500 0 12 0           
7 Unknown 11 ACIS 5.0 NT 24 Fri Mar 26 01:10:46 1999 
-1 9.9999999999999995e-007 1e-010 
body $-1 $12 $-1 $13 #
body $-1 $14 $-1 $15 #
body $-1 $16 $-1 $17 #
body $-1 $18 $-1 $19 #
body $-1 $20 $-1 $21 #
body $-1 $22 $-1 $23 #
body $-1 $24 $-1 $25 #
body $-1 $26 $-1 $27 #
body $-1 $28 $-1 $29 #
body $-1 $30 $-1 $31 #
body $-1 $32 $-1 $33 #
body $-1 $34 $-1 $35 #
lump $-1 $-1 $36 $0 #
transform $-1 1 0 0 0 1 0 0 0 1 46.364940336313978 22.776085364403535 6.6995069297686882 1 rotate no_reflect no_shear #
lump $-1 $-1 $37 $1 #
transform $-1 1 0 0 0 1 0 0 0 1 46.364940336313978 22.776085364403535 6.6995069297686882 1 rotate no_reflect no_shear #
lump $-1 $-1 $38 $2 #
transform $-1 1 0 0 0 1 0 0 0 1 46.364940336313978 22.776085364403535 6.6995069297686882 1 rotate no_reflect no_shear #
lump $-1 $-1 $39 $3 #
transform $-1 1 0 0 0 1 0 0 0 1 46.364940336313978 22.776085364403535 6.6995069297686882 1 rotate no_reflect no_shear #
lump $-1 $-1 $40 $4 #
transform $-1 1 0 0 0 1 0 0 0 1 46.364940336313978 22.776085364403535 6.6995069297686882 1 rotate no_reflect no_shear #
lump $-1 $-1 $41 $5 #
transform $-1 1 0 0 0 1 0 0 0 1 46.364940336313978 22.776085364403535 6.6995069297686882 1 rotate no_reflect no_shear #
lump $-1 $-1 $42 $6 #
transform $-1 1 0 0 0 1 0 0 0 1 46.364940336313978 22.776085364403535 6.6995069297686882 1 rotate no_reflect no_shear #
lump $-1 $-1 $43 $7 #
transform $-1 1 0 0 0 1 0 0 0 1 46.364940336313978 22.776085364403535 6.6995069297686882 1 rotate no_reflect no_shear #
lump $-1 $-1 $44 $8 #
transform $-1 1 0 0 0 1 0 0 0 1 46.364940336313978 22.776085364403535 6.6995069297686882 1 rotate no_reflect no_shear #
lump $-1 $-1 $45 $9 #
transform $-1 1 0 0 0 1 0 0 0 1 46.364940336313978 22.776085364403535 6.6995069297686882 1 rotate no_reflect no_shear #
lump $-1 $-1 $46 $10 #
transform $-1 1 0 0 0 1 0 0 0 1 46.364940336313978 22.776085364403535 6.6995069297686882 1 rotate no_reflect no_shear #
lump $-1 $-1 $47 $11 #
transform $-1 1 0 0 0 1 0 0 0 1 46.364940336313978 22.776085364403535 6.6995069297686882 1 rotate no_reflect no_shear #
shell $-1 $-1 $-1 $48 $-1 $12 #
shell $-1 $-1 $-1 $49 $-1 $14 #
shell $-1 $-1 $-1 $50 $-1 $16 #
shell $-1 $-1 $-1 $51 $-1 $18 #
shell $-1 $-1 $-1 $52 $-1 $20 #
shell $-1 $-1 $-1 $53 $-1 $22 #
shell $-1 $-1 $-1 $54 $-1 $24 #
shell $-1 $-1 $-1 $55 $-1 $26 #
shell $-1 $-1 $-1 $56 $-1 $28 #
shell $-1 $-1 $-1 $57 $-1 $30 #
shell $-1 $-1 $-1 $58 $-1 $32 #
shell $-1 $-1 $-1 $59 $-1 $34 #
face $-1 $60 $61 $36 $-1 $62 forward single #
face $-1 $63 $64 $37 $-1 $65 forward single #
face $-1 $66 $67 $38 $-1 $68 reversed single #
face $-1 $69 $70 $39 $-1 $71 forward single #
face $-1 $72 $73 $40 $-1 $74 forward single #
face $-1 $75 $76 $41 $-1 $77 forward single #
face $-1 $78 $79 $42 $-1 $80 reversed single #
face $-1 $81 $82 $43 $-1 $83 forward single #
face $-1 $84 $85 $44 $-1 $86 forward single #
face $-1 $87 $88 $45 $-1 $89 forward single #
face $-1 $90 $91 $46 $-1 $92 reversed single #
face $-1 $93 $94 $47 $-1 $95 forward single #
face $-1 $96 $97 $36 $-1 $98 reversed single #
loop $-1 $-1 $99 $48 #
plane-surface $-1 0 0 6.6995069297686882 0 0 1 1 0 0 forward_v I I I I #
face $-1 $100 $101 $37 $-1 $102 reversed single #
loop $-1 $-1 $103 $49 #
plane-surface $-1 0 -22.776085364403535 0 0 1 0 0 0 1 forward_v I I I I #
face $-1 $104 $105 $38 $-1 $106 reversed single #
loop $-1 $-1 $107 $50 #
plane-surface $-1 30.383013602590481 -2.1299338990664438 132.18581385212673 0 -1 0 -0.61566148304635926 0 -0.78801074757464917 forward_v I I I I #
face $-1 $108 $109 $39 $-1 $110 forward single #
loop $-1 $111 $112 $51 #
cone-surface $-1 43.064573143632188 -7.7203458982529671 3.9674757926765762 -0.61566148304635926 0 -0.78801074757464917 0.39400537378732459 0 -0.30783074152317963 1 I I 0 1 0.5 forward I I I I #
face $-1 $113 $114 $40 $-1 $115 forward single #
loop $-1 $116 $117 $52 #
cone-surface $-1 43.064573143632188 -5.6239413985580207 3.9674757926765762 -0.61566148304635926 0 -0.78801074757464917 0.39400537378732459 0 -0.30783074152317963 1 I I 0 1 0.5 forward I I I I #
face $-1 $118 $119 $41 $-1 $120 forward single #
loop $-1 $121 $122 $53 #
cone-surface $-1 43.064573143632188 -3.527536898863076 3.9674757926765762 -0.61566148304635926 0 -0.78801074757464917 0.39400537378732459 0 -0.30783074152317963 1 I I 0 1 0.5 forward I I I I #
face $-1 $123 $124 $42 $-1 $125 reversed single #
loop $-1 $-1 $126 $54 #
plane-surface $-1 30.383013602590481 16.387285521503454 132.18581385212673 0 -1 0 -0.61566148304635926 0 -0.78801074757464917 forward_v I I I I #
face $-1 $127 $128 $43 $-1 $129 forward single #
loop $-1 $130 $131 $55 #
cone-surface $-1 43.064573143632188 10.796873522316936 3.9674757926765762 -0.61566148304635926 0 -0.78801074757464917 0.39400537378732459 0 -0.30783074152317963 1 I I 0 1 0.5 forward I I I I #
face $-1 $132 $133 $44 $-1 $134 forward single #
loop $-1 $135 $136 $56 #
cone-surface $-1 43.064573143632188 12.893278022011877 3.9674757926765762 -0.61566148304635926 0 -0.78801074757464917 0.39400537378732459 0 -0.30783074152317963 1 I I 0 1 0.5 forward I I I I #
face $-1 $137 $138 $45 $-1 $139 forward single #
loop $-1 $140 $141 $57 #
cone-surface $-1 43.064573143632188 14.989682521706825 3.9674757926765762 -0.61566148304635926 0 -0.78801074757464917 0.39400537378732459 0 -0.30783074152317963 1 I I 0 1 0.5 forward I I I I #
face $-1 $142 $143 $46 $-1 $144 reversed single #
loop $-1 $-1 $145 $58 #
plane-surface $-1 -103.45515619393603 10.636573557682439 74.574887341710905 0 1 0 -0.61566148304635926 0 0.78801074757464917 forward_v I I I I #
face $-1 $146 $147 $47 $-1 $148 forward single #
loop $-1 $149 $150 $59 #
cone-surface $-1 -42.183707271279701 14.496067491703144 3.0061908343692125 0.61566148304635926 0 -0.78801074757464917 1.1820161213619738 0 0.92349222456953894 1 I I 0 1 1.5 forward I I I I #
face $-1 $151 $152 $36 $-1 $153 reversed single #
loop $-1 $-1 $154 $60 #
plane-surface $-1 0 0 -6.6995069297686882 0 0 1 1 0 0 forward_v I I I I #
coedge $-1 $155 $156 $157 $158 forward $61 $-1 #
face $-1 $159 $160 $37 $-1 $161 forward single #
loop $-1 $-1 $162 $63 #
plane-surface $-1 -46.364940336313978 0 0 1 0 0 0 0 -1 forward_v I I I I #
coedge $-1 $163 $164 $165 $166 forward $64 $-1 #
face $-1 $167 $168 $38 $-1 $169 reversed single #
loop $-1 $-1 $170 $66 #
plane-surface $-1 -26.707202255031575 -5.6239413985580207 59.11367126078116 0.61566148304635926 0 0.78801074757464917 0.78801074757464917 0 -0.61566148304635926 forward_v I I I I #
coedge $-1 $171 $172 $173 $174 reversed $67 $-1 #
face $-1 $-1 $175 $39 $-1 $176 forward single #
loop $-1 $177 $178 $69 #
cone-surface $-1 42.602827031347417 -7.7203458982529671 3.3764677319955894 -0.61566148304635926 0 -0.78801074757464917 0.19700268689366229 0 -0.15391537076158981 1 I I -0.70710678118654746 0.70710678118654746 0.25 forward I I I I #
loop $-1 $-1 $179 $51 #
coedge $-1 $112 $112 $180 $181 reversed $70 $-1 #
face $-1 $-1 $182 $40 $-1 $183 forward single #
loop $-1 $184 $185 $72 #
cone-surface $-1 42.602827031347417 -5.6239413985580207 3.3764677319955894 -0.61566148304635926 0 -0.78801074757464917 0.19700268689366229 0 -0.15391537076158981 1 I I -0.70710678118654746 0.70710678118654746 0.25 forward I I I I #
loop $-1 $-1 $186 $52 #
coedge $-1 $117 $117 $187 $188 reversed $73 $-1 #
face $-1 $-1 $189 $41 $-1 $190 forward single #
loop $-1 $191 $192 $75 #
cone-surface $-1 42.602827031347417 -3.527536898863076 3.3764677319955894 -0.61566148304635926 0 -0.78801074757464917 0.19700268689366229 0 -0.15391537076158981 1 I I -0.70710678118654746 0.70710678118654746 0.25 forward I I I I #
loop $-1 $-1 $193 $53 #
coedge $-1 $122 $122 $194 $195 reversed $76 $-1 #
face $-1 $196 $197 $42 $-1 $198 reversed single #
loop $-1 $-1 $199 $78 #
plane-surface $-1 -26.707202255031575 12.893278022011877 59.11367126078116 0.61566148304635926 0 0.78801074757464917 0.78801074757464917 0 -0.61566148304635926 forward_v I I I I #
coedge $-1 $200 $201 $202 $203 reversed $79 $-1 #
face $-1 $-1 $204 $43 $-1 $205 forward single #
loop $-1 $206 $207 $81 #
cone-surface $-1 42.602827031347417 10.796873522316936 3.3764677319955894 -0.61566148304635926 0 -0.78801074757464917 0.19700268689366229 0 -0.15391537076158981 1 I I -0.70710678118654746 0.70710678118654746 0.25 forward I I I I #
loop $-1 $-1 $208 $55 #
coedge $-1 $131 $131 $209 $210 reversed $82 $-1 #
face $-1 $-1 $211 $44 $-1 $212 forward single #
loop $-1 $213 $214 $84 #
cone-surface $-1 42.602827031347417 12.893278022011877 3.3764677319955894 -0.61566148304635926 0 -0.78801074757464917 0.19700268689366229 0 -0.15391537076158981 1 I I -0.70710678118654746 0.70710678118654746 0.25 forward I I I I #
loop $-1 $-1 $215 $56 #
coedge $-1 $136 $136 $216 $217 reversed $85 $-1 #
face $-1 $-1 $218 $45 $-1 $219 forward single #
loop $-1 $220 $221 $87 #
cone-surface $-1 42.602827031347417 14.989682521706825 3.3764677319955894 -0.61566148304635926 0 -0.78801074757464917 0.19700268689366229 0 -0.15391537076158981 1 I I -0.70710678118654746 0.70710678118654746 0.25 forward I I I I #
loop $-1 $-1 $222 $57 #
coedge $-1 $141 $141 $223 $224 reversed $88 $-1 #
face $-1 $225 $226 $46 $-1 $227 reversed single #
loop $-1 $-1 $228 $90 #
plane-surface $-1 -46.364940336313978 14.496067491703144 1.5027447503653377 -0.61566148304635926 0 0.78801074757464917 0.78801074757464917 0 0.61566148304635926 forward_v I I I I #
coedge $-1 $229 $230 $231 $232 reversed $91 $-1 #
face $-1 $-1 $233 $47 $-1 $234 forward single #
loop $-1 $235 $236 $93 #
cone-surface $-1 -40.866504159807967 14.496067491703144 1.3202477679904199 0.61566148304635926 0 -0.78801074757464917 0.59100806068098688 0 0.46174611228476947 1 I I -0.70710678118654757 0.70710678118654757 0.75 forward I I I I #
loop $-1 $-1 $237 $59 #
coedge $-1 $150 $150 $238 $239 reversed $94 $-1 #
face $-1 $240 $241 $36 $-1 $242 reversed single #
loop $-1 $-1 $243 $96 #
plane-surface $-1 0 -22.776085364403535 0 0 1 0 0 0 1 forward_v I I I I #
coedge $-1 $244 $245 $246 $247 forward $97 $-1 #
coedge $-1 $248 $99 $249 $250 forward $61 $-1 #
coedge $-1 $99 $248 $251 $252 forward $61 $-1 #
coedge $-1 $253 $254 $99 $158 reversed $255 $-1 #
edge $-1 $256 -22.776085364403535 $257 22.776085364403535 $157 $258 forward 7 unknown #
face $-1 $259 $260 $37 $-1 $261 reversed single #
loop $-1 $-1 $262 $100 #
plane-surface $-1 0 -27.034951308237169 4.8977783892556062 0 0 1 1 0 0 forward_v I I I I #
coedge $-1 $263 $264 $164 $265 forward $101 $-1 #
coedge $-1 $266 $103 $267 $268 reversed $64 $-1 #
coedge $-1 $103 $266 $162 $265 reversed $64 $-1 #
coedge $-1 $269 $262 $103 $166 reversed $160 $-1 #
edge $-1 $270 -46.364940336313978 $271 46.364940336313978 $165 $272 forward 7 unknown #
face $-1 $273 $274 $38 $-1 $275 reversed single #
loop $-1 $-1 $276 $104 #
plane-surface $-1 30.383013602590481 -9.1179488980495975 132.18581385212673 0 1 0 0.61566148304635926 0 0.78801074757464917 forward_v I I I I #
coedge $-1 $277 $278 $279 $280 reversed $105 $-1 #
coedge $-1 $172 $107 $281 $282 reversed $67 $-1 #
coedge $-1 $107 $171 $277 $283 reversed $67 $-1 #
coedge $-1 $279 $284 $107 $174 forward $285 $-1 #
edge $-1 $286 -31.173433535018738 $287 -25.188360632701539 $173 $288 forward 7 unknown #
loop $-1 $-1 $180 $108 #
plane-surface $-1 -26.707202255031575 -5.6239413985580207 59.11367126078116 0.61566148304635926 0 0.78801074757464917 0.78801074757464917 0 -0.61566148304635926 forward_v I I I I #
loop $-1 $-1 $289 $69 #
coedge $-1 $178 $178 $179 $290 reversed $109 $-1 #
coedge $-1 $179 $179 $178 $290 forward $111 $-1 #
coedge $-1 $180 $180 $112 $181 forward $175 $-1 #
edge $-1 $291 0 $291 6.2831853071796004 $180 $292 forward 7 unknown #
loop $-1 $-1 $187 $113 #
plane-surface $-1 -26.707202255031575 -5.6239413985580207 59.11367126078116 0.61566148304635926 0 0.78801074757464917 0.78801074757464917 0 -0.61566148304635926 forward_v I I I I #
loop $-1 $-1 $293 $72 #
coedge $-1 $185 $185 $186 $294 reversed $114 $-1 #
coedge $-1 $186 $186 $185 $294 forward $116 $-1 #
coedge $-1 $187 $187 $117 $188 forward $182 $-1 #
edge $-1 $295 0 $295 6.2831853071796004 $187 $296 forward 7 unknown #
loop $-1 $-1 $194 $118 #
plane-surface $-1 -26.707202255031575 -5.6239413985580207 59.11367126078116 0.61566148304635926 0 0.78801074757464917 0.78801074757464917 0 -0.61566148304635926 forward_v I I I I #
loop $-1 $-1 $297 $75 #
coedge $-1 $192 $192 $193 $298 reversed $119 $-1 #
coedge $-1 $193 $193 $192 $298 forward $121 $-1 #
coedge $-1 $194 $194 $122 $195 forward $189 $-1 #
edge $-1 $299 0 $299 6.2831853071796004 $194 $300 forward 7 unknown #
face $-1 $301 $302 $42 $-1 $303 reversed single #
loop $-1 $-1 $304 $123 #
plane-surface $-1 30.383013602590481 9.3992705225203004 132.18581385212673 0 1 0 0.61566148304635926 0 0.78801074757464917 forward_v I I I I #
coedge $-1 $305 $306 $307 $308 reversed $124 $-1 #
coedge $-1 $201 $126 $309 $310 reversed $79 $-1 #
coedge $-1 $126 $200 $305 $311 reversed $79 $-1 #
coedge $-1 $307 $312 $126 $203 forward $313 $-1 #
edge $-1 $314 -31.173433535018738 $315 -25.188360632701539 $202 $316 forward 7 unknown #
loop $-1 $-1 $209 $127 #
plane-surface $-1 -26.707202255031575 12.893278022011877 59.11367126078116 0.61566148304635926 0 0.78801074757464917 0.78801074757464917 0 -0.61566148304635926 forward_v I I I I #
loop $-1 $-1 $317 $81 #
coedge $-1 $207 $207 $208 $318 reversed $128 $-1 #
coedge $-1 $208 $208 $207 $318 forward $130 $-1 #
coedge $-1 $209 $209 $131 $210 forward $204 $-1 #
edge $-1 $319 0 $319 6.2831853071796004 $209 $320 forward 7 unknown #
loop $-1 $-1 $216 $132 #
plane-surface $-1 -26.707202255031575 12.893278022011877 59.11367126078116 0.61566148304635926 0 0.78801074757464917 0.78801074757464917 0 -0.61566148304635926 forward_v I I I I #
loop $-1 $-1 $321 $84 #
coedge $-1 $214 $214 $215 $322 reversed $133 $-1 #
coedge $-1 $215 $215 $214 $322 forward $135 $-1 #
coedge $-1 $216 $216 $136 $217 forward $211 $-1 #
edge $-1 $323 0 $323 6.2831853071796004 $216 $324 forward 7 unknown #
loop $-1 $-1 $223 $137 #
plane-surface $-1 -26.707202255031575 12.893278022011877 59.11367126078116 0.61566148304635926 0 0.78801074757464917 0.78801074757464917 0 -0.61566148304635926 forward_v I I I I #
loop $-1 $-1 $325 $87 #
coedge $-1 $221 $221 $222 $326 reversed $138 $-1 #
coedge $-1 $222 $222 $221 $326 forward $140 $-1 #
coedge $-1 $223 $223 $141 $224 forward $218 $-1 #
edge $-1 $327 0 $327 6.2831853071796004 $223 $328 forward 7 unknown #
face $-1 $329 $330 $46 $-1 $331 forward single #
loop $-1 $-1 $332 $142 #
plane-surface $-1 -103.45515619393603 18.355561425723849 74.574887341710905 0 -1 0 0.61566148304635926 0 -0.78801074757464917 forward_v I I I I #
coedge $-1 $333 $334 $335 $336 reversed $143 $-1 #
coedge $-1 $230 $145 $337 $338 reversed $91 $-1 #
coedge $-1 $145 $229 $333 $339 reversed $91 $-1 #
coedge $-1 $335 $340 $145 $232 forward $330 $-1 #
edge $-1 $341 5.3626377606540387 $342 12.014189892348682 $231 $343 forward 7 unknown #
loop $-1 $-1 $238 $146 #
plane-surface $-1 -46.364940336313978 14.496067491703144 1.5027447503653377 -0.61566148304635926 0 0.78801074757464917 0.78801074757464917 0 0.61566148304635926 forward_v I I I I #
loop $-1 $-1 $344 $93 #
coedge $-1 $236 $236 $237 $345 reversed $147 $-1 #
coedge $-1 $237 $237 $236 $345 forward $149 $-1 #
coedge $-1 $238 $238 $150 $239 forward $233 $-1 #
edge $-1 $346 0 $346 6.2831853071796004 $238 $347 forward 7 unknown #
face $-1 $348 $349 $36 $-1 $350 reversed single #
loop $-1 $-1 $351 $151 #
plane-surface $-1 -46.364940336313978 0 0 1 0 0 0 0 -1 forward_v I I I I #
coedge $-1 $352 $251 $353 $354 forward $152 $-1 #
coedge $-1 $355 $154 $352 $356 forward $97 $-1 #
coedge $-1 $154 $355 $357 $358 forward $97 $-1 #
coedge $-1 $254 $253 $154 $247 reversed $255 $-1 #
edge $-1 $359 -22.776085364403535 $360 22.776085364403535 $246 $361 forward 7 unknown #
coedge $-1 $156 $155 $362 $363 forward $61 $-1 #
coedge $-1 $364 $365 $155 $250 reversed $349 $-1 #
edge $-1 $257 -46.364940336313978 $366 46.364940336313978 $249 $367 forward 7 unknown #
coedge $-1 $243 $368 $156 $252 reversed $152 $-1 #
edge $-1 $369 -46.364940336313978 $256 46.364940336313978 $251 $370 forward 7 unknown #
coedge $-1 $246 $157 $368 $371 forward $255 $-1 #
coedge $-1 $157 $246 $364 $372 reversed $255 $-1 #
loop $-1 $-1 $253 $348 #
vertex $-1 $158 $373 #
vertex $-1 $158 $374 #
straight-curve $-1 46.364940336313978 0 6.6995069297686882 0 1 0 I I #
face $-1 $375 $376 $37 $-1 $377 reversed single #
loop $-1 $-1 $378 $159 #
plane-surface $-1 0 -27.034951308237169 1.4966034944925184 0 0 1 1 0 0 forward_v I I I I #
coedge $-1 $165 $379 $380 $381 forward $160 $-1 #
coedge $-1 $382 $162 $383 $384 reversed $101 $-1 #
coedge $-1 $162 $382 $269 $385 reversed $101 $-1 #
edge $-1 $270 -4.8977783892556062 $386 -1.4966034944925184 $162 $387 forward 7 unknown #
coedge $-1 $164 $163 $388 $389 forward $64 $-1 #
coedge $-1 $380 $390 $163 $268 forward $391 $-1 #
edge $-1 $392 1.4966034944925184 $271 4.8977783892556062 $267 $393 forward 7 unknown #
coedge $-1 $379 $165 $264 $385 forward $160 $-1 #
vertex $-1 $265 $394 #
vertex $-1 $381 $395 #
straight-curve $-1 0 -22.776085364403535 4.8977783892556062 1 0 0 I I #
face $-1 $-1 $285 $38 $-1 $396 forward single #
loop $-1 $-1 $397 $167 #
plane-surface $-1 46.364940336313978 0 0 -1 0 0 0 0 1 forward_v I I I I #
coedge $-1 $398 $399 $400 $401 reversed $168 $-1 #
coedge $-1 $402 $170 $172 $283 forward $105 $-1 #
coedge $-1 $170 $402 $398 $403 forward $105 $-1 #
coedge $-1 $400 $173 $170 $280 forward $285 $-1 #
edge $-1 $287 -0.68203680021256652 $404 6.3059781987705872 $279 $405 forward 7 unknown #
coedge $-1 $406 $407 $171 $282 forward $274 $-1 #
edge $-1 $408 -64.069451522904245 $286 -59.393399996294676 $281 $409 forward 7 unknown #
edge $-1 $287 85.134714082910534 $408 92.729880672627928 $172 $410 forward 7 unknown #
coedge $-1 $173 $400 $406 $411 forward $285 $-1 #
loop $-1 $-1 $400 $273 #
vertex $-1 $282 $412 #
vertex $-1 $174 $413 #
straight-curve $-1 15.19150680129524 -2.1299338990664438 6.6995069297686882 -1 0 0 I I #
coedge $-1 $289 $289 $-1 $414 reversed $177 $-1 #
edge $-1 $415 0 $415 6.2831853071796004 $178 $416 forward 7 unknown #
vertex $-1 $181 $417 #
ellipse-curve $-1 43.372403885155379 -7.7203458982529671 4.3614811664639124 0.61566148304635926 0 0.78801074757464917 0.39400537378732459 0 -0.30783074152317963 1 I I #
coedge $-1 $293 $293 $-1 $418 reversed $184 $-1 #
edge $-1 $419 0 $419 6.2831853071796004 $185 $420 forward 7 unknown #
vertex $-1 $188 $421 #
ellipse-curve $-1 43.372403885155379 -5.6239413985580207 4.3614811664639124 0.61566148304635926 0 0.78801074757464917 0.39400537378732459 0 -0.30783074152317963 1 I I #
coedge $-1 $297 $297 $-1 $422 reversed $191 $-1 #
edge $-1 $423 0 $423 6.2831853071796004 $192 $424 forward 7 unknown #
vertex $-1 $195 $425 #
ellipse-curve $-1 43.372403885155379 -3.527536898863076 4.3614811664639124 0.61566148304635926 0 0.78801074757464917 0.39400537378732459 0 -0.30783074152317963 1 I I #
face $-1 $-1 $313 $42 $-1 $426 forward single #
loop $-1 $-1 $427 $196 #
plane-surface $-1 46.364940336313978 0 0 -1 0 0 0 0 1 forward_v I I I I #
coedge $-1 $428 $429 $430 $431 reversed $197 $-1 #
coedge $-1 $432 $199 $201 $311 forward $124 $-1 #
coedge $-1 $199 $432 $428 $433 forward $124 $-1 #
coedge $-1 $430 $202 $199 $308 forward $313 $-1 #
edge $-1 $315 -9.9406465104975155 $434 -2.9526315115143618 $307 $435 forward 7 unknown #
coedge $-1 $436 $437 $200 $310 forward $302 $-1 #
edge $-1 $438 -64.069451522904245 $314 -59.393399996294676 $309 $439 forward 7 unknown #
edge $-1 $315 85.134714082910534 $438 92.729880672627928 $201 $440 forward 7 unknown #
coedge $-1 $202 $430 $436 $441 forward $313 $-1 #
loop $-1 $-1 $430 $301 #
vertex $-1 $310 $442 #
vertex $-1 $203 $443 #
straight-curve $-1 15.19150680129524 16.387285521503454 6.6995069297686882 -1 0 0 I I #
coedge $-1 $317 $317 $-1 $444 reversed $206 $-1 #
edge $-1 $445 0 $445 6.2831853071796004 $207 $446 forward 7 unknown #
vertex $-1 $210 $447 #
ellipse-curve $-1 43.372403885155379 10.796873522316936 4.3614811664639124 0.61566148304635926 0 0.78801074757464917 0.39400537378732459 0 -0.30783074152317963 1 I I #
coedge $-1 $321 $321 $-1 $448 reversed $213 $-1 #
edge $-1 $449 0 $449 6.2831853071796004 $214 $450 forward 7 unknown #
vertex $-1 $217 $451 #
ellipse-curve $-1 43.372403885155379 12.893278022011877 4.3614811664639124 0.61566148304635926 0 0.78801074757464917 0.39400537378732459 0 -0.30783074152317963 1 I I #
coedge $-1 $325 $325 $-1 $452 reversed $220 $-1 #
edge $-1 $453 0 $453 6.2831853071796004 $221 $454 forward 7 unknown #
vertex $-1 $224 $455 #
ellipse-curve $-1 43.372403885155379 14.989682521706825 4.3614811664639124 0.61566148304635926 0 0.78801074757464917 0.39400537378732459 0 -0.30783074152317963 1 I I #
face $-1 $-1 $456 $46 $-1 $457 reversed single #
loop $-1 $-1 $231 $225 #
plane-surface $-1 0 0 6.6995069297686882 0 0 1 1 0 0 forward_v I I I I #
coedge $-1 $458 $459 $460 $461 reversed $226 $-1 #
coedge $-1 $462 $228 $230 $339 forward $143 $-1 #
coedge $-1 $228 $462 $458 $463 forward $143 $-1 #
coedge $-1 $460 $231 $228 $336 forward $330 $-1 #
edge $-1 $342 3.3885398118308672 $464 11.107527679872277 $335 $465 forward 7 unknown #
coedge $-1 $466 $467 $229 $338 forward $456 $-1 #
edge $-1 $468 -35.784698920490115 $341 -30.587936741086764 $337 $469 forward 7 unknown #
edge $-1 $342 -8.4409408782391431 $468 0 $230 $470 forward 7 unknown #
coedge $-1 $231 $460 $466 $471 forward $330 $-1 #
vertex $-1 $232 $472 #
vertex $-1 $232 $473 #
straight-curve $-1 -51.727578096968017 10.636573557682439 6.6995069297686882 1 0 0 I I #
coedge $-1 $344 $344 $-1 $474 reversed $235 $-1 #
edge $-1 $475 0 $475 6.2831853071796004 $236 $476 forward 7 unknown #
vertex $-1 $239 $477 #
ellipse-curve $-1 -43.039164270466657 14.496067491703144 4.1011258400670112 -0.61566148304635926 0 0.78801074757464917 1.1820161213619738 0 0.92349222456953894 1 I I #
face $-1 $-1 $255 $36 $-1 $478 reversed single #
loop $-1 $-1 $364 $240 #
plane-surface $-1 0 22.776085364403535 0 0 -1 0 0 0 -1 forward_v I I I I #
coedge $-1 $479 $362 $365 $480 forward $241 $-1 #
coedge $-1 $368 $243 $244 $356 reversed $152 $-1 #
coedge $-1 $362 $479 $243 $354 reversed $241 $-1 #
edge $-1 $369 -6.6995069297686882 $481 6.6995069297686882 $353 $482 forward 7 unknown #
coedge $-1 $245 $244 $479 $483 forward $97 $-1 #
edge $-1 $360 -46.364940336313978 $481 46.364940336313978 $352 $484 forward 7 unknown #
coedge $-1 $365 $364 $245 $358 reversed $349 $-1 #
edge $-1 $485 -46.364940336313978 $359 46.364940336313978 $357 $486 forward 7 unknown #
vertex $-1 $247 $487 #
vertex $-1 $371 $488 #
straight-curve $-1 46.364940336313978 0 -6.6995069297686882 0 -1 0 I I #
coedge $-1 $351 $353 $248 $363 reversed $241 $-1 #
edge $-1 $366 -22.776085364403535 $369 22.776085364403535 $362 $489 forward 7 unknown #
coedge $-1 $357 $249 $254 $372 forward $349 $-1 #
coedge $-1 $249 $357 $351 $480 reversed $349 $-1 #
vertex $-1 $250 $490 #
straight-curve $-1 0 22.776085364403535 6.6995069297686882 -1 0 0 I I #
coedge $-1 $251 $352 $253 $371 reversed $152 $-1 #
vertex $-1 $363 $491 #
straight-curve $-1 0 -22.776085364403535 6.6995069297686882 1 0 0 I I #
edge $-1 $256 -6.6995069297686882 $360 6.6995069297686882 $253 $492 forward 7 unknown #
edge $-1 $257 -6.6995069297686882 $359 6.6995069297686882 $254 $493 forward 7 unknown #
point $-1 46.364940336313978 -22.776085364403535 6.6995069297686882 #
point $-1 46.364940336313978 22.776085364403535 6.6995069297686882 #
face $-1 $-1 $391 $37 $-1 $494 reversed single #
loop $-1 $-1 $495 $259 #
plane-surface $-1 0 -31.293817252070802 3.1971909418740623 0 1 0 0 0 1 forward_v I I I I #
coedge $-1 $496 $388 $390 $497 forward $260 $-1 #
coedge $-1 $262 $269 $498 $499 forward $160 $-1 #
coedge $-1 $500 $267 $262 $381 reversed $391 $-1 #
edge $-1 $501 -4.2588659438336336 $271 4.2588659438336336 $380 $502 forward 7 unknown #
coedge $-1 $264 $263 $495 $503 reversed $101 $-1 #
coedge $-1 $388 $496 $263 $384 forward $260 $-1 #
edge $-1 $504 -4.2588659438336336 $386 4.2588659438336336 $263 $505 forward 7 unknown #
edge $-1 $270 -4.2588659438336336 $506 4.2588659438336336 $264 $507 forward 7 unknown #
vertex $-1 $265 $508 #
straight-curve $-1 -46.364940336313978 -22.776085364403535 0 0 0 -1 I I #
coedge $-1 $378 $383 $266 $389 reversed $260 $-1 #
edge $-1 $392 -46.364940336313978 $386 46.364940336313978 $388 $509 forward 7 unknown #
coedge $-1 $267 $500 $378 $497 reversed $391 $-1 #
loop $-1 $-1 $267 $375 #
vertex $-1 $268 $510 #
straight-curve $-1 46.364940336313978 -22.776085364403535 0 0 0 1 I I #
point $-1 -46.364940336313978 -22.776085364403535 4.8977783892556062 #
point $-1 46.364940336313978 -22.776085364403535 4.8977783892556062 #
plane-surface $-1 0 0 6.6995069297686882 0 0 1 1 0 0 forward_v I I I I #
coedge $-1 $407 $406 $399 $511 forward $274 $-1 #
coedge $-1 $399 $276 $278 $403 reversed $168 $-1 #
coedge $-1 $276 $398 $397 $511 reversed $168 $-1 #
coedge $-1 $284 $279 $276 $401 forward $285 $-1 #
edge $-1 $404 25.188360632701539 $512 31.173433535018738 $400 $513 forward 7 unknown #
coedge $-1 $278 $277 $407 $514 reversed $105 $-1 #
edge $-1 $515 -92.729880672627928 $404 -85.134714082910534 $398 $516 forward 7 unknown #
vertex $-1 $280 $517 #
straight-curve $-1 40.379867433996779 -2.8119706992790103 6.6995069297686811 0 -1 0 I I #
coedge $-1 $397 $281 $284 $411 reversed $274 $-1 #
coedge $-1 $281 $397 $402 $514 forward $274 $-1 #
vertex $-1 $282 $518 #
straight-curve $-1 46.364940336313978 -2.1299338990664438 66.092906926063364 0 0 1 I I #
straight-curve $-1 -26.707202255031575 -2.1299338990664438 59.11367126078116 0.78801074757464917 0 -0.61566148304635926 I I #
edge $-1 $512 -9.1179488980495975 $286 -2.1299338990664438 $406 $519 forward 7 unknown #
point $-1 46.364940336313978 -2.1299338990664438 6.6995069297686882 #
point $-1 40.379867433996779 -2.1299338990664438 6.6995069297686882 #
edge $-1 $520 1 $520 0 $289 $-1 forward 7 unknown #
vertex $-1 $290 $521 #
ellipse-curve $-1 42.756742402109005 -7.7203458982529671 3.5734704188892517 0.61566148304635926 0 0.78801074757464917 0.39400537378732459 0 -0.30783074152317963 1 I I #
point $-1 43.766409258942687 -7.7203458982529671 4.053650424940721 #
edge $-1 $522 1 $522 0 $293 $-1 forward 7 unknown #
vertex $-1 $294 $523 #
ellipse-curve $-1 42.756742402109005 -5.6239413985580207 3.5734704188892517 0.61566148304635926 0 0.78801074757464917 0.39400537378732459 0 -0.30783074152317963 1 I I #
point $-1 43.766409258942687 -5.6239413985580207 4.053650424940721 #
edge $-1 $524 1 $524 0 $297 $-1 forward 7 unknown #
vertex $-1 $298 $525 #
ellipse-curve $-1 42.756742402109005 -3.527536898863076 3.5734704188892517 0.61566148304635926 0 0.78801074757464917 0.39400537378732459 0 -0.30783074152317963 1 I I #
point $-1 43.766409258942687 -3.527536898863076 4.053650424940721 #
plane-surface $-1 0 0 6.6995069297686882 0 0 1 1 0 0 forward_v I I I I #
coedge $-1 $437 $436 $429 $526 forward $302 $-1 #
coedge $-1 $429 $304 $306 $433 reversed $197 $-1 #
coedge $-1 $304 $428 $427 $526 reversed $197 $-1 #
coedge $-1 $312 $307 $304 $431 forward $313 $-1 #
edge $-1 $434 25.188360632701539 $527 31.173433535018738 $430 $528 forward 7 unknown #
coedge $-1 $306 $305 $437 $529 reversed $124 $-1 #
edge $-1 $530 -92.729880672627928 $434 -85.134714082910534 $428 $531 forward 7 unknown #
vertex $-1 $308 $532 #
straight-curve $-1 40.379867433996779 6.4466390110059386 6.6995069297686811 0 -1 0 I I #
coedge $-1 $427 $309 $312 $441 reversed $302 $-1 #
coedge $-1 $309 $427 $432 $529 forward $302 $-1 #
vertex $-1 $310 $533 #
straight-curve $-1 46.364940336313978 16.387285521503454 66.092906926063364 0 0 1 I I #
straight-curve $-1 -26.707202255031575 16.387285521503454 59.11367126078116 0.78801074757464917 0 -0.61566148304635926 I I #
edge $-1 $527 9.3992705225203004 $314 16.387285521503454 $436 $534 forward 7 unknown #
point $-1 46.364940336313978 16.387285521503454 6.6995069297686882 #
point $-1 40.379867433996779 16.387285521503454 6.6995069297686882 #
edge $-1 $535 1 $535 0 $317 $-1 forward 7 unknown #
vertex $-1 $318 $536 #
ellipse-curve $-1 42.756742402109005 10.796873522316936 3.5734704188892517 0.61566148304635926 0 0.78801074757464917 0.39400537378732459 0 -0.30783074152317963 1 I I #
point $-1 43.766409258942687 10.796873522316936 4.053650424940721 #
edge $-1 $537 1 $537 0 $321 $-1 forward 7 unknown #
vertex $-1 $322 $538 #
ellipse-curve $-1 42.756742402109005 12.893278022011877 3.5734704188892517 0.61566148304635926 0 0.78801074757464917 0.39400537378732459 0 -0.30783074152317963 1 I I #
point $-1 43.766409258942687 12.893278022011877 4.053650424940721 #
edge $-1 $539 1 $539 0 $325 $-1 forward 7 unknown #
vertex $-1 $326 $540 #
ellipse-curve $-1 42.756742402109005 14.989682521706825 3.5734704188892517 0.61566148304635926 0 0.78801074757464917 0.39400537378732459 0 -0.30783074152317963 1 I I #
point $-1 43.766409258942687 14.989682521706825 4.053650424940721 #
loop $-1 $-1 $337 $329 #
plane-surface $-1 -46.364940336313978 0 0 1 0 0 0 0 -1 forward_v I I I I #
coedge $-1 $459 $332 $334 $463 reversed $226 $-1 #
coedge $-1 $332 $458 $541 $542 reversed $226 $-1 #
coedge $-1 $340 $335 $332 $461 forward $330 $-1 #
edge $-1 $464 -12.014189892348682 $543 -5.3626377606540387 $460 $544 forward 7 unknown #
coedge $-1 $334 $333 $467 $545 reversed $143 $-1 #
edge $-1 $546 0 $464 8.4409408782391431 $458 $547 forward 7 unknown #
vertex $-1 $336 $548 #
straight-curve $-1 -39.713388204619335 7.248033745851572 6.6995069297686873 0 1 0 I I #
coedge $-1 $541 $337 $340 $471 reversed $456 $-1 #
coedge $-1 $337 $541 $462 $545 forward $456 $-1 #
vertex $-1 $338 $549 #
straight-curve $-1 -46.364940336313978 10.636573557682439 37.287443670855453 0 0 1 I I #
straight-curve $-1 -46.364940336313978 10.636573557682439 1.5027447503653377 -0.78801074757464917 0 -0.61566148304635926 I I #
edge $-1 $543 -18.355561425723849 $341 -10.636573557682439 $466 $550 forward 7 unknown #
point $-1 -46.364940336313978 10.636573557682439 6.6995069297686882 #
point $-1 -39.713388204619335 10.636573557682439 6.6995069297686882 #
edge $-1 $551 1 $551 0 $344 $-1 forward 7 unknown #
vertex $-1 $345 $552 #
ellipse-curve $-1 -41.328250272092738 14.496067491703144 1.9112558286714068 -0.61566148304635926 0 0.78801074757464917 1.1820161213619738 0 0.92349222456953894 1 I I #
point $-1 -41.857148149104688 14.496067491703144 5.0246180646365568 #
plane-surface $-1 46.364940336313978 0 0 -1 0 0 0 0 1 forward_v I I I I #
coedge $-1 $353 $351 $355 $483 reversed $241 $-1 #
edge $-1 $366 -6.6995069297686882 $485 6.6995069297686882 $365 $553 forward 7 unknown #
vertex $-1 $483 $554 #
straight-curve $-1 -46.364940336313978 -22.776085364403535 0 0 0 -1 I I #
edge $-1 $481 -22.776085364403535 $485 22.776085364403535 $479 $555 forward 7 unknown #
straight-curve $-1 0 -22.776085364403535 -6.6995069297686882 -1 0 0 I I #
vertex $-1 $358 $556 #
straight-curve $-1 0 22.776085364403535 -6.6995069297686882 1 0 0 I I #
point $-1 46.364940336313978 22.776085364403535 -6.6995069297686882 #
point $-1 46.364940336313978 -22.776085364403535 -6.6995069297686882 #
straight-curve $-1 -46.364940336313978 0 6.6995069297686882 0 -1 0 I I #
point $-1 -46.364940336313978 22.776085364403535 6.6995069297686882 #
point $-1 -46.364940336313978 -22.776085364403535 6.6995069297686882 #
straight-curve $-1 46.364940336313978 -22.776085364403535 0 0 0 -1 I I #
straight-curve $-1 46.364940336313978 22.776085364403535 0 0 0 -1 I I #
plane-surface $-1 46.364940336313978 0 0 -1 0 0 0 0 1 forward_v I I I I #
coedge $-1 $557 $498 $382 $503 forward $376 $-1 #
coedge $-1 $383 $378 $557 $558 forward $260 $-1 #
edge $-1 $392 -4.2588659438336336 $559 4.2588659438336336 $390 $560 forward 7 unknown #
coedge $-1 $495 $561 $379 $499 reversed $376 $-1 #
edge $-1 $506 -46.364940336313978 $501 46.364940336313978 $498 $562 forward 7 unknown #
coedge $-1 $390 $380 $561 $563 forward $391 $-1 #
vertex $-1 $381 $564 #
straight-curve $-1 46.364940336313978 -27.034951308237169 4.8977783892556062 0 1 0 I I #
edge $-1 $506 -1.7005874473815439 $504 1.7005874473815439 $382 $565 forward 7 unknown #
vertex $-1 $384 $566 #
straight-curve $-1 -46.364940336313978 -27.034951308237169 1.4966034944925184 0 1 0 I I #
vertex $-1 $385 $567 #
straight-curve $-1 -46.364940336313978 -27.034951308237169 4.8977783892556062 0 -1 0 I I #
point $-1 -46.364940336313978 -22.776085364403535 1.4966034944925184 #
straight-curve $-1 0 -22.776085364403535 1.4966034944925184 -1 0 0 I I #
point $-1 46.364940336313978 -22.776085364403535 1.4966034944925184 #
edge $-1 $512 59.393399996294676 $515 64.069451522904245 $397 $568 forward 7 unknown #
vertex $-1 $411 $569 #
straight-curve $-1 15.19150680129524 -9.1179488980495975 6.6995069297686882 1 0 0 I I #
edge $-1 $515 -6.3059781987705872 $408 0.68203680021256652 $407 $570 forward 7 unknown #
vertex $-1 $514 $571 #
straight-curve $-1 -26.707202255031575 -9.1179488980495975 59.11367126078116 -0.78801074757464917 0 0.61566148304635926 I I #
point $-1 40.379867433996779 -9.1179488980495975 6.6995069297686882 #
point $-1 46.364940336313978 -2.1299338990664438 2.0234554031591188 #
straight-curve $-1 46.364940336313978 0 6.6995069297686882 0 1 0 I I #
vertex $-1 $414 $572 #
point $-1 43.150747775896328 -7.7203458982529671 3.2656396773660719 #
vertex $-1 $418 $573 #
point $-1 43.150747775896328 -5.6239413985580207 3.2656396773660719 #
vertex $-1 $422 $574 #
point $-1 43.150747775896328 -3.527536898863076 3.2656396773660719 #
edge $-1 $527 59.393399996294676 $530 64.069451522904245 $427 $575 forward 7 unknown #
vertex $-1 $441 $576 #
straight-curve $-1 15.19150680129524 9.3992705225203004 6.6995069297686882 1 0 0 I I #
edge $-1 $530 2.9526315115143618 $438 9.9406465104975155 $437 $577 forward 7 unknown #
vertex $-1 $529 $578 #
straight-curve $-1 -26.707202255031575 9.3992705225203004 59.11367126078116 -0.78801074757464917 0 0.61566148304635926 I I #
point $-1 40.379867433996779 9.3992705225203004 6.6995069297686882 #
point $-1 46.364940336313978 16.387285521503454 2.0234554031591188 #
straight-curve $-1 46.364940336313978 0 6.6995069297686882 0 1 0 I I #
vertex $-1 $444 $579 #
point $-1 43.150747775896328 10.796873522316936 3.2656396773660719 #
vertex $-1 $448 $580 #
point $-1 43.150747775896328 12.893278022011877 3.2656396773660719 #
vertex $-1 $452 $581 #
point $-1 43.150747775896328 14.989682521706825 3.2656396773660719 #
coedge $-1 $467 $466 $459 $542 forward $456 $-1 #
edge $-1 $543 30.587936741086764 $546 35.784698920490115 $541 $582 forward 7 unknown #
vertex $-1 $471 $583 #
straight-curve $-1 -51.727578096968017 18.355561425723849 6.6995069297686882 -1 0 0 I I #
edge $-1 $546 -11.107527679872277 $468 -3.3885398118308672 $467 $584 forward 7 unknown #
vertex $-1 $545 $585 #
straight-curve $-1 -46.364940336313978 18.355561425723849 1.5027447503653377 0.78801074757464917 0 0.61566148304635926 I I #
point $-1 -39.713388204619335 18.355561425723849 6.6995069297686882 #
point $-1 -46.364940336313978 10.636573557682439 1.5027447503653377 #
straight-curve $-1 -46.364940336313978 0 6.6995069297686882 0 -1 0 I I #
vertex $-1 $474 $586 #
point $-1 -40.146234150730763 14.496067491703144 2.8347480532409457 #
straight-curve $-1 -46.364940336313978 22.776085364403535 0 0 0 -1 I I #
point $-1 -46.364940336313978 -22.776085364403535 -6.6995069297686882 #
straight-curve $-1 -46.364940336313978 0 -6.6995069297686882 0 1 0 I I #
point $-1 -46.364940336313978 22.776085364403535 -6.6995069297686882 #
coedge $-1 $561 $495 $496 $558 reversed $376 $-1 #
edge $-1 $559 -46.364940336313978 $504 46.364940336313978 $557 $587 forward 7 unknown #
vertex $-1 $563 $588 #
straight-curve $-1 46.364940336313978 -27.034951308237169 1.4966034944925184 0 -1 0 I I #
coedge $-1 $498 $557 $500 $563 reversed $376 $-1 #
straight-curve $-1 0 -31.293817252070802 4.8977783892556062 1 0 0 I I #
edge $-1 $501 -1.7005874473815439 $559 1.7005874473815439 $500 $589 forward 7 unknown #
point $-1 46.364940336313978 -31.293817252070802 4.8977783892556062 #
straight-curve $-1 -46.364940336313978 -31.293817252070802 3.1971909418740623 0 0 -1 I I #
point $-1 -46.364940336313978 -31.293817252070802 1.4966034944925184 #
point $-1 -46.364940336313978 -31.293817252070802 4.8977783892556062 #
straight-curve $-1 46.364940336313978 -9.1179488980495975 66.092906926063364 0 0 -1 I I #
point $-1 46.364940336313978 -9.1179488980495975 6.6995069297686882 #
straight-curve $-1 46.364940336313978 -2.8119706992790103 2.0234554031591188 0 1 0 I I #
point $-1 46.364940336313978 -9.1179488980495975 2.0234554031591188 #
point $-1 42.448911660585829 -7.7203458982529671 3.1794650451019271 #
point $-1 42.448911660585829 -5.6239413985580207 3.1794650451019271 #
point $-1 42.448911660585829 -3.527536898863076 3.1794650451019271 #
straight-curve $-1 46.364940336313978 9.3992705225203004 66.092906926063364 0 0 -1 I I #
point $-1 46.364940336313978 9.3992705225203004 6.6995069297686882 #
straight-curve $-1 46.364940336313978 6.4466390110059386 2.0234554031591188 0 1 0 I I #
point $-1 46.364940336313978 9.3992705225203004 2.0234554031591188 #
point $-1 42.448911660585829 10.796873522316936 3.1794650451019271 #
point $-1 42.448911660585829 12.893278022011877 3.1794650451019271 #
point $-1 42.448911660585829 14.989682521706825 3.1794650451019271 #
straight-curve $-1 -46.364940336313978 18.355561425723849 37.287443670855453 0 0 -1 I I #
point $-1 -46.364940336313978 18.355561425723849 6.6995069297686882 #
straight-curve $-1 -46.364940336313978 7.248033745851572 1.5027447503653368 0 -1 0 I I #
point $-1 -46.364940336313978 18.355561425723849 1.5027447503653377 #
point $-1 -40.404758047523195 14.496067491703144 0.72923970730943299 #
straight-curve $-1 0 -31.293817252070802 1.4966034944925184 -1 0 0 I I #
point $-1 46.364940336313978 -31.293817252070802 1.4966034944925184 #
straight-curve $-1 46.364940336313978 -31.293817252070802 3.1971909418740623 0 0 -1 I I #
End-of-ACIS-data 