500 0 7 0           
7 Unknown 11 ACIS 5.0 NT 24 Fri Mar 26 02:17:08 1999 
-1 9.9999999999999995e-007 1e-010 
body $-1 $7 $-1 $8 #
body $-1 $9 $-1 $10 #
body $-1 $11 $-1 $12 #
body $-1 $13 $-1 $14 #
body $-1 $15 $-1 $16 #
body $-1 $17 $-1 $18 #
body $-1 $19 $-1 $20 #
lump $-1 $-1 $21 $0 #
transform $-1 1 0 0 0 1 0 0 0 1 46.792199468977934 20.730827933930467 7.9813086505361985 1 rotate no_reflect no_shear #
lump $-1 $-1 $22 $1 #
transform $-1 1 0 0 0 1 0 0 0 1 46.792199468977934 20.730827933930467 7.9813086505361985 1 rotate no_reflect no_shear #
lump $-1 $-1 $23 $2 #
transform $-1 1 0 0 0 1 0 0 0 1 46.792199468977934 20.730827933930467 7.9813086505361985 1 rotate no_reflect no_shear #
lump $-1 $-1 $24 $3 #
transform $-1 1 0 0 0 1 0 0 0 1 46.792199468977934 20.730827933930467 7.9813086505361985 1 rotate no_reflect no_shear #
lump $-1 $-1 $25 $4 #
transform $-1 1 0 0 0 1 0 0 0 1 46.792199468977934 20.730827933930467 7.9813086505361985 1 rotate no_reflect no_shear #
lump $-1 $-1 $26 $5 #
transform $-1 1 0 0 0 1 0 0 0 1 46.792199468977934 20.730827933930467 7.9813086505361985 1 rotate no_reflect no_shear #
lump $-1 $-1 $27 $6 #
transform $-1 1 0 0 0 1 0 0 0 1 46.792199468977934 20.730827933930467 7.9813086505361985 1 rotate no_reflect no_shear #
shell $-1 $-1 $-1 $28 $-1 $7 #
shell $-1 $-1 $-1 $29 $-1 $9 #
shell $-1 $-1 $-1 $30 $-1 $11 #
shell $-1 $-1 $-1 $31 $-1 $13 #
shell $-1 $-1 $-1 $32 $-1 $15 #
shell $-1 $-1 $-1 $33 $-1 $17 #
shell $-1 $-1 $-1 $34 $-1 $19 #
face $-1 $35 $36 $21 $-1 $37 forward single #
face $-1 $38 $39 $22 $-1 $40 forward single #
face $-1 $41 $42 $23 $-1 $43 reversed single #
face $-1 $44 $45 $24 $-1 $46 reversed single #
face $-1 $47 $48 $25 $-1 $49 forward single #
face $-1 $50 $51 $26 $-1 $52 reversed single #
face $-1 $53 $54 $27 $-1 $55 forward single #
face $-1 $56 $57 $21 $-1 $58 reversed single #
loop $-1 $-1 $59 $28 #
plane-surface $-1 0 0 7.9813086505361985 0 0 1 1 0 0 forward_v I I I I #
face $-1 $60 $61 $22 $-1 $62 reversed single #
loop $-1 $-1 $63 $29 #
plane-surface $-1 -42.239360634761894 0 -4.9813086505361985 0 0 1 1 0 0 forward_v I I I I #
face $-1 $64 $65 $23 $-1 $66 reversed single #
loop $-1 $-1 $67 $30 #
plane-surface $-1 43.101925093898792 0 4.8979566902201022 0 0 1 1 0 0 forward_v I I I I #
face $-1 $68 $69 $24 $-1 $70 reversed single #
loop $-1 $-1 $71 $31 #
plane-surface $-1 27.462810437283537 57.587174120789371 97.209982622543919 1 0 0 0 -0.70710678939079041 -0.70710677298230451 forward_v I I I I #
face $-1 $72 $73 $25 $-1 $74 forward single #
loop $-1 $75 $76 $32 #
cone-surface $-1 33.43723057805159 16.045533684618484 3.2960143646062643 0 -0.70710678939079041 -0.70710677298230451 2 0 0 1 I I 0 1 2 forward I I I I #
face $-1 $77 $78 $26 $-1 $79 reversed single #
loop $-1 $-1 $80 $33 #
plane-surface $-1 33.43723057805159 -20.730827933930485 1.7180019244883624 0 -0.70710678939079041 0.70710677298230451 1 0 0 forward_v I I I I #
face $-1 $81 $82 $27 $-1 $83 forward single #
loop $-1 $84 $85 $34 #
cone-surface $-1 33.43723057805159 -16.045533684618476 3.2960143646062678 0 0.70710678939079041 -0.70710677298230451 2 0 0 1 I I 0 1 2 forward I I I I #
face $-1 $86 $87 $21 $-1 $88 reversed single #
loop $-1 $-1 $89 $35 #
plane-surface $-1 0 0 -7.9813086505361985 0 0 1 1 0 0 forward_v I I I I #
coedge $-1 $90 $91 $92 $93 forward $36 $-1 #
face $-1 $94 $95 $22 $-1 $96 reversed single #
loop $-1 $-1 $97 $38 #
plane-surface $-1 -37.686521800545854 0 -6.4813086505361985 -1 0 0 0 0 1 forward_v I I I I #
coedge $-1 $98 $99 $100 $101 forward $39 $-1 #
face $-1 $102 $103 $23 $-1 $104 reversed single #
loop $-1 $-1 $105 $41 #
plane-surface $-1 39.411650718819644 0 6.4396326703781499 1 0 0 0 0 -1 forward_v I I I I #
coedge $-1 $106 $107 $108 $109 reversed $42 $-1 #
face $-1 $110 $111 $24 $-1 $112 reversed single #
loop $-1 $-1 $113 $44 #
plane-surface $-1 33.43723057805159 -8.5869897492954976 31.035820288037343 0 0.70710678939079041 0.70710677298230451 1 0 0 forward_v I I I I #
coedge $-1 $114 $115 $116 $117 reversed $45 $-1 #
face $-1 $-1 $118 $25 $-1 $119 forward single #
loop $-1 $120 $121 $47 #
cone-surface $-1 33.43723057805159 13.784785936269291 1.0352666687179566 0 -0.70710678939079041 -0.70710677298230451 1 0 0 1 I I -0.70710678118654746 0.70710678118654746 1 forward I I I I #
loop $-1 $-1 $122 $32 #
coedge $-1 $76 $76 $123 $124 reversed $48 $-1 #
face $-1 $125 $126 $26 $-1 $127 forward single #
loop $-1 $-1 $128 $50 #
plane-surface $-1 27.462810437283537 -86.904991804015353 67.892164258994939 1 0 0 0 0.70710678939079041 -0.70710677298230451 forward_v I I I I #
coedge $-1 $129 $130 $131 $132 reversed $51 $-1 #
face $-1 $-1 $133 $27 $-1 $134 forward single #
loop $-1 $135 $136 $53 #
cone-surface $-1 33.43723057805159 -13.784785936269286 1.0352666687179601 0 0.70710678939079041 -0.70710677298230451 1 0 0 1 I I -0.70710678118654746 0.70710678118654746 1 forward I I I I #
loop $-1 $-1 $137 $34 #
coedge $-1 $85 $85 $138 $139 reversed $54 $-1 #
face $-1 $140 $141 $21 $-1 $142 reversed single #
loop $-1 $-1 $143 $56 #
plane-surface $-1 0 -20.730827933930467 0 0 1 0 0 0 1 forward_v I I I I #
coedge $-1 $144 $145 $146 $147 forward $57 $-1 #
coedge $-1 $148 $59 $149 $150 forward $36 $-1 #
coedge $-1 $59 $148 $151 $152 forward $36 $-1 #
coedge $-1 $153 $154 $59 $93 reversed $155 $-1 #
edge $-1 $156 -20.730827933930467 $157 20.730827933930467 $92 $158 forward 7 unknown #
face $-1 $159 $160 $22 $-1 $161 reversed single #
loop $-1 $-1 $162 $60 #
plane-surface $-1 0 0 -7.9813086505361985 0 0 1 1 0 0 forward_v I I I I #
coedge $-1 $163 $100 $164 $165 reversed $61 $-1 #
coedge $-1 $166 $63 $167 $168 reversed $39 $-1 #
coedge $-1 $63 $166 $169 $170 reversed $39 $-1 #
coedge $-1 $97 $171 $63 $101 reversed $61 $-1 #
edge $-1 $172 -20.730827933930467 $173 20.730827933930467 $100 $174 forward 7 unknown #
face $-1 $175 $176 $23 $-1 $177 reversed single #
loop $-1 $-1 $108 $64 #
plane-surface $-1 46.792199468977934 0 0 -1 0 0 0 0 1 forward_v I I I I #
coedge $-1 $178 $179 $180 $181 reversed $65 $-1 #
coedge $-1 $182 $67 $183 $184 reversed $42 $-1 #
coedge $-1 $67 $182 $185 $186 reversed $42 $-1 #
coedge $-1 $187 $188 $67 $109 forward $103 $-1 #
edge $-1 $189 -20.730827933930467 $190 20.730827933930467 $108 $191 forward 7 unknown #
face $-1 $192 $193 $24 $-1 $194 forward single #
loop $-1 $-1 $195 $68 #
plane-surface $-1 0 20.730827933930467 0 0 -1 0 0 0 -1 forward_v I I I I #
coedge $-1 $196 $197 $198 $199 reversed $69 $-1 #
coedge $-1 $115 $71 $200 $201 reversed $45 $-1 #
coedge $-1 $71 $114 $196 $202 reversed $45 $-1 #
coedge $-1 $198 $203 $71 $117 forward $204 $-1 #
edge $-1 $205 8.0627591264642184 $206 14.326065707171356 $116 $207 forward 7 unknown #
loop $-1 $-1 $123 $72 #
plane-surface $-1 33.43723057805159 -8.5869897492954976 31.035820288037343 0 0.70710678939079041 0.70710677298230451 1 0 0 forward_v I I I I #
loop $-1 $-1 $208 $47 #
coedge $-1 $121 $121 $122 $209 reversed $73 $-1 #
coedge $-1 $122 $122 $121 $209 forward $75 $-1 #
coedge $-1 $123 $123 $76 $124 forward $118 $-1 #
edge $-1 $210 -9.4205531125655546e-016 $210 6.2831853071795996 $123 $211 forward 7 unknown #
face $-1 $212 $213 $26 $-1 $214 forward single #
loop $-1 $-1 $215 $77 #
plane-surface $-1 39.411650718819644 0 6.4396326703781499 1 0 0 0 0 -1 forward_v I I I I #
coedge $-1 $216 $217 $218 $219 reversed $78 $-1 #
coedge $-1 $220 $80 $215 $221 reversed $51 $-1 #
coedge $-1 $80 $220 $216 $222 forward $51 $-1 #
coedge $-1 $218 $223 $80 $132 forward $213 $-1 #
edge $-1 $224 -22.693035429793849 $225 -10.744195148257742 $131 $226 forward 7 unknown #
loop $-1 $-1 $138 $81 #
plane-surface $-1 33.43723057805159 -20.730827933930485 1.7180019244883624 0 -0.70710678939079041 0.70710677298230451 1 0 0 forward_v I I I I #
loop $-1 $-1 $227 $53 #
coedge $-1 $136 $136 $137 $228 reversed $82 $-1 #
coedge $-1 $137 $137 $136 $228 forward $84 $-1 #
coedge $-1 $138 $138 $85 $139 forward $133 $-1 #
edge $-1 $229 -1.5700925934901583e-015 $229 6.2831853071795987 $138 $230 forward 7 unknown #
face $-1 $231 $232 $21 $-1 $233 reversed single #
loop $-1 $-1 $234 $86 #
plane-surface $-1 -46.792199468977934 0 0 1 0 0 0 0 -1 forward_v I I I I #
coedge $-1 $235 $151 $236 $237 forward $87 $-1 #
coedge $-1 $238 $89 $235 $239 forward $57 $-1 #
coedge $-1 $89 $238 $240 $241 forward $57 $-1 #
coedge $-1 $154 $153 $89 $147 reversed $155 $-1 #
edge $-1 $242 -20.730827933930467 $243 20.730827933930467 $146 $244 forward 7 unknown #
coedge $-1 $91 $90 $245 $246 forward $36 $-1 #
coedge $-1 $247 $248 $90 $150 reversed $232 $-1 #
edge $-1 $157 -46.792199468977934 $249 46.792199468977934 $149 $250 forward 7 unknown #
coedge $-1 $143 $251 $91 $152 reversed $87 $-1 #
edge $-1 $252 -46.792199468977934 $156 46.792199468977934 $151 $253 forward 7 unknown #
coedge $-1 $146 $92 $251 $254 forward $155 $-1 #
coedge $-1 $92 $146 $247 $255 reversed $155 $-1 #
loop $-1 $-1 $153 $231 #
vertex $-1 $93 $256 #
vertex $-1 $93 $257 #
straight-curve $-1 46.792199468977934 0 7.9813086505361985 0 1 0 I I #
face $-1 $258 $259 $22 $-1 $260 reversed single #
loop $-1 $-1 $164 $94 #
plane-surface $-1 0 -20.730827933930467 0 0 1 0 0 0 1 forward_v I I I I #
coedge $-1 $261 $262 $163 $263 forward $95 $-1 #
coedge $-1 $171 $97 $162 $263 reversed $61 $-1 #
coedge $-1 $169 $264 $97 $165 forward $160 $-1 #
edge $-1 $265 -4.7406543252680997 $172 -1.7406543252680993 $164 $266 forward 7 unknown #
coedge $-1 $99 $98 $267 $268 reversed $39 $-1 #
coedge $-1 $269 $270 $98 $168 forward $271 $-1 #
edge $-1 $272 -25.672519151596987 $173 -16.566841483164907 $167 $273 forward 7 unknown #
coedge $-1 $274 $164 $99 $170 forward $160 $-1 #
edge $-1 $172 16.566841483164907 $275 25.672519151596987 $169 $276 forward 7 unknown #
coedge $-1 $100 $163 $269 $277 reversed $61 $-1 #
vertex $-1 $170 $278 #
vertex $-1 $168 $279 #
straight-curve $-1 -37.686521800545854 0 -4.9813086505361985 0 1 0 I I #
face $-1 $280 $281 $23 $-1 $282 reversed single #
loop $-1 $-1 $185 $102 #
plane-surface $-1 0 20.730827933930467 0 0 -1 0 0 0 -1 forward_v I I I I #
coedge $-1 $283 $105 $182 $284 reversed $65 $-1 #
coedge $-1 $105 $283 $285 $286 reversed $65 $-1 #
coedge $-1 $287 $185 $105 $181 forward $176 $-1 #
edge $-1 $288 1.6781403550310272 $289 4.7614923153471231 $180 $290 forward 7 unknown #
coedge $-1 $107 $106 $178 $284 forward $42 $-1 #
coedge $-1 $291 $292 $106 $184 forward $281 $-1 #
edge $-1 $293 17.860688171870247 $189 25.241236922028545 $183 $294 forward 7 unknown #
coedge $-1 $180 $295 $107 $186 forward $176 $-1 #
edge $-1 $190 -25.241236922028545 $288 -17.860688171870247 $185 $296 forward 7 unknown #
coedge $-1 $297 $108 $295 $298 reversed $103 $-1 #
coedge $-1 $108 $297 $291 $299 forward $103 $-1 #
vertex $-1 $109 $300 #
vertex $-1 $109 $301 #
straight-curve $-1 46.792199468977934 0 4.8979566902201022 0 1 0 I I #
face $-1 $-1 $204 $24 $-1 $302 forward single #
loop $-1 $-1 $303 $110 #
plane-surface $-1 39.411650718819644 0 6.4396326703781499 1 0 0 0 0 -1 forward_v I I I I #
coedge $-1 $304 $305 $306 $307 forward $111 $-1 #
coedge $-1 $308 $113 $115 $202 forward $69 $-1 #
coedge $-1 $113 $308 $303 $309 forward $69 $-1 #
coedge $-1 $310 $116 $113 $199 forward $204 $-1 #
edge $-1 $206 10.744195148257742 $311 22.693035429793849 $198 $312 forward 7 unknown #
coedge $-1 $305 $304 $114 $201 forward $111 $-1 #
edge $-1 $313 -46.886989386783576 $205 -40.62368266073576 $200 $314 forward 7 unknown #
edge $-1 $206 32.604002653352858 $313 41.461655867860934 $115 $315 forward 7 unknown #
coedge $-1 $116 $310 $305 $316 forward $204 $-1 #
loop $-1 $-1 $198 $192 #
vertex $-1 $201 $317 #
vertex $-1 $117 $318 #
straight-curve $-1 27.462810437283537 28.793587060394685 7.9813086505361994 0 -1 0 I I #
coedge $-1 $208 $208 $-1 $319 reversed $120 $-1 #
edge $-1 $320 0 $320 6.2831853071796004 $121 $321 forward 7 unknown #
vertex $-1 $124 $322 #
ellipse-curve $-1 33.43723057805159 17.599174643576905 4.8496552875122863 0 0.70710678939079041 0.70710677298230451 2 0 0 1 I I #
face $-1 $-1 $323 $26 $-1 $324 reversed single #
loop $-1 $-1 $131 $125 #
plane-surface $-1 0 0 7.9813086505361985 0 0 1 1 0 0 forward_v I I I I #
coedge $-1 $325 $326 $129 $221 forward $126 $-1 #
coedge $-1 $217 $128 $130 $222 reversed $78 $-1 #
coedge $-1 $128 $216 $327 $328 reversed $78 $-1 #
coedge $-1 $329 $131 $128 $219 forward $213 $-1 #
edge $-1 $225 -28.984974548784351 $330 -22.72166796807721 $218 $331 forward 7 unknown #
coedge $-1 $130 $129 $332 $333 reversed $51 $-1 #
edge $-1 $334 -8.9988029995139627 $224 -0.14114978500588676 $215 $335 forward 7 unknown #
edge $-1 $336 2.5121479338940405e-014 $225 8.8576532145081028 $216 $337 forward 7 unknown #
coedge $-1 $131 $329 $325 $338 forward $213 $-1 #
vertex $-1 $132 $339 #
vertex $-1 $132 $340 #
straight-curve $-1 16.718615289025795 -14.467521353223324 7.9813086505361985 -1 0 0 I I #
coedge $-1 $227 $227 $-1 $341 reversed $135 $-1 #
edge $-1 $342 0 $342 6.2831853071796004 $136 $343 forward 7 unknown #
vertex $-1 $139 $344 #
ellipse-curve $-1 33.43723057805159 -17.599174643576895 4.8496552875122898 0 -0.70710678939079041 0.70710677298230451 2 0 0 1 I I #
face $-1 $-1 $155 $21 $-1 $345 reversed single #
loop $-1 $-1 $247 $140 #
plane-surface $-1 0 20.730827933930467 0 0 -1 0 0 0 -1 forward_v I I I I #
coedge $-1 $346 $245 $248 $347 forward $141 $-1 #
coedge $-1 $251 $143 $144 $239 reversed $87 $-1 #
coedge $-1 $245 $346 $143 $237 reversed $141 $-1 #
edge $-1 $252 -7.9813086505361985 $348 7.9813086505361985 $236 $349 forward 7 unknown #
coedge $-1 $145 $144 $346 $350 forward $57 $-1 #
edge $-1 $243 -46.792199468977934 $348 46.792199468977934 $235 $351 forward 7 unknown #
coedge $-1 $248 $247 $145 $241 reversed $232 $-1 #
edge $-1 $352 -46.792199468977934 $242 46.792199468977934 $240 $353 forward 7 unknown #
vertex $-1 $147 $354 #
vertex $-1 $254 $355 #
straight-curve $-1 46.792199468977934 0 -7.9813086505361985 0 -1 0 I I #
coedge $-1 $234 $236 $148 $246 reversed $141 $-1 #
edge $-1 $249 -20.730827933930467 $252 20.730827933930467 $245 $356 forward 7 unknown #
coedge $-1 $240 $149 $154 $255 forward $232 $-1 #
coedge $-1 $149 $240 $234 $347 reversed $232 $-1 #
vertex $-1 $150 $357 #
straight-curve $-1 0 20.730827933930467 7.9813086505361985 -1 0 0 I I #
coedge $-1 $151 $235 $153 $254 reversed $87 $-1 #
vertex $-1 $246 $358 #
straight-curve $-1 0 -20.730827933930467 7.9813086505361985 1 0 0 I I #
edge $-1 $156 -7.9813086505361985 $243 7.9813086505361985 $153 $359 forward 7 unknown #
edge $-1 $157 -7.9813086505361985 $242 7.9813086505361985 $154 $360 forward 7 unknown #
point $-1 46.792199468977934 -20.730827933930467 7.9813086505361985 #
point $-1 46.792199468977934 20.730827933930467 7.9813086505361985 #
face $-1 $-1 $271 $22 $-1 $361 reversed single #
loop $-1 $-1 $267 $159 #
plane-surface $-1 -46.792199468977934 0 0 1 0 0 0 0 -1 forward_v I I I I #
coedge $-1 $362 $162 $264 $363 forward $95 $-1 #
coedge $-1 $162 $362 $364 $365 forward $95 $-1 #
edge $-1 $366 -20.730827933930467 $265 20.730827933930467 $162 $367 forward 7 unknown #
coedge $-1 $164 $274 $261 $363 reversed $160 $-1 #
vertex $-1 $363 $368 #
straight-curve $-1 -37.686521800545854 -20.730827933930467 -3.2406543252680993 0 0 1 I I #
coedge $-1 $369 $370 $166 $268 forward $259 $-1 #
edge $-1 $275 -20.730827933930467 $272 20.730827933930467 $267 $371 forward 7 unknown #
coedge $-1 $364 $167 $171 $277 forward $271 $-1 #
coedge $-1 $167 $364 $369 $372 reversed $271 $-1 #
loop $-1 $-1 $269 $258 #
vertex $-1 $372 $373 #
straight-curve $-1 -21.119680317380947 20.730827933930467 -4.9813086505361985 1 0 0 I I #
coedge $-1 $264 $169 $370 $374 forward $160 $-1 #
vertex $-1 $374 $375 #
straight-curve $-1 -21.119680317380947 -20.730827933930467 -4.9813086505361985 -1 0 0 I I #
edge $-1 $173 1.7406543252680993 $366 4.7406543252680997 $269 $376 forward 7 unknown #
point $-1 -37.686521800545854 -20.730827933930467 -4.9813086505361985 #
point $-1 -37.686521800545854 20.730827933930467 -4.9813086505361985 #
face $-1 $-1 $377 $23 $-1 $378 forward single #
loop $-1 $-1 $183 $175 #
plane-surface $-1 0 -20.730827933930467 0 0 1 0 0 0 1 forward_v I I I I #
coedge $-1 $179 $178 $292 $379 reversed $65 $-1 #
edge $-1 $293 -20.730827933930467 $288 20.730827933930467 $178 $380 forward 7 unknown #
coedge $-1 $381 $382 $179 $286 forward $377 $-1 #
edge $-1 $289 -20.730827933930467 $383 20.730827933930467 $285 $384 forward 7 unknown #
coedge $-1 $295 $180 $382 $385 reversed $176 $-1 #
vertex $-1 $186 $386 #
vertex $-1 $181 $387 #
straight-curve $-1 39.411650718819644 20.730827933930467 3.219816335189075 0 0 1 I I #
coedge $-1 $388 $183 $188 $299 reversed $281 $-1 #
coedge $-1 $183 $388 $283 $379 forward $281 $-1 #
vertex $-1 $184 $389 #
straight-curve $-1 21.550962546949396 -20.730827933930467 4.8979566902201022 1 0 0 I I #
coedge $-1 $185 $287 $187 $298 forward $176 $-1 #
straight-curve $-1 21.550962546949396 20.730827933930467 4.8979566902201022 -1 0 0 I I #
coedge $-1 $188 $187 $390 $391 reversed $103 $-1 #
edge $-1 $392 -7.9813086505361985 $190 -4.8979566902201022 $187 $393 forward 7 unknown #
edge $-1 $394 -7.9813086505361985 $189 -4.8979566902201022 $188 $395 forward 7 unknown #
point $-1 46.792199468977941 -20.730827933930467 4.8979566902201022 #
point $-1 46.792199468977941 20.730827933930467 4.8979566902201022 #
plane-surface $-1 0 0 7.9813086505361985 0 0 1 1 0 0 forward_v I I I I #
coedge $-1 $306 $396 $197 $309 reversed $193 $-1 #
coedge $-1 $200 $195 $308 $397 forward $111 $-1 #
coedge $-1 $195 $200 $203 $316 reversed $111 $-1 #
coedge $-1 $396 $303 $195 $307 reversed $193 $-1 #
edge $-1 $398 40.62368266073576 $399 46.886989386783576 $195 $400 forward 7 unknown #
coedge $-1 $197 $196 $304 $397 reversed $69 $-1 #
edge $-1 $399 -41.461655867860934 $311 -32.604002653352858 $303 $401 forward 7 unknown #
coedge $-1 $203 $198 $396 $402 forward $204 $-1 #
vertex $-1 $402 $403 #
straight-curve $-1 16.718615289025795 14.467521353223329 7.9813086505361976 1 0 0 I I #
vertex $-1 $201 $404 #
straight-curve $-1 27.462810437283537 20.730827933930467 48.604991311271959 0 0 1 I I #
straight-curve $-1 27.462810437283537 -8.5869897492954976 31.035820288037343 0 0.70710677298230451 -0.70710678939079041 I I #
edge $-1 $398 -39.411650718819644 $205 -27.462810437283537 $305 $405 forward 7 unknown #
point $-1 27.462810437283537 20.730827933930467 7.9813086505361985 #
point $-1 27.462810437283537 14.467521353223329 7.9813086505361994 #
edge $-1 $406 1 $406 0 $208 $-1 forward 7 unknown #
vertex $-1 $209 $407 #
ellipse-curve $-1 33.43723057805159 14.491892725660081 1.742373441700261 0 0.70710678939079041 0.70710677298230451 2 0 0 1 I I #
point $-1 35.43723057805159 17.599174643576884 4.8496552875122676 #
loop $-1 $-1 $408 $212 #
plane-surface $-1 0 -20.730827933930467 0 0 1 0 0 0 1 forward_v I I I I #
coedge $-1 $326 $215 $223 $338 reversed $126 $-1 #
coedge $-1 $215 $325 $408 $409 reversed $126 $-1 #
coedge $-1 $332 $410 $217 $328 forward $323 $-1 #
edge $-1 $330 25.96477347896127 $336 32.228080205009093 $327 $411 forward 7 unknown #
coedge $-1 $223 $218 $410 $412 forward $213 $-1 #
vertex $-1 $412 $413 #
straight-curve $-1 27.462810437283537 -43.452495902007676 7.9813086505361994 0 -1 0 I I #
coedge $-1 $408 $327 $220 $333 forward $323 $-1 #
edge $-1 $336 10.744195148257742 $334 22.693035429793849 $332 $414 forward 7 unknown #
vertex $-1 $409 $415 #
straight-curve $-1 39.411650718819644 -14.367713384240666 8.0811166218349104 0 0.70710677298230462 0.70710678939079052 I I #
vertex $-1 $333 $416 #
straight-curve $-1 27.462810437283537 -20.730827933930485 1.7180019244883624 0 0.70710677298230451 0.70710678939079041 I I #
edge $-1 $417 -20.730827933930467 $224 -14.467521353223326 $223 $418 forward 7 unknown #
point $-1 39.411650718819644 -14.467521353223326 7.9813086505361985 #
point $-1 27.462810437283537 -14.467521353223326 7.9813086505361985 #
edge $-1 $419 1 $419 0 $227 $-1 forward 7 unknown #
vertex $-1 $228 $420 #
ellipse-curve $-1 33.43723057805159 -14.491892725660076 1.7423734417002645 0 -0.70710678939079041 0.70710677298230451 2 0 0 1 I I #
point $-1 35.43723057805159 -17.59917464357688 4.8496552875122712 #
plane-surface $-1 46.792199468977934 0 0 -1 0 0 0 0 1 forward_v I I I I #
coedge $-1 $236 $234 $238 $350 reversed $141 $-1 #
edge $-1 $249 -7.9813086505361985 $352 7.9813086505361985 $248 $421 forward 7 unknown #
vertex $-1 $350 $422 #
straight-curve $-1 -46.792199468977934 -20.730827933930467 0 0 0 -1 I I #
edge $-1 $348 -20.730827933930467 $352 20.730827933930467 $346 $423 forward 7 unknown #
straight-curve $-1 0 -20.730827933930467 -7.9813086505361985 -1 0 0 I I #
vertex $-1 $241 $424 #
straight-curve $-1 0 20.730827933930467 -7.9813086505361985 1 0 0 I I #
point $-1 46.792199468977934 20.730827933930467 -7.9813086505361985 #
point $-1 46.792199468977934 -20.730827933930467 -7.9813086505361985 #
straight-curve $-1 -46.792199468977934 0 7.9813086505361985 0 -1 0 I I #
point $-1 -46.792199468977934 20.730827933930467 7.9813086505361985 #
point $-1 -46.792199468977934 -20.730827933930467 7.9813086505361985 #
straight-curve $-1 46.792199468977934 -20.730827933930467 0 0 0 -1 I I #
straight-curve $-1 46.792199468977934 20.730827933930467 0 0 0 -1 I I #
plane-surface $-1 0 20.730827933930467 0 0 -1 0 0 0 -1 forward_v I I I I #
coedge $-1 $262 $261 $425 $426 forward $95 $-1 #
edge $-1 $265 37.686521800545854 $427 46.792199468977934 $264 $428 forward 7 unknown #
coedge $-1 $270 $269 $262 $365 reversed $271 $-1 #
edge $-1 $429 -46.792199468977934 $366 -37.686521800545854 $364 $430 forward 7 unknown #
vertex $-1 $277 $431 #
straight-curve $-1 -37.686521800545854 0 -7.9813086505361985 0 -1 0 I I #
point $-1 -37.686521800545854 -20.730827933930467 -7.9813086505361985 #
coedge $-1 $425 $267 $270 $372 forward $259 $-1 #
coedge $-1 $267 $425 $274 $374 reversed $259 $-1 #
straight-curve $-1 -46.792199468977934 0 -4.9813086505361985 0 1 0 I I #
edge $-1 $272 4.9813086505361985 $429 7.9813086505361985 $270 $432 forward 7 unknown #
point $-1 -46.792199468977934 20.730827933930467 -4.9813086505361985 #
edge $-1 $275 4.9813086505361985 $427 7.9813086505361985 $370 $433 forward 7 unknown #
point $-1 -46.792199468977934 -20.730827933930467 -4.9813086505361985 #
straight-curve $-1 -37.686521800545854 20.730827933930467 -3.2406543252680993 0 0 -1 I I #
loop $-1 $-1 $285 $280 #
plane-surface $-1 0 0 7.9813086505361985 0 0 1 1 0 0 forward_v I I I I #
edge $-1 $383 -4.7614923153471231 $293 -1.6781403550310272 $292 $434 forward 7 unknown #
straight-curve $-1 39.411650718819644 0 4.8979566902201022 0 1 0 I I #
coedge $-1 $390 $285 $388 $435 forward $377 $-1 #
coedge $-1 $285 $390 $287 $385 forward $377 $-1 #
vertex $-1 $435 $436 #
straight-curve $-1 39.411650718819644 0 7.9813086505361985 0 -1 0 I I #
edge $-1 $392 -46.792199468977934 $289 -39.411650718819644 $287 $437 forward 7 unknown #
point $-1 39.411650718819644 20.730827933930467 4.8979566902201022 #
point $-1 39.411650718819644 20.730827933930467 7.9813086505361976 #
coedge $-1 $292 $291 $381 $435 reversed $281 $-1 #
point $-1 39.411650718819644 -20.730827933930467 4.8979566902201022 #
coedge $-1 $382 $381 $297 $391 forward $377 $-1 #
edge $-1 $394 -20.730827933930467 $392 20.730827933930467 $297 $438 forward 7 unknown #
vertex $-1 $391 $439 #
straight-curve $-1 46.792199468977934 20.730827933930467 0 0 0 -1 I I #
vertex $-1 $391 $440 #
straight-curve $-1 46.792199468977934 -20.730827933930467 0 0 0 -1 I I #
coedge $-1 $303 $306 $310 $402 reversed $193 $-1 #
edge $-1 $399 -22.693035429793849 $313 -10.744195148257742 $304 $441 forward 7 unknown #
vertex $-1 $316 $442 #
vertex $-1 $307 $443 #
straight-curve $-1 39.411650718819644 20.730827933930467 48.604991311271959 0 0 -1 I I #
straight-curve $-1 39.411650718819644 -8.5869897492954976 31.035820288037343 0 -0.70710677298230451 0.70710678939079041 I I #
edge $-1 $311 14.467521353223328 $398 20.730827933930467 $310 $444 forward 7 unknown #
point $-1 39.411650718819644 14.467521353223328 7.9813086505361985 #
point $-1 27.462810437283537 20.730827933930467 1.7180019244883837 #
straight-curve $-1 0 20.730827933930467 7.9813086505361985 -1 0 0 I I #
vertex $-1 $319 $445 #
point $-1 35.43723057805159 14.491892725660081 1.742373441700261 #
coedge $-1 $410 $332 $326 $409 forward $323 $-1 #
edge $-1 $334 -32.228080205009093 $417 -25.96477347896127 $408 $446 forward 7 unknown #
coedge $-1 $327 $408 $329 $412 reversed $323 $-1 #
straight-curve $-1 27.462810437283537 -20.730827933930463 33.946082129497469 0 0 -1 I I #
edge $-1 $330 27.462810437283537 $417 39.411650718819644 $410 $447 forward 7 unknown #
point $-1 27.462810437283537 -20.730827933930467 7.9813086505361985 #
straight-curve $-1 16.718615289025795 -20.730827933930467 1.7180019244883811 1 0 0 I I #
point $-1 39.411650718819644 -20.730827933930467 1.7180019244883802 #
point $-1 27.462810437283537 -20.730827933930467 1.7180019244883802 #
vertex $-1 $338 $448 #
straight-curve $-1 39.411650718819644 0 7.9813086505361985 0 1 0 I I #
vertex $-1 $341 $449 #
point $-1 35.43723057805159 -14.491892725660076 1.7423734417002645 #
straight-curve $-1 -46.792199468977934 20.730827933930467 0 0 0 -1 I I #
point $-1 -46.792199468977934 -20.730827933930467 -7.9813086505361985 #
straight-curve $-1 -46.792199468977934 0 -7.9813086505361985 0 1 0 I I #
point $-1 -46.792199468977934 20.730827933930467 -7.9813086505361985 #
coedge $-1 $370 $369 $362 $426 reversed $259 $-1 #
edge $-1 $427 -20.730827933930467 $429 20.730827933930467 $425 $450 forward 7 unknown #
vertex $-1 $426 $451 #
straight-curve $-1 0 -20.730827933930467 -7.9813086505361985 -1 0 0 I I #
vertex $-1 $365 $452 #
straight-curve $-1 0 20.730827933930467 -7.9813086505361985 1 0 0 I I #
point $-1 -37.686521800545854 20.730827933930467 -7.9813086505361985 #
straight-curve $-1 -46.792199468977934 20.730827933930467 0 0 0 -1 I I #
straight-curve $-1 -46.792199468977934 -20.730827933930467 0 0 0 -1 I I #
straight-curve $-1 39.411650718819644 -20.730827933930467 3.219816335189075 0 0 -1 I I #
edge $-1 $383 39.411650718819644 $394 46.792199468977934 $388 $453 forward 7 unknown #
point $-1 39.411650718819644 -20.730827933930467 7.9813086505361976 #
straight-curve $-1 0 20.730827933930467 7.9813086505361985 -1 0 0 I I #
straight-curve $-1 46.792199468977934 0 7.9813086505361985 0 1 0 I I #
point $-1 46.792199468977934 20.730827933930467 7.9813086505361985 #
point $-1 46.792199468977934 -20.730827933930467 7.9813086505361985 #
straight-curve $-1 16.718615289025795 20.730827933930467 1.718001924488382 -1 0 0 I I #
point $-1 39.411650718819644 20.730827933930467 7.9813086505361976 #
point $-1 39.411650718819644 20.730827933930467 1.7180019244883837 #
straight-curve $-1 39.411650718819644 0 7.9813086505361985 0 1 0 I I #
point $-1 33.43723057805159 13.0776791468785 0.32815989573565207 #
straight-curve $-1 39.411650718819644 -20.730827933930463 33.946082129497469 0 0 1 I I #
straight-curve $-1 0 -20.730827933930467 7.9813086505361985 1 0 0 I I #
point $-1 39.411650718819644 -20.730827933930467 7.9813086505361976 #
point $-1 33.43723057805159 -13.077679146878495 0.32815989573565563 #
straight-curve $-1 -46.792199468977934 0 -7.9813086505361985 0 1 0 I I #
point $-1 -46.792199468977934 -20.730827933930467 -7.9813086505361985 #
point $-1 -46.792199468977934 20.730827933930467 -7.9813086505361985 #
straight-curve $-1 0 -20.730827933930467 7.9813086505361985 1 0 0 I I #
End-of-ACIS-data 