500 0 9 0           
7 Unknown 11 ACIS 5.0 NT 24 Fri Mar 26 20:00:33 1999 
-1 9.9999999999999995e-007 1e-010 
body $-1 $9 $-1 $10 #
body $-1 $11 $-1 $12 #
body $-1 $13 $-1 $14 #
body $-1 $15 $-1 $16 #
body $-1 $17 $-1 $18 #
body $-1 $19 $-1 $20 #
body $-1 $21 $-1 $22 #
body $-1 $23 $-1 $24 #
body $-1 $25 $-1 $26 #
lump $-1 $-1 $27 $0 #
transform $-1 1 0 0 0 1 0 0 0 1 72.8659932248909 45.084763122677103 11.137382582980129 1 rotate no_reflect no_shear #
lump $-1 $-1 $28 $1 #
transform $-1 1 0 0 0 1 0 0 0 1 72.8659932248909 45.084763122677103 11.137382582980129 1 rotate no_reflect no_shear #
lump $-1 $-1 $29 $2 #
transform $-1 1 0 0 0 1 0 0 0 1 72.8659932248909 45.084763122677103 11.137382582980129 1 rotate no_reflect no_shear #
lump $-1 $-1 $30 $3 #
transform $-1 1 0 0 0 1 0 0 0 1 72.8659932248909 45.084763122677103 11.137382582980129 1 rotate no_reflect no_shear #
lump $-1 $-1 $31 $4 #
transform $-1 1 0 0 0 1 0 0 0 1 72.8659932248909 45.084763122677103 11.137382582980129 1 rotate no_reflect no_shear #
lump $-1 $-1 $32 $5 #
transform $-1 1 0 0 0 1 0 0 0 1 72.8659932248909 45.084763122677103 11.137382582980129 1 rotate no_reflect no_shear #
lump $-1 $-1 $33 $6 #
transform $-1 1 0 0 0 1 0 0 0 1 72.8659932248909 45.084763122677103 11.137382582980129 1 rotate no_reflect no_shear #
lump $-1 $-1 $34 $7 #
transform $-1 1 0 0 0 1 0 0 0 1 72.8659932248909 45.084763122677103 11.137382582980129 1 rotate no_reflect no_shear #
lump $-1 $-1 $35 $8 #
transform $-1 1 0 0 0 1 0 0 0 1 72.8659932248909 45.084763122677103 11.137382582980129 1 rotate no_reflect no_shear #
shell $-1 $-1 $-1 $36 $-1 $9 #
shell $-1 $-1 $-1 $37 $-1 $11 #
shell $-1 $-1 $-1 $38 $-1 $13 #
shell $-1 $-1 $-1 $39 $-1 $15 #
shell $-1 $-1 $-1 $40 $-1 $17 #
shell $-1 $-1 $-1 $41 $-1 $19 #
shell $-1 $-1 $-1 $42 $-1 $21 #
shell $-1 $-1 $-1 $43 $-1 $23 #
shell $-1 $-1 $-1 $44 $-1 $25 #
face $-1 $45 $46 $27 $-1 $47 forward single #
face $-1 $48 $49 $28 $-1 $50 forward single #
face $-1 $51 $52 $29 $-1 $53 reversed single #
face $-1 $54 $55 $30 $-1 $56 forward single #
face $-1 $57 $58 $31 $-1 $59 forward single #
face $-1 $60 $61 $32 $-1 $62 reversed single #
face $-1 $63 $64 $33 $-1 $65 forward single #
face $-1 $66 $67 $34 $-1 $68 forward single #
face $-1 $69 $70 $35 $-1 $71 forward single #
face $-1 $72 $73 $27 $-1 $74 reversed single #
loop $-1 $-1 $75 $36 #
plane-surface $-1 0 0 11.137382582980129 0 0 1 1 0 0 forward_v I I I I #
face $-1 $76 $77 $28 $-1 $78 reversed single #
loop $-1 $-1 $79 $37 #
plane-surface $-1 -72.8659932248909 0 0 1 0 0 0 0 -1 forward_v I I I I #
face $-1 $80 $81 $29 $-1 $82 reversed single #
loop $-1 $-1 $83 $38 #
plane-surface $-1 -64.483844168199269 84.373357448028841 174.47185224589981 1 0 0 0 -0.70710678939079041 -0.70710677298230451 forward_v I I I I #
face $-1 $84 $85 $30 $-1 $86 forward single #
loop $-1 $87 $88 $39 #
cone-surface $-1 -56.02508848174071 42.704006232507865 8.7566256674632132 0 -0.70710678939079041 -0.70710677298230451 0.5 0 0 1 I I 0 1 0.5 forward I I I I #
face $-1 $89 $90 $31 $-1 $91 forward single #
loop $-1 $92 $93 $40 #
cone-surface $-1 -43.336954952052864 42.704006232507865 8.7566256674632132 0 -0.70710678939079041 -0.70710677298230451 0.5 0 0 1 I I 0 1 0.5 forward I I I I #
face $-1 $94 $95 $32 $-1 $96 reversed single #
loop $-1 $-1 $97 $41 #
plane-surface $-1 62.962024954969223 -45.084763122677089 5.9211893956113073 0 -0.77714596973225614 0.62932038083071107 1 0 0 forward_v I I I I #
face $-1 $98 $99 $33 $-1 $100 forward single #
loop $-1 $101 $102 $42 #
cone-surface $-1 57.019643993016217 -41.233937594327742 7.1212087655490048 0 0.77714596973225614 -0.62932038083071107 1.5 0 0 1 I I 0 1 1.5 forward I I I I #
face $-1 $103 $104 $34 $-1 $105 forward single #
loop $-1 $106 $107 $43 #
cone-surface $-1 62.962024954969223 -41.233937594327742 7.1212087655490048 0 0.77714596973225614 -0.62932038083071107 1.5 0 0 1 I I 0 1 1.5 forward I I I I #
face $-1 $108 $109 $35 $-1 $110 forward single #
loop $-1 $111 $112 $44 #
cone-surface $-1 68.904405916922229 -41.233937594327742 7.1212087655490048 0 0.77714596973225614 -0.62932038083071107 1.5 0 0 1 I I 0 1 1.5 forward I I I I #
face $-1 $113 $114 $27 $-1 $115 reversed single #
loop $-1 $-1 $116 $45 #
plane-surface $-1 0 0 -11.137382582980129 0 0 1 1 0 0 forward_v I I I I #
coedge $-1 $117 $118 $119 $120 forward $46 $-1 #
face $-1 $121 $122 $28 $-1 $123 reversed single #
loop $-1 $-1 $124 $48 #
plane-surface $-1 0 0 -11.137382582980129 0 0 1 1 0 0 forward_v I I I I #
coedge $-1 $125 $126 $127 $128 forward $49 $-1 #
face $-1 $129 $130 $29 $-1 $131 reversed single #
loop $-1 $-1 $132 $51 #
plane-surface $-1 -49.681021716896787 -18.674719602018541 71.423777587093682 0 0.70710678939079041 0.70710677298230451 1 0 0 forward_v I I I I #
coedge $-1 $133 $134 $135 $136 reversed $52 $-1 #
face $-1 $-1 $137 $30 $-1 $138 forward single #
loop $-1 $139 $140 $54 #
cone-surface $-1 -56.02508848174071 41.883017204757977 7.9356366587644604 0 -0.70710678939079041 -0.70710677298230451 0.25 0 0 1 I I -0.70710678118654746 0.70710678118654746 0.25 forward I I I I #
loop $-1 $-1 $141 $39 #
coedge $-1 $88 $88 $142 $143 reversed $55 $-1 #
face $-1 $-1 $144 $31 $-1 $145 forward single #
loop $-1 $146 $147 $57 #
cone-surface $-1 -43.336954952052864 41.883017204757977 7.9356366587644604 0 -0.70710678939079041 -0.70710677298230451 0.25 0 0 1 I I -0.70710678118654746 0.70710678118654746 0.25 forward I I I I #
loop $-1 $-1 $148 $40 #
coedge $-1 $93 $93 $149 $150 reversed $58 $-1 #
face $-1 $151 $152 $32 $-1 $153 reversed single #
loop $-1 $-1 $154 $60 #
plane-surface $-1 53.058056685047532 -158.33978905320078 97.633298607404015 1 0 0 0 0.77714596973225614 -0.62932038083071107 forward_v I I I I #
coedge $-1 $155 $156 $157 $158 reversed $61 $-1 #
face $-1 $-1 $159 $33 $-1 $160 forward single #
loop $-1 $161 $162 $63 #
cone-surface $-1 57.019643993016217 -38.91224751049063 5.2411412561792634 0 0.77714596973225614 -0.62932038083071107 0.75 0 0 1 I I -0.70710678118654757 0.70710678118654757 0.75 forward I I I I #
loop $-1 $-1 $163 $42 #
coedge $-1 $102 $102 $164 $165 reversed $64 $-1 #
face $-1 $-1 $166 $34 $-1 $167 forward single #
loop $-1 $168 $169 $66 #
cone-surface $-1 62.962024954969223 -38.91224751049063 5.2411412561792634 0 0.77714596973225614 -0.62932038083071107 0.75 0 0 1 I I -0.70710678118654757 0.70710678118654757 0.75 forward I I I I #
loop $-1 $-1 $170 $43 #
coedge $-1 $107 $107 $171 $172 reversed $67 $-1 #
face $-1 $-1 $173 $35 $-1 $174 forward single #
loop $-1 $175 $176 $69 #
cone-surface $-1 68.904405916922229 -38.91224751049063 5.2411412561792634 0 0.77714596973225614 -0.62932038083071107 0.75 0 0 1 I I -0.70710678118654757 0.70710678118654757 0.75 forward I I I I #
loop $-1 $-1 $177 $44 #
coedge $-1 $112 $112 $178 $179 reversed $70 $-1 #
face $-1 $180 $181 $27 $-1 $182 reversed single #
loop $-1 $-1 $183 $72 #
plane-surface $-1 0 -45.084763122677103 0 0 1 0 0 0 1 forward_v I I I I #
coedge $-1 $184 $185 $186 $187 forward $73 $-1 #
coedge $-1 $188 $75 $189 $190 forward $46 $-1 #
coedge $-1 $75 $188 $191 $192 forward $46 $-1 #
coedge $-1 $193 $194 $75 $120 reversed $195 $-1 #
edge $-1 $196 -45.084763122677103 $197 45.084763122677103 $119 $198 forward 7 unknown #
face $-1 $199 $200 $28 $-1 $201 reversed single #
loop $-1 $-1 $202 $76 #
plane-surface $-1 -77.057067753236709 -31.890978928986019 0 0 1 0 0 0 1 forward_v I I I I #
coedge $-1 $203 $204 $126 $205 forward $77 $-1 #
coedge $-1 $206 $79 $207 $208 reversed $49 $-1 #
coedge $-1 $79 $206 $124 $205 reversed $49 $-1 #
coedge $-1 $209 $210 $79 $128 reversed $211 $-1 #
edge $-1 $212 -11.137382582980129 $213 11.137382582980129 $127 $214 forward 7 unknown #
face $-1 $215 $216 $29 $-1 $217 forward single #
loop $-1 $-1 $218 $80 #
plane-surface $-1 -34.878199265594304 84.373357448028841 174.47185224589981 -1 0 0 0 0.70710678939079041 0.70710677298230451 forward_v I I I I #
coedge $-1 $219 $220 $221 $222 reversed $81 $-1 #
coedge $-1 $134 $83 $223 $224 reversed $52 $-1 #
coedge $-1 $83 $133 $219 $225 reversed $52 $-1 #
coedge $-1 $221 $226 $83 $136 forward $216 $-1 #
edge $-1 $227 -2.8980843986626823 $228 0.57500472087141929 $135 $229 forward 7 unknown #
loop $-1 $-1 $142 $84 #
plane-surface $-1 -49.681021716896787 -18.674719602018541 71.423777587093682 0 0.70710678939079041 0.70710677298230451 1 0 0 forward_v I I I I #
loop $-1 $-1 $230 $54 #
coedge $-1 $140 $140 $141 $231 reversed $85 $-1 #
coedge $-1 $141 $141 $140 $231 forward $87 $-1 #
coedge $-1 $142 $142 $88 $143 forward $137 $-1 #
edge $-1 $232 -2.512147963041366e-015 $232 6.2831853071795978 $142 $233 forward 7 unknown #
loop $-1 $-1 $149 $89 #
plane-surface $-1 -49.681021716896787 -18.674719602018541 71.423777587093682 0 0.70710678939079041 0.70710677298230451 1 0 0 forward_v I I I I #
loop $-1 $-1 $234 $57 #
coedge $-1 $147 $147 $148 $235 reversed $90 $-1 #
coedge $-1 $148 $148 $147 $235 forward $92 $-1 #
coedge $-1 $149 $149 $93 $150 forward $144 $-1 #
edge $-1 $236 -2.512147963041366e-015 $236 6.2831853071795978 $149 $237 forward 7 unknown #
face $-1 $238 $239 $32 $-1 $240 forward single #
loop $-1 $-1 $241 $94 #
plane-surface $-1 0 -45.084763122677103 0 0 1 0 0 0 1 forward_v I I I I #
coedge $-1 $242 $243 $244 $245 reversed $95 $-1 #
coedge $-1 $246 $97 $247 $248 reversed $61 $-1 #
coedge $-1 $97 $246 $242 $249 forward $61 $-1 #
coedge $-1 $244 $250 $97 $158 forward $239 $-1 #
edge $-1 $251 -41.384980747406303 $252 -21.577044207562921 $157 $253 forward 7 unknown #
loop $-1 $-1 $164 $98 #
plane-surface $-1 62.962024954969223 -45.084763122677089 5.9211893956113073 0 -0.77714596973225614 0.62932038083071107 1 0 0 forward_v I I I I #
loop $-1 $-1 $254 $63 #
coedge $-1 $162 $162 $163 $255 reversed $99 $-1 #
coedge $-1 $163 $163 $162 $255 forward $101 $-1 #
coedge $-1 $164 $164 $102 $165 forward $159 $-1 #
edge $-1 $256 -1.1404087557052994e-015 $256 6.2831853071795996 $164 $257 forward 7 unknown #
loop $-1 $-1 $171 $103 #
plane-surface $-1 62.962024954969223 -45.084763122677089 5.9211893956113073 0 -0.77714596973225614 0.62932038083071107 1 0 0 forward_v I I I I #
loop $-1 $-1 $258 $66 #
coedge $-1 $169 $169 $170 $259 reversed $104 $-1 #
coedge $-1 $170 $170 $169 $259 forward $106 $-1 #
coedge $-1 $171 $171 $107 $172 forward $166 $-1 #
edge $-1 $260 -1.1404087557052994e-015 $260 6.2831853071795996 $171 $261 forward 7 unknown #
loop $-1 $-1 $178 $108 #
plane-surface $-1 62.962024954969223 -45.084763122677089 5.9211893956113073 0 -0.77714596973225614 0.62932038083071107 1 0 0 forward_v I I I I #
loop $-1 $-1 $262 $69 #
coedge $-1 $176 $176 $177 $263 reversed $109 $-1 #
coedge $-1 $177 $177 $176 $263 forward $111 $-1 #
coedge $-1 $178 $178 $112 $179 forward $173 $-1 #
edge $-1 $264 -1.1404087557052994e-015 $264 6.2831853071795996 $178 $265 forward 7 unknown #
face $-1 $266 $267 $27 $-1 $268 reversed single #
loop $-1 $-1 $269 $113 #
plane-surface $-1 -72.8659932248909 0 0 1 0 0 0 0 -1 forward_v I I I I #
coedge $-1 $270 $191 $271 $272 forward $114 $-1 #
coedge $-1 $273 $116 $270 $274 forward $73 $-1 #
coedge $-1 $116 $273 $275 $276 forward $73 $-1 #
coedge $-1 $194 $193 $116 $187 reversed $195 $-1 #
edge $-1 $277 -45.084763122677103 $278 45.084763122677103 $186 $279 forward 7 unknown #
coedge $-1 $118 $117 $280 $281 forward $46 $-1 #
coedge $-1 $282 $283 $117 $190 reversed $267 $-1 #
edge $-1 $197 -72.8659932248909 $284 72.8659932248909 $189 $285 forward 7 unknown #
coedge $-1 $183 $286 $118 $192 reversed $114 $-1 #
edge $-1 $287 -72.8659932248909 $196 72.8659932248909 $191 $288 forward 7 unknown #
coedge $-1 $186 $119 $286 $289 forward $195 $-1 #
coedge $-1 $119 $186 $282 $290 reversed $195 $-1 #
loop $-1 $-1 $193 $266 #
vertex $-1 $120 $291 #
vertex $-1 $120 $292 #
straight-curve $-1 72.8659932248909 0 11.137382582980129 0 1 0 I I #
face $-1 $293 $211 $28 $-1 $294 reversed single #
loop $-1 $-1 $295 $121 #
plane-surface $-1 -81.248142281582517 -28.75390588141941 0 1 0 0 0 0 -1 forward_v I I I I #
coedge $-1 $296 $297 $298 $299 forward $122 $-1 #
coedge $-1 $300 $124 $296 $301 forward $77 $-1 #
coedge $-1 $124 $300 $209 $302 forward $77 $-1 #
edge $-1 $212 25.616832833852801 $303 31.890978928986019 $124 $304 forward 7 unknown #
coedge $-1 $126 $125 $305 $306 forward $49 $-1 #
coedge $-1 $307 $308 $125 $208 forward $309 $-1 #
edge $-1 $310 -31.890978928986019 $213 -25.616832833852801 $207 $311 forward 7 unknown #
coedge $-1 $312 $127 $204 $302 reversed $211 $-1 #
coedge $-1 $127 $312 $307 $313 reversed $211 $-1 #
loop $-1 $-1 $127 $199 #
vertex $-1 $205 $314 #
vertex $-1 $313 $315 #
straight-curve $-1 -72.8659932248909 -25.616832833852801 0 0 0 1 I I #
face $-1 $-1 $316 $29 $-1 $317 reversed single #
loop $-1 $-1 $135 $129 #
plane-surface $-1 0 0 11.137382582980129 0 0 1 1 0 0 forward_v I I I I #
coedge $-1 $318 $319 $320 $321 reversed $130 $-1 #
coedge $-1 $322 $132 $134 $225 forward $81 $-1 #
coedge $-1 $132 $322 $318 $323 forward $81 $-1 #
coedge $-1 $320 $135 $132 $222 forward $216 $-1 #
edge $-1 $228 -39.643333309750872 $324 -10.037688407145911 $221 $325 forward 7 unknown #
coedge $-1 $326 $327 $133 $224 forward $316 $-1 #
edge $-1 $328 -79.571632740097272 $227 -76.098543539969782 $223 $329 forward 7 unknown #
edge $-1 $228 85.25783645219056 $328 90.169526245354263 $134 $330 forward 7 unknown #
coedge $-1 $135 $320 $326 $331 forward $216 $-1 #
vertex $-1 $224 $332 #
vertex $-1 $136 $333 #
straight-curve $-1 -64.483844168199269 42.186678724014421 11.137382582980123 0 -1 0 I I #
coedge $-1 $230 $230 $-1 $334 reversed $139 $-1 #
edge $-1 $335 0 $335 6.2831853071796004 $140 $336 forward 7 unknown #
vertex $-1 $143 $337 #
ellipse-curve $-1 -56.02508848174071 43.348218562910056 9.4008379829163875 0 0.70710678939079041 0.70710677298230451 0.5 0 0 1 I I #
coedge $-1 $234 $234 $-1 $338 reversed $146 $-1 #
edge $-1 $339 0 $339 6.2831853071796004 $147 $340 forward 7 unknown #
vertex $-1 $150 $341 #
ellipse-curve $-1 -43.336954952052864 43.348218562910056 9.4008379829163875 0 0.70710678939079041 0.70710677298230451 0.5 0 0 1 I I #
face $-1 $-1 $342 $32 $-1 $343 reversed single #
loop $-1 $-1 $244 $151 #
plane-surface $-1 0 0 11.137382582980129 0 0 1 1 0 0 forward_v I I I I #
coedge $-1 $344 $345 $243 $346 forward $152 $-1 #
coedge $-1 $243 $154 $156 $249 reversed $95 $-1 #
coedge $-1 $154 $242 $241 $346 reversed $95 $-1 #
coedge $-1 $347 $157 $154 $245 forward $239 $-1 #
edge $-1 $252 -38.30912124754618 $348 -34.085131403923285 $244 $349 forward 7 unknown #
coedge $-1 $156 $155 $344 $350 reversed $61 $-1 #
coedge $-1 $351 $352 $155 $248 forward $342 $-1 #
edge $-1 $353 -11.885565911602445 $251 -5.1735795016800843 $247 $354 forward 7 unknown #
edge $-1 $355 -2.2748066086763162e-014 $252 6.7119864099223374 $242 $356 forward 7 unknown #
coedge $-1 $157 $347 $351 $357 forward $239 $-1 #
vertex $-1 $248 $358 #
vertex $-1 $158 $359 #
straight-curve $-1 31.481012477484612 -40.860773279054207 11.137382582980129 -1 0 0 I I #
coedge $-1 $254 $254 $-1 $360 reversed $161 $-1 #
edge $-1 $361 0 $361 6.2831853071796004 $162 $362 forward 7 unknown #
vertex $-1 $165 $363 #
ellipse-curve $-1 57.019643993016217 -42.972768200865652 8.5292859892957082 0 -0.77714596973225614 0.62932038083071107 1.5 0 0 1 I I #
coedge $-1 $258 $258 $-1 $364 reversed $168 $-1 #
edge $-1 $365 0 $365 6.2831853071796004 $169 $366 forward 7 unknown #
vertex $-1 $172 $367 #
ellipse-curve $-1 62.962024954969223 -42.972768200865652 8.5292859892957082 0 -0.77714596973225614 0.62932038083071107 1.5 0 0 1 I I #
coedge $-1 $262 $262 $-1 $368 reversed $175 $-1 #
edge $-1 $369 0 $369 6.2831853071796004 $176 $370 forward 7 unknown #
vertex $-1 $179 $371 #
ellipse-curve $-1 68.904405916922229 -42.972768200865652 8.5292859892957082 0 -0.77714596973225614 0.62932038083071107 1.5 0 0 1 I I #
face $-1 $-1 $195 $27 $-1 $372 reversed single #
loop $-1 $-1 $282 $180 #
plane-surface $-1 0 45.084763122677103 0 0 -1 0 0 0 -1 forward_v I I I I #
coedge $-1 $373 $280 $283 $374 forward $181 $-1 #
coedge $-1 $286 $183 $184 $274 reversed $114 $-1 #
coedge $-1 $280 $373 $183 $272 reversed $181 $-1 #
edge $-1 $287 -11.137382582980129 $375 11.137382582980129 $271 $376 forward 7 unknown #
coedge $-1 $185 $184 $373 $377 forward $73 $-1 #
edge $-1 $278 -72.8659932248909 $375 72.8659932248909 $270 $378 forward 7 unknown #
coedge $-1 $283 $282 $185 $276 reversed $267 $-1 #
edge $-1 $379 -72.8659932248909 $277 72.8659932248909 $275 $380 forward 7 unknown #
vertex $-1 $187 $381 #
vertex $-1 $289 $382 #
straight-curve $-1 72.8659932248909 0 -11.137382582980129 0 -1 0 I I #
coedge $-1 $269 $271 $188 $281 reversed $181 $-1 #
edge $-1 $284 -45.084763122677103 $287 45.084763122677103 $280 $383 forward 7 unknown #
coedge $-1 $275 $189 $194 $290 forward $267 $-1 #
coedge $-1 $189 $275 $269 $374 reversed $267 $-1 #
vertex $-1 $190 $384 #
straight-curve $-1 0 45.084763122677103 11.137382582980129 -1 0 0 I I #
coedge $-1 $191 $270 $193 $289 reversed $114 $-1 #
vertex $-1 $281 $385 #
straight-curve $-1 0 -45.084763122677103 11.137382582980129 1 0 0 I I #
edge $-1 $196 -11.137382582980129 $278 11.137382582980129 $193 $386 forward 7 unknown #
edge $-1 $197 -11.137382582980129 $277 11.137382582980129 $194 $387 forward 7 unknown #
point $-1 72.8659932248909 -45.084763122677103 11.137382582980129 #
point $-1 72.8659932248909 45.084763122677103 11.137382582980129 #
face $-1 $-1 $309 $28 $-1 $388 forward single #
plane-surface $-1 -77.057067753236709 -25.616832833852801 0 0 -1 0 0 0 -1 forward_v I I I I #
coedge $-1 $389 $390 $312 $391 forward $200 $-1 #
coedge $-1 $305 $202 $203 $301 reversed $122 $-1 #
coedge $-1 $202 $305 $308 $392 reversed $122 $-1 #
coedge $-1 $390 $389 $202 $299 reversed $200 $-1 #
edge $-1 $393 -11.137382582980129 $394 11.137382582980129 $298 $395 forward 7 unknown #
coedge $-1 $204 $203 $389 $396 forward $77 $-1 #
edge $-1 $303 -4.1910745283458084 $394 4.1910745283458084 $296 $397 forward 7 unknown #
edge $-1 $398 -4.1910745283458084 $212 4.1910745283458084 $209 $399 forward 7 unknown #
vertex $-1 $301 $400 #
straight-curve $-1 -72.8659932248909 0 -11.137382582980129 0 -1 0 I I #
coedge $-1 $297 $296 $206 $306 reversed $122 $-1 #
edge $-1 $310 -11.137382582980129 $303 11.137382582980129 $305 $401 forward 7 unknown #
coedge $-1 $402 $207 $210 $313 forward $309 $-1 #
coedge $-1 $207 $402 $297 $392 forward $309 $-1 #
loop $-1 $-1 $207 $293 #
vertex $-1 $208 $403 #
straight-curve $-1 -72.8659932248909 0 11.137382582980129 0 1 0 I I #
coedge $-1 $210 $209 $295 $391 reversed $211 $-1 #
edge $-1 $213 -4.1910745283458084 $404 4.1910745283458084 $210 $405 forward 7 unknown #
point $-1 -72.8659932248909 -25.616832833852801 -11.137382582980129 #
point $-1 -72.8659932248909 -25.616832833852801 11.137382582980129 #
loop $-1 $-1 $223 $215 #
plane-surface $-1 0 45.084763122677103 0 0 -1 0 0 0 -1 forward_v I I I I #
coedge $-1 $319 $218 $220 $323 reversed $130 $-1 #
coedge $-1 $218 $318 $406 $407 reversed $130 $-1 #
coedge $-1 $226 $221 $218 $321 forward $216 $-1 #
edge $-1 $324 -0.57500472087141929 $408 2.8980843986626823 $320 $409 forward 7 unknown #
coedge $-1 $220 $219 $327 $410 reversed $81 $-1 #
edge $-1 $411 -90.169526245354263 $324 -85.25783645219056 $318 $412 forward 7 unknown #
vertex $-1 $222 $413 #
straight-curve $-1 -24.840510858448393 41.611674003143001 11.137382582980123 1 0 0 I I #
coedge $-1 $406 $223 $226 $331 reversed $316 $-1 #
coedge $-1 $223 $406 $322 $410 forward $316 $-1 #
vertex $-1 $224 $414 #
straight-curve $-1 -64.483844168199269 45.084763122677103 87.235926122949905 0 0 1 I I #
straight-curve $-1 -64.483844168199269 -18.674719602018541 71.423777587093682 0 0.70710677298230451 -0.70710678939079041 I I #
edge $-1 $408 34.878199265594304 $227 64.483844168199269 $326 $415 forward 7 unknown #
point $-1 -64.483844168199269 45.084763122677103 11.137382582980129 #
point $-1 -64.483844168199269 41.611674003143001 11.137382582980131 #
edge $-1 $416 1 $416 0 $230 $-1 forward 7 unknown #
vertex $-1 $231 $417 #
ellipse-curve $-1 -56.02508848174071 42.059793902105675 8.1124133520100372 0 0.70710678939079041 0.70710677298230451 0.5 0 0 1 I I #
point $-1 -55.52508848174071 43.348218562910056 9.4008379829163893 #
edge $-1 $418 1 $418 0 $234 $-1 forward 7 unknown #
vertex $-1 $235 $419 #
ellipse-curve $-1 -43.336954952052864 42.059793902105675 8.1124133520100372 0 0.70710678939079041 0.70710677298230451 0.5 0 0 1 I I #
point $-1 -42.836954952052864 43.348218562910056 9.4008379829163893 #
loop $-1 $-1 $247 $238 #
plane-surface $-1 72.8659932248909 0 0 -1 0 0 0 0 1 forward_v I I I I #
coedge $-1 $420 $241 $246 $350 forward $152 $-1 #
coedge $-1 $241 $420 $347 $421 reversed $152 $-1 #
edge $-1 $348 37.679266720721877 $355 42.895459908090714 $241 $422 forward 7 unknown #
coedge $-1 $250 $244 $345 $421 forward $239 $-1 #
vertex $-1 $421 $423 #
straight-curve $-1 53.058056685047532 -79.169894526600388 11.137382582980131 0 -1 0 I I #
edge $-1 $355 21.577044207562921 $353 41.384980747406303 $344 $424 forward 7 unknown #
coedge $-1 $352 $247 $250 $357 reversed $342 $-1 #
coedge $-1 $247 $351 $420 $425 forward $342 $-1 #
vertex $-1 $350 $426 #
straight-curve $-1 72.8659932248909 -37.604934256798934 15.158009041800218 0 0.62932038083071107 0.77714596973225614 I I #
vertex $-1 $350 $427 #
straight-curve $-1 53.058056685047532 -45.084763122677089 5.9211893956113073 0 0.62932038083071107 0.77714596973225614 I I #
edge $-1 $428 -45.084763122677103 $251 -40.860773279054207 $351 $429 forward 7 unknown #
point $-1 72.865993224890914 -40.860773279054207 11.137382582980129 #
point $-1 53.058056685047532 -40.860773279054207 11.137382582980129 #
edge $-1 $430 1 $430 0 $254 $-1 forward 7 unknown #
vertex $-1 $255 $431 #
ellipse-curve $-1 57.019643993016217 -39.495106987789825 5.713131541802297 0 -0.77714596973225614 0.62932038083071107 1.5 0 0 1 I I #
point $-1 58.519643993016217 -42.972768200865659 8.5292859892957118 #
edge $-1 $432 1 $432 0 $258 $-1 forward 7 unknown #
vertex $-1 $259 $433 #
ellipse-curve $-1 62.962024954969223 -39.495106987789825 5.713131541802297 0 -0.77714596973225614 0.62932038083071107 1.5 0 0 1 I I #
point $-1 64.462024954969223 -42.972768200865659 8.5292859892957118 #
edge $-1 $434 1 $434 0 $262 $-1 forward 7 unknown #
vertex $-1 $263 $435 #
ellipse-curve $-1 68.904405916922229 -39.495106987789825 5.713131541802297 0 -0.77714596973225614 0.62932038083071107 1.5 0 0 1 I I #
point $-1 70.404405916922229 -42.972768200865659 8.5292859892957118 #
plane-surface $-1 72.8659932248909 0 0 -1 0 0 0 0 1 forward_v I I I I #
coedge $-1 $271 $269 $273 $377 reversed $181 $-1 #
edge $-1 $284 -11.137382582980129 $379 11.137382582980129 $283 $436 forward 7 unknown #
vertex $-1 $377 $437 #
straight-curve $-1 -72.8659932248909 -45.084763122677103 0 0 0 -1 I I #
edge $-1 $375 -45.084763122677103 $379 45.084763122677103 $373 $438 forward 7 unknown #
straight-curve $-1 0 -45.084763122677103 -11.137382582980129 -1 0 0 I I #
vertex $-1 $276 $439 #
straight-curve $-1 0 45.084763122677103 -11.137382582980129 1 0 0 I I #
point $-1 72.8659932248909 45.084763122677103 -11.137382582980129 #
point $-1 72.8659932248909 -45.084763122677103 -11.137382582980129 #
straight-curve $-1 -72.8659932248909 0 11.137382582980129 0 -1 0 I I #
point $-1 -72.8659932248909 45.084763122677103 11.137382582980129 #
point $-1 -72.8659932248909 -45.084763122677103 11.137382582980129 #
straight-curve $-1 72.8659932248909 -45.084763122677103 0 0 0 -1 I I #
straight-curve $-1 72.8659932248909 45.084763122677103 0 0 0 -1 I I #
plane-surface $-1 0 0 11.137382582980129 0 0 1 1 0 0 forward_v I I I I #
coedge $-1 $298 $295 $300 $396 reversed $200 $-1 #
coedge $-1 $295 $298 $402 $440 reversed $200 $-1 #
edge $-1 $404 -11.137382582980129 $398 11.137382582980129 $312 $441 forward 7 unknown #
edge $-1 $393 -4.1910745283458084 $310 4.1910745283458084 $297 $442 forward 7 unknown #
vertex $-1 $440 $443 #
vertex $-1 $396 $444 #
straight-curve $-1 -81.248142281582517 -31.890978928986019 0 0 0 -1 I I #
edge $-1 $394 -3.1370730475666093 $398 3.1370730475666093 $389 $445 forward 7 unknown #
straight-curve $-1 -77.057067753236709 -31.890978928986019 -11.137382582980129 -1 0 0 I I #
vertex $-1 $302 $446 #
straight-curve $-1 -77.057067753236709 -25.616832833852801 -11.137382582980129 1 0 0 I I #
point $-1 -72.8659932248909 -31.890978928986019 -11.137382582980129 #
straight-curve $-1 -72.8659932248909 -31.890978928986019 0 0 0 -1 I I #
coedge $-1 $308 $307 $390 $440 forward $309 $-1 #
point $-1 -72.8659932248909 -31.890978928986019 11.137382582980129 #
vertex $-1 $313 $447 #
straight-curve $-1 -77.057067753236709 -25.616832833852801 11.137382582980129 -1 0 0 I I #
coedge $-1 $327 $326 $319 $407 forward $316 $-1 #
edge $-1 $408 76.098543539969782 $411 79.571632740097272 $406 $448 forward 7 unknown #
vertex $-1 $331 $449 #
straight-curve $-1 -34.878199265594304 42.186678724014421 11.137382582980123 0 1 0 I I #
edge $-1 $411 10.037688407145911 $328 39.643333309750872 $327 $450 forward 7 unknown #
vertex $-1 $410 $451 #
straight-curve $-1 -34.878199265594304 -18.674719602018541 71.423777587093682 0 -0.70710677298230451 0.70710678939079041 I I #
point $-1 -34.878199265594304 41.611674003143001 11.137382582980131 #
point $-1 -64.483844168199269 45.084763122677103 7.6642933828526338 #
straight-curve $-1 0 45.084763122677103 11.137382582980129 -1 0 0 I I #
vertex $-1 $334 $452 #
point $-1 -55.52508848174071 42.059793902105675 8.1124133520100372 #
vertex $-1 $338 $453 #
point $-1 -42.836954952052864 42.059793902105675 8.1124133520100372 #
coedge $-1 $345 $344 $352 $425 reversed $152 $-1 #
edge $-1 $348 53.058056685047532 $428 72.8659932248909 $345 $454 forward 7 unknown #
straight-curve $-1 53.058056685047532 -45.084763122677103 48.816649303702008 0 0 -1 I I #
point $-1 53.058056685047532 -45.084763122677103 11.137382582980129 #
straight-curve $-1 31.481012477484612 -45.084763122677103 5.9211893956112913 1 0 0 I I #
edge $-1 $428 -11.137382582980129 $353 -5.9211893956112895 $352 $455 forward 7 unknown #
point $-1 72.865993224890914 -45.084763122677103 5.9211893956112895 #
point $-1 53.058056685047532 -45.084763122677103 5.9211893956112895 #
vertex $-1 $357 $456 #
straight-curve $-1 72.8659932248909 0 11.137382582980129 0 1 0 I I #
vertex $-1 $360 $457 #
point $-1 58.519643993016217 -39.495106987789825 5.713131541802297 #
vertex $-1 $364 $458 #
point $-1 64.462024954969223 -39.495106987789825 5.713131541802297 #
vertex $-1 $368 $459 #
point $-1 70.404405916922229 -39.495106987789825 5.713131541802297 #
straight-curve $-1 -72.8659932248909 45.084763122677103 0 0 0 -1 I I #
point $-1 -72.8659932248909 -45.084763122677103 -11.137382582980129 #
straight-curve $-1 -72.8659932248909 0 -11.137382582980129 0 1 0 I I #
point $-1 -72.8659932248909 45.084763122677103 -11.137382582980129 #
edge $-1 $404 -3.1370730475666093 $393 3.1370730475666093 $390 $460 forward 7 unknown #
straight-curve $-1 -81.248142281582517 -25.616832833852801 0 0 0 -1 I I #
straight-curve $-1 -77.057067753236709 -31.890978928986019 11.137382582980129 1 0 0 I I #
point $-1 -81.248142281582517 -31.890978928986019 11.137382582980129 #
point $-1 -81.248142281582517 -31.890978928986019 -11.137382582980129 #
straight-curve $-1 -81.248142281582517 -28.75390588141941 -11.137382582980129 0 1 0 I I #
point $-1 -81.248142281582517 -25.616832833852801 -11.137382582980129 #
point $-1 -81.248142281582517 -25.616832833852801 11.137382582980129 #
straight-curve $-1 -34.878199265594304 45.084763122677103 87.235926122949905 0 0 -1 I I #
point $-1 -34.878199265594304 45.084763122677103 11.137382582980129 #
straight-curve $-1 -24.840510858448393 45.084763122677096 7.6642933828526374 -1 0 0 I I #
point $-1 -34.878199265594304 45.084763122677103 7.6642933828526338 #
point $-1 -56.02508848174071 41.706240507410278 7.7588599655188846 #
point $-1 -43.336954952052864 41.706240507410278 7.7588599655188846 #
straight-curve $-1 0 -45.084763122677103 11.137382582980129 1 0 0 I I #
straight-curve $-1 72.8659932248909 -45.084763122677103 0 0 0 -1 I I #
point $-1 72.8659932248909 -45.084763122677103 11.137382582980129 #
point $-1 57.019643993016217 -38.329388033191435 4.7691509705562298 #
point $-1 62.962024954969223 -38.329388033191435 4.7691509705562298 #
point $-1 68.904405916922229 -38.329388033191435 4.7691509705562298 #
straight-curve $-1 -81.248142281582517 -28.75390588141941 11.137382582980129 0 -1 0 I I #
End-of-ACIS-data 