500 0 4 0           
7 Unknown 11 ACIS 5.0 NT 24 Fri Mar 26 16:37:36 1999 
-1 9.9999999999999995e-007 1e-010 
body $-1 $4 $-1 $5 #
body $-1 $6 $-1 $7 #
body $-1 $8 $-1 $9 #
body $-1 $10 $-1 $11 #
lump $-1 $-1 $12 $0 #
transform $-1 1 0 0 0 1 0 0 0 1 49.563280129398478 27.908481480864666 8.2362684032138862 1 rotate no_reflect no_shear #
lump $-1 $-1 $13 $1 #
transform $-1 1 0 0 0 1 0 0 0 1 49.563280129398478 27.908481480864666 8.2362684032138862 1 rotate no_reflect no_shear #
lump $-1 $-1 $14 $2 #
transform $-1 1 0 0 0 1 0 0 0 1 49.563280129398478 27.908481480864666 8.2362684032138862 1 rotate no_reflect no_shear #
lump $-1 $-1 $15 $3 #
transform $-1 1 0 0 0 1 0 0 0 1 49.563280129398478 27.908481480864666 8.2362684032138862 1 rotate no_reflect no_shear #
shell $-1 $-1 $-1 $16 $-1 $4 #
shell $-1 $-1 $-1 $17 $-1 $6 #
shell $-1 $-1 $-1 $18 $-1 $8 #
shell $-1 $-1 $-1 $19 $-1 $10 #
face $-1 $20 $21 $12 $-1 $22 forward single #
face $-1 $23 $24 $13 $-1 $25 reversed single #
face $-1 $26 $27 $14 $-1 $28 reversed single #
face $-1 $29 $30 $15 $-1 $31 forward single #
face $-1 $32 $33 $12 $-1 $34 reversed single #
loop $-1 $-1 $35 $16 #
plane-surface $-1 0 0 8.2362684032138862 0 0 1 1 0 0 forward_v I I I I #
face $-1 $36 $37 $13 $-1 $38 reversed single #
loop $-1 $-1 $39 $17 #
plane-surface $-1 -44.720589579991362 -16.967467521117264 0 0 1 0 0 0 1 forward_v I I I I #
face $-1 $40 $41 $14 $-1 $42 reversed single #
loop $-1 $-1 $43 $18 #
plane-surface $-1 42.226506693938958 25.797400374830531 140.81331630437086 0 -1 0 -0.66913061440640931 0 -0.74314481823134659 forward_v I I I I #
face $-1 $44 $45 $15 $-1 $46 forward single #
loop $-1 $47 $48 $19 #
cone-surface $-1 43.688116474693395 18.271719911240702 2.5770201434474478 -0.66913061440640931 0 -0.74314481823134659 1.4862896364626932 0 -1.3382612288128186 1 I I 0 1 2 forward I I I I #
face $-1 $49 $50 $12 $-1 $51 reversed single #
loop $-1 $-1 $52 $20 #
plane-surface $-1 0 0 -8.2362684032138862 0 0 1 1 0 0 forward_v I I I I #
coedge $-1 $53 $54 $55 $56 forward $21 $-1 #
face $-1 $57 $58 $13 $-1 $59 reversed single #
loop $-1 $-1 $60 $23 #
plane-surface $-1 -44.720589579991362 -13.967467521117266 0 0 -1 0 0 0 -1 forward_v I I I I #
coedge $-1 $61 $62 $63 $64 reversed $24 $-1 #
face $-1 $65 $66 $14 $-1 $67 reversed single #
loop $-1 $-1 $68 $26 #
plane-surface $-1 -24.102109476023799 18.271719911240702 67.147926698948567 0.66913061440640931 0 0.74314481823134659 0.74314481823134659 0 -0.66913061440640931 forward_v I I I I #
coedge $-1 $69 $70 $71 $72 reversed $27 $-1 #
face $-1 $-1 $73 $15 $-1 $74 forward single #
loop $-1 $75 $76 $29 #
cone-surface $-1 41.262505234427039 18.271719911240702 -0.11689399743629458 -0.66913061440640931 0 -0.74314481823134659 0.74314481823134659 0 -0.66913061440640931 1 I I -0.70710678118654746 0.70710678118654746 1 forward I I I I #
loop $-1 $-1 $77 $19 #
coedge $-1 $48 $48 $78 $79 reversed $30 $-1 #
face $-1 $80 $81 $12 $-1 $82 reversed single #
loop $-1 $-1 $83 $32 #
plane-surface $-1 0 -27.908481480864666 0 0 1 0 0 0 1 forward_v I I I I #
coedge $-1 $84 $85 $86 $87 forward $33 $-1 #
coedge $-1 $88 $35 $89 $90 forward $21 $-1 #
coedge $-1 $35 $88 $91 $92 forward $21 $-1 #
coedge $-1 $93 $94 $35 $56 reversed $95 $-1 #
edge $-1 $96 -27.908481480864666 $97 27.908481480864666 $55 $98 forward 7 unknown #
face $-1 $99 $100 $13 $-1 $101 reversed single #
loop $-1 $-1 $102 $36 #
plane-surface $-1 -39.877899030584246 -15.467467521117266 0 -1 0 0 0 0 1 forward_v I I I I #
coedge $-1 $103 $104 $105 $106 forward $37 $-1 #
coedge $-1 $107 $39 $108 $109 reversed $24 $-1 #
coedge $-1 $39 $107 $110 $111 reversed $24 $-1 #
coedge $-1 $112 $113 $39 $64 forward $114 $-1 #
edge $-1 $115 -8.2362684032138862 $116 8.2362684032138862 $63 $117 forward 7 unknown #
face $-1 $118 $119 $14 $-1 $120 reversed single #
loop $-1 $-1 $121 $40 #
plane-surface $-1 42.226506693938958 10.746039447650872 140.81331630437086 0 1 0 0.66913061440640931 0 0.74314481823134659 forward_v I I I I #
coedge $-1 $122 $123 $124 $125 reversed $41 $-1 #
coedge $-1 $70 $43 $126 $127 reversed $27 $-1 #
coedge $-1 $43 $69 $122 $128 reversed $27 $-1 #
coedge $-1 $124 $129 $43 $72 forward $130 $-1 #
edge $-1 $131 -28.450026782428999 $132 -20.212660724738761 $71 $133 forward 7 unknown #
loop $-1 $-1 $78 $44 #
plane-surface $-1 -24.102109476023799 18.271719911240702 67.147926698948567 0.66913061440640931 0 0.74314481823134659 0.74314481823134659 0 -0.66913061440640931 forward_v I I I I #
loop $-1 $-1 $134 $29 #
coedge $-1 $76 $76 $77 $135 reversed $45 $-1 #
coedge $-1 $77 $77 $76 $135 forward $47 $-1 #
coedge $-1 $78 $78 $48 $79 forward $73 $-1 #
edge $-1 $136 0 $136 6.2831853071796004 $78 $137 forward 7 unknown #
face $-1 $138 $139 $12 $-1 $140 reversed single #
loop $-1 $-1 $141 $49 #
plane-surface $-1 -49.563280129398478 0 0 1 0 0 0 0 -1 forward_v I I I I #
coedge $-1 $142 $91 $143 $144 forward $50 $-1 #
coedge $-1 $145 $52 $142 $146 forward $33 $-1 #
coedge $-1 $52 $145 $147 $148 forward $33 $-1 #
coedge $-1 $94 $93 $52 $87 reversed $95 $-1 #
edge $-1 $149 -27.908481480864666 $150 27.908481480864666 $86 $151 forward 7 unknown #
coedge $-1 $54 $53 $152 $153 forward $21 $-1 #
coedge $-1 $154 $155 $53 $90 reversed $139 $-1 #
edge $-1 $97 -49.563280129398478 $156 49.563280129398478 $89 $157 forward 7 unknown #
coedge $-1 $83 $158 $54 $92 reversed $50 $-1 #
edge $-1 $159 -49.563280129398478 $96 49.563280129398478 $91 $160 forward 7 unknown #
coedge $-1 $86 $55 $158 $161 forward $95 $-1 #
coedge $-1 $55 $86 $154 $162 reversed $95 $-1 #
loop $-1 $-1 $93 $138 #
vertex $-1 $56 $163 #
vertex $-1 $56 $164 #
straight-curve $-1 49.563280129398478 0 8.2362684032138862 0 1 0 I I #
face $-1 $165 $166 $13 $-1 $167 forward single #
loop $-1 $-1 $168 $57 #
plane-surface $-1 0 0 -8.2362684032138862 0 0 1 1 0 0 forward_v I I I I #
coedge $-1 $169 $170 $107 $171 forward $58 $-1 #
coedge $-1 $172 $60 $168 $173 reversed $37 $-1 #
coedge $-1 $60 $172 $174 $175 reversed $37 $-1 #
coedge $-1 $170 $169 $60 $106 reversed $58 $-1 #
edge $-1 $176 -8.2362684032138862 $177 8.2362684032138862 $105 $178 forward 7 unknown #
coedge $-1 $62 $61 $102 $171 reversed $24 $-1 #
coedge $-1 $179 $180 $61 $109 forward $100 $-1 #
edge $-1 $181 17.517604240588565 $115 27.202985339402797 $108 $182 forward 7 unknown #
coedge $-1 $183 $184 $62 $111 forward $166 $-1 #
edge $-1 $116 -27.202985339402797 $185 -17.517604240588565 $110 $186 forward 7 unknown #
coedge $-1 $187 $63 $184 $188 reversed $114 $-1 #
coedge $-1 $63 $187 $179 $189 reversed $114 $-1 #
loop $-1 $-1 $187 $165 #
vertex $-1 $189 $190 #
vertex $-1 $64 $191 #
straight-curve $-1 -49.563280129398478 -16.967467521117264 0 0 0 1 I I #
face $-1 $-1 $130 $14 $-1 $192 forward single #
loop $-1 $-1 $193 $65 #
plane-surface $-1 49.563280129398478 0 0 -1 0 0 0 0 1 forward_v I I I I #
coedge $-1 $194 $195 $196 $197 reversed $66 $-1 #
coedge $-1 $198 $68 $70 $128 forward $41 $-1 #
coedge $-1 $68 $198 $194 $199 forward $41 $-1 #
coedge $-1 $196 $71 $68 $125 forward $130 $-1 #
edge $-1 $132 -16.66154041921018 $200 -1.6101794920305217 $124 $201 forward 7 unknown #
coedge $-1 $202 $203 $69 $127 forward $119 $-1 #
edge $-1 $204 -69.587347623199619 $131 -62.170389748971544 $126 $205 forward 7 unknown #
edge $-1 $132 88.042090777740981 $204 99.126560258796943 $70 $206 forward 7 unknown #
coedge $-1 $71 $196 $202 $207 forward $130 $-1 #
loop $-1 $-1 $196 $118 #
vertex $-1 $127 $208 #
vertex $-1 $72 $209 #
straight-curve $-1 21.113253346969479 25.797400374830531 8.2362684032138844 -1 0 0 I I #
coedge $-1 $134 $134 $-1 $210 reversed $75 $-1 #
edge $-1 $211 0 $211 6.2831853071796004 $76 $212 forward 7 unknown #
vertex $-1 $79 $213 #
ellipse-curve $-1 45.444597100553352 18.271719911240702 4.5277894660998514 0.66913061440640931 0 0.74314481823134659 1.4862896364626932 0 -1.3382612288128186 1 I I #
face $-1 $-1 $95 $12 $-1 $214 reversed single #
loop $-1 $-1 $154 $80 #
plane-surface $-1 0 27.908481480864666 0 0 -1 0 0 0 -1 forward_v I I I I #
coedge $-1 $215 $152 $155 $216 forward $81 $-1 #
coedge $-1 $158 $83 $84 $146 reversed $50 $-1 #
coedge $-1 $152 $215 $83 $144 reversed $81 $-1 #
edge $-1 $159 -8.2362684032138862 $217 8.2362684032138862 $143 $218 forward 7 unknown #
coedge $-1 $85 $84 $215 $219 forward $33 $-1 #
edge $-1 $150 -49.563280129398478 $217 49.563280129398478 $142 $220 forward 7 unknown #
coedge $-1 $155 $154 $85 $148 reversed $139 $-1 #
edge $-1 $221 -49.563280129398478 $149 49.563280129398478 $147 $222 forward 7 unknown #
vertex $-1 $87 $223 #
vertex $-1 $161 $224 #
straight-curve $-1 49.563280129398478 0 -8.2362684032138862 0 -1 0 I I #
coedge $-1 $141 $143 $88 $153 reversed $81 $-1 #
edge $-1 $156 -27.908481480864666 $159 27.908481480864666 $152 $225 forward 7 unknown #
coedge $-1 $147 $89 $94 $162 forward $139 $-1 #
coedge $-1 $89 $147 $141 $216 reversed $139 $-1 #
vertex $-1 $90 $226 #
straight-curve $-1 0 27.908481480864666 8.2362684032138862 -1 0 0 I I #
coedge $-1 $91 $142 $93 $161 reversed $50 $-1 #
vertex $-1 $153 $227 #
straight-curve $-1 0 -27.908481480864666 8.2362684032138862 1 0 0 I I #
edge $-1 $96 -8.2362684032138862 $150 8.2362684032138862 $93 $228 forward 7 unknown #
edge $-1 $97 -8.2362684032138862 $149 8.2362684032138862 $94 $229 forward 7 unknown #
point $-1 49.563280129398478 -27.908481480864666 8.2362684032138862 #
point $-1 49.563280129398478 27.908481480864666 8.2362684032138862 #
face $-1 $-1 $114 $13 $-1 $230 reversed single #
loop $-1 $-1 $174 $99 #
plane-surface $-1 0 0 8.2362684032138862 0 0 1 1 0 0 forward_v I I I I #
coedge $-1 $180 $179 $103 $173 forward $100 $-1 #
coedge $-1 $105 $102 $180 $231 reversed $58 $-1 #
coedge $-1 $102 $105 $183 $232 reversed $58 $-1 #
edge $-1 $185 -8.2362684032138862 $181 8.2362684032138862 $102 $233 forward 7 unknown #
coedge $-1 $104 $103 $187 $234 reversed $37 $-1 #
edge $-1 $235 -27.202985339402797 $177 -17.517604240588565 $168 $236 forward 7 unknown #
coedge $-1 $184 $183 $104 $175 forward $166 $-1 #
edge $-1 $176 17.517604240588565 $237 27.202985339402797 $174 $238 forward 7 unknown #
vertex $-1 $175 $239 #
vertex $-1 $173 $240 #
straight-curve $-1 -39.877899030584246 -13.967467521117266 0 0 0 -1 I I #
coedge $-1 $168 $108 $113 $189 forward $100 $-1 #
coedge $-1 $108 $168 $169 $231 forward $100 $-1 #
vertex $-1 $109 $241 #
straight-curve $-1 -22.360294789995681 -16.967467521117264 -8.2362684032138862 -1 0 0 I I #
coedge $-1 $174 $110 $170 $232 forward $166 $-1 #
coedge $-1 $110 $174 $112 $188 forward $166 $-1 #
vertex $-1 $111 $242 #
straight-curve $-1 -22.360294789995681 -16.967467521117264 8.2362684032138862 1 0 0 I I #
coedge $-1 $113 $112 $172 $234 forward $114 $-1 #
edge $-1 $237 13.967467521117266 $116 16.967467521117264 $112 $243 forward 7 unknown #
edge $-1 $115 -16.967467521117264 $235 -13.967467521117266 $113 $244 forward 7 unknown #
point $-1 -49.563280129398478 -16.967467521117264 -8.2362684032138862 #
point $-1 -49.563280129398478 -16.967467521117264 8.2362684032138862 #
plane-surface $-1 0 0 8.2362684032138862 0 0 1 1 0 0 forward_v I I I I #
coedge $-1 $203 $202 $195 $245 forward $119 $-1 #
coedge $-1 $195 $121 $123 $199 reversed $66 $-1 #
coedge $-1 $121 $194 $193 $245 reversed $66 $-1 #
coedge $-1 $129 $124 $121 $197 forward $130 $-1 #
edge $-1 $200 20.212660724738761 $246 28.450026782428999 $196 $247 forward 7 unknown #
coedge $-1 $123 $122 $203 $248 reversed $41 $-1 #
edge $-1 $249 -99.126560258796943 $200 -88.042090777740981 $194 $250 forward 7 unknown #
vertex $-1 $125 $251 #
straight-curve $-1 41.325914071708247 9.1358599556203508 8.2362684032138773 0 -1 0 I I #
coedge $-1 $193 $126 $129 $207 reversed $119 $-1 #
coedge $-1 $126 $193 $198 $248 forward $119 $-1 #
vertex $-1 $127 $252 #
straight-curve $-1 49.563280129398478 25.797400374830531 70.406658152185429 0 0 1 I I #
straight-curve $-1 -24.102109476023799 25.797400374830531 67.147926698948567 0.74314481823134659 0 -0.66913061440640931 I I #
edge $-1 $246 10.746039447650872 $131 25.797400374830531 $202 $253 forward 7 unknown #
point $-1 49.563280129398478 25.797400374830531 8.2362684032138862 #
point $-1 41.32591407170824 25.797400374830531 8.2362684032138844 #
edge $-1 $254 1 $254 0 $134 $-1 forward 7 unknown #
vertex $-1 $135 $255 #
ellipse-curve $-1 41.931635848833452 18.271719911240702 0.62625082079505201 0.66913061440640931 0 0.74314481823134659 1.4862896364626932 0 -1.3382612288128186 1 I I #
point $-1 46.930886737016039 18.271719911240702 3.1895282372870248 #
plane-surface $-1 49.563280129398478 0 0 -1 0 0 0 0 1 forward_v I I I I #
coedge $-1 $143 $141 $145 $219 reversed $81 $-1 #
edge $-1 $156 -8.2362684032138862 $221 8.2362684032138862 $155 $256 forward 7 unknown #
vertex $-1 $219 $257 #
straight-curve $-1 -49.563280129398478 -27.908481480864666 0 0 0 -1 I I #
edge $-1 $217 -27.908481480864666 $221 27.908481480864666 $215 $258 forward 7 unknown #
straight-curve $-1 0 -27.908481480864666 -8.2362684032138862 -1 0 0 I I #
vertex $-1 $148 $259 #
straight-curve $-1 0 27.908481480864666 -8.2362684032138862 1 0 0 I I #
point $-1 49.563280129398478 27.908481480864666 -8.2362684032138862 #
point $-1 49.563280129398478 -27.908481480864666 -8.2362684032138862 #
straight-curve $-1 -49.563280129398478 0 8.2362684032138862 0 -1 0 I I #
point $-1 -49.563280129398478 27.908481480864666 8.2362684032138862 #
point $-1 -49.563280129398478 -27.908481480864666 8.2362684032138862 #
straight-curve $-1 49.563280129398478 -27.908481480864666 0 0 0 -1 I I #
straight-curve $-1 49.563280129398478 27.908481480864666 0 0 0 -1 I I #
plane-surface $-1 -49.563280129398478 0 0 1 0 0 0 0 -1 forward_v I I I I #
edge $-1 $177 6.2337337605586329 $181 9.233733760558632 $180 $260 forward 7 unknown #
edge $-1 $185 -9.233733760558632 $176 -6.2337337605586329 $183 $261 forward 7 unknown #
straight-curve $-1 -39.877899030584246 -16.967467521117264 0 0 0 -1 I I #
edge $-1 $237 -8.2362684032138862 $235 8.2362684032138862 $187 $262 forward 7 unknown #
vertex $-1 $234 $263 #
straight-curve $-1 -22.360294789995681 -13.967467521117266 -8.2362684032138862 1 0 0 I I #
vertex $-1 $188 $264 #
straight-curve $-1 -22.360294789995681 -13.967467521117266 8.2362684032138862 -1 0 0 I I #
point $-1 -39.877899030584246 -13.967467521117266 8.2362684032138862 #
point $-1 -39.877899030584246 -13.967467521117266 -8.2362684032138862 #
point $-1 -39.877899030584246 -16.967467521117264 -8.2362684032138862 #
point $-1 -39.877899030584246 -16.967467521117264 8.2362684032138862 #
straight-curve $-1 -49.563280129398478 0 8.2362684032138862 0 -1 0 I I #
straight-curve $-1 -49.563280129398478 0 -8.2362684032138862 0 1 0 I I #
edge $-1 $246 62.170389748971544 $249 69.587347623199619 $193 $265 forward 7 unknown #
vertex $-1 $207 $266 #
straight-curve $-1 21.113253346969479 10.746039447650872 8.2362684032138844 1 0 0 I I #
edge $-1 $249 1.6101794920305217 $204 16.66154041921018 $203 $267 forward 7 unknown #
vertex $-1 $248 $268 #
straight-curve $-1 -24.102109476023799 10.746039447650872 67.147926698948567 -0.74314481823134659 0 0.66913061440640931 I I #
point $-1 41.32591407170824 10.746039447650872 8.2362684032138844 #
point $-1 49.563280129398478 25.797400374830531 0.81931052898580958 #
straight-curve $-1 49.563280129398478 0 8.2362684032138862 0 1 0 I I #
vertex $-1 $210 $269 #
point $-1 43.417925485296138 18.271719911240702 -0.71201040801776661 #
straight-curve $-1 -49.563280129398478 27.908481480864666 0 0 0 -1 I I #
point $-1 -49.563280129398478 -27.908481480864666 -8.2362684032138862 #
straight-curve $-1 -49.563280129398478 0 -8.2362684032138862 0 1 0 I I #
point $-1 -49.563280129398478 27.908481480864666 -8.2362684032138862 #
straight-curve $-1 -39.877899030584246 -7.7337337605586329 -8.2362684032138862 0 -1 0 I I #
straight-curve $-1 -39.877899030584246 -7.7337337605586329 8.2362684032138862 0 1 0 I I #
straight-curve $-1 -49.563280129398478 -13.967467521117266 0 0 0 -1 I I #
point $-1 -49.563280129398478 -13.967467521117266 -8.2362684032138862 #
point $-1 -49.563280129398478 -13.967467521117266 8.2362684032138862 #
straight-curve $-1 49.563280129398478 10.746039447650872 70.406658152185429 0 0 -1 I I #
point $-1 49.563280129398478 10.746039447650872 8.2362684032138862 #
straight-curve $-1 49.563280129398471 9.1358599556203508 0.81931052898582379 0 1 0 I I #
point $-1 49.563280129398478 10.746039447650872 0.81931052898580958 #
point $-1 40.593374620020626 18.271719911240702 -0.86003881566764118 #
End-of-ACIS-data 