500 0 12 0           
7 Unknown 11 ACIS 5.0 NT 24 Thu Mar 25 20:23:25 1999 
-1 9.9999999999999995e-007 1e-010 
body $-1 $12 $-1 $13 #
body $-1 $14 $-1 $15 #
body $-1 $16 $-1 $17 #
body $-1 $18 $-1 $19 #
body $-1 $20 $-1 $21 #
body $-1 $22 $-1 $23 #
body $-1 $24 $-1 $25 #
body $-1 $26 $-1 $27 #
body $-1 $28 $-1 $29 #
body $-1 $30 $-1 $31 #
body $-1 $32 $-1 $33 #
body $-1 $34 $-1 $35 #
lump $-1 $-1 $36 $0 #
transform $-1 1 0 0 0 1 0 0 0 1 75.659047212134155 38.363364718022559 8.7650225417341865 1 rotate no_reflect no_shear #
lump $-1 $-1 $37 $1 #
transform $-1 1 0 0 0 1 0 0 0 1 75.659047212134155 38.363364718022559 8.7650225417341865 1 rotate no_reflect no_shear #
lump $-1 $-1 $38 $2 #
transform $-1 1 0 0 0 1 0 0 0 1 75.659047212134155 38.363364718022559 8.7650225417341865 1 rotate no_reflect no_shear #
lump $-1 $-1 $39 $3 #
transform $-1 1 0 0 0 1 0 0 0 1 75.659047212134155 38.363364718022559 8.7650225417341865 1 rotate no_reflect no_shear #
lump $-1 $-1 $40 $4 #
transform $-1 1 0 0 0 1 0 0 0 1 75.659047212134155 38.363364718022559 8.7650225417341865 1 rotate no_reflect no_shear #
lump $-1 $-1 $41 $5 #
transform $-1 1 0 0 0 1 0 0 0 1 75.659047212134155 38.363364718022559 8.7650225417341865 1 rotate no_reflect no_shear #
lump $-1 $-1 $42 $6 #
transform $-1 1 0 0 0 1 0 0 0 1 75.659047212134155 38.363364718022559 8.7650225417341865 1 rotate no_reflect no_shear #
lump $-1 $-1 $43 $7 #
transform $-1 1 0 0 0 1 0 0 0 1 75.659047212134155 38.363364718022559 8.7650225417341865 1 rotate no_reflect no_shear #
lump $-1 $-1 $44 $8 #
transform $-1 1 0 0 0 1 0 0 0 1 75.659047212134155 38.363364718022559 8.7650225417341865 1 rotate no_reflect no_shear #
lump $-1 $-1 $45 $9 #
transform $-1 1 0 0 0 1 0 0 0 1 75.659047212134155 38.363364718022559 8.7650225417341865 1 rotate no_reflect no_shear #
lump $-1 $-1 $46 $10 #
transform $-1 1 0 0 0 1 0 0 0 1 75.659047212134155 38.363364718022559 8.7650225417341865 1 rotate no_reflect no_shear #
lump $-1 $-1 $47 $11 #
transform $-1 1 0 0 0 1 0 0 0 1 75.659047212134155 38.363364718022559 8.7650225417341865 1 rotate no_reflect no_shear #
shell $-1 $-1 $-1 $48 $-1 $12 #
shell $-1 $-1 $-1 $49 $-1 $14 #
shell $-1 $-1 $-1 $50 $-1 $16 #
shell $-1 $-1 $-1 $51 $-1 $18 #
shell $-1 $-1 $-1 $52 $-1 $20 #
shell $-1 $-1 $-1 $53 $-1 $22 #
shell $-1 $-1 $-1 $54 $-1 $24 #
shell $-1 $-1 $-1 $55 $-1 $26 #
shell $-1 $-1 $-1 $56 $-1 $28 #
shell $-1 $-1 $-1 $57 $-1 $30 #
shell $-1 $-1 $-1 $58 $-1 $32 #
shell $-1 $-1 $-1 $59 $-1 $34 #
face $-1 $60 $61 $36 $-1 $62 forward single #
face $-1 $63 $64 $37 $-1 $65 forward single #
face $-1 $66 $67 $38 $-1 $68 reversed single #
face $-1 $69 $70 $39 $-1 $71 forward single #
face $-1 $72 $73 $40 $-1 $74 forward single #
face $-1 $75 $76 $41 $-1 $77 reversed single #
face $-1 $78 $79 $42 $-1 $80 forward single #
face $-1 $81 $82 $43 $-1 $83 forward single #
face $-1 $84 $85 $44 $-1 $86 reversed single #
face $-1 $87 $88 $45 $-1 $89 forward single #
face $-1 $90 $91 $46 $-1 $92 forward single #
face $-1 $93 $94 $47 $-1 $95 forward single #
face $-1 $96 $97 $36 $-1 $98 reversed single #
loop $-1 $-1 $99 $48 #
plane-surface $-1 0 0 8.7650225417341865 0 0 1 1 0 0 forward_v I I I I #
face $-1 $100 $101 $37 $-1 $102 reversed single #
loop $-1 $-1 $103 $49 #
plane-surface $-1 -71.504543690347646 0 -5.7650225417341865 0 0 1 1 0 0 forward_v I I I I #
face $-1 $104 $105 $38 $-1 $106 reversed single #
loop $-1 $-1 $107 $50 #
plane-surface $-1 -56.429800039310692 -116.29794580606995 131.48314644158143 1 0 0 0 0.51503808176128008 -0.85716729658548041 forward_v I I I I #
face $-1 $108 $109 $39 $-1 $110 forward single #
loop $-1 $111 $112 $51 #
cone-surface $-1 -48.364406488098723 -30.831837544674521 2.4131653537282034 0 0.51503808176128008 -0.85716729658548041 3 0 0 1 I I 0 1 3 forward I I I I #
face $-1 $113 $114 $40 $-1 $115 forward single #
loop $-1 $116 $117 $52 #
cone-surface $-1 -36.266316161280784 -30.831837544674521 2.4131653537282034 0 0.51503808176128008 -0.85716729658548041 3 0 0 1 I I 0 1 3 forward I I I I #
face $-1 $118 $119 $41 $-1 $120 reversed single #
loop $-1 $-1 $121 $53 #
plane-surface $-1 15.074743651036957 -116.29794580606995 131.48314644158143 1 0 0 0 0.51503808176128008 -0.85716729658548041 forward_v I I I I #
face $-1 $122 $123 $42 $-1 $124 forward single #
loop $-1 $125 $126 $54 #
cone-surface $-1 23.140137202248923 -30.831837544674521 2.4131653537282034 0 0.51503808176128008 -0.85716729658548041 3 0 0 1 I I 0 1 3 forward I I I I #
face $-1 $127 $128 $43 $-1 $129 forward single #
loop $-1 $130 $131 $55 #
cone-surface $-1 35.238227529066862 -30.831837544674521 2.4131653537282034 0 0.51503808176128008 -0.85716729658548041 3 0 0 1 I I 0 1 3 forward I I I I #
face $-1 $132 $133 $44 $-1 $134 reversed single #
loop $-1 $-1 $135 $56 #
plane-surface $-1 -35.748837272705842 126.02941677096371 149.22757942438187 1 0 0 0 -0.84804810408105047 -0.52991925155115449 forward_v I I I I #
face $-1 $136 $137 $45 $-1 $138 forward single #
loop $-1 $139 $140 $57 #
cone-surface $-1 -31.6243691262016 36.271176404127125 5.9972939375348249 0 -0.84804810408105047 -0.52991925155115449 1 0 0 1 I I 0 1 1 forward I I I I #
face $-1 $141 $142 $46 $-1 $143 forward single #
loop $-1 $144 $145 $58 #
cone-surface $-1 -25.43766690644523 36.271176404127125 5.9972939375348249 0 -0.84804810408105047 -0.52991925155115449 1 0 0 1 I I 0 1 1 forward I I I I #
face $-1 $146 $147 $47 $-1 $148 forward single #
loop $-1 $149 $150 $59 #
cone-surface $-1 -19.25096468668886 36.271176404127125 5.9972939375348249 0 -0.84804810408105047 -0.52991925155115449 1 0 0 1 I I 0 1 1 forward I I I I #
face $-1 $151 $152 $36 $-1 $153 reversed single #
loop $-1 $-1 $154 $60 #
plane-surface $-1 0 0 -8.7650225417341865 0 0 1 1 0 0 forward_v I I I I #
coedge $-1 $155 $156 $157 $158 forward $61 $-1 #
face $-1 $159 $160 $37 $-1 $161 reversed single #
loop $-1 $-1 $162 $63 #
plane-surface $-1 -67.350040168561137 0 -7.2650225417341865 -1 0 0 0 0 1 forward_v I I I I #
coedge $-1 $163 $164 $165 $166 forward $64 $-1 #
face $-1 $167 $168 $38 $-1 $169 reversed single #
loop $-1 $-1 $170 $66 #
plane-surface $-1 -42.315361324689761 -38.363364718022552 1.7782245194649136 0 -0.51503808176128008 0.85716729658548041 1 0 0 forward_v I I I I #
coedge $-1 $171 $172 $173 $174 reversed $67 $-1 #
face $-1 $-1 $175 $39 $-1 $176 forward single #
loop $-1 $177 $178 $69 #
cone-surface $-1 -48.364406488098723 -28.341745441317372 -1.7310437680213733 0 0.51503808176128008 -0.85716729658548041 1.5 0 0 1 I I -0.70710678118654768 0.70710678118654757 1.5 forward I I I I #
loop $-1 $-1 $179 $51 #
coedge $-1 $112 $112 $180 $181 reversed $70 $-1 #
face $-1 $-1 $182 $40 $-1 $183 forward single #
loop $-1 $184 $185 $72 #
cone-surface $-1 -36.266316161280784 -28.341745441317372 -1.7310437680213733 0 0.51503808176128008 -0.85716729658548041 1.5 0 0 1 I I -0.70710678118654768 0.70710678118654757 1.5 forward I I I I #
loop $-1 $-1 $186 $52 #
coedge $-1 $117 $117 $187 $188 reversed $73 $-1 #
face $-1 $189 $190 $41 $-1 $191 reversed single #
loop $-1 $-1 $192 $75 #
plane-surface $-1 29.189182365657885 -38.363364718022552 1.7782245194649136 0 -0.51503808176128008 0.85716729658548041 1 0 0 forward_v I I I I #
coedge $-1 $193 $194 $195 $196 reversed $76 $-1 #
face $-1 $-1 $197 $42 $-1 $198 forward single #
loop $-1 $199 $200 $78 #
cone-surface $-1 23.140137202248923 -28.341745441317372 -1.7310437680213733 0 0.51503808176128008 -0.85716729658548041 1.5 0 0 1 I I -0.70710678118654768 0.70710678118654757 1.5 forward I I I I #
loop $-1 $-1 $201 $54 #
coedge $-1 $126 $126 $202 $203 reversed $79 $-1 #
face $-1 $-1 $204 $43 $-1 $205 forward single #
loop $-1 $206 $207 $81 #
cone-surface $-1 35.238227529066862 -28.341745441317372 -1.7310437680213733 0 0.51503808176128008 -0.85716729658548041 1.5 0 0 1 I I -0.70710678118654768 0.70710678118654757 1.5 forward I I I I #
loop $-1 $-1 $208 $55 #
coedge $-1 $131 $131 $209 $210 reversed $82 $-1 #
face $-1 $211 $212 $44 $-1 $213 reversed single #
loop $-1 $-1 $214 $84 #
plane-surface $-1 -25.43766690644523 -2.2956063186944107 69.04120808092668 0 0.84804810408105047 0.52991925155115449 1 0 0 forward_v I I I I #
coedge $-1 $215 $216 $217 $218 reversed $85 $-1 #
face $-1 $-1 $219 $45 $-1 $220 forward single #
loop $-1 $221 $222 $87 #
cone-surface $-1 -31.6243691262016 35.252079686505873 5.3604916532525202 0 -0.84804810408105047 -0.52991925155115449 0.5 0 0 1 I I -0.70710678118654746 0.70710678118654746 0.5 forward I I I I #
loop $-1 $-1 $223 $57 #
coedge $-1 $140 $140 $224 $225 reversed $88 $-1 #
face $-1 $-1 $226 $46 $-1 $227 forward single #
loop $-1 $228 $229 $90 #
cone-surface $-1 -25.43766690644523 35.252079686505873 5.3604916532525202 0 -0.84804810408105047 -0.52991925155115449 0.5 0 0 1 I I -0.70710678118654746 0.70710678118654746 0.5 forward I I I I #
loop $-1 $-1 $230 $58 #
coedge $-1 $145 $145 $231 $232 reversed $91 $-1 #
face $-1 $-1 $233 $47 $-1 $234 forward single #
loop $-1 $235 $236 $93 #
cone-surface $-1 -19.25096468668886 35.252079686505873 5.3604916532525202 0 -0.84804810408105047 -0.52991925155115449 0.5 0 0 1 I I -0.70710678118654746 0.70710678118654746 0.5 forward I I I I #
loop $-1 $-1 $237 $59 #
coedge $-1 $150 $150 $238 $239 reversed $94 $-1 #
face $-1 $240 $241 $36 $-1 $242 reversed single #
loop $-1 $-1 $243 $96 #
plane-surface $-1 0 -38.363364718022559 0 0 1 0 0 0 1 forward_v I I I I #
coedge $-1 $244 $245 $246 $247 forward $97 $-1 #
coedge $-1 $248 $99 $249 $250 forward $61 $-1 #
coedge $-1 $99 $248 $251 $252 forward $61 $-1 #
coedge $-1 $253 $254 $99 $158 reversed $255 $-1 #
edge $-1 $256 -38.363364718022559 $257 38.363364718022559 $157 $258 forward 7 unknown #
face $-1 $259 $260 $37 $-1 $261 reversed single #
loop $-1 $-1 $262 $100 #
plane-surface $-1 0 0 -8.7650225417341865 0 0 1 1 0 0 forward_v I I I I #
coedge $-1 $263 $165 $264 $265 reversed $101 $-1 #
coedge $-1 $266 $103 $267 $268 reversed $64 $-1 #
coedge $-1 $103 $266 $269 $270 reversed $64 $-1 #
coedge $-1 $162 $271 $103 $166 reversed $101 $-1 #
edge $-1 $272 -38.363364718022559 $273 38.363364718022559 $165 $274 forward 7 unknown #
face $-1 $275 $276 $38 $-1 $277 forward single #
loop $-1 $-1 $278 $104 #
plane-surface $-1 -28.200922610068833 -116.29794580606995 131.48314644158143 -1 0 0 0 -0.51503808176128008 0.85716729658548041 forward_v I I I I #
coedge $-1 $279 $280 $281 $282 reversed $105 $-1 #
coedge $-1 $172 $107 $283 $284 reversed $67 $-1 #
coedge $-1 $107 $171 $279 $285 reversed $67 $-1 #
coedge $-1 $281 $286 $107 $174 forward $287 $-1 #
edge $-1 $288 56.97655067905653 $289 63.963348701325806 $173 $290 forward 7 unknown #
loop $-1 $-1 $180 $108 #
plane-surface $-1 -42.315361324689761 -38.363364718022552 1.7782245194649136 0 -0.51503808176128008 0.85716729658548041 1 0 0 forward_v I I I I #
loop $-1 $-1 $291 $69 #
coedge $-1 $178 $178 $179 $292 reversed $109 $-1 #
coedge $-1 $179 $179 $178 $292 forward $111 $-1 #
coedge $-1 $180 $180 $112 $181 forward $175 $-1 #
edge $-1 $293 7.1449427086491777e-016 $293 6.2831853071796013 $180 $294 forward 7 unknown #
loop $-1 $-1 $187 $113 #
plane-surface $-1 -42.315361324689761 -38.363364718022552 1.7782245194649136 0 -0.51503808176128008 0.85716729658548041 1 0 0 forward_v I I I I #
loop $-1 $-1 $295 $72 #
coedge $-1 $185 $185 $186 $296 reversed $114 $-1 #
coedge $-1 $186 $186 $185 $296 forward $116 $-1 #
coedge $-1 $187 $187 $117 $188 forward $182 $-1 #
edge $-1 $297 7.1449427086491777e-016 $297 6.2831853071796013 $187 $298 forward 7 unknown #
face $-1 $299 $300 $41 $-1 $301 reversed single #
loop $-1 $-1 $302 $118 #
plane-surface $-1 43.303621080278816 -116.29794580606995 131.48314644158143 -1 0 0 0 -0.51503808176128008 0.85716729658548041 forward_v I I I I #
coedge $-1 $303 $304 $305 $306 reversed $119 $-1 #
coedge $-1 $194 $121 $307 $308 reversed $76 $-1 #
coedge $-1 $121 $193 $303 $309 reversed $76 $-1 #
coedge $-1 $305 $310 $121 $196 forward $300 $-1 #
edge $-1 $311 56.97655067905653 $312 63.963348701325806 $195 $313 forward 7 unknown #
loop $-1 $-1 $202 $122 #
plane-surface $-1 29.189182365657885 -38.363364718022552 1.7782245194649136 0 -0.51503808176128008 0.85716729658548041 1 0 0 forward_v I I I I #
loop $-1 $-1 $314 $78 #
coedge $-1 $200 $200 $201 $315 reversed $123 $-1 #
coedge $-1 $201 $201 $200 $315 forward $125 $-1 #
coedge $-1 $202 $202 $126 $203 forward $197 $-1 #
edge $-1 $316 7.1449427086491777e-016 $316 6.2831853071796013 $202 $317 forward 7 unknown #
loop $-1 $-1 $209 $127 #
plane-surface $-1 29.189182365657885 -38.363364718022552 1.7782245194649136 0 -0.51503808176128008 0.85716729658548041 1 0 0 forward_v I I I I #
loop $-1 $-1 $318 $81 #
coedge $-1 $207 $207 $208 $319 reversed $128 $-1 #
coedge $-1 $208 $208 $207 $319 forward $130 $-1 #
coedge $-1 $209 $209 $131 $210 forward $204 $-1 #
edge $-1 $320 7.1449427086491777e-016 $320 6.2831853071796013 $209 $321 forward 7 unknown #
face $-1 $322 $323 $44 $-1 $324 reversed single #
loop $-1 $-1 $325 $132 #
plane-surface $-1 -15.126496540184615 126.02941677096371 149.22757942438187 -1 0 0 0 0.84804810408105047 0.52991925155115449 forward_v I I I I #
coedge $-1 $326 $327 $328 $329 reversed $133 $-1 #
coedge $-1 $216 $135 $330 $331 reversed $85 $-1 #
coedge $-1 $135 $215 $326 $332 reversed $85 $-1 #
coedge $-1 $328 $333 $135 $218 forward $334 $-1 #
edge $-1 $335 24.651343667459294 $336 27.645574964088752 $217 $337 forward 7 unknown #
loop $-1 $-1 $224 $136 #
plane-surface $-1 -25.43766690644523 -2.2956063186944107 69.04120808092668 0 0.84804810408105047 0.52991925155115449 1 0 0 forward_v I I I I #
loop $-1 $-1 $338 $87 #
coedge $-1 $222 $222 $223 $339 reversed $137 $-1 #
coedge $-1 $223 $223 $222 $339 forward $139 $-1 #
coedge $-1 $224 $224 $140 $225 forward $219 $-1 #
edge $-1 $340 -1.5087981816376499e-015 $340 6.2831853071795987 $224 $341 forward 7 unknown #
loop $-1 $-1 $231 $141 #
plane-surface $-1 -25.43766690644523 -2.2956063186944107 69.04120808092668 0 0.84804810408105047 0.52991925155115449 1 0 0 forward_v I I I I #
loop $-1 $-1 $342 $90 #
coedge $-1 $229 $229 $230 $343 reversed $142 $-1 #
coedge $-1 $230 $230 $229 $343 forward $144 $-1 #
coedge $-1 $231 $231 $145 $232 forward $226 $-1 #
edge $-1 $344 -1.5087981816376499e-015 $344 6.2831853071795987 $231 $345 forward 7 unknown #
loop $-1 $-1 $238 $146 #
plane-surface $-1 -25.43766690644523 -2.2956063186944107 69.04120808092668 0 0.84804810408105047 0.52991925155115449 1 0 0 forward_v I I I I #
loop $-1 $-1 $346 $93 #
coedge $-1 $236 $236 $237 $347 reversed $147 $-1 #
coedge $-1 $237 $237 $236 $347 forward $149 $-1 #
coedge $-1 $238 $238 $150 $239 forward $233 $-1 #
edge $-1 $348 -1.5087981816376499e-015 $348 6.2831853071795987 $238 $349 forward 7 unknown #
face $-1 $350 $351 $36 $-1 $352 reversed single #
loop $-1 $-1 $353 $151 #
plane-surface $-1 -75.659047212134155 0 0 1 0 0 0 0 -1 forward_v I I I I #
coedge $-1 $354 $251 $355 $356 forward $152 $-1 #
coedge $-1 $357 $154 $354 $358 forward $97 $-1 #
coedge $-1 $154 $357 $359 $360 forward $97 $-1 #
coedge $-1 $254 $253 $154 $247 reversed $255 $-1 #
edge $-1 $361 -38.363364718022559 $362 38.363364718022559 $246 $363 forward 7 unknown #
coedge $-1 $156 $155 $364 $365 forward $61 $-1 #
coedge $-1 $366 $367 $155 $250 reversed $351 $-1 #
edge $-1 $257 -75.659047212134155 $368 75.659047212134155 $249 $369 forward 7 unknown #
coedge $-1 $243 $370 $156 $252 reversed $152 $-1 #
edge $-1 $371 -75.659047212134155 $256 75.659047212134155 $251 $372 forward 7 unknown #
coedge $-1 $246 $157 $370 $373 forward $255 $-1 #
coedge $-1 $157 $246 $366 $374 reversed $255 $-1 #
loop $-1 $-1 $253 $350 #
vertex $-1 $158 $375 #
vertex $-1 $158 $376 #
straight-curve $-1 75.659047212134155 0 8.7650225417341865 0 1 0 I I #
face $-1 $377 $378 $37 $-1 $379 reversed single #
loop $-1 $-1 $264 $159 #
plane-surface $-1 0 -38.363364718022559 0 0 1 0 0 0 1 forward_v I I I I #
coedge $-1 $380 $381 $263 $382 forward $160 $-1 #
coedge $-1 $271 $162 $262 $382 reversed $101 $-1 #
coedge $-1 $269 $383 $162 $265 forward $260 $-1 #
edge $-1 $384 -5.1325112708670932 $272 -2.1325112708670932 $264 $385 forward 7 unknown #
coedge $-1 $164 $163 $386 $387 reversed $64 $-1 #
coedge $-1 $388 $389 $163 $268 forward $390 $-1 #
edge $-1 $391 -39.906775366960332 $273 -31.597768323387314 $267 $392 forward 7 unknown #
coedge $-1 $393 $264 $164 $270 forward $260 $-1 #
edge $-1 $272 31.597768323387314 $394 39.906775366960332 $269 $395 forward 7 unknown #
coedge $-1 $165 $263 $388 $396 reversed $101 $-1 #
vertex $-1 $270 $397 #
vertex $-1 $268 $398 #
straight-curve $-1 -67.350040168561137 0 -5.7650225417341865 0 1 0 I I #
face $-1 $-1 $287 $38 $-1 $399 reversed single #
loop $-1 $-1 $400 $167 #
plane-surface $-1 0 0 8.7650225417341865 0 0 1 1 0 0 forward_v I I I I #
coedge $-1 $401 $402 $403 $404 reversed $168 $-1 #
coedge $-1 $405 $170 $172 $285 forward $105 $-1 #
coedge $-1 $170 $405 $401 $406 forward $105 $-1 #
coedge $-1 $403 $173 $170 $282 forward $287 $-1 #
edge $-1 $289 -35.272119376965811 $407 -7.0432419477239527 $281 $408 forward 7 unknown #
coedge $-1 $409 $410 $171 $284 forward $276 $-1 #
edge $-1 $411 -31.413592570278063 $288 -19.785608185012414 $283 $412 forward 7 unknown #
edge $-1 $289 -8.2634070795339233e-015 $411 13.565594991299401 $172 $413 forward 7 unknown #
coedge $-1 $173 $403 $409 $414 reversed $287 $-1 #
loop $-1 $-1 $403 $275 #
vertex $-1 $414 $415 #
vertex $-1 $174 $416 #
straight-curve $-1 -56.429800039310692 -38.363364718022559 65.741573220790713 0 0 -1 I I #
coedge $-1 $291 $291 $-1 $417 reversed $177 $-1 #
edge $-1 $418 0 $418 6.2831853071796004 $178 $419 forward 7 unknown #
vertex $-1 $181 $420 #
ellipse-curve $-1 -48.364406488098723 -32.549372525389742 5.2716235305995429 0 -0.51503808176128008 0.85716729658548041 3 0 0 1 I I #
coedge $-1 $295 $295 $-1 $421 reversed $184 $-1 #
edge $-1 $422 0 $422 6.2831853071796004 $185 $423 forward 7 unknown #
vertex $-1 $188 $424 #
ellipse-curve $-1 -36.266316161280784 -32.549372525389742 5.2716235305995429 0 -0.51503808176128008 0.85716729658548041 3 0 0 1 I I #
face $-1 $-1 $425 $41 $-1 $426 forward single #
loop $-1 $-1 $195 $189 #
plane-surface $-1 0 -38.363364718022559 0 0 1 0 0 0 1 forward_v I I I I #
coedge $-1 $427 $428 $429 $430 reversed $190 $-1 #
coedge $-1 $431 $192 $194 $309 forward $119 $-1 #
coedge $-1 $192 $431 $427 $432 forward $119 $-1 #
coedge $-1 $429 $195 $192 $306 forward $300 $-1 #
edge $-1 $312 0.48015246820801494 $433 28.709029897449874 $305 $434 forward 7 unknown #
coedge $-1 $435 $436 $193 $308 forward $425 $-1 #
edge $-1 $437 -31.413592570278063 $311 -19.785608185012414 $307 $438 forward 7 unknown #
edge $-1 $312 -8.2634070795339233e-015 $437 13.565594991299401 $194 $439 forward 7 unknown #
coedge $-1 $195 $429 $435 $440 reversed $300 $-1 #
vertex $-1 $440 $441 #
vertex $-1 $196 $442 #
straight-curve $-1 15.074743651036957 -38.363364718022559 65.741573220790713 0 0 -1 I I #
coedge $-1 $314 $314 $-1 $443 reversed $199 $-1 #
edge $-1 $444 0 $444 6.2831853071796004 $200 $445 forward 7 unknown #
vertex $-1 $203 $446 #
ellipse-curve $-1 23.140137202248923 -32.549372525389742 5.2716235305995429 0 -0.51503808176128008 0.85716729658548041 3 0 0 1 I I #
coedge $-1 $318 $318 $-1 $447 reversed $206 $-1 #
edge $-1 $448 0 $448 6.2831853071796004 $207 $449 forward 7 unknown #
vertex $-1 $210 $450 #
ellipse-curve $-1 35.238227529066862 -32.549372525389742 5.2716235305995429 0 -0.51503808176128008 0.85716729658548041 3 0 0 1 I I #
face $-1 $-1 $334 $44 $-1 $451 forward single #
loop $-1 $-1 $452 $211 #
plane-surface $-1 0 38.363364718022559 0 0 -1 0 0 0 -1 forward_v I I I I #
coedge $-1 $453 $454 $455 $456 reversed $212 $-1 #
coedge $-1 $457 $214 $216 $332 forward $133 $-1 #
coedge $-1 $214 $457 $453 $458 forward $133 $-1 #
coedge $-1 $455 $217 $214 $329 forward $334 $-1 #
edge $-1 $336 -23.030003819483227 $459 -2.4076630869619997 $328 $460 forward 7 unknown #
coedge $-1 $461 $462 $215 $331 forward $323 $-1 #
edge $-1 $463 -70.640539061842063 $335 -65.848767170456753 $330 $464 forward 7 unknown #
edge $-1 $336 71.076375560686031 $463 76.726729436045133 $216 $465 forward 7 unknown #
coedge $-1 $217 $455 $461 $466 forward $334 $-1 #
loop $-1 $-1 $455 $322 #
vertex $-1 $331 $467 #
vertex $-1 $218 $468 #
straight-curve $-1 -35.748837272705842 63.014708385481853 8.7650225417341829 0 -1 0 I I #
coedge $-1 $338 $338 $-1 $469 reversed $221 $-1 #
edge $-1 $470 0 $470 6.2831853071796004 $222 $471 forward 7 unknown #
vertex $-1 $225 $472 #
ellipse-curve $-1 -31.6243691262016 36.866249069707827 6.3691365960415371 0 0.84804810408105047 0.52991925155115449 1 0 0 1 I I #
coedge $-1 $342 $342 $-1 $473 reversed $228 $-1 #
edge $-1 $474 0 $474 6.2831853071796004 $229 $475 forward 7 unknown #
vertex $-1 $232 $476 #
ellipse-curve $-1 -25.43766690644523 36.866249069707827 6.3691365960415371 0 0.84804810408105047 0.52991925155115449 1 0 0 1 I I #
coedge $-1 $346 $346 $-1 $477 reversed $235 $-1 #
edge $-1 $478 0 $478 6.2831853071796004 $236 $479 forward 7 unknown #
vertex $-1 $239 $480 #
ellipse-curve $-1 -19.25096468668886 36.866249069707827 6.3691365960415371 0 0.84804810408105047 0.52991925155115449 1 0 0 1 I I #
face $-1 $-1 $255 $36 $-1 $481 reversed single #
loop $-1 $-1 $366 $240 #
plane-surface $-1 0 38.363364718022559 0 0 -1 0 0 0 -1 forward_v I I I I #
coedge $-1 $482 $364 $367 $483 forward $241 $-1 #
coedge $-1 $370 $243 $244 $358 reversed $152 $-1 #
coedge $-1 $364 $482 $243 $356 reversed $241 $-1 #
edge $-1 $371 -8.7650225417341865 $484 8.7650225417341865 $355 $485 forward 7 unknown #
coedge $-1 $245 $244 $482 $486 forward $97 $-1 #
edge $-1 $362 -75.659047212134155 $484 75.659047212134155 $354 $487 forward 7 unknown #
coedge $-1 $367 $366 $245 $360 reversed $351 $-1 #
edge $-1 $488 -75.659047212134155 $361 75.659047212134155 $359 $489 forward 7 unknown #
vertex $-1 $247 $490 #
vertex $-1 $373 $491 #
straight-curve $-1 75.659047212134155 0 -8.7650225417341865 0 -1 0 I I #
coedge $-1 $353 $355 $248 $365 reversed $241 $-1 #
edge $-1 $368 -38.363364718022559 $371 38.363364718022559 $364 $492 forward 7 unknown #
coedge $-1 $359 $249 $254 $374 forward $351 $-1 #
coedge $-1 $249 $359 $353 $483 reversed $351 $-1 #
vertex $-1 $250 $493 #
straight-curve $-1 0 38.363364718022559 8.7650225417341865 -1 0 0 I I #
coedge $-1 $251 $354 $253 $373 reversed $152 $-1 #
vertex $-1 $365 $494 #
straight-curve $-1 0 -38.363364718022559 8.7650225417341865 1 0 0 I I #
edge $-1 $256 -8.7650225417341865 $362 8.7650225417341865 $253 $495 forward 7 unknown #
edge $-1 $257 -8.7650225417341865 $361 8.7650225417341865 $254 $496 forward 7 unknown #
point $-1 75.659047212134155 -38.363364718022559 8.7650225417341865 #
point $-1 75.659047212134155 38.363364718022559 8.7650225417341865 #
face $-1 $-1 $390 $37 $-1 $497 reversed single #
loop $-1 $-1 $386 $259 #
plane-surface $-1 -75.659047212134155 0 0 1 0 0 0 0 -1 forward_v I I I I #
coedge $-1 $498 $262 $383 $499 forward $160 $-1 #
coedge $-1 $262 $498 $500 $501 forward $160 $-1 #
edge $-1 $502 -38.363364718022559 $384 38.363364718022559 $262 $503 forward 7 unknown #
coedge $-1 $264 $393 $380 $499 reversed $260 $-1 #
vertex $-1 $499 $504 #
straight-curve $-1 -67.350040168561137 -38.363364718022559 -3.6325112708670932 0 0 1 I I #
coedge $-1 $505 $506 $266 $387 forward $378 $-1 #
edge $-1 $394 -38.363364718022559 $391 38.363364718022559 $386 $507 forward 7 unknown #
coedge $-1 $500 $267 $271 $396 forward $390 $-1 #
coedge $-1 $267 $500 $505 $508 reversed $390 $-1 #
loop $-1 $-1 $388 $377 #
vertex $-1 $508 $509 #
straight-curve $-1 -35.752271845173823 38.363364718022559 -5.7650225417341865 1 0 0 I I #
coedge $-1 $383 $269 $506 $510 forward $260 $-1 #
vertex $-1 $510 $511 #
straight-curve $-1 -35.752271845173823 -38.363364718022559 -5.7650225417341865 -1 0 0 I I #
edge $-1 $273 2.1325112708670932 $502 5.1325112708670932 $388 $512 forward 7 unknown #
point $-1 -67.350040168561137 -38.363364718022559 -5.7650225417341865 #
point $-1 -67.350040168561137 38.363364718022559 -5.7650225417341865 #
plane-surface $-1 0 -38.363364718022559 0 0 1 0 0 0 1 forward_v I I I I #
coedge $-1 $410 $409 $402 $513 forward $276 $-1 #
coedge $-1 $402 $278 $280 $406 reversed $168 $-1 #
coedge $-1 $278 $401 $400 $513 reversed $168 $-1 #
coedge $-1 $286 $281 $278 $404 forward $287 $-1 #
edge $-1 $407 -63.963348701325806 $514 -56.97655067905653 $403 $515 forward 7 unknown #
coedge $-1 $280 $279 $410 $516 reversed $105 $-1 #
edge $-1 $517 -13.565594991299401 $407 8.2634070795339233e-015 $401 $518 forward 7 unknown #
vertex $-1 $282 $519 #
straight-curve $-1 -21.15768066234488 -38.363364718022559 1.7782245194649065 1 0 0 I I #
coedge $-1 $400 $283 $286 $414 forward $276 $-1 #
coedge $-1 $283 $400 $405 $516 forward $276 $-1 #
vertex $-1 $284 $520 #
straight-curve $-1 -56.429800039310692 -58.148972903034974 8.7650225417341829 0 -1 0 I I #
straight-curve $-1 -56.429800039310692 -38.363364718022552 1.7782245194649136 0 0.85716729658548041 0.51503808176128008 I I #
edge $-1 $288 -56.429800039310692 $514 -28.200922610068833 $286 $521 forward 7 unknown #
point $-1 -56.429800039310692 -38.363364718022559 8.7650225417341865 #
point $-1 -56.429800039310692 -38.363364718022559 1.7782245194649093 #
edge $-1 $522 1 $522 0 $291 $-1 forward 7 unknown #
vertex $-1 $292 $523 #
ellipse-curve $-1 -48.364406488098723 -29.114302563959292 -0.44529282314315299 0 -0.51503808176128008 0.85716729658548041 3 0 0 1 I I #
point $-1 -45.364406488098723 -32.549372525389749 5.2716235305995589 #
edge $-1 $524 1 $524 0 $295 $-1 forward 7 unknown #
vertex $-1 $296 $525 #
ellipse-curve $-1 -36.266316161280784 -29.114302563959292 -0.44529282314315299 0 -0.51503808176128008 0.85716729658548041 3 0 0 1 I I #
point $-1 -33.266316161280784 -32.549372525389749 5.2716235305995589 #
loop $-1 $-1 $307 $299 #
plane-surface $-1 0 0 8.7650225417341865 0 0 1 1 0 0 forward_v I I I I #
coedge $-1 $428 $302 $304 $432 reversed $190 $-1 #
coedge $-1 $302 $427 $526 $527 reversed $190 $-1 #
coedge $-1 $310 $305 $302 $430 forward $300 $-1 #
edge $-1 $433 -63.963348701325806 $528 -56.97655067905653 $429 $529 forward 7 unknown #
coedge $-1 $304 $303 $436 $530 reversed $119 $-1 #
edge $-1 $531 -13.565594991299401 $433 8.2634070795339233e-015 $427 $532 forward 7 unknown #
vertex $-1 $306 $533 #
straight-curve $-1 14.594591182828943 -38.363364718022559 1.7782245194649065 1 0 0 I I #
coedge $-1 $526 $307 $310 $440 forward $425 $-1 #
coedge $-1 $307 $526 $431 $530 forward $425 $-1 #
vertex $-1 $308 $534 #
straight-curve $-1 15.074743651036957 -58.148972903034974 8.7650225417341829 0 -1 0 I I #
straight-curve $-1 15.074743651036957 -38.363364718022552 1.7782245194649136 0 0.85716729658548041 0.51503808176128008 I I #
edge $-1 $311 15.074743651036957 $528 43.303621080278816 $310 $535 forward 7 unknown #
point $-1 15.074743651036957 -38.363364718022559 8.7650225417341865 #
point $-1 15.074743651036957 -38.363364718022559 1.7782245194649093 #
edge $-1 $536 1 $536 0 $314 $-1 forward 7 unknown #
vertex $-1 $315 $537 #
ellipse-curve $-1 23.140137202248923 -29.114302563959292 -0.44529282314315299 0 -0.51503808176128008 0.85716729658548041 3 0 0 1 I I #
point $-1 26.140137202248923 -32.549372525389749 5.2716235305995589 #
edge $-1 $538 1 $538 0 $318 $-1 forward 7 unknown #
vertex $-1 $319 $539 #
ellipse-curve $-1 35.238227529066862 -29.114302563959292 -0.44529282314315299 0 -0.51503808176128008 0.85716729658548041 3 0 0 1 I I #
point $-1 38.238227529066862 -32.549372525389749 5.2716235305995589 #
plane-surface $-1 0 0 8.7650225417341865 0 0 1 1 0 0 forward_v I I I I #
coedge $-1 $462 $461 $454 $540 forward $323 $-1 #
coedge $-1 $454 $325 $327 $458 reversed $212 $-1 #
coedge $-1 $325 $453 $452 $540 reversed $212 $-1 #
coedge $-1 $333 $328 $325 $456 forward $334 $-1 #
edge $-1 $459 -27.645574964088752 $541 -24.651343667459294 $455 $542 forward 7 unknown #
coedge $-1 $327 $326 $462 $543 reversed $133 $-1 #
edge $-1 $544 -76.726729436045133 $459 -71.076375560686031 $453 $545 forward 7 unknown #
vertex $-1 $329 $546 #
straight-curve $-1 -12.718833453222615 35.369133421393094 8.7650225417341758 1 0 0 I I #
coedge $-1 $452 $330 $333 $466 reversed $323 $-1 #
coedge $-1 $330 $452 $457 $543 forward $323 $-1 #
vertex $-1 $331 $547 #
straight-curve $-1 -35.748837272705842 38.363364718022559 74.613789712190936 0 0 1 I I #
straight-curve $-1 -35.748837272705842 -2.2956063186944107 69.04120808092668 0 0.52991925155115449 -0.84804810408105047 I I #
edge $-1 $541 15.126496540184615 $335 35.748837272705842 $461 $548 forward 7 unknown #
point $-1 -35.748837272705842 38.363364718022559 8.7650225417341865 #
point $-1 -35.748837272705842 35.369133421393101 8.7650225417341829 #
edge $-1 $549 1 $549 0 $338 $-1 forward 7 unknown #
vertex $-1 $339 $550 #
ellipse-curve $-1 -31.6243691262016 35.676103738546395 5.6254512790280975 0 0.84804810408105047 0.52991925155115449 1 0 0 1 I I #
point $-1 -30.6243691262016 36.866249069707848 6.3691365960415522 #
edge $-1 $551 1 $551 0 $342 $-1 forward 7 unknown #
vertex $-1 $343 $552 #
ellipse-curve $-1 -25.43766690644523 35.676103738546395 5.6254512790280975 0 0.84804810408105047 0.52991925155115449 1 0 0 1 I I #
point $-1 -24.43766690644523 36.866249069707848 6.3691365960415522 #
edge $-1 $553 1 $553 0 $346 $-1 forward 7 unknown #
vertex $-1 $347 $554 #
ellipse-curve $-1 -19.25096468668886 35.676103738546395 5.6254512790280975 0 0.84804810408105047 0.52991925155115449 1 0 0 1 I I #
point $-1 -18.25096468668886 36.866249069707848 6.3691365960415522 #
plane-surface $-1 75.659047212134155 0 0 -1 0 0 0 0 1 forward_v I I I I #
coedge $-1 $355 $353 $357 $486 reversed $241 $-1 #
edge $-1 $368 -8.7650225417341865 $488 8.7650225417341865 $367 $555 forward 7 unknown #
vertex $-1 $486 $556 #
straight-curve $-1 -75.659047212134155 -38.363364718022559 0 0 0 -1 I I #
edge $-1 $484 -38.363364718022559 $488 38.363364718022559 $482 $557 forward 7 unknown #
straight-curve $-1 0 -38.363364718022559 -8.7650225417341865 -1 0 0 I I #
vertex $-1 $360 $558 #
straight-curve $-1 0 38.363364718022559 -8.7650225417341865 1 0 0 I I #
point $-1 75.659047212134155 38.363364718022559 -8.7650225417341865 #
point $-1 75.659047212134155 -38.363364718022559 -8.7650225417341865 #
straight-curve $-1 -75.659047212134155 0 8.7650225417341865 0 -1 0 I I #
point $-1 -75.659047212134155 38.363364718022559 8.7650225417341865 #
point $-1 -75.659047212134155 -38.363364718022559 8.7650225417341865 #
straight-curve $-1 75.659047212134155 -38.363364718022559 0 0 0 -1 I I #
straight-curve $-1 75.659047212134155 38.363364718022559 0 0 0 -1 I I #
plane-surface $-1 0 38.363364718022559 0 0 -1 0 0 0 -1 forward_v I I I I #
coedge $-1 $381 $380 $559 $560 forward $160 $-1 #
edge $-1 $384 67.350040168561137 $561 75.659047212134155 $383 $562 forward 7 unknown #
coedge $-1 $389 $388 $381 $501 reversed $390 $-1 #
edge $-1 $563 -75.659047212134155 $502 -67.350040168561137 $500 $564 forward 7 unknown #
vertex $-1 $396 $565 #
straight-curve $-1 -67.350040168561137 0 -8.7650225417341865 0 -1 0 I I #
point $-1 -67.350040168561137 -38.363364718022559 -8.7650225417341865 #
coedge $-1 $559 $386 $389 $508 forward $378 $-1 #
coedge $-1 $386 $559 $393 $510 reversed $378 $-1 #
straight-curve $-1 -75.659047212134155 0 -5.7650225417341865 0 1 0 I I #
edge $-1 $391 5.7650225417341865 $563 8.7650225417341865 $389 $566 forward 7 unknown #
point $-1 -75.659047212134155 38.363364718022559 -5.7650225417341865 #
edge $-1 $394 5.7650225417341865 $561 8.7650225417341865 $506 $567 forward 7 unknown #
point $-1 -75.659047212134155 -38.363364718022559 -5.7650225417341865 #
straight-curve $-1 -67.350040168561137 38.363364718022559 -3.6325112708670932 0 0 -1 I I #
edge $-1 $514 19.785608185012414 $517 31.413592570278063 $400 $568 forward 7 unknown #
vertex $-1 $404 $569 #
straight-curve $-1 -28.200922610068833 -38.363364718022559 65.741573220790713 0 0 1 I I #
edge $-1 $517 7.0432419477239527 $411 35.272119376965811 $410 $570 forward 7 unknown #
vertex $-1 $516 $571 #
straight-curve $-1 -28.200922610068833 -38.363364718022552 1.7782245194649136 0 -0.85716729658548041 -0.51503808176128008 I I #
point $-1 -28.200922610068833 -38.363364718022559 1.7782245194649093 #
point $-1 -56.429800039310692 -26.735380332756911 8.7650225417341865 #
straight-curve $-1 0 -38.363364718022559 8.7650225417341865 1 0 0 I I #
vertex $-1 $417 $572 #
point $-1 -45.364406488098723 -29.114302563959292 -0.44529282314315299 #
vertex $-1 $421 $573 #
point $-1 -33.266316161280784 -29.114302563959292 -0.44529282314315299 #
coedge $-1 $436 $435 $428 $527 forward $425 $-1 #
edge $-1 $528 19.785608185012414 $531 31.413592570278063 $526 $574 forward 7 unknown #
vertex $-1 $527 $575 #
straight-curve $-1 43.303621080278816 -38.363364718022559 65.741573220790713 0 0 1 I I #
edge $-1 $531 -28.709029897449874 $437 -0.48015246820801494 $436 $576 forward 7 unknown #
vertex $-1 $530 $577 #
straight-curve $-1 43.303621080278816 -38.363364718022552 1.7782245194649136 0 -0.85716729658548041 -0.51503808176128008 I I #
point $-1 43.303621080278816 -38.363364718022559 1.7782245194649093 #
point $-1 15.074743651036957 -26.735380332756911 8.7650225417341865 #
straight-curve $-1 0 -38.363364718022559 8.7650225417341865 1 0 0 I I #
vertex $-1 $443 $578 #
point $-1 26.140137202248923 -29.114302563959292 -0.44529282314315299 #
vertex $-1 $447 $579 #
point $-1 38.238227529066862 -29.114302563959292 -0.44529282314315299 #
edge $-1 $541 65.848767170456753 $544 70.640539061842063 $452 $580 forward 7 unknown #
vertex $-1 $466 $581 #
straight-curve $-1 -15.126496540184615 63.014708385481853 8.7650225417341829 0 1 0 I I #
edge $-1 $544 2.4076630869619997 $463 23.030003819483227 $462 $582 forward 7 unknown #
vertex $-1 $543 $583 #
straight-curve $-1 -15.126496540184615 -2.2956063186944107 69.04120808092668 0 -0.52991925155115449 0.84804810408105047 I I #
point $-1 -15.126496540184615 35.369133421393101 8.7650225417341829 #
point $-1 -35.748837272705842 38.363364718022559 3.9732506503488736 #
straight-curve $-1 0 38.363364718022559 8.7650225417341865 -1 0 0 I I #
vertex $-1 $469 $584 #
point $-1 -30.6243691262016 35.676103738546395 5.6254512790280975 #
vertex $-1 $473 $585 #
point $-1 -24.43766690644523 35.676103738546395 5.6254512790280975 #
vertex $-1 $477 $586 #
point $-1 -18.25096468668886 35.676103738546395 5.6254512790280975 #
straight-curve $-1 -75.659047212134155 38.363364718022559 0 0 0 -1 I I #
point $-1 -75.659047212134155 -38.363364718022559 -8.7650225417341865 #
straight-curve $-1 -75.659047212134155 0 -8.7650225417341865 0 1 0 I I #
point $-1 -75.659047212134155 38.363364718022559 -8.7650225417341865 #
coedge $-1 $506 $505 $498 $560 reversed $378 $-1 #
edge $-1 $561 -38.363364718022559 $563 38.363364718022559 $559 $587 forward 7 unknown #
vertex $-1 $560 $588 #
straight-curve $-1 0 -38.363364718022559 -8.7650225417341865 -1 0 0 I I #
vertex $-1 $501 $589 #
straight-curve $-1 0 38.363364718022559 -8.7650225417341865 1 0 0 I I #
point $-1 -67.350040168561137 38.363364718022559 -8.7650225417341865 #
straight-curve $-1 -75.659047212134155 38.363364718022559 0 0 0 -1 I I #
straight-curve $-1 -75.659047212134155 -38.363364718022559 0 0 0 -1 I I #
straight-curve $-1 -28.200922610068833 -58.148972903034974 8.7650225417341829 0 1 0 I I #
point $-1 -28.200922610068833 -38.363364718022559 8.7650225417341865 #
straight-curve $-1 -21.15768066234488 -26.735380332756911 8.7650225417341865 -1 0 0 I I #
point $-1 -28.200922610068833 -26.735380332756911 8.7650225417341865 #
point $-1 -48.364406488098723 -27.569188318675451 -3.0167947128995936 #
point $-1 -36.266316161280784 -27.569188318675451 -3.0167947128995936 #
straight-curve $-1 43.303621080278816 -58.148972903034974 8.7650225417341829 0 1 0 I I #
point $-1 43.303621080278816 -38.363364718022559 8.7650225417341865 #
straight-curve $-1 14.594591182828943 -26.735380332756911 8.7650225417341865 -1 0 0 I I #
point $-1 43.303621080278816 -26.735380332756911 8.7650225417341865 #
point $-1 23.140137202248923 -27.569188318675451 -3.0167947128995936 #
point $-1 35.238227529066862 -27.569188318675451 -3.0167947128995936 #
straight-curve $-1 -15.126496540184615 38.363364718022559 74.613789712190936 0 0 -1 I I #
point $-1 -15.126496540184615 38.363364718022559 8.7650225417341865 #
straight-curve $-1 -12.718833453222615 38.363364718022552 3.9732506503488771 -1 0 0 I I #
point $-1 -15.126496540184615 38.363364718022559 3.9732506503488736 #
point $-1 -31.6243691262016 34.82805563446535 5.0955320274769429 #
point $-1 -25.43766690644523 34.82805563446535 5.0955320274769429 #
point $-1 -19.25096468668886 34.82805563446535 5.0955320274769429 #
straight-curve $-1 -75.659047212134155 0 -8.7650225417341865 0 1 0 I I #
point $-1 -75.659047212134155 -38.363364718022559 -8.7650225417341865 #
point $-1 -75.659047212134155 38.363364718022559 -8.7650225417341865 #
End-of-ACIS-data 