500 0 7 0           
7 Unknown 11 ACIS 5.0 NT 24 Thu Mar 25 17:07:50 1999 
-1 9.9999999999999995e-007 1e-010 
body $-1 $7 $-1 $8 #
body $-1 $9 $-1 $10 #
body $-1 $11 $-1 $12 #
body $-1 $13 $-1 $14 #
body $-1 $15 $-1 $16 #
body $-1 $17 $-1 $18 #
body $-1 $19 $-1 $20 #
lump $-1 $-1 $21 $0 #
transform $-1 1 0 0 0 1 0 0 0 1 43.140964995269634 24.758229451782185 7.8961577520952346 1 rotate no_reflect no_shear #
lump $-1 $-1 $22 $1 #
transform $-1 1 0 0 0 1 0 0 0 1 43.140964995269634 24.758229451782185 7.8961577520952346 1 rotate no_reflect no_shear #
lump $-1 $-1 $23 $2 #
transform $-1 1 0 0 0 1 0 0 0 1 43.140964995269634 24.758229451782185 7.8961577520952346 1 rotate no_reflect no_shear #
lump $-1 $-1 $24 $3 #
transform $-1 1 0 0 0 1 0 0 0 1 43.140964995269634 24.758229451782185 7.8961577520952346 1 rotate no_reflect no_shear #
lump $-1 $-1 $25 $4 #
transform $-1 1 0 0 0 1 0 0 0 1 43.140964995269634 24.758229451782185 7.8961577520952346 1 rotate no_reflect no_shear #
lump $-1 $-1 $26 $5 #
transform $-1 1 0 0 0 1 0 0 0 1 43.140964995269634 24.758229451782185 7.8961577520952346 1 rotate no_reflect no_shear #
lump $-1 $-1 $27 $6 #
transform $-1 1 0 0 0 1 0 0 0 1 43.140964995269634 24.758229451782185 7.8961577520952346 1 rotate no_reflect no_shear #
shell $-1 $-1 $-1 $28 $-1 $7 #
shell $-1 $-1 $-1 $29 $-1 $9 #
shell $-1 $-1 $-1 $30 $-1 $11 #
shell $-1 $-1 $-1 $31 $-1 $13 #
shell $-1 $-1 $-1 $32 $-1 $15 #
shell $-1 $-1 $-1 $33 $-1 $17 #
shell $-1 $-1 $-1 $34 $-1 $19 #
face $-1 $35 $36 $21 $-1 $37 forward single #
face $-1 $38 $39 $22 $-1 $40 reversed single #
face $-1 $41 $42 $23 $-1 $43 forward single #
face $-1 $44 $45 $24 $-1 $46 forward single #
face $-1 $47 $48 $25 $-1 $49 reversed single #
face $-1 $50 $51 $26 $-1 $52 forward single #
face $-1 $53 $54 $27 $-1 $55 forward single #
face $-1 $56 $57 $21 $-1 $58 reversed single #
loop $-1 $-1 $59 $28 #
plane-surface $-1 0 0 7.8961577520952346 0 0 1 1 0 0 forward_v I I I I #
face $-1 $60 $61 $22 $-1 $62 reversed single #
loop $-1 $-1 $63 $29 #
plane-surface $-1 -22.953700302866615 -91.811883604650447 54.787890525511706 -1 0 0 0 -0.77714596973225614 0.62932038083071107 forward_v I I I I #
face $-1 $64 $65 $23 $-1 $66 forward single #
loop $-1 $67 $68 $30 #
cone-surface $-1 -37.373175083154486 -20.178862687291211 2.9128883819082216 0 0.77714596973225614 -0.62932038083071107 1.5 0 0 1 I I 0 1 1.5 forward I I I I #
face $-1 $69 $70 $24 $-1 $71 forward single #
loop $-1 $72 $73 $31 #
cone-surface $-1 -28.721490214981763 -20.178862687291211 2.9128883819082216 0 0.77714596973225614 -0.62932038083071107 1.5 0 0 1 I I 0 1 1.5 forward I I I I #
face $-1 $74 $75 $25 $-1 $76 reversed single #
loop $-1 $-1 $77 $32 #
plane-surface $-1 33.047332649068117 -24.758229451782185 0.48891348505679133 0 -0.77714596973225614 0.62932038083071107 1 0 0 forward_v I I I I #
face $-1 $78 $79 $26 $-1 $80 forward single #
loop $-1 $81 $82 $33 #
cone-surface $-1 28.721490214981763 -20.178862687291211 2.9128883819082216 0 0.77714596973225614 -0.62932038083071107 1.5 0 0 1 I I 0 1 1.5 forward I I I I #
face $-1 $83 $84 $27 $-1 $85 forward single #
loop $-1 $86 $87 $34 #
cone-surface $-1 37.373175083154486 -20.178862687291211 2.9128883819082216 0 0.77714596973225614 -0.62932038083071107 1.5 0 0 1 I I 0 1 1.5 forward I I I I #
face $-1 $88 $89 $21 $-1 $90 reversed single #
loop $-1 $-1 $91 $35 #
plane-surface $-1 0 0 -7.8961577520952346 0 0 1 1 0 0 forward_v I I I I #
coedge $-1 $92 $93 $94 $95 forward $36 $-1 #
face $-1 $96 $97 $22 $-1 $98 forward single #
loop $-1 $-1 $99 $38 #
plane-surface $-1 -33.047332649068125 -24.758229451782185 0.48891348505679133 0 -0.77714596973225614 0.62932038083071107 1 0 0 forward_v I I I I #
coedge $-1 $100 $101 $102 $103 reversed $39 $-1 #
face $-1 $-1 $104 $23 $-1 $105 forward single #
loop $-1 $106 $107 $41 #
cone-surface $-1 -37.373175083154486 -18.015770433575859 1.1612508596174003 0 0.77714596973225614 -0.62932038083071107 0.75 0 0 1 I I -0.70710678118654757 0.70710678118654757 0.75 forward I I I I #
loop $-1 $-1 $108 $30 #
coedge $-1 $68 $68 $109 $110 reversed $42 $-1 #
face $-1 $-1 $111 $24 $-1 $112 forward single #
loop $-1 $113 $114 $44 #
cone-surface $-1 -28.721490214981763 -18.015770433575859 1.1612508596174003 0 0.77714596973225614 -0.62932038083071107 0.75 0 0 1 I I -0.70710678118654757 0.70710678118654757 0.75 forward I I I I #
loop $-1 $-1 $115 $31 #
coedge $-1 $73 $73 $116 $117 reversed $45 $-1 #
face $-1 $118 $119 $25 $-1 $120 reversed single #
loop $-1 $-1 $121 $47 #
plane-surface $-1 22.953700302866608 -91.811883604650447 54.787890525511706 1 0 0 0 0.77714596973225614 -0.62932038083071107 forward_v I I I I #
coedge $-1 $122 $123 $124 $125 reversed $48 $-1 #
face $-1 $-1 $126 $26 $-1 $127 forward single #
loop $-1 $128 $129 $50 #
cone-surface $-1 28.721490214981763 -18.015770433575859 1.1612508596174003 0 0.77714596973225614 -0.62932038083071107 0.75 0 0 1 I I -0.70710678118654757 0.70710678118654757 0.75 forward I I I I #
loop $-1 $-1 $130 $33 #
coedge $-1 $82 $82 $131 $132 reversed $51 $-1 #
face $-1 $-1 $133 $27 $-1 $134 forward single #
loop $-1 $135 $136 $53 #
cone-surface $-1 37.373175083154486 -18.015770433575859 1.1612508596174003 0 0.77714596973225614 -0.62932038083071107 0.75 0 0 1 I I -0.70710678118654757 0.70710678118654757 0.75 forward I I I I #
loop $-1 $-1 $137 $34 #
coedge $-1 $87 $87 $138 $139 reversed $54 $-1 #
face $-1 $140 $141 $21 $-1 $142 reversed single #
loop $-1 $-1 $143 $56 #
plane-surface $-1 0 -24.758229451782185 0 0 1 0 0 0 1 forward_v I I I I #
coedge $-1 $144 $145 $146 $147 forward $57 $-1 #
coedge $-1 $148 $59 $149 $150 forward $36 $-1 #
coedge $-1 $59 $148 $151 $152 forward $36 $-1 #
coedge $-1 $153 $154 $59 $95 reversed $155 $-1 #
edge $-1 $156 -24.758229451782185 $157 24.758229451782185 $94 $158 forward 7 unknown #
face $-1 $159 $160 $22 $-1 $161 reversed single #
loop $-1 $-1 $102 $60 #
plane-surface $-1 0 0 7.8961577520952346 0 0 1 1 0 0 forward_v I I I I #
coedge $-1 $162 $163 $164 $165 reversed $61 $-1 #
coedge $-1 $101 $63 $166 $167 reversed $39 $-1 #
coedge $-1 $63 $100 $162 $168 reversed $39 $-1 #
coedge $-1 $164 $169 $63 $103 forward $97 $-1 #
edge $-1 $170 21.147712350543038 $171 27.145980326692658 $102 $172 forward 7 unknown #
loop $-1 $-1 $109 $64 #
plane-surface $-1 -33.047332649068125 -24.758229451782185 0.48891348505679133 0 -0.77714596973225614 0.62932038083071107 1 0 0 forward_v I I I I #
loop $-1 $-1 $173 $41 #
coedge $-1 $107 $107 $108 $174 reversed $65 $-1 #
coedge $-1 $108 $108 $107 $174 forward $67 $-1 #
coedge $-1 $109 $109 $68 $110 forward $104 $-1 #
edge $-1 $175 1.1004152500390543e-016 $175 6.2831853071796004 $109 $176 forward 7 unknown #
loop $-1 $-1 $116 $69 #
plane-surface $-1 -33.047332649068125 -24.758229451782185 0.48891348505679133 0 -0.77714596973225614 0.62932038083071107 1 0 0 forward_v I I I I #
loop $-1 $-1 $177 $44 #
coedge $-1 $114 $114 $115 $178 reversed $70 $-1 #
coedge $-1 $115 $115 $114 $178 forward $72 $-1 #
coedge $-1 $116 $116 $73 $117 forward $111 $-1 #
edge $-1 $179 1.1004152500390543e-016 $179 6.2831853071796004 $116 $180 forward 7 unknown #
face $-1 $181 $182 $25 $-1 $183 forward single #
loop $-1 $-1 $184 $74 #
plane-surface $-1 43.140964995269634 0 0 -1 0 0 0 0 1 forward_v I I I I #
coedge $-1 $185 $186 $187 $188 reversed $75 $-1 #
coedge $-1 $189 $77 $184 $190 reversed $48 $-1 #
coedge $-1 $77 $189 $185 $191 forward $48 $-1 #
coedge $-1 $187 $192 $77 $125 forward $182 $-1 #
edge $-1 $193 -26.617298670735568 $194 -6.4300339783325491 $124 $195 forward 7 unknown #
loop $-1 $-1 $131 $78 #
plane-surface $-1 33.047332649068117 -24.758229451782185 0.48891348505679133 0 -0.77714596973225614 0.62932038083071107 1 0 0 forward_v I I I I #
loop $-1 $-1 $196 $50 #
coedge $-1 $129 $129 $130 $197 reversed $79 $-1 #
coedge $-1 $130 $130 $129 $197 forward $81 $-1 #
coedge $-1 $131 $131 $82 $132 forward $126 $-1 #
edge $-1 $198 1.1004152500390543e-016 $198 6.2831853071796004 $131 $199 forward 7 unknown #
loop $-1 $-1 $138 $83 #
plane-surface $-1 33.047332649068117 -24.758229451782185 0.48891348505679133 0 -0.77714596973225614 0.62932038083071107 1 0 0 forward_v I I I I #
loop $-1 $-1 $200 $53 #
coedge $-1 $136 $136 $137 $201 reversed $84 $-1 #
coedge $-1 $137 $137 $136 $201 forward $86 $-1 #
coedge $-1 $138 $138 $87 $139 forward $133 $-1 #
edge $-1 $202 1.1004152500390543e-016 $202 6.2831853071796004 $138 $203 forward 7 unknown #
face $-1 $204 $205 $21 $-1 $206 reversed single #
loop $-1 $-1 $207 $88 #
plane-surface $-1 -43.140964995269634 0 0 1 0 0 0 0 -1 forward_v I I I I #
coedge $-1 $208 $151 $209 $210 forward $89 $-1 #
coedge $-1 $211 $91 $208 $212 forward $57 $-1 #
coedge $-1 $91 $211 $213 $214 forward $57 $-1 #
coedge $-1 $154 $153 $91 $147 reversed $155 $-1 #
edge $-1 $215 -24.758229451782185 $216 24.758229451782185 $146 $217 forward 7 unknown #
coedge $-1 $93 $92 $218 $219 forward $36 $-1 #
coedge $-1 $220 $221 $92 $150 reversed $205 $-1 #
edge $-1 $157 -43.140964995269634 $222 43.140964995269634 $149 $223 forward 7 unknown #
coedge $-1 $143 $224 $93 $152 reversed $89 $-1 #
edge $-1 $225 -43.140964995269634 $156 43.140964995269634 $151 $226 forward 7 unknown #
coedge $-1 $146 $94 $224 $227 forward $155 $-1 #
coedge $-1 $94 $146 $220 $228 reversed $155 $-1 #
loop $-1 $-1 $153 $204 #
vertex $-1 $95 $229 #
vertex $-1 $95 $230 #
straight-curve $-1 43.140964995269634 0 7.8961577520952346 0 1 0 I I #
face $-1 $-1 $231 $22 $-1 $232 reversed single #
loop $-1 $-1 $233 $96 #
plane-surface $-1 -43.140964995269634 0 0 1 0 0 0 0 -1 forward_v I I I I #
coedge $-1 $234 $99 $101 $168 forward $61 $-1 #
coedge $-1 $99 $234 $233 $235 reversed $61 $-1 #
coedge $-1 $236 $102 $99 $165 forward $97 $-1 #
edge $-1 $171 6.4300339783325526 $237 26.617298670735572 $164 $238 forward 7 unknown #
coedge $-1 $239 $240 $100 $167 forward $231 $-1 #
edge $-1 $241 -26.905031777699062 $170 -19.497787510660618 $166 $242 forward 7 unknown #
edge $-1 $171 -9.5313423160264232 $241 0 $101 $243 forward 7 unknown #
coedge $-1 $102 $236 $239 $244 forward $97 $-1 #
vertex $-1 $167 $245 #
vertex $-1 $103 $246 #
straight-curve $-1 -22.953700302866615 -45.905941802325223 7.8961577520952346 0 1 0 I I #
coedge $-1 $173 $173 $-1 $247 reversed $106 $-1 #
edge $-1 $248 0 $248 6.2831853071796004 $107 $249 forward 7 unknown #
vertex $-1 $110 $250 #
ellipse-curve $-1 -37.373175083154486 -21.759095463707375 4.1925356185760121 0 -0.77714596973225614 0.62932038083071107 1.5 0 0 1 I I #
coedge $-1 $177 $177 $-1 $251 reversed $113 $-1 #
edge $-1 $252 0 $252 6.2831853071796004 $114 $253 forward 7 unknown #
vertex $-1 $117 $254 #
ellipse-curve $-1 -28.721490214981763 -21.759095463707375 4.1925356185760121 0 -0.77714596973225614 0.62932038083071107 1.5 0 0 1 I I #
face $-1 $-1 $255 $25 $-1 $256 reversed single #
loop $-1 $-1 $124 $118 #
plane-surface $-1 0 0 7.8961577520952346 0 0 1 1 0 0 forward_v I I I I #
coedge $-1 $257 $258 $122 $190 forward $119 $-1 #
coedge $-1 $186 $121 $123 $191 reversed $75 $-1 #
coedge $-1 $121 $185 $259 $260 reversed $75 $-1 #
coedge $-1 $261 $124 $121 $188 forward $182 $-1 #
edge $-1 $194 -27.145980326692658 $262 -21.147712350543038 $187 $263 forward 7 unknown #
coedge $-1 $123 $122 $264 $265 reversed $48 $-1 #
edge $-1 $266 -7.6004506214150274 $193 1.9308916946113952 $184 $267 forward 7 unknown #
edge $-1 $268 0 $194 9.5313423160264232 $185 $269 forward 7 unknown #
coedge $-1 $124 $261 $257 $270 forward $182 $-1 #
vertex $-1 $125 $271 #
vertex $-1 $125 $272 #
straight-curve $-1 16.523666324534059 -18.759961475632565 7.8961577520952346 -1 0 0 I I #
coedge $-1 $196 $196 $-1 $273 reversed $128 $-1 #
edge $-1 $274 0 $274 6.2831853071796004 $129 $275 forward 7 unknown #
vertex $-1 $132 $276 #
ellipse-curve $-1 28.721490214981763 -21.759095463707375 4.1925356185760121 0 -0.77714596973225614 0.62932038083071107 1.5 0 0 1 I I #
coedge $-1 $200 $200 $-1 $277 reversed $135 $-1 #
edge $-1 $278 0 $278 6.2831853071796004 $136 $279 forward 7 unknown #
vertex $-1 $139 $280 #
ellipse-curve $-1 37.373175083154486 -21.759095463707375 4.1925356185760121 0 -0.77714596973225614 0.62932038083071107 1.5 0 0 1 I I #
face $-1 $-1 $155 $21 $-1 $281 reversed single #
loop $-1 $-1 $220 $140 #
plane-surface $-1 0 24.758229451782185 0 0 -1 0 0 0 -1 forward_v I I I I #
coedge $-1 $282 $218 $221 $283 forward $141 $-1 #
coedge $-1 $224 $143 $144 $212 reversed $89 $-1 #
coedge $-1 $218 $282 $143 $210 reversed $141 $-1 #
edge $-1 $225 -7.8961577520952346 $284 7.8961577520952346 $209 $285 forward 7 unknown #
coedge $-1 $145 $144 $282 $286 forward $57 $-1 #
edge $-1 $216 -43.140964995269634 $284 43.140964995269634 $208 $287 forward 7 unknown #
coedge $-1 $221 $220 $145 $214 reversed $205 $-1 #
edge $-1 $288 -43.140964995269634 $215 43.140964995269634 $213 $289 forward 7 unknown #
vertex $-1 $147 $290 #
vertex $-1 $227 $291 #
straight-curve $-1 43.140964995269634 0 -7.8961577520952346 0 -1 0 I I #
coedge $-1 $207 $209 $148 $219 reversed $141 $-1 #
edge $-1 $222 -24.758229451782185 $225 24.758229451782185 $218 $292 forward 7 unknown #
coedge $-1 $213 $149 $154 $228 forward $205 $-1 #
coedge $-1 $149 $213 $207 $283 reversed $205 $-1 #
vertex $-1 $150 $293 #
straight-curve $-1 0 24.758229451782185 7.8961577520952346 -1 0 0 I I #
coedge $-1 $151 $208 $153 $227 reversed $89 $-1 #
vertex $-1 $219 $294 #
straight-curve $-1 0 -24.758229451782185 7.8961577520952346 1 0 0 I I #
edge $-1 $156 -7.8961577520952346 $216 7.8961577520952346 $153 $295 forward 7 unknown #
edge $-1 $157 -7.8961577520952346 $215 7.8961577520952346 $154 $296 forward 7 unknown #
point $-1 43.140964995269634 -24.758229451782185 7.8961577520952346 #
point $-1 43.140964995269634 24.758229451782185 7.8961577520952346 #
loop $-1 $-1 $166 $159 #
plane-surface $-1 0 -24.758229451782185 0 0 1 0 0 0 1 forward_v I I I I #
coedge $-1 $297 $298 $163 $235 forward $160 $-1 #
coedge $-1 $163 $162 $240 $299 reversed $61 $-1 #
edge $-1 $237 -1.9308916946113952 $300 7.6004506214150274 $233 $301 forward 7 unknown #
coedge $-1 $169 $164 $298 $302 forward $97 $-1 #
vertex $-1 $302 $303 #
straight-curve $-1 -16.523666324534062 -18.759961475632565 7.8961577520952346 -1 0 0 I I #
coedge $-1 $304 $166 $169 $244 reversed $231 $-1 #
coedge $-1 $166 $304 $234 $299 forward $231 $-1 #
vertex $-1 $167 $305 #
straight-curve $-1 -22.953700302866615 -24.758229451782185 27.393945262755853 0 0 1 I I #
straight-curve $-1 -22.953700302866615 -24.758229451782185 0.48891348505679133 0 -0.62932038083071107 -0.77714596973225614 I I #
edge $-1 $306 -43.140964995269634 $170 -22.953700302866615 $239 $307 forward 7 unknown #
point $-1 -22.953700302866615 -24.758229451782185 7.8961577520952346 #
point $-1 -22.953700302866615 -18.759961475632565 7.8961577520952337 #
edge $-1 $308 1 $308 0 $173 $-1 forward 7 unknown #
vertex $-1 $174 $309 #
ellipse-curve $-1 -37.373175083154486 -18.598629910875051 1.6332411452404336 0 -0.77714596973225614 0.62932038083071107 1.5 0 0 1 I I #
point $-1 -35.873175083154486 -21.759095463707371 4.1925356185760094 #
edge $-1 $310 1 $310 0 $177 $-1 forward 7 unknown #
vertex $-1 $178 $311 #
ellipse-curve $-1 -28.721490214981763 -18.598629910875051 1.6332411452404336 0 -0.77714596973225614 0.62932038083071107 1.5 0 0 1 I I #
point $-1 -27.221490214981763 -21.759095463707371 4.1925356185760094 #
loop $-1 $-1 $264 $181 #
plane-surface $-1 0 -24.758229451782185 0 0 1 0 0 0 1 forward_v I I I I #
coedge $-1 $258 $184 $192 $270 reversed $119 $-1 #
coedge $-1 $184 $257 $312 $313 forward $119 $-1 #
coedge $-1 $264 $314 $186 $260 forward $255 $-1 #
edge $-1 $262 19.497787510660618 $268 26.905031777699062 $259 $315 forward 7 unknown #
coedge $-1 $192 $187 $314 $316 forward $182 $-1 #
vertex $-1 $316 $317 #
straight-curve $-1 22.953700302866608 -45.905941802325223 7.8961577520952346 0 -1 0 I I #
coedge $-1 $312 $259 $189 $265 forward $255 $-1 #
edge $-1 $268 6.4300339783325491 $266 26.617298670735568 $264 $318 forward 7 unknown #
vertex $-1 $265 $319 #
straight-curve $-1 43.140964995269634 -19.975110972228265 6.3955730536385014 0 0.62932038083071107 0.77714596973225614 I I #
vertex $-1 $265 $320 #
straight-curve $-1 22.953700302866608 -24.758229451782185 0.48891348505679133 0 0.62932038083071107 0.77714596973225614 I I #
edge $-1 $321 -24.758229451782185 $193 -18.759961475632565 $257 $322 forward 7 unknown #
point $-1 43.140964995269627 -18.759961475632565 7.8961577520952337 #
point $-1 22.953700302866608 -18.759961475632565 7.8961577520952337 #
edge $-1 $323 1 $323 0 $196 $-1 forward 7 unknown #
vertex $-1 $197 $324 #
ellipse-curve $-1 28.721490214981763 -18.598629910875051 1.6332411452404336 0 -0.77714596973225614 0.62932038083071107 1.5 0 0 1 I I #
point $-1 30.221490214981763 -21.759095463707371 4.1925356185760094 #
edge $-1 $325 1 $325 0 $200 $-1 forward 7 unknown #
vertex $-1 $201 $326 #
ellipse-curve $-1 37.373175083154486 -18.598629910875051 1.6332411452404336 0 -0.77714596973225614 0.62932038083071107 1.5 0 0 1 I I #
point $-1 38.873175083154486 -21.759095463707371 4.1925356185760094 #
plane-surface $-1 43.140964995269634 0 0 -1 0 0 0 0 1 forward_v I I I I #
coedge $-1 $209 $207 $211 $286 reversed $141 $-1 #
edge $-1 $222 -7.8961577520952346 $288 7.8961577520952346 $221 $327 forward 7 unknown #
vertex $-1 $286 $328 #
straight-curve $-1 -43.140964995269634 -24.758229451782185 0 0 0 -1 I I #
edge $-1 $284 -24.758229451782185 $288 24.758229451782185 $282 $329 forward 7 unknown #
straight-curve $-1 0 -24.758229451782185 -7.8961577520952346 -1 0 0 I I #
vertex $-1 $214 $330 #
straight-curve $-1 0 24.758229451782185 -7.8961577520952346 1 0 0 I I #
point $-1 43.140964995269634 24.758229451782185 -7.8961577520952346 #
point $-1 43.140964995269634 -24.758229451782185 -7.8961577520952346 #
straight-curve $-1 -43.140964995269634 0 7.8961577520952346 0 -1 0 I I #
point $-1 -43.140964995269634 24.758229451782185 7.8961577520952346 #
point $-1 -43.140964995269634 -24.758229451782185 7.8961577520952346 #
straight-curve $-1 43.140964995269634 -24.758229451782185 0 0 0 -1 I I #
straight-curve $-1 43.140964995269634 24.758229451782185 0 0 0 -1 I I #
coedge $-1 $298 $233 $304 $331 reversed $160 $-1 #
coedge $-1 $233 $297 $236 $302 reversed $160 $-1 #
edge $-1 $300 -26.617298670735572 $241 -6.4300339783325526 $240 $332 forward 7 unknown #
vertex $-1 $235 $333 #
straight-curve $-1 -43.140964995269634 -19.975110972228265 6.3955730536385014 0 -0.62932038083071107 -0.77714596973225614 I I #
edge $-1 $237 18.759961475632565 $306 24.758229451782185 $298 $334 forward 7 unknown #
point $-1 -43.140964995269634 -18.759961475632565 7.8961577520952337 #
coedge $-1 $240 $239 $297 $331 forward $231 $-1 #
point $-1 -22.953700302866615 -24.758229451782185 0.48891348505679133 #
vertex $-1 $302 $335 #
straight-curve $-1 0 -24.758229451782185 7.8961577520952346 1 0 0 I I #
vertex $-1 $247 $336 #
point $-1 -35.873175083154486 -18.598629910875051 1.6332411452404336 #
vertex $-1 $251 $337 #
point $-1 -27.221490214981763 -18.598629910875051 1.6332411452404336 #
coedge $-1 $314 $264 $258 $313 reversed $255 $-1 #
edge $-1 $321 -7.8961577520952346 $266 -0.48891348505679133 $258 $338 forward 7 unknown #
coedge $-1 $259 $312 $261 $316 reversed $255 $-1 #
straight-curve $-1 22.953700302866608 -24.758229451782185 27.393945262755853 0 0 -1 I I #
edge $-1 $262 22.953700302866608 $321 43.140964995269634 $314 $339 forward 7 unknown #
point $-1 22.953700302866608 -24.758229451782185 7.8961577520952346 #
straight-curve $-1 16.523666324534059 -24.758229451782185 0.488913485056793 1 0 0 I I #
point $-1 43.140964995269627 -24.758229451782185 0.48891348505679133 #
point $-1 22.953700302866608 -24.758229451782185 0.48891348505679133 #
vertex $-1 $270 $340 #
straight-curve $-1 43.140964995269634 0 7.8961577520952346 0 1 0 I I #
vertex $-1 $273 $341 #
point $-1 30.221490214981763 -18.598629910875051 1.6332411452404336 #
vertex $-1 $277 $342 #
point $-1 38.873175083154486 -18.598629910875051 1.6332411452404336 #
straight-curve $-1 -43.140964995269634 24.758229451782185 0 0 0 -1 I I #
point $-1 -43.140964995269634 -24.758229451782185 -7.8961577520952346 #
straight-curve $-1 -43.140964995269634 0 -7.8961577520952346 0 1 0 I I #
point $-1 -43.140964995269634 24.758229451782185 -7.8961577520952346 #
edge $-1 $306 -7.8961577520952346 $300 -0.48891348505679133 $297 $343 forward 7 unknown #
straight-curve $-1 -16.523666324534062 -24.758229451782185 0.488913485056793 1 0 0 I I #
point $-1 -43.140964995269634 -24.758229451782185 0.48891348505679133 #
straight-curve $-1 -43.140964995269634 0 7.8961577520952346 0 -1 0 I I #
point $-1 -43.140964995269634 -24.758229451782185 7.8961577520952346 #
point $-1 -37.373175083154486 -17.432910956276668 0.68926057399436691 #
point $-1 -28.721490214981763 -17.432910956276668 0.68926057399436691 #
straight-curve $-1 43.140964995269634 -24.758229451782185 0 0 0 -1 I I #
straight-curve $-1 0 -24.758229451782185 7.8961577520952346 1 0 0 I I #
point $-1 43.140964995269634 -24.758229451782185 7.8961577520952346 #
point $-1 28.721490214981763 -17.432910956276668 0.68926057399436691 #
point $-1 37.373175083154486 -17.432910956276668 0.68926057399436691 #
straight-curve $-1 -43.140964995269634 -24.758229451782185 0 0 0 -1 I I #
End-of-ACIS-data 