500 0 6 0           
7 Unknown 11 ACIS 5.0 NT 24 Fri Mar 26 14:36:28 1999 
-1 9.9999999999999995e-007 1e-010 
body $-1 $6 $-1 $7 #
body $-1 $8 $-1 $9 #
body $-1 $10 $-1 $11 #
body $-1 $12 $-1 $13 #
body $-1 $14 $-1 $15 #
body $-1 $16 $-1 $17 #
lump $-1 $-1 $18 $0 #
transform $-1 1 0 0 0 1 0 0 0 1 57.965636158330028 39.541065793248606 9.8240246779637115 1 rotate no_reflect no_shear #
lump $-1 $-1 $19 $1 #
transform $-1 1 0 0 0 1 0 0 0 1 57.965636158330028 39.541065793248606 9.8240246779637115 1 rotate no_reflect no_shear #
lump $-1 $-1 $20 $2 #
transform $-1 1 0 0 0 1 0 0 0 1 57.965636158330028 39.541065793248606 9.8240246779637115 1 rotate no_reflect no_shear #
lump $-1 $-1 $21 $3 #
transform $-1 1 0 0 0 1 0 0 0 1 57.965636158330028 39.541065793248606 9.8240246779637115 1 rotate no_reflect no_shear #
lump $-1 $-1 $22 $4 #
transform $-1 1 0 0 0 1 0 0 0 1 57.965636158330028 39.541065793248606 9.8240246779637115 1 rotate no_reflect no_shear #
lump $-1 $-1 $23 $5 #
transform $-1 1 0 0 0 1 0 0 0 1 57.965636158330028 39.541065793248606 9.8240246779637115 1 rotate no_reflect no_shear #
shell $-1 $-1 $-1 $24 $-1 $6 #
shell $-1 $-1 $-1 $25 $-1 $8 #
shell $-1 $-1 $-1 $26 $-1 $10 #
shell $-1 $-1 $-1 $27 $-1 $12 #
shell $-1 $-1 $-1 $28 $-1 $14 #
shell $-1 $-1 $-1 $29 $-1 $16 #
face $-1 $30 $31 $18 $-1 $32 forward single #
face $-1 $33 $34 $19 $-1 $35 forward single #
face $-1 $36 $37 $20 $-1 $38 reversed single #
face $-1 $39 $40 $21 $-1 $41 forward single #
face $-1 $42 $43 $22 $-1 $44 reversed single #
face $-1 $45 $46 $23 $-1 $47 forward single #
face $-1 $48 $49 $18 $-1 $50 reversed single #
loop $-1 $-1 $51 $24 #
plane-surface $-1 0 0 9.8240246779637115 0 0 1 1 0 0 forward_v I I I I #
face $-1 $52 $53 $19 $-1 $54 reversed single #
loop $-1 $-1 $55 $25 #
plane-surface $-1 0 -39.541065793248606 0 0 1 0 0 0 1 forward_v I I I I #
face $-1 $56 $57 $20 $-1 $58 reversed single #
loop $-1 $-1 $59 $26 #
plane-surface $-1 49.38507533940043 25.678086226581421 166.21183489264072 0 1 0 0.66913061440640931 0 0.74314481823134659 forward_v I I I I #
face $-1 $60 $61 $21 $-1 $62 forward single #
loop $-1 $63 $64 $27 #
cone-surface $-1 51.374492444205316 32.609576009915017 3.3605090471442454 -0.66913061440640931 0 -0.74314481823134659 1.4862896364626932 0 -1.3382612288128186 1 I I 0 1 2 forward I I I I #
face $-1 $65 $66 $22 $-1 $67 reversed single #
loop $-1 $-1 $68 $28 #
plane-surface $-1 -135.53879963249352 25.678086226581421 88.638671418477244 0 1 0 -0.66913061440640931 0 0.74314481823134659 forward_v I I I I #
face $-1 $69 $70 $23 $-1 $71 forward single #
loop $-1 $72 $73 $29 #
cone-surface $-1 -51.374492444205316 32.609576009915017 3.3605090471442525 0.66913061440640931 0 -0.74314481823134659 1.4862896364626932 0 1.3382612288128186 1 I I 0 1 2 forward I I I I #
face $-1 $74 $75 $18 $-1 $76 reversed single #
loop $-1 $-1 $77 $30 #
plane-surface $-1 0 0 -9.8240246779637115 0 0 1 1 0 0 forward_v I I I I #
coedge $-1 $78 $79 $80 $81 forward $31 $-1 #
face $-1 $82 $83 $19 $-1 $84 forward single #
loop $-1 $-1 $85 $33 #
plane-surface $-1 -57.965636158330028 0 0 1 0 0 0 0 -1 forward_v I I I I #
coedge $-1 $86 $87 $88 $89 forward $34 $-1 #
face $-1 $90 $91 $20 $-1 $92 forward single #
loop $-1 $-1 $93 $36 #
plane-surface $-1 -28.188088134763063 32.609576009915003 80.058110599547646 0.66913061440640931 0 0.74314481823134659 0.74314481823134659 0 -0.66913061440640931 forward_v I I I I #
coedge $-1 $94 $95 $96 $97 reversed $37 $-1 #
face $-1 $-1 $98 $21 $-1 $99 forward single #
loop $-1 $100 $101 $39 #
cone-surface $-1 48.189653715520251 32.609576009915017 -0.17661262561678903 -0.66913061440640931 0 -0.74314481823134659 0.74314481823134659 0 -0.66913061440640931 1 I I -0.70710678118654746 0.70710678118654746 1 forward I I I I #
loop $-1 $-1 $102 $27 #
coedge $-1 $64 $64 $103 $104 reversed $40 $-1 #
face $-1 $105 $106 $22 $-1 $107 reversed single #
loop $-1 $-1 $108 $42 #
plane-surface $-1 -57.965636158330028 32.609576009915003 2.4849471253841671 -0.66913061440640931 0 0.74314481823134659 0.74314481823134659 0 0.66913061440640931 forward_v I I I I #
coedge $-1 $109 $110 $111 $112 reversed $43 $-1 #
face $-1 $-1 $113 $23 $-1 $114 forward single #
loop $-1 $115 $116 $45 #
cone-surface $-1 -48.189653715520251 32.609576009915017 -0.17661262561678193 0.66913061440640931 0 -0.74314481823134659 0.74314481823134659 0 0.66913061440640931 1 I I -0.70710678118654746 0.70710678118654746 1 forward I I I I #
loop $-1 $-1 $117 $29 #
coedge $-1 $73 $73 $118 $119 reversed $46 $-1 #
face $-1 $120 $121 $18 $-1 $122 reversed single #
loop $-1 $-1 $123 $48 #
plane-surface $-1 0 -39.541065793248606 0 0 1 0 0 0 1 forward_v I I I I #
coedge $-1 $124 $125 $126 $127 forward $49 $-1 #
coedge $-1 $128 $51 $129 $130 forward $31 $-1 #
coedge $-1 $51 $128 $131 $132 forward $31 $-1 #
coedge $-1 $133 $134 $51 $81 reversed $135 $-1 #
edge $-1 $136 -39.541065793248606 $137 39.541065793248606 $80 $138 forward 7 unknown #
face $-1 $139 $140 $19 $-1 $141 reversed single #
loop $-1 $-1 $142 $52 #
plane-surface $-1 0 -43.981736616788908 9.3240246779637115 0 0 1 1 0 0 forward_v I I I I #
coedge $-1 $143 $144 $87 $145 forward $53 $-1 #
coedge $-1 $146 $55 $147 $148 reversed $34 $-1 #
coedge $-1 $55 $146 $85 $145 reversed $34 $-1 #
coedge $-1 $149 $142 $55 $89 reversed $83 $-1 #
edge $-1 $150 -57.965636158330028 $151 57.965636158330028 $88 $152 forward 7 unknown #
face $-1 $153 $154 $20 $-1 $155 reversed single #
loop $-1 $-1 $156 $56 #
plane-surface $-1 0 0 9.8240246779637115 0 0 1 1 0 0 forward_v I I I I #
coedge $-1 $157 $158 $159 $160 reversed $57 $-1 #
coedge $-1 $95 $59 $161 $162 reversed $37 $-1 #
coedge $-1 $59 $94 $157 $163 reversed $37 $-1 #
coedge $-1 $159 $164 $59 $97 forward $154 $-1 #
edge $-1 $165 73.281892768356656 $166 80.620970320936223 $96 $167 forward 7 unknown #
loop $-1 $-1 $103 $60 #
plane-surface $-1 -28.188088134763063 32.609576009915003 80.058110599547646 0.66913061440640931 0 0.74314481823134659 0.74314481823134659 0 -0.66913061440640931 forward_v I I I I #
loop $-1 $-1 $168 $39 #
coedge $-1 $101 $101 $102 $169 reversed $61 $-1 #
coedge $-1 $102 $102 $101 $169 forward $63 $-1 #
coedge $-1 $103 $103 $64 $104 forward $98 $-1 #
edge $-1 $170 0 $170 6.2831853071796004 $103 $171 forward 7 unknown #
face $-1 $172 $173 $22 $-1 $174 forward single #
loop $-1 $-1 $175 $65 #
plane-surface $-1 0 39.541065793248606 0 0 -1 0 0 0 -1 forward_v I I I I #
coedge $-1 $176 $177 $178 $179 reversed $66 $-1 #
coedge $-1 $110 $68 $180 $181 reversed $43 $-1 #
coedge $-1 $68 $109 $176 $182 reversed $43 $-1 #
coedge $-1 $178 $183 $68 $112 forward $173 $-1 #
edge $-1 $184 9.8037636579167327 $185 17.954634857608831 $111 $186 forward 7 unknown #
loop $-1 $-1 $118 $69 #
plane-surface $-1 -57.965636158330028 32.609576009915003 2.4849471253841671 -0.66913061440640931 0 0.74314481823134659 0.74314481823134659 0 0.66913061440640931 forward_v I I I I #
loop $-1 $-1 $187 $45 #
coedge $-1 $116 $116 $117 $188 reversed $70 $-1 #
coedge $-1 $117 $117 $116 $188 forward $72 $-1 #
coedge $-1 $118 $118 $73 $119 forward $113 $-1 #
edge $-1 $189 0 $189 6.2831853071796004 $118 $190 forward 7 unknown #
face $-1 $191 $192 $18 $-1 $193 reversed single #
loop $-1 $-1 $194 $74 #
plane-surface $-1 -57.965636158330028 0 0 1 0 0 0 0 -1 forward_v I I I I #
coedge $-1 $195 $131 $196 $197 forward $75 $-1 #
coedge $-1 $198 $77 $195 $199 forward $49 $-1 #
coedge $-1 $77 $198 $200 $201 forward $49 $-1 #
coedge $-1 $134 $133 $77 $127 reversed $135 $-1 #
edge $-1 $202 -39.541065793248606 $203 39.541065793248606 $126 $204 forward 7 unknown #
coedge $-1 $79 $78 $205 $206 forward $31 $-1 #
coedge $-1 $207 $208 $78 $130 reversed $192 $-1 #
edge $-1 $137 -57.965636158330028 $209 57.965636158330028 $129 $210 forward 7 unknown #
coedge $-1 $123 $211 $79 $132 reversed $75 $-1 #
edge $-1 $212 -57.965636158330028 $136 57.965636158330028 $131 $213 forward 7 unknown #
coedge $-1 $126 $80 $211 $214 forward $135 $-1 #
coedge $-1 $80 $126 $207 $215 reversed $135 $-1 #
loop $-1 $-1 $133 $191 #
vertex $-1 $81 $216 #
vertex $-1 $81 $217 #
straight-curve $-1 57.965636158330028 0 9.8240246779637115 0 1 0 I I #
face $-1 $218 $219 $19 $-1 $220 reversed single #
loop $-1 $-1 $221 $82 #
plane-surface $-1 0 -43.981736616788908 6.070256856067628 0 0 1 1 0 0 forward_v I I I I #
coedge $-1 $88 $222 $223 $224 forward $83 $-1 #
coedge $-1 $225 $85 $226 $227 reversed $53 $-1 #
coedge $-1 $85 $225 $149 $228 reversed $53 $-1 #
edge $-1 $150 -9.3240246779637115 $229 -6.070256856067628 $85 $230 forward 7 unknown #
coedge $-1 $87 $86 $231 $232 forward $34 $-1 #
coedge $-1 $223 $233 $86 $148 forward $234 $-1 #
edge $-1 $235 6.070256856067628 $151 9.3240246779637115 $147 $236 forward 7 unknown #
coedge $-1 $222 $88 $144 $228 forward $83 $-1 #
vertex $-1 $145 $237 #
vertex $-1 $224 $238 #
straight-curve $-1 0 -39.541065793248606 9.3240246779637115 1 0 0 I I #
face $-1 $-1 $239 $20 $-1 $240 reversed single #
loop $-1 $-1 $96 $90 #
plane-surface $-1 57.965636158330028 0 0 -1 0 0 0 0 1 forward_v I I I I #
coedge $-1 $161 $241 $242 $243 forward $91 $-1 #
coedge $-1 $242 $93 $95 $163 forward $57 $-1 #
coedge $-1 $93 $242 $244 $245 reversed $57 $-1 #
coedge $-1 $246 $96 $93 $160 forward $154 $-1 #
edge $-1 $166 9.3732982216239193 $247 23.236277788291105 $159 $248 forward 7 unknown #
coedge $-1 $249 $156 $94 $162 forward $91 $-1 #
edge $-1 $250 25.122227288937694 $165 33.273098488629813 $161 $251 forward 7 unknown #
edge $-1 $166 -115.93127231666007 $250 -104.96319314860389 $95 $252 forward 7 unknown #
coedge $-1 $96 $246 $249 $253 reversed $154 $-1 #
vertex $-1 $253 $254 #
vertex $-1 $97 $255 #
straight-curve $-1 57.965636158330028 25.678086226581421 83.105917446320362 0 0 -1 I I #
coedge $-1 $168 $168 $-1 $256 reversed $100 $-1 #
edge $-1 $257 0 $257 6.2831853071796004 $101 $258 forward 7 unknown #
vertex $-1 $104 $259 #
ellipse-curve $-1 53.890200558483961 32.609576009915017 6.1544859016739224 0.66913061440640931 0 0.74314481823134659 1.4862896364626932 0 -1.3382612288128186 1 I I #
face $-1 $-1 $260 $22 $-1 $261 reversed single #
loop $-1 $-1 $178 $105 #
plane-surface $-1 0 0 9.8240246779637115 0 0 1 1 0 0 forward_v I I I I #
coedge $-1 $262 $263 $177 $264 forward $106 $-1 #
coedge $-1 $265 $108 $110 $182 forward $66 $-1 #
coedge $-1 $108 $265 $175 $264 reversed $66 $-1 #
coedge $-1 $266 $111 $108 $179 forward $173 $-1 #
edge $-1 $185 9.3732982216239193 $267 23.236277788291083 $178 $268 forward 7 unknown #
coedge $-1 $269 $270 $109 $181 forward $260 $-1 #
edge $-1 $271 -41.834388583854455 $184 -34.495311031274909 $180 $272 forward 7 unknown #
edge $-1 $185 -10.968079168056139 $271 0 $110 $273 forward 7 unknown #
coedge $-1 $111 $266 $269 $274 forward $173 $-1 #
vertex $-1 $181 $275 #
vertex $-1 $112 $276 #
straight-curve $-1 -67.769399816246761 25.678086226581421 9.8240246779637133 1 0 0 I I #
coedge $-1 $187 $187 $-1 $277 reversed $115 $-1 #
edge $-1 $278 0 $278 6.2831853071796004 $116 $279 forward 7 unknown #
vertex $-1 $119 $280 #
ellipse-curve $-1 -53.890200558483976 32.609576009915017 6.1544859016739419 -0.66913061440640931 0 0.74314481823134659 1.4862896364626932 0 1.3382612288128186 1 I I #
face $-1 $-1 $135 $18 $-1 $281 reversed single #
loop $-1 $-1 $207 $120 #
plane-surface $-1 0 39.541065793248606 0 0 -1 0 0 0 -1 forward_v I I I I #
coedge $-1 $282 $205 $208 $283 forward $121 $-1 #
coedge $-1 $211 $123 $124 $199 reversed $75 $-1 #
coedge $-1 $205 $282 $123 $197 reversed $121 $-1 #
edge $-1 $212 -9.8240246779637115 $284 9.8240246779637115 $196 $285 forward 7 unknown #
coedge $-1 $125 $124 $282 $286 forward $49 $-1 #
edge $-1 $203 -57.965636158330028 $284 57.965636158330028 $195 $287 forward 7 unknown #
coedge $-1 $208 $207 $125 $201 reversed $192 $-1 #
edge $-1 $288 -57.965636158330028 $202 57.965636158330028 $200 $289 forward 7 unknown #
vertex $-1 $127 $290 #
vertex $-1 $214 $291 #
straight-curve $-1 57.965636158330028 0 -9.8240246779637115 0 -1 0 I I #
coedge $-1 $194 $196 $128 $206 reversed $121 $-1 #
edge $-1 $209 -39.541065793248606 $212 39.541065793248606 $205 $292 forward 7 unknown #
coedge $-1 $200 $129 $134 $215 forward $192 $-1 #
coedge $-1 $129 $200 $194 $283 reversed $192 $-1 #
vertex $-1 $130 $293 #
straight-curve $-1 0 39.541065793248606 9.8240246779637115 -1 0 0 I I #
coedge $-1 $131 $195 $133 $214 reversed $75 $-1 #
vertex $-1 $206 $294 #
straight-curve $-1 0 -39.541065793248606 9.8240246779637115 1 0 0 I I #
edge $-1 $136 -9.8240246779637115 $203 9.8240246779637115 $133 $295 forward 7 unknown #
edge $-1 $137 -9.8240246779637115 $202 9.8240246779637115 $134 $296 forward 7 unknown #
point $-1 57.965636158330028 -39.541065793248606 9.8240246779637115 #
point $-1 57.965636158330028 39.541065793248606 9.8240246779637115 #
face $-1 $-1 $234 $19 $-1 $297 reversed single #
loop $-1 $-1 $298 $139 #
plane-surface $-1 0 -48.422407440329209 7.6971407670156697 0 1 0 0 0 1 forward_v I I I I #
coedge $-1 $299 $231 $233 $300 forward $140 $-1 #
coedge $-1 $142 $149 $301 $302 forward $83 $-1 #
coedge $-1 $303 $147 $142 $224 reversed $234 $-1 #
edge $-1 $304 -4.4406708235403016 $151 4.4406708235403016 $223 $305 forward 7 unknown #
coedge $-1 $144 $143 $298 $306 reversed $53 $-1 #
coedge $-1 $231 $299 $143 $227 forward $140 $-1 #
edge $-1 $307 -4.4406708235403016 $229 4.4406708235403016 $143 $308 forward 7 unknown #
edge $-1 $150 -4.4406708235403016 $309 4.4406708235403016 $144 $310 forward 7 unknown #
vertex $-1 $145 $311 #
straight-curve $-1 -57.965636158330028 -39.541065793248606 0 0 0 -1 I I #
coedge $-1 $221 $226 $146 $232 reversed $140 $-1 #
edge $-1 $235 -57.965636158330028 $229 57.965636158330028 $231 $312 forward 7 unknown #
coedge $-1 $147 $303 $221 $300 reversed $234 $-1 #
loop $-1 $-1 $147 $218 #
vertex $-1 $148 $313 #
straight-curve $-1 57.965636158330028 -39.541065793248606 0 0 0 1 I I #
point $-1 -57.965636158330028 -39.541065793248606 9.3240246779637115 #
point $-1 57.965636158330028 -39.541065793248606 9.3240246779637115 #
loop $-1 $-1 $244 $153 #
plane-surface $-1 0 39.541065793248606 0 0 -1 0 0 0 -1 forward_v I I I I #
coedge $-1 $156 $249 $314 $315 forward $91 $-1 #
coedge $-1 $158 $157 $156 $243 reversed $57 $-1 #
edge $-1 $316 -23.236277788291083 $250 -9.3732982216239193 $156 $317 forward 7 unknown #
coedge $-1 $314 $318 $158 $245 forward $239 $-1 #
edge $-1 $247 -78.67269013321544 $316 -67.704610965159276 $244 $319 forward 7 unknown #
coedge $-1 $164 $159 $318 $320 reversed $154 $-1 #
vertex $-1 $160 $321 #
straight-curve $-1 57.965636158330028 16.304788004957501 2.4849471253841386 0 1 0 I I #
coedge $-1 $241 $161 $164 $253 forward $91 $-1 #
vertex $-1 $162 $322 #
straight-curve $-1 24.692537669700215 25.678086226581421 9.8240246779637062 1 0 0 I I #
straight-curve $-1 -28.188088134763063 25.678086226581421 80.058110599547646 -0.74314481823134659 0 0.66913061440640931 I I #
edge $-1 $165 25.678086226581421 $323 39.541065793248606 $164 $324 forward 7 unknown #
point $-1 57.965636158330028 25.678086226581421 9.8240246779637115 #
point $-1 57.965636158330028 25.678086226581421 2.4849471253841386 #
edge $-1 $325 1 $325 0 $168 $-1 forward 7 unknown #
vertex $-1 $169 $326 #
ellipse-curve $-1 48.858784329926664 32.609576009915017 0.56653219261455756 0.66913061440640931 0 0.74314481823134659 1.4862896364626932 0 -1.3382612288128186 1 I I #
point $-1 55.376490194946669 32.609576009915017 4.8162246728611144 #
loop $-1 $-1 $180 $172 #
plane-surface $-1 -57.965636158330028 0 0 1 0 0 0 0 -1 forward_v I I I I #
coedge $-1 $263 $175 $327 $328 reversed $106 $-1 #
coedge $-1 $175 $262 $266 $329 reversed $106 $-1 #
edge $-1 $267 9.7389748068292583 $330 20.707053974885397 $175 $331 forward 7 unknown #
coedge $-1 $177 $176 $270 $332 reversed $66 $-1 #
coedge $-1 $183 $178 $263 $329 forward $173 $-1 #
vertex $-1 $329 $333 #
straight-curve $-1 -49.814764958637923 16.304788004957501 9.8240246779637097 0 1 0 I I #
coedge $-1 $327 $180 $183 $274 reversed $260 $-1 #
coedge $-1 $180 $327 $265 $332 forward $260 $-1 #
vertex $-1 $181 $334 #
straight-curve $-1 -57.965636158330028 25.678086226581421 44.319335709238622 0 0 1 I I #
straight-curve $-1 -57.965636158330028 25.678086226581421 2.4849471253841671 -0.74314481823134659 0 -0.66913061440640931 I I #
edge $-1 $335 -39.541065793248606 $184 -25.678086226581421 $269 $336 forward 7 unknown #
point $-1 -57.965636158330028 25.678086226581421 9.8240246779637115 #
point $-1 -49.81476495863793 25.678086226581421 9.8240246779637115 #
edge $-1 $337 1 $337 0 $187 $-1 forward 7 unknown #
vertex $-1 $188 $338 #
ellipse-curve $-1 -48.858784329926664 32.609576009915017 0.56653219261456467 -0.66913061440640931 0 0.74314481823134659 1.4862896364626932 0 1.3382612288128186 1 I I #
point $-1 -52.403910922021282 32.609576009915017 7.4927471304867588 #
plane-surface $-1 57.965636158330028 0 0 -1 0 0 0 0 1 forward_v I I I I #
coedge $-1 $196 $194 $198 $286 reversed $121 $-1 #
edge $-1 $209 -9.8240246779637115 $288 9.8240246779637115 $208 $339 forward 7 unknown #
vertex $-1 $286 $340 #
straight-curve $-1 -57.965636158330028 -39.541065793248606 0 0 0 -1 I I #
edge $-1 $284 -39.541065793248606 $288 39.541065793248606 $282 $341 forward 7 unknown #
straight-curve $-1 0 -39.541065793248606 -9.8240246779637115 -1 0 0 I I #
vertex $-1 $201 $342 #
straight-curve $-1 0 39.541065793248606 -9.8240246779637115 1 0 0 I I #
point $-1 57.965636158330028 39.541065793248606 -9.8240246779637115 #
point $-1 57.965636158330028 -39.541065793248606 -9.8240246779637115 #
straight-curve $-1 -57.965636158330028 0 9.8240246779637115 0 -1 0 I I #
point $-1 -57.965636158330028 39.541065793248606 9.8240246779637115 #
point $-1 -57.965636158330028 -39.541065793248606 9.8240246779637115 #
straight-curve $-1 57.965636158330028 -39.541065793248606 0 0 0 -1 I I #
straight-curve $-1 57.965636158330028 39.541065793248606 0 0 0 -1 I I #
plane-surface $-1 57.965636158330028 0 0 -1 0 0 0 0 1 forward_v I I I I #
coedge $-1 $343 $301 $225 $306 forward $219 $-1 #
coedge $-1 $226 $221 $343 $344 forward $140 $-1 #
edge $-1 $235 -4.4406708235403016 $345 4.4406708235403016 $233 $346 forward 7 unknown #
coedge $-1 $298 $347 $222 $302 reversed $219 $-1 #
edge $-1 $309 -57.965636158330028 $304 57.965636158330028 $301 $348 forward 7 unknown #
coedge $-1 $233 $223 $347 $349 forward $234 $-1 #
vertex $-1 $224 $350 #
straight-curve $-1 57.965636158330028 -43.981736616788908 9.3240246779637115 0 1 0 I I #
edge $-1 $309 -1.6268839109480417 $307 1.6268839109480417 $225 $351 forward 7 unknown #
vertex $-1 $227 $352 #
straight-curve $-1 -57.965636158330028 -43.981736616788908 6.070256856067628 0 1 0 I I #
vertex $-1 $228 $353 #
straight-curve $-1 -57.965636158330028 -43.981736616788908 9.3240246779637115 0 -1 0 I I #
point $-1 -57.965636158330028 -39.541065793248606 6.070256856067628 #
straight-curve $-1 0 -39.541065793248606 6.070256856067628 -1 0 0 I I #
point $-1 57.965636158330028 -39.541065793248606 6.070256856067628 #
coedge $-1 $318 $244 $241 $315 reversed $239 $-1 #
edge $-1 $323 -57.965636158330028 $316 -49.814764958637909 $314 $354 forward 7 unknown #
vertex $-1 $245 $355 #
straight-curve $-1 49.814764958637909 16.304788004957501 9.8240246779637062 0 -1 0 I I #
coedge $-1 $244 $314 $246 $320 forward $239 $-1 #
straight-curve $-1 -0.49956585048941449 39.541065793248606 55.127252611227647 -0.74314481823134659 0 0.66913061440640931 I I #
edge $-1 $323 -9.8240246779637115 $247 -2.4849471253841435 $246 $356 forward 7 unknown #
point $-1 57.965636158330028 39.541065793248606 2.4849471253841435 #
point $-1 49.814764958637909 25.678086226581421 9.8240246779637062 #
vertex $-1 $253 $357 #
straight-curve $-1 57.965636158330028 0 9.8240246779637115 0 1 0 I I #
vertex $-1 $256 $358 #
point $-1 50.34507396638935 32.609576009915017 -0.77172903619826105 #
coedge $-1 $270 $269 $262 $328 forward $260 $-1 #
edge $-1 $335 -9.8240246779637115 $330 -2.4849471253841671 $262 $359 forward 7 unknown #
edge $-1 $267 49.81476495863793 $335 57.965636158330028 $263 $360 forward 7 unknown #
vertex $-1 $264 $361 #
straight-curve $-1 -42.577296296057135 39.541065793248606 16.340670874145911 -0.74314481823134659 0 -0.66913061440640931 I I #
edge $-1 $330 -23.236277788291083 $271 -9.3732982216239193 $270 $362 forward 7 unknown #
point $-1 -49.81476495863793 39.541065793248585 9.8240246779637115 #
point $-1 -57.965636158330028 25.678086226581421 2.4849471253841671 #
vertex $-1 $329 $363 #
straight-curve $-1 -57.965636158330028 0 9.8240246779637115 0 -1 0 I I #
vertex $-1 $277 $364 #
point $-1 -47.37249469346397 32.609576009915017 1.9047934214273834 #
straight-curve $-1 -57.965636158330028 39.541065793248606 0 0 0 -1 I I #
point $-1 -57.965636158330028 -39.541065793248606 -9.8240246779637115 #
straight-curve $-1 -57.965636158330028 0 -9.8240246779637115 0 1 0 I I #
point $-1 -57.965636158330028 39.541065793248606 -9.8240246779637115 #
coedge $-1 $347 $298 $299 $344 reversed $219 $-1 #
edge $-1 $345 -57.965636158330028 $307 57.965636158330028 $343 $365 forward 7 unknown #
vertex $-1 $349 $366 #
straight-curve $-1 57.965636158330028 -43.981736616788908 6.070256856067628 0 -1 0 I I #
coedge $-1 $301 $343 $303 $349 reversed $219 $-1 #
straight-curve $-1 0 -48.422407440329209 9.3240246779637115 1 0 0 I I #
edge $-1 $304 -1.6268839109480417 $345 1.6268839109480417 $303 $367 forward 7 unknown #
point $-1 57.965636158330028 -48.422407440329209 9.3240246779637115 #
straight-curve $-1 -57.965636158330028 -48.422407440329209 7.6971407670156697 0 0 -1 I I #
point $-1 -57.965636158330028 -48.422407440329209 6.070256856067628 #
point $-1 -57.965636158330028 -48.422407440329209 9.3240246779637115 #
straight-curve $-1 0 39.541065793248606 9.8240246779637115 -1 0 0 I I #
point $-1 49.814764958637909 39.541065793248585 9.8240246779637062 #
straight-curve $-1 57.965636158330028 39.541065793248606 0 0 0 -1 I I #
point $-1 57.965636158330028 39.541065793248606 9.8240246779637115 #
point $-1 47.520523101113838 32.609576009915017 -0.91975744384813563 #
straight-curve $-1 -57.965636158330028 39.541065793248606 0 0 0 -1 I I #
straight-curve $-1 0 39.541065793248606 9.8240246779637115 -1 0 0 I I #
point $-1 -57.965636158330028 39.541065793248585 2.4849471253841671 #
straight-curve $-1 -57.965636158330028 16.304788004957501 2.4849471253841653 0 -1 0 I I #
point $-1 -57.965636158330028 39.541065793248606 9.8240246779637115 #
point $-1 -47.520523101113838 32.609576009915017 -0.91975744384812852 #
straight-curve $-1 0 -48.422407440329209 6.070256856067628 -1 0 0 I I #
point $-1 57.965636158330028 -48.422407440329209 6.070256856067628 #
straight-curve $-1 57.965636158330028 -48.422407440329209 7.6971407670156697 0 0 -1 I I #
End-of-ACIS-data 