500 0 13 0           
7 Unknown 11 ACIS 5.0 NT 24 Thu Mar 25 20:22:19 1999 
-1 9.9999999999999995e-007 1e-010 
body $-1 $13 $-1 $14 #
body $-1 $15 $-1 $16 #
body $-1 $17 $-1 $18 #
body $-1 $19 $-1 $20 #
body $-1 $21 $-1 $22 #
body $-1 $23 $-1 $24 #
body $-1 $25 $-1 $26 #
body $-1 $27 $-1 $28 #
body $-1 $29 $-1 $30 #
body $-1 $31 $-1 $32 #
body $-1 $33 $-1 $34 #
body $-1 $35 $-1 $36 #
body $-1 $37 $-1 $38 #
lump $-1 $-1 $39 $0 #
transform $-1 1 0 0 0 1 0 0 0 1 54.331492049928279 24.163063479927516 6.930500793585094 1 rotate no_reflect no_shear #
lump $-1 $-1 $40 $1 #
transform $-1 1 0 0 0 1 0 0 0 1 54.331492049928279 24.163063479927516 6.930500793585094 1 rotate no_reflect no_shear #
lump $-1 $-1 $41 $2 #
transform $-1 1 0 0 0 1 0 0 0 1 54.331492049928279 24.163063479927516 6.930500793585094 1 rotate no_reflect no_shear #
lump $-1 $-1 $42 $3 #
transform $-1 1 0 0 0 1 0 0 0 1 54.331492049928279 24.163063479927516 6.930500793585094 1 rotate no_reflect no_shear #
lump $-1 $-1 $43 $4 #
transform $-1 1 0 0 0 1 0 0 0 1 54.331492049928279 24.163063479927516 6.930500793585094 1 rotate no_reflect no_shear #
lump $-1 $-1 $44 $5 #
transform $-1 1 0 0 0 1 0 0 0 1 54.331492049928279 24.163063479927516 6.930500793585094 1 rotate no_reflect no_shear #
lump $-1 $-1 $45 $6 #
transform $-1 1 0 0 0 1 0 0 0 1 54.331492049928279 24.163063479927516 6.930500793585094 1 rotate no_reflect no_shear #
lump $-1 $-1 $46 $7 #
transform $-1 1 0 0 0 1 0 0 0 1 54.331492049928279 24.163063479927516 6.930500793585094 1 rotate no_reflect no_shear #
lump $-1 $-1 $47 $8 #
transform $-1 1 0 0 0 1 0 0 0 1 54.331492049928279 24.163063479927516 6.930500793585094 1 rotate no_reflect no_shear #
lump $-1 $-1 $48 $9 #
transform $-1 1 0 0 0 1 0 0 0 1 54.331492049928279 24.163063479927516 6.930500793585094 1 rotate no_reflect no_shear #
lump $-1 $-1 $49 $10 #
transform $-1 1 0 0 0 1 0 0 0 1 54.331492049928279 24.163063479927516 6.930500793585094 1 rotate no_reflect no_shear #
lump $-1 $-1 $50 $11 #
transform $-1 1 0 0 0 1 0 0 0 1 54.331492049928279 24.163063479927516 6.930500793585094 1 rotate no_reflect no_shear #
lump $-1 $-1 $51 $12 #
transform $-1 1 0 0 0 1 0 0 0 1 54.331492049928279 24.163063479927516 6.930500793585094 1 rotate no_reflect no_shear #
shell $-1 $-1 $-1 $52 $-1 $13 #
shell $-1 $-1 $-1 $53 $-1 $15 #
shell $-1 $-1 $-1 $54 $-1 $17 #
shell $-1 $-1 $-1 $55 $-1 $19 #
shell $-1 $-1 $-1 $56 $-1 $21 #
shell $-1 $-1 $-1 $57 $-1 $23 #
shell $-1 $-1 $-1 $58 $-1 $25 #
shell $-1 $-1 $-1 $59 $-1 $27 #
shell $-1 $-1 $-1 $60 $-1 $29 #
shell $-1 $-1 $-1 $61 $-1 $31 #
shell $-1 $-1 $-1 $62 $-1 $33 #
shell $-1 $-1 $-1 $63 $-1 $35 #
shell $-1 $-1 $-1 $64 $-1 $37 #
face $-1 $65 $66 $39 $-1 $67 forward single #
face $-1 $68 $69 $40 $-1 $70 forward single #
face $-1 $71 $72 $41 $-1 $73 forward single #
face $-1 $74 $75 $42 $-1 $76 reversed single #
face $-1 $77 $78 $43 $-1 $79 forward single #
face $-1 $80 $81 $44 $-1 $82 reversed single #
face $-1 $83 $84 $45 $-1 $85 forward single #
face $-1 $86 $87 $46 $-1 $88 reversed single #
face $-1 $89 $90 $47 $-1 $91 forward single #
face $-1 $92 $93 $48 $-1 $94 reversed single #
face $-1 $95 $96 $49 $-1 $97 forward single #
face $-1 $98 $99 $50 $-1 $100 reversed single #
face $-1 $101 $102 $51 $-1 $103 forward single #
face $-1 $104 $105 $39 $-1 $106 reversed single #
loop $-1 $-1 $107 $52 #
plane-surface $-1 0 0 6.930500793585094 0 0 1 1 0 0 forward_v I I I I #
face $-1 $108 $109 $40 $-1 $110 reversed single #
loop $-1 $-1 $111 $53 #
plane-surface $-1 -51.130075308487463 0 -2.6643175585318355 0 0 1 1 0 0 forward_v I I I I #
face $-1 $112 $113 $41 $-1 $114 reversed single #
loop $-1 $-1 $115 $54 #
plane-surface $-1 51.13007530848747 0 -2.6643175585318355 0 0 1 1 0 0 forward_v I I I I #
face $-1 $116 $117 $42 $-1 $118 reversed single #
loop $-1 $-1 $119 $55 #
plane-surface $-1 47.928658567046639 74.467268028976733 111.3886617834429 -1 0 0 0 0.75470958851134928 0.65605901945558964 forward_v I I I I #
face $-1 $120 $121 $43 $-1 $122 forward single #
loop $-1 $123 $124 $56 #
cone-surface $-1 39.508561425373507 22.340308565339289 4.9424315214710219 0 -0.75470958851134928 -0.65605901945558964 0.5 0 0 1 I I 0 1 0.5 forward I I I I #
face $-1 $125 $126 $44 $-1 $127 reversed single #
loop $-1 $-1 $128 $57 #
plane-surface $-1 -44.411400526348586 -108.61006363221126 71.350988579995629 1 0 0 0 0.77714596973225614 -0.62932038083071107 forward_v I I I I #
face $-1 $129 $130 $45 $-1 $131 forward single #
loop $-1 $132 $133 $58 #
cone-surface $-1 -39.313888490162995 -21.434764437369516 4.0389777674330309 0 0.77714596973225614 -0.62932038083071107 1 0 0 1 I I 0 1 1 forward I I I I #
face $-1 $134 $135 $46 $-1 $136 reversed single #
loop $-1 $-1 $137 $59 #
plane-surface $-1 -18.202141532906591 -108.61006363221126 71.350988579995629 1 0 0 0 0.77714596973225614 -0.62932038083071107 forward_v I I I I #
face $-1 $138 $139 $47 $-1 $140 forward single #
loop $-1 $141 $142 $60 #
cone-surface $-1 -13.104629496720996 -21.434764437369516 4.0389777674330309 0 0.77714596973225614 -0.62932038083071107 1 0 0 1 I I 0 1 1 forward I I I I #
face $-1 $143 $144 $48 $-1 $145 reversed single #
loop $-1 $-1 $146 $61 #
plane-surface $-1 8.007117460535401 -108.61006363221126 71.350988579995629 1 0 0 0 0.77714596973225614 -0.62932038083071107 forward_v I I I I #
face $-1 $147 $148 $49 $-1 $149 forward single #
loop $-1 $150 $151 $62 #
cone-surface $-1 13.104629496720996 -21.434764437369516 4.0389777674330309 0 0.77714596973225614 -0.62932038083071107 1 0 0 1 I I 0 1 1 forward I I I I #
face $-1 $152 $153 $50 $-1 $154 reversed single #
loop $-1 $-1 $155 $63 #
plane-surface $-1 34.216376453977389 -108.61006363221126 71.350988579995629 1 0 0 0 0.77714596973225614 -0.62932038083071107 forward_v I I I I #
face $-1 $156 $157 $51 $-1 $158 forward single #
loop $-1 $159 $160 $64 #
cone-surface $-1 39.313888490162988 -21.434764437369516 4.0389777674330309 0 0.77714596973225614 -0.62932038083071107 1 0 0 1 I I 0 1 1 forward I I I I #
face $-1 $161 $162 $39 $-1 $163 reversed single #
loop $-1 $-1 $164 $65 #
plane-surface $-1 0 0 -6.930500793585094 0 0 1 1 0 0 forward_v I I I I #
coedge $-1 $165 $166 $167 $168 forward $66 $-1 #
face $-1 $169 $170 $40 $-1 $171 reversed single #
loop $-1 $-1 $172 $68 #
plane-surface $-1 -51.130075308487463 0 -5.6643175585318355 0 0 1 1 0 0 forward_v I I I I #
coedge $-1 $173 $174 $175 $176 forward $69 $-1 #
face $-1 $177 $178 $41 $-1 $179 reversed single #
loop $-1 $-1 $180 $71 #
plane-surface $-1 51.13007530848747 0 -5.6643175585318355 0 0 1 1 0 0 forward_v I I I I #
coedge $-1 $181 $182 $183 $184 reversed $72 $-1 #
face $-1 $185 $186 $42 $-1 $187 reversed single #
loop $-1 $-1 $188 $74 #
plane-surface $-1 39.508561425373493 -7.5417279874413055 40.099330983772674 0 0.75470958851134928 0.65605901945558964 1 0 0 forward_v I I I I #
coedge $-1 $189 $190 $191 $192 reversed $75 $-1 #
face $-1 $-1 $193 $43 $-1 $194 forward single #
loop $-1 $195 $196 $77 #
cone-surface $-1 39.508561425373507 21.764660258559083 4.4420280955089657 0 -0.75470958851134928 -0.65605901945558964 0.25 0 0 1 I I -0.70710678118654746 0.70710678118654746 0.25 forward I I I I #
loop $-1 $-1 $197 $56 #
coedge $-1 $124 $124 $198 $199 reversed $78 $-1 #
face $-1 $200 $201 $44 $-1 $202 reversed single #
loop $-1 $-1 $203 $80 #
plane-surface $-1 -39.313888490162995 -24.163063479927516 2.9671580440723915 0 -0.77714596973225614 0.62932038083071107 1 0 0 forward_v I I I I #
coedge $-1 $204 $205 $206 $207 reversed $81 $-1 #
face $-1 $-1 $208 $45 $-1 $209 forward single #
loop $-1 $210 $211 $83 #
cone-surface $-1 -39.313888490162995 -19.922618205116962 2.8144659256219517 0 0.77714596973225614 -0.62932038083071107 0.5 0 0 1 I I -0.70710678118654746 0.70710678118654746 0.5 forward I I I I #
loop $-1 $-1 $212 $58 #
coedge $-1 $133 $133 $213 $214 reversed $84 $-1 #
face $-1 $215 $216 $46 $-1 $217 reversed single #
loop $-1 $-1 $218 $86 #
plane-surface $-1 -13.104629496720996 -24.163063479927516 2.9671580440723915 0 -0.77714596973225614 0.62932038083071107 1 0 0 forward_v I I I I #
coedge $-1 $219 $220 $221 $222 reversed $87 $-1 #
face $-1 $-1 $223 $47 $-1 $224 forward single #
loop $-1 $225 $226 $89 #
cone-surface $-1 -13.104629496720996 -19.922618205116962 2.8144659256219517 0 0.77714596973225614 -0.62932038083071107 0.5 0 0 1 I I -0.70710678118654746 0.70710678118654746 0.5 forward I I I I #
loop $-1 $-1 $227 $60 #
coedge $-1 $142 $142 $228 $229 reversed $90 $-1 #
face $-1 $230 $231 $48 $-1 $232 reversed single #
loop $-1 $-1 $233 $92 #
plane-surface $-1 13.104629496720996 -24.163063479927516 2.9671580440723915 0 -0.77714596973225614 0.62932038083071107 1 0 0 forward_v I I I I #
coedge $-1 $234 $235 $236 $237 reversed $93 $-1 #
face $-1 $-1 $238 $49 $-1 $239 forward single #
loop $-1 $240 $241 $95 #
cone-surface $-1 13.104629496720996 -19.922618205116962 2.8144659256219517 0 0.77714596973225614 -0.62932038083071107 0.5 0 0 1 I I -0.70710678118654746 0.70710678118654746 0.5 forward I I I I #
loop $-1 $-1 $242 $62 #
coedge $-1 $151 $151 $243 $244 reversed $96 $-1 #
face $-1 $245 $246 $50 $-1 $247 reversed single #
loop $-1 $-1 $248 $98 #
plane-surface $-1 39.313888490162988 -24.163063479927516 2.9671580440723915 0 -0.77714596973225614 0.62932038083071107 1 0 0 forward_v I I I I #
coedge $-1 $249 $250 $251 $252 reversed $99 $-1 #
face $-1 $-1 $253 $51 $-1 $254 forward single #
loop $-1 $255 $256 $101 #
cone-surface $-1 39.313888490162988 -19.922618205116962 2.8144659256219517 0 0.77714596973225614 -0.62932038083071107 0.5 0 0 1 I I -0.70710678118654746 0.70710678118654746 0.5 forward I I I I #
loop $-1 $-1 $257 $64 #
coedge $-1 $160 $160 $258 $259 reversed $102 $-1 #
face $-1 $260 $261 $39 $-1 $262 reversed single #
loop $-1 $-1 $263 $104 #
plane-surface $-1 0 -24.163063479927516 0 0 1 0 0 0 1 forward_v I I I I #
coedge $-1 $264 $265 $266 $267 forward $105 $-1 #
coedge $-1 $268 $107 $269 $270 forward $66 $-1 #
coedge $-1 $107 $268 $271 $272 forward $66 $-1 #
coedge $-1 $273 $274 $107 $168 reversed $275 $-1 #
edge $-1 $276 -24.163063479927516 $277 24.163063479927516 $167 $278 forward 7 unknown #
face $-1 $279 $280 $40 $-1 $281 reversed single #
loop $-1 $-1 $282 $108 #
plane-surface $-1 -47.928658567046647 0 -4.1643175585318355 -1 0 0 0 0 1 forward_v I I I I #
coedge $-1 $283 $284 $285 $286 forward $109 $-1 #
coedge $-1 $287 $111 $288 $289 reversed $69 $-1 #
coedge $-1 $111 $287 $290 $291 reversed $69 $-1 #
coedge $-1 $282 $292 $111 $176 reversed $170 $-1 #
edge $-1 $293 -24.163063479927516 $294 24.163063479927516 $175 $295 forward 7 unknown #
face $-1 $296 $297 $41 $-1 $298 reversed single #
loop $-1 $-1 $299 $112 #
plane-surface $-1 47.928658567046654 0 -4.1643175585318355 1 0 0 0 0 -1 forward_v I I I I #
coedge $-1 $300 $301 $302 $303 reversed $113 $-1 #
coedge $-1 $304 $115 $305 $306 reversed $72 $-1 #
coedge $-1 $115 $304 $307 $308 reversed $72 $-1 #
coedge $-1 $309 $310 $115 $184 forward $311 $-1 #
edge $-1 $312 -24.163063479927516 $313 24.163063479927516 $183 $314 forward 7 unknown #
face $-1 $315 $316 $42 $-1 $317 reversed single #
loop $-1 $-1 $318 $116 #
plane-surface $-1 31.088464283700347 74.467268028976733 111.3886617834429 1 0 0 0 -0.75470958851134928 -0.65605901945558964 forward_v I I I I #
coedge $-1 $319 $320 $321 $322 reversed $117 $-1 #
coedge $-1 $190 $119 $323 $324 reversed $75 $-1 #
coedge $-1 $119 $189 $319 $325 reversed $75 $-1 #
coedge $-1 $321 $326 $119 $192 forward $316 $-1 #
edge $-1 $327 48.763830098136353 $328 52.067191300168183 $191 $329 forward 7 unknown #
loop $-1 $-1 $198 $120 #
plane-surface $-1 39.508561425373493 -7.5417279874413055 40.099330983772674 0 0.75470958851134928 0.65605901945558964 1 0 0 forward_v I I I I #
loop $-1 $-1 $330 $77 #
coedge $-1 $196 $196 $197 $331 reversed $121 $-1 #
coedge $-1 $197 $197 $196 $331 forward $123 $-1 #
coedge $-1 $198 $198 $124 $199 forward $193 $-1 #
edge $-1 $332 1.340633539313084e-015 $332 6.2831853071796022 $198 $333 forward 7 unknown #
face $-1 $334 $335 $44 $-1 $336 forward single #
loop $-1 $-1 $337 $125 #
plane-surface $-1 -34.216376453977404 -108.61006363221126 71.350988579995629 -1 0 0 0 -0.77714596973225614 0.62932038083071107 forward_v I I I I #
coedge $-1 $338 $339 $340 $341 reversed $126 $-1 #
coedge $-1 $205 $128 $342 $343 reversed $81 $-1 #
coedge $-1 $128 $204 $338 $344 reversed $81 $-1 #
coedge $-1 $340 $345 $128 $207 forward $346 $-1 #
edge $-1 $347 28.744993496412722 $348 32.708336245925423 $206 $349 forward 7 unknown #
loop $-1 $-1 $213 $129 #
plane-surface $-1 -39.313888490162995 -24.163063479927516 2.9671580440723915 0 -0.77714596973225614 0.62932038083071107 1 0 0 forward_v I I I I #
loop $-1 $-1 $350 $83 #
coedge $-1 $211 $211 $212 $351 reversed $130 $-1 #
coedge $-1 $212 $212 $211 $351 forward $132 $-1 #
coedge $-1 $213 $213 $133 $214 forward $208 $-1 #
edge $-1 $352 1.9505741675554339e-016 $352 6.2831853071796004 $213 $353 forward 7 unknown #
face $-1 $354 $355 $46 $-1 $356 reversed single #
loop $-1 $-1 $357 $134 #
plane-surface $-1 -8.007117460535401 -108.61006363221126 71.350988579995629 -1 0 0 0 -0.77714596973225614 0.62932038083071107 forward_v I I I I #
coedge $-1 $358 $359 $360 $361 reversed $135 $-1 #
coedge $-1 $220 $137 $362 $363 reversed $87 $-1 #
coedge $-1 $137 $219 $358 $364 reversed $87 $-1 #
coedge $-1 $360 $365 $137 $222 forward $355 $-1 #
edge $-1 $366 28.744993496412722 $367 32.708336245925423 $221 $368 forward 7 unknown #
loop $-1 $-1 $228 $138 #
plane-surface $-1 -13.104629496720996 -24.163063479927516 2.9671580440723915 0 -0.77714596973225614 0.62932038083071107 1 0 0 forward_v I I I I #
loop $-1 $-1 $369 $89 #
coedge $-1 $226 $226 $227 $370 reversed $139 $-1 #
coedge $-1 $227 $227 $226 $370 forward $141 $-1 #
coedge $-1 $228 $228 $142 $229 forward $223 $-1 #
edge $-1 $371 1.9505741675554339e-016 $371 6.2831853071796004 $228 $372 forward 7 unknown #
face $-1 $373 $374 $48 $-1 $375 reversed single #
loop $-1 $-1 $376 $143 #
plane-surface $-1 18.202141532906591 -108.61006363221126 71.350988579995629 -1 0 0 0 -0.77714596973225614 0.62932038083071107 forward_v I I I I #
coedge $-1 $377 $378 $379 $380 reversed $144 $-1 #
coedge $-1 $235 $146 $381 $382 reversed $93 $-1 #
coedge $-1 $146 $234 $377 $383 reversed $93 $-1 #
coedge $-1 $379 $384 $146 $237 forward $374 $-1 #
edge $-1 $385 28.744993496412722 $386 32.708336245925423 $236 $387 forward 7 unknown #
loop $-1 $-1 $243 $147 #
plane-surface $-1 13.104629496720996 -24.163063479927516 2.9671580440723915 0 -0.77714596973225614 0.62932038083071107 1 0 0 forward_v I I I I #
loop $-1 $-1 $388 $95 #
coedge $-1 $241 $241 $242 $389 reversed $148 $-1 #
coedge $-1 $242 $242 $241 $389 forward $150 $-1 #
coedge $-1 $243 $243 $151 $244 forward $238 $-1 #
edge $-1 $390 1.9505741675554339e-016 $390 6.2831853071796004 $243 $391 forward 7 unknown #
face $-1 $392 $393 $50 $-1 $394 reversed single #
loop $-1 $-1 $395 $152 #
plane-surface $-1 44.411400526348586 -108.61006363221126 71.350988579995629 -1 0 0 0 -0.77714596973225614 0.62932038083071107 forward_v I I I I #
coedge $-1 $396 $397 $398 $399 reversed $153 $-1 #
coedge $-1 $250 $155 $400 $401 reversed $99 $-1 #
coedge $-1 $155 $249 $396 $402 reversed $99 $-1 #
coedge $-1 $398 $403 $155 $252 forward $393 $-1 #
edge $-1 $404 28.744993496412722 $405 32.708336245925423 $251 $406 forward 7 unknown #
loop $-1 $-1 $258 $156 #
plane-surface $-1 39.313888490162988 -24.163063479927516 2.9671580440723915 0 -0.77714596973225614 0.62932038083071107 1 0 0 forward_v I I I I #
loop $-1 $-1 $407 $101 #
coedge $-1 $256 $256 $257 $408 reversed $157 $-1 #
coedge $-1 $257 $257 $256 $408 forward $159 $-1 #
coedge $-1 $258 $258 $160 $259 forward $253 $-1 #
edge $-1 $409 1.9505741675554339e-016 $409 6.2831853071796004 $258 $410 forward 7 unknown #
face $-1 $411 $412 $39 $-1 $413 reversed single #
loop $-1 $-1 $414 $161 #
plane-surface $-1 -54.331492049928279 0 0 1 0 0 0 0 -1 forward_v I I I I #
coedge $-1 $415 $271 $416 $417 forward $162 $-1 #
coedge $-1 $418 $164 $415 $419 forward $105 $-1 #
coedge $-1 $164 $418 $420 $421 forward $105 $-1 #
coedge $-1 $274 $273 $164 $267 reversed $275 $-1 #
edge $-1 $422 -24.163063479927516 $423 24.163063479927516 $266 $424 forward 7 unknown #
coedge $-1 $166 $165 $425 $426 forward $66 $-1 #
coedge $-1 $427 $428 $165 $270 reversed $412 $-1 #
edge $-1 $277 -54.331492049928279 $429 54.331492049928279 $269 $430 forward 7 unknown #
coedge $-1 $263 $431 $166 $272 reversed $162 $-1 #
edge $-1 $432 -54.331492049928279 $276 54.331492049928279 $271 $433 forward 7 unknown #
coedge $-1 $266 $167 $431 $434 forward $275 $-1 #
coedge $-1 $167 $266 $427 $435 reversed $275 $-1 #
loop $-1 $-1 $273 $411 #
vertex $-1 $168 $436 #
vertex $-1 $168 $437 #
straight-curve $-1 54.331492049928279 0 6.930500793585094 0 1 0 I I #
face $-1 $438 $439 $40 $-1 $440 reversed single #
loop $-1 $-1 $441 $169 #
plane-surface $-1 0 -24.163063479927516 0 0 1 0 0 0 1 forward_v I I I I #
coedge $-1 $285 $175 $442 $443 reversed $170 $-1 #
coedge $-1 $444 $172 $441 $445 reversed $109 $-1 #
coedge $-1 $172 $444 $446 $447 reversed $109 $-1 #
coedge $-1 $292 $282 $172 $286 reversed $170 $-1 #
edge $-1 $448 -24.163063479927516 $449 24.163063479927516 $285 $450 forward 7 unknown #
coedge $-1 $174 $173 $451 $452 reversed $69 $-1 #
coedge $-1 $453 $454 $173 $289 forward $455 $-1 #
edge $-1 $456 -28.766454395684548 $294 -22.363620912802915 $288 $457 forward 7 unknown #
coedge $-1 $458 $442 $174 $291 forward $280 $-1 #
edge $-1 $293 22.363620912802915 $459 28.766454395684548 $290 $460 forward 7 unknown #
coedge $-1 $175 $285 $453 $461 reversed $170 $-1 #
vertex $-1 $291 $462 #
vertex $-1 $289 $463 #
straight-curve $-1 -47.928658567046647 0 -2.6643175585318355 0 1 0 I I #
face $-1 $464 $465 $41 $-1 $466 reversed single #
loop $-1 $-1 $307 $177 #
plane-surface $-1 0 -24.163063479927516 0 0 1 0 0 0 1 forward_v I I I I #
coedge $-1 $467 $468 $469 $470 reversed $178 $-1 #
coedge $-1 $471 $180 $472 $473 reversed $113 $-1 #
coedge $-1 $180 $471 $474 $475 reversed $113 $-1 #
coedge $-1 $310 $309 $180 $303 forward $311 $-1 #
edge $-1 $476 -24.163063479927516 $477 24.163063479927516 $302 $478 forward 7 unknown #
coedge $-1 $182 $181 $468 $479 forward $72 $-1 #
coedge $-1 $480 $469 $181 $306 forward $465 $-1 #
edge $-1 $481 22.363620912802919 $312 28.766454395684551 $305 $482 forward 7 unknown #
coedge $-1 $483 $484 $182 $308 forward $297 $-1 #
edge $-1 $313 -28.766454395684551 $485 -22.363620912802919 $307 $486 forward 7 unknown #
coedge $-1 $302 $183 $484 $487 forward $311 $-1 #
coedge $-1 $183 $302 $480 $488 reversed $311 $-1 #
loop $-1 $-1 $183 $464 #
vertex $-1 $488 $489 #
vertex $-1 $487 $490 #
straight-curve $-1 54.331492049928279 0 -2.6643175585318355 0 -1 0 I I #
face $-1 $-1 $491 $42 $-1 $492 forward single #
loop $-1 $-1 $191 $185 #
plane-surface $-1 0 24.163063479927516 0 0 -1 0 0 0 -1 forward_v I I I I #
coedge $-1 $493 $494 $495 $496 reversed $186 $-1 #
coedge $-1 $497 $188 $190 $325 forward $117 $-1 #
coedge $-1 $188 $497 $493 $498 forward $117 $-1 #
coedge $-1 $495 $191 $188 $322 forward $316 $-1 #
edge $-1 $328 -28.174377854359893 $499 -11.3341835710136 $321 $500 forward 7 unknown #
coedge $-1 $501 $502 $189 $324 forward $491 $-1 #
edge $-1 $503 -15.94213854443257 $327 -13.070570534560851 $323 $504 forward 7 unknown #
edge $-1 $328 -48.326126959855038 $503 -43.949130493508754 $190 $505 forward 7 unknown #
coedge $-1 $191 $495 $501 $506 reversed $316 $-1 #
vertex $-1 $506 $507 #
vertex $-1 $192 $508 #
straight-curve $-1 47.928658567046639 24.163063479927516 55.694330891721449 0 0 -1 I I #
coedge $-1 $330 $330 $-1 $509 reversed $195 $-1 #
edge $-1 $510 0 $510 6.2831853071796004 $196 $511 forward 7 unknown #
vertex $-1 $199 $512 #
ellipse-curve $-1 39.508561425373507 22.727279474991658 5.2788201925691807 0 0.75470958851134928 0.65605901945558964 0.5 0 0 1 I I #
face $-1 $-1 $346 $44 $-1 $513 reversed single #
loop $-1 $-1 $514 $200 #
plane-surface $-1 0 0 6.930500793585094 0 0 1 1 0 0 forward_v I I I I #
coedge $-1 $515 $516 $517 $518 reversed $201 $-1 #
coedge $-1 $519 $203 $205 $344 forward $126 $-1 #
coedge $-1 $203 $519 $515 $520 forward $126 $-1 #
coedge $-1 $517 $206 $203 $341 forward $346 $-1 #
edge $-1 $348 -24.754456281267089 $521 -14.559432208895906 $340 $522 forward 7 unknown #
coedge $-1 $523 $524 $204 $343 forward $335 $-1 #
edge $-1 $525 -33.351419926521281 $347 -30.141968336178117 $342 $526 forward 7 unknown #
edge $-1 $348 0 $525 5.099869141543846 $205 $527 forward 7 unknown #
coedge $-1 $206 $517 $523 $528 reversed $346 $-1 #
loop $-1 $-1 $517 $334 #
vertex $-1 $528 $529 #
vertex $-1 $207 $530 #
straight-curve $-1 -44.411400526348586 -24.163063479927516 35.675494289997815 0 0 -1 I I #
coedge $-1 $350 $350 $-1 $531 reversed $210 $-1 #
edge $-1 $532 0 $532 6.2831853071796004 $211 $533 forward 7 unknown #
vertex $-1 $214 $534 #
ellipse-curve $-1 -39.313888490162995 -22.55833768475593 4.9488294188287458 0 -0.77714596973225614 0.62932038083071107 1 0 0 1 I I #
face $-1 $-1 $535 $46 $-1 $536 forward single #
loop $-1 $-1 $221 $215 #
plane-surface $-1 0 -24.163063479927516 0 0 1 0 0 0 1 forward_v I I I I #
coedge $-1 $537 $538 $539 $540 reversed $216 $-1 #
coedge $-1 $541 $218 $220 $364 forward $135 $-1 #
coedge $-1 $218 $541 $537 $542 forward $135 $-1 #
coedge $-1 $539 $221 $218 $361 forward $355 $-1 #
edge $-1 $367 -11.649826784546093 $543 -1.454802712174903 $360 $544 forward 7 unknown #
coedge $-1 $545 $546 $219 $363 forward $535 $-1 #
edge $-1 $547 -33.351419926521281 $366 -30.141968336178117 $362 $548 forward 7 unknown #
edge $-1 $367 0 $547 5.099869141543846 $220 $549 forward 7 unknown #
coedge $-1 $221 $539 $545 $550 reversed $355 $-1 #
vertex $-1 $550 $551 #
vertex $-1 $222 $552 #
straight-curve $-1 -18.202141532906591 -24.163063479927516 35.675494289997815 0 0 -1 I I #
coedge $-1 $369 $369 $-1 $553 reversed $225 $-1 #
edge $-1 $554 0 $554 6.2831853071796004 $226 $555 forward 7 unknown #
vertex $-1 $229 $556 #
ellipse-curve $-1 -13.104629496720996 -22.55833768475593 4.9488294188287458 0 -0.77714596973225614 0.62932038083071107 1 0 0 1 I I #
face $-1 $-1 $557 $48 $-1 $558 forward single #
loop $-1 $-1 $236 $230 #
plane-surface $-1 0 -24.163063479927516 0 0 1 0 0 0 1 forward_v I I I I #
coedge $-1 $559 $560 $561 $562 reversed $231 $-1 #
coedge $-1 $563 $233 $235 $383 forward $144 $-1 #
coedge $-1 $233 $563 $559 $564 forward $144 $-1 #
coedge $-1 $561 $236 $233 $380 forward $374 $-1 #
edge $-1 $386 1.454802712174903 $565 11.649826784546093 $379 $566 forward 7 unknown #
coedge $-1 $567 $568 $234 $382 forward $557 $-1 #
edge $-1 $569 -33.351419926521281 $385 -30.141968336178117 $381 $570 forward 7 unknown #
edge $-1 $386 0 $569 5.099869141543846 $235 $571 forward 7 unknown #
coedge $-1 $236 $561 $567 $572 reversed $374 $-1 #
vertex $-1 $572 $573 #
vertex $-1 $237 $574 #
straight-curve $-1 8.007117460535401 -24.163063479927516 35.675494289997815 0 0 -1 I I #
coedge $-1 $388 $388 $-1 $575 reversed $240 $-1 #
edge $-1 $576 0 $576 6.2831853071796004 $241 $577 forward 7 unknown #
vertex $-1 $244 $578 #
ellipse-curve $-1 13.104629496720996 -22.55833768475593 4.9488294188287458 0 -0.77714596973225614 0.62932038083071107 1 0 0 1 I I #
face $-1 $-1 $579 $50 $-1 $580 forward single #
loop $-1 $-1 $251 $245 #
plane-surface $-1 0 -24.163063479927516 0 0 1 0 0 0 1 forward_v I I I I #
coedge $-1 $581 $582 $583 $584 reversed $246 $-1 #
coedge $-1 $585 $248 $250 $402 forward $153 $-1 #
coedge $-1 $248 $585 $581 $586 forward $153 $-1 #
coedge $-1 $583 $251 $248 $399 forward $393 $-1 #
edge $-1 $405 14.559432208895895 $587 24.754456281267093 $398 $588 forward 7 unknown #
coedge $-1 $589 $590 $249 $401 forward $579 $-1 #
edge $-1 $591 -33.351419926521281 $404 -30.141968336178117 $400 $592 forward 7 unknown #
edge $-1 $405 0 $591 5.099869141543846 $250 $593 forward 7 unknown #
coedge $-1 $251 $583 $589 $594 reversed $393 $-1 #
vertex $-1 $594 $595 #
vertex $-1 $252 $596 #
straight-curve $-1 34.216376453977389 -24.163063479927516 35.675494289997815 0 0 -1 I I #
coedge $-1 $407 $407 $-1 $597 reversed $255 $-1 #
edge $-1 $598 0 $598 6.2831853071796004 $256 $599 forward 7 unknown #
vertex $-1 $259 $600 #
ellipse-curve $-1 39.313888490162988 -22.55833768475593 4.9488294188287458 0 -0.77714596973225614 0.62932038083071107 1 0 0 1 I I #
face $-1 $-1 $275 $39 $-1 $601 reversed single #
loop $-1 $-1 $427 $260 #
plane-surface $-1 0 24.163063479927516 0 0 -1 0 0 0 -1 forward_v I I I I #
coedge $-1 $602 $425 $428 $603 forward $261 $-1 #
coedge $-1 $431 $263 $264 $419 reversed $162 $-1 #
coedge $-1 $425 $602 $263 $417 reversed $261 $-1 #
edge $-1 $432 -6.930500793585094 $604 6.930500793585094 $416 $605 forward 7 unknown #
coedge $-1 $265 $264 $602 $606 forward $105 $-1 #
edge $-1 $423 -54.331492049928279 $604 54.331492049928279 $415 $607 forward 7 unknown #
coedge $-1 $428 $427 $265 $421 reversed $412 $-1 #
edge $-1 $608 -54.331492049928279 $422 54.331492049928279 $420 $609 forward 7 unknown #
vertex $-1 $267 $610 #
vertex $-1 $434 $611 #
straight-curve $-1 54.331492049928279 0 -6.930500793585094 0 -1 0 I I #
coedge $-1 $414 $416 $268 $426 reversed $261 $-1 #
edge $-1 $429 -24.163063479927516 $432 24.163063479927516 $425 $612 forward 7 unknown #
coedge $-1 $420 $269 $274 $435 forward $412 $-1 #
coedge $-1 $269 $420 $414 $603 reversed $412 $-1 #
vertex $-1 $270 $613 #
straight-curve $-1 0 24.163063479927516 6.930500793585094 -1 0 0 I I #
coedge $-1 $271 $415 $273 $434 reversed $162 $-1 #
vertex $-1 $426 $614 #
straight-curve $-1 0 -24.163063479927516 6.930500793585094 1 0 0 I I #
edge $-1 $276 -6.930500793585094 $423 6.930500793585094 $273 $615 forward 7 unknown #
edge $-1 $277 -6.930500793585094 $422 6.930500793585094 $274 $616 forward 7 unknown #
point $-1 54.331492049928279 -24.163063479927516 6.930500793585094 #
point $-1 54.331492049928279 24.163063479927516 6.930500793585094 #
face $-1 $-1 $455 $40 $-1 $617 reversed single #
loop $-1 $-1 $618 $279 #
plane-surface $-1 -54.331492049928279 0 0 1 0 0 0 0 -1 forward_v I I I I #
coedge $-1 $442 $458 $283 $445 forward $280 $-1 #
coedge $-1 $290 $441 $282 $443 forward $280 $-1 #
edge $-1 $449 -3.5821587792659177 $293 -0.58215877926591775 $442 $619 forward 7 unknown #
coedge $-1 $284 $283 $618 $620 reversed $109 $-1 #
edge $-1 $621 -28.766454395684548 $449 -22.363620912802915 $441 $622 forward 7 unknown #
coedge $-1 $454 $453 $284 $447 forward $455 $-1 #
edge $-1 $448 22.363620912802915 $623 28.766454395684548 $446 $624 forward 7 unknown #
vertex $-1 $447 $625 #
vertex $-1 $445 $626 #
straight-curve $-1 -47.928658567046647 0 -5.6643175585318355 0 -1 0 I I #
coedge $-1 $627 $628 $287 $452 forward $439 $-1 #
edge $-1 $459 -24.163063479927516 $456 24.163063479927516 $451 $629 forward 7 unknown #
coedge $-1 $446 $288 $292 $461 forward $455 $-1 #
coedge $-1 $288 $446 $627 $630 reversed $455 $-1 #
loop $-1 $-1 $446 $438 #
vertex $-1 $630 $631 #
straight-curve $-1 -25.565037654243731 24.163063479927516 -2.6643175585318355 1 0 0 I I #
coedge $-1 $441 $290 $628 $632 forward $280 $-1 #
vertex $-1 $632 $633 #
straight-curve $-1 -25.565037654243731 -24.163063479927516 -2.6643175585318355 -1 0 0 I I #
edge $-1 $294 0.58215877926591775 $448 3.5821587792659177 $453 $634 forward 7 unknown #
point $-1 -47.928658567046647 -24.163063479927516 -2.6643175585318355 #
point $-1 -47.928658567046647 24.163063479927516 -2.6643175585318355 #
face $-1 $-1 $311 $41 $-1 $635 reversed single #
loop $-1 $-1 $305 $296 #
plane-surface $-1 0 24.163063479927516 0 0 -1 0 0 0 -1 forward_v I I I I #
coedge $-1 $636 $299 $471 $637 reversed $178 $-1 #
coedge $-1 $299 $636 $304 $479 reversed $178 $-1 #
coedge $-1 $305 $474 $299 $470 forward $465 $-1 #
edge $-1 $638 -3.5821587792659177 $481 -0.58215877926591775 $469 $639 forward 7 unknown #
coedge $-1 $301 $300 $467 $637 forward $113 $-1 #
coedge $-1 $484 $483 $300 $473 forward $297 $-1 #
edge $-1 $640 22.363620912802919 $476 28.766454395684551 $472 $641 forward 7 unknown #
coedge $-1 $469 $480 $301 $475 forward $465 $-1 #
edge $-1 $477 -28.766454395684551 $638 -22.363620912802919 $474 $642 forward 7 unknown #
vertex $-1 $303 $643 #
vertex $-1 $303 $644 #
straight-curve $-1 54.331492049928279 0 -5.6643175585318355 0 1 0 I I #
edge $-1 $481 -24.163063479927516 $485 24.163063479927516 $468 $645 forward 7 unknown #
coedge $-1 $474 $305 $310 $488 forward $465 $-1 #
vertex $-1 $306 $646 #
straight-curve $-1 25.565037654243735 24.163063479927516 -2.6643175585318355 1 0 0 I I #
coedge $-1 $472 $307 $636 $647 forward $297 $-1 #
coedge $-1 $307 $472 $309 $487 reversed $297 $-1 #
vertex $-1 $308 $648 #
straight-curve $-1 25.565037654243735 -24.163063479927516 -2.6643175585318355 -1 0 0 I I #
edge $-1 $313 2.6643175585318355 $476 5.6643175585318355 $309 $649 forward 7 unknown #
edge $-1 $312 2.6643175585318355 $477 5.6643175585318355 $310 $650 forward 7 unknown #
point $-1 54.331492049928286 24.163063479927516 -2.6643175585318355 #
point $-1 54.331492049928286 -24.163063479927516 -2.6643175585318355 #
loop $-1 $-1 $323 $315 #
plane-surface $-1 0 0 6.930500793585094 0 0 1 1 0 0 forward_v I I I I #
coedge $-1 $494 $318 $320 $498 reversed $186 $-1 #
coedge $-1 $318 $493 $651 $652 reversed $186 $-1 #
coedge $-1 $326 $321 $318 $496 forward $316 $-1 #
edge $-1 $499 -52.067191300168183 $653 -48.763830098136353 $495 $654 forward 7 unknown #
coedge $-1 $320 $319 $502 $655 reversed $117 $-1 #
edge $-1 $656 43.949130493508754 $499 48.326126959855038 $493 $657 forward 7 unknown #
vertex $-1 $322 $658 #
straight-curve $-1 19.754280712686747 24.163063479927516 3.6271395915532629 -1 0 0 I I #
coedge $-1 $651 $323 $326 $506 forward $491 $-1 #
coedge $-1 $323 $651 $497 $655 forward $491 $-1 #
vertex $-1 $324 $659 #
straight-curve $-1 47.928658567046639 37.233634014488366 6.9305007935850966 0 1 0 I I #
straight-curve $-1 47.928658567046639 -7.5417279874413055 40.099330983772674 0 -0.65605901945558964 0.75470958851134928 I I #
edge $-1 $327 -47.928658567046639 $653 -31.088464283700347 $326 $660 forward 7 unknown #
point $-1 47.928658567046639 24.163063479927516 6.930500793585094 #
point $-1 47.928658567046639 24.163063479927519 3.6271395915532665 #
edge $-1 $661 1 $661 0 $330 $-1 forward 7 unknown #
vertex $-1 $331 $662 #
ellipse-curve $-1 39.508561425373507 21.953337655686919 4.6060428503728632 0 0.75470958851134928 0.65605901945558964 0.5 0 0 1 I I #
point $-1 40.008561425373507 22.727279474991658 5.2788201925691798 #
plane-surface $-1 0 -24.163063479927516 0 0 1 0 0 0 1 forward_v I I I I #
coedge $-1 $524 $523 $516 $663 forward $335 $-1 #
coedge $-1 $516 $337 $339 $520 reversed $201 $-1 #
coedge $-1 $337 $515 $514 $663 reversed $201 $-1 #
coedge $-1 $345 $340 $337 $518 forward $346 $-1 #
edge $-1 $521 -32.708336245925423 $664 -28.744993496412722 $517 $665 forward 7 unknown #
coedge $-1 $339 $338 $524 $666 reversed $126 $-1 #
edge $-1 $667 -5.099869141543846 $521 0 $515 $668 forward 7 unknown #
vertex $-1 $341 $669 #
straight-curve $-1 -19.656944245081498 -24.163063479927516 2.9671580440723897 1 0 0 I I #
coedge $-1 $514 $342 $345 $528 forward $335 $-1 #
coedge $-1 $342 $514 $519 $666 forward $335 $-1 #
vertex $-1 $343 $670 #
straight-curve $-1 -44.411400526348586 -54.305031816105632 6.9305007935850966 0 -1 0 I I #
straight-curve $-1 -44.411400526348586 -24.163063479927516 2.9671580440723915 0 0.62932038083071107 0.77714596973225614 I I #
edge $-1 $347 -44.411400526348586 $664 -34.216376453977404 $345 $671 forward 7 unknown #
point $-1 -44.411400526348586 -24.163063479927516 6.930500793585094 #
point $-1 -44.411400526348586 -24.163063479927516 2.9671580440723915 #
edge $-1 $672 1 $672 0 $350 $-1 forward 7 unknown #
vertex $-1 $351 $673 #
ellipse-curve $-1 -39.313888490162995 -20.311191189983088 3.1291261160373072 0 -0.77714596973225614 0.62932038083071107 1 0 0 1 I I #
point $-1 -38.313888490162995 -22.558337684755941 4.9488294188287547 #
loop $-1 $-1 $362 $354 #
plane-surface $-1 0 0 6.930500793585094 0 0 1 1 0 0 forward_v I I I I #
coedge $-1 $538 $357 $359 $542 reversed $216 $-1 #
coedge $-1 $357 $537 $674 $675 reversed $216 $-1 #
coedge $-1 $365 $360 $357 $540 forward $355 $-1 #
edge $-1 $543 -32.708336245925423 $676 -28.744993496412722 $539 $677 forward 7 unknown #
coedge $-1 $359 $358 $546 $678 reversed $135 $-1 #
edge $-1 $679 -5.099869141543846 $543 0 $537 $680 forward 7 unknown #
vertex $-1 $361 $681 #
straight-curve $-1 -6.552314748360498 -24.163063479927516 2.9671580440723897 1 0 0 I I #
coedge $-1 $674 $362 $365 $550 forward $535 $-1 #
coedge $-1 $362 $674 $541 $678 forward $535 $-1 #
vertex $-1 $363 $682 #
straight-curve $-1 -18.202141532906591 -54.305031816105632 6.9305007935850966 0 -1 0 I I #
straight-curve $-1 -18.202141532906591 -24.163063479927516 2.9671580440723915 0 0.62932038083071107 0.77714596973225614 I I #
edge $-1 $366 -18.202141532906591 $676 -8.007117460535401 $365 $683 forward 7 unknown #
point $-1 -18.202141532906591 -24.163063479927516 6.930500793585094 #
point $-1 -18.202141532906591 -24.163063479927516 2.9671580440723915 #
edge $-1 $684 1 $684 0 $369 $-1 forward 7 unknown #
vertex $-1 $370 $685 #
ellipse-curve $-1 -13.104629496720996 -20.311191189983088 3.1291261160373072 0 -0.77714596973225614 0.62932038083071107 1 0 0 1 I I #
point $-1 -12.104629496720996 -22.558337684755941 4.9488294188287547 #
loop $-1 $-1 $381 $373 #
plane-surface $-1 0 0 6.930500793585094 0 0 1 1 0 0 forward_v I I I I #
coedge $-1 $560 $376 $378 $564 reversed $231 $-1 #
coedge $-1 $376 $559 $686 $687 reversed $231 $-1 #
coedge $-1 $384 $379 $376 $562 forward $374 $-1 #
edge $-1 $565 -32.708336245925423 $688 -28.744993496412722 $561 $689 forward 7 unknown #
coedge $-1 $378 $377 $568 $690 reversed $144 $-1 #
edge $-1 $691 -5.099869141543846 $565 0 $559 $692 forward 7 unknown #
vertex $-1 $380 $693 #
straight-curve $-1 6.552314748360498 -24.163063479927516 2.9671580440723897 1 0 0 I I #
coedge $-1 $686 $381 $384 $572 forward $557 $-1 #
coedge $-1 $381 $686 $563 $690 forward $557 $-1 #
vertex $-1 $382 $694 #
straight-curve $-1 8.007117460535401 -54.305031816105632 6.9305007935850966 0 -1 0 I I #
straight-curve $-1 8.007117460535401 -24.163063479927516 2.9671580440723915 0 0.62932038083071107 0.77714596973225614 I I #
edge $-1 $385 8.007117460535401 $688 18.202141532906591 $384 $695 forward 7 unknown #
point $-1 8.007117460535401 -24.163063479927516 6.930500793585094 #
point $-1 8.007117460535401 -24.163063479927516 2.9671580440723915 #
edge $-1 $696 1 $696 0 $388 $-1 forward 7 unknown #
vertex $-1 $389 $697 #
ellipse-curve $-1 13.104629496720996 -20.311191189983088 3.1291261160373072 0 -0.77714596973225614 0.62932038083071107 1 0 0 1 I I #
point $-1 14.104629496720996 -22.558337684755941 4.9488294188287547 #
loop $-1 $-1 $400 $392 #
plane-surface $-1 0 0 6.930500793585094 0 0 1 1 0 0 forward_v I I I I #
coedge $-1 $582 $395 $397 $586 reversed $246 $-1 #
coedge $-1 $395 $581 $698 $699 reversed $246 $-1 #
coedge $-1 $403 $398 $395 $584 forward $393 $-1 #
edge $-1 $587 -32.708336245925423 $700 -28.744993496412722 $583 $701 forward 7 unknown #
coedge $-1 $397 $396 $590 $702 reversed $153 $-1 #
edge $-1 $703 -5.099869141543846 $587 0 $581 $704 forward 7 unknown #
vertex $-1 $399 $705 #
straight-curve $-1 19.656944245081494 -24.163063479927516 2.9671580440723897 1 0 0 I I #
coedge $-1 $698 $400 $403 $594 forward $579 $-1 #
coedge $-1 $400 $698 $585 $702 forward $579 $-1 #
vertex $-1 $401 $706 #
straight-curve $-1 34.216376453977389 -54.305031816105632 6.9305007935850966 0 -1 0 I I #
straight-curve $-1 34.216376453977389 -24.163063479927516 2.9671580440723915 0 0.62932038083071107 0.77714596973225614 I I #
edge $-1 $404 34.216376453977389 $700 44.411400526348586 $403 $707 forward 7 unknown #
point $-1 34.216376453977389 -24.163063479927516 6.930500793585094 #
point $-1 34.216376453977389 -24.163063479927516 2.9671580440723915 #
edge $-1 $708 1 $708 0 $407 $-1 forward 7 unknown #
vertex $-1 $408 $709 #
ellipse-curve $-1 39.313888490162988 -20.311191189983088 3.1291261160373072 0 -0.77714596973225614 0.62932038083071107 1 0 0 1 I I #
point $-1 40.313888490162988 -22.558337684755941 4.9488294188287547 #
plane-surface $-1 54.331492049928279 0 0 -1 0 0 0 0 1 forward_v I I I I #
coedge $-1 $416 $414 $418 $606 reversed $261 $-1 #
edge $-1 $429 -6.930500793585094 $608 6.930500793585094 $428 $710 forward 7 unknown #
vertex $-1 $606 $711 #
straight-curve $-1 -54.331492049928279 -24.163063479927516 0 0 0 -1 I I #
edge $-1 $604 -24.163063479927516 $608 24.163063479927516 $602 $712 forward 7 unknown #
straight-curve $-1 0 -24.163063479927516 -6.930500793585094 -1 0 0 I I #
vertex $-1 $421 $713 #
straight-curve $-1 0 24.163063479927516 -6.930500793585094 1 0 0 I I #
point $-1 54.331492049928279 24.163063479927516 -6.930500793585094 #
point $-1 54.331492049928279 -24.163063479927516 -6.930500793585094 #
straight-curve $-1 -54.331492049928279 0 6.930500793585094 0 -1 0 I I #
point $-1 -54.331492049928279 24.163063479927516 6.930500793585094 #
point $-1 -54.331492049928279 -24.163063479927516 6.930500793585094 #
straight-curve $-1 54.331492049928279 -24.163063479927516 0 0 0 -1 I I #
straight-curve $-1 54.331492049928279 24.163063479927516 0 0 0 -1 I I #
plane-surface $-1 0 24.163063479927516 0 0 -1 0 0 0 -1 forward_v I I I I #
coedge $-1 $628 $627 $444 $620 forward $439 $-1 #
straight-curve $-1 -47.928658567046647 -24.163063479927516 -2.0821587792659177 0 0 1 I I #
edge $-1 $623 -24.163063479927516 $621 24.163063479927516 $618 $714 forward 7 unknown #
vertex $-1 $445 $715 #
straight-curve $-1 -25.565037654243731 -24.163063479927516 -5.6643175585318355 1 0 0 I I #
vertex $-1 $447 $716 #
straight-curve $-1 -25.565037654243731 24.163063479927516 -5.6643175585318355 -1 0 0 I I #
point $-1 -47.928658567046647 24.163063479927516 -5.6643175585318355 #
point $-1 -47.928658567046647 -24.163063479927516 -5.6643175585318355 #
coedge $-1 $618 $451 $454 $630 forward $439 $-1 #
coedge $-1 $451 $618 $458 $632 reversed $439 $-1 #
straight-curve $-1 -54.331492049928279 0 -2.6643175585318355 0 1 0 I I #
edge $-1 $456 2.6643175585318355 $623 5.6643175585318355 $454 $717 forward 7 unknown #
point $-1 -54.331492049928279 24.163063479927516 -2.6643175585318355 #
edge $-1 $459 2.6643175585318355 $621 5.6643175585318355 $628 $718 forward 7 unknown #
point $-1 -54.331492049928279 -24.163063479927516 -2.6643175585318355 #
straight-curve $-1 -47.928658567046647 24.163063479927516 -2.0821587792659177 0 0 -1 I I #
plane-surface $-1 54.331492049928279 0 0 -1 0 0 0 0 1 forward_v I I I I #
coedge $-1 $468 $467 $483 $647 reversed $178 $-1 #
edge $-1 $640 -24.163063479927516 $638 24.163063479927516 $467 $719 forward 7 unknown #
vertex $-1 $475 $720 #
straight-curve $-1 47.928658567046654 24.163063479927516 -2.0821587792659177 0 0 1 I I #
vertex $-1 $473 $721 #
straight-curve $-1 25.565037654243735 -24.163063479927516 -5.6643175585318355 1 0 0 I I #
straight-curve $-1 25.565037654243735 24.163063479927516 -5.6643175585318355 -1 0 0 I I #
point $-1 54.331492049928286 -24.163063479927516 -5.6643175585318355 #
point $-1 54.331492049928286 24.163063479927516 -5.6643175585318355 #
straight-curve $-1 47.928658567046654 0 -2.6643175585318355 0 -1 0 I I #
point $-1 47.928658567046654 24.163063479927516 -2.6643175585318355 #
edge $-1 $485 0.58215877926591775 $640 3.5821587792659177 $483 $722 forward 7 unknown #
point $-1 47.928658567046654 -24.163063479927516 -2.6643175585318355 #
straight-curve $-1 54.331492049928279 -24.163063479927516 0 0 0 -1 I I #
straight-curve $-1 54.331492049928279 24.163063479927516 0 0 0 -1 I I #
coedge $-1 $502 $501 $494 $652 forward $491 $-1 #
edge $-1 $653 13.070570534560851 $656 15.94213854443257 $651 $723 forward 7 unknown #
vertex $-1 $652 $724 #
straight-curve $-1 31.088464283700347 24.163063479927516 55.694330891721449 0 0 1 I I #
edge $-1 $656 11.3341835710136 $503 28.174377854359893 $502 $725 forward 7 unknown #
vertex $-1 $655 $726 #
straight-curve $-1 31.088464283700347 -7.5417279874413055 40.099330983772674 0 0.65605901945558964 -0.75470958851134928 I I #
point $-1 31.088464283700347 24.163063479927519 3.6271395915532665 #
point $-1 47.928658567046639 21.291495470055796 6.9305007935850966 #
straight-curve $-1 0 24.163063479927516 6.930500793585094 -1 0 0 I I #
vertex $-1 $509 $727 #
point $-1 40.008561425373507 21.953337655686919 4.6060428503728632 #
edge $-1 $664 30.141968336178117 $667 33.351419926521281 $514 $728 forward 7 unknown #
vertex $-1 $518 $729 #
straight-curve $-1 -34.216376453977404 -24.163063479927516 35.675494289997815 0 0 1 I I #
edge $-1 $667 14.559432208895906 $525 24.754456281267089 $524 $730 forward 7 unknown #
vertex $-1 $666 $731 #
straight-curve $-1 -34.216376453977404 -24.163063479927516 2.9671580440723915 0 -0.62932038083071107 -0.77714596973225614 I I #
point $-1 -34.216376453977404 -24.163063479927516 2.9671580440723915 #
point $-1 -44.411400526348586 -20.953611889584352 6.9305007935850931 #
straight-curve $-1 0 -24.163063479927516 6.930500793585094 1 0 0 I I #
vertex $-1 $531 $732 #
point $-1 -38.313888490162995 -20.311191189983088 3.1291261160373072 #
coedge $-1 $546 $545 $538 $675 forward $535 $-1 #
edge $-1 $676 30.141968336178117 $679 33.351419926521281 $674 $733 forward 7 unknown #
vertex $-1 $675 $734 #
straight-curve $-1 -8.007117460535401 -24.163063479927516 35.675494289997815 0 0 1 I I #
edge $-1 $679 1.454802712174903 $547 11.649826784546093 $546 $735 forward 7 unknown #
vertex $-1 $678 $736 #
straight-curve $-1 -8.007117460535401 -24.163063479927516 2.9671580440723915 0 -0.62932038083071107 -0.77714596973225614 I I #
point $-1 -8.007117460535401 -24.163063479927516 2.9671580440723915 #
point $-1 -18.202141532906591 -20.953611889584352 6.9305007935850931 #
straight-curve $-1 0 -24.163063479927516 6.930500793585094 1 0 0 I I #
vertex $-1 $553 $737 #
point $-1 -12.104629496720996 -20.311191189983088 3.1291261160373072 #
coedge $-1 $568 $567 $560 $687 forward $557 $-1 #
edge $-1 $688 30.141968336178117 $691 33.351419926521281 $686 $738 forward 7 unknown #
vertex $-1 $687 $739 #
straight-curve $-1 18.202141532906591 -24.163063479927516 35.675494289997815 0 0 1 I I #
edge $-1 $691 -11.649826784546093 $569 -1.454802712174903 $568 $740 forward 7 unknown #
vertex $-1 $690 $741 #
straight-curve $-1 18.202141532906591 -24.163063479927516 2.9671580440723915 0 -0.62932038083071107 -0.77714596973225614 I I #
point $-1 18.202141532906591 -24.163063479927516 2.9671580440723915 #
point $-1 8.007117460535401 -20.953611889584352 6.9305007935850931 #
straight-curve $-1 0 -24.163063479927516 6.930500793585094 1 0 0 I I #
vertex $-1 $575 $742 #
point $-1 14.104629496720996 -20.311191189983088 3.1291261160373072 #
coedge $-1 $590 $589 $582 $699 forward $579 $-1 #
edge $-1 $700 30.141968336178117 $703 33.351419926521281 $698 $743 forward 7 unknown #
vertex $-1 $699 $744 #
straight-curve $-1 44.411400526348586 -24.163063479927516 35.675494289997815 0 0 1 I I #
edge $-1 $703 -24.754456281267093 $591 -14.559432208895895 $590 $745 forward 7 unknown #
vertex $-1 $702 $746 #
straight-curve $-1 44.411400526348586 -24.163063479927516 2.9671580440723915 0 -0.62932038083071107 -0.77714596973225614 I I #
point $-1 44.411400526348586 -24.163063479927516 2.9671580440723915 #
point $-1 34.216376453977389 -20.953611889584352 6.9305007935850931 #
straight-curve $-1 0 -24.163063479927516 6.930500793585094 1 0 0 I I #
vertex $-1 $597 $747 #
point $-1 40.313888490162988 -20.311191189983088 3.1291261160373072 #
straight-curve $-1 -54.331492049928279 24.163063479927516 0 0 0 -1 I I #
point $-1 -54.331492049928279 -24.163063479927516 -6.930500793585094 #
straight-curve $-1 -54.331492049928279 0 -6.930500793585094 0 1 0 I I #
point $-1 -54.331492049928279 24.163063479927516 -6.930500793585094 #
straight-curve $-1 -54.331492049928279 0 -5.6643175585318355 0 -1 0 I I #
point $-1 -54.331492049928279 -24.163063479927516 -5.6643175585318355 #
point $-1 -54.331492049928279 24.163063479927516 -5.6643175585318355 #
straight-curve $-1 -54.331492049928279 24.163063479927516 0 0 0 -1 I I #
straight-curve $-1 -54.331492049928279 -24.163063479927516 0 0 0 -1 I I #
straight-curve $-1 47.928658567046654 0 -5.6643175585318355 0 1 0 I I #
point $-1 47.928658567046654 24.163063479927516 -5.6643175585318355 #
point $-1 47.928658567046654 -24.163063479927516 -5.6643175585318355 #
straight-curve $-1 47.928658567046654 -24.163063479927516 -2.0821587792659177 0 0 -1 I I #
straight-curve $-1 31.088464283700347 37.233634014488366 6.9305007935850966 0 -1 0 I I #
point $-1 31.088464283700347 24.163063479927516 6.930500793585094 #
straight-curve $-1 19.754280712686747 21.291495470055803 6.9305007935850931 1 0 0 I I #
point $-1 31.088464283700347 21.291495470055796 6.9305007935850966 #
point $-1 39.508561425373507 21.575982861431246 4.2780133406450682 #
straight-curve $-1 -34.216376453977404 -54.305031816105632 6.9305007935850966 0 1 0 I I #
point $-1 -34.216376453977404 -24.163063479927516 6.930500793585094 #
straight-curve $-1 -19.656944245081498 -20.953611889584352 6.9305007935850931 -1 0 0 I I #
point $-1 -34.216376453977404 -20.953611889584352 6.9305007935850931 #
point $-1 -39.313888490162995 -19.534045220250835 2.4998057352065963 #
straight-curve $-1 -8.007117460535401 -54.305031816105632 6.9305007935850966 0 1 0 I I #
point $-1 -8.007117460535401 -24.163063479927516 6.930500793585094 #
straight-curve $-1 -6.552314748360498 -20.953611889584352 6.9305007935850931 -1 0 0 I I #
point $-1 -8.007117460535401 -20.953611889584352 6.9305007935850931 #
point $-1 -13.104629496720996 -19.534045220250835 2.4998057352065963 #
straight-curve $-1 18.202141532906591 -54.305031816105632 6.9305007935850966 0 1 0 I I #
point $-1 18.202141532906591 -24.163063479927516 6.930500793585094 #
straight-curve $-1 6.552314748360498 -20.953611889584352 6.9305007935850931 -1 0 0 I I #
point $-1 18.202141532906591 -20.953611889584352 6.9305007935850931 #
point $-1 13.104629496720996 -19.534045220250835 2.4998057352065963 #
straight-curve $-1 44.411400526348586 -54.305031816105632 6.9305007935850966 0 1 0 I I #
point $-1 44.411400526348586 -24.163063479927516 6.930500793585094 #
straight-curve $-1 19.656944245081494 -20.953611889584352 6.9305007935850931 -1 0 0 I I #
point $-1 44.411400526348586 -20.953611889584352 6.9305007935850931 #
point $-1 39.313888490162988 -19.534045220250835 2.4998057352065963 #
End-of-ACIS-data 