500 0 6 0           
7 Unknown 11 ACIS 5.0 NT 24 Fri Mar 26 00:41:27 1999 
-1 9.9999999999999995e-007 1e-010 
body $-1 $6 $-1 $7 #
body $-1 $8 $-1 $9 #
body $-1 $10 $-1 $11 #
body $-1 $12 $-1 $13 #
body $-1 $14 $-1 $15 #
body $-1 $16 $-1 $17 #
lump $-1 $-1 $18 $0 #
transform $-1 1 0 0 0 1 0 0 0 1 72.265388958403264 41.587609883410579 13.13829344249096 1 rotate no_reflect no_shear #
lump $-1 $-1 $19 $1 #
transform $-1 1 0 0 0 1 0 0 0 1 72.265388958403264 41.587609883410579 13.13829344249096 1 rotate no_reflect no_shear #
lump $-1 $-1 $20 $2 #
transform $-1 1 0 0 0 1 0 0 0 1 72.265388958403264 41.587609883410579 13.13829344249096 1 rotate no_reflect no_shear #
lump $-1 $-1 $21 $3 #
transform $-1 1 0 0 0 1 0 0 0 1 72.265388958403264 41.587609883410579 13.13829344249096 1 rotate no_reflect no_shear #
lump $-1 $-1 $22 $4 #
transform $-1 1 0 0 0 1 0 0 0 1 72.265388958403264 41.587609883410579 13.13829344249096 1 rotate no_reflect no_shear #
lump $-1 $-1 $23 $5 #
transform $-1 1 0 0 0 1 0 0 0 1 72.265388958403264 41.587609883410579 13.13829344249096 1 rotate no_reflect no_shear #
shell $-1 $-1 $-1 $24 $-1 $6 #
shell $-1 $-1 $-1 $25 $-1 $8 #
shell $-1 $-1 $-1 $26 $-1 $10 #
shell $-1 $-1 $-1 $27 $-1 $12 #
shell $-1 $-1 $-1 $28 $-1 $14 #
shell $-1 $-1 $-1 $29 $-1 $16 #
face $-1 $30 $31 $18 $-1 $32 forward single #
face $-1 $33 $34 $19 $-1 $35 forward single #
face $-1 $36 $37 $20 $-1 $38 reversed single #
face $-1 $39 $40 $21 $-1 $41 forward single #
face $-1 $42 $43 $22 $-1 $44 reversed single #
face $-1 $45 $46 $23 $-1 $47 forward single #
face $-1 $48 $49 $18 $-1 $50 reversed single #
loop $-1 $-1 $51 $24 #
plane-surface $-1 0 0 13.13829344249096 0 0 1 1 0 0 forward_v I I I I #
face $-1 $52 $53 $19 $-1 $54 reversed single #
loop $-1 $-1 $55 $25 #
plane-surface $-1 0 -41.587609883410579 0 0 1 0 0 0 1 forward_v I I I I #
face $-1 $56 $57 $20 $-1 $58 reversed single #
loop $-1 $-1 $59 $26 #
plane-surface $-1 -61.850279155536548 50.548105913958139 166.51820322866411 1 0 0 0 -0.54463904215088732 -0.83867056331134215 forward_v I I I I #
face $-1 $60 $61 $21 $-1 $62 forward single #
loop $-1 $63 $64 $27 #
cone-surface $-1 -51.595130823765949 28.961394530351505 2.7003785177686641 0 -0.54463904215088732 -0.83867056331134215 4 0 0 1 I I 0 1 4 forward I I I I #
face $-1 $65 $66 $22 $-1 $67 reversed single #
loop $-1 $-1 $68 $28 #
plane-surface $-1 41.339982491995372 50.548105913958139 166.51820322866411 1 0 0 0 -0.54463904215088732 -0.83867056331134215 forward_v I I I I #
face $-1 $69 $70 $23 $-1 $71 forward single #
loop $-1 $72 $73 $29 #
cone-surface $-1 51.59513082376597 28.961394530351505 2.7003785177686641 0 -0.54463904215088732 -0.83867056331134215 4 0 0 1 I I 0 1 4 forward I I I I #
face $-1 $74 $75 $18 $-1 $76 reversed single #
loop $-1 $-1 $77 $30 #
plane-surface $-1 0 0 -13.13829344249096 0 0 1 1 0 0 forward_v I I I I #
coedge $-1 $78 $79 $80 $81 forward $31 $-1 #
face $-1 $82 $83 $19 $-1 $84 reversed single #
loop $-1 $-1 $85 $33 #
plane-surface $-1 0 0 -13.13829344249096 0 0 1 1 0 0 forward_v I I I I #
coedge $-1 $86 $87 $88 $89 forward $34 $-1 #
face $-1 $90 $91 $20 $-1 $92 reversed single #
loop $-1 $-1 $93 $36 #
plane-surface $-1 -51.595130823765949 -28.168998531973983 45.304494297349478 0 0.54463904215088732 0.83867056331134215 1 0 0 forward_v I I I I #
coedge $-1 $94 $95 $96 $97 reversed $37 $-1 #
face $-1 $-1 $98 $21 $-1 $99 forward single #
loop $-1 $100 $101 $39 #
cone-surface $-1 -51.595130823765949 25.358402904298487 -2.847741948760051 0 -0.54463904215088732 -0.83867056331134215 2 0 0 1 I I -0.70710678118654746 0.70710678118654746 2 forward I I I I #
loop $-1 $-1 $102 $27 #
coedge $-1 $64 $64 $103 $104 reversed $40 $-1 #
face $-1 $105 $106 $22 $-1 $107 reversed single #
loop $-1 $-1 $108 $42 #
plane-surface $-1 51.59513082376597 -28.168998531973983 45.304494297349478 0 0.54463904215088732 0.83867056331134215 1 0 0 forward_v I I I I #
coedge $-1 $109 $110 $111 $112 reversed $43 $-1 #
face $-1 $-1 $113 $23 $-1 $114 forward single #
loop $-1 $115 $116 $45 #
cone-surface $-1 51.59513082376597 25.358402904298487 -2.847741948760051 0 -0.54463904215088732 -0.83867056331134215 2 0 0 1 I I -0.70710678118654746 0.70710678118654746 2 forward I I I I #
loop $-1 $-1 $117 $29 #
coedge $-1 $73 $73 $118 $119 reversed $46 $-1 #
face $-1 $120 $121 $18 $-1 $122 reversed single #
loop $-1 $-1 $123 $48 #
plane-surface $-1 0 -41.587609883410579 0 0 1 0 0 0 1 forward_v I I I I #
coedge $-1 $124 $125 $126 $127 forward $49 $-1 #
coedge $-1 $128 $51 $129 $130 forward $31 $-1 #
coedge $-1 $51 $128 $131 $132 forward $31 $-1 #
coedge $-1 $133 $134 $51 $81 reversed $135 $-1 #
edge $-1 $136 -41.587609883410579 $137 41.587609883410579 $80 $138 forward 7 unknown #
face $-1 $139 $140 $19 $-1 $141 forward single #
loop $-1 $-1 $142 $52 #
plane-surface $-1 72.265388958403264 0 0 -1 0 0 0 0 1 forward_v I I I I #
coedge $-1 $143 $144 $145 $146 forward $53 $-1 #
coedge $-1 $145 $55 $142 $147 reversed $34 $-1 #
coedge $-1 $55 $145 $148 $149 reversed $34 $-1 #
coedge $-1 $150 $151 $55 $89 reversed $140 $-1 #
edge $-1 $152 -72.265388958403264 $153 72.265388958403264 $88 $154 forward 7 unknown #
face $-1 $155 $156 $20 $-1 $157 forward single #
loop $-1 $-1 $158 $56 #
plane-surface $-1 -41.33998249199535 50.548105913958139 166.51820322866411 -1 0 0 0 0.54463904215088732 0.83867056331134215 forward_v I I I I #
coedge $-1 $159 $160 $161 $162 reversed $57 $-1 #
coedge $-1 $95 $59 $163 $164 reversed $37 $-1 #
coedge $-1 $59 $94 $159 $165 reversed $37 $-1 #
coedge $-1 $161 $166 $59 $97 forward $156 $-1 #
edge $-1 $167 -16.313556926431509 $168 3.9114466961841288 $96 $169 forward 7 unknown #
loop $-1 $-1 $103 $60 #
plane-surface $-1 -51.595130823765949 -28.168998531973983 45.304494297349478 0 0.54463904215088732 0.83867056331134215 1 0 0 forward_v I I I I #
loop $-1 $-1 $170 $39 #
coedge $-1 $101 $101 $102 $171 reversed $61 $-1 #
coedge $-1 $102 $102 $101 $171 forward $63 $-1 #
coedge $-1 $103 $103 $64 $104 forward $98 $-1 #
edge $-1 $172 1.8401593211017982e-016 $172 6.2831853071796004 $103 $173 forward 7 unknown #
face $-1 $174 $175 $22 $-1 $176 forward single #
loop $-1 $-1 $177 $65 #
plane-surface $-1 61.850279155536569 50.548105913958139 166.51820322866411 -1 0 0 0 0.54463904215088732 0.83867056331134215 forward_v I I I I #
coedge $-1 $178 $179 $180 $181 reversed $66 $-1 #
coedge $-1 $110 $68 $182 $183 reversed $43 $-1 #
coedge $-1 $68 $109 $178 $184 reversed $43 $-1 #
coedge $-1 $180 $185 $68 $112 forward $175 $-1 #
edge $-1 $186 -16.313556926431509 $187 3.9114466961841288 $111 $188 forward 7 unknown #
loop $-1 $-1 $118 $69 #
plane-surface $-1 51.59513082376597 -28.168998531973983 45.304494297349478 0 0.54463904215088732 0.83867056331134215 1 0 0 forward_v I I I I #
loop $-1 $-1 $189 $45 #
coedge $-1 $116 $116 $117 $190 reversed $70 $-1 #
coedge $-1 $117 $117 $116 $190 forward $72 $-1 #
coedge $-1 $118 $118 $73 $119 forward $113 $-1 #
edge $-1 $191 1.8401593211017982e-016 $191 6.2831853071796004 $118 $192 forward 7 unknown #
face $-1 $193 $194 $18 $-1 $195 reversed single #
loop $-1 $-1 $196 $74 #
plane-surface $-1 -72.265388958403264 0 0 1 0 0 0 0 -1 forward_v I I I I #
coedge $-1 $197 $131 $198 $199 forward $75 $-1 #
coedge $-1 $200 $77 $197 $201 forward $49 $-1 #
coedge $-1 $77 $200 $202 $203 forward $49 $-1 #
coedge $-1 $134 $133 $77 $127 reversed $135 $-1 #
edge $-1 $204 -41.587609883410579 $205 41.587609883410579 $126 $206 forward 7 unknown #
coedge $-1 $79 $78 $207 $208 forward $31 $-1 #
coedge $-1 $209 $210 $78 $130 reversed $194 $-1 #
edge $-1 $137 -72.265388958403264 $211 72.265388958403264 $129 $212 forward 7 unknown #
coedge $-1 $123 $213 $79 $132 reversed $75 $-1 #
edge $-1 $214 -72.265388958403264 $136 72.265388958403264 $131 $215 forward 7 unknown #
coedge $-1 $126 $80 $213 $216 forward $135 $-1 #
coedge $-1 $80 $126 $209 $217 reversed $135 $-1 #
loop $-1 $-1 $133 $193 #
vertex $-1 $81 $218 #
vertex $-1 $81 $219 #
straight-curve $-1 72.265388958403264 0 13.13829344249096 0 1 0 I I #
face $-1 $220 $221 $19 $-1 $222 reversed single #
loop $-1 $-1 $151 $82 #
plane-surface $-1 0 -47.350816708257987 -9.1935576245669939 0 0 1 1 0 0 forward_v I I I I #
coedge $-1 $223 $224 $86 $147 forward $83 $-1 #
coedge $-1 $225 $85 $224 $226 forward $53 $-1 #
coedge $-1 $85 $225 $227 $228 forward $53 $-1 #
coedge $-1 $87 $86 $85 $146 reversed $34 $-1 #
edge $-1 $229 -72.265388958403264 $230 72.265388958403264 $85 $231 forward 7 unknown #
edge $-1 $230 -13.13829344249096 $153 -9.1935576245669939 $142 $232 forward 7 unknown #
coedge $-1 $227 $233 $87 $149 forward $234 $-1 #
edge $-1 $152 9.1935576245669939 $229 13.13829344249096 $148 $235 forward 7 unknown #
coedge $-1 $236 $88 $233 $237 forward $140 $-1 #
coedge $-1 $88 $236 $223 $238 forward $140 $-1 #
vertex $-1 $149 $239 #
vertex $-1 $238 $240 #
straight-curve $-1 0 -41.587609883410579 -9.1935576245669939 1 0 0 I I #
face $-1 $-1 $241 $20 $-1 $242 reversed single #
loop $-1 $-1 $96 $90 #
plane-surface $-1 0 0 13.13829344249096 0 0 1 1 0 0 forward_v I I I I #
coedge $-1 $243 $244 $245 $246 reversed $91 $-1 #
coedge $-1 $247 $93 $95 $165 forward $57 $-1 #
coedge $-1 $93 $247 $243 $248 forward $57 $-1 #
coedge $-1 $245 $96 $93 $162 forward $156 $-1 #
edge $-1 $168 -36.05271374365357 $249 -15.542417080112376 $161 $250 forward 7 unknown #
coedge $-1 $251 $252 $94 $164 forward $241 $-1 #
edge $-1 $253 -83.255079341473589 $167 -70.120808171841091 $163 $254 forward 7 unknown #
edge $-1 $168 59.059667716489486 $253 83.175219766821129 $95 $255 forward 7 unknown #
coedge $-1 $96 $245 $251 $256 forward $156 $-1 #
vertex $-1 $164 $257 #
vertex $-1 $97 $258 #
straight-curve $-1 -61.850279155536548 25.27405295697907 13.138293442490962 0 -1 0 I I #
coedge $-1 $170 $170 $-1 $259 reversed $100 $-1 #
edge $-1 $260 0 $260 6.2831853071796004 $101 $261 forward 7 unknown #
vertex $-1 $104 $262 #
ellipse-curve $-1 -51.595130823765949 31.47510807210276 6.5711578576747129 0 0.54463904215088732 0.83867056331134215 4 0 0 1 I I #
face $-1 $-1 $263 $22 $-1 $264 reversed single #
loop $-1 $-1 $111 $105 #
plane-surface $-1 0 0 13.13829344249096 0 0 1 1 0 0 forward_v I I I I #
coedge $-1 $265 $266 $267 $268 reversed $106 $-1 #
coedge $-1 $269 $108 $110 $184 forward $66 $-1 #
coedge $-1 $108 $269 $265 $270 forward $66 $-1 #
coedge $-1 $267 $111 $108 $181 forward $175 $-1 #
edge $-1 $187 15.542417080112386 $271 36.052713743653584 $180 $272 forward 7 unknown #
coedge $-1 $273 $274 $109 $183 forward $263 $-1 #
edge $-1 $275 -83.255079341473589 $186 -70.120808171841091 $182 $276 forward 7 unknown #
edge $-1 $187 59.059667716489486 $275 83.175219766821129 $110 $277 forward 7 unknown #
coedge $-1 $111 $267 $273 $278 forward $175 $-1 #
vertex $-1 $112 $279 #
vertex $-1 $112 $280 #
straight-curve $-1 41.339982491995372 25.27405295697907 13.138293442490962 0 -1 0 I I #
coedge $-1 $189 $189 $-1 $281 reversed $115 $-1 #
edge $-1 $282 0 $282 6.2831853071796004 $116 $283 forward 7 unknown #
vertex $-1 $119 $284 #
ellipse-curve $-1 51.59513082376597 31.47510807210276 6.5711578576747129 0 0.54463904215088732 0.83867056331134215 4 0 0 1 I I #
face $-1 $-1 $135 $18 $-1 $285 reversed single #
loop $-1 $-1 $209 $120 #
plane-surface $-1 0 41.587609883410579 0 0 -1 0 0 0 -1 forward_v I I I I #
coedge $-1 $286 $207 $210 $287 forward $121 $-1 #
coedge $-1 $213 $123 $124 $201 reversed $75 $-1 #
coedge $-1 $207 $286 $123 $199 reversed $121 $-1 #
edge $-1 $214 -13.13829344249096 $288 13.13829344249096 $198 $289 forward 7 unknown #
coedge $-1 $125 $124 $286 $290 forward $49 $-1 #
edge $-1 $205 -72.265388958403264 $288 72.265388958403264 $197 $291 forward 7 unknown #
coedge $-1 $210 $209 $125 $203 reversed $194 $-1 #
edge $-1 $292 -72.265388958403264 $204 72.265388958403264 $202 $293 forward 7 unknown #
vertex $-1 $127 $294 #
vertex $-1 $216 $295 #
straight-curve $-1 72.265388958403264 0 -13.13829344249096 0 -1 0 I I #
coedge $-1 $196 $198 $128 $208 reversed $121 $-1 #
edge $-1 $211 -41.587609883410579 $214 41.587609883410579 $207 $296 forward 7 unknown #
coedge $-1 $202 $129 $134 $217 forward $194 $-1 #
coedge $-1 $129 $202 $196 $287 reversed $194 $-1 #
vertex $-1 $130 $297 #
straight-curve $-1 0 41.587609883410579 13.13829344249096 -1 0 0 I I #
coedge $-1 $131 $197 $133 $216 reversed $75 $-1 #
vertex $-1 $208 $298 #
straight-curve $-1 0 -41.587609883410579 13.13829344249096 1 0 0 I I #
edge $-1 $136 -13.13829344249096 $205 13.13829344249096 $133 $299 forward 7 unknown #
edge $-1 $137 -13.13829344249096 $204 13.13829344249096 $134 $300 forward 7 unknown #
point $-1 72.265388958403264 -41.587609883410579 13.13829344249096 #
point $-1 72.265388958403264 41.587609883410579 13.13829344249096 #
face $-1 $-1 $234 $19 $-1 $301 reversed single #
loop $-1 $-1 $302 $139 #
plane-surface $-1 0 -53.114023533105396 -11.165925533528977 0 1 0 0 0 1 forward_v I I I I #
coedge $-1 $303 $142 $151 $238 reversed $83 $-1 #
coedge $-1 $142 $303 $143 $226 reversed $83 $-1 #
coedge $-1 $144 $143 $304 $305 forward $53 $-1 #
edge $-1 $230 41.587609883410579 $306 53.114023533105396 $224 $307 forward 7 unknown #
coedge $-1 $308 $148 $144 $228 reversed $234 $-1 #
edge $-1 $309 -53.114023533105396 $229 -41.587609883410579 $227 $310 forward 7 unknown #
vertex $-1 $149 $311 #
vertex $-1 $226 $312 #
straight-curve $-1 0 -41.587609883410579 -13.13829344249096 1 0 0 I I #
straight-curve $-1 72.265388958403264 -41.587609883410579 0 0 0 1 I I #
coedge $-1 $148 $308 $150 $237 reversed $234 $-1 #
loop $-1 $-1 $148 $220 #
straight-curve $-1 -72.265388958403264 -41.587609883410579 0 0 0 -1 I I #
coedge $-1 $151 $150 $313 $314 forward $140 $-1 #
edge $-1 $152 -5.7632068248474084 $315 5.7632068248474084 $233 $316 forward 7 unknown #
edge $-1 $317 -5.7632068248474084 $153 5.7632068248474084 $223 $318 forward 7 unknown #
point $-1 -72.265388958403264 -41.587609883410579 -9.1935576245669939 #
point $-1 72.265388958403264 -41.587609883410579 -9.1935576245669939 #
loop $-1 $-1 $163 $155 #
plane-surface $-1 0 41.587609883410579 0 0 -1 0 0 0 -1 forward_v I I I I #
coedge $-1 $244 $158 $160 $248 reversed $91 $-1 #
coedge $-1 $158 $243 $319 $320 reversed $91 $-1 #
coedge $-1 $166 $161 $158 $246 forward $156 $-1 #
edge $-1 $249 -3.9114466961841288 $321 16.313556926431509 $245 $322 forward 7 unknown #
coedge $-1 $160 $159 $252 $323 reversed $57 $-1 #
edge $-1 $324 -83.175219766821129 $249 -59.059667716489486 $243 $325 forward 7 unknown #
vertex $-1 $162 $326 #
straight-curve $-1 -25.797565411882974 21.362606260794948 13.138293442490962 1 0 0 I I #
coedge $-1 $319 $163 $166 $256 reversed $241 $-1 #
coedge $-1 $163 $319 $247 $323 forward $241 $-1 #
vertex $-1 $164 $327 #
straight-curve $-1 -61.850279155536548 41.587609883410579 83.259101614332053 0 0 1 I I #
straight-curve $-1 -61.850279155536548 -28.168998531973983 45.304494297349478 0 0.83867056331134215 -0.54463904215088732 I I #
edge $-1 $321 41.33998249199535 $167 61.850279155536548 $251 $328 forward 7 unknown #
point $-1 -61.850279155536548 41.587609883410579 13.13829344249096 #
point $-1 -61.850279155536548 21.362606260794941 13.138293442490962 #
edge $-1 $329 1 $329 0 $170 $-1 forward 7 unknown #
vertex $-1 $171 $330 #
ellipse-curve $-1 -51.595130823765949 26.447680988600261 -1.1704008221373667 0 0.54463904215088732 0.83867056331134215 4 0 0 1 I I #
point $-1 -47.595130823765949 31.475108072102749 6.5711578576746952 #
loop $-1 $-1 $182 $174 #
plane-surface $-1 0 41.587609883410579 0 0 -1 0 0 0 -1 forward_v I I I I #
coedge $-1 $266 $177 $179 $270 reversed $106 $-1 #
coedge $-1 $177 $265 $331 $332 reversed $106 $-1 #
coedge $-1 $185 $180 $177 $268 forward $175 $-1 #
edge $-1 $271 -3.9114466961841288 $333 16.313556926431509 $267 $334 forward 7 unknown #
coedge $-1 $179 $178 $274 $335 reversed $66 $-1 #
edge $-1 $336 -83.175219766821129 $271 -59.059667716489486 $265 $337 forward 7 unknown #
vertex $-1 $181 $338 #
straight-curve $-1 25.797565411882985 21.362606260794948 13.138293442490962 1 0 0 I I #
coedge $-1 $331 $182 $185 $278 reversed $263 $-1 #
coedge $-1 $182 $331 $269 $335 forward $263 $-1 #
vertex $-1 $183 $339 #
straight-curve $-1 41.339982491995372 41.587609883410579 83.259101614332053 0 0 1 I I #
straight-curve $-1 41.339982491995372 -28.168998531973983 45.304494297349478 0 0.83867056331134215 -0.54463904215088732 I I #
edge $-1 $333 -61.850279155536569 $186 -41.339982491995372 $273 $340 forward 7 unknown #
point $-1 41.339982491995372 41.587609883410579 13.13829344249096 #
point $-1 41.339982491995372 21.362606260794941 13.138293442490962 #
edge $-1 $341 1 $341 0 $189 $-1 forward 7 unknown #
vertex $-1 $190 $342 #
ellipse-curve $-1 51.59513082376597 26.447680988600261 -1.1704008221373667 0 0.54463904215088732 0.83867056331134215 4 0 0 1 I I #
point $-1 55.59513082376597 31.475108072102749 6.5711578576746952 #
plane-surface $-1 72.265388958403264 0 0 -1 0 0 0 0 1 forward_v I I I I #
coedge $-1 $198 $196 $200 $290 reversed $121 $-1 #
edge $-1 $211 -13.13829344249096 $292 13.13829344249096 $210 $343 forward 7 unknown #
vertex $-1 $290 $344 #
straight-curve $-1 -72.265388958403264 -41.587609883410579 0 0 0 -1 I I #
edge $-1 $288 -41.587609883410579 $292 41.587609883410579 $286 $345 forward 7 unknown #
straight-curve $-1 0 -41.587609883410579 -13.13829344249096 -1 0 0 I I #
vertex $-1 $203 $346 #
straight-curve $-1 0 41.587609883410579 -13.13829344249096 1 0 0 I I #
point $-1 72.265388958403264 41.587609883410579 -13.13829344249096 #
point $-1 72.265388958403264 -41.587609883410579 -13.13829344249096 #
straight-curve $-1 -72.265388958403264 0 13.13829344249096 0 -1 0 I I #
point $-1 -72.265388958403264 41.587609883410579 13.13829344249096 #
point $-1 -72.265388958403264 -41.587609883410579 13.13829344249096 #
straight-curve $-1 72.265388958403264 -41.587609883410579 0 0 0 -1 I I #
straight-curve $-1 72.265388958403264 41.587609883410579 0 0 0 -1 I I #
plane-surface $-1 -72.265388958403264 0 0 1 0 0 0 0 -1 forward_v I I I I #
coedge $-1 $304 $313 $308 $347 forward $221 $-1 #
coedge $-1 $224 $223 $348 $349 forward $83 $-1 #
coedge $-1 $348 $302 $225 $305 reversed $221 $-1 #
edge $-1 $306 -72.265388958403264 $309 72.265388958403264 $304 $350 forward 7 unknown #
vertex $-1 $349 $351 #
straight-curve $-1 72.265388958403264 0 -13.13829344249096 0 -1 0 I I #
coedge $-1 $233 $227 $302 $347 reversed $234 $-1 #
vertex $-1 $228 $352 #
straight-curve $-1 -72.265388958403264 0 -13.13829344249096 0 1 0 I I #
point $-1 -72.265388958403264 -41.587609883410579 -13.13829344249096 #
point $-1 72.265388958403264 -41.587609883410579 -13.13829344249096 #
coedge $-1 $302 $348 $236 $314 reversed $221 $-1 #
edge $-1 $315 -72.265388958403264 $317 72.265388958403264 $313 $353 forward 7 unknown #
vertex $-1 $237 $354 #
straight-curve $-1 -72.265388958403264 -47.350816708257987 -9.1935576245669939 0 -1 0 I I #
vertex $-1 $238 $355 #
straight-curve $-1 72.265388958403264 -47.350816708257987 -9.1935576245669939 0 1 0 I I #
coedge $-1 $252 $251 $244 $320 forward $241 $-1 #
edge $-1 $321 70.120808171841091 $324 83.255079341473589 $319 $356 forward 7 unknown #
vertex $-1 $256 $357 #
straight-curve $-1 -41.33998249199535 25.27405295697907 13.138293442490962 0 1 0 I I #
edge $-1 $324 15.542417080112376 $253 36.05271374365357 $252 $358 forward 7 unknown #
vertex $-1 $323 $359 #
straight-curve $-1 -41.33998249199535 -28.168998531973983 45.304494297349478 0 -0.83867056331134215 0.54463904215088732 I I #
point $-1 -41.33998249199535 21.362606260794941 13.138293442490962 #
point $-1 -61.850279155536548 41.587609883410579 0.0040222728584708989 #
straight-curve $-1 0 41.587609883410579 13.13829344249096 -1 0 0 I I #
vertex $-1 $259 $360 #
point $-1 -47.595130823765949 26.447680988600261 -1.1704008221373667 #
coedge $-1 $274 $273 $266 $332 forward $263 $-1 #
edge $-1 $333 70.120808171841091 $336 83.255079341473589 $331 $361 forward 7 unknown #
vertex $-1 $278 $362 #
straight-curve $-1 61.850279155536569 25.27405295697907 13.138293442490962 0 1 0 I I #
edge $-1 $336 -36.052713743653584 $275 -15.542417080112386 $274 $363 forward 7 unknown #
vertex $-1 $335 $364 #
straight-curve $-1 61.850279155536569 -28.168998531973983 45.304494297349478 0 -0.83867056331134215 0.54463904215088732 I I #
point $-1 61.850279155536569 21.362606260794941 13.138293442490962 #
point $-1 41.339982491995372 41.587609883410579 0.0040222728584708989 #
straight-curve $-1 0 41.587609883410579 13.13829344249096 -1 0 0 I I #
vertex $-1 $281 $365 #
point $-1 55.59513082376597 26.447680988600261 -1.1704008221373667 #
straight-curve $-1 -72.265388958403264 41.587609883410579 0 0 0 -1 I I #
point $-1 -72.265388958403264 -41.587609883410579 -13.13829344249096 #
straight-curve $-1 -72.265388958403264 0 -13.13829344249096 0 1 0 I I #
point $-1 -72.265388958403264 41.587609883410579 -13.13829344249096 #
edge $-1 $315 -1.9723679089619832 $309 1.9723679089619832 $308 $366 forward 7 unknown #
coedge $-1 $313 $304 $303 $349 reversed $221 $-1 #
edge $-1 $317 -1.9723679089619832 $306 1.9723679089619832 $303 $367 forward 7 unknown #
straight-curve $-1 0 -53.114023533105396 -13.13829344249096 -1 0 0 I I #
point $-1 72.265388958403264 -53.114023533105396 -13.13829344249096 #
point $-1 -72.265388958403264 -53.114023533105396 -13.13829344249096 #
straight-curve $-1 0 -53.114023533105396 -9.1935576245669939 1 0 0 I I #
point $-1 -72.265388958403264 -53.114023533105396 -9.1935576245669939 #
point $-1 72.265388958403264 -53.114023533105396 -9.1935576245669939 #
straight-curve $-1 -41.33998249199535 41.587609883410579 83.259101614332053 0 0 -1 I I #
point $-1 -41.33998249199535 41.587609883410579 13.13829344249096 #
straight-curve $-1 -25.797565411882974 41.587609883410579 0.0040222728584673462 -1 0 0 I I #
point $-1 -41.33998249199535 41.587609883410579 0.0040222728584708989 #
point $-1 -51.595130823765949 24.269124819996712 -4.5250830753827351 #
straight-curve $-1 61.850279155536569 41.587609883410579 83.259101614332053 0 0 -1 I I #
point $-1 61.850279155536569 41.587609883410579 13.13829344249096 #
straight-curve $-1 25.797565411882985 41.587609883410579 0.0040222728584673462 -1 0 0 I I #
point $-1 61.850279155536569 41.587609883410579 0.0040222728584708989 #
point $-1 51.59513082376597 24.269124819996712 -4.5250830753827351 #
straight-curve $-1 -72.265388958403264 -53.114023533105396 -11.165925533528977 0 0 -1 I I #
straight-curve $-1 72.265388958403264 -53.114023533105396 -11.165925533528977 0 0 -1 I I #
End-of-ACIS-data 