500 0 7 0           
7 Unknown 11 ACIS 5.0 NT 24 Thu Mar 25 17:46:55 1999 
-1 9.9999999999999995e-007 1e-010 
body $-1 $7 $-1 $8 #
body $-1 $9 $-1 $10 #
body $-1 $11 $-1 $12 #
body $-1 $13 $-1 $14 #
body $-1 $15 $-1 $16 #
body $-1 $17 $-1 $18 #
body $-1 $19 $-1 $20 #
lump $-1 $-1 $21 $0 #
transform $-1 1 0 0 0 1 0 0 0 1 69.574877162999357 46.177997025693841 15.358795891754484 1 rotate no_reflect no_shear #
lump $-1 $-1 $22 $1 #
transform $-1 1 0 0 0 1 0 0 0 1 69.574877162999357 46.177997025693841 15.358795891754484 1 rotate no_reflect no_shear #
lump $-1 $-1 $23 $2 #
transform $-1 1 0 0 0 1 0 0 0 1 69.574877162999357 46.177997025693841 15.358795891754484 1 rotate no_reflect no_shear #
lump $-1 $-1 $24 $3 #
transform $-1 1 0 0 0 1 0 0 0 1 69.574877162999357 46.177997025693841 15.358795891754484 1 rotate no_reflect no_shear #
lump $-1 $-1 $25 $4 #
transform $-1 1 0 0 0 1 0 0 0 1 69.574877162999357 46.177997025693841 15.358795891754484 1 rotate no_reflect no_shear #
lump $-1 $-1 $26 $5 #
transform $-1 1 0 0 0 1 0 0 0 1 69.574877162999357 46.177997025693841 15.358795891754484 1 rotate no_reflect no_shear #
lump $-1 $-1 $27 $6 #
transform $-1 1 0 0 0 1 0 0 0 1 69.574877162999357 46.177997025693841 15.358795891754484 1 rotate no_reflect no_shear #
shell $-1 $-1 $-1 $28 $-1 $7 #
shell $-1 $-1 $-1 $29 $-1 $9 #
shell $-1 $-1 $-1 $30 $-1 $11 #
shell $-1 $-1 $-1 $31 $-1 $13 #
shell $-1 $-1 $-1 $32 $-1 $15 #
shell $-1 $-1 $-1 $33 $-1 $17 #
shell $-1 $-1 $-1 $34 $-1 $19 #
face $-1 $35 $36 $21 $-1 $37 forward single #
face $-1 $38 $39 $22 $-1 $40 reversed single #
face $-1 $41 $42 $23 $-1 $43 reversed single #
face $-1 $44 $45 $24 $-1 $46 forward single #
face $-1 $47 $48 $25 $-1 $49 forward single #
face $-1 $50 $51 $26 $-1 $52 reversed single #
face $-1 $53 $54 $27 $-1 $55 forward single #
face $-1 $56 $57 $21 $-1 $58 reversed single #
loop $-1 $-1 $59 $28 #
plane-surface $-1 0 0 15.358795891754484 0 0 1 1 0 0 forward_v I I I I #
face $-1 $60 $61 $22 $-1 $62 reversed single #
loop $-1 $-1 $63 $29 #
plane-surface $-1 -57.186016542207376 -40.356457003107593 0 1 0 0 0 0 -1 forward_v I I I I #
face $-1 $64 $65 $23 $-1 $66 reversed single #
loop $-1 $-1 $67 $30 #
plane-surface $-1 -155.24402127688026 26.014178465451018 110.1806742886958 0 1 0 -0.61566148304635926 0 0.78801074757464917 forward_v I I I I #
face $-1 $68 $69 $24 $-1 $70 forward single #
loop $-1 $71 $72 $31 #
cone-surface $-1 -59.048927662382916 31.775269482663248 6.6187026134821165 0.61566148304635926 0 -0.78801074757464917 1.1820161213619738 0 0.92349222456953894 1 I I 0 1 1.5 forward I I I I #
face $-1 $73 $74 $25 $-1 $75 forward single #
loop $-1 $76 $77 $32 #
cone-surface $-1 -59.048927662382916 40.416906008481604 6.6187026134821165 0.61566148304635926 0 -0.78801074757464917 1.1820161213619738 0 0.92349222456953894 1 I I 0 1 1.5 forward I I I I #
face $-1 $78 $79 $26 $-1 $80 reversed single #
loop $-1 $-1 $81 $33 #
plane-surface $-1 55.847679270120324 -11.216232210524616 200.03569669586057 0 -1 0 -0.6560590369687036 0 -0.75470957328743171 forward_v I I I I #
face $-1 $82 $83 $27 $-1 $84 forward single #
loop $-1 $85 $86 $34 #
cone-surface $-1 60.655899225830794 -19.084183328202531 6.9791456623851529 -0.6560590369687036 0 -0.75470957328743171 2.264128719862295 0 -1.9681771109061108 1 I I 0 1 3 forward I I I I #
face $-1 $87 $88 $21 $-1 $89 reversed single #
loop $-1 $-1 $90 $35 #
plane-surface $-1 0 0 -15.358795891754484 0 0 1 1 0 0 forward_v I I I I #
coedge $-1 $91 $92 $93 $94 forward $36 $-1 #
face $-1 $95 $96 $22 $-1 $97 reversed single #
loop $-1 $-1 $98 $38 #
plane-surface $-1 -54.869236841466545 -34.534916980521345 0 0 -1 0 0 0 -1 forward_v I I I I #
coedge $-1 $99 $100 $101 $102 forward $39 $-1 #
face $-1 $103 $104 $23 $-1 $105 forward single #
loop $-1 $-1 $106 $41 #
plane-surface $-1 -69.574877162999343 36.096087745572433 0.52917235743677793 -0.61566148304635926 0 0.78801074757464917 0.78801074757464917 0 0.61566148304635926 forward_v I I I I #
coedge $-1 $107 $108 $109 $110 reversed $42 $-1 #
face $-1 $-1 $111 $24 $-1 $112 forward single #
loop $-1 $113 $114 $44 #
cone-surface $-1 -57.551758133479353 31.775269482663248 4.7024130416876044 0.61566148304635926 0 -0.78801074757464917 0.59100806068098688 0 0.46174611228476947 1 I I -0.70710678118654757 0.70710678118654757 0.75 forward I I I I #
loop $-1 $-1 $115 $31 #
coedge $-1 $72 $72 $116 $117 reversed $45 $-1 #
face $-1 $-1 $118 $25 $-1 $119 forward single #
loop $-1 $120 $121 $47 #
cone-surface $-1 -57.551758133479353 40.416906008481604 4.7024130416876044 0.61566148304635926 0 -0.78801074757464917 0.59100806068098688 0 0.46174611228476947 1 I I -0.70710678118654757 0.70710678118654757 0.75 forward I I I I #
loop $-1 $-1 $122 $32 #
coedge $-1 $77 $77 $123 $124 reversed $48 $-1 #
face $-1 $125 $126 $26 $-1 $127 reversed single #
loop $-1 $-1 $128 $50 #
plane-surface $-1 -35.442774547426097 -19.084183328202531 95.018044985435125 0.6560590369687036 0 0.75470957328743171 0.75470957328743171 0 -0.6560590369687036 forward_v I I I I #
coedge $-1 $129 $130 $131 $132 reversed $51 $-1 #
face $-1 $-1 $133 $27 $-1 $134 forward single #
loop $-1 $135 $136 $53 #
cone-surface $-1 57.442917816501932 -19.084183328202531 3.2830334350175558 -0.6560590369687036 0 -0.75470957328743171 1.1320643599311475 0 -0.9840885554530554 1 I I -0.70710678118654757 0.70710678118654757 1.5 forward I I I I #
loop $-1 $-1 $137 $34 #
coedge $-1 $86 $86 $138 $139 reversed $54 $-1 #
face $-1 $140 $141 $21 $-1 $142 reversed single #
loop $-1 $-1 $143 $56 #
plane-surface $-1 0 -46.177997025693841 0 0 1 0 0 0 1 forward_v I I I I #
coedge $-1 $144 $145 $146 $147 forward $57 $-1 #
coedge $-1 $148 $59 $149 $150 forward $36 $-1 #
coedge $-1 $59 $148 $151 $152 forward $36 $-1 #
coedge $-1 $153 $154 $59 $94 reversed $155 $-1 #
edge $-1 $156 -46.177997025693841 $157 46.177997025693841 $93 $158 forward 7 unknown #
face $-1 $159 $160 $22 $-1 $161 forward single #
loop $-1 $-1 $162 $60 #
plane-surface $-1 -52.552457140725714 -40.356457003107593 0 -1 0 0 0 0 1 forward_v I I I I #
coedge $-1 $163 $164 $165 $166 forward $61 $-1 #
coedge $-1 $167 $63 $168 $169 reversed $39 $-1 #
coedge $-1 $63 $167 $170 $171 reversed $39 $-1 #
coedge $-1 $164 $163 $63 $102 reversed $61 $-1 #
edge $-1 $172 -15.358795891754484 $173 15.358795891754484 $101 $174 forward 7 unknown #
face $-1 $175 $176 $23 $-1 $177 reversed single #
loop $-1 $-1 $109 $64 #
plane-surface $-1 0 0 15.358795891754484 0 0 1 1 0 0 forward_v I I I I #
coedge $-1 $178 $179 $180 $181 reversed $65 $-1 #
coedge $-1 $108 $67 $182 $183 reversed $42 $-1 #
coedge $-1 $67 $107 $178 $184 reversed $42 $-1 #
coedge $-1 $180 $185 $67 $110 forward $104 $-1 #
edge $-1 $186 8.0471334754407735 $187 27.028185643436103 $109 $188 forward 7 unknown #
loop $-1 $-1 $116 $68 #
plane-surface $-1 -69.574877162999343 36.096087745572433 0.52917235743677793 -0.61566148304635926 0 0.78801074757464917 0.78801074757464917 0 0.61566148304635926 forward_v I I I I #
loop $-1 $-1 $189 $44 #
coedge $-1 $114 $114 $115 $190 reversed $69 $-1 #
coedge $-1 $115 $115 $114 $190 forward $71 $-1 #
coedge $-1 $116 $116 $72 $117 forward $111 $-1 #
edge $-1 $191 0 $191 6.2831853071796004 $116 $192 forward 7 unknown #
loop $-1 $-1 $123 $73 #
plane-surface $-1 -69.574877162999343 36.096087745572433 0.52917235743677793 -0.61566148304635926 0 0.78801074757464917 0.78801074757464917 0 0.61566148304635926 forward_v I I I I #
loop $-1 $-1 $193 $47 #
coedge $-1 $121 $121 $122 $194 reversed $74 $-1 #
coedge $-1 $122 $122 $121 $194 forward $76 $-1 #
coedge $-1 $123 $123 $77 $124 forward $118 $-1 #
edge $-1 $195 0 $195 6.2831853071796004 $123 $196 forward 7 unknown #
face $-1 $197 $198 $26 $-1 $199 reversed single #
loop $-1 $-1 $200 $78 #
plane-surface $-1 55.847679270120324 -26.952134445880446 200.03569669586057 0 1 0 0.6560590369687036 0 0.75470957328743171 forward_v I I I I #
coedge $-1 $201 $202 $203 $204 reversed $79 $-1 #
coedge $-1 $130 $81 $205 $206 reversed $51 $-1 #
coedge $-1 $81 $129 $201 $207 reversed $51 $-1 #
coedge $-1 $203 $208 $81 $132 forward $209 $-1 #
edge $-1 $210 -41.651037527939195 $211 -28.270867361353638 $131 $212 forward 7 unknown #
loop $-1 $-1 $138 $82 #
plane-surface $-1 -35.442774547426097 -19.084183328202531 95.018044985435125 0.6560590369687036 0 0.75470957328743171 0.75470957328743171 0 -0.6560590369687036 forward_v I I I I #
loop $-1 $-1 $213 $53 #
coedge $-1 $136 $136 $137 $214 reversed $83 $-1 #
coedge $-1 $137 $137 $136 $214 forward $85 $-1 #
coedge $-1 $138 $138 $86 $139 forward $133 $-1 #
edge $-1 $215 0 $215 6.2831853071796004 $138 $216 forward 7 unknown #
face $-1 $217 $218 $21 $-1 $219 reversed single #
loop $-1 $-1 $220 $87 #
plane-surface $-1 -69.574877162999357 0 0 1 0 0 0 0 -1 forward_v I I I I #
coedge $-1 $221 $151 $222 $223 forward $88 $-1 #
coedge $-1 $224 $90 $221 $225 forward $57 $-1 #
coedge $-1 $90 $224 $226 $227 forward $57 $-1 #
coedge $-1 $154 $153 $90 $147 reversed $155 $-1 #
edge $-1 $228 -46.177997025693841 $229 46.177997025693841 $146 $230 forward 7 unknown #
coedge $-1 $92 $91 $231 $232 forward $36 $-1 #
coedge $-1 $233 $234 $91 $150 reversed $218 $-1 #
edge $-1 $157 -69.574877162999357 $235 69.574877162999357 $149 $236 forward 7 unknown #
coedge $-1 $143 $237 $92 $152 reversed $88 $-1 #
edge $-1 $238 -69.574877162999357 $156 69.574877162999357 $151 $239 forward 7 unknown #
coedge $-1 $146 $93 $237 $240 forward $155 $-1 #
coedge $-1 $93 $146 $233 $241 reversed $155 $-1 #
loop $-1 $-1 $153 $217 #
vertex $-1 $94 $242 #
vertex $-1 $94 $243 #
straight-curve $-1 69.574877162999357 0 15.358795891754484 0 1 0 I I #
face $-1 $244 $245 $22 $-1 $246 reversed single #
loop $-1 $-1 $247 $95 #
plane-surface $-1 0 0 15.358795891754484 0 0 1 1 0 0 forward_v I I I I #
coedge $-1 $248 $249 $250 $251 reversed $96 $-1 #
coedge $-1 $101 $98 $252 $253 reversed $61 $-1 #
coedge $-1 $98 $101 $254 $255 reversed $61 $-1 #
coedge $-1 $249 $248 $98 $166 reversed $96 $-1 #
edge $-1 $256 -15.358795891754484 $257 15.358795891754484 $165 $258 forward 7 unknown #
coedge $-1 $100 $99 $259 $260 reversed $39 $-1 #
coedge $-1 $252 $261 $99 $169 forward $245 $-1 #
edge $-1 $262 -25.999768524140045 $173 -14.356688478967548 $168 $263 forward 7 unknown #
coedge $-1 $264 $254 $100 $171 forward $160 $-1 #
edge $-1 $172 14.356688478967548 $265 25.999768524140045 $170 $266 forward 7 unknown #
vertex $-1 $171 $267 #
vertex $-1 $169 $268 #
straight-curve $-1 -57.186016542207376 -34.534916980521345 0 0 0 -1 I I #
face $-1 $-1 $269 $23 $-1 $270 reversed single #
loop $-1 $-1 $271 $103 #
plane-surface $-1 0 46.177997025693841 0 0 -1 0 0 0 -1 forward_v I I I I #
coedge $-1 $272 $106 $108 $184 forward $65 $-1 #
coedge $-1 $106 $272 $271 $273 reversed $65 $-1 #
coedge $-1 $274 $109 $106 $181 forward $104 $-1 #
edge $-1 $187 7.9661345926648011 $275 28.129953152907632 $180 $276 forward 7 unknown #
coedge $-1 $277 $278 $107 $183 forward $269 $-1 #
edge $-1 $279 -54.561164786911135 $186 -39.731541252593416 $182 $280 forward 7 unknown #
edge $-1 $187 -24.087301126812633 $279 1.8033521786330445e-014 $108 $281 forward 7 unknown #
coedge $-1 $109 $274 $277 $282 forward $104 $-1 #
vertex $-1 $183 $283 #
vertex $-1 $110 $284 #
straight-curve $-1 -77.62201063844013 26.014178465451018 15.358795891754482 1 0 0 I I #
coedge $-1 $189 $189 $-1 $285 reversed $113 $-1 #
edge $-1 $286 0 $286 6.2831853071796004 $114 $287 forward 7 unknown #
vertex $-1 $117 $288 #
ellipse-curve $-1 -60.084351079001692 31.775269482663248 7.943984124595624 -0.61566148304635926 0 0.78801074757464917 1.1820161213619738 0 0.92349222456953894 1 I I #
coedge $-1 $193 $193 $-1 $289 reversed $120 $-1 #
edge $-1 $290 0 $290 6.2831853071796004 $121 $291 forward 7 unknown #
vertex $-1 $124 $292 #
ellipse-curve $-1 -60.084351079001692 40.416906008481604 7.943984124595624 -0.61566148304635926 0 0.78801074757464917 1.1820161213619738 0 0.92349222456953894 1 I I #
face $-1 $-1 $209 $26 $-1 $293 forward single #
loop $-1 $-1 $294 $125 #
plane-surface $-1 69.574877162999357 0 0 -1 0 0 0 0 1 forward_v I I I I #
coedge $-1 $295 $296 $297 $298 reversed $126 $-1 #
coedge $-1 $299 $128 $130 $207 forward $79 $-1 #
coedge $-1 $128 $299 $295 $300 forward $79 $-1 #
coedge $-1 $297 $131 $128 $204 forward $209 $-1 #
edge $-1 $211 1.6741405464233505 $301 17.410042781779183 $203 $302 forward 7 unknown #
coedge $-1 $303 $304 $129 $206 forward $198 $-1 #
edge $-1 $305 -96.290257180041579 $210 -84.6590524561758 $205 $306 forward 7 unknown #
edge $-1 $211 121.42085483913651 $305 139.14975432599874 $130 $307 forward 7 unknown #
coedge $-1 $131 $297 $303 $308 forward $209 $-1 #
loop $-1 $-1 $297 $197 #
vertex $-1 $206 $309 #
vertex $-1 $132 $310 #
straight-curve $-1 27.923839635060162 -11.216232210524616 15.358795891754482 -1 0 0 I I #
coedge $-1 $213 $213 $-1 $311 reversed $135 $-1 #
edge $-1 $312 0 $312 6.2831853071796004 $136 $313 forward 7 unknown #
vertex $-1 $139 $314 #
ellipse-curve $-1 62.884792079706585 -19.084183328202531 9.543193529821588 0.6560590369687036 0 0.75470957328743171 2.264128719862295 0 -1.9681771109061108 1 I I #
face $-1 $-1 $155 $21 $-1 $315 reversed single #
loop $-1 $-1 $233 $140 #
plane-surface $-1 0 46.177997025693841 0 0 -1 0 0 0 -1 forward_v I I I I #
coedge $-1 $316 $231 $234 $317 forward $141 $-1 #
coedge $-1 $237 $143 $144 $225 reversed $88 $-1 #
coedge $-1 $231 $316 $143 $223 reversed $141 $-1 #
edge $-1 $238 -15.358795891754484 $318 15.358795891754484 $222 $319 forward 7 unknown #
coedge $-1 $145 $144 $316 $320 forward $57 $-1 #
edge $-1 $229 -69.574877162999357 $318 69.574877162999357 $221 $321 forward 7 unknown #
coedge $-1 $234 $233 $145 $227 reversed $218 $-1 #
edge $-1 $322 -69.574877162999357 $228 69.574877162999357 $226 $323 forward 7 unknown #
vertex $-1 $147 $324 #
vertex $-1 $240 $325 #
straight-curve $-1 69.574877162999357 0 -15.358795891754484 0 -1 0 I I #
coedge $-1 $220 $222 $148 $232 reversed $141 $-1 #
edge $-1 $235 -46.177997025693841 $238 46.177997025693841 $231 $326 forward 7 unknown #
coedge $-1 $226 $149 $154 $241 forward $218 $-1 #
coedge $-1 $149 $226 $220 $317 reversed $218 $-1 #
vertex $-1 $150 $327 #
straight-curve $-1 0 46.177997025693841 15.358795891754484 -1 0 0 I I #
coedge $-1 $151 $221 $153 $240 reversed $88 $-1 #
vertex $-1 $232 $328 #
straight-curve $-1 0 -46.177997025693841 15.358795891754484 1 0 0 I I #
edge $-1 $156 -15.358795891754484 $229 15.358795891754484 $153 $329 forward 7 unknown #
edge $-1 $157 -15.358795891754484 $228 15.358795891754484 $154 $330 forward 7 unknown #
point $-1 69.574877162999357 -46.177997025693841 15.358795891754484 #
point $-1 69.574877162999357 46.177997025693841 15.358795891754484 #
face $-1 $-1 $331 $22 $-1 $332 reversed single #
loop $-1 $-1 $333 $159 #
plane-surface $-1 0 0 -15.358795891754484 0 0 1 1 0 0 forward_v I I I I #
coedge $-1 $254 $264 $249 $334 forward $160 $-1 #
coedge $-1 $165 $162 $333 $335 reversed $96 $-1 #
coedge $-1 $162 $165 $247 $334 reversed $96 $-1 #
coedge $-1 $336 $337 $162 $251 forward $331 $-1 #
edge $-1 $338 -15.358795891754484 $339 15.358795891754484 $250 $340 forward 7 unknown #
coedge $-1 $333 $168 $163 $253 forward $245 $-1 #
edge $-1 $173 -29.751398121474104 $257 -25.117838719992442 $252 $341 forward 7 unknown #
coedge $-1 $170 $247 $164 $255 forward $160 $-1 #
edge $-1 $256 25.117838719992442 $172 29.751398121474104 $254 $342 forward 7 unknown #
vertex $-1 $255 $343 #
vertex $-1 $253 $344 #
straight-curve $-1 -52.552457140725714 -34.534916980521345 0 0 0 -1 I I #
coedge $-1 $337 $336 $167 $260 forward $331 $-1 #
edge $-1 $265 -15.358795891754484 $262 15.358795891754484 $259 $345 forward 7 unknown #
coedge $-1 $168 $333 $337 $346 forward $245 $-1 #
vertex $-1 $169 $347 #
straight-curve $-1 -57.186016542207376 -20.178228501553797 -15.358795891754484 0 1 0 I I #
coedge $-1 $247 $170 $336 $348 forward $160 $-1 #
vertex $-1 $348 $349 #
straight-curve $-1 -57.186016542207376 -20.178228501553797 15.358795891754484 0 -1 0 I I #
point $-1 -57.186016542207376 -34.534916980521345 15.358795891754484 #
point $-1 -57.186016542207376 -34.534916980521345 -15.358795891754484 #
loop $-1 $-1 $182 $175 #
plane-surface $-1 -69.574877162999357 0 0 1 0 0 0 0 -1 forward_v I I I I #
coedge $-1 $350 $351 $179 $273 forward $176 $-1 #
coedge $-1 $179 $178 $278 $352 reversed $65 $-1 #
edge $-1 $275 3.162678836818781 $353 27.249979963631432 $271 $354 forward 7 unknown #
coedge $-1 $185 $180 $351 $355 forward $104 $-1 #
vertex $-1 $355 $356 #
straight-curve $-1 -50.593824995004027 18.048043872786216 15.358795891754482 0 1 0 I I #
coedge $-1 $357 $182 $185 $282 reversed $269 $-1 #
coedge $-1 $182 $357 $272 $352 forward $269 $-1 #
vertex $-1 $183 $358 #
straight-curve $-1 -69.574877162999357 26.014178465451018 55.090337144347899 0 0 1 I I #
straight-curve $-1 -69.574877162999343 26.014178465451018 0.52917235743677793 -0.78801074757464917 0 -0.61566148304635926 I I #
edge $-1 $359 -46.177997025693841 $186 -26.014178465451018 $277 $360 forward 7 unknown #
point $-1 -69.574877162999357 26.014178465451018 15.358795891754484 #
point $-1 -50.593824995004027 26.014178465451018 15.358795891754484 #
edge $-1 $361 1 $361 0 $189 $-1 forward 7 unknown #
vertex $-1 $190 $362 #
ellipse-curve $-1 -58.013504245764125 31.775269482663248 5.2934211023685913 -0.61566148304635926 0 0.78801074757464917 1.1820161213619738 0 0.92349222456953894 1 I I #
point $-1 -58.902334957639738 31.775269482663248 8.8674763491651802 #
edge $-1 $363 1 $363 0 $193 $-1 forward 7 unknown #
vertex $-1 $194 $364 #
ellipse-curve $-1 -58.013504245764125 40.416906008481604 5.2934211023685913 -0.61566148304635926 0 0.78801074757464917 1.1820161213619738 0 0.92349222456953894 1 I I #
point $-1 -58.902334957639738 40.416906008481604 8.8674763491651802 #
plane-surface $-1 0 0 15.358795891754484 0 0 1 1 0 0 forward_v I I I I #
coedge $-1 $304 $303 $296 $365 forward $198 $-1 #
coedge $-1 $296 $200 $202 $300 reversed $126 $-1 #
coedge $-1 $200 $295 $294 $365 reversed $126 $-1 #
coedge $-1 $208 $203 $200 $298 forward $209 $-1 #
edge $-1 $301 28.270867361353638 $366 41.651037527939195 $297 $367 forward 7 unknown #
coedge $-1 $202 $201 $304 $368 reversed $79 $-1 #
edge $-1 $369 -139.14975432599874 $301 -121.42085483913651 $295 $370 forward 7 unknown #
vertex $-1 $204 $371 #
straight-curve $-1 56.194706996413792 -9.5420916641012656 15.358795891754497 0 -1 0 I I #
coedge $-1 $294 $205 $208 $308 reversed $198 $-1 #
coedge $-1 $205 $294 $299 $368 forward $198 $-1 #
vertex $-1 $206 $372 #
straight-curve $-1 69.574877162999357 -11.216232210524616 100.01784834793028 0 0 1 I I #
straight-curve $-1 -35.442774547426097 -11.216232210524616 95.018044985435125 0.75470957328743171 0 -0.6560590369687036 I I #
edge $-1 $366 -26.952134445880446 $210 -11.216232210524616 $303 $373 forward 7 unknown #
point $-1 69.574877162999357 -11.216232210524616 15.358795891754484 #
point $-1 56.1947069964138 -11.216232210524616 15.358795891754482 #
edge $-1 $374 1 $374 0 $213 $-1 forward 7 unknown #
vertex $-1 $214 $375 #
ellipse-curve $-1 58.427006371954988 -19.084183328202531 4.4150977949487036 0.6560590369687036 0 0.75470957328743171 2.264128719862295 0 -1.9681771109061108 1 I I #
point $-1 65.148920799568899 -19.084183328202531 7.5750164189154923 #
plane-surface $-1 69.574877162999357 0 0 -1 0 0 0 0 1 forward_v I I I I #
coedge $-1 $222 $220 $224 $320 reversed $141 $-1 #
edge $-1 $235 -15.358795891754484 $322 15.358795891754484 $234 $376 forward 7 unknown #
vertex $-1 $320 $377 #
straight-curve $-1 -69.574877162999357 -46.177997025693841 0 0 0 -1 I I #
edge $-1 $318 -46.177997025693841 $322 46.177997025693841 $316 $378 forward 7 unknown #
straight-curve $-1 0 -46.177997025693841 -15.358795891754484 -1 0 0 I I #
vertex $-1 $227 $379 #
straight-curve $-1 0 46.177997025693841 -15.358795891754484 1 0 0 I I #
point $-1 69.574877162999357 46.177997025693841 -15.358795891754484 #
point $-1 69.574877162999357 -46.177997025693841 -15.358795891754484 #
straight-curve $-1 -69.574877162999357 0 15.358795891754484 0 -1 0 I I #
point $-1 -69.574877162999357 46.177997025693841 15.358795891754484 #
point $-1 -69.574877162999357 -46.177997025693841 15.358795891754484 #
straight-curve $-1 69.574877162999357 -46.177997025693841 0 0 0 -1 I I #
straight-curve $-1 69.574877162999357 46.177997025693841 0 0 0 -1 I I #
loop $-1 $-1 $250 $244 #
plane-surface $-1 0 -46.177997025693841 0 0 1 0 0 0 1 forward_v I I I I #
coedge $-1 $261 $252 $248 $335 forward $245 $-1 #
edge $-1 $339 -25.999768524140045 $256 -14.356688478967548 $247 $380 forward 7 unknown #
edge $-1 $257 14.356688478967548 $338 25.999768524140045 $333 $381 forward 7 unknown #
coedge $-1 $259 $250 $264 $348 reversed $331 $-1 #
coedge $-1 $250 $259 $261 $346 reversed $331 $-1 #
vertex $-1 $346 $382 #
vertex $-1 $251 $383 #
straight-curve $-1 -52.552457140725714 -46.177997025693841 0 0 0 1 I I #
straight-curve $-1 -27.434618420733273 -34.534916980521345 -15.358795891754484 1 0 0 I I #
straight-curve $-1 -27.434618420733273 -34.534916980521345 15.358795891754484 -1 0 0 I I #
point $-1 -52.552457140725714 -34.534916980521345 15.358795891754484 #
point $-1 -52.552457140725714 -34.534916980521345 -15.358795891754484 #
straight-curve $-1 -57.186016542207376 -46.177997025693841 0 0 0 -1 I I #
edge $-1 $338 52.552457140725714 $262 57.186016542207376 $337 $384 forward 7 unknown #
point $-1 -57.186016542207376 -46.177997025693841 -15.358795891754484 #
edge $-1 $265 -57.186016542207376 $339 -52.552457140725714 $336 $385 forward 7 unknown #
point $-1 -57.186016542207376 -46.177997025693841 15.358795891754484 #
coedge $-1 $351 $271 $357 $386 reversed $176 $-1 #
coedge $-1 $271 $350 $274 $355 reversed $176 $-1 #
edge $-1 $353 -28.129953152907632 $279 -7.9661345926648011 $278 $387 forward 7 unknown #
vertex $-1 $273 $388 #
straight-curve $-1 -48.101600080463939 46.177997025693841 17.305935434829671 -0.78801074757464917 0 -0.61566148304635926 I I #
edge $-1 $275 50.593824995004027 $359 69.574877162999357 $351 $389 forward 7 unknown #
point $-1 -50.593824995004027 46.177997025693848 15.358795891754484 #
coedge $-1 $278 $277 $350 $386 forward $269 $-1 #
point $-1 -69.574877162999357 26.014178465451018 0.52917235743676683 #
vertex $-1 $355 $390 #
straight-curve $-1 -69.574877162999357 0 15.358795891754484 0 -1 0 I I #
vertex $-1 $285 $391 #
point $-1 -56.831488124402149 31.775269482663248 6.2169133269381298 #
vertex $-1 $289 $392 #
point $-1 -56.831488124402149 40.416906008481604 6.2169133269381298 #
edge $-1 $366 84.6590524561758 $369 96.290257180041579 $294 $393 forward 7 unknown #
vertex $-1 $308 $394 #
straight-curve $-1 27.923839635060162 -26.952134445880446 15.358795891754482 1 0 0 I I #
edge $-1 $369 -17.410042781779183 $305 -1.6741405464233505 $304 $395 forward 7 unknown #
vertex $-1 $368 $396 #
straight-curve $-1 -35.442774547426097 -26.952134445880446 95.018044985435125 -0.75470957328743171 0 0.6560590369687036 I I #
point $-1 56.1947069964138 -26.952134445880446 15.358795891754482 #
point $-1 69.574877162999343 -11.216232210524616 3.7275911678887041 #
straight-curve $-1 69.574877162999357 0 15.358795891754484 0 1 0 I I #
vertex $-1 $311 $397 #
point $-1 60.69113509181728 -19.084183328202531 2.4469206840425928 #
straight-curve $-1 -69.574877162999357 46.177997025693841 0 0 0 -1 I I #
point $-1 -69.574877162999357 -46.177997025693841 -15.358795891754484 #
straight-curve $-1 -69.574877162999357 0 -15.358795891754484 0 1 0 I I #
point $-1 -69.574877162999357 46.177997025693841 -15.358795891754484 #
straight-curve $-1 -52.552457140725714 -20.178228501553797 15.358795891754484 0 1 0 I I #
straight-curve $-1 -52.552457140725714 -20.178228501553797 -15.358795891754484 0 -1 0 I I #
point $-1 -52.552457140725714 -46.177997025693841 -15.358795891754484 #
point $-1 -52.552457140725714 -46.177997025693841 15.358795891754484 #
straight-curve $-1 0 -46.177997025693841 -15.358795891754484 -1 0 0 I I #
straight-curve $-1 0 -46.177997025693841 15.358795891754484 1 0 0 I I #
edge $-1 $359 -15.358795891754484 $353 -0.52917235743676683 $350 $398 forward 7 unknown #
straight-curve $-1 -69.574877162999357 18.048043872786216 0.52917235743675939 0 -1 0 I I #
point $-1 -69.574877162999357 46.177997025693848 0.52917235743676683 #
straight-curve $-1 0 46.177997025693841 15.358795891754484 -1 0 0 I I #
point $-1 -69.574877162999357 46.177997025693841 15.358795891754484 #
point $-1 -57.090012021194582 31.775269482663248 4.1114049810066176 #
point $-1 -57.090012021194582 40.416906008481604 4.1114049810066176 #
straight-curve $-1 69.574877162999357 -26.952134445880446 100.01784834793028 0 0 -1 I I #
point $-1 69.574877162999357 -26.952134445880446 15.358795891754484 #
straight-curve $-1 69.574877162999357 -9.5420916641012656 3.7275911678887041 0 1 0 I I #
point $-1 69.574877162999343 -26.952134445880446 3.7275911678887041 #
point $-1 56.458829261048876 -19.084183328202531 2.1509690750864081 #
straight-curve $-1 -69.574877162999357 46.177997025693841 0 0 0 -1 I I #
End-of-ACIS-data 