500 0 10 0           
7 Unknown 11 ACIS 5.0 NT 24 Fri Mar 26 20:40:58 1999 
-1 9.9999999999999995e-007 1e-010 
body $-1 $10 $-1 $11 #
body $-1 $12 $-1 $13 #
body $-1 $14 $-1 $15 #
body $-1 $16 $-1 $17 #
body $-1 $18 $-1 $19 #
body $-1 $20 $-1 $21 #
body $-1 $22 $-1 $23 #
body $-1 $24 $-1 $25 #
body $-1 $26 $-1 $27 #
body $-1 $28 $-1 $29 #
lump $-1 $-1 $30 $0 #
transform $-1 1 0 0 0 1 0 0 0 1 40.67751091036714 19.635865148550376 9.0472277136669348 1 rotate no_reflect no_shear #
lump $-1 $-1 $31 $1 #
transform $-1 1 0 0 0 1 0 0 0 1 40.67751091036714 19.635865148550376 9.0472277136669348 1 rotate no_reflect no_shear #
lump $-1 $-1 $32 $2 #
transform $-1 1 0 0 0 1 0 0 0 1 40.67751091036714 19.635865148550376 9.0472277136669348 1 rotate no_reflect no_shear #
lump $-1 $-1 $33 $3 #
transform $-1 1 0 0 0 1 0 0 0 1 40.67751091036714 19.635865148550376 9.0472277136669348 1 rotate no_reflect no_shear #
lump $-1 $-1 $34 $4 #
transform $-1 1 0 0 0 1 0 0 0 1 40.67751091036714 19.635865148550376 9.0472277136669348 1 rotate no_reflect no_shear #
lump $-1 $-1 $35 $5 #
transform $-1 1 0 0 0 1 0 0 0 1 40.67751091036714 19.635865148550376 9.0472277136669348 1 rotate no_reflect no_shear #
lump $-1 $-1 $36 $6 #
transform $-1 1 0 0 0 1 0 0 0 1 40.67751091036714 19.635865148550376 9.0472277136669348 1 rotate no_reflect no_shear #
lump $-1 $-1 $37 $7 #
transform $-1 1 0 0 0 1 0 0 0 1 40.67751091036714 19.635865148550376 9.0472277136669348 1 rotate no_reflect no_shear #
lump $-1 $-1 $38 $8 #
transform $-1 1 0 0 0 1 0 0 0 1 40.67751091036714 19.635865148550376 9.0472277136669348 1 rotate no_reflect no_shear #
lump $-1 $-1 $39 $9 #
transform $-1 1 0 0 0 1 0 0 0 1 40.67751091036714 19.635865148550376 9.0472277136669348 1 rotate no_reflect no_shear #
shell $-1 $-1 $-1 $40 $-1 $10 #
shell $-1 $-1 $-1 $41 $-1 $12 #
shell $-1 $-1 $-1 $42 $-1 $14 #
shell $-1 $-1 $-1 $43 $-1 $16 #
shell $-1 $-1 $-1 $44 $-1 $18 #
shell $-1 $-1 $-1 $45 $-1 $20 #
shell $-1 $-1 $-1 $46 $-1 $22 #
shell $-1 $-1 $-1 $47 $-1 $24 #
shell $-1 $-1 $-1 $48 $-1 $26 #
shell $-1 $-1 $-1 $49 $-1 $28 #
face $-1 $50 $51 $30 $-1 $52 forward single #
face $-1 $53 $54 $31 $-1 $55 reversed single #
face $-1 $56 $57 $32 $-1 $58 reversed single #
face $-1 $59 $60 $33 $-1 $61 forward single #
face $-1 $62 $63 $34 $-1 $64 forward single #
face $-1 $65 $66 $35 $-1 $67 forward single #
face $-1 $68 $69 $36 $-1 $70 reversed single #
face $-1 $71 $72 $37 $-1 $73 forward single #
face $-1 $74 $75 $38 $-1 $76 forward single #
face $-1 $77 $78 $39 $-1 $79 forward single #
face $-1 $80 $81 $30 $-1 $82 reversed single #
loop $-1 $-1 $83 $40 #
plane-surface $-1 0 0 9.0472277136669348 0 0 1 1 0 0 forward_v I I I I #
face $-1 $84 $85 $31 $-1 $86 reversed single #
loop $-1 $-1 $87 $41 #
plane-surface $-1 -36.954253797998639 0 3.9407224591979721 0 0 1 1 0 0 forward_v I I I I #
face $-1 $88 $89 $32 $-1 $90 reversed single #
loop $-1 $-1 $91 $42 #
plane-surface $-1 -18.022765463180363 58.146092207561352 87.725050982780232 -1 0 0 0 0.77714596973225614 0.62932038083071107 forward_v I I I I #
face $-1 $92 $93 $33 $-1 $94 forward single #
loop $-1 $95 $96 $43 #
cone-surface $-1 -30.189350441140178 17.992421644347306 7.193061889922733 0 -0.77714596973225614 -0.62932038083071107 0.5 0 0 1 I I 0 1 0.5 forward I I I I #
face $-1 $97 $98 $34 $-1 $99 forward single #
loop $-1 $100 $101 $44 #
cone-surface $-1 -25.626881074405247 17.992421644347306 7.193061889922733 0 -0.77714596973225614 -0.62932038083071107 0.5 0 0 1 I I 0 1 0.5 forward I I I I #
face $-1 $102 $103 $35 $-1 $104 forward single #
loop $-1 $105 $106 $45 #
cone-surface $-1 -21.064411707670317 17.992421644347306 7.193061889922733 0 -0.77714596973225614 -0.62932038083071107 0.5 0 0 1 I I 0 1 0.5 forward I I I I #
face $-1 $107 $108 $36 $-1 $109 reversed single #
loop $-1 $-1 $110 $46 #
plane-surface $-1 -25.626881074405247 -19.635865148550373 6.0068107432609423 0 -0.77714596973225614 0.62932038083071107 1 0 0 forward_v I I I I #
face $-1 $111 $112 $37 $-1 $113 forward single #
loop $-1 $114 $115 $47 #
cone-surface $-1 -30.189350441140178 -17.992421644347306 7.1930618899227365 0 0.77714596973225614 -0.62932038083071107 0.5 0 0 1 I I 0 1 0.5 forward I I I I #
face $-1 $116 $117 $38 $-1 $118 forward single #
loop $-1 $119 $120 $48 #
cone-surface $-1 -25.626881074405247 -17.992421644347306 7.1930618899227365 0 0.77714596973225614 -0.62932038083071107 0.5 0 0 1 I I 0 1 0.5 forward I I I I #
face $-1 $121 $122 $39 $-1 $123 forward single #
loop $-1 $124 $125 $49 #
cone-surface $-1 -21.064411707670317 -17.992421644347306 7.1930618899227365 0 0.77714596973225614 -0.62932038083071107 0.5 0 0 1 I I 0 1 0.5 forward I I I I #
face $-1 $126 $127 $30 $-1 $128 reversed single #
loop $-1 $-1 $129 $50 #
plane-surface $-1 0 0 -9.0472277136669348 0 0 1 1 0 0 forward_v I I I I #
coedge $-1 $130 $131 $132 $133 forward $51 $-1 #
face $-1 $134 $135 $31 $-1 $136 reversed single #
loop $-1 $-1 $137 $53 #
plane-surface $-1 -33.230996685630139 0 6.493975086432453 -1 0 0 0 0 1 forward_v I I I I #
coedge $-1 $138 $139 $140 $141 forward $54 $-1 #
face $-1 $142 $143 $32 $-1 $144 forward single #
loop $-1 $-1 $145 $56 #
plane-surface $-1 -25.626881074405247 -5.0786351179020457 36.526677668064927 0 0.77714596973225614 0.62932038083071107 1 0 0 forward_v I I I I #
coedge $-1 $146 $147 $148 $149 reversed $57 $-1 #
face $-1 $-1 $150 $33 $-1 $151 forward single #
loop $-1 $152 $153 $59 #
cone-surface $-1 -30.189350441140178 17.385732173057558 6.701774456173851 0 -0.77714596973225614 -0.62932038083071107 0.25 0 0 1 I I -0.70710678118654746 0.70710678118654746 0.25 forward I I I I #
loop $-1 $-1 $154 $43 #
coedge $-1 $96 $96 $155 $156 reversed $60 $-1 #
face $-1 $-1 $157 $34 $-1 $158 forward single #
loop $-1 $159 $160 $62 #
cone-surface $-1 -25.626881074405247 17.385732173057558 6.701774456173851 0 -0.77714596973225614 -0.62932038083071107 0.25 0 0 1 I I -0.70710678118654746 0.70710678118654746 0.25 forward I I I I #
loop $-1 $-1 $161 $44 #
coedge $-1 $101 $101 $162 $163 reversed $63 $-1 #
face $-1 $-1 $164 $35 $-1 $165 forward single #
loop $-1 $166 $167 $65 #
cone-surface $-1 -21.064411707670317 17.385732173057558 6.701774456173851 0 -0.77714596973225614 -0.62932038083071107 0.25 0 0 1 I I -0.70710678118654746 0.70710678118654746 0.25 forward I I I I #
loop $-1 $-1 $168 $45 #
coedge $-1 $106 $106 $169 $170 reversed $66 $-1 #
face $-1 $171 $172 $36 $-1 $173 forward single #
loop $-1 $-1 $174 $68 #
plane-surface $-1 -18.022765463180363 -82.860592474013771 57.205184057976247 -1 0 0 0 -0.77714596973225614 0.62932038083071107 forward_v I I I I #
coedge $-1 $175 $176 $177 $178 reversed $69 $-1 #
face $-1 $-1 $179 $37 $-1 $180 forward single #
loop $-1 $181 $182 $71 #
cone-surface $-1 -30.189350441140178 -17.385732173057558 6.7017744561738546 0 0.77714596973225614 -0.62932038083071107 0.25 0 0 1 I I -0.70710678118654746 0.70710678118654746 0.25 forward I I I I #
loop $-1 $-1 $183 $47 #
coedge $-1 $115 $115 $184 $185 reversed $72 $-1 #
face $-1 $-1 $186 $38 $-1 $187 forward single #
loop $-1 $188 $189 $74 #
cone-surface $-1 -25.626881074405247 -17.385732173057558 6.7017744561738546 0 0.77714596973225614 -0.62932038083071107 0.25 0 0 1 I I -0.70710678118654746 0.70710678118654746 0.25 forward I I I I #
loop $-1 $-1 $190 $48 #
coedge $-1 $120 $120 $191 $192 reversed $75 $-1 #
face $-1 $-1 $193 $39 $-1 $194 forward single #
loop $-1 $195 $196 $77 #
cone-surface $-1 -21.064411707670317 -17.385732173057558 6.7017744561738546 0 0.77714596973225614 -0.62932038083071107 0.25 0 0 1 I I -0.70710678118654746 0.70710678118654746 0.25 forward I I I I #
loop $-1 $-1 $197 $49 #
coedge $-1 $125 $125 $198 $199 reversed $78 $-1 #
face $-1 $200 $201 $30 $-1 $202 reversed single #
loop $-1 $-1 $203 $80 #
plane-surface $-1 0 -19.635865148550376 0 0 1 0 0 0 1 forward_v I I I I #
coedge $-1 $204 $205 $206 $207 forward $81 $-1 #
coedge $-1 $208 $83 $209 $210 forward $51 $-1 #
coedge $-1 $83 $208 $211 $212 forward $51 $-1 #
coedge $-1 $213 $214 $83 $133 reversed $215 $-1 #
edge $-1 $216 -19.635865148550376 $217 19.635865148550376 $132 $218 forward 7 unknown #
face $-1 $219 $220 $31 $-1 $221 reversed single #
loop $-1 $-1 $222 $84 #
plane-surface $-1 0 19.635865148550376 0 0 -1 0 0 0 -1 forward_v I I I I #
coedge $-1 $140 $223 $224 $225 reversed $85 $-1 #
coedge $-1 $226 $87 $227 $228 reversed $54 $-1 #
coedge $-1 $87 $226 $229 $230 reversed $54 $-1 #
coedge $-1 $231 $137 $87 $141 reversed $85 $-1 #
edge $-1 $232 -19.635865148550376 $233 19.635865148550376 $140 $234 forward 7 unknown #
face $-1 $235 $236 $32 $-1 $237 forward single #
loop $-1 $-1 $238 $88 #
plane-surface $-1 -33.230996685630139 0 6.493975086432453 -1 0 0 0 0 1 forward_v I I I I #
coedge $-1 $239 $240 $241 $242 reversed $89 $-1 #
coedge $-1 $147 $91 $243 $244 reversed $57 $-1 #
coedge $-1 $91 $146 $239 $245 reversed $57 $-1 #
coedge $-1 $241 $246 $91 $149 forward $247 $-1 #
edge $-1 $248 34.815297777723181 $249 37.855714748129181 $148 $250 forward 7 unknown #
loop $-1 $-1 $155 $92 #
plane-surface $-1 -25.626881074405247 -5.0786351179020457 36.526677668064927 0 0.77714596973225614 0.62932038083071107 1 0 0 forward_v I I I I #
loop $-1 $-1 $251 $59 #
coedge $-1 $153 $153 $154 $252 reversed $93 $-1 #
coedge $-1 $154 $154 $153 $252 forward $95 $-1 #
coedge $-1 $155 $155 $96 $156 forward $150 $-1 #
edge $-1 $253 -4.1414656756386995e-015 $253 6.283185307179596 $155 $254 forward 7 unknown #
loop $-1 $-1 $162 $97 #
plane-surface $-1 -25.626881074405247 -5.0786351179020457 36.526677668064927 0 0.77714596973225614 0.62932038083071107 1 0 0 forward_v I I I I #
loop $-1 $-1 $255 $62 #
coedge $-1 $160 $160 $161 $256 reversed $98 $-1 #
coedge $-1 $161 $161 $160 $256 forward $100 $-1 #
coedge $-1 $162 $162 $101 $163 forward $157 $-1 #
edge $-1 $257 -4.1414656756386995e-015 $257 6.283185307179596 $162 $258 forward 7 unknown #
loop $-1 $-1 $169 $102 #
plane-surface $-1 -25.626881074405247 -5.0786351179020457 36.526677668064927 0 0.77714596973225614 0.62932038083071107 1 0 0 forward_v I I I I #
loop $-1 $-1 $259 $65 #
coedge $-1 $167 $167 $168 $260 reversed $103 $-1 #
coedge $-1 $168 $168 $167 $260 forward $105 $-1 #
coedge $-1 $169 $169 $106 $170 forward $164 $-1 #
edge $-1 $261 -4.1414656756386995e-015 $261 6.283185307179596 $169 $262 forward 7 unknown #
face $-1 $263 $264 $36 $-1 $265 forward single #
loop $-1 $-1 $266 $107 #
plane-surface $-1 0 0 9.0472277136669348 0 0 1 1 0 0 forward_v I I I I #
coedge $-1 $267 $268 $269 $270 reversed $108 $-1 #
coedge $-1 $271 $110 $272 $273 reversed $69 $-1 #
coedge $-1 $110 $271 $267 $274 forward $69 $-1 #
coedge $-1 $269 $275 $110 $178 forward $276 $-1 #
edge $-1 $277 -20.417556148427515 $278 -5.2093249259777394 $177 $279 forward 7 unknown #
loop $-1 $-1 $184 $111 #
plane-surface $-1 -25.626881074405247 -19.635865148550373 6.0068107432609423 0 -0.77714596973225614 0.62932038083071107 1 0 0 forward_v I I I I #
loop $-1 $-1 $280 $71 #
coedge $-1 $182 $182 $183 $281 reversed $112 $-1 #
coedge $-1 $183 $183 $182 $281 forward $114 $-1 #
coedge $-1 $184 $184 $115 $185 forward $179 $-1 #
edge $-1 $282 1.050363983534518e-015 $282 6.2831853071796013 $184 $283 forward 7 unknown #
loop $-1 $-1 $191 $116 #
plane-surface $-1 -25.626881074405247 -19.635865148550373 6.0068107432609423 0 -0.77714596973225614 0.62932038083071107 1 0 0 forward_v I I I I #
loop $-1 $-1 $284 $74 #
coedge $-1 $189 $189 $190 $285 reversed $117 $-1 #
coedge $-1 $190 $190 $189 $285 forward $119 $-1 #
coedge $-1 $191 $191 $120 $192 forward $186 $-1 #
edge $-1 $286 1.050363983534518e-015 $286 6.2831853071796013 $191 $287 forward 7 unknown #
loop $-1 $-1 $198 $121 #
plane-surface $-1 -25.626881074405247 -19.635865148550373 6.0068107432609423 0 -0.77714596973225614 0.62932038083071107 1 0 0 forward_v I I I I #
loop $-1 $-1 $288 $77 #
coedge $-1 $196 $196 $197 $289 reversed $122 $-1 #
coedge $-1 $197 $197 $196 $289 forward $124 $-1 #
coedge $-1 $198 $198 $125 $199 forward $193 $-1 #
edge $-1 $290 1.050363983534518e-015 $290 6.2831853071796013 $198 $291 forward 7 unknown #
face $-1 $292 $293 $30 $-1 $294 reversed single #
loop $-1 $-1 $295 $126 #
plane-surface $-1 -40.67751091036714 0 0 1 0 0 0 0 -1 forward_v I I I I #
coedge $-1 $296 $211 $297 $298 forward $127 $-1 #
coedge $-1 $299 $129 $296 $300 forward $81 $-1 #
coedge $-1 $129 $299 $301 $302 forward $81 $-1 #
coedge $-1 $214 $213 $129 $207 reversed $215 $-1 #
edge $-1 $303 -19.635865148550376 $304 19.635865148550376 $206 $305 forward 7 unknown #
coedge $-1 $131 $130 $306 $307 forward $51 $-1 #
coedge $-1 $308 $309 $130 $210 reversed $293 $-1 #
edge $-1 $217 -40.67751091036714 $310 40.67751091036714 $209 $311 forward 7 unknown #
coedge $-1 $203 $312 $131 $212 reversed $127 $-1 #
edge $-1 $313 -40.67751091036714 $216 40.67751091036714 $211 $314 forward 7 unknown #
coedge $-1 $206 $132 $312 $315 forward $215 $-1 #
coedge $-1 $132 $206 $308 $316 reversed $215 $-1 #
loop $-1 $-1 $213 $292 #
vertex $-1 $133 $317 #
vertex $-1 $133 $318 #
straight-curve $-1 40.67751091036714 0 9.0472277136669348 0 1 0 I I #
face $-1 $319 $320 $31 $-1 $321 forward single #
loop $-1 $-1 $322 $134 #
plane-surface $-1 -40.67751091036714 0 0 1 0 0 0 0 -1 forward_v I I I I #
coedge $-1 $229 $323 $231 $324 forward $135 $-1 #
coedge $-1 $137 $231 $325 $326 reversed $85 $-1 #
coedge $-1 $327 $227 $137 $225 forward $328 $-1 #
edge $-1 $233 0.69373491598174564 $329 5.8002401704507083 $224 $330 forward 7 unknown #
coedge $-1 $139 $138 $322 $331 reversed $54 $-1 #
coedge $-1 $224 $332 $138 $228 forward $328 $-1 #
edge $-1 $333 -22.20038401136782 $233 -14.753869786630819 $227 $334 forward 7 unknown #
coedge $-1 $335 $222 $139 $230 forward $135 $-1 #
edge $-1 $232 14.753869786630819 $336 22.20038401136782 $229 $337 forward 7 unknown #
coedge $-1 $223 $140 $222 $324 reversed $85 $-1 #
vertex $-1 $230 $338 #
vertex $-1 $228 $339 #
straight-curve $-1 -33.230996685630139 0 3.9407224591979721 0 -1 0 I I #
face $-1 $-1 $247 $32 $-1 $340 reversed single #
loop $-1 $-1 $341 $142 #
plane-surface $-1 0 0 9.0472277136669348 0 0 1 1 0 0 forward_v I I I I #
coedge $-1 $342 $343 $240 $344 forward $143 $-1 #
coedge $-1 $345 $145 $147 $245 forward $89 $-1 #
coedge $-1 $145 $345 $238 $344 reversed $89 $-1 #
coedge $-1 $346 $148 $145 $242 forward $247 $-1 #
edge $-1 $249 5.2093249259777394 $347 20.417556148427515 $241 $348 forward 7 unknown #
coedge $-1 $349 $341 $146 $244 forward $236 $-1 #
edge $-1 $350 -11.899262005923088 $248 -9.4371809552302999 $243 $351 forward 7 unknown #
edge $-1 $249 -39.27173029710076 $350 -35.359444717786118 $147 $352 forward 7 unknown #
coedge $-1 $148 $346 $349 $353 reversed $247 $-1 #
loop $-1 $-1 $241 $235 #
vertex $-1 $353 $354 #
vertex $-1 $149 $355 #
straight-curve $-1 -18.022765463180363 19.635865148550376 43.862525491390116 0 0 -1 I I #
coedge $-1 $251 $251 $-1 $356 reversed $152 $-1 #
edge $-1 $357 0 $357 6.2831853071796004 $153 $358 forward 7 unknown #
vertex $-1 $156 $359 #
ellipse-curve $-1 -30.189350441140178 18.404824623203986 7.5270192284639332 0 0.77714596973225614 0.62932038083071107 0.5 0 0 1 I I #
coedge $-1 $255 $255 $-1 $360 reversed $159 $-1 #
edge $-1 $361 0 $361 6.2831853071796004 $160 $362 forward 7 unknown #
vertex $-1 $163 $363 #
ellipse-curve $-1 -25.626881074405247 18.404824623203986 7.5270192284639332 0 0.77714596973225614 0.62932038083071107 0.5 0 0 1 I I #
coedge $-1 $259 $259 $-1 $364 reversed $166 $-1 #
edge $-1 $365 0 $365 6.2831853071796004 $167 $366 forward 7 unknown #
vertex $-1 $170 $367 #
ellipse-curve $-1 -21.064411707670317 18.404824623203986 7.5270192284639332 0 0.77714596973225614 0.62932038083071107 0.5 0 0 1 I I #
face $-1 $-1 $276 $36 $-1 $368 reversed single #
loop $-1 $-1 $272 $171 #
plane-surface $-1 -33.230996685630139 0 6.493975086432453 -1 0 0 0 0 1 forward_v I I I I #
coedge $-1 $369 $370 $268 $371 forward $172 $-1 #
coedge $-1 $268 $174 $176 $274 reversed $108 $-1 #
coedge $-1 $174 $267 $266 $371 reversed $108 $-1 #
coedge $-1 $372 $177 $174 $270 forward $276 $-1 #
edge $-1 $278 -22.595781285727185 $373 -19.555364315321189 $269 $374 forward 7 unknown #
coedge $-1 $176 $175 $369 $375 reversed $69 $-1 #
coedge $-1 $376 $377 $175 $273 forward $264 $-1 #
edge $-1 $378 2.4556383902449701 $277 6.3679239695596097 $272 $379 forward 7 unknown #
edge $-1 $380 -3.9122855793146338 $278 5.6870165216907905e-015 $267 $381 forward 7 unknown #
coedge $-1 $177 $372 $376 $382 forward $276 $-1 #
loop $-1 $-1 $269 $263 #
vertex $-1 $273 $383 #
vertex $-1 $178 $384 #
straight-curve $-1 -12.813440537202624 -19.635865148550376 6.0068107432609361 1 0 0 I I #
coedge $-1 $280 $280 $-1 $385 reversed $181 $-1 #
edge $-1 $386 0 $386 6.2831853071796004 $182 $387 forward 7 unknown #
vertex $-1 $185 $388 #
ellipse-curve $-1 -30.189350441140178 -18.404824623203982 7.5270192284639359 0 -0.77714596973225614 0.62932038083071107 0.5 0 0 1 I I #
coedge $-1 $284 $284 $-1 $389 reversed $188 $-1 #
edge $-1 $390 0 $390 6.2831853071796004 $189 $391 forward 7 unknown #
vertex $-1 $192 $392 #
ellipse-curve $-1 -25.626881074405247 -18.404824623203982 7.5270192284639359 0 -0.77714596973225614 0.62932038083071107 0.5 0 0 1 I I #
coedge $-1 $288 $288 $-1 $393 reversed $195 $-1 #
edge $-1 $394 0 $394 6.2831853071796004 $196 $395 forward 7 unknown #
vertex $-1 $199 $396 #
ellipse-curve $-1 -21.064411707670317 -18.404824623203982 7.5270192284639359 0 -0.77714596973225614 0.62932038083071107 0.5 0 0 1 I I #
face $-1 $-1 $215 $30 $-1 $397 reversed single #
loop $-1 $-1 $308 $200 #
plane-surface $-1 0 19.635865148550376 0 0 -1 0 0 0 -1 forward_v I I I I #
coedge $-1 $398 $306 $309 $399 forward $201 $-1 #
coedge $-1 $312 $203 $204 $300 reversed $127 $-1 #
coedge $-1 $306 $398 $203 $298 reversed $201 $-1 #
edge $-1 $313 -9.0472277136669348 $400 9.0472277136669348 $297 $401 forward 7 unknown #
coedge $-1 $205 $204 $398 $402 forward $81 $-1 #
edge $-1 $304 -40.67751091036714 $400 40.67751091036714 $296 $403 forward 7 unknown #
coedge $-1 $309 $308 $205 $302 reversed $293 $-1 #
edge $-1 $404 -40.67751091036714 $303 40.67751091036714 $301 $405 forward 7 unknown #
vertex $-1 $207 $406 #
vertex $-1 $315 $407 #
straight-curve $-1 40.67751091036714 0 -9.0472277136669348 0 -1 0 I I #
coedge $-1 $295 $297 $208 $307 reversed $201 $-1 #
edge $-1 $310 -19.635865148550376 $313 19.635865148550376 $306 $408 forward 7 unknown #
coedge $-1 $301 $209 $214 $316 forward $293 $-1 #
coedge $-1 $209 $301 $295 $399 reversed $293 $-1 #
vertex $-1 $210 $409 #
straight-curve $-1 0 19.635865148550376 9.0472277136669348 -1 0 0 I I #
coedge $-1 $211 $296 $213 $315 reversed $127 $-1 #
vertex $-1 $307 $410 #
straight-curve $-1 0 -19.635865148550376 9.0472277136669348 1 0 0 I I #
edge $-1 $216 -9.0472277136669348 $304 9.0472277136669348 $213 $411 forward 7 unknown #
edge $-1 $217 -9.0472277136669348 $303 9.0472277136669348 $214 $412 forward 7 unknown #
point $-1 40.67751091036714 -19.635865148550376 9.0472277136669348 #
point $-1 40.67751091036714 19.635865148550376 9.0472277136669348 #
face $-1 $-1 $328 $31 $-1 $413 reversed single #
loop $-1 $-1 $325 $219 #
plane-surface $-1 0 0 9.0472277136669348 0 0 1 1 0 0 forward_v I I I I #
coedge $-1 $414 $415 $226 $331 forward $220 $-1 #
coedge $-1 $222 $335 $416 $417 reversed $135 $-1 #
edge $-1 $418 -5.8002401704507083 $232 -0.69373491598174564 $222 $419 forward 7 unknown #
coedge $-1 $416 $420 $223 $326 forward $320 $-1 #
edge $-1 $329 -19.635865148550376 $418 19.635865148550376 $325 $421 forward 7 unknown #
coedge $-1 $332 $224 $420 $422 reversed $328 $-1 #
loop $-1 $-1 $224 $319 #
vertex $-1 $225 $423 #
straight-curve $-1 -33.230996685630139 -19.635865148550376 3.2469875432162265 0 0 1 I I #
edge $-1 $336 -19.635865148550376 $333 19.635865148550376 $322 $424 forward 7 unknown #
coedge $-1 $227 $327 $414 $425 forward $328 $-1 #
vertex $-1 $331 $426 #
straight-curve $-1 -18.47712689899932 -19.635865148550376 3.9407224591979721 1 0 0 I I #
coedge $-1 $323 $229 $415 $427 reversed $135 $-1 #
vertex $-1 $331 $428 #
straight-curve $-1 -18.47712689899932 19.635865148550376 3.9407224591979721 -1 0 0 I I #
point $-1 -33.230996685630139 19.635865148550376 3.9407224591979721 #
point $-1 -33.230996685630139 -19.635865148550376 3.9407224591979721 #
plane-surface $-1 0 19.635865148550376 0 0 -1 0 0 0 -1 forward_v I I I I #
coedge $-1 $243 $429 $345 $430 forward $236 $-1 #
coedge $-1 $343 $238 $429 $431 reversed $143 $-1 #
coedge $-1 $238 $342 $346 $432 reversed $143 $-1 #
edge $-1 $347 -26.003789118109985 $433 -22.09150353879534 $238 $434 forward 7 unknown #
coedge $-1 $240 $239 $341 $430 reversed $89 $-1 #
coedge $-1 $246 $241 $343 $432 forward $247 $-1 #
vertex $-1 $432 $435 #
straight-curve $-1 -12.813440537202624 19.635865148550376 6.0068107432609352 -1 0 0 I I #
coedge $-1 $429 $243 $246 $353 forward $236 $-1 #
vertex $-1 $244 $436 #
straight-curve $-1 -18.022765463180363 29.073046103780676 9.0472277136669348 0 1 0 I I #
straight-curve $-1 -18.022765463180363 -5.0786351179020457 36.526677668064927 0 -0.62932038083071107 0.77714596973225614 I I #
edge $-1 $248 18.022765463180363 $437 33.230996685630139 $246 $438 forward 7 unknown #
point $-1 -18.022765463180363 19.635865148550376 9.0472277136669348 #
point $-1 -18.022765463180363 19.63586514855038 6.0068107432609352 #
edge $-1 $439 1 $439 0 $251 $-1 forward 7 unknown #
vertex $-1 $252 $440 #
ellipse-curve $-1 -30.189350441140178 17.580018665490623 6.8591045513815292 0 0.77714596973225614 0.62932038083071107 0.5 0 0 1 I I #
point $-1 -29.689350441140178 18.404824623203986 7.5270192284639359 #
edge $-1 $441 1 $441 0 $255 $-1 forward 7 unknown #
vertex $-1 $256 $442 #
ellipse-curve $-1 -25.626881074405247 17.580018665490623 6.8591045513815292 0 0.77714596973225614 0.62932038083071107 0.5 0 0 1 I I #
point $-1 -25.126881074405247 18.404824623203986 7.5270192284639359 #
edge $-1 $443 1 $443 0 $259 $-1 forward 7 unknown #
vertex $-1 $260 $444 #
ellipse-curve $-1 -21.064411707670317 17.580018665490623 6.8591045513815292 0 0.77714596973225614 0.62932038083071107 0.5 0 0 1 I I #
point $-1 -20.564411707670317 18.404824623203986 7.5270192284639359 #
plane-surface $-1 0 -19.635865148550376 0 0 1 0 0 0 1 forward_v I I I I #
coedge $-1 $445 $266 $271 $375 forward $172 $-1 #
coedge $-1 $266 $445 $372 $446 forward $172 $-1 #
edge $-1 $373 21.794431088456509 $380 24.256512139149297 $266 $447 forward 7 unknown #
coedge $-1 $275 $269 $370 $446 reversed $276 $-1 #
vertex $-1 $371 $448 #
straight-curve $-1 -18.022765463180363 -19.635865148550376 28.602592028988123 0 0 1 I I #
edge $-1 $380 5.2093249259777394 $378 20.417556148427508 $369 $449 forward 7 unknown #
coedge $-1 $377 $272 $275 $382 reversed $264 $-1 #
coedge $-1 $272 $376 $445 $450 reversed $264 $-1 #
vertex $-1 $450 $451 #
straight-curve $-1 -33.230996685630139 -15.628400810926109 10.955617191765619 0 -0.62932038083071107 -0.77714596973225614 I I #
vertex $-1 $375 $452 #
straight-curve $-1 -18.022765463180363 -19.635865148550373 6.0068107432609423 0 -0.62932038083071107 -0.77714596973225614 I I #
edge $-1 $453 -5.8002401704507083 $277 -2.7598232000447114 $275 $454 forward 7 unknown #
point $-1 -33.230996685630139 -19.635865148550376 6.0068107432609379 #
point $-1 -18.022765463180363 -19.635865148550376 6.0068107432609379 #
edge $-1 $455 1 $455 0 $280 $-1 forward 7 unknown #
vertex $-1 $281 $456 #
ellipse-curve $-1 -30.189350441140178 -17.580018665490623 6.8591045513815327 0 -0.77714596973225614 0.62932038083071107 0.5 0 0 1 I I #
point $-1 -29.689350441140178 -18.404824623203986 7.5270192284639394 #
edge $-1 $457 1 $457 0 $284 $-1 forward 7 unknown #
vertex $-1 $285 $458 #
ellipse-curve $-1 -25.626881074405247 -17.580018665490623 6.8591045513815327 0 -0.77714596973225614 0.62932038083071107 0.5 0 0 1 I I #
point $-1 -25.126881074405247 -18.404824623203986 7.5270192284639394 #
edge $-1 $459 1 $459 0 $288 $-1 forward 7 unknown #
vertex $-1 $289 $460 #
ellipse-curve $-1 -21.064411707670317 -17.580018665490623 6.8591045513815327 0 -0.77714596973225614 0.62932038083071107 0.5 0 0 1 I I #
point $-1 -20.564411707670317 -18.404824623203986 7.5270192284639394 #
plane-surface $-1 40.67751091036714 0 0 -1 0 0 0 0 1 forward_v I I I I #
coedge $-1 $297 $295 $299 $402 reversed $201 $-1 #
edge $-1 $310 -9.0472277136669348 $404 9.0472277136669348 $309 $461 forward 7 unknown #
vertex $-1 $402 $462 #
straight-curve $-1 -40.67751091036714 -19.635865148550376 0 0 0 -1 I I #
edge $-1 $400 -19.635865148550376 $404 19.635865148550376 $398 $463 forward 7 unknown #
straight-curve $-1 0 -19.635865148550376 -9.0472277136669348 -1 0 0 I I #
vertex $-1 $302 $464 #
straight-curve $-1 0 19.635865148550376 -9.0472277136669348 1 0 0 I I #
point $-1 40.67751091036714 19.635865148550376 -9.0472277136669348 #
point $-1 40.67751091036714 -19.635865148550376 -9.0472277136669348 #
straight-curve $-1 -40.67751091036714 0 9.0472277136669348 0 -1 0 I I #
point $-1 -40.67751091036714 19.635865148550376 9.0472277136669348 #
point $-1 -40.67751091036714 -19.635865148550376 9.0472277136669348 #
straight-curve $-1 40.67751091036714 -19.635865148550376 0 0 0 -1 I I #
straight-curve $-1 40.67751091036714 19.635865148550376 0 0 0 -1 I I #
plane-surface $-1 0 -19.635865148550376 0 0 1 0 0 0 1 forward_v I I I I #
coedge $-1 $465 $322 $332 $425 reversed $220 $-1 #
coedge $-1 $322 $465 $335 $427 forward $220 $-1 #
coedge $-1 $466 $325 $323 $417 forward $320 $-1 #
edge $-1 $418 33.230996685630139 $467 40.67751091036714 $323 $468 forward 7 unknown #
vertex $-1 $417 $469 #
straight-curve $-1 -33.230996685630139 19.635865148550376 3.2469875432162265 0 0 -1 I I #
coedge $-1 $325 $466 $327 $422 forward $320 $-1 #
straight-curve $-1 -33.230996685630139 0 9.0472277136669348 0 1 0 I I #
edge $-1 $470 -40.67751091036714 $329 -33.230996685630139 $327 $471 forward 7 unknown #
point $-1 -33.230996685630139 -19.635865148550376 9.0472277136669348 #
straight-curve $-1 -40.67751091036714 0 3.9407224591979721 0 -1 0 I I #
edge $-1 $470 -9.0472277136669348 $333 -3.9407224591979721 $414 $472 forward 7 unknown #
point $-1 -40.67751091036714 -19.635865148550376 3.9407224591979721 #
edge $-1 $467 -9.0472277136669348 $336 -3.9407224591979721 $335 $473 forward 7 unknown #
point $-1 -40.67751091036714 19.635865148550376 3.9407224591979721 #
coedge $-1 $341 $349 $342 $431 forward $236 $-1 #
edge $-1 $433 -20.417556148427515 $350 -5.2093249259777394 $341 $474 forward 7 unknown #
edge $-1 $437 -19.635865148550376 $433 -17.173784097857585 $429 $475 forward 7 unknown #
edge $-1 $347 2.7598232000447069 $437 5.8002401704507083 $346 $476 forward 7 unknown #
vertex $-1 $344 $477 #
straight-curve $-1 -33.230996685630139 3.2711506776998993 26.215550654167608 0 -0.62932038083071107 0.77714596973225614 I I #
point $-1 -33.230996685630139 19.635865148550376 6.0068107432609334 #
point $-1 -18.022765463180363 17.173784097857588 9.0472277136669312 #
vertex $-1 $431 $478 #
straight-curve $-1 0 19.635865148550376 9.0472277136669348 -1 0 0 I I #
vertex $-1 $356 $479 #
point $-1 -29.689350441140178 17.580018665490623 6.8591045513815292 #
vertex $-1 $360 $480 #
point $-1 -25.126881074405247 17.580018665490623 6.8591045513815292 #
vertex $-1 $364 $481 #
point $-1 -20.564411707670317 17.580018665490623 6.8591045513815292 #
coedge $-1 $370 $369 $377 $450 forward $172 $-1 #
edge $-1 $453 -33.230996685630139 $373 -18.022765463180363 $372 $482 forward 7 unknown #
straight-curve $-1 -18.022765463180363 -41.430296237006885 9.0472277136669348 0 1 0 I I #
point $-1 -18.022765463180363 -19.635865148550376 9.0472277136669348 #
straight-curve $-1 -12.813440537202624 -17.173784097857588 9.0472277136669348 -1 0 0 I I #
edge $-1 $378 17.173784097857588 $453 19.635865148550376 $445 $483 forward 7 unknown #
point $-1 -33.230996685630132 -17.173784097857588 9.0472277136669348 #
point $-1 -18.022765463180363 -17.173784097857588 9.0472277136669348 #
vertex $-1 $446 $484 #
straight-curve $-1 -33.230996685630139 -19.635865148550376 3.2469875432162265 0 0 -1 I I #
vertex $-1 $385 $485 #
point $-1 -29.689350441140178 -17.580018665490623 6.8591045513815327 #
vertex $-1 $389 $486 #
point $-1 -25.126881074405247 -17.580018665490623 6.8591045513815327 #
vertex $-1 $393 $487 #
point $-1 -20.564411707670317 -17.580018665490623 6.8591045513815327 #
straight-curve $-1 -40.67751091036714 19.635865148550376 0 0 0 -1 I I #
point $-1 -40.67751091036714 -19.635865148550376 -9.0472277136669348 #
straight-curve $-1 -40.67751091036714 0 -9.0472277136669348 0 1 0 I I #
point $-1 -40.67751091036714 19.635865148550376 -9.0472277136669348 #
coedge $-1 $415 $414 $466 $488 reversed $220 $-1 #
coedge $-1 $420 $416 $465 $488 forward $320 $-1 #
vertex $-1 $417 $489 #
straight-curve $-1 0 19.635865148550376 9.0472277136669348 -1 0 0 I I #
point $-1 -33.230996685630139 19.635865148550376 9.0472277136669348 #
vertex $-1 $488 $490 #
straight-curve $-1 0 -19.635865148550376 9.0472277136669348 1 0 0 I I #
straight-curve $-1 -40.67751091036714 -19.635865148550376 0 0 0 -1 I I #
straight-curve $-1 -40.67751091036714 19.635865148550376 0 0 0 -1 I I #
straight-curve $-1 -12.813440537202624 17.173784097857585 9.0472277136669383 1 0 0 I I #
straight-curve $-1 -33.230996685630139 0 9.0472277136669348 0 -1 0 I I #
straight-curve $-1 -33.230996685630139 19.635865148550376 3.2469875432162265 0 0 1 I I #
point $-1 -33.230996685630139 17.173784097857585 9.0472277136669348 #
point $-1 -33.230996685630139 19.635865148550376 9.0472277136669348 #
point $-1 -30.189350441140178 17.191445680624494 6.5444443609661729 #
point $-1 -25.626881074405247 17.191445680624494 6.5444443609661729 #
point $-1 -21.064411707670317 17.191445680624494 6.5444443609661729 #
straight-curve $-1 0 -19.635865148550376 9.0472277136669348 1 0 0 I I #
straight-curve $-1 -33.230996685630139 0 9.0472277136669348 0 -1 0 I I #
point $-1 -33.230996685630139 -19.635865148550376 9.0472277136669348 #
point $-1 -30.189350441140178 -17.191445680624494 6.5444443609661764 #
point $-1 -25.626881074405247 -17.191445680624494 6.5444443609661764 #
point $-1 -21.064411707670317 -17.191445680624494 6.5444443609661764 #
edge $-1 $467 -19.635865148550376 $470 19.635865148550376 $465 $491 forward 7 unknown #
point $-1 -40.67751091036714 19.635865148550376 9.0472277136669348 #
point $-1 -40.67751091036714 -19.635865148550376 9.0472277136669348 #
straight-curve $-1 -40.67751091036714 0 9.0472277136669348 0 -1 0 I I #
End-of-ACIS-data 