500 0 12 0           
7 Unknown 11 ACIS 5.0 NT 24 Fri Mar 26 20:33:33 1999 
-1 9.9999999999999995e-007 1e-010 
body $-1 $12 $-1 $13 #
body $-1 $14 $-1 $15 #
body $-1 $16 $-1 $17 #
body $-1 $18 $-1 $19 #
body $-1 $20 $-1 $21 #
body $-1 $22 $-1 $23 #
body $-1 $24 $-1 $25 #
body $-1 $26 $-1 $27 #
body $-1 $28 $-1 $29 #
body $-1 $30 $-1 $31 #
body $-1 $32 $-1 $33 #
body $-1 $34 $-1 $35 #
lump $-1 $-1 $36 $0 #
transform $-1 1 0 0 0 1 0 0 0 1 45.645924253059484 28.193431415155338 12.137019690513007 1 rotate no_reflect no_shear #
lump $-1 $-1 $37 $1 #
transform $-1 1 0 0 0 1 0 0 0 1 45.645924253059484 28.193431415155338 12.137019690513007 1 rotate no_reflect no_shear #
lump $-1 $-1 $38 $2 #
transform $-1 1 0 0 0 1 0 0 0 1 45.645924253059484 28.193431415155338 12.137019690513007 1 rotate no_reflect no_shear #
lump $-1 $-1 $39 $3 #
transform $-1 1 0 0 0 1 0 0 0 1 45.645924253059484 28.193431415155338 12.137019690513007 1 rotate no_reflect no_shear #
lump $-1 $-1 $40 $4 #
transform $-1 1 0 0 0 1 0 0 0 1 45.645924253059484 28.193431415155338 12.137019690513007 1 rotate no_reflect no_shear #
lump $-1 $-1 $41 $5 #
transform $-1 1 0 0 0 1 0 0 0 1 45.645924253059484 28.193431415155338 12.137019690513007 1 rotate no_reflect no_shear #
lump $-1 $-1 $42 $6 #
transform $-1 1 0 0 0 1 0 0 0 1 45.645924253059484 28.193431415155338 12.137019690513007 1 rotate no_reflect no_shear #
lump $-1 $-1 $43 $7 #
transform $-1 1 0 0 0 1 0 0 0 1 45.645924253059484 28.193431415155338 12.137019690513007 1 rotate no_reflect no_shear #
lump $-1 $-1 $44 $8 #
transform $-1 1 0 0 0 1 0 0 0 1 45.645924253059484 28.193431415155338 12.137019690513007 1 rotate no_reflect no_shear #
lump $-1 $-1 $45 $9 #
transform $-1 1 0 0 0 1 0 0 0 1 45.645924253059484 28.193431415155338 12.137019690513007 1 rotate no_reflect no_shear #
lump $-1 $-1 $46 $10 #
transform $-1 1 0 0 0 1 0 0 0 1 45.645924253059484 28.193431415155338 12.137019690513007 1 rotate no_reflect no_shear #
lump $-1 $-1 $47 $11 #
transform $-1 1 0 0 0 1 0 0 0 1 45.645924253059484 28.193431415155338 12.137019690513007 1 rotate no_reflect no_shear #
shell $-1 $-1 $-1 $48 $-1 $12 #
shell $-1 $-1 $-1 $49 $-1 $14 #
shell $-1 $-1 $-1 $50 $-1 $16 #
shell $-1 $-1 $-1 $51 $-1 $18 #
shell $-1 $-1 $-1 $52 $-1 $20 #
shell $-1 $-1 $-1 $53 $-1 $22 #
shell $-1 $-1 $-1 $54 $-1 $24 #
shell $-1 $-1 $-1 $55 $-1 $26 #
shell $-1 $-1 $-1 $56 $-1 $28 #
shell $-1 $-1 $-1 $57 $-1 $30 #
shell $-1 $-1 $-1 $58 $-1 $32 #
shell $-1 $-1 $-1 $59 $-1 $34 #
face $-1 $60 $61 $36 $-1 $62 forward single #
face $-1 $63 $64 $37 $-1 $65 reversed single #
face $-1 $66 $67 $38 $-1 $68 forward single #
face $-1 $69 $70 $39 $-1 $71 forward single #
face $-1 $72 $73 $40 $-1 $74 forward single #
face $-1 $75 $76 $41 $-1 $77 reversed single #
face $-1 $78 $79 $42 $-1 $80 forward single #
face $-1 $81 $82 $43 $-1 $83 forward single #
face $-1 $84 $85 $44 $-1 $86 forward single #
face $-1 $87 $88 $45 $-1 $89 reversed single #
face $-1 $90 $91 $46 $-1 $92 forward single #
face $-1 $93 $94 $47 $-1 $95 forward single #
face $-1 $96 $97 $36 $-1 $98 reversed single #
loop $-1 $-1 $99 $48 #
plane-surface $-1 0 0 12.137019690513007 0 0 1 1 0 0 forward_v I I I I #
face $-1 $100 $101 $37 $-1 $102 reversed single #
loop $-1 $-1 $103 $49 #
plane-surface $-1 70.280544733166664 0 131.13295665539613 0 -1 0 -0.82903758062907751 0 -0.55919289150049634 forward_v I I I I #
face $-1 $104 $105 $38 $-1 $106 forward single #
loop $-1 $107 $108 $50 #
cone-surface $-1 42.325918743147156 -9.9515344423224334 7.7888431245939804 -0.82903758062907751 0 -0.55919289150049634 0.27959644575024817 0 -0.41451879031453875 1 I I 0 1 0.5 forward I I I I #
face $-1 $109 $110 $39 $-1 $111 forward single #
loop $-1 $112 $113 $51 #
cone-surface $-1 42.325918743147156 -6.2197090264515182 7.7888431245939804 -0.82903758062907751 0 -0.55919289150049634 0.27959644575024817 0 -0.41451879031453875 1 I I 0 1 0.5 forward I I I I #
face $-1 $114 $115 $40 $-1 $116 forward single #
loop $-1 $117 $118 $52 #
cone-surface $-1 42.325918743147156 -2.487883610580603 7.7888431245939804 -0.82903758062907751 0 -0.55919289150049634 0.27959644575024817 0 -0.41451879031453875 1 I I 0 1 0.5 forward I I I I #
face $-1 $119 $120 $41 $-1 $121 reversed single #
loop $-1 $-1 $122 $53 #
plane-surface $-1 70.280544733166664 15.754013362252291 131.13295665539613 0 1 0 0.82903758062907751 0 0.55919289150049634 forward_v I I I I #
face $-1 $123 $124 $42 $-1 $125 forward single #
loop $-1 $126 $127 $54 #
cone-surface $-1 42.325918743147156 18.241896972832905 7.7888431245939804 -0.82903758062907751 0 -0.55919289150049634 0.27959644575024817 0 -0.41451879031453875 1 I I 0 1 0.5 forward I I I I #
face $-1 $128 $129 $43 $-1 $130 forward single #
loop $-1 $131 $132 $55 #
cone-surface $-1 42.325918743147156 21.97372238870382 7.7888431245939804 -0.82903758062907751 0 -0.55919289150049634 0.27959644575024817 0 -0.41451879031453875 1 I I 0 1 0.5 forward I I I I #
face $-1 $133 $134 $44 $-1 $135 forward single #
loop $-1 $136 $137 $56 #
cone-surface $-1 42.325918743147156 25.705547804574735 7.7888431245939804 -0.82903758062907751 0 -0.55919289150049634 0.27959644575024817 0 -0.41451879031453875 1 I I 0 1 0.5 forward I I I I #
face $-1 $138 $139 $45 $-1 $140 reversed single #
loop $-1 $-1 $141 $57 #
plane-surface $-1 -122.20971141920336 9.8445545278151592 50.728581775998336 0 1 0 -0.83867057594974714 0 0.54463902268945019 forward_v I I I I #
face $-1 $142 $143 $46 $-1 $144 forward single #
loop $-1 $145 $146 $58 #
cone-surface $-1 -40.193249086393635 14.322299441606681 5.3780723772486967 0.83867057594974714 0 -0.54463902268945019 1.0892780453789004 0 1.6773411518994943 1 I I 0 1 2 forward I I I I #
face $-1 $147 $148 $47 $-1 $149 forward single #
loop $-1 $150 $151 $59 #
cone-surface $-1 -40.193249086393635 21.038916812293955 5.3780723772486967 0.83867057594974714 0 -0.54463902268945019 1.0892780453789004 0 1.6773411518994943 1 I I 0 1 2 forward I I I I #
face $-1 $152 $153 $36 $-1 $154 reversed single #
loop $-1 $-1 $155 $60 #
plane-surface $-1 0 0 -12.137019690513007 0 0 1 1 0 0 forward_v I I I I #
coedge $-1 $156 $157 $158 $159 forward $61 $-1 #
face $-1 $160 $161 $37 $-1 $162 reversed single #
loop $-1 $-1 $163 $63 #
plane-surface $-1 -5.4038284835024655 -6.2197090264515218 80.083203918834187 0.82903758062907751 0 0.55919289150049634 0.55919289150049634 0 -0.82903758062907751 forward_v I I I I #
coedge $-1 $164 $165 $166 $167 reversed $64 $-1 #
face $-1 $-1 $168 $38 $-1 $169 forward single #
loop $-1 $170 $171 $66 #
cone-surface $-1 41.408390945584877 -9.9515344423224334 7.169962829973791 -0.82903758062907751 0 -0.55919289150049634 0.13979822287512408 0 -0.20725939515726938 1 I I -0.70710678118654624 0.70710678118654879 0.25 forward I I I I #
loop $-1 $-1 $172 $50 #
coedge $-1 $108 $108 $173 $174 reversed $67 $-1 #
face $-1 $-1 $175 $39 $-1 $176 forward single #
loop $-1 $177 $178 $69 #
cone-surface $-1 41.408390945584877 -6.2197090264515182 7.169962829973791 -0.82903758062907751 0 -0.55919289150049634 0.13979822287512408 0 -0.20725939515726938 1 I I -0.70710678118654624 0.70710678118654879 0.25 forward I I I I #
loop $-1 $-1 $179 $51 #
coedge $-1 $113 $113 $180 $181 reversed $70 $-1 #
face $-1 $-1 $182 $40 $-1 $183 forward single #
loop $-1 $184 $185 $72 #
cone-surface $-1 41.408390945584877 -2.487883610580603 7.169962829973791 -0.82903758062907751 0 -0.55919289150049634 0.13979822287512408 0 -0.20725939515726938 1 I I -0.70710678118654624 0.70710678118654879 0.25 forward I I I I #
loop $-1 $-1 $186 $52 #
coedge $-1 $118 $118 $187 $188 reversed $73 $-1 #
face $-1 $189 $190 $41 $-1 $191 reversed single #
loop $-1 $-1 $192 $75 #
plane-surface $-1 -5.4038284835024655 21.973722388703813 80.083203918834187 0.82903758062907751 0 0.55919289150049634 0.55919289150049634 0 -0.82903758062907751 forward_v I I I I #
coedge $-1 $193 $194 $195 $196 reversed $76 $-1 #
face $-1 $-1 $197 $42 $-1 $198 forward single #
loop $-1 $199 $200 $78 #
cone-surface $-1 41.408390945584877 18.241896972832905 7.169962829973791 -0.82903758062907751 0 -0.55919289150049634 0.13979822287512408 0 -0.20725939515726938 1 I I -0.70710678118654624 0.70710678118654879 0.25 forward I I I I #
loop $-1 $-1 $201 $54 #
coedge $-1 $127 $127 $202 $203 reversed $79 $-1 #
face $-1 $-1 $204 $43 $-1 $205 forward single #
loop $-1 $206 $207 $81 #
cone-surface $-1 41.408390945584877 21.97372238870382 7.169962829973791 -0.82903758062907751 0 -0.55919289150049634 0.13979822287512408 0 -0.20725939515726938 1 I I -0.70710678118654624 0.70710678118654879 0.25 forward I I I I #
loop $-1 $-1 $208 $55 #
coedge $-1 $132 $132 $209 $210 reversed $82 $-1 #
face $-1 $-1 $211 $44 $-1 $212 forward single #
loop $-1 $213 $214 $84 #
cone-surface $-1 41.408390945584877 25.705547804574735 7.169962829973791 -0.82903758062907751 0 -0.55919289150049634 0.13979822287512408 0 -0.20725939515726938 1 I I -0.70710678118654624 0.70710678118654879 0.25 forward I I I I #
loop $-1 $-1 $215 $56 #
coedge $-1 $137 $137 $216 $217 reversed $85 $-1 #
face $-1 $218 $219 $45 $-1 $220 reversed single #
loop $-1 $-1 $221 $87 #
plane-surface $-1 -45.645924253059505 17.680608126950311 1.0074786261123592 -0.83867057594974714 0 0.54463902268945019 0.54463902268945019 0 0.83867057594974714 forward_v I I I I #
coedge $-1 $222 $223 $224 $225 reversed $88 $-1 #
face $-1 $-1 $226 $46 $-1 $227 forward single #
loop $-1 $228 $229 $90 #
cone-surface $-1 -37.515707465517295 14.322299441606681 3.6392565734952633 0.83867057594974714 0 -0.54463902268945019 0.54463902268945019 0 0.83867057594974714 1 I I -0.70710678118654746 0.70710678118654746 1 forward I I I I #
loop $-1 $-1 $230 $58 #
coedge $-1 $146 $146 $231 $232 reversed $91 $-1 #
face $-1 $-1 $233 $47 $-1 $234 forward single #
loop $-1 $235 $236 $93 #
cone-surface $-1 -37.515707465517295 21.038916812293955 3.6392565734952633 0.83867057594974714 0 -0.54463902268945019 0.54463902268945019 0 0.83867057594974714 1 I I -0.70710678118654746 0.70710678118654746 1 forward I I I I #
loop $-1 $-1 $237 $59 #
coedge $-1 $151 $151 $238 $239 reversed $94 $-1 #
face $-1 $240 $241 $36 $-1 $242 reversed single #
loop $-1 $-1 $243 $96 #
plane-surface $-1 0 -28.193431415155338 0 0 1 0 0 0 1 forward_v I I I I #
coedge $-1 $244 $245 $246 $247 forward $97 $-1 #
coedge $-1 $248 $99 $249 $250 forward $61 $-1 #
coedge $-1 $99 $248 $251 $252 forward $61 $-1 #
coedge $-1 $253 $254 $99 $159 reversed $255 $-1 #
edge $-1 $256 -28.193431415155338 $257 28.193431415155338 $158 $258 forward 7 unknown #
face $-1 $259 $260 $37 $-1 $261 forward single #
loop $-1 $-1 $262 $100 #
plane-surface $-1 70.280544733166664 -12.439418052903044 131.13295665539613 0 1 0 0.82903758062907751 0 0.55919289150049634 forward_v I I I I #
coedge $-1 $263 $264 $265 $266 reversed $101 $-1 #
coedge $-1 $165 $103 $267 $268 reversed $64 $-1 #
coedge $-1 $103 $164 $263 $269 reversed $64 $-1 #
coedge $-1 $265 $270 $103 $167 forward $260 $-1 #
edge $-1 $271 -10.505651886476151 $272 -5.2861776714615019 $166 $273 forward 7 unknown #
loop $-1 $-1 $173 $104 #
plane-surface $-1 -5.4038284835024655 -6.2197090264515218 80.083203918834187 0.82903758062907751 0 0.55919289150049634 0.55919289150049634 0 -0.82903758062907751 forward_v I I I I #
loop $-1 $-1 $274 $66 #
coedge $-1 $171 $171 $172 $275 reversed $105 $-1 #
coedge $-1 $172 $172 $171 $275 forward $107 $-1 #
coedge $-1 $173 $173 $108 $174 forward $168 $-1 #
edge $-1 $276 0 $276 6.2831853071796004 $173 $277 forward 7 unknown #
loop $-1 $-1 $180 $109 #
plane-surface $-1 -5.4038284835024655 -6.2197090264515218 80.083203918834187 0.82903758062907751 0 0.55919289150049634 0.55919289150049634 0 -0.82903758062907751 forward_v I I I I #
loop $-1 $-1 $278 $69 #
coedge $-1 $178 $178 $179 $279 reversed $110 $-1 #
coedge $-1 $179 $179 $178 $279 forward $112 $-1 #
coedge $-1 $180 $180 $113 $181 forward $175 $-1 #
edge $-1 $280 0 $280 6.2831853071796004 $180 $281 forward 7 unknown #
loop $-1 $-1 $187 $114 #
plane-surface $-1 -5.4038284835024655 -6.2197090264515218 80.083203918834187 0.82903758062907751 0 0.55919289150049634 0.55919289150049634 0 -0.82903758062907751 forward_v I I I I #
loop $-1 $-1 $282 $72 #
coedge $-1 $185 $185 $186 $283 reversed $115 $-1 #
coedge $-1 $186 $186 $185 $283 forward $117 $-1 #
coedge $-1 $187 $187 $118 $188 forward $182 $-1 #
edge $-1 $284 0 $284 6.2831853071796004 $187 $285 forward 7 unknown #
face $-1 $286 $287 $41 $-1 $288 forward single #
loop $-1 $-1 $195 $119 #
plane-surface $-1 45.645924253059484 0 0 -1 0 0 0 0 1 forward_v I I I I #
coedge $-1 $289 $290 $291 $292 reversed $120 $-1 #
coedge $-1 $194 $122 $293 $294 reversed $76 $-1 #
coedge $-1 $122 $193 $289 $295 reversed $76 $-1 #
coedge $-1 $291 $296 $122 $196 forward $190 $-1 #
edge $-1 $297 53.429458637185057 $298 61.167647625533036 $195 $299 forward 7 unknown #
loop $-1 $-1 $202 $123 #
plane-surface $-1 -5.4038284835024655 21.973722388703813 80.083203918834187 0.82903758062907751 0 0.55919289150049634 0.55919289150049634 0 -0.82903758062907751 forward_v I I I I #
loop $-1 $-1 $300 $78 #
coedge $-1 $200 $200 $201 $301 reversed $124 $-1 #
coedge $-1 $201 $201 $200 $301 forward $126 $-1 #
coedge $-1 $202 $202 $127 $203 forward $197 $-1 #
edge $-1 $302 0 $302 6.2831853071796004 $202 $303 forward 7 unknown #
loop $-1 $-1 $209 $128 #
plane-surface $-1 -5.4038284835024655 21.973722388703813 80.083203918834187 0.82903758062907751 0 0.55919289150049634 0.55919289150049634 0 -0.82903758062907751 forward_v I I I I #
loop $-1 $-1 $304 $81 #
coedge $-1 $207 $207 $208 $305 reversed $129 $-1 #
coedge $-1 $208 $208 $207 $305 forward $131 $-1 #
coedge $-1 $209 $209 $132 $210 forward $204 $-1 #
edge $-1 $306 0 $306 6.2831853071796004 $209 $307 forward 7 unknown #
loop $-1 $-1 $216 $133 #
plane-surface $-1 -5.4038284835024655 21.973722388703813 80.083203918834187 0.82903758062907751 0 0.55919289150049634 0.55919289150049634 0 -0.82903758062907751 forward_v I I I I #
loop $-1 $-1 $308 $84 #
coedge $-1 $214 $214 $215 $309 reversed $134 $-1 #
coedge $-1 $215 $215 $214 $309 forward $136 $-1 #
coedge $-1 $216 $216 $137 $217 forward $211 $-1 #
edge $-1 $310 0 $310 6.2831853071796004 $216 $311 forward 7 unknown #
face $-1 $312 $313 $45 $-1 $314 reversed single #
loop $-1 $-1 $315 $138 #
plane-surface $-1 -122.20971141920336 25.516661726085463 50.728581775998336 0 -1 0 0.83867057594974714 0 -0.54463902268945019 forward_v I I I I #
coedge $-1 $316 $317 $318 $319 reversed $139 $-1 #
coedge $-1 $223 $141 $320 $321 reversed $88 $-1 #
coedge $-1 $141 $222 $316 $322 reversed $88 $-1 #
coedge $-1 $318 $323 $141 $225 forward $324 $-1 #
edge $-1 $325 15.458931456542196 $326 22.686539700020695 $224 $327 forward 7 unknown #
loop $-1 $-1 $231 $142 #
plane-surface $-1 -45.645924253059505 17.680608126950311 1.0074786261123592 -0.83867057594974714 0 0.54463902268945019 0.54463902268945019 0 0.83867057594974714 forward_v I I I I #
loop $-1 $-1 $328 $90 #
coedge $-1 $229 $229 $230 $329 reversed $143 $-1 #
coedge $-1 $230 $230 $229 $329 forward $145 $-1 #
coedge $-1 $231 $231 $146 $232 forward $226 $-1 #
edge $-1 $330 0 $330 6.2831853071796004 $231 $331 forward 7 unknown #
loop $-1 $-1 $238 $147 #
plane-surface $-1 -45.645924253059505 17.680608126950311 1.0074786261123592 -0.83867057594974714 0 0.54463902268945019 0.54463902268945019 0 0.83867057594974714 forward_v I I I I #
loop $-1 $-1 $332 $93 #
coedge $-1 $236 $236 $237 $333 reversed $148 $-1 #
coedge $-1 $237 $237 $236 $333 forward $150 $-1 #
coedge $-1 $238 $238 $151 $239 forward $233 $-1 #
edge $-1 $334 0 $334 6.2831853071796004 $238 $335 forward 7 unknown #
face $-1 $336 $337 $36 $-1 $338 reversed single #
loop $-1 $-1 $339 $152 #
plane-surface $-1 -45.645924253059484 0 0 1 0 0 0 0 -1 forward_v I I I I #
coedge $-1 $340 $251 $341 $342 forward $153 $-1 #
coedge $-1 $343 $155 $340 $344 forward $97 $-1 #
coedge $-1 $155 $343 $345 $346 forward $97 $-1 #
coedge $-1 $254 $253 $155 $247 reversed $255 $-1 #
edge $-1 $347 -28.193431415155338 $348 28.193431415155338 $246 $349 forward 7 unknown #
coedge $-1 $157 $156 $350 $351 forward $61 $-1 #
coedge $-1 $352 $353 $156 $250 reversed $337 $-1 #
edge $-1 $257 -45.645924253059484 $354 45.645924253059484 $249 $355 forward 7 unknown #
coedge $-1 $243 $356 $157 $252 reversed $153 $-1 #
edge $-1 $357 -45.645924253059484 $256 45.645924253059484 $251 $358 forward 7 unknown #
coedge $-1 $246 $158 $356 $359 forward $255 $-1 #
coedge $-1 $158 $246 $352 $360 reversed $255 $-1 #
loop $-1 $-1 $253 $336 #
vertex $-1 $159 $361 #
vertex $-1 $159 $362 #
straight-curve $-1 45.645924253059484 0 12.137019690513007 0 1 0 I I #
face $-1 $-1 $363 $37 $-1 $364 reversed single #
loop $-1 $-1 $166 $160 #
plane-surface $-1 0 0 12.137019690513007 0 0 1 1 0 0 forward_v I I I I #
coedge $-1 $365 $366 $367 $368 reversed $161 $-1 #
coedge $-1 $369 $163 $165 $269 forward $101 $-1 #
coedge $-1 $163 $369 $365 $370 forward $101 $-1 #
coedge $-1 $367 $166 $163 $266 forward $260 $-1 #
edge $-1 $272 -3.1098545132257609 $371 9.3295635396772827 $265 $372 forward 7 unknown #
coedge $-1 $373 $374 $164 $268 forward $363 $-1 #
edge $-1 $375 -61.167647625533036 $271 -53.429458637185057 $267 $376 forward 7 unknown #
edge $-1 $272 81.957906150362106 $375 91.291848506118995 $165 $377 forward 7 unknown #
coedge $-1 $166 $367 $373 $378 forward $260 $-1 #
vertex $-1 $268 $379 #
vertex $-1 $167 $380 #
straight-curve $-1 35.140272366583332 0 12.137019690513007 -1 0 0 I I #
coedge $-1 $274 $274 $-1 $381 reversed $170 $-1 #
edge $-1 $382 0 $382 6.2831853071796004 $171 $383 forward 7 unknown #
vertex $-1 $174 $384 #
ellipse-curve $-1 43.036187145552148 -9.9515344423224334 8.2679251963390321 0.82903758062907751 0 0.55919289150049634 0.27959644575024817 0 -0.41451879031453875 1 I I #
coedge $-1 $278 $278 $-1 $385 reversed $177 $-1 #
edge $-1 $386 0 $386 6.2831853071796004 $178 $387 forward 7 unknown #
vertex $-1 $181 $388 #
ellipse-curve $-1 43.036187145552148 -6.2197090264515182 8.2679251963390321 0.82903758062907751 0 0.55919289150049634 0.27959644575024817 0 -0.41451879031453875 1 I I #
coedge $-1 $282 $282 $-1 $389 reversed $184 $-1 #
edge $-1 $390 0 $390 6.2831853071796004 $185 $391 forward 7 unknown #
vertex $-1 $188 $392 #
ellipse-curve $-1 43.036187145552148 -2.487883610580603 8.2679251963390321 0.82903758062907751 0 0.55919289150049634 0.27959644575024817 0 -0.41451879031453875 1 I I #
face $-1 $-1 $393 $41 $-1 $394 reversed single #
loop $-1 $-1 $293 $189 #
plane-surface $-1 0 0 12.137019690513007 0 0 1 1 0 0 forward_v I I I I #
coedge $-1 $395 $192 $194 $295 forward $120 $-1 #
coedge $-1 $192 $395 $396 $397 reversed $120 $-1 #
coedge $-1 $398 $195 $192 $292 forward $190 $-1 #
edge $-1 $298 4.7671521679003845 $399 17.206570220803432 $291 $400 forward 7 unknown #
coedge $-1 $401 $402 $193 $294 forward $287 $-1 #
edge $-1 $403 5.2861776714615019 $297 10.505651886476151 $293 $404 forward 7 unknown #
edge $-1 $298 -91.291848506118995 $403 -81.957906150362106 $194 $405 forward 7 unknown #
coedge $-1 $195 $398 $401 $406 reversed $190 $-1 #
vertex $-1 $406 $407 #
vertex $-1 $196 $408 #
straight-curve $-1 45.645924253059484 15.754013362252291 65.566478327698064 0 0 -1 I I #
coedge $-1 $300 $300 $-1 $409 reversed $199 $-1 #
edge $-1 $410 0 $410 6.2831853071796004 $200 $411 forward 7 unknown #
vertex $-1 $203 $412 #
ellipse-curve $-1 43.036187145552148 18.241896972832905 8.2679251963390321 0.82903758062907751 0 0.55919289150049634 0.27959644575024817 0 -0.41451879031453875 1 I I #
coedge $-1 $304 $304 $-1 $413 reversed $206 $-1 #
edge $-1 $414 0 $414 6.2831853071796004 $207 $415 forward 7 unknown #
vertex $-1 $210 $416 #
ellipse-curve $-1 43.036187145552148 21.97372238870382 8.2679251963390321 0.82903758062907751 0 0.55919289150049634 0.27959644575024817 0 -0.41451879031453875 1 I I #
coedge $-1 $308 $308 $-1 $417 reversed $213 $-1 #
edge $-1 $418 0 $418 6.2831853071796004 $214 $419 forward 7 unknown #
vertex $-1 $217 $420 #
ellipse-curve $-1 43.036187145552148 25.705547804574735 8.2679251963390321 0.82903758062907751 0 0.55919289150049634 0.27959644575024817 0 -0.41451879031453875 1 I I #
face $-1 $-1 $324 $45 $-1 $421 forward single #
loop $-1 $-1 $422 $218 #
plane-surface $-1 -45.645924253059484 0 0 1 0 0 0 0 -1 forward_v I I I I #
coedge $-1 $423 $424 $425 $426 reversed $219 $-1 #
coedge $-1 $427 $221 $223 $322 forward $139 $-1 #
coedge $-1 $221 $427 $423 $428 forward $139 $-1 #
coedge $-1 $425 $224 $221 $319 forward $324 $-1 #
edge $-1 $326 1.0042504643400036 $429 16.676357662610307 $318 $430 forward 7 unknown #
coedge $-1 $431 $432 $222 $321 forward $313 $-1 #
edge $-1 $433 -24.356812261886777 $325 -13.227271197486161 $320 $434 forward 7 unknown #
edge $-1 $326 -13.270456104647609 $433 -3.9170575986957569e-014 $223 $435 forward 7 unknown #
coedge $-1 $224 $425 $431 $436 forward $324 $-1 #
loop $-1 $-1 $425 $312 #
vertex $-1 $321 $437 #
vertex $-1 $225 $438 #
straight-curve $-1 -61.104855709601679 9.8445545278151592 12.137019690513007 1 0 0 I I #
coedge $-1 $328 $328 $-1 $439 reversed $228 $-1 #
edge $-1 $440 0 $440 6.2831853071796004 $229 $441 forward 7 unknown #
vertex $-1 $232 $442 #
ellipse-curve $-1 -42.032120131320241 14.322299441606681 6.5722491583126894 -0.83867057594974714 0 0.54463902268945019 1.0892780453789004 0 1.6773411518994943 1 I I #
coedge $-1 $332 $332 $-1 $443 reversed $235 $-1 #
edge $-1 $444 0 $444 6.2831853071796004 $236 $445 forward 7 unknown #
vertex $-1 $239 $446 #
ellipse-curve $-1 -42.032120131320241 21.038916812293955 6.5722491583126894 -0.83867057594974714 0 0.54463902268945019 1.0892780453789004 0 1.6773411518994943 1 I I #
face $-1 $-1 $255 $36 $-1 $447 reversed single #
loop $-1 $-1 $352 $240 #
plane-surface $-1 0 28.193431415155338 0 0 -1 0 0 0 -1 forward_v I I I I #
coedge $-1 $448 $350 $353 $449 forward $241 $-1 #
coedge $-1 $356 $243 $244 $344 reversed $153 $-1 #
coedge $-1 $350 $448 $243 $342 reversed $241 $-1 #
edge $-1 $357 -12.137019690513007 $450 12.137019690513007 $341 $451 forward 7 unknown #
coedge $-1 $245 $244 $448 $452 forward $97 $-1 #
edge $-1 $348 -45.645924253059484 $450 45.645924253059484 $340 $453 forward 7 unknown #
coedge $-1 $353 $352 $245 $346 reversed $337 $-1 #
edge $-1 $454 -45.645924253059484 $347 45.645924253059484 $345 $455 forward 7 unknown #
vertex $-1 $247 $456 #
vertex $-1 $359 $457 #
straight-curve $-1 45.645924253059484 0 -12.137019690513007 0 -1 0 I I #
coedge $-1 $339 $341 $248 $351 reversed $241 $-1 #
edge $-1 $354 -28.193431415155338 $357 28.193431415155338 $350 $458 forward 7 unknown #
coedge $-1 $345 $249 $254 $360 forward $337 $-1 #
coedge $-1 $249 $345 $339 $449 reversed $337 $-1 #
vertex $-1 $250 $459 #
straight-curve $-1 0 28.193431415155338 12.137019690513007 -1 0 0 I I #
coedge $-1 $251 $340 $253 $359 reversed $153 $-1 #
vertex $-1 $351 $460 #
straight-curve $-1 0 -28.193431415155338 12.137019690513007 1 0 0 I I #
edge $-1 $256 -12.137019690513007 $348 12.137019690513007 $253 $461 forward 7 unknown #
edge $-1 $257 -12.137019690513007 $347 12.137019690513007 $254 $462 forward 7 unknown #
point $-1 45.645924253059484 -28.193431415155338 12.137019690513007 #
point $-1 45.645924253059484 28.193431415155338 12.137019690513007 #
loop $-1 $-1 $267 $259 #
plane-surface $-1 45.645924253059484 0 0 -1 0 0 0 0 1 forward_v I I I I #
coedge $-1 $366 $262 $264 $370 reversed $161 $-1 #
coedge $-1 $262 $365 $463 $464 reversed $161 $-1 #
coedge $-1 $270 $265 $262 $368 forward $260 $-1 #
edge $-1 $371 5.2861776714615019 $465 10.505651886476151 $367 $466 forward 7 unknown #
coedge $-1 $264 $263 $374 $467 reversed $101 $-1 #
edge $-1 $468 -91.291848506118995 $371 -81.957906150362106 $365 $469 forward 7 unknown #
vertex $-1 $266 $470 #
straight-curve $-1 40.426450038044827 -3.1098545132257609 12.137019690513007 0 -1 0 I I #
coedge $-1 $463 $267 $270 $378 reversed $363 $-1 #
coedge $-1 $267 $463 $369 $467 forward $363 $-1 #
vertex $-1 $268 $471 #
straight-curve $-1 45.645924253059484 0 65.566478327698064 0 0 1 I I #
straight-curve $-1 -5.4038284835024655 0 80.083203918834187 0.55919289150049634 0 -0.82903758062907751 I I #
edge $-1 $465 -12.439418052903044 $271 0 $373 $472 forward 7 unknown #
point $-1 45.645924253059484 0 12.137019690513007 #
point $-1 40.426450038044834 0 12.137019690513 #
edge $-1 $473 1 $473 0 $274 $-1 forward 7 unknown #
vertex $-1 $275 $474 #
ellipse-curve $-1 41.61565034074215 -9.9515344423224334 7.3097610528489154 0.82903758062907751 0 0.55919289150049634 0.27959644575024817 0 -0.41451879031453875 1 I I #
point $-1 43.315783591302413 -9.9515344423224334 7.853406406024507 #
edge $-1 $475 1 $475 0 $278 $-1 forward 7 unknown #
vertex $-1 $279 $476 #
ellipse-curve $-1 41.61565034074215 -6.2197090264515182 7.3097610528489154 0.82903758062907751 0 0.55919289150049634 0.27959644575024817 0 -0.41451879031453875 1 I I #
point $-1 43.315783591302413 -6.2197090264515182 7.853406406024507 #
edge $-1 $477 1 $477 0 $282 $-1 forward 7 unknown #
vertex $-1 $283 $478 #
ellipse-curve $-1 41.61565034074215 -2.487883610580603 7.3097610528489154 0.82903758062907751 0 0.55919289150049634 0.27959644575024817 0 -0.41451879031453875 1 I I #
point $-1 43.315783591302413 -2.487883610580603 7.853406406024507 #
loop $-1 $-1 $396 $286 #
plane-surface $-1 0 28.193431415155338 0 0 -1 0 0 0 -1 forward_v I I I I #
coedge $-1 $290 $289 $402 $479 reversed $120 $-1 #
coedge $-1 $480 $481 $290 $397 forward $393 $-1 #
edge $-1 $399 -56.584964455740078 $482 -47.251022099983189 $396 $483 forward 7 unknown #
coedge $-1 $296 $291 $481 $484 reversed $190 $-1 #
vertex $-1 $292 $485 #
straight-curve $-1 45.645924253059484 10.986861194351906 4.3988307021650286 0 1 0 I I #
coedge $-1 $486 $293 $296 $406 forward $287 $-1 #
coedge $-1 $293 $486 $395 $479 forward $287 $-1 #
vertex $-1 $294 $487 #
straight-curve $-1 35.140272366583332 15.754013362252291 12.137019690513007 1 0 0 I I #
straight-curve $-1 -5.4038284835024655 15.754013362252291 80.083203918834187 -0.55919289150049634 0 0.82903758062907751 I I #
edge $-1 $297 15.754013362252291 $488 28.193431415155338 $296 $489 forward 7 unknown #
point $-1 45.645924253059484 15.754013362252291 12.137019690513007 #
point $-1 45.645924253059484 15.754013362252291 4.3988307021650286 #
edge $-1 $490 1 $490 0 $300 $-1 forward 7 unknown #
vertex $-1 $301 $491 #
ellipse-curve $-1 41.61565034074215 18.241896972832905 7.3097610528489154 0.82903758062907751 0 0.55919289150049634 0.27959644575024817 0 -0.41451879031453875 1 I I #
point $-1 43.315783591302413 18.241896972832905 7.853406406024507 #
edge $-1 $492 1 $492 0 $304 $-1 forward 7 unknown #
vertex $-1 $305 $493 #
ellipse-curve $-1 41.61565034074215 21.97372238870382 7.3097610528489154 0.82903758062907751 0 0.55919289150049634 0.27959644575024817 0 -0.41451879031453875 1 I I #
point $-1 43.315783591302413 21.97372238870382 7.853406406024507 #
edge $-1 $494 1 $494 0 $308 $-1 forward 7 unknown #
vertex $-1 $309 $495 #
ellipse-curve $-1 41.61565034074215 25.705547804574735 7.3097610528489154 0.82903758062907751 0 0.55919289150049634 0.27959644575024817 0 -0.41451879031453875 1 I I #
point $-1 43.315783591302413 25.705547804574735 7.853406406024507 #
plane-surface $-1 0 0 12.137019690513007 0 0 1 1 0 0 forward_v I I I I #
coedge $-1 $432 $431 $424 $496 forward $313 $-1 #
coedge $-1 $424 $315 $317 $428 reversed $219 $-1 #
coedge $-1 $315 $423 $422 $496 reversed $219 $-1 #
coedge $-1 $323 $318 $315 $426 forward $324 $-1 #
edge $-1 $429 -22.686539700020695 $497 -15.458931456542196 $425 $498 forward 7 unknown #
coedge $-1 $317 $316 $432 $499 reversed $139 $-1 #
edge $-1 $500 3.9170575986957569e-014 $429 13.270456104647609 $423 $501 forward 7 unknown #
vertex $-1 $319 $502 #
straight-curve $-1 -38.418316009580984 8.8403040634751555 12.137019690513007 0 1 0 I I #
coedge $-1 $422 $320 $323 $436 reversed $313 $-1 #
coedge $-1 $320 $422 $427 $499 forward $313 $-1 #
vertex $-1 $321 $503 #
straight-curve $-1 -45.645924253059484 9.8445545278151592 25.364290887999168 0 0 1 I I #
straight-curve $-1 -45.645924253059505 9.8445545278151592 1.0074786261123592 -0.54463902268945019 0 -0.83867057594974714 I I #
edge $-1 $497 -25.516661726085463 $325 -9.8445545278151592 $431 $504 forward 7 unknown #
point $-1 -45.645924253059484 9.8445545278151592 12.137019690513007 #
point $-1 -38.418316009580984 9.8445545278151592 12.137019690513007 #
edge $-1 $505 1 $505 0 $328 $-1 forward 7 unknown #
vertex $-1 $329 $506 #
ellipse-curve $-1 -38.354378041467044 14.322299441606681 4.1838955961847137 -0.83867057594974714 0 0.54463902268945019 1.0892780453789004 0 1.6773411518994943 1 I I #
point $-1 -40.942842085941322 14.322299441606681 8.2495903102121737 #
edge $-1 $507 1 $507 0 $332 $-1 forward 7 unknown #
vertex $-1 $333 $508 #
ellipse-curve $-1 -38.354378041467044 21.038916812293955 4.1838955961847137 -0.83867057594974714 0 0.54463902268945019 1.0892780453789004 0 1.6773411518994943 1 I I #
point $-1 -40.942842085941322 21.038916812293955 8.2495903102121737 #
plane-surface $-1 45.645924253059484 0 0 -1 0 0 0 0 1 forward_v I I I I #
coedge $-1 $341 $339 $343 $452 reversed $241 $-1 #
edge $-1 $354 -12.137019690513007 $454 12.137019690513007 $353 $509 forward 7 unknown #
vertex $-1 $452 $510 #
straight-curve $-1 -45.645924253059484 -28.193431415155338 0 0 0 -1 I I #
edge $-1 $450 -28.193431415155338 $454 28.193431415155338 $448 $511 forward 7 unknown #
straight-curve $-1 0 -28.193431415155338 -12.137019690513007 -1 0 0 I I #
vertex $-1 $346 $512 #
straight-curve $-1 0 28.193431415155338 -12.137019690513007 1 0 0 I I #
point $-1 45.645924253059484 28.193431415155338 -12.137019690513007 #
point $-1 45.645924253059484 -28.193431415155338 -12.137019690513007 #
straight-curve $-1 -45.645924253059484 0 12.137019690513007 0 -1 0 I I #
point $-1 -45.645924253059484 28.193431415155338 12.137019690513007 #
point $-1 -45.645924253059484 -28.193431415155338 12.137019690513007 #
straight-curve $-1 45.645924253059484 -28.193431415155338 0 0 0 -1 I I #
straight-curve $-1 45.645924253059484 28.193431415155338 0 0 0 -1 I I #
coedge $-1 $374 $373 $366 $464 forward $363 $-1 #
edge $-1 $465 53.429458637185057 $468 61.167647625533036 $463 $513 forward 7 unknown #
vertex $-1 $378 $514 #
straight-curve $-1 35.140272366583332 -12.439418052903044 12.137019690513007 1 0 0 I I #
edge $-1 $468 -9.3295635396772827 $375 3.1098545132257609 $374 $515 forward 7 unknown #
vertex $-1 $467 $516 #
straight-curve $-1 -5.4038284835024655 -12.439418052903044 80.083203918834187 -0.55919289150049634 0 0.82903758062907751 I I #
point $-1 40.426450038044834 -12.439418052903044 12.137019690513 #
point $-1 45.645924253059484 0 4.3988307021650286 #
straight-curve $-1 45.645924253059484 0 12.137019690513007 0 1 0 I I #
vertex $-1 $381 $517 #
point $-1 41.895246786492393 -9.9515344423224334 6.895242262534377 #
vertex $-1 $385 $518 #
point $-1 41.895246786492393 -6.2197090264515182 6.895242262534377 #
vertex $-1 $389 $519 #
point $-1 41.895246786492393 -2.487883610580603 6.895242262534377 #
edge $-1 $482 -17.206570220803428 $403 -4.7671521679003845 $402 $520 forward 7 unknown #
coedge $-1 $481 $396 $486 $521 reversed $393 $-1 #
coedge $-1 $396 $480 $398 $484 forward $393 $-1 #
vertex $-1 $397 $522 #
straight-curve $-1 14.004014363601382 28.193431415155338 51.309892734534131 -0.55919289150049634 0 0.82903758062907751 I I #
edge $-1 $488 -12.137019690513007 $399 -4.398830702165033 $398 $523 forward 7 unknown #
point $-1 45.645924253059484 28.193431415155338 4.398830702165033 #
coedge $-1 $402 $401 $480 $521 forward $287 $-1 #
point $-1 40.426450038044834 15.754013362252291 12.137019690513 #
vertex $-1 $406 $524 #
straight-curve $-1 45.645924253059484 0 12.137019690513007 0 1 0 I I #
vertex $-1 $409 $525 #
point $-1 41.895246786492393 18.241896972832905 6.895242262534377 #
vertex $-1 $413 $526 #
point $-1 41.895246786492393 21.97372238870382 6.895242262534377 #
vertex $-1 $417 $527 #
point $-1 41.895246786492393 25.705547804574735 6.895242262534377 #
edge $-1 $497 13.227271197486161 $500 24.356812261886777 $422 $528 forward 7 unknown #
vertex $-1 $436 $529 #
straight-curve $-1 -61.104855709601679 25.516661726085463 12.137019690513007 -1 0 0 I I #
edge $-1 $500 -16.676357662610307 $433 -1.0042504643400036 $432 $530 forward 7 unknown #
vertex $-1 $499 $531 #
straight-curve $-1 -45.645924253059505 25.516661726085463 1.0074786261123592 0.54463902268945019 0 0.83867057594974714 I I #
point $-1 -38.418316009580984 25.516661726085463 12.137019690513007 #
point $-1 -45.645924253059484 9.8445545278151592 1.007478626112392 #
straight-curve $-1 -45.645924253059484 0 12.137019690513007 0 -1 0 I I #
vertex $-1 $439 $532 #
point $-1 -37.265099996088139 14.322299441606681 5.8612367480842078 #
vertex $-1 $443 $533 #
point $-1 -37.265099996088139 21.038916812293955 5.8612367480842078 #
straight-curve $-1 -45.645924253059484 28.193431415155338 0 0 0 -1 I I #
point $-1 -45.645924253059484 -28.193431415155338 -12.137019690513007 #
straight-curve $-1 -45.645924253059484 0 -12.137019690513007 0 1 0 I I #
point $-1 -45.645924253059484 28.193431415155338 -12.137019690513007 #
straight-curve $-1 45.645924253059484 -12.439418052903044 65.566478327698064 0 0 -1 I I #
point $-1 45.645924253059484 -12.439418052903044 12.137019690513007 #
straight-curve $-1 45.645924253059484 -3.1098545132257609 4.3988307021650286 0 1 0 I I #
point $-1 45.645924253059484 -12.439418052903044 4.3988307021650286 #
point $-1 41.201131550427604 -9.9515344423224334 7.0301646070986665 #
point $-1 41.201131550427604 -6.2197090264515182 7.0301646070986665 #
point $-1 41.201131550427604 -2.487883610580603 7.0301646070986665 #
straight-curve $-1 40.426450038044827 10.986861194351906 12.137019690513007 0 -1 0 I I #
edge $-1 $488 -45.645924253059484 $482 -40.426450038044834 $480 $534 forward 7 unknown #
point $-1 40.426450038044834 28.193431415155334 12.137019690513 #
straight-curve $-1 45.645924253059484 28.193431415155338 0 0 0 -1 I I #
point $-1 45.645924253059484 28.193431415155338 12.137019690513007 #
point $-1 41.201131550427604 18.241896972832905 7.0301646070986665 #
point $-1 41.201131550427604 21.97372238870382 7.0301646070986665 #
point $-1 41.201131550427604 25.705547804574735 7.0301646070986665 #
straight-curve $-1 -45.645924253059484 25.516661726085463 25.364290887999168 0 0 -1 I I #
point $-1 -45.645924253059484 25.516661726085463 12.137019690513007 #
straight-curve $-1 -45.645924253059484 8.8403040634751555 1.007478626112386 0 -1 0 I I #
point $-1 -45.645924253059484 25.516661726085463 1.007478626112392 #
point $-1 -36.677036889567546 14.322299441606681 3.0946175508058129 #
point $-1 -36.677036889567546 21.038916812293955 3.0946175508058129 #
straight-curve $-1 0 28.193431415155338 12.137019690513007 -1 0 0 I I #
End-of-ACIS-data 