500 0 5 0           
7 Unknown 11 ACIS 5.0 NT 24 Fri Mar 26 19:55:19 1999 
-1 9.9999999999999995e-007 1e-010 
body $-1 $5 $-1 $6 #
body $-1 $7 $-1 $8 #
body $-1 $9 $-1 $10 #
body $-1 $11 $-1 $12 #
body $-1 $13 $-1 $14 #
lump $-1 $-1 $15 $0 #
transform $-1 1 0 0 0 1 0 0 0 1 78.660847804193239 38.018729598675151 15.357979501720134 1 rotate no_reflect no_shear #
lump $-1 $-1 $16 $1 #
transform $-1 1 0 0 0 1 0 0 0 1 78.660847804193239 38.018729598675151 15.357979501720134 1 rotate no_reflect no_shear #
lump $-1 $-1 $17 $2 #
transform $-1 1 0 0 0 1 0 0 0 1 78.660847804193239 38.018729598675151 15.357979501720134 1 rotate no_reflect no_shear #
lump $-1 $-1 $18 $3 #
transform $-1 1 0 0 0 1 0 0 0 1 78.660847804193239 38.018729598675151 15.357979501720134 1 rotate no_reflect no_shear #
lump $-1 $-1 $19 $4 #
transform $-1 1 0 0 0 1 0 0 0 1 78.660847804193239 38.018729598675151 15.357979501720134 1 rotate no_reflect no_shear #
shell $-1 $-1 $-1 $20 $-1 $5 #
shell $-1 $-1 $-1 $21 $-1 $7 #
shell $-1 $-1 $-1 $22 $-1 $9 #
shell $-1 $-1 $-1 $23 $-1 $11 #
shell $-1 $-1 $-1 $24 $-1 $13 #
face $-1 $25 $26 $15 $-1 $27 reversed single #
face $-1 $28 $29 $16 $-1 $30 forward single #
face $-1 $31 $32 $17 $-1 $33 reversed single #
face $-1 $34 $35 $18 $-1 $36 forward single #
face $-1 $37 $38 $19 $-1 $39 forward single #
face $-1 $40 $41 $15 $-1 $42 forward single #
loop $-1 $-1 $43 $20 #
plane-surface $-1 -78.660847804193239 0 0 1 0 0 0 0 -1 forward_v I I I I #
face $-1 $44 $45 $16 $-1 $46 reversed single #
loop $-1 $-1 $47 $21 #
plane-surface $-1 -78.660847804193239 0 0 1 0 0 0 0 -1 forward_v I I I I #
face $-1 $48 $49 $17 $-1 $50 reversed single #
loop $-1 $-1 $51 $22 #
plane-surface $-1 65.687387802762075 -38.018729598675137 5.1887900016682948 0 -0.74314483375859142 0.66913059716165679 1 0 0 forward_v I I I I #
face $-1 $52 $53 $18 $-1 $54 forward single #
loop $-1 $55 $56 $23 #
cone-surface $-1 60.127333516434462 -29.923875354146055 7.1069657284485128 0 0.74314483375859142 -0.66913059716165679 3 0 0 1 I I 0 1 3 forward I I I I #
face $-1 $57 $58 $19 $-1 $59 forward single #
loop $-1 $60 $61 $24 #
cone-surface $-1 71.247442089089716 -29.923875354146055 7.1069657284485128 0 0.74314483375859142 -0.66913059716165679 3 0 0 1 I I 0 1 3 forward I I I I #
face $-1 $62 $63 $15 $-1 $64 reversed single #
loop $-1 $-1 $65 $25 #
plane-surface $-1 0 0 15.357979501720134 0 0 1 1 0 0 forward_v I I I I #
coedge $-1 $66 $67 $68 $69 reversed $26 $-1 #
face $-1 $70 $71 $16 $-1 $72 reversed single #
loop $-1 $-1 $73 $28 #
plane-surface $-1 0 0 -15.357979501720134 0 0 1 1 0 0 forward_v I I I I #
coedge $-1 $74 $75 $76 $77 forward $29 $-1 #
face $-1 $78 $79 $17 $-1 $80 reversed single #
loop $-1 $-1 $81 $31 #
plane-surface $-1 52.713927801330925 -154.93153492818925 110.45755013059235 1 0 0 0 0.74314483375859142 -0.66913059716165679 forward_v I I I I #
coedge $-1 $82 $83 $84 $85 reversed $32 $-1 #
face $-1 $-1 $86 $18 $-1 $87 forward single #
loop $-1 $88 $89 $34 #
cone-surface $-1 60.127333516434462 -25.292493421573916 2.9368508094603172 0 0.74314483375859142 -0.66913059716165679 1.5 0 0 1 I I -0.70710678118654757 0.70710678118654757 1.5 forward I I I I #
loop $-1 $-1 $90 $23 #
coedge $-1 $56 $56 $91 $92 reversed $35 $-1 #
face $-1 $-1 $93 $19 $-1 $94 forward single #
loop $-1 $95 $96 $37 #
cone-surface $-1 71.247442089089716 -25.292493421573916 2.9368508094603172 0 0.74314483375859142 -0.66913059716165679 1.5 0 0 1 I I -0.70710678118654757 0.70710678118654757 1.5 forward I I I I #
loop $-1 $-1 $97 $24 #
coedge $-1 $61 $61 $98 $99 reversed $38 $-1 #
face $-1 $100 $101 $15 $-1 $102 reversed single #
loop $-1 $-1 $103 $40 #
plane-surface $-1 0 0 -15.357979501720134 0 0 1 1 0 0 forward_v I I I I #
coedge $-1 $104 $105 $106 $107 forward $41 $-1 #
coedge $-1 $108 $43 $109 $110 reversed $26 $-1 #
coedge $-1 $43 $108 $111 $112 forward $26 $-1 #
coedge $-1 $113 $114 $43 $69 forward $63 $-1 #
edge $-1 $115 -38.018729598675151 $116 38.018729598675151 $43 $117 forward 7 unknown #
face $-1 $118 $119 $16 $-1 $120 reversed single #
loop $-1 $-1 $121 $44 #
plane-surface $-1 -87.315048396144931 -26.606439212848599 0 0 1 0 0 0 1 forward_v I I I I #
coedge $-1 $122 $123 $75 $124 forward $45 $-1 #
coedge $-1 $125 $47 $126 $127 reversed $29 $-1 #
coedge $-1 $47 $125 $73 $124 reversed $29 $-1 #
coedge $-1 $128 $129 $47 $77 reversed $130 $-1 #
edge $-1 $131 -15.357979501720134 $132 15.357979501720134 $76 $133 forward 7 unknown #
face $-1 $134 $135 $17 $-1 $136 forward single #
loop $-1 $-1 $137 $48 #
plane-surface $-1 0 -38.018729598675151 0 0 1 0 0 0 1 forward_v I I I I #
coedge $-1 $138 $139 $140 $141 reversed $49 $-1 #
coedge $-1 $142 $51 $143 $144 reversed $32 $-1 #
coedge $-1 $51 $142 $138 $145 forward $32 $-1 #
coedge $-1 $140 $146 $51 $85 forward $135 $-1 #
edge $-1 $147 -45.817153902812187 $148 -19.870233899949888 $84 $149 forward 7 unknown #
loop $-1 $-1 $91 $52 #
plane-surface $-1 65.687387802762075 -38.018729598675137 5.1887900016682948 0 -0.74314483375859142 0.66913059716165679 1 0 0 forward_v I I I I #
loop $-1 $-1 $150 $34 #
coedge $-1 $89 $89 $90 $151 reversed $53 $-1 #
coedge $-1 $90 $90 $89 $151 forward $55 $-1 #
coedge $-1 $91 $91 $56 $92 forward $86 $-1 #
edge $-1 $152 7.9063199041588651e-016 $152 6.2831853071796013 $91 $153 forward 7 unknown #
loop $-1 $-1 $98 $57 #
plane-surface $-1 65.687387802762075 -38.018729598675137 5.1887900016682948 0 -0.74314483375859142 0.66913059716165679 1 0 0 forward_v I I I I #
loop $-1 $-1 $154 $37 #
coedge $-1 $96 $96 $97 $155 reversed $58 $-1 #
coedge $-1 $97 $97 $96 $155 forward $60 $-1 #
coedge $-1 $98 $98 $61 $99 forward $93 $-1 #
edge $-1 $156 7.9063199041588651e-016 $156 6.2831853071796013 $98 $157 forward 7 unknown #
face $-1 $158 $159 $15 $-1 $160 reversed single #
loop $-1 $-1 $109 $62 #
plane-surface $-1 0 -38.018729598675151 0 0 1 0 0 0 1 forward_v I I I I #
coedge $-1 $114 $113 $161 $162 forward $63 $-1 #
coedge $-1 $163 $65 $164 $165 forward $41 $-1 #
coedge $-1 $65 $163 $166 $167 forward $41 $-1 #
coedge $-1 $168 $169 $65 $107 reversed $170 $-1 #
edge $-1 $171 -38.018729598675151 $172 38.018729598675151 $106 $173 forward 7 unknown #
coedge $-1 $67 $66 $163 $174 reversed $26 $-1 #
coedge $-1 $175 $166 $66 $110 forward $101 $-1 #
edge $-1 $176 -15.357979501720134 $115 15.357979501720134 $66 $177 forward 7 unknown #
coedge $-1 $164 $178 $67 $112 reversed $159 $-1 #
edge $-1 $179 -15.357979501720134 $116 15.357979501720134 $111 $180 forward 7 unknown #
coedge $-1 $103 $68 $178 $181 forward $63 $-1 #
coedge $-1 $68 $103 $175 $182 forward $63 $-1 #
vertex $-1 $69 $183 #
vertex $-1 $181 $184 #
straight-curve $-1 -78.660847804193239 0 -15.357979501720134 0 1 0 I I #
face $-1 $185 $130 $16 $-1 $186 reversed single #
loop $-1 $-1 $187 $70 #
plane-surface $-1 -95.969248988096609 -22.323106369671933 0 1 0 0 0 0 -1 forward_v I I I I #
coedge $-1 $188 $189 $190 $191 forward $71 $-1 #
coedge $-1 $192 $73 $188 $193 forward $45 $-1 #
coedge $-1 $73 $192 $128 $194 forward $45 $-1 #
edge $-1 $131 18.039773526495267 $195 26.606439212848599 $73 $196 forward 7 unknown #
coedge $-1 $75 $74 $197 $198 forward $29 $-1 #
coedge $-1 $199 $200 $74 $127 forward $201 $-1 #
edge $-1 $202 -26.606439212848599 $132 -18.039773526495267 $126 $203 forward 7 unknown #
coedge $-1 $204 $76 $123 $194 reversed $130 $-1 #
coedge $-1 $76 $204 $199 $205 reversed $130 $-1 #
loop $-1 $-1 $76 $118 #
vertex $-1 $124 $206 #
vertex $-1 $205 $207 #
straight-curve $-1 -78.660847804193239 -18.039773526495267 0 0 0 1 I I #
face $-1 $-1 $208 $17 $-1 $209 reversed single #
loop $-1 $-1 $140 $78 #
plane-surface $-1 0 0 15.357979501720134 0 0 1 1 0 0 forward_v I I I I #
coedge $-1 $210 $211 $139 $212 forward $79 $-1 #
coedge $-1 $139 $81 $83 $145 reversed $49 $-1 #
coedge $-1 $81 $138 $137 $212 reversed $49 $-1 #
coedge $-1 $213 $84 $81 $141 forward $135 $-1 #
edge $-1 $148 -48.60341699060919 $214 -39.447037865419475 $140 $215 forward 7 unknown #
coedge $-1 $83 $82 $210 $216 reversed $32 $-1 #
coedge $-1 $217 $218 $82 $144 forward $208 $-1 #
edge $-1 $219 -10.791736378245535 $147 2.8922576941068385 $143 $220 forward 7 unknown #
edge $-1 $221 -2.1389731374768986e-014 $148 13.683994072352352 $138 $222 forward 7 unknown #
coedge $-1 $84 $213 $217 $223 forward $135 $-1 #
vertex $-1 $144 $224 #
vertex $-1 $85 $225 #
straight-curve $-1 32.843693901381037 -28.862350473485435 15.357979501720134 -1 0 0 I I #
coedge $-1 $150 $150 $-1 $226 reversed $88 $-1 #
edge $-1 $227 0 $227 6.2831853071796004 $89 $228 forward 7 unknown #
vertex $-1 $92 $229 #
ellipse-curve $-1 60.127333516434462 -33.440540036080293 10.273384751694207 0 -0.74314483375859142 0.66913059716165679 3 0 0 1 I I #
coedge $-1 $154 $154 $-1 $230 reversed $95 $-1 #
edge $-1 $231 0 $231 6.2831853071796004 $96 $232 forward 7 unknown #
vertex $-1 $99 $233 #
ellipse-curve $-1 71.247442089089716 -33.440540036080293 10.273384751694207 0 -0.74314483375859142 0.66913059716165679 3 0 0 1 I I #
face $-1 $-1 $170 $15 $-1 $234 reversed single #
loop $-1 $-1 $235 $100 #
plane-surface $-1 0 38.018729598675151 0 0 -1 0 0 0 -1 forward_v I I I I #
coedge $-1 $169 $168 $103 $162 reversed $170 $-1 #
edge $-1 $236 -38.018729598675151 $237 38.018729598675151 $161 $238 forward 7 unknown #
coedge $-1 $105 $104 $108 $174 forward $41 $-1 #
coedge $-1 $235 $111 $104 $165 reversed $159 $-1 #
edge $-1 $172 -78.660847804193239 $179 78.660847804193239 $164 $239 forward 7 unknown #
coedge $-1 $109 $240 $105 $167 reversed $101 $-1 #
edge $-1 $176 -78.660847804193239 $171 78.660847804193239 $166 $241 forward 7 unknown #
coedge $-1 $161 $106 $240 $242 forward $170 $-1 #
coedge $-1 $106 $161 $235 $243 reversed $170 $-1 #
loop $-1 $-1 $168 $158 #
vertex $-1 $107 $244 #
vertex $-1 $107 $245 #
straight-curve $-1 78.660847804193239 0 15.357979501720134 0 1 0 I I #
edge $-1 $179 -38.018729598675151 $176 38.018729598675151 $108 $246 forward 7 unknown #
coedge $-1 $240 $109 $114 $182 reversed $101 $-1 #
vertex $-1 $174 $247 #
straight-curve $-1 -78.660847804193239 -38.018729598675151 0 0 0 -1 I I #
coedge $-1 $111 $235 $113 $181 reversed $159 $-1 #
vertex $-1 $165 $248 #
straight-curve $-1 -78.660847804193239 38.018729598675151 0 0 0 -1 I I #
edge $-1 $116 -78.660847804193239 $236 78.660847804193239 $178 $249 forward 7 unknown #
edge $-1 $237 -78.660847804193239 $115 78.660847804193239 $175 $250 forward 7 unknown #
point $-1 -78.660847804193239 -38.018729598675151 -15.357979501720134 #
point $-1 -78.660847804193239 38.018729598675151 -15.357979501720134 #
face $-1 $-1 $201 $16 $-1 $251 forward single #
plane-surface $-1 -87.315048396144931 -18.039773526495267 0 0 -1 0 0 0 -1 forward_v I I I I #
coedge $-1 $252 $253 $204 $254 forward $119 $-1 #
coedge $-1 $197 $121 $122 $193 reversed $71 $-1 #
coedge $-1 $121 $197 $200 $255 reversed $71 $-1 #
coedge $-1 $253 $252 $121 $191 reversed $119 $-1 #
edge $-1 $256 -15.357979501720134 $257 15.357979501720134 $190 $258 forward 7 unknown #
coedge $-1 $123 $122 $252 $259 forward $45 $-1 #
edge $-1 $195 -8.6542005919516782 $257 8.6542005919516782 $188 $260 forward 7 unknown #
edge $-1 $261 -8.6542005919516782 $131 8.6542005919516782 $128 $262 forward 7 unknown #
vertex $-1 $193 $263 #
straight-curve $-1 -78.660847804193239 0 -15.357979501720134 0 -1 0 I I #
coedge $-1 $189 $188 $125 $198 reversed $71 $-1 #
edge $-1 $202 -15.357979501720134 $195 15.357979501720134 $197 $264 forward 7 unknown #
coedge $-1 $265 $126 $129 $205 forward $201 $-1 #
coedge $-1 $126 $265 $189 $255 forward $201 $-1 #
loop $-1 $-1 $126 $185 #
vertex $-1 $127 $266 #
straight-curve $-1 -78.660847804193239 0 15.357979501720134 0 1 0 I I #
coedge $-1 $129 $128 $187 $254 reversed $130 $-1 #
edge $-1 $132 -8.6542005919516782 $267 8.6542005919516782 $129 $268 forward 7 unknown #
point $-1 -78.660847804193253 -18.039773526495267 -15.357979501720134 #
point $-1 -78.660847804193253 -18.039773526495267 15.357979501720134 #
loop $-1 $-1 $143 $134 #
plane-surface $-1 78.660847804193239 0 0 -1 0 0 0 0 1 forward_v I I I I #
coedge $-1 $269 $137 $142 $216 forward $79 $-1 #
coedge $-1 $137 $269 $213 $270 reversed $79 $-1 #
edge $-1 $214 39.870795563576038 $221 50.039985063627896 $137 $271 forward 7 unknown #
coedge $-1 $146 $140 $211 $270 forward $135 $-1 #
vertex $-1 $270 $272 #
straight-curve $-1 52.713927801330925 -77.465767464094625 15.357979501720138 0 -1 0 I I #
edge $-1 $221 19.870233899949888 $219 45.817153902812187 $210 $273 forward 7 unknown #
coedge $-1 $218 $143 $146 $223 reversed $208 $-1 #
coedge $-1 $143 $217 $269 $274 forward $208 $-1 #
vertex $-1 $216 $275 #
straight-curve $-1 78.660847804193239 -30.797648591488539 13.208613138446099 0 0.66913059716165679 0.74314483375859142 I I #
vertex $-1 $216 $276 #
straight-curve $-1 52.713927801330925 -38.018729598675137 5.1887900016682948 0 0.66913059716165679 0.74314483375859142 I I #
edge $-1 $277 -38.018729598675151 $147 -28.862350473485435 $217 $278 forward 7 unknown #
point $-1 78.660847804193224 -28.862350473485435 15.357979501720134 #
point $-1 52.713927801330925 -28.862350473485435 15.357979501720134 #
edge $-1 $279 1 $279 0 $150 $-1 forward 7 unknown #
vertex $-1 $151 $280 #
ellipse-curve $-1 60.127333516434462 -26.407210672211804 3.9405467052028023 0 -0.74314483375859142 0.66913059716165679 3 0 0 1 I I #
point $-1 63.127333516434462 -33.440540036080307 10.273384751694223 #
edge $-1 $281 1 $281 0 $154 $-1 forward 7 unknown #
vertex $-1 $155 $282 #
ellipse-curve $-1 71.247442089089716 -26.407210672211804 3.9405467052028023 0 -0.74314483375859142 0.66913059716165679 3 0 0 1 I I #
point $-1 74.247442089089716 -33.440540036080307 10.273384751694223 #
plane-surface $-1 78.660847804193239 0 0 -1 0 0 0 0 1 forward_v I I I I #
coedge $-1 $178 $164 $169 $243 forward $159 $-1 #
vertex $-1 $162 $283 #
vertex $-1 $242 $284 #
straight-curve $-1 78.660847804193239 0 -15.357979501720134 0 -1 0 I I #
straight-curve $-1 0 38.018729598675151 15.357979501720134 -1 0 0 I I #
coedge $-1 $166 $175 $168 $242 reversed $101 $-1 #
straight-curve $-1 0 -38.018729598675151 15.357979501720134 1 0 0 I I #
edge $-1 $171 -15.357979501720134 $237 15.357979501720134 $168 $285 forward 7 unknown #
edge $-1 $172 -15.357979501720134 $236 15.357979501720134 $169 $286 forward 7 unknown #
point $-1 78.660847804193239 -38.018729598675151 15.357979501720134 #
point $-1 78.660847804193239 38.018729598675151 15.357979501720134 #
straight-curve $-1 -78.660847804193239 0 15.357979501720134 0 -1 0 I I #
point $-1 -78.660847804193239 -38.018729598675151 15.357979501720134 #
point $-1 -78.660847804193239 38.018729598675151 15.357979501720134 #
straight-curve $-1 0 38.018729598675151 -15.357979501720134 1 0 0 I I #
straight-curve $-1 0 -38.018729598675151 -15.357979501720134 -1 0 0 I I #
plane-surface $-1 0 0 15.357979501720134 0 0 1 1 0 0 forward_v I I I I #
coedge $-1 $190 $187 $192 $259 reversed $119 $-1 #
coedge $-1 $187 $190 $265 $287 reversed $119 $-1 #
edge $-1 $267 -15.357979501720134 $261 15.357979501720134 $204 $288 forward 7 unknown #
edge $-1 $256 -8.6542005919516782 $202 8.6542005919516782 $189 $289 forward 7 unknown #
vertex $-1 $287 $290 #
vertex $-1 $259 $291 #
straight-curve $-1 -95.969248988096609 -26.606439212848599 0 0 0 -1 I I #
edge $-1 $257 -4.283332843176666 $261 4.283332843176666 $252 $292 forward 7 unknown #
straight-curve $-1 -87.315048396144931 -26.606439212848599 -15.357979501720134 -1 0 0 I I #
vertex $-1 $194 $293 #
straight-curve $-1 -87.315048396144931 -18.039773526495267 -15.357979501720134 1 0 0 I I #
point $-1 -78.660847804193253 -26.606439212848599 -15.357979501720134 #
straight-curve $-1 -78.660847804193239 -26.606439212848599 0 0 0 -1 I I #
coedge $-1 $200 $199 $253 $287 forward $201 $-1 #
point $-1 -78.660847804193253 -26.606439212848599 15.357979501720134 #
vertex $-1 $205 $294 #
straight-curve $-1 -87.315048396144931 -18.039773526495267 15.357979501720134 -1 0 0 I I #
coedge $-1 $211 $210 $218 $274 reversed $79 $-1 #
edge $-1 $214 52.713927801330925 $277 78.660847804193239 $211 $295 forward 7 unknown #
straight-curve $-1 52.713927801330925 -38.018729598675151 55.228775065296176 0 0 -1 I I #
point $-1 52.713927801330925 -38.018729598675151 15.357979501720134 #
straight-curve $-1 32.843693901381037 -38.018729598675151 5.1887900016682753 1 0 0 I I #
edge $-1 $277 -15.357979501720134 $219 -5.1887900016682789 $218 $296 forward 7 unknown #
point $-1 78.660847804193224 -38.018729598675151 5.1887900016682789 #
point $-1 52.713927801330925 -38.018729598675151 5.1887900016682789 #
vertex $-1 $223 $297 #
straight-curve $-1 78.660847804193239 0 15.357979501720134 0 1 0 I I #
vertex $-1 $226 $298 #
point $-1 63.127333516434462 -26.407210672211804 3.9405467052028023 #
vertex $-1 $230 $299 #
point $-1 74.247442089089716 -26.407210672211804 3.9405467052028023 #
point $-1 78.660847804193239 38.018729598675151 -15.357979501720134 #
point $-1 78.660847804193239 -38.018729598675151 -15.357979501720134 #
straight-curve $-1 78.660847804193239 -38.018729598675151 0 0 0 -1 I I #
straight-curve $-1 78.660847804193239 38.018729598675151 0 0 0 -1 I I #
edge $-1 $267 -4.283332843176666 $256 4.283332843176666 $253 $300 forward 7 unknown #
straight-curve $-1 -95.969248988096609 -18.039773526495267 0 0 0 -1 I I #
straight-curve $-1 -87.315048396144931 -26.606439212848599 15.357979501720134 1 0 0 I I #
point $-1 -95.969248988096609 -26.606439212848599 15.357979501720134 #
point $-1 -95.969248988096609 -26.606439212848599 -15.357979501720134 #
straight-curve $-1 -95.969248988096609 -22.323106369671933 -15.357979501720134 0 1 0 I I #
point $-1 -95.969248988096609 -18.039773526495267 -15.357979501720134 #
point $-1 -95.969248988096609 -18.039773526495267 15.357979501720134 #
straight-curve $-1 0 -38.018729598675151 15.357979501720134 1 0 0 I I #
straight-curve $-1 78.660847804193239 -38.018729598675151 0 0 0 -1 I I #
point $-1 78.660847804193239 -38.018729598675151 15.357979501720134 #
point $-1 60.127333516434462 -24.177776170936028 1.9331549137178321 #
point $-1 71.247442089089716 -24.177776170936028 1.9331549137178321 #
straight-curve $-1 -95.969248988096609 -22.323106369671933 15.357979501720134 0 -1 0 I I #
End-of-ACIS-data 