500 0 4 0           
7 Unknown 11 ACIS 5.0 NT 24 Thu Mar 25 20:08:51 1999 
-1 9.9999999999999995e-007 1e-010 
body $-1 $4 $-1 $5 #
body $-1 $6 $-1 $7 #
body $-1 $8 $-1 $9 #
body $-1 $10 $-1 $11 #
lump $-1 $-1 $12 $0 #
transform $-1 1 0 0 0 1 0 0 0 1 71.626941740165407 37.614691610275464 12.008875144914509 1 rotate no_reflect no_shear #
lump $-1 $-1 $13 $1 #
transform $-1 1 0 0 0 1 0 0 0 1 71.626941740165407 37.614691610275464 12.008875144914509 1 rotate no_reflect no_shear #
lump $-1 $-1 $14 $2 #
transform $-1 1 0 0 0 1 0 0 0 1 71.626941740165407 37.614691610275464 12.008875144914509 1 rotate no_reflect no_shear #
lump $-1 $-1 $15 $3 #
transform $-1 1 0 0 0 1 0 0 0 1 71.626941740165407 37.614691610275464 12.008875144914509 1 rotate no_reflect no_shear #
shell $-1 $-1 $-1 $16 $-1 $4 #
shell $-1 $-1 $-1 $17 $-1 $6 #
shell $-1 $-1 $-1 $18 $-1 $8 #
shell $-1 $-1 $-1 $19 $-1 $10 #
face $-1 $20 $21 $12 $-1 $22 forward single #
face $-1 $23 $24 $13 $-1 $25 forward single #
face $-1 $26 $27 $14 $-1 $28 reversed single #
face $-1 $29 $30 $15 $-1 $31 forward single #
face $-1 $32 $33 $12 $-1 $34 reversed single #
loop $-1 $-1 $35 $16 #
plane-surface $-1 0 0 12.008875144914509 0 0 1 1 0 0 forward_v I I I I #
face $-1 $36 $37 $13 $-1 $38 reversed single #
loop $-1 $-1 $39 $17 #
plane-surface $-1 -66.021611347006242 0 1.4570185414862284 0 0 1 1 0 0 forward_v I I I I #
face $-1 $40 $41 $14 $-1 $42 reversed single #
loop $-1 $-1 $43 $18 #
plane-surface $-1 124.06150531205613 -15.757803613871268 201.83356996821965 0 -1 0 -0.86602541151947299 0 -0.49999998660252726 forward_v I I I I #
face $-1 $44 $45 $15 $-1 $46 forward single #
loop $-1 $47 $48 $19 #
cone-surface $-1 68.414225552545417 -22.904330992629465 8.1994297887874179 -0.86602541151947299 0 -0.49999998660252726 0.74999997990379086 0 -1.2990381172792094 1 I I 0 1 1.5 forward I I I I #
face $-1 $49 $50 $12 $-1 $51 reversed single #
loop $-1 $-1 $52 $20 #
plane-surface $-1 0 0 -12.008875144914509 0 0 1 1 0 0 forward_v I I I I #
coedge $-1 $53 $54 $55 $56 forward $21 $-1 #
face $-1 $57 $58 $13 $-1 $59 reversed single #
loop $-1 $-1 $60 $23 #
plane-surface $-1 -66.021611347006242 0 -5.6187146313036642 0 0 1 1 0 0 forward_v I I I I #
coedge $-1 $61 $62 $63 $64 forward $24 $-1 #
face $-1 $65 $66 $14 $-1 $67 reversed single #
loop $-1 $-1 $68 $26 #
plane-surface $-1 1.9192400060319414e-006 -22.904330992629465 130.20663014729425 0.86602541151947299 0 0.49999998660252726 0.49999998660252726 0 -0.86602541151947299 forward_v I I I I #
coedge $-1 $69 $70 $71 $72 reversed $27 $-1 #
face $-1 $-1 $73 $15 $-1 $74 forward single #
loop $-1 $75 $76 $29 #
cone-surface $-1 66.244708601650089 -22.904330992629465 6.9468586379266419 -0.86602541151947299 0 -0.49999998660252726 0.37499998995189543 0 -0.64951905863960469 1 I I -0.70710678118654757 0.70710678118654757 0.75 forward I I I I #
loop $-1 $-1 $77 $19 #
coedge $-1 $48 $48 $78 $79 reversed $30 $-1 #
face $-1 $80 $81 $12 $-1 $82 reversed single #
loop $-1 $-1 $83 $32 #
plane-surface $-1 0 -37.614691610275464 0 0 1 0 0 0 1 forward_v I I I I #
coedge $-1 $84 $85 $86 $87 forward $33 $-1 #
coedge $-1 $88 $35 $89 $90 forward $21 $-1 #
coedge $-1 $35 $88 $91 $92 forward $21 $-1 #
coedge $-1 $93 $94 $35 $56 reversed $95 $-1 #
edge $-1 $96 -37.614691610275464 $97 37.614691610275464 $55 $98 forward 7 unknown #
face $-1 $99 $100 $13 $-1 $101 reversed single #
loop $-1 $-1 $102 $36 #
plane-surface $-1 -60.416280953847078 0 -2.0808480449087181 -1 0 0 0 0 1 forward_v I I I I #
coedge $-1 $103 $104 $105 $106 forward $37 $-1 #
coedge $-1 $107 $39 $108 $109 reversed $24 $-1 #
coedge $-1 $39 $107 $110 $111 reversed $24 $-1 #
coedge $-1 $102 $112 $39 $64 reversed $58 $-1 #
edge $-1 $113 -37.614691610275464 $114 37.614691610275464 $63 $115 forward 7 unknown #
face $-1 $116 $117 $14 $-1 $118 reversed single #
loop $-1 $-1 $119 $40 #
plane-surface $-1 124.06150531205613 -30.050858371387662 201.83356996821965 0 1 0 0.86602541151947299 0 0.49999998660252726 forward_v I I I I #
coedge $-1 $120 $121 $122 $123 reversed $41 $-1 #
coedge $-1 $70 $43 $124 $125 reversed $27 $-1 #
coedge $-1 $43 $69 $120 $126 reversed $27 $-1 #
coedge $-1 $122 $127 $43 $72 forward $128 $-1 #
edge $-1 $129 -9.5961890841373432 $130 -6.2107524934087976 $71 $131 forward 7 unknown #
loop $-1 $-1 $78 $44 #
plane-surface $-1 1.9192400060319414e-006 -22.904330992629465 130.20663014729425 0.86602541151947299 0 0.49999998660252726 0.49999998660252726 0 -0.86602541151947299 forward_v I I I I #
loop $-1 $-1 $132 $29 #
coedge $-1 $76 $76 $77 $133 reversed $45 $-1 #
coedge $-1 $77 $77 $76 $133 forward $47 $-1 #
coedge $-1 $78 $78 $48 $79 forward $73 $-1 #
edge $-1 $134 0 $134 6.2831853071796004 $78 $135 forward 7 unknown #
face $-1 $136 $137 $12 $-1 $138 reversed single #
loop $-1 $-1 $139 $49 #
plane-surface $-1 -71.626941740165407 0 0 1 0 0 0 0 -1 forward_v I I I I #
coedge $-1 $140 $91 $141 $142 forward $50 $-1 #
coedge $-1 $143 $52 $140 $144 forward $33 $-1 #
coedge $-1 $52 $143 $145 $146 forward $33 $-1 #
coedge $-1 $94 $93 $52 $87 reversed $95 $-1 #
edge $-1 $147 -37.614691610275464 $148 37.614691610275464 $86 $149 forward 7 unknown #
coedge $-1 $54 $53 $150 $151 forward $21 $-1 #
coedge $-1 $152 $153 $53 $90 reversed $137 $-1 #
edge $-1 $97 -71.626941740165407 $154 71.626941740165407 $89 $155 forward 7 unknown #
coedge $-1 $83 $156 $54 $92 reversed $50 $-1 #
edge $-1 $157 -71.626941740165407 $96 71.626941740165407 $91 $158 forward 7 unknown #
coedge $-1 $86 $55 $156 $159 forward $95 $-1 #
coedge $-1 $55 $86 $152 $160 reversed $95 $-1 #
loop $-1 $-1 $93 $136 #
vertex $-1 $56 $161 #
vertex $-1 $56 $162 #
straight-curve $-1 71.626941740165407 0 12.008875144914509 0 1 0 I I #
face $-1 $163 $164 $13 $-1 $165 reversed single #
loop $-1 $-1 $166 $57 #
plane-surface $-1 0 -37.614691610275464 0 0 1 0 0 0 1 forward_v I I I I #
coedge $-1 $105 $63 $167 $168 reversed $58 $-1 #
coedge $-1 $169 $60 $166 $170 reversed $37 $-1 #
coedge $-1 $60 $169 $171 $172 reversed $37 $-1 #
coedge $-1 $112 $102 $60 $106 reversed $58 $-1 #
edge $-1 $173 -37.614691610275464 $174 37.614691610275464 $105 $175 forward 7 unknown #
coedge $-1 $62 $61 $176 $177 reversed $24 $-1 #
coedge $-1 $178 $179 $61 $109 forward $180 $-1 #
edge $-1 $181 -38.616136066662285 $114 -27.405475280343957 $108 $182 forward 7 unknown #
coedge $-1 $183 $167 $62 $111 forward $100 $-1 #
edge $-1 $113 27.405475280343957 $184 38.616136066662285 $110 $185 forward 7 unknown #
coedge $-1 $63 $105 $178 $186 reversed $58 $-1 #
vertex $-1 $111 $187 #
vertex $-1 $109 $188 #
straight-curve $-1 -60.416280953847078 0 1.4570185414862284 0 1 0 I I #
face $-1 $-1 $128 $14 $-1 $189 forward single #
loop $-1 $-1 $190 $65 #
plane-surface $-1 71.626941740165407 0 0 -1 0 0 0 0 1 forward_v I I I I #
coedge $-1 $191 $192 $193 $194 reversed $66 $-1 #
coedge $-1 $195 $68 $70 $126 forward $41 $-1 #
coedge $-1 $68 $195 $191 $196 forward $41 $-1 #
coedge $-1 $193 $71 $68 $123 forward $128 $-1 #
edge $-1 $130 4.3056381175565352 $197 18.598692875072928 $122 $198 forward 7 unknown #
coedge $-1 $199 $200 $69 $125 forward $117 $-1 #
edge $-1 $201 -94.771658229631697 $129 -88.907909839195312 $124 $202 forward 7 unknown #
edge $-1 $130 136.48301011744852 $201 143.25388348033081 $70 $203 forward 7 unknown #
coedge $-1 $71 $193 $199 $204 forward $128 $-1 #
loop $-1 $-1 $193 $116 #
vertex $-1 $125 $205 #
vertex $-1 $72 $206 #
straight-curve $-1 62.030752656028064 -15.757803613871268 12.008875144914512 -1 0 0 I I #
coedge $-1 $132 $132 $-1 $207 reversed $75 $-1 #
edge $-1 $208 0 $208 6.2831853071796004 $76 $209 forward 7 unknown #
vertex $-1 $79 $210 #
ellipse-curve $-1 69.934223444801148 -22.904330992629465 9.0770009496962984 0.86602541151947299 0 0.49999998660252726 0.74999997990379086 0 -1.2990381172792094 1 I I #
face $-1 $-1 $95 $12 $-1 $211 reversed single #
loop $-1 $-1 $152 $80 #
plane-surface $-1 0 37.614691610275464 0 0 -1 0 0 0 -1 forward_v I I I I #
coedge $-1 $212 $150 $153 $213 forward $81 $-1 #
coedge $-1 $156 $83 $84 $144 reversed $50 $-1 #
coedge $-1 $150 $212 $83 $142 reversed $81 $-1 #
edge $-1 $157 -12.008875144914509 $214 12.008875144914509 $141 $215 forward 7 unknown #
coedge $-1 $85 $84 $212 $216 forward $33 $-1 #
edge $-1 $148 -71.626941740165407 $214 71.626941740165407 $140 $217 forward 7 unknown #
coedge $-1 $153 $152 $85 $146 reversed $137 $-1 #
edge $-1 $218 -71.626941740165407 $147 71.626941740165407 $145 $219 forward 7 unknown #
vertex $-1 $87 $220 #
vertex $-1 $159 $221 #
straight-curve $-1 71.626941740165407 0 -12.008875144914509 0 -1 0 I I #
coedge $-1 $139 $141 $88 $151 reversed $81 $-1 #
edge $-1 $154 -37.614691610275464 $157 37.614691610275464 $150 $222 forward 7 unknown #
coedge $-1 $145 $89 $94 $160 forward $137 $-1 #
coedge $-1 $89 $145 $139 $213 reversed $137 $-1 #
vertex $-1 $90 $223 #
straight-curve $-1 0 37.614691610275464 12.008875144914509 -1 0 0 I I #
coedge $-1 $91 $140 $93 $159 reversed $50 $-1 #
vertex $-1 $151 $224 #
straight-curve $-1 0 -37.614691610275464 12.008875144914509 1 0 0 I I #
edge $-1 $96 -12.008875144914509 $148 12.008875144914509 $93 $225 forward 7 unknown #
edge $-1 $97 -12.008875144914509 $147 12.008875144914509 $94 $226 forward 7 unknown #
point $-1 71.626941740165407 -37.614691610275464 12.008875144914509 #
point $-1 71.626941740165407 37.614691610275464 12.008875144914509 #
face $-1 $-1 $180 $13 $-1 $227 reversed single #
loop $-1 $-1 $228 $99 #
plane-surface $-1 -71.626941740165407 0 0 1 0 0 0 0 -1 forward_v I I I I #
coedge $-1 $167 $183 $103 $170 forward $100 $-1 #
coedge $-1 $110 $166 $102 $168 forward $100 $-1 #
edge $-1 $174 -4.5782906088493052 $113 2.4974425639405875 $167 $229 forward 7 unknown #
coedge $-1 $104 $103 $228 $230 reversed $37 $-1 #
edge $-1 $231 -38.616136066662285 $174 -27.405475280343957 $166 $232 forward 7 unknown #
coedge $-1 $179 $178 $104 $172 forward $180 $-1 #
edge $-1 $173 27.405475280343957 $233 38.616136066662285 $171 $234 forward 7 unknown #
vertex $-1 $172 $235 #
vertex $-1 $170 $236 #
straight-curve $-1 -60.416280953847078 0 -5.6187146313036642 0 -1 0 I I #
coedge $-1 $237 $238 $107 $177 forward $164 $-1 #
edge $-1 $184 -37.614691610275464 $181 37.614691610275464 $176 $239 forward 7 unknown #
coedge $-1 $171 $108 $112 $186 forward $180 $-1 #
coedge $-1 $108 $171 $237 $240 reversed $180 $-1 #
loop $-1 $-1 $171 $163 #
vertex $-1 $240 $241 #
straight-curve $-1 -33.010805673503121 37.614691610275464 1.4570185414862284 1 0 0 I I #
coedge $-1 $166 $110 $238 $242 forward $100 $-1 #
vertex $-1 $242 $243 #
straight-curve $-1 -33.010805673503121 -37.614691610275464 1.4570185414862284 -1 0 0 I I #
edge $-1 $114 -2.4974425639405875 $173 4.5782906088493052 $178 $244 forward 7 unknown #
point $-1 -60.416280953847078 -37.614691610275464 1.4570185414862284 #
point $-1 -60.416280953847078 37.614691610275464 1.4570185414862284 #
plane-surface $-1 0 0 12.008875144914509 0 0 1 1 0 0 forward_v I I I I #
coedge $-1 $200 $199 $192 $245 forward $117 $-1 #
coedge $-1 $192 $119 $121 $196 reversed $66 $-1 #
coedge $-1 $119 $191 $190 $245 reversed $66 $-1 #
coedge $-1 $127 $122 $119 $194 forward $128 $-1 #
edge $-1 $197 6.2107524934087976 $246 9.5961890841373432 $193 $247 forward 7 unknown #
coedge $-1 $121 $120 $200 $248 reversed $41 $-1 #
edge $-1 $249 -143.25388348033081 $197 -136.48301011744852 $191 $250 forward 7 unknown #
vertex $-1 $123 $251 #
straight-curve $-1 68.241505149436833 -11.452165496314732 12.008875144914512 0 -1 0 I I #
coedge $-1 $190 $124 $127 $204 reversed $117 $-1 #
coedge $-1 $124 $190 $195 $248 forward $117 $-1 #
vertex $-1 $125 $252 #
straight-curve $-1 71.626941740165407 -15.757803613871268 100.91678498410982 0 0 1 I I #
straight-curve $-1 1.9192400060319414e-006 -15.757803613871268 130.20663014729425 0.49999998660252726 0 -0.86602541151947299 I I #
edge $-1 $246 -30.050858371387662 $129 -15.757803613871268 $199 $253 forward 7 unknown #
point $-1 71.626941740165407 -15.757803613871268 12.008875144914509 #
point $-1 68.241505149436861 -15.757803613871268 12.008875144914498 #
edge $-1 $254 1 $254 0 $132 $-1 forward 7 unknown #
vertex $-1 $133 $255 #
ellipse-curve $-1 66.894227660289687 -22.904330992629465 7.3218586278785374 0.86602541151947299 0 0.49999998660252726 0.74999997990379086 0 -1.2990381172792094 1 I I #
point $-1 70.684223424704953 -22.904330992629465 7.7779628324170886 #
plane-surface $-1 71.626941740165407 0 0 -1 0 0 0 0 1 forward_v I I I I #
coedge $-1 $141 $139 $143 $216 reversed $81 $-1 #
edge $-1 $154 -12.008875144914509 $218 12.008875144914509 $153 $256 forward 7 unknown #
vertex $-1 $216 $257 #
straight-curve $-1 -71.626941740165407 -37.614691610275464 0 0 0 -1 I I #
edge $-1 $214 -37.614691610275464 $218 37.614691610275464 $212 $258 forward 7 unknown #
straight-curve $-1 0 -37.614691610275464 -12.008875144914509 -1 0 0 I I #
vertex $-1 $146 $259 #
straight-curve $-1 0 37.614691610275464 -12.008875144914509 1 0 0 I I #
point $-1 71.626941740165407 37.614691610275464 -12.008875144914509 #
point $-1 71.626941740165407 -37.614691610275464 -12.008875144914509 #
straight-curve $-1 -71.626941740165407 0 12.008875144914509 0 -1 0 I I #
point $-1 -71.626941740165407 37.614691610275464 12.008875144914509 #
point $-1 -71.626941740165407 -37.614691610275464 12.008875144914509 #
straight-curve $-1 71.626941740165407 -37.614691610275464 0 0 0 -1 I I #
straight-curve $-1 71.626941740165407 37.614691610275464 0 0 0 -1 I I #
plane-surface $-1 0 37.614691610275464 0 0 -1 0 0 0 -1 forward_v I I I I #
coedge $-1 $238 $237 $169 $230 forward $164 $-1 #
straight-curve $-1 -60.416280953847078 -37.614691610275464 -1.0404240224543591 0 0 1 I I #
edge $-1 $233 -37.614691610275464 $231 37.614691610275464 $228 $260 forward 7 unknown #
vertex $-1 $170 $261 #
straight-curve $-1 -33.010805673503121 -37.614691610275464 -5.6187146313036642 1 0 0 I I #
vertex $-1 $172 $262 #
straight-curve $-1 -33.010805673503121 37.614691610275464 -5.6187146313036642 -1 0 0 I I #
point $-1 -60.416280953847078 37.614691610275464 -5.6187146313036642 #
point $-1 -60.416280953847078 -37.614691610275464 -5.6187146313036642 #
coedge $-1 $228 $176 $179 $240 forward $164 $-1 #
coedge $-1 $176 $228 $183 $242 reversed $164 $-1 #
straight-curve $-1 -71.626941740165407 0 1.4570185414862284 0 1 0 I I #
edge $-1 $181 -1.4570185414862284 $233 5.6187146313036642 $179 $263 forward 7 unknown #
point $-1 -71.626941740165407 37.614691610275464 1.4570185414862284 #
edge $-1 $184 -1.4570185414862284 $231 5.6187146313036642 $238 $264 forward 7 unknown #
point $-1 -71.626941740165407 -37.614691610275464 1.4570185414862284 #
straight-curve $-1 -60.416280953847078 37.614691610275464 -1.0404240224543591 0 0 -1 I I #
edge $-1 $246 88.907909839195312 $249 94.771658229631697 $190 $265 forward 7 unknown #
vertex $-1 $204 $266 #
straight-curve $-1 62.030752656028064 -30.050858371387662 12.008875144914512 1 0 0 I I #
edge $-1 $249 -18.598692875072928 $201 -4.3056381175565352 $200 $267 forward 7 unknown #
vertex $-1 $248 $268 #
straight-curve $-1 1.9192400060319414e-006 -30.050858371387662 130.20663014729425 -0.49999998660252726 0 0.86602541151947299 I I #
point $-1 68.241505149436861 -30.050858371387662 12.008875144914498 #
point $-1 71.626941740165407 -15.757803613871268 6.1451267544781274 #
straight-curve $-1 71.626941740165407 0 12.008875144914509 0 1 0 I I #
vertex $-1 $207 $269 #
point $-1 67.644227640193478 -22.904330992629465 6.0228205105993275 #
straight-curve $-1 -71.626941740165407 37.614691610275464 0 0 0 -1 I I #
point $-1 -71.626941740165407 -37.614691610275464 -12.008875144914509 #
straight-curve $-1 -71.626941740165407 0 -12.008875144914509 0 1 0 I I #
point $-1 -71.626941740165407 37.614691610275464 -12.008875144914509 #
straight-curve $-1 -71.626941740165407 0 -5.6187146313036642 0 -1 0 I I #
point $-1 -71.626941740165407 -37.614691610275464 -5.6187146313036642 #
point $-1 -71.626941740165407 37.614691610275464 -5.6187146313036642 #
straight-curve $-1 -71.626941740165407 37.614691610275464 0 0 0 -1 I I #
straight-curve $-1 -71.626941740165407 -37.614691610275464 0 0 0 -1 I I #
straight-curve $-1 71.626941740165407 -30.050858371387662 100.91678498410982 0 0 -1 I I #
point $-1 71.626941740165407 -30.050858371387662 12.008875144914509 #
straight-curve $-1 71.626941740165407 -11.452165496314732 6.1451267544781274 0 1 0 I I #
point $-1 71.626941740165407 -30.050858371387662 6.1451267544781274 #
point $-1 65.595189543010491 -22.904330992629465 6.5718586479747465 #
End-of-ACIS-data 