500 0 10 0           
7 Unknown 11 ACIS 5.0 NT 24 Fri Mar 26 14:55:09 1999 
-1 9.9999999999999995e-007 1e-010 
body $-1 $10 $-1 $11 #
body $-1 $12 $-1 $13 #
body $-1 $14 $-1 $15 #
body $-1 $16 $-1 $17 #
body $-1 $18 $-1 $19 #
body $-1 $20 $-1 $21 #
body $-1 $22 $-1 $23 #
body $-1 $24 $-1 $25 #
body $-1 $26 $-1 $27 #
body $-1 $28 $-1 $29 #
lump $-1 $-1 $30 $0 #
transform $-1 1 0 0 0 1 0 0 0 1 64.477065340128789 39.138623533484775 9.3567432920179758 1 rotate no_reflect no_shear #
lump $-1 $-1 $31 $1 #
transform $-1 1 0 0 0 1 0 0 0 1 64.477065340128789 39.138623533484775 9.3567432920179758 1 rotate no_reflect no_shear #
lump $-1 $-1 $32 $2 #
transform $-1 1 0 0 0 1 0 0 0 1 64.477065340128789 39.138623533484775 9.3567432920179758 1 rotate no_reflect no_shear #
lump $-1 $-1 $33 $3 #
transform $-1 1 0 0 0 1 0 0 0 1 64.477065340128789 39.138623533484775 9.3567432920179758 1 rotate no_reflect no_shear #
lump $-1 $-1 $34 $4 #
transform $-1 1 0 0 0 1 0 0 0 1 64.477065340128789 39.138623533484775 9.3567432920179758 1 rotate no_reflect no_shear #
lump $-1 $-1 $35 $5 #
transform $-1 1 0 0 0 1 0 0 0 1 64.477065340128789 39.138623533484775 9.3567432920179758 1 rotate no_reflect no_shear #
lump $-1 $-1 $36 $6 #
transform $-1 1 0 0 0 1 0 0 0 1 64.477065340128789 39.138623533484775 9.3567432920179758 1 rotate no_reflect no_shear #
lump $-1 $-1 $37 $7 #
transform $-1 1 0 0 0 1 0 0 0 1 64.477065340128789 39.138623533484775 9.3567432920179758 1 rotate no_reflect no_shear #
lump $-1 $-1 $38 $8 #
transform $-1 1 0 0 0 1 0 0 0 1 64.477065340128789 39.138623533484775 9.3567432920179758 1 rotate no_reflect no_shear #
lump $-1 $-1 $39 $9 #
transform $-1 1 0 0 0 1 0 0 0 1 64.477065340128789 39.138623533484775 9.3567432920179758 1 rotate no_reflect no_shear #
shell $-1 $-1 $-1 $40 $-1 $10 #
shell $-1 $-1 $-1 $41 $-1 $12 #
shell $-1 $-1 $-1 $42 $-1 $14 #
shell $-1 $-1 $-1 $43 $-1 $16 #
shell $-1 $-1 $-1 $44 $-1 $18 #
shell $-1 $-1 $-1 $45 $-1 $20 #
shell $-1 $-1 $-1 $46 $-1 $22 #
shell $-1 $-1 $-1 $47 $-1 $24 #
shell $-1 $-1 $-1 $48 $-1 $26 #
shell $-1 $-1 $-1 $49 $-1 $28 #
face $-1 $50 $51 $30 $-1 $52 forward single #
face $-1 $53 $54 $31 $-1 $55 reversed single #
face $-1 $56 $57 $32 $-1 $58 reversed single #
face $-1 $59 $60 $33 $-1 $61 forward single #
face $-1 $62 $63 $34 $-1 $64 forward single #
face $-1 $65 $66 $35 $-1 $67 forward single #
face $-1 $68 $69 $36 $-1 $70 reversed single #
face $-1 $71 $72 $37 $-1 $73 forward single #
face $-1 $74 $75 $38 $-1 $76 forward single #
face $-1 $77 $78 $39 $-1 $79 forward single #
face $-1 $80 $81 $30 $-1 $82 reversed single #
loop $-1 $-1 $83 $40 #
plane-surface $-1 0 0 9.3567432920179758 0 0 1 1 0 0 forward_v I I I I #
face $-1 $84 $85 $31 $-1 $86 reversed single #
loop $-1 $-1 $87 $41 #
plane-surface $-1 -56.572820306394405 -35.142473546709482 0 -1 0 0 0 0 1 forward_v I I I I #
face $-1 $88 $89 $32 $-1 $90 reversed single #
loop $-1 $-1 $91 $42 #
plane-surface $-1 -39.4318136713255 -140.75586629597518 80.061965216373039 -1 0 0 0 -0.78801076186113728 0.61566146476048833 forward_v I I I I #
face $-1 $92 $93 $33 $-1 $94 forward single #
loop $-1 $95 $96 $43 #
cone-surface $-1 -53.144618979380624 -34.332221615378259 3.9094002165208512 0 0.78801076186113728 -0.61566146476048833 1.5 0 0 1 I I 0 1 1.5 forward I I I I #
face $-1 $97 $98 $34 $-1 $99 forward single #
loop $-1 $100 $101 $44 #
cone-surface $-1 -48.002316988859953 -34.332221615378259 3.9094002165208512 0 0.78801076186113728 -0.61566146476048833 1.5 0 0 1 I I 0 1 1.5 forward I I I I #
face $-1 $102 $103 $35 $-1 $104 forward single #
loop $-1 $105 $106 $45 #
cone-surface $-1 -42.860014998339281 -34.332221615378259 3.9094002165208512 0 0.78801076186113728 -0.61566146476048833 1.5 0 0 1 I I 0 1 1.5 forward I I I I #
face $-1 $107 $108 $36 $-1 $109 reversed single #
loop $-1 $-1 $110 $46 #
plane-surface $-1 -56.572820306394405 92.563581709306078 141.7452783140082 1 0 0 0 -0.78801076186113728 -0.61566146476048833 forward_v I I I I #
face $-1 $111 $112 $37 $-1 $113 forward single #
loop $-1 $114 $115 $47 #
cone-surface $-1 -53.144618979380624 34.332221615378273 3.9094002165208512 0 -0.78801076186113728 -0.61566146476048833 1.5 0 0 1 I I 0 1 1.5 forward I I I I #
face $-1 $116 $117 $38 $-1 $118 forward single #
loop $-1 $119 $120 $48 #
cone-surface $-1 -48.002316988859953 34.332221615378273 3.9094002165208512 0 -0.78801076186113728 -0.61566146476048833 1.5 0 0 1 I I 0 1 1.5 forward I I I I #
face $-1 $121 $122 $39 $-1 $123 forward single #
loop $-1 $124 $125 $49 #
cone-surface $-1 -42.860014998339281 34.332221615378273 3.9094002165208512 0 -0.78801076186113728 -0.61566146476048833 1.5 0 0 1 I I 0 1 1.5 forward I I I I #
face $-1 $126 $127 $30 $-1 $128 reversed single #
loop $-1 $-1 $129 $50 #
plane-surface $-1 0 0 -9.3567432920179758 0 0 1 1 0 0 forward_v I I I I #
coedge $-1 $130 $131 $132 $133 forward $51 $-1 #
face $-1 $134 $135 $31 $-1 $136 reversed single #
loop $-1 $-1 $137 $53 #
plane-surface $-1 -60.524942823261597 -36.910080488203072 0 0 1 0 0 0 1 forward_v I I I I #
coedge $-1 $138 $139 $140 $141 forward $54 $-1 #
face $-1 $142 $143 $32 $-1 $144 reversed single #
loop $-1 $-1 $145 $56 #
plane-surface $-1 -48.002316988859953 -39.138623533484747 0.66987623485023562 0 -0.78801076186113728 0.61566146476048833 1 0 0 forward_v I I I I #
coedge $-1 $146 $147 $148 $149 reversed $57 $-1 #
face $-1 $-1 $150 $33 $-1 $151 forward single #
loop $-1 $152 $153 $59 #
cone-surface $-1 -53.144618979380624 -32.328273717665169 2.3437445710372256 0 0.78801076186113728 -0.61566146476048833 0.75 0 0 1 I I -0.70710678118654757 0.70710678118654757 0.75 forward I I I I #
loop $-1 $-1 $154 $43 #
coedge $-1 $96 $96 $155 $156 reversed $60 $-1 #
face $-1 $-1 $157 $34 $-1 $158 forward single #
loop $-1 $159 $160 $62 #
cone-surface $-1 -48.002316988859953 -32.328273717665169 2.3437445710372256 0 0.78801076186113728 -0.61566146476048833 0.75 0 0 1 I I -0.70710678118654757 0.70710678118654757 0.75 forward I I I I #
loop $-1 $-1 $161 $44 #
coedge $-1 $101 $101 $162 $163 reversed $63 $-1 #
face $-1 $-1 $164 $35 $-1 $165 forward single #
loop $-1 $166 $167 $65 #
cone-surface $-1 -42.860014998339281 -32.328273717665169 2.3437445710372256 0 0.78801076186113728 -0.61566146476048833 0.75 0 0 1 I I -0.70710678118654757 0.70710678118654757 0.75 forward I I I I #
loop $-1 $-1 $168 $45 #
coedge $-1 $106 $106 $169 $170 reversed $66 $-1 #
face $-1 $171 $172 $36 $-1 $173 reversed single #
loop $-1 $-1 $174 $68 #
plane-surface $-1 -48.002316988859953 -9.0536610531843564 62.3531893324854 0 0.78801076186113728 0.61566146476048833 1 0 0 forward_v I I I I #
coedge $-1 $175 $176 $177 $178 reversed $69 $-1 #
face $-1 $-1 $179 $37 $-1 $180 forward single #
loop $-1 $181 $182 $71 #
cone-surface $-1 -53.144618979380624 32.328273717665184 2.3437445710372256 0 -0.78801076186113728 -0.61566146476048833 0.75 0 0 1 I I -0.70710678118654757 0.70710678118654757 0.75 forward I I I I #
loop $-1 $-1 $183 $47 #
coedge $-1 $115 $115 $184 $185 reversed $72 $-1 #
face $-1 $-1 $186 $38 $-1 $187 forward single #
loop $-1 $188 $189 $74 #
cone-surface $-1 -48.002316988859953 32.328273717665184 2.3437445710372256 0 -0.78801076186113728 -0.61566146476048833 0.75 0 0 1 I I -0.70710678118654757 0.70710678118654757 0.75 forward I I I I #
loop $-1 $-1 $190 $48 #
coedge $-1 $120 $120 $191 $192 reversed $75 $-1 #
face $-1 $-1 $193 $39 $-1 $194 forward single #
loop $-1 $195 $196 $77 #
cone-surface $-1 -42.860014998339281 32.328273717665184 2.3437445710372256 0 -0.78801076186113728 -0.61566146476048833 0.75 0 0 1 I I -0.70710678118654757 0.70710678118654757 0.75 forward I I I I #
loop $-1 $-1 $197 $49 #
coedge $-1 $125 $125 $198 $199 reversed $78 $-1 #
face $-1 $200 $201 $30 $-1 $202 reversed single #
loop $-1 $-1 $203 $80 #
plane-surface $-1 0 -39.138623533484775 0 0 1 0 0 0 1 forward_v I I I I #
coedge $-1 $204 $205 $206 $207 forward $81 $-1 #
coedge $-1 $208 $83 $209 $210 forward $51 $-1 #
coedge $-1 $83 $208 $211 $212 forward $51 $-1 #
coedge $-1 $213 $214 $83 $133 reversed $215 $-1 #
edge $-1 $216 -39.138623533484775 $217 39.138623533484775 $132 $218 forward 7 unknown #
face $-1 $219 $220 $31 $-1 $221 reversed single #
loop $-1 $-1 $222 $84 #
plane-surface $-1 -60.524942823261597 -33.374866605215892 0 0 -1 0 0 0 -1 forward_v I I I I #
coedge $-1 $223 $224 $225 $226 reversed $85 $-1 #
coedge $-1 $227 $87 $228 $229 reversed $54 $-1 #
coedge $-1 $87 $227 $230 $231 reversed $54 $-1 #
coedge $-1 $224 $223 $87 $141 reversed $85 $-1 #
edge $-1 $232 -9.3567432920179758 $233 9.3567432920179758 $87 $234 forward 7 unknown #
face $-1 $235 $236 $32 $-1 $237 forward single #
loop $-1 $-1 $238 $88 #
plane-surface $-1 0 -39.138623533484775 0 0 1 0 0 0 1 forward_v I I I I #
coedge $-1 $239 $240 $241 $242 reversed $89 $-1 #
coedge $-1 $147 $91 $243 $244 reversed $57 $-1 #
coedge $-1 $91 $146 $239 $245 reversed $57 $-1 #
coedge $-1 $241 $246 $91 $149 forward $236 $-1 #
edge $-1 $247 31.239309614502815 $248 38.026233798081414 $148 $249 forward 7 unknown #
loop $-1 $-1 $155 $92 #
plane-surface $-1 -48.002316988859953 -39.138623533484747 0.66987623485023562 0 -0.78801076186113728 0.61566146476048833 1 0 0 forward_v I I I I #
loop $-1 $-1 $250 $59 #
coedge $-1 $153 $153 $154 $251 reversed $93 $-1 #
coedge $-1 $154 $154 $153 $251 forward $95 $-1 #
coedge $-1 $155 $155 $96 $156 forward $150 $-1 #
edge $-1 $252 -2.3335121302594559e-015 $252 6.2831853071795978 $155 $253 forward 7 unknown #
loop $-1 $-1 $162 $97 #
plane-surface $-1 -48.002316988859953 -39.138623533484747 0.66987623485023562 0 -0.78801076186113728 0.61566146476048833 1 0 0 forward_v I I I I #
loop $-1 $-1 $254 $62 #
coedge $-1 $160 $160 $161 $255 reversed $98 $-1 #
coedge $-1 $161 $161 $160 $255 forward $100 $-1 #
coedge $-1 $162 $162 $101 $163 forward $157 $-1 #
edge $-1 $256 -2.3335121302594559e-015 $256 6.2831853071795978 $162 $257 forward 7 unknown #
loop $-1 $-1 $169 $102 #
plane-surface $-1 -48.002316988859953 -39.138623533484747 0.66987623485023562 0 -0.78801076186113728 0.61566146476048833 1 0 0 forward_v I I I I #
loop $-1 $-1 $258 $65 #
coedge $-1 $167 $167 $168 $259 reversed $103 $-1 #
coedge $-1 $168 $168 $167 $259 forward $105 $-1 #
coedge $-1 $169 $169 $106 $170 forward $164 $-1 #
edge $-1 $260 -2.3335121302594559e-015 $260 6.2831853071795978 $169 $261 forward 7 unknown #
face $-1 $262 $263 $36 $-1 $264 forward single #
loop $-1 $-1 $265 $107 #
plane-surface $-1 -39.4318136713255 92.563581709306078 141.7452783140082 -1 0 0 0 0.78801076186113728 0.61566146476048833 forward_v I I I I #
coedge $-1 $266 $267 $268 $269 reversed $108 $-1 #
coedge $-1 $176 $110 $270 $271 reversed $69 $-1 #
coedge $-1 $110 $175 $266 $272 reversed $69 $-1 #
coedge $-1 $268 $273 $110 $178 forward $263 $-1 #
edge $-1 $274 7.1431673211682636 $275 13.930091504746841 $177 $276 forward 7 unknown #
loop $-1 $-1 $184 $111 #
plane-surface $-1 -48.002316988859953 -9.0536610531843564 62.3531893324854 0 0.78801076186113728 0.61566146476048833 1 0 0 forward_v I I I I #
loop $-1 $-1 $277 $71 #
coedge $-1 $182 $182 $183 $278 reversed $112 $-1 #
coedge $-1 $183 $183 $182 $278 forward $114 $-1 #
coedge $-1 $184 $184 $115 $185 forward $179 $-1 #
edge $-1 $279 1.7501340976945914e-015 $279 6.2831853071796022 $184 $280 forward 7 unknown #
loop $-1 $-1 $191 $116 #
plane-surface $-1 -48.002316988859953 -9.0536610531843564 62.3531893324854 0 0.78801076186113728 0.61566146476048833 1 0 0 forward_v I I I I #
loop $-1 $-1 $281 $74 #
coedge $-1 $189 $189 $190 $282 reversed $117 $-1 #
coedge $-1 $190 $190 $189 $282 forward $119 $-1 #
coedge $-1 $191 $191 $120 $192 forward $186 $-1 #
edge $-1 $283 1.7501340976945914e-015 $283 6.2831853071796022 $191 $284 forward 7 unknown #
loop $-1 $-1 $198 $121 #
plane-surface $-1 -48.002316988859953 -9.0536610531843564 62.3531893324854 0 0.78801076186113728 0.61566146476048833 1 0 0 forward_v I I I I #
loop $-1 $-1 $285 $77 #
coedge $-1 $196 $196 $197 $286 reversed $122 $-1 #
coedge $-1 $197 $197 $196 $286 forward $124 $-1 #
coedge $-1 $198 $198 $125 $199 forward $193 $-1 #
edge $-1 $287 1.7501340976945914e-015 $287 6.2831853071796022 $198 $288 forward 7 unknown #
face $-1 $289 $290 $30 $-1 $291 reversed single #
loop $-1 $-1 $292 $126 #
plane-surface $-1 -64.477065340128789 0 0 1 0 0 0 0 -1 forward_v I I I I #
coedge $-1 $293 $211 $294 $295 forward $127 $-1 #
coedge $-1 $296 $129 $293 $297 forward $81 $-1 #
coedge $-1 $129 $296 $298 $299 forward $81 $-1 #
coedge $-1 $214 $213 $129 $207 reversed $215 $-1 #
edge $-1 $300 -39.138623533484775 $301 39.138623533484775 $206 $302 forward 7 unknown #
coedge $-1 $131 $130 $303 $304 forward $51 $-1 #
coedge $-1 $305 $306 $130 $210 reversed $290 $-1 #
edge $-1 $217 -64.477065340128789 $307 64.477065340128789 $209 $308 forward 7 unknown #
coedge $-1 $203 $309 $131 $212 reversed $127 $-1 #
edge $-1 $310 -64.477065340128789 $216 64.477065340128789 $211 $311 forward 7 unknown #
coedge $-1 $206 $132 $309 $312 forward $215 $-1 #
coedge $-1 $132 $206 $305 $313 reversed $215 $-1 #
loop $-1 $-1 $213 $289 #
vertex $-1 $133 $314 #
vertex $-1 $133 $315 #
straight-curve $-1 64.477065340128789 0 9.3567432920179758 0 1 0 I I #
face $-1 $316 $317 $31 $-1 $318 forward single #
loop $-1 $-1 $319 $134 #
plane-surface $-1 0 0 -9.3567432920179758 0 0 1 1 0 0 forward_v I I I I #
coedge $-1 $320 $321 $227 $322 forward $135 $-1 #
coedge $-1 $140 $137 $323 $324 reversed $85 $-1 #
coedge $-1 $137 $140 $325 $326 reversed $85 $-1 #
coedge $-1 $327 $328 $137 $226 forward $329 $-1 #
edge $-1 $330 -9.3567432920179758 $331 9.3567432920179758 $225 $332 forward 7 unknown #
coedge $-1 $139 $138 $222 $322 reversed $54 $-1 #
coedge $-1 $323 $319 $138 $229 forward $220 $-1 #
edge $-1 $333 15.803629831861151 $233 19.338843714848331 $228 $334 forward 7 unknown #
coedge $-1 $335 $325 $139 $231 forward $317 $-1 #
edge $-1 $232 -19.338843714848331 $336 -15.803629831861151 $230 $337 forward 7 unknown #
vertex $-1 $326 $338 #
vertex $-1 $324 $339 #
straight-curve $-1 -56.572820306394405 -36.910080488203072 0 0 0 -1 I I #
face $-1 $-1 $340 $32 $-1 $341 forward single #
loop $-1 $-1 $342 $142 #
plane-surface $-1 0 0 9.3567432920179758 0 0 1 1 0 0 forward_v I I I I #
coedge $-1 $343 $344 $345 $346 forward $143 $-1 #
coedge $-1 $347 $145 $147 $245 forward $89 $-1 #
coedge $-1 $145 $347 $348 $349 reversed $89 $-1 #
coedge $-1 $342 $148 $145 $242 forward $236 $-1 #
edge $-1 $248 15.430655176895524 $350 32.571661811964432 $241 $351 forward 7 unknown #
coedge $-1 $344 $343 $146 $244 forward $143 $-1 #
edge $-1 $352 -39.36110637333632 $247 -30.674239316168546 $243 $353 forward 7 unknown #
edge $-1 $248 -11.02379241198553 $352 4.6193811539156697e-014 $147 $354 forward 7 unknown #
coedge $-1 $148 $342 $344 $355 forward $236 $-1 #
vertex $-1 $149 $356 #
vertex $-1 $149 $357 #
straight-curve $-1 -39.4318136713255 -70.377933147987591 9.3567432920179741 0 1 0 I I #
coedge $-1 $250 $250 $-1 $358 reversed $152 $-1 #
edge $-1 $359 0 $359 6.2831853071796004 $153 $360 forward 7 unknown #
vertex $-1 $156 $361 #
ellipse-curve $-1 -53.144618979380624 -35.745161441695473 5.0133097634340924 0 -0.78801076186113728 0.61566146476048833 1.5 0 0 1 I I #
coedge $-1 $254 $254 $-1 $362 reversed $159 $-1 #
edge $-1 $363 0 $363 6.2831853071796004 $160 $364 forward 7 unknown #
vertex $-1 $163 $365 #
ellipse-curve $-1 -48.002316988859953 -35.745161441695473 5.0133097634340924 0 -0.78801076186113728 0.61566146476048833 1.5 0 0 1 I I #
coedge $-1 $258 $258 $-1 $366 reversed $166 $-1 #
edge $-1 $367 0 $367 6.2831853071796004 $167 $368 forward 7 unknown #
vertex $-1 $170 $369 #
ellipse-curve $-1 -42.860014998339281 -35.745161441695473 5.0133097634340924 0 -0.78801076186113728 0.61566146476048833 1.5 0 0 1 I I #
face $-1 $-1 $370 $36 $-1 $371 reversed single #
loop $-1 $-1 $177 $171 #
plane-surface $-1 0 0 9.3567432920179758 0 0 1 1 0 0 forward_v I I I I #
coedge $-1 $372 $373 $374 $375 reversed $172 $-1 #
coedge $-1 $376 $174 $176 $272 forward $108 $-1 #
coedge $-1 $174 $376 $372 $377 forward $108 $-1 #
coedge $-1 $374 $177 $174 $269 forward $263 $-1 #
edge $-1 $275 -32.571661811964432 $378 -15.430655176895524 $268 $379 forward 7 unknown #
coedge $-1 $380 $381 $175 $271 forward $370 $-1 #
edge $-1 $382 -70.20276292215388 $274 -61.515895864986128 $270 $383 forward 7 unknown #
edge $-1 $275 67.25345465498404 $382 78.277247066969579 $176 $384 forward 7 unknown #
coedge $-1 $177 $374 $380 $385 forward $263 $-1 #
vertex $-1 $271 $386 #
vertex $-1 $178 $387 #
straight-curve $-1 -56.572820306394405 46.281790854653039 9.3567432920179812 0 -1 0 I I #
coedge $-1 $277 $277 $-1 $388 reversed $181 $-1 #
edge $-1 $389 0 $389 6.2831853071796004 $182 $390 forward 7 unknown #
vertex $-1 $185 $391 #
ellipse-curve $-1 -53.144618979380624 35.745161441695494 5.0133097634340968 0 0.78801076186113728 0.61566146476048833 1.5 0 0 1 I I #
coedge $-1 $281 $281 $-1 $392 reversed $188 $-1 #
edge $-1 $393 0 $393 6.2831853071796004 $189 $394 forward 7 unknown #
vertex $-1 $192 $395 #
ellipse-curve $-1 -48.002316988859953 35.745161441695494 5.0133097634340968 0 0.78801076186113728 0.61566146476048833 1.5 0 0 1 I I #
coedge $-1 $285 $285 $-1 $396 reversed $195 $-1 #
edge $-1 $397 0 $397 6.2831853071796004 $196 $398 forward 7 unknown #
vertex $-1 $199 $399 #
ellipse-curve $-1 -42.860014998339281 35.745161441695494 5.0133097634340968 0 0.78801076186113728 0.61566146476048833 1.5 0 0 1 I I #
face $-1 $-1 $215 $30 $-1 $400 reversed single #
loop $-1 $-1 $305 $200 #
plane-surface $-1 0 39.138623533484775 0 0 -1 0 0 0 -1 forward_v I I I I #
coedge $-1 $401 $303 $306 $402 forward $201 $-1 #
coedge $-1 $309 $203 $204 $297 reversed $127 $-1 #
coedge $-1 $303 $401 $203 $295 reversed $201 $-1 #
edge $-1 $310 -9.3567432920179758 $403 9.3567432920179758 $294 $404 forward 7 unknown #
coedge $-1 $205 $204 $401 $405 forward $81 $-1 #
edge $-1 $301 -64.477065340128789 $403 64.477065340128789 $293 $406 forward 7 unknown #
coedge $-1 $306 $305 $205 $299 reversed $290 $-1 #
edge $-1 $407 -64.477065340128789 $300 64.477065340128789 $298 $408 forward 7 unknown #
vertex $-1 $207 $409 #
vertex $-1 $312 $410 #
straight-curve $-1 64.477065340128789 0 -9.3567432920179758 0 -1 0 I I #
coedge $-1 $292 $294 $208 $304 reversed $201 $-1 #
edge $-1 $307 -39.138623533484775 $310 39.138623533484775 $303 $411 forward 7 unknown #
coedge $-1 $298 $209 $214 $313 forward $290 $-1 #
coedge $-1 $209 $298 $292 $402 reversed $290 $-1 #
vertex $-1 $210 $412 #
straight-curve $-1 0 39.138623533484775 9.3567432920179758 -1 0 0 I I #
coedge $-1 $211 $293 $213 $312 reversed $127 $-1 #
vertex $-1 $304 $413 #
straight-curve $-1 0 -39.138623533484775 9.3567432920179758 1 0 0 I I #
edge $-1 $216 -9.3567432920179758 $301 9.3567432920179758 $213 $414 forward 7 unknown #
edge $-1 $217 -9.3567432920179758 $300 9.3567432920179758 $214 $415 forward 7 unknown #
point $-1 64.477065340128789 -39.138623533484775 9.3567432920179758 #
point $-1 64.477065340128789 39.138623533484775 9.3567432920179758 #
face $-1 $-1 $329 $31 $-1 $416 reversed single #
loop $-1 $-1 $335 $219 #
plane-surface $-1 0 0 9.3567432920179758 0 0 1 1 0 0 forward_v I I I I #
coedge $-1 $228 $417 $320 $418 forward $220 $-1 #
coedge $-1 $419 $222 $319 $418 reversed $135 $-1 #
coedge $-1 $222 $419 $335 $420 reversed $135 $-1 #
edge $-1 $336 -9.3567432920179758 $333 9.3567432920179758 $227 $421 forward 7 unknown #
coedge $-1 $417 $228 $223 $324 forward $220 $-1 #
edge $-1 $233 26.310348894763607 $330 34.21459392849799 $323 $422 forward 7 unknown #
coedge $-1 $230 $423 $224 $326 forward $317 $-1 #
edge $-1 $331 -34.21459392849799 $232 -26.310348894763607 $325 $424 forward 7 unknown #
coedge $-1 $425 $225 $423 $426 reversed $329 $-1 #
coedge $-1 $225 $425 $417 $427 reversed $329 $-1 #
loop $-1 $-1 $425 $316 #
vertex $-1 $427 $428 #
vertex $-1 $226 $429 #
straight-curve $-1 -64.477065340128789 -36.910080488203072 0 0 0 1 I I #
vertex $-1 $418 $430 #
straight-curve $-1 -56.572820306394405 -17.571236773354741 -9.3567432920179758 0 -1 0 I I #
coedge $-1 $423 $230 $321 $420 forward $317 $-1 #
vertex $-1 $420 $431 #
straight-curve $-1 -56.572820306394405 -17.571236773354741 9.3567432920179758 0 1 0 I I #
point $-1 -56.572820306394405 -36.910080488203072 9.3567432920179758 #
point $-1 -56.572820306394405 -36.910080488203072 -9.3567432920179758 #
loop $-1 $-1 $348 $235 #
plane-surface $-1 -56.572820306394405 -35.142473546709482 0 -1 0 0 0 0 1 forward_v I I I I #
coedge $-1 $246 $241 $432 $433 forward $236 $-1 #
coedge $-1 $243 $238 $347 $434 forward $143 $-1 #
coedge $-1 $238 $243 $246 $355 reversed $143 $-1 #
coedge $-1 $432 $348 $238 $346 reversed $340 $-1 #
edge $-1 $435 30.674239316168546 $436 39.36110637333632 $238 $437 forward 7 unknown #
coedge $-1 $240 $239 $343 $434 reversed $89 $-1 #
coedge $-1 $345 $432 $240 $349 forward $340 $-1 #
edge $-1 $350 -10.057589475943699 $436 0.96620293604187801 $348 $438 forward 7 unknown #
vertex $-1 $433 $439 #
straight-curve $-1 -24.001158494429976 -32.351699349906184 9.3567432920179758 -1 0 0 I I #
vertex $-1 $244 $440 #
straight-curve $-1 -39.4318136713255 -39.138623533484775 40.03098260818652 0 0 1 I I #
straight-curve $-1 -39.4318136713255 -39.138623533484747 0.66987623485023562 0 -0.61566146476048833 -0.78801076186113728 I I #
edge $-1 $435 -56.572820306394405 $247 -39.4318136713255 $344 $441 forward 7 unknown #
point $-1 -39.4318136713255 -39.138623533484775 9.3567432920179758 #
point $-1 -39.4318136713255 -32.351699349906177 9.3567432920179758 #
edge $-1 $442 1 $442 0 $250 $-1 forward 7 unknown #
vertex $-1 $251 $443 #
ellipse-curve $-1 -53.144618979380624 -32.919281789061024 2.8054906696075919 0 -0.78801076186113728 0.61566146476048833 1.5 0 0 1 I I #
point $-1 -51.644618979380624 -35.745161441695501 5.0133097634341102 #
edge $-1 $444 1 $444 0 $254 $-1 forward 7 unknown #
vertex $-1 $255 $445 #
ellipse-curve $-1 -48.002316988859953 -32.919281789061024 2.8054906696075919 0 -0.78801076186113728 0.61566146476048833 1.5 0 0 1 I I #
point $-1 -46.502316988859953 -35.745161441695501 5.0133097634341102 #
edge $-1 $446 1 $446 0 $258 $-1 forward 7 unknown #
vertex $-1 $259 $447 #
ellipse-curve $-1 -42.860014998339281 -32.919281789061024 2.8054906696075919 0 -0.78801076186113728 0.61566146476048833 1.5 0 0 1 I I #
point $-1 -41.360014998339281 -35.745161441695501 5.0133097634341102 #
loop $-1 $-1 $270 $262 #
plane-surface $-1 0 39.138623533484775 0 0 -1 0 0 0 -1 forward_v I I I I #
coedge $-1 $373 $265 $267 $377 reversed $172 $-1 #
coedge $-1 $265 $372 $448 $449 reversed $172 $-1 #
coedge $-1 $273 $268 $265 $375 forward $263 $-1 #
edge $-1 $378 -13.930091504746841 $450 -7.1431673211682636 $374 $451 forward 7 unknown #
coedge $-1 $267 $266 $381 $452 reversed $108 $-1 #
edge $-1 $453 -78.277247066969579 $378 -67.25345465498404 $372 $454 forward 7 unknown #
vertex $-1 $269 $455 #
straight-curve $-1 -24.001158494429976 32.351699349906205 9.3567432920179812 1 0 0 I I #
coedge $-1 $448 $270 $273 $385 reversed $370 $-1 #
coedge $-1 $270 $448 $376 $452 forward $370 $-1 #
vertex $-1 $271 $456 #
straight-curve $-1 -56.572820306394405 39.138623533484775 70.872639157004102 0 0 1 I I #
straight-curve $-1 -56.572820306394405 -9.0536610531843564 62.3531893324854 0 0.61566146476048833 -0.78801076186113728 I I #
edge $-1 $450 39.4318136713255 $274 56.572820306394405 $380 $457 forward 7 unknown #
point $-1 -56.572820306394405 39.138623533484775 9.3567432920179758 #
point $-1 -56.572820306394405 32.351699349906198 9.3567432920179741 #
edge $-1 $458 1 $458 0 $277 $-1 forward 7 unknown #
vertex $-1 $278 $459 #
ellipse-curve $-1 -53.144618979380624 32.919281789061039 2.8054906696075919 0 0.78801076186113728 0.61566146476048833 1.5 0 0 1 I I #
point $-1 -51.644618979380624 35.745161441695515 5.0133097634341102 #
edge $-1 $460 1 $460 0 $281 $-1 forward 7 unknown #
vertex $-1 $282 $461 #
ellipse-curve $-1 -48.002316988859953 32.919281789061039 2.8054906696075919 0 0.78801076186113728 0.61566146476048833 1.5 0 0 1 I I #
point $-1 -46.502316988859953 35.745161441695515 5.0133097634341102 #
edge $-1 $462 1 $462 0 $285 $-1 forward 7 unknown #
vertex $-1 $286 $463 #
ellipse-curve $-1 -42.860014998339281 32.919281789061039 2.8054906696075919 0 0.78801076186113728 0.61566146476048833 1.5 0 0 1 I I #
point $-1 -41.360014998339281 35.745161441695515 5.0133097634341102 #
plane-surface $-1 64.477065340128789 0 0 -1 0 0 0 0 1 forward_v I I I I #
coedge $-1 $294 $292 $296 $405 reversed $201 $-1 #
edge $-1 $307 -9.3567432920179758 $407 9.3567432920179758 $306 $464 forward 7 unknown #
vertex $-1 $405 $465 #
straight-curve $-1 -64.477065340128789 -39.138623533484775 0 0 0 -1 I I #
edge $-1 $403 -39.138623533484775 $407 39.138623533484775 $401 $466 forward 7 unknown #
straight-curve $-1 0 -39.138623533484775 -9.3567432920179758 -1 0 0 I I #
vertex $-1 $299 $467 #
straight-curve $-1 0 39.138623533484775 -9.3567432920179758 1 0 0 I I #
point $-1 64.477065340128789 39.138623533484775 -9.3567432920179758 #
point $-1 64.477065340128789 -39.138623533484775 -9.3567432920179758 #
straight-curve $-1 -64.477065340128789 0 9.3567432920179758 0 -1 0 I I #
point $-1 -64.477065340128789 39.138623533484775 9.3567432920179758 #
point $-1 -64.477065340128789 -39.138623533484775 9.3567432920179758 #
straight-curve $-1 64.477065340128789 -39.138623533484775 0 0 0 -1 I I #
straight-curve $-1 64.477065340128789 39.138623533484775 0 0 0 -1 I I #
plane-surface $-1 -64.477065340128789 0 0 1 0 0 0 0 -1 forward_v I I I I #
coedge $-1 $319 $323 $328 $427 forward $220 $-1 #
edge $-1 $468 -34.21459392849799 $333 -26.310348894763607 $319 $469 forward 7 unknown #
coedge $-1 $321 $320 $425 $470 reversed $135 $-1 #
edge $-1 $336 26.310348894763607 $471 34.21459392849799 $335 $472 forward 7 unknown #
straight-curve $-1 -56.572820306394405 -33.374866605215892 0 0 0 -1 I I #
straight-curve $-1 -30.262471411630798 -36.910080488203072 -9.3567432920179758 -1 0 0 I I #
coedge $-1 $325 $335 $327 $426 forward $317 $-1 #
straight-curve $-1 -30.262471411630798 -36.910080488203072 9.3567432920179758 1 0 0 I I #
coedge $-1 $328 $327 $419 $470 forward $329 $-1 #
edge $-1 $471 33.374866605215892 $331 36.910080488203072 $327 $473 forward 7 unknown #
edge $-1 $330 -36.910080488203072 $468 -33.374866605215892 $328 $474 forward 7 unknown #
point $-1 -64.477065340128789 -36.910080488203072 -9.3567432920179758 #
point $-1 -64.477065340128789 -36.910080488203072 9.3567432920179758 #
point $-1 -56.572820306394405 -33.374866605215892 -9.3567432920179758 #
point $-1 -56.572820306394405 -33.374866605215892 9.3567432920179758 #
coedge $-1 $348 $345 $342 $433 reversed $340 $-1 #
edge $-1 $350 -38.026233798081414 $435 -31.239309614502815 $342 $475 forward 7 unknown #
edge $-1 $436 -32.571661811964432 $352 -15.430655176895524 $343 $476 forward 7 unknown #
vertex $-1 $355 $477 #
vertex $-1 $346 $478 #
straight-curve $-1 -56.572820306394405 -39.138623533484775 40.03098260818652 0 0 -1 I I #
straight-curve $-1 -56.572820306394405 -38.543769618625348 1.4312545465930264 0 -0.61566146476048833 -0.78801076186113728 I I #
point $-1 -56.572820306394405 -32.351699349906177 9.3567432920179758 #
point $-1 -39.4318136713255 -39.138623533484775 0.6698762348501992 #
straight-curve $-1 0 -39.138623533484775 9.3567432920179758 1 0 0 I I #
vertex $-1 $358 $479 #
point $-1 -51.644618979380624 -32.919281789061024 2.8054906696075919 #
vertex $-1 $362 $480 #
point $-1 -46.502316988859953 -32.919281789061024 2.8054906696075919 #
vertex $-1 $366 $481 #
point $-1 -41.360014998339281 -32.919281789061024 2.8054906696075919 #
coedge $-1 $381 $380 $373 $449 forward $370 $-1 #
edge $-1 $450 61.515895864986128 $453 70.20276292215388 $448 $482 forward 7 unknown #
vertex $-1 $385 $483 #
straight-curve $-1 -39.4318136713255 46.281790854653039 9.3567432920179812 0 1 0 I I #
edge $-1 $453 15.430655176895524 $382 32.571661811964432 $381 $484 forward 7 unknown #
vertex $-1 $452 $485 #
straight-curve $-1 -39.4318136713255 -9.0536610531843564 62.3531893324854 0 -0.61566146476048833 0.78801076186113728 I I #
point $-1 -39.4318136713255 32.351699349906198 9.3567432920179741 #
point $-1 -56.572820306394405 39.138623533484775 0.66987623485022851 #
straight-curve $-1 0 39.138623533484775 9.3567432920179758 -1 0 0 I I #
vertex $-1 $388 $486 #
point $-1 -51.644618979380624 32.919281789061039 2.8054906696075919 #
vertex $-1 $392 $487 #
point $-1 -46.502316988859953 32.919281789061039 2.8054906696075919 #
vertex $-1 $396 $488 #
point $-1 -41.360014998339281 32.919281789061039 2.8054906696075919 #
straight-curve $-1 -64.477065340128789 39.138623533484775 0 0 0 -1 I I #
point $-1 -64.477065340128789 -39.138623533484775 -9.3567432920179758 #
straight-curve $-1 -64.477065340128789 0 -9.3567432920179758 0 1 0 I I #
point $-1 -64.477065340128789 39.138623533484775 -9.3567432920179758 #
vertex $-1 $470 $489 #
straight-curve $-1 -30.262471411630798 -33.374866605215892 -9.3567432920179758 1 0 0 I I #
edge $-1 $471 -9.3567432920179758 $468 9.3567432920179758 $425 $490 forward 7 unknown #
vertex $-1 $426 $491 #
straight-curve $-1 -30.262471411630798 -33.374866605215892 9.3567432920179758 -1 0 0 I I #
straight-curve $-1 -64.477065340128789 0 9.3567432920179758 0 -1 0 I I #
straight-curve $-1 -64.477065340128789 0 -9.3567432920179758 0 1 0 I I #
straight-curve $-1 -56.572820306394405 -70.377933147987591 9.3567432920179741 0 -1 0 I I #
straight-curve $-1 -24.001158494429976 -39.138623533484775 0.66987623485019554 1 0 0 I I #
point $-1 -56.572820306394405 -39.138623533484775 9.3567432920179758 #
point $-1 -56.572820306394405 -39.138623533484775 0.6698762348501992 #
point $-1 -53.144618979380624 -31.737265646269318 1.8819984724668593 #
point $-1 -48.002316988859953 -31.737265646269318 1.8819984724668593 #
point $-1 -42.860014998339281 -31.737265646269318 1.8819984724668593 #
straight-curve $-1 -39.4318136713255 39.138623533484775 70.872639157004102 0 0 -1 I I #
point $-1 -39.4318136713255 39.138623533484775 9.3567432920179758 #
straight-curve $-1 -24.001158494429976 39.138623533484775 0.66987623485021786 -1 0 0 I I #
point $-1 -39.4318136713255 39.138623533484775 0.66987623485022851 #
point $-1 -53.144618979380624 31.737265646269332 1.8819984724668593 #
point $-1 -48.002316988859953 31.737265646269332 1.8819984724668593 #
point $-1 -42.860014998339281 31.737265646269332 1.8819984724668593 #
point $-1 -64.477065340128789 -33.374866605215892 -9.3567432920179758 #
straight-curve $-1 -64.477065340128789 -33.374866605215892 0 0 0 -1 I I #
point $-1 -64.477065340128789 -33.374866605215892 9.3567432920179758 #
End-of-ACIS-data 