500 0 12 0           
7 Unknown 11 ACIS 5.0 NT 24 Fri Mar 26 15:49:40 1999 
-1 9.9999999999999995e-007 1e-010 
body $-1 $12 $-1 $13 #
body $-1 $14 $-1 $15 #
body $-1 $16 $-1 $17 #
body $-1 $18 $-1 $19 #
body $-1 $20 $-1 $21 #
body $-1 $22 $-1 $23 #
body $-1 $24 $-1 $25 #
body $-1 $26 $-1 $27 #
body $-1 $28 $-1 $29 #
body $-1 $30 $-1 $31 #
body $-1 $32 $-1 $33 #
body $-1 $34 $-1 $35 #
lump $-1 $-1 $36 $0 #
transform $-1 1 0 0 0 1 0 0 0 1 76.556291390728475 51.321943394430306 14.989509649140201 1 rotate no_reflect no_shear #
lump $-1 $-1 $37 $1 #
transform $-1 1 0 0 0 1 0 0 0 1 76.556291390728475 51.321943394430306 14.989509649140201 1 rotate no_reflect no_shear #
lump $-1 $-1 $38 $2 #
transform $-1 1 0 0 0 1 0 0 0 1 76.556291390728475 51.321943394430306 14.989509649140201 1 rotate no_reflect no_shear #
lump $-1 $-1 $39 $3 #
transform $-1 1 0 0 0 1 0 0 0 1 76.556291390728475 51.321943394430306 14.989509649140201 1 rotate no_reflect no_shear #
lump $-1 $-1 $40 $4 #
transform $-1 1 0 0 0 1 0 0 0 1 76.556291390728475 51.321943394430306 14.989509649140201 1 rotate no_reflect no_shear #
lump $-1 $-1 $41 $5 #
transform $-1 1 0 0 0 1 0 0 0 1 76.556291390728475 51.321943394430306 14.989509649140201 1 rotate no_reflect no_shear #
lump $-1 $-1 $42 $6 #
transform $-1 1 0 0 0 1 0 0 0 1 76.556291390728475 51.321943394430306 14.989509649140201 1 rotate no_reflect no_shear #
lump $-1 $-1 $43 $7 #
transform $-1 1 0 0 0 1 0 0 0 1 76.556291390728475 51.321943394430306 14.989509649140201 1 rotate no_reflect no_shear #
lump $-1 $-1 $44 $8 #
transform $-1 1 0 0 0 1 0 0 0 1 76.556291390728475 51.321943394430306 14.989509649140201 1 rotate no_reflect no_shear #
lump $-1 $-1 $45 $9 #
transform $-1 1 0 0 0 1 0 0 0 1 76.556291390728475 51.321943394430306 14.989509649140201 1 rotate no_reflect no_shear #
lump $-1 $-1 $46 $10 #
transform $-1 1 0 0 0 1 0 0 0 1 76.556291390728475 51.321943394430306 14.989509649140201 1 rotate no_reflect no_shear #
lump $-1 $-1 $47 $11 #
transform $-1 1 0 0 0 1 0 0 0 1 76.556291390728475 51.321943394430306 14.989509649140201 1 rotate no_reflect no_shear #
shell $-1 $-1 $-1 $48 $-1 $12 #
shell $-1 $-1 $-1 $49 $-1 $14 #
shell $-1 $-1 $-1 $50 $-1 $16 #
shell $-1 $-1 $-1 $51 $-1 $18 #
shell $-1 $-1 $-1 $52 $-1 $20 #
shell $-1 $-1 $-1 $53 $-1 $22 #
shell $-1 $-1 $-1 $54 $-1 $24 #
shell $-1 $-1 $-1 $55 $-1 $26 #
shell $-1 $-1 $-1 $56 $-1 $28 #
shell $-1 $-1 $-1 $57 $-1 $30 #
shell $-1 $-1 $-1 $58 $-1 $32 #
shell $-1 $-1 $-1 $59 $-1 $34 #
face $-1 $60 $61 $36 $-1 $62 forward single #
face $-1 $63 $64 $37 $-1 $65 forward single #
face $-1 $66 $67 $38 $-1 $68 reversed single #
face $-1 $69 $70 $39 $-1 $71 forward single #
face $-1 $72 $73 $40 $-1 $74 forward single #
face $-1 $75 $76 $41 $-1 $77 reversed single #
face $-1 $78 $79 $42 $-1 $80 forward single #
face $-1 $81 $82 $43 $-1 $83 forward single #
face $-1 $84 $85 $44 $-1 $86 reversed single #
face $-1 $87 $88 $45 $-1 $89 forward single #
face $-1 $90 $91 $46 $-1 $92 forward single #
face $-1 $93 $94 $47 $-1 $95 forward single #
face $-1 $96 $97 $36 $-1 $98 reversed single #
loop $-1 $-1 $99 $48 #
plane-surface $-1 0 0 14.989509649140201 0 0 1 1 0 0 forward_v I I I I #
face $-1 $100 $101 $37 $-1 $102 reversed single #
loop $-1 $-1 $103 $49 #
plane-surface $-1 0 -45.245462331437871 1.0493920604449203 0 0 1 1 0 0 forward_v I I I I #
face $-1 $104 $105 $38 $-1 $106 reversed single #
loop $-1 $-1 $107 $50 #
plane-surface $-1 -201.97877782791784 -39.168981268445435 90.890587584414121 0 1 0 -0.81915205242281985 0 0.57357642473473569 forward_v I I I I #
face $-1 $108 $109 $39 $-1 $110 forward single #
loop $-1 $111 $112 $51 #
cone-surface $-1 -71.363235372193643 -33.731966763187572 8.3152487487371509 0.81915205242281985 0 -0.57357642473473569 0.86036463710210354 0 1.2287280786342298 1 I I 0 1 1.5 forward I I I I #
face $-1 $113 $114 $40 $-1 $115 forward single #
loop $-1 $116 $117 $52 #
cone-surface $-1 -71.363235372193643 -25.576445005300791 8.3152487487371509 0.81915205242281985 0 -0.57357642473473569 0.86036463710210354 0 1.2287280786342298 1 I I 0 1 1.5 forward I I I I #
face $-1 $118 $119 $41 $-1 $120 reversed single #
loop $-1 $-1 $121 $53 #
plane-surface $-1 -201.97877782791784 6.0764810629924355 90.890587584414121 0 1 0 -0.81915205242281985 0 0.57357642473473569 forward_v I I I I #
face $-1 $122 $123 $42 $-1 $124 forward single #
loop $-1 $125 $126 $54 #
cone-surface $-1 -71.363235372193643 11.513495568250292 8.3152487487371509 0.81915205242281985 0 -0.57357642473473569 0.86036463710210354 0 1.2287280786342298 1 I I 0 1 1.5 forward I I I I #
face $-1 $127 $128 $43 $-1 $129 forward single #
loop $-1 $130 $131 $55 #
cone-surface $-1 -71.363235372193643 19.66901732613708 8.3152487487371509 0.81915205242281985 0 -0.57357642473473569 0.86036463710210354 0 1.2287280786342298 1 I I 0 1 1.5 forward I I I I #
face $-1 $132 $133 $44 $-1 $134 reversed single #
loop $-1 $-1 $135 $56 #
plane-surface $-1 61.451652982192073 3.9167718057218011 221.97318894765985 0 -1 0 -0.6560590369687036 0 -0.75470957328743171 forward_v I I I I #
face $-1 $136 $137 $45 $-1 $138 forward single #
loop $-1 $139 $140 $57 #
cone-surface $-1 71.038520823834233 -3.3233858947136383 10.100781700094558 -0.6560590369687036 0 -0.75470957328743171 0.37735478664371586 0 -0.3280295184843518 1 I I 0 1 0.5 forward I I I I #
face $-1 $141 $142 $46 $-1 $143 forward single #
loop $-1 $144 $145 $58 #
cone-surface $-1 71.038520823834233 -0.60832675705034944 10.100781700094558 -0.6560590369687036 0 -0.75470957328743171 0.37735478664371586 0 -0.3280295184843518 1 I I 0 1 0.5 forward I I I I #
face $-1 $146 $147 $47 $-1 $148 forward single #
loop $-1 $149 $150 $59 #
cone-surface $-1 71.038520823834233 2.1067323806129394 10.100781700094558 -0.6560590369687036 0 -0.75470957328743171 0.37735478664371586 0 -0.3280295184843518 1 I I 0 1 0.5 forward I I I I #
face $-1 $151 $152 $36 $-1 $153 reversed single #
loop $-1 $-1 $154 $60 #
plane-surface $-1 0 0 -14.989509649140201 0 0 1 1 0 0 forward_v I I I I #
coedge $-1 $155 $156 $157 $158 forward $61 $-1 #
face $-1 $159 $160 $37 $-1 $161 reversed single #
loop $-1 $-1 $162 $63 #
plane-surface $-1 0 -45.245462331437871 -6.3527276219409439 0 0 1 1 0 0 forward_v I I I I #
coedge $-1 $163 $164 $165 $166 reversed $64 $-1 #
face $-1 $167 $168 $38 $-1 $169 reversed single #
loop $-1 $-1 $170 $66 #
plane-surface $-1 -76.556291390728475 -29.654205884244185 3.0688197707247866 -0.81915205242281985 0 0.57357642473473569 0.57357642473473569 0 0.81915205242281985 forward_v I I I I #
coedge $-1 $171 $172 $173 $174 reversed $67 $-1 #
face $-1 $-1 $175 $39 $-1 $176 forward single #
loop $-1 $177 $178 $69 #
cone-surface $-1 -69.729293645141141 -33.731966763187572 7.1711504689907617 0.81915205242281985 0 -0.57357642473473569 0.43018231855105177 0 0.61436403931711492 1 I I -0.70710678118654757 0.70710678118654757 0.75 forward I I I I #
loop $-1 $-1 $179 $51 #
coedge $-1 $112 $112 $180 $181 reversed $70 $-1 #
face $-1 $-1 $182 $40 $-1 $183 forward single #
loop $-1 $184 $185 $72 #
cone-surface $-1 -69.729293645141141 -25.576445005300791 7.1711504689907617 0.81915205242281985 0 -0.57357642473473569 0.43018231855105177 0 0.61436403931711492 1 I I -0.70710678118654757 0.70710678118654757 0.75 forward I I I I #
loop $-1 $-1 $186 $52 #
coedge $-1 $117 $117 $187 $188 reversed $73 $-1 #
face $-1 $189 $190 $41 $-1 $191 reversed single #
loop $-1 $-1 $192 $75 #
plane-surface $-1 -76.556291390728475 15.591256447193686 3.0688197707247866 -0.81915205242281985 0 0.57357642473473569 0.57357642473473569 0 0.81915205242281985 forward_v I I I I #
coedge $-1 $193 $194 $195 $196 reversed $76 $-1 #
face $-1 $-1 $197 $42 $-1 $198 forward single #
loop $-1 $199 $200 $78 #
cone-surface $-1 -69.729293645141141 11.513495568250292 7.1711504689907617 0.81915205242281985 0 -0.57357642473473569 0.43018231855105177 0 0.61436403931711492 1 I I -0.70710678118654757 0.70710678118654757 0.75 forward I I I I #
loop $-1 $-1 $201 $54 #
coedge $-1 $126 $126 $202 $203 reversed $79 $-1 #
face $-1 $-1 $204 $43 $-1 $205 forward single #
loop $-1 $206 $207 $81 #
cone-surface $-1 -69.729293645141141 19.66901732613708 7.1711504689907617 0.81915205242281985 0 -0.57357642473473569 0.43018231855105177 0 0.61436403931711492 1 I I -0.70710678118654757 0.70710678118654757 0.75 forward I I I I #
loop $-1 $-1 $208 $55 #
coedge $-1 $131 $131 $209 $210 reversed $82 $-1 #
face $-1 $211 $212 $44 $-1 $213 reversed single #
loop $-1 $-1 $214 $84 #
plane-surface $-1 -38.99924062520148 -0.60832675705034944 106.41765693172991 0.6560590369687036 0 0.75470957328743171 0.75470957328743171 0 -0.6560590369687036 forward_v I I I I #
coedge $-1 $215 $216 $217 $218 reversed $85 $-1 #
face $-1 $-1 $219 $45 $-1 $220 forward single #
loop $-1 $221 $222 $87 #
cone-surface $-1 70.546476546107712 -3.3233858947136383 9.5347495201289849 -0.6560590369687036 0 -0.75470957328743171 0.18867739332185793 0 -0.1640147592421759 1 I I -0.70710678118654746 0.70710678118654746 0.25 forward I I I I #
loop $-1 $-1 $223 $57 #
coedge $-1 $140 $140 $224 $225 reversed $88 $-1 #
face $-1 $-1 $226 $46 $-1 $227 forward single #
loop $-1 $228 $229 $90 #
cone-surface $-1 70.546476546107712 -0.60832675705034944 9.5347495201289849 -0.6560590369687036 0 -0.75470957328743171 0.18867739332185793 0 -0.1640147592421759 1 I I -0.70710678118654746 0.70710678118654746 0.25 forward I I I I #
loop $-1 $-1 $230 $58 #
coedge $-1 $145 $145 $231 $232 reversed $91 $-1 #
face $-1 $-1 $233 $47 $-1 $234 forward single #
loop $-1 $235 $236 $93 #
cone-surface $-1 70.546476546107712 2.1067323806129394 9.5347495201289849 -0.6560590369687036 0 -0.75470957328743171 0.18867739332185793 0 -0.1640147592421759 1 I I -0.70710678118654746 0.70710678118654746 0.25 forward I I I I #
loop $-1 $-1 $237 $59 #
coedge $-1 $150 $150 $238 $239 reversed $94 $-1 #
face $-1 $240 $241 $36 $-1 $242 reversed single #
loop $-1 $-1 $243 $96 #
plane-surface $-1 0 -51.321943394430306 0 0 1 0 0 0 1 forward_v I I I I #
coedge $-1 $244 $245 $246 $247 forward $97 $-1 #
coedge $-1 $248 $99 $249 $250 forward $61 $-1 #
coedge $-1 $99 $248 $251 $252 forward $61 $-1 #
coedge $-1 $253 $254 $99 $158 reversed $255 $-1 #
edge $-1 $256 -51.321943394430306 $257 51.321943394430306 $157 $258 forward 7 unknown #
face $-1 $259 $260 $37 $-1 $261 reversed single #
loop $-1 $-1 $262 $100 #
plane-surface $-1 0 -39.168981268445435 -2.6516677807480118 0 -1 0 0 0 -1 forward_v I I I I #
coedge $-1 $263 $264 $265 $266 reversed $101 $-1 #
coedge $-1 $267 $103 $268 $269 forward $64 $-1 #
coedge $-1 $103 $267 $270 $271 reversed $64 $-1 #
coedge $-1 $272 $273 $103 $166 forward $274 $-1 #
edge $-1 $275 16.5462501027265 $276 28.699212228711371 $165 $277 forward 7 unknown #
face $-1 $278 $279 $38 $-1 $280 reversed single #
loop $-1 $-1 $281 $104 #
plane-surface $-1 -201.97877782791784 -20.139430500042934 90.890587584414121 0 -1 0 0.81915205242281985 0 -0.57357642473473569 forward_v I I I I #
coedge $-1 $282 $283 $284 $285 reversed $105 $-1 #
coedge $-1 $172 $107 $286 $287 reversed $67 $-1 #
coedge $-1 $107 $171 $282 $288 reversed $67 $-1 #
coedge $-1 $284 $289 $107 $174 forward $290 $-1 #
edge $-1 $291 24.433097523230444 $292 32.780054184829339 $173 $293 forward 7 unknown #
loop $-1 $-1 $180 $108 #
plane-surface $-1 -76.556291390728475 -29.654205884244185 3.0688197707247866 -0.81915205242281985 0 0.57357642473473569 0.57357642473473569 0 0.81915205242281985 forward_v I I I I #
loop $-1 $-1 $294 $69 #
coedge $-1 $178 $178 $179 $295 reversed $109 $-1 #
coedge $-1 $179 $179 $178 $295 forward $111 $-1 #
coedge $-1 $180 $180 $112 $181 forward $175 $-1 #
edge $-1 $296 0 $296 6.2831853071796004 $180 $297 forward 7 unknown #
loop $-1 $-1 $187 $113 #
plane-surface $-1 -76.556291390728475 -29.654205884244185 3.0688197707247866 -0.81915205242281985 0 0.57357642473473569 0.57357642473473569 0 0.81915205242281985 forward_v I I I I #
loop $-1 $-1 $298 $72 #
coedge $-1 $185 $185 $186 $299 reversed $114 $-1 #
coedge $-1 $186 $186 $185 $299 forward $116 $-1 #
coedge $-1 $187 $187 $117 $188 forward $182 $-1 #
edge $-1 $300 0 $300 6.2831853071796004 $187 $301 forward 7 unknown #
face $-1 $302 $303 $41 $-1 $304 forward single #
loop $-1 $-1 $305 $118 #
plane-surface $-1 -201.97877782791784 25.106031831394937 90.890587584414121 0 -1 0 0.81915205242281985 0 -0.57357642473473569 forward_v I I I I #
coedge $-1 $306 $307 $308 $309 reversed $119 $-1 #
coedge $-1 $194 $121 $310 $311 reversed $76 $-1 #
coedge $-1 $121 $193 $306 $312 reversed $76 $-1 #
coedge $-1 $308 $313 $121 $196 forward $303 $-1 #
edge $-1 $314 24.433097523230444 $315 32.780054184829339 $195 $316 forward 7 unknown #
loop $-1 $-1 $202 $122 #
plane-surface $-1 -76.556291390728475 15.591256447193686 3.0688197707247866 -0.81915205242281985 0 0.57357642473473569 0.57357642473473569 0 0.81915205242281985 forward_v I I I I #
loop $-1 $-1 $317 $78 #
coedge $-1 $200 $200 $201 $318 reversed $123 $-1 #
coedge $-1 $201 $201 $200 $318 forward $125 $-1 #
coedge $-1 $202 $202 $126 $203 forward $197 $-1 #
edge $-1 $319 0 $319 6.2831853071796004 $202 $320 forward 7 unknown #
loop $-1 $-1 $209 $127 #
plane-surface $-1 -76.556291390728475 15.591256447193686 3.0688197707247866 -0.81915205242281985 0 0.57357642473473569 0.57357642473473569 0 0.81915205242281985 forward_v I I I I #
loop $-1 $-1 $321 $81 #
coedge $-1 $207 $207 $208 $322 reversed $128 $-1 #
coedge $-1 $208 $208 $207 $322 forward $130 $-1 #
coedge $-1 $209 $209 $131 $210 forward $204 $-1 #
edge $-1 $323 0 $323 6.2831853071796004 $209 $324 forward 7 unknown #
face $-1 $325 $326 $44 $-1 $327 forward single #
loop $-1 $-1 $328 $132 #
plane-surface $-1 61.451652982192073 -5.1334253198224999 221.97318894765985 0 1 0 0.6560590369687036 0 0.75470957328743171 forward_v I I I I #
coedge $-1 $329 $330 $331 $332 reversed $133 $-1 #
coedge $-1 $216 $135 $333 $334 reversed $85 $-1 #
coedge $-1 $135 $215 $329 $335 reversed $85 $-1 #
coedge $-1 $331 $336 $135 $218 forward $326 $-1 #
edge $-1 $337 -45.830464899632439 $338 -35.450982802812696 $217 $339 forward 7 unknown #
loop $-1 $-1 $224 $136 #
plane-surface $-1 -38.99924062520148 -0.60832675705034944 106.41765693172991 0.6560590369687036 0 0.75470957328743171 0.75470957328743171 0 -0.6560590369687036 forward_v I I I I #
loop $-1 $-1 $340 $87 #
coedge $-1 $222 $222 $223 $341 reversed $137 $-1 #
coedge $-1 $223 $223 $222 $341 forward $139 $-1 #
coedge $-1 $224 $224 $140 $225 forward $219 $-1 #
edge $-1 $342 0 $342 6.2831853071796004 $224 $343 forward 7 unknown #
loop $-1 $-1 $231 $141 #
plane-surface $-1 -38.99924062520148 -0.60832675705034944 106.41765693172991 0.6560590369687036 0 0.75470957328743171 0.75470957328743171 0 -0.6560590369687036 forward_v I I I I #
loop $-1 $-1 $344 $90 #
coedge $-1 $229 $229 $230 $345 reversed $142 $-1 #
coedge $-1 $230 $230 $229 $345 forward $144 $-1 #
coedge $-1 $231 $231 $145 $232 forward $226 $-1 #
edge $-1 $346 0 $346 6.2831853071796004 $231 $347 forward 7 unknown #
loop $-1 $-1 $238 $146 #
plane-surface $-1 -38.99924062520148 -0.60832675705034944 106.41765693172991 0.6560590369687036 0 0.75470957328743171 0.75470957328743171 0 -0.6560590369687036 forward_v I I I I #
loop $-1 $-1 $348 $93 #
coedge $-1 $236 $236 $237 $349 reversed $147 $-1 #
coedge $-1 $237 $237 $236 $349 forward $149 $-1 #
coedge $-1 $238 $238 $150 $239 forward $233 $-1 #
edge $-1 $350 0 $350 6.2831853071796004 $238 $351 forward 7 unknown #
face $-1 $352 $353 $36 $-1 $354 reversed single #
loop $-1 $-1 $355 $151 #
plane-surface $-1 -76.556291390728475 0 0 1 0 0 0 0 -1 forward_v I I I I #
coedge $-1 $356 $251 $357 $358 forward $152 $-1 #
coedge $-1 $359 $154 $356 $360 forward $97 $-1 #
coedge $-1 $154 $359 $361 $362 forward $97 $-1 #
coedge $-1 $254 $253 $154 $247 reversed $255 $-1 #
edge $-1 $363 -51.321943394430306 $364 51.321943394430306 $246 $365 forward 7 unknown #
coedge $-1 $156 $155 $366 $367 forward $61 $-1 #
coedge $-1 $368 $369 $155 $250 reversed $353 $-1 #
edge $-1 $257 -76.556291390728475 $370 76.556291390728475 $249 $371 forward 7 unknown #
coedge $-1 $243 $372 $156 $252 reversed $152 $-1 #
edge $-1 $373 -76.556291390728475 $256 76.556291390728475 $251 $374 forward 7 unknown #
coedge $-1 $246 $157 $372 $375 forward $255 $-1 #
coedge $-1 $157 $246 $368 $376 reversed $255 $-1 #
loop $-1 $-1 $253 $352 #
vertex $-1 $158 $377 #
vertex $-1 $158 $378 #
straight-curve $-1 76.556291390728475 0 14.989509649140201 0 1 0 I I #
face $-1 $379 $380 $37 $-1 $381 reversed single #
loop $-1 $-1 $382 $159 #
plane-surface $-1 -76.556291390728475 0 0 1 0 0 0 0 -1 forward_v I I I I #
coedge $-1 $383 $268 $273 $384 reversed $160 $-1 #
coedge $-1 $385 $162 $386 $387 reversed $101 $-1 #
coedge $-1 $162 $385 $383 $388 forward $101 $-1 #
coedge $-1 $273 $272 $162 $266 forward $274 $-1 #
edge $-1 $389 -28.699212228711371 $390 -16.5462501027265 $265 $391 forward 7 unknown #
coedge $-1 $164 $163 $382 $392 reversed $64 $-1 #
coedge $-1 $262 $393 $163 $269 reversed $160 $-1 #
edge $-1 $275 -76.556291390728475 $394 76.556291390728475 $268 $395 forward 7 unknown #
coedge $-1 $396 $397 $164 $271 forward $380 $-1 #
edge $-1 $276 -76.556291390728475 $398 76.556291390728475 $270 $399 forward 7 unknown #
coedge $-1 $265 $165 $397 $400 forward $274 $-1 #
coedge $-1 $165 $265 $262 $384 forward $274 $-1 #
loop $-1 $-1 $165 $379 #
vertex $-1 $166 $401 #
vertex $-1 $400 $402 #
straight-curve $-1 76.556291390728475 -22.622731165718935 1.0493920604449203 0 -1 0 I I #
face $-1 $-1 $290 $38 $-1 $403 forward single #
loop $-1 $-1 $404 $167 #
plane-surface $-1 -76.556291390728475 0 0 1 0 0 0 0 -1 forward_v I I I I #
coedge $-1 $405 $406 $407 $408 reversed $168 $-1 #
coedge $-1 $409 $170 $172 $288 forward $105 $-1 #
coedge $-1 $170 $409 $405 $410 forward $105 $-1 #
coedge $-1 $407 $173 $170 $285 forward $290 $-1 #
edge $-1 $292 -24.341878326323343 $411 -5.3123275579208418 $284 $412 forward 7 unknown #
coedge $-1 $413 $414 $171 $287 forward $279 $-1 #
edge $-1 $415 -42.376474021482274 $291 -30.455784143066857 $286 $416 forward 7 unknown #
edge $-1 $292 -14.5524751395756 $415 0 $172 $417 forward 7 unknown #
coedge $-1 $173 $407 $413 $418 forward $290 $-1 #
loop $-1 $-1 $407 $278 #
vertex $-1 $287 $419 #
vertex $-1 $174 $420 #
straight-curve $-1 -100.98938891395892 -39.168981268445435 14.989509649140203 1 0 0 I I #
coedge $-1 $294 $294 $-1 $421 reversed $177 $-1 #
edge $-1 $422 0 $422 6.2831853071796004 $178 $423 forward 7 unknown #
vertex $-1 $181 $424 #
ellipse-curve $-1 -72.382813059929035 -33.731966763187572 9.0291647099324894 -0.81915205242281985 0 0.57357642473473569 0.86036463710210354 0 1.2287280786342298 1 I I #
coedge $-1 $298 $298 $-1 $425 reversed $184 $-1 #
edge $-1 $426 0 $426 6.2831853071796004 $185 $427 forward 7 unknown #
vertex $-1 $188 $428 #
ellipse-curve $-1 -72.382813059929035 -25.576445005300791 9.0291647099324894 -0.81915205242281985 0 0.57357642473473569 0.86036463710210354 0 1.2287280786342298 1 I I #
face $-1 $-1 $429 $41 $-1 $430 reversed single #
loop $-1 $-1 $195 $189 #
plane-surface $-1 0 0 14.989509649140201 0 0 1 1 0 0 forward_v I I I I #
coedge $-1 $431 $432 $433 $434 reversed $190 $-1 #
coedge $-1 $435 $192 $194 $312 forward $119 $-1 #
coedge $-1 $192 $435 $431 $436 forward $119 $-1 #
coedge $-1 $433 $195 $192 $309 forward $303 $-1 #
edge $-1 $315 -1.7191471606044075 $437 17.310403607798094 $308 $438 forward 7 unknown #
coedge $-1 $439 $440 $193 $311 forward $429 $-1 #
edge $-1 $441 -42.376474021482274 $314 -30.455784143066857 $310 $442 forward 7 unknown #
edge $-1 $315 -14.5524751395756 $441 0 $194 $443 forward 7 unknown #
coedge $-1 $195 $433 $439 $444 forward $303 $-1 #
vertex $-1 $196 $445 #
vertex $-1 $196 $446 #
straight-curve $-1 -100.98938891395892 6.0764810629924355 14.989509649140203 1 0 0 I I #
coedge $-1 $317 $317 $-1 $447 reversed $199 $-1 #
edge $-1 $448 0 $448 6.2831853071796004 $200 $449 forward 7 unknown #
vertex $-1 $203 $450 #
ellipse-curve $-1 -72.382813059929035 11.513495568250292 9.0291647099324894 -0.81915205242281985 0 0.57357642473473569 0.86036463710210354 0 1.2287280786342298 1 I I #
coedge $-1 $321 $321 $-1 $451 reversed $206 $-1 #
edge $-1 $452 0 $452 6.2831853071796004 $207 $453 forward 7 unknown #
vertex $-1 $210 $454 #
ellipse-curve $-1 -72.382813059929035 19.66901732613708 9.0291647099324894 -0.81915205242281985 0 0.57357642473473569 0.86036463710210354 0 1.2287280786342298 1 I I #
face $-1 $-1 $455 $44 $-1 $456 reversed single #
loop $-1 $-1 $217 $211 #
plane-surface $-1 0 0 14.989509649140201 0 0 1 1 0 0 forward_v I I I I #
coedge $-1 $457 $458 $459 $460 reversed $212 $-1 #
coedge $-1 $461 $214 $216 $335 forward $133 $-1 #
coedge $-1 $214 $461 $457 $462 forward $133 $-1 #
coedge $-1 $459 $217 $214 $332 forward $326 $-1 #
edge $-1 $338 -4.2209351842469758 $463 4.8292619412973252 $331 $464 forward 7 unknown #
coedge $-1 $465 $466 $215 $334 forward $455 $-1 #
edge $-1 $467 -105.0198311494936 $337 -95.997084824689722 $333 $468 forward 7 unknown #
edge $-1 $338 139.35963401255788 $467 153.11258278145698 $216 $469 forward 7 unknown #
coedge $-1 $217 $459 $465 $470 forward $326 $-1 #
vertex $-1 $334 $471 #
vertex $-1 $218 $472 #
straight-curve $-1 30.725826491096036 3.9167718057218011 14.989509649140203 -1 0 0 I I #
coedge $-1 $340 $340 $-1 $473 reversed $221 $-1 #
edge $-1 $474 0 $474 6.2831853071796004 $222 $475 forward 7 unknown #
vertex $-1 $225 $476 #
ellipse-curve $-1 71.36655034231859 -3.3233858947136383 10.478136486738284 0.6560590369687036 0 0.75470957328743171 0.37735478664371586 0 -0.3280295184843518 1 I I #
coedge $-1 $344 $344 $-1 $477 reversed $228 $-1 #
edge $-1 $478 0 $478 6.2831853071796004 $229 $479 forward 7 unknown #
vertex $-1 $232 $480 #
ellipse-curve $-1 71.36655034231859 -0.60832675705034944 10.478136486738284 0.6560590369687036 0 0.75470957328743171 0.37735478664371586 0 -0.3280295184843518 1 I I #
coedge $-1 $348 $348 $-1 $481 reversed $235 $-1 #
edge $-1 $482 0 $482 6.2831853071796004 $236 $483 forward 7 unknown #
vertex $-1 $239 $484 #
ellipse-curve $-1 71.36655034231859 2.1067323806129394 10.478136486738284 0.6560590369687036 0 0.75470957328743171 0.37735478664371586 0 -0.3280295184843518 1 I I #
face $-1 $-1 $255 $36 $-1 $485 reversed single #
loop $-1 $-1 $368 $240 #
plane-surface $-1 0 51.321943394430306 0 0 -1 0 0 0 -1 forward_v I I I I #
coedge $-1 $486 $366 $369 $487 forward $241 $-1 #
coedge $-1 $372 $243 $244 $360 reversed $152 $-1 #
coedge $-1 $366 $486 $243 $358 reversed $241 $-1 #
edge $-1 $373 -14.989509649140201 $488 14.989509649140201 $357 $489 forward 7 unknown #
coedge $-1 $245 $244 $486 $490 forward $97 $-1 #
edge $-1 $364 -76.556291390728475 $488 76.556291390728475 $356 $491 forward 7 unknown #
coedge $-1 $369 $368 $245 $362 reversed $353 $-1 #
edge $-1 $492 -76.556291390728475 $363 76.556291390728475 $361 $493 forward 7 unknown #
vertex $-1 $247 $494 #
vertex $-1 $375 $495 #
straight-curve $-1 76.556291390728475 0 -14.989509649140201 0 -1 0 I I #
coedge $-1 $355 $357 $248 $367 reversed $241 $-1 #
edge $-1 $370 -51.321943394430306 $373 51.321943394430306 $366 $496 forward 7 unknown #
coedge $-1 $361 $249 $254 $376 forward $353 $-1 #
coedge $-1 $249 $361 $355 $487 reversed $353 $-1 #
vertex $-1 $250 $497 #
straight-curve $-1 0 51.321943394430306 14.989509649140201 -1 0 0 I I #
coedge $-1 $251 $356 $253 $375 reversed $152 $-1 #
vertex $-1 $367 $498 #
straight-curve $-1 0 -51.321943394430306 14.989509649140201 1 0 0 I I #
edge $-1 $256 -14.989509649140201 $364 14.989509649140201 $253 $499 forward 7 unknown #
edge $-1 $257 -14.989509649140201 $363 14.989509649140201 $254 $500 forward 7 unknown #
point $-1 76.556291390728475 -51.321943394430306 14.989509649140201 #
point $-1 76.556291390728475 51.321943394430306 14.989509649140201 #
face $-1 $-1 $274 $37 $-1 $501 reversed single #
loop $-1 $-1 $270 $259 #
plane-surface $-1 0 -51.321943394430306 0 0 1 0 0 0 1 forward_v I I I I #
coedge $-1 $502 $503 $267 $392 forward $260 $-1 #
coedge $-1 $393 $262 $264 $388 reversed $160 $-1 #
edge $-1 $390 -5.026893731566938 $275 2.3752259508189262 $273 $504 forward 7 unknown #
coedge $-1 $264 $263 $505 $506 reversed $101 $-1 #
coedge $-1 $397 $396 $263 $387 forward $380 $-1 #
edge $-1 $507 -76.556291390728475 $389 76.556291390728475 $386 $508 forward 7 unknown #
edge $-1 $509 -76.556291390728475 $390 76.556291390728475 $383 $510 forward 7 unknown #
vertex $-1 $387 $511 #
vertex $-1 $266 $512 #
straight-curve $-1 76.556291390728475 -22.622731165718935 -6.3527276219409439 0 1 0 I I #
edge $-1 $398 -28.699212228711371 $394 -16.5462501027265 $382 $513 forward 7 unknown #
coedge $-1 $268 $383 $502 $514 reversed $160 $-1 #
vertex $-1 $392 $515 #
straight-curve $-1 0 -39.168981268445435 1.0493920604449203 -1 0 0 I I #
coedge $-1 $386 $270 $503 $516 forward $380 $-1 #
coedge $-1 $270 $386 $272 $400 reversed $380 $-1 #
vertex $-1 $516 $517 #
straight-curve $-1 0 -51.321943394430306 1.0493920604449203 -1 0 0 I I #
edge $-1 $276 -1.0493920604449203 $389 6.3527276219409439 $272 $518 forward 7 unknown #
point $-1 76.556291390728475 -39.168981268445435 1.0493920604449203 #
point $-1 76.556291390728475 -51.321943394430306 1.0493920604449203 #
plane-surface $-1 0 0 14.989509649140201 0 0 1 1 0 0 forward_v I I I I #
coedge $-1 $414 $413 $406 $519 forward $279 $-1 #
coedge $-1 $406 $281 $283 $410 reversed $168 $-1 #
coedge $-1 $281 $405 $404 $519 reversed $168 $-1 #
coedge $-1 $289 $284 $281 $408 forward $290 $-1 #
edge $-1 $411 -32.780054184829339 $520 -24.433097523230444 $407 $521 forward 7 unknown #
coedge $-1 $283 $282 $414 $522 reversed $105 $-1 #
edge $-1 $523 0 $411 14.5524751395756 $405 $524 forward 7 unknown #
vertex $-1 $285 $525 #
straight-curve $-1 -68.20933472912958 -14.827102942122092 14.989509649140201 0 1 0 I I #
coedge $-1 $404 $286 $289 $418 reversed $279 $-1 #
coedge $-1 $286 $404 $409 $522 forward $279 $-1 #
vertex $-1 $287 $526 #
straight-curve $-1 -76.556291390728475 -39.168981268445435 45.44529379220706 0 0 1 I I #
straight-curve $-1 -76.556291390728475 -39.168981268445435 3.0688197707247866 -0.57357642473473569 0 -0.81915205242281985 I I #
edge $-1 $520 20.139430500042934 $291 39.168981268445435 $413 $527 forward 7 unknown #
point $-1 -76.556291390728475 -39.168981268445435 14.989509649140201 #
point $-1 -68.20933472912958 -39.168981268445435 14.989509649140201 #
edge $-1 $528 1 $528 0 $294 $-1 forward 7 unknown #
vertex $-1 $295 $529 #
ellipse-curve $-1 -70.34365768445825 -33.731966763187572 7.6013327875418133 -0.81915205242281985 0 0.57357642473473569 0.86036463710210354 0 1.2287280786342298 1 I I #
point $-1 -71.522448422826926 -33.731966763187572 10.257892788566719 #
edge $-1 $530 1 $530 0 $298 $-1 forward 7 unknown #
vertex $-1 $299 $531 #
ellipse-curve $-1 -70.34365768445825 -25.576445005300791 7.6013327875418133 -0.81915205242281985 0 0.57357642473473569 0.86036463710210354 0 1.2287280786342298 1 I I #
point $-1 -71.522448422826926 -25.576445005300791 10.257892788566719 #
loop $-1 $-1 $310 $302 #
plane-surface $-1 -76.556291390728475 0 0 1 0 0 0 0 -1 forward_v I I I I #
coedge $-1 $432 $305 $307 $436 reversed $190 $-1 #
coedge $-1 $305 $431 $532 $533 reversed $190 $-1 #
coedge $-1 $313 $308 $305 $434 forward $303 $-1 #
edge $-1 $437 -32.780054184829339 $534 -24.433097523230444 $433 $535 forward 7 unknown #
coedge $-1 $307 $306 $440 $536 reversed $119 $-1 #
edge $-1 $537 0 $437 14.5524751395756 $431 $538 forward 7 unknown #
vertex $-1 $309 $539 #
straight-curve $-1 -68.20933472912958 7.795628223596843 14.989509649140201 0 1 0 I I #
coedge $-1 $532 $310 $313 $444 reversed $429 $-1 #
coedge $-1 $310 $532 $435 $536 forward $429 $-1 #
vertex $-1 $311 $540 #
straight-curve $-1 -76.556291390728475 6.0764810629924355 45.44529379220706 0 0 1 I I #
straight-curve $-1 -76.556291390728475 6.0764810629924355 3.0688197707247866 -0.57357642473473569 0 -0.81915205242281985 I I #
edge $-1 $534 -25.106031831394937 $314 -6.0764810629924355 $439 $541 forward 7 unknown #
point $-1 -76.556291390728475 6.0764810629924355 14.989509649140201 #
point $-1 -68.20933472912958 6.0764810629924355 14.989509649140201 #
edge $-1 $542 1 $542 0 $317 $-1 forward 7 unknown #
vertex $-1 $318 $543 #
ellipse-curve $-1 -70.34365768445825 11.513495568250292 7.6013327875418133 -0.81915205242281985 0 0.57357642473473569 0.86036463710210354 0 1.2287280786342298 1 I I #
point $-1 -71.522448422826926 11.513495568250292 10.257892788566719 #
edge $-1 $544 1 $544 0 $321 $-1 forward 7 unknown #
vertex $-1 $322 $545 #
ellipse-curve $-1 -70.34365768445825 19.66901732613708 7.6013327875418133 -0.81915205242281985 0 0.57357642473473569 0.86036463710210354 0 1.2287280786342298 1 I I #
point $-1 -71.522448422826926 19.66901732613708 10.257892788566719 #
loop $-1 $-1 $333 $325 #
plane-surface $-1 76.556291390728475 0 0 -1 0 0 0 0 1 forward_v I I I I #
coedge $-1 $458 $328 $330 $462 reversed $212 $-1 #
coedge $-1 $328 $457 $546 $547 reversed $212 $-1 #
coedge $-1 $336 $331 $328 $460 forward $326 $-1 #
edge $-1 $463 35.450982802812696 $548 45.830464899632439 $459 $549 forward 7 unknown #
coedge $-1 $330 $329 $466 $550 reversed $133 $-1 #
edge $-1 $551 -153.11258278145698 $463 -139.35963401255788 $457 $552 forward 7 unknown #
vertex $-1 $332 $553 #
straight-curve $-1 66.176809293908704 -0.30416337852517472 14.98950964914021 0 -1 0 I I #
coedge $-1 $546 $333 $336 $470 reversed $455 $-1 #
coedge $-1 $333 $546 $461 $550 forward $455 $-1 #
vertex $-1 $334 $554 #
straight-curve $-1 76.556291390728475 3.9167718057218011 110.98659447382992 0 0 1 I I #
straight-curve $-1 -38.99924062520148 3.9167718057218011 106.41765693172991 0.75470957328743171 0 -0.6560590369687036 I I #
edge $-1 $548 -5.1334253198224999 $337 3.9167718057218011 $465 $555 forward 7 unknown #
point $-1 76.556291390728475 3.9167718057218011 14.989509649140201 #
point $-1 66.176809293908732 3.9167718057218011 14.989509649140203 #
edge $-1 $556 1 $556 0 $340 $-1 forward 7 unknown #
vertex $-1 $341 $557 #
ellipse-curve $-1 70.71049130534989 -3.3233858947136383 9.723426913450842 0.6560590369687036 0 0.75470957328743171 0.37735478664371586 0 -0.3280295184843518 1 I I #
point $-1 71.743905128962311 -3.3233858947136383 10.150106968253922 #
edge $-1 $558 1 $558 0 $344 $-1 forward 7 unknown #
vertex $-1 $345 $559 #
ellipse-curve $-1 70.71049130534989 -0.60832675705034944 9.723426913450842 0.6560590369687036 0 0.75470957328743171 0.37735478664371586 0 -0.3280295184843518 1 I I #
point $-1 71.743905128962311 -0.60832675705034944 10.150106968253922 #
edge $-1 $560 1 $560 0 $348 $-1 forward 7 unknown #
vertex $-1 $349 $561 #
ellipse-curve $-1 70.71049130534989 2.1067323806129394 9.723426913450842 0.6560590369687036 0 0.75470957328743171 0.37735478664371586 0 -0.3280295184843518 1 I I #
point $-1 71.743905128962311 2.1067323806129394 10.150106968253922 #
plane-surface $-1 76.556291390728475 0 0 -1 0 0 0 0 1 forward_v I I I I #
coedge $-1 $357 $355 $359 $490 reversed $241 $-1 #
edge $-1 $370 -14.989509649140201 $492 14.989509649140201 $369 $562 forward 7 unknown #
vertex $-1 $490 $563 #
straight-curve $-1 -76.556291390728475 -51.321943394430306 0 0 0 -1 I I #
edge $-1 $488 -51.321943394430306 $492 51.321943394430306 $486 $564 forward 7 unknown #
straight-curve $-1 0 -51.321943394430306 -14.989509649140201 -1 0 0 I I #
vertex $-1 $362 $565 #
straight-curve $-1 0 51.321943394430306 -14.989509649140201 1 0 0 I I #
point $-1 76.556291390728475 51.321943394430306 -14.989509649140201 #
point $-1 76.556291390728475 -51.321943394430306 -14.989509649140201 #
straight-curve $-1 -76.556291390728475 0 14.989509649140201 0 -1 0 I I #
point $-1 -76.556291390728475 51.321943394430306 14.989509649140201 #
point $-1 -76.556291390728475 -51.321943394430306 14.989509649140201 #
straight-curve $-1 76.556291390728475 -51.321943394430306 0 0 0 -1 I I #
straight-curve $-1 76.556291390728475 51.321943394430306 0 0 0 -1 I I #
plane-surface $-1 76.556291390728475 0 0 -1 0 0 0 0 1 forward_v I I I I #
coedge $-1 $505 $382 $393 $514 forward $260 $-1 #
coedge $-1 $382 $505 $396 $516 reversed $260 $-1 #
straight-curve $-1 76.556291390728475 -39.168981268445435 -1.3258338903740059 0 0 1 I I #
coedge $-1 $503 $502 $385 $506 forward $260 $-1 #
edge $-1 $509 16.5462501027265 $507 28.699212228711371 $505 $566 forward 7 unknown #
vertex $-1 $387 $567 #
straight-curve $-1 0 -51.321943394430306 -6.3527276219409439 1 0 0 I I #
vertex $-1 $506 $568 #
straight-curve $-1 0 -39.168981268445435 -6.3527276219409439 1 0 0 I I #
point $-1 76.556291390728475 -51.321943394430306 -6.3527276219409439 #
point $-1 76.556291390728475 -39.168981268445435 -6.3527276219409439 #
straight-curve $-1 -76.556291390728475 -22.622731165718935 1.0493920604449203 0 1 0 I I #
edge $-1 $394 -2.3752259508189262 $509 5.026893731566938 $502 $569 forward 7 unknown #
point $-1 -76.556291390728475 -39.168981268445435 1.0493920604449203 #
edge $-1 $398 -1.0493920604449203 $507 6.3527276219409439 $503 $570 forward 7 unknown #
point $-1 -76.556291390728475 -51.321943394430306 1.0493920604449203 #
straight-curve $-1 76.556291390728475 -51.321943394430306 0 0 0 -1 I I #
edge $-1 $520 30.455784143066857 $523 42.376474021482274 $404 $571 forward 7 unknown #
vertex $-1 $418 $572 #
straight-curve $-1 -100.98938891395892 -20.139430500042934 14.989509649140203 -1 0 0 I I #
edge $-1 $523 5.3123275579208418 $415 24.341878326323343 $414 $573 forward 7 unknown #
vertex $-1 $522 $574 #
straight-curve $-1 -76.556291390728475 -20.139430500042934 3.0688197707247866 0.57357642473473569 0 0.81915205242281985 I I #
point $-1 -68.20933472912958 -20.139430500042934 14.989509649140201 #
point $-1 -76.556291390728475 -39.168981268445435 3.0688197707247866 #
straight-curve $-1 -76.556291390728475 0 14.989509649140201 0 -1 0 I I #
vertex $-1 $421 $575 #
point $-1 -69.483293047356156 -33.731966763187572 8.8300608661760442 #
vertex $-1 $425 $576 #
point $-1 -69.483293047356156 -25.576445005300791 8.8300608661760442 #
coedge $-1 $440 $439 $432 $533 forward $429 $-1 #
edge $-1 $534 30.455784143066857 $537 42.376474021482274 $532 $577 forward 7 unknown #
vertex $-1 $444 $578 #
straight-curve $-1 -100.98938891395892 25.106031831394937 14.989509649140203 -1 0 0 I I #
edge $-1 $537 -17.310403607798094 $441 1.7191471606044075 $440 $579 forward 7 unknown #
vertex $-1 $536 $580 #
straight-curve $-1 -76.556291390728475 25.106031831394937 3.0688197707247866 0.57357642473473569 0 0.81915205242281985 I I #
point $-1 -68.20933472912958 25.106031831394937 14.989509649140201 #
point $-1 -76.556291390728475 6.0764810629924355 3.0688197707247866 #
straight-curve $-1 -76.556291390728475 0 14.989509649140201 0 -1 0 I I #
vertex $-1 $447 $581 #
point $-1 -69.483293047356156 11.513495568250292 8.8300608661760442 #
vertex $-1 $451 $582 #
point $-1 -69.483293047356156 19.66901732613708 8.8300608661760442 #
coedge $-1 $466 $465 $458 $547 forward $455 $-1 #
edge $-1 $548 95.997084824689722 $551 105.0198311494936 $546 $583 forward 7 unknown #
vertex $-1 $470 $584 #
straight-curve $-1 30.725826491096036 -5.1334253198224999 14.989509649140203 1 0 0 I I #
edge $-1 $551 -4.8292619412973252 $467 4.2209351842469758 $466 $585 forward 7 unknown #
vertex $-1 $550 $586 #
straight-curve $-1 -38.99924062520148 -5.1334253198224999 106.41765693172991 -0.75470957328743171 0 0.6560590369687036 I I #
point $-1 66.176809293908732 -5.1334253198224999 14.989509649140203 #
point $-1 76.556291390728475 3.9167718057218011 5.9667633243363269 #
straight-curve $-1 76.556291390728475 0 14.989509649140201 0 1 0 I I #
vertex $-1 $473 $587 #
point $-1 71.087846091993597 -3.3233858947136383 9.3953973949664906 #
vertex $-1 $477 $588 #
point $-1 71.087846091993597 -0.60832675705034944 9.3953973949664906 #
vertex $-1 $481 $589 #
point $-1 71.087846091993597 2.1067323806129394 9.3953973949664906 #
straight-curve $-1 -76.556291390728475 51.321943394430306 0 0 0 -1 I I #
point $-1 -76.556291390728475 -51.321943394430306 -14.989509649140201 #
straight-curve $-1 -76.556291390728475 0 -14.989509649140201 0 1 0 I I #
point $-1 -76.556291390728475 51.321943394430306 -14.989509649140201 #
straight-curve $-1 -76.556291390728475 -22.622731165718935 -6.3527276219409439 0 -1 0 I I #
point $-1 -76.556291390728475 -51.321943394430306 -6.3527276219409439 #
point $-1 -76.556291390728475 -39.168981268445435 -6.3527276219409439 #
straight-curve $-1 -76.556291390728475 -39.168981268445435 -1.3258338903740059 0 0 -1 I I #
straight-curve $-1 -76.556291390728475 -51.321943394430306 0 0 0 -1 I I #
straight-curve $-1 -76.556291390728475 -20.139430500042934 45.44529379220706 0 0 -1 I I #
point $-1 -76.556291390728475 -20.139430500042934 14.989509649140201 #
straight-curve $-1 -76.556291390728475 -14.827102942122092 3.0688197707247946 0 -1 0 I I #
point $-1 -76.556291390728475 -20.139430500042934 3.0688197707247866 #
point $-1 -69.114929605824031 -33.731966763187572 6.7409681504397101 #
point $-1 -69.114929605824031 -25.576445005300791 6.7409681504397101 #
straight-curve $-1 -76.556291390728475 25.106031831394937 45.44529379220706 0 0 -1 I I #
point $-1 -76.556291390728475 25.106031831394937 14.989509649140201 #
straight-curve $-1 -76.556291390728475 7.795628223596843 3.0688197707247946 0 -1 0 I I #
point $-1 -76.556291390728475 25.106031831394937 3.0688197707247866 #
point $-1 -69.114929605824031 11.513495568250292 6.7409681504397101 #
point $-1 -69.114929605824031 19.66901732613708 6.7409681504397101 #
straight-curve $-1 76.556291390728475 -5.1334253198224999 110.98659447382992 0 0 -1 I I #
point $-1 76.556291390728475 -5.1334253198224999 14.989509649140201 #
straight-curve $-1 76.556291390728461 -0.30416337852517472 5.9667633243363412 0 1 0 I I #
point $-1 76.556291390728475 -5.1334253198224999 5.9667633243363269 #
point $-1 70.382461786865534 -3.3233858947136383 9.3460721268071278 #
point $-1 70.382461786865534 -0.60832675705034944 9.3460721268071278 #
point $-1 70.382461786865534 2.1067323806129394 9.3460721268071278 #
End-of-ACIS-data 