500 0 7 0           
7 Unknown 11 ACIS 5.0 NT 24 Fri Mar 26 02:37:48 1999 
-1 9.9999999999999995e-007 1e-010 
body $-1 $7 $-1 $8 #
body $-1 $9 $-1 $10 #
body $-1 $11 $-1 $12 #
body $-1 $13 $-1 $14 #
body $-1 $15 $-1 $16 #
body $-1 $17 $-1 $18 #
body $-1 $19 $-1 $20 #
lump $-1 $-1 $21 $0 #
transform $-1 1 0 0 0 1 0 0 0 1 42.320627460554824 18.201860736071449 5.3778452149435383 1 rotate no_reflect no_shear #
lump $-1 $-1 $22 $1 #
transform $-1 1 0 0 0 1 0 0 0 1 42.320627460554824 18.201860736071449 5.3778452149435383 1 rotate no_reflect no_shear #
lump $-1 $-1 $23 $2 #
transform $-1 1 0 0 0 1 0 0 0 1 42.320627460554824 18.201860736071449 5.3778452149435383 1 rotate no_reflect no_shear #
lump $-1 $-1 $24 $3 #
transform $-1 1 0 0 0 1 0 0 0 1 42.320627460554824 18.201860736071449 5.3778452149435383 1 rotate no_reflect no_shear #
lump $-1 $-1 $25 $4 #
transform $-1 1 0 0 0 1 0 0 0 1 42.320627460554824 18.201860736071449 5.3778452149435383 1 rotate no_reflect no_shear #
lump $-1 $-1 $26 $5 #
transform $-1 1 0 0 0 1 0 0 0 1 42.320627460554824 18.201860736071449 5.3778452149435383 1 rotate no_reflect no_shear #
lump $-1 $-1 $27 $6 #
transform $-1 1 0 0 0 1 0 0 0 1 42.320627460554824 18.201860736071449 5.3778452149435383 1 rotate no_reflect no_shear #
shell $-1 $-1 $-1 $28 $-1 $7 #
shell $-1 $-1 $-1 $29 $-1 $9 #
shell $-1 $-1 $-1 $30 $-1 $11 #
shell $-1 $-1 $-1 $31 $-1 $13 #
shell $-1 $-1 $-1 $32 $-1 $15 #
shell $-1 $-1 $-1 $33 $-1 $17 #
shell $-1 $-1 $-1 $34 $-1 $19 #
face $-1 $35 $36 $21 $-1 $37 forward single #
face $-1 $38 $39 $22 $-1 $40 reversed single #
face $-1 $41 $42 $23 $-1 $43 reversed single #
face $-1 $44 $45 $24 $-1 $46 forward single #
face $-1 $47 $48 $25 $-1 $49 forward single #
face $-1 $50 $51 $26 $-1 $52 reversed single #
face $-1 $53 $54 $27 $-1 $55 forward single #
face $-1 $56 $57 $21 $-1 $58 reversed single #
loop $-1 $-1 $59 $28 #
plane-surface $-1 0 0 5.3778452149435383 0 0 1 1 0 0 forward_v I I I I #
face $-1 $60 $61 $22 $-1 $62 reversed single #
loop $-1 $-1 $63 $29 #
plane-surface $-1 -38.218043085383684 -16.386713652234238 0 1 0 0 0 0 -1 forward_v I I I I #
face $-1 $64 $65 $23 $-1 $66 reversed single #
loop $-1 $-1 $67 $30 #
plane-surface $-1 48.5852853281473 10.534302217429989 121.64915517115526 0 1 0 0.74314483375859142 0 0.66913059716165679 forward_v I I I I #
face $-1 $68 $69 $24 $-1 $70 forward single #
loop $-1 $71 $72 $31 #
cone-surface $-1 40.478940721058216 12.725033222756117 3.410552510798202 -0.74314483375859142 0 -0.66913059716165679 0.3345652985808284 0 -0.37157241687929571 1 I I 0 1 0.5 forward I I I I #
face $-1 $73 $74 $25 $-1 $75 forward single #
loop $-1 $76 $77 $32 #
cone-surface $-1 40.478940721058216 16.011129730745314 3.410552510798202 -0.74314483375859142 0 -0.66913059716165679 0.3345652985808284 0 -0.37157241687929571 1 I I 0 1 0.5 forward I I I I #
face $-1 $78 $79 $26 $-1 $80 reversed single #
loop $-1 $-1 $81 $33 #
plane-surface $-1 -92.071509474309835 -8.5152063414836086 70.79709230054975 0 1 0 -0.5877852598018023 0 0.80901698891910034 forward_v I I I I #
face $-1 $82 $83 $27 $-1 $84 forward single #
loop $-1 $85 $86 $34 #
cone-surface $-1 -39.878184358022708 -3.66737280660778 3.3832274443461845 0.5877852598018023 0 -0.80901698891910034 0.80901698891910034 0 0.5877852598018023 1 I I 0 1 1 forward I I I I #
face $-1 $87 $88 $21 $-1 $89 reversed single #
loop $-1 $-1 $90 $35 #
plane-surface $-1 0 0 -5.3778452149435383 0 0 1 1 0 0 forward_v I I I I #
coedge $-1 $91 $92 $93 $94 forward $36 $-1 #
face $-1 $95 $96 $22 $-1 $97 reversed single #
loop $-1 $-1 $98 $38 #
plane-surface $-1 -36.718043085383684 -14.571566568397028 0 0 -1 0 0 0 -1 forward_v I I I I #
coedge $-1 $99 $100 $101 $102 forward $39 $-1 #
face $-1 $103 $104 $23 $-1 $105 reversed single #
loop $-1 $-1 $106 $41 #
plane-surface $-1 -14.31542598931928 14.368081476750721 65.013101721281146 0.74314483375859142 0 0.66913059716165679 0.66913059716165679 0 -0.74314483375859142 forward_v I I I I #
coedge $-1 $107 $108 $109 $110 reversed $42 $-1 #
face $-1 $-1 $111 $24 $-1 $112 forward single #
loop $-1 $113 $114 $44 #
cone-surface $-1 39.921582095739275 12.725033222756117 2.9087045629269594 -0.74314483375859142 0 -0.66913059716165679 0.1672826492904142 0 -0.18578620843964785 1 I I -0.70710678118654746 0.70710678118654746 0.25 forward I I I I #
loop $-1 $-1 $115 $31 #
coedge $-1 $72 $72 $116 $117 reversed $45 $-1 #
face $-1 $-1 $118 $25 $-1 $119 forward single #
loop $-1 $120 $121 $47 #
cone-surface $-1 39.921582095739275 16.011129730745314 2.9087045629269594 -0.74314483375859142 0 -0.66913059716165679 0.1672826492904142 0 -0.18578620843964785 1 I I -0.70710678118654746 0.70710678118654746 0.25 forward I I I I #
loop $-1 $-1 $122 $32 #
coedge $-1 $77 $77 $123 $124 reversed $48 $-1 #
face $-1 $125 $126 $26 $-1 $127 reversed single #
loop $-1 $-1 $128 $50 #
plane-surface $-1 -42.320627460554824 -3.66737280660778 2.320879105939639 -0.5877852598018023 0 0.80901698891910034 0.80901698891910034 0 0.5877852598018023 forward_v I I I I #
coedge $-1 $129 $130 $131 $132 reversed $51 $-1 #
face $-1 $-1 $133 $27 $-1 $134 forward single #
loop $-1 $135 $136 $53 #
cone-surface $-1 -39.245625026488206 -3.66737280660778 2.5125842337912285 0.5877852598018023 0 -0.80901698891910034 0.40450849445955017 0 0.29389262990090115 1 I I -0.70710678118654746 0.70710678118654746 0.5 forward I I I I #
loop $-1 $-1 $137 $34 #
coedge $-1 $86 $86 $138 $139 reversed $54 $-1 #
face $-1 $140 $141 $21 $-1 $142 reversed single #
loop $-1 $-1 $143 $56 #
plane-surface $-1 0 -18.201860736071449 0 0 1 0 0 0 1 forward_v I I I I #
coedge $-1 $144 $145 $146 $147 forward $57 $-1 #
coedge $-1 $148 $59 $149 $150 forward $36 $-1 #
coedge $-1 $59 $148 $151 $152 forward $36 $-1 #
coedge $-1 $153 $154 $59 $94 reversed $155 $-1 #
edge $-1 $156 -18.201860736071449 $157 18.201860736071449 $93 $158 forward 7 unknown #
face $-1 $159 $160 $22 $-1 $161 forward single #
loop $-1 $-1 $162 $60 #
plane-surface $-1 -35.218043085383684 -16.386713652234238 0 -1 0 0 0 0 1 forward_v I I I I #
coedge $-1 $163 $164 $165 $166 forward $61 $-1 #
coedge $-1 $167 $63 $168 $169 reversed $39 $-1 #
coedge $-1 $63 $167 $170 $171 reversed $39 $-1 #
coedge $-1 $164 $163 $63 $102 reversed $61 $-1 #
edge $-1 $172 -5.3778452149435383 $173 5.3778452149435383 $101 $174 forward 7 unknown #
face $-1 $175 $176 $23 $-1 $177 reversed single #
loop $-1 $-1 $109 $64 #
plane-surface $-1 42.320627460554824 0 0 -1 0 0 0 0 1 forward_v I I I I #
coedge $-1 $178 $179 $180 $181 reversed $65 $-1 #
coedge $-1 $108 $67 $182 $183 reversed $42 $-1 #
coedge $-1 $67 $107 $178 $184 reversed $42 $-1 #
coedge $-1 $180 $185 $67 $110 forward $104 $-1 #
edge $-1 $186 55.446732370634088 $187 58.712187181763049 $109 $188 forward 7 unknown #
loop $-1 $-1 $116 $68 #
plane-surface $-1 -14.31542598931928 14.368081476750721 65.013101721281146 0.74314483375859142 0 0.66913059716165679 0.66913059716165679 0 -0.74314483375859142 forward_v I I I I #
loop $-1 $-1 $189 $44 #
coedge $-1 $114 $114 $115 $190 reversed $69 $-1 #
coedge $-1 $115 $115 $114 $190 forward $71 $-1 #
coedge $-1 $116 $116 $72 $117 forward $111 $-1 #
edge $-1 $191 0 $191 6.2831853071796004 $116 $192 forward 7 unknown #
loop $-1 $-1 $123 $73 #
plane-surface $-1 -14.31542598931928 14.368081476750721 65.013101721281146 0.74314483375859142 0 0.66913059716165679 0.66913059716165679 0 -0.74314483375859142 forward_v I I I I #
loop $-1 $-1 $193 $47 #
coedge $-1 $121 $121 $122 $194 reversed $74 $-1 #
coedge $-1 $122 $122 $121 $194 forward $76 $-1 #
coedge $-1 $123 $123 $77 $124 forward $118 $-1 #
edge $-1 $195 0 $195 6.2831853071796004 $123 $196 forward 7 unknown #
face $-1 $197 $198 $26 $-1 $199 reversed single #
loop $-1 $-1 $200 $78 #
plane-surface $-1 -92.071509474309835 1.1804607282680477 70.79709230054975 0 -1 0 0.5877852598018023 0 -0.80901698891910034 forward_v I I I I #
coedge $-1 $201 $202 $203 $204 reversed $79 $-1 #
coedge $-1 $130 $81 $205 $206 reversed $51 $-1 #
coedge $-1 $81 $129 $201 $207 reversed $51 $-1 #
coedge $-1 $203 $208 $81 $132 forward $209 $-1 #
edge $-1 $210 3.7151272766000929 $211 7.9226800783971285 $131 $212 forward 7 unknown #
loop $-1 $-1 $138 $82 #
plane-surface $-1 -42.320627460554824 -3.66737280660778 2.320879105939639 -0.5877852598018023 0 0.80901698891910034 0.80901698891910034 0 0.5877852598018023 forward_v I I I I #
loop $-1 $-1 $213 $53 #
coedge $-1 $136 $136 $137 $214 reversed $83 $-1 #
coedge $-1 $137 $137 $136 $214 forward $85 $-1 #
coedge $-1 $138 $138 $86 $139 forward $133 $-1 #
edge $-1 $215 0 $215 6.2831853071796004 $138 $216 forward 7 unknown #
face $-1 $217 $218 $21 $-1 $219 reversed single #
loop $-1 $-1 $220 $87 #
plane-surface $-1 -42.320627460554824 0 0 1 0 0 0 0 -1 forward_v I I I I #
coedge $-1 $221 $151 $222 $223 forward $88 $-1 #
coedge $-1 $224 $90 $221 $225 forward $57 $-1 #
coedge $-1 $90 $224 $226 $227 forward $57 $-1 #
coedge $-1 $154 $153 $90 $147 reversed $155 $-1 #
edge $-1 $228 -18.201860736071449 $229 18.201860736071449 $146 $230 forward 7 unknown #
coedge $-1 $92 $91 $231 $232 forward $36 $-1 #
coedge $-1 $233 $234 $91 $150 reversed $218 $-1 #
edge $-1 $157 -42.320627460554824 $235 42.320627460554824 $149 $236 forward 7 unknown #
coedge $-1 $143 $237 $92 $152 reversed $88 $-1 #
edge $-1 $238 -42.320627460554824 $156 42.320627460554824 $151 $239 forward 7 unknown #
coedge $-1 $146 $93 $237 $240 forward $155 $-1 #
coedge $-1 $93 $146 $233 $241 reversed $155 $-1 #
loop $-1 $-1 $153 $217 #
vertex $-1 $94 $242 #
vertex $-1 $94 $243 #
straight-curve $-1 42.320627460554824 0 5.3778452149435383 0 1 0 I I #
face $-1 $244 $245 $22 $-1 $246 reversed single #
loop $-1 $-1 $247 $95 #
plane-surface $-1 0 0 5.3778452149435383 0 0 1 1 0 0 forward_v I I I I #
coedge $-1 $248 $249 $250 $251 reversed $96 $-1 #
coedge $-1 $101 $98 $252 $253 reversed $61 $-1 #
coedge $-1 $98 $101 $254 $255 reversed $61 $-1 #
coedge $-1 $249 $248 $98 $166 reversed $96 $-1 #
edge $-1 $256 -5.3778452149435383 $257 5.3778452149435383 $165 $258 forward 7 unknown #
coedge $-1 $100 $99 $259 $260 reversed $39 $-1 #
coedge $-1 $252 $261 $99 $169 forward $245 $-1 #
edge $-1 $262 -10.00850390995433 $173 -6.3782097422799087 $168 $263 forward 7 unknown #
coedge $-1 $264 $254 $100 $171 forward $160 $-1 #
edge $-1 $172 6.3782097422799087 $265 10.00850390995433 $170 $266 forward 7 unknown #
vertex $-1 $171 $267 #
vertex $-1 $169 $268 #
straight-curve $-1 -38.218043085383684 -14.571566568397028 0 0 0 -1 I I #
face $-1 $-1 $269 $23 $-1 $270 forward single #
loop $-1 $-1 $271 $103 #
plane-surface $-1 0 18.201860736071449 0 0 -1 0 0 0 -1 forward_v I I I I #
coedge $-1 $272 $106 $108 $184 forward $65 $-1 #
coedge $-1 $106 $272 $271 $273 reversed $65 $-1 #
coedge $-1 $274 $109 $106 $181 forward $104 $-1 #
edge $-1 $187 3.3502614790546286 $275 11.017819997696089 $180 $276 forward 7 unknown #
coedge $-1 $277 $278 $107 $183 forward $269 $-1 #
edge $-1 $279 15.087756151246548 $186 18.027984796481174 $182 $280 forward 7 unknown #
edge $-1 $187 -84.641254921109606 $279 -80.247152099169327 $108 $281 forward 7 unknown #
coedge $-1 $109 $274 $277 $282 reversed $104 $-1 #
vertex $-1 $282 $283 #
vertex $-1 $110 $284 #
straight-curve $-1 42.320627460554824 10.534302217429989 60.824577585577629 0 0 -1 I I #
coedge $-1 $189 $189 $-1 $285 reversed $113 $-1 #
edge $-1 $286 0 $286 6.2831853071796004 $114 $287 forward 7 unknown #
vertex $-1 $117 $288 #
ellipse-curve $-1 40.850513137937526 12.725033222756117 3.7451178093790447 0.74314483375859142 0 0.66913059716165679 0.3345652985808284 0 -0.37157241687929571 1 I I #
coedge $-1 $193 $193 $-1 $289 reversed $120 $-1 #
edge $-1 $290 0 $290 6.2831853071796004 $121 $291 forward 7 unknown #
vertex $-1 $124 $292 #
ellipse-curve $-1 40.850513137937526 16.011129730745314 3.7451178093790447 0.74314483375859142 0 0.66913059716165679 0.3345652985808284 0 -0.37157241687929571 1 I I #
face $-1 $-1 $209 $26 $-1 $293 forward single #
loop $-1 $-1 $294 $125 #
plane-surface $-1 -42.320627460554824 0 0 1 0 0 0 0 -1 forward_v I I I I #
coedge $-1 $295 $296 $297 $298 reversed $126 $-1 #
coedge $-1 $299 $128 $130 $207 forward $79 $-1 #
coedge $-1 $128 $299 $295 $300 forward $79 $-1 #
coedge $-1 $297 $131 $128 $204 forward $209 $-1 #
edge $-1 $211 -6.6815199381797186 $301 3.0141471315719377 $203 $302 forward 7 unknown #
coedge $-1 $303 $304 $129 $206 forward $198 $-1 #
edge $-1 $305 -33.077667044335236 $210 -30.020700935331337 $205 $306 forward 7 unknown #
edge $-1 $211 -5.2008213170141238 $305 0 $130 $307 forward 7 unknown #
coedge $-1 $131 $297 $303 $308 forward $209 $-1 #
loop $-1 $-1 $297 $197 #
vertex $-1 $206 $309 #
vertex $-1 $132 $310 #
straight-curve $-1 -46.035754737154917 -8.5152063414836086 5.377845214943541 1 0 0 I I #
coedge $-1 $213 $213 $-1 $311 reversed $135 $-1 #
edge $-1 $312 0 $312 6.2831853071796004 $136 $313 forward 7 unknown #
vertex $-1 $139 $314 #
ellipse-curve $-1 -40.216851059656307 -3.66737280660778 3.8493621604415886 -0.5877852598018023 0 0.80901698891910034 0.80901698891910034 0 0.5877852598018023 1 I I #
face $-1 $-1 $155 $21 $-1 $315 reversed single #
loop $-1 $-1 $233 $140 #
plane-surface $-1 0 18.201860736071449 0 0 -1 0 0 0 -1 forward_v I I I I #
coedge $-1 $316 $231 $234 $317 forward $141 $-1 #
coedge $-1 $237 $143 $144 $225 reversed $88 $-1 #
coedge $-1 $231 $316 $143 $223 reversed $141 $-1 #
edge $-1 $238 -5.3778452149435383 $318 5.3778452149435383 $222 $319 forward 7 unknown #
coedge $-1 $145 $144 $316 $320 forward $57 $-1 #
edge $-1 $229 -42.320627460554824 $318 42.320627460554824 $221 $321 forward 7 unknown #
coedge $-1 $234 $233 $145 $227 reversed $218 $-1 #
edge $-1 $322 -42.320627460554824 $228 42.320627460554824 $226 $323 forward 7 unknown #
vertex $-1 $147 $324 #
vertex $-1 $240 $325 #
straight-curve $-1 42.320627460554824 0 -5.3778452149435383 0 -1 0 I I #
coedge $-1 $220 $222 $148 $232 reversed $141 $-1 #
edge $-1 $235 -18.201860736071449 $238 18.201860736071449 $231 $326 forward 7 unknown #
coedge $-1 $226 $149 $154 $241 forward $218 $-1 #
coedge $-1 $149 $226 $220 $317 reversed $218 $-1 #
vertex $-1 $150 $327 #
straight-curve $-1 0 18.201860736071449 5.3778452149435383 -1 0 0 I I #
coedge $-1 $151 $221 $153 $240 reversed $88 $-1 #
vertex $-1 $232 $328 #
straight-curve $-1 0 -18.201860736071449 5.3778452149435383 1 0 0 I I #
edge $-1 $156 -5.3778452149435383 $229 5.3778452149435383 $153 $329 forward 7 unknown #
edge $-1 $157 -5.3778452149435383 $228 5.3778452149435383 $154 $330 forward 7 unknown #
point $-1 42.320627460554824 -18.201860736071449 5.3778452149435383 #
point $-1 42.320627460554824 18.201860736071449 5.3778452149435383 #
face $-1 $-1 $331 $22 $-1 $332 reversed single #
loop $-1 $-1 $333 $159 #
plane-surface $-1 0 0 -5.3778452149435383 0 0 1 1 0 0 forward_v I I I I #
coedge $-1 $254 $264 $249 $334 forward $160 $-1 #
coedge $-1 $165 $162 $333 $335 reversed $96 $-1 #
coedge $-1 $162 $165 $247 $334 reversed $96 $-1 #
coedge $-1 $336 $337 $162 $251 forward $331 $-1 #
edge $-1 $338 -5.3778452149435383 $339 5.3778452149435383 $250 $340 forward 7 unknown #
coedge $-1 $333 $168 $163 $253 forward $245 $-1 #
edge $-1 $173 -19.859021542691842 $257 -16.859021542691842 $252 $341 forward 7 unknown #
coedge $-1 $170 $247 $164 $255 forward $160 $-1 #
edge $-1 $256 16.859021542691842 $172 19.859021542691842 $254 $342 forward 7 unknown #
vertex $-1 $255 $343 #
vertex $-1 $253 $344 #
straight-curve $-1 -35.218043085383684 -14.571566568397028 0 0 0 -1 I I #
coedge $-1 $337 $336 $167 $260 forward $331 $-1 #
edge $-1 $265 -5.3778452149435383 $262 5.3778452149435383 $259 $345 forward 7 unknown #
coedge $-1 $168 $333 $337 $346 forward $245 $-1 #
vertex $-1 $169 $347 #
straight-curve $-1 -38.218043085383684 -8.1933568261171192 -5.3778452149435383 0 1 0 I I #
coedge $-1 $247 $170 $336 $348 forward $160 $-1 #
vertex $-1 $348 $349 #
straight-curve $-1 -38.218043085383684 -8.1933568261171192 5.3778452149435383 0 -1 0 I I #
point $-1 -38.218043085383684 -14.571566568397028 5.3778452149435383 #
point $-1 -38.218043085383684 -14.571566568397028 -5.3778452149435383 #
loop $-1 $-1 $182 $175 #
plane-surface $-1 0 0 5.3778452149435383 0 0 1 1 0 0 forward_v I I I I #
coedge $-1 $350 $351 $179 $273 forward $176 $-1 #
coedge $-1 $179 $178 $278 $352 reversed $65 $-1 #
edge $-1 $275 -55.694734815285329 $353 -51.300631993345036 $271 $354 forward 7 unknown #
coedge $-1 $185 $180 $351 $355 reversed $104 $-1 #
vertex $-1 $273 $356 #
straight-curve $-1 42.320627460554824 7.1840407383753604 2.1123904038145689 0 1 0 I I #
coedge $-1 $357 $182 $185 $282 forward $269 $-1 #
coedge $-1 $182 $357 $272 $352 forward $269 $-1 #
vertex $-1 $183 $358 #
straight-curve $-1 24.29264266407365 10.534302217429989 5.377845214943541 1 0 0 I I #
straight-curve $-1 -14.31542598931928 10.534302217429989 65.013101721281146 -0.66913059716165679 0 0.74314483375859142 I I #
edge $-1 $186 10.534302217429989 $359 18.201860736071449 $185 $360 forward 7 unknown #
point $-1 42.320627460554824 10.534302217429989 5.3778452149435383 #
point $-1 42.320627460554824 10.534302217429989 2.1123904038145795 #
edge $-1 $361 1 $361 0 $189 $-1 forward 7 unknown #
vertex $-1 $190 $362 #
ellipse-curve $-1 40.10736830417892 12.725033222756117 3.0759872122173735 0.74314483375859142 0 0.66913059716165679 0.3345652985808284 0 -0.37157241687929571 1 I I #
point $-1 41.185078436518346 12.725033222756117 3.373545392499735 #
edge $-1 $363 1 $363 0 $193 $-1 forward 7 unknown #
vertex $-1 $194 $364 #
ellipse-curve $-1 40.10736830417892 16.011129730745314 3.0759872122173735 0.74314483375859142 0 0.66913059716165679 0.3345652985808284 0 -0.37157241687929571 1 I I #
point $-1 41.185078436518346 16.011129730745314 3.373545392499735 #
plane-surface $-1 0 0 5.3778452149435383 0 0 1 1 0 0 forward_v I I I I #
coedge $-1 $304 $303 $296 $365 forward $198 $-1 #
coedge $-1 $296 $200 $202 $300 reversed $126 $-1 #
coedge $-1 $200 $295 $294 $365 reversed $126 $-1 #
coedge $-1 $208 $203 $200 $298 forward $209 $-1 #
edge $-1 $301 -7.9226800783971285 $366 -3.7151272766000929 $297 $367 forward 7 unknown #
coedge $-1 $202 $201 $304 $368 reversed $79 $-1 #
edge $-1 $369 0 $301 5.2008213170141238 $295 $370 forward 7 unknown #
vertex $-1 $204 $371 #
straight-curve $-1 -38.113074658757782 -1.83368640330389 5.3778452149435383 0 1 0 I I #
coedge $-1 $294 $205 $208 $308 reversed $198 $-1 #
coedge $-1 $205 $294 $299 $368 forward $198 $-1 #
vertex $-1 $206 $372 #
straight-curve $-1 -42.320627460554824 -8.5152063414836086 35.398546150274875 0 0 1 I I #
straight-curve $-1 -42.320627460554824 -8.5152063414836086 2.320879105939639 -0.80901698891910034 0 -0.5877852598018023 I I #
edge $-1 $366 -1.1804607282680477 $210 8.5152063414836086 $303 $373 forward 7 unknown #
point $-1 -42.320627460554824 -8.5152063414836086 5.3778452149435383 #
point $-1 -38.113074658757789 -8.5152063414836086 5.3778452149435383 #
edge $-1 $374 1 $374 0 $213 $-1 forward 7 unknown #
vertex $-1 $214 $375 #
ellipse-curve $-1 -39.539517656389108 -3.66737280660778 2.9170927282507786 -0.5877852598018023 0 0.80901698891910034 0.80901698891910034 0 0.5877852598018023 1 I I #
point $-1 -39.407834070737202 -3.66737280660778 4.4371474202433925 #
plane-surface $-1 42.320627460554824 0 0 -1 0 0 0 0 1 forward_v I I I I #
coedge $-1 $222 $220 $224 $320 reversed $141 $-1 #
edge $-1 $235 -5.3778452149435383 $322 5.3778452149435383 $234 $376 forward 7 unknown #
vertex $-1 $320 $377 #
straight-curve $-1 -42.320627460554824 -18.201860736071449 0 0 0 -1 I I #
edge $-1 $318 -18.201860736071449 $322 18.201860736071449 $316 $378 forward 7 unknown #
straight-curve $-1 0 -18.201860736071449 -5.3778452149435383 -1 0 0 I I #
vertex $-1 $227 $379 #
straight-curve $-1 0 18.201860736071449 -5.3778452149435383 1 0 0 I I #
point $-1 42.320627460554824 18.201860736071449 -5.3778452149435383 #
point $-1 42.320627460554824 -18.201860736071449 -5.3778452149435383 #
straight-curve $-1 -42.320627460554824 0 5.3778452149435383 0 -1 0 I I #
point $-1 -42.320627460554824 18.201860736071449 5.3778452149435383 #
point $-1 -42.320627460554824 -18.201860736071449 5.3778452149435383 #
straight-curve $-1 42.320627460554824 -18.201860736071449 0 0 0 -1 I I #
straight-curve $-1 42.320627460554824 18.201860736071449 0 0 0 -1 I I #
loop $-1 $-1 $250 $244 #
plane-surface $-1 0 -18.201860736071449 0 0 1 0 0 0 1 forward_v I I I I #
coedge $-1 $261 $252 $248 $335 forward $245 $-1 #
edge $-1 $339 -10.00850390995433 $256 -6.3782097422799087 $247 $380 forward 7 unknown #
edge $-1 $257 6.3782097422799087 $338 10.00850390995433 $333 $381 forward 7 unknown #
coedge $-1 $259 $250 $264 $348 reversed $331 $-1 #
coedge $-1 $250 $259 $261 $346 reversed $331 $-1 #
vertex $-1 $346 $382 #
vertex $-1 $251 $383 #
straight-curve $-1 -35.218043085383684 -18.201860736071449 0 0 0 1 I I #
straight-curve $-1 -18.359021542691842 -14.571566568397028 -5.3778452149435383 1 0 0 I I #
straight-curve $-1 -18.359021542691842 -14.571566568397028 5.3778452149435383 -1 0 0 I I #
point $-1 -35.218043085383684 -14.571566568397028 5.3778452149435383 #
point $-1 -35.218043085383684 -14.571566568397028 -5.3778452149435383 #
straight-curve $-1 -38.218043085383684 -18.201860736071449 0 0 0 -1 I I #
edge $-1 $338 35.218043085383684 $262 38.218043085383684 $337 $384 forward 7 unknown #
point $-1 -38.218043085383684 -18.201860736071449 -5.3778452149435383 #
edge $-1 $265 -38.218043085383684 $339 -35.218043085383684 $336 $385 forward 7 unknown #
point $-1 -38.218043085383684 -18.201860736071449 5.3778452149435383 #
coedge $-1 $351 $271 $357 $386 reversed $176 $-1 #
coedge $-1 $271 $350 $274 $355 forward $176 $-1 #
edge $-1 $353 -11.017819997696092 $279 -3.3502614790546286 $278 $387 forward 7 unknown #
vertex $-1 $273 $388 #
straight-curve $-1 5.0535762948428324 18.201860736071449 43.501644849348622 -0.66913059716165679 0 0.74314483375859142 I I #
edge $-1 $359 -5.3778452149435383 $275 -2.1123904038145747 $274 $389 forward 7 unknown #
point $-1 42.320627460554824 18.201860736071449 2.1123904038145747 #
coedge $-1 $278 $277 $350 $386 forward $269 $-1 #
point $-1 39.380398815320198 10.534302217429989 5.3778452149435481 #
vertex $-1 $282 $390 #
straight-curve $-1 42.320627460554824 0 5.3778452149435383 0 1 0 I I #
vertex $-1 $285 $391 #
point $-1 40.441933602759754 12.725033222756117 2.7044147953380779 #
vertex $-1 $289 $392 #
point $-1 40.441933602759754 16.011129730745314 2.7044147953380779 #
edge $-1 $366 30.020700935331337 $369 33.077667044335236 $294 $393 forward 7 unknown #
vertex $-1 $308 $394 #
straight-curve $-1 -46.035754737154917 1.1804607282680477 5.377845214943541 -1 0 0 I I #
edge $-1 $369 -3.0141471315719377 $305 6.6815199381797186 $304 $395 forward 7 unknown #
vertex $-1 $368 $396 #
straight-curve $-1 -42.320627460554824 1.1804607282680477 2.320879105939639 0.80901698891910034 0 0.5877852598018023 I I #
point $-1 -38.113074658757789 1.1804607282680477 5.3778452149435383 #
point $-1 -42.320627460554824 -8.5152063414836086 2.320879105939639 #
straight-curve $-1 -42.320627460554824 0 5.3778452149435383 0 -1 0 I I #
vertex $-1 $311 $397 #
point $-1 -38.730500667470004 -3.66737280660778 3.5048779880525811 #
straight-curve $-1 -42.320627460554824 18.201860736071449 0 0 0 -1 I I #
point $-1 -42.320627460554824 -18.201860736071449 -5.3778452149435383 #
straight-curve $-1 -42.320627460554824 0 -5.3778452149435383 0 1 0 I I #
point $-1 -42.320627460554824 18.201860736071449 -5.3778452149435383 #
straight-curve $-1 -35.218043085383684 -8.1933568261171192 5.3778452149435383 0 1 0 I I #
straight-curve $-1 -35.218043085383684 -8.1933568261171192 -5.3778452149435383 0 -1 0 I I #
point $-1 -35.218043085383684 -18.201860736071449 -5.3778452149435383 #
point $-1 -35.218043085383684 -18.201860736071449 5.3778452149435383 #
straight-curve $-1 0 -18.201860736071449 -5.3778452149435383 -1 0 0 I I #
straight-curve $-1 0 -18.201860736071449 5.3778452149435383 1 0 0 I I #
edge $-1 $359 -42.320627460554824 $353 -39.380398815320198 $350 $398 forward 7 unknown #
straight-curve $-1 39.380398815320206 7.1840407383753604 5.377845214943541 0 -1 0 I I #
point $-1 39.380398815320198 18.201860736071453 5.3778452149435481 #
straight-curve $-1 42.320627460554824 18.201860736071449 0 0 0 -1 I I #
point $-1 42.320627460554824 18.201860736071449 5.3778452149435383 #
point $-1 39.735795887299631 12.725033222756117 2.7414219136365454 #
point $-1 39.735795887299631 16.011129730745314 2.7414219136365454 #
straight-curve $-1 -42.320627460554824 1.1804607282680477 35.398546150274875 0 0 -1 I I #
point $-1 -42.320627460554824 1.1804607282680477 5.3778452149435383 #
straight-curve $-1 -42.320627460554824 -1.83368640330389 2.320879105939639 0 -1 0 I I #
point $-1 -42.320627460554824 1.1804607282680477 2.320879105939639 #
point $-1 -38.951732396587303 -3.66737280660778 2.1080757393316785 #
straight-curve $-1 0 18.201860736071449 5.3778452149435383 -1 0 0 I I #
End-of-ACIS-data 