500 0 5 0           
7 Unknown 11 ACIS 5.0 NT 24 Thu Mar 25 15:12:31 1999 
-1 9.9999999999999995e-007 1e-010 
body $-1 $5 $-1 $6 #
body $-1 $7 $-1 $8 #
body $-1 $9 $-1 $10 #
body $-1 $11 $-1 $12 #
body $-1 $13 $-1 $14 #
lump $-1 $-1 $15 $0 #
transform $-1 1 0 0 0 1 0 0 0 1 56.838892788476215 30.916111282401623 12.334270698002616 1 rotate no_reflect no_shear #
lump $-1 $-1 $16 $1 #
transform $-1 1 0 0 0 1 0 0 0 1 56.838892788476215 30.916111282401623 12.334270698002616 1 rotate no_reflect no_shear #
lump $-1 $-1 $17 $2 #
transform $-1 1 0 0 0 1 0 0 0 1 56.838892788476215 30.916111282401623 12.334270698002616 1 rotate no_reflect no_shear #
lump $-1 $-1 $18 $3 #
transform $-1 1 0 0 0 1 0 0 0 1 56.838892788476215 30.916111282401623 12.334270698002616 1 rotate no_reflect no_shear #
lump $-1 $-1 $19 $4 #
transform $-1 1 0 0 0 1 0 0 0 1 56.838892788476215 30.916111282401623 12.334270698002616 1 rotate no_reflect no_shear #
shell $-1 $-1 $-1 $20 $-1 $5 #
shell $-1 $-1 $-1 $21 $-1 $7 #
shell $-1 $-1 $-1 $22 $-1 $9 #
shell $-1 $-1 $-1 $23 $-1 $11 #
shell $-1 $-1 $-1 $24 $-1 $13 #
face $-1 $25 $26 $15 $-1 $27 forward single #
face $-1 $28 $29 $16 $-1 $30 reversed single #
face $-1 $31 $32 $17 $-1 $33 reversed single #
face $-1 $34 $35 $18 $-1 $36 reversed single #
face $-1 $37 $38 $19 $-1 $39 forward single #
face $-1 $40 $41 $15 $-1 $42 reversed single #
loop $-1 $-1 $43 $20 #
plane-surface $-1 0 0 12.334270698002616 0 0 1 1 0 0 forward_v I I I I #
face $-1 $44 $45 $16 $-1 $46 reversed single #
loop $-1 $-1 $47 $21 #
plane-surface $-1 -52.76460842537157 -12.257768898758412 0 0 1 0 0 0 1 forward_v I I I I #
face $-1 $48 $49 $17 $-1 $50 reversed single #
loop $-1 $-1 $51 $22 #
plane-surface $-1 52.764608425371563 -12.257768898758412 0 0 1 0 0 0 1 forward_v I I I I #
face $-1 $52 $53 $18 $-1 $54 reversed single #
loop $-1 $-1 $55 $23 #
plane-surface $-1 -23.588661772333452 -94.483923085473222 100.55440602781344 -1 0 0 0 -0.55919291073839883 0.82903756765294845 forward_v I I I I #
face $-1 $56 $57 $19 $-1 $58 forward single #
loop $-1 $59 $60 $24 #
cone-surface $-1 -36.139492917300188 -24.959136745894028 7.1104422962821143 0 0.55919291073839883 -0.82903756765294845 2.5 0 0 1 I I 0 1 2.5 forward I I I I #
face $-1 $61 $62 $15 $-1 $63 reversed single #
loop $-1 $-1 $64 $25 #
plane-surface $-1 0 0 -12.334270698002616 0 0 1 1 0 0 forward_v I I I I #
coedge $-1 $65 $66 $67 $68 forward $26 $-1 #
face $-1 $69 $70 $16 $-1 $71 reversed single #
loop $-1 $-1 $72 $28 #
plane-surface $-1 -52.76460842537157 -6.974664273786134 0 0 -1 0 0 0 -1 forward_v I I I I #
coedge $-1 $73 $74 $75 $76 reversed $29 $-1 #
face $-1 $77 $78 $17 $-1 $79 reversed single #
loop $-1 $-1 $80 $31 #
plane-surface $-1 48.690324062266917 -9.616216586272273 0 1 0 0 0 0 -1 forward_v I I I I #
coedge $-1 $81 $82 $83 $84 forward $32 $-1 #
face $-1 $85 $86 $18 $-1 $87 reversed single #
loop $-1 $-1 $88 $34 #
plane-surface $-1 -36.139492917300188 -30.916111282401623 6.3112511769233777 0 -0.55919291073839883 0.82903756765294845 1 0 0 forward_v I I I I #
coedge $-1 $89 $90 $91 $92 reversed $35 $-1 #
face $-1 $-1 $93 $19 $-1 $94 forward single #
loop $-1 $95 $96 $37 #
cone-surface $-1 -36.139492917300188 -22.767917813807721 3.8618266955350506 0 0.55919291073839883 -0.82903756765294845 1.25 0 0 1 I I -0.70710678118654746 0.70710678118654746 1.25 forward I I I I #
loop $-1 $-1 $97 $24 #
coedge $-1 $60 $60 $98 $99 reversed $38 $-1 #
face $-1 $100 $101 $15 $-1 $102 reversed single #
loop $-1 $-1 $103 $40 #
plane-surface $-1 0 -30.916111282401623 0 0 1 0 0 0 1 forward_v I I I I #
coedge $-1 $104 $105 $106 $107 forward $41 $-1 #
coedge $-1 $108 $43 $109 $110 forward $26 $-1 #
coedge $-1 $43 $108 $111 $112 forward $26 $-1 #
coedge $-1 $113 $114 $43 $68 reversed $115 $-1 #
edge $-1 $116 -30.916111282401623 $117 30.916111282401623 $67 $118 forward 7 unknown #
face $-1 $119 $120 $16 $-1 $121 reversed single #
loop $-1 $-1 $122 $44 #
plane-surface $-1 -48.690324062266924 -9.616216586272273 0 -1 0 0 0 0 1 forward_v I I I I #
coedge $-1 $123 $124 $125 $126 forward $45 $-1 #
coedge $-1 $127 $47 $128 $129 reversed $29 $-1 #
coedge $-1 $47 $127 $130 $131 reversed $29 $-1 #
coedge $-1 $132 $133 $47 $76 forward $134 $-1 #
edge $-1 $135 -12.334270698002616 $136 12.334270698002616 $75 $137 forward 7 unknown #
face $-1 $138 $139 $17 $-1 $140 reversed single #
loop $-1 $-1 $141 $48 #
plane-surface $-1 52.764608425371563 -6.974664273786134 0 0 -1 0 0 0 -1 forward_v I I I I #
coedge $-1 $142 $143 $144 $145 forward $49 $-1 #
coedge $-1 $146 $51 $147 $148 reversed $32 $-1 #
coedge $-1 $51 $146 $149 $150 reversed $32 $-1 #
coedge $-1 $143 $142 $51 $84 reversed $49 $-1 #
edge $-1 $151 -12.334270698002616 $152 12.334270698002616 $83 $153 forward 7 unknown #
face $-1 $154 $155 $18 $-1 $156 forward single #
loop $-1 $-1 $157 $52 #
plane-surface $-1 -48.690324062266924 -94.483923085473222 100.55440602781344 1 0 0 0 0.55919291073839883 -0.82903756765294845 forward_v I I I I #
coedge $-1 $158 $159 $160 $161 reversed $53 $-1 #
coedge $-1 $90 $55 $162 $163 reversed $35 $-1 #
coedge $-1 $55 $89 $158 $164 reversed $35 $-1 #
coedge $-1 $160 $165 $55 $92 forward $155 $-1 #
edge $-1 $166 16.325850260334988 $167 25.255343746023549 $91 $168 forward 7 unknown #
loop $-1 $-1 $98 $56 #
plane-surface $-1 -36.139492917300188 -30.916111282401623 6.3112511769233777 0 -0.55919291073839883 0.82903756765294845 1 0 0 forward_v I I I I #
loop $-1 $-1 $169 $37 #
coedge $-1 $96 $96 $97 $170 reversed $57 $-1 #
coedge $-1 $97 $97 $96 $170 forward $59 $-1 #
coedge $-1 $98 $98 $60 $99 forward $93 $-1 #
edge $-1 $171 -4.1118859971881155e-016 $171 6.2831853071796004 $98 $172 forward 7 unknown #
face $-1 $173 $174 $15 $-1 $175 reversed single #
loop $-1 $-1 $176 $61 #
plane-surface $-1 -56.838892788476215 0 0 1 0 0 0 0 -1 forward_v I I I I #
coedge $-1 $177 $111 $178 $179 forward $62 $-1 #
coedge $-1 $180 $64 $177 $181 forward $41 $-1 #
coedge $-1 $64 $180 $182 $183 forward $41 $-1 #
coedge $-1 $114 $113 $64 $107 reversed $115 $-1 #
edge $-1 $184 -30.916111282401623 $185 30.916111282401623 $106 $186 forward 7 unknown #
coedge $-1 $66 $65 $187 $188 forward $26 $-1 #
coedge $-1 $189 $190 $65 $110 reversed $174 $-1 #
edge $-1 $117 -56.838892788476215 $191 56.838892788476215 $109 $192 forward 7 unknown #
coedge $-1 $103 $193 $66 $112 reversed $62 $-1 #
edge $-1 $194 -56.838892788476215 $116 56.838892788476215 $111 $195 forward 7 unknown #
coedge $-1 $106 $67 $193 $196 forward $115 $-1 #
coedge $-1 $67 $106 $189 $197 reversed $115 $-1 #
loop $-1 $-1 $113 $173 #
vertex $-1 $68 $198 #
vertex $-1 $68 $199 #
straight-curve $-1 56.838892788476215 0 12.334270698002616 0 1 0 I I #
face $-1 $200 $201 $16 $-1 $202 forward single #
loop $-1 $-1 $203 $69 #
plane-surface $-1 0 0 -12.334270698002616 0 0 1 1 0 0 forward_v I I I I #
coedge $-1 $204 $205 $127 $206 forward $70 $-1 #
coedge $-1 $207 $72 $203 $208 reversed $45 $-1 #
coedge $-1 $72 $207 $209 $210 reversed $45 $-1 #
coedge $-1 $205 $204 $72 $126 reversed $70 $-1 #
edge $-1 $211 -12.334270698002616 $212 12.334270698002616 $125 $213 forward 7 unknown #
coedge $-1 $74 $73 $122 $206 reversed $29 $-1 #
coedge $-1 $214 $215 $73 $129 forward $120 $-1 #
edge $-1 $216 22.308019849581139 $135 30.45658857579043 $128 $217 forward 7 unknown #
coedge $-1 $218 $219 $74 $131 forward $201 $-1 #
edge $-1 $136 -30.45658857579043 $220 -22.308019849581139 $130 $221 forward 7 unknown #
coedge $-1 $222 $75 $219 $223 reversed $134 $-1 #
coedge $-1 $75 $222 $214 $224 reversed $134 $-1 #
loop $-1 $-1 $222 $200 #
vertex $-1 $224 $225 #
vertex $-1 $76 $226 #
straight-curve $-1 -56.838892788476215 -12.257768898758412 0 0 0 1 I I #
face $-1 $227 $228 $17 $-1 $229 forward single #
loop $-1 $-1 $147 $77 #
plane-surface $-1 0 0 -12.334270698002616 0 0 1 1 0 0 forward_v I I I I #
coedge $-1 $230 $231 $232 $233 reversed $78 $-1 #
coedge $-1 $83 $80 $234 $235 reversed $49 $-1 #
coedge $-1 $80 $83 $236 $237 reversed $49 $-1 #
coedge $-1 $231 $230 $80 $145 reversed $78 $-1 #
edge $-1 $238 -12.334270698002616 $239 12.334270698002616 $144 $240 forward 7 unknown #
coedge $-1 $82 $81 $241 $242 reversed $32 $-1 #
coedge $-1 $234 $243 $81 $148 forward $139 $-1 #
edge $-1 $244 -30.456588575790427 $152 -22.308019849581136 $147 $245 forward 7 unknown #
coedge $-1 $246 $236 $82 $150 forward $228 $-1 #
edge $-1 $151 22.308019849581136 $247 30.456588575790427 $149 $248 forward 7 unknown #
vertex $-1 $150 $249 #
vertex $-1 $148 $250 #
straight-curve $-1 48.690324062266917 -12.257768898758412 0 0 0 -1 I I #
face $-1 $-1 $251 $18 $-1 $252 reversed single #
loop $-1 $-1 $91 $85 #
plane-surface $-1 0 0 12.334270698002616 0 0 1 1 0 0 forward_v I I I I #
coedge $-1 $253 $254 $255 $256 reversed $86 $-1 #
coedge $-1 $257 $88 $90 $164 forward $53 $-1 #
coedge $-1 $88 $257 $253 $258 forward $53 $-1 #
coedge $-1 $255 $91 $88 $161 forward $155 $-1 #
edge $-1 $167 5.5189153136833582 $259 30.62057760361683 $160 $260 forward 7 unknown #
coedge $-1 $261 $262 $89 $163 forward $251 $-1 #
edge $-1 $263 -43.965951836983344 $166 -37.942932315904102 $162 $264 forward 7 unknown #
edge $-1 $167 -10.770915377174589 $263 0 $90 $265 forward 7 unknown #
coedge $-1 $91 $255 $261 $266 forward $155 $-1 #
vertex $-1 $92 $267 #
vertex $-1 $92 $268 #
straight-curve $-1 -23.588661772333452 -47.241961542736611 12.334270698002612 0 1 0 I I #
coedge $-1 $169 $169 $-1 $269 reversed $95 $-1 #
edge $-1 $270 0 $270 6.2831853071796004 $96 $271 forward 7 unknown #
vertex $-1 $99 $272 #
ellipse-curve $-1 -36.139492917300188 -26.451364539557339 9.3227609374629985 0 -0.55919291073839883 0.82903756765294845 2.5 0 0 1 I I #
face $-1 $-1 $115 $15 $-1 $273 reversed single #
loop $-1 $-1 $189 $100 #
plane-surface $-1 0 30.916111282401623 0 0 -1 0 0 0 -1 forward_v I I I I #
coedge $-1 $274 $187 $190 $275 forward $101 $-1 #
coedge $-1 $193 $103 $104 $181 reversed $62 $-1 #
coedge $-1 $187 $274 $103 $179 reversed $101 $-1 #
edge $-1 $194 -12.334270698002616 $276 12.334270698002616 $178 $277 forward 7 unknown #
coedge $-1 $105 $104 $274 $278 forward $41 $-1 #
edge $-1 $185 -56.838892788476215 $276 56.838892788476215 $177 $279 forward 7 unknown #
coedge $-1 $190 $189 $105 $183 reversed $174 $-1 #
edge $-1 $280 -56.838892788476215 $184 56.838892788476215 $182 $281 forward 7 unknown #
vertex $-1 $107 $282 #
vertex $-1 $196 $283 #
straight-curve $-1 56.838892788476215 0 -12.334270698002616 0 -1 0 I I #
coedge $-1 $176 $178 $108 $188 reversed $101 $-1 #
edge $-1 $191 -30.916111282401623 $194 30.916111282401623 $187 $284 forward 7 unknown #
coedge $-1 $182 $109 $114 $197 forward $174 $-1 #
coedge $-1 $109 $182 $176 $275 reversed $174 $-1 #
vertex $-1 $110 $285 #
straight-curve $-1 0 30.916111282401623 12.334270698002616 -1 0 0 I I #
coedge $-1 $111 $177 $113 $196 reversed $62 $-1 #
vertex $-1 $188 $286 #
straight-curve $-1 0 -30.916111282401623 12.334270698002616 1 0 0 I I #
edge $-1 $116 -12.334270698002616 $185 12.334270698002616 $113 $287 forward 7 unknown #
edge $-1 $117 -12.334270698002616 $184 12.334270698002616 $114 $288 forward 7 unknown #
point $-1 56.838892788476215 -30.916111282401623 12.334270698002616 #
point $-1 56.838892788476215 30.916111282401623 12.334270698002616 #
face $-1 $-1 $134 $16 $-1 $289 reversed single #
loop $-1 $-1 $209 $119 #
plane-surface $-1 0 0 12.334270698002616 0 0 1 1 0 0 forward_v I I I I #
coedge $-1 $215 $214 $123 $208 forward $120 $-1 #
coedge $-1 $125 $122 $215 $290 reversed $70 $-1 #
coedge $-1 $122 $125 $218 $291 reversed $70 $-1 #
edge $-1 $220 -12.334270698002616 $216 12.334270698002616 $122 $292 forward 7 unknown #
coedge $-1 $124 $123 $222 $293 reversed $45 $-1 #
edge $-1 $294 -30.45658857579043 $212 -22.308019849581139 $203 $295 forward 7 unknown #
coedge $-1 $219 $218 $124 $210 forward $201 $-1 #
edge $-1 $211 22.308019849581139 $296 30.45658857579043 $209 $297 forward 7 unknown #
vertex $-1 $210 $298 #
vertex $-1 $208 $299 #
straight-curve $-1 -48.690324062266924 -6.974664273786134 0 0 0 -1 I I #
coedge $-1 $203 $128 $133 $224 forward $120 $-1 #
coedge $-1 $128 $203 $204 $290 forward $120 $-1 #
vertex $-1 $129 $300 #
straight-curve $-1 -26.382304212685785 -12.257768898758412 -12.334270698002616 -1 0 0 I I #
coedge $-1 $209 $130 $205 $291 forward $201 $-1 #
coedge $-1 $130 $209 $132 $223 forward $201 $-1 #
vertex $-1 $131 $301 #
straight-curve $-1 -26.382304212685785 -12.257768898758412 12.334270698002616 1 0 0 I I #
coedge $-1 $133 $132 $207 $293 forward $134 $-1 #
edge $-1 $296 6.974664273786134 $136 12.257768898758412 $132 $302 forward 7 unknown #
edge $-1 $135 -12.257768898758412 $294 -6.974664273786134 $133 $303 forward 7 unknown #
point $-1 -56.838892788476215 -12.257768898758412 -12.334270698002616 #
point $-1 -56.838892788476215 -12.257768898758412 12.334270698002616 #
face $-1 $-1 $304 $17 $-1 $305 reversed single #
loop $-1 $-1 $149 $138 #
plane-surface $-1 0 0 12.334270698002616 0 0 1 1 0 0 forward_v I I I I #
coedge $-1 $144 $141 $306 $307 reversed $78 $-1 #
coedge $-1 $141 $144 $308 $309 reversed $78 $-1 #
coedge $-1 $310 $311 $141 $233 forward $304 $-1 #
edge $-1 $312 -12.334270698002616 $313 12.334270698002616 $232 $314 forward 7 unknown #
coedge $-1 $306 $147 $142 $235 forward $139 $-1 #
edge $-1 $152 -7.4496606056222756 $239 -2.1665559806499974 $234 $315 forward 7 unknown #
coedge $-1 $149 $308 $143 $237 forward $228 $-1 #
edge $-1 $238 2.1665559806499974 $151 7.4496606056222756 $236 $316 forward 7 unknown #
vertex $-1 $237 $317 #
vertex $-1 $235 $318 #
straight-curve $-1 48.690324062266917 -6.974664273786134 0 0 0 -1 I I #
coedge $-1 $311 $310 $146 $242 forward $304 $-1 #
edge $-1 $247 -12.334270698002616 $244 12.334270698002616 $241 $319 forward 7 unknown #
coedge $-1 $147 $306 $311 $320 forward $139 $-1 #
vertex $-1 $242 $321 #
straight-curve $-1 26.382304212685781 -12.257768898758412 -12.334270698002616 -1 0 0 I I #
coedge $-1 $308 $149 $310 $322 forward $228 $-1 #
vertex $-1 $322 $323 #
straight-curve $-1 26.382304212685781 -12.257768898758412 12.334270698002616 1 0 0 I I #
point $-1 48.690324062266917 -12.257768898758412 12.334270698002616 #
point $-1 48.690324062266917 -12.257768898758412 -12.334270698002616 #
loop $-1 $-1 $162 $154 #
plane-surface $-1 0 -30.916111282401623 0 0 1 0 0 0 1 forward_v I I I I #
coedge $-1 $254 $157 $159 $258 reversed $86 $-1 #
coedge $-1 $157 $253 $324 $325 reversed $86 $-1 #
coedge $-1 $165 $160 $157 $256 forward $155 $-1 #
edge $-1 $259 -25.255343746023549 $326 -16.325850260334988 $255 $327 forward 7 unknown #
coedge $-1 $159 $158 $262 $328 reversed $53 $-1 #
edge $-1 $329 0 $259 10.770915377174589 $253 $330 forward 7 unknown #
vertex $-1 $161 $331 #
straight-curve $-1 -18.069746458650094 -21.986617796713062 12.334270698002616 -1 0 0 I I #
coedge $-1 $324 $162 $165 $266 reversed $251 $-1 #
coedge $-1 $162 $324 $257 $328 forward $251 $-1 #
vertex $-1 $163 $332 #
straight-curve $-1 -23.588661772333452 -30.916111282401623 50.277203013906721 0 0 1 I I #
straight-curve $-1 -23.588661772333452 -30.916111282401623 6.3112511769233777 0 -0.82903756765294845 -0.55919291073839883 I I #
edge $-1 $326 -48.690324062266924 $166 -23.588661772333452 $261 $333 forward 7 unknown #
point $-1 -23.588661772333452 -30.916111282401623 12.334270698002616 #
point $-1 -23.588661772333452 -21.986617796713062 12.334270698002616 #
edge $-1 $334 1 $334 0 $169 $-1 forward 7 unknown #
vertex $-1 $170 $335 #
ellipse-curve $-1 -36.139492917300188 -23.466908952230717 4.8981236551012364 0 -0.55919291073839883 0.82903756765294845 2.5 0 0 1 I I #
point $-1 -33.639492917300188 -26.451364539557336 9.3227609374629914 #
plane-surface $-1 56.838892788476215 0 0 -1 0 0 0 0 1 forward_v I I I I #
coedge $-1 $178 $176 $180 $278 reversed $101 $-1 #
edge $-1 $191 -12.334270698002616 $280 12.334270698002616 $190 $336 forward 7 unknown #
vertex $-1 $278 $337 #
straight-curve $-1 -56.838892788476215 -30.916111282401623 0 0 0 -1 I I #
edge $-1 $276 -30.916111282401623 $280 30.916111282401623 $274 $338 forward 7 unknown #
straight-curve $-1 0 -30.916111282401623 -12.334270698002616 -1 0 0 I I #
vertex $-1 $183 $339 #
straight-curve $-1 0 30.916111282401623 -12.334270698002616 1 0 0 I I #
point $-1 56.838892788476215 30.916111282401623 -12.334270698002616 #
point $-1 56.838892788476215 -30.916111282401623 -12.334270698002616 #
straight-curve $-1 -56.838892788476215 0 12.334270698002616 0 -1 0 I I #
point $-1 -56.838892788476215 30.916111282401623 12.334270698002616 #
point $-1 -56.838892788476215 -30.916111282401623 12.334270698002616 #
straight-curve $-1 56.838892788476215 -30.916111282401623 0 0 0 -1 I I #
straight-curve $-1 56.838892788476215 30.916111282401623 0 0 0 -1 I I #
plane-surface $-1 -56.838892788476215 0 0 1 0 0 0 0 -1 forward_v I I I I #
edge $-1 $212 2.1665559806499974 $216 7.4496606056222756 $215 $340 forward 7 unknown #
edge $-1 $220 -7.4496606056222756 $211 -2.1665559806499974 $218 $341 forward 7 unknown #
straight-curve $-1 -48.690324062266924 -12.257768898758412 0 0 0 -1 I I #
edge $-1 $296 -12.334270698002616 $294 12.334270698002616 $222 $342 forward 7 unknown #
vertex $-1 $293 $343 #
straight-curve $-1 -26.382304212685785 -6.974664273786134 -12.334270698002616 1 0 0 I I #
vertex $-1 $223 $344 #
straight-curve $-1 -26.382304212685785 -6.974664273786134 12.334270698002616 -1 0 0 I I #
point $-1 -48.690324062266924 -6.974664273786134 12.334270698002616 #
point $-1 -48.690324062266924 -6.974664273786134 -12.334270698002616 #
point $-1 -48.690324062266924 -12.257768898758412 -12.334270698002616 #
point $-1 -48.690324062266924 -12.257768898758412 12.334270698002616 #
straight-curve $-1 -56.838892788476215 0 12.334270698002616 0 -1 0 I I #
straight-curve $-1 -56.838892788476215 0 -12.334270698002616 0 1 0 I I #
loop $-1 $-1 $241 $227 #
plane-surface $-1 56.838892788476215 0 0 -1 0 0 0 0 1 forward_v I I I I #
coedge $-1 $243 $234 $230 $307 forward $139 $-1 #
edge $-1 $239 22.308019849581136 $312 30.456588575790427 $306 $345 forward 7 unknown #
coedge $-1 $236 $246 $231 $309 forward $228 $-1 #
edge $-1 $313 -30.456588575790427 $238 -22.308019849581136 $308 $346 forward 7 unknown #
coedge $-1 $241 $232 $246 $322 reversed $304 $-1 #
coedge $-1 $232 $241 $243 $320 reversed $304 $-1 #
vertex $-1 $320 $347 #
vertex $-1 $233 $348 #
straight-curve $-1 56.838892788476215 -6.974664273786134 0 0 0 1 I I #
straight-curve $-1 48.690324062266917 -4.8081082931361365 -12.334270698002616 0 1 0 I I #
straight-curve $-1 48.690324062266917 -4.8081082931361365 12.334270698002616 0 -1 0 I I #
point $-1 48.690324062266917 -6.974664273786134 12.334270698002616 #
point $-1 48.690324062266917 -6.974664273786134 -12.334270698002616 #
straight-curve $-1 56.838892788476215 -12.257768898758412 0 0 0 -1 I I #
edge $-1 $312 6.974664273786134 $244 12.257768898758412 $311 $349 forward 7 unknown #
point $-1 56.838892788476208 -12.257768898758412 -12.334270698002616 #
edge $-1 $247 -12.257768898758412 $313 -6.974664273786134 $310 $350 forward 7 unknown #
point $-1 56.838892788476208 -12.257768898758412 12.334270698002616 #
coedge $-1 $262 $261 $254 $325 forward $251 $-1 #
edge $-1 $326 37.942932315904102 $329 43.965951836983344 $324 $351 forward 7 unknown #
vertex $-1 $266 $352 #
straight-curve $-1 -48.690324062266924 -47.241961542736611 12.334270698002612 0 -1 0 I I #
edge $-1 $329 -30.62057760361683 $263 -5.5189153136833582 $262 $353 forward 7 unknown #
vertex $-1 $328 $354 #
straight-curve $-1 -48.690324062266924 -30.916111282401623 6.3112511769233777 0 0.82903756765294845 0.55919291073839883 I I #
point $-1 -48.690324062266924 -21.986617796713062 12.334270698002616 #
point $-1 -23.588661772333452 -30.916111282401623 6.3112511769233777 #
straight-curve $-1 0 -30.916111282401623 12.334270698002616 1 0 0 I I #
vertex $-1 $269 $355 #
point $-1 -33.639492917300188 -23.466908952230717 4.8981236551012364 #
straight-curve $-1 -56.838892788476215 30.916111282401623 0 0 0 -1 I I #
point $-1 -56.838892788476215 -30.916111282401623 -12.334270698002616 #
straight-curve $-1 -56.838892788476215 0 -12.334270698002616 0 1 0 I I #
point $-1 -56.838892788476215 30.916111282401623 -12.334270698002616 #
straight-curve $-1 -48.690324062266924 -4.8081082931361365 -12.334270698002616 0 -1 0 I I #
straight-curve $-1 -48.690324062266924 -4.8081082931361365 12.334270698002616 0 1 0 I I #
straight-curve $-1 -56.838892788476215 -6.974664273786134 0 0 0 -1 I I #
point $-1 -56.838892788476215 -6.974664273786134 -12.334270698002616 #
point $-1 -56.838892788476215 -6.974664273786134 12.334270698002616 #
straight-curve $-1 26.382304212685781 -6.974664273786134 -12.334270698002616 1 0 0 I I #
straight-curve $-1 26.382304212685781 -6.974664273786134 12.334270698002616 -1 0 0 I I #
point $-1 56.838892788476208 -6.974664273786134 -12.334270698002616 #
point $-1 56.838892788476208 -6.974664273786134 12.334270698002616 #
straight-curve $-1 56.838892788476215 0 -12.334270698002616 0 -1 0 I I #
straight-curve $-1 56.838892788476215 0 12.334270698002616 0 1 0 I I #
straight-curve $-1 -48.690324062266924 -30.916111282401623 50.277203013906721 0 0 -1 I I #
point $-1 -48.690324062266924 -30.916111282401623 12.334270698002616 #
straight-curve $-1 -18.069746458650094 -30.916111282401623 6.3112511769233794 1 0 0 I I #
point $-1 -48.690324062266924 -30.916111282401623 6.3112511769233777 #
point $-1 -36.139492917300188 -22.068926675384724 2.8255297359688649 #
End-of-ACIS-data 