500 0 16 0           
7 Unknown 11 ACIS 5.0 NT 24 Thu Mar 25 22:13:58 1999 
-1 9.9999999999999995e-007 1e-010 
body $-1 $16 $-1 $17 #
body $-1 $18 $-1 $19 #
body $-1 $20 $-1 $21 #
body $-1 $22 $-1 $23 #
body $-1 $24 $-1 $25 #
body $-1 $26 $-1 $27 #
body $-1 $28 $-1 $29 #
body $-1 $30 $-1 $31 #
body $-1 $32 $-1 $33 #
body $-1 $34 $-1 $35 #
body $-1 $36 $-1 $37 #
body $-1 $38 $-1 $39 #
body $-1 $40 $-1 $41 #
body $-1 $42 $-1 $43 #
body $-1 $44 $-1 $45 #
body $-1 $46 $-1 $47 #
lump $-1 $-1 $48 $0 #
transform $-1 1 0 0 0 1 0 0 0 1 79.803460798974584 35.706124395935134 9.5737570453617167 1 rotate no_reflect no_shear #
lump $-1 $-1 $49 $1 #
transform $-1 1 0 0 0 1 0 0 0 1 79.803460798974584 35.706124395935134 9.5737570453617167 1 rotate no_reflect no_shear #
lump $-1 $-1 $50 $2 #
transform $-1 1 0 0 0 1 0 0 0 1 79.803460798974584 35.706124395935134 9.5737570453617167 1 rotate no_reflect no_shear #
lump $-1 $-1 $51 $3 #
transform $-1 1 0 0 0 1 0 0 0 1 79.803460798974584 35.706124395935134 9.5737570453617167 1 rotate no_reflect no_shear #
lump $-1 $-1 $52 $4 #
transform $-1 1 0 0 0 1 0 0 0 1 79.803460798974584 35.706124395935134 9.5737570453617167 1 rotate no_reflect no_shear #
lump $-1 $-1 $53 $5 #
transform $-1 1 0 0 0 1 0 0 0 1 79.803460798974584 35.706124395935134 9.5737570453617167 1 rotate no_reflect no_shear #
lump $-1 $-1 $54 $6 #
transform $-1 1 0 0 0 1 0 0 0 1 79.803460798974584 35.706124395935134 9.5737570453617167 1 rotate no_reflect no_shear #
lump $-1 $-1 $55 $7 #
transform $-1 1 0 0 0 1 0 0 0 1 79.803460798974584 35.706124395935134 9.5737570453617167 1 rotate no_reflect no_shear #
lump $-1 $-1 $56 $8 #
transform $-1 1 0 0 0 1 0 0 0 1 79.803460798974584 35.706124395935134 9.5737570453617167 1 rotate no_reflect no_shear #
lump $-1 $-1 $57 $9 #
transform $-1 1 0 0 0 1 0 0 0 1 79.803460798974584 35.706124395935134 9.5737570453617167 1 rotate no_reflect no_shear #
lump $-1 $-1 $58 $10 #
transform $-1 1 0 0 0 1 0 0 0 1 79.803460798974584 35.706124395935134 9.5737570453617167 1 rotate no_reflect no_shear #
lump $-1 $-1 $59 $11 #
transform $-1 1 0 0 0 1 0 0 0 1 79.803460798974584 35.706124395935134 9.5737570453617167 1 rotate no_reflect no_shear #
lump $-1 $-1 $60 $12 #
transform $-1 1 0 0 0 1 0 0 0 1 79.803460798974584 35.706124395935134 9.5737570453617167 1 rotate no_reflect no_shear #
lump $-1 $-1 $61 $13 #
transform $-1 1 0 0 0 1 0 0 0 1 79.803460798974584 35.706124395935134 9.5737570453617167 1 rotate no_reflect no_shear #
lump $-1 $-1 $62 $14 #
transform $-1 1 0 0 0 1 0 0 0 1 79.803460798974584 35.706124395935134 9.5737570453617167 1 rotate no_reflect no_shear #
lump $-1 $-1 $63 $15 #
transform $-1 1 0 0 0 1 0 0 0 1 79.803460798974584 35.706124395935134 9.5737570453617167 1 rotate no_reflect no_shear #
shell $-1 $-1 $-1 $64 $-1 $16 #
shell $-1 $-1 $-1 $65 $-1 $18 #
shell $-1 $-1 $-1 $66 $-1 $20 #
shell $-1 $-1 $-1 $67 $-1 $22 #
shell $-1 $-1 $-1 $68 $-1 $24 #
shell $-1 $-1 $-1 $69 $-1 $26 #
shell $-1 $-1 $-1 $70 $-1 $28 #
shell $-1 $-1 $-1 $71 $-1 $30 #
shell $-1 $-1 $-1 $72 $-1 $32 #
shell $-1 $-1 $-1 $73 $-1 $34 #
shell $-1 $-1 $-1 $74 $-1 $36 #
shell $-1 $-1 $-1 $75 $-1 $38 #
shell $-1 $-1 $-1 $76 $-1 $40 #
shell $-1 $-1 $-1 $77 $-1 $42 #
shell $-1 $-1 $-1 $78 $-1 $44 #
shell $-1 $-1 $-1 $79 $-1 $46 #
face $-1 $80 $81 $48 $-1 $82 forward single #
face $-1 $83 $84 $49 $-1 $85 forward single #
face $-1 $86 $87 $50 $-1 $88 reversed single #
face $-1 $89 $90 $51 $-1 $91 forward single #
face $-1 $92 $93 $52 $-1 $94 forward single #
face $-1 $95 $96 $53 $-1 $97 reversed single #
face $-1 $98 $99 $54 $-1 $100 forward single #
face $-1 $101 $102 $55 $-1 $103 forward single #
face $-1 $104 $105 $56 $-1 $106 reversed single #
face $-1 $107 $108 $57 $-1 $109 forward single #
face $-1 $110 $111 $58 $-1 $112 forward single #
face $-1 $113 $114 $59 $-1 $115 reversed single #
face $-1 $116 $117 $60 $-1 $118 forward single #
face $-1 $119 $120 $61 $-1 $121 forward single #
face $-1 $122 $123 $62 $-1 $124 reversed single #
face $-1 $125 $126 $63 $-1 $127 forward single #
face $-1 $128 $129 $48 $-1 $130 reversed single #
loop $-1 $-1 $131 $64 #
plane-surface $-1 0 0 9.5737570453617167 0 0 1 1 0 0 forward_v I I I I #
face $-1 $132 $133 $49 $-1 $134 reversed single #
loop $-1 $-1 $135 $65 #
plane-surface $-1 0 -35.706124395935134 0 0 1 0 0 0 1 forward_v I I I I #
face $-1 $136 $137 $50 $-1 $138 reversed single #
loop $-1 $-1 $139 $66 #
plane-surface $-1 99.476107447861978 -17.409440685780517 226.93477374701661 0 -1 0 -0.7660444514056185 0 -0.64278759981090561 forward_v I I I I #
face $-1 $140 $141 $51 $-1 $142 forward single #
loop $-1 $143 $144 $67 #
cone-surface $-1 75.936356852158383 -23.931832771212687 5.2194492932172531 -0.7660444514056185 0 -0.64278759981090561 0.64278759981090561 0 -0.7660444514056185 1 I I 0 1 1 forward I I I I #
face $-1 $145 $146 $52 $-1 $147 forward single #
loop $-1 $148 $149 $68 #
cone-surface $-1 75.936356852158383 -20.018397519953385 5.2194492932172531 -0.7660444514056185 0 -0.64278759981090561 0.64278759981090561 0 -0.7660444514056185 1 I I 0 1 1 forward I I I I #
face $-1 $150 $151 $53 $-1 $152 reversed single #
loop $-1 $-1 $153 $69 #
plane-surface $-1 99.476107447861978 0.2957476747913681 226.93477374701661 0 -1 0 -0.7660444514056185 0 -0.64278759981090561 forward_v I I I I #
face $-1 $154 $155 $54 $-1 $156 forward single #
loop $-1 $157 $158 $70 #
cone-surface $-1 75.936356852158383 -6.2266444106408017 5.2194492932172531 -0.7660444514056185 0 -0.64278759981090561 0.64278759981090561 0 -0.7660444514056185 1 I I 0 1 1 forward I I I I #
face $-1 $159 $160 $55 $-1 $161 forward single #
loop $-1 $162 $163 $71 #
cone-surface $-1 75.936356852158383 -2.3132091593815005 5.2194492932172531 -0.7660444514056185 0 -0.64278759981090561 0.64278759981090561 0 -0.7660444514056185 1 I I 0 1 1 forward I I I I #
face $-1 $164 $165 $56 $-1 $166 reversed single #
loop $-1 $-1 $167 $72 #
plane-surface $-1 99.476107447861978 18.000936035363249 226.93477374701661 0 -1 0 -0.7660444514056185 0 -0.64278759981090561 forward_v I I I I #
face $-1 $168 $169 $57 $-1 $170 forward single #
loop $-1 $171 $172 $73 #
cone-surface $-1 75.936356852158383 11.47854394993108 5.2194492932172531 -0.7660444514056185 0 -0.64278759981090561 0.64278759981090561 0 -0.7660444514056185 1 I I 0 1 1 forward I I I I #
face $-1 $173 $174 $58 $-1 $175 forward single #
loop $-1 $176 $177 $74 #
cone-surface $-1 75.936356852158383 15.391979201190381 5.2194492932172531 -0.7660444514056185 0 -0.64278759981090561 0.64278759981090561 0 -0.7660444514056185 1 I I 0 1 1 forward I I I I #
face $-1 $178 $179 $59 $-1 $180 reversed single #
loop $-1 $-1 $181 $75 #
plane-surface $-1 99.476107447861978 26.574775476330093 226.93477374701661 0 1 0 0.7660444514056185 0 0.64278759981090561 forward_v I I I I #
face $-1 $182 $183 $60 $-1 $184 forward single #
loop $-1 $185 $186 $76 #
cone-surface $-1 75.936356852158383 29.183732310502961 5.2194492932172531 -0.7660444514056185 0 -0.64278759981090561 0.64278759981090561 0 -0.7660444514056185 1 I I 0 1 1 forward I I I I #
face $-1 $187 $188 $61 $-1 $189 forward single #
loop $-1 $190 $191 $77 #
cone-surface $-1 75.936356852158383 33.097167561762262 5.2194492932172531 -0.7660444514056185 0 -0.64278759981090561 0.64278759981090561 0 -0.7660444514056185 1 I I 0 1 1 forward I I I I #
face $-1 $192 $193 $62 $-1 $194 reversed single #
loop $-1 $-1 $195 $78 #
plane-surface $-1 -178.06729485443196 -26.540789605385555 126.25767369312494 0 1 0 -0.61566148304635926 0 0.78801074757464917 forward_v I I I I #
face $-1 $196 $197 $63 $-1 $198 forward single #
loop $-1 $199 $200 $79 #
cone-surface $-1 -70.598631804647013 -18.818293116464726 0.6923406798233902 0.61566148304635926 0 -0.78801074757464917 2.3640322427239475 0 1.8469844491390779 1 I I 0 1 3 forward I I I I #
face $-1 $201 $202 $48 $-1 $203 reversed single #
loop $-1 $-1 $204 $80 #
plane-surface $-1 0 0 -9.5737570453617167 0 0 1 1 0 0 forward_v I I I I #
coedge $-1 $205 $206 $207 $208 forward $81 $-1 #
face $-1 $209 $210 $49 $-1 $211 reversed single #
loop $-1 $-1 $212 $83 #
plane-surface $-1 0 0 -9.5737570453617167 0 0 1 1 0 0 forward_v I I I I #
coedge $-1 $213 $214 $215 $216 forward $84 $-1 #
face $-1 $217 $218 $50 $-1 $219 reversed single #
loop $-1 $-1 $220 $86 #
plane-surface $-1 -22.789889248178554 -21.975115145583036 124.34142369986347 0.7660444514056185 0 0.64278759981090561 0.64278759981090561 0 -0.7660444514056185 forward_v I I I I #
coedge $-1 $221 $222 $223 $224 reversed $87 $-1 #
face $-1 $-1 $225 $51 $-1 $226 forward single #
loop $-1 $227 $228 $89 #
cone-surface $-1 74.832153583425679 -23.931832771212687 4.2929127619367335 -0.7660444514056185 0 -0.64278759981090561 0.3213937999054528 0 -0.38302222570280925 1 I I -0.70710678118654746 0.70710678118654746 0.5 forward I I I I #
loop $-1 $-1 $229 $67 #
coedge $-1 $144 $144 $230 $231 reversed $90 $-1 #
face $-1 $-1 $232 $52 $-1 $233 forward single #
loop $-1 $234 $235 $92 #
cone-surface $-1 74.832153583425679 -20.018397519953385 4.2929127619367335 -0.7660444514056185 0 -0.64278759981090561 0.3213937999054528 0 -0.38302222570280925 1 I I -0.70710678118654746 0.70710678118654746 0.5 forward I I I I #
loop $-1 $-1 $236 $68 #
coedge $-1 $149 $149 $237 $238 reversed $93 $-1 #
face $-1 $239 $240 $53 $-1 $241 reversed single #
loop $-1 $-1 $242 $95 #
plane-surface $-1 -22.789889248178554 -4.2699267850111511 124.34142369986347 0.7660444514056185 0 0.64278759981090561 0.64278759981090561 0 -0.7660444514056185 forward_v I I I I #
coedge $-1 $243 $244 $245 $246 reversed $96 $-1 #
face $-1 $-1 $247 $54 $-1 $248 forward single #
loop $-1 $249 $250 $98 #
cone-surface $-1 74.832153583425679 -6.2266444106408017 4.2929127619367335 -0.7660444514056185 0 -0.64278759981090561 0.3213937999054528 0 -0.38302222570280925 1 I I -0.70710678118654746 0.70710678118654746 0.5 forward I I I I #
loop $-1 $-1 $251 $70 #
coedge $-1 $158 $158 $252 $253 reversed $99 $-1 #
face $-1 $-1 $254 $55 $-1 $255 forward single #
loop $-1 $256 $257 $101 #
cone-surface $-1 74.832153583425679 -2.3132091593815005 4.2929127619367335 -0.7660444514056185 0 -0.64278759981090561 0.3213937999054528 0 -0.38302222570280925 1 I I -0.70710678118654746 0.70710678118654746 0.5 forward I I I I #
loop $-1 $-1 $258 $71 #
coedge $-1 $163 $163 $259 $260 reversed $102 $-1 #
face $-1 $261 $262 $56 $-1 $263 reversed single #
loop $-1 $-1 $264 $104 #
plane-surface $-1 -22.789889248178554 13.43526157556073 124.34142369986347 0.7660444514056185 0 0.64278759981090561 0.64278759981090561 0 -0.7660444514056185 forward_v I I I I #
coedge $-1 $265 $266 $267 $268 reversed $105 $-1 #
face $-1 $-1 $269 $57 $-1 $270 forward single #
loop $-1 $271 $272 $107 #
cone-surface $-1 74.832153583425679 11.47854394993108 4.2929127619367335 -0.7660444514056185 0 -0.64278759981090561 0.3213937999054528 0 -0.38302222570280925 1 I I -0.70710678118654746 0.70710678118654746 0.5 forward I I I I #
loop $-1 $-1 $273 $73 #
coedge $-1 $172 $172 $274 $275 reversed $108 $-1 #
face $-1 $-1 $276 $58 $-1 $277 forward single #
loop $-1 $278 $279 $110 #
cone-surface $-1 74.832153583425679 15.391979201190381 4.2929127619367335 -0.7660444514056185 0 -0.64278759981090561 0.3213937999054528 0 -0.38302222570280925 1 I I -0.70710678118654746 0.70710678118654746 0.5 forward I I I I #
loop $-1 $-1 $280 $74 #
coedge $-1 $177 $177 $281 $282 reversed $111 $-1 #
face $-1 $283 $284 $59 $-1 $285 reversed single #
loop $-1 $-1 $286 $113 #
plane-surface $-1 -22.789889248178554 31.140449936132612 124.34142369986347 0.7660444514056185 0 0.64278759981090561 0.64278759981090561 0 -0.7660444514056185 forward_v I I I I #
coedge $-1 $287 $288 $289 $290 reversed $114 $-1 #
face $-1 $-1 $291 $60 $-1 $292 forward single #
loop $-1 $293 $294 $116 #
cone-surface $-1 74.832153583425679 29.183732310502961 4.2929127619367335 -0.7660444514056185 0 -0.64278759981090561 0.3213937999054528 0 -0.38302222570280925 1 I I -0.70710678118654746 0.70710678118654746 0.5 forward I I I I #
loop $-1 $-1 $295 $76 #
coedge $-1 $186 $186 $296 $297 reversed $117 $-1 #
face $-1 $-1 $298 $61 $-1 $299 forward single #
loop $-1 $300 $301 $119 #
cone-surface $-1 74.832153583425679 33.097167561762262 4.2929127619367335 -0.7660444514056185 0 -0.64278759981090561 0.3213937999054528 0 -0.38302222570280925 1 I I -0.70710678118654746 0.70710678118654746 0.5 forward I I I I #
loop $-1 $-1 $302 $77 #
coedge $-1 $191 $191 $303 $304 reversed $120 $-1 #
face $-1 $305 $306 $62 $-1 $307 reversed single #
loop $-1 $-1 $308 $122 #
plane-surface $-1 -79.803460798974598 -18.818293116464726 0.48570408663660203 -0.61566148304635926 0 0.78801074757464917 0.78801074757464917 0 0.61566148304635926 forward_v I I I I #
coedge $-1 $309 $310 $311 $312 reversed $123 $-1 #
face $-1 $-1 $313 $63 $-1 $314 forward single #
loop $-1 $315 $316 $125 #
cone-surface $-1 -66.28639913701609 -18.818293116464726 -4.8270653277143394 0.61566148304635926 0 -0.78801074757464917 1.1820161213619738 0 0.92349222456953894 1 I I -0.70710678118654757 0.70710678118654757 1.5 forward I I I I #
loop $-1 $-1 $317 $79 #
coedge $-1 $200 $200 $318 $319 reversed $126 $-1 #
face $-1 $320 $321 $48 $-1 $322 reversed single #
loop $-1 $-1 $323 $128 #
plane-surface $-1 0 -35.706124395935134 0 0 1 0 0 0 1 forward_v I I I I #
coedge $-1 $324 $325 $326 $327 forward $129 $-1 #
coedge $-1 $328 $131 $329 $330 forward $81 $-1 #
coedge $-1 $131 $328 $331 $332 forward $81 $-1 #
coedge $-1 $333 $334 $131 $208 reversed $335 $-1 #
edge $-1 $336 -35.706124395935134 $337 35.706124395935134 $207 $338 forward 7 unknown #
face $-1 $339 $340 $49 $-1 $341 forward single #
loop $-1 $-1 $342 $132 #
plane-surface $-1 79.803460798974584 0 0 -1 0 0 0 0 1 forward_v I I I I #
coedge $-1 $343 $344 $345 $346 forward $133 $-1 #
coedge $-1 $345 $135 $342 $347 reversed $84 $-1 #
coedge $-1 $135 $345 $348 $349 reversed $84 $-1 #
coedge $-1 $350 $351 $135 $216 reversed $340 $-1 #
edge $-1 $352 -79.803460798974584 $353 79.803460798974584 $215 $354 forward 7 unknown #
face $-1 $355 $356 $50 $-1 $357 reversed single #
loop $-1 $-1 $358 $136 #
plane-surface $-1 99.476107447861978 -26.540789605385555 226.93477374701661 0 1 0 0.7660444514056185 0 0.64278759981090561 forward_v I I I I #
coedge $-1 $359 $360 $361 $362 reversed $137 $-1 #
coedge $-1 $222 $139 $363 $364 reversed $87 $-1 #
coedge $-1 $139 $221 $359 $365 reversed $87 $-1 #
coedge $-1 $361 $366 $139 $224 forward $367 $-1 #
edge $-1 $368 -30.065407075043595 $369 -23.773561267470953 $223 $370 forward 7 unknown #
loop $-1 $-1 $230 $140 #
plane-surface $-1 -22.789889248178554 -21.975115145583036 124.34142369986347 0.7660444514056185 0 0.64278759981090561 0.64278759981090561 0 -0.7660444514056185 forward_v I I I I #
loop $-1 $-1 $371 $89 #
coedge $-1 $228 $228 $229 $372 reversed $141 $-1 #
coedge $-1 $229 $229 $228 $372 forward $143 $-1 #
coedge $-1 $230 $230 $144 $231 forward $225 $-1 #
edge $-1 $373 0 $373 6.2831853071796004 $230 $374 forward 7 unknown #
loop $-1 $-1 $237 $145 #
plane-surface $-1 -22.789889248178554 -21.975115145583036 124.34142369986347 0.7660444514056185 0 0.64278759981090561 0.64278759981090561 0 -0.7660444514056185 forward_v I I I I #
loop $-1 $-1 $375 $92 #
coedge $-1 $235 $235 $236 $376 reversed $146 $-1 #
coedge $-1 $236 $236 $235 $376 forward $148 $-1 #
coedge $-1 $237 $237 $149 $238 forward $232 $-1 #
edge $-1 $377 0 $377 6.2831853071796004 $237 $378 forward 7 unknown #
face $-1 $379 $380 $53 $-1 $381 reversed single #
loop $-1 $-1 $382 $150 #
plane-surface $-1 99.476107447861978 -8.8356012448136703 226.93477374701661 0 1 0 0.7660444514056185 0 0.64278759981090561 forward_v I I I I #
coedge $-1 $383 $384 $385 $386 reversed $151 $-1 #
coedge $-1 $244 $153 $387 $388 reversed $96 $-1 #
coedge $-1 $153 $243 $383 $389 reversed $96 $-1 #
coedge $-1 $385 $390 $153 $246 forward $391 $-1 #
edge $-1 $392 -30.065407075043595 $393 -23.773561267470953 $245 $394 forward 7 unknown #
loop $-1 $-1 $252 $154 #
plane-surface $-1 -22.789889248178554 -4.2699267850111511 124.34142369986347 0.7660444514056185 0 0.64278759981090561 0.64278759981090561 0 -0.7660444514056185 forward_v I I I I #
loop $-1 $-1 $395 $98 #
coedge $-1 $250 $250 $251 $396 reversed $155 $-1 #
coedge $-1 $251 $251 $250 $396 forward $157 $-1 #
coedge $-1 $252 $252 $158 $253 forward $247 $-1 #
edge $-1 $397 0 $397 6.2831853071796004 $252 $398 forward 7 unknown #
loop $-1 $-1 $259 $159 #
plane-surface $-1 -22.789889248178554 -4.2699267850111511 124.34142369986347 0.7660444514056185 0 0.64278759981090561 0.64278759981090561 0 -0.7660444514056185 forward_v I I I I #
loop $-1 $-1 $399 $101 #
coedge $-1 $257 $257 $258 $400 reversed $160 $-1 #
coedge $-1 $258 $258 $257 $400 forward $162 $-1 #
coedge $-1 $259 $259 $163 $260 forward $254 $-1 #
edge $-1 $401 0 $401 6.2831853071796004 $259 $402 forward 7 unknown #
face $-1 $403 $404 $56 $-1 $405 reversed single #
loop $-1 $-1 $406 $164 #
plane-surface $-1 99.476107447861978 8.8695871157582111 226.93477374701661 0 1 0 0.7660444514056185 0 0.64278759981090561 forward_v I I I I #
coedge $-1 $407 $408 $409 $410 reversed $165 $-1 #
coedge $-1 $266 $167 $411 $412 reversed $105 $-1 #
coedge $-1 $167 $265 $407 $413 reversed $105 $-1 #
coedge $-1 $409 $414 $167 $268 forward $415 $-1 #
edge $-1 $416 -30.065407075043595 $417 -23.773561267470953 $267 $418 forward 7 unknown #
loop $-1 $-1 $274 $168 #
plane-surface $-1 -22.789889248178554 13.43526157556073 124.34142369986347 0.7660444514056185 0 0.64278759981090561 0.64278759981090561 0 -0.7660444514056185 forward_v I I I I #
loop $-1 $-1 $419 $107 #
coedge $-1 $272 $272 $273 $420 reversed $169 $-1 #
coedge $-1 $273 $273 $272 $420 forward $171 $-1 #
coedge $-1 $274 $274 $172 $275 forward $269 $-1 #
edge $-1 $421 0 $421 6.2831853071796004 $274 $422 forward 7 unknown #
loop $-1 $-1 $281 $173 #
plane-surface $-1 -22.789889248178554 13.43526157556073 124.34142369986347 0.7660444514056185 0 0.64278759981090561 0.64278759981090561 0 -0.7660444514056185 forward_v I I I I #
loop $-1 $-1 $423 $110 #
coedge $-1 $279 $279 $280 $424 reversed $174 $-1 #
coedge $-1 $280 $280 $279 $424 forward $176 $-1 #
coedge $-1 $281 $281 $177 $282 forward $276 $-1 #
edge $-1 $425 0 $425 6.2831853071796004 $281 $426 forward 7 unknown #
face $-1 $427 $428 $59 $-1 $429 forward single #
loop $-1 $-1 $289 $178 #
plane-surface $-1 79.803460798974584 0 0 -1 0 0 0 0 1 forward_v I I I I #
coedge $-1 $430 $431 $432 $433 reversed $179 $-1 #
coedge $-1 $288 $181 $434 $435 reversed $114 $-1 #
coedge $-1 $181 $287 $430 $436 reversed $114 $-1 #
coedge $-1 $432 $437 $181 $290 forward $284 $-1 #
edge $-1 $438 103.89362982814659 $439 111.39195986968537 $289 $440 forward 7 unknown #
loop $-1 $-1 $296 $182 #
plane-surface $-1 -22.789889248178554 31.140449936132612 124.34142369986347 0.7660444514056185 0 0.64278759981090561 0.64278759981090561 0 -0.7660444514056185 forward_v I I I I #
loop $-1 $-1 $441 $116 #
coedge $-1 $294 $294 $295 $442 reversed $183 $-1 #
coedge $-1 $295 $295 $294 $442 forward $185 $-1 #
coedge $-1 $296 $296 $186 $297 forward $291 $-1 #
edge $-1 $443 0 $443 6.2831853071796004 $296 $444 forward 7 unknown #
loop $-1 $-1 $303 $187 #
plane-surface $-1 -22.789889248178554 31.140449936132612 124.34142369986347 0.7660444514056185 0 0.64278759981090561 0.64278759981090561 0 -0.7660444514056185 forward_v I I I I #
loop $-1 $-1 $445 $119 #
coedge $-1 $301 $301 $302 $446 reversed $188 $-1 #
coedge $-1 $302 $302 $301 $446 forward $190 $-1 #
coedge $-1 $303 $303 $191 $304 forward $298 $-1 #
edge $-1 $447 0 $447 6.2831853071796004 $303 $448 forward 7 unknown #
face $-1 $449 $450 $62 $-1 $451 reversed single #
loop $-1 $-1 $452 $192 #
plane-surface $-1 -178.06729485443196 -11.095796627543898 126.25767369312494 0 -1 0 0.61566148304635926 0 -0.78801074757464917 forward_v I I I I #
coedge $-1 $453 $454 $455 $456 reversed $193 $-1 #
coedge $-1 $310 $195 $457 $458 reversed $123 $-1 #
coedge $-1 $195 $309 $453 $459 reversed $123 $-1 #
coedge $-1 $455 $460 $195 $312 forward $461 $-1 #
edge $-1 $462 9.2301866282413982 $463 20.862363730773751 $311 $464 forward 7 unknown #
loop $-1 $-1 $318 $196 #
plane-surface $-1 -79.803460798974598 -18.818293116464726 0.48570408663660203 -0.61566148304635926 0 0.78801074757464917 0.78801074757464917 0 0.61566148304635926 forward_v I I I I #
loop $-1 $-1 $465 $125 #
coedge $-1 $316 $316 $317 $466 reversed $197 $-1 #
coedge $-1 $317 $317 $316 $466 forward $199 $-1 #
coedge $-1 $318 $318 $200 $319 forward $313 $-1 #
edge $-1 $467 0 $467 6.2831853071796004 $318 $468 forward 7 unknown #
face $-1 $469 $470 $48 $-1 $471 reversed single #
loop $-1 $-1 $472 $201 #
plane-surface $-1 -79.803460798974584 0 0 1 0 0 0 0 -1 forward_v I I I I #
coedge $-1 $473 $331 $474 $475 forward $202 $-1 #
coedge $-1 $476 $204 $473 $477 forward $129 $-1 #
coedge $-1 $204 $476 $478 $479 forward $129 $-1 #
coedge $-1 $334 $333 $204 $327 reversed $335 $-1 #
edge $-1 $480 -35.706124395935134 $481 35.706124395935134 $326 $482 forward 7 unknown #
coedge $-1 $206 $205 $483 $484 forward $81 $-1 #
coedge $-1 $485 $486 $205 $330 reversed $470 $-1 #
edge $-1 $337 -79.803460798974584 $487 79.803460798974584 $329 $488 forward 7 unknown #
coedge $-1 $323 $489 $206 $332 reversed $202 $-1 #
edge $-1 $490 -79.803460798974584 $336 79.803460798974584 $331 $491 forward 7 unknown #
coedge $-1 $326 $207 $489 $492 forward $335 $-1 #
coedge $-1 $207 $326 $485 $493 reversed $335 $-1 #
loop $-1 $-1 $333 $469 #
vertex $-1 $208 $494 #
vertex $-1 $208 $495 #
straight-curve $-1 79.803460798974584 0 9.5737570453617167 0 1 0 I I #
face $-1 $496 $497 $49 $-1 $498 reversed single #
loop $-1 $-1 $351 $209 #
plane-surface $-1 0 -40.288791791209924 -5.9517581871039873 0 0 1 1 0 0 forward_v I I I I #
coedge $-1 $499 $500 $213 $347 forward $210 $-1 #
coedge $-1 $501 $212 $500 $502 forward $133 $-1 #
coedge $-1 $212 $501 $503 $504 forward $133 $-1 #
coedge $-1 $214 $213 $212 $346 reversed $84 $-1 #
edge $-1 $505 -79.803460798974584 $506 79.803460798974584 $212 $507 forward 7 unknown #
edge $-1 $506 -9.5737570453617167 $353 -5.9517581871039873 $342 $508 forward 7 unknown #
coedge $-1 $503 $509 $214 $349 forward $510 $-1 #
edge $-1 $352 5.9517581871039873 $505 9.5737570453617167 $348 $511 forward 7 unknown #
coedge $-1 $512 $215 $509 $513 forward $340 $-1 #
coedge $-1 $215 $512 $499 $514 forward $340 $-1 #
vertex $-1 $349 $515 #
vertex $-1 $514 $516 #
straight-curve $-1 0 -35.706124395935134 -5.9517581871039873 1 0 0 I I #
face $-1 $-1 $367 $50 $-1 $517 forward single #
loop $-1 $-1 $518 $217 #
plane-surface $-1 79.803460798974584 0 0 -1 0 0 0 0 1 forward_v I I I I #
coedge $-1 $519 $520 $521 $522 reversed $218 $-1 #
coedge $-1 $523 $220 $222 $365 forward $137 $-1 #
coedge $-1 $220 $523 $519 $524 forward $137 $-1 #
coedge $-1 $521 $223 $220 $362 forward $367 $-1 #
edge $-1 $369 6.4218831129889988 $525 15.553232032594037 $361 $526 forward 7 unknown #
coedge $-1 $527 $528 $221 $364 forward $356 $-1 #
edge $-1 $529 -111.39195986968537 $368 -103.89362982814659 $363 $530 forward 7 unknown #
edge $-1 $369 149.81854700979042 $529 159.6069215979492 $222 $531 forward 7 unknown #
coedge $-1 $223 $521 $527 $532 forward $367 $-1 #
loop $-1 $-1 $521 $355 #
vertex $-1 $364 $533 #
vertex $-1 $224 $534 #
straight-curve $-1 49.738053723930989 -17.409440685780517 9.5737570453617167 -1 0 0 I I #
coedge $-1 $371 $371 $-1 $535 reversed $227 $-1 #
edge $-1 $536 0 $536 6.2831853071796004 $228 $537 forward 7 unknown #
vertex $-1 $231 $538 #
ellipse-curve $-1 76.657537895188284 -23.931832771212687 5.8245920245923211 0.7660444514056185 0 0.64278759981090561 0.64278759981090561 0 -0.7660444514056185 1 I I #
coedge $-1 $375 $375 $-1 $539 reversed $234 $-1 #
edge $-1 $540 0 $540 6.2831853071796004 $235 $541 forward 7 unknown #
vertex $-1 $238 $542 #
ellipse-curve $-1 76.657537895188284 -20.018397519953385 5.8245920245923211 0.7660444514056185 0 0.64278759981090561 0.64278759981090561 0 -0.7660444514056185 1 I I #
face $-1 $-1 $391 $53 $-1 $543 forward single #
loop $-1 $-1 $544 $239 #
plane-surface $-1 79.803460798974584 0 0 -1 0 0 0 0 1 forward_v I I I I #
coedge $-1 $545 $546 $547 $548 reversed $240 $-1 #
coedge $-1 $549 $242 $244 $389 forward $151 $-1 #
coedge $-1 $242 $549 $545 $550 forward $151 $-1 #
coedge $-1 $547 $245 $242 $386 forward $391 $-1 #
edge $-1 $393 -2.4307110672969436 $551 6.7006378523080947 $385 $552 forward 7 unknown #
coedge $-1 $553 $554 $243 $388 forward $380 $-1 #
edge $-1 $555 -111.39195986968537 $392 -103.89362982814659 $387 $556 forward 7 unknown #
edge $-1 $393 149.81854700979042 $555 159.6069215979492 $244 $557 forward 7 unknown #
coedge $-1 $245 $547 $553 $558 forward $391 $-1 #
loop $-1 $-1 $547 $379 #
vertex $-1 $388 $559 #
vertex $-1 $246 $560 #
straight-curve $-1 49.738053723930989 0.2957476747913681 9.5737570453617167 -1 0 0 I I #
coedge $-1 $395 $395 $-1 $561 reversed $249 $-1 #
edge $-1 $562 0 $562 6.2831853071796004 $250 $563 forward 7 unknown #
vertex $-1 $253 $564 #
ellipse-curve $-1 76.657537895188284 -6.2266444106408017 5.8245920245923211 0.7660444514056185 0 0.64278759981090561 0.64278759981090561 0 -0.7660444514056185 1 I I #
coedge $-1 $399 $399 $-1 $565 reversed $256 $-1 #
edge $-1 $566 0 $566 6.2831853071796004 $257 $567 forward 7 unknown #
vertex $-1 $260 $568 #
ellipse-curve $-1 76.657537895188284 -2.3132091593815005 5.8245920245923211 0.7660444514056185 0 0.64278759981090561 0.64278759981090561 0 -0.7660444514056185 1 I I #
face $-1 $-1 $415 $56 $-1 $569 forward single #
loop $-1 $-1 $570 $261 #
plane-surface $-1 79.803460798974584 0 0 -1 0 0 0 0 1 forward_v I I I I #
coedge $-1 $571 $572 $573 $574 reversed $262 $-1 #
coedge $-1 $575 $264 $266 $413 forward $165 $-1 #
coedge $-1 $264 $575 $571 $576 forward $165 $-1 #
coedge $-1 $573 $267 $264 $410 forward $415 $-1 #
edge $-1 $417 -11.283305247582884 $577 -2.151956327977846 $409 $578 forward 7 unknown #
coedge $-1 $579 $580 $265 $412 forward $404 $-1 #
edge $-1 $581 -111.39195986968537 $416 -103.89362982814659 $411 $582 forward 7 unknown #
edge $-1 $417 149.81854700979042 $581 159.6069215979492 $266 $583 forward 7 unknown #
coedge $-1 $267 $573 $579 $584 forward $415 $-1 #
loop $-1 $-1 $573 $403 #
vertex $-1 $412 $585 #
vertex $-1 $268 $586 #
straight-curve $-1 49.738053723930989 18.000936035363249 9.5737570453617167 -1 0 0 I I #
coedge $-1 $419 $419 $-1 $587 reversed $271 $-1 #
edge $-1 $588 0 $588 6.2831853071796004 $272 $589 forward 7 unknown #
vertex $-1 $275 $590 #
ellipse-curve $-1 76.657537895188284 11.47854394993108 5.8245920245923211 0.7660444514056185 0 0.64278759981090561 0.64278759981090561 0 -0.7660444514056185 1 I I #
coedge $-1 $423 $423 $-1 $591 reversed $278 $-1 #
edge $-1 $592 0 $592 6.2831853071796004 $279 $593 forward 7 unknown #
vertex $-1 $282 $594 #
ellipse-curve $-1 76.657537895188284 15.391979201190381 5.8245920245923211 0.7660444514056185 0 0.64278759981090561 0.64278759981090561 0 -0.7660444514056185 1 I I #
face $-1 $-1 $595 $59 $-1 $596 reversed single #
loop $-1 $-1 $434 $283 #
plane-surface $-1 0 0 9.5737570453617167 0 0 1 1 0 0 forward_v I I I I #
coedge $-1 $597 $286 $288 $436 forward $179 $-1 #
coedge $-1 $286 $597 $598 $599 reversed $179 $-1 #
coedge $-1 $600 $289 $286 $433 forward $284 $-1 #
edge $-1 $439 11.004550508263787 $601 20.135899427868829 $432 $602 forward 7 unknown #
coedge $-1 $603 $604 $287 $435 forward $428 $-1 #
edge $-1 $605 23.773561267470953 $438 30.065407075043595 $434 $606 forward 7 unknown #
edge $-1 $439 -159.6069215979492 $605 -149.81854700979042 $288 $607 forward 7 unknown #
coedge $-1 $289 $600 $603 $608 reversed $284 $-1 #
vertex $-1 $608 $609 #
vertex $-1 $290 $610 #
straight-curve $-1 79.803460798974584 26.574775476330093 113.4673868735083 0 0 -1 I I #
coedge $-1 $441 $441 $-1 $611 reversed $293 $-1 #
edge $-1 $612 0 $612 6.2831853071796004 $294 $613 forward 7 unknown #
vertex $-1 $297 $614 #
ellipse-curve $-1 76.657537895188284 29.183732310502961 5.8245920245923211 0.7660444514056185 0 0.64278759981090561 0.64278759981090561 0 -0.7660444514056185 1 I I #
coedge $-1 $445 $445 $-1 $615 reversed $300 $-1 #
edge $-1 $616 0 $616 6.2831853071796004 $301 $617 forward 7 unknown #
vertex $-1 $304 $618 #
ellipse-curve $-1 76.657537895188284 33.097167561762262 5.8245920245923211 0.7660444514056185 0 0.64278759981090561 0.64278759981090561 0 -0.7660444514056185 1 I I #
face $-1 $-1 $461 $62 $-1 $619 forward single #
loop $-1 $-1 $620 $305 #
plane-surface $-1 -79.803460798974584 0 0 1 0 0 0 0 -1 forward_v I I I I #
coedge $-1 $621 $622 $623 $624 reversed $306 $-1 #
coedge $-1 $625 $308 $310 $459 forward $193 $-1 #
coedge $-1 $308 $625 $621 $626 forward $193 $-1 #
coedge $-1 $623 $311 $308 $456 forward $461 $-1 #
edge $-1 $463 -17.13164304715319 $627 -1.6866500693115345 $455 $628 forward 7 unknown #
coedge $-1 $629 $630 $309 $458 forward $450 $-1 #
edge $-1 $631 -62.643132759925855 $462 -53.555079801200755 $457 $632 forward 7 unknown #
edge $-1 $463 -14.761444737059804 $631 -1.8033521786330445e-014 $310 $633 forward 7 unknown #
coedge $-1 $311 $623 $629 $634 forward $461 $-1 #
loop $-1 $-1 $623 $449 #
vertex $-1 $458 $635 #
vertex $-1 $312 $636 #
straight-curve $-1 -89.033647427215982 -26.540789605385555 9.5737570453617167 1 0 0 I I #
coedge $-1 $465 $465 $-1 $637 reversed $315 $-1 #
edge $-1 $638 0 $638 6.2831853071796004 $316 $639 forward 7 unknown #
vertex $-1 $319 $640 #
ellipse-curve $-1 -73.987372247708407 -18.818293116464726 5.0297305659991647 -0.61566148304635926 0 0.78801074757464917 2.3640322427239475 0 1.8469844491390779 1 I I #
face $-1 $-1 $335 $48 $-1 $641 reversed single #
loop $-1 $-1 $485 $320 #
plane-surface $-1 0 35.706124395935134 0 0 -1 0 0 0 -1 forward_v I I I I #
coedge $-1 $642 $483 $486 $643 forward $321 $-1 #
coedge $-1 $489 $323 $324 $477 reversed $202 $-1 #
coedge $-1 $483 $642 $323 $475 reversed $321 $-1 #
edge $-1 $490 -9.5737570453617167 $644 9.5737570453617167 $474 $645 forward 7 unknown #
coedge $-1 $325 $324 $642 $646 forward $129 $-1 #
edge $-1 $481 -79.803460798974584 $644 79.803460798974584 $473 $647 forward 7 unknown #
coedge $-1 $486 $485 $325 $479 reversed $470 $-1 #
edge $-1 $648 -79.803460798974584 $480 79.803460798974584 $478 $649 forward 7 unknown #
vertex $-1 $327 $650 #
vertex $-1 $492 $651 #
straight-curve $-1 79.803460798974584 0 -9.5737570453617167 0 -1 0 I I #
coedge $-1 $472 $474 $328 $484 reversed $321 $-1 #
edge $-1 $487 -35.706124395935134 $490 35.706124395935134 $483 $652 forward 7 unknown #
coedge $-1 $478 $329 $334 $493 forward $470 $-1 #
coedge $-1 $329 $478 $472 $643 reversed $470 $-1 #
vertex $-1 $330 $653 #
straight-curve $-1 0 35.706124395935134 9.5737570453617167 -1 0 0 I I #
coedge $-1 $331 $473 $333 $492 reversed $202 $-1 #
vertex $-1 $484 $654 #
straight-curve $-1 0 -35.706124395935134 9.5737570453617167 1 0 0 I I #
edge $-1 $336 -9.5737570453617167 $481 9.5737570453617167 $333 $655 forward 7 unknown #
edge $-1 $337 -9.5737570453617167 $480 9.5737570453617167 $334 $656 forward 7 unknown #
point $-1 79.803460798974584 -35.706124395935134 9.5737570453617167 #
point $-1 79.803460798974584 35.706124395935134 9.5737570453617167 #
face $-1 $-1 $510 $49 $-1 $657 reversed single #
loop $-1 $-1 $658 $339 #
plane-surface $-1 0 -44.871459186484714 -7.762757616232852 0 1 0 0 0 1 forward_v I I I I #
coedge $-1 $659 $342 $351 $514 reversed $210 $-1 #
coedge $-1 $342 $659 $343 $502 reversed $210 $-1 #
coedge $-1 $344 $343 $660 $661 forward $133 $-1 #
edge $-1 $506 35.706124395935134 $662 44.871459186484714 $500 $663 forward 7 unknown #
coedge $-1 $664 $348 $344 $504 reversed $510 $-1 #
edge $-1 $665 -44.871459186484714 $505 -35.706124395935134 $503 $666 forward 7 unknown #
vertex $-1 $349 $667 #
vertex $-1 $502 $668 #
straight-curve $-1 0 -35.706124395935134 -9.5737570453617167 1 0 0 I I #
straight-curve $-1 79.803460798974584 -35.706124395935134 0 0 0 1 I I #
coedge $-1 $348 $664 $350 $513 reversed $510 $-1 #
loop $-1 $-1 $348 $496 #
straight-curve $-1 -79.803460798974584 -35.706124395935134 0 0 0 -1 I I #
coedge $-1 $351 $350 $669 $670 forward $340 $-1 #
edge $-1 $352 -4.5826673952747896 $671 4.5826673952747896 $509 $672 forward 7 unknown #
edge $-1 $673 -4.5826673952747896 $353 4.5826673952747896 $499 $674 forward 7 unknown #
point $-1 -79.803460798974584 -35.706124395935134 -5.9517581871039873 #
point $-1 79.803460798974584 -35.706124395935134 -5.9517581871039873 #
plane-surface $-1 0 0 9.5737570453617167 0 0 1 1 0 0 forward_v I I I I #
coedge $-1 $528 $527 $520 $675 forward $356 $-1 #
coedge $-1 $520 $358 $360 $524 reversed $218 $-1 #
coedge $-1 $358 $519 $518 $675 reversed $218 $-1 #
coedge $-1 $366 $361 $358 $522 forward $367 $-1 #
edge $-1 $525 23.773561267470953 $676 30.065407075043595 $521 $677 forward 7 unknown #
coedge $-1 $360 $359 $528 $678 reversed $137 $-1 #
edge $-1 $679 -159.6069215979492 $525 -149.81854700979042 $519 $680 forward 7 unknown #
vertex $-1 $362 $681 #
straight-curve $-1 73.511614991401942 -10.987557572791518 9.5737570453617167 0 -1 0 I I #
coedge $-1 $518 $363 $366 $532 reversed $356 $-1 #
coedge $-1 $363 $518 $523 $678 forward $356 $-1 #
vertex $-1 $364 $682 #
straight-curve $-1 79.803460798974584 -17.409440685780517 113.4673868735083 0 0 1 I I #
straight-curve $-1 -22.789889248178554 -17.409440685780517 124.34142369986347 0.64278759981090561 0 -0.7660444514056185 I I #
edge $-1 $676 -26.540789605385555 $368 -17.409440685780517 $527 $683 forward 7 unknown #
point $-1 79.803460798974584 -17.409440685780517 9.5737570453617167 #
point $-1 73.511614991401942 -17.409440685780517 9.5737570453617309 #
edge $-1 $684 1 $684 0 $371 $-1 forward 7 unknown #
vertex $-1 $372 $685 #
ellipse-curve $-1 75.215175809128482 -23.931832771212687 4.6143065618421861 0.7660444514056185 0 0.64278759981090561 0.64278759981090561 0 -0.7660444514056185 1 I I #
point $-1 77.300325494999186 -23.931832771212687 5.0585475731867016 #
edge $-1 $686 1 $686 0 $375 $-1 forward 7 unknown #
vertex $-1 $376 $687 #
ellipse-curve $-1 75.215175809128482 -20.018397519953385 4.6143065618421861 0.7660444514056185 0 0.64278759981090561 0.64278759981090561 0 -0.7660444514056185 1 I I #
point $-1 77.300325494999186 -20.018397519953385 5.0585475731867016 #
plane-surface $-1 0 0 9.5737570453617167 0 0 1 1 0 0 forward_v I I I I #
coedge $-1 $554 $553 $546 $688 forward $380 $-1 #
coedge $-1 $546 $382 $384 $550 reversed $240 $-1 #
coedge $-1 $382 $545 $544 $688 reversed $240 $-1 #
coedge $-1 $390 $385 $382 $548 forward $391 $-1 #
edge $-1 $551 23.773561267470953 $689 30.065407075043595 $547 $690 forward 7 unknown #
coedge $-1 $384 $383 $554 $691 reversed $151 $-1 #
edge $-1 $692 -159.6069215979492 $551 -149.81854700979042 $545 $693 forward 7 unknown #
vertex $-1 $386 $694 #
straight-curve $-1 73.511614991401942 -2.1349633925055755 9.5737570453617167 0 -1 0 I I #
coedge $-1 $544 $387 $390 $558 reversed $380 $-1 #
coedge $-1 $387 $544 $549 $691 forward $380 $-1 #
vertex $-1 $388 $695 #
straight-curve $-1 79.803460798974584 0.2957476747913681 113.4673868735083 0 0 1 I I #
straight-curve $-1 -22.789889248178554 0.2957476747913681 124.34142369986347 0.64278759981090561 0 -0.7660444514056185 I I #
edge $-1 $689 -8.8356012448136703 $392 0.2957476747913681 $553 $696 forward 7 unknown #
point $-1 79.803460798974584 0.2957476747913681 9.5737570453617167 #
point $-1 73.511614991401942 0.2957476747913681 9.5737570453617309 #
edge $-1 $697 1 $697 0 $395 $-1 forward 7 unknown #
vertex $-1 $396 $698 #
ellipse-curve $-1 75.215175809128482 -6.2266444106408017 4.6143065618421861 0.7660444514056185 0 0.64278759981090561 0.64278759981090561 0 -0.7660444514056185 1 I I #
point $-1 77.300325494999186 -6.2266444106408017 5.0585475731867016 #
edge $-1 $699 1 $699 0 $399 $-1 forward 7 unknown #
vertex $-1 $400 $700 #
ellipse-curve $-1 75.215175809128482 -2.3132091593815005 4.6143065618421861 0.7660444514056185 0 0.64278759981090561 0.64278759981090561 0 -0.7660444514056185 1 I I #
point $-1 77.300325494999186 -2.3132091593815005 5.0585475731867016 #
plane-surface $-1 0 0 9.5737570453617167 0 0 1 1 0 0 forward_v I I I I #
coedge $-1 $580 $579 $572 $701 forward $404 $-1 #
coedge $-1 $572 $406 $408 $576 reversed $262 $-1 #
coedge $-1 $406 $571 $570 $701 reversed $262 $-1 #
coedge $-1 $414 $409 $406 $574 forward $415 $-1 #
edge $-1 $577 23.773561267470953 $702 30.065407075043595 $573 $703 forward 7 unknown #
coedge $-1 $408 $407 $580 $704 reversed $165 $-1 #
edge $-1 $705 -159.6069215979492 $577 -149.81854700979042 $571 $706 forward 7 unknown #
vertex $-1 $410 $707 #
straight-curve $-1 73.511614991401942 6.7176307877803652 9.5737570453617167 0 -1 0 I I #
coedge $-1 $570 $411 $414 $584 reversed $404 $-1 #
coedge $-1 $411 $570 $575 $704 forward $404 $-1 #
vertex $-1 $412 $708 #
straight-curve $-1 79.803460798974584 18.000936035363249 113.4673868735083 0 0 1 I I #
straight-curve $-1 -22.789889248178554 18.000936035363249 124.34142369986347 0.64278759981090561 0 -0.7660444514056185 I I #
edge $-1 $702 8.8695871157582111 $416 18.000936035363249 $579 $709 forward 7 unknown #
point $-1 79.803460798974584 18.000936035363249 9.5737570453617167 #
point $-1 73.511614991401942 18.000936035363249 9.5737570453617309 #
edge $-1 $710 1 $710 0 $419 $-1 forward 7 unknown #
vertex $-1 $420 $711 #
ellipse-curve $-1 75.215175809128482 11.47854394993108 4.6143065618421861 0.7660444514056185 0 0.64278759981090561 0.64278759981090561 0 -0.7660444514056185 1 I I #
point $-1 77.300325494999186 11.47854394993108 5.0585475731867016 #
edge $-1 $712 1 $712 0 $423 $-1 forward 7 unknown #
vertex $-1 $424 $713 #
ellipse-curve $-1 75.215175809128482 15.391979201190381 4.6143065618421861 0.7660444514056185 0 0.64278759981090561 0.64278759981090561 0 -0.7660444514056185 1 I I #
point $-1 77.300325494999186 15.391979201190381 5.0585475731867016 #
loop $-1 $-1 $598 $427 #
plane-surface $-1 0 35.706124395935134 0 0 -1 0 0 0 -1 forward_v I I I I #
coedge $-1 $431 $430 $604 $714 reversed $179 $-1 #
coedge $-1 $715 $716 $431 $599 forward $595 $-1 #
edge $-1 $601 -104.65686364047491 $717 -94.868489052316122 $598 $718 forward 7 unknown #
coedge $-1 $437 $432 $716 $719 reversed $284 $-1 #
vertex $-1 $433 $720 #
straight-curve $-1 79.803460798974584 15.570224968066306 2.0754270038229379 0 1 0 I I #
coedge $-1 $721 $434 $437 $608 forward $428 $-1 #
coedge $-1 $434 $721 $597 $714 forward $428 $-1 #
vertex $-1 $435 $722 #
straight-curve $-1 49.738053723930989 26.574775476330093 9.5737570453617167 1 0 0 I I #
straight-curve $-1 -22.789889248178554 26.574775476330093 124.34142369986347 -0.64278759981090561 0 0.7660444514056185 I I #
edge $-1 $438 26.574775476330093 $723 35.706124395935134 $437 $724 forward 7 unknown #
point $-1 79.803460798974584 26.574775476330093 9.5737570453617167 #
point $-1 79.803460798974584 26.574775476330093 2.0754270038229379 #
edge $-1 $725 1 $725 0 $441 $-1 forward 7 unknown #
vertex $-1 $442 $726 #
ellipse-curve $-1 75.215175809128482 29.183732310502961 4.6143065618421861 0.7660444514056185 0 0.64278759981090561 0.64278759981090561 0 -0.7660444514056185 1 I I #
point $-1 77.300325494999186 29.183732310502961 5.0585475731867016 #
edge $-1 $727 1 $727 0 $445 $-1 forward 7 unknown #
vertex $-1 $446 $728 #
ellipse-curve $-1 75.215175809128482 33.097167561762262 4.6143065618421861 0.7660444514056185 0 0.64278759981090561 0.64278759981090561 0 -0.7660444514056185 1 I I #
point $-1 77.300325494999186 33.097167561762262 5.0585475731867016 #
plane-surface $-1 0 0 9.5737570453617167 0 0 1 1 0 0 forward_v I I I I #
coedge $-1 $630 $629 $622 $729 forward $450 $-1 #
coedge $-1 $622 $452 $454 $626 reversed $306 $-1 #
coedge $-1 $452 $621 $620 $729 reversed $306 $-1 #
coedge $-1 $460 $455 $452 $624 forward $461 $-1 #
edge $-1 $627 -20.862363730773751 $730 -9.2301866282413982 $623 $731 forward 7 unknown #
coedge $-1 $454 $453 $630 $732 reversed $193 $-1 #
edge $-1 $733 1.8033521786330445e-014 $627 14.761444737059804 $621 $734 forward 7 unknown #
vertex $-1 $456 $735 #
straight-curve $-1 -68.171283696442231 -9.4091465582323632 9.5737570453617167 0 1 0 I I #
coedge $-1 $620 $457 $460 $634 reversed $450 $-1 #
coedge $-1 $457 $620 $625 $732 forward $450 $-1 #
vertex $-1 $458 $736 #
straight-curve $-1 -79.803460798974584 -26.540789605385555 63.128836846562471 0 0 1 I I #
straight-curve $-1 -79.803460798974598 -26.540789605385555 0.48570408663660203 -0.78801074757464917 0 -0.61566148304635926 I I #
edge $-1 $730 11.095796627543898 $462 26.540789605385555 $629 $737 forward 7 unknown #
point $-1 -79.803460798974584 -26.540789605385555 9.5737570453617167 #
point $-1 -68.171283696442231 -26.540789605385555 9.5737570453617167 #
edge $-1 $738 1 $738 0 $465 $-1 forward 7 unknown #
vertex $-1 $466 $739 #
ellipse-curve $-1 -67.209891361585633 -18.818293116464726 -3.6450492063523656 -0.61566148304635926 0 0.78801074757464917 2.3640322427239475 0 1.8469844491390779 1 I I #
point $-1 -71.623340004984442 -18.818293116464726 6.8767150151382248 #
plane-surface $-1 79.803460798974584 0 0 -1 0 0 0 0 1 forward_v I I I I #
coedge $-1 $474 $472 $476 $646 reversed $321 $-1 #
edge $-1 $487 -9.5737570453617167 $648 9.5737570453617167 $486 $740 forward 7 unknown #
vertex $-1 $646 $741 #
straight-curve $-1 -79.803460798974584 -35.706124395935134 0 0 0 -1 I I #
edge $-1 $644 -35.706124395935134 $648 35.706124395935134 $642 $742 forward 7 unknown #
straight-curve $-1 0 -35.706124395935134 -9.5737570453617167 -1 0 0 I I #
vertex $-1 $479 $743 #
straight-curve $-1 0 35.706124395935134 -9.5737570453617167 1 0 0 I I #
point $-1 79.803460798974584 35.706124395935134 -9.5737570453617167 #
point $-1 79.803460798974584 -35.706124395935134 -9.5737570453617167 #
straight-curve $-1 -79.803460798974584 0 9.5737570453617167 0 -1 0 I I #
point $-1 -79.803460798974584 35.706124395935134 9.5737570453617167 #
point $-1 -79.803460798974584 -35.706124395935134 9.5737570453617167 #
straight-curve $-1 79.803460798974584 -35.706124395935134 0 0 0 -1 I I #
straight-curve $-1 79.803460798974584 35.706124395935134 0 0 0 -1 I I #
plane-surface $-1 -79.803460798974584 0 0 1 0 0 0 0 -1 forward_v I I I I #
coedge $-1 $660 $669 $664 $744 forward $497 $-1 #
coedge $-1 $500 $499 $745 $746 forward $210 $-1 #
coedge $-1 $745 $658 $501 $661 reversed $497 $-1 #
edge $-1 $662 -79.803460798974584 $665 79.803460798974584 $660 $747 forward 7 unknown #
vertex $-1 $746 $748 #
straight-curve $-1 79.803460798974584 0 -9.5737570453617167 0 -1 0 I I #
coedge $-1 $509 $503 $658 $744 reversed $510 $-1 #
vertex $-1 $504 $749 #
straight-curve $-1 -79.803460798974584 0 -9.5737570453617167 0 1 0 I I #
point $-1 -79.803460798974584 -35.706124395935134 -9.5737570453617167 #
point $-1 79.803460798974584 -35.706124395935134 -9.5737570453617167 #
coedge $-1 $658 $745 $512 $670 reversed $497 $-1 #
edge $-1 $671 -79.803460798974584 $673 79.803460798974584 $669 $750 forward 7 unknown #
vertex $-1 $513 $751 #
straight-curve $-1 -79.803460798974584 -40.288791791209924 -5.9517581871039873 0 -1 0 I I #
vertex $-1 $514 $752 #
straight-curve $-1 79.803460798974584 -40.288791791209924 -5.9517581871039873 0 1 0 I I #
edge $-1 $676 103.89362982814659 $679 111.39195986968537 $518 $753 forward 7 unknown #
vertex $-1 $532 $754 #
straight-curve $-1 49.738053723930989 -26.540789605385555 9.5737570453617167 1 0 0 I I #
edge $-1 $679 -15.553232032594037 $529 -6.4218831129889988 $528 $755 forward 7 unknown #
vertex $-1 $678 $756 #
straight-curve $-1 -22.789889248178554 -26.540789605385555 124.34142369986347 -0.64278759981090561 0 0.7660444514056185 I I #
point $-1 73.511614991401942 -26.540789605385555 9.5737570453617309 #
point $-1 79.803460798974584 -17.409440685780517 2.0754270038229379 #
straight-curve $-1 79.803460798974584 0 9.5737570453617167 0 1 0 I I #
vertex $-1 $535 $757 #
point $-1 75.857963408939398 -23.931832771212687 3.848262110436568 #
vertex $-1 $539 $758 #
point $-1 75.857963408939398 -20.018397519953385 3.848262110436568 #
edge $-1 $689 103.89362982814659 $692 111.39195986968537 $544 $759 forward 7 unknown #
vertex $-1 $558 $760 #
straight-curve $-1 49.738053723930989 -8.8356012448136703 9.5737570453617167 1 0 0 I I #
edge $-1 $692 -6.7006378523080947 $555 2.4307110672969436 $554 $761 forward 7 unknown #
vertex $-1 $691 $762 #
straight-curve $-1 -22.789889248178554 -8.8356012448136703 124.34142369986347 -0.64278759981090561 0 0.7660444514056185 I I #
point $-1 73.511614991401942 -8.8356012448136703 9.5737570453617309 #
point $-1 79.803460798974584 0.2957476747913681 2.0754270038229379 #
straight-curve $-1 79.803460798974584 0 9.5737570453617167 0 1 0 I I #
vertex $-1 $561 $763 #
point $-1 75.857963408939398 -6.2266444106408017 3.848262110436568 #
vertex $-1 $565 $764 #
point $-1 75.857963408939398 -2.3132091593815005 3.848262110436568 #
edge $-1 $702 103.89362982814659 $705 111.39195986968537 $570 $765 forward 7 unknown #
vertex $-1 $584 $766 #
straight-curve $-1 49.738053723930989 8.8695871157582111 9.5737570453617167 1 0 0 I I #
edge $-1 $705 2.151956327977846 $581 11.283305247582884 $580 $767 forward 7 unknown #
vertex $-1 $704 $768 #
straight-curve $-1 -22.789889248178554 8.8695871157582111 124.34142369986347 -0.64278759981090561 0 0.7660444514056185 I I #
point $-1 73.511614991401942 8.8695871157582111 9.5737570453617309 #
point $-1 79.803460798974584 18.000936035363249 2.0754270038229379 #
straight-curve $-1 79.803460798974584 0 9.5737570453617167 0 1 0 I I #
vertex $-1 $587 $769 #
point $-1 75.857963408939398 11.47854394993108 3.848262110436568 #
vertex $-1 $591 $770 #
point $-1 75.857963408939398 15.391979201190381 3.848262110436568 #
edge $-1 $717 -20.135899427868829 $605 -11.004550508263787 $604 $771 forward 7 unknown #
coedge $-1 $716 $598 $721 $772 reversed $595 $-1 #
coedge $-1 $598 $715 $600 $719 forward $595 $-1 #
vertex $-1 $599 $773 #
straight-curve $-1 12.531326615776486 35.706124395935134 82.247236697123142 -0.64278759981090572 0 0.76604445140561861 I I #
edge $-1 $723 -9.5737570453617167 $601 -2.0754270038229223 $600 $774 forward 7 unknown #
point $-1 79.803460798974584 35.706124395935134 2.0754270038229223 #
coedge $-1 $604 $603 $715 $772 forward $428 $-1 #
point $-1 73.511614991401942 26.574775476330093 9.5737570453617309 #
vertex $-1 $608 $775 #
straight-curve $-1 79.803460798974584 0 9.5737570453617167 0 1 0 I I #
vertex $-1 $611 $776 #
point $-1 75.857963408939398 29.183732310502961 3.848262110436568 #
vertex $-1 $615 $777 #
point $-1 75.857963408939398 33.097167561762262 3.848262110436568 #
edge $-1 $730 53.555079801200755 $733 62.643132759925855 $620 $778 forward 7 unknown #
vertex $-1 $634 $779 #
straight-curve $-1 -89.033647427215982 -11.095796627543898 9.5737570453617167 -1 0 0 I I #
edge $-1 $733 1.6866500693115345 $631 17.13164304715319 $630 $780 forward 7 unknown #
vertex $-1 $732 $781 #
straight-curve $-1 -79.803460798974598 -11.095796627543898 0.48570408663660203 0.78801074757464917 0 0.61566148304635926 I I #
point $-1 -68.171283696442231 -11.095796627543898 9.5737570453617167 #
point $-1 -79.803460798974584 -26.540789605385555 0.48570408663661313 #
straight-curve $-1 -79.803460798974584 0 9.5737570453617167 0 -1 0 I I #
vertex $-1 $637 $782 #
point $-1 -64.845859118861682 -18.818293116464726 -1.7980647572132877 #
straight-curve $-1 -79.803460798974584 35.706124395935134 0 0 0 -1 I I #
point $-1 -79.803460798974584 -35.706124395935134 -9.5737570453617167 #
straight-curve $-1 -79.803460798974584 0 -9.5737570453617167 0 1 0 I I #
point $-1 -79.803460798974584 35.706124395935134 -9.5737570453617167 #
edge $-1 $671 -1.8109994291288647 $665 1.8109994291288647 $664 $783 forward 7 unknown #
coedge $-1 $669 $660 $659 $746 reversed $497 $-1 #
edge $-1 $673 -1.8109994291288647 $662 1.8109994291288647 $659 $784 forward 7 unknown #
straight-curve $-1 0 -44.871459186484714 -9.5737570453617167 -1 0 0 I I #
point $-1 79.803460798974584 -44.871459186484714 -9.5737570453617167 #
point $-1 -79.803460798974584 -44.871459186484714 -9.5737570453617167 #
straight-curve $-1 0 -44.871459186484714 -5.9517581871039873 1 0 0 I I #
point $-1 -79.803460798974584 -44.871459186484714 -5.9517581871039873 #
point $-1 79.803460798974584 -44.871459186484714 -5.9517581871039873 #
straight-curve $-1 79.803460798974584 -26.540789605385555 113.4673868735083 0 0 -1 I I #
point $-1 79.803460798974584 -26.540789605385555 9.5737570453617167 #
straight-curve $-1 79.803460798974584 -10.987557572791518 2.0754270038229379 0 1 0 I I #
point $-1 79.803460798974584 -26.540789605385555 2.0754270038229379 #
point $-1 74.449131357722877 -23.931832771212687 3.971518962031281 #
point $-1 74.449131357722877 -20.018397519953385 3.971518962031281 #
straight-curve $-1 79.803460798974584 -8.8356012448136703 113.4673868735083 0 0 -1 I I #
point $-1 79.803460798974584 -8.8356012448136703 9.5737570453617167 #
straight-curve $-1 79.803460798974584 -2.1349633925055755 2.0754270038229379 0 1 0 I I #
point $-1 79.803460798974584 -8.8356012448136703 2.0754270038229379 #
point $-1 74.449131357722877 -6.2266444106408017 3.971518962031281 #
point $-1 74.449131357722877 -2.3132091593815005 3.971518962031281 #
straight-curve $-1 79.803460798974584 8.8695871157582111 113.4673868735083 0 0 -1 I I #
point $-1 79.803460798974584 8.8695871157582111 9.5737570453617167 #
straight-curve $-1 79.803460798974584 6.7176307877803652 2.0754270038229379 0 1 0 I I #
point $-1 79.803460798974584 8.8695871157582111 2.0754270038229379 #
point $-1 74.449131357722877 11.47854394993108 3.971518962031281 #
point $-1 74.449131357722877 15.391979201190381 3.971518962031281 #
straight-curve $-1 73.511614991401942 15.570224968066306 9.5737570453617167 0 -1 0 I I #
edge $-1 $723 -79.803460798974584 $717 -73.511614991401942 $715 $785 forward 7 unknown #
point $-1 73.511614991401942 35.706124395935134 9.5737570453617309 #
straight-curve $-1 79.803460798974584 35.706124395935134 0 0 0 -1 I I #
point $-1 79.803460798974584 35.706124395935134 9.5737570453617167 #
point $-1 74.449131357722877 29.183732310502961 3.971518962031281 #
point $-1 74.449131357722877 33.097167561762262 3.971518962031281 #
straight-curve $-1 -79.803460798974584 -11.095796627543898 63.128836846562471 0 0 -1 I I #
point $-1 -79.803460798974584 -11.095796627543898 9.5737570453617167 #
straight-curve $-1 -79.803460798974584 -9.4091465582323632 0.48570408663660913 0 -1 0 I I #
point $-1 -79.803460798974584 -11.095796627543898 0.48570408663661313 #
point $-1 -65.362906912446547 -18.818293116464726 -6.0090814490763131 #
straight-curve $-1 -79.803460798974584 -44.871459186484714 -7.762757616232852 0 0 -1 I I #
straight-curve $-1 79.803460798974584 -44.871459186484714 -7.762757616232852 0 0 -1 I I #
straight-curve $-1 0 35.706124395935134 9.5737570453617167 -1 0 0 I I #
End-of-ACIS-data 