500 0 6 0           
7 Unknown 11 ACIS 5.0 NT 24 Fri Mar 26 20:23:56 1999 
-1 9.9999999999999995e-007 1e-010 
body $-1 $6 $-1 $7 #
body $-1 $8 $-1 $9 #
body $-1 $10 $-1 $11 #
body $-1 $12 $-1 $13 #
body $-1 $14 $-1 $15 #
body $-1 $16 $-1 $17 #
lump $-1 $-1 $18 $0 #
transform $-1 1 0 0 0 1 0 0 0 1 59.848017822809538 38.158293977189622 16.119366722704584 1 rotate no_reflect no_shear #
lump $-1 $-1 $19 $1 #
transform $-1 1 0 0 0 1 0 0 0 1 59.848017822809538 38.158293977189622 16.119366722704584 1 rotate no_reflect no_shear #
lump $-1 $-1 $20 $2 #
transform $-1 1 0 0 0 1 0 0 0 1 59.848017822809538 38.158293977189622 16.119366722704584 1 rotate no_reflect no_shear #
lump $-1 $-1 $21 $3 #
transform $-1 1 0 0 0 1 0 0 0 1 59.848017822809538 38.158293977189622 16.119366722704584 1 rotate no_reflect no_shear #
lump $-1 $-1 $22 $4 #
transform $-1 1 0 0 0 1 0 0 0 1 59.848017822809538 38.158293977189622 16.119366722704584 1 rotate no_reflect no_shear #
lump $-1 $-1 $23 $5 #
transform $-1 1 0 0 0 1 0 0 0 1 59.848017822809538 38.158293977189622 16.119366722704584 1 rotate no_reflect no_shear #
shell $-1 $-1 $-1 $24 $-1 $6 #
shell $-1 $-1 $-1 $25 $-1 $8 #
shell $-1 $-1 $-1 $26 $-1 $10 #
shell $-1 $-1 $-1 $27 $-1 $12 #
shell $-1 $-1 $-1 $28 $-1 $14 #
shell $-1 $-1 $-1 $29 $-1 $16 #
face $-1 $30 $31 $18 $-1 $32 forward single #
face $-1 $33 $34 $19 $-1 $35 forward single #
face $-1 $36 $37 $20 $-1 $38 reversed single #
face $-1 $39 $40 $21 $-1 $41 forward single #
face $-1 $42 $43 $22 $-1 $44 reversed single #
face $-1 $45 $46 $23 $-1 $47 forward single #
face $-1 $48 $49 $18 $-1 $50 reversed single #
loop $-1 $-1 $51 $24 #
plane-surface $-1 0 0 16.119366722704584 0 0 1 1 0 0 forward_v I I I I #
face $-1 $52 $53 $19 $-1 $54 reversed single #
loop $-1 $-1 $55 $25 #
plane-surface $-1 -49.405504707036627 0 -3.1653436808366404 0 0 1 1 0 0 forward_v I I I I #
face $-1 $56 $57 $20 $-1 $58 reversed single #
loop $-1 $-1 $59 $26 #
plane-surface $-1 23.948496956525197 39.344952370779232 150.2288646155904 1 0 0 0 -0.54463904215088732 -0.83867056331134215 forward_v I I I I #
face $-1 $60 $61 $21 $-1 $62 forward single #
loop $-1 $63 $64 $27 #
cone-surface $-1 30.709543853001009 30.572726056253494 9.8143690561094772 0 -0.54463904215088732 -0.83867056331134215 1.5 0 0 1 I I 0 1 1.5 forward I I I I #
face $-1 $65 $66 $22 $-1 $67 reversed single #
loop $-1 $-1 $68 $28 #
plane-surface $-1 38.412342475756155 -113.48545087218565 95.320692488787543 -1 0 0 0 -0.62932039886446345 0.77714595512881146 forward_v I I I I #
face $-1 $69 $70 $23 $-1 $71 forward single #
loop $-1 $72 $73 $29 #
cone-surface $-1 28.752734763556987 -25.911740986793976 4.6236732548128847 0 0.62932039886446345 -0.77714595512881146 3 0 0 1 I I 0 1 3 forward I I I I #
face $-1 $74 $75 $18 $-1 $76 reversed single #
loop $-1 $-1 $77 $30 #
plane-surface $-1 0 0 -16.119366722704584 0 0 1 1 0 0 forward_v I I I I #
coedge $-1 $78 $79 $80 $81 forward $31 $-1 #
face $-1 $82 $83 $19 $-1 $84 reversed single #
loop $-1 $-1 $85 $33 #
plane-surface $-1 -49.405504707036627 0 -10.584669985914493 0 0 1 1 0 0 forward_v I I I I #
coedge $-1 $86 $87 $88 $89 forward $34 $-1 #
face $-1 $90 $91 $20 $-1 $92 reversed single #
loop $-1 $-1 $93 $36 #
plane-surface $-1 30.709543853001009 -25.846181832509195 49.843322974544563 0 0.54463904215088732 0.83867056331134215 1 0 0 forward_v I I I I #
coedge $-1 $94 $95 $96 $97 reversed $37 $-1 #
face $-1 $-1 $98 $21 $-1 $99 forward single #
loop $-1 $100 $101 $39 #
cone-surface $-1 30.709543853001009 28.615747905507938 6.8008870229594081 0 -0.54463904215088732 -0.83867056331134215 0.75 0 0 1 I I -0.70710678118654757 0.70710678118654757 0.75 forward I I I I #
loop $-1 $-1 $102 $27 #
coedge $-1 $64 $64 $103 $104 reversed $40 $-1 #
face $-1 $105 $106 $22 $-1 $107 reversed single #
loop $-1 $-1 $108 $42 #
plane-surface $-1 28.752734763556987 -38.158293977189615 2.2994025418406494 0 -0.62932039886446345 0.77714595512881146 1 0 0 forward_v I I I I #
coedge $-1 $109 $110 $111 $112 reversed $43 $-1 #
face $-1 $-1 $113 $23 $-1 $114 forward single #
loop $-1 $115 $116 $45 #
cone-surface $-1 28.752734763556987 -21.254324457840042 -1.127757055340064 0 0.62932039886446345 -0.77714595512881146 1.5 0 0 1 I I -0.70710678118654757 0.70710678118654757 1.5 forward I I I I #
loop $-1 $-1 $117 $29 #
coedge $-1 $73 $73 $118 $119 reversed $46 $-1 #
face $-1 $120 $121 $18 $-1 $122 reversed single #
loop $-1 $-1 $123 $48 #
plane-surface $-1 0 -38.158293977189622 0 0 1 0 0 0 1 forward_v I I I I #
coedge $-1 $124 $125 $126 $127 forward $49 $-1 #
coedge $-1 $128 $51 $129 $130 forward $31 $-1 #
coedge $-1 $51 $128 $131 $132 forward $31 $-1 #
coedge $-1 $133 $134 $51 $81 reversed $135 $-1 #
edge $-1 $136 -38.158293977189622 $137 38.158293977189622 $80 $138 forward 7 unknown #
face $-1 $139 $140 $19 $-1 $141 reversed single #
loop $-1 $-1 $142 $52 #
plane-surface $-1 -38.962991591263716 0 -6.8750068333755667 -1 0 0 0 0 1 forward_v I I I I #
coedge $-1 $143 $144 $145 $146 forward $53 $-1 #
coedge $-1 $147 $55 $148 $149 reversed $34 $-1 #
coedge $-1 $55 $147 $150 $151 reversed $34 $-1 #
coedge $-1 $142 $152 $55 $89 reversed $83 $-1 #
edge $-1 $153 -38.158293977189622 $154 38.158293977189622 $88 $155 forward 7 unknown #
face $-1 $156 $157 $20 $-1 $158 forward single #
loop $-1 $-1 $159 $56 #
plane-surface $-1 37.47059074947682 39.344952370779232 150.2288646155904 -1 0 0 0 0.54463904215088732 0.83867056331134215 forward_v I I I I #
coedge $-1 $160 $161 $162 $163 reversed $57 $-1 #
coedge $-1 $95 $59 $164 $165 reversed $37 $-1 #
coedge $-1 $59 $94 $160 $166 reversed $37 $-1 #
coedge $-1 $162 $167 $59 $97 forward $157 $-1 #
edge $-1 $168 -18.485817791800006 $169 -6.4116796881925318 $96 $170 forward 7 unknown #
loop $-1 $-1 $103 $60 #
plane-surface $-1 30.709543853001009 -25.846181832509195 49.843322974544563 0 0.54463904215088732 0.83867056331134215 1 0 0 forward_v I I I I #
loop $-1 $-1 $171 $39 #
coedge $-1 $101 $101 $102 $172 reversed $61 $-1 #
coedge $-1 $102 $102 $101 $172 forward $63 $-1 #
coedge $-1 $103 $103 $64 $104 forward $98 $-1 #
edge $-1 $173 -2.0377952679864426e-015 $173 6.2831853071795987 $103 $174 forward 7 unknown #
face $-1 $175 $176 $22 $-1 $177 reversed single #
loop $-1 $-1 $178 $65 #
plane-surface $-1 19.093127051357818 -113.48545087218565 95.320692488787543 1 0 0 0 0.62932039886446345 -0.77714595512881146 forward_v I I I I #
coedge $-1 $179 $180 $181 $182 reversed $66 $-1 #
coedge $-1 $110 $68 $183 $184 reversed $43 $-1 #
coedge $-1 $68 $109 $179 $185 reversed $43 $-1 #
coedge $-1 $181 $186 $68 $112 forward $187 $-1 #
edge $-1 $188 18.584431458903204 $189 35.650665578380028 $111 $190 forward 7 unknown #
loop $-1 $-1 $118 $69 #
plane-surface $-1 28.752734763556987 -38.158293977189615 2.2994025418406494 0 -0.62932039886446345 0.77714595512881146 1 0 0 forward_v I I I I #
loop $-1 $-1 $191 $45 #
coedge $-1 $116 $116 $117 $192 reversed $70 $-1 #
coedge $-1 $117 $117 $116 $192 forward $72 $-1 #
coedge $-1 $118 $118 $73 $119 forward $113 $-1 #
edge $-1 $193 7.4526506313132211e-016 $193 6.2831853071796013 $118 $194 forward 7 unknown #
face $-1 $195 $196 $18 $-1 $197 reversed single #
loop $-1 $-1 $198 $74 #
plane-surface $-1 -59.848017822809538 0 0 1 0 0 0 0 -1 forward_v I I I I #
coedge $-1 $199 $131 $200 $201 forward $75 $-1 #
coedge $-1 $202 $77 $199 $203 forward $49 $-1 #
coedge $-1 $77 $202 $204 $205 forward $49 $-1 #
coedge $-1 $134 $133 $77 $127 reversed $135 $-1 #
edge $-1 $206 -38.158293977189622 $207 38.158293977189622 $126 $208 forward 7 unknown #
coedge $-1 $79 $78 $209 $210 forward $31 $-1 #
coedge $-1 $211 $212 $78 $130 reversed $196 $-1 #
edge $-1 $137 -59.848017822809538 $213 59.848017822809538 $129 $214 forward 7 unknown #
coedge $-1 $123 $215 $79 $132 reversed $75 $-1 #
edge $-1 $216 -59.848017822809538 $136 59.848017822809538 $131 $217 forward 7 unknown #
coedge $-1 $126 $80 $215 $218 forward $135 $-1 #
coedge $-1 $80 $126 $211 $219 reversed $135 $-1 #
loop $-1 $-1 $133 $195 #
vertex $-1 $81 $220 #
vertex $-1 $81 $221 #
straight-curve $-1 59.848017822809538 0 16.119366722704584 0 1 0 I I #
face $-1 $222 $223 $19 $-1 $224 reversed single #
loop $-1 $-1 $225 $82 #
plane-surface $-1 0 -38.158293977189622 0 0 1 0 0 0 1 forward_v I I I I #
coedge $-1 $145 $88 $226 $227 reversed $83 $-1 #
coedge $-1 $228 $85 $225 $229 reversed $53 $-1 #
coedge $-1 $85 $228 $230 $231 reversed $53 $-1 #
coedge $-1 $152 $142 $85 $146 reversed $83 $-1 #
edge $-1 $232 -38.158293977189622 $233 38.158293977189622 $145 $234 forward 7 unknown #
coedge $-1 $87 $86 $235 $236 reversed $34 $-1 #
coedge $-1 $237 $238 $86 $149 forward $239 $-1 #
edge $-1 $240 -35.145265469291225 $154 -14.260239237745402 $148 $241 forward 7 unknown #
coedge $-1 $242 $226 $87 $151 forward $140 $-1 #
edge $-1 $153 14.260239237745402 $243 35.145265469291225 $150 $244 forward 7 unknown #
coedge $-1 $88 $145 $237 $245 reversed $83 $-1 #
vertex $-1 $151 $246 #
vertex $-1 $149 $247 #
straight-curve $-1 -38.962991591263716 0 -3.1653436808366404 0 1 0 I I #
face $-1 $-1 $248 $20 $-1 $249 reversed single #
loop $-1 $-1 $96 $90 #
plane-surface $-1 0 0 16.119366722704584 0 0 1 1 0 0 forward_v I I I I #
coedge $-1 $250 $251 $252 $253 reversed $91 $-1 #
coedge $-1 $254 $93 $95 $166 forward $57 $-1 #
coedge $-1 $93 $254 $250 $255 forward $57 $-1 #
coedge $-1 $252 $96 $93 $163 forward $157 $-1 #
edge $-1 $169 8.593725030024693 $256 22.115818822976316 $162 $257 forward 7 unknown #
coedge $-1 $258 $259 $94 $165 forward $248 $-1 #
edge $-1 $260 -66.836102696947677 $168 -58.995065585090614 $164 $261 forward 7 unknown #
edge $-1 $169 61.919828807456412 $260 76.31658795437923 $95 $262 forward 7 unknown #
coedge $-1 $96 $252 $258 $263 forward $157 $-1 #
vertex $-1 $165 $264 #
vertex $-1 $97 $265 #
straight-curve $-1 23.948496956525197 19.672476185389616 16.119366722704584 0 -1 0 I I #
coedge $-1 $171 $171 $-1 $266 reversed $100 $-1 #
edge $-1 $267 0 $267 6.2831853071796004 $101 $268 forward 7 unknown #
vertex $-1 $104 $269 #
ellipse-curve $-1 30.709543853001009 32.121224925385889 12.198848166776047 0 0.54463904215088732 0.83867056331134215 1.5 0 0 1 I I #
face $-1 $-1 $187 $22 $-1 $270 forward single #
loop $-1 $-1 $271 $105 #
plane-surface $-1 0 -38.158293977189622 0 0 1 0 0 0 1 forward_v I I I I #
coedge $-1 $272 $273 $274 $275 reversed $106 $-1 #
coedge $-1 $276 $108 $110 $185 forward $66 $-1 #
coedge $-1 $108 $276 $272 $277 forward $66 $-1 #
coedge $-1 $274 $111 $108 $182 forward $187 $-1 #
edge $-1 $189 -24.035975093977662 $278 -4.716759669579325 $181 $279 forward 7 unknown #
coedge $-1 $280 $281 $109 $184 forward $176 $-1 #
edge $-1 $282 -45.360943702553129 $188 -31.540979521689188 $183 $283 forward 7 unknown #
edge $-1 $189 -21.96014018582661 $282 9.1551213131864128e-015 $110 $284 forward 7 unknown #
coedge $-1 $111 $274 $280 $285 forward $187 $-1 #
loop $-1 $-1 $274 $175 #
vertex $-1 $184 $286 #
vertex $-1 $112 $287 #
straight-curve $-1 38.412342475756155 -56.742725436092826 16.119366722704584 0 1 0 I I #
coedge $-1 $191 $191 $-1 $288 reversed $115 $-1 #
edge $-1 $289 0 $289 6.2831853071796004 $116 $290 forward 7 unknown #
vertex $-1 $119 $291 #
ellipse-curve $-1 28.752734763556987 -29.625176917451213 9.2093846322726129 0 -0.62932039886446345 0.77714595512881146 3 0 0 1 I I #
face $-1 $-1 $135 $18 $-1 $292 reversed single #
loop $-1 $-1 $211 $120 #
plane-surface $-1 0 38.158293977189622 0 0 -1 0 0 0 -1 forward_v I I I I #
coedge $-1 $293 $209 $212 $294 forward $121 $-1 #
coedge $-1 $215 $123 $124 $203 reversed $75 $-1 #
coedge $-1 $209 $293 $123 $201 reversed $121 $-1 #
edge $-1 $216 -16.119366722704584 $295 16.119366722704584 $200 $296 forward 7 unknown #
coedge $-1 $125 $124 $293 $297 forward $49 $-1 #
edge $-1 $207 -59.848017822809538 $295 59.848017822809538 $199 $298 forward 7 unknown #
coedge $-1 $212 $211 $125 $205 reversed $196 $-1 #
edge $-1 $299 -59.848017822809538 $206 59.848017822809538 $204 $300 forward 7 unknown #
vertex $-1 $127 $301 #
vertex $-1 $218 $302 #
straight-curve $-1 59.848017822809538 0 -16.119366722704584 0 -1 0 I I #
coedge $-1 $198 $200 $128 $210 reversed $121 $-1 #
edge $-1 $213 -38.158293977189622 $216 38.158293977189622 $209 $303 forward 7 unknown #
coedge $-1 $204 $129 $134 $219 forward $196 $-1 #
coedge $-1 $129 $204 $198 $294 reversed $196 $-1 #
vertex $-1 $130 $304 #
straight-curve $-1 0 38.158293977189622 16.119366722704584 -1 0 0 I I #
coedge $-1 $131 $199 $133 $218 reversed $75 $-1 #
vertex $-1 $210 $305 #
straight-curve $-1 0 -38.158293977189622 16.119366722704584 1 0 0 I I #
edge $-1 $136 -16.119366722704584 $207 16.119366722704584 $133 $306 forward 7 unknown #
edge $-1 $137 -16.119366722704584 $206 16.119366722704584 $134 $307 forward 7 unknown #
point $-1 59.848017822809538 -38.158293977189622 16.119366722704584 #
point $-1 59.848017822809538 38.158293977189622 16.119366722704584 #
face $-1 $-1 $239 $19 $-1 $308 reversed single #
loop $-1 $-1 $309 $139 #
plane-surface $-1 -59.848017822809538 0 0 1 0 0 0 0 -1 forward_v I I I I #
coedge $-1 $226 $242 $143 $229 forward $140 $-1 #
coedge $-1 $150 $225 $142 $227 forward $140 $-1 #
edge $-1 $233 -7.1471665692267097 $153 0.27215973585114295 $226 $310 forward 7 unknown #
coedge $-1 $144 $143 $309 $311 reversed $53 $-1 #
edge $-1 $312 -35.145265469291225 $233 -14.260239237745402 $225 $313 forward 7 unknown #
coedge $-1 $238 $237 $144 $231 forward $239 $-1 #
edge $-1 $232 14.260239237745402 $314 35.145265469291225 $230 $315 forward 7 unknown #
vertex $-1 $231 $316 #
vertex $-1 $229 $317 #
straight-curve $-1 -38.962991591263716 0 -10.584669985914493 0 -1 0 I I #
coedge $-1 $318 $319 $147 $236 forward $223 $-1 #
edge $-1 $243 -38.158293977189622 $240 38.158293977189622 $235 $320 forward 7 unknown #
coedge $-1 $230 $148 $152 $245 forward $239 $-1 #
coedge $-1 $148 $230 $318 $321 reversed $239 $-1 #
loop $-1 $-1 $230 $222 #
vertex $-1 $321 $322 #
straight-curve $-1 -24.702752353518314 38.158293977189622 -3.1653436808366404 1 0 0 I I #
coedge $-1 $225 $150 $319 $323 forward $140 $-1 #
vertex $-1 $323 $324 #
straight-curve $-1 -24.702752353518314 -38.158293977189622 -3.1653436808366404 -1 0 0 I I #
edge $-1 $154 -0.27215973585114295 $232 7.1471665692267097 $237 $325 forward 7 unknown #
point $-1 -38.962991591263716 -38.158293977189622 -3.1653436808366404 #
point $-1 -38.962991591263716 38.158293977189622 -3.1653436808366404 #
loop $-1 $-1 $164 $156 #
plane-surface $-1 0 38.158293977189622 0 0 -1 0 0 0 -1 forward_v I I I I #
coedge $-1 $251 $159 $161 $255 reversed $91 $-1 #
coedge $-1 $159 $250 $326 $327 reversed $91 $-1 #
coedge $-1 $167 $162 $159 $253 forward $157 $-1 #
edge $-1 $256 6.4116796881925318 $328 18.485817791800006 $252 $329 forward 7 unknown #
coedge $-1 $161 $160 $259 $330 reversed $57 $-1 #
edge $-1 $331 -76.31658795437923 $256 -61.919828807456412 $250 $332 forward 7 unknown #
vertex $-1 $163 $333 #
straight-curve $-1 15.354771926500504 26.084155873582151 16.11936672270458 1 0 0 I I #
coedge $-1 $326 $164 $167 $263 reversed $248 $-1 #
coedge $-1 $164 $326 $254 $330 forward $248 $-1 #
vertex $-1 $165 $334 #
straight-curve $-1 23.948496956525197 38.158293977189622 75.114432307795198 0 0 1 I I #
straight-curve $-1 23.948496956525197 -25.846181832509195 49.843322974544563 0 0.83867056331134215 -0.54463904215088732 I I #
edge $-1 $328 -37.47059074947682 $168 -23.948496956525197 $258 $335 forward 7 unknown #
point $-1 23.948496956525197 38.158293977189622 16.119366722704584 #
point $-1 23.948496956525197 26.084155873582148 16.119366722704584 #
edge $-1 $336 1 $336 0 $171 $-1 forward 7 unknown #
vertex $-1 $172 $337 #
ellipse-curve $-1 30.709543853001009 29.024227187121102 7.4298899454429144 0 0.54463904215088732 0.83867056331134215 1.5 0 0 1 I I #
point $-1 32.209543853001009 32.121224925385881 12.198848166776042 #
plane-surface $-1 0 0 16.119366722704584 0 0 1 1 0 0 forward_v I I I I #
coedge $-1 $281 $280 $273 $338 forward $176 $-1 #
coedge $-1 $273 $178 $180 $277 reversed $106 $-1 #
coedge $-1 $178 $272 $271 $338 reversed $106 $-1 #
coedge $-1 $186 $181 $178 $275 forward $187 $-1 #
edge $-1 $278 -35.650665578380028 $339 -18.584431458903204 $274 $340 forward 7 unknown #
coedge $-1 $180 $179 $281 $341 reversed $66 $-1 #
edge $-1 $342 -9.1551213131864128e-015 $278 21.96014018582661 $272 $343 forward 7 unknown #
vertex $-1 $182 $344 #
straight-curve $-1 14.376367381778493 -21.092059857712801 16.119366722704584 -1 0 0 I I #
coedge $-1 $271 $183 $186 $285 reversed $176 $-1 #
coedge $-1 $183 $271 $276 $341 forward $176 $-1 #
vertex $-1 $184 $345 #
straight-curve $-1 38.412342475756155 -38.158293977189622 47.660346244393772 0 0 1 I I #
straight-curve $-1 38.412342475756155 -38.158293977189615 2.2994025418406494 0 -0.77714595512881146 -0.62932039886446345 I I #
edge $-1 $339 19.093127051357818 $188 38.412342475756155 $280 $346 forward 7 unknown #
point $-1 38.412342475756155 -38.158293977189622 16.119366722704584 #
point $-1 38.412342475756155 -21.092059857712798 16.119366722704584 #
edge $-1 $347 1 $347 0 $191 $-1 forward 7 unknown #
vertex $-1 $192 $348 #
ellipse-curve $-1 28.752734763556987 -22.198305056136736 0.037961877353153151 0 -0.62932039886446345 0.77714595512881146 3 0 0 1 I I #
point $-1 31.752734763556987 -29.625176917451213 9.2093846322726165 #
plane-surface $-1 59.848017822809538 0 0 -1 0 0 0 0 1 forward_v I I I I #
coedge $-1 $200 $198 $202 $297 reversed $121 $-1 #
edge $-1 $213 -16.119366722704584 $299 16.119366722704584 $212 $349 forward 7 unknown #
vertex $-1 $297 $350 #
straight-curve $-1 -59.848017822809538 -38.158293977189622 0 0 0 -1 I I #
edge $-1 $295 -38.158293977189622 $299 38.158293977189622 $293 $351 forward 7 unknown #
straight-curve $-1 0 -38.158293977189622 -16.119366722704584 -1 0 0 I I #
vertex $-1 $205 $352 #
straight-curve $-1 0 38.158293977189622 -16.119366722704584 1 0 0 I I #
point $-1 59.848017822809538 38.158293977189622 -16.119366722704584 #
point $-1 59.848017822809538 -38.158293977189622 -16.119366722704584 #
straight-curve $-1 -59.848017822809538 0 16.119366722704584 0 -1 0 I I #
point $-1 -59.848017822809538 38.158293977189622 16.119366722704584 #
point $-1 -59.848017822809538 -38.158293977189622 16.119366722704584 #
straight-curve $-1 59.848017822809538 -38.158293977189622 0 0 0 -1 I I #
straight-curve $-1 59.848017822809538 38.158293977189622 0 0 0 -1 I I #
plane-surface $-1 0 38.158293977189622 0 0 -1 0 0 0 -1 forward_v I I I I #
coedge $-1 $319 $318 $228 $311 forward $223 $-1 #
straight-curve $-1 -38.962991591263716 -38.158293977189622 -3.4375034166877834 0 0 1 I I #
edge $-1 $314 -38.158293977189622 $312 38.158293977189622 $309 $353 forward 7 unknown #
vertex $-1 $229 $354 #
straight-curve $-1 -24.702752353518314 -38.158293977189622 -10.584669985914493 1 0 0 I I #
vertex $-1 $231 $355 #
straight-curve $-1 -24.702752353518314 38.158293977189622 -10.584669985914493 -1 0 0 I I #
point $-1 -38.962991591263716 38.158293977189622 -10.584669985914493 #
point $-1 -38.962991591263716 -38.158293977189622 -10.584669985914493 #
coedge $-1 $309 $235 $238 $321 forward $223 $-1 #
coedge $-1 $235 $309 $242 $323 reversed $223 $-1 #
straight-curve $-1 -59.848017822809538 0 -3.1653436808366404 0 1 0 I I #
edge $-1 $240 3.1653436808366404 $314 10.584669985914493 $238 $356 forward 7 unknown #
point $-1 -59.848017822809538 38.158293977189622 -3.1653436808366404 #
edge $-1 $243 3.1653436808366404 $312 10.584669985914493 $319 $357 forward 7 unknown #
point $-1 -59.848017822809538 -38.158293977189622 -3.1653436808366404 #
straight-curve $-1 -38.962991591263716 38.158293977189622 -3.4375034166877834 0 0 -1 I I #
coedge $-1 $259 $258 $251 $327 forward $248 $-1 #
edge $-1 $328 58.995065585090614 $331 66.836102696947677 $326 $358 forward 7 unknown #
vertex $-1 $263 $359 #
straight-curve $-1 37.47059074947682 19.672476185389616 16.119366722704584 0 1 0 I I #
edge $-1 $331 -22.115818822976316 $260 -8.593725030024693 $259 $360 forward 7 unknown #
vertex $-1 $330 $361 #
straight-curve $-1 37.47059074947682 -25.846181832509195 49.843322974544563 0 -0.83867056331134215 0.54463904215088732 I I #
point $-1 37.47059074947682 26.084155873582148 16.119366722704584 #
point $-1 23.948496956525197 38.158293977189622 8.2783296108475142 #
straight-curve $-1 0 38.158293977189622 16.119366722704584 -1 0 0 I I #
vertex $-1 $266 $362 #
point $-1 32.209543853001009 29.024227187121102 7.4298899454429144 #
edge $-1 $339 31.540979521689188 $342 45.360943702553129 $271 $363 forward 7 unknown #
vertex $-1 $285 $364 #
straight-curve $-1 19.093127051357818 -56.742725436092826 16.119366722704584 0 -1 0 I I #
edge $-1 $342 4.716759669579325 $282 24.035975093977662 $281 $365 forward 7 unknown #
vertex $-1 $341 $366 #
straight-curve $-1 19.093127051357818 -38.158293977189615 2.2994025418406494 0 0.77714595512881146 0.62932039886446345 I I #
point $-1 19.093127051357818 -21.092059857712798 16.119366722704584 #
point $-1 38.412342475756155 -38.158293977189622 2.2994025418406436 #
straight-curve $-1 0 -38.158293977189622 16.119366722704584 1 0 0 I I #
vertex $-1 $288 $367 #
point $-1 31.752734763556987 -22.198305056136736 0.037961877353153151 #
straight-curve $-1 -59.848017822809538 38.158293977189622 0 0 0 -1 I I #
point $-1 -59.848017822809538 -38.158293977189622 -16.119366722704584 #
straight-curve $-1 -59.848017822809538 0 -16.119366722704584 0 1 0 I I #
point $-1 -59.848017822809538 38.158293977189622 -16.119366722704584 #
straight-curve $-1 -59.848017822809538 0 -10.584669985914493 0 -1 0 I I #
point $-1 -59.848017822809538 -38.158293977189622 -10.584669985914493 #
point $-1 -59.848017822809538 38.158293977189622 -10.584669985914493 #
straight-curve $-1 -59.848017822809538 38.158293977189622 0 0 0 -1 I I #
straight-curve $-1 -59.848017822809538 -38.158293977189622 0 0 0 -1 I I #
straight-curve $-1 37.47059074947682 38.158293977189622 75.114432307795198 0 0 -1 I I #
point $-1 37.47059074947682 38.158293977189622 16.119366722704584 #
straight-curve $-1 15.354771926500504 38.158293977189622 8.2783296108475177 -1 0 0 I I #
point $-1 37.47059074947682 38.158293977189622 8.2783296108475142 #
point $-1 30.709543853001009 28.207268623894773 6.1718841004759017 #
straight-curve $-1 19.093127051357818 -38.158293977189622 47.660346244393772 0 0 -1 I I #
point $-1 19.093127051357818 -38.158293977189622 16.119366722704584 #
straight-curve $-1 14.376367381778493 -38.158293977189622 2.299402541840641 1 0 0 I I #
point $-1 19.093127051357818 -38.158293977189622 2.2994025418406436 #
point $-1 28.752734763556987 -20.310343859543348 -2.2934759880332809 #
End-of-ACIS-data 