500 0 13 0           
7 Unknown 11 ACIS 5.0 NT 24 Fri Mar 26 20:48:10 1999 
-1 9.9999999999999995e-007 1e-010 
body $-1 $13 $-1 $14 #
body $-1 $15 $-1 $16 #
body $-1 $17 $-1 $18 #
body $-1 $19 $-1 $20 #
body $-1 $21 $-1 $22 #
body $-1 $23 $-1 $24 #
body $-1 $25 $-1 $26 #
body $-1 $27 $-1 $28 #
body $-1 $29 $-1 $30 #
body $-1 $31 $-1 $32 #
body $-1 $33 $-1 $34 #
body $-1 $35 $-1 $36 #
body $-1 $37 $-1 $38 #
lump $-1 $-1 $39 $0 #
transform $-1 1 0 0 0 1 0 0 0 1 76.60023804437391 50.682347509678486 22.771403798707166 1 rotate no_reflect no_shear #
lump $-1 $-1 $40 $1 #
transform $-1 1 0 0 0 1 0 0 0 1 76.60023804437391 50.682347509678486 22.771403798707166 1 rotate no_reflect no_shear #
lump $-1 $-1 $41 $2 #
transform $-1 1 0 0 0 1 0 0 0 1 76.60023804437391 50.682347509678486 22.771403798707166 1 rotate no_reflect no_shear #
lump $-1 $-1 $42 $3 #
transform $-1 1 0 0 0 1 0 0 0 1 76.60023804437391 50.682347509678486 22.771403798707166 1 rotate no_reflect no_shear #
lump $-1 $-1 $43 $4 #
transform $-1 1 0 0 0 1 0 0 0 1 76.60023804437391 50.682347509678486 22.771403798707166 1 rotate no_reflect no_shear #
lump $-1 $-1 $44 $5 #
transform $-1 1 0 0 0 1 0 0 0 1 76.60023804437391 50.682347509678486 22.771403798707166 1 rotate no_reflect no_shear #
lump $-1 $-1 $45 $6 #
transform $-1 1 0 0 0 1 0 0 0 1 76.60023804437391 50.682347509678486 22.771403798707166 1 rotate no_reflect no_shear #
lump $-1 $-1 $46 $7 #
transform $-1 1 0 0 0 1 0 0 0 1 76.60023804437391 50.682347509678486 22.771403798707166 1 rotate no_reflect no_shear #
lump $-1 $-1 $47 $8 #
transform $-1 1 0 0 0 1 0 0 0 1 76.60023804437391 50.682347509678486 22.771403798707166 1 rotate no_reflect no_shear #
lump $-1 $-1 $48 $9 #
transform $-1 1 0 0 0 1 0 0 0 1 76.60023804437391 50.682347509678486 22.771403798707166 1 rotate no_reflect no_shear #
lump $-1 $-1 $49 $10 #
transform $-1 1 0 0 0 1 0 0 0 1 76.60023804437391 50.682347509678486 22.771403798707166 1 rotate no_reflect no_shear #
lump $-1 $-1 $50 $11 #
transform $-1 1 0 0 0 1 0 0 0 1 76.60023804437391 50.682347509678486 22.771403798707166 1 rotate no_reflect no_shear #
lump $-1 $-1 $51 $12 #
transform $-1 1 0 0 0 1 0 0 0 1 76.60023804437391 50.682347509678486 22.771403798707166 1 rotate no_reflect no_shear #
shell $-1 $-1 $-1 $52 $-1 $13 #
shell $-1 $-1 $-1 $53 $-1 $15 #
shell $-1 $-1 $-1 $54 $-1 $17 #
shell $-1 $-1 $-1 $55 $-1 $19 #
shell $-1 $-1 $-1 $56 $-1 $21 #
shell $-1 $-1 $-1 $57 $-1 $23 #
shell $-1 $-1 $-1 $58 $-1 $25 #
shell $-1 $-1 $-1 $59 $-1 $27 #
shell $-1 $-1 $-1 $60 $-1 $29 #
shell $-1 $-1 $-1 $61 $-1 $31 #
shell $-1 $-1 $-1 $62 $-1 $33 #
shell $-1 $-1 $-1 $63 $-1 $35 #
shell $-1 $-1 $-1 $64 $-1 $37 #
face $-1 $65 $66 $39 $-1 $67 reversed single #
face $-1 $68 $69 $40 $-1 $70 forward single #
face $-1 $71 $72 $41 $-1 $73 forward single #
face $-1 $74 $75 $42 $-1 $76 reversed single #
face $-1 $77 $78 $43 $-1 $79 forward single #
face $-1 $80 $81 $44 $-1 $82 forward single #
face $-1 $83 $84 $45 $-1 $85 reversed single #
face $-1 $86 $87 $46 $-1 $88 forward single #
face $-1 $89 $90 $47 $-1 $91 forward single #
face $-1 $92 $93 $48 $-1 $94 reversed single #
face $-1 $95 $96 $49 $-1 $97 forward single #
face $-1 $98 $99 $50 $-1 $100 reversed single #
face $-1 $101 $102 $51 $-1 $103 forward single #
face $-1 $104 $105 $39 $-1 $106 forward single #
loop $-1 $-1 $107 $52 #
plane-surface $-1 76.60023804437391 0 0 -1 0 0 0 0 1 forward_v I I I I #
face $-1 $108 $109 $40 $-1 $110 reversed single #
loop $-1 $-1 $111 $53 #
plane-surface $-1 -76.60023804437391 0 0 1 0 0 0 0 -1 forward_v I I I I #
face $-1 $112 $113 $41 $-1 $114 reversed single #
loop $-1 $-1 $115 $54 #
plane-surface $-1 76.60023804437391 0 0 -1 0 0 0 0 1 forward_v I I I I #
face $-1 $116 $117 $42 $-1 $118 reversed single #
loop $-1 $-1 $119 $55 #
plane-surface $-1 -24.299088713773774 -179.16707902680409 95.648630593159695 -1 0 0 0 -0.83867057594974714 0.54463902268945019 forward_v I I I I #
face $-1 $120 $121 $43 $-1 $122 forward single #
loop $-1 $123 $124 $56 #
cone-surface $-1 -37.509709786341077 -44.663776963671936 15.809133512751213 0 0.83867057594974714 -0.54463902268945019 2 0 0 1 I I 0 1 2 forward I I I I #
face $-1 $125 $126 $44 $-1 $127 forward single #
loop $-1 $128 $129 $57 #
cone-surface $-1 -29.583337142800701 -44.663776963671936 15.809133512751213 0 0.83867057594974714 -0.54463902268945019 2 0 0 1 I I 0 1 2 forward I I I I #
face $-1 $130 $131 $45 $-1 $132 reversed single #
loop $-1 $-1 $133 $58 #
plane-surface $-1 42.793958215367994 -179.16707902680409 95.648630593159695 -1 0 0 0 -0.83867057594974714 0.54463902268945019 forward_v I I I I #
face $-1 $134 $135 $46 $-1 $136 forward single #
loop $-1 $137 $138 $59 #
cone-surface $-1 29.583337142800687 -44.663776963671936 15.809133512751213 0 0.83867057594974714 -0.54463902268945019 2 0 0 1 I I 0 1 2 forward I I I I #
face $-1 $139 $140 $47 $-1 $141 forward single #
loop $-1 $142 $143 $60 #
cone-surface $-1 37.509709786341062 -44.663776963671936 15.809133512751213 0 0.83867057594974714 -0.54463902268945019 2 0 0 1 I I 0 1 2 forward I I I I #
face $-1 $144 $145 $48 $-1 $146 reversed single #
loop $-1 $-1 $147 $61 #
plane-surface $-1 -21.25100680647391 118.03643256639975 177.32599246206124 1 0 0 0 -0.81915205242281985 -0.57357642473473569 forward_v I I I I #
face $-1 $148 $149 $49 $-1 $150 forward single #
loop $-1 $151 $152 $62 #
cone-surface $-1 -12.278919129547205 42.572619830324008 12.9258608863611 0 -0.81915205242281985 -0.57357642473473569 1.5 0 0 1 I I 0 1 1.5 forward I I I I #
face $-1 $153 $154 $50 $-1 $155 reversed single #
loop $-1 $-1 $156 $63 #
plane-surface $-1 34.597322314612938 118.03643256639975 177.32599246206124 1 0 0 0 -0.81915205242281985 -0.57357642473473569 forward_v I I I I #
face $-1 $157 $158 $51 $-1 $159 forward single #
loop $-1 $160 $161 $64 #
cone-surface $-1 43.569409991539644 42.572619830324008 12.9258608863611 0 -0.81915205242281985 -0.57357642473473569 1.5 0 0 1 I I 0 1 1.5 forward I I I I #
face $-1 $162 $163 $39 $-1 $164 reversed single #
loop $-1 $-1 $165 $65 #
plane-surface $-1 0 0 22.771403798707166 0 0 1 1 0 0 forward_v I I I I #
coedge $-1 $166 $167 $168 $169 reversed $66 $-1 #
face $-1 $170 $171 $40 $-1 $172 forward single #
loop $-1 $-1 $173 $68 #
plane-surface $-1 0 50.682347509678486 0 0 -1 0 0 0 -1 forward_v I I I I #
coedge $-1 $174 $175 $176 $177 forward $69 $-1 #
face $-1 $178 $179 $41 $-1 $180 forward single #
loop $-1 $-1 $181 $71 #
plane-surface $-1 0 -50.682347509678486 0 0 1 0 0 0 1 forward_v I I I I #
coedge $-1 $182 $183 $184 $185 forward $72 $-1 #
face $-1 $186 $187 $42 $-1 $188 reversed single #
loop $-1 $-1 $189 $74 #
plane-surface $-1 -33.546523464570882 -50.682347509678493 12.209673020625601 0 -0.83867057594974714 0.54463902268945019 1 0 0 forward_v I I I I #
coedge $-1 $190 $191 $192 $193 reversed $75 $-1 #
face $-1 $-1 $194 $43 $-1 $195 forward single #
loop $-1 $196 $197 $77 #
cone-surface $-1 -37.509709786341077 -41.235969813671325 13.583089593146592 0 0.83867057594974714 -0.54463902268945019 1 0 0 1 I I -0.70710678118654746 0.70710678118654746 1 forward I I I I #
loop $-1 $-1 $198 $56 #
coedge $-1 $124 $124 $199 $200 reversed $78 $-1 #
face $-1 $-1 $201 $44 $-1 $202 forward single #
loop $-1 $203 $204 $80 #
cone-surface $-1 -29.583337142800701 -41.235969813671325 13.583089593146592 0 0.83867057594974714 -0.54463902268945019 1 0 0 1 I I -0.70710678118654746 0.70710678118654746 1 forward I I I I #
loop $-1 $-1 $205 $57 #
coedge $-1 $129 $129 $206 $207 reversed $81 $-1 #
face $-1 $208 $209 $45 $-1 $210 reversed single #
loop $-1 $-1 $211 $83 #
plane-surface $-1 33.546523464570882 -50.682347509678493 12.209673020625601 0 -0.83867057594974714 0.54463902268945019 1 0 0 forward_v I I I I #
coedge $-1 $212 $213 $214 $215 reversed $84 $-1 #
face $-1 $-1 $216 $46 $-1 $217 forward single #
loop $-1 $218 $219 $86 #
cone-surface $-1 29.583337142800687 -41.235969813671325 13.583089593146592 0 0.83867057594974714 -0.54463902268945019 1 0 0 1 I I -0.70710678118654746 0.70710678118654746 1 forward I I I I #
loop $-1 $-1 $220 $59 #
coedge $-1 $138 $138 $221 $222 reversed $87 $-1 #
face $-1 $-1 $223 $47 $-1 $224 forward single #
loop $-1 $225 $226 $89 #
cone-surface $-1 37.509709786341062 -41.235969813671325 13.583089593146592 0 0.83867057594974714 -0.54463902268945019 1 0 0 1 I I -0.70710678118654746 0.70710678118654746 1 forward I I I I #
loop $-1 $-1 $227 $60 #
coedge $-1 $143 $143 $228 $229 reversed $90 $-1 #
face $-1 $230 $231 $48 $-1 $232 reversed single #
loop $-1 $-1 $233 $92 #
plane-surface $-1 -12.278919129547205 -7.4580518538511598 89.453811119417892 0 0.81915205242281985 0.57357642473473569 1 0 0 forward_v I I I I #
coedge $-1 $234 $235 $236 $237 reversed $93 $-1 #
face $-1 $-1 $238 $49 $-1 $239 forward single #
loop $-1 $240 $241 $95 #
cone-surface $-1 -12.278919129547205 39.572966362072783 10.825480979268338 0 -0.81915205242281985 -0.57357642473473569 0.75 0 0 1 I I -0.70710678118654757 0.70710678118654757 0.75 forward I I I I #
loop $-1 $-1 $242 $62 #
coedge $-1 $152 $152 $243 $244 reversed $96 $-1 #
face $-1 $245 $246 $50 $-1 $247 reversed single #
loop $-1 $-1 $248 $98 #
plane-surface $-1 43.569409991539644 -7.4580518538511598 89.453811119417892 0 0.81915205242281985 0.57357642473473569 1 0 0 forward_v I I I I #
coedge $-1 $249 $250 $251 $252 reversed $99 $-1 #
face $-1 $-1 $253 $51 $-1 $254 forward single #
loop $-1 $255 $256 $101 #
cone-surface $-1 43.569409991539644 39.572966362072783 10.825480979268338 0 -0.81915205242281985 -0.57357642473473569 0.75 0 0 1 I I -0.70710678118654757 0.70710678118654757 0.75 forward I I I I #
loop $-1 $-1 $257 $64 #
coedge $-1 $161 $161 $258 $259 reversed $102 $-1 #
face $-1 $260 $261 $39 $-1 $262 reversed single #
loop $-1 $-1 $263 $104 #
plane-surface $-1 0 0 -22.771403798707166 0 0 1 1 0 0 forward_v I I I I #
coedge $-1 $264 $265 $166 $266 forward $105 $-1 #
coedge $-1 $267 $107 $165 $266 reversed $66 $-1 #
coedge $-1 $107 $267 $263 $268 reversed $66 $-1 #
coedge $-1 $269 $270 $107 $169 forward $271 $-1 #
edge $-1 $272 -22.771403798707166 $273 22.771403798707166 $107 $274 forward 7 unknown #
face $-1 $275 $276 $40 $-1 $277 reversed single #
loop $-1 $-1 $176 $108 #
plane-surface $-1 -86.976192506017441 0 12.327250554801838 0 0 1 1 0 0 forward_v I I I I #
coedge $-1 $278 $279 $175 $280 forward $109 $-1 #
coedge $-1 $281 $111 $282 $283 reversed $69 $-1 #
coedge $-1 $111 $281 $173 $280 reversed $69 $-1 #
coedge $-1 $284 $285 $111 $177 reversed $171 $-1 #
edge $-1 $286 -50.682347509678486 $287 50.682347509678486 $176 $288 forward 7 unknown #
face $-1 $289 $290 $41 $-1 $291 reversed single #
loop $-1 $-1 $292 $112 #
plane-surface $-1 86.976192506017455 0 12.327250554801838 0 0 1 1 0 0 forward_v I I I I #
coedge $-1 $293 $294 $183 $295 forward $113 $-1 #
coedge $-1 $296 $115 $297 $298 reversed $72 $-1 #
coedge $-1 $115 $296 $181 $295 reversed $72 $-1 #
coedge $-1 $299 $300 $115 $185 reversed $179 $-1 #
edge $-1 $301 -50.682347509678486 $302 50.682347509678486 $184 $303 forward 7 unknown #
face $-1 $304 $305 $42 $-1 $306 forward single #
loop $-1 $-1 $307 $116 #
plane-surface $-1 -42.793958215367994 -179.16707902680409 95.648630593159695 1 0 0 0 0.83867057594974714 -0.54463902268945019 forward_v I I I I #
coedge $-1 $308 $309 $310 $311 reversed $117 $-1 #
coedge $-1 $191 $119 $312 $313 reversed $75 $-1 #
coedge $-1 $119 $190 $308 $314 reversed $75 $-1 #
coedge $-1 $310 $315 $119 $193 forward $305 $-1 #
edge $-1 $316 38.901192003723558 $317 45.76005994763495 $192 $318 forward 7 unknown #
loop $-1 $-1 $199 $120 #
plane-surface $-1 -33.546523464570882 -50.682347509678493 12.209673020625601 0 -0.83867057594974714 0.54463902268945019 1 0 0 forward_v I I I I #
loop $-1 $-1 $319 $77 #
coedge $-1 $197 $197 $198 $320 reversed $121 $-1 #
coedge $-1 $198 $198 $197 $320 forward $123 $-1 #
coedge $-1 $199 $199 $124 $200 forward $194 $-1 #
edge $-1 $321 1.9349465059173461e-015 $321 6.2831853071796022 $199 $322 forward 7 unknown #
loop $-1 $-1 $206 $125 #
plane-surface $-1 -33.546523464570882 -50.682347509678493 12.209673020625601 0 -0.83867057594974714 0.54463902268945019 1 0 0 forward_v I I I I #
loop $-1 $-1 $323 $80 #
coedge $-1 $204 $204 $205 $324 reversed $126 $-1 #
coedge $-1 $205 $205 $204 $324 forward $128 $-1 #
coedge $-1 $206 $206 $129 $207 forward $201 $-1 #
edge $-1 $325 1.9349465059173461e-015 $325 6.2831853071796022 $206 $326 forward 7 unknown #
face $-1 $327 $328 $45 $-1 $329 reversed single #
loop $-1 $-1 $330 $130 #
plane-surface $-1 24.299088713773774 -179.16707902680409 95.648630593159695 1 0 0 0 0.83867057594974714 -0.54463902268945019 forward_v I I I I #
coedge $-1 $331 $332 $333 $334 reversed $131 $-1 #
coedge $-1 $213 $133 $335 $336 reversed $84 $-1 #
coedge $-1 $133 $212 $331 $337 reversed $84 $-1 #
coedge $-1 $333 $338 $133 $215 forward $339 $-1 #
edge $-1 $340 38.901192003723558 $341 45.76005994763495 $214 $342 forward 7 unknown #
loop $-1 $-1 $221 $134 #
plane-surface $-1 33.546523464570882 -50.682347509678493 12.209673020625601 0 -0.83867057594974714 0.54463902268945019 1 0 0 forward_v I I I I #
loop $-1 $-1 $343 $86 #
coedge $-1 $219 $219 $220 $344 reversed $135 $-1 #
coedge $-1 $220 $220 $219 $344 forward $137 $-1 #
coedge $-1 $221 $221 $138 $222 forward $216 $-1 #
edge $-1 $345 1.9349465059173461e-015 $345 6.2831853071796022 $221 $346 forward 7 unknown #
loop $-1 $-1 $228 $139 #
plane-surface $-1 33.546523464570882 -50.682347509678493 12.209673020625601 0 -0.83867057594974714 0.54463902268945019 1 0 0 forward_v I I I I #
loop $-1 $-1 $347 $89 #
coedge $-1 $226 $226 $227 $348 reversed $140 $-1 #
coedge $-1 $227 $227 $226 $348 forward $142 $-1 #
coedge $-1 $228 $228 $143 $229 forward $223 $-1 #
edge $-1 $349 1.9349465059173461e-015 $349 6.2831853071796022 $228 $350 forward 7 unknown #
face $-1 $351 $352 $48 $-1 $353 reversed single #
loop $-1 $-1 $354 $144 #
plane-surface $-1 -3.3068314526205 118.03643256639975 177.32599246206124 -1 0 0 0 0.81915205242281985 0.57357642473473569 forward_v I I I I #
coedge $-1 $355 $356 $357 $358 reversed $145 $-1 #
coedge $-1 $235 $147 $359 $360 reversed $93 $-1 #
coedge $-1 $147 $234 $355 $361 reversed $93 $-1 #
coedge $-1 $357 $362 $147 $237 forward $363 $-1 #
edge $-1 $364 8.3358687735213906 $365 19.784745274362145 $236 $366 forward 7 unknown #
loop $-1 $-1 $243 $148 #
plane-surface $-1 -12.278919129547205 -7.4580518538511598 89.453811119417892 0 0.81915205242281985 0.57357642473473569 1 0 0 forward_v I I I I #
loop $-1 $-1 $367 $95 #
coedge $-1 $241 $241 $242 $368 reversed $149 $-1 #
coedge $-1 $242 $242 $241 $368 forward $151 $-1 #
coedge $-1 $243 $243 $152 $244 forward $238 $-1 #
edge $-1 $369 -1.9401418011067053e-015 $369 6.2831853071795987 $243 $370 forward 7 unknown #
face $-1 $371 $372 $50 $-1 $373 forward single #
loop $-1 $-1 $374 $153 #
plane-surface $-1 52.541497668466349 118.03643256639975 177.32599246206124 -1 0 0 0 0.81915205242281985 0.57357642473473569 forward_v I I I I #
coedge $-1 $375 $376 $377 $378 reversed $154 $-1 #
coedge $-1 $250 $156 $379 $380 reversed $99 $-1 #
coedge $-1 $156 $249 $375 $381 reversed $99 $-1 #
coedge $-1 $377 $382 $156 $252 forward $372 $-1 #
edge $-1 $383 8.3358687735213906 $384 19.784745274362145 $251 $385 forward 7 unknown #
loop $-1 $-1 $258 $157 #
plane-surface $-1 43.569409991539644 -7.4580518538511598 89.453811119417892 0 0.81915205242281985 0.57357642473473569 1 0 0 forward_v I I I I #
loop $-1 $-1 $386 $101 #
coedge $-1 $256 $256 $257 $387 reversed $158 $-1 #
coedge $-1 $257 $257 $256 $387 forward $160 $-1 #
coedge $-1 $258 $258 $161 $259 forward $253 $-1 #
edge $-1 $388 -1.9401418011067053e-015 $388 6.2831853071795987 $258 $389 forward 7 unknown #
face $-1 $390 $391 $39 $-1 $392 reversed single #
loop $-1 $-1 $393 $162 #
plane-surface $-1 0 -50.682347509678486 0 0 1 0 0 0 1 forward_v I I I I #
coedge $-1 $394 $395 $167 $268 forward $163 $-1 #
coedge $-1 $396 $165 $270 $397 forward $105 $-1 #
coedge $-1 $165 $396 $398 $399 forward $105 $-1 #
edge $-1 $400 -50.682347509678486 $272 50.682347509678486 $166 $401 forward 7 unknown #
coedge $-1 $167 $166 $402 $403 forward $66 $-1 #
edge $-1 $273 -50.682347509678486 $404 50.682347509678486 $167 $405 forward 7 unknown #
coedge $-1 $406 $168 $395 $407 reversed $271 $-1 #
coedge $-1 $168 $406 $264 $397 reversed $271 $-1 #
loop $-1 $-1 $168 $390 #
vertex $-1 $266 $408 #
vertex $-1 $268 $409 #
straight-curve $-1 76.60023804437391 50.682347509678486 0 0 0 -1 I I #
face $-1 $410 $411 $40 $-1 $412 reversed single #
loop $-1 $-1 $413 $170 #
plane-surface $-1 -86.976192506017441 0 2.9297291152926501 0 0 1 1 0 0 forward_v I I I I #
coedge $-1 $414 $173 $415 $416 reversed $109 $-1 #
coedge $-1 $173 $414 $284 $417 reversed $109 $-1 #
edge $-1 $286 -12.327250554801838 $418 -2.9297291152926501 $173 $419 forward 7 unknown #
coedge $-1 $175 $174 $413 $420 forward $69 $-1 #
coedge $-1 $421 $422 $174 $283 forward $423 $-1 #
edge $-1 $424 2.9297291152926501 $287 12.327250554801838 $282 $425 forward 7 unknown #
coedge $-1 $426 $176 $279 $417 forward $171 $-1 #
coedge $-1 $176 $426 $421 $427 forward $171 $-1 #
vertex $-1 $280 $428 #
vertex $-1 $427 $429 #
straight-curve $-1 -76.60023804437391 0 12.327250554801838 0 -1 0 I I #
face $-1 $430 $431 $41 $-1 $432 reversed single #
loop $-1 $-1 $433 $178 #
plane-surface $-1 86.976192506017455 0 2.9297291152926501 0 0 1 1 0 0 forward_v I I I I #
coedge $-1 $300 $299 $434 $435 forward $179 $-1 #
coedge $-1 $436 $181 $437 $438 reversed $113 $-1 #
coedge $-1 $181 $436 $299 $439 reversed $113 $-1 #
edge $-1 $301 -12.327250554801838 $440 -2.9297291152926501 $181 $441 forward 7 unknown #
coedge $-1 $183 $182 $442 $443 forward $72 $-1 #
coedge $-1 $444 $445 $182 $298 forward $446 $-1 #
edge $-1 $447 2.9297291152926501 $302 12.327250554801838 $297 $448 forward 7 unknown #
coedge $-1 $292 $184 $294 $439 forward $179 $-1 #
coedge $-1 $184 $292 $444 $449 forward $179 $-1 #
vertex $-1 $295 $450 #
vertex $-1 $449 $451 #
straight-curve $-1 76.60023804437391 0 12.327250554801838 0 1 0 I I #
face $-1 $-1 $452 $42 $-1 $453 reversed single #
loop $-1 $-1 $192 $186 #
plane-surface $-1 0 0 22.771403798707166 0 0 1 1 0 0 forward_v I I I I #
coedge $-1 $454 $455 $456 $457 reversed $187 $-1 #
coedge $-1 $458 $189 $191 $314 forward $117 $-1 #
coedge $-1 $189 $458 $454 $459 forward $117 $-1 #
coedge $-1 $456 $192 $189 $311 forward $305 $-1 #
edge $-1 $317 7.5258269814883327 $460 26.020696483082553 $310 $461 forward 7 unknown #
coedge $-1 $462 $463 $190 $313 forward $452 $-1 #
edge $-1 $464 -35.614642275954239 $316 -25.052911497872682 $312 $465 forward 7 unknown #
edge $-1 $317 -12.593419968407741 $464 -1.2808562293387176e-014 $191 $466 forward 7 unknown #
coedge $-1 $192 $456 $462 $467 forward $305 $-1 #
vertex $-1 $313 $468 #
vertex $-1 $193 $469 #
straight-curve $-1 -24.299088713773774 -89.583539513402044 22.771403798707169 0 1 0 I I #
coedge $-1 $319 $319 $-1 $470 reversed $196 $-1 #
edge $-1 $471 0 $471 6.2831853071796004 $197 $472 forward 7 unknown #
vertex $-1 $200 $473 #
ellipse-curve $-1 -37.509709786341077 -47.252913537722797 17.490538409666385 0 -0.83867057594974714 0.54463902268945019 2 0 0 1 I I #
coedge $-1 $323 $323 $-1 $474 reversed $203 $-1 #
edge $-1 $475 0 $475 6.2831853071796004 $204 $476 forward 7 unknown #
vertex $-1 $207 $477 #
ellipse-curve $-1 -29.583337142800701 -47.252913537722797 17.490538409666385 0 -0.83867057594974714 0.54463902268945019 2 0 0 1 I I #
face $-1 $-1 $339 $45 $-1 $478 forward single #
loop $-1 $-1 $479 $208 #
plane-surface $-1 0 -50.682347509678486 0 0 1 0 0 0 1 forward_v I I I I #
coedge $-1 $480 $481 $482 $483 reversed $209 $-1 #
coedge $-1 $484 $211 $213 $337 forward $131 $-1 #
coedge $-1 $211 $484 $480 $485 forward $131 $-1 #
coedge $-1 $482 $214 $211 $334 forward $339 $-1 #
edge $-1 $341 -26.020696483082553 $486 -7.5258269814883327 $333 $487 forward 7 unknown #
coedge $-1 $488 $489 $212 $336 forward $328 $-1 #
edge $-1 $490 -35.614642275954239 $340 -25.052911497872682 $335 $491 forward 7 unknown #
edge $-1 $341 -12.593419968407741 $490 -1.2808562293387176e-014 $213 $492 forward 7 unknown #
coedge $-1 $214 $482 $488 $493 forward $339 $-1 #
loop $-1 $-1 $482 $327 #
vertex $-1 $336 $494 #
vertex $-1 $215 $495 #
straight-curve $-1 42.793958215367994 -89.583539513402044 22.771403798707169 0 1 0 I I #
coedge $-1 $343 $343 $-1 $496 reversed $218 $-1 #
edge $-1 $497 0 $497 6.2831853071796004 $219 $498 forward 7 unknown #
vertex $-1 $222 $499 #
ellipse-curve $-1 29.583337142800687 -47.252913537722797 17.490538409666385 0 -0.83867057594974714 0.54463902268945019 2 0 0 1 I I #
coedge $-1 $347 $347 $-1 $500 reversed $225 $-1 #
edge $-1 $501 0 $501 6.2831853071796004 $226 $502 forward 7 unknown #
vertex $-1 $229 $503 #
ellipse-curve $-1 37.509709786341062 -47.252913537722797 17.490538409666385 0 -0.83867057594974714 0.54463902268945019 2 0 0 1 I I #
face $-1 $-1 $363 $48 $-1 $504 forward single #
loop $-1 $-1 $505 $230 #
plane-surface $-1 0 50.682347509678486 0 0 -1 0 0 0 -1 forward_v I I I I #
coedge $-1 $506 $507 $508 $509 reversed $231 $-1 #
coedge $-1 $510 $233 $235 $361 forward $145 $-1 #
coedge $-1 $233 $510 $506 $511 forward $145 $-1 #
coedge $-1 $508 $236 $233 $358 forward $363 $-1 #
edge $-1 $365 -15.111547241700308 $512 2.8326281121531025 $357 $513 forward 7 unknown #
coedge $-1 $514 $515 $234 $360 forward $352 $-1 #
edge $-1 $516 -82.242283079932179 $364 -65.891592432323449 $359 $517 forward 7 unknown #
edge $-1 $365 81.404187566255928 $516 101.36469501935699 $235 $518 forward 7 unknown #
coedge $-1 $236 $508 $514 $519 forward $363 $-1 #
loop $-1 $-1 $508 $351 #
vertex $-1 $360 $520 #
vertex $-1 $237 $521 #
straight-curve $-1 -21.25100680647391 59.018216283199877 22.771403798707169 0 -1 0 I I #
coedge $-1 $367 $367 $-1 $522 reversed $240 $-1 #
edge $-1 $523 0 $523 6.2831853071796004 $241 $524 forward 7 unknown #
vertex $-1 $244 $525 #
ellipse-curve $-1 -12.278919129547205 44.957909259258116 14.596058474902808 0 0.81915205242281985 0.57357642473473569 1.5 0 0 1 I I #
face $-1 $-1 $526 $50 $-1 $527 reversed single #
loop $-1 $-1 $251 $245 #
plane-surface $-1 0 0 22.771403798707166 0 0 1 1 0 0 forward_v I I I I #
coedge $-1 $528 $529 $530 $531 reversed $246 $-1 #
coedge $-1 $532 $248 $250 $381 forward $154 $-1 #
coedge $-1 $248 $532 $528 $533 forward $154 $-1 #
coedge $-1 $530 $251 $248 $378 forward $372 $-1 #
edge $-1 $384 12.812617318843117 $534 30.756792672696527 $377 $535 forward 7 unknown #
coedge $-1 $536 $537 $249 $380 forward $526 $-1 #
edge $-1 $538 -82.242283079932179 $383 -65.891592432323449 $379 $539 forward 7 unknown #
edge $-1 $384 81.404187566255928 $538 101.36469501935699 $250 $540 forward 7 unknown #
coedge $-1 $251 $530 $536 $541 forward $372 $-1 #
vertex $-1 $252 $542 #
vertex $-1 $252 $543 #
straight-curve $-1 34.597322314612938 59.018216283199877 22.771403798707169 0 -1 0 I I #
coedge $-1 $386 $386 $-1 $544 reversed $255 $-1 #
edge $-1 $545 0 $545 6.2831853071796004 $256 $546 forward 7 unknown #
vertex $-1 $259 $547 #
ellipse-curve $-1 43.569409991539644 44.957909259258116 14.596058474902808 0 0.81915205242281985 0.57357642473473569 1.5 0 0 1 I I #
face $-1 $-1 $271 $39 $-1 $548 reversed single #
loop $-1 $-1 $549 $260 #
plane-surface $-1 -76.60023804437391 0 0 1 0 0 0 0 -1 forward_v I I I I #
coedge $-1 $550 $398 $549 $551 forward $261 $-1 #
coedge $-1 $552 $263 $550 $553 forward $163 $-1 #
coedge $-1 $263 $552 $269 $407 forward $163 $-1 #
coedge $-1 $265 $264 $554 $555 forward $105 $-1 #
edge $-1 $272 -76.60023804437391 $556 76.60023804437391 $270 $557 forward 7 unknown #
coedge $-1 $393 $402 $265 $399 reversed $261 $-1 #
edge $-1 $558 -76.60023804437391 $400 76.60023804437391 $398 $559 forward 7 unknown #
vertex $-1 $266 $560 #
straight-curve $-1 76.60023804437391 0 22.771403798707166 0 1 0 I I #
coedge $-1 $398 $550 $267 $403 reversed $261 $-1 #
edge $-1 $400 -22.771403798707166 $404 22.771403798707166 $267 $561 forward 7 unknown #
vertex $-1 $403 $562 #
straight-curve $-1 76.60023804437391 0 -22.771403798707166 0 -1 0 I I #
coedge $-1 $270 $269 $563 $564 reversed $271 $-1 #
edge $-1 $565 -76.60023804437391 $273 76.60023804437391 $269 $566 forward 7 unknown #
point $-1 76.60023804437391 50.682347509678486 22.771403798707166 #
point $-1 76.60023804437391 50.682347509678486 -22.771403798707166 #
face $-1 $-1 $423 $40 $-1 $567 reversed single #
loop $-1 $-1 $568 $275 #
plane-surface $-1 -97.352146967660957 0 7.6284898350472439 1 0 0 0 0 -1 forward_v I I I I #
coedge $-1 $569 $415 $281 $420 reversed $276 $-1 #
coedge $-1 $279 $278 $568 $570 reversed $109 $-1 #
coedge $-1 $413 $571 $278 $416 forward $276 $-1 #
edge $-1 $572 -10.375954461643516 $418 10.375954461643516 $278 $573 forward 7 unknown #
edge $-1 $286 -10.375954461643516 $574 10.375954461643516 $279 $575 forward 7 unknown #
vertex $-1 $280 $576 #
straight-curve $-1 -76.60023804437391 50.682347509678486 0 0 0 -1 I I #
edge $-1 $424 -50.682347509678486 $418 50.682347509678486 $413 $577 forward 7 unknown #
coedge $-1 $578 $282 $285 $427 reversed $423 $-1 #
coedge $-1 $282 $578 $569 $579 reversed $423 $-1 #
loop $-1 $-1 $282 $410 #
vertex $-1 $283 $580 #
straight-curve $-1 -76.60023804437391 -50.682347509678486 0 0 0 1 I I #
coedge $-1 $285 $284 $581 $582 forward $171 $-1 #
edge $-1 $583 -10.375954461643516 $287 10.375954461643516 $421 $584 forward 7 unknown #
point $-1 -76.600238044373924 50.682347509678486 12.327250554801838 #
point $-1 -76.600238044373924 -50.682347509678486 12.327250554801838 #
face $-1 $-1 $446 $41 $-1 $585 reversed single #
loop $-1 $-1 $586 $289 #
plane-surface $-1 97.352146967660985 0 7.6284898350472439 -1 0 0 0 0 1 forward_v I I I I #
coedge $-1 $437 $587 $588 $589 forward $290 $-1 #
coedge $-1 $586 $590 $292 $435 reversed $431 $-1 #
edge $-1 $591 -50.682347509678486 $592 50.682347509678486 $434 $593 forward 7 unknown #
coedge $-1 $294 $293 $586 $594 reversed $113 $-1 #
coedge $-1 $442 $433 $293 $438 forward $290 $-1 #
edge $-1 $595 -10.375954461643531 $440 10.375954461643531 $293 $596 forward 7 unknown #
edge $-1 $301 -10.375954461643531 $591 10.375954461643531 $294 $597 forward 7 unknown #
vertex $-1 $295 $598 #
straight-curve $-1 76.60023804437391 -50.682347509678486 0 0 0 -1 I I #
coedge $-1 $587 $437 $296 $443 reversed $290 $-1 #
edge $-1 $447 -50.682347509678486 $440 50.682347509678486 $442 $599 forward 7 unknown #
coedge $-1 $600 $297 $300 $449 reversed $446 $-1 #
coedge $-1 $297 $600 $587 $601 reversed $446 $-1 #
loop $-1 $-1 $297 $430 #
vertex $-1 $298 $602 #
straight-curve $-1 76.60023804437391 50.682347509678486 0 0 0 1 I I #
edge $-1 $592 -10.375954461643531 $302 10.375954461643531 $444 $603 forward 7 unknown #
point $-1 76.600238044373924 -50.682347509678486 12.327250554801838 #
point $-1 76.600238044373924 50.682347509678486 12.327250554801838 #
loop $-1 $-1 $312 $304 #
plane-surface $-1 0 -50.682347509678486 0 0 1 0 0 0 1 forward_v I I I I #
coedge $-1 $455 $307 $309 $459 reversed $187 $-1 #
coedge $-1 $307 $454 $604 $605 reversed $187 $-1 #
coedge $-1 $315 $310 $307 $457 forward $305 $-1 #
edge $-1 $460 -45.76005994763495 $606 -38.901192003723558 $456 $607 forward 7 unknown #
coedge $-1 $309 $308 $463 $608 reversed $117 $-1 #
edge $-1 $609 1.2808562293387176e-014 $460 12.593419968407741 $454 $610 forward 7 unknown #
vertex $-1 $311 $611 #
straight-curve $-1 -16.773261732285441 -43.823479565767101 22.771403798707166 -1 0 0 I I #
coedge $-1 $604 $312 $315 $467 reversed $452 $-1 #
coedge $-1 $312 $604 $458 $608 forward $452 $-1 #
vertex $-1 $313 $612 #
straight-curve $-1 -24.299088713773774 -50.682347509678479 47.824315296579847 0 0 1 I I #
straight-curve $-1 -24.299088713773774 -50.682347509678493 12.209673020625601 0 -0.54463902268945019 -0.83867057594974714 I I #
edge $-1 $606 -42.793958215367994 $316 -24.299088713773774 $462 $613 forward 7 unknown #
point $-1 -24.299088713773774 -50.682347509678486 22.771403798707166 #
point $-1 -24.299088713773774 -43.823479565767094 22.771403798707166 #
edge $-1 $614 1 $614 0 $319 $-1 forward 7 unknown #
vertex $-1 $320 $615 #
ellipse-curve $-1 -37.509709786341077 -42.074640389621074 14.127728615836043 0 -0.83867057594974714 0.54463902268945019 2 0 0 1 I I #
point $-1 -35.509709786341077 -47.25291353772279 17.490538409666385 #
edge $-1 $616 1 $616 0 $323 $-1 forward 7 unknown #
vertex $-1 $324 $617 #
ellipse-curve $-1 -29.583337142800701 -42.074640389621074 14.127728615836043 0 -0.83867057594974714 0.54463902268945019 2 0 0 1 I I #
point $-1 -27.583337142800701 -47.25291353772279 17.490538409666385 #
plane-surface $-1 0 0 22.771403798707166 0 0 1 1 0 0 forward_v I I I I #
coedge $-1 $489 $488 $481 $618 forward $328 $-1 #
coedge $-1 $481 $330 $332 $485 reversed $209 $-1 #
coedge $-1 $330 $480 $479 $618 reversed $209 $-1 #
coedge $-1 $338 $333 $330 $483 forward $339 $-1 #
edge $-1 $486 -45.76005994763495 $619 -38.901192003723558 $482 $620 forward 7 unknown #
coedge $-1 $332 $331 $489 $621 reversed $131 $-1 #
edge $-1 $622 1.2808562293387176e-014 $486 12.593419968407741 $480 $623 forward 7 unknown #
vertex $-1 $334 $624 #
straight-curve $-1 16.773261732285441 -43.823479565767101 22.771403798707166 -1 0 0 I I #
coedge $-1 $479 $335 $338 $493 reversed $328 $-1 #
coedge $-1 $335 $479 $484 $621 forward $328 $-1 #
vertex $-1 $336 $625 #
straight-curve $-1 42.793958215367994 -50.682347509678479 47.824315296579847 0 0 1 I I #
straight-curve $-1 42.793958215367994 -50.682347509678493 12.209673020625601 0 -0.54463902268945019 -0.83867057594974714 I I #
edge $-1 $619 24.299088713773774 $340 42.793958215367994 $488 $626 forward 7 unknown #
point $-1 42.793958215367994 -50.682347509678486 22.771403798707166 #
point $-1 42.793958215367994 -43.823479565767094 22.771403798707166 #
edge $-1 $627 1 $627 0 $343 $-1 forward 7 unknown #
vertex $-1 $344 $628 #
ellipse-curve $-1 29.583337142800687 -42.074640389621074 14.127728615836043 0 -0.83867057594974714 0.54463902268945019 2 0 0 1 I I #
point $-1 31.583337142800687 -47.25291353772279 17.490538409666385 #
edge $-1 $629 1 $629 0 $347 $-1 forward 7 unknown #
vertex $-1 $348 $630 #
ellipse-curve $-1 37.509709786341062 -42.074640389621074 14.127728615836043 0 -0.83867057594974714 0.54463902268945019 2 0 0 1 I I #
point $-1 39.509709786341062 -47.25291353772279 17.490538409666385 #
plane-surface $-1 0 0 22.771403798707166 0 0 1 1 0 0 forward_v I I I I #
coedge $-1 $515 $514 $507 $631 forward $352 $-1 #
coedge $-1 $507 $354 $356 $511 reversed $231 $-1 #
coedge $-1 $354 $506 $505 $631 reversed $231 $-1 #
coedge $-1 $362 $357 $354 $509 forward $363 $-1 #
edge $-1 $512 -19.784745274362145 $632 -8.3358687735213906 $508 $633 forward 7 unknown #
coedge $-1 $356 $355 $515 $634 reversed $145 $-1 #
edge $-1 $635 -101.36469501935699 $512 -81.404187566255928 $506 $636 forward 7 unknown #
vertex $-1 $358 $637 #
straight-curve $-1 -6.1394595647736026 39.233471008837739 22.771403798707176 1 0 0 I I #
coedge $-1 $505 $359 $362 $519 reversed $352 $-1 #
coedge $-1 $359 $505 $510 $634 forward $352 $-1 #
vertex $-1 $360 $638 #
straight-curve $-1 -21.25100680647391 50.682347509678486 88.662996231030618 0 0 1 I I #
straight-curve $-1 -21.25100680647391 -7.4580518538511598 89.453811119417892 0 0.57357642473473569 -0.81915205242281985 I I #
edge $-1 $632 3.3068314526205 $364 21.25100680647391 $514 $639 forward 7 unknown #
point $-1 -21.25100680647391 50.682347509678486 22.771403798707166 #
point $-1 -21.25100680647391 39.233471008837732 22.771403798707169 #
edge $-1 $640 1 $640 0 $367 $-1 forward 7 unknown #
vertex $-1 $368 $641 #
ellipse-curve $-1 -12.278919129547205 40.1873304013899 11.255663297819391 0 0.81915205242281985 0.57357642473473569 1.5 0 0 1 I I #
point $-1 -10.778919129547205 44.957909259258116 14.596058474902811 #
loop $-1 $-1 $379 $371 #
plane-surface $-1 0 50.682347509678486 0 0 -1 0 0 0 -1 forward_v I I I I #
coedge $-1 $529 $374 $376 $533 reversed $246 $-1 #
coedge $-1 $374 $528 $642 $643 reversed $246 $-1 #
coedge $-1 $382 $377 $374 $531 forward $372 $-1 #
edge $-1 $534 -19.784745274362145 $644 -8.3358687735213906 $530 $645 forward 7 unknown #
coedge $-1 $376 $375 $537 $646 reversed $154 $-1 #
edge $-1 $647 -101.36469501935699 $534 -81.404187566255928 $528 $648 forward 7 unknown #
vertex $-1 $378 $649 #
straight-curve $-1 21.784704995769822 39.233471008837739 22.771403798707176 1 0 0 I I #
coedge $-1 $642 $379 $382 $541 reversed $526 $-1 #
coedge $-1 $379 $642 $532 $646 forward $526 $-1 #
vertex $-1 $380 $650 #
straight-curve $-1 34.597322314612938 50.682347509678486 88.662996231030618 0 0 1 I I #
straight-curve $-1 34.597322314612938 -7.4580518538511598 89.453811119417892 0 0.57357642473473569 -0.81915205242281985 I I #
edge $-1 $644 -52.541497668466349 $383 -34.597322314612938 $536 $651 forward 7 unknown #
point $-1 34.597322314612938 50.682347509678486 22.771403798707166 #
point $-1 34.597322314612938 39.233471008837732 22.771403798707169 #
edge $-1 $652 1 $652 0 $386 $-1 forward 7 unknown #
vertex $-1 $387 $653 #
ellipse-curve $-1 43.569409991539644 40.1873304013899 11.255663297819391 0 0.81915205242281985 0.57357642473473569 1.5 0 0 1 I I #
point $-1 45.069409991539644 44.957909259258116 14.596058474902811 #
plane-surface $-1 0 50.682347509678486 0 0 -1 0 0 0 -1 forward_v I I I I #
coedge $-1 $554 $654 $393 $551 reversed $391 $-1 #
coedge $-1 $402 $393 $394 $553 reversed $261 $-1 #
edge $-1 $558 -22.771403798707166 $655 22.771403798707166 $549 $656 forward 7 unknown #
coedge $-1 $395 $394 $654 $657 forward $163 $-1 #
edge $-1 $404 -76.60023804437391 $655 76.60023804437391 $550 $658 forward 7 unknown #
coedge $-1 $563 $549 $396 $555 reversed $391 $-1 #
edge $-1 $556 -50.682347509678486 $558 50.682347509678486 $554 $659 forward 7 unknown #
vertex $-1 $397 $660 #
straight-curve $-1 0 50.682347509678486 22.771403798707166 -1 0 0 I I #
vertex $-1 $555 $661 #
straight-curve $-1 0 -50.682347509678486 22.771403798707166 1 0 0 I I #
point $-1 76.60023804437391 -50.682347509678486 22.771403798707166 #
straight-curve $-1 76.60023804437391 -50.682347509678486 0 0 0 -1 I I #
point $-1 76.60023804437391 -50.682347509678486 -22.771403798707166 #
coedge $-1 $654 $554 $406 $564 forward $391 $-1 #
edge $-1 $556 -22.771403798707166 $565 22.771403798707166 $406 $662 forward 7 unknown #
vertex $-1 $407 $663 #
straight-curve $-1 0 50.682347509678486 -22.771403798707166 1 0 0 I I #
plane-surface $-1 0 -50.682347509678486 0 0 1 0 0 0 1 forward_v I I I I #
coedge $-1 $664 $581 $414 $570 forward $411 $-1 #
coedge $-1 $571 $413 $422 $579 forward $276 $-1 #
edge $-1 $574 -4.6987607197545938 $572 4.6987607197545938 $414 $665 forward 7 unknown #
coedge $-1 $415 $569 $664 $666 forward $276 $-1 #
vertex $-1 $416 $667 #
straight-curve $-1 -86.976192506017441 50.682347509678486 2.9297291152926501 1 0 0 I I #
vertex $-1 $417 $668 #
straight-curve $-1 -86.976192506017441 50.682347509678486 12.327250554801838 -1 0 0 I I #
point $-1 -76.600238044373924 50.682347509678486 2.9297291152926501 #
straight-curve $-1 -76.60023804437391 0 2.9297291152926501 0 1 0 I I #
coedge $-1 $422 $421 $669 $670 forward $423 $-1 #
edge $-1 $424 -10.375954461643516 $671 10.375954461643516 $422 $672 forward 7 unknown #
point $-1 -76.600238044373924 -50.682347509678486 2.9297291152926501 #
coedge $-1 $568 $669 $426 $582 reversed $411 $-1 #
edge $-1 $574 -50.682347509678486 $583 50.682347509678486 $581 $673 forward 7 unknown #
vertex $-1 $582 $674 #
straight-curve $-1 -86.976192506017441 -50.682347509678486 12.327250554801838 1 0 0 I I #
plane-surface $-1 0 50.682347509678486 0 0 -1 0 0 0 -1 forward_v I I I I #
coedge $-1 $588 $434 $436 $594 forward $431 $-1 #
coedge $-1 $433 $442 $445 $601 forward $290 $-1 #
coedge $-1 $590 $586 $433 $589 reversed $431 $-1 #
edge $-1 $675 -50.682347509678486 $595 50.682347509678486 $588 $676 forward 7 unknown #
coedge $-1 $434 $588 $600 $677 reversed $431 $-1 #
vertex $-1 $435 $678 #
vertex $-1 $435 $679 #
straight-curve $-1 97.352146967660985 0 12.327250554801838 0 1 0 I I #
edge $-1 $591 -4.6987607197545938 $595 4.6987607197545938 $586 $680 forward 7 unknown #
vertex $-1 $594 $681 #
straight-curve $-1 86.976192506017455 -50.682347509678486 2.9297291152926501 -1 0 0 I I #
straight-curve $-1 86.976192506017455 -50.682347509678486 12.327250554801838 1 0 0 I I #
point $-1 76.600238044373924 -50.682347509678486 2.9297291152926501 #
straight-curve $-1 76.60023804437391 0 2.9297291152926501 0 -1 0 I I #
coedge $-1 $445 $444 $590 $677 forward $446 $-1 #
edge $-1 $447 -10.375954461643531 $675 10.375954461643531 $445 $682 forward 7 unknown #
point $-1 76.600238044373924 50.682347509678486 2.9297291152926501 #
straight-curve $-1 86.976192506017455 50.682347509678486 12.327250554801838 -1 0 0 I I #
coedge $-1 $463 $462 $455 $605 forward $452 $-1 #
edge $-1 $606 25.052911497872682 $609 35.614642275954239 $604 $683 forward 7 unknown #
vertex $-1 $467 $684 #
straight-curve $-1 -42.793958215367994 -89.583539513402044 22.771403798707169 0 -1 0 I I #
edge $-1 $609 -26.020696483082553 $464 -7.5258269814883327 $463 $685 forward 7 unknown #
vertex $-1 $608 $686 #
straight-curve $-1 -42.793958215367994 -50.682347509678493 12.209673020625601 0 0.54463902268945019 0.83867057594974714 I I #
point $-1 -42.793958215367994 -43.823479565767094 22.771403798707166 #
point $-1 -24.299088713773774 -50.682347509678486 12.209673020625612 #
straight-curve $-1 0 -50.682347509678486 22.771403798707166 1 0 0 I I #
vertex $-1 $470 $687 #
point $-1 -35.509709786341077 -42.074640389621074 14.127728615836043 #
vertex $-1 $474 $688 #
point $-1 -27.583337142800701 -42.074640389621074 14.127728615836043 #
edge $-1 $619 25.052911497872682 $622 35.614642275954239 $479 $689 forward 7 unknown #
vertex $-1 $493 $690 #
straight-curve $-1 24.299088713773774 -89.583539513402044 22.771403798707169 0 -1 0 I I #
edge $-1 $622 7.5258269814883327 $490 26.020696483082553 $489 $691 forward 7 unknown #
vertex $-1 $621 $692 #
straight-curve $-1 24.299088713773774 -50.682347509678493 12.209673020625601 0 0.54463902268945019 0.83867057594974714 I I #
point $-1 24.299088713773774 -43.823479565767094 22.771403798707166 #
point $-1 42.793958215367994 -50.682347509678486 12.209673020625612 #
straight-curve $-1 0 -50.682347509678486 22.771403798707166 1 0 0 I I #
vertex $-1 $496 $693 #
point $-1 31.583337142800687 -42.074640389621074 14.127728615836043 #
vertex $-1 $500 $694 #
point $-1 39.509709786341062 -42.074640389621074 14.127728615836043 #
edge $-1 $632 65.891592432323449 $635 82.242283079932179 $505 $695 forward 7 unknown #
vertex $-1 $519 $696 #
straight-curve $-1 -3.3068314526205 59.018216283199877 22.771403798707169 0 1 0 I I #
edge $-1 $635 -2.8326281121531025 $516 15.111547241700308 $515 $697 forward 7 unknown #
vertex $-1 $634 $698 #
straight-curve $-1 -3.3068314526205 -7.4580518538511598 89.453811119417892 0 -0.57357642473473569 0.81915205242281985 I I #
point $-1 -3.3068314526205 39.233471008837732 22.771403798707169 #
point $-1 -21.25100680647391 50.682347509678479 6.4207131510984397 #
straight-curve $-1 0 50.682347509678486 22.771403798707166 -1 0 0 I I #
vertex $-1 $522 $699 #
point $-1 -10.778919129547205 40.1873304013899 11.255663297819391 #
coedge $-1 $537 $536 $529 $643 forward $526 $-1 #
edge $-1 $644 65.891592432323449 $647 82.242283079932179 $642 $700 forward 7 unknown #
vertex $-1 $541 $701 #
straight-curve $-1 52.541497668466349 59.018216283199877 22.771403798707169 0 1 0 I I #
edge $-1 $647 -30.756792672696527 $538 -12.812617318843117 $537 $702 forward 7 unknown #
vertex $-1 $646 $703 #
straight-curve $-1 52.541497668466349 -7.4580518538511598 89.453811119417892 0 -0.57357642473473569 0.81915205242281985 I I #
point $-1 52.541497668466349 39.233471008837732 22.771403798707169 #
point $-1 34.597322314612938 50.682347509678479 6.4207131510984397 #
straight-curve $-1 0 50.682347509678486 22.771403798707166 -1 0 0 I I #
vertex $-1 $544 $704 #
point $-1 45.069409991539644 40.1873304013899 11.255663297819391 #
coedge $-1 $549 $563 $552 $657 reversed $391 $-1 #
vertex $-1 $657 $705 #
straight-curve $-1 -76.60023804437391 -50.682347509678486 0 0 0 -1 I I #
edge $-1 $655 -50.682347509678486 $565 50.682347509678486 $654 $706 forward 7 unknown #
straight-curve $-1 0 -50.682347509678486 -22.771403798707166 -1 0 0 I I #
straight-curve $-1 -76.60023804437391 0 22.771403798707166 0 -1 0 I I #
point $-1 -76.60023804437391 50.682347509678486 22.771403798707166 #
point $-1 -76.60023804437391 -50.682347509678486 22.771403798707166 #
straight-curve $-1 -76.60023804437391 50.682347509678486 0 0 0 -1 I I #
point $-1 -76.60023804437391 50.682347509678486 -22.771403798707166 #
coedge $-1 $669 $568 $571 $666 reversed $411 $-1 #
straight-curve $-1 -97.352146967660957 50.682347509678486 7.6284898350472439 0 0 -1 I I #
edge $-1 $671 -50.682347509678486 $572 50.682347509678486 $664 $707 forward 7 unknown #
point $-1 -97.352146967660957 50.682347509678486 2.9297291152926501 #
point $-1 -97.352146967660957 50.682347509678486 12.327250554801838 #
coedge $-1 $581 $664 $578 $670 reversed $411 $-1 #
edge $-1 $583 -4.6987607197545938 $671 4.6987607197545938 $669 $708 forward 7 unknown #
vertex $-1 $666 $709 #
straight-curve $-1 -86.976192506017441 -50.682347509678486 2.9297291152926501 -1 0 0 I I #
straight-curve $-1 -97.352146967660957 0 12.327250554801838 0 -1 0 I I #
point $-1 -97.352146967660957 -50.682347509678486 12.327250554801838 #
vertex $-1 $589 $710 #
straight-curve $-1 97.352146967660985 0 2.9297291152926501 0 -1 0 I I #
edge $-1 $592 -4.6987607197545938 $675 4.6987607197545938 $590 $711 forward 7 unknown #
point $-1 97.352146967660985 -50.682347509678486 12.327250554801838 #
point $-1 97.352146967660985 50.682347509678486 12.327250554801838 #
straight-curve $-1 97.352146967660985 -50.682347509678486 7.6284898350472439 0 0 -1 I I #
point $-1 97.352146967660985 -50.682347509678486 2.9297291152926501 #
straight-curve $-1 86.976192506017455 50.682347509678486 2.9297291152926501 1 0 0 I I #
straight-curve $-1 -42.793958215367994 -50.682347509678479 47.824315296579847 0 0 -1 I I #
point $-1 -42.793958215367994 -50.682347509678486 22.771403798707166 #
straight-curve $-1 -16.773261732285441 -50.682347509678486 12.209673020625615 1 0 0 I I #
point $-1 -42.793958215367994 -50.682347509678486 12.209673020625612 #
point $-1 -37.509709786341077 -40.397299237721576 13.038450570457142 #
point $-1 -29.583337142800701 -40.397299237721576 13.038450570457142 #
straight-curve $-1 24.299088713773774 -50.682347509678479 47.824315296579847 0 0 -1 I I #
point $-1 24.299088713773774 -50.682347509678486 22.771403798707166 #
straight-curve $-1 16.773261732285441 -50.682347509678486 12.209673020625615 1 0 0 I I #
point $-1 24.299088713773774 -50.682347509678486 12.209673020625612 #
point $-1 29.583337142800687 -40.397299237721576 13.038450570457142 #
point $-1 37.509709786341062 -40.397299237721576 13.038450570457142 #
straight-curve $-1 -3.3068314526205 50.682347509678486 88.662996231030618 0 0 -1 I I #
point $-1 -3.3068314526205 50.682347509678486 22.771403798707166 #
straight-curve $-1 -6.1394595647736026 50.682347509678493 6.4207131510984325 -1 0 0 I I #
point $-1 -3.3068314526205 50.682347509678479 6.4207131510984397 #
point $-1 -12.278919129547205 38.958602322755667 10.395298660717286 #
straight-curve $-1 52.541497668466349 50.682347509678486 88.662996231030618 0 0 -1 I I #
point $-1 52.541497668466349 50.682347509678486 22.771403798707166 #
straight-curve $-1 21.784704995769822 50.682347509678493 6.4207131510984325 -1 0 0 I I #
point $-1 52.541497668466349 50.682347509678479 6.4207131510984397 #
point $-1 43.569409991539644 38.958602322755667 10.395298660717286 #
point $-1 -76.60023804437391 -50.682347509678486 -22.771403798707166 #
straight-curve $-1 -76.60023804437391 0 -22.771403798707166 0 1 0 I I #
straight-curve $-1 -97.352146967660957 0 2.9297291152926501 0 1 0 I I #
straight-curve $-1 -97.352146967660957 -50.682347509678486 7.6284898350472439 0 0 -1 I I #
point $-1 -97.352146967660957 -50.682347509678486 2.9297291152926501 #
point $-1 97.352146967660985 50.682347509678486 2.9297291152926501 #
straight-curve $-1 97.352146967660985 50.682347509678486 7.6284898350472439 0 0 -1 I I #
End-of-ACIS-data 