500 0 7 0           
7 Unknown 11 ACIS 5.0 NT 24 Thu Mar 25 21:05:29 1999 
-1 9.9999999999999995e-007 1e-010 
body $-1 $7 $-1 $8 #
body $-1 $9 $-1 $10 #
body $-1 $11 $-1 $12 #
body $-1 $13 $-1 $14 #
body $-1 $15 $-1 $16 #
body $-1 $17 $-1 $18 #
body $-1 $19 $-1 $20 #
lump $-1 $-1 $21 $0 #
transform $-1 1 0 0 0 1 0 0 0 1 67.49595629749443 29.131590085808444 7.1022864638047221 1 rotate no_reflect no_shear #
lump $-1 $-1 $22 $1 #
transform $-1 1 0 0 0 1 0 0 0 1 67.49595629749443 29.131590085808444 7.1022864638047221 1 rotate no_reflect no_shear #
lump $-1 $-1 $23 $2 #
transform $-1 1 0 0 0 1 0 0 0 1 67.49595629749443 29.131590085808444 7.1022864638047221 1 rotate no_reflect no_shear #
lump $-1 $-1 $24 $3 #
transform $-1 1 0 0 0 1 0 0 0 1 67.49595629749443 29.131590085808444 7.1022864638047221 1 rotate no_reflect no_shear #
lump $-1 $-1 $25 $4 #
transform $-1 1 0 0 0 1 0 0 0 1 67.49595629749443 29.131590085808444 7.1022864638047221 1 rotate no_reflect no_shear #
lump $-1 $-1 $26 $5 #
transform $-1 1 0 0 0 1 0 0 0 1 67.49595629749443 29.131590085808444 7.1022864638047221 1 rotate no_reflect no_shear #
lump $-1 $-1 $27 $6 #
transform $-1 1 0 0 0 1 0 0 0 1 67.49595629749443 29.131590085808444 7.1022864638047221 1 rotate no_reflect no_shear #
shell $-1 $-1 $-1 $28 $-1 $7 #
shell $-1 $-1 $-1 $29 $-1 $9 #
shell $-1 $-1 $-1 $30 $-1 $11 #
shell $-1 $-1 $-1 $31 $-1 $13 #
shell $-1 $-1 $-1 $32 $-1 $15 #
shell $-1 $-1 $-1 $33 $-1 $17 #
shell $-1 $-1 $-1 $34 $-1 $19 #
face $-1 $35 $36 $21 $-1 $37 forward single #
face $-1 $38 $39 $22 $-1 $40 reversed single #
face $-1 $41 $42 $23 $-1 $43 forward single #
face $-1 $44 $45 $24 $-1 $46 reversed single #
face $-1 $47 $48 $25 $-1 $49 forward single #
face $-1 $50 $51 $26 $-1 $52 reversed single #
face $-1 $53 $54 $27 $-1 $55 forward single #
face $-1 $56 $57 $21 $-1 $58 reversed single #
loop $-1 $-1 $59 $28 #
plane-surface $-1 0 0 7.1022864638047221 0 0 1 1 0 0 forward_v I I I I #
face $-1 $60 $61 $22 $-1 $62 forward single #
loop $-1 $-1 $63 $29 #
plane-surface $-1 -61.47244920994676 0 2.7937403654252666 -1 0 0 0 0 1 forward_v I I I I #
face $-1 $64 $65 $23 $-1 $66 reversed single #
loop $-1 $-1 $67 $30 #
plane-surface $-1 64.484202753720595 0 4.5241301944145622 0 0 1 1 0 0 forward_v I I I I #
face $-1 $68 $69 $24 $-1 $70 reversed single #
loop $-1 $-1 $71 $31 #
plane-surface $-1 -45.311050212052308 78.58486214578879 138.91556126076529 -1 0 0 0 0.68199836817093118 0.7313536940579346 forward_v I I I I #
face $-1 $72 $73 $25 $-1 $74 forward single #
loop $-1 $75 $76 $32 #
cone-surface $-1 -53.391749710999534 24.392749333426092 2.5190890586409966 0 -0.68199836817093118 -0.7313536940579346 1.5 0 0 1 I I 0 1 1.5 forward I I I I #
face $-1 $77 $78 $26 $-1 $79 reversed single #
loop $-1 $-1 $80 $33 #
plane-surface $-1 -38.391436525539426 -142.34533517040569 74.210189131131628 -1 0 0 0 -0.83867057594974714 0.54463902268945019 forward_v I I I I #
face $-1 $81 $82 $27 $-1 $83 forward single #
loop $-1 $84 $85 $34 #
cone-surface $-1 -49.931942867743089 -26.289882568144069 3.4023601877755909 0 0.83867057594974714 -0.54463902268945019 1 0 0 1 I I 0 1 1 forward I I I I #
face $-1 $86 $87 $21 $-1 $88 reversed single #
loop $-1 $-1 $89 $35 #
plane-surface $-1 0 0 -7.1022864638047221 0 0 1 1 0 0 forward_v I I I I #
coedge $-1 $90 $91 $92 $93 forward $36 $-1 #
face $-1 $94 $95 $22 $-1 $96 reversed single #
loop $-1 $-1 $97 $38 #
plane-surface $-1 -64.484202753720595 0 4.5241301944145622 0 0 1 1 0 0 forward_v I I I I #
coedge $-1 $98 $99 $100 $101 reversed $39 $-1 #
face $-1 $102 $103 $23 $-1 $104 reversed single #
loop $-1 $-1 $105 $41 #
plane-surface $-1 64.484202753720595 0 1.063350536435971 0 0 1 1 0 0 forward_v I I I I #
coedge $-1 $106 $107 $108 $109 reversed $42 $-1 #
face $-1 $110 $111 $24 $-1 $112 forward single #
loop $-1 $-1 $113 $44 #
plane-surface $-1 -53.391749710999534 -13.479401960266586 40.188727316474356 0 0.68199836817093118 0.7313536940579346 1 0 0 forward_v I I I I #
coedge $-1 $114 $115 $116 $117 reversed $45 $-1 #
face $-1 $-1 $118 $25 $-1 $119 forward single #
loop $-1 $120 $121 $47 #
cone-surface $-1 -53.391749710999534 22.707474274043168 0.71185285734484616 0 -0.68199836817093118 -0.7313536940579346 0.75 0 0 1 I I -0.70710678118654757 0.70710678118654757 0.75 forward I I I I #
loop $-1 $-1 $122 $32 #
coedge $-1 $76 $76 $123 $124 reversed $48 $-1 #
face $-1 $125 $126 $26 $-1 $127 forward single #
loop $-1 $-1 $128 $50 #
plane-surface $-1 -49.931942867743089 -29.131590085808455 0.68832578441721637 0 -0.83867057594974714 0.54463902268945019 1 0 0 forward_v I I I I #
coedge $-1 $129 $130 $131 $132 reversed $51 $-1 #
face $-1 $-1 $133 $27 $-1 $134 forward single #
loop $-1 $135 $136 $53 #
cone-surface $-1 -49.931942867743089 -25.111477079328665 2.6370947400954972 0 0.83867057594974714 -0.54463902268945019 0.5 0 0 1 I I -0.70710678118654746 0.70710678118654746 0.5 forward I I I I #
loop $-1 $-1 $137 $34 #
coedge $-1 $85 $85 $138 $139 reversed $54 $-1 #
face $-1 $140 $141 $21 $-1 $142 reversed single #
loop $-1 $-1 $143 $56 #
plane-surface $-1 0 -29.131590085808444 0 0 1 0 0 0 1 forward_v I I I I #
coedge $-1 $144 $145 $146 $147 forward $57 $-1 #
coedge $-1 $148 $59 $149 $150 forward $36 $-1 #
coedge $-1 $59 $148 $151 $152 forward $36 $-1 #
coedge $-1 $153 $154 $59 $93 reversed $155 $-1 #
edge $-1 $156 -29.131590085808444 $157 29.131590085808444 $92 $158 forward 7 unknown #
face $-1 $159 $160 $22 $-1 $161 reversed single #
loop $-1 $-1 $100 $60 #
plane-surface $-1 -64.484202753720595 0 1.063350536435971 0 0 1 1 0 0 forward_v I I I I #
coedge $-1 $162 $163 $164 $165 forward $61 $-1 #
coedge $-1 $164 $63 $166 $167 reversed $39 $-1 #
coedge $-1 $63 $164 $168 $169 reversed $39 $-1 #
coedge $-1 $170 $171 $63 $101 forward $95 $-1 #
edge $-1 $172 -29.131590085808444 $173 29.131590085808444 $63 $174 forward 7 unknown #
face $-1 $175 $176 $23 $-1 $177 reversed single #
loop $-1 $-1 $178 $64 #
plane-surface $-1 61.47244920994676 0 2.7937403654252666 1 0 0 0 0 -1 forward_v I I I I #
coedge $-1 $179 $180 $181 $182 reversed $65 $-1 #
coedge $-1 $183 $67 $184 $185 reversed $42 $-1 #
coedge $-1 $67 $183 $186 $187 reversed $42 $-1 #
coedge $-1 $188 $189 $67 $109 forward $190 $-1 #
edge $-1 $191 -29.131590085808444 $192 29.131590085808444 $108 $193 forward 7 unknown #
face $-1 $194 $195 $24 $-1 $196 reversed single #
loop $-1 $-1 $197 $68 #
plane-surface $-1 0 0 7.1022864638047221 0 0 1 1 0 0 forward_v I I I I #
coedge $-1 $198 $199 $200 $201 reversed $69 $-1 #
coedge $-1 $115 $71 $202 $203 reversed $45 $-1 #
coedge $-1 $71 $114 $198 $204 reversed $45 $-1 #
coedge $-1 $200 $205 $71 $117 forward $195 $-1 #
edge $-1 $206 62.35549416657792 $207 69.004447115399955 $116 $208 forward 7 unknown #
loop $-1 $-1 $123 $72 #
plane-surface $-1 -53.391749710999534 -13.479401960266586 40.188727316474356 0 0.68199836817093118 0.7313536940579346 1 0 0 forward_v I I I I #
loop $-1 $-1 $209 $47 #
coedge $-1 $121 $121 $122 $210 reversed $73 $-1 #
coedge $-1 $122 $122 $121 $210 forward $75 $-1 #
coedge $-1 $123 $123 $76 $124 forward $118 $-1 #
edge $-1 $211 8.9266349386659439e-016 $211 6.2831853071796013 $123 $212 forward 7 unknown #
face $-1 $213 $214 $26 $-1 $215 forward single #
loop $-1 $-1 $131 $77 #
plane-surface $-1 0 0 7.1022864638047221 0 0 1 1 0 0 forward_v I I I I #
coedge $-1 $216 $217 $218 $219 reversed $78 $-1 #
coedge $-1 $130 $80 $220 $221 reversed $51 $-1 #
coedge $-1 $80 $129 $216 $222 reversed $51 $-1 #
coedge $-1 $218 $223 $80 $132 forward $126 $-1 #
edge $-1 $224 42.041077499394405 $225 46.206352133042074 $131 $226 forward 7 unknown #
loop $-1 $-1 $138 $81 #
plane-surface $-1 -49.931942867743089 -29.131590085808455 0.68832578441721637 0 -0.83867057594974714 0.54463902268945019 1 0 0 forward_v I I I I #
loop $-1 $-1 $227 $53 #
coedge $-1 $136 $136 $137 $228 reversed $82 $-1 #
coedge $-1 $137 $137 $136 $228 forward $84 $-1 #
coedge $-1 $138 $138 $85 $139 forward $133 $-1 #
edge $-1 $229 -4.5399415108705994e-016 $229 6.2831853071795996 $138 $230 forward 7 unknown #
face $-1 $231 $232 $21 $-1 $233 reversed single #
loop $-1 $-1 $234 $86 #
plane-surface $-1 -67.49595629749443 0 0 1 0 0 0 0 -1 forward_v I I I I #
coedge $-1 $235 $151 $236 $237 forward $87 $-1 #
coedge $-1 $238 $89 $235 $239 forward $57 $-1 #
coedge $-1 $89 $238 $240 $241 forward $57 $-1 #
coedge $-1 $154 $153 $89 $147 reversed $155 $-1 #
edge $-1 $242 -29.131590085808444 $243 29.131590085808444 $146 $244 forward 7 unknown #
coedge $-1 $91 $90 $245 $246 forward $36 $-1 #
coedge $-1 $247 $248 $90 $150 reversed $232 $-1 #
edge $-1 $157 -67.49595629749443 $249 67.49595629749443 $149 $250 forward 7 unknown #
coedge $-1 $143 $251 $91 $152 reversed $87 $-1 #
edge $-1 $252 -67.49595629749443 $156 67.49595629749443 $151 $253 forward 7 unknown #
coedge $-1 $146 $92 $251 $254 forward $155 $-1 #
coedge $-1 $92 $146 $247 $255 reversed $155 $-1 #
loop $-1 $-1 $153 $231 #
vertex $-1 $93 $256 #
vertex $-1 $93 $257 #
straight-curve $-1 67.49595629749443 0 7.1022864638047221 0 1 0 I I #
face $-1 $258 $259 $22 $-1 $260 reversed single #
loop $-1 $-1 $261 $94 #
plane-surface $-1 0 -29.131590085808444 0 0 1 0 0 0 1 forward_v I I I I #
coedge $-1 $262 $97 $263 $264 reversed $61 $-1 #
coedge $-1 $97 $262 $265 $266 reversed $61 $-1 #
coedge $-1 $99 $98 $97 $165 reversed $39 $-1 #
edge $-1 $267 -29.131590085808444 $268 29.131590085808444 $164 $269 forward 7 unknown #
coedge $-1 $270 $263 $98 $167 forward $271 $-1 #
edge $-1 $268 -3.1272600117019289 $172 0.33351964627666231 $166 $272 forward 7 unknown #
coedge $-1 $265 $261 $99 $169 forward $160 $-1 #
edge $-1 $173 -0.33351964627666231 $267 3.1272600117019289 $168 $273 forward 7 unknown #
coedge $-1 $274 $100 $261 $275 reversed $95 $-1 #
coedge $-1 $100 $274 $270 $276 reversed $95 $-1 #
vertex $-1 $276 $277 #
vertex $-1 $275 $278 #
straight-curve $-1 -61.47244920994676 0 1.063350536435971 0 -1 0 I I #
face $-1 $279 $280 $23 $-1 $281 reversed single #
loop $-1 $-1 $186 $102 #
plane-surface $-1 0 -29.131590085808444 0 0 1 0 0 0 1 forward_v I I I I #
coedge $-1 $282 $283 $284 $285 reversed $103 $-1 #
coedge $-1 $286 $105 $287 $288 reversed $65 $-1 #
coedge $-1 $105 $286 $289 $290 reversed $65 $-1 #
coedge $-1 $189 $188 $105 $182 forward $190 $-1 #
edge $-1 $291 -29.131590085808444 $292 29.131590085808444 $181 $293 forward 7 unknown #
coedge $-1 $107 $106 $283 $294 forward $42 $-1 #
coedge $-1 $295 $284 $106 $185 forward $280 $-1 #
edge $-1 $296 29.230347833086462 $191 35.253854920634133 $184 $297 forward 7 unknown #
coedge $-1 $298 $299 $107 $187 forward $176 $-1 #
edge $-1 $192 -35.253854920634133 $300 -29.230347833086462 $186 $301 forward 7 unknown #
coedge $-1 $181 $108 $299 $302 forward $190 $-1 #
coedge $-1 $108 $181 $295 $303 reversed $190 $-1 #
loop $-1 $-1 $108 $279 #
vertex $-1 $303 $304 #
vertex $-1 $302 $305 #
straight-curve $-1 67.49595629749443 0 4.5241301944145622 0 -1 0 I I #
face $-1 $-1 $306 $24 $-1 $307 forward single #
loop $-1 $-1 $308 $110 #
plane-surface $-1 0 29.131590085808444 0 0 -1 0 0 0 -1 forward_v I I I I #
coedge $-1 $309 $310 $311 $312 forward $111 $-1 #
coedge $-1 $313 $113 $115 $204 forward $69 $-1 #
coedge $-1 $113 $313 $314 $315 forward $69 $-1 #
coedge $-1 $308 $116 $113 $201 forward $195 $-1 #
edge $-1 $207 18.615175356552541 $316 34.776574354446993 $200 $317 forward 7 unknown #
coedge $-1 $310 $309 $114 $203 forward $111 $-1 #
edge $-1 $318 -17.290969925341187 $206 -10.160840987085951 $202 $319 forward 7 unknown #
edge $-1 $207 -58.263180171616895 $318 -48.51395897237262 $115 $320 forward 7 unknown #
coedge $-1 $116 $308 $310 $321 reversed $195 $-1 #
vertex $-1 $321 $322 #
vertex $-1 $117 $323 #
straight-curve $-1 -45.311050212052308 29.131590085808444 69.457780630382643 0 0 -1 I I #
coedge $-1 $209 $209 $-1 $324 reversed $120 $-1 #
edge $-1 $325 0 $325 6.2831853071796004 $121 $326 forward 7 unknown #
vertex $-1 $124 $327 #
ellipse-curve $-1 -53.391749710999534 25.566525616680824 3.7778099893937021 0 0.68199836817093118 0.7313536940579346 1.5 0 0 1 I I #
face $-1 $-1 $328 $26 $-1 $329 reversed single #
loop $-1 $-1 $330 $125 #
plane-surface $-1 -61.47244920994676 0 2.7937403654252666 -1 0 0 0 0 1 forward_v I I I I #
coedge $-1 $331 $128 $130 $222 forward $78 $-1 #
coedge $-1 $128 $331 $330 $332 forward $78 $-1 #
coedge $-1 $333 $131 $128 $219 forward $126 $-1 #
edge $-1 $225 13.425465091667881 $334 36.506477776075208 $218 $335 forward 7 unknown #
coedge $-1 $336 $337 $129 $221 forward $328 $-1 #
edge $-1 $338 -36.416768781148583 $224 -30.00280810176109 $220 $339 forward 7 unknown #
edge $-1 $225 -7.6477712028039821 $338 -1.9585287993478785e-014 $130 $340 forward 7 unknown #
coedge $-1 $131 $333 $336 $341 forward $126 $-1 #
vertex $-1 $221 $342 #
vertex $-1 $132 $343 #
straight-curve $-1 -38.391436525539426 -71.172667585202845 7.1022864638047238 0 1 0 I I #
coedge $-1 $227 $227 $-1 $344 reversed $135 $-1 #
edge $-1 $345 0 $345 6.2831853071796004 $136 $346 forward 7 unknown #
vertex $-1 $139 $347 #
ellipse-curve $-1 -49.931942867743089 -27.048952768984613 3.8953061241109692 0 -0.83867057594974714 0.54463902268945019 1 0 0 1 I I #
face $-1 $-1 $155 $21 $-1 $348 reversed single #
loop $-1 $-1 $247 $140 #
plane-surface $-1 0 29.131590085808444 0 0 -1 0 0 0 -1 forward_v I I I I #
coedge $-1 $349 $245 $248 $350 forward $141 $-1 #
coedge $-1 $251 $143 $144 $239 reversed $87 $-1 #
coedge $-1 $245 $349 $143 $237 reversed $141 $-1 #
edge $-1 $252 -7.1022864638047221 $351 7.1022864638047221 $236 $352 forward 7 unknown #
coedge $-1 $145 $144 $349 $353 forward $57 $-1 #
edge $-1 $243 -67.49595629749443 $351 67.49595629749443 $235 $354 forward 7 unknown #
coedge $-1 $248 $247 $145 $241 reversed $232 $-1 #
edge $-1 $355 -67.49595629749443 $242 67.49595629749443 $240 $356 forward 7 unknown #
vertex $-1 $147 $357 #
vertex $-1 $254 $358 #
straight-curve $-1 67.49595629749443 0 -7.1022864638047221 0 -1 0 I I #
coedge $-1 $234 $236 $148 $246 reversed $141 $-1 #
edge $-1 $249 -29.131590085808444 $252 29.131590085808444 $245 $359 forward 7 unknown #
coedge $-1 $240 $149 $154 $255 forward $232 $-1 #
coedge $-1 $149 $240 $234 $350 reversed $232 $-1 #
vertex $-1 $150 $360 #
straight-curve $-1 0 29.131590085808444 7.1022864638047221 -1 0 0 I I #
coedge $-1 $151 $235 $153 $254 reversed $87 $-1 #
vertex $-1 $246 $361 #
straight-curve $-1 0 -29.131590085808444 7.1022864638047221 1 0 0 I I #
edge $-1 $156 -7.1022864638047221 $243 7.1022864638047221 $153 $362 forward 7 unknown #
edge $-1 $157 -7.1022864638047221 $242 7.1022864638047221 $154 $363 forward 7 unknown #
point $-1 67.49595629749443 -29.131590085808444 7.1022864638047221 #
point $-1 67.49595629749443 29.131590085808444 7.1022864638047221 #
face $-1 $-1 $271 $22 $-1 $364 reversed single #
loop $-1 $-1 $365 $159 #
plane-surface $-1 -67.49595629749443 0 0 1 0 0 0 0 -1 forward_v I I I I #
coedge $-1 $168 $366 $170 $275 forward $160 $-1 #
coedge $-1 $163 $162 $367 $368 reversed $61 $-1 #
coedge $-1 $166 $369 $162 $264 forward $271 $-1 #
edge $-1 $370 -35.253854920634133 $268 -29.230347833086462 $263 $371 forward 7 unknown #
coedge $-1 $366 $168 $163 $266 forward $160 $-1 #
edge $-1 $267 29.230347833086462 $372 35.253854920634133 $265 $373 forward 7 unknown #
vertex $-1 $266 $374 #
vertex $-1 $264 $375 #
straight-curve $-1 -61.47244920994676 0 4.5241301944145622 0 1 0 I I #
coedge $-1 $369 $166 $171 $276 forward $271 $-1 #
loop $-1 $-1 $270 $258 #
straight-curve $-1 -61.47244920994676 29.131590085808444 1.3968701827126333 0 0 -1 I I #
straight-curve $-1 -61.47244920994676 -29.131590085808444 1.3968701827126333 0 0 1 I I #
coedge $-1 $171 $170 $365 $376 reversed $95 $-1 #
edge $-1 $377 -35.253854920634133 $173 -29.230347833086462 $261 $378 forward 7 unknown #
edge $-1 $172 29.230347833086462 $379 35.253854920634133 $270 $380 forward 7 unknown #
point $-1 -61.47244920994676 29.131590085808444 1.063350536435971 #
point $-1 -61.47244920994676 -29.131590085808444 1.063350536435971 #
face $-1 $-1 $190 $23 $-1 $381 reversed single #
loop $-1 $-1 $184 $175 #
plane-surface $-1 0 29.131590085808444 0 0 -1 0 0 0 -1 forward_v I I I I #
coedge $-1 $382 $178 $286 $383 reversed $103 $-1 #
coedge $-1 $178 $382 $183 $294 reversed $103 $-1 #
coedge $-1 $184 $289 $178 $285 forward $280 $-1 #
edge $-1 $384 -0.33351964627666231 $296 3.1272600117019289 $284 $385 forward 7 unknown #
coedge $-1 $180 $179 $282 $383 forward $65 $-1 #
coedge $-1 $299 $298 $179 $288 forward $176 $-1 #
edge $-1 $386 29.230347833086462 $291 35.253854920634133 $287 $387 forward 7 unknown #
coedge $-1 $284 $295 $180 $290 forward $280 $-1 #
edge $-1 $292 -35.253854920634133 $384 -29.230347833086462 $289 $388 forward 7 unknown #
vertex $-1 $182 $389 #
vertex $-1 $182 $390 #
straight-curve $-1 67.49595629749443 0 1.063350536435971 0 1 0 I I #
edge $-1 $296 -29.131590085808444 $300 29.131590085808444 $283 $391 forward 7 unknown #
coedge $-1 $289 $184 $189 $303 forward $280 $-1 #
vertex $-1 $185 $392 #
straight-curve $-1 32.242101376860298 29.131590085808444 4.5241301944145622 1 0 0 I I #
coedge $-1 $287 $186 $382 $393 forward $176 $-1 #
coedge $-1 $186 $287 $188 $302 reversed $176 $-1 #
vertex $-1 $187 $394 #
straight-curve $-1 32.242101376860298 -29.131590085808444 4.5241301944145622 -1 0 0 I I #
edge $-1 $192 -4.5241301944145622 $291 -1.063350536435971 $188 $395 forward 7 unknown #
edge $-1 $191 -4.5241301944145622 $292 -1.063350536435971 $189 $396 forward 7 unknown #
point $-1 67.49595629749443 29.131590085808444 4.5241301944145622 #
point $-1 67.49595629749443 -29.131590085808444 4.5241301944145622 #
loop $-1 $-1 $314 $194 #
plane-surface $-1 -61.47244920994676 0 2.7937403654252666 -1 0 0 0 0 1 forward_v I I I I #
coedge $-1 $205 $200 $397 $398 forward $195 $-1 #
coedge $-1 $202 $197 $313 $399 forward $111 $-1 #
coedge $-1 $197 $202 $205 $321 forward $111 $-1 #
coedge $-1 $397 $314 $197 $312 reversed $306 $-1 #
edge $-1 $400 10.160840987085951 $401 17.290969925341187 $197 $402 forward 7 unknown #
coedge $-1 $199 $198 $309 $399 reversed $69 $-1 #
coedge $-1 $311 $397 $199 $315 reversed $306 $-1 #
edge $-1 $401 48.51395897237262 $316 58.263180171616895 $314 $403 forward 7 unknown #
vertex $-1 $201 $404 #
straight-curve $-1 -26.695874855499767 29.131590085808444 0.4533335149826776 -1 0 0 I I #
vertex $-1 $203 $405 #
straight-curve $-1 -45.311050212052308 39.292431072894395 7.1022864638047167 0 1 0 I I #
straight-curve $-1 -45.311050212052308 -13.479401960266586 40.188727316474356 0 -0.7313536940579346 0.68199836817093118 I I #
edge $-1 $206 45.311050212052308 $400 61.47244920994676 $205 $406 forward 7 unknown #
point $-1 -45.311050212052308 29.131590085808444 7.1022864638047221 #
point $-1 -45.311050212052308 29.13159008580844 0.45333351498268115 #
edge $-1 $407 1 $407 0 $209 $-1 forward 7 unknown #
vertex $-1 $210 $408 #
ellipse-curve $-1 -53.391749710999534 23.218973050171368 1.260368127888297 0 0.68199836817093118 0.7313536940579346 1.5 0 0 1 I I #
point $-1 -51.891749710999534 25.566525616680821 3.7778099893936963 #
loop $-1 $-1 $220 $213 #
plane-surface $-1 0 -29.131590085808444 0 0 1 0 0 0 1 forward_v I I I I #
coedge $-1 $409 $410 $217 $332 reversed $214 $-1 #
coedge $-1 $217 $216 $337 $411 reversed $78 $-1 #
edge $-1 $412 1.9585287993478785e-014 $334 7.6477712028039821 $330 $413 forward 7 unknown #
coedge $-1 $223 $218 $410 $414 forward $126 $-1 #
vertex $-1 $414 $415 #
straight-curve $-1 -24.965971433871545 -24.966315452160771 7.1022864638047221 -1 0 0 I I #
coedge $-1 $416 $220 $223 $341 reversed $328 $-1 #
coedge $-1 $220 $416 $331 $411 forward $328 $-1 #
vertex $-1 $221 $417 #
straight-curve $-1 -38.391436525539426 -29.13159008580844 37.105094565565814 0 0 1 I I #
straight-curve $-1 -38.391436525539426 -29.131590085808455 0.68832578441721637 0 -0.54463902268945019 -0.83867057594974714 I I #
edge $-1 $418 -61.472449209946753 $224 -38.391436525539426 $336 $419 forward 7 unknown #
point $-1 -38.391436525539426 -29.131590085808444 7.1022864638047221 #
point $-1 -38.391436525539426 -24.966315452160774 7.1022864638047221 #
edge $-1 $420 1 $420 0 $227 $-1 forward 7 unknown #
vertex $-1 $228 $421 #
ellipse-curve $-1 -49.931942867743089 -25.53081236730354 2.9094142514402224 0 -0.83867057594974714 0.54463902268945019 1 0 0 1 I I #
point $-1 -48.931942867743089 -27.048952768984599 3.8953061241109594 #
plane-surface $-1 67.49595629749443 0 0 -1 0 0 0 0 1 forward_v I I I I #
coedge $-1 $236 $234 $238 $353 reversed $141 $-1 #
edge $-1 $249 -7.1022864638047221 $355 7.1022864638047221 $248 $422 forward 7 unknown #
vertex $-1 $353 $423 #
straight-curve $-1 -67.49595629749443 -29.131590085808444 0 0 0 -1 I I #
edge $-1 $351 -29.131590085808444 $355 29.131590085808444 $349 $424 forward 7 unknown #
straight-curve $-1 0 -29.131590085808444 -7.1022864638047221 -1 0 0 I I #
vertex $-1 $241 $425 #
straight-curve $-1 0 29.131590085808444 -7.1022864638047221 1 0 0 I I #
point $-1 67.49595629749443 29.131590085808444 -7.1022864638047221 #
point $-1 67.49595629749443 -29.131590085808444 -7.1022864638047221 #
straight-curve $-1 -67.49595629749443 0 7.1022864638047221 0 -1 0 I I #
point $-1 -67.49595629749443 29.131590085808444 7.1022864638047221 #
point $-1 -67.49595629749443 -29.131590085808444 7.1022864638047221 #
straight-curve $-1 67.49595629749443 -29.131590085808444 0 0 0 -1 I I #
straight-curve $-1 67.49595629749443 29.131590085808444 0 0 0 -1 I I #
plane-surface $-1 0 29.131590085808444 0 0 -1 0 0 0 -1 forward_v I I I I #
coedge $-1 $426 $427 $274 $376 forward $259 $-1 #
coedge $-1 $261 $265 $426 $428 forward $160 $-1 #
coedge $-1 $427 $426 $262 $368 forward $259 $-1 #
edge $-1 $372 -29.131590085808444 $370 29.131590085808444 $367 $429 forward 7 unknown #
coedge $-1 $263 $270 $427 $430 reversed $271 $-1 #
vertex $-1 $430 $431 #
straight-curve $-1 -32.242101376860298 29.131590085808444 4.5241301944145622 1 0 0 I I #
vertex $-1 $428 $432 #
straight-curve $-1 -32.242101376860298 -29.131590085808444 4.5241301944145622 -1 0 0 I I #
point $-1 -61.47244920994676 -29.131590085808444 4.5241301944145622 #
point $-1 -61.47244920994676 29.131590085808444 4.5241301944145622 #
edge $-1 $379 -29.131590085808444 $377 29.131590085808444 $365 $433 forward 7 unknown #
vertex $-1 $275 $434 #
straight-curve $-1 -32.242101376860298 -29.131590085808444 1.063350536435971 1 0 0 I I #
vertex $-1 $276 $435 #
straight-curve $-1 -32.242101376860298 29.131590085808444 1.063350536435971 -1 0 0 I I #
plane-surface $-1 67.49595629749443 0 0 -1 0 0 0 0 1 forward_v I I I I #
coedge $-1 $283 $282 $298 $393 reversed $103 $-1 #
edge $-1 $386 -29.131590085808444 $384 29.131590085808444 $282 $436 forward 7 unknown #
vertex $-1 $290 $437 #
straight-curve $-1 61.47244920994676 29.131590085808444 1.3968701827126333 0 0 1 I I #
vertex $-1 $288 $438 #
straight-curve $-1 32.242101376860298 -29.131590085808444 1.063350536435971 1 0 0 I I #
straight-curve $-1 32.242101376860298 29.131590085808444 1.063350536435971 -1 0 0 I I #
point $-1 67.49595629749443 -29.131590085808444 1.063350536435971 #
point $-1 67.49595629749443 29.131590085808444 1.063350536435971 #
straight-curve $-1 61.47244920994676 0 4.5241301944145622 0 -1 0 I I #
point $-1 61.47244920994676 29.131590085808444 4.5241301944145622 #
edge $-1 $300 -3.1272600117019289 $386 0.33351964627666231 $298 $439 forward 7 unknown #
point $-1 61.47244920994676 -29.131590085808444 4.5241301944145622 #
straight-curve $-1 67.49595629749443 -29.131590085808444 0 0 0 -1 I I #
straight-curve $-1 67.49595629749443 29.131590085808444 0 0 0 -1 I I #
coedge $-1 $314 $311 $308 $398 reversed $306 $-1 #
edge $-1 $316 -69.004447115399955 $400 -62.35549416657792 $308 $440 forward 7 unknown #
edge $-1 $401 -34.776574354446993 $318 -18.615175356552541 $309 $441 forward 7 unknown #
vertex $-1 $312 $442 #
vertex $-1 $312 $443 #
straight-curve $-1 -61.47244920994676 39.292431072894395 7.1022864638047167 0 -1 0 I I #
straight-curve $-1 -61.47244920994676 -13.479401960266586 40.188727316474356 0 0.7313536940579346 -0.68199836817093118 I I #
point $-1 -61.47244920994676 29.13159008580844 0.45333351498268115 #
point $-1 -45.311050212052308 22.001461147553208 7.1022864638047238 #
straight-curve $-1 0 29.131590085808444 7.1022864638047221 -1 0 0 I I #
vertex $-1 $324 $444 #
point $-1 -51.891749710999534 23.218973050171368 1.260368127888297 #
coedge $-1 $410 $330 $416 $445 reversed $214 $-1 #
coedge $-1 $330 $409 $333 $414 reversed $214 $-1 #
edge $-1 $412 -36.506477776075208 $338 -13.425465091667881 $337 $446 forward 7 unknown #
vertex $-1 $445 $447 #
straight-curve $-1 -61.472449209946753 -29.131590085808455 0.68832578441721637 0 0.54463902268945019 0.83867057594974714 I I #
edge $-1 $334 -46.206352133042074 $418 -42.041077499394405 $333 $448 forward 7 unknown #
point $-1 -61.472449209946753 -24.966315452160774 7.1022864638047221 #
coedge $-1 $337 $336 $409 $445 forward $328 $-1 #
point $-1 -38.391436525539426 -29.131590085808444 0.6883257844172328 #
vertex $-1 $341 $449 #
straight-curve $-1 0 -29.131590085808444 7.1022864638047221 1 0 0 I I #
vertex $-1 $344 $450 #
point $-1 -48.931942867743089 -25.53081236730354 2.9094142514402224 #
straight-curve $-1 -67.49595629749443 29.131590085808444 0 0 0 -1 I I #
point $-1 -67.49595629749443 -29.131590085808444 -7.1022864638047221 #
straight-curve $-1 -67.49595629749443 0 -7.1022864638047221 0 1 0 I I #
point $-1 -67.49595629749443 29.131590085808444 -7.1022864638047221 #
coedge $-1 $367 $365 $366 $428 reversed $259 $-1 #
coedge $-1 $365 $367 $369 $430 forward $259 $-1 #
edge $-1 $372 -4.5241301944145622 $377 -1.063350536435971 $426 $451 forward 7 unknown #
straight-curve $-1 -67.49595629749443 0 4.5241301944145622 0 1 0 I I #
edge $-1 $370 -4.5241301944145622 $379 -1.063350536435971 $369 $452 forward 7 unknown #
point $-1 -67.49595629749443 29.131590085808444 4.5241301944145622 #
point $-1 -67.49595629749443 -29.131590085808444 4.5241301944145622 #
straight-curve $-1 -67.49595629749443 0 1.063350536435971 0 -1 0 I I #
point $-1 -67.49595629749443 -29.131590085808444 1.063350536435971 #
point $-1 -67.49595629749443 29.131590085808444 1.063350536435971 #
straight-curve $-1 61.47244920994676 0 1.063350536435971 0 1 0 I I #
point $-1 61.47244920994676 29.131590085808444 1.063350536435971 #
point $-1 61.47244920994676 -29.131590085808444 1.063350536435971 #
straight-curve $-1 61.47244920994676 -29.131590085808444 1.3968701827126333 0 0 -1 I I #
straight-curve $-1 -61.47244920994676 29.131590085808444 69.457780630382643 0 0 1 I I #
straight-curve $-1 -26.695874855499767 22.001461147553211 7.1022864638047238 1 0 0 I I #
point $-1 -61.47244920994676 29.131590085808444 7.1022864638047221 #
point $-1 -61.47244920994676 22.001461147553208 7.1022864638047238 #
point $-1 -53.391749710999534 22.195975497914969 0.16333758680139521 #
edge $-1 $418 30.00280810176109 $412 36.416768781148583 $416 $453 forward 7 unknown #
straight-curve $-1 -24.965971433871545 -29.131590085808444 0.68832578441722936 1 0 0 I I #
point $-1 -61.472449209946753 -29.131590085808444 0.6883257844172328 #
straight-curve $-1 -61.472449209946753 -71.172667585202845 7.1022864638047238 0 -1 0 I I #
point $-1 -61.472449209946753 -29.131590085808444 7.1022864638047221 #
point $-1 -49.931942867743089 -24.692141791353791 2.364775228750772 #
straight-curve $-1 -67.49595629749443 -29.131590085808444 0 0 0 -1 I I #
straight-curve $-1 -67.49595629749443 29.131590085808444 0 0 0 -1 I I #
straight-curve $-1 -61.472449209946753 -29.13159008580844 37.105094565565814 0 0 -1 I I #
End-of-ACIS-data 