500 0 9 0           
7 Unknown 11 ACIS 5.0 NT 24 Thu Mar 25 22:49:32 1999 
-1 9.9999999999999995e-007 1e-010 
body $-1 $9 $-1 $10 #
body $-1 $11 $-1 $12 #
body $-1 $13 $-1 $14 #
body $-1 $15 $-1 $16 #
body $-1 $17 $-1 $18 #
body $-1 $19 $-1 $20 #
body $-1 $21 $-1 $22 #
body $-1 $23 $-1 $24 #
body $-1 $25 $-1 $26 #
lump $-1 $-1 $27 $0 #
transform $-1 1 0 0 0 1 0 0 0 1 60.033570360423596 40.558707251101453 10.102109847076003 1 rotate no_reflect no_shear #
lump $-1 $-1 $28 $1 #
transform $-1 1 0 0 0 1 0 0 0 1 60.033570360423596 40.558707251101453 10.102109847076003 1 rotate no_reflect no_shear #
lump $-1 $-1 $29 $2 #
transform $-1 1 0 0 0 1 0 0 0 1 60.033570360423596 40.558707251101453 10.102109847076003 1 rotate no_reflect no_shear #
lump $-1 $-1 $30 $3 #
transform $-1 1 0 0 0 1 0 0 0 1 60.033570360423596 40.558707251101453 10.102109847076003 1 rotate no_reflect no_shear #
lump $-1 $-1 $31 $4 #
transform $-1 1 0 0 0 1 0 0 0 1 60.033570360423596 40.558707251101453 10.102109847076003 1 rotate no_reflect no_shear #
lump $-1 $-1 $32 $5 #
transform $-1 1 0 0 0 1 0 0 0 1 60.033570360423596 40.558707251101453 10.102109847076003 1 rotate no_reflect no_shear #
lump $-1 $-1 $33 $6 #
transform $-1 1 0 0 0 1 0 0 0 1 60.033570360423596 40.558707251101453 10.102109847076003 1 rotate no_reflect no_shear #
lump $-1 $-1 $34 $7 #
transform $-1 1 0 0 0 1 0 0 0 1 60.033570360423596 40.558707251101453 10.102109847076003 1 rotate no_reflect no_shear #
lump $-1 $-1 $35 $8 #
transform $-1 1 0 0 0 1 0 0 0 1 60.033570360423596 40.558707251101453 10.102109847076003 1 rotate no_reflect no_shear #
shell $-1 $-1 $-1 $36 $-1 $9 #
shell $-1 $-1 $-1 $37 $-1 $11 #
shell $-1 $-1 $-1 $38 $-1 $13 #
shell $-1 $-1 $-1 $39 $-1 $15 #
shell $-1 $-1 $-1 $40 $-1 $17 #
shell $-1 $-1 $-1 $41 $-1 $19 #
shell $-1 $-1 $-1 $42 $-1 $21 #
shell $-1 $-1 $-1 $43 $-1 $23 #
shell $-1 $-1 $-1 $44 $-1 $25 #
face $-1 $45 $46 $27 $-1 $47 reversed single #
face $-1 $48 $49 $28 $-1 $50 reversed single #
face $-1 $51 $52 $29 $-1 $53 forward single #
face $-1 $54 $55 $30 $-1 $56 reversed single #
face $-1 $57 $58 $31 $-1 $59 forward single #
face $-1 $60 $61 $32 $-1 $62 forward single #
face $-1 $63 $64 $33 $-1 $65 reversed single #
face $-1 $66 $67 $34 $-1 $68 forward single #
face $-1 $69 $70 $35 $-1 $71 forward single #
face $-1 $72 $73 $27 $-1 $74 forward single #
loop $-1 $-1 $75 $36 #
plane-surface $-1 0 40.558707251101453 0 0 -1 0 0 0 -1 forward_v I I I I #
face $-1 $76 $77 $28 $-1 $78 reversed single #
loop $-1 $-1 $79 $37 #
plane-surface $-1 -51.285013311735703 -36.677754550678308 0 1 0 0 0 0 -1 forward_v I I I I #
face $-1 $80 $81 $29 $-1 $82 reversed single #
loop $-1 $-1 $83 $38 #
plane-surface $-1 0 40.558707251101453 0 0 -1 0 0 0 -1 forward_v I I I I #
face $-1 $84 $85 $30 $-1 $86 reversed single #
loop $-1 $-1 $87 $39 #
plane-surface $-1 45.234476540438806 0.16691771741937345 172.0646824349941 0 -1 0 -0.64278761758704617 0 -0.76604443648966558 forward_v I I I I #
face $-1 $88 $89 $31 $-1 $90 forward single #
loop $-1 $91 $92 $40 #
cone-surface $-1 53.909607887230649 -10.983618992428767 4.3151416531907927 -0.64278761758704617 0 -0.76604443648966558 1.1490666547344983 0 -0.96418142638056925 1 I I 0 1 1.5 forward I I I I #
face $-1 $93 $94 $32 $-1 $95 forward single #
loop $-1 $96 $97 $41 #
cone-surface $-1 53.909607887230649 -4.2932969665198826 4.3151416531907927 -0.64278761758704617 0 -0.76604443648966558 1.1490666547344983 0 -0.96418142638056925 1 I I 0 1 1.5 forward I I I I #
face $-1 $98 $99 $33 $-1 $100 reversed single #
loop $-1 $-1 $101 $42 #
plane-surface $-1 -137.21124169486558 -15.443833676368023 94.887011100552115 0 1 0 -0.64278761758704617 0 0.76604443648966558 forward_v I I I I #
face $-1 $102 $103 $34 $-1 $104 forward single #
loop $-1 $105 $106 $43 #
cone-surface $-1 -53.909607887230663 -10.983618992428767 4.3151416531908016 0.64278761758704617 0 -0.76604443648966558 1.1490666547344983 0 0.96418142638056925 1 I I 0 1 1.5 forward I I I I #
face $-1 $107 $108 $35 $-1 $109 forward single #
loop $-1 $110 $111 $44 #
cone-surface $-1 -53.909607887230663 -4.2932969665198826 4.3151416531908016 0.64278761758704617 0 -0.76604443648966558 1.1490666547344983 0 0.96418142638056925 1 I I 0 1 1.5 forward I I I I #
face $-1 $112 $113 $27 $-1 $114 reversed single #
loop $-1 $-1 $115 $45 #
plane-surface $-1 0 0 10.102109847076003 0 0 1 1 0 0 forward_v I I I I #
coedge $-1 $116 $117 $118 $119 reversed $46 $-1 #
face $-1 $120 $121 $28 $-1 $122 reversed single #
loop $-1 $-1 $123 $48 #
plane-surface $-1 -48.801676887674532 -32.796801850255164 0 0 -1 0 0 0 -1 forward_v I I I I #
coedge $-1 $124 $125 $126 $127 forward $49 $-1 #
face $-1 $128 $129 $29 $-1 $130 reversed single #
loop $-1 $-1 $131 $51 #
plane-surface $-1 0 0 -10.102109847076003 0 0 1 1 0 0 forward_v I I I I #
coedge $-1 $132 $133 $134 $135 forward $52 $-1 #
face $-1 $136 $137 $30 $-1 $138 reversed single #
loop $-1 $-1 $139 $54 #
plane-surface $-1 -31.943194794003176 -7.6384579794743246 80.087917280567325 0.64278761758704617 0 0.76604443648966558 0.76604443648966558 0 -0.64278761758704617 forward_v I I I I #
coedge $-1 $140 $141 $142 $143 reversed $55 $-1 #
face $-1 $-1 $144 $31 $-1 $145 forward single #
loop $-1 $146 $147 $57 #
cone-surface $-1 51.589019431791826 -10.983618992428767 1.5495720824136665 -0.64278761758704617 0 -0.76604443648966558 0.57453332736724916 0 -0.48209071319028463 1 I I -0.70710678118654757 0.70710678118654757 0.75 forward I I I I #
loop $-1 $-1 $148 $40 #
coedge $-1 $92 $92 $149 $150 reversed $58 $-1 #
face $-1 $-1 $151 $32 $-1 $152 forward single #
loop $-1 $153 $154 $60 #
cone-surface $-1 51.589019431791826 -4.2932969665198826 1.5495720824136665 -0.64278761758704617 0 -0.76604443648966558 0.57453332736724916 0 -0.48209071319028463 1 I I -0.70710678118654757 0.70710678118654757 0.75 forward I I I I #
loop $-1 $-1 $155 $41 #
coedge $-1 $97 $97 $156 $157 reversed $61 $-1 #
face $-1 $158 $159 $33 $-1 $160 reversed single #
loop $-1 $-1 $161 $63 #
plane-surface $-1 -60.033570360423596 -7.6384579794743246 2.9102459461253432 -0.64278761758704617 0 0.76604443648966558 0.76604443648966558 0 0.64278761758704617 forward_v I I I I #
coedge $-1 $162 $163 $164 $165 reversed $64 $-1 #
face $-1 $-1 $166 $34 $-1 $167 forward single #
loop $-1 $168 $169 $66 #
cone-surface $-1 -51.58901943179184 -10.983618992428767 1.5495720824136754 0.64278761758704617 0 -0.76604443648966558 0.57453332736724916 0 0.48209071319028463 1 I I -0.70710678118654757 0.70710678118654757 0.75 forward I I I I #
loop $-1 $-1 $170 $43 #
coedge $-1 $106 $106 $171 $172 reversed $67 $-1 #
face $-1 $-1 $173 $35 $-1 $174 forward single #
loop $-1 $175 $176 $69 #
cone-surface $-1 -51.58901943179184 -4.2932969665198826 1.5495720824136754 0.64278761758704617 0 -0.76604443648966558 0.57453332736724916 0 0.48209071319028463 1 I I -0.70710678118654757 0.70710678118654757 0.75 forward I I I I #
loop $-1 $-1 $177 $44 #
coedge $-1 $111 $111 $178 $179 reversed $70 $-1 #
face $-1 $180 $181 $27 $-1 $182 reversed single #
loop $-1 $-1 $183 $72 #
plane-surface $-1 0 0 -10.102109847076003 0 0 1 1 0 0 forward_v I I I I #
coedge $-1 $184 $185 $186 $187 forward $73 $-1 #
coedge $-1 $188 $75 $189 $190 reversed $46 $-1 #
coedge $-1 $75 $188 $191 $192 forward $46 $-1 #
coedge $-1 $183 $193 $75 $119 forward $113 $-1 #
edge $-1 $194 -60.033570360423596 $195 60.033570360423596 $75 $196 forward 7 unknown #
face $-1 $197 $198 $28 $-1 $199 forward single #
loop $-1 $-1 $200 $76 #
plane-surface $-1 -46.31834046361336 -36.677754550678308 0 -1 0 0 0 0 1 forward_v I I I I #
coedge $-1 $201 $202 $203 $204 forward $77 $-1 #
coedge $-1 $205 $79 $206 $207 reversed $49 $-1 #
coedge $-1 $79 $205 $208 $209 reversed $49 $-1 #
coedge $-1 $202 $201 $79 $127 reversed $77 $-1 #
edge $-1 $210 -10.102109847076003 $211 10.102109847076003 $126 $212 forward 7 unknown #
face $-1 $213 $214 $29 $-1 $215 reversed single #
loop $-1 $-1 $216 $80 #
plane-surface $-1 -45.146253831062488 46.627566621230457 0 1 0 0 0 0 -1 forward_v I I I I #
coedge $-1 $217 $218 $133 $219 forward $81 $-1 #
coedge $-1 $220 $83 $221 $222 reversed $52 $-1 #
coedge $-1 $83 $220 $131 $219 reversed $52 $-1 #
coedge $-1 $223 $224 $83 $135 reversed $225 $-1 #
edge $-1 $226 -10.102109847076003 $227 10.102109847076003 $134 $228 forward 7 unknown #
face $-1 $229 $230 $30 $-1 $231 forward single #
loop $-1 $-1 $232 $84 #
plane-surface $-1 45.234476540438806 -15.443833676368023 172.0646824349941 0 1 0 0.64278761758704617 0 0.76604443648966558 forward_v I I I I #
coedge $-1 $233 $234 $235 $236 reversed $85 $-1 #
coedge $-1 $141 $87 $237 $238 reversed $55 $-1 #
coedge $-1 $87 $140 $233 $239 reversed $55 $-1 #
coedge $-1 $235 $240 $87 $143 forward $230 $-1 #
edge $-1 $241 -37.416332090204193 $242 -28.845402628315384 $142 $243 forward 7 unknown #
loop $-1 $-1 $149 $88 #
plane-surface $-1 -31.943194794003176 -7.6384579794743246 80.087917280567325 0.64278761758704617 0 0.76604443648966558 0.76604443648966558 0 -0.64278761758704617 forward_v I I I I #
loop $-1 $-1 $244 $57 #
coedge $-1 $147 $147 $148 $245 reversed $89 $-1 #
coedge $-1 $148 $148 $147 $245 forward $91 $-1 #
coedge $-1 $149 $149 $92 $150 forward $144 $-1 #
edge $-1 $246 0 $246 6.2831853071796004 $149 $247 forward 7 unknown #
loop $-1 $-1 $156 $93 #
plane-surface $-1 -31.943194794003176 -7.6384579794743246 80.087917280567325 0.64278761758704617 0 0.76604443648966558 0.76604443648966558 0 -0.64278761758704617 forward_v I I I I #
loop $-1 $-1 $248 $60 #
coedge $-1 $154 $154 $155 $249 reversed $94 $-1 #
coedge $-1 $155 $155 $154 $249 forward $96 $-1 #
coedge $-1 $156 $156 $97 $157 forward $151 $-1 #
edge $-1 $250 0 $250 6.2831853071796004 $156 $251 forward 7 unknown #
face $-1 $252 $253 $33 $-1 $254 reversed single #
loop $-1 $-1 $255 $98 #
plane-surface $-1 -137.21124169486558 0.16691771741937345 94.887011100552115 0 -1 0 0.64278761758704617 0 -0.76604443648966558 forward_v I I I I #
coedge $-1 $256 $257 $258 $259 reversed $99 $-1 #
coedge $-1 $163 $101 $260 $261 reversed $64 $-1 #
coedge $-1 $101 $162 $256 $262 reversed $64 $-1 #
coedge $-1 $258 $263 $101 $165 forward $264 $-1 #
edge $-1 $265 8.5720504870091929 $266 17.142979948897981 $164 $267 forward 7 unknown #
loop $-1 $-1 $171 $102 #
plane-surface $-1 -60.033570360423596 -7.6384579794743246 2.9102459461253432 -0.64278761758704617 0 0.76604443648966558 0.76604443648966558 0 0.64278761758704617 forward_v I I I I #
loop $-1 $-1 $268 $66 #
coedge $-1 $169 $169 $170 $269 reversed $103 $-1 #
coedge $-1 $170 $170 $169 $269 forward $105 $-1 #
coedge $-1 $171 $171 $106 $172 forward $166 $-1 #
edge $-1 $270 0 $270 6.2831853071796004 $171 $271 forward 7 unknown #
loop $-1 $-1 $178 $107 #
plane-surface $-1 -60.033570360423596 -7.6384579794743246 2.9102459461253432 -0.64278761758704617 0 0.76604443648966558 0.76604443648966558 0 0.64278761758704617 forward_v I I I I #
loop $-1 $-1 $272 $69 #
coedge $-1 $176 $176 $177 $273 reversed $108 $-1 #
coedge $-1 $177 $177 $176 $273 forward $110 $-1 #
coedge $-1 $178 $178 $111 $179 forward $173 $-1 #
edge $-1 $274 0 $274 6.2831853071796004 $178 $275 forward 7 unknown #
face $-1 $276 $277 $27 $-1 $278 reversed single #
loop $-1 $-1 $279 $112 #
plane-surface $-1 0 -40.558707251101453 0 0 1 0 0 0 1 forward_v I I I I #
coedge $-1 $280 $118 $281 $282 forward $113 $-1 #
coedge $-1 $283 $115 $188 $284 forward $73 $-1 #
coedge $-1 $115 $283 $285 $286 forward $73 $-1 #
coedge $-1 $287 $191 $115 $187 reversed $288 $-1 #
edge $-1 $289 -40.558707251101453 $290 40.558707251101453 $186 $291 forward 7 unknown #
coedge $-1 $117 $116 $184 $284 reversed $46 $-1 #
coedge $-1 $292 $293 $116 $190 forward $277 $-1 #
edge $-1 $294 -10.102109847076003 $194 10.102109847076003 $116 $295 forward 7 unknown #
coedge $-1 $186 $281 $117 $192 reversed $288 $-1 #
edge $-1 $290 -10.102109847076003 $195 10.102109847076003 $191 $296 forward 7 unknown #
coedge $-1 $118 $280 $292 $297 forward $113 $-1 #
vertex $-1 $119 $298 #
vertex $-1 $282 $299 #
straight-curve $-1 0 40.558707251101453 -10.102109847076003 1 0 0 I I #
face $-1 $300 $301 $28 $-1 $302 reversed single #
loop $-1 $-1 $303 $120 #
plane-surface $-1 0 0 10.102109847076003 0 0 1 1 0 0 forward_v I I I I #
coedge $-1 $304 $305 $306 $307 reversed $121 $-1 #
coedge $-1 $126 $123 $308 $309 reversed $77 $-1 #
coedge $-1 $123 $126 $310 $311 reversed $77 $-1 #
coedge $-1 $305 $304 $123 $204 reversed $121 $-1 #
edge $-1 $312 -10.102109847076003 $313 10.102109847076003 $203 $314 forward 7 unknown #
coedge $-1 $125 $124 $315 $316 reversed $49 $-1 #
coedge $-1 $308 $317 $124 $207 forward $301 $-1 #
edge $-1 $318 -22.219829975762298 $211 -14.45792457491601 $206 $319 forward 7 unknown #
coedge $-1 $320 $310 $125 $209 forward $198 $-1 #
edge $-1 $210 14.45792457491601 $321 22.219829975762298 $208 $322 forward 7 unknown #
vertex $-1 $209 $323 #
vertex $-1 $207 $324 #
straight-curve $-1 -51.285013311735703 -32.796801850255164 0 0 0 -1 I I #
face $-1 $325 $225 $29 $-1 $326 reversed single #
loop $-1 $-1 $327 $128 #
plane-surface $-1 -42.487802248667037 52.696425991359462 0 0 -1 0 0 0 -1 forward_v I I I I #
coedge $-1 $328 $329 $330 $331 forward $129 $-1 #
coedge $-1 $332 $131 $328 $333 forward $81 $-1 #
coedge $-1 $131 $332 $223 $334 forward $81 $-1 #
edge $-1 $226 39.829350666271587 $335 45.146253831062488 $131 $336 forward 7 unknown #
coedge $-1 $133 $132 $337 $338 forward $52 $-1 #
coedge $-1 $339 $340 $132 $222 forward $341 $-1 #
edge $-1 $342 -45.146253831062488 $227 -39.829350666271587 $221 $343 forward 7 unknown #
coedge $-1 $344 $134 $218 $334 reversed $225 $-1 #
coedge $-1 $134 $344 $339 $345 reversed $225 $-1 #
loop $-1 $-1 $134 $213 #
vertex $-1 $219 $346 #
vertex $-1 $345 $347 #
straight-curve $-1 -39.829350666271587 40.558707251101453 0 0 0 1 I I #
face $-1 $-1 $348 $30 $-1 $349 reversed single #
loop $-1 $-1 $142 $136 #
plane-surface $-1 0 0 10.102109847076003 0 0 1 1 0 0 forward_v I I I I #
coedge $-1 $350 $351 $352 $353 reversed $137 $-1 #
coedge $-1 $354 $139 $141 $239 forward $85 $-1 #
coedge $-1 $139 $354 $350 $355 forward $85 $-1 #
coedge $-1 $352 $142 $139 $236 forward $230 $-1 #
edge $-1 $242 -3.9861467071565357 $356 11.62460468663086 $235 $357 forward 7 unknown #
coedge $-1 $358 $359 $140 $238 forward $348 $-1 #
edge $-1 $360 -83.122095271371705 $241 -75.930231370421041 $237 $361 forward 7 unknown #
edge $-1 $242 108.87858682811955 $360 120.06714072084719 $141 $362 forward 7 unknown #
coedge $-1 $142 $352 $358 $363 forward $230 $-1 #
vertex $-1 $143 $364 #
vertex $-1 $143 $365 #
straight-curve $-1 22.617238270219403 0.16691771741937345 10.102109847076008 -1 0 0 I I #
coedge $-1 $244 $244 $-1 $366 reversed $146 $-1 #
edge $-1 $367 0 $367 6.2831853071796004 $147 $368 forward 7 unknown #
vertex $-1 $150 $369 #
ellipse-curve $-1 55.748105629479191 -10.983618992428767 6.5061778966006738 0.64278761758704617 0 0.76604443648966558 1.1490666547344983 0 -0.96418142638056925 1 I I #
coedge $-1 $248 $248 $-1 $370 reversed $153 $-1 #
edge $-1 $371 0 $371 6.2831853071796004 $154 $372 forward 7 unknown #
vertex $-1 $157 $373 #
ellipse-curve $-1 55.748105629479191 -4.2932969665198826 6.5061778966006738 0.64278761758704617 0 0.76604443648966558 1.1490666547344983 0 -0.96418142638056925 1 I I #
face $-1 $-1 $264 $33 $-1 $374 forward single #
loop $-1 $-1 $375 $158 #
plane-surface $-1 -60.033570360423596 0 0 1 0 0 0 0 -1 forward_v I I I I #
coedge $-1 $376 $377 $378 $379 reversed $159 $-1 #
coedge $-1 $380 $161 $163 $262 forward $99 $-1 #
coedge $-1 $161 $380 $376 $381 forward $99 $-1 #
coedge $-1 $378 $164 $161 $259 forward $264 $-1 #
edge $-1 $266 -11.62460468663086 $382 3.9861467071565357 $258 $383 forward 7 unknown #
coedge $-1 $384 $385 $162 $261 forward $253 $-1 #
edge $-1 $386 -44.533259604150714 $265 -37.341395703200057 $260 $387 forward 7 unknown #
edge $-1 $266 -11.188553892727624 $386 0 $163 $388 forward 7 unknown #
coedge $-1 $164 $378 $384 $389 forward $264 $-1 #
loop $-1 $-1 $378 $252 #
vertex $-1 $261 $390 #
vertex $-1 $165 $391 #
straight-curve $-1 -68.605620847432789 -15.443833676368023 10.102109847076001 1 0 0 I I #
coedge $-1 $268 $268 $-1 $392 reversed $168 $-1 #
edge $-1 $393 0 $393 6.2831853071796004 $169 $394 forward 7 unknown #
vertex $-1 $172 $395 #
ellipse-curve $-1 -55.748105629479198 -10.983618992428767 6.5061778966006738 -0.64278761758704617 0 0.76604443648966558 1.1490666547344983 0 0.96418142638056925 1 I I #
coedge $-1 $272 $272 $-1 $396 reversed $175 $-1 #
edge $-1 $397 0 $397 6.2831853071796004 $176 $398 forward 7 unknown #
vertex $-1 $179 $399 #
ellipse-curve $-1 -55.748105629479198 -4.2932969665198826 6.5061778966006738 -0.64278761758704617 0 0.76604443648966558 1.1490666547344983 0 0.96418142638056925 1 I I #
face $-1 $-1 $288 $27 $-1 $400 reversed single #
loop $-1 $-1 $189 $180 #
plane-surface $-1 -60.033570360423596 0 0 1 0 0 0 0 -1 forward_v I I I I #
coedge $-1 $401 $285 $402 $403 forward $181 $-1 #
coedge $-1 $193 $183 $401 $404 forward $113 $-1 #
coedge $-1 $191 $287 $183 $282 reversed $288 $-1 #
edge $-1 $195 -40.558707251101453 $405 40.558707251101453 $281 $406 forward 7 unknown #
coedge $-1 $185 $184 $293 $407 forward $73 $-1 #
edge $-1 $290 -60.033570360423596 $294 60.033570360423596 $188 $408 forward 7 unknown #
coedge $-1 $279 $409 $185 $286 reversed $181 $-1 #
edge $-1 $410 -60.033570360423596 $289 60.033570360423596 $285 $411 forward 7 unknown #
coedge $-1 $281 $186 $409 $412 forward $288 $-1 #
loop $-1 $-1 $287 $276 #
vertex $-1 $187 $413 #
vertex $-1 $187 $414 #
straight-curve $-1 60.033570360423596 0 10.102109847076003 0 1 0 I I #
coedge $-1 $402 $189 $193 $297 reversed $277 $-1 #
coedge $-1 $189 $402 $283 $407 reversed $277 $-1 #
vertex $-1 $284 $415 #
straight-curve $-1 -60.033570360423596 40.558707251101453 0 0 0 -1 I I #
straight-curve $-1 60.033570360423596 40.558707251101453 0 0 0 -1 I I #
edge $-1 $416 -40.558707251101453 $194 40.558707251101453 $292 $417 forward 7 unknown #
point $-1 -60.033570360423596 40.558707251101453 -10.102109847076003 #
point $-1 60.033570360423596 40.558707251101453 -10.102109847076003 #
face $-1 $-1 $418 $28 $-1 $419 reversed single #
loop $-1 $-1 $420 $197 #
plane-surface $-1 0 0 -10.102109847076003 0 0 1 1 0 0 forward_v I I I I #
coedge $-1 $310 $320 $305 $421 forward $198 $-1 #
coedge $-1 $203 $200 $420 $422 reversed $121 $-1 #
coedge $-1 $200 $203 $303 $421 reversed $121 $-1 #
coedge $-1 $423 $424 $200 $307 forward $418 $-1 #
edge $-1 $425 -10.102109847076003 $426 10.102109847076003 $306 $427 forward 7 unknown #
coedge $-1 $420 $206 $201 $309 forward $301 $-1 #
edge $-1 $211 -26.884174867898437 $313 -21.917502019776094 $308 $428 forward 7 unknown #
coedge $-1 $208 $303 $202 $311 forward $198 $-1 #
edge $-1 $312 21.917502019776094 $210 26.884174867898437 $310 $429 forward 7 unknown #
vertex $-1 $311 $430 #
vertex $-1 $309 $431 #
straight-curve $-1 -46.31834046361336 -32.796801850255164 0 0 0 -1 I I #
coedge $-1 $424 $423 $205 $316 forward $418 $-1 #
edge $-1 $321 -10.102109847076003 $318 10.102109847076003 $315 $432 forward 7 unknown #
coedge $-1 $206 $420 $424 $433 forward $301 $-1 #
vertex $-1 $207 $434 #
straight-curve $-1 -51.285013311735703 -18.338877275339154 -10.102109847076003 0 1 0 I I #
coedge $-1 $303 $208 $423 $435 forward $198 $-1 #
vertex $-1 $435 $436 #
straight-curve $-1 -51.285013311735703 -18.338877275339154 10.102109847076003 0 -1 0 I I #
point $-1 -51.285013311735703 -32.796801850255164 10.102109847076003 #
point $-1 -51.285013311735703 -32.796801850255164 -10.102109847076003 #
face $-1 $-1 $341 $29 $-1 $437 forward single #
plane-surface $-1 -39.829350666271587 46.627566621230457 0 -1 0 0 0 0 1 forward_v I I I I #
coedge $-1 $438 $439 $344 $440 forward $214 $-1 #
coedge $-1 $337 $216 $217 $333 reversed $129 $-1 #
coedge $-1 $216 $337 $340 $441 reversed $129 $-1 #
coedge $-1 $439 $438 $216 $331 reversed $214 $-1 #
edge $-1 $442 -10.102109847076003 $443 10.102109847076003 $330 $444 forward 7 unknown #
coedge $-1 $218 $217 $438 $445 forward $81 $-1 #
edge $-1 $335 -6.0688593701290046 $443 6.0688593701290046 $328 $446 forward 7 unknown #
edge $-1 $447 -6.0688593701290046 $226 6.0688593701290046 $223 $448 forward 7 unknown #
vertex $-1 $333 $449 #
straight-curve $-1 0 40.558707251101453 -10.102109847076003 -1 0 0 I I #
coedge $-1 $329 $328 $220 $338 reversed $129 $-1 #
edge $-1 $342 -10.102109847076003 $335 10.102109847076003 $337 $450 forward 7 unknown #
coedge $-1 $451 $221 $224 $345 forward $341 $-1 #
coedge $-1 $221 $451 $329 $441 forward $341 $-1 #
loop $-1 $-1 $221 $325 #
vertex $-1 $222 $452 #
straight-curve $-1 0 40.558707251101453 10.102109847076003 1 0 0 I I #
coedge $-1 $224 $223 $327 $440 reversed $225 $-1 #
edge $-1 $227 -6.0688593701290046 $453 6.0688593701290046 $224 $454 forward 7 unknown #
point $-1 -39.829350666271587 40.558707251101453 -10.102109847076003 #
point $-1 -39.829350666271587 40.558707251101453 10.102109847076003 #
loop $-1 $-1 $237 $229 #
plane-surface $-1 60.033570360423596 0 0 -1 0 0 0 0 1 forward_v I I I I #
coedge $-1 $351 $232 $234 $355 reversed $137 $-1 #
coedge $-1 $232 $350 $455 $456 reversed $137 $-1 #
coedge $-1 $240 $235 $232 $353 forward $230 $-1 #
edge $-1 $356 28.845402628315384 $457 37.416332090204193 $352 $458 forward 7 unknown #
coedge $-1 $234 $233 $359 $459 reversed $85 $-1 #
edge $-1 $460 -120.06714072084719 $356 -108.87858682811955 $350 $461 forward 7 unknown #
vertex $-1 $236 $462 #
straight-curve $-1 51.462640898534808 -3.8192289897371623 10.102109847076001 0 -1 0 I I #
coedge $-1 $455 $237 $240 $363 reversed $348 $-1 #
coedge $-1 $237 $455 $354 $459 forward $348 $-1 #
vertex $-1 $238 $463 #
straight-curve $-1 60.033570360423596 0.16691771741937345 86.032341217497049 0 0 1 I I #
straight-curve $-1 -31.943194794003176 0.16691771741937345 80.087917280567325 0.76604443648966558 0 -0.64278761758704617 I I #
edge $-1 $457 -15.443833676368023 $241 0.16691771741937345 $358 $464 forward 7 unknown #
point $-1 60.033570360423596 0.16691771741937345 10.102109847076003 #
point $-1 51.462640898534787 0.16691771741937345 10.102109847076008 #
edge $-1 $465 1 $465 0 $244 $-1 forward 7 unknown #
vertex $-1 $245 $466 #
ellipse-curve $-1 52.071110144982107 -10.983618992428767 2.1241054097809156 0.64278761758704617 0 0.76604443648966558 1.1490666547344983 0 -0.96418142638056925 1 I I #
point $-1 56.897172284213688 -10.983618992428767 5.5419964702201012 #
edge $-1 $467 1 $467 0 $248 $-1 forward 7 unknown #
vertex $-1 $249 $468 #
ellipse-curve $-1 52.071110144982107 -4.2932969665198826 2.1241054097809156 0.64278761758704617 0 0.76604443648966558 1.1490666547344983 0 -0.96418142638056925 1 I I #
point $-1 56.897172284213688 -4.2932969665198826 5.5419964702201012 #
plane-surface $-1 0 0 10.102109847076003 0 0 1 1 0 0 forward_v I I I I #
coedge $-1 $385 $384 $377 $469 forward $253 $-1 #
coedge $-1 $377 $255 $257 $381 reversed $159 $-1 #
coedge $-1 $255 $376 $375 $469 reversed $159 $-1 #
coedge $-1 $263 $258 $255 $379 forward $264 $-1 #
edge $-1 $382 -17.142979948897981 $470 -8.5720504870091929 $378 $471 forward 7 unknown #
coedge $-1 $257 $256 $385 $472 reversed $99 $-1 #
edge $-1 $473 0 $382 11.188553892727624 $376 $474 forward 7 unknown #
vertex $-1 $259 $475 #
straight-curve $-1 -51.462640898534808 -3.8192289897371623 10.102109847076003 0 1 0 I I #
coedge $-1 $375 $260 $263 $389 reversed $253 $-1 #
coedge $-1 $260 $375 $380 $472 forward $253 $-1 #
vertex $-1 $261 $476 #
straight-curve $-1 -60.033570360423596 -15.443833676368023 47.443505550276058 0 0 1 I I #
straight-curve $-1 -60.033570360423596 -15.443833676368023 2.9102459461253432 -0.76604443648966558 0 -0.64278761758704617 I I #
edge $-1 $470 -0.16691771741937345 $265 15.443833676368023 $384 $477 forward 7 unknown #
point $-1 -60.033570360423596 -15.443833676368023 10.102109847076003 #
point $-1 -51.462640898534808 -15.443833676368023 10.102109847076003 #
edge $-1 $478 1 $478 0 $268 $-1 forward 7 unknown #
vertex $-1 $269 $479 #
ellipse-curve $-1 -52.071110144982121 -10.983618992428767 2.1241054097809244 -0.64278761758704617 0 0.76604443648966558 1.1490666547344983 0 0.96418142638056925 1 I I #
point $-1 -54.599038974744708 -10.983618992428767 7.4703593229812482 #
edge $-1 $480 1 $480 0 $272 $-1 forward 7 unknown #
vertex $-1 $273 $481 #
ellipse-curve $-1 -52.071110144982121 -4.2932969665198826 2.1241054097809244 -0.64278761758704617 0 0.76604443648966558 1.1490666547344983 0 0.96418142638056925 1 I I #
point $-1 -54.599038974744708 -4.2932969665198826 7.4703593229812482 #
plane-surface $-1 60.033570360423596 0 0 -1 0 0 0 0 1 forward_v I I I I #
coedge $-1 $409 $279 $280 $404 reversed $181 $-1 #
coedge $-1 $293 $292 $279 $403 reversed $277 $-1 #
edge $-1 $410 -10.102109847076003 $416 10.102109847076003 $402 $482 forward 7 unknown #
edge $-1 $405 -60.033570360423596 $416 60.033570360423596 $401 $483 forward 7 unknown #
vertex $-1 $412 $484 #
straight-curve $-1 60.033570360423596 0 -10.102109847076003 0 -1 0 I I #
edge $-1 $294 -40.558707251101453 $410 40.558707251101453 $293 $485 forward 7 unknown #
straight-curve $-1 0 40.558707251101453 10.102109847076003 -1 0 0 I I #
coedge $-1 $285 $401 $287 $412 reversed $181 $-1 #
vertex $-1 $407 $486 #
straight-curve $-1 0 -40.558707251101453 10.102109847076003 1 0 0 I I #
edge $-1 $289 -10.102109847076003 $405 10.102109847076003 $287 $487 forward 7 unknown #
point $-1 60.033570360423596 -40.558707251101453 10.102109847076003 #
point $-1 60.033570360423596 40.558707251101453 10.102109847076003 #
point $-1 -60.033570360423596 40.558707251101453 10.102109847076003 #
vertex $-1 $297 $488 #
straight-curve $-1 -60.033570360423596 0 -10.102109847076003 0 1 0 I I #
loop $-1 $-1 $306 $300 #
plane-surface $-1 0 -40.558707251101453 0 0 1 0 0 0 1 forward_v I I I I #
coedge $-1 $317 $308 $304 $422 forward $301 $-1 #
edge $-1 $426 -22.219829975762298 $312 -14.45792457491601 $303 $489 forward 7 unknown #
edge $-1 $313 14.45792457491601 $425 22.219829975762298 $420 $490 forward 7 unknown #
coedge $-1 $315 $306 $320 $435 reversed $418 $-1 #
coedge $-1 $306 $315 $317 $433 reversed $418 $-1 #
vertex $-1 $433 $491 #
vertex $-1 $307 $492 #
straight-curve $-1 -46.31834046361336 -40.558707251101453 0 0 0 1 I I #
straight-curve $-1 -24.400838443837266 -32.796801850255164 -10.102109847076003 1 0 0 I I #
straight-curve $-1 -24.400838443837266 -32.796801850255164 10.102109847076003 -1 0 0 I I #
point $-1 -46.31834046361336 -32.796801850255164 10.102109847076003 #
point $-1 -46.31834046361336 -32.796801850255164 -10.102109847076003 #
straight-curve $-1 -51.285013311735703 -40.558707251101453 0 0 0 -1 I I #
edge $-1 $425 46.31834046361336 $318 51.285013311735703 $424 $493 forward 7 unknown #
point $-1 -51.285013311735703 -40.558707251101453 -10.102109847076003 #
edge $-1 $321 -51.285013311735703 $426 -46.31834046361336 $423 $494 forward 7 unknown #
point $-1 -51.285013311735703 -40.558707251101453 10.102109847076003 #
plane-surface $-1 0 0 10.102109847076003 0 0 1 1 0 0 forward_v I I I I #
coedge $-1 $330 $327 $332 $445 reversed $214 $-1 #
coedge $-1 $327 $330 $451 $495 reversed $214 $-1 #
edge $-1 $453 -10.102109847076003 $447 10.102109847076003 $344 $496 forward 7 unknown #
edge $-1 $442 -6.0688593701290046 $342 6.0688593701290046 $329 $497 forward 7 unknown #
vertex $-1 $495 $498 #
vertex $-1 $445 $499 #
straight-curve $-1 -45.146253831062488 52.696425991359462 0 0 0 -1 I I #
edge $-1 $443 -2.6584515823954504 $447 2.6584515823954504 $438 $500 forward 7 unknown #
straight-curve $-1 -45.146253831062488 46.627566621230457 -10.102109847076003 0 1 0 I I #
vertex $-1 $334 $501 #
straight-curve $-1 -39.829350666271587 46.627566621230457 -10.102109847076003 0 -1 0 I I #
point $-1 -45.146253831062488 40.558707251101453 -10.102109847076003 #
straight-curve $-1 -45.146253831062488 40.558707251101453 0 0 0 -1 I I #
coedge $-1 $340 $339 $439 $495 forward $341 $-1 #
point $-1 -45.146253831062488 40.558707251101453 10.102109847076003 #
vertex $-1 $345 $502 #
straight-curve $-1 -39.829350666271587 46.627566621230457 10.102109847076003 0 1 0 I I #
coedge $-1 $359 $358 $351 $456 forward $348 $-1 #
edge $-1 $457 75.930231370421041 $460 83.122095271371705 $455 $503 forward 7 unknown #
vertex $-1 $363 $504 #
straight-curve $-1 22.617238270219403 -15.443833676368023 10.102109847076008 1 0 0 I I #
edge $-1 $460 -11.62460468663086 $360 3.9861467071565357 $359 $505 forward 7 unknown #
vertex $-1 $459 $506 #
straight-curve $-1 -31.943194794003176 -15.443833676368023 80.087917280567325 -0.76604443648966558 0 0.64278761758704617 I I #
point $-1 51.462640898534787 -15.443833676368023 10.102109847076008 #
point $-1 60.033570360423596 0.16691771741937345 2.9102459461253432 #
straight-curve $-1 60.033570360423596 0 10.102109847076003 0 1 0 I I #
vertex $-1 $366 $507 #
point $-1 53.220176799716612 -10.983618992428767 1.1599239834003465 #
vertex $-1 $370 $508 #
point $-1 53.220176799716612 -4.2932969665198826 1.1599239834003465 #
edge $-1 $470 37.341395703200057 $473 44.533259604150714 $375 $509 forward 7 unknown #
vertex $-1 $389 $510 #
straight-curve $-1 -68.605620847432789 0.16691771741937345 10.102109847076001 -1 0 0 I I #
edge $-1 $473 -3.9861467071565357 $386 11.62460468663086 $385 $511 forward 7 unknown #
vertex $-1 $472 $512 #
straight-curve $-1 -60.033570360423596 0.16691771741937345 2.9102459461253432 0.76604443648966558 0 0.64278761758704617 I I #
point $-1 -51.462640898534808 0.16691771741937345 10.102109847076003 #
point $-1 -60.033570360423596 -15.443833676368023 2.9102459461253432 #
straight-curve $-1 -60.033570360423596 0 10.102109847076003 0 -1 0 I I #
vertex $-1 $392 $513 #
point $-1 -50.922043490247624 -10.983618992428767 3.0882868361614939 #
vertex $-1 $396 $514 #
point $-1 -50.922043490247624 -4.2932969665198826 3.0882868361614939 #
straight-curve $-1 -60.033570360423596 -40.558707251101453 0 0 0 -1 I I #
straight-curve $-1 0 -40.558707251101453 -10.102109847076003 -1 0 0 I I #
point $-1 60.033570360423596 -40.558707251101453 -10.102109847076003 #
straight-curve $-1 -60.033570360423596 0 10.102109847076003 0 -1 0 I I #
point $-1 -60.033570360423596 -40.558707251101453 10.102109847076003 #
straight-curve $-1 60.033570360423596 -40.558707251101453 0 0 0 -1 I I #
point $-1 -60.033570360423596 -40.558707251101453 -10.102109847076003 #
straight-curve $-1 -46.31834046361336 -18.338877275339154 10.102109847076003 0 1 0 I I #
straight-curve $-1 -46.31834046361336 -18.338877275339154 -10.102109847076003 0 -1 0 I I #
point $-1 -46.31834046361336 -40.558707251101453 -10.102109847076003 #
point $-1 -46.31834046361336 -40.558707251101453 10.102109847076003 #
straight-curve $-1 0 -40.558707251101453 -10.102109847076003 -1 0 0 I I #
straight-curve $-1 0 -40.558707251101453 10.102109847076003 1 0 0 I I #
edge $-1 $453 -2.6584515823954504 $442 2.6584515823954504 $439 $515 forward 7 unknown #
straight-curve $-1 -39.829350666271587 52.696425991359462 0 0 0 -1 I I #
straight-curve $-1 -45.146253831062488 46.627566621230457 10.102109847076003 0 -1 0 I I #
point $-1 -45.146253831062488 52.696425991359462 10.102109847076003 #
point $-1 -45.146253831062488 52.696425991359462 -10.102109847076003 #
straight-curve $-1 -42.487802248667037 52.696425991359462 -10.102109847076003 1 0 0 I I #
point $-1 -39.829350666271587 52.696425991359462 -10.102109847076003 #
point $-1 -39.829350666271587 52.696425991359462 10.102109847076003 #
straight-curve $-1 60.033570360423596 -15.443833676368023 86.032341217497049 0 0 -1 I I #
point $-1 60.033570360423596 -15.443833676368023 10.102109847076003 #
straight-curve $-1 60.033570360423589 -3.8192289897371623 2.9102459461253432 0 1 0 I I #
point $-1 60.033570360423596 -15.443833676368023 2.9102459461253432 #
point $-1 51.106928718601544 -10.983618992428767 0.97503875504641735 #
point $-1 51.106928718601544 -4.2932969665198826 0.97503875504641735 #
straight-curve $-1 -60.033570360423596 0.16691771741937345 47.443505550276058 0 0 -1 I I #
point $-1 -60.033570360423596 0.16691771741937345 10.102109847076003 #
straight-curve $-1 -60.033570360423596 -3.8192289897371623 2.9102459461253414 0 -1 0 I I #
point $-1 -60.033570360423596 0.16691771741937345 2.9102459461253432 #
point $-1 -51.106928718601559 -10.983618992428767 0.97503875504642623 #
point $-1 -51.106928718601559 -4.2932969665198826 0.97503875504642623 #
straight-curve $-1 -42.487802248667037 52.696425991359462 10.102109847076003 -1 0 0 I I #
End-of-ACIS-data 