500 0 8 0           
7 Unknown 11 ACIS 5.0 NT 24 Fri Mar 26 18:26:20 1999 
-1 9.9999999999999995e-007 1e-010 
body $-1 $8 $-1 $9 #
body $-1 $10 $-1 $11 #
body $-1 $12 $-1 $13 #
body $-1 $14 $-1 $15 #
body $-1 $16 $-1 $17 #
body $-1 $18 $-1 $19 #
body $-1 $20 $-1 $21 #
body $-1 $22 $-1 $23 #
lump $-1 $-1 $24 $0 #
transform $-1 1 0 0 0 1 0 0 0 1 73.65337076937162 40.947336017774347 13.871008486089465 1 rotate no_reflect no_shear #
lump $-1 $-1 $25 $1 #
transform $-1 1 0 0 0 1 0 0 0 1 73.65337076937162 40.947336017774347 13.871008486089465 1 rotate no_reflect no_shear #
lump $-1 $-1 $26 $2 #
transform $-1 1 0 0 0 1 0 0 0 1 73.65337076937162 40.947336017774347 13.871008486089465 1 rotate no_reflect no_shear #
lump $-1 $-1 $27 $3 #
transform $-1 1 0 0 0 1 0 0 0 1 73.65337076937162 40.947336017774347 13.871008486089465 1 rotate no_reflect no_shear #
lump $-1 $-1 $28 $4 #
transform $-1 1 0 0 0 1 0 0 0 1 73.65337076937162 40.947336017774347 13.871008486089465 1 rotate no_reflect no_shear #
lump $-1 $-1 $29 $5 #
transform $-1 1 0 0 0 1 0 0 0 1 73.65337076937162 40.947336017774347 13.871008486089465 1 rotate no_reflect no_shear #
lump $-1 $-1 $30 $6 #
transform $-1 1 0 0 0 1 0 0 0 1 73.65337076937162 40.947336017774347 13.871008486089465 1 rotate no_reflect no_shear #
lump $-1 $-1 $31 $7 #
transform $-1 1 0 0 0 1 0 0 0 1 73.65337076937162 40.947336017774347 13.871008486089465 1 rotate no_reflect no_shear #
shell $-1 $-1 $-1 $32 $-1 $8 #
shell $-1 $-1 $-1 $33 $-1 $10 #
shell $-1 $-1 $-1 $34 $-1 $12 #
shell $-1 $-1 $-1 $35 $-1 $14 #
shell $-1 $-1 $-1 $36 $-1 $16 #
shell $-1 $-1 $-1 $37 $-1 $18 #
shell $-1 $-1 $-1 $38 $-1 $20 #
shell $-1 $-1 $-1 $39 $-1 $22 #
face $-1 $40 $41 $24 $-1 $42 forward single #
face $-1 $43 $44 $25 $-1 $45 forward single #
face $-1 $46 $47 $26 $-1 $48 reversed single #
face $-1 $49 $50 $27 $-1 $51 forward single #
face $-1 $52 $53 $28 $-1 $54 reversed single #
face $-1 $55 $56 $29 $-1 $57 forward single #
face $-1 $58 $59 $30 $-1 $60 forward single #
face $-1 $61 $62 $31 $-1 $63 forward single #
face $-1 $64 $65 $24 $-1 $66 reversed single #
loop $-1 $-1 $67 $32 #
plane-surface $-1 0 0 13.871008486089465 0 0 1 1 0 0 forward_v I I I I #
face $-1 $68 $69 $25 $-1 $70 reversed single #
loop $-1 $-1 $71 $33 #
plane-surface $-1 -73.65337076937162 0 0 1 0 0 0 0 -1 forward_v I I I I #
face $-1 $72 $73 $26 $-1 $74 reversed single #
loop $-1 $-1 $75 $34 #
plane-surface $-1 64.81536822807395 -40.947336017774361 1.9763358730318714 0 -0.54463904215088732 0.83867056331134215 1 0 0 forward_v I I I I #
face $-1 $76 $77 $27 $-1 $78 forward single #
loop $-1 $79 $80 $35 #
cone-surface $-1 64.81536822807395 -30.250000728263579 5.5534494702663473 0 0.54463904215088732 -0.83867056331134215 2 0 0 1 I I 0 1 2 forward I I I I #
face $-1 $81 $82 $28 $-1 $83 reversed single #
loop $-1 $-1 $84 $36 #
plane-surface $-1 64.62838680432948 -12.780402216504825 62.000446146910718 0 0.75470958851134928 0.65605901945558964 1 0 0 forward_v I I I I #
face $-1 $85 $86 $29 $-1 $87 forward single #
loop $-1 $88 $89 $37 #
cone-surface $-1 59.213396425304168 33.865170555959523 6.0436215524077523 0 -0.75470958851134928 -0.65605901945558964 1.5 0 0 1 I I 0 1 1.5 forward I I I I #
face $-1 $90 $91 $30 $-1 $92 forward single #
loop $-1 $93 $94 $38 #
cone-surface $-1 64.628386804329452 33.865170555959523 6.0436215524077523 0 -0.75470958851134928 -0.65605901945558964 1.5 0 0 1 I I 0 1 1.5 forward I I I I #
face $-1 $95 $96 $31 $-1 $97 forward single #
loop $-1 $98 $99 $39 #
cone-surface $-1 70.043377183354735 33.865170555959523 6.0436215524077523 0 -0.75470958851134928 -0.65605901945558964 1.5 0 0 1 I I 0 1 1.5 forward I I I I #
face $-1 $100 $101 $24 $-1 $102 reversed single #
loop $-1 $-1 $103 $40 #
plane-surface $-1 0 0 -13.871008486089465 0 0 1 1 0 0 forward_v I I I I #
coedge $-1 $104 $105 $106 $107 forward $41 $-1 #
face $-1 $108 $109 $25 $-1 $110 forward single #
loop $-1 $-1 $111 $43 #
plane-surface $-1 0 40.947336017774347 0 0 -1 0 0 0 -1 forward_v I I I I #
coedge $-1 $112 $113 $114 $115 forward $44 $-1 #
face $-1 $116 $117 $26 $-1 $118 reversed single #
loop $-1 $-1 $119 $46 #
plane-surface $-1 55.977365686776281 -121.1763386318038 125.51816377888795 1 0 0 0 0.54463904215088732 -0.83867056331134215 forward_v I I I I #
coedge $-1 $120 $121 $122 $123 reversed $47 $-1 #
face $-1 $-1 $124 $27 $-1 $125 forward single #
loop $-1 $126 $127 $49 #
cone-surface $-1 64.81536822807395 -28.166121032455571 2.3445561976606903 0 0.54463904215088732 -0.83867056331134215 1 0 0 1 I I -0.70710678118654746 0.70710678118654746 1 forward I I I I #
loop $-1 $-1 $128 $35 #
coedge $-1 $80 $80 $129 $130 reversed $50 $-1 #
face $-1 $131 $132 $28 $-1 $133 forward single #
loop $-1 $-1 $134 $52 #
plane-surface $-1 55.603402839287327 98.393408075147761 158.64236256001658 1 0 0 0 -0.75470958851134928 -0.65605901945558964 forward_v I I I I #
coedge $-1 $135 $136 $137 $138 reversed $53 $-1 #
face $-1 $-1 $139 $29 $-1 $140 forward single #
loop $-1 $141 $142 $55 #
cone-surface $-1 59.213396425304168 32.161701625123285 4.5628186403341431 0 -0.75470958851134928 -0.65605901945558964 0.75 0 0 1 I I -0.70710678118654757 0.70710678118654757 0.75 forward I I I I #
loop $-1 $-1 $143 $37 #
coedge $-1 $89 $89 $144 $145 reversed $56 $-1 #
face $-1 $-1 $146 $30 $-1 $147 forward single #
loop $-1 $148 $149 $58 #
cone-surface $-1 64.628386804329452 32.161701625123285 4.5628186403341431 0 -0.75470958851134928 -0.65605901945558964 0.75 0 0 1 I I -0.70710678118654757 0.70710678118654757 0.75 forward I I I I #
loop $-1 $-1 $150 $38 #
coedge $-1 $94 $94 $151 $152 reversed $59 $-1 #
face $-1 $-1 $153 $31 $-1 $154 forward single #
loop $-1 $155 $156 $61 #
cone-surface $-1 70.043377183354735 32.161701625123285 4.5628186403341431 0 -0.75470958851134928 -0.65605901945558964 0.75 0 0 1 I I -0.70710678118654757 0.70710678118654757 0.75 forward I I I I #
loop $-1 $-1 $157 $39 #
coedge $-1 $99 $99 $158 $159 reversed $62 $-1 #
face $-1 $160 $161 $24 $-1 $162 reversed single #
loop $-1 $-1 $163 $64 #
plane-surface $-1 0 -40.947336017774347 0 0 1 0 0 0 1 forward_v I I I I #
coedge $-1 $164 $165 $166 $167 forward $65 $-1 #
coedge $-1 $168 $67 $169 $170 forward $41 $-1 #
coedge $-1 $67 $168 $171 $172 forward $41 $-1 #
coedge $-1 $173 $174 $67 $107 reversed $175 $-1 #
edge $-1 $176 -40.947336017774347 $177 40.947336017774347 $106 $178 forward 7 unknown #
face $-1 $179 $180 $25 $-1 $181 reversed single #
loop $-1 $-1 $114 $68 #
plane-surface $-1 -78.92705055843561 0 -7.4933163064658608 0 0 1 1 0 0 forward_v I I I I #
coedge $-1 $182 $183 $113 $184 forward $69 $-1 #
coedge $-1 $185 $71 $186 $187 reversed $44 $-1 #
coedge $-1 $71 $185 $111 $184 reversed $44 $-1 #
coedge $-1 $188 $189 $71 $115 reversed $109 $-1 #
edge $-1 $190 -40.947336017774347 $191 40.947336017774347 $114 $192 forward 7 unknown #
face $-1 $193 $194 $26 $-1 $195 forward single #
loop $-1 $-1 $196 $72 #
plane-surface $-1 0 -40.947336017774347 0 0 1 0 0 0 1 forward_v I I I I #
coedge $-1 $197 $198 $199 $200 reversed $73 $-1 #
coedge $-1 $201 $75 $202 $203 reversed $47 $-1 #
coedge $-1 $75 $201 $197 $204 forward $47 $-1 #
coedge $-1 $199 $205 $75 $123 forward $194 $-1 #
edge $-1 $206 -41.245686655334644 $207 -23.569681572739306 $122 $208 forward 7 unknown #
loop $-1 $-1 $129 $76 #
plane-surface $-1 64.81536822807395 -40.947336017774361 1.9763358730318714 0 -0.54463904215088732 0.83867056331134215 1 0 0 forward_v I I I I #
loop $-1 $-1 $209 $49 #
coedge $-1 $127 $127 $128 $210 reversed $77 $-1 #
coedge $-1 $128 $128 $127 $210 forward $79 $-1 #
coedge $-1 $129 $129 $80 $130 forward $124 $-1 #
edge $-1 $211 -8.9033676783299296e-016 $211 6.2831853071795996 $129 $212 forward 7 unknown #
face $-1 $213 $214 $28 $-1 $215 reversed single #
loop $-1 $-1 $216 $81 #
plane-surface $-1 0 0 13.871008486089465 0 0 1 1 0 0 forward_v I I I I #
coedge $-1 $217 $218 $219 $220 reversed $82 $-1 #
coedge $-1 $221 $84 $222 $223 reversed $53 $-1 #
coedge $-1 $84 $221 $217 $224 forward $53 $-1 #
coedge $-1 $219 $225 $84 $138 forward $226 $-1 #
edge $-1 $227 -41.339177367206879 $228 -23.289209437122587 $137 $229 forward 7 unknown #
loop $-1 $-1 $144 $85 #
plane-surface $-1 64.62838680432948 -12.780402216504825 62.000446146910718 0 0.75470958851134928 0.65605901945558964 1 0 0 forward_v I I I I #
loop $-1 $-1 $230 $55 #
coedge $-1 $142 $142 $143 $231 reversed $86 $-1 #
coedge $-1 $143 $143 $142 $231 forward $88 $-1 #
coedge $-1 $144 $144 $89 $145 forward $139 $-1 #
edge $-1 $232 -3.1077198033604232e-015 $232 6.2831853071795978 $144 $233 forward 7 unknown #
loop $-1 $-1 $151 $90 #
plane-surface $-1 64.62838680432948 -12.780402216504825 62.000446146910718 0 0.75470958851134928 0.65605901945558964 1 0 0 forward_v I I I I #
loop $-1 $-1 $234 $58 #
coedge $-1 $149 $149 $150 $235 reversed $91 $-1 #
coedge $-1 $150 $150 $149 $235 forward $93 $-1 #
coedge $-1 $151 $151 $94 $152 forward $146 $-1 #
edge $-1 $236 -3.1077198033604232e-015 $236 6.2831853071795978 $151 $237 forward 7 unknown #
loop $-1 $-1 $158 $95 #
plane-surface $-1 64.62838680432948 -12.780402216504825 62.000446146910718 0 0.75470958851134928 0.65605901945558964 1 0 0 forward_v I I I I #
loop $-1 $-1 $238 $61 #
coedge $-1 $156 $156 $157 $239 reversed $96 $-1 #
coedge $-1 $157 $157 $156 $239 forward $98 $-1 #
coedge $-1 $158 $158 $99 $159 forward $153 $-1 #
edge $-1 $240 -3.1077198033604232e-015 $240 6.2831853071795978 $158 $241 forward 7 unknown #
face $-1 $242 $243 $24 $-1 $244 reversed single #
loop $-1 $-1 $245 $100 #
plane-surface $-1 -73.65337076937162 0 0 1 0 0 0 0 -1 forward_v I I I I #
coedge $-1 $246 $171 $245 $247 forward $101 $-1 #
coedge $-1 $248 $103 $246 $249 forward $65 $-1 #
coedge $-1 $103 $248 $250 $251 forward $65 $-1 #
coedge $-1 $174 $173 $103 $167 reversed $175 $-1 #
edge $-1 $252 -40.947336017774347 $253 40.947336017774347 $166 $254 forward 7 unknown #
coedge $-1 $105 $104 $255 $256 forward $41 $-1 #
coedge $-1 $257 $258 $104 $170 reversed $243 $-1 #
edge $-1 $177 -73.65337076937162 $259 73.65337076937162 $169 $260 forward 7 unknown #
coedge $-1 $163 $261 $105 $172 reversed $101 $-1 #
edge $-1 $262 -73.65337076937162 $176 73.65337076937162 $171 $263 forward 7 unknown #
coedge $-1 $166 $106 $261 $264 forward $175 $-1 #
coedge $-1 $106 $166 $257 $265 reversed $175 $-1 #
loop $-1 $-1 $173 $242 #
vertex $-1 $107 $266 #
vertex $-1 $107 $267 #
straight-curve $-1 73.65337076937162 0 13.871008486089465 0 1 0 I I #
face $-1 $268 $269 $25 $-1 $270 reversed single #
loop $-1 $-1 $271 $108 #
plane-surface $-1 -84.200730347499601 0 -10.682162396277663 1 0 0 0 0 -1 forward_v I I I I #
coedge $-1 $272 $111 $273 $274 reversed $69 $-1 #
coedge $-1 $111 $272 $188 $275 reversed $69 $-1 #
edge $-1 $190 7.4933163064658608 $276 13.871008486089465 $111 $277 forward 7 unknown #
coedge $-1 $113 $112 $278 $279 reversed $44 $-1 #
coedge $-1 $280 $281 $112 $187 forward $282 $-1 #
edge $-1 $283 -13.871008486089465 $191 -7.4933163064658608 $186 $284 forward 7 unknown #
coedge $-1 $285 $114 $183 $275 forward $109 $-1 #
coedge $-1 $114 $285 $280 $286 forward $109 $-1 #
vertex $-1 $184 $287 #
vertex $-1 $286 $288 #
straight-curve $-1 -73.65337076937162 0 -7.4933163064658608 0 -1 0 I I #
face $-1 $-1 $289 $26 $-1 $290 reversed single #
loop $-1 $-1 $199 $116 #
plane-surface $-1 0 0 13.871008486089465 0 0 1 1 0 0 forward_v I I I I #
coedge $-1 $291 $292 $198 $293 forward $117 $-1 #
coedge $-1 $198 $119 $121 $204 reversed $73 $-1 #
coedge $-1 $119 $197 $196 $293 reversed $73 $-1 #
coedge $-1 $294 $122 $119 $200 forward $194 $-1 #
edge $-1 $207 -37.957022569834805 $295 -19.640833298127554 $199 $296 forward 7 unknown #
coedge $-1 $121 $120 $291 $297 reversed $47 $-1 #
coedge $-1 $298 $299 $120 $203 forward $289 $-1 #
edge $-1 $300 -16.63246784363454 $206 5.2070840292594198 $202 $301 forward 7 unknown #
edge $-1 $302 1.699746028866204e-014 $207 21.839551872893978 $197 $303 forward 7 unknown #
coedge $-1 $122 $294 $298 $304 forward $194 $-1 #
vertex $-1 $203 $305 #
vertex $-1 $123 $306 #
straight-curve $-1 32.407684114036975 -22.631146746067092 13.871008486089465 -1 0 0 I I #
coedge $-1 $209 $209 $-1 $307 reversed $126 $-1 #
edge $-1 $308 0 $308 6.2831853071796004 $127 $309 forward 7 unknown #
vertex $-1 $130 $310 #
ellipse-curve $-1 64.81536822807395 -31.789241381920711 7.9236721795606773 0 -0.54463904215088732 0.83867056331134215 2 0 0 1 I I #
face $-1 $-1 $226 $28 $-1 $311 reversed single #
loop $-1 $-1 $222 $131 #
plane-surface $-1 73.65337076937162 0 0 -1 0 0 0 0 1 forward_v I I I I #
coedge $-1 $312 $313 $218 $314 forward $132 $-1 #
coedge $-1 $218 $134 $136 $224 reversed $82 $-1 #
coedge $-1 $134 $217 $216 $314 reversed $82 $-1 #
coedge $-1 $315 $137 $134 $220 forward $226 $-1 #
edge $-1 $228 -79.127429366318438 $316 -65.450172793918824 $219 $317 forward 7 unknown #
coedge $-1 $136 $135 $312 $318 reversed $53 $-1 #
coedge $-1 $319 $320 $135 $223 forward $214 $-1 #
edge $-1 $321 36.183614890052489 $227 54.306157362817061 $222 $322 forward 7 unknown #
edge $-1 $323 63.77212956278413 $228 81.894672035548709 $217 $324 forward 7 unknown #
coedge $-1 $137 $315 $319 $325 forward $226 $-1 #
loop $-1 $-1 $219 $213 #
vertex $-1 $223 $326 #
vertex $-1 $138 $327 #
straight-curve $-1 32.31419340216474 40.947336017774347 0.19375191368985867 -1 0 0 I I #
coedge $-1 $230 $230 $-1 $328 reversed $141 $-1 #
edge $-1 $329 0 $329 6.2831853071796004 $142 $330 forward 7 unknown #
vertex $-1 $145 $331 #
ellipse-curve $-1 59.213396425304168 35.002607295412247 7.0323801998896691 0 0.75470958851134928 0.65605901945558964 1.5 0 0 1 I I #
coedge $-1 $234 $234 $-1 $332 reversed $148 $-1 #
edge $-1 $333 0 $333 6.2831853071796004 $149 $334 forward 7 unknown #
vertex $-1 $152 $335 #
ellipse-curve $-1 64.628386804329452 35.002607295412247 7.0323801998896691 0 0.75470958851134928 0.65605901945558964 1.5 0 0 1 I I #
coedge $-1 $238 $238 $-1 $336 reversed $155 $-1 #
edge $-1 $337 0 $337 6.2831853071796004 $156 $338 forward 7 unknown #
vertex $-1 $159 $339 #
ellipse-curve $-1 70.043377183354735 35.002607295412247 7.0323801998896691 0 0.75470958851134928 0.65605901945558964 1.5 0 0 1 I I #
face $-1 $-1 $175 $24 $-1 $340 reversed single #
loop $-1 $-1 $257 $160 #
plane-surface $-1 0 40.947336017774347 0 0 -1 0 0 0 -1 forward_v I I I I #
coedge $-1 $255 $341 $163 $247 reversed $161 $-1 #
coedge $-1 $261 $163 $164 $249 reversed $101 $-1 #
edge $-1 $262 -13.871008486089465 $342 13.871008486089465 $245 $343 forward 7 unknown #
coedge $-1 $165 $164 $341 $344 forward $65 $-1 #
edge $-1 $253 -73.65337076937162 $342 73.65337076937162 $246 $345 forward 7 unknown #
coedge $-1 $258 $257 $165 $251 reversed $243 $-1 #
edge $-1 $346 -73.65337076937162 $252 73.65337076937162 $250 $347 forward 7 unknown #
vertex $-1 $167 $348 #
vertex $-1 $264 $349 #
straight-curve $-1 73.65337076937162 0 -13.871008486089465 0 -1 0 I I #
coedge $-1 $350 $245 $168 $256 reversed $161 $-1 #
edge $-1 $259 -40.947336017774347 $262 40.947336017774347 $255 $351 forward 7 unknown #
coedge $-1 $250 $169 $174 $265 forward $243 $-1 #
coedge $-1 $169 $250 $350 $352 reversed $243 $-1 #
vertex $-1 $170 $353 #
straight-curve $-1 0 40.947336017774347 13.871008486089465 -1 0 0 I I #
coedge $-1 $171 $246 $173 $264 reversed $101 $-1 #
vertex $-1 $256 $354 #
straight-curve $-1 0 -40.947336017774347 13.871008486089465 1 0 0 I I #
edge $-1 $176 -13.871008486089465 $253 13.871008486089465 $173 $355 forward 7 unknown #
edge $-1 $177 -13.871008486089465 $252 13.871008486089465 $174 $356 forward 7 unknown #
point $-1 73.65337076937162 -40.947336017774347 13.871008486089465 #
point $-1 73.65337076937162 40.947336017774347 13.871008486089465 #
face $-1 $-1 $282 $25 $-1 $357 reversed single #
loop $-1 $-1 $278 $179 #
plane-surface $-1 0 0 -13.871008486089465 0 0 1 1 0 0 forward_v I I I I #
coedge $-1 $358 $359 $272 $360 forward $180 $-1 #
coedge $-1 $183 $182 $271 $360 reversed $69 $-1 #
coedge $-1 $278 $361 $182 $274 forward $269 $-1 #
edge $-1 $362 -84.200730347499601 $276 -73.65337076937162 $182 $363 forward 7 unknown #
edge $-1 $190 -5.2736797890639906 $364 5.2736797890639906 $183 $365 forward 7 unknown #
vertex $-1 $184 $366 #
straight-curve $-1 -73.65337076937162 40.947336017774347 0 0 0 -1 I I #
coedge $-1 $367 $273 $185 $279 forward $269 $-1 #
edge $-1 $276 -40.947336017774347 $283 40.947336017774347 $278 $368 forward 7 unknown #
coedge $-1 $369 $186 $189 $286 reversed $282 $-1 #
coedge $-1 $186 $369 $367 $370 reversed $282 $-1 #
loop $-1 $-1 $186 $268 #
vertex $-1 $370 $371 #
straight-curve $-1 -73.65337076937162 -40.947336017774347 0 0 0 1 I I #
coedge $-1 $189 $188 $359 $372 forward $109 $-1 #
edge $-1 $373 -5.2736797890639906 $191 5.2736797890639906 $280 $374 forward 7 unknown #
point $-1 -73.65337076937162 40.947336017774347 -7.4933163064658608 #
point $-1 -73.65337076937162 -40.947336017774347 -7.4933163064658608 #
loop $-1 $-1 $202 $193 #
plane-surface $-1 73.65337076937162 0 0 -1 0 0 0 0 1 forward_v I I I I #
coedge $-1 $375 $196 $201 $297 forward $117 $-1 #
coedge $-1 $196 $375 $294 $376 reversed $117 $-1 #
edge $-1 $295 48.888073403354511 $302 60.782746016412098 $196 $377 forward 7 unknown #
coedge $-1 $205 $199 $292 $376 forward $194 $-1 #
vertex $-1 $376 $378 #
straight-curve $-1 55.977365686776281 -60.588169315901901 13.871008486089465 0 -1 0 I I #
edge $-1 $302 23.569681572739306 $300 41.245686655334644 $291 $379 forward 7 unknown #
coedge $-1 $299 $202 $205 $304 reversed $289 $-1 #
coedge $-1 $202 $298 $375 $380 forward $289 $-1 #
vertex $-1 $297 $381 #
straight-curve $-1 73.65337076937162 -26.998174842095583 11.035027227994432 0 0.83867056331134215 0.54463904215088732 I I #
vertex $-1 $297 $382 #
straight-curve $-1 55.977365686776281 -40.947336017774361 1.9763358730318714 0 0.83867056331134215 0.54463904215088732 I I #
edge $-1 $383 -40.947336017774347 $206 -22.631146746067092 $298 $384 forward 7 unknown #
point $-1 73.65337076937162 -22.631146746067092 13.871008486089465 #
point $-1 55.977365686776281 -22.631146746067092 13.871008486089465 #
edge $-1 $385 1 $385 0 $209 $-1 forward 7 unknown #
vertex $-1 $210 $386 #
ellipse-curve $-1 64.81536822807395 -28.710760074606458 3.1832267609720324 0 -0.54463904215088732 0.83867056331134215 2 0 0 1 I I #
point $-1 66.81536822807395 -31.789241381920704 7.9236721795606631 #
plane-surface $-1 0 40.947336017774347 0 0 -1 0 0 0 -1 forward_v I I I I #
coedge $-1 $387 $216 $221 $318 forward $132 $-1 #
coedge $-1 $216 $387 $315 $388 forward $132 $-1 #
edge $-1 $316 8.2493680197995332 $323 20.138825464523734 $216 $389 forward 7 unknown #
coedge $-1 $225 $219 $313 $388 reversed $226 $-1 #
vertex $-1 $314 $390 #
straight-curve $-1 55.603402839287327 40.947336017774347 79.32118128000829 0 0 1 I I #
edge $-1 $323 23.289209437122587 $321 41.339177367206894 $312 $391 forward 7 unknown #
coedge $-1 $320 $222 $225 $325 reversed $214 $-1 #
coedge $-1 $222 $319 $387 $392 reversed $214 $-1 #
vertex $-1 $392 $393 #
straight-curve $-1 73.65337076937162 5.3192916679236379 41.17912959061411 0 0.65605901945558975 -0.75470958851134939 I I #
vertex $-1 $318 $394 #
straight-curve $-1 55.603402839287327 -12.780402216504825 62.000446146910718 0 0.65605901945558964 -0.75470958851134928 I I #
edge $-1 $395 -13.871008486089465 $227 -0.19375191368986366 $319 $396 forward 7 unknown #
point $-1 73.65337076937162 40.947336017774347 0.19375191368986366 #
point $-1 55.603402839287327 40.947336017774347 0.19375191368985867 #
edge $-1 $397 1 $397 0 $230 $-1 forward 7 unknown #
vertex $-1 $231 $398 #
ellipse-curve $-1 59.213396425304168 32.727733816506799 5.0548629049258356 0 0.75470958851134928 0.65605901945558964 1.5 0 0 1 I I #
point $-1 60.713396425304168 35.00260729541224 7.0323801998896691 #
edge $-1 $399 1 $399 0 $234 $-1 forward 7 unknown #
vertex $-1 $235 $400 #
ellipse-curve $-1 64.628386804329452 32.727733816506799 5.0548629049258356 0 0.75470958851134928 0.65605901945558964 1.5 0 0 1 I I #
point $-1 66.128386804329452 35.00260729541224 7.0323801998896691 #
edge $-1 $401 1 $401 0 $238 $-1 forward 7 unknown #
vertex $-1 $239 $402 #
ellipse-curve $-1 70.043377183354735 32.727733816506799 5.0548629049258356 0 0.75470958851134928 0.65605901945558964 1.5 0 0 1 I I #
point $-1 71.543377183354735 35.00260729541224 7.0323801998896691 #
plane-surface $-1 73.65337076937162 0 0 -1 0 0 0 0 1 forward_v I I I I #
coedge $-1 $245 $350 $248 $344 reversed $161 $-1 #
vertex $-1 $344 $403 #
straight-curve $-1 -73.65337076937162 -40.947336017774347 0 0 0 -1 I I #
edge $-1 $342 -40.947336017774347 $346 40.947336017774347 $341 $404 forward 7 unknown #
straight-curve $-1 0 -40.947336017774347 -13.871008486089465 -1 0 0 I I #
vertex $-1 $251 $405 #
straight-curve $-1 0 40.947336017774347 -13.871008486089465 1 0 0 I I #
point $-1 73.65337076937162 40.947336017774347 -13.871008486089465 #
point $-1 73.65337076937162 -40.947336017774347 -13.871008486089465 #
coedge $-1 $341 $255 $258 $352 forward $161 $-1 #
straight-curve $-1 -73.65337076937162 0 13.871008486089465 0 -1 0 I I #
edge $-1 $259 -13.871008486089465 $346 13.871008486089465 $258 $406 forward 7 unknown #
point $-1 -73.65337076937162 40.947336017774347 13.871008486089465 #
point $-1 -73.65337076937162 -40.947336017774347 13.871008486089465 #
straight-curve $-1 73.65337076937162 -40.947336017774347 0 0 0 -1 I I #
straight-curve $-1 73.65337076937162 40.947336017774347 0 0 0 -1 I I #
plane-surface $-1 0 -40.947336017774347 0 0 1 0 0 0 1 forward_v I I I I #
coedge $-1 $407 $271 $361 $408 reversed $180 $-1 #
coedge $-1 $271 $407 $285 $372 reversed $180 $-1 #
edge $-1 $364 -3.1888460898118023 $362 3.1888460898118023 $272 $409 forward 7 unknown #
coedge $-1 $273 $367 $358 $408 forward $269 $-1 #
vertex $-1 $274 $410 #
straight-curve $-1 0 40.947336017774347 -13.871008486089465 1 0 0 I I #
vertex $-1 $275 $411 #
straight-curve $-1 -78.92705055843561 40.947336017774347 -7.4933163064658608 -1 0 0 I I #
point $-1 -73.65337076937162 40.947336017774347 -13.871008486089465 #
coedge $-1 $361 $278 $281 $370 forward $269 $-1 #
straight-curve $-1 -73.65337076937162 0 -13.871008486089465 0 -1 0 I I #
coedge $-1 $281 $280 $407 $412 forward $282 $-1 #
edge $-1 $283 -5.2736797890639906 $413 5.2736797890639906 $281 $414 forward 7 unknown #
point $-1 -73.65337076937162 -40.947336017774347 -13.871008486089465 #
edge $-1 $364 -40.947336017774347 $373 40.947336017774347 $359 $415 forward 7 unknown #
vertex $-1 $372 $416 #
straight-curve $-1 -78.92705055843561 -40.947336017774347 -7.4933163064658608 1 0 0 I I #
coedge $-1 $292 $291 $299 $380 reversed $117 $-1 #
edge $-1 $295 55.977365686776281 $383 73.65337076937162 $292 $417 forward 7 unknown #
straight-curve $-1 55.977365686776281 -40.947336017774347 62.759081889443976 0 0 -1 I I #
point $-1 55.977365686776281 -40.947336017774347 13.871008486089465 #
straight-curve $-1 32.407684114036975 -40.947336017774347 1.9763358730318819 1 0 0 I I #
edge $-1 $383 -13.871008486089465 $300 -1.9763358730318807 $299 $418 forward 7 unknown #
point $-1 73.65337076937162 -40.947336017774347 1.9763358730318807 #
point $-1 55.977365686776281 -40.947336017774347 1.9763358730318807 #
vertex $-1 $304 $419 #
straight-curve $-1 73.65337076937162 0 13.871008486089465 0 1 0 I I #
vertex $-1 $307 $420 #
point $-1 66.81536822807395 -28.710760074606458 3.1832267609720324 #
coedge $-1 $313 $312 $320 $392 forward $132 $-1 #
edge $-1 $395 -73.65337076937162 $316 -55.603402839287327 $315 $421 forward 7 unknown #
straight-curve $-1 55.603402839287327 49.19670403757388 13.871008486089465 0 -1 0 I I #
point $-1 55.603402839287327 40.947336017774347 13.871008486089465 #
straight-curve $-1 32.31419340216474 29.057878573050147 13.871008486089462 1 0 0 I I #
edge $-1 $321 29.057878573050147 $395 40.947336017774347 $320 $422 forward 7 unknown #
point $-1 73.653370769371634 29.057878573050147 13.871008486089465 #
point $-1 55.603402839287327 29.057878573050147 13.871008486089465 #
vertex $-1 $392 $423 #
straight-curve $-1 73.65337076937162 40.947336017774347 0 0 0 -1 I I #
vertex $-1 $328 $424 #
point $-1 60.713396425304168 32.727733816506799 5.0548629049258356 #
vertex $-1 $332 $425 #
point $-1 66.128386804329452 32.727733816506799 5.0548629049258356 #
vertex $-1 $336 $426 #
point $-1 71.543377183354735 32.727733816506799 5.0548629049258356 #
point $-1 -73.65337076937162 -40.947336017774347 -13.871008486089465 #
straight-curve $-1 -73.65337076937162 0 -13.871008486089465 0 1 0 I I #
point $-1 -73.65337076937162 40.947336017774347 -13.871008486089465 #
straight-curve $-1 -73.65337076937162 40.947336017774347 0 0 0 -1 I I #
coedge $-1 $359 $358 $369 $412 reversed $180 $-1 #
edge $-1 $413 -40.947336017774347 $362 40.947336017774347 $358 $427 forward 7 unknown #
straight-curve $-1 -84.200730347499601 40.947336017774347 -10.682162396277663 0 0 -1 I I #
point $-1 -84.200730347499601 40.947336017774347 -13.871008486089465 #
point $-1 -84.200730347499601 40.947336017774347 -7.4933163064658608 #
edge $-1 $373 -3.1888460898118023 $413 3.1888460898118023 $407 $428 forward 7 unknown #
vertex $-1 $408 $429 #
straight-curve $-1 -78.92705055843561 -40.947336017774347 -13.871008486089465 -1 0 0 I I #
straight-curve $-1 -84.200730347499601 0 -7.4933163064658608 0 -1 0 I I #
point $-1 -84.200730347499601 -40.947336017774347 -7.4933163064658608 #
straight-curve $-1 0 -40.947336017774347 13.871008486089465 1 0 0 I I #
straight-curve $-1 73.65337076937162 -40.947336017774347 0 0 0 -1 I I #
point $-1 73.65337076937162 -40.947336017774347 13.871008486089465 #
point $-1 64.81536822807395 -27.621481990304684 1.5058856343493483 #
straight-curve $-1 0 40.947336017774347 13.871008486089465 -1 0 0 I I #
straight-curve $-1 73.65337076937162 0 13.871008486089465 0 1 0 I I #
point $-1 73.65337076937162 40.947336017774347 13.871008486089465 #
point $-1 59.213396425304168 31.595669433739772 4.0707743757424506 #
point $-1 64.628386804329452 31.595669433739772 4.0707743757424506 #
point $-1 70.043377183354735 31.595669433739772 4.0707743757424506 #
straight-curve $-1 -84.200730347499601 0 -13.871008486089465 0 1 0 I I #
straight-curve $-1 -84.200730347499601 -40.947336017774347 -10.682162396277663 0 0 -1 I I #
point $-1 -84.200730347499601 -40.947336017774347 -13.871008486089465 #
End-of-ACIS-data 