500 0 6 0           
7 Unknown 11 ACIS 5.0 NT 24 Thu Mar 25 20:33:09 1999 
-1 9.9999999999999995e-007 1e-010 
body $-1 $6 $-1 $7 #
body $-1 $8 $-1 $9 #
body $-1 $10 $-1 $11 #
body $-1 $12 $-1 $13 #
body $-1 $14 $-1 $15 #
body $-1 $16 $-1 $17 #
lump $-1 $-1 $18 $0 #
transform $-1 1 0 0 0 1 0 0 0 1 73.517868587298196 45.301653634636608 14.155263249720463 1 rotate no_reflect no_shear #
lump $-1 $-1 $19 $1 #
transform $-1 1 0 0 0 1 0 0 0 1 73.517868587298196 45.301653634636608 14.155263249720463 1 rotate no_reflect no_shear #
lump $-1 $-1 $20 $2 #
transform $-1 1 0 0 0 1 0 0 0 1 73.517868587298196 45.301653634636608 14.155263249720463 1 rotate no_reflect no_shear #
lump $-1 $-1 $21 $3 #
transform $-1 1 0 0 0 1 0 0 0 1 73.517868587298196 45.301653634636608 14.155263249720463 1 rotate no_reflect no_shear #
lump $-1 $-1 $22 $4 #
transform $-1 1 0 0 0 1 0 0 0 1 73.517868587298196 45.301653634636608 14.155263249720463 1 rotate no_reflect no_shear #
lump $-1 $-1 $23 $5 #
transform $-1 1 0 0 0 1 0 0 0 1 73.517868587298196 45.301653634636608 14.155263249720463 1 rotate no_reflect no_shear #
shell $-1 $-1 $-1 $24 $-1 $6 #
shell $-1 $-1 $-1 $25 $-1 $8 #
shell $-1 $-1 $-1 $26 $-1 $10 #
shell $-1 $-1 $-1 $27 $-1 $12 #
shell $-1 $-1 $-1 $28 $-1 $14 #
shell $-1 $-1 $-1 $29 $-1 $16 #
face $-1 $30 $31 $18 $-1 $32 forward single #
face $-1 $33 $34 $19 $-1 $35 reversed single #
face $-1 $36 $37 $20 $-1 $38 reversed single #
face $-1 $39 $40 $21 $-1 $41 forward single #
face $-1 $42 $43 $22 $-1 $44 reversed single #
face $-1 $45 $46 $23 $-1 $47 forward single #
face $-1 $48 $49 $18 $-1 $50 reversed single #
loop $-1 $-1 $51 $24 #
plane-surface $-1 0 0 14.155263249720463 0 0 1 1 0 0 forward_v I I I I #
face $-1 $52 $53 $19 $-1 $54 reversed single #
loop $-1 $-1 $55 $25 #
plane-surface $-1 -68.479969486556058 0 9.2274673608822599 0 0 1 1 0 0 forward_v I I I I #
face $-1 $56 $57 $20 $-1 $58 reversed single #
loop $-1 $-1 $59 $26 #
plane-surface $-1 -41.088220426246302 -127.52299548786537 124.99242730867039 -1 0 0 0 -0.55919291073839883 0.82903756765294845 forward_v I I I I #
face $-1 $60 $61 $21 $-1 $62 forward single #
loop $-1 $63 $64 $27 #
cone-surface $-1 -52.265145406030115 -34.874258595150209 5.321472959299931 0 0.55919291073839883 -0.82903756765294845 3 0 0 1 I I 0 1 3 forward I I I I #
face $-1 $65 $66 $22 $-1 $67 reversed single #
loop $-1 $-1 $68 $28 #
plane-surface $-1 27.391749060309756 -127.52299548786537 124.99242730867039 -1 0 0 0 -0.55919291073839883 0.82903756765294845 forward_v I I I I #
face $-1 $69 $70 $23 $-1 $71 forward single #
loop $-1 $72 $73 $29 #
cone-surface $-1 16.214824080525943 -34.874258595150209 5.321472959299931 0 0.55919291073839883 -0.82903756765294845 3 0 0 1 I I 0 1 3 forward I I I I #
face $-1 $74 $75 $18 $-1 $76 reversed single #
loop $-1 $-1 $77 $30 #
plane-surface $-1 0 0 -14.155263249720463 0 0 1 1 0 0 forward_v I I I I #
coedge $-1 $78 $79 $80 $81 forward $31 $-1 #
face $-1 $82 $83 $19 $-1 $84 reversed single #
loop $-1 $-1 $85 $33 #
plane-surface $-1 -63.442070385813921 0 11.69136530530136 -1 0 0 0 0 1 forward_v I I I I #
coedge $-1 $86 $87 $88 $89 forward $34 $-1 #
face $-1 $90 $91 $20 $-1 $92 forward single #
loop $-1 $-1 $93 $36 #
plane-surface $-1 -52.265145406030115 -45.301653634636622 3.0942774033847797 0 -0.55919291073839883 0.82903756765294845 1 0 0 forward_v I I I I #
coedge $-1 $94 $95 $96 $97 reversed $37 $-1 #
face $-1 $-1 $98 $21 $-1 $99 forward single #
loop $-1 $100 $101 $39 #
cone-surface $-1 -52.265145406030115 -31.807366979034818 0.77461924056781584 0 0.55919291073839883 -0.82903756765294845 1.5 0 0 1 I I -0.70710678118654757 0.70710678118654757 1.5 forward I I I I #
loop $-1 $-1 $102 $27 #
coedge $-1 $64 $64 $103 $104 reversed $40 $-1 #
face $-1 $105 $106 $22 $-1 $107 reversed single #
loop $-1 $-1 $108 $42 #
plane-surface $-1 16.214824080525943 -45.301653634636622 3.0942774033847797 0 -0.55919291073839883 0.82903756765294845 1 0 0 forward_v I I I I #
coedge $-1 $109 $110 $111 $112 reversed $43 $-1 #
face $-1 $-1 $113 $23 $-1 $114 forward single #
loop $-1 $115 $116 $45 #
cone-surface $-1 16.214824080525943 -31.807366979034818 0.77461924056781584 0 0.55919291073839883 -0.82903756765294845 1.5 0 0 1 I I -0.70710678118654757 0.70710678118654757 1.5 forward I I I I #
loop $-1 $-1 $117 $29 #
coedge $-1 $73 $73 $118 $119 reversed $46 $-1 #
face $-1 $120 $121 $18 $-1 $122 reversed single #
loop $-1 $-1 $123 $48 #
plane-surface $-1 0 -45.301653634636608 0 0 1 0 0 0 1 forward_v I I I I #
coedge $-1 $124 $125 $126 $127 forward $49 $-1 #
coedge $-1 $128 $51 $129 $130 forward $31 $-1 #
coedge $-1 $51 $128 $131 $132 forward $31 $-1 #
coedge $-1 $133 $134 $51 $81 reversed $135 $-1 #
edge $-1 $136 -45.301653634636608 $137 45.301653634636608 $80 $138 forward 7 unknown #
face $-1 $139 $140 $19 $-1 $141 reversed single #
loop $-1 $-1 $142 $52 #
plane-surface $-1 0 45.301653634636608 0 0 -1 0 0 0 -1 forward_v I I I I #
coedge $-1 $88 $143 $144 $145 reversed $53 $-1 #
coedge $-1 $146 $55 $147 $148 reversed $34 $-1 #
coedge $-1 $55 $146 $149 $150 reversed $34 $-1 #
coedge $-1 $151 $85 $55 $89 reversed $53 $-1 #
edge $-1 $152 -45.301653634636608 $153 45.301653634636608 $88 $154 forward 7 unknown #
face $-1 $155 $156 $20 $-1 $157 forward single #
loop $-1 $-1 $158 $56 #
plane-surface $-1 -63.442070385813921 0 11.69136530530136 -1 0 0 0 0 1 forward_v I I I I #
coedge $-1 $159 $160 $161 $162 reversed $57 $-1 #
coedge $-1 $95 $59 $163 $164 reversed $37 $-1 #
coedge $-1 $59 $94 $159 $165 reversed $37 $-1 #
coedge $-1 $161 $166 $59 $97 forward $156 $-1 #
edge $-1 $167 18.459844109296078 $168 34.858429688253295 $96 $169 forward 7 unknown #
loop $-1 $-1 $103 $60 #
plane-surface $-1 -52.265145406030115 -45.301653634636622 3.0942774033847797 0 -0.55919291073839883 0.82903756765294845 1 0 0 forward_v I I I I #
loop $-1 $-1 $170 $39 #
coedge $-1 $101 $101 $102 $171 reversed $61 $-1 #
coedge $-1 $102 $102 $101 $171 forward $63 $-1 #
coedge $-1 $103 $103 $64 $104 forward $98 $-1 #
edge $-1 $172 -3.3110871717809619e-016 $172 6.2831853071796004 $103 $173 forward 7 unknown #
face $-1 $174 $175 $22 $-1 $176 reversed single #
loop $-1 $-1 $177 $65 #
plane-surface $-1 5.0378991007421323 -127.52299548786537 124.99242730867039 1 0 0 0 0.55919291073839883 -0.82903756765294845 forward_v I I I I #
coedge $-1 $178 $179 $180 $181 reversed $66 $-1 #
coedge $-1 $110 $68 $182 $183 reversed $43 $-1 #
coedge $-1 $68 $109 $178 $184 reversed $43 $-1 #
coedge $-1 $180 $185 $68 $112 forward $186 $-1 #
edge $-1 $187 18.459844109296078 $188 34.858429688253295 $111 $189 forward 7 unknown #
loop $-1 $-1 $118 $69 #
plane-surface $-1 16.214824080525943 -45.301653634636622 3.0942774033847797 0 -0.55919291073839883 0.82903756765294845 1 0 0 forward_v I I I I #
loop $-1 $-1 $190 $45 #
coedge $-1 $116 $116 $117 $191 reversed $70 $-1 #
coedge $-1 $117 $117 $116 $191 forward $72 $-1 #
coedge $-1 $118 $118 $73 $119 forward $113 $-1 #
edge $-1 $192 -3.3110871717809619e-016 $192 6.2831853071796004 $118 $193 forward 7 unknown #
face $-1 $194 $195 $18 $-1 $196 reversed single #
loop $-1 $-1 $197 $74 #
plane-surface $-1 -73.517868587298196 0 0 1 0 0 0 0 -1 forward_v I I I I #
coedge $-1 $198 $131 $199 $200 forward $75 $-1 #
coedge $-1 $201 $77 $198 $202 forward $49 $-1 #
coedge $-1 $77 $201 $203 $204 forward $49 $-1 #
coedge $-1 $134 $133 $77 $127 reversed $135 $-1 #
edge $-1 $205 -45.301653634636608 $206 45.301653634636608 $126 $207 forward 7 unknown #
coedge $-1 $79 $78 $208 $209 forward $31 $-1 #
coedge $-1 $210 $211 $78 $130 reversed $195 $-1 #
edge $-1 $137 -73.517868587298196 $212 73.517868587298196 $129 $213 forward 7 unknown #
coedge $-1 $123 $214 $79 $132 reversed $75 $-1 #
edge $-1 $215 -73.517868587298196 $136 73.517868587298196 $131 $216 forward 7 unknown #
coedge $-1 $126 $80 $214 $217 forward $135 $-1 #
coedge $-1 $80 $126 $210 $218 reversed $135 $-1 #
loop $-1 $-1 $133 $194 #
vertex $-1 $81 $219 #
vertex $-1 $81 $220 #
straight-curve $-1 73.517868587298196 0 14.155263249720463 0 1 0 I I #
face $-1 $221 $222 $19 $-1 $223 forward single #
loop $-1 $-1 $224 $82 #
plane-surface $-1 -73.517868587298196 0 0 1 0 0 0 0 -1 forward_v I I I I #
coedge $-1 $149 $225 $151 $226 forward $83 $-1 #
coedge $-1 $85 $151 $227 $228 reversed $53 $-1 #
coedge $-1 $229 $147 $85 $145 forward $230 $-1 #
edge $-1 $153 3.3817847082315797 $231 8.3095805970697807 $144 $232 forward 7 unknown #
coedge $-1 $87 $86 $224 $233 reversed $34 $-1 #
coedge $-1 $144 $234 $86 $148 forward $230 $-1 #
edge $-1 $235 -39.277883844020167 $153 -29.202085642535891 $147 $236 forward 7 unknown #
coedge $-1 $237 $142 $87 $150 forward $83 $-1 #
edge $-1 $152 29.202085642535891 $238 39.277883844020167 $149 $239 forward 7 unknown #
coedge $-1 $143 $88 $142 $226 reversed $53 $-1 #
vertex $-1 $150 $240 #
vertex $-1 $148 $241 #
straight-curve $-1 -63.442070385813921 0 9.2274673608822599 0 -1 0 I I #
face $-1 $-1 $242 $20 $-1 $243 reversed single #
loop $-1 $-1 $161 $90 #
plane-surface $-1 0 0 14.155263249720463 0 0 1 1 0 0 forward_v I I I I #
coedge $-1 $244 $245 $160 $246 reversed $91 $-1 #
coedge $-1 $247 $93 $95 $165 forward $57 $-1 #
coedge $-1 $93 $247 $158 $246 forward $57 $-1 #
coedge $-1 $248 $96 $93 $162 forward $156 $-1 #
edge $-1 $168 14.955647723231245 $249 37.309497682798863 $161 $250 forward 7 unknown #
coedge $-1 $251 $252 $94 $164 forward $242 $-1 #
edge $-1 $253 -59.401936250950406 $167 -48.34095040461473 $163 $254 forward 7 unknown #
edge $-1 $168 -19.780268372376103 $253 -1.7244626260799089e-014 $95 $255 forward 7 unknown #
coedge $-1 $96 $248 $251 $256 forward $156 $-1 #
vertex $-1 $164 $257 #
vertex $-1 $97 $258 #
straight-curve $-1 -41.088220426246302 -63.761497743932686 14.155263249720463 0 1 0 I I #
coedge $-1 $170 $170 $-1 $259 reversed $100 $-1 #
edge $-1 $260 0 $260 6.2831853071796004 $101 $261 forward 7 unknown #
vertex $-1 $104 $262 #
ellipse-curve $-1 -52.265145406030115 -37.102360845158003 8.6247703265526248 0 -0.55919291073839883 0.82903756765294845 3 0 0 1 I I #
face $-1 $-1 $186 $22 $-1 $263 forward single #
loop $-1 $-1 $264 $105 #
plane-surface $-1 0 -45.301653634636608 0 0 1 0 0 0 1 forward_v I I I I #
coedge $-1 $265 $266 $267 $268 reversed $106 $-1 #
coedge $-1 $269 $108 $110 $184 forward $66 $-1 #
coedge $-1 $108 $269 $265 $270 forward $66 $-1 #
coedge $-1 $267 $111 $108 $181 forward $186 $-1 #
edge $-1 $188 -19.284337020046785 $271 3.0695129395208394 $180 $272 forward 7 unknown #
coedge $-1 $273 $274 $109 $183 forward $175 $-1 #
edge $-1 $275 -59.401936250950406 $187 -48.34095040461473 $182 $276 forward 7 unknown #
edge $-1 $188 -19.780268372376103 $275 -1.7244626260799089e-014 $110 $277 forward 7 unknown #
coedge $-1 $111 $267 $273 $278 forward $186 $-1 #
loop $-1 $-1 $267 $174 #
vertex $-1 $183 $279 #
vertex $-1 $112 $280 #
straight-curve $-1 27.391749060309756 -63.761497743932686 14.155263249720463 0 1 0 I I #
coedge $-1 $190 $190 $-1 $281 reversed $115 $-1 #
edge $-1 $282 0 $282 6.2831853071796004 $116 $283 forward 7 unknown #
vertex $-1 $119 $284 #
ellipse-curve $-1 16.214824080525943 -37.102360845158003 8.6247703265526248 0 -0.55919291073839883 0.82903756765294845 3 0 0 1 I I #
face $-1 $-1 $135 $18 $-1 $285 reversed single #
loop $-1 $-1 $210 $120 #
plane-surface $-1 0 45.301653634636608 0 0 -1 0 0 0 -1 forward_v I I I I #
coedge $-1 $286 $208 $211 $287 forward $121 $-1 #
coedge $-1 $214 $123 $124 $202 reversed $75 $-1 #
coedge $-1 $208 $286 $123 $200 reversed $121 $-1 #
edge $-1 $215 -14.155263249720463 $288 14.155263249720463 $199 $289 forward 7 unknown #
coedge $-1 $125 $124 $286 $290 forward $49 $-1 #
edge $-1 $206 -73.517868587298196 $288 73.517868587298196 $198 $291 forward 7 unknown #
coedge $-1 $211 $210 $125 $204 reversed $195 $-1 #
edge $-1 $292 -73.517868587298196 $205 73.517868587298196 $203 $293 forward 7 unknown #
vertex $-1 $127 $294 #
vertex $-1 $217 $295 #
straight-curve $-1 73.517868587298196 0 -14.155263249720463 0 -1 0 I I #
coedge $-1 $197 $199 $128 $209 reversed $121 $-1 #
edge $-1 $212 -45.301653634636608 $215 45.301653634636608 $208 $296 forward 7 unknown #
coedge $-1 $203 $129 $134 $218 forward $195 $-1 #
coedge $-1 $129 $203 $197 $287 reversed $195 $-1 #
vertex $-1 $130 $297 #
straight-curve $-1 0 45.301653634636608 14.155263249720463 -1 0 0 I I #
coedge $-1 $131 $198 $133 $217 reversed $75 $-1 #
vertex $-1 $209 $298 #
straight-curve $-1 0 -45.301653634636608 14.155263249720463 1 0 0 I I #
edge $-1 $136 -14.155263249720463 $206 14.155263249720463 $133 $299 forward 7 unknown #
edge $-1 $137 -14.155263249720463 $205 14.155263249720463 $134 $300 forward 7 unknown #
point $-1 73.517868587298196 -45.301653634636608 14.155263249720463 #
point $-1 73.517868587298196 45.301653634636608 14.155263249720463 #
face $-1 $-1 $230 $19 $-1 $301 reversed single #
loop $-1 $-1 $227 $139 #
plane-surface $-1 0 0 14.155263249720463 0 0 1 1 0 0 forward_v I I I I #
coedge $-1 $302 $303 $146 $233 forward $140 $-1 #
coedge $-1 $142 $237 $304 $305 reversed $83 $-1 #
edge $-1 $306 -8.3095805970697807 $152 -3.3817847082315797 $142 $307 forward 7 unknown #
coedge $-1 $304 $308 $143 $228 forward $222 $-1 #
edge $-1 $231 -45.301653634636608 $306 45.301653634636608 $227 $309 forward 7 unknown #
coedge $-1 $234 $144 $308 $310 reversed $230 $-1 #
loop $-1 $-1 $144 $221 #
vertex $-1 $145 $311 #
straight-curve $-1 -63.442070385813921 -45.301653634636608 5.8456826526506802 0 0 1 I I #
edge $-1 $238 -45.301653634636608 $235 45.301653634636608 $224 $312 forward 7 unknown #
coedge $-1 $147 $229 $302 $313 forward $230 $-1 #
vertex $-1 $233 $314 #
straight-curve $-1 -34.239984743278029 -45.301653634636608 9.2274673608822599 1 0 0 I I #
coedge $-1 $225 $149 $303 $315 reversed $83 $-1 #
vertex $-1 $233 $316 #
straight-curve $-1 -34.239984743278029 45.301653634636608 9.2274673608822599 -1 0 0 I I #
point $-1 -63.442070385813921 45.301653634636608 9.2274673608822599 #
point $-1 -63.442070385813921 -45.301653634636608 9.2274673608822599 #
loop $-1 $-1 $163 $155 #
plane-surface $-1 0 -45.301653634636608 0 0 1 0 0 0 1 forward_v I I I I #
coedge $-1 $245 $158 $317 $318 reversed $91 $-1 #
coedge $-1 $158 $244 $248 $319 reversed $91 $-1 #
edge $-1 $320 1.7244626260799089e-014 $249 19.780268372376099 $158 $321 forward 7 unknown #
coedge $-1 $160 $159 $252 $322 reversed $57 $-1 #
coedge $-1 $166 $161 $245 $319 forward $156 $-1 #
vertex $-1 $319 $323 #
straight-curve $-1 -26.132572703015057 -28.903068055679391 14.155263249720463 -1 0 0 I I #
coedge $-1 $317 $163 $166 $256 reversed $242 $-1 #
coedge $-1 $163 $317 $247 $322 forward $242 $-1 #
vertex $-1 $164 $324 #
straight-curve $-1 -41.088220426246302 -45.301653634636608 62.496213654335193 0 0 1 I I #
straight-curve $-1 -41.088220426246302 -45.301653634636622 3.0942774033847797 0 -0.82903756765294845 -0.55919291073839883 I I #
edge $-1 $325 -63.442070385813921 $167 -41.088220426246302 $251 $326 forward 7 unknown #
point $-1 -41.088220426246302 -45.301653634636608 14.155263249720463 #
point $-1 -41.088220426246302 -28.903068055679391 14.155263249720463 #
edge $-1 $327 1 $327 0 $170 $-1 forward 7 unknown #
vertex $-1 $171 $328 #
ellipse-curve $-1 -52.265145406030115 -32.646156345142415 2.0181755920472386 0 -0.55919291073839883 0.82903756765294845 3 0 0 1 I I #
point $-1 -49.265145406030115 -37.102360845158003 8.624770326552623 #
plane-surface $-1 0 0 14.155263249720463 0 0 1 1 0 0 forward_v I I I I #
coedge $-1 $274 $273 $266 $329 forward $175 $-1 #
coedge $-1 $266 $177 $179 $270 reversed $106 $-1 #
coedge $-1 $177 $265 $264 $329 reversed $106 $-1 #
coedge $-1 $185 $180 $177 $268 forward $186 $-1 #
edge $-1 $271 -34.858429688253295 $330 -18.459844109296078 $267 $331 forward 7 unknown #
coedge $-1 $179 $178 $274 $332 reversed $66 $-1 #
edge $-1 $333 1.7244626260799089e-014 $271 19.780268372376103 $265 $334 forward 7 unknown #
vertex $-1 $181 $335 #
straight-curve $-1 8.1074120402629717 -28.903068055679391 14.155263249720463 -1 0 0 I I #
coedge $-1 $264 $182 $185 $278 reversed $175 $-1 #
coedge $-1 $182 $264 $269 $332 forward $175 $-1 #
vertex $-1 $183 $336 #
straight-curve $-1 27.391749060309756 -45.301653634636608 62.496213654335193 0 0 1 I I #
straight-curve $-1 27.391749060309756 -45.301653634636622 3.0942774033847797 0 -0.82903756765294845 -0.55919291073839883 I I #
edge $-1 $330 5.0378991007421323 $187 27.391749060309756 $273 $337 forward 7 unknown #
point $-1 27.391749060309756 -45.301653634636608 14.155263249720463 #
point $-1 27.391749060309756 -28.903068055679391 14.155263249720463 #
edge $-1 $338 1 $338 0 $190 $-1 forward 7 unknown #
vertex $-1 $191 $339 #
ellipse-curve $-1 16.214824080525943 -32.646156345142415 2.0181755920472386 0 -0.55919291073839883 0.82903756765294845 3 0 0 1 I I #
point $-1 19.214824080525943 -37.102360845158003 8.624770326552623 #
plane-surface $-1 73.517868587298196 0 0 -1 0 0 0 0 1 forward_v I I I I #
coedge $-1 $199 $197 $201 $290 reversed $121 $-1 #
edge $-1 $212 -14.155263249720463 $292 14.155263249720463 $211 $340 forward 7 unknown #
vertex $-1 $290 $341 #
straight-curve $-1 -73.517868587298196 -45.301653634636608 0 0 0 -1 I I #
edge $-1 $288 -45.301653634636608 $292 45.301653634636608 $286 $342 forward 7 unknown #
straight-curve $-1 0 -45.301653634636608 -14.155263249720463 -1 0 0 I I #
vertex $-1 $204 $343 #
straight-curve $-1 0 45.301653634636608 -14.155263249720463 1 0 0 I I #
point $-1 73.517868587298196 45.301653634636608 -14.155263249720463 #
point $-1 73.517868587298196 -45.301653634636608 -14.155263249720463 #
straight-curve $-1 -73.517868587298196 0 14.155263249720463 0 -1 0 I I #
point $-1 -73.517868587298196 45.301653634636608 14.155263249720463 #
point $-1 -73.517868587298196 -45.301653634636608 14.155263249720463 #
straight-curve $-1 73.517868587298196 -45.301653634636608 0 0 0 -1 I I #
straight-curve $-1 73.517868587298196 45.301653634636608 0 0 0 -1 I I #
plane-surface $-1 0 -45.301653634636608 0 0 1 0 0 0 1 forward_v I I I I #
coedge $-1 $344 $224 $234 $313 reversed $140 $-1 #
coedge $-1 $224 $344 $237 $315 forward $140 $-1 #
coedge $-1 $345 $227 $225 $305 forward $222 $-1 #
edge $-1 $306 63.442070385813921 $346 73.517868587298196 $225 $347 forward 7 unknown #
vertex $-1 $305 $348 #
straight-curve $-1 -63.442070385813921 45.301653634636608 5.8456826526506802 0 0 -1 I I #
coedge $-1 $227 $345 $229 $310 forward $222 $-1 #
straight-curve $-1 -63.442070385813921 0 14.155263249720463 0 1 0 I I #
edge $-1 $349 -73.517868587298196 $231 -63.442070385813921 $229 $350 forward 7 unknown #
point $-1 -63.442070385813921 -45.301653634636608 14.155263249720461 #
straight-curve $-1 -73.517868587298196 0 9.2274673608822599 0 -1 0 I I #
edge $-1 $349 -14.155263249720463 $235 -9.2274673608822599 $302 $351 forward 7 unknown #
point $-1 -73.517868587298196 -45.301653634636608 9.2274673608822599 #
edge $-1 $346 -14.155263249720463 $238 -9.2274673608822599 $237 $352 forward 7 unknown #
point $-1 -73.517868587298196 45.301653634636608 9.2274673608822599 #
coedge $-1 $252 $251 $244 $318 forward $242 $-1 #
edge $-1 $325 48.34095040461473 $320 59.401936250950406 $317 $353 forward 7 unknown #
edge $-1 $249 28.903068055679395 $325 45.301653634636608 $248 $354 forward 7 unknown #
vertex $-1 $318 $355 #
straight-curve $-1 -63.442070385813928 -45.301653634636622 3.0942774033847797 0 0.82903756765294845 0.55919291073839883 I I #
edge $-1 $320 -37.30949768279887 $253 -14.955647723231245 $252 $356 forward 7 unknown #
point $-1 -63.442070385813921 -28.903068055679395 14.155263249720463 #
point $-1 -41.088220426246302 -45.301653634636608 3.0942774033847895 #
vertex $-1 $256 $357 #
straight-curve $-1 0 -45.301653634636608 14.155263249720463 1 0 0 I I #
vertex $-1 $259 $358 #
point $-1 -49.265145406030115 -32.646156345142415 2.0181755920472386 #
edge $-1 $330 48.34095040461473 $333 59.401936250950406 $264 $359 forward 7 unknown #
vertex $-1 $278 $360 #
straight-curve $-1 5.0378991007421323 -63.761497743932686 14.155263249720463 0 -1 0 I I #
edge $-1 $333 -3.0695129395208394 $275 19.284337020046785 $274 $361 forward 7 unknown #
vertex $-1 $332 $362 #
straight-curve $-1 5.0378991007421323 -45.301653634636622 3.0942774033847797 0 0.82903756765294845 0.55919291073839883 I I #
point $-1 5.0378991007421323 -28.903068055679391 14.155263249720463 #
point $-1 27.391749060309756 -45.301653634636608 3.0942774033847895 #
straight-curve $-1 0 -45.301653634636608 14.155263249720463 1 0 0 I I #
vertex $-1 $281 $363 #
point $-1 19.214824080525943 -32.646156345142415 2.0181755920472386 #
straight-curve $-1 -73.517868587298196 45.301653634636608 0 0 0 -1 I I #
point $-1 -73.517868587298196 -45.301653634636608 -14.155263249720463 #
straight-curve $-1 -73.517868587298196 0 -14.155263249720463 0 1 0 I I #
point $-1 -73.517868587298196 45.301653634636608 -14.155263249720463 #
coedge $-1 $303 $302 $345 $364 reversed $140 $-1 #
coedge $-1 $308 $304 $344 $364 forward $222 $-1 #
vertex $-1 $305 $365 #
straight-curve $-1 0 45.301653634636608 14.155263249720463 -1 0 0 I I #
point $-1 -63.442070385813921 45.301653634636608 14.155263249720461 #
vertex $-1 $364 $366 #
straight-curve $-1 0 -45.301653634636608 14.155263249720463 1 0 0 I I #
straight-curve $-1 -73.517868587298196 -45.301653634636608 0 0 0 -1 I I #
straight-curve $-1 -73.517868587298196 45.301653634636608 0 0 0 -1 I I #
straight-curve $-1 -63.442070385813928 -45.301653634636608 62.496213654335193 0 0 -1 I I #
straight-curve $-1 -63.442070385813921 0 14.155263249720463 0 -1 0 I I #
point $-1 -63.442070385813928 -45.301653634636608 3.0942774033847895 #
straight-curve $-1 -26.132572703015057 -45.301653634636608 3.0942774033847895 1 0 0 I I #
point $-1 -63.442070385813921 -45.301653634636608 14.155263249720461 #
point $-1 -52.265145406030115 -30.96857761292722 -0.46893711091160695 #
straight-curve $-1 5.0378991007421323 -45.301653634636608 62.496213654335193 0 0 -1 I I #
point $-1 5.0378991007421323 -45.301653634636608 14.155263249720463 #
straight-curve $-1 8.1074120402629717 -45.301653634636608 3.0942774033847895 1 0 0 I I #
point $-1 5.0378991007421323 -45.301653634636608 3.0942774033847895 #
point $-1 16.214824080525943 -30.96857761292722 -0.46893711091160695 #
edge $-1 $346 -45.301653634636608 $349 45.301653634636608 $344 $367 forward 7 unknown #
point $-1 -73.517868587298196 45.301653634636608 14.155263249720463 #
point $-1 -73.517868587298196 -45.301653634636608 14.155263249720463 #
straight-curve $-1 -73.517868587298196 0 14.155263249720463 0 -1 0 I I #
End-of-ACIS-data 