500 0 8 0           
7 Unknown 11 ACIS 5.0 NT 24 Fri Mar 26 16:34:58 1999 
-1 9.9999999999999995e-007 1e-010 
body $-1 $8 $-1 $9 #
body $-1 $10 $-1 $11 #
body $-1 $12 $-1 $13 #
body $-1 $14 $-1 $15 #
body $-1 $16 $-1 $17 #
body $-1 $18 $-1 $19 #
body $-1 $20 $-1 $21 #
body $-1 $22 $-1 $23 #
lump $-1 $-1 $24 $0 #
transform $-1 1 0 0 0 1 0 0 0 1 44.652241584521015 29.6638221392258 10.091873643581454 1 rotate no_reflect no_shear #
lump $-1 $-1 $25 $1 #
transform $-1 1 0 0 0 1 0 0 0 1 44.652241584521015 29.6638221392258 10.091873643581454 1 rotate no_reflect no_shear #
lump $-1 $-1 $26 $2 #
transform $-1 1 0 0 0 1 0 0 0 1 44.652241584521015 29.6638221392258 10.091873643581454 1 rotate no_reflect no_shear #
lump $-1 $-1 $27 $3 #
transform $-1 1 0 0 0 1 0 0 0 1 44.652241584521015 29.6638221392258 10.091873643581454 1 rotate no_reflect no_shear #
lump $-1 $-1 $28 $4 #
transform $-1 1 0 0 0 1 0 0 0 1 44.652241584521015 29.6638221392258 10.091873643581454 1 rotate no_reflect no_shear #
lump $-1 $-1 $29 $5 #
transform $-1 1 0 0 0 1 0 0 0 1 44.652241584521015 29.6638221392258 10.091873643581454 1 rotate no_reflect no_shear #
lump $-1 $-1 $30 $6 #
transform $-1 1 0 0 0 1 0 0 0 1 44.652241584521015 29.6638221392258 10.091873643581454 1 rotate no_reflect no_shear #
lump $-1 $-1 $31 $7 #
transform $-1 1 0 0 0 1 0 0 0 1 44.652241584521015 29.6638221392258 10.091873643581454 1 rotate no_reflect no_shear #
shell $-1 $-1 $-1 $32 $-1 $8 #
shell $-1 $-1 $-1 $33 $-1 $10 #
shell $-1 $-1 $-1 $34 $-1 $12 #
shell $-1 $-1 $-1 $35 $-1 $14 #
shell $-1 $-1 $-1 $36 $-1 $16 #
shell $-1 $-1 $-1 $37 $-1 $18 #
shell $-1 $-1 $-1 $38 $-1 $20 #
shell $-1 $-1 $-1 $39 $-1 $22 #
face $-1 $40 $41 $24 $-1 $42 reversed single #
face $-1 $43 $44 $25 $-1 $45 forward single #
face $-1 $46 $47 $26 $-1 $48 forward single #
face $-1 $49 $50 $27 $-1 $51 reversed single #
face $-1 $52 $53 $28 $-1 $54 forward single #
face $-1 $55 $56 $29 $-1 $57 forward single #
face $-1 $58 $59 $30 $-1 $60 reversed single #
face $-1 $61 $62 $31 $-1 $63 forward single #
face $-1 $64 $65 $24 $-1 $66 forward single #
loop $-1 $-1 $67 $32 #
plane-surface $-1 44.652241584521015 0 0 -1 0 0 0 0 1 forward_v I I I I #
face $-1 $68 $69 $25 $-1 $70 reversed single #
loop $-1 $-1 $71 $33 #
plane-surface $-1 -44.652241584521015 0 0 1 0 0 0 0 -1 forward_v I I I I #
face $-1 $72 $73 $26 $-1 $74 reversed single #
loop $-1 $-1 $75 $34 #
plane-surface $-1 44.652241584521015 0 0 -1 0 0 0 0 1 forward_v I I I I #
face $-1 $76 $77 $27 $-1 $78 reversed single #
loop $-1 $-1 $79 $35 #
plane-surface $-1 3.2415228749728904 -87.067638115296788 75.150722532456498 -1 0 0 0 -0.64278761758704617 0.76604443648966558 forward_v I I I I #
face $-1 $80 $81 $28 $-1 $82 forward single #
loop $-1 $83 $84 $36 #
cone-surface $-1 -11.612139876882885 -26.534051730767658 7.0664164221190653 0 0.64278761758704617 -0.76604443648966558 1 0 0 1 I I 0 1 1 forward I I I I #
face $-1 $85 $86 $29 $-1 $87 forward single #
loop $-1 $88 $89 $37 #
cone-surface $-1 -2.6999422257694263 -26.534051730767658 7.0664164221190653 0 0.64278761758704617 -0.76604443648966558 1 0 0 1 I I 0 1 1 forward I I I I #
face $-1 $90 $91 $30 $-1 $92 reversed single #
loop $-1 $-1 $93 $38 #
plane-surface $-1 7.7362877028421266 47.179842128060201 109.14114198606804 1 0 0 0 -0.68199836817093118 -0.7313536940579346 forward_v I I I I #
face $-1 $94 $95 $31 $-1 $96 forward single #
loop $-1 $97 $98 $39 #
cone-surface $-1 16.630245439054875 25.497681249950077 6.1285430908396679 0 -0.68199836817093118 -0.7313536940579346 1 0 0 1 I I 0 1 1 forward I I I I #
face $-1 $99 $100 $24 $-1 $101 reversed single #
loop $-1 $-1 $102 $40 #
plane-surface $-1 0 0 10.091873643581454 0 0 1 1 0 0 forward_v I I I I #
coedge $-1 $103 $104 $105 $106 reversed $41 $-1 #
face $-1 $107 $108 $25 $-1 $109 forward single #
loop $-1 $-1 $110 $43 #
plane-surface $-1 0 29.6638221392258 0 0 -1 0 0 0 -1 forward_v I I I I #
coedge $-1 $111 $112 $113 $114 forward $44 $-1 #
face $-1 $115 $116 $26 $-1 $117 forward single #
loop $-1 $-1 $118 $46 #
plane-surface $-1 0 -29.6638221392258 0 0 1 0 0 0 1 forward_v I I I I #
coedge $-1 $119 $120 $121 $122 forward $47 $-1 #
face $-1 $123 $124 $27 $-1 $125 reversed single #
loop $-1 $-1 $126 $49 #
plane-surface $-1 -7.1560410513261488 -29.663822139225807 6.7395200472268897 0 -0.64278761758704617 0.76604443648966558 1 0 0 forward_v I I I I #
coedge $-1 $127 $128 $129 $130 reversed $50 $-1 #
face $-1 $-1 $131 $28 $-1 $132 forward single #
loop $-1 $133 $134 $52 #
cone-surface $-1 -11.612139876882885 -25.080477192727407 5.334113780589135 0 0.64278761758704617 -0.76604443648966558 0.5 0 0 1 I I -0.70710678118654746 0.70710678118654746 0.5 forward I I I I #
loop $-1 $-1 $135 $36 #
coedge $-1 $84 $84 $136 $137 reversed $53 $-1 #
face $-1 $-1 $138 $29 $-1 $139 forward single #
loop $-1 $140 $141 $55 #
cone-surface $-1 -2.6999422257694263 -25.080477192727407 5.334113780589135 0 0.64278761758704617 -0.76604443648966558 0.5 0 0 1 I I -0.70710678118654746 0.70710678118654746 0.5 forward I I I I #
loop $-1 $-1 $142 $37 #
coedge $-1 $89 $89 $143 $144 reversed $56 $-1 #
face $-1 $145 $146 $30 $-1 $147 reversed single #
loop $-1 $-1 $148 $58 #
plane-surface $-1 16.630245439054875 -13.725669663574848 43.827978324454506 0 0.68199836817093118 0.7313536940579346 1 0 0 forward_v I I I I #
coedge $-1 $149 $150 $151 $152 reversed $59 $-1 #
face $-1 $-1 $153 $31 $-1 $154 forward single #
loop $-1 $155 $156 $61 #
cone-surface $-1 16.630245439054875 24.596515951122086 5.1621616432971287 0 -0.68199836817093118 -0.7313536940579346 0.5 0 0 1 I I -0.70710678118654746 0.70710678118654746 0.5 forward I I I I #
loop $-1 $-1 $157 $39 #
coedge $-1 $98 $98 $158 $159 reversed $62 $-1 #
face $-1 $160 $161 $24 $-1 $162 reversed single #
loop $-1 $-1 $163 $64 #
plane-surface $-1 0 0 -10.091873643581454 0 0 1 1 0 0 forward_v I I I I #
coedge $-1 $164 $165 $103 $166 forward $65 $-1 #
coedge $-1 $167 $67 $102 $166 reversed $41 $-1 #
coedge $-1 $67 $167 $163 $168 reversed $41 $-1 #
coedge $-1 $169 $170 $67 $106 forward $171 $-1 #
edge $-1 $172 -10.091873643581454 $173 10.091873643581454 $67 $174 forward 7 unknown #
face $-1 $175 $176 $25 $-1 $177 reversed single #
loop $-1 $-1 $113 $68 #
plane-surface $-1 -48.709056521487256 0 -1.6231973317270025 0 0 1 1 0 0 forward_v I I I I #
coedge $-1 $178 $179 $112 $180 forward $69 $-1 #
coedge $-1 $181 $71 $182 $183 reversed $44 $-1 #
coedge $-1 $71 $181 $110 $180 reversed $44 $-1 #
coedge $-1 $184 $185 $71 $114 reversed $108 $-1 #
edge $-1 $186 -29.6638221392258 $187 29.6638221392258 $113 $188 forward 7 unknown #
face $-1 $189 $190 $26 $-1 $191 reversed single #
loop $-1 $-1 $192 $72 #
plane-surface $-1 48.709056521487248 0 -1.6231973317270025 0 0 1 1 0 0 forward_v I I I I #
coedge $-1 $193 $194 $120 $195 forward $73 $-1 #
coedge $-1 $196 $75 $197 $198 reversed $47 $-1 #
coedge $-1 $75 $196 $118 $195 reversed $47 $-1 #
coedge $-1 $199 $200 $75 $122 reversed $116 $-1 #
edge $-1 $201 -29.6638221392258 $202 29.6638221392258 $121 $203 forward 7 unknown #
face $-1 $204 $205 $27 $-1 $206 forward single #
loop $-1 $-1 $207 $76 #
plane-surface $-1 -17.553604977625188 -87.067638115296788 75.150722532456498 1 0 0 0 0.64278761758704617 -0.76604443648966558 forward_v I I I I #
coedge $-1 $208 $209 $210 $211 reversed $77 $-1 #
coedge $-1 $128 $79 $212 $213 reversed $50 $-1 #
coedge $-1 $79 $127 $208 $214 reversed $50 $-1 #
coedge $-1 $210 $215 $79 $130 forward $205 $-1 #
edge $-1 $216 13.869996918422594 $217 17.865176276845389 $129 $218 forward 7 unknown #
loop $-1 $-1 $136 $80 #
plane-surface $-1 -7.1560410513261488 -29.663822139225807 6.7395200472268897 0 -0.64278761758704617 0.76604443648966558 1 0 0 forward_v I I I I #
loop $-1 $-1 $219 $52 #
coedge $-1 $134 $134 $135 $220 reversed $81 $-1 #
coedge $-1 $135 $135 $134 $220 forward $83 $-1 #
coedge $-1 $136 $136 $84 $137 forward $131 $-1 #
edge $-1 $221 -9.6995180200276794e-016 $221 6.2831853071795996 $136 $222 forward 7 unknown #
loop $-1 $-1 $143 $85 #
plane-surface $-1 -7.1560410513261488 -29.663822139225807 6.7395200472268897 0 -0.64278761758704617 0.76604443648966558 1 0 0 forward_v I I I I #
loop $-1 $-1 $223 $55 #
coedge $-1 $141 $141 $142 $224 reversed $86 $-1 #
coedge $-1 $142 $142 $141 $224 forward $88 $-1 #
coedge $-1 $143 $143 $89 $144 forward $138 $-1 #
edge $-1 $225 -9.6995180200276794e-016 $225 6.2831853071795996 $143 $226 forward 7 unknown #
face $-1 $227 $228 $30 $-1 $229 reversed single #
loop $-1 $-1 $230 $90 #
plane-surface $-1 25.524203175267623 47.179842128060201 109.14114198606804 -1 0 0 0 0.68199836817093118 0.7313536940579346 forward_v I I I I #
coedge $-1 $231 $232 $233 $234 reversed $91 $-1 #
coedge $-1 $150 $93 $235 $236 reversed $59 $-1 #
coedge $-1 $93 $149 $231 $237 reversed $59 $-1 #
coedge $-1 $233 $238 $93 $152 forward $239 $-1 #
edge $-1 $240 -6.0739010751956997 $241 1.1380484738706755 $151 $242 forward 7 unknown #
loop $-1 $-1 $158 $94 #
plane-surface $-1 16.630245439054875 -13.725669663574848 43.827978324454506 0 0.68199836817093118 0.7313536940579346 1 0 0 forward_v I I I I #
loop $-1 $-1 $243 $61 #
coedge $-1 $156 $156 $157 $244 reversed $95 $-1 #
coedge $-1 $157 $157 $156 $244 forward $97 $-1 #
coedge $-1 $158 $158 $98 $159 forward $153 $-1 #
edge $-1 $245 8.6078178295941704e-016 $245 6.2831853071796013 $158 $246 forward 7 unknown #
face $-1 $247 $248 $24 $-1 $249 reversed single #
loop $-1 $-1 $250 $99 #
plane-surface $-1 0 -29.6638221392258 0 0 1 0 0 0 1 forward_v I I I I #
coedge $-1 $251 $252 $104 $168 forward $100 $-1 #
coedge $-1 $253 $102 $170 $254 forward $65 $-1 #
coedge $-1 $102 $253 $255 $256 forward $65 $-1 #
edge $-1 $257 -29.6638221392258 $172 29.6638221392258 $103 $258 forward 7 unknown #
coedge $-1 $104 $103 $259 $260 forward $41 $-1 #
edge $-1 $173 -29.6638221392258 $261 29.6638221392258 $104 $262 forward 7 unknown #
coedge $-1 $263 $105 $252 $264 reversed $171 $-1 #
coedge $-1 $105 $263 $164 $254 reversed $171 $-1 #
loop $-1 $-1 $105 $247 #
vertex $-1 $166 $265 #
vertex $-1 $168 $266 #
straight-curve $-1 44.652241584521015 29.6638221392258 0 0 0 -1 I I #
face $-1 $267 $268 $25 $-1 $269 reversed single #
loop $-1 $-1 $270 $107 #
plane-surface $-1 -48.709056521487256 0 -4.6231973317270025 0 0 1 1 0 0 forward_v I I I I #
coedge $-1 $271 $110 $272 $273 reversed $69 $-1 #
coedge $-1 $110 $271 $184 $274 reversed $69 $-1 #
edge $-1 $186 1.6231973317270025 $275 4.6231973317270025 $110 $276 forward 7 unknown #
coedge $-1 $112 $111 $270 $277 forward $44 $-1 #
coedge $-1 $278 $279 $111 $183 forward $280 $-1 #
edge $-1 $281 -4.6231973317270025 $187 -1.6231973317270025 $182 $282 forward 7 unknown #
coedge $-1 $283 $113 $179 $274 forward $108 $-1 #
coedge $-1 $113 $283 $278 $284 forward $108 $-1 #
vertex $-1 $180 $285 #
vertex $-1 $284 $286 #
straight-curve $-1 -44.652241584521015 0 -1.6231973317270025 0 -1 0 I I #
face $-1 $287 $288 $26 $-1 $289 reversed single #
loop $-1 $-1 $290 $115 #
plane-surface $-1 48.709056521487248 0 -4.6231973317270025 0 0 1 1 0 0 forward_v I I I I #
coedge $-1 $200 $199 $291 $292 forward $116 $-1 #
coedge $-1 $293 $118 $294 $295 reversed $73 $-1 #
coedge $-1 $118 $293 $199 $296 reversed $73 $-1 #
edge $-1 $201 1.6231973317270025 $297 4.6231973317270025 $118 $298 forward 7 unknown #
coedge $-1 $120 $119 $299 $300 forward $47 $-1 #
coedge $-1 $301 $302 $119 $198 forward $303 $-1 #
edge $-1 $304 -4.6231973317270025 $202 -1.6231973317270025 $197 $305 forward 7 unknown #
coedge $-1 $192 $121 $194 $296 forward $116 $-1 #
coedge $-1 $121 $192 $301 $306 forward $116 $-1 #
vertex $-1 $195 $307 #
vertex $-1 $306 $308 #
straight-curve $-1 44.652241584521015 0 -1.6231973317270025 0 1 0 I I #
face $-1 $-1 $309 $27 $-1 $310 reversed single #
loop $-1 $-1 $129 $123 #
plane-surface $-1 0 0 10.091873643581454 0 0 1 1 0 0 forward_v I I I I #
coedge $-1 $311 $312 $313 $314 reversed $124 $-1 #
coedge $-1 $315 $126 $128 $214 forward $77 $-1 #
coedge $-1 $126 $315 $311 $316 forward $77 $-1 #
coedge $-1 $313 $129 $126 $211 forward $205 $-1 #
edge $-1 $217 -6.8195434006359648 $317 13.975584451962114 $210 $318 forward 7 unknown #
coedge $-1 $319 $320 $127 $213 forward $309 $-1 #
edge $-1 $321 -30.835841219001352 $216 -27.483487622646795 $212 $322 forward 7 unknown #
edge $-1 $217 -5.2153363018082564 $321 -9.439443728910611e-015 $128 $323 forward 7 unknown #
coedge $-1 $129 $313 $319 $324 forward $205 $-1 #
vertex $-1 $213 $325 #
vertex $-1 $130 $326 #
straight-curve $-1 3.2415228749728904 -43.533819057648394 10.091873643581451 0 1 0 I I #
coedge $-1 $219 $219 $-1 $327 reversed $133 $-1 #
edge $-1 $328 0 $328 6.2831853071796004 $134 $329 forward 7 unknown #
vertex $-1 $137 $330 #
ellipse-curve $-1 -11.612139876882885 -27.666232460014399 8.4156968454041774 0 -0.64278761758704617 0.76604443648966558 1 0 0 1 I I #
coedge $-1 $223 $223 $-1 $331 reversed $140 $-1 #
edge $-1 $332 0 $332 6.2831853071796004 $141 $333 forward 7 unknown #
vertex $-1 $144 $334 #
ellipse-curve $-1 -2.6999422257694263 -27.666232460014399 8.4156968454041774 0 -0.64278761758704617 0.76604443648966558 1 0 0 1 I I #
face $-1 $-1 $239 $30 $-1 $335 forward single #
loop $-1 $-1 $336 $145 #
plane-surface $-1 0 29.6638221392258 0 0 -1 0 0 0 -1 forward_v I I I I #
coedge $-1 $337 $338 $339 $340 reversed $146 $-1 #
coedge $-1 $341 $148 $150 $237 forward $91 $-1 #
coedge $-1 $148 $341 $337 $342 forward $91 $-1 #
coedge $-1 $339 $151 $148 $234 forward $239 $-1 #
edge $-1 $241 -0.57883501668531068 $343 17.209080455740185 $233 $344 forward 7 unknown #
coedge $-1 $345 $346 $149 $236 forward $228 $-1 #
edge $-1 $347 -51.203949253908974 $240 -44.47869734945256 $235 $348 forward 7 unknown #
edge $-1 $241 49.466547510004716 $347 59.327644278451579 $150 $349 forward 7 unknown #
coedge $-1 $151 $339 $345 $350 forward $239 $-1 #
loop $-1 $-1 $339 $227 #
vertex $-1 $236 $351 #
vertex $-1 $152 $352 #
straight-curve $-1 7.7362877028421266 23.589921064030101 10.091873643581451 0 -1 0 I I #
coedge $-1 $243 $243 $-1 $353 reversed $155 $-1 #
edge $-1 $354 0 $354 6.2831853071796004 $156 $355 forward 7 unknown #
vertex $-1 $159 $356 #
ellipse-curve $-1 16.630245439054875 26.057847364692613 6.7292476913532493 0 0.68199836817093118 0.7313536940579346 1 0 0 1 I I #
face $-1 $-1 $171 $24 $-1 $357 reversed single #
loop $-1 $-1 $358 $160 #
plane-surface $-1 -44.652241584521015 0 0 1 0 0 0 0 -1 forward_v I I I I #
coedge $-1 $359 $255 $358 $360 forward $161 $-1 #
coedge $-1 $361 $163 $359 $362 forward $100 $-1 #
coedge $-1 $163 $361 $169 $264 forward $100 $-1 #
coedge $-1 $165 $164 $363 $364 forward $65 $-1 #
edge $-1 $172 -44.652241584521015 $365 44.652241584521015 $170 $366 forward 7 unknown #
coedge $-1 $250 $259 $165 $256 reversed $161 $-1 #
edge $-1 $367 -44.652241584521015 $257 44.652241584521015 $255 $368 forward 7 unknown #
vertex $-1 $166 $369 #
straight-curve $-1 44.652241584521015 0 10.091873643581454 0 1 0 I I #
coedge $-1 $255 $359 $167 $260 reversed $161 $-1 #
edge $-1 $257 -10.091873643581454 $261 10.091873643581454 $167 $370 forward 7 unknown #
vertex $-1 $260 $371 #
straight-curve $-1 44.652241584521015 0 -10.091873643581454 0 -1 0 I I #
coedge $-1 $170 $169 $372 $373 reversed $171 $-1 #
edge $-1 $374 -44.652241584521015 $173 44.652241584521015 $169 $375 forward 7 unknown #
point $-1 44.652241584521015 29.6638221392258 10.091873643581454 #
point $-1 44.652241584521015 29.6638221392258 -10.091873643581454 #
face $-1 $-1 $280 $25 $-1 $376 reversed single #
loop $-1 $-1 $377 $175 #
plane-surface $-1 -52.765871458453496 0 -3.1231973317270025 1 0 0 0 0 -1 forward_v I I I I #
coedge $-1 $378 $272 $181 $277 reversed $176 $-1 #
coedge $-1 $179 $178 $377 $379 reversed $69 $-1 #
coedge $-1 $270 $380 $178 $273 forward $176 $-1 #
edge $-1 $381 -4.0568149369662407 $275 4.0568149369662407 $178 $382 forward 7 unknown #
edge $-1 $186 -4.0568149369662407 $383 4.0568149369662407 $179 $384 forward 7 unknown #
vertex $-1 $180 $385 #
straight-curve $-1 -44.652241584521015 29.6638221392258 0 0 0 -1 I I #
edge $-1 $281 -29.6638221392258 $275 29.6638221392258 $270 $386 forward 7 unknown #
coedge $-1 $387 $182 $185 $284 reversed $280 $-1 #
coedge $-1 $182 $387 $378 $388 reversed $280 $-1 #
loop $-1 $-1 $182 $267 #
vertex $-1 $183 $389 #
straight-curve $-1 -44.652241584521015 -29.6638221392258 0 0 0 1 I I #
coedge $-1 $185 $184 $390 $391 forward $108 $-1 #
edge $-1 $392 -4.0568149369662407 $187 4.0568149369662407 $278 $393 forward 7 unknown #
point $-1 -44.652241584521015 29.6638221392258 -1.6231973317270025 #
point $-1 -44.652241584521015 -29.6638221392258 -1.6231973317270025 #
face $-1 $-1 $303 $26 $-1 $394 reversed single #
loop $-1 $-1 $395 $189 #
plane-surface $-1 52.765871458453489 0 -3.1231973317270025 -1 0 0 0 0 1 forward_v I I I I #
coedge $-1 $294 $396 $397 $398 forward $190 $-1 #
coedge $-1 $395 $399 $192 $292 reversed $288 $-1 #
edge $-1 $400 -29.6638221392258 $401 29.6638221392258 $291 $402 forward 7 unknown #
coedge $-1 $194 $193 $395 $403 reversed $73 $-1 #
coedge $-1 $299 $290 $193 $295 forward $190 $-1 #
edge $-1 $404 -4.0568149369662407 $297 4.0568149369662407 $193 $405 forward 7 unknown #
edge $-1 $201 -4.0568149369662407 $400 4.0568149369662407 $194 $406 forward 7 unknown #
vertex $-1 $195 $407 #
straight-curve $-1 44.652241584521015 -29.6638221392258 0 0 0 -1 I I #
coedge $-1 $396 $294 $196 $300 reversed $190 $-1 #
edge $-1 $304 -29.6638221392258 $297 29.6638221392258 $299 $408 forward 7 unknown #
coedge $-1 $409 $197 $200 $306 reversed $303 $-1 #
coedge $-1 $197 $409 $396 $410 reversed $303 $-1 #
loop $-1 $-1 $197 $287 #
vertex $-1 $198 $411 #
straight-curve $-1 44.652241584521015 29.6638221392258 0 0 0 1 I I #
edge $-1 $401 -4.0568149369662407 $202 4.0568149369662407 $301 $412 forward 7 unknown #
point $-1 44.652241584521008 -29.6638221392258 -1.6231973317270025 #
point $-1 44.652241584521008 29.6638221392258 -1.6231973317270025 #
loop $-1 $-1 $212 $204 #
plane-surface $-1 0 -29.6638221392258 0 0 1 0 0 0 1 forward_v I I I I #
coedge $-1 $312 $207 $209 $316 reversed $124 $-1 #
coedge $-1 $207 $311 $413 $414 reversed $124 $-1 #
coedge $-1 $215 $210 $207 $314 forward $205 $-1 #
edge $-1 $317 -17.865176276845389 $415 -13.869996918422594 $313 $416 forward 7 unknown #
coedge $-1 $209 $208 $320 $417 reversed $77 $-1 #
edge $-1 $418 9.439443728910611e-015 $317 5.2153363018082564 $311 $419 forward 7 unknown #
vertex $-1 $211 $420 #
straight-curve $-1 -3.5780205256630744 -25.668642780803005 10.091873643581454 -1 0 0 I I #
coedge $-1 $413 $212 $215 $324 reversed $309 $-1 #
coedge $-1 $212 $413 $315 $417 forward $309 $-1 #
vertex $-1 $213 $421 #
straight-curve $-1 3.2415228749728904 -29.6638221392258 37.575361266228249 0 0 1 I I #
straight-curve $-1 3.2415228749728904 -29.663822139225807 6.7395200472268897 0 -0.76604443648966558 -0.64278761758704617 I I #
edge $-1 $415 -17.553604977625188 $216 3.2415228749728904 $319 $422 forward 7 unknown #
point $-1 3.2415228749728904 -29.6638221392258 10.091873643581454 #
point $-1 3.2415228749728904 -25.668642780803005 10.091873643581454 #
edge $-1 $423 1 $423 0 $219 $-1 forward 7 unknown #
vertex $-1 $220 $424 #
ellipse-curve $-1 -11.612139876882885 -25.401871001520931 5.7171359988339674 0 -0.64278761758704617 0.76604443648966558 1 0 0 1 I I #
point $-1 -10.612139876882885 -27.666232460014388 8.4156968454041632 #
edge $-1 $425 1 $425 0 $223 $-1 forward 7 unknown #
vertex $-1 $224 $426 #
ellipse-curve $-1 -2.6999422257694263 -25.401871001520931 5.7171359988339674 0 -0.64278761758704617 0.76604443648966558 1 0 0 1 I I #
point $-1 -1.6999422257694263 -27.666232460014388 8.4156968454041632 #
plane-surface $-1 0 0 10.091873643581454 0 0 1 1 0 0 forward_v I I I I #
coedge $-1 $346 $345 $338 $427 forward $228 $-1 #
coedge $-1 $338 $230 $232 $342 reversed $146 $-1 #
coedge $-1 $230 $337 $336 $427 reversed $146 $-1 #
coedge $-1 $238 $233 $230 $340 forward $239 $-1 #
edge $-1 $343 -1.1380484738706755 $428 6.0739010751956997 $339 $429 forward 7 unknown #
coedge $-1 $232 $231 $346 $430 reversed $91 $-1 #
edge $-1 $431 -59.327644278451579 $343 -49.466547510004716 $337 $432 forward 7 unknown #
vertex $-1 $234 $433 #
straight-curve $-1 8.3151227195274373 22.451872590159425 10.091873643581451 1 0 0 I I #
coedge $-1 $336 $235 $238 $350 reversed $228 $-1 #
coedge $-1 $235 $336 $341 $430 forward $228 $-1 #
vertex $-1 $236 $434 #
straight-curve $-1 7.7362877028421266 29.6638221392258 54.570570993034018 0 0 1 I I #
straight-curve $-1 7.7362877028421266 -13.725669663574848 43.827978324454506 0 0.7313536940579346 -0.68199836817093118 I I #
edge $-1 $428 -25.524203175267623 $240 -7.7362877028421266 $345 $435 forward 7 unknown #
point $-1 7.7362877028421266 29.6638221392258 10.091873643581454 #
point $-1 7.7362877028421266 22.451872590159425 10.091873643581451 #
edge $-1 $436 1 $436 0 $243 $-1 forward 7 unknown #
vertex $-1 $244 $437 #
ellipse-curve $-1 16.630245439054875 24.937515135207551 5.5278384903260962 0 0.68199836817093118 0.7313536940579346 1 0 0 1 I I #
point $-1 17.630245439054875 26.057847364692606 6.7292476913532404 #
plane-surface $-1 0 29.6638221392258 0 0 -1 0 0 0 -1 forward_v I I I I #
coedge $-1 $363 $438 $250 $360 reversed $248 $-1 #
coedge $-1 $259 $250 $251 $362 reversed $161 $-1 #
edge $-1 $367 -10.091873643581454 $439 10.091873643581454 $358 $440 forward 7 unknown #
coedge $-1 $252 $251 $438 $441 forward $100 $-1 #
edge $-1 $261 -44.652241584521015 $439 44.652241584521015 $359 $442 forward 7 unknown #
coedge $-1 $372 $358 $253 $364 reversed $248 $-1 #
edge $-1 $365 -29.6638221392258 $367 29.6638221392258 $363 $443 forward 7 unknown #
vertex $-1 $254 $444 #
straight-curve $-1 0 29.6638221392258 10.091873643581454 -1 0 0 I I #
vertex $-1 $364 $445 #
straight-curve $-1 0 -29.6638221392258 10.091873643581454 1 0 0 I I #
point $-1 44.652241584521015 -29.6638221392258 10.091873643581454 #
straight-curve $-1 44.652241584521015 -29.6638221392258 0 0 0 -1 I I #
point $-1 44.652241584521015 -29.6638221392258 -10.091873643581454 #
coedge $-1 $438 $363 $263 $373 forward $248 $-1 #
edge $-1 $365 -10.091873643581454 $374 10.091873643581454 $263 $446 forward 7 unknown #
vertex $-1 $264 $447 #
straight-curve $-1 0 29.6638221392258 -10.091873643581454 1 0 0 I I #
plane-surface $-1 0 -29.6638221392258 0 0 1 0 0 0 1 forward_v I I I I #
coedge $-1 $448 $390 $271 $379 forward $268 $-1 #
coedge $-1 $380 $270 $279 $388 forward $176 $-1 #
edge $-1 $383 -1.5 $381 1.5 $271 $449 forward 7 unknown #
coedge $-1 $272 $378 $448 $450 forward $176 $-1 #
vertex $-1 $273 $451 #
straight-curve $-1 -48.709056521487256 29.6638221392258 -4.6231973317270025 1 0 0 I I #
vertex $-1 $274 $452 #
straight-curve $-1 -48.709056521487256 29.6638221392258 -1.6231973317270025 -1 0 0 I I #
point $-1 -44.652241584521015 29.6638221392258 -4.6231973317270025 #
straight-curve $-1 -44.652241584521015 0 -4.6231973317270025 0 1 0 I I #
coedge $-1 $279 $278 $453 $454 forward $280 $-1 #
edge $-1 $281 -4.0568149369662407 $455 4.0568149369662407 $279 $456 forward 7 unknown #
point $-1 -44.652241584521015 -29.6638221392258 -4.6231973317270025 #
coedge $-1 $377 $453 $283 $391 reversed $268 $-1 #
edge $-1 $383 -29.6638221392258 $392 29.6638221392258 $390 $457 forward 7 unknown #
vertex $-1 $391 $458 #
straight-curve $-1 -48.709056521487256 -29.6638221392258 -1.6231973317270025 1 0 0 I I #
plane-surface $-1 0 29.6638221392258 0 0 -1 0 0 0 -1 forward_v I I I I #
coedge $-1 $397 $291 $293 $403 forward $288 $-1 #
coedge $-1 $290 $299 $302 $410 forward $190 $-1 #
coedge $-1 $399 $395 $290 $398 reversed $288 $-1 #
edge $-1 $459 -29.6638221392258 $404 29.6638221392258 $397 $460 forward 7 unknown #
coedge $-1 $291 $397 $409 $461 reversed $288 $-1 #
vertex $-1 $292 $462 #
vertex $-1 $292 $463 #
straight-curve $-1 52.765871458453489 0 -1.6231973317270025 0 1 0 I I #
edge $-1 $400 -1.5 $404 1.5 $395 $464 forward 7 unknown #
vertex $-1 $403 $465 #
straight-curve $-1 48.709056521487248 -29.6638221392258 -4.6231973317270025 -1 0 0 I I #
straight-curve $-1 48.709056521487248 -29.6638221392258 -1.6231973317270025 1 0 0 I I #
point $-1 44.652241584521008 -29.6638221392258 -4.6231973317270025 #
straight-curve $-1 44.652241584521015 0 -4.6231973317270025 0 -1 0 I I #
coedge $-1 $302 $301 $399 $461 forward $303 $-1 #
edge $-1 $304 -4.0568149369662407 $459 4.0568149369662407 $302 $466 forward 7 unknown #
point $-1 44.652241584521008 29.6638221392258 -4.6231973317270025 #
straight-curve $-1 48.709056521487248 29.6638221392258 -1.6231973317270025 -1 0 0 I I #
coedge $-1 $320 $319 $312 $414 forward $309 $-1 #
edge $-1 $415 27.483487622646795 $418 30.835841219001352 $413 $467 forward 7 unknown #
vertex $-1 $324 $468 #
straight-curve $-1 -17.553604977625188 -43.533819057648394 10.091873643581451 0 -1 0 I I #
edge $-1 $418 -13.975584451962114 $321 6.8195434006359648 $320 $469 forward 7 unknown #
vertex $-1 $417 $470 #
straight-curve $-1 -17.553604977625188 -29.663822139225807 6.7395200472268897 0 0.76604443648966558 0.64278761758704617 I I #
point $-1 -17.553604977625188 -25.668642780803005 10.091873643581454 #
point $-1 3.2415228749728904 -29.6638221392258 6.7395200472268959 #
straight-curve $-1 0 -29.6638221392258 10.091873643581454 1 0 0 I I #
vertex $-1 $327 $471 #
point $-1 -10.612139876882885 -25.401871001520931 5.7171359988339674 #
vertex $-1 $331 $472 #
point $-1 -1.6999422257694263 -25.401871001520931 5.7171359988339674 #
edge $-1 $428 44.47869734945256 $431 51.203949253908974 $336 $473 forward 7 unknown #
vertex $-1 $350 $474 #
straight-curve $-1 25.524203175267623 23.589921064030101 10.091873643581451 0 1 0 I I #
edge $-1 $431 -17.209080455740185 $347 0.57883501668531068 $346 $475 forward 7 unknown #
vertex $-1 $430 $476 #
straight-curve $-1 25.524203175267623 -13.725669663574848 43.827978324454506 0 -0.7313536940579346 0.68199836817093118 I I #
point $-1 25.524203175267623 22.451872590159425 10.091873643581451 #
point $-1 7.7362877028421266 29.6638221392258 3.3666217391250441 #
straight-curve $-1 0 29.6638221392258 10.091873643581454 -1 0 0 I I #
vertex $-1 $353 $477 #
point $-1 17.630245439054875 24.937515135207551 5.5278384903260962 #
coedge $-1 $358 $372 $361 $441 reversed $248 $-1 #
vertex $-1 $441 $478 #
straight-curve $-1 -44.652241584521015 -29.6638221392258 0 0 0 -1 I I #
edge $-1 $439 -29.6638221392258 $374 29.6638221392258 $438 $479 forward 7 unknown #
straight-curve $-1 0 -29.6638221392258 -10.091873643581454 -1 0 0 I I #
straight-curve $-1 -44.652241584521015 0 10.091873643581454 0 -1 0 I I #
point $-1 -44.652241584521015 29.6638221392258 10.091873643581454 #
point $-1 -44.652241584521015 -29.6638221392258 10.091873643581454 #
straight-curve $-1 -44.652241584521015 29.6638221392258 0 0 0 -1 I I #
point $-1 -44.652241584521015 29.6638221392258 -10.091873643581454 #
coedge $-1 $453 $377 $380 $450 reversed $268 $-1 #
straight-curve $-1 -52.765871458453496 29.6638221392258 -3.1231973317270025 0 0 -1 I I #
edge $-1 $455 -29.6638221392258 $381 29.6638221392258 $448 $480 forward 7 unknown #
point $-1 -52.765871458453496 29.6638221392258 -4.6231973317270025 #
point $-1 -52.765871458453496 29.6638221392258 -1.6231973317270025 #
coedge $-1 $390 $448 $387 $454 reversed $268 $-1 #
edge $-1 $392 -1.5 $455 1.5 $453 $481 forward 7 unknown #
vertex $-1 $450 $482 #
straight-curve $-1 -48.709056521487256 -29.6638221392258 -4.6231973317270025 -1 0 0 I I #
straight-curve $-1 -52.765871458453496 0 -1.6231973317270025 0 -1 0 I I #
point $-1 -52.765871458453496 -29.6638221392258 -1.6231973317270025 #
vertex $-1 $398 $483 #
straight-curve $-1 52.765871458453489 0 -4.6231973317270025 0 -1 0 I I #
edge $-1 $401 -1.5 $459 1.5 $399 $484 forward 7 unknown #
point $-1 52.765871458453489 -29.6638221392258 -1.6231973317270025 #
point $-1 52.765871458453489 29.6638221392258 -1.6231973317270025 #
straight-curve $-1 52.765871458453489 -29.6638221392258 -3.1231973317270025 0 0 -1 I I #
point $-1 52.765871458453489 -29.6638221392258 -4.6231973317270025 #
straight-curve $-1 48.709056521487248 29.6638221392258 -4.6231973317270025 1 0 0 I I #
straight-curve $-1 -17.553604977625188 -29.6638221392258 37.575361266228249 0 0 -1 I I #
point $-1 -17.553604977625188 -29.6638221392258 10.091873643581454 #
straight-curve $-1 -3.5780205256630744 -29.6638221392258 6.7395200472268968 1 0 0 I I #
point $-1 -17.553604977625188 -29.6638221392258 6.7395200472268959 #
point $-1 -11.612139876882885 -24.759083383933884 4.9510915623443026 #
point $-1 -2.6999422257694263 -24.759083383933884 4.9510915623443026 #
straight-curve $-1 25.524203175267623 29.6638221392258 54.570570993034018 0 0 -1 I I #
point $-1 25.524203175267623 29.6638221392258 10.091873643581454 #
straight-curve $-1 8.3151227195274373 29.663822139225797 3.3666217391250512 -1 0 0 I I #
point $-1 25.524203175267623 29.6638221392258 3.3666217391250441 #
point $-1 16.630245439054875 24.255516767036621 4.7964847962681612 #
point $-1 -44.652241584521015 -29.6638221392258 -10.091873643581454 #
straight-curve $-1 -44.652241584521015 0 -10.091873643581454 0 1 0 I I #
straight-curve $-1 -52.765871458453496 0 -4.6231973317270025 0 1 0 I I #
straight-curve $-1 -52.765871458453496 -29.6638221392258 -3.1231973317270025 0 0 -1 I I #
point $-1 -52.765871458453496 -29.6638221392258 -4.6231973317270025 #
point $-1 52.765871458453489 29.6638221392258 -4.6231973317270025 #
straight-curve $-1 52.765871458453489 29.6638221392258 -3.1231973317270025 0 0 -1 I I #
End-of-ACIS-data 