500 0 7 0           
7 Unknown 11 ACIS 5.0 NT 24 Thu Mar 25 16:09:43 1999 
-1 9.9999999999999995e-007 1e-010 
body $-1 $7 $-1 $8 #
body $-1 $9 $-1 $10 #
body $-1 $11 $-1 $12 #
body $-1 $13 $-1 $14 #
body $-1 $15 $-1 $16 #
body $-1 $17 $-1 $18 #
body $-1 $19 $-1 $20 #
lump $-1 $-1 $21 $0 #
transform $-1 1 0 0 0 1 0 0 0 1 58.519852290414136 25.27192510255761 11.138018493715176 1 rotate no_reflect no_shear #
lump $-1 $-1 $22 $1 #
transform $-1 1 0 0 0 1 0 0 0 1 58.519852290414136 25.27192510255761 11.138018493715176 1 rotate no_reflect no_shear #
lump $-1 $-1 $23 $2 #
transform $-1 1 0 0 0 1 0 0 0 1 58.519852290414136 25.27192510255761 11.138018493715176 1 rotate no_reflect no_shear #
lump $-1 $-1 $24 $3 #
transform $-1 1 0 0 0 1 0 0 0 1 58.519852290414136 25.27192510255761 11.138018493715176 1 rotate no_reflect no_shear #
lump $-1 $-1 $25 $4 #
transform $-1 1 0 0 0 1 0 0 0 1 58.519852290414136 25.27192510255761 11.138018493715176 1 rotate no_reflect no_shear #
lump $-1 $-1 $26 $5 #
transform $-1 1 0 0 0 1 0 0 0 1 58.519852290414136 25.27192510255761 11.138018493715176 1 rotate no_reflect no_shear #
lump $-1 $-1 $27 $6 #
transform $-1 1 0 0 0 1 0 0 0 1 58.519852290414136 25.27192510255761 11.138018493715176 1 rotate no_reflect no_shear #
shell $-1 $-1 $-1 $28 $-1 $7 #
shell $-1 $-1 $-1 $29 $-1 $9 #
shell $-1 $-1 $-1 $30 $-1 $11 #
shell $-1 $-1 $-1 $31 $-1 $13 #
shell $-1 $-1 $-1 $32 $-1 $15 #
shell $-1 $-1 $-1 $33 $-1 $17 #
shell $-1 $-1 $-1 $34 $-1 $19 #
face $-1 $35 $36 $21 $-1 $37 forward single #
face $-1 $38 $39 $22 $-1 $40 reversed single #
face $-1 $41 $42 $23 $-1 $43 reversed single #
face $-1 $44 $45 $24 $-1 $46 forward single #
face $-1 $47 $48 $25 $-1 $49 forward single #
face $-1 $50 $51 $26 $-1 $52 reversed single #
face $-1 $53 $54 $27 $-1 $55 forward single #
face $-1 $56 $57 $21 $-1 $58 reversed single #
loop $-1 $-1 $59 $28 #
plane-surface $-1 0 0 11.138018493715176 0 0 1 1 0 0 forward_v I I I I #
face $-1 $60 $61 $22 $-1 $62 reversed single #
loop $-1 $-1 $63 $29 #
plane-surface $-1 -52.586728720295866 0 7.0691593069275722 0 0 1 1 0 0 forward_v I I I I #
face $-1 $64 $65 $23 $-1 $66 reversed single #
loop $-1 $-1 $67 $30 #
plane-surface $-1 -8.7708746742985753 -85.551830039774302 102.58169149803197 -1 0 0 0 -0.51503808176128008 0.85716729658548041 forward_v I I I I #
face $-1 $68 $69 $24 $-1 $70 forward single #
loop $-1 $71 $72 $31 #
cone-surface $-1 -18.213692124794612 -17.608067785321655 6.2403029262142722 0 0.51503808176128008 -0.85716729658548041 1 0 0 1 I I 0 1 1 forward I I I I #
face $-1 $73 $74 $25 $-1 $75 forward single #
loop $-1 $76 $77 $32 #
cone-surface $-1 -12.548001654496986 -17.608067785321655 6.2403029262142722 0 0.51503808176128008 -0.85716729658548041 1 0 0 1 I I 0 1 1 forward I I I I #
face $-1 $78 $79 $26 $-1 $80 reversed single #
loop $-1 $-1 $81 $33 #
plane-surface $-1 45.262674908692404 72.291596027313659 121.74429340029508 1 0 0 0 -0.70710678939079041 -0.70710677298230451 forward_v I I I I #
face $-1 $82 $83 $27 $-1 $84 forward single #
loop $-1 $85 $86 $34 #
cone-surface $-1 51.89126359955327 20.41765904679071 6.2837523674296847 0 -0.70710678939079041 -0.70710677298230451 2 0 0 1 I I 0 1 2 forward I I I I #
face $-1 $87 $88 $21 $-1 $89 reversed single #
loop $-1 $-1 $90 $35 #
plane-surface $-1 0 0 -11.138018493715176 0 0 1 1 0 0 forward_v I I I I #
coedge $-1 $91 $92 $93 $94 forward $36 $-1 #
face $-1 $95 $96 $22 $-1 $97 reversed single #
loop $-1 $-1 $98 $38 #
plane-surface $-1 -46.653605150177597 0 9.1035889003213732 -1 0 0 0 0 1 forward_v I I I I #
coedge $-1 $99 $100 $101 $102 forward $39 $-1 #
face $-1 $103 $104 $23 $-1 $105 reversed single #
loop $-1 $-1 $106 $41 #
plane-surface $-1 -15.380846889645802 -25.271925102557603 2.2590843293201317 0 -0.51503808176128008 0.85716729658548041 1 0 0 forward_v I I I I #
coedge $-1 $107 $108 $109 $110 reversed $42 $-1 #
face $-1 $-1 $111 $24 $-1 $112 forward single #
loop $-1 $113 $114 $44 #
cone-surface $-1 -18.213692124794612 -17.075205270908093 5.3534707926181433 0 0.51503808176128008 -0.85716729658548041 0.5 0 0 1 I I -0.70710678118654746 0.70710678118654746 0.5 forward I I I I #
loop $-1 $-1 $115 $31 #
coedge $-1 $72 $72 $116 $117 reversed $45 $-1 #
face $-1 $-1 $118 $25 $-1 $119 forward single #
loop $-1 $120 $121 $47 #
cone-surface $-1 -12.548001654496986 -17.075205270908093 5.3534707926181433 0 0.51503808176128008 -0.85716729658548041 0.5 0 0 1 I I -0.70710678118654746 0.70710678118654746 0.5 forward I I I I #
loop $-1 $-1 $122 $32 #
coedge $-1 $77 $77 $123 $124 reversed $48 $-1 #
face $-1 $125 $126 $26 $-1 $127 forward single #
loop $-1 $-1 $128 $50 #
plane-surface $-1 51.89126359955327 -10.467973710082404 38.984725583343362 0 0.70710678939079041 0.70710677298230451 1 0 0 forward_v I I I I #
coedge $-1 $129 $130 $131 $132 reversed $51 $-1 #
face $-1 $-1 $133 $27 $-1 $134 forward single #
loop $-1 $135 $136 $53 #
cone-surface $-1 51.89126359955327 18.802882386231794 4.6689757443418252 0 -0.70710678939079041 -0.70710677298230451 1 0 0 1 I I -0.70710678118654746 0.70710678118654746 1 forward I I I I #
loop $-1 $-1 $137 $34 #
coedge $-1 $86 $86 $138 $139 reversed $54 $-1 #
face $-1 $140 $141 $21 $-1 $142 reversed single #
loop $-1 $-1 $143 $56 #
plane-surface $-1 0 -25.27192510255761 0 0 1 0 0 0 1 forward_v I I I I #
coedge $-1 $144 $145 $146 $147 forward $57 $-1 #
coedge $-1 $148 $59 $149 $150 forward $36 $-1 #
coedge $-1 $59 $148 $151 $152 forward $36 $-1 #
coedge $-1 $153 $154 $59 $94 reversed $155 $-1 #
edge $-1 $156 -25.27192510255761 $157 25.27192510255761 $93 $158 forward 7 unknown #
face $-1 $159 $160 $22 $-1 $161 reversed single #
loop $-1 $-1 $162 $60 #
plane-surface $-1 0 25.27192510255761 0 0 -1 0 0 0 -1 forward_v I I I I #
coedge $-1 $101 $163 $164 $165 reversed $61 $-1 #
coedge $-1 $166 $63 $167 $168 reversed $39 $-1 #
coedge $-1 $63 $166 $169 $170 reversed $39 $-1 #
coedge $-1 $171 $98 $63 $102 reversed $61 $-1 #
edge $-1 $172 -25.27192510255761 $173 25.27192510255761 $101 $174 forward 7 unknown #
face $-1 $175 $176 $23 $-1 $177 reversed single #
loop $-1 $-1 $178 $64 #
plane-surface $-1 -21.990819104993029 -85.551830039774302 102.58169149803197 1 0 0 0 0.51503808176128008 -0.85716729658548041 forward_v I I I I #
coedge $-1 $179 $180 $181 $182 reversed $65 $-1 #
coedge $-1 $108 $67 $183 $184 reversed $42 $-1 #
coedge $-1 $67 $107 $179 $185 reversed $42 $-1 #
coedge $-1 $181 $186 $67 $110 forward $187 $-1 #
edge $-1 $188 17.503989917329541 $189 32.281017604735645 $109 $190 forward 7 unknown #
loop $-1 $-1 $116 $68 #
plane-surface $-1 -15.380846889645802 -25.271925102557603 2.2590843293201317 0 -0.51503808176128008 0.85716729658548041 1 0 0 forward_v I I I I #
loop $-1 $-1 $191 $44 #
coedge $-1 $114 $114 $115 $192 reversed $69 $-1 #
coedge $-1 $115 $115 $114 $192 forward $71 $-1 #
coedge $-1 $116 $116 $72 $117 forward $111 $-1 #
edge $-1 $193 -1.3592328765490462e-015 $193 6.2831853071795987 $116 $194 forward 7 unknown #
loop $-1 $-1 $123 $73 #
plane-surface $-1 -15.380846889645802 -25.271925102557603 2.2590843293201317 0 -0.51503808176128008 0.85716729658548041 1 0 0 forward_v I I I I #
loop $-1 $-1 $195 $47 #
coedge $-1 $121 $121 $122 $196 reversed $74 $-1 #
coedge $-1 $122 $122 $121 $196 forward $76 $-1 #
coedge $-1 $123 $123 $77 $124 forward $118 $-1 #
edge $-1 $197 -1.3592328765490462e-015 $197 6.2831853071795987 $123 $198 forward 7 unknown #
face $-1 $199 $200 $26 $-1 $201 reversed single #
loop $-1 $-1 $131 $78 #
plane-surface $-1 0 0 11.138018493715176 0 0 1 1 0 0 forward_v I I I I #
coedge $-1 $202 $203 $204 $205 reversed $79 $-1 #
coedge $-1 $130 $81 $206 $207 reversed $51 $-1 #
coedge $-1 $81 $129 $202 $208 reversed $51 $-1 #
coedge $-1 $204 $209 $81 $132 forward $126 $-1 #
edge $-1 $210 10.87387291109922 $211 18.767065280296752 $131 $212 forward 7 unknown #
loop $-1 $-1 $138 $82 #
plane-surface $-1 51.89126359955327 -10.467973710082404 38.984725583343362 0 0.70710678939079041 0.70710677298230451 1 0 0 forward_v I I I I #
loop $-1 $-1 $213 $53 #
coedge $-1 $136 $136 $137 $214 reversed $83 $-1 #
coedge $-1 $137 $137 $136 $214 forward $85 $-1 #
coedge $-1 $138 $138 $86 $139 forward $133 $-1 #
edge $-1 $215 0 $215 6.2831853071796004 $138 $216 forward 7 unknown #
face $-1 $217 $218 $21 $-1 $219 reversed single #
loop $-1 $-1 $220 $87 #
plane-surface $-1 -58.519852290414136 0 0 1 0 0 0 0 -1 forward_v I I I I #
coedge $-1 $221 $151 $222 $223 forward $88 $-1 #
coedge $-1 $224 $90 $221 $225 forward $57 $-1 #
coedge $-1 $90 $224 $226 $227 forward $57 $-1 #
coedge $-1 $154 $153 $90 $147 reversed $155 $-1 #
edge $-1 $228 -25.27192510255761 $229 25.27192510255761 $146 $230 forward 7 unknown #
coedge $-1 $92 $91 $231 $232 forward $36 $-1 #
coedge $-1 $233 $234 $91 $150 reversed $218 $-1 #
edge $-1 $157 -58.519852290414136 $235 58.519852290414136 $149 $236 forward 7 unknown #
coedge $-1 $143 $237 $92 $152 reversed $88 $-1 #
edge $-1 $238 -58.519852290414136 $156 58.519852290414136 $151 $239 forward 7 unknown #
coedge $-1 $146 $93 $237 $240 forward $155 $-1 #
coedge $-1 $93 $146 $233 $241 reversed $155 $-1 #
loop $-1 $-1 $153 $217 #
vertex $-1 $94 $242 #
vertex $-1 $94 $243 #
straight-curve $-1 58.519852290414136 0 11.138018493715176 0 1 0 I I #
face $-1 $244 $245 $22 $-1 $246 forward single #
loop $-1 $-1 $247 $95 #
plane-surface $-1 -58.519852290414136 0 0 1 0 0 0 0 -1 forward_v I I I I #
coedge $-1 $169 $248 $171 $249 forward $96 $-1 #
coedge $-1 $98 $171 $250 $251 reversed $61 $-1 #
coedge $-1 $252 $167 $98 $165 forward $253 $-1 #
edge $-1 $173 2.5173648567668856 $254 6.5862240435544877 $164 $255 forward 7 unknown #
coedge $-1 $100 $99 $247 $256 reversed $39 $-1 #
coedge $-1 $164 $257 $99 $168 forward $253 $-1 #
edge $-1 $258 -32.226487930266202 $173 -20.360240790029664 $167 $259 forward 7 unknown #
coedge $-1 $260 $162 $100 $170 forward $96 $-1 #
edge $-1 $172 20.360240790029664 $261 32.226487930266202 $169 $262 forward 7 unknown #
coedge $-1 $163 $101 $162 $249 reversed $61 $-1 #
vertex $-1 $170 $263 #
vertex $-1 $168 $264 #
straight-curve $-1 -46.653605150177597 0 7.0691593069275722 0 -1 0 I I #
face $-1 $-1 $187 $23 $-1 $265 forward single #
loop $-1 $-1 $266 $103 #
plane-surface $-1 0 -25.27192510255761 0 0 1 0 0 0 1 forward_v I I I I #
coedge $-1 $267 $268 $269 $270 reversed $104 $-1 #
coedge $-1 $271 $106 $108 $185 forward $65 $-1 #
coedge $-1 $106 $271 $267 $272 forward $65 $-1 #
coedge $-1 $269 $109 $106 $182 forward $187 $-1 #
edge $-1 $189 1.0804512294756741 $273 14.300395660170128 $181 $274 forward 7 unknown #
coedge $-1 $275 $276 $107 $184 forward $176 $-1 #
edge $-1 $277 -49.031761419695862 $188 -40.152827255300807 $183 $278 forward 7 unknown #
edge $-1 $189 -17.239374094497396 $277 8.3777685069199533e-015 $108 $279 forward 7 unknown #
coedge $-1 $109 $269 $275 $280 forward $187 $-1 #
loop $-1 $-1 $269 $175 #
vertex $-1 $184 $281 #
vertex $-1 $110 $282 #
straight-curve $-1 -8.7708746742985753 -42.775915019887151 11.13801849371518 0 1 0 I I #
coedge $-1 $191 $191 $-1 $283 reversed $113 $-1 #
edge $-1 $284 0 $284 6.2831853071796004 $114 $285 forward 7 unknown #
vertex $-1 $117 $286 #
ellipse-curve $-1 -18.213692124794612 -17.883411258854565 6.6985514115176459 0 -0.51503808176128008 0.85716729658548041 1 0 0 1 I I #
coedge $-1 $195 $195 $-1 $287 reversed $120 $-1 #
edge $-1 $288 0 $288 6.2831853071796004 $121 $289 forward 7 unknown #
vertex $-1 $124 $290 #
ellipse-curve $-1 -12.548001654496986 -17.883411258854565 6.6985514115176459 0 -0.51503808176128008 0.85716729658548041 1 0 0 1 I I #
face $-1 $-1 $291 $26 $-1 $292 reversed single #
loop $-1 $-1 $293 $125 #
plane-surface $-1 58.519852290414136 0 0 -1 0 0 0 0 1 forward_v I I I I #
coedge $-1 $294 $128 $130 $208 forward $79 $-1 #
coedge $-1 $128 $294 $293 $295 reversed $79 $-1 #
coedge $-1 $296 $131 $128 $205 forward $126 $-1 #
edge $-1 $211 19.317043108915769 $297 32.574220490637501 $204 $298 forward 7 unknown #
coedge $-1 $299 $300 $129 $207 forward $291 $-1 #
edge $-1 $301 -57.627320758792244 $210 -49.734128206432359 $206 $302 forward 7 unknown #
edge $-1 $211 39.381190376660918 $301 50.543850205115234 $130 $303 forward 7 unknown #
coedge $-1 $131 $296 $299 $304 forward $126 $-1 #
vertex $-1 $207 $305 #
vertex $-1 $132 $306 #
straight-curve $-1 45.262674908692404 36.14579801365683 11.13801849371518 0 -1 0 I I #
coedge $-1 $213 $213 $-1 $307 reversed $135 $-1 #
edge $-1 $308 0 $308 6.2831853071796004 $136 $309 forward 7 unknown #
vertex $-1 $139 $310 #
ellipse-curve $-1 51.89126359955327 21.325328917958839 7.1914222175352389 0 0.70710678939079041 0.70710677298230451 2 0 0 1 I I #
face $-1 $-1 $155 $21 $-1 $311 reversed single #
loop $-1 $-1 $233 $140 #
plane-surface $-1 0 25.27192510255761 0 0 -1 0 0 0 -1 forward_v I I I I #
coedge $-1 $312 $231 $234 $313 forward $141 $-1 #
coedge $-1 $237 $143 $144 $225 reversed $88 $-1 #
coedge $-1 $231 $312 $143 $223 reversed $141 $-1 #
edge $-1 $238 -11.138018493715176 $314 11.138018493715176 $222 $315 forward 7 unknown #
coedge $-1 $145 $144 $312 $316 forward $57 $-1 #
edge $-1 $229 -58.519852290414136 $314 58.519852290414136 $221 $317 forward 7 unknown #
coedge $-1 $234 $233 $145 $227 reversed $218 $-1 #
edge $-1 $318 -58.519852290414136 $228 58.519852290414136 $226 $319 forward 7 unknown #
vertex $-1 $147 $320 #
vertex $-1 $240 $321 #
straight-curve $-1 58.519852290414136 0 -11.138018493715176 0 -1 0 I I #
coedge $-1 $220 $222 $148 $232 reversed $141 $-1 #
edge $-1 $235 -25.27192510255761 $238 25.27192510255761 $231 $322 forward 7 unknown #
coedge $-1 $226 $149 $154 $241 forward $218 $-1 #
coedge $-1 $149 $226 $220 $313 reversed $218 $-1 #
vertex $-1 $150 $323 #
straight-curve $-1 0 25.27192510255761 11.138018493715176 -1 0 0 I I #
coedge $-1 $151 $221 $153 $240 reversed $88 $-1 #
vertex $-1 $232 $324 #
straight-curve $-1 0 -25.27192510255761 11.138018493715176 1 0 0 I I #
edge $-1 $156 -11.138018493715176 $229 11.138018493715176 $153 $325 forward 7 unknown #
edge $-1 $157 -11.138018493715176 $228 11.138018493715176 $154 $326 forward 7 unknown #
point $-1 58.519852290414136 -25.27192510255761 11.138018493715176 #
point $-1 58.519852290414136 25.27192510255761 11.138018493715176 #
face $-1 $-1 $253 $22 $-1 $327 reversed single #
loop $-1 $-1 $250 $159 #
plane-surface $-1 0 0 11.138018493715176 0 0 1 1 0 0 forward_v I I I I #
coedge $-1 $328 $329 $166 $256 forward $160 $-1 #
coedge $-1 $162 $260 $330 $331 reversed $96 $-1 #
edge $-1 $332 -6.5862240435544877 $172 -2.5173648567668856 $162 $333 forward 7 unknown #
coedge $-1 $330 $334 $163 $251 forward $245 $-1 #
edge $-1 $254 -25.27192510255761 $332 25.27192510255761 $250 $335 forward 7 unknown #
coedge $-1 $257 $164 $334 $336 reversed $253 $-1 #
loop $-1 $-1 $164 $244 #
vertex $-1 $165 $337 #
straight-curve $-1 -46.653605150177597 -25.27192510255761 4.5517944501606866 0 0 1 I I #
edge $-1 $261 -25.27192510255761 $258 25.27192510255761 $247 $338 forward 7 unknown #
coedge $-1 $167 $252 $328 $339 forward $253 $-1 #
vertex $-1 $256 $340 #
straight-curve $-1 -26.293364360147933 -25.27192510255761 7.0691593069275722 1 0 0 I I #
coedge $-1 $248 $169 $329 $341 reversed $96 $-1 #
vertex $-1 $256 $342 #
straight-curve $-1 -26.293364360147933 25.27192510255761 7.0691593069275722 -1 0 0 I I #
point $-1 -46.653605150177597 25.27192510255761 7.0691593069275722 #
point $-1 -46.653605150177597 -25.27192510255761 7.0691593069275722 #
plane-surface $-1 0 0 11.138018493715176 0 0 1 1 0 0 forward_v I I I I #
coedge $-1 $276 $275 $268 $343 forward $176 $-1 #
coedge $-1 $268 $178 $180 $272 reversed $104 $-1 #
coedge $-1 $178 $267 $266 $343 reversed $104 $-1 #
coedge $-1 $186 $181 $178 $270 forward $187 $-1 #
edge $-1 $273 -32.281017604735645 $344 -17.503989917329541 $269 $345 forward 7 unknown #
coedge $-1 $180 $179 $276 $346 reversed $65 $-1 #
edge $-1 $347 -8.3777685069199533e-015 $273 17.239374094497396 $267 $348 forward 7 unknown #
vertex $-1 $182 $349 #
straight-curve $-1 -7.6904234448229012 -10.494897415151502 11.138018493715176 -1 0 0 I I #
coedge $-1 $266 $183 $186 $280 reversed $176 $-1 #
coedge $-1 $183 $266 $271 $346 forward $176 $-1 #
vertex $-1 $184 $350 #
straight-curve $-1 -8.7708746742985753 -25.27192510255761 51.290845749015986 0 0 1 I I #
straight-curve $-1 -8.7708746742985753 -25.271925102557603 2.2590843293201317 0 -0.85716729658548041 -0.51503808176128008 I I #
edge $-1 $344 -21.990819104993029 $188 -8.7708746742985753 $275 $351 forward 7 unknown #
point $-1 -8.7708746742985753 -25.27192510255761 11.138018493715176 #
point $-1 -8.7708746742985753 -10.494897415151506 11.138018493715176 #
edge $-1 $352 1 $352 0 $191 $-1 forward 7 unknown #
vertex $-1 $192 $353 #
ellipse-curve $-1 -18.213692124794612 -17.332724311788734 5.7820544409108834 0 -0.51503808176128008 0.85716729658548041 1 0 0 1 I I #
point $-1 -17.213692124794612 -17.883411258854576 6.698551411517661 #
edge $-1 $354 1 $354 0 $195 $-1 forward 7 unknown #
vertex $-1 $196 $355 #
ellipse-curve $-1 -12.548001654496986 -17.332724311788734 5.7820544409108834 0 -0.51503808176128008 0.85716729658548041 1 0 0 1 I I #
point $-1 -11.548001654496986 -17.883411258854576 6.698551411517661 #
loop $-1 $-1 $206 $199 #
plane-surface $-1 0 25.27192510255761 0 0 -1 0 0 0 -1 forward_v I I I I #
coedge $-1 $356 $357 $203 $295 forward $200 $-1 #
coedge $-1 $203 $202 $300 $358 reversed $79 $-1 #
edge $-1 $297 21.897020750501461 $359 33.059680578955771 $293 $360 forward 7 unknown #
coedge $-1 $209 $204 $357 $361 forward $126 $-1 #
vertex $-1 $361 $362 #
straight-curve $-1 25.945631799776635 17.378732733360074 11.138018493715172 1 0 0 I I #
coedge $-1 $363 $206 $209 $304 reversed $291 $-1 #
coedge $-1 $206 $363 $294 $358 forward $291 $-1 #
vertex $-1 $207 $364 #
straight-curve $-1 45.262674908692404 25.27192510255761 60.872146700147539 0 0 1 I I #
straight-curve $-1 45.262674908692404 -10.467973710082404 38.984725583343362 0 0.70710677298230451 -0.70710678939079041 I I #
edge $-1 $365 -58.519852290414136 $210 -45.262674908692404 $299 $366 forward 7 unknown #
point $-1 45.262674908692404 25.27192510255761 11.138018493715176 #
point $-1 45.262674908692404 17.378732733360078 11.138018493715172 #
edge $-1 $367 1 $367 0 $213 $-1 forward 7 unknown #
vertex $-1 $214 $368 #
ellipse-curve $-1 51.89126359955327 19.509989175622582 5.3760825173241296 0 0.70710678939079041 0.70710677298230451 2 0 0 1 I I #
point $-1 53.89126359955327 21.325328917958839 7.1914222175352389 #
plane-surface $-1 58.519852290414136 0 0 -1 0 0 0 0 1 forward_v I I I I #
coedge $-1 $222 $220 $224 $316 reversed $141 $-1 #
edge $-1 $235 -11.138018493715176 $318 11.138018493715176 $234 $369 forward 7 unknown #
vertex $-1 $316 $370 #
straight-curve $-1 -58.519852290414136 -25.27192510255761 0 0 0 -1 I I #
edge $-1 $314 -25.27192510255761 $318 25.27192510255761 $312 $371 forward 7 unknown #
straight-curve $-1 0 -25.27192510255761 -11.138018493715176 -1 0 0 I I #
vertex $-1 $227 $372 #
straight-curve $-1 0 25.27192510255761 -11.138018493715176 1 0 0 I I #
point $-1 58.519852290414136 25.27192510255761 -11.138018493715176 #
point $-1 58.519852290414136 -25.27192510255761 -11.138018493715176 #
straight-curve $-1 -58.519852290414136 0 11.138018493715176 0 -1 0 I I #
point $-1 -58.519852290414136 25.27192510255761 11.138018493715176 #
point $-1 -58.519852290414136 -25.27192510255761 11.138018493715176 #
straight-curve $-1 58.519852290414136 -25.27192510255761 0 0 0 -1 I I #
straight-curve $-1 58.519852290414136 25.27192510255761 0 0 0 -1 I I #
plane-surface $-1 0 -25.27192510255761 0 0 1 0 0 0 1 forward_v I I I I #
coedge $-1 $373 $247 $257 $339 reversed $160 $-1 #
coedge $-1 $247 $373 $260 $341 forward $160 $-1 #
coedge $-1 $374 $250 $248 $331 forward $245 $-1 #
edge $-1 $332 46.653605150177597 $375 58.519852290414136 $248 $376 forward 7 unknown #
vertex $-1 $331 $377 #
straight-curve $-1 -46.653605150177597 25.27192510255761 4.5517944501606866 0 0 -1 I I #
coedge $-1 $250 $374 $252 $336 forward $245 $-1 #
straight-curve $-1 -46.653605150177597 0 11.138018493715176 0 1 0 I I #
edge $-1 $378 -58.519852290414136 $254 -46.653605150177597 $252 $379 forward 7 unknown #
point $-1 -46.653605150177597 -25.27192510255761 11.138018493715174 #
straight-curve $-1 -58.519852290414136 0 7.0691593069275722 0 -1 0 I I #
edge $-1 $378 -11.138018493715176 $258 -7.0691593069275722 $328 $380 forward 7 unknown #
point $-1 -58.519852290414136 -25.27192510255761 7.0691593069275722 #
edge $-1 $375 -11.138018493715176 $261 -7.0691593069275722 $260 $381 forward 7 unknown #
point $-1 -58.519852290414136 25.27192510255761 7.0691593069275722 #
edge $-1 $344 40.152827255300807 $347 49.031761419695862 $266 $382 forward 7 unknown #
vertex $-1 $280 $383 #
straight-curve $-1 -21.990819104993029 -42.775915019887151 11.13801849371518 0 -1 0 I I #
edge $-1 $347 -14.300395660170128 $277 -1.0804512294756741 $276 $384 forward 7 unknown #
vertex $-1 $346 $385 #
straight-curve $-1 -21.990819104993029 -25.271925102557603 2.2590843293201317 0 0.85716729658548041 0.51503808176128008 I I #
point $-1 -21.990819104993029 -10.494897415151506 11.138018493715176 #
point $-1 -8.7708746742985753 -25.27192510255761 2.2590843293201273 #
straight-curve $-1 0 -25.27192510255761 11.138018493715176 1 0 0 I I #
vertex $-1 $283 $386 #
point $-1 -17.213692124794612 -17.332724311788734 5.7820544409108834 #
vertex $-1 $287 $387 #
point $-1 -11.548001654496986 -17.332724311788734 5.7820544409108834 #
coedge $-1 $357 $293 $363 $388 reversed $200 $-1 #
coedge $-1 $293 $356 $296 $361 reversed $200 $-1 #
edge $-1 $359 -32.574220490637501 $301 -19.317043108915769 $300 $389 forward 7 unknown #
vertex $-1 $295 $390 #
straight-curve $-1 58.519852290414136 1.8952010525464313 26.621550533825776 0 0.70710677298230462 -0.70710678939079052 I I #
edge $-1 $297 17.378732733360078 $365 25.27192510255761 $357 $391 forward 7 unknown #
point $-1 58.519852290414136 17.378732733360078 11.138018493715172 #
coedge $-1 $300 $299 $356 $388 forward $291 $-1 #
point $-1 45.262674908692404 25.27192510255761 3.2448259413552947 #
vertex $-1 $361 $392 #
straight-curve $-1 0 25.27192510255761 11.138018493715176 -1 0 0 I I #
vertex $-1 $307 $393 #
point $-1 53.89126359955327 19.509989175622582 5.3760825173241296 #
straight-curve $-1 -58.519852290414136 25.27192510255761 0 0 0 -1 I I #
point $-1 -58.519852290414136 -25.27192510255761 -11.138018493715176 #
straight-curve $-1 -58.519852290414136 0 -11.138018493715176 0 1 0 I I #
point $-1 -58.519852290414136 25.27192510255761 -11.138018493715176 #
coedge $-1 $329 $328 $374 $394 reversed $160 $-1 #
coedge $-1 $334 $330 $373 $394 forward $245 $-1 #
vertex $-1 $331 $395 #
straight-curve $-1 0 25.27192510255761 11.138018493715176 -1 0 0 I I #
point $-1 -46.653605150177597 25.27192510255761 11.138018493715174 #
vertex $-1 $394 $396 #
straight-curve $-1 0 -25.27192510255761 11.138018493715176 1 0 0 I I #
straight-curve $-1 -58.519852290414136 -25.27192510255761 0 0 0 -1 I I #
straight-curve $-1 -58.519852290414136 25.27192510255761 0 0 0 -1 I I #
straight-curve $-1 -21.990819104993029 -25.27192510255761 51.290845749015986 0 0 -1 I I #
point $-1 -21.990819104993029 -25.27192510255761 11.138018493715176 #
straight-curve $-1 -7.6904234448229012 -25.27192510255761 2.2590843293201286 1 0 0 I I #
point $-1 -21.990819104993029 -25.27192510255761 2.2590843293201273 #
point $-1 -18.213692124794612 -16.817686230027451 4.9248871443254032 #
point $-1 -12.548001654496986 -16.817686230027451 4.9248871443254032 #
edge $-1 $365 -11.138018493715176 $359 -3.2448259413552947 $356 $397 forward 7 unknown #
straight-curve $-1 25.945631799776635 25.27192510255761 3.2448259413552982 -1 0 0 I I #
point $-1 58.519852290414136 25.27192510255761 3.2448259413552947 #
straight-curve $-1 58.519852290414136 0 11.138018493715176 0 1 0 I I #
point $-1 58.519852290414136 25.27192510255761 11.138018493715176 #
point $-1 51.89126359955327 18.095775596841005 3.9618689713595208 #
edge $-1 $375 -25.27192510255761 $378 25.27192510255761 $373 $398 forward 7 unknown #
point $-1 -58.519852290414136 25.27192510255761 11.138018493715176 #
point $-1 -58.519852290414136 -25.27192510255761 11.138018493715176 #
straight-curve $-1 58.519852290414136 25.27192510255761 0 0 0 -1 I I #
straight-curve $-1 -58.519852290414136 0 11.138018493715176 0 -1 0 I I #
End-of-ACIS-data 