500 0 7 0           
7 Unknown 11 ACIS 5.0 NT 24 Fri Mar 26 16:22:56 1999 
-1 9.9999999999999995e-007 1e-010 
body $-1 $7 $-1 $8 #
body $-1 $9 $-1 $10 #
body $-1 $11 $-1 $12 #
body $-1 $13 $-1 $14 #
body $-1 $15 $-1 $16 #
body $-1 $17 $-1 $18 #
body $-1 $19 $-1 $20 #
lump $-1 $-1 $21 $0 #
transform $-1 1 0 0 0 1 0 0 0 1 78.049256874294258 49.438738852507157 14.517791958760617 1 rotate no_reflect no_shear #
lump $-1 $-1 $22 $1 #
transform $-1 1 0 0 0 1 0 0 0 1 78.049256874294258 49.438738852507157 14.517791958760617 1 rotate no_reflect no_shear #
lump $-1 $-1 $23 $2 #
transform $-1 1 0 0 0 1 0 0 0 1 78.049256874294258 49.438738852507157 14.517791958760617 1 rotate no_reflect no_shear #
lump $-1 $-1 $24 $3 #
transform $-1 1 0 0 0 1 0 0 0 1 78.049256874294258 49.438738852507157 14.517791958760617 1 rotate no_reflect no_shear #
lump $-1 $-1 $25 $4 #
transform $-1 1 0 0 0 1 0 0 0 1 78.049256874294258 49.438738852507157 14.517791958760617 1 rotate no_reflect no_shear #
lump $-1 $-1 $26 $5 #
transform $-1 1 0 0 0 1 0 0 0 1 78.049256874294258 49.438738852507157 14.517791958760617 1 rotate no_reflect no_shear #
lump $-1 $-1 $27 $6 #
transform $-1 1 0 0 0 1 0 0 0 1 78.049256874294258 49.438738852507157 14.517791958760617 1 rotate no_reflect no_shear #
shell $-1 $-1 $-1 $28 $-1 $7 #
shell $-1 $-1 $-1 $29 $-1 $9 #
shell $-1 $-1 $-1 $30 $-1 $11 #
shell $-1 $-1 $-1 $31 $-1 $13 #
shell $-1 $-1 $-1 $32 $-1 $15 #
shell $-1 $-1 $-1 $33 $-1 $17 #
shell $-1 $-1 $-1 $34 $-1 $19 #
face $-1 $35 $36 $21 $-1 $37 forward single #
face $-1 $38 $39 $22 $-1 $40 reversed single #
face $-1 $41 $42 $23 $-1 $43 reversed single #
face $-1 $44 $45 $24 $-1 $46 forward single #
face $-1 $47 $48 $25 $-1 $49 reversed single #
face $-1 $50 $51 $26 $-1 $52 forward single #
face $-1 $53 $54 $27 $-1 $55 forward single #
face $-1 $56 $57 $21 $-1 $58 reversed single #
loop $-1 $-1 $59 $28 #
plane-surface $-1 0 0 14.517791958760617 0 0 1 1 0 0 forward_v I I I I #
face $-1 $60 $61 $22 $-1 $62 reversed single #
loop $-1 $-1 $63 $29 #
plane-surface $-1 0 -42.01798369290362 11.044279418757213 0 0 1 1 0 0 forward_v I I I I #
face $-1 $64 $65 $23 $-1 $66 reversed single #
loop $-1 $-1 $67 $30 #
plane-surface $-1 81.901994013558408 15.976806387945274 230.09275261100842 0 -1 0 -0.71933980857756763 0 -0.69465836192734942 forward_v I I I I #
face $-1 $68 $69 $24 $-1 $70 forward single #
loop $-1 $71 $72 $31 #
cone-surface $-1 74.931352153710961 3.4234737251540537 11.333260646538093 -0.71933980857756763 0 -0.69465836192734942 0.69465836192734942 0 -0.71933980857756763 1 I I 0 1 1 forward I I I I #
face $-1 $73 $74 $25 $-1 $75 reversed single #
loop $-1 $-1 $76 $32 #
plane-surface $-1 -78.049256874294244 -27.611499911093873 1.5835338228772002 -0.64278761758704617 0 0.76604443648966558 0.76604443648966558 0 0.64278761758704617 forward_v I I I I #
face $-1 $77 $78 $26 $-1 $79 forward single #
loop $-1 $80 $81 $33 #
cone-surface $-1 -69.456696614554716 -30.605383606325109 6.9955604104476627 0.64278761758704617 0 -0.76604443648966558 1.1490666547344983 0 0.96418142638056925 1 I I 0 1 1.5 forward I I I I #
face $-1 $82 $83 $27 $-1 $84 forward single #
loop $-1 $85 $86 $34 #
cone-surface $-1 -69.456696614554716 -24.61761621586264 6.9955604104476627 0.64278761758704617 0 -0.76604443648966558 1.1490666547344983 0 0.96418142638056925 1 I I 0 1 1.5 forward I I I I #
face $-1 $87 $88 $21 $-1 $89 reversed single #
loop $-1 $-1 $90 $35 #
plane-surface $-1 0 0 -14.517791958760617 0 0 1 1 0 0 forward_v I I I I #
coedge $-1 $91 $92 $93 $94 forward $36 $-1 #
face $-1 $95 $96 $22 $-1 $97 reversed single #
loop $-1 $-1 $98 $38 #
plane-surface $-1 0 -34.597228533300083 12.781035688758914 0 -1 0 0 0 -1 forward_v I I I I #
coedge $-1 $99 $100 $101 $102 reversed $39 $-1 #
face $-1 $103 $104 $23 $-1 $105 reversed single #
loop $-1 $-1 $106 $41 #
plane-surface $-1 -30.385880985594071 3.4234737251540537 121.65761475112009 0.71933980857756763 0 0.69465836192734942 0.69465836192734942 0 -0.71933980857756763 forward_v I I I I #
coedge $-1 $107 $108 $109 $110 reversed $42 $-1 #
face $-1 $-1 $111 $24 $-1 $112 forward single #
loop $-1 $113 $114 $44 #
cone-surface $-1 73.939485583950443 3.4234737251540537 10.375426256748378 -0.71933980857756763 0 -0.69465836192734942 0.34732918096367471 0 -0.35966990428878381 1 I I -0.70710678118654746 0.70710678118654746 0.5 forward I I I I #
loop $-1 $-1 $115 $31 #
coedge $-1 $72 $72 $116 $117 reversed $45 $-1 #
face $-1 $118 $119 $25 $-1 $120 forward single #
loop $-1 $-1 $121 $47 #
plane-surface $-1 -178.38744863562823 -20.625771288887655 121.161931824289 0 -1 0 0.64278761758704617 0 -0.76604443648966558 forward_v I I I I #
coedge $-1 $122 $123 $124 $125 reversed $48 $-1 #
face $-1 $-1 $126 $26 $-1 $127 forward single #
loop $-1 $128 $129 $50 #
cone-surface $-1 -68.08926978068736 -30.605383606325109 5.36592460270918 0.64278761758704617 0 -0.76604443648966558 0.57453332736724916 0 0.48209071319028463 1 I I -0.70710678118654757 0.70710678118654757 0.75 forward I I I I #
loop $-1 $-1 $130 $33 #
coedge $-1 $81 $81 $131 $132 reversed $51 $-1 #
face $-1 $-1 $133 $27 $-1 $134 forward single #
loop $-1 $135 $136 $53 #
cone-surface $-1 -68.08926978068736 -24.61761621586264 5.36592460270918 0.64278761758704617 0 -0.76604443648966558 0.57453332736724916 0 0.48209071319028463 1 I I -0.70710678118654757 0.70710678118654757 0.75 forward I I I I #
loop $-1 $-1 $137 $34 #
coedge $-1 $86 $86 $138 $139 reversed $54 $-1 #
face $-1 $140 $141 $21 $-1 $142 reversed single #
loop $-1 $-1 $143 $56 #
plane-surface $-1 0 -49.438738852507157 0 0 1 0 0 0 1 forward_v I I I I #
coedge $-1 $144 $145 $146 $147 forward $57 $-1 #
coedge $-1 $148 $59 $149 $150 forward $36 $-1 #
coedge $-1 $59 $148 $151 $152 forward $36 $-1 #
coedge $-1 $153 $154 $59 $94 reversed $155 $-1 #
edge $-1 $156 -49.438738852507157 $157 49.438738852507157 $93 $158 forward 7 unknown #
face $-1 $159 $160 $22 $-1 $161 reversed single #
loop $-1 $-1 $162 $60 #
plane-surface $-1 -78.049256874294258 0 0 1 0 0 0 0 -1 forward_v I I I I #
coedge $-1 $163 $164 $165 $166 reversed $61 $-1 #
coedge $-1 $167 $63 $168 $169 reversed $39 $-1 #
coedge $-1 $63 $167 $163 $170 forward $39 $-1 #
coedge $-1 $165 $171 $63 $102 forward $172 $-1 #
edge $-1 $173 -28.429747006055347 $174 -13.588236686848273 $101 $175 forward 7 unknown #
face $-1 $176 $177 $23 $-1 $178 reversed single #
loop $-1 $-1 $179 $64 #
plane-surface $-1 81.901994013558408 -9.1298589376371666 230.09275261100842 0 1 0 0.71933980857756763 0 0.69465836192734942 forward_v I I I I #
coedge $-1 $180 $181 $182 $183 reversed $65 $-1 #
coedge $-1 $108 $67 $184 $185 reversed $42 $-1 #
coedge $-1 $67 $107 $180 $186 reversed $42 $-1 #
coedge $-1 $182 $187 $67 $110 forward $188 $-1 #
edge $-1 $189 -37.098259867515054 $190 -32.126843757291994 $109 $191 forward 7 unknown #
loop $-1 $-1 $116 $68 #
plane-surface $-1 -30.385880985594071 3.4234737251540537 121.65761475112009 0.71933980857756763 0 0.69465836192734942 0.69465836192734942 0 -0.71933980857756763 forward_v I I I I #
loop $-1 $-1 $192 $44 #
coedge $-1 $114 $114 $115 $193 reversed $69 $-1 #
coedge $-1 $115 $115 $114 $193 forward $71 $-1 #
coedge $-1 $116 $116 $72 $117 forward $111 $-1 #
edge $-1 $194 0 $194 6.2831853071796004 $116 $195 forward 7 unknown #
face $-1 $196 $197 $25 $-1 $198 reversed single #
loop $-1 $-1 $124 $73 #
plane-surface $-1 0 0 14.517791958760617 0 0 1 1 0 0 forward_v I I I I #
coedge $-1 $199 $200 $201 $202 reversed $74 $-1 #
coedge $-1 $203 $76 $204 $205 reversed $48 $-1 #
coedge $-1 $76 $203 $199 $206 forward $48 $-1 #
coedge $-1 $201 $207 $76 $125 forward $119 $-1 #
edge $-1 $208 -20.791478577753153 $209 -6.8200213333407191 $124 $210 forward 7 unknown #
loop $-1 $-1 $131 $77 #
plane-surface $-1 -78.049256874294244 -27.611499911093873 1.5835338228772002 -0.64278761758704617 0 0.76604443648966558 0.76604443648966558 0 0.64278761758704617 forward_v I I I I #
loop $-1 $-1 $211 $50 #
coedge $-1 $129 $129 $130 $212 reversed $78 $-1 #
coedge $-1 $130 $130 $129 $212 forward $80 $-1 #
coedge $-1 $131 $131 $81 $132 forward $126 $-1 #
edge $-1 $213 0 $213 6.2831853071796004 $131 $214 forward 7 unknown #
loop $-1 $-1 $138 $82 #
plane-surface $-1 -78.049256874294244 -27.611499911093873 1.5835338228772002 -0.64278761758704617 0 0.76604443648966558 0.76604443648966558 0 0.64278761758704617 forward_v I I I I #
loop $-1 $-1 $215 $53 #
coedge $-1 $136 $136 $137 $216 reversed $83 $-1 #
coedge $-1 $137 $137 $136 $216 forward $85 $-1 #
coedge $-1 $138 $138 $86 $139 forward $133 $-1 #
edge $-1 $217 0 $217 6.2831853071796004 $138 $218 forward 7 unknown #
face $-1 $219 $220 $21 $-1 $221 reversed single #
loop $-1 $-1 $222 $87 #
plane-surface $-1 -78.049256874294258 0 0 1 0 0 0 0 -1 forward_v I I I I #
coedge $-1 $223 $151 $224 $225 forward $88 $-1 #
coedge $-1 $226 $90 $223 $227 forward $57 $-1 #
coedge $-1 $90 $226 $228 $229 forward $57 $-1 #
coedge $-1 $154 $153 $90 $147 reversed $155 $-1 #
edge $-1 $230 -49.438738852507157 $231 49.438738852507157 $146 $232 forward 7 unknown #
coedge $-1 $92 $91 $233 $234 forward $36 $-1 #
coedge $-1 $235 $236 $91 $150 reversed $220 $-1 #
edge $-1 $157 -78.049256874294258 $237 78.049256874294258 $149 $238 forward 7 unknown #
coedge $-1 $143 $239 $92 $152 reversed $88 $-1 #
edge $-1 $240 -78.049256874294258 $156 78.049256874294258 $151 $241 forward 7 unknown #
coedge $-1 $146 $93 $239 $242 forward $155 $-1 #
coedge $-1 $93 $146 $235 $243 reversed $155 $-1 #
loop $-1 $-1 $153 $219 #
vertex $-1 $94 $244 #
vertex $-1 $94 $245 #
straight-curve $-1 78.049256874294258 0 14.517791958760617 0 1 0 I I #
face $-1 $246 $247 $22 $-1 $248 forward single #
loop $-1 $-1 $168 $95 #
plane-surface $-1 0 -49.438738852507157 0 0 1 0 0 0 1 forward_v I I I I #
coedge $-1 $249 $250 $251 $252 forward $96 $-1 #
coedge $-1 $251 $98 $100 $170 reversed $61 $-1 #
coedge $-1 $98 $251 $253 $254 reversed $61 $-1 #
coedge $-1 $255 $101 $98 $166 forward $172 $-1 #
edge $-1 $174 4.6537615743777563 $256 8.1272741143811587 $165 $257 forward 7 unknown #
coedge $-1 $100 $99 $249 $258 reversed $39 $-1 #
coedge $-1 $259 $260 $99 $169 forward $160 $-1 #
edge $-1 $261 -78.049256874294258 $173 78.049256874294258 $168 $262 forward 7 unknown #
edge $-1 $263 -78.049256874294258 $174 78.049256874294258 $163 $264 forward 7 unknown #
coedge $-1 $101 $255 $259 $265 forward $172 $-1 #
loop $-1 $-1 $165 $246 #
vertex $-1 $169 $266 #
vertex $-1 $102 $267 #
straight-curve $-1 78.049256874294258 -21.00899184645181 11.044279418757213 0 1 0 I I #
face $-1 $-1 $188 $23 $-1 $268 forward single #
loop $-1 $-1 $269 $103 #
plane-surface $-1 78.049256874294258 0 0 -1 0 0 0 0 1 forward_v I I I I #
coedge $-1 $270 $271 $272 $273 reversed $104 $-1 #
coedge $-1 $274 $106 $108 $186 forward $65 $-1 #
coedge $-1 $106 $274 $270 $275 forward $65 $-1 #
coedge $-1 $272 $109 $106 $183 forward $188 $-1 #
edge $-1 $190 -14.265069525368247 $276 10.841595800214193 $182 $277 forward 7 unknown #
coedge $-1 $278 $279 $107 $185 forward $177 $-1 #
edge $-1 $280 -105.6766365535366 $189 -100.5285843467436 $184 $281 forward 7 unknown #
edge $-1 $190 148.94187908801993 $280 156.09851374858852 $108 $282 forward 7 unknown #
coedge $-1 $109 $272 $278 $283 forward $188 $-1 #
loop $-1 $-1 $272 $176 #
vertex $-1 $185 $284 #
vertex $-1 $110 $285 #
straight-curve $-1 40.950997006779204 15.976806387945274 14.517791958760611 -1 0 0 I I #
coedge $-1 $192 $192 $-1 $286 reversed $113 $-1 #
edge $-1 $287 0 $287 6.2831853071796004 $114 $288 forward 7 unknown #
vertex $-1 $117 $289 #
ellipse-curve $-1 75.563548819182699 3.4234737251540537 11.943765855364136 0.71933980857756763 0 0.69465836192734942 0.69465836192734942 0 -0.71933980857756763 1 I I #
face $-1 $-1 $290 $25 $-1 $291 forward single #
loop $-1 $-1 $292 $118 #
plane-surface $-1 -78.049256874294258 0 0 1 0 0 0 0 -1 forward_v I I I I #
coedge $-1 $200 $121 $123 $206 reversed $74 $-1 #
coedge $-1 $121 $199 $292 $293 reversed $74 $-1 #
coedge $-1 $294 $124 $121 $202 forward $119 $-1 #
edge $-1 $209 -26.558915721644823 $295 -11.144467443519858 $201 $296 forward 7 unknown #
coedge $-1 $123 $122 $297 $298 reversed $48 $-1 #
coedge $-1 $299 $300 $122 $205 forward $290 $-1 #
edge $-1 $301 -33.493407274001271 $208 -13.371273956565558 $204 $302 forward 7 unknown #
edge $-1 $303 -1.8593432412625586e-014 $209 20.122133317435694 $199 $304 forward 7 unknown #
coedge $-1 $124 $294 $299 $305 forward $119 $-1 #
vertex $-1 $205 $306 #
vertex $-1 $125 $307 #
straight-curve $-1 -62.634808596169293 -13.805749955546936 14.517791958760617 0 1 0 I I #
coedge $-1 $211 $211 $-1 $308 reversed $128 $-1 #
edge $-1 $309 0 $309 6.2831853071796004 $129 $310 forward 7 unknown #
vertex $-1 $132 $311 #
ellipse-curve $-1 -70.342032735231783 -30.605383606325109 8.0506628908188986 -0.64278761758704617 0 0.76604443648966558 1.1490666547344983 0 0.96418142638056925 1 I I #
coedge $-1 $215 $215 $-1 $312 reversed $135 $-1 #
edge $-1 $313 0 $313 6.2831853071796004 $136 $314 forward 7 unknown #
vertex $-1 $139 $315 #
ellipse-curve $-1 -70.342032735231783 -24.61761621586264 8.0506628908188986 -0.64278761758704617 0 0.76604443648966558 1.1490666547344983 0 0.96418142638056925 1 I I #
face $-1 $-1 $155 $21 $-1 $316 reversed single #
loop $-1 $-1 $235 $140 #
plane-surface $-1 0 49.438738852507157 0 0 -1 0 0 0 -1 forward_v I I I I #
coedge $-1 $317 $233 $236 $318 forward $141 $-1 #
coedge $-1 $239 $143 $144 $227 reversed $88 $-1 #
coedge $-1 $233 $317 $143 $225 reversed $141 $-1 #
edge $-1 $240 -14.517791958760617 $319 14.517791958760617 $224 $320 forward 7 unknown #
coedge $-1 $145 $144 $317 $321 forward $57 $-1 #
edge $-1 $231 -78.049256874294258 $319 78.049256874294258 $223 $322 forward 7 unknown #
coedge $-1 $236 $235 $145 $229 reversed $220 $-1 #
edge $-1 $323 -78.049256874294258 $230 78.049256874294258 $228 $324 forward 7 unknown #
vertex $-1 $147 $325 #
vertex $-1 $242 $326 #
straight-curve $-1 78.049256874294258 0 -14.517791958760617 0 -1 0 I I #
coedge $-1 $222 $224 $148 $234 reversed $141 $-1 #
edge $-1 $237 -49.438738852507157 $240 49.438738852507157 $233 $327 forward 7 unknown #
coedge $-1 $228 $149 $154 $243 forward $220 $-1 #
coedge $-1 $149 $228 $222 $318 reversed $220 $-1 #
vertex $-1 $150 $328 #
straight-curve $-1 0 49.438738852507157 14.517791958760617 -1 0 0 I I #
coedge $-1 $151 $223 $153 $242 reversed $88 $-1 #
vertex $-1 $234 $329 #
straight-curve $-1 0 -49.438738852507157 14.517791958760617 1 0 0 I I #
edge $-1 $156 -14.517791958760617 $231 14.517791958760617 $153 $330 forward 7 unknown #
edge $-1 $157 -14.517791958760617 $230 14.517791958760617 $154 $331 forward 7 unknown #
point $-1 78.049256874294258 -49.438738852507157 14.517791958760617 #
point $-1 78.049256874294258 49.438738852507157 14.517791958760617 #
face $-1 $-1 $172 $22 $-1 $332 reversed single #
loop $-1 $-1 $253 $159 #
plane-surface $-1 0 0 14.517791958760617 0 0 1 1 0 0 forward_v I I I I #
coedge $-1 $333 $162 $167 $258 forward $96 $-1 #
coedge $-1 $162 $333 $334 $335 reversed $96 $-1 #
coedge $-1 $164 $163 $162 $252 reversed $61 $-1 #
edge $-1 $336 -8.1272741143811587 $263 -4.6537615743777563 $162 $337 forward 7 unknown #
coedge $-1 $334 $338 $164 $254 forward $247 $-1 #
edge $-1 $256 -78.049256874294258 $336 78.049256874294258 $253 $339 forward 7 unknown #
coedge $-1 $171 $165 $338 $340 reversed $172 $-1 #
vertex $-1 $166 $341 #
straight-curve $-1 78.049256874294258 -34.597228533300083 6.390517844379457 0 0 1 I I #
edge $-1 $263 13.588236686848273 $261 28.429747006055347 $249 $342 forward 7 unknown #
coedge $-1 $343 $168 $171 $265 reversed $160 $-1 #
coedge $-1 $168 $343 $333 $344 forward $160 $-1 #
vertex $-1 $169 $345 #
straight-curve $-1 0 -49.438738852507157 11.044279418757213 1 0 0 I I #
vertex $-1 $258 $346 #
straight-curve $-1 0 -34.597228533300083 11.044279418757213 1 0 0 I I #
edge $-1 $347 -14.517791958760617 $173 -11.044279418757213 $171 $348 forward 7 unknown #
point $-1 78.049256874294258 -49.438738852507157 11.044279418757213 #
point $-1 78.049256874294258 -34.597228533300083 11.044279418757213 #
plane-surface $-1 0 0 14.517791958760617 0 0 1 1 0 0 forward_v I I I I #
coedge $-1 $279 $278 $271 $349 forward $177 $-1 #
coedge $-1 $271 $179 $181 $275 reversed $104 $-1 #
coedge $-1 $179 $270 $269 $349 reversed $104 $-1 #
coedge $-1 $187 $182 $179 $273 forward $188 $-1 #
edge $-1 $276 32.126843757291994 $350 37.098259867515054 $272 $351 forward 7 unknown #
coedge $-1 $181 $180 $279 $352 reversed $65 $-1 #
edge $-1 $353 -156.09851374858852 $276 -148.94187908801993 $270 $354 forward 7 unknown #
vertex $-1 $183 $355 #
straight-curve $-1 73.077840764071198 1.7117368625770268 14.517791958760611 0 -1 0 I I #
coedge $-1 $269 $184 $187 $283 reversed $177 $-1 #
coedge $-1 $184 $269 $274 $352 forward $177 $-1 #
vertex $-1 $185 $356 #
straight-curve $-1 78.049256874294258 15.976806387945274 115.04637630550421 0 0 1 I I #
straight-curve $-1 -30.385880985594071 15.976806387945274 121.65761475112009 0.69465836192734942 0 -0.71933980857756763 I I #
edge $-1 $350 -9.1298589376371666 $189 15.976806387945274 $278 $357 forward 7 unknown #
point $-1 78.049256874294258 15.976806387945274 14.517791958760617 #
point $-1 73.077840764071198 15.976806387945274 14.517791958760611 #
edge $-1 $358 1 $358 0 $192 $-1 forward 7 unknown #
vertex $-1 $193 $359 #
ellipse-curve $-1 74.299155488239222 3.4234737251540537 10.722755437712053 0.71933980857756763 0 0.69465836192734942 0.69465836192734942 0 -0.71933980857756763 1 I I #
point $-1 76.258207181110052 3.4234737251540537 11.224426046786565 #
loop $-1 $-1 $204 $196 #
plane-surface $-1 0 -34.597228533300083 12.781035688758914 0 -1 0 0 0 -1 forward_v I I I I #
coedge $-1 $297 $360 $200 $293 forward $197 $-1 #
edge $-1 $295 46.063173953383881 $303 58.997432089267313 $292 $361 forward 7 unknown #
coedge $-1 $207 $201 $360 $362 forward $119 $-1 #
vertex $-1 $362 $363 #
straight-curve $-1 -89.193724317814116 -20.625771288887655 14.517791958760618 -1 0 0 I I #
coedge $-1 $364 $292 $203 $298 forward $197 $-1 #
edge $-1 $303 6.8200213333407191 $301 20.791478577753153 $297 $365 forward 7 unknown #
coedge $-1 $300 $204 $207 $305 reversed $290 $-1 #
coedge $-1 $204 $299 $364 $366 reversed $290 $-1 #
vertex $-1 $366 $367 #
straight-curve $-1 -52.391818572963089 -34.597228533300083 23.112681289405106 0.76604443648966558 0 0.64278761758704617 I I #
vertex $-1 $298 $368 #
straight-curve $-1 -78.049256874294244 -20.625771288887655 1.5835338228772002 0.76604443648966558 0 0.64278761758704617 I I #
edge $-1 $369 -78.049256874294258 $208 -62.634808596169293 $207 $370 forward 7 unknown #
point $-1 -62.634808596169293 -34.59722853330009 14.517791958760615 #
point $-1 -62.634808596169293 -20.625771288887655 14.517791958760615 #
edge $-1 $371 1 $371 0 $211 $-1 forward 7 unknown #
vertex $-1 $212 $372 #
ellipse-curve $-1 -68.571360493877648 -30.605383606325109 5.9404579300764295 -0.64278761758704617 0 0.76604443648966558 1.1490666547344983 0 0.96418142638056925 1 I I #
point $-1 -69.192966080497271 -30.605383606325109 9.014844317199465 #
edge $-1 $373 1 $373 0 $215 $-1 forward 7 unknown #
vertex $-1 $216 $374 #
ellipse-curve $-1 -68.571360493877648 -24.61761621586264 5.9404579300764295 -0.64278761758704617 0 0.76604443648966558 1.1490666547344983 0 0.96418142638056925 1 I I #
point $-1 -69.192966080497271 -24.61761621586264 9.014844317199465 #
plane-surface $-1 78.049256874294258 0 0 -1 0 0 0 0 1 forward_v I I I I #
coedge $-1 $224 $222 $226 $321 reversed $141 $-1 #
edge $-1 $237 -14.517791958760617 $323 14.517791958760617 $236 $375 forward 7 unknown #
vertex $-1 $321 $376 #
straight-curve $-1 -78.049256874294258 -49.438738852507157 0 0 0 -1 I I #
edge $-1 $319 -49.438738852507157 $323 49.438738852507157 $317 $377 forward 7 unknown #
straight-curve $-1 0 -49.438738852507157 -14.517791958760617 -1 0 0 I I #
vertex $-1 $229 $378 #
straight-curve $-1 0 49.438738852507157 -14.517791958760617 1 0 0 I I #
point $-1 78.049256874294258 49.438738852507157 -14.517791958760617 #
point $-1 78.049256874294258 -49.438738852507157 -14.517791958760617 #
straight-curve $-1 -78.049256874294258 0 14.517791958760617 0 -1 0 I I #
point $-1 -78.049256874294258 49.438738852507157 14.517791958760617 #
point $-1 -78.049256874294258 -49.438738852507157 14.517791958760617 #
straight-curve $-1 78.049256874294258 -49.438738852507157 0 0 0 -1 I I #
straight-curve $-1 78.049256874294258 49.438738852507157 0 0 0 -1 I I #
plane-surface $-1 78.049256874294258 0 0 -1 0 0 0 0 1 forward_v I I I I #
coedge $-1 $250 $249 $260 $344 reversed $96 $-1 #
coedge $-1 $379 $253 $250 $335 forward $247 $-1 #
edge $-1 $336 34.597228533300083 $380 49.438738852507157 $250 $381 forward 7 unknown #
vertex $-1 $335 $382 #
straight-curve $-1 -78.049256874294258 -34.597228533300083 6.390517844379457 0 0 -1 I I #
coedge $-1 $253 $379 $255 $340 forward $247 $-1 #
straight-curve $-1 0 -34.597228533300083 14.517791958760617 -1 0 0 I I #
edge $-1 $347 -49.438738852507157 $256 -34.597228533300083 $255 $383 forward 7 unknown #
point $-1 78.049256874294258 -34.597228533300083 14.517791958760615 #
straight-curve $-1 -78.049256874294258 -21.00899184645181 11.044279418757213 0 -1 0 I I #
coedge $-1 $260 $259 $379 $384 reversed $160 $-1 #
edge $-1 $380 -14.517791958760617 $261 -11.044279418757213 $333 $385 forward 7 unknown #
point $-1 -78.049256874294258 -49.438738852507157 11.044279418757213 #
point $-1 -78.049256874294258 -34.597228533300083 11.044279418757213 #
vertex $-1 $340 $386 #
straight-curve $-1 78.049256874294258 -49.438738852507157 0 0 0 -1 I I #
edge $-1 $350 100.5285843467436 $353 105.6766365535366 $269 $387 forward 7 unknown #
vertex $-1 $283 $388 #
straight-curve $-1 40.950997006779204 -9.1298589376371666 14.517791958760611 1 0 0 I I #
edge $-1 $353 -10.841595800214193 $280 14.265069525368247 $279 $389 forward 7 unknown #
vertex $-1 $352 $390 #
straight-curve $-1 -30.385880985594071 -9.1298589376371666 121.65761475112009 -0.69465836192734942 0 0.71933980857756763 I I #
point $-1 73.077840764071198 -9.1298589376371666 14.517791958760611 #
point $-1 78.049256874294258 15.976806387945274 9.3697397519676144 #
straight-curve $-1 78.049256874294258 0 14.517791958760617 0 1 0 I I #
vertex $-1 $286 $391 #
point $-1 74.993813850166575 3.4234737251540537 10.003415629134485 #
coedge $-1 $292 $364 $294 $362 reversed $197 $-1 #
straight-curve $-1 -78.049256874294258 -20.625771288887655 60.580965912144499 0 0 -1 I I #
edge $-1 $295 20.625771288887655 $369 34.597228533300083 $360 $392 forward 7 unknown #
point $-1 -78.049256874294258 -20.625771288887655 14.517791958760617 #
coedge $-1 $360 $297 $300 $366 forward $197 $-1 #
straight-curve $-1 -78.049256874294258 -13.805749955546936 1.583533822877196 0 -1 0 I I #
edge $-1 $301 -58.997432089267313 $369 -46.063173953383881 $364 $393 forward 7 unknown #
point $-1 -78.049256874294258 -34.59722853330009 1.5835338228771882 #
point $-1 -78.049256874294258 -20.625771288887655 1.5835338228771882 #
vertex $-1 $366 $394 #
straight-curve $-1 0 -34.597228533300083 14.517791958760617 1 0 0 I I #
vertex $-1 $308 $395 #
point $-1 -67.422293839143151 -30.605383606325109 6.9046393564569986 #
vertex $-1 $312 $396 #
point $-1 -67.422293839143151 -24.61761621586264 6.9046393564569986 #
straight-curve $-1 -78.049256874294258 49.438738852507157 0 0 0 -1 I I #
point $-1 -78.049256874294258 -49.438738852507157 -14.517791958760617 #
straight-curve $-1 -78.049256874294258 0 -14.517791958760617 0 1 0 I I #
point $-1 -78.049256874294258 49.438738852507157 -14.517791958760617 #
coedge $-1 $338 $334 $343 $384 forward $247 $-1 #
vertex $-1 $335 $397 #
straight-curve $-1 -78.049256874294258 0 14.517791958760617 0 -1 0 I I #
point $-1 -78.049256874294258 -34.597228533300083 14.517791958760615 #
straight-curve $-1 78.049256874294258 0 14.517791958760617 0 1 0 I I #
edge $-1 $380 -78.049256874294258 $347 78.049256874294258 $343 $398 forward 7 unknown #
straight-curve $-1 -78.049256874294258 -49.438738852507157 0 0 0 -1 I I #
point $-1 78.049256874294258 -49.438738852507157 14.517791958760617 #
straight-curve $-1 78.049256874294258 -9.1298589376371666 115.04637630550421 0 0 -1 I I #
point $-1 78.049256874294258 -9.1298589376371666 14.517791958760617 #
straight-curve $-1 78.049256874294258 1.7117368625770268 9.3697397519676215 0 1 0 I I #
point $-1 78.049256874294258 -9.1298589376371666 9.3697397519676144 #
point $-1 73.579815679661664 3.4234737251540537 10.028097075784704 #
straight-curve $-1 -78.049256874294258 0 14.517791958760617 0 -1 0 I I #
straight-curve $-1 -78.049256874294258 -34.59722853330009 60.580965912144499 0 0 1 I I #
point $-1 -78.049256874294258 -34.597228533300083 14.517791958760615 #
point $-1 -67.607179067497071 -30.605383606325109 4.7913912753419305 #
point $-1 -67.607179067497071 -24.61761621586264 4.7913912753419305 #
point $-1 -78.049256874294258 -49.438738852507157 14.517791958760617 #
straight-curve $-1 0 -49.438738852507157 14.517791958760617 1 0 0 I I #
End-of-ACIS-data 