500 0 9 0           
7 Unknown 11 ACIS 5.0 NT 24 Thu Mar 25 17:05:59 1999 
-1 9.9999999999999995e-007 1e-010 
body $-1 $9 $-1 $10 #
body $-1 $11 $-1 $12 #
body $-1 $13 $-1 $14 #
body $-1 $15 $-1 $16 #
body $-1 $17 $-1 $18 #
body $-1 $19 $-1 $20 #
body $-1 $21 $-1 $22 #
body $-1 $23 $-1 $24 #
body $-1 $25 $-1 $26 #
lump $-1 $-1 $27 $0 #
transform $-1 1 0 0 0 1 0 0 0 1 48.902859584337904 22.399769247395575 5.7879685739875137 1 rotate no_reflect no_shear #
lump $-1 $-1 $28 $1 #
transform $-1 1 0 0 0 1 0 0 0 1 48.902859584337904 22.399769247395575 5.7879685739875137 1 rotate no_reflect no_shear #
lump $-1 $-1 $29 $2 #
transform $-1 1 0 0 0 1 0 0 0 1 48.902859584337904 22.399769247395575 5.7879685739875137 1 rotate no_reflect no_shear #
lump $-1 $-1 $30 $3 #
transform $-1 1 0 0 0 1 0 0 0 1 48.902859584337904 22.399769247395575 5.7879685739875137 1 rotate no_reflect no_shear #
lump $-1 $-1 $31 $4 #
transform $-1 1 0 0 0 1 0 0 0 1 48.902859584337904 22.399769247395575 5.7879685739875137 1 rotate no_reflect no_shear #
lump $-1 $-1 $32 $5 #
transform $-1 1 0 0 0 1 0 0 0 1 48.902859584337904 22.399769247395575 5.7879685739875137 1 rotate no_reflect no_shear #
lump $-1 $-1 $33 $6 #
transform $-1 1 0 0 0 1 0 0 0 1 48.902859584337904 22.399769247395575 5.7879685739875137 1 rotate no_reflect no_shear #
lump $-1 $-1 $34 $7 #
transform $-1 1 0 0 0 1 0 0 0 1 48.902859584337904 22.399769247395575 5.7879685739875137 1 rotate no_reflect no_shear #
lump $-1 $-1 $35 $8 #
transform $-1 1 0 0 0 1 0 0 0 1 48.902859584337904 22.399769247395575 5.7879685739875137 1 rotate no_reflect no_shear #
shell $-1 $-1 $-1 $36 $-1 $9 #
shell $-1 $-1 $-1 $37 $-1 $11 #
shell $-1 $-1 $-1 $38 $-1 $13 #
shell $-1 $-1 $-1 $39 $-1 $15 #
shell $-1 $-1 $-1 $40 $-1 $17 #
shell $-1 $-1 $-1 $41 $-1 $19 #
shell $-1 $-1 $-1 $42 $-1 $21 #
shell $-1 $-1 $-1 $43 $-1 $23 #
shell $-1 $-1 $-1 $44 $-1 $25 #
face $-1 $45 $46 $27 $-1 $47 reversed single #
face $-1 $48 $49 $28 $-1 $50 forward single #
face $-1 $51 $52 $29 $-1 $53 forward single #
face $-1 $54 $55 $30 $-1 $56 reversed single #
face $-1 $57 $58 $31 $-1 $59 forward single #
face $-1 $60 $61 $32 $-1 $62 forward single #
face $-1 $63 $64 $33 $-1 $65 reversed single #
face $-1 $66 $67 $34 $-1 $68 forward single #
face $-1 $69 $70 $35 $-1 $71 forward single #
face $-1 $72 $73 $27 $-1 $74 forward single #
loop $-1 $-1 $75 $36 #
plane-surface $-1 0 -22.399769247395575 0 0 1 0 0 0 1 forward_v I I I I #
face $-1 $76 $77 $28 $-1 $78 forward single #
loop $-1 $-1 $79 $37 #
plane-surface $-1 0 -22.399769247395575 0 0 1 0 0 0 1 forward_v I I I I #
face $-1 $80 $81 $29 $-1 $82 forward single #
loop $-1 $-1 $83 $38 #
plane-surface $-1 0 22.399769247395575 0 0 -1 0 0 0 -1 forward_v I I I I #
face $-1 $84 $85 $30 $-1 $86 reversed single #
loop $-1 $-1 $87 $39 #
plane-surface $-1 84.702239502359902 -11.23383421611106 136.10505351549691 0 -1 0 -0.86602541151947299 0 -0.49999998660252726 forward_v I I I I #
face $-1 $88 $89 $31 $-1 $90 forward single #
loop $-1 $91 $92 $40 #
cone-surface $-1 47.520679743107372 -15.641577506751776 3.8939628184414863 -0.86602541151947299 0 -0.49999998660252726 0.24999999330126363 0 -0.43301270575973649 1 I I 0 1 0.5 forward I I I I #
face $-1 $93 $94 $32 $-1 $95 forward single #
loop $-1 $96 $97 $41 #
cone-surface $-1 47.520679743107372 -12.996931532367347 3.8939628184414863 -0.86602541151947299 0 -0.49999998660252726 0.24999999330126363 0 -0.43301270575973649 1 I I 0 1 0.5 forward I I I I #
face $-1 $98 $99 $33 $-1 $100 reversed single #
loop $-1 $-1 $101 $42 #
plane-surface $-1 -133.60509777634837 -17.404674823008065 51.40281532348645 0 1 0 -0.86602541151947299 0 0.49999998660252726 forward_v I I I I #
face $-1 $102 $103 $34 $-1 $104 forward single #
loop $-1 $105 $106 $43 #
cone-surface $-1 -47.520679743107372 -15.641577506751776 3.8939628184414969 0.86602541151947299 0 -0.49999998660252726 0.24999999330126363 0 0.43301270575973649 1 I I 0 1 0.5 forward I I I I #
face $-1 $107 $108 $35 $-1 $109 forward single #
loop $-1 $110 $111 $44 #
cone-surface $-1 -47.520679743107372 -12.996931532367347 3.8939628184414969 0.86602541151947299 0 -0.49999998660252726 0.24999999330126363 0 0.43301270575973649 1 I I 0 1 0.5 forward I I I I #
face $-1 $112 $113 $27 $-1 $114 reversed single #
loop $-1 $-1 $115 $45 #
plane-surface $-1 0 0 5.7879685739875137 0 0 1 1 0 0 forward_v I I I I #
coedge $-1 $116 $117 $118 $119 reversed $46 $-1 #
face $-1 $120 $121 $28 $-1 $122 reversed single #
loop $-1 $-1 $123 $48 #
plane-surface $-1 0 0 5.7879685739875137 0 0 1 1 0 0 forward_v I I I I #
coedge $-1 $124 $125 $126 $127 forward $49 $-1 #
face $-1 $128 $129 $29 $-1 $130 reversed single #
loop $-1 $-1 $131 $51 #
plane-surface $-1 0 0 5.7879685739875137 0 0 1 1 0 0 forward_v I I I I #
coedge $-1 $132 $133 $134 $135 forward $52 $-1 #
face $-1 $136 $137 $30 $-1 $138 reversed single #
loop $-1 $-1 $139 $54 #
plane-surface $-1 1.3103494325150677e-006 -14.319254519559562 87.202195241508463 0.86602541151947299 0 0.49999998660252726 0.49999998660252726 0 -0.86602541151947299 forward_v I I I I #
coedge $-1 $140 $141 $142 $143 reversed $55 $-1 #
face $-1 $-1 $144 $31 $-1 $145 forward single #
loop $-1 $146 $147 $57 #
cone-surface $-1 46.871160684467768 -15.641577506751776 3.5189628284895909 -0.86602541151947299 0 -0.49999998660252726 0.12499999665063181 0 -0.21650635287986825 1 I I -0.70710678118654746 0.70710678118654746 0.25 forward I I I I #
loop $-1 $-1 $148 $40 #
coedge $-1 $92 $92 $149 $150 reversed $58 $-1 #
face $-1 $-1 $151 $32 $-1 $152 forward single #
loop $-1 $153 $154 $60 #
cone-surface $-1 46.871160684467768 -12.996931532367347 3.5189628284895909 -0.86602541151947299 0 -0.49999998660252726 0.12499999665063181 0 -0.21650635287986825 1 I I -0.70710678118654746 0.70710678118654746 0.25 forward I I I I #
loop $-1 $-1 $155 $41 #
coedge $-1 $97 $97 $156 $157 reversed $61 $-1 #
face $-1 $158 $159 $33 $-1 $160 reversed single #
loop $-1 $-1 $161 $63 #
plane-surface $-1 -48.902859584337904 -14.319254519559562 2.4999570494980006 -0.86602541151947299 0 0.49999998660252726 0.49999998660252726 0 0.86602541151947299 forward_v I I I I #
coedge $-1 $162 $163 $164 $165 reversed $64 $-1 #
face $-1 $-1 $166 $34 $-1 $167 forward single #
loop $-1 $168 $169 $66 #
cone-surface $-1 -46.871160684467768 -15.641577506751776 3.5189628284896015 0.86602541151947299 0 -0.49999998660252726 0.12499999665063181 0 0.21650635287986825 1 I I -0.70710678118654746 0.70710678118654746 0.25 forward I I I I #
loop $-1 $-1 $170 $43 #
coedge $-1 $106 $106 $171 $172 reversed $67 $-1 #
face $-1 $-1 $173 $35 $-1 $174 forward single #
loop $-1 $175 $176 $69 #
cone-surface $-1 -46.871160684467768 -12.996931532367347 3.5189628284896015 0.86602541151947299 0 -0.49999998660252726 0.12499999665063181 0 0.21650635287986825 1 I I -0.70710678118654746 0.70710678118654746 0.25 forward I I I I #
loop $-1 $-1 $177 $44 #
coedge $-1 $111 $111 $178 $179 reversed $70 $-1 #
face $-1 $180 $181 $27 $-1 $182 reversed single #
loop $-1 $-1 $183 $72 #
plane-surface $-1 0 0 -5.7879685739875137 0 0 1 1 0 0 forward_v I I I I #
coedge $-1 $184 $185 $186 $187 forward $73 $-1 #
coedge $-1 $188 $75 $189 $190 reversed $46 $-1 #
coedge $-1 $75 $188 $191 $192 forward $46 $-1 #
coedge $-1 $193 $183 $75 $119 forward $113 $-1 #
edge $-1 $194 -48.902859584337904 $195 48.902859584337904 $75 $196 forward 7 unknown #
face $-1 $197 $198 $28 $-1 $199 reversed single #
loop $-1 $-1 $200 $76 #
plane-surface $-1 -48.902859584337904 0 0 1 0 0 0 0 -1 forward_v I I I I #
coedge $-1 $201 $202 $125 $203 forward $77 $-1 #
coedge $-1 $204 $79 $205 $206 reversed $49 $-1 #
coedge $-1 $79 $204 $123 $203 reversed $49 $-1 #
coedge $-1 $207 $208 $79 $127 reversed $209 $-1 #
edge $-1 $210 -5.7879685739875137 $211 5.7879685739875137 $126 $212 forward 7 unknown #
face $-1 $213 $214 $29 $-1 $215 reversed single #
loop $-1 $-1 $216 $80 #
plane-surface $-1 -47.262808562916902 27.394863671783082 0 0 -1 0 0 0 -1 forward_v I I I I #
coedge $-1 $217 $218 $132 $219 forward $81 $-1 #
coedge $-1 $220 $83 $131 $219 reversed $52 $-1 #
coedge $-1 $83 $220 $221 $222 reversed $52 $-1 #
coedge $-1 $223 $224 $83 $135 reversed $214 $-1 #
edge $-1 $225 -5.7879685739875137 $226 5.7879685739875137 $134 $227 forward 7 unknown #
face $-1 $228 $229 $30 $-1 $230 forward single #
loop $-1 $-1 $231 $84 #
plane-surface $-1 84.702239502359902 -17.404674823008065 136.10505351549691 0 1 0 0.86602541151947299 0 0.49999998660252726 forward_v I I I I #
coedge $-1 $232 $233 $234 $235 reversed $85 $-1 #
coedge $-1 $141 $87 $236 $237 reversed $55 $-1 #
coedge $-1 $87 $140 $232 $238 reversed $55 $-1 #
coedge $-1 $234 $239 $87 $143 forward $229 $-1 #
edge $-1 $240 -6.5517398331579528 $241 -4.6534055622163351 $142 $242 forward 7 unknown #
loop $-1 $-1 $149 $88 #
plane-surface $-1 1.3103494325150677e-006 -14.319254519559562 87.202195241508463 0.86602541151947299 0 0.49999998660252726 0.49999998660252726 0 -0.86602541151947299 forward_v I I I I #
loop $-1 $-1 $243 $57 #
coedge $-1 $147 $147 $148 $244 reversed $89 $-1 #
coedge $-1 $148 $148 $147 $244 forward $91 $-1 #
coedge $-1 $149 $149 $92 $150 forward $144 $-1 #
edge $-1 $245 0 $245 6.2831853071796004 $149 $246 forward 7 unknown #
loop $-1 $-1 $156 $93 #
plane-surface $-1 1.3103494325150677e-006 -14.319254519559562 87.202195241508463 0.86602541151947299 0 0.49999998660252726 0.49999998660252726 0 -0.86602541151947299 forward_v I I I I #
loop $-1 $-1 $247 $60 #
coedge $-1 $154 $154 $155 $248 reversed $94 $-1 #
coedge $-1 $155 $155 $154 $248 forward $96 $-1 #
coedge $-1 $156 $156 $97 $157 forward $151 $-1 #
edge $-1 $249 0 $249 6.2831853071796004 $156 $250 forward 7 unknown #
face $-1 $251 $252 $33 $-1 $253 reversed single #
loop $-1 $-1 $254 $98 #
plane-surface $-1 -133.60509777634837 -11.23383421611106 51.40281532348645 0 -1 0 0.86602541151947299 0 -0.49999998660252726 forward_v I I I I #
coedge $-1 $255 $256 $257 $258 reversed $99 $-1 #
coedge $-1 $163 $101 $259 $260 reversed $64 $-1 #
coedge $-1 $101 $162 $255 $261 reversed $64 $-1 #
coedge $-1 $257 $262 $101 $165 forward $263 $-1 #
edge $-1 $264 17.899689303836283 $265 19.798023574777872 $164 $266 forward 7 unknown #
loop $-1 $-1 $171 $102 #
plane-surface $-1 -48.902859584337904 -14.319254519559562 2.4999570494980006 -0.86602541151947299 0 0.49999998660252726 0.49999998660252726 0 0.86602541151947299 forward_v I I I I #
loop $-1 $-1 $267 $66 #
coedge $-1 $169 $169 $170 $268 reversed $103 $-1 #
coedge $-1 $170 $170 $169 $268 forward $105 $-1 #
coedge $-1 $171 $171 $106 $172 forward $166 $-1 #
edge $-1 $269 0 $269 6.2831853071796004 $171 $270 forward 7 unknown #
loop $-1 $-1 $178 $107 #
plane-surface $-1 -48.902859584337904 -14.319254519559562 2.4999570494980006 -0.86602541151947299 0 0.49999998660252726 0.49999998660252726 0 0.86602541151947299 forward_v I I I I #
loop $-1 $-1 $271 $69 #
coedge $-1 $176 $176 $177 $272 reversed $108 $-1 #
coedge $-1 $177 $177 $176 $272 forward $110 $-1 #
coedge $-1 $178 $178 $111 $179 forward $173 $-1 #
edge $-1 $273 0 $273 6.2831853071796004 $178 $274 forward 7 unknown #
face $-1 $275 $276 $27 $-1 $277 reversed single #
loop $-1 $-1 $278 $112 #
plane-surface $-1 -48.902859584337904 0 0 1 0 0 0 0 -1 forward_v I I I I #
coedge $-1 $118 $279 $280 $281 forward $113 $-1 #
coedge $-1 $282 $115 $283 $284 forward $73 $-1 #
coedge $-1 $115 $282 $188 $285 forward $73 $-1 #
coedge $-1 $189 $286 $115 $187 reversed $287 $-1 #
edge $-1 $288 -22.399769247395575 $289 22.399769247395575 $186 $290 forward 7 unknown #
coedge $-1 $117 $116 $185 $285 reversed $46 $-1 #
coedge $-1 $280 $186 $116 $190 forward $287 $-1 #
edge $-1 $288 -5.7879685739875137 $194 5.7879685739875137 $189 $291 forward 7 unknown #
coedge $-1 $292 $293 $117 $192 reversed $181 $-1 #
edge $-1 $294 -5.7879685739875137 $195 5.7879685739875137 $191 $295 forward 7 unknown #
coedge $-1 $279 $118 $293 $296 forward $113 $-1 #
vertex $-1 $190 $297 #
vertex $-1 $296 $298 #
straight-curve $-1 0 -22.399769247395575 -5.7879685739875137 -1 0 0 I I #
face $-1 $299 $209 $28 $-1 $300 reversed single #
loop $-1 $-1 $301 $120 #
plane-surface $-1 -47.262808562916902 -27.394863671783085 0 0 1 0 0 0 1 forward_v I I I I #
coedge $-1 $302 $303 $204 $304 forward $121 $-1 #
coedge $-1 $305 $123 $303 $306 forward $77 $-1 #
coedge $-1 $123 $305 $207 $307 forward $77 $-1 #
edge $-1 $210 45.622757541495901 $308 48.902859584337904 $123 $309 forward 7 unknown #
coedge $-1 $125 $124 $200 $304 reversed $49 $-1 #
coedge $-1 $310 $311 $124 $206 forward $312 $-1 #
edge $-1 $313 -48.902859584337904 $211 -45.622757541495901 $205 $314 forward 7 unknown #
coedge $-1 $315 $126 $202 $307 reversed $209 $-1 #
coedge $-1 $126 $315 $310 $316 reversed $209 $-1 #
loop $-1 $-1 $315 $197 #
vertex $-1 $203 $317 #
vertex $-1 $316 $318 #
straight-curve $-1 -45.622757541495901 -22.399769247395575 0 0 0 -1 I I #
face $-1 $319 $320 $29 $-1 $321 reversed single #
loop $-1 $-1 $134 $128 #
plane-surface $-1 -45.622757541495901 24.897316459589327 0 -1 0 0 0 0 1 forward_v I I I I #
coedge $-1 $322 $323 $324 $325 forward $129 $-1 #
coedge $-1 $326 $131 $224 $327 forward $81 $-1 #
coedge $-1 $131 $326 $328 $329 forward $81 $-1 #
edge $-1 $330 -48.902859584337904 $226 -45.622757541495901 $131 $331 forward 7 unknown #
coedge $-1 $133 $132 $332 $333 reversed $52 $-1 #
coedge $-1 $334 $335 $133 $222 forward $320 $-1 #
edge $-1 $225 45.622757541495901 $336 48.902859584337904 $221 $337 forward 7 unknown #
coedge $-1 $324 $134 $335 $338 reversed $214 $-1 #
coedge $-1 $134 $324 $217 $327 reversed $214 $-1 #
vertex $-1 $222 $339 #
vertex $-1 $327 $340 #
straight-curve $-1 -45.622757541495901 22.399769247395575 0 0 0 1 I I #
face $-1 $-1 $341 $30 $-1 $342 reversed single #
loop $-1 $-1 $142 $136 #
plane-surface $-1 0 0 5.7879685739875137 0 0 1 1 0 0 forward_v I I I I #
coedge $-1 $343 $344 $345 $346 reversed $137 $-1 #
coedge $-1 $347 $139 $141 $238 forward $85 $-1 #
coedge $-1 $139 $347 $343 $348 forward $85 $-1 #
coedge $-1 $345 $142 $139 $235 forward $229 $-1 #
edge $-1 $241 4.0742069563312784 $349 10.245047563228283 $234 $350 forward 7 unknown #
coedge $-1 $351 $352 $140 $237 forward $341 $-1 #
edge $-1 $353 -65.552569708250502 $240 -62.26455818376094 $236 $354 forward 7 unknown #
edge $-1 $241 94.009050525061085 $353 97.805719168675864 $141 $355 forward 7 unknown #
coedge $-1 $142 $345 $351 $356 forward $229 $-1 #
vertex $-1 $143 $357 #
vertex $-1 $143 $358 #
straight-curve $-1 42.351119751179951 -11.23383421611106 5.7879685739875129 -1 0 0 I I #
coedge $-1 $243 $243 $-1 $359 reversed $146 $-1 #
edge $-1 $360 0 $360 6.2831853071796004 $147 $361 forward 7 unknown #
vertex $-1 $150 $362 #
ellipse-curve $-1 47.953692448867088 -15.641577506751776 4.1439628117427389 0.86602541151947299 0 0.49999998660252726 0.24999999330126363 0 -0.43301270575973649 1 I I #
coedge $-1 $247 $247 $-1 $363 reversed $153 $-1 #
edge $-1 $364 0 $364 6.2831853071796004 $154 $365 forward 7 unknown #
vertex $-1 $157 $366 #
ellipse-curve $-1 47.953692448867088 -12.996931532367347 4.1439628117427389 0.86602541151947299 0 0.49999998660252726 0.24999999330126363 0 -0.43301270575973649 1 I I #
face $-1 $-1 $263 $33 $-1 $367 forward single #
loop $-1 $-1 $368 $158 #
plane-surface $-1 -48.902859584337904 0 0 1 0 0 0 0 -1 forward_v I I I I #
coedge $-1 $369 $370 $371 $372 reversed $159 $-1 #
coedge $-1 $373 $161 $163 $261 forward $99 $-1 #
coedge $-1 $161 $373 $369 $374 forward $99 $-1 #
coedge $-1 $371 $164 $161 $258 forward $263 $-1 #
edge $-1 $265 -10.245047563228283 $375 -4.0742069563312784 $257 $376 forward 7 unknown #
coedge $-1 $377 $378 $162 $260 forward $252 $-1 #
edge $-1 $379 -23.201450612245225 $264 -19.913439087755712 $259 $380 forward 7 unknown #
edge $-1 $265 -3.7966686436147135 $379 0 $163 $381 forward 7 unknown #
coedge $-1 $164 $371 $377 $382 forward $263 $-1 #
loop $-1 $-1 $371 $251 #
vertex $-1 $260 $383 #
vertex $-1 $165 $384 #
straight-curve $-1 -66.802548888174186 -17.404674823008065 5.7879685739875129 1 0 0 I I #
coedge $-1 $267 $267 $-1 $385 reversed $168 $-1 #
edge $-1 $386 0 $386 6.2831853071796004 $169 $387 forward 7 unknown #
vertex $-1 $172 $388 #
ellipse-curve $-1 -47.953692448867109 -15.641577506751776 4.1439628117427594 -0.86602541151947299 0 0.49999998660252726 0.24999999330126363 0 0.43301270575973649 1 I I #
coedge $-1 $271 $271 $-1 $389 reversed $175 $-1 #
edge $-1 $390 0 $390 6.2831853071796004 $176 $391 forward 7 unknown #
vertex $-1 $179 $392 #
ellipse-curve $-1 -47.953692448867109 -12.996931532367347 4.1439628117427594 -0.86602541151947299 0 0.49999998660252726 0.24999999330126363 0 0.43301270575973649 1 I I #
face $-1 $-1 $287 $27 $-1 $393 reversed single #
loop $-1 $-1 $283 $180 #
plane-surface $-1 0 22.399769247395575 0 0 -1 0 0 0 -1 forward_v I I I I #
coedge $-1 $293 $292 $394 $395 forward $181 $-1 #
coedge $-1 $183 $193 $396 $397 forward $113 $-1 #
coedge $-1 $286 $189 $183 $281 reversed $287 $-1 #
edge $-1 $398 -22.399769247395575 $194 22.399769247395575 $280 $399 forward 7 unknown #
coedge $-1 $185 $184 $292 $400 forward $73 $-1 #
coedge $-1 $401 $394 $184 $284 reversed $276 $-1 #
edge $-1 $289 -48.902859584337904 $402 48.902859584337904 $283 $403 forward 7 unknown #
edge $-1 $294 -48.902859584337904 $288 48.902859584337904 $188 $404 forward 7 unknown #
coedge $-1 $186 $280 $401 $405 reversed $287 $-1 #
loop $-1 $-1 $189 $275 #
vertex $-1 $187 $406 #
vertex $-1 $187 $407 #
straight-curve $-1 48.902859584337904 0 5.7879685739875137 0 1 0 I I #
straight-curve $-1 48.902859584337904 -22.399769247395575 0 0 0 -1 I I #
coedge $-1 $278 $191 $282 $400 reversed $181 $-1 #
coedge $-1 $191 $278 $193 $296 reversed $181 $-1 #
vertex $-1 $400 $408 #
straight-curve $-1 -48.902859584337904 -22.399769247395575 0 0 0 -1 I I #
edge $-1 $195 -22.399769247395575 $409 22.399769247395575 $293 $410 forward 7 unknown #
point $-1 48.902859584337904 -22.399769247395575 -5.7879685739875137 #
point $-1 -48.902859584337904 -22.399769247395575 -5.7879685739875137 #
face $-1 $-1 $312 $28 $-1 $411 reversed single #
plane-surface $-1 -45.622757541495901 -24.89731645958933 0 -1 0 0 0 0 1 forward_v I I I I #
coedge $-1 $412 $413 $414 $415 forward $198 $-1 #
coedge $-1 $414 $200 $311 $416 reversed $121 $-1 #
coedge $-1 $200 $414 $201 $306 reversed $121 $-1 #
edge $-1 $308 -5.7879685739875137 $313 5.7879685739875137 $200 $417 forward 7 unknown #
coedge $-1 $202 $201 $413 $418 forward $77 $-1 #
edge $-1 $308 22.399769247395575 $419 27.394863671783085 $303 $420 forward 7 unknown #
edge $-1 $421 -2.497547212193755 $210 2.497547212193755 $207 $422 forward 7 unknown #
vertex $-1 $306 $423 #
straight-curve $-1 0 -22.399769247395575 5.7879685739875137 -1 0 0 I I #
coedge $-1 $424 $205 $208 $316 forward $312 $-1 #
coedge $-1 $205 $424 $302 $416 forward $312 $-1 #
loop $-1 $-1 $205 $299 #
vertex $-1 $304 $425 #
straight-curve $-1 0 -22.399769247395575 -5.7879685739875137 1 0 0 I I #
coedge $-1 $208 $207 $426 $427 forward $209 $-1 #
edge $-1 $211 -2.497547212193755 $428 2.497547212193755 $208 $429 forward 7 unknown #
point $-1 -45.622757541495901 -22.399769247395575 5.7879685739875137 #
point $-1 -45.622757541495901 -22.399769247395575 -5.7879685739875137 #
face $-1 $-1 $430 $29 $-1 $431 reversed single #
loop $-1 $-1 $221 $213 #
plane-surface $-1 0 0 -5.7879685739875137 0 0 1 1 0 0 forward_v I I I I #
coedge $-1 $432 $216 $433 $434 reversed $129 $-1 #
coedge $-1 $216 $432 $326 $435 reversed $129 $-1 #
coedge $-1 $224 $223 $216 $325 reversed $214 $-1 #
edge $-1 $436 -5.7879685739875137 $437 5.7879685739875137 $324 $438 forward 7 unknown #
coedge $-1 $218 $217 $323 $435 forward $81 $-1 #
edge $-1 $226 -2.497547212193755 $436 2.497547212193755 $224 $439 forward 7 unknown #
coedge $-1 $440 $332 $218 $329 reversed $430 $-1 #
edge $-1 $441 -27.394863671783082 $330 -22.399769247395575 $328 $442 forward 7 unknown #
vertex $-1 $333 $443 #
straight-curve $-1 0 22.399769247395575 5.7879685739875137 1 0 0 I I #
coedge $-1 $328 $444 $220 $333 forward $430 $-1 #
edge $-1 $336 -5.7879685739875137 $330 5.7879685739875137 $332 $445 forward 7 unknown #
coedge $-1 $433 $221 $444 $446 forward $320 $-1 #
coedge $-1 $221 $433 $223 $338 forward $320 $-1 #
vertex $-1 $446 $447 #
straight-curve $-1 0 22.399769247395575 -5.7879685739875137 -1 0 0 I I #
edge $-1 $437 -2.497547212193755 $225 2.497547212193755 $223 $448 forward 7 unknown #
point $-1 -45.622757541495901 22.399769247395572 -5.7879685739875137 #
point $-1 -45.622757541495901 22.399769247395572 5.7879685739875137 #
loop $-1 $-1 $236 $228 #
plane-surface $-1 48.902859584337904 0 0 -1 0 0 0 0 1 forward_v I I I I #
coedge $-1 $344 $231 $233 $348 reversed $137 $-1 #
coedge $-1 $231 $343 $449 $450 reversed $137 $-1 #
coedge $-1 $239 $234 $231 $346 forward $229 $-1 #
edge $-1 $349 4.6534055622163351 $451 6.5517398331579528 $345 $452 forward 7 unknown #
coedge $-1 $233 $232 $352 $453 reversed $85 $-1 #
edge $-1 $454 -97.805719168675864 $349 -94.009050525061085 $343 $455 forward 7 unknown #
vertex $-1 $235 $456 #
straight-curve $-1 47.004525313396279 -7.1596272597797812 5.7879685739875129 0 -1 0 I I #
coedge $-1 $449 $236 $239 $356 reversed $341 $-1 #
coedge $-1 $236 $449 $347 $453 forward $341 $-1 #
vertex $-1 $237 $457 #
straight-curve $-1 48.902859584337904 -11.23383421611106 68.052526757748453 0 0 1 I I #
straight-curve $-1 1.3103494325150677e-006 -11.23383421611106 87.202195241508463 0.49999998660252726 0 -0.86602541151947299 I I #
edge $-1 $451 -17.404674823008065 $240 -11.23383421611106 $351 $458 forward 7 unknown #
point $-1 48.902859584337904 -11.23383421611106 5.7879685739875137 #
point $-1 47.004525313396286 -11.23383421611106 5.7879685739875129 #
edge $-1 $459 1 $459 0 $243 $-1 forward 7 unknown #
vertex $-1 $244 $460 #
ellipse-curve $-1 47.087667037347636 -15.641577506751776 3.6439628251402225 0.86602541151947299 0 0.49999998660252726 0.24999999330126363 0 -0.43301270575973649 1 I I #
point $-1 48.203692442168375 -15.641577506751776 3.7109501059830134 #
edge $-1 $461 1 $461 0 $247 $-1 forward 7 unknown #
vertex $-1 $248 $462 #
ellipse-curve $-1 47.087667037347636 -12.996931532367347 3.6439628251402225 0.86602541151947299 0 0.49999998660252726 0.24999999330126363 0 -0.43301270575973649 1 I I #
point $-1 48.203692442168375 -12.996931532367347 3.7109501059830134 #
plane-surface $-1 0 0 5.7879685739875137 0 0 1 1 0 0 forward_v I I I I #
coedge $-1 $378 $377 $370 $463 forward $252 $-1 #
coedge $-1 $370 $254 $256 $374 reversed $159 $-1 #
coedge $-1 $254 $369 $368 $463 reversed $159 $-1 #
coedge $-1 $262 $257 $254 $372 forward $263 $-1 #
edge $-1 $375 -19.798023574777872 $464 -17.899689303836283 $371 $465 forward 7 unknown #
coedge $-1 $256 $255 $378 $466 reversed $99 $-1 #
edge $-1 $467 0 $375 3.7966686436147135 $369 $468 forward 7 unknown #
vertex $-1 $258 $469 #
straight-curve $-1 -47.004525313396314 -7.1596272597797812 5.7879685739875146 0 1 0 I I #
coedge $-1 $368 $259 $262 $382 reversed $252 $-1 #
coedge $-1 $259 $368 $373 $466 forward $252 $-1 #
vertex $-1 $260 $470 #
straight-curve $-1 -48.902859584337904 -17.404674823008065 25.701407661743225 0 0 1 I I #
straight-curve $-1 -48.902859584337904 -17.404674823008065 2.4999570494980006 -0.49999998660252726 0 -0.86602541151947299 I I #
edge $-1 $464 11.23383421611106 $264 17.404674823008065 $377 $471 forward 7 unknown #
point $-1 -48.902859584337904 -17.404674823008065 5.7879685739875137 #
point $-1 -47.004525313396314 -17.404674823008065 5.7879685739875137 #
edge $-1 $472 1 $472 0 $267 $-1 forward 7 unknown #
vertex $-1 $268 $473 #
ellipse-curve $-1 -47.087667037347636 -15.641577506751776 3.6439628251402332 -0.86602541151947299 0 0.49999998660252726 0.24999999330126363 0 0.43301270575973649 1 I I #
point $-1 -47.703692455565843 -15.641577506751776 4.5769755175024969 #
edge $-1 $474 1 $474 0 $271 $-1 forward 7 unknown #
vertex $-1 $272 $475 #
ellipse-curve $-1 -47.087667037347636 -12.996931532367347 3.6439628251402332 -0.86602541151947299 0 0.49999998660252726 0.24999999330126363 0 0.43301270575973649 1 I I #
point $-1 -47.703692455565843 -12.996931532367347 4.5769755175024969 #
plane-surface $-1 48.902859584337904 0 0 -1 0 0 0 0 1 forward_v I I I I #
coedge $-1 $283 $396 $278 $395 reversed $276 $-1 #
edge $-1 $402 -5.7879685739875137 $409 5.7879685739875137 $394 $476 forward 7 unknown #
coedge $-1 $394 $401 $279 $397 reversed $276 $-1 #
edge $-1 $409 -48.902859584337904 $398 48.902859584337904 $396 $477 forward 7 unknown #
vertex $-1 $281 $478 #
straight-curve $-1 48.902859584337904 0 -5.7879685739875137 0 -1 0 I I #
edge $-1 $402 -22.399769247395575 $294 22.399769247395575 $292 $479 forward 7 unknown #
coedge $-1 $396 $283 $286 $405 forward $276 $-1 #
vertex $-1 $284 $480 #
straight-curve $-1 0 22.399769247395575 5.7879685739875137 -1 0 0 I I #
straight-curve $-1 0 -22.399769247395575 5.7879685739875137 1 0 0 I I #
edge $-1 $289 -5.7879685739875137 $398 5.7879685739875137 $286 $481 forward 7 unknown #
point $-1 48.902859584337904 -22.399769247395575 5.7879685739875137 #
point $-1 48.902859584337904 22.399769247395575 5.7879685739875137 #
point $-1 -48.902859584337904 -22.399769247395575 5.7879685739875137 #
vertex $-1 $397 $482 #
straight-curve $-1 -48.902859584337904 0 -5.7879685739875137 0 1 0 I I #
plane-surface $-1 0 0 -5.7879685739875137 0 0 1 1 0 0 forward_v I I I I #
coedge $-1 $426 $301 $424 $483 reversed $198 $-1 #
coedge $-1 $301 $426 $305 $418 reversed $198 $-1 #
coedge $-1 $303 $302 $301 $415 reversed $121 $-1 #
edge $-1 $419 -5.7879685739875137 $484 5.7879685739875137 $414 $485 forward 7 unknown #
edge $-1 $484 -27.394863671783085 $313 -22.399769247395575 $302 $486 forward 7 unknown #
straight-curve $-1 -48.902859584337904 -22.399769247395575 0 0 0 -1 I I #
edge $-1 $419 -1.6400510214210016 $421 1.6400510214210016 $413 $487 forward 7 unknown #
vertex $-1 $306 $488 #
straight-curve $-1 -48.902859584337904 0 5.7879685739875137 0 -1 0 I I #
vertex $-1 $307 $489 #
straight-curve $-1 -45.622757541495901 -24.89731645958933 5.7879685739875137 0 1 0 I I #
point $-1 -48.902859584337904 -22.399769247395575 5.7879685739875137 #
coedge $-1 $311 $310 $412 $483 forward $312 $-1 #
point $-1 -48.902859584337904 -22.399769247395575 -5.7879685739875137 #
coedge $-1 $413 $412 $315 $427 reversed $198 $-1 #
edge $-1 $421 -5.7879685739875137 $428 5.7879685739875137 $315 $490 forward 7 unknown #
vertex $-1 $427 $491 #
straight-curve $-1 -45.622757541495901 -24.89731645958933 -5.7879685739875137 0 -1 0 I I #
loop $-1 $-1 $332 $319 #
plane-surface $-1 -48.902859584337904 0 0 1 0 0 0 0 -1 forward_v I I I I #
coedge $-1 $323 $322 $440 $492 reversed $129 $-1 #
coedge $-1 $335 $334 $322 $434 forward $320 $-1 #
edge $-1 $493 -1.6400510214210016 $437 1.6400510214210016 $322 $494 forward 7 unknown #
edge $-1 $436 -1.6400510214210016 $441 1.6400510214210016 $323 $495 forward 7 unknown #
vertex $-1 $327 $496 #
vertex $-1 $338 $497 #
straight-curve $-1 -45.622757541495901 27.394863671783082 0 0 0 -1 I I #
straight-curve $-1 -45.622757541495901 24.897316459589327 5.7879685739875137 0 1 0 I I #
coedge $-1 $444 $328 $432 $492 forward $430 $-1 #
vertex $-1 $435 $498 #
straight-curve $-1 -48.902859584337904 0 5.7879685739875137 0 -1 0 I I #
point $-1 -48.902859584337904 22.399769247395575 5.7879685739875137 #
coedge $-1 $332 $440 $334 $446 reversed $430 $-1 #
straight-curve $-1 -48.902859584337904 22.399769247395575 0 0 0 1 I I #
edge $-1 $336 -2.4975472121937514 $493 2.497547212193755 $444 $499 forward 7 unknown #
point $-1 -48.902859584337904 22.399769247395575 -5.7879685739875137 #
straight-curve $-1 -45.622757541495901 24.897316459589327 -5.7879685739875137 0 -1 0 I I #
coedge $-1 $352 $351 $344 $450 forward $341 $-1 #
edge $-1 $451 62.26455818376094 $454 65.552569708250502 $449 $500 forward 7 unknown #
vertex $-1 $356 $501 #
straight-curve $-1 42.351119751179951 -17.404674823008065 5.7879685739875129 1 0 0 I I #
edge $-1 $454 -10.245047563228283 $353 -4.0742069563312784 $352 $502 forward 7 unknown #
vertex $-1 $453 $503 #
straight-curve $-1 1.3103494325150677e-006 -17.404674823008065 87.202195241508463 -0.49999998660252726 0 0.86602541151947299 I I #
point $-1 47.004525313396286 -17.404674823008065 5.7879685739875129 #
point $-1 48.902859584337904 -11.23383421611106 2.4999570494979508 #
straight-curve $-1 48.902859584337904 0 5.7879685739875137 0 1 0 I I #
vertex $-1 $359 $504 #
point $-1 47.337667030648902 -15.641577506751776 3.2109501193804864 #
vertex $-1 $363 $505 #
point $-1 47.337667030648902 -12.996931532367347 3.2109501193804864 #
edge $-1 $464 19.913439087755712 $467 23.201450612245225 $368 $506 forward 7 unknown #
vertex $-1 $382 $507 #
straight-curve $-1 -66.802548888174186 -11.23383421611106 5.7879685739875129 -1 0 0 I I #
edge $-1 $467 4.0742069563312784 $379 10.245047563228283 $378 $508 forward 7 unknown #
vertex $-1 $466 $509 #
straight-curve $-1 -48.902859584337904 -11.23383421611106 2.4999570494980006 0.49999998660252726 0 0.86602541151947299 I I #
point $-1 -47.004525313396314 -11.23383421611106 5.7879685739875137 #
point $-1 -48.902859584337904 -17.404674823008065 2.4999570494980006 #
straight-curve $-1 -48.902859584337904 0 5.7879685739875137 0 -1 0 I I #
vertex $-1 $385 $510 #
point $-1 -46.83766704404637 -15.641577506751776 4.0769755308999702 #
vertex $-1 $389 $511 #
point $-1 -46.83766704404637 -12.996931532367347 4.0769755308999702 #
straight-curve $-1 -48.902859584337904 22.399769247395575 0 0 0 -1 I I #
straight-curve $-1 0 22.399769247395575 -5.7879685739875137 1 0 0 I I #
point $-1 48.902859584337904 22.399769247395575 -5.7879685739875137 #
straight-curve $-1 -48.902859584337904 0 5.7879685739875137 0 -1 0 I I #
point $-1 -48.902859584337904 22.399769247395575 5.7879685739875137 #
straight-curve $-1 48.902859584337904 22.399769247395575 0 0 0 -1 I I #
point $-1 -48.902859584337904 22.399769247395575 -5.7879685739875137 #
edge $-1 $428 -1.6400510214210016 $484 1.6400510214210016 $412 $512 forward 7 unknown #
vertex $-1 $416 $513 #
straight-curve $-1 -48.902859584337904 -27.394863671783085 0 0 0 -1 I I #
straight-curve $-1 -48.902859584337904 0 -5.7879685739875137 0 1 0 I I #
straight-curve $-1 -47.262808562916902 -27.394863671783085 5.7879685739875137 1 0 0 I I #
point $-1 -48.902859584337904 -27.394863671783085 5.7879685739875137 #
point $-1 -45.622757541495901 -27.394863671783085 5.7879685739875137 #
straight-curve $-1 -45.622757541495901 -27.394863671783085 0 0 0 -1 I I #
point $-1 -45.622757541495901 -27.394863671783085 -5.7879685739875137 #
edge $-1 $441 -5.7879685739875137 $493 5.7879685739875137 $432 $514 forward 7 unknown #
vertex $-1 $434 $515 #
straight-curve $-1 -47.262808562916902 27.394863671783082 -5.7879685739875137 1 0 0 I I #
straight-curve $-1 -47.262808562916902 27.394863671783082 5.7879685739875137 -1 0 0 I I #
point $-1 -45.622757541495901 27.394863671783082 5.7879685739875137 #
point $-1 -45.622757541495901 27.394863671783082 -5.7879685739875137 #
point $-1 -48.902859584337904 27.394863671783082 5.7879685739875137 #
straight-curve $-1 -48.902859584337904 24.897316459589327 -5.7879685739875137 0 1 0 I I #
straight-curve $-1 48.902859584337904 -17.404674823008065 68.052526757748453 0 0 -1 I I #
point $-1 48.902859584337904 -17.404674823008065 5.7879685739875137 #
straight-curve $-1 48.902859584337904 -7.1596272597797812 2.4999570494979437 0 1 0 I I #
point $-1 48.902859584337904 -17.404674823008065 2.4999570494979508 #
point $-1 46.654654331587899 -15.641577506751776 3.3939628318389592 #
point $-1 46.654654331587899 -12.996931532367347 3.3939628318389592 #
straight-curve $-1 -48.902859584337904 -11.23383421611106 25.701407661743225 0 0 -1 I I #
point $-1 -48.902859584337904 -11.23383421611106 5.7879685739875137 #
straight-curve $-1 -48.902859584337904 -7.1596272597797812 2.4999570494979979 0 -1 0 I I #
point $-1 -48.902859584337904 -11.23383421611106 2.4999570494980006 #
point $-1 -46.654654331587899 -15.641577506751776 3.3939628318389699 #
point $-1 -46.654654331587899 -12.996931532367347 3.3939628318389699 #
straight-curve $-1 -47.262808562916902 -27.394863671783085 -5.7879685739875137 -1 0 0 I I #
point $-1 -48.902859584337904 -27.394863671783085 -5.7879685739875137 #
straight-curve $-1 -48.902859584337904 27.394863671783082 0 0 0 -1 I I #
point $-1 -48.902859584337904 27.394863671783082 -5.7879685739875137 #
End-of-ACIS-data 