500 0 5 0           
7 Unknown 11 ACIS 5.0 NT 24 Fri Mar 26 00:20:28 1999 
-1 9.9999999999999995e-007 1e-010 
body $-1 $5 $-1 $6 #
body $-1 $7 $-1 $8 #
body $-1 $9 $-1 $10 #
body $-1 $11 $-1 $12 #
body $-1 $13 $-1 $14 #
lump $-1 $-1 $15 $0 #
transform $-1 1 0 0 0 1 0 0 0 1 60.868556779686884 24.392005534919662 9.0786468429448295 1 rotate no_reflect no_shear #
lump $-1 $-1 $16 $1 #
transform $-1 1 0 0 0 1 0 0 0 1 60.868556779686884 24.392005534919662 9.0786468429448295 1 rotate no_reflect no_shear #
lump $-1 $-1 $17 $2 #
transform $-1 1 0 0 0 1 0 0 0 1 60.868556779686884 24.392005534919662 9.0786468429448295 1 rotate no_reflect no_shear #
lump $-1 $-1 $18 $3 #
transform $-1 1 0 0 0 1 0 0 0 1 60.868556779686884 24.392005534919662 9.0786468429448295 1 rotate no_reflect no_shear #
lump $-1 $-1 $19 $4 #
transform $-1 1 0 0 0 1 0 0 0 1 60.868556779686884 24.392005534919662 9.0786468429448295 1 rotate no_reflect no_shear #
shell $-1 $-1 $-1 $20 $-1 $5 #
shell $-1 $-1 $-1 $21 $-1 $7 #
shell $-1 $-1 $-1 $22 $-1 $9 #
shell $-1 $-1 $-1 $23 $-1 $11 #
shell $-1 $-1 $-1 $24 $-1 $13 #
face $-1 $25 $26 $15 $-1 $27 forward single #
face $-1 $28 $29 $16 $-1 $30 reversed single #
face $-1 $31 $32 $17 $-1 $33 forward single #
face $-1 $34 $35 $18 $-1 $36 reversed single #
face $-1 $37 $38 $19 $-1 $39 forward single #
face $-1 $40 $41 $15 $-1 $42 reversed single #
loop $-1 $-1 $43 $20 #
plane-surface $-1 0 0 9.0786468429448295 0 0 1 1 0 0 forward_v I I I I #
face $-1 $44 $45 $16 $-1 $46 reversed single #
loop $-1 $-1 $47 $21 #
plane-surface $-1 60.868558777208591 10.660722236883132 173.47847929668492 0 1 0 0.70710678939079041 0 0.70710677298230451 forward_v I I I I #
face $-1 $48 $49 $17 $-1 $50 forward single #
loop $-1 $51 $52 $22 #
cone-surface $-1 55.428126017677542 17.526363885901397 3.6382160270529234 -0.70710678939079041 0 -0.70710677298230451 1.414213545964609 0 -1.4142135787815808 1 I I 0 1 2 forward I I I I #
face $-1 $53 $54 $18 $-1 $55 reversed single #
loop $-1 $-1 $56 $23 #
plane-surface $-1 -146.94969629835771 10.660722236883132 87.397339778014057 0 1 0 -0.70710678939079041 0 0.70710677298230451 forward_v I I I I #
face $-1 $57 $58 $19 $-1 $59 forward single #
loop $-1 $60 $61 $24 #
cone-surface $-1 -55.428126017677542 17.526363885901397 3.638216027052918 0.70710678939079041 0 -0.70710677298230451 1.414213545964609 0 1.4142135787815808 1 I I 0 1 2 forward I I I I #
face $-1 $62 $63 $15 $-1 $64 reversed single #
loop $-1 $-1 $65 $25 #
plane-surface $-1 0 0 -9.0786468429448295 0 0 1 1 0 0 forward_v I I I I #
coedge $-1 $66 $67 $68 $69 forward $26 $-1 #
face $-1 $70 $71 $16 $-1 $72 forward single #
loop $-1 $-1 $73 $28 #
plane-surface $-1 -25.212580741462247 17.526363885901397 87.397341775535793 0.70710678939079041 0 0.70710677298230451 0.70710677298230451 0 -0.70710678939079041 forward_v I I I I #
coedge $-1 $74 $75 $76 $77 reversed $29 $-1 #
face $-1 $-1 $78 $17 $-1 $79 forward single #
loop $-1 $80 $81 $31 #
cone-surface $-1 53.161810669253185 17.526363885901397 1.3719007312186502 -0.70710678939079041 0 -0.70710677298230451 0.70710677298230451 0 -0.70710678939079041 1 I I -0.70710678118654746 0.70710678118654746 1 forward I I I I #
loop $-1 $-1 $82 $22 #
coedge $-1 $52 $52 $83 $84 reversed $32 $-1 #
face $-1 $85 $86 $18 $-1 $87 reversed single #
loop $-1 $-1 $88 $34 #
plane-surface $-1 -60.86855677968687 17.526363885901397 1.3162022568649263 -0.70710678939079041 0 0.70710677298230451 0.70710677298230451 0 0.70710678939079041 forward_v I I I I #
coedge $-1 $89 $90 $91 $92 reversed $35 $-1 #
face $-1 $-1 $93 $19 $-1 $94 forward single #
loop $-1 $95 $96 $37 #
cone-surface $-1 -53.161810669253185 17.526363885901397 1.3719007312186449 0.70710678939079041 0 -0.70710677298230451 0.70710677298230451 0 0.70710678939079041 1 I I -0.70710678118654746 0.70710678118654746 1 forward I I I I #
loop $-1 $-1 $97 $24 #
coedge $-1 $61 $61 $98 $99 reversed $38 $-1 #
face $-1 $100 $101 $15 $-1 $102 reversed single #
loop $-1 $-1 $103 $40 #
plane-surface $-1 0 -24.392005534919662 0 0 1 0 0 0 1 forward_v I I I I #
coedge $-1 $104 $105 $106 $107 forward $41 $-1 #
coedge $-1 $108 $43 $109 $110 forward $26 $-1 #
coedge $-1 $43 $108 $111 $112 forward $26 $-1 #
coedge $-1 $113 $114 $43 $69 reversed $115 $-1 #
edge $-1 $116 -24.392005534919662 $117 24.392005534919662 $68 $118 forward 7 unknown #
face $-1 $119 $120 $16 $-1 $121 reversed single #
loop $-1 $-1 $122 $44 #
plane-surface $-1 0 0 9.0786468429448295 0 0 1 1 0 0 forward_v I I I I #
coedge $-1 $123 $124 $125 $126 reversed $45 $-1 #
coedge $-1 $75 $47 $127 $128 reversed $29 $-1 #
coedge $-1 $47 $74 $123 $129 reversed $29 $-1 #
coedge $-1 $125 $130 $47 $77 forward $120 $-1 #
edge $-1 $131 77.660592805397627 $132 85.423037391477521 $76 $133 forward 7 unknown #
loop $-1 $-1 $83 $48 #
plane-surface $-1 -25.212580741462247 17.526363885901397 87.397341775535793 0.70710678939079041 0 0.70710677298230451 0.70710677298230451 0 -0.70710678939079041 forward_v I I I I #
loop $-1 $-1 $134 $31 #
coedge $-1 $81 $81 $82 $135 reversed $49 $-1 #
coedge $-1 $82 $82 $81 $135 forward $51 $-1 #
coedge $-1 $83 $83 $52 $84 forward $78 $-1 #
edge $-1 $136 0 $136 6.2831853071796004 $83 $137 forward 7 unknown #
face $-1 $138 $139 $18 $-1 $140 forward single #
loop $-1 $-1 $141 $53 #
plane-surface $-1 0 24.392005534919662 0 0 -1 0 0 0 -1 forward_v I I I I #
coedge $-1 $142 $143 $144 $145 reversed $54 $-1 #
coedge $-1 $90 $56 $146 $147 reversed $35 $-1 #
coedge $-1 $56 $89 $142 $148 reversed $35 $-1 #
coedge $-1 $144 $149 $56 $92 forward $139 $-1 #
edge $-1 $150 12.60629136949197 $151 20.368735775443561 $91 $152 forward 7 unknown #
loop $-1 $-1 $98 $57 #
plane-surface $-1 -60.86855677968687 17.526363885901397 1.3162022568649263 -0.70710678939079041 0 0.70710677298230451 0.70710677298230451 0 0.70710678939079041 forward_v I I I I #
loop $-1 $-1 $153 $37 #
coedge $-1 $96 $96 $97 $154 reversed $58 $-1 #
coedge $-1 $97 $97 $96 $154 forward $60 $-1 #
coedge $-1 $98 $98 $61 $99 forward $93 $-1 #
edge $-1 $155 0 $155 6.2831853071796004 $98 $156 forward 7 unknown #
face $-1 $157 $158 $15 $-1 $159 reversed single #
loop $-1 $-1 $160 $62 #
plane-surface $-1 -60.868556779686884 0 0 1 0 0 0 0 -1 forward_v I I I I #
coedge $-1 $161 $111 $162 $163 forward $63 $-1 #
coedge $-1 $164 $65 $161 $165 forward $41 $-1 #
coedge $-1 $65 $164 $166 $167 forward $41 $-1 #
coedge $-1 $114 $113 $65 $107 reversed $115 $-1 #
edge $-1 $168 -24.392005534919662 $169 24.392005534919662 $106 $170 forward 7 unknown #
coedge $-1 $67 $66 $171 $172 forward $26 $-1 #
coedge $-1 $173 $174 $66 $110 reversed $158 $-1 #
edge $-1 $117 -60.868556779686884 $175 60.868556779686884 $109 $176 forward 7 unknown #
coedge $-1 $103 $177 $67 $112 reversed $63 $-1 #
edge $-1 $178 -60.868556779686884 $116 60.868556779686884 $111 $179 forward 7 unknown #
coedge $-1 $106 $68 $177 $180 forward $115 $-1 #
coedge $-1 $68 $106 $173 $181 reversed $115 $-1 #
loop $-1 $-1 $113 $157 #
vertex $-1 $69 $182 #
vertex $-1 $69 $183 #
straight-curve $-1 60.868556779686884 0 9.0786468429448295 0 1 0 I I #
face $-1 $-1 $184 $16 $-1 $185 reversed single #
loop $-1 $-1 $76 $70 #
plane-surface $-1 60.868556779686884 0 0 -1 0 0 0 0 1 forward_v I I I I #
coedge $-1 $127 $186 $187 $188 forward $71 $-1 #
coedge $-1 $187 $73 $75 $129 forward $45 $-1 #
coedge $-1 $73 $187 $189 $190 reversed $45 $-1 #
coedge $-1 $191 $76 $73 $126 forward $120 $-1 #
edge $-1 $132 1.8975402939324333 $192 15.628823591968963 $125 $193 forward 7 unknown #
coedge $-1 $194 $122 $74 $128 forward $71 $-1 #
edge $-1 $195 22.671832985131033 $131 30.434277391082588 $127 $196 forward 7 unknown #
edge $-1 $132 -121.73711355937381 $195 -110.75935927593999 $75 $197 forward 7 unknown #
coedge $-1 $76 $191 $194 $198 reversed $120 $-1 #
vertex $-1 $198 $199 #
vertex $-1 $77 $200 #
straight-curve $-1 60.868556779686884 10.660722236883132 86.739239648342462 0 0 -1 I I #
coedge $-1 $134 $134 $-1 $201 reversed $80 $-1 #
edge $-1 $202 0 $202 6.2831853071796004 $81 $203 forward 7 unknown #
vertex $-1 $84 $204 #
ellipse-curve $-1 56.987334576711106 17.526363885901397 5.197424549904893 0.70710678939079041 0 0.70710677298230451 1.414213545964609 0 -1.4142135787815808 1 I I #
face $-1 $-1 $205 $18 $-1 $206 reversed single #
loop $-1 $-1 $144 $85 #
plane-surface $-1 0 0 9.0786468429448295 0 0 1 1 0 0 forward_v I I I I #
coedge $-1 $207 $208 $143 $209 forward $86 $-1 #
coedge $-1 $210 $88 $90 $148 forward $54 $-1 #
coedge $-1 $88 $210 $141 $209 reversed $54 $-1 #
coedge $-1 $211 $91 $88 $145 forward $139 $-1 #
edge $-1 $151 1.8975402939324333 $212 15.628823591968963 $144 $213 forward 7 unknown #
coedge $-1 $214 $215 $89 $147 forward $205 $-1 #
edge $-1 $216 -42.382467632142117 $150 -34.620023046062201 $146 $217 forward 7 unknown #
edge $-1 $151 -10.977754283433848 $216 2.0097183471152325e-014 $90 $218 forward 7 unknown #
coedge $-1 $91 $211 $214 $219 forward $139 $-1 #
vertex $-1 $147 $220 #
vertex $-1 $92 $221 #
straight-curve $-1 -73.474848149178854 10.660722236883132 9.0786468429448277 1 0 0 I I #
coedge $-1 $153 $153 $-1 $222 reversed $95 $-1 #
edge $-1 $223 0 $223 6.2831853071796004 $96 $224 forward 7 unknown #
vertex $-1 $99 $225 #
ellipse-curve $-1 -56.987334576711092 17.526363885901397 5.1974245499048699 -0.70710678939079041 0 0.70710677298230451 1.414213545964609 0 1.4142135787815808 1 I I #
face $-1 $-1 $115 $15 $-1 $226 reversed single #
loop $-1 $-1 $173 $100 #
plane-surface $-1 0 24.392005534919662 0 0 -1 0 0 0 -1 forward_v I I I I #
coedge $-1 $227 $171 $174 $228 forward $101 $-1 #
coedge $-1 $177 $103 $104 $165 reversed $63 $-1 #
coedge $-1 $171 $227 $103 $163 reversed $101 $-1 #
edge $-1 $178 -9.0786468429448295 $229 9.0786468429448295 $162 $230 forward 7 unknown #
coedge $-1 $105 $104 $227 $231 forward $41 $-1 #
edge $-1 $169 -60.868556779686884 $229 60.868556779686884 $161 $232 forward 7 unknown #
coedge $-1 $174 $173 $105 $167 reversed $158 $-1 #
edge $-1 $233 -60.868556779686884 $168 60.868556779686884 $166 $234 forward 7 unknown #
vertex $-1 $107 $235 #
vertex $-1 $180 $236 #
straight-curve $-1 60.868556779686884 0 -9.0786468429448295 0 -1 0 I I #
coedge $-1 $160 $162 $108 $172 reversed $101 $-1 #
edge $-1 $175 -24.392005534919662 $178 24.392005534919662 $171 $237 forward 7 unknown #
coedge $-1 $166 $109 $114 $181 forward $158 $-1 #
coedge $-1 $109 $166 $160 $228 reversed $158 $-1 #
vertex $-1 $110 $238 #
straight-curve $-1 0 24.392005534919662 9.0786468429448295 -1 0 0 I I #
coedge $-1 $111 $161 $113 $180 reversed $63 $-1 #
vertex $-1 $172 $239 #
straight-curve $-1 0 -24.392005534919662 9.0786468429448295 1 0 0 I I #
edge $-1 $116 -9.0786468429448295 $169 9.0786468429448295 $113 $240 forward 7 unknown #
edge $-1 $117 -9.0786468429448295 $168 9.0786468429448295 $114 $241 forward 7 unknown #
point $-1 60.868556779686884 -24.392005534919662 9.0786468429448295 #
point $-1 60.868556779686884 24.392005534919662 9.0786468429448295 #
loop $-1 $-1 $189 $119 #
plane-surface $-1 0 24.392005534919662 0 0 -1 0 0 0 -1 forward_v I I I I #
coedge $-1 $122 $194 $242 $243 forward $71 $-1 #
coedge $-1 $124 $123 $122 $188 reversed $45 $-1 #
edge $-1 $244 -15.628823591968963 $195 -1.8975402939324333 $122 $245 forward 7 unknown #
coedge $-1 $242 $246 $124 $190 forward $184 $-1 #
edge $-1 $192 -81.923493383953826 $244 -70.945739100520015 $189 $247 forward 7 unknown #
coedge $-1 $130 $125 $246 $248 reversed $120 $-1 #
vertex $-1 $126 $249 #
straight-curve $-1 60.868556779686884 8.7631819429506983 1.3162022568649618 0 1 0 I I #
coedge $-1 $186 $127 $130 $198 forward $71 $-1 #
vertex $-1 $128 $250 #
straight-curve $-1 30.434279388604295 10.660722236883132 9.0786468429448348 1 0 0 I I #
straight-curve $-1 -25.212580741462247 10.660722236883132 87.397341775535793 -0.70710677298230451 0 0.70710678939079041 I I #
edge $-1 $131 10.660722236883132 $251 24.392005534919662 $130 $252 forward 7 unknown #
point $-1 60.868556779686884 10.660722236883132 9.0786468429448295 #
point $-1 60.868556779686884 10.660722236883132 1.3162022568649405 #
edge $-1 $253 1 $253 0 $134 $-1 forward 7 unknown #
vertex $-1 $135 $254 #
ellipse-curve $-1 53.868917458643978 17.526363885901397 2.0790075042009546 0.70710678939079041 0 0.70710677298230451 1.414213545964609 0 -1.4142135787815808 1 I I #
point $-1 58.401548122675713 17.526363885901397 3.7832109711233111 #
loop $-1 $-1 $146 $138 #
plane-surface $-1 -60.868556779686884 0 0 1 0 0 0 0 -1 forward_v I I I I #
coedge $-1 $208 $141 $255 $256 reversed $86 $-1 #
coedge $-1 $141 $207 $211 $257 reversed $86 $-1 #
edge $-1 $212 10.077182320833099 $258 21.054936604266963 $141 $259 forward 7 unknown #
coedge $-1 $143 $142 $215 $260 reversed $54 $-1 #
coedge $-1 $149 $144 $208 $257 forward $139 $-1 #
vertex $-1 $257 $261 #
straight-curve $-1 -53.106112373735293 8.7631819429506983 9.0786468429448295 0 1 0 I I #
coedge $-1 $255 $146 $149 $219 reversed $205 $-1 #
coedge $-1 $146 $255 $210 $260 forward $205 $-1 #
vertex $-1 $147 $262 #
straight-curve $-1 -60.868556779686884 10.660722236883132 43.698669889007029 0 0 1 I I #
straight-curve $-1 -60.86855677968687 10.660722236883132 1.3162022568649263 -0.70710677298230451 0 -0.70710678939079041 I I #
edge $-1 $263 -24.392005534919662 $150 -10.660722236883132 $214 $264 forward 7 unknown #
point $-1 -60.868556779686884 10.660722236883132 9.0786468429448295 #
point $-1 -53.106112373735293 10.660722236883132 9.0786468429448277 #
edge $-1 $265 1 $265 0 $153 $-1 forward 7 unknown #
vertex $-1 $154 $266 #
ellipse-curve $-1 -53.868917458643978 17.526363885901397 2.0790075042009493 -0.70710678939079041 0 0.70710677298230451 1.414213545964609 0 1.4142135787815808 1 I I #
point $-1 -55.573121030746492 17.526363885901397 6.6116381286864678 #
plane-surface $-1 60.868556779686884 0 0 -1 0 0 0 0 1 forward_v I I I I #
coedge $-1 $162 $160 $164 $231 reversed $101 $-1 #
edge $-1 $175 -9.0786468429448295 $233 9.0786468429448295 $174 $267 forward 7 unknown #
vertex $-1 $231 $268 #
straight-curve $-1 -60.868556779686884 -24.392005534919662 0 0 0 -1 I I #
edge $-1 $229 -24.392005534919662 $233 24.392005534919662 $227 $269 forward 7 unknown #
straight-curve $-1 0 -24.392005534919662 -9.0786468429448295 -1 0 0 I I #
vertex $-1 $167 $270 #
straight-curve $-1 0 24.392005534919662 -9.0786468429448295 1 0 0 I I #
point $-1 60.868556779686884 24.392005534919662 -9.0786468429448295 #
point $-1 60.868556779686884 -24.392005534919662 -9.0786468429448295 #
straight-curve $-1 -60.868556779686884 0 9.0786468429448295 0 -1 0 I I #
point $-1 -60.868556779686884 24.392005534919662 9.0786468429448295 #
point $-1 -60.868556779686884 -24.392005534919662 9.0786468429448295 #
straight-curve $-1 60.868556779686884 -24.392005534919662 0 0 0 -1 I I #
straight-curve $-1 60.868556779686884 24.392005534919662 0 0 0 -1 I I #
coedge $-1 $246 $189 $186 $243 reversed $184 $-1 #
edge $-1 $251 -60.868556779686884 $244 -53.106112373735328 $242 $271 forward 7 unknown #
vertex $-1 $190 $272 #
straight-curve $-1 53.106112373735343 8.7631819429506983 9.0786468429448135 0 -1 0 I I #
coedge $-1 $189 $242 $191 $248 forward $184 $-1 #
straight-curve $-1 2.9398997415221224 24.392005534919662 59.2448606392702 -0.70710677298230462 0 0.70710678939079052 I I #
edge $-1 $251 -9.0786468429448295 $192 -1.3162022568649574 $191 $273 forward 7 unknown #
point $-1 60.868556779686884 24.392005534919662 1.3162022568649574 #
point $-1 53.106112373735328 10.660722236883132 9.0786468429448348 #
vertex $-1 $198 $274 #
straight-curve $-1 60.868556779686884 0 9.0786468429448295 0 1 0 I I #
vertex $-1 $201 $275 #
point $-1 55.283131004608585 17.526363885901397 0.66479392541937388 #
coedge $-1 $215 $214 $207 $256 forward $205 $-1 #
edge $-1 $263 -9.0786468429448295 $258 -1.3162022568649121 $207 $276 forward 7 unknown #
edge $-1 $212 53.106112373735293 $263 60.868556779686884 $208 $277 forward 7 unknown #
vertex $-1 $209 $278 #
straight-curve $-1 -45.98046850209667 24.392005534919662 16.204290879934753 -0.70710677298230462 0 -0.70710678939079052 I I #
edge $-1 $258 -15.628823591968963 $216 -1.8975402939324333 $215 $279 forward 7 unknown #
point $-1 -53.106112373735293 24.392005534919662 9.0786468429448277 #
point $-1 -60.868556779686884 10.660722236883132 1.3162022568649121 #
vertex $-1 $257 $280 #
straight-curve $-1 -60.868556779686884 0 9.0786468429448295 0 -1 0 I I #
vertex $-1 $222 $281 #
point $-1 -52.454703912679363 17.526363885901397 3.4932210829825303 #
straight-curve $-1 -60.868556779686884 24.392005534919662 0 0 0 -1 I I #
point $-1 -60.868556779686884 -24.392005534919662 -9.0786468429448295 #
straight-curve $-1 -60.868556779686884 0 -9.0786468429448295 0 1 0 I I #
point $-1 -60.868556779686884 24.392005534919662 -9.0786468429448295 #
straight-curve $-1 0 24.392005534919662 9.0786468429448295 -1 0 0 I I #
point $-1 53.106112373735328 24.392005534919662 9.0786468429448348 #
straight-curve $-1 60.868556779686884 24.392005534919662 0 0 0 -1 I I #
point $-1 60.868556779686884 24.392005534919662 9.0786468429448295 #
point $-1 52.454703879862393 17.526363885901397 0.66479395823634568 #
straight-curve $-1 -60.868556779686884 24.392005534919662 0 0 0 -1 I I #
straight-curve $-1 0 24.392005534919662 9.0786468429448295 -1 0 0 I I #
point $-1 -60.868556779686884 24.392005534919662 1.3162022568649121 #
straight-curve $-1 -60.868556779686884 8.7631819429506983 1.3162022568649085 0 -1 0 I I #
point $-1 -60.868556779686884 24.392005534919662 9.0786468429448295 #
point $-1 -52.454703879862393 17.526363885901397 0.66479395823634035 #
End-of-ACIS-data 