500 0 8 0           
7 Unknown 11 ACIS 5.0 NT 24 Thu Mar 25 17:28:53 1999 
-1 9.9999999999999995e-007 1e-010 
body $-1 $8 $-1 $9 #
body $-1 $10 $-1 $11 #
body $-1 $12 $-1 $13 #
body $-1 $14 $-1 $15 #
body $-1 $16 $-1 $17 #
body $-1 $18 $-1 $19 #
body $-1 $20 $-1 $21 #
body $-1 $22 $-1 $23 #
lump $-1 $-1 $24 $0 #
transform $-1 1 0 0 0 1 0 0 0 1 42.845545823541975 21.843160587855728 8.1239731880269854 1 rotate no_reflect no_shear #
lump $-1 $-1 $25 $1 #
transform $-1 1 0 0 0 1 0 0 0 1 42.845545823541975 21.843160587855728 8.1239731880269854 1 rotate no_reflect no_shear #
lump $-1 $-1 $26 $2 #
transform $-1 1 0 0 0 1 0 0 0 1 42.845545823541975 21.843160587855728 8.1239731880269854 1 rotate no_reflect no_shear #
lump $-1 $-1 $27 $3 #
transform $-1 1 0 0 0 1 0 0 0 1 42.845545823541975 21.843160587855728 8.1239731880269854 1 rotate no_reflect no_shear #
lump $-1 $-1 $28 $4 #
transform $-1 1 0 0 0 1 0 0 0 1 42.845545823541975 21.843160587855728 8.1239731880269854 1 rotate no_reflect no_shear #
lump $-1 $-1 $29 $5 #
transform $-1 1 0 0 0 1 0 0 0 1 42.845545823541975 21.843160587855728 8.1239731880269854 1 rotate no_reflect no_shear #
lump $-1 $-1 $30 $6 #
transform $-1 1 0 0 0 1 0 0 0 1 42.845545823541975 21.843160587855728 8.1239731880269854 1 rotate no_reflect no_shear #
lump $-1 $-1 $31 $7 #
transform $-1 1 0 0 0 1 0 0 0 1 42.845545823541975 21.843160587855728 8.1239731880269854 1 rotate no_reflect no_shear #
shell $-1 $-1 $-1 $32 $-1 $8 #
shell $-1 $-1 $-1 $33 $-1 $10 #
shell $-1 $-1 $-1 $34 $-1 $12 #
shell $-1 $-1 $-1 $35 $-1 $14 #
shell $-1 $-1 $-1 $36 $-1 $16 #
shell $-1 $-1 $-1 $37 $-1 $18 #
shell $-1 $-1 $-1 $38 $-1 $20 #
shell $-1 $-1 $-1 $39 $-1 $22 #
face $-1 $40 $41 $24 $-1 $42 reversed single #
face $-1 $43 $44 $25 $-1 $45 forward single #
face $-1 $46 $47 $26 $-1 $48 forward single #
face $-1 $49 $50 $27 $-1 $51 reversed single #
face $-1 $52 $53 $28 $-1 $54 forward single #
face $-1 $55 $56 $29 $-1 $57 reversed single #
face $-1 $58 $59 $30 $-1 $60 forward single #
face $-1 $61 $62 $31 $-1 $63 forward single #
face $-1 $64 $65 $24 $-1 $66 reversed single #
loop $-1 $-1 $67 $32 #
plane-surface $-1 0 21.843160587855728 0 0 -1 0 0 0 -1 forward_v I I I I #
face $-1 $68 $69 $25 $-1 $70 reversed single #
loop $-1 $-1 $71 $33 #
plane-surface $-1 0 -21.843160587855728 0 0 1 0 0 0 1 forward_v I I I I #
face $-1 $72 $73 $26 $-1 $74 reversed single #
loop $-1 $-1 $75 $34 #
plane-surface $-1 0 21.843160587855728 0 0 -1 0 0 0 -1 forward_v I I I I #
face $-1 $76 $77 $27 $-1 $78 reversed single #
loop $-1 $-1 $79 $35 #
plane-surface $-1 23.887957448508736 7.7050381689637959 123.80510431474633 0 -1 0 -0.5877852598018023 0 -0.80901698891910034 forward_v I I I I #
face $-1 $80 $81 $28 $-1 $82 forward single #
loop $-1 $83 $84 $36 #
cone-surface $-1 38.901826930982274 3.8847777029155708 4.4902999248666022 -0.5877852598018023 0 -0.80901698891910034 1.2135254833786506 0 -0.88167788970270344 1 I I 0 1 1.5 forward I I I I #
face $-1 $85 $86 $29 $-1 $87 reversed single #
loop $-1 $-1 $88 $37 #
plane-surface $-1 -111.28149521233851 -13.38324014589104 56.604398718403779 0 1 0 -0.79863551827123203 0 0.60181501223851219 forward_v I I I I #
face $-1 $89 $90 $30 $-1 $91 forward single #
loop $-1 $92 $93 $38 #
cone-surface $-1 -41.236237746378485 -11.218182216726731 6.2436429734134729 0.79863551827123203 0 -0.60181501223851219 0.3009075061192561 0 0.39931775913561601 1 I I 0 1 0.5 forward I I I I #
face $-1 $94 $95 $31 $-1 $96 forward single #
loop $-1 $97 $98 $39 #
cone-surface $-1 -41.236237746378485 -7.970595322980266 6.2436429734134729 0.79863551827123203 0 -0.60181501223851219 0.3009075061192561 0 0.39931775913561601 1 I I 0 1 0.5 forward I I I I #
face $-1 $99 $100 $24 $-1 $101 forward single #
loop $-1 $-1 $102 $40 #
plane-surface $-1 0 -21.843160587855728 0 0 1 0 0 0 1 forward_v I I I I #
coedge $-1 $103 $104 $105 $106 reversed $41 $-1 #
face $-1 $107 $108 $25 $-1 $109 reversed single #
loop $-1 $-1 $110 $43 #
plane-surface $-1 0 0 -8.1239731880269854 0 0 1 1 0 0 forward_v I I I I #
coedge $-1 $111 $112 $113 $114 forward $44 $-1 #
face $-1 $115 $116 $26 $-1 $117 reversed single #
loop $-1 $-1 $118 $46 #
plane-surface $-1 0 0 -8.1239731880269854 0 0 1 1 0 0 forward_v I I I I #
coedge $-1 $119 $120 $121 $122 forward $47 $-1 #
face $-1 $123 $124 $27 $-1 $125 reversed single #
loop $-1 $-1 $126 $49 #
plane-surface $-1 -26.480003117972558 3.8847777029155708 54.479555373231804 0.5877852598018023 0 0.80901698891910034 0.80901698891910034 0 -0.5877852598018023 forward_v I I I I #
coedge $-1 $127 $128 $129 $130 reversed $50 $-1 #
face $-1 $-1 $131 $28 $-1 $132 forward single #
loop $-1 $133 $134 $52 #
cone-surface $-1 37.278551570711734 3.8847777029155708 2.2560531106551327 -0.5877852598018023 0 -0.80901698891910034 0.60676274168932531 0 -0.44083894485135172 1 I I -0.70710678118654724 0.70710678118654768 0.75 forward I I I I #
loop $-1 $-1 $135 $36 #
coedge $-1 $84 $84 $136 $137 reversed $53 $-1 #
face $-1 $138 $139 $29 $-1 $140 reversed single #
loop $-1 $-1 $141 $55 #
plane-surface $-1 -42.845545823541983 -9.5943887698534986 5.0342133500824815 -0.79863551827123203 0 0.60181501223851219 0.60181501223851219 0 0.79863551827123203 forward_v I I I I #
coedge $-1 $142 $143 $144 $145 reversed $56 $-1 #
face $-1 $-1 $146 $30 $-1 $147 forward single #
loop $-1 $148 $149 $58 #
cone-surface $-1 -40.591421276412248 -11.218182216726731 5.7577389247125819 0.79863551827123203 0 -0.60181501223851219 0.15045375305962805 0 0.19965887956780801 1 I I -0.70710678118654746 0.70710678118654746 0.25 forward I I I I #
loop $-1 $-1 $150 $38 #
coedge $-1 $93 $93 $151 $152 reversed $59 $-1 #
face $-1 $-1 $153 $31 $-1 $154 forward single #
loop $-1 $155 $156 $61 #
cone-surface $-1 -40.591421276412248 -7.970595322980266 5.7577389247125819 0.79863551827123203 0 -0.60181501223851219 0.15045375305962805 0 0.19965887956780801 1 I I -0.70710678118654746 0.70710678118654746 0.25 forward I I I I #
loop $-1 $-1 $157 $39 #
coedge $-1 $98 $98 $158 $159 reversed $62 $-1 #
face $-1 $160 $161 $24 $-1 $162 reversed single #
loop $-1 $-1 $163 $64 #
plane-surface $-1 0 0 8.1239731880269854 0 0 1 1 0 0 forward_v I I I I #
coedge $-1 $164 $165 $166 $167 reversed $65 $-1 #
coedge $-1 $168 $67 $169 $170 reversed $41 $-1 #
coedge $-1 $67 $168 $171 $172 forward $41 $-1 #
coedge $-1 $173 $174 $67 $106 forward $161 $-1 #
edge $-1 $175 -42.845545823541975 $176 42.845545823541975 $67 $177 forward 7 unknown #
face $-1 $178 $179 $25 $-1 $180 reversed single #
loop $-1 $-1 $181 $68 #
plane-surface $-1 -28.107924087201862 -30.303081029820412 0 0 1 0 0 0 1 forward_v I I I I #
coedge $-1 $182 $183 $112 $184 forward $69 $-1 #
coedge $-1 $185 $71 $186 $187 reversed $44 $-1 #
coedge $-1 $71 $185 $110 $184 reversed $44 $-1 #
coedge $-1 $188 $189 $71 $114 reversed $179 $-1 #
edge $-1 $190 -8.1239731880269854 $191 8.1239731880269854 $113 $192 forward 7 unknown #
face $-1 $193 $194 $26 $-1 $195 reversed single #
loop $-1 $-1 $196 $72 #
plane-surface $-1 -29.61824872691572 26.07312080883807 0 1 0 0 0 0 -1 forward_v I I I I #
coedge $-1 $197 $198 $120 $199 forward $73 $-1 #
coedge $-1 $200 $75 $201 $202 reversed $47 $-1 #
coedge $-1 $75 $200 $118 $199 reversed $47 $-1 #
coedge $-1 $203 $204 $75 $122 reversed $205 $-1 #
edge $-1 $206 -8.1239731880269854 $207 8.1239731880269854 $121 $208 forward 7 unknown #
face $-1 $209 $210 $27 $-1 $211 forward single #
loop $-1 $-1 $212 $76 #
plane-surface $-1 23.887957448508736 0.064517236867345673 123.80510431474633 0 1 0 0.5877852598018023 0 0.80901698891910034 forward_v I I I I #
coedge $-1 $213 $214 $215 $216 reversed $77 $-1 #
coedge $-1 $128 $79 $217 $218 reversed $50 $-1 #
coedge $-1 $79 $127 $213 $219 reversed $50 $-1 #
coedge $-1 $215 $220 $79 $130 forward $210 $-1 #
edge $-1 $221 -30.901567099287607 $222 -25.379002145006606 $129 $223 forward 7 unknown #
loop $-1 $-1 $136 $80 #
plane-surface $-1 -26.480003117972558 3.8847777029155708 54.479555373231804 0.5877852598018023 0 0.80901698891910034 0.80901698891910034 0 -0.5877852598018023 forward_v I I I I #
loop $-1 $-1 $224 $52 #
coedge $-1 $134 $134 $135 $225 reversed $81 $-1 #
coedge $-1 $135 $135 $134 $225 forward $83 $-1 #
coedge $-1 $136 $136 $84 $137 forward $131 $-1 #
edge $-1 $226 0 $226 6.2831853071796004 $136 $227 forward 7 unknown #
face $-1 $228 $229 $29 $-1 $230 reversed single #
loop $-1 $-1 $231 $85 #
plane-surface $-1 -111.28149521233851 -5.805537393815956 56.604398718403779 0 -1 0 0.79863551827123203 0 -0.60181501223851219 forward_v I I I I #
coedge $-1 $232 $233 $234 $235 reversed $86 $-1 #
coedge $-1 $143 $88 $236 $237 reversed $56 $-1 #
coedge $-1 $88 $142 $232 $238 reversed $56 $-1 #
coedge $-1 $234 $239 $88 $145 forward $240 $-1 #
edge $-1 $241 12.795201782627281 $242 15.123502756157386 $144 $243 forward 7 unknown #
loop $-1 $-1 $151 $89 #
plane-surface $-1 -42.845545823541983 -9.5943887698534986 5.0342133500824815 -0.79863551827123203 0 0.60181501223851219 0.60181501223851219 0 0.79863551827123203 forward_v I I I I #
loop $-1 $-1 $244 $58 #
coedge $-1 $149 $149 $150 $245 reversed $90 $-1 #
coedge $-1 $150 $150 $149 $245 forward $92 $-1 #
coedge $-1 $151 $151 $93 $152 forward $146 $-1 #
edge $-1 $246 0 $246 6.2831853071796004 $151 $247 forward 7 unknown #
loop $-1 $-1 $158 $94 #
plane-surface $-1 -42.845545823541983 -9.5943887698534986 5.0342133500824815 -0.79863551827123203 0 0.60181501223851219 0.60181501223851219 0 0.79863551827123203 forward_v I I I I #
loop $-1 $-1 $248 $61 #
coedge $-1 $156 $156 $157 $249 reversed $95 $-1 #
coedge $-1 $157 $157 $156 $249 forward $97 $-1 #
coedge $-1 $158 $158 $98 $159 forward $153 $-1 #
edge $-1 $250 0 $250 6.2831853071796004 $158 $251 forward 7 unknown #
face $-1 $252 $253 $24 $-1 $254 reversed single #
loop $-1 $-1 $173 $99 #
plane-surface $-1 0 0 -8.1239731880269854 0 0 1 1 0 0 forward_v I I I I #
coedge $-1 $255 $256 $257 $258 forward $100 $-1 #
coedge $-1 $259 $102 $260 $261 reversed $65 $-1 #
coedge $-1 $102 $259 $262 $263 forward $65 $-1 #
coedge $-1 $174 $173 $102 $167 forward $161 $-1 #
edge $-1 $264 -42.845545823541975 $265 42.845545823541975 $102 $266 forward 7 unknown #
coedge $-1 $104 $103 $255 $267 reversed $41 $-1 #
coedge $-1 $268 $269 $103 $170 forward $253 $-1 #
edge $-1 $270 -8.1239731880269854 $175 8.1239731880269854 $103 $271 forward 7 unknown #
coedge $-1 $257 $272 $104 $172 reversed $273 $-1 #
edge $-1 $274 -8.1239731880269854 $176 8.1239731880269854 $171 $275 forward 7 unknown #
coedge $-1 $166 $105 $272 $276 forward $161 $-1 #
coedge $-1 $105 $166 $268 $277 forward $161 $-1 #
vertex $-1 $106 $278 #
vertex $-1 $276 $279 #
straight-curve $-1 0 21.843160587855728 -8.1239731880269854 1 0 0 I I #
face $-1 $280 $281 $25 $-1 $282 reversed single #
loop $-1 $-1 $113 $107 #
plane-surface $-1 -29.61824872691572 -26.07312080883807 0 1 0 0 0 0 -1 forward_v I I I I #
coedge $-1 $283 $284 $285 $286 forward $108 $-1 #
coedge $-1 $287 $110 $288 $289 forward $69 $-1 #
coedge $-1 $110 $287 $188 $290 forward $69 $-1 #
edge $-1 $190 -29.61824872691572 $291 -26.597599447488005 $110 $292 forward 7 unknown #
coedge $-1 $112 $111 $293 $294 forward $44 $-1 #
coedge $-1 $295 $296 $111 $187 forward $297 $-1 #
edge $-1 $298 26.597599447488005 $191 29.61824872691572 $186 $299 forward 7 unknown #
coedge $-1 $285 $113 $183 $290 reversed $179 $-1 #
coedge $-1 $113 $285 $295 $300 reversed $179 $-1 #
vertex $-1 $184 $301 #
vertex $-1 $300 $302 #
straight-curve $-1 -29.61824872691572 -21.843160587855728 0 0 0 1 I I #
face $-1 $303 $205 $26 $-1 $304 reversed single #
loop $-1 $-1 $305 $115 #
plane-surface $-1 -28.107924087201862 30.303081029820412 0 0 -1 0 0 0 -1 forward_v I I I I #
coedge $-1 $306 $307 $308 $309 forward $116 $-1 #
coedge $-1 $310 $118 $306 $311 forward $73 $-1 #
coedge $-1 $118 $310 $203 $312 forward $73 $-1 #
edge $-1 $206 26.597599447488005 $313 29.61824872691572 $118 $314 forward 7 unknown #
coedge $-1 $120 $119 $315 $316 forward $47 $-1 #
coedge $-1 $317 $318 $119 $202 forward $319 $-1 #
edge $-1 $320 -29.61824872691572 $207 -26.597599447488005 $201 $321 forward 7 unknown #
coedge $-1 $322 $121 $198 $312 reversed $205 $-1 #
coedge $-1 $121 $322 $317 $323 reversed $205 $-1 #
loop $-1 $-1 $121 $193 #
vertex $-1 $199 $324 #
vertex $-1 $323 $325 #
straight-curve $-1 -26.597599447488005 21.843160587855728 0 0 0 1 I I #
face $-1 $-1 $326 $27 $-1 $327 reversed single #
loop $-1 $-1 $129 $123 #
plane-surface $-1 0 0 8.1239731880269854 0 0 1 1 0 0 forward_v I I I I #
coedge $-1 $328 $329 $330 $331 reversed $124 $-1 #
coedge $-1 $332 $126 $128 $219 forward $77 $-1 #
coedge $-1 $126 $332 $328 $333 forward $77 $-1 #
coedge $-1 $330 $129 $126 $216 forward $210 $-1 #
edge $-1 $222 -5.7626493175060105 $334 1.8778716145904397 $215 $335 forward 7 unknown #
coedge $-1 $336 $337 $127 $218 forward $326 $-1 #
edge $-1 $338 -57.790957350622662 $221 -53.778578969346178 $217 $339 forward 7 unknown #
edge $-1 $222 78.864825907399648 $338 85.691091647083965 $128 $340 forward 7 unknown #
coedge $-1 $129 $330 $336 $341 forward $210 $-1 #
vertex $-1 $130 $342 #
vertex $-1 $130 $343 #
straight-curve $-1 11.943978724254368 7.7050381689637959 8.1239731880269872 -1 0 0 I I #
coedge $-1 $224 $224 $-1 $344 reversed $133 $-1 #
edge $-1 $345 0 $345 6.2831853071796004 $134 $346 forward 7 unknown #
vertex $-1 $137 $347 #
ellipse-curve $-1 40.084263346401464 3.8847777029155708 6.1177839973887522 0.5877852598018023 0 0.80901698891910034 1.2135254833786506 0 -0.88167788970270344 1 I I #
face $-1 $-1 $240 $29 $-1 $348 forward single #
loop $-1 $-1 $349 $138 #
plane-surface $-1 -42.845545823541975 0 0 1 0 0 0 0 -1 forward_v I I I I #
coedge $-1 $350 $351 $352 $353 reversed $139 $-1 #
coedge $-1 $354 $141 $143 $238 forward $86 $-1 #
coedge $-1 $141 $354 $350 $355 forward $86 $-1 #
coedge $-1 $352 $144 $141 $235 forward $240 $-1 #
edge $-1 $242 -8.5860457609642911 $356 -1.0083430088892067 $234 $357 forward 7 unknown #
coedge $-1 $358 $359 $142 $237 forward $229 $-1 #
edge $-1 $360 -23.267986009119397 $241 -20.178226171174906 $236 $361 forward 7 unknown #
edge $-1 $242 -3.8687984283904111 $360 -1.2078792010054373e-014 $143 $362 forward 7 unknown #
coedge $-1 $144 $352 $358 $363 forward $240 $-1 #
loop $-1 $-1 $352 $228 #
vertex $-1 $237 $364 #
vertex $-1 $145 $365 #
straight-curve $-1 -55.640747606169256 -13.38324014589104 8.1239731880269872 1 0 0 I I #
coedge $-1 $244 $244 $-1 $366 reversed $148 $-1 #
edge $-1 $367 0 $367 6.2831853071796004 $149 $368 forward 7 unknown #
vertex $-1 $152 $369 #
ellipse-curve $-1 -41.681395336776923 -11.218182216726731 6.5790932690547406 -0.79863551827123203 0 0.60181501223851219 0.3009075061192561 0 0.39931775913561601 1 I I #
coedge $-1 $248 $248 $-1 $370 reversed $155 $-1 #
edge $-1 $371 0 $371 6.2831853071796004 $156 $372 forward 7 unknown #
vertex $-1 $159 $373 #
ellipse-curve $-1 -41.681395336776923 -7.970595322980266 6.5790932690547406 -0.79863551827123203 0 0.60181501223851219 0.3009075061192561 0 0.39931775913561601 1 I I #
face $-1 $-1 $273 $24 $-1 $374 reversed single #
loop $-1 $-1 $169 $160 #
plane-surface $-1 -42.845545823541975 0 0 1 0 0 0 0 -1 forward_v I I I I #
coedge $-1 $375 $163 $168 $267 forward $100 $-1 #
coedge $-1 $163 $375 $259 $376 forward $100 $-1 #
coedge $-1 $260 $171 $163 $258 reversed $273 $-1 #
edge $-1 $377 -21.843160587855728 $274 21.843160587855728 $257 $378 forward 7 unknown #
coedge $-1 $165 $164 $256 $376 reversed $65 $-1 #
coedge $-1 $272 $257 $164 $261 forward $273 $-1 #
edge $-1 $377 -8.1239731880269854 $264 8.1239731880269854 $260 $379 forward 7 unknown #
coedge $-1 $269 $268 $165 $263 reversed $253 $-1 #
edge $-1 $380 -8.1239731880269854 $265 8.1239731880269854 $262 $381 forward 7 unknown #
vertex $-1 $261 $382 #
vertex $-1 $277 $383 #
straight-curve $-1 0 -21.843160587855728 -8.1239731880269854 -1 0 0 I I #
edge $-1 $274 -42.845545823541975 $270 42.845545823541975 $168 $384 forward 7 unknown #
coedge $-1 $262 $169 $174 $277 reversed $253 $-1 #
coedge $-1 $169 $262 $375 $385 reversed $253 $-1 #
vertex $-1 $267 $386 #
straight-curve $-1 -42.845545823541975 21.843160587855728 0 0 0 -1 I I #
coedge $-1 $171 $260 $173 $276 reversed $273 $-1 #
loop $-1 $-1 $260 $252 #
vertex $-1 $258 $387 #
straight-curve $-1 42.845545823541975 21.843160587855728 0 0 0 -1 I I #
edge $-1 $176 -21.843160587855728 $264 21.843160587855728 $272 $388 forward 7 unknown #
edge $-1 $265 -21.843160587855728 $175 21.843160587855728 $268 $389 forward 7 unknown #
point $-1 -42.845545823541975 21.843160587855728 -8.1239731880269854 #
point $-1 42.845545823541975 21.843160587855728 -8.1239731880269854 #
face $-1 $-1 $297 $25 $-1 $390 forward single #
loop $-1 $-1 $391 $178 #
plane-surface $-1 -26.597599447488005 -26.07312080883807 0 -1 0 0 0 0 1 forward_v I I I I #
coedge $-1 $392 $181 $287 $393 reversed $108 $-1 #
coedge $-1 $181 $392 $394 $395 reversed $108 $-1 #
coedge $-1 $189 $188 $181 $286 reversed $179 $-1 #
edge $-1 $396 -8.1239731880269854 $397 8.1239731880269854 $285 $398 forward 7 unknown #
coedge $-1 $183 $182 $283 $393 forward $69 $-1 #
coedge $-1 $293 $391 $182 $289 reversed $281 $-1 #
edge $-1 $291 -4.2299602209823419 $399 4.2299602209823419 $288 $400 forward 7 unknown #
edge $-1 $397 -4.2299602209823419 $190 4.2299602209823419 $188 $401 forward 7 unknown #
vertex $-1 $289 $402 #
straight-curve $-1 0 -21.843160587855728 -8.1239731880269854 1 0 0 I I #
coedge $-1 $403 $288 $185 $294 reversed $281 $-1 #
edge $-1 $298 -8.1239731880269854 $291 8.1239731880269854 $293 $404 forward 7 unknown #
coedge $-1 $394 $186 $189 $300 forward $297 $-1 #
coedge $-1 $186 $394 $403 $405 forward $297 $-1 #
loop $-1 $-1 $186 $280 #
vertex $-1 $187 $406 #
straight-curve $-1 0 -21.843160587855728 8.1239731880269854 -1 0 0 I I #
edge $-1 $191 -4.2299602209823419 $396 4.2299602209823419 $189 $407 forward 7 unknown #
point $-1 -29.61824872691572 -21.843160587855728 -8.1239731880269854 #
point $-1 -29.61824872691572 -21.843160587855728 8.1239731880269854 #
face $-1 $-1 $319 $26 $-1 $408 forward single #
plane-surface $-1 -26.597599447488005 26.07312080883807 0 -1 0 0 0 0 1 forward_v I I I I #
coedge $-1 $409 $410 $322 $411 forward $194 $-1 #
coedge $-1 $315 $196 $197 $311 reversed $116 $-1 #
coedge $-1 $196 $315 $318 $412 reversed $116 $-1 #
coedge $-1 $410 $409 $196 $309 reversed $194 $-1 #
edge $-1 $413 -8.1239731880269854 $414 8.1239731880269854 $308 $415 forward 7 unknown #
coedge $-1 $198 $197 $409 $416 forward $73 $-1 #
edge $-1 $313 -4.2299602209823419 $414 4.2299602209823419 $306 $417 forward 7 unknown #
edge $-1 $418 -4.2299602209823419 $206 4.2299602209823419 $203 $419 forward 7 unknown #
vertex $-1 $311 $420 #
straight-curve $-1 0 21.843160587855728 -8.1239731880269854 -1 0 0 I I #
coedge $-1 $307 $306 $200 $316 reversed $116 $-1 #
edge $-1 $320 -8.1239731880269854 $313 8.1239731880269854 $315 $421 forward 7 unknown #
coedge $-1 $422 $201 $204 $323 forward $319 $-1 #
coedge $-1 $201 $422 $307 $412 forward $319 $-1 #
loop $-1 $-1 $201 $303 #
vertex $-1 $202 $423 #
straight-curve $-1 0 21.843160587855728 8.1239731880269854 1 0 0 I I #
coedge $-1 $204 $203 $305 $411 reversed $205 $-1 #
edge $-1 $207 -4.2299602209823419 $424 4.2299602209823419 $204 $425 forward 7 unknown #
point $-1 -26.597599447488005 21.843160587855728 -8.1239731880269854 #
point $-1 -26.597599447488005 21.843160587855728 8.1239731880269854 #
loop $-1 $-1 $217 $209 #
plane-surface $-1 42.845545823541975 0 0 -1 0 0 0 0 1 forward_v I I I I #
coedge $-1 $329 $212 $214 $333 reversed $124 $-1 #
coedge $-1 $212 $328 $426 $427 reversed $124 $-1 #
coedge $-1 $220 $215 $212 $331 forward $210 $-1 #
edge $-1 $334 25.379002145006606 $428 30.901567099287607 $330 $429 forward 7 unknown #
coedge $-1 $214 $213 $337 $430 reversed $77 $-1 #
edge $-1 $431 -85.691091647083965 $334 -78.864825907399648 $328 $432 forward 7 unknown #
vertex $-1 $216 $433 #
straight-curve $-1 37.322980869260967 1.9423888514577854 8.1239731880269872 0 -1 0 I I #
coedge $-1 $426 $217 $220 $341 reversed $326 $-1 #
coedge $-1 $217 $426 $332 $430 forward $326 $-1 #
vertex $-1 $218 $434 #
straight-curve $-1 42.845545823541975 7.7050381689637959 61.902552157373165 0 0 1 I I #
straight-curve $-1 -26.480003117972558 7.7050381689637959 54.479555373231804 0.80901698891910034 0 -0.5877852598018023 I I #
edge $-1 $428 0.064517236867345673 $221 7.7050381689637959 $336 $435 forward 7 unknown #
point $-1 42.845545823541975 7.7050381689637959 8.1239731880269854 #
point $-1 37.322980869260974 7.7050381689637959 8.1239731880269872 #
edge $-1 $436 1 $436 0 $224 $-1 forward 7 unknown #
vertex $-1 $225 $437 #
ellipse-curve $-1 37.719390515563084 3.8847777029155708 2.8628158523444585 0.5877852598018023 0 0.80901698891910034 1.2135254833786506 0 -0.88167788970270344 1 I I #
point $-1 41.297788829780103 3.8847777029155708 5.2361061076860427 #
plane-surface $-1 0 0 8.1239731880269854 0 0 1 1 0 0 forward_v I I I I #
coedge $-1 $359 $358 $351 $438 forward $229 $-1 #
coedge $-1 $351 $231 $233 $355 reversed $139 $-1 #
coedge $-1 $231 $350 $349 $438 reversed $139 $-1 #
coedge $-1 $239 $234 $231 $353 forward $240 $-1 #
edge $-1 $356 -15.123502756157386 $439 -12.795201782627281 $352 $440 forward 7 unknown #
coedge $-1 $233 $232 $359 $441 reversed $86 $-1 #
edge $-1 $442 1.2078792010054373e-014 $356 3.8687984283904111 $350 $443 forward 7 unknown #
vertex $-1 $235 $444 #
straight-curve $-1 -40.51724485001187 -4.7971943849267493 8.1239731880269854 0 1 0 I I #
coedge $-1 $349 $236 $239 $363 reversed $229 $-1 #
coedge $-1 $236 $349 $354 $441 forward $229 $-1 #
vertex $-1 $237 $445 #
straight-curve $-1 -42.845545823541975 -13.38324014589104 28.302199359201889 0 0 1 I I #
straight-curve $-1 -42.845545823541983 -13.38324014589104 5.0342133500824815 -0.60181501223851219 0 -0.79863551827123203 I I #
edge $-1 $439 5.805537393815956 $241 13.38324014589104 $358 $446 forward 7 unknown #
point $-1 -42.845545823541975 -13.38324014589104 8.1239731880269854 #
point $-1 -40.51724485001187 -13.38324014589104 8.1239731880269854 #
edge $-1 $447 1 $447 0 $244 $-1 forward 7 unknown #
vertex $-1 $245 $448 #
ellipse-curve $-1 -40.791080155980055 -11.218182216726731 5.9081926777722096 -0.79863551827123203 0 0.60181501223851219 0.3009075061192561 0 0.39931775913561601 1 I I #
point $-1 -41.380487830657657 -11.218182216726731 6.9784110281903509 #
edge $-1 $449 1 $449 0 $248 $-1 forward 7 unknown #
vertex $-1 $249 $450 #
ellipse-curve $-1 -40.791080155980055 -7.970595322980266 5.9081926777722096 -0.79863551827123203 0 0.60181501223851219 0.3009075061192561 0 0.39931775913561601 1 I I #
point $-1 -41.380487830657657 -7.970595322980266 6.9784110281903509 #
plane-surface $-1 42.845545823541975 0 0 -1 0 0 0 0 1 forward_v I I I I #
coedge $-1 $256 $255 $269 $385 forward $100 $-1 #
edge $-1 $380 -42.845545823541975 $377 42.845545823541975 $259 $451 forward 7 unknown #
vertex $-1 $258 $452 #
straight-curve $-1 42.845545823541975 0 8.1239731880269854 0 1 0 I I #
straight-curve $-1 42.845545823541975 -21.843160587855728 0 0 0 -1 I I #
vertex $-1 $385 $453 #
straight-curve $-1 -42.845545823541975 -21.843160587855728 0 0 0 -1 I I #
point $-1 42.845545823541975 -21.843160587855728 -8.1239731880269854 #
point $-1 -42.845545823541975 -21.843160587855728 -8.1239731880269854 #
straight-curve $-1 0 21.843160587855728 8.1239731880269854 -1 0 0 I I #
edge $-1 $270 -21.843160587855728 $380 21.843160587855728 $269 $454 forward 7 unknown #
point $-1 -42.845545823541975 21.843160587855728 8.1239731880269854 #
point $-1 42.845545823541975 21.843160587855728 8.1239731880269854 #
straight-curve $-1 42.845545823541975 0 -8.1239731880269854 0 -1 0 I I #
straight-curve $-1 -42.845545823541975 0 -8.1239731880269854 0 1 0 I I #
plane-surface $-1 0 0 8.1239731880269854 0 0 1 1 0 0 forward_v I I I I #
coedge $-1 $288 $403 $392 $455 forward $281 $-1 #
coedge $-1 $284 $283 $391 $455 reversed $108 $-1 #
edge $-1 $399 -1.5103246397138577 $397 1.5103246397138577 $283 $456 forward 7 unknown #
coedge $-1 $296 $295 $284 $395 forward $297 $-1 #
edge $-1 $396 -1.5103246397138577 $457 1.5103246397138577 $284 $458 forward 7 unknown #
vertex $-1 $300 $459 #
vertex $-1 $290 $460 #
straight-curve $-1 -29.61824872691572 -30.303081029820412 0 0 0 -1 I I #
vertex $-1 $455 $461 #
straight-curve $-1 -26.597599447488005 -26.07312080883807 -8.1239731880269854 0 -1 0 I I #
straight-curve $-1 -29.61824872691572 -26.07312080883807 -8.1239731880269854 0 1 0 I I #
point $-1 -26.597599447488005 -21.843160587855728 -8.1239731880269854 #
coedge $-1 $391 $293 $296 $405 reversed $281 $-1 #
straight-curve $-1 -26.597599447488005 -21.843160587855728 0 0 0 -1 I I #
edge $-1 $457 -4.2299602209823419 $298 4.2299602209823419 $403 $462 forward 7 unknown #
point $-1 -26.597599447488005 -21.843160587855728 8.1239731880269854 #
straight-curve $-1 -29.61824872691572 -26.07312080883807 8.1239731880269854 0 -1 0 I I #
plane-surface $-1 0 0 8.1239731880269854 0 0 1 1 0 0 forward_v I I I I #
coedge $-1 $308 $305 $310 $416 reversed $194 $-1 #
coedge $-1 $305 $308 $422 $463 reversed $194 $-1 #
edge $-1 $424 -8.1239731880269854 $418 8.1239731880269854 $322 $464 forward 7 unknown #
edge $-1 $413 -4.2299602209823419 $320 4.2299602209823419 $307 $465 forward 7 unknown #
vertex $-1 $463 $466 #
vertex $-1 $416 $467 #
straight-curve $-1 -29.61824872691572 30.303081029820412 0 0 0 -1 I I #
edge $-1 $414 -1.5103246397138577 $418 1.5103246397138577 $409 $468 forward 7 unknown #
straight-curve $-1 -29.61824872691572 26.07312080883807 -8.1239731880269854 0 1 0 I I #
vertex $-1 $312 $469 #
straight-curve $-1 -26.597599447488005 26.07312080883807 -8.1239731880269854 0 -1 0 I I #
point $-1 -29.61824872691572 21.843160587855728 -8.1239731880269854 #
straight-curve $-1 -29.61824872691572 21.843160587855728 0 0 0 -1 I I #
coedge $-1 $318 $317 $410 $463 forward $319 $-1 #
point $-1 -29.61824872691572 21.843160587855728 8.1239731880269854 #
vertex $-1 $323 $470 #
straight-curve $-1 -26.597599447488005 26.07312080883807 8.1239731880269854 0 1 0 I I #
coedge $-1 $337 $336 $329 $427 forward $326 $-1 #
edge $-1 $428 53.778578969346178 $431 57.790957350622662 $426 $471 forward 7 unknown #
vertex $-1 $341 $472 #
straight-curve $-1 11.943978724254368 0.064517236867345673 8.1239731880269872 1 0 0 I I #
edge $-1 $431 -1.8778716145904397 $338 5.7626493175060105 $337 $473 forward 7 unknown #
vertex $-1 $430 $474 #
straight-curve $-1 -26.480003117972558 0.064517236867345673 54.479555373231804 -0.80901698891910034 0 0.5877852598018023 I I #
point $-1 37.322980869260974 0.064517236867345673 8.1239731880269872 #
point $-1 42.845545823541983 7.7050381689637959 4.111594806750503 #
straight-curve $-1 42.845545823541975 0 8.1239731880269854 0 1 0 I I #
vertex $-1 $344 $475 #
point $-1 38.932915998941738 3.8847777029155708 1.9811379626417549 #
edge $-1 $439 20.178226171174906 $442 23.267986009119397 $349 $476 forward 7 unknown #
vertex $-1 $363 $477 #
straight-curve $-1 -55.640747606169256 -5.805537393815956 8.1239731880269872 -1 0 0 I I #
edge $-1 $442 1.0083430088892067 $360 8.5860457609642911 $359 $478 forward 7 unknown #
vertex $-1 $441 $479 #
straight-curve $-1 -42.845545823541983 -5.805537393815956 5.0342133500824815 0.60181501223851219 0 0.79863551827123203 I I #
point $-1 -40.51724485001187 -5.805537393815956 8.1239731880269854 #
point $-1 -42.845545823541975 -13.38324014589104 5.0342133500824913 #
straight-curve $-1 -42.845545823541975 0 8.1239731880269854 0 -1 0 I I #
vertex $-1 $366 $480 #
point $-1 -40.490172649860803 -11.218182216726731 6.3075104369078261 #
vertex $-1 $370 $481 #
point $-1 -40.490172649860803 -7.970595322980266 6.3075104369078261 #
straight-curve $-1 0 -21.843160587855728 8.1239731880269854 1 0 0 I I #
point $-1 42.845545823541975 -21.843160587855728 8.1239731880269854 #
point $-1 -42.845545823541975 -21.843160587855728 8.1239731880269854 #
straight-curve $-1 -42.845545823541975 0 8.1239731880269854 0 -1 0 I I #
edge $-1 $457 -8.1239731880269854 $399 8.1239731880269854 $391 $482 forward 7 unknown #
straight-curve $-1 -28.107924087201862 -30.303081029820412 -8.1239731880269854 -1 0 0 I I #
vertex $-1 $405 $483 #
straight-curve $-1 -28.107924087201862 -30.303081029820412 8.1239731880269854 1 0 0 I I #
point $-1 -29.61824872691572 -30.303081029820412 8.1239731880269854 #
point $-1 -29.61824872691572 -30.303081029820412 -8.1239731880269854 #
point $-1 -26.597599447488005 -30.303081029820412 -8.1239731880269854 #
straight-curve $-1 -26.597599447488005 -26.07312080883807 8.1239731880269854 0 1 0 I I #
edge $-1 $424 -1.5103246397138577 $413 1.5103246397138577 $410 $484 forward 7 unknown #
straight-curve $-1 -26.597599447488005 30.303081029820412 0 0 0 -1 I I #
straight-curve $-1 -29.61824872691572 26.07312080883807 8.1239731880269854 0 -1 0 I I #
point $-1 -29.61824872691572 30.303081029820412 8.1239731880269854 #
point $-1 -29.61824872691572 30.303081029820412 -8.1239731880269854 #
straight-curve $-1 -28.107924087201862 30.303081029820412 -8.1239731880269854 1 0 0 I I #
point $-1 -26.597599447488005 30.303081029820412 -8.1239731880269854 #
point $-1 -26.597599447488005 30.303081029820412 8.1239731880269854 #
straight-curve $-1 42.845545823541975 0.064517236867345673 61.902552157373165 0 0 -1 I I #
point $-1 42.845545823541975 0.064517236867345673 8.1239731880269854 #
straight-curve $-1 42.845545823541975 1.9423888514577854 4.111594806750503 0 1 0 I I #
point $-1 42.845545823541983 0.064517236867345673 4.111594806750503 #
point $-1 36.837712625860384 3.8847777029155708 1.6492903689658069 #
straight-curve $-1 -42.845545823541975 -5.805537393815956 28.302199359201889 0 0 -1 I I #
point $-1 -42.845545823541975 -5.805537393815956 8.1239731880269854 #
straight-curve $-1 -42.845545823541975 -4.7971943849267493 5.0342133500824957 0 -1 0 I I #
point $-1 -42.845545823541975 -5.805537393815956 5.0342133500824913 #
point $-1 -40.391762396844442 -11.218182216726731 5.6072851716529541 #
point $-1 -40.391762396844442 -7.970595322980266 5.6072851716529541 #
straight-curve $-1 -26.597599447488005 -30.303081029820412 0 0 0 -1 I I #
point $-1 -26.597599447488005 -30.303081029820412 8.1239731880269854 #
straight-curve $-1 -28.107924087201862 30.303081029820412 8.1239731880269854 -1 0 0 I I #
End-of-ACIS-data 