500 0 5 0           
7 Unknown 11 ACIS 5.0 NT 24 Thu Mar 25 17:42:55 1999 
-1 9.9999999999999995e-007 1e-010 
body $-1 $5 $-1 $6 #
body $-1 $7 $-1 $8 #
body $-1 $9 $-1 $10 #
body $-1 $11 $-1 $12 #
body $-1 $13 $-1 $14 #
lump $-1 $-1 $15 $0 #
transform $-1 1 0 0 0 1 0 0 0 1 58.17804498428297 37.339094327340597 9.0150774572727723 1 rotate no_reflect no_shear #
lump $-1 $-1 $16 $1 #
transform $-1 1 0 0 0 1 0 0 0 1 58.17804498428297 37.339094327340597 9.0150774572727723 1 rotate no_reflect no_shear #
lump $-1 $-1 $17 $2 #
transform $-1 1 0 0 0 1 0 0 0 1 58.17804498428297 37.339094327340597 9.0150774572727723 1 rotate no_reflect no_shear #
lump $-1 $-1 $18 $3 #
transform $-1 1 0 0 0 1 0 0 0 1 58.17804498428297 37.339094327340597 9.0150774572727723 1 rotate no_reflect no_shear #
lump $-1 $-1 $19 $4 #
transform $-1 1 0 0 0 1 0 0 0 1 58.17804498428297 37.339094327340597 9.0150774572727723 1 rotate no_reflect no_shear #
shell $-1 $-1 $-1 $20 $-1 $5 #
shell $-1 $-1 $-1 $21 $-1 $7 #
shell $-1 $-1 $-1 $22 $-1 $9 #
shell $-1 $-1 $-1 $23 $-1 $11 #
shell $-1 $-1 $-1 $24 $-1 $13 #
face $-1 $25 $26 $15 $-1 $27 forward single #
face $-1 $28 $29 $16 $-1 $30 reversed single #
face $-1 $31 $32 $17 $-1 $33 forward single #
face $-1 $34 $35 $18 $-1 $36 reversed single #
face $-1 $37 $38 $19 $-1 $39 reversed single #
face $-1 $40 $41 $15 $-1 $42 reversed single #
loop $-1 $-1 $43 $20 #
plane-surface $-1 0 0 9.0150774572727723 0 0 1 1 0 0 forward_v I I I I #
face $-1 $44 $45 $16 $-1 $46 reversed single #
loop $-1 $-1 $47 $21 #
plane-surface $-1 -49.272305488626074 -48.003683070113432 0 0 1 0 0 0 1 forward_v I I I I #
face $-1 $48 $49 $17 $-1 $50 forward single #
loop $-1 $-1 $51 $22 #
plane-surface $-1 28.771739352437166 76.160851884796841 133.53682912659173 1 0 0 0 -0.75470958851134928 -0.65605901945558964 forward_v I I I I #
face $-1 $52 $53 $18 $-1 $54 reversed single #
loop $-1 $55 $56 $23 #
cone-surface $-1 37.17354096153597 31.364039146026155 2.8222923366576631 0 -0.75470958851134928 -0.65605901945558964 2.5 0 0 1 I I 0 1 2.5 forward I I I I #
face $-1 $57 $58 $19 $-1 $59 reversed single #
loop $-1 $60 $61 $24 #
cone-surface $-1 49.776243375184173 31.364039146026155 2.8222923366576631 0 -0.75470958851134928 -0.65605901945558964 2.5 0 0 1 I I 0 1 2.5 forward I I I I #
face $-1 $62 $63 $15 $-1 $64 reversed single #
loop $-1 $-1 $65 $25 #
plane-surface $-1 0 0 -9.0150774572727723 0 0 1 1 0 0 forward_v I I I I #
coedge $-1 $66 $67 $68 $69 forward $26 $-1 #
face $-1 $70 $71 $16 $-1 $72 reversed single #
loop $-1 $-1 $73 $28 #
plane-surface $-1 -51.049651656469571 -42.671388698727014 0 1 0 0 0 0 -1 forward_v I I I I #
coedge $-1 $74 $75 $76 $77 forward $29 $-1 #
face $-1 $78 $79 $17 $-1 $80 forward single #
loop $-1 $-1 $81 $31 #
plane-surface $-1 43.474892168360064 -11.654204896169105 57.200366834127976 0 0.75470958851134928 0.65605901945558964 1 0 0 forward_v I I I I #
coedge $-1 $82 $83 $84 $85 reversed $32 $-1 #
face $-1 $86 $87 $18 $-1 $88 forward single #
loop $-1 $89 $90 $34 #
cone-surface $-1 37.17354096153597 27.998830618652995 -0.10303873153085696 0 -0.75470958851134928 -0.65605901945558964 1.25 0 0 1 I I -0.70710678118654757 0.70710678118654735 1.25 forward I I I I #
loop $-1 $-1 $91 $23 #
coedge $-1 $56 $56 $92 $93 reversed $35 $-1 #
face $-1 $94 $95 $19 $-1 $96 reversed single #
loop $-1 $97 $98 $37 #
cone-surface $-1 49.776243375184173 27.998830618652995 -0.10303873153085696 0 -0.75470958851134928 -0.65605901945558964 1.25 0 0 1 I I -0.70710678118654757 0.70710678118654735 1.25 forward I I I I #
loop $-1 $-1 $99 $24 #
coedge $-1 $61 $61 $100 $101 reversed $38 $-1 #
face $-1 $102 $103 $15 $-1 $104 reversed single #
loop $-1 $-1 $105 $40 #
plane-surface $-1 0 -37.339094327340597 0 0 1 0 0 0 1 forward_v I I I I #
coedge $-1 $106 $107 $108 $109 forward $41 $-1 #
coedge $-1 $110 $43 $111 $112 forward $26 $-1 #
coedge $-1 $43 $110 $113 $114 forward $26 $-1 #
coedge $-1 $115 $116 $43 $69 reversed $117 $-1 #
edge $-1 $118 -37.339094327340597 $119 37.339094327340597 $68 $120 forward 7 unknown #
face $-1 $121 $122 $16 $-1 $123 reversed single #
loop $-1 $-1 $124 $44 #
plane-surface $-1 -47.494959320782577 -42.671388698727014 0 -1 0 0 0 0 1 forward_v I I I I #
coedge $-1 $125 $126 $127 $128 reversed $45 $-1 #
coedge $-1 $129 $47 $130 $131 reversed $29 $-1 #
coedge $-1 $47 $129 $132 $133 reversed $29 $-1 #
coedge $-1 $126 $125 $47 $77 reversed $45 $-1 #
edge $-1 $134 -9.0150774572727723 $135 9.0150774572727723 $76 $136 forward 7 unknown #
face $-1 $137 $138 $17 $-1 $139 reversed single #
loop $-1 $-1 $140 $48 #
plane-surface $-1 0 0 9.0150774572727723 0 0 1 1 0 0 forward_v I I I I #
coedge $-1 $141 $142 $140 $143 reversed $49 $-1 #
coedge $-1 $83 $51 $142 $144 forward $32 $-1 #
coedge $-1 $51 $82 $145 $146 reversed $32 $-1 #
coedge $-1 $147 $140 $51 $85 forward $79 $-1 #
edge $-1 $148 -7.8477988942188048 $149 -0.74133161505782397 $84 $150 forward 7 unknown #
face $-1 $151 $152 $18 $-1 $153 forward single #
loop $-1 $-1 $154 $52 #
plane-surface $-1 28.771739352437166 76.160851884796841 133.53682912659173 1 0 0 0 -0.75470958851134928 -0.65605901945558964 forward_v I I I I #
loop $-1 $-1 $155 $34 #
coedge $-1 $90 $90 $91 $156 forward $53 $-1 #
coedge $-1 $91 $91 $90 $156 reversed $55 $-1 #
coedge $-1 $92 $92 $56 $93 forward $152 $-1 #
edge $-1 $157 2.4510146044127572e-017 $157 6.2831853071796004 $92 $158 forward 7 unknown #
face $-1 $159 $160 $19 $-1 $161 reversed single #
loop $-1 $162 $163 $57 #
cone-surface $-1 37.17354096153597 31.364039146026155 2.8222923366576631 0 -0.75470958851134928 -0.65605901945558964 2.5 0 0 1 I I 0 1 2.5 forward I I I I #
loop $-1 $-1 $164 $37 #
coedge $-1 $98 $98 $99 $165 forward $58 $-1 #
coedge $-1 $99 $99 $98 $165 reversed $60 $-1 #
coedge $-1 $100 $100 $61 $101 forward $166 $-1 #
edge $-1 $167 2.4510146044127572e-017 $167 6.2831853071796004 $100 $168 forward 7 unknown #
face $-1 $169 $170 $15 $-1 $171 reversed single #
loop $-1 $-1 $172 $62 #
plane-surface $-1 -58.17804498428297 0 0 1 0 0 0 0 -1 forward_v I I I I #
coedge $-1 $173 $113 $174 $175 forward $63 $-1 #
coedge $-1 $176 $65 $173 $177 forward $41 $-1 #
coedge $-1 $65 $176 $178 $179 forward $41 $-1 #
coedge $-1 $116 $115 $65 $109 reversed $117 $-1 #
edge $-1 $180 -37.339094327340597 $181 37.339094327340597 $108 $182 forward 7 unknown #
coedge $-1 $67 $66 $183 $184 forward $26 $-1 #
coedge $-1 $185 $186 $66 $112 reversed $170 $-1 #
edge $-1 $119 -58.17804498428297 $187 58.17804498428297 $111 $188 forward 7 unknown #
coedge $-1 $105 $189 $67 $114 reversed $63 $-1 #
edge $-1 $190 -58.17804498428297 $118 58.17804498428297 $113 $191 forward 7 unknown #
coedge $-1 $108 $68 $189 $192 forward $117 $-1 #
coedge $-1 $68 $108 $185 $193 reversed $117 $-1 #
loop $-1 $-1 $115 $169 #
vertex $-1 $69 $194 #
vertex $-1 $69 $195 #
straight-curve $-1 58.17804498428297 0 9.0150774572727723 0 1 0 I I #
face $-1 $196 $197 $16 $-1 $123 reversed single #
loop $-1 $-1 $127 $70 #
plane-surface $-1 0 -37.339094327340597 0 0 1 0 0 0 1 forward_v I I I I #
coedge $-1 $198 $199 $129 $200 forward $71 $-1 #
coedge $-1 $76 $73 $201 $202 reversed $45 $-1 #
coedge $-1 $73 $76 $203 $204 reversed $45 $-1 #
coedge $-1 $205 $206 $73 $128 forward $122 $-1 #
edge $-1 $207 -9.0150774572727723 $208 9.0150774572727723 $127 $209 forward 7 unknown #
coedge $-1 $75 $74 $124 $200 reversed $29 $-1 #
coedge $-1 $201 $210 $74 $131 forward $211 $-1 #
edge $-1 $212 -1.777346167843497 $135 1.777346167843497 $74 $213 forward 7 unknown #
coedge $-1 $214 $203 $75 $133 forward $215 $-1 #
edge $-1 $134 -1.777346167843497 $216 1.777346167843497 $75 $217 forward 7 unknown #
vertex $-1 $204 $218 #
vertex $-1 $202 $219 #
straight-curve $-1 -51.049651656469571 -48.003683070113432 0 0 0 -1 I I #
face $-1 $220 $221 $17 $-1 $222 reversed single #
loop $-1 $-1 $145 $78 #
plane-surface $-1 0 37.339094327340597 0 0 -1 0 0 0 -1 forward_v I I I I #
coedge $-1 $84 $223 $81 $143 forward $79 $-1 #
coedge $-1 $224 $81 $225 $226 reversed $49 $-1 #
coedge $-1 $81 $224 $82 $144 reversed $49 $-1 #
edge $-1 $227 -36.440598900102927 $148 -7.0342932682571337 $140 $228 forward 7 unknown #
edge $-1 $148 63.846133811417189 $229 74.67818865468125 $82 $230 forward 7 unknown #
coedge $-1 $231 $232 $83 $146 forward $138 $-1 #
edge $-1 $149 57.753337106023089 $229 65.928392759515262 $145 $233 forward 7 unknown #
coedge $-1 $234 $84 $232 $235 forward $79 $-1 #
vertex $-1 $143 $236 #
vertex $-1 $235 $237 #
straight-curve $-1 28.771739352437166 38.080425942398421 9.0150774572727741 0 1 0 I I #
face $-1 $238 $239 $18 $-1 $240 forward single #
loop $-1 $241 $92 $86 #
plane-surface $-1 43.474892168360064 -11.654204896169105 57.200366834127976 0 0.75470958851134928 0.65605901945558964 1 0 0 forward_v I I I I #
coedge $-1 $242 $243 $244 $245 reversed $87 $-1 #
coedge $-1 $155 $155 $-1 $246 forward $89 $-1 #
edge $-1 $247 0 $247 6.2831853071796004 $90 $248 forward 7 unknown #
vertex $-1 $93 $249 #
ellipse-curve $-1 37.17354096153597 33.785860687760113 4.9275496305266833 0 -0.75470958851134928 -0.65605901945558964 2.5 0 0 1 I I #
face $-1 $250 $251 $19 $-1 $252 forward single #
loop $-1 $253 $254 $94 #
cone-surface $-1 37.17354096153597 27.998830618652995 -0.10303873153085696 0 -0.75470958851134928 -0.65605901945558964 1.25 0 0 1 I I -0.70710678118654757 0.70710678118654735 1.25 forward I I I I #
loop $-1 $-1 $255 $57 #
coedge $-1 $163 $163 $256 $257 reversed $95 $-1 #
coedge $-1 $164 $164 $-1 $258 forward $97 $-1 #
edge $-1 $259 0 $259 6.2831853071796004 $98 $260 forward 7 unknown #
loop $-1 $261 $100 $250 #
vertex $-1 $101 $262 #
ellipse-curve $-1 49.776243375184173 33.785860687760113 4.9275496305266833 0 -0.75470958851134928 -0.65605901945558964 2.5 0 0 1 I I #
face $-1 $-1 $117 $15 $-1 $263 reversed single #
loop $-1 $-1 $185 $102 #
plane-surface $-1 0 37.339094327340597 0 0 -1 0 0 0 -1 forward_v I I I I #
coedge $-1 $264 $183 $186 $265 forward $103 $-1 #
coedge $-1 $189 $105 $106 $177 reversed $63 $-1 #
coedge $-1 $183 $264 $105 $175 reversed $103 $-1 #
edge $-1 $190 -9.0150774572727723 $266 9.0150774572727723 $174 $267 forward 7 unknown #
coedge $-1 $107 $106 $264 $268 forward $41 $-1 #
edge $-1 $181 -58.17804498428297 $266 58.17804498428297 $173 $269 forward 7 unknown #
coedge $-1 $186 $185 $107 $179 reversed $170 $-1 #
edge $-1 $270 -58.17804498428297 $180 58.17804498428297 $178 $271 forward 7 unknown #
vertex $-1 $109 $272 #
vertex $-1 $192 $273 #
straight-curve $-1 58.17804498428297 0 -9.0150774572727723 0 -1 0 I I #
coedge $-1 $172 $174 $110 $184 reversed $103 $-1 #
edge $-1 $187 -37.339094327340597 $190 37.339094327340597 $183 $274 forward 7 unknown #
coedge $-1 $178 $111 $116 $193 forward $170 $-1 #
coedge $-1 $111 $178 $172 $265 reversed $170 $-1 #
vertex $-1 $112 $275 #
straight-curve $-1 0 37.339094327340597 9.0150774572727723 -1 0 0 I I #
coedge $-1 $113 $173 $115 $192 reversed $63 $-1 #
vertex $-1 $184 $276 #
straight-curve $-1 0 -37.339094327340597 9.0150774572727723 1 0 0 I I #
edge $-1 $118 -9.0150774572727723 $181 9.0150774572727723 $115 $277 forward 7 unknown #
edge $-1 $119 -9.0150774572727723 $180 9.0150774572727723 $116 $278 forward 7 unknown #
point $-1 58.17804498428297 -37.339094327340597 9.0150774572727723 #
point $-1 58.17804498428297 37.339094327340597 9.0150774572727723 #
face $-1 $279 $215 $16 $-1 $280 forward single #
loop $-1 $-1 $281 $121 #
coedge $-1 $282 $124 $210 $283 reversed $71 $-1 #
coedge $-1 $124 $282 $214 $284 reversed $71 $-1 #
edge $-1 $216 -9.0150774572727723 $212 9.0150774572727723 $124 $285 forward 7 unknown #
coedge $-1 $286 $130 $125 $202 forward $211 $-1 #
edge $-1 $135 -5.3322943713864177 $207 5.3322943713864177 $125 $287 forward 7 unknown #
coedge $-1 $132 $288 $126 $204 forward $215 $-1 #
edge $-1 $208 -5.3322943713864177 $134 5.3322943713864177 $126 $289 forward 7 unknown #
coedge $-1 $290 $127 $288 $291 reversed $122 $-1 #
coedge $-1 $127 $290 $286 $292 reversed $122 $-1 #
vertex $-1 $292 $293 #
vertex $-1 $204 $294 #
straight-curve $-1 -51.049651656469571 -37.339094327340597 0 0 0 1 I I #
coedge $-1 $130 $295 $198 $283 forward $211 $-1 #
loop $-1 $-1 $296 $279 #
vertex $-1 $200 $297 #
straight-curve $-1 -49.272305488626074 -48.003683070113432 -9.0150774572727723 -1 0 0 I I #
coedge $-1 $298 $132 $199 $284 forward $215 $-1 #
loop $-1 $-1 $299 $196 #
vertex $-1 $284 $300 #
straight-curve $-1 -49.272305488626074 -48.003683070113432 9.0150774572727723 1 0 0 I I #
point $-1 -51.049651656469571 -48.003683070113432 9.0150774572727723 #
point $-1 -51.049651656469571 -48.003683070113432 -9.0150774572727723 #
face $-1 $301 $302 $17 $-1 $303 reversed single #
loop $-1 $-1 $304 $137 #
plane-surface $-1 -49.272305488626074 -48.003683070113432 0 0 1 0 0 0 1 forward_v I I I I #
coedge $-1 $140 $305 $306 $307 forward $79 $-1 #
coedge $-1 $142 $141 $231 $308 reversed $49 $-1 #
coedge $-1 $306 $309 $141 $226 forward $310 $-1 #
edge $-1 $311 -49.270432878282122 $227 -38.438378035018076 $225 $312 forward 7 unknown #
vertex $-1 $226 $313 #
straight-curve $-1 21.737446084180032 30.232627048179609 9.0150774572727705 -1 0 0 I I #
vertex $-1 $308 $314 #
straight-curve $-1 28.771739352437166 -11.654204896169105 57.200366834127976 0 0.65605901945558964 -0.75470958851134928 I I #
coedge $-1 $315 $145 $224 $308 forward $138 $-1 #
coedge $-1 $145 $316 $147 $235 reversed $138 $-1 #
straight-curve $-1 28.771739352437166 37.339094327340597 66.768414563295863 0 0 -1 I I #
coedge $-1 $317 $147 $318 $319 forward $79 $-1 #
edge $-1 $149 -28.771739352437166 $320 58.17804498428297 $232 $321 forward 7 unknown #
point $-1 28.771739352437166 30.232627048179616 9.0150774572727741 #
point $-1 28.771739352437166 37.339094327340597 9.0150774572727723 #
face $-1 $322 $323 $18 $-1 $324 reversed single #
loop $-1 $-1 $325 $151 #
plane-surface $-1 0 0 9.0150774572727723 0 0 1 1 0 0 forward_v I I I I #
loop $-1 $-1 $326 $86 #
coedge $-1 $243 $154 $327 $328 forward $87 $-1 #
coedge $-1 $154 $242 $329 $330 reversed $87 $-1 #
coedge $-1 $331 $325 $154 $245 forward $239 $-1 #
edge $-1 $332 -7.8477988942188048 $333 -0.74133161505782397 $244 $334 forward 7 unknown #
edge $-1 $335 1 $335 0 $155 $-1 forward 7 unknown #
vertex $-1 $156 $336 #
ellipse-curve $-1 37.17354096153597 28.942217604292182 0.71703504278862984 0 0.75470958851134928 0.65605901945558964 2.5 0 0 1 I I #
point $-1 39.67354096153597 33.785860687760128 4.9275496305266957 #
face $-1 $337 $166 $19 $-1 $338 forward single #
loop $-1 $-1 $339 $159 #
plane-surface $-1 28.771739352437166 76.160851884796841 133.53682912659173 1 0 0 0 -0.75470958851134928 -0.65605901945558964 forward_v I I I I #
loop $-1 $-1 $340 $94 #
coedge $-1 $254 $254 $255 $341 forward $160 $-1 #
coedge $-1 $255 $255 $254 $341 reversed $162 $-1 #
coedge $-1 $256 $256 $163 $257 forward $261 $-1 #
edge $-1 $342 2.4510146044127572e-017 $342 6.2831853071796004 $256 $343 forward 7 unknown #
edge $-1 $344 1 $344 0 $164 $-1 forward 7 unknown #
vertex $-1 $165 $345 #
ellipse-curve $-1 49.776243375184173 28.942217604292182 0.71703504278862984 0 0.75470958851134928 0.65605901945558964 2.5 0 0 1 I I #
loop $-1 $346 $256 $250 #
point $-1 52.276243375184173 33.785860687760128 4.9275496305266957 #
plane-surface $-1 58.17804498428297 0 0 -1 0 0 0 0 1 forward_v I I I I #
coedge $-1 $174 $172 $176 $268 reversed $103 $-1 #
edge $-1 $187 -9.0150774572727723 $270 9.0150774572727723 $186 $347 forward 7 unknown #
vertex $-1 $268 $348 #
straight-curve $-1 -58.17804498428297 -37.339094327340597 0 0 0 -1 I I #
edge $-1 $266 -37.339094327340597 $270 37.339094327340597 $264 $349 forward 7 unknown #
straight-curve $-1 0 -37.339094327340597 -9.0150774572727723 -1 0 0 I I #
vertex $-1 $179 $350 #
straight-curve $-1 0 37.339094327340597 -9.0150774572727723 1 0 0 I I #
point $-1 58.17804498428297 37.339094327340597 -9.0150774572727723 #
point $-1 58.17804498428297 -37.339094327340597 -9.0150774572727723 #
straight-curve $-1 -58.17804498428297 0 9.0150774572727723 0 -1 0 I I #
point $-1 -58.17804498428297 37.339094327340597 9.0150774572727723 #
point $-1 -58.17804498428297 -37.339094327340597 9.0150774572727723 #
straight-curve $-1 58.17804498428297 -37.339094327340597 0 0 0 -1 I I #
straight-curve $-1 58.17804498428297 37.339094327340597 0 0 0 -1 I I #
face $-1 $351 $211 $16 $-1 $352 reversed single #
plane-surface $-1 0 0 9.0150774572727723 0 0 1 1 0 0 forward_v I I I I #
coedge $-1 $353 $354 $282 $355 forward $197 $-1 #
coedge $-1 $199 $198 $281 $355 reversed $71 $-1 #
edge $-1 $356 -5.3322943713864177 $212 5.3322943713864177 $198 $357 forward 7 unknown #
edge $-1 $216 -5.3322943713864177 $358 5.3322943713864177 $199 $359 forward 7 unknown #
straight-curve $-1 -47.494959320782577 -48.003683070113432 0 0 0 -1 I I #
coedge $-1 $360 $201 $206 $292 forward $211 $-1 #
straight-curve $-1 -51.049651656469571 -42.671388698727014 -9.0150774572727723 0 1 0 I I #
coedge $-1 $203 $361 $205 $291 forward $215 $-1 #
straight-curve $-1 -51.049651656469571 -42.671388698727014 9.0150774572727723 0 -1 0 I I #
coedge $-1 $206 $205 $362 $363 forward $122 $-1 #
edge $-1 $364 -58.17804498428297 $208 -51.049651656469571 $205 $365 forward 7 unknown #
edge $-1 $207 51.049651656469571 $366 58.17804498428297 $206 $367 forward 7 unknown #
point $-1 -51.049651656469571 -37.339094327340597 -9.0150774572727723 #
point $-1 -51.049651656469571 -37.339094327340597 9.0150774572727723 #
coedge $-1 $210 $296 $353 $368 forward $211 $-1 #
coedge $-1 $295 $369 $370 $371 forward $211 $-1 #
point $-1 -47.494959320782577 -48.003683070113432 -9.0150774572727723 #
coedge $-1 $299 $214 $354 $372 forward $215 $-1 #
coedge $-1 $373 $298 $374 $375 forward $215 $-1 #
point $-1 -47.494959320782577 -48.003683070113432 9.0150774572727723 #
face $-1 $376 $377 $17 $-1 $378 reversed single #
loop $-1 $-1 $379 $220 #
plane-surface $-1 -51.049651656469571 -42.671388698727014 0 1 0 0 0 0 -1 forward_v I I I I #
coedge $-1 $380 $381 $382 $383 forward $221 $-1 #
coedge $-1 $223 $384 $385 $386 forward $79 $-1 #
coedge $-1 $387 $225 $223 $307 reversed $310 $-1 #
edge $-1 $388 -37.339094327340597 $227 30.232627048179616 $306 $389 forward 7 unknown #
edge $-1 $229 7.0342932682571337 $311 36.440598900102927 $231 $390 forward 7 unknown #
coedge $-1 $225 $391 $315 $392 reversed $310 $-1 #
loop $-1 $-1 $225 $393 #
vertex $-1 $392 $394 #
straight-curve $-1 58.17804498428297 5.0147824450623784 38.024889927124953 0 -0.65605901945558975 0.75470958851134939 I I #
point $-1 58.178044984282963 30.232627048179616 9.0150774572727741 #
point $-1 28.771739352437166 37.339094327340597 0.84002180378060132 #
coedge $-1 $395 $231 $309 $392 forward $138 $-1 #
coedge $-1 $232 $395 $396 $397 reversed $138 $-1 #
coedge $-1 $398 $234 $399 $400 forward $79 $-1 #
coedge $-1 $396 $401 $234 $319 reversed $402 $-1 #
edge $-1 $320 -37.339094327340597 $403 37.339094327340597 $318 $404 forward 7 unknown #
vertex $-1 $235 $405 #
straight-curve $-1 0 37.339094327340597 9.0150774572727723 -1 0 0 I I #
face $-1 $406 $407 $18 $-1 $408 reversed single #
loop $-1 $-1 $329 $238 #
plane-surface $-1 0 37.339094327340597 0 0 -1 0 0 0 -1 forward_v I I I I #
coedge $-1 $244 $409 $326 $410 forward $239 $-1 #
coedge $-1 $411 $327 $325 $410 reversed $241 $-1 #
coedge $-1 $326 $412 $242 $328 reversed $241 $-1 #
edge $-1 $332 63.846133811417189 $413 74.67818865468125 $242 $414 forward 7 unknown #
coedge $-1 $415 $416 $243 $330 forward $323 $-1 #
edge $-1 $333 57.753337106023089 $413 65.928392759515262 $329 $417 forward 7 unknown #
coedge $-1 $418 $244 $416 $419 forward $239 $-1 #
vertex $-1 $410 $420 #
vertex $-1 $419 $421 #
straight-curve $-1 28.771739352437166 38.080425942398421 9.0150774572727741 0 1 0 I I #
vertex $-1 $246 $422 #
point $-1 39.67354096153597 28.942217604292182 0.71703504278862984 #
face $-1 $423 $424 $19 $-1 $425 forward single #
plane-surface $-1 43.474892168360064 -11.654204896169105 57.200366834127976 0 0.75470958851134928 0.65605901945558964 1 0 0 forward_v I I I I #
coedge $-1 $426 $427 $428 $429 reversed $251 $-1 #
coedge $-1 $340 $340 $-1 $430 forward $253 $-1 #
edge $-1 $431 0 $431 6.2831853071796004 $254 $432 forward 7 unknown #
vertex $-1 $257 $433 #
ellipse-curve $-1 37.17354096153597 33.785860687760113 4.9275496305266833 0 -0.75470958851134928 -0.65605901945558964 2.5 0 0 1 I I #
vertex $-1 $258 $434 #
point $-1 52.276243375184173 28.942217604292182 0.71703504278862984 #
loop $-1 $-1 $435 $250 #
straight-curve $-1 -58.17804498428297 37.339094327340597 0 0 0 -1 I I #
point $-1 -58.17804498428297 -37.339094327340597 -9.0150774572727723 #
straight-curve $-1 -58.17804498428297 0 -9.0150774572727723 0 1 0 I I #
point $-1 -58.17804498428297 37.339094327340597 -9.0150774572727723 #
face $-1 $436 $437 $16 $-1 $438 reversed single #
plane-surface $-1 0 0 -9.0150774572727723 0 0 1 1 0 0 forward_v I I I I #
coedge $-1 $439 $281 $295 $368 reversed $197 $-1 #
coedge $-1 $281 $439 $298 $372 reversed $197 $-1 #
edge $-1 $358 -9.0150774572727723 $356 9.0150774572727723 $281 $440 forward 7 unknown #
vertex $-1 $283 $441 #
straight-curve $-1 -47.494959320782577 -42.671388698727014 -9.0150774572727723 0 -1 0 I I #
vertex $-1 $372 $442 #
straight-curve $-1 -47.494959320782577 -42.671388698727014 9.0150774572727723 0 1 0 I I #
coedge $-1 $369 $286 $443 $444 forward $211 $-1 #
coedge $-1 $288 $373 $445 $446 forward $215 $-1 #
coedge $-1 $445 $443 $290 $363 reversed $437 $-1 #
edge $-1 $364 -9.0150774572727723 $366 9.0150774572727723 $362 $447 forward 7 unknown #
vertex $-1 $446 $448 #
straight-curve $-1 0 -37.339094327340597 9.0150774572727723 1 0 0 I I #
vertex $-1 $444 $449 #
straight-curve $-1 0 -37.339094327340597 -9.0150774572727723 -1 0 0 I I #
edge $-1 $450 -58.17804498428297 $356 47.494959320782577 $353 $367 forward 7 unknown #
coedge $-1 $296 $360 $451 $452 forward $211 $-1 #
coedge $-1 $453 $454 $296 $371 reversed $455 $-1 #
edge $-1 $456 -37.339094327340597 $450 37.339094327340597 $370 $457 forward 7 unknown #
edge $-1 $358 -47.494959320782577 $458 58.17804498428297 $354 $365 forward 7 unknown #
coedge $-1 $361 $299 $459 $460 forward $215 $-1 #
coedge $-1 $454 $453 $299 $375 reversed $455 $-1 #
edge $-1 $458 -37.339094327340597 $461 37.339094327340597 $374 $462 forward 7 unknown #
face $-1 $463 $464 $17 $-1 $465 reversed single #
loop $-1 $-1 $466 $301 #
plane-surface $-1 -47.494959320782577 -42.671388698727014 0 -1 0 0 0 0 1 forward_v I I I I #
coedge $-1 $467 $468 $469 $470 reversed $302 $-1 #
coedge $-1 $471 $304 $472 $473 reversed $221 $-1 #
coedge $-1 $304 $471 $474 $475 reversed $221 $-1 #
coedge $-1 $468 $467 $304 $383 reversed $302 $-1 #
edge $-1 $476 -9.0150774572727723 $477 9.0150774572727723 $382 $478 forward 7 unknown #
coedge $-1 $305 $474 $479 $480 forward $79 $-1 #
coedge $-1 $481 $482 $305 $386 reversed $483 $-1 #
edge $-1 $484 -47.494959320782577 $388 58.17804498428297 $385 $485 forward 7 unknown #
coedge $-1 $391 $306 $482 $486 forward $310 $-1 #
vertex $-1 $307 $487 #
straight-curve $-1 58.17804498428297 0 9.0150774572727723 0 1 0 I I #
straight-curve $-1 21.737446084180032 37.33909432734059 0.84002180378060132 1 0 0 I I #
coedge $-1 $309 $387 $488 $489 reversed $310 $-1 #
edge $-1 $311 -0.84002180378060132 $490 9.0150774572727723 $309 $491 forward 7 unknown #
face $-1 $-1 $310 $17 $-1 $492 reversed single #
point $-1 58.178044984282963 37.339094327340597 0.84002180378060132 #
coedge $-1 $316 $315 $493 $494 reversed $138 $-1 #
coedge $-1 $495 $318 $316 $397 forward $402 $-1 #
edge $-1 $320 -9.0150774572727723 $496 9.0150774572727723 $316 $497 forward 7 unknown #
coedge $-1 $474 $317 $468 $498 forward $79 $-1 #
coedge $-1 $499 $469 $317 $400 reversed $464 $-1 #
edge $-1 $403 -58.17804498428297 $500 -51.049651656469571 $399 $485 forward 7 unknown #
coedge $-1 $318 $495 $499 $501 reversed $402 $-1 #
loop $-1 $-1 $396 $502 #
vertex $-1 $319 $503 #
straight-curve $-1 -58.17804498428297 0 9.0150774572727723 0 -1 0 I I #
point $-1 -58.17804498428297 37.339094327340597 9.0150774572727723 #
face $-1 $504 $505 $18 $-1 $506 reversed single #
loop $-1 $-1 $507 $322 #
plane-surface $-1 -49.272305488626074 -48.003683070113432 0 0 1 0 0 0 1 forward_v I I I I #
coedge $-1 $325 $508 $509 $510 forward $239 $-1 #
edge $-1 $511 -36.440598900102927 $332 -7.0342932682571337 $325 $512 forward 7 unknown #
coedge $-1 $412 $326 $513 $514 reversed $241 $-1 #
coedge $-1 $327 $411 $415 $515 reversed $241 $-1 #
vertex $-1 $515 $516 #
straight-curve $-1 28.771739352437166 -11.654204896169105 57.200366834127976 0 0.65605901945558964 -0.75470958851134928 I I #
coedge $-1 $517 $329 $412 $515 forward $323 $-1 #
coedge $-1 $329 $518 $331 $419 reversed $323 $-1 #
straight-curve $-1 28.771739352437166 37.339094327340597 66.768414563295863 0 0 -1 I I #
coedge $-1 $519 $331 $520 $521 forward $239 $-1 #
edge $-1 $333 -28.771739352437166 $522 58.17804498428297 $416 $523 forward 7 unknown #
point $-1 28.771739352437166 30.232627048179616 9.0150774572727741 #
point $-1 28.771739352437166 37.339094327340597 9.0150774572727723 #
point $-1 37.17354096153597 27.055443633013809 -0.92311250585034377 #
face $-1 $524 $525 $19 $-1 $526 reversed single #
loop $-1 $-1 $527 $337 #
plane-surface $-1 0 0 9.0150774572727723 0 0 1 1 0 0 forward_v I I I I #
coedge $-1 $427 $339 $528 $529 forward $251 $-1 #
coedge $-1 $339 $426 $530 $531 reversed $251 $-1 #
coedge $-1 $532 $527 $339 $429 forward $424 $-1 #
edge $-1 $533 -7.8477988942188048 $534 -0.74133161505782397 $428 $535 forward 7 unknown #
edge $-1 $536 1 $536 0 $340 $-1 forward 7 unknown #
vertex $-1 $341 $537 #
ellipse-curve $-1 37.17354096153597 28.942217604292182 0.71703504278862984 0 0.75470958851134928 0.65605901945558964 2.5 0 0 1 I I #
point $-1 39.67354096153597 33.785860687760128 4.9275496305266957 #
point $-1 49.776243375184173 27.055443633013809 -0.92311250585034377 #
coedge $-1 $538 $528 $527 $539 reversed $346 $-1 #
face $-1 $540 $541 $16 $-1 $542 reversed single #
loop $-1 $-1 $543 $351 #
plane-surface $-1 -58.17804498428297 0 0 1 0 0 0 0 -1 forward_v I I I I #
coedge $-1 $354 $353 $454 $544 reversed $197 $-1 #
straight-curve $-1 -47.494959320782577 -37.339094327340597 0 0 0 -1 I I #
point $-1 -47.494959320782577 -37.339094327340597 -9.0150774572727723 #
point $-1 -47.494959320782577 -37.339094327340597 9.0150774572727723 #
coedge $-1 $362 $543 $360 $444 reversed $437 $-1 #
edge $-1 $366 -37.339094327340597 $545 37.339094327340597 $443 $546 forward 7 unknown #
coedge $-1 $543 $362 $361 $446 reversed $437 $-1 #
edge $-1 $547 -37.339094327340597 $364 37.339094327340597 $445 $548 forward 7 unknown #
straight-curve $-1 -58.17804498428297 -37.339094327340597 0 0 0 -1 I I #
point $-1 -58.17804498428297 -37.339094327340597 9.0150774572727723 #
point $-1 -58.17804498428297 -37.339094327340597 -9.0150774572727723 #
vertex $-1 $544 $549 #
coedge $-1 $550 $551 $369 $452 reversed $541 $-1 #
edge $-1 $545 -58.17804498428297 $456 58.17804498428297 $451 $552 forward 7 unknown #
coedge $-1 $374 $370 $551 $553 reversed $455 $-1 #
coedge $-1 $370 $374 $439 $544 forward $455 $-1 #
loop $-1 $-1 $454 $540 #
vertex $-1 $371 $554 #
straight-curve $-1 58.17804498428297 0 -9.0150774572727723 0 -1 0 I I #
vertex $-1 $375 $555 #
coedge $-1 $551 $550 $373 $460 reversed $541 $-1 #
edge $-1 $461 -58.17804498428297 $547 58.17804498428297 $459 $556 forward 7 unknown #
vertex $-1 $375 $557 #
straight-curve $-1 58.17804498428297 0 9.0150774572727723 0 1 0 I I #
face $-1 $558 $483 $17 $-1 $465 reversed single #
loop $-1 $-1 $469 $376 #
plane-surface $-1 0 -37.339094327340597 0 0 1 0 0 0 1 forward_v I I I I #
coedge $-1 $559 $479 $471 $560 forward $377 $-1 #
coedge $-1 $382 $379 $561 $562 reversed $302 $-1 #
coedge $-1 $379 $382 $398 $498 reversed $302 $-1 #
coedge $-1 $399 $563 $379 $470 forward $464 $-1 #
edge $-1 $564 -9.0150774572727723 $500 9.0150774572727723 $469 $565 forward 7 unknown #
coedge $-1 $381 $380 $466 $560 reversed $221 $-1 #
coedge $-1 $561 $566 $380 $473 forward $567 $-1 #
edge $-1 $568 -1.777346167843497 $477 1.777346167843497 $380 $569 forward 7 unknown #
coedge $-1 $384 $398 $381 $475 forward $79 $-1 #
edge $-1 $476 -1.777346167843497 $570 1.777346167843497 $381 $571 forward 7 unknown #
vertex $-1 $498 $572 #
vertex $-1 $562 $573 #
straight-curve $-1 -51.049651656469571 -48.003683070113432 0 0 0 -1 I I #
coedge $-1 $466 $574 $384 $480 reversed $377 $-1 #
edge $-1 $570 -5.3322943713864177 $484 5.3322943713864177 $479 $575 forward 7 unknown #
coedge $-1 $576 $385 $574 $577 forward $483 $-1 #
coedge $-1 $385 $576 $387 $486 reversed $483 $-1 #
loop $-1 $-1 $481 $463 #
vertex $-1 $386 $578 #
straight-curve $-1 0 -37.339094327340597 9.0150774572727723 1 0 0 I I #
edge $-1 $388 -9.0150774572727723 $579 9.0150774572727723 $387 $580 forward 7 unknown #
point $-1 58.17804498428297 -37.339094327340597 9.0150774572727723 #
coedge $-1 $581 $493 $391 $489 forward $567 $-1 #
edge $-1 $490 -37.339094327340597 $579 37.339094327340597 $391 $582 forward 7 unknown #
vertex $-1 $489 $583 #
straight-curve $-1 58.17804498428297 37.339094327340597 0 0 0 -1 I I #
plane-surface $-1 58.17804498428297 0 0 -1 0 0 0 0 1 forward_v I I I I #
coedge $-1 $488 $584 $395 $494 forward $567 $-1 #
edge $-1 $496 -58.17804498428297 $490 58.17804498428297 $395 $585 forward 7 unknown #
coedge $-1 $401 $396 $584 $586 reversed $402 $-1 #
vertex $-1 $494 $587 #
straight-curve $-1 -58.17804498428297 37.339094327340597 0 0 0 -1 I I #
edge $-1 $500 -5.3322943713864177 $476 5.3322943713864177 $468 $588 forward 7 unknown #
coedge $-1 $563 $399 $401 $501 forward $464 $-1 #
vertex $-1 $498 $589 #
edge $-1 $403 -9.0150774572727723 $590 9.0150774572727723 $401 $591 forward 7 unknown #
face $-1 $393 $402 $17 $-1 $592 reversed single #
point $-1 -58.17804498428297 -37.339094327340597 9.0150774572727723 #
face $-1 $593 $594 $18 $-1 $595 reversed single #
loop $-1 $-1 $596 $406 #
plane-surface $-1 -51.049651656469571 -42.671388698727014 0 1 0 0 0 0 -1 forward_v I I I I #
coedge $-1 $597 $598 $599 $600 forward $407 $-1 #
coedge $-1 $409 $601 $602 $603 forward $239 $-1 #
coedge $-1 $604 $513 $409 $510 reversed $605 $-1 #
edge $-1 $606 -37.339094327340597 $511 30.232627048179616 $509 $607 forward 7 unknown #
vertex $-1 $514 $608 #
straight-curve $-1 21.737446084180032 30.232627048179609 9.0150774572727705 -1 0 0 I I #
coedge $-1 $509 $609 $411 $514 forward $605 $-1 #
edge $-1 $610 -49.270432878282122 $511 -38.438378035018076 $513 $611 forward 7 unknown #
edge $-1 $413 7.0342932682571337 $610 36.440598900102927 $415 $612 forward 7 unknown #
point $-1 28.771739352437166 37.339094327340597 0.84002180378060132 #
coedge $-1 $613 $415 $609 $614 forward $323 $-1 #
coedge $-1 $416 $613 $615 $616 reversed $323 $-1 #
coedge $-1 $617 $418 $618 $619 forward $239 $-1 #
coedge $-1 $615 $620 $418 $521 reversed $621 $-1 #
edge $-1 $522 -37.339094327340597 $622 37.339094327340597 $520 $623 forward 7 unknown #
vertex $-1 $419 $624 #
straight-curve $-1 0 37.339094327340597 9.0150774572727723 -1 0 0 I I #
face $-1 $625 $626 $19 $-1 $627 reversed single #
loop $-1 $-1 $530 $423 #
plane-surface $-1 0 37.339094327340597 0 0 -1 0 0 0 -1 forward_v I I I I #
coedge $-1 $428 $628 $435 $539 forward $424 $-1 #
coedge $-1 $435 $629 $426 $529 reversed $346 $-1 #
edge $-1 $533 63.846133811417189 $630 74.67818865468125 $426 $631 forward 7 unknown #
coedge $-1 $632 $633 $427 $531 forward $525 $-1 #
edge $-1 $534 57.753337106023089 $630 65.928392759515262 $530 $634 forward 7 unknown #
coedge $-1 $635 $428 $633 $636 forward $424 $-1 #
vertex $-1 $539 $637 #
vertex $-1 $636 $638 #
straight-curve $-1 28.771739352437166 38.080425942398421 9.0150774572727741 0 1 0 I I #
vertex $-1 $430 $639 #
point $-1 39.67354096153597 28.942217604292182 0.71703504278862984 #
coedge $-1 $629 $435 $640 $641 reversed $346 $-1 #
edge $-1 $642 -36.440598900102927 $533 -7.0342932682571337 $527 $643 forward 7 unknown #
face $-1 $-1 $455 $16 $-1 $644 reversed single #
loop $-1 $-1 $551 $436 #
plane-surface $-1 0 37.339094327340597 0 0 -1 0 0 0 -1 forward_v I I I I #
coedge $-1 $443 $445 $550 $645 forward $437 $-1 #
edge $-1 $458 -9.0150774572727723 $450 9.0150774572727723 $454 $646 forward 7 unknown #
vertex $-1 $452 $647 #
straight-curve $-1 -58.17804498428297 0 -9.0150774572727723 0 1 0 I I #
vertex $-1 $460 $648 #
straight-curve $-1 -58.17804498428297 0 9.0150774572727723 0 -1 0 I I #
point $-1 58.17804498428297 -37.339094327340597 -9.0150774572727723 #
coedge $-1 $459 $451 $543 $645 reversed $541 $-1 #
coedge $-1 $451 $459 $453 $553 forward $541 $-1 #
straight-curve $-1 0 37.339094327340597 -9.0150774572727723 1 0 0 I I #
edge $-1 $461 -9.0150774572727723 $456 9.0150774572727723 $453 $649 forward 7 unknown #
point $-1 58.17804498428297 37.339094327340597 -9.0150774572727723 #
point $-1 58.17804498428297 -37.339094327340597 9.0150774572727723 #
straight-curve $-1 0 37.339094327340597 9.0150774572727723 -1 0 0 I I #
point $-1 58.17804498428297 37.339094327340597 9.0150774572727723 #
face $-1 $502 $567 $17 $-1 $650 reversed single #
coedge $-1 $574 $466 $566 $651 reversed $377 $-1 #
edge $-1 $570 -9.0150774572727723 $568 9.0150774572727723 $466 $652 forward 7 unknown #
coedge $-1 $653 $472 $467 $562 forward $567 $-1 #
edge $-1 $477 -5.3322943713864177 $564 5.3322943713864177 $467 $654 forward 7 unknown #
coedge $-1 $469 $499 $653 $655 reversed $464 $-1 #
vertex $-1 $655 $656 #
straight-curve $-1 -51.049651656469571 -37.339094327340597 0 0 0 1 I I #
coedge $-1 $472 $581 $559 $651 forward $567 $-1 #
loop $-1 $-1 $488 $558 #
vertex $-1 $560 $657 #
straight-curve $-1 -49.272305488626074 -48.003683070113432 -9.0150774572727723 -1 0 0 I I #
vertex $-1 $480 $658 #
straight-curve $-1 -49.272305488626074 -48.003683070113432 9.0150774572727723 1 0 0 I I #
point $-1 -51.049651656469571 -48.003683070113432 9.0150774572727723 #
point $-1 -51.049651656469571 -48.003683070113432 -9.0150774572727723 #
coedge $-1 $479 $559 $481 $577 reversed $377 $-1 #
straight-curve $-1 -47.494959320782577 -42.671388698727014 9.0150774572727723 0 1 0 I I #
coedge $-1 $482 $481 $581 $659 reversed $483 $-1 #
edge $-1 $484 -9.0150774572727723 $660 9.0150774572727723 $481 $661 forward 7 unknown #
point $-1 -47.494959320782577 -37.339094327340597 9.0150774572727723 #
vertex $-1 $486 $662 #
straight-curve $-1 58.17804498428297 -37.339094327340597 0 0 0 -1 I I #
coedge $-1 $566 $488 $576 $659 forward $567 $-1 #
straight-curve $-1 58.17804498428297 0 -9.0150774572727723 0 -1 0 I I #
point $-1 58.17804498428297 37.339094327340597 -9.0150774572727723 #
coedge $-1 $493 $653 $495 $586 forward $567 $-1 #
straight-curve $-1 0 37.339094327340597 -9.0150774572727723 1 0 0 I I #
edge $-1 $590 -37.339094327340597 $496 37.339094327340597 $495 $663 forward 7 unknown #
point $-1 -58.17804498428297 37.339094327340597 -9.0150774572727723 #
straight-curve $-1 -51.049651656469571 -42.671388698727014 9.0150774572727723 0 -1 0 I I #
point $-1 -51.049651656469571 -37.339094327340597 9.0150774572727723 #
vertex $-1 $586 $664 #
straight-curve $-1 -58.17804498428297 -37.339094327340597 0 0 0 -1 I I #
plane-surface $-1 -58.17804498428297 0 0 1 0 0 0 0 -1 forward_v I I I I #
face $-1 $665 $666 $18 $-1 $667 reversed single #
loop $-1 $-1 $668 $504 #
plane-surface $-1 -47.494959320782577 -42.671388698727014 0 -1 0 0 0 0 1 forward_v I I I I #
coedge $-1 $669 $670 $671 $672 reversed $505 $-1 #
coedge $-1 $673 $507 $674 $675 reversed $407 $-1 #
coedge $-1 $507 $673 $676 $677 reversed $407 $-1 #
coedge $-1 $670 $669 $507 $600 reversed $505 $-1 #
edge $-1 $678 -9.0150774572727723 $679 9.0150774572727723 $599 $680 forward 7 unknown #
coedge $-1 $508 $676 $681 $682 forward $239 $-1 #
coedge $-1 $683 $684 $508 $603 reversed $685 $-1 #
edge $-1 $686 -47.494959320782577 $606 58.17804498428297 $602 $687 forward 7 unknown #
coedge $-1 $688 $509 $684 $689 forward $605 $-1 #
loop $-1 $-1 $513 $690 #
vertex $-1 $510 $691 #
straight-curve $-1 58.17804498428297 0 9.0150774572727723 0 1 0 I I #
point $-1 58.178044984282963 30.232627048179616 9.0150774572727741 #
coedge $-1 $513 $688 $517 $614 reversed $605 $-1 #
vertex $-1 $614 $692 #
straight-curve $-1 58.17804498428297 5.0147824450623784 38.024889927124953 0 -0.65605901945558975 0.75470958851134939 I I #
straight-curve $-1 21.737446084180032 37.33909432734059 0.84002180378060132 1 0 0 I I #
coedge $-1 $518 $517 $693 $694 reversed $323 $-1 #
edge $-1 $610 -0.84002180378060132 $695 9.0150774572727723 $609 $696 forward 7 unknown #
coedge $-1 $697 $520 $518 $616 forward $621 $-1 #
edge $-1 $522 -9.0150774572727723 $698 9.0150774572727723 $518 $699 forward 7 unknown #
coedge $-1 $676 $519 $670 $700 forward $239 $-1 #
coedge $-1 $701 $671 $519 $619 reversed $666 $-1 #
edge $-1 $622 -58.17804498428297 $702 -51.049651656469571 $618 $687 forward 7 unknown #
coedge $-1 $520 $697 $701 $703 reversed $621 $-1 #
loop $-1 $-1 $615 $704 #
vertex $-1 $521 $705 #
straight-curve $-1 -58.17804498428297 0 9.0150774572727723 0 -1 0 I I #
point $-1 -58.17804498428297 37.339094327340597 9.0150774572727723 #
face $-1 $706 $707 $19 $-1 $708 reversed single #
loop $-1 $-1 $709 $524 #
plane-surface $-1 -49.272305488626074 -48.003683070113432 0 0 1 0 0 0 1 forward_v I I I I #
coedge $-1 $527 $710 $711 $712 forward $424 $-1 #
coedge $-1 $528 $538 $632 $713 reversed $346 $-1 #
vertex $-1 $713 $714 #
straight-curve $-1 28.771739352437166 -11.654204896169105 57.200366834127976 0 0.65605901945558964 -0.75470958851134928 I I #
coedge $-1 $715 $530 $629 $713 forward $525 $-1 #
coedge $-1 $530 $716 $532 $636 reversed $525 $-1 #
straight-curve $-1 28.771739352437166 37.339094327340597 66.768414563295863 0 0 -1 I I #
coedge $-1 $717 $532 $718 $719 forward $424 $-1 #
edge $-1 $534 -28.771739352437166 $720 58.17804498428297 $633 $721 forward 7 unknown #
point $-1 28.771739352437166 30.232627048179616 9.0150774572727741 #
point $-1 28.771739352437166 37.339094327340597 9.0150774572727723 #
point $-1 37.17354096153597 27.055443633013809 -0.92311250585034377 #
coedge $-1 $711 $722 $538 $641 forward $723 $-1 #
edge $-1 $724 -49.270432878282122 $642 -38.438378035018076 $640 $725 forward 7 unknown #
vertex $-1 $641 $726 #
straight-curve $-1 21.737446084180032 30.232627048179609 9.0150774572727705 -1 0 0 I I #
plane-surface $-1 58.17804498428297 0 0 -1 0 0 0 0 1 forward_v I I I I #
edge $-1 $547 -9.0150774572727723 $545 9.0150774572727723 $550 $727 forward 7 unknown #
straight-curve $-1 58.17804498428297 -37.339094327340597 0 0 0 -1 I I #
point $-1 -58.17804498428297 37.339094327340597 -9.0150774572727723 #
point $-1 -58.17804498428297 37.339094327340597 9.0150774572727723 #
straight-curve $-1 58.17804498428297 37.339094327340597 0 0 0 -1 I I #
plane-surface $-1 0 0 -9.0150774572727723 0 0 1 1 0 0 forward_v I I I I #
edge $-1 $660 -5.3322943713864177 $568 5.3322943713864177 $559 $728 forward 7 unknown #
straight-curve $-1 -47.494959320782577 -48.003683070113432 0 0 0 -1 I I #
coedge $-1 $584 $561 $563 $655 forward $567 $-1 #
straight-curve $-1 -51.049651656469571 -42.671388698727014 -9.0150774572727723 0 1 0 I I #
edge $-1 $564 51.049651656469571 $590 58.17804498428297 $563 $729 forward 7 unknown #
point $-1 -51.049651656469571 -37.339094327340597 -9.0150774572727723 #
point $-1 -47.494959320782577 -48.003683070113432 -9.0150774572727723 #
point $-1 -47.494959320782577 -48.003683070113432 9.0150774572727723 #
edge $-1 $579 -58.17804498428297 $660 47.494959320782577 $576 $729 forward 7 unknown #
vertex $-1 $651 $730 #
straight-curve $-1 -47.494959320782577 -37.339094327340597 0 0 0 -1 I I #
point $-1 58.17804498428297 -37.339094327340597 -9.0150774572727723 #
straight-curve $-1 -58.17804498428297 0 -9.0150774572727723 0 1 0 I I #
point $-1 -58.17804498428297 -37.339094327340597 -9.0150774572727723 #
face $-1 $731 $685 $18 $-1 $667 reversed single #
loop $-1 $-1 $671 $593 #
plane-surface $-1 0 -37.339094327340597 0 0 1 0 0 0 1 forward_v I I I I #
coedge $-1 $732 $681 $673 $733 forward $594 $-1 #
coedge $-1 $599 $596 $734 $735 reversed $505 $-1 #
coedge $-1 $596 $599 $617 $700 reversed $505 $-1 #
coedge $-1 $618 $736 $596 $672 forward $666 $-1 #
edge $-1 $737 -9.0150774572727723 $702 9.0150774572727723 $671 $738 forward 7 unknown #
coedge $-1 $598 $597 $668 $733 reversed $407 $-1 #
coedge $-1 $734 $739 $597 $675 forward $740 $-1 #
edge $-1 $741 -1.777346167843497 $679 1.777346167843497 $597 $742 forward 7 unknown #
coedge $-1 $601 $617 $598 $677 forward $239 $-1 #
edge $-1 $678 -1.777346167843497 $743 1.777346167843497 $598 $744 forward 7 unknown #
vertex $-1 $700 $745 #
vertex $-1 $735 $746 #
straight-curve $-1 -51.049651656469571 -48.003683070113432 0 0 0 -1 I I #
coedge $-1 $668 $747 $601 $682 reversed $594 $-1 #
edge $-1 $743 -5.3322943713864177 $686 5.3322943713864177 $681 $748 forward 7 unknown #
coedge $-1 $749 $602 $747 $750 forward $685 $-1 #
coedge $-1 $602 $749 $604 $689 reversed $685 $-1 #
loop $-1 $-1 $683 $665 #
vertex $-1 $603 $751 #
straight-curve $-1 0 -37.339094327340597 9.0150774572727723 1 0 0 I I #
coedge $-1 $609 $604 $752 $753 reversed $605 $-1 #
edge $-1 $606 -9.0150774572727723 $754 9.0150774572727723 $604 $755 forward 7 unknown #
face $-1 $-1 $605 $18 $-1 $756 reversed single #
point $-1 58.17804498428297 -37.339094327340597 9.0150774572727723 #
point $-1 58.178044984282963 37.339094327340597 0.84002180378060132 #
coedge $-1 $752 $757 $613 $694 forward $740 $-1 #
edge $-1 $698 -58.17804498428297 $695 58.17804498428297 $613 $758 forward 7 unknown #
vertex $-1 $753 $759 #
straight-curve $-1 58.17804498428297 37.339094327340597 0 0 0 -1 I I #
coedge $-1 $620 $615 $757 $760 reversed $621 $-1 #
vertex $-1 $694 $761 #
straight-curve $-1 -58.17804498428297 37.339094327340597 0 0 0 -1 I I #
edge $-1 $702 -5.3322943713864177 $678 5.3322943713864177 $670 $762 forward 7 unknown #
coedge $-1 $736 $618 $620 $703 forward $666 $-1 #
vertex $-1 $700 $763 #
edge $-1 $622 -9.0150774572727723 $764 9.0150774572727723 $620 $765 forward 7 unknown #
face $-1 $690 $621 $18 $-1 $766 reversed single #
point $-1 -58.17804498428297 -37.339094327340597 9.0150774572727723 #
face $-1 $767 $768 $19 $-1 $769 reversed single #
loop $-1 $-1 $770 $625 #
plane-surface $-1 -51.049651656469571 -42.671388698727014 0 1 0 0 0 0 -1 forward_v I I I I #
coedge $-1 $771 $772 $773 $774 forward $626 $-1 #
coedge $-1 $628 $775 $776 $777 forward $424 $-1 #
coedge $-1 $778 $640 $628 $712 reversed $723 $-1 #
edge $-1 $779 -37.339094327340597 $642 30.232627048179616 $711 $780 forward 7 unknown #
edge $-1 $630 7.0342932682571337 $724 36.440598900102927 $632 $781 forward 7 unknown #
point $-1 28.771739352437166 37.339094327340597 0.84002180378060132 #
coedge $-1 $782 $632 $722 $783 forward $525 $-1 #
coedge $-1 $633 $782 $784 $785 reversed $525 $-1 #
coedge $-1 $786 $635 $787 $788 forward $424 $-1 #
coedge $-1 $784 $789 $635 $719 reversed $790 $-1 #
edge $-1 $720 -37.339094327340597 $791 37.339094327340597 $718 $792 forward 7 unknown #
vertex $-1 $636 $793 #
straight-curve $-1 0 37.339094327340597 9.0150774572727723 -1 0 0 I I #
coedge $-1 $640 $794 $715 $783 reversed $723 $-1 #
loop $-1 $-1 $640 $795 #
vertex $-1 $783 $796 #
straight-curve $-1 58.17804498428297 5.0147824450623784 38.024889927124953 0 -0.65605901945558975 0.75470958851134939 I I #
point $-1 58.178044984282963 30.232627048179616 9.0150774572727741 #
straight-curve $-1 -58.17804498428297 37.339094327340597 0 0 0 -1 I I #
straight-curve $-1 -47.494959320782577 -42.671388698727014 -9.0150774572727723 0 -1 0 I I #
straight-curve $-1 0 -37.339094327340597 -9.0150774572727723 -1 0 0 I I #
point $-1 -47.494959320782577 -37.339094327340597 -9.0150774572727723 #
face $-1 $704 $740 $18 $-1 $797 reversed single #
coedge $-1 $747 $668 $739 $798 reversed $594 $-1 #
edge $-1 $743 -9.0150774572727723 $741 9.0150774572727723 $668 $799 forward 7 unknown #
coedge $-1 $800 $674 $669 $735 forward $740 $-1 #
edge $-1 $679 -5.3322943713864177 $737 5.3322943713864177 $669 $801 forward 7 unknown #
coedge $-1 $671 $701 $800 $802 reversed $666 $-1 #
vertex $-1 $802 $803 #
straight-curve $-1 -51.049651656469571 -37.339094327340597 0 0 0 1 I I #
coedge $-1 $674 $804 $732 $798 forward $740 $-1 #
loop $-1 $-1 $752 $731 #
vertex $-1 $733 $805 #
straight-curve $-1 -49.272305488626074 -48.003683070113432 -9.0150774572727723 -1 0 0 I I #
vertex $-1 $682 $806 #
straight-curve $-1 -49.272305488626074 -48.003683070113432 9.0150774572727723 1 0 0 I I #
point $-1 -51.049651656469571 -48.003683070113432 9.0150774572727723 #
point $-1 -51.049651656469571 -48.003683070113432 -9.0150774572727723 #
coedge $-1 $681 $732 $683 $750 reversed $594 $-1 #
straight-curve $-1 -47.494959320782577 -42.671388698727014 9.0150774572727723 0 1 0 I I #
coedge $-1 $684 $683 $804 $807 reversed $685 $-1 #
edge $-1 $686 -9.0150774572727723 $808 9.0150774572727723 $683 $809 forward 7 unknown #
point $-1 -47.494959320782577 -37.339094327340597 9.0150774572727723 #
coedge $-1 $804 $693 $688 $753 forward $740 $-1 #
edge $-1 $695 -37.339094327340597 $754 37.339094327340597 $688 $810 forward 7 unknown #
vertex $-1 $689 $811 #
straight-curve $-1 58.17804498428297 -37.339094327340597 0 0 0 -1 I I #
plane-surface $-1 58.17804498428297 0 0 -1 0 0 0 0 1 forward_v I I I I #
coedge $-1 $693 $800 $697 $760 forward $740 $-1 #
straight-curve $-1 0 37.339094327340597 -9.0150774572727723 1 0 0 I I #
point $-1 58.17804498428297 37.339094327340597 -9.0150774572727723 #
edge $-1 $764 -37.339094327340597 $698 37.339094327340597 $697 $812 forward 7 unknown #
point $-1 -58.17804498428297 37.339094327340597 -9.0150774572727723 #
straight-curve $-1 -51.049651656469571 -42.671388698727014 9.0150774572727723 0 -1 0 I I #
point $-1 -51.049651656469571 -37.339094327340597 9.0150774572727723 #
vertex $-1 $760 $813 #
straight-curve $-1 -58.17804498428297 -37.339094327340597 0 0 0 -1 I I #
plane-surface $-1 -58.17804498428297 0 0 1 0 0 0 0 -1 forward_v I I I I #
face $-1 $814 $815 $19 $-1 $816 reversed single #
loop $-1 $-1 $817 $706 #
plane-surface $-1 -47.494959320782577 -42.671388698727014 0 -1 0 0 0 0 1 forward_v I I I I #
coedge $-1 $818 $819 $820 $821 reversed $707 $-1 #
coedge $-1 $822 $709 $823 $824 reversed $626 $-1 #
coedge $-1 $709 $822 $825 $826 reversed $626 $-1 #
coedge $-1 $819 $818 $709 $774 reversed $707 $-1 #
edge $-1 $827 -9.0150774572727723 $828 9.0150774572727723 $773 $829 forward 7 unknown #
coedge $-1 $710 $825 $830 $831 forward $424 $-1 #
coedge $-1 $832 $833 $710 $777 reversed $834 $-1 #
edge $-1 $835 -47.494959320782577 $779 58.17804498428297 $776 $836 forward 7 unknown #
coedge $-1 $794 $711 $833 $837 forward $723 $-1 #
vertex $-1 $712 $838 #
straight-curve $-1 58.17804498428297 0 9.0150774572727723 0 1 0 I I #
straight-curve $-1 21.737446084180032 37.33909432734059 0.84002180378060132 1 0 0 I I #
coedge $-1 $716 $715 $839 $840 reversed $525 $-1 #
edge $-1 $724 -0.84002180378060132 $841 9.0150774572727723 $722 $842 forward 7 unknown #
coedge $-1 $843 $718 $716 $785 forward $790 $-1 #
edge $-1 $720 -9.0150774572727723 $844 9.0150774572727723 $716 $845 forward 7 unknown #
coedge $-1 $825 $717 $819 $846 forward $424 $-1 #
coedge $-1 $847 $820 $717 $788 reversed $815 $-1 #
edge $-1 $791 -58.17804498428297 $848 -51.049651656469571 $787 $836 forward 7 unknown #
coedge $-1 $718 $843 $847 $849 reversed $790 $-1 #
loop $-1 $-1 $784 $850 #
vertex $-1 $719 $851 #
straight-curve $-1 -58.17804498428297 0 9.0150774572727723 0 -1 0 I I #
point $-1 -58.17804498428297 37.339094327340597 9.0150774572727723 #
coedge $-1 $722 $778 $852 $853 reversed $723 $-1 #
face $-1 $-1 $723 $19 $-1 $854 reversed single #
point $-1 58.178044984282963 37.339094327340597 0.84002180378060132 #
plane-surface $-1 0 0 -9.0150774572727723 0 0 1 1 0 0 forward_v I I I I #
edge $-1 $808 -5.3322943713864177 $741 5.3322943713864177 $732 $855 forward 7 unknown #
straight-curve $-1 -47.494959320782577 -48.003683070113432 0 0 0 -1 I I #
coedge $-1 $757 $734 $736 $802 forward $740 $-1 #
straight-curve $-1 -51.049651656469571 -42.671388698727014 -9.0150774572727723 0 1 0 I I #
edge $-1 $737 51.049651656469571 $764 58.17804498428297 $736 $856 forward 7 unknown #
point $-1 -51.049651656469571 -37.339094327340597 -9.0150774572727723 #
coedge $-1 $739 $752 $749 $807 forward $740 $-1 #
point $-1 -47.494959320782577 -48.003683070113432 -9.0150774572727723 #
point $-1 -47.494959320782577 -48.003683070113432 9.0150774572727723 #
edge $-1 $754 -58.17804498428297 $808 47.494959320782577 $749 $856 forward 7 unknown #
vertex $-1 $798 $857 #
straight-curve $-1 -47.494959320782577 -37.339094327340597 0 0 0 -1 I I #
straight-curve $-1 58.17804498428297 0 -9.0150774572727723 0 -1 0 I I #
point $-1 58.17804498428297 -37.339094327340597 -9.0150774572727723 #
straight-curve $-1 -58.17804498428297 0 -9.0150774572727723 0 1 0 I I #
point $-1 -58.17804498428297 -37.339094327340597 -9.0150774572727723 #
face $-1 $858 $834 $19 $-1 $816 reversed single #
loop $-1 $-1 $820 $767 #
plane-surface $-1 0 -37.339094327340597 0 0 1 0 0 0 1 forward_v I I I I #
coedge $-1 $859 $830 $822 $860 forward $768 $-1 #
coedge $-1 $773 $770 $861 $862 reversed $707 $-1 #
coedge $-1 $770 $773 $786 $846 reversed $707 $-1 #
coedge $-1 $787 $863 $770 $821 forward $815 $-1 #
edge $-1 $864 -9.0150774572727723 $848 9.0150774572727723 $820 $865 forward 7 unknown #
coedge $-1 $772 $771 $817 $860 reversed $626 $-1 #
coedge $-1 $861 $866 $771 $824 forward $867 $-1 #
edge $-1 $868 -1.777346167843497 $828 1.777346167843497 $771 $869 forward 7 unknown #
coedge $-1 $775 $786 $772 $826 forward $424 $-1 #
edge $-1 $827 -1.777346167843497 $870 1.777346167843497 $772 $871 forward 7 unknown #
vertex $-1 $846 $872 #
vertex $-1 $862 $873 #
straight-curve $-1 -51.049651656469571 -48.003683070113432 0 0 0 -1 I I #
coedge $-1 $817 $874 $775 $831 reversed $768 $-1 #
edge $-1 $870 -5.3322943713864177 $835 5.3322943713864177 $830 $875 forward 7 unknown #
coedge $-1 $876 $776 $874 $877 forward $834 $-1 #
coedge $-1 $776 $876 $778 $837 reversed $834 $-1 #
loop $-1 $-1 $832 $814 #
vertex $-1 $777 $878 #
straight-curve $-1 0 -37.339094327340597 9.0150774572727723 1 0 0 I I #
edge $-1 $779 -9.0150774572727723 $879 9.0150774572727723 $778 $880 forward 7 unknown #
point $-1 58.17804498428297 -37.339094327340597 9.0150774572727723 #
coedge $-1 $852 $881 $782 $840 forward $867 $-1 #
edge $-1 $844 -58.17804498428297 $841 58.17804498428297 $782 $882 forward 7 unknown #
vertex $-1 $853 $883 #
straight-curve $-1 58.17804498428297 37.339094327340597 0 0 0 -1 I I #
coedge $-1 $789 $784 $881 $884 reversed $790 $-1 #
vertex $-1 $840 $885 #
straight-curve $-1 -58.17804498428297 37.339094327340597 0 0 0 -1 I I #
edge $-1 $848 -5.3322943713864177 $827 5.3322943713864177 $819 $886 forward 7 unknown #
coedge $-1 $863 $787 $789 $849 forward $815 $-1 #
vertex $-1 $846 $887 #
edge $-1 $791 -9.0150774572727723 $888 9.0150774572727723 $789 $889 forward 7 unknown #
face $-1 $795 $790 $19 $-1 $890 reversed single #
point $-1 -58.17804498428297 -37.339094327340597 9.0150774572727723 #
coedge $-1 $891 $839 $794 $853 forward $867 $-1 #
edge $-1 $841 -37.339094327340597 $879 37.339094327340597 $794 $892 forward 7 unknown #
plane-surface $-1 58.17804498428297 0 0 -1 0 0 0 0 1 forward_v I I I I #
straight-curve $-1 -47.494959320782577 -42.671388698727014 -9.0150774572727723 0 -1 0 I I #
straight-curve $-1 0 -37.339094327340597 -9.0150774572727723 -1 0 0 I I #
point $-1 -47.494959320782577 -37.339094327340597 -9.0150774572727723 #
face $-1 $850 $867 $19 $-1 $893 reversed single #
coedge $-1 $874 $817 $866 $894 reversed $768 $-1 #
edge $-1 $870 -9.0150774572727723 $868 9.0150774572727723 $817 $895 forward 7 unknown #
coedge $-1 $896 $823 $818 $862 forward $867 $-1 #
edge $-1 $828 -5.3322943713864177 $864 5.3322943713864177 $818 $897 forward 7 unknown #
coedge $-1 $820 $847 $896 $898 reversed $815 $-1 #
vertex $-1 $898 $899 #
straight-curve $-1 -51.049651656469571 -37.339094327340597 0 0 0 1 I I #
coedge $-1 $823 $891 $859 $894 forward $867 $-1 #
loop $-1 $-1 $852 $858 #
vertex $-1 $860 $900 #
straight-curve $-1 -49.272305488626074 -48.003683070113432 -9.0150774572727723 -1 0 0 I I #
vertex $-1 $831 $901 #
straight-curve $-1 -49.272305488626074 -48.003683070113432 9.0150774572727723 1 0 0 I I #
point $-1 -51.049651656469571 -48.003683070113432 9.0150774572727723 #
point $-1 -51.049651656469571 -48.003683070113432 -9.0150774572727723 #
coedge $-1 $830 $859 $832 $877 reversed $768 $-1 #
straight-curve $-1 -47.494959320782577 -42.671388698727014 9.0150774572727723 0 1 0 I I #
coedge $-1 $833 $832 $891 $902 reversed $834 $-1 #
edge $-1 $835 -9.0150774572727723 $903 9.0150774572727723 $832 $904 forward 7 unknown #
point $-1 -47.494959320782577 -37.339094327340597 9.0150774572727723 #
vertex $-1 $837 $905 #
straight-curve $-1 58.17804498428297 -37.339094327340597 0 0 0 -1 I I #
coedge $-1 $839 $896 $843 $884 forward $867 $-1 #
straight-curve $-1 0 37.339094327340597 -9.0150774572727723 1 0 0 I I #
point $-1 58.17804498428297 37.339094327340597 -9.0150774572727723 #
edge $-1 $888 -37.339094327340597 $844 37.339094327340597 $843 $906 forward 7 unknown #
point $-1 -58.17804498428297 37.339094327340597 -9.0150774572727723 #
straight-curve $-1 -51.049651656469571 -42.671388698727014 9.0150774572727723 0 -1 0 I I #
point $-1 -51.049651656469571 -37.339094327340597 9.0150774572727723 #
vertex $-1 $884 $907 #
straight-curve $-1 -58.17804498428297 -37.339094327340597 0 0 0 -1 I I #
plane-surface $-1 -58.17804498428297 0 0 1 0 0 0 0 -1 forward_v I I I I #
coedge $-1 $866 $852 $876 $902 forward $867 $-1 #
straight-curve $-1 58.17804498428297 0 -9.0150774572727723 0 -1 0 I I #
plane-surface $-1 0 0 -9.0150774572727723 0 0 1 1 0 0 forward_v I I I I #
edge $-1 $903 -5.3322943713864177 $868 5.3322943713864177 $859 $908 forward 7 unknown #
straight-curve $-1 -47.494959320782577 -48.003683070113432 0 0 0 -1 I I #
coedge $-1 $881 $861 $863 $898 forward $867 $-1 #
straight-curve $-1 -51.049651656469571 -42.671388698727014 -9.0150774572727723 0 1 0 I I #
edge $-1 $864 51.049651656469571 $888 58.17804498428297 $863 $909 forward 7 unknown #
point $-1 -51.049651656469571 -37.339094327340597 -9.0150774572727723 #
point $-1 -47.494959320782577 -48.003683070113432 -9.0150774572727723 #
point $-1 -47.494959320782577 -48.003683070113432 9.0150774572727723 #
edge $-1 $879 -58.17804498428297 $903 47.494959320782577 $876 $909 forward 7 unknown #
vertex $-1 $894 $910 #
straight-curve $-1 -47.494959320782577 -37.339094327340597 0 0 0 -1 I I #
point $-1 58.17804498428297 -37.339094327340597 -9.0150774572727723 #
straight-curve $-1 -58.17804498428297 0 -9.0150774572727723 0 1 0 I I #
point $-1 -58.17804498428297 -37.339094327340597 -9.0150774572727723 #
straight-curve $-1 -47.494959320782577 -42.671388698727014 -9.0150774572727723 0 -1 0 I I #
straight-curve $-1 0 -37.339094327340597 -9.0150774572727723 -1 0 0 I I #
point $-1 -47.494959320782577 -37.339094327340597 -9.0150774572727723 #
End-of-ACIS-data 