500 0 10 0           
7 Unknown 11 ACIS 5.0 NT 24 Thu Mar 25 17:07:43 1999 
-1 9.9999999999999995e-007 1e-010 
body $-1 $10 $-1 $11 #
body $-1 $12 $-1 $13 #
body $-1 $14 $-1 $15 #
body $-1 $16 $-1 $17 #
body $-1 $18 $-1 $19 #
body $-1 $20 $-1 $21 #
body $-1 $22 $-1 $23 #
body $-1 $24 $-1 $25 #
body $-1 $26 $-1 $27 #
body $-1 $28 $-1 $29 #
lump $-1 $-1 $30 $0 #
transform $-1 1 0 0 0 1 0 0 0 1 48.365733817560354 27.748708754431664 6.3500142742463579 1 rotate no_reflect no_shear #
lump $-1 $-1 $31 $1 #
transform $-1 1 0 0 0 1 0 0 0 1 48.365733817560354 27.748708754431664 6.3500142742463579 1 rotate no_reflect no_shear #
lump $-1 $-1 $32 $2 #
transform $-1 1 0 0 0 1 0 0 0 1 48.365733817560354 27.748708754431664 6.3500142742463579 1 rotate no_reflect no_shear #
lump $-1 $-1 $33 $3 #
transform $-1 1 0 0 0 1 0 0 0 1 48.365733817560354 27.748708754431664 6.3500142742463579 1 rotate no_reflect no_shear #
lump $-1 $-1 $34 $4 #
transform $-1 1 0 0 0 1 0 0 0 1 48.365733817560354 27.748708754431664 6.3500142742463579 1 rotate no_reflect no_shear #
lump $-1 $-1 $35 $5 #
transform $-1 1 0 0 0 1 0 0 0 1 48.365733817560354 27.748708754431664 6.3500142742463579 1 rotate no_reflect no_shear #
lump $-1 $-1 $36 $6 #
transform $-1 1 0 0 0 1 0 0 0 1 48.365733817560354 27.748708754431664 6.3500142742463579 1 rotate no_reflect no_shear #
lump $-1 $-1 $37 $7 #
transform $-1 1 0 0 0 1 0 0 0 1 48.365733817560354 27.748708754431664 6.3500142742463579 1 rotate no_reflect no_shear #
lump $-1 $-1 $38 $8 #
transform $-1 1 0 0 0 1 0 0 0 1 48.365733817560354 27.748708754431664 6.3500142742463579 1 rotate no_reflect no_shear #
lump $-1 $-1 $39 $9 #
transform $-1 1 0 0 0 1 0 0 0 1 48.365733817560354 27.748708754431664 6.3500142742463579 1 rotate no_reflect no_shear #
shell $-1 $-1 $-1 $40 $-1 $10 #
shell $-1 $-1 $-1 $41 $-1 $12 #
shell $-1 $-1 $-1 $42 $-1 $14 #
shell $-1 $-1 $-1 $43 $-1 $16 #
shell $-1 $-1 $-1 $44 $-1 $18 #
shell $-1 $-1 $-1 $45 $-1 $20 #
shell $-1 $-1 $-1 $46 $-1 $22 #
shell $-1 $-1 $-1 $47 $-1 $24 #
shell $-1 $-1 $-1 $48 $-1 $26 #
shell $-1 $-1 $-1 $49 $-1 $28 #
face $-1 $50 $51 $30 $-1 $52 forward single #
face $-1 $53 $54 $31 $-1 $55 forward single #
face $-1 $56 $57 $32 $-1 $58 forward single #
face $-1 $59 $60 $33 $-1 $61 reversed single #
face $-1 $62 $63 $34 $-1 $64 forward single #
face $-1 $65 $66 $35 $-1 $67 forward single #
face $-1 $68 $69 $36 $-1 $70 forward single #
face $-1 $71 $72 $37 $-1 $73 reversed single #
face $-1 $74 $75 $38 $-1 $76 forward single #
face $-1 $77 $78 $39 $-1 $79 forward single #
face $-1 $80 $81 $30 $-1 $82 reversed single #
loop $-1 $-1 $83 $40 #
plane-surface $-1 0 0 6.3500142742463579 0 0 1 1 0 0 forward_v I I I I #
face $-1 $84 $85 $31 $-1 $86 reversed single #
loop $-1 $-1 $87 $41 #
plane-surface $-1 0 -24.663168080208617 -3.3500142742463579 0 0 1 1 0 0 forward_v I I I I #
face $-1 $88 $89 $32 $-1 $90 reversed single #
loop $-1 $-1 $91 $42 #
plane-surface $-1 0 24.663168080208617 -3.3500142742463579 0 0 1 1 0 0 forward_v I I I I #
face $-1 $92 $93 $33 $-1 $94 reversed single #
loop $-1 $-1 $95 $43 #
plane-surface $-1 62.665119986032821 21.577627405985574 138.16525590184136 0 -1 0 -0.77714596973225614 0 -0.62932038083071107 forward_v I I I I #
face $-1 $96 $97 $34 $-1 $98 forward single #
loop $-1 $99 $100 $44 #
cone-surface $-1 46.070937180940597 14.67103416264079 3.7628938922974466 -0.77714596973225614 0 -0.62932038083071107 0.31466019041535553 0 -0.38857298486612807 1 I I 0 1 0.5 forward I I I I #
face $-1 $101 $102 $35 $-1 $103 forward single #
loop $-1 $104 $105 $45 #
cone-surface $-1 46.070937180940597 17.261006628895085 3.7628938922974466 -0.77714596973225614 0 -0.62932038083071107 0.31466019041535553 0 -0.38857298486612807 1 I I 0 1 0.5 forward I I I I #
face $-1 $106 $107 $36 $-1 $108 forward single #
loop $-1 $109 $110 $46 #
cone-surface $-1 46.070937180940597 19.850979095149381 3.7628938922974466 -0.77714596973225614 0 -0.62932038083071107 0.31466019041535553 0 -0.38857298486612807 1 I I 0 1 0.5 forward I I I I #
face $-1 $111 $112 $37 $-1 $113 reversed single #
loop $-1 $-1 $114 $47 #
plane-surface $-1 -124.59117132465776 -21.577627405985567 61.827086583840803 0 1 0 -0.78801076186113728 0 0.61566146476048833 forward_v I I I I #
face $-1 $115 $116 $38 $-1 $117 forward single #
loop $-1 $118 $119 $48 #
cone-surface $-1 -45.246177200633682 -18.133428554100888 3.1186104928845944 0.78801076186113728 0 -0.61566146476048833 0.61566146476048833 0 0.78801076186113728 1 I I 0 1 1 forward I I I I #
face $-1 $120 $121 $39 $-1 $122 forward single #
loop $-1 $123 $124 $49 #
cone-surface $-1 -45.246177200633682 -12.967130276273863 3.1186104928845944 0.78801076186113728 0 -0.61566146476048833 0.61566146476048833 0 0.78801076186113728 1 I I 0 1 1 forward I I I I #
face $-1 $125 $126 $30 $-1 $127 reversed single #
loop $-1 $-1 $128 $50 #
plane-surface $-1 0 0 -6.3500142742463579 0 0 1 1 0 0 forward_v I I I I #
coedge $-1 $129 $130 $131 $132 forward $51 $-1 #
face $-1 $133 $134 $31 $-1 $135 reversed single #
loop $-1 $-1 $136 $53 #
plane-surface $-1 0 -21.57762740598557 -4.8500142742463579 0 -1 0 0 0 -1 forward_v I I I I #
coedge $-1 $137 $138 $139 $140 reversed $54 $-1 #
face $-1 $141 $142 $32 $-1 $143 reversed single #
loop $-1 $-1 $144 $56 #
plane-surface $-1 0 21.57762740598557 -4.8500142742463579 0 1 0 0 0 1 forward_v I I I I #
coedge $-1 $145 $146 $147 $148 reversed $57 $-1 #
face $-1 $149 $150 $33 $-1 $151 reversed single #
loop $-1 $-1 $152 $59 #
plane-surface $-1 -12.509350232887414 17.261006628895085 77.290171851393595 0.77714596973225614 0 0.62932038083071107 0.62932038083071107 0 -0.77714596973225614 forward_v I I I I #
coedge $-1 $153 $154 $155 $156 reversed $60 $-1 #
face $-1 $-1 $157 $34 $-1 $158 forward single #
loop $-1 $159 $160 $62 #
cone-surface $-1 45.296293390224022 14.67103416264079 3.1355997360273493 -0.77714596973225614 0 -0.62932038083071107 0.15733009520767777 0 -0.19428649243306403 1 I I -0.70710678118654746 0.70710678118654746 0.25 forward I I I I #
loop $-1 $-1 $161 $44 #
coedge $-1 $100 $100 $162 $163 reversed $63 $-1 #
face $-1 $-1 $164 $35 $-1 $165 forward single #
loop $-1 $166 $167 $65 #
cone-surface $-1 45.296293390224022 17.261006628895085 3.1355997360273493 -0.77714596973225614 0 -0.62932038083071107 0.15733009520767777 0 -0.19428649243306403 1 I I -0.70710678118654746 0.70710678118654746 0.25 forward I I I I #
loop $-1 $-1 $168 $45 #
coedge $-1 $105 $105 $169 $170 reversed $66 $-1 #
face $-1 $-1 $171 $36 $-1 $172 forward single #
loop $-1 $173 $174 $68 #
cone-surface $-1 45.296293390224022 19.850979095149381 3.1355997360273493 -0.77714596973225614 0 -0.62932038083071107 0.15733009520767777 0 -0.19428649243306403 1 I I -0.70710678118654746 0.70710678118654746 0.25 forward I I I I #
loop $-1 $-1 $175 $46 #
coedge $-1 $110 $110 $176 $177 reversed $69 $-1 #
face $-1 $178 $179 $37 $-1 $180 reversed single #
loop $-1 $-1 $181 $71 #
plane-surface $-1 -48.365733817560354 -15.550279415187374 2.2732495311706202 -0.78801076186113728 0 0.61566146476048833 0.61566146476048833 0 0.78801076186113728 forward_v I I I I #
coedge $-1 $182 $183 $184 $185 reversed $72 $-1 #
face $-1 $-1 $186 $38 $-1 $187 forward single #
loop $-1 $188 $189 $74 #
cone-surface $-1 -43.325174006972198 -18.133428554100888 1.6177583506804547 0.78801076186113728 0 -0.61566146476048833 0.30783073238024417 0 0.39400538093056864 1 I I -0.70710678118654746 0.70710678118654746 0.5 forward I I I I #
loop $-1 $-1 $190 $48 #
coedge $-1 $119 $119 $191 $192 reversed $75 $-1 #
face $-1 $-1 $193 $39 $-1 $194 forward single #
loop $-1 $195 $196 $77 #
cone-surface $-1 -43.325174006972198 -12.967130276273863 1.6177583506804547 0.78801076186113728 0 -0.61566146476048833 0.30783073238024417 0 0.39400538093056864 1 I I -0.70710678118654746 0.70710678118654746 0.5 forward I I I I #
loop $-1 $-1 $197 $49 #
coedge $-1 $124 $124 $198 $199 reversed $78 $-1 #
face $-1 $200 $201 $30 $-1 $202 reversed single #
loop $-1 $-1 $203 $80 #
plane-surface $-1 0 -27.748708754431664 0 0 1 0 0 0 1 forward_v I I I I #
coedge $-1 $204 $205 $206 $207 forward $81 $-1 #
coedge $-1 $208 $83 $209 $210 forward $51 $-1 #
coedge $-1 $83 $208 $211 $212 forward $51 $-1 #
coedge $-1 $213 $214 $83 $132 reversed $215 $-1 #
edge $-1 $216 -27.748708754431664 $217 27.748708754431664 $131 $218 forward 7 unknown #
face $-1 $219 $220 $31 $-1 $221 reversed single #
loop $-1 $-1 $222 $84 #
plane-surface $-1 0 0 -6.3500142742463579 0 0 1 1 0 0 forward_v I I I I #
coedge $-1 $223 $224 $225 $226 reversed $85 $-1 #
coedge $-1 $227 $87 $224 $228 forward $54 $-1 #
coedge $-1 $87 $227 $229 $230 reversed $54 $-1 #
coedge $-1 $231 $225 $87 $140 forward $220 $-1 #
edge $-1 $232 9.2460433658812615 $233 15.417124714327356 $139 $234 forward 7 unknown #
face $-1 $235 $236 $32 $-1 $237 reversed single #
loop $-1 $-1 $147 $88 #
plane-surface $-1 48.365733817560354 0 0 -1 0 0 0 0 1 forward_v I I I I #
coedge $-1 $238 $239 $240 $241 reversed $89 $-1 #
coedge $-1 $242 $91 $243 $244 reversed $57 $-1 #
coedge $-1 $91 $242 $239 $245 forward $57 $-1 #
coedge $-1 $246 $247 $91 $148 forward $142 $-1 #
edge $-1 $248 -15.417124714327356 $249 -9.2460433658812615 $147 $250 forward 7 unknown #
face $-1 $251 $252 $33 $-1 $253 forward single #
loop $-1 $-1 $254 $92 #
plane-surface $-1 62.665119986032821 12.944385851804597 138.16525590184136 0 1 0 0.77714596973225614 0 0.62932038083071107 forward_v I I I I #
coedge $-1 $255 $256 $257 $258 reversed $93 $-1 #
coedge $-1 $154 $95 $259 $260 reversed $60 $-1 #
coedge $-1 $95 $153 $255 $261 reversed $60 $-1 #
coedge $-1 $257 $262 $95 $156 forward $252 $-1 #
edge $-1 $263 -17.033173824543944 $264 -13.604295147871476 $155 $265 forward 7 unknown #
loop $-1 $-1 $162 $96 #
plane-surface $-1 -12.509350232887414 17.261006628895085 77.290171851393595 0.77714596973225614 0 0.62932038083071107 0.62932038083071107 0 -0.77714596973225614 forward_v I I I I #
loop $-1 $-1 $266 $62 #
coedge $-1 $160 $160 $161 $267 reversed $97 $-1 #
coedge $-1 $161 $161 $160 $267 forward $99 $-1 #
coedge $-1 $162 $162 $100 $163 forward $157 $-1 #
edge $-1 $268 0 $268 6.2831853071796004 $162 $269 forward 7 unknown #
loop $-1 $-1 $169 $101 #
plane-surface $-1 -12.509350232887414 17.261006628895085 77.290171851393595 0.77714596973225614 0 0.62932038083071107 0.62932038083071107 0 -0.77714596973225614 forward_v I I I I #
loop $-1 $-1 $270 $65 #
coedge $-1 $167 $167 $168 $271 reversed $102 $-1 #
coedge $-1 $168 $168 $167 $271 forward $104 $-1 #
coedge $-1 $169 $169 $105 $170 forward $164 $-1 #
edge $-1 $272 0 $272 6.2831853071796004 $169 $273 forward 7 unknown #
loop $-1 $-1 $176 $106 #
plane-surface $-1 -12.509350232887414 17.261006628895085 77.290171851393595 0.77714596973225614 0 0.62932038083071107 0.62932038083071107 0 -0.77714596973225614 forward_v I I I I #
loop $-1 $-1 $274 $68 #
coedge $-1 $174 $174 $175 $275 reversed $107 $-1 #
coedge $-1 $175 $175 $174 $275 forward $109 $-1 #
coedge $-1 $176 $176 $110 $177 forward $171 $-1 #
edge $-1 $276 0 $276 6.2831853071796004 $176 $277 forward 7 unknown #
face $-1 $278 $279 $37 $-1 $280 reversed single #
loop $-1 $-1 $281 $111 #
plane-surface $-1 -124.59117132465776 -9.5229314243891814 61.827086583840803 0 -1 0 0.78801076186113728 0 -0.61566146476048833 forward_v I I I I #
coedge $-1 $282 $283 $284 $285 reversed $112 $-1 #
coedge $-1 $183 $114 $286 $287 reversed $72 $-1 #
coedge $-1 $114 $182 $282 $288 reversed $72 $-1 #
coedge $-1 $284 $289 $114 $185 forward $290 $-1 #
edge $-1 $291 13.929851844768528 $292 17.11496945316005 $184 $293 forward 7 unknown #
loop $-1 $-1 $191 $115 #
plane-surface $-1 -48.365733817560354 -15.550279415187374 2.2732495311706202 -0.78801076186113728 0 0.61566146476048833 0.61566146476048833 0 0.78801076186113728 forward_v I I I I #
loop $-1 $-1 $294 $74 #
coedge $-1 $189 $189 $190 $295 reversed $116 $-1 #
coedge $-1 $190 $190 $189 $295 forward $118 $-1 #
coedge $-1 $191 $191 $119 $192 forward $186 $-1 #
edge $-1 $296 0 $296 6.2831853071796004 $191 $297 forward 7 unknown #
loop $-1 $-1 $198 $120 #
plane-surface $-1 -48.365733817560354 -15.550279415187374 2.2732495311706202 -0.78801076186113728 0 0.61566146476048833 0.61566146476048833 0 0.78801076186113728 forward_v I I I I #
loop $-1 $-1 $298 $77 #
coedge $-1 $196 $196 $197 $299 reversed $121 $-1 #
coedge $-1 $197 $197 $196 $299 forward $123 $-1 #
coedge $-1 $198 $198 $124 $199 forward $193 $-1 #
edge $-1 $300 0 $300 6.2831853071796004 $198 $301 forward 7 unknown #
face $-1 $302 $303 $30 $-1 $304 reversed single #
loop $-1 $-1 $305 $125 #
plane-surface $-1 -48.365733817560354 0 0 1 0 0 0 0 -1 forward_v I I I I #
coedge $-1 $306 $211 $307 $308 forward $126 $-1 #
coedge $-1 $309 $128 $306 $310 forward $81 $-1 #
coedge $-1 $128 $309 $311 $312 forward $81 $-1 #
coedge $-1 $214 $213 $128 $207 reversed $215 $-1 #
edge $-1 $313 -27.748708754431664 $314 27.748708754431664 $206 $315 forward 7 unknown #
coedge $-1 $130 $129 $316 $317 forward $51 $-1 #
coedge $-1 $318 $319 $129 $210 reversed $303 $-1 #
edge $-1 $217 -48.365733817560354 $320 48.365733817560354 $209 $321 forward 7 unknown #
coedge $-1 $203 $322 $130 $212 reversed $126 $-1 #
edge $-1 $323 -48.365733817560354 $216 48.365733817560354 $211 $324 forward 7 unknown #
coedge $-1 $206 $131 $322 $325 forward $215 $-1 #
coedge $-1 $131 $206 $318 $326 reversed $215 $-1 #
loop $-1 $-1 $213 $302 #
vertex $-1 $132 $327 #
vertex $-1 $132 $328 #
straight-curve $-1 48.365733817560354 0 6.3500142742463579 0 1 0 I I #
face $-1 $329 $330 $31 $-1 $331 reversed single #
loop $-1 $-1 $225 $133 #
plane-surface $-1 48.365733817560354 0 0 -1 0 0 0 0 1 forward_v I I I I #
coedge $-1 $332 $333 $223 $334 forward $134 $-1 #
coedge $-1 $335 $136 $222 $334 reversed $85 $-1 #
coedge $-1 $136 $335 $137 $228 reversed $85 $-1 #
coedge $-1 $139 $336 $136 $226 forward $220 $-1 #
edge $-1 $337 -3.9250071371231789 $232 -0.92500713712317895 $225 $338 forward 7 unknown #
coedge $-1 $138 $137 $339 $340 reversed $54 $-1 #
edge $-1 $232 -48.365733817560354 $341 48.365733817560354 $224 $342 forward 7 unknown #
coedge $-1 $343 $344 $138 $230 forward $330 $-1 #
edge $-1 $233 -48.365733817560354 $345 48.365733817560354 $229 $346 forward 7 unknown #
coedge $-1 $336 $139 $344 $347 forward $220 $-1 #
vertex $-1 $140 $348 #
vertex $-1 $347 $349 #
straight-curve $-1 48.365733817560354 -12.331584040104309 -3.3500142742463579 0 -1 0 I I #
face $-1 $350 $351 $32 $-1 $352 reversed single #
loop $-1 $-1 $353 $141 #
plane-surface $-1 0 0 -6.3500142742463579 0 0 1 1 0 0 forward_v I I I I #
coedge $-1 $354 $144 $353 $355 reversed $89 $-1 #
coedge $-1 $144 $354 $146 $245 reversed $89 $-1 #
coedge $-1 $356 $357 $144 $241 forward $351 $-1 #
edge $-1 $358 -3.9250071371231789 $359 -0.92500713712317895 $240 $360 forward 7 unknown #
coedge $-1 $146 $145 $356 $361 reversed $57 $-1 #
coedge $-1 $362 $363 $145 $244 forward $364 $-1 #
edge $-1 $365 -48.365733817560354 $248 48.365733817560354 $243 $366 forward 7 unknown #
edge $-1 $359 -48.365733817560354 $249 48.365733817560354 $239 $367 forward 7 unknown #
coedge $-1 $368 $147 $354 $369 forward $142 $-1 #
coedge $-1 $147 $368 $362 $370 reversed $142 $-1 #
vertex $-1 $370 $371 #
vertex $-1 $148 $372 #
straight-curve $-1 48.365733817560354 12.331584040104309 -3.3500142742463579 0 -1 0 I I #
face $-1 $-1 $373 $33 $-1 $374 reversed single #
loop $-1 $-1 $155 $149 #
plane-surface $-1 0 0 6.3500142742463579 0 0 1 1 0 0 forward_v I I I I #
coedge $-1 $375 $376 $377 $378 reversed $150 $-1 #
coedge $-1 $379 $152 $154 $261 forward $93 $-1 #
coedge $-1 $152 $379 $375 $380 forward $93 $-1 #
coedge $-1 $377 $155 $152 $258 forward $252 $-1 #
edge $-1 $264 -12.947124091538031 $381 -4.3138825373570544 $257 $382 forward 7 unknown #
coedge $-1 $383 $384 $153 $260 forward $373 $-1 #
edge $-1 $385 -66.966926318447321 $263 -62.732613676674326 $259 $386 forward 7 unknown #
edge $-1 $264 91.282925396354656 $385 96.731467635120708 $154 $387 forward 7 unknown #
coedge $-1 $155 $377 $383 $388 forward $252 $-1 #
vertex $-1 $260 $389 #
vertex $-1 $156 $390 #
straight-curve $-1 31.33255999301641 21.577627405985574 6.3500142742463623 -1 0 0 I I #
coedge $-1 $266 $266 $-1 $391 reversed $159 $-1 #
edge $-1 $392 0 $392 6.2831853071796004 $160 $393 forward 7 unknown #
vertex $-1 $163 $394 #
ellipse-curve $-1 46.651294479224113 14.67103416264079 4.2328579533598703 0.77714596973225614 0 0.62932038083071107 0.31466019041535553 0 -0.38857298486612807 1 I I #
coedge $-1 $270 $270 $-1 $395 reversed $166 $-1 #
edge $-1 $396 0 $396 6.2831853071796004 $167 $397 forward 7 unknown #
vertex $-1 $170 $398 #
ellipse-curve $-1 46.651294479224113 17.261006628895085 4.2328579533598703 0.77714596973225614 0 0.62932038083071107 0.31466019041535553 0 -0.38857298486612807 1 I I #
coedge $-1 $274 $274 $-1 $399 reversed $173 $-1 #
edge $-1 $400 0 $400 6.2831853071796004 $174 $401 forward 7 unknown #
vertex $-1 $177 $402 #
ellipse-curve $-1 46.651294479224113 19.850979095149381 4.2328579533598703 0.77714596973225614 0 0.62932038083071107 0.31466019041535553 0 -0.38857298486612807 1 I I #
face $-1 $-1 $290 $37 $-1 $403 forward single #
loop $-1 $-1 $404 $178 #
plane-surface $-1 -48.365733817560354 0 0 1 0 0 0 0 -1 forward_v I I I I #
coedge $-1 $405 $406 $407 $408 reversed $179 $-1 #
coedge $-1 $409 $181 $183 $288 forward $112 $-1 #
coedge $-1 $181 $409 $405 $410 forward $112 $-1 #
coedge $-1 $407 $184 $181 $285 forward $290 $-1 #
edge $-1 $292 -13.802487698391879 $411 -1.7477917167954944 $284 $412 forward 7 unknown #
coedge $-1 $413 $414 $182 $287 forward $279 $-1 #
edge $-1 $415 -28.640293760749781 $291 -24.563529017674043 $286 $416 forward 7 unknown #
edge $-1 $292 -5.1734886633364834 $415 0 $183 $417 forward 7 unknown #
coedge $-1 $184 $407 $413 $418 forward $290 $-1 #
loop $-1 $-1 $407 $278 #
vertex $-1 $287 $419 #
vertex $-1 $185 $420 #
straight-curve $-1 -62.295585662328882 -21.577627405985567 6.3500142742463588 1 0 0 I I #
coedge $-1 $294 $294 $-1 $421 reversed $188 $-1 #
edge $-1 $422 0 $422 6.2831853071796004 $189 $423 forward 7 unknown #
vertex $-1 $192 $424 #
ellipse-curve $-1 -46.773175013364593 -18.133428554100888 4.3116319027084895 -0.78801076186113728 0 0.61566146476048833 0.61566146476048833 0 0.78801076186113728 1 I I #
coedge $-1 $298 $298 $-1 $425 reversed $195 $-1 #
edge $-1 $426 0 $426 6.2831853071796004 $196 $427 forward 7 unknown #
vertex $-1 $199 $428 #
ellipse-curve $-1 -46.773175013364593 -12.967130276273863 4.3116319027084895 -0.78801076186113728 0 0.61566146476048833 0.61566146476048833 0 0.78801076186113728 1 I I #
face $-1 $-1 $215 $30 $-1 $429 reversed single #
loop $-1 $-1 $318 $200 #
plane-surface $-1 0 27.748708754431664 0 0 -1 0 0 0 -1 forward_v I I I I #
coedge $-1 $430 $316 $319 $431 forward $201 $-1 #
coedge $-1 $322 $203 $204 $310 reversed $126 $-1 #
coedge $-1 $316 $430 $203 $308 reversed $201 $-1 #
edge $-1 $323 -6.3500142742463579 $432 6.3500142742463579 $307 $433 forward 7 unknown #
coedge $-1 $205 $204 $430 $434 forward $81 $-1 #
edge $-1 $314 -48.365733817560354 $432 48.365733817560354 $306 $435 forward 7 unknown #
coedge $-1 $319 $318 $205 $312 reversed $303 $-1 #
edge $-1 $436 -48.365733817560354 $313 48.365733817560354 $311 $437 forward 7 unknown #
vertex $-1 $207 $438 #
vertex $-1 $325 $439 #
straight-curve $-1 48.365733817560354 0 -6.3500142742463579 0 -1 0 I I #
coedge $-1 $305 $307 $208 $317 reversed $201 $-1 #
edge $-1 $320 -27.748708754431664 $323 27.748708754431664 $316 $440 forward 7 unknown #
coedge $-1 $311 $209 $214 $326 forward $303 $-1 #
coedge $-1 $209 $311 $305 $431 reversed $303 $-1 #
vertex $-1 $210 $441 #
straight-curve $-1 0 27.748708754431664 6.3500142742463579 -1 0 0 I I #
coedge $-1 $211 $306 $213 $325 reversed $126 $-1 #
vertex $-1 $317 $442 #
straight-curve $-1 0 -27.748708754431664 6.3500142742463579 1 0 0 I I #
edge $-1 $216 -6.3500142742463579 $314 6.3500142742463579 $213 $443 forward 7 unknown #
edge $-1 $217 -6.3500142742463579 $313 6.3500142742463579 $214 $444 forward 7 unknown #
point $-1 48.365733817560354 -27.748708754431664 6.3500142742463579 #
point $-1 48.365733817560354 27.748708754431664 6.3500142742463579 #
face $-1 $-1 $445 $31 $-1 $446 reversed single #
loop $-1 $-1 $229 $219 #
plane-surface $-1 0 -27.748708754431664 0 0 1 0 0 0 1 forward_v I I I I #
coedge $-1 $447 $222 $336 $448 forward $134 $-1 #
coedge $-1 $222 $447 $449 $450 forward $134 $-1 #
edge $-1 $451 -48.365733817560354 $337 48.365733817560354 $222 $452 forward 7 unknown #
coedge $-1 $224 $223 $453 $454 reversed $85 $-1 #
coedge $-1 $225 $231 $332 $448 reversed $220 $-1 #
vertex $-1 $448 $455 #
straight-curve $-1 48.365733817560354 -21.57762740598557 -2.4250071371231789 0 0 1 I I #
coedge $-1 $453 $456 $227 $340 forward $445 $-1 #
edge $-1 $345 -15.417124714327356 $341 -9.2460433658812615 $339 $457 forward 7 unknown #
vertex $-1 $340 $458 #
straight-curve $-1 0 -21.57762740598557 -3.3500142742463579 -1 0 0 I I #
coedge $-1 $459 $229 $456 $460 forward $330 $-1 #
coedge $-1 $229 $459 $231 $347 reversed $330 $-1 #
vertex $-1 $460 $461 #
straight-curve $-1 0 -27.748708754431664 -3.3500142742463579 -1 0 0 I I #
edge $-1 $233 3.3500142742463579 $462 6.3500142742463579 $231 $463 forward 7 unknown #
point $-1 48.365733817560354 -21.57762740598557 -3.3500142742463579 #
point $-1 48.365733817560354 -27.748708754431664 -3.3500142742463579 #
face $-1 $-1 $364 $32 $-1 $464 reversed single #
loop $-1 $-1 $356 $235 #
plane-surface $-1 -48.365733817560354 0 0 1 0 0 0 0 -1 forward_v I I I I #
coedge $-1 $465 $466 $238 $355 forward $236 $-1 #
coedge $-1 $239 $238 $246 $369 reversed $89 $-1 #
edge $-1 $467 -48.365733817560354 $358 48.365733817560354 $353 $468 forward 7 unknown #
coedge $-1 $469 $240 $242 $361 forward $351 $-1 #
coedge $-1 $240 $469 $465 $470 reversed $351 $-1 #
vertex $-1 $470 $471 #
vertex $-1 $361 $472 #
straight-curve $-1 -48.365733817560354 21.57762740598557 -2.4250071371231789 0 0 1 I I #
edge $-1 $359 9.2460433658812615 $365 15.417124714327356 $356 $473 forward 7 unknown #
coedge $-1 $474 $243 $247 $370 forward $364 $-1 #
coedge $-1 $243 $474 $469 $475 reversed $364 $-1 #
loop $-1 $-1 $243 $350 #
vertex $-1 $475 $476 #
straight-curve $-1 0 27.748708754431664 -3.3500142742463579 1 0 0 I I #
straight-curve $-1 0 21.57762740598557 -3.3500142742463579 1 0 0 I I #
coedge $-1 $247 $246 $466 $477 reversed $142 $-1 #
edge $-1 $249 0.92500713712317895 $467 3.9250071371231789 $246 $478 forward 7 unknown #
edge $-1 $248 3.3500142742463579 $479 6.3500142742463579 $247 $480 forward 7 unknown #
point $-1 48.365733817560354 27.748708754431664 -3.3500142742463579 #
point $-1 48.365733817560354 21.57762740598557 -3.3500142742463579 #
loop $-1 $-1 $259 $251 #
plane-surface $-1 48.365733817560354 0 0 -1 0 0 0 0 1 forward_v I I I I #
coedge $-1 $376 $254 $256 $380 reversed $150 $-1 #
coedge $-1 $254 $375 $481 $482 reversed $150 $-1 #
coedge $-1 $262 $257 $254 $378 forward $252 $-1 #
edge $-1 $381 13.604295147871476 $483 17.033173824543944 $377 $484 forward 7 unknown #
coedge $-1 $256 $255 $384 $485 reversed $93 $-1 #
edge $-1 $486 -96.731467635120708 $381 -91.282925396354656 $375 $487 forward 7 unknown #
vertex $-1 $258 $488 #
straight-curve $-1 44.936855140887886 8.6305033144475427 6.3500142742463552 0 -1 0 I I #
coedge $-1 $481 $259 $262 $388 reversed $373 $-1 #
coedge $-1 $259 $481 $379 $485 forward $373 $-1 #
vertex $-1 $260 $489 #
straight-curve $-1 48.365733817560354 21.577627405985574 69.082627950920681 0 0 1 I I #
straight-curve $-1 -12.509350232887414 21.577627405985574 77.290171851393595 0.62932038083071107 0 -0.77714596973225614 I I #
edge $-1 $483 12.944385851804597 $263 21.577627405985574 $383 $490 forward 7 unknown #
point $-1 48.365733817560354 21.577627405985574 6.3500142742463579 #
point $-1 44.936855140887886 21.577627405985574 6.3500142742463623 #
edge $-1 $491 1 $491 0 $266 $-1 forward 7 unknown #
vertex $-1 $267 $492 #
ellipse-curve $-1 45.490579882657087 14.67103416264079 3.292929831235027 0.77714596973225614 0 0.62932038083071107 0.31466019041535553 0 -0.38857298486612807 1 I I #
point $-1 46.965954669639466 14.67103416264079 3.8442849684937377 #
edge $-1 $493 1 $493 0 $270 $-1 forward 7 unknown #
vertex $-1 $271 $494 #
ellipse-curve $-1 45.490579882657087 17.261006628895085 3.292929831235027 0.77714596973225614 0 0.62932038083071107 0.31466019041535553 0 -0.38857298486612807 1 I I #
point $-1 46.965954669639466 17.261006628895085 3.8442849684937377 #
edge $-1 $495 1 $495 0 $274 $-1 forward 7 unknown #
vertex $-1 $275 $496 #
ellipse-curve $-1 45.490579882657087 19.850979095149381 3.292929831235027 0.77714596973225614 0 0.62932038083071107 0.31466019041535553 0 -0.38857298486612807 1 I I #
point $-1 46.965954669639466 19.850979095149381 3.8442849684937377 #
plane-surface $-1 0 0 6.3500142742463579 0 0 1 1 0 0 forward_v I I I I #
coedge $-1 $414 $413 $406 $497 forward $279 $-1 #
coedge $-1 $406 $281 $283 $410 reversed $179 $-1 #
coedge $-1 $281 $405 $404 $497 reversed $179 $-1 #
coedge $-1 $289 $284 $281 $408 forward $290 $-1 #
edge $-1 $411 -17.11496945316005 $498 -13.929851844768528 $407 $499 forward 7 unknown #
coedge $-1 $283 $282 $414 $500 reversed $112 $-1 #
edge $-1 $501 0 $411 5.1734886633364834 $405 $502 forward 7 unknown #
vertex $-1 $285 $503 #
straight-curve $-1 -45.180616209168839 -7.775139707593687 6.350014274246357 0 1 0 I I #
coedge $-1 $404 $286 $289 $418 reversed $279 $-1 #
coedge $-1 $286 $404 $409 $500 forward $279 $-1 #
vertex $-1 $287 $504 #
straight-curve $-1 -48.365733817560354 -21.577627405985567 30.913543291920401 0 0 1 I I #
straight-curve $-1 -48.365733817560354 -21.577627405985567 2.2732495311706202 -0.61566146476048833 0 -0.78801076186113728 I I #
edge $-1 $498 9.5229314243891814 $291 21.577627405985567 $413 $505 forward 7 unknown #
point $-1 -48.365733817560354 -21.577627405985567 6.3500142742463579 #
point $-1 -45.180616209168832 -21.577627405985567 6.3500142742463579 #
edge $-1 $506 1 $506 0 $294 $-1 forward 7 unknown #
vertex $-1 $295 $507 #
ellipse-curve $-1 -43.719179387902763 -18.133428554100888 1.9255890830606988 -0.78801076186113728 0 0.61566146476048833 0.61566146476048833 0 0.78801076186113728 1 I I #
point $-1 -46.157513548604108 -18.133428554100888 5.0996426645696271 #
edge $-1 $508 1 $508 0 $298 $-1 forward 7 unknown #
vertex $-1 $299 $509 #
ellipse-curve $-1 -43.719179387902763 -12.967130276273863 1.9255890830606988 -0.78801076186113728 0 0.61566146476048833 0.61566146476048833 0 0.78801076186113728 1 I I #
point $-1 -46.157513548604108 -12.967130276273863 5.0996426645696271 #
plane-surface $-1 48.365733817560354 0 0 -1 0 0 0 0 1 forward_v I I I I #
coedge $-1 $307 $305 $309 $434 reversed $201 $-1 #
edge $-1 $320 -6.3500142742463579 $436 6.3500142742463579 $319 $510 forward 7 unknown #
vertex $-1 $434 $511 #
straight-curve $-1 -48.365733817560354 -27.748708754431664 0 0 0 -1 I I #
edge $-1 $432 -27.748708754431664 $436 27.748708754431664 $430 $512 forward 7 unknown #
straight-curve $-1 0 -27.748708754431664 -6.3500142742463579 -1 0 0 I I #
vertex $-1 $312 $513 #
straight-curve $-1 0 27.748708754431664 -6.3500142742463579 1 0 0 I I #
point $-1 48.365733817560354 27.748708754431664 -6.3500142742463579 #
point $-1 48.365733817560354 -27.748708754431664 -6.3500142742463579 #
straight-curve $-1 -48.365733817560354 0 6.3500142742463579 0 -1 0 I I #
point $-1 -48.365733817560354 27.748708754431664 6.3500142742463579 #
point $-1 -48.365733817560354 -27.748708754431664 6.3500142742463579 #
straight-curve $-1 48.365733817560354 -27.748708754431664 0 0 0 -1 I I #
straight-curve $-1 48.365733817560354 27.748708754431664 0 0 0 -1 I I #
loop $-1 $-1 $453 $329 #
plane-surface $-1 -48.365733817560354 0 0 1 0 0 0 0 -1 forward_v I I I I #
coedge $-1 $333 $332 $459 $514 forward $134 $-1 #
edge $-1 $337 21.57762740598557 $462 27.748708754431664 $336 $515 forward 7 unknown #
coedge $-1 $456 $453 $333 $450 reversed $445 $-1 #
edge $-1 $516 -27.748708754431664 $451 -21.57762740598557 $449 $517 forward 7 unknown #
vertex $-1 $454 $518 #
straight-curve $-1 0 -21.57762740598557 -6.3500142742463579 1 0 0 I I #
coedge $-1 $449 $339 $335 $454 forward $445 $-1 #
edge $-1 $341 0.92500713712317895 $451 3.9250071371231789 $453 $519 forward 7 unknown #
point $-1 48.365733817560354 -21.57762740598557 -6.3500142742463579 #
coedge $-1 $339 $449 $343 $460 reversed $445 $-1 #
straight-curve $-1 -48.365733817560354 -12.331584040104309 -3.3500142742463579 0 1 0 I I #
point $-1 -48.365733817560354 -21.57762740598557 -3.3500142742463579 #
coedge $-1 $344 $343 $447 $514 reversed $330 $-1 #
edge $-1 $345 3.3500142742463579 $516 6.3500142742463579 $456 $520 forward 7 unknown #
point $-1 -48.365733817560354 -27.748708754431664 -3.3500142742463579 #
vertex $-1 $347 $521 #
straight-curve $-1 48.365733817560354 -27.748708754431664 0 0 0 -1 I I #
plane-surface $-1 0 27.748708754431664 0 0 -1 0 0 0 -1 forward_v I I I I #
coedge $-1 $522 $353 $357 $470 forward $236 $-1 #
coedge $-1 $353 $522 $368 $477 forward $236 $-1 #
vertex $-1 $355 $523 #
straight-curve $-1 0 21.57762740598557 -6.3500142742463579 -1 0 0 I I #
coedge $-1 $357 $356 $363 $475 forward $351 $-1 #
edge $-1 $358 21.57762740598557 $524 27.748708754431664 $357 $525 forward 7 unknown #
point $-1 -48.365733817560354 21.57762740598557 -6.3500142742463579 #
point $-1 -48.365733817560354 21.57762740598557 -3.3500142742463579 #
straight-curve $-1 -48.365733817560354 12.331584040104309 -3.3500142742463579 0 1 0 I I #
coedge $-1 $363 $362 $522 $526 reversed $364 $-1 #
edge $-1 $365 3.3500142742463579 $524 6.3500142742463579 $363 $527 forward 7 unknown #
point $-1 -48.365733817560354 27.748708754431664 -3.3500142742463579 #
edge $-1 $479 -27.748708754431664 $467 -21.57762740598557 $368 $528 forward 7 unknown #
straight-curve $-1 48.365733817560354 21.57762740598557 -2.4250071371231789 0 0 -1 I I #
vertex $-1 $477 $529 #
straight-curve $-1 48.365733817560354 27.748708754431664 0 0 0 -1 I I #
coedge $-1 $384 $383 $376 $482 forward $373 $-1 #
edge $-1 $483 62.732613676674326 $486 66.966926318447321 $481 $530 forward 7 unknown #
vertex $-1 $388 $531 #
straight-curve $-1 31.33255999301641 12.944385851804597 6.3500142742463623 1 0 0 I I #
edge $-1 $486 4.3138825373570544 $385 12.947124091538031 $384 $532 forward 7 unknown #
vertex $-1 $485 $533 #
straight-curve $-1 -12.509350232887414 12.944385851804597 77.290171851393595 -0.62932038083071107 0 0.77714596973225614 I I #
point $-1 44.936855140887886 12.944385851804597 6.3500142742463623 #
point $-1 48.365733817560354 21.577627405985574 2.1157016324733604 #
straight-curve $-1 48.365733817560354 0 6.3500142742463579 0 1 0 I I #
vertex $-1 $391 $534 #
point $-1 45.80524007307244 14.67103416264079 2.9043568463688989 #
vertex $-1 $395 $535 #
point $-1 45.80524007307244 17.261006628895085 2.9043568463688989 #
vertex $-1 $399 $536 #
point $-1 45.80524007307244 19.850979095149381 2.9043568463688989 #
edge $-1 $498 24.563529017674043 $501 28.640293760749781 $404 $537 forward 7 unknown #
vertex $-1 $418 $538 #
straight-curve $-1 -62.295585662328882 -9.5229314243891814 6.3500142742463588 -1 0 0 I I #
edge $-1 $501 1.7477917167954944 $415 13.802487698391879 $414 $539 forward 7 unknown #
vertex $-1 $500 $540 #
straight-curve $-1 -48.365733817560354 -9.5229314243891814 2.2732495311706202 0.61566146476048833 0 0.78801076186113728 I I #
point $-1 -45.180616209168832 -9.5229314243891814 6.3500142742463579 #
point $-1 -48.365733817560354 -21.577627405985567 2.2732495311706202 #
straight-curve $-1 -48.365733817560354 0 6.3500142742463579 0 -1 0 I I #
vertex $-1 $421 $541 #
point $-1 -43.103517923142277 -18.133428554100888 2.7135998449218359 #
vertex $-1 $425 $542 #
point $-1 -43.103517923142277 -12.967130276273863 2.7135998449218359 #
straight-curve $-1 -48.365733817560354 27.748708754431664 0 0 0 -1 I I #
point $-1 -48.365733817560354 -27.748708754431664 -6.3500142742463579 #
straight-curve $-1 -48.365733817560354 0 -6.3500142742463579 0 1 0 I I #
point $-1 -48.365733817560354 27.748708754431664 -6.3500142742463579 #
edge $-1 $462 -48.365733817560354 $516 48.365733817560354 $459 $543 forward 7 unknown #
straight-curve $-1 48.365733817560354 0 -6.3500142742463579 0 -1 0 I I #
vertex $-1 $450 $544 #
straight-curve $-1 -48.365733817560354 0 -6.3500142742463579 0 1 0 I I #
point $-1 -48.365733817560354 -21.57762740598557 -6.3500142742463579 #
straight-curve $-1 -48.365733817560354 -21.57762740598557 -2.4250071371231789 0 0 -1 I I #
straight-curve $-1 -48.365733817560354 -27.748708754431664 0 0 0 -1 I I #
point $-1 48.365733817560354 -27.748708754431664 -6.3500142742463579 #
coedge $-1 $466 $465 $474 $526 forward $236 $-1 #
point $-1 48.365733817560354 21.57762740598557 -6.3500142742463579 #
vertex $-1 $526 $545 #
straight-curve $-1 -48.365733817560354 0 -6.3500142742463579 0 1 0 I I #
edge $-1 $524 -48.365733817560354 $479 48.365733817560354 $474 $546 forward 7 unknown #
straight-curve $-1 -48.365733817560354 27.748708754431664 0 0 0 -1 I I #
straight-curve $-1 48.365733817560354 0 -6.3500142742463579 0 -1 0 I I #
point $-1 48.365733817560354 27.748708754431664 -6.3500142742463579 #
straight-curve $-1 48.365733817560354 12.944385851804597 69.082627950920681 0 0 -1 I I #
point $-1 48.365733817560354 12.944385851804597 6.3500142742463579 #
straight-curve $-1 48.365733817560354 8.6305033144475427 2.1157016324733604 0 1 0 I I #
point $-1 48.365733817560354 12.944385851804597 2.1157016324733604 #
point $-1 45.102006897790957 14.67103416264079 2.9782696408196716 #
point $-1 45.102006897790957 17.261006628895085 2.9782696408196716 #
point $-1 45.102006897790957 19.850979095149381 2.9782696408196716 #
straight-curve $-1 -48.365733817560354 -9.5229314243891814 30.913543291920401 0 0 -1 I I #
point $-1 -48.365733817560354 -9.5229314243891814 6.3500142742463579 #
straight-curve $-1 -48.365733817560354 -7.775139707593687 2.2732495311706238 0 -1 0 I I #
point $-1 -48.365733817560354 -9.5229314243891814 2.2732495311706202 #
point $-1 -42.931168626041632 -18.133428554100888 1.3099276183002106 #
point $-1 -42.931168626041632 -12.967130276273863 1.3099276183002106 #
straight-curve $-1 0 -27.748708754431664 -6.3500142742463579 -1 0 0 I I #
point $-1 -48.365733817560354 -27.748708754431664 -6.3500142742463579 #
point $-1 -48.365733817560354 27.748708754431664 -6.3500142742463579 #
straight-curve $-1 0 27.748708754431664 -6.3500142742463579 1 0 0 I I #
End-of-ACIS-data 