500 0 16 0           
7 Unknown 11 ACIS 5.0 NT 24 Fri Mar 26 18:44:09 1999 
-1 9.9999999999999995e-007 1e-010 
body $-1 $16 $-1 $17 #
body $-1 $18 $-1 $19 #
body $-1 $20 $-1 $21 #
body $-1 $22 $-1 $23 #
body $-1 $24 $-1 $25 #
body $-1 $26 $-1 $27 #
body $-1 $28 $-1 $29 #
body $-1 $30 $-1 $31 #
body $-1 $32 $-1 $33 #
body $-1 $34 $-1 $35 #
body $-1 $36 $-1 $37 #
body $-1 $38 $-1 $39 #
body $-1 $40 $-1 $41 #
body $-1 $42 $-1 $43 #
body $-1 $44 $-1 $45 #
body $-1 $46 $-1 $47 #
lump $-1 $-1 $48 $0 #
transform $-1 1 0 0 0 1 0 0 0 1 44.509414960173345 21.730515969324905 6.0722357957192505 1 rotate no_reflect no_shear #
lump $-1 $-1 $49 $1 #
transform $-1 1 0 0 0 1 0 0 0 1 44.509414960173345 21.730515969324905 6.0722357957192505 1 rotate no_reflect no_shear #
lump $-1 $-1 $50 $2 #
transform $-1 1 0 0 0 1 0 0 0 1 44.509414960173345 21.730515969324905 6.0722357957192505 1 rotate no_reflect no_shear #
lump $-1 $-1 $51 $3 #
transform $-1 1 0 0 0 1 0 0 0 1 44.509414960173345 21.730515969324905 6.0722357957192505 1 rotate no_reflect no_shear #
lump $-1 $-1 $52 $4 #
transform $-1 1 0 0 0 1 0 0 0 1 44.509414960173345 21.730515969324905 6.0722357957192505 1 rotate no_reflect no_shear #
lump $-1 $-1 $53 $5 #
transform $-1 1 0 0 0 1 0 0 0 1 44.509414960173345 21.730515969324905 6.0722357957192505 1 rotate no_reflect no_shear #
lump $-1 $-1 $54 $6 #
transform $-1 1 0 0 0 1 0 0 0 1 44.509414960173345 21.730515969324905 6.0722357957192505 1 rotate no_reflect no_shear #
lump $-1 $-1 $55 $7 #
transform $-1 1 0 0 0 1 0 0 0 1 44.509414960173345 21.730515969324905 6.0722357957192505 1 rotate no_reflect no_shear #
lump $-1 $-1 $56 $8 #
transform $-1 1 0 0 0 1 0 0 0 1 44.509414960173345 21.730515969324905 6.0722357957192505 1 rotate no_reflect no_shear #
lump $-1 $-1 $57 $9 #
transform $-1 1 0 0 0 1 0 0 0 1 44.509414960173345 21.730515969324905 6.0722357957192505 1 rotate no_reflect no_shear #
lump $-1 $-1 $58 $10 #
transform $-1 1 0 0 0 1 0 0 0 1 44.509414960173345 21.730515969324905 6.0722357957192505 1 rotate no_reflect no_shear #
lump $-1 $-1 $59 $11 #
transform $-1 1 0 0 0 1 0 0 0 1 44.509414960173345 21.730515969324905 6.0722357957192505 1 rotate no_reflect no_shear #
lump $-1 $-1 $60 $12 #
transform $-1 1 0 0 0 1 0 0 0 1 44.509414960173345 21.730515969324905 6.0722357957192505 1 rotate no_reflect no_shear #
lump $-1 $-1 $61 $13 #
transform $-1 1 0 0 0 1 0 0 0 1 44.509414960173345 21.730515969324905 6.0722357957192505 1 rotate no_reflect no_shear #
lump $-1 $-1 $62 $14 #
transform $-1 1 0 0 0 1 0 0 0 1 44.509414960173345 21.730515969324905 6.0722357957192505 1 rotate no_reflect no_shear #
lump $-1 $-1 $63 $15 #
transform $-1 1 0 0 0 1 0 0 0 1 44.509414960173345 21.730515969324905 6.0722357957192505 1 rotate no_reflect no_shear #
shell $-1 $-1 $-1 $64 $-1 $16 #
shell $-1 $-1 $-1 $65 $-1 $18 #
shell $-1 $-1 $-1 $66 $-1 $20 #
shell $-1 $-1 $-1 $67 $-1 $22 #
shell $-1 $-1 $-1 $68 $-1 $24 #
shell $-1 $-1 $-1 $69 $-1 $26 #
shell $-1 $-1 $-1 $70 $-1 $28 #
shell $-1 $-1 $-1 $71 $-1 $30 #
shell $-1 $-1 $-1 $72 $-1 $32 #
shell $-1 $-1 $-1 $73 $-1 $34 #
shell $-1 $-1 $-1 $74 $-1 $36 #
shell $-1 $-1 $-1 $75 $-1 $38 #
shell $-1 $-1 $-1 $76 $-1 $40 #
shell $-1 $-1 $-1 $77 $-1 $42 #
shell $-1 $-1 $-1 $78 $-1 $44 #
shell $-1 $-1 $-1 $79 $-1 $46 #
face $-1 $80 $81 $48 $-1 $82 forward single #
face $-1 $83 $84 $49 $-1 $85 reversed single #
face $-1 $86 $87 $50 $-1 $88 forward single #
face $-1 $89 $90 $51 $-1 $91 forward single #
face $-1 $92 $93 $52 $-1 $94 reversed single #
face $-1 $95 $96 $53 $-1 $97 forward single #
face $-1 $98 $99 $54 $-1 $100 forward single #
face $-1 $101 $102 $55 $-1 $103 reversed single #
face $-1 $104 $105 $56 $-1 $106 forward single #
face $-1 $107 $108 $57 $-1 $109 forward single #
face $-1 $110 $111 $58 $-1 $112 reversed single #
face $-1 $113 $114 $59 $-1 $115 forward single #
face $-1 $116 $117 $60 $-1 $118 forward single #
face $-1 $119 $120 $61 $-1 $121 reversed single #
face $-1 $122 $123 $62 $-1 $124 forward single #
face $-1 $125 $126 $63 $-1 $127 forward single #
face $-1 $128 $129 $48 $-1 $130 reversed single #
loop $-1 $-1 $131 $64 #
plane-surface $-1 0 0 6.0722357957192505 0 0 1 1 0 0 forward_v I I I I #
face $-1 $132 $133 $49 $-1 $134 reversed single #
loop $-1 $-1 $135 $65 #
plane-surface $-1 -33.562859069527235 -72.789619861222008 74.489311886850828 -1 0 0 0 -0.57357644374324357 0.81915203911291934 forward_v I I I I #
face $-1 $136 $137 $50 $-1 $138 forward single #
loop $-1 $139 $140 $66 #
cone-surface $-1 -41.381827562845885 -17.963597236639142 3.0331303952510273 0 0.57357644374324357 -0.81915203911291934 1.5 0 0 1 I I 0 1 1.5 forward I I I I #
face $-1 $141 $142 $51 $-1 $143 forward single #
loop $-1 $144 $145 $67 #
cone-surface $-1 -36.690446466854695 -17.963597236639142 3.0331303952510273 0 0.57357644374324357 -0.81915203911291934 1.5 0 0 1 I I 0 1 1.5 forward I I I I #
face $-1 $146 $147 $52 $-1 $148 reversed single #
loop $-1 $-1 $149 $68 #
plane-surface $-1 -11.308151589440564 -72.789619861222008 74.489311886850828 -1 0 0 0 -0.57357644374324357 0.81915203911291934 forward_v I I I I #
face $-1 $150 $151 $53 $-1 $152 forward single #
loop $-1 $153 $154 $69 #
cone-surface $-1 -19.127120082759212 -17.963597236639142 3.0331303952510273 0 0.57357644374324357 -0.81915203911291934 1.5 0 0 1 I I 0 1 1.5 forward I I I I #
face $-1 $155 $156 $54 $-1 $157 forward single #
loop $-1 $158 $159 $70 #
cone-surface $-1 -14.435738986768026 -17.963597236639142 3.0331303952510273 0 0.57357644374324357 -0.81915203911291934 1.5 0 0 1 I I 0 1 1.5 forward I I I I #
face $-1 $160 $161 $55 $-1 $162 reversed single #
loop $-1 $-1 $163 $71 #
plane-surface $-1 10.946555890646108 -72.789619861222008 74.489311886850828 -1 0 0 0 -0.57357644374324357 0.81915203911291934 forward_v I I I I #
face $-1 $164 $165 $56 $-1 $166 forward single #
loop $-1 $167 $168 $72 #
cone-surface $-1 3.1275873973274599 -17.963597236639142 3.0331303952510273 0 0.57357644374324357 -0.81915203911291934 1.5 0 0 1 I I 0 1 1.5 forward I I I I #
face $-1 $169 $170 $57 $-1 $171 forward single #
loop $-1 $172 $173 $73 #
cone-surface $-1 7.8189684933186498 -17.963597236639142 3.0331303952510273 0 0.57357644374324357 -0.81915203911291934 1.5 0 0 1 I I 0 1 1.5 forward I I I I #
face $-1 $174 $175 $58 $-1 $176 reversed single #
loop $-1 $-1 $177 $74 #
plane-surface $-1 33.201263370732782 -72.789619861222008 74.489311886850828 -1 0 0 0 -0.57357644374324357 0.81915203911291934 forward_v I I I I #
face $-1 $178 $179 $59 $-1 $180 forward single #
loop $-1 $181 $182 $75 #
cone-surface $-1 25.382294877414139 -17.963597236639142 3.0331303952510273 0 0.57357644374324357 -0.81915203911291934 1.5 0 0 1 I I 0 1 1.5 forward I I I I #
face $-1 $183 $184 $60 $-1 $185 forward single #
loop $-1 $186 $187 $76 #
cone-surface $-1 30.073675973405315 -17.963597236639142 3.0331303952510273 0 0.57357644374324357 -0.81915203911291934 1.5 0 0 1 I I 0 1 1.5 forward I I I I #
face $-1 $188 $189 $61 $-1 $190 reversed single #
loop $-1 $-1 $191 $77 #
plane-surface $-1 3.7499317039450695 40.593862677045664 98.324059455970001 1 0 0 0 -0.6018150307709319 -0.79863550430605224 forward_v I I I I #
face $-1 $192 $193 $62 $-1 $194 forward single #
loop $-1 $195 $196 $78 #
cone-surface $-1 8.5741313982189027 17.36872969714921 2.1855334809456179 0 -0.6018150307709319 -0.79863550430605224 1.5 0 0 1 I I 0 1 1.5 forward I I I I #
face $-1 $197 $198 $63 $-1 $199 forward single #
loop $-1 $200 $201 $79 #
cone-surface $-1 15.810430939629647 17.36872969714921 2.1855334809456179 0 -0.6018150307709319 -0.79863550430605224 1.5 0 0 1 I I 0 1 1.5 forward I I I I #
face $-1 $202 $203 $48 $-1 $204 reversed single #
loop $-1 $-1 $205 $80 #
plane-surface $-1 0 0 -6.0722357957192505 0 0 1 1 0 0 forward_v I I I I #
coedge $-1 $206 $207 $208 $209 forward $81 $-1 #
face $-1 $210 $211 $49 $-1 $212 forward single #
loop $-1 $-1 $213 $83 #
plane-surface $-1 -39.03613701485029 -21.730515969324905 1.5693558381526884 0 -0.57357644374324357 0.81915203911291934 1 0 0 forward_v I I I I #
coedge $-1 $214 $215 $216 $217 reversed $84 $-1 #
face $-1 $-1 $218 $50 $-1 $219 forward single #
loop $-1 $220 $221 $86 #
cone-surface $-1 -41.381827562845885 -16.981885627387719 1.6311009442314024 0 0.57357644374324357 -0.81915203911291934 0.75 0 0 1 I I -0.70710678118654757 0.70710678118654757 0.75 forward I I I I #
loop $-1 $-1 $222 $66 #
coedge $-1 $140 $140 $223 $224 reversed $87 $-1 #
face $-1 $-1 $225 $51 $-1 $226 forward single #
loop $-1 $227 $228 $89 #
cone-surface $-1 -36.690446466854695 -16.981885627387719 1.6311009442314024 0 0.57357644374324357 -0.81915203911291934 0.75 0 0 1 I I -0.70710678118654757 0.70710678118654757 0.75 forward I I I I #
loop $-1 $-1 $229 $67 #
coedge $-1 $145 $145 $230 $231 reversed $90 $-1 #
face $-1 $232 $233 $52 $-1 $234 reversed single #
loop $-1 $-1 $235 $92 #
plane-surface $-1 -16.781429534763618 -21.730515969324905 1.5693558381526884 0 -0.57357644374324357 0.81915203911291934 1 0 0 forward_v I I I I #
coedge $-1 $236 $237 $238 $239 reversed $93 $-1 #
face $-1 $-1 $240 $53 $-1 $241 forward single #
loop $-1 $242 $243 $95 #
cone-surface $-1 -19.127120082759212 -16.981885627387719 1.6311009442314024 0 0.57357644374324357 -0.81915203911291934 0.75 0 0 1 I I -0.70710678118654757 0.70710678118654757 0.75 forward I I I I #
loop $-1 $-1 $244 $69 #
coedge $-1 $154 $154 $245 $246 reversed $96 $-1 #
face $-1 $-1 $247 $54 $-1 $248 forward single #
loop $-1 $249 $250 $98 #
cone-surface $-1 -14.435738986768026 -16.981885627387719 1.6311009442314024 0 0.57357644374324357 -0.81915203911291934 0.75 0 0 1 I I -0.70710678118654757 0.70710678118654757 0.75 forward I I I I #
loop $-1 $-1 $251 $70 #
coedge $-1 $159 $159 $252 $253 reversed $99 $-1 #
face $-1 $254 $255 $55 $-1 $256 reversed single #
loop $-1 $-1 $257 $101 #
plane-surface $-1 5.4732779453230549 -21.730515969324905 1.5693558381526884 0 -0.57357644374324357 0.81915203911291934 1 0 0 forward_v I I I I #
coedge $-1 $258 $259 $260 $261 reversed $102 $-1 #
face $-1 $-1 $262 $56 $-1 $263 forward single #
loop $-1 $264 $265 $104 #
cone-surface $-1 3.1275873973274599 -16.981885627387719 1.6311009442314024 0 0.57357644374324357 -0.81915203911291934 0.75 0 0 1 I I -0.70710678118654757 0.70710678118654757 0.75 forward I I I I #
loop $-1 $-1 $266 $72 #
coedge $-1 $168 $168 $267 $268 reversed $105 $-1 #
face $-1 $-1 $269 $57 $-1 $270 forward single #
loop $-1 $271 $272 $107 #
cone-surface $-1 7.8189684933186498 -16.981885627387719 1.6311009442314024 0 0.57357644374324357 -0.81915203911291934 0.75 0 0 1 I I -0.70710678118654757 0.70710678118654757 0.75 forward I I I I #
loop $-1 $-1 $273 $73 #
coedge $-1 $173 $173 $274 $275 reversed $108 $-1 #
face $-1 $276 $277 $58 $-1 $278 reversed single #
loop $-1 $-1 $279 $110 #
plane-surface $-1 27.727985425409727 -21.730515969324905 1.5693558381526884 0 -0.57357644374324357 0.81915203911291934 1 0 0 forward_v I I I I #
coedge $-1 $280 $281 $282 $283 reversed $111 $-1 #
face $-1 $-1 $284 $59 $-1 $285 forward single #
loop $-1 $286 $287 $113 #
cone-surface $-1 25.382294877414139 -16.981885627387719 1.6311009442314024 0 0.57357644374324357 -0.81915203911291934 0.75 0 0 1 I I -0.70710678118654757 0.70710678118654757 0.75 forward I I I I #
loop $-1 $-1 $288 $75 #
coedge $-1 $182 $182 $289 $290 reversed $114 $-1 #
face $-1 $-1 $291 $60 $-1 $292 forward single #
loop $-1 $293 $294 $116 #
cone-surface $-1 30.073675973405315 -16.981885627387719 1.6311009442314024 0 0.57357644374324357 -0.81915203911291934 0.75 0 0 1 I I -0.70710678118654757 0.70710678118654757 0.75 forward I I I I #
loop $-1 $-1 $295 $76 #
coedge $-1 $187 $187 $296 $297 reversed $117 $-1 #
face $-1 $298 $299 $61 $-1 $300 reversed single #
loop $-1 $-1 $301 $119 #
plane-surface $-1 12.192281168924268 -12.979007190660134 27.230461329799226 0 0.6018150307709319 0.79863550430605224 1 0 0 forward_v I I I I #
coedge $-1 $302 $303 $304 $305 reversed $120 $-1 #
face $-1 $-1 $306 $62 $-1 $307 forward single #
loop $-1 $308 $309 $122 #
cone-surface $-1 8.5741313982189027 15.871387195703448 0.19849290764995065 0 -0.6018150307709319 -0.79863550430605224 0.75 0 0 1 I I -0.70710678118654757 0.70710678118654757 0.75 forward I I I I #
loop $-1 $-1 $310 $78 #
coedge $-1 $196 $196 $311 $312 reversed $123 $-1 #
face $-1 $-1 $313 $63 $-1 $314 forward single #
loop $-1 $315 $316 $125 #
cone-surface $-1 15.810430939629647 15.871387195703448 0.19849290764995065 0 -0.6018150307709319 -0.79863550430605224 0.75 0 0 1 I I -0.70710678118654757 0.70710678118654757 0.75 forward I I I I #
loop $-1 $-1 $317 $79 #
coedge $-1 $201 $201 $318 $319 reversed $126 $-1 #
face $-1 $320 $321 $48 $-1 $322 reversed single #
loop $-1 $-1 $323 $128 #
plane-surface $-1 0 -21.730515969324905 0 0 1 0 0 0 1 forward_v I I I I #
coedge $-1 $324 $325 $326 $327 forward $129 $-1 #
coedge $-1 $328 $131 $329 $330 forward $81 $-1 #
coedge $-1 $131 $328 $331 $332 forward $81 $-1 #
coedge $-1 $333 $334 $131 $209 reversed $335 $-1 #
edge $-1 $336 -21.730515969324905 $337 21.730515969324905 $208 $338 forward 7 unknown #
face $-1 $339 $340 $49 $-1 $341 reversed single #
loop $-1 $-1 $216 $132 #
plane-surface $-1 0 0 6.0722357957192505 0 0 1 1 0 0 forward_v I I I I #
coedge $-1 $342 $343 $344 $345 reversed $133 $-1 #
coedge $-1 $215 $135 $346 $347 reversed $84 $-1 #
coedge $-1 $135 $214 $342 $348 reversed $84 $-1 #
coedge $-1 $344 $349 $135 $217 forward $211 $-1 #
edge $-1 $350 14.664293961286099 $351 21.095072873769624 $216 $352 forward 7 unknown #
loop $-1 $-1 $223 $136 #
plane-surface $-1 -39.03613701485029 -21.730515969324905 1.5693558381526884 0 -0.57357644374324357 0.81915203911291934 1 0 0 forward_v I I I I #
loop $-1 $-1 $353 $86 #
coedge $-1 $221 $221 $222 $354 reversed $137 $-1 #
coedge $-1 $222 $222 $221 $354 forward $139 $-1 #
coedge $-1 $223 $223 $140 $224 forward $218 $-1 #
edge $-1 $355 8.2365422287850405e-016 $355 6.2831853071796013 $223 $356 forward 7 unknown #
loop $-1 $-1 $230 $141 #
plane-surface $-1 -39.03613701485029 -21.730515969324905 1.5693558381526884 0 -0.57357644374324357 0.81915203911291934 1 0 0 forward_v I I I I #
loop $-1 $-1 $357 $89 #
coedge $-1 $228 $228 $229 $358 reversed $142 $-1 #
coedge $-1 $229 $229 $228 $358 forward $144 $-1 #
coedge $-1 $230 $230 $145 $231 forward $225 $-1 #
edge $-1 $359 8.2365422287850405e-016 $359 6.2831853071796013 $230 $360 forward 7 unknown #
face $-1 $361 $362 $52 $-1 $363 reversed single #
loop $-1 $-1 $364 $146 #
plane-surface $-1 -22.254707480086672 -72.789619861222008 74.489311886850828 1 0 0 0 0.57357644374324357 -0.81915203911291934 forward_v I I I I #
coedge $-1 $365 $366 $367 $368 reversed $147 $-1 #
coedge $-1 $237 $149 $369 $370 reversed $93 $-1 #
coedge $-1 $149 $236 $365 $371 reversed $93 $-1 #
coedge $-1 $367 $372 $149 $239 forward $373 $-1 #
edge $-1 $374 14.664293961286099 $375 21.095072873769624 $238 $376 forward 7 unknown #
loop $-1 $-1 $245 $150 #
plane-surface $-1 -16.781429534763618 -21.730515969324905 1.5693558381526884 0 -0.57357644374324357 0.81915203911291934 1 0 0 forward_v I I I I #
loop $-1 $-1 $377 $95 #
coedge $-1 $243 $243 $244 $378 reversed $151 $-1 #
coedge $-1 $244 $244 $243 $378 forward $153 $-1 #
coedge $-1 $245 $245 $154 $246 forward $240 $-1 #
edge $-1 $379 8.2365422287850405e-016 $379 6.2831853071796013 $245 $380 forward 7 unknown #
loop $-1 $-1 $252 $155 #
plane-surface $-1 -16.781429534763618 -21.730515969324905 1.5693558381526884 0 -0.57357644374324357 0.81915203911291934 1 0 0 forward_v I I I I #
loop $-1 $-1 $381 $98 #
coedge $-1 $250 $250 $251 $382 reversed $156 $-1 #
coedge $-1 $251 $251 $250 $382 forward $158 $-1 #
coedge $-1 $252 $252 $159 $253 forward $247 $-1 #
edge $-1 $383 8.2365422287850405e-016 $383 6.2831853071796013 $252 $384 forward 7 unknown #
face $-1 $385 $386 $55 $-1 $387 reversed single #
loop $-1 $-1 $388 $160 #
plane-surface $-1 1.7763568394002505e-015 -72.789619861222008 74.489311886850828 1 0 0 0 0.57357644374324357 -0.81915203911291934 forward_v I I I I #
coedge $-1 $389 $390 $391 $392 reversed $161 $-1 #
coedge $-1 $259 $163 $393 $394 reversed $102 $-1 #
coedge $-1 $163 $258 $389 $395 reversed $102 $-1 #
coedge $-1 $391 $396 $163 $261 forward $397 $-1 #
edge $-1 $398 14.664293961286099 $399 21.095072873769624 $260 $400 forward 7 unknown #
loop $-1 $-1 $267 $164 #
plane-surface $-1 5.4732779453230549 -21.730515969324905 1.5693558381526884 0 -0.57357644374324357 0.81915203911291934 1 0 0 forward_v I I I I #
loop $-1 $-1 $401 $104 #
coedge $-1 $265 $265 $266 $402 reversed $165 $-1 #
coedge $-1 $266 $266 $265 $402 forward $167 $-1 #
coedge $-1 $267 $267 $168 $268 forward $262 $-1 #
edge $-1 $403 8.2365422287850405e-016 $403 6.2831853071796013 $267 $404 forward 7 unknown #
loop $-1 $-1 $274 $169 #
plane-surface $-1 5.4732779453230549 -21.730515969324905 1.5693558381526884 0 -0.57357644374324357 0.81915203911291934 1 0 0 forward_v I I I I #
loop $-1 $-1 $405 $107 #
coedge $-1 $272 $272 $273 $406 reversed $170 $-1 #
coedge $-1 $273 $273 $272 $406 forward $172 $-1 #
coedge $-1 $274 $274 $173 $275 forward $269 $-1 #
edge $-1 $407 8.2365422287850405e-016 $407 6.2831853071796013 $274 $408 forward 7 unknown #
face $-1 $409 $410 $58 $-1 $411 reversed single #
loop $-1 $-1 $412 $174 #
plane-surface $-1 22.254707480086672 -72.789619861222008 74.489311886850828 1 0 0 0 0.57357644374324357 -0.81915203911291934 forward_v I I I I #
coedge $-1 $413 $414 $415 $416 reversed $175 $-1 #
coedge $-1 $281 $177 $417 $418 reversed $111 $-1 #
coedge $-1 $177 $280 $413 $419 reversed $111 $-1 #
coedge $-1 $415 $420 $177 $283 forward $421 $-1 #
edge $-1 $422 14.664293961286099 $423 21.095072873769624 $282 $424 forward 7 unknown #
loop $-1 $-1 $289 $178 #
plane-surface $-1 27.727985425409727 -21.730515969324905 1.5693558381526884 0 -0.57357644374324357 0.81915203911291934 1 0 0 forward_v I I I I #
loop $-1 $-1 $425 $113 #
coedge $-1 $287 $287 $288 $426 reversed $179 $-1 #
coedge $-1 $288 $288 $287 $426 forward $181 $-1 #
coedge $-1 $289 $289 $182 $290 forward $284 $-1 #
edge $-1 $427 8.2365422287850405e-016 $427 6.2831853071796013 $289 $428 forward 7 unknown #
loop $-1 $-1 $296 $183 #
plane-surface $-1 27.727985425409727 -21.730515969324905 1.5693558381526884 0 -0.57357644374324357 0.81915203911291934 1 0 0 forward_v I I I I #
loop $-1 $-1 $429 $116 #
coedge $-1 $294 $294 $295 $430 reversed $184 $-1 #
coedge $-1 $295 $295 $294 $430 forward $186 $-1 #
coedge $-1 $296 $296 $187 $297 forward $291 $-1 #
edge $-1 $431 8.2365422287850405e-016 $431 6.2831853071796013 $296 $432 forward 7 unknown #
face $-1 $433 $434 $61 $-1 $435 forward single #
loop $-1 $-1 $436 $188 #
plane-surface $-1 20.634630633903466 40.593862677045664 98.324059455970001 -1 0 0 0 0.6018150307709319 0.79863550430605224 forward_v I I I I #
coedge $-1 $437 $438 $439 $440 reversed $189 $-1 #
coedge $-1 $303 $191 $441 $442 reversed $120 $-1 #
coedge $-1 $191 $302 $437 $443 reversed $120 $-1 #
coedge $-1 $439 $444 $191 $305 forward $434 $-1 #
edge $-1 $445 -1.4335846308020734 $446 5.1980254568142108 $304 $447 forward 7 unknown #
loop $-1 $-1 $311 $192 #
plane-surface $-1 12.192281168924268 -12.979007190660134 27.230461329799226 0 0.6018150307709319 0.79863550430605224 1 0 0 forward_v I I I I #
loop $-1 $-1 $448 $122 #
coedge $-1 $309 $309 $310 $449 reversed $193 $-1 #
coedge $-1 $310 $310 $309 $449 forward $195 $-1 #
coedge $-1 $311 $311 $196 $312 forward $306 $-1 #
edge $-1 $450 -1.1373928432149164e-015 $450 6.2831853071795996 $311 $451 forward 7 unknown #
loop $-1 $-1 $318 $197 #
plane-surface $-1 12.192281168924268 -12.979007190660134 27.230461329799226 0 0.6018150307709319 0.79863550430605224 1 0 0 forward_v I I I I #
loop $-1 $-1 $452 $125 #
coedge $-1 $316 $316 $317 $453 reversed $198 $-1 #
coedge $-1 $317 $317 $316 $453 forward $200 $-1 #
coedge $-1 $318 $318 $201 $319 forward $313 $-1 #
edge $-1 $454 -1.1373928432149164e-015 $454 6.2831853071795996 $318 $455 forward 7 unknown #
face $-1 $456 $457 $48 $-1 $458 reversed single #
loop $-1 $-1 $459 $202 #
plane-surface $-1 -44.509414960173345 0 0 1 0 0 0 0 -1 forward_v I I I I #
coedge $-1 $460 $331 $461 $462 forward $203 $-1 #
coedge $-1 $463 $205 $460 $464 forward $129 $-1 #
coedge $-1 $205 $463 $465 $466 forward $129 $-1 #
coedge $-1 $334 $333 $205 $327 reversed $335 $-1 #
edge $-1 $467 -21.730515969324905 $468 21.730515969324905 $326 $469 forward 7 unknown #
coedge $-1 $207 $206 $470 $471 forward $81 $-1 #
coedge $-1 $472 $473 $206 $330 reversed $457 $-1 #
edge $-1 $337 -44.509414960173345 $474 44.509414960173345 $329 $475 forward 7 unknown #
coedge $-1 $323 $476 $207 $332 reversed $203 $-1 #
edge $-1 $477 -44.509414960173345 $336 44.509414960173345 $331 $478 forward 7 unknown #
coedge $-1 $326 $208 $476 $479 forward $335 $-1 #
coedge $-1 $208 $326 $472 $480 reversed $335 $-1 #
loop $-1 $-1 $333 $456 #
vertex $-1 $209 $481 #
vertex $-1 $209 $482 #
straight-curve $-1 44.509414960173345 0 6.0722357957192505 0 1 0 I I #
face $-1 $-1 $483 $49 $-1 $484 reversed single #
loop $-1 $-1 $485 $210 #
plane-surface $-1 -44.509414960173345 0 0 1 0 0 0 0 -1 forward_v I I I I #
coedge $-1 $486 $213 $215 $348 forward $133 $-1 #
coedge $-1 $213 $486 $485 $487 reversed $133 $-1 #
coedge $-1 $488 $216 $213 $345 forward $211 $-1 #
edge $-1 $351 14.04479056210209 $489 24.9913464527482 $344 $490 forward 7 unknown #
coedge $-1 $491 $492 $214 $347 forward $483 $-1 #
edge $-1 $493 -35.675300105272726 $350 -31.172420147706163 $346 $494 forward 7 unknown #
edge $-1 $351 -7.8505315319089988 $493 0 $215 $495 forward 7 unknown #
coedge $-1 $216 $488 $491 $496 forward $211 $-1 #
vertex $-1 $347 $497 #
vertex $-1 $217 $498 #
straight-curve $-1 -33.562859069527235 -36.394809930611004 6.0722357957192514 0 1 0 I I #
coedge $-1 $353 $353 $-1 $499 reversed $220 $-1 #
edge $-1 $500 0 $500 6.2831853071796004 $221 $501 forward 7 unknown #
vertex $-1 $224 $502 #
ellipse-curve $-1 -41.381827562845885 -18.515126513083139 3.8207958169359717 0 -0.57357644374324357 0.81915203911291934 1.5 0 0 1 I I #
coedge $-1 $357 $357 $-1 $503 reversed $227 $-1 #
edge $-1 $504 0 $504 6.2831853071796004 $228 $505 forward 7 unknown #
vertex $-1 $231 $506 #
ellipse-curve $-1 -36.690446466854695 -18.515126513083139 3.8207958169359717 0 -0.57357644374324357 0.81915203911291934 1.5 0 0 1 I I #
face $-1 $-1 $373 $52 $-1 $507 forward single #
loop $-1 $-1 $508 $232 #
plane-surface $-1 0 -21.730515969324905 0 0 1 0 0 0 1 forward_v I I I I #
coedge $-1 $509 $510 $511 $512 reversed $233 $-1 #
coedge $-1 $513 $235 $237 $371 forward $147 $-1 #
coedge $-1 $235 $513 $509 $514 forward $147 $-1 #
coedge $-1 $511 $238 $235 $368 forward $373 $-1 #
edge $-1 $375 2.9174368220587557 $515 13.863992712704864 $367 $516 forward 7 unknown #
coedge $-1 $517 $518 $236 $370 forward $362 $-1 #
edge $-1 $519 -35.675300105272726 $374 -31.172420147706163 $369 $520 forward 7 unknown #
edge $-1 $375 -7.8505315319089988 $519 0 $237 $521 forward 7 unknown #
coedge $-1 $238 $511 $517 $522 forward $373 $-1 #
loop $-1 $-1 $511 $361 #
vertex $-1 $370 $523 #
vertex $-1 $239 $524 #
straight-curve $-1 -11.308151589440564 -36.394809930611004 6.0722357957192514 0 1 0 I I #
coedge $-1 $377 $377 $-1 $525 reversed $242 $-1 #
edge $-1 $526 0 $526 6.2831853071796004 $243 $527 forward 7 unknown #
vertex $-1 $246 $528 #
ellipse-curve $-1 -19.127120082759212 -18.515126513083139 3.8207958169359717 0 -0.57357644374324357 0.81915203911291934 1.5 0 0 1 I I #
coedge $-1 $381 $381 $-1 $529 reversed $249 $-1 #
edge $-1 $530 0 $530 6.2831853071796004 $250 $531 forward 7 unknown #
vertex $-1 $253 $532 #
ellipse-curve $-1 -14.435738986768026 -18.515126513083139 3.8207958169359717 0 -0.57357644374324357 0.81915203911291934 1.5 0 0 1 I I #
face $-1 $-1 $397 $55 $-1 $533 forward single #
loop $-1 $-1 $534 $254 #
plane-surface $-1 0 -21.730515969324905 0 0 1 0 0 0 1 forward_v I I I I #
coedge $-1 $535 $536 $537 $538 reversed $255 $-1 #
coedge $-1 $539 $257 $259 $395 forward $161 $-1 #
coedge $-1 $257 $539 $535 $540 forward $161 $-1 #
coedge $-1 $537 $260 $257 $392 forward $397 $-1 #
edge $-1 $399 -8.2099169179845806 $541 2.7366389726615257 $391 $542 forward 7 unknown #
coedge $-1 $543 $544 $258 $394 forward $386 $-1 #
edge $-1 $545 -35.675300105272726 $398 -31.172420147706163 $393 $546 forward 7 unknown #
edge $-1 $399 -7.8505315319089988 $545 0 $259 $547 forward 7 unknown #
coedge $-1 $260 $537 $543 $548 forward $397 $-1 #
loop $-1 $-1 $537 $385 #
vertex $-1 $394 $549 #
vertex $-1 $261 $550 #
straight-curve $-1 10.946555890646108 -36.394809930611004 6.0722357957192514 0 1 0 I I #
coedge $-1 $401 $401 $-1 $551 reversed $264 $-1 #
edge $-1 $552 0 $552 6.2831853071796004 $265 $553 forward 7 unknown #
vertex $-1 $268 $554 #
ellipse-curve $-1 3.1275873973274599 -18.515126513083139 3.8207958169359717 0 -0.57357644374324357 0.81915203911291934 1.5 0 0 1 I I #
coedge $-1 $405 $405 $-1 $555 reversed $271 $-1 #
edge $-1 $556 0 $556 6.2831853071796004 $272 $557 forward 7 unknown #
vertex $-1 $275 $558 #
ellipse-curve $-1 7.8189684933186498 -18.515126513083139 3.8207958169359717 0 -0.57357644374324357 0.81915203911291934 1.5 0 0 1 I I #
face $-1 $-1 $421 $58 $-1 $559 forward single #
loop $-1 $-1 $560 $276 #
plane-surface $-1 0 -21.730515969324905 0 0 1 0 0 0 1 forward_v I I I I #
coedge $-1 $561 $562 $563 $564 reversed $277 $-1 #
coedge $-1 $565 $279 $281 $419 forward $175 $-1 #
coedge $-1 $279 $565 $561 $566 forward $175 $-1 #
coedge $-1 $563 $282 $279 $416 forward $421 $-1 #
edge $-1 $423 -19.337270658027919 $567 -8.3907147673818088 $415 $568 forward 7 unknown #
coedge $-1 $569 $570 $280 $418 forward $410 $-1 #
edge $-1 $571 -35.675300105272726 $422 -31.172420147706163 $417 $572 forward 7 unknown #
edge $-1 $423 -7.8505315319089988 $571 0 $281 $573 forward 7 unknown #
coedge $-1 $282 $563 $569 $574 forward $421 $-1 #
loop $-1 $-1 $563 $409 #
vertex $-1 $418 $575 #
vertex $-1 $283 $576 #
straight-curve $-1 33.201263370732782 -36.394809930611004 6.0722357957192514 0 1 0 I I #
coedge $-1 $425 $425 $-1 $577 reversed $286 $-1 #
edge $-1 $578 0 $578 6.2831853071796004 $287 $579 forward 7 unknown #
vertex $-1 $290 $580 #
ellipse-curve $-1 25.382294877414139 -18.515126513083139 3.8207958169359717 0 -0.57357644374324357 0.81915203911291934 1.5 0 0 1 I I #
coedge $-1 $429 $429 $-1 $581 reversed $293 $-1 #
edge $-1 $582 0 $582 6.2831853071796004 $294 $583 forward 7 unknown #
vertex $-1 $297 $584 #
ellipse-curve $-1 30.073675973405315 -18.515126513083139 3.8207958169359717 0 -0.57357644374324357 0.81915203911291934 1.5 0 0 1 I I #
face $-1 $-1 $585 $61 $-1 $586 reversed single #
loop $-1 $-1 $304 $298 #
plane-surface $-1 0 0 6.0722357957192505 0 0 1 1 0 0 forward_v I I I I #
coedge $-1 $587 $588 $589 $590 reversed $299 $-1 #
coedge $-1 $591 $301 $303 $443 forward $189 $-1 #
coedge $-1 $301 $591 $587 $592 forward $189 $-1 #
coedge $-1 $589 $304 $301 $440 forward $434 $-1 #
edge $-1 $446 -2.3462088805170644 $593 14.538490049441332 $439 $594 forward 7 unknown #
coedge $-1 $595 $596 $302 $442 forward $585 $-1 #
edge $-1 $597 -48.08707067168077 $445 -43.089793932265749 $441 $598 forward 7 unknown #
edge $-1 $446 35.157356417263372 $597 43.461031938649818 $303 $599 forward 7 unknown #
coedge $-1 $304 $589 $595 $600 forward $434 $-1 #
vertex $-1 $442 $601 #
vertex $-1 $305 $602 #
straight-curve $-1 3.7499317039450695 20.296931338522832 6.0722357957192514 0 -1 0 I I #
coedge $-1 $448 $448 $-1 $603 reversed $308 $-1 #
edge $-1 $604 0 $604 6.2831853071796004 $309 $605 forward 7 unknown #
vertex $-1 $312 $606 #
ellipse-curve $-1 8.5741313982189027 18.414710925516768 3.5735974260117382 0 0.6018150307709319 0.79863550430605224 1.5 0 0 1 I I #
coedge $-1 $452 $452 $-1 $607 reversed $315 $-1 #
edge $-1 $608 0 $608 6.2831853071796004 $316 $609 forward 7 unknown #
vertex $-1 $319 $610 #
ellipse-curve $-1 15.810430939629647 18.414710925516768 3.5735974260117382 0 0.6018150307709319 0.79863550430605224 1.5 0 0 1 I I #
face $-1 $-1 $335 $48 $-1 $611 reversed single #
loop $-1 $-1 $472 $320 #
plane-surface $-1 0 21.730515969324905 0 0 -1 0 0 0 -1 forward_v I I I I #
coedge $-1 $612 $470 $473 $613 forward $321 $-1 #
coedge $-1 $476 $323 $324 $464 reversed $203 $-1 #
coedge $-1 $470 $612 $323 $462 reversed $321 $-1 #
edge $-1 $477 -6.0722357957192505 $614 6.0722357957192505 $461 $615 forward 7 unknown #
coedge $-1 $325 $324 $612 $616 forward $129 $-1 #
edge $-1 $468 -44.509414960173345 $614 44.509414960173345 $460 $617 forward 7 unknown #
coedge $-1 $473 $472 $325 $466 reversed $457 $-1 #
edge $-1 $618 -44.509414960173345 $467 44.509414960173345 $465 $619 forward 7 unknown #
vertex $-1 $327 $620 #
vertex $-1 $479 $621 #
straight-curve $-1 44.509414960173345 0 -6.0722357957192505 0 -1 0 I I #
coedge $-1 $459 $461 $328 $471 reversed $321 $-1 #
edge $-1 $474 -21.730515969324905 $477 21.730515969324905 $470 $622 forward 7 unknown #
coedge $-1 $465 $329 $334 $480 forward $457 $-1 #
coedge $-1 $329 $465 $459 $613 reversed $457 $-1 #
vertex $-1 $330 $623 #
straight-curve $-1 0 21.730515969324905 6.0722357957192505 -1 0 0 I I #
coedge $-1 $331 $460 $333 $479 reversed $203 $-1 #
vertex $-1 $471 $624 #
straight-curve $-1 0 -21.730515969324905 6.0722357957192505 1 0 0 I I #
edge $-1 $336 -6.0722357957192505 $468 6.0722357957192505 $333 $625 forward 7 unknown #
edge $-1 $337 -6.0722357957192505 $467 6.0722357957192505 $334 $626 forward 7 unknown #
point $-1 44.509414960173345 -21.730515969324905 6.0722357957192505 #
point $-1 44.509414960173345 21.730515969324905 6.0722357957192505 #
loop $-1 $-1 $346 $339 #
plane-surface $-1 0 -21.730515969324905 0 0 1 0 0 0 1 forward_v I I I I #
coedge $-1 $627 $628 $343 $487 forward $340 $-1 #
coedge $-1 $343 $342 $492 $629 reversed $133 $-1 #
edge $-1 $489 0.59969393140751837 $630 8.4502254633165172 $485 $631 forward 7 unknown #
coedge $-1 $349 $344 $628 $632 forward $211 $-1 #
vertex $-1 $632 $633 #
straight-curve $-1 -19.518068507425145 -15.299737056841376 6.0722357957192505 -1 0 0 I I #
coedge $-1 $634 $346 $349 $496 reversed $483 $-1 #
coedge $-1 $346 $634 $486 $629 forward $483 $-1 #
vertex $-1 $347 $635 #
straight-curve $-1 -33.562859069527235 -21.730515969324905 37.244655943425414 0 0 1 I I #
straight-curve $-1 -33.562859069527235 -21.730515969324905 1.5693558381526884 0 -0.81915203911291934 -0.57357644374324357 I I #
edge $-1 $636 -44.509414960173345 $350 -33.562859069527235 $491 $637 forward 7 unknown #
point $-1 -33.562859069527235 -21.730515969324905 6.0722357957192505 #
point $-1 -33.562859069527235 -15.299737056841378 6.0722357957192505 #
edge $-1 $638 1 $638 0 $353 $-1 forward 7 unknown #
vertex $-1 $354 $639 #
ellipse-curve $-1 -41.381827562845885 -17.412067960195152 2.2454649735660919 0 -0.57357644374324357 0.81915203911291934 1.5 0 0 1 I I #
point $-1 -39.881827562845885 -18.515126513083132 3.8207958169359637 #
edge $-1 $640 1 $640 0 $357 $-1 forward 7 unknown #
vertex $-1 $358 $641 #
ellipse-curve $-1 -36.690446466854695 -17.412067960195152 2.2454649735660919 0 -0.57357644374324357 0.81915203911291934 1.5 0 0 1 I I #
point $-1 -35.190446466854695 -18.515126513083132 3.8207958169359637 #
plane-surface $-1 0 0 6.0722357957192505 0 0 1 1 0 0 forward_v I I I I #
coedge $-1 $518 $517 $510 $642 forward $362 $-1 #
coedge $-1 $510 $364 $366 $514 reversed $233 $-1 #
coedge $-1 $364 $509 $508 $642 reversed $233 $-1 #
coedge $-1 $372 $367 $364 $512 forward $373 $-1 #
edge $-1 $515 -21.095072873769624 $643 -14.664293961286099 $511 $644 forward 7 unknown #
coedge $-1 $366 $365 $518 $645 reversed $147 $-1 #
edge $-1 $646 0 $515 7.8505315319089988 $509 $647 forward 7 unknown #
vertex $-1 $368 $648 #
straight-curve $-1 -8.3907147673818088 -15.299737056841376 6.0722357957192505 -1 0 0 I I #
coedge $-1 $508 $369 $372 $522 reversed $362 $-1 #
coedge $-1 $369 $508 $513 $645 forward $362 $-1 #
vertex $-1 $370 $649 #
straight-curve $-1 -11.308151589440564 -21.730515969324905 37.244655943425414 0 0 1 I I #
straight-curve $-1 -11.308151589440564 -21.730515969324905 1.5693558381526884 0 -0.81915203911291934 -0.57357644374324357 I I #
edge $-1 $643 -22.254707480086672 $374 -11.308151589440564 $517 $650 forward 7 unknown #
point $-1 -11.308151589440564 -21.730515969324905 6.0722357957192505 #
point $-1 -11.308151589440564 -15.299737056841378 6.0722357957192505 #
edge $-1 $651 1 $651 0 $377 $-1 forward 7 unknown #
vertex $-1 $378 $652 #
ellipse-curve $-1 -19.127120082759212 -17.412067960195152 2.2454649735660919 0 -0.57357644374324357 0.81915203911291934 1.5 0 0 1 I I #
point $-1 -17.627120082759212 -18.515126513083132 3.8207958169359637 #
edge $-1 $653 1 $653 0 $381 $-1 forward 7 unknown #
vertex $-1 $382 $654 #
ellipse-curve $-1 -14.435738986768026 -17.412067960195152 2.2454649735660919 0 -0.57357644374324357 0.81915203911291934 1.5 0 0 1 I I #
point $-1 -12.935738986768026 -18.515126513083132 3.8207958169359637 #
plane-surface $-1 0 0 6.0722357957192505 0 0 1 1 0 0 forward_v I I I I #
coedge $-1 $544 $543 $536 $655 forward $386 $-1 #
coedge $-1 $536 $388 $390 $540 reversed $255 $-1 #
coedge $-1 $388 $535 $534 $655 reversed $255 $-1 #
coedge $-1 $396 $391 $388 $538 forward $397 $-1 #
edge $-1 $541 -21.095072873769624 $656 -14.664293961286099 $537 $657 forward 7 unknown #
coedge $-1 $390 $389 $544 $658 reversed $161 $-1 #
edge $-1 $659 0 $541 7.8505315319089988 $535 $660 forward 7 unknown #
vertex $-1 $392 $661 #
straight-curve $-1 2.7366389726615274 -15.299737056841376 6.0722357957192505 -1 0 0 I I #
coedge $-1 $534 $393 $396 $548 reversed $386 $-1 #
coedge $-1 $393 $534 $539 $658 forward $386 $-1 #
vertex $-1 $394 $662 #
straight-curve $-1 10.946555890646108 -21.730515969324905 37.244655943425414 0 0 1 I I #
straight-curve $-1 10.946555890646108 -21.730515969324905 1.5693558381526884 0 -0.81915203911291934 -0.57357644374324357 I I #
edge $-1 $656 1.7763568394002505e-015 $398 10.946555890646108 $543 $663 forward 7 unknown #
point $-1 10.946555890646108 -21.730515969324905 6.0722357957192505 #
point $-1 10.946555890646108 -15.299737056841378 6.0722357957192505 #
edge $-1 $664 1 $664 0 $401 $-1 forward 7 unknown #
vertex $-1 $402 $665 #
ellipse-curve $-1 3.1275873973274599 -17.412067960195152 2.2454649735660919 0 -0.57357644374324357 0.81915203911291934 1.5 0 0 1 I I #
point $-1 4.6275873973274599 -18.515126513083132 3.8207958169359637 #
edge $-1 $666 1 $666 0 $405 $-1 forward 7 unknown #
vertex $-1 $406 $667 #
ellipse-curve $-1 7.8189684933186498 -17.412067960195152 2.2454649735660919 0 -0.57357644374324357 0.81915203911291934 1.5 0 0 1 I I #
point $-1 9.3189684933186498 -18.515126513083132 3.8207958169359637 #
plane-surface $-1 0 0 6.0722357957192505 0 0 1 1 0 0 forward_v I I I I #
coedge $-1 $570 $569 $562 $668 forward $410 $-1 #
coedge $-1 $562 $412 $414 $566 reversed $277 $-1 #
coedge $-1 $412 $561 $560 $668 reversed $277 $-1 #
coedge $-1 $420 $415 $412 $564 forward $421 $-1 #
edge $-1 $567 -21.095072873769624 $669 -14.664293961286099 $563 $670 forward 7 unknown #
coedge $-1 $414 $413 $570 $671 reversed $175 $-1 #
edge $-1 $672 0 $567 7.8505315319089988 $561 $673 forward 7 unknown #
vertex $-1 $416 $674 #
straight-curve $-1 13.863992712704864 -15.299737056841376 6.0722357957192505 -1 0 0 I I #
coedge $-1 $560 $417 $420 $574 reversed $410 $-1 #
coedge $-1 $417 $560 $565 $671 forward $410 $-1 #
vertex $-1 $418 $675 #
straight-curve $-1 33.201263370732782 -21.730515969324905 37.244655943425414 0 0 1 I I #
straight-curve $-1 33.201263370732782 -21.730515969324905 1.5693558381526884 0 -0.81915203911291934 -0.57357644374324357 I I #
edge $-1 $669 22.254707480086672 $422 33.201263370732782 $569 $676 forward 7 unknown #
point $-1 33.201263370732782 -21.730515969324905 6.0722357957192505 #
point $-1 33.201263370732782 -15.299737056841378 6.0722357957192505 #
edge $-1 $677 1 $677 0 $425 $-1 forward 7 unknown #
vertex $-1 $426 $678 #
ellipse-curve $-1 25.382294877414139 -17.412067960195152 2.2454649735660919 0 -0.57357644374324357 0.81915203911291934 1.5 0 0 1 I I #
point $-1 26.882294877414139 -18.515126513083132 3.8207958169359637 #
edge $-1 $679 1 $679 0 $429 $-1 forward 7 unknown #
vertex $-1 $430 $680 #
ellipse-curve $-1 30.073675973405315 -17.412067960195152 2.2454649735660919 0 -0.57357644374324357 0.81915203911291934 1.5 0 0 1 I I #
point $-1 31.573675973405315 -18.515126513083132 3.8207958169359637 #
loop $-1 $-1 $441 $433 #
plane-surface $-1 0 21.730515969324905 0 0 -1 0 0 0 -1 forward_v I I I I #
coedge $-1 $588 $436 $438 $592 reversed $299 $-1 #
coedge $-1 $436 $587 $681 $682 reversed $299 $-1 #
coedge $-1 $444 $439 $436 $590 forward $434 $-1 #
edge $-1 $593 -5.1980254568142108 $683 1.4335846308020734 $589 $684 forward 7 unknown #
coedge $-1 $438 $437 $596 $685 reversed $189 $-1 #
edge $-1 $686 -43.461031938649818 $593 -35.157356417263372 $587 $687 forward 7 unknown #
vertex $-1 $440 $688 #
straight-curve $-1 6.0961405844621339 15.098905881708623 6.0722357957192497 1 0 0 I I #
coedge $-1 $681 $441 $444 $600 reversed $585 $-1 #
coedge $-1 $441 $681 $591 $685 forward $585 $-1 #
vertex $-1 $442 $689 #
straight-curve $-1 3.7499317039450695 21.730515969324905 49.162029727985001 0 0 1 I I #
straight-curve $-1 3.7499317039450695 -12.979007190660134 27.230461329799226 0 0.79863550430605224 -0.6018150307709319 I I #
edge $-1 $683 -20.634630633903466 $445 -3.7499317039450695 $595 $690 forward 7 unknown #
point $-1 3.7499317039450695 21.730515969324905 6.0722357957192505 #
point $-1 3.7499317039450695 15.098905881708621 6.0722357957192479 #
edge $-1 $691 1 $691 0 $448 $-1 forward 7 unknown #
vertex $-1 $449 $692 #
ellipse-curve $-1 8.5741313982189027 16.322748468781647 0.79746953587948988 0 0.6018150307709319 0.79863550430605224 1.5 0 0 1 I I #
point $-1 10.074131398218903 18.414710925516772 3.5735974260117458 #
edge $-1 $693 1 $693 0 $452 $-1 forward 7 unknown #
vertex $-1 $453 $694 #
ellipse-curve $-1 15.810430939629647 16.322748468781647 0.79746953587948988 0 0.6018150307709319 0.79863550430605224 1.5 0 0 1 I I #
point $-1 17.310430939629647 18.414710925516772 3.5735974260117458 #
plane-surface $-1 44.509414960173345 0 0 -1 0 0 0 0 1 forward_v I I I I #
coedge $-1 $461 $459 $463 $616 reversed $321 $-1 #
edge $-1 $474 -6.0722357957192505 $618 6.0722357957192505 $473 $695 forward 7 unknown #
vertex $-1 $616 $696 #
straight-curve $-1 -44.509414960173345 -21.730515969324905 0 0 0 -1 I I #
edge $-1 $614 -21.730515969324905 $618 21.730515969324905 $612 $697 forward 7 unknown #
straight-curve $-1 0 -21.730515969324905 -6.0722357957192505 -1 0 0 I I #
vertex $-1 $466 $698 #
straight-curve $-1 0 21.730515969324905 -6.0722357957192505 1 0 0 I I #
point $-1 44.509414960173345 21.730515969324905 -6.0722357957192505 #
point $-1 44.509414960173345 -21.730515969324905 -6.0722357957192505 #
straight-curve $-1 -44.509414960173345 0 6.0722357957192505 0 -1 0 I I #
point $-1 -44.509414960173345 21.730515969324905 6.0722357957192505 #
point $-1 -44.509414960173345 -21.730515969324905 6.0722357957192505 #
straight-curve $-1 44.509414960173345 -21.730515969324905 0 0 0 -1 I I #
straight-curve $-1 44.509414960173345 21.730515969324905 0 0 0 -1 I I #
coedge $-1 $628 $485 $634 $699 reversed $340 $-1 #
coedge $-1 $485 $627 $488 $632 reversed $340 $-1 #
edge $-1 $630 -24.9913464527482 $493 -14.04479056210209 $492 $700 forward 7 unknown #
vertex $-1 $487 $701 #
straight-curve $-1 -44.509414960173345 -14.808496550085266 6.4162061082303792 0 -0.81915203911291934 -0.57357644374324357 I I #
edge $-1 $489 15.299737056841378 $636 21.730515969324905 $628 $702 forward 7 unknown #
point $-1 -44.509414960173345 -15.299737056841378 6.0722357957192505 #
coedge $-1 $492 $491 $627 $699 forward $483 $-1 #
point $-1 -33.562859069527235 -21.730515969324905 1.5693558381526884 #
vertex $-1 $632 $703 #
straight-curve $-1 0 -21.730515969324905 6.0722357957192505 1 0 0 I I #
vertex $-1 $499 $704 #
point $-1 -39.881827562845885 -17.412067960195152 2.2454649735660919 #
vertex $-1 $503 $705 #
point $-1 -35.190446466854695 -17.412067960195152 2.2454649735660919 #
edge $-1 $643 31.172420147706163 $646 35.675300105272726 $508 $706 forward 7 unknown #
vertex $-1 $522 $707 #
straight-curve $-1 -22.254707480086672 -36.394809930611004 6.0722357957192514 0 -1 0 I I #
edge $-1 $646 -13.863992712704864 $519 -2.9174368220587557 $518 $708 forward 7 unknown #
vertex $-1 $645 $709 #
straight-curve $-1 -22.254707480086672 -21.730515969324905 1.5693558381526884 0 0.81915203911291934 0.57357644374324357 I I #
point $-1 -22.254707480086672 -15.299737056841378 6.0722357957192505 #
point $-1 -11.308151589440564 -21.730515969324905 1.5693558381526884 #
straight-curve $-1 0 -21.730515969324905 6.0722357957192505 1 0 0 I I #
vertex $-1 $525 $710 #
point $-1 -17.627120082759212 -17.412067960195152 2.2454649735660919 #
vertex $-1 $529 $711 #
point $-1 -12.935738986768026 -17.412067960195152 2.2454649735660919 #
edge $-1 $656 31.172420147706163 $659 35.675300105272726 $534 $712 forward 7 unknown #
vertex $-1 $548 $713 #
straight-curve $-1 1.7763568394002505e-015 -36.394809930611004 6.0722357957192514 0 -1 0 I I #
edge $-1 $659 -2.7366389726615257 $545 8.2099169179845806 $544 $714 forward 7 unknown #
vertex $-1 $658 $715 #
straight-curve $-1 1.7763568394002505e-015 -21.730515969324905 1.5693558381526884 0 0.81915203911291934 0.57357644374324357 I I #
point $-1 1.7763568394002505e-015 -15.299737056841378 6.0722357957192505 #
point $-1 10.946555890646108 -21.730515969324905 1.5693558381526884 #
straight-curve $-1 0 -21.730515969324905 6.0722357957192505 1 0 0 I I #
vertex $-1 $551 $716 #
point $-1 4.6275873973274599 -17.412067960195152 2.2454649735660919 #
vertex $-1 $555 $717 #
point $-1 9.3189684933186498 -17.412067960195152 2.2454649735660919 #
edge $-1 $669 31.172420147706163 $672 35.675300105272726 $560 $718 forward 7 unknown #
vertex $-1 $574 $719 #
straight-curve $-1 22.254707480086672 -36.394809930611004 6.0722357957192514 0 -1 0 I I #
edge $-1 $672 8.3907147673818088 $571 19.337270658027919 $570 $720 forward 7 unknown #
vertex $-1 $671 $721 #
straight-curve $-1 22.254707480086672 -21.730515969324905 1.5693558381526884 0 0.81915203911291934 0.57357644374324357 I I #
point $-1 22.254707480086672 -15.299737056841378 6.0722357957192505 #
point $-1 33.201263370732782 -21.730515969324905 1.5693558381526884 #
straight-curve $-1 0 -21.730515969324905 6.0722357957192505 1 0 0 I I #
vertex $-1 $577 $722 #
point $-1 26.882294877414139 -17.412067960195152 2.2454649735660919 #
vertex $-1 $581 $723 #
point $-1 31.573675973405315 -17.412067960195152 2.2454649735660919 #
coedge $-1 $596 $595 $588 $682 forward $585 $-1 #
edge $-1 $683 43.089793932265749 $686 48.08707067168077 $681 $724 forward 7 unknown #
vertex $-1 $600 $725 #
straight-curve $-1 20.634630633903466 20.296931338522832 6.0722357957192514 0 1 0 I I #
edge $-1 $686 -14.538490049441332 $597 2.3462088805170644 $596 $726 forward 7 unknown #
vertex $-1 $685 $727 #
straight-curve $-1 20.634630633903466 -12.979007190660134 27.230461329799226 0 -0.79863550430605224 0.6018150307709319 I I #
point $-1 20.634630633903466 15.098905881708621 6.0722357957192479 #
point $-1 3.7499317039450695 21.730515969324905 1.0749590563042304 #
straight-curve $-1 0 21.730515969324905 6.0722357957192505 -1 0 0 I I #
vertex $-1 $603 $728 #
point $-1 10.074131398218903 16.322748468781647 0.79746953587948988 #
vertex $-1 $607 $729 #
point $-1 17.310430939629647 16.322748468781647 0.79746953587948988 #
straight-curve $-1 -44.509414960173345 21.730515969324905 0 0 0 -1 I I #
point $-1 -44.509414960173345 -21.730515969324905 -6.0722357957192505 #
straight-curve $-1 -44.509414960173345 0 -6.0722357957192505 0 1 0 I I #
point $-1 -44.509414960173345 21.730515969324905 -6.0722357957192505 #
edge $-1 $636 -6.0722357957192505 $630 -1.5693558381526884 $627 $730 forward 7 unknown #
straight-curve $-1 -19.518068507425145 -21.730515969324905 1.5693558381526878 1 0 0 I I #
point $-1 -44.509414960173345 -21.730515969324905 1.5693558381526884 #
straight-curve $-1 -44.509414960173345 0 6.0722357957192505 0 -1 0 I I #
point $-1 -44.509414960173345 -21.730515969324905 6.0722357957192505 #
point $-1 -41.381827562845885 -16.551703294580285 1.0167369148967129 #
point $-1 -36.690446466854695 -16.551703294580285 1.0167369148967129 #
straight-curve $-1 -22.254707480086672 -21.730515969324905 37.244655943425414 0 0 -1 I I #
point $-1 -22.254707480086672 -21.730515969324905 6.0722357957192505 #
straight-curve $-1 -8.3907147673818088 -21.730515969324905 1.5693558381526878 1 0 0 I I #
point $-1 -22.254707480086672 -21.730515969324905 1.5693558381526884 #
point $-1 -19.127120082759212 -16.551703294580285 1.0167369148967129 #
point $-1 -14.435738986768026 -16.551703294580285 1.0167369148967129 #
straight-curve $-1 1.7763568394002505e-015 -21.730515969324905 37.244655943425414 0 0 -1 I I #
point $-1 1.7763568394002505e-015 -21.730515969324905 6.0722357957192505 #
straight-curve $-1 2.7366389726615274 -21.730515969324905 1.5693558381526878 1 0 0 I I #
point $-1 1.7763568394002505e-015 -21.730515969324905 1.5693558381526884 #
point $-1 3.1275873973274599 -16.551703294580285 1.0167369148967129 #
point $-1 7.8189684933186498 -16.551703294580285 1.0167369148967129 #
straight-curve $-1 22.254707480086672 -21.730515969324905 37.244655943425414 0 0 -1 I I #
point $-1 22.254707480086672 -21.730515969324905 6.0722357957192505 #
straight-curve $-1 13.863992712704864 -21.730515969324905 1.5693558381526878 1 0 0 I I #
point $-1 22.254707480086672 -21.730515969324905 1.5693558381526884 #
point $-1 25.382294877414139 -16.551703294580285 1.0167369148967129 #
point $-1 30.073675973405315 -16.551703294580285 1.0167369148967129 #
straight-curve $-1 20.634630633903466 21.730515969324905 49.162029727985001 0 0 -1 I I #
point $-1 20.634630633903466 21.730515969324905 6.0722357957192505 #
straight-curve $-1 6.0961405844621339 21.730515969324905 1.0749590563042322 -1 0 0 I I #
point $-1 20.634630633903466 21.730515969324905 1.0749590563042304 #
point $-1 8.5741313982189027 15.42002592262525 -0.40048372057958859 #
point $-1 15.810430939629647 15.42002592262525 -0.40048372057958859 #
straight-curve $-1 -44.509414960173345 -21.730515969324905 0 0 0 -1 I I #
End-of-ACIS-data 