500 0 7 0           
7 Unknown 11 ACIS 5.0 NT 24 Thu Mar 25 16:18:48 1999 
-1 9.9999999999999995e-007 1e-010 
body $-1 $7 $-1 $8 #
body $-1 $9 $-1 $10 #
body $-1 $11 $-1 $12 #
body $-1 $13 $-1 $14 #
body $-1 $15 $-1 $16 #
body $-1 $17 $-1 $18 #
body $-1 $19 $-1 $20 #
lump $-1 $-1 $21 $0 #
transform $-1 1 0 0 0 1 0 0 0 1 64.209723197119047 31.847764040544998 14.500077902013448 1 rotate no_reflect no_shear #
lump $-1 $-1 $22 $1 #
transform $-1 1 0 0 0 1 0 0 0 1 64.209723197119047 31.847764040544998 14.500077902013448 1 rotate no_reflect no_shear #
lump $-1 $-1 $23 $2 #
transform $-1 1 0 0 0 1 0 0 0 1 64.209723197119047 31.847764040544998 14.500077902013448 1 rotate no_reflect no_shear #
lump $-1 $-1 $24 $3 #
transform $-1 1 0 0 0 1 0 0 0 1 64.209723197119047 31.847764040544998 14.500077902013448 1 rotate no_reflect no_shear #
lump $-1 $-1 $25 $4 #
transform $-1 1 0 0 0 1 0 0 0 1 64.209723197119047 31.847764040544998 14.500077902013448 1 rotate no_reflect no_shear #
lump $-1 $-1 $26 $5 #
transform $-1 1 0 0 0 1 0 0 0 1 64.209723197119047 31.847764040544998 14.500077902013448 1 rotate no_reflect no_shear #
lump $-1 $-1 $27 $6 #
transform $-1 1 0 0 0 1 0 0 0 1 64.209723197119047 31.847764040544998 14.500077902013448 1 rotate no_reflect no_shear #
shell $-1 $-1 $-1 $28 $-1 $7 #
shell $-1 $-1 $-1 $29 $-1 $9 #
shell $-1 $-1 $-1 $30 $-1 $11 #
shell $-1 $-1 $-1 $31 $-1 $13 #
shell $-1 $-1 $-1 $32 $-1 $15 #
shell $-1 $-1 $-1 $33 $-1 $17 #
shell $-1 $-1 $-1 $34 $-1 $19 #
face $-1 $35 $36 $21 $-1 $37 reversed single #
face $-1 $38 $39 $22 $-1 $40 forward single #
face $-1 $41 $42 $23 $-1 $43 reversed single #
face $-1 $44 $45 $24 $-1 $46 forward single #
face $-1 $47 $48 $25 $-1 $49 forward single #
face $-1 $50 $51 $26 $-1 $52 reversed single #
face $-1 $53 $54 $27 $-1 $55 forward single #
face $-1 $56 $57 $21 $-1 $58 forward single #
loop $-1 $-1 $59 $28 #
plane-surface $-1 0 -31.847764040544998 0 0 1 0 0 0 1 forward_v I I I I #
face $-1 $60 $61 $22 $-1 $62 reversed single #
loop $-1 $-1 $63 $29 #
plane-surface $-1 0 -31.847764040544998 0 0 1 0 0 0 1 forward_v I I I I #
face $-1 $64 $65 $23 $-1 $66 reversed single #
loop $-1 $-1 $67 $30 #
plane-surface $-1 86.342724517220461 2.3906673797665849 190.41363841250424 0 -1 0 -0.78801076186113728 0 -0.61566146476048833 forward_v I I I I #
face $-1 $68 $69 $24 $-1 $70 forward single #
loop $-1 $71 $72 $31 #
cone-surface $-1 61.168140761052555 -4.9688027624517765 11.277294312194355 -0.78801076186113728 0 -0.61566146476048833 0.61566146476048833 0 -0.78801076186113728 1 I I 0 1 1 forward I I I I #
face $-1 $73 $74 $25 $-1 $75 forward single #
loop $-1 $76 $77 $32 #
cone-surface $-1 61.168140761052555 -0.5531206771207593 11.277294312194355 -0.78801076186113728 0 -0.61566146476048833 0.61566146476048833 0 -0.78801076186113728 1 I I 0 1 1 forward I I I I #
face $-1 $78 $79 $26 $-1 $80 reversed single #
loop $-1 $-1 $81 $33 #
plane-surface $-1 -132.26166264213921 -7.01060331500668 111.14432274055279 0 1 0 -0.52991927123019833 0 0.84804809178421925 forward_v I I I I #
face $-1 $82 $83 $27 $-1 $84 forward single #
loop $-1 $85 $86 $34 #
cone-surface $-1 -52.248560891472692 -0.41873210310125231 4.9288451742345734 0.52991927123019833 0 -0.84804809178421925 2.5441442753526577 0 1.589757813690595 1 I I 0 1 3 forward I I I I #
face $-1 $87 $88 $21 $-1 $89 reversed single #
loop $-1 $-1 $90 $35 #
plane-surface $-1 0 0 14.500077902013448 0 0 1 1 0 0 forward_v I I I I #
coedge $-1 $91 $92 $93 $94 reversed $36 $-1 #
face $-1 $95 $96 $22 $-1 $97 reversed single #
loop $-1 $-1 $98 $38 #
plane-surface $-1 0 0 -14.500077902013448 0 0 1 1 0 0 forward_v I I I I #
coedge $-1 $99 $100 $101 $102 forward $39 $-1 #
face $-1 $103 $104 $23 $-1 $105 reversed single #
loop $-1 $-1 $106 $41 #
plane-surface $-1 -14.853181273688577 -2.7609617197862697 111.3507339416966 0.78801076186113728 0 0.61566146476048833 0.61566146476048833 0 -0.78801076186113728 forward_v I I I I #
coedge $-1 $107 $108 $109 $110 reversed $42 $-1 #
face $-1 $-1 $111 $24 $-1 $112 forward single #
loop $-1 $113 $114 $44 #
cone-surface $-1 59.42999348425289 -4.9688027624517765 9.9193048656079519 -0.78801076186113728 0 -0.61566146476048833 0.30783073238024417 0 -0.39400538093056864 1 I I -0.70710678118654746 0.70710678118654746 0.5 forward I I I I #
loop $-1 $-1 $115 $31 #
coedge $-1 $72 $72 $116 $117 reversed $45 $-1 #
face $-1 $-1 $118 $25 $-1 $119 forward single #
loop $-1 $120 $121 $47 #
cone-surface $-1 59.42999348425289 -0.5531206771207593 9.9193048656079519 -0.78801076186113728 0 -0.61566146476048833 0.30783073238024417 0 -0.39400538093056864 1 I I -0.70710678118654746 0.70710678118654746 0.5 forward I I I I #
loop $-1 $-1 $122 $32 #
coedge $-1 $77 $77 $123 $124 reversed $48 $-1 #
face $-1 $125 $126 $26 $-1 $127 reversed single #
loop $-1 $-1 $128 $50 #
plane-surface $-1 -64.209723197119047 -0.41873210310124875 2.2384562779333379 -0.52991927123019833 0 0.84804809178421925 0.84804809178421925 0 0.52991927123019833 forward_v I I I I #
coedge $-1 $129 $130 $131 $132 reversed $51 $-1 #
face $-1 $-1 $133 $27 $-1 $134 forward single #
loop $-1 $135 $136 $53 #
cone-surface $-1 -49.303867732375522 -0.41873210310125231 0.21635112081942331 0.52991927123019833 0 -0.84804809178421925 1.2720721376763289 0 0.79487890684529749 1 I I -0.70710678118654757 0.70710678118654757 1.5 forward I I I I #
loop $-1 $-1 $137 $34 #
coedge $-1 $86 $86 $138 $139 reversed $54 $-1 #
face $-1 $140 $141 $21 $-1 $142 reversed single #
loop $-1 $-1 $143 $56 #
plane-surface $-1 0 0 -14.500077902013448 0 0 1 1 0 0 forward_v I I I I #
coedge $-1 $144 $145 $146 $147 forward $57 $-1 #
coedge $-1 $148 $59 $149 $150 reversed $36 $-1 #
coedge $-1 $59 $148 $151 $152 forward $36 $-1 #
coedge $-1 $153 $143 $59 $94 forward $88 $-1 #
edge $-1 $154 -64.209723197119047 $155 64.209723197119047 $59 $156 forward 7 unknown #
face $-1 $157 $158 $22 $-1 $159 reversed single #
loop $-1 $-1 $160 $60 #
plane-surface $-1 -61.727362926796779 -49.933516896858528 0 0 1 0 0 0 1 forward_v I I I I #
coedge $-1 $161 $162 $100 $163 forward $61 $-1 #
coedge $-1 $164 $63 $165 $166 reversed $39 $-1 #
coedge $-1 $63 $164 $98 $163 reversed $39 $-1 #
coedge $-1 $167 $168 $63 $102 reversed $158 $-1 #
edge $-1 $169 -14.500077902013448 $170 14.500077902013448 $101 $171 forward 7 unknown #
face $-1 $172 $173 $23 $-1 $174 forward single #
loop $-1 $-1 $175 $64 #
plane-surface $-1 86.342724517220461 -7.9125908193391243 190.41363841250424 0 1 0 0.78801076186113728 0 0.61566146476048833 forward_v I I I I #
coedge $-1 $176 $177 $178 $179 reversed $65 $-1 #
coedge $-1 $108 $67 $180 $181 reversed $42 $-1 #
coedge $-1 $67 $107 $176 $182 reversed $42 $-1 #
coedge $-1 $178 $183 $67 $110 forward $173 $-1 #
edge $-1 $184 -21.038360938508816 $185 -17.64347985811402 $109 $186 forward 7 unknown #
loop $-1 $-1 $116 $68 #
plane-surface $-1 -14.853181273688577 -2.7609617197862697 111.3507339416966 0.78801076186113728 0 0.61566146476048833 0.61566146476048833 0 -0.78801076186113728 forward_v I I I I #
loop $-1 $-1 $187 $44 #
coedge $-1 $114 $114 $115 $188 reversed $69 $-1 #
coedge $-1 $115 $115 $114 $188 forward $71 $-1 #
coedge $-1 $116 $116 $72 $117 forward $111 $-1 #
edge $-1 $189 0 $189 6.2831853071796004 $116 $190 forward 7 unknown #
loop $-1 $-1 $123 $73 #
plane-surface $-1 -14.853181273688577 -2.7609617197862697 111.3507339416966 0.78801076186113728 0 0.61566146476048833 0.61566146476048833 0 -0.78801076186113728 forward_v I I I I #
loop $-1 $-1 $191 $47 #
coedge $-1 $121 $121 $122 $192 reversed $74 $-1 #
coedge $-1 $122 $122 $121 $192 forward $76 $-1 #
coedge $-1 $123 $123 $77 $124 forward $118 $-1 #
edge $-1 $193 0 $193 6.2831853071796004 $123 $194 forward 7 unknown #
face $-1 $195 $196 $26 $-1 $197 reversed single #
loop $-1 $-1 $198 $78 #
plane-surface $-1 -132.26166264213921 6.1731391088041825 111.14432274055279 0 -1 0 0.52991927123019833 0 -0.84804809178421925 forward_v I I I I #
coedge $-1 $199 $200 $201 $202 reversed $79 $-1 #
coedge $-1 $130 $81 $203 $204 reversed $51 $-1 #
coedge $-1 $81 $129 $199 $205 reversed $51 $-1 #
coedge $-1 $201 $206 $81 $132 forward $207 $-1 #
edge $-1 $208 1.9211081239505603 $209 21.543804230739525 $131 $210 forward 7 unknown #
loop $-1 $-1 $138 $82 #
plane-surface $-1 -64.209723197119047 -0.41873210310124875 2.2384562779333379 -0.52991927123019833 0 0.84804809178421925 0.84804809178421925 0 0.52991927123019833 forward_v I I I I #
loop $-1 $-1 $211 $53 #
coedge $-1 $136 $136 $137 $212 reversed $83 $-1 #
coedge $-1 $137 $137 $136 $212 forward $85 $-1 #
coedge $-1 $138 $138 $86 $139 forward $133 $-1 #
edge $-1 $213 0 $213 6.2831853071796004 $138 $214 forward 7 unknown #
face $-1 $215 $216 $21 $-1 $217 reversed single #
loop $-1 $-1 $218 $87 #
plane-surface $-1 -64.209723197119047 0 0 1 0 0 0 0 -1 forward_v I I I I #
coedge $-1 $93 $219 $220 $221 forward $88 $-1 #
coedge $-1 $222 $90 $223 $224 forward $57 $-1 #
coedge $-1 $90 $222 $148 $225 forward $57 $-1 #
coedge $-1 $149 $226 $90 $147 reversed $227 $-1 #
edge $-1 $228 -31.847764040544998 $229 31.847764040544998 $146 $230 forward 7 unknown #
coedge $-1 $92 $91 $145 $225 reversed $36 $-1 #
coedge $-1 $220 $146 $91 $150 forward $227 $-1 #
edge $-1 $228 -14.500077902013448 $154 14.500077902013448 $149 $231 forward 7 unknown #
coedge $-1 $232 $233 $92 $152 reversed $141 $-1 #
edge $-1 $234 -14.500077902013448 $155 14.500077902013448 $151 $235 forward 7 unknown #
coedge $-1 $219 $93 $233 $236 forward $88 $-1 #
vertex $-1 $150 $237 #
vertex $-1 $236 $238 #
straight-curve $-1 0 -31.847764040544998 -14.500077902013448 -1 0 0 I I #
face $-1 $239 $240 $22 $-1 $241 reversed single #
loop $-1 $-1 $101 $95 #
plane-surface $-1 -63.709723197119047 -40.890640468701761 0 1 0 0 0 0 -1 forward_v I I I I #
coedge $-1 $242 $243 $244 $245 forward $96 $-1 #
coedge $-1 $246 $98 $247 $248 forward $61 $-1 #
coedge $-1 $98 $246 $167 $249 forward $61 $-1 #
edge $-1 $169 -63.709723197119047 $250 -59.745002656474512 $98 $251 forward 7 unknown #
coedge $-1 $100 $99 $252 $253 forward $39 $-1 #
coedge $-1 $254 $255 $99 $166 forward $256 $-1 #
edge $-1 $257 59.745002656474512 $170 63.709723197119047 $165 $258 forward 7 unknown #
coedge $-1 $244 $101 $162 $249 reversed $158 $-1 #
coedge $-1 $101 $244 $254 $259 reversed $158 $-1 #
vertex $-1 $163 $260 #
vertex $-1 $259 $261 #
straight-curve $-1 -63.709723197119047 -31.847764040544998 0 0 0 1 I I #
face $-1 $-1 $262 $23 $-1 $263 reversed single #
loop $-1 $-1 $109 $103 #
plane-surface $-1 0 0 14.500077902013448 0 0 1 1 0 0 forward_v I I I I #
coedge $-1 $264 $265 $266 $267 reversed $104 $-1 #
coedge $-1 $268 $106 $108 $182 forward $65 $-1 #
coedge $-1 $106 $268 $264 $269 forward $65 $-1 #
coedge $-1 $266 $109 $106 $179 forward $173 $-1 #
edge $-1 $185 -3.7711482396597198 $270 6.5321099594459895 $178 $271 forward 7 unknown #
coedge $-1 $272 $273 $107 $181 forward $262 $-1 #
edge $-1 $274 -85.051991055464526 $184 -80.706741304238676 $180 $275 forward 7 unknown #
edge $-1 $185 122.90524536865414 $274 128.41944639423807 $108 $276 forward 7 unknown #
coedge $-1 $109 $266 $272 $277 forward $173 $-1 #
vertex $-1 $110 $278 #
vertex $-1 $110 $279 #
straight-curve $-1 43.17136225861023 2.3906673797665849 14.500077902013444 -1 0 0 I I #
coedge $-1 $187 $187 $-1 $280 reversed $113 $-1 #
edge $-1 $281 0 $281 6.2831853071796004 $114 $282 forward 7 unknown #
vertex $-1 $117 $283 #
ellipse-curve $-1 62.512282656921656 -4.9688027624517765 12.327453026400516 0.78801076186113728 0 0.61566146476048833 0.61566146476048833 0 -0.78801076186113728 1 I I #
coedge $-1 $191 $191 $-1 $284 reversed $120 $-1 #
edge $-1 $285 0 $285 6.2831853071796004 $121 $286 forward 7 unknown #
vertex $-1 $124 $287 #
ellipse-curve $-1 62.512282656921656 -0.5531206771207593 12.327453026400516 0.78801076186113728 0 0.61566146476048833 0.61566146476048833 0 -0.78801076186113728 1 I I #
face $-1 $-1 $207 $26 $-1 $288 forward single #
loop $-1 $-1 $289 $125 #
plane-surface $-1 -64.209723197119047 0 0 1 0 0 0 0 -1 forward_v I I I I #
coedge $-1 $290 $291 $292 $293 reversed $126 $-1 #
coedge $-1 $294 $128 $130 $205 forward $79 $-1 #
coedge $-1 $128 $294 $290 $295 forward $79 $-1 #
coedge $-1 $292 $131 $128 $202 forward $207 $-1 #
edge $-1 $209 -6.8012372634560556 $296 6.3825051603548069 $201 $297 forward 7 unknown #
coedge $-1 $298 $299 $129 $204 forward $196 $-1 #
edge $-1 $300 -53.33370509234306 $208 -41.072083468262946 $203 $301 forward 7 unknown #
edge $-1 $209 -23.138659584156983 $300 0 $130 $302 forward 7 unknown #
coedge $-1 $131 $292 $298 $303 forward $207 $-1 #
loop $-1 $-1 $292 $195 #
vertex $-1 $204 $304 #
vertex $-1 $132 $305 #
straight-curve $-1 -66.130831321069607 -7.01060331500668 14.500077902013444 1 0 0 I I #
coedge $-1 $211 $211 $-1 $306 reversed $135 $-1 #
edge $-1 $307 0 $307 6.2831853071796004 $136 $308 forward 7 unknown #
vertex $-1 $139 $309 #
ellipse-curve $-1 -54.398375143724564 -0.41873210310125231 8.3692670899733947 -0.52991927123019833 0 0.84804809178421925 2.5441442753526577 0 1.589757813690595 1 I I #
face $-1 $-1 $227 $21 $-1 $310 reversed single #
loop $-1 $-1 $311 $140 #
plane-surface $-1 0 31.847764040544998 0 0 -1 0 0 0 -1 forward_v I I I I #
coedge $-1 $233 $232 $312 $313 forward $141 $-1 #
coedge $-1 $143 $153 $314 $315 forward $88 $-1 #
coedge $-1 $226 $149 $143 $221 reversed $227 $-1 #
edge $-1 $316 -31.847764040544998 $154 31.847764040544998 $220 $317 forward 7 unknown #
coedge $-1 $145 $144 $232 $318 forward $57 $-1 #
coedge $-1 $311 $312 $144 $224 reversed $216 $-1 #
edge $-1 $229 -64.209723197119047 $319 64.209723197119047 $223 $320 forward 7 unknown #
edge $-1 $234 -64.209723197119047 $228 64.209723197119047 $148 $321 forward 7 unknown #
coedge $-1 $146 $220 $311 $322 reversed $227 $-1 #
loop $-1 $-1 $149 $215 #
vertex $-1 $147 $323 #
vertex $-1 $147 $324 #
straight-curve $-1 64.209723197119047 0 14.500077902013448 0 1 0 I I #
straight-curve $-1 64.209723197119047 -31.847764040544998 0 0 0 -1 I I #
coedge $-1 $218 $151 $222 $318 reversed $141 $-1 #
coedge $-1 $151 $218 $153 $236 reversed $141 $-1 #
vertex $-1 $318 $325 #
straight-curve $-1 -64.209723197119047 -31.847764040544998 0 0 0 -1 I I #
edge $-1 $155 -31.847764040544998 $326 31.847764040544998 $233 $327 forward 7 unknown #
point $-1 64.209723197119047 -31.847764040544998 -14.500077902013448 #
point $-1 -64.209723197119047 -31.847764040544998 -14.500077902013448 #
face $-1 $-1 $256 $22 $-1 $328 forward single #
loop $-1 $-1 $329 $157 #
plane-surface $-1 -59.745002656474512 -40.890640468701761 0 -1 0 0 0 0 1 forward_v I I I I #
coedge $-1 $330 $160 $246 $331 reversed $96 $-1 #
coedge $-1 $160 $330 $332 $333 reversed $96 $-1 #
coedge $-1 $168 $167 $160 $245 reversed $158 $-1 #
edge $-1 $334 -14.500077902013448 $335 14.500077902013448 $244 $336 forward 7 unknown #
coedge $-1 $162 $161 $242 $331 forward $61 $-1 #
coedge $-1 $252 $329 $161 $248 reversed $240 $-1 #
edge $-1 $250 -9.0428764281567666 $337 9.0428764281567666 $247 $338 forward 7 unknown #
edge $-1 $335 -9.0428764281567666 $169 9.0428764281567666 $167 $339 forward 7 unknown #
vertex $-1 $248 $340 #
straight-curve $-1 0 -31.847764040544998 -14.500077902013448 1 0 0 I I #
coedge $-1 $341 $247 $164 $253 reversed $240 $-1 #
edge $-1 $257 -14.500077902013448 $250 14.500077902013448 $252 $342 forward 7 unknown #
coedge $-1 $332 $165 $168 $259 forward $256 $-1 #
coedge $-1 $165 $332 $341 $343 forward $256 $-1 #
loop $-1 $-1 $165 $239 #
vertex $-1 $166 $344 #
straight-curve $-1 0 -31.847764040544998 14.500077902013448 -1 0 0 I I #
edge $-1 $170 -9.0428764281567666 $334 9.0428764281567666 $168 $345 forward 7 unknown #
point $-1 -63.709723197119047 -31.847764040544995 -14.500077902013448 #
point $-1 -63.709723197119047 -31.847764040544995 14.500077902013448 #
loop $-1 $-1 $180 $172 #
plane-surface $-1 64.209723197119047 0 0 -1 0 0 0 0 1 forward_v I I I I #
coedge $-1 $265 $175 $177 $269 reversed $104 $-1 #
coedge $-1 $175 $264 $346 $347 reversed $104 $-1 #
coedge $-1 $183 $178 $175 $267 forward $173 $-1 #
edge $-1 $270 17.64347985811402 $348 21.038360938508816 $266 $349 forward 7 unknown #
coedge $-1 $177 $176 $273 $350 reversed $65 $-1 #
edge $-1 $351 -128.41944639423807 $270 -122.90524536865414 $264 $352 forward 7 unknown #
vertex $-1 $179 $353 #
straight-curve $-1 60.81484211672425 -1.3804808598931348 14.500077902013437 0 -1 0 I I #
coedge $-1 $346 $180 $183 $277 reversed $262 $-1 #
coedge $-1 $180 $346 $268 $350 forward $262 $-1 #
vertex $-1 $181 $354 #
straight-curve $-1 64.209723197119047 2.3906673797665849 95.206819206252121 0 0 1 I I #
straight-curve $-1 -14.853181273688577 2.3906673797665849 111.3507339416966 0.61566146476048833 0 -0.78801076186113728 I I #
edge $-1 $348 -7.9125908193391243 $184 2.3906673797665849 $272 $355 forward 7 unknown #
point $-1 64.209723197119047 2.3906673797665849 14.500077902013448 #
point $-1 60.81484211672425 2.3906673797665849 14.500077902013444 #
edge $-1 $356 1 $356 0 $187 $-1 forward 7 unknown #
vertex $-1 $188 $357 #
ellipse-curve $-1 59.823998865183455 -4.9688027624517765 10.227135597988196 0.78801076186113728 0 0.61566146476048833 0.61566146476048833 0 -0.78801076186113728 1 I I #
point $-1 63.127944121682141 -4.9688027624517765 11.539442264539378 #
edge $-1 $358 1 $358 0 $191 $-1 forward 7 unknown #
vertex $-1 $192 $359 #
ellipse-curve $-1 59.823998865183455 -0.5531206771207593 10.227135597988196 0.78801076186113728 0 0.61566146476048833 0.61566146476048833 0 -0.78801076186113728 1 I I #
point $-1 63.127944121682141 -0.5531206771207593 11.539442264539378 #
plane-surface $-1 0 0 14.500077902013448 0 0 1 1 0 0 forward_v I I I I #
coedge $-1 $299 $298 $291 $360 forward $196 $-1 #
coedge $-1 $291 $198 $200 $295 reversed $126 $-1 #
coedge $-1 $198 $290 $289 $360 reversed $126 $-1 #
coedge $-1 $206 $201 $198 $293 forward $207 $-1 #
edge $-1 $296 -21.543804230739525 $361 -1.9211081239505603 $292 $362 forward 7 unknown #
coedge $-1 $200 $199 $299 $363 reversed $79 $-1 #
edge $-1 $364 0 $296 23.138659584156983 $290 $365 forward 7 unknown #
vertex $-1 $202 $366 #
straight-curve $-1 -44.587027090330082 -0.20936605155062438 14.500077902013448 0 1 0 I I #
coedge $-1 $289 $203 $206 $303 reversed $196 $-1 #
coedge $-1 $203 $289 $294 $363 forward $196 $-1 #
vertex $-1 $204 $367 #
straight-curve $-1 -64.209723197119047 -7.01060331500668 55.572161370276397 0 0 1 I I #
straight-curve $-1 -64.209723197119047 -7.01060331500668 2.2384562779333379 -0.84804809178421925 0 -0.52991927123019833 I I #
edge $-1 $361 -6.1731391088041825 $208 7.01060331500668 $298 $368 forward 7 unknown #
point $-1 -64.209723197119047 -7.01060331500668 14.500077902013448 #
point $-1 -44.587027090330082 -7.01060331500668 14.500077902013448 #
edge $-1 $369 1 $369 0 $211 $-1 forward 7 unknown #
vertex $-1 $212 $370 #
ellipse-curve $-1 -50.09874663922082 -0.41873210310125231 1.4884232584957522 -0.52991927123019833 0 0.84804809178421925 2.5441442753526577 0 1.589757813690595 1 I I #
point $-1 -51.854230868371907 -0.41873210310125231 9.9590249036639893 #
plane-surface $-1 64.209723197119047 0 0 -1 0 0 0 0 1 forward_v I I I I #
coedge $-1 $314 $223 $226 $322 forward $216 $-1 #
coedge $-1 $223 $314 $218 $313 reversed $216 $-1 #
edge $-1 $319 -14.500077902013448 $326 14.500077902013448 $312 $371 forward 7 unknown #
coedge $-1 $312 $311 $219 $315 reversed $216 $-1 #
edge $-1 $326 -64.209723197119047 $316 64.209723197119047 $314 $372 forward 7 unknown #
vertex $-1 $221 $373 #
straight-curve $-1 64.209723197119047 0 -14.500077902013448 0 -1 0 I I #
edge $-1 $319 -31.847764040544998 $234 31.847764040544998 $232 $374 forward 7 unknown #
vertex $-1 $224 $375 #
straight-curve $-1 0 31.847764040544998 14.500077902013448 -1 0 0 I I #
straight-curve $-1 0 -31.847764040544998 14.500077902013448 1 0 0 I I #
edge $-1 $229 -14.500077902013448 $316 14.500077902013448 $226 $376 forward 7 unknown #
point $-1 64.209723197119047 -31.847764040544998 14.500077902013448 #
point $-1 64.209723197119047 31.847764040544998 14.500077902013448 #
point $-1 -64.209723197119047 -31.847764040544998 14.500077902013448 #
vertex $-1 $315 $377 #
straight-curve $-1 -64.209723197119047 0 -14.500077902013448 0 1 0 I I #
plane-surface $-1 0 0 14.500077902013448 0 0 1 1 0 0 forward_v I I I I #
coedge $-1 $247 $341 $330 $378 forward $240 $-1 #
coedge $-1 $243 $242 $329 $378 reversed $96 $-1 #
edge $-1 $337 -1.9823602703222676 $335 1.9823602703222676 $242 $379 forward 7 unknown #
coedge $-1 $255 $254 $243 $333 forward $256 $-1 #
edge $-1 $334 -1.9823602703222676 $380 1.9823602703222676 $243 $381 forward 7 unknown #
vertex $-1 $259 $382 #
vertex $-1 $249 $383 #
straight-curve $-1 -63.709723197119047 -49.933516896858528 0 0 0 -1 I I #
vertex $-1 $378 $384 #
straight-curve $-1 -59.745002656474512 -40.890640468701761 -14.500077902013448 0 -1 0 I I #
straight-curve $-1 -63.709723197119047 -40.890640468701761 -14.500077902013448 0 1 0 I I #
point $-1 -59.745002656474512 -31.847764040544995 -14.500077902013448 #
coedge $-1 $329 $252 $255 $343 reversed $240 $-1 #
straight-curve $-1 -59.745002656474512 -31.847764040544998 0 0 0 -1 I I #
edge $-1 $380 -9.0428764281567666 $257 9.0428764281567666 $341 $385 forward 7 unknown #
point $-1 -59.745002656474512 -31.847764040544995 14.500077902013448 #
straight-curve $-1 -63.709723197119047 -40.890640468701761 14.500077902013448 0 -1 0 I I #
coedge $-1 $273 $272 $265 $347 forward $262 $-1 #
edge $-1 $348 80.706741304238676 $351 85.051991055464526 $346 $386 forward 7 unknown #
vertex $-1 $277 $387 #
straight-curve $-1 43.17136225861023 -7.9125908193391243 14.500077902013444 1 0 0 I I #
edge $-1 $351 -6.5321099594459895 $274 3.7711482396597198 $273 $388 forward 7 unknown #
vertex $-1 $350 $389 #
straight-curve $-1 -14.853181273688577 -7.9125908193391243 111.3507339416966 -0.61566146476048833 0 0.78801076186113728 I I #
point $-1 60.81484211672425 -7.9125908193391243 14.500077902013444 #
point $-1 64.209723197119047 2.3906673797665849 10.154828150787594 #
straight-curve $-1 64.209723197119047 0 14.500077902013448 0 1 0 I I #
vertex $-1 $280 $390 #
point $-1 60.439660329943948 -4.9688027624517765 9.4391248361270588 #
vertex $-1 $284 $391 #
point $-1 60.439660329943948 -0.5531206771207593 9.4391248361270588 #
edge $-1 $361 41.072083468262946 $364 53.33370509234306 $289 $392 forward 7 unknown #
vertex $-1 $303 $393 #
straight-curve $-1 -66.130831321069607 6.1731391088041825 14.500077902013444 -1 0 0 I I #
edge $-1 $364 -6.3825051603548069 $300 6.8012372634560556 $299 $394 forward 7 unknown #
vertex $-1 $363 $395 #
straight-curve $-1 -64.209723197119047 6.1731391088041825 2.2384562779333379 0.84804809178421925 0 0.52991927123019833 I I #
point $-1 -44.587027090330082 6.1731391088041825 14.500077902013448 #
point $-1 -64.209723197119047 -7.01060331500668 2.2384562779333379 #
straight-curve $-1 -64.209723197119047 0 14.500077902013448 0 -1 0 I I #
vertex $-1 $306 $396 #
point $-1 -47.554602363868163 -0.41873210310125231 3.0781810721863474 #
straight-curve $-1 -64.209723197119047 31.847764040544998 0 0 0 -1 I I #
straight-curve $-1 0 31.847764040544998 -14.500077902013448 1 0 0 I I #
point $-1 64.209723197119047 31.847764040544998 -14.500077902013448 #
straight-curve $-1 -64.209723197119047 0 14.500077902013448 0 -1 0 I I #
point $-1 -64.209723197119047 31.847764040544998 14.500077902013448 #
straight-curve $-1 64.209723197119047 31.847764040544998 0 0 0 -1 I I #
point $-1 -64.209723197119047 31.847764040544998 -14.500077902013448 #
edge $-1 $380 -14.500077902013448 $337 14.500077902013448 $329 $397 forward 7 unknown #
straight-curve $-1 -61.727362926796779 -49.933516896858528 -14.500077902013448 -1 0 0 I I #
vertex $-1 $343 $398 #
straight-curve $-1 -61.727362926796779 -49.933516896858528 14.500077902013448 1 0 0 I I #
point $-1 -63.709723197119047 -49.933516896858528 14.500077902013448 #
point $-1 -63.709723197119047 -49.933516896858528 -14.500077902013448 #
point $-1 -59.745002656474512 -49.933516896858528 -14.500077902013448 #
straight-curve $-1 -59.745002656474512 -40.890640468701761 14.500077902013448 0 1 0 I I #
straight-curve $-1 64.209723197119047 -7.9125908193391243 95.206819206252121 0 0 -1 I I #
point $-1 64.209723197119047 -7.9125908193391243 14.500077902013448 #
straight-curve $-1 64.209723197119061 -1.3804808598931348 10.154828150787566 0 1 0 I I #
point $-1 64.209723197119047 -7.9125908193391243 10.154828150787594 #
point $-1 59.035988103322325 -4.9688027624517765 9.6114741332277074 #
point $-1 59.035988103322325 -0.5531206771207593 9.6114741332277074 #
straight-curve $-1 -64.209723197119047 6.1731391088041825 55.572161370276397 0 0 -1 I I #
point $-1 -64.209723197119047 6.1731391088041825 14.500077902013448 #
straight-curve $-1 -64.209723197119047 -0.20936605155062438 2.2384562779333366 0 -1 0 I I #
point $-1 -64.209723197119047 6.1731391088041825 2.2384562779333379 #
point $-1 -48.508988825530224 -0.41873210310125231 -1.0557210168569056 #
straight-curve $-1 -59.745002656474512 -49.933516896858528 0 0 0 -1 I I #
point $-1 -59.745002656474512 -49.933516896858528 14.500077902013448 #
End-of-ACIS-data 