500 0 12 0           
7 Unknown 11 ACIS 5.0 NT 24 Fri Mar 26 20:38:25 1999 
-1 9.9999999999999995e-007 1e-010 
body $-1 $12 $-1 $13 #
body $-1 $14 $-1 $15 #
body $-1 $16 $-1 $17 #
body $-1 $18 $-1 $19 #
body $-1 $20 $-1 $21 #
body $-1 $22 $-1 $23 #
body $-1 $24 $-1 $25 #
body $-1 $26 $-1 $27 #
body $-1 $28 $-1 $29 #
body $-1 $30 $-1 $31 #
body $-1 $32 $-1 $33 #
body $-1 $34 $-1 $35 #
lump $-1 $-1 $36 $0 #
transform $-1 1 0 0 0 1 0 0 0 1 50.732749412518693 28.129913767705453 12.426713698852197 1 rotate no_reflect no_shear #
lump $-1 $-1 $37 $1 #
transform $-1 1 0 0 0 1 0 0 0 1 50.732749412518693 28.129913767705453 12.426713698852197 1 rotate no_reflect no_shear #
lump $-1 $-1 $38 $2 #
transform $-1 1 0 0 0 1 0 0 0 1 50.732749412518693 28.129913767705453 12.426713698852197 1 rotate no_reflect no_shear #
lump $-1 $-1 $39 $3 #
transform $-1 1 0 0 0 1 0 0 0 1 50.732749412518693 28.129913767705453 12.426713698852197 1 rotate no_reflect no_shear #
lump $-1 $-1 $40 $4 #
transform $-1 1 0 0 0 1 0 0 0 1 50.732749412518693 28.129913767705453 12.426713698852197 1 rotate no_reflect no_shear #
lump $-1 $-1 $41 $5 #
transform $-1 1 0 0 0 1 0 0 0 1 50.732749412518693 28.129913767705453 12.426713698852197 1 rotate no_reflect no_shear #
lump $-1 $-1 $42 $6 #
transform $-1 1 0 0 0 1 0 0 0 1 50.732749412518693 28.129913767705453 12.426713698852197 1 rotate no_reflect no_shear #
lump $-1 $-1 $43 $7 #
transform $-1 1 0 0 0 1 0 0 0 1 50.732749412518693 28.129913767705453 12.426713698852197 1 rotate no_reflect no_shear #
lump $-1 $-1 $44 $8 #
transform $-1 1 0 0 0 1 0 0 0 1 50.732749412518693 28.129913767705453 12.426713698852197 1 rotate no_reflect no_shear #
lump $-1 $-1 $45 $9 #
transform $-1 1 0 0 0 1 0 0 0 1 50.732749412518693 28.129913767705453 12.426713698852197 1 rotate no_reflect no_shear #
lump $-1 $-1 $46 $10 #
transform $-1 1 0 0 0 1 0 0 0 1 50.732749412518693 28.129913767705453 12.426713698852197 1 rotate no_reflect no_shear #
lump $-1 $-1 $47 $11 #
transform $-1 1 0 0 0 1 0 0 0 1 50.732749412518693 28.129913767705453 12.426713698852197 1 rotate no_reflect no_shear #
shell $-1 $-1 $-1 $48 $-1 $12 #
shell $-1 $-1 $-1 $49 $-1 $14 #
shell $-1 $-1 $-1 $50 $-1 $16 #
shell $-1 $-1 $-1 $51 $-1 $18 #
shell $-1 $-1 $-1 $52 $-1 $20 #
shell $-1 $-1 $-1 $53 $-1 $22 #
shell $-1 $-1 $-1 $54 $-1 $24 #
shell $-1 $-1 $-1 $55 $-1 $26 #
shell $-1 $-1 $-1 $56 $-1 $28 #
shell $-1 $-1 $-1 $57 $-1 $30 #
shell $-1 $-1 $-1 $58 $-1 $32 #
shell $-1 $-1 $-1 $59 $-1 $34 #
face $-1 $60 $61 $36 $-1 $62 forward single #
face $-1 $63 $64 $37 $-1 $65 forward single #
face $-1 $66 $67 $38 $-1 $68 reversed single #
face $-1 $69 $70 $39 $-1 $71 forward single #
face $-1 $72 $73 $40 $-1 $74 forward single #
face $-1 $75 $76 $41 $-1 $77 reversed single #
face $-1 $78 $79 $42 $-1 $80 forward single #
face $-1 $81 $82 $43 $-1 $83 forward single #
face $-1 $84 $85 $44 $-1 $86 reversed single #
face $-1 $87 $88 $45 $-1 $89 forward single #
face $-1 $90 $91 $46 $-1 $92 forward single #
face $-1 $93 $94 $47 $-1 $95 forward single #
face $-1 $96 $97 $36 $-1 $98 reversed single #
loop $-1 $-1 $99 $48 #
plane-surface $-1 0 0 12.426713698852197 0 0 1 1 0 0 forward_v I I I I #
face $-1 $100 $101 $37 $-1 $102 reversed single #
loop $-1 $-1 $103 $49 #
plane-surface $-1 0 -21.193306783668099 -6.7862060892746134 0 0 1 1 0 0 forward_v I I I I #
face $-1 $104 $105 $38 $-1 $106 reversed single #
loop $-1 $-1 $107 $50 #
plane-surface $-1 75.650202975161818 -5.2502853785629764 148.97764362923039 0 -1 0 -0.81915205242281985 0 -0.57357642473473569 forward_v I I I I #
face $-1 $108 $109 $39 $-1 $110 forward single #
loop $-1 $111 $112 $51 #
cone-surface $-1 48.597601158263572 -10.096029481012753 9.7178040888161181 -0.81915205242281985 0 -0.57357642473473569 0.28678821236736785 0 -0.40957602621140993 1 I I 0 1 0.5 forward I I I I #
face $-1 $113 $114 $40 $-1 $115 forward single #
loop $-1 $116 $117 $52 #
cone-surface $-1 48.597601158263572 -7.1885830195428895 9.7178040888161181 -0.81915205242281985 0 -0.57357642473473569 0.28678821236736785 0 -0.40957602621140993 1 I I 0 1 0.5 forward I I I I #
face $-1 $118 $119 $41 $-1 $120 reversed single #
loop $-1 $-1 $121 $53 #
plane-surface $-1 75.650202975161818 25.907541090067383 148.97764362923039 0 -1 0 -0.81915205242281985 0 -0.57357642473473569 forward_v I I I I #
face $-1 $122 $123 $42 $-1 $124 forward single #
loop $-1 $125 $126 $54 #
cone-surface $-1 48.597601158263572 21.061796987617605 9.7178040888161181 -0.81915205242281985 0 -0.57357642473473569 0.28678821236736785 0 -0.40957602621140993 1 I I 0 1 0.5 forward I I I I #
face $-1 $127 $128 $43 $-1 $129 forward single #
loop $-1 $130 $131 $55 #
cone-surface $-1 48.597601158263572 23.969243449087472 9.7178040888161181 -0.81915205242281985 0 -0.57357642473473569 0.28678821236736785 0 -0.40957602621140993 1 I I 0 1 0.5 forward I I I I #
face $-1 $132 $133 $44 $-1 $134 reversed single #
loop $-1 $-1 $135 $56 #
plane-surface $-1 -108.9309693912179 2.0895293712925618 87.891311834481385 0 1 0 -0.57357644374324357 0 0.81915203911291934 forward_v I I I I #
face $-1 $136 $137 $45 $-1 $138 forward single #
loop $-1 $139 $140 $57 #
cone-surface $-1 -44.801911740607302 3.7478650009743468 7.9336525963693632 0.57357644374324357 0 -0.81915203911291934 0.40957601955645967 0 0.28678822187162178 1 I I 0 1 0.5 forward I I I I #
face $-1 $141 $142 $46 $-1 $143 forward single #
loop $-1 $144 $145 $58 #
cone-surface $-1 -44.801911740607302 6.2353684454970306 7.9336525963693632 0.57357644374324357 0 -0.81915203911291934 0.40957601955645967 0 0.28678822187162178 1 I I 0 1 0.5 forward I I I I #
face $-1 $146 $147 $47 $-1 $148 forward single #
loop $-1 $149 $150 $59 #
cone-surface $-1 -44.801911740607302 8.7228718900197109 7.9336525963693632 0.57357644374324357 0 -0.81915203911291934 0.40957601955645967 0 0.28678822187162178 1 I I 0 1 0.5 forward I I I I #
face $-1 $151 $152 $36 $-1 $153 reversed single #
loop $-1 $-1 $154 $60 #
plane-surface $-1 0 0 -12.426713698852197 0 0 1 1 0 0 forward_v I I I I #
coedge $-1 $155 $156 $157 $158 forward $61 $-1 #
face $-1 $159 $160 $37 $-1 $161 reversed single #
loop $-1 $-1 $162 $63 #
plane-surface $-1 0 -14.256699799630743 -9.6064598940634056 0 -1 0 0 0 -1 forward_v I I I I #
coedge $-1 $163 $164 $165 $166 reversed $64 $-1 #
face $-1 $167 $168 $38 $-1 $169 reversed single #
loop $-1 $-1 $170 $66 #
plane-surface $-1 -7.4654686374727675 -8.6423062502778194 90.779425579238918 0.81915205242281985 0 0.57357642473473569 0.57357642473473569 0 -0.81915205242281985 forward_v I I I I #
coedge $-1 $171 $172 $173 $174 reversed $67 $-1 #
face $-1 $-1 $175 $39 $-1 $176 forward single #
loop $-1 $177 $178 $69 #
cone-surface $-1 47.925194994927999 -10.096029481012753 9.2469802387202833 -0.81915205242281985 0 -0.57357642473473569 0.14339410618368392 0 -0.20478801310570496 1 I I -0.70710678118654746 0.70710678118654746 0.25 forward I I I I #
loop $-1 $-1 $179 $51 #
coedge $-1 $112 $112 $180 $181 reversed $70 $-1 #
face $-1 $-1 $182 $40 $-1 $183 forward single #
loop $-1 $184 $185 $72 #
cone-surface $-1 47.925194994927999 -7.1885830195428895 9.2469802387202833 -0.81915205242281985 0 -0.57357642473473569 0.14339410618368392 0 -0.20478801310570496 1 I I -0.70710678118654746 0.70710678118654746 0.25 forward I I I I #
loop $-1 $-1 $186 $52 #
coedge $-1 $117 $117 $187 $188 reversed $73 $-1 #
face $-1 $189 $190 $41 $-1 $191 reversed single #
loop $-1 $-1 $192 $75 #
plane-surface $-1 -7.4654686374727675 22.515520218352542 90.779425579238918 0.81915205242281985 0 0.57357642473473569 0.57357642473473569 0 -0.81915205242281985 forward_v I I I I #
coedge $-1 $193 $194 $195 $196 reversed $76 $-1 #
face $-1 $-1 $197 $42 $-1 $198 forward single #
loop $-1 $199 $200 $78 #
cone-surface $-1 47.925194994927999 21.061796987617605 9.2469802387202833 -0.81915205242281985 0 -0.57357642473473569 0.14339410618368392 0 -0.20478801310570496 1 I I -0.70710678118654746 0.70710678118654746 0.25 forward I I I I #
loop $-1 $-1 $201 $54 #
coedge $-1 $126 $126 $202 $203 reversed $79 $-1 #
face $-1 $-1 $204 $43 $-1 $205 forward single #
loop $-1 $206 $207 $81 #
cone-surface $-1 47.925194994927999 23.969243449087472 9.2469802387202833 -0.81915205242281985 0 -0.57357642473473569 0.14339410618368392 0 -0.20478801310570496 1 I I -0.70710678118654746 0.70710678118654746 0.25 forward I I I I #
loop $-1 $-1 $208 $55 #
coedge $-1 $131 $131 $209 $210 reversed $82 $-1 #
face $-1 $211 $212 $44 $-1 $213 reversed single #
loop $-1 $-1 $214 $84 #
plane-surface $-1 -50.732749412518686 6.2353684454970306 4.7756415723424794 -0.57357644374324357 0 0.81915203911291934 0.81915203911291934 0 0.57357644374324357 forward_v I I I I #
coedge $-1 $215 $216 $217 $218 reversed $85 $-1 #
face $-1 $-1 $219 $45 $-1 $220 forward single #
loop $-1 $221 $222 $87 #
cone-surface $-1 -44.191111556282983 3.7478650009743468 7.0613395473631471 0.57357644374324357 0 -0.81915203911291934 0.20478800977822983 0 0.14339411093581089 1 I I -0.70710678118654746 0.70710678118654746 0.25 forward I I I I #
loop $-1 $-1 $223 $57 #
coedge $-1 $140 $140 $224 $225 reversed $88 $-1 #
face $-1 $-1 $226 $46 $-1 $227 forward single #
loop $-1 $228 $229 $90 #
cone-surface $-1 -44.191111556282983 6.2353684454970306 7.0613395473631471 0.57357644374324357 0 -0.81915203911291934 0.20478800977822983 0 0.14339411093581089 1 I I -0.70710678118654746 0.70710678118654746 0.25 forward I I I I #
loop $-1 $-1 $230 $58 #
coedge $-1 $145 $145 $231 $232 reversed $91 $-1 #
face $-1 $-1 $233 $47 $-1 $234 forward single #
loop $-1 $235 $236 $93 #
cone-surface $-1 -44.191111556282983 8.7228718900197109 7.0613395473631471 0.57357644374324357 0 -0.81915203911291934 0.20478800977822983 0 0.14339411093581089 1 I I -0.70710678118654746 0.70710678118654746 0.25 forward I I I I #
loop $-1 $-1 $237 $59 #
coedge $-1 $150 $150 $238 $239 reversed $94 $-1 #
face $-1 $240 $241 $36 $-1 $242 reversed single #
loop $-1 $-1 $243 $96 #
plane-surface $-1 0 -28.129913767705453 0 0 1 0 0 0 1 forward_v I I I I #
coedge $-1 $244 $245 $246 $247 forward $97 $-1 #
coedge $-1 $248 $99 $249 $250 forward $61 $-1 #
coedge $-1 $99 $248 $251 $252 forward $61 $-1 #
coedge $-1 $253 $254 $99 $158 reversed $255 $-1 #
edge $-1 $256 -28.129913767705453 $257 28.129913767705453 $157 $258 forward 7 unknown #
face $-1 $259 $260 $37 $-1 $261 reversed single #
loop $-1 $-1 $262 $100 #
plane-surface $-1 0 0 -12.426713698852197 0 0 1 1 0 0 forward_v I I I I #
coedge $-1 $263 $264 $265 $266 reversed $101 $-1 #
coedge $-1 $267 $103 $264 $268 forward $64 $-1 #
coedge $-1 $103 $267 $269 $270 reversed $64 $-1 #
coedge $-1 $271 $265 $103 $166 forward $260 $-1 #
edge $-1 $272 3.6600464077966937 $273 17.533260375871404 $165 $274 forward 7 unknown #
face $-1 $275 $276 $38 $-1 $277 reversed single #
loop $-1 $-1 $278 $104 #
plane-surface $-1 75.650202975161818 -12.034327121992662 148.97764362923039 0 1 0 0.81915205242281985 0 0.57357642473473569 forward_v I I I I #
coedge $-1 $279 $280 $281 $282 reversed $105 $-1 #
coedge $-1 $172 $107 $283 $284 reversed $67 $-1 #
coedge $-1 $107 $171 $279 $285 reversed $67 $-1 #
coedge $-1 $281 $286 $107 $174 forward $287 $-1 #
edge $-1 $288 -12.907647924937784 $289 -9.5725877168872842 $173 $290 forward 7 unknown #
loop $-1 $-1 $180 $108 #
plane-surface $-1 -7.4654686374727675 -8.6423062502778194 90.779425579238918 0.81915205242281985 0 0.57357642473473569 0.57357642473473569 0 -0.81915205242281985 forward_v I I I I #
loop $-1 $-1 $291 $69 #
coedge $-1 $178 $178 $179 $292 reversed $109 $-1 #
coedge $-1 $179 $179 $178 $292 forward $111 $-1 #
coedge $-1 $180 $180 $112 $181 forward $175 $-1 #
edge $-1 $293 0 $293 6.2831853071796004 $180 $294 forward 7 unknown #
loop $-1 $-1 $187 $113 #
plane-surface $-1 -7.4654686374727675 -8.6423062502778194 90.779425579238918 0.81915205242281985 0 0.57357642473473569 0.57357642473473569 0 -0.81915205242281985 forward_v I I I I #
loop $-1 $-1 $295 $72 #
coedge $-1 $185 $185 $186 $296 reversed $114 $-1 #
coedge $-1 $186 $186 $185 $296 forward $116 $-1 #
coedge $-1 $187 $187 $117 $188 forward $182 $-1 #
edge $-1 $297 0 $297 6.2831853071796004 $187 $298 forward 7 unknown #
face $-1 $299 $300 $41 $-1 $301 reversed single #
loop $-1 $-1 $302 $118 #
plane-surface $-1 75.650202975161818 19.123499346637701 148.97764362923039 0 1 0 0.81915205242281985 0 0.57357642473473569 forward_v I I I I #
coedge $-1 $303 $304 $305 $306 reversed $119 $-1 #
coedge $-1 $194 $121 $307 $308 reversed $76 $-1 #
coedge $-1 $121 $193 $303 $309 reversed $76 $-1 #
coedge $-1 $305 $310 $121 $196 forward $311 $-1 #
edge $-1 $312 -12.907647924937784 $313 -9.5725877168872842 $195 $314 forward 7 unknown #
loop $-1 $-1 $202 $122 #
plane-surface $-1 -7.4654686374727675 22.515520218352542 90.779425579238918 0.81915205242281985 0 0.57357642473473569 0.57357642473473569 0 -0.81915205242281985 forward_v I I I I #
loop $-1 $-1 $315 $78 #
coedge $-1 $200 $200 $201 $316 reversed $123 $-1 #
coedge $-1 $201 $201 $200 $316 forward $125 $-1 #
coedge $-1 $202 $202 $126 $203 forward $197 $-1 #
edge $-1 $317 0 $317 6.2831853071796004 $202 $318 forward 7 unknown #
loop $-1 $-1 $209 $127 #
plane-surface $-1 -7.4654686374727675 22.515520218352542 90.779425579238918 0.81915205242281985 0 0.57357642473473569 0.57357642473473569 0 -0.81915205242281985 forward_v I I I I #
loop $-1 $-1 $319 $81 #
coedge $-1 $207 $207 $208 $320 reversed $128 $-1 #
coedge $-1 $208 $208 $207 $320 forward $130 $-1 #
coedge $-1 $209 $209 $131 $210 forward $204 $-1 #
edge $-1 $321 0 $321 6.2831853071796004 $209 $322 forward 7 unknown #
face $-1 $323 $324 $44 $-1 $325 forward single #
loop $-1 $-1 $326 $132 #
plane-surface $-1 -108.9309693912179 10.381207519701499 87.891311834481385 0 -1 0 0.57357644374324357 0 -0.81915203911291934 forward_v I I I I #
coedge $-1 $327 $328 $329 $330 reversed $133 $-1 #
coedge $-1 $216 $135 $331 $332 reversed $85 $-1 #
coedge $-1 $135 $215 $327 $333 reversed $85 $-1 #
coedge $-1 $329 $334 $135 $218 forward $324 $-1 #
edge $-1 $335 3.7327352830902569 $336 14.659598480136054 $217 $337 forward 7 unknown #
loop $-1 $-1 $224 $136 #
plane-surface $-1 -50.732749412518686 6.2353684454970306 4.7756415723424794 -0.57357644374324357 0 0.81915203911291934 0.81915203911291934 0 0.57357644374324357 forward_v I I I I #
loop $-1 $-1 $338 $87 #
coedge $-1 $222 $222 $223 $339 reversed $137 $-1 #
coedge $-1 $223 $223 $222 $339 forward $139 $-1 #
coedge $-1 $224 $224 $140 $225 forward $219 $-1 #
edge $-1 $340 0 $340 6.2831853071796004 $224 $341 forward 7 unknown #
loop $-1 $-1 $231 $141 #
plane-surface $-1 -50.732749412518686 6.2353684454970306 4.7756415723424794 -0.57357644374324357 0 0.81915203911291934 0.81915203911291934 0 0.57357644374324357 forward_v I I I I #
loop $-1 $-1 $342 $90 #
coedge $-1 $229 $229 $230 $343 reversed $142 $-1 #
coedge $-1 $230 $230 $229 $343 forward $144 $-1 #
coedge $-1 $231 $231 $145 $232 forward $226 $-1 #
edge $-1 $344 0 $344 6.2831853071796004 $231 $345 forward 7 unknown #
loop $-1 $-1 $238 $146 #
plane-surface $-1 -50.732749412518686 6.2353684454970306 4.7756415723424794 -0.57357644374324357 0 0.81915203911291934 0.81915203911291934 0 0.57357644374324357 forward_v I I I I #
loop $-1 $-1 $346 $93 #
coedge $-1 $236 $236 $237 $347 reversed $147 $-1 #
coedge $-1 $237 $237 $236 $347 forward $149 $-1 #
coedge $-1 $238 $238 $150 $239 forward $233 $-1 #
edge $-1 $348 0 $348 6.2831853071796004 $238 $349 forward 7 unknown #
face $-1 $350 $351 $36 $-1 $352 reversed single #
loop $-1 $-1 $353 $151 #
plane-surface $-1 -50.732749412518693 0 0 1 0 0 0 0 -1 forward_v I I I I #
coedge $-1 $354 $251 $355 $356 forward $152 $-1 #
coedge $-1 $357 $154 $354 $358 forward $97 $-1 #
coedge $-1 $154 $357 $359 $360 forward $97 $-1 #
coedge $-1 $254 $253 $154 $247 reversed $255 $-1 #
edge $-1 $361 -28.129913767705453 $362 28.129913767705453 $246 $363 forward 7 unknown #
coedge $-1 $156 $155 $364 $365 forward $61 $-1 #
coedge $-1 $366 $367 $155 $250 reversed $351 $-1 #
edge $-1 $257 -50.732749412518693 $368 50.732749412518693 $249 $369 forward 7 unknown #
coedge $-1 $243 $370 $156 $252 reversed $152 $-1 #
edge $-1 $371 -50.732749412518693 $256 50.732749412518693 $251 $372 forward 7 unknown #
coedge $-1 $246 $157 $370 $373 forward $255 $-1 #
coedge $-1 $157 $246 $366 $374 reversed $255 $-1 #
loop $-1 $-1 $253 $350 #
vertex $-1 $158 $375 #
vertex $-1 $158 $376 #
straight-curve $-1 50.732749412518693 0 12.426713698852197 0 1 0 I I #
face $-1 $377 $378 $37 $-1 $379 reversed single #
loop $-1 $-1 $265 $159 #
plane-surface $-1 50.732749412518693 0 0 -1 0 0 0 0 1 forward_v I I I I #
coedge $-1 $380 $381 $263 $382 forward $160 $-1 #
coedge $-1 $383 $162 $262 $382 reversed $101 $-1 #
coedge $-1 $162 $383 $163 $268 reversed $101 $-1 #
coedge $-1 $165 $384 $162 $266 forward $260 $-1 #
edge $-1 $385 -7.6234837518204941 $272 -1.9829761422429106 $265 $386 forward 7 unknown #
coedge $-1 $164 $163 $387 $388 reversed $64 $-1 #
edge $-1 $272 -50.732749412518693 $389 50.732749412518693 $264 $390 forward 7 unknown #
coedge $-1 $391 $392 $164 $270 forward $378 $-1 #
edge $-1 $273 -50.732749412518693 $393 50.732749412518693 $269 $394 forward 7 unknown #
coedge $-1 $384 $165 $392 $395 forward $260 $-1 #
vertex $-1 $166 $396 #
vertex $-1 $395 $397 #
straight-curve $-1 50.732749412518693 -10.59665339183405 -6.7862060892746134 0 -1 0 I I #
face $-1 $-1 $287 $38 $-1 $398 forward single #
loop $-1 $-1 $399 $167 #
plane-surface $-1 50.732749412518693 0 0 -1 0 0 0 0 1 forward_v I I I I #
coedge $-1 $400 $401 $402 $403 reversed $168 $-1 #
coedge $-1 $404 $170 $172 $285 forward $105 $-1 #
coedge $-1 $170 $404 $400 $405 forward $105 $-1 #
coedge $-1 $402 $173 $170 $282 forward $287 $-1 #
edge $-1 $289 0.92913225342406669 $406 7.7131739968537527 $281 $407 forward 7 unknown #
coedge $-1 $408 $409 $171 $284 forward $276 $-1 #
edge $-1 $410 -66.82506784801086 $288 -62.062108115762996 $283 $411 forward 7 unknown #
edge $-1 $289 95.650998674350603 $410 101.46549882503739 $172 $412 forward 7 unknown #
coedge $-1 $173 $402 $408 $413 forward $287 $-1 #
loop $-1 $-1 $402 $275 #
vertex $-1 $284 $414 #
vertex $-1 $174 $415 #
straight-curve $-1 37.825101487580909 -5.2502853785629764 12.426713698852197 -1 0 0 I I #
coedge $-1 $291 $291 $-1 $416 reversed $177 $-1 #
edge $-1 $417 0 $417 6.2831853071796004 $178 $418 forward 7 unknown #
vertex $-1 $181 $419 #
ellipse-curve $-1 49.065219308493432 -10.096029481012753 10.045233832728266 0.81915205242281985 0 0.57357642473473569 0.28678821236736785 0 -0.40957602621140993 1 I I #
coedge $-1 $295 $295 $-1 $420 reversed $184 $-1 #
edge $-1 $421 0 $421 6.2831853071796004 $185 $422 forward 7 unknown #
vertex $-1 $188 $423 #
ellipse-curve $-1 49.065219308493432 -7.1885830195428895 10.045233832728266 0.81915205242281985 0 0.57357642473473569 0.28678821236736785 0 -0.40957602621140993 1 I I #
face $-1 $-1 $311 $41 $-1 $424 forward single #
loop $-1 $-1 $425 $189 #
plane-surface $-1 50.732749412518693 0 0 -1 0 0 0 0 1 forward_v I I I I #
coedge $-1 $426 $427 $428 $429 reversed $190 $-1 #
coedge $-1 $430 $192 $194 $309 forward $119 $-1 #
coedge $-1 $192 $430 $426 $431 forward $119 $-1 #
coedge $-1 $428 $195 $192 $306 forward $311 $-1 #
edge $-1 $313 -14.649780980891112 $432 -7.8657392374614297 $305 $433 forward 7 unknown #
coedge $-1 $434 $435 $193 $308 forward $300 $-1 #
edge $-1 $436 -66.82506784801086 $312 -62.062108115762996 $307 $437 forward 7 unknown #
edge $-1 $313 95.650998674350603 $436 101.46549882503739 $194 $438 forward 7 unknown #
coedge $-1 $195 $428 $434 $439 forward $311 $-1 #
loop $-1 $-1 $428 $299 #
vertex $-1 $308 $440 #
vertex $-1 $196 $441 #
straight-curve $-1 37.825101487580909 25.907541090067383 12.426713698852197 -1 0 0 I I #
coedge $-1 $315 $315 $-1 $442 reversed $199 $-1 #
edge $-1 $443 0 $443 6.2831853071796004 $200 $444 forward 7 unknown #
vertex $-1 $203 $445 #
ellipse-curve $-1 49.065219308493432 21.061796987617605 10.045233832728266 0.81915205242281985 0 0.57357642473473569 0.28678821236736785 0 -0.40957602621140993 1 I I #
coedge $-1 $319 $319 $-1 $446 reversed $206 $-1 #
edge $-1 $447 0 $447 6.2831853071796004 $207 $448 forward 7 unknown #
vertex $-1 $210 $449 #
ellipse-curve $-1 49.065219308493432 23.969243449087472 10.045233832728266 0.81915205242281985 0 0.57357642473473569 0.28678821236736785 0 -0.40957602621140993 1 I I #
face $-1 $-1 $450 $44 $-1 $451 reversed single #
loop $-1 $-1 $217 $211 #
plane-surface $-1 0 0 12.426713698852197 0 0 1 1 0 0 forward_v I I I I #
coedge $-1 $452 $453 $454 $455 reversed $212 $-1 #
coedge $-1 $456 $214 $216 $333 forward $133 $-1 #
coedge $-1 $214 $456 $452 $457 forward $133 $-1 #
coedge $-1 $454 $217 $214 $330 forward $324 $-1 #
edge $-1 $336 -1.0281548514559535 $458 7.2635232969529842 $329 $459 forward 7 unknown #
coedge $-1 $460 $461 $215 $332 forward $450 $-1 #
edge $-1 $462 -39.17001434489822 $335 -31.518942218388496 $331 $463 forward 7 unknown #
edge $-1 $336 -13.339237010114473 $462 8.8770546250341341e-015 $216 $464 forward 7 unknown #
coedge $-1 $217 $454 $460 $465 forward $324 $-1 #
vertex $-1 $332 $466 #
vertex $-1 $218 $467 #
straight-curve $-1 -54.46548469560895 2.0895293712925618 12.426713698852197 1 0 0 I I #
coedge $-1 $338 $338 $-1 $468 reversed $221 $-1 #
edge $-1 $469 0 $469 6.2831853071796004 $222 $470 forward 7 unknown #
vertex $-1 $225 $471 #
ellipse-curve $-1 -45.269317813995798 3.7478650009743468 8.6011776355973328 -0.57357644374324357 0 0.81915203911291934 0.40957601955645967 0 0.28678822187162178 1 I I #
coedge $-1 $342 $342 $-1 $472 reversed $228 $-1 #
edge $-1 $473 0 $473 6.2831853071796004 $229 $474 forward 7 unknown #
vertex $-1 $232 $475 #
ellipse-curve $-1 -45.269317813995798 6.2353684454970306 8.6011776355973328 -0.57357644374324357 0 0.81915203911291934 0.40957601955645967 0 0.28678822187162178 1 I I #
coedge $-1 $346 $346 $-1 $476 reversed $235 $-1 #
edge $-1 $477 0 $477 6.2831853071796004 $236 $478 forward 7 unknown #
vertex $-1 $239 $479 #
ellipse-curve $-1 -45.269317813995798 8.7228718900197109 8.6011776355973328 -0.57357644374324357 0 0.81915203911291934 0.40957601955645967 0 0.28678822187162178 1 I I #
face $-1 $-1 $255 $36 $-1 $480 reversed single #
loop $-1 $-1 $366 $240 #
plane-surface $-1 0 28.129913767705453 0 0 -1 0 0 0 -1 forward_v I I I I #
coedge $-1 $481 $364 $367 $482 forward $241 $-1 #
coedge $-1 $370 $243 $244 $358 reversed $152 $-1 #
coedge $-1 $364 $481 $243 $356 reversed $241 $-1 #
edge $-1 $371 -12.426713698852197 $483 12.426713698852197 $355 $484 forward 7 unknown #
coedge $-1 $245 $244 $481 $485 forward $97 $-1 #
edge $-1 $362 -50.732749412518693 $483 50.732749412518693 $354 $486 forward 7 unknown #
coedge $-1 $367 $366 $245 $360 reversed $351 $-1 #
edge $-1 $487 -50.732749412518693 $361 50.732749412518693 $359 $488 forward 7 unknown #
vertex $-1 $247 $489 #
vertex $-1 $373 $490 #
straight-curve $-1 50.732749412518693 0 -12.426713698852197 0 -1 0 I I #
coedge $-1 $353 $355 $248 $365 reversed $241 $-1 #
edge $-1 $368 -28.129913767705453 $371 28.129913767705453 $364 $491 forward 7 unknown #
coedge $-1 $359 $249 $254 $374 forward $351 $-1 #
coedge $-1 $249 $359 $353 $482 reversed $351 $-1 #
vertex $-1 $250 $492 #
straight-curve $-1 0 28.129913767705453 12.426713698852197 -1 0 0 I I #
coedge $-1 $251 $354 $253 $373 reversed $152 $-1 #
vertex $-1 $365 $493 #
straight-curve $-1 0 -28.129913767705453 12.426713698852197 1 0 0 I I #
edge $-1 $256 -12.426713698852197 $362 12.426713698852197 $253 $494 forward 7 unknown #
edge $-1 $257 -12.426713698852197 $361 12.426713698852197 $254 $495 forward 7 unknown #
point $-1 50.732749412518693 -28.129913767705453 12.426713698852197 #
point $-1 50.732749412518693 28.129913767705453 12.426713698852197 #
face $-1 $-1 $496 $37 $-1 $497 reversed single #
loop $-1 $-1 $269 $259 #
plane-surface $-1 0 -28.129913767705453 0 0 1 0 0 0 1 forward_v I I I I #
coedge $-1 $498 $262 $384 $499 forward $160 $-1 #
coedge $-1 $262 $498 $500 $501 forward $160 $-1 #
edge $-1 $502 -50.732749412518693 $385 50.732749412518693 $262 $503 forward 7 unknown #
coedge $-1 $264 $263 $504 $505 reversed $101 $-1 #
coedge $-1 $265 $271 $380 $499 reversed $260 $-1 #
vertex $-1 $499 $506 #
straight-curve $-1 50.732749412518693 -14.256699799630743 -4.8032299470317028 0 0 1 I I #
coedge $-1 $504 $507 $267 $388 forward $496 $-1 #
edge $-1 $393 -17.533260375871404 $389 -3.6600464077966937 $387 $508 forward 7 unknown #
vertex $-1 $388 $509 #
straight-curve $-1 0 -14.256699799630743 -6.7862060892746134 -1 0 0 I I #
coedge $-1 $510 $269 $507 $511 forward $378 $-1 #
coedge $-1 $269 $510 $271 $395 reversed $378 $-1 #
vertex $-1 $511 $512 #
straight-curve $-1 0 -28.129913767705453 -6.7862060892746134 -1 0 0 I I #
edge $-1 $273 6.7862060892746134 $513 12.426713698852197 $271 $514 forward 7 unknown #
point $-1 50.732749412518693 -14.256699799630743 -6.7862060892746134 #
point $-1 50.732749412518693 -28.129913767705453 -6.7862060892746134 #
plane-surface $-1 0 0 12.426713698852197 0 0 1 1 0 0 forward_v I I I I #
coedge $-1 $409 $408 $401 $515 forward $276 $-1 #
coedge $-1 $401 $278 $280 $405 reversed $168 $-1 #
coedge $-1 $278 $400 $399 $515 reversed $168 $-1 #
coedge $-1 $286 $281 $278 $403 forward $287 $-1 #
edge $-1 $406 9.5725877168872842 $516 12.907647924937784 $402 $517 forward 7 unknown #
coedge $-1 $280 $279 $409 $518 reversed $105 $-1 #
edge $-1 $519 -101.46549882503739 $406 -95.650998674350603 $400 $520 forward 7 unknown #
vertex $-1 $282 $521 #
straight-curve $-1 47.397689204468193 -4.3211531251389097 12.426713698852197 0 -1 0 I I #
coedge $-1 $399 $283 $286 $413 reversed $276 $-1 #
coedge $-1 $283 $399 $404 $518 forward $276 $-1 #
vertex $-1 $284 $522 #
straight-curve $-1 50.732749412518693 -5.2502853785629764 74.488821814615193 0 0 1 I I #
straight-curve $-1 -7.4654686374727675 -5.2502853785629764 90.779425579238918 0.57357642473473569 0 -0.81915205242281985 I I #
edge $-1 $516 -12.034327121992662 $288 -5.2502853785629764 $408 $523 forward 7 unknown #
point $-1 50.732749412518693 -5.2502853785629764 12.426713698852197 #
point $-1 47.397689204468193 -5.2502853785629764 12.426713698852197 #
edge $-1 $524 1 $524 0 $291 $-1 forward 7 unknown #
vertex $-1 $292 $525 #
ellipse-curve $-1 48.129983008033705 -10.096029481012753 9.3903743449039681 0.81915205242281985 0 0.57357642473473569 0.28678821236736785 0 -0.40957602621140993 1 I I #
point $-1 49.352007520860802 -10.096029481012753 9.635657806516857 #
edge $-1 $526 1 $526 0 $295 $-1 forward 7 unknown #
vertex $-1 $296 $527 #
ellipse-curve $-1 48.129983008033705 -7.1885830195428895 9.3903743449039681 0.81915205242281985 0 0.57357642473473569 0.28678821236736785 0 -0.40957602621140993 1 I I #
point $-1 49.352007520860802 -7.1885830195428895 9.635657806516857 #
plane-surface $-1 0 0 12.426713698852197 0 0 1 1 0 0 forward_v I I I I #
coedge $-1 $435 $434 $427 $528 forward $300 $-1 #
coedge $-1 $427 $302 $304 $431 reversed $190 $-1 #
coedge $-1 $302 $426 $425 $528 reversed $190 $-1 #
coedge $-1 $310 $305 $302 $429 forward $311 $-1 #
edge $-1 $432 9.5725877168872842 $529 12.907647924937784 $428 $530 forward 7 unknown #
coedge $-1 $304 $303 $435 $531 reversed $119 $-1 #
edge $-1 $532 -101.46549882503739 $432 -95.650998674350603 $426 $533 forward 7 unknown #
vertex $-1 $306 $534 #
straight-curve $-1 47.397689204468193 11.257760109176271 12.426713698852197 0 -1 0 I I #
coedge $-1 $425 $307 $310 $439 reversed $300 $-1 #
coedge $-1 $307 $425 $430 $531 forward $300 $-1 #
vertex $-1 $308 $535 #
straight-curve $-1 50.732749412518693 25.907541090067383 74.488821814615193 0 0 1 I I #
straight-curve $-1 -7.4654686374727675 25.907541090067383 90.779425579238918 0.57357642473473569 0 -0.81915205242281985 I I #
edge $-1 $529 19.123499346637701 $312 25.907541090067383 $434 $536 forward 7 unknown #
point $-1 50.732749412518693 25.907541090067383 12.426713698852197 #
point $-1 47.397689204468193 25.907541090067383 12.426713698852197 #
edge $-1 $537 1 $537 0 $315 $-1 forward 7 unknown #
vertex $-1 $316 $538 #
ellipse-curve $-1 48.129983008033705 21.061796987617605 9.3903743449039681 0.81915205242281985 0 0.57357642473473569 0.28678821236736785 0 -0.40957602621140993 1 I I #
point $-1 49.352007520860802 21.061796987617605 9.635657806516857 #
edge $-1 $539 1 $539 0 $319 $-1 forward 7 unknown #
vertex $-1 $320 $540 #
ellipse-curve $-1 48.129983008033705 23.969243449087472 9.3903743449039681 0.81915205242281985 0 0.57357642473473569 0.28678821236736785 0 -0.40957602621140993 1 I I #
point $-1 49.352007520860802 23.969243449087472 9.635657806516857 #
loop $-1 $-1 $331 $323 #
plane-surface $-1 -50.732749412518693 0 0 1 0 0 0 0 -1 forward_v I I I I #
coedge $-1 $453 $326 $328 $457 reversed $212 $-1 #
coedge $-1 $326 $452 $541 $542 reversed $212 $-1 #
coedge $-1 $334 $329 $326 $455 forward $324 $-1 #
edge $-1 $458 -14.659598480136054 $543 -3.7327352830902569 $454 $544 forward 7 unknown #
coedge $-1 $328 $327 $461 $545 reversed $133 $-1 #
edge $-1 $546 -8.8770546250341341e-015 $458 13.339237010114473 $452 $547 forward 7 unknown #
vertex $-1 $330 $548 #
straight-curve $-1 -39.805886215472889 3.1176842227485153 12.426713698852197 0 1 0 I I #
coedge $-1 $541 $331 $334 $465 reversed $450 $-1 #
coedge $-1 $331 $541 $456 $545 forward $450 $-1 #
vertex $-1 $332 $549 #
straight-curve $-1 -50.732749412518693 2.0895293712925618 43.945655917240693 0 0 1 I I #
straight-curve $-1 -50.732749412518686 2.0895293712925618 4.7756415723424794 -0.81915203911291934 0 -0.57357644374324357 I I #
edge $-1 $543 -10.381207519701499 $335 -2.0895293712925618 $460 $550 forward 7 unknown #
point $-1 -50.732749412518693 2.0895293712925618 12.426713698852197 #
point $-1 -39.805886215472896 2.0895293712925618 12.426713698852197 #
edge $-1 $551 1 $551 0 $338 $-1 forward 7 unknown #
vertex $-1 $339 $552 #
ellipse-curve $-1 -44.334505667218792 3.7478650009743468 7.2661275571413766 -0.57357644374324357 0 0.81915203911291934 0.40957601955645967 0 0.28678822187162178 1 I I #
point $-1 -44.859741794439344 3.7478650009743468 8.8879658574689699 #
edge $-1 $553 1 $553 0 $342 $-1 forward 7 unknown #
vertex $-1 $343 $554 #
ellipse-curve $-1 -44.334505667218792 6.2353684454970306 7.2661275571413766 -0.57357644374324357 0 0.81915203911291934 0.40957601955645967 0 0.28678822187162178 1 I I #
point $-1 -44.859741794439344 6.2353684454970306 8.8879658574689699 #
edge $-1 $555 1 $555 0 $346 $-1 forward 7 unknown #
vertex $-1 $347 $556 #
ellipse-curve $-1 -44.334505667218792 8.7228718900197109 7.2661275571413766 -0.57357644374324357 0 0.81915203911291934 0.40957601955645967 0 0.28678822187162178 1 I I #
point $-1 -44.859741794439344 8.7228718900197109 8.8879658574689699 #
plane-surface $-1 50.732749412518693 0 0 -1 0 0 0 0 1 forward_v I I I I #
coedge $-1 $355 $353 $357 $485 reversed $241 $-1 #
edge $-1 $368 -12.426713698852197 $487 12.426713698852197 $367 $557 forward 7 unknown #
vertex $-1 $485 $558 #
straight-curve $-1 -50.732749412518693 -28.129913767705453 0 0 0 -1 I I #
edge $-1 $483 -28.129913767705453 $487 28.129913767705453 $481 $559 forward 7 unknown #
straight-curve $-1 0 -28.129913767705453 -12.426713698852197 -1 0 0 I I #
vertex $-1 $360 $560 #
straight-curve $-1 0 28.129913767705453 -12.426713698852197 1 0 0 I I #
point $-1 50.732749412518693 28.129913767705453 -12.426713698852197 #
point $-1 50.732749412518693 -28.129913767705453 -12.426713698852197 #
straight-curve $-1 -50.732749412518693 0 12.426713698852197 0 -1 0 I I #
point $-1 -50.732749412518693 28.129913767705453 12.426713698852197 #
point $-1 -50.732749412518693 -28.129913767705453 12.426713698852197 #
straight-curve $-1 50.732749412518693 -28.129913767705453 0 0 0 -1 I I #
straight-curve $-1 50.732749412518693 28.129913767705453 0 0 0 -1 I I #
loop $-1 $-1 $504 $377 #
plane-surface $-1 -50.732749412518693 0 0 1 0 0 0 0 -1 forward_v I I I I #
coedge $-1 $381 $380 $510 $561 forward $160 $-1 #
edge $-1 $385 14.256699799630743 $513 28.129913767705453 $384 $562 forward 7 unknown #
coedge $-1 $507 $504 $381 $501 reversed $496 $-1 #
edge $-1 $563 -28.129913767705453 $502 -14.256699799630743 $500 $564 forward 7 unknown #
vertex $-1 $505 $565 #
straight-curve $-1 0 -14.256699799630743 -12.426713698852197 1 0 0 I I #
coedge $-1 $500 $387 $383 $505 forward $496 $-1 #
edge $-1 $389 1.9829761422429106 $502 7.6234837518204941 $504 $566 forward 7 unknown #
point $-1 50.732749412518693 -14.256699799630743 -12.426713698852197 #
coedge $-1 $387 $500 $391 $511 reversed $496 $-1 #
straight-curve $-1 -50.732749412518693 -10.59665339183405 -6.7862060892746134 0 1 0 I I #
point $-1 -50.732749412518693 -14.256699799630743 -6.7862060892746134 #
coedge $-1 $392 $391 $498 $561 reversed $378 $-1 #
edge $-1 $393 6.7862060892746134 $563 12.426713698852197 $507 $567 forward 7 unknown #
point $-1 -50.732749412518693 -28.129913767705453 -6.7862060892746134 #
vertex $-1 $395 $568 #
straight-curve $-1 50.732749412518693 -28.129913767705453 0 0 0 -1 I I #
edge $-1 $516 62.062108115762996 $519 66.82506784801086 $399 $569 forward 7 unknown #
vertex $-1 $413 $570 #
straight-curve $-1 37.825101487580909 -12.034327121992662 12.426713698852197 1 0 0 I I #
edge $-1 $519 -7.7131739968537527 $410 -0.92913225342406669 $409 $571 forward 7 unknown #
vertex $-1 $518 $572 #
straight-curve $-1 -7.4654686374727675 -12.034327121992662 90.779425579238918 -0.57357642473473569 0 0.81915205242281985 I I #
point $-1 47.397689204468193 -12.034327121992662 12.426713698852197 #
point $-1 50.732749412518693 -5.2502853785629764 7.6637539666043324 #
straight-curve $-1 50.732749412518693 0 12.426713698852197 0 1 0 I I #
vertex $-1 $416 $573 #
point $-1 48.416771220401074 -10.096029481012753 8.9807983186925568 #
vertex $-1 $420 $574 #
point $-1 48.416771220401074 -7.1885830195428895 8.9807983186925568 #
edge $-1 $529 62.062108115762996 $532 66.82506784801086 $425 $575 forward 7 unknown #
vertex $-1 $439 $576 #
straight-curve $-1 37.825101487580909 19.123499346637701 12.426713698852197 1 0 0 I I #
edge $-1 $532 7.8657392374614297 $436 14.649780980891112 $435 $577 forward 7 unknown #
vertex $-1 $531 $578 #
straight-curve $-1 -7.4654686374727675 19.123499346637701 90.779425579238918 -0.57357642473473569 0 0.81915205242281985 I I #
point $-1 47.397689204468193 19.123499346637701 12.426713698852197 #
point $-1 50.732749412518693 25.907541090067383 7.6637539666043324 #
straight-curve $-1 50.732749412518693 0 12.426713698852197 0 1 0 I I #
vertex $-1 $442 $579 #
point $-1 48.416771220401074 21.061796987617605 8.9807983186925568 #
vertex $-1 $446 $580 #
point $-1 48.416771220401074 23.969243449087472 8.9807983186925568 #
coedge $-1 $461 $460 $453 $542 forward $450 $-1 #
edge $-1 $543 31.518942218388496 $546 39.17001434489822 $541 $581 forward 7 unknown #
vertex $-1 $465 $582 #
straight-curve $-1 -54.46548469560895 10.381207519701499 12.426713698852197 -1 0 0 I I #
edge $-1 $546 -7.2635232969529842 $462 1.0281548514559535 $461 $583 forward 7 unknown #
vertex $-1 $545 $584 #
straight-curve $-1 -50.732749412518686 10.381207519701499 4.7756415723424794 0.81915203911291934 0 0.57357644374324357 I I #
point $-1 -39.805886215472896 10.381207519701499 12.426713698852197 #
point $-1 -50.732749412518693 2.0895293712925618 4.7756415723424741 #
straight-curve $-1 -50.732749412518693 0 12.426713698852197 0 -1 0 I I #
vertex $-1 $468 $585 #
point $-1 -43.924929647662331 3.7478650009743468 7.5529157790129986 #
vertex $-1 $472 $586 #
point $-1 -43.924929647662331 6.2353684454970306 7.5529157790129986 #
vertex $-1 $476 $587 #
point $-1 -43.924929647662331 8.7228718900197109 7.5529157790129986 #
straight-curve $-1 -50.732749412518693 28.129913767705453 0 0 0 -1 I I #
point $-1 -50.732749412518693 -28.129913767705453 -12.426713698852197 #
straight-curve $-1 -50.732749412518693 0 -12.426713698852197 0 1 0 I I #
point $-1 -50.732749412518693 28.129913767705453 -12.426713698852197 #
edge $-1 $513 -50.732749412518693 $563 50.732749412518693 $510 $588 forward 7 unknown #
straight-curve $-1 50.732749412518693 0 -12.426713698852197 0 -1 0 I I #
vertex $-1 $501 $589 #
straight-curve $-1 -50.732749412518693 0 -12.426713698852197 0 1 0 I I #
point $-1 -50.732749412518693 -14.256699799630743 -12.426713698852197 #
straight-curve $-1 -50.732749412518693 -14.256699799630743 -4.8032299470317028 0 0 -1 I I #
straight-curve $-1 -50.732749412518693 -28.129913767705453 0 0 0 -1 I I #
point $-1 50.732749412518693 -28.129913767705453 -12.426713698852197 #
straight-curve $-1 50.732749412518693 -12.034327121992662 74.488821814615193 0 0 -1 I I #
point $-1 50.732749412518693 -12.034327121992662 12.426713698852197 #
straight-curve $-1 50.7327494125187 -4.3211531251389097 7.6637539666043395 0 1 0 I I #
point $-1 50.732749412518693 -12.034327121992662 7.6637539666043324 #
point $-1 47.720406981822293 -10.096029481012753 9.1035861325365985 #
point $-1 47.720406981822293 -7.1885830195428895 9.1035861325365985 #
straight-curve $-1 50.732749412518693 19.123499346637701 74.488821814615193 0 0 -1 I I #
point $-1 50.732749412518693 19.123499346637701 12.426713698852197 #
straight-curve $-1 50.7327494125187 11.257760109176271 7.6637539666043395 0 1 0 I I #
point $-1 50.732749412518693 19.123499346637701 7.6637539666043324 #
point $-1 47.720406981822293 21.061796987617605 9.1035861325365985 #
point $-1 47.720406981822293 23.969243449087472 9.1035861325365985 #
straight-curve $-1 -50.732749412518693 10.381207519701499 43.945655917240693 0 0 -1 I I #
point $-1 -50.732749412518693 10.381207519701499 12.426713698852197 #
straight-curve $-1 -50.732749412518693 3.1176842227485153 4.7756415723424723 0 -1 0 I I #
point $-1 -50.732749412518693 10.381207519701499 4.7756415723424741 #
point $-1 -44.047717445347175 3.7478650009743468 6.8565515375849175 #
point $-1 -44.047717445347175 6.2353684454970306 6.8565515375849175 #
point $-1 -44.047717445347175 8.7228718900197109 6.8565515375849175 #
straight-curve $-1 0 -28.129913767705453 -12.426713698852197 -1 0 0 I I #
point $-1 -50.732749412518693 -28.129913767705453 -12.426713698852197 #
End-of-ACIS-data 