500 0 11 0           
7 Unknown 11 ACIS 5.0 NT 24 Thu Mar 25 23:23:51 1999 
-1 9.9999999999999995e-007 1e-010 
body $-1 $11 $-1 $12 #
body $-1 $13 $-1 $14 #
body $-1 $15 $-1 $16 #
body $-1 $17 $-1 $18 #
body $-1 $19 $-1 $20 #
body $-1 $21 $-1 $22 #
body $-1 $23 $-1 $24 #
body $-1 $25 $-1 $26 #
body $-1 $27 $-1 $28 #
body $-1 $29 $-1 $30 #
body $-1 $31 $-1 $32 #
lump $-1 $-1 $33 $0 #
transform $-1 1 0 0 0 1 0 0 0 1 49.995422223578601 28.641134944538205 6.750906144311239 1 rotate no_reflect no_shear #
lump $-1 $-1 $34 $1 #
transform $-1 1 0 0 0 1 0 0 0 1 49.995422223578601 28.641134944538205 6.750906144311239 1 rotate no_reflect no_shear #
lump $-1 $-1 $35 $2 #
transform $-1 1 0 0 0 1 0 0 0 1 49.995422223578601 28.641134944538205 6.750906144311239 1 rotate no_reflect no_shear #
lump $-1 $-1 $36 $3 #
transform $-1 1 0 0 0 1 0 0 0 1 49.995422223578601 28.641134944538205 6.750906144311239 1 rotate no_reflect no_shear #
lump $-1 $-1 $37 $4 #
transform $-1 1 0 0 0 1 0 0 0 1 49.995422223578601 28.641134944538205 6.750906144311239 1 rotate no_reflect no_shear #
lump $-1 $-1 $38 $5 #
transform $-1 1 0 0 0 1 0 0 0 1 49.995422223578601 28.641134944538205 6.750906144311239 1 rotate no_reflect no_shear #
lump $-1 $-1 $39 $6 #
transform $-1 1 0 0 0 1 0 0 0 1 49.995422223578601 28.641134944538205 6.750906144311239 1 rotate no_reflect no_shear #
lump $-1 $-1 $40 $7 #
transform $-1 1 0 0 0 1 0 0 0 1 49.995422223578601 28.641134944538205 6.750906144311239 1 rotate no_reflect no_shear #
lump $-1 $-1 $41 $8 #
transform $-1 1 0 0 0 1 0 0 0 1 49.995422223578601 28.641134944538205 6.750906144311239 1 rotate no_reflect no_shear #
lump $-1 $-1 $42 $9 #
transform $-1 1 0 0 0 1 0 0 0 1 49.995422223578601 28.641134944538205 6.750906144311239 1 rotate no_reflect no_shear #
lump $-1 $-1 $43 $10 #
transform $-1 1 0 0 0 1 0 0 0 1 49.995422223578601 28.641134944538205 6.750906144311239 1 rotate no_reflect no_shear #
shell $-1 $-1 $-1 $44 $-1 $11 #
shell $-1 $-1 $-1 $45 $-1 $13 #
shell $-1 $-1 $-1 $46 $-1 $15 #
shell $-1 $-1 $-1 $47 $-1 $17 #
shell $-1 $-1 $-1 $48 $-1 $19 #
shell $-1 $-1 $-1 $49 $-1 $21 #
shell $-1 $-1 $-1 $50 $-1 $23 #
shell $-1 $-1 $-1 $51 $-1 $25 #
shell $-1 $-1 $-1 $52 $-1 $27 #
shell $-1 $-1 $-1 $53 $-1 $29 #
shell $-1 $-1 $-1 $54 $-1 $31 #
face $-1 $55 $56 $33 $-1 $57 forward single #
face $-1 $58 $59 $34 $-1 $60 forward single #
face $-1 $61 $62 $35 $-1 $63 forward single #
face $-1 $64 $65 $36 $-1 $66 reversed single #
face $-1 $67 $68 $37 $-1 $69 forward single #
face $-1 $70 $71 $38 $-1 $72 reversed single #
face $-1 $73 $74 $39 $-1 $75 forward single #
face $-1 $76 $77 $40 $-1 $78 reversed single #
face $-1 $79 $80 $41 $-1 $81 forward single #
face $-1 $82 $83 $42 $-1 $84 reversed single #
face $-1 $85 $86 $43 $-1 $87 forward single #
face $-1 $88 $89 $33 $-1 $90 reversed single #
loop $-1 $-1 $91 $44 #
plane-surface $-1 0 0 6.750906144311239 0 0 1 1 0 0 forward_v I I I I #
face $-1 $92 $93 $34 $-1 $94 reversed single #
loop $-1 $-1 $95 $45 #
plane-surface $-1 -45.64296364173336 0 -0.34485226629066523 0 0 1 1 0 0 forward_v I I I I #
face $-1 $96 $97 $35 $-1 $98 reversed single #
loop $-1 $-1 $99 $46 #
plane-surface $-1 45.64296364173336 0 -0.34485226629066523 0 0 1 1 0 0 forward_v I I I I #
face $-1 $100 $101 $36 $-1 $102 reversed single #
loop $-1 $-1 $103 $47 #
plane-surface $-1 -37.159135460909937 -81.628210363667876 88.398107040911839 1 0 0 0 0.52991927123019833 -0.84804809178421925 forward_v I I I I #
face $-1 $104 $105 $37 $-1 $106 forward single #
loop $-1 $107 $108 $48 #
cone-surface $-1 -32.586836102270112 -25.519986925659929 4.2145895296405591 0 0.52991927123019833 -0.84804809178421925 1 0 0 1 I I 0 1 1 forward I I I I #
face $-1 $109 $110 $38 $-1 $111 reversed single #
loop $-1 $-1 $112 $49 #
plane-surface $-1 -16.513882930965874 -81.628210363667876 88.398107040911839 1 0 0 0 0.52991927123019833 -0.84804809178421925 forward_v I I I I #
face $-1 $113 $114 $39 $-1 $115 forward single #
loop $-1 $116 $117 $50 #
cone-surface $-1 -11.941583572326053 -25.519986925659929 4.2145895296405591 0 0.52991927123019833 -0.84804809178421925 1 0 0 1 I I 0 1 1 forward I I I I #
face $-1 $118 $119 $40 $-1 $120 reversed single #
loop $-1 $-1 $121 $51 #
plane-surface $-1 4.1313695989781847 -81.628210363667876 88.398107040911839 1 0 0 0 0.52991927123019833 -0.84804809178421925 forward_v I I I I #
face $-1 $122 $123 $41 $-1 $124 forward single #
loop $-1 $125 $126 $52 #
cone-surface $-1 8.7036689576180066 -25.519986925659929 4.2145895296405591 0 0.52991927123019833 -0.84804809178421925 1 0 0 1 I I 0 1 1 forward I I I I #
face $-1 $127 $128 $42 $-1 $129 reversed single #
loop $-1 $-1 $130 $53 #
plane-surface $-1 24.776622128922245 -81.628210363667876 88.398107040911839 1 0 0 0 0.52991927123019833 -0.84804809178421925 forward_v I I I I #
face $-1 $131 $132 $43 $-1 $133 forward single #
loop $-1 $134 $135 $54 #
cone-surface $-1 29.348921487562066 -25.519986925659929 4.2145895296405591 0 0.52991927123019833 -0.84804809178421925 1 0 0 1 I I 0 1 1 forward I I I I #
face $-1 $136 $137 $33 $-1 $138 reversed single #
loop $-1 $-1 $139 $55 #
plane-surface $-1 0 0 -6.750906144311239 0 0 1 1 0 0 forward_v I I I I #
coedge $-1 $140 $141 $142 $143 forward $56 $-1 #
face $-1 $144 $145 $34 $-1 $146 reversed single #
loop $-1 $-1 $147 $58 #
plane-surface $-1 -45.64296364173336 0 -3.5873557325951531 0 0 1 1 0 0 forward_v I I I I #
coedge $-1 $148 $149 $150 $151 forward $59 $-1 #
face $-1 $152 $153 $35 $-1 $154 reversed single #
loop $-1 $-1 $155 $61 #
plane-surface $-1 45.64296364173336 0 -3.5873557325951531 0 0 1 1 0 0 forward_v I I I I #
coedge $-1 $156 $157 $158 $159 reversed $62 $-1 #
face $-1 $160 $161 $36 $-1 $162 reversed single #
loop $-1 $-1 $163 $64 #
plane-surface $-1 -32.586836102270112 -28.641134944538209 3.6010622116074842 0 -0.52991927123019833 0.84804809178421925 1 0 0 forward_v I I I I #
coedge $-1 $164 $165 $166 $167 reversed $65 $-1 #
face $-1 $-1 $168 $37 $-1 $169 forward single #
loop $-1 $170 $171 $67 #
cone-surface $-1 -32.586836102270112 -24.654281228191362 2.8291708354296379 0 0.52991927123019833 -0.84804809178421925 0.5 0 0 1 I I -0.70710678118654746 0.70710678118654746 0.5 forward I I I I #
loop $-1 $-1 $172 $48 #
coedge $-1 $108 $108 $173 $174 reversed $68 $-1 #
face $-1 $175 $176 $38 $-1 $177 reversed single #
loop $-1 $-1 $178 $70 #
plane-surface $-1 -11.941583572326053 -28.641134944538209 3.6010622116074842 0 -0.52991927123019833 0.84804809178421925 1 0 0 forward_v I I I I #
coedge $-1 $179 $180 $181 $182 reversed $71 $-1 #
face $-1 $-1 $183 $39 $-1 $184 forward single #
loop $-1 $185 $186 $73 #
cone-surface $-1 -11.941583572326053 -24.654281228191362 2.8291708354296379 0 0.52991927123019833 -0.84804809178421925 0.5 0 0 1 I I -0.70710678118654746 0.70710678118654746 0.5 forward I I I I #
loop $-1 $-1 $187 $50 #
coedge $-1 $117 $117 $188 $189 reversed $74 $-1 #
face $-1 $190 $191 $40 $-1 $192 reversed single #
loop $-1 $-1 $193 $76 #
plane-surface $-1 8.7036689576180066 -28.641134944538209 3.6010622116074842 0 -0.52991927123019833 0.84804809178421925 1 0 0 forward_v I I I I #
coedge $-1 $194 $195 $196 $197 reversed $77 $-1 #
face $-1 $-1 $198 $41 $-1 $199 forward single #
loop $-1 $200 $201 $79 #
cone-surface $-1 8.7036689576180066 -24.654281228191362 2.8291708354296379 0 0.52991927123019833 -0.84804809178421925 0.5 0 0 1 I I -0.70710678118654746 0.70710678118654746 0.5 forward I I I I #
loop $-1 $-1 $202 $52 #
coedge $-1 $126 $126 $203 $204 reversed $80 $-1 #
face $-1 $205 $206 $42 $-1 $207 reversed single #
loop $-1 $-1 $208 $82 #
plane-surface $-1 29.348921487562066 -28.641134944538209 3.6010622116074842 0 -0.52991927123019833 0.84804809178421925 1 0 0 forward_v I I I I #
coedge $-1 $209 $210 $211 $212 reversed $83 $-1 #
face $-1 $-1 $213 $43 $-1 $214 forward single #
loop $-1 $215 $216 $85 #
cone-surface $-1 29.348921487562066 -24.654281228191362 2.8291708354296379 0 0.52991927123019833 -0.84804809178421925 0.5 0 0 1 I I -0.70710678118654746 0.70710678118654746 0.5 forward I I I I #
loop $-1 $-1 $217 $54 #
coedge $-1 $135 $135 $218 $219 reversed $86 $-1 #
face $-1 $220 $221 $33 $-1 $222 reversed single #
loop $-1 $-1 $223 $88 #
plane-surface $-1 0 -28.641134944538205 0 0 1 0 0 0 1 forward_v I I I I #
coedge $-1 $224 $225 $226 $227 forward $89 $-1 #
coedge $-1 $228 $91 $229 $230 forward $56 $-1 #
coedge $-1 $91 $228 $231 $232 forward $56 $-1 #
coedge $-1 $233 $234 $91 $143 reversed $235 $-1 #
edge $-1 $236 -28.641134944538205 $237 28.641134944538205 $142 $238 forward 7 unknown #
face $-1 $239 $240 $34 $-1 $241 reversed single #
loop $-1 $-1 $242 $92 #
plane-surface $-1 -41.290505059888119 0 -1.9661039994429093 -1 0 0 0 0 1 forward_v I I I I #
coedge $-1 $243 $244 $245 $246 forward $93 $-1 #
coedge $-1 $247 $95 $248 $249 reversed $59 $-1 #
coedge $-1 $95 $247 $250 $251 reversed $59 $-1 #
coedge $-1 $242 $252 $95 $151 reversed $145 $-1 #
edge $-1 $253 -28.641134944538205 $254 28.641134944538205 $150 $255 forward 7 unknown #
face $-1 $256 $257 $35 $-1 $258 reversed single #
loop $-1 $-1 $259 $96 #
plane-surface $-1 41.290505059888119 0 -1.9661039994429093 1 0 0 0 0 -1 forward_v I I I I #
coedge $-1 $260 $261 $262 $263 reversed $97 $-1 #
coedge $-1 $264 $99 $265 $266 reversed $62 $-1 #
coedge $-1 $99 $264 $267 $268 reversed $62 $-1 #
coedge $-1 $269 $270 $99 $159 forward $271 $-1 #
edge $-1 $272 -28.641134944538205 $273 28.641134944538205 $158 $274 forward 7 unknown #
face $-1 $275 $276 $36 $-1 $277 forward single #
loop $-1 $-1 $278 $100 #
plane-surface $-1 -28.014536743630291 -81.628210363667876 88.398107040911839 -1 0 0 0 -0.52991927123019833 0.84804809178421925 forward_v I I I I #
coedge $-1 $279 $280 $281 $282 reversed $101 $-1 #
coedge $-1 $165 $103 $283 $284 reversed $65 $-1 #
coedge $-1 $103 $164 $279 $285 reversed $65 $-1 #
coedge $-1 $281 $286 $103 $167 forward $287 $-1 #
edge $-1 $288 37.448147376144682 $289 40.597991308848435 $166 $290 forward 7 unknown #
loop $-1 $-1 $173 $104 #
plane-surface $-1 -32.586836102270112 -28.641134944538209 3.6010622116074842 0 -0.52991927123019833 0.84804809178421925 1 0 0 forward_v I I I I #
loop $-1 $-1 $291 $67 #
coedge $-1 $171 $171 $172 $292 reversed $105 $-1 #
coedge $-1 $172 $172 $171 $292 forward $107 $-1 #
coedge $-1 $173 $173 $108 $174 forward $168 $-1 #
edge $-1 $293 -3.7778978124636169e-016 $293 6.2831853071796004 $173 $294 forward 7 unknown #
face $-1 $295 $296 $38 $-1 $297 reversed single #
loop $-1 $-1 $298 $109 #
plane-surface $-1 -7.3692842136862309 -81.628210363667876 88.398107040911839 -1 0 0 0 -0.52991927123019833 0.84804809178421925 forward_v I I I I #
coedge $-1 $299 $300 $301 $302 reversed $110 $-1 #
coedge $-1 $180 $112 $303 $304 reversed $71 $-1 #
coedge $-1 $112 $179 $299 $305 reversed $71 $-1 #
coedge $-1 $301 $306 $112 $182 forward $296 $-1 #
edge $-1 $307 37.448147376144682 $308 40.597991308848435 $181 $309 forward 7 unknown #
loop $-1 $-1 $188 $113 #
plane-surface $-1 -11.941583572326053 -28.641134944538209 3.6010622116074842 0 -0.52991927123019833 0.84804809178421925 1 0 0 forward_v I I I I #
loop $-1 $-1 $310 $73 #
coedge $-1 $186 $186 $187 $311 reversed $114 $-1 #
coedge $-1 $187 $187 $186 $311 forward $116 $-1 #
coedge $-1 $188 $188 $117 $189 forward $183 $-1 #
edge $-1 $312 -3.7778978124636169e-016 $312 6.2831853071796004 $188 $313 forward 7 unknown #
face $-1 $314 $315 $40 $-1 $316 reversed single #
loop $-1 $-1 $317 $118 #
plane-surface $-1 13.275968316257828 -81.628210363667876 88.398107040911839 -1 0 0 0 -0.52991927123019833 0.84804809178421925 forward_v I I I I #
coedge $-1 $318 $319 $320 $321 reversed $119 $-1 #
coedge $-1 $195 $121 $322 $323 reversed $77 $-1 #
coedge $-1 $121 $194 $318 $324 reversed $77 $-1 #
coedge $-1 $320 $325 $121 $197 forward $315 $-1 #
edge $-1 $326 37.448147376144682 $327 40.597991308848435 $196 $328 forward 7 unknown #
loop $-1 $-1 $203 $122 #
plane-surface $-1 8.7036689576180066 -28.641134944538209 3.6010622116074842 0 -0.52991927123019833 0.84804809178421925 1 0 0 forward_v I I I I #
loop $-1 $-1 $329 $79 #
coedge $-1 $201 $201 $202 $330 reversed $123 $-1 #
coedge $-1 $202 $202 $201 $330 forward $125 $-1 #
coedge $-1 $203 $203 $126 $204 forward $198 $-1 #
edge $-1 $331 -3.7778978124636169e-016 $331 6.2831853071796004 $203 $332 forward 7 unknown #
face $-1 $333 $334 $42 $-1 $335 reversed single #
loop $-1 $-1 $336 $127 #
plane-surface $-1 33.921220846201891 -81.628210363667876 88.398107040911839 -1 0 0 0 -0.52991927123019833 0.84804809178421925 forward_v I I I I #
coedge $-1 $337 $338 $339 $340 reversed $128 $-1 #
coedge $-1 $210 $130 $341 $342 reversed $83 $-1 #
coedge $-1 $130 $209 $337 $343 reversed $83 $-1 #
coedge $-1 $339 $344 $130 $212 forward $334 $-1 #
edge $-1 $345 37.448147376144682 $346 40.597991308848435 $211 $347 forward 7 unknown #
loop $-1 $-1 $218 $131 #
plane-surface $-1 29.348921487562066 -28.641134944538209 3.6010622116074842 0 -0.52991927123019833 0.84804809178421925 1 0 0 forward_v I I I I #
loop $-1 $-1 $348 $85 #
coedge $-1 $216 $216 $217 $349 reversed $132 $-1 #
coedge $-1 $217 $217 $216 $349 forward $134 $-1 #
coedge $-1 $218 $218 $135 $219 forward $213 $-1 #
edge $-1 $350 -3.7778978124636169e-016 $350 6.2831853071796004 $218 $351 forward 7 unknown #
face $-1 $352 $353 $33 $-1 $354 reversed single #
loop $-1 $-1 $355 $136 #
plane-surface $-1 -49.995422223578601 0 0 1 0 0 0 0 -1 forward_v I I I I #
coedge $-1 $356 $231 $357 $358 forward $137 $-1 #
coedge $-1 $359 $139 $356 $360 forward $89 $-1 #
coedge $-1 $139 $359 $361 $362 forward $89 $-1 #
coedge $-1 $234 $233 $139 $227 reversed $235 $-1 #
edge $-1 $363 -28.641134944538205 $364 28.641134944538205 $226 $365 forward 7 unknown #
coedge $-1 $141 $140 $366 $367 forward $56 $-1 #
coedge $-1 $368 $369 $140 $230 reversed $353 $-1 #
edge $-1 $237 -49.995422223578601 $370 49.995422223578601 $229 $371 forward 7 unknown #
coedge $-1 $223 $372 $141 $232 reversed $137 $-1 #
edge $-1 $373 -49.995422223578601 $236 49.995422223578601 $231 $374 forward 7 unknown #
coedge $-1 $226 $142 $372 $375 forward $235 $-1 #
coedge $-1 $142 $226 $368 $376 reversed $235 $-1 #
loop $-1 $-1 $233 $352 #
vertex $-1 $143 $377 #
vertex $-1 $143 $378 #
straight-curve $-1 49.995422223578601 0 6.750906144311239 0 1 0 I I #
face $-1 $379 $380 $34 $-1 $381 reversed single #
loop $-1 $-1 $382 $144 #
plane-surface $-1 0 -28.641134944538205 0 0 1 0 0 0 1 forward_v I I I I #
coedge $-1 $245 $150 $383 $384 reversed $145 $-1 #
coedge $-1 $385 $147 $382 $386 reversed $93 $-1 #
coedge $-1 $147 $385 $387 $388 reversed $93 $-1 #
coedge $-1 $252 $242 $147 $246 reversed $145 $-1 #
edge $-1 $389 -28.641134944538205 $390 28.641134944538205 $245 $391 forward 7 unknown #
coedge $-1 $149 $148 $392 $393 reversed $59 $-1 #
coedge $-1 $394 $395 $148 $249 forward $396 $-1 #
edge $-1 $397 -27.173940402711921 $254 -18.469023239021439 $248 $398 forward 7 unknown #
coedge $-1 $399 $383 $149 $251 forward $240 $-1 #
edge $-1 $253 18.469023239021439 $400 27.173940402711921 $250 $401 forward 7 unknown #
coedge $-1 $150 $245 $394 $402 reversed $145 $-1 #
vertex $-1 $251 $403 #
vertex $-1 $249 $404 #
straight-curve $-1 -41.290505059888119 0 -0.34485226629066523 0 1 0 I I #
face $-1 $405 $406 $35 $-1 $407 reversed single #
loop $-1 $-1 $267 $152 #
plane-surface $-1 0 -28.641134944538205 0 0 1 0 0 0 1 forward_v I I I I #
coedge $-1 $408 $409 $410 $411 reversed $153 $-1 #
coedge $-1 $412 $155 $413 $414 reversed $97 $-1 #
coedge $-1 $155 $412 $415 $416 reversed $97 $-1 #
coedge $-1 $270 $269 $155 $263 forward $271 $-1 #
edge $-1 $417 -28.641134944538205 $418 28.641134944538205 $262 $419 forward 7 unknown #
coedge $-1 $157 $156 $409 $420 forward $62 $-1 #
coedge $-1 $421 $410 $156 $266 forward $406 $-1 #
edge $-1 $422 18.469023239021439 $272 27.173940402711921 $265 $423 forward 7 unknown #
coedge $-1 $424 $425 $157 $268 forward $257 $-1 #
edge $-1 $273 -27.173940402711921 $426 -18.469023239021439 $267 $427 forward 7 unknown #
coedge $-1 $262 $158 $425 $428 forward $271 $-1 #
coedge $-1 $158 $262 $421 $429 reversed $271 $-1 #
loop $-1 $-1 $158 $405 #
vertex $-1 $429 $430 #
vertex $-1 $428 $431 #
straight-curve $-1 49.995422223578601 0 -0.34485226629066523 0 -1 0 I I #
face $-1 $-1 $287 $36 $-1 $432 reversed single #
loop $-1 $-1 $433 $160 #
plane-surface $-1 0 0 6.750906144311239 0 0 1 1 0 0 forward_v I I I I #
coedge $-1 $434 $435 $436 $437 reversed $161 $-1 #
coedge $-1 $438 $163 $165 $285 forward $101 $-1 #
coedge $-1 $163 $438 $434 $439 forward $101 $-1 #
coedge $-1 $436 $166 $163 $282 forward $287 $-1 #
edge $-1 $289 -20.865717409774881 $440 -11.721118692495235 $281 $441 forward 7 unknown #
coedge $-1 $442 $443 $164 $284 forward $276 $-1 #
edge $-1 $444 -17.213774151345376 $288 -12.172970237295733 $283 $445 forward 7 unknown #
edge $-1 $289 4.1895292081871576e-015 $444 5.9440071416754616 $165 $446 forward 7 unknown #
coedge $-1 $166 $436 $442 $447 reversed $287 $-1 #
loop $-1 $-1 $436 $275 #
vertex $-1 $447 $448 #
vertex $-1 $167 $449 #
straight-curve $-1 -37.159135460909937 -28.641134944538205 44.199053520455919 0 0 -1 I I #
coedge $-1 $291 $291 $-1 $450 reversed $170 $-1 #
edge $-1 $451 0 $451 6.2831853071796004 $171 $452 forward 7 unknown #
vertex $-1 $174 $453 #
ellipse-curve $-1 -32.586836102270112 -26.120732987513389 5.1759841779593598 0 -0.52991927123019833 0.84804809178421925 1 0 0 1 I I #
face $-1 $-1 $454 $38 $-1 $455 forward single #
loop $-1 $-1 $181 $175 #
plane-surface $-1 0 -28.641134944538205 0 0 1 0 0 0 1 forward_v I I I I #
coedge $-1 $456 $457 $458 $459 reversed $176 $-1 #
coedge $-1 $460 $178 $180 $305 forward $110 $-1 #
coedge $-1 $178 $460 $456 $461 forward $110 $-1 #
coedge $-1 $458 $181 $178 $302 forward $296 $-1 #
edge $-1 $308 -10.543091144802847 $462 -1.3984924275232045 $301 $463 forward 7 unknown #
coedge $-1 $464 $465 $179 $304 forward $454 $-1 #
edge $-1 $466 -17.213774151345376 $307 -12.172970237295733 $303 $467 forward 7 unknown #
edge $-1 $308 4.1895292081871576e-015 $466 5.9440071416754616 $180 $468 forward 7 unknown #
coedge $-1 $181 $458 $464 $469 reversed $296 $-1 #
vertex $-1 $469 $470 #
vertex $-1 $182 $471 #
straight-curve $-1 -16.513882930965874 -28.641134944538205 44.199053520455919 0 0 -1 I I #
coedge $-1 $310 $310 $-1 $472 reversed $185 $-1 #
edge $-1 $473 0 $473 6.2831853071796004 $186 $474 forward 7 unknown #
vertex $-1 $189 $475 #
ellipse-curve $-1 -11.941583572326053 -26.120732987513389 5.1759841779593598 0 -0.52991927123019833 0.84804809178421925 1 0 0 1 I I #
face $-1 $-1 $476 $40 $-1 $477 forward single #
loop $-1 $-1 $196 $190 #
plane-surface $-1 0 -28.641134944538205 0 0 1 0 0 0 1 forward_v I I I I #
coedge $-1 $478 $479 $480 $481 reversed $191 $-1 #
coedge $-1 $482 $193 $195 $324 forward $119 $-1 #
coedge $-1 $193 $482 $478 $483 forward $119 $-1 #
coedge $-1 $480 $196 $193 $321 forward $315 $-1 #
edge $-1 $327 -0.22046487983081864 $484 8.9241338374488244 $320 $485 forward 7 unknown #
coedge $-1 $486 $487 $194 $323 forward $476 $-1 #
edge $-1 $488 -17.213774151345376 $326 -12.172970237295733 $322 $489 forward 7 unknown #
edge $-1 $327 4.1895292081871576e-015 $488 5.9440071416754616 $195 $490 forward 7 unknown #
coedge $-1 $196 $480 $486 $491 reversed $315 $-1 #
vertex $-1 $491 $492 #
vertex $-1 $197 $493 #
straight-curve $-1 4.1313695989781847 -28.641134944538205 44.199053520455919 0 0 -1 I I #
coedge $-1 $329 $329 $-1 $494 reversed $200 $-1 #
edge $-1 $495 0 $495 6.2831853071796004 $201 $496 forward 7 unknown #
vertex $-1 $204 $497 #
ellipse-curve $-1 8.7036689576180066 -26.120732987513389 5.1759841779593598 0 -0.52991927123019833 0.84804809178421925 1 0 0 1 I I #
face $-1 $-1 $498 $42 $-1 $499 forward single #
loop $-1 $-1 $211 $205 #
plane-surface $-1 0 -28.641134944538205 0 0 1 0 0 0 1 forward_v I I I I #
coedge $-1 $500 $501 $502 $503 reversed $206 $-1 #
coedge $-1 $504 $208 $210 $343 forward $128 $-1 #
coedge $-1 $208 $504 $500 $505 forward $128 $-1 #
coedge $-1 $502 $211 $208 $340 forward $334 $-1 #
edge $-1 $346 10.102161385141212 $506 19.246760102420858 $339 $507 forward 7 unknown #
coedge $-1 $508 $509 $209 $342 forward $498 $-1 #
edge $-1 $510 -17.213774151345376 $345 -12.172970237295733 $341 $511 forward 7 unknown #
edge $-1 $346 4.1895292081871576e-015 $510 5.9440071416754616 $210 $512 forward 7 unknown #
coedge $-1 $211 $502 $508 $513 reversed $334 $-1 #
vertex $-1 $513 $514 #
vertex $-1 $212 $515 #
straight-curve $-1 24.776622128922245 -28.641134944538205 44.199053520455919 0 0 -1 I I #
coedge $-1 $348 $348 $-1 $516 reversed $215 $-1 #
edge $-1 $517 0 $517 6.2831853071796004 $216 $518 forward 7 unknown #
vertex $-1 $219 $519 #
ellipse-curve $-1 29.348921487562066 -26.120732987513389 5.1759841779593598 0 -0.52991927123019833 0.84804809178421925 1 0 0 1 I I #
face $-1 $-1 $235 $33 $-1 $520 reversed single #
loop $-1 $-1 $368 $220 #
plane-surface $-1 0 28.641134944538205 0 0 -1 0 0 0 -1 forward_v I I I I #
coedge $-1 $521 $366 $369 $522 forward $221 $-1 #
coedge $-1 $372 $223 $224 $360 reversed $137 $-1 #
coedge $-1 $366 $521 $223 $358 reversed $221 $-1 #
edge $-1 $373 -6.750906144311239 $523 6.750906144311239 $357 $524 forward 7 unknown #
coedge $-1 $225 $224 $521 $525 forward $89 $-1 #
edge $-1 $364 -49.995422223578601 $523 49.995422223578601 $356 $526 forward 7 unknown #
coedge $-1 $369 $368 $225 $362 reversed $353 $-1 #
edge $-1 $527 -49.995422223578601 $363 49.995422223578601 $361 $528 forward 7 unknown #
vertex $-1 $227 $529 #
vertex $-1 $375 $530 #
straight-curve $-1 49.995422223578601 0 -6.750906144311239 0 -1 0 I I #
coedge $-1 $355 $357 $228 $367 reversed $221 $-1 #
edge $-1 $370 -28.641134944538205 $373 28.641134944538205 $366 $531 forward 7 unknown #
coedge $-1 $361 $229 $234 $376 forward $353 $-1 #
coedge $-1 $229 $361 $355 $522 reversed $353 $-1 #
vertex $-1 $230 $532 #
straight-curve $-1 0 28.641134944538205 6.750906144311239 -1 0 0 I I #
coedge $-1 $231 $356 $233 $375 reversed $137 $-1 #
vertex $-1 $367 $533 #
straight-curve $-1 0 -28.641134944538205 6.750906144311239 1 0 0 I I #
edge $-1 $236 -6.750906144311239 $364 6.750906144311239 $233 $534 forward 7 unknown #
edge $-1 $237 -6.750906144311239 $363 6.750906144311239 $234 $535 forward 7 unknown #
point $-1 49.995422223578601 -28.641134944538205 6.750906144311239 #
point $-1 49.995422223578601 28.641134944538205 6.750906144311239 #
face $-1 $-1 $396 $34 $-1 $536 reversed single #
loop $-1 $-1 $537 $239 #
plane-surface $-1 -49.995422223578601 0 0 1 0 0 0 0 -1 forward_v I I I I #
coedge $-1 $383 $399 $243 $386 forward $240 $-1 #
coedge $-1 $250 $382 $242 $384 forward $240 $-1 #
edge $-1 $390 -2.6043037328736984 $253 0.6381997334307894 $383 $538 forward 7 unknown #
coedge $-1 $244 $243 $537 $539 reversed $93 $-1 #
edge $-1 $540 -27.173940402711921 $390 -18.469023239021439 $382 $541 forward 7 unknown #
coedge $-1 $395 $394 $244 $388 forward $396 $-1 #
edge $-1 $389 18.469023239021439 $542 27.173940402711921 $387 $543 forward 7 unknown #
vertex $-1 $388 $544 #
vertex $-1 $386 $545 #
straight-curve $-1 -41.290505059888119 0 -3.5873557325951531 0 -1 0 I I #
coedge $-1 $546 $547 $247 $393 forward $380 $-1 #
edge $-1 $400 -28.641134944538205 $397 28.641134944538205 $392 $548 forward 7 unknown #
coedge $-1 $387 $248 $252 $402 forward $396 $-1 #
coedge $-1 $248 $387 $546 $549 reversed $396 $-1 #
loop $-1 $-1 $387 $379 #
vertex $-1 $549 $550 #
straight-curve $-1 -22.82148182086668 28.641134944538205 -0.34485226629066523 1 0 0 I I #
coedge $-1 $382 $250 $547 $551 forward $240 $-1 #
vertex $-1 $551 $552 #
straight-curve $-1 -22.82148182086668 -28.641134944538205 -0.34485226629066523 -1 0 0 I I #
edge $-1 $254 -0.6381997334307894 $389 2.6043037328736984 $394 $553 forward 7 unknown #
point $-1 -41.290505059888119 -28.641134944538205 -0.34485226629066523 #
point $-1 -41.290505059888119 28.641134944538205 -0.34485226629066523 #
face $-1 $-1 $271 $35 $-1 $554 reversed single #
loop $-1 $-1 $265 $256 #
plane-surface $-1 0 28.641134944538205 0 0 -1 0 0 0 -1 forward_v I I I I #
coedge $-1 $555 $259 $412 $556 reversed $153 $-1 #
coedge $-1 $259 $555 $264 $420 reversed $153 $-1 #
coedge $-1 $265 $415 $259 $411 forward $406 $-1 #
edge $-1 $557 -2.6043037328736984 $422 0.6381997334307894 $410 $558 forward 7 unknown #
coedge $-1 $261 $260 $408 $556 forward $97 $-1 #
coedge $-1 $425 $424 $260 $414 forward $257 $-1 #
edge $-1 $559 18.469023239021439 $417 27.173940402711921 $413 $560 forward 7 unknown #
coedge $-1 $410 $421 $261 $416 forward $406 $-1 #
edge $-1 $418 -27.173940402711921 $557 -18.469023239021439 $415 $561 forward 7 unknown #
vertex $-1 $263 $562 #
vertex $-1 $263 $563 #
straight-curve $-1 49.995422223578601 0 -3.5873557325951531 0 1 0 I I #
edge $-1 $422 -28.641134944538205 $426 28.641134944538205 $409 $564 forward 7 unknown #
coedge $-1 $415 $265 $270 $429 forward $406 $-1 #
vertex $-1 $266 $565 #
straight-curve $-1 22.82148182086668 28.641134944538205 -0.34485226629066523 1 0 0 I I #
coedge $-1 $413 $267 $555 $566 forward $257 $-1 #
coedge $-1 $267 $413 $269 $428 reversed $257 $-1 #
vertex $-1 $268 $567 #
straight-curve $-1 22.82148182086668 -28.641134944538205 -0.34485226629066523 -1 0 0 I I #
edge $-1 $273 0.34485226629066523 $417 3.5873557325951531 $269 $568 forward 7 unknown #
edge $-1 $272 0.34485226629066523 $418 3.5873557325951531 $270 $569 forward 7 unknown #
point $-1 49.995422223578601 28.641134944538205 -0.34485226629066523 #
point $-1 49.995422223578601 -28.641134944538205 -0.34485226629066523 #
plane-surface $-1 0 -28.641134944538205 0 0 1 0 0 0 1 forward_v I I I I #
coedge $-1 $443 $442 $435 $570 forward $276 $-1 #
coedge $-1 $435 $278 $280 $439 reversed $161 $-1 #
coedge $-1 $278 $434 $433 $570 reversed $161 $-1 #
coedge $-1 $286 $281 $278 $437 forward $287 $-1 #
edge $-1 $440 -40.597991308848435 $571 -37.448147376144682 $436 $572 forward 7 unknown #
coedge $-1 $280 $279 $443 $573 reversed $101 $-1 #
edge $-1 $574 -5.9440071416754616 $440 -4.1895292081871576e-015 $434 $575 forward 7 unknown #
vertex $-1 $282 $576 #
straight-curve $-1 -16.293418051135056 -28.641134944538205 3.6010622116074873 1 0 0 I I #
coedge $-1 $433 $283 $286 $447 forward $276 $-1 #
coedge $-1 $283 $433 $438 $573 forward $276 $-1 #
vertex $-1 $284 $577 #
straight-curve $-1 -37.159135460909937 -40.814105181833938 6.7509061443112373 0 -1 0 I I #
straight-curve $-1 -37.159135460909937 -28.641134944538209 3.6010622116074842 0 0.84804809178421925 0.52991927123019833 I I #
edge $-1 $288 -37.159135460909937 $571 -28.014536743630291 $286 $578 forward 7 unknown #
point $-1 -37.159135460909937 -28.641134944538205 6.750906144311239 #
point $-1 -37.159135460909937 -28.641134944538205 3.6010622116074864 #
edge $-1 $579 1 $579 0 $291 $-1 forward 7 unknown #
vertex $-1 $292 $580 #
ellipse-curve $-1 -32.586836102270112 -24.919240863806461 3.2531948813217477 0 -0.52991927123019833 0.84804809178421925 1 0 0 1 I I #
point $-1 -31.586836102270112 -26.120732987513396 5.1759841779593705 #
loop $-1 $-1 $303 $295 #
plane-surface $-1 0 0 6.750906144311239 0 0 1 1 0 0 forward_v I I I I #
coedge $-1 $457 $298 $300 $461 reversed $176 $-1 #
coedge $-1 $298 $456 $581 $582 reversed $176 $-1 #
coedge $-1 $306 $301 $298 $459 forward $296 $-1 #
edge $-1 $462 -40.597991308848435 $583 -37.448147376144682 $458 $584 forward 7 unknown #
coedge $-1 $300 $299 $465 $585 reversed $110 $-1 #
edge $-1 $586 -5.9440071416754616 $462 -4.1895292081871576e-015 $456 $587 forward 7 unknown #
vertex $-1 $302 $588 #
straight-curve $-1 -5.9707917861630264 -28.641134944538205 3.6010622116074873 1 0 0 I I #
coedge $-1 $581 $303 $306 $469 forward $454 $-1 #
coedge $-1 $303 $581 $460 $585 forward $454 $-1 #
vertex $-1 $304 $589 #
straight-curve $-1 -16.513882930965874 -40.814105181833938 6.7509061443112373 0 -1 0 I I #
straight-curve $-1 -16.513882930965874 -28.641134944538209 3.6010622116074842 0 0.84804809178421925 0.52991927123019833 I I #
edge $-1 $307 -16.513882930965874 $583 -7.3692842136862309 $306 $590 forward 7 unknown #
point $-1 -16.513882930965874 -28.641134944538205 6.750906144311239 #
point $-1 -16.513882930965874 -28.641134944538205 3.6010622116074864 #
edge $-1 $591 1 $591 0 $310 $-1 forward 7 unknown #
vertex $-1 $311 $592 #
ellipse-curve $-1 -11.941583572326053 -24.919240863806461 3.2531948813217477 0 -0.52991927123019833 0.84804809178421925 1 0 0 1 I I #
point $-1 -10.941583572326053 -26.120732987513396 5.1759841779593705 #
loop $-1 $-1 $322 $314 #
plane-surface $-1 0 0 6.750906144311239 0 0 1 1 0 0 forward_v I I I I #
coedge $-1 $479 $317 $319 $483 reversed $191 $-1 #
coedge $-1 $317 $478 $593 $594 reversed $191 $-1 #
coedge $-1 $325 $320 $317 $481 forward $315 $-1 #
edge $-1 $484 -40.597991308848435 $595 -37.448147376144682 $480 $596 forward 7 unknown #
coedge $-1 $319 $318 $487 $597 reversed $119 $-1 #
edge $-1 $598 -5.9440071416754616 $484 -4.1895292081871576e-015 $478 $599 forward 7 unknown #
vertex $-1 $321 $600 #
straight-curve $-1 4.3518344788090033 -28.641134944538205 3.6010622116074873 1 0 0 I I #
coedge $-1 $593 $322 $325 $491 forward $476 $-1 #
coedge $-1 $322 $593 $482 $597 forward $476 $-1 #
vertex $-1 $323 $601 #
straight-curve $-1 4.1313695989781847 -40.814105181833938 6.7509061443112373 0 -1 0 I I #
straight-curve $-1 4.1313695989781847 -28.641134944538209 3.6010622116074842 0 0.84804809178421925 0.52991927123019833 I I #
edge $-1 $326 4.1313695989781847 $595 13.275968316257828 $325 $602 forward 7 unknown #
point $-1 4.1313695989781847 -28.641134944538205 6.750906144311239 #
point $-1 4.1313695989781847 -28.641134944538205 3.6010622116074864 #
edge $-1 $603 1 $603 0 $329 $-1 forward 7 unknown #
vertex $-1 $330 $604 #
ellipse-curve $-1 8.7036689576180066 -24.919240863806461 3.2531948813217477 0 -0.52991927123019833 0.84804809178421925 1 0 0 1 I I #
point $-1 9.7036689576180066 -26.120732987513396 5.1759841779593705 #
loop $-1 $-1 $341 $333 #
plane-surface $-1 0 0 6.750906144311239 0 0 1 1 0 0 forward_v I I I I #
coedge $-1 $501 $336 $338 $505 reversed $206 $-1 #
coedge $-1 $336 $500 $605 $606 reversed $206 $-1 #
coedge $-1 $344 $339 $336 $503 forward $334 $-1 #
edge $-1 $506 -40.597991308848435 $607 -37.448147376144682 $502 $608 forward 7 unknown #
coedge $-1 $338 $337 $509 $609 reversed $128 $-1 #
edge $-1 $610 -5.9440071416754616 $506 -4.1895292081871576e-015 $500 $611 forward 7 unknown #
vertex $-1 $340 $612 #
straight-curve $-1 14.674460743781033 -28.641134944538205 3.6010622116074873 1 0 0 I I #
coedge $-1 $605 $341 $344 $513 forward $498 $-1 #
coedge $-1 $341 $605 $504 $609 forward $498 $-1 #
vertex $-1 $342 $613 #
straight-curve $-1 24.776622128922245 -40.814105181833938 6.7509061443112373 0 -1 0 I I #
straight-curve $-1 24.776622128922245 -28.641134944538209 3.6010622116074842 0 0.84804809178421925 0.52991927123019833 I I #
edge $-1 $345 24.776622128922245 $607 33.921220846201891 $344 $614 forward 7 unknown #
point $-1 24.776622128922245 -28.641134944538205 6.750906144311239 #
point $-1 24.776622128922245 -28.641134944538205 3.6010622116074864 #
edge $-1 $615 1 $615 0 $348 $-1 forward 7 unknown #
vertex $-1 $349 $616 #
ellipse-curve $-1 29.348921487562066 -24.919240863806461 3.2531948813217477 0 -0.52991927123019833 0.84804809178421925 1 0 0 1 I I #
point $-1 30.348921487562066 -26.120732987513396 5.1759841779593705 #
plane-surface $-1 49.995422223578601 0 0 -1 0 0 0 0 1 forward_v I I I I #
coedge $-1 $357 $355 $359 $525 reversed $221 $-1 #
edge $-1 $370 -6.750906144311239 $527 6.750906144311239 $369 $617 forward 7 unknown #
vertex $-1 $525 $618 #
straight-curve $-1 -49.995422223578601 -28.641134944538205 0 0 0 -1 I I #
edge $-1 $523 -28.641134944538205 $527 28.641134944538205 $521 $619 forward 7 unknown #
straight-curve $-1 0 -28.641134944538205 -6.750906144311239 -1 0 0 I I #
vertex $-1 $362 $620 #
straight-curve $-1 0 28.641134944538205 -6.750906144311239 1 0 0 I I #
point $-1 49.995422223578601 28.641134944538205 -6.750906144311239 #
point $-1 49.995422223578601 -28.641134944538205 -6.750906144311239 #
straight-curve $-1 -49.995422223578601 0 6.750906144311239 0 -1 0 I I #
point $-1 -49.995422223578601 28.641134944538205 6.750906144311239 #
point $-1 -49.995422223578601 -28.641134944538205 6.750906144311239 #
straight-curve $-1 49.995422223578601 -28.641134944538205 0 0 0 -1 I I #
straight-curve $-1 49.995422223578601 28.641134944538205 0 0 0 -1 I I #
plane-surface $-1 0 28.641134944538205 0 0 -1 0 0 0 -1 forward_v I I I I #
coedge $-1 $547 $546 $385 $539 forward $380 $-1 #
straight-curve $-1 -41.290505059888119 -28.641134944538205 -0.98305199972145463 0 0 1 I I #
edge $-1 $542 -28.641134944538205 $540 28.641134944538205 $537 $621 forward 7 unknown #
vertex $-1 $386 $622 #
straight-curve $-1 -22.82148182086668 -28.641134944538205 -3.5873557325951531 1 0 0 I I #
vertex $-1 $388 $623 #
straight-curve $-1 -22.82148182086668 28.641134944538205 -3.5873557325951531 -1 0 0 I I #
point $-1 -41.290505059888119 28.641134944538205 -3.5873557325951531 #
point $-1 -41.290505059888119 -28.641134944538205 -3.5873557325951531 #
coedge $-1 $537 $392 $395 $549 forward $380 $-1 #
coedge $-1 $392 $537 $399 $551 reversed $380 $-1 #
straight-curve $-1 -49.995422223578601 0 -0.34485226629066523 0 1 0 I I #
edge $-1 $397 0.34485226629066523 $542 3.5873557325951531 $395 $624 forward 7 unknown #
point $-1 -49.995422223578601 28.641134944538205 -0.34485226629066523 #
edge $-1 $400 0.34485226629066523 $540 3.5873557325951531 $547 $625 forward 7 unknown #
point $-1 -49.995422223578601 -28.641134944538205 -0.34485226629066523 #
straight-curve $-1 -41.290505059888119 28.641134944538205 -0.98305199972145463 0 0 -1 I I #
plane-surface $-1 49.995422223578601 0 0 -1 0 0 0 0 1 forward_v I I I I #
coedge $-1 $409 $408 $424 $566 reversed $153 $-1 #
edge $-1 $559 -28.641134944538205 $557 28.641134944538205 $408 $626 forward 7 unknown #
vertex $-1 $416 $627 #
straight-curve $-1 41.290505059888119 28.641134944538205 -0.98305199972145463 0 0 1 I I #
vertex $-1 $414 $628 #
straight-curve $-1 22.82148182086668 -28.641134944538205 -3.5873557325951531 1 0 0 I I #
straight-curve $-1 22.82148182086668 28.641134944538205 -3.5873557325951531 -1 0 0 I I #
point $-1 49.995422223578601 -28.641134944538205 -3.5873557325951531 #
point $-1 49.995422223578601 28.641134944538205 -3.5873557325951531 #
straight-curve $-1 41.290505059888119 0 -0.34485226629066523 0 -1 0 I I #
point $-1 41.290505059888119 28.641134944538205 -0.34485226629066523 #
edge $-1 $426 -0.6381997334307894 $559 2.6043037328736984 $424 $629 forward 7 unknown #
point $-1 41.290505059888119 -28.641134944538205 -0.34485226629066523 #
straight-curve $-1 49.995422223578601 -28.641134944538205 0 0 0 -1 I I #
straight-curve $-1 49.995422223578601 28.641134944538205 0 0 0 -1 I I #
edge $-1 $571 12.172970237295733 $574 17.213774151345376 $433 $630 forward 7 unknown #
vertex $-1 $570 $631 #
straight-curve $-1 -28.014536743630291 -28.641134944538205 44.199053520455919 0 0 1 I I #
edge $-1 $574 11.721118692495235 $444 20.865717409774881 $443 $632 forward 7 unknown #
vertex $-1 $573 $633 #
straight-curve $-1 -28.014536743630291 -28.641134944538209 3.6010622116074842 0 -0.84804809178421925 -0.52991927123019833 I I #
point $-1 -28.014536743630291 -28.641134944538205 3.6010622116074864 #
point $-1 -37.159135460909937 -23.600331030488562 6.750906144311239 #
straight-curve $-1 0 -28.641134944538205 6.750906144311239 1 0 0 I I #
vertex $-1 $450 $634 #
point $-1 -31.586836102270112 -24.919240863806461 3.2531948813217477 #
coedge $-1 $465 $464 $457 $582 forward $454 $-1 #
edge $-1 $583 12.172970237295733 $586 17.213774151345376 $581 $635 forward 7 unknown #
vertex $-1 $582 $636 #
straight-curve $-1 -7.3692842136862309 -28.641134944538205 44.199053520455919 0 0 1 I I #
edge $-1 $586 1.3984924275232045 $466 10.543091144802847 $465 $637 forward 7 unknown #
vertex $-1 $585 $638 #
straight-curve $-1 -7.3692842136862309 -28.641134944538209 3.6010622116074842 0 -0.84804809178421925 -0.52991927123019833 I I #
point $-1 -7.3692842136862309 -28.641134944538205 3.6010622116074864 #
point $-1 -16.513882930965874 -23.600331030488562 6.750906144311239 #
straight-curve $-1 0 -28.641134944538205 6.750906144311239 1 0 0 I I #
vertex $-1 $472 $639 #
point $-1 -10.941583572326053 -24.919240863806461 3.2531948813217477 #
coedge $-1 $487 $486 $479 $594 forward $476 $-1 #
edge $-1 $595 12.172970237295733 $598 17.213774151345376 $593 $640 forward 7 unknown #
vertex $-1 $594 $641 #
straight-curve $-1 13.275968316257828 -28.641134944538205 44.199053520455919 0 0 1 I I #
edge $-1 $598 -8.9241338374488244 $488 0.22046487983081864 $487 $642 forward 7 unknown #
vertex $-1 $597 $643 #
straight-curve $-1 13.275968316257828 -28.641134944538209 3.6010622116074842 0 -0.84804809178421925 -0.52991927123019833 I I #
point $-1 13.275968316257828 -28.641134944538205 3.6010622116074864 #
point $-1 4.1313695989781847 -23.600331030488562 6.750906144311239 #
straight-curve $-1 0 -28.641134944538205 6.750906144311239 1 0 0 I I #
vertex $-1 $494 $644 #
point $-1 9.7036689576180066 -24.919240863806461 3.2531948813217477 #
coedge $-1 $509 $508 $501 $606 forward $498 $-1 #
edge $-1 $607 12.172970237295733 $610 17.213774151345376 $605 $645 forward 7 unknown #
vertex $-1 $606 $646 #
straight-curve $-1 33.921220846201891 -28.641134944538205 44.199053520455919 0 0 1 I I #
edge $-1 $610 -19.246760102420858 $510 -10.102161385141212 $509 $647 forward 7 unknown #
vertex $-1 $609 $648 #
straight-curve $-1 33.921220846201891 -28.641134944538209 3.6010622116074842 0 -0.84804809178421925 -0.52991927123019833 I I #
point $-1 33.921220846201891 -28.641134944538205 3.6010622116074864 #
point $-1 24.776622128922245 -23.600331030488562 6.750906144311239 #
straight-curve $-1 0 -28.641134944538205 6.750906144311239 1 0 0 I I #
vertex $-1 $516 $649 #
point $-1 30.348921487562066 -24.919240863806461 3.2531948813217477 #
straight-curve $-1 -49.995422223578601 28.641134944538205 0 0 0 -1 I I #
point $-1 -49.995422223578601 -28.641134944538205 -6.750906144311239 #
straight-curve $-1 -49.995422223578601 0 -6.750906144311239 0 1 0 I I #
point $-1 -49.995422223578601 28.641134944538205 -6.750906144311239 #
straight-curve $-1 -49.995422223578601 0 -3.5873557325951531 0 -1 0 I I #
point $-1 -49.995422223578601 -28.641134944538205 -3.5873557325951531 #
point $-1 -49.995422223578601 28.641134944538205 -3.5873557325951531 #
straight-curve $-1 -49.995422223578601 28.641134944538205 0 0 0 -1 I I #
straight-curve $-1 -49.995422223578601 -28.641134944538205 0 0 0 -1 I I #
straight-curve $-1 41.290505059888119 0 -3.5873557325951531 0 1 0 I I #
point $-1 41.290505059888119 28.641134944538205 -3.5873557325951531 #
point $-1 41.290505059888119 -28.641134944538205 -3.5873557325951531 #
straight-curve $-1 41.290505059888119 -28.641134944538205 -0.98305199972145463 0 0 -1 I I #
straight-curve $-1 -28.014536743630291 -40.814105181833938 6.7509061443112373 0 1 0 I I #
point $-1 -28.014536743630291 -28.641134944538205 6.750906144311239 #
straight-curve $-1 -16.293418051135056 -23.600331030488562 6.750906144311239 -1 0 0 I I #
point $-1 -28.014536743630291 -23.600331030488562 6.750906144311239 #
point $-1 -32.586836102270112 -24.389321592576263 2.405146789537528 #
straight-curve $-1 -7.3692842136862309 -40.814105181833938 6.7509061443112373 0 1 0 I I #
point $-1 -7.3692842136862309 -28.641134944538205 6.750906144311239 #
straight-curve $-1 -5.9707917861630264 -23.600331030488562 6.750906144311239 -1 0 0 I I #
point $-1 -7.3692842136862309 -23.600331030488562 6.750906144311239 #
point $-1 -11.941583572326053 -24.389321592576263 2.405146789537528 #
straight-curve $-1 13.275968316257828 -40.814105181833938 6.7509061443112373 0 1 0 I I #
point $-1 13.275968316257828 -28.641134944538205 6.750906144311239 #
straight-curve $-1 4.3518344788090033 -23.600331030488562 6.750906144311239 -1 0 0 I I #
point $-1 13.275968316257828 -23.600331030488562 6.750906144311239 #
point $-1 8.7036689576180066 -24.389321592576263 2.405146789537528 #
straight-curve $-1 33.921220846201891 -40.814105181833938 6.7509061443112373 0 1 0 I I #
point $-1 33.921220846201891 -28.641134944538205 6.750906144311239 #
straight-curve $-1 14.674460743781033 -23.600331030488562 6.750906144311239 -1 0 0 I I #
point $-1 33.921220846201891 -23.600331030488562 6.750906144311239 #
point $-1 29.348921487562066 -24.389321592576263 2.405146789537528 #
End-of-ACIS-data 