500 0 10 0           
7 Unknown 11 ACIS 5.0 NT 24 Fri Mar 26 00:26:35 1999 
-1 9.9999999999999995e-007 1e-010 
body $-1 $10 $-1 $11 #
body $-1 $12 $-1 $13 #
body $-1 $14 $-1 $15 #
body $-1 $16 $-1 $17 #
body $-1 $18 $-1 $19 #
body $-1 $20 $-1 $21 #
body $-1 $22 $-1 $23 #
body $-1 $24 $-1 $25 #
body $-1 $26 $-1 $27 #
body $-1 $28 $-1 $29 #
lump $-1 $-1 $30 $0 #
transform $-1 1 0 0 0 1 0 0 0 1 70.850550859096046 29.453996970962265 7.3505102521027181 1 rotate no_reflect no_shear #
lump $-1 $-1 $31 $1 #
transform $-1 1 0 0 0 1 0 0 0 1 70.850550859096046 29.453996970962265 7.3505102521027181 1 rotate no_reflect no_shear #
lump $-1 $-1 $32 $2 #
transform $-1 1 0 0 0 1 0 0 0 1 70.850550859096046 29.453996970962265 7.3505102521027181 1 rotate no_reflect no_shear #
lump $-1 $-1 $33 $3 #
transform $-1 1 0 0 0 1 0 0 0 1 70.850550859096046 29.453996970962265 7.3505102521027181 1 rotate no_reflect no_shear #
lump $-1 $-1 $34 $4 #
transform $-1 1 0 0 0 1 0 0 0 1 70.850550859096046 29.453996970962265 7.3505102521027181 1 rotate no_reflect no_shear #
lump $-1 $-1 $35 $5 #
transform $-1 1 0 0 0 1 0 0 0 1 70.850550859096046 29.453996970962265 7.3505102521027181 1 rotate no_reflect no_shear #
lump $-1 $-1 $36 $6 #
transform $-1 1 0 0 0 1 0 0 0 1 70.850550859096046 29.453996970962265 7.3505102521027181 1 rotate no_reflect no_shear #
lump $-1 $-1 $37 $7 #
transform $-1 1 0 0 0 1 0 0 0 1 70.850550859096046 29.453996970962265 7.3505102521027181 1 rotate no_reflect no_shear #
lump $-1 $-1 $38 $8 #
transform $-1 1 0 0 0 1 0 0 0 1 70.850550859096046 29.453996970962265 7.3505102521027181 1 rotate no_reflect no_shear #
lump $-1 $-1 $39 $9 #
transform $-1 1 0 0 0 1 0 0 0 1 70.850550859096046 29.453996970962265 7.3505102521027181 1 rotate no_reflect no_shear #
shell $-1 $-1 $-1 $40 $-1 $10 #
shell $-1 $-1 $-1 $41 $-1 $12 #
shell $-1 $-1 $-1 $42 $-1 $14 #
shell $-1 $-1 $-1 $43 $-1 $16 #
shell $-1 $-1 $-1 $44 $-1 $18 #
shell $-1 $-1 $-1 $45 $-1 $20 #
shell $-1 $-1 $-1 $46 $-1 $22 #
shell $-1 $-1 $-1 $47 $-1 $24 #
shell $-1 $-1 $-1 $48 $-1 $26 #
shell $-1 $-1 $-1 $49 $-1 $28 #
face $-1 $50 $51 $30 $-1 $52 forward single #
face $-1 $53 $54 $31 $-1 $55 reversed single #
face $-1 $56 $57 $32 $-1 $58 reversed single #
face $-1 $59 $60 $33 $-1 $61 forward single #
face $-1 $62 $63 $34 $-1 $64 forward single #
face $-1 $65 $66 $35 $-1 $67 forward single #
face $-1 $68 $69 $36 $-1 $70 reversed single #
face $-1 $71 $72 $37 $-1 $73 forward single #
face $-1 $74 $75 $38 $-1 $76 forward single #
face $-1 $77 $78 $39 $-1 $79 forward single #
face $-1 $80 $81 $30 $-1 $82 reversed single #
loop $-1 $-1 $83 $40 #
plane-surface $-1 0 0 7.3505102521027181 0 0 1 1 0 0 forward_v I I I I #
face $-1 $84 $85 $31 $-1 $86 reversed single #
loop $-1 $-1 $87 $41 #
plane-surface $-1 -68.361366637626432 0 4.3505102521027181 0 0 1 1 0 0 forward_v I I I I #
face $-1 $88 $89 $32 $-1 $90 reversed single #
loop $-1 $-1 $91 $42 #
plane-surface $-1 -51.856923503279631 -114.73184986177101 115.70186536593691 -1 0 0 0 -0.6018150307709319 0.79863550430605224 forward_v I I I I #
face $-1 $92 $93 $33 $-1 $94 forward single #
loop $-1 $95 $96 $43 #
cone-surface $-1 -63.069130633581381 -25.88834504831102 4.4514006070633112 0 0.6018150307709319 -0.79863550430605224 0.5 0 0 1 I I 0 1 0.5 forward I I I I #
face $-1 $97 $98 $34 $-1 $99 forward single #
loop $-1 $100 $101 $44 #
cone-surface $-1 -58.864552959718225 -25.88834504831102 4.4514006070633112 0 0.6018150307709319 -0.79863550430605224 0.5 0 0 1 I I 0 1 0.5 forward I I I I #
face $-1 $102 $103 $35 $-1 $104 forward single #
loop $-1 $105 $106 $45 #
cone-surface $-1 -54.659975285855069 -25.88834504831102 4.4514006070633112 0 0.6018150307709319 -0.79863550430605224 0.5 0 0 1 I I 0 1 0.5 forward I I I I #
face $-1 $107 $108 $36 $-1 $109 reversed single #
loop $-1 $-1 $110 $46 #
plane-surface $-1 -58.864552959718225 -17.592018478504485 37.986050721318549 0 0.6018150307709319 0.79863550430605224 1 0 0 forward_v I I I I #
face $-1 $111 $112 $37 $-1 $113 forward single #
loop $-1 $114 $115 $47 #
cone-surface $-1 -63.069130633581381 25.888345048311017 4.4514006070633041 0 -0.6018150307709319 -0.79863550430605224 0.5 0 0 1 I I 0 1 0.5 forward I I I I #
face $-1 $116 $117 $38 $-1 $118 forward single #
loop $-1 $119 $120 $48 #
cone-surface $-1 -58.864552959718225 25.888345048311017 4.4514006070633041 0 -0.6018150307709319 -0.79863550430605224 0.5 0 0 1 I I 0 1 0.5 forward I I I I #
face $-1 $121 $122 $39 $-1 $123 forward single #
loop $-1 $124 $125 $49 #
cone-surface $-1 -54.659975285855069 25.888345048311017 4.4514006070633041 0 -0.6018150307709319 -0.79863550430605224 0.5 0 0 1 I I 0 1 0.5 forward I I I I #
face $-1 $126 $127 $30 $-1 $128 reversed single #
loop $-1 $-1 $129 $50 #
plane-surface $-1 0 0 -7.3505102521027181 0 0 1 1 0 0 forward_v I I I I #
coedge $-1 $130 $131 $132 $133 forward $51 $-1 #
face $-1 $134 $135 $31 $-1 $136 reversed single #
loop $-1 $-1 $137 $53 #
plane-surface $-1 -65.872182416156818 0 5.8505102521027181 -1 0 0 0 0 1 forward_v I I I I #
coedge $-1 $138 $139 $140 $141 forward $54 $-1 #
face $-1 $142 $143 $32 $-1 $144 forward single #
loop $-1 $-1 $145 $56 #
plane-surface $-1 -58.864552959718225 -29.45399697096228 2.5343345345053621 0 -0.6018150307709319 0.79863550430605224 1 0 0 forward_v I I I I #
coedge $-1 $146 $147 $148 $149 reversed $57 $-1 #
face $-1 $-1 $150 $33 $-1 $151 forward single #
loop $-1 $152 $153 $59 #
cone-surface $-1 -63.069130633581381 -25.367879827563652 3.760719944746076 0 0.6018150307709319 -0.79863550430605224 0.25 0 0 1 I I -0.70710678118654746 0.70710678118654746 0.25 forward I I I I #
loop $-1 $-1 $154 $43 #
coedge $-1 $96 $96 $155 $156 reversed $60 $-1 #
face $-1 $-1 $157 $34 $-1 $158 forward single #
loop $-1 $159 $160 $62 #
cone-surface $-1 -58.864552959718225 -25.367879827563652 3.760719944746076 0 0.6018150307709319 -0.79863550430605224 0.25 0 0 1 I I -0.70710678118654746 0.70710678118654746 0.25 forward I I I I #
loop $-1 $-1 $161 $44 #
coedge $-1 $101 $101 $162 $163 reversed $63 $-1 #
face $-1 $-1 $164 $35 $-1 $165 forward single #
loop $-1 $166 $167 $65 #
cone-surface $-1 -54.659975285855069 -25.367879827563652 3.760719944746076 0 0.6018150307709319 -0.79863550430605224 0.25 0 0 1 I I -0.70710678118654746 0.70710678118654746 0.25 forward I I I I #
loop $-1 $-1 $168 $45 #
coedge $-1 $106 $106 $169 $170 reversed $66 $-1 #
face $-1 $171 $172 $36 $-1 $173 forward single #
loop $-1 $-1 $174 $68 #
plane-surface $-1 -51.856923503279631 67.685834412304246 151.1535815527501 -1 0 0 0 0.6018150307709319 0.79863550430605224 forward_v I I I I #
coedge $-1 $175 $176 $177 $178 reversed $69 $-1 #
face $-1 $-1 $179 $37 $-1 $180 forward single #
loop $-1 $181 $182 $71 #
cone-surface $-1 -63.069130633581381 25.367879827563648 3.7607199447460689 0 -0.6018150307709319 -0.79863550430605224 0.25 0 0 1 I I -0.70710678118654746 0.70710678118654746 0.25 forward I I I I #
loop $-1 $-1 $183 $47 #
coedge $-1 $115 $115 $184 $185 reversed $72 $-1 #
face $-1 $-1 $186 $38 $-1 $187 forward single #
loop $-1 $188 $189 $74 #
cone-surface $-1 -58.864552959718225 25.367879827563648 3.7607199447460689 0 -0.6018150307709319 -0.79863550430605224 0.25 0 0 1 I I -0.70710678118654746 0.70710678118654746 0.25 forward I I I I #
loop $-1 $-1 $190 $48 #
coedge $-1 $120 $120 $191 $192 reversed $75 $-1 #
face $-1 $-1 $193 $39 $-1 $194 forward single #
loop $-1 $195 $196 $77 #
cone-surface $-1 -54.659975285855069 25.367879827563648 3.7607199447460689 0 -0.6018150307709319 -0.79863550430605224 0.25 0 0 1 I I -0.70710678118654746 0.70710678118654746 0.25 forward I I I I #
loop $-1 $-1 $197 $49 #
coedge $-1 $125 $125 $198 $199 reversed $78 $-1 #
face $-1 $200 $201 $30 $-1 $202 reversed single #
loop $-1 $-1 $203 $80 #
plane-surface $-1 0 -29.453996970962265 0 0 1 0 0 0 1 forward_v I I I I #
coedge $-1 $204 $205 $206 $207 forward $81 $-1 #
coedge $-1 $208 $83 $209 $210 forward $51 $-1 #
coedge $-1 $83 $208 $211 $212 forward $51 $-1 #
coedge $-1 $213 $214 $83 $133 reversed $215 $-1 #
edge $-1 $216 -29.453996970962265 $217 29.453996970962265 $132 $218 forward 7 unknown #
face $-1 $219 $220 $31 $-1 $221 reversed single #
loop $-1 $-1 $222 $84 #
plane-surface $-1 0 29.453996970962265 0 0 -1 0 0 0 -1 forward_v I I I I #
coedge $-1 $140 $223 $224 $225 reversed $85 $-1 #
coedge $-1 $226 $87 $227 $228 reversed $54 $-1 #
coedge $-1 $87 $226 $229 $230 reversed $54 $-1 #
coedge $-1 $231 $137 $87 $141 reversed $85 $-1 #
edge $-1 $232 -29.453996970962265 $233 29.453996970962265 $140 $234 forward 7 unknown #
face $-1 $235 $236 $32 $-1 $237 forward single #
loop $-1 $-1 $238 $88 #
plane-surface $-1 -65.872182416156818 0 5.8505102521027181 -1 0 0 0 0 1 forward_v I I I I #
coedge $-1 $239 $240 $241 $242 reversed $89 $-1 #
coedge $-1 $147 $91 $243 $244 reversed $57 $-1 #
coedge $-1 $91 $146 $239 $245 reversed $57 $-1 #
coedge $-1 $241 $246 $91 $149 forward $236 $-1 #
edge $-1 $247 27.91192795992324 $248 34.303208879116426 $148 $249 forward 7 unknown #
loop $-1 $-1 $155 $92 #
plane-surface $-1 -58.864552959718225 -29.45399697096228 2.5343345345053621 0 -0.6018150307709319 0.79863550430605224 1 0 0 forward_v I I I I #
loop $-1 $-1 $250 $59 #
coedge $-1 $153 $153 $154 $251 reversed $93 $-1 #
coedge $-1 $154 $154 $153 $251 forward $95 $-1 #
coedge $-1 $155 $155 $96 $156 forward $150 $-1 #
edge $-1 $252 -1.149710498241802e-015 $252 6.2831853071795996 $155 $253 forward 7 unknown #
loop $-1 $-1 $162 $97 #
plane-surface $-1 -58.864552959718225 -29.45399697096228 2.5343345345053621 0 -0.6018150307709319 0.79863550430605224 1 0 0 forward_v I I I I #
loop $-1 $-1 $254 $62 #
coedge $-1 $160 $160 $161 $255 reversed $98 $-1 #
coedge $-1 $161 $161 $160 $255 forward $100 $-1 #
coedge $-1 $162 $162 $101 $163 forward $157 $-1 #
edge $-1 $256 -1.149710498241802e-015 $256 6.2831853071795996 $162 $257 forward 7 unknown #
loop $-1 $-1 $169 $102 #
plane-surface $-1 -58.864552959718225 -29.45399697096228 2.5343345345053621 0 -0.6018150307709319 0.79863550430605224 1 0 0 forward_v I I I I #
loop $-1 $-1 $258 $65 #
coedge $-1 $167 $167 $168 $259 reversed $103 $-1 #
coedge $-1 $168 $168 $167 $259 forward $105 $-1 #
coedge $-1 $169 $169 $106 $170 forward $164 $-1 #
edge $-1 $260 -1.149710498241802e-015 $260 6.2831853071795996 $169 $261 forward 7 unknown #
face $-1 $262 $263 $36 $-1 $264 reversed single #
loop $-1 $-1 $177 $107 #
plane-surface $-1 0 0 7.3505102521027181 0 0 1 1 0 0 forward_v I I I I #
coedge $-1 $265 $266 $267 $268 reversed $108 $-1 #
coedge $-1 $269 $110 $270 $271 reversed $69 $-1 #
coedge $-1 $110 $269 $265 $272 forward $69 $-1 #
coedge $-1 $267 $273 $110 $178 forward $172 $-1 #
edge $-1 $274 -36.439905936297706 $275 -22.424647023420519 $177 $276 forward 7 unknown #
loop $-1 $-1 $184 $111 #
plane-surface $-1 -58.864552959718225 -17.592018478504485 37.986050721318549 0 0.6018150307709319 0.79863550430605224 1 0 0 forward_v I I I I #
loop $-1 $-1 $277 $71 #
coedge $-1 $182 $182 $183 $278 reversed $112 $-1 #
coedge $-1 $183 $183 $182 $278 forward $114 $-1 #
coedge $-1 $184 $184 $115 $185 forward $179 $-1 #
edge $-1 $279 1.5598380817483975e-015 $279 6.2831853071796022 $184 $280 forward 7 unknown #
loop $-1 $-1 $191 $116 #
plane-surface $-1 -58.864552959718225 -17.592018478504485 37.986050721318549 0 0.6018150307709319 0.79863550430605224 1 0 0 forward_v I I I I #
loop $-1 $-1 $281 $74 #
coedge $-1 $189 $189 $190 $282 reversed $117 $-1 #
coedge $-1 $190 $190 $189 $282 forward $119 $-1 #
coedge $-1 $191 $191 $120 $192 forward $186 $-1 #
edge $-1 $283 1.5598380817483975e-015 $283 6.2831853071796022 $191 $284 forward 7 unknown #
loop $-1 $-1 $198 $121 #
plane-surface $-1 -58.864552959718225 -17.592018478504485 37.986050721318549 0 0.6018150307709319 0.79863550430605224 1 0 0 forward_v I I I I #
loop $-1 $-1 $285 $77 #
coedge $-1 $196 $196 $197 $286 reversed $122 $-1 #
coedge $-1 $197 $197 $196 $286 forward $124 $-1 #
coedge $-1 $198 $198 $125 $199 forward $193 $-1 #
edge $-1 $287 1.5598380817483975e-015 $287 6.2831853071796022 $198 $288 forward 7 unknown #
face $-1 $289 $290 $30 $-1 $291 reversed single #
loop $-1 $-1 $292 $126 #
plane-surface $-1 -70.850550859096046 0 0 1 0 0 0 0 -1 forward_v I I I I #
coedge $-1 $293 $211 $294 $295 forward $127 $-1 #
coedge $-1 $296 $129 $293 $297 forward $81 $-1 #
coedge $-1 $129 $296 $298 $299 forward $81 $-1 #
coedge $-1 $214 $213 $129 $207 reversed $215 $-1 #
edge $-1 $300 -29.453996970962265 $301 29.453996970962265 $206 $302 forward 7 unknown #
coedge $-1 $131 $130 $303 $304 forward $51 $-1 #
coedge $-1 $305 $306 $130 $210 reversed $290 $-1 #
edge $-1 $217 -70.850550859096046 $307 70.850550859096046 $209 $308 forward 7 unknown #
coedge $-1 $203 $309 $131 $212 reversed $127 $-1 #
edge $-1 $310 -70.850550859096046 $216 70.850550859096046 $211 $311 forward 7 unknown #
coedge $-1 $206 $132 $309 $312 forward $215 $-1 #
coedge $-1 $132 $206 $305 $313 reversed $215 $-1 #
loop $-1 $-1 $213 $289 #
vertex $-1 $133 $314 #
vertex $-1 $133 $315 #
straight-curve $-1 70.850550859096046 0 7.3505102521027181 0 1 0 I I #
face $-1 $316 $317 $31 $-1 $318 forward single #
loop $-1 $-1 $319 $134 #
plane-surface $-1 -70.850550859096046 0 0 1 0 0 0 0 -1 forward_v I I I I #
coedge $-1 $229 $320 $231 $321 forward $135 $-1 #
coedge $-1 $137 $231 $322 $323 reversed $85 $-1 #
coedge $-1 $324 $227 $137 $225 forward $325 $-1 #
edge $-1 $233 1.4252551260513591 $326 4.4252551260513595 $224 $327 forward 7 unknown #
coedge $-1 $139 $138 $319 $328 reversed $54 $-1 #
coedge $-1 $224 $329 $138 $228 forward $325 $-1 #
edge $-1 $330 -36.66986754028283 $233 -31.691499097343602 $227 $331 forward 7 unknown #
coedge $-1 $332 $222 $139 $230 forward $135 $-1 #
edge $-1 $232 31.691499097343602 $333 36.66986754028283 $229 $334 forward 7 unknown #
coedge $-1 $223 $140 $222 $321 reversed $85 $-1 #
vertex $-1 $230 $335 #
vertex $-1 $228 $336 #
straight-curve $-1 -65.872182416156818 0 4.3505102521027181 0 -1 0 I I #
face $-1 $-1 $337 $32 $-1 $338 reversed single #
loop $-1 $-1 $241 $142 #
plane-surface $-1 0 0 7.3505102521027181 0 0 1 1 0 0 forward_v I I I I #
coedge $-1 $339 $340 $240 $341 reversed $143 $-1 #
coedge $-1 $342 $145 $147 $245 forward $89 $-1 #
coedge $-1 $145 $342 $238 $341 forward $89 $-1 #
coedge $-1 $343 $148 $145 $242 forward $236 $-1 #
edge $-1 $248 22.424647023420519 $344 36.439905936297706 $241 $345 forward 7 unknown #
coedge $-1 $346 $347 $146 $244 forward $337 $-1 #
edge $-1 $348 -55.316598148463086 $247 -50.50042243086574 $243 $349 forward 7 unknown #
edge $-1 $248 -8.0027507977455805 $348 -1.7763522597878294e-014 $147 $350 forward 7 unknown #
coedge $-1 $148 $343 $346 $351 forward $236 $-1 #
vertex $-1 $244 $352 #
vertex $-1 $149 $353 #
straight-curve $-1 -51.856923503279631 -57.365924930885505 7.3505102521027155 0 1 0 I I #
coedge $-1 $250 $250 $-1 $354 reversed $152 $-1 #
edge $-1 $355 0 $355 6.2831853071796004 $153 $356 forward 7 unknown #
vertex $-1 $156 $357 #
ellipse-curve $-1 -63.069130633581381 -26.258356511365665 4.9424223933040485 0 -0.6018150307709319 0.79863550430605224 0.5 0 0 1 I I #
coedge $-1 $254 $254 $-1 $358 reversed $159 $-1 #
edge $-1 $359 0 $359 6.2831853071796004 $160 $360 forward 7 unknown #
vertex $-1 $163 $361 #
ellipse-curve $-1 -58.864552959718225 -26.258356511365665 4.9424223933040485 0 -0.6018150307709319 0.79863550430605224 0.5 0 0 1 I I #
coedge $-1 $258 $258 $-1 $362 reversed $166 $-1 #
edge $-1 $363 0 $363 6.2831853071796004 $167 $364 forward 7 unknown #
vertex $-1 $170 $365 #
ellipse-curve $-1 -54.659975285855069 -26.258356511365665 4.9424223933040485 0 -0.6018150307709319 0.79863550430605224 0.5 0 0 1 I I #
face $-1 $-1 $366 $36 $-1 $367 forward single #
loop $-1 $-1 $368 $171 #
plane-surface $-1 0 29.453996970962265 0 0 -1 0 0 0 -1 forward_v I I I I #
coedge $-1 $266 $174 $176 $272 reversed $108 $-1 #
coedge $-1 $174 $265 $368 $369 reversed $108 $-1 #
coedge $-1 $370 $177 $174 $268 forward $172 $-1 #
edge $-1 $275 -10.780201154383036 $371 -4.3889202351898575 $267 $372 forward 7 unknown #
coedge $-1 $176 $175 $373 $374 reversed $69 $-1 #
coedge $-1 $375 $376 $175 $271 forward $366 $-1 #
edge $-1 $377 -42.213363029092775 $274 -34.210612231347234 $270 $378 forward 7 unknown #
edge $-1 $379 -58.907993941924516 $275 -50.905243144178968 $265 $380 forward 7 unknown #
coedge $-1 $177 $370 $375 $381 forward $172 $-1 #
vertex $-1 $271 $382 #
vertex $-1 $178 $383 #
straight-curve $-1 -29.432276479859112 23.062716051769083 7.350510252102719 1 0 0 I I #
coedge $-1 $277 $277 $-1 $384 reversed $181 $-1 #
edge $-1 $385 0 $385 6.2831853071796004 $182 $386 forward 7 unknown #
vertex $-1 $185 $387 #
ellipse-curve $-1 -63.069130633581381 26.258356511365669 4.9424223933040512 0 0.6018150307709319 0.79863550430605224 0.5 0 0 1 I I #
coedge $-1 $281 $281 $-1 $388 reversed $188 $-1 #
edge $-1 $389 0 $389 6.2831853071796004 $189 $390 forward 7 unknown #
vertex $-1 $192 $391 #
ellipse-curve $-1 -58.864552959718225 26.258356511365669 4.9424223933040512 0 0.6018150307709319 0.79863550430605224 0.5 0 0 1 I I #
coedge $-1 $285 $285 $-1 $392 reversed $195 $-1 #
edge $-1 $393 0 $393 6.2831853071796004 $196 $394 forward 7 unknown #
vertex $-1 $199 $395 #
ellipse-curve $-1 -54.659975285855069 26.258356511365669 4.9424223933040512 0 0.6018150307709319 0.79863550430605224 0.5 0 0 1 I I #
face $-1 $-1 $215 $30 $-1 $396 reversed single #
loop $-1 $-1 $305 $200 #
plane-surface $-1 0 29.453996970962265 0 0 -1 0 0 0 -1 forward_v I I I I #
coedge $-1 $397 $303 $306 $398 forward $201 $-1 #
coedge $-1 $309 $203 $204 $297 reversed $127 $-1 #
coedge $-1 $303 $397 $203 $295 reversed $201 $-1 #
edge $-1 $310 -7.3505102521027181 $399 7.3505102521027181 $294 $400 forward 7 unknown #
coedge $-1 $205 $204 $397 $401 forward $81 $-1 #
edge $-1 $301 -70.850550859096046 $399 70.850550859096046 $293 $402 forward 7 unknown #
coedge $-1 $306 $305 $205 $299 reversed $290 $-1 #
edge $-1 $403 -70.850550859096046 $300 70.850550859096046 $298 $404 forward 7 unknown #
vertex $-1 $207 $405 #
vertex $-1 $312 $406 #
straight-curve $-1 70.850550859096046 0 -7.3505102521027181 0 -1 0 I I #
coedge $-1 $292 $294 $208 $304 reversed $201 $-1 #
edge $-1 $307 -29.453996970962265 $310 29.453996970962265 $303 $407 forward 7 unknown #
coedge $-1 $298 $209 $214 $313 forward $290 $-1 #
coedge $-1 $209 $298 $292 $398 reversed $290 $-1 #
vertex $-1 $210 $408 #
straight-curve $-1 0 29.453996970962265 7.3505102521027181 -1 0 0 I I #
coedge $-1 $211 $293 $213 $312 reversed $127 $-1 #
vertex $-1 $304 $409 #
straight-curve $-1 0 -29.453996970962265 7.3505102521027181 1 0 0 I I #
edge $-1 $216 -7.3505102521027181 $301 7.3505102521027181 $213 $410 forward 7 unknown #
edge $-1 $217 -7.3505102521027181 $300 7.3505102521027181 $214 $411 forward 7 unknown #
point $-1 70.850550859096046 -29.453996970962265 7.3505102521027181 #
point $-1 70.850550859096046 29.453996970962265 7.3505102521027181 #
face $-1 $-1 $325 $31 $-1 $412 reversed single #
loop $-1 $-1 $322 $219 #
plane-surface $-1 0 0 7.3505102521027181 0 0 1 1 0 0 forward_v I I I I #
coedge $-1 $413 $414 $226 $328 forward $220 $-1 #
coedge $-1 $222 $332 $415 $416 reversed $135 $-1 #
edge $-1 $417 -4.4252551260513595 $232 -1.4252551260513591 $222 $418 forward 7 unknown #
coedge $-1 $415 $419 $223 $323 forward $317 $-1 #
edge $-1 $326 -29.453996970962265 $417 29.453996970962265 $322 $420 forward 7 unknown #
coedge $-1 $329 $224 $419 $421 reversed $325 $-1 #
loop $-1 $-1 $224 $316 #
vertex $-1 $225 $422 #
straight-curve $-1 -65.872182416156818 -29.453996970962265 2.9252551260513591 0 0 1 I I #
edge $-1 $333 -29.453996970962265 $330 29.453996970962265 $319 $423 forward 7 unknown #
coedge $-1 $227 $324 $413 $424 forward $325 $-1 #
vertex $-1 $328 $425 #
straight-curve $-1 -34.180683318813216 -29.453996970962265 4.3505102521027181 1 0 0 I I #
coedge $-1 $320 $229 $414 $426 reversed $135 $-1 #
vertex $-1 $328 $427 #
straight-curve $-1 -34.180683318813216 29.453996970962265 4.3505102521027181 -1 0 0 I I #
point $-1 -65.872182416156818 29.453996970962265 4.3505102521027181 #
point $-1 -65.872182416156818 -29.453996970962265 4.3505102521027181 #
loop $-1 $-1 $243 $235 #
plane-surface $-1 0 -29.453996970962265 0 0 1 0 0 0 1 forward_v I I I I #
coedge $-1 $340 $238 $428 $429 reversed $143 $-1 #
coedge $-1 $238 $339 $343 $430 reversed $143 $-1 #
edge $-1 $431 1.7763522597878294e-014 $344 8.0027507977455805 $238 $432 forward 7 unknown #
coedge $-1 $240 $239 $347 $433 reversed $89 $-1 #
coedge $-1 $246 $241 $340 $430 forward $236 $-1 #
vertex $-1 $430 $434 #
straight-curve $-1 -29.432276479859112 -23.062716051769076 7.3505102521027181 -1 0 0 I I #
coedge $-1 $428 $243 $246 $351 reversed $337 $-1 #
coedge $-1 $243 $428 $342 $433 forward $337 $-1 #
vertex $-1 $244 $435 #
straight-curve $-1 -51.856923503279631 -29.453996970962265 57.850932682968455 0 0 1 I I #
straight-curve $-1 -51.856923503279631 -29.45399697096228 2.5343345345053621 0 -0.79863550430605224 -0.6018150307709319 I I #
edge $-1 $436 -65.872182416156818 $247 -51.856923503279631 $346 $437 forward 7 unknown #
point $-1 -51.856923503279631 -29.453996970962265 7.3505102521027181 #
point $-1 -51.856923503279631 -23.062716051769076 7.3505102521027181 #
edge $-1 $438 1 $438 0 $250 $-1 forward 7 unknown #
vertex $-1 $251 $439 #
ellipse-curve $-1 -63.069130633581381 -25.518333585256386 3.960378820822589 0 -0.6018150307709319 0.79863550430605224 0.5 0 0 1 I I #
point $-1 -62.569130633581381 -26.258356511365655 4.9424223933040334 #
edge $-1 $440 1 $440 0 $254 $-1 forward 7 unknown #
vertex $-1 $255 $441 #
ellipse-curve $-1 -58.864552959718225 -25.518333585256386 3.960378820822589 0 -0.6018150307709319 0.79863550430605224 0.5 0 0 1 I I #
point $-1 -58.364552959718225 -26.258356511365655 4.9424223933040334 #
edge $-1 $442 1 $442 0 $258 $-1 forward 7 unknown #
vertex $-1 $259 $443 #
ellipse-curve $-1 -54.659975285855069 -25.518333585256386 3.960378820822589 0 -0.6018150307709319 0.79863550430605224 0.5 0 0 1 I I #
point $-1 -54.159975285855069 -26.258356511365655 4.9424223933040334 #
loop $-1 $-1 $270 $262 #
plane-surface $-1 -65.872182416156818 0 5.8505102521027181 -1 0 0 0 0 1 forward_v I I I I #
coedge $-1 $373 $444 $266 $369 forward $263 $-1 #
edge $-1 $371 68.226280524272326 $379 73.042456241869672 $368 $445 forward 7 unknown #
coedge $-1 $273 $267 $444 $446 forward $172 $-1 #
vertex $-1 $446 $447 #
straight-curve $-1 -51.856923503279631 33.842917206152123 7.3505102521027226 0 1 0 I I #
coedge $-1 $448 $368 $269 $374 forward $263 $-1 #
edge $-1 $379 22.424647023420519 $377 36.439905936297706 $373 $449 forward 7 unknown #
coedge $-1 $376 $270 $273 $381 reversed $366 $-1 #
coedge $-1 $270 $375 $448 $450 reversed $366 $-1 #
vertex $-1 $450 $451 #
straight-curve $-1 -65.872182416156818 -4.2590935002317032 27.938970904803369 0 -0.79863550430605224 0.6018150307709319 I I #
vertex $-1 $374 $452 #
straight-curve $-1 -51.856923503279631 -17.592018478504485 37.986050721318549 0 -0.79863550430605224 0.6018150307709319 I I #
edge $-1 $453 -29.453996970962265 $274 -23.062716051769087 $273 $454 forward 7 unknown #
point $-1 -65.872182416156818 23.062716051769087 7.3505102521027155 #
point $-1 -51.856923503279631 23.062716051769087 7.3505102521027155 #
edge $-1 $455 1 $455 0 $277 $-1 forward 7 unknown #
vertex $-1 $278 $456 #
ellipse-curve $-1 -63.069130633581381 25.518333585256382 3.9603788208225819 0 0.6018150307709319 0.79863550430605224 0.5 0 0 1 I I #
point $-1 -62.569130633581381 26.258356511365651 4.9424223933040263 #
edge $-1 $457 1 $457 0 $281 $-1 forward 7 unknown #
vertex $-1 $282 $458 #
ellipse-curve $-1 -58.864552959718225 25.518333585256382 3.9603788208225819 0 0.6018150307709319 0.79863550430605224 0.5 0 0 1 I I #
point $-1 -58.364552959718225 26.258356511365651 4.9424223933040263 #
edge $-1 $459 1 $459 0 $285 $-1 forward 7 unknown #
vertex $-1 $286 $460 #
ellipse-curve $-1 -54.659975285855069 25.518333585256382 3.9603788208225819 0 0.6018150307709319 0.79863550430605224 0.5 0 0 1 I I #
point $-1 -54.159975285855069 26.258356511365651 4.9424223933040263 #
plane-surface $-1 70.850550859096046 0 0 -1 0 0 0 0 1 forward_v I I I I #
coedge $-1 $294 $292 $296 $401 reversed $201 $-1 #
edge $-1 $307 -7.3505102521027181 $403 7.3505102521027181 $306 $461 forward 7 unknown #
vertex $-1 $401 $462 #
straight-curve $-1 -70.850550859096046 -29.453996970962265 0 0 0 -1 I I #
edge $-1 $399 -29.453996970962265 $403 29.453996970962265 $397 $463 forward 7 unknown #
straight-curve $-1 0 -29.453996970962265 -7.3505102521027181 -1 0 0 I I #
vertex $-1 $299 $464 #
straight-curve $-1 0 29.453996970962265 -7.3505102521027181 1 0 0 I I #
point $-1 70.850550859096046 29.453996970962265 -7.3505102521027181 #
point $-1 70.850550859096046 -29.453996970962265 -7.3505102521027181 #
straight-curve $-1 -70.850550859096046 0 7.3505102521027181 0 -1 0 I I #
point $-1 -70.850550859096046 29.453996970962265 7.3505102521027181 #
point $-1 -70.850550859096046 -29.453996970962265 7.3505102521027181 #
straight-curve $-1 70.850550859096046 -29.453996970962265 0 0 0 -1 I I #
straight-curve $-1 70.850550859096046 29.453996970962265 0 0 0 -1 I I #
plane-surface $-1 0 -29.453996970962265 0 0 1 0 0 0 1 forward_v I I I I #
coedge $-1 $465 $319 $329 $424 reversed $220 $-1 #
coedge $-1 $319 $465 $332 $426 forward $220 $-1 #
coedge $-1 $466 $322 $320 $416 forward $317 $-1 #
edge $-1 $417 65.872182416156818 $467 70.850550859096046 $320 $468 forward 7 unknown #
vertex $-1 $416 $469 #
straight-curve $-1 -65.872182416156818 29.453996970962265 2.9252551260513591 0 0 -1 I I #
coedge $-1 $322 $466 $324 $421 forward $317 $-1 #
straight-curve $-1 -65.872182416156818 0 7.3505102521027181 0 1 0 I I #
edge $-1 $470 -70.850550859096046 $326 -65.872182416156818 $324 $471 forward 7 unknown #
point $-1 -65.872182416156818 -29.453996970962265 7.3505102521027181 #
straight-curve $-1 -70.850550859096046 0 4.3505102521027181 0 -1 0 I I #
edge $-1 $470 -7.3505102521027181 $330 -4.3505102521027181 $413 $472 forward 7 unknown #
point $-1 -70.850550859096046 -29.453996970962265 4.3505102521027181 #
edge $-1 $467 -7.3505102521027181 $333 -4.3505102521027181 $332 $473 forward 7 unknown #
point $-1 -70.850550859096046 29.453996970962265 4.3505102521027181 #
coedge $-1 $347 $346 $339 $429 forward $337 $-1 #
edge $-1 $436 50.50042243086574 $431 55.316598148463086 $428 $474 forward 7 unknown #
edge $-1 $344 23.062716051769076 $436 29.453996970962265 $343 $475 forward 7 unknown #
vertex $-1 $429 $476 #
straight-curve $-1 -65.872182416156818 -29.45399697096228 2.5343345345053621 0 0.79863550430605224 0.6018150307709319 I I #
edge $-1 $431 -36.439905936297706 $348 -22.424647023420519 $347 $477 forward 7 unknown #
point $-1 -65.872182416156818 -23.062716051769076 7.3505102521027181 #
point $-1 -51.856923503279631 -29.453996970962265 2.5343345345053727 #
vertex $-1 $351 $478 #
straight-curve $-1 0 -29.453996970962265 7.3505102521027181 1 0 0 I I #
vertex $-1 $354 $479 #
point $-1 -62.569130633581381 -25.518333585256386 3.960378820822589 #
vertex $-1 $358 $480 #
point $-1 -58.364552959718225 -25.518333585256386 3.960378820822589 #
vertex $-1 $362 $481 #
point $-1 -54.159975285855069 -25.518333585256386 3.960378820822589 #
coedge $-1 $368 $448 $370 $446 reversed $263 $-1 #
straight-curve $-1 -51.856923503279631 29.453996970962265 75.576790776375049 0 0 -1 I I #
edge $-1 $371 51.856923503279631 $453 65.872182416156818 $444 $482 forward 7 unknown #
point $-1 -51.856923503279631 29.453996970962265 7.3505102521027181 #
coedge $-1 $444 $373 $376 $450 forward $263 $-1 #
straight-curve $-1 -29.432276479859112 29.453996970962262 2.5343345345053834 -1 0 0 I I #
edge $-1 $377 -73.042456241869672 $453 -68.226280524272326 $448 $483 forward 7 unknown #
point $-1 -65.872182416156818 29.453996970962265 2.5343345345053834 #
point $-1 -51.856923503279631 29.453996970962265 2.5343345345053834 #
vertex $-1 $381 $484 #
straight-curve $-1 -65.872182416156818 0 7.3505102521027181 0 -1 0 I I #
vertex $-1 $384 $485 #
point $-1 -62.569130633581381 25.518333585256382 3.9603788208225819 #
vertex $-1 $388 $486 #
point $-1 -58.364552959718225 25.518333585256382 3.9603788208225819 #
vertex $-1 $392 $487 #
point $-1 -54.159975285855069 25.518333585256382 3.9603788208225819 #
straight-curve $-1 -70.850550859096046 29.453996970962265 0 0 0 -1 I I #
point $-1 -70.850550859096046 -29.453996970962265 -7.3505102521027181 #
straight-curve $-1 -70.850550859096046 0 -7.3505102521027181 0 1 0 I I #
point $-1 -70.850550859096046 29.453996970962265 -7.3505102521027181 #
coedge $-1 $414 $413 $466 $488 reversed $220 $-1 #
coedge $-1 $419 $415 $465 $488 forward $317 $-1 #
vertex $-1 $416 $489 #
straight-curve $-1 0 29.453996970962265 7.3505102521027181 -1 0 0 I I #
point $-1 -65.872182416156818 29.453996970962265 7.3505102521027181 #
vertex $-1 $488 $490 #
straight-curve $-1 0 -29.453996970962265 7.3505102521027181 1 0 0 I I #
straight-curve $-1 -70.850550859096046 -29.453996970962265 0 0 0 -1 I I #
straight-curve $-1 -70.850550859096046 29.453996970962265 0 0 0 -1 I I #
straight-curve $-1 -65.872182416156818 -29.453996970962265 57.850932682968455 0 0 -1 I I #
straight-curve $-1 -65.872182416156818 0 7.3505102521027181 0 -1 0 I I #
point $-1 -65.872182416156818 -29.453996970962265 2.5343345345053727 #
straight-curve $-1 -29.432276479859112 -29.453996970962265 2.5343345345053723 1 0 0 I I #
point $-1 -65.872182416156818 -29.453996970962265 7.3505102521027181 #
point $-1 -63.069130633581381 -25.217426069870918 3.561061068669563 #
point $-1 -58.864552959718225 -25.217426069870918 3.561061068669563 #
point $-1 -54.659975285855069 -25.217426069870918 3.561061068669563 #
straight-curve $-1 0 29.453996970962265 7.3505102521027181 -1 0 0 I I #
straight-curve $-1 -65.872182416156818 29.453996970962265 75.576790776375049 0 0 1 I I #
point $-1 -65.872182416156818 29.453996970962265 7.3505102521027181 #
point $-1 -63.069130633581381 25.217426069870914 3.5610610686695559 #
point $-1 -58.864552959718225 25.217426069870914 3.5610610686695559 #
point $-1 -54.659975285855069 25.217426069870914 3.5610610686695559 #
edge $-1 $467 -29.453996970962265 $470 29.453996970962265 $465 $491 forward 7 unknown #
point $-1 -70.850550859096046 29.453996970962265 7.3505102521027181 #
point $-1 -70.850550859096046 -29.453996970962265 7.3505102521027181 #
straight-curve $-1 -70.850550859096046 0 7.3505102521027181 0 -1 0 I I #
End-of-ACIS-data 