500 0 4 0           
7 Unknown 11 ACIS 5.0 NT 24 Fri Mar 26 00:35:38 1999 
-1 9.9999999999999995e-007 1e-010 
body $-1 $4 $-1 $5 #
body $-1 $6 $-1 $7 #
body $-1 $8 $-1 $9 #
body $-1 $10 $-1 $11 #
lump $-1 $-1 $12 $0 #
transform $-1 1 0 0 0 1 0 0 0 1 49.425336466566975 27.693242129518616 6.8441616287440024 1 rotate no_reflect no_shear #
lump $-1 $-1 $13 $1 #
transform $-1 1 0 0 0 1 0 0 0 1 49.425336466566975 27.693242129518616 6.8441616287440024 1 rotate no_reflect no_shear #
lump $-1 $-1 $14 $2 #
transform $-1 1 0 0 0 1 0 0 0 1 49.425336466566975 27.693242129518616 6.8441616287440024 1 rotate no_reflect no_shear #
lump $-1 $-1 $15 $3 #
transform $-1 1 0 0 0 1 0 0 0 1 49.425336466566975 27.693242129518616 6.8441616287440024 1 rotate no_reflect no_shear #
shell $-1 $-1 $-1 $16 $-1 $4 #
shell $-1 $-1 $-1 $17 $-1 $6 #
shell $-1 $-1 $-1 $18 $-1 $8 #
shell $-1 $-1 $-1 $19 $-1 $10 #
face $-1 $20 $21 $12 $-1 $22 forward single #
face $-1 $23 $24 $13 $-1 $25 reversed single #
face $-1 $26 $27 $14 $-1 $28 forward single #
face $-1 $29 $30 $15 $-1 $31 reversed single #
face $-1 $32 $33 $12 $-1 $34 reversed single #
loop $-1 $-1 $35 $16 #
plane-surface $-1 0 0 6.8441616287440024 0 0 1 1 0 0 forward_v I I I I #
face $-1 $36 $37 $13 $-1 $38 reversed single #
loop $-1 $-1 $39 $17 #
plane-surface $-1 0 -30.046936509691292 3.8441616287440024 0 0 1 1 0 0 forward_v I I I I #
face $-1 $40 $41 $14 $-1 $42 forward single #
loop $-1 $-1 $43 $18 #
plane-surface $-1 59.177011602965408 -16.613681963163252 141.49758212289137 0 -1 0 -0.75470958851134928 0 -0.65605901945558964 forward_v I I I I #
face $-1 $44 $45 $15 $-1 $46 reversed single #
loop $-1 $47 $48 $19 #
cone-surface $-1 46.36279151889466 -19.799767666168258 3.5952694913905949 -0.75470958851134928 0 -0.65605901945558964 0.98408852918338452 0 -1.132064382767024 1 I I 0 1 1.5 forward I I I I #
face $-1 $49 $50 $12 $-1 $51 reversed single #
loop $-1 $-1 $52 $20 #
plane-surface $-1 0 0 -6.8441616287440024 0 0 1 1 0 0 forward_v I I I I #
coedge $-1 $53 $54 $55 $56 forward $21 $-1 #
face $-1 $57 $58 $13 $-1 $59 forward single #
loop $-1 $-1 $60 $23 #
plane-surface $-1 0 -32.400630889863969 5.3441616287440024 0 1 0 0 0 1 forward_v I I I I #
coedge $-1 $61 $62 $63 $64 forward $24 $-1 #
face $-1 $65 $66 $14 $-1 $67 forward single #
loop $-1 $-1 $68 $26 #
plane-surface $-1 -15.426539090470087 -19.799767666168258 76.645706565854312 0.75470958851134928 0 0.65605901945558964 0.65605901945558964 0 -0.75470958851134928 forward_v I I I I #
coedge $-1 $69 $70 $71 $72 reversed $27 $-1 #
face $-1 $73 $74 $15 $-1 $75 forward single #
loop $-1 $76 $77 $29 #
cone-surface $-1 44.821374286027989 -19.799767666168258 2.255335967608092 -0.75470958851134928 0 -0.65605901945558964 0.49204426459169226 0 -0.56603219138351202 1 I I -0.70710678118654757 0.70710678118654757 0.75 forward I I I I #
loop $-1 $-1 $78 $19 #
coedge $-1 $48 $48 $79 $80 reversed $30 $-1 #
face $-1 $81 $82 $12 $-1 $83 reversed single #
loop $-1 $-1 $84 $32 #
plane-surface $-1 0 -27.693242129518616 0 0 1 0 0 0 1 forward_v I I I I #
coedge $-1 $85 $86 $87 $88 forward $33 $-1 #
coedge $-1 $89 $35 $90 $91 forward $21 $-1 #
coedge $-1 $35 $89 $92 $93 forward $21 $-1 #
coedge $-1 $94 $95 $35 $56 reversed $96 $-1 #
edge $-1 $97 -27.693242129518616 $98 27.693242129518616 $55 $99 forward 7 unknown #
face $-1 $100 $101 $13 $-1 $102 reversed single #
loop $-1 $-1 $103 $36 #
plane-surface $-1 0 0 6.8441616287440024 0 0 1 1 0 0 forward_v I I I I #
coedge $-1 $104 $105 $106 $107 forward $37 $-1 #
coedge $-1 $108 $39 $104 $109 forward $24 $-1 #
coedge $-1 $39 $108 $110 $111 reversed $24 $-1 #
coedge $-1 $112 $113 $39 $64 reversed $114 $-1 #
edge $-1 $115 -2.3536943801726764 $116 2.3536943801726764 $63 $117 forward 7 unknown #
face $-1 $118 $119 $14 $-1 $120 forward single #
loop $-1 $-1 $121 $40 #
plane-surface $-1 59.177011602965408 -22.985853369173263 141.49758212289137 0 1 0 0.75470958851134928 0 0.65605901945558964 forward_v I I I I #
coedge $-1 $122 $123 $124 $125 reversed $41 $-1 #
coedge $-1 $70 $43 $123 $126 forward $27 $-1 #
coedge $-1 $43 $69 $127 $128 reversed $27 $-1 #
coedge $-1 $129 $124 $43 $72 forward $119 $-1 #
edge $-1 $130 15.662510852705971 $131 19.836830665084271 $71 $132 forward 7 unknown #
face $-1 $133 $134 $15 $-1 $135 forward single #
loop $-1 $-1 $136 $44 #
plane-surface $-1 59.177011602965408 -16.613681963163252 141.49758212289137 0 -1 0 -0.75470958851134928 0 -0.65605901945558964 forward_v I I I I #
loop $-1 $-1 $137 $29 #
coedge $-1 $77 $77 $78 $138 forward $45 $-1 #
coedge $-1 $78 $78 $77 $138 reversed $47 $-1 #
coedge $-1 $79 $79 $48 $80 forward $134 $-1 #
edge $-1 $139 0 $139 6.2831853071796004 $79 $140 forward 7 unknown #
face $-1 $141 $142 $12 $-1 $143 reversed single #
loop $-1 $-1 $144 $49 #
plane-surface $-1 -49.425336466566975 0 0 1 0 0 0 0 -1 forward_v I I I I #
coedge $-1 $145 $92 $146 $147 forward $50 $-1 #
coedge $-1 $148 $52 $145 $149 forward $33 $-1 #
coedge $-1 $52 $148 $150 $151 forward $33 $-1 #
coedge $-1 $95 $94 $52 $88 reversed $96 $-1 #
edge $-1 $152 -27.693242129518616 $153 27.693242129518616 $87 $154 forward 7 unknown #
coedge $-1 $54 $53 $155 $156 forward $21 $-1 #
coedge $-1 $157 $158 $53 $91 reversed $142 $-1 #
edge $-1 $98 -49.425336466566975 $159 49.425336466566975 $90 $160 forward 7 unknown #
coedge $-1 $84 $161 $54 $93 reversed $50 $-1 #
edge $-1 $162 -49.425336466566975 $97 49.425336466566975 $92 $163 forward 7 unknown #
coedge $-1 $87 $55 $161 $164 forward $96 $-1 #
coedge $-1 $55 $87 $157 $165 reversed $96 $-1 #
loop $-1 $-1 $94 $141 #
vertex $-1 $56 $166 #
vertex $-1 $56 $167 #
straight-curve $-1 49.425336466566975 0 6.8441616287440024 0 1 0 I I #
face $-1 $168 $169 $13 $-1 $170 reversed single #
loop $-1 $-1 $171 $57 #
plane-surface $-1 0 0 -6.8441616287440024 0 0 1 1 0 0 forward_v I I I I #
coedge $-1 $172 $173 $174 $175 forward $58 $-1 #
coedge $-1 $176 $60 $61 $109 reversed $37 $-1 #
coedge $-1 $60 $176 $173 $177 reversed $37 $-1 #
coedge $-1 $178 $179 $60 $107 reversed $180 $-1 #
edge $-1 $181 -1.5 $182 1.5 $106 $183 forward 7 unknown #
coedge $-1 $62 $61 $179 $184 forward $24 $-1 #
edge $-1 $116 -49.425336466566975 $182 49.425336466566975 $104 $185 forward 7 unknown #
coedge $-1 $186 $187 $62 $111 forward $169 $-1 #
edge $-1 $115 -49.425336466566975 $188 49.425336466566975 $110 $189 forward 7 unknown #
coedge $-1 $190 $63 $187 $191 forward $114 $-1 #
coedge $-1 $63 $174 $176 $192 forward $114 $-1 #
loop $-1 $-1 $112 $193 #
vertex $-1 $191 $194 #
vertex $-1 $192 $195 #
straight-curve $-1 49.425336466566975 -30.046936509691292 3.8441616287440024 0 -1 0 I I #
face $-1 $196 $197 $14 $-1 $198 reversed single #
loop $-1 $-1 $199 $65 #
plane-surface $-1 0 0 6.8441616287440024 0 0 1 1 0 0 forward_v I I I I #
coedge $-1 $200 $201 $199 $202 reversed $66 $-1 #
coedge $-1 $203 $68 $201 $204 reversed $41 $-1 #
coedge $-1 $68 $203 $69 $126 reversed $41 $-1 #
coedge $-1 $71 $199 $68 $125 forward $119 $-1 #
edge $-1 $205 -13.085969536089134 $130 -6.7137981300791232 $124 $206 forward 7 unknown #
edge $-1 $130 92.487952981745721 $207 98.850672933133993 $69 $208 forward 7 unknown #
coedge $-1 $209 $210 $70 $128 forward $211 $-1 #
edge $-1 $131 63.904629432701682 $207 68.706635189026883 $127 $212 forward 7 unknown #
coedge $-1 $213 $71 $210 $214 forward $119 $-1 #
vertex $-1 $125 $215 #
vertex $-1 $214 $216 #
straight-curve $-1 29.588505801482704 -16.613681963163252 6.8441616287440041 1 0 0 I I #
face $-1 $217 $218 $15 $-1 $219 forward single #
loop $-1 $220 $79 $73 #
plane-surface $-1 -15.426539090470087 -19.799767666168258 76.645706565854312 0.75470958851134928 0 0.65605901945558964 0.65605901945558964 0 -0.75470958851134928 forward_v I I I I #
coedge $-1 $221 $222 $223 $224 reversed $74 $-1 #
coedge $-1 $137 $137 $-1 $225 forward $76 $-1 #
edge $-1 $226 0 $226 6.2831853071796004 $77 $227 forward 7 unknown #
vertex $-1 $80 $228 #
ellipse-curve $-1 47.338176560377825 -19.799767666168258 4.4431587505814099 -0.75470958851134928 0 -0.65605901945558964 0.98408852918338452 0 -1.132064382767024 1 I I #
face $-1 $-1 $96 $12 $-1 $229 reversed single #
loop $-1 $-1 $157 $81 #
plane-surface $-1 0 27.693242129518616 0 0 -1 0 0 0 -1 forward_v I I I I #
coedge $-1 $230 $155 $158 $231 forward $82 $-1 #
coedge $-1 $161 $84 $85 $149 reversed $50 $-1 #
coedge $-1 $155 $230 $84 $147 reversed $82 $-1 #
edge $-1 $162 -6.8441616287440024 $232 6.8441616287440024 $146 $233 forward 7 unknown #
coedge $-1 $86 $85 $230 $234 forward $33 $-1 #
edge $-1 $153 -49.425336466566975 $232 49.425336466566975 $145 $235 forward 7 unknown #
coedge $-1 $158 $157 $86 $151 reversed $142 $-1 #
edge $-1 $236 -49.425336466566975 $152 49.425336466566975 $150 $237 forward 7 unknown #
vertex $-1 $88 $238 #
vertex $-1 $164 $239 #
straight-curve $-1 49.425336466566975 0 -6.8441616287440024 0 -1 0 I I #
coedge $-1 $144 $146 $89 $156 reversed $82 $-1 #
edge $-1 $159 -27.693242129518616 $162 27.693242129518616 $155 $240 forward 7 unknown #
coedge $-1 $150 $90 $95 $165 forward $142 $-1 #
coedge $-1 $90 $150 $144 $231 reversed $142 $-1 #
vertex $-1 $91 $241 #
straight-curve $-1 0 27.693242129518616 6.8441616287440024 -1 0 0 I I #
coedge $-1 $92 $145 $94 $164 reversed $50 $-1 #
vertex $-1 $156 $242 #
straight-curve $-1 0 -27.693242129518616 6.8441616287440024 1 0 0 I I #
edge $-1 $97 -6.8441616287440024 $153 6.8441616287440024 $94 $243 forward 7 unknown #
edge $-1 $98 -6.8441616287440024 $152 6.8441616287440024 $95 $244 forward 7 unknown #
point $-1 49.425336466566975 -27.693242129518616 6.8441616287440024 #
point $-1 49.425336466566975 27.693242129518616 6.8441616287440024 #
face $-1 $245 $180 $13 $-1 $246 reversed single #
loop $-1 $-1 $110 $100 #
plane-surface $-1 0 -27.693242129518616 0 0 1 0 0 0 1 forward_v I I I I #
coedge $-1 $247 $248 $190 $249 forward $101 $-1 #
coedge $-1 $250 $103 $251 $252 forward $58 $-1 #
coedge $-1 $103 $250 $105 $177 forward $58 $-1 #
coedge $-1 $113 $253 $103 $175 reversed $114 $-1 #
edge $-1 $254 -32.400630889863969 $255 27.693242129518616 $174 $256 forward 7 unknown #
coedge $-1 $105 $104 $113 $192 reversed $37 $-1 #
edge $-1 $181 -49.425336466566975 $254 49.425336466566975 $105 $257 forward 7 unknown #
coedge $-1 $258 $106 $250 $259 reversed $180 $-1 #
coedge $-1 $106 $260 $108 $184 reversed $180 $-1 #
loop $-1 $-1 $258 $168 #
vertex $-1 $259 $261 #
vertex $-1 $184 $262 #
straight-curve $-1 -49.425336466566975 -32.400630889863969 5.3441616287440024 0 0 -1 I I #
edge $-1 $182 -2.3536943801726764 $188 2.3536943801726764 $179 $263 forward 7 unknown #
straight-curve $-1 0 -32.400630889863969 3.8441616287440024 -1 0 0 I I #
coedge $-1 $264 $110 $260 $265 forward $169 $-1 #
coedge $-1 $110 $264 $112 $191 reversed $169 $-1 #
vertex $-1 $265 $266 #
straight-curve $-1 0 -27.693242129518616 3.8441616287440024 -1 0 0 I I #
coedge $-1 $253 $112 $171 $249 reversed $114 $-1 #
edge $-1 $115 -3.8441616287440024 $267 6.8441616287440024 $112 $268 forward 7 unknown #
edge $-1 $254 -1.5 $116 1.5 $113 $269 forward 7 unknown #
face $-1 $-1 $114 $13 $-1 $270 reversed single #
point $-1 49.425336466566975 -27.693242129518616 3.8441616287440024 #
point $-1 49.425336466566975 -32.400630889863969 3.8441616287440024 #
face $-1 $271 $272 $14 $-1 $273 reversed single #
loop $-1 $-1 $274 $118 #
plane-surface $-1 0 -30.046936509691292 3.8441616287440024 0 0 1 1 0 0 forward_v I I I I #
coedge $-1 $124 $275 $121 $202 forward $119 $-1 #
coedge $-1 $201 $121 $276 $277 reversed $66 $-1 #
coedge $-1 $121 $200 $122 $204 forward $66 $-1 #
edge $-1 $278 -19.836830665084271 $205 -15.662510852705971 $199 $279 forward 7 unknown #
coedge $-1 $123 $122 $209 $280 reversed $41 $-1 #
edge $-1 $281 -98.850672933133993 $205 -92.487952981745721 $201 $282 forward 7 unknown #
vertex $-1 $125 $283 #
straight-curve $-1 45.251016654188675 -9.8998838330841288 6.8441616287440041 0 1 0 I I #
vertex $-1 $280 $284 #
straight-curve $-1 -15.426539090470087 -16.613681963163252 76.645706565854312 0.65605901945558964 0 -0.75470958851134928 I I #
coedge $-1 $276 $127 $203 $280 forward $211 $-1 #
coedge $-1 $127 $285 $129 $214 reversed $211 $-1 #
loop $-1 $-1 $276 $286 #
straight-curve $-1 49.425336466566975 -16.613681963163252 70.748791061445687 0 0 -1 I I #
coedge $-1 $287 $129 $288 $289 forward $119 $-1 #
edge $-1 $131 -16.613681963163252 $290 27.693242129518616 $210 $291 forward 7 unknown #
point $-1 45.251016654188675 -16.613681963163252 6.8441616287440041 #
point $-1 49.425336466566975 -16.613681963163252 6.8441616287440024 #
face $-1 $292 $293 $15 $-1 $294 forward single #
loop $-1 $-1 $295 $133 #
plane-surface $-1 59.177011602965408 -22.985853369173263 141.49758212289137 0 1 0 0.75470958851134928 0 0.65605901945558964 forward_v I I I I #
loop $-1 $-1 $296 $73 #
coedge $-1 $222 $136 $297 $298 forward $74 $-1 #
coedge $-1 $136 $221 $299 $300 reversed $74 $-1 #
coedge $-1 $301 $302 $136 $224 forward $293 $-1 #
edge $-1 $303 15.662510852705971 $304 19.836830665084271 $223 $305 forward 7 unknown #
edge $-1 $306 1 $306 0 $137 $-1 forward 7 unknown #
vertex $-1 $138 $307 #
ellipse-curve $-1 45.387406477411503 -19.799767666168258 2.7473802321997844 0.75470958851134928 0 0.65605901945558964 0.98408852918338452 0 -1.132064382767024 1 I I #
point $-1 48.322265089561199 -19.799767666168258 3.3110943678143823 #
plane-surface $-1 49.425336466566975 0 0 -1 0 0 0 0 1 forward_v I I I I #
coedge $-1 $146 $144 $148 $234 reversed $82 $-1 #
edge $-1 $159 -6.8441616287440024 $236 6.8441616287440024 $158 $308 forward 7 unknown #
vertex $-1 $234 $309 #
straight-curve $-1 -49.425336466566975 -27.693242129518616 0 0 0 -1 I I #
edge $-1 $232 -27.693242129518616 $236 27.693242129518616 $230 $310 forward 7 unknown #
straight-curve $-1 0 -27.693242129518616 -6.8441616287440024 -1 0 0 I I #
vertex $-1 $151 $311 #
straight-curve $-1 0 27.693242129518616 -6.8441616287440024 1 0 0 I I #
point $-1 49.425336466566975 27.693242129518616 -6.8441616287440024 #
point $-1 49.425336466566975 -27.693242129518616 -6.8441616287440024 #
straight-curve $-1 -49.425336466566975 0 6.8441616287440024 0 -1 0 I I #
point $-1 -49.425336466566975 27.693242129518616 6.8441616287440024 #
point $-1 -49.425336466566975 -27.693242129518616 6.8441616287440024 #
straight-curve $-1 49.425336466566975 -27.693242129518616 0 0 0 -1 I I #
straight-curve $-1 49.425336466566975 27.693242129518616 0 0 0 -1 I I #
face $-1 $193 $312 $13 $-1 $313 reversed single #
plane-surface $-1 -49.425336466566975 0 0 1 0 0 0 0 -1 forward_v I I I I #
coedge $-1 $314 $171 $264 $315 forward $101 $-1 #
coedge $-1 $171 $314 $316 $317 forward $101 $-1 #
edge $-1 $318 -27.693242129518616 $267 27.693242129518616 $190 $319 forward 7 unknown #
coedge $-1 $173 $172 $178 $259 forward $58 $-1 #
coedge $-1 $320 $321 $172 $252 reversed $312 $-1 #
edge $-1 $255 -49.425336466566975 $322 49.425336466566975 $251 $323 forward 7 unknown #
coedge $-1 $174 $190 $320 $324 reversed $114 $-1 #
vertex $-1 $175 $325 #
vertex $-1 $175 $326 #
straight-curve $-1 49.425336466566975 0 6.8441616287440024 0 1 0 I I #
straight-curve $-1 0 -32.400630889863969 6.8441616287440024 1 0 0 I I #
coedge $-1 $327 $178 $321 $328 forward $180 $-1 #
edge $-1 $322 -27.693242129518616 $181 32.400630889863969 $178 $329 forward 7 unknown #
coedge $-1 $179 $327 $186 $265 reversed $180 $-1 #
point $-1 -49.425336466566975 -32.400630889863969 6.8441616287440024 #
point $-1 -49.425336466566975 -32.400630889863969 3.8441616287440024 #
straight-curve $-1 -49.425336466566975 -30.046936509691292 3.8441616287440024 0 1 0 I I #
coedge $-1 $187 $186 $247 $315 reversed $169 $-1 #
edge $-1 $188 -3.8441616287440024 $330 6.8441616287440024 $260 $331 forward 7 unknown #
point $-1 -49.425336466566975 -27.693242129518616 3.8441616287440024 #
vertex $-1 $191 $332 #
straight-curve $-1 49.425336466566975 -27.693242129518616 0 0 0 -1 I I #
straight-curve $-1 49.425336466566975 -32.400630889863969 5.3441616287440024 0 0 -1 I I #
plane-surface $-1 49.425336466566975 0 0 -1 0 0 0 0 1 forward_v I I I I #
face $-1 $333 $334 $14 $-1 $335 reversed single #
loop $-1 $-1 $336 $196 #
plane-surface $-1 0 -32.400630889863969 5.3441616287440024 0 1 0 0 0 1 forward_v I I I I #
coedge $-1 $337 $338 $339 $340 forward $197 $-1 #
coedge $-1 $199 $341 $342 $343 forward $119 $-1 #
coedge $-1 $342 $209 $200 $277 forward $211 $-1 #
edge $-1 $281 -68.706635189026883 $278 -63.904629432701682 $276 $344 forward 7 unknown #
vertex $-1 $277 $345 #
straight-curve $-1 29.588505801482704 -22.985853369173263 6.8441616287440041 -1 0 0 I I #
edge $-1 $207 6.7137981300791232 $281 13.085969536089134 $209 $346 forward 7 unknown #
vertex $-1 $280 $347 #
straight-curve $-1 -15.426539090470087 -22.985853369173263 76.645706565854312 -0.65605901945558964 0 0.75470958851134928 I I #
point $-1 45.251016654188675 -22.985853369173263 6.8441616287440041 #
point $-1 49.425336466566975 -16.613681963163252 2.0421558724188031 #
coedge $-1 $210 $348 $349 $350 reversed $211 $-1 #
face $-1 $-1 $211 $14 $-1 $351 reversed single #
coedge $-1 $341 $213 $352 $353 forward $119 $-1 #
coedge $-1 $349 $354 $213 $289 reversed $355 $-1 #
edge $-1 $290 -49.425336466566975 $356 49.425336466566975 $288 $357 forward 7 unknown #
vertex $-1 $214 $358 #
straight-curve $-1 49.425336466566975 0 6.8441616287440024 0 1 0 I I #
face $-1 $359 $360 $15 $-1 $361 reversed single #
loop $-1 $-1 $362 $217 #
plane-surface $-1 0 0 6.8441616287440024 0 0 1 1 0 0 forward_v I I I I #
coedge $-1 $363 $364 $362 $365 reversed $218 $-1 #
coedge $-1 $366 $297 $302 $367 reversed $220 $-1 #
coedge $-1 $296 $368 $221 $298 reversed $220 $-1 #
edge $-1 $303 92.487952981745721 $369 98.850672933133993 $221 $370 forward 7 unknown #
coedge $-1 $371 $372 $222 $300 forward $373 $-1 #
edge $-1 $304 63.904629432701682 $369 68.706635189026883 $299 $374 forward 7 unknown #
coedge $-1 $375 $223 $372 $376 forward $293 $-1 #
coedge $-1 $223 $362 $296 $367 forward $293 $-1 #
vertex $-1 $367 $377 #
vertex $-1 $376 $378 #
straight-curve $-1 29.588505801482704 -16.613681963163252 6.8441616287440041 1 0 0 I I #
vertex $-1 $225 $379 #
point $-1 46.371495006594884 -19.799767666168258 1.6153158494327602 #
straight-curve $-1 -49.425336466566975 27.693242129518616 0 0 0 -1 I I #
point $-1 -49.425336466566975 -27.693242129518616 -6.8441616287440024 #
straight-curve $-1 -49.425336466566975 0 -6.8441616287440024 0 1 0 I I #
point $-1 -49.425336466566975 27.693242129518616 -6.8441616287440024 #
loop $-1 $-1 $320 $245 #
plane-surface $-1 0 27.693242129518616 0 0 -1 0 0 0 -1 forward_v I I I I #
coedge $-1 $248 $247 $327 $380 forward $101 $-1 #
edge $-1 $267 -49.425336466566975 $330 49.425336466566975 $264 $381 forward 7 unknown #
coedge $-1 $321 $320 $248 $317 reversed $312 $-1 #
edge $-1 $382 -49.425336466566975 $318 49.425336466566975 $316 $383 forward 7 unknown #
vertex $-1 $249 $384 #
straight-curve $-1 49.425336466566975 0 -6.8441616287440024 0 -1 0 I I #
coedge $-1 $316 $251 $253 $324 forward $312 $-1 #
coedge $-1 $251 $316 $258 $328 reversed $312 $-1 #
vertex $-1 $252 $385 #
straight-curve $-1 0 27.693242129518616 6.8441616287440024 -1 0 0 I I #
edge $-1 $255 -6.8441616287440024 $318 6.8441616287440024 $253 $386 forward 7 unknown #
point $-1 49.425336466566975 -32.400630889863969 6.8441616287440024 #
point $-1 49.425336466566975 27.693242129518616 6.8441616287440024 #
coedge $-1 $260 $258 $314 $380 reversed $180 $-1 #
edge $-1 $322 -6.8441616287440024 $382 6.8441616287440024 $321 $387 forward 7 unknown #
straight-curve $-1 -49.425336466566975 0 6.8441616287440024 0 -1 0 I I #
vertex $-1 $380 $388 #
straight-curve $-1 -49.425336466566975 -27.693242129518616 0 0 0 -1 I I #
point $-1 49.425336466566975 -27.693242129518616 -6.8441616287440024 #
face $-1 $389 $390 $14 $-1 $391 reversed single #
loop $-1 $-1 $392 $271 #
plane-surface $-1 0 0 -6.8441616287440024 0 0 1 1 0 0 forward_v I I I I #
coedge $-1 $393 $394 $395 $396 forward $272 $-1 #
coedge $-1 $397 $274 $393 $398 forward $197 $-1 #
coedge $-1 $274 $397 $399 $400 reversed $197 $-1 #
coedge $-1 $401 $402 $274 $340 reversed $211 $-1 #
edge $-1 $403 -2.3536943801726764 $404 2.3536943801726764 $339 $405 forward 7 unknown #
coedge $-1 $275 $287 $394 $406 forward $119 $-1 #
coedge $-1 $402 $276 $275 $343 reversed $211 $-1 #
edge $-1 $407 -32.400630889863969 $278 -22.985853369173263 $342 $291 forward 7 unknown #
straight-curve $-1 49.425336466566975 -22.985853369173263 70.748791061445687 0 0 1 I I #
point $-1 49.425336466566975 -22.985853369173263 6.8441616287440024 #
straight-curve $-1 49.425336466566975 -9.8998838330841288 2.0421558724188102 0 -1 0 I I #
point $-1 49.425336466566975 -22.985853369173263 2.0421558724188031 #
coedge $-1 $285 $401 $392 $408 reversed $211 $-1 #
coedge $-1 $409 $288 $285 $350 forward $355 $-1 #
edge $-1 $290 -6.8441616287440024 $410 6.8441616287440024 $285 $411 forward 7 unknown #
plane-surface $-1 49.425336466566975 0 0 -1 0 0 0 0 1 forward_v I I I I #
coedge $-1 $412 $395 $287 $353 reversed $413 $-1 #
edge $-1 $356 -27.693242129518616 $414 32.400630889863969 $352 $415 forward 7 unknown #
coedge $-1 $288 $409 $412 $416 reversed $355 $-1 #
loop $-1 $-1 $349 $417 #
vertex $-1 $289 $418 #
straight-curve $-1 0 27.693242129518616 6.8441616287440024 -1 0 0 I I #
point $-1 49.425336466566975 27.693242129518616 6.8441616287440024 #
face $-1 $419 $420 $15 $-1 $421 reversed single #
loop $-1 $-1 $422 $292 #
plane-surface $-1 0 -30.046936509691292 3.8441616287440024 0 0 1 1 0 0 forward_v I I I I #
coedge $-1 $302 $423 $295 $365 forward $293 $-1 #
coedge $-1 $364 $295 $424 $425 reversed $218 $-1 #
coedge $-1 $295 $363 $366 $426 forward $218 $-1 #
edge $-1 $427 -19.836830665084271 $428 -15.662510852705971 $362 $429 forward 7 unknown #
coedge $-1 $368 $296 $364 $426 reversed $220 $-1 #
edge $-1 $428 -13.085969536089134 $303 -6.7137981300791232 $302 $430 forward 7 unknown #
coedge $-1 $297 $366 $371 $431 reversed $220 $-1 #
vertex $-1 $431 $432 #
straight-curve $-1 -15.426539090470087 -16.613681963163252 76.645706565854312 0.65605901945558964 0 -0.75470958851134928 I I #
coedge $-1 $424 $299 $368 $431 forward $373 $-1 #
coedge $-1 $299 $433 $301 $376 reversed $373 $-1 #
loop $-1 $-1 $424 $434 #
straight-curve $-1 49.425336466566975 -16.613681963163252 70.748791061445687 0 0 -1 I I #
coedge $-1 $435 $301 $436 $437 forward $293 $-1 #
edge $-1 $304 -16.613681963163252 $438 27.693242129518616 $372 $439 forward 7 unknown #
point $-1 45.251016654188675 -16.613681963163252 6.8441616287440041 #
point $-1 49.425336466566975 -16.613681963163252 6.8441616287440024 #
point $-1 44.255342094644476 -19.799767666168258 1.7632917030163997 #
edge $-1 $330 -27.693242129518616 $382 27.693242129518616 $327 $440 forward 7 unknown #
straight-curve $-1 0 -27.693242129518616 -6.8441616287440024 -1 0 0 I I #
vertex $-1 $317 $441 #
straight-curve $-1 0 27.693242129518616 -6.8441616287440024 1 0 0 I I #
point $-1 49.425336466566975 27.693242129518616 -6.8441616287440024 #
point $-1 -49.425336466566975 27.693242129518616 6.8441616287440024 #
straight-curve $-1 49.425336466566975 27.693242129518616 0 0 0 -1 I I #
straight-curve $-1 -49.425336466566975 27.693242129518616 0 0 0 -1 I I #
point $-1 -49.425336466566975 -27.693242129518616 -6.8441616287440024 #
face $-1 $417 $413 $14 $-1 $442 reversed single #
loop $-1 $-1 $399 $333 #
plane-surface $-1 0 -27.693242129518616 0 0 1 0 0 0 1 forward_v I I I I #
coedge $-1 $443 $444 $348 $408 forward $334 $-1 #
coedge $-1 $445 $336 $337 $398 reversed $272 $-1 #
coedge $-1 $336 $445 $341 $406 reversed $272 $-1 #
coedge $-1 $352 $446 $336 $396 reversed $413 $-1 #
edge $-1 $414 -1.5 $447 1.5 $395 $448 forward 7 unknown #
coedge $-1 $338 $337 $446 $449 forward $197 $-1 #
edge $-1 $404 -49.425336466566975 $447 49.425336466566975 $393 $450 forward 7 unknown #
coedge $-1 $451 $452 $338 $400 forward $390 $-1 #
edge $-1 $403 -49.425336466566975 $453 49.425336466566975 $399 $454 forward 7 unknown #
coedge $-1 $348 $339 $452 $455 forward $211 $-1 #
coedge $-1 $339 $342 $445 $456 forward $211 $-1 #
vertex $-1 $455 $457 #
vertex $-1 $456 $458 #
straight-curve $-1 49.425336466566975 -30.046936509691292 3.8441616287440024 0 -1 0 I I #
edge $-1 $414 -49.425336466566975 $407 49.425336466566975 $394 $459 forward 7 unknown #
vertex $-1 $343 $460 #
edge $-1 $410 -27.693242129518616 $461 27.693242129518616 $348 $462 forward 7 unknown #
coedge $-1 $354 $349 $444 $463 reversed $355 $-1 #
vertex $-1 $408 $464 #
straight-curve $-1 49.425336466566975 27.693242129518616 0 0 0 -1 I I #
coedge $-1 $465 $352 $354 $416 forward $413 $-1 #
loop $-1 $-1 $412 $389 #
vertex $-1 $353 $466 #
straight-curve $-1 -49.425336466566975 0 6.8441616287440024 0 -1 0 I I #
edge $-1 $356 -6.8441616287440024 $467 6.8441616287440024 $354 $468 forward 7 unknown #
face $-1 $286 $355 $14 $-1 $469 reversed single #
point $-1 -49.425336466566975 27.693242129518616 6.8441616287440024 #
face $-1 $470 $471 $15 $-1 $472 reversed single #
loop $-1 $-1 $473 $359 #
plane-surface $-1 0 -32.400630889863969 5.3441616287440024 0 1 0 0 0 1 forward_v I I I I #
coedge $-1 $474 $475 $476 $477 forward $360 $-1 #
coedge $-1 $362 $478 $479 $480 forward $293 $-1 #
coedge $-1 $479 $371 $363 $425 forward $373 $-1 #
edge $-1 $481 -68.706635189026883 $427 -63.904629432701682 $424 $482 forward 7 unknown #
edge $-1 $481 -98.850672933133993 $428 -92.487952981745721 $364 $483 forward 7 unknown #
vertex $-1 $425 $484 #
vertex $-1 $367 $485 #
straight-curve $-1 29.588505801482704 -22.985853369173263 6.8441616287440041 -1 0 0 I I #
straight-curve $-1 45.251016654188675 -9.8998838330841288 6.8441616287440041 0 1 0 I I #
edge $-1 $369 6.7137981300791232 $481 13.085969536089134 $371 $486 forward 7 unknown #
point $-1 49.425336466566975 -16.613681963163252 2.0421558724188031 #
coedge $-1 $372 $487 $488 $489 reversed $373 $-1 #
face $-1 $-1 $373 $15 $-1 $490 reversed single #
coedge $-1 $478 $375 $491 $492 forward $293 $-1 #
coedge $-1 $488 $493 $375 $437 reversed $494 $-1 #
edge $-1 $438 -49.425336466566975 $495 49.425336466566975 $436 $496 forward 7 unknown #
vertex $-1 $376 $497 #
straight-curve $-1 49.425336466566975 0 6.8441616287440024 0 1 0 I I #
straight-curve $-1 -49.425336466566975 0 -6.8441616287440024 0 1 0 I I #
point $-1 -49.425336466566975 27.693242129518616 -6.8441616287440024 #
plane-surface $-1 -49.425336466566975 0 0 1 0 0 0 0 -1 forward_v I I I I #
coedge $-1 $498 $392 $499 $500 forward $334 $-1 #
coedge $-1 $392 $498 $409 $463 forward $334 $-1 #
coedge $-1 $394 $393 $402 $456 reversed $272 $-1 #
coedge $-1 $395 $501 $397 $449 reversed $413 $-1 #
vertex $-1 $449 $502 #
straight-curve $-1 -49.425336466566975 -32.400630889863969 5.3441616287440024 0 0 -1 I I #
edge $-1 $447 -2.3536943801726764 $453 2.3536943801726764 $446 $503 forward 7 unknown #
straight-curve $-1 0 -32.400630889863969 3.8441616287440024 -1 0 0 I I #
coedge $-1 $499 $399 $501 $504 forward $390 $-1 #
coedge $-1 $399 $499 $401 $455 reversed $390 $-1 #
vertex $-1 $504 $505 #
straight-curve $-1 0 -27.693242129518616 3.8441616287440024 -1 0 0 I I #
edge $-1 $403 -3.8441616287440024 $461 6.8441616287440024 $401 $506 forward 7 unknown #
edge $-1 $407 -1.5 $404 1.5 $402 $507 forward 7 unknown #
point $-1 49.425336466566975 -27.693242129518616 3.8441616287440024 #
point $-1 49.425336466566975 -32.400630889863969 3.8441616287440024 #
straight-curve $-1 0 -32.400630889863969 6.8441616287440024 1 0 0 I I #
point $-1 49.425336466566975 -32.400630889863969 6.8441616287440024 #
vertex $-1 $455 $508 #
straight-curve $-1 49.425336466566975 0 -6.8441616287440024 0 -1 0 I I #
edge $-1 $467 -49.425336466566975 $410 49.425336466566975 $409 $509 forward 7 unknown #
point $-1 49.425336466566975 27.693242129518616 -6.8441616287440024 #
coedge $-1 $501 $412 $498 $510 reversed $413 $-1 #
point $-1 -49.425336466566975 -32.400630889863969 6.8441616287440024 #
vertex $-1 $463 $511 #
straight-curve $-1 -49.425336466566975 27.693242129518616 0 0 0 -1 I I #
plane-surface $-1 0 27.693242129518616 0 0 -1 0 0 0 -1 forward_v I I I I #
face $-1 $512 $513 $15 $-1 $514 reversed single #
loop $-1 $-1 $515 $419 #
plane-surface $-1 0 0 -6.8441616287440024 0 0 1 1 0 0 forward_v I I I I #
coedge $-1 $516 $517 $518 $519 forward $420 $-1 #
coedge $-1 $520 $422 $516 $521 forward $360 $-1 #
coedge $-1 $422 $520 $522 $523 reversed $360 $-1 #
coedge $-1 $524 $525 $422 $477 reversed $373 $-1 #
edge $-1 $526 -2.3536943801726764 $527 2.3536943801726764 $476 $528 forward 7 unknown #
coedge $-1 $423 $435 $517 $529 forward $293 $-1 #
coedge $-1 $525 $424 $423 $480 reversed $373 $-1 #
edge $-1 $530 -32.400630889863969 $427 -22.985853369173263 $479 $439 forward 7 unknown #
vertex $-1 $431 $531 #
straight-curve $-1 49.425336466566975 -22.985853369173263 70.748791061445687 0 0 1 I I #
straight-curve $-1 -15.426539090470087 -22.985853369173263 76.645706565854312 -0.65605901945558964 0 0.75470958851134928 I I #
point $-1 49.425336466566975 -22.985853369173263 6.8441616287440024 #
point $-1 45.251016654188675 -22.985853369173263 6.8441616287440041 #
straight-curve $-1 49.425336466566975 -9.8998838330841288 2.0421558724188102 0 -1 0 I I #
coedge $-1 $433 $524 $515 $532 reversed $373 $-1 #
coedge $-1 $533 $436 $433 $489 forward $494 $-1 #
edge $-1 $438 -6.8441616287440024 $534 6.8441616287440024 $433 $535 forward 7 unknown #
plane-surface $-1 49.425336466566975 0 0 -1 0 0 0 0 1 forward_v I I I I #
coedge $-1 $536 $518 $435 $492 reversed $537 $-1 #
edge $-1 $495 -27.693242129518616 $538 32.400630889863969 $491 $539 forward 7 unknown #
coedge $-1 $436 $533 $536 $540 reversed $494 $-1 #
loop $-1 $-1 $488 $541 #
vertex $-1 $437 $542 #
straight-curve $-1 0 27.693242129518616 6.8441616287440024 -1 0 0 I I #
point $-1 49.425336466566975 27.693242129518616 6.8441616287440024 #
coedge $-1 $444 $443 $465 $510 forward $334 $-1 #
coedge $-1 $452 $451 $443 $500 reversed $390 $-1 #
edge $-1 $461 -49.425336466566975 $543 49.425336466566975 $499 $544 forward 7 unknown #
coedge $-1 $446 $465 $451 $504 reversed $413 $-1 #
point $-1 -49.425336466566975 -32.400630889863969 3.8441616287440024 #
straight-curve $-1 -49.425336466566975 -30.046936509691292 3.8441616287440024 0 1 0 I I #
edge $-1 $453 -3.8441616287440024 $543 6.8441616287440024 $501 $545 forward 7 unknown #
point $-1 -49.425336466566975 -27.693242129518616 3.8441616287440024 #
straight-curve $-1 49.425336466566975 -27.693242129518616 0 0 0 -1 I I #
straight-curve $-1 49.425336466566975 -32.400630889863969 5.3441616287440024 0 0 -1 I I #
point $-1 49.425336466566975 -27.693242129518616 -6.8441616287440024 #
straight-curve $-1 0 27.693242129518616 -6.8441616287440024 1 0 0 I I #
edge $-1 $543 -27.693242129518616 $467 27.693242129518616 $465 $546 forward 7 unknown #
point $-1 -49.425336466566975 27.693242129518616 -6.8441616287440024 #
face $-1 $541 $537 $15 $-1 $547 reversed single #
loop $-1 $-1 $522 $470 #
plane-surface $-1 0 -27.693242129518616 0 0 1 0 0 0 1 forward_v I I I I #
coedge $-1 $548 $549 $487 $532 forward $471 $-1 #
coedge $-1 $550 $473 $474 $521 reversed $420 $-1 #
coedge $-1 $473 $550 $478 $529 reversed $420 $-1 #
coedge $-1 $491 $551 $473 $519 reversed $537 $-1 #
edge $-1 $538 -1.5 $552 1.5 $518 $553 forward 7 unknown #
coedge $-1 $475 $474 $551 $554 forward $360 $-1 #
edge $-1 $527 -49.425336466566975 $552 49.425336466566975 $516 $555 forward 7 unknown #
coedge $-1 $556 $557 $475 $523 forward $513 $-1 #
edge $-1 $526 -49.425336466566975 $558 49.425336466566975 $522 $559 forward 7 unknown #
coedge $-1 $487 $476 $557 $560 forward $373 $-1 #
coedge $-1 $476 $479 $550 $561 forward $373 $-1 #
vertex $-1 $560 $562 #
vertex $-1 $561 $563 #
straight-curve $-1 49.425336466566975 -30.046936509691292 3.8441616287440024 0 -1 0 I I #
edge $-1 $538 -49.425336466566975 $530 49.425336466566975 $517 $564 forward 7 unknown #
vertex $-1 $480 $565 #
point $-1 49.425336466566975 -22.985853369173263 2.0421558724188031 #
edge $-1 $534 -27.693242129518616 $566 27.693242129518616 $487 $567 forward 7 unknown #
coedge $-1 $493 $488 $549 $568 reversed $494 $-1 #
vertex $-1 $532 $569 #
straight-curve $-1 49.425336466566975 27.693242129518616 0 0 0 -1 I I #
coedge $-1 $570 $491 $493 $540 forward $537 $-1 #
loop $-1 $-1 $536 $512 #
vertex $-1 $492 $571 #
straight-curve $-1 -49.425336466566975 0 6.8441616287440024 0 -1 0 I I #
edge $-1 $495 -6.8441616287440024 $572 6.8441616287440024 $493 $573 forward 7 unknown #
face $-1 $434 $494 $15 $-1 $574 reversed single #
point $-1 -49.425336466566975 27.693242129518616 6.8441616287440024 #
vertex $-1 $510 $575 #
straight-curve $-1 0 -27.693242129518616 -6.8441616287440024 -1 0 0 I I #
straight-curve $-1 -49.425336466566975 -27.693242129518616 0 0 0 -1 I I #
straight-curve $-1 -49.425336466566975 0 -6.8441616287440024 0 1 0 I I #
plane-surface $-1 -49.425336466566975 0 0 1 0 0 0 0 -1 forward_v I I I I #
coedge $-1 $576 $515 $577 $578 forward $471 $-1 #
coedge $-1 $515 $576 $533 $568 forward $471 $-1 #
coedge $-1 $517 $516 $525 $561 reversed $420 $-1 #
coedge $-1 $518 $579 $520 $554 reversed $537 $-1 #
vertex $-1 $554 $580 #
straight-curve $-1 -49.425336466566975 -32.400630889863969 5.3441616287440024 0 0 -1 I I #
edge $-1 $552 -2.3536943801726764 $558 2.3536943801726764 $551 $581 forward 7 unknown #
straight-curve $-1 0 -32.400630889863969 3.8441616287440024 -1 0 0 I I #
coedge $-1 $577 $522 $579 $582 forward $513 $-1 #
coedge $-1 $522 $577 $524 $560 reversed $513 $-1 #
vertex $-1 $582 $583 #
straight-curve $-1 0 -27.693242129518616 3.8441616287440024 -1 0 0 I I #
edge $-1 $526 -3.8441616287440024 $566 6.8441616287440024 $524 $584 forward 7 unknown #
edge $-1 $530 -1.5 $527 1.5 $525 $585 forward 7 unknown #
point $-1 49.425336466566975 -27.693242129518616 3.8441616287440024 #
point $-1 49.425336466566975 -32.400630889863969 3.8441616287440024 #
straight-curve $-1 0 -32.400630889863969 6.8441616287440024 1 0 0 I I #
point $-1 49.425336466566975 -32.400630889863969 6.8441616287440024 #
vertex $-1 $560 $586 #
straight-curve $-1 49.425336466566975 0 -6.8441616287440024 0 -1 0 I I #
edge $-1 $572 -49.425336466566975 $534 49.425336466566975 $533 $587 forward 7 unknown #
point $-1 49.425336466566975 27.693242129518616 -6.8441616287440024 #
coedge $-1 $579 $536 $576 $588 reversed $537 $-1 #
point $-1 -49.425336466566975 -32.400630889863969 6.8441616287440024 #
vertex $-1 $568 $589 #
straight-curve $-1 -49.425336466566975 27.693242129518616 0 0 0 -1 I I #
plane-surface $-1 0 27.693242129518616 0 0 -1 0 0 0 -1 forward_v I I I I #
point $-1 -49.425336466566975 -27.693242129518616 -6.8441616287440024 #
coedge $-1 $549 $548 $570 $588 forward $471 $-1 #
coedge $-1 $557 $556 $548 $578 reversed $513 $-1 #
edge $-1 $566 -49.425336466566975 $590 49.425336466566975 $577 $591 forward 7 unknown #
coedge $-1 $551 $570 $556 $582 reversed $537 $-1 #
point $-1 -49.425336466566975 -32.400630889863969 3.8441616287440024 #
straight-curve $-1 -49.425336466566975 -30.046936509691292 3.8441616287440024 0 1 0 I I #
edge $-1 $558 -3.8441616287440024 $590 6.8441616287440024 $579 $592 forward 7 unknown #
point $-1 -49.425336466566975 -27.693242129518616 3.8441616287440024 #
straight-curve $-1 49.425336466566975 -27.693242129518616 0 0 0 -1 I I #
straight-curve $-1 49.425336466566975 -32.400630889863969 5.3441616287440024 0 0 -1 I I #
point $-1 49.425336466566975 -27.693242129518616 -6.8441616287440024 #
straight-curve $-1 0 27.693242129518616 -6.8441616287440024 1 0 0 I I #
edge $-1 $590 -27.693242129518616 $572 27.693242129518616 $570 $593 forward 7 unknown #
point $-1 -49.425336466566975 27.693242129518616 -6.8441616287440024 #
vertex $-1 $588 $594 #
straight-curve $-1 0 -27.693242129518616 -6.8441616287440024 -1 0 0 I I #
straight-curve $-1 -49.425336466566975 -27.693242129518616 0 0 0 -1 I I #
straight-curve $-1 -49.425336466566975 0 -6.8441616287440024 0 1 0 I I #
point $-1 -49.425336466566975 -27.693242129518616 -6.8441616287440024 #
End-of-ACIS-data 