500 0 11 0           
7 Unknown 11 ACIS 5.0 NT 24 Thu Mar 25 22:49:02 1999 
-1 9.9999999999999995e-007 1e-010 
body $-1 $11 $-1 $12 #
body $-1 $13 $-1 $14 #
body $-1 $15 $-1 $16 #
body $-1 $17 $-1 $18 #
body $-1 $19 $-1 $20 #
body $-1 $21 $-1 $22 #
body $-1 $23 $-1 $24 #
body $-1 $25 $-1 $26 #
body $-1 $27 $-1 $28 #
body $-1 $29 $-1 $30 #
body $-1 $31 $-1 $32 #
lump $-1 $-1 $33 $0 #
transform $-1 1 0 0 0 1 0 0 0 1 77.580492568742955 43.086567638637689 15.633558762452809 1 rotate no_reflect no_shear #
lump $-1 $-1 $34 $1 #
transform $-1 1 0 0 0 1 0 0 0 1 77.580492568742955 43.086567638637689 15.633558762452809 1 rotate no_reflect no_shear #
lump $-1 $-1 $35 $2 #
transform $-1 1 0 0 0 1 0 0 0 1 77.580492568742955 43.086567638637689 15.633558762452809 1 rotate no_reflect no_shear #
lump $-1 $-1 $36 $3 #
transform $-1 1 0 0 0 1 0 0 0 1 77.580492568742955 43.086567638637689 15.633558762452809 1 rotate no_reflect no_shear #
lump $-1 $-1 $37 $4 #
transform $-1 1 0 0 0 1 0 0 0 1 77.580492568742955 43.086567638637689 15.633558762452809 1 rotate no_reflect no_shear #
lump $-1 $-1 $38 $5 #
transform $-1 1 0 0 0 1 0 0 0 1 77.580492568742955 43.086567638637689 15.633558762452809 1 rotate no_reflect no_shear #
lump $-1 $-1 $39 $6 #
transform $-1 1 0 0 0 1 0 0 0 1 77.580492568742955 43.086567638637689 15.633558762452809 1 rotate no_reflect no_shear #
lump $-1 $-1 $40 $7 #
transform $-1 1 0 0 0 1 0 0 0 1 77.580492568742955 43.086567638637689 15.633558762452809 1 rotate no_reflect no_shear #
lump $-1 $-1 $41 $8 #
transform $-1 1 0 0 0 1 0 0 0 1 77.580492568742955 43.086567638637689 15.633558762452809 1 rotate no_reflect no_shear #
lump $-1 $-1 $42 $9 #
transform $-1 1 0 0 0 1 0 0 0 1 77.580492568742955 43.086567638637689 15.633558762452809 1 rotate no_reflect no_shear #
lump $-1 $-1 $43 $10 #
transform $-1 1 0 0 0 1 0 0 0 1 77.580492568742955 43.086567638637689 15.633558762452809 1 rotate no_reflect no_shear #
shell $-1 $-1 $-1 $44 $-1 $11 #
shell $-1 $-1 $-1 $45 $-1 $13 #
shell $-1 $-1 $-1 $46 $-1 $15 #
shell $-1 $-1 $-1 $47 $-1 $17 #
shell $-1 $-1 $-1 $48 $-1 $19 #
shell $-1 $-1 $-1 $49 $-1 $21 #
shell $-1 $-1 $-1 $50 $-1 $23 #
shell $-1 $-1 $-1 $51 $-1 $25 #
shell $-1 $-1 $-1 $52 $-1 $27 #
shell $-1 $-1 $-1 $53 $-1 $29 #
shell $-1 $-1 $-1 $54 $-1 $31 #
face $-1 $55 $56 $33 $-1 $57 forward single #
face $-1 $58 $59 $34 $-1 $60 forward single #
face $-1 $61 $62 $35 $-1 $63 forward single #
face $-1 $64 $65 $36 $-1 $66 reversed single #
face $-1 $67 $68 $37 $-1 $69 forward single #
face $-1 $70 $71 $38 $-1 $72 forward single #
face $-1 $73 $74 $39 $-1 $75 forward single #
face $-1 $76 $77 $40 $-1 $78 reversed single #
face $-1 $79 $80 $41 $-1 $81 forward single #
face $-1 $82 $83 $42 $-1 $84 forward single #
face $-1 $85 $86 $43 $-1 $87 forward single #
face $-1 $88 $89 $33 $-1 $90 reversed single #
loop $-1 $-1 $91 $44 #
plane-surface $-1 0 0 15.633558762452809 0 0 1 1 0 0 forward_v I I I I #
face $-1 $92 $93 $34 $-1 $94 reversed single #
loop $-1 $-1 $95 $45 #
plane-surface $-1 0 -37.637160498283251 5.513198040665138 0 0 1 1 0 0 forward_v I I I I #
face $-1 $96 $97 $35 $-1 $98 reversed single #
loop $-1 $-1 $99 $46 #
plane-surface $-1 0 37.637160498283251 5.513198040665138 0 0 1 1 0 0 forward_v I I I I #
face $-1 $100 $101 $36 $-1 $102 reversed single #
loop $-1 $-1 $103 $47 #
plane-surface $-1 89.064614433322276 -18.17108644772356 226.01494533184632 0 1 0 0.74314483375859142 0 0.66913059716165679 forward_v I I I I #
face $-1 $104 $105 $37 $-1 $106 forward single #
loop $-1 $107 $108 $48 #
cone-surface $-1 72.938945238728635 -16.854185231510925 10.626350023212998 -0.74314483375859142 0 -0.66913059716165679 0.3345652985808284 0 -0.37157241687929571 1 I I 0 1 0.5 forward I I I I #
face $-1 $109 $110 $38 $-1 $111 forward single #
loop $-1 $112 $113 $49 #
cone-surface $-1 72.938945238728635 -14.878833407191976 10.626350023212998 -0.74314483375859142 0 -0.66913059716165679 0.3345652985808284 0 -0.37157241687929571 1 I I 0 1 0.5 forward I I I I #
face $-1 $114 $115 $39 $-1 $116 forward single #
loop $-1 $117 $118 $50 #
cone-surface $-1 72.938945238728635 -12.903481582873027 10.626350023212998 -0.74314483375859142 0 -0.66913059716165679 0.3345652985808284 0 -0.37157241687929571 1 I I 0 1 0.5 forward I I I I #
face $-1 $119 $120 $40 $-1 $121 reversed single #
loop $-1 $-1 $122 $51 #
plane-surface $-1 -192.88757707455918 -11.586580366660392 110.70786082603011 0 -1 0 0.74314483375859142 0 -0.66913059716165679 forward_v I I I I #
face $-1 $123 $124 $41 $-1 $125 forward single #
loop $-1 $126 $127 $52 #
cone-surface $-1 -72.938945238728607 -16.854185231510925 10.626350023213012 0.74314483375859142 0 -0.66913059716165679 0.3345652985808284 0 0.37157241687929571 1 I I 0 1 0.5 forward I I I I #
face $-1 $128 $129 $42 $-1 $130 forward single #
loop $-1 $131 $132 $53 #
cone-surface $-1 -72.938945238728607 -14.878833407191976 10.626350023213012 0.74314483375859142 0 -0.66913059716165679 0.3345652985808284 0 0.37157241687929571 1 I I 0 1 0.5 forward I I I I #
face $-1 $133 $134 $43 $-1 $135 forward single #
loop $-1 $136 $137 $54 #
cone-surface $-1 -72.938945238728607 -12.903481582873027 10.626350023213012 0.74314483375859142 0 -0.66913059716165679 0.3345652985808284 0 0.37157241687929571 1 I I 0 1 0.5 forward I I I I #
face $-1 $138 $139 $33 $-1 $140 reversed single #
loop $-1 $-1 $141 $55 #
plane-surface $-1 0 0 -15.633558762452809 0 0 1 1 0 0 forward_v I I I I #
coedge $-1 $142 $143 $144 $145 forward $56 $-1 #
face $-1 $146 $147 $34 $-1 $148 reversed single #
loop $-1 $-1 $149 $58 #
plane-surface $-1 0 -37.637160498283251 -2.0197468696672836 0 0 1 1 0 0 forward_v I I I I #
coedge $-1 $150 $151 $152 $153 reversed $59 $-1 #
face $-1 $154 $155 $35 $-1 $156 reversed single #
loop $-1 $-1 $157 $61 #
plane-surface $-1 0 37.637160498283251 -2.0197468696672836 0 0 1 1 0 0 forward_v I I I I #
coedge $-1 $158 $159 $160 $161 reversed $62 $-1 #
face $-1 $162 $163 $36 $-1 $164 reversed single #
loop $-1 $-1 $165 $64 #
plane-surface $-1 -26.242470072493958 -14.878833407191976 122.19198269060942 0.74314483375859142 0 0.66913059716165679 0.66913059716165679 0 -0.74314483375859142 forward_v I I I I #
coedge $-1 $166 $167 $168 $169 reversed $65 $-1 #
face $-1 $-1 $170 $37 $-1 $171 forward single #
loop $-1 $172 $173 $67 #
cone-surface $-1 72.050276285404266 -16.854185231510925 9.8261889235125732 -0.74314483375859142 0 -0.66913059716165679 0.1672826492904142 0 -0.18578620843964785 1 I I -0.70710678118654746 0.70710678118654746 0.25 forward I I I I #
loop $-1 $-1 $174 $48 #
coedge $-1 $108 $108 $175 $176 reversed $68 $-1 #
face $-1 $-1 $177 $38 $-1 $178 forward single #
loop $-1 $179 $180 $70 #
cone-surface $-1 72.050276285404266 -14.878833407191976 9.8261889235125732 -0.74314483375859142 0 -0.66913059716165679 0.1672826492904142 0 -0.18578620843964785 1 I I -0.70710678118654746 0.70710678118654746 0.25 forward I I I I #
loop $-1 $-1 $181 $49 #
coedge $-1 $113 $113 $182 $183 reversed $71 $-1 #
face $-1 $-1 $184 $39 $-1 $185 forward single #
loop $-1 $186 $187 $73 #
cone-surface $-1 72.050276285404266 -12.903481582873027 9.8261889235125732 -0.74314483375859142 0 -0.66913059716165679 0.1672826492904142 0 -0.18578620843964785 1 I I -0.70710678118654746 0.70710678118654746 0.25 forward I I I I #
loop $-1 $-1 $188 $50 #
coedge $-1 $118 $118 $189 $190 reversed $74 $-1 #
face $-1 $191 $192 $40 $-1 $193 reversed single #
loop $-1 $-1 $194 $76 #
plane-surface $-1 -77.58049256874294 -14.878833407191976 6.8848981847932151 -0.74314483375859142 0 0.66913059716165679 0.66913059716165679 0 0.74314483375859142 forward_v I I I I #
coedge $-1 $195 $196 $197 $198 reversed $77 $-1 #
face $-1 $-1 $199 $41 $-1 $200 forward single #
loop $-1 $201 $202 $79 #
cone-surface $-1 -72.050276285404237 -16.854185231510925 9.8261889235125874 0.74314483375859142 0 -0.66913059716165679 0.1672826492904142 0 0.18578620843964785 1 I I -0.70710678118654746 0.70710678118654746 0.25 forward I I I I #
loop $-1 $-1 $203 $52 #
coedge $-1 $127 $127 $204 $205 reversed $80 $-1 #
face $-1 $-1 $206 $42 $-1 $207 forward single #
loop $-1 $208 $209 $82 #
cone-surface $-1 -72.050276285404237 -14.878833407191976 9.8261889235125874 0.74314483375859142 0 -0.66913059716165679 0.1672826492904142 0 0.18578620843964785 1 I I -0.70710678118654746 0.70710678118654746 0.25 forward I I I I #
loop $-1 $-1 $210 $53 #
coedge $-1 $132 $132 $211 $212 reversed $83 $-1 #
face $-1 $-1 $213 $43 $-1 $214 forward single #
loop $-1 $215 $216 $85 #
cone-surface $-1 -72.050276285404237 -12.903481582873027 9.8261889235125874 0.74314483375859142 0 -0.66913059716165679 0.1672826492904142 0 0.18578620843964785 1 I I -0.70710678118654746 0.70710678118654746 0.25 forward I I I I #
loop $-1 $-1 $217 $54 #
coedge $-1 $137 $137 $218 $219 reversed $86 $-1 #
face $-1 $220 $221 $33 $-1 $222 reversed single #
loop $-1 $-1 $223 $88 #
plane-surface $-1 0 -43.086567638637689 0 0 1 0 0 0 1 forward_v I I I I #
coedge $-1 $224 $225 $226 $227 forward $89 $-1 #
coedge $-1 $228 $91 $229 $230 forward $56 $-1 #
coedge $-1 $91 $228 $231 $232 forward $56 $-1 #
coedge $-1 $233 $234 $91 $145 reversed $235 $-1 #
edge $-1 $236 -43.086567638637689 $237 43.086567638637689 $144 $238 forward 7 unknown #
face $-1 $239 $240 $34 $-1 $241 reversed single #
loop $-1 $-1 $242 $92 #
plane-surface $-1 0 -32.187753357928813 1.7467255854989272 0 -1 0 0 0 -1 forward_v I I I I #
coedge $-1 $243 $244 $245 $246 reversed $93 $-1 #
coedge $-1 $247 $95 $248 $249 forward $59 $-1 #
coedge $-1 $95 $247 $250 $251 reversed $59 $-1 #
coedge $-1 $252 $253 $95 $153 forward $254 $-1 #
edge $-1 $255 13.369173108787187 $256 24.267987389496064 $152 $257 forward 7 unknown #
face $-1 $258 $259 $35 $-1 $260 reversed single #
loop $-1 $-1 $261 $96 #
plane-surface $-1 0 32.187753357928813 1.7467255854989272 0 1 0 0 0 1 forward_v I I I I #
coedge $-1 $262 $263 $264 $265 reversed $97 $-1 #
coedge $-1 $266 $99 $267 $268 reversed $62 $-1 #
coedge $-1 $99 $266 $269 $270 forward $62 $-1 #
coedge $-1 $271 $272 $99 $161 forward $259 $-1 #
edge $-1 $273 -24.267987389496064 $274 -13.369173108787187 $160 $275 forward 7 unknown #
face $-1 $276 $277 $36 $-1 $278 forward single #
loop $-1 $-1 $279 $100 #
plane-surface $-1 89.064614433322276 -11.586580366660392 226.01494533184632 0 -1 0 -0.74314483375859142 0 -0.66913059716165679 forward_v I I I I #
coedge $-1 $280 $281 $282 $283 reversed $101 $-1 #
coedge $-1 $167 $103 $284 $285 reversed $65 $-1 #
coedge $-1 $103 $166 $280 $286 reversed $65 $-1 #
coedge $-1 $282 $287 $103 $169 forward $288 $-1 #
edge $-1 $289 97.373913903470353 $290 106.12257448113 $168 $291 forward 7 unknown #
loop $-1 $-1 $175 $104 #
plane-surface $-1 -26.242470072493958 -14.878833407191976 122.19198269060942 0.74314483375859142 0 0.66913059716165679 0.66913059716165679 0 -0.74314483375859142 forward_v I I I I #
loop $-1 $-1 $292 $67 #
coedge $-1 $173 $173 $174 $293 reversed $105 $-1 #
coedge $-1 $174 $174 $173 $293 forward $107 $-1 #
coedge $-1 $175 $175 $108 $176 forward $170 $-1 #
edge $-1 $294 0 $294 6.2831853071796004 $175 $295 forward 7 unknown #
loop $-1 $-1 $182 $109 #
plane-surface $-1 -26.242470072493958 -14.878833407191976 122.19198269060942 0.74314483375859142 0 0.66913059716165679 0.66913059716165679 0 -0.74314483375859142 forward_v I I I I #
loop $-1 $-1 $296 $70 #
coedge $-1 $180 $180 $181 $297 reversed $110 $-1 #
coedge $-1 $181 $181 $180 $297 forward $112 $-1 #
coedge $-1 $182 $182 $113 $183 forward $177 $-1 #
edge $-1 $298 0 $298 6.2831853071796004 $182 $299 forward 7 unknown #
loop $-1 $-1 $189 $114 #
plane-surface $-1 -26.242470072493958 -14.878833407191976 122.19198269060942 0.74314483375859142 0 0.66913059716165679 0.66913059716165679 0 -0.74314483375859142 forward_v I I I I #
loop $-1 $-1 $300 $73 #
coedge $-1 $187 $187 $188 $301 reversed $115 $-1 #
coedge $-1 $188 $188 $187 $301 forward $117 $-1 #
coedge $-1 $189 $189 $118 $190 forward $184 $-1 #
edge $-1 $302 0 $302 6.2831853071796004 $189 $303 forward 7 unknown #
face $-1 $304 $305 $40 $-1 $306 reversed single #
loop $-1 $-1 $307 $119 #
plane-surface $-1 -192.88757707455918 -18.17108644772356 110.70786082603011 0 1 0 -0.74314483375859142 0 0.66913059716165679 forward_v I I I I #
coedge $-1 $308 $309 $310 $311 reversed $120 $-1 #
coedge $-1 $196 $122 $312 $313 reversed $77 $-1 #
coedge $-1 $122 $195 $308 $314 reversed $77 $-1 #
coedge $-1 $310 $315 $122 $198 forward $305 $-1 #
edge $-1 $316 39.720371650562249 $317 48.469032228221856 $197 $318 forward 7 unknown #
loop $-1 $-1 $204 $123 #
plane-surface $-1 -77.58049256874294 -14.878833407191976 6.8848981847932151 -0.74314483375859142 0 0.66913059716165679 0.66913059716165679 0 0.74314483375859142 forward_v I I I I #
loop $-1 $-1 $319 $79 #
coedge $-1 $202 $202 $203 $320 reversed $124 $-1 #
coedge $-1 $203 $203 $202 $320 forward $126 $-1 #
coedge $-1 $204 $204 $127 $205 forward $199 $-1 #
edge $-1 $321 0 $321 6.2831853071796004 $204 $322 forward 7 unknown #
loop $-1 $-1 $211 $128 #
plane-surface $-1 -77.58049256874294 -14.878833407191976 6.8848981847932151 -0.74314483375859142 0 0.66913059716165679 0.66913059716165679 0 0.74314483375859142 forward_v I I I I #
loop $-1 $-1 $323 $82 #
coedge $-1 $209 $209 $210 $324 reversed $129 $-1 #
coedge $-1 $210 $210 $209 $324 forward $131 $-1 #
coedge $-1 $211 $211 $132 $212 forward $206 $-1 #
edge $-1 $325 0 $325 6.2831853071796004 $211 $326 forward 7 unknown #
loop $-1 $-1 $218 $133 #
plane-surface $-1 -77.58049256874294 -14.878833407191976 6.8848981847932151 -0.74314483375859142 0 0.66913059716165679 0.66913059716165679 0 0.74314483375859142 forward_v I I I I #
loop $-1 $-1 $327 $85 #
coedge $-1 $216 $216 $217 $328 reversed $134 $-1 #
coedge $-1 $217 $217 $216 $328 forward $136 $-1 #
coedge $-1 $218 $218 $137 $219 forward $213 $-1 #
edge $-1 $329 0 $329 6.2831853071796004 $218 $330 forward 7 unknown #
face $-1 $331 $332 $33 $-1 $333 reversed single #
loop $-1 $-1 $334 $138 #
plane-surface $-1 -77.580492568742955 0 0 1 0 0 0 0 -1 forward_v I I I I #
coedge $-1 $335 $231 $336 $337 forward $139 $-1 #
coedge $-1 $338 $141 $335 $339 forward $89 $-1 #
coedge $-1 $141 $338 $340 $341 forward $89 $-1 #
coedge $-1 $234 $233 $141 $227 reversed $235 $-1 #
edge $-1 $342 -43.086567638637689 $343 43.086567638637689 $226 $344 forward 7 unknown #
coedge $-1 $143 $142 $345 $346 forward $56 $-1 #
coedge $-1 $347 $348 $142 $230 reversed $332 $-1 #
edge $-1 $237 -77.580492568742955 $349 77.580492568742955 $229 $350 forward 7 unknown #
coedge $-1 $223 $351 $143 $232 reversed $139 $-1 #
edge $-1 $352 -77.580492568742955 $236 77.580492568742955 $231 $353 forward 7 unknown #
coedge $-1 $226 $144 $351 $354 forward $235 $-1 #
coedge $-1 $144 $226 $347 $355 reversed $235 $-1 #
loop $-1 $-1 $233 $331 #
vertex $-1 $145 $356 #
vertex $-1 $145 $357 #
straight-curve $-1 77.580492568742955 0 15.633558762452809 0 1 0 I I #
face $-1 $358 $359 $34 $-1 $360 reversed single #
loop $-1 $-1 $361 $146 #
plane-surface $-1 -77.580492568742955 0 0 1 0 0 0 0 -1 forward_v I I I I #
coedge $-1 $362 $248 $253 $363 reversed $147 $-1 #
coedge $-1 $364 $149 $365 $366 reversed $93 $-1 #
coedge $-1 $149 $364 $362 $367 forward $93 $-1 #
coedge $-1 $253 $252 $149 $246 forward $254 $-1 #
edge $-1 $368 -24.267987389496064 $369 -13.369173108787187 $245 $370 forward 7 unknown #
coedge $-1 $151 $150 $361 $371 reversed $59 $-1 #
coedge $-1 $242 $372 $150 $249 reversed $147 $-1 #
edge $-1 $255 -77.580492568742955 $373 77.580492568742955 $248 $374 forward 7 unknown #
coedge $-1 $375 $376 $151 $251 forward $359 $-1 #
edge $-1 $256 -77.580492568742955 $377 77.580492568742955 $250 $378 forward 7 unknown #
coedge $-1 $245 $152 $376 $379 forward $254 $-1 #
coedge $-1 $152 $245 $242 $363 forward $254 $-1 #
loop $-1 $-1 $152 $358 #
vertex $-1 $153 $380 #
vertex $-1 $379 $381 #
straight-curve $-1 77.580492568742955 -18.818580249141625 5.513198040665138 0 -1 0 I I #
face $-1 $382 $383 $35 $-1 $384 reversed single #
loop $-1 $-1 $160 $154 #
plane-surface $-1 77.580492568742955 0 0 -1 0 0 0 0 1 forward_v I I I I #
coedge $-1 $385 $269 $386 $387 reversed $155 $-1 #
coedge $-1 $388 $157 $385 $389 forward $97 $-1 #
coedge $-1 $157 $388 $390 $391 reversed $97 $-1 #
coedge $-1 $272 $271 $157 $265 forward $259 $-1 #
edge $-1 $392 13.369173108787187 $393 24.267987389496064 $264 $394 forward 7 unknown #
coedge $-1 $159 $158 $395 $396 reversed $62 $-1 #
coedge $-1 $397 $398 $158 $268 forward $399 $-1 #
edge $-1 $400 -77.580492568742955 $273 77.580492568742955 $267 $401 forward 7 unknown #
coedge $-1 $261 $402 $159 $270 reversed $155 $-1 #
edge $-1 $403 -77.580492568742955 $274 77.580492568742955 $269 $404 forward 7 unknown #
coedge $-1 $264 $160 $402 $405 forward $259 $-1 #
coedge $-1 $160 $264 $397 $406 reversed $259 $-1 #
vertex $-1 $406 $407 #
vertex $-1 $161 $408 #
straight-curve $-1 77.580492568742955 18.818580249141625 5.513198040665138 0 -1 0 I I #
face $-1 $-1 $288 $36 $-1 $409 reversed single #
loop $-1 $-1 $410 $162 #
plane-surface $-1 0 0 15.633558762452809 0 0 1 1 0 0 forward_v I I I I #
coedge $-1 $411 $412 $413 $414 reversed $163 $-1 #
coedge $-1 $415 $165 $167 $286 forward $101 $-1 #
coedge $-1 $165 $415 $411 $416 forward $101 $-1 #
coedge $-1 $413 $168 $165 $283 forward $288 $-1 #
edge $-1 $290 -10.731669744127572 $417 -4.1471636630644042 $282 $418 forward 7 unknown #
coedge $-1 $419 $420 $166 $285 forward $277 $-1 #
edge $-1 $421 25.170856181822529 $289 33.048185352081816 $284 $422 forward 7 unknown #
edge $-1 $290 -155.16098513748591 $421 -143.38850125515617 $167 $423 forward 7 unknown #
coedge $-1 $168 $413 $419 $424 reversed $288 $-1 #
loop $-1 $-1 $413 $276 #
vertex $-1 $424 $425 #
vertex $-1 $169 $426 #
straight-curve $-1 77.580492568742955 -18.17108644772356 113.00747266592316 0 0 -1 I I #
coedge $-1 $292 $292 $-1 $427 reversed $172 $-1 #
edge $-1 $428 0 $428 6.2831853071796004 $173 $429 forward 7 unknown #
vertex $-1 $176 $430 #
ellipse-curve $-1 73.641827983613325 -16.854185231510925 11.259228473622976 0.74314483375859142 0 0.66913059716165679 0.3345652985808284 0 -0.37157241687929571 1 I I #
coedge $-1 $296 $296 $-1 $431 reversed $179 $-1 #
edge $-1 $432 0 $432 6.2831853071796004 $180 $433 forward 7 unknown #
vertex $-1 $183 $434 #
ellipse-curve $-1 73.641827983613325 -14.878833407191976 11.259228473622976 0.74314483375859142 0 0.66913059716165679 0.3345652985808284 0 -0.37157241687929571 1 I I #
coedge $-1 $300 $300 $-1 $435 reversed $186 $-1 #
edge $-1 $436 0 $436 6.2831853071796004 $187 $437 forward 7 unknown #
vertex $-1 $190 $438 #
ellipse-curve $-1 73.641827983613325 -12.903481582873027 11.259228473622976 0.74314483375859142 0 0.66913059716165679 0.3345652985808284 0 -0.37157241687929571 1 I I #
face $-1 $-1 $439 $40 $-1 $440 forward single #
loop $-1 $-1 $197 $191 #
plane-surface $-1 -77.580492568742955 0 0 1 0 0 0 0 -1 forward_v I I I I #
coedge $-1 $441 $442 $443 $444 reversed $192 $-1 #
coedge $-1 $445 $194 $196 $314 forward $120 $-1 #
coedge $-1 $194 $445 $441 $446 forward $120 $-1 #
coedge $-1 $443 $197 $194 $311 forward $305 $-1 #
edge $-1 $317 4.1471636630644042 $447 10.731669744127572 $310 $448 forward 7 unknown #
coedge $-1 $449 $450 $195 $313 forward $439 $-1 #
edge $-1 $451 -26.740625138795892 $316 -18.863295968536633 $312 $452 forward 7 unknown #
edge $-1 $317 -2.1389731374768986e-014 $451 11.772483882329688 $196 $453 forward 7 unknown #
coedge $-1 $197 $443 $449 $454 reversed $305 $-1 #
vertex $-1 $454 $455 #
vertex $-1 $198 $456 #
straight-curve $-1 -77.580492568742955 -11.586580366660392 55.353930413015057 0 0 -1 I I #
coedge $-1 $319 $319 $-1 $457 reversed $201 $-1 #
edge $-1 $458 0 $458 6.2831853071796004 $202 $459 forward 7 unknown #
vertex $-1 $205 $460 #
ellipse-curve $-1 -73.641827983613325 -16.854185231510925 11.259228473623009 -0.74314483375859142 0 0.66913059716165679 0.3345652985808284 0 0.37157241687929571 1 I I #
coedge $-1 $323 $323 $-1 $461 reversed $208 $-1 #
edge $-1 $462 0 $462 6.2831853071796004 $209 $463 forward 7 unknown #
vertex $-1 $212 $464 #
ellipse-curve $-1 -73.641827983613325 -14.878833407191976 11.259228473623009 -0.74314483375859142 0 0.66913059716165679 0.3345652985808284 0 0.37157241687929571 1 I I #
coedge $-1 $327 $327 $-1 $465 reversed $215 $-1 #
edge $-1 $466 0 $466 6.2831853071796004 $216 $467 forward 7 unknown #
vertex $-1 $219 $468 #
ellipse-curve $-1 -73.641827983613325 -12.903481582873027 11.259228473623009 -0.74314483375859142 0 0.66913059716165679 0.3345652985808284 0 0.37157241687929571 1 I I #
face $-1 $-1 $235 $33 $-1 $469 reversed single #
loop $-1 $-1 $347 $220 #
plane-surface $-1 0 43.086567638637689 0 0 -1 0 0 0 -1 forward_v I I I I #
coedge $-1 $470 $345 $348 $471 forward $221 $-1 #
coedge $-1 $351 $223 $224 $339 reversed $139 $-1 #
coedge $-1 $345 $470 $223 $337 reversed $221 $-1 #
edge $-1 $352 -15.633558762452809 $472 15.633558762452809 $336 $473 forward 7 unknown #
coedge $-1 $225 $224 $470 $474 forward $89 $-1 #
edge $-1 $343 -77.580492568742955 $472 77.580492568742955 $335 $475 forward 7 unknown #
coedge $-1 $348 $347 $225 $341 reversed $332 $-1 #
edge $-1 $476 -77.580492568742955 $342 77.580492568742955 $340 $477 forward 7 unknown #
vertex $-1 $227 $478 #
vertex $-1 $354 $479 #
straight-curve $-1 77.580492568742955 0 -15.633558762452809 0 -1 0 I I #
coedge $-1 $334 $336 $228 $346 reversed $221 $-1 #
edge $-1 $349 -43.086567638637689 $352 43.086567638637689 $345 $480 forward 7 unknown #
coedge $-1 $340 $229 $234 $355 forward $332 $-1 #
coedge $-1 $229 $340 $334 $471 reversed $332 $-1 #
vertex $-1 $230 $481 #
straight-curve $-1 0 43.086567638637689 15.633558762452809 -1 0 0 I I #
coedge $-1 $231 $335 $233 $354 reversed $139 $-1 #
vertex $-1 $346 $482 #
straight-curve $-1 0 -43.086567638637689 15.633558762452809 1 0 0 I I #
edge $-1 $236 -15.633558762452809 $343 15.633558762452809 $233 $483 forward 7 unknown #
edge $-1 $237 -15.633558762452809 $342 15.633558762452809 $234 $484 forward 7 unknown #
point $-1 77.580492568742955 -43.086567638637689 15.633558762452809 #
point $-1 77.580492568742955 43.086567638637689 15.633558762452809 #
face $-1 $-1 $254 $34 $-1 $485 reversed single #
loop $-1 $-1 $250 $239 #
plane-surface $-1 0 -43.086567638637689 0 0 1 0 0 0 1 forward_v I I I I #
coedge $-1 $486 $487 $247 $371 forward $240 $-1 #
coedge $-1 $372 $242 $244 $367 reversed $147 $-1 #
edge $-1 $369 -2.8931096624167472 $255 4.6398352479156744 $253 $488 forward 7 unknown #
coedge $-1 $244 $243 $489 $490 reversed $93 $-1 #
coedge $-1 $376 $375 $243 $366 forward $359 $-1 #
edge $-1 $491 -77.580492568742955 $368 77.580492568742955 $365 $492 forward 7 unknown #
edge $-1 $493 -77.580492568742955 $369 77.580492568742955 $362 $494 forward 7 unknown #
vertex $-1 $366 $495 #
vertex $-1 $246 $496 #
straight-curve $-1 77.580492568742955 -18.818580249141625 -2.0197468696672836 0 1 0 I I #
edge $-1 $377 -24.267987389496064 $373 -13.369173108787187 $361 $497 forward 7 unknown #
coedge $-1 $248 $362 $486 $498 reversed $147 $-1 #
vertex $-1 $371 $499 #
straight-curve $-1 0 -32.187753357928813 5.513198040665138 -1 0 0 I I #
coedge $-1 $365 $250 $487 $500 forward $359 $-1 #
coedge $-1 $250 $365 $252 $379 reversed $359 $-1 #
vertex $-1 $500 $501 #
straight-curve $-1 0 -43.086567638637689 5.513198040665138 -1 0 0 I I #
edge $-1 $256 -5.513198040665138 $368 2.0197468696672836 $252 $502 forward 7 unknown #
point $-1 77.580492568742955 -32.187753357928813 5.513198040665138 #
point $-1 77.580492568742955 -43.086567638637689 5.513198040665138 #
face $-1 $-1 $399 $35 $-1 $503 reversed single #
loop $-1 $-1 $395 $258 #
plane-surface $-1 -77.580492568742955 0 0 1 0 0 0 0 -1 forward_v I I I I #
coedge $-1 $402 $261 $262 $389 reversed $155 $-1 #
coedge $-1 $395 $504 $261 $387 forward $383 $-1 #
edge $-1 $505 -2.8931096624167472 $403 4.6398352479156744 $386 $506 forward 7 unknown #
coedge $-1 $263 $262 $504 $507 reversed $97 $-1 #
edge $-1 $392 -77.580492568742955 $505 77.580492568742955 $385 $508 forward 7 unknown #
coedge $-1 $398 $397 $263 $391 forward $399 $-1 #
edge $-1 $393 -77.580492568742955 $509 77.580492568742955 $390 $510 forward 7 unknown #
vertex $-1 $265 $511 #
vertex $-1 $391 $512 #
straight-curve $-1 77.580492568742955 18.818580249141625 -2.0197468696672836 0 1 0 I I #
coedge $-1 $513 $386 $266 $396 forward $383 $-1 #
edge $-1 $403 13.369173108787187 $400 24.267987389496064 $395 $514 forward 7 unknown #
coedge $-1 $390 $267 $272 $406 forward $399 $-1 #
coedge $-1 $267 $390 $513 $515 reversed $399 $-1 #
loop $-1 $-1 $267 $382 #
vertex $-1 $515 $516 #
straight-curve $-1 0 43.086567638637689 5.513198040665138 1 0 0 I I #
coedge $-1 $269 $385 $271 $405 reversed $155 $-1 #
vertex $-1 $396 $517 #
straight-curve $-1 0 32.187753357928813 5.513198040665138 1 0 0 I I #
edge $-1 $274 -4.6398352479156744 $392 2.8931096624167472 $271 $518 forward 7 unknown #
edge $-1 $273 -5.513198040665138 $393 2.0197468696672836 $272 $519 forward 7 unknown #
point $-1 77.580492568742955 43.086567638637689 5.513198040665138 #
point $-1 77.580492568742955 32.187753357928813 5.513198040665138 #
plane-surface $-1 77.580492568742955 0 0 -1 0 0 0 0 1 forward_v I I I I #
coedge $-1 $420 $419 $412 $520 forward $277 $-1 #
coedge $-1 $412 $279 $281 $416 reversed $163 $-1 #
coedge $-1 $279 $411 $410 $520 reversed $163 $-1 #
coedge $-1 $287 $282 $279 $414 forward $288 $-1 #
edge $-1 $417 -106.12257448113 $521 -97.373913903470353 $413 $522 forward 7 unknown #
coedge $-1 $281 $280 $420 $523 reversed $101 $-1 #
edge $-1 $524 143.38850125515617 $417 155.16098513748591 $411 $525 forward 7 unknown #
vertex $-1 $283 $526 #
straight-curve $-1 77.580492568742955 -7.4394167035959882 6.8848981847931725 0 1 0 I I #
coedge $-1 $410 $284 $287 $424 forward $277 $-1 #
coedge $-1 $284 $410 $415 $523 forward $277 $-1 #
vertex $-1 $285 $527 #
straight-curve $-1 44.532307216661138 -18.17108644772356 15.633558762452807 1 0 0 I I #
straight-curve $-1 -26.242470072493958 -18.17108644772356 122.19198269060942 -0.66913059716165679 0 0.74314483375859142 I I #
edge $-1 $289 -18.17108644772356 $521 -11.586580366660392 $287 $528 forward 7 unknown #
point $-1 77.580492568742955 -18.17108644772356 15.633558762452809 #
point $-1 77.580492568742955 -18.17108644772356 6.8848981847931583 #
edge $-1 $529 1 $529 0 $292 $-1 forward 7 unknown #
vertex $-1 $293 $530 #
ellipse-curve $-1 72.236062493843917 -16.854185231510925 9.9934715728029868 0.74314483375859142 0 0.66913059716165679 0.3345652985808284 0 -0.37157241687929571 1 I I #
point $-1 73.976393282194195 -16.854185231510925 10.887656056743712 #
edge $-1 $531 1 $531 0 $296 $-1 forward 7 unknown #
vertex $-1 $297 $532 #
ellipse-curve $-1 72.236062493843917 -14.878833407191976 9.9934715728029868 0.74314483375859142 0 0.66913059716165679 0.3345652985808284 0 -0.37157241687929571 1 I I #
point $-1 73.976393282194195 -14.878833407191976 10.887656056743712 #
edge $-1 $533 1 $533 0 $300 $-1 forward 7 unknown #
vertex $-1 $301 $534 #
ellipse-curve $-1 72.236062493843917 -12.903481582873027 9.9934715728029868 0.74314483375859142 0 0.66913059716165679 0.3345652985808284 0 -0.37157241687929571 1 I I #
point $-1 73.976393282194195 -12.903481582873027 10.887656056743712 #
loop $-1 $-1 $312 $304 #
plane-surface $-1 0 0 15.633558762452809 0 0 1 1 0 0 forward_v I I I I #
coedge $-1 $442 $307 $309 $446 reversed $192 $-1 #
coedge $-1 $307 $441 $535 $536 reversed $192 $-1 #
coedge $-1 $315 $310 $307 $444 forward $305 $-1 #
edge $-1 $447 -48.469032228221856 $537 -39.720371650562249 $443 $538 forward 7 unknown #
coedge $-1 $309 $308 $450 $539 reversed $120 $-1 #
edge $-1 $540 -11.772483882329688 $447 2.1389731374768986e-014 $441 $541 forward 7 unknown #
vertex $-1 $311 $542 #
straight-curve $-1 -77.580492568742955 -7.4394167035959882 6.8848981847932125 0 -1 0 I I #
coedge $-1 $535 $312 $315 $454 forward $439 $-1 #
coedge $-1 $312 $535 $445 $539 forward $439 $-1 #
vertex $-1 $313 $543 #
straight-curve $-1 -96.443788537279588 -11.586580366660392 15.633558762452807 -1 0 0 I I #
straight-curve $-1 -77.58049256874294 -11.586580366660392 6.8848981847932151 0.66913059716165679 0 0.74314483375859142 I I #
edge $-1 $316 11.586580366660392 $537 18.17108644772356 $315 $544 forward 7 unknown #
point $-1 -77.580492568742955 -11.586580366660392 15.633558762452809 #
point $-1 -77.580492568742955 -11.586580366660392 6.8848981847931991 #
edge $-1 $545 1 $545 0 $319 $-1 forward 7 unknown #
vertex $-1 $320 $546 #
ellipse-curve $-1 -72.236062493843889 -16.854185231510925 9.993471572803001 -0.74314483375859142 0 0.66913059716165679 0.3345652985808284 0 0.37157241687929571 1 I I #
point $-1 -73.307262685032512 -16.854185231510925 11.630800890502318 #
edge $-1 $547 1 $547 0 $323 $-1 forward 7 unknown #
vertex $-1 $324 $548 #
ellipse-curve $-1 -72.236062493843889 -14.878833407191976 9.993471572803001 -0.74314483375859142 0 0.66913059716165679 0.3345652985808284 0 0.37157241687929571 1 I I #
point $-1 -73.307262685032512 -14.878833407191976 11.630800890502318 #
edge $-1 $549 1 $549 0 $327 $-1 forward 7 unknown #
vertex $-1 $328 $550 #
ellipse-curve $-1 -72.236062493843889 -12.903481582873027 9.993471572803001 -0.74314483375859142 0 0.66913059716165679 0.3345652985808284 0 0.37157241687929571 1 I I #
point $-1 -73.307262685032512 -12.903481582873027 11.630800890502318 #
plane-surface $-1 77.580492568742955 0 0 -1 0 0 0 0 1 forward_v I I I I #
coedge $-1 $336 $334 $338 $474 reversed $221 $-1 #
edge $-1 $349 -15.633558762452809 $476 15.633558762452809 $348 $551 forward 7 unknown #
vertex $-1 $474 $552 #
straight-curve $-1 -77.580492568742955 -43.086567638637689 0 0 0 -1 I I #
edge $-1 $472 -43.086567638637689 $476 43.086567638637689 $470 $553 forward 7 unknown #
straight-curve $-1 0 -43.086567638637689 -15.633558762452809 -1 0 0 I I #
vertex $-1 $341 $554 #
straight-curve $-1 0 43.086567638637689 -15.633558762452809 1 0 0 I I #
point $-1 77.580492568742955 43.086567638637689 -15.633558762452809 #
point $-1 77.580492568742955 -43.086567638637689 -15.633558762452809 #
straight-curve $-1 -77.580492568742955 0 15.633558762452809 0 -1 0 I I #
point $-1 -77.580492568742955 43.086567638637689 15.633558762452809 #
point $-1 -77.580492568742955 -43.086567638637689 15.633558762452809 #
straight-curve $-1 77.580492568742955 -43.086567638637689 0 0 0 -1 I I #
straight-curve $-1 77.580492568742955 43.086567638637689 0 0 0 -1 I I #
plane-surface $-1 77.580492568742955 0 0 -1 0 0 0 0 1 forward_v I I I I #
coedge $-1 $489 $361 $372 $498 forward $240 $-1 #
coedge $-1 $361 $489 $375 $500 reversed $240 $-1 #
straight-curve $-1 77.580492568742955 -32.187753357928813 0.8733627927494636 0 0 1 I I #
coedge $-1 $487 $486 $364 $490 forward $240 $-1 #
edge $-1 $493 13.369173108787187 $491 24.267987389496064 $489 $555 forward 7 unknown #
vertex $-1 $366 $556 #
straight-curve $-1 0 -43.086567638637689 -2.0197468696672836 1 0 0 I I #
vertex $-1 $490 $557 #
straight-curve $-1 0 -32.187753357928813 -2.0197468696672836 1 0 0 I I #
point $-1 77.580492568742955 -43.086567638637689 -2.0197468696672836 #
point $-1 77.580492568742955 -32.187753357928813 -2.0197468696672836 #
straight-curve $-1 -77.580492568742955 -18.818580249141625 5.513198040665138 0 1 0 I I #
edge $-1 $373 -4.6398352479156744 $493 2.8931096624167472 $486 $558 forward 7 unknown #
point $-1 -77.580492568742955 -32.187753357928813 5.513198040665138 #
edge $-1 $377 -5.513198040665138 $491 2.0197468696672836 $487 $559 forward 7 unknown #
point $-1 -77.580492568742955 -43.086567638637689 5.513198040665138 #
straight-curve $-1 77.580492568742955 -43.086567638637689 0 0 0 -1 I I #
plane-surface $-1 0 43.086567638637689 0 0 -1 0 0 0 -1 forward_v I I I I #
coedge $-1 $386 $513 $388 $507 forward $383 $-1 #
vertex $-1 $507 $560 #
straight-curve $-1 -77.580492568742955 32.187753357928813 0.8733627927494636 0 0 1 I I #
edge $-1 $509 -24.267987389496064 $505 -13.369173108787187 $504 $561 forward 7 unknown #
straight-curve $-1 0 32.187753357928813 -2.0197468696672836 -1 0 0 I I #
vertex $-1 $391 $562 #
straight-curve $-1 0 43.086567638637689 -2.0197468696672836 -1 0 0 I I #
point $-1 77.580492568742955 32.187753357928813 -2.0197468696672836 #
point $-1 77.580492568742955 43.086567638637689 -2.0197468696672836 #
coedge $-1 $504 $395 $398 $515 forward $383 $-1 #
straight-curve $-1 -77.580492568742955 18.818580249141625 5.513198040665138 0 1 0 I I #
edge $-1 $400 -5.513198040665138 $509 2.0197468696672836 $398 $563 forward 7 unknown #
point $-1 -77.580492568742955 43.086567638637689 5.513198040665138 #
point $-1 -77.580492568742955 32.187753357928813 5.513198040665138 #
straight-curve $-1 77.580492568742955 32.187753357928813 0.8733627927494636 0 0 -1 I I #
straight-curve $-1 77.580492568742955 43.086567638637689 0 0 0 -1 I I #
edge $-1 $521 -33.048185352081816 $524 -25.170856181822529 $410 $564 forward 7 unknown #
vertex $-1 $520 $565 #
straight-curve $-1 77.580492568742955 -11.586580366660392 113.00747266592316 0 0 1 I I #
edge $-1 $524 4.1471636630644042 $421 10.731669744127572 $420 $566 forward 7 unknown #
vertex $-1 $523 $567 #
straight-curve $-1 -26.242470072493958 -11.586580366660392 122.19198269060942 0.66913059716165679 0 -0.74314483375859142 I I #
point $-1 77.580492568742955 -11.586580366660392 6.8848981847931583 #
point $-1 69.703163398483667 -18.17108644772356 15.633558762452807 #
straight-curve $-1 77.580492568742955 0 15.633558762452809 0 1 0 I I #
vertex $-1 $427 $568 #
point $-1 72.570627792424744 -16.854185231510925 9.6218991559236926 #
vertex $-1 $431 $569 #
point $-1 72.570627792424744 -14.878833407191976 9.6218991559236926 #
vertex $-1 $435 $570 #
point $-1 72.570627792424744 -12.903481582873027 9.6218991559236926 #
coedge $-1 $450 $449 $442 $536 forward $439 $-1 #
edge $-1 $537 18.863295968536633 $540 26.740625138795892 $535 $571 forward 7 unknown #
vertex $-1 $536 $572 #
straight-curve $-1 -77.580492568742955 -18.17108644772356 55.353930413015057 0 0 1 I I #
edge $-1 $540 -10.731669744127572 $451 -4.1471636630644042 $450 $573 forward 7 unknown #
vertex $-1 $539 $574 #
straight-curve $-1 -77.58049256874294 -18.17108644772356 6.8848981847932151 -0.66913059716165679 0 -0.74314483375859142 I I #
point $-1 -77.580492568742955 -18.17108644772356 6.8848981847931991 #
point $-1 -69.703163398483696 -11.586580366660392 15.633558762452809 #
straight-curve $-1 -77.580492568742955 0 15.633558762452809 0 -1 0 I I #
vertex $-1 $457 $575 #
point $-1 -71.901497195263062 -16.854185231510925 10.365043989682297 #
vertex $-1 $461 $576 #
point $-1 -71.901497195263062 -14.878833407191976 10.365043989682297 #
vertex $-1 $465 $577 #
point $-1 -71.901497195263062 -12.903481582873027 10.365043989682297 #
straight-curve $-1 -77.580492568742955 43.086567638637689 0 0 0 -1 I I #
point $-1 -77.580492568742955 -43.086567638637689 -15.633558762452809 #
straight-curve $-1 -77.580492568742955 0 -15.633558762452809 0 1 0 I I #
point $-1 -77.580492568742955 43.086567638637689 -15.633558762452809 #
straight-curve $-1 -77.580492568742955 -18.818580249141625 -2.0197468696672836 0 -1 0 I I #
point $-1 -77.580492568742955 -43.086567638637689 -2.0197468696672836 #
point $-1 -77.580492568742955 -32.187753357928813 -2.0197468696672836 #
straight-curve $-1 -77.580492568742955 -32.187753357928813 0.8733627927494636 0 0 -1 I I #
straight-curve $-1 -77.580492568742955 -43.086567638637689 0 0 0 -1 I I #
point $-1 -77.580492568742955 32.187753357928813 -2.0197468696672836 #
straight-curve $-1 -77.580492568742955 18.818580249141625 -2.0197468696672836 0 -1 0 I I #
point $-1 -77.580492568742955 43.086567638637689 -2.0197468696672836 #
straight-curve $-1 -77.580492568742955 43.086567638637689 0 0 0 -1 I I #
straight-curve $-1 44.532307216661138 -11.586580366660392 15.633558762452807 -1 0 0 I I #
point $-1 77.580492568742955 -11.586580366660392 15.633558762452809 #
straight-curve $-1 69.703163398483682 -7.4394167035959882 15.633558762452807 0 -1 0 I I #
point $-1 69.703163398483667 -11.586580366660392 15.633558762452807 #
point $-1 71.864490076964614 -16.854185231510925 9.6589062742221596 #
point $-1 71.864490076964614 -14.878833407191976 9.6589062742221596 #
point $-1 71.864490076964614 -12.903481582873027 9.6589062742221596 #
straight-curve $-1 -96.443788537279588 -18.17108644772356 15.633558762452807 1 0 0 I I #
point $-1 -77.580492568742955 -18.17108644772356 15.633558762452809 #
straight-curve $-1 -69.703163398483696 -7.4394167035959882 15.633558762452809 0 1 0 I I #
point $-1 -69.703163398483696 -18.17108644772356 15.633558762452809 #
point $-1 -71.864490076964586 -16.854185231510925 9.6589062742221738 #
point $-1 -71.864490076964586 -14.878833407191976 9.6589062742221738 #
point $-1 -71.864490076964586 -12.903481582873027 9.6589062742221738 #
End-of-ACIS-data 