500 0 6 0           
7 Unknown 11 ACIS 5.0 NT 24 Fri Mar 26 17:35:32 1999 
-1 9.9999999999999995e-007 1e-010 
body $-1 $6 $-1 $7 #
body $-1 $8 $-1 $9 #
body $-1 $10 $-1 $11 #
body $-1 $12 $-1 $13 #
body $-1 $14 $-1 $15 #
body $-1 $16 $-1 $17 #
lump $-1 $-1 $18 $0 #
transform $-1 1 0 0 0 1 0 0 0 1 68.969389934995576 35.495440566630599 12.133684187958291 1 rotate no_reflect no_shear #
lump $-1 $-1 $19 $1 #
transform $-1 1 0 0 0 1 0 0 0 1 68.969389934995576 35.495440566630599 12.133684187958291 1 rotate no_reflect no_shear #
lump $-1 $-1 $20 $2 #
transform $-1 1 0 0 0 1 0 0 0 1 68.969389934995576 35.495440566630599 12.133684187958291 1 rotate no_reflect no_shear #
lump $-1 $-1 $21 $3 #
transform $-1 1 0 0 0 1 0 0 0 1 68.969389934995576 35.495440566630599 12.133684187958291 1 rotate no_reflect no_shear #
lump $-1 $-1 $22 $4 #
transform $-1 1 0 0 0 1 0 0 0 1 68.969389934995576 35.495440566630599 12.133684187958291 1 rotate no_reflect no_shear #
lump $-1 $-1 $23 $5 #
transform $-1 1 0 0 0 1 0 0 0 1 68.969389934995576 35.495440566630599 12.133684187958291 1 rotate no_reflect no_shear #
shell $-1 $-1 $-1 $24 $-1 $6 #
shell $-1 $-1 $-1 $25 $-1 $8 #
shell $-1 $-1 $-1 $26 $-1 $10 #
shell $-1 $-1 $-1 $27 $-1 $12 #
shell $-1 $-1 $-1 $28 $-1 $14 #
shell $-1 $-1 $-1 $29 $-1 $16 #
face $-1 $30 $31 $18 $-1 $32 forward single #
face $-1 $33 $34 $19 $-1 $35 reversed single #
face $-1 $36 $37 $20 $-1 $38 reversed single #
face $-1 $39 $40 $21 $-1 $41 reversed single #
face $-1 $42 $43 $22 $-1 $44 forward single #
face $-1 $45 $46 $23 $-1 $47 forward single #
face $-1 $48 $49 $18 $-1 $50 reversed single #
loop $-1 $-1 $51 $24 #
plane-surface $-1 0 0 12.133684187958291 0 0 1 1 0 0 forward_v I I I I #
face $-1 $52 $53 $19 $-1 $54 reversed single #
loop $-1 $-1 $55 $25 #
plane-surface $-1 0 -28.301547439768679 6.7073533870456892 0 0 1 1 0 0 forward_v I I I I #
face $-1 $56 $57 $20 $-1 $58 reversed single #
loop $-1 $-1 $59 $26 #
plane-surface $-1 0 28.301547439768676 6.7073533870456892 0 0 1 1 0 0 forward_v I I I I #
face $-1 $60 $61 $21 $-1 $62 reversed single #
loop $-1 $-1 $63 $27 #
plane-surface $-1 -157.63472962049121 3.8311875121006658 106.02570280126849 0 1 0 -0.64278761758704617 0 0.76604443648966558 forward_v I I I I #
face $-1 $64 $65 $22 $-1 $66 forward single #
loop $-1 $67 $68 $28 #
cone-surface $-1 -60.931388329037588 6.4383122806447943 5.0287908287273693 0.64278761758704617 0 -0.76604443648966558 0.76604443648966558 0 0.64278761758704617 1 I I 0 1 1 forward I I I I #
face $-1 $69 $70 $23 $-1 $71 forward single #
loop $-1 $72 $73 $29 #
cone-surface $-1 -60.931388329037588 10.348999433460996 5.0287908287273693 0.64278761758704617 0 -0.76604443648966558 0.76604443648966558 0 0.64278761758704617 1 I I 0 1 1 forward I I I I #
face $-1 $74 $75 $18 $-1 $76 reversed single #
loop $-1 $-1 $77 $30 #
plane-surface $-1 0 0 -12.133684187958291 0 0 1 1 0 0 forward_v I I I I #
coedge $-1 $78 $79 $80 $81 forward $31 $-1 #
face $-1 $82 $83 $19 $-1 $84 reversed single #
loop $-1 $-1 $85 $33 #
plane-surface $-1 0 -21.10765431290676 9.4205187875019902 0 -1 0 0 0 -1 forward_v I I I I #
coedge $-1 $86 $87 $88 $89 reversed $34 $-1 #
face $-1 $90 $91 $20 $-1 $92 forward single #
loop $-1 $-1 $93 $36 #
plane-surface $-1 0 21.107654312906757 9.4205187875019902 0 1 0 0 0 1 forward_v I I I I #
coedge $-1 $94 $95 $96 $97 reversed $37 $-1 #
face $-1 $98 $99 $21 $-1 $100 reversed single #
loop $-1 $-1 $101 $39 #
plane-surface $-1 -68.969389934995604 8.3936558570528987 0.35846790568909626 -0.64278761758704617 0 0.76604443648966558 0.76604443648966558 0 0.64278761758704617 forward_v I I I I #
coedge $-1 $102 $103 $104 $105 reversed $40 $-1 #
face $-1 $-1 $106 $22 $-1 $107 forward single #
loop $-1 $108 $109 $42 #
cone-surface $-1 -59.588570921308211 6.4383122806447943 3.4284833923862159 0.64278761758704617 0 -0.76604443648966558 0.38302221824483279 0 0.32139380879352308 1 I I -0.70710678118654746 0.70710678118654746 0.5 forward I I I I #
loop $-1 $-1 $110 $28 #
coedge $-1 $68 $68 $111 $112 reversed $43 $-1 #
face $-1 $-1 $113 $23 $-1 $114 forward single #
loop $-1 $115 $116 $45 #
cone-surface $-1 -59.588570921308211 10.348999433460996 3.4284833923862159 0.64278761758704617 0 -0.76604443648966558 0.38302221824483279 0 0.32139380879352308 1 I I -0.70710678118654746 0.70710678118654746 0.5 forward I I I I #
loop $-1 $-1 $117 $29 #
coedge $-1 $73 $73 $118 $119 reversed $46 $-1 #
face $-1 $120 $121 $18 $-1 $122 reversed single #
loop $-1 $-1 $123 $48 #
plane-surface $-1 0 -35.495440566630599 0 0 1 0 0 0 1 forward_v I I I I #
coedge $-1 $124 $125 $126 $127 forward $49 $-1 #
coedge $-1 $128 $51 $129 $130 forward $31 $-1 #
coedge $-1 $51 $128 $131 $132 forward $31 $-1 #
coedge $-1 $133 $134 $51 $81 reversed $135 $-1 #
edge $-1 $136 -35.495440566630599 $137 35.495440566630599 $80 $138 forward 7 unknown #
face $-1 $139 $140 $19 $-1 $141 reversed single #
loop $-1 $-1 $142 $52 #
plane-surface $-1 -68.969389934995576 0 0 1 0 0 0 0 -1 forward_v I I I I #
coedge $-1 $143 $144 $145 $146 reversed $53 $-1 #
coedge $-1 $147 $55 $148 $149 reversed $34 $-1 #
coedge $-1 $55 $147 $143 $150 forward $34 $-1 #
coedge $-1 $145 $151 $55 $89 forward $152 $-1 #
edge $-1 $153 -21.344666846746257 $154 -6.9568805930224205 $88 $155 forward 7 unknown #
face $-1 $156 $157 $20 $-1 $158 reversed single #
loop $-1 $-1 $159 $56 #
plane-surface $-1 0 0 12.133684187958291 0 0 1 1 0 0 forward_v I I I I #
coedge $-1 $160 $161 $162 $163 reversed $57 $-1 #
coedge $-1 $164 $59 $160 $165 forward $37 $-1 #
coedge $-1 $59 $164 $166 $167 reversed $37 $-1 #
coedge $-1 $168 $169 $59 $97 forward $157 $-1 #
edge $-1 $170 6.9568805930224187 $171 21.344666846746254 $96 $172 forward 7 unknown #
face $-1 $173 $174 $21 $-1 $175 reversed single #
loop $-1 $-1 $176 $60 #
plane-surface $-1 -157.63472962049121 12.956124202005132 106.02570280126849 0 -1 0 0.64278761758704617 0 -0.76604443648966558 forward_v I I I I #
coedge $-1 $177 $178 $179 $180 reversed $61 $-1 #
coedge $-1 $103 $63 $181 $182 reversed $40 $-1 #
coedge $-1 $63 $102 $177 $183 reversed $40 $-1 #
coedge $-1 $179 $184 $63 $105 forward $185 $-1 #
edge $-1 $186 9.8479748752500313 $187 23.881130889294262 $104 $188 forward 7 unknown #
loop $-1 $-1 $111 $64 #
plane-surface $-1 -68.969389934995604 8.3936558570528987 0.35846790568909626 -0.64278761758704617 0 0.76604443648966558 0.76604443648966558 0 0.64278761758704617 forward_v I I I I #
loop $-1 $-1 $189 $42 #
coedge $-1 $109 $109 $110 $190 reversed $65 $-1 #
coedge $-1 $110 $110 $109 $190 forward $67 $-1 #
coedge $-1 $111 $111 $68 $112 forward $106 $-1 #
edge $-1 $191 0 $191 6.2831853071796004 $111 $192 forward 7 unknown #
loop $-1 $-1 $118 $69 #
plane-surface $-1 -68.969389934995604 8.3936558570528987 0.35846790568909626 -0.64278761758704617 0 0.76604443648966558 0.76604443648966558 0 0.64278761758704617 forward_v I I I I #
loop $-1 $-1 $193 $45 #
coedge $-1 $116 $116 $117 $194 reversed $70 $-1 #
coedge $-1 $117 $117 $116 $194 forward $72 $-1 #
coedge $-1 $118 $118 $73 $119 forward $113 $-1 #
edge $-1 $195 0 $195 6.2831853071796004 $118 $196 forward 7 unknown #
face $-1 $197 $198 $18 $-1 $199 reversed single #
loop $-1 $-1 $200 $74 #
plane-surface $-1 -68.969389934995576 0 0 1 0 0 0 0 -1 forward_v I I I I #
coedge $-1 $201 $131 $202 $203 forward $75 $-1 #
coedge $-1 $204 $77 $201 $205 forward $49 $-1 #
coedge $-1 $77 $204 $206 $207 forward $49 $-1 #
coedge $-1 $134 $133 $77 $127 reversed $135 $-1 #
edge $-1 $208 -35.495440566630599 $209 35.495440566630599 $126 $210 forward 7 unknown #
coedge $-1 $79 $78 $211 $212 forward $31 $-1 #
coedge $-1 $213 $214 $78 $130 reversed $198 $-1 #
edge $-1 $137 -68.969389934995576 $215 68.969389934995576 $129 $216 forward 7 unknown #
coedge $-1 $123 $217 $79 $132 reversed $75 $-1 #
edge $-1 $218 -68.969389934995576 $136 68.969389934995576 $131 $219 forward 7 unknown #
coedge $-1 $126 $80 $217 $220 forward $135 $-1 #
coedge $-1 $80 $126 $213 $221 reversed $135 $-1 #
loop $-1 $-1 $133 $197 #
vertex $-1 $81 $222 #
vertex $-1 $81 $223 #
straight-curve $-1 68.969389934995576 0 12.133684187958291 0 1 0 I I #
face $-1 $224 $225 $19 $-1 $226 forward single #
loop $-1 $-1 $148 $82 #
plane-surface $-1 0 -35.495440566630599 0 0 1 0 0 0 1 forward_v I I I I #
coedge $-1 $227 $228 $229 $230 forward $83 $-1 #
coedge $-1 $229 $85 $87 $150 reversed $53 $-1 #
coedge $-1 $85 $229 $231 $232 reversed $53 $-1 #
coedge $-1 $233 $88 $85 $146 forward $152 $-1 #
edge $-1 $154 1.9970939932946941 $234 7.4234247942072962 $145 $235 forward 7 unknown #
coedge $-1 $87 $86 $227 $236 reversed $34 $-1 #
coedge $-1 $237 $238 $86 $149 forward $140 $-1 #
edge $-1 $239 -68.969389934995576 $153 68.969389934995576 $148 $240 forward 7 unknown #
edge $-1 $241 -68.969389934995576 $154 68.969389934995576 $143 $242 forward 7 unknown #
coedge $-1 $88 $233 $237 $243 forward $152 $-1 #
loop $-1 $-1 $145 $224 #
vertex $-1 $149 $244 #
vertex $-1 $89 $245 #
straight-curve $-1 68.969389934995576 -14.15077371988434 6.7073533870456892 0 1 0 I I #
face $-1 $246 $247 $20 $-1 $248 reversed single #
loop $-1 $-1 $169 $90 #
plane-surface $-1 68.969389934995576 0 0 -1 0 0 0 0 1 forward_v I I I I #
coedge $-1 $249 $250 $161 $251 forward $91 $-1 #
coedge $-1 $252 $93 $94 $165 reversed $57 $-1 #
coedge $-1 $93 $252 $159 $251 reversed $57 $-1 #
coedge $-1 $253 $254 $93 $163 forward $247 $-1 #
edge $-1 $255 1.9970939932946941 $256 7.4234247942072962 $162 $257 forward 7 unknown #
coedge $-1 $95 $94 $254 $258 reversed $37 $-1 #
edge $-1 $170 -68.969389934995576 $255 68.969389934995576 $160 $259 forward 7 unknown #
coedge $-1 $260 $261 $95 $167 forward $262 $-1 #
edge $-1 $171 -68.969389934995576 $263 68.969389934995576 $166 $264 forward 7 unknown #
coedge $-1 $265 $96 $261 $266 reversed $157 $-1 #
coedge $-1 $96 $265 $252 $267 forward $157 $-1 #
vertex $-1 $97 $268 #
vertex $-1 $167 $269 #
straight-curve $-1 68.969389934995576 14.150773719884338 6.7073533870456892 0 1 0 I I #
face $-1 $-1 $185 $21 $-1 $270 forward single #
loop $-1 $-1 $271 $98 #
plane-surface $-1 -68.969389934995576 0 0 1 0 0 0 0 -1 forward_v I I I I #
coedge $-1 $272 $273 $274 $275 reversed $99 $-1 #
coedge $-1 $276 $101 $103 $183 forward $61 $-1 #
coedge $-1 $101 $276 $272 $277 forward $61 $-1 #
coedge $-1 $274 $104 $101 $180 forward $185 $-1 #
edge $-1 $187 -0.3656404164257836 $278 8.7592962734786823 $179 $279 forward 7 unknown #
coedge $-1 $280 $281 $102 $182 forward $174 $-1 #
edge $-1 $282 -52.654383494945129 $186 -40.879167212675952 $181 $283 forward 7 unknown #
edge $-1 $187 -18.318984311602104 $282 -3.7115501063952265e-014 $103 $284 forward 7 unknown #
coedge $-1 $104 $274 $280 $285 forward $185 $-1 #
loop $-1 $-1 $274 $173 #
vertex $-1 $182 $286 #
vertex $-1 $105 $287 #
straight-curve $-1 -78.817364810245607 3.8311875121006658 12.133684187958295 1 0 0 I I #
coedge $-1 $189 $189 $-1 $288 reversed $108 $-1 #
edge $-1 $289 0 $289 6.2831853071796004 $109 $290 forward 7 unknown #
vertex $-1 $112 $291 #
ellipse-curve $-1 -61.952811927973457 6.4383122806447943 6.246076046823708 -0.64278761758704617 0 0.76604443648966558 0.76604443648966558 0 0.64278761758704617 1 I I #
coedge $-1 $193 $193 $-1 $292 reversed $115 $-1 #
edge $-1 $293 0 $293 6.2831853071796004 $116 $294 forward 7 unknown #
vertex $-1 $119 $295 #
ellipse-curve $-1 -61.952811927973457 10.348999433460996 6.246076046823708 -0.64278761758704617 0 0.76604443648966558 0.76604443648966558 0 0.64278761758704617 1 I I #
face $-1 $-1 $135 $18 $-1 $296 reversed single #
loop $-1 $-1 $213 $120 #
plane-surface $-1 0 35.495440566630599 0 0 -1 0 0 0 -1 forward_v I I I I #
coedge $-1 $297 $211 $214 $298 forward $121 $-1 #
coedge $-1 $217 $123 $124 $205 reversed $75 $-1 #
coedge $-1 $211 $297 $123 $203 reversed $121 $-1 #
edge $-1 $218 -12.133684187958291 $299 12.133684187958291 $202 $300 forward 7 unknown #
coedge $-1 $125 $124 $297 $301 forward $49 $-1 #
edge $-1 $209 -68.969389934995576 $299 68.969389934995576 $201 $302 forward 7 unknown #
coedge $-1 $214 $213 $125 $207 reversed $198 $-1 #
edge $-1 $303 -68.969389934995576 $208 68.969389934995576 $206 $304 forward 7 unknown #
vertex $-1 $127 $305 #
vertex $-1 $220 $306 #
straight-curve $-1 68.969389934995576 0 -12.133684187958291 0 -1 0 I I #
coedge $-1 $200 $202 $128 $212 reversed $121 $-1 #
edge $-1 $215 -35.495440566630599 $218 35.495440566630599 $211 $307 forward 7 unknown #
coedge $-1 $206 $129 $134 $221 forward $198 $-1 #
coedge $-1 $129 $206 $200 $298 reversed $198 $-1 #
vertex $-1 $130 $308 #
straight-curve $-1 0 35.495440566630599 12.133684187958291 -1 0 0 I I #
coedge $-1 $131 $201 $133 $220 reversed $75 $-1 #
vertex $-1 $212 $309 #
straight-curve $-1 0 -35.495440566630599 12.133684187958291 1 0 0 I I #
edge $-1 $136 -12.133684187958291 $209 12.133684187958291 $133 $310 forward 7 unknown #
edge $-1 $137 -12.133684187958291 $208 12.133684187958291 $134 $311 forward 7 unknown #
point $-1 68.969389934995576 -35.495440566630599 12.133684187958291 #
point $-1 68.969389934995576 35.495440566630599 12.133684187958291 #
face $-1 $-1 $152 $19 $-1 $312 reversed single #
loop $-1 $-1 $231 $139 #
plane-surface $-1 0 0 12.133684187958291 0 0 1 1 0 0 forward_v I I I I #
coedge $-1 $313 $142 $147 $236 forward $83 $-1 #
coedge $-1 $142 $313 $314 $315 reversed $83 $-1 #
coedge $-1 $144 $143 $142 $230 reversed $53 $-1 #
edge $-1 $316 -7.4234247942072962 $241 -1.9970939932946941 $142 $317 forward 7 unknown #
coedge $-1 $314 $318 $144 $232 forward $225 $-1 #
edge $-1 $234 -68.969389934995576 $316 68.969389934995576 $231 $319 forward 7 unknown #
coedge $-1 $151 $145 $318 $320 reversed $152 $-1 #
vertex $-1 $146 $321 #
straight-curve $-1 68.969389934995576 -21.10765431290676 4.7102593937509951 0 0 1 I I #
edge $-1 $241 6.9568805930224205 $239 21.344666846746257 $227 $322 forward 7 unknown #
coedge $-1 $323 $148 $151 $243 reversed $140 $-1 #
coedge $-1 $148 $323 $313 $324 forward $140 $-1 #
vertex $-1 $149 $325 #
straight-curve $-1 0 -35.495440566630599 6.7073533870456892 1 0 0 I I #
vertex $-1 $236 $326 #
straight-curve $-1 0 -21.10765431290676 6.7073533870456892 1 0 0 I I #
edge $-1 $327 -12.133684187958291 $153 -6.7073533870456892 $151 $328 forward 7 unknown #
point $-1 68.969389934995576 -35.495440566630599 6.7073533870456892 #
point $-1 68.969389934995576 -21.10765431290676 6.7073533870456892 #
face $-1 $-1 $262 $20 $-1 $329 reversed single #
loop $-1 $-1 $162 $156 #
plane-surface $-1 -68.969389934995576 0 0 1 0 0 0 0 -1 forward_v I I I I #
coedge $-1 $330 $159 $265 $331 forward $91 $-1 #
coedge $-1 $159 $330 $253 $332 forward $91 $-1 #
edge $-1 $256 -68.969389934995576 $333 68.969389934995576 $159 $334 forward 7 unknown #
coedge $-1 $161 $160 $169 $267 reversed $57 $-1 #
coedge $-1 $335 $162 $250 $332 reversed $247 $-1 #
coedge $-1 $162 $335 $164 $258 forward $247 $-1 #
vertex $-1 $258 $336 #
vertex $-1 $163 $337 #
straight-curve $-1 -68.969389934995576 21.107654312906757 4.7102593937509951 0 0 1 I I #
edge $-1 $263 -21.344666846746254 $255 -6.9568805930224187 $254 $338 forward 7 unknown #
straight-curve $-1 0 21.107654312906757 6.7073533870456892 -1 0 0 I I #
coedge $-1 $339 $166 $335 $340 reversed $262 $-1 #
coedge $-1 $166 $339 $168 $266 forward $262 $-1 #
loop $-1 $-1 $166 $246 #
vertex $-1 $167 $341 #
straight-curve $-1 0 35.495440566630599 6.7073533870456892 -1 0 0 I I #
coedge $-1 $169 $168 $249 $331 reversed $157 $-1 #
edge $-1 $342 -12.133684187958291 $171 -6.7073533870456892 $168 $343 forward 7 unknown #
edge $-1 $333 -7.4234247942072962 $170 -1.9970939932946941 $169 $344 forward 7 unknown #
point $-1 68.969389934995576 21.107654312906757 6.7073533870456892 #
point $-1 68.969389934995576 35.495440566630592 6.7073533870456892 #
plane-surface $-1 0 0 12.133684187958291 0 0 1 1 0 0 forward_v I I I I #
coedge $-1 $281 $280 $273 $345 forward $174 $-1 #
coedge $-1 $273 $176 $178 $277 reversed $99 $-1 #
coedge $-1 $176 $272 $271 $345 reversed $99 $-1 #
coedge $-1 $184 $179 $176 $275 forward $185 $-1 #
edge $-1 $278 -23.881130889294262 $346 -9.8479748752500313 $274 $347 forward 7 unknown #
coedge $-1 $178 $177 $281 $348 reversed $61 $-1 #
edge $-1 $349 3.7115501063952265e-014 $278 18.318984311602104 $272 $350 forward 7 unknown #
vertex $-1 $180 $351 #
straight-curve $-1 -54.936233920951338 4.1968279285264494 12.133684187958291 0 1 0 I I #
coedge $-1 $271 $181 $184 $285 reversed $174 $-1 #
coedge $-1 $181 $271 $276 $348 forward $174 $-1 #
vertex $-1 $182 $352 #
straight-curve $-1 -68.969389934995576 3.8311875121006658 53.012851400634247 0 0 1 I I #
straight-curve $-1 -68.969389934995604 3.8311875121006658 0.35846790568909626 -0.76604443648966558 0 -0.64278761758704617 I I #
edge $-1 $346 -12.956124202005132 $186 -3.8311875121006658 $280 $353 forward 7 unknown #
point $-1 -68.969389934995576 3.8311875121006658 12.133684187958291 #
point $-1 -54.936233920951345 3.8311875121006658 12.13368418795829 #
edge $-1 $354 1 $354 0 $189 $-1 forward 7 unknown #
vertex $-1 $190 $355 #
ellipse-curve $-1 -59.909964730101734 6.4383122806447943 3.8115056106310488 -0.64278761758704617 0 0.76604443648966558 0.76604443648966558 0 0.64278761758704617 1 I I #
point $-1 -61.186767491483778 6.4383122806447943 6.8888636644107368 #
edge $-1 $356 1 $356 0 $193 $-1 forward 7 unknown #
vertex $-1 $194 $357 #
ellipse-curve $-1 -59.909964730101734 10.348999433460996 3.8115056106310488 -0.64278761758704617 0 0.76604443648966558 0.76604443648966558 0 0.64278761758704617 1 I I #
point $-1 -61.186767491483778 10.348999433460996 6.8888636644107368 #
plane-surface $-1 68.969389934995576 0 0 -1 0 0 0 0 1 forward_v I I I I #
coedge $-1 $202 $200 $204 $301 reversed $121 $-1 #
edge $-1 $215 -12.133684187958291 $303 12.133684187958291 $214 $358 forward 7 unknown #
vertex $-1 $301 $359 #
straight-curve $-1 -68.969389934995576 -35.495440566630599 0 0 0 -1 I I #
edge $-1 $299 -35.495440566630599 $303 35.495440566630599 $297 $360 forward 7 unknown #
straight-curve $-1 0 -35.495440566630599 -12.133684187958291 -1 0 0 I I #
vertex $-1 $207 $361 #
straight-curve $-1 0 35.495440566630599 -12.133684187958291 1 0 0 I I #
point $-1 68.969389934995576 35.495440566630599 -12.133684187958291 #
point $-1 68.969389934995576 -35.495440566630599 -12.133684187958291 #
straight-curve $-1 -68.969389934995576 0 12.133684187958291 0 -1 0 I I #
point $-1 -68.969389934995576 35.495440566630599 12.133684187958291 #
point $-1 -68.969389934995576 -35.495440566630599 12.133684187958291 #
straight-curve $-1 68.969389934995576 -35.495440566630599 0 0 0 -1 I I #
straight-curve $-1 68.969389934995576 35.495440566630599 0 0 0 -1 I I #
plane-surface $-1 68.969389934995576 0 0 -1 0 0 0 0 1 forward_v I I I I #
coedge $-1 $228 $227 $238 $324 reversed $83 $-1 #
coedge $-1 $362 $231 $228 $315 forward $225 $-1 #
edge $-1 $316 21.10765431290676 $363 35.495440566630599 $228 $364 forward 7 unknown #
vertex $-1 $315 $365 #
straight-curve $-1 -68.969389934995576 -21.10765431290676 4.7102593937509951 0 0 -1 I I #
coedge $-1 $231 $362 $233 $320 forward $225 $-1 #
straight-curve $-1 0 -21.10765431290676 12.133684187958291 -1 0 0 I I #
edge $-1 $327 -35.495440566630599 $234 -21.10765431290676 $233 $366 forward 7 unknown #
point $-1 68.969389934995576 -21.10765431290676 12.133684187958291 #
straight-curve $-1 -68.969389934995576 -14.15077371988434 6.7073533870456892 0 -1 0 I I #
coedge $-1 $238 $237 $362 $367 reversed $140 $-1 #
edge $-1 $363 -12.133684187958291 $239 -6.7073533870456892 $313 $368 forward 7 unknown #
point $-1 -68.969389934995576 -35.495440566630599 6.7073533870456892 #
point $-1 -68.969389934995576 -21.10765431290676 6.7073533870456892 #
vertex $-1 $320 $369 #
straight-curve $-1 68.969389934995576 -35.495440566630599 0 0 0 -1 I I #
plane-surface $-1 0 35.495440566630599 0 0 -1 0 0 0 -1 forward_v I I I I #
coedge $-1 $250 $249 $339 $370 forward $91 $-1 #
edge $-1 $333 21.107654312906757 $342 35.495440566630599 $265 $371 forward 7 unknown #
edge $-1 $372 -35.495440566630599 $256 -21.107654312906757 $253 $373 forward 7 unknown #
vertex $-1 $331 $374 #
straight-curve $-1 0 21.107654312906757 12.133684187958291 1 0 0 I I #
coedge $-1 $254 $253 $260 $340 forward $247 $-1 #
point $-1 -68.969389934995576 21.107654312906757 6.7073533870456892 #
point $-1 -68.969389934995576 21.107654312906757 12.133684187958291 #
straight-curve $-1 -68.969389934995576 14.150773719884338 6.7073533870456892 0 -1 0 I I #
coedge $-1 $261 $260 $330 $370 reversed $262 $-1 #
edge $-1 $372 -12.133684187958291 $263 -6.7073533870456892 $260 $375 forward 7 unknown #
point $-1 -68.969389934995576 35.495440566630592 6.7073533870456892 #
vertex $-1 $331 $376 #
straight-curve $-1 68.969389934995576 35.495440566630599 0 0 0 -1 I I #
straight-curve $-1 68.969389934995576 21.107654312906757 4.7102593937509951 0 0 -1 I I #
edge $-1 $346 40.879167212675952 $349 52.654383494945129 $271 $377 forward 7 unknown #
vertex $-1 $285 $378 #
straight-curve $-1 -78.817364810245607 12.956124202005132 12.133684187958295 -1 0 0 I I #
edge $-1 $349 -8.7592962734786823 $282 0.3656404164257836 $281 $379 forward 7 unknown #
vertex $-1 $348 $380 #
straight-curve $-1 -68.969389934995604 12.956124202005132 0.35846790568909626 0.76604443648966558 0 0.64278761758704617 I I #
point $-1 -54.936233920951345 12.956124202005132 12.13368418795829 #
point $-1 -68.969389934995576 3.8311875121006658 0.35846790568912013 #
straight-curve $-1 -68.969389934995576 0 12.133684187958291 0 -1 0 I I #
vertex $-1 $288 $381 #
point $-1 -59.143920293612069 6.4383122806447943 4.4542932282180949 #
vertex $-1 $292 $382 #
point $-1 -59.143920293612069 10.348999433460996 4.4542932282180949 #
straight-curve $-1 -68.969389934995576 35.495440566630599 0 0 0 -1 I I #
point $-1 -68.969389934995576 -35.495440566630599 -12.133684187958291 #
straight-curve $-1 -68.969389934995576 0 -12.133684187958291 0 1 0 I I #
point $-1 -68.969389934995576 35.495440566630599 -12.133684187958291 #
coedge $-1 $318 $314 $323 $367 forward $225 $-1 #
vertex $-1 $315 $383 #
straight-curve $-1 -68.969389934995576 0 12.133684187958291 0 -1 0 I I #
point $-1 -68.969389934995576 -21.10765431290676 12.133684187958291 #
straight-curve $-1 68.969389934995576 0 12.133684187958291 0 1 0 I I #
edge $-1 $363 -68.969389934995576 $327 68.969389934995576 $323 $384 forward 7 unknown #
straight-curve $-1 -68.969389934995576 -35.495440566630599 0 0 0 -1 I I #
point $-1 68.969389934995576 -35.495440566630599 12.133684187958291 #
edge $-1 $342 -68.969389934995576 $372 68.969389934995576 $339 $385 forward 7 unknown #
straight-curve $-1 68.969389934995576 0 12.133684187958291 0 1 0 I I #
vertex $-1 $370 $386 #
straight-curve $-1 -68.969389934995576 0 12.133684187958291 0 -1 0 I I #
point $-1 68.969389934995576 21.107654312906757 12.133684187958291 #
straight-curve $-1 -68.969389934995576 35.495440566630599 0 0 0 -1 I I #
point $-1 68.969389934995576 35.495440566630599 12.133684187958291 #
straight-curve $-1 -68.969389934995576 12.956124202005132 53.012851400634247 0 0 -1 I I #
point $-1 -68.969389934995576 12.956124202005132 12.133684187958291 #
straight-curve $-1 -68.969389934995576 4.1968279285264494 0.35846790568912479 0 -1 0 I I #
point $-1 -68.969389934995576 12.956124202005132 0.35846790568912013 #
point $-1 -59.267177112514688 6.4383122806447943 3.0454611741413831 #
point $-1 -59.267177112514688 10.348999433460996 3.0454611741413831 #
point $-1 -68.969389934995576 -35.495440566630599 12.133684187958291 #
straight-curve $-1 0 -35.495440566630599 12.133684187958291 1 0 0 I I #
straight-curve $-1 0 35.495440566630599 12.133684187958291 -1 0 0 I I #
point $-1 -68.969389934995576 35.495440566630599 12.133684187958291 #
End-of-ACIS-data 