500 0 12 0           
7 Unknown 11 ACIS 5.0 NT 24 Thu Mar 25 22:41:03 1999 
-1 9.9999999999999995e-007 1e-010 
body $-1 $12 $-1 $13 #
body $-1 $14 $-1 $15 #
body $-1 $16 $-1 $17 #
body $-1 $18 $-1 $19 #
body $-1 $20 $-1 $21 #
body $-1 $22 $-1 $23 #
body $-1 $24 $-1 $25 #
body $-1 $26 $-1 $27 #
body $-1 $28 $-1 $29 #
body $-1 $30 $-1 $31 #
body $-1 $32 $-1 $33 #
body $-1 $34 $-1 $35 #
lump $-1 $-1 $36 $0 #
transform $-1 1 0 0 0 1 0 0 0 1 53.901791436506244 23.448850252107974 10.48653880243277 1 rotate no_reflect no_shear #
lump $-1 $-1 $37 $1 #
transform $-1 1 0 0 0 1 0 0 0 1 53.901791436506244 23.448850252107974 10.48653880243277 1 rotate no_reflect no_shear #
lump $-1 $-1 $38 $2 #
transform $-1 1 0 0 0 1 0 0 0 1 53.901791436506244 23.448850252107974 10.48653880243277 1 rotate no_reflect no_shear #
lump $-1 $-1 $39 $3 #
transform $-1 1 0 0 0 1 0 0 0 1 53.901791436506244 23.448850252107974 10.48653880243277 1 rotate no_reflect no_shear #
lump $-1 $-1 $40 $4 #
transform $-1 1 0 0 0 1 0 0 0 1 53.901791436506244 23.448850252107974 10.48653880243277 1 rotate no_reflect no_shear #
lump $-1 $-1 $41 $5 #
transform $-1 1 0 0 0 1 0 0 0 1 53.901791436506244 23.448850252107974 10.48653880243277 1 rotate no_reflect no_shear #
lump $-1 $-1 $42 $6 #
transform $-1 1 0 0 0 1 0 0 0 1 53.901791436506244 23.448850252107974 10.48653880243277 1 rotate no_reflect no_shear #
lump $-1 $-1 $43 $7 #
transform $-1 1 0 0 0 1 0 0 0 1 53.901791436506244 23.448850252107974 10.48653880243277 1 rotate no_reflect no_shear #
lump $-1 $-1 $44 $8 #
transform $-1 1 0 0 0 1 0 0 0 1 53.901791436506244 23.448850252107974 10.48653880243277 1 rotate no_reflect no_shear #
lump $-1 $-1 $45 $9 #
transform $-1 1 0 0 0 1 0 0 0 1 53.901791436506244 23.448850252107974 10.48653880243277 1 rotate no_reflect no_shear #
lump $-1 $-1 $46 $10 #
transform $-1 1 0 0 0 1 0 0 0 1 53.901791436506244 23.448850252107974 10.48653880243277 1 rotate no_reflect no_shear #
lump $-1 $-1 $47 $11 #
transform $-1 1 0 0 0 1 0 0 0 1 53.901791436506244 23.448850252107974 10.48653880243277 1 rotate no_reflect no_shear #
shell $-1 $-1 $-1 $48 $-1 $12 #
shell $-1 $-1 $-1 $49 $-1 $14 #
shell $-1 $-1 $-1 $50 $-1 $16 #
shell $-1 $-1 $-1 $51 $-1 $18 #
shell $-1 $-1 $-1 $52 $-1 $20 #
shell $-1 $-1 $-1 $53 $-1 $22 #
shell $-1 $-1 $-1 $54 $-1 $24 #
shell $-1 $-1 $-1 $55 $-1 $26 #
shell $-1 $-1 $-1 $56 $-1 $28 #
shell $-1 $-1 $-1 $57 $-1 $30 #
shell $-1 $-1 $-1 $58 $-1 $32 #
shell $-1 $-1 $-1 $59 $-1 $34 #
face $-1 $60 $61 $36 $-1 $62 forward single #
face $-1 $63 $64 $37 $-1 $65 forward single #
face $-1 $66 $67 $38 $-1 $68 reversed single #
face $-1 $69 $70 $39 $-1 $71 forward single #
face $-1 $72 $73 $40 $-1 $74 forward single #
face $-1 $75 $76 $41 $-1 $77 forward single #
face $-1 $78 $79 $42 $-1 $80 reversed single #
face $-1 $81 $82 $43 $-1 $83 forward single #
face $-1 $84 $85 $44 $-1 $86 forward single #
face $-1 $87 $88 $45 $-1 $89 reversed single #
face $-1 $90 $91 $46 $-1 $92 forward single #
face $-1 $93 $94 $47 $-1 $95 forward single #
face $-1 $96 $97 $36 $-1 $98 reversed single #
loop $-1 $-1 $99 $48 #
plane-surface $-1 0 0 10.48653880243277 0 0 1 1 0 0 forward_v I I I I #
face $-1 $100 $101 $37 $-1 $102 reversed single #
loop $-1 $-1 $103 $49 #
plane-surface $-1 0 -23.448850252107974 0 0 1 0 0 0 1 forward_v I I I I #
face $-1 $104 $105 $38 $-1 $106 reversed single #
loop $-1 $-1 $107 $50 #
plane-surface $-1 -130.13043680666613 -1.465840127165734 77.774068829686811 0 1 0 -0.70710678939079041 0 0.70710677298230451 forward_v I I I I #
face $-1 $108 $109 $39 $-1 $110 forward single #
loop $-1 $111 $112 $51 #
cone-surface $-1 -48.903294629058479 -0.18634060718069279 5.48804190349618 0.70710678939079041 0 -0.70710677298230451 0.35355338649115226 0 0.35355339469539521 1 I I 0 1 0.5 forward I I I I #
face $-1 $113 $114 $40 $-1 $115 forward single #
loop $-1 $116 $117 $52 #
cone-surface $-1 -48.903294629058479 1.7329086727968708 5.48804190349618 0.70710678939079041 0 -0.70710677298230451 0.35355338649115226 0 0.35355339469539521 1 I I 0 1 0.5 forward I I I I #
face $-1 $118 $119 $41 $-1 $120 forward single #
loop $-1 $121 $122 $53 #
cone-surface $-1 -48.903294629058479 3.6521579527744343 5.48804190349618 0.70710678939079041 0 -0.70710677298230451 0.35355338649115226 0 0.35355339469539521 1 I I 0 1 0.5 forward I I I I #
face $-1 $123 $124 $42 $-1 $125 reversed single #
loop $-1 $-1 $126 $54 #
plane-surface $-1 69.837919560405837 6.5879126958767902 154.07505164682587 0 -1 0 -0.77714596973225614 0 -0.62932038083071107 forward_v I I I I #
face $-1 $127 $128 $43 $-1 $129 forward single #
loop $-1 $130 $131 $55 #
cone-surface $-1 50.144702286294198 1.1343243017171183 6.0613254451964078 -0.77714596973225614 0 -0.62932038083071107 0.31466019041535553 0 -0.38857298486612807 1 I I 0 1 0.5 forward I I I I #
face $-1 $132 $133 $44 $-1 $134 forward single #
loop $-1 $135 $136 $56 #
cone-surface $-1 50.144702286294198 4.4064773382129232 6.0613254451964078 -0.77714596973225614 0 -0.62932038083071107 0.31466019041535553 0 -0.38857298486612807 1 I I 0 1 0.5 forward I I I I #
face $-1 $137 $138 $45 $-1 $139 reversed single #
loop $-1 $-1 $140 $57 #
plane-surface $-1 69.837919560405837 14.222936447700329 154.07505164682587 0 -1 0 -0.77714596973225614 0 -0.62932038083071107 forward_v I I I I #
face $-1 $141 $142 $46 $-1 $143 forward single #
loop $-1 $144 $145 $58 #
cone-surface $-1 50.144702286294198 8.7693480535406607 6.0613254451964078 -0.77714596973225614 0 -0.62932038083071107 0.31466019041535553 0 -0.38857298486612807 1 I I 0 1 0.5 forward I I I I #
face $-1 $146 $147 $47 $-1 $148 forward single #
loop $-1 $149 $150 $59 #
cone-surface $-1 50.144702286294198 12.041501090036462 6.0613254451964078 -0.77714596973225614 0 -0.62932038083071107 0.31466019041535553 0 -0.38857298486612807 1 I I 0 1 0.5 forward I I I I #
face $-1 $151 $152 $36 $-1 $153 reversed single #
loop $-1 $-1 $154 $60 #
plane-surface $-1 0 0 -10.48653880243277 0 0 1 1 0 0 forward_v I I I I #
coedge $-1 $155 $156 $157 $158 forward $61 $-1 #
face $-1 $159 $160 $37 $-1 $161 reversed single #
loop $-1 $-1 $162 $63 #
plane-surface $-1 0 0 -10.48653880243277 0 0 1 1 0 0 forward_v I I I I #
coedge $-1 $163 $164 $165 $166 forward $64 $-1 #
face $-1 $167 $168 $38 $-1 $169 reversed single #
loop $-1 $-1 $170 $66 #
plane-surface $-1 -53.901791436506258 1.7329086727968708 1.5454252284205268 -0.70710678939079041 0 0.70710677298230451 0.70710677298230451 0 0.70710678939079041 forward_v I I I I #
coedge $-1 $171 $172 $173 $174 reversed $67 $-1 #
face $-1 $-1 $175 $39 $-1 $176 forward single #
loop $-1 $177 $178 $69 #
cone-surface $-1 -48.198577807529411 -0.18634060718069279 4.7833250983201374 0.70710678939079041 0 -0.70710677298230451 0.17677669324557613 0 0.1767766973476976 1 I I -0.70710678118654746 0.70710678118654746 0.25 forward I I I I #
loop $-1 $-1 $179 $51 #
coedge $-1 $112 $112 $180 $181 reversed $70 $-1 #
face $-1 $-1 $182 $40 $-1 $183 forward single #
loop $-1 $184 $185 $72 #
cone-surface $-1 -48.198577807529411 1.7329086727968708 4.7833250983201374 0.70710678939079041 0 -0.70710677298230451 0.17677669324557613 0 0.1767766973476976 1 I I -0.70710678118654746 0.70710678118654746 0.25 forward I I I I #
loop $-1 $-1 $186 $52 #
coedge $-1 $117 $117 $187 $188 reversed $73 $-1 #
face $-1 $-1 $189 $41 $-1 $190 forward single #
loop $-1 $191 $192 $75 #
cone-surface $-1 -48.198577807529411 3.6521579527744343 4.7833250983201374 0.70710678939079041 0 -0.70710677298230451 0.17677669324557613 0 0.1767766973476976 1 I I -0.70710678118654746 0.70710678118654746 0.25 forward I I I I #
loop $-1 $-1 $193 $53 #
coedge $-1 $122 $122 $194 $195 reversed $76 $-1 #
face $-1 $196 $197 $42 $-1 $198 reversed single #
loop $-1 $-1 $199 $78 #
plane-surface $-1 -13.941200392053091 2.770400819965019 86.232059818266535 0.77714596973225614 0 0.62932038083071107 0.62932038083071107 0 -0.77714596973225614 forward_v I I I I #
coedge $-1 $200 $201 $202 $203 reversed $79 $-1 #
face $-1 $-1 $204 $43 $-1 $205 forward single #
loop $-1 $206 $207 $81 #
cone-surface $-1 49.446066630179487 1.1343243017171183 5.4955814610649636 -0.77714596973225614 0 -0.62932038083071107 0.15733009520767777 0 -0.19428649243306403 1 I I -0.70710678118654746 0.70710678118654746 0.25 forward I I I I #
loop $-1 $-1 $208 $55 #
coedge $-1 $131 $131 $209 $210 reversed $82 $-1 #
face $-1 $-1 $211 $44 $-1 $212 forward single #
loop $-1 $213 $214 $84 #
cone-surface $-1 49.446066630179487 4.4064773382129232 5.4955814610649636 -0.77714596973225614 0 -0.62932038083071107 0.15733009520767777 0 -0.19428649243306403 1 I I -0.70710678118654746 0.70710678118654746 0.25 forward I I I I #
loop $-1 $-1 $215 $56 #
coedge $-1 $136 $136 $216 $217 reversed $85 $-1 #
face $-1 $218 $219 $45 $-1 $220 reversed single #
loop $-1 $-1 $221 $87 #
plane-surface $-1 -13.941200392053091 2.770400819965019 86.232059818266535 0.77714596973225614 0 0.62932038083071107 0.62932038083071107 0 -0.77714596973225614 forward_v I I I I #
coedge $-1 $222 $223 $224 $225 reversed $88 $-1 #
face $-1 $-1 $226 $46 $-1 $227 forward single #
loop $-1 $228 $229 $90 #
cone-surface $-1 49.446066630179487 8.7693480535406607 5.4955814610649636 -0.77714596973225614 0 -0.62932038083071107 0.15733009520767777 0 -0.19428649243306403 1 I I -0.70710678118654746 0.70710678118654746 0.25 forward I I I I #
loop $-1 $-1 $230 $58 #
coedge $-1 $145 $145 $231 $232 reversed $91 $-1 #
face $-1 $-1 $233 $47 $-1 $234 forward single #
loop $-1 $235 $236 $93 #
cone-surface $-1 49.446066630179487 12.041501090036462 5.4955814610649636 -0.77714596973225614 0 -0.62932038083071107 0.15733009520767777 0 -0.19428649243306403 1 I I -0.70710678118654746 0.70710678118654746 0.25 forward I I I I #
loop $-1 $-1 $237 $59 #
coedge $-1 $150 $150 $238 $239 reversed $94 $-1 #
face $-1 $240 $241 $36 $-1 $242 reversed single #
loop $-1 $-1 $243 $96 #
plane-surface $-1 0 -23.448850252107974 0 0 1 0 0 0 1 forward_v I I I I #
coedge $-1 $244 $245 $246 $247 forward $97 $-1 #
coedge $-1 $248 $99 $249 $250 forward $61 $-1 #
coedge $-1 $99 $248 $251 $252 forward $61 $-1 #
coedge $-1 $253 $254 $99 $158 reversed $255 $-1 #
edge $-1 $256 -23.448850252107974 $257 23.448850252107974 $157 $258 forward 7 unknown #
face $-1 $259 $260 $37 $-1 $261 forward single #
loop $-1 $-1 $262 $100 #
plane-surface $-1 53.901791436506244 0 0 -1 0 0 0 0 1 forward_v I I I I #
coedge $-1 $263 $264 $265 $266 forward $101 $-1 #
coedge $-1 $265 $103 $262 $267 reversed $64 $-1 #
coedge $-1 $103 $265 $268 $269 reversed $64 $-1 #
coedge $-1 $270 $271 $103 $166 reversed $260 $-1 #
edge $-1 $272 -53.901791436506244 $273 53.901791436506244 $165 $274 forward 7 unknown #
face $-1 $275 $276 $38 $-1 $277 forward single #
loop $-1 $-1 $278 $104 #
plane-surface $-1 -130.13043680666613 4.9316574727594755 77.774068829686811 0 -1 0 0.70710678939079041 0 -0.70710677298230451 forward_v I I I I #
coedge $-1 $279 $280 $281 $282 reversed $105 $-1 #
coedge $-1 $172 $107 $283 $284 reversed $67 $-1 #
coedge $-1 $107 $171 $279 $285 reversed $67 $-1 #
coedge $-1 $281 $286 $107 $174 forward $276 $-1 #
edge $-1 $287 11.163426966826819 $288 20.104540333359587 $173 $289 forward 7 unknown #
loop $-1 $-1 $180 $108 #
plane-surface $-1 -53.901791436506258 1.7329086727968708 1.5454252284205268 -0.70710678939079041 0 0.70710677298230451 0.70710677298230451 0 0.70710678939079041 forward_v I I I I #
loop $-1 $-1 $290 $69 #
coedge $-1 $178 $178 $179 $291 reversed $109 $-1 #
coedge $-1 $179 $179 $178 $291 forward $111 $-1 #
coedge $-1 $180 $180 $112 $181 forward $175 $-1 #
edge $-1 $292 0 $292 6.2831853071796004 $180 $293 forward 7 unknown #
loop $-1 $-1 $187 $113 #
plane-surface $-1 -53.901791436506258 1.7329086727968708 1.5454252284205268 -0.70710678939079041 0 0.70710677298230451 0.70710677298230451 0 0.70710678939079041 forward_v I I I I #
loop $-1 $-1 $294 $72 #
coedge $-1 $185 $185 $186 $295 reversed $114 $-1 #
coedge $-1 $186 $186 $185 $295 forward $116 $-1 #
coedge $-1 $187 $187 $117 $188 forward $182 $-1 #
edge $-1 $296 0 $296 6.2831853071796004 $187 $297 forward 7 unknown #
loop $-1 $-1 $194 $118 #
plane-surface $-1 -53.901791436506258 1.7329086727968708 1.5454252284205268 -0.70710678939079041 0 0.70710677298230451 0.70710677298230451 0 0.70710678939079041 forward_v I I I I #
loop $-1 $-1 $298 $75 #
coedge $-1 $192 $192 $193 $299 reversed $119 $-1 #
coedge $-1 $193 $193 $192 $299 forward $121 $-1 #
coedge $-1 $194 $194 $122 $195 forward $189 $-1 #
edge $-1 $300 0 $300 6.2831853071796004 $194 $301 forward 7 unknown #
face $-1 $302 $303 $42 $-1 $304 reversed single #
loop $-1 $-1 $305 $123 #
plane-surface $-1 69.837919560405837 -1.0471110559467522 154.07505164682587 0 1 0 0.77714596973225614 0 0.62932038083071107 forward_v I I I I #
coedge $-1 $306 $307 $308 $309 reversed $124 $-1 #
coedge $-1 $201 $126 $310 $311 reversed $79 $-1 #
coedge $-1 $126 $200 $306 $312 reversed $79 $-1 #
coedge $-1 $308 $313 $126 $203 forward $314 $-1 #
edge $-1 $315 -18.982831656303325 $316 -12.477351683242482 $202 $317 forward 7 unknown #
loop $-1 $-1 $209 $127 #
plane-surface $-1 -13.941200392053091 2.770400819965019 86.232059818266535 0.77714596973225614 0 0.62932038083071107 0.62932038083071107 0 -0.77714596973225614 forward_v I I I I #
loop $-1 $-1 $318 $81 #
coedge $-1 $207 $207 $208 $319 reversed $128 $-1 #
coedge $-1 $208 $208 $207 $319 forward $130 $-1 #
coedge $-1 $209 $209 $131 $210 forward $204 $-1 #
edge $-1 $320 0 $320 6.2831853071796004 $209 $321 forward 7 unknown #
loop $-1 $-1 $216 $132 #
plane-surface $-1 -13.941200392053091 2.770400819965019 86.232059818266535 0.77714596973225614 0 0.62932038083071107 0.62932038083071107 0 -0.77714596973225614 forward_v I I I I #
loop $-1 $-1 $322 $84 #
coedge $-1 $214 $214 $215 $323 reversed $133 $-1 #
coedge $-1 $215 $215 $214 $323 forward $135 $-1 #
coedge $-1 $216 $216 $136 $217 forward $211 $-1 #
edge $-1 $324 0 $324 6.2831853071796004 $216 $325 forward 7 unknown #
face $-1 $326 $327 $45 $-1 $328 forward single #
loop $-1 $-1 $329 $137 #
plane-surface $-1 53.901791436506244 0 0 -1 0 0 0 0 1 forward_v I I I I #
coedge $-1 $330 $331 $332 $333 reversed $138 $-1 #
coedge $-1 $223 $140 $334 $335 reversed $88 $-1 #
coedge $-1 $140 $222 $336 $337 reversed $88 $-1 #
coedge $-1 $338 $329 $140 $225 forward $219 $-1 #
edge $-1 $339 -74.584585957605313 $340 -66.550987020980159 $224 $341 forward 7 unknown #
loop $-1 $-1 $231 $141 #
plane-surface $-1 -13.941200392053091 2.770400819965019 86.232059818266535 0.77714596973225614 0 0.62932038083071107 0.62932038083071107 0 -0.77714596973225614 forward_v I I I I #
loop $-1 $-1 $342 $90 #
coedge $-1 $229 $229 $230 $343 reversed $142 $-1 #
coedge $-1 $230 $230 $229 $343 forward $144 $-1 #
coedge $-1 $231 $231 $145 $232 forward $226 $-1 #
edge $-1 $344 0 $344 6.2831853071796004 $231 $345 forward 7 unknown #
loop $-1 $-1 $238 $146 #
plane-surface $-1 -13.941200392053091 2.770400819965019 86.232059818266535 0.77714596973225614 0 0.62932038083071107 0.62932038083071107 0 -0.77714596973225614 forward_v I I I I #
loop $-1 $-1 $346 $93 #
coedge $-1 $236 $236 $237 $347 reversed $147 $-1 #
coedge $-1 $237 $237 $236 $347 forward $149 $-1 #
coedge $-1 $238 $238 $150 $239 forward $233 $-1 #
edge $-1 $348 0 $348 6.2831853071796004 $238 $349 forward 7 unknown #
face $-1 $350 $351 $36 $-1 $352 reversed single #
loop $-1 $-1 $353 $151 #
plane-surface $-1 -53.901791436506244 0 0 1 0 0 0 0 -1 forward_v I I I I #
coedge $-1 $251 $354 $253 $355 reversed $152 $-1 #
coedge $-1 $356 $154 $354 $357 forward $97 $-1 #
coedge $-1 $154 $356 $358 $359 forward $97 $-1 #
coedge $-1 $254 $253 $154 $247 reversed $255 $-1 #
edge $-1 $360 -23.448850252107974 $361 23.448850252107974 $246 $362 forward 7 unknown #
coedge $-1 $156 $155 $363 $364 forward $61 $-1 #
coedge $-1 $365 $366 $155 $250 reversed $351 $-1 #
edge $-1 $257 -53.901791436506244 $367 53.901791436506244 $249 $368 forward 7 unknown #
coedge $-1 $369 $243 $156 $252 reversed $152 $-1 #
edge $-1 $370 -53.901791436506244 $256 53.901791436506244 $251 $371 forward 7 unknown #
coedge $-1 $246 $157 $243 $355 forward $255 $-1 #
coedge $-1 $157 $246 $365 $372 reversed $255 $-1 #
loop $-1 $-1 $253 $350 #
vertex $-1 $158 $373 #
vertex $-1 $158 $374 #
straight-curve $-1 53.901791436506244 0 10.48653880243277 0 1 0 I I #
face $-1 $375 $376 $37 $-1 $377 reversed single #
loop $-1 $-1 $271 $159 #
plane-surface $-1 0 -30.036762947984762 -4.7457132661981571 0 0 1 1 0 0 forward_v I I I I #
coedge $-1 $378 $379 $163 $267 forward $160 $-1 #
coedge $-1 $380 $162 $379 $381 forward $101 $-1 #
coedge $-1 $162 $380 $382 $383 forward $101 $-1 #
coedge $-1 $164 $163 $162 $266 reversed $64 $-1 #
edge $-1 $384 -53.901791436506244 $385 53.901791436506244 $162 $386 forward 7 unknown #
edge $-1 $385 -10.48653880243277 $273 -4.7457132661981571 $262 $387 forward 7 unknown #
coedge $-1 $382 $388 $164 $269 forward $389 $-1 #
edge $-1 $272 4.7457132661981571 $384 10.48653880243277 $268 $390 forward 7 unknown #
coedge $-1 $391 $165 $388 $392 forward $260 $-1 #
coedge $-1 $165 $391 $378 $393 forward $260 $-1 #
vertex $-1 $269 $394 #
vertex $-1 $393 $395 #
straight-curve $-1 0 -23.448850252107974 -4.7457132661981571 1 0 0 I I #
face $-1 $-1 $396 $38 $-1 $397 reversed single #
loop $-1 $-1 $173 $167 #
plane-surface $-1 0 0 10.48653880243277 0 0 1 1 0 0 forward_v I I I I #
coedge $-1 $398 $399 $400 $401 reversed $168 $-1 #
coedge $-1 $402 $170 $172 $285 forward $105 $-1 #
coedge $-1 $170 $402 $398 $403 forward $105 $-1 #
coedge $-1 $400 $173 $170 $282 forward $276 $-1 #
edge $-1 $288 -2.3322944635641694 $404 4.0652031363610401 $281 $405 forward 7 unknown #
coedge $-1 $406 $407 $171 $284 forward $396 $-1 #
edge $-1 $408 -37.341609186422865 $287 -28.400495612410637 $283 $409 forward 7 unknown #
edge $-1 $288 -12.644643932376161 $408 -2.0097183471152325e-014 $172 $410 forward 7 unknown #
coedge $-1 $173 $400 $406 $411 forward $276 $-1 #
vertex $-1 $284 $412 #
vertex $-1 $174 $413 #
straight-curve $-1 -65.065218403333063 -1.465840127165734 10.486538802432769 1 0 0 I I #
coedge $-1 $290 $290 $-1 $414 reversed $177 $-1 #
edge $-1 $415 0 $415 6.2831853071796004 $178 $416 forward 7 unknown #
vertex $-1 $181 $417 #
ellipse-curve $-1 -49.431234753239863 -0.18634060718069279 6.0159820154266566 -0.70710678939079041 0 0.70710677298230451 0.35355338649115226 0 0.35355339469539521 1 I I #
coedge $-1 $294 $294 $-1 $418 reversed $184 $-1 #
edge $-1 $419 0 $419 6.2831853071796004 $185 $420 forward 7 unknown #
vertex $-1 $188 $421 #
ellipse-curve $-1 -49.431234753239863 1.7329086727968708 6.0159820154266566 -0.70710678939079041 0 0.70710677298230451 0.35355338649115226 0 0.35355339469539521 1 I I #
coedge $-1 $298 $298 $-1 $422 reversed $191 $-1 #
edge $-1 $423 0 $423 6.2831853071796004 $192 $424 forward 7 unknown #
vertex $-1 $195 $425 #
ellipse-curve $-1 -49.431234753239863 3.6521579527744343 6.0159820154266566 -0.70710678939079041 0 0.70710677298230451 0.35355338649115226 0 0.35355339469539521 1 I I #
face $-1 $-1 $314 $42 $-1 $426 forward single #
loop $-1 $-1 $427 $196 #
plane-surface $-1 53.901791436506244 0 0 -1 0 0 0 0 1 forward_v I I I I #
coedge $-1 $428 $429 $430 $431 reversed $197 $-1 #
coedge $-1 $432 $199 $201 $312 forward $124 $-1 #
coedge $-1 $199 $432 $428 $433 forward $124 $-1 #
coedge $-1 $430 $202 $199 $309 forward $314 $-1 #
edge $-1 $316 -5.2027122858942807 $434 2.4323114659292617 $308 $435 forward 7 unknown #
coedge $-1 $436 $437 $200 $311 forward $303 $-1 #
edge $-1 $438 -74.584585957605313 $315 -66.550987020980159 $310 $439 forward 7 unknown #
edge $-1 $316 97.466272702835681 $438 107.80358287301246 $201 $440 forward 7 unknown #
coedge $-1 $202 $430 $436 $441 forward $314 $-1 #
loop $-1 $-1 $430 $302 #
vertex $-1 $311 $442 #
vertex $-1 $203 $443 #
straight-curve $-1 34.918959780202918 6.5879126958767902 10.486538802432776 -1 0 0 I I #
coedge $-1 $318 $318 $-1 $444 reversed $206 $-1 #
edge $-1 $445 0 $445 6.2831853071796004 $207 $446 forward 7 unknown #
vertex $-1 $210 $447 #
ellipse-curve $-1 50.64905144997585 1.1343243017171183 6.469739334120181 0.77714596973225614 0 0.62932038083071107 0.31466019041535553 0 -0.38857298486612807 1 I I #
coedge $-1 $322 $322 $-1 $448 reversed $213 $-1 #
edge $-1 $449 0 $449 6.2831853071796004 $214 $450 forward 7 unknown #
vertex $-1 $217 $451 #
ellipse-curve $-1 50.64905144997585 4.4064773382129232 6.469739334120181 0.77714596973225614 0 0.62932038083071107 0.31466019041535553 0 -0.38857298486612807 1 I I #
face $-1 $-1 $452 $45 $-1 $453 forward single #
loop $-1 $-1 $454 $218 #
plane-surface $-1 69.837919560405837 6.5879126958767902 154.07505164682587 0 -1 0 -0.77714596973225614 0 -0.62932038083071107 forward_v I I I I #
coedge $-1 $224 $455 $331 $456 forward $219 $-1 #
coedge $-1 $334 $221 $457 $458 reversed $138 $-1 #
coedge $-1 $221 $334 $329 $456 reversed $138 $-1 #
coedge $-1 $459 $454 $221 $333 forward $327 $-1 #
edge $-1 $460 97.466272702835681 $461 107.80358287301246 $332 $462 forward 7 unknown #
coedge $-1 $331 $330 $222 $335 forward $138 $-1 #
edge $-1 $463 97.466272702835681 $339 107.80358287301246 $222 $464 forward 7 unknown #
coedge $-1 $457 $465 $223 $337 forward $452 $-1 #
edge $-1 $340 -18.982831656303325 $463 -12.477351683242482 $336 $466 forward 7 unknown #
coedge $-1 $455 $224 $465 $467 reversed $219 $-1 #
vertex $-1 $225 $468 #
vertex $-1 $225 $469 #
straight-curve $-1 53.901791436506244 14.222936447700329 77.037525823412935 0 0 1 I I #
coedge $-1 $342 $342 $-1 $470 reversed $228 $-1 #
edge $-1 $471 0 $471 6.2831853071796004 $229 $472 forward 7 unknown #
vertex $-1 $232 $473 #
ellipse-curve $-1 50.64905144997585 8.7693480535406607 6.469739334120181 0.77714596973225614 0 0.62932038083071107 0.31466019041535553 0 -0.38857298486612807 1 I I #
coedge $-1 $346 $346 $-1 $474 reversed $235 $-1 #
edge $-1 $475 0 $475 6.2831853071796004 $236 $476 forward 7 unknown #
vertex $-1 $239 $477 #
ellipse-curve $-1 50.64905144997585 12.041501090036462 6.469739334120181 0.77714596973225614 0 0.62932038083071107 0.31466019041535553 0 -0.38857298486612807 1 I I #
face $-1 $-1 $255 $36 $-1 $478 reversed single #
loop $-1 $-1 $365 $240 #
plane-surface $-1 0 23.448850252107974 0 0 -1 0 0 0 -1 forward_v I I I I #
coedge $-1 $479 $363 $366 $480 forward $241 $-1 #
coedge $-1 $243 $369 $244 $357 reversed $152 $-1 #
edge $-1 $256 -10.48653880243277 $361 10.48653880243277 $253 $481 forward 7 unknown #
coedge $-1 $245 $244 $479 $482 forward $97 $-1 #
edge $-1 $361 -53.901791436506244 $483 53.901791436506244 $354 $484 forward 7 unknown #
coedge $-1 $366 $365 $245 $359 reversed $351 $-1 #
edge $-1 $485 -53.901791436506244 $360 53.901791436506244 $358 $486 forward 7 unknown #
vertex $-1 $247 $487 #
vertex $-1 $355 $488 #
straight-curve $-1 53.901791436506244 0 -10.48653880243277 0 -1 0 I I #
coedge $-1 $353 $489 $248 $364 reversed $241 $-1 #
edge $-1 $367 -23.448850252107974 $370 23.448850252107974 $363 $490 forward 7 unknown #
coedge $-1 $358 $249 $254 $372 forward $351 $-1 #
coedge $-1 $249 $358 $353 $480 reversed $351 $-1 #
vertex $-1 $250 $491 #
straight-curve $-1 0 23.448850252107974 10.48653880243277 -1 0 0 I I #
coedge $-1 $354 $251 $489 $492 forward $152 $-1 #
vertex $-1 $364 $493 #
straight-curve $-1 0 -23.448850252107974 10.48653880243277 1 0 0 I I #
edge $-1 $257 -10.48653880243277 $360 10.48653880243277 $254 $494 forward 7 unknown #
point $-1 53.901791436506244 -23.448850252107974 10.48653880243277 #
point $-1 53.901791436506244 23.448850252107974 10.48653880243277 #
face $-1 $-1 $389 $37 $-1 $495 reversed single #
loop $-1 $-1 $496 $259 #
plane-surface $-1 0 -36.624675643861551 -7.6161260343154638 0 1 0 0 0 1 forward_v I I I I #
coedge $-1 $497 $262 $271 $393 reversed $160 $-1 #
coedge $-1 $262 $497 $263 $381 reversed $160 $-1 #
coedge $-1 $264 $263 $498 $499 forward $101 $-1 #
edge $-1 $385 23.448850252107974 $500 36.624675643861551 $379 $501 forward 7 unknown #
coedge $-1 $502 $268 $264 $383 reversed $389 $-1 #
edge $-1 $503 -36.624675643861551 $384 -23.448850252107974 $382 $504 forward 7 unknown #
vertex $-1 $269 $505 #
vertex $-1 $381 $506 #
straight-curve $-1 0 -23.448850252107974 -10.48653880243277 1 0 0 I I #
straight-curve $-1 53.901791436506244 -23.448850252107974 0 0 0 1 I I #
coedge $-1 $268 $502 $270 $392 reversed $389 $-1 #
loop $-1 $-1 $268 $375 #
straight-curve $-1 -53.901791436506244 -23.448850252107974 0 0 0 -1 I I #
coedge $-1 $271 $270 $507 $508 forward $260 $-1 #
edge $-1 $272 -6.5879126958767884 $509 6.5879126958767884 $388 $510 forward 7 unknown #
edge $-1 $511 -6.5879126958767884 $273 6.5879126958767884 $378 $512 forward 7 unknown #
point $-1 -53.901791436506244 -23.448850252107974 -4.7457132661981571 #
point $-1 53.901791436506244 -23.448850252107974 -4.7457132661981571 #
loop $-1 $-1 $283 $275 #
plane-surface $-1 -53.901791436506244 0 0 1 0 0 0 0 -1 forward_v I I I I #
coedge $-1 $399 $278 $280 $403 reversed $168 $-1 #
coedge $-1 $278 $398 $513 $514 reversed $168 $-1 #
coedge $-1 $286 $281 $278 $401 forward $276 $-1 #
edge $-1 $404 -20.104540333359587 $515 -11.163426966826819 $400 $516 forward 7 unknown #
coedge $-1 $280 $279 $407 $517 reversed $105 $-1 #
edge $-1 $518 2.0097183471152325e-014 $404 12.644643932376161 $398 $519 forward 7 unknown #
vertex $-1 $282 $520 #
straight-curve $-1 -44.960678069973468 0.86645433639843539 10.48653880243277 0 1 0 I I #
coedge $-1 $513 $283 $286 $411 reversed $396 $-1 #
coedge $-1 $283 $513 $402 $517 forward $396 $-1 #
vertex $-1 $284 $521 #
straight-curve $-1 -53.901791436506244 -1.465840127165734 38.887034414843406 0 0 1 I I #
straight-curve $-1 -53.901791436506258 -1.465840127165734 1.5454252284205268 -0.70710677298230451 0 -0.70710678939079041 I I #
edge $-1 $515 -4.9316574727594755 $287 1.465840127165734 $406 $522 forward 7 unknown #
point $-1 -53.901791436506244 -1.465840127165734 10.48653880243277 #
point $-1 -44.960678069973476 -1.465840127165734 10.48653880243277 #
edge $-1 $523 1 $523 0 $290 $-1 forward 7 unknown #
vertex $-1 $291 $524 #
ellipse-curve $-1 -48.375354504877109 -0.18634060718069279 4.9601017915657133 -0.70710678939079041 0 0.70710677298230451 0.35355338649115226 0 0.35355339469539521 1 I I #
point $-1 -49.077681366748699 -0.18634060718069279 6.3695354101220421 #
edge $-1 $525 1 $525 0 $294 $-1 forward 7 unknown #
vertex $-1 $295 $526 #
ellipse-curve $-1 -48.375354504877109 1.7329086727968708 4.9601017915657133 -0.70710678939079041 0 0.70710677298230451 0.35355338649115226 0 0.35355339469539521 1 I I #
point $-1 -49.077681366748699 1.7329086727968708 6.3695354101220421 #
edge $-1 $527 1 $527 0 $298 $-1 forward 7 unknown #
vertex $-1 $299 $528 #
ellipse-curve $-1 -48.375354504877109 3.6521579527744343 4.9601017915657133 -0.70710678939079041 0 0.70710677298230451 0.35355338649115226 0 0.35355339469539521 1 I I #
point $-1 -49.077681366748699 3.6521579527744343 6.3695354101220421 #
plane-surface $-1 0 0 10.48653880243277 0 0 1 1 0 0 forward_v I I I I #
coedge $-1 $437 $436 $429 $529 forward $303 $-1 #
coedge $-1 $429 $305 $307 $433 reversed $197 $-1 #
coedge $-1 $305 $428 $427 $529 reversed $197 $-1 #
coedge $-1 $313 $308 $305 $431 forward $314 $-1 #
edge $-1 $434 12.477351683242482 $530 18.982831656303325 $430 $531 forward 7 unknown #
coedge $-1 $307 $306 $437 $532 reversed $124 $-1 #
edge $-1 $533 -107.80358287301246 $434 -97.466272702835681 $428 $534 forward 7 unknown #
vertex $-1 $309 $535 #
straight-curve $-1 47.396311463445407 1.3852004099825095 10.486538802432769 0 -1 0 I I #
coedge $-1 $427 $310 $313 $441 reversed $303 $-1 #
coedge $-1 $310 $427 $432 $532 forward $303 $-1 #
vertex $-1 $311 $536 #
straight-curve $-1 53.901791436506244 6.5879126958767902 77.037525823412935 0 0 1 I I #
straight-curve $-1 -13.941200392053091 6.5879126958767902 86.232059818266535 0.62932038083071107 0 -0.77714596973225614 I I #
edge $-1 $530 -1.0471110559467522 $315 6.5879126958767902 $436 $537 forward 7 unknown #
point $-1 53.901791436506244 6.5879126958767902 10.48653880243277 #
point $-1 47.3963114634454 6.5879126958767902 10.486538802432776 #
edge $-1 $538 1 $538 0 $318 $-1 forward 7 unknown #
vertex $-1 $319 $539 #
ellipse-curve $-1 49.640353122612552 1.1343243017171183 5.6529115562726417 0.77714596973225614 0 0.62932038083071107 0.31466019041535553 0 -0.38857298486612807 1 I I #
point $-1 50.963711640391196 1.1343243017171183 6.0811663492540466 #
edge $-1 $540 1 $540 0 $322 $-1 forward 7 unknown #
vertex $-1 $323 $541 #
ellipse-curve $-1 49.640353122612552 4.4064773382129232 5.6529115562726417 0.77714596973225614 0 0.62932038083071107 0.31466019041535553 0 -0.38857298486612807 1 I I #
point $-1 50.963711640391196 4.4064773382129232 6.0811663492540466 #
loop $-1 $-1 $457 $326 #
plane-surface $-1 0 0 10.48653880243277 0 0 1 1 0 0 forward_v I I I I #
coedge $-1 $332 $459 $542 $543 reversed $327 $-1 #
coedge $-1 $329 $338 $459 $544 forward $219 $-1 #
edge $-1 $461 5.2027122858942807 $339 12.83773603771782 $329 $545 forward 7 unknown #
coedge $-1 $542 $336 $330 $458 forward $452 $-1 #
edge $-1 $463 -12.83773603771782 $460 -5.2027122858942807 $457 $546 forward 7 unknown #
coedge $-1 $454 $332 $455 $544 reversed $327 $-1 #
vertex $-1 $458 $547 #
vertex $-1 $456 $548 #
straight-curve $-1 -13.941200392053091 6.5879126958767902 86.232059818266535 0.62932038083071107 0 -0.77714596973225614 I I #
vertex $-1 $337 $549 #
straight-curve $-1 -13.941200392053091 14.222936447700329 86.232059818266535 0.62932038083071107 0 -0.77714596973225614 I I #
coedge $-1 $336 $542 $338 $467 forward $452 $-1 #
straight-curve $-1 34.918959780202918 14.222936447700329 10.486538802432776 -1 0 0 I I #
edge $-1 $550 6.5879126958767902 $340 14.222936447700329 $338 $551 forward 7 unknown #
point $-1 53.901791436506244 14.222936447700329 2.4529398658076218 #
point $-1 53.901791436506244 14.222936447700329 10.48653880243277 #
edge $-1 $552 1 $552 0 $342 $-1 forward 7 unknown #
vertex $-1 $343 $553 #
ellipse-curve $-1 49.640353122612552 8.7693480535406607 5.6529115562726417 0.77714596973225614 0 0.62932038083071107 0.31466019041535553 0 -0.38857298486612807 1 I I #
point $-1 50.963711640391196 8.7693480535406607 6.0811663492540466 #
edge $-1 $554 1 $554 0 $346 $-1 forward 7 unknown #
vertex $-1 $347 $555 #
ellipse-curve $-1 49.640353122612552 12.041501090036462 5.6529115562726417 0.77714596973225614 0 0.62932038083071107 0.31466019041535553 0 -0.38857298486612807 1 I I #
point $-1 50.963711640391196 12.041501090036462 6.0811663492540466 #
plane-surface $-1 53.901791436506244 0 0 -1 0 0 0 0 1 forward_v I I I I #
coedge $-1 $489 $353 $356 $482 reversed $241 $-1 #
edge $-1 $367 -10.48653880243277 $485 10.48653880243277 $366 $556 forward 7 unknown #
straight-curve $-1 53.901791436506244 -23.448850252107974 0 0 0 -1 I I #
edge $-1 $483 -23.448850252107974 $485 23.448850252107974 $479 $557 forward 7 unknown #
vertex $-1 $482 $558 #
straight-curve $-1 0 -23.448850252107974 -10.48653880243277 -1 0 0 I I #
vertex $-1 $359 $559 #
straight-curve $-1 0 23.448850252107974 -10.48653880243277 1 0 0 I I #
point $-1 53.901791436506244 23.448850252107974 -10.48653880243277 #
point $-1 53.901791436506244 -23.448850252107974 -10.48653880243277 #
coedge $-1 $363 $479 $369 $492 reversed $241 $-1 #
straight-curve $-1 -53.901791436506244 0 10.48653880243277 0 -1 0 I I #
point $-1 -53.901791436506244 23.448850252107974 10.48653880243277 #
edge $-1 $370 -10.48653880243277 $483 10.48653880243277 $489 $560 forward 7 unknown #
point $-1 -53.901791436506244 -23.448850252107974 10.48653880243277 #
straight-curve $-1 53.901791436506244 23.448850252107974 0 0 0 -1 I I #
plane-surface $-1 -53.901791436506244 0 0 1 0 0 0 0 -1 forward_v I I I I #
coedge $-1 $498 $507 $502 $561 forward $376 $-1 #
coedge $-1 $379 $378 $562 $563 forward $160 $-1 #
coedge $-1 $562 $496 $380 $499 reversed $376 $-1 #
edge $-1 $500 -53.901791436506244 $503 53.901791436506244 $498 $564 forward 7 unknown #
vertex $-1 $563 $565 #
straight-curve $-1 53.901791436506244 0 -10.48653880243277 0 -1 0 I I #
coedge $-1 $388 $382 $496 $561 reversed $389 $-1 #
vertex $-1 $383 $566 #
straight-curve $-1 -53.901791436506244 0 -10.48653880243277 0 1 0 I I #
point $-1 -53.901791436506244 -23.448850252107974 -10.48653880243277 #
point $-1 53.901791436506244 -23.448850252107974 -10.48653880243277 #
coedge $-1 $496 $562 $391 $508 reversed $376 $-1 #
edge $-1 $509 -53.901791436506244 $511 53.901791436506244 $507 $567 forward 7 unknown #
vertex $-1 $392 $568 #
straight-curve $-1 -53.901791436506244 -30.036762947984762 -4.7457132661981571 0 -1 0 I I #
vertex $-1 $393 $569 #
straight-curve $-1 53.901791436506244 -30.036762947984762 -4.7457132661981571 0 1 0 I I #
coedge $-1 $407 $406 $399 $514 forward $396 $-1 #
edge $-1 $515 28.400495612410637 $518 37.341609186422865 $513 $570 forward 7 unknown #
vertex $-1 $411 $571 #
straight-curve $-1 -65.065218403333063 4.9316574727594755 10.486538802432769 -1 0 0 I I #
edge $-1 $518 -4.0652031363610401 $408 2.3322944635641694 $407 $572 forward 7 unknown #
vertex $-1 $517 $573 #
straight-curve $-1 -53.901791436506258 4.9316574727594755 1.5454252284205268 0.70710677298230451 0 0.70710678939079041 I I #
point $-1 -44.960678069973476 4.9316574727594755 10.48653880243277 #
point $-1 -53.901791436506244 -1.465840127165734 1.545425228420541 #
straight-curve $-1 -53.901791436506244 0 10.48653880243277 0 -1 0 I I #
vertex $-1 $414 $574 #
point $-1 -48.021801118385959 -0.18634060718069279 5.3136551862611086 #
vertex $-1 $418 $575 #
point $-1 -48.021801118385959 1.7329086727968708 5.3136551862611086 #
vertex $-1 $422 $576 #
point $-1 -48.021801118385959 3.6521579527744343 5.3136551862611086 #
edge $-1 $530 66.550987020980159 $533 74.584585957605313 $427 $577 forward 7 unknown #
vertex $-1 $441 $578 #
straight-curve $-1 34.918959780202918 -1.0471110559467522 10.486538802432776 1 0 0 I I #
edge $-1 $533 -2.4323114659292617 $438 5.2027122858942807 $437 $579 forward 7 unknown #
vertex $-1 $532 $580 #
straight-curve $-1 -13.941200392053091 -1.0471110559467522 86.232059818266535 -0.62932038083071107 0 0.77714596973225614 I I #
point $-1 47.3963114634454 -1.0471110559467522 10.486538802432776 #
point $-1 53.901791436506244 6.5879126958767902 2.4529398658076218 #
straight-curve $-1 53.901791436506244 0 10.48653880243277 0 1 0 I I #
vertex $-1 $444 $581 #
point $-1 49.955013313027905 1.1343243017171183 5.2643385714065136 #
vertex $-1 $448 $582 #
point $-1 49.955013313027905 4.4064773382129232 5.2643385714065136 #
coedge $-1 $465 $457 $454 $543 forward $452 $-1 #
edge $-1 $460 12.477351683242482 $550 18.982831656303325 $542 $583 forward 7 unknown #
edge $-1 $550 66.550987020980159 $461 74.584585957605313 $455 $584 forward 7 unknown #
straight-curve $-1 53.901791436506244 1.3852004099825095 2.4529398658076076 0 1 0 I I #
straight-curve $-1 47.396311463445407 1.3852004099825095 10.486538802432769 0 -1 0 I I #
point $-1 47.3963114634454 6.5879126958767902 10.486538802432776 #
point $-1 53.901791436506244 6.5879126958767902 2.4529398658076218 #
point $-1 47.3963114634454 14.222936447700329 10.486538802432776 #
vertex $-1 $467 $585 #
straight-curve $-1 53.901791436506244 0 10.48653880243277 0 1 0 I I #
vertex $-1 $470 $586 #
point $-1 49.955013313027905 8.7693480535406607 5.2643385714065136 #
vertex $-1 $474 $587 #
point $-1 49.955013313027905 12.041501090036462 5.2643385714065136 #
straight-curve $-1 -53.901791436506244 23.448850252107974 0 0 0 -1 I I #
straight-curve $-1 -53.901791436506244 0 -10.48653880243277 0 1 0 I I #
point $-1 -53.901791436506244 -23.448850252107974 -10.48653880243277 #
point $-1 -53.901791436506244 23.448850252107974 -10.48653880243277 #
straight-curve $-1 -53.901791436506244 -23.448850252107974 0 0 0 -1 I I #
edge $-1 $509 -2.8704127681173066 $503 2.8704127681173066 $502 $588 forward 7 unknown #
coedge $-1 $507 $498 $497 $563 reversed $376 $-1 #
edge $-1 $511 -2.8704127681173066 $500 2.8704127681173066 $497 $589 forward 7 unknown #
straight-curve $-1 0 -36.624675643861551 -10.48653880243277 -1 0 0 I I #
point $-1 53.901791436506244 -36.624675643861551 -10.48653880243277 #
point $-1 -53.901791436506244 -36.624675643861551 -10.48653880243277 #
straight-curve $-1 0 -36.624675643861551 -4.7457132661981571 1 0 0 I I #
point $-1 -53.901791436506244 -36.624675643861551 -4.7457132661981571 #
point $-1 53.901791436506244 -36.624675643861551 -4.7457132661981571 #
straight-curve $-1 -53.901791436506244 4.9316574727594755 38.887034414843406 0 0 -1 I I #
point $-1 -53.901791436506244 4.9316574727594755 10.48653880243277 #
straight-curve $-1 -53.901791436506244 0.86645433639843539 1.5454252284205376 0 -1 0 I I #
point $-1 -53.901791436506244 4.9316574727594755 1.545425228420541 #
point $-1 -48.021801110181713 -0.18634060718069279 4.6065484050745615 #
point $-1 -48.021801110181713 1.7329086727968708 4.6065484050745615 #
point $-1 -48.021801110181713 3.6521579527744343 4.6065484050745615 #
straight-curve $-1 53.901791436506244 -1.0471110559467522 77.037525823412935 0 0 -1 I I #
point $-1 53.901791436506244 -1.0471110559467522 10.48653880243277 #
straight-curve $-1 53.901791436506244 1.3852004099825095 2.4529398658076076 0 1 0 I I #
point $-1 53.901791436506244 -1.0471110559467522 2.4529398658076218 #
point $-1 49.251780137746422 1.1343243017171183 5.3382513658572854 #
point $-1 49.251780137746422 4.4064773382129232 5.3382513658572854 #
straight-curve $-1 34.918959780202918 6.5879126958767902 10.486538802432776 1 0 0 I I #
straight-curve $-1 53.901791436506244 6.5879126958767902 77.037525823412935 0 0 -1 I I #
point $-1 53.901791436506244 6.5879126958767902 10.48653880243277 #
point $-1 49.251780137746422 8.7693480535406607 5.3382513658572854 #
point $-1 49.251780137746422 12.041501090036462 5.3382513658572854 #
straight-curve $-1 -53.901791436506244 -36.624675643861551 -7.6161260343154638 0 0 -1 I I #
straight-curve $-1 53.901791436506244 -36.624675643861551 -7.6161260343154638 0 0 -1 I I #
End-of-ACIS-data 