500 0 7 0           
7 Unknown 11 ACIS 5.0 NT 24 Fri Mar 26 00:21:03 1999 
-1 9.9999999999999995e-007 1e-010 
body $-1 $7 $-1 $8 #
body $-1 $9 $-1 $10 #
body $-1 $11 $-1 $12 #
body $-1 $13 $-1 $14 #
body $-1 $15 $-1 $16 #
body $-1 $17 $-1 $18 #
body $-1 $19 $-1 $20 #
lump $-1 $-1 $21 $0 #
transform $-1 1 0 0 0 1 0 0 0 1 67.599719229712818 30.643198022602508 11.903311789028336 1 rotate no_reflect no_shear #
lump $-1 $-1 $22 $1 #
transform $-1 1 0 0 0 1 0 0 0 1 67.599719229712818 30.643198022602508 11.903311789028336 1 rotate no_reflect no_shear #
lump $-1 $-1 $23 $2 #
transform $-1 1 0 0 0 1 0 0 0 1 67.599719229712818 30.643198022602508 11.903311789028336 1 rotate no_reflect no_shear #
lump $-1 $-1 $24 $3 #
transform $-1 1 0 0 0 1 0 0 0 1 67.599719229712818 30.643198022602508 11.903311789028336 1 rotate no_reflect no_shear #
lump $-1 $-1 $25 $4 #
transform $-1 1 0 0 0 1 0 0 0 1 67.599719229712818 30.643198022602508 11.903311789028336 1 rotate no_reflect no_shear #
lump $-1 $-1 $26 $5 #
transform $-1 1 0 0 0 1 0 0 0 1 67.599719229712818 30.643198022602508 11.903311789028336 1 rotate no_reflect no_shear #
lump $-1 $-1 $27 $6 #
transform $-1 1 0 0 0 1 0 0 0 1 67.599719229712818 30.643198022602508 11.903311789028336 1 rotate no_reflect no_shear #
shell $-1 $-1 $-1 $28 $-1 $7 #
shell $-1 $-1 $-1 $29 $-1 $9 #
shell $-1 $-1 $-1 $30 $-1 $11 #
shell $-1 $-1 $-1 $31 $-1 $13 #
shell $-1 $-1 $-1 $32 $-1 $15 #
shell $-1 $-1 $-1 $33 $-1 $17 #
shell $-1 $-1 $-1 $34 $-1 $19 #
face $-1 $35 $36 $21 $-1 $37 forward single #
face $-1 $38 $39 $22 $-1 $40 reversed single #
face $-1 $41 $42 $23 $-1 $43 reversed single #
face $-1 $44 $45 $24 $-1 $46 forward single #
face $-1 $47 $48 $25 $-1 $49 forward single #
face $-1 $50 $51 $26 $-1 $52 reversed single #
face $-1 $53 $54 $27 $-1 $55 forward single #
face $-1 $56 $57 $21 $-1 $58 reversed single #
loop $-1 $-1 $59 $28 #
plane-surface $-1 0 0 11.903311789028336 0 0 1 1 0 0 forward_v I I I I #
face $-1 $60 $61 $22 $-1 $62 reversed single #
loop $-1 $-1 $63 $29 #
plane-surface $-1 -65.842684770348413 -19.742071923363763 0 0 -1 0 0 0 -1 forward_v I I I I #
face $-1 $64 $65 $23 $-1 $66 reversed single #
loop $-1 $-1 $67 $30 #
plane-surface $-1 117.08615114035656 22.431786144364651 186.85959318901752 0 -1 0 -0.86602541151947299 0 -0.49999998660252726 forward_v I I I I #
face $-1 $68 $69 $24 $-1 $70 forward single #
loop $-1 $71 $72 $31 #
cone-surface $-1 63.947740798337669 17.583126540689424 6.5516459022531617 -0.86602541151947299 0 -0.49999998660252726 0.24999999330126363 0 -0.43301270575973649 1 I I 0 1 0.5 forward I I I I #
face $-1 $73 $74 $25 $-1 $75 forward single #
loop $-1 $76 $77 $32 #
cone-surface $-1 63.947740798337669 20.492322302894561 6.5516459022531617 -0.86602541151947299 0 -0.49999998660252726 0.24999999330126363 0 -0.43301270575973649 1 I I 0 1 0.5 forward I I I I #
face $-1 $78 $79 $26 $-1 $80 reversed single #
loop $-1 $-1 $81 $33 #
plane-surface $-1 -163.20016008619501 19.716105069207252 97.588311468916245 0 1 0 -0.70710678939079041 0 0.70710677298230451 forward_v I I I I #
face $-1 $82 $83 $27 $-1 $84 forward single #
loop $-1 $85 $86 $34 #
cone-surface $-1 -62.181043581151691 25.179651545904878 6.4846360361193556 0.70710678939079041 0 -0.70710677298230451 0.70710677298230451 0 0.70710678939079041 1 I I 0 1 1 forward I I I I #
face $-1 $87 $88 $21 $-1 $89 reversed single #
loop $-1 $-1 $90 $35 #
plane-surface $-1 0 0 -11.903311789028336 0 0 1 1 0 0 forward_v I I I I #
coedge $-1 $91 $92 $93 $94 forward $36 $-1 #
face $-1 $95 $96 $22 $-1 $97 forward single #
loop $-1 $-1 $98 $38 #
plane-surface $-1 -64.085650310984008 -25.192634972983136 0 -1 0 0 0 0 1 forward_v I I I I #
coedge $-1 $99 $100 $101 $102 forward $39 $-1 #
face $-1 $103 $104 $23 $-1 $105 reversed single #
loop $-1 $-1 $106 $41 #
plane-surface $-1 1.8113308186684662e-006 19.037724421791989 119.25987577063549 0.86602541151947299 0 0.49999998660252726 0.49999998660252726 0 -0.86602541151947299 forward_v I I I I #
coedge $-1 $107 $108 $109 $110 reversed $42 $-1 #
face $-1 $-1 $111 $24 $-1 $112 forward single #
loop $-1 $113 $114 $44 #
cone-surface $-1 62.887945273455514 17.583126540689424 5.9397726925366356 -0.86602541151947299 0 -0.49999998660252726 0.12499999665063181 0 -0.21650635287986825 1 I I -0.70710678118654746 0.70710678118654746 0.25 forward I I I I #
loop $-1 $-1 $115 $31 #
coedge $-1 $72 $72 $116 $117 reversed $45 $-1 #
face $-1 $-1 $118 $25 $-1 $119 forward single #
loop $-1 $120 $121 $47 #
cone-surface $-1 62.887945273455514 20.492322302894561 5.9397726925366356 -0.86602541151947299 0 -0.49999998660252726 0.12499999665063181 0 -0.21650635287986825 1 I I -0.70710678118654746 0.70710678118654746 0.25 forward I I I I #
loop $-1 $-1 $122 $32 #
coedge $-1 $77 $77 $123 $124 reversed $48 $-1 #
face $-1 $125 $126 $26 $-1 $127 reversed single #
loop $-1 $-1 $128 $50 #
plane-surface $-1 -67.599719229712804 25.179651545904886 1.9878728308521119 -0.70710678939079041 0 0.70710677298230451 0.70710677298230451 0 0.70710678939079041 forward_v I I I I #
coedge $-1 $129 $130 $131 $132 reversed $51 $-1 #
face $-1 $-1 $133 $27 $-1 $134 forward single #
loop $-1 $135 $136 $53 #
cone-surface $-1 -61.366533901938887 25.179651545904878 5.6701263758073317 0.70710678939079041 0 -0.70710677298230451 0.35355338649115226 0 0.35355339469539521 1 I I -0.70710678118654746 0.70710678118654746 0.5 forward I I I I #
loop $-1 $-1 $137 $34 #
coedge $-1 $86 $86 $138 $139 reversed $54 $-1 #
face $-1 $140 $141 $21 $-1 $142 reversed single #
loop $-1 $-1 $143 $56 #
plane-surface $-1 0 -30.643198022602508 0 0 1 0 0 0 1 forward_v I I I I #
coedge $-1 $144 $145 $146 $147 forward $57 $-1 #
coedge $-1 $148 $59 $149 $150 forward $36 $-1 #
coedge $-1 $59 $148 $151 $152 forward $36 $-1 #
coedge $-1 $153 $154 $59 $94 reversed $155 $-1 #
edge $-1 $156 -30.643198022602508 $157 30.643198022602508 $93 $158 forward 7 unknown #
face $-1 $159 $160 $22 $-1 $161 reversed single #
loop $-1 $-1 $162 $60 #
plane-surface $-1 0 0 11.903311789028336 0 0 1 1 0 0 forward_v I I I I #
coedge $-1 $163 $164 $165 $166 reversed $61 $-1 #
coedge $-1 $167 $63 $168 $169 reversed $39 $-1 #
coedge $-1 $63 $167 $170 $171 reversed $39 $-1 #
coedge $-1 $164 $163 $63 $102 reversed $61 $-1 #
edge $-1 $172 -11.903311789028336 $173 11.903311789028336 $101 $174 forward 7 unknown #
face $-1 $175 $176 $23 $-1 $177 reversed single #
loop $-1 $-1 $178 $64 #
plane-surface $-1 117.08615114035656 15.643662699219327 186.85959318901752 0 1 0 0.86602541151947299 0 0.49999998660252726 forward_v I I I I #
coedge $-1 $179 $180 $181 $182 reversed $65 $-1 #
coedge $-1 $108 $67 $183 $184 reversed $42 $-1 #
coedge $-1 $67 $107 $179 $185 reversed $42 $-1 #
coedge $-1 $181 $186 $67 $110 forward $187 $-1 #
edge $-1 $188 -9.0566436595345365 $189 -3.4392651407887982 $109 $190 forward 7 unknown #
loop $-1 $-1 $116 $68 #
plane-surface $-1 1.8113308186684662e-006 19.037724421791989 119.25987577063549 0.86602541151947299 0 0.49999998660252726 0.49999998660252726 0 -0.86602541151947299 forward_v I I I I #
loop $-1 $-1 $191 $44 #
coedge $-1 $114 $114 $115 $192 reversed $69 $-1 #
coedge $-1 $115 $115 $114 $192 forward $71 $-1 #
coedge $-1 $116 $116 $72 $117 forward $111 $-1 #
edge $-1 $193 0 $193 6.2831853071796004 $116 $194 forward 7 unknown #
loop $-1 $-1 $123 $73 #
plane-surface $-1 1.8113308186684662e-006 19.037724421791989 119.25987577063549 0.86602541151947299 0 0.49999998660252726 0.49999998660252726 0 -0.86602541151947299 forward_v I I I I #
loop $-1 $-1 $195 $47 #
coedge $-1 $121 $121 $122 $196 reversed $74 $-1 #
coedge $-1 $122 $122 $121 $196 forward $76 $-1 #
coedge $-1 $123 $123 $77 $124 forward $118 $-1 #
edge $-1 $197 0 $197 6.2831853071796004 $123 $198 forward 7 unknown #
face $-1 $199 $200 $26 $-1 $201 reversed single #
loop $-1 $-1 $202 $78 #
plane-surface $-1 0 30.643198022602508 0 0 -1 0 0 0 -1 forward_v I I I I #
coedge $-1 $203 $204 $205 $206 reversed $79 $-1 #
coedge $-1 $130 $81 $207 $208 reversed $51 $-1 #
coedge $-1 $81 $129 $203 $209 reversed $51 $-1 #
coedge $-1 $205 $210 $81 $132 forward $211 $-1 #
edge $-1 $212 14.000360813384688 $213 23.91579954147214 $131 $214 forward 7 unknown #
loop $-1 $-1 $138 $82 #
plane-surface $-1 -67.599719229712804 25.179651545904886 1.9878728308521119 -0.70710678939079041 0 0.70710677298230451 0.70710677298230451 0 0.70710678939079041 forward_v I I I I #
loop $-1 $-1 $215 $53 #
coedge $-1 $136 $136 $137 $216 reversed $83 $-1 #
coedge $-1 $137 $137 $136 $216 forward $85 $-1 #
coedge $-1 $138 $138 $86 $139 forward $133 $-1 #
edge $-1 $217 0 $217 6.2831853071796004 $138 $218 forward 7 unknown #
face $-1 $219 $220 $21 $-1 $221 reversed single #
loop $-1 $-1 $222 $87 #
plane-surface $-1 -67.599719229712818 0 0 1 0 0 0 0 -1 forward_v I I I I #
coedge $-1 $223 $151 $224 $225 forward $88 $-1 #
coedge $-1 $226 $90 $223 $227 forward $57 $-1 #
coedge $-1 $90 $226 $228 $229 forward $57 $-1 #
coedge $-1 $154 $153 $90 $147 reversed $155 $-1 #
edge $-1 $230 -30.643198022602508 $231 30.643198022602508 $146 $232 forward 7 unknown #
coedge $-1 $92 $91 $233 $234 forward $36 $-1 #
coedge $-1 $235 $236 $91 $150 reversed $220 $-1 #
edge $-1 $157 -67.599719229712818 $237 67.599719229712818 $149 $238 forward 7 unknown #
coedge $-1 $143 $239 $92 $152 reversed $88 $-1 #
edge $-1 $240 -67.599719229712818 $156 67.599719229712818 $151 $241 forward 7 unknown #
coedge $-1 $146 $93 $239 $242 forward $155 $-1 #
coedge $-1 $93 $146 $235 $243 reversed $155 $-1 #
loop $-1 $-1 $153 $219 #
vertex $-1 $94 $244 #
vertex $-1 $94 $245 #
straight-curve $-1 67.599719229712818 0 11.903311789028336 0 1 0 I I #
face $-1 $246 $247 $22 $-1 $248 reversed single #
loop $-1 $-1 $249 $95 #
plane-surface $-1 -67.599719229712818 0 0 1 0 0 0 0 -1 forward_v I I I I #
coedge $-1 $170 $250 $164 $251 forward $96 $-1 #
coedge $-1 $101 $98 $252 $253 reversed $61 $-1 #
coedge $-1 $98 $101 $162 $251 reversed $61 $-1 #
coedge $-1 $254 $255 $98 $166 forward $256 $-1 #
edge $-1 $257 -11.903311789028336 $258 11.903311789028336 $165 $259 forward 7 unknown #
coedge $-1 $100 $99 $249 $260 reversed $39 $-1 #
coedge $-1 $252 $261 $99 $169 forward $247 $-1 #
edge $-1 $262 -34.678376844538612 $173 -31.164307925809801 $168 $263 forward 7 unknown #
coedge $-1 $264 $162 $100 $171 forward $96 $-1 #
edge $-1 $172 31.164307925809801 $265 34.678376844538612 $170 $266 forward 7 unknown #
vertex $-1 $171 $267 #
vertex $-1 $169 $268 #
straight-curve $-1 -64.085650310984008 -19.742071923363763 0 0 0 -1 I I #
face $-1 $-1 $187 $23 $-1 $269 forward single #
loop $-1 $-1 $270 $103 #
plane-surface $-1 67.599719229712818 0 0 -1 0 0 0 0 1 forward_v I I I I #
coedge $-1 $271 $272 $273 $274 reversed $104 $-1 #
coedge $-1 $275 $106 $108 $185 forward $65 $-1 #
coedge $-1 $106 $275 $271 $276 forward $65 $-1 #
coedge $-1 $273 $109 $106 $182 forward $187 $-1 #
edge $-1 $189 -12.912923933468656 $277 -6.1248004883233325 $181 $278 forward 7 unknown #
coedge $-1 $279 $280 $107 $184 forward $176 $-1 #
edge $-1 $281 -91.256070152898971 $188 -81.526484805480422 $183 $282 forward 7 unknown #
edge $-1 $189 123.9646811208994 $281 135.19943845942558 $108 $283 forward 7 unknown #
coedge $-1 $109 $273 $279 $284 forward $187 $-1 #
loop $-1 $-1 $273 $175 #
vertex $-1 $184 $285 #
vertex $-1 $110 $286 #
straight-curve $-1 58.543075570178281 22.431786144364651 11.903311789028336 -1 0 0 I I #
coedge $-1 $191 $191 $-1 $287 reversed $113 $-1 #
edge $-1 $288 0 $288 6.2831853071796004 $114 $289 forward 7 unknown #
vertex $-1 $117 $290 #
ellipse-curve $-1 64.791029970339963 17.583126540689424 7.0385191153190574 0.86602541151947299 0 0.49999998660252726 0.24999999330126363 0 -0.43301270575973649 1 I I #
coedge $-1 $195 $195 $-1 $291 reversed $120 $-1 #
edge $-1 $292 0 $292 6.2831853071796004 $121 $293 forward 7 unknown #
vertex $-1 $124 $294 #
ellipse-curve $-1 64.791029970339963 20.492322302894561 7.0385191153190574 0.86602541151947299 0 0.49999998660252726 0.24999999330126363 0 -0.43301270575973649 1 I I #
face $-1 $-1 $211 $26 $-1 $295 forward single #
loop $-1 $-1 $296 $125 #
plane-surface $-1 -67.599719229712818 0 0 1 0 0 0 0 -1 forward_v I I I I #
coedge $-1 $297 $298 $204 $299 forward $126 $-1 #
coedge $-1 $300 $128 $130 $209 forward $79 $-1 #
coedge $-1 $128 $300 $202 $299 reversed $79 $-1 #
coedge $-1 $301 $131 $128 $206 forward $211 $-1 #
edge $-1 $213 7.1262792962548094 $302 18.053372249650074 $205 $303 forward 7 unknown #
coedge $-1 $304 $296 $129 $208 forward $200 $-1 #
edge $-1 $305 -46.806282903606025 $212 -36.890843945429786 $207 $306 forward 7 unknown #
edge $-1 $213 -14.022548088838032 $305 2.0097183471152325e-014 $130 $307 forward 7 unknown #
coedge $-1 $131 $301 $304 $308 forward $211 $-1 #
loop $-1 $-1 $205 $199 #
vertex $-1 $208 $309 #
vertex $-1 $132 $310 #
straight-curve $-1 -81.600080043097506 19.716105069207252 11.903311789028336 1 0 0 I I #
coedge $-1 $215 $215 $-1 $311 reversed $135 $-1 #
edge $-1 $312 0 $312 6.2831853071796004 $136 $313 forward 7 unknown #
vertex $-1 $139 $314 #
ellipse-curve $-1 -62.641999865669092 25.179651545904878 6.9455923099402161 -0.70710678939079041 0 0.70710677298230451 0.70710677298230451 0 0.70710678939079041 1 I I #
face $-1 $-1 $155 $21 $-1 $315 reversed single #
loop $-1 $-1 $235 $140 #
plane-surface $-1 0 30.643198022602508 0 0 -1 0 0 0 -1 forward_v I I I I #
coedge $-1 $316 $233 $236 $317 forward $141 $-1 #
coedge $-1 $239 $143 $144 $227 reversed $88 $-1 #
coedge $-1 $233 $316 $143 $225 reversed $141 $-1 #
edge $-1 $240 -11.903311789028336 $318 11.903311789028336 $224 $319 forward 7 unknown #
coedge $-1 $145 $144 $316 $320 forward $57 $-1 #
edge $-1 $231 -67.599719229712818 $318 67.599719229712818 $223 $321 forward 7 unknown #
coedge $-1 $236 $235 $145 $229 reversed $220 $-1 #
edge $-1 $322 -67.599719229712818 $230 67.599719229712818 $228 $323 forward 7 unknown #
vertex $-1 $147 $324 #
vertex $-1 $242 $325 #
straight-curve $-1 67.599719229712818 0 -11.903311789028336 0 -1 0 I I #
coedge $-1 $222 $224 $148 $234 reversed $141 $-1 #
edge $-1 $237 -30.643198022602508 $240 30.643198022602508 $233 $326 forward 7 unknown #
coedge $-1 $228 $149 $154 $243 forward $220 $-1 #
coedge $-1 $149 $228 $222 $317 reversed $220 $-1 #
vertex $-1 $150 $327 #
straight-curve $-1 0 30.643198022602508 11.903311789028336 -1 0 0 I I #
coedge $-1 $151 $223 $153 $242 reversed $88 $-1 #
vertex $-1 $234 $328 #
straight-curve $-1 0 -30.643198022602508 11.903311789028336 1 0 0 I I #
edge $-1 $156 -11.903311789028336 $231 11.903311789028336 $153 $329 forward 7 unknown #
edge $-1 $157 -11.903311789028336 $230 11.903311789028336 $154 $330 forward 7 unknown #
point $-1 67.599719229712818 -30.643198022602508 11.903311789028336 #
point $-1 67.599719229712818 30.643198022602508 11.903311789028336 #
face $-1 $-1 $256 $22 $-1 $331 reversed single #
loop $-1 $-1 $252 $159 #
plane-surface $-1 0 0 -11.903311789028336 0 0 1 1 0 0 forward_v I I I I #
coedge $-1 $332 $333 $167 $260 forward $160 $-1 #
coedge $-1 $162 $264 $254 $334 forward $96 $-1 #
edge $-1 $258 -18.04688053611094 $172 -7.1457544368721955 $162 $335 forward 7 unknown #
coedge $-1 $336 $168 $163 $253 forward $247 $-1 #
edge $-1 $173 7.1457544368721955 $257 18.04688053611094 $252 $337 forward 7 unknown #
coedge $-1 $338 $165 $250 $334 reversed $256 $-1 #
coedge $-1 $165 $338 $336 $339 reversed $256 $-1 #
loop $-1 $-1 $165 $246 #
vertex $-1 $339 $340 #
vertex $-1 $166 $341 #
straight-curve $-1 -64.085650310984008 -30.643198022602508 0 0 0 1 I I #
edge $-1 $265 -11.903311789028336 $262 11.903311789028336 $249 $342 forward 7 unknown #
coedge $-1 $168 $336 $332 $343 forward $247 $-1 #
vertex $-1 $169 $344 #
straight-curve $-1 -32.921342385174206 -19.742071923363763 -11.903311789028336 1 0 0 I I #
coedge $-1 $250 $170 $333 $345 forward $96 $-1 #
vertex $-1 $345 $346 #
straight-curve $-1 -32.921342385174206 -19.742071923363763 11.903311789028336 -1 0 0 I I #
point $-1 -64.085650310984008 -19.742071923363763 11.903311789028336 #
point $-1 -64.085650310984008 -19.742071923363763 -11.903311789028336 #
plane-surface $-1 0 0 11.903311789028336 0 0 1 1 0 0 forward_v I I I I #
coedge $-1 $280 $279 $272 $347 forward $176 $-1 #
coedge $-1 $272 $178 $180 $276 reversed $104 $-1 #
coedge $-1 $178 $271 $270 $347 reversed $104 $-1 #
coedge $-1 $186 $181 $178 $274 forward $187 $-1 #
edge $-1 $277 3.4392651407887982 $348 9.0566436595345365 $273 $349 forward 7 unknown #
coedge $-1 $180 $179 $280 $350 reversed $65 $-1 #
edge $-1 $351 -135.19943845942558 $277 -123.9646811208994 $271 $352 forward 7 unknown #
vertex $-1 $182 $353 #
straight-curve $-1 61.98234071096708 9.5188622108959944 11.903311789028336 0 -1 0 I I #
coedge $-1 $270 $183 $186 $284 reversed $176 $-1 #
coedge $-1 $183 $270 $275 $350 forward $176 $-1 #
vertex $-1 $184 $354 #
straight-curve $-1 67.599719229712818 22.431786144364651 93.429796594508758 0 0 1 I I #
straight-curve $-1 1.8113308186684662e-006 22.431786144364651 119.25987577063549 0.49999998660252726 0 -0.86602541151947299 I I #
edge $-1 $348 15.643662699219327 $188 22.431786144364651 $279 $355 forward 7 unknown #
point $-1 67.599719229712818 22.431786144364651 11.903311789028336 #
point $-1 61.98234071096708 22.431786144364651 11.903311789028336 #
edge $-1 $356 1 $356 0 $191 $-1 forward 7 unknown #
vertex $-1 $192 $357 #
ellipse-curve $-1 63.104451626335383 17.583126540689424 6.0647726891872678 0.86602541151947299 0 0.49999998660252726 0.24999999330126363 0 -0.43301270575973649 1 I I #
point $-1 65.041029963641222 17.583126540689424 6.6055064095593208 #
edge $-1 $358 1 $358 0 $195 $-1 forward 7 unknown #
vertex $-1 $196 $359 #
ellipse-curve $-1 63.104451626335383 20.492322302894561 6.0647726891872678 0.86602541151947299 0 0.49999998660252726 0.24999999330126363 0 -0.43301270575973649 1 I I #
point $-1 65.041029963641222 20.492322302894561 6.6055064095593208 #
plane-surface $-1 0 0 11.903311789028336 0 0 1 1 0 0 forward_v I I I I #
coedge $-1 $207 $360 $300 $361 forward $200 $-1 #
coedge $-1 $298 $202 $360 $362 reversed $126 $-1 #
coedge $-1 $202 $297 $301 $363 reversed $126 $-1 #
edge $-1 $302 9.1747423831074961 $364 23.197290471945543 $202 $365 forward 7 unknown #
coedge $-1 $204 $203 $296 $361 reversed $79 $-1 #
coedge $-1 $210 $205 $298 $363 forward $211 $-1 #
vertex $-1 $363 $366 #
straight-curve $-1 -57.684280501625366 12.589825772952443 11.903311789028336 0 1 0 I I #
coedge $-1 $360 $207 $210 $308 reversed $200 $-1 #
vertex $-1 $208 $367 #
straight-curve $-1 -67.599719229712818 19.716105069207252 48.794155734458123 0 0 1 I I #
straight-curve $-1 -67.599719229712804 19.716105069207252 1.9878728308521119 -0.70710677298230451 0 -0.70710678939079041 I I #
edge $-1 $368 -30.643198022602508 $212 -19.716105069207252 $304 $369 forward 7 unknown #
point $-1 -67.599719229712818 19.716105069207252 11.903311789028336 #
point $-1 -57.684280501625366 19.716105069207252 11.903311789028336 #
edge $-1 $370 1 $370 0 $215 $-1 forward 7 unknown #
vertex $-1 $216 $371 #
ellipse-curve $-1 -61.720087296634283 25.179651545904878 6.0236797622984843 -0.70710678939079041 0 0.70710677298230451 0.70710677298230451 0 0.70710678939079041 1 I I #
point $-1 -61.934893092686799 25.179651545904878 7.6526990993310182 #
plane-surface $-1 67.599719229712818 0 0 -1 0 0 0 0 1 forward_v I I I I #
coedge $-1 $224 $222 $226 $320 reversed $141 $-1 #
edge $-1 $237 -11.903311789028336 $322 11.903311789028336 $236 $372 forward 7 unknown #
vertex $-1 $320 $373 #
straight-curve $-1 -67.599719229712818 -30.643198022602508 0 0 0 -1 I I #
edge $-1 $318 -30.643198022602508 $322 30.643198022602508 $316 $374 forward 7 unknown #
straight-curve $-1 0 -30.643198022602508 -11.903311789028336 -1 0 0 I I #
vertex $-1 $229 $375 #
straight-curve $-1 0 30.643198022602508 -11.903311789028336 1 0 0 I I #
point $-1 67.599719229712818 30.643198022602508 -11.903311789028336 #
point $-1 67.599719229712818 -30.643198022602508 -11.903311789028336 #
straight-curve $-1 -67.599719229712818 0 11.903311789028336 0 -1 0 I I #
point $-1 -67.599719229712818 30.643198022602508 11.903311789028336 #
point $-1 -67.599719229712818 -30.643198022602508 11.903311789028336 #
straight-curve $-1 67.599719229712818 -30.643198022602508 0 0 0 -1 I I #
straight-curve $-1 67.599719229712818 30.643198022602508 0 0 0 -1 I I #
plane-surface $-1 0 -30.643198022602508 0 0 1 0 0 0 1 forward_v I I I I #
coedge $-1 $376 $249 $261 $343 reversed $160 $-1 #
coedge $-1 $249 $376 $264 $345 reversed $160 $-1 #
edge $-1 $377 -67.599719229712818 $258 -64.085650310984008 $254 $378 forward 7 unknown #
straight-curve $-1 -64.085650310984008 -12.596317486491568 11.903311789028336 0 1 0 I I #
coedge $-1 $261 $252 $255 $339 forward $247 $-1 #
straight-curve $-1 -64.085650310984008 -12.596317486491568 -11.903311789028336 0 -1 0 I I #
coedge $-1 $255 $254 $376 $379 forward $256 $-1 #
edge $-1 $257 64.085650310984008 $380 67.599719229712818 $255 $381 forward 7 unknown #
point $-1 -64.085650310984008 -30.643198022602508 -11.903311789028336 #
point $-1 -64.085650310984008 -30.643198022602508 11.903311789028336 #
straight-curve $-1 -67.599719229712818 -19.742071923363763 0 0 0 -1 I I #
edge $-1 $380 -30.643198022602508 $262 -19.742071923363763 $332 $382 forward 7 unknown #
point $-1 -67.599719229712818 -19.742071923363763 -11.903311789028336 #
edge $-1 $265 19.742071923363763 $377 30.643198022602508 $333 $383 forward 7 unknown #
point $-1 -67.599719229712818 -19.742071923363763 11.903311789028336 #
edge $-1 $348 81.526484805480422 $351 91.256070152898971 $270 $384 forward 7 unknown #
vertex $-1 $284 $385 #
straight-curve $-1 58.543075570178281 15.643662699219327 11.903311789028336 1 0 0 I I #
edge $-1 $351 6.1248004883233325 $281 12.912923933468656 $280 $386 forward 7 unknown #
vertex $-1 $350 $387 #
straight-curve $-1 1.8113308186684662e-006 15.643662699219327 119.25987577063549 -0.49999998660252726 0 0.86602541151947299 I I #
point $-1 61.98234071096708 15.643662699219327 11.903311789028336 #
point $-1 67.599719229712818 22.431786144364651 2.1737264416097872 #
straight-curve $-1 67.599719229712818 0 11.903311789028336 0 1 0 I I #
vertex $-1 $287 $388 #
point $-1 63.354451619636649 17.583126540689424 5.6317599834275311 #
vertex $-1 $291 $389 #
point $-1 63.354451619636649 20.492322302894561 5.6317599834275311 #
coedge $-1 $296 $304 $297 $362 forward $200 $-1 #
edge $-1 $364 -18.053372249650074 $305 -7.1262792962548094 $296 $390 forward 7 unknown #
edge $-1 $368 -11.903311789028336 $364 -1.9878728308520976 $297 $391 forward 7 unknown #
edge $-1 $302 57.684280501625366 $368 67.599719229712818 $298 $392 forward 7 unknown #
vertex $-1 $361 $393 #
straight-curve $-1 -51.196758022162243 30.643198022602508 18.39083441903508 -0.70710677298230462 0 -0.70710678939079052 I I #
point $-1 -57.684280501625366 30.643198022602519 11.903311789028336 #
point $-1 -67.599719229712818 19.716105069207252 1.9878728308520976 #
vertex $-1 $363 $394 #
straight-curve $-1 -67.599719229712818 0 11.903311789028336 0 -1 0 I I #
vertex $-1 $311 $395 #
point $-1 -61.012980523651976 25.179651545904878 6.730786551689274 #
straight-curve $-1 -67.599719229712818 30.643198022602508 0 0 0 -1 I I #
point $-1 -67.599719229712818 -30.643198022602508 -11.903311789028336 #
straight-curve $-1 -67.599719229712818 0 -11.903311789028336 0 1 0 I I #
point $-1 -67.599719229712818 30.643198022602508 -11.903311789028336 #
coedge $-1 $333 $332 $338 $379 reversed $160 $-1 #
vertex $-1 $345 $396 #
straight-curve $-1 0 -30.643198022602508 11.903311789028336 1 0 0 I I #
edge $-1 $377 -11.903311789028336 $380 11.903311789028336 $376 $397 forward 7 unknown #
vertex $-1 $343 $398 #
straight-curve $-1 0 -30.643198022602508 -11.903311789028336 -1 0 0 I I #
straight-curve $-1 -67.599719229712818 0 -11.903311789028336 0 1 0 I I #
straight-curve $-1 -67.599719229712818 0 11.903311789028336 0 -1 0 I I #
straight-curve $-1 67.599719229712818 15.643662699219327 93.429796594508758 0 0 -1 I I #
point $-1 67.599719229712818 15.643662699219327 11.903311789028336 #
straight-curve $-1 67.599719229712818 9.5188622108959944 2.1737264416097872 0 1 0 I I #
point $-1 67.599719229712818 15.643662699219327 2.1737264416097872 #
point $-1 62.671438920575646 17.583126540689424 5.8147726958860035 #
point $-1 62.671438920575646 20.492322302894561 5.8147726958860035 #
straight-curve $-1 -67.599719229712818 12.589825772952443 1.9878728308520905 0 -1 0 I I #
straight-curve $-1 -67.599719229712818 30.643198022602508 0 0 0 -1 I I #
straight-curve $-1 0 30.643198022602508 11.903311789028336 -1 0 0 I I #
point $-1 -67.599719229712818 30.643198022602519 1.9878728308520976 #
point $-1 -67.599719229712818 30.643198022602508 11.903311789028336 #
point $-1 -61.012980507243491 25.179651545904878 5.3165729893161791 #
point $-1 -67.599719229712818 -30.643198022602508 11.903311789028336 #
straight-curve $-1 -67.599719229712818 -30.643198022602508 0 0 0 -1 I I #
point $-1 -67.599719229712818 -30.643198022602508 -11.903311789028336 #
End-of-ACIS-data 