500 0 14 0           
7 Unknown 11 ACIS 5.0 NT 24 Thu Mar 25 17:32:26 1999 
-1 9.9999999999999995e-007 1e-010 
body $-1 $14 $-1 $15 #
body $-1 $16 $-1 $17 #
body $-1 $18 $-1 $19 #
body $-1 $20 $-1 $21 #
body $-1 $22 $-1 $23 #
body $-1 $24 $-1 $25 #
body $-1 $26 $-1 $27 #
body $-1 $28 $-1 $29 #
body $-1 $30 $-1 $31 #
body $-1 $32 $-1 $33 #
body $-1 $34 $-1 $35 #
body $-1 $36 $-1 $37 #
body $-1 $38 $-1 $39 #
body $-1 $40 $-1 $41 #
lump $-1 $-1 $42 $0 #
transform $-1 1 0 0 0 1 0 0 0 1 45.14419995727409 19.309213270704909 6.4066846448492898 1 rotate no_reflect no_shear #
lump $-1 $-1 $43 $1 #
transform $-1 1 0 0 0 1 0 0 0 1 45.14419995727409 19.309213270704909 6.4066846448492898 1 rotate no_reflect no_shear #
lump $-1 $-1 $44 $2 #
transform $-1 1 0 0 0 1 0 0 0 1 45.14419995727409 19.309213270704909 6.4066846448492898 1 rotate no_reflect no_shear #
lump $-1 $-1 $45 $3 #
transform $-1 1 0 0 0 1 0 0 0 1 45.14419995727409 19.309213270704909 6.4066846448492898 1 rotate no_reflect no_shear #
lump $-1 $-1 $46 $4 #
transform $-1 1 0 0 0 1 0 0 0 1 45.14419995727409 19.309213270704909 6.4066846448492898 1 rotate no_reflect no_shear #
lump $-1 $-1 $47 $5 #
transform $-1 1 0 0 0 1 0 0 0 1 45.14419995727409 19.309213270704909 6.4066846448492898 1 rotate no_reflect no_shear #
lump $-1 $-1 $48 $6 #
transform $-1 1 0 0 0 1 0 0 0 1 45.14419995727409 19.309213270704909 6.4066846448492898 1 rotate no_reflect no_shear #
lump $-1 $-1 $49 $7 #
transform $-1 1 0 0 0 1 0 0 0 1 45.14419995727409 19.309213270704909 6.4066846448492898 1 rotate no_reflect no_shear #
lump $-1 $-1 $50 $8 #
transform $-1 1 0 0 0 1 0 0 0 1 45.14419995727409 19.309213270704909 6.4066846448492898 1 rotate no_reflect no_shear #
lump $-1 $-1 $51 $9 #
transform $-1 1 0 0 0 1 0 0 0 1 45.14419995727409 19.309213270704909 6.4066846448492898 1 rotate no_reflect no_shear #
lump $-1 $-1 $52 $10 #
transform $-1 1 0 0 0 1 0 0 0 1 45.14419995727409 19.309213270704909 6.4066846448492898 1 rotate no_reflect no_shear #
lump $-1 $-1 $53 $11 #
transform $-1 1 0 0 0 1 0 0 0 1 45.14419995727409 19.309213270704909 6.4066846448492898 1 rotate no_reflect no_shear #
lump $-1 $-1 $54 $12 #
transform $-1 1 0 0 0 1 0 0 0 1 45.14419995727409 19.309213270704909 6.4066846448492898 1 rotate no_reflect no_shear #
lump $-1 $-1 $55 $13 #
transform $-1 1 0 0 0 1 0 0 0 1 45.14419995727409 19.309213270704909 6.4066846448492898 1 rotate no_reflect no_shear #
shell $-1 $-1 $-1 $56 $-1 $14 #
shell $-1 $-1 $-1 $57 $-1 $16 #
shell $-1 $-1 $-1 $58 $-1 $18 #
shell $-1 $-1 $-1 $59 $-1 $20 #
shell $-1 $-1 $-1 $60 $-1 $22 #
shell $-1 $-1 $-1 $61 $-1 $24 #
shell $-1 $-1 $-1 $62 $-1 $26 #
shell $-1 $-1 $-1 $63 $-1 $28 #
shell $-1 $-1 $-1 $64 $-1 $30 #
shell $-1 $-1 $-1 $65 $-1 $32 #
shell $-1 $-1 $-1 $66 $-1 $34 #
shell $-1 $-1 $-1 $67 $-1 $36 #
shell $-1 $-1 $-1 $68 $-1 $38 #
shell $-1 $-1 $-1 $69 $-1 $40 #
face $-1 $70 $71 $42 $-1 $72 forward single #
face $-1 $73 $74 $43 $-1 $75 forward single #
face $-1 $76 $77 $44 $-1 $78 reversed single #
face $-1 $79 $80 $45 $-1 $81 forward single #
face $-1 $82 $83 $46 $-1 $84 forward single #
face $-1 $85 $86 $47 $-1 $87 forward single #
face $-1 $88 $89 $48 $-1 $90 reversed single #
face $-1 $91 $92 $49 $-1 $93 forward single #
face $-1 $94 $95 $50 $-1 $96 forward single #
face $-1 $97 $98 $51 $-1 $99 forward single #
face $-1 $100 $101 $52 $-1 $102 reversed single #
face $-1 $103 $104 $53 $-1 $105 forward single #
face $-1 $106 $107 $54 $-1 $108 forward single #
face $-1 $109 $110 $55 $-1 $111 forward single #
face $-1 $112 $113 $42 $-1 $114 reversed single #
loop $-1 $-1 $115 $56 #
plane-surface $-1 0 0 6.4066846448492898 0 0 1 1 0 0 forward_v I I I I #
face $-1 $116 $117 $43 $-1 $118 reversed single #
loop $-1 $-1 $119 $57 #
plane-surface $-1 0 -15.179456175795977 5.4983332835511609 0 0 1 1 0 0 forward_v I I I I #
face $-1 $120 $121 $44 $-1 $122 reversed single #
loop $-1 $-1 $123 $58 #
plane-surface $-1 -16.432339916915289 -7.0467969049608747 66.092953093854319 0.73135370988377701 0 0.68199835119979291 0.68199835119979291 0 -0.73135370988377701 forward_v I I I I #
face $-1 $124 $125 $45 $-1 $126 forward single #
loop $-1 $127 $128 $59 #
cone-surface $-1 41.808817874199327 -9.4485382105165758 2.8825499246278987 -0.73135370988377701 0 -0.68199835119979291 0.34099917559989645 0 -0.36567685494188851 1 I I 0 1 0.5 forward I I I I #
face $-1 $129 $130 $46 $-1 $131 forward single #
loop $-1 $132 $133 $60 #
cone-surface $-1 41.808817874199327 -7.0467969049608747 2.8825499246278987 -0.73135370988377701 0 -0.68199835119979291 0.34099917559989645 0 -0.36567685494188851 1 I I 0 1 0.5 forward I I I I #
face $-1 $134 $135 $47 $-1 $136 forward single #
loop $-1 $137 $138 $61 #
cone-surface $-1 41.808817874199327 -4.6450555994051754 2.8825499246278987 -0.73135370988377701 0 -0.68199835119979291 0.34099917559989645 0 -0.36567685494188851 1 I I 0 1 0.5 forward I I I I #
face $-1 $139 $140 $48 $-1 $141 reversed single #
loop $-1 $-1 $142 $62 #
plane-surface $-1 -116.29243076116026 -6.0833730617709509 55.620877796996545 0 1 0 -0.78801076186113728 0 0.61566146476048833 forward_v I I I I #
face $-1 $143 $144 $49 $-1 $145 forward single #
loop $-1 $146 $147 $63 #
cone-surface $-1 -42.260668861375777 -4.7941810052265126 2.9124062174069318 0.78801076186113728 0 -0.61566146476048833 0.30783073238024417 0 0.39400538093056864 1 I I 0 1 0.5 forward I I I I #
face $-1 $148 $149 $50 $-1 $150 forward single #
loop $-1 $151 $152 $64 #
cone-surface $-1 -42.260668861375777 -2.8603929204098542 2.9124062174069318 0.78801076186113728 0 -0.61566146476048833 0.30783073238024417 0 0.39400538093056864 1 I I 0 1 0.5 forward I I I I #
face $-1 $153 $154 $51 $-1 $155 forward single #
loop $-1 $156 $157 $65 #
cone-surface $-1 -42.260668861375777 -0.92660483559319573 2.9124062174069318 0.78801076186113728 0 -0.61566146476048833 0.30783073238024417 0 0.39400538093056864 1 I I 0 1 0.5 forward I I I I #
face $-1 $158 $159 $52 $-1 $160 reversed single #
loop $-1 $-1 $161 $66 #
plane-surface $-1 -116.29243076116026 7.8969269688666213 55.620877796996545 0 1 0 -0.78801076186113728 0 0.61566146476048833 forward_v I I I I #
face $-1 $162 $163 $53 $-1 $164 forward single #
loop $-1 $165 $166 $67 #
cone-surface $-1 -42.260668861375777 9.1861190254110596 2.9124062174069318 0.78801076186113728 0 -0.61566146476048833 0.30783073238024417 0 0.39400538093056864 1 I I 0 1 0.5 forward I I I I #
face $-1 $167 $168 $54 $-1 $169 forward single #
loop $-1 $170 $171 $68 #
cone-surface $-1 -42.260668861375777 11.119907110227718 2.9124062174069318 0.78801076186113728 0 -0.61566146476048833 0.30783073238024417 0 0.39400538093056864 1 I I 0 1 0.5 forward I I I I #
face $-1 $172 $173 $55 $-1 $174 forward single #
loop $-1 $175 $176 $69 #
cone-surface $-1 -42.260668861375777 13.053695195044376 2.9124062174069318 0.78801076186113728 0 -0.61566146476048833 0.30783073238024417 0 0.39400538093056864 1 I I 0 1 0.5 forward I I I I #
face $-1 $177 $178 $42 $-1 $179 reversed single #
loop $-1 $-1 $180 $70 #
plane-surface $-1 0 0 -6.4066846448492898 0 0 1 1 0 0 forward_v I I I I #
coedge $-1 $181 $182 $183 $184 forward $71 $-1 #
face $-1 $185 $186 $43 $-1 $187 reversed single #
loop $-1 $-1 $188 $73 #
plane-surface $-1 0 -15.179456175795977 2.4983332835511609 0 0 1 1 0 0 forward_v I I I I #
coedge $-1 $189 $190 $191 $192 reversed $74 $-1 #
face $-1 $193 $194 $44 $-1 $195 forward single #
loop $-1 $-1 $196 $76 #
plane-surface $-1 49.600416320059615 -3.0438947290347071 127.6694929680437 0 -1 0 -0.73135370988377701 0 -0.68199835119979291 forward_v I I I I #
coedge $-1 $197 $198 $199 $200 reversed $77 $-1 #
face $-1 $-1 $201 $45 $-1 $202 forward single #
loop $-1 $203 $204 $79 #
cone-surface $-1 41.24969509489565 -9.4485382105165758 2.3611595105915084 -0.73135370988377701 0 -0.68199835119979291 0.17049958779994823 0 -0.18283842747094425 1 I I -0.70710678118654746 0.70710678118654746 0.25 forward I I I I #
loop $-1 $-1 $205 $59 #
coedge $-1 $128 $128 $206 $207 reversed $80 $-1 #
face $-1 $-1 $208 $46 $-1 $209 forward single #
loop $-1 $210 $211 $82 #
cone-surface $-1 41.24969509489565 -7.0467969049608747 2.3611595105915084 -0.73135370988377701 0 -0.68199835119979291 0.17049958779994823 0 -0.18283842747094425 1 I I -0.70710678118654746 0.70710678118654746 0.25 forward I I I I #
loop $-1 $-1 $212 $60 #
coedge $-1 $133 $133 $213 $214 reversed $83 $-1 #
face $-1 $-1 $215 $47 $-1 $216 forward single #
loop $-1 $217 $218 $85 #
cone-surface $-1 41.24969509489565 -4.6450555994051754 2.3611595105915084 -0.73135370988377701 0 -0.68199835119979291 0.17049958779994823 0 -0.18283842747094425 1 I I -0.70710678118654746 0.70710678118654746 0.25 forward I I I I #
loop $-1 $-1 $219 $61 #
coedge $-1 $138 $138 $220 $221 reversed $86 $-1 #
face $-1 $222 $223 $48 $-1 $224 reversed single #
loop $-1 $-1 $225 $88 #
plane-surface $-1 -45.144199957274111 -2.8603929204098506 0.033789254725064666 -0.78801076186113728 0 0.61566146476048833 0.61566146476048833 0 0.78801076186113728 forward_v I I I I #
coedge $-1 $226 $227 $228 $229 reversed $89 $-1 #
face $-1 $-1 $230 $49 $-1 $231 forward single #
loop $-1 $232 $233 $91 #
cone-surface $-1 -41.669660789979922 -4.7941810052265126 2.4506601188365655 0.78801076186113728 0 -0.61566146476048833 0.15391536619012208 0 0.19700269046528432 1 I I -0.70710678118654746 0.70710678118654746 0.25 forward I I I I #
loop $-1 $-1 $234 $63 #
coedge $-1 $147 $147 $235 $236 reversed $92 $-1 #
face $-1 $-1 $237 $50 $-1 $238 forward single #
loop $-1 $239 $240 $94 #
cone-surface $-1 -41.669660789979922 -2.8603929204098542 2.4506601188365655 0.78801076186113728 0 -0.61566146476048833 0.15391536619012208 0 0.19700269046528432 1 I I -0.70710678118654746 0.70710678118654746 0.25 forward I I I I #
loop $-1 $-1 $241 $64 #
coedge $-1 $152 $152 $242 $243 reversed $95 $-1 #
face $-1 $-1 $244 $51 $-1 $245 forward single #
loop $-1 $246 $247 $97 #
cone-surface $-1 -41.669660789979922 -0.92660483559319573 2.4506601188365655 0.78801076186113728 0 -0.61566146476048833 0.15391536619012208 0 0.19700269046528432 1 I I -0.70710678118654746 0.70710678118654746 0.25 forward I I I I #
loop $-1 $-1 $248 $65 #
coedge $-1 $157 $157 $249 $250 reversed $98 $-1 #
face $-1 $251 $252 $52 $-1 $253 reversed single #
loop $-1 $-1 $254 $100 #
plane-surface $-1 -45.144199957274111 11.119907110227722 0.033789254725064666 -0.78801076186113728 0 0.61566146476048833 0.61566146476048833 0 0.78801076186113728 forward_v I I I I #
coedge $-1 $255 $256 $257 $258 reversed $101 $-1 #
face $-1 $-1 $259 $53 $-1 $260 forward single #
loop $-1 $261 $262 $103 #
cone-surface $-1 -41.669660789979922 9.1861190254110596 2.4506601188365655 0.78801076186113728 0 -0.61566146476048833 0.15391536619012208 0 0.19700269046528432 1 I I -0.70710678118654746 0.70710678118654746 0.25 forward I I I I #
loop $-1 $-1 $263 $67 #
coedge $-1 $166 $166 $264 $265 reversed $104 $-1 #
face $-1 $-1 $266 $54 $-1 $267 forward single #
loop $-1 $268 $269 $106 #
cone-surface $-1 -41.669660789979922 11.119907110227718 2.4506601188365655 0.78801076186113728 0 -0.61566146476048833 0.15391536619012208 0 0.19700269046528432 1 I I -0.70710678118654746 0.70710678118654746 0.25 forward I I I I #
loop $-1 $-1 $270 $68 #
coedge $-1 $171 $171 $271 $272 reversed $107 $-1 #
face $-1 $-1 $273 $55 $-1 $274 forward single #
loop $-1 $275 $276 $109 #
cone-surface $-1 -41.669660789979922 13.053695195044376 2.4506601188365655 0.78801076186113728 0 -0.61566146476048833 0.15391536619012208 0 0.19700269046528432 1 I I -0.70710678118654746 0.70710678118654746 0.25 forward I I I I #
loop $-1 $-1 $277 $69 #
coedge $-1 $176 $176 $278 $279 reversed $110 $-1 #
face $-1 $280 $281 $42 $-1 $282 reversed single #
loop $-1 $-1 $283 $112 #
plane-surface $-1 0 -19.309213270704909 0 0 1 0 0 0 1 forward_v I I I I #
coedge $-1 $284 $285 $286 $287 forward $113 $-1 #
coedge $-1 $288 $115 $289 $290 forward $71 $-1 #
coedge $-1 $115 $288 $291 $292 forward $71 $-1 #
coedge $-1 $293 $294 $115 $184 reversed $295 $-1 #
edge $-1 $296 -19.309213270704909 $297 19.309213270704909 $183 $298 forward 7 unknown #
face $-1 $299 $300 $43 $-1 $301 reversed single #
loop $-1 $-1 $302 $116 #
plane-surface $-1 0 -11.049699080887045 3.9983332835511609 0 -1 0 0 0 -1 forward_v I I I I #
coedge $-1 $303 $304 $305 $306 reversed $117 $-1 #
coedge $-1 $307 $119 $308 $309 forward $74 $-1 #
coedge $-1 $119 $307 $310 $311 reversed $74 $-1 #
coedge $-1 $312 $313 $119 $192 forward $314 $-1 #
edge $-1 $315 3.4599709929890565 $316 11.71948518280692 $191 $317 forward 7 unknown #
face $-1 $318 $319 $44 $-1 $320 reversed single #
loop $-1 $-1 $321 $120 #
plane-surface $-1 0 -11.049699080887045 3.9983332835511609 0 -1 0 0 0 -1 forward_v I I I I #
coedge $-1 $322 $323 $324 $325 reversed $121 $-1 #
coedge $-1 $326 $123 $321 $327 forward $77 $-1 #
coedge $-1 $123 $326 $322 $328 forward $77 $-1 #
coedge $-1 $324 $329 $123 $200 forward $319 $-1 #
edge $-1 $330 -7.5263006284066041 $331 0.47950372344573022 $199 $332 forward 7 unknown #
loop $-1 $-1 $206 $124 #
plane-surface $-1 -16.432339916915289 -7.0467969049608747 66.092953093854319 0.73135370988377701 0 0.68199835119979291 0.68199835119979291 0 -0.73135370988377701 forward_v I I I I #
loop $-1 $-1 $333 $79 #
coedge $-1 $204 $204 $205 $334 reversed $125 $-1 #
coedge $-1 $205 $205 $204 $334 forward $127 $-1 #
coedge $-1 $206 $206 $128 $207 forward $201 $-1 #
edge $-1 $335 0 $335 6.2831853071796004 $206 $336 forward 7 unknown #
loop $-1 $-1 $213 $129 #
plane-surface $-1 -16.432339916915289 -7.0467969049608747 66.092953093854319 0.73135370988377701 0 0.68199835119979291 0.68199835119979291 0 -0.73135370988377701 forward_v I I I I #
loop $-1 $-1 $337 $82 #
coedge $-1 $211 $211 $212 $338 reversed $130 $-1 #
coedge $-1 $212 $212 $211 $338 forward $132 $-1 #
coedge $-1 $213 $213 $133 $214 forward $208 $-1 #
edge $-1 $339 0 $339 6.2831853071796004 $213 $340 forward 7 unknown #
loop $-1 $-1 $220 $134 #
plane-surface $-1 -16.432339916915289 -7.0467969049608747 66.092953093854319 0.73135370988377701 0 0.68199835119979291 0.68199835119979291 0 -0.73135370988377701 forward_v I I I I #
loop $-1 $-1 $341 $85 #
coedge $-1 $218 $218 $219 $342 reversed $135 $-1 #
coedge $-1 $219 $219 $218 $342 forward $137 $-1 #
coedge $-1 $220 $220 $138 $221 forward $215 $-1 #
edge $-1 $343 0 $343 6.2831853071796004 $220 $344 forward 7 unknown #
face $-1 $345 $346 $48 $-1 $347 forward single #
loop $-1 $-1 $348 $139 #
plane-surface $-1 -116.29243076116026 0.36258722095124973 55.620877796996545 0 -1 0 0.78801076186113728 0 -0.61566146476048833 forward_v I I I I #
coedge $-1 $349 $350 $351 $352 reversed $140 $-1 #
coedge $-1 $227 $142 $353 $354 reversed $89 $-1 #
coedge $-1 $142 $226 $349 $355 reversed $89 $-1 #
coedge $-1 $351 $356 $142 $229 forward $346 $-1 #
edge $-1 $357 13.002015423306041 $358 17.981066853241501 $228 $359 forward 7 unknown #
loop $-1 $-1 $235 $143 #
plane-surface $-1 -45.144199957274111 -2.8603929204098506 0.033789254725064666 -0.78801076186113728 0 0.61566146476048833 0.61566146476048833 0 0.78801076186113728 forward_v I I I I #
loop $-1 $-1 $360 $91 #
coedge $-1 $233 $233 $234 $361 reversed $144 $-1 #
coedge $-1 $234 $234 $233 $361 forward $146 $-1 #
coedge $-1 $235 $235 $147 $236 forward $230 $-1 #
edge $-1 $362 0 $362 6.2831853071796004 $235 $363 forward 7 unknown #
loop $-1 $-1 $242 $148 #
plane-surface $-1 -45.144199957274111 -2.8603929204098506 0.033789254725064666 -0.78801076186113728 0 0.61566146476048833 0.61566146476048833 0 0.78801076186113728 forward_v I I I I #
loop $-1 $-1 $364 $94 #
coedge $-1 $240 $240 $241 $365 reversed $149 $-1 #
coedge $-1 $241 $241 $240 $365 forward $151 $-1 #
coedge $-1 $242 $242 $152 $243 forward $237 $-1 #
edge $-1 $366 0 $366 6.2831853071796004 $242 $367 forward 7 unknown #
loop $-1 $-1 $249 $153 #
plane-surface $-1 -45.144199957274111 -2.8603929204098506 0.033789254725064666 -0.78801076186113728 0 0.61566146476048833 0.61566146476048833 0 0.78801076186113728 forward_v I I I I #
loop $-1 $-1 $368 $97 #
coedge $-1 $247 $247 $248 $369 reversed $154 $-1 #
coedge $-1 $248 $248 $247 $369 forward $156 $-1 #
coedge $-1 $249 $249 $157 $250 forward $244 $-1 #
edge $-1 $370 0 $370 6.2831853071796004 $249 $371 forward 7 unknown #
face $-1 $372 $373 $52 $-1 $374 forward single #
loop $-1 $-1 $375 $158 #
plane-surface $-1 -116.29243076116026 14.342887251588822 55.620877796996545 0 -1 0 0.78801076186113728 0 -0.61566146476048833 forward_v I I I I #
coedge $-1 $376 $377 $378 $379 reversed $159 $-1 #
coedge $-1 $256 $161 $380 $381 reversed $101 $-1 #
coedge $-1 $161 $255 $376 $382 reversed $101 $-1 #
coedge $-1 $378 $383 $161 $258 forward $373 $-1 #
edge $-1 $384 13.002015423306041 $385 17.981066853241501 $257 $386 forward 7 unknown #
loop $-1 $-1 $264 $162 #
plane-surface $-1 -45.144199957274111 11.119907110227722 0.033789254725064666 -0.78801076186113728 0 0.61566146476048833 0.61566146476048833 0 0.78801076186113728 forward_v I I I I #
loop $-1 $-1 $387 $103 #
coedge $-1 $262 $262 $263 $388 reversed $163 $-1 #
coedge $-1 $263 $263 $262 $388 forward $165 $-1 #
coedge $-1 $264 $264 $166 $265 forward $259 $-1 #
edge $-1 $389 0 $389 6.2831853071796004 $264 $390 forward 7 unknown #
loop $-1 $-1 $271 $167 #
plane-surface $-1 -45.144199957274111 11.119907110227722 0.033789254725064666 -0.78801076186113728 0 0.61566146476048833 0.61566146476048833 0 0.78801076186113728 forward_v I I I I #
loop $-1 $-1 $391 $106 #
coedge $-1 $269 $269 $270 $392 reversed $168 $-1 #
coedge $-1 $270 $270 $269 $392 forward $170 $-1 #
coedge $-1 $271 $271 $171 $272 forward $266 $-1 #
edge $-1 $393 0 $393 6.2831853071796004 $271 $394 forward 7 unknown #
loop $-1 $-1 $278 $172 #
plane-surface $-1 -45.144199957274111 11.119907110227722 0.033789254725064666 -0.78801076186113728 0 0.61566146476048833 0.61566146476048833 0 0.78801076186113728 forward_v I I I I #
loop $-1 $-1 $395 $109 #
coedge $-1 $276 $276 $277 $396 reversed $173 $-1 #
coedge $-1 $277 $277 $276 $396 forward $175 $-1 #
coedge $-1 $278 $278 $176 $279 forward $273 $-1 #
edge $-1 $397 0 $397 6.2831853071796004 $278 $398 forward 7 unknown #
face $-1 $399 $400 $42 $-1 $401 reversed single #
loop $-1 $-1 $402 $177 #
plane-surface $-1 -45.14419995727409 0 0 1 0 0 0 0 -1 forward_v I I I I #
coedge $-1 $403 $291 $404 $405 forward $178 $-1 #
coedge $-1 $406 $180 $403 $407 forward $113 $-1 #
coedge $-1 $180 $406 $408 $409 forward $113 $-1 #
coedge $-1 $294 $293 $180 $287 reversed $295 $-1 #
edge $-1 $410 -19.309213270704909 $411 19.309213270704909 $286 $412 forward 7 unknown #
coedge $-1 $182 $181 $413 $414 forward $71 $-1 #
coedge $-1 $415 $416 $181 $290 reversed $400 $-1 #
edge $-1 $297 -45.14419995727409 $417 45.14419995727409 $289 $418 forward 7 unknown #
coedge $-1 $283 $419 $182 $292 reversed $178 $-1 #
edge $-1 $420 -45.14419995727409 $296 45.14419995727409 $291 $421 forward 7 unknown #
coedge $-1 $286 $183 $419 $422 forward $295 $-1 #
coedge $-1 $183 $286 $415 $423 reversed $295 $-1 #
loop $-1 $-1 $293 $399 #
vertex $-1 $184 $424 #
vertex $-1 $184 $425 #
straight-curve $-1 45.14419995727409 0 6.4066846448492898 0 1 0 I I #
face $-1 $426 $427 $43 $-1 $428 reversed single #
loop $-1 $-1 $429 $185 #
plane-surface $-1 -45.14419995727409 0 0 1 0 0 0 0 -1 forward_v I I I I #
coedge $-1 $430 $431 $304 $432 reversed $186 $-1 #
coedge $-1 $433 $188 $434 $435 reversed $117 $-1 #
coedge $-1 $188 $433 $302 $432 forward $117 $-1 #
coedge $-1 $313 $312 $188 $306 forward $314 $-1 #
edge $-1 $436 -11.71948518280692 $437 -3.4599709929890565 $305 $438 forward 7 unknown #
coedge $-1 $190 $189 $429 $439 reversed $74 $-1 #
coedge $-1 $431 $430 $189 $309 reversed $186 $-1 #
edge $-1 $315 -45.14419995727409 $440 45.14419995727409 $308 $441 forward 7 unknown #
coedge $-1 $442 $443 $190 $311 forward $427 $-1 #
edge $-1 $316 -45.14419995727409 $444 45.14419995727409 $310 $445 forward 7 unknown #
coedge $-1 $305 $191 $443 $446 forward $314 $-1 #
coedge $-1 $191 $305 $431 $447 forward $314 $-1 #
loop $-1 $-1 $191 $426 #
vertex $-1 $192 $448 #
vertex $-1 $446 $449 #
straight-curve $-1 45.14419995727409 -7.5897280878979885 5.4983332835511609 0 -1 0 I I #
face $-1 $-1 $450 $44 $-1 $451 forward single #
loop $-1 $-1 $329 $193 #
plane-surface $-1 45.14419995727409 0 0 -1 0 0 0 0 1 forward_v I I I I #
coedge $-1 $452 $453 $197 $327 reversed $194 $-1 #
coedge $-1 $323 $196 $198 $328 reversed $121 $-1 #
coedge $-1 $196 $322 $454 $455 reversed $121 $-1 #
coedge $-1 $456 $199 $196 $325 forward $319 $-1 #
edge $-1 $331 -63.774549627142434 $457 -57.428061839172557 $324 $458 forward 7 unknown #
coedge $-1 $198 $197 $459 $460 reversed $77 $-1 #
edge $-1 $330 -90.288399914548165 $461 -81.610672978592078 $321 $462 forward 7 unknown #
edge $-1 $463 81.610672978592078 $331 90.288399914548165 $322 $464 forward 7 unknown #
coedge $-1 $199 $456 $452 $465 forward $319 $-1 #
vertex $-1 $200 $466 #
vertex $-1 $200 $467 #
straight-curve $-1 45.144199957274083 -3.5233984524804374 0.060196856879422 0 1 0 I I #
coedge $-1 $333 $333 $-1 $468 reversed $203 $-1 #
edge $-1 $469 0 $469 6.2831853071796004 $204 $470 forward 7 unknown #
vertex $-1 $207 $471 #
ellipse-curve $-1 42.185102226032058 -9.4485382105165758 3.2334407508643408 0.73135370988377701 0 0.68199835119979291 0.34099917559989645 0 -0.36567685494188851 1 I I #
coedge $-1 $337 $337 $-1 $472 reversed $210 $-1 #
edge $-1 $473 0 $473 6.2831853071796004 $211 $474 forward 7 unknown #
vertex $-1 $214 $475 #
ellipse-curve $-1 42.185102226032058 -7.0467969049608747 3.2334407508643408 0.73135370988377701 0 0.68199835119979291 0.34099917559989645 0 -0.36567685494188851 1 I I #
coedge $-1 $341 $341 $-1 $476 reversed $217 $-1 #
edge $-1 $477 0 $477 6.2831853071796004 $218 $478 forward 7 unknown #
vertex $-1 $221 $479 #
ellipse-curve $-1 42.185102226032058 -4.6450555994051754 3.2334407508643408 0.73135370988377701 0 0.68199835119979291 0.34099917559989645 0 -0.36567685494188851 1 I I #
face $-1 $-1 $480 $48 $-1 $481 reversed single #
loop $-1 $-1 $228 $222 #
plane-surface $-1 0 0 6.4066846448492898 0 0 1 1 0 0 forward_v I I I I #
coedge $-1 $482 $483 $484 $485 reversed $223 $-1 #
coedge $-1 $486 $225 $227 $355 forward $140 $-1 #
coedge $-1 $225 $486 $482 $487 forward $140 $-1 #
coedge $-1 $484 $228 $225 $352 forward $346 $-1 #
edge $-1 $358 -4.6531766015660256 $488 1.792783681156175 $351 $489 forward 7 unknown #
coedge $-1 $490 $491 $226 $354 forward $480 $-1 #
edge $-1 $492 -27.77664964377318 $357 -21.403754253648984 $353 $493 forward 7 unknown #
edge $-1 $358 -8.0873202481050033 $492 -3.4623486962080755e-014 $227 $494 forward 7 unknown #
coedge $-1 $228 $484 $490 $495 forward $346 $-1 #
vertex $-1 $354 $496 #
vertex $-1 $229 $497 #
straight-curve $-1 -58.146215380580131 -6.0833730617709509 6.4066846448492889 1 0 0 I I #
coedge $-1 $360 $360 $-1 $498 reversed $232 $-1 #
edge $-1 $499 0 $499 6.2831853071796004 $233 $500 forward 7 unknown #
vertex $-1 $236 $501 #
ellipse-curve $-1 -42.654674242306363 -4.7941810052265126 3.2202369497871883 -0.78801076186113728 0 0.61566146476048833 0.30783073238024417 0 0.39400538093056864 1 I I #
coedge $-1 $364 $364 $-1 $502 reversed $239 $-1 #
edge $-1 $503 0 $503 6.2831853071796004 $240 $504 forward 7 unknown #
vertex $-1 $243 $505 #
ellipse-curve $-1 -42.654674242306363 -2.8603929204098542 3.2202369497871883 -0.78801076186113728 0 0.61566146476048833 0.30783073238024417 0 0.39400538093056864 1 I I #
coedge $-1 $368 $368 $-1 $506 reversed $246 $-1 #
edge $-1 $507 0 $507 6.2831853071796004 $247 $508 forward 7 unknown #
vertex $-1 $250 $509 #
ellipse-curve $-1 -42.654674242306363 -0.92660483559319573 3.2202369497871883 -0.78801076186113728 0 0.61566146476048833 0.30783073238024417 0 0.39400538093056864 1 I I #
face $-1 $-1 $510 $52 $-1 $511 reversed single #
loop $-1 $-1 $257 $251 #
plane-surface $-1 0 0 6.4066846448492898 0 0 1 1 0 0 forward_v I I I I #
coedge $-1 $512 $513 $514 $515 reversed $252 $-1 #
coedge $-1 $516 $254 $256 $382 forward $159 $-1 #
coedge $-1 $254 $516 $512 $517 forward $159 $-1 #
coedge $-1 $514 $257 $254 $379 forward $373 $-1 #
edge $-1 $385 2.3369734137527605 $518 8.7829336964749611 $378 $519 forward 7 unknown #
coedge $-1 $520 $521 $255 $381 forward $510 $-1 #
edge $-1 $522 -27.77664964377318 $384 -21.403754253648984 $380 $523 forward 7 unknown #
edge $-1 $385 -8.0873202481050033 $522 -3.4623486962080755e-014 $256 $524 forward 7 unknown #
coedge $-1 $257 $514 $520 $525 forward $373 $-1 #
vertex $-1 $258 $526 #
vertex $-1 $258 $527 #
straight-curve $-1 -58.146215380580131 7.8969269688666213 6.4066846448492889 1 0 0 I I #
coedge $-1 $387 $387 $-1 $528 reversed $261 $-1 #
edge $-1 $529 0 $529 6.2831853071796004 $262 $530 forward 7 unknown #
vertex $-1 $265 $531 #
ellipse-curve $-1 -42.654674242306363 9.1861190254110596 3.2202369497871883 -0.78801076186113728 0 0.61566146476048833 0.30783073238024417 0 0.39400538093056864 1 I I #
coedge $-1 $391 $391 $-1 $532 reversed $268 $-1 #
edge $-1 $533 0 $533 6.2831853071796004 $269 $534 forward 7 unknown #
vertex $-1 $272 $535 #
ellipse-curve $-1 -42.654674242306363 11.119907110227718 3.2202369497871883 -0.78801076186113728 0 0.61566146476048833 0.30783073238024417 0 0.39400538093056864 1 I I #
coedge $-1 $395 $395 $-1 $536 reversed $275 $-1 #
edge $-1 $537 0 $537 6.2831853071796004 $276 $538 forward 7 unknown #
vertex $-1 $279 $539 #
ellipse-curve $-1 -42.654674242306363 13.053695195044376 3.2202369497871883 -0.78801076186113728 0 0.61566146476048833 0.30783073238024417 0 0.39400538093056864 1 I I #
face $-1 $-1 $295 $42 $-1 $540 reversed single #
loop $-1 $-1 $415 $280 #
plane-surface $-1 0 19.309213270704909 0 0 -1 0 0 0 -1 forward_v I I I I #
coedge $-1 $541 $413 $416 $542 forward $281 $-1 #
coedge $-1 $419 $283 $284 $407 reversed $178 $-1 #
coedge $-1 $413 $541 $283 $405 reversed $281 $-1 #
edge $-1 $420 -6.4066846448492898 $543 6.4066846448492898 $404 $544 forward 7 unknown #
coedge $-1 $285 $284 $541 $545 forward $113 $-1 #
edge $-1 $411 -45.14419995727409 $543 45.14419995727409 $403 $546 forward 7 unknown #
coedge $-1 $416 $415 $285 $409 reversed $400 $-1 #
edge $-1 $547 -45.14419995727409 $410 45.14419995727409 $408 $548 forward 7 unknown #
vertex $-1 $287 $549 #
vertex $-1 $422 $550 #
straight-curve $-1 45.14419995727409 0 -6.4066846448492898 0 -1 0 I I #
coedge $-1 $402 $404 $288 $414 reversed $281 $-1 #
edge $-1 $417 -19.309213270704909 $420 19.309213270704909 $413 $551 forward 7 unknown #
coedge $-1 $408 $289 $294 $423 forward $400 $-1 #
coedge $-1 $289 $408 $402 $542 reversed $400 $-1 #
vertex $-1 $290 $552 #
straight-curve $-1 0 19.309213270704909 6.4066846448492898 -1 0 0 I I #
coedge $-1 $291 $403 $293 $422 reversed $178 $-1 #
vertex $-1 $414 $553 #
straight-curve $-1 0 -19.309213270704909 6.4066846448492898 1 0 0 I I #
edge $-1 $296 -6.4066846448492898 $411 6.4066846448492898 $293 $554 forward 7 unknown #
edge $-1 $297 -6.4066846448492898 $410 6.4066846448492898 $294 $555 forward 7 unknown #
point $-1 45.14419995727409 -19.309213270704909 6.4066846448492898 #
point $-1 45.14419995727409 19.309213270704909 6.4066846448492898 #
face $-1 $-1 $314 $43 $-1 $556 reversed single #
loop $-1 $-1 $310 $299 #
plane-surface $-1 0 -19.309213270704909 0 0 1 0 0 0 1 forward_v I I I I #
coedge $-1 $557 $558 $307 $439 forward $300 $-1 #
coedge $-1 $308 $302 $557 $559 reversed $186 $-1 #
coedge $-1 $302 $308 $313 $447 reversed $186 $-1 #
edge $-1 $560 -45.14419995727409 $437 45.14419995727409 $302 $561 forward 7 unknown #
coedge $-1 $304 $303 $562 $563 reversed $117 $-1 #
coedge $-1 $443 $442 $303 $435 forward $427 $-1 #
edge $-1 $564 -45.14419995727409 $436 45.14419995727409 $434 $565 forward 7 unknown #
vertex $-1 $435 $566 #
vertex $-1 $306 $567 #
straight-curve $-1 45.14419995727409 -7.5897280878979885 2.4983332835511609 0 1 0 I I #
edge $-1 $444 -11.71948518280692 $440 -3.4599709929890565 $429 $568 forward 7 unknown #
vertex $-1 $439 $569 #
straight-curve $-1 0 -11.049699080887045 5.4983332835511609 -1 0 0 I I #
coedge $-1 $434 $310 $558 $570 forward $427 $-1 #
coedge $-1 $310 $434 $312 $446 reversed $427 $-1 #
vertex $-1 $570 $571 #
straight-curve $-1 0 -19.309213270704909 5.4983332835511609 -1 0 0 I I #
edge $-1 $316 -5.4983332835511609 $436 -2.4983332835511609 $312 $572 forward 7 unknown #
edge $-1 $437 0.49916664177558046 $315 3.4991666417755805 $313 $573 forward 7 unknown #
point $-1 45.14419995727409 -11.049699080887045 5.4983332835511609 #
point $-1 45.14419995727409 -19.309213270704909 5.4983332835511609 #
loop $-1 $-1 $574 $318 #
plane-surface $-1 0 0 6.4066846448492898 0 0 1 1 0 0 forward_v I I I I #
coedge $-1 $453 $321 $329 $465 reversed $194 $-1 #
coedge $-1 $321 $452 $574 $575 reversed $194 $-1 #
coedge $-1 $459 $576 $323 $455 forward $450 $-1 #
edge $-1 $457 -20.343991797244282 $463 -14.425796334760189 $454 $577 forward 7 unknown #
coedge $-1 $329 $324 $576 $578 reversed $319 $-1 #
vertex $-1 $325 $579 #
straight-curve $-1 45.14419995727409 -3.0438947290347071 63.834746484021849 0 0 1 I I #
coedge $-1 $574 $454 $326 $460 forward $450 $-1 #
edge $-1 $463 -0.47950372344573022 $461 7.5263006284066041 $459 $580 forward 7 unknown #
vertex $-1 $575 $581 #
straight-curve $-1 -16.432339916915289 -11.049699080887041 66.092953093854319 -0.68199835119979291 0 0.73135370988377701 I I #
vertex $-1 $460 $582 #
straight-curve $-1 -16.432339916915289 -3.0438947290347071 66.092953093854319 0.68199835119979291 0 -0.73135370988377701 I I #
edge $-1 $583 57.428061839172557 $330 63.774549627142434 $329 $584 forward 7 unknown #
point $-1 45.14419995727409 -11.049699080887041 0.060196856879414895 #
point $-1 45.14419995727409 -3.0438947290347071 0.060196856879414895 #
edge $-1 $585 1 $585 0 $333 $-1 forward 7 unknown #
vertex $-1 $334 $586 #
ellipse-curve $-1 41.432533522366597 -9.4485382105165758 2.5316590983914566 0.73135370988377701 0 0.68199835119979291 0.34099917559989645 0 -0.36567685494188851 1 I I #
point $-1 42.526101401631955 -9.4485382105165758 2.8677638959224527 #
edge $-1 $587 1 $587 0 $337 $-1 forward 7 unknown #
vertex $-1 $338 $588 #
ellipse-curve $-1 41.432533522366597 -7.0467969049608747 2.5316590983914566 0.73135370988377701 0 0.68199835119979291 0.34099917559989645 0 -0.36567685494188851 1 I I #
point $-1 42.526101401631955 -7.0467969049608747 2.8677638959224527 #
edge $-1 $589 1 $589 0 $341 $-1 forward 7 unknown #
vertex $-1 $342 $590 #
ellipse-curve $-1 41.432533522366597 -4.6450555994051754 2.5316590983914566 0.73135370988377701 0 0.68199835119979291 0.34099917559989645 0 -0.36567685494188851 1 I I #
point $-1 42.526101401631955 -4.6450555994051754 2.8677638959224527 #
loop $-1 $-1 $353 $345 #
plane-surface $-1 -45.14419995727409 0 0 1 0 0 0 0 -1 forward_v I I I I #
coedge $-1 $483 $348 $350 $487 reversed $223 $-1 #
coedge $-1 $348 $482 $591 $592 reversed $223 $-1 #
coedge $-1 $356 $351 $348 $485 forward $346 $-1 #
edge $-1 $488 -17.981066853241501 $593 -13.002015423306041 $484 $594 forward 7 unknown #
coedge $-1 $350 $349 $491 $595 reversed $140 $-1 #
edge $-1 $596 3.4623486962080755e-014 $488 8.0873202481050033 $482 $597 forward 7 unknown #
vertex $-1 $352 $598 #
straight-curve $-1 -40.16514852733863 -1.4301964602049253 6.4066846448492907 0 1 0 I I #
coedge $-1 $591 $353 $356 $495 reversed $480 $-1 #
coedge $-1 $353 $591 $486 $595 forward $480 $-1 #
vertex $-1 $354 $599 #
straight-curve $-1 -45.14419995727409 -6.0833730617709509 27.810438898498273 0 0 1 I I #
straight-curve $-1 -45.144199957274111 -6.0833730617709509 0.033789254725064666 -0.61566146476048833 0 -0.78801076186113728 I I #
edge $-1 $593 -0.36258722095124973 $357 6.0833730617709509 $490 $600 forward 7 unknown #
point $-1 -45.14419995727409 -6.0833730617709509 6.4066846448492898 #
point $-1 -40.16514852733863 -6.0833730617709509 6.4066846448492898 #
edge $-1 $601 1 $601 0 $360 $-1 forward 7 unknown #
vertex $-1 $361 $602 #
ellipse-curve $-1 -41.866663480445204 -4.7941810052265126 2.6045754850266878 -0.78801076186113728 0 0.61566146476048833 0.30783073238024417 0 0.39400538093056864 1 I I #
point $-1 -42.346843509926096 -4.7941810052265126 3.6142423307177447 #
edge $-1 $603 1 $603 0 $364 $-1 forward 7 unknown #
vertex $-1 $365 $604 #
ellipse-curve $-1 -41.866663480445204 -2.8603929204098542 2.6045754850266878 -0.78801076186113728 0 0.61566146476048833 0.30783073238024417 0 0.39400538093056864 1 I I #
point $-1 -42.346843509926096 -2.8603929204098542 3.6142423307177447 #
edge $-1 $605 1 $605 0 $368 $-1 forward 7 unknown #
vertex $-1 $369 $606 #
ellipse-curve $-1 -41.866663480445204 -0.92660483559319573 2.6045754850266878 -0.78801076186113728 0 0.61566146476048833 0.30783073238024417 0 0.39400538093056864 1 I I #
point $-1 -42.346843509926096 -0.92660483559319573 3.6142423307177447 #
loop $-1 $-1 $380 $372 #
plane-surface $-1 -45.14419995727409 0 0 1 0 0 0 0 -1 forward_v I I I I #
coedge $-1 $513 $375 $377 $517 reversed $252 $-1 #
coedge $-1 $375 $512 $607 $608 reversed $252 $-1 #
coedge $-1 $383 $378 $375 $515 forward $373 $-1 #
edge $-1 $518 -17.981066853241501 $609 -13.002015423306041 $514 $610 forward 7 unknown #
coedge $-1 $377 $376 $521 $611 reversed $159 $-1 #
edge $-1 $612 3.4623486962080755e-014 $518 8.0873202481050033 $512 $613 forward 7 unknown #
vertex $-1 $379 $614 #
straight-curve $-1 -40.16514852733863 5.5599535551138608 6.4066846448492907 0 1 0 I I #
coedge $-1 $607 $380 $383 $525 reversed $510 $-1 #
coedge $-1 $380 $607 $516 $611 forward $510 $-1 #
vertex $-1 $381 $615 #
straight-curve $-1 -45.14419995727409 7.8969269688666213 27.810438898498273 0 0 1 I I #
straight-curve $-1 -45.144199957274111 7.8969269688666213 0.033789254725064666 -0.61566146476048833 0 -0.78801076186113728 I I #
edge $-1 $609 -14.342887251588822 $384 -7.8969269688666213 $520 $616 forward 7 unknown #
point $-1 -45.14419995727409 7.8969269688666213 6.4066846448492898 #
point $-1 -40.16514852733863 7.8969269688666213 6.4066846448492898 #
edge $-1 $617 1 $617 0 $387 $-1 forward 7 unknown #
vertex $-1 $388 $618 #
ellipse-curve $-1 -41.866663480445204 9.1861190254110596 2.6045754850266878 -0.78801076186113728 0 0.61566146476048833 0.30783073238024417 0 0.39400538093056864 1 I I #
point $-1 -42.346843509926096 9.1861190254110596 3.6142423307177447 #
edge $-1 $619 1 $619 0 $391 $-1 forward 7 unknown #
vertex $-1 $392 $620 #
ellipse-curve $-1 -41.866663480445204 11.119907110227718 2.6045754850266878 -0.78801076186113728 0 0.61566146476048833 0.30783073238024417 0 0.39400538093056864 1 I I #
point $-1 -42.346843509926096 11.119907110227718 3.6142423307177447 #
edge $-1 $621 1 $621 0 $395 $-1 forward 7 unknown #
vertex $-1 $396 $622 #
ellipse-curve $-1 -41.866663480445204 13.053695195044376 2.6045754850266878 -0.78801076186113728 0 0.61566146476048833 0.30783073238024417 0 0.39400538093056864 1 I I #
point $-1 -42.346843509926096 13.053695195044376 3.6142423307177447 #
plane-surface $-1 45.14419995727409 0 0 -1 0 0 0 0 1 forward_v I I I I #
coedge $-1 $404 $402 $406 $545 reversed $281 $-1 #
edge $-1 $417 -6.4066846448492898 $547 6.4066846448492898 $416 $623 forward 7 unknown #
vertex $-1 $545 $624 #
straight-curve $-1 -45.14419995727409 -19.309213270704909 0 0 0 -1 I I #
edge $-1 $543 -19.309213270704909 $547 19.309213270704909 $541 $625 forward 7 unknown #
straight-curve $-1 0 -19.309213270704909 -6.4066846448492898 -1 0 0 I I #
vertex $-1 $409 $626 #
straight-curve $-1 0 19.309213270704909 -6.4066846448492898 1 0 0 I I #
point $-1 45.14419995727409 19.309213270704909 -6.4066846448492898 #
point $-1 45.14419995727409 -19.309213270704909 -6.4066846448492898 #
straight-curve $-1 -45.14419995727409 0 6.4066846448492898 0 -1 0 I I #
point $-1 -45.14419995727409 19.309213270704909 6.4066846448492898 #
point $-1 -45.14419995727409 -19.309213270704909 6.4066846448492898 #
straight-curve $-1 45.14419995727409 -19.309213270704909 0 0 0 -1 I I #
straight-curve $-1 45.14419995727409 19.309213270704909 0 0 0 -1 I I #
plane-surface $-1 45.14419995727409 0 0 -1 0 0 0 0 1 forward_v I I I I #
coedge $-1 $562 $429 $430 $559 forward $300 $-1 #
coedge $-1 $429 $562 $442 $570 reversed $300 $-1 #
edge $-1 $440 -3.4991666417755805 $560 -0.49916664177558046 $557 $627 forward 7 unknown #
vertex $-1 $563 $628 #
straight-curve $-1 0 -11.049699080887045 2.4983332835511609 1 0 0 I I #
coedge $-1 $558 $557 $433 $563 forward $300 $-1 #
edge $-1 $560 3.4599709929890565 $564 11.71948518280692 $562 $629 forward 7 unknown #
vertex $-1 $435 $630 #
straight-curve $-1 0 -19.309213270704909 2.4983332835511609 1 0 0 I I #
point $-1 45.14419995727409 -19.309213270704909 2.4983332835511609 #
point $-1 45.14419995727409 -11.049699080887045 2.4983332835511609 #
straight-curve $-1 -45.14419995727409 -7.5897280878979885 5.4983332835511609 0 1 0 I I #
point $-1 -45.14419995727409 -11.049699080887045 5.4983332835511609 #
edge $-1 $444 -5.4983332835511609 $564 -2.4983332835511609 $558 $631 forward 7 unknown #
point $-1 -45.14419995727409 -19.309213270704909 5.4983332835511609 #
straight-curve $-1 45.14419995727409 -19.309213270704909 0 0 0 -1 I I #
straight-curve $-1 45.14419995727409 -11.049699080887045 1.9991666417755805 0 0 1 I I #
coedge $-1 $576 $459 $453 $575 forward $450 $-1 #
edge $-1 $461 14.425796334760189 $583 20.343991797244282 $574 $632 forward 7 unknown #
coedge $-1 $454 $574 $456 $578 forward $450 $-1 #
straight-curve $-1 24.800208160029808 -3.0438947290347071 6.4066846448492925 -1 0 0 I I #
edge $-1 $583 -11.049699080887041 $457 -3.0438947290347071 $456 $633 forward 7 unknown #
point $-1 45.14419995727409 -3.0438947290347071 6.4066846448492898 #
straight-curve $-1 39.226004494790004 -3.5233984524804374 6.4066846448492925 0 -1 0 I I #
point $-1 39.226004494789997 -11.049699080887041 6.4066846448492925 #
point $-1 39.226004494789997 -3.0438947290347071 6.4066846448492925 #
vertex $-1 $578 $634 #
straight-curve $-1 45.14419995727409 -11.049699080887041 63.834746484021849 0 0 -1 I I #
vertex $-1 $468 $635 #
point $-1 41.773532697966488 -9.4485382105165758 2.1659822434495681 #
vertex $-1 $472 $636 #
point $-1 41.773532697966488 -7.0467969049608747 2.1659822434495681 #
vertex $-1 $476 $637 #
point $-1 41.773532697966488 -4.6450555994051754 2.1659822434495681 #
coedge $-1 $491 $490 $483 $592 forward $480 $-1 #
edge $-1 $593 21.403754253648984 $596 27.77664964377318 $591 $638 forward 7 unknown #
vertex $-1 $495 $639 #
straight-curve $-1 -58.146215380580131 0.36258722095124973 6.4066846448492889 -1 0 0 I I #
edge $-1 $596 -1.792783681156175 $492 4.6531766015660256 $491 $640 forward 7 unknown #
vertex $-1 $595 $641 #
straight-curve $-1 -45.144199957274111 0.36258722095124973 0.033789254725064666 0.61566146476048833 0 0.78801076186113728 I I #
point $-1 -40.16514852733863 0.36258722095124973 6.4066846448492898 #
point $-1 -45.14419995727409 -6.0833730617709509 0.033789254725091949 #
straight-curve $-1 -45.14419995727409 0 6.4066846448492898 0 -1 0 I I #
vertex $-1 $498 $642 #
point $-1 -41.558832748064965 -4.7941810052265126 2.9985808659572561 #
vertex $-1 $502 $643 #
point $-1 -41.558832748064965 -2.8603929204098542 2.9985808659572561 #
vertex $-1 $506 $644 #
point $-1 -41.558832748064965 -0.92660483559319573 2.9985808659572561 #
coedge $-1 $521 $520 $513 $608 forward $510 $-1 #
edge $-1 $609 21.403754253648984 $612 27.77664964377318 $607 $645 forward 7 unknown #
vertex $-1 $525 $646 #
straight-curve $-1 -58.146215380580131 14.342887251588822 6.4066846448492889 -1 0 0 I I #
edge $-1 $612 -8.7829336964749611 $522 -2.3369734137527605 $521 $647 forward 7 unknown #
vertex $-1 $611 $648 #
straight-curve $-1 -45.144199957274111 14.342887251588822 0.033789254725064666 0.61566146476048833 0 0.78801076186113728 I I #
point $-1 -40.16514852733863 14.342887251588822 6.4066846448492898 #
point $-1 -45.14419995727409 7.8969269688666213 0.033789254725091949 #
straight-curve $-1 -45.14419995727409 0 6.4066846448492898 0 -1 0 I I #
vertex $-1 $528 $649 #
point $-1 -41.558832748064965 9.1861190254110596 2.9985808659572561 #
vertex $-1 $532 $650 #
point $-1 -41.558832748064965 11.119907110227718 2.9985808659572561 #
vertex $-1 $536 $651 #
point $-1 -41.558832748064965 13.053695195044376 2.9985808659572561 #
straight-curve $-1 -45.14419995727409 19.309213270704909 0 0 0 -1 I I #
point $-1 -45.14419995727409 -19.309213270704909 -6.4066846448492898 #
straight-curve $-1 -45.14419995727409 0 -6.4066846448492898 0 1 0 I I #
point $-1 -45.14419995727409 19.309213270704909 -6.4066846448492898 #
straight-curve $-1 -45.14419995727409 -11.049699080887045 1.9991666417755805 0 0 -1 I I #
point $-1 -45.14419995727409 -11.049699080887045 2.4983332835511609 #
straight-curve $-1 -45.14419995727409 -7.5897280878979885 2.4983332835511609 0 -1 0 I I #
point $-1 -45.14419995727409 -19.309213270704909 2.4983332835511609 #
straight-curve $-1 -45.14419995727409 -19.309213270704909 0 0 0 -1 I I #
straight-curve $-1 24.800208160029808 -11.049699080887041 6.4066846448492925 1 0 0 I I #
straight-curve $-1 45.14419995727409 0 6.4066846448492898 0 1 0 I I #
point $-1 45.14419995727409 -11.049699080887041 6.4066846448492898 #
point $-1 41.066856667424702 -9.4485382105165758 2.1906599227915602 #
point $-1 41.066856667424702 -7.0467969049608747 2.1906599227915602 #
point $-1 41.066856667424702 -4.6450555994051754 2.1906599227915602 #
straight-curve $-1 -45.14419995727409 0.36258722095124973 27.810438898498273 0 0 -1 I I #
point $-1 -45.14419995727409 0.36258722095124973 6.4066846448492898 #
straight-curve $-1 -45.14419995727409 -1.4301964602049253 0.033789254725089021 0 -1 0 I I #
point $-1 -45.14419995727409 0.36258722095124973 0.033789254725091949 #
point $-1 -41.472658099514639 -4.7941810052265126 2.2967447526464433 #
point $-1 -41.472658099514639 -2.8603929204098542 2.2967447526464433 #
point $-1 -41.472658099514639 -0.92660483559319573 2.2967447526464433 #
straight-curve $-1 -45.14419995727409 14.342887251588822 27.810438898498273 0 0 -1 I I #
point $-1 -45.14419995727409 14.342887251588822 6.4066846448492898 #
straight-curve $-1 -45.14419995727409 5.5599535551138608 0.033789254725089021 0 -1 0 I I #
point $-1 -45.14419995727409 14.342887251588822 0.033789254725091949 #
point $-1 -41.472658099514639 9.1861190254110596 2.2967447526464433 #
point $-1 -41.472658099514639 11.119907110227718 2.2967447526464433 #
point $-1 -41.472658099514639 13.053695195044376 2.2967447526464433 #
End-of-ACIS-data 