500 0 12 0           
7 Unknown 11 ACIS 5.0 NT 24 Fri Mar 26 15:25:11 1999 
-1 9.9999999999999995e-007 1e-010 
body $-1 $12 $-1 $13 #
body $-1 $14 $-1 $15 #
body $-1 $16 $-1 $17 #
body $-1 $18 $-1 $19 #
body $-1 $20 $-1 $21 #
body $-1 $22 $-1 $23 #
body $-1 $24 $-1 $25 #
body $-1 $26 $-1 $27 #
body $-1 $28 $-1 $29 #
body $-1 $30 $-1 $31 #
body $-1 $32 $-1 $33 #
body $-1 $34 $-1 $35 #
lump $-1 $-1 $36 $0 #
transform $-1 1 0 0 0 1 0 0 0 1 54.215521713919493 35.539484806486215 10.695902262006403 1 rotate no_reflect no_shear #
lump $-1 $-1 $37 $1 #
transform $-1 1 0 0 0 1 0 0 0 1 54.215521713919493 35.539484806486215 10.695902262006403 1 rotate no_reflect no_shear #
lump $-1 $-1 $38 $2 #
transform $-1 1 0 0 0 1 0 0 0 1 54.215521713919493 35.539484806486215 10.695902262006403 1 rotate no_reflect no_shear #
lump $-1 $-1 $39 $3 #
transform $-1 1 0 0 0 1 0 0 0 1 54.215521713919493 35.539484806486215 10.695902262006403 1 rotate no_reflect no_shear #
lump $-1 $-1 $40 $4 #
transform $-1 1 0 0 0 1 0 0 0 1 54.215521713919493 35.539484806486215 10.695902262006403 1 rotate no_reflect no_shear #
lump $-1 $-1 $41 $5 #
transform $-1 1 0 0 0 1 0 0 0 1 54.215521713919493 35.539484806486215 10.695902262006403 1 rotate no_reflect no_shear #
lump $-1 $-1 $42 $6 #
transform $-1 1 0 0 0 1 0 0 0 1 54.215521713919493 35.539484806486215 10.695902262006403 1 rotate no_reflect no_shear #
lump $-1 $-1 $43 $7 #
transform $-1 1 0 0 0 1 0 0 0 1 54.215521713919493 35.539484806486215 10.695902262006403 1 rotate no_reflect no_shear #
lump $-1 $-1 $44 $8 #
transform $-1 1 0 0 0 1 0 0 0 1 54.215521713919493 35.539484806486215 10.695902262006403 1 rotate no_reflect no_shear #
lump $-1 $-1 $45 $9 #
transform $-1 1 0 0 0 1 0 0 0 1 54.215521713919493 35.539484806486215 10.695902262006403 1 rotate no_reflect no_shear #
lump $-1 $-1 $46 $10 #
transform $-1 1 0 0 0 1 0 0 0 1 54.215521713919493 35.539484806486215 10.695902262006403 1 rotate no_reflect no_shear #
lump $-1 $-1 $47 $11 #
transform $-1 1 0 0 0 1 0 0 0 1 54.215521713919493 35.539484806486215 10.695902262006403 1 rotate no_reflect no_shear #
shell $-1 $-1 $-1 $48 $-1 $12 #
shell $-1 $-1 $-1 $49 $-1 $14 #
shell $-1 $-1 $-1 $50 $-1 $16 #
shell $-1 $-1 $-1 $51 $-1 $18 #
shell $-1 $-1 $-1 $52 $-1 $20 #
shell $-1 $-1 $-1 $53 $-1 $22 #
shell $-1 $-1 $-1 $54 $-1 $24 #
shell $-1 $-1 $-1 $55 $-1 $26 #
shell $-1 $-1 $-1 $56 $-1 $28 #
shell $-1 $-1 $-1 $57 $-1 $30 #
shell $-1 $-1 $-1 $58 $-1 $32 #
shell $-1 $-1 $-1 $59 $-1 $34 #
face $-1 $60 $61 $36 $-1 $62 forward single #
face $-1 $63 $64 $37 $-1 $65 forward single #
face $-1 $66 $67 $38 $-1 $68 reversed single #
face $-1 $69 $70 $39 $-1 $71 forward single #
face $-1 $72 $73 $40 $-1 $74 reversed single #
face $-1 $75 $76 $41 $-1 $77 forward single #
face $-1 $78 $79 $42 $-1 $80 reversed single #
face $-1 $81 $82 $43 $-1 $83 forward single #
face $-1 $84 $85 $44 $-1 $86 reversed single #
face $-1 $87 $88 $45 $-1 $89 forward single #
face $-1 $90 $91 $46 $-1 $92 reversed single #
face $-1 $93 $94 $47 $-1 $95 forward single #
face $-1 $96 $97 $36 $-1 $98 reversed single #
loop $-1 $-1 $99 $48 #
plane-surface $-1 0 0 10.695902262006403 0 0 1 1 0 0 forward_v I I I I #
face $-1 $100 $101 $37 $-1 $102 reversed single #
loop $-1 $-1 $103 $49 #
plane-surface $-1 -47.272778815424786 0 -1.1742683997515488 0 0 1 1 0 0 forward_v I I I I #
face $-1 $104 $105 $38 $-1 $106 reversed single #
loop $-1 $-1 $107 $50 #
plane-surface $-1 28.699156779781738 -92.999184318496631 93.607032093230217 1 0 0 0 0.52991927123019833 -0.84804809178421925 forward_v I I I I #
face $-1 $108 $109 $39 $-1 $110 forward single #
loop $-1 $111 $112 $51 #
cone-surface $-1 41.457339246850616 -25.464029160909547 1.6306591510809572 0 0.52991927123019833 -0.84804809178421925 4 0 0 1 I I 0 1 4 forward I I I I #
face $-1 $113 $114 $40 $-1 $115 reversed single #
loop $-1 $-1 $116 $52 #
plane-surface $-1 -32.304988329566946 39.508494190683706 134.05415426854148 1 0 0 0 -0.57357644374324357 -0.81915203911291934 forward_v I I I I #
face $-1 $117 $118 $41 $-1 $119 forward single #
loop $-1 $120 $121 $53 #
cone-surface $-1 -25.737192622963338 29.920309227254521 5.9105523292258617 0 -0.57357644374324357 -0.81915203911291934 2.5 0 0 1 I I 0 1 2.5 forward I I I I #
face $-1 $122 $123 $42 $-1 $124 reversed single #
loop $-1 $-1 $125 $54 #
plane-surface $-1 -10.518364648594913 39.508494190683706 134.05415426854148 1 0 0 0 -0.57357644374324357 -0.81915203911291934 forward_v I I I I #
face $-1 $126 $127 $43 $-1 $128 forward single #
loop $-1 $129 $130 $55 #
cone-surface $-1 -3.9505689419913068 29.920309227254521 5.9105523292258617 0 -0.57357644374324357 -0.81915203911291934 2.5 0 0 1 I I 0 1 2.5 forward I I I I #
face $-1 $131 $132 $44 $-1 $133 reversed single #
loop $-1 $-1 $134 $56 #
plane-surface $-1 11.268259032377115 39.508494190683706 134.05415426854148 1 0 0 0 -0.57357644374324357 -0.81915203911291934 forward_v I I I I #
face $-1 $135 $136 $45 $-1 $137 forward single #
loop $-1 $138 $139 $57 #
cone-surface $-1 17.836054738980728 29.920309227254521 5.9105523292258617 0 -0.57357644374324357 -0.81915203911291934 2.5 0 0 1 I I 0 1 2.5 forward I I I I #
face $-1 $140 $141 $46 $-1 $142 reversed single #
loop $-1 $-1 $143 $58 #
plane-surface $-1 33.054882713349144 39.508494190683706 134.05415426854148 1 0 0 0 -0.57357644374324357 -0.81915203911291934 forward_v I I I I #
face $-1 $144 $145 $47 $-1 $146 forward single #
loop $-1 $147 $148 $59 #
cone-surface $-1 39.622678419952756 29.920309227254521 5.9105523292258617 0 -0.57357644374324357 -0.81915203911291934 2.5 0 0 1 I I 0 1 2.5 forward I I I I #
face $-1 $149 $150 $36 $-1 $151 reversed single #
loop $-1 $-1 $152 $60 #
plane-surface $-1 0 0 -10.695902262006403 0 0 1 1 0 0 forward_v I I I I #
coedge $-1 $153 $154 $155 $156 forward $61 $-1 #
face $-1 $157 $158 $37 $-1 $159 reversed single #
loop $-1 $-1 $160 $63 #
plane-surface $-1 -47.272778815424786 0 -4.1742683997515488 0 0 1 1 0 0 forward_v I I I I #
coedge $-1 $161 $162 $163 $164 forward $64 $-1 #
face $-1 $165 $166 $38 $-1 $167 forward single #
loop $-1 $-1 $168 $66 #
plane-surface $-1 41.457339246850616 -35.539484806486207 1.6522926240795499 0 -0.52991927123019833 0.84804809178421925 1 0 0 forward_v I I I I #
coedge $-1 $169 $170 $171 $172 reversed $67 $-1 #
face $-1 $-1 $173 $39 $-1 $174 forward single #
loop $-1 $175 $176 $69 #
cone-surface $-1 41.457339246850616 -21.565135225387188 -4.6088753244495066 0 0.52991927123019833 -0.84804809178421925 2 0 0 1 I I -0.70710678118654746 0.70710678118654746 2 forward I I I I #
loop $-1 $-1 $177 $51 #
coedge $-1 $112 $112 $178 $179 reversed $70 $-1 #
face $-1 $180 $181 $40 $-1 $182 reversed single #
loop $-1 $-1 $183 $72 #
plane-surface $-1 -25.737192622963335 -22.684998090025381 45.232643941485662 0 0.57357644374324357 0.81915203911291934 1 0 0 forward_v I I I I #
coedge $-1 $184 $185 $186 $187 reversed $73 $-1 #
face $-1 $-1 $188 $41 $-1 $189 forward single #
loop $-1 $190 $191 $75 #
cone-surface $-1 -25.737192622963338 28.034615620813867 3.2175028155859415 0 -0.57357644374324357 -0.81915203911291934 1.25 0 0 1 I I -0.70710678118654746 0.70710678118654746 1.25 forward I I I I #
loop $-1 $-1 $192 $53 #
coedge $-1 $121 $121 $193 $194 reversed $76 $-1 #
face $-1 $195 $196 $42 $-1 $197 reversed single #
loop $-1 $-1 $198 $78 #
plane-surface $-1 -3.9505689419912997 -22.684998090025381 45.232643941485662 0 0.57357644374324357 0.81915203911291934 1 0 0 forward_v I I I I #
coedge $-1 $199 $200 $201 $202 reversed $79 $-1 #
face $-1 $-1 $203 $43 $-1 $204 forward single #
loop $-1 $205 $206 $81 #
cone-surface $-1 -3.9505689419913068 28.034615620813867 3.2175028155859415 0 -0.57357644374324357 -0.81915203911291934 1.25 0 0 1 I I -0.70710678118654746 0.70710678118654746 1.25 forward I I I I #
loop $-1 $-1 $207 $55 #
coedge $-1 $130 $130 $208 $209 reversed $82 $-1 #
face $-1 $210 $211 $44 $-1 $212 reversed single #
loop $-1 $-1 $213 $84 #
plane-surface $-1 17.836054738980728 -22.684998090025381 45.232643941485662 0 0.57357644374324357 0.81915203911291934 1 0 0 forward_v I I I I #
coedge $-1 $214 $215 $216 $217 reversed $85 $-1 #
face $-1 $-1 $218 $45 $-1 $219 forward single #
loop $-1 $220 $221 $87 #
cone-surface $-1 17.836054738980728 28.034615620813867 3.2175028155859415 0 -0.57357644374324357 -0.81915203911291934 1.25 0 0 1 I I -0.70710678118654746 0.70710678118654746 1.25 forward I I I I #
loop $-1 $-1 $222 $57 #
coedge $-1 $139 $139 $223 $224 reversed $88 $-1 #
face $-1 $225 $226 $46 $-1 $227 reversed single #
loop $-1 $-1 $228 $90 #
plane-surface $-1 39.622678419952756 -22.684998090025381 45.232643941485662 0 0.57357644374324357 0.81915203911291934 1 0 0 forward_v I I I I #
coedge $-1 $229 $230 $231 $232 reversed $91 $-1 #
face $-1 $-1 $233 $47 $-1 $234 forward single #
loop $-1 $235 $236 $93 #
cone-surface $-1 39.622678419952756 28.034615620813867 3.2175028155859415 0 -0.57357644374324357 -0.81915203911291934 1.25 0 0 1 I I -0.70710678118654746 0.70710678118654746 1.25 forward I I I I #
loop $-1 $-1 $237 $59 #
coedge $-1 $148 $148 $238 $239 reversed $94 $-1 #
face $-1 $240 $241 $36 $-1 $242 reversed single #
loop $-1 $-1 $243 $96 #
plane-surface $-1 0 -35.539484806486215 0 0 1 0 0 0 1 forward_v I I I I #
coedge $-1 $244 $245 $246 $247 forward $97 $-1 #
coedge $-1 $248 $99 $249 $250 forward $61 $-1 #
coedge $-1 $99 $248 $251 $252 forward $61 $-1 #
coedge $-1 $253 $254 $99 $156 reversed $255 $-1 #
edge $-1 $256 -35.539484806486215 $257 35.539484806486215 $155 $258 forward 7 unknown #
face $-1 $259 $260 $37 $-1 $261 reversed single #
loop $-1 $-1 $262 $100 #
plane-surface $-1 -40.330035916930079 0 -2.6742683997515488 -1 0 0 0 0 1 forward_v I I I I #
coedge $-1 $263 $264 $265 $266 forward $101 $-1 #
coedge $-1 $267 $103 $268 $269 reversed $64 $-1 #
coedge $-1 $103 $267 $270 $271 reversed $64 $-1 #
coedge $-1 $262 $272 $103 $164 reversed $158 $-1 #
edge $-1 $273 -35.539484806486215 $274 35.539484806486215 $163 $275 forward 7 unknown #
face $-1 $276 $277 $38 $-1 $278 reversed single #
loop $-1 $-1 $279 $104 #
plane-surface $-1 0 0 10.695902262006403 0 0 1 1 0 0 forward_v I I I I #
coedge $-1 $280 $281 $282 $283 reversed $105 $-1 #
coedge $-1 $170 $107 $284 $285 reversed $67 $-1 #
coedge $-1 $107 $169 $280 $286 reversed $67 $-1 #
coedge $-1 $282 $287 $107 $172 forward $277 $-1 #
edge $-1 $288 36.107613784608702 $289 45.151223422535566 $171 $290 forward 7 unknown #
loop $-1 $-1 $178 $108 #
plane-surface $-1 41.457339246850616 -35.539484806486207 1.6522926240795499 0 -0.52991927123019833 0.84804809178421925 1 0 0 forward_v I I I I #
loop $-1 $-1 $291 $69 #
coedge $-1 $176 $176 $177 $292 reversed $109 $-1 #
coedge $-1 $177 $177 $176 $292 forward $111 $-1 #
coedge $-1 $178 $178 $112 $179 forward $173 $-1 #
edge $-1 $293 -9.4447445311590422e-017 $293 6.2831853071796004 $178 $294 forward 7 unknown #
face $-1 $295 $296 $40 $-1 $297 reversed single #
loop $-1 $-1 $298 $113 #
plane-surface $-1 -19.169396916359723 39.508494190683706 134.05415426854148 -1 0 0 0 0.57357644374324357 0.81915203911291934 forward_v I I I I #
coedge $-1 $299 $300 $301 $302 reversed $114 $-1 #
coedge $-1 $185 $116 $303 $304 reversed $73 $-1 #
coedge $-1 $116 $184 $299 $305 reversed $73 $-1 #
coedge $-1 $301 $306 $116 $187 forward $307 $-1 #
edge $-1 $308 -15.785237711144362 $309 -6.8843326562041938 $186 $310 forward 7 unknown #
loop $-1 $-1 $193 $117 #
plane-surface $-1 -25.737192622963335 -22.684998090025381 45.232643941485662 0 0.57357644374324357 0.81915203911291934 1 0 0 forward_v I I I I #
loop $-1 $-1 $311 $75 #
coedge $-1 $191 $191 $192 $312 reversed $118 $-1 #
coedge $-1 $192 $192 $191 $312 forward $120 $-1 #
coedge $-1 $193 $193 $121 $194 forward $188 $-1 #
edge $-1 $313 5.8566664765103863e-017 $313 6.2831853071796004 $193 $314 forward 7 unknown #
face $-1 $315 $316 $42 $-1 $317 forward single #
loop $-1 $-1 $318 $122 #
plane-surface $-1 2.6172267646123135 39.508494190683706 134.05415426854148 -1 0 0 0 0.57357644374324357 0.81915203911291934 forward_v I I I I #
coedge $-1 $319 $320 $321 $322 reversed $123 $-1 #
coedge $-1 $200 $125 $323 $324 reversed $79 $-1 #
coedge $-1 $125 $199 $319 $325 reversed $79 $-1 #
coedge $-1 $321 $326 $125 $202 forward $316 $-1 #
edge $-1 $327 -15.785237711144362 $328 -6.8843326562041938 $201 $329 forward 7 unknown #
loop $-1 $-1 $208 $126 #
plane-surface $-1 -3.9505689419912997 -22.684998090025381 45.232643941485662 0 0.57357644374324357 0.81915203911291934 1 0 0 forward_v I I I I #
loop $-1 $-1 $330 $81 #
coedge $-1 $206 $206 $207 $331 reversed $127 $-1 #
coedge $-1 $207 $207 $206 $331 forward $129 $-1 #
coedge $-1 $208 $208 $130 $209 forward $203 $-1 #
edge $-1 $332 5.8566664765103863e-017 $332 6.2831853071796004 $208 $333 forward 7 unknown #
face $-1 $334 $335 $44 $-1 $336 forward single #
loop $-1 $-1 $337 $131 #
plane-surface $-1 24.403850445584339 39.508494190683706 134.05415426854148 -1 0 0 0 0.57357644374324357 0.81915203911291934 forward_v I I I I #
coedge $-1 $338 $339 $340 $341 reversed $132 $-1 #
coedge $-1 $215 $134 $342 $343 reversed $85 $-1 #
coedge $-1 $134 $214 $338 $344 reversed $85 $-1 #
coedge $-1 $340 $345 $134 $217 forward $335 $-1 #
edge $-1 $346 -15.785237711144362 $347 -6.8843326562041938 $216 $348 forward 7 unknown #
loop $-1 $-1 $223 $135 #
plane-surface $-1 17.836054738980728 -22.684998090025381 45.232643941485662 0 0.57357644374324357 0.81915203911291934 1 0 0 forward_v I I I I #
loop $-1 $-1 $349 $87 #
coedge $-1 $221 $221 $222 $350 reversed $136 $-1 #
coedge $-1 $222 $222 $221 $350 forward $138 $-1 #
coedge $-1 $223 $223 $139 $224 forward $218 $-1 #
edge $-1 $351 5.8566664765103863e-017 $351 6.2831853071796004 $223 $352 forward 7 unknown #
face $-1 $353 $354 $46 $-1 $355 forward single #
loop $-1 $-1 $356 $140 #
plane-surface $-1 46.190474126556367 39.508494190683706 134.05415426854148 -1 0 0 0 0.57357644374324357 0.81915203911291934 forward_v I I I I #
coedge $-1 $357 $358 $359 $360 reversed $141 $-1 #
coedge $-1 $230 $143 $361 $362 reversed $91 $-1 #
coedge $-1 $143 $229 $357 $363 reversed $91 $-1 #
coedge $-1 $359 $364 $143 $232 forward $354 $-1 #
edge $-1 $365 -15.785237711144362 $366 -6.8843326562041938 $231 $367 forward 7 unknown #
loop $-1 $-1 $238 $144 #
plane-surface $-1 39.622678419952756 -22.684998090025381 45.232643941485662 0 0.57357644374324357 0.81915203911291934 1 0 0 forward_v I I I I #
loop $-1 $-1 $368 $93 #
coedge $-1 $236 $236 $237 $369 reversed $145 $-1 #
coedge $-1 $237 $237 $236 $369 forward $147 $-1 #
coedge $-1 $238 $238 $148 $239 forward $233 $-1 #
edge $-1 $370 5.8566664765103863e-017 $370 6.2831853071796004 $238 $371 forward 7 unknown #
face $-1 $372 $373 $36 $-1 $374 reversed single #
loop $-1 $-1 $375 $149 #
plane-surface $-1 -54.215521713919493 0 0 1 0 0 0 0 -1 forward_v I I I I #
coedge $-1 $376 $251 $377 $378 forward $150 $-1 #
coedge $-1 $379 $152 $376 $380 forward $97 $-1 #
coedge $-1 $152 $379 $381 $382 forward $97 $-1 #
coedge $-1 $254 $253 $152 $247 reversed $255 $-1 #
edge $-1 $383 -35.539484806486215 $384 35.539484806486215 $246 $385 forward 7 unknown #
coedge $-1 $154 $153 $386 $387 forward $61 $-1 #
coedge $-1 $388 $389 $153 $250 reversed $373 $-1 #
edge $-1 $257 -54.215521713919493 $390 54.215521713919493 $249 $391 forward 7 unknown #
coedge $-1 $243 $392 $154 $252 reversed $150 $-1 #
edge $-1 $393 -54.215521713919493 $256 54.215521713919493 $251 $394 forward 7 unknown #
coedge $-1 $246 $155 $392 $395 forward $255 $-1 #
coedge $-1 $155 $246 $388 $396 reversed $255 $-1 #
loop $-1 $-1 $253 $372 #
vertex $-1 $156 $397 #
vertex $-1 $156 $398 #
straight-curve $-1 54.215521713919493 0 10.695902262006403 0 1 0 I I #
face $-1 $399 $400 $37 $-1 $401 reversed single #
loop $-1 $-1 $402 $157 #
plane-surface $-1 0 -35.539484806486215 0 0 1 0 0 0 1 forward_v I I I I #
coedge $-1 $265 $163 $403 $404 reversed $158 $-1 #
coedge $-1 $405 $160 $402 $406 reversed $101 $-1 #
coedge $-1 $160 $405 $407 $408 reversed $101 $-1 #
coedge $-1 $272 $262 $160 $266 reversed $158 $-1 #
edge $-1 $409 -35.539484806486215 $410 35.539484806486215 $265 $411 forward 7 unknown #
coedge $-1 $162 $161 $412 $413 reversed $64 $-1 #
coedge $-1 $414 $415 $161 $269 forward $416 $-1 #
edge $-1 $417 -30.5791323062071 $274 -16.693646509217686 $268 $418 forward 7 unknown #
coedge $-1 $419 $403 $162 $271 forward $260 $-1 #
edge $-1 $273 16.693646509217686 $420 30.5791323062071 $270 $421 forward 7 unknown #
coedge $-1 $163 $265 $414 $422 reversed $158 $-1 #
vertex $-1 $271 $423 #
vertex $-1 $269 $424 #
straight-curve $-1 -40.330035916930079 0 -1.1742683997515488 0 1 0 I I #
face $-1 $-1 $425 $38 $-1 $426 reversed single #
loop $-1 $-1 $171 $165 #
plane-surface $-1 0 -35.539484806486215 0 0 1 0 0 0 1 forward_v I I I I #
coedge $-1 $284 $427 $428 $429 forward $166 $-1 #
coedge $-1 $428 $168 $170 $286 forward $105 $-1 #
coedge $-1 $168 $428 $430 $431 reversed $105 $-1 #
coedge $-1 $432 $171 $168 $283 forward $277 $-1 #
edge $-1 $289 7.9704871563564303 $433 33.486852090494182 $282 $434 forward 7 unknown #
coedge $-1 $435 $279 $169 $285 forward $166 $-1 #
edge $-1 $436 -25.432907857791538 $288 -10.960107352762101 $284 $437 forward 7 unknown #
edge $-1 $289 -8.3790584163743152e-015 $436 17.066013879684487 $170 $438 forward 7 unknown #
coedge $-1 $171 $432 $435 $439 reversed $277 $-1 #
vertex $-1 $439 $440 #
vertex $-1 $172 $441 #
straight-curve $-1 28.699156779781738 -35.539484806486215 46.803516046615108 0 0 -1 I I #
coedge $-1 $291 $291 $-1 $442 reversed $175 $-1 #
edge $-1 $443 0 $443 6.2831853071796004 $176 $444 forward 7 unknown #
vertex $-1 $179 $445 #
ellipse-curve $-1 41.457339246850616 -28.303084553971502 6.1740974430429709 0 -0.52991927123019833 0.84804809178421925 4 0 0 1 I I #
face $-1 $-1 $307 $40 $-1 $446 forward single #
loop $-1 $-1 $447 $180 #
plane-surface $-1 0 35.539484806486215 0 0 -1 0 0 0 -1 forward_v I I I I #
coedge $-1 $448 $449 $450 $451 reversed $181 $-1 #
coedge $-1 $452 $183 $185 $305 forward $114 $-1 #
coedge $-1 $183 $452 $448 $453 forward $114 $-1 #
coedge $-1 $450 $186 $183 $302 forward $307 $-1 #
edge $-1 $309 -19.436392018085279 $454 -6.3008006048780558 $301 $455 forward 7 unknown #
coedge $-1 $456 $457 $184 $304 forward $296 $-1 #
edge $-1 $458 -62.56365580832788 $308 -56.331174872264342 $303 $459 forward 7 unknown #
edge $-1 $309 60.212970836262812 $458 71.078969612972429 $185 $460 forward 7 unknown #
coedge $-1 $186 $450 $456 $461 forward $307 $-1 #
loop $-1 $-1 $450 $295 #
vertex $-1 $304 $462 #
vertex $-1 $187 $463 #
straight-curve $-1 -32.304988329566946 19.754247095341853 10.695902262006399 0 -1 0 I I #
coedge $-1 $311 $311 $-1 $464 reversed $190 $-1 #
edge $-1 $465 0 $465 6.2831853071796004 $191 $466 forward 7 unknown #
vertex $-1 $194 $467 #
ellipse-curve $-1 -25.737192622963338 31.089032279016124 7.5796617939746369 0 0.57357644374324357 0.81915203911291934 2.5 0 0 1 I I #
face $-1 $-1 $468 $42 $-1 $469 reversed single #
loop $-1 $-1 $201 $195 #
plane-surface $-1 0 0 10.695902262006403 0 0 1 1 0 0 forward_v I I I I #
coedge $-1 $470 $471 $472 $473 reversed $196 $-1 #
coedge $-1 $474 $198 $200 $325 forward $123 $-1 #
coedge $-1 $198 $474 $470 $475 forward $123 $-1 #
coedge $-1 $472 $201 $198 $322 forward $316 $-1 #
edge $-1 $328 -8.5430801775992631 $476 4.5925112356079634 $321 $477 forward 7 unknown #
coedge $-1 $478 $479 $199 $324 forward $468 $-1 #
edge $-1 $480 -62.56365580832788 $327 -56.331174872264342 $323 $481 forward 7 unknown #
edge $-1 $328 60.212970836262812 $480 71.078969612972429 $200 $482 forward 7 unknown #
coedge $-1 $201 $472 $478 $483 forward $316 $-1 #
vertex $-1 $202 $484 #
vertex $-1 $202 $485 #
straight-curve $-1 -10.518364648594913 19.754247095341853 10.695902262006399 0 -1 0 I I #
coedge $-1 $330 $330 $-1 $486 reversed $205 $-1 #
edge $-1 $487 0 $487 6.2831853071796004 $206 $488 forward 7 unknown #
vertex $-1 $209 $489 #
ellipse-curve $-1 -3.9505689419913068 31.089032279016124 7.5796617939746369 0 0.57357644374324357 0.81915203911291934 2.5 0 0 1 I I #
face $-1 $-1 $490 $44 $-1 $491 reversed single #
loop $-1 $-1 $216 $210 #
plane-surface $-1 0 0 10.695902262006403 0 0 1 1 0 0 forward_v I I I I #
coedge $-1 $492 $493 $494 $495 reversed $211 $-1 #
coedge $-1 $496 $213 $215 $344 forward $132 $-1 #
coedge $-1 $213 $496 $492 $497 forward $132 $-1 #
coedge $-1 $494 $216 $213 $341 forward $335 $-1 #
edge $-1 $347 2.3502316628867508 $498 15.485823076093975 $340 $499 forward 7 unknown #
coedge $-1 $500 $501 $214 $343 forward $490 $-1 #
edge $-1 $502 -62.56365580832788 $346 -56.331174872264342 $342 $503 forward 7 unknown #
edge $-1 $347 60.212970836262812 $502 71.078969612972429 $215 $504 forward 7 unknown #
coedge $-1 $216 $494 $500 $505 forward $335 $-1 #
vertex $-1 $217 $506 #
vertex $-1 $217 $507 #
straight-curve $-1 11.268259032377115 19.754247095341853 10.695902262006399 0 -1 0 I I #
coedge $-1 $349 $349 $-1 $508 reversed $220 $-1 #
edge $-1 $509 0 $509 6.2831853071796004 $221 $510 forward 7 unknown #
vertex $-1 $224 $511 #
ellipse-curve $-1 17.836054738980728 31.089032279016124 7.5796617939746369 0 0.57357644374324357 0.81915203911291934 2.5 0 0 1 I I #
face $-1 $-1 $512 $46 $-1 $513 reversed single #
loop $-1 $-1 $231 $225 #
plane-surface $-1 0 0 10.695902262006403 0 0 1 1 0 0 forward_v I I I I #
coedge $-1 $514 $515 $516 $517 reversed $226 $-1 #
coedge $-1 $518 $228 $230 $363 forward $141 $-1 #
coedge $-1 $228 $518 $514 $519 forward $141 $-1 #
coedge $-1 $516 $231 $228 $360 forward $354 $-1 #
edge $-1 $366 13.243543503372766 $520 26.379134916579989 $359 $521 forward 7 unknown #
coedge $-1 $522 $523 $229 $362 forward $512 $-1 #
edge $-1 $524 -62.56365580832788 $365 -56.331174872264342 $361 $525 forward 7 unknown #
edge $-1 $366 60.212970836262812 $524 71.078969612972429 $230 $526 forward 7 unknown #
coedge $-1 $231 $516 $522 $527 forward $354 $-1 #
vertex $-1 $232 $528 #
vertex $-1 $232 $529 #
straight-curve $-1 33.054882713349144 19.754247095341853 10.695902262006399 0 -1 0 I I #
coedge $-1 $368 $368 $-1 $530 reversed $235 $-1 #
edge $-1 $531 0 $531 6.2831853071796004 $236 $532 forward 7 unknown #
vertex $-1 $239 $533 #
ellipse-curve $-1 39.622678419952756 31.089032279016124 7.5796617939746369 0 0.57357644374324357 0.81915203911291934 2.5 0 0 1 I I #
face $-1 $-1 $255 $36 $-1 $534 reversed single #
loop $-1 $-1 $388 $240 #
plane-surface $-1 0 35.539484806486215 0 0 -1 0 0 0 -1 forward_v I I I I #
coedge $-1 $535 $386 $389 $536 forward $241 $-1 #
coedge $-1 $392 $243 $244 $380 reversed $150 $-1 #
coedge $-1 $386 $535 $243 $378 reversed $241 $-1 #
edge $-1 $393 -10.695902262006403 $537 10.695902262006403 $377 $538 forward 7 unknown #
coedge $-1 $245 $244 $535 $539 forward $97 $-1 #
edge $-1 $384 -54.215521713919493 $537 54.215521713919493 $376 $540 forward 7 unknown #
coedge $-1 $389 $388 $245 $382 reversed $373 $-1 #
edge $-1 $541 -54.215521713919493 $383 54.215521713919493 $381 $542 forward 7 unknown #
vertex $-1 $247 $543 #
vertex $-1 $395 $544 #
straight-curve $-1 54.215521713919493 0 -10.695902262006403 0 -1 0 I I #
coedge $-1 $375 $377 $248 $387 reversed $241 $-1 #
edge $-1 $390 -35.539484806486215 $393 35.539484806486215 $386 $545 forward 7 unknown #
coedge $-1 $381 $249 $254 $396 forward $373 $-1 #
coedge $-1 $249 $381 $375 $536 reversed $373 $-1 #
vertex $-1 $250 $546 #
straight-curve $-1 0 35.539484806486215 10.695902262006403 -1 0 0 I I #
coedge $-1 $251 $376 $253 $395 reversed $150 $-1 #
vertex $-1 $387 $547 #
straight-curve $-1 0 -35.539484806486215 10.695902262006403 1 0 0 I I #
edge $-1 $256 -10.695902262006403 $384 10.695902262006403 $253 $548 forward 7 unknown #
edge $-1 $257 -10.695902262006403 $383 10.695902262006403 $254 $549 forward 7 unknown #
point $-1 54.215521713919493 -35.539484806486215 10.695902262006403 #
point $-1 54.215521713919493 35.539484806486215 10.695902262006403 #
face $-1 $-1 $416 $37 $-1 $550 reversed single #
loop $-1 $-1 $551 $259 #
plane-surface $-1 -54.215521713919493 0 0 1 0 0 0 0 -1 forward_v I I I I #
coedge $-1 $403 $419 $263 $406 forward $260 $-1 #
coedge $-1 $270 $402 $262 $404 forward $260 $-1 #
edge $-1 $410 -2.8371341998757744 $273 0.16286580012422558 $403 $552 forward 7 unknown #
coedge $-1 $264 $263 $551 $553 reversed $101 $-1 #
edge $-1 $554 -30.5791323062071 $410 -16.693646509217686 $402 $555 forward 7 unknown #
coedge $-1 $415 $414 $264 $408 forward $416 $-1 #
edge $-1 $409 16.693646509217686 $556 30.5791323062071 $407 $557 forward 7 unknown #
vertex $-1 $408 $558 #
vertex $-1 $406 $559 #
straight-curve $-1 -40.330035916930079 0 -4.1742683997515488 0 -1 0 I I #
coedge $-1 $560 $561 $267 $413 forward $400 $-1 #
edge $-1 $420 -35.539484806486215 $417 35.539484806486215 $412 $562 forward 7 unknown #
coedge $-1 $407 $268 $272 $422 forward $416 $-1 #
coedge $-1 $268 $407 $560 $563 reversed $416 $-1 #
loop $-1 $-1 $407 $399 #
vertex $-1 $563 $564 #
straight-curve $-1 -23.636389407712393 35.539484806486215 -1.1742683997515488 1 0 0 I I #
coedge $-1 $402 $270 $561 $565 forward $260 $-1 #
vertex $-1 $565 $566 #
straight-curve $-1 -23.636389407712393 -35.539484806486215 -1.1742683997515488 -1 0 0 I I #
edge $-1 $274 -0.16286580012422558 $409 2.8371341998757744 $414 $567 forward 7 unknown #
point $-1 -40.330035916930079 -35.539484806486215 -1.1742683997515488 #
point $-1 -40.330035916930079 35.539484806486215 -1.1742683997515488 #
loop $-1 $-1 $430 $276 #
plane-surface $-1 54.215521713919493 0 0 -1 0 0 0 0 1 forward_v I I I I #
coedge $-1 $279 $435 $568 $569 forward $166 $-1 #
coedge $-1 $281 $280 $279 $429 reversed $105 $-1 #
edge $-1 $570 -33.486852090494182 $436 -7.9704871563564303 $279 $571 forward 7 unknown #
coedge $-1 $568 $572 $281 $431 forward $425 $-1 #
edge $-1 $433 -14.631805284961816 $570 2.4342085947226799 $430 $573 forward 7 unknown #
coedge $-1 $287 $282 $572 $574 reversed $277 $-1 #
vertex $-1 $283 $575 #
straight-curve $-1 20.728669623425308 -35.539484806486215 1.6522926240795455 1 0 0 I I #
coedge $-1 $427 $284 $287 $439 forward $166 $-1 #
vertex $-1 $285 $576 #
straight-curve $-1 28.699156779781738 -46.499592159248316 10.695902262006406 0 -1 0 I I #
straight-curve $-1 28.699156779781738 -35.539484806486207 1.6522926240795499 0 0.84804809178421925 0.52991927123019833 I I #
edge $-1 $288 28.699156779781738 $577 54.215521713919493 $287 $578 forward 7 unknown #
point $-1 28.699156779781738 -35.539484806486215 10.695902262006403 #
point $-1 28.699156779781738 -35.539484806486215 1.6522926240795455 #
edge $-1 $579 1 $579 0 $291 $-1 forward 7 unknown #
vertex $-1 $292 $580 #
ellipse-curve $-1 41.457339246850616 -22.624973767847585 -2.9127791408810682 0 -0.52991927123019833 0.84804809178421925 4 0 0 1 I I #
point $-1 45.457339246850616 -28.303084553971509 6.1740974430429816 #
plane-surface $-1 0 0 10.695902262006403 0 0 1 1 0 0 forward_v I I I I #
coedge $-1 $457 $456 $449 $581 forward $296 $-1 #
coedge $-1 $449 $298 $300 $453 reversed $181 $-1 #
coedge $-1 $298 $448 $447 $581 reversed $181 $-1 #
coedge $-1 $306 $301 $298 $451 forward $307 $-1 #
edge $-1 $454 6.8843326562041938 $582 15.785237711144362 $450 $583 forward 7 unknown #
coedge $-1 $300 $299 $457 $584 reversed $114 $-1 #
edge $-1 $585 -71.078969612972429 $454 -60.212970836262812 $448 $586 forward 7 unknown #
vertex $-1 $302 $587 #
straight-curve $-1 -12.868596311481667 26.63857975154604 10.695902262006406 1 0 0 I I #
coedge $-1 $447 $303 $306 $461 reversed $296 $-1 #
coedge $-1 $303 $447 $452 $584 forward $296 $-1 #
vertex $-1 $304 $588 #
straight-curve $-1 -32.304988329566946 35.539484806486215 67.027077134270741 0 0 1 I I #
straight-curve $-1 -32.304988329566946 -22.684998090025381 45.232643941485662 0 0.81915203911291934 -0.57357644374324357 I I #
edge $-1 $582 19.169396916359723 $308 32.304988329566946 $456 $589 forward 7 unknown #
point $-1 -32.304988329566946 35.539484806486215 10.695902262006403 #
point $-1 -32.304988329566946 26.638579751546047 10.695902262006399 #
edge $-1 $590 1 $590 0 $311 $-1 forward 7 unknown #
vertex $-1 $312 $591 #
ellipse-curve $-1 -25.737192622963338 28.751586175492921 4.241442864477091 0 0.57357644374324357 0.81915203911291934 2.5 0 0 1 I I #
point $-1 -23.237192622963338 31.08903227901612 7.5796617939746316 #
loop $-1 $-1 $323 $315 #
plane-surface $-1 0 35.539484806486215 0 0 -1 0 0 0 -1 forward_v I I I I #
coedge $-1 $471 $318 $320 $475 reversed $196 $-1 #
coedge $-1 $318 $470 $592 $593 reversed $196 $-1 #
coedge $-1 $326 $321 $318 $473 forward $316 $-1 #
edge $-1 $476 6.8843326562041938 $594 15.785237711144362 $472 $595 forward 7 unknown #
coedge $-1 $320 $319 $479 $596 reversed $123 $-1 #
edge $-1 $597 -71.078969612972429 $476 -60.212970836262812 $470 $598 forward 7 unknown #
vertex $-1 $322 $599 #
straight-curve $-1 -1.9752844709956499 26.63857975154604 10.695902262006406 1 0 0 I I #
coedge $-1 $592 $323 $326 $483 reversed $468 $-1 #
coedge $-1 $323 $592 $474 $596 forward $468 $-1 #
vertex $-1 $324 $600 #
straight-curve $-1 -10.518364648594913 35.539484806486215 67.027077134270741 0 0 1 I I #
straight-curve $-1 -10.518364648594913 -22.684998090025381 45.232643941485662 0 0.81915203911291934 -0.57357644374324357 I I #
edge $-1 $594 -2.6172267646123135 $327 10.518364648594913 $478 $601 forward 7 unknown #
point $-1 -10.518364648594913 35.539484806486215 10.695902262006403 #
point $-1 -10.518364648594913 26.638579751546047 10.695902262006399 #
edge $-1 $602 1 $602 0 $330 $-1 forward 7 unknown #
vertex $-1 $331 $603 #
ellipse-curve $-1 -3.9505689419913068 28.751586175492921 4.241442864477091 0 0.57357644374324357 0.81915203911291934 2.5 0 0 1 I I #
point $-1 -1.4505689419913068 31.08903227901612 7.5796617939746316 #
loop $-1 $-1 $342 $334 #
plane-surface $-1 0 35.539484806486215 0 0 -1 0 0 0 -1 forward_v I I I I #
coedge $-1 $493 $337 $339 $497 reversed $211 $-1 #
coedge $-1 $337 $492 $604 $605 reversed $211 $-1 #
coedge $-1 $345 $340 $337 $495 forward $335 $-1 #
edge $-1 $498 6.8843326562041938 $606 15.785237711144362 $494 $607 forward 7 unknown #
coedge $-1 $339 $338 $501 $608 reversed $132 $-1 #
edge $-1 $609 -71.078969612972429 $498 -60.212970836262812 $492 $610 forward 7 unknown #
vertex $-1 $341 $611 #
straight-curve $-1 8.918027369490364 26.63857975154604 10.695902262006406 1 0 0 I I #
coedge $-1 $604 $342 $345 $505 reversed $490 $-1 #
coedge $-1 $342 $604 $496 $608 forward $490 $-1 #
vertex $-1 $343 $612 #
straight-curve $-1 11.268259032377115 35.539484806486215 67.027077134270741 0 0 1 I I #
straight-curve $-1 11.268259032377115 -22.684998090025381 45.232643941485662 0 0.81915203911291934 -0.57357644374324357 I I #
edge $-1 $606 -24.403850445584339 $346 -11.268259032377115 $500 $613 forward 7 unknown #
point $-1 11.268259032377115 35.539484806486215 10.695902262006403 #
point $-1 11.268259032377115 26.638579751546047 10.695902262006399 #
edge $-1 $614 1 $614 0 $349 $-1 forward 7 unknown #
vertex $-1 $350 $615 #
ellipse-curve $-1 17.836054738980728 28.751586175492921 4.241442864477091 0 0.57357644374324357 0.81915203911291934 2.5 0 0 1 I I #
point $-1 20.336054738980728 31.08903227901612 7.5796617939746316 #
loop $-1 $-1 $361 $353 #
plane-surface $-1 0 35.539484806486215 0 0 -1 0 0 0 -1 forward_v I I I I #
coedge $-1 $515 $356 $358 $519 reversed $226 $-1 #
coedge $-1 $356 $514 $616 $617 reversed $226 $-1 #
coedge $-1 $364 $359 $356 $517 forward $354 $-1 #
edge $-1 $520 6.8843326562041938 $618 15.785237711144362 $516 $619 forward 7 unknown #
coedge $-1 $358 $357 $523 $620 reversed $141 $-1 #
edge $-1 $621 -71.078969612972429 $520 -60.212970836262812 $514 $622 forward 7 unknown #
vertex $-1 $360 $623 #
straight-curve $-1 19.811339209976378 26.63857975154604 10.695902262006406 1 0 0 I I #
coedge $-1 $616 $361 $364 $527 reversed $512 $-1 #
coedge $-1 $361 $616 $518 $620 forward $512 $-1 #
vertex $-1 $362 $624 #
straight-curve $-1 33.054882713349144 35.539484806486215 67.027077134270741 0 0 1 I I #
straight-curve $-1 33.054882713349144 -22.684998090025381 45.232643941485662 0 0.81915203911291934 -0.57357644374324357 I I #
edge $-1 $618 -46.190474126556367 $365 -33.054882713349144 $522 $625 forward 7 unknown #
point $-1 33.054882713349144 35.539484806486215 10.695902262006403 #
point $-1 33.054882713349144 26.638579751546047 10.695902262006399 #
edge $-1 $626 1 $626 0 $368 $-1 forward 7 unknown #
vertex $-1 $369 $627 #
ellipse-curve $-1 39.622678419952756 28.751586175492921 4.241442864477091 0 0.57357644374324357 0.81915203911291934 2.5 0 0 1 I I #
point $-1 42.122678419952756 31.08903227901612 7.5796617939746316 #
plane-surface $-1 54.215521713919493 0 0 -1 0 0 0 0 1 forward_v I I I I #
coedge $-1 $377 $375 $379 $539 reversed $241 $-1 #
edge $-1 $390 -10.695902262006403 $541 10.695902262006403 $389 $628 forward 7 unknown #
vertex $-1 $539 $629 #
straight-curve $-1 -54.215521713919493 -35.539484806486215 0 0 0 -1 I I #
edge $-1 $537 -35.539484806486215 $541 35.539484806486215 $535 $630 forward 7 unknown #
straight-curve $-1 0 -35.539484806486215 -10.695902262006403 -1 0 0 I I #
vertex $-1 $382 $631 #
straight-curve $-1 0 35.539484806486215 -10.695902262006403 1 0 0 I I #
point $-1 54.215521713919493 35.539484806486215 -10.695902262006403 #
point $-1 54.215521713919493 -35.539484806486215 -10.695902262006403 #
straight-curve $-1 -54.215521713919493 0 10.695902262006403 0 -1 0 I I #
point $-1 -54.215521713919493 35.539484806486215 10.695902262006403 #
point $-1 -54.215521713919493 -35.539484806486215 10.695902262006403 #
straight-curve $-1 54.215521713919493 -35.539484806486215 0 0 0 -1 I I #
straight-curve $-1 54.215521713919493 35.539484806486215 0 0 0 -1 I I #
plane-surface $-1 0 35.539484806486215 0 0 -1 0 0 0 -1 forward_v I I I I #
coedge $-1 $561 $560 $405 $553 forward $400 $-1 #
straight-curve $-1 -40.330035916930079 -35.539484806486215 -1.3371341998757744 0 0 1 I I #
edge $-1 $556 -35.539484806486215 $554 35.539484806486215 $551 $632 forward 7 unknown #
vertex $-1 $406 $633 #
straight-curve $-1 -23.636389407712393 -35.539484806486215 -4.1742683997515488 1 0 0 I I #
vertex $-1 $408 $634 #
straight-curve $-1 -23.636389407712393 35.539484806486215 -4.1742683997515488 -1 0 0 I I #
point $-1 -40.330035916930079 35.539484806486215 -4.1742683997515488 #
point $-1 -40.330035916930079 -35.539484806486215 -4.1742683997515488 #
coedge $-1 $551 $412 $415 $563 forward $400 $-1 #
coedge $-1 $412 $551 $419 $565 reversed $400 $-1 #
straight-curve $-1 -54.215521713919493 0 -1.1742683997515488 0 1 0 I I #
edge $-1 $417 1.1742683997515488 $556 4.1742683997515488 $415 $635 forward 7 unknown #
point $-1 -54.215521713919493 35.539484806486215 -1.1742683997515488 #
edge $-1 $420 1.1742683997515488 $554 4.1742683997515488 $561 $636 forward 7 unknown #
point $-1 -54.215521713919493 -35.539484806486215 -1.1742683997515488 #
straight-curve $-1 -40.330035916930079 35.539484806486215 -1.3371341998757744 0 0 -1 I I #
coedge $-1 $572 $430 $427 $569 reversed $425 $-1 #
edge $-1 $577 -35.539484806486215 $570 -21.066684301456778 $568 $637 forward 7 unknown #
vertex $-1 $431 $638 #
straight-curve $-1 20.728669623425308 -21.066684301456782 10.695902262006403 -1 0 0 I I #
coedge $-1 $430 $568 $432 $574 forward $425 $-1 #
straight-curve $-1 54.215521713919493 -23.131010255216093 9.4059682174686756 0 0.84804809178421925 0.52991927123019833 I I #
edge $-1 $577 -10.695902262006403 $433 -1.6522926240795455 $572 $639 forward 7 unknown #
point $-1 54.215521713919493 -35.539484806486215 1.6522926240795455 #
point $-1 28.699156779781738 -21.066684301456778 10.695902262006403 #
vertex $-1 $569 $640 #
straight-curve $-1 0 -35.539484806486215 10.695902262006403 1 0 0 I I #
vertex $-1 $442 $641 #
point $-1 45.457339246850616 -22.624973767847585 -2.9127791408810682 #
edge $-1 $582 56.331174872264342 $585 62.56365580832788 $447 $642 forward 7 unknown #
vertex $-1 $461 $643 #
straight-curve $-1 -19.169396916359723 19.754247095341853 10.695902262006399 0 1 0 I I #
edge $-1 $585 6.3008006048780558 $458 19.436392018085279 $457 $644 forward 7 unknown #
vertex $-1 $584 $645 #
straight-curve $-1 -19.169396916359723 -22.684998090025381 45.232643941485662 0 -0.81915203911291934 0.57357644374324357 I I #
point $-1 -19.169396916359723 26.638579751546047 10.695902262006399 #
point $-1 -32.304988329566946 35.539484806486215 4.4634213259428606 #
straight-curve $-1 0 35.539484806486215 10.695902262006403 -1 0 0 I I #
vertex $-1 $464 $646 #
point $-1 -23.237192622963338 28.751586175492921 4.241442864477091 #
coedge $-1 $479 $478 $471 $593 forward $468 $-1 #
edge $-1 $594 56.331174872264342 $597 62.56365580832788 $592 $647 forward 7 unknown #
vertex $-1 $483 $648 #
straight-curve $-1 2.6172267646123135 19.754247095341853 10.695902262006399 0 1 0 I I #
edge $-1 $597 -4.5925112356079634 $480 8.5430801775992631 $479 $649 forward 7 unknown #
vertex $-1 $596 $650 #
straight-curve $-1 2.6172267646123135 -22.684998090025381 45.232643941485662 0 -0.81915203911291934 0.57357644374324357 I I #
point $-1 2.6172267646123135 26.638579751546047 10.695902262006399 #
point $-1 -10.518364648594913 35.539484806486215 4.4634213259428606 #
straight-curve $-1 0 35.539484806486215 10.695902262006403 -1 0 0 I I #
vertex $-1 $486 $651 #
point $-1 -1.4505689419913068 28.751586175492921 4.241442864477091 #
coedge $-1 $501 $500 $493 $605 forward $490 $-1 #
edge $-1 $606 56.331174872264342 $609 62.56365580832788 $604 $652 forward 7 unknown #
vertex $-1 $505 $653 #
straight-curve $-1 24.403850445584339 19.754247095341853 10.695902262006399 0 1 0 I I #
edge $-1 $609 -15.485823076093975 $502 -2.3502316628867508 $501 $654 forward 7 unknown #
vertex $-1 $608 $655 #
straight-curve $-1 24.403850445584339 -22.684998090025381 45.232643941485662 0 -0.81915203911291934 0.57357644374324357 I I #
point $-1 24.403850445584339 26.638579751546047 10.695902262006399 #
point $-1 11.268259032377115 35.539484806486215 4.4634213259428606 #
straight-curve $-1 0 35.539484806486215 10.695902262006403 -1 0 0 I I #
vertex $-1 $508 $656 #
point $-1 20.336054738980728 28.751586175492921 4.241442864477091 #
coedge $-1 $523 $522 $515 $617 forward $512 $-1 #
edge $-1 $618 56.331174872264342 $621 62.56365580832788 $616 $657 forward 7 unknown #
vertex $-1 $527 $658 #
straight-curve $-1 46.190474126556367 19.754247095341853 10.695902262006399 0 1 0 I I #
edge $-1 $621 -26.379134916579989 $524 -13.243543503372766 $523 $659 forward 7 unknown #
vertex $-1 $620 $660 #
straight-curve $-1 46.190474126556367 -22.684998090025381 45.232643941485662 0 -0.81915203911291934 0.57357644374324357 I I #
point $-1 46.190474126556367 26.638579751546047 10.695902262006399 #
point $-1 33.054882713349144 35.539484806486215 4.4634213259428606 #
straight-curve $-1 0 35.539484806486215 10.695902262006403 -1 0 0 I I #
vertex $-1 $530 $661 #
point $-1 42.122678419952756 28.751586175492921 4.241442864477091 #
straight-curve $-1 -54.215521713919493 35.539484806486215 0 0 0 -1 I I #
point $-1 -54.215521713919493 -35.539484806486215 -10.695902262006403 #
straight-curve $-1 -54.215521713919493 0 -10.695902262006403 0 1 0 I I #
point $-1 -54.215521713919493 35.539484806486215 -10.695902262006403 #
straight-curve $-1 -54.215521713919493 0 -4.1742683997515488 0 -1 0 I I #
point $-1 -54.215521713919493 -35.539484806486215 -4.1742683997515488 #
point $-1 -54.215521713919493 35.539484806486215 -4.1742683997515488 #
straight-curve $-1 -54.215521713919493 35.539484806486215 0 0 0 -1 I I #
straight-curve $-1 -54.215521713919493 -35.539484806486215 0 0 0 -1 I I #
straight-curve $-1 54.215521713919493 0 10.695902262006403 0 1 0 I I #
point $-1 54.215521713919493 -21.066684301456778 10.695902262006403 #
straight-curve $-1 54.215521713919493 -35.539484806486215 0 0 0 -1 I I #
point $-1 54.215521713919493 -35.539484806486215 10.695902262006403 #
point $-1 41.457339246850616 -20.50529668292679 -6.3049715080179451 #
straight-curve $-1 -19.169396916359723 35.539484806486215 67.027077134270741 0 0 -1 I I #
point $-1 -19.169396916359723 35.539484806486215 10.695902262006403 #
straight-curve $-1 -12.868596311481667 35.539484806486222 4.4634213259428606 -1 0 0 I I #
point $-1 -19.169396916359723 35.539484806486215 4.4634213259428606 #
point $-1 -25.737192622963338 27.317645066134812 2.1935627666947921 #
straight-curve $-1 2.6172267646123135 35.539484806486215 67.027077134270741 0 0 -1 I I #
point $-1 2.6172267646123135 35.539484806486215 10.695902262006403 #
straight-curve $-1 -1.9752844709956499 35.539484806486222 4.4634213259428606 -1 0 0 I I #
point $-1 2.6172267646123135 35.539484806486215 4.4634213259428606 #
point $-1 -3.9505689419913068 27.317645066134812 2.1935627666947921 #
straight-curve $-1 24.403850445584339 35.539484806486215 67.027077134270741 0 0 -1 I I #
point $-1 24.403850445584339 35.539484806486215 10.695902262006403 #
straight-curve $-1 8.918027369490364 35.539484806486222 4.4634213259428606 -1 0 0 I I #
point $-1 24.403850445584339 35.539484806486215 4.4634213259428606 #
point $-1 17.836054738980728 27.317645066134812 2.1935627666947921 #
straight-curve $-1 46.190474126556367 35.539484806486215 67.027077134270741 0 0 -1 I I #
point $-1 46.190474126556367 35.539484806486215 10.695902262006403 #
straight-curve $-1 19.811339209976378 35.539484806486222 4.4634213259428606 -1 0 0 I I #
point $-1 46.190474126556367 35.539484806486215 4.4634213259428606 #
point $-1 39.622678419952756 27.317645066134812 2.1935627666947921 #
End-of-ACIS-data 