500 0 10 0           
7 Unknown 11 ACIS 5.0 NT 24 Fri Mar 26 01:49:33 1999 
-1 9.9999999999999995e-007 1e-010 
body $-1 $10 $-1 $11 #
body $-1 $12 $-1 $13 #
body $-1 $14 $-1 $15 #
body $-1 $16 $-1 $17 #
body $-1 $18 $-1 $19 #
body $-1 $20 $-1 $21 #
body $-1 $22 $-1 $23 #
body $-1 $24 $-1 $25 #
body $-1 $26 $-1 $27 #
body $-1 $28 $-1 $29 #
lump $-1 $-1 $30 $0 #
transform $-1 1 0 0 0 1 0 0 0 1 69.717703787347034 34.937150532528904 12.212808912310939 1 rotate no_reflect no_shear #
lump $-1 $-1 $31 $1 #
transform $-1 1 0 0 0 1 0 0 0 1 69.717703787347034 34.937150532528904 12.212808912310939 1 rotate no_reflect no_shear #
lump $-1 $-1 $32 $2 #
transform $-1 1 0 0 0 1 0 0 0 1 69.717703787347034 34.937150532528904 12.212808912310939 1 rotate no_reflect no_shear #
lump $-1 $-1 $33 $3 #
transform $-1 1 0 0 0 1 0 0 0 1 69.717703787347034 34.937150532528904 12.212808912310939 1 rotate no_reflect no_shear #
lump $-1 $-1 $34 $4 #
transform $-1 1 0 0 0 1 0 0 0 1 69.717703787347034 34.937150532528904 12.212808912310939 1 rotate no_reflect no_shear #
lump $-1 $-1 $35 $5 #
transform $-1 1 0 0 0 1 0 0 0 1 69.717703787347034 34.937150532528904 12.212808912310939 1 rotate no_reflect no_shear #
lump $-1 $-1 $36 $6 #
transform $-1 1 0 0 0 1 0 0 0 1 69.717703787347034 34.937150532528904 12.212808912310939 1 rotate no_reflect no_shear #
lump $-1 $-1 $37 $7 #
transform $-1 1 0 0 0 1 0 0 0 1 69.717703787347034 34.937150532528904 12.212808912310939 1 rotate no_reflect no_shear #
lump $-1 $-1 $38 $8 #
transform $-1 1 0 0 0 1 0 0 0 1 69.717703787347034 34.937150532528904 12.212808912310939 1 rotate no_reflect no_shear #
lump $-1 $-1 $39 $9 #
transform $-1 1 0 0 0 1 0 0 0 1 69.717703787347034 34.937150532528904 12.212808912310939 1 rotate no_reflect no_shear #
shell $-1 $-1 $-1 $40 $-1 $10 #
shell $-1 $-1 $-1 $41 $-1 $12 #
shell $-1 $-1 $-1 $42 $-1 $14 #
shell $-1 $-1 $-1 $43 $-1 $16 #
shell $-1 $-1 $-1 $44 $-1 $18 #
shell $-1 $-1 $-1 $45 $-1 $20 #
shell $-1 $-1 $-1 $46 $-1 $22 #
shell $-1 $-1 $-1 $47 $-1 $24 #
shell $-1 $-1 $-1 $48 $-1 $26 #
shell $-1 $-1 $-1 $49 $-1 $28 #
face $-1 $50 $51 $30 $-1 $52 forward single #
face $-1 $53 $54 $31 $-1 $55 reversed single #
face $-1 $56 $57 $32 $-1 $58 reversed single #
face $-1 $59 $60 $33 $-1 $61 forward single #
face $-1 $62 $63 $34 $-1 $64 reversed single #
face $-1 $65 $66 $35 $-1 $67 forward single #
face $-1 $68 $69 $36 $-1 $70 reversed single #
face $-1 $71 $72 $37 $-1 $73 forward single #
face $-1 $74 $75 $38 $-1 $76 forward single #
face $-1 $77 $78 $39 $-1 $79 forward single #
face $-1 $80 $81 $30 $-1 $82 reversed single #
loop $-1 $-1 $83 $40 #
plane-surface $-1 0 0 12.212808912310939 0 0 1 1 0 0 forward_v I I I I #
face $-1 $84 $85 $31 $-1 $86 reversed single #
loop $-1 $-1 $87 $41 #
plane-surface $-1 -67.493591277125375 -21.806780133462837 0 0 -1 0 0 0 -1 forward_v I I I I #
face $-1 $88 $89 $32 $-1 $90 reversed single #
loop $-1 $-1 $91 $42 #
plane-surface $-1 -183.93650408257008 -16.933912845719728 85.85397504001206 0 1 0 -0.81915205242281985 0 0.57357642473473569 forward_v I I I I #
face $-1 $92 $93 $33 $-1 $94 forward single #
loop $-1 $95 $96 $43 #
cone-surface $-1 -66.695631425003782 -10.93452602684787 8.4820490093493603 0.81915205242281985 0 -0.57357642473473569 0.86036463710210354 0 1.2287280786342298 1 I I 0 1 1.5 forward I I I I #
face $-1 $97 $98 $34 $-1 $99 reversed single #
loop $-1 $-1 $100 $44 #
plane-surface $-1 -183.93650408257008 18.065509607042078 85.85397504001206 0 1 0 -0.81915205242281985 0 0.57357642473473569 forward_v I I I I #
face $-1 $101 $102 $35 $-1 $103 forward single #
loop $-1 $104 $105 $45 #
cone-surface $-1 -66.695631425003782 24.064896425913936 8.4820490093493603 0.81915205242281985 0 -0.57357642473473569 0.86036463710210354 0 1.2287280786342298 1 I I 0 1 1.5 forward I I I I #
face $-1 $106 $107 $36 $-1 $108 reversed single #
loop $-1 $-1 $109 $46 #
plane-surface $-1 120.75460809334194 32.627845149150616 195.44576854217698 0 -1 0 -0.86602541151947299 0 -0.49999998660252726 forward_v I I I I #
face $-1 $110 $111 $37 $-1 $112 forward single #
loop $-1 $113 $114 $47 #
cone-surface $-1 66.448480348982983 23.798987026747746 7.912205689798534 -0.86602541151947299 0 -0.49999998660252726 0.49999998660252726 0 -0.86602541151947299 1 I I 0 1 1 forward I I I I #
face $-1 $115 $116 $38 $-1 $117 forward single #
loop $-1 $118 $119 $48 #
cone-surface $-1 66.448480348982983 27.109808822648823 7.912205689798534 -0.86602541151947299 0 -0.49999998660252726 0.49999998660252726 0 -0.86602541151947299 1 I I 0 1 1 forward I I I I #
face $-1 $120 $121 $39 $-1 $122 forward single #
loop $-1 $123 $124 $49 #
cone-surface $-1 66.448480348982983 30.420630618549907 7.912205689798534 -0.86602541151947299 0 -0.49999998660252726 0.49999998660252726 0 -0.86602541151947299 1 I I 0 1 1 forward I I I I #
face $-1 $125 $126 $30 $-1 $127 reversed single #
loop $-1 $-1 $128 $50 #
plane-surface $-1 0 0 -12.212808912310939 0 0 1 1 0 0 forward_v I I I I #
coedge $-1 $129 $130 $131 $132 forward $51 $-1 #
face $-1 $133 $134 $31 $-1 $135 forward single #
loop $-1 $-1 $136 $53 #
plane-surface $-1 -65.269478766903717 -28.37196533299587 0 -1 0 0 0 0 1 forward_v I I I I #
coedge $-1 $137 $138 $139 $140 forward $54 $-1 #
face $-1 $141 $142 $32 $-1 $143 reversed single #
loop $-1 $-1 $144 $56 #
plane-surface $-1 -69.717703787347034 -10.93452602684787 5.8771124818883465 -0.81915205242281985 0 0.57357642473473569 0.57357642473473569 0 0.81915205242281985 forward_v I I I I #
coedge $-1 $145 $146 $147 $148 reversed $57 $-1 #
face $-1 $-1 $149 $33 $-1 $150 forward single #
loop $-1 $151 $152 $59 #
cone-surface $-1 -65.277346156590326 -10.93452602684787 7.4889550030480283 0.81915205242281985 0 -0.57357642473473569 0.43018231855105177 0 0.61436403931711492 1 I I -0.70710678118654757 0.70710678118654757 0.75 forward I I I I #
loop $-1 $-1 $153 $43 #
coedge $-1 $96 $96 $154 $155 reversed $60 $-1 #
face $-1 $156 $157 $34 $-1 $158 reversed single #
loop $-1 $-1 $159 $62 #
plane-surface $-1 -69.717703787347034 24.064896425913936 5.8771124818883465 -0.81915205242281985 0 0.57357642473473569 0.57357642473473569 0 0.81915205242281985 forward_v I I I I #
coedge $-1 $160 $161 $162 $163 reversed $63 $-1 #
face $-1 $-1 $164 $35 $-1 $165 forward single #
loop $-1 $166 $167 $65 #
cone-surface $-1 -65.277346156590326 24.064896425913936 7.4889550030480283 0.81915205242281985 0 -0.57357642473473569 0.43018231855105177 0 0.61436403931711492 1 I I -0.70710678118654757 0.70710678118654757 0.75 forward I I I I #
loop $-1 $-1 $168 $45 #
coedge $-1 $105 $105 $169 $170 reversed $66 $-1 #
face $-1 $171 $172 $36 $-1 $173 reversed single #
loop $-1 $-1 $174 $68 #
plane-surface $-1 1.8680820659255915e-006 27.109808822648816 125.72806662291201 0.86602541151947299 0 0.49999998660252726 0.49999998660252726 0 -0.86602541151947299 forward_v I I I I #
coedge $-1 $175 $176 $177 $178 reversed $69 $-1 #
face $-1 $-1 $179 $37 $-1 $180 forward single #
loop $-1 $181 $182 $71 #
cone-surface $-1 64.836064037044935 23.798987026747746 6.9812767313142761 -0.86602541151947299 0 -0.49999998660252726 0.24999999330126363 0 -0.43301270575973649 1 I I -0.70710678118654746 0.70710678118654746 0.5 forward I I I I #
loop $-1 $-1 $183 $47 #
coedge $-1 $114 $114 $184 $185 reversed $72 $-1 #
face $-1 $-1 $186 $38 $-1 $187 forward single #
loop $-1 $188 $189 $74 #
cone-surface $-1 64.836064037044935 27.109808822648823 6.9812767313142761 -0.86602541151947299 0 -0.49999998660252726 0.24999999330126363 0 -0.43301270575973649 1 I I -0.70710678118654746 0.70710678118654746 0.5 forward I I I I #
loop $-1 $-1 $190 $48 #
coedge $-1 $119 $119 $191 $192 reversed $75 $-1 #
face $-1 $-1 $193 $39 $-1 $194 forward single #
loop $-1 $195 $196 $77 #
cone-surface $-1 64.836064037044935 30.420630618549907 6.9812767313142761 -0.86602541151947299 0 -0.49999998660252726 0.24999999330126363 0 -0.43301270575973649 1 I I -0.70710678118654746 0.70710678118654746 0.5 forward I I I I #
loop $-1 $-1 $197 $49 #
coedge $-1 $124 $124 $198 $199 reversed $78 $-1 #
face $-1 $200 $201 $30 $-1 $202 reversed single #
loop $-1 $-1 $203 $80 #
plane-surface $-1 0 -34.937150532528904 0 0 1 0 0 0 1 forward_v I I I I #
coedge $-1 $204 $205 $206 $207 forward $81 $-1 #
coedge $-1 $208 $83 $209 $210 forward $51 $-1 #
coedge $-1 $83 $208 $211 $212 forward $51 $-1 #
coedge $-1 $213 $214 $83 $132 reversed $215 $-1 #
edge $-1 $216 -34.937150532528904 $217 34.937150532528904 $131 $218 forward 7 unknown #
face $-1 $219 $220 $31 $-1 $221 reversed single #
loop $-1 $-1 $222 $84 #
plane-surface $-1 0 0 12.212808912310939 0 0 1 1 0 0 forward_v I I I I #
coedge $-1 $223 $224 $225 $226 reversed $85 $-1 #
coedge $-1 $227 $87 $228 $229 reversed $54 $-1 #
coedge $-1 $87 $227 $230 $231 reversed $54 $-1 #
coedge $-1 $224 $223 $87 $140 reversed $85 $-1 #
edge $-1 $232 -12.212808912310939 $233 12.212808912310939 $139 $234 forward 7 unknown #
face $-1 $235 $236 $32 $-1 $237 reversed single #
loop $-1 $-1 $238 $88 #
plane-surface $-1 -183.93650408257008 -4.935139207976011 85.85397504001206 0 -1 0 0.81915205242281985 0 -0.57357642473473569 forward_v I I I I #
coedge $-1 $239 $240 $241 $242 reversed $89 $-1 #
coedge $-1 $146 $91 $243 $244 reversed $57 $-1 #
coedge $-1 $91 $145 $239 $245 reversed $57 $-1 #
coedge $-1 $241 $246 $91 $148 forward $247 $-1 #
edge $-1 $248 22.250548253938007 $249 26.686850520431818 $147 $250 forward 7 unknown #
loop $-1 $-1 $154 $92 #
plane-surface $-1 -69.717703787347034 -10.93452602684787 5.8771124818883465 -0.81915205242281985 0 0.57357642473473569 0.57357642473473569 0 0.81915205242281985 forward_v I I I I #
loop $-1 $-1 $251 $59 #
coedge $-1 $152 $152 $153 $252 reversed $93 $-1 #
coedge $-1 $153 $153 $152 $252 forward $95 $-1 #
coedge $-1 $154 $154 $96 $155 forward $149 $-1 #
edge $-1 $253 0 $253 6.2831853071796004 $154 $254 forward 7 unknown #
face $-1 $255 $256 $34 $-1 $257 forward single #
loop $-1 $-1 $258 $97 #
plane-surface $-1 -183.93650408257008 30.064283244785795 85.85397504001206 0 -1 0 0.81915205242281985 0 -0.57357642473473569 forward_v I I I I #
coedge $-1 $259 $260 $261 $262 reversed $98 $-1 #
coedge $-1 $161 $100 $263 $264 reversed $63 $-1 #
coedge $-1 $100 $160 $259 $265 reversed $63 $-1 #
coedge $-1 $261 $266 $100 $163 forward $256 $-1 #
edge $-1 $267 22.250548253938007 $268 26.686850520431818 $162 $269 forward 7 unknown #
loop $-1 $-1 $169 $101 #
plane-surface $-1 -69.717703787347034 24.064896425913936 5.8771124818883465 -0.81915205242281985 0 0.57357642473473569 0.57357642473473569 0 0.81915205242281985 forward_v I I I I #
loop $-1 $-1 $270 $65 #
coedge $-1 $167 $167 $168 $271 reversed $102 $-1 #
coedge $-1 $168 $168 $167 $271 forward $104 $-1 #
coedge $-1 $169 $169 $105 $170 forward $164 $-1 #
edge $-1 $272 0 $272 6.2831853071796004 $169 $273 forward 7 unknown #
face $-1 $274 $275 $36 $-1 $276 forward single #
loop $-1 $-1 $277 $106 #
plane-surface $-1 120.75460809334194 21.591772496147019 195.44576854217698 0 1 0 0.86602541151947299 0 0.49999998660252726 forward_v I I I I #
coedge $-1 $278 $279 $280 $281 reversed $107 $-1 #
coedge $-1 $176 $109 $282 $283 reversed $69 $-1 #
coedge $-1 $109 $175 $278 $284 reversed $69 $-1 #
coedge $-1 $280 $285 $109 $178 forward $275 $-1 #
edge $-1 $286 -9.3403997406760624 $287 -5.1607600763045838 $177 $288 forward 7 unknown #
loop $-1 $-1 $184 $110 #
plane-surface $-1 1.8680820659255915e-006 27.109808822648816 125.72806662291201 0.86602541151947299 0 0.49999998660252726 0.49999998660252726 0 -0.86602541151947299 forward_v I I I I #
loop $-1 $-1 $289 $71 #
coedge $-1 $182 $182 $183 $290 reversed $111 $-1 #
coedge $-1 $183 $183 $182 $290 forward $113 $-1 #
coedge $-1 $184 $184 $114 $185 forward $179 $-1 #
edge $-1 $291 0 $291 6.2831853071796004 $184 $292 forward 7 unknown #
loop $-1 $-1 $191 $115 #
plane-surface $-1 1.8680820659255915e-006 27.109808822648816 125.72806662291201 0.86602541151947299 0 0.49999998660252726 0.49999998660252726 0 -0.86602541151947299 forward_v I I I I #
loop $-1 $-1 $293 $74 #
coedge $-1 $189 $189 $190 $294 reversed $116 $-1 #
coedge $-1 $190 $190 $189 $294 forward $118 $-1 #
coedge $-1 $191 $191 $119 $192 forward $186 $-1 #
edge $-1 $295 0 $295 6.2831853071796004 $191 $296 forward 7 unknown #
loop $-1 $-1 $198 $120 #
plane-surface $-1 1.8680820659255915e-006 27.109808822648816 125.72806662291201 0.86602541151947299 0 0.49999998660252726 0.49999998660252726 0 -0.86602541151947299 forward_v I I I I #
loop $-1 $-1 $297 $77 #
coedge $-1 $196 $196 $197 $298 reversed $121 $-1 #
coedge $-1 $197 $197 $196 $298 forward $123 $-1 #
coedge $-1 $198 $198 $124 $199 forward $193 $-1 #
edge $-1 $299 0 $299 6.2831853071796004 $198 $300 forward 7 unknown #
face $-1 $301 $302 $30 $-1 $303 reversed single #
loop $-1 $-1 $304 $125 #
plane-surface $-1 -69.717703787347034 0 0 1 0 0 0 0 -1 forward_v I I I I #
coedge $-1 $305 $211 $306 $307 forward $126 $-1 #
coedge $-1 $308 $128 $305 $309 forward $81 $-1 #
coedge $-1 $128 $308 $310 $311 forward $81 $-1 #
coedge $-1 $214 $213 $128 $207 reversed $215 $-1 #
edge $-1 $312 -34.937150532528904 $313 34.937150532528904 $206 $314 forward 7 unknown #
coedge $-1 $130 $129 $315 $316 forward $51 $-1 #
coedge $-1 $317 $318 $129 $210 reversed $302 $-1 #
edge $-1 $217 -69.717703787347034 $319 69.717703787347034 $209 $320 forward 7 unknown #
coedge $-1 $203 $321 $130 $212 reversed $126 $-1 #
edge $-1 $322 -69.717703787347034 $216 69.717703787347034 $211 $323 forward 7 unknown #
coedge $-1 $206 $131 $321 $324 forward $215 $-1 #
coedge $-1 $131 $206 $317 $325 reversed $215 $-1 #
loop $-1 $-1 $213 $301 #
vertex $-1 $132 $326 #
vertex $-1 $132 $327 #
straight-curve $-1 69.717703787347034 0 12.212808912310939 0 1 0 I I #
face $-1 $328 $329 $31 $-1 $330 reversed single #
loop $-1 $-1 $331 $133 #
plane-surface $-1 -69.717703787347034 0 0 1 0 0 0 0 -1 forward_v I I I I #
coedge $-1 $230 $332 $224 $333 forward $134 $-1 #
coedge $-1 $139 $136 $334 $335 reversed $85 $-1 #
coedge $-1 $136 $139 $222 $333 reversed $85 $-1 #
coedge $-1 $336 $337 $136 $226 forward $338 $-1 #
edge $-1 $339 -12.212808912310939 $340 12.212808912310939 $225 $341 forward 7 unknown #
coedge $-1 $138 $137 $331 $342 reversed $54 $-1 #
coedge $-1 $334 $343 $137 $229 forward $329 $-1 #
edge $-1 $344 -35.970908148784346 $233 -31.522683128341029 $228 $345 forward 7 unknown #
coedge $-1 $346 $222 $138 $231 forward $134 $-1 #
edge $-1 $232 31.522683128341029 $347 35.970908148784346 $230 $348 forward 7 unknown #
vertex $-1 $231 $349 #
vertex $-1 $229 $350 #
straight-curve $-1 -65.269478766903717 -21.806780133462837 0 0 0 -1 I I #
face $-1 $-1 $247 $32 $-1 $351 forward single #
loop $-1 $-1 $352 $141 #
plane-surface $-1 -69.717703787347034 0 0 1 0 0 0 0 -1 forward_v I I I I #
coedge $-1 $353 $354 $355 $356 reversed $142 $-1 #
coedge $-1 $357 $144 $146 $245 forward $89 $-1 #
coedge $-1 $144 $357 $353 $358 forward $89 $-1 #
coedge $-1 $355 $147 $144 $242 forward $247 $-1 #
edge $-1 $249 -11.466649832295793 $359 0.53212380544792381 $241 $360 forward 7 unknown #
coedge $-1 $361 $362 $145 $244 forward $236 $-1 #
edge $-1 $363 -37.049875038117683 $248 -30.714178607695089 $243 $364 forward 7 unknown #
edge $-1 $249 -7.7344571275667251 $363 0 $146 $365 forward 7 unknown #
coedge $-1 $147 $355 $361 $366 forward $247 $-1 #
loop $-1 $-1 $355 $235 #
vertex $-1 $244 $367 #
vertex $-1 $148 $368 #
straight-curve $-1 -91.968252041285041 -16.933912845719728 12.21280891231094 1 0 0 I I #
coedge $-1 $251 $251 $-1 $369 reversed $151 $-1 #
edge $-1 $370 0 $370 6.2831853071796004 $152 $371 forward 7 unknown #
vertex $-1 $155 $372 #
ellipse-curve $-1 -67.499552654100128 -10.93452602684787 9.0449606970996417 -0.81915205242281985 0 0.57357642473473569 0.86036463710210354 0 1.2287280786342298 1 I I #
face $-1 $-1 $373 $34 $-1 $374 reversed single #
loop $-1 $-1 $162 $156 #
plane-surface $-1 0 0 12.212808912310939 0 0 1 1 0 0 forward_v I I I I #
coedge $-1 $375 $376 $377 $378 reversed $157 $-1 #
coedge $-1 $379 $159 $161 $265 forward $98 $-1 #
coedge $-1 $159 $379 $375 $380 forward $98 $-1 #
coedge $-1 $377 $162 $159 $262 forward $256 $-1 #
edge $-1 $268 6.0330613940851094 $381 18.031835031828827 $261 $382 forward 7 unknown #
coedge $-1 $383 $384 $160 $264 forward $373 $-1 #
edge $-1 $385 -37.049875038117683 $267 -30.714178607695089 $263 $386 forward 7 unknown #
edge $-1 $268 -7.7344571275667251 $385 0 $161 $387 forward 7 unknown #
coedge $-1 $162 $377 $383 $388 forward $256 $-1 #
vertex $-1 $264 $389 #
vertex $-1 $163 $390 #
straight-curve $-1 -91.968252041285041 18.065509607042078 12.21280891231094 1 0 0 I I #
coedge $-1 $270 $270 $-1 $391 reversed $166 $-1 #
edge $-1 $392 0 $392 6.2831853071796004 $167 $393 forward 7 unknown #
vertex $-1 $170 $394 #
ellipse-curve $-1 -67.499552654100128 24.064896425913936 9.0449606970996417 -0.81915205242281985 0 0.57357642473473569 0.86036463710210354 0 1.2287280786342298 1 I I #
face $-1 $-1 $395 $36 $-1 $396 reversed single #
loop $-1 $-1 $177 $171 #
plane-surface $-1 0 0 12.212808912310939 0 0 1 1 0 0 forward_v I I I I #
coedge $-1 $397 $398 $399 $400 reversed $172 $-1 #
coedge $-1 $401 $174 $176 $284 forward $107 $-1 #
coedge $-1 $174 $401 $397 $402 forward $107 $-1 #
coedge $-1 $399 $177 $174 $281 forward $275 $-1 #
edge $-1 $287 -19.072940737826208 $403 -8.0368680848226113 $280 $404 forward 7 unknown #
coedge $-1 $405 $406 $175 $283 forward $395 $-1 #
edge $-1 $407 -92.749423873436356 $286 -85.510075358777556 $282 $408 forward 7 unknown #
edge $-1 $287 131.07612802196468 $407 139.43540757469407 $176 $409 forward 7 unknown #
coedge $-1 $177 $399 $405 $410 forward $275 $-1 #
vertex $-1 $178 $411 #
vertex $-1 $178 $412 #
straight-curve $-1 60.377304046670972 32.627845149150616 12.212808912310933 -1 0 0 I I #
coedge $-1 $289 $289 $-1 $413 reversed $181 $-1 #
edge $-1 $414 0 $414 6.2831853071796004 $182 $415 forward 7 unknown #
vertex $-1 $185 $416 #
ellipse-curve $-1 67.627883955161295 23.798987026747746 8.5931346549815224 0.86602541151947299 0 0.49999998660252726 0.49999998660252726 0 -0.86602541151947299 1 I I #
coedge $-1 $293 $293 $-1 $417 reversed $188 $-1 #
edge $-1 $418 0 $418 6.2831853071796004 $189 $419 forward 7 unknown #
vertex $-1 $192 $420 #
ellipse-curve $-1 67.627883955161295 27.109808822648823 8.5931346549815224 0.86602541151947299 0 0.49999998660252726 0.49999998660252726 0 -0.86602541151947299 1 I I #
coedge $-1 $297 $297 $-1 $421 reversed $195 $-1 #
edge $-1 $422 0 $422 6.2831853071796004 $196 $423 forward 7 unknown #
vertex $-1 $199 $424 #
ellipse-curve $-1 67.627883955161295 30.420630618549907 8.5931346549815224 0.86602541151947299 0 0.49999998660252726 0.49999998660252726 0 -0.86602541151947299 1 I I #
face $-1 $-1 $215 $30 $-1 $425 reversed single #
loop $-1 $-1 $317 $200 #
plane-surface $-1 0 34.937150532528904 0 0 -1 0 0 0 -1 forward_v I I I I #
coedge $-1 $426 $315 $318 $427 forward $201 $-1 #
coedge $-1 $321 $203 $204 $309 reversed $126 $-1 #
coedge $-1 $315 $426 $203 $307 reversed $201 $-1 #
edge $-1 $322 -12.212808912310939 $428 12.212808912310939 $306 $429 forward 7 unknown #
coedge $-1 $205 $204 $426 $430 forward $81 $-1 #
edge $-1 $313 -69.717703787347034 $428 69.717703787347034 $305 $431 forward 7 unknown #
coedge $-1 $318 $317 $205 $311 reversed $302 $-1 #
edge $-1 $432 -69.717703787347034 $312 69.717703787347034 $310 $433 forward 7 unknown #
vertex $-1 $207 $434 #
vertex $-1 $324 $435 #
straight-curve $-1 69.717703787347034 0 -12.212808912310939 0 -1 0 I I #
coedge $-1 $304 $306 $208 $316 reversed $201 $-1 #
edge $-1 $319 -34.937150532528904 $322 34.937150532528904 $315 $436 forward 7 unknown #
coedge $-1 $310 $209 $214 $325 forward $302 $-1 #
coedge $-1 $209 $310 $304 $427 reversed $302 $-1 #
vertex $-1 $210 $437 #
straight-curve $-1 0 34.937150532528904 12.212808912310939 -1 0 0 I I #
coedge $-1 $211 $305 $213 $324 reversed $126 $-1 #
vertex $-1 $316 $438 #
straight-curve $-1 0 -34.937150532528904 12.212808912310939 1 0 0 I I #
edge $-1 $216 -12.212808912310939 $313 12.212808912310939 $213 $439 forward 7 unknown #
edge $-1 $217 -12.212808912310939 $312 12.212808912310939 $214 $440 forward 7 unknown #
point $-1 69.717703787347034 -34.937150532528904 12.212808912310939 #
point $-1 69.717703787347034 34.937150532528904 12.212808912310939 #
face $-1 $-1 $338 $31 $-1 $441 reversed single #
loop $-1 $-1 $334 $219 #
plane-surface $-1 0 0 -12.212808912310939 0 0 1 1 0 0 forward_v I I I I #
coedge $-1 $442 $443 $227 $342 forward $220 $-1 #
coedge $-1 $222 $346 $336 $444 forward $134 $-1 #
edge $-1 $340 -20.751167866030968 $232 -7.6207974669649019 $222 $445 forward 7 unknown #
coedge $-1 $446 $228 $223 $335 forward $329 $-1 #
edge $-1 $233 7.6207974669649019 $339 20.751167866030968 $334 $447 forward 7 unknown #
coedge $-1 $448 $225 $332 $444 reversed $338 $-1 #
coedge $-1 $225 $448 $446 $449 reversed $338 $-1 #
loop $-1 $-1 $225 $328 #
vertex $-1 $449 $450 #
vertex $-1 $226 $451 #
straight-curve $-1 -65.269478766903717 -34.937150532528904 0 0 0 1 I I #
edge $-1 $347 -12.212808912310939 $344 12.212808912310939 $331 $452 forward 7 unknown #
coedge $-1 $228 $446 $442 $453 forward $329 $-1 #
vertex $-1 $229 $454 #
straight-curve $-1 -33.746795638562688 -21.806780133462837 -12.212808912310939 1 0 0 I I #
coedge $-1 $332 $230 $443 $455 forward $134 $-1 #
vertex $-1 $455 $456 #
straight-curve $-1 -33.746795638562688 -21.806780133462837 12.212808912310939 -1 0 0 I I #
point $-1 -65.269478766903717 -21.806780133462837 12.212808912310939 #
point $-1 -65.269478766903717 -21.806780133462837 -12.212808912310939 #
plane-surface $-1 0 0 12.212808912310939 0 0 1 1 0 0 forward_v I I I I #
coedge $-1 $362 $361 $354 $457 forward $236 $-1 #
coedge $-1 $354 $238 $240 $358 reversed $142 $-1 #
coedge $-1 $238 $353 $352 $457 reversed $142 $-1 #
coedge $-1 $246 $241 $238 $356 forward $247 $-1 #
edge $-1 $359 -26.686850520431818 $458 -22.250548253938007 $355 $459 forward 7 unknown #
coedge $-1 $240 $239 $362 $460 reversed $89 $-1 #
edge $-1 $461 0 $359 7.7344571275667251 $353 $462 forward 7 unknown #
vertex $-1 $242 $463 #
straight-curve $-1 -65.281401520853223 -5.4672630134239348 12.21280891231094 0 1 0 I I #
coedge $-1 $352 $243 $246 $366 reversed $236 $-1 #
coedge $-1 $243 $352 $357 $460 forward $236 $-1 #
vertex $-1 $244 $464 #
straight-curve $-1 -69.717703787347034 -16.933912845719728 42.92698752000603 0 0 1 I I #
straight-curve $-1 -69.717703787347034 -16.933912845719728 5.8771124818883465 -0.57357642473473569 0 -0.81915205242281985 I I #
edge $-1 $458 4.935139207976011 $248 16.933912845719728 $361 $465 forward 7 unknown #
point $-1 -69.717703787347034 -16.933912845719728 12.212808912310939 #
point $-1 -65.281401520853223 -16.933912845719728 12.212808912310939 #
edge $-1 $466 1 $466 0 $251 $-1 forward 7 unknown #
vertex $-1 $252 $467 #
ellipse-curve $-1 -65.891710195907436 -10.93452602684787 7.9191373215990799 -0.81915205242281985 0 0.57357642473473569 0.86036463710210354 0 1.2287280786342298 1 I I #
point $-1 -66.639188016998034 -10.93452602684787 10.273688775733872 #
loop $-1 $-1 $263 $255 #
plane-surface $-1 -69.717703787347034 0 0 1 0 0 0 0 -1 forward_v I I I I #
coedge $-1 $376 $258 $260 $380 reversed $157 $-1 #
coedge $-1 $258 $375 $468 $469 reversed $157 $-1 #
coedge $-1 $266 $261 $258 $378 forward $256 $-1 #
edge $-1 $381 -26.686850520431818 $470 -22.250548253938007 $377 $471 forward 7 unknown #
coedge $-1 $260 $259 $384 $472 reversed $98 $-1 #
edge $-1 $473 0 $381 7.7344571275667251 $375 $474 forward 7 unknown #
vertex $-1 $262 $475 #
straight-curve $-1 -65.281401520853223 12.032448212956968 12.21280891231094 0 1 0 I I #
coedge $-1 $468 $263 $266 $388 reversed $373 $-1 #
coedge $-1 $263 $468 $379 $472 forward $373 $-1 #
vertex $-1 $264 $476 #
straight-curve $-1 -69.717703787347034 18.065509607042078 42.92698752000603 0 0 1 I I #
straight-curve $-1 -69.717703787347034 18.065509607042078 5.8771124818883465 -0.57357642473473569 0 -0.81915205242281985 I I #
edge $-1 $470 -30.064283244785795 $267 -18.065509607042078 $383 $477 forward 7 unknown #
point $-1 -69.717703787347034 18.065509607042078 12.212808912310939 #
point $-1 -65.281401520853223 18.065509607042078 12.212808912310939 #
edge $-1 $478 1 $478 0 $270 $-1 forward 7 unknown #
vertex $-1 $271 $479 #
ellipse-curve $-1 -65.891710195907436 24.064896425913936 7.9191373215990799 -0.81915205242281985 0 0.57357642473473569 0.86036463710210354 0 1.2287280786342298 1 I I #
point $-1 -66.639188016998034 24.064896425913936 10.273688775733872 #
loop $-1 $-1 $282 $274 #
plane-surface $-1 69.717703787347034 0 0 -1 0 0 0 0 1 forward_v I I I I #
coedge $-1 $398 $277 $279 $402 reversed $172 $-1 #
coedge $-1 $277 $397 $480 $481 reversed $172 $-1 #
coedge $-1 $285 $280 $277 $400 forward $275 $-1 #
edge $-1 $403 5.1607600763045838 $482 9.3403997406760624 $399 $483 forward 7 unknown #
coedge $-1 $279 $278 $406 $484 reversed $107 $-1 #
edge $-1 $485 -139.43540757469407 $403 -131.07612802196468 $397 $486 forward 7 unknown #
vertex $-1 $281 $487 #
straight-curve $-1 65.538064122975555 13.554904411324408 12.212808912310933 0 -1 0 I I #
coedge $-1 $480 $282 $285 $410 reversed $395 $-1 #
coedge $-1 $282 $480 $401 $484 forward $395 $-1 #
vertex $-1 $283 $488 #
straight-curve $-1 69.717703787347034 32.627845149150616 97.722884271088489 0 0 1 I I #
straight-curve $-1 1.8680820659255915e-006 32.627845149150616 125.72806662291201 0.49999998660252726 0 -0.86602541151947299 I I #
edge $-1 $482 21.591772496147019 $286 32.627845149150616 $405 $489 forward 7 unknown #
point $-1 69.717703787347034 32.627845149150616 12.212808912310939 #
point $-1 65.538064122975555 32.627845149150616 12.212808912310919 #
edge $-1 $490 1 $490 0 $289 $-1 forward 7 unknown #
vertex $-1 $290 $491 #
ellipse-curve $-1 65.269076742804671 23.798987026747746 7.2312767246155394 0.86602541151947299 0 0.49999998660252726 0.49999998660252726 0 -0.86602541151947299 1 I I #
point $-1 68.127883941763841 23.798987026747746 7.7271092434620563 #
edge $-1 $492 1 $492 0 $293 $-1 forward 7 unknown #
vertex $-1 $294 $493 #
ellipse-curve $-1 65.269076742804671 27.109808822648823 7.2312767246155394 0.86602541151947299 0 0.49999998660252726 0.49999998660252726 0 -0.86602541151947299 1 I I #
point $-1 68.127883941763841 27.109808822648823 7.7271092434620563 #
edge $-1 $494 1 $494 0 $297 $-1 forward 7 unknown #
vertex $-1 $298 $495 #
ellipse-curve $-1 65.269076742804671 30.420630618549907 7.2312767246155394 0.86602541151947299 0 0.49999998660252726 0.49999998660252726 0 -0.86602541151947299 1 I I #
point $-1 68.127883941763841 30.420630618549907 7.7271092434620563 #
plane-surface $-1 69.717703787347034 0 0 -1 0 0 0 0 1 forward_v I I I I #
coedge $-1 $306 $304 $308 $430 reversed $201 $-1 #
edge $-1 $319 -12.212808912310939 $432 12.212808912310939 $318 $496 forward 7 unknown #
vertex $-1 $430 $497 #
straight-curve $-1 -69.717703787347034 -34.937150532528904 0 0 0 -1 I I #
edge $-1 $428 -34.937150532528904 $432 34.937150532528904 $426 $498 forward 7 unknown #
straight-curve $-1 0 -34.937150532528904 -12.212808912310939 -1 0 0 I I #
vertex $-1 $311 $499 #
straight-curve $-1 0 34.937150532528904 -12.212808912310939 1 0 0 I I #
point $-1 69.717703787347034 34.937150532528904 -12.212808912310939 #
point $-1 69.717703787347034 -34.937150532528904 -12.212808912310939 #
straight-curve $-1 -69.717703787347034 0 12.212808912310939 0 -1 0 I I #
point $-1 -69.717703787347034 34.937150532528904 12.212808912310939 #
point $-1 -69.717703787347034 -34.937150532528904 12.212808912310939 #
straight-curve $-1 69.717703787347034 -34.937150532528904 0 0 0 -1 I I #
straight-curve $-1 69.717703787347034 34.937150532528904 0 0 0 -1 I I #
plane-surface $-1 0 -34.937150532528904 0 0 1 0 0 0 1 forward_v I I I I #
coedge $-1 $500 $331 $343 $453 reversed $220 $-1 #
coedge $-1 $331 $500 $346 $455 reversed $220 $-1 #
edge $-1 $501 -69.717703787347034 $340 -65.269478766903717 $336 $502 forward 7 unknown #
straight-curve $-1 -65.269478766903717 -14.185982666497935 12.212808912310939 0 1 0 I I #
coedge $-1 $343 $334 $337 $449 forward $329 $-1 #
straight-curve $-1 -65.269478766903717 -14.185982666497935 -12.212808912310939 0 -1 0 I I #
coedge $-1 $337 $336 $500 $503 forward $338 $-1 #
edge $-1 $339 65.269478766903717 $504 69.717703787347034 $337 $505 forward 7 unknown #
point $-1 -65.269478766903717 -34.937150532528904 -12.212808912310939 #
point $-1 -65.269478766903717 -34.937150532528904 12.212808912310939 #
straight-curve $-1 -69.717703787347034 -21.806780133462837 0 0 0 -1 I I #
edge $-1 $504 -34.937150532528904 $344 -21.806780133462837 $442 $506 forward 7 unknown #
point $-1 -69.717703787347034 -21.806780133462837 -12.212808912310939 #
edge $-1 $347 21.806780133462837 $501 34.937150532528904 $443 $507 forward 7 unknown #
point $-1 -69.717703787347034 -21.806780133462837 12.212808912310939 #
edge $-1 $458 30.714178607695089 $461 37.049875038117683 $352 $508 forward 7 unknown #
vertex $-1 $366 $509 #
straight-curve $-1 -91.968252041285041 -4.935139207976011 12.21280891231094 -1 0 0 I I #
edge $-1 $461 -0.53212380544792381 $363 11.466649832295793 $362 $510 forward 7 unknown #
vertex $-1 $460 $511 #
straight-curve $-1 -69.717703787347034 -4.935139207976011 5.8771124818883465 0.57357642473473569 0 0.81915205242281985 I I #
point $-1 -65.281401520853223 -4.935139207976011 12.212808912310939 #
point $-1 -69.717703787347034 -16.933912845719728 5.8771124818883465 #
straight-curve $-1 -69.717703787347034 0 12.212808912310939 0 -1 0 I I #
vertex $-1 $369 $512 #
point $-1 -65.031345558805342 -10.93452602684787 9.1478654002333109 #
coedge $-1 $384 $383 $376 $469 forward $373 $-1 #
edge $-1 $470 30.714178607695089 $473 37.049875038117683 $468 $513 forward 7 unknown #
vertex $-1 $388 $514 #
straight-curve $-1 -91.968252041285041 30.064283244785795 12.21280891231094 -1 0 0 I I #
edge $-1 $473 -18.031835031828827 $385 -6.0330613940851094 $384 $515 forward 7 unknown #
vertex $-1 $472 $516 #
straight-curve $-1 -69.717703787347034 30.064283244785795 5.8771124818883465 0.57357642473473569 0 0.81915205242281985 I I #
point $-1 -65.281401520853223 30.064283244785795 12.212808912310939 #
point $-1 -69.717703787347034 18.065509607042078 5.8771124818883465 #
straight-curve $-1 -69.717703787347034 0 12.212808912310939 0 -1 0 I I #
vertex $-1 $391 $517 #
point $-1 -65.031345558805342 24.064896425913936 9.1478654002333109 #
coedge $-1 $406 $405 $398 $481 forward $395 $-1 #
edge $-1 $482 85.510075358777556 $485 92.749423873436356 $480 $518 forward 7 unknown #
vertex $-1 $410 $519 #
straight-curve $-1 60.377304046670972 21.591772496147019 12.212808912310933 1 0 0 I I #
edge $-1 $485 8.0368680848226113 $407 19.072940737826208 $406 $520 forward 7 unknown #
vertex $-1 $484 $521 #
straight-curve $-1 1.8680820659255915e-006 21.591772496147019 125.72806662291201 -0.49999998660252726 0 0.86602541151947299 I I #
point $-1 65.538064122975555 21.591772496147019 12.212808912310919 #
point $-1 69.717703787347034 32.627845149150616 4.9734603976521328 #
straight-curve $-1 69.717703787347034 0 12.212808912310939 0 1 0 I I #
vertex $-1 $413 $522 #
point $-1 65.769076729407203 23.798987026747746 6.3652513130960671 #
vertex $-1 $417 $523 #
point $-1 65.769076729407203 27.109808822648823 6.3652513130960671 #
vertex $-1 $421 $524 #
point $-1 65.769076729407203 30.420630618549907 6.3652513130960671 #
straight-curve $-1 -69.717703787347034 34.937150532528904 0 0 0 -1 I I #
point $-1 -69.717703787347034 -34.937150532528904 -12.212808912310939 #
straight-curve $-1 -69.717703787347034 0 -12.212808912310939 0 1 0 I I #
point $-1 -69.717703787347034 34.937150532528904 -12.212808912310939 #
coedge $-1 $443 $442 $448 $503 reversed $220 $-1 #
vertex $-1 $455 $525 #
straight-curve $-1 0 -34.937150532528904 12.212808912310939 1 0 0 I I #
edge $-1 $501 -12.212808912310939 $504 12.212808912310939 $500 $526 forward 7 unknown #
vertex $-1 $453 $527 #
straight-curve $-1 0 -34.937150532528904 -12.212808912310939 -1 0 0 I I #
straight-curve $-1 -69.717703787347034 0 -12.212808912310939 0 1 0 I I #
straight-curve $-1 -69.717703787347034 0 12.212808912310939 0 -1 0 I I #
straight-curve $-1 -69.717703787347034 -4.935139207976011 42.92698752000603 0 0 -1 I I #
point $-1 -69.717703787347034 -4.935139207976011 12.212808912310939 #
straight-curve $-1 -69.717703787347034 -5.4672630134239348 5.8771124818883473 0 -1 0 I I #
point $-1 -69.717703787347034 -4.935139207976011 5.8771124818883465 #
point $-1 -64.662982117273216 -10.93452602684787 7.0587726844969767 #
straight-curve $-1 -69.717703787347034 30.064283244785795 42.92698752000603 0 0 -1 I I #
point $-1 -69.717703787347034 30.064283244785795 12.212808912310939 #
straight-curve $-1 -69.717703787347034 12.032448212956968 5.8771124818883473 0 -1 0 I I #
point $-1 -69.717703787347034 30.064283244785795 5.8771124818883465 #
point $-1 -64.662982117273216 24.064896425913936 7.0587726844969767 #
straight-curve $-1 69.717703787347034 21.591772496147019 97.722884271088489 0 0 -1 I I #
point $-1 69.717703787347034 21.591772496147019 12.212808912310939 #
straight-curve $-1 69.717703787347034 13.554904411324408 4.9734603976521257 0 1 0 I I #
point $-1 69.717703787347034 21.591772496147019 4.9734603976521328 #
point $-1 64.403051331285198 23.798987026747746 6.7312767380130127 #
point $-1 64.403051331285198 27.109808822648823 6.7312767380130127 #
point $-1 64.403051331285198 30.420630618549907 6.7312767380130127 #
point $-1 -69.717703787347034 -34.937150532528904 12.212808912310939 #
straight-curve $-1 -69.717703787347034 -34.937150532528904 0 0 0 -1 I I #
point $-1 -69.717703787347034 -34.937150532528904 -12.212808912310939 #
End-of-ACIS-data 