500 0 15 0           
7 Unknown 11 ACIS 5.0 NT 24 Fri Mar 26 18:00:34 1999 
-1 9.9999999999999995e-007 1e-010 
body $-1 $15 $-1 $16 #
body $-1 $17 $-1 $18 #
body $-1 $19 $-1 $20 #
body $-1 $21 $-1 $22 #
body $-1 $23 $-1 $24 #
body $-1 $25 $-1 $26 #
body $-1 $27 $-1 $28 #
body $-1 $29 $-1 $30 #
body $-1 $31 $-1 $32 #
body $-1 $33 $-1 $34 #
body $-1 $35 $-1 $36 #
body $-1 $37 $-1 $38 #
body $-1 $39 $-1 $40 #
body $-1 $41 $-1 $42 #
body $-1 $43 $-1 $44 #
lump $-1 $-1 $45 $0 #
transform $-1 1 0 0 0 1 0 0 0 1 55.255592516861476 35.285367766932211 14.97552488553716 1 rotate no_reflect no_shear #
lump $-1 $-1 $46 $1 #
transform $-1 1 0 0 0 1 0 0 0 1 -5.4539575548741812 35.285367766932211 13.252461714768003 1 rotate no_reflect no_shear #
lump $-1 $-1 $47 $2 #
transform $-1 1 0 0 0 1 0 0 0 1 105.2766707685546 35.285367766932211 6.0493237402280737 1 rotate no_reflect no_shear #
lump $-1 $-1 $48 $3 #
transform $-1 1 0 0 0 0.84804809178421925 -0.52991927123019833 0 0.52991927123019833 0.84804809178421925 48.084948413943749 69.285364564417975 152.80928178789583 1 rotate no_reflect no_shear #
lump $-1 $-1 $49 $4 #
transform $-1 1 0 0 0 -0.84804809178421925 0.52991927123019833 0 -0.52991927123019833 -0.84804809178421925 48.084948413943749 59.228736929483063 18.245218952671152 1 rotate no_reflect no_shear #
lump $-1 $-1 $50 $5 #
transform $-1 1 0 0 0 0.84804809178421925 -0.52991927123019833 0 0.52991927123019833 0.84804809178421925 62.865123199190862 69.285364564417975 152.80928178789583 1 rotate no_reflect no_shear #
lump $-1 $-1 $51 $6 #
transform $-1 1 0 0 0 -0.84804809178421925 0.52991927123019833 0 -0.52991927123019833 -0.84804809178421925 62.865123199190862 59.228736929483063 18.245218952671152 1 rotate no_reflect no_shear #
lump $-1 $-1 $52 $7 #
transform $-1 1 0 0 0 0.84804809178421925 0.52991927123019833 0 -0.52991927123019833 0.84804809178421925 19.991762547653714 -58.562006635856065 115.45451868812673 1 rotate no_reflect no_shear #
lump $-1 $-1 $53 $8 #
transform $-1 1 0 0 0 -0.84804809178421925 -0.52991927123019833 0 0.52991927123019833 -0.84804809178421925 14.541454084910503 9.5502680498985058 21.079781553788248 1 rotate no_reflect no_shear #
lump $-1 $-1 $54 $9 #
transform $-1 1 0 0 0 -0.84804809178421925 -0.52991927123019833 0 0.52991927123019833 -0.84804809178421925 19.991762547653714 9.5502680498985058 21.079781553788248 1 rotate no_reflect no_shear #
lump $-1 $-1 $55 $10 #
transform $-1 1 0 0 0 -0.84804809178421925 -0.52991927123019833 0 0.52991927123019833 -0.84804809178421925 25.442071010396923 9.5502680498985058 21.079781553788248 1 rotate no_reflect no_shear #
lump $-1 $-1 $56 $11 #
transform $-1 1 0 0 0 0.84804809178421925 0.52991927123019833 0 -0.52991927123019833 0.84804809178421925 90.958309065480876 -58.562006635856065 115.45451868812673 1 rotate no_reflect no_shear #
lump $-1 $-1 $57 $12 #
transform $-1 1 0 0 0 -0.84804809178421925 -0.52991927123019833 0 0.52991927123019833 -0.84804809178421925 85.508000602737667 9.5502680498985058 21.079781553788248 1 rotate no_reflect no_shear #
lump $-1 $-1 $58 $13 #
transform $-1 1 0 0 0 -0.84804809178421925 -0.52991927123019833 0 0.52991927123019833 -0.84804809178421925 90.958309065480876 9.5502680498985058 21.079781553788248 1 rotate no_reflect no_shear #
lump $-1 $-1 $59 $14 #
transform $-1 1 0 0 0 -0.84804809178421925 -0.52991927123019833 0 0.52991927123019833 -0.84804809178421925 96.408617528224084 9.5502680498985058 21.079781553788248 1 rotate no_reflect no_shear #
shell $-1 $-1 $-1 $60 $-1 $15 #
shell $-1 $-1 $-1 $61 $-1 $17 #
shell $-1 $-1 $-1 $62 $-1 $19 #
shell $-1 $-1 $-1 $63 $-1 $21 #
shell $-1 $-1 $-1 $64 $-1 $23 #
shell $-1 $-1 $-1 $65 $-1 $25 #
shell $-1 $-1 $-1 $66 $-1 $27 #
shell $-1 $-1 $-1 $67 $-1 $29 #
shell $-1 $-1 $-1 $68 $-1 $31 #
shell $-1 $-1 $-1 $69 $-1 $33 #
shell $-1 $-1 $-1 $70 $-1 $35 #
shell $-1 $-1 $-1 $71 $-1 $37 #
shell $-1 $-1 $-1 $72 $-1 $39 #
shell $-1 $-1 $-1 $73 $-1 $41 #
shell $-1 $-1 $-1 $74 $-1 $43 #
face $-1 $75 $76 $45 $-1 $77 forward single #
face $-1 $78 $79 $46 $-1 $80 forward single #
face $-1 $81 $82 $47 $-1 $83 forward single #
face $-1 $84 $85 $48 $-1 $86 forward single #
face $-1 $87 $88 $49 $-1 $89 forward single #
face $-1 $90 $91 $50 $-1 $92 forward single #
face $-1 $93 $94 $51 $-1 $95 forward single #
face $-1 $96 $97 $52 $-1 $98 forward single #
face $-1 $99 $100 $53 $-1 $101 forward single #
face $-1 $102 $103 $54 $-1 $104 forward single #
face $-1 $105 $106 $55 $-1 $107 forward single #
face $-1 $108 $109 $56 $-1 $110 forward single #
face $-1 $111 $112 $57 $-1 $113 forward single #
face $-1 $114 $115 $58 $-1 $116 forward single #
face $-1 $117 $118 $59 $-1 $119 forward single #
face $-1 $120 $121 $45 $-1 $122 reversed single #
loop $-1 $-1 $123 $60 #
plane-surface $-1 0 0 14.97552488553716 0 0 1 1 0 0 forward_v I I I I #
face $-1 $124 $125 $46 $-1 $126 reversed single #
loop $-1 $-1 $127 $61 #
plane-surface $-1 0 0 2.7996329475183872 0 0 1 1 0 0 forward_v I I I I #
face $-1 $128 $129 $47 $-1 $130 reversed single #
loop $-1 $-1 $131 $62 #
plane-surface $-1 0 0 2.4553060195492815 0 0 1 1 0 0 forward_v I I I I #
face $-1 $132 $133 $48 $-1 $134 reversed single #
loop $-1 $-1 $135 $63 #
plane-surface $-1 0 0 110.51118503372295 0 0 1 1 0 0 forward_v I I I I #
face $-1 $136 $137 $49 $-1 $138 forward single #
loop $-1 $139 $140 $64 #
cone-surface $-1 0 0 -4.9674062318796341 0 0 1 2 0 0 1 I I 0 1 2 forward I I I I #
face $-1 $141 $142 $50 $-1 $143 reversed single #
loop $-1 $-1 $144 $65 #
plane-surface $-1 0 0 110.51118503372295 0 0 1 1 0 0 forward_v I I I I #
face $-1 $145 $146 $51 $-1 $147 forward single #
loop $-1 $148 $149 $66 #
cone-surface $-1 0 0 -4.9674062318796341 0 0 1 2 0 0 1 I I 0 1 2 forward I I I I #
face $-1 $150 $151 $52 $-1 $152 reversed single #
loop $-1 $-1 $153 $67 #
plane-surface $-1 0 0 110.51118503372295 0 0 1 1 0 0 forward_v I I I I #
face $-1 $154 $155 $53 $-1 $156 forward single #
loop $-1 $157 $158 $68 #
cone-surface $-1 0 0 -3.1835688344981214 0 0 1 1.5 0 0 1 I I 0 1 1.5 forward I I I I #
face $-1 $159 $160 $54 $-1 $161 forward single #
loop $-1 $162 $163 $69 #
cone-surface $-1 0 0 -3.1835688344981214 0 0 1 1.5 0 0 1 I I 0 1 1.5 forward I I I I #
face $-1 $164 $165 $55 $-1 $166 forward single #
loop $-1 $167 $168 $70 #
cone-surface $-1 0 0 -3.1835688344981214 0 0 1 1.5 0 0 1 I I 0 1 1.5 forward I I I I #
face $-1 $169 $170 $56 $-1 $171 reversed single #
loop $-1 $-1 $172 $71 #
plane-surface $-1 0 0 110.51118503372295 0 0 1 1 0 0 forward_v I I I I #
face $-1 $173 $174 $57 $-1 $175 forward single #
loop $-1 $176 $177 $72 #
cone-surface $-1 0 0 -3.1835688344981214 0 0 1 1.5 0 0 1 I I 0 1 1.5 forward I I I I #
face $-1 $178 $179 $58 $-1 $180 forward single #
loop $-1 $181 $182 $73 #
cone-surface $-1 0 0 -3.1835688344981214 0 0 1 1.5 0 0 1 I I 0 1 1.5 forward I I I I #
face $-1 $183 $184 $59 $-1 $185 forward single #
loop $-1 $186 $187 $74 #
cone-surface $-1 0 0 -3.1835688344981214 0 0 1 1.5 0 0 1 I I 0 1 1.5 forward I I I I #
face $-1 $188 $189 $45 $-1 $190 reversed single #
loop $-1 $-1 $191 $75 #
plane-surface $-1 0 0 -14.97552488553716 0 0 1 1 0 0 forward_v I I I I #
coedge $-1 $192 $193 $194 $195 forward $76 $-1 #
face $-1 $196 $197 $46 $-1 $198 reversed single #
loop $-1 $-1 $199 $78 #
plane-surface $-1 0 0 -2.7996329475183872 0 0 1 1 0 0 forward_v I I I I #
coedge $-1 $200 $201 $202 $203 forward $79 $-1 #
face $-1 $204 $205 $47 $-1 $206 reversed single #
loop $-1 $-1 $207 $81 #
plane-surface $-1 0 0 -2.4553060195492815 0 0 1 1 0 0 forward_v I I I I #
coedge $-1 $208 $209 $210 $211 forward $82 $-1 #
face $-1 $212 $213 $48 $-1 $214 reversed single #
loop $-1 $-1 $215 $84 #
plane-surface $-1 0 0 -110.51118503372295 0 0 1 1 0 0 forward_v I I I I #
coedge $-1 $216 $217 $218 $219 forward $85 $-1 #
face $-1 $-1 $220 $49 $-1 $221 forward single #
loop $-1 $-1 $222 $87 #
plane-surface $-1 0 0 -8.9348124637592683 0 0 -1 -1 0 0 forward_v I I I I #
loop $-1 $-1 $223 $64 #
coedge $-1 $140 $140 $222 $224 reversed $88 $-1 #
face $-1 $225 $226 $50 $-1 $227 reversed single #
loop $-1 $-1 $228 $90 #
plane-surface $-1 0 0 -110.51118503372295 0 0 1 1 0 0 forward_v I I I I #
coedge $-1 $229 $230 $231 $232 forward $91 $-1 #
face $-1 $-1 $233 $51 $-1 $234 forward single #
loop $-1 $-1 $235 $93 #
plane-surface $-1 0 0 -8.9348124637592683 0 0 -1 -1 0 0 forward_v I I I I #
loop $-1 $-1 $236 $66 #
coedge $-1 $149 $149 $235 $237 reversed $94 $-1 #
face $-1 $238 $239 $52 $-1 $240 reversed single #
loop $-1 $-1 $241 $96 #
plane-surface $-1 0 0 -110.51118503372295 0 0 1 1 0 0 forward_v I I I I #
coedge $-1 $242 $243 $244 $245 forward $97 $-1 #
face $-1 $-1 $246 $53 $-1 $247 forward single #
loop $-1 $-1 $248 $99 #
plane-surface $-1 0 0 -5.6171376689962447 0 0 -1 -1 0 0 forward_v I I I I #
loop $-1 $-1 $249 $68 #
coedge $-1 $158 $158 $248 $250 reversed $100 $-1 #
face $-1 $-1 $251 $54 $-1 $252 forward single #
loop $-1 $-1 $253 $102 #
plane-surface $-1 0 0 -5.6171376689962447 0 0 -1 -1 0 0 forward_v I I I I #
loop $-1 $-1 $254 $69 #
coedge $-1 $163 $163 $253 $255 reversed $103 $-1 #
face $-1 $-1 $256 $55 $-1 $257 forward single #
loop $-1 $-1 $258 $105 #
plane-surface $-1 0 0 -5.6171376689962447 0 0 -1 -1 0 0 forward_v I I I I #
loop $-1 $-1 $259 $70 #
coedge $-1 $168 $168 $258 $260 reversed $106 $-1 #
face $-1 $261 $262 $56 $-1 $263 reversed single #
loop $-1 $-1 $264 $108 #
plane-surface $-1 0 0 -110.51118503372295 0 0 1 1 0 0 forward_v I I I I #
coedge $-1 $265 $266 $267 $268 forward $109 $-1 #
face $-1 $-1 $269 $57 $-1 $270 forward single #
loop $-1 $-1 $271 $111 #
plane-surface $-1 0 0 -5.6171376689962447 0 0 -1 -1 0 0 forward_v I I I I #
loop $-1 $-1 $272 $72 #
coedge $-1 $177 $177 $271 $273 reversed $112 $-1 #
face $-1 $-1 $274 $58 $-1 $275 forward single #
loop $-1 $-1 $276 $114 #
plane-surface $-1 0 0 -5.6171376689962447 0 0 -1 -1 0 0 forward_v I I I I #
loop $-1 $-1 $277 $73 #
coedge $-1 $182 $182 $276 $278 reversed $115 $-1 #
face $-1 $-1 $279 $59 $-1 $280 forward single #
loop $-1 $-1 $281 $117 #
plane-surface $-1 0 0 -5.6171376689962447 0 0 -1 -1 0 0 forward_v I I I I #
loop $-1 $-1 $282 $74 #
coedge $-1 $187 $187 $281 $283 reversed $118 $-1 #
face $-1 $284 $285 $45 $-1 $286 reversed single #
loop $-1 $-1 $287 $120 #
plane-surface $-1 0 -35.285367766932211 0 0 1 0 0 0 1 forward_v I I I I #
coedge $-1 $288 $289 $290 $291 forward $121 $-1 #
coedge $-1 $292 $123 $293 $294 forward $76 $-1 #
coedge $-1 $123 $292 $295 $296 forward $76 $-1 #
coedge $-1 $297 $298 $123 $195 reversed $299 $-1 #
edge $-1 $300 -35.285367766932211 $301 35.285367766932211 $194 $302 forward 7 unknown #
face $-1 $303 $304 $46 $-1 $305 reversed single #
loop $-1 $-1 $306 $124 #
plane-surface $-1 0 -35.285367766932211 0 0 1 0 0 0 1 forward_v I I I I #
coedge $-1 $307 $308 $309 $310 forward $125 $-1 #
coedge $-1 $311 $127 $312 $313 forward $79 $-1 #
coedge $-1 $127 $311 $314 $315 forward $79 $-1 #
coedge $-1 $316 $317 $127 $203 reversed $318 $-1 #
edge $-1 $319 -35.285367766932211 $320 35.285367766932211 $202 $321 forward 7 unknown #
face $-1 $322 $323 $47 $-1 $324 reversed single #
loop $-1 $-1 $325 $128 #
plane-surface $-1 0 -35.285367766932211 0 0 1 0 0 0 1 forward_v I I I I #
coedge $-1 $326 $327 $328 $329 forward $129 $-1 #
coedge $-1 $330 $131 $331 $332 forward $82 $-1 #
coedge $-1 $131 $330 $333 $334 forward $82 $-1 #
coedge $-1 $335 $336 $131 $211 reversed $337 $-1 #
edge $-1 $338 -35.285367766932211 $339 35.285367766932211 $210 $340 forward 7 unknown #
face $-1 $341 $342 $48 $-1 $343 reversed single #
loop $-1 $-1 $344 $132 #
plane-surface $-1 0 -221.02237006744591 0 0 1 0 0 0 1 forward_v I I I I #
coedge $-1 $345 $346 $347 $348 forward $133 $-1 #
coedge $-1 $349 $135 $350 $351 forward $85 $-1 #
coedge $-1 $135 $349 $352 $353 forward $85 $-1 #
coedge $-1 $354 $355 $135 $219 reversed $356 $-1 #
edge $-1 $357 -221.02237006744591 $358 221.02237006744591 $218 $359 forward 7 unknown #
loop $-1 $360 $361 $136 #
cone-surface $-1 0 0 0 0 0 1 1 0 0 1 I I -0.70710678118654746 0.70710678118654746 1 forward I I I I #
coedge $-1 $222 $222 $140 $224 forward $137 $-1 #
coedge $-1 $223 $223 $361 $362 forward $139 $-1 #
edge $-1 $363 0 $363 6.2831853071796004 $222 $364 forward 7 unknown #
face $-1 $365 $366 $50 $-1 $367 reversed single #
loop $-1 $-1 $368 $141 #
plane-surface $-1 0 -221.02237006744591 0 0 1 0 0 0 1 forward_v I I I I #
coedge $-1 $369 $370 $371 $372 forward $142 $-1 #
coedge $-1 $373 $144 $374 $375 forward $91 $-1 #
coedge $-1 $144 $373 $376 $377 forward $91 $-1 #
coedge $-1 $378 $379 $144 $232 reversed $380 $-1 #
edge $-1 $381 -221.02237006744591 $382 221.02237006744591 $231 $383 forward 7 unknown #
loop $-1 $384 $385 $145 #
cone-surface $-1 0 0 0 0 0 1 1 0 0 1 I I -0.70710678118654746 0.70710678118654746 1 forward I I I I #
coedge $-1 $235 $235 $149 $237 forward $146 $-1 #
coedge $-1 $236 $236 $385 $386 forward $148 $-1 #
edge $-1 $387 0 $387 6.2831853071796004 $235 $388 forward 7 unknown #
face $-1 $389 $390 $52 $-1 $391 reversed single #
loop $-1 $-1 $392 $150 #
plane-surface $-1 0 -221.02237006744591 0 0 1 0 0 0 1 forward_v I I I I #
coedge $-1 $393 $394 $395 $396 forward $151 $-1 #
coedge $-1 $397 $153 $398 $399 forward $97 $-1 #
coedge $-1 $153 $397 $400 $401 forward $97 $-1 #
coedge $-1 $402 $403 $153 $245 reversed $404 $-1 #
edge $-1 $405 -221.02237006744591 $406 221.02237006744591 $244 $407 forward 7 unknown #
loop $-1 $408 $409 $154 #
cone-surface $-1 0 0 0 0 0 1 0.75 0 0 1 I I -0.70710678118654757 0.70710678118654757 0.75 forward I I I I #
coedge $-1 $248 $248 $158 $250 forward $155 $-1 #
coedge $-1 $249 $249 $409 $410 forward $157 $-1 #
edge $-1 $411 0 $411 6.2831853071796004 $248 $412 forward 7 unknown #
loop $-1 $413 $414 $159 #
cone-surface $-1 0 0 0 0 0 1 0.75 0 0 1 I I -0.70710678118654757 0.70710678118654757 0.75 forward I I I I #
coedge $-1 $253 $253 $163 $255 forward $160 $-1 #
coedge $-1 $254 $254 $414 $415 forward $162 $-1 #
edge $-1 $416 0 $416 6.2831853071796004 $253 $417 forward 7 unknown #
loop $-1 $418 $419 $164 #
cone-surface $-1 0 0 0 0 0 1 0.75 0 0 1 I I -0.70710678118654757 0.70710678118654757 0.75 forward I I I I #
coedge $-1 $258 $258 $168 $260 forward $165 $-1 #
coedge $-1 $259 $259 $419 $420 forward $167 $-1 #
edge $-1 $421 0 $421 6.2831853071796004 $258 $422 forward 7 unknown #
face $-1 $423 $424 $56 $-1 $425 reversed single #
loop $-1 $-1 $426 $169 #
plane-surface $-1 0 -221.02237006744591 0 0 1 0 0 0 1 forward_v I I I I #
coedge $-1 $427 $428 $429 $430 forward $170 $-1 #
coedge $-1 $431 $172 $432 $433 forward $109 $-1 #
coedge $-1 $172 $431 $434 $435 forward $109 $-1 #
coedge $-1 $436 $437 $172 $268 reversed $438 $-1 #
edge $-1 $439 -221.02237006744591 $440 221.02237006744591 $267 $441 forward 7 unknown #
loop $-1 $442 $443 $173 #
cone-surface $-1 0 0 0 0 0 1 0.75 0 0 1 I I -0.70710678118654757 0.70710678118654757 0.75 forward I I I I #
coedge $-1 $271 $271 $177 $273 forward $174 $-1 #
coedge $-1 $272 $272 $443 $444 forward $176 $-1 #
edge $-1 $445 0 $445 6.2831853071796004 $271 $446 forward 7 unknown #
loop $-1 $447 $448 $178 #
cone-surface $-1 0 0 0 0 0 1 0.75 0 0 1 I I -0.70710678118654757 0.70710678118654757 0.75 forward I I I I #
coedge $-1 $276 $276 $182 $278 forward $179 $-1 #
coedge $-1 $277 $277 $448 $449 forward $181 $-1 #
edge $-1 $450 0 $450 6.2831853071796004 $276 $451 forward 7 unknown #
loop $-1 $452 $453 $183 #
cone-surface $-1 0 0 0 0 0 1 0.75 0 0 1 I I -0.70710678118654757 0.70710678118654757 0.75 forward I I I I #
coedge $-1 $281 $281 $187 $283 forward $184 $-1 #
coedge $-1 $282 $282 $453 $454 forward $186 $-1 #
edge $-1 $455 0 $455 6.2831853071796004 $281 $456 forward 7 unknown #
face $-1 $457 $458 $45 $-1 $459 reversed single #
loop $-1 $-1 $460 $188 #
plane-surface $-1 -55.255592516861476 0 0 1 0 0 0 0 -1 forward_v I I I I #
coedge $-1 $461 $295 $462 $463 forward $189 $-1 #
coedge $-1 $464 $191 $461 $465 forward $121 $-1 #
coedge $-1 $191 $464 $466 $467 forward $121 $-1 #
coedge $-1 $298 $297 $191 $291 reversed $299 $-1 #
edge $-1 $468 -35.285367766932211 $469 35.285367766932211 $290 $470 forward 7 unknown #
coedge $-1 $193 $192 $471 $472 forward $76 $-1 #
coedge $-1 $473 $474 $192 $294 reversed $458 $-1 #
edge $-1 $301 -55.255592516861476 $475 55.255592516861476 $293 $476 forward 7 unknown #
coedge $-1 $287 $477 $193 $296 reversed $189 $-1 #
edge $-1 $478 -55.255592516861476 $300 55.255592516861476 $295 $479 forward 7 unknown #
coedge $-1 $290 $194 $477 $480 forward $299 $-1 #
coedge $-1 $194 $290 $473 $481 reversed $299 $-1 #
loop $-1 $-1 $297 $457 #
vertex $-1 $195 $482 #
vertex $-1 $195 $483 #
straight-curve $-1 55.255592516861476 0 14.97552488553716 0 1 0 I I #
face $-1 $484 $485 $46 $-1 $486 reversed single #
loop $-1 $-1 $487 $196 #
plane-surface $-1 -5.4539575548741812 0 0 1 0 0 0 0 -1 forward_v I I I I #
coedge $-1 $488 $314 $489 $490 forward $197 $-1 #
coedge $-1 $491 $199 $488 $492 forward $125 $-1 #
coedge $-1 $199 $491 $493 $494 forward $125 $-1 #
coedge $-1 $317 $316 $199 $310 reversed $318 $-1 #
edge $-1 $495 -35.285367766932211 $496 35.285367766932211 $309 $497 forward 7 unknown #
coedge $-1 $201 $200 $498 $499 forward $79 $-1 #
coedge $-1 $500 $501 $200 $313 reversed $485 $-1 #
edge $-1 $320 -5.4539575548741812 $502 5.4539575548741812 $312 $503 forward 7 unknown #
coedge $-1 $306 $504 $201 $315 reversed $197 $-1 #
edge $-1 $505 -5.4539575548741812 $319 5.4539575548741812 $314 $506 forward 7 unknown #
coedge $-1 $309 $202 $504 $507 forward $318 $-1 #
coedge $-1 $202 $309 $500 $508 reversed $318 $-1 #
loop $-1 $-1 $316 $484 #
vertex $-1 $203 $509 #
vertex $-1 $203 $510 #
straight-curve $-1 5.4539575548741812 0 2.7996329475183872 0 1 0 I I #
face $-1 $511 $512 $47 $-1 $513 reversed single #
loop $-1 $-1 $514 $204 #
plane-surface $-1 -5.2345142651683574 0 0 1 0 0 0 0 -1 forward_v I I I I #
coedge $-1 $515 $333 $516 $517 forward $205 $-1 #
coedge $-1 $518 $207 $515 $519 forward $129 $-1 #
coedge $-1 $207 $518 $520 $521 forward $129 $-1 #
coedge $-1 $336 $335 $207 $329 reversed $337 $-1 #
edge $-1 $522 -35.285367766932211 $523 35.285367766932211 $328 $524 forward 7 unknown #
coedge $-1 $209 $208 $525 $526 forward $82 $-1 #
coedge $-1 $527 $528 $208 $332 reversed $512 $-1 #
edge $-1 $339 -5.2345142651683574 $529 5.2345142651683574 $331 $530 forward 7 unknown #
coedge $-1 $325 $531 $209 $334 reversed $205 $-1 #
edge $-1 $532 -5.2345142651683574 $338 5.2345142651683574 $333 $533 forward 7 unknown #
coedge $-1 $328 $210 $531 $534 forward $337 $-1 #
coedge $-1 $210 $328 $527 $535 reversed $337 $-1 #
loop $-1 $-1 $335 $511 #
vertex $-1 $211 $536 #
vertex $-1 $211 $537 #
straight-curve $-1 5.2345142651683574 0 2.4553060195492815 0 1 0 I I #
face $-1 $538 $539 $48 $-1 $540 reversed single #
loop $-1 $-1 $541 $212 #
plane-surface $-1 -7.3900873926235562 0 0 1 0 0 0 0 -1 forward_v I I I I #
coedge $-1 $542 $352 $543 $544 forward $213 $-1 #
coedge $-1 $545 $215 $542 $546 forward $133 $-1 #
coedge $-1 $215 $545 $547 $548 forward $133 $-1 #
coedge $-1 $355 $354 $215 $348 reversed $356 $-1 #
edge $-1 $549 -221.02237006744591 $550 221.02237006744591 $347 $551 forward 7 unknown #
coedge $-1 $217 $216 $552 $553 forward $85 $-1 #
coedge $-1 $554 $555 $216 $351 reversed $539 $-1 #
edge $-1 $358 -7.3900873926235562 $556 7.3900873926235562 $350 $557 forward 7 unknown #
coedge $-1 $344 $558 $217 $353 reversed $213 $-1 #
edge $-1 $559 -7.3900873926235562 $357 7.3900873926235562 $352 $560 forward 7 unknown #
coedge $-1 $347 $218 $558 $561 forward $356 $-1 #
coedge $-1 $218 $347 $554 $562 reversed $356 $-1 #
loop $-1 $-1 $354 $538 #
vertex $-1 $219 $563 #
vertex $-1 $219 $564 #
straight-curve $-1 7.3900873926235562 0 110.51118503372295 0 1 0 I I #
loop $-1 $-1 $565 $136 #
coedge $-1 $361 $361 $223 $362 reversed $220 $-1 #
edge $-1 $566 0 $566 6.2831853071796004 $361 $567 forward 7 unknown #
vertex $-1 $224 $568 #
ellipse-curve $-1 0 0 -8.9348124637592683 0 0 -1 2 0 0 1 I I #
face $-1 $569 $570 $50 $-1 $571 reversed single #
loop $-1 $-1 $572 $225 #
plane-surface $-1 -7.3900873926235562 0 0 1 0 0 0 0 -1 forward_v I I I I #
coedge $-1 $573 $376 $574 $575 forward $226 $-1 #
coedge $-1 $576 $228 $573 $577 forward $142 $-1 #
coedge $-1 $228 $576 $578 $579 forward $142 $-1 #
coedge $-1 $379 $378 $228 $372 reversed $380 $-1 #
edge $-1 $580 -221.02237006744591 $581 221.02237006744591 $371 $582 forward 7 unknown #
coedge $-1 $230 $229 $583 $584 forward $91 $-1 #
coedge $-1 $585 $586 $229 $375 reversed $570 $-1 #
edge $-1 $382 -7.3900873926235562 $587 7.3900873926235562 $374 $588 forward 7 unknown #
coedge $-1 $368 $589 $230 $377 reversed $226 $-1 #
edge $-1 $590 -7.3900873926235562 $381 7.3900873926235562 $376 $591 forward 7 unknown #
coedge $-1 $371 $231 $589 $592 forward $380 $-1 #
coedge $-1 $231 $371 $585 $593 reversed $380 $-1 #
loop $-1 $-1 $378 $569 #
vertex $-1 $232 $594 #
vertex $-1 $232 $595 #
straight-curve $-1 7.3900873926235562 0 110.51118503372295 0 1 0 I I #
loop $-1 $-1 $596 $145 #
coedge $-1 $385 $385 $236 $386 reversed $233 $-1 #
edge $-1 $597 0 $597 6.2831853071796004 $385 $598 forward 7 unknown #
vertex $-1 $237 $599 #
ellipse-curve $-1 0 0 -8.9348124637592683 0 0 -1 2 0 0 1 I I #
face $-1 $600 $601 $52 $-1 $602 reversed single #
loop $-1 $-1 $603 $238 #
plane-surface $-1 -9.0838474379053515 0 0 1 0 0 0 0 -1 forward_v I I I I #
coedge $-1 $604 $400 $605 $606 forward $239 $-1 #
coedge $-1 $607 $241 $604 $608 forward $151 $-1 #
coedge $-1 $241 $607 $609 $610 forward $151 $-1 #
coedge $-1 $403 $402 $241 $396 reversed $404 $-1 #
edge $-1 $611 -221.02237006744591 $612 221.02237006744591 $395 $613 forward 7 unknown #
coedge $-1 $243 $242 $614 $615 forward $97 $-1 #
coedge $-1 $616 $617 $242 $399 reversed $601 $-1 #
edge $-1 $406 -9.0838474379053515 $618 9.0838474379053515 $398 $619 forward 7 unknown #
coedge $-1 $392 $620 $243 $401 reversed $239 $-1 #
edge $-1 $621 -9.0838474379053515 $405 9.0838474379053515 $400 $622 forward 7 unknown #
coedge $-1 $395 $244 $620 $623 forward $404 $-1 #
coedge $-1 $244 $395 $616 $624 reversed $404 $-1 #
loop $-1 $-1 $402 $600 #
vertex $-1 $245 $625 #
vertex $-1 $245 $626 #
straight-curve $-1 9.0838474379053515 0 110.51118503372295 0 1 0 I I #
loop $-1 $-1 $627 $154 #
coedge $-1 $409 $409 $249 $410 reversed $246 $-1 #
edge $-1 $628 0 $628 6.2831853071796004 $409 $629 forward 7 unknown #
vertex $-1 $250 $630 #
ellipse-curve $-1 0 0 -5.6171376689962447 0 0 -1 1.5 0 0 1 I I #
loop $-1 $-1 $631 $159 #
coedge $-1 $414 $414 $254 $415 reversed $251 $-1 #
edge $-1 $632 0 $632 6.2831853071796004 $414 $633 forward 7 unknown #
vertex $-1 $255 $634 #
ellipse-curve $-1 0 0 -5.6171376689962447 0 0 -1 1.5 0 0 1 I I #
loop $-1 $-1 $635 $164 #
coedge $-1 $419 $419 $259 $420 reversed $256 $-1 #
edge $-1 $636 0 $636 6.2831853071796004 $419 $637 forward 7 unknown #
vertex $-1 $260 $638 #
ellipse-curve $-1 0 0 -5.6171376689962447 0 0 -1 1.5 0 0 1 I I #
face $-1 $639 $640 $56 $-1 $641 reversed single #
loop $-1 $-1 $642 $261 #
plane-surface $-1 -9.0838474379053515 0 0 1 0 0 0 0 -1 forward_v I I I I #
coedge $-1 $643 $434 $644 $645 forward $262 $-1 #
coedge $-1 $646 $264 $643 $647 forward $170 $-1 #
coedge $-1 $264 $646 $648 $649 forward $170 $-1 #
coedge $-1 $437 $436 $264 $430 reversed $438 $-1 #
edge $-1 $650 -221.02237006744591 $651 221.02237006744591 $429 $652 forward 7 unknown #
coedge $-1 $266 $265 $653 $654 forward $109 $-1 #
coedge $-1 $655 $656 $265 $433 reversed $640 $-1 #
edge $-1 $440 -9.0838474379053515 $657 9.0838474379053515 $432 $658 forward 7 unknown #
coedge $-1 $426 $659 $266 $435 reversed $262 $-1 #
edge $-1 $660 -9.0838474379053515 $439 9.0838474379053515 $434 $661 forward 7 unknown #
coedge $-1 $429 $267 $659 $662 forward $438 $-1 #
coedge $-1 $267 $429 $655 $663 reversed $438 $-1 #
loop $-1 $-1 $436 $639 #
vertex $-1 $268 $664 #
vertex $-1 $268 $665 #
straight-curve $-1 9.0838474379053515 0 110.51118503372295 0 1 0 I I #
loop $-1 $-1 $666 $173 #
coedge $-1 $443 $443 $272 $444 reversed $269 $-1 #
edge $-1 $667 0 $667 6.2831853071796004 $443 $668 forward 7 unknown #
vertex $-1 $273 $669 #
ellipse-curve $-1 0 0 -5.6171376689962447 0 0 -1 1.5 0 0 1 I I #
loop $-1 $-1 $670 $178 #
coedge $-1 $448 $448 $277 $449 reversed $274 $-1 #
edge $-1 $671 0 $671 6.2831853071796004 $448 $672 forward 7 unknown #
vertex $-1 $278 $673 #
ellipse-curve $-1 0 0 -5.6171376689962447 0 0 -1 1.5 0 0 1 I I #
loop $-1 $-1 $674 $183 #
coedge $-1 $453 $453 $282 $454 reversed $279 $-1 #
edge $-1 $675 0 $675 6.2831853071796004 $453 $676 forward 7 unknown #
vertex $-1 $283 $677 #
ellipse-curve $-1 0 0 -5.6171376689962447 0 0 -1 1.5 0 0 1 I I #
face $-1 $-1 $299 $45 $-1 $678 reversed single #
loop $-1 $-1 $473 $284 #
plane-surface $-1 0 35.285367766932211 0 0 -1 0 0 0 -1 forward_v I I I I #
coedge $-1 $679 $471 $474 $680 forward $285 $-1 #
coedge $-1 $477 $287 $288 $465 reversed $189 $-1 #
coedge $-1 $471 $679 $287 $463 reversed $285 $-1 #
edge $-1 $478 -14.97552488553716 $681 14.97552488553716 $462 $682 forward 7 unknown #
coedge $-1 $289 $288 $679 $683 forward $121 $-1 #
edge $-1 $469 -55.255592516861476 $681 55.255592516861476 $461 $684 forward 7 unknown #
coedge $-1 $474 $473 $289 $467 reversed $458 $-1 #
edge $-1 $685 -55.255592516861476 $468 55.255592516861476 $466 $686 forward 7 unknown #
vertex $-1 $291 $687 #
vertex $-1 $480 $688 #
straight-curve $-1 55.255592516861476 0 -14.97552488553716 0 -1 0 I I #
coedge $-1 $460 $462 $292 $472 reversed $285 $-1 #
edge $-1 $475 -35.285367766932211 $478 35.285367766932211 $471 $689 forward 7 unknown #
coedge $-1 $466 $293 $298 $481 forward $458 $-1 #
coedge $-1 $293 $466 $460 $680 reversed $458 $-1 #
vertex $-1 $294 $690 #
straight-curve $-1 0 35.285367766932211 14.97552488553716 -1 0 0 I I #
coedge $-1 $295 $461 $297 $480 reversed $189 $-1 #
vertex $-1 $472 $691 #
straight-curve $-1 0 -35.285367766932211 14.97552488553716 1 0 0 I I #
edge $-1 $300 -14.97552488553716 $469 14.97552488553716 $297 $692 forward 7 unknown #
edge $-1 $301 -14.97552488553716 $468 14.97552488553716 $298 $693 forward 7 unknown #
point $-1 55.255592516861476 -35.285367766932211 14.97552488553716 #
point $-1 55.255592516861476 35.285367766932211 14.97552488553716 #
face $-1 $-1 $318 $46 $-1 $694 reversed single #
loop $-1 $-1 $500 $303 #
plane-surface $-1 0 35.285367766932211 0 0 -1 0 0 0 -1 forward_v I I I I #
coedge $-1 $695 $498 $501 $696 forward $304 $-1 #
coedge $-1 $504 $306 $307 $492 reversed $197 $-1 #
coedge $-1 $498 $695 $306 $490 reversed $304 $-1 #
edge $-1 $505 -2.7996329475183872 $697 2.7996329475183872 $489 $698 forward 7 unknown #
coedge $-1 $308 $307 $695 $699 forward $125 $-1 #
edge $-1 $496 -5.4539575548741812 $697 5.4539575548741812 $488 $700 forward 7 unknown #
coedge $-1 $501 $500 $308 $494 reversed $485 $-1 #
edge $-1 $701 -5.4539575548741812 $495 5.4539575548741812 $493 $702 forward 7 unknown #
vertex $-1 $310 $703 #
vertex $-1 $507 $704 #
straight-curve $-1 5.4539575548741812 0 -2.7996329475183872 0 -1 0 I I #
coedge $-1 $487 $489 $311 $499 reversed $304 $-1 #
edge $-1 $502 -35.285367766932211 $505 35.285367766932211 $498 $705 forward 7 unknown #
coedge $-1 $493 $312 $317 $508 forward $485 $-1 #
coedge $-1 $312 $493 $487 $696 reversed $485 $-1 #
vertex $-1 $313 $706 #
straight-curve $-1 0 35.285367766932211 2.7996329475183872 -1 0 0 I I #
coedge $-1 $314 $488 $316 $507 reversed $197 $-1 #
vertex $-1 $499 $707 #
straight-curve $-1 0 -35.285367766932211 2.7996329475183872 1 0 0 I I #
edge $-1 $319 -2.7996329475183872 $496 2.7996329475183872 $316 $708 forward 7 unknown #
edge $-1 $320 -2.7996329475183872 $495 2.7996329475183872 $317 $709 forward 7 unknown #
point $-1 5.4539575548741812 -35.285367766932211 2.7996329475183872 #
point $-1 5.4539575548741812 35.285367766932211 2.7996329475183872 #
face $-1 $-1 $337 $47 $-1 $710 reversed single #
loop $-1 $-1 $527 $322 #
plane-surface $-1 0 35.285367766932211 0 0 -1 0 0 0 -1 forward_v I I I I #
coedge $-1 $711 $525 $528 $712 forward $323 $-1 #
coedge $-1 $531 $325 $326 $519 reversed $205 $-1 #
coedge $-1 $525 $711 $325 $517 reversed $323 $-1 #
edge $-1 $532 -2.4553060195492815 $713 2.4553060195492815 $516 $714 forward 7 unknown #
coedge $-1 $327 $326 $711 $715 forward $129 $-1 #
edge $-1 $523 -5.2345142651683574 $713 5.2345142651683574 $515 $716 forward 7 unknown #
coedge $-1 $528 $527 $327 $521 reversed $512 $-1 #
edge $-1 $717 -5.2345142651683574 $522 5.2345142651683574 $520 $718 forward 7 unknown #
vertex $-1 $329 $719 #
vertex $-1 $534 $720 #
straight-curve $-1 5.2345142651683574 0 -2.4553060195492815 0 -1 0 I I #
coedge $-1 $514 $516 $330 $526 reversed $323 $-1 #
edge $-1 $529 -35.285367766932211 $532 35.285367766932211 $525 $721 forward 7 unknown #
coedge $-1 $520 $331 $336 $535 forward $512 $-1 #
coedge $-1 $331 $520 $514 $712 reversed $512 $-1 #
vertex $-1 $332 $722 #
straight-curve $-1 0 35.285367766932211 2.4553060195492815 -1 0 0 I I #
coedge $-1 $333 $515 $335 $534 reversed $205 $-1 #
vertex $-1 $526 $723 #
straight-curve $-1 0 -35.285367766932211 2.4553060195492815 1 0 0 I I #
edge $-1 $338 -2.4553060195492815 $523 2.4553060195492815 $335 $724 forward 7 unknown #
edge $-1 $339 -2.4553060195492815 $522 2.4553060195492815 $336 $725 forward 7 unknown #
point $-1 5.2345142651683574 -35.285367766932211 2.4553060195492815 #
point $-1 5.2345142651683574 35.285367766932211 2.4553060195492815 #
face $-1 $-1 $356 $48 $-1 $726 reversed single #
loop $-1 $-1 $554 $341 #
plane-surface $-1 0 221.02237006744591 0 0 -1 0 0 0 -1 forward_v I I I I #
coedge $-1 $727 $552 $555 $728 forward $342 $-1 #
coedge $-1 $558 $344 $345 $546 reversed $213 $-1 #
coedge $-1 $552 $727 $344 $544 reversed $342 $-1 #
edge $-1 $559 -110.51118503372295 $729 110.51118503372295 $543 $730 forward 7 unknown #
coedge $-1 $346 $345 $727 $731 forward $133 $-1 #
edge $-1 $550 -7.3900873926235562 $729 7.3900873926235562 $542 $732 forward 7 unknown #
coedge $-1 $555 $554 $346 $548 reversed $539 $-1 #
edge $-1 $733 -7.3900873926235562 $549 7.3900873926235562 $547 $734 forward 7 unknown #
vertex $-1 $348 $735 #
vertex $-1 $561 $736 #
straight-curve $-1 7.3900873926235562 0 -110.51118503372295 0 -1 0 I I #
coedge $-1 $541 $543 $349 $553 reversed $342 $-1 #
edge $-1 $556 -221.02237006744591 $559 221.02237006744591 $552 $737 forward 7 unknown #
coedge $-1 $547 $350 $355 $562 forward $539 $-1 #
coedge $-1 $350 $547 $541 $728 reversed $539 $-1 #
vertex $-1 $351 $738 #
straight-curve $-1 0 221.02237006744591 110.51118503372295 -1 0 0 I I #
coedge $-1 $352 $542 $354 $561 reversed $213 $-1 #
vertex $-1 $553 $739 #
straight-curve $-1 0 -221.02237006744591 110.51118503372295 1 0 0 I I #
edge $-1 $357 -110.51118503372295 $550 110.51118503372295 $354 $740 forward 7 unknown #
edge $-1 $358 -110.51118503372295 $549 110.51118503372295 $355 $741 forward 7 unknown #
point $-1 7.3900873926235562 -221.02237006744591 110.51118503372295 #
point $-1 7.3900873926235562 221.02237006744591 110.51118503372295 #
coedge $-1 $565 $565 $-1 $742 reversed $360 $-1 #
vertex $-1 $362 $743 #
ellipse-curve $-1 0 0 -1 0 0 -1 2 0 0 1 I I #
point $-1 2 0 -8.9348124637592683 #
face $-1 $-1 $380 $50 $-1 $744 reversed single #
loop $-1 $-1 $585 $365 #
plane-surface $-1 0 221.02237006744591 0 0 -1 0 0 0 -1 forward_v I I I I #
coedge $-1 $745 $583 $586 $746 forward $366 $-1 #
coedge $-1 $589 $368 $369 $577 reversed $226 $-1 #
coedge $-1 $583 $745 $368 $575 reversed $366 $-1 #
edge $-1 $590 -110.51118503372295 $747 110.51118503372295 $574 $748 forward 7 unknown #
coedge $-1 $370 $369 $745 $749 forward $142 $-1 #
edge $-1 $581 -7.3900873926235562 $747 7.3900873926235562 $573 $750 forward 7 unknown #
coedge $-1 $586 $585 $370 $579 reversed $570 $-1 #
edge $-1 $751 -7.3900873926235562 $580 7.3900873926235562 $578 $752 forward 7 unknown #
vertex $-1 $372 $753 #
vertex $-1 $592 $754 #
straight-curve $-1 7.3900873926235562 0 -110.51118503372295 0 -1 0 I I #
coedge $-1 $572 $574 $373 $584 reversed $366 $-1 #
edge $-1 $587 -221.02237006744591 $590 221.02237006744591 $583 $755 forward 7 unknown #
coedge $-1 $578 $374 $379 $593 forward $570 $-1 #
coedge $-1 $374 $578 $572 $746 reversed $570 $-1 #
vertex $-1 $375 $756 #
straight-curve $-1 0 221.02237006744591 110.51118503372295 -1 0 0 I I #
coedge $-1 $376 $573 $378 $592 reversed $226 $-1 #
vertex $-1 $584 $757 #
straight-curve $-1 0 -221.02237006744591 110.51118503372295 1 0 0 I I #
edge $-1 $381 -110.51118503372295 $581 110.51118503372295 $378 $758 forward 7 unknown #
edge $-1 $382 -110.51118503372295 $580 110.51118503372295 $379 $759 forward 7 unknown #
point $-1 7.3900873926235562 -221.02237006744591 110.51118503372295 #
point $-1 7.3900873926235562 221.02237006744591 110.51118503372295 #
coedge $-1 $596 $596 $-1 $760 reversed $384 $-1 #
vertex $-1 $386 $761 #
ellipse-curve $-1 0 0 -1 0 0 -1 2 0 0 1 I I #
point $-1 2 0 -8.9348124637592683 #
face $-1 $-1 $404 $52 $-1 $762 reversed single #
loop $-1 $-1 $616 $389 #
plane-surface $-1 0 221.02237006744591 0 0 -1 0 0 0 -1 forward_v I I I I #
coedge $-1 $763 $614 $617 $764 forward $390 $-1 #
coedge $-1 $620 $392 $393 $608 reversed $239 $-1 #
coedge $-1 $614 $763 $392 $606 reversed $390 $-1 #
edge $-1 $621 -110.51118503372295 $765 110.51118503372295 $605 $766 forward 7 unknown #
coedge $-1 $394 $393 $763 $767 forward $151 $-1 #
edge $-1 $612 -9.0838474379053515 $765 9.0838474379053515 $604 $768 forward 7 unknown #
coedge $-1 $617 $616 $394 $610 reversed $601 $-1 #
edge $-1 $769 -9.0838474379053515 $611 9.0838474379053515 $609 $770 forward 7 unknown #
vertex $-1 $396 $771 #
vertex $-1 $623 $772 #
straight-curve $-1 9.0838474379053515 0 -110.51118503372295 0 -1 0 I I #
coedge $-1 $603 $605 $397 $615 reversed $390 $-1 #
edge $-1 $618 -221.02237006744591 $621 221.02237006744591 $614 $773 forward 7 unknown #
coedge $-1 $609 $398 $403 $624 forward $601 $-1 #
coedge $-1 $398 $609 $603 $764 reversed $601 $-1 #
vertex $-1 $399 $774 #
straight-curve $-1 0 221.02237006744591 110.51118503372295 -1 0 0 I I #
coedge $-1 $400 $604 $402 $623 reversed $239 $-1 #
vertex $-1 $615 $775 #
straight-curve $-1 0 -221.02237006744591 110.51118503372295 1 0 0 I I #
edge $-1 $405 -110.51118503372295 $612 110.51118503372295 $402 $776 forward 7 unknown #
edge $-1 $406 -110.51118503372295 $611 110.51118503372295 $403 $777 forward 7 unknown #
point $-1 9.0838474379053515 -221.02237006744591 110.51118503372295 #
point $-1 9.0838474379053515 221.02237006744591 110.51118503372295 #
coedge $-1 $627 $627 $-1 $778 reversed $408 $-1 #
vertex $-1 $410 $779 #
ellipse-curve $-1 0 0 -0.75 0 0 -1 1.5 0 0 1 I I #
point $-1 1.5 0 -5.6171376689962447 #
coedge $-1 $631 $631 $-1 $780 reversed $413 $-1 #
vertex $-1 $415 $781 #
ellipse-curve $-1 0 0 -0.75 0 0 -1 1.5 0 0 1 I I #
point $-1 1.5 0 -5.6171376689962447 #
coedge $-1 $635 $635 $-1 $782 reversed $418 $-1 #
vertex $-1 $420 $783 #
ellipse-curve $-1 0 0 -0.75 0 0 -1 1.5 0 0 1 I I #
point $-1 1.5 0 -5.6171376689962447 #
face $-1 $-1 $438 $56 $-1 $784 reversed single #
loop $-1 $-1 $655 $423 #
plane-surface $-1 0 221.02237006744591 0 0 -1 0 0 0 -1 forward_v I I I I #
coedge $-1 $785 $653 $656 $786 forward $424 $-1 #
coedge $-1 $659 $426 $427 $647 reversed $262 $-1 #
coedge $-1 $653 $785 $426 $645 reversed $424 $-1 #
edge $-1 $660 -110.51118503372295 $787 110.51118503372295 $644 $788 forward 7 unknown #
coedge $-1 $428 $427 $785 $789 forward $170 $-1 #
edge $-1 $651 -9.0838474379053515 $787 9.0838474379053515 $643 $790 forward 7 unknown #
coedge $-1 $656 $655 $428 $649 reversed $640 $-1 #
edge $-1 $791 -9.0838474379053515 $650 9.0838474379053515 $648 $792 forward 7 unknown #
vertex $-1 $430 $793 #
vertex $-1 $662 $794 #
straight-curve $-1 9.0838474379053515 0 -110.51118503372295 0 -1 0 I I #
coedge $-1 $642 $644 $431 $654 reversed $424 $-1 #
edge $-1 $657 -221.02237006744591 $660 221.02237006744591 $653 $795 forward 7 unknown #
coedge $-1 $648 $432 $437 $663 forward $640 $-1 #
coedge $-1 $432 $648 $642 $786 reversed $640 $-1 #
vertex $-1 $433 $796 #
straight-curve $-1 0 221.02237006744591 110.51118503372295 -1 0 0 I I #
coedge $-1 $434 $643 $436 $662 reversed $262 $-1 #
vertex $-1 $654 $797 #
straight-curve $-1 0 -221.02237006744591 110.51118503372295 1 0 0 I I #
edge $-1 $439 -110.51118503372295 $651 110.51118503372295 $436 $798 forward 7 unknown #
edge $-1 $440 -110.51118503372295 $650 110.51118503372295 $437 $799 forward 7 unknown #
point $-1 9.0838474379053515 -221.02237006744591 110.51118503372295 #
point $-1 9.0838474379053515 221.02237006744591 110.51118503372295 #
coedge $-1 $666 $666 $-1 $800 reversed $442 $-1 #
vertex $-1 $444 $801 #
ellipse-curve $-1 0 0 -0.75 0 0 -1 1.5 0 0 1 I I #
point $-1 1.5 0 -5.6171376689962447 #
coedge $-1 $670 $670 $-1 $802 reversed $447 $-1 #
vertex $-1 $449 $803 #
ellipse-curve $-1 0 0 -0.75 0 0 -1 1.5 0 0 1 I I #
point $-1 1.5 0 -5.6171376689962447 #
coedge $-1 $674 $674 $-1 $804 reversed $452 $-1 #
vertex $-1 $454 $805 #
ellipse-curve $-1 0 0 -0.75 0 0 -1 1.5 0 0 1 I I #
point $-1 1.5 0 -5.6171376689962447 #
plane-surface $-1 55.255592516861476 0 0 -1 0 0 0 0 1 forward_v I I I I #
coedge $-1 $462 $460 $464 $683 reversed $285 $-1 #
edge $-1 $475 -14.97552488553716 $685 14.97552488553716 $474 $806 forward 7 unknown #
vertex $-1 $683 $807 #
straight-curve $-1 -55.255592516861476 -35.285367766932211 0 0 0 -1 I I #
edge $-1 $681 -35.285367766932211 $685 35.285367766932211 $679 $808 forward 7 unknown #
straight-curve $-1 0 -35.285367766932211 -14.97552488553716 -1 0 0 I I #
vertex $-1 $467 $809 #
straight-curve $-1 0 35.285367766932211 -14.97552488553716 1 0 0 I I #
point $-1 55.255592516861476 35.285367766932211 -14.97552488553716 #
point $-1 55.255592516861476 -35.285367766932211 -14.97552488553716 #
straight-curve $-1 -55.255592516861476 0 14.97552488553716 0 -1 0 I I #
point $-1 -55.255592516861476 35.285367766932211 14.97552488553716 #
point $-1 -55.255592516861476 -35.285367766932211 14.97552488553716 #
straight-curve $-1 55.255592516861476 -35.285367766932211 0 0 0 -1 I I #
straight-curve $-1 55.255592516861476 35.285367766932211 0 0 0 -1 I I #
plane-surface $-1 5.4539575548741812 0 0 -1 0 0 0 0 1 forward_v I I I I #
coedge $-1 $489 $487 $491 $699 reversed $304 $-1 #
edge $-1 $502 -2.7996329475183872 $701 2.7996329475183872 $501 $810 forward 7 unknown #
vertex $-1 $699 $811 #
straight-curve $-1 -5.4539575548741812 -35.285367766932211 0 0 0 -1 I I #
edge $-1 $697 -35.285367766932211 $701 35.285367766932211 $695 $812 forward 7 unknown #
straight-curve $-1 0 -35.285367766932211 -2.7996329475183872 -1 0 0 I I #
vertex $-1 $494 $813 #
straight-curve $-1 0 35.285367766932211 -2.7996329475183872 1 0 0 I I #
point $-1 5.4539575548741812 35.285367766932211 -2.7996329475183872 #
point $-1 5.4539575548741812 -35.285367766932211 -2.7996329475183872 #
straight-curve $-1 -5.4539575548741812 0 2.7996329475183872 0 -1 0 I I #
point $-1 -5.4539575548741812 35.285367766932211 2.7996329475183872 #
point $-1 -5.4539575548741812 -35.285367766932211 2.7996329475183872 #
straight-curve $-1 5.4539575548741812 -35.285367766932211 0 0 0 -1 I I #
straight-curve $-1 5.4539575548741812 35.285367766932211 0 0 0 -1 I I #
plane-surface $-1 5.2345142651683574 0 0 -1 0 0 0 0 1 forward_v I I I I #
coedge $-1 $516 $514 $518 $715 reversed $323 $-1 #
edge $-1 $529 -2.4553060195492815 $717 2.4553060195492815 $528 $814 forward 7 unknown #
vertex $-1 $715 $815 #
straight-curve $-1 -5.2345142651683574 -35.285367766932211 0 0 0 -1 I I #
edge $-1 $713 -35.285367766932211 $717 35.285367766932211 $711 $816 forward 7 unknown #
straight-curve $-1 0 -35.285367766932211 -2.4553060195492815 -1 0 0 I I #
vertex $-1 $521 $817 #
straight-curve $-1 0 35.285367766932211 -2.4553060195492815 1 0 0 I I #
point $-1 5.2345142651683574 35.285367766932211 -2.4553060195492815 #
point $-1 5.2345142651683574 -35.285367766932211 -2.4553060195492815 #
straight-curve $-1 -5.2345142651683574 0 2.4553060195492815 0 -1 0 I I #
point $-1 -5.2345142651683574 35.285367766932211 2.4553060195492815 #
point $-1 -5.2345142651683574 -35.285367766932211 2.4553060195492815 #
straight-curve $-1 5.2345142651683574 -35.285367766932211 0 0 0 -1 I I #
straight-curve $-1 5.2345142651683574 35.285367766932211 0 0 0 -1 I I #
plane-surface $-1 7.3900873926235562 0 0 -1 0 0 0 0 1 forward_v I I I I #
coedge $-1 $543 $541 $545 $731 reversed $342 $-1 #
edge $-1 $556 -110.51118503372295 $733 110.51118503372295 $555 $818 forward 7 unknown #
vertex $-1 $731 $819 #
straight-curve $-1 -7.3900873926235562 -221.02237006744591 0 0 0 -1 I I #
edge $-1 $729 -221.02237006744591 $733 221.02237006744591 $727 $820 forward 7 unknown #
straight-curve $-1 0 -221.02237006744591 -110.51118503372295 -1 0 0 I I #
vertex $-1 $548 $821 #
straight-curve $-1 0 221.02237006744591 -110.51118503372295 1 0 0 I I #
point $-1 7.3900873926235562 221.02237006744591 -110.51118503372295 #
point $-1 7.3900873926235562 -221.02237006744591 -110.51118503372295 #
straight-curve $-1 -7.3900873926235562 0 110.51118503372295 0 -1 0 I I #
point $-1 -7.3900873926235562 221.02237006744591 110.51118503372295 #
point $-1 -7.3900873926235562 -221.02237006744591 110.51118503372295 #
straight-curve $-1 7.3900873926235562 -221.02237006744591 0 0 0 -1 I I #
straight-curve $-1 7.3900873926235562 221.02237006744591 0 0 0 -1 I I #
edge $-1 $822 1 $822 0 $565 $-1 forward 7 unknown #
point $-1 2 0 -1 #
plane-surface $-1 7.3900873926235562 0 0 -1 0 0 0 0 1 forward_v I I I I #
coedge $-1 $574 $572 $576 $749 reversed $366 $-1 #
edge $-1 $587 -110.51118503372295 $751 110.51118503372295 $586 $823 forward 7 unknown #
vertex $-1 $749 $824 #
straight-curve $-1 -7.3900873926235562 -221.02237006744591 0 0 0 -1 I I #
edge $-1 $747 -221.02237006744591 $751 221.02237006744591 $745 $825 forward 7 unknown #
straight-curve $-1 0 -221.02237006744591 -110.51118503372295 -1 0 0 I I #
vertex $-1 $579 $826 #
straight-curve $-1 0 221.02237006744591 -110.51118503372295 1 0 0 I I #
point $-1 7.3900873926235562 221.02237006744591 -110.51118503372295 #
point $-1 7.3900873926235562 -221.02237006744591 -110.51118503372295 #
straight-curve $-1 -7.3900873926235562 0 110.51118503372295 0 -1 0 I I #
point $-1 -7.3900873926235562 221.02237006744591 110.51118503372295 #
point $-1 -7.3900873926235562 -221.02237006744591 110.51118503372295 #
straight-curve $-1 7.3900873926235562 -221.02237006744591 0 0 0 -1 I I #
straight-curve $-1 7.3900873926235562 221.02237006744591 0 0 0 -1 I I #
edge $-1 $827 1 $827 0 $596 $-1 forward 7 unknown #
point $-1 2 0 -1 #
plane-surface $-1 9.0838474379053515 0 0 -1 0 0 0 0 1 forward_v I I I I #
coedge $-1 $605 $603 $607 $767 reversed $390 $-1 #
edge $-1 $618 -110.51118503372295 $769 110.51118503372295 $617 $828 forward 7 unknown #
vertex $-1 $767 $829 #
straight-curve $-1 -9.0838474379053515 -221.02237006744591 0 0 0 -1 I I #
edge $-1 $765 -221.02237006744591 $769 221.02237006744591 $763 $830 forward 7 unknown #
straight-curve $-1 0 -221.02237006744591 -110.51118503372295 -1 0 0 I I #
vertex $-1 $610 $831 #
straight-curve $-1 0 221.02237006744591 -110.51118503372295 1 0 0 I I #
point $-1 9.0838474379053515 221.02237006744591 -110.51118503372295 #
point $-1 9.0838474379053515 -221.02237006744591 -110.51118503372295 #
straight-curve $-1 -9.0838474379053515 0 110.51118503372295 0 -1 0 I I #
point $-1 -9.0838474379053515 221.02237006744591 110.51118503372295 #
point $-1 -9.0838474379053515 -221.02237006744591 110.51118503372295 #
straight-curve $-1 9.0838474379053515 -221.02237006744591 0 0 0 -1 I I #
straight-curve $-1 9.0838474379053515 221.02237006744591 0 0 0 -1 I I #
edge $-1 $832 1 $832 0 $627 $-1 forward 7 unknown #
point $-1 1.5 0 -0.75 #
edge $-1 $833 1 $833 0 $631 $-1 forward 7 unknown #
point $-1 1.5 0 -0.75 #
edge $-1 $834 1 $834 0 $635 $-1 forward 7 unknown #
point $-1 1.5 0 -0.75 #
plane-surface $-1 9.0838474379053515 0 0 -1 0 0 0 0 1 forward_v I I I I #
coedge $-1 $644 $642 $646 $789 reversed $424 $-1 #
edge $-1 $657 -110.51118503372295 $791 110.51118503372295 $656 $835 forward 7 unknown #
vertex $-1 $789 $836 #
straight-curve $-1 -9.0838474379053515 -221.02237006744591 0 0 0 -1 I I #
edge $-1 $787 -221.02237006744591 $791 221.02237006744591 $785 $837 forward 7 unknown #
straight-curve $-1 0 -221.02237006744591 -110.51118503372295 -1 0 0 I I #
vertex $-1 $649 $838 #
straight-curve $-1 0 221.02237006744591 -110.51118503372295 1 0 0 I I #
point $-1 9.0838474379053515 221.02237006744591 -110.51118503372295 #
point $-1 9.0838474379053515 -221.02237006744591 -110.51118503372295 #
straight-curve $-1 -9.0838474379053515 0 110.51118503372295 0 -1 0 I I #
point $-1 -9.0838474379053515 221.02237006744591 110.51118503372295 #
point $-1 -9.0838474379053515 -221.02237006744591 110.51118503372295 #
straight-curve $-1 9.0838474379053515 -221.02237006744591 0 0 0 -1 I I #
straight-curve $-1 9.0838474379053515 221.02237006744591 0 0 0 -1 I I #
edge $-1 $839 1 $839 0 $666 $-1 forward 7 unknown #
point $-1 1.5 0 -0.75 #
edge $-1 $840 1 $840 0 $670 $-1 forward 7 unknown #
point $-1 1.5 0 -0.75 #
edge $-1 $841 1 $841 0 $674 $-1 forward 7 unknown #
point $-1 1.5 0 -0.75 #
straight-curve $-1 -55.255592516861476 35.285367766932211 0 0 0 -1 I I #
point $-1 -55.255592516861476 -35.285367766932211 -14.97552488553716 #
straight-curve $-1 -55.255592516861476 0 -14.97552488553716 0 1 0 I I #
point $-1 -55.255592516861476 35.285367766932211 -14.97552488553716 #
straight-curve $-1 -5.4539575548741812 35.285367766932211 0 0 0 -1 I I #
point $-1 -5.4539575548741812 -35.285367766932211 -2.7996329475183872 #
straight-curve $-1 -5.4539575548741812 0 -2.7996329475183872 0 1 0 I I #
point $-1 -5.4539575548741812 35.285367766932211 -2.7996329475183872 #
straight-curve $-1 -5.2345142651683574 35.285367766932211 0 0 0 -1 I I #
point $-1 -5.2345142651683574 -35.285367766932211 -2.4553060195492815 #
straight-curve $-1 -5.2345142651683574 0 -2.4553060195492815 0 1 0 I I #
point $-1 -5.2345142651683574 35.285367766932211 -2.4553060195492815 #
straight-curve $-1 -7.3900873926235562 221.02237006744591 0 0 0 -1 I I #
point $-1 -7.3900873926235562 -221.02237006744591 -110.51118503372295 #
straight-curve $-1 -7.3900873926235562 0 -110.51118503372295 0 1 0 I I #
point $-1 -7.3900873926235562 221.02237006744591 -110.51118503372295 #
vertex $-1 $742 $842 #
straight-curve $-1 -7.3900873926235562 221.02237006744591 0 0 0 -1 I I #
point $-1 -7.3900873926235562 -221.02237006744591 -110.51118503372295 #
straight-curve $-1 -7.3900873926235562 0 -110.51118503372295 0 1 0 I I #
point $-1 -7.3900873926235562 221.02237006744591 -110.51118503372295 #
vertex $-1 $760 $843 #
straight-curve $-1 -9.0838474379053515 221.02237006744591 0 0 0 -1 I I #
point $-1 -9.0838474379053515 -221.02237006744591 -110.51118503372295 #
straight-curve $-1 -9.0838474379053515 0 -110.51118503372295 0 1 0 I I #
point $-1 -9.0838474379053515 221.02237006744591 -110.51118503372295 #
vertex $-1 $778 $844 #
vertex $-1 $780 $845 #
vertex $-1 $782 $846 #
straight-curve $-1 -9.0838474379053515 221.02237006744591 0 0 0 -1 I I #
point $-1 -9.0838474379053515 -221.02237006744591 -110.51118503372295 #
straight-curve $-1 -9.0838474379053515 0 -110.51118503372295 0 1 0 I I #
point $-1 -9.0838474379053515 221.02237006744591 -110.51118503372295 #
vertex $-1 $800 $847 #
vertex $-1 $802 $848 #
vertex $-1 $804 $849 #
point $-1 0 0 1 #
point $-1 0 0 1 #
point $-1 0 0 0.75 #
point $-1 0 0 0.75 #
point $-1 0 0 0.75 #
point $-1 0 0 0.75 #
point $-1 0 0 0.75 #
point $-1 0 0 0.75 #
End-of-ACIS-data 