500 0 8 0           
7 Unknown 11 ACIS 5.0 NT 24 Fri Mar 26 00:02:15 1999 
-1 9.9999999999999995e-007 1e-010 
body $-1 $8 $-1 $9 #
body $-1 $10 $-1 $11 #
body $-1 $12 $-1 $13 #
body $-1 $14 $-1 $15 #
body $-1 $16 $-1 $17 #
body $-1 $18 $-1 $19 #
body $-1 $20 $-1 $21 #
body $-1 $22 $-1 $23 #
lump $-1 $-1 $24 $0 #
transform $-1 1 0 0 0 1 0 0 0 1 52.05359050263985 33.808224810299407 10.196842071450757 1 rotate no_reflect no_shear #
lump $-1 $-1 $25 $1 #
transform $-1 1 0 0 0 1 0 0 0 1 52.05359050263985 33.808224810299407 10.196842071450757 1 rotate no_reflect no_shear #
lump $-1 $-1 $26 $2 #
transform $-1 1 0 0 0 1 0 0 0 1 52.05359050263985 33.808224810299407 10.196842071450757 1 rotate no_reflect no_shear #
lump $-1 $-1 $27 $3 #
transform $-1 1 0 0 0 1 0 0 0 1 52.05359050263985 33.808224810299407 10.196842071450757 1 rotate no_reflect no_shear #
lump $-1 $-1 $28 $4 #
transform $-1 1 0 0 0 1 0 0 0 1 52.05359050263985 33.808224810299407 10.196842071450757 1 rotate no_reflect no_shear #
lump $-1 $-1 $29 $5 #
transform $-1 1 0 0 0 1 0 0 0 1 52.05359050263985 33.808224810299407 10.196842071450757 1 rotate no_reflect no_shear #
lump $-1 $-1 $30 $6 #
transform $-1 1 0 0 0 1 0 0 0 1 52.05359050263985 33.808224810299407 10.196842071450757 1 rotate no_reflect no_shear #
lump $-1 $-1 $31 $7 #
transform $-1 1 0 0 0 1 0 0 0 1 52.05359050263985 33.808224810299407 10.196842071450757 1 rotate no_reflect no_shear #
shell $-1 $-1 $-1 $32 $-1 $8 #
shell $-1 $-1 $-1 $33 $-1 $10 #
shell $-1 $-1 $-1 $34 $-1 $12 #
shell $-1 $-1 $-1 $35 $-1 $14 #
shell $-1 $-1 $-1 $36 $-1 $16 #
shell $-1 $-1 $-1 $37 $-1 $18 #
shell $-1 $-1 $-1 $38 $-1 $20 #
shell $-1 $-1 $-1 $39 $-1 $22 #
face $-1 $40 $41 $24 $-1 $42 forward single #
face $-1 $43 $44 $25 $-1 $45 forward single #
face $-1 $46 $47 $26 $-1 $48 forward single #
face $-1 $49 $50 $27 $-1 $51 reversed single #
face $-1 $52 $53 $28 $-1 $54 forward single #
face $-1 $55 $56 $29 $-1 $57 forward single #
face $-1 $58 $59 $30 $-1 $60 reversed single #
face $-1 $61 $62 $31 $-1 $63 forward single #
face $-1 $64 $65 $24 $-1 $66 reversed single #
loop $-1 $-1 $67 $32 #
plane-surface $-1 0 0 10.196842071450757 0 0 1 1 0 0 forward_v I I I I #
face $-1 $68 $69 $25 $-1 $70 reversed single #
loop $-1 $-1 $71 $33 #
plane-surface $-1 0 -33.808224810299407 0 0 1 0 0 0 1 forward_v I I I I #
face $-1 $72 $73 $26 $-1 $74 reversed single #
loop $-1 $-1 $75 $34 #
plane-surface $-1 0 33.808224810299407 0 0 -1 0 0 0 -1 forward_v I I I I #
face $-1 $76 $77 $27 $-1 $78 reversed single #
loop $-1 $-1 $79 $35 #
plane-surface $-1 21.442797707930652 0.83351827237330944 149.05005525901024 0 -1 0 -0.54463904215088732 0 -0.83867056331134215 forward_v I I I I #
face $-1 $80 $81 $28 $-1 $82 forward single #
loop $-1 $83 $84 $36 #
cone-surface $-1 47.766740480596297 -3.5678317763861358 7.1328128159252033 -0.54463904215088732 0 -0.83867056331134215 0.41933528165567108 0 -0.27231952107544366 1 I I 0 1 0.5 forward I I I I #
face $-1 $85 $86 $29 $-1 $87 forward single #
loop $-1 $88 $89 $37 #
cone-surface $-1 47.766740480596297 -0.92702174713046759 7.1328128159252033 -0.54463904215088732 0 -0.83867056331134215 0.41933528165567108 0 -0.27231952107544366 1 I I 0 1 0.5 forward I I I I #
face $-1 $90 $91 $30 $-1 $92 reversed single #
loop $-1 $-1 $93 $38 #
plane-surface $-1 -123.05451806311638 -16.861940296305246 78.456560263735696 0 1 0 -0.68199836817093118 0 0.7313536940579346 forward_v I I I I #
face $-1 $94 $95 $31 $-1 $96 forward single #
loop $-1 $97 $98 $39 #
cone-surface $-1 -46.782494336389412 -13.662674265973187 5.1351425193837619 0.68199836817093118 0 -0.7313536940579346 1.0970305410869019 0 1.0229975522563968 1 I I 0 1 1.5 forward I I I I #
face $-1 $99 $100 $24 $-1 $101 reversed single #
loop $-1 $-1 $102 $40 #
plane-surface $-1 0 0 -10.196842071450757 0 0 1 1 0 0 forward_v I I I I #
coedge $-1 $103 $104 $105 $106 forward $41 $-1 #
face $-1 $107 $108 $25 $-1 $109 reversed single #
loop $-1 $-1 $110 $43 #
plane-surface $-1 0 0 -10.196842071450757 0 0 1 1 0 0 forward_v I I I I #
coedge $-1 $111 $112 $113 $114 forward $44 $-1 #
face $-1 $115 $116 $26 $-1 $117 forward single #
loop $-1 $-1 $118 $46 #
plane-surface $-1 -52.05359050263985 0 0 1 0 0 0 0 -1 forward_v I I I I #
coedge $-1 $119 $120 $121 $122 forward $47 $-1 #
face $-1 $123 $124 $27 $-1 $125 reversed single #
loop $-1 $-1 $126 $49 #
plane-surface $-1 -35.258037635813935 -2.2474267617583052 61.738427120556452 0.54463904215088732 0 0.83867056331134215 0.83867056331134215 0 -0.54463904215088732 forward_v I I I I #
coedge $-1 $127 $128 $129 $130 reversed $50 $-1 #
face $-1 $-1 $131 $28 $-1 $132 forward single #
loop $-1 $133 $134 $52 #
cone-surface $-1 47.316005008153695 -3.5678317763861358 6.4387410668912572 -0.54463904215088732 0 -0.83867056331134215 0.20966764082783554 0 -0.13615976053772183 1 I I -0.70710678118654746 0.70710678118654746 0.25 forward I I I I #
loop $-1 $-1 $135 $36 #
coedge $-1 $84 $84 $136 $137 reversed $53 $-1 #
face $-1 $-1 $138 $29 $-1 $139 forward single #
loop $-1 $140 $141 $55 #
cone-surface $-1 47.316005008153695 -0.92702174713046759 6.4387410668912572 -0.54463904215088732 0 -0.83867056331134215 0.20966764082783554 0 -0.13615976053772183 1 I I -0.70710678118654746 0.70710678118654746 0.25 forward I I I I #
loop $-1 $-1 $142 $37 #
coedge $-1 $89 $89 $143 $144 reversed $56 $-1 #
face $-1 $145 $146 $30 $-1 $147 reversed single #
loop $-1 $-1 $148 $58 #
plane-surface $-1 -52.053590502639864 -13.662674265973187 2.3173888575663426 -0.68199836817093118 0 0.7313536940579346 0.7313536940579346 0 0.68199836817093118 forward_v I I I I #
coedge $-1 $149 $150 $151 $152 reversed $59 $-1 #
face $-1 $-1 $153 $31 $-1 $154 forward single #
loop $-1 $155 $156 $61 #
cone-surface $-1 -45.224738839437933 -13.662674265973187 3.4646543037155126 0.68199836817093118 0 -0.7313536940579346 0.54851527054345095 0 0.51149877612819838 1 I I -0.70710678118654757 0.70710678118654757 0.75 forward I I I I #
loop $-1 $-1 $157 $39 #
coedge $-1 $98 $98 $158 $159 reversed $62 $-1 #
face $-1 $160 $161 $24 $-1 $162 reversed single #
loop $-1 $-1 $163 $64 #
plane-surface $-1 0 -33.808224810299407 0 0 1 0 0 0 1 forward_v I I I I #
coedge $-1 $164 $165 $166 $167 forward $65 $-1 #
coedge $-1 $168 $67 $169 $170 forward $41 $-1 #
coedge $-1 $67 $168 $171 $172 forward $41 $-1 #
coedge $-1 $173 $174 $67 $106 reversed $175 $-1 #
edge $-1 $176 -33.808224810299407 $177 33.808224810299407 $105 $178 forward 7 unknown #
face $-1 $179 $180 $25 $-1 $181 forward single #
loop $-1 $-1 $182 $68 #
plane-surface $-1 52.05359050263985 0 0 -1 0 0 0 0 1 forward_v I I I I #
coedge $-1 $183 $184 $185 $186 forward $69 $-1 #
coedge $-1 $185 $71 $182 $187 reversed $44 $-1 #
coedge $-1 $71 $185 $188 $189 reversed $44 $-1 #
coedge $-1 $190 $191 $71 $114 reversed $180 $-1 #
edge $-1 $192 -52.05359050263985 $193 52.05359050263985 $113 $194 forward 7 unknown #
face $-1 $195 $196 $26 $-1 $197 reversed single #
loop $-1 $-1 $198 $72 #
plane-surface $-1 0 39.778722151935341 -5.7742376172424414 0 0 1 1 0 0 forward_v I I I I #
coedge $-1 $199 $200 $119 $201 forward $73 $-1 #
coedge $-1 $202 $75 $118 $201 reversed $47 $-1 #
coedge $-1 $75 $202 $203 $204 reversed $47 $-1 #
coedge $-1 $198 $205 $75 $122 reversed $116 $-1 #
edge $-1 $206 -52.05359050263985 $207 52.05359050263985 $121 $208 forward 7 unknown #
face $-1 $209 $210 $27 $-1 $211 forward single #
loop $-1 $-1 $212 $76 #
plane-surface $-1 21.442797707930652 -5.3283717958899199 149.05005525901024 0 1 0 0.54463904215088732 0 0.83867056331134215 forward_v I I I I #
coedge $-1 $213 $214 $215 $216 reversed $77 $-1 #
coedge $-1 $128 $79 $217 $218 reversed $50 $-1 #
coedge $-1 $79 $127 $213 $219 reversed $50 $-1 #
coedge $-1 $215 $220 $79 $130 forward $210 $-1 #
edge $-1 $221 -41.332191648674524 $222 -33.387643028397179 $129 $223 forward 7 unknown #
loop $-1 $-1 $136 $80 #
plane-surface $-1 -35.258037635813935 -2.2474267617583052 61.738427120556452 0.54463904215088732 0 0.83867056331134215 0.83867056331134215 0 -0.54463904215088732 forward_v I I I I #
loop $-1 $-1 $224 $52 #
coedge $-1 $134 $134 $135 $225 reversed $81 $-1 #
coedge $-1 $135 $135 $134 $225 forward $83 $-1 #
coedge $-1 $136 $136 $84 $137 forward $131 $-1 #
edge $-1 $226 0 $226 6.2831853071796004 $136 $227 forward 7 unknown #
loop $-1 $-1 $143 $85 #
plane-surface $-1 -35.258037635813935 -2.2474267617583052 61.738427120556452 0.54463904215088732 0 0.83867056331134215 0.83867056331134215 0 -0.54463904215088732 forward_v I I I I #
loop $-1 $-1 $228 $55 #
coedge $-1 $141 $141 $142 $229 reversed $86 $-1 #
coedge $-1 $142 $142 $141 $229 forward $88 $-1 #
coedge $-1 $143 $143 $89 $144 forward $138 $-1 #
edge $-1 $230 0 $230 6.2831853071796004 $143 $231 forward 7 unknown #
face $-1 $232 $233 $30 $-1 $234 reversed single #
loop $-1 $-1 $235 $90 #
plane-surface $-1 -123.05451806311638 -10.463408235641129 78.456560263735696 0 -1 0 0.68199836817093118 0 -0.7313536940579346 forward_v I I I I #
coedge $-1 $236 $237 $238 $239 reversed $91 $-1 #
coedge $-1 $150 $93 $240 $241 reversed $59 $-1 #
coedge $-1 $93 $149 $236 $242 reversed $59 $-1 #
coedge $-1 $238 $243 $93 $152 forward $244 $-1 #
edge $-1 $245 9.4736685289183384 $246 17.923347419772675 $151 $247 forward 7 unknown #
loop $-1 $-1 $158 $94 #
plane-surface $-1 -52.053590502639864 -13.662674265973187 2.3173888575663426 -0.68199836817093118 0 0.7313536940579346 0.7313536940579346 0 0.68199836817093118 forward_v I I I I #
loop $-1 $-1 $248 $61 #
coedge $-1 $156 $156 $157 $249 reversed $95 $-1 #
coedge $-1 $157 $157 $156 $249 forward $97 $-1 #
coedge $-1 $158 $158 $98 $159 forward $153 $-1 #
edge $-1 $250 0 $250 6.2831853071796004 $158 $251 forward 7 unknown #
face $-1 $252 $253 $24 $-1 $254 reversed single #
loop $-1 $-1 $255 $99 #
plane-surface $-1 -52.05359050263985 0 0 1 0 0 0 0 -1 forward_v I I I I #
coedge $-1 $171 $256 $173 $257 reversed $100 $-1 #
coedge $-1 $258 $102 $256 $259 forward $65 $-1 #
coedge $-1 $102 $258 $260 $261 forward $65 $-1 #
coedge $-1 $174 $173 $102 $167 reversed $175 $-1 #
edge $-1 $262 -33.808224810299407 $263 33.808224810299407 $166 $264 forward 7 unknown #
coedge $-1 $104 $103 $265 $266 forward $41 $-1 #
coedge $-1 $267 $268 $103 $170 reversed $253 $-1 #
edge $-1 $177 -52.05359050263985 $269 52.05359050263985 $169 $270 forward 7 unknown #
coedge $-1 $271 $163 $104 $172 reversed $100 $-1 #
edge $-1 $272 -52.05359050263985 $176 52.05359050263985 $171 $273 forward 7 unknown #
coedge $-1 $166 $105 $163 $257 forward $175 $-1 #
coedge $-1 $105 $166 $267 $274 reversed $175 $-1 #
loop $-1 $-1 $173 $252 #
vertex $-1 $106 $275 #
vertex $-1 $106 $276 #
straight-curve $-1 52.05359050263985 0 10.196842071450757 0 1 0 I I #
face $-1 $277 $278 $25 $-1 $279 reversed single #
loop $-1 $-1 $191 $107 #
plane-surface $-1 0 -39.778722151935348 -5.7742376172424414 0 0 1 1 0 0 forward_v I I I I #
coedge $-1 $280 $281 $111 $187 forward $108 $-1 #
coedge $-1 $282 $110 $281 $283 forward $69 $-1 #
coedge $-1 $110 $282 $284 $285 forward $69 $-1 #
coedge $-1 $112 $111 $110 $186 reversed $44 $-1 #
edge $-1 $286 -52.05359050263985 $287 52.05359050263985 $110 $288 forward 7 unknown #
edge $-1 $287 -10.196842071450757 $193 -5.7742376172424414 $182 $289 forward 7 unknown #
coedge $-1 $284 $290 $112 $189 forward $291 $-1 #
edge $-1 $192 5.7742376172424414 $286 10.196842071450757 $188 $292 forward 7 unknown #
coedge $-1 $293 $113 $290 $294 forward $180 $-1 #
coedge $-1 $113 $293 $280 $295 forward $180 $-1 #
vertex $-1 $189 $296 #
vertex $-1 $295 $297 #
straight-curve $-1 0 -33.808224810299407 -5.7742376172424414 1 0 0 I I #
face $-1 $298 $299 $26 $-1 $300 reversed single #
loop $-1 $-1 $301 $115 #
plane-surface $-1 0 45.749219493571282 -7.985539844346599 0 -1 0 0 0 -1 forward_v I I I I #
coedge $-1 $302 $121 $303 $304 forward $116 $-1 #
coedge $-1 $305 $118 $205 $306 reversed $73 $-1 #
coedge $-1 $118 $305 $307 $308 reversed $73 $-1 #
edge $-1 $309 -10.196842071450757 $207 -5.7742376172424414 $118 $310 forward 7 unknown #
coedge $-1 $120 $119 $311 $312 reversed $47 $-1 #
coedge $-1 $313 $303 $120 $204 forward $314 $-1 #
edge $-1 $206 5.7742376172424414 $315 10.196842071450757 $203 $316 forward 7 unknown #
coedge $-1 $121 $302 $199 $306 forward $116 $-1 #
vertex $-1 $204 $317 #
vertex $-1 $306 $318 #
straight-curve $-1 0 33.808224810299407 -5.7742376172424414 -1 0 0 I I #
face $-1 $-1 $319 $27 $-1 $320 reversed single #
loop $-1 $-1 $129 $123 #
plane-surface $-1 0 0 10.196842071450757 0 0 1 1 0 0 forward_v I I I I #
coedge $-1 $321 $322 $323 $324 reversed $124 $-1 #
coedge $-1 $325 $126 $128 $219 forward $77 $-1 #
coedge $-1 $126 $325 $321 $326 forward $77 $-1 #
coedge $-1 $323 $129 $126 $216 forward $210 $-1 #
edge $-1 $222 -1.9572316532524621 $327 4.2046584150107673 $215 $328 forward 7 unknown #
coedge $-1 $329 $330 $127 $218 forward $319 $-1 #
edge $-1 $331 -69.487435852693253 $221 -64.328185558054358 $217 $332 forward 7 unknown #
edge $-1 $222 94.634392799968538 $331 104.1071810052797 $128 $333 forward 7 unknown #
coedge $-1 $129 $323 $329 $334 forward $210 $-1 #
vertex $-1 $218 $335 #
vertex $-1 $130 $336 #
straight-curve $-1 10.721398853965326 0.83351827237330944 10.19684207145076 -1 0 0 I I #
coedge $-1 $224 $224 $-1 $337 reversed $133 $-1 #
edge $-1 $338 0 $338 6.2831853071796004 $134 $339 forward 7 unknown #
vertex $-1 $137 $340 #
ellipse-curve $-1 48.081316192501177 -3.5678317763861358 7.6172169241313119 0.54463904215088732 0 0.83867056331134215 0.41933528165567108 0 -0.27231952107544366 1 I I #
coedge $-1 $228 $228 $-1 $341 reversed $140 $-1 #
edge $-1 $342 0 $342 6.2831853071796004 $141 $343 forward 7 unknown #
vertex $-1 $144 $344 #
ellipse-curve $-1 48.081316192501177 -0.92702174713046759 7.6172169241313119 0.54463904215088732 0 0.83867056331134215 0.41933528165567108 0 -0.27231952107544366 1 I I #
face $-1 $-1 $244 $30 $-1 $345 forward single #
loop $-1 $-1 $346 $145 #
plane-surface $-1 -52.05359050263985 0 0 1 0 0 0 0 -1 forward_v I I I I #
coedge $-1 $347 $348 $349 $350 reversed $146 $-1 #
coedge $-1 $351 $148 $150 $242 forward $91 $-1 #
coedge $-1 $148 $351 $347 $352 forward $91 $-1 #
coedge $-1 $349 $151 $148 $239 forward $244 $-1 #
edge $-1 $246 -10.030603163318652 $353 -3.6320711026545354 $238 $354 forward 7 unknown #
coedge $-1 $355 $356 $149 $241 forward $233 $-1 #
edge $-1 $357 -36.910891274301491 $245 -29.031438060417091 $240 $358 forward 7 unknown #
edge $-1 $246 -11.553478104378051 $357 -1.9479204584885432e-014 $150 $359 forward 7 unknown #
coedge $-1 $151 $349 $355 $360 forward $244 $-1 #
loop $-1 $-1 $349 $232 #
vertex $-1 $241 $361 #
vertex $-1 $152 $362 #
straight-curve $-1 -61.527259031558188 -16.861940296305246 10.19684207145076 1 0 0 I I #
coedge $-1 $248 $248 $-1 $363 reversed $155 $-1 #
edge $-1 $364 0 $364 6.2831853071796004 $156 $365 forward 7 unknown #
vertex $-1 $159 $366 #
ellipse-curve $-1 -47.828751057212685 -13.662674265973187 6.2571154645085532 -0.68199836817093118 0 0.7313536940579346 1.0970305410869019 0 1.0229975522563968 1 I I #
face $-1 $-1 $175 $24 $-1 $367 reversed single #
loop $-1 $-1 $268 $160 #
plane-surface $-1 0 33.808224810299407 0 0 -1 0 0 0 -1 forward_v I I I I #
coedge $-1 $368 $265 $268 $369 forward $161 $-1 #
coedge $-1 $163 $271 $164 $259 reversed $100 $-1 #
edge $-1 $176 -10.196842071450757 $263 10.196842071450757 $173 $370 forward 7 unknown #
coedge $-1 $165 $164 $368 $371 forward $65 $-1 #
edge $-1 $263 -52.05359050263985 $372 52.05359050263985 $256 $373 forward 7 unknown #
coedge $-1 $268 $267 $165 $261 reversed $253 $-1 #
edge $-1 $374 -52.05359050263985 $262 52.05359050263985 $260 $375 forward 7 unknown #
vertex $-1 $167 $376 #
vertex $-1 $257 $377 #
straight-curve $-1 52.05359050263985 0 -10.196842071450757 0 -1 0 I I #
coedge $-1 $255 $378 $168 $266 reversed $161 $-1 #
edge $-1 $269 -33.808224810299407 $272 33.808224810299407 $265 $379 forward 7 unknown #
coedge $-1 $260 $169 $174 $274 forward $253 $-1 #
coedge $-1 $169 $260 $255 $369 reversed $253 $-1 #
vertex $-1 $170 $380 #
straight-curve $-1 0 33.808224810299407 10.196842071450757 -1 0 0 I I #
coedge $-1 $256 $171 $378 $381 forward $100 $-1 #
vertex $-1 $266 $382 #
straight-curve $-1 0 -33.808224810299407 10.196842071450757 1 0 0 I I #
edge $-1 $177 -10.196842071450757 $262 10.196842071450757 $174 $383 forward 7 unknown #
point $-1 52.05359050263985 -33.808224810299407 10.196842071450757 #
point $-1 52.05359050263985 33.808224810299407 10.196842071450757 #
face $-1 $-1 $291 $25 $-1 $384 reversed single #
loop $-1 $-1 $385 $179 #
plane-surface $-1 0 -45.749219493571289 -7.985539844346599 0 1 0 0 0 1 forward_v I I I I #
coedge $-1 $386 $182 $191 $295 reversed $108 $-1 #
coedge $-1 $182 $386 $183 $283 reversed $108 $-1 #
coedge $-1 $184 $183 $387 $388 forward $69 $-1 #
edge $-1 $287 33.808224810299407 $389 45.749219493571289 $281 $390 forward 7 unknown #
coedge $-1 $391 $188 $184 $285 reversed $291 $-1 #
edge $-1 $392 -45.749219493571289 $286 -33.808224810299407 $284 $393 forward 7 unknown #
vertex $-1 $189 $394 #
vertex $-1 $283 $395 #
straight-curve $-1 0 -33.808224810299407 -10.196842071450757 1 0 0 I I #
straight-curve $-1 52.05359050263985 -33.808224810299407 0 0 0 1 I I #
coedge $-1 $188 $391 $190 $294 reversed $291 $-1 #
loop $-1 $-1 $188 $277 #
straight-curve $-1 -52.05359050263985 -33.808224810299407 0 0 0 -1 I I #
coedge $-1 $191 $190 $396 $397 forward $180 $-1 #
edge $-1 $192 -5.9704973416359408 $398 5.9704973416359408 $290 $399 forward 7 unknown #
edge $-1 $400 -5.9704973416359408 $193 5.9704973416359408 $280 $401 forward 7 unknown #
point $-1 -52.05359050263985 -33.808224810299407 -5.7742376172424414 #
point $-1 52.05359050263985 -33.808224810299407 -5.7742376172424414 #
face $-1 $-1 $314 $26 $-1 $402 reversed single #
loop $-1 $-1 $311 $195 #
plane-surface $-1 0 0 -10.196842071450757 0 0 1 1 0 0 forward_v I I I I #
coedge $-1 $403 $404 $405 $406 forward $196 $-1 #
coedge $-1 $205 $198 $404 $407 forward $116 $-1 #
coedge $-1 $203 $405 $198 $304 reversed $314 $-1 #
edge $-1 $206 -5.9704973416359408 $408 5.9704973416359408 $303 $409 forward 7 unknown #
coedge $-1 $200 $199 $410 $411 forward $73 $-1 #
edge $-1 $412 -5.9704973416359408 $207 5.9704973416359408 $199 $413 forward 7 unknown #
coedge $-1 $414 $311 $200 $308 forward $299 $-1 #
edge $-1 $309 -5.9704973416359337 $415 5.9704973416359408 $200 $416 forward 7 unknown #
vertex $-1 $308 $417 #
straight-curve $-1 -52.05359050263985 33.808224810299407 0 0 0 1 I I #
coedge $-1 $307 $418 $202 $312 forward $299 $-1 #
edge $-1 $315 -52.05359050263985 $309 52.05359050263985 $311 $419 forward 7 unknown #
coedge $-1 $405 $203 $418 $420 reversed $314 $-1 #
loop $-1 $-1 $203 $298 #
vertex $-1 $204 $421 #
straight-curve $-1 52.05359050263985 33.808224810299407 0 0 0 -1 I I #
point $-1 52.05359050263985 33.8082248102994 -5.7742376172424414 #
point $-1 -52.05359050263985 33.8082248102994 -5.7742376172424414 #
loop $-1 $-1 $217 $209 #
plane-surface $-1 52.05359050263985 0 0 -1 0 0 0 0 1 forward_v I I I I #
coedge $-1 $322 $212 $214 $326 reversed $124 $-1 #
coedge $-1 $212 $321 $422 $423 reversed $124 $-1 #
coedge $-1 $220 $215 $212 $324 forward $210 $-1 #
edge $-1 $327 33.387643028397179 $424 41.332191648674524 $323 $425 forward 7 unknown #
coedge $-1 $214 $213 $330 $426 reversed $77 $-1 #
edge $-1 $427 -104.1071810052797 $327 -94.634392799968538 $321 $428 forward 7 unknown #
vertex $-1 $216 $429 #
straight-curve $-1 44.109041882362519 -1.1237133808791526 10.196842071450746 0 -1 0 I I #
coedge $-1 $422 $217 $220 $334 reversed $319 $-1 #
coedge $-1 $217 $422 $325 $426 forward $319 $-1 #
vertex $-1 $218 $430 #
straight-curve $-1 52.05359050263985 0.83351827237330944 74.525027629505118 0 0 1 I I #
straight-curve $-1 -35.258037635813935 0.83351827237330944 61.738427120556452 0.83867056331134215 0 -0.54463904215088732 I I #
edge $-1 $424 -5.3283717958899199 $221 0.83351827237330944 $329 $431 forward 7 unknown #
point $-1 52.05359050263985 0.83351827237330944 10.196842071450757 #
point $-1 44.109041882362504 0.83351827237330944 10.19684207145076 #
edge $-1 $432 1 $432 0 $224 $-1 forward 7 unknown #
vertex $-1 $225 $433 #
ellipse-curve $-1 47.452164768691418 -3.5678317763861358 6.648408707719093 0.54463904215088732 0 0.83867056331134215 0.41933528165567108 0 -0.27231952107544366 1 I I #
point $-1 48.500651474156847 -3.5678317763861358 7.34489740305587 #
edge $-1 $434 1 $434 0 $228 $-1 forward 7 unknown #
vertex $-1 $229 $435 #
ellipse-curve $-1 47.452164768691418 -0.92702174713046759 6.648408707719093 0.54463904215088732 0 0.83867056331134215 0.41933528165567108 0 -0.27231952107544366 1 I I #
point $-1 48.500651474156847 -0.92702174713046759 7.34489740305587 #
plane-surface $-1 0 0 10.196842071450757 0 0 1 1 0 0 forward_v I I I I #
coedge $-1 $356 $355 $348 $436 forward $233 $-1 #
coedge $-1 $348 $235 $237 $352 reversed $146 $-1 #
coedge $-1 $235 $347 $346 $436 reversed $146 $-1 #
coedge $-1 $243 $238 $235 $350 forward $244 $-1 #
edge $-1 $353 -17.923347419772675 $437 -9.4736685289183384 $349 $438 forward 7 unknown #
coedge $-1 $237 $236 $356 $439 reversed $91 $-1 #
edge $-1 $440 1.9479204584885432e-014 $353 11.553478104378051 $347 $441 forward 7 unknown #
vertex $-1 $239 $442 #
straight-curve $-1 -43.603911611785513 -6.8313371329865937 10.196842071450757 0 1 0 I I #
coedge $-1 $346 $240 $243 $360 reversed $233 $-1 #
coedge $-1 $240 $346 $351 $439 forward $233 $-1 #
vertex $-1 $241 $443 #
straight-curve $-1 -52.05359050263985 -16.861940296305246 39.228280131867848 0 0 1 I I #
straight-curve $-1 -52.053590502639864 -16.861940296305246 2.3173888575663426 -0.7313536940579346 0 -0.68199836817093118 I I #
edge $-1 $437 10.463408235641129 $245 16.861940296305246 $355 $444 forward 7 unknown #
point $-1 -52.05359050263985 -16.861940296305246 10.196842071450757 #
point $-1 -43.603911611785513 -16.861940296305246 10.196842071450757 #
edge $-1 $445 1 $445 0 $248 $-1 forward 7 unknown #
vertex $-1 $249 $446 #
ellipse-curve $-1 -45.736237615566132 -13.662674265973187 4.0131695742589635 -0.68199836817093118 0 0.7313536940579346 1.0970305410869019 0 1.0229975522563968 1 I I #
point $-1 -46.73172051612579 -13.662674265973187 7.2801130167649575 #
plane-surface $-1 52.05359050263985 0 0 -1 0 0 0 0 1 forward_v I I I I #
coedge $-1 $378 $255 $258 $371 reversed $161 $-1 #
edge $-1 $269 -10.196842071450757 $374 10.196842071450757 $268 $447 forward 7 unknown #
straight-curve $-1 52.05359050263985 -33.808224810299407 0 0 0 -1 I I #
edge $-1 $372 -33.808224810299407 $374 33.808224810299407 $368 $448 forward 7 unknown #
vertex $-1 $371 $449 #
straight-curve $-1 0 -33.808224810299407 -10.196842071450757 -1 0 0 I I #
vertex $-1 $261 $450 #
straight-curve $-1 0 33.808224810299407 -10.196842071450757 1 0 0 I I #
point $-1 52.05359050263985 33.808224810299407 -10.196842071450757 #
point $-1 52.05359050263985 -33.808224810299407 -10.196842071450757 #
coedge $-1 $265 $368 $271 $381 reversed $161 $-1 #
straight-curve $-1 -52.05359050263985 0 10.196842071450757 0 -1 0 I I #
point $-1 -52.05359050263985 33.808224810299407 10.196842071450757 #
edge $-1 $272 -10.196842071450757 $372 10.196842071450757 $378 $451 forward 7 unknown #
point $-1 -52.05359050263985 -33.808224810299407 10.196842071450757 #
straight-curve $-1 52.05359050263985 33.808224810299407 0 0 0 -1 I I #
plane-surface $-1 -52.05359050263985 0 0 1 0 0 0 0 -1 forward_v I I I I #
coedge $-1 $387 $396 $391 $452 forward $278 $-1 #
coedge $-1 $281 $280 $453 $454 forward $108 $-1 #
coedge $-1 $453 $385 $282 $388 reversed $278 $-1 #
edge $-1 $389 -52.05359050263985 $392 52.05359050263985 $387 $455 forward 7 unknown #
vertex $-1 $454 $456 #
straight-curve $-1 52.05359050263985 0 -10.196842071450757 0 -1 0 I I #
coedge $-1 $290 $284 $385 $452 reversed $291 $-1 #
vertex $-1 $285 $457 #
straight-curve $-1 -52.05359050263985 0 -10.196842071450757 0 1 0 I I #
point $-1 -52.05359050263985 -33.808224810299407 -10.196842071450757 #
point $-1 52.05359050263985 -33.808224810299407 -10.196842071450757 #
coedge $-1 $385 $453 $293 $397 reversed $278 $-1 #
edge $-1 $398 -52.05359050263985 $400 52.05359050263985 $396 $458 forward 7 unknown #
vertex $-1 $294 $459 #
straight-curve $-1 -52.05359050263985 -39.778722151935348 -5.7742376172424414 0 -1 0 I I #
vertex $-1 $295 $460 #
straight-curve $-1 52.05359050263985 -39.778722151935348 -5.7742376172424414 0 1 0 I I #
plane-surface $-1 52.05359050263985 0 0 -1 0 0 0 0 1 forward_v I I I I #
coedge $-1 $410 $301 $414 $461 reversed $196 $-1 #
coedge $-1 $301 $410 $302 $407 reversed $196 $-1 #
coedge $-1 $303 $313 $301 $406 reversed $314 $-1 #
edge $-1 $408 -2.2113022271041576 $462 2.2113022271041576 $405 $463 forward 7 unknown #
edge $-1 $408 -52.05359050263985 $412 52.05359050263985 $404 $464 forward 7 unknown #
vertex $-1 $304 $465 #
straight-curve $-1 52.05359050263985 39.778722151935341 -5.7742376172424414 0 1 0 I I #
coedge $-1 $404 $403 $305 $411 reversed $196 $-1 #
edge $-1 $412 -2.2113022271041576 $415 2.2113022271041576 $410 $466 forward 7 unknown #
vertex $-1 $407 $467 #
straight-curve $-1 -52.05359050263985 39.778722151935341 -5.7742376172424414 0 -1 0 I I #
coedge $-1 $418 $307 $403 $461 forward $299 $-1 #
vertex $-1 $461 $468 #
straight-curve $-1 -52.05359050263985 39.778722151935341 -10.196842071450757 0 1 0 I I #
point $-1 -52.05359050263985 33.808224810299407 -10.196842071450757 #
coedge $-1 $311 $414 $313 $420 forward $299 $-1 #
straight-curve $-1 0 33.808224810299407 -10.196842071450757 -1 0 0 I I #
edge $-1 $462 -45.749219493571282 $315 -33.808224810299407 $313 $469 forward 7 unknown #
point $-1 52.05359050263985 33.808224810299407 -10.196842071450757 #
coedge $-1 $330 $329 $322 $423 forward $319 $-1 #
edge $-1 $424 64.328185558054358 $427 69.487435852693253 $422 $470 forward 7 unknown #
vertex $-1 $334 $471 #
straight-curve $-1 10.721398853965326 -5.3283717958899199 10.19684207145076 1 0 0 I I #
edge $-1 $427 -4.2046584150107673 $331 1.9572316532524621 $330 $472 forward 7 unknown #
vertex $-1 $426 $473 #
straight-curve $-1 -35.258037635813935 -5.3283717958899199 61.738427120556452 -0.83867056331134215 0 0.54463904215088732 I I #
point $-1 44.109041882362504 -5.3283717958899199 10.19684207145076 #
point $-1 52.05359050263985 0.83351827237330944 5.0375917768118654 #
straight-curve $-1 52.05359050263985 0 10.196842071450757 0 1 0 I I #
vertex $-1 $337 $474 #
point $-1 47.871500050347088 -3.5678317763861358 6.3760891866436493 #
vertex $-1 $341 $475 #
point $-1 47.871500050347088 -0.92702174713046759 6.3760891866436493 #
edge $-1 $437 29.031438060417091 $440 36.910891274301491 $346 $476 forward 7 unknown #
vertex $-1 $360 $477 #
straight-curve $-1 -61.527259031558188 -10.463408235641129 10.19684207145076 -1 0 0 I I #
edge $-1 $440 3.6320711026545354 $357 10.030603163318652 $356 $478 forward 7 unknown #
vertex $-1 $439 $479 #
straight-curve $-1 -52.053590502639864 -10.463408235641129 2.3173888575663426 0.7313536940579346 0 0.68199836817093118 I I #
point $-1 -43.603911611785513 -10.463408235641129 10.196842071450757 #
point $-1 -52.05359050263985 -16.861940296305246 2.3173888575663559 #
straight-curve $-1 -52.05359050263985 0 10.196842071450757 0 -1 0 I I #
vertex $-1 $363 $480 #
point $-1 -44.639207074479231 -13.662674265973187 5.0361671265153607 #
straight-curve $-1 -52.05359050263985 33.808224810299407 0 0 0 -1 I I #
straight-curve $-1 -52.05359050263985 0 -10.196842071450757 0 1 0 I I #
point $-1 -52.05359050263985 -33.808224810299407 -10.196842071450757 #
point $-1 -52.05359050263985 33.808224810299407 -10.196842071450757 #
straight-curve $-1 -52.05359050263985 -33.808224810299407 0 0 0 -1 I I #
edge $-1 $398 -2.2113022271041576 $392 2.2113022271041576 $391 $481 forward 7 unknown #
coedge $-1 $396 $387 $386 $454 reversed $278 $-1 #
edge $-1 $400 -2.2113022271041576 $389 2.2113022271041576 $386 $482 forward 7 unknown #
straight-curve $-1 0 -45.749219493571289 -10.196842071450757 -1 0 0 I I #
point $-1 52.05359050263985 -45.749219493571289 -10.196842071450757 #
point $-1 -52.05359050263985 -45.749219493571289 -10.196842071450757 #
straight-curve $-1 0 -45.749219493571289 -5.7742376172424414 1 0 0 I I #
point $-1 -52.05359050263985 -45.749219493571289 -5.7742376172424414 #
point $-1 52.05359050263985 -45.749219493571289 -5.7742376172424414 #
edge $-1 $415 -52.05359050263985 $462 52.05359050263985 $403 $483 forward 7 unknown #
vertex $-1 $420 $484 #
straight-curve $-1 52.05359050263985 45.749219493571282 -7.985539844346599 0 0 -1 I I #
straight-curve $-1 0 45.749219493571282 -5.7742376172424414 -1 0 0 I I #
point $-1 52.05359050263985 45.749219493571282 -5.7742376172424414 #
straight-curve $-1 -52.05359050263985 45.749219493571282 -7.985539844346599 0 0 -1 I I #
point $-1 -52.05359050263985 45.749219493571282 -5.7742376172424414 #
point $-1 -52.05359050263985 45.749219493571282 -10.196842071450757 #
straight-curve $-1 52.05359050263985 0 -10.196842071450757 0 -1 0 I I #
straight-curve $-1 52.05359050263985 -5.3283717958899199 74.525027629505118 0 0 -1 I I #
point $-1 52.05359050263985 -5.3283717958899199 10.196842071450757 #
straight-curve $-1 52.05359050263985 -1.1237133808791526 5.0375917768118654 0 1 0 I I #
point $-1 52.05359050263985 -5.3283717958899199 5.0375917768118654 #
point $-1 47.179845247615972 -3.5678317763861358 6.2290734260634215 #
point $-1 47.179845247615972 -0.92702174713046759 6.2290734260634215 #
straight-curve $-1 -52.05359050263985 -10.463408235641129 39.228280131867848 0 0 -1 I I #
point $-1 -52.05359050263985 -10.463408235641129 10.196842071450757 #
straight-curve $-1 -52.05359050263985 -6.8313371329865937 2.3173888575663546 0 -1 0 I I #
point $-1 -52.05359050263985 -10.463408235641129 2.3173888575663559 #
point $-1 -44.713240063309733 -13.662674265973187 2.9161390331720618 #
straight-curve $-1 -52.05359050263985 -45.749219493571289 -7.985539844346599 0 0 -1 I I #
straight-curve $-1 52.05359050263985 -45.749219493571289 -7.985539844346599 0 0 -1 I I #
straight-curve $-1 0 45.749219493571282 -10.196842071450757 1 0 0 I I #
point $-1 52.05359050263985 45.749219493571282 -10.196842071450757 #
End-of-ACIS-data 