500 0 6 0           
7 Unknown 11 ACIS 5.0 NT 24 Thu Mar 25 15:07:55 1999 
-1 9.9999999999999995e-007 1e-010 
body $-1 $6 $-1 $7 #
body $-1 $8 $-1 $9 #
body $-1 $10 $-1 $11 #
body $-1 $12 $-1 $13 #
body $-1 $14 $-1 $15 #
body $-1 $16 $-1 $17 #
lump $-1 $-1 $18 $0 #
transform $-1 1 0 0 0 1 0 0 0 1 67.434919278542438 45.809727933742231 19.228286235612369 1 rotate no_reflect no_shear #
lump $-1 $-1 $19 $1 #
transform $-1 1 0 0 0 1 0 0 0 1 67.434919278542438 45.809727933742231 19.228286235612369 1 rotate no_reflect no_shear #
lump $-1 $-1 $20 $2 #
transform $-1 1 0 0 0 1 0 0 0 1 67.434919278542438 45.809727933742231 19.228286235612369 1 rotate no_reflect no_shear #
lump $-1 $-1 $21 $3 #
transform $-1 1 0 0 0 1 0 0 0 1 67.434919278542438 45.809727933742231 19.228286235612369 1 rotate no_reflect no_shear #
lump $-1 $-1 $22 $4 #
transform $-1 1 0 0 0 1 0 0 0 1 67.434919278542438 45.809727933742231 19.228286235612369 1 rotate no_reflect no_shear #
lump $-1 $-1 $23 $5 #
transform $-1 1 0 0 0 1 0 0 0 1 67.434919278542438 45.809727933742231 19.228286235612369 1 rotate no_reflect no_shear #
shell $-1 $-1 $-1 $24 $-1 $6 #
shell $-1 $-1 $-1 $25 $-1 $8 #
shell $-1 $-1 $-1 $26 $-1 $10 #
shell $-1 $-1 $-1 $27 $-1 $12 #
shell $-1 $-1 $-1 $28 $-1 $14 #
shell $-1 $-1 $-1 $29 $-1 $16 #
face $-1 $30 $31 $18 $-1 $32 forward single #
face $-1 $33 $34 $19 $-1 $35 forward single #
face $-1 $36 $37 $20 $-1 $38 reversed single #
face $-1 $39 $40 $21 $-1 $41 forward single #
face $-1 $42 $43 $22 $-1 $44 reversed single #
face $-1 $45 $46 $23 $-1 $47 forward single #
face $-1 $48 $49 $18 $-1 $50 reversed single #
loop $-1 $-1 $51 $24 #
plane-surface $-1 0 0 19.228286235612369 0 0 1 1 0 0 forward_v I I I I #
face $-1 $52 $53 $19 $-1 $54 reversed single #
loop $-1 $-1 $55 $25 #
plane-surface $-1 0 -34.986427412540365 -9.7402504426156931 0 0 1 1 0 0 forward_v I I I I #
face $-1 $56 $57 $20 $-1 $58 reversed single #
loop $-1 $-1 $59 $26 #
plane-surface $-1 -33.652632222746234 65.14622389105196 174.55177899682883 1 0 0 0 -0.6560590369687036 -0.75470957328743171 forward_v I I I I #
face $-1 $60 $61 $21 $-1 $62 forward single #
loop $-1 $63 $64 $27 #
cone-surface $-1 -16.826316111373117 41.442837669050292 15.267247085765497 0 -0.6560590369687036 -0.75470957328743171 1.5 0 0 1 I I 0 1 1.5 forward I I I I #
face $-1 $65 $66 $22 $-1 $67 reversed single #
loop $-1 $-1 $68 $28 #
plane-surface $-1 33.782287055796203 65.14622389105196 174.55177899682883 1 0 0 0 -0.6560590369687036 -0.75470957328743171 forward_v I I I I #
face $-1 $69 $70 $23 $-1 $71 forward single #
loop $-1 $72 $73 $29 #
cone-surface $-1 50.608603167169321 41.442837669050292 15.267247085765497 0 -0.6560590369687036 -0.75470957328743171 1.5 0 0 1 I I 0 1 1.5 forward I I I I #
face $-1 $74 $75 $18 $-1 $76 reversed single #
loop $-1 $-1 $77 $30 #
plane-surface $-1 0 0 -19.228286235612369 0 0 1 1 0 0 forward_v I I I I #
coedge $-1 $78 $79 $80 $81 forward $31 $-1 #
face $-1 $82 $83 $19 $-1 $84 reversed single #
loop $-1 $-1 $85 $33 #
plane-surface $-1 0 -24.163126891338496 -14.484268339114031 0 -1 0 0 0 -1 forward_v I I I I #
coedge $-1 $86 $87 $88 $89 reversed $34 $-1 #
face $-1 $90 $91 $20 $-1 $92 reversed single #
loop $-1 $-1 $93 $36 #
plane-surface $-1 -16.826316111373117 -23.33635250883367 72.764220690066495 0 0.6560590369687036 0.75470957328743171 1 0 0 forward_v I I I I #
coedge $-1 $94 $95 $96 $97 reversed $37 $-1 #
face $-1 $-1 $98 $21 $-1 $99 forward single #
loop $-1 $100 $101 $39 #
cone-surface $-1 -16.826316111373117 40.363920181627783 14.026094520735239 0 -0.6560590369687036 -0.75470957328743171 0.75 0 0 1 I I -0.70710678118654757 0.70710678118654757 0.75 forward I I I I #
loop $-1 $-1 $102 $27 #
coedge $-1 $64 $64 $103 $104 reversed $40 $-1 #
face $-1 $105 $106 $22 $-1 $107 forward single #
loop $-1 $-1 $108 $42 #
plane-surface $-1 50.608603167169321 -23.33635250883367 72.764220690066495 0 0.6560590369687036 0.75470957328743171 1 0 0 forward_v I I I I #
coedge $-1 $109 $110 $111 $112 reversed $43 $-1 #
face $-1 $-1 $113 $23 $-1 $114 forward single #
loop $-1 $115 $116 $45 #
cone-surface $-1 50.608603167169321 40.363920181627783 14.026094520735239 0 -0.6560590369687036 -0.75470957328743171 0.75 0 0 1 I I -0.70710678118654757 0.70710678118654757 0.75 forward I I I I #
loop $-1 $-1 $117 $29 #
coedge $-1 $73 $73 $118 $119 reversed $46 $-1 #
face $-1 $120 $121 $18 $-1 $122 reversed single #
loop $-1 $-1 $123 $48 #
plane-surface $-1 0 -45.809727933742231 0 0 1 0 0 0 1 forward_v I I I I #
coedge $-1 $124 $125 $126 $127 forward $49 $-1 #
coedge $-1 $128 $51 $129 $130 forward $31 $-1 #
coedge $-1 $51 $128 $131 $132 forward $31 $-1 #
coedge $-1 $133 $134 $51 $81 reversed $135 $-1 #
edge $-1 $136 -45.809727933742231 $137 45.809727933742231 $80 $138 forward 7 unknown #
face $-1 $139 $140 $19 $-1 $141 reversed single #
loop $-1 $-1 $142 $52 #
plane-surface $-1 0 0 -19.228286235612369 0 0 1 1 0 0 forward_v I I I I #
coedge $-1 $143 $144 $145 $146 reversed $53 $-1 #
coedge $-1 $147 $55 $144 $148 forward $34 $-1 #
coedge $-1 $55 $147 $149 $150 reversed $34 $-1 #
coedge $-1 $151 $145 $55 $89 forward $140 $-1 #
edge $-1 $152 6.6699131850683138 $153 28.316514227472055 $88 $154 forward 7 unknown #
face $-1 $155 $156 $20 $-1 $157 reversed single #
loop $-1 $-1 $158 $56 #
plane-surface $-1 0 65.14622389105196 174.55177899682883 -1 0 0 0 0.6560590369687036 0.75470957328743171 forward_v I I I I #
coedge $-1 $159 $160 $161 $162 reversed $57 $-1 #
coedge $-1 $95 $59 $163 $164 reversed $37 $-1 #
coedge $-1 $59 $94 $159 $165 reversed $37 $-1 #
coedge $-1 $161 $166 $59 $97 forward $167 $-1 #
edge $-1 $168 -13.236615988216251 $169 -5.6765818782242974 $96 $170 forward 7 unknown #
loop $-1 $-1 $103 $60 #
plane-surface $-1 -16.826316111373117 -23.33635250883367 72.764220690066495 0 0.6560590369687036 0.75470957328743171 1 0 0 forward_v I I I I #
loop $-1 $-1 $171 $39 #
coedge $-1 $101 $101 $102 $172 reversed $61 $-1 #
coedge $-1 $102 $102 $101 $172 forward $63 $-1 #
coedge $-1 $103 $103 $64 $104 forward $98 $-1 #
edge $-1 $173 9.3460562613480246e-016 $173 6.2831853071796013 $103 $174 forward 7 unknown #
face $-1 $175 $176 $22 $-1 $177 reversed single #
loop $-1 $-1 $111 $65 #
plane-surface $-1 0 0 19.228286235612369 0 0 1 1 0 0 forward_v I I I I #
coedge $-1 $178 $179 $180 $181 reversed $66 $-1 #
coedge $-1 $110 $68 $182 $183 reversed $43 $-1 #
coedge $-1 $68 $109 $178 $184 reversed $43 $-1 #
coedge $-1 $180 $185 $68 $112 forward $106 $-1 #
edge $-1 $186 -13.236615988216251 $187 -5.6765818782242974 $111 $188 forward 7 unknown #
loop $-1 $-1 $118 $69 #
plane-surface $-1 50.608603167169321 -23.33635250883367 72.764220690066495 0 0.6560590369687036 0.75470957328743171 1 0 0 forward_v I I I I #
loop $-1 $-1 $189 $45 #
coedge $-1 $116 $116 $117 $190 reversed $70 $-1 #
coedge $-1 $117 $117 $116 $190 forward $72 $-1 #
coedge $-1 $118 $118 $73 $119 forward $113 $-1 #
edge $-1 $191 9.3460562613480246e-016 $191 6.2831853071796013 $118 $192 forward 7 unknown #
face $-1 $193 $194 $18 $-1 $195 reversed single #
loop $-1 $-1 $196 $74 #
plane-surface $-1 -67.434919278542438 0 0 1 0 0 0 0 -1 forward_v I I I I #
coedge $-1 $197 $131 $198 $199 forward $75 $-1 #
coedge $-1 $200 $77 $197 $201 forward $49 $-1 #
coedge $-1 $77 $200 $202 $203 forward $49 $-1 #
coedge $-1 $134 $133 $77 $127 reversed $135 $-1 #
edge $-1 $204 -45.809727933742231 $205 45.809727933742231 $126 $206 forward 7 unknown #
coedge $-1 $79 $78 $207 $208 forward $31 $-1 #
coedge $-1 $209 $210 $78 $130 reversed $194 $-1 #
edge $-1 $137 -67.434919278542438 $211 67.434919278542438 $129 $212 forward 7 unknown #
coedge $-1 $123 $213 $79 $132 reversed $75 $-1 #
edge $-1 $214 -67.434919278542438 $136 67.434919278542438 $131 $215 forward 7 unknown #
coedge $-1 $126 $80 $213 $216 forward $135 $-1 #
coedge $-1 $80 $126 $209 $217 reversed $135 $-1 #
loop $-1 $-1 $133 $193 #
vertex $-1 $81 $218 #
vertex $-1 $81 $219 #
straight-curve $-1 67.434919278542438 0 19.228286235612369 0 1 0 I I #
face $-1 $220 $221 $19 $-1 $222 reversed single #
loop $-1 $-1 $145 $82 #
plane-surface $-1 67.434919278542438 0 0 -1 0 0 0 0 1 forward_v I I I I #
coedge $-1 $223 $224 $143 $225 forward $83 $-1 #
coedge $-1 $226 $85 $142 $225 reversed $53 $-1 #
coedge $-1 $85 $226 $86 $148 reversed $53 $-1 #
coedge $-1 $88 $227 $85 $146 forward $140 $-1 #
edge $-1 $228 -11.986152066055354 $152 -2.4981162730586775 $145 $229 forward 7 unknown #
coedge $-1 $87 $86 $230 $231 reversed $34 $-1 #
edge $-1 $152 -67.434919278542438 $232 67.434919278542438 $144 $233 forward 7 unknown #
coedge $-1 $234 $235 $87 $150 forward $221 $-1 #
edge $-1 $153 -67.434919278542438 $236 67.434919278542438 $149 $237 forward 7 unknown #
coedge $-1 $227 $88 $235 $238 forward $140 $-1 #
vertex $-1 $89 $239 #
vertex $-1 $238 $240 #
straight-curve $-1 67.434919278542438 -17.493213706270183 -9.7402504426156931 0 -1 0 I I #
face $-1 $-1 $167 $20 $-1 $241 forward single #
loop $-1 $-1 $242 $90 #
plane-surface $-1 0 45.809727933742231 0 0 -1 0 0 0 -1 forward_v I I I I #
coedge $-1 $243 $244 $245 $246 reversed $91 $-1 #
coedge $-1 $247 $93 $95 $165 forward $57 $-1 #
coedge $-1 $93 $247 $243 $248 forward $57 $-1 #
coedge $-1 $245 $96 $93 $162 forward $167 $-1 #
edge $-1 $169 -25.239474167059676 $249 8.4131580556865586 $161 $250 forward 7 unknown #
coedge $-1 $251 $252 $94 $164 forward $156 $-1 #
edge $-1 $253 -74.619440792366447 $168 -68.047603262802042 $163 $254 forward 7 unknown #
edge $-1 $169 81.602312349533236 $253 91.619455867484504 $95 $255 forward 7 unknown #
coedge $-1 $96 $245 $251 $256 forward $167 $-1 #
loop $-1 $-1 $245 $155 #
vertex $-1 $164 $257 #
vertex $-1 $97 $258 #
straight-curve $-1 -33.652632222746234 32.57311194552598 19.228286235612373 0 -1 0 I I #
coedge $-1 $171 $171 $-1 $259 reversed $100 $-1 #
edge $-1 $260 0 $260 6.2831853071796004 $101 $261 forward 7 unknown #
vertex $-1 $104 $262 #
ellipse-curve $-1 -16.826316111373117 42.029710878746258 15.942367470830169 0 0.6560590369687036 0.75470957328743171 1.5 0 0 1 I I #
face $-1 $-1 $263 $22 $-1 $264 reversed single #
loop $-1 $-1 $265 $105 #
plane-surface $-1 67.434919278542438 0 0 -1 0 0 0 0 1 forward_v I I I I #
coedge $-1 $266 $108 $110 $184 forward $66 $-1 #
coedge $-1 $108 $266 $265 $267 reversed $66 $-1 #
coedge $-1 $268 $111 $108 $181 forward $106 $-1 #
edge $-1 $187 8.4779854722115431 $269 42.130617694957778 $180 $270 forward 7 unknown #
coedge $-1 $271 $272 $109 $183 forward $263 $-1 #
edge $-1 $273 -74.619440792366447 $186 -68.047603262802042 $182 $274 forward 7 unknown #
edge $-1 $187 81.602312349533236 $273 91.619455867484504 $110 $275 forward 7 unknown #
coedge $-1 $111 $268 $271 $276 forward $106 $-1 #
vertex $-1 $183 $277 #
vertex $-1 $112 $278 #
straight-curve $-1 33.782287055796203 32.57311194552598 19.228286235612373 0 -1 0 I I #
coedge $-1 $189 $189 $-1 $279 reversed $115 $-1 #
edge $-1 $280 0 $280 6.2831853071796004 $116 $281 forward 7 unknown #
vertex $-1 $119 $282 #
ellipse-curve $-1 50.608603167169321 42.029710878746258 15.942367470830169 0 0.6560590369687036 0.75470957328743171 1.5 0 0 1 I I #
face $-1 $-1 $135 $18 $-1 $283 reversed single #
loop $-1 $-1 $209 $120 #
plane-surface $-1 0 45.809727933742231 0 0 -1 0 0 0 -1 forward_v I I I I #
coedge $-1 $284 $207 $210 $285 forward $121 $-1 #
coedge $-1 $213 $123 $124 $201 reversed $75 $-1 #
coedge $-1 $207 $284 $123 $199 reversed $121 $-1 #
edge $-1 $214 -19.228286235612369 $286 19.228286235612369 $198 $287 forward 7 unknown #
coedge $-1 $125 $124 $284 $288 forward $49 $-1 #
edge $-1 $205 -67.434919278542438 $286 67.434919278542438 $197 $289 forward 7 unknown #
coedge $-1 $210 $209 $125 $203 reversed $194 $-1 #
edge $-1 $290 -67.434919278542438 $204 67.434919278542438 $202 $291 forward 7 unknown #
vertex $-1 $127 $292 #
vertex $-1 $216 $293 #
straight-curve $-1 67.434919278542438 0 -19.228286235612369 0 -1 0 I I #
coedge $-1 $196 $198 $128 $208 reversed $121 $-1 #
edge $-1 $211 -45.809727933742231 $214 45.809727933742231 $207 $294 forward 7 unknown #
coedge $-1 $202 $129 $134 $217 forward $194 $-1 #
coedge $-1 $129 $202 $196 $285 reversed $194 $-1 #
vertex $-1 $130 $295 #
straight-curve $-1 0 45.809727933742231 19.228286235612369 -1 0 0 I I #
coedge $-1 $131 $197 $133 $216 reversed $75 $-1 #
vertex $-1 $208 $296 #
straight-curve $-1 0 -45.809727933742231 19.228286235612369 1 0 0 I I #
edge $-1 $136 -19.228286235612369 $205 19.228286235612369 $133 $297 forward 7 unknown #
edge $-1 $137 -19.228286235612369 $204 19.228286235612369 $134 $298 forward 7 unknown #
point $-1 67.434919278542438 -45.809727933742231 19.228286235612369 #
point $-1 67.434919278542438 45.809727933742231 19.228286235612369 #
face $-1 $-1 $299 $19 $-1 $300 reversed single #
loop $-1 $-1 $149 $139 #
plane-surface $-1 0 -45.809727933742231 0 0 1 0 0 0 1 forward_v I I I I #
coedge $-1 $301 $142 $227 $302 forward $83 $-1 #
coedge $-1 $142 $301 $303 $304 forward $83 $-1 #
edge $-1 $305 -67.434919278542438 $228 67.434919278542438 $142 $306 forward 7 unknown #
coedge $-1 $144 $143 $307 $308 reversed $53 $-1 #
coedge $-1 $145 $151 $223 $302 reversed $140 $-1 #
vertex $-1 $302 $309 #
straight-curve $-1 67.434919278542438 -24.163126891338496 -7.2421341695570156 0 0 1 I I #
coedge $-1 $307 $310 $147 $231 forward $299 $-1 #
edge $-1 $236 -28.316514227472055 $232 -6.6699131850683138 $230 $311 forward 7 unknown #
vertex $-1 $231 $312 #
straight-curve $-1 0 -24.163126891338496 -9.7402504426156931 -1 0 0 I I #
coedge $-1 $313 $149 $310 $314 forward $221 $-1 #
coedge $-1 $149 $313 $151 $238 reversed $221 $-1 #
vertex $-1 $314 $315 #
straight-curve $-1 0 -45.809727933742231 -9.7402504426156931 -1 0 0 I I #
edge $-1 $153 9.7402504426156931 $316 19.228286235612369 $151 $317 forward 7 unknown #
point $-1 67.434919278542438 -24.163126891338496 -9.7402504426156931 #
point $-1 67.434919278542438 -45.809727933742238 -9.7402504426156931 #
plane-surface $-1 0 0 19.228286235612369 0 0 1 1 0 0 forward_v I I I I #
coedge $-1 $252 $251 $244 $318 forward $156 $-1 #
coedge $-1 $244 $158 $160 $248 reversed $91 $-1 #
coedge $-1 $158 $243 $242 $318 reversed $91 $-1 #
coedge $-1 $166 $161 $158 $246 forward $167 $-1 #
edge $-1 $249 5.6765818782242974 $319 13.236615988216251 $245 $320 forward 7 unknown #
coedge $-1 $160 $159 $252 $321 reversed $57 $-1 #
edge $-1 $322 -91.619455867484504 $249 -81.602312349533236 $243 $323 forward 7 unknown #
vertex $-1 $162 $324 #
straight-curve $-1 -8.4131580556865586 38.249693823750263 19.22828623561238 1 0 0 I I #
coedge $-1 $242 $163 $166 $256 reversed $156 $-1 #
coedge $-1 $163 $242 $247 $321 forward $156 $-1 #
vertex $-1 $164 $325 #
straight-curve $-1 -33.652632222746234 45.809727933742231 87.275889498414415 0 0 1 I I #
straight-curve $-1 -33.652632222746234 -23.33635250883367 72.764220690066495 0 0.75470957328743171 -0.6560590369687036 I I #
edge $-1 $319 0 $168 33.652632222746234 $251 $326 forward 7 unknown #
point $-1 -33.652632222746234 45.809727933742231 19.228286235612369 #
point $-1 -33.652632222746234 38.249693823750277 19.228286235612373 #
edge $-1 $327 1 $327 0 $171 $-1 forward 7 unknown #
vertex $-1 $172 $328 #
ellipse-curve $-1 -16.826316111373117 40.855964459354311 14.592126700700812 0 0.6560590369687036 0.75470957328743171 1.5 0 0 1 I I #
point $-1 -15.326316111373117 42.029710878746272 15.942367470830183 #
loop $-1 $-1 $182 $175 #
plane-surface $-1 0 45.809727933742231 0 0 -1 0 0 0 -1 forward_v I I I I #
coedge $-1 $329 $330 $179 $267 forward $176 $-1 #
coedge $-1 $179 $178 $272 $331 reversed $66 $-1 #
edge $-1 $269 48.92741575166815 $332 58.944559269619418 $265 $333 forward 7 unknown #
coedge $-1 $185 $180 $330 $334 forward $106 $-1 #
vertex $-1 $334 $335 #
straight-curve $-1 25.30430158358466 38.249693823750263 19.22828623561238 1 0 0 I I #
coedge $-1 $336 $182 $185 $276 reversed $263 $-1 #
coedge $-1 $182 $336 $266 $331 forward $263 $-1 #
vertex $-1 $183 $337 #
straight-curve $-1 33.782287055796203 45.809727933742231 87.275889498414415 0 0 1 I I #
straight-curve $-1 33.782287055796203 -23.33635250883367 72.764220690066495 0 0.75470957328743171 -0.6560590369687036 I I #
edge $-1 $338 -67.434919278542438 $186 -33.782287055796203 $271 $339 forward 7 unknown #
point $-1 33.782287055796203 45.809727933742231 19.228286235612369 #
point $-1 33.782287055796203 38.249693823750277 19.228286235612373 #
edge $-1 $340 1 $340 0 $189 $-1 forward 7 unknown #
vertex $-1 $190 $341 #
ellipse-curve $-1 50.608603167169321 40.855964459354311 14.592126700700812 0 0.6560590369687036 0.75470957328743171 1.5 0 0 1 I I #
point $-1 52.108603167169321 42.029710878746272 15.942367470830183 #
plane-surface $-1 67.434919278542438 0 0 -1 0 0 0 0 1 forward_v I I I I #
coedge $-1 $198 $196 $200 $288 reversed $121 $-1 #
edge $-1 $211 -19.228286235612369 $290 19.228286235612369 $210 $342 forward 7 unknown #
vertex $-1 $288 $343 #
straight-curve $-1 -67.434919278542438 -45.809727933742231 0 0 0 -1 I I #
edge $-1 $286 -45.809727933742231 $290 45.809727933742231 $284 $344 forward 7 unknown #
straight-curve $-1 0 -45.809727933742231 -19.228286235612369 -1 0 0 I I #
vertex $-1 $203 $345 #
straight-curve $-1 0 45.809727933742231 -19.228286235612369 1 0 0 I I #
point $-1 67.434919278542438 45.809727933742231 -19.228286235612369 #
point $-1 67.434919278542438 -45.809727933742231 -19.228286235612369 #
straight-curve $-1 -67.434919278542438 0 19.228286235612369 0 -1 0 I I #
point $-1 -67.434919278542438 45.809727933742231 19.228286235612369 #
point $-1 -67.434919278542438 -45.809727933742231 19.228286235612369 #
straight-curve $-1 67.434919278542438 -45.809727933742231 0 0 0 -1 I I #
straight-curve $-1 67.434919278542438 45.809727933742231 0 0 0 -1 I I #
loop $-1 $-1 $307 $220 #
plane-surface $-1 -67.434919278542438 0 0 1 0 0 0 0 -1 forward_v I I I I #
coedge $-1 $224 $223 $313 $346 forward $83 $-1 #
edge $-1 $228 24.163126891338496 $316 45.809727933742231 $227 $347 forward 7 unknown #
coedge $-1 $310 $307 $224 $304 reversed $299 $-1 #
edge $-1 $348 -45.809727933742231 $305 -24.163126891338496 $303 $349 forward 7 unknown #
vertex $-1 $308 $350 #
straight-curve $-1 0 -24.163126891338496 -19.228286235612369 1 0 0 I I #
coedge $-1 $303 $230 $226 $308 forward $299 $-1 #
edge $-1 $232 2.4981162730586775 $305 11.986152066055354 $307 $351 forward 7 unknown #
point $-1 67.434919278542438 -24.163126891338496 -19.228286235612369 #
coedge $-1 $230 $303 $234 $314 reversed $299 $-1 #
straight-curve $-1 -67.434919278542438 -17.493213706270183 -9.7402504426156931 0 1 0 I I #
point $-1 -67.434919278542438 -24.163126891338496 -9.7402504426156931 #
coedge $-1 $235 $234 $301 $346 reversed $221 $-1 #
edge $-1 $236 9.7402504426156931 $348 19.228286235612369 $310 $352 forward 7 unknown #
point $-1 -67.434919278542438 -45.809727933742238 -9.7402504426156931 #
vertex $-1 $238 $353 #
straight-curve $-1 67.434919278542438 -45.809727933742231 0 0 0 -1 I I #
edge $-1 $319 68.047603262802042 $322 74.619440792366447 $242 $354 forward 7 unknown #
vertex $-1 $256 $355 #
straight-curve $-1 0 32.57311194552598 19.228286235612373 0 1 0 I I #
edge $-1 $322 -8.4131580556865586 $253 25.239474167059676 $252 $356 forward 7 unknown #
vertex $-1 $321 $357 #
straight-curve $-1 0 -23.33635250883367 72.764220690066495 0 -0.75470957328743171 0.6560590369687036 I I #
point $-1 0 38.249693823750277 19.228286235612373 #
point $-1 -33.652632222746234 45.809727933742238 12.656448706047968 #
straight-curve $-1 0 45.809727933742231 19.228286235612369 -1 0 0 I I #
vertex $-1 $259 $358 #
point $-1 -15.326316111373117 40.855964459354311 14.592126700700812 #
coedge $-1 $330 $265 $336 $359 reversed $176 $-1 #
coedge $-1 $265 $329 $268 $334 reversed $176 $-1 #
edge $-1 $332 -42.130617694957778 $273 -8.4779854722115431 $272 $360 forward 7 unknown #
vertex $-1 $267 $361 #
straight-curve $-1 67.434919278542438 1.323704759752049 51.327559495019159 0 0.75470957328743171 -0.6560590369687036 I I #
edge $-1 $269 38.249693823750277 $338 45.809727933742231 $330 $362 forward 7 unknown #
point $-1 67.434919278542438 38.249693823750277 19.228286235612373 #
coedge $-1 $272 $271 $329 $359 forward $263 $-1 #
point $-1 33.782287055796203 45.809727933742238 12.656448706047968 #
vertex $-1 $334 $363 #
straight-curve $-1 0 45.809727933742231 19.228286235612369 -1 0 0 I I #
vertex $-1 $279 $364 #
point $-1 52.108603167169321 40.855964459354311 14.592126700700812 #
straight-curve $-1 -67.434919278542438 45.809727933742231 0 0 0 -1 I I #
point $-1 -67.434919278542438 -45.809727933742231 -19.228286235612369 #
straight-curve $-1 -67.434919278542438 0 -19.228286235612369 0 1 0 I I #
point $-1 -67.434919278542438 45.809727933742231 -19.228286235612369 #
edge $-1 $316 -67.434919278542438 $348 67.434919278542438 $313 $365 forward 7 unknown #
straight-curve $-1 67.434919278542438 0 -19.228286235612369 0 -1 0 I I #
vertex $-1 $304 $366 #
straight-curve $-1 -67.434919278542438 0 -19.228286235612369 0 1 0 I I #
point $-1 -67.434919278542438 -24.163126891338496 -19.228286235612369 #
straight-curve $-1 -67.434919278542438 -24.163126891338496 -7.2421341695570156 0 0 -1 I I #
straight-curve $-1 -67.434919278542438 -45.809727933742231 0 0 0 -1 I I #
point $-1 67.434919278542438 -45.809727933742231 -19.228286235612369 #
straight-curve $-1 0 45.809727933742231 87.275889498414415 0 0 -1 I I #
point $-1 0 45.809727933742231 19.228286235612369 #
straight-curve $-1 -8.4131580556865586 45.809727933742231 12.656448706047978 -1 0 0 I I #
point $-1 0 45.809727933742238 12.656448706047968 #
point $-1 -16.826316111373117 39.871875903901255 13.460062340769666 #
edge $-1 $338 -19.228286235612369 $332 -12.656448706047968 $329 $367 forward 7 unknown #
straight-curve $-1 25.30430158358466 45.809727933742231 12.656448706047978 -1 0 0 I I #
point $-1 67.434919278542438 45.809727933742238 12.656448706047968 #
straight-curve $-1 67.434919278542438 0 19.228286235612369 0 1 0 I I #
point $-1 67.434919278542438 45.809727933742231 19.228286235612369 #
point $-1 50.608603167169321 39.871875903901255 13.460062340769666 #
straight-curve $-1 0 -45.809727933742231 -19.228286235612369 -1 0 0 I I #
point $-1 -67.434919278542438 -45.809727933742231 -19.228286235612369 #
straight-curve $-1 67.434919278542438 45.809727933742231 0 0 0 -1 I I #
End-of-ACIS-data 