500 0 4 0           
7 Unknown 11 ACIS 5.0 NT 24 Thu Mar 25 15:10:10 1999 
-1 9.9999999999999995e-007 1e-010 
body $-1 $4 $-1 $5 #
body $-1 $6 $-1 $7 #
body $-1 $8 $-1 $9 #
body $-1 $10 $-1 $11 #
lump $-1 $-1 $12 $0 #
transform $-1 1 0 0 0 1 0 0 0 1 70.192571794793537 46.672801209639069 23.118469802943416 1 rotate no_reflect no_shear #
lump $-1 $-1 $13 $1 #
transform $-1 1 0 0 0 1 0 0 0 1 70.192571794793537 46.672801209639069 23.118469802943416 1 rotate no_reflect no_shear #
lump $-1 $-1 $14 $2 #
transform $-1 1 0 0 0 1 0 0 0 1 70.192571794793537 46.672801209639069 23.118469802943416 1 rotate no_reflect no_shear #
lump $-1 $-1 $15 $3 #
transform $-1 1 0 0 0 1 0 0 0 1 70.192571794793537 46.672801209639069 23.118469802943416 1 rotate no_reflect no_shear #
shell $-1 $-1 $-1 $16 $-1 $4 #
shell $-1 $-1 $-1 $17 $-1 $6 #
shell $-1 $-1 $-1 $18 $-1 $8 #
shell $-1 $-1 $-1 $19 $-1 $10 #
face $-1 $20 $21 $12 $-1 $22 reversed single #
face $-1 $23 $24 $13 $-1 $25 forward single #
face $-1 $26 $27 $14 $-1 $28 reversed single #
face $-1 $29 $30 $15 $-1 $31 forward single #
face $-1 $32 $33 $12 $-1 $34 forward single #
loop $-1 $-1 $35 $16 #
plane-surface $-1 0 -46.672801209639069 0 0 1 0 0 0 1 forward_v I I I I #
face $-1 $36 $37 $13 $-1 $38 forward single #
loop $-1 $-1 $39 $17 #
plane-surface $-1 0 -46.672801209639069 0 0 1 0 0 0 1 forward_v I I I I #
face $-1 $40 $41 $14 $-1 $42 reversed single #
loop $-1 $-1 $43 $18 #
plane-surface $-1 45.426056717175015 59.545188964458994 178.72791250412857 1 0 0 0 -0.61566148304635926 -0.78801074757464917 forward_v I I I I #
face $-1 $44 $45 $15 $-1 $46 forward single #
loop $-1 $47 $48 $19 #
cone-surface $-1 57.809314255984276 37.01351773661505 14.739382378329436 0 -0.61566148304635926 -0.78801074757464917 1.5 0 0 1 I I 0 1 1.5 forward I I I I #
face $-1 $49 $50 $12 $-1 $51 reversed single #
loop $-1 $-1 $52 $20 #
plane-surface $-1 0 0 23.118469802943416 0 0 1 1 0 0 forward_v I I I I #
coedge $-1 $53 $54 $55 $56 reversed $21 $-1 #
face $-1 $57 $58 $13 $-1 $59 reversed single #
loop $-1 $-1 $60 $23 #
plane-surface $-1 0 0 23.118469802943416 0 0 1 1 0 0 forward_v I I I I #
coedge $-1 $61 $62 $63 $64 forward $24 $-1 #
face $-1 $65 $66 $14 $-1 $67 forward single #
loop $-1 $-1 $68 $26 #
plane-surface $-1 57.809314255984276 -26.88453673558228 68.102910555723597 0 0.61566148304635926 0.78801074757464917 1 0 0 forward_v I I I I #
coedge $-1 $69 $70 $71 $72 reversed $27 $-1 #
face $-1 $-1 $73 $15 $-1 $74 forward single #
loop $-1 $75 $76 $29 #
cone-surface $-1 57.809314255984276 34.882428445110996 12.011712527298677 0 -0.61566148304635926 -0.78801074757464917 0.75 0 0 1 I I -0.70710678118654757 0.70710678118654757 0.75 forward I I I I #
loop $-1 $-1 $77 $19 #
coedge $-1 $48 $48 $78 $79 reversed $30 $-1 #
face $-1 $80 $81 $12 $-1 $82 reversed single #
loop $-1 $-1 $83 $32 #
plane-surface $-1 0 0 -23.118469802943416 0 0 1 1 0 0 forward_v I I I I #
coedge $-1 $84 $85 $86 $87 forward $33 $-1 #
coedge $-1 $88 $35 $89 $90 reversed $21 $-1 #
coedge $-1 $35 $88 $91 $92 forward $21 $-1 #
coedge $-1 $93 $83 $35 $56 forward $50 $-1 #
edge $-1 $94 -70.192571794793537 $95 70.192571794793537 $35 $96 forward 7 unknown #
face $-1 $97 $98 $13 $-1 $99 reversed single #
loop $-1 $-1 $100 $36 #
plane-surface $-1 -70.192571794793537 0 0 1 0 0 0 0 -1 forward_v I I I I #
coedge $-1 $101 $102 $62 $103 forward $37 $-1 #
coedge $-1 $104 $39 $105 $106 reversed $24 $-1 #
coedge $-1 $39 $104 $60 $103 reversed $24 $-1 #
coedge $-1 $107 $108 $39 $64 reversed $109 $-1 #
edge $-1 $110 -23.118469802943416 $111 23.118469802943416 $63 $112 forward 7 unknown #
face $-1 $113 $114 $14 $-1 $115 reversed single #
loop $-1 $-1 $71 $40 #
plane-surface $-1 0 0 23.118469802943416 0 0 1 1 0 0 forward_v I I I I #
coedge $-1 $116 $117 $118 $119 reversed $41 $-1 #
coedge $-1 $70 $43 $120 $121 reversed $27 $-1 #
coedge $-1 $43 $69 $116 $122 reversed $27 $-1 #
coedge $-1 $118 $123 $43 $72 forward $66 $-1 #
edge $-1 $124 -16.900206727409572 $125 -0.92032613980007838 $71 $126 forward 7 unknown #
loop $-1 $-1 $78 $44 #
plane-surface $-1 57.809314255984276 -26.88453673558228 68.102910555723597 0 0.61566148304635926 0.78801074757464917 1 0 0 forward_v I I I I #
loop $-1 $-1 $127 $29 #
coedge $-1 $76 $76 $77 $128 reversed $45 $-1 #
coedge $-1 $77 $77 $76 $128 forward $47 $-1 #
coedge $-1 $78 $78 $48 $79 forward $73 $-1 #
edge $-1 $129 3.0909995538752327e-015 $129 6.2831853071796031 $78 $130 forward 7 unknown #
face $-1 $131 $132 $12 $-1 $133 reversed single #
loop $-1 $-1 $134 $49 #
plane-surface $-1 -70.192571794793537 0 0 1 0 0 0 0 -1 forward_v I I I I #
coedge $-1 $55 $135 $136 $137 forward $50 $-1 #
coedge $-1 $138 $52 $139 $140 forward $33 $-1 #
coedge $-1 $52 $138 $88 $141 forward $33 $-1 #
coedge $-1 $89 $142 $52 $87 reversed $143 $-1 #
edge $-1 $144 -46.672801209639069 $145 46.672801209639069 $86 $146 forward 7 unknown #
coedge $-1 $54 $53 $85 $141 reversed $21 $-1 #
coedge $-1 $136 $86 $53 $90 forward $143 $-1 #
edge $-1 $144 -23.118469802943416 $94 23.118469802943416 $89 $147 forward 7 unknown #
coedge $-1 $148 $149 $54 $92 reversed $81 $-1 #
edge $-1 $150 -23.118469802943416 $95 23.118469802943416 $91 $151 forward 7 unknown #
coedge $-1 $135 $55 $149 $152 forward $50 $-1 #
vertex $-1 $90 $153 #
vertex $-1 $152 $154 #
straight-curve $-1 0 -46.672801209639069 -23.118469802943416 -1 0 0 I I #
face $-1 $155 $109 $13 $-1 $156 reversed single #
loop $-1 $-1 $157 $57 #
plane-surface $-1 -65.758033440582281 -67.526794071125067 0 0 1 0 0 0 1 forward_v I I I I #
coedge $-1 $158 $159 $104 $160 forward $58 $-1 #
coedge $-1 $161 $60 $159 $162 forward $37 $-1 #
coedge $-1 $60 $161 $107 $163 forward $37 $-1 #
edge $-1 $110 61.323495086371025 $164 70.192571794793537 $60 $165 forward 7 unknown #
coedge $-1 $62 $61 $100 $160 reversed $24 $-1 #
coedge $-1 $166 $167 $61 $106 forward $168 $-1 #
edge $-1 $169 -70.192571794793537 $111 -61.323495086371025 $105 $170 forward 7 unknown #
coedge $-1 $171 $63 $102 $163 reversed $109 $-1 #
coedge $-1 $63 $171 $166 $172 reversed $109 $-1 #
loop $-1 $-1 $171 $97 #
vertex $-1 $103 $173 #
vertex $-1 $172 $174 #
straight-curve $-1 -61.323495086371025 -46.672801209639069 0 0 0 -1 I I #
face $-1 $-1 $175 $14 $-1 $176 reversed single #
loop $-1 $-1 $177 $65 #
plane-surface $-1 70.192571794793537 0 0 -1 0 0 0 0 1 forward_v I I I I #
coedge $-1 $178 $68 $70 $122 forward $41 $-1 #
coedge $-1 $68 $178 $177 $179 reversed $41 $-1 #
coedge $-1 $180 $71 $68 $119 forward $66 $-1 #
edge $-1 $125 16.521399589182877 $181 41.287914666801399 $118 $182 forward 7 unknown #
coedge $-1 $183 $184 $69 $121 forward $175 $-1 #
edge $-1 $185 -78.730337717649292 $124 -66.245486449120875 $120 $186 forward 7 unknown #
edge $-1 $125 73.066842723686932 $185 93.345602419278123 $70 $187 forward 7 unknown #
coedge $-1 $71 $180 $183 $188 forward $66 $-1 #
vertex $-1 $121 $189 #
vertex $-1 $72 $190 #
straight-curve $-1 45.426056717175015 29.772594482229497 23.118469802943409 0 -1 0 I I #
coedge $-1 $127 $127 $-1 $191 reversed $75 $-1 #
edge $-1 $192 0 $192 6.2831853071796004 $76 $193 forward 7 unknown #
vertex $-1 $79 $194 #
ellipse-curve $-1 57.809314255984276 38.682860915834326 16.876044168679201 0 0.61566148304635926 0.78801074757464917 1.5 0 0 1 I I #
face $-1 $-1 $143 $12 $-1 $195 reversed single #
loop $-1 $-1 $196 $80 #
plane-surface $-1 0 46.672801209639069 0 0 -1 0 0 0 -1 forward_v I I I I #
coedge $-1 $149 $148 $197 $198 forward $81 $-1 #
coedge $-1 $83 $93 $199 $200 forward $50 $-1 #
coedge $-1 $142 $89 $83 $137 reversed $143 $-1 #
edge $-1 $201 -46.672801209639069 $94 46.672801209639069 $136 $202 forward 7 unknown #
coedge $-1 $85 $84 $148 $203 forward $33 $-1 #
coedge $-1 $196 $197 $84 $140 reversed $132 $-1 #
edge $-1 $145 -70.192571794793537 $204 70.192571794793537 $139 $205 forward 7 unknown #
edge $-1 $150 -70.192571794793537 $144 70.192571794793537 $88 $206 forward 7 unknown #
coedge $-1 $86 $136 $196 $207 reversed $143 $-1 #
loop $-1 $-1 $89 $131 #
vertex $-1 $87 $208 #
vertex $-1 $87 $209 #
straight-curve $-1 70.192571794793537 0 23.118469802943416 0 1 0 I I #
straight-curve $-1 70.192571794793537 -46.672801209639069 0 0 0 -1 I I #
coedge $-1 $134 $91 $138 $203 reversed $81 $-1 #
coedge $-1 $91 $134 $93 $152 reversed $81 $-1 #
vertex $-1 $203 $210 #
straight-curve $-1 -70.192571794793537 -46.672801209639069 0 0 0 -1 I I #
edge $-1 $95 -46.672801209639069 $211 46.672801209639069 $149 $212 forward 7 unknown #
point $-1 70.192571794793537 -46.672801209639069 -23.118469802943416 #
point $-1 -70.192571794793537 -46.672801209639069 -23.118469802943416 #
face $-1 $-1 $168 $13 $-1 $213 reversed single #
plane-surface $-1 -61.323495086371025 -57.099797640382072 0 -1 0 0 0 0 1 forward_v I I I I #
coedge $-1 $214 $215 $216 $217 forward $98 $-1 #
coedge $-1 $216 $100 $167 $218 reversed $58 $-1 #
coedge $-1 $100 $216 $101 $162 reversed $58 $-1 #
edge $-1 $164 -23.118469802943416 $169 23.118469802943416 $100 $219 forward 7 unknown #
coedge $-1 $102 $101 $215 $220 forward $37 $-1 #
edge $-1 $164 46.672801209639069 $221 67.526794071125067 $159 $222 forward 7 unknown #
edge $-1 $223 -10.426996430742996 $110 10.426996430743003 $107 $224 forward 7 unknown #
vertex $-1 $162 $225 #
straight-curve $-1 0 -46.672801209639069 23.118469802943416 -1 0 0 I I #
coedge $-1 $226 $105 $108 $172 forward $168 $-1 #
coedge $-1 $105 $226 $158 $218 forward $168 $-1 #
loop $-1 $-1 $105 $155 #
vertex $-1 $160 $227 #
straight-curve $-1 0 -46.672801209639069 -23.118469802943416 1 0 0 I I #
coedge $-1 $108 $107 $228 $229 forward $109 $-1 #
edge $-1 $111 -10.426996430743003 $230 10.426996430742996 $108 $231 forward 7 unknown #
point $-1 -61.323495086371025 -46.672801209639069 23.118469802943416 #
point $-1 -61.323495086371025 -46.672801209639069 -23.118469802943416 #
loop $-1 $-1 $120 $113 #
plane-surface $-1 0 46.672801209639069 0 0 -1 0 0 0 -1 forward_v I I I I #
coedge $-1 $232 $233 $117 $179 forward $114 $-1 #
coedge $-1 $117 $116 $184 $234 reversed $41 $-1 #
edge $-1 $181 41.510021321829598 $235 61.788781017420803 $177 $236 forward 7 unknown #
coedge $-1 $123 $118 $233 $237 forward $66 $-1 #
vertex $-1 $237 $238 #
straight-curve $-1 28.904657127992138 30.692920622029568 23.118469802943409 1 0 0 I I #
coedge $-1 $239 $120 $123 $188 reversed $175 $-1 #
coedge $-1 $120 $239 $178 $234 forward $175 $-1 #
vertex $-1 $121 $240 #
straight-curve $-1 45.426056717175015 46.672801209639069 89.363956252064284 0 0 1 I I #
straight-curve $-1 45.426056717175015 -26.88453673558228 68.102910555723597 0 0.78801074757464917 -0.61566148304635926 I I #
edge $-1 $241 -70.192571794793537 $124 -45.426056717175015 $183 $242 forward 7 unknown #
point $-1 45.426056717175015 46.672801209639069 23.118469802943416 #
point $-1 45.426056717175015 30.692920622029575 23.118469802943416 #
edge $-1 $243 1 $243 0 $127 $-1 forward 7 unknown #
vertex $-1 $128 $244 #
ellipse-curve $-1 57.809314255984276 35.344174557395768 12.602720587979665 0 0.61566148304635926 0.78801074757464917 1.5 0 0 1 I I #
point $-1 59.309314255984276 38.68286091583434 16.876044168679211 #
plane-surface $-1 70.192571794793537 0 0 -1 0 0 0 0 1 forward_v I I I I #
coedge $-1 $199 $139 $142 $207 forward $132 $-1 #
coedge $-1 $139 $199 $134 $198 reversed $132 $-1 #
edge $-1 $204 -23.118469802943416 $211 23.118469802943416 $197 $245 forward 7 unknown #
coedge $-1 $197 $196 $135 $200 reversed $132 $-1 #
edge $-1 $211 -70.192571794793537 $201 70.192571794793537 $199 $246 forward 7 unknown #
vertex $-1 $137 $247 #
straight-curve $-1 70.192571794793537 0 -23.118469802943416 0 -1 0 I I #
edge $-1 $204 -46.672801209639069 $150 46.672801209639069 $148 $248 forward 7 unknown #
vertex $-1 $140 $249 #
straight-curve $-1 0 46.672801209639069 23.118469802943416 -1 0 0 I I #
straight-curve $-1 0 -46.672801209639069 23.118469802943416 1 0 0 I I #
edge $-1 $145 -23.118469802943416 $201 23.118469802943416 $142 $250 forward 7 unknown #
point $-1 70.192571794793537 -46.672801209639069 23.118469802943416 #
point $-1 70.192571794793537 46.672801209639069 23.118469802943416 #
point $-1 -70.192571794793537 -46.672801209639069 23.118469802943416 #
vertex $-1 $200 $251 #
straight-curve $-1 -70.192571794793537 0 -23.118469802943416 0 1 0 I I #
plane-surface $-1 0 0 -23.118469802943416 0 0 1 1 0 0 forward_v I I I I #
coedge $-1 $228 $157 $226 $252 reversed $98 $-1 #
coedge $-1 $157 $228 $161 $220 reversed $98 $-1 #
coedge $-1 $159 $158 $157 $217 reversed $58 $-1 #
edge $-1 $221 -23.118469802943416 $253 23.118469802943416 $216 $254 forward 7 unknown #
edge $-1 $253 -67.526794071125067 $169 -46.672801209639069 $158 $255 forward 7 unknown #
straight-curve $-1 -70.192571794793537 -46.672801209639069 0 0 0 -1 I I #
edge $-1 $221 -4.4345383542112558 $223 4.4345383542112558 $215 $256 forward 7 unknown #
vertex $-1 $162 $257 #
straight-curve $-1 -70.192571794793537 0 23.118469802943416 0 -1 0 I I #
vertex $-1 $163 $258 #
straight-curve $-1 -61.323495086371025 -57.099797640382072 23.118469802943416 0 1 0 I I #
point $-1 -70.192571794793537 -46.672801209639069 23.118469802943416 #
coedge $-1 $167 $166 $214 $252 forward $168 $-1 #
point $-1 -70.192571794793537 -46.672801209639069 -23.118469802943416 #
coedge $-1 $215 $214 $171 $229 reversed $98 $-1 #
edge $-1 $223 -23.118469802943416 $230 23.118469802943416 $171 $259 forward 7 unknown #
vertex $-1 $229 $260 #
straight-curve $-1 -61.323495086371025 -57.099797640382072 -23.118469802943416 0 -1 0 I I #
coedge $-1 $233 $177 $239 $261 reversed $114 $-1 #
coedge $-1 $177 $232 $180 $237 reversed $114 $-1 #
edge $-1 $235 -41.287914666801399 $185 -16.521399589182877 $184 $262 forward 7 unknown #
vertex $-1 $179 $263 #
straight-curve $-1 70.192571794793537 -2.0174223116249994 48.674591091227022 0 0.78801074757464917 -0.61566148304635926 I I #
edge $-1 $181 30.692920622029575 $241 46.672801209639069 $233 $264 forward 7 unknown #
point $-1 70.192571794793537 30.692920622029575 23.118469802943416 #
coedge $-1 $184 $183 $232 $261 forward $175 $-1 #
point $-1 45.426056717175015 46.672801209639069 10.633618534415 #
vertex $-1 $237 $265 #
straight-curve $-1 0 46.672801209639069 23.118469802943416 -1 0 0 I I #
vertex $-1 $191 $266 #
point $-1 59.309314255984276 35.344174557395768 12.602720587979665 #
straight-curve $-1 -70.192571794793537 46.672801209639069 0 0 0 -1 I I #
straight-curve $-1 0 46.672801209639069 -23.118469802943416 1 0 0 I I #
point $-1 70.192571794793537 46.672801209639069 -23.118469802943416 #
straight-curve $-1 -70.192571794793537 0 23.118469802943416 0 -1 0 I I #
point $-1 -70.192571794793537 46.672801209639069 23.118469802943416 #
straight-curve $-1 70.192571794793537 46.672801209639069 0 0 0 -1 I I #
point $-1 -70.192571794793537 46.672801209639069 -23.118469802943416 #
edge $-1 $230 -4.4345383542112558 $253 4.4345383542112558 $214 $267 forward 7 unknown #
vertex $-1 $218 $268 #
straight-curve $-1 -70.192571794793537 -67.526794071125067 0 0 0 -1 I I #
straight-curve $-1 -70.192571794793537 0 -23.118469802943416 0 1 0 I I #
straight-curve $-1 -65.758033440582281 -67.526794071125067 23.118469802943416 1 0 0 I I #
point $-1 -70.192571794793537 -67.526794071125067 23.118469802943416 #
point $-1 -61.323495086371025 -67.526794071125067 23.118469802943416 #
straight-curve $-1 -61.323495086371025 -67.526794071125067 0 0 0 -1 I I #
point $-1 -61.323495086371025 -67.526794071125067 -23.118469802943416 #
edge $-1 $241 -23.118469802943416 $235 -10.633618534415 $232 $269 forward 7 unknown #
straight-curve $-1 28.904657127992138 46.672801209639069 10.633618534414989 -1 0 0 I I #
point $-1 70.192571794793537 46.672801209639069 10.633618534415 #
straight-curve $-1 70.192571794793537 0 23.118469802943416 0 1 0 I I #
point $-1 70.192571794793537 46.672801209639069 23.118469802943416 #
point $-1 57.809314255984276 34.420682332826225 11.420704466617689 #
straight-curve $-1 -65.758033440582281 -67.526794071125067 -23.118469802943416 -1 0 0 I I #
point $-1 -70.192571794793537 -67.526794071125067 -23.118469802943416 #
straight-curve $-1 70.192571794793537 46.672801209639069 0 0 0 -1 I I #
End-of-ACIS-data 