500 0 7 0           
7 Unknown 11 ACIS 5.0 NT 24 Thu Mar 25 16:01:13 1999 
-1 9.9999999999999995e-007 1e-010 
body $-1 $7 $-1 $8 #
body $-1 $9 $-1 $10 #
body $-1 $11 $-1 $12 #
body $-1 $13 $-1 $14 #
body $-1 $15 $-1 $16 #
body $-1 $17 $-1 $18 #
body $-1 $19 $-1 $20 #
lump $-1 $-1 $21 $0 #
transform $-1 1 0 0 0 1 0 0 0 1 65.766167180394916 30.167296340470831 14.585386480747124 1 rotate no_reflect no_shear #
lump $-1 $-1 $22 $1 #
transform $-1 1 0 0 0 1 0 0 0 1 65.766167180394916 30.167296340470831 14.585386480747124 1 rotate no_reflect no_shear #
lump $-1 $-1 $23 $2 #
transform $-1 1 0 0 0 1 0 0 0 1 65.766167180394916 30.167296340470831 14.585386480747124 1 rotate no_reflect no_shear #
lump $-1 $-1 $24 $3 #
transform $-1 1 0 0 0 1 0 0 0 1 65.766167180394916 30.167296340470831 14.585386480747124 1 rotate no_reflect no_shear #
lump $-1 $-1 $25 $4 #
transform $-1 1 0 0 0 1 0 0 0 1 65.766167180394916 30.167296340470831 14.585386480747124 1 rotate no_reflect no_shear #
lump $-1 $-1 $26 $5 #
transform $-1 1 0 0 0 1 0 0 0 1 65.766167180394916 30.167296340470831 14.585386480747124 1 rotate no_reflect no_shear #
lump $-1 $-1 $27 $6 #
transform $-1 1 0 0 0 1 0 0 0 1 65.766167180394916 30.167296340470831 14.585386480747124 1 rotate no_reflect no_shear #
shell $-1 $-1 $-1 $28 $-1 $7 #
shell $-1 $-1 $-1 $29 $-1 $9 #
shell $-1 $-1 $-1 $30 $-1 $11 #
shell $-1 $-1 $-1 $31 $-1 $13 #
shell $-1 $-1 $-1 $32 $-1 $15 #
shell $-1 $-1 $-1 $33 $-1 $17 #
shell $-1 $-1 $-1 $34 $-1 $19 #
face $-1 $35 $36 $21 $-1 $37 forward single #
face $-1 $38 $39 $22 $-1 $40 forward single #
face $-1 $41 $42 $23 $-1 $43 forward single #
face $-1 $44 $45 $24 $-1 $46 reversed single #
face $-1 $47 $48 $25 $-1 $49 forward single #
face $-1 $50 $51 $26 $-1 $52 forward single #
face $-1 $53 $54 $27 $-1 $55 forward single #
face $-1 $56 $57 $21 $-1 $58 reversed single #
loop $-1 $-1 $59 $28 #
plane-surface $-1 0 0 14.585386480747124 0 0 1 1 0 0 forward_v I I I I #
face $-1 $60 $61 $22 $-1 $62 reversed single #
loop $-1 $-1 $63 $29 #
plane-surface $-1 -65.766167180394916 0 0 1 0 0 0 0 -1 forward_v I I I I #
face $-1 $64 $65 $23 $-1 $66 reversed single #
loop $-1 $-1 $67 $30 #
plane-surface $-1 65.766167180394916 0 0 -1 0 0 0 0 1 forward_v I I I I #
face $-1 $68 $69 $24 $-1 $70 reversed single #
loop $-1 $-1 $71 $31 #
plane-surface $-1 -34.170755663103016 -112.94327746397707 110.88897323679943 -1 0 0 0 -0.62932039886446345 0.77714595512881146 forward_v I I I I #
face $-1 $72 $73 $25 $-1 $74 forward single #
loop $-1 $75 $76 $32 #
cone-surface $-1 -44.918271908569466 -25.283543001940856 10.107379136098597 0 0.62932039886446345 -0.77714595512881146 1 0 0 1 I I 0 1 1 forward I I I I #
face $-1 $77 $78 $26 $-1 $79 forward single #
loop $-1 $80 $81 $33 #
cone-surface $-1 -40.887953316519543 -25.283543001940856 10.107379136098597 0 0.62932039886446345 -0.77714595512881146 1 0 0 1 I I 0 1 1 forward I I I I #
face $-1 $82 $83 $27 $-1 $84 forward single #
loop $-1 $85 $86 $34 #
cone-surface $-1 -36.857634724469627 -25.283543001940856 10.107379136098597 0 0.62932039886446345 -0.77714595512881146 1 0 0 1 I I 0 1 1 forward I I I I #
face $-1 $87 $88 $21 $-1 $89 reversed single #
loop $-1 $-1 $90 $35 #
plane-surface $-1 0 0 -14.585386480747124 0 0 1 1 0 0 forward_v I I I I #
coedge $-1 $91 $92 $93 $94 forward $36 $-1 #
face $-1 $95 $96 $22 $-1 $97 forward single #
loop $-1 $-1 $98 $38 #
plane-surface $-1 0 30.167296340470831 0 0 -1 0 0 0 -1 forward_v I I I I #
coedge $-1 $99 $100 $101 $102 forward $39 $-1 #
face $-1 $103 $104 $23 $-1 $105 forward single #
loop $-1 $-1 $106 $41 #
plane-surface $-1 0 30.167296340470831 0 0 -1 0 0 0 -1 forward_v I I I I #
coedge $-1 $107 $108 $109 $110 forward $42 $-1 #
face $-1 $111 $112 $24 $-1 $113 reversed single #
loop $-1 $-1 $114 $44 #
plane-surface $-1 -40.887953316519543 -30.167296340470841 8.6691516196612355 0 -0.62932039886446345 0.77714595512881146 1 0 0 forward_v I I I I #
coedge $-1 $115 $116 $117 $118 reversed $45 $-1 #
face $-1 $-1 $119 $25 $-1 $120 forward single #
loop $-1 $121 $122 $47 #
cone-surface $-1 -44.918271908569466 -23.73810019254644 8.1989162444286219 0 0.62932039886446345 -0.77714595512881146 0.5 0 0 1 I I -0.70710678118654746 0.70710678118654746 0.5 forward I I I I #
loop $-1 $-1 $123 $32 #
coedge $-1 $76 $76 $124 $125 reversed $48 $-1 #
face $-1 $-1 $126 $26 $-1 $127 forward single #
loop $-1 $128 $129 $50 #
cone-surface $-1 -40.887953316519543 -23.73810019254644 8.1989162444286219 0 0.62932039886446345 -0.77714595512881146 0.5 0 0 1 I I -0.70710678118654746 0.70710678118654746 0.5 forward I I I I #
loop $-1 $-1 $130 $33 #
coedge $-1 $81 $81 $131 $132 reversed $51 $-1 #
face $-1 $-1 $133 $27 $-1 $134 forward single #
loop $-1 $135 $136 $53 #
cone-surface $-1 -36.857634724469627 -23.73810019254644 8.1989162444286219 0 0.62932039886446345 -0.77714595512881146 0.5 0 0 1 I I -0.70710678118654746 0.70710678118654746 0.5 forward I I I I #
loop $-1 $-1 $137 $34 #
coedge $-1 $86 $86 $138 $139 reversed $54 $-1 #
face $-1 $140 $141 $21 $-1 $142 reversed single #
loop $-1 $-1 $143 $56 #
plane-surface $-1 0 -30.167296340470831 0 0 1 0 0 0 1 forward_v I I I I #
coedge $-1 $144 $145 $146 $147 forward $57 $-1 #
coedge $-1 $148 $59 $149 $150 forward $36 $-1 #
coedge $-1 $59 $148 $151 $152 forward $36 $-1 #
coedge $-1 $153 $154 $59 $94 reversed $155 $-1 #
edge $-1 $156 -30.167296340470831 $157 30.167296340470831 $93 $158 forward 7 unknown #
face $-1 $159 $160 $22 $-1 $161 reversed single #
loop $-1 $-1 $101 $60 #
plane-surface $-1 -74.846675285624343 0 -6.1120901774478877 0 0 1 1 0 0 forward_v I I I I #
coedge $-1 $162 $163 $100 $164 forward $61 $-1 #
coedge $-1 $165 $63 $166 $167 reversed $39 $-1 #
coedge $-1 $63 $165 $98 $164 reversed $39 $-1 #
coedge $-1 $168 $169 $63 $102 reversed $96 $-1 #
edge $-1 $170 -30.167296340470831 $171 30.167296340470831 $101 $172 forward 7 unknown #
face $-1 $173 $174 $23 $-1 $175 reversed single #
loop $-1 $-1 $176 $64 #
plane-surface $-1 74.846675285624343 0 -6.1120901774478877 0 0 1 1 0 0 forward_v I I I I #
coedge $-1 $177 $178 $107 $179 forward $65 $-1 #
coedge $-1 $180 $67 $106 $179 reversed $42 $-1 #
coedge $-1 $67 $180 $181 $182 reversed $42 $-1 #
coedge $-1 $183 $184 $67 $110 reversed $104 $-1 #
edge $-1 $185 -30.167296340470831 $186 30.167296340470831 $109 $187 forward 7 unknown #
face $-1 $188 $189 $24 $-1 $190 forward single #
loop $-1 $-1 $191 $68 #
plane-surface $-1 -47.605150969936069 -112.94327746397707 110.88897323679943 1 0 0 0 0.62932039886446345 -0.77714595512881146 forward_v I I I I #
coedge $-1 $192 $193 $194 $195 reversed $69 $-1 #
coedge $-1 $116 $71 $196 $197 reversed $45 $-1 #
coedge $-1 $71 $115 $192 $198 reversed $45 $-1 #
coedge $-1 $194 $199 $71 $118 forward $189 $-1 #
edge $-1 $200 26.304342391517704 $201 33.610283848653239 $117 $202 forward 7 unknown #
loop $-1 $-1 $124 $72 #
plane-surface $-1 -40.887953316519543 -30.167296340470841 8.6691516196612355 0 -0.62932039886446345 0.77714595512881146 1 0 0 forward_v I I I I #
loop $-1 $-1 $203 $47 #
coedge $-1 $122 $122 $123 $204 reversed $73 $-1 #
coedge $-1 $123 $123 $122 $204 forward $75 $-1 #
coedge $-1 $124 $124 $76 $125 forward $119 $-1 #
edge $-1 $205 3.9011418968924489e-016 $205 6.2831853071796004 $124 $206 forward 7 unknown #
loop $-1 $-1 $131 $77 #
plane-surface $-1 -40.887953316519543 -30.167296340470841 8.6691516196612355 0 -0.62932039886446345 0.77714595512881146 1 0 0 forward_v I I I I #
loop $-1 $-1 $207 $50 #
coedge $-1 $129 $129 $130 $208 reversed $78 $-1 #
coedge $-1 $130 $130 $129 $208 forward $80 $-1 #
coedge $-1 $131 $131 $81 $132 forward $126 $-1 #
edge $-1 $209 3.9011418968924489e-016 $209 6.2831853071796004 $131 $210 forward 7 unknown #
loop $-1 $-1 $138 $82 #
plane-surface $-1 -40.887953316519543 -30.167296340470841 8.6691516196612355 0 -0.62932039886446345 0.77714595512881146 1 0 0 forward_v I I I I #
loop $-1 $-1 $211 $53 #
coedge $-1 $136 $136 $137 $212 reversed $83 $-1 #
coedge $-1 $137 $137 $136 $212 forward $85 $-1 #
coedge $-1 $138 $138 $86 $139 forward $133 $-1 #
edge $-1 $213 3.9011418968924489e-016 $213 6.2831853071796004 $138 $214 forward 7 unknown #
face $-1 $215 $216 $21 $-1 $217 reversed single #
loop $-1 $-1 $218 $87 #
plane-surface $-1 -65.766167180394916 0 0 1 0 0 0 0 -1 forward_v I I I I #
coedge $-1 $219 $151 $218 $220 forward $88 $-1 #
coedge $-1 $221 $90 $219 $222 forward $57 $-1 #
coedge $-1 $90 $221 $223 $224 forward $57 $-1 #
coedge $-1 $154 $153 $90 $147 reversed $155 $-1 #
edge $-1 $225 -30.167296340470831 $226 30.167296340470831 $146 $227 forward 7 unknown #
coedge $-1 $92 $91 $228 $229 forward $36 $-1 #
coedge $-1 $230 $231 $91 $150 reversed $216 $-1 #
edge $-1 $157 -65.766167180394916 $232 65.766167180394916 $149 $233 forward 7 unknown #
coedge $-1 $143 $234 $92 $152 reversed $88 $-1 #
edge $-1 $235 -65.766167180394916 $156 65.766167180394916 $151 $236 forward 7 unknown #
coedge $-1 $146 $93 $234 $237 forward $155 $-1 #
coedge $-1 $93 $146 $230 $238 reversed $155 $-1 #
loop $-1 $-1 $154 $215 #
vertex $-1 $94 $239 #
vertex $-1 $94 $240 #
straight-curve $-1 65.766167180394916 0 14.585386480747124 0 1 0 I I #
face $-1 $241 $242 $22 $-1 $243 reversed single #
loop $-1 $-1 $244 $95 #
plane-surface $-1 -83.92718339085377 0 -10.348738329097506 1 0 0 0 0 -1 forward_v I I I I #
coedge $-1 $245 $98 $246 $247 reversed $61 $-1 #
coedge $-1 $98 $245 $168 $248 reversed $61 $-1 #
edge $-1 $170 6.1120901774478877 $249 14.585386480747124 $98 $250 forward 7 unknown #
coedge $-1 $100 $99 $251 $252 reversed $39 $-1 #
coedge $-1 $253 $254 $99 $167 forward $255 $-1 #
edge $-1 $256 -14.585386480747124 $171 -6.1120901774478877 $166 $257 forward 7 unknown #
coedge $-1 $258 $101 $163 $248 forward $96 $-1 #
coedge $-1 $101 $258 $253 $259 forward $96 $-1 #
vertex $-1 $164 $260 #
vertex $-1 $259 $261 #
straight-curve $-1 -65.766167180394916 0 -6.1120901774478877 0 -1 0 I I #
face $-1 $262 $263 $23 $-1 $264 reversed single #
loop $-1 $-1 $265 $103 #
plane-surface $-1 83.92718339085377 0 -10.348738329097506 -1 0 0 0 0 1 forward_v I I I I #
coedge $-1 $184 $183 $266 $267 forward $104 $-1 #
coedge $-1 $268 $106 $184 $269 reversed $65 $-1 #
coedge $-1 $106 $268 $270 $271 reversed $65 $-1 #
edge $-1 $272 -14.585386480747124 $186 -6.1120901774478877 $106 $273 forward 7 unknown #
coedge $-1 $108 $107 $274 $275 reversed $42 $-1 #
coedge $-1 $276 $277 $108 $182 forward $278 $-1 #
edge $-1 $185 6.1120901774478877 $279 14.585386480747124 $181 $280 forward 7 unknown #
coedge $-1 $176 $109 $277 $281 forward $104 $-1 #
coedge $-1 $109 $176 $177 $269 forward $104 $-1 #
vertex $-1 $182 $282 #
vertex $-1 $269 $283 #
straight-curve $-1 65.766167180394916 0 -6.1120901774478877 0 1 0 I I #
face $-1 $-1 $284 $24 $-1 $285 reversed single #
loop $-1 $-1 $117 $111 #
plane-surface $-1 0 0 14.585386480747124 0 0 1 1 0 0 forward_v I I I I #
coedge $-1 $286 $287 $288 $289 reversed $112 $-1 #
coedge $-1 $290 $114 $116 $198 forward $69 $-1 #
coedge $-1 $114 $290 $286 $291 forward $69 $-1 #
coedge $-1 $288 $117 $114 $195 forward $189 $-1 #
edge $-1 $201 13.726779004843245 $292 27.161174311676298 $194 $293 forward 7 unknown #
coedge $-1 $294 $295 $115 $197 forward $284 $-1 #
edge $-1 $296 -46.775334998738472 $200 -40.85910013765259 $196 $297 forward 7 unknown #
edge $-1 $201 -9.4009901343752009 $296 -1.3872419169116742e-014 $116 $298 forward 7 unknown #
coedge $-1 $117 $288 $294 $299 forward $189 $-1 #
vertex $-1 $197 $300 #
vertex $-1 $118 $301 #
straight-curve $-1 -34.170755663103016 -56.471638731988534 14.585386480747125 0 1 0 I I #
coedge $-1 $203 $203 $-1 $302 reversed $121 $-1 #
edge $-1 $303 0 $303 6.2831853071796004 $122 $304 forward 7 unknown #
vertex $-1 $125 $305 #
ellipse-curve $-1 -44.918271908569466 -26.514325611903057 11.627269050204188 0 -0.62932039886446345 0.77714595512881146 1 0 0 1 I I #
coedge $-1 $207 $207 $-1 $306 reversed $128 $-1 #
edge $-1 $307 0 $307 6.2831853071796004 $129 $308 forward 7 unknown #
vertex $-1 $132 $309 #
ellipse-curve $-1 -40.887953316519543 -26.514325611903057 11.627269050204188 0 -0.62932039886446345 0.77714595512881146 1 0 0 1 I I #
coedge $-1 $211 $211 $-1 $310 reversed $135 $-1 #
edge $-1 $311 0 $311 6.2831853071796004 $136 $312 forward 7 unknown #
vertex $-1 $139 $313 #
ellipse-curve $-1 -36.857634724469627 -26.514325611903057 11.627269050204188 0 -0.62932039886446345 0.77714595512881146 1 0 0 1 I I #
face $-1 $-1 $155 $21 $-1 $314 reversed single #
loop $-1 $-1 $230 $140 #
plane-surface $-1 0 30.167296340470831 0 0 -1 0 0 0 -1 forward_v I I I I #
coedge $-1 $228 $315 $143 $220 reversed $141 $-1 #
coedge $-1 $234 $143 $144 $222 reversed $88 $-1 #
edge $-1 $235 -14.585386480747124 $316 14.585386480747124 $218 $317 forward 7 unknown #
coedge $-1 $145 $144 $315 $318 forward $57 $-1 #
edge $-1 $226 -65.766167180394916 $316 65.766167180394916 $219 $319 forward 7 unknown #
coedge $-1 $231 $230 $145 $224 reversed $216 $-1 #
edge $-1 $320 -65.766167180394916 $225 65.766167180394916 $223 $321 forward 7 unknown #
vertex $-1 $147 $322 #
vertex $-1 $237 $323 #
straight-curve $-1 65.766167180394916 0 -14.585386480747124 0 -1 0 I I #
coedge $-1 $324 $218 $148 $229 reversed $141 $-1 #
edge $-1 $232 -30.167296340470831 $235 30.167296340470831 $228 $325 forward 7 unknown #
coedge $-1 $223 $149 $154 $238 forward $216 $-1 #
coedge $-1 $149 $223 $324 $326 reversed $216 $-1 #
vertex $-1 $150 $327 #
straight-curve $-1 0 30.167296340470831 14.585386480747124 -1 0 0 I I #
coedge $-1 $151 $219 $153 $237 reversed $88 $-1 #
vertex $-1 $229 $328 #
straight-curve $-1 0 -30.167296340470831 14.585386480747124 1 0 0 I I #
edge $-1 $156 -14.585386480747124 $226 14.585386480747124 $153 $329 forward 7 unknown #
edge $-1 $157 -14.585386480747124 $225 14.585386480747124 $154 $330 forward 7 unknown #
point $-1 65.766167180394916 -30.167296340470831 14.585386480747124 #
point $-1 65.766167180394916 30.167296340470831 14.585386480747124 #
face $-1 $-1 $255 $22 $-1 $331 reversed single #
loop $-1 $-1 $251 $159 #
plane-surface $-1 0 0 -14.585386480747124 0 0 1 1 0 0 forward_v I I I I #
coedge $-1 $332 $333 $245 $334 forward $160 $-1 #
coedge $-1 $163 $162 $244 $334 reversed $61 $-1 #
coedge $-1 $251 $335 $162 $247 forward $242 $-1 #
edge $-1 $336 -83.92718339085377 $249 -65.766167180394916 $162 $337 forward 7 unknown #
edge $-1 $170 -9.080508105229427 $338 9.080508105229427 $163 $339 forward 7 unknown #
vertex $-1 $164 $340 #
straight-curve $-1 -65.766167180394916 30.167296340470831 0 0 0 -1 I I #
coedge $-1 $341 $246 $165 $252 forward $242 $-1 #
edge $-1 $249 -30.167296340470831 $256 30.167296340470831 $251 $342 forward 7 unknown #
coedge $-1 $343 $166 $169 $259 reversed $255 $-1 #
coedge $-1 $166 $343 $341 $344 reversed $255 $-1 #
loop $-1 $-1 $166 $241 #
vertex $-1 $344 $345 #
straight-curve $-1 -65.766167180394916 -30.167296340470831 0 0 0 1 I I #
coedge $-1 $169 $168 $333 $346 forward $96 $-1 #
edge $-1 $347 -9.080508105229427 $171 9.080508105229427 $253 $348 forward 7 unknown #
point $-1 -65.766167180394916 30.167296340470831 -6.1120901774478877 #
point $-1 -65.766167180394916 -30.167296340470831 -6.1120901774478877 #
face $-1 $-1 $278 $23 $-1 $349 reversed single #
loop $-1 $-1 $274 $173 #
plane-surface $-1 0 0 -14.585386480747124 0 0 1 1 0 0 forward_v I I I I #
coedge $-1 $350 $266 $351 $352 forward $174 $-1 #
coedge $-1 $265 $353 $176 $267 reversed $174 $-1 #
edge $-1 $354 -30.167296340470831 $355 30.167296340470831 $266 $356 forward 7 unknown #
coedge $-1 $178 $177 $353 $357 forward $65 $-1 #
edge $-1 $355 -9.080508105229427 $186 9.080508105229427 $177 $358 forward 7 unknown #
coedge $-1 $359 $274 $178 $271 forward $263 $-1 #
edge $-1 $272 -9.080508105229427 $360 9.080508105229427 $178 $361 forward 7 unknown #
vertex $-1 $271 $362 #
straight-curve $-1 65.766167180394916 30.167296340470831 0 0 0 1 I I #
coedge $-1 $270 $363 $180 $275 forward $263 $-1 #
edge $-1 $279 -30.167296340470831 $272 30.167296340470831 $274 $364 forward 7 unknown #
coedge $-1 $351 $181 $363 $365 reversed $278 $-1 #
coedge $-1 $181 $351 $183 $281 reversed $278 $-1 #
loop $-1 $-1 $181 $262 #
vertex $-1 $182 $366 #
straight-curve $-1 65.766167180394916 -30.167296340470831 0 0 0 -1 I I #
edge $-1 $185 -9.080508105229427 $354 9.080508105229427 $277 $367 forward 7 unknown #
point $-1 65.766167180394916 -30.167296340470831 -6.1120901774478877 #
point $-1 65.766167180394916 30.167296340470831 -6.1120901774478877 #
loop $-1 $-1 $196 $188 #
plane-surface $-1 0 -30.167296340470831 0 0 1 0 0 0 1 forward_v I I I I #
coedge $-1 $287 $191 $193 $291 reversed $112 $-1 #
coedge $-1 $191 $286 $368 $369 reversed $112 $-1 #
coedge $-1 $199 $194 $191 $289 forward $189 $-1 #
edge $-1 $292 -33.610283848653239 $370 -26.304342391517704 $288 $371 forward 7 unknown #
coedge $-1 $193 $192 $295 $372 reversed $69 $-1 #
edge $-1 $373 1.3872419169116742e-014 $292 9.4009901343752009 $286 $374 forward 7 unknown #
vertex $-1 $195 $375 #
straight-curve $-1 -20.443976658259771 -22.861354883335288 14.585386480747124 -1 0 0 I I #
coedge $-1 $368 $196 $199 $299 reversed $284 $-1 #
coedge $-1 $196 $368 $290 $372 forward $284 $-1 #
vertex $-1 $197 $376 #
straight-curve $-1 -34.170755663103016 -30.167296340470827 55.444486618399715 0 0 1 I I #
straight-curve $-1 -34.170755663103016 -30.167296340470841 8.6691516196612355 0 -0.77714595512881146 -0.62932039886446345 I I #
edge $-1 $370 -47.605150969936069 $200 -34.170755663103016 $294 $377 forward 7 unknown #
point $-1 -34.170755663103016 -30.167296340470831 14.585386480747124 #
point $-1 -34.170755663103016 -22.861354883335292 14.585386480747124 #
edge $-1 $378 1 $378 0 $203 $-1 forward 7 unknown #
vertex $-1 $204 $379 #
ellipse-curve $-1 -44.918271908569466 -24.052760391978673 8.5874892219930281 0 -0.62932039886446345 0.77714595512881146 1 0 0 1 I I #
point $-1 -43.918271908569466 -26.51432561190304 11.627269050204166 #
edge $-1 $380 1 $380 0 $207 $-1 forward 7 unknown #
vertex $-1 $208 $381 #
ellipse-curve $-1 -40.887953316519543 -24.052760391978673 8.5874892219930281 0 -0.62932039886446345 0.77714595512881146 1 0 0 1 I I #
point $-1 -39.887953316519543 -26.51432561190304 11.627269050204166 #
edge $-1 $382 1 $382 0 $211 $-1 forward 7 unknown #
vertex $-1 $212 $383 #
ellipse-curve $-1 -36.857634724469627 -24.052760391978673 8.5874892219930281 0 -0.62932039886446345 0.77714595512881146 1 0 0 1 I I #
point $-1 -35.857634724469627 -26.51432561190304 11.627269050204166 #
plane-surface $-1 65.766167180394916 0 0 -1 0 0 0 0 1 forward_v I I I I #
coedge $-1 $218 $324 $221 $318 reversed $141 $-1 #
vertex $-1 $318 $384 #
straight-curve $-1 -65.766167180394916 -30.167296340470831 0 0 0 -1 I I #
edge $-1 $316 -30.167296340470831 $320 30.167296340470831 $315 $385 forward 7 unknown #
straight-curve $-1 0 -30.167296340470831 -14.585386480747124 -1 0 0 I I #
vertex $-1 $224 $386 #
straight-curve $-1 0 30.167296340470831 -14.585386480747124 1 0 0 I I #
point $-1 65.766167180394916 30.167296340470831 -14.585386480747124 #
point $-1 65.766167180394916 -30.167296340470831 -14.585386480747124 #
coedge $-1 $315 $228 $231 $326 forward $141 $-1 #
straight-curve $-1 -65.766167180394916 0 14.585386480747124 0 -1 0 I I #
edge $-1 $232 -14.585386480747124 $320 14.585386480747124 $231 $387 forward 7 unknown #
point $-1 -65.766167180394916 30.167296340470831 14.585386480747124 #
point $-1 -65.766167180394916 -30.167296340470831 14.585386480747124 #
straight-curve $-1 65.766167180394916 -30.167296340470831 0 0 0 -1 I I #
straight-curve $-1 65.766167180394916 30.167296340470831 0 0 0 -1 I I #
plane-surface $-1 0 -30.167296340470831 0 0 1 0 0 0 1 forward_v I I I I #
coedge $-1 $388 $244 $335 $389 reversed $160 $-1 #
coedge $-1 $244 $388 $258 $346 reversed $160 $-1 #
edge $-1 $338 -4.2366481516496179 $336 4.2366481516496179 $245 $390 forward 7 unknown #
coedge $-1 $246 $341 $332 $389 forward $242 $-1 #
vertex $-1 $247 $391 #
straight-curve $-1 0 30.167296340470831 -14.585386480747124 1 0 0 I I #
vertex $-1 $248 $392 #
straight-curve $-1 -74.846675285624343 30.167296340470831 -6.1120901774478877 -1 0 0 I I #
point $-1 -65.766167180394916 30.167296340470831 -14.585386480747124 #
coedge $-1 $335 $251 $254 $344 forward $242 $-1 #
straight-curve $-1 -65.766167180394916 0 -14.585386480747124 0 -1 0 I I #
coedge $-1 $254 $253 $388 $393 forward $255 $-1 #
edge $-1 $256 -9.080508105229427 $394 9.080508105229427 $254 $395 forward 7 unknown #
point $-1 -65.766167180394916 -30.167296340470831 -14.585386480747124 #
edge $-1 $338 -30.167296340470831 $347 30.167296340470831 $333 $396 forward 7 unknown #
vertex $-1 $346 $397 #
straight-curve $-1 -74.846675285624343 -30.167296340470831 -6.1120901774478877 1 0 0 I I #
plane-surface $-1 0 -30.167296340470831 0 0 1 0 0 0 1 forward_v I I I I #
coedge $-1 $353 $265 $359 $398 reversed $174 $-1 #
coedge $-1 $277 $276 $265 $352 reversed $278 $-1 #
edge $-1 $354 -4.2366481516496179 $399 4.2366481516496179 $265 $400 forward 7 unknown #
coedge $-1 $266 $350 $268 $357 reversed $174 $-1 #
vertex $-1 $267 $401 #
vertex $-1 $267 $402 #
straight-curve $-1 83.92718339085377 0 -6.1120901774478877 0 1 0 I I #
edge $-1 $355 -4.2366481516496179 $360 4.2366481516496179 $353 $403 forward 7 unknown #
straight-curve $-1 74.846675285624343 30.167296340470831 -6.1120901774478877 -1 0 0 I I #
coedge $-1 $363 $270 $350 $398 forward $263 $-1 #
vertex $-1 $398 $404 #
straight-curve $-1 74.846675285624343 30.167296340470831 -14.585386480747124 1 0 0 I I #
point $-1 65.766167180394916 30.167296340470831 -14.585386480747124 #
coedge $-1 $274 $359 $276 $365 forward $263 $-1 #
straight-curve $-1 65.766167180394916 0 -14.585386480747124 0 1 0 I I #
edge $-1 $399 -9.080508105229427 $279 9.080508105229427 $276 $405 forward 7 unknown #
point $-1 65.766167180394916 -30.167296340470831 -14.585386480747124 #
straight-curve $-1 74.846675285624343 -30.167296340470831 -6.1120901774478877 1 0 0 I I #
coedge $-1 $295 $294 $287 $369 forward $284 $-1 #
edge $-1 $370 40.85910013765259 $373 46.775334998738472 $368 $406 forward 7 unknown #
vertex $-1 $299 $407 #
straight-curve $-1 -47.605150969936069 -56.471638731988534 14.585386480747125 0 -1 0 I I #
edge $-1 $373 -27.161174311676298 $296 -13.726779004843245 $295 $408 forward 7 unknown #
vertex $-1 $372 $409 #
straight-curve $-1 -47.605150969936069 -30.167296340470841 8.6691516196612355 0 0.77714595512881146 0.62932039886446345 I I #
point $-1 -47.605150969936069 -22.861354883335292 14.585386480747124 #
point $-1 -34.170755663103016 -30.167296340470831 8.6691516196612444 #
straight-curve $-1 0 -30.167296340470831 14.585386480747124 1 0 0 I I #
vertex $-1 $302 $410 #
point $-1 -43.918271908569466 -24.052760391978673 8.5874892219930281 #
vertex $-1 $306 $411 #
point $-1 -39.887953316519543 -24.052760391978673 8.5874892219930281 #
vertex $-1 $310 $412 #
point $-1 -35.857634724469627 -24.052760391978673 8.5874892219930281 #
point $-1 -65.766167180394916 -30.167296340470831 -14.585386480747124 #
straight-curve $-1 -65.766167180394916 0 -14.585386480747124 0 1 0 I I #
point $-1 -65.766167180394916 30.167296340470831 -14.585386480747124 #
straight-curve $-1 -65.766167180394916 30.167296340470831 0 0 0 -1 I I #
coedge $-1 $333 $332 $343 $393 reversed $160 $-1 #
edge $-1 $394 -30.167296340470831 $336 30.167296340470831 $332 $413 forward 7 unknown #
straight-curve $-1 -83.92718339085377 30.167296340470831 -10.348738329097506 0 0 -1 I I #
point $-1 -83.92718339085377 30.167296340470831 -14.585386480747124 #
point $-1 -83.92718339085377 30.167296340470831 -6.1120901774478877 #
edge $-1 $347 -4.2366481516496179 $394 4.2366481516496179 $388 $414 forward 7 unknown #
vertex $-1 $389 $415 #
straight-curve $-1 -74.846675285624343 -30.167296340470831 -14.585386480747124 -1 0 0 I I #
straight-curve $-1 -83.92718339085377 0 -6.1120901774478877 0 -1 0 I I #
point $-1 -83.92718339085377 -30.167296340470831 -6.1120901774478877 #
edge $-1 $360 -30.167296340470831 $399 30.167296340470831 $350 $416 forward 7 unknown #
vertex $-1 $352 $417 #
straight-curve $-1 83.92718339085377 -30.167296340470831 -10.348738329097506 0 0 -1 I I #
point $-1 83.92718339085377 -30.167296340470831 -6.1120901774478877 #
point $-1 83.92718339085377 30.167296340470831 -6.1120901774478877 #
straight-curve $-1 83.92718339085377 30.167296340470831 -10.348738329097506 0 0 -1 I I #
point $-1 83.92718339085377 30.167296340470831 -14.585386480747124 #
straight-curve $-1 74.846675285624343 -30.167296340470831 -14.585386480747124 -1 0 0 I I #
straight-curve $-1 -47.605150969936069 -30.167296340470827 55.444486618399715 0 0 -1 I I #
point $-1 -47.605150969936069 -30.167296340470831 14.585386480747124 #
straight-curve $-1 -20.443976658259771 -30.167296340470831 8.6691516196612461 1 0 0 I I #
point $-1 -47.605150969936069 -30.167296340470831 8.6691516196612444 #
point $-1 -44.918271908569466 -23.423439993114208 7.8103432668642165 #
point $-1 -40.887953316519543 -23.423439993114208 7.8103432668642165 #
point $-1 -36.857634724469627 -23.423439993114208 7.8103432668642165 #
straight-curve $-1 -83.92718339085377 0 -14.585386480747124 0 1 0 I I #
straight-curve $-1 -83.92718339085377 -30.167296340470831 -10.348738329097506 0 0 -1 I I #
point $-1 -83.92718339085377 -30.167296340470831 -14.585386480747124 #
straight-curve $-1 83.92718339085377 0 -14.585386480747124 0 -1 0 I I #
point $-1 83.92718339085377 -30.167296340470831 -14.585386480747124 #
End-of-ACIS-data 