500 0 9 0           
7 Unknown 11 ACIS 5.0 NT 24 Fri Mar 26 03:37:22 1999 
-1 9.9999999999999995e-007 1e-010 
body $-1 $9 $-1 $10 #
body $-1 $11 $-1 $12 #
body $-1 $13 $-1 $14 #
body $-1 $15 $-1 $16 #
body $-1 $17 $-1 $18 #
body $-1 $19 $-1 $20 #
body $-1 $21 $-1 $22 #
body $-1 $23 $-1 $24 #
body $-1 $25 $-1 $26 #
lump $-1 $-1 $27 $0 #
transform $-1 1 0 0 0 1 0 0 0 1 64.080324716940822 32.445370137069311 13.897039118617522 1 rotate no_reflect no_shear #
lump $-1 $-1 $28 $1 #
transform $-1 1 0 0 0 1 0 0 0 1 64.080324716940822 32.445370137069311 13.897039118617522 1 rotate no_reflect no_shear #
lump $-1 $-1 $29 $2 #
transform $-1 1 0 0 0 1 0 0 0 1 64.080324716940822 32.445370137069311 13.897039118617522 1 rotate no_reflect no_shear #
lump $-1 $-1 $30 $3 #
transform $-1 1 0 0 0 1 0 0 0 1 64.080324716940822 32.445370137069311 13.897039118617522 1 rotate no_reflect no_shear #
lump $-1 $-1 $31 $4 #
transform $-1 1 0 0 0 1 0 0 0 1 64.080324716940822 32.445370137069311 13.897039118617522 1 rotate no_reflect no_shear #
lump $-1 $-1 $32 $5 #
transform $-1 1 0 0 0 1 0 0 0 1 64.080324716940822 32.445370137069311 13.897039118617522 1 rotate no_reflect no_shear #
lump $-1 $-1 $33 $6 #
transform $-1 1 0 0 0 1 0 0 0 1 64.080324716940822 32.445370137069311 13.897039118617522 1 rotate no_reflect no_shear #
lump $-1 $-1 $34 $7 #
transform $-1 1 0 0 0 1 0 0 0 1 64.080324716940822 32.445370137069311 13.897039118617522 1 rotate no_reflect no_shear #
lump $-1 $-1 $35 $8 #
transform $-1 1 0 0 0 1 0 0 0 1 64.080324716940822 32.445370137069311 13.897039118617522 1 rotate no_reflect no_shear #
shell $-1 $-1 $-1 $36 $-1 $9 #
shell $-1 $-1 $-1 $37 $-1 $11 #
shell $-1 $-1 $-1 $38 $-1 $13 #
shell $-1 $-1 $-1 $39 $-1 $15 #
shell $-1 $-1 $-1 $40 $-1 $17 #
shell $-1 $-1 $-1 $41 $-1 $19 #
shell $-1 $-1 $-1 $42 $-1 $21 #
shell $-1 $-1 $-1 $43 $-1 $23 #
shell $-1 $-1 $-1 $44 $-1 $25 #
face $-1 $45 $46 $27 $-1 $47 forward single #
face $-1 $48 $49 $28 $-1 $50 forward single #
face $-1 $51 $52 $29 $-1 $53 reversed single #
face $-1 $54 $55 $30 $-1 $56 forward single #
face $-1 $57 $58 $31 $-1 $59 forward single #
face $-1 $60 $61 $32 $-1 $62 forward single #
face $-1 $63 $64 $33 $-1 $65 reversed single #
face $-1 $66 $67 $34 $-1 $68 forward single #
face $-1 $69 $70 $35 $-1 $71 forward single #
face $-1 $72 $73 $27 $-1 $74 reversed single #
loop $-1 $-1 $75 $36 #
plane-surface $-1 0 0 13.897039118617522 0 0 1 1 0 0 forward_v I I I I #
face $-1 $76 $77 $28 $-1 $78 reversed single #
loop $-1 $-1 $79 $37 #
plane-surface $-1 0 -25.744573029580774 -5.6341388124443075 0 0 1 1 0 0 forward_v I I I I #
face $-1 $80 $81 $29 $-1 $82 reversed single #
loop $-1 $-1 $83 $38 #
plane-surface $-1 -170.33031945545741 4.7571797123007364 77.909699138055089 0 1 0 -0.82903758062907751 0 0.55919289150049634 forward_v I I I I #
face $-1 $84 $85 $30 $-1 $86 forward single #
loop $-1 $87 $88 $39 #
cone-surface $-1 -60.856412979712019 7.8240410336743267 9.6366587613689205 0.82903758062907751 0 -0.55919289150049634 0.83878933725074445 0 1.2435563709436162 1 I I 0 1 1.5 forward I I I I #
face $-1 $89 $90 $31 $-1 $91 forward single #
loop $-1 $92 $93 $40 #
cone-surface $-1 -60.856412979712019 12.42433301573471 9.6366587613689205 0.82903758062907751 0 -0.55919289150049634 0.83878933725074445 0 1.2435563709436162 1 I I 0 1 1.5 forward I I I I #
face $-1 $94 $95 $32 $-1 $96 forward single #
loop $-1 $97 $98 $41 #
cone-surface $-1 -60.856412979712019 17.024624997795094 9.6366587613689205 0.82903758062907751 0 -0.55919289150049634 0.83878933725074445 0 1.2435563709436162 1 I I 0 1 1.5 forward I I I I #
face $-1 $99 $100 $33 $-1 $101 reversed single #
loop $-1 $-1 $102 $42 #
plane-surface $-1 64.080326819862989 16.103836399440318 186.37362756626467 0 -1 0 -0.70710678939079041 0 -0.70710677298230451 forward_v I I I I #
face $-1 $103 $104 $34 $-1 $105 forward single #
loop $-1 $106 $107 $43 #
cone-surface $-1 58.276571635534715 7.1134691471027836 8.0932859683807514 -0.70710678939079041 0 -0.70710677298230451 1.0606601594734568 0 -1.0606601840861856 1 I I 0 1 1.5 forward I I I I #
face $-1 $108 $109 $35 $-1 $110 forward single #
loop $-1 $111 $112 $44 #
cone-surface $-1 58.276571635534715 12.5076894985053 8.0932859683807514 -0.70710678939079041 0 -0.70710677298230451 1.0606601594734568 0 -1.0606601840861856 1 I I 0 1 1.5 forward I I I I #
face $-1 $113 $114 $27 $-1 $115 reversed single #
loop $-1 $-1 $116 $45 #
plane-surface $-1 0 0 -13.897039118617522 0 0 1 1 0 0 forward_v I I I I #
coedge $-1 $117 $118 $119 $120 forward $46 $-1 #
face $-1 $121 $122 $28 $-1 $123 reversed single #
loop $-1 $-1 $124 $48 #
plane-surface $-1 0 -19.043775922092237 -9.7655889655309149 0 -1 0 0 0 -1 forward_v I I I I #
coedge $-1 $125 $126 $127 $128 reversed $49 $-1 #
face $-1 $129 $130 $29 $-1 $131 reversed single #
loop $-1 $-1 $132 $51 #
plane-surface $-1 -64.080324716940822 12.42433301573471 6.2431750045413565 -0.82903758062907751 0 0.55919289150049634 0.55919289150049634 0 0.82903758062907751 forward_v I I I I #
coedge $-1 $133 $134 $135 $136 reversed $52 $-1 #
face $-1 $-1 $137 $30 $-1 $138 forward single #
loop $-1 $139 $140 $54 #
cone-surface $-1 -59.592021242465478 7.8240410336743267 8.7838157925330247 0.82903758062907751 0 -0.55919289150049634 0.41939466862537222 0 0.62177818547180808 1 I I -0.70710678118654757 0.70710678118654757 0.75 forward I I I I #
loop $-1 $-1 $141 $39 #
coedge $-1 $88 $88 $142 $143 reversed $55 $-1 #
face $-1 $-1 $144 $31 $-1 $145 forward single #
loop $-1 $146 $147 $57 #
cone-surface $-1 -59.592021242465478 12.42433301573471 8.7838157925330247 0.82903758062907751 0 -0.55919289150049634 0.41939466862537222 0 0.62177818547180808 1 I I -0.70710678118654757 0.70710678118654757 0.75 forward I I I I #
loop $-1 $-1 $148 $40 #
coedge $-1 $93 $93 $149 $150 reversed $58 $-1 #
face $-1 $-1 $151 $32 $-1 $152 forward single #
loop $-1 $153 $154 $60 #
cone-surface $-1 -59.592021242465478 17.024624997795094 8.7838157925330247 0.82903758062907751 0 -0.55919289150049634 0.41939466862537222 0 0.62177818547180808 1 I I -0.70710678118654757 0.70710678118654757 0.75 forward I I I I #
loop $-1 $-1 $155 $41 #
coedge $-1 $98 $98 $156 $157 reversed $61 $-1 #
face $-1 $158 $159 $33 $-1 $160 reversed single #
loop $-1 $-1 $161 $63 #
plane-surface $-1 -26.542938527567685 9.8105793228040454 95.750364321756209 0.70710678939079041 0 0.70710677298230451 0.70710677298230451 0 -0.70710678939079041 forward_v I I I I #
coedge $-1 $162 $163 $164 $165 reversed $64 $-1 #
face $-1 $-1 $166 $34 $-1 $167 forward single #
loop $-1 $168 $169 $66 #
cone-surface $-1 56.327458432477812 7.1134691471027836 6.1441728105532203 -0.70710678939079041 0 -0.70710677298230451 0.53033007973672841 0 -0.53033009204309278 1 I I -0.70710678118654757 0.70710678118654757 0.75 forward I I I I #
loop $-1 $-1 $170 $43 #
coedge $-1 $107 $107 $171 $172 reversed $67 $-1 #
face $-1 $-1 $173 $35 $-1 $174 forward single #
loop $-1 $175 $176 $69 #
cone-surface $-1 56.327458432477812 12.5076894985053 6.1441728105532203 -0.70710678939079041 0 -0.70710677298230451 0.53033007973672841 0 -0.53033009204309278 1 I I -0.70710678118654757 0.70710678118654757 0.75 forward I I I I #
loop $-1 $-1 $177 $44 #
coedge $-1 $112 $112 $178 $179 reversed $70 $-1 #
face $-1 $180 $181 $27 $-1 $182 reversed single #
loop $-1 $-1 $183 $72 #
plane-surface $-1 0 -32.445370137069311 0 0 1 0 0 0 1 forward_v I I I I #
coedge $-1 $184 $185 $186 $187 forward $73 $-1 #
coedge $-1 $188 $75 $189 $190 forward $46 $-1 #
coedge $-1 $75 $188 $191 $192 forward $46 $-1 #
coedge $-1 $193 $194 $75 $120 reversed $195 $-1 #
edge $-1 $196 -32.445370137069311 $197 32.445370137069311 $119 $198 forward 7 unknown #
face $-1 $199 $200 $28 $-1 $201 reversed single #
loop $-1 $-1 $202 $76 #
plane-surface $-1 0 0 -13.897039118617522 0 0 1 1 0 0 forward_v I I I I #
coedge $-1 $203 $204 $205 $206 reversed $77 $-1 #
coedge $-1 $207 $79 $204 $208 forward $49 $-1 #
coedge $-1 $79 $207 $209 $210 reversed $49 $-1 #
coedge $-1 $211 $205 $79 $128 forward $200 $-1 #
edge $-1 $212 6.1714894073018502 $213 19.573083622278922 $127 $214 forward 7 unknown #
face $-1 $215 $216 $29 $-1 $217 forward single #
loop $-1 $-1 $218 $80 #
plane-surface $-1 -170.33031945545741 20.091486319168684 77.909699138055089 0 -1 0 0.82903758062907751 0 -0.55919289150049634 forward_v I I I I #
coedge $-1 $219 $220 $221 $222 reversed $81 $-1 #
coedge $-1 $134 $83 $223 $224 reversed $52 $-1 #
coedge $-1 $83 $133 $219 $225 reversed $52 $-1 #
coedge $-1 $221 $226 $83 $136 forward $216 $-1 #
edge $-1 $227 21.084835010787884 $228 26.247431381696018 $135 $229 forward 7 unknown #
loop $-1 $-1 $142 $84 #
plane-surface $-1 -64.080324716940822 12.42433301573471 6.2431750045413565 -0.82903758062907751 0 0.55919289150049634 0.55919289150049634 0 0.82903758062907751 forward_v I I I I #
loop $-1 $-1 $230 $54 #
coedge $-1 $140 $140 $141 $231 reversed $85 $-1 #
coedge $-1 $141 $141 $140 $231 forward $87 $-1 #
coedge $-1 $142 $142 $88 $143 forward $137 $-1 #
edge $-1 $232 0 $232 6.2831853071796004 $142 $233 forward 7 unknown #
loop $-1 $-1 $149 $89 #
plane-surface $-1 -64.080324716940822 12.42433301573471 6.2431750045413565 -0.82903758062907751 0 0.55919289150049634 0.55919289150049634 0 0.82903758062907751 forward_v I I I I #
loop $-1 $-1 $234 $57 #
coedge $-1 $147 $147 $148 $235 reversed $90 $-1 #
coedge $-1 $148 $148 $147 $235 forward $92 $-1 #
coedge $-1 $149 $149 $93 $150 forward $144 $-1 #
edge $-1 $236 0 $236 6.2831853071796004 $149 $237 forward 7 unknown #
loop $-1 $-1 $156 $94 #
plane-surface $-1 -64.080324716940822 12.42433301573471 6.2431750045413565 -0.82903758062907751 0 0.55919289150049634 0.55919289150049634 0 0.82903758062907751 forward_v I I I I #
loop $-1 $-1 $238 $60 #
coedge $-1 $154 $154 $155 $239 reversed $95 $-1 #
coedge $-1 $155 $155 $154 $239 forward $97 $-1 #
coedge $-1 $156 $156 $98 $157 forward $151 $-1 #
edge $-1 $240 0 $240 6.2831853071796004 $156 $241 forward 7 unknown #
face $-1 $242 $243 $33 $-1 $244 reversed single #
loop $-1 $-1 $245 $99 #
plane-surface $-1 64.080326819862989 3.5173222461677724 186.37362756626467 0 1 0 0.70710678939079041 0 0.70710677298230451 forward_v I I I I #
coedge $-1 $246 $247 $248 $249 reversed $100 $-1 #
coedge $-1 $163 $102 $250 $251 reversed $64 $-1 #
coedge $-1 $102 $162 $246 $252 reversed $64 $-1 #
coedge $-1 $248 $253 $102 $165 forward $254 $-1 #
edge $-1 $255 -32.040161307009328 $256 -23.270221366224661 $164 $257 forward 7 unknown #
loop $-1 $-1 $171 $103 #
plane-surface $-1 -26.542938527567685 9.8105793228040454 95.750364321756209 0.70710678939079041 0 0.70710677298230451 0.70710677298230451 0 -0.70710678939079041 forward_v I I I I #
loop $-1 $-1 $258 $66 #
coedge $-1 $169 $169 $170 $259 reversed $104 $-1 #
coedge $-1 $170 $170 $169 $259 forward $106 $-1 #
coedge $-1 $171 $171 $107 $172 forward $166 $-1 #
edge $-1 $260 0 $260 6.2831853071796004 $171 $261 forward 7 unknown #
loop $-1 $-1 $178 $108 #
plane-surface $-1 -26.542938527567685 9.8105793228040454 95.750364321756209 0.70710678939079041 0 0.70710677298230451 0.70710677298230451 0 -0.70710678939079041 forward_v I I I I #
loop $-1 $-1 $262 $69 #
coedge $-1 $176 $176 $177 $263 reversed $109 $-1 #
coedge $-1 $177 $177 $176 $263 forward $111 $-1 #
coedge $-1 $178 $178 $112 $179 forward $173 $-1 #
edge $-1 $264 0 $264 6.2831853071796004 $178 $265 forward 7 unknown #
face $-1 $266 $267 $27 $-1 $268 reversed single #
loop $-1 $-1 $269 $113 #
plane-surface $-1 -64.080324716940822 0 0 1 0 0 0 0 -1 forward_v I I I I #
coedge $-1 $270 $191 $271 $272 forward $114 $-1 #
coedge $-1 $273 $116 $270 $274 forward $73 $-1 #
coedge $-1 $116 $273 $275 $276 forward $73 $-1 #
coedge $-1 $194 $193 $116 $187 reversed $195 $-1 #
edge $-1 $277 -32.445370137069311 $278 32.445370137069311 $186 $279 forward 7 unknown #
coedge $-1 $118 $117 $280 $281 forward $46 $-1 #
coedge $-1 $282 $283 $117 $190 reversed $267 $-1 #
edge $-1 $197 -64.080324716940822 $284 64.080324716940822 $189 $285 forward 7 unknown #
coedge $-1 $183 $286 $118 $192 reversed $114 $-1 #
edge $-1 $287 -64.080324716940822 $196 64.080324716940822 $191 $288 forward 7 unknown #
coedge $-1 $186 $119 $286 $289 forward $195 $-1 #
coedge $-1 $119 $186 $282 $290 reversed $195 $-1 #
loop $-1 $-1 $193 $266 #
vertex $-1 $120 $291 #
vertex $-1 $120 $292 #
straight-curve $-1 64.080324716940822 0 13.897039118617522 0 1 0 I I #
face $-1 $293 $294 $28 $-1 $295 reversed single #
loop $-1 $-1 $205 $121 #
plane-surface $-1 64.080324716940822 0 0 -1 0 0 0 0 1 forward_v I I I I #
coedge $-1 $296 $297 $203 $298 forward $122 $-1 #
coedge $-1 $299 $124 $202 $298 reversed $77 $-1 #
coedge $-1 $124 $299 $125 $208 reversed $77 $-1 #
coedge $-1 $127 $300 $124 $206 forward $200 $-1 #
edge $-1 $301 -9.0142446358520658 $212 -0.75134432967885001 $205 $302 forward 7 unknown #
coedge $-1 $126 $125 $303 $304 reversed $49 $-1 #
edge $-1 $212 -64.080324716940822 $305 64.080324716940822 $204 $306 forward 7 unknown #
coedge $-1 $307 $308 $126 $210 forward $294 $-1 #
edge $-1 $213 -64.080324716940822 $309 64.080324716940822 $209 $310 forward 7 unknown #
coedge $-1 $300 $127 $308 $311 forward $200 $-1 #
vertex $-1 $128 $312 #
vertex $-1 $311 $313 #
straight-curve $-1 64.080324716940822 -12.872286514790387 -5.6341388124443075 0 -1 0 I I #
face $-1 $-1 $314 $29 $-1 $315 reversed single #
loop $-1 $-1 $135 $129 #
plane-surface $-1 0 0 13.897039118617522 0 0 1 1 0 0 forward_v I I I I #
coedge $-1 $316 $317 $318 $319 reversed $130 $-1 #
coedge $-1 $320 $132 $134 $225 forward $81 $-1 #
coedge $-1 $132 $320 $316 $321 forward $81 $-1 #
coedge $-1 $318 $135 $132 $222 forward $216 $-1 #
edge $-1 $228 -1.4549867955666187 $322 13.879319811301329 $221 $323 forward 7 unknown #
coedge $-1 $324 $325 $133 $224 forward $314 $-1 #
edge $-1 $326 -32.711674564486188 $227 -25.057810450410024 $223 $327 forward 7 unknown #
edge $-1 $228 -9.2322281798955093 $326 0 $134 $328 forward 7 unknown #
coedge $-1 $135 $318 $324 $329 forward $216 $-1 #
vertex $-1 $224 $330 #
vertex $-1 $136 $331 #
straight-curve $-1 -85.165159727728707 4.7571797123007364 13.897039118617521 1 0 0 I I #
coedge $-1 $230 $230 $-1 $332 reversed $139 $-1 #
edge $-1 $333 0 $333 6.2831853071796004 $140 $334 forward 7 unknown #
vertex $-1 $143 $335 #
ellipse-curve $-1 -61.499026531486756 7.8240410336743267 10.070107061579442 -0.82903758062907751 0 0.55919289150049634 0.83878933725074445 0 1.2435563709436162 1 I I #
coedge $-1 $234 $234 $-1 $336 reversed $146 $-1 #
edge $-1 $337 0 $337 6.2831853071796004 $147 $338 forward 7 unknown #
vertex $-1 $150 $339 #
ellipse-curve $-1 -61.499026531486756 12.42433301573471 10.070107061579442 -0.82903758062907751 0 0.55919289150049634 0.83878933725074445 0 1.2435563709436162 1 I I #
coedge $-1 $238 $238 $-1 $340 reversed $153 $-1 #
edge $-1 $341 0 $341 6.2831853071796004 $154 $342 forward 7 unknown #
vertex $-1 $157 $343 #
ellipse-curve $-1 -61.499026531486756 17.024624997795094 10.070107061579442 -0.82903758062907751 0 0.55919289150049634 0.83878933725074445 0 1.2435563709436162 1 I I #
face $-1 $-1 $254 $33 $-1 $344 forward single #
loop $-1 $-1 $345 $158 #
plane-surface $-1 64.080324716940822 0 0 -1 0 0 0 0 1 forward_v I I I I #
coedge $-1 $346 $347 $348 $349 reversed $159 $-1 #
coedge $-1 $350 $161 $163 $252 forward $100 $-1 #
coedge $-1 $161 $350 $346 $351 forward $100 $-1 #
coedge $-1 $348 $164 $161 $249 forward $254 $-1 #
edge $-1 $256 -11.198546738038296 $352 1.3879674152342503 $248 $353 forward 7 unknown #
coedge $-1 $354 $355 $162 $251 forward $243 $-1 #
edge $-1 $356 -88.059714808806859 $255 -79.289774664514809 $250 $357 forward 7 unknown #
edge $-1 $256 115.75808128452512 $356 128.16064943388179 $163 $358 forward 7 unknown #
coedge $-1 $164 $348 $354 $359 forward $254 $-1 #
loop $-1 $-1 $348 $242 #
vertex $-1 $251 $360 #
vertex $-1 $165 $361 #
straight-curve $-1 32.040163409931495 16.103836399440318 13.897039118617528 -1 0 0 I I #
coedge $-1 $258 $258 $-1 $362 reversed $168 $-1 #
edge $-1 $363 0 $363 6.2831853071796004 $169 $364 forward 7 unknown #
vertex $-1 $172 $365 #
ellipse-curve $-1 59.695354746548489 7.1134691471027836 9.512069046471515 0.70710678939079041 0 0.70710677298230451 1.0606601594734568 0 -1.0606601840861856 1 I I #
coedge $-1 $262 $262 $-1 $366 reversed $175 $-1 #
edge $-1 $367 0 $367 6.2831853071796004 $176 $368 forward 7 unknown #
vertex $-1 $179 $369 #
ellipse-curve $-1 59.695354746548489 12.5076894985053 9.512069046471515 0.70710678939079041 0 0.70710677298230451 1.0606601594734568 0 -1.0606601840861856 1 I I #
face $-1 $-1 $195 $27 $-1 $370 reversed single #
loop $-1 $-1 $282 $180 #
plane-surface $-1 0 32.445370137069311 0 0 -1 0 0 0 -1 forward_v I I I I #
coedge $-1 $371 $280 $283 $372 forward $181 $-1 #
coedge $-1 $286 $183 $184 $274 reversed $114 $-1 #
coedge $-1 $280 $371 $183 $272 reversed $181 $-1 #
edge $-1 $287 -13.897039118617522 $373 13.897039118617522 $271 $374 forward 7 unknown #
coedge $-1 $185 $184 $371 $375 forward $73 $-1 #
edge $-1 $278 -64.080324716940822 $373 64.080324716940822 $270 $376 forward 7 unknown #
coedge $-1 $283 $282 $185 $276 reversed $267 $-1 #
edge $-1 $377 -64.080324716940822 $277 64.080324716940822 $275 $378 forward 7 unknown #
vertex $-1 $187 $379 #
vertex $-1 $289 $380 #
straight-curve $-1 64.080324716940822 0 -13.897039118617522 0 -1 0 I I #
coedge $-1 $269 $271 $188 $281 reversed $181 $-1 #
edge $-1 $284 -32.445370137069311 $287 32.445370137069311 $280 $381 forward 7 unknown #
coedge $-1 $275 $189 $194 $290 forward $267 $-1 #
coedge $-1 $189 $275 $269 $372 reversed $267 $-1 #
vertex $-1 $190 $382 #
straight-curve $-1 0 32.445370137069311 13.897039118617522 -1 0 0 I I #
coedge $-1 $191 $270 $193 $289 reversed $114 $-1 #
vertex $-1 $281 $383 #
straight-curve $-1 0 -32.445370137069311 13.897039118617522 1 0 0 I I #
edge $-1 $196 -13.897039118617522 $278 13.897039118617522 $193 $384 forward 7 unknown #
edge $-1 $197 -13.897039118617522 $277 13.897039118617522 $194 $385 forward 7 unknown #
point $-1 64.080324716940822 -32.445370137069311 13.897039118617522 #
point $-1 64.080324716940822 32.445370137069311 13.897039118617522 #
face $-1 $-1 $386 $28 $-1 $387 reversed single #
loop $-1 $-1 $209 $199 #
plane-surface $-1 0 -32.445370137069311 0 0 1 0 0 0 1 forward_v I I I I #
coedge $-1 $388 $202 $300 $389 forward $122 $-1 #
coedge $-1 $202 $388 $390 $391 forward $122 $-1 #
edge $-1 $392 -64.080324716940822 $301 64.080324716940822 $202 $393 forward 7 unknown #
coedge $-1 $204 $203 $394 $395 reversed $77 $-1 #
coedge $-1 $205 $211 $296 $389 reversed $200 $-1 #
vertex $-1 $389 $396 #
straight-curve $-1 64.080324716940822 -19.043775922092237 -4.8827944827654575 0 0 1 I I #
coedge $-1 $394 $397 $207 $304 forward $386 $-1 #
edge $-1 $309 -19.573083622278922 $305 -6.1714894073018502 $303 $398 forward 7 unknown #
vertex $-1 $304 $399 #
straight-curve $-1 0 -19.043775922092237 -5.6341388124443075 -1 0 0 I I #
coedge $-1 $400 $209 $397 $401 forward $294 $-1 #
coedge $-1 $209 $400 $211 $311 reversed $294 $-1 #
vertex $-1 $401 $402 #
straight-curve $-1 0 -32.445370137069311 -5.6341388124443075 -1 0 0 I I #
edge $-1 $213 5.6341388124443075 $403 13.897039118617522 $211 $404 forward 7 unknown #
point $-1 64.080324716940822 -19.043775922092237 -5.6341388124443075 #
point $-1 64.080324716940822 -32.445370137069311 -5.6341388124443075 #
loop $-1 $-1 $223 $215 #
plane-surface $-1 -64.080324716940822 0 0 1 0 0 0 0 -1 forward_v I I I I #
coedge $-1 $317 $218 $220 $321 reversed $130 $-1 #
coedge $-1 $218 $316 $405 $406 reversed $130 $-1 #
coedge $-1 $226 $221 $218 $319 forward $216 $-1 #
edge $-1 $322 -26.247431381696018 $407 -21.084835010787884 $318 $408 forward 7 unknown #
coedge $-1 $220 $219 $325 $409 reversed $81 $-1 #
edge $-1 $410 0 $322 9.2322281798955093 $316 $411 forward 7 unknown #
vertex $-1 $222 $412 #
straight-curve $-1 -58.917728346032682 6.2121665078673551 13.897039118617522 0 1 0 I I #
coedge $-1 $405 $223 $226 $329 reversed $314 $-1 #
coedge $-1 $223 $405 $320 $409 forward $314 $-1 #
vertex $-1 $224 $413 #
straight-curve $-1 -64.080324716940822 4.7571797123007364 38.954849569027544 0 0 1 I I #
straight-curve $-1 -64.080324716940822 4.7571797123007364 6.2431750045413565 -0.55919289150049634 0 -0.82903758062907751 I I #
edge $-1 $407 -20.091486319168684 $227 -4.7571797123007364 $324 $414 forward 7 unknown #
point $-1 -64.080324716940822 4.7571797123007364 13.897039118617522 #
point $-1 -58.917728346032689 4.7571797123007364 13.897039118617522 #
edge $-1 $415 1 $415 0 $230 $-1 forward 7 unknown #
vertex $-1 $231 $416 #
ellipse-curve $-1 -60.213799427937289 7.8240410336743267 9.2032104611583971 -0.82903758062907751 0 0.55919289150049634 0.83878933725074445 0 1.2435563709436162 1 I I #
point $-1 -60.660237194236011 7.8240410336743267 11.313663432523061 #
edge $-1 $417 1 $417 0 $234 $-1 forward 7 unknown #
vertex $-1 $235 $418 #
ellipse-curve $-1 -60.213799427937289 12.42433301573471 9.2032104611583971 -0.82903758062907751 0 0.55919289150049634 0.83878933725074445 0 1.2435563709436162 1 I I #
point $-1 -60.660237194236011 12.42433301573471 11.313663432523061 #
edge $-1 $419 1 $419 0 $238 $-1 forward 7 unknown #
vertex $-1 $239 $420 #
ellipse-curve $-1 -60.213799427937289 17.024624997795094 9.2032104611583971 -0.82903758062907751 0 0.55919289150049634 0.83878933725074445 0 1.2435563709436162 1 I I #
point $-1 -60.660237194236011 17.024624997795094 11.313663432523061 #
plane-surface $-1 0 0 13.897039118617522 0 0 1 1 0 0 forward_v I I I I #
coedge $-1 $355 $354 $347 $421 forward $243 $-1 #
coedge $-1 $347 $245 $247 $351 reversed $159 $-1 #
coedge $-1 $245 $346 $345 $421 reversed $159 $-1 #
coedge $-1 $253 $248 $245 $349 forward $254 $-1 #
edge $-1 $352 23.270221366224661 $422 32.040161307009328 $348 $423 forward 7 unknown #
coedge $-1 $247 $246 $355 $424 reversed $100 $-1 #
edge $-1 $425 -128.16064943388179 $352 -115.75808128452512 $346 $426 forward 7 unknown #
vertex $-1 $249 $427 #
straight-curve $-1 55.310384776156148 4.9052896614020227 13.897039118617521 0 -1 0 I I #
coedge $-1 $345 $250 $253 $359 reversed $243 $-1 #
coedge $-1 $250 $345 $350 $424 forward $243 $-1 #
vertex $-1 $251 $428 #
straight-curve $-1 64.080324716940822 16.103836399440318 93.186813783132337 0 0 1 I I #
straight-curve $-1 -26.542938527567685 16.103836399440318 95.750364321756209 0.70710677298230451 0 -0.70710678939079041 I I #
edge $-1 $422 3.5173222461677724 $255 16.103836399440318 $354 $429 forward 7 unknown #
point $-1 64.080324716940822 16.103836399440318 13.897039118617522 #
point $-1 55.310384776156155 16.103836399440318 13.897039118617528 #
edge $-1 $430 1 $430 0 $258 $-1 forward 7 unknown #
vertex $-1 $259 $431 #
ellipse-curve $-1 56.857788524520906 7.1134691471027836 6.6745028902899488 0.70710678939079041 0 0.70710677298230451 1.0606601594734568 0 -1.0606601840861856 1 I I #
point $-1 60.756014906021981 7.1134691471027836 8.4514088623853691 #
edge $-1 $432 1 $432 0 $262 $-1 forward 7 unknown #
vertex $-1 $263 $433 #
ellipse-curve $-1 56.857788524520906 12.5076894985053 6.6745028902899488 0.70710678939079041 0 0.70710677298230451 1.0606601594734568 0 -1.0606601840861856 1 I I #
point $-1 60.756014906021981 12.5076894985053 8.4514088623853691 #
plane-surface $-1 64.080324716940822 0 0 -1 0 0 0 0 1 forward_v I I I I #
coedge $-1 $271 $269 $273 $375 reversed $181 $-1 #
edge $-1 $284 -13.897039118617522 $377 13.897039118617522 $283 $434 forward 7 unknown #
vertex $-1 $375 $435 #
straight-curve $-1 -64.080324716940822 -32.445370137069311 0 0 0 -1 I I #
edge $-1 $373 -32.445370137069311 $377 32.445370137069311 $371 $436 forward 7 unknown #
straight-curve $-1 0 -32.445370137069311 -13.897039118617522 -1 0 0 I I #
vertex $-1 $276 $437 #
straight-curve $-1 0 32.445370137069311 -13.897039118617522 1 0 0 I I #
point $-1 64.080324716940822 32.445370137069311 -13.897039118617522 #
point $-1 64.080324716940822 -32.445370137069311 -13.897039118617522 #
straight-curve $-1 -64.080324716940822 0 13.897039118617522 0 -1 0 I I #
point $-1 -64.080324716940822 32.445370137069311 13.897039118617522 #
point $-1 -64.080324716940822 -32.445370137069311 13.897039118617522 #
straight-curve $-1 64.080324716940822 -32.445370137069311 0 0 0 -1 I I #
straight-curve $-1 64.080324716940822 32.445370137069311 0 0 0 -1 I I #
loop $-1 $-1 $394 $293 #
plane-surface $-1 -64.080324716940822 0 0 1 0 0 0 0 -1 forward_v I I I I #
coedge $-1 $297 $296 $400 $438 forward $122 $-1 #
edge $-1 $301 19.043775922092237 $403 32.445370137069311 $300 $439 forward 7 unknown #
coedge $-1 $397 $394 $297 $391 reversed $386 $-1 #
edge $-1 $440 -32.445370137069311 $392 -19.043775922092237 $390 $441 forward 7 unknown #
vertex $-1 $395 $442 #
straight-curve $-1 0 -19.043775922092237 -13.897039118617522 1 0 0 I I #
coedge $-1 $390 $303 $299 $395 forward $386 $-1 #
edge $-1 $305 0.75134432967885001 $392 9.0142446358520658 $394 $443 forward 7 unknown #
point $-1 64.080324716940822 -19.043775922092237 -13.897039118617522 #
coedge $-1 $303 $390 $307 $401 reversed $386 $-1 #
straight-curve $-1 -64.080324716940822 -12.872286514790387 -5.6341388124443075 0 1 0 I I #
point $-1 -64.080324716940822 -19.043775922092237 -5.6341388124443075 #
coedge $-1 $308 $307 $388 $438 reversed $294 $-1 #
edge $-1 $309 5.6341388124443075 $440 13.897039118617522 $397 $444 forward 7 unknown #
point $-1 -64.080324716940822 -32.445370137069311 -5.6341388124443075 #
vertex $-1 $311 $445 #
straight-curve $-1 64.080324716940822 -32.445370137069311 0 0 0 -1 I I #
coedge $-1 $325 $324 $317 $406 forward $314 $-1 #
edge $-1 $407 25.057810450410024 $410 32.711674564486188 $405 $446 forward 7 unknown #
vertex $-1 $329 $447 #
straight-curve $-1 -85.165159727728707 20.091486319168684 13.897039118617521 -1 0 0 I I #
edge $-1 $410 -13.879319811301329 $326 1.4549867955666187 $325 $448 forward 7 unknown #
vertex $-1 $409 $449 #
straight-curve $-1 -64.080324716940822 20.091486319168684 6.2431750045413565 0.55919289150049634 0 0.82903758062907751 I I #
point $-1 -58.917728346032689 20.091486319168684 13.897039118617522 #
point $-1 -64.080324716940822 4.7571797123007364 6.2431750045413565 #
straight-curve $-1 -64.080324716940822 0 13.897039118617522 0 -1 0 I I #
vertex $-1 $332 $450 #
point $-1 -59.375010090686544 7.8240410336743267 10.446766832102012 #
vertex $-1 $336 $451 #
point $-1 -59.375010090686544 12.42433301573471 10.446766832102012 #
vertex $-1 $340 $452 #
point $-1 -59.375010090686544 17.024624997795094 10.446766832102012 #
edge $-1 $422 79.289774664514809 $425 88.059714808806859 $345 $453 forward 7 unknown #
vertex $-1 $359 $454 #
straight-curve $-1 32.040163409931495 3.5173222461677724 13.897039118617528 1 0 0 I I #
edge $-1 $425 -1.3879674152342503 $356 11.198546738038296 $355 $455 forward 7 unknown #
vertex $-1 $424 $456 #
straight-curve $-1 -26.542938527567685 3.5173222461677724 95.750364321756209 -0.70710677298230451 0 0.70710678939079041 I I #
point $-1 55.310384776156155 3.5173222461677724 13.897039118617528 #
point $-1 64.080324716940837 16.103836399440318 5.1270989743254773 #
straight-curve $-1 64.080324716940822 0 13.897039118617522 0 1 0 I I #
vertex $-1 $362 $457 #
point $-1 57.918448683994363 7.1134691471027836 5.613842706203763 #
vertex $-1 $366 $458 #
point $-1 57.918448683994363 12.5076894985053 5.613842706203763 #
straight-curve $-1 -64.080324716940822 32.445370137069311 0 0 0 -1 I I #
point $-1 -64.080324716940822 -32.445370137069311 -13.897039118617522 #
straight-curve $-1 -64.080324716940822 0 -13.897039118617522 0 1 0 I I #
point $-1 -64.080324716940822 32.445370137069311 -13.897039118617522 #
edge $-1 $403 -64.080324716940822 $440 64.080324716940822 $400 $459 forward 7 unknown #
straight-curve $-1 64.080324716940822 0 -13.897039118617522 0 -1 0 I I #
vertex $-1 $391 $460 #
straight-curve $-1 -64.080324716940822 0 -13.897039118617522 0 1 0 I I #
point $-1 -64.080324716940822 -19.043775922092237 -13.897039118617522 #
straight-curve $-1 -64.080324716940822 -19.043775922092237 -4.8827944827654575 0 0 -1 I I #
straight-curve $-1 -64.080324716940822 -32.445370137069311 0 0 0 -1 I I #
point $-1 64.080324716940822 -32.445370137069311 -13.897039118617522 #
straight-curve $-1 -64.080324716940822 20.091486319168684 38.954849569027544 0 0 -1 I I #
point $-1 -64.080324716940822 20.091486319168684 13.897039118617522 #
straight-curve $-1 -64.080324716940822 6.2121665078673551 6.2431750045413539 0 -1 0 I I #
point $-1 -64.080324716940822 20.091486319168684 6.2431750045413565 #
point $-1 -58.970243056993667 7.8240410336743267 8.3644211239076522 #
point $-1 -58.970243056993667 12.42433301573471 8.3644211239076522 #
point $-1 -58.970243056993667 17.024624997795094 8.3644211239076522 #
straight-curve $-1 64.080324716940822 3.5173222461677724 93.186813783132337 0 0 -1 I I #
point $-1 64.080324716940822 3.5173222461677724 13.897039118617522 #
straight-curve $-1 64.080324716940822 4.9052896614020227 5.1270989743254916 0 1 0 I I #
point $-1 64.080324716940837 3.5173222461677724 5.1270989743254773 #
point $-1 55.797128340434718 7.1134691471027836 5.6138427308164918 #
point $-1 55.797128340434718 12.5076894985053 5.6138427308164918 #
straight-curve $-1 0 -32.445370137069311 -13.897039118617522 -1 0 0 I I #
point $-1 -64.080324716940822 -32.445370137069311 -13.897039118617522 #
End-of-ACIS-data 