500 0 7 0           
7 Unknown 11 ACIS 5.0 NT 24 Fri Mar 26 01:54:03 1999 
-1 9.9999999999999995e-007 1e-010 
body $-1 $7 $-1 $8 #
body $-1 $9 $-1 $10 #
body $-1 $11 $-1 $12 #
body $-1 $13 $-1 $14 #
body $-1 $15 $-1 $16 #
body $-1 $17 $-1 $18 #
body $-1 $19 $-1 $20 #
lump $-1 $-1 $21 $0 #
transform $-1 1 0 0 0 1 0 0 0 1 40.806909390545364 16.668352835348866 6.9471224403147191 1 rotate no_reflect no_shear #
lump $-1 $-1 $22 $1 #
transform $-1 1 0 0 0 1 0 0 0 1 40.806909390545364 16.668352835348866 6.9471224403147191 1 rotate no_reflect no_shear #
lump $-1 $-1 $23 $2 #
transform $-1 1 0 0 0 1 0 0 0 1 40.806909390545364 16.668352835348866 6.9471224403147191 1 rotate no_reflect no_shear #
lump $-1 $-1 $24 $3 #
transform $-1 1 0 0 0 1 0 0 0 1 40.806909390545364 16.668352835348866 6.9471224403147191 1 rotate no_reflect no_shear #
lump $-1 $-1 $25 $4 #
transform $-1 1 0 0 0 1 0 0 0 1 40.806909390545364 16.668352835348866 6.9471224403147191 1 rotate no_reflect no_shear #
lump $-1 $-1 $26 $5 #
transform $-1 1 0 0 0 1 0 0 0 1 40.806909390545364 16.668352835348866 6.9471224403147191 1 rotate no_reflect no_shear #
lump $-1 $-1 $27 $6 #
transform $-1 1 0 0 0 1 0 0 0 1 40.806909390545364 16.668352835348866 6.9471224403147191 1 rotate no_reflect no_shear #
shell $-1 $-1 $-1 $28 $-1 $7 #
shell $-1 $-1 $-1 $29 $-1 $9 #
shell $-1 $-1 $-1 $30 $-1 $11 #
shell $-1 $-1 $-1 $31 $-1 $13 #
shell $-1 $-1 $-1 $32 $-1 $15 #
shell $-1 $-1 $-1 $33 $-1 $17 #
shell $-1 $-1 $-1 $34 $-1 $19 #
face $-1 $35 $36 $21 $-1 $37 forward single #
face $-1 $38 $39 $22 $-1 $40 reversed single #
face $-1 $41 $42 $23 $-1 $43 forward single #
face $-1 $44 $45 $24 $-1 $46 forward single #
face $-1 $47 $48 $25 $-1 $49 reversed single #
face $-1 $50 $51 $26 $-1 $52 forward single #
face $-1 $53 $54 $27 $-1 $55 forward single #
face $-1 $56 $57 $21 $-1 $58 reversed single #
loop $-1 $-1 $59 $28 #
plane-surface $-1 0 0 6.9471224403147191 0 0 1 1 0 0 forward_v I I I I #
face $-1 $60 $61 $22 $-1 $62 reversed single #
loop $-1 $-1 $63 $29 #
plane-surface $-1 -22.626308559562496 45.052305276668562 83.727217122355967 -1 0 0 0 0.6560590369687036 0.75470957328743171 forward_v I I I I #
face $-1 $64 $65 $23 $-1 $66 forward single #
loop $-1 $67 $68 $30 #
cone-surface $-1 -35.612452010264548 11.559634277357642 2.1510809097742927 0 -0.6560590369687036 -0.75470957328743171 1.5 0 0 1 I I 0 1 1.5 forward I I I I #
face $-1 $69 $70 $24 $-1 $71 forward single #
loop $-1 $72 $73 $31 #
cone-surface $-1 -27.820765939843319 11.559634277357642 2.1510809097742927 0 -0.6560590369687036 -0.75470957328743171 1.5 0 0 1 I I 0 1 1.5 forward I I I I #
face $-1 $74 $75 $25 $-1 $76 reversed single #
loop $-1 $-1 $77 $32 #
plane-surface $-1 -22.626308559562496 -70.211836188209546 61.856370104328896 -1 0 0 0 -0.6560590369687036 0.75470957328743171 forward_v I I I I #
face $-1 $78 $79 $26 $-1 $80 forward single #
loop $-1 $81 $82 $33 #
cone-surface $-1 -35.612452010264548 -11.559634277357643 2.1510809097742936 0 0.6560590369687036 -0.75470957328743171 1.5 0 0 1 I I 0 1 1.5 forward I I I I #
face $-1 $83 $84 $27 $-1 $85 forward single #
loop $-1 $86 $87 $34 #
cone-surface $-1 -27.820765939843319 -11.559634277357643 2.1510809097742936 0 0.6560590369687036 -0.75470957328743171 1.5 0 0 1 I I 0 1 1.5 forward I I I I #
face $-1 $88 $89 $21 $-1 $90 reversed single #
loop $-1 $-1 $91 $35 #
plane-surface $-1 0 0 -6.9471224403147191 0 0 1 1 0 0 forward_v I I I I #
coedge $-1 $92 $93 $94 $95 forward $36 $-1 #
face $-1 $96 $97 $22 $-1 $98 reversed single #
loop $-1 $-1 $99 $38 #
plane-surface $-1 -31.71660897505393 -8.4911780761921136 22.132486775721205 0 0.6560590369687036 0.75470957328743171 1 0 0 forward_v I I I I #
coedge $-1 $100 $101 $102 $103 reversed $39 $-1 #
face $-1 $-1 $104 $23 $-1 $105 forward single #
loop $-1 $106 $107 $41 #
cone-surface $-1 -35.612452010264548 9.8042553920950937 0.1317485405785872 0 -0.6560590369687036 -0.75470957328743171 0.75 0 0 1 I I -0.70710678118654757 0.70710678118654757 0.75 forward I I I I #
loop $-1 $-1 $108 $30 #
coedge $-1 $68 $68 $109 $110 reversed $42 $-1 #
face $-1 $-1 $111 $24 $-1 $112 forward single #
loop $-1 $113 $114 $44 #
cone-surface $-1 -27.820765939843319 9.8042553920950937 0.1317485405785872 0 -0.6560590369687036 -0.75470957328743171 0.75 0 0 1 I I -0.70710678118654757 0.70710678118654757 0.75 forward I I I I #
loop $-1 $-1 $115 $31 #
coedge $-1 $73 $73 $116 $117 reversed $45 $-1 #
face $-1 $118 $119 $25 $-1 $120 reversed single #
loop $-1 $-1 $121 $47 #
plane-surface $-1 -31.71660897505393 -16.66835283534887 0.26163975769413383 0 -0.6560590369687036 0.75470957328743171 1 0 0 forward_v I I I I #
coedge $-1 $122 $123 $124 $125 reversed $48 $-1 #
face $-1 $-1 $126 $26 $-1 $127 forward single #
loop $-1 $128 $129 $50 #
cone-surface $-1 -35.612452010264548 -9.8042553920950954 0.13174854057858809 0 0.6560590369687036 -0.75470957328743171 0.75 0 0 1 I I -0.70710678118654757 0.70710678118654757 0.75 forward I I I I #
loop $-1 $-1 $130 $33 #
coedge $-1 $82 $82 $131 $132 reversed $51 $-1 #
face $-1 $-1 $133 $27 $-1 $134 forward single #
loop $-1 $135 $136 $53 #
cone-surface $-1 -27.820765939843319 -9.8042553920950954 0.13174854057858809 0 0.6560590369687036 -0.75470957328743171 0.75 0 0 1 I I -0.70710678118654757 0.70710678118654757 0.75 forward I I I I #
loop $-1 $-1 $137 $34 #
coedge $-1 $87 $87 $138 $139 reversed $54 $-1 #
face $-1 $140 $141 $21 $-1 $142 reversed single #
loop $-1 $-1 $143 $56 #
plane-surface $-1 0 -16.668352835348866 0 0 1 0 0 0 1 forward_v I I I I #
coedge $-1 $144 $145 $146 $147 forward $57 $-1 #
coedge $-1 $148 $59 $149 $150 forward $36 $-1 #
coedge $-1 $59 $148 $151 $152 forward $36 $-1 #
coedge $-1 $153 $154 $59 $95 reversed $155 $-1 #
edge $-1 $156 -16.668352835348866 $157 16.668352835348866 $94 $158 forward 7 unknown #
face $-1 $159 $160 $22 $-1 $161 forward single #
loop $-1 $-1 $102 $60 #
plane-surface $-1 0 16.668352835348866 0 0 -1 0 0 0 -1 forward_v I I I I #
coedge $-1 $162 $163 $164 $165 reversed $61 $-1 #
coedge $-1 $101 $63 $166 $167 reversed $39 $-1 #
coedge $-1 $63 $100 $162 $168 reversed $39 $-1 #
coedge $-1 $164 $169 $63 $103 forward $97 $-1 #
edge $-1 $170 34.916486120863262 $171 41.601968803483842 $102 $172 forward 7 unknown #
loop $-1 $-1 $109 $64 #
plane-surface $-1 -31.71660897505393 -8.4911780761921136 22.132486775721205 0 0.6560590369687036 0.75470957328743171 1 0 0 forward_v I I I I #
loop $-1 $-1 $173 $41 #
coedge $-1 $107 $107 $108 $174 reversed $65 $-1 #
coedge $-1 $108 $108 $107 $174 forward $67 $-1 #
coedge $-1 $109 $109 $68 $110 forward $104 $-1 #
edge $-1 $175 -5.4470960269550064e-016 $175 6.2831853071795996 $109 $176 forward 7 unknown #
loop $-1 $-1 $116 $69 #
plane-surface $-1 -31.71660897505393 -8.4911780761921136 22.132486775721205 0 0.6560590369687036 0.75470957328743171 1 0 0 forward_v I I I I #
loop $-1 $-1 $177 $44 #
coedge $-1 $114 $114 $115 $178 reversed $70 $-1 #
coedge $-1 $115 $115 $114 $178 forward $72 $-1 #
coedge $-1 $116 $116 $73 $117 forward $111 $-1 #
edge $-1 $179 -5.4470960269550064e-016 $179 6.2831853071795996 $116 $180 forward 7 unknown #
face $-1 $181 $182 $25 $-1 $183 forward single #
loop $-1 $-1 $184 $74 #
plane-surface $-1 -40.806909390545364 0 0 1 0 0 0 0 -1 forward_v I I I I #
coedge $-1 $185 $186 $187 $188 reversed $75 $-1 #
coedge $-1 $123 $77 $189 $190 reversed $48 $-1 #
coedge $-1 $77 $122 $185 $191 reversed $48 $-1 #
coedge $-1 $187 $192 $77 $125 forward $182 $-1 #
edge $-1 $193 18.437565258755907 $194 26.128333159666305 $124 $195 forward 7 unknown #
loop $-1 $-1 $131 $78 #
plane-surface $-1 -31.71660897505393 -16.66835283534887 0.26163975769413383 0 -0.6560590369687036 0.75470957328743171 1 0 0 forward_v I I I I #
loop $-1 $-1 $196 $50 #
coedge $-1 $129 $129 $130 $197 reversed $79 $-1 #
coedge $-1 $130 $130 $129 $197 forward $81 $-1 #
coedge $-1 $131 $131 $82 $132 forward $126 $-1 #
edge $-1 $198 4.2788389942865028e-016 $198 6.2831853071796004 $131 $199 forward 7 unknown #
loop $-1 $-1 $138 $83 #
plane-surface $-1 -31.71660897505393 -16.66835283534887 0.26163975769413383 0 -0.6560590369687036 0.75470957328743171 1 0 0 forward_v I I I I #
loop $-1 $-1 $200 $53 #
coedge $-1 $136 $136 $137 $201 reversed $84 $-1 #
coedge $-1 $137 $137 $136 $201 forward $86 $-1 #
coedge $-1 $138 $138 $87 $139 forward $133 $-1 #
edge $-1 $202 4.2788389942865028e-016 $202 6.2831853071796004 $138 $203 forward 7 unknown #
face $-1 $204 $205 $21 $-1 $206 reversed single #
loop $-1 $-1 $207 $88 #
plane-surface $-1 -40.806909390545364 0 0 1 0 0 0 0 -1 forward_v I I I I #
coedge $-1 $208 $151 $209 $210 forward $89 $-1 #
coedge $-1 $211 $91 $208 $212 forward $57 $-1 #
coedge $-1 $91 $211 $213 $214 forward $57 $-1 #
coedge $-1 $154 $153 $91 $147 reversed $155 $-1 #
edge $-1 $215 -16.668352835348866 $216 16.668352835348866 $146 $217 forward 7 unknown #
coedge $-1 $93 $92 $218 $219 forward $36 $-1 #
coedge $-1 $220 $221 $92 $150 reversed $205 $-1 #
edge $-1 $157 -40.806909390545364 $222 40.806909390545364 $149 $223 forward 7 unknown #
coedge $-1 $143 $224 $93 $152 reversed $89 $-1 #
edge $-1 $225 -40.806909390545364 $156 40.806909390545364 $151 $226 forward 7 unknown #
coedge $-1 $146 $94 $224 $227 forward $155 $-1 #
coedge $-1 $94 $146 $220 $228 reversed $155 $-1 #
loop $-1 $-1 $153 $204 #
vertex $-1 $95 $229 #
vertex $-1 $95 $230 #
straight-curve $-1 40.806909390545364 0 6.9471224403147191 0 1 0 I I #
face $-1 $-1 $231 $22 $-1 $232 reversed single #
loop $-1 $-1 $166 $96 #
plane-surface $-1 0 0 6.9471224403147191 0 0 1 1 0 0 forward_v I I I I #
coedge $-1 $233 $99 $101 $168 forward $61 $-1 #
coedge $-1 $99 $233 $234 $235 reversed $61 $-1 #
coedge $-1 $236 $102 $99 $165 forward $97 $-1 #
edge $-1 $171 6.7680040720355308 $237 24.948604903018399 $164 $238 forward 7 unknown #
coedge $-1 $239 $240 $100 $167 forward $160 $-1 #
edge $-1 $241 -13.548567703895809 $170 -5.857799802985415 $166 $242 forward 7 unknown #
edge $-1 $171 -33.336705670697718 $241 -23.146338179517958 $101 $243 forward 7 unknown #
coedge $-1 $102 $236 $239 $244 reversed $97 $-1 #
vertex $-1 $244 $245 #
vertex $-1 $103 $246 #
straight-curve $-1 -22.626308559562496 16.668352835348866 41.863608561177983 0 0 -1 I I #
coedge $-1 $173 $173 $-1 $247 reversed $106 $-1 #
edge $-1 $248 0 $248 6.2831853071796004 $107 $249 forward 7 unknown #
vertex $-1 $110 $250 #
ellipse-curve $-1 -35.612452010264548 12.822968884893667 3.6043810990044296 0 0.6560590369687036 0.75470957328743171 1.5 0 0 1 I I #
coedge $-1 $177 $177 $-1 $251 reversed $113 $-1 #
edge $-1 $252 0 $252 6.2831853071796004 $114 $253 forward 7 unknown #
vertex $-1 $117 $254 #
ellipse-curve $-1 -27.820765939843319 12.822968884893667 3.6043810990044296 0 0.6560590369687036 0.75470957328743171 1.5 0 0 1 I I #
face $-1 $-1 $255 $25 $-1 $256 reversed single #
loop $-1 $-1 $187 $118 #
plane-surface $-1 0 0 6.9471224403147191 0 0 1 1 0 0 forward_v I I I I #
coedge $-1 $257 $258 $186 $259 forward $119 $-1 #
coedge $-1 $260 $121 $123 $191 forward $75 $-1 #
coedge $-1 $121 $260 $184 $259 reversed $75 $-1 #
coedge $-1 $261 $124 $121 $188 forward $182 $-1 #
edge $-1 $194 6.7680040720355308 $262 24.948604903018399 $187 $263 forward 7 unknown #
coedge $-1 $264 $265 $122 $190 forward $255 $-1 #
edge $-1 $266 -30.666545294470311 $193 -23.98106261184973 $189 $267 forward 7 unknown #
edge $-1 $194 -10.190367491179774 $266 -4.72070819993692e-015 $123 $268 forward 7 unknown #
coedge $-1 $124 $261 $264 $269 forward $182 $-1 #
vertex $-1 $190 $270 #
vertex $-1 $125 $271 #
straight-curve $-1 -22.626308559562496 -35.105918094104773 6.9471224403147183 0 1 0 I I #
coedge $-1 $196 $196 $-1 $272 reversed $128 $-1 #
edge $-1 $273 0 $273 6.2831853071796004 $129 $274 forward 7 unknown #
vertex $-1 $132 $275 #
ellipse-curve $-1 -35.612452010264548 -12.822968884893667 3.6043810990044287 0 -0.6560590369687036 0.75470957328743171 1.5 0 0 1 I I #
coedge $-1 $200 $200 $-1 $276 reversed $135 $-1 #
edge $-1 $277 0 $277 6.2831853071796004 $136 $278 forward 7 unknown #
vertex $-1 $139 $279 #
ellipse-curve $-1 -27.820765939843319 -12.822968884893667 3.6043810990044287 0 -0.6560590369687036 0.75470957328743171 1.5 0 0 1 I I #
face $-1 $-1 $155 $21 $-1 $280 reversed single #
loop $-1 $-1 $220 $140 #
plane-surface $-1 0 16.668352835348866 0 0 -1 0 0 0 -1 forward_v I I I I #
coedge $-1 $281 $218 $221 $282 forward $141 $-1 #
coedge $-1 $224 $143 $144 $212 reversed $89 $-1 #
coedge $-1 $218 $281 $143 $210 reversed $141 $-1 #
edge $-1 $225 -6.9471224403147191 $283 6.9471224403147191 $209 $284 forward 7 unknown #
coedge $-1 $145 $144 $281 $285 forward $57 $-1 #
edge $-1 $216 -40.806909390545364 $283 40.806909390545364 $208 $286 forward 7 unknown #
coedge $-1 $221 $220 $145 $214 reversed $205 $-1 #
edge $-1 $287 -40.806909390545364 $215 40.806909390545364 $213 $288 forward 7 unknown #
vertex $-1 $147 $289 #
vertex $-1 $227 $290 #
straight-curve $-1 40.806909390545364 0 -6.9471224403147191 0 -1 0 I I #
coedge $-1 $207 $209 $148 $219 reversed $141 $-1 #
edge $-1 $222 -16.668352835348866 $225 16.668352835348866 $218 $291 forward 7 unknown #
coedge $-1 $213 $149 $154 $228 forward $205 $-1 #
coedge $-1 $149 $213 $207 $282 reversed $205 $-1 #
vertex $-1 $150 $292 #
straight-curve $-1 0 16.668352835348866 6.9471224403147191 -1 0 0 I I #
coedge $-1 $151 $208 $153 $227 reversed $89 $-1 #
vertex $-1 $219 $293 #
straight-curve $-1 0 -16.668352835348866 6.9471224403147191 1 0 0 I I #
edge $-1 $156 -6.9471224403147191 $216 6.9471224403147191 $153 $294 forward 7 unknown #
edge $-1 $157 -6.9471224403147191 $215 6.9471224403147191 $154 $295 forward 7 unknown #
point $-1 40.806909390545364 -16.668352835348866 6.9471224403147191 #
point $-1 40.806909390545364 16.668352835348866 6.9471224403147191 #
loop $-1 $-1 $234 $159 #
plane-surface $-1 -40.806909390545364 0 0 1 0 0 0 0 -1 forward_v I I I I #
coedge $-1 $163 $162 $240 $296 reversed $61 $-1 #
coedge $-1 $297 $298 $163 $235 forward $231 $-1 #
edge $-1 $237 -22.872409999501336 $299 -12.682042508321576 $234 $300 forward 7 unknown #
coedge $-1 $169 $164 $298 $301 reversed $97 $-1 #
vertex $-1 $165 $302 #
straight-curve $-1 -15.858304487526965 16.668352835348866 0.26163975769413916 -1 0 0 I I #
coedge $-1 $303 $166 $169 $244 forward $160 $-1 #
coedge $-1 $166 $303 $233 $296 forward $160 $-1 #
vertex $-1 $167 $304 #
straight-curve $-1 -22.626308559562496 22.526152638334281 6.9471224403147218 0 1 0 I I #
straight-curve $-1 -22.626308559562496 -8.4911780761921136 22.132486775721205 0 -0.75470957328743171 0.6560590369687036 I I #
edge $-1 $170 22.626308559562496 $305 40.806909390545364 $169 $306 forward 7 unknown #
point $-1 -22.626308559562496 16.668352835348866 6.9471224403147191 #
point $-1 -22.626308559562496 16.668352835348866 0.26163975769414094 #
edge $-1 $307 1 $307 0 $173 $-1 forward 7 unknown #
vertex $-1 $174 $308 #
ellipse-curve $-1 -35.612452010264548 10.296299669821622 0.69778072054416096 0 0.6560590369687036 0.75470957328743171 1.5 0 0 1 I I #
point $-1 -34.112452010264548 12.822968884893662 3.6043810990044247 #
edge $-1 $309 1 $309 0 $177 $-1 forward 7 unknown #
vertex $-1 $178 $310 #
ellipse-curve $-1 -27.820765939843319 10.296299669821622 0.69778072054416096 0 0.6560590369687036 0.75470957328743171 1.5 0 0 1 I I #
point $-1 -26.320765939843319 12.822968884893662 3.6043810990044247 #
loop $-1 $-1 $189 $181 #
plane-surface $-1 0 -16.668352835348866 0 0 1 0 0 0 1 forward_v I I I I #
coedge $-1 $258 $184 $311 $312 reversed $119 $-1 #
coedge $-1 $184 $257 $261 $313 reversed $119 $-1 #
edge $-1 $262 -3.9863103270272928 $314 6.2040571641524753 $184 $315 forward 7 unknown #
coedge $-1 $186 $185 $265 $316 reversed $75 $-1 #
coedge $-1 $192 $187 $258 $313 forward $182 $-1 #
vertex $-1 $313 $317 #
straight-curve $-1 -15.858304487526965 -8.9775849344384682 6.9471224403147191 -1 0 0 I I #
coedge $-1 $311 $189 $192 $269 reversed $255 $-1 #
coedge $-1 $189 $311 $260 $316 forward $255 $-1 #
vertex $-1 $190 $318 #
straight-curve $-1 -22.626308559562496 -16.668352835348866 30.928185052164448 0 0 1 I I #
straight-curve $-1 -22.626308559562496 -16.66835283534887 0.26163975769413383 0 -0.75470957328743171 -0.6560590369687036 I I #
edge $-1 $319 -40.806909390545364 $193 -22.626308559562496 $264 $320 forward 7 unknown #
point $-1 -22.626308559562496 -16.668352835348866 6.9471224403147191 #
point $-1 -22.626308559562496 -8.9775849344384682 6.94712244031472 #
edge $-1 $321 1 $321 0 $196 $-1 forward 7 unknown #
vertex $-1 $197 $322 #
ellipse-curve $-1 -35.612452010264548 -10.296299669821623 0.69778072054416185 0 -0.6560590369687036 0.75470957328743171 1.5 0 0 1 I I #
point $-1 -34.112452010264548 -12.822968884893664 3.6043810990044256 #
edge $-1 $323 1 $323 0 $200 $-1 forward 7 unknown #
vertex $-1 $201 $324 #
ellipse-curve $-1 -27.820765939843319 -10.296299669821623 0.69778072054416185 0 -0.6560590369687036 0.75470957328743171 1.5 0 0 1 I I #
point $-1 -26.320765939843319 -12.822968884893664 3.6043810990044256 #
plane-surface $-1 40.806909390545364 0 0 -1 0 0 0 0 1 forward_v I I I I #
coedge $-1 $209 $207 $211 $285 reversed $141 $-1 #
edge $-1 $222 -6.9471224403147191 $287 6.9471224403147191 $221 $325 forward 7 unknown #
vertex $-1 $285 $326 #
straight-curve $-1 -40.806909390545364 -16.668352835348866 0 0 0 -1 I I #
edge $-1 $283 -16.668352835348866 $287 16.668352835348866 $281 $327 forward 7 unknown #
straight-curve $-1 0 -16.668352835348866 -6.9471224403147191 -1 0 0 I I #
vertex $-1 $214 $328 #
straight-curve $-1 0 16.668352835348866 -6.9471224403147191 1 0 0 I I #
point $-1 40.806909390545364 16.668352835348866 -6.9471224403147191 #
point $-1 40.806909390545364 -16.668352835348866 -6.9471224403147191 #
straight-curve $-1 -40.806909390545364 0 6.9471224403147191 0 -1 0 I I #
point $-1 -40.806909390545364 16.668352835348866 6.9471224403147191 #
point $-1 -40.806909390545364 -16.668352835348866 6.9471224403147191 #
straight-curve $-1 40.806909390545364 -16.668352835348866 0 0 0 -1 I I #
straight-curve $-1 40.806909390545364 16.668352835348866 0 0 0 -1 I I #
edge $-1 $299 -24.948604903018399 $241 -6.7680040720355308 $240 $329 forward 7 unknown #
coedge $-1 $298 $234 $303 $330 reversed $231 $-1 #
coedge $-1 $234 $297 $236 $301 forward $231 $-1 #
vertex $-1 $235 $331 #
straight-curve $-1 -40.806909390545364 -0.59367395542997237 15.267291035120333 0 -0.75470957328743171 0.6560590369687036 I I #
edge $-1 $305 -6.9471224403147191 $237 -0.26163975769413855 $236 $332 forward 7 unknown #
point $-1 -40.806909390545364 16.668352835348866 0.26163975769413855 #
coedge $-1 $240 $239 $297 $330 forward $160 $-1 #
point $-1 -22.626308559562496 8.9775849344384717 6.9471224403147165 #
vertex $-1 $244 $333 #
straight-curve $-1 0 16.668352835348866 6.9471224403147191 -1 0 0 I I #
vertex $-1 $247 $334 #
point $-1 -34.112452010264548 10.296299669821622 0.69778072054416096 #
vertex $-1 $251 $335 #
point $-1 -26.320765939843319 10.296299669821622 0.69778072054416096 #
coedge $-1 $265 $264 $257 $312 forward $255 $-1 #
edge $-1 $319 -6.9471224403147191 $314 -0.26163975769413694 $257 $336 forward 7 unknown #
edge $-1 $262 8.9775849344384682 $319 16.668352835348866 $258 $337 forward 7 unknown #
vertex $-1 $259 $338 #
straight-curve $-1 -40.806909390545364 -11.986091500340518 4.3318675261067954 0 -0.75470957328743171 -0.6560590369687036 I I #
edge $-1 $314 -24.948604903018399 $266 -6.7680040720355308 $265 $339 forward 7 unknown #
point $-1 -40.806909390545364 -8.9775849344384682 6.94712244031472 #
point $-1 -22.626308559562496 -16.668352835348866 0.26163975769413694 #
vertex $-1 $313 $340 #
straight-curve $-1 0 -16.668352835348866 6.9471224403147191 1 0 0 I I #
vertex $-1 $272 $341 #
point $-1 -34.112452010264548 -10.296299669821623 0.69778072054416185 #
vertex $-1 $276 $342 #
point $-1 -26.320765939843319 -10.296299669821623 0.69778072054416185 #
straight-curve $-1 -40.806909390545364 16.668352835348866 0 0 0 -1 I I #
point $-1 -40.806909390545364 -16.668352835348866 -6.9471224403147191 #
straight-curve $-1 -40.806909390545364 0 -6.9471224403147191 0 1 0 I I #
point $-1 -40.806909390545364 16.668352835348866 -6.9471224403147191 #
straight-curve $-1 -15.858304487526965 8.9775849344384717 6.9471224403147183 1 0 0 I I #
edge $-1 $305 -16.668352835348866 $299 -8.9775849344384717 $297 $343 forward 7 unknown #
point $-1 -40.806909390545364 8.9775849344384717 6.9471224403147165 #
straight-curve $-1 -40.806909390545364 16.668352835348866 0 0 0 -1 I I #
point $-1 -40.806909390545364 16.668352835348866 6.9471224403147191 #
point $-1 -35.612452010264548 9.3122111143685657 -0.43428363938698655 #
point $-1 -27.820765939843319 9.3122111143685657 -0.43428363938698655 #
straight-curve $-1 -40.806909390545364 -16.668352835348866 0 0 0 -1 I I #
straight-curve $-1 -40.806909390545364 0 6.9471224403147191 0 -1 0 I I #
point $-1 -40.806909390545364 -16.668352835348866 0.26163975769413694 #
straight-curve $-1 -15.858304487526965 -16.668352835348866 0.26163975769413739 1 0 0 I I #
point $-1 -40.806909390545364 -16.668352835348866 6.9471224403147191 #
point $-1 -35.612452010264548 -9.3122111143685675 -0.43428363938698566 #
point $-1 -27.820765939843319 -9.3122111143685675 -0.43428363938698566 #
straight-curve $-1 -40.806909390545364 0 6.9471224403147191 0 -1 0 I I #
End-of-ACIS-data 