500 0 12 0           
7 Unknown 11 ACIS 5.0 NT 24 Thu Mar 25 22:41:03 1999 
-1 9.9999999999999995e-007 1e-010 
body $-1 $12 $-1 $13 #
body $-1 $14 $-1 $15 #
body $-1 $16 $-1 $17 #
body $-1 $18 $-1 $19 #
body $-1 $20 $-1 $21 #
body $-1 $22 $-1 $23 #
body $-1 $24 $-1 $25 #
body $-1 $26 $-1 $27 #
body $-1 $28 $-1 $29 #
body $-1 $30 $-1 $31 #
body $-1 $32 $-1 $33 #
body $-1 $34 $-1 $35 #
lump $-1 $-1 $36 $0 #
transform $-1 1 0 0 0 1 0 0 0 1 53.901791436506244 23.448850252107974 10.48653880243277 1 rotate no_reflect no_shear #
lump $-1 $-1 $37 $1 #
transform $-1 1 0 0 0 1 0 0 0 1 53.901791436506244 23.448850252107974 10.48653880243277 1 rotate no_reflect no_shear #
lump $-1 $-1 $38 $2 #
transform $-1 1 0 0 0 1 0 0 0 1 53.901791436506244 23.448850252107974 10.48653880243277 1 rotate no_reflect no_shear #
lump $-1 $-1 $39 $3 #
transform $-1 1 0 0 0 1 0 0 0 1 53.901791436506244 23.448850252107974 10.48653880243277 1 rotate no_reflect no_shear #
lump $-1 $-1 $40 $4 #
transform $-1 1 0 0 0 1 0 0 0 1 53.901791436506244 23.448850252107974 10.48653880243277 1 rotate no_reflect no_shear #
lump $-1 $-1 $41 $5 #
transform $-1 1 0 0 0 1 0 0 0 1 53.901791436506244 23.448850252107974 10.48653880243277 1 rotate no_reflect no_shear #
lump $-1 $-1 $42 $6 #
transform $-1 1 0 0 0 1 0 0 0 1 53.901791436506244 23.448850252107974 10.48653880243277 1 rotate no_reflect no_shear #
lump $-1 $-1 $43 $7 #
transform $-1 1 0 0 0 1 0 0 0 1 53.901791436506244 23.448850252107974 10.48653880243277 1 rotate no_reflect no_shear #
lump $-1 $-1 $44 $8 #
transform $-1 1 0 0 0 1 0 0 0 1 53.901791436506244 23.448850252107974 10.48653880243277 1 rotate no_reflect no_shear #
lump $-1 $-1 $45 $9 #
transform $-1 1 0 0 0 1 0 0 0 1 53.901791436506244 23.448850252107974 10.48653880243277 1 rotate no_reflect no_shear #
lump $-1 $-1 $46 $10 #
transform $-1 1 0 0 0 1 0 0 0 1 53.901791436506244 23.448850252107974 10.48653880243277 1 rotate no_reflect no_shear #
lump $-1 $-1 $47 $11 #
transform $-1 1 0 0 0 1 0 0 0 1 53.901791436506244 23.448850252107974 10.48653880243277 1 rotate no_reflect no_shear #
shell $-1 $-1 $-1 $48 $-1 $12 #
shell $-1 $-1 $-1 $49 $-1 $14 #
shell $-1 $-1 $-1 $50 $-1 $16 #
shell $-1 $-1 $-1 $51 $-1 $18 #
shell $-1 $-1 $-1 $52 $-1 $20 #
shell $-1 $-1 $-1 $53 $-1 $22 #
shell $-1 $-1 $-1 $54 $-1 $24 #
shell $-1 $-1 $-1 $55 $-1 $26 #
shell $-1 $-1 $-1 $56 $-1 $28 #
shell $-1 $-1 $-1 $57 $-1 $30 #
shell $-1 $-1 $-1 $58 $-1 $32 #
shell $-1 $-1 $-1 $59 $-1 $34 #
face $-1 $60 $61 $36 $-1 $62 forward single #
face $-1 $63 $64 $37 $-1 $65 forward single #
face $-1 $66 $67 $38 $-1 $68 reversed single #
face $-1 $69 $70 $39 $-1 $71 forward single #
face $-1 $72 $73 $40 $-1 $74 forward single #
face $-1 $75 $76 $41 $-1 $77 forward single #
face $-1 $78 $79 $42 $-1 $80 reversed single #
face $-1 $81 $82 $43 $-1 $83 forward single #
face $-1 $84 $85 $44 $-1 $86 forward single #
face $-1 $87 $88 $45 $-1 $89 reversed single #
face $-1 $90 $91 $46 $-1 $92 forward single #
face $-1 $93 $94 $47 $-1 $95 forward single #
face $-1 $96 $97 $36 $-1 $98 reversed single #
loop $-1 $-1 $99 $48 #
plane-surface $-1 0 0 10.48653880243277 0 0 1 1 0 0 forward_v I I I I #
face $-1 $100 $101 $37 $-1 $102 reversed single #
loop $-1 $-1 $103 $49 #
plane-surface $-1 0 -23.448850252107974 0 0 1 0 0 0 1 forward_v I I I I #
face $-1 $104 $105 $38 $-1 $106 reversed single #
loop $-1 $-1 $107 $50 #
plane-surface $-1 -130.13043680666613 -1.465840127165734 77.774068829686811 0 1 0 -0.70710678939079041 0 0.70710677298230451 forward_v I I I I #
face $-1 $108 $109 $39 $-1 $110 forward single #
loop $-1 $111 $112 $51 #
cone-surface $-1 -48.903294629058479 -0.18634060718069279 5.48804190349618 0.70710678939079041 0 -0.70710677298230451 0.35355338649115226 0 0.35355339469539521 1 I I 0 1 0.5 forward I I I I #
face $-1 $113 $114 $40 $-1 $115 forward single #
loop $-1 $116 $117 $52 #
cone-surface $-1 -48.903294629058479 1.7329086727968708 5.48804190349618 0.70710678939079041 0 -0.70710677298230451 0.35355338649115226 0 0.35355339469539521 1 I I 0 1 0.5 forward I I I I #
face $-1 $118 $119 $41 $-1 $120 forward single #
loop $-1 $121 $122 $53 #
cone-surface $-1 -48.903294629058479 3.6521579527744343 5.48804190349618 0.70710678939079041 0 -0.70710677298230451 0.35355338649115226 0 0.35355339469539521 1 I I 0 1 0.5 forward I I I I #
face $-1 $123 $124 $42 $-1 $125 reversed single #
loop $-1 $-1 $126 $54 #
plane-surface $-1 69.837919560405837 6.5879126958767902 154.07505164682587 0 -1 0 -0.77714596973225614 0 -0.62932038083071107 forward_v I I I I #
face $-1 $127 $128 $43 $-1 $129 forward single #
loop $-1 $130 $131 $55 #
cone-surface $-1 50.144702286294198 1.1343243017171183 6.0613254451964078 -0.77714596973225614 0 -0.62932038083071107 0.31466019041535553 0 -0.38857298486612807 1 I I 0 1 0.5 forward I I I I #
face $-1 $132 $133 $44 $-1 $134 forward single #
loop $-1 $135 $136 $56 #
cone-surface $-1 50.144702286294198 4.4064773382129232 6.0613254451964078 -0.77714596973225614 0 -0.62932038083071107 0.31466019041535553 0 -0.38857298486612807 1 I I 0 1 0.5 forward I I I I #
face $-1 $137 $138 $45 $-1 $139 reversed single #
loop $-1 $-1 $140 $57 #
plane-surface $-1 69.837919560405837 14.222936447700329 154.07505164682587 0 -1 0 -0.77714596973225614 0 -0.62932038083071107 forward_v I I I I #
face $-1 $141 $142 $46 $-1 $143 forward single #
loop $-1 $144 $145 $58 #
cone-surface $-1 50.144702286294198 8.7693480535406607 6.0613254451964078 -0.77714596973225614 0 -0.62932038083071107 0.31466019041535553 0 -0.38857298486612807 1 I I 0 1 0.5 forward I I I I #
face $-1 $146 $147 $47 $-1 $148 forward single #
loop $-1 $149 $150 $59 #
cone-surface $-1 50.144702286294198 12.041501090036462 6.0613254451964078 -0.77714596973225614 0 -0.62932038083071107 0.31466019041535553 0 -0.38857298486612807 1 I I 0 1 0.5 forward I I I I #
face $-1 $151 $152 $36 $-1 $153 reversed single #
loop $-1 $-1 $154 $60 #
plane-surface $-1 0 0 -10.48653880243277 0 0 1 1 0 0 forward_v I I I I #
coedge $-1 $155 $156 $157 $158 forward $61 $-1 #
face $-1 $159 $160 $37 $-1 $161 reversed single #
loop $-1 $-1 $162 $63 #
plane-surface $-1 0 0 -10.48653880243277 0 0 1 1 0 0 forward_v I I I I #
coedge $-1 $163 $164 $165 $166 forward $64 $-1 #
face $-1 $167 $168 $38 $-1 $169 reversed single #
loop $-1 $-1 $170 $66 #
plane-surface $-1 -53.901791436506258 1.7329086727968708 1.5454252284205268 -0.70710678939079041 0 0.70710677298230451 0.70710677298230451 0 0.70710678939079041 forward_v I I I I #
coedge $-1 $171 $172 $173 $174 reversed $67 $-1 #
face $-1 $-1 $175 $39 $-1 $176 forward single #
loop $-1 $177 $178 $69 #
cone-surface $-1 -48.198577807529411 -0.18634060718069279 4.7833250983201374 0.70710678939079041 0 -0.70710677298230451 0.17677669324557613 0 0.1767766973476976 1 I I -0.70710678118654746 0.70710678118654746 0.25 forward I I I I #
loop $-1 $-1 $179 $51 #
coedge $-1 $112 $112 $180 $181 reversed $70 $-1 #
face $-1 $-1 $182 $40 $-1 $183 forward single #
loop $-1 $184 $185 $72 #
cone-surface $-1 -48.198577807529411 1.7329086727968708 4.7833250983201374 0.70710678939079041 0 -0.70710677298230451 0.17677669324557613 0 0.1767766973476976 1 I I -0.70710678118654746 0.70710678118654746 0.25 forward I I I I #
loop $-1 $-1 $186 $52 #
coedge $-1 $117 $117 $187 $188 reversed $73 $-1 #
face $-1 $-1 $189 $41 $-1 $190 forward single #
loop $-1 $191 $192 $75 #
cone-surface $-1 -48.198577807529411 3.6521579527744343 4.7833250983201374 0.70710678939079041 0 -0.70710677298230451 0.17677669324557613 0 0.1767766973476976 1 I I -0.70710678118654746 0.70710678118654746 0.25 forward I I I I #
loop $-1 $-1 $193 $53 #
coedge $-1 $122 $122 $194 $195 reversed $76 $-1 #
face $-1 $196 $197 $42 $-1 $198 reversed single #
loop $-1 $-1 $199 $78 #
plane-surface $-1 -13.941200392053091 2.770400819965019 86.232059818266535 0.77714596973225614 0 0.62932038083071107 0.62932038083071107 0 -0.77714596973225614 forward_v I I I I #
coedge $-1 $200 $201 $202 $203 reversed $79 $-1 #
face $-1 $-1 $204 $43 $-1 $205 forward single #
loop $-1 $206 $207 $81 #
cone-surface $-1 49.446066630179487 1.1343243017171183 5.4955814610649636 -0.77714596973225614 0 -0.62932038083071107 0.15733009520767777 0 -0.19428649243306403 1 I I -0.70710678118654746 0.70710678118654746 0.25 forward I I I I #
loop $-1 $-1 $208 $55 #
coedge $-1 $131 $131 $209 $210 reversed $82 $-1 #
face $-1 $-1 $211 $44 $-1 $212 forward single #
loop $-1 $213 $214 $84 #
cone-surface $-1 49.446066630179487 4.4064773382129232 5.4955814610649636 -0.77714596973225614 0 -0.62932038083071107 0.15733009520767777 0 -0.19428649243306403 1 I I -0.70710678118654746 0.70710678118654746 0.25 forward I I I I #
loop $-1 $-1 $215 $56 #
coedge $-1 $136 $136 $216 $217 reversed $85 $-1 #
face $-1 $218 $219 $45 $-1 $220 reversed single #
loop $-1 $-1 $221 $87 #
plane-surface $-1 -13.941200392053091 2.770400819965019 86.232059818266535 0.77714596973225614 0 0.62932038083071107 0.62932038083071107 0 -0.77714596973225614 forward_v I I I I #
coedge $-1 $222 $223 $224 $225 reversed $88 $-1 #
face $-1 $-1 $226 $46 $-1 $227 forward single #
loop $-1 $228 $229 $90 #
cone-surface $-1 49.446066630179487 8.7693480535406607 5.4955814610649636 -0.77714596973225614 0 -0.62932038083071107 0.15733009520767777 0 -0.19428649243306403 1 I I -0.70710678118654746 0.70710678118654746 0.25 forward I I I I #
loop $-1 $-1 $230 $58 #
coedge $-1 $145 $145 $231 $232 reversed $91 $-1 #
face $-1 $-1 $233 $47 $-1 $234 forward single #
loop $-1 $235 $236 $93 #
cone-surface $-1 49.446066630179487 12.041501090036462 5.4955814610649636 -0.77714596973225614 0 -0.62932038083071107 0.15733009520767777 0 -0.19428649243306403 1 I I -0.70710678118654746 0.70710678118654746 0.25 forward I I I I #
loop $-1 $-1 $237 $59 #
coedge $-1 $150 $150 $238 $239 reversed $94 $-1 #
face $-1 $240 $241 $36 $-1 $242 reversed single #
loop $-1 $-1 $243 $96 #
plane-surface $-1 0 -23.448850252107974 0 0 1 0 0 0 1 forward_v I I I I #
coedge $-1 $244 $245 $246 $247 forward $97 $-1 #
coedge $-1 $248 $99 $249 $250 forward $61 $-1 #
coedge $-1 $99 $248 $251 $252 forward $61 $-1 #
coedge $-1 $253 $254 $99 $158 reversed $255 $-1 #
edge $-1 $256 -23.448850252107974 $257 23.448850252107974 $157 $258 forward 7 unknown #
face $-1 $259 $260 $37 $-1 $261 forward single #
loop $-1 $-1 $262 $100 #
plane-surface $-1 53.901791436506244 0 0 -1 0 0 0 0 1 forward_v I I I I #
coedge $-1 $263 $264 $265 $266 forward $101 $-1 #
coedge $-1 $265 $103 $262 $267 reversed $64 $-1 #
coedge $-1 $103 $265 $268 $269 reversed $64 $-1 #
coedge $-1 $270 $271 $103 $166 reversed $260 $-1 #
edge $-1 $272 -53.901791436506244 $273 53.901791436506244 $165 $274 forward 7 unknown #
face $-1 $275 $276 $38 $-1 $277 forward single #
loop $-1 $-1 $278 $104 #
plane-surface $-1 -130.13043680666613 4.9316574727594755 77.774068829686811 0 -1 0 0.70710678939079041 0 -0.70710677298230451 forward_v I I I I #
coedge $-1 $279 $280 $281 $282 reversed $105 $-1 #
coedge $-1 $172 $107 $283 $284 reversed $67 $-1 #
coedge $-1 $107 $171 $279 $285 reversed $67 $-1 #
coedge $-1 $281 $286 $107 $174 forward $276 $-1 #
edge $-1 $287 11.163426966826819 $288 20.104540333359587 $173 $289 forward 7 unknown #
loop $-1 $-1 $180 $108 #
plane-surface $-1 -53.901791436506258 1.7329086727968708 1.5454252284205268 -0.70710678939079041 0 0.70710677298230451 0.70710677298230451 0 0.70710678939079041 forward_v I I I I #
loop $-1 $-1 $290 $69 #
coedge $-1 $178 $178 $179 $291 reversed $109 $-1 #
coedge $-1 $179 $179 $178 $291 forward $111 $-1 #
coedge $-1 $180 $180 $112 $181 forward $175 $-1 #
edge $-1 $292 0 $292 6.2831853071796004 $180 $293 forward 7 unknown #
loop $-1 $-1 $187 $113 #
plane-surface $-1 -53.901791436506258 1.7329086727968708 1.5454252284205268 -0.70710678939079041 0 0.70710677298230451 0.70710677298230451 0 0.70710678939079041 forward_v I I I I #
loop $-1 $-1 $294 $72 #
coedge $-1 $185 $185 $186 $295 reversed $114 $-1 #
coedge $-1 $186 $186 $185 $295 forward $116 $-1 #
coedge $-1 $187 $187 $117 $188 forward $182 $-1 #
edge $-1 $296 0 $296 6.2831853071796004 $187 $297 forward 7 unknown #
loop $-1 $-1 $194 $118 #
plane-surface $-1 -53.901791436506258 1.7329086727968708 1.5454252284205268 -0.70710678939079041 0 0.70710677298230451 0.70710677298230451 0 0.70710678939079041 forward_v I I I I #
loop $-1 $-1 $298 $75 #
coedge $-1 $192 $192 $193 $299 reversed $119 $-1 #
coedge $-1 $193 $193 $192 $299 forward $121 $-1 #
coedge $-1 $194 $194 $122 $195 forward $189 $-1 #
edge $-1 $300 0 $300 6.2831853071796004 $194 $301 forward 7 unknown #
face $-1 $302 $303 $42 $-1 $304 reversed single #
loop $-1 $-1 $305 $123 #
plane-surface $-1 69.837919560405837 -1.0471110559467522 154.07505164682587 0 1 0 0.77714596973225614 0 0.62932038083071107 forward_v I I I I #
coedge $-1 $306 $307 $308 $309 reversed $124 $-1 #
coedge $-1 $201 $126 $310 $311 reversed $79 $-1 #
coedge $-1 $126 $200 $306 $312 reversed $79 $-1 #
coedge $-1 $308 $313 $126 $203 forward $314 $-1 #
edge $-1 $315 -18.982831656303325 $316 -12.477351683242482 $202 $317 forward 7 unknown #
loop $-1 $-1 $209 $127 #
plane-surface $-1 -13.941200392053091 2.770400819965019 86.232059818266535 0.77714596973225614 0 0.62932038083071107 0.62932038083071107 0 -0.77714596973225614 forward_v I I I I #
loop $-1 $-1 $318 $81 #
coedge $-1 $207 $207 $208 $319 reversed $128 $-1 #
coedge $-1 $208 $208 $207 $319 forward $130 $-1 #
coedge $-1 $209 $209 $131 $210 forward $204 $-1 #
edge $-1 $320 0 $320 6.2831853071796004 $209 $321 forward 7 unknown #
loop $-1 $-1 $216 $132 #
plane-surface $-1 -13.941200392053091 2.770400819965019 86.232059818266535 0.77714596973225614 0 0.62932038083071107 0.62932038083071107 0 -0.77714596973225614 forward_v I I I I #
loop $-1 $-1 $322 $84 #
coedge $-1 $214 $214 $215 $323 reversed $133 $-1 #
coedge $-1 $215 $215 $214 $323 forward $135 $-1 #
coedge $-1 $216 $216 $136 $217 forward $211 $-1 #
edge $-1 $324 0 $324 6.2831853071796004 $216 $325 forward 7 unknown #
face $-1 $326 $327 $45 $-1 $328 forward single #
loop $-1 $-1 $329 $137 #
plane-surface $-1 53.901791436506244 0 0 -1 0 0 0 0 1 forward_v I I I I #
coedge $-1 $330 $331 $332 $333 reversed $138 $-1 #
coedge $-1 $223 $140 $334 $335 reversed $88 $-1 #
coedge $-1 $140 $222 $336 $337 reversed $88 $-1 #
coedge $-1 $338 $329 $140 $225 forward $219 $-1 #
edge $-1 $339 -74.584585957605313 $340 -66.550987020980159 $224 $341 forward 7 unknown #
loop $-1 $-1 $231 $141 #
plane-surface $-1 -13.941200392053091 2.770400819965019 86.232059818266535 0.77714596973225614 0 0.62932038083071107 0.62932038083071107 0 -0.77714596973225614 forward_v I I I I #
loop $-1 $-1 $342 $90 #
coedge $-1 $229 $229 $230 $343 reversed $142 $-1 #
coedge $-1 $230 $230 $229 $343 forward $144 $-1 #
coedge $-1 $231 $231 $145 $232 forward $226 $-1 #
edge $-1 $344 0 $344 6.2831853071796004 $231 $345 forward 7 unknown #
loop $-1 $-1 $238 $146 #
plane-surface $-1 -13.941200392053091 2.770400819965019 86.232059818266535 0.77714596973225614 0 0.62932038083071107 0.62932038083071107 0 -0.77714596973225614 forward_v I I I I #
loop $-1 $-1 $346 $93 #
coedge $-1 $236 $236 $237 $347 reversed $147 $-1 #
coedge $-1 $237 $237 $236 $347 forward $149 $-1 #
coedge $-1 $238 $238 $150 $239 forward $233 $-1 #
edge $-1 $348 0 $348 6.2831853071796004 $238 $349 forward 7 unknown #
face $-1 $350 $351 $36 $-1 $352 reversed single #
loop $-1 $-1 $353 $151 #
plane-surface $-1 -53.901791436506244 0 0 1 0 0 0 0 -1 forward_v I I I I #
coedge $-1 $354 $251 $355 $356 forward $152 $-1 #
coedge $-1 $357 $154 $354 $358 forward $97 $-1 #
coedge $-1 $154 $357 $359 $360 forward $97 $-1 #
coedge $-1 $254 $253 $154 $247 reversed $255 $-1 #
edge $-1 $361 -23.448850252107974 $362 23.448850252107974 $246 $363 forward 7 unknown #
coedge $-1 $156 $155 $364 $365 forward $61 $-1 #
coedge $-1 $366 $367 $155 $250 reversed $351 $-1 #
edge $-1 $257 -53.901791436506244 $368 53.901791436506244 $249 $369 forward 7 unknown #
coedge $-1 $243 $370 $156 $252 reversed $152 $-1 #
edge $-1 $371 -53.901791436506244 $256 53.901791436506244 $251 $372 forward 7 unknown #
coedge $-1 $246 $157 $370 $373 forward $255 $-1 #
coedge $-1 $157 $246 $366 $374 reversed $255 $-1 #
loop $-1 $-1 $253 $350 #
vertex $-1 $158 $375 #
vertex $-1 $158 $376 #
straight-curve $-1 53.901791436506244 0 10.48653880243277 0 1 0 I I #
face $-1 $377 $378 $37 $-1 $379 reversed single #
loop $-1 $-1 $271 $159 #
plane-surface $-1 0 -30.036762947984762 -4.7457132661981571 0 0 1 1 0 0 forward_v I I I I #
coedge $-1 $380 $381 $163 $267 forward $160 $-1 #
coedge $-1 $382 $162 $381 $383 forward $101 $-1 #
coedge $-1 $162 $382 $384 $385 forward $101 $-1 #
coedge $-1 $164 $163 $162 $266 reversed $64 $-1 #
edge $-1 $386 -53.901791436506244 $387 53.901791436506244 $162 $388 forward 7 unknown #
edge $-1 $387 -10.48653880243277 $273 -4.7457132661981571 $262 $389 forward 7 unknown #
coedge $-1 $384 $390 $164 $269 forward $391 $-1 #
edge $-1 $272 4.7457132661981571 $386 10.48653880243277 $268 $392 forward 7 unknown #
coedge $-1 $393 $165 $390 $394 forward $260 $-1 #
coedge $-1 $165 $393 $380 $395 forward $260 $-1 #
vertex $-1 $269 $396 #
vertex $-1 $395 $397 #
straight-curve $-1 0 -23.448850252107974 -4.7457132661981571 1 0 0 I I #
face $-1 $-1 $398 $38 $-1 $399 reversed single #
loop $-1 $-1 $173 $167 #
plane-surface $-1 0 0 10.48653880243277 0 0 1 1 0 0 forward_v I I I I #
coedge $-1 $400 $401 $402 $403 reversed $168 $-1 #
coedge $-1 $404 $170 $172 $285 forward $105 $-1 #
coedge $-1 $170 $404 $400 $405 forward $105 $-1 #
coedge $-1 $402 $173 $170 $282 forward $276 $-1 #
edge $-1 $288 -2.3322944635641694 $406 4.0652031363610401 $281 $407 forward 7 unknown #
coedge $-1 $408 $409 $171 $284 forward $398 $-1 #
edge $-1 $410 -37.341609186422865 $287 -28.400495612410637 $283 $411 forward 7 unknown #
edge $-1 $288 -12.644643932376161 $410 -2.0097183471152325e-014 $172 $412 forward 7 unknown #
coedge $-1 $173 $402 $408 $413 forward $276 $-1 #
vertex $-1 $284 $414 #
vertex $-1 $174 $415 #
straight-curve $-1 -65.065218403333063 -1.465840127165734 10.486538802432769 1 0 0 I I #
coedge $-1 $290 $290 $-1 $416 reversed $177 $-1 #
edge $-1 $417 0 $417 6.2831853071796004 $178 $418 forward 7 unknown #
vertex $-1 $181 $419 #
ellipse-curve $-1 -49.431234753239863 -0.18634060718069279 6.0159820154266566 -0.70710678939079041 0 0.70710677298230451 0.35355338649115226 0 0.35355339469539521 1 I I #
coedge $-1 $294 $294 $-1 $420 reversed $184 $-1 #
edge $-1 $421 0 $421 6.2831853071796004 $185 $422 forward 7 unknown #
vertex $-1 $188 $423 #
ellipse-curve $-1 -49.431234753239863 1.7329086727968708 6.0159820154266566 -0.70710678939079041 0 0.70710677298230451 0.35355338649115226 0 0.35355339469539521 1 I I #
coedge $-1 $298 $298 $-1 $424 reversed $191 $-1 #
edge $-1 $425 0 $425 6.2831853071796004 $192 $426 forward 7 unknown #
vertex $-1 $195 $427 #
ellipse-curve $-1 -49.431234753239863 3.6521579527744343 6.0159820154266566 -0.70710678939079041 0 0.70710677298230451 0.35355338649115226 0 0.35355339469539521 1 I I #
face $-1 $-1 $314 $42 $-1 $428 forward single #
loop $-1 $-1 $429 $196 #
plane-surface $-1 53.901791436506244 0 0 -1 0 0 0 0 1 forward_v I I I I #
coedge $-1 $430 $431 $432 $433 reversed $197 $-1 #
coedge $-1 $434 $199 $201 $312 forward $124 $-1 #
coedge $-1 $199 $434 $430 $435 forward $124 $-1 #
coedge $-1 $432 $202 $199 $309 forward $314 $-1 #
edge $-1 $316 -5.2027122858942807 $436 2.4323114659292617 $308 $437 forward 7 unknown #
coedge $-1 $438 $439 $200 $311 forward $303 $-1 #
edge $-1 $440 -74.584585957605313 $315 -66.550987020980159 $310 $441 forward 7 unknown #
edge $-1 $316 97.466272702835681 $440 107.80358287301246 $201 $442 forward 7 unknown #
coedge $-1 $202 $432 $438 $443 forward $314 $-1 #
loop $-1 $-1 $432 $302 #
vertex $-1 $311 $444 #
vertex $-1 $203 $445 #
straight-curve $-1 34.918959780202918 6.5879126958767902 10.486538802432776 -1 0 0 I I #
coedge $-1 $318 $318 $-1 $446 reversed $206 $-1 #
edge $-1 $447 0 $447 6.2831853071796004 $207 $448 forward 7 unknown #
vertex $-1 $210 $449 #
ellipse-curve $-1 50.64905144997585 1.1343243017171183 6.469739334120181 0.77714596973225614 0 0.62932038083071107 0.31466019041535553 0 -0.38857298486612807 1 I I #
coedge $-1 $322 $322 $-1 $450 reversed $213 $-1 #
edge $-1 $451 0 $451 6.2831853071796004 $214 $452 forward 7 unknown #
vertex $-1 $217 $453 #
ellipse-curve $-1 50.64905144997585 4.4064773382129232 6.469739334120181 0.77714596973225614 0 0.62932038083071107 0.31466019041535553 0 -0.38857298486612807 1 I I #
face $-1 $-1 $454 $45 $-1 $455 forward single #
loop $-1 $-1 $456 $218 #
plane-surface $-1 69.837919560405837 6.5879126958767902 154.07505164682587 0 -1 0 -0.77714596973225614 0 -0.62932038083071107 forward_v I I I I #
coedge $-1 $224 $457 $331 $458 forward $219 $-1 #
coedge $-1 $334 $221 $459 $460 reversed $138 $-1 #
coedge $-1 $221 $334 $329 $458 reversed $138 $-1 #
coedge $-1 $461 $456 $221 $333 forward $327 $-1 #
edge $-1 $462 97.466272702835681 $463 107.80358287301246 $332 $464 forward 7 unknown #
coedge $-1 $331 $330 $222 $335 forward $138 $-1 #
edge $-1 $465 97.466272702835681 $339 107.80358287301246 $222 $466 forward 7 unknown #
coedge $-1 $459 $467 $223 $337 forward $454 $-1 #
edge $-1 $340 -18.982831656303325 $465 -12.477351683242482 $336 $468 forward 7 unknown #
coedge $-1 $457 $224 $467 $469 reversed $219 $-1 #
vertex $-1 $225 $470 #
vertex $-1 $225 $471 #
straight-curve $-1 53.901791436506244 14.222936447700329 77.037525823412935 0 0 1 I I #
coedge $-1 $342 $342 $-1 $472 reversed $228 $-1 #
edge $-1 $473 0 $473 6.2831853071796004 $229 $474 forward 7 unknown #
vertex $-1 $232 $475 #
ellipse-curve $-1 50.64905144997585 8.7693480535406607 6.469739334120181 0.77714596973225614 0 0.62932038083071107 0.31466019041535553 0 -0.38857298486612807 1 I I #
coedge $-1 $346 $346 $-1 $476 reversed $235 $-1 #
edge $-1 $477 0 $477 6.2831853071796004 $236 $478 forward 7 unknown #
vertex $-1 $239 $479 #
ellipse-curve $-1 50.64905144997585 12.041501090036462 6.469739334120181 0.77714596973225614 0 0.62932038083071107 0.31466019041535553 0 -0.38857298486612807 1 I I #
face $-1 $-1 $255 $36 $-1 $480 reversed single #
loop $-1 $-1 $366 $240 #
plane-surface $-1 0 23.448850252107974 0 0 -1 0 0 0 -1 forward_v I I I I #
coedge $-1 $481 $364 $367 $482 forward $241 $-1 #
coedge $-1 $370 $243 $244 $358 reversed $152 $-1 #
coedge $-1 $364 $481 $243 $356 reversed $241 $-1 #
edge $-1 $371 -10.48653880243277 $483 10.48653880243277 $355 $484 forward 7 unknown #
coedge $-1 $245 $244 $481 $485 forward $97 $-1 #
edge $-1 $362 -53.901791436506244 $483 53.901791436506244 $354 $486 forward 7 unknown #
coedge $-1 $367 $366 $245 $360 reversed $351 $-1 #
edge $-1 $487 -53.901791436506244 $361 53.901791436506244 $359 $488 forward 7 unknown #
vertex $-1 $247 $489 #
vertex $-1 $373 $490 #
straight-curve $-1 53.901791436506244 0 -10.48653880243277 0 -1 0 I I #
coedge $-1 $353 $355 $248 $365 reversed $241 $-1 #
edge $-1 $368 -23.448850252107974 $371 23.448850252107974 $364 $491 forward 7 unknown #
coedge $-1 $359 $249 $254 $374 forward $351 $-1 #
coedge $-1 $249 $359 $353 $482 reversed $351 $-1 #
vertex $-1 $250 $492 #
straight-curve $-1 0 23.448850252107974 10.48653880243277 -1 0 0 I I #
coedge $-1 $251 $354 $253 $373 reversed $152 $-1 #
vertex $-1 $365 $493 #
straight-curve $-1 0 -23.448850252107974 10.48653880243277 1 0 0 I I #
edge $-1 $256 -10.48653880243277 $362 10.48653880243277 $253 $494 forward 7 unknown #
edge $-1 $257 -10.48653880243277 $361 10.48653880243277 $254 $495 forward 7 unknown #
point $-1 53.901791436506244 -23.448850252107974 10.48653880243277 #
point $-1 53.901791436506244 23.448850252107974 10.48653880243277 #
face $-1 $-1 $391 $37 $-1 $496 reversed single #
loop $-1 $-1 $497 $259 #
plane-surface $-1 0 -36.624675643861551 -7.6161260343154638 0 1 0 0 0 1 forward_v I I I I #
coedge $-1 $498 $262 $271 $395 reversed $160 $-1 #
coedge $-1 $262 $498 $263 $383 reversed $160 $-1 #
coedge $-1 $264 $263 $499 $500 forward $101 $-1 #
edge $-1 $387 23.448850252107974 $501 36.624675643861551 $381 $502 forward 7 unknown #
coedge $-1 $503 $268 $264 $385 reversed $391 $-1 #
edge $-1 $504 -36.624675643861551 $386 -23.448850252107974 $384 $505 forward 7 unknown #
vertex $-1 $269 $506 #
vertex $-1 $383 $507 #
straight-curve $-1 0 -23.448850252107974 -10.48653880243277 1 0 0 I I #
straight-curve $-1 53.901791436506244 -23.448850252107974 0 0 0 1 I I #
coedge $-1 $268 $503 $270 $394 reversed $391 $-1 #
loop $-1 $-1 $268 $377 #
straight-curve $-1 -53.901791436506244 -23.448850252107974 0 0 0 -1 I I #
coedge $-1 $271 $270 $508 $509 forward $260 $-1 #
edge $-1 $272 -6.5879126958767884 $510 6.5879126958767884 $390 $511 forward 7 unknown #
edge $-1 $512 -6.5879126958767884 $273 6.5879126958767884 $380 $513 forward 7 unknown #
point $-1 -53.901791436506244 -23.448850252107974 -4.7457132661981571 #
point $-1 53.901791436506244 -23.448850252107974 -4.7457132661981571 #
loop $-1 $-1 $283 $275 #
plane-surface $-1 -53.901791436506244 0 0 1 0 0 0 0 -1 forward_v I I I I #
coedge $-1 $401 $278 $280 $405 reversed $168 $-1 #
coedge $-1 $278 $400 $514 $515 reversed $168 $-1 #
coedge $-1 $286 $281 $278 $403 forward $276 $-1 #
edge $-1 $406 -20.104540333359587 $516 -11.163426966826819 $402 $517 forward 7 unknown #
coedge $-1 $280 $279 $409 $518 reversed $105 $-1 #
edge $-1 $519 2.0097183471152325e-014 $406 12.644643932376161 $400 $520 forward 7 unknown #
vertex $-1 $282 $521 #
straight-curve $-1 -44.960678069973468 0.86645433639843539 10.48653880243277 0 1 0 I I #
coedge $-1 $514 $283 $286 $413 reversed $398 $-1 #
coedge $-1 $283 $514 $404 $518 forward $398 $-1 #
vertex $-1 $284 $522 #
straight-curve $-1 -53.901791436506244 -1.465840127165734 38.887034414843406 0 0 1 I I #
straight-curve $-1 -53.901791436506258 -1.465840127165734 1.5454252284205268 -0.70710677298230451 0 -0.70710678939079041 I I #
edge $-1 $516 -4.9316574727594755 $287 1.465840127165734 $408 $523 forward 7 unknown #
point $-1 -53.901791436506244 -1.465840127165734 10.48653880243277 #
point $-1 -44.960678069973476 -1.465840127165734 10.48653880243277 #
edge $-1 $524 1 $524 0 $290 $-1 forward 7 unknown #
vertex $-1 $291 $525 #
ellipse-curve $-1 -48.375354504877109 -0.18634060718069279 4.9601017915657133 -0.70710678939079041 0 0.70710677298230451 0.35355338649115226 0 0.35355339469539521 1 I I #
point $-1 -49.077681366748699 -0.18634060718069279 6.3695354101220421 #
edge $-1 $526 1 $526 0 $294 $-1 forward 7 unknown #
vertex $-1 $295 $527 #
ellipse-curve $-1 -48.375354504877109 1.7329086727968708 4.9601017915657133 -0.70710678939079041 0 0.70710677298230451 0.35355338649115226 0 0.35355339469539521 1 I I #
point $-1 -49.077681366748699 1.7329086727968708 6.3695354101220421 #
edge $-1 $528 1 $528 0 $298 $-1 forward 7 unknown #
vertex $-1 $299 $529 #
ellipse-curve $-1 -48.375354504877109 3.6521579527744343 4.9601017915657133 -0.70710678939079041 0 0.70710677298230451 0.35355338649115226 0 0.35355339469539521 1 I I #
point $-1 -49.077681366748699 3.6521579527744343 6.3695354101220421 #
plane-surface $-1 0 0 10.48653880243277 0 0 1 1 0 0 forward_v I I I I #
coedge $-1 $439 $438 $431 $530 forward $303 $-1 #
coedge $-1 $431 $305 $307 $435 reversed $197 $-1 #
coedge $-1 $305 $430 $429 $530 reversed $197 $-1 #
coedge $-1 $313 $308 $305 $433 forward $314 $-1 #
edge $-1 $436 12.477351683242482 $531 18.982831656303325 $432 $532 forward 7 unknown #
coedge $-1 $307 $306 $439 $533 reversed $124 $-1 #
edge $-1 $534 -107.80358287301246 $436 -97.466272702835681 $430 $535 forward 7 unknown #
vertex $-1 $309 $536 #
straight-curve $-1 47.396311463445407 1.3852004099825095 10.486538802432769 0 -1 0 I I #
coedge $-1 $429 $310 $313 $443 reversed $303 $-1 #
coedge $-1 $310 $429 $434 $533 forward $303 $-1 #
vertex $-1 $311 $537 #
straight-curve $-1 53.901791436506244 6.5879126958767902 77.037525823412935 0 0 1 I I #
straight-curve $-1 -13.941200392053091 6.5879126958767902 86.232059818266535 0.62932038083071107 0 -0.77714596973225614 I I #
edge $-1 $531 -1.0471110559467522 $315 6.5879126958767902 $438 $538 forward 7 unknown #
point $-1 53.901791436506244 6.5879126958767902 10.48653880243277 #
point $-1 47.3963114634454 6.5879126958767902 10.486538802432776 #
edge $-1 $539 1 $539 0 $318 $-1 forward 7 unknown #
vertex $-1 $319 $540 #
ellipse-curve $-1 49.640353122612552 1.1343243017171183 5.6529115562726417 0.77714596973225614 0 0.62932038083071107 0.31466019041535553 0 -0.38857298486612807 1 I I #
point $-1 50.963711640391196 1.1343243017171183 6.0811663492540466 #
edge $-1 $541 1 $541 0 $322 $-1 forward 7 unknown #
vertex $-1 $323 $542 #
ellipse-curve $-1 49.640353122612552 4.4064773382129232 5.6529115562726417 0.77714596973225614 0 0.62932038083071107 0.31466019041535553 0 -0.38857298486612807 1 I I #
point $-1 50.963711640391196 4.4064773382129232 6.0811663492540466 #
loop $-1 $-1 $459 $326 #
plane-surface $-1 0 0 10.48653880243277 0 0 1 1 0 0 forward_v I I I I #
coedge $-1 $332 $461 $543 $544 reversed $327 $-1 #
coedge $-1 $329 $338 $461 $545 forward $219 $-1 #
edge $-1 $463 5.2027122858942807 $339 12.83773603771782 $329 $546 forward 7 unknown #
coedge $-1 $543 $336 $330 $460 forward $454 $-1 #
edge $-1 $465 -12.83773603771782 $462 -5.2027122858942807 $459 $547 forward 7 unknown #
coedge $-1 $456 $332 $457 $545 reversed $327 $-1 #
vertex $-1 $460 $548 #
vertex $-1 $458 $549 #
straight-curve $-1 -13.941200392053091 6.5879126958767902 86.232059818266535 0.62932038083071107 0 -0.77714596973225614 I I #
vertex $-1 $337 $550 #
straight-curve $-1 -13.941200392053091 14.222936447700329 86.232059818266535 0.62932038083071107 0 -0.77714596973225614 I I #
coedge $-1 $336 $543 $338 $469 forward $454 $-1 #
straight-curve $-1 34.918959780202918 14.222936447700329 10.486538802432776 -1 0 0 I I #
edge $-1 $551 6.5879126958767902 $340 14.222936447700329 $338 $552 forward 7 unknown #
point $-1 53.901791436506244 14.222936447700329 2.4529398658076218 #
point $-1 53.901791436506244 14.222936447700329 10.48653880243277 #
edge $-1 $553 1 $553 0 $342 $-1 forward 7 unknown #
vertex $-1 $343 $554 #
ellipse-curve $-1 49.640353122612552 8.7693480535406607 5.6529115562726417 0.77714596973225614 0 0.62932038083071107 0.31466019041535553 0 -0.38857298486612807 1 I I #
point $-1 50.963711640391196 8.7693480535406607 6.0811663492540466 #
edge $-1 $555 1 $555 0 $346 $-1 forward 7 unknown #
vertex $-1 $347 $556 #
ellipse-curve $-1 49.640353122612552 12.041501090036462 5.6529115562726417 0.77714596973225614 0 0.62932038083071107 0.31466019041535553 0 -0.38857298486612807 1 I I #
point $-1 50.963711640391196 12.041501090036462 6.0811663492540466 #
plane-surface $-1 53.901791436506244 0 0 -1 0 0 0 0 1 forward_v I I I I #
coedge $-1 $355 $353 $357 $485 reversed $241 $-1 #
edge $-1 $368 -10.48653880243277 $487 10.48653880243277 $367 $557 forward 7 unknown #
vertex $-1 $485 $558 #
straight-curve $-1 -53.901791436506244 -23.448850252107974 0 0 0 -1 I I #
edge $-1 $483 -23.448850252107974 $487 23.448850252107974 $481 $559 forward 7 unknown #
straight-curve $-1 0 -23.448850252107974 -10.48653880243277 -1 0 0 I I #
vertex $-1 $360 $560 #
straight-curve $-1 0 23.448850252107974 -10.48653880243277 1 0 0 I I #
point $-1 53.901791436506244 23.448850252107974 -10.48653880243277 #
point $-1 53.901791436506244 -23.448850252107974 -10.48653880243277 #
straight-curve $-1 -53.901791436506244 0 10.48653880243277 0 -1 0 I I #
point $-1 -53.901791436506244 23.448850252107974 10.48653880243277 #
point $-1 -53.901791436506244 -23.448850252107974 10.48653880243277 #
straight-curve $-1 53.901791436506244 -23.448850252107974 0 0 0 -1 I I #
straight-curve $-1 53.901791436506244 23.448850252107974 0 0 0 -1 I I #
plane-surface $-1 -53.901791436506244 0 0 1 0 0 0 0 -1 forward_v I I I I #
coedge $-1 $499 $508 $503 $561 forward $378 $-1 #
coedge $-1 $381 $380 $562 $563 forward $160 $-1 #
coedge $-1 $562 $497 $382 $500 reversed $378 $-1 #
edge $-1 $501 -53.901791436506244 $504 53.901791436506244 $499 $564 forward 7 unknown #
vertex $-1 $563 $565 #
straight-curve $-1 53.901791436506244 0 -10.48653880243277 0 -1 0 I I #
coedge $-1 $390 $384 $497 $561 reversed $391 $-1 #
vertex $-1 $385 $566 #
straight-curve $-1 -53.901791436506244 0 -10.48653880243277 0 1 0 I I #
point $-1 -53.901791436506244 -23.448850252107974 -10.48653880243277 #
point $-1 53.901791436506244 -23.448850252107974 -10.48653880243277 #
coedge $-1 $497 $562 $393 $509 reversed $378 $-1 #
edge $-1 $510 -53.901791436506244 $512 53.901791436506244 $508 $567 forward 7 unknown #
vertex $-1 $394 $568 #
straight-curve $-1 -53.901791436506244 -30.036762947984762 -4.7457132661981571 0 -1 0 I I #
vertex $-1 $395 $569 #
straight-curve $-1 53.901791436506244 -30.036762947984762 -4.7457132661981571 0 1 0 I I #
coedge $-1 $409 $408 $401 $515 forward $398 $-1 #
edge $-1 $516 28.400495612410637 $519 37.341609186422865 $514 $570 forward 7 unknown #
vertex $-1 $413 $571 #
straight-curve $-1 -65.065218403333063 4.9316574727594755 10.486538802432769 -1 0 0 I I #
edge $-1 $519 -4.0652031363610401 $410 2.3322944635641694 $409 $572 forward 7 unknown #
vertex $-1 $518 $573 #
straight-curve $-1 -53.901791436506258 4.9316574727594755 1.5454252284205268 0.70710677298230451 0 0.70710678939079041 I I #
point $-1 -44.960678069973476 4.9316574727594755 10.48653880243277 #
point $-1 -53.901791436506244 -1.465840127165734 1.545425228420541 #
straight-curve $-1 -53.901791436506244 0 10.48653880243277 0 -1 0 I I #
vertex $-1 $416 $574 #
point $-1 -48.021801118385959 -0.18634060718069279 5.3136551862611086 #
vertex $-1 $420 $575 #
point $-1 -48.021801118385959 1.7329086727968708 5.3136551862611086 #
vertex $-1 $424 $576 #
point $-1 -48.021801118385959 3.6521579527744343 5.3136551862611086 #
edge $-1 $531 66.550987020980159 $534 74.584585957605313 $429 $577 forward 7 unknown #
vertex $-1 $443 $578 #
straight-curve $-1 34.918959780202918 -1.0471110559467522 10.486538802432776 1 0 0 I I #
edge $-1 $534 -2.4323114659292617 $440 5.2027122858942807 $439 $579 forward 7 unknown #
vertex $-1 $533 $580 #
straight-curve $-1 -13.941200392053091 -1.0471110559467522 86.232059818266535 -0.62932038083071107 0 0.77714596973225614 I I #
point $-1 47.3963114634454 -1.0471110559467522 10.486538802432776 #
point $-1 53.901791436506244 6.5879126958767902 2.4529398658076218 #
straight-curve $-1 53.901791436506244 0 10.48653880243277 0 1 0 I I #
vertex $-1 $446 $581 #
point $-1 49.955013313027905 1.1343243017171183 5.2643385714065136 #
vertex $-1 $450 $582 #
point $-1 49.955013313027905 4.4064773382129232 5.2643385714065136 #
coedge $-1 $467 $459 $456 $544 forward $454 $-1 #
edge $-1 $462 12.477351683242482 $551 18.982831656303325 $543 $583 forward 7 unknown #
edge $-1 $551 66.550987020980159 $463 74.584585957605313 $457 $584 forward 7 unknown #
straight-curve $-1 53.901791436506244 1.3852004099825095 2.4529398658076076 0 1 0 I I #
straight-curve $-1 47.396311463445407 1.3852004099825095 10.486538802432769 0 -1 0 I I #
point $-1 47.3963114634454 6.5879126958767902 10.486538802432776 #
point $-1 53.901791436506244 6.5879126958767902 2.4529398658076218 #
point $-1 47.3963114634454 14.222936447700329 10.486538802432776 #
vertex $-1 $469 $585 #
straight-curve $-1 53.901791436506244 0 10.48653880243277 0 1 0 I I #
vertex $-1 $472 $586 #
point $-1 49.955013313027905 8.7693480535406607 5.2643385714065136 #
vertex $-1 $476 $587 #
point $-1 49.955013313027905 12.041501090036462 5.2643385714065136 #
straight-curve $-1 -53.901791436506244 23.448850252107974 0 0 0 -1 I I #
point $-1 -53.901791436506244 -23.448850252107974 -10.48653880243277 #
straight-curve $-1 -53.901791436506244 0 -10.48653880243277 0 1 0 I I #
point $-1 -53.901791436506244 23.448850252107974 -10.48653880243277 #
edge $-1 $510 -2.8704127681173066 $504 2.8704127681173066 $503 $588 forward 7 unknown #
coedge $-1 $508 $499 $498 $563 reversed $378 $-1 #
edge $-1 $512 -2.8704127681173066 $501 2.8704127681173066 $498 $589 forward 7 unknown #
straight-curve $-1 0 -36.624675643861551 -10.48653880243277 -1 0 0 I I #
point $-1 53.901791436506244 -36.624675643861551 -10.48653880243277 #
point $-1 -53.901791436506244 -36.624675643861551 -10.48653880243277 #
straight-curve $-1 0 -36.624675643861551 -4.7457132661981571 1 0 0 I I #
point $-1 -53.901791436506244 -36.624675643861551 -4.7457132661981571 #
point $-1 53.901791436506244 -36.624675643861551 -4.7457132661981571 #
straight-curve $-1 -53.901791436506244 4.9316574727594755 38.887034414843406 0 0 -1 I I #
point $-1 -53.901791436506244 4.9316574727594755 10.48653880243277 #
straight-curve $-1 -53.901791436506244 0.86645433639843539 1.5454252284205376 0 -1 0 I I #
point $-1 -53.901791436506244 4.9316574727594755 1.545425228420541 #
point $-1 -48.021801110181713 -0.18634060718069279 4.6065484050745615 #
point $-1 -48.021801110181713 1.7329086727968708 4.6065484050745615 #
point $-1 -48.021801110181713 3.6521579527744343 4.6065484050745615 #
straight-curve $-1 53.901791436506244 -1.0471110559467522 77.037525823412935 0 0 -1 I I #
point $-1 53.901791436506244 -1.0471110559467522 10.48653880243277 #
straight-curve $-1 53.901791436506244 1.3852004099825095 2.4529398658076076 0 1 0 I I #
point $-1 53.901791436506244 -1.0471110559467522 2.4529398658076218 #
point $-1 49.251780137746422 1.1343243017171183 5.3382513658572854 #
point $-1 49.251780137746422 4.4064773382129232 5.3382513658572854 #
straight-curve $-1 34.918959780202918 6.5879126958767902 10.486538802432776 1 0 0 I I #
straight-curve $-1 53.901791436506244 6.5879126958767902 77.037525823412935 0 0 -1 I I #
point $-1 53.901791436506244 6.5879126958767902 10.48653880243277 #
point $-1 49.251780137746422 8.7693480535406607 5.3382513658572854 #
point $-1 49.251780137746422 12.041501090036462 5.3382513658572854 #
straight-curve $-1 -53.901791436506244 -36.624675643861551 -7.6161260343154638 0 0 -1 I I #
straight-curve $-1 53.901791436506244 -36.624675643861551 -7.6161260343154638 0 0 -1 I I #
End-of-ACIS-data 