500 0 7 0           
7 Unknown 11 ACIS 5.0 NT 24 Thu Mar 25 19:10:31 1999 
-1 9.9999999999999995e-007 1e-010 
body $-1 $7 $-1 $8 #
body $-1 $9 $-1 $10 #
body $-1 $11 $-1 $12 #
body $-1 $13 $-1 $14 #
body $-1 $15 $-1 $16 #
body $-1 $17 $-1 $18 #
body $-1 $19 $-1 $20 #
lump $-1 $-1 $21 $0 #
transform $-1 1 0 0 0 1 0 0 0 1 45.667897579882201 30.744542371094497 11.678366071842548 1 rotate no_reflect no_shear #
lump $-1 $-1 $22 $1 #
transform $-1 1 0 0 0 1 0 0 0 1 45.667897579882201 30.744542371094497 11.678366071842548 1 rotate no_reflect no_shear #
lump $-1 $-1 $23 $2 #
transform $-1 1 0 0 0 1 0 0 0 1 45.667897579882201 30.744542371094497 11.678366071842548 1 rotate no_reflect no_shear #
lump $-1 $-1 $24 $3 #
transform $-1 1 0 0 0 1 0 0 0 1 45.667897579882201 30.744542371094497 11.678366071842548 1 rotate no_reflect no_shear #
lump $-1 $-1 $25 $4 #
transform $-1 1 0 0 0 1 0 0 0 1 45.667897579882201 30.744542371094497 11.678366071842548 1 rotate no_reflect no_shear #
lump $-1 $-1 $26 $5 #
transform $-1 1 0 0 0 1 0 0 0 1 45.667897579882201 30.744542371094497 11.678366071842548 1 rotate no_reflect no_shear #
lump $-1 $-1 $27 $6 #
transform $-1 1 0 0 0 1 0 0 0 1 45.667897579882201 30.744542371094497 11.678366071842548 1 rotate no_reflect no_shear #
shell $-1 $-1 $-1 $28 $-1 $7 #
shell $-1 $-1 $-1 $29 $-1 $9 #
shell $-1 $-1 $-1 $30 $-1 $11 #
shell $-1 $-1 $-1 $31 $-1 $13 #
shell $-1 $-1 $-1 $32 $-1 $15 #
shell $-1 $-1 $-1 $33 $-1 $17 #
shell $-1 $-1 $-1 $34 $-1 $19 #
face $-1 $35 $36 $21 $-1 $37 forward single #
face $-1 $38 $39 $22 $-1 $40 reversed single #
face $-1 $41 $42 $23 $-1 $43 forward single #
face $-1 $44 $45 $24 $-1 $46 forward single #
face $-1 $47 $48 $25 $-1 $49 reversed single #
face $-1 $50 $51 $26 $-1 $52 forward single #
face $-1 $53 $54 $27 $-1 $55 forward single #
face $-1 $56 $57 $21 $-1 $58 reversed single #
loop $-1 $-1 $59 $28 #
plane-surface $-1 0 0 11.678366071842548 0 0 1 1 0 0 forward_v I I I I #
face $-1 $60 $61 $22 $-1 $62 reversed single #
loop $-1 $-1 $63 $29 #
plane-surface $-1 34.868130388599845 -30.744542371094482 6.5312206589445836 0 -0.86602541151947299 0.49999998660252726 1 0 0 forward_v I I I I #
face $-1 $64 $65 $23 $-1 $66 forward single #
loop $-1 $67 $68 $30 #
cone-surface $-1 30.23965873519311 -27.906950381424899 8.3243664323574951 0 0.86602541151947299 -0.49999998660252726 1 0 0 1 I I 0 1 1 forward I I I I #
face $-1 $69 $70 $24 $-1 $71 forward single #
loop $-1 $72 $73 $31 #
cone-surface $-1 39.496602042006565 -27.906950381424899 8.3243664323574951 0 0.86602541151947299 -0.49999998660252726 1 0 0 1 I I 0 1 1 forward I I I I #
face $-1 $74 $75 $25 $-1 $76 reversed single #
loop $-1 $-1 $77 $32 #
plane-surface $-1 34.868130388599845 8.237983308845287e-007 59.782330576754561 0 0.86602541151947299 0.49999998660252726 1 0 0 forward_v I I I I #
face $-1 $78 $79 $26 $-1 $80 forward single #
loop $-1 $81 $82 $33 #
cone-surface $-1 30.23965873519311 27.906950381424899 8.3243664323574986 0 -0.86602541151947299 -0.49999998660252726 1 0 0 1 I I 0 1 1 forward I I I I #
face $-1 $83 $84 $27 $-1 $85 forward single #
loop $-1 $86 $87 $34 #
cone-surface $-1 39.496602042006565 27.906950381424899 8.3243664323574986 0 -0.86602541151947299 -0.49999998660252726 1 0 0 1 I I 0 1 1 forward I I I I #
face $-1 $88 $89 $21 $-1 $90 reversed single #
loop $-1 $-1 $91 $35 #
plane-surface $-1 0 0 -11.678366071842548 0 0 1 1 0 0 forward_v I I I I #
coedge $-1 $92 $93 $94 $95 forward $36 $-1 #
face $-1 $96 $97 $22 $-1 $98 reversed single #
loop $-1 $-1 $99 $38 #
plane-surface $-1 24.068363197317481 -109.84366196078774 52.19911701515796 1 0 0 0 0.86602541151947299 -0.49999998660252726 forward_v I I I I #
coedge $-1 $100 $101 $102 $103 reversed $39 $-1 #
face $-1 $-1 $104 $23 $-1 $105 forward single #
loop $-1 $106 $107 $41 #
cone-surface $-1 30.23965873519311 -26.122198527758499 7.2939395060201608 0 0.86602541151947299 -0.49999998660252726 0.5 0 0 1 I I -0.70710678118654746 0.70710678118654746 0.5 forward I I I I #
loop $-1 $-1 $108 $30 #
coedge $-1 $68 $68 $109 $110 reversed $42 $-1 #
face $-1 $-1 $111 $24 $-1 $112 forward single #
loop $-1 $113 $114 $44 #
cone-surface $-1 39.496602042006565 -26.122198527758499 7.2939395060201608 0 0.86602541151947299 -0.49999998660252726 0.5 0 0 1 I I -0.70710678118654746 0.70710678118654746 0.5 forward I I I I #
loop $-1 $-1 $115 $31 #
coedge $-1 $73 $73 $116 $117 reversed $45 $-1 #
face $-1 $118 $119 $25 $-1 $120 forward single #
loop $-1 $-1 $121 $47 #
plane-surface $-1 24.068363197317481 79.09912041349159 105.45022693296794 1 0 0 0 -0.86602541151947299 -0.49999998660252726 forward_v I I I I #
coedge $-1 $122 $123 $124 $125 reversed $48 $-1 #
face $-1 $-1 $126 $26 $-1 $127 forward single #
loop $-1 $128 $129 $50 #
cone-surface $-1 30.23965873519311 26.122198527758499 7.2939395060201644 0 -0.86602541151947299 -0.49999998660252726 0.5 0 0 1 I I -0.70710678118654746 0.70710678118654746 0.5 forward I I I I #
loop $-1 $-1 $130 $33 #
coedge $-1 $82 $82 $131 $132 reversed $51 $-1 #
face $-1 $-1 $133 $27 $-1 $134 forward single #
loop $-1 $135 $136 $53 #
cone-surface $-1 39.496602042006565 26.122198527758499 7.2939395060201644 0 -0.86602541151947299 -0.49999998660252726 0.5 0 0 1 I I -0.70710678118654746 0.70710678118654746 0.5 forward I I I I #
loop $-1 $-1 $137 $34 #
coedge $-1 $87 $87 $138 $139 reversed $54 $-1 #
face $-1 $140 $141 $21 $-1 $142 reversed single #
loop $-1 $-1 $143 $56 #
plane-surface $-1 0 -30.744542371094497 0 0 1 0 0 0 1 forward_v I I I I #
coedge $-1 $144 $145 $146 $147 forward $57 $-1 #
coedge $-1 $148 $59 $149 $150 forward $36 $-1 #
coedge $-1 $59 $148 $151 $152 forward $36 $-1 #
coedge $-1 $153 $154 $59 $95 reversed $155 $-1 #
edge $-1 $156 -30.744542371094497 $157 30.744542371094497 $94 $158 forward 7 unknown #
face $-1 $159 $160 $22 $-1 $161 forward single #
loop $-1 $-1 $162 $60 #
plane-surface $-1 0 -30.744542371094497 0 0 1 0 0 0 1 forward_v I I I I #
coedge $-1 $163 $164 $165 $166 reversed $61 $-1 #
coedge $-1 $167 $63 $168 $169 reversed $39 $-1 #
coedge $-1 $63 $167 $163 $170 forward $39 $-1 #
coedge $-1 $165 $171 $63 $103 forward $160 $-1 #
edge $-1 $172 -28.233832385582286 $173 -6.6342980030175589 $102 $174 forward 7 unknown #
loop $-1 $-1 $109 $64 #
plane-surface $-1 34.868130388599845 -30.744542371094482 6.5312206589445836 0 -0.86602541151947299 0.49999998660252726 1 0 0 forward_v I I I I #
loop $-1 $-1 $175 $41 #
coedge $-1 $107 $107 $108 $176 reversed $65 $-1 #
coedge $-1 $108 $108 $107 $176 forward $67 $-1 #
coedge $-1 $109 $109 $68 $110 forward $104 $-1 #
edge $-1 $177 1.0623969049353655e-015 $177 6.2831853071796013 $109 $178 forward 7 unknown #
loop $-1 $-1 $116 $69 #
plane-surface $-1 34.868130388599845 -30.744542371094482 6.5312206589445836 0 -0.86602541151947299 0.49999998660252726 1 0 0 forward_v I I I I #
loop $-1 $-1 $179 $44 #
coedge $-1 $114 $114 $115 $180 reversed $70 $-1 #
coedge $-1 $115 $115 $114 $180 forward $72 $-1 #
coedge $-1 $116 $116 $73 $117 forward $111 $-1 #
edge $-1 $181 1.0623969049353655e-015 $181 6.2831853071796013 $116 $182 forward 7 unknown #
face $-1 $183 $184 $25 $-1 $185 reversed single #
loop $-1 $-1 $186 $74 #
plane-surface $-1 0 0 11.678366071842548 0 0 1 1 0 0 forward_v I I I I #
coedge $-1 $187 $188 $189 $190 reversed $75 $-1 #
coedge $-1 $191 $77 $192 $193 reversed $48 $-1 #
coedge $-1 $77 $191 $187 $194 forward $48 $-1 #
coedge $-1 $189 $195 $77 $125 forward $196 $-1 #
edge $-1 $197 -28.233832385582279 $198 -6.6342980030175589 $124 $199 forward 7 unknown #
loop $-1 $-1 $131 $78 #
plane-surface $-1 34.868130388599845 8.237983308845287e-007 59.782330576754561 0 0.86602541151947299 0.49999998660252726 1 0 0 forward_v I I I I #
loop $-1 $-1 $200 $50 #
coedge $-1 $129 $129 $130 $201 reversed $79 $-1 #
coedge $-1 $130 $130 $129 $201 forward $81 $-1 #
coedge $-1 $131 $131 $82 $132 forward $126 $-1 #
edge $-1 $202 -1.300383533891199e-015 $202 6.2831853071795996 $131 $203 forward 7 unknown #
loop $-1 $-1 $138 $83 #
plane-surface $-1 34.868130388599845 8.237983308845287e-007 59.782330576754561 0 0.86602541151947299 0.49999998660252726 1 0 0 forward_v I I I I #
loop $-1 $-1 $204 $53 #
coedge $-1 $136 $136 $137 $205 reversed $84 $-1 #
coedge $-1 $137 $137 $136 $205 forward $86 $-1 #
coedge $-1 $138 $138 $87 $139 forward $133 $-1 #
edge $-1 $206 -1.300383533891199e-015 $206 6.2831853071795996 $138 $207 forward 7 unknown #
face $-1 $208 $209 $21 $-1 $210 reversed single #
loop $-1 $-1 $211 $88 #
plane-surface $-1 -45.667897579882201 0 0 1 0 0 0 0 -1 forward_v I I I I #
coedge $-1 $212 $151 $213 $214 forward $89 $-1 #
coedge $-1 $215 $91 $212 $216 forward $57 $-1 #
coedge $-1 $91 $215 $217 $218 forward $57 $-1 #
coedge $-1 $154 $153 $91 $147 reversed $155 $-1 #
edge $-1 $219 -30.744542371094497 $220 30.744542371094497 $146 $221 forward 7 unknown #
coedge $-1 $93 $92 $222 $223 forward $36 $-1 #
coedge $-1 $224 $225 $92 $150 reversed $209 $-1 #
edge $-1 $157 -45.667897579882201 $226 45.667897579882201 $149 $227 forward 7 unknown #
coedge $-1 $143 $228 $93 $152 reversed $89 $-1 #
edge $-1 $229 -45.667897579882201 $156 45.667897579882201 $151 $230 forward 7 unknown #
coedge $-1 $146 $94 $228 $231 forward $155 $-1 #
coedge $-1 $94 $146 $224 $232 reversed $155 $-1 #
loop $-1 $-1 $153 $208 #
vertex $-1 $95 $233 #
vertex $-1 $95 $234 #
straight-curve $-1 45.667897579882201 0 11.678366071842548 0 1 0 I I #
face $-1 $-1 $235 $22 $-1 $236 reversed single #
loop $-1 $-1 $165 $96 #
plane-surface $-1 0 0 11.678366071842548 0 0 1 1 0 0 forward_v I I I I #
coedge $-1 $237 $238 $164 $239 forward $97 $-1 #
coedge $-1 $164 $99 $101 $170 reversed $61 $-1 #
coedge $-1 $99 $163 $162 $239 reversed $61 $-1 #
coedge $-1 $240 $102 $99 $166 forward $160 $-1 #
edge $-1 $173 -27.14899429282525 $241 -24.177288609299374 $165 $242 forward 7 unknown #
coedge $-1 $101 $100 $237 $243 reversed $39 $-1 #
coedge $-1 $244 $245 $100 $169 forward $235 $-1 #
edge $-1 $246 -4.8580338573805832 $172 1.0853776689245582 $168 $247 forward 7 unknown #
edge $-1 $248 -2.8642609447069912e-014 $173 5.9434115263051126 $163 $249 forward 7 unknown #
coedge $-1 $102 $240 $244 $250 forward $160 $-1 #
vertex $-1 $169 $251 #
vertex $-1 $103 $252 #
straight-curve $-1 17.434065194299922 -27.772836687568621 11.678366071842548 -1 0 0 I I #
coedge $-1 $175 $175 $-1 $253 reversed $106 $-1 #
edge $-1 $254 0 $254 6.2831853071796004 $107 $255 forward 7 unknown #
vertex $-1 $110 $256 #
ellipse-curve $-1 30.23965873519311 -29.258689529331555 9.1047933653935615 0 -0.86602541151947299 0.49999998660252726 1 0 0 1 I I #
coedge $-1 $179 $179 $-1 $257 reversed $113 $-1 #
edge $-1 $258 0 $258 6.2831853071796004 $114 $259 forward 7 unknown #
vertex $-1 $117 $260 #
ellipse-curve $-1 39.496602042006565 -29.258689529331555 9.1047933653935615 0 -0.86602541151947299 0.49999998660252726 1 0 0 1 I I #
face $-1 $-1 $196 $25 $-1 $261 reversed single #
loop $-1 $-1 $192 $118 #
plane-surface $-1 45.667897579882201 0 0 -1 0 0 0 0 1 forward_v I I I I #
coedge $-1 $262 $263 $188 $264 forward $119 $-1 #
coedge $-1 $188 $121 $123 $194 reversed $75 $-1 #
coedge $-1 $121 $187 $186 $264 reversed $75 $-1 #
coedge $-1 $265 $124 $121 $190 forward $196 $-1 #
edge $-1 $198 -46.193892807539392 $266 -41.046747394641422 $189 $267 forward 7 unknown #
coedge $-1 $123 $122 $262 $268 reversed $48 $-1 #
coedge $-1 $269 $270 $122 $193 forward $184 $-1 #
edge $-1 $271 29.659164702169946 $197 35.602576228475058 $192 $272 forward 7 unknown #
edge $-1 $273 55.545673215883888 $198 61.489084742189007 $187 $274 forward 7 unknown #
coedge $-1 $124 $265 $269 $275 forward $196 $-1 #
loop $-1 $-1 $189 $183 #
vertex $-1 $193 $276 #
vertex $-1 $125 $277 #
straight-curve $-1 17.434065194299922 30.744542371094497 6.5312206589445836 -1 0 0 I I #
coedge $-1 $200 $200 $-1 $278 reversed $128 $-1 #
edge $-1 $279 0 $279 6.2831853071796004 $129 $280 forward 7 unknown #
vertex $-1 $132 $281 #
ellipse-curve $-1 30.23965873519311 29.258689529331559 9.1047933653935669 0 0.86602541151947299 0.49999998660252726 1 0 0 1 I I #
coedge $-1 $204 $204 $-1 $282 reversed $135 $-1 #
edge $-1 $283 0 $283 6.2831853071796004 $136 $284 forward 7 unknown #
vertex $-1 $139 $285 #
ellipse-curve $-1 39.496602042006565 29.258689529331559 9.1047933653935669 0 0.86602541151947299 0.49999998660252726 1 0 0 1 I I #
face $-1 $-1 $155 $21 $-1 $286 reversed single #
loop $-1 $-1 $224 $140 #
plane-surface $-1 0 30.744542371094497 0 0 -1 0 0 0 -1 forward_v I I I I #
coedge $-1 $287 $222 $225 $288 forward $141 $-1 #
coedge $-1 $228 $143 $144 $216 reversed $89 $-1 #
coedge $-1 $222 $287 $143 $214 reversed $141 $-1 #
edge $-1 $229 -11.678366071842548 $289 11.678366071842548 $213 $290 forward 7 unknown #
coedge $-1 $145 $144 $287 $291 forward $57 $-1 #
edge $-1 $220 -45.667897579882201 $289 45.667897579882201 $212 $292 forward 7 unknown #
coedge $-1 $225 $224 $145 $218 reversed $209 $-1 #
edge $-1 $293 -45.667897579882201 $219 45.667897579882201 $217 $294 forward 7 unknown #
vertex $-1 $147 $295 #
vertex $-1 $231 $296 #
straight-curve $-1 45.667897579882201 0 -11.678366071842548 0 -1 0 I I #
coedge $-1 $211 $213 $148 $223 reversed $141 $-1 #
edge $-1 $226 -30.744542371094497 $229 30.744542371094497 $222 $297 forward 7 unknown #
coedge $-1 $217 $149 $154 $232 forward $209 $-1 #
coedge $-1 $149 $217 $211 $288 reversed $209 $-1 #
vertex $-1 $150 $298 #
straight-curve $-1 0 30.744542371094497 11.678366071842548 -1 0 0 I I #
coedge $-1 $151 $212 $153 $231 reversed $89 $-1 #
vertex $-1 $223 $299 #
straight-curve $-1 0 -30.744542371094497 11.678366071842548 1 0 0 I I #
edge $-1 $156 -11.678366071842548 $220 11.678366071842548 $153 $300 forward 7 unknown #
edge $-1 $157 -11.678366071842548 $219 11.678366071842548 $154 $301 forward 7 unknown #
point $-1 45.667897579882201 -30.744542371094497 11.678366071842548 #
point $-1 45.667897579882201 30.744542371094497 11.678366071842548 #
loop $-1 $-1 $168 $159 #
plane-surface $-1 45.667897579882201 0 0 -1 0 0 0 0 1 forward_v I I I I #
coedge $-1 $302 $162 $167 $243 forward $97 $-1 #
coedge $-1 $162 $302 $240 $303 reversed $97 $-1 #
edge $-1 $241 14.421192435736431 $248 19.568337848634421 $162 $304 forward 7 unknown #
coedge $-1 $171 $165 $238 $303 forward $160 $-1 #
vertex $-1 $303 $305 #
straight-curve $-1 24.068363197317481 -54.921830980393871 11.67836607184255 0 -1 0 I I #
edge $-1 $248 6.6342980030175589 $246 28.233832385582286 $237 $306 forward 7 unknown #
coedge $-1 $245 $168 $171 $250 reversed $235 $-1 #
coedge $-1 $168 $244 $302 $307 forward $235 $-1 #
vertex $-1 $243 $308 #
straight-curve $-1 45.667897579882201 -28.315525507489582 10.738401429458111 0 0.49999998660252726 0.86602541151947299 I I #
vertex $-1 $243 $309 #
straight-curve $-1 24.068363197317481 -30.744542371094482 6.5312206589445836 0 0.49999998660252726 0.86602541151947299 I I #
edge $-1 $310 -30.744542371094497 $172 -27.772836687568621 $244 $311 forward 7 unknown #
point $-1 45.667897579882208 -27.772836687568621 11.678366071842548 #
point $-1 24.068363197317481 -27.772836687568621 11.678366071842548 #
edge $-1 $312 1 $312 0 $175 $-1 forward 7 unknown #
vertex $-1 $176 $313 #
ellipse-curve $-1 30.23965873519311 -26.555211233518236 7.5439394993214242 0 -0.86602541151947299 0.49999998660252726 1 0 0 1 I I #
point $-1 31.23965873519311 -29.258689529331562 9.1047933653935669 #
edge $-1 $314 1 $314 0 $179 $-1 forward 7 unknown #
vertex $-1 $180 $315 #
ellipse-curve $-1 39.496602042006565 -26.555211233518236 7.5439394993214242 0 -0.86602541151947299 0.49999998660252726 1 0 0 1 I I #
point $-1 40.496602042006565 -29.258689529331562 9.1047933653935669 #
plane-surface $-1 0 30.744542371094497 0 0 -1 0 0 0 -1 forward_v I I I I #
coedge $-1 $316 $186 $191 $268 forward $119 $-1 #
coedge $-1 $186 $316 $265 $317 forward $119 $-1 #
edge $-1 $266 8.8050178356512987 $273 11.776723519177164 $186 $318 forward 7 unknown #
coedge $-1 $195 $189 $263 $317 reversed $196 $-1 #
vertex $-1 $264 $319 #
straight-curve $-1 24.068363197317481 30.744542371094497 52.725113466483968 0 0 1 I I #
edge $-1 $273 6.6342980030175589 $271 28.233832385582286 $262 $320 forward 7 unknown #
coedge $-1 $270 $192 $195 $275 reversed $184 $-1 #
coedge $-1 $192 $269 $316 $321 reversed $184 $-1 #
vertex $-1 $321 $322 #
straight-curve $-1 45.667897579882201 12.94325473384151 37.3639563883631 0 0.49999998660252726 -0.86602541151947299 I I #
vertex $-1 $268 $323 #
straight-curve $-1 24.068363197317481 8.237983308845287e-007 59.782330576754561 0 0.49999998660252726 -0.86602541151947299 I I #
edge $-1 $324 -11.678366071842548 $197 -6.5312206589445791 $269 $325 forward 7 unknown #
point $-1 45.667897579882201 30.744542371094497 6.5312206589445791 #
point $-1 24.068363197317481 30.744542371094497 6.5312206589445765 #
edge $-1 $326 1 $326 0 $200 $-1 forward 7 unknown #
vertex $-1 $201 $327 #
ellipse-curve $-1 30.23965873519311 26.555211233518236 7.5439394993214277 0 0.86602541151947299 0.49999998660252726 1 0 0 1 I I #
point $-1 31.23965873519311 29.258689529331562 9.1047933653935704 #
edge $-1 $328 1 $328 0 $204 $-1 forward 7 unknown #
vertex $-1 $205 $329 #
ellipse-curve $-1 39.496602042006565 26.555211233518236 7.5439394993214277 0 0.86602541151947299 0.49999998660252726 1 0 0 1 I I #
point $-1 40.496602042006565 29.258689529331562 9.1047933653935704 #
plane-surface $-1 45.667897579882201 0 0 -1 0 0 0 0 1 forward_v I I I I #
coedge $-1 $213 $211 $215 $291 reversed $141 $-1 #
edge $-1 $226 -11.678366071842548 $293 11.678366071842548 $225 $330 forward 7 unknown #
vertex $-1 $291 $331 #
straight-curve $-1 -45.667897579882201 -30.744542371094497 0 0 0 -1 I I #
edge $-1 $289 -30.744542371094497 $293 30.744542371094497 $287 $332 forward 7 unknown #
straight-curve $-1 0 -30.744542371094497 -11.678366071842548 -1 0 0 I I #
vertex $-1 $218 $333 #
straight-curve $-1 0 30.744542371094497 -11.678366071842548 1 0 0 I I #
point $-1 45.667897579882201 30.744542371094497 -11.678366071842548 #
point $-1 45.667897579882201 -30.744542371094497 -11.678366071842548 #
straight-curve $-1 -45.667897579882201 0 11.678366071842548 0 -1 0 I I #
point $-1 -45.667897579882201 30.744542371094497 11.678366071842548 #
point $-1 -45.667897579882201 -30.744542371094497 11.678366071842548 #
straight-curve $-1 45.667897579882201 -30.744542371094497 0 0 0 -1 I I #
straight-curve $-1 45.667897579882201 30.744542371094497 0 0 0 -1 I I #
coedge $-1 $238 $237 $245 $307 reversed $97 $-1 #
edge $-1 $241 24.068363197317481 $310 45.667897579882201 $238 $334 forward 7 unknown #
straight-curve $-1 24.068363197317481 -30.744542371094497 26.09955850757898 0 0 -1 I I #
point $-1 24.068363197317481 -30.744542371094497 11.678366071842548 #
straight-curve $-1 17.434065194299922 -30.744542371094497 6.5312206589445569 1 0 0 I I #
edge $-1 $310 -11.678366071842548 $246 -6.5312206589445587 $245 $335 forward 7 unknown #
point $-1 45.667897579882208 -30.744542371094497 6.5312206589445587 #
point $-1 24.068363197317481 -30.744542371094497 6.5312206589445587 #
vertex $-1 $250 $336 #
straight-curve $-1 45.667897579882201 0 11.678366071842548 0 1 0 I I #
vertex $-1 $253 $337 #
point $-1 31.23965873519311 -26.555211233518236 7.5439394993214242 #
vertex $-1 $257 $338 #
point $-1 40.496602042006565 -26.555211233518236 7.5439394993214242 #
coedge $-1 $263 $262 $270 $321 forward $119 $-1 #
edge $-1 $324 -45.667897579882201 $266 -24.068363197317481 $265 $339 forward 7 unknown #
straight-curve $-1 24.068363197317481 39.549560206745795 11.678366071842547 0 -1 0 I I #
point $-1 24.068363197317481 30.744542371094497 11.678366071842548 #
straight-curve $-1 17.434065194299922 27.772836687568635 11.678366071842543 1 0 0 I I #
edge $-1 $271 27.772836687568631 $324 30.744542371094497 $270 $340 forward 7 unknown #
point $-1 45.667897579882208 27.772836687568631 11.678366071842547 #
point $-1 24.068363197317481 27.772836687568631 11.678366071842547 #
vertex $-1 $321 $341 #
straight-curve $-1 45.667897579882201 30.744542371094497 0 0 0 -1 I I #
vertex $-1 $278 $342 #
point $-1 31.23965873519311 26.555211233518236 7.5439394993214277 #
vertex $-1 $282 $343 #
point $-1 40.496602042006565 26.555211233518236 7.5439394993214277 #
straight-curve $-1 -45.667897579882201 30.744542371094497 0 0 0 -1 I I #
point $-1 -45.667897579882201 -30.744542371094497 -11.678366071842548 #
straight-curve $-1 -45.667897579882201 0 -11.678366071842548 0 1 0 I I #
point $-1 -45.667897579882201 30.744542371094497 -11.678366071842548 #
straight-curve $-1 0 -30.744542371094497 11.678366071842548 1 0 0 I I #
straight-curve $-1 45.667897579882201 -30.744542371094497 0 0 0 -1 I I #
point $-1 45.667897579882201 -30.744542371094497 11.678366071842548 #
point $-1 30.23965873519311 -25.689185821998763 7.0439395127188975 #
point $-1 39.496602042006565 -25.689185821998763 7.0439395127188975 #
straight-curve $-1 0 30.744542371094497 11.678366071842548 -1 0 0 I I #
straight-curve $-1 45.667897579882201 0 11.678366071842548 0 1 0 I I #
point $-1 45.667897579882201 30.744542371094497 11.678366071842548 #
point $-1 30.23965873519311 25.689185821998763 7.0439395127189011 #
point $-1 39.496602042006565 25.689185821998763 7.0439395127189011 #
End-of-ACIS-data 