500 0 16 0           
7 Unknown 11 ACIS 5.0 NT 24 Thu Mar 25 20:35:07 1999 
-1 9.9999999999999995e-007 1e-010 
body $-1 $16 $-1 $17 #
body $-1 $18 $-1 $19 #
body $-1 $20 $-1 $21 #
body $-1 $22 $-1 $23 #
body $-1 $24 $-1 $25 #
body $-1 $26 $-1 $27 #
body $-1 $28 $-1 $29 #
body $-1 $30 $-1 $31 #
body $-1 $32 $-1 $33 #
body $-1 $34 $-1 $35 #
body $-1 $36 $-1 $37 #
body $-1 $38 $-1 $39 #
body $-1 $40 $-1 $41 #
body $-1 $42 $-1 $43 #
body $-1 $44 $-1 $45 #
body $-1 $46 $-1 $47 #
lump $-1 $-1 $48 $0 #
transform $-1 1 0 0 0 1 0 0 0 1 46.670125431073949 28.423099126481688 11.091661852183478 1 rotate no_reflect no_shear #
lump $-1 $-1 $49 $1 #
transform $-1 1 0 0 0 1 0 0 0 1 46.670125431073949 28.423099126481688 11.091661852183478 1 rotate no_reflect no_shear #
lump $-1 $-1 $50 $2 #
transform $-1 1 0 0 0 1 0 0 0 1 46.670125431073949 28.423099126481688 11.091661852183478 1 rotate no_reflect no_shear #
lump $-1 $-1 $51 $3 #
transform $-1 1 0 0 0 1 0 0 0 1 46.670125431073949 28.423099126481688 11.091661852183478 1 rotate no_reflect no_shear #
lump $-1 $-1 $52 $4 #
transform $-1 1 0 0 0 1 0 0 0 1 46.670125431073949 28.423099126481688 11.091661852183478 1 rotate no_reflect no_shear #
lump $-1 $-1 $53 $5 #
transform $-1 1 0 0 0 1 0 0 0 1 46.670125431073949 28.423099126481688 11.091661852183478 1 rotate no_reflect no_shear #
lump $-1 $-1 $54 $6 #
transform $-1 1 0 0 0 1 0 0 0 1 46.670125431073949 28.423099126481688 11.091661852183478 1 rotate no_reflect no_shear #
lump $-1 $-1 $55 $7 #
transform $-1 1 0 0 0 1 0 0 0 1 46.670125431073949 28.423099126481688 11.091661852183478 1 rotate no_reflect no_shear #
lump $-1 $-1 $56 $8 #
transform $-1 1 0 0 0 1 0 0 0 1 46.670125431073949 28.423099126481688 11.091661852183478 1 rotate no_reflect no_shear #
lump $-1 $-1 $57 $9 #
transform $-1 1 0 0 0 1 0 0 0 1 46.670125431073949 28.423099126481688 11.091661852183478 1 rotate no_reflect no_shear #
lump $-1 $-1 $58 $10 #
transform $-1 1 0 0 0 1 0 0 0 1 46.670125431073949 28.423099126481688 11.091661852183478 1 rotate no_reflect no_shear #
lump $-1 $-1 $59 $11 #
transform $-1 1 0 0 0 1 0 0 0 1 46.670125431073949 28.423099126481688 11.091661852183478 1 rotate no_reflect no_shear #
lump $-1 $-1 $60 $12 #
transform $-1 1 0 0 0 1 0 0 0 1 46.670125431073949 28.423099126481688 11.091661852183478 1 rotate no_reflect no_shear #
lump $-1 $-1 $61 $13 #
transform $-1 1 0 0 0 1 0 0 0 1 46.670125431073949 28.423099126481688 11.091661852183478 1 rotate no_reflect no_shear #
lump $-1 $-1 $62 $14 #
transform $-1 1 0 0 0 1 0 0 0 1 46.670125431073949 28.423099126481688 11.091661852183478 1 rotate no_reflect no_shear #
lump $-1 $-1 $63 $15 #
transform $-1 1 0 0 0 1 0 0 0 1 46.670125431073949 28.423099126481688 11.091661852183478 1 rotate no_reflect no_shear #
shell $-1 $-1 $-1 $64 $-1 $16 #
shell $-1 $-1 $-1 $65 $-1 $18 #
shell $-1 $-1 $-1 $66 $-1 $20 #
shell $-1 $-1 $-1 $67 $-1 $22 #
shell $-1 $-1 $-1 $68 $-1 $24 #
shell $-1 $-1 $-1 $69 $-1 $26 #
shell $-1 $-1 $-1 $70 $-1 $28 #
shell $-1 $-1 $-1 $71 $-1 $30 #
shell $-1 $-1 $-1 $72 $-1 $32 #
shell $-1 $-1 $-1 $73 $-1 $34 #
shell $-1 $-1 $-1 $74 $-1 $36 #
shell $-1 $-1 $-1 $75 $-1 $38 #
shell $-1 $-1 $-1 $76 $-1 $40 #
shell $-1 $-1 $-1 $77 $-1 $42 #
shell $-1 $-1 $-1 $78 $-1 $44 #
shell $-1 $-1 $-1 $79 $-1 $46 #
face $-1 $80 $81 $48 $-1 $82 forward single #
face $-1 $83 $84 $49 $-1 $85 reversed single #
face $-1 $86 $87 $50 $-1 $88 forward single #
face $-1 $89 $90 $51 $-1 $91 reversed single #
face $-1 $92 $93 $52 $-1 $94 forward single #
face $-1 $95 $96 $53 $-1 $97 forward single #
face $-1 $98 $99 $54 $-1 $100 reversed single #
face $-1 $101 $102 $55 $-1 $103 forward single #
face $-1 $104 $105 $56 $-1 $106 forward single #
face $-1 $107 $108 $57 $-1 $109 reversed single #
face $-1 $110 $111 $58 $-1 $112 forward single #
face $-1 $113 $114 $59 $-1 $115 forward single #
face $-1 $116 $117 $60 $-1 $118 reversed single #
face $-1 $119 $120 $61 $-1 $121 forward single #
face $-1 $122 $123 $62 $-1 $124 forward single #
face $-1 $125 $126 $63 $-1 $127 forward single #
face $-1 $128 $129 $48 $-1 $130 reversed single #
loop $-1 $-1 $131 $64 #
plane-surface $-1 0 0 11.091661852183478 0 0 1 1 0 0 forward_v I I I I #
face $-1 $132 $133 $49 $-1 $134 reversed single #
loop $-1 $-1 $135 $65 #
plane-surface $-1 -44.676185365145216 -19.246953431479916 0 0 -1 0 0 0 -1 forward_v I I I I #
face $-1 $136 $137 $50 $-1 $138 reversed single #
loop $-1 $-1 $139 $66 #
plane-surface $-1 0 28.423099126481688 0 0 -1 0 0 0 -1 forward_v I I I I #
face $-1 $140 $141 $51 $-1 $142 reversed single #
loop $-1 $-1 $143 $67 #
plane-surface $-1 -94.743909186231264 -14.264278199799744 82.713251051044594 0 1 0 -0.51503808176128008 0 0.85716729658548041 forward_v I I I I #
face $-1 $144 $145 $52 $-1 $146 forward single #
loop $-1 $147 $148 $68 #
cone-surface $-1 -39.196570227284781 -12.157370399200591 6.0750081004341396 0.51503808176128008 0 -0.85716729658548041 0.4285836482927402 0 0.25751904088064004 1 I I 0 1 0.5 forward I I I I #
face $-1 $149 $150 $53 $-1 $151 forward single #
loop $-1 $152 $153 $69 #
cone-surface $-1 -39.196570227284781 -8.9970086983018618 6.0750081004341396 0.51503808176128008 0 -0.85716729658548041 0.4285836482927402 0 0.25751904088064004 1 I I 0 1 0.5 forward I I I I #
face $-1 $154 $155 $54 $-1 $156 reversed single #
loop $-1 $-1 $157 $70 #
plane-surface $-1 -94.743909186231264 -1.9074256660225437 82.713251051044594 0 1 0 -0.51503808176128008 0 0.85716729658548041 forward_v I I I I #
face $-1 $158 $159 $55 $-1 $160 forward single #
loop $-1 $161 $162 $71 #
cone-surface $-1 -39.196570227284781 0.19948213457660557 6.0750081004341396 0.51503808176128008 0 -0.85716729658548041 0.4285836482927402 0 0.25751904088064004 1 I I 0 1 0.5 forward I I I I #
face $-1 $163 $164 $56 $-1 $165 forward single #
loop $-1 $166 $167 $72 #
cone-surface $-1 -39.196570227284781 3.3598438354753384 6.0750081004341396 0.51503808176128008 0 -0.85716729658548041 0.4285836482927402 0 0.25751904088064004 1 I I 0 1 0.5 forward I I I I #
face $-1 $168 $169 $57 $-1 $170 reversed single #
loop $-1 $-1 $171 $73 #
plane-surface $-1 -94.743909186231264 10.449426867754656 82.713251051044594 0 1 0 -0.51503808176128008 0 0.85716729658548041 forward_v I I I I #
face $-1 $172 $173 $58 $-1 $174 forward single #
loop $-1 $175 $176 $74 #
cone-surface $-1 -39.196570227284781 12.556334668353806 6.0750081004341396 0.51503808176128008 0 -0.85716729658548041 0.4285836482927402 0 0.25751904088064004 1 I I 0 1 0.5 forward I I I I #
face $-1 $177 $178 $59 $-1 $179 forward single #
loop $-1 $180 $181 $75 #
cone-surface $-1 -39.196570227284781 15.716696369252539 6.0750081004341396 0.51503808176128008 0 -0.85716729658548041 0.4285836482927402 0 0.25751904088064004 1 I I 0 1 0.5 forward I I I I #
face $-1 $182 $183 $60 $-1 $184 reversed single #
loop $-1 $-1 $185 $76 #
plane-surface $-1 28.298853056499077 -8.1662653626537711 136.26800956225392 0 -1 0 -0.6018150307709319 0 -0.79863550430605224 forward_v I I I I #
face $-1 $186 $187 $61 $-1 $188 forward single #
loop $-1 $189 $190 $77 #
cone-surface $-1 42.31869529643815 -17.030815817714686 7.4260043596912055 -0.6018150307709319 0 -0.79863550430605224 0.79863550430605224 0 -0.6018150307709319 1 I I 0 1 1 forward I I I I #
face $-1 $191 $192 $62 $-1 $193 forward single #
loop $-1 $194 $195 $78 #
cone-surface $-1 42.31869529643815 -13.706609397066842 7.4260043596912055 -0.6018150307709319 0 -0.79863550430605224 0.79863550430605224 0 -0.6018150307709319 1 I I 0 1 1 forward I I I I #
face $-1 $196 $197 $63 $-1 $198 forward single #
loop $-1 $199 $200 $79 #
cone-surface $-1 42.31869529643815 -10.382402976418998 7.4260043596912055 -0.6018150307709319 0 -0.79863550430605224 0.79863550430605224 0 -0.6018150307709319 1 I I 0 1 1 forward I I I I #
face $-1 $201 $202 $48 $-1 $203 reversed single #
loop $-1 $-1 $204 $80 #
plane-surface $-1 0 0 -11.091661852183478 0 0 1 1 0 0 forward_v I I I I #
coedge $-1 $205 $206 $207 $208 forward $81 $-1 #
face $-1 $209 $210 $49 $-1 $211 forward single #
loop $-1 $-1 $212 $83 #
plane-surface $-1 -42.682245299216483 -23.835026278980802 0 -1 0 0 0 0 1 forward_v I I I I #
coedge $-1 $213 $214 $215 $216 forward $84 $-1 #
face $-1 $217 $218 $50 $-1 $219 forward single #
loop $-1 $-1 $220 $86 #
plane-surface $-1 46.670125431073949 0 0 -1 0 0 0 0 1 forward_v I I I I #
coedge $-1 $221 $222 $223 $224 forward $87 $-1 #
face $-1 $225 $226 $51 $-1 $227 reversed single #
loop $-1 $-1 $228 $89 #
plane-surface $-1 -46.670125431073942 -10.577189548751228 2.7050405569267184 -0.51503808176128008 0 0.85716729658548041 0.85716729658548041 0 0.51503808176128008 forward_v I I I I #
coedge $-1 $229 $230 $231 $232 reversed $90 $-1 #
face $-1 $-1 $233 $52 $-1 $234 forward single #
loop $-1 $235 $236 $92 #
cone-surface $-1 -38.57309625067348 -12.157370399200591 5.0373731721668129 0.51503808176128008 0 -0.85716729658548041 0.2142918241463701 0 0.12875952044032002 1 I I -0.70710678118654746 0.70710678118654746 0.25 forward I I I I #
loop $-1 $-1 $237 $68 #
coedge $-1 $148 $148 $238 $239 reversed $93 $-1 #
face $-1 $-1 $240 $53 $-1 $241 forward single #
loop $-1 $242 $243 $95 #
cone-surface $-1 -38.57309625067348 -8.9970086983018618 5.0373731721668129 0.51503808176128008 0 -0.85716729658548041 0.2142918241463701 0 0.12875952044032002 1 I I -0.70710678118654746 0.70710678118654746 0.25 forward I I I I #
loop $-1 $-1 $244 $69 #
coedge $-1 $153 $153 $245 $246 reversed $96 $-1 #
face $-1 $247 $248 $54 $-1 $249 reversed single #
loop $-1 $-1 $250 $98 #
plane-surface $-1 -46.670125431073942 1.779662985025972 2.7050405569267184 -0.51503808176128008 0 0.85716729658548041 0.85716729658548041 0 0.51503808176128008 forward_v I I I I #
coedge $-1 $251 $252 $253 $254 reversed $99 $-1 #
face $-1 $-1 $255 $55 $-1 $256 forward single #
loop $-1 $257 $258 $101 #
cone-surface $-1 -38.57309625067348 0.19948213457660557 5.0373731721668129 0.51503808176128008 0 -0.85716729658548041 0.2142918241463701 0 0.12875952044032002 1 I I -0.70710678118654746 0.70710678118654746 0.25 forward I I I I #
loop $-1 $-1 $259 $71 #
coedge $-1 $162 $162 $260 $261 reversed $102 $-1 #
face $-1 $-1 $262 $56 $-1 $263 forward single #
loop $-1 $264 $265 $104 #
cone-surface $-1 -38.57309625067348 3.3598438354753384 5.0373731721668129 0.51503808176128008 0 -0.85716729658548041 0.2142918241463701 0 0.12875952044032002 1 I I -0.70710678118654746 0.70710678118654746 0.25 forward I I I I #
loop $-1 $-1 $266 $72 #
coedge $-1 $167 $167 $267 $268 reversed $105 $-1 #
face $-1 $269 $270 $57 $-1 $271 reversed single #
loop $-1 $-1 $272 $107 #
plane-surface $-1 -46.670125431073942 14.136515518803172 2.7050405569267184 -0.51503808176128008 0 0.85716729658548041 0.85716729658548041 0 0.51503808176128008 forward_v I I I I #
coedge $-1 $273 $274 $275 $276 reversed $108 $-1 #
face $-1 $-1 $277 $58 $-1 $278 forward single #
loop $-1 $279 $280 $110 #
cone-surface $-1 -38.57309625067348 12.556334668353806 5.0373731721668129 0.51503808176128008 0 -0.85716729658548041 0.2142918241463701 0 0.12875952044032002 1 I I -0.70710678118654746 0.70710678118654746 0.25 forward I I I I #
loop $-1 $-1 $281 $74 #
coedge $-1 $176 $176 $282 $283 reversed $111 $-1 #
face $-1 $-1 $284 $59 $-1 $285 forward single #
loop $-1 $286 $287 $113 #
cone-surface $-1 -38.57309625067348 15.716696369252539 5.0373731721668129 0.51503808176128008 0 -0.85716729658548041 0.2142918241463701 0 0.12875952044032002 1 I I -0.70710678118654746 0.70710678118654746 0.25 forward I I I I #
loop $-1 $-1 $288 $75 #
coedge $-1 $181 $181 $289 $290 reversed $114 $-1 #
face $-1 $291 $292 $60 $-1 $293 reversed single #
loop $-1 $-1 $294 $116 #
plane-surface $-1 -27.874712888270963 -13.706609397066842 61.723171242909004 0.6018150307709319 0 0.79863550430605224 0.79863550430605224 0 -0.6018150307709319 forward_v I I I I #
coedge $-1 $295 $296 $297 $298 reversed $117 $-1 #
face $-1 $-1 $299 $61 $-1 $300 forward single #
loop $-1 $301 $302 $119 #
cone-surface $-1 41.343636299013973 -17.030815817714686 6.1320573920681696 -0.6018150307709319 0 -0.79863550430605224 0.39931775215302612 0 -0.30090751538546595 1 I I -0.70710678118654746 0.70710678118654746 0.5 forward I I I I #
loop $-1 $-1 $303 $77 #
coedge $-1 $190 $190 $304 $305 reversed $120 $-1 #
face $-1 $-1 $306 $62 $-1 $307 forward single #
loop $-1 $308 $309 $122 #
cone-surface $-1 41.343636299013973 -13.706609397066842 6.1320573920681696 -0.6018150307709319 0 -0.79863550430605224 0.39931775215302612 0 -0.30090751538546595 1 I I -0.70710678118654746 0.70710678118654746 0.5 forward I I I I #
loop $-1 $-1 $310 $78 #
coedge $-1 $195 $195 $311 $312 reversed $123 $-1 #
face $-1 $-1 $313 $63 $-1 $314 forward single #
loop $-1 $315 $316 $125 #
cone-surface $-1 41.343636299013973 -10.382402976418998 6.1320573920681696 -0.6018150307709319 0 -0.79863550430605224 0.39931775215302612 0 -0.30090751538546595 1 I I -0.70710678118654746 0.70710678118654746 0.5 forward I I I I #
loop $-1 $-1 $317 $79 #
coedge $-1 $200 $200 $318 $319 reversed $126 $-1 #
face $-1 $320 $321 $48 $-1 $322 reversed single #
loop $-1 $-1 $323 $128 #
plane-surface $-1 0 -28.423099126481688 0 0 1 0 0 0 1 forward_v I I I I #
coedge $-1 $324 $325 $326 $327 forward $129 $-1 #
coedge $-1 $328 $131 $329 $330 forward $81 $-1 #
coedge $-1 $131 $328 $331 $332 forward $81 $-1 #
coedge $-1 $333 $334 $131 $208 reversed $335 $-1 #
edge $-1 $336 -28.423099126481688 $337 28.423099126481688 $207 $338 forward 7 unknown #
face $-1 $339 $340 $49 $-1 $341 reversed single #
loop $-1 $-1 $342 $132 #
plane-surface $-1 0 0 11.091661852183478 0 0 1 1 0 0 forward_v I I I I #
coedge $-1 $343 $344 $345 $346 reversed $133 $-1 #
coedge $-1 $347 $135 $348 $349 reversed $84 $-1 #
coedge $-1 $135 $347 $350 $351 reversed $84 $-1 #
coedge $-1 $344 $343 $135 $216 reversed $133 $-1 #
edge $-1 $352 -11.091661852183478 $353 11.091661852183478 $215 $354 forward 7 unknown #
face $-1 $355 $356 $50 $-1 $357 reversed single #
loop $-1 $-1 $358 $136 #
plane-surface $-1 0 33.722846604796693 4.2138370016050608 0 0 1 1 0 0 forward_v I I I I #
coedge $-1 $359 $360 $222 $361 forward $137 $-1 #
coedge $-1 $362 $139 $363 $364 reversed $87 $-1 #
coedge $-1 $139 $362 $220 $361 reversed $87 $-1 #
coedge $-1 $358 $365 $139 $224 reversed $218 $-1 #
edge $-1 $366 -46.670125431073949 $367 46.670125431073949 $223 $368 forward 7 unknown #
face $-1 $369 $370 $51 $-1 $371 reversed single #
loop $-1 $-1 $372 $140 #
plane-surface $-1 -94.743909186231264 -6.8901008977027125 82.713251051044594 0 -1 0 0.51503808176128008 0 -0.85716729658548041 forward_v I I I I #
coedge $-1 $373 $374 $375 $376 reversed $141 $-1 #
coedge $-1 $230 $143 $377 $378 reversed $90 $-1 #
coedge $-1 $143 $229 $373 $379 reversed $90 $-1 #
coedge $-1 $375 $380 $143 $232 forward $381 $-1 #
edge $-1 $382 0.70182916204168322 $383 14.659510657278062 $231 $384 forward 7 unknown #
loop $-1 $-1 $238 $144 #
plane-surface $-1 -46.670125431073942 -10.577189548751228 2.7050405569267184 -0.51503808176128008 0 0.85716729658548041 0.85716729658548041 0 0.51503808176128008 forward_v I I I I #
loop $-1 $-1 $385 $92 #
coedge $-1 $236 $236 $237 $386 reversed $145 $-1 #
coedge $-1 $237 $237 $236 $386 forward $147 $-1 #
coedge $-1 $238 $238 $148 $239 forward $233 $-1 #
edge $-1 $387 0 $387 6.2831853071796004 $238 $388 forward 7 unknown #
loop $-1 $-1 $245 $149 #
plane-surface $-1 -46.670125431073942 -10.577189548751228 2.7050405569267184 -0.51503808176128008 0 0.85716729658548041 0.85716729658548041 0 0.51503808176128008 forward_v I I I I #
loop $-1 $-1 $389 $95 #
coedge $-1 $243 $243 $244 $390 reversed $150 $-1 #
coedge $-1 $244 $244 $243 $390 forward $152 $-1 #
coedge $-1 $245 $245 $153 $246 forward $240 $-1 #
edge $-1 $391 0 $391 6.2831853071796004 $245 $392 forward 7 unknown #
face $-1 $393 $394 $54 $-1 $395 forward single #
loop $-1 $-1 $396 $154 #
plane-surface $-1 -94.743909186231264 5.4667516360744877 82.713251051044594 0 -1 0 0.51503808176128008 0 -0.85716729658548041 forward_v I I I I #
coedge $-1 $397 $398 $399 $400 reversed $155 $-1 #
coedge $-1 $252 $157 $401 $402 reversed $99 $-1 #
coedge $-1 $157 $251 $397 $403 reversed $99 $-1 #
coedge $-1 $399 $404 $157 $254 forward $394 $-1 #
edge $-1 $405 0.70182916204168322 $406 14.659510657278062 $253 $407 forward 7 unknown #
loop $-1 $-1 $260 $158 #
plane-surface $-1 -46.670125431073942 1.779662985025972 2.7050405569267184 -0.51503808176128008 0 0.85716729658548041 0.85716729658548041 0 0.51503808176128008 forward_v I I I I #
loop $-1 $-1 $408 $101 #
coedge $-1 $258 $258 $259 $409 reversed $159 $-1 #
coedge $-1 $259 $259 $258 $409 forward $161 $-1 #
coedge $-1 $260 $260 $162 $261 forward $255 $-1 #
edge $-1 $410 0 $410 6.2831853071796004 $260 $411 forward 7 unknown #
loop $-1 $-1 $267 $163 #
plane-surface $-1 -46.670125431073942 1.779662985025972 2.7050405569267184 -0.51503808176128008 0 0.85716729658548041 0.85716729658548041 0 0.51503808176128008 forward_v I I I I #
loop $-1 $-1 $412 $104 #
coedge $-1 $265 $265 $266 $413 reversed $164 $-1 #
coedge $-1 $266 $266 $265 $413 forward $166 $-1 #
coedge $-1 $267 $267 $167 $268 forward $262 $-1 #
edge $-1 $414 0 $414 6.2831853071796004 $267 $415 forward 7 unknown #
face $-1 $416 $417 $57 $-1 $418 forward single #
loop $-1 $-1 $419 $168 #
plane-surface $-1 -94.743909186231264 17.823604169851688 82.713251051044594 0 -1 0 0.51503808176128008 0 -0.85716729658548041 forward_v I I I I #
coedge $-1 $420 $421 $422 $423 reversed $169 $-1 #
coedge $-1 $274 $171 $424 $425 reversed $108 $-1 #
coedge $-1 $171 $273 $420 $426 reversed $108 $-1 #
coedge $-1 $422 $427 $171 $276 forward $417 $-1 #
edge $-1 $428 0.70182916204168322 $429 14.659510657278062 $275 $430 forward 7 unknown #
loop $-1 $-1 $282 $172 #
plane-surface $-1 -46.670125431073942 14.136515518803172 2.7050405569267184 -0.51503808176128008 0 0.85716729658548041 0.85716729658548041 0 0.51503808176128008 forward_v I I I I #
loop $-1 $-1 $431 $110 #
coedge $-1 $280 $280 $281 $432 reversed $173 $-1 #
coedge $-1 $281 $281 $280 $432 forward $175 $-1 #
coedge $-1 $282 $282 $176 $283 forward $277 $-1 #
edge $-1 $433 0 $433 6.2831853071796004 $282 $434 forward 7 unknown #
loop $-1 $-1 $289 $177 #
plane-surface $-1 -46.670125431073942 14.136515518803172 2.7050405569267184 -0.51503808176128008 0 0.85716729658548041 0.85716729658548041 0 0.51503808176128008 forward_v I I I I #
loop $-1 $-1 $435 $113 #
coedge $-1 $287 $287 $288 $436 reversed $178 $-1 #
coedge $-1 $288 $288 $287 $436 forward $180 $-1 #
coedge $-1 $289 $289 $181 $290 forward $284 $-1 #
edge $-1 $437 0 $437 6.2831853071796004 $289 $438 forward 7 unknown #
face $-1 $439 $440 $60 $-1 $441 forward single #
loop $-1 $-1 $442 $182 #
plane-surface $-1 28.298853056499077 -19.246953431479913 136.26800956225392 0 1 0 0.6018150307709319 0 0.79863550430605224 forward_v I I I I #
coedge $-1 $443 $444 $445 $446 reversed $183 $-1 #
coedge $-1 $296 $185 $447 $448 reversed $117 $-1 #
coedge $-1 $185 $295 $443 $449 reversed $117 $-1 #
coedge $-1 $445 $450 $185 $298 forward $440 $-1 #
edge $-1 $451 -32.520698902824407 $452 -25.166141597630254 $297 $453 forward 7 unknown #
loop $-1 $-1 $304 $186 #
plane-surface $-1 -27.874712888270963 -13.706609397066842 61.723171242909004 0.6018150307709319 0 0.79863550430605224 0.79863550430605224 0 -0.6018150307709319 forward_v I I I I #
loop $-1 $-1 $454 $119 #
coedge $-1 $302 $302 $303 $455 reversed $187 $-1 #
coedge $-1 $303 $303 $302 $455 forward $189 $-1 #
coedge $-1 $304 $304 $190 $305 forward $299 $-1 #
edge $-1 $456 0 $456 6.2831853071796004 $304 $457 forward 7 unknown #
loop $-1 $-1 $311 $191 #
plane-surface $-1 -27.874712888270963 -13.706609397066842 61.723171242909004 0.6018150307709319 0 0.79863550430605224 0.79863550430605224 0 -0.6018150307709319 forward_v I I I I #
loop $-1 $-1 $458 $122 #
coedge $-1 $309 $309 $310 $459 reversed $192 $-1 #
coedge $-1 $310 $310 $309 $459 forward $194 $-1 #
coedge $-1 $311 $311 $195 $312 forward $306 $-1 #
edge $-1 $460 0 $460 6.2831853071796004 $311 $461 forward 7 unknown #
loop $-1 $-1 $318 $196 #
plane-surface $-1 -27.874712888270963 -13.706609397066842 61.723171242909004 0.6018150307709319 0 0.79863550430605224 0.79863550430605224 0 -0.6018150307709319 forward_v I I I I #
loop $-1 $-1 $462 $125 #
coedge $-1 $316 $316 $317 $463 reversed $197 $-1 #
coedge $-1 $317 $317 $316 $463 forward $199 $-1 #
coedge $-1 $318 $318 $200 $319 forward $313 $-1 #
edge $-1 $464 0 $464 6.2831853071796004 $318 $465 forward 7 unknown #
face $-1 $466 $467 $48 $-1 $468 reversed single #
loop $-1 $-1 $469 $201 #
plane-surface $-1 -46.670125431073949 0 0 1 0 0 0 0 -1 forward_v I I I I #
coedge $-1 $470 $331 $471 $472 forward $202 $-1 #
coedge $-1 $473 $204 $470 $474 forward $129 $-1 #
coedge $-1 $204 $473 $475 $476 forward $129 $-1 #
coedge $-1 $334 $333 $204 $327 reversed $335 $-1 #
edge $-1 $477 -28.423099126481688 $478 28.423099126481688 $326 $479 forward 7 unknown #
coedge $-1 $206 $205 $480 $481 forward $81 $-1 #
coedge $-1 $482 $483 $205 $330 reversed $467 $-1 #
edge $-1 $337 -46.670125431073949 $484 46.670125431073949 $329 $485 forward 7 unknown #
coedge $-1 $323 $486 $206 $332 reversed $202 $-1 #
edge $-1 $487 -46.670125431073949 $336 46.670125431073949 $331 $488 forward 7 unknown #
coedge $-1 $326 $207 $486 $489 forward $335 $-1 #
coedge $-1 $207 $326 $482 $490 reversed $335 $-1 #
loop $-1 $-1 $333 $466 #
vertex $-1 $208 $491 #
vertex $-1 $208 $492 #
straight-curve $-1 46.670125431073949 0 11.091661852183478 0 1 0 I I #
face $-1 $493 $494 $49 $-1 $495 reversed single #
loop $-1 $-1 $496 $209 #
plane-surface $-1 -46.670125431073949 0 0 1 0 0 0 0 -1 forward_v I I I I #
coedge $-1 $350 $497 $344 $498 forward $210 $-1 #
coedge $-1 $215 $212 $499 $500 reversed $133 $-1 #
coedge $-1 $212 $215 $342 $498 reversed $133 $-1 #
coedge $-1 $501 $502 $212 $346 forward $503 $-1 #
edge $-1 $504 -11.091661852183478 $505 11.091661852183478 $345 $506 forward 7 unknown #
coedge $-1 $214 $213 $496 $507 reversed $84 $-1 #
coedge $-1 $499 $508 $213 $349 forward $494 $-1 #
edge $-1 $509 -24.332032748501341 $353 -20.344152616643875 $348 $510 forward 7 unknown #
coedge $-1 $511 $342 $214 $351 forward $210 $-1 #
edge $-1 $352 20.344152616643875 $512 24.332032748501341 $350 $513 forward 7 unknown #
vertex $-1 $351 $514 #
vertex $-1 $349 $515 #
straight-curve $-1 -42.682245299216483 -19.246953431479916 0 0 0 -1 I I #
face $-1 $516 $517 $50 $-1 $518 reversed single #
loop $-1 $-1 $519 $217 #
plane-surface $-1 0 33.722846604796693 1.2138370016050608 0 0 1 1 0 0 forward_v I I I I #
coedge $-1 $520 $223 $360 $521 forward $218 $-1 #
coedge $-1 $522 $220 $519 $523 reversed $137 $-1 #
coedge $-1 $220 $522 $358 $521 reversed $137 $-1 #
edge $-1 $366 -4.2138370016050608 $524 -1.2138370016050608 $220 $525 forward 7 unknown #
coedge $-1 $222 $221 $526 $527 forward $87 $-1 #
coedge $-1 $528 $529 $221 $364 forward $530 $-1 #
edge $-1 $531 1.2138370016050608 $367 4.2138370016050608 $363 $532 forward 7 unknown #
coedge $-1 $223 $520 $528 $533 forward $218 $-1 #
vertex $-1 $361 $534 #
vertex $-1 $533 $535 #
straight-curve $-1 0 28.423099126481688 4.2138370016050608 -1 0 0 I I #
face $-1 $-1 $381 $51 $-1 $536 forward single #
loop $-1 $-1 $537 $225 #
plane-surface $-1 -46.670125431073949 0 0 1 0 0 0 0 -1 forward_v I I I I #
coedge $-1 $538 $539 $540 $541 reversed $226 $-1 #
coedge $-1 $542 $228 $230 $379 forward $141 $-1 #
coedge $-1 $228 $542 $538 $543 forward $141 $-1 #
coedge $-1 $540 $231 $228 $376 forward $381 $-1 #
edge $-1 $383 -8.9756834254241298 $544 -1.6015061233270984 $375 $545 forward 7 unknown #
coedge $-1 $546 $547 $229 $378 forward $370 $-1 #
edge $-1 $548 -38.651584968595586 $382 -30.264963673338819 $377 $549 forward 7 unknown #
edge $-1 $383 -16.283497458240291 $548 8.3777685069199533e-015 $230 $550 forward 7 unknown #
coedge $-1 $231 $540 $546 $551 forward $381 $-1 #
loop $-1 $-1 $540 $369 #
vertex $-1 $378 $552 #
vertex $-1 $232 $553 #
straight-curve $-1 -47.371954593115632 -14.264278199799744 11.091661852183478 1 0 0 I I #
coedge $-1 $385 $385 $-1 $554 reversed $235 $-1 #
edge $-1 $555 0 $555 6.2831853071796004 $236 $556 forward 7 unknown #
vertex $-1 $239 $557 #
ellipse-curve $-1 -39.691284683455763 -12.157370399200591 6.8983512045550945 -0.51503808176128008 0 0.85716729658548041 0.4285836482927402 0 0.25751904088064004 1 I I #
coedge $-1 $389 $389 $-1 $558 reversed $242 $-1 #
edge $-1 $559 0 $559 6.2831853071796004 $243 $560 forward 7 unknown #
vertex $-1 $246 $561 #
ellipse-curve $-1 -39.691284683455763 -8.9970086983018618 6.8983512045550945 -0.51503808176128008 0 0.85716729658548041 0.4285836482927402 0 0.25751904088064004 1 I I #
face $-1 $-1 $562 $54 $-1 $563 reversed single #
loop $-1 $-1 $253 $247 #
plane-surface $-1 0 0 11.091661852183478 0 0 1 1 0 0 forward_v I I I I #
coedge $-1 $564 $565 $566 $567 reversed $248 $-1 #
coedge $-1 $568 $250 $252 $403 forward $155 $-1 #
coedge $-1 $250 $568 $564 $569 forward $155 $-1 #
coedge $-1 $566 $253 $250 $400 forward $394 $-1 #
edge $-1 $406 -2.7972571585355297 $570 4.5769201435615017 $399 $571 forward 7 unknown #
coedge $-1 $572 $573 $251 $402 forward $562 $-1 #
edge $-1 $574 -38.651584968595586 $405 -30.264963673338819 $401 $575 forward 7 unknown #
edge $-1 $406 -16.283497458240291 $574 8.3777685069199533e-015 $252 $576 forward 7 unknown #
coedge $-1 $253 $566 $572 $577 forward $394 $-1 #
vertex $-1 $402 $578 #
vertex $-1 $254 $579 #
straight-curve $-1 -47.371954593115632 -1.9074256660225437 11.091661852183478 1 0 0 I I #
coedge $-1 $408 $408 $-1 $580 reversed $257 $-1 #
edge $-1 $581 0 $581 6.2831853071796004 $258 $582 forward 7 unknown #
vertex $-1 $261 $583 #
ellipse-curve $-1 -39.691284683455763 0.19948213457660557 6.8983512045550945 -0.51503808176128008 0 0.85716729658548041 0.4285836482927402 0 0.25751904088064004 1 I I #
coedge $-1 $412 $412 $-1 $584 reversed $264 $-1 #
edge $-1 $585 0 $585 6.2831853071796004 $265 $586 forward 7 unknown #
vertex $-1 $268 $587 #
ellipse-curve $-1 -39.691284683455763 3.3598438354753384 6.8983512045550945 -0.51503808176128008 0 0.85716729658548041 0.4285836482927402 0 0.25751904088064004 1 I I #
face $-1 $-1 $588 $57 $-1 $589 reversed single #
loop $-1 $-1 $275 $269 #
plane-surface $-1 0 0 11.091661852183478 0 0 1 1 0 0 forward_v I I I I #
coedge $-1 $590 $591 $592 $593 reversed $270 $-1 #
coedge $-1 $594 $272 $274 $426 forward $169 $-1 #
coedge $-1 $272 $594 $590 $595 forward $169 $-1 #
coedge $-1 $592 $275 $272 $423 forward $417 $-1 #
edge $-1 $429 3.3811691083530704 $596 10.755346410450102 $422 $597 forward 7 unknown #
coedge $-1 $598 $599 $273 $425 forward $588 $-1 #
edge $-1 $600 -38.651584968595586 $428 -30.264963673338819 $424 $601 forward 7 unknown #
edge $-1 $429 -16.283497458240291 $600 8.3777685069199533e-015 $274 $602 forward 7 unknown #
coedge $-1 $275 $592 $598 $603 forward $417 $-1 #
vertex $-1 $276 $604 #
vertex $-1 $276 $605 #
straight-curve $-1 -47.371954593115632 10.449426867754656 11.091661852183478 1 0 0 I I #
coedge $-1 $431 $431 $-1 $606 reversed $279 $-1 #
edge $-1 $607 0 $607 6.2831853071796004 $280 $608 forward 7 unknown #
vertex $-1 $283 $609 #
ellipse-curve $-1 -39.691284683455763 12.556334668353806 6.8983512045550945 -0.51503808176128008 0 0.85716729658548041 0.4285836482927402 0 0.25751904088064004 1 I I #
coedge $-1 $435 $435 $-1 $610 reversed $286 $-1 #
edge $-1 $611 0 $611 6.2831853071796004 $287 $612 forward 7 unknown #
vertex $-1 $290 $613 #
ellipse-curve $-1 -39.691284683455763 15.716696369252539 6.8983512045550945 -0.51503808176128008 0 0.85716729658548041 0.4285836482927402 0 0.25751904088064004 1 I I #
face $-1 $-1 $614 $60 $-1 $615 reversed single #
loop $-1 $-1 $297 $291 #
plane-surface $-1 0 0 11.091661852183478 0 0 1 1 0 0 forward_v I I I I #
coedge $-1 $616 $617 $618 $619 reversed $292 $-1 #
coedge $-1 $620 $294 $296 $449 forward $183 $-1 #
coedge $-1 $294 $620 $616 $621 forward $183 $-1 #
coedge $-1 $618 $297 $294 $446 forward $440 $-1 #
edge $-1 $452 1.3129606641203502 $622 12.393648732946492 $445 $623 forward 7 unknown #
coedge $-1 $624 $625 $295 $448 forward $614 $-1 #
edge $-1 $626 -62.58439948298799 $451 -57.042342928943484 $447 $627 forward 7 unknown #
edge $-1 $452 84.131347344159863 $626 93.340250862147897 $296 $628 forward 7 unknown #
coedge $-1 $297 $618 $624 $629 forward $440 $-1 #
vertex $-1 $298 $630 #
vertex $-1 $298 $631 #
straight-curve $-1 14.149426528249538 -8.1662653626537711 11.091661852183478 -1 0 0 I I #
coedge $-1 $454 $454 $-1 $632 reversed $301 $-1 #
edge $-1 $633 0 $633 6.2831853071796004 $302 $634 forward 7 unknown #
vertex $-1 $305 $635 #
ellipse-curve $-1 42.992846778476867 -17.030815817714686 8.3206335751612244 0.6018150307709319 0 0.79863550430605224 0.79863550430605224 0 -0.6018150307709319 1 I I #
coedge $-1 $458 $458 $-1 $636 reversed $308 $-1 #
edge $-1 $637 0 $637 6.2831853071796004 $309 $638 forward 7 unknown #
vertex $-1 $312 $639 #
ellipse-curve $-1 42.992846778476867 -13.706609397066842 8.3206335751612244 0.6018150307709319 0 0.79863550430605224 0.79863550430605224 0 -0.6018150307709319 1 I I #
coedge $-1 $462 $462 $-1 $640 reversed $315 $-1 #
edge $-1 $641 0 $641 6.2831853071796004 $316 $642 forward 7 unknown #
vertex $-1 $319 $643 #
ellipse-curve $-1 42.992846778476867 -10.382402976418998 8.3206335751612244 0.6018150307709319 0 0.79863550430605224 0.79863550430605224 0 -0.6018150307709319 1 I I #
face $-1 $-1 $335 $48 $-1 $644 reversed single #
loop $-1 $-1 $482 $320 #
plane-surface $-1 0 28.423099126481688 0 0 -1 0 0 0 -1 forward_v I I I I #
coedge $-1 $645 $480 $483 $646 forward $321 $-1 #
coedge $-1 $486 $323 $324 $474 reversed $202 $-1 #
coedge $-1 $480 $645 $323 $472 reversed $321 $-1 #
edge $-1 $487 -11.091661852183478 $647 11.091661852183478 $471 $648 forward 7 unknown #
coedge $-1 $325 $324 $645 $649 forward $129 $-1 #
edge $-1 $478 -46.670125431073949 $647 46.670125431073949 $470 $650 forward 7 unknown #
coedge $-1 $483 $482 $325 $476 reversed $467 $-1 #
edge $-1 $651 -46.670125431073949 $477 46.670125431073949 $475 $652 forward 7 unknown #
vertex $-1 $327 $653 #
vertex $-1 $489 $654 #
straight-curve $-1 46.670125431073949 0 -11.091661852183478 0 -1 0 I I #
coedge $-1 $469 $471 $328 $481 reversed $321 $-1 #
edge $-1 $484 -28.423099126481688 $487 28.423099126481688 $480 $655 forward 7 unknown #
coedge $-1 $475 $329 $334 $490 forward $467 $-1 #
coedge $-1 $329 $475 $469 $646 reversed $467 $-1 #
vertex $-1 $330 $656 #
straight-curve $-1 0 28.423099126481688 11.091661852183478 -1 0 0 I I #
coedge $-1 $331 $470 $333 $489 reversed $202 $-1 #
vertex $-1 $481 $657 #
straight-curve $-1 0 -28.423099126481688 11.091661852183478 1 0 0 I I #
edge $-1 $336 -11.091661852183478 $478 11.091661852183478 $333 $658 forward 7 unknown #
edge $-1 $337 -11.091661852183478 $477 11.091661852183478 $334 $659 forward 7 unknown #
point $-1 46.670125431073949 -28.423099126481688 11.091661852183478 #
point $-1 46.670125431073949 28.423099126481688 11.091661852183478 #
face $-1 $-1 $503 $49 $-1 $660 reversed single #
loop $-1 $-1 $499 $339 #
plane-surface $-1 0 0 -11.091661852183478 0 0 1 1 0 0 forward_v I I I I #
coedge $-1 $661 $662 $347 $507 forward $340 $-1 #
coedge $-1 $342 $511 $501 $663 forward $210 $-1 #
edge $-1 $505 -16.505585986991285 $352 -7.3294402919895152 $342 $664 forward 7 unknown #
coedge $-1 $665 $348 $343 $500 forward $494 $-1 #
edge $-1 $353 7.3294402919895152 $504 16.505585986991285 $499 $666 forward 7 unknown #
coedge $-1 $667 $345 $497 $663 reversed $503 $-1 #
coedge $-1 $345 $667 $665 $668 reversed $503 $-1 #
loop $-1 $-1 $345 $493 #
vertex $-1 $668 $669 #
vertex $-1 $346 $670 #
straight-curve $-1 -42.682245299216483 -28.423099126481688 0 0 0 1 I I #
edge $-1 $512 -11.091661852183478 $509 11.091661852183478 $496 $671 forward 7 unknown #
coedge $-1 $348 $665 $661 $672 forward $494 $-1 #
vertex $-1 $349 $673 #
straight-curve $-1 -22.338092682572608 -19.246953431479916 -11.091661852183478 1 0 0 I I #
coedge $-1 $497 $350 $662 $674 forward $210 $-1 #
vertex $-1 $674 $675 #
straight-curve $-1 -22.338092682572608 -19.246953431479916 11.091661852183478 -1 0 0 I I #
point $-1 -42.682245299216483 -19.246953431479916 11.091661852183478 #
point $-1 -42.682245299216483 -19.246953431479916 -11.091661852183478 #
face $-1 $-1 $530 $50 $-1 $676 reversed single #
loop $-1 $-1 $677 $355 #
plane-surface $-1 0 39.022594083111699 2.7138370016050608 0 -1 0 0 0 -1 forward_v I I I I #
coedge $-1 $526 $678 $359 $523 forward $356 $-1 #
coedge $-1 $365 $358 $679 $680 forward $218 $-1 #
edge $-1 $366 -5.2997474783150054 $681 5.2997474783150054 $360 $682 forward 7 unknown #
coedge $-1 $360 $359 $677 $683 reversed $137 $-1 #
edge $-1 $684 -5.2997474783150054 $524 5.2997474783150054 $359 $685 forward 7 unknown #
vertex $-1 $361 $686 #
straight-curve $-1 46.670125431073949 28.423099126481688 0 0 0 -1 I I #
coedge $-1 $687 $519 $362 $527 reversed $356 $-1 #
edge $-1 $531 -46.670125431073949 $524 46.670125431073949 $526 $688 forward 7 unknown #
coedge $-1 $689 $363 $365 $533 reversed $530 $-1 #
coedge $-1 $363 $689 $687 $690 reversed $530 $-1 #
loop $-1 $-1 $363 $516 #
vertex $-1 $364 $691 #
straight-curve $-1 -46.670125431073949 28.423099126481688 0 0 0 1 I I #
edge $-1 $692 -5.2997474783150054 $367 5.2997474783150054 $528 $693 forward 7 unknown #
point $-1 46.670125431073949 28.423099126481688 4.2138370016050608 #
point $-1 -46.670125431073949 28.423099126481688 4.2138370016050608 #
plane-surface $-1 0 0 11.091661852183478 0 0 1 1 0 0 forward_v I I I I #
coedge $-1 $547 $546 $539 $694 forward $370 $-1 #
coedge $-1 $539 $372 $374 $543 reversed $226 $-1 #
coedge $-1 $372 $538 $537 $694 reversed $226 $-1 #
coedge $-1 $380 $375 $372 $541 forward $381 $-1 #
edge $-1 $544 -14.659510657278062 $695 -0.70182916204168322 $540 $696 forward 7 unknown #
coedge $-1 $374 $373 $547 $697 reversed $141 $-1 #
edge $-1 $698 -8.3777685069199533e-015 $544 16.283497458240291 $538 $699 forward 7 unknown #
vertex $-1 $376 $700 #
straight-curve $-1 -32.71244393583757 -5.2885947743756141 11.091661852183478 0 1 0 I I #
coedge $-1 $537 $377 $380 $551 reversed $370 $-1 #
coedge $-1 $377 $537 $542 $697 forward $370 $-1 #
vertex $-1 $378 $701 #
straight-curve $-1 -46.670125431073949 -14.264278199799744 41.356625525522297 0 0 1 I I #
straight-curve $-1 -46.670125431073942 -14.264278199799744 2.7050405569267184 -0.85716729658548041 0 -0.51503808176128008 I I #
edge $-1 $695 6.8901008977027125 $382 14.264278199799744 $546 $702 forward 7 unknown #
point $-1 -46.670125431073949 -14.264278199799744 11.091661852183478 #
point $-1 -32.71244393583757 -14.264278199799744 11.091661852183478 #
edge $-1 $703 1 $703 0 $385 $-1 forward 7 unknown #
vertex $-1 $386 $704 #
ellipse-curve $-1 -38.701855771113799 -12.157370399200591 5.251664996313183 -0.51503808176128008 0 0.85716729658548041 0.4285836482927402 0 0.25751904088064004 1 I I #
point $-1 -39.262701035163019 -12.157370399200591 7.1558702454357377 #
edge $-1 $705 1 $705 0 $389 $-1 forward 7 unknown #
vertex $-1 $390 $706 #
ellipse-curve $-1 -38.701855771113799 -8.9970086983018618 5.251664996313183 -0.51503808176128008 0 0.85716729658548041 0.4285836482927402 0 0.25751904088064004 1 I I #
point $-1 -39.262701035163019 -8.9970086983018618 7.1558702454357377 #
loop $-1 $-1 $401 $393 #
plane-surface $-1 -46.670125431073949 0 0 1 0 0 0 0 -1 forward_v I I I I #
coedge $-1 $565 $396 $398 $569 reversed $248 $-1 #
coedge $-1 $396 $564 $707 $708 reversed $248 $-1 #
coedge $-1 $404 $399 $396 $567 forward $394 $-1 #
edge $-1 $570 -14.659510657278062 $709 -0.70182916204168322 $566 $710 forward 7 unknown #
coedge $-1 $398 $397 $573 $711 reversed $155 $-1 #
edge $-1 $712 -8.3777685069199533e-015 $570 16.283497458240291 $564 $713 forward 7 unknown #
vertex $-1 $400 $714 #
straight-curve $-1 -32.71244393583757 0.88983149251298599 11.091661852183478 0 1 0 I I #
coedge $-1 $707 $401 $404 $577 reversed $562 $-1 #
coedge $-1 $401 $707 $568 $711 forward $562 $-1 #
vertex $-1 $402 $715 #
straight-curve $-1 -46.670125431073949 -1.9074256660225437 41.356625525522297 0 0 1 I I #
straight-curve $-1 -46.670125431073942 -1.9074256660225437 2.7050405569267184 -0.85716729658548041 0 -0.51503808176128008 I I #
edge $-1 $709 -5.4667516360744877 $405 1.9074256660225437 $572 $716 forward 7 unknown #
point $-1 -46.670125431073949 -1.9074256660225437 11.091661852183478 #
point $-1 -32.71244393583757 -1.9074256660225437 11.091661852183478 #
edge $-1 $717 1 $717 0 $408 $-1 forward 7 unknown #
vertex $-1 $409 $718 #
ellipse-curve $-1 -38.701855771113799 0.19948213457660557 5.251664996313183 -0.51503808176128008 0 0.85716729658548041 0.4285836482927402 0 0.25751904088064004 1 I I #
point $-1 -39.262701035163019 0.19948213457660557 7.1558702454357377 #
edge $-1 $719 1 $719 0 $412 $-1 forward 7 unknown #
vertex $-1 $413 $720 #
ellipse-curve $-1 -38.701855771113799 3.3598438354753384 5.251664996313183 -0.51503808176128008 0 0.85716729658548041 0.4285836482927402 0 0.25751904088064004 1 I I #
point $-1 -39.262701035163019 3.3598438354753384 7.1558702454357377 #
loop $-1 $-1 $424 $416 #
plane-surface $-1 -46.670125431073949 0 0 1 0 0 0 0 -1 forward_v I I I I #
coedge $-1 $591 $419 $421 $595 reversed $270 $-1 #
coedge $-1 $419 $590 $721 $722 reversed $270 $-1 #
coedge $-1 $427 $422 $419 $593 forward $417 $-1 #
edge $-1 $596 -14.659510657278062 $723 -0.70182916204168322 $592 $724 forward 7 unknown #
coedge $-1 $421 $420 $599 $725 reversed $169 $-1 #
edge $-1 $726 -8.3777685069199533e-015 $596 16.283497458240291 $590 $727 forward 7 unknown #
vertex $-1 $423 $728 #
straight-curve $-1 -32.71244393583757 7.0682577594015861 11.091661852183478 0 1 0 I I #
coedge $-1 $721 $424 $427 $603 reversed $588 $-1 #
coedge $-1 $424 $721 $594 $725 forward $588 $-1 #
vertex $-1 $425 $729 #
straight-curve $-1 -46.670125431073949 10.449426867754656 41.356625525522297 0 0 1 I I #
straight-curve $-1 -46.670125431073942 10.449426867754656 2.7050405569267184 -0.85716729658548041 0 -0.51503808176128008 I I #
edge $-1 $723 -17.823604169851688 $428 -10.449426867754656 $598 $730 forward 7 unknown #
point $-1 -46.670125431073949 10.449426867754656 11.091661852183478 #
point $-1 -32.71244393583757 10.449426867754656 11.091661852183478 #
edge $-1 $731 1 $731 0 $431 $-1 forward 7 unknown #
vertex $-1 $432 $732 #
ellipse-curve $-1 -38.701855771113799 12.556334668353806 5.251664996313183 -0.51503808176128008 0 0.85716729658548041 0.4285836482927402 0 0.25751904088064004 1 I I #
point $-1 -39.262701035163019 12.556334668353806 7.1558702454357377 #
edge $-1 $733 1 $733 0 $435 $-1 forward 7 unknown #
vertex $-1 $436 $734 #
ellipse-curve $-1 -38.701855771113799 15.716696369252539 5.251664996313183 -0.51503808176128008 0 0.85716729658548041 0.4285836482927402 0 0.25751904088064004 1 I I #
point $-1 -39.262701035163019 15.716696369252539 7.1558702454357377 #
loop $-1 $-1 $447 $439 #
plane-surface $-1 46.670125431073949 0 0 -1 0 0 0 0 1 forward_v I I I I #
coedge $-1 $617 $442 $444 $621 reversed $292 $-1 #
coedge $-1 $442 $616 $735 $736 reversed $292 $-1 #
coedge $-1 $450 $445 $442 $619 forward $440 $-1 #
edge $-1 $622 25.166141597630254 $737 32.520698902824407 $618 $738 forward 7 unknown #
coedge $-1 $444 $443 $625 $739 reversed $183 $-1 #
edge $-1 $740 -93.340250862147897 $622 -84.131347344159863 $616 $741 forward 7 unknown #
vertex $-1 $446 $742 #
straight-curve $-1 39.315568125879786 -6.8533046985334209 11.091661852183478 0 -1 0 I I #
coedge $-1 $735 $447 $450 $629 reversed $614 $-1 #
coedge $-1 $447 $735 $620 $739 forward $614 $-1 #
vertex $-1 $448 $743 #
straight-curve $-1 46.670125431073949 -8.1662653626537711 68.134004781126961 0 0 1 I I #
straight-curve $-1 -27.874712888270963 -8.1662653626537711 61.723171242909004 0.79863550430605224 0 -0.6018150307709319 I I #
edge $-1 $737 -19.246953431479913 $451 -8.1662653626537711 $624 $744 forward 7 unknown #
point $-1 46.670125431073949 -8.1662653626537711 11.091661852183478 #
point $-1 39.315568125879793 -8.1662653626537711 11.091661852183478 #
edge $-1 $745 1 $745 0 $454 $-1 forward 7 unknown #
vertex $-1 $455 $746 #
ellipse-curve $-1 41.644543814399441 -17.030815817714686 6.5313751442211956 0.6018150307709319 0 0.79863550430605224 0.79863550430605224 0 -0.6018150307709319 1 I I #
point $-1 43.791482282782916 -17.030815817714686 7.7188185443902828 #
edge $-1 $747 1 $747 0 $458 $-1 forward 7 unknown #
vertex $-1 $459 $748 #
ellipse-curve $-1 41.644543814399441 -13.706609397066842 6.5313751442211956 0.6018150307709319 0 0.79863550430605224 0.79863550430605224 0 -0.6018150307709319 1 I I #
point $-1 43.791482282782916 -13.706609397066842 7.7188185443902828 #
edge $-1 $749 1 $749 0 $462 $-1 forward 7 unknown #
vertex $-1 $463 $750 #
ellipse-curve $-1 41.644543814399441 -10.382402976418998 6.5313751442211956 0.6018150307709319 0 0.79863550430605224 0.79863550430605224 0 -0.6018150307709319 1 I I #
point $-1 43.791482282782916 -10.382402976418998 7.7188185443902828 #
plane-surface $-1 46.670125431073949 0 0 -1 0 0 0 0 1 forward_v I I I I #
coedge $-1 $471 $469 $473 $649 reversed $321 $-1 #
edge $-1 $484 -11.091661852183478 $651 11.091661852183478 $483 $751 forward 7 unknown #
vertex $-1 $649 $752 #
straight-curve $-1 -46.670125431073949 -28.423099126481688 0 0 0 -1 I I #
edge $-1 $647 -28.423099126481688 $651 28.423099126481688 $645 $753 forward 7 unknown #
straight-curve $-1 0 -28.423099126481688 -11.091661852183478 -1 0 0 I I #
vertex $-1 $476 $754 #
straight-curve $-1 0 28.423099126481688 -11.091661852183478 1 0 0 I I #
point $-1 46.670125431073949 28.423099126481688 -11.091661852183478 #
point $-1 46.670125431073949 -28.423099126481688 -11.091661852183478 #
straight-curve $-1 -46.670125431073949 0 11.091661852183478 0 -1 0 I I #
point $-1 -46.670125431073949 28.423099126481688 11.091661852183478 #
point $-1 -46.670125431073949 -28.423099126481688 11.091661852183478 #
straight-curve $-1 46.670125431073949 -28.423099126481688 0 0 0 -1 I I #
straight-curve $-1 46.670125431073949 28.423099126481688 0 0 0 -1 I I #
plane-surface $-1 0 -28.423099126481688 0 0 1 0 0 0 1 forward_v I I I I #
coedge $-1 $755 $496 $508 $672 reversed $340 $-1 #
coedge $-1 $496 $755 $511 $674 reversed $340 $-1 #
edge $-1 $756 -46.670125431073949 $505 -42.682245299216483 $501 $757 forward 7 unknown #
straight-curve $-1 -42.682245299216483 -11.917513139490401 11.091661852183478 0 1 0 I I #
coedge $-1 $508 $499 $502 $668 forward $494 $-1 #
straight-curve $-1 -42.682245299216483 -11.917513139490401 -11.091661852183478 0 -1 0 I I #
coedge $-1 $502 $501 $755 $758 forward $503 $-1 #
edge $-1 $504 42.682245299216483 $759 46.670125431073949 $502 $760 forward 7 unknown #
point $-1 -42.682245299216483 -28.423099126481688 -11.091661852183478 #
point $-1 -42.682245299216483 -28.423099126481688 11.091661852183478 #
straight-curve $-1 -46.670125431073949 -19.246953431479916 0 0 0 -1 I I #
edge $-1 $759 -28.423099126481688 $509 -19.246953431479916 $661 $761 forward 7 unknown #
point $-1 -46.670125431073949 -19.246953431479916 -11.091661852183478 #
edge $-1 $512 19.246953431479916 $756 28.423099126481688 $662 $762 forward 7 unknown #
point $-1 -46.670125431073949 -19.246953431479916 11.091661852183478 #
plane-surface $-1 -46.670125431073949 0 0 1 0 0 0 0 -1 forward_v I I I I #
coedge $-1 $763 $679 $522 $683 forward $517 $-1 #
coedge $-1 $519 $687 $763 $764 forward $356 $-1 #
coedge $-1 $677 $765 $520 $680 reversed $517 $-1 #
edge $-1 $681 -46.670125431073949 $692 46.670125431073949 $679 $766 forward 7 unknown #
vertex $-1 $521 $767 #
straight-curve $-1 46.670125431073949 33.722846604796693 4.2138370016050608 0 1 0 I I #
edge $-1 $681 -1.5 $684 1.5 $522 $768 forward 7 unknown #
vertex $-1 $523 $769 #
straight-curve $-1 46.670125431073949 33.722846604796693 1.2138370016050608 0 -1 0 I I #
point $-1 46.670125431073949 28.423099126481688 1.2138370016050608 #
coedge $-1 $678 $526 $529 $690 forward $356 $-1 #
straight-curve $-1 0 28.423099126481688 1.2138370016050608 1 0 0 I I #
coedge $-1 $529 $528 $765 $770 forward $530 $-1 #
edge $-1 $531 -5.2997474783150054 $771 5.2997474783150054 $529 $772 forward 7 unknown #
point $-1 -46.670125431073949 28.423099126481688 1.2138370016050608 #
vertex $-1 $680 $773 #
straight-curve $-1 -46.670125431073949 33.722846604796693 4.2138370016050608 0 -1 0 I I #
edge $-1 $695 30.264963673338819 $698 38.651584968595586 $537 $774 forward 7 unknown #
vertex $-1 $551 $775 #
straight-curve $-1 -47.371954593115632 -6.8901008977027125 11.091661852183478 -1 0 0 I I #
edge $-1 $698 1.6015061233270984 $548 8.9756834254241298 $547 $776 forward 7 unknown #
vertex $-1 $697 $777 #
straight-curve $-1 -46.670125431073942 -6.8901008977027125 2.7050405569267184 0.85716729658548041 0 0.51503808176128008 I I #
point $-1 -32.71244393583757 -6.8901008977027125 11.091661852183478 #
point $-1 -46.670125431073949 -14.264278199799744 2.705040556926714 #
straight-curve $-1 -46.670125431073949 0 11.091661852183478 0 -1 0 I I #
vertex $-1 $554 $778 #
point $-1 -38.273272122821062 -12.157370399200591 5.5091840371938234 #
vertex $-1 $558 $779 #
point $-1 -38.273272122821062 -8.9970086983018618 5.5091840371938234 #
coedge $-1 $573 $572 $565 $708 forward $562 $-1 #
edge $-1 $709 30.264963673338819 $712 38.651584968595586 $707 $780 forward 7 unknown #
vertex $-1 $577 $781 #
straight-curve $-1 -47.371954593115632 5.4667516360744877 11.091661852183478 -1 0 0 I I #
edge $-1 $712 -4.5769201435615017 $574 2.7972571585355297 $573 $782 forward 7 unknown #
vertex $-1 $711 $783 #
straight-curve $-1 -46.670125431073942 5.4667516360744877 2.7050405569267184 0.85716729658548041 0 0.51503808176128008 I I #
point $-1 -32.71244393583757 5.4667516360744877 11.091661852183478 #
point $-1 -46.670125431073949 -1.9074256660225437 2.705040556926714 #
straight-curve $-1 -46.670125431073949 0 11.091661852183478 0 -1 0 I I #
vertex $-1 $580 $784 #
point $-1 -38.273272122821062 0.19948213457660557 5.5091840371938234 #
vertex $-1 $584 $785 #
point $-1 -38.273272122821062 3.3598438354753384 5.5091840371938234 #
coedge $-1 $599 $598 $591 $722 forward $588 $-1 #
edge $-1 $723 30.264963673338819 $726 38.651584968595586 $721 $786 forward 7 unknown #
vertex $-1 $603 $787 #
straight-curve $-1 -47.371954593115632 17.823604169851688 11.091661852183478 -1 0 0 I I #
edge $-1 $726 -10.755346410450102 $600 -3.3811691083530704 $599 $788 forward 7 unknown #
vertex $-1 $725 $789 #
straight-curve $-1 -46.670125431073942 17.823604169851688 2.7050405569267184 0.85716729658548041 0 0.51503808176128008 I I #
point $-1 -32.71244393583757 17.823604169851688 11.091661852183478 #
point $-1 -46.670125431073949 10.449426867754656 2.705040556926714 #
straight-curve $-1 -46.670125431073949 0 11.091661852183478 0 -1 0 I I #
vertex $-1 $606 $790 #
point $-1 -38.273272122821062 12.556334668353806 5.5091840371938234 #
vertex $-1 $610 $791 #
point $-1 -38.273272122821062 15.716696369252539 5.5091840371938234 #
coedge $-1 $625 $624 $617 $736 forward $614 $-1 #
edge $-1 $737 57.042342928943484 $740 62.58439948298799 $735 $792 forward 7 unknown #
vertex $-1 $629 $793 #
straight-curve $-1 14.149426528249538 -19.246953431479913 11.091661852183478 1 0 0 I I #
edge $-1 $740 -12.393648732946492 $626 -1.3129606641203502 $625 $794 forward 7 unknown #
vertex $-1 $739 $795 #
straight-curve $-1 -27.874712888270963 -19.246953431479913 61.723171242909004 -0.79863550430605224 0 0.6018150307709319 I I #
point $-1 39.315568125879793 -19.246953431479913 11.091661852183478 #
point $-1 46.670125431073942 -8.1662653626537711 5.549605298138971 #
straight-curve $-1 46.670125431073949 0 11.091661852183478 0 1 0 I I #
vertex $-1 $632 $796 #
point $-1 42.443179318705489 -17.030815817714686 5.9295601134502638 #
vertex $-1 $636 $797 #
point $-1 42.443179318705489 -13.706609397066842 5.9295601134502638 #
vertex $-1 $640 $798 #
point $-1 42.443179318705489 -10.382402976418998 5.9295601134502638 #
straight-curve $-1 -46.670125431073949 28.423099126481688 0 0 0 -1 I I #
point $-1 -46.670125431073949 -28.423099126481688 -11.091661852183478 #
straight-curve $-1 -46.670125431073949 0 -11.091661852183478 0 1 0 I I #
point $-1 -46.670125431073949 28.423099126481688 -11.091661852183478 #
coedge $-1 $662 $661 $667 $758 reversed $340 $-1 #
vertex $-1 $674 $799 #
straight-curve $-1 0 -28.423099126481688 11.091661852183478 1 0 0 I I #
edge $-1 $756 -11.091661852183478 $759 11.091661852183478 $755 $800 forward 7 unknown #
vertex $-1 $672 $801 #
straight-curve $-1 0 -28.423099126481688 -11.091661852183478 -1 0 0 I I #
straight-curve $-1 -46.670125431073949 0 -11.091661852183478 0 1 0 I I #
straight-curve $-1 -46.670125431073949 0 11.091661852183478 0 -1 0 I I #
coedge $-1 $765 $677 $678 $764 reversed $517 $-1 #
edge $-1 $771 -46.670125431073949 $684 46.670125431073949 $763 $802 forward 7 unknown #
coedge $-1 $679 $763 $689 $770 reversed $517 $-1 #
straight-curve $-1 0 39.022594083111699 4.2138370016050608 -1 0 0 I I #
point $-1 46.670125431073949 39.022594083111699 4.2138370016050608 #
straight-curve $-1 46.670125431073949 39.022594083111699 2.7138370016050608 0 0 -1 I I #
point $-1 46.670125431073949 39.022594083111699 1.2138370016050608 #
edge $-1 $692 -1.5 $771 1.5 $765 $803 forward 7 unknown #
vertex $-1 $764 $804 #
straight-curve $-1 -46.670125431073949 33.722846604796693 1.2138370016050608 0 1 0 I I #
point $-1 -46.670125431073949 39.022594083111699 4.2138370016050608 #
straight-curve $-1 -46.670125431073949 -6.8901008977027125 41.356625525522297 0 0 -1 I I #
point $-1 -46.670125431073949 -6.8901008977027125 11.091661852183478 #
straight-curve $-1 -46.670125431073949 -5.2885947743756141 2.7050405569267104 0 -1 0 I I #
point $-1 -46.670125431073949 -6.8901008977027125 2.705040556926714 #
point $-1 -38.444336730233161 -12.157370399200591 4.8230813480204429 #
point $-1 -38.444336730233161 -8.9970086983018618 4.8230813480204429 #
straight-curve $-1 -46.670125431073949 5.4667516360744877 41.356625525522297 0 0 -1 I I #
point $-1 -46.670125431073949 5.4667516360744877 11.091661852183478 #
straight-curve $-1 -46.670125431073949 0.88983149251298599 2.7050405569267104 0 -1 0 I I #
point $-1 -46.670125431073949 5.4667516360744877 2.705040556926714 #
point $-1 -38.444336730233161 0.19948213457660557 4.8230813480204429 #
point $-1 -38.444336730233161 3.3598438354753384 4.8230813480204429 #
straight-curve $-1 -46.670125431073949 17.823604169851688 41.356625525522297 0 0 -1 I I #
point $-1 -46.670125431073949 17.823604169851688 11.091661852183478 #
straight-curve $-1 -46.670125431073949 7.0682577594015861 2.7050405569267104 0 -1 0 I I #
point $-1 -46.670125431073949 17.823604169851688 2.705040556926714 #
point $-1 -38.444336730233161 12.556334668353806 4.8230813480204429 #
point $-1 -38.444336730233161 15.716696369252539 4.8230813480204429 #
straight-curve $-1 46.670125431073949 -19.246953431479913 68.134004781126961 0 0 -1 I I #
point $-1 46.670125431073949 -19.246953431479913 11.091661852183478 #
straight-curve $-1 46.670125431073942 -6.8533046985334209 5.549605298138971 0 1 0 I I #
point $-1 46.670125431073942 -19.246953431479913 5.549605298138971 #
point $-1 41.042728783628505 -17.030815817714686 5.7327396399151436 #
point $-1 41.042728783628505 -13.706609397066842 5.7327396399151436 #
point $-1 41.042728783628505 -10.382402976418998 5.7327396399151436 #
point $-1 -46.670125431073949 -28.423099126481688 11.091661852183478 #
straight-curve $-1 -46.670125431073949 -28.423099126481688 0 0 0 -1 I I #
point $-1 -46.670125431073949 -28.423099126481688 -11.091661852183478 #
straight-curve $-1 0 39.022594083111699 1.2138370016050608 1 0 0 I I #
straight-curve $-1 -46.670125431073949 39.022594083111699 2.7138370016050608 0 0 -1 I I #
point $-1 -46.670125431073949 39.022594083111699 1.2138370016050608 #
End-of-ACIS-data 