500 0 10 0           
7 Unknown 11 ACIS 5.0 NT 24 Fri Mar 26 19:50:43 1999 
-1 9.9999999999999995e-007 1e-010 
body $-1 $10 $-1 $11 #
body $-1 $12 $-1 $13 #
body $-1 $14 $-1 $15 #
body $-1 $16 $-1 $17 #
body $-1 $18 $-1 $19 #
body $-1 $20 $-1 $21 #
body $-1 $22 $-1 $23 #
body $-1 $24 $-1 $25 #
body $-1 $26 $-1 $27 #
body $-1 $28 $-1 $29 #
lump $-1 $-1 $30 $0 #
transform $-1 1 0 0 0 1 0 0 0 1 51.387066255684076 21.523068169385645 5.9535747939597048 1 rotate no_reflect no_shear #
lump $-1 $-1 $31 $1 #
transform $-1 1 0 0 0 1 0 0 0 1 51.387066255684076 21.523068169385645 5.9535747939597048 1 rotate no_reflect no_shear #
lump $-1 $-1 $32 $2 #
transform $-1 1 0 0 0 1 0 0 0 1 51.387066255684076 21.523068169385645 5.9535747939597048 1 rotate no_reflect no_shear #
lump $-1 $-1 $33 $3 #
transform $-1 1 0 0 0 1 0 0 0 1 51.387066255684076 21.523068169385645 5.9535747939597048 1 rotate no_reflect no_shear #
lump $-1 $-1 $34 $4 #
transform $-1 1 0 0 0 1 0 0 0 1 51.387066255684076 21.523068169385645 5.9535747939597048 1 rotate no_reflect no_shear #
lump $-1 $-1 $35 $5 #
transform $-1 1 0 0 0 1 0 0 0 1 51.387066255684076 21.523068169385645 5.9535747939597048 1 rotate no_reflect no_shear #
lump $-1 $-1 $36 $6 #
transform $-1 1 0 0 0 1 0 0 0 1 51.387066255684076 21.523068169385645 5.9535747939597048 1 rotate no_reflect no_shear #
lump $-1 $-1 $37 $7 #
transform $-1 1 0 0 0 1 0 0 0 1 51.387066255684076 21.523068169385645 5.9535747939597048 1 rotate no_reflect no_shear #
lump $-1 $-1 $38 $8 #
transform $-1 1 0 0 0 1 0 0 0 1 51.387066255684076 21.523068169385645 5.9535747939597048 1 rotate no_reflect no_shear #
lump $-1 $-1 $39 $9 #
transform $-1 1 0 0 0 1 0 0 0 1 51.387066255684076 21.523068169385645 5.9535747939597048 1 rotate no_reflect no_shear #
shell $-1 $-1 $-1 $40 $-1 $10 #
shell $-1 $-1 $-1 $41 $-1 $12 #
shell $-1 $-1 $-1 $42 $-1 $14 #
shell $-1 $-1 $-1 $43 $-1 $16 #
shell $-1 $-1 $-1 $44 $-1 $18 #
shell $-1 $-1 $-1 $45 $-1 $20 #
shell $-1 $-1 $-1 $46 $-1 $22 #
shell $-1 $-1 $-1 $47 $-1 $24 #
shell $-1 $-1 $-1 $48 $-1 $26 #
shell $-1 $-1 $-1 $49 $-1 $28 #
face $-1 $50 $51 $30 $-1 $52 forward single #
face $-1 $53 $54 $31 $-1 $55 reversed single #
face $-1 $56 $57 $32 $-1 $58 reversed single #
face $-1 $59 $60 $33 $-1 $61 reversed single #
face $-1 $62 $63 $34 $-1 $64 forward single #
face $-1 $65 $66 $35 $-1 $67 forward single #
face $-1 $68 $69 $36 $-1 $70 forward single #
face $-1 $71 $72 $37 $-1 $73 reversed single #
face $-1 $74 $75 $38 $-1 $76 forward single #
face $-1 $77 $78 $39 $-1 $79 forward single #
face $-1 $80 $81 $30 $-1 $82 reversed single #
loop $-1 $-1 $83 $40 #
plane-surface $-1 0 0 5.9535747939597048 0 0 1 1 0 0 forward_v I I I I #
face $-1 $84 $85 $31 $-1 $86 reversed single #
loop $-1 $-1 $87 $41 #
plane-surface $-1 -48.556337398381956 0 2.9535747939597048 0 0 1 1 0 0 forward_v I I I I #
face $-1 $88 $89 $32 $-1 $90 reversed single #
loop $-1 $-1 $91 $42 #
plane-surface $-1 48.556337398381956 0 2.9535747939597048 0 0 1 1 0 0 forward_v I I I I #
face $-1 $92 $93 $33 $-1 $94 reversed single #
loop $-1 $-1 $95 $43 #
plane-surface $-1 -36.153610290833285 -0.64733046155377849 39.058455614211837 0 0.85716730853699208 0.51503806187062418 1 0 0 forward_v I I I I #
face $-1 $96 $97 $34 $-1 $98 forward single #
loop $-1 $99 $100 $44 #
cone-surface $-1 -41.89680924098122 19.94679999463715 3.7947020346783207 0 -0.85716730853699208 -0.51503806187062418 0.5 0 0 1 I I 0 1 0.5 forward I I I I #
face $-1 $101 $102 $35 $-1 $103 forward single #
loop $-1 $104 $105 $45 #
cone-surface $-1 -36.153610290833285 19.94679999463715 3.7947020346783207 0 -0.85716730853699208 -0.51503806187062418 0.5 0 0 1 I I 0 1 0.5 forward I I I I #
face $-1 $106 $107 $36 $-1 $108 forward single #
loop $-1 $109 $110 $46 #
cone-surface $-1 -30.410411340685354 19.94679999463715 3.7947020346783207 0 -0.85716730853699208 -0.51503806187062418 0.5 0 0 1 I I 0 1 0.5 forward I I I I #
face $-1 $111 $112 $37 $-1 $113 reversed single #
loop $-1 $-1 $114 $47 #
plane-surface $-1 -29.493694315544023 -87.585007955943382 80.209720023627753 -1 0 0 0 -0.64278761758704617 0.76604443648966558 forward_v I I I I #
face $-1 $115 $116 $38 $-1 $117 forward single #
loop $-1 $118 $119 $48 #
cone-surface $-1 -41.087918762355322 -17.652175686819437 2.2804589751294038 0 0.64278761758704617 -0.76604443648966558 1.5 0 0 1 I I 0 1 1.5 forward I I I I #
face $-1 $120 $121 $39 $-1 $122 forward single #
loop $-1 $123 $124 $49 #
cone-surface $-1 -34.13138409426854 -17.652175686819437 2.2804589751294038 0 0.64278761758704617 -0.76604443648966558 1.5 0 0 1 I I 0 1 1.5 forward I I I I #
face $-1 $125 $126 $30 $-1 $127 reversed single #
loop $-1 $-1 $128 $50 #
plane-surface $-1 0 0 -5.9535747939597048 0 0 1 1 0 0 forward_v I I I I #
coedge $-1 $129 $130 $131 $132 forward $51 $-1 #
face $-1 $133 $134 $31 $-1 $135 reversed single #
loop $-1 $-1 $136 $53 #
plane-surface $-1 -45.725608541079836 0 4.4535747939597048 -1 0 0 0 0 1 forward_v I I I I #
coedge $-1 $137 $138 $139 $140 forward $54 $-1 #
face $-1 $141 $142 $32 $-1 $143 forward single #
loop $-1 $-1 $144 $56 #
plane-surface $-1 45.725608541079836 0 4.4535747939597048 1 0 0 0 0 -1 forward_v I I I I #
coedge $-1 $145 $146 $147 $148 reversed $57 $-1 #
face $-1 $149 $150 $33 $-1 $151 reversed single #
loop $-1 $-1 $152 $59 #
plane-surface $-1 -26.581612040586727 87.447296090439835 91.991045633301596 -1 0 0 0 0.85716730853699208 0.51503806187062418 forward_v I I I I #
coedge $-1 $153 $154 $155 $156 reversed $60 $-1 #
face $-1 $-1 $157 $34 $-1 $158 forward single #
loop $-1 $159 $160 $62 #
cone-surface $-1 -41.89680924098122 19.295730059686655 3.4034997640137181 0 -0.85716730853699208 -0.51503806187062418 0.25 0 0 1 I I -0.70710678118654746 0.70710678118654746 0.25 forward I I I I #
loop $-1 $-1 $161 $44 #
coedge $-1 $100 $100 $162 $163 reversed $63 $-1 #
face $-1 $-1 $164 $35 $-1 $165 forward single #
loop $-1 $166 $167 $65 #
cone-surface $-1 -36.153610290833285 19.295730059686655 3.4034997640137181 0 -0.85716730853699208 -0.51503806187062418 0.25 0 0 1 I I -0.70710678118654746 0.70710678118654746 0.25 forward I I I I #
loop $-1 $-1 $168 $45 #
coedge $-1 $105 $105 $169 $170 reversed $66 $-1 #
face $-1 $-1 $171 $36 $-1 $172 forward single #
loop $-1 $173 $174 $68 #
cone-surface $-1 -30.410411340685354 19.295730059686655 3.4034997640137181 0 -0.85716730853699208 -0.51503806187062418 0.25 0 0 1 I I -0.70710678118654746 0.70710678118654746 0.25 forward I I I I #
loop $-1 $-1 $175 $46 #
coedge $-1 $110 $110 $176 $177 reversed $69 $-1 #
face $-1 $178 $179 $37 $-1 $180 forward single #
loop $-1 $-1 $181 $71 #
plane-surface $-1 -37.609651428311935 -21.523068169385667 1.4801675982425166 0 -0.64278761758704617 0.76604443648966558 1 0 0 forward_v I I I I #
coedge $-1 $182 $183 $184 $185 reversed $72 $-1 #
face $-1 $-1 $186 $38 $-1 $187 forward single #
loop $-1 $188 $189 $74 #
cone-surface $-1 -41.087918762355322 -15.964791983548444 0.26951342679045176 0 0.64278761758704617 -0.76604443648966558 0.75 0 0 1 I I -0.70710678118654757 0.70710678118654757 0.75 forward I I I I #
loop $-1 $-1 $190 $48 #
coedge $-1 $119 $119 $191 $192 reversed $75 $-1 #
face $-1 $-1 $193 $39 $-1 $194 forward single #
loop $-1 $195 $196 $77 #
cone-surface $-1 -34.13138409426854 -15.964791983548444 0.26951342679045176 0 0.64278761758704617 -0.76604443648966558 0.75 0 0 1 I I -0.70710678118654757 0.70710678118654757 0.75 forward I I I I #
loop $-1 $-1 $197 $49 #
coedge $-1 $124 $124 $198 $199 reversed $78 $-1 #
face $-1 $200 $201 $30 $-1 $202 reversed single #
loop $-1 $-1 $203 $80 #
plane-surface $-1 0 -21.523068169385645 0 0 1 0 0 0 1 forward_v I I I I #
coedge $-1 $204 $205 $206 $207 forward $81 $-1 #
coedge $-1 $208 $83 $209 $210 forward $51 $-1 #
coedge $-1 $83 $208 $211 $212 forward $51 $-1 #
coedge $-1 $213 $214 $83 $132 reversed $215 $-1 #
edge $-1 $216 -21.523068169385645 $217 21.523068169385645 $131 $218 forward 7 unknown #
face $-1 $219 $220 $31 $-1 $221 reversed single #
loop $-1 $-1 $222 $84 #
plane-surface $-1 0 21.523068169385645 0 0 -1 0 0 0 -1 forward_v I I I I #
coedge $-1 $139 $223 $224 $225 reversed $85 $-1 #
coedge $-1 $226 $87 $227 $228 reversed $54 $-1 #
coedge $-1 $87 $226 $229 $230 reversed $54 $-1 #
coedge $-1 $231 $136 $87 $140 reversed $85 $-1 #
edge $-1 $232 -21.523068169385645 $233 21.523068169385645 $139 $234 forward 7 unknown #
face $-1 $235 $236 $32 $-1 $237 reversed single #
loop $-1 $-1 $238 $88 #
plane-surface $-1 0 0 5.9535747939597048 0 0 1 1 0 0 forward_v I I I I #
coedge $-1 $239 $240 $241 $242 reversed $89 $-1 #
coedge $-1 $243 $91 $244 $245 reversed $57 $-1 #
coedge $-1 $91 $243 $246 $247 reversed $57 $-1 #
coedge $-1 $248 $249 $91 $148 forward $250 $-1 #
edge $-1 $251 -21.523068169385645 $252 21.523068169385645 $147 $253 forward 7 unknown #
face $-1 $254 $255 $33 $-1 $256 forward single #
loop $-1 $-1 $257 $92 #
plane-surface $-1 0 21.523068169385645 0 0 -1 0 0 0 -1 forward_v I I I I #
coedge $-1 $258 $259 $260 $261 reversed $93 $-1 #
coedge $-1 $262 $95 $263 $264 reversed $60 $-1 #
coedge $-1 $95 $262 $258 $265 forward $60 $-1 #
coedge $-1 $260 $266 $95 $156 forward $255 $-1 #
edge $-1 $267 -27.648803395663201 $268 -8.5048068951700841 $155 $269 forward 7 unknown #
loop $-1 $-1 $162 $96 #
plane-surface $-1 -36.153610290833285 -0.64733046155377849 39.058455614211837 0 0.85716730853699208 0.51503806187062418 1 0 0 forward_v I I I I #
loop $-1 $-1 $270 $62 #
coedge $-1 $160 $160 $161 $271 reversed $97 $-1 #
coedge $-1 $161 $161 $160 $271 forward $99 $-1 #
coedge $-1 $162 $162 $100 $163 forward $157 $-1 #
edge $-1 $272 1.2285910259226982e-015 $272 6.2831853071796013 $162 $273 forward 7 unknown #
loop $-1 $-1 $169 $101 #
plane-surface $-1 -36.153610290833285 -0.64733046155377849 39.058455614211837 0 0.85716730853699208 0.51503806187062418 1 0 0 forward_v I I I I #
loop $-1 $-1 $274 $65 #
coedge $-1 $167 $167 $168 $275 reversed $102 $-1 #
coedge $-1 $168 $168 $167 $275 forward $104 $-1 #
coedge $-1 $169 $169 $105 $170 forward $164 $-1 #
edge $-1 $276 1.2285910259226982e-015 $276 6.2831853071796013 $169 $277 forward 7 unknown #
loop $-1 $-1 $176 $106 #
plane-surface $-1 -36.153610290833285 -0.64733046155377849 39.058455614211837 0 0.85716730853699208 0.51503806187062418 1 0 0 forward_v I I I I #
loop $-1 $-1 $278 $68 #
coedge $-1 $174 $174 $175 $279 reversed $107 $-1 #
coedge $-1 $175 $175 $174 $279 forward $109 $-1 #
coedge $-1 $176 $176 $110 $177 forward $171 $-1 #
edge $-1 $280 1.2285910259226982e-015 $280 6.2831853071796013 $176 $281 forward 7 unknown #
face $-1 $282 $283 $37 $-1 $284 forward single #
loop $-1 $-1 $184 $111 #
plane-surface $-1 0 0 5.9535747939597048 0 0 1 1 0 0 forward_v I I I I #
coedge $-1 $285 $286 $287 $288 reversed $112 $-1 #
coedge $-1 $183 $114 $289 $290 reversed $72 $-1 #
coedge $-1 $114 $182 $285 $291 reversed $72 $-1 #
coedge $-1 $287 $292 $114 $185 forward $179 $-1 #
edge $-1 $293 22.269435808586046 $294 27.600634793557028 $184 $295 forward 7 unknown #
loop $-1 $-1 $191 $115 #
plane-surface $-1 -37.609651428311935 -21.523068169385667 1.4801675982425166 0 -0.64278761758704617 0.76604443648966558 1 0 0 forward_v I I I I #
loop $-1 $-1 $296 $74 #
coedge $-1 $189 $189 $190 $297 reversed $116 $-1 #
coedge $-1 $190 $190 $189 $297 forward $118 $-1 #
coedge $-1 $191 $191 $119 $192 forward $186 $-1 #
edge $-1 $298 1.3580265275191491e-015 $298 6.2831853071796022 $191 $299 forward 7 unknown #
loop $-1 $-1 $198 $120 #
plane-surface $-1 -37.609651428311935 -21.523068169385667 1.4801675982425166 0 -0.64278761758704617 0.76604443648966558 1 0 0 forward_v I I I I #
loop $-1 $-1 $300 $77 #
coedge $-1 $196 $196 $197 $301 reversed $121 $-1 #
coedge $-1 $197 $197 $196 $301 forward $123 $-1 #
coedge $-1 $198 $198 $124 $199 forward $193 $-1 #
edge $-1 $302 1.3580265275191491e-015 $302 6.2831853071796022 $198 $303 forward 7 unknown #
face $-1 $304 $305 $30 $-1 $306 reversed single #
loop $-1 $-1 $307 $125 #
plane-surface $-1 -51.387066255684076 0 0 1 0 0 0 0 -1 forward_v I I I I #
coedge $-1 $308 $211 $309 $310 forward $126 $-1 #
coedge $-1 $311 $128 $308 $312 forward $81 $-1 #
coedge $-1 $128 $311 $313 $314 forward $81 $-1 #
coedge $-1 $214 $213 $128 $207 reversed $215 $-1 #
edge $-1 $315 -21.523068169385645 $316 21.523068169385645 $206 $317 forward 7 unknown #
coedge $-1 $130 $129 $318 $319 forward $51 $-1 #
coedge $-1 $320 $321 $129 $210 reversed $305 $-1 #
edge $-1 $217 -51.387066255684076 $322 51.387066255684076 $209 $323 forward 7 unknown #
coedge $-1 $203 $324 $130 $212 reversed $126 $-1 #
edge $-1 $325 -51.387066255684076 $216 51.387066255684076 $211 $326 forward 7 unknown #
coedge $-1 $206 $131 $324 $327 forward $215 $-1 #
coedge $-1 $131 $206 $320 $328 reversed $215 $-1 #
loop $-1 $-1 $213 $304 #
vertex $-1 $132 $329 #
vertex $-1 $132 $330 #
straight-curve $-1 51.387066255684076 0 5.9535747939597048 0 1 0 I I #
face $-1 $331 $332 $31 $-1 $333 forward single #
loop $-1 $-1 $334 $133 #
plane-surface $-1 -51.387066255684076 0 0 1 0 0 0 0 -1 forward_v I I I I #
coedge $-1 $229 $335 $231 $336 forward $134 $-1 #
coedge $-1 $136 $231 $337 $338 reversed $85 $-1 #
coedge $-1 $339 $227 $136 $225 forward $340 $-1 #
edge $-1 $233 0.7267873969798524 $341 3.7267873969798524 $224 $342 forward 7 unknown #
coedge $-1 $138 $137 $334 $343 reversed $54 $-1 #
coedge $-1 $224 $344 $137 $228 forward $340 $-1 #
edge $-1 $345 -27.108897556493098 $233 -21.447439841888858 $227 $346 forward 7 unknown #
coedge $-1 $347 $222 $138 $230 forward $134 $-1 #
edge $-1 $232 21.447439841888858 $348 27.108897556493098 $229 $349 forward 7 unknown #
coedge $-1 $223 $139 $222 $336 reversed $85 $-1 #
vertex $-1 $230 $350 #
vertex $-1 $228 $351 #
straight-curve $-1 -45.725608541079836 0 2.9535747939597048 0 -1 0 I I #
face $-1 $352 $353 $32 $-1 $354 reversed single #
loop $-1 $-1 $355 $141 #
plane-surface $-1 0 -21.523068169385645 0 0 1 0 0 0 1 forward_v I I I I #
coedge $-1 $356 $357 $240 $358 forward $142 $-1 #
coedge $-1 $359 $144 $243 $360 reversed $89 $-1 #
coedge $-1 $144 $359 $238 $358 reversed $89 $-1 #
coedge $-1 $361 $246 $144 $242 forward $353 $-1 #
edge $-1 $362 0.7267873969798524 $363 3.7267873969798524 $241 $364 forward 7 unknown #
coedge $-1 $146 $145 $239 $360 forward $57 $-1 #
coedge $-1 $365 $355 $145 $245 forward $236 $-1 #
edge $-1 $366 21.447439841888858 $251 27.108897556493098 $244 $367 forward 7 unknown #
coedge $-1 $241 $368 $146 $247 forward $353 $-1 #
edge $-1 $252 -27.108897556493098 $362 -21.447439841888858 $246 $369 forward 7 unknown #
coedge $-1 $370 $147 $368 $371 reversed $250 $-1 #
coedge $-1 $147 $370 $365 $372 forward $250 $-1 #
loop $-1 $-1 $147 $352 #
vertex $-1 $245 $373 #
vertex $-1 $148 $374 #
straight-curve $-1 51.387066255684076 0 2.9535747939597048 0 1 0 I I #
face $-1 $-1 $375 $33 $-1 $376 forward single #
loop $-1 $-1 $260 $149 #
plane-surface $-1 0 0 5.9535747939597048 0 0 1 1 0 0 forward_v I I I I #
coedge $-1 $377 $378 $259 $379 forward $150 $-1 #
coedge $-1 $259 $152 $154 $265 reversed $93 $-1 #
coedge $-1 $152 $258 $257 $379 reversed $93 $-1 #
coedge $-1 $380 $155 $152 $261 forward $255 $-1 #
edge $-1 $268 -24.479560009698762 $381 -22.200579875834272 $260 $382 forward 7 unknown #
coedge $-1 $154 $153 $377 $383 reversed $60 $-1 #
coedge $-1 $384 $385 $153 $264 forward $375 $-1 #
edge $-1 $386 -28.04835014814762 $267 -23.623473032100684 $263 $387 forward 7 unknown #
edge $-1 $388 -43.046136338771319 $268 -38.621259222724383 $258 $389 forward 7 unknown #
coedge $-1 $155 $380 $384 $390 forward $255 $-1 #
vertex $-1 $264 $391 #
vertex $-1 $156 $392 #
straight-curve $-1 -18.076805145416643 19.244088035521152 5.953574793959703 1 0 0 I I #
coedge $-1 $270 $270 $-1 $393 reversed $159 $-1 #
edge $-1 $394 0 $394 6.2831853071796004 $160 $395 forward 7 unknown #
vertex $-1 $163 $396 #
ellipse-curve $-1 -41.89680924098122 20.383578102453392 4.0571447898752631 0 0.85716730853699208 0.51503806187062418 0.5 0 0 1 I I #
coedge $-1 $274 $274 $-1 $397 reversed $166 $-1 #
edge $-1 $398 0 $398 6.2831853071796004 $167 $399 forward 7 unknown #
vertex $-1 $170 $400 #
ellipse-curve $-1 -36.153610290833285 20.383578102453392 4.0571447898752631 0 0.85716730853699208 0.51503806187062418 0.5 0 0 1 I I #
coedge $-1 $278 $278 $-1 $401 reversed $173 $-1 #
edge $-1 $402 0 $402 6.2831853071796004 $174 $403 forward 7 unknown #
vertex $-1 $177 $404 #
ellipse-curve $-1 -30.410411340685354 20.383578102453392 4.0571447898752631 0 0.85716730853699208 0.51503806187062418 0.5 0 0 1 I I #
face $-1 $-1 $405 $37 $-1 $406 reversed single #
loop $-1 $-1 $407 $178 #
plane-surface $-1 -45.725608541079836 0 4.4535747939597048 -1 0 0 0 0 1 forward_v I I I I #
coedge $-1 $408 $181 $183 $291 forward $112 $-1 #
coedge $-1 $181 $408 $407 $409 forward $112 $-1 #
coedge $-1 $410 $184 $181 $288 forward $179 $-1 #
edge $-1 $294 10.688868601388055 $411 26.920782826923869 $287 $412 forward 7 unknown #
coedge $-1 $413 $414 $182 $290 forward $405 $-1 #
edge $-1 $415 -38.624692413571339 $293 -34.151285217854173 $289 $416 forward 7 unknown #
edge $-1 $294 -6.9593860760881894 $415 -2.7890148618938379e-014 $183 $417 forward 7 unknown #
coedge $-1 $184 $410 $413 $418 forward $179 $-1 #
vertex $-1 $290 $419 #
vertex $-1 $185 $420 #
straight-curve $-1 -29.493694315544023 -43.792503977971691 5.953574793959703 0 1 0 I I #
coedge $-1 $296 $296 $-1 $421 reversed $188 $-1 #
edge $-1 $422 0 $422 6.2831853071796004 $189 $423 forward 7 unknown #
vertex $-1 $192 $424 #
ellipse-curve $-1 -41.087918762355322 -18.857468676900154 3.7168711961011205 0 -0.64278761758704617 0.76604443648966558 1.5 0 0 1 I I #
coedge $-1 $300 $300 $-1 $425 reversed $195 $-1 #
edge $-1 $426 0 $426 6.2831853071796004 $196 $427 forward 7 unknown #
vertex $-1 $199 $428 #
ellipse-curve $-1 -34.13138409426854 -18.857468676900154 3.7168711961011205 0 -0.64278761758704617 0.76604443648966558 1.5 0 0 1 I I #
face $-1 $-1 $215 $30 $-1 $429 reversed single #
loop $-1 $-1 $320 $200 #
plane-surface $-1 0 21.523068169385645 0 0 -1 0 0 0 -1 forward_v I I I I #
coedge $-1 $430 $318 $321 $431 forward $201 $-1 #
coedge $-1 $324 $203 $204 $312 reversed $126 $-1 #
coedge $-1 $318 $430 $203 $310 reversed $201 $-1 #
edge $-1 $325 -5.9535747939597048 $432 5.9535747939597048 $309 $433 forward 7 unknown #
coedge $-1 $205 $204 $430 $434 forward $81 $-1 #
edge $-1 $316 -51.387066255684076 $432 51.387066255684076 $308 $435 forward 7 unknown #
coedge $-1 $321 $320 $205 $314 reversed $305 $-1 #
edge $-1 $436 -51.387066255684076 $315 51.387066255684076 $313 $437 forward 7 unknown #
vertex $-1 $207 $438 #
vertex $-1 $327 $439 #
straight-curve $-1 51.387066255684076 0 -5.9535747939597048 0 -1 0 I I #
coedge $-1 $307 $309 $208 $319 reversed $201 $-1 #
edge $-1 $322 -21.523068169385645 $325 21.523068169385645 $318 $440 forward 7 unknown #
coedge $-1 $313 $209 $214 $328 forward $305 $-1 #
coedge $-1 $209 $313 $307 $431 reversed $305 $-1 #
vertex $-1 $210 $441 #
straight-curve $-1 0 21.523068169385645 5.9535747939597048 -1 0 0 I I #
coedge $-1 $211 $308 $213 $327 reversed $126 $-1 #
vertex $-1 $319 $442 #
straight-curve $-1 0 -21.523068169385645 5.9535747939597048 1 0 0 I I #
edge $-1 $216 -5.9535747939597048 $316 5.9535747939597048 $213 $443 forward 7 unknown #
edge $-1 $217 -5.9535747939597048 $315 5.9535747939597048 $214 $444 forward 7 unknown #
point $-1 51.387066255684076 -21.523068169385645 5.9535747939597048 #
point $-1 51.387066255684076 21.523068169385645 5.9535747939597048 #
face $-1 $-1 $340 $31 $-1 $445 reversed single #
loop $-1 $-1 $337 $219 #
plane-surface $-1 0 0 5.9535747939597048 0 0 1 1 0 0 forward_v I I I I #
coedge $-1 $446 $447 $226 $343 forward $220 $-1 #
coedge $-1 $222 $347 $448 $449 reversed $134 $-1 #
edge $-1 $450 -3.7267873969798524 $232 -0.7267873969798524 $222 $451 forward 7 unknown #
coedge $-1 $448 $452 $223 $338 forward $332 $-1 #
edge $-1 $341 -21.523068169385645 $450 21.523068169385645 $337 $453 forward 7 unknown #
coedge $-1 $344 $224 $452 $454 reversed $340 $-1 #
loop $-1 $-1 $224 $331 #
vertex $-1 $225 $455 #
straight-curve $-1 -45.725608541079836 -21.523068169385645 2.2267873969798524 0 0 1 I I #
edge $-1 $348 -21.523068169385645 $345 21.523068169385645 $334 $456 forward 7 unknown #
coedge $-1 $227 $339 $446 $457 forward $340 $-1 #
vertex $-1 $343 $458 #
straight-curve $-1 -24.278168699190978 -21.523068169385645 2.9535747939597048 1 0 0 I I #
coedge $-1 $335 $229 $447 $459 reversed $134 $-1 #
vertex $-1 $343 $460 #
straight-curve $-1 -24.278168699190978 21.523068169385645 2.9535747939597048 -1 0 0 I I #
point $-1 -45.725608541079836 21.523068169385645 2.9535747939597048 #
point $-1 -45.725608541079836 -21.523068169385645 2.9535747939597048 #
face $-1 $-1 $250 $32 $-1 $461 reversed single #
loop $-1 $-1 $241 $235 #
plane-surface $-1 0 21.523068169385645 0 0 -1 0 0 0 -1 forward_v I I I I #
coedge $-1 $244 $462 $359 $463 forward $236 $-1 #
coedge $-1 $464 $238 $462 $465 forward $142 $-1 #
coedge $-1 $238 $464 $361 $466 forward $142 $-1 #
edge $-1 $363 -21.523068169385645 $467 21.523068169385645 $238 $468 forward 7 unknown #
coedge $-1 $240 $239 $355 $463 reversed $89 $-1 #
edge $-1 $366 -21.523068169385645 $362 21.523068169385645 $239 $469 forward 7 unknown #
coedge $-1 $368 $241 $357 $466 reversed $353 $-1 #
vertex $-1 $247 $470 #
vertex $-1 $242 $471 #
straight-curve $-1 45.725608541079836 21.523068169385645 2.2267873969798524 0 0 1 I I #
coedge $-1 $462 $244 $249 $372 reversed $236 $-1 #
vertex $-1 $245 $472 #
straight-curve $-1 24.278168699190978 -21.523068169385645 2.9535747939597048 1 0 0 I I #
coedge $-1 $246 $361 $248 $371 forward $353 $-1 #
straight-curve $-1 24.278168699190978 21.523068169385645 2.9535747939597048 -1 0 0 I I #
coedge $-1 $249 $248 $464 $473 reversed $250 $-1 #
edge $-1 $474 -5.9535747939597048 $252 -2.9535747939597048 $248 $475 forward 7 unknown #
edge $-1 $476 -5.9535747939597048 $251 -2.9535747939597048 $249 $477 forward 7 unknown #
point $-1 51.387066255684076 -21.523068169385645 2.9535747939597048 #
point $-1 51.387066255684076 21.523068169385645 2.9535747939597048 #
loop $-1 $-1 $263 $254 #
plane-surface $-1 -45.725608541079836 0 4.4535747939597048 -1 0 0 0 0 1 forward_v I I I I #
coedge $-1 $478 $257 $262 $383 forward $150 $-1 #
coedge $-1 $257 $478 $380 $479 reversed $150 $-1 #
edge $-1 $381 40.041948022691095 $388 43.834808030859975 $257 $480 forward 7 unknown #
coedge $-1 $266 $260 $378 $479 forward $255 $-1 #
vertex $-1 $479 $481 #
straight-curve $-1 -26.581612040586727 43.723648045219917 5.953574793959703 0 1 0 I I #
edge $-1 $388 8.5048068951700841 $386 27.648803395663201 $377 $482 forward 7 unknown #
coedge $-1 $385 $263 $266 $390 reversed $375 $-1 #
coedge $-1 $263 $384 $478 $483 reversed $375 $-1 #
vertex $-1 $483 $484 #
straight-curve $-1 -45.725608541079836 7.0771002704150581 26.202843591181662 0 -0.51503806187062429 0.85716730853699219 I I #
vertex $-1 $383 $485 #
straight-curve $-1 -26.581612040586727 -0.64733046155377849 39.058455614211837 0 -0.51503806187062418 0.85716730853699208 I I #
edge $-1 $486 -21.523068169385645 $267 -19.244088035521155 $266 $487 forward 7 unknown #
point $-1 -45.725608541079843 19.244088035521155 5.953574793959703 #
point $-1 -26.581612040586727 19.244088035521155 5.953574793959703 #
edge $-1 $488 1 $488 0 $270 $-1 forward 7 unknown #
vertex $-1 $271 $489 #
ellipse-curve $-1 -41.89680924098122 19.510021886820901 3.5322592794813743 0 0.85716730853699208 0.51503806187062418 0.5 0 0 1 I I #
point $-1 -41.39680924098122 20.383578102453399 4.0571447898752666 #
edge $-1 $490 1 $490 0 $274 $-1 forward 7 unknown #
vertex $-1 $275 $491 #
ellipse-curve $-1 -36.153610290833285 19.510021886820901 3.5322592794813743 0 0.85716730853699208 0.51503806187062418 0.5 0 0 1 I I #
point $-1 -35.653610290833285 20.383578102453399 4.0571447898752666 #
edge $-1 $492 1 $492 0 $278 $-1 forward 7 unknown #
vertex $-1 $279 $493 #
ellipse-curve $-1 -30.410411340685354 19.510021886820901 3.5322592794813743 0 0.85716730853699208 0.51503806187062418 0.5 0 0 1 I I #
point $-1 -29.910411340685354 20.383578102453399 4.0571447898752666 #
loop $-1 $-1 $289 $282 #
plane-surface $-1 0 -21.523068169385645 0 0 1 0 0 0 1 forward_v I I I I #
coedge $-1 $494 $495 $286 $409 reversed $283 $-1 #
coedge $-1 $286 $285 $414 $496 reversed $112 $-1 #
edge $-1 $497 2.7890148618938379e-014 $411 6.9593860760881867 $407 $498 forward 7 unknown #
coedge $-1 $292 $287 $495 $499 forward $179 $-1 #
vertex $-1 $499 $500 #
straight-curve $-1 -18.804825714155967 -16.191869184414667 5.9535747939597048 -1 0 0 I I #
coedge $-1 $501 $289 $292 $418 reversed $405 $-1 #
coedge $-1 $289 $501 $408 $496 forward $405 $-1 #
vertex $-1 $290 $502 #
straight-curve $-1 -29.493694315544023 -21.523068169385645 40.104860011813876 0 0 1 I I #
straight-curve $-1 -29.493694315544023 -21.523068169385667 1.4801675982425166 0 -0.76604443648966558 -0.64278761758704617 I I #
edge $-1 $503 -45.725608541079836 $293 -29.493694315544023 $413 $504 forward 7 unknown #
point $-1 -29.493694315544023 -21.523068169385645 5.9535747939597048 #
point $-1 -29.493694315544023 -16.191869184414664 5.9535747939597048 #
edge $-1 $505 1 $505 0 $296 $-1 forward 7 unknown #
vertex $-1 $297 $506 #
ellipse-curve $-1 -41.087918762355322 -16.446882696738729 0.84404675415770092 0 -0.64278761758704617 0.76604443648966558 1.5 0 0 1 I I #
point $-1 -39.587918762355322 -18.85746867690014 3.7168711961011067 #
edge $-1 $507 1 $507 0 $300 $-1 forward 7 unknown #
vertex $-1 $301 $508 #
ellipse-curve $-1 -34.13138409426854 -16.446882696738729 0.84404675415770092 0 -0.64278761758704617 0.76604443648966558 1.5 0 0 1 I I #
point $-1 -32.63138409426854 -18.85746867690014 3.7168711961011067 #
plane-surface $-1 51.387066255684076 0 0 -1 0 0 0 0 1 forward_v I I I I #
coedge $-1 $309 $307 $311 $434 reversed $201 $-1 #
edge $-1 $322 -5.9535747939597048 $436 5.9535747939597048 $321 $509 forward 7 unknown #
vertex $-1 $434 $510 #
straight-curve $-1 -51.387066255684076 -21.523068169385645 0 0 0 -1 I I #
edge $-1 $432 -21.523068169385645 $436 21.523068169385645 $430 $511 forward 7 unknown #
straight-curve $-1 0 -21.523068169385645 -5.9535747939597048 -1 0 0 I I #
vertex $-1 $314 $512 #
straight-curve $-1 0 21.523068169385645 -5.9535747939597048 1 0 0 I I #
point $-1 51.387066255684076 21.523068169385645 -5.9535747939597048 #
point $-1 51.387066255684076 -21.523068169385645 -5.9535747939597048 #
straight-curve $-1 -51.387066255684076 0 5.9535747939597048 0 -1 0 I I #
point $-1 -51.387066255684076 21.523068169385645 5.9535747939597048 #
point $-1 -51.387066255684076 -21.523068169385645 5.9535747939597048 #
straight-curve $-1 51.387066255684076 -21.523068169385645 0 0 0 -1 I I #
straight-curve $-1 51.387066255684076 21.523068169385645 0 0 0 -1 I I #
plane-surface $-1 0 -21.523068169385645 0 0 1 0 0 0 1 forward_v I I I I #
coedge $-1 $513 $334 $344 $457 reversed $220 $-1 #
coedge $-1 $334 $513 $347 $459 forward $220 $-1 #
coedge $-1 $514 $337 $335 $449 forward $332 $-1 #
edge $-1 $450 45.725608541079836 $515 51.387066255684076 $335 $516 forward 7 unknown #
vertex $-1 $449 $517 #
straight-curve $-1 -45.725608541079836 21.523068169385645 2.2267873969798524 0 0 -1 I I #
coedge $-1 $337 $514 $339 $454 forward $332 $-1 #
straight-curve $-1 -45.725608541079836 0 5.9535747939597048 0 1 0 I I #
edge $-1 $518 -51.387066255684076 $341 -45.725608541079836 $339 $519 forward 7 unknown #
point $-1 -45.725608541079836 -21.523068169385645 5.9535747939597048 #
straight-curve $-1 -51.387066255684076 0 2.9535747939597048 0 -1 0 I I #
edge $-1 $518 -5.9535747939597048 $345 -2.9535747939597048 $446 $520 forward 7 unknown #
point $-1 -51.387066255684076 -21.523068169385645 2.9535747939597048 #
edge $-1 $515 -5.9535747939597048 $348 -2.9535747939597048 $347 $521 forward 7 unknown #
point $-1 -51.387066255684076 21.523068169385645 2.9535747939597048 #
plane-surface $-1 51.387066255684076 0 0 -1 0 0 0 0 1 forward_v I I I I #
coedge $-1 $355 $365 $356 $465 reversed $236 $-1 #
edge $-1 $467 -3.7267873969798524 $366 -0.7267873969798524 $355 $522 forward 7 unknown #
coedge $-1 $357 $356 $370 $473 forward $142 $-1 #
edge $-1 $467 45.725608541079836 $476 51.387066255684076 $462 $523 forward 7 unknown #
edge $-1 $474 -51.387066255684076 $363 -45.725608541079836 $361 $524 forward 7 unknown #
vertex $-1 $465 $525 #
straight-curve $-1 45.725608541079836 0 5.9535747939597048 0 -1 0 I I #
straight-curve $-1 45.725608541079836 0 2.9535747939597048 0 1 0 I I #
point $-1 45.725608541079836 21.523068169385645 2.9535747939597048 #
point $-1 45.725608541079836 21.523068169385645 5.9535747939597048 #
point $-1 45.725608541079836 -21.523068169385645 2.9535747939597048 #
edge $-1 $476 -21.523068169385645 $474 21.523068169385645 $370 $526 forward 7 unknown #
vertex $-1 $473 $527 #
straight-curve $-1 51.387066255684076 21.523068169385645 0 0 0 -1 I I #
vertex $-1 $473 $528 #
straight-curve $-1 51.387066255684076 -21.523068169385645 0 0 0 -1 I I #
coedge $-1 $378 $377 $385 $483 forward $150 $-1 #
edge $-1 $381 26.581612040586727 $486 45.725608541079836 $378 $529 forward 7 unknown #
straight-curve $-1 -26.581612040586727 21.523068169385645 45.995522816650798 0 0 -1 I I #
point $-1 -26.581612040586727 21.523068169385645 5.9535747939597048 #
straight-curve $-1 -18.076805145416643 21.523068169385645 2.1607147857908195 -1 0 0 I I #
edge $-1 $386 -43.834808030859975 $486 -40.041948022691095 $478 $530 forward 7 unknown #
point $-1 -45.725608541079843 21.523068169385645 2.1607147857908231 #
point $-1 -26.581612040586727 21.523068169385645 2.1607147857908231 #
vertex $-1 $390 $531 #
straight-curve $-1 -45.725608541079836 0 5.9535747939597048 0 -1 0 I I #
vertex $-1 $393 $532 #
point $-1 -41.39680924098122 19.510021886820901 3.5322592794813743 #
vertex $-1 $397 $533 #
point $-1 -35.653610290833285 19.510021886820901 3.5322592794813743 #
vertex $-1 $401 $534 #
point $-1 -29.910411340685354 19.510021886820901 3.5322592794813743 #
coedge $-1 $495 $407 $501 $535 reversed $283 $-1 #
coedge $-1 $407 $494 $410 $499 reversed $283 $-1 #
edge $-1 $497 -26.920782826923883 $415 -10.688868601388055 $414 $536 forward 7 unknown #
vertex $-1 $535 $537 #
straight-curve $-1 -45.725608541079851 -21.523068169385667 1.4801675982425166 0 0.76604443648966558 0.64278761758704617 I I #
edge $-1 $411 16.191869184414667 $503 21.523068169385645 $410 $538 forward 7 unknown #
point $-1 -45.725608541079836 -16.191869184414667 5.9535747939597048 #
coedge $-1 $414 $413 $494 $535 forward $405 $-1 #
point $-1 -29.493694315544023 -21.523068169385645 1.4801675982425346 #
vertex $-1 $418 $539 #
straight-curve $-1 0 -21.523068169385645 5.9535747939597048 1 0 0 I I #
vertex $-1 $421 $540 #
point $-1 -39.587918762355322 -16.446882696738729 0.84404675415770092 #
vertex $-1 $425 $541 #
point $-1 -32.63138409426854 -16.446882696738729 0.84404675415770092 #
straight-curve $-1 -51.387066255684076 21.523068169385645 0 0 0 -1 I I #
point $-1 -51.387066255684076 -21.523068169385645 -5.9535747939597048 #
straight-curve $-1 -51.387066255684076 0 -5.9535747939597048 0 1 0 I I #
point $-1 -51.387066255684076 21.523068169385645 -5.9535747939597048 #
coedge $-1 $447 $446 $514 $542 reversed $220 $-1 #
coedge $-1 $452 $448 $513 $542 forward $332 $-1 #
vertex $-1 $449 $543 #
straight-curve $-1 0 21.523068169385645 5.9535747939597048 -1 0 0 I I #
point $-1 -45.725608541079836 21.523068169385645 5.9535747939597048 #
vertex $-1 $542 $544 #
straight-curve $-1 0 -21.523068169385645 5.9535747939597048 1 0 0 I I #
straight-curve $-1 -51.387066255684076 -21.523068169385645 0 0 0 -1 I I #
straight-curve $-1 -51.387066255684076 21.523068169385645 0 0 0 -1 I I #
straight-curve $-1 45.725608541079836 -21.523068169385645 2.2267873969798524 0 0 -1 I I #
straight-curve $-1 0 -21.523068169385645 5.9535747939597048 1 0 0 I I #
straight-curve $-1 0 21.523068169385645 5.9535747939597048 -1 0 0 I I #
point $-1 45.725608541079836 -21.523068169385645 5.9535747939597048 #
straight-curve $-1 51.387066255684076 0 5.9535747939597048 0 1 0 I I #
point $-1 51.387066255684076 21.523068169385645 5.9535747939597048 #
point $-1 51.387066255684076 -21.523068169385645 5.9535747939597048 #
straight-curve $-1 0 21.523068169385645 5.9535747939597048 -1 0 0 I I #
straight-curve $-1 -45.725608541079843 21.523068169385645 45.995522816650798 0 0 1 I I #
point $-1 -45.725608541079836 21.523068169385645 5.9535747939597048 #
point $-1 -41.89680924098122 19.081438232552408 3.2747402485460619 #
point $-1 -36.153610290833285 19.081438232552408 3.2747402485460619 #
point $-1 -30.410411340685354 19.081438232552408 3.2747402485460619 #
edge $-1 $503 34.151285217854173 $497 38.624692413571339 $501 $545 forward 7 unknown #
straight-curve $-1 -18.804825714155967 -21.523068169385645 1.4801675982425333 1 0 0 I I #
point $-1 -45.725608541079851 -21.523068169385645 1.4801675982425346 #
straight-curve $-1 -45.725608541079836 0 5.9535747939597048 0 -1 0 I I #
point $-1 -45.725608541079836 -21.523068169385645 5.9535747939597048 #
point $-1 -41.087918762355322 -15.482701270358159 -0.3050199005767974 #
point $-1 -34.13138409426854 -15.482701270358159 -0.3050199005767974 #
edge $-1 $515 -21.523068169385645 $518 21.523068169385645 $513 $546 forward 7 unknown #
point $-1 -51.387066255684076 21.523068169385645 5.9535747939597048 #
point $-1 -51.387066255684076 -21.523068169385645 5.9535747939597048 #
straight-curve $-1 -45.725608541079851 -21.523068169385645 40.104860011813876 0 0 -1 I I #
straight-curve $-1 -51.387066255684076 0 5.9535747939597048 0 -1 0 I I #
End-of-ACIS-data 