500 0 7 0           
7 Unknown 11 ACIS 5.0 NT 24 Fri Mar 26 18:28:54 1999 
-1 9.9999999999999995e-007 1e-010 
body $-1 $7 $-1 $8 #
body $-1 $9 $-1 $10 #
body $-1 $11 $-1 $12 #
body $-1 $13 $-1 $14 #
body $-1 $15 $-1 $16 #
body $-1 $17 $-1 $18 #
body $-1 $19 $-1 $20 #
lump $-1 $-1 $21 $0 #
transform $-1 1 0 0 0 1 0 0 0 1 60.98452711569567 27.816478327761601 12.634608302491577 1 rotate no_reflect no_shear #
lump $-1 $-1 $22 $1 #
transform $-1 1 0 0 0 1 0 0 0 1 60.98452711569567 27.816478327761601 12.634608302491577 1 rotate no_reflect no_shear #
lump $-1 $-1 $23 $2 #
transform $-1 1 0 0 0 1 0 0 0 1 60.98452711569567 27.816478327761601 12.634608302491577 1 rotate no_reflect no_shear #
lump $-1 $-1 $24 $3 #
transform $-1 1 0 0 0 1 0 0 0 1 60.98452711569567 27.816478327761601 12.634608302491577 1 rotate no_reflect no_shear #
lump $-1 $-1 $25 $4 #
transform $-1 1 0 0 0 1 0 0 0 1 60.98452711569567 27.816478327761601 12.634608302491577 1 rotate no_reflect no_shear #
lump $-1 $-1 $26 $5 #
transform $-1 1 0 0 0 1 0 0 0 1 60.98452711569567 27.816478327761601 12.634608302491577 1 rotate no_reflect no_shear #
lump $-1 $-1 $27 $6 #
transform $-1 1 0 0 0 1 0 0 0 1 60.98452711569567 27.816478327761601 12.634608302491577 1 rotate no_reflect no_shear #
shell $-1 $-1 $-1 $28 $-1 $7 #
shell $-1 $-1 $-1 $29 $-1 $9 #
shell $-1 $-1 $-1 $30 $-1 $11 #
shell $-1 $-1 $-1 $31 $-1 $13 #
shell $-1 $-1 $-1 $32 $-1 $15 #
shell $-1 $-1 $-1 $33 $-1 $17 #
shell $-1 $-1 $-1 $34 $-1 $19 #
face $-1 $35 $36 $21 $-1 $37 forward single #
face $-1 $38 $39 $22 $-1 $40 reversed single #
face $-1 $41 $42 $23 $-1 $43 forward single #
face $-1 $44 $45 $24 $-1 $46 reversed single #
face $-1 $47 $48 $25 $-1 $49 forward single #
face $-1 $50 $51 $26 $-1 $52 reversed single #
face $-1 $53 $54 $27 $-1 $55 forward single #
face $-1 $56 $57 $21 $-1 $58 reversed single #
loop $-1 $-1 $59 $28 #
plane-surface $-1 0 0 12.634608302491577 0 0 1 1 0 0 forward_v I I I I #
face $-1 $60 $61 $22 $-1 $62 reversed single #
loop $-1 $-1 $63 $29 #
plane-surface $-1 -54.454593538432057 0 5.8472320976074474 0 0 1 1 0 0 forward_v I I I I #
face $-1 $64 $65 $23 $-1 $66 reversed single #
loop $-1 $-1 $67 $30 #
plane-surface $-1 60.98452711569567 0 0 -1 0 0 0 0 1 forward_v I I I I #
face $-1 $68 $69 $24 $-1 $70 reversed single #
loop $-1 $-1 $71 $31 #
plane-surface $-1 -9.4975227424085951 -117.01899863090524 89.330354346126839 -1 0 0 0 -0.73135370988377701 0.68199835119979291 forward_v I I I I #
face $-1 $72 $73 $25 $-1 $74 forward single #
loop $-1 $75 $76 $32 #
cone-surface $-1 -21.153947876531305 -23.886642572115758 8.5469774831432996 0 0.73135370988377701 -0.68199835119979291 2 0 0 1 I I 0 1 2 forward I I I I #
face $-1 $77 $78 $26 $-1 $79 reversed single #
loop $-1 $-1 $80 $33 #
plane-surface $-1 -32.810373010654018 79.077413919468881 130.0177235879471 1 0 0 0 -0.73135370988377701 -0.68199835119979291 forward_v I I I I #
face $-1 $81 $82 $27 $-1 $83 forward single #
loop $-1 $84 $85 $34 #
cone-surface $-1 -21.153947876531305 23.886642572115754 8.5469774831433032 0 -0.73135370988377701 -0.68199835119979291 2 0 0 1 I I 0 1 2 forward I I I I #
face $-1 $86 $87 $21 $-1 $88 reversed single #
loop $-1 $-1 $89 $35 #
plane-surface $-1 0 0 -12.634608302491577 0 0 1 1 0 0 forward_v I I I I #
coedge $-1 $90 $91 $92 $93 forward $36 $-1 #
face $-1 $94 $95 $22 $-1 $96 reversed single #
loop $-1 $-1 $97 $38 #
plane-surface $-1 -47.924659961168445 0 9.2409202000495103 -1 0 0 0 0 1 forward_v I I I I #
coedge $-1 $98 $99 $100 $101 forward $39 $-1 #
face $-1 $102 $103 $23 $-1 $104 forward single #
loop $-1 $-1 $105 $41 #
plane-surface $-1 0 -27.816478327761601 0 0 1 0 0 0 1 forward_v I I I I #
coedge $-1 $106 $107 $108 $109 forward $42 $-1 #
face $-1 $110 $111 $24 $-1 $112 reversed single #
loop $-1 $-1 $113 $44 #
plane-surface $-1 -21.153947876531305 -27.816478327761601 6.1476604629198164 0 -0.73135370988377701 0.68199835119979291 1 0 0 forward_v I I I I #
coedge $-1 $114 $115 $116 $117 reversed $45 $-1 #
face $-1 $-1 $118 $25 $-1 $119 forward single #
loop $-1 $120 $121 $47 #
cone-surface $-1 -21.153947876531305 -22.250041394796259 7.0208222323811054 0 0.73135370988377701 -0.68199835119979291 1 0 0 1 I I -0.70710678118654746 0.70710678118654746 1 forward I I I I #
loop $-1 $-1 $122 $32 #
coedge $-1 $76 $76 $123 $124 reversed $48 $-1 #
face $-1 $125 $126 $26 $-1 $127 reversed single #
loop $-1 $-1 $128 $50 #
plane-surface $-1 -21.153947876531305 -10.125106383674762 46.83502970474008 0 0.73135370988377701 0.68199835119979291 1 0 0 forward_v I I I I #
coedge $-1 $129 $130 $131 $132 reversed $51 $-1 #
face $-1 $-1 $133 $27 $-1 $134 forward single #
loop $-1 $135 $136 $53 #
cone-surface $-1 -21.153947876531305 22.250041394796256 7.0208222323811089 0 -0.73135370988377701 -0.68199835119979291 1 0 0 1 I I -0.70710678118654746 0.70710678118654746 1 forward I I I I #
loop $-1 $-1 $137 $34 #
coedge $-1 $85 $85 $138 $139 reversed $54 $-1 #
face $-1 $140 $141 $21 $-1 $142 reversed single #
loop $-1 $-1 $143 $56 #
plane-surface $-1 0 -27.816478327761601 0 0 1 0 0 0 1 forward_v I I I I #
coedge $-1 $144 $145 $146 $147 forward $57 $-1 #
coedge $-1 $148 $59 $149 $150 forward $36 $-1 #
coedge $-1 $59 $148 $151 $152 forward $36 $-1 #
coedge $-1 $153 $154 $59 $93 reversed $155 $-1 #
edge $-1 $156 -27.816478327761601 $157 27.816478327761601 $92 $158 forward 7 unknown #
face $-1 $159 $160 $22 $-1 $161 reversed single #
loop $-1 $-1 $162 $60 #
plane-surface $-1 0 27.816478327761601 0 0 -1 0 0 0 -1 forward_v I I I I #
coedge $-1 $100 $163 $164 $165 reversed $61 $-1 #
coedge $-1 $166 $63 $167 $168 reversed $39 $-1 #
coedge $-1 $63 $166 $169 $170 reversed $39 $-1 #
coedge $-1 $171 $97 $63 $101 reversed $61 $-1 #
edge $-1 $172 -27.816478327761601 $173 27.816478327761601 $100 $174 forward 7 unknown #
face $-1 $175 $176 $23 $-1 $177 reversed single #
loop $-1 $-1 $178 $64 #
plane-surface $-1 68.909696705171285 0 12.134608302491573 0 0 1 1 0 0 forward_v I I I I #
coedge $-1 $179 $180 $107 $181 forward $65 $-1 #
coedge $-1 $182 $67 $183 $184 reversed $42 $-1 #
coedge $-1 $67 $182 $105 $181 reversed $42 $-1 #
coedge $-1 $185 $186 $67 $109 reversed $103 $-1 #
edge $-1 $187 -27.816478327761601 $188 27.816478327761601 $108 $189 forward 7 unknown #
face $-1 $190 $191 $24 $-1 $192 forward single #
loop $-1 $-1 $193 $68 #
plane-surface $-1 -32.810373010654018 -117.01899863090524 89.330354346126839 1 0 0 0 0.73135370988377701 -0.68199835119979291 forward_v I I I I #
coedge $-1 $194 $195 $196 $197 reversed $69 $-1 #
coedge $-1 $115 $71 $198 $199 reversed $45 $-1 #
coedge $-1 $71 $114 $194 $200 reversed $45 $-1 #
coedge $-1 $196 $201 $71 $117 forward $191 $-1 #
edge $-1 $202 30.693020987691021 $203 36.742197564111279 $116 $204 forward 7 unknown #
loop $-1 $-1 $123 $72 #
plane-surface $-1 -21.153947876531305 -27.816478327761601 6.1476604629198164 0 -0.73135370988377701 0.68199835119979291 1 0 0 forward_v I I I I #
loop $-1 $-1 $205 $47 #
coedge $-1 $121 $121 $122 $206 reversed $73 $-1 #
coedge $-1 $122 $122 $121 $206 forward $75 $-1 #
coedge $-1 $123 $123 $76 $124 forward $118 $-1 #
edge $-1 $207 8.7672728959347739e-017 $207 6.2831853071796004 $123 $208 forward 7 unknown #
face $-1 $209 $210 $26 $-1 $211 reversed single #
loop $-1 $-1 $212 $77 #
plane-surface $-1 -9.4975227424085951 79.077413919468881 130.0177235879471 -1 0 0 0 0.73135370988377701 0.68199835119979291 forward_v I I I I #
coedge $-1 $213 $214 $215 $216 reversed $78 $-1 #
coedge $-1 $130 $80 $217 $218 reversed $51 $-1 #
coedge $-1 $80 $129 $213 $219 reversed $51 $-1 #
coedge $-1 $215 $220 $80 $132 forward $221 $-1 #
edge $-1 $222 11.72222863197284 $223 17.771405208393087 $131 $224 forward 7 unknown #
loop $-1 $-1 $138 $81 #
plane-surface $-1 -21.153947876531305 -10.125106383674762 46.83502970474008 0 0.73135370988377701 0.68199835119979291 1 0 0 forward_v I I I I #
loop $-1 $-1 $225 $53 #
coedge $-1 $136 $136 $137 $226 reversed $82 $-1 #
coedge $-1 $137 $137 $136 $226 forward $84 $-1 #
coedge $-1 $138 $138 $85 $139 forward $133 $-1 #
edge $-1 $227 -5.6189985332704921e-016 $227 6.2831853071795996 $138 $228 forward 7 unknown #
face $-1 $229 $230 $21 $-1 $231 reversed single #
loop $-1 $-1 $232 $86 #
plane-surface $-1 -60.98452711569567 0 0 1 0 0 0 0 -1 forward_v I I I I #
coedge $-1 $233 $151 $234 $235 forward $87 $-1 #
coedge $-1 $236 $89 $233 $237 forward $57 $-1 #
coedge $-1 $89 $236 $238 $239 forward $57 $-1 #
coedge $-1 $154 $153 $89 $147 reversed $155 $-1 #
edge $-1 $240 -27.816478327761601 $241 27.816478327761601 $146 $242 forward 7 unknown #
coedge $-1 $91 $90 $243 $244 forward $36 $-1 #
coedge $-1 $245 $246 $90 $150 reversed $230 $-1 #
edge $-1 $157 -60.98452711569567 $247 60.98452711569567 $149 $248 forward 7 unknown #
coedge $-1 $143 $249 $91 $152 reversed $87 $-1 #
edge $-1 $250 -60.98452711569567 $156 60.98452711569567 $151 $251 forward 7 unknown #
coedge $-1 $146 $92 $249 $252 forward $155 $-1 #
coedge $-1 $92 $146 $245 $253 reversed $155 $-1 #
loop $-1 $-1 $153 $229 #
vertex $-1 $93 $254 #
vertex $-1 $93 $255 #
straight-curve $-1 60.98452711569567 0 12.634608302491577 0 1 0 I I #
face $-1 $256 $257 $22 $-1 $258 forward single #
loop $-1 $-1 $259 $94 #
plane-surface $-1 -60.98452711569567 0 0 1 0 0 0 0 -1 forward_v I I I I #
coedge $-1 $169 $260 $171 $261 forward $95 $-1 #
coedge $-1 $97 $171 $262 $263 reversed $61 $-1 #
coedge $-1 $264 $167 $97 $165 forward $265 $-1 #
edge $-1 $173 1.2267719975826923 $266 8.0141482024668171 $164 $267 forward 7 unknown #
coedge $-1 $99 $98 $259 $268 reversed $39 $-1 #
coedge $-1 $164 $269 $98 $168 forward $265 $-1 #
edge $-1 $270 -33.757230346479645 $173 -20.697363191952416 $167 $271 forward 7 unknown #
coedge $-1 $272 $162 $99 $170 forward $95 $-1 #
edge $-1 $172 20.697363191952416 $273 33.757230346479645 $169 $274 forward 7 unknown #
coedge $-1 $163 $100 $162 $261 reversed $61 $-1 #
vertex $-1 $170 $275 #
vertex $-1 $168 $276 #
straight-curve $-1 -47.924659961168445 0 5.8472320976074474 0 -1 0 I I #
face $-1 $277 $278 $23 $-1 $279 reversed single #
loop $-1 $-1 $280 $102 #
plane-surface $-1 68.909696705171285 0 6.7544792200407873 0 0 1 1 0 0 forward_v I I I I #
coedge $-1 $186 $185 $281 $282 forward $103 $-1 #
coedge $-1 $283 $105 $284 $285 reversed $65 $-1 #
coedge $-1 $105 $283 $185 $286 reversed $65 $-1 #
edge $-1 $187 -12.134608302491573 $287 -6.7544792200407873 $105 $288 forward 7 unknown #
coedge $-1 $107 $106 $289 $290 forward $42 $-1 #
coedge $-1 $291 $292 $106 $184 forward $293 $-1 #
edge $-1 $294 6.7544792200407873 $188 12.134608302491573 $183 $295 forward 7 unknown #
coedge $-1 $178 $108 $180 $286 forward $103 $-1 #
coedge $-1 $108 $178 $291 $296 forward $103 $-1 #
vertex $-1 $181 $297 #
vertex $-1 $296 $298 #
straight-curve $-1 60.98452711569567 0 12.134608302491573 0 1 0 I I #
face $-1 $-1 $299 $24 $-1 $300 reversed single #
loop $-1 $-1 $116 $110 #
plane-surface $-1 0 0 12.634608302491577 0 0 1 1 0 0 forward_v I I I I #
coedge $-1 $301 $302 $303 $304 reversed $111 $-1 #
coedge $-1 $305 $113 $115 $200 forward $69 $-1 #
coedge $-1 $113 $305 $301 $306 forward $69 $-1 #
coedge $-1 $303 $116 $113 $197 forward $191 $-1 #
edge $-1 $203 -1.0794511958570574 $307 22.233399072388366 $196 $308 forward 7 unknown #
coedge $-1 $309 $310 $114 $199 forward $299 $-1 #
edge $-1 $311 -38.517516710143603 $202 -32.030568870571841 $198 $312 forward 7 unknown #
edge $-1 $203 -8.8697818195283809 $311 0 $115 $313 forward 7 unknown #
coedge $-1 $116 $303 $309 $314 forward $191 $-1 #
vertex $-1 $117 $315 #
vertex $-1 $117 $316 #
straight-curve $-1 -9.4975227424085951 -58.509499315452622 12.634608302491579 0 1 0 I I #
coedge $-1 $205 $205 $-1 $317 reversed $120 $-1 #
edge $-1 $318 0 $318 6.2831853071796004 $121 $319 forward 7 unknown #
vertex $-1 $124 $320 #
ellipse-curve $-1 -21.153947876531305 -24.791890039551472 9.3911343827056974 0 -0.73135370988377701 0.68199835119979291 2 0 0 1 I I #
face $-1 $-1 $221 $26 $-1 $321 forward single #
loop $-1 $-1 $322 $125 #
plane-surface $-1 0 27.816478327761601 0 0 -1 0 0 0 -1 forward_v I I I I #
coedge $-1 $323 $324 $325 $326 reversed $126 $-1 #
coedge $-1 $327 $128 $130 $219 forward $78 $-1 #
coedge $-1 $128 $327 $323 $328 forward $78 $-1 #
coedge $-1 $325 $131 $128 $216 forward $221 $-1 #
edge $-1 $223 -22.233399072388366 $329 1.0794511958570574 $215 $330 forward 7 unknown #
coedge $-1 $331 $332 $129 $218 forward $210 $-1 #
edge $-1 $333 -58.861201331053721 $222 -52.374253491481973 $217 $334 forward 7 unknown #
edge $-1 $223 46.763174835994818 $333 55.632956655523188 $130 $335 forward 7 unknown #
coedge $-1 $131 $325 $331 $336 forward $221 $-1 #
loop $-1 $-1 $325 $209 #
vertex $-1 $218 $337 #
vertex $-1 $132 $338 #
straight-curve $-1 -32.810373010654018 39.538706959734441 12.634608302491579 0 -1 0 I I #
coedge $-1 $225 $225 $-1 $339 reversed $135 $-1 #
edge $-1 $340 0 $340 6.2831853071796004 $136 $341 forward 7 unknown #
vertex $-1 $139 $342 #
ellipse-curve $-1 -21.153947876531305 24.791890039551475 9.3911343827057063 0 0.73135370988377701 0.68199835119979291 2 0 0 1 I I #
face $-1 $-1 $155 $21 $-1 $343 reversed single #
loop $-1 $-1 $245 $140 #
plane-surface $-1 0 27.816478327761601 0 0 -1 0 0 0 -1 forward_v I I I I #
coedge $-1 $344 $243 $246 $345 forward $141 $-1 #
coedge $-1 $249 $143 $144 $237 reversed $87 $-1 #
coedge $-1 $243 $344 $143 $235 reversed $141 $-1 #
edge $-1 $250 -12.634608302491577 $346 12.634608302491577 $234 $347 forward 7 unknown #
coedge $-1 $145 $144 $344 $348 forward $57 $-1 #
edge $-1 $241 -60.98452711569567 $346 60.98452711569567 $233 $349 forward 7 unknown #
coedge $-1 $246 $245 $145 $239 reversed $230 $-1 #
edge $-1 $350 -60.98452711569567 $240 60.98452711569567 $238 $351 forward 7 unknown #
vertex $-1 $147 $352 #
vertex $-1 $252 $353 #
straight-curve $-1 60.98452711569567 0 -12.634608302491577 0 -1 0 I I #
coedge $-1 $232 $234 $148 $244 reversed $141 $-1 #
edge $-1 $247 -27.816478327761601 $250 27.816478327761601 $243 $354 forward 7 unknown #
coedge $-1 $238 $149 $154 $253 forward $230 $-1 #
coedge $-1 $149 $238 $232 $345 reversed $230 $-1 #
vertex $-1 $150 $355 #
straight-curve $-1 0 27.816478327761601 12.634608302491577 -1 0 0 I I #
coedge $-1 $151 $233 $153 $252 reversed $87 $-1 #
vertex $-1 $244 $356 #
straight-curve $-1 0 -27.816478327761601 12.634608302491577 1 0 0 I I #
edge $-1 $156 -12.634608302491577 $241 12.634608302491577 $153 $357 forward 7 unknown #
edge $-1 $157 -12.634608302491577 $240 12.634608302491577 $154 $358 forward 7 unknown #
point $-1 60.98452711569567 -27.816478327761601 12.634608302491577 #
point $-1 60.98452711569567 27.816478327761601 12.634608302491577 #
face $-1 $-1 $265 $22 $-1 $359 reversed single #
loop $-1 $-1 $262 $159 #
plane-surface $-1 0 0 12.634608302491577 0 0 1 1 0 0 forward_v I I I I #
coedge $-1 $360 $361 $166 $268 forward $160 $-1 #
coedge $-1 $162 $272 $362 $363 reversed $95 $-1 #
edge $-1 $364 -8.0141482024668171 $172 -1.2267719975826923 $162 $365 forward 7 unknown #
coedge $-1 $362 $366 $163 $263 forward $257 $-1 #
edge $-1 $266 -27.816478327761601 $364 27.816478327761601 $262 $367 forward 7 unknown #
coedge $-1 $269 $164 $366 $368 reversed $265 $-1 #
loop $-1 $-1 $164 $256 #
vertex $-1 $165 $369 #
straight-curve $-1 -47.924659961168445 -27.816478327761601 4.6204601000247552 0 0 1 I I #
edge $-1 $273 -27.816478327761601 $270 27.816478327761601 $259 $370 forward 7 unknown #
coedge $-1 $167 $264 $360 $371 forward $265 $-1 #
vertex $-1 $268 $372 #
straight-curve $-1 -27.227296769216029 -27.816478327761601 5.8472320976074474 1 0 0 I I #
coedge $-1 $260 $169 $361 $373 reversed $95 $-1 #
vertex $-1 $268 $374 #
straight-curve $-1 -27.227296769216029 27.816478327761601 5.8472320976074474 -1 0 0 I I #
point $-1 -47.924659961168445 27.816478327761601 5.8472320976074474 #
point $-1 -47.924659961168445 -27.816478327761601 5.8472320976074474 #
face $-1 $-1 $293 $23 $-1 $375 reversed single #
loop $-1 $-1 $376 $175 #
plane-surface $-1 76.834866294646901 0 9.4445437612661802 -1 0 0 0 0 1 forward_v I I I I #
coedge $-1 $284 $377 $378 $379 forward $176 $-1 #
coedge $-1 $376 $380 $178 $282 reversed $278 $-1 #
edge $-1 $381 -27.816478327761601 $382 27.816478327761601 $281 $383 forward 7 unknown #
coedge $-1 $180 $179 $376 $384 reversed $65 $-1 #
coedge $-1 $289 $280 $179 $285 forward $176 $-1 #
edge $-1 $385 -7.9251695894756153 $287 7.9251695894756153 $179 $386 forward 7 unknown #
edge $-1 $187 -7.9251695894756153 $381 7.9251695894756153 $180 $387 forward 7 unknown #
vertex $-1 $181 $388 #
straight-curve $-1 60.98452711569567 -27.816478327761601 0 0 0 -1 I I #
coedge $-1 $377 $284 $182 $290 reversed $176 $-1 #
edge $-1 $294 -27.816478327761601 $287 27.816478327761601 $289 $389 forward 7 unknown #
coedge $-1 $390 $183 $186 $296 reversed $293 $-1 #
coedge $-1 $183 $390 $377 $391 reversed $293 $-1 #
loop $-1 $-1 $183 $277 #
vertex $-1 $184 $392 #
straight-curve $-1 60.98452711569567 27.816478327761601 0 0 0 1 I I #
edge $-1 $382 -7.9251695894756153 $188 7.9251695894756153 $291 $393 forward 7 unknown #
point $-1 60.98452711569567 -27.816478327761601 12.134608302491573 #
point $-1 60.98452711569567 27.816478327761601 12.134608302491573 #
loop $-1 $-1 $198 $190 #
plane-surface $-1 0 -27.816478327761601 0 0 1 0 0 0 1 forward_v I I I I #
coedge $-1 $302 $193 $195 $306 reversed $111 $-1 #
coedge $-1 $193 $301 $394 $395 reversed $111 $-1 #
coedge $-1 $201 $196 $193 $304 forward $191 $-1 #
edge $-1 $307 -36.742197564111279 $396 -30.693020987691021 $303 $397 forward 7 unknown #
coedge $-1 $195 $194 $310 $398 reversed $69 $-1 #
edge $-1 $399 0 $307 8.8697818195283809 $301 $400 forward 7 unknown #
vertex $-1 $197 $401 #
straight-curve $-1 -10.576973938265652 -21.767301751341346 12.634608302491577 -1 0 0 I I #
coedge $-1 $394 $198 $201 $314 reversed $299 $-1 #
coedge $-1 $198 $394 $305 $398 forward $299 $-1 #
vertex $-1 $199 $402 #
straight-curve $-1 -9.4975227424085951 -27.816478327761601 44.66517717306342 0 0 1 I I #
straight-curve $-1 -9.4975227424085951 -27.816478327761601 6.1476604629198164 0 -0.68199835119979291 -0.73135370988377701 I I #
edge $-1 $396 -32.810373010654018 $202 -9.4975227424085951 $309 $403 forward 7 unknown #
point $-1 -9.4975227424085951 -27.816478327761601 12.634608302491577 #
point $-1 -9.4975227424085951 -21.767301751341346 12.634608302491577 #
edge $-1 $404 1 $404 0 $205 $-1 forward 7 unknown #
vertex $-1 $206 $405 #
ellipse-curve $-1 -21.153947876531305 -22.981395104680036 7.7028205835808983 0 -0.73135370988377701 0.68199835119979291 2 0 0 1 I I #
point $-1 -19.153947876531305 -24.791890039551475 9.391134382705701 #
plane-surface $-1 0 0 12.634608302491577 0 0 1 1 0 0 forward_v I I I I #
coedge $-1 $332 $331 $324 $406 forward $210 $-1 #
coedge $-1 $324 $212 $214 $328 reversed $126 $-1 #
coedge $-1 $212 $323 $322 $406 reversed $126 $-1 #
coedge $-1 $220 $215 $212 $326 forward $221 $-1 #
edge $-1 $329 -17.771405208393087 $407 -11.72222863197284 $325 $408 forward 7 unknown #
coedge $-1 $214 $213 $332 $409 reversed $78 $-1 #
edge $-1 $410 -55.632956655523188 $329 -46.763174835994818 $323 $411 forward 7 unknown #
vertex $-1 $216 $412 #
straight-curve $-1 -10.576973938265652 21.767301751341357 12.634608302491579 1 0 0 I I #
coedge $-1 $322 $217 $220 $336 reversed $210 $-1 #
coedge $-1 $217 $322 $327 $409 forward $210 $-1 #
vertex $-1 $218 $413 #
straight-curve $-1 -32.810373010654018 27.816478327761601 65.008861793973551 0 0 1 I I #
straight-curve $-1 -32.810373010654018 -10.125106383674762 46.83502970474008 0 0.68199835119979291 -0.73135370988377701 I I #
edge $-1 $407 9.4975227424085951 $222 32.810373010654018 $331 $414 forward 7 unknown #
point $-1 -32.810373010654018 27.816478327761601 12.634608302491577 #
point $-1 -32.810373010654018 21.767301751341353 12.634608302491579 #
edge $-1 $415 1 $415 0 $225 $-1 forward 7 unknown #
vertex $-1 $226 $416 #
ellipse-curve $-1 -21.153947876531305 22.981395104680033 7.7028205835809018 0 0.73135370988377701 0.68199835119979291 2 0 0 1 I I #
point $-1 -19.153947876531305 24.791890039551472 9.3911343827057046 #
plane-surface $-1 60.98452711569567 0 0 -1 0 0 0 0 1 forward_v I I I I #
coedge $-1 $234 $232 $236 $348 reversed $141 $-1 #
edge $-1 $247 -12.634608302491577 $350 12.634608302491577 $246 $417 forward 7 unknown #
vertex $-1 $348 $418 #
straight-curve $-1 -60.98452711569567 -27.816478327761601 0 0 0 -1 I I #
edge $-1 $346 -27.816478327761601 $350 27.816478327761601 $344 $419 forward 7 unknown #
straight-curve $-1 0 -27.816478327761601 -12.634608302491577 -1 0 0 I I #
vertex $-1 $239 $420 #
straight-curve $-1 0 27.816478327761601 -12.634608302491577 1 0 0 I I #
point $-1 60.98452711569567 27.816478327761601 -12.634608302491577 #
point $-1 60.98452711569567 -27.816478327761601 -12.634608302491577 #
straight-curve $-1 -60.98452711569567 0 12.634608302491577 0 -1 0 I I #
point $-1 -60.98452711569567 27.816478327761601 12.634608302491577 #
point $-1 -60.98452711569567 -27.816478327761601 12.634608302491577 #
straight-curve $-1 60.98452711569567 -27.816478327761601 0 0 0 -1 I I #
straight-curve $-1 60.98452711569567 27.816478327761601 0 0 0 -1 I I #
plane-surface $-1 0 -27.816478327761601 0 0 1 0 0 0 1 forward_v I I I I #
coedge $-1 $421 $259 $269 $371 reversed $160 $-1 #
coedge $-1 $259 $421 $272 $373 forward $160 $-1 #
coedge $-1 $422 $262 $260 $363 forward $257 $-1 #
edge $-1 $364 47.924659961168445 $423 60.98452711569567 $260 $424 forward 7 unknown #
vertex $-1 $363 $425 #
straight-curve $-1 -47.924659961168445 27.816478327761601 4.6204601000247552 0 0 -1 I I #
coedge $-1 $262 $422 $264 $368 forward $257 $-1 #
straight-curve $-1 -47.924659961168445 0 12.634608302491577 0 1 0 I I #
edge $-1 $426 -60.98452711569567 $266 -47.924659961168445 $264 $427 forward 7 unknown #
point $-1 -47.924659961168445 -27.816478327761601 12.634608302491573 #
straight-curve $-1 -60.98452711569567 0 5.8472320976074474 0 -1 0 I I #
edge $-1 $426 -12.634608302491577 $270 -5.8472320976074474 $360 $428 forward 7 unknown #
point $-1 -60.98452711569567 -27.816478327761601 5.8472320976074474 #
edge $-1 $423 -12.634608302491577 $273 -5.8472320976074474 $272 $429 forward 7 unknown #
point $-1 -60.98452711569567 27.816478327761601 5.8472320976074474 #
plane-surface $-1 0 27.816478327761601 0 0 -1 0 0 0 -1 forward_v I I I I #
coedge $-1 $378 $281 $283 $384 forward $278 $-1 #
coedge $-1 $280 $289 $292 $391 forward $176 $-1 #
coedge $-1 $380 $376 $280 $379 reversed $278 $-1 #
edge $-1 $430 -27.816478327761601 $385 27.816478327761601 $378 $431 forward 7 unknown #
coedge $-1 $281 $378 $390 $432 reversed $278 $-1 #
vertex $-1 $282 $433 #
vertex $-1 $282 $434 #
straight-curve $-1 76.834866294646901 0 12.134608302491573 0 1 0 I I #
edge $-1 $381 -2.690064541225393 $385 2.690064541225393 $376 $435 forward 7 unknown #
vertex $-1 $384 $436 #
straight-curve $-1 68.909696705171285 -27.816478327761601 6.7544792200407873 -1 0 0 I I #
straight-curve $-1 68.909696705171285 -27.816478327761601 12.134608302491573 1 0 0 I I #
point $-1 60.98452711569567 -27.816478327761601 6.7544792200407873 #
straight-curve $-1 60.98452711569567 0 6.7544792200407873 0 -1 0 I I #
coedge $-1 $292 $291 $380 $432 forward $293 $-1 #
edge $-1 $294 -7.9251695894756153 $430 7.9251695894756153 $292 $437 forward 7 unknown #
point $-1 60.98452711569567 27.816478327761601 6.7544792200407873 #
straight-curve $-1 68.909696705171285 27.816478327761601 12.134608302491573 -1 0 0 I I #
coedge $-1 $310 $309 $302 $395 forward $299 $-1 #
edge $-1 $396 32.030568870571841 $399 38.517516710143603 $394 $438 forward 7 unknown #
vertex $-1 $314 $439 #
straight-curve $-1 -32.810373010654018 -58.509499315452622 12.634608302491579 0 -1 0 I I #
edge $-1 $399 -22.233399072388366 $311 1.0794511958570574 $310 $440 forward 7 unknown #
vertex $-1 $398 $441 #
straight-curve $-1 -32.810373010654018 -27.816478327761601 6.1476604629198164 0 0.68199835119979291 0.73135370988377701 I I #
point $-1 -32.810373010654018 -21.767301751341346 12.634608302491577 #
point $-1 -9.4975227424085951 -27.816478327761601 6.1476604629198164 #
straight-curve $-1 0 -27.816478327761601 12.634608302491577 1 0 0 I I #
vertex $-1 $317 $442 #
point $-1 -19.153947876531305 -22.981395104680036 7.7028205835808983 #
edge $-1 $407 52.374253491481973 $410 58.861201331053721 $322 $443 forward 7 unknown #
vertex $-1 $336 $444 #
straight-curve $-1 -9.4975227424085951 39.538706959734441 12.634608302491579 0 1 0 I I #
edge $-1 $410 -1.0794511958570574 $333 22.233399072388366 $332 $445 forward 7 unknown #
vertex $-1 $409 $446 #
straight-curve $-1 -9.4975227424085951 -10.125106383674762 46.83502970474008 0 -0.68199835119979291 0.73135370988377701 I I #
point $-1 -9.4975227424085951 21.767301751341353 12.634608302491579 #
point $-1 -32.810373010654018 27.816478327761601 6.1476604629198306 #
straight-curve $-1 0 27.816478327761601 12.634608302491577 -1 0 0 I I #
vertex $-1 $339 $447 #
point $-1 -19.153947876531305 22.981395104680033 7.7028205835809018 #
straight-curve $-1 -60.98452711569567 27.816478327761601 0 0 0 -1 I I #
point $-1 -60.98452711569567 -27.816478327761601 -12.634608302491577 #
straight-curve $-1 -60.98452711569567 0 -12.634608302491577 0 1 0 I I #
point $-1 -60.98452711569567 27.816478327761601 -12.634608302491577 #
coedge $-1 $361 $360 $422 $448 reversed $160 $-1 #
coedge $-1 $366 $362 $421 $448 forward $257 $-1 #
vertex $-1 $363 $449 #
straight-curve $-1 0 27.816478327761601 12.634608302491577 -1 0 0 I I #
point $-1 -47.924659961168445 27.816478327761601 12.634608302491573 #
vertex $-1 $448 $450 #
straight-curve $-1 0 -27.816478327761601 12.634608302491577 1 0 0 I I #
straight-curve $-1 -60.98452711569567 -27.816478327761601 0 0 0 -1 I I #
straight-curve $-1 -60.98452711569567 27.816478327761601 0 0 0 -1 I I #
vertex $-1 $379 $451 #
straight-curve $-1 76.834866294646901 0 6.7544792200407873 0 -1 0 I I #
edge $-1 $382 -2.690064541225393 $430 2.690064541225393 $380 $452 forward 7 unknown #
point $-1 76.834866294646901 -27.816478327761601 12.134608302491573 #
point $-1 76.834866294646901 27.816478327761601 12.134608302491573 #
straight-curve $-1 76.834866294646901 -27.816478327761601 9.4445437612661802 0 0 -1 I I #
point $-1 76.834866294646901 -27.816478327761601 6.7544792200407873 #
straight-curve $-1 68.909696705171285 27.816478327761601 6.7544792200407873 1 0 0 I I #
straight-curve $-1 -32.810373010654018 -27.816478327761601 44.66517717306342 0 0 -1 I I #
point $-1 -32.810373010654018 -27.816478327761601 12.634608302491577 #
straight-curve $-1 -10.576973938265652 -27.816478327761601 6.1476604629198155 1 0 0 I I #
point $-1 -32.810373010654018 -27.816478327761601 6.1476604629198164 #
point $-1 -21.153947876531305 -21.518687684912482 6.3388238811813125 #
straight-curve $-1 -9.4975227424085951 27.816478327761601 65.008861793973551 0 0 -1 I I #
point $-1 -9.4975227424085951 27.816478327761601 12.634608302491577 #
straight-curve $-1 -10.576973938265652 27.816478327761601 6.1476604629198341 -1 0 0 I I #
point $-1 -9.4975227424085951 27.816478327761601 6.1476604629198306 #
point $-1 -21.153947876531305 21.518687684912479 6.338823881181316 #
edge $-1 $423 -27.816478327761601 $426 27.816478327761601 $421 $453 forward 7 unknown #
point $-1 -60.98452711569567 27.816478327761601 12.634608302491577 #
point $-1 -60.98452711569567 -27.816478327761601 12.634608302491577 #
point $-1 76.834866294646901 27.816478327761601 6.7544792200407873 #
straight-curve $-1 76.834866294646901 27.816478327761601 9.4445437612661802 0 0 -1 I I #
straight-curve $-1 -60.98452711569567 0 12.634608302491577 0 -1 0 I I #
End-of-ACIS-data 