500 0 11 0           
7 Unknown 11 ACIS 5.0 NT 24 Fri Mar 26 19:30:58 1999 
-1 9.9999999999999995e-007 1e-010 
body $-1 $11 $-1 $12 #
body $-1 $13 $-1 $14 #
body $-1 $15 $-1 $16 #
body $-1 $17 $-1 $18 #
body $-1 $19 $-1 $20 #
body $-1 $21 $-1 $22 #
body $-1 $23 $-1 $24 #
body $-1 $25 $-1 $26 #
body $-1 $27 $-1 $28 #
body $-1 $29 $-1 $30 #
body $-1 $31 $-1 $32 #
lump $-1 $-1 $33 $0 #
transform $-1 1 0 0 0 1 0 0 0 1 74.407788323618277 42.984026136019104 19.957984314585048 1 rotate no_reflect no_shear #
lump $-1 $-1 $34 $1 #
transform $-1 1 0 0 0 1 0 0 0 1 74.407788323618277 42.984026136019104 19.957984314585048 1 rotate no_reflect no_shear #
lump $-1 $-1 $35 $2 #
transform $-1 1 0 0 0 1 0 0 0 1 74.407788323618277 42.984026136019104 19.957984314585048 1 rotate no_reflect no_shear #
lump $-1 $-1 $36 $3 #
transform $-1 1 0 0 0 1 0 0 0 1 74.407788323618277 42.984026136019104 19.957984314585048 1 rotate no_reflect no_shear #
lump $-1 $-1 $37 $4 #
transform $-1 1 0 0 0 1 0 0 0 1 74.407788323618277 42.984026136019104 19.957984314585048 1 rotate no_reflect no_shear #
lump $-1 $-1 $38 $5 #
transform $-1 1 0 0 0 1 0 0 0 1 74.407788323618277 42.984026136019104 19.957984314585048 1 rotate no_reflect no_shear #
lump $-1 $-1 $39 $6 #
transform $-1 1 0 0 0 1 0 0 0 1 74.407788323618277 42.984026136019104 19.957984314585048 1 rotate no_reflect no_shear #
lump $-1 $-1 $40 $7 #
transform $-1 1 0 0 0 1 0 0 0 1 74.407788323618277 42.984026136019104 19.957984314585048 1 rotate no_reflect no_shear #
lump $-1 $-1 $41 $8 #
transform $-1 1 0 0 0 1 0 0 0 1 74.407788323618277 42.984026136019104 19.957984314585048 1 rotate no_reflect no_shear #
lump $-1 $-1 $42 $9 #
transform $-1 1 0 0 0 1 0 0 0 1 74.407788323618277 42.984026136019104 19.957984314585048 1 rotate no_reflect no_shear #
lump $-1 $-1 $43 $10 #
transform $-1 1 0 0 0 1 0 0 0 1 74.407788323618277 42.984026136019104 19.957984314585048 1 rotate no_reflect no_shear #
shell $-1 $-1 $-1 $44 $-1 $11 #
shell $-1 $-1 $-1 $45 $-1 $13 #
shell $-1 $-1 $-1 $46 $-1 $15 #
shell $-1 $-1 $-1 $47 $-1 $17 #
shell $-1 $-1 $-1 $48 $-1 $19 #
shell $-1 $-1 $-1 $49 $-1 $21 #
shell $-1 $-1 $-1 $50 $-1 $23 #
shell $-1 $-1 $-1 $51 $-1 $25 #
shell $-1 $-1 $-1 $52 $-1 $27 #
shell $-1 $-1 $-1 $53 $-1 $29 #
shell $-1 $-1 $-1 $54 $-1 $31 #
face $-1 $55 $56 $33 $-1 $57 forward single #
face $-1 $58 $59 $34 $-1 $60 forward single #
face $-1 $61 $62 $35 $-1 $63 forward single #
face $-1 $64 $65 $36 $-1 $66 reversed single #
face $-1 $67 $68 $37 $-1 $69 forward single #
face $-1 $70 $71 $38 $-1 $72 forward single #
face $-1 $73 $74 $39 $-1 $75 forward single #
face $-1 $76 $77 $40 $-1 $78 reversed single #
face $-1 $79 $80 $41 $-1 $81 forward single #
face $-1 $82 $83 $42 $-1 $84 forward single #
face $-1 $85 $86 $43 $-1 $87 forward single #
face $-1 $88 $89 $33 $-1 $90 reversed single #
loop $-1 $-1 $91 $44 #
plane-surface $-1 0 0 19.957984314585048 0 0 1 1 0 0 forward_v I I I I #
face $-1 $92 $93 $34 $-1 $94 reversed single #
loop $-1 $-1 $95 $45 #
plane-surface $-1 -63.035665881475403 0 -13.158735713745394 0 0 1 1 0 0 forward_v I I I I #
face $-1 $96 $97 $35 $-1 $98 reversed single #
loop $-1 $-1 $99 $46 #
plane-surface $-1 63.035665881475396 0 -13.158735713745394 0 0 1 1 0 0 forward_v I I I I #
face $-1 $100 $101 $36 $-1 $102 reversed single #
loop $-1 $-1 $103 $47 #
plane-surface $-1 -51.663543439332528 -132.54347697516977 135.69146016012715 1 0 0 0 0.6018150307709319 -0.79863550430605224 forward_v I I I I #
face $-1 $104 $105 $37 $-1 $106 forward single #
loop $-1 $107 $108 $48 #
cone-surface $-1 -45.546537010029503 -40.242442227895495 17.505464589250824 0 0.6018150307709319 -0.79863550430605224 1 0 0 1 I I 0 1 1 forward I I I I #
face $-1 $109 $110 $38 $-1 $111 forward single #
loop $-1 $112 $113 $49 #
cone-surface $-1 -36.371027366074969 -40.242442227895495 17.505464589250824 0 0.6018150307709319 -0.79863550430605224 1 0 0 1 I I 0 1 1 forward I I I I #
face $-1 $114 $115 $39 $-1 $116 forward single #
loop $-1 $117 $118 $50 #
cone-surface $-1 -27.195517722120442 -40.242442227895495 17.505464589250824 0 0.6018150307709319 -0.79863550430605224 1 0 0 1 I I 0 1 1 forward I I I I #
face $-1 $119 $120 $40 $-1 $121 reversed single #
loop $-1 $-1 $122 $51 #
plane-surface $-1 -21.078511292817424 63.88633819468145 187.42832618354092 -1 0 0 0 0.6018150307709319 0.79863550430605224 forward_v I I I I #
face $-1 $123 $124 $41 $-1 $125 forward single #
loop $-1 $126 $127 $52 #
cone-surface $-1 -45.546537010029503 40.242442227895488 17.505464589250831 0 -0.6018150307709319 -0.79863550430605224 1 0 0 1 I I 0 1 1 forward I I I I #
face $-1 $128 $129 $42 $-1 $130 forward single #
loop $-1 $131 $132 $53 #
cone-surface $-1 -36.371027366074969 40.242442227895488 17.505464589250831 0 -0.6018150307709319 -0.79863550430605224 1 0 0 1 I I 0 1 1 forward I I I I #
face $-1 $133 $134 $43 $-1 $135 forward single #
loop $-1 $136 $137 $54 #
cone-surface $-1 -27.195517722120442 40.242442227895488 17.505464589250831 0 -0.6018150307709319 -0.79863550430605224 1 0 0 1 I I 0 1 1 forward I I I I #
face $-1 $138 $139 $33 $-1 $140 reversed single #
loop $-1 $-1 $141 $55 #
plane-surface $-1 0 0 -19.957984314585048 0 0 1 1 0 0 forward_v I I I I #
coedge $-1 $142 $143 $144 $145 forward $56 $-1 #
face $-1 $146 $147 $34 $-1 $148 reversed single #
loop $-1 $-1 $149 $58 #
plane-surface $-1 -51.663543439332528 0 -16.558360014165221 -1 0 0 0 0 1 forward_v I I I I #
coedge $-1 $150 $151 $152 $153 forward $59 $-1 #
face $-1 $154 $155 $35 $-1 $156 reversed single #
loop $-1 $-1 $157 $61 #
plane-surface $-1 51.663543439332521 0 -16.558360014165221 1 0 0 0 0 -1 forward_v I I I I #
coedge $-1 $158 $159 $160 $161 reversed $62 $-1 #
face $-1 $162 $163 $36 $-1 $164 reversed single #
loop $-1 $-1 $165 $64 #
plane-surface $-1 -36.371027366074976 -42.984026136019125 16.842057055865411 0 -0.6018150307709319 0.79863550430605224 1 0 0 forward_v I I I I #
coedge $-1 $166 $167 $168 $169 reversed $65 $-1 #
face $-1 $-1 $170 $37 $-1 $171 forward single #
loop $-1 $172 $173 $67 #
cone-surface $-1 -45.546537010029503 -39.267438329964477 16.211590741123409 0 0.6018150307709319 -0.79863550430605224 0.5 0 0 1 I I -0.70710678118654746 0.70710678118654746 0.5 forward I I I I #
loop $-1 $-1 $174 $48 #
coedge $-1 $108 $108 $175 $176 reversed $68 $-1 #
face $-1 $-1 $177 $38 $-1 $178 forward single #
loop $-1 $179 $180 $70 #
cone-surface $-1 -36.371027366074969 -39.267438329964477 16.211590741123409 0 0.6018150307709319 -0.79863550430605224 0.5 0 0 1 I I -0.70710678118654746 0.70710678118654746 0.5 forward I I I I #
loop $-1 $-1 $181 $49 #
coedge $-1 $113 $113 $182 $183 reversed $71 $-1 #
face $-1 $-1 $184 $39 $-1 $185 forward single #
loop $-1 $186 $187 $73 #
cone-surface $-1 -27.195517722120442 -39.267438329964477 16.211590741123409 0 0.6018150307709319 -0.79863550430605224 0.5 0 0 1 I I -0.70710678118654746 0.70710678118654746 0.5 forward I I I I #
loop $-1 $-1 $188 $50 #
coedge $-1 $118 $118 $189 $190 reversed $74 $-1 #
face $-1 $191 $192 $40 $-1 $193 reversed single #
loop $-1 $-1 $194 $76 #
plane-surface $-1 -36.371027366074976 -25.673112644469192 68.578923079279178 0 0.6018150307709319 0.79863550430605224 1 0 0 forward_v I I I I #
coedge $-1 $195 $196 $197 $198 reversed $77 $-1 #
face $-1 $-1 $199 $41 $-1 $200 forward single #
loop $-1 $201 $202 $79 #
cone-surface $-1 -45.546537010029503 39.26743832996447 16.211590741123416 0 -0.6018150307709319 -0.79863550430605224 0.5 0 0 1 I I -0.70710678118654746 0.70710678118654746 0.5 forward I I I I #
loop $-1 $-1 $203 $52 #
coedge $-1 $127 $127 $204 $205 reversed $80 $-1 #
face $-1 $-1 $206 $42 $-1 $207 forward single #
loop $-1 $208 $209 $82 #
cone-surface $-1 -36.371027366074969 39.26743832996447 16.211590741123416 0 -0.6018150307709319 -0.79863550430605224 0.5 0 0 1 I I -0.70710678118654746 0.70710678118654746 0.5 forward I I I I #
loop $-1 $-1 $210 $53 #
coedge $-1 $132 $132 $211 $212 reversed $83 $-1 #
face $-1 $-1 $213 $43 $-1 $214 forward single #
loop $-1 $215 $216 $85 #
cone-surface $-1 -27.195517722120442 39.26743832996447 16.211590741123416 0 -0.6018150307709319 -0.79863550430605224 0.5 0 0 1 I I -0.70710678118654746 0.70710678118654746 0.5 forward I I I I #
loop $-1 $-1 $217 $54 #
coedge $-1 $137 $137 $218 $219 reversed $86 $-1 #
face $-1 $220 $221 $33 $-1 $222 reversed single #
loop $-1 $-1 $223 $88 #
plane-surface $-1 0 -42.984026136019104 0 0 1 0 0 0 1 forward_v I I I I #
coedge $-1 $224 $225 $226 $227 forward $89 $-1 #
coedge $-1 $228 $91 $229 $230 forward $56 $-1 #
coedge $-1 $91 $228 $231 $232 forward $56 $-1 #
coedge $-1 $233 $234 $91 $145 reversed $235 $-1 #
edge $-1 $236 -42.984026136019104 $237 42.984026136019104 $144 $238 forward 7 unknown #
face $-1 $239 $240 $34 $-1 $241 reversed single #
loop $-1 $-1 $242 $92 #
plane-surface $-1 0 0 -19.957984314585048 0 0 1 1 0 0 forward_v I I I I #
coedge $-1 $243 $152 $244 $245 reversed $93 $-1 #
coedge $-1 $246 $95 $247 $248 reversed $59 $-1 #
coedge $-1 $95 $246 $249 $250 reversed $59 $-1 #
coedge $-1 $149 $251 $95 $153 reversed $93 $-1 #
edge $-1 $252 -42.984026136019104 $253 42.984026136019104 $152 $254 forward 7 unknown #
face $-1 $255 $256 $35 $-1 $257 reversed single #
loop $-1 $-1 $258 $96 #
plane-surface $-1 0 -42.984026136019104 0 0 1 0 0 0 1 forward_v I I I I #
coedge $-1 $259 $260 $261 $262 reversed $97 $-1 #
coedge $-1 $263 $99 $264 $265 reversed $62 $-1 #
coedge $-1 $99 $263 $258 $266 reversed $62 $-1 #
coedge $-1 $267 $268 $99 $161 forward $269 $-1 #
edge $-1 $270 -42.984026136019104 $271 42.984026136019104 $160 $272 forward 7 unknown #
face $-1 $273 $274 $36 $-1 $275 forward single #
loop $-1 $-1 $276 $100 #
plane-surface $-1 -21.078511292817424 -132.54347697516977 135.69146016012715 -1 0 0 0 -0.6018150307709319 0.79863550430605224 forward_v I I I I #
coedge $-1 $277 $278 $279 $280 reversed $101 $-1 #
coedge $-1 $167 $103 $281 $282 reversed $65 $-1 #
coedge $-1 $103 $166 $277 $283 reversed $65 $-1 #
coedge $-1 $279 $284 $103 $169 forward $285 $-1 #
edge $-1 $286 47.887745765478527 $287 51.00367302419815 $168 $288 forward 7 unknown #
loop $-1 $-1 $175 $104 #
plane-surface $-1 -36.371027366074976 -42.984026136019125 16.842057055865411 0 -0.6018150307709319 0.79863550430605224 1 0 0 forward_v I I I I #
loop $-1 $-1 $289 $67 #
coedge $-1 $173 $173 $174 $290 reversed $105 $-1 #
coedge $-1 $174 $174 $173 $290 forward $107 $-1 #
coedge $-1 $175 $175 $108 $176 forward $170 $-1 #
edge $-1 $291 -8.0672252277984023e-017 $291 6.2831853071796004 $175 $292 forward 7 unknown #
loop $-1 $-1 $182 $109 #
plane-surface $-1 -36.371027366074976 -42.984026136019125 16.842057055865411 0 -0.6018150307709319 0.79863550430605224 1 0 0 forward_v I I I I #
loop $-1 $-1 $293 $70 #
coedge $-1 $180 $180 $181 $294 reversed $110 $-1 #
coedge $-1 $181 $181 $180 $294 forward $112 $-1 #
coedge $-1 $182 $182 $113 $183 forward $177 $-1 #
edge $-1 $295 -8.0672252277984023e-017 $295 6.2831853071796004 $182 $296 forward 7 unknown #
loop $-1 $-1 $189 $114 #
plane-surface $-1 -36.371027366074976 -42.984026136019125 16.842057055865411 0 -0.6018150307709319 0.79863550430605224 1 0 0 forward_v I I I I #
loop $-1 $-1 $297 $73 #
coedge $-1 $187 $187 $188 $298 reversed $115 $-1 #
coedge $-1 $188 $188 $187 $298 forward $117 $-1 #
coedge $-1 $189 $189 $118 $190 forward $184 $-1 #
edge $-1 $299 -8.0672252277984023e-017 $299 6.2831853071796004 $189 $300 forward 7 unknown #
face $-1 $301 $302 $40 $-1 $303 reversed single #
loop $-1 $-1 $304 $119 #
plane-surface $-1 -51.663543439332528 63.88633819468145 187.42832618354092 1 0 0 0 -0.6018150307709319 -0.79863550430605224 forward_v I I I I #
coedge $-1 $305 $306 $307 $308 reversed $120 $-1 #
coedge $-1 $196 $122 $309 $310 reversed $77 $-1 #
coedge $-1 $122 $195 $305 $311 reversed $77 $-1 #
coedge $-1 $307 $312 $122 $198 forward $302 $-1 #
edge $-1 $313 73.756178777185411 $314 76.872106035905034 $197 $315 forward 7 unknown #
loop $-1 $-1 $204 $123 #
plane-surface $-1 -36.371027366074976 -25.673112644469192 68.578923079279178 0 0.6018150307709319 0.79863550430605224 1 0 0 forward_v I I I I #
loop $-1 $-1 $316 $79 #
coedge $-1 $202 $202 $203 $317 reversed $124 $-1 #
coedge $-1 $203 $203 $202 $317 forward $126 $-1 #
coedge $-1 $204 $204 $127 $205 forward $199 $-1 #
edge $-1 $318 -4.1954807315772832e-015 $318 6.283185307179596 $204 $319 forward 7 unknown #
loop $-1 $-1 $211 $128 #
plane-surface $-1 -36.371027366074976 -25.673112644469192 68.578923079279178 0 0.6018150307709319 0.79863550430605224 1 0 0 forward_v I I I I #
loop $-1 $-1 $320 $82 #
coedge $-1 $209 $209 $210 $321 reversed $129 $-1 #
coedge $-1 $210 $210 $209 $321 forward $131 $-1 #
coedge $-1 $211 $211 $132 $212 forward $206 $-1 #
edge $-1 $322 -4.1954807315772832e-015 $322 6.283185307179596 $211 $323 forward 7 unknown #
loop $-1 $-1 $218 $133 #
plane-surface $-1 -36.371027366074976 -25.673112644469192 68.578923079279178 0 0.6018150307709319 0.79863550430605224 1 0 0 forward_v I I I I #
loop $-1 $-1 $324 $85 #
coedge $-1 $216 $216 $217 $325 reversed $134 $-1 #
coedge $-1 $217 $217 $216 $325 forward $136 $-1 #
coedge $-1 $218 $218 $137 $219 forward $213 $-1 #
edge $-1 $326 -4.1954807315772832e-015 $326 6.283185307179596 $218 $327 forward 7 unknown #
face $-1 $328 $329 $33 $-1 $330 reversed single #
loop $-1 $-1 $331 $138 #
plane-surface $-1 -74.407788323618277 0 0 1 0 0 0 0 -1 forward_v I I I I #
coedge $-1 $332 $231 $333 $334 forward $139 $-1 #
coedge $-1 $335 $141 $332 $336 forward $89 $-1 #
coedge $-1 $141 $335 $337 $338 forward $89 $-1 #
coedge $-1 $234 $233 $141 $227 reversed $235 $-1 #
edge $-1 $339 -42.984026136019104 $340 42.984026136019104 $226 $341 forward 7 unknown #
coedge $-1 $143 $142 $342 $343 forward $56 $-1 #
coedge $-1 $344 $345 $142 $230 reversed $329 $-1 #
edge $-1 $237 -74.407788323618277 $346 74.407788323618277 $229 $347 forward 7 unknown #
coedge $-1 $223 $348 $143 $232 reversed $139 $-1 #
edge $-1 $349 -74.407788323618277 $236 74.407788323618277 $231 $350 forward 7 unknown #
coedge $-1 $226 $144 $348 $351 forward $235 $-1 #
coedge $-1 $144 $226 $344 $352 reversed $235 $-1 #
loop $-1 $-1 $233 $328 #
vertex $-1 $145 $353 #
vertex $-1 $145 $354 #
straight-curve $-1 74.407788323618277 0 19.957984314585048 0 1 0 I I #
face $-1 $355 $356 $34 $-1 $357 reversed single #
loop $-1 $-1 $244 $146 #
plane-surface $-1 0 -42.984026136019104 0 0 1 0 0 0 1 forward_v I I I I #
coedge $-1 $358 $359 $243 $360 forward $147 $-1 #
coedge $-1 $251 $149 $242 $360 reversed $93 $-1 #
coedge $-1 $249 $361 $149 $245 forward $240 $-1 #
edge $-1 $362 -11.678804307502437 $252 -4.8795557066627833 $244 $363 forward 7 unknown #
coedge $-1 $151 $150 $364 $365 reversed $59 $-1 #
coedge $-1 $366 $367 $150 $248 forward $368 $-1 #
edge $-1 $369 -42.889955382880572 $253 -20.145710498594827 $247 $370 forward 7 unknown #
coedge $-1 $371 $244 $151 $250 forward $240 $-1 #
edge $-1 $252 20.145710498594827 $372 42.889955382880572 $249 $373 forward 7 unknown #
coedge $-1 $152 $243 $366 $374 reversed $93 $-1 #
vertex $-1 $250 $375 #
vertex $-1 $248 $376 #
straight-curve $-1 -51.663543439332528 0 -13.158735713745394 0 1 0 I I #
face $-1 $377 $378 $35 $-1 $379 reversed single #
loop $-1 $-1 $380 $154 #
plane-surface $-1 0 0 -19.957984314585048 0 0 1 1 0 0 forward_v I I I I #
coedge $-1 $381 $382 $159 $266 forward $155 $-1 #
coedge $-1 $383 $157 $380 $384 reversed $97 $-1 #
coedge $-1 $157 $383 $263 $385 reversed $97 $-1 #
coedge $-1 $264 $386 $157 $262 forward $378 $-1 #
edge $-1 $387 -11.678804307502437 $388 -4.8795557066627833 $261 $389 forward 7 unknown #
coedge $-1 $159 $158 $260 $385 forward $62 $-1 #
coedge $-1 $390 $261 $158 $265 forward $378 $-1 #
edge $-1 $388 20.145710498594823 $270 42.889955382880565 $264 $391 forward 7 unknown #
edge $-1 $271 -42.889955382880565 $392 -20.145710498594823 $258 $393 forward 7 unknown #
coedge $-1 $394 $160 $382 $395 forward $269 $-1 #
coedge $-1 $160 $394 $390 $396 reversed $269 $-1 #
loop $-1 $-1 $160 $377 #
vertex $-1 $396 $397 #
vertex $-1 $395 $398 #
straight-curve $-1 74.407788323618277 0 -13.158735713745394 0 -1 0 I I #
face $-1 $-1 $285 $36 $-1 $399 reversed single #
loop $-1 $-1 $400 $162 #
plane-surface $-1 0 0 19.957984314585048 0 0 1 1 0 0 forward_v I I I I #
coedge $-1 $401 $402 $403 $404 reversed $163 $-1 #
coedge $-1 $405 $165 $167 $283 forward $101 $-1 #
coedge $-1 $165 $405 $401 $406 forward $101 $-1 #
coedge $-1 $403 $168 $165 $280 forward $285 $-1 #
edge $-1 $287 -33.478029756295044 $407 -2.8929976097799361 $279 $408 forward 7 unknown #
coedge $-1 $409 $410 $166 $282 forward $274 $-1 #
edge $-1 $411 -27.422687402721841 $286 -23.28771235156578 $281 $412 forward 7 unknown #
edge $-1 $287 2.7714322142781262e-014 $411 5.1775497443593261 $167 $413 forward 7 unknown #
coedge $-1 $168 $403 $409 $414 reversed $285 $-1 #
loop $-1 $-1 $403 $273 #
vertex $-1 $414 $415 #
vertex $-1 $169 $416 #
straight-curve $-1 -51.663543439332528 -42.984026136019104 67.845730080063575 0 0 -1 I I #
coedge $-1 $289 $289 $-1 $417 reversed $172 $-1 #
edge $-1 $418 0 $418 6.2831853071796004 $173 $419 forward 7 unknown #
vertex $-1 $176 $420 #
ellipse-curve $-1 -45.546537010029503 -40.916538610441066 18.400020685225243 0 -0.6018150307709319 0.79863550430605224 1 0 0 1 I I #
coedge $-1 $293 $293 $-1 $421 reversed $179 $-1 #
edge $-1 $422 0 $422 6.2831853071796004 $180 $423 forward 7 unknown #
vertex $-1 $183 $424 #
ellipse-curve $-1 -36.371027366074969 -40.916538610441066 18.400020685225243 0 -0.6018150307709319 0.79863550430605224 1 0 0 1 I I #
coedge $-1 $297 $297 $-1 $425 reversed $186 $-1 #
edge $-1 $426 0 $426 6.2831853071796004 $187 $427 forward 7 unknown #
vertex $-1 $190 $428 #
ellipse-curve $-1 -27.195517722120442 -40.916538610441066 18.400020685225243 0 -0.6018150307709319 0.79863550430605224 1 0 0 1 I I #
face $-1 $-1 $429 $40 $-1 $430 forward single #
loop $-1 $-1 $197 $191 #
plane-surface $-1 0 42.984026136019104 0 0 -1 0 0 0 -1 forward_v I I I I #
coedge $-1 $431 $432 $433 $434 reversed $192 $-1 #
coedge $-1 $435 $194 $196 $311 forward $120 $-1 #
coedge $-1 $194 $435 $431 $436 forward $120 $-1 #
coedge $-1 $433 $197 $194 $308 forward $302 $-1 #
edge $-1 $314 2.8929976097799361 $437 33.478029756295044 $307 $438 forward 7 unknown #
coedge $-1 $439 $440 $195 $310 forward $429 $-1 #
edge $-1 $441 6.9058819875223172 $313 11.040857038678379 $309 $442 forward 7 unknown #
edge $-1 $314 -85.968052272038221 $441 -80.79050252767891 $196 $443 forward 7 unknown #
coedge $-1 $197 $433 $439 $444 reversed $302 $-1 #
vertex $-1 $444 $445 #
vertex $-1 $198 $446 #
straight-curve $-1 -21.078511292817424 42.984026136019104 93.714163091770459 0 0 -1 I I #
coedge $-1 $316 $316 $-1 $447 reversed $201 $-1 #
edge $-1 $448 0 $448 6.2831853071796004 $202 $449 forward 7 unknown #
vertex $-1 $205 $450 #
ellipse-curve $-1 -45.546537010029503 40.916538610441059 18.400020685225243 0 0.6018150307709319 0.79863550430605224 1 0 0 1 I I #
coedge $-1 $320 $320 $-1 $451 reversed $208 $-1 #
edge $-1 $452 0 $452 6.2831853071796004 $209 $453 forward 7 unknown #
vertex $-1 $212 $454 #
ellipse-curve $-1 -36.371027366074969 40.916538610441059 18.400020685225243 0 0.6018150307709319 0.79863550430605224 1 0 0 1 I I #
coedge $-1 $324 $324 $-1 $455 reversed $215 $-1 #
edge $-1 $456 0 $456 6.2831853071796004 $216 $457 forward 7 unknown #
vertex $-1 $219 $458 #
ellipse-curve $-1 -27.195517722120442 40.916538610441059 18.400020685225243 0 0.6018150307709319 0.79863550430605224 1 0 0 1 I I #
face $-1 $-1 $235 $33 $-1 $459 reversed single #
loop $-1 $-1 $344 $220 #
plane-surface $-1 0 42.984026136019104 0 0 -1 0 0 0 -1 forward_v I I I I #
coedge $-1 $460 $342 $345 $461 forward $221 $-1 #
coedge $-1 $348 $223 $224 $336 reversed $139 $-1 #
coedge $-1 $342 $460 $223 $334 reversed $221 $-1 #
edge $-1 $349 -19.957984314585048 $462 19.957984314585048 $333 $463 forward 7 unknown #
coedge $-1 $225 $224 $460 $464 forward $89 $-1 #
edge $-1 $340 -74.407788323618277 $462 74.407788323618277 $332 $465 forward 7 unknown #
coedge $-1 $345 $344 $225 $338 reversed $329 $-1 #
edge $-1 $466 -74.407788323618277 $339 74.407788323618277 $337 $467 forward 7 unknown #
vertex $-1 $227 $468 #
vertex $-1 $351 $469 #
straight-curve $-1 74.407788323618277 0 -19.957984314585048 0 -1 0 I I #
coedge $-1 $331 $333 $228 $343 reversed $221 $-1 #
edge $-1 $346 -42.984026136019104 $349 42.984026136019104 $342 $470 forward 7 unknown #
coedge $-1 $337 $229 $234 $352 forward $329 $-1 #
coedge $-1 $229 $337 $331 $461 reversed $329 $-1 #
vertex $-1 $230 $471 #
straight-curve $-1 0 42.984026136019104 19.957984314585048 -1 0 0 I I #
coedge $-1 $231 $332 $233 $351 reversed $139 $-1 #
vertex $-1 $343 $472 #
straight-curve $-1 0 -42.984026136019104 19.957984314585048 1 0 0 I I #
edge $-1 $236 -19.957984314585048 $340 19.957984314585048 $233 $473 forward 7 unknown #
edge $-1 $237 -19.957984314585048 $339 19.957984314585048 $234 $474 forward 7 unknown #
point $-1 74.407788323618277 -42.984026136019104 19.957984314585048 #
point $-1 74.407788323618277 42.984026136019104 19.957984314585048 #
face $-1 $-1 $368 $34 $-1 $475 reversed single #
loop $-1 $-1 $364 $239 #
plane-surface $-1 -74.407788323618277 0 0 1 0 0 0 0 -1 forward_v I I I I #
coedge $-1 $476 $242 $361 $477 forward $147 $-1 #
coedge $-1 $242 $476 $478 $479 forward $147 $-1 #
edge $-1 $480 -42.984026136019104 $362 42.984026136019104 $242 $481 forward 7 unknown #
coedge $-1 $244 $371 $358 $477 reversed $240 $-1 #
vertex $-1 $477 $482 #
straight-curve $-1 -51.663543439332528 -42.984026136019104 -8.2791800070826103 0 0 1 I I #
coedge $-1 $483 $484 $246 $365 forward $356 $-1 #
edge $-1 $372 -42.984026136019104 $369 42.984026136019104 $364 $485 forward 7 unknown #
coedge $-1 $478 $247 $251 $374 forward $368 $-1 #
coedge $-1 $247 $478 $483 $486 reversed $368 $-1 #
loop $-1 $-1 $366 $355 #
vertex $-1 $486 $487 #
straight-curve $-1 -31.517832940737701 42.984026136019104 -13.158735713745394 1 0 0 I I #
coedge $-1 $361 $249 $484 $488 forward $240 $-1 #
vertex $-1 $488 $489 #
straight-curve $-1 -31.517832940737701 -42.984026136019104 -13.158735713745394 -1 0 0 I I #
edge $-1 $253 4.8795557066627833 $480 11.678804307502437 $366 $490 forward 7 unknown #
point $-1 -51.663543439332528 -42.984026136019104 -13.158735713745394 #
point $-1 -51.663543439332528 42.984026136019104 -13.158735713745394 #
face $-1 $-1 $269 $35 $-1 $491 reversed single #
loop $-1 $-1 $264 $255 #
plane-surface $-1 0 42.984026136019104 0 0 -1 0 0 0 -1 forward_v I I I I #
coedge $-1 $492 $493 $259 $384 forward $256 $-1 #
coedge $-1 $494 $258 $383 $495 forward $155 $-1 #
coedge $-1 $258 $494 $267 $395 reversed $155 $-1 #
coedge $-1 $260 $259 $381 $495 reversed $97 $-1 #
edge $-1 $496 -42.984026136019104 $387 42.984026136019104 $380 $497 forward 7 unknown #
edge $-1 $388 -42.984026136019104 $392 42.984026136019104 $260 $498 forward 7 unknown #
coedge $-1 $261 $390 $492 $499 reversed $378 $-1 #
vertex $-1 $499 $500 #
vertex $-1 $265 $501 #
straight-curve $-1 51.663543439332521 42.984026136019104 -8.2791800070826103 0 0 1 I I #
coedge $-1 $386 $264 $268 $396 forward $378 $-1 #
straight-curve $-1 31.517832940737698 42.984026136019104 -13.158735713745394 1 0 0 I I #
vertex $-1 $266 $502 #
straight-curve $-1 31.517832940737698 -42.984026136019104 -13.158735713745394 -1 0 0 I I #
coedge $-1 $268 $267 $503 $504 reversed $269 $-1 #
edge $-1 $271 13.158735713745394 $505 19.957984314585048 $267 $506 forward 7 unknown #
edge $-1 $270 13.158735713745394 $507 19.957984314585048 $268 $508 forward 7 unknown #
point $-1 74.407788323618263 42.984026136019104 -13.158735713745394 #
point $-1 74.407788323618263 -42.984026136019104 -13.158735713745394 #
plane-surface $-1 0 -42.984026136019104 0 0 1 0 0 0 1 forward_v I I I I #
coedge $-1 $410 $409 $402 $509 forward $274 $-1 #
coedge $-1 $402 $276 $278 $406 reversed $163 $-1 #
coedge $-1 $276 $401 $400 $509 reversed $163 $-1 #
coedge $-1 $284 $279 $276 $404 forward $285 $-1 #
edge $-1 $407 -51.00367302419815 $510 -47.887745765478527 $403 $511 forward 7 unknown #
coedge $-1 $278 $277 $410 $512 reversed $101 $-1 #
edge $-1 $513 -5.1775497443593261 $407 -2.7714322142781262e-014 $401 $514 forward 7 unknown #
vertex $-1 $280 $515 #
straight-curve $-1 -18.185513683037488 -42.984026136019104 16.842057055865425 1 0 0 I I #
coedge $-1 $400 $281 $284 $414 forward $274 $-1 #
coedge $-1 $281 $400 $405 $512 forward $274 $-1 #
vertex $-1 $282 $516 #
straight-curve $-1 -51.663543439332528 -66.271738487584884 19.957984314585048 0 -1 0 I I #
straight-curve $-1 -51.663543439332528 -42.984026136019125 16.842057055865411 0 0.79863550430605224 0.6018150307709319 I I #
edge $-1 $286 -51.663543439332528 $510 -21.078511292817424 $284 $517 forward 7 unknown #
point $-1 -51.663543439332528 -42.984026136019104 19.957984314585048 #
point $-1 -51.663543439332528 -42.984026136019104 16.842057055865428 #
edge $-1 $518 1 $518 0 $289 $-1 forward 7 unknown #
vertex $-1 $290 $519 #
ellipse-curve $-1 -45.546537010029503 -39.568345845349945 16.610908493276437 0 -0.6018150307709319 0.79863550430605224 1 0 0 1 I I #
point $-1 -44.546537010029503 -40.916538610441044 18.400020685225215 #
edge $-1 $520 1 $520 0 $293 $-1 forward 7 unknown #
vertex $-1 $294 $521 #
ellipse-curve $-1 -36.371027366074969 -39.568345845349945 16.610908493276437 0 -0.6018150307709319 0.79863550430605224 1 0 0 1 I I #
point $-1 -35.371027366074969 -40.916538610441044 18.400020685225215 #
edge $-1 $522 1 $522 0 $297 $-1 forward 7 unknown #
vertex $-1 $298 $523 #
ellipse-curve $-1 -27.195517722120442 -39.568345845349945 16.610908493276437 0 -0.6018150307709319 0.79863550430605224 1 0 0 1 I I #
point $-1 -26.195517722120442 -40.916538610441044 18.400020685225215 #
loop $-1 $-1 $309 $301 #
plane-surface $-1 0 0 19.957984314585048 0 0 1 1 0 0 forward_v I I I I #
coedge $-1 $432 $304 $306 $436 reversed $192 $-1 #
coedge $-1 $304 $431 $524 $525 reversed $192 $-1 #
coedge $-1 $312 $307 $304 $434 forward $302 $-1 #
edge $-1 $437 -76.872106035905034 $526 -73.756178777185411 $433 $527 forward 7 unknown #
coedge $-1 $306 $305 $440 $528 reversed $120 $-1 #
edge $-1 $529 80.79050252767891 $437 85.968052272038221 $431 $530 forward 7 unknown #
vertex $-1 $308 $531 #
straight-curve $-1 -18.185513683037488 42.984026136019104 16.842057055865421 -1 0 0 I I #
coedge $-1 $524 $309 $312 $444 forward $429 $-1 #
coedge $-1 $309 $524 $435 $528 forward $429 $-1 #
vertex $-1 $310 $532 #
straight-curve $-1 -21.078511292817424 31.943169097340725 19.957984314585048 0 1 0 I I #
straight-curve $-1 -21.078511292817424 -25.673112644469192 68.578923079279178 0 -0.79863550430605224 0.6018150307709319 I I #
edge $-1 $313 21.078511292817424 $526 51.663543439332528 $312 $533 forward 7 unknown #
point $-1 -21.078511292817424 42.984026136019104 19.957984314585048 #
point $-1 -21.078511292817424 42.984026136019104 16.842057055865425 #
edge $-1 $534 1 $534 0 $316 $-1 forward 7 unknown #
vertex $-1 $317 $535 #
ellipse-curve $-1 -45.546537010029503 39.568345845349938 16.610908493276444 0 0.6018150307709319 0.79863550430605224 1 0 0 1 I I #
point $-1 -44.546537010029503 40.916538610441037 18.400020685225222 #
edge $-1 $536 1 $536 0 $320 $-1 forward 7 unknown #
vertex $-1 $321 $537 #
ellipse-curve $-1 -36.371027366074969 39.568345845349938 16.610908493276444 0 0.6018150307709319 0.79863550430605224 1 0 0 1 I I #
point $-1 -35.371027366074969 40.916538610441037 18.400020685225222 #
edge $-1 $538 1 $538 0 $324 $-1 forward 7 unknown #
vertex $-1 $325 $539 #
ellipse-curve $-1 -27.195517722120442 39.568345845349938 16.610908493276444 0 0.6018150307709319 0.79863550430605224 1 0 0 1 I I #
point $-1 -26.195517722120442 40.916538610441037 18.400020685225222 #
plane-surface $-1 74.407788323618277 0 0 -1 0 0 0 0 1 forward_v I I I I #
coedge $-1 $333 $331 $335 $464 reversed $221 $-1 #
edge $-1 $346 -19.957984314585048 $466 19.957984314585048 $345 $540 forward 7 unknown #
vertex $-1 $464 $541 #
straight-curve $-1 -74.407788323618277 -42.984026136019104 0 0 0 -1 I I #
edge $-1 $462 -42.984026136019104 $466 42.984026136019104 $460 $542 forward 7 unknown #
straight-curve $-1 0 -42.984026136019104 -19.957984314585048 -1 0 0 I I #
vertex $-1 $338 $543 #
straight-curve $-1 0 42.984026136019104 -19.957984314585048 1 0 0 I I #
point $-1 74.407788323618277 42.984026136019104 -19.957984314585048 #
point $-1 74.407788323618277 -42.984026136019104 -19.957984314585048 #
straight-curve $-1 -74.407788323618277 0 19.957984314585048 0 -1 0 I I #
point $-1 -74.407788323618277 42.984026136019104 19.957984314585048 #
point $-1 -74.407788323618277 -42.984026136019104 19.957984314585048 #
straight-curve $-1 74.407788323618277 -42.984026136019104 0 0 0 -1 I I #
straight-curve $-1 74.407788323618277 42.984026136019104 0 0 0 -1 I I #
plane-surface $-1 0 42.984026136019104 0 0 -1 0 0 0 -1 forward_v I I I I #
coedge $-1 $359 $358 $544 $545 forward $147 $-1 #
edge $-1 $362 51.663543439332528 $546 74.407788323618277 $361 $547 forward 7 unknown #
coedge $-1 $367 $366 $359 $479 reversed $368 $-1 #
edge $-1 $548 -74.407788323618277 $480 -51.663543439332528 $478 $549 forward 7 unknown #
vertex $-1 $374 $550 #
straight-curve $-1 -51.663543439332528 0 -19.957984314585048 0 -1 0 I I #
point $-1 -51.663543439332528 -42.984026136019104 -19.957984314585048 #
coedge $-1 $544 $364 $367 $486 forward $356 $-1 #
coedge $-1 $364 $544 $371 $488 reversed $356 $-1 #
straight-curve $-1 -74.407788323618277 0 -13.158735713745394 0 1 0 I I #
edge $-1 $369 13.158735713745394 $548 19.957984314585048 $367 $551 forward 7 unknown #
point $-1 -74.407788323618277 42.984026136019104 -13.158735713745394 #
edge $-1 $372 13.158735713745394 $546 19.957984314585048 $484 $552 forward 7 unknown #
point $-1 -74.407788323618277 -42.984026136019104 -13.158735713745394 #
straight-curve $-1 -51.663543439332528 42.984026136019104 -8.2791800070826103 0 0 -1 I I #
plane-surface $-1 74.407788323618277 0 0 -1 0 0 0 0 1 forward_v I I I I #
coedge $-1 $503 $380 $386 $499 forward $256 $-1 #
coedge $-1 $380 $503 $494 $553 forward $256 $-1 #
coedge $-1 $382 $381 $493 $553 reversed $155 $-1 #
edge $-1 $392 4.8795557066627833 $496 11.678804307502437 $381 $554 forward 7 unknown #
vertex $-1 $384 $555 #
straight-curve $-1 51.663543439332521 0 -19.957984314585048 0 1 0 I I #
straight-curve $-1 51.663543439332521 0 -13.158735713745394 0 -1 0 I I #
edge $-1 $387 51.663543439332521 $507 74.407788323618277 $386 $556 forward 7 unknown #
point $-1 51.663543439332521 42.984026136019104 -19.957984314585048 #
point $-1 51.663543439332521 42.984026136019104 -13.158735713745394 #
point $-1 51.663543439332521 -42.984026136019104 -13.158735713745394 #
coedge $-1 $493 $492 $394 $504 forward $256 $-1 #
edge $-1 $507 -42.984026136019104 $505 42.984026136019104 $394 $557 forward 7 unknown #
vertex $-1 $395 $558 #
straight-curve $-1 74.407788323618277 -42.984026136019104 0 0 0 -1 I I #
vertex $-1 $504 $559 #
straight-curve $-1 74.407788323618277 42.984026136019104 0 0 0 -1 I I #
edge $-1 $510 23.28771235156578 $513 27.422687402721841 $400 $560 forward 7 unknown #
vertex $-1 $509 $561 #
straight-curve $-1 -21.078511292817424 -42.984026136019104 67.845730080063575 0 0 1 I I #
edge $-1 $513 2.8929976097799361 $411 33.478029756295044 $410 $562 forward 7 unknown #
vertex $-1 $512 $563 #
straight-curve $-1 -21.078511292817424 -42.984026136019125 16.842057055865411 0 -0.79863550430605224 -0.6018150307709319 I I #
point $-1 -21.078511292817424 -42.984026136019104 16.842057055865428 #
point $-1 -51.663543439332528 -38.849051084863042 19.957984314585048 #
straight-curve $-1 0 -42.984026136019104 19.957984314585048 1 0 0 I I #
vertex $-1 $417 $564 #
point $-1 -44.546537010029503 -39.568345845349945 16.610908493276437 #
vertex $-1 $421 $565 #
point $-1 -35.371027366074969 -39.568345845349945 16.610908493276437 #
vertex $-1 $425 $566 #
point $-1 -26.195517722120442 -39.568345845349945 16.610908493276437 #
coedge $-1 $440 $439 $432 $525 forward $429 $-1 #
edge $-1 $526 -11.040857038678379 $529 -6.9058819875223172 $524 $567 forward 7 unknown #
vertex $-1 $525 $568 #
straight-curve $-1 -51.663543439332528 42.984026136019104 93.714163091770459 0 0 1 I I #
edge $-1 $529 -33.478029756295044 $441 -2.8929976097799361 $440 $569 forward 7 unknown #
vertex $-1 $528 $570 #
straight-curve $-1 -51.663543439332528 -25.673112644469192 68.578923079279178 0 0.79863550430605224 -0.6018150307709319 I I #
point $-1 -51.663543439332528 42.984026136019104 16.842057055865425 #
point $-1 -21.078511292817424 38.849051084863042 19.95798431458504 #
straight-curve $-1 0 42.984026136019104 19.957984314585048 -1 0 0 I I #
vertex $-1 $447 $571 #
point $-1 -44.546537010029503 39.568345845349938 16.610908493276444 #
vertex $-1 $451 $572 #
point $-1 -35.371027366074969 39.568345845349938 16.610908493276444 #
vertex $-1 $455 $573 #
point $-1 -26.195517722120442 39.568345845349938 16.610908493276444 #
straight-curve $-1 -74.407788323618277 42.984026136019104 0 0 0 -1 I I #
point $-1 -74.407788323618277 -42.984026136019104 -19.957984314585048 #
straight-curve $-1 -74.407788323618277 0 -19.957984314585048 0 1 0 I I #
point $-1 -74.407788323618277 42.984026136019104 -19.957984314585048 #
coedge $-1 $484 $483 $476 $545 reversed $356 $-1 #
edge $-1 $546 -42.984026136019104 $548 42.984026136019104 $544 $574 forward 7 unknown #
vertex $-1 $545 $575 #
straight-curve $-1 0 -42.984026136019104 -19.957984314585048 -1 0 0 I I #
vertex $-1 $479 $576 #
straight-curve $-1 0 42.984026136019104 -19.957984314585048 1 0 0 I I #
point $-1 -51.663543439332528 42.984026136019104 -19.957984314585048 #
straight-curve $-1 -74.407788323618277 42.984026136019104 0 0 0 -1 I I #
straight-curve $-1 -74.407788323618277 -42.984026136019104 0 0 0 -1 I I #
edge $-1 $505 -74.407788323618277 $496 -51.663543439332521 $494 $577 forward 7 unknown #
straight-curve $-1 51.663543439332521 -42.984026136019104 -8.2791800070826103 0 0 -1 I I #
point $-1 51.663543439332521 -42.984026136019104 -19.957984314585048 #
straight-curve $-1 0 42.984026136019104 -19.957984314585048 1 0 0 I I #
straight-curve $-1 74.407788323618277 0 -19.957984314585048 0 -1 0 I I #
point $-1 74.407788323618277 -42.984026136019104 -19.957984314585048 #
point $-1 74.407788323618277 42.984026136019104 -19.957984314585048 #
straight-curve $-1 -21.078511292817424 -66.271738487584884 19.957984314585048 0 1 0 I I #
point $-1 -21.078511292817424 -42.984026136019104 19.957984314585048 #
straight-curve $-1 -18.185513683037488 -38.849051084863049 19.957984314585048 -1 0 0 I I #
point $-1 -21.078511292817424 -38.849051084863042 19.957984314585048 #
point $-1 -45.546537010029503 -38.966530814579009 15.812272988970383 #
point $-1 -36.371027366074969 -38.966530814579009 15.812272988970383 #
point $-1 -27.195517722120442 -38.966530814579009 15.812272988970383 #
straight-curve $-1 -51.663543439332528 31.943169097340725 19.957984314585048 0 -1 0 I I #
point $-1 -51.663543439332528 42.984026136019104 19.957984314585048 #
straight-curve $-1 -18.185513683037488 38.849051084863035 19.957984314585048 1 0 0 I I #
point $-1 -51.663543439332528 38.849051084863042 19.95798431458504 #
point $-1 -45.546537010029503 38.966530814579002 15.81227298897039 #
point $-1 -36.371027366074969 38.966530814579002 15.81227298897039 #
point $-1 -27.195517722120442 38.966530814579002 15.81227298897039 #
straight-curve $-1 -74.407788323618277 0 -19.957984314585048 0 1 0 I I #
point $-1 -74.407788323618277 -42.984026136019104 -19.957984314585048 #
point $-1 -74.407788323618277 42.984026136019104 -19.957984314585048 #
straight-curve $-1 0 -42.984026136019104 -19.957984314585048 -1 0 0 I I #
End-of-ACIS-data 