500 0 9 0           
7 Unknown 11 ACIS 5.0 NT 24 Fri Mar 26 15:47:49 1999 
-1 9.9999999999999995e-007 1e-010 
body $-1 $9 $-1 $10 #
body $-1 $11 $-1 $12 #
body $-1 $13 $-1 $14 #
body $-1 $15 $-1 $16 #
body $-1 $17 $-1 $18 #
body $-1 $19 $-1 $20 #
body $-1 $21 $-1 $22 #
body $-1 $23 $-1 $24 #
body $-1 $25 $-1 $26 #
lump $-1 $-1 $27 $0 #
transform $-1 1 0 0 0 1 0 0 0 1 47.159642323068944 22.787374521223128 7.494999547258832 1 rotate no_reflect no_shear #
lump $-1 $-1 $28 $1 #
transform $-1 1 0 0 0 1 0 0 0 1 47.159642323068944 22.787374521223128 7.494999547258832 1 rotate no_reflect no_shear #
lump $-1 $-1 $29 $2 #
transform $-1 1 0 0 0 1 0 0 0 1 47.159642323068944 22.787374521223128 7.494999547258832 1 rotate no_reflect no_shear #
lump $-1 $-1 $30 $3 #
transform $-1 1 0 0 0 1 0 0 0 1 47.159642323068944 22.787374521223128 7.494999547258832 1 rotate no_reflect no_shear #
lump $-1 $-1 $31 $4 #
transform $-1 1 0 0 0 1 0 0 0 1 47.159642323068944 22.787374521223128 7.494999547258832 1 rotate no_reflect no_shear #
lump $-1 $-1 $32 $5 #
transform $-1 1 0 0 0 1 0 0 0 1 47.159642323068944 22.787374521223128 7.494999547258832 1 rotate no_reflect no_shear #
lump $-1 $-1 $33 $6 #
transform $-1 1 0 0 0 1 0 0 0 1 47.159642323068944 22.787374521223128 7.494999547258832 1 rotate no_reflect no_shear #
lump $-1 $-1 $34 $7 #
transform $-1 1 0 0 0 1 0 0 0 1 47.159642323068944 22.787374521223128 7.494999547258832 1 rotate no_reflect no_shear #
lump $-1 $-1 $35 $8 #
transform $-1 1 0 0 0 1 0 0 0 1 47.159642323068944 22.787374521223128 7.494999547258832 1 rotate no_reflect no_shear #
shell $-1 $-1 $-1 $36 $-1 $9 #
shell $-1 $-1 $-1 $37 $-1 $11 #
shell $-1 $-1 $-1 $38 $-1 $13 #
shell $-1 $-1 $-1 $39 $-1 $15 #
shell $-1 $-1 $-1 $40 $-1 $17 #
shell $-1 $-1 $-1 $41 $-1 $19 #
shell $-1 $-1 $-1 $42 $-1 $21 #
shell $-1 $-1 $-1 $43 $-1 $23 #
shell $-1 $-1 $-1 $44 $-1 $25 #
face $-1 $45 $46 $27 $-1 $47 forward single #
face $-1 $48 $49 $28 $-1 $50 forward single #
face $-1 $51 $52 $29 $-1 $53 forward single #
face $-1 $54 $55 $30 $-1 $56 reversed single #
face $-1 $57 $58 $31 $-1 $59 forward single #
face $-1 $60 $61 $32 $-1 $62 forward single #
face $-1 $63 $64 $33 $-1 $65 reversed single #
face $-1 $66 $67 $34 $-1 $68 forward single #
face $-1 $69 $70 $35 $-1 $71 forward single #
face $-1 $72 $73 $27 $-1 $74 reversed single #
loop $-1 $-1 $75 $36 #
plane-surface $-1 0 0 7.494999547258832 0 0 1 1 0 0 forward_v I I I I #
face $-1 $76 $77 $28 $-1 $78 reversed single #
loop $-1 $-1 $79 $37 #
plane-surface $-1 -44.682065427225773 0 4.6538776713462608 0 0 1 1 0 0 forward_v I I I I #
face $-1 $80 $81 $29 $-1 $82 reversed single #
loop $-1 $-1 $83 $38 #
plane-surface $-1 47.159642323068944 0 0 -1 0 0 0 0 1 forward_v I I I I #
face $-1 $84 $85 $30 $-1 $86 reversed single #
loop $-1 $-1 $87 $39 #
plane-surface $-1 -26.733122754941689 81.682897910480335 89.764893884175393 1 0 0 0 -0.86602541151947299 -0.49999998660252726 forward_v I I I I #
face $-1 $88 $89 $31 $-1 $90 forward single #
loop $-1 $91 $92 $40 #
cone-surface $-1 -21.898373524545399 20.928711990527471 4.9690210489629232 0 -0.86602541151947299 -0.49999998660252726 1 0 0 1 I I 0 1 1 forward I I I I #
face $-1 $93 $94 $32 $-1 $95 forward single #
loop $-1 $96 $97 $41 #
cone-surface $-1 -14.646249678950973 20.928711990527471 4.9690210489629232 0 -0.86602541151947299 -0.49999998660252726 1 0 0 1 I I 0 1 1 forward I I I I #
face $-1 $98 $99 $33 $-1 $100 reversed single #
loop $-1 $-1 $101 $42 #
plane-surface $-1 41.293862212293782 -98.114105297563313 57.323007366401001 -1 0 0 0 -0.79863551827123203 0.60181501223851219 forward_v I I I I #
face $-1 $102 $103 $34 $-1 $104 forward single #
loop $-1 $105 $106 $43 #
cone-surface $-1 31.361348442491241 -18.857624429715457 3.0352717105400155 0 0.79863551827123203 -0.60181501223851219 1 0 0 1 I I 0 1 1 forward I I I I #
face $-1 $107 $108 $35 $-1 $109 forward single #
loop $-1 $110 $111 $44 #
cone-surface $-1 37.320856704372765 -18.857624429715457 3.0352717105400155 0 0.79863551827123203 -0.60181501223851219 1 0 0 1 I I 0 1 1 forward I I I I #
face $-1 $112 $113 $27 $-1 $114 reversed single #
loop $-1 $-1 $115 $45 #
plane-surface $-1 0 0 -7.494999547258832 0 0 1 1 0 0 forward_v I I I I #
coedge $-1 $116 $117 $118 $119 forward $46 $-1 #
face $-1 $120 $121 $28 $-1 $122 reversed single #
loop $-1 $-1 $123 $48 #
plane-surface $-1 -44.682065427225773 0 1.348959599550736 0 0 1 1 0 0 forward_v I I I I #
coedge $-1 $124 $125 $126 $127 forward $49 $-1 #
face $-1 $128 $129 $29 $-1 $130 reversed single #
loop $-1 $-1 $131 $51 #
plane-surface $-1 0 -22.787374521223128 0 0 1 0 0 0 1 forward_v I I I I #
coedge $-1 $132 $133 $134 $135 forward $52 $-1 #
face $-1 $136 $137 $30 $-1 $138 reversed single #
loop $-1 $-1 $139 $54 #
plane-surface $-1 -18.272311601748186 6.1058645428602176e-007 42.605252824746493 0 0.86602541151947299 0.49999998660252726 1 0 0 forward_v I I I I #
coedge $-1 $140 $141 $142 $143 reversed $55 $-1 #
face $-1 $-1 $144 $31 $-1 $145 forward single #
loop $-1 $146 $147 $57 #
cone-surface $-1 -21.898373524545399 19.895266980959043 4.3723613158125367 0 -0.86602541151947299 -0.49999998660252726 0.5 0 0 1 I I -0.70710678118654746 0.70710678118654746 0.5 forward I I I I #
loop $-1 $-1 $148 $40 #
coedge $-1 $92 $92 $149 $150 reversed $58 $-1 #
face $-1 $-1 $151 $32 $-1 $152 forward single #
loop $-1 $153 $154 $60 #
cone-surface $-1 -14.646249678950973 19.895266980959043 4.3723613158125367 0 -0.86602541151947299 -0.49999998660252726 0.5 0 0 1 I I -0.70710678118654746 0.70710678118654746 0.5 forward I I I I #
loop $-1 $-1 $155 $41 #
coedge $-1 $97 $97 $156 $157 reversed $61 $-1 #
face $-1 $158 $159 $33 $-1 $160 reversed single #
loop $-1 $-1 $161 $63 #
plane-surface $-1 34.341102573432003 -22.787374521223128 0.56024592275781515 0 -0.79863551827123203 0.60181501223851219 1 0 0 forward_v I I I I #
coedge $-1 $162 $163 $164 $165 reversed $64 $-1 #
face $-1 $-1 $166 $34 $-1 $167 forward single #
loop $-1 $168 $169 $66 #
cone-surface $-1 31.361348442491241 -17.141412344887719 1.7420131799524547 0 0.79863551827123203 -0.60181501223851219 0.5 0 0 1 I I -0.70710678118654746 0.70710678118654746 0.5 forward I I I I #
loop $-1 $-1 $170 $43 #
coedge $-1 $106 $106 $171 $172 reversed $67 $-1 #
face $-1 $-1 $173 $35 $-1 $174 forward single #
loop $-1 $175 $176 $69 #
cone-surface $-1 37.320856704372765 -17.141412344887719 1.7420131799524547 0 0.79863551827123203 -0.60181501223851219 0.5 0 0 1 I I -0.70710678118654746 0.70710678118654746 0.5 forward I I I I #
loop $-1 $-1 $177 $44 #
coedge $-1 $111 $111 $178 $179 reversed $70 $-1 #
face $-1 $180 $181 $27 $-1 $182 reversed single #
loop $-1 $-1 $183 $72 #
plane-surface $-1 0 -22.787374521223128 0 0 1 0 0 0 1 forward_v I I I I #
coedge $-1 $184 $185 $186 $187 forward $73 $-1 #
coedge $-1 $188 $75 $189 $190 forward $46 $-1 #
coedge $-1 $75 $188 $191 $192 forward $46 $-1 #
coedge $-1 $193 $194 $75 $119 reversed $195 $-1 #
edge $-1 $196 -22.787374521223128 $197 22.787374521223128 $118 $198 forward 7 unknown #
face $-1 $199 $200 $28 $-1 $201 reversed single #
loop $-1 $-1 $202 $76 #
plane-surface $-1 -42.204488531382601 0 3.0014186354484984 -1 0 0 0 0 1 forward_v I I I I #
coedge $-1 $203 $204 $205 $206 forward $77 $-1 #
coedge $-1 $207 $79 $208 $209 reversed $49 $-1 #
coedge $-1 $79 $207 $210 $211 reversed $49 $-1 #
coedge $-1 $202 $212 $79 $127 reversed $121 $-1 #
edge $-1 $213 -22.787374521223128 $214 22.787374521223128 $126 $215 forward 7 unknown #
face $-1 $216 $217 $29 $-1 $218 reversed single #
loop $-1 $-1 $219 $80 #
plane-surface $-1 50.092532378456518 0 4.494999547258832 0 0 1 1 0 0 forward_v I I I I #
coedge $-1 $220 $221 $132 $222 forward $81 $-1 #
coedge $-1 $223 $83 $131 $222 reversed $52 $-1 #
coedge $-1 $83 $223 $224 $225 reversed $52 $-1 #
coedge $-1 $226 $227 $83 $135 reversed $129 $-1 #
edge $-1 $228 -22.787374521223128 $229 22.787374521223128 $134 $230 forward 7 unknown #
face $-1 $231 $232 $30 $-1 $233 reversed single #
loop $-1 $-1 $234 $84 #
plane-surface $-1 -9.8115004485546837 81.682897910480335 89.764893884175393 -1 0 0 0 0.86602541151947299 0.49999998660252726 forward_v I I I I #
coedge $-1 $235 $236 $237 $238 reversed $85 $-1 #
coedge $-1 $141 $87 $239 $240 reversed $55 $-1 #
coedge $-1 $87 $140 $235 $241 reversed $55 $-1 #
coedge $-1 $237 $242 $87 $143 forward $243 $-1 #
edge $-1 $244 18.054074434017039 $245 20.570534887790984 $142 $246 forward 7 unknown #
loop $-1 $-1 $149 $88 #
plane-surface $-1 -18.272311601748186 6.1058645428602176e-007 42.605252824746493 0 0.86602541151947299 0.49999998660252726 1 0 0 forward_v I I I I #
loop $-1 $-1 $247 $57 #
coedge $-1 $147 $147 $148 $248 reversed $89 $-1 #
coedge $-1 $148 $148 $147 $248 forward $91 $-1 #
coedge $-1 $149 $149 $92 $150 forward $144 $-1 #
edge $-1 $249 -5.3119845246768275e-016 $249 6.2831853071795996 $149 $250 forward 7 unknown #
loop $-1 $-1 $156 $93 #
plane-surface $-1 -18.272311601748186 6.1058645428602176e-007 42.605252824746493 0 0.86602541151947299 0.49999998660252726 1 0 0 forward_v I I I I #
loop $-1 $-1 $251 $60 #
coedge $-1 $154 $154 $155 $252 reversed $94 $-1 #
coedge $-1 $155 $155 $154 $252 forward $96 $-1 #
coedge $-1 $156 $156 $97 $157 forward $151 $-1 #
edge $-1 $253 -5.3119845246768275e-016 $253 6.2831853071795996 $156 $254 forward 7 unknown #
face $-1 $255 $256 $33 $-1 $257 forward single #
loop $-1 $-1 $258 $98 #
plane-surface $-1 27.388342934570225 -98.114105297563313 57.323007366401001 1 0 0 0 0.79863551827123203 -0.60181501223851219 forward_v I I I I #
coedge $-1 $259 $260 $261 $262 reversed $99 $-1 #
coedge $-1 $163 $101 $263 $264 reversed $64 $-1 #
coedge $-1 $101 $162 $259 $265 reversed $64 $-1 #
coedge $-1 $261 $266 $101 $165 forward $256 $-1 #
edge $-1 $267 26.269678127558528 $268 31.495389659189613 $164 $269 forward 7 unknown #
loop $-1 $-1 $171 $102 #
plane-surface $-1 34.341102573432003 -22.787374521223128 0.56024592275781515 0 -0.79863551827123203 0.60181501223851219 1 0 0 forward_v I I I I #
loop $-1 $-1 $270 $66 #
coedge $-1 $169 $169 $170 $271 reversed $103 $-1 #
coedge $-1 $170 $170 $169 $271 forward $105 $-1 #
coedge $-1 $171 $171 $106 $172 forward $166 $-1 #
edge $-1 $272 -6.9924690405088017e-016 $272 6.2831853071795996 $171 $273 forward 7 unknown #
loop $-1 $-1 $178 $107 #
plane-surface $-1 34.341102573432003 -22.787374521223128 0.56024592275781515 0 -0.79863551827123203 0.60181501223851219 1 0 0 forward_v I I I I #
loop $-1 $-1 $274 $69 #
coedge $-1 $176 $176 $177 $275 reversed $108 $-1 #
coedge $-1 $177 $177 $176 $275 forward $110 $-1 #
coedge $-1 $178 $178 $111 $179 forward $173 $-1 #
edge $-1 $276 -6.9924690405088017e-016 $276 6.2831853071795996 $178 $277 forward 7 unknown #
face $-1 $278 $279 $27 $-1 $280 reversed single #
loop $-1 $-1 $281 $112 #
plane-surface $-1 -47.159642323068944 0 0 1 0 0 0 0 -1 forward_v I I I I #
coedge $-1 $282 $191 $283 $284 forward $113 $-1 #
coedge $-1 $285 $115 $282 $286 forward $73 $-1 #
coedge $-1 $115 $285 $287 $288 forward $73 $-1 #
coedge $-1 $194 $193 $115 $187 reversed $195 $-1 #
edge $-1 $289 -22.787374521223128 $290 22.787374521223128 $186 $291 forward 7 unknown #
coedge $-1 $117 $116 $292 $293 forward $46 $-1 #
coedge $-1 $294 $295 $116 $190 reversed $279 $-1 #
edge $-1 $197 -47.159642323068944 $296 47.159642323068944 $189 $297 forward 7 unknown #
coedge $-1 $183 $298 $117 $192 reversed $113 $-1 #
edge $-1 $299 -47.159642323068944 $196 47.159642323068944 $191 $300 forward 7 unknown #
coedge $-1 $186 $118 $298 $301 forward $195 $-1 #
coedge $-1 $118 $186 $294 $302 reversed $195 $-1 #
loop $-1 $-1 $193 $278 #
vertex $-1 $119 $303 #
vertex $-1 $119 $304 #
straight-curve $-1 47.159642323068944 0 7.494999547258832 0 1 0 I I #
face $-1 $305 $306 $28 $-1 $307 reversed single #
loop $-1 $-1 $308 $120 #
plane-surface $-1 0 -22.787374521223128 0 0 1 0 0 0 1 forward_v I I I I #
coedge $-1 $205 $126 $309 $310 reversed $121 $-1 #
coedge $-1 $311 $123 $308 $312 reversed $77 $-1 #
coedge $-1 $123 $311 $313 $314 reversed $77 $-1 #
coedge $-1 $212 $202 $123 $206 reversed $121 $-1 #
edge $-1 $315 -22.787374521223128 $316 22.787374521223128 $205 $317 forward 7 unknown #
coedge $-1 $125 $124 $318 $319 reversed $49 $-1 #
coedge $-1 $320 $321 $124 $209 forward $322 $-1 #
edge $-1 $323 -24.818609609456058 $214 -19.863455817769715 $208 $324 forward 7 unknown #
coedge $-1 $325 $309 $125 $211 forward $200 $-1 #
edge $-1 $213 19.863455817769715 $326 24.818609609456058 $210 $327 forward 7 unknown #
coedge $-1 $126 $205 $320 $328 reversed $121 $-1 #
vertex $-1 $211 $329 #
vertex $-1 $209 $330 #
straight-curve $-1 -42.204488531382601 0 4.6538776713462608 0 1 0 I I #
face $-1 $331 $332 $29 $-1 $333 forward single #
loop $-1 $-1 $334 $128 #
plane-surface $-1 53.025422433844099 0 5.994999547258832 -1 0 0 0 0 1 forward_v I I I I #
coedge $-1 $227 $226 $335 $336 forward $129 $-1 #
coedge $-1 $337 $131 $227 $338 reversed $81 $-1 #
coedge $-1 $131 $337 $339 $340 reversed $81 $-1 #
edge $-1 $341 -7.494999547258832 $229 -4.494999547258832 $131 $342 forward 7 unknown #
coedge $-1 $133 $132 $343 $344 reversed $52 $-1 #
coedge $-1 $345 $346 $133 $225 forward $347 $-1 #
edge $-1 $228 4.494999547258832 $348 7.494999547258832 $224 $349 forward 7 unknown #
coedge $-1 $219 $134 $346 $350 forward $129 $-1 #
coedge $-1 $134 $219 $220 $338 forward $129 $-1 #
vertex $-1 $225 $351 #
vertex $-1 $222 $352 #
straight-curve $-1 47.159642323068944 0 4.494999547258832 0 -1 0 I I #
face $-1 $-1 $243 $30 $-1 $353 forward single #
loop $-1 $-1 $354 $136 #
plane-surface $-1 0 22.787374521223128 0 0 -1 0 0 0 -1 forward_v I I I I #
coedge $-1 $355 $356 $357 $358 reversed $137 $-1 #
coedge $-1 $359 $139 $141 $241 forward $85 $-1 #
coedge $-1 $139 $359 $355 $360 forward $85 $-1 #
coedge $-1 $357 $142 $139 $238 forward $243 $-1 #
edge $-1 $245 -17.596966954067597 $361 -0.67534464768059088 $237 $362 forward 7 unknown #
coedge $-1 $363 $364 $140 $240 forward $232 $-1 #
edge $-1 $365 -41.746084911722434 $244 -37.387447394828868 $239 $366 forward 7 unknown #
edge $-1 $245 40.541828000041527 $365 45.574749042446264 $141 $367 forward 7 unknown #
coedge $-1 $142 $357 $363 $368 forward $243 $-1 #
loop $-1 $-1 $357 $231 #
vertex $-1 $240 $369 #
vertex $-1 $143 $370 #
straight-curve $-1 -26.733122754941689 40.841448955240168 7.4949995472588284 0 -1 0 I I #
coedge $-1 $247 $247 $-1 $371 reversed $146 $-1 #
edge $-1 $372 0 $372 6.2831853071796004 $147 $373 forward 7 unknown #
vertex $-1 $150 $374 #
ellipse-curve $-1 -21.898373524545399 21.52914429433616 5.3156807888120436 0 0.86602541151947299 0.49999998660252726 1 0 0 1 I I #
coedge $-1 $251 $251 $-1 $375 reversed $153 $-1 #
edge $-1 $376 0 $376 6.2831853071796004 $154 $377 forward 7 unknown #
vertex $-1 $157 $378 #
ellipse-curve $-1 -14.646249678950973 21.52914429433616 5.3156807888120436 0 0.86602541151947299 0.49999998660252726 1 0 0 1 I I #
face $-1 $-1 $379 $33 $-1 $380 reversed single #
loop $-1 $-1 $164 $158 #
plane-surface $-1 0 0 7.494999547258832 0 0 1 1 0 0 forward_v I I I I #
coedge $-1 $381 $382 $383 $384 reversed $159 $-1 #
coedge $-1 $385 $161 $163 $265 forward $99 $-1 #
coedge $-1 $161 $385 $381 $386 forward $99 $-1 #
coedge $-1 $383 $164 $161 $262 forward $256 $-1 #
edge $-1 $268 -24.12331092557778 $387 -10.217791647854224 $261 $388 forward 7 unknown #
coedge $-1 $389 $390 $162 $264 forward $379 $-1 #
edge $-1 $391 -28.101257760442685 $267 -21.166504135941668 $263 $392 forward 7 unknown #
edge $-1 $268 -8.6832522043501701 $391 0 $163 $393 forward 7 unknown #
coedge $-1 $164 $383 $389 $394 forward $256 $-1 #
vertex $-1 $264 $395 #
vertex $-1 $165 $396 #
straight-curve $-1 41.293862212293782 -49.057052648781657 7.494999547258832 0 1 0 I I #
coedge $-1 $270 $270 $-1 $397 reversed $168 $-1 #
edge $-1 $398 0 $398 6.2831853071796004 $169 $399 forward 7 unknown #
vertex $-1 $172 $400 #
ellipse-curve $-1 31.361348442491241 -20.174518755407586 4.0276227350083236 0 -0.79863551827123203 0.60181501223851219 1 0 0 1 I I #
coedge $-1 $274 $274 $-1 $401 reversed $175 $-1 #
edge $-1 $402 0 $402 6.2831853071796004 $176 $403 forward 7 unknown #
vertex $-1 $179 $404 #
ellipse-curve $-1 37.320856704372765 -20.174518755407586 4.0276227350083236 0 -0.79863551827123203 0.60181501223851219 1 0 0 1 I I #
face $-1 $-1 $195 $27 $-1 $405 reversed single #
loop $-1 $-1 $294 $180 #
plane-surface $-1 0 22.787374521223128 0 0 -1 0 0 0 -1 forward_v I I I I #
coedge $-1 $406 $292 $295 $407 forward $181 $-1 #
coedge $-1 $298 $183 $184 $286 reversed $113 $-1 #
coedge $-1 $292 $406 $183 $284 reversed $181 $-1 #
edge $-1 $299 -7.494999547258832 $408 7.494999547258832 $283 $409 forward 7 unknown #
coedge $-1 $185 $184 $406 $410 forward $73 $-1 #
edge $-1 $290 -47.159642323068944 $408 47.159642323068944 $282 $411 forward 7 unknown #
coedge $-1 $295 $294 $185 $288 reversed $279 $-1 #
edge $-1 $412 -47.159642323068944 $289 47.159642323068944 $287 $413 forward 7 unknown #
vertex $-1 $187 $414 #
vertex $-1 $301 $415 #
straight-curve $-1 47.159642323068944 0 -7.494999547258832 0 -1 0 I I #
coedge $-1 $281 $283 $188 $293 reversed $181 $-1 #
edge $-1 $296 -22.787374521223128 $299 22.787374521223128 $292 $416 forward 7 unknown #
coedge $-1 $287 $189 $194 $302 forward $279 $-1 #
coedge $-1 $189 $287 $281 $407 reversed $279 $-1 #
vertex $-1 $190 $417 #
straight-curve $-1 0 22.787374521223128 7.494999547258832 -1 0 0 I I #
coedge $-1 $191 $282 $193 $301 reversed $113 $-1 #
vertex $-1 $293 $418 #
straight-curve $-1 0 -22.787374521223128 7.494999547258832 1 0 0 I I #
edge $-1 $196 -7.494999547258832 $290 7.494999547258832 $193 $419 forward 7 unknown #
edge $-1 $197 -7.494999547258832 $289 7.494999547258832 $194 $420 forward 7 unknown #
point $-1 47.159642323068944 -22.787374521223128 7.494999547258832 #
point $-1 47.159642323068944 22.787374521223128 7.494999547258832 #
face $-1 $-1 $322 $28 $-1 $421 reversed single #
loop $-1 $-1 $422 $199 #
plane-surface $-1 -47.159642323068944 0 0 1 0 0 0 0 -1 forward_v I I I I #
coedge $-1 $309 $325 $203 $312 forward $200 $-1 #
coedge $-1 $210 $308 $202 $310 forward $200 $-1 #
edge $-1 $316 -0.15174971817351324 $213 3.1531683536220116 $309 $423 forward 7 unknown #
coedge $-1 $204 $203 $422 $424 reversed $77 $-1 #
edge $-1 $425 -24.818609609456058 $316 -19.863455817769715 $308 $426 forward 7 unknown #
coedge $-1 $321 $320 $204 $314 forward $322 $-1 #
edge $-1 $315 19.863455817769715 $427 24.818609609456058 $313 $428 forward 7 unknown #
vertex $-1 $314 $429 #
vertex $-1 $312 $430 #
straight-curve $-1 -42.204488531382601 0 1.348959599550736 0 -1 0 I I #
coedge $-1 $431 $432 $207 $319 forward $306 $-1 #
edge $-1 $326 -22.787374521223128 $323 22.787374521223128 $318 $433 forward 7 unknown #
coedge $-1 $313 $208 $212 $328 forward $322 $-1 #
coedge $-1 $208 $313 $431 $434 reversed $322 $-1 #
loop $-1 $-1 $313 $305 #
vertex $-1 $434 $435 #
straight-curve $-1 -22.341032713612886 22.787374521223128 4.6538776713462608 1 0 0 I I #
coedge $-1 $308 $210 $432 $436 forward $200 $-1 #
vertex $-1 $436 $437 #
straight-curve $-1 -22.341032713612886 -22.787374521223128 4.6538776713462608 -1 0 0 I I #
edge $-1 $214 -3.1531683536220116 $315 0.15174971817351324 $320 $438 forward 7 unknown #
point $-1 -42.204488531382601 -22.787374521223128 4.6538776713462608 #
point $-1 -42.204488531382601 22.787374521223128 4.6538776713462608 #
face $-1 $-1 $347 $29 $-1 $439 reversed single #
loop $-1 $-1 $343 $216 #
plane-surface $-1 0 0 7.494999547258832 0 0 1 1 0 0 forward_v I I I I #
coedge $-1 $335 $440 $337 $441 forward $217 $-1 #
coedge $-1 $442 $334 $219 $336 reversed $217 $-1 #
edge $-1 $443 -22.787374521223128 $444 22.787374521223128 $335 $445 forward 7 unknown #
coedge $-1 $221 $220 $334 $441 reversed $81 $-1 #
edge $-1 $444 -2.9328900553875812 $229 2.9328900553875812 $220 $446 forward 7 unknown #
coedge $-1 $447 $343 $221 $340 forward $332 $-1 #
edge $-1 $341 -2.9328900553875741 $448 2.9328900553875812 $221 $449 forward 7 unknown #
vertex $-1 $340 $450 #
straight-curve $-1 47.159642323068944 -22.787374521223128 0 0 0 -1 I I #
coedge $-1 $339 $451 $223 $344 forward $332 $-1 #
edge $-1 $348 -22.787374521223128 $341 22.787374521223128 $343 $452 forward 7 unknown #
coedge $-1 $453 $224 $451 $454 reversed $347 $-1 #
coedge $-1 $224 $453 $226 $350 reversed $347 $-1 #
loop $-1 $-1 $224 $331 #
vertex $-1 $225 $455 #
straight-curve $-1 47.159642323068944 22.787374521223128 0 0 0 1 I I #
edge $-1 $228 -2.9328900553875812 $443 2.9328900553875812 $346 $456 forward 7 unknown #
point $-1 47.159642323068937 22.787374521223128 4.494999547258832 #
point $-1 47.159642323068937 -22.787374521223128 4.494999547258832 #
plane-surface $-1 0 0 7.494999547258832 0 0 1 1 0 0 forward_v I I I I #
coedge $-1 $364 $363 $356 $457 forward $232 $-1 #
coedge $-1 $356 $234 $236 $360 reversed $137 $-1 #
coedge $-1 $234 $355 $354 $457 reversed $137 $-1 #
coedge $-1 $242 $237 $234 $358 forward $243 $-1 #
edge $-1 $361 -20.570534887790984 $458 -18.054074434017039 $357 $459 forward 7 unknown #
coedge $-1 $236 $235 $364 $460 reversed $85 $-1 #
edge $-1 $461 -45.574749042446264 $361 -40.541828000041527 $355 $462 forward 7 unknown #
vertex $-1 $238 $463 #
straight-curve $-1 -9.1361558008740928 20.270914067449183 7.4949995472588355 1 0 0 I I #
coedge $-1 $354 $239 $242 $368 reversed $232 $-1 #
coedge $-1 $239 $354 $359 $460 forward $232 $-1 #
vertex $-1 $240 $464 #
straight-curve $-1 -26.733122754941689 22.787374521223128 44.882446942087697 0 0 1 I I #
straight-curve $-1 -26.733122754941689 6.1058645428602176e-007 42.605252824746493 0 0.49999998660252726 -0.86602541151947299 I I #
edge $-1 $458 9.8115004485546837 $244 26.733122754941689 $363 $465 forward 7 unknown #
point $-1 -26.733122754941689 22.787374521223128 7.494999547258832 #
point $-1 -26.733122754941689 20.270914067449183 7.4949995472588355 #
edge $-1 $466 1 $466 0 $247 $-1 forward 7 unknown #
vertex $-1 $248 $467 #
ellipse-curve $-1 -21.898373524545399 20.32827968671878 4.6223613091138001 0 0.86602541151947299 0.49999998660252726 1 0 0 1 I I #
point $-1 -20.898373524545399 21.529144294336163 5.3156807888120463 #
edge $-1 $468 1 $468 0 $251 $-1 forward 7 unknown #
vertex $-1 $252 $469 #
ellipse-curve $-1 -14.646249678950973 20.32827968671878 4.6223613091138001 0 0.86602541151947299 0.49999998660252726 1 0 0 1 I I #
point $-1 -13.646249678950973 21.529144294336163 5.3156807888120463 #
loop $-1 $-1 $263 $255 #
plane-surface $-1 0 -22.787374521223128 0 0 1 0 0 0 1 forward_v I I I I #
coedge $-1 $382 $258 $260 $386 reversed $159 $-1 #
coedge $-1 $258 $381 $470 $471 reversed $159 $-1 #
coedge $-1 $266 $261 $258 $384 forward $256 $-1 #
edge $-1 $387 -31.495389659189613 $472 -26.269678127558528 $383 $473 forward 7 unknown #
coedge $-1 $260 $259 $390 $474 reversed $99 $-1 #
edge $-1 $475 0 $387 8.6832522043501701 $381 $476 forward 7 unknown #
vertex $-1 $262 $477 #
straight-curve $-1 17.170551286716002 -17.56166298959204 7.494999547258832 -1 0 0 I I #
coedge $-1 $470 $263 $266 $394 reversed $379 $-1 #
coedge $-1 $263 $470 $385 $474 forward $379 $-1 #
vertex $-1 $264 $478 #
straight-curve $-1 41.293862212293782 -22.787374521223128 28.6615036832005 0 0 1 I I #
straight-curve $-1 41.293862212293782 -22.787374521223128 0.56024592275781515 0 -0.60181501223851219 -0.79863551827123203 I I #
edge $-1 $472 -22.704189443886293 $267 -8.7986701661627365 $389 $479 forward 7 unknown #
point $-1 41.293862212293782 -22.787374521223128 7.494999547258832 #
point $-1 41.293862212293782 -17.561662989592044 7.4949995472588329 #
edge $-1 $480 1 $480 0 $270 $-1 forward 7 unknown #
vertex $-1 $271 $481 #
ellipse-curve $-1 31.361348442491241 -17.540730104023336 2.0429206860717111 0 -0.79863551827123203 0.60181501223851219 1 0 0 1 I I #
point $-1 32.361348442491241 -20.174518755407583 4.02762273500832 #
edge $-1 $482 1 $482 0 $274 $-1 forward 7 unknown #
vertex $-1 $275 $483 #
ellipse-curve $-1 37.320856704372765 -17.540730104023336 2.0429206860717111 0 -0.79863551827123203 0.60181501223851219 1 0 0 1 I I #
point $-1 38.320856704372765 -20.174518755407583 4.02762273500832 #
plane-surface $-1 47.159642323068944 0 0 -1 0 0 0 0 1 forward_v I I I I #
coedge $-1 $283 $281 $285 $410 reversed $181 $-1 #
edge $-1 $296 -7.494999547258832 $412 7.494999547258832 $295 $484 forward 7 unknown #
vertex $-1 $410 $485 #
straight-curve $-1 -47.159642323068944 -22.787374521223128 0 0 0 -1 I I #
edge $-1 $408 -22.787374521223128 $412 22.787374521223128 $406 $486 forward 7 unknown #
straight-curve $-1 0 -22.787374521223128 -7.494999547258832 -1 0 0 I I #
vertex $-1 $288 $487 #
straight-curve $-1 0 22.787374521223128 -7.494999547258832 1 0 0 I I #
point $-1 47.159642323068944 22.787374521223128 -7.494999547258832 #
point $-1 47.159642323068944 -22.787374521223128 -7.494999547258832 #
straight-curve $-1 -47.159642323068944 0 7.494999547258832 0 -1 0 I I #
point $-1 -47.159642323068944 22.787374521223128 7.494999547258832 #
point $-1 -47.159642323068944 -22.787374521223128 7.494999547258832 #
straight-curve $-1 47.159642323068944 -22.787374521223128 0 0 0 -1 I I #
straight-curve $-1 47.159642323068944 22.787374521223128 0 0 0 -1 I I #
plane-surface $-1 0 22.787374521223128 0 0 -1 0 0 0 -1 forward_v I I I I #
coedge $-1 $432 $431 $311 $424 forward $306 $-1 #
straight-curve $-1 -42.204488531382601 -22.787374521223128 1.5007093177242492 0 0 1 I I #
edge $-1 $427 -22.787374521223128 $425 22.787374521223128 $422 $488 forward 7 unknown #
vertex $-1 $312 $489 #
straight-curve $-1 -22.341032713612886 -22.787374521223128 1.348959599550736 1 0 0 I I #
vertex $-1 $314 $490 #
straight-curve $-1 -22.341032713612886 22.787374521223128 1.348959599550736 -1 0 0 I I #
point $-1 -42.204488531382601 22.787374521223128 1.348959599550736 #
point $-1 -42.204488531382601 -22.787374521223128 1.348959599550736 #
coedge $-1 $422 $318 $321 $434 forward $306 $-1 #
coedge $-1 $318 $422 $325 $436 reversed $306 $-1 #
straight-curve $-1 -47.159642323068944 0 4.6538776713462608 0 1 0 I I #
edge $-1 $323 -4.6538776713462608 $427 -1.348959599550736 $321 $491 forward 7 unknown #
point $-1 -47.159642323068944 22.787374521223128 4.6538776713462608 #
edge $-1 $326 -4.6538776713462608 $425 -1.348959599550736 $432 $492 forward 7 unknown #
point $-1 -47.159642323068944 -22.787374521223128 4.6538776713462608 #
straight-curve $-1 -42.204488531382601 22.787374521223128 1.5007093177242492 0 0 -1 I I #
plane-surface $-1 0 22.787374521223128 0 0 -1 0 0 0 -1 forward_v I I I I #
coedge $-1 $334 $442 $447 $493 reversed $217 $-1 #
edge $-1 $448 -1.5 $444 1.5 $334 $494 forward 7 unknown #
coedge $-1 $440 $335 $453 $495 reversed $217 $-1 #
vertex $-1 $336 $496 #
vertex $-1 $441 $497 #
straight-curve $-1 53.025422433844099 0 4.494999547258832 0 -1 0 I I #
straight-curve $-1 50.092532378456518 -22.787374521223128 4.494999547258832 -1 0 0 I I #
coedge $-1 $451 $339 $440 $493 forward $332 $-1 #
vertex $-1 $493 $498 #
straight-curve $-1 50.092532378456518 -22.787374521223128 7.494999547258832 1 0 0 I I #
point $-1 47.159642323068944 -22.787374521223128 7.494999547258832 #
coedge $-1 $343 $447 $345 $454 forward $332 $-1 #
straight-curve $-1 47.159642323068944 0 7.494999547258832 0 -1 0 I I #
coedge $-1 $346 $345 $442 $495 forward $347 $-1 #
edge $-1 $499 -53.025422433844099 $348 -47.159642323068944 $345 $500 forward 7 unknown #
point $-1 47.159642323068944 22.787374521223128 7.494999547258832 #
straight-curve $-1 50.092532378456518 22.787374521223128 4.494999547258832 1 0 0 I I #
edge $-1 $458 37.387447394828868 $461 41.746084911722434 $354 $501 forward 7 unknown #
vertex $-1 $368 $502 #
straight-curve $-1 -9.8115004485546837 40.841448955240168 7.4949995472588284 0 1 0 I I #
edge $-1 $461 0.67534464768059088 $365 17.596966954067597 $364 $503 forward 7 unknown #
vertex $-1 $460 $504 #
straight-curve $-1 -9.8115004485546837 6.1058645428602176e-007 42.605252824746493 0 -0.49999998660252726 0.86602541151947299 I I #
point $-1 -9.8115004485546837 20.270914067449183 7.4949995472588355 #
point $-1 -26.733122754941689 22.787374521223128 3.1363620303652624 #
straight-curve $-1 0 22.787374521223128 7.494999547258832 -1 0 0 I I #
vertex $-1 $371 $505 #
point $-1 -20.898373524545399 20.32827968671878 4.6223613091138001 #
vertex $-1 $375 $506 #
point $-1 -13.646249678950973 20.32827968671878 4.6223613091138001 #
coedge $-1 $390 $389 $382 $471 forward $379 $-1 #
edge $-1 $472 21.166504135941668 $475 28.101257760442685 $470 $507 forward 7 unknown #
vertex $-1 $394 $508 #
straight-curve $-1 27.388342934570225 -49.057052648781657 7.494999547258832 0 -1 0 I I #
edge $-1 $475 10.217791647854224 $391 24.12331092557778 $390 $509 forward 7 unknown #
vertex $-1 $474 $510 #
straight-curve $-1 27.388342934570225 -22.787374521223128 0.56024592275781515 0 0.60181501223851219 0.79863551827123203 I I #
point $-1 27.388342934570225 -17.561662989592044 7.4949995472588329 #
point $-1 41.293862212293782 -22.787374521223128 0.56024592275781515 #
straight-curve $-1 50.092532378456518 -22.787374521223128 7.494999547258832 1 0 0 I I #
vertex $-1 $397 $511 #
point $-1 32.361348442491241 -17.540730104023336 2.0429206860717111 #
vertex $-1 $401 $512 #
point $-1 38.320856704372765 -17.540730104023336 2.0429206860717111 #
straight-curve $-1 -47.159642323068944 22.787374521223128 0 0 0 -1 I I #
point $-1 -47.159642323068944 -22.787374521223128 -7.494999547258832 #
straight-curve $-1 -47.159642323068944 0 -7.494999547258832 0 1 0 I I #
point $-1 -47.159642323068944 22.787374521223128 -7.494999547258832 #
straight-curve $-1 -47.159642323068944 0 1.348959599550736 0 -1 0 I I #
point $-1 -47.159642323068944 -22.787374521223128 1.348959599550736 #
point $-1 -47.159642323068944 22.787374521223128 1.348959599550736 #
straight-curve $-1 -47.159642323068944 22.787374521223128 0 0 0 -1 I I #
straight-curve $-1 -47.159642323068944 -22.787374521223128 0 0 0 -1 I I #
edge $-1 $448 -22.787374521223128 $499 22.787374521223128 $440 $513 forward 7 unknown #
straight-curve $-1 53.025422433844099 -22.787374521223128 5.994999547258832 0 0 -1 I I #
edge $-1 $499 -1.5 $443 1.5 $442 $514 forward 7 unknown #
point $-1 53.025422433844099 22.787374521223128 4.494999547258832 #
point $-1 53.025422433844099 -22.787374521223128 4.494999547258832 #
point $-1 53.025422433844099 -22.787374521223128 7.494999547258832 #
vertex $-1 $493 $515 #
straight-curve $-1 0 22.787374521223128 7.494999547258832 -1 0 0 I I #
straight-curve $-1 -9.8115004485546837 22.787374521223128 44.882446942087697 0 0 -1 I I #
point $-1 -9.8115004485546837 22.787374521223128 7.494999547258832 #
straight-curve $-1 -9.1361558008740928 22.787374521223128 3.1363620303652624 -1 0 0 I I #
point $-1 -9.8115004485546837 22.787374521223128 3.1363620303652624 #
point $-1 -21.898373524545399 19.462254275199307 4.1223613225112734 #
point $-1 -14.646249678950973 19.462254275199307 4.1223613225112734 #
straight-curve $-1 27.388342934570225 -22.787374521223128 28.6615036832005 0 0 -1 I I #
point $-1 27.388342934570225 -22.787374521223128 7.494999547258832 #
straight-curve $-1 17.170551286716002 -22.787374521223128 0.56024592275781293 1 0 0 I I #
point $-1 27.388342934570225 -22.787374521223128 0.56024592275781515 #
point $-1 31.361348442491241 -16.742094585752103 1.4411056738331987 #
point $-1 37.320856704372765 -16.742094585752103 1.4411056738331987 #
straight-curve $-1 53.025422433844099 0 7.494999547258832 0 1 0 I I #
straight-curve $-1 53.025422433844099 22.787374521223128 5.994999547258832 0 0 -1 I I #
point $-1 53.025422433844099 22.787374521223128 7.494999547258832 #
End-of-ACIS-data 