500 0 6 0           
7 Unknown 11 ACIS 5.0 NT 24 Thu Mar 25 15:36:03 1999 
-1 9.9999999999999995e-007 1e-010 
body $-1 $6 $-1 $7 #
body $-1 $8 $-1 $9 #
body $-1 $10 $-1 $11 #
body $-1 $12 $-1 $13 #
body $-1 $14 $-1 $15 #
body $-1 $16 $-1 $17 #
lump $-1 $-1 $18 $0 #
transform $-1 1 0 0 0 1 0 0 0 1 60.846583452864159 33.790679477322428 13.758304093957248 1 rotate no_reflect no_shear #
lump $-1 $-1 $19 $1 #
transform $-1 1 0 0 0 1 0 0 0 1 60.846583452864159 33.790679477322428 13.758304093957248 1 rotate no_reflect no_shear #
lump $-1 $-1 $20 $2 #
transform $-1 1 0 0 0 1 0 0 0 1 60.846583452864159 33.790679477322428 13.758304093957248 1 rotate no_reflect no_shear #
lump $-1 $-1 $21 $3 #
transform $-1 1 0 0 0 1 0 0 0 1 60.846583452864159 33.790679477322428 13.758304093957248 1 rotate no_reflect no_shear #
lump $-1 $-1 $22 $4 #
transform $-1 1 0 0 0 1 0 0 0 1 60.846583452864159 33.790679477322428 13.758304093957248 1 rotate no_reflect no_shear #
lump $-1 $-1 $23 $5 #
transform $-1 1 0 0 0 1 0 0 0 1 60.846583452864159 33.790679477322428 13.758304093957248 1 rotate no_reflect no_shear #
shell $-1 $-1 $-1 $24 $-1 $6 #
shell $-1 $-1 $-1 $25 $-1 $8 #
shell $-1 $-1 $-1 $26 $-1 $10 #
shell $-1 $-1 $-1 $27 $-1 $12 #
shell $-1 $-1 $-1 $28 $-1 $14 #
shell $-1 $-1 $-1 $29 $-1 $16 #
face $-1 $30 $31 $18 $-1 $32 forward single #
face $-1 $33 $34 $19 $-1 $35 forward single #
face $-1 $36 $37 $20 $-1 $38 forward single #
face $-1 $39 $40 $21 $-1 $41 reversed single #
face $-1 $42 $43 $22 $-1 $44 forward single #
face $-1 $45 $46 $23 $-1 $47 forward single #
face $-1 $48 $49 $18 $-1 $50 reversed single #
loop $-1 $-1 $51 $24 #
plane-surface $-1 0 0 13.758304093957248 0 0 1 1 0 0 forward_v I I I I #
face $-1 $52 $53 $19 $-1 $54 reversed single #
loop $-1 $-1 $55 $25 #
plane-surface $-1 -54.704158001645212 0 -8.9609736213751034 0 0 1 1 0 0 forward_v I I I I #
face $-1 $56 $57 $20 $-1 $58 reversed single #
loop $-1 $-1 $59 $26 #
plane-surface $-1 54.687946321568681 0 13.258304093957252 0 0 1 1 0 0 forward_v I I I I #
face $-1 $60 $61 $21 $-1 $62 reversed single #
loop $-1 $-1 $63 $27 #
plane-surface $-1 -13.21973407163852 -136.99233895134415 68.73019865863138 1 0 0 0 0.84804810408105047 -0.52991925155115449 forward_v I I I I #
face $-1 $64 $65 $22 $-1 $66 forward single #
loop $-1 $67 $68 $28 #
cone-surface $-1 -10.33632455191573 -29.180182880731834 7.9772672734158228 0 0.84804810408105047 -0.52991925155115449 1 0 0 1 I I 0 1 1 forward I I I I #
face $-1 $69 $70 $23 $-1 $71 forward single #
loop $-1 $72 $73 $29 #
cone-surface $-1 -6.0112102723315459 -29.180182880731834 7.9772672734158228 0 0.84804810408105047 -0.52991925155115449 1 0 0 1 I I 0 1 1 forward I I I I #
face $-1 $74 $75 $18 $-1 $76 reversed single #
loop $-1 $-1 $77 $30 #
plane-surface $-1 0 0 -13.758304093957248 0 0 1 1 0 0 forward_v I I I I #
coedge $-1 $78 $79 $80 $81 forward $31 $-1 #
face $-1 $82 $83 $19 $-1 $84 reversed single #
loop $-1 $-1 $85 $33 #
plane-surface $-1 -48.561732550426264 0 -11.359638857666177 -1 0 0 0 0 1 forward_v I I I I #
coedge $-1 $86 $87 $88 $89 forward $34 $-1 #
face $-1 $90 $91 $20 $-1 $92 reversed single #
loop $-1 $-1 $93 $36 #
plane-surface $-1 54.687946321568681 0 8.4609736213751052 0 0 1 1 0 0 forward_v I I I I #
coedge $-1 $94 $95 $96 $97 reversed $37 $-1 #
face $-1 $98 $99 $21 $-1 $100 reversed single #
loop $-1 $-1 $101 $39 #
plane-surface $-1 -8.1737674121236381 -33.790679477322414 4.242646733058109 0 -0.84804810408105047 0.52991925155115449 1 0 0 forward_v I I I I #
coedge $-1 $102 $103 $104 $105 reversed $40 $-1 #
face $-1 $-1 $106 $22 $-1 $107 forward single #
loop $-1 $108 $109 $42 #
cone-surface $-1 -10.33632455191573 -27.118683457216839 6.6890995075483861 0 0.84804810408105047 -0.52991925155115449 0.5 0 0 1 I I -0.70710678118654746 0.70710678118654746 0.5 forward I I I I #
loop $-1 $-1 $110 $28 #
coedge $-1 $68 $68 $111 $112 reversed $43 $-1 #
face $-1 $-1 $113 $23 $-1 $114 forward single #
loop $-1 $115 $116 $45 #
cone-surface $-1 -6.0112102723315459 -27.118683457216839 6.6890995075483861 0 0.84804810408105047 -0.52991925155115449 0.5 0 0 1 I I -0.70710678118654746 0.70710678118654746 0.5 forward I I I I #
loop $-1 $-1 $117 $29 #
coedge $-1 $73 $73 $118 $119 reversed $46 $-1 #
face $-1 $120 $121 $18 $-1 $122 reversed single #
loop $-1 $-1 $123 $48 #
plane-surface $-1 0 -33.790679477322428 0 0 1 0 0 0 1 forward_v I I I I #
coedge $-1 $124 $125 $126 $127 forward $49 $-1 #
coedge $-1 $128 $51 $129 $130 forward $31 $-1 #
coedge $-1 $51 $128 $131 $132 forward $31 $-1 #
coedge $-1 $133 $134 $51 $81 reversed $135 $-1 #
edge $-1 $136 -33.790679477322428 $137 33.790679477322428 $80 $138 forward 7 unknown #
face $-1 $139 $140 $19 $-1 $141 reversed single #
loop $-1 $-1 $142 $52 #
plane-surface $-1 0 0 -13.758304093957248 0 0 1 1 0 0 forward_v I I I I #
coedge $-1 $143 $88 $144 $145 reversed $53 $-1 #
coedge $-1 $146 $55 $147 $148 reversed $34 $-1 #
coedge $-1 $55 $146 $149 $150 reversed $34 $-1 #
coedge $-1 $85 $151 $55 $89 reversed $53 $-1 #
edge $-1 $152 -33.790679477322428 $153 33.790679477322428 $88 $154 forward 7 unknown #
face $-1 $155 $156 $20 $-1 $157 reversed single #
loop $-1 $-1 $158 $56 #
plane-surface $-1 48.529309190273203 0 10.859638857666178 1 0 0 0 0 -1 forward_v I I I I #
coedge $-1 $159 $160 $161 $162 reversed $57 $-1 #
coedge $-1 $163 $59 $164 $165 reversed $37 $-1 #
coedge $-1 $59 $163 $166 $167 reversed $37 $-1 #
coedge $-1 $168 $169 $59 $97 forward $170 $-1 #
edge $-1 $171 -33.790679477322428 $172 33.790679477322428 $96 $173 forward 7 unknown #
face $-1 $174 $175 $21 $-1 $176 forward single #
loop $-1 $-1 $177 $60 #
plane-surface $-1 -3.1278007526087563 -136.99233895134415 68.73019865863138 -1 0 0 0 -0.84804810408105047 0.52991925155115449 forward_v I I I I #
coedge $-1 $178 $179 $180 $181 reversed $61 $-1 #
coedge $-1 $103 $63 $182 $183 reversed $40 $-1 #
coedge $-1 $63 $102 $178 $184 reversed $40 $-1 #
coedge $-1 $180 $185 $63 $105 forward $186 $-1 #
edge $-1 $187 20.60679523535844 $188 30.122452596257602 $104 $189 forward 7 unknown #
loop $-1 $-1 $111 $64 #
plane-surface $-1 -8.1737674121236381 -33.790679477322414 4.242646733058109 0 -0.84804810408105047 0.52991925155115449 1 0 0 forward_v I I I I #
loop $-1 $-1 $190 $42 #
coedge $-1 $109 $109 $110 $191 reversed $65 $-1 #
coedge $-1 $110 $110 $109 $191 forward $67 $-1 #
coedge $-1 $111 $111 $68 $112 forward $106 $-1 #
edge $-1 $192 1.5747545419071707e-018 $192 6.2831853071796004 $111 $193 forward 7 unknown #
loop $-1 $-1 $118 $69 #
plane-surface $-1 -8.1737674121236381 -33.790679477322414 4.242646733058109 0 -0.84804810408105047 0.52991925155115449 1 0 0 forward_v I I I I #
loop $-1 $-1 $194 $45 #
coedge $-1 $116 $116 $117 $195 reversed $70 $-1 #
coedge $-1 $117 $117 $116 $195 forward $72 $-1 #
coedge $-1 $118 $118 $73 $119 forward $113 $-1 #
edge $-1 $196 1.5747545419071707e-018 $196 6.2831853071796004 $118 $197 forward 7 unknown #
face $-1 $198 $199 $18 $-1 $200 reversed single #
loop $-1 $-1 $201 $74 #
plane-surface $-1 -60.846583452864159 0 0 1 0 0 0 0 -1 forward_v I I I I #
coedge $-1 $202 $131 $203 $204 forward $75 $-1 #
coedge $-1 $205 $77 $202 $206 forward $49 $-1 #
coedge $-1 $77 $205 $207 $208 forward $49 $-1 #
coedge $-1 $134 $133 $77 $127 reversed $135 $-1 #
edge $-1 $209 -33.790679477322428 $210 33.790679477322428 $126 $211 forward 7 unknown #
coedge $-1 $79 $78 $212 $213 forward $31 $-1 #
coedge $-1 $214 $215 $78 $130 reversed $199 $-1 #
edge $-1 $137 -60.846583452864159 $216 60.846583452864159 $129 $217 forward 7 unknown #
coedge $-1 $123 $218 $79 $132 reversed $75 $-1 #
edge $-1 $219 -60.846583452864159 $136 60.846583452864159 $131 $220 forward 7 unknown #
coedge $-1 $126 $80 $218 $221 forward $135 $-1 #
coedge $-1 $80 $126 $214 $222 reversed $135 $-1 #
loop $-1 $-1 $133 $198 #
vertex $-1 $81 $223 #
vertex $-1 $81 $224 #
straight-curve $-1 60.846583452864159 0 13.758304093957248 0 1 0 I I #
face $-1 $225 $226 $19 $-1 $227 reversed single #
loop $-1 $-1 $144 $82 #
plane-surface $-1 0 -33.790679477322428 0 0 1 0 0 0 1 forward_v I I I I #
coedge $-1 $228 $229 $143 $230 forward $83 $-1 #
coedge $-1 $151 $85 $142 $230 reversed $53 $-1 #
coedge $-1 $149 $231 $85 $145 forward $140 $-1 #
edge $-1 $232 -8.0784846651241615 $152 -3.2811541925420151 $144 $233 forward 7 unknown #
coedge $-1 $87 $86 $234 $235 reversed $34 $-1 #
coedge $-1 $236 $237 $86 $148 forward $238 $-1 #
edge $-1 $239 -33.494504452041554 $153 -21.209653549603658 $147 $240 forward 7 unknown #
coedge $-1 $241 $144 $87 $150 forward $140 $-1 #
edge $-1 $152 21.209653549603658 $242 33.494504452041554 $149 $243 forward 7 unknown #
coedge $-1 $88 $143 $236 $244 reversed $53 $-1 #
vertex $-1 $150 $245 #
vertex $-1 $148 $246 #
straight-curve $-1 -48.561732550426264 0 -8.9609736213751034 0 1 0 I I #
face $-1 $247 $248 $20 $-1 $249 reversed single #
loop $-1 $-1 $166 $90 #
plane-surface $-1 0 -33.790679477322428 0 0 1 0 0 0 1 forward_v I I I I #
coedge $-1 $250 $251 $252 $253 reversed $91 $-1 #
coedge $-1 $254 $93 $255 $256 reversed $57 $-1 #
coedge $-1 $93 $254 $257 $258 reversed $57 $-1 #
coedge $-1 $169 $168 $93 $162 forward $170 $-1 #
edge $-1 $259 -33.790679477322428 $260 33.790679477322428 $161 $261 forward 7 unknown #
coedge $-1 $95 $94 $251 $262 forward $37 $-1 #
coedge $-1 $263 $252 $94 $165 forward $248 $-1 #
edge $-1 $264 21.185336029488862 $171 33.502610292079822 $164 $265 forward 7 unknown #
coedge $-1 $266 $267 $95 $167 forward $156 $-1 #
edge $-1 $172 -33.502610292079822 $268 -21.185336029488862 $166 $269 forward 7 unknown #
coedge $-1 $161 $96 $267 $270 forward $170 $-1 #
coedge $-1 $96 $161 $263 $271 reversed $170 $-1 #
loop $-1 $-1 $96 $247 #
vertex $-1 $271 $272 #
vertex $-1 $270 $273 #
straight-curve $-1 60.846583452864159 0 13.258304093957252 0 -1 0 I I #
face $-1 $-1 $186 $21 $-1 $274 reversed single #
loop $-1 $-1 $275 $98 #
plane-surface $-1 0 0 13.758304093957248 0 0 1 1 0 0 forward_v I I I I #
coedge $-1 $276 $277 $278 $279 reversed $99 $-1 #
coedge $-1 $280 $101 $103 $184 forward $61 $-1 #
coedge $-1 $101 $280 $276 $281 forward $61 $-1 #
coedge $-1 $278 $104 $101 $181 forward $186 $-1 #
edge $-1 $188 -9.1328503655767008 $282 0.95908295345306271 $180 $283 forward 7 unknown #
coedge $-1 $284 $285 $102 $183 forward $175 $-1 #
edge $-1 $286 -40.651532448581918 $187 -34.705489998349648 $182 $287 forward 7 unknown #
edge $-1 $188 -2.7114274142304302e-014 $286 11.220657548913874 $103 $288 forward 7 unknown #
coedge $-1 $104 $278 $284 $289 reversed $186 $-1 #
loop $-1 $-1 $278 $174 #
vertex $-1 $289 $290 #
vertex $-1 $105 $291 #
straight-curve $-1 -13.21973407163852 -33.790679477322428 34.36509932931569 0 0 -1 I I #
coedge $-1 $190 $190 $-1 $292 reversed $108 $-1 #
edge $-1 $293 0 $293 6.2831853071796004 $109 $294 forward 7 unknown #
vertex $-1 $112 $295 #
ellipse-curve $-1 -10.33632455191573 -30.817658252206289 9.0004754135076741 0 -0.84804810408105047 0.52991925155115449 1 0 0 1 I I #
coedge $-1 $194 $194 $-1 $296 reversed $115 $-1 #
edge $-1 $297 0 $297 6.2831853071796004 $116 $298 forward 7 unknown #
vertex $-1 $119 $299 #
ellipse-curve $-1 -6.0112102723315459 -30.817658252206289 9.0004754135076741 0 -0.84804810408105047 0.52991925155115449 1 0 0 1 I I #
face $-1 $-1 $135 $18 $-1 $300 reversed single #
loop $-1 $-1 $214 $120 #
plane-surface $-1 0 33.790679477322428 0 0 -1 0 0 0 -1 forward_v I I I I #
coedge $-1 $301 $212 $215 $302 forward $121 $-1 #
coedge $-1 $218 $123 $124 $206 reversed $75 $-1 #
coedge $-1 $212 $301 $123 $204 reversed $121 $-1 #
edge $-1 $219 -13.758304093957248 $303 13.758304093957248 $203 $304 forward 7 unknown #
coedge $-1 $125 $124 $301 $305 forward $49 $-1 #
edge $-1 $210 -60.846583452864159 $303 60.846583452864159 $202 $306 forward 7 unknown #
coedge $-1 $215 $214 $125 $208 reversed $199 $-1 #
edge $-1 $307 -60.846583452864159 $209 60.846583452864159 $207 $308 forward 7 unknown #
vertex $-1 $127 $309 #
vertex $-1 $221 $310 #
straight-curve $-1 60.846583452864159 0 -13.758304093957248 0 -1 0 I I #
coedge $-1 $201 $203 $128 $213 reversed $121 $-1 #
edge $-1 $216 -33.790679477322428 $219 33.790679477322428 $212 $311 forward 7 unknown #
coedge $-1 $207 $129 $134 $222 forward $199 $-1 #
coedge $-1 $129 $207 $201 $302 reversed $199 $-1 #
vertex $-1 $130 $312 #
straight-curve $-1 0 33.790679477322428 13.758304093957248 -1 0 0 I I #
coedge $-1 $131 $202 $133 $221 reversed $75 $-1 #
vertex $-1 $213 $313 #
straight-curve $-1 0 -33.790679477322428 13.758304093957248 1 0 0 I I #
edge $-1 $136 -13.758304093957248 $210 13.758304093957248 $133 $314 forward 7 unknown #
edge $-1 $137 -13.758304093957248 $209 13.758304093957248 $134 $315 forward 7 unknown #
point $-1 60.846583452864159 -33.790679477322428 13.758304093957248 #
point $-1 60.846583452864159 33.790679477322428 13.758304093957248 #
face $-1 $-1 $238 $19 $-1 $316 reversed single #
loop $-1 $-1 $234 $139 #
plane-surface $-1 -60.846583452864159 0 0 1 0 0 0 0 -1 forward_v I I I I #
coedge $-1 $317 $142 $231 $318 forward $83 $-1 #
coedge $-1 $142 $317 $319 $320 forward $83 $-1 #
edge $-1 $321 -33.790679477322428 $232 33.790679477322428 $142 $322 forward 7 unknown #
coedge $-1 $144 $241 $228 $318 reversed $140 $-1 #
vertex $-1 $318 $323 #
straight-curve $-1 -48.561732550426264 -33.790679477322428 -5.6798194288330883 0 0 1 I I #
coedge $-1 $324 $325 $146 $235 forward $226 $-1 #
edge $-1 $242 -33.790679477322428 $239 33.790679477322428 $234 $326 forward 7 unknown #
coedge $-1 $319 $147 $151 $244 forward $238 $-1 #
coedge $-1 $147 $319 $324 $327 reversed $238 $-1 #
loop $-1 $-1 $236 $225 #
vertex $-1 $327 $328 #
straight-curve $-1 -27.352079000822606 33.790679477322428 -8.9609736213751034 1 0 0 I I #
coedge $-1 $231 $149 $325 $329 forward $140 $-1 #
vertex $-1 $329 $330 #
straight-curve $-1 -27.352079000822606 -33.790679477322428 -8.9609736213751034 -1 0 0 I I #
edge $-1 $153 3.2811541925420151 $321 8.0784846651241615 $236 $331 forward 7 unknown #
point $-1 -48.561732550426264 -33.790679477322428 -8.9609736213751034 #
point $-1 -48.561732550426264 33.790679477322428 -8.9609736213751034 #
face $-1 $-1 $170 $20 $-1 $332 reversed single #
loop $-1 $-1 $164 $155 #
plane-surface $-1 0 33.790679477322428 0 0 -1 0 0 0 -1 forward_v I I I I #
coedge $-1 $333 $158 $254 $334 reversed $91 $-1 #
coedge $-1 $158 $333 $163 $262 reversed $91 $-1 #
coedge $-1 $164 $257 $158 $253 forward $248 $-1 #
edge $-1 $335 3.031154192542016 $264 7.8284846651241624 $252 $336 forward 7 unknown #
coedge $-1 $160 $159 $250 $334 forward $57 $-1 #
coedge $-1 $267 $266 $159 $256 forward $156 $-1 #
edge $-1 $337 21.185336029488862 $259 33.502610292079822 $255 $338 forward 7 unknown #
coedge $-1 $252 $263 $160 $258 forward $248 $-1 #
edge $-1 $260 -33.502610292079822 $335 -21.185336029488862 $257 $339 forward 7 unknown #
vertex $-1 $162 $340 #
vertex $-1 $162 $341 #
straight-curve $-1 60.846583452864159 0 8.4609736213751052 0 1 0 I I #
edge $-1 $264 -33.790679477322428 $268 33.790679477322428 $251 $342 forward 7 unknown #
coedge $-1 $257 $164 $169 $271 forward $248 $-1 #
vertex $-1 $165 $343 #
straight-curve $-1 27.343973160784341 33.790679477322428 13.258304093957252 1 0 0 I I #
coedge $-1 $255 $166 $333 $344 forward $156 $-1 #
coedge $-1 $166 $255 $168 $270 reversed $156 $-1 #
vertex $-1 $167 $345 #
straight-curve $-1 27.343973160784341 -33.790679477322428 13.258304093957252 -1 0 0 I I #
edge $-1 $172 -13.258304093957252 $259 -8.4609736213751052 $168 $346 forward 7 unknown #
edge $-1 $171 -13.258304093957252 $260 -8.4609736213751052 $169 $347 forward 7 unknown #
point $-1 60.846583452864159 33.790679477322428 13.258304093957252 #
point $-1 60.846583452864159 -33.790679477322428 13.258304093957252 #
plane-surface $-1 0 -33.790679477322428 0 0 1 0 0 0 1 forward_v I I I I #
coedge $-1 $285 $284 $277 $348 forward $175 $-1 #
coedge $-1 $277 $177 $179 $281 reversed $99 $-1 #
coedge $-1 $177 $276 $275 $348 reversed $99 $-1 #
coedge $-1 $185 $180 $177 $279 forward $186 $-1 #
edge $-1 $282 -30.122452596257602 $349 -20.60679523535844 $278 $350 forward 7 unknown #
coedge $-1 $179 $178 $285 $351 reversed $61 $-1 #
edge $-1 $352 -11.220657548913874 $282 2.7114274142304302e-014 $276 $353 forward 7 unknown #
vertex $-1 $181 $354 #
straight-curve $-1 -4.0868837060618191 -33.790679477322428 4.242646733058085 1 0 0 I I #
coedge $-1 $275 $182 $185 $289 forward $175 $-1 #
coedge $-1 $182 $275 $280 $351 forward $175 $-1 #
vertex $-1 $183 $355 #
straight-curve $-1 -13.21973407163852 -68.496169475672076 13.75830409395725 0 -1 0 I I #
straight-curve $-1 -13.21973407163852 -33.790679477322414 4.242646733058109 0 0.52991925155115449 0.84804810408105047 I I #
edge $-1 $187 -13.21973407163852 $349 -3.1278007526087563 $185 $356 forward 7 unknown #
point $-1 -13.21973407163852 -33.790679477322428 13.758304093957248 #
point $-1 -13.21973407163852 -33.790679477322428 4.2426467330580859 #
edge $-1 $357 1 $357 0 $190 $-1 forward 7 unknown #
vertex $-1 $191 $358 #
ellipse-curve $-1 -10.33632455191573 -27.542707509257365 6.9540591333239634 0 -0.84804810408105047 0.52991925155115449 1 0 0 1 I I #
point $-1 -9.3363245519157303 -30.817658252206304 9.000475413507683 #
edge $-1 $359 1 $359 0 $194 $-1 forward 7 unknown #
vertex $-1 $195 $360 #
ellipse-curve $-1 -6.0112102723315459 -27.542707509257365 6.9540591333239634 0 -0.84804810408105047 0.52991925155115449 1 0 0 1 I I #
point $-1 -5.0112102723315459 -30.817658252206304 9.000475413507683 #
plane-surface $-1 60.846583452864159 0 0 -1 0 0 0 0 1 forward_v I I I I #
coedge $-1 $203 $201 $205 $305 reversed $121 $-1 #
edge $-1 $216 -13.758304093957248 $307 13.758304093957248 $215 $361 forward 7 unknown #
vertex $-1 $305 $362 #
straight-curve $-1 -60.846583452864159 -33.790679477322428 0 0 0 -1 I I #
edge $-1 $303 -33.790679477322428 $307 33.790679477322428 $301 $363 forward 7 unknown #
straight-curve $-1 0 -33.790679477322428 -13.758304093957248 -1 0 0 I I #
vertex $-1 $208 $364 #
straight-curve $-1 0 33.790679477322428 -13.758304093957248 1 0 0 I I #
point $-1 60.846583452864159 33.790679477322428 -13.758304093957248 #
point $-1 60.846583452864159 -33.790679477322428 -13.758304093957248 #
straight-curve $-1 -60.846583452864159 0 13.758304093957248 0 -1 0 I I #
point $-1 -60.846583452864159 33.790679477322428 13.758304093957248 #
point $-1 -60.846583452864159 -33.790679477322428 13.758304093957248 #
straight-curve $-1 60.846583452864159 -33.790679477322428 0 0 0 -1 I I #
straight-curve $-1 60.846583452864159 33.790679477322428 0 0 0 -1 I I #
plane-surface $-1 0 33.790679477322428 0 0 -1 0 0 0 -1 forward_v I I I I #
coedge $-1 $229 $228 $365 $366 forward $83 $-1 #
edge $-1 $232 48.561732550426264 $367 60.846583452864159 $231 $368 forward 7 unknown #
coedge $-1 $237 $236 $229 $320 reversed $238 $-1 #
edge $-1 $369 -60.846583452864159 $321 -48.561732550426264 $319 $370 forward 7 unknown #
vertex $-1 $244 $371 #
straight-curve $-1 -48.561732550426264 0 -13.758304093957248 0 -1 0 I I #
point $-1 -48.561732550426264 -33.790679477322428 -13.75830409395725 #
coedge $-1 $365 $234 $237 $327 forward $226 $-1 #
coedge $-1 $234 $365 $241 $329 reversed $226 $-1 #
straight-curve $-1 -60.846583452864159 0 -8.9609736213751034 0 1 0 I I #
edge $-1 $239 8.9609736213751034 $369 13.758304093957248 $237 $372 forward 7 unknown #
point $-1 -60.846583452864159 33.790679477322428 -8.9609736213751034 #
edge $-1 $242 8.9609736213751034 $367 13.758304093957248 $325 $373 forward 7 unknown #
point $-1 -60.846583452864159 -33.790679477322428 -8.9609736213751034 #
straight-curve $-1 -48.561732550426264 33.790679477322428 -5.6798194288330883 0 0 -1 I I #
plane-surface $-1 60.846583452864159 0 0 -1 0 0 0 0 1 forward_v I I I I #
coedge $-1 $251 $250 $266 $344 reversed $91 $-1 #
edge $-1 $337 -33.790679477322428 $335 33.790679477322428 $250 $374 forward 7 unknown #
vertex $-1 $258 $375 #
straight-curve $-1 48.529309190273203 33.790679477322428 5.4298194288330892 0 0 1 I I #
vertex $-1 $256 $376 #
straight-curve $-1 27.343973160784341 -33.790679477322428 8.4609736213751052 1 0 0 I I #
straight-curve $-1 27.343973160784341 33.790679477322428 8.4609736213751052 -1 0 0 I I #
point $-1 60.846583452864159 -33.790679477322428 8.4609736213751052 #
point $-1 60.846583452864159 33.790679477322428 8.4609736213751052 #
straight-curve $-1 48.529309190273203 0 13.258304093957252 0 -1 0 I I #
point $-1 48.529309190273203 33.790679477322428 13.258304093957252 #
edge $-1 $268 -7.8284846651241624 $337 -3.031154192542016 $266 $377 forward 7 unknown #
point $-1 48.529309190273203 -33.790679477322428 13.258304093957252 #
straight-curve $-1 60.846583452864159 -33.790679477322428 0 0 0 -1 I I #
straight-curve $-1 60.846583452864159 33.790679477322428 0 0 0 -1 I I #
edge $-1 $349 34.705489998349648 $352 40.651532448581918 $275 $378 forward 7 unknown #
vertex $-1 $348 $379 #
straight-curve $-1 -3.1278007526087563 -33.790679477322428 34.36509932931569 0 0 1 I I #
edge $-1 $352 -0.95908295345306271 $286 9.1328503655767008 $285 $380 forward 7 unknown #
vertex $-1 $351 $381 #
straight-curve $-1 -3.1278007526087563 -33.790679477322414 4.242646733058109 0 -0.52991925155115449 -0.84804810408105047 I I #
point $-1 -3.1278007526087563 -33.790679477322428 4.2426467330580859 #
point $-1 -13.21973407163852 -27.844637027090162 13.758304093957248 #
straight-curve $-1 0 -33.790679477322428 13.758304093957248 1 0 0 I I #
vertex $-1 $292 $382 #
point $-1 -9.3363245519157303 -27.542707509257365 6.9540591333239634 #
vertex $-1 $296 $383 #
point $-1 -5.0112102723315459 -27.542707509257365 6.9540591333239634 #
straight-curve $-1 -60.846583452864159 33.790679477322428 0 0 0 -1 I I #
point $-1 -60.846583452864159 -33.790679477322428 -13.758304093957248 #
straight-curve $-1 -60.846583452864159 0 -13.758304093957248 0 1 0 I I #
point $-1 -60.846583452864159 33.790679477322428 -13.758304093957248 #
coedge $-1 $325 $324 $317 $366 reversed $226 $-1 #
edge $-1 $367 -33.790679477322428 $369 33.790679477322428 $365 $384 forward 7 unknown #
vertex $-1 $366 $385 #
straight-curve $-1 0 -33.790679477322428 -13.758304093957248 -1 0 0 I I #
vertex $-1 $320 $386 #
straight-curve $-1 0 33.790679477322428 -13.758304093957248 1 0 0 I I #
point $-1 -48.561732550426264 33.790679477322428 -13.75830409395725 #
straight-curve $-1 -60.846583452864159 33.790679477322428 0 0 0 -1 I I #
straight-curve $-1 -60.846583452864159 -33.790679477322428 0 0 0 -1 I I #
straight-curve $-1 48.529309190273203 0 8.4609736213751052 0 1 0 I I #
point $-1 48.529309190273203 33.790679477322428 8.4609736213751052 #
point $-1 48.529309190273203 -33.790679477322428 8.4609736213751052 #
straight-curve $-1 48.529309190273203 -33.790679477322428 5.4298194288330892 0 0 -1 I I #
straight-curve $-1 -3.1278007526087563 -68.496169475672076 13.75830409395725 0 1 0 I I #
point $-1 -3.1278007526087563 -33.790679477322428 13.758304093957248 #
straight-curve $-1 -4.0868837060618191 -27.844637027090158 13.758304093957248 -1 0 0 I I #
point $-1 -3.1278007526087563 -27.844637027090162 13.758304093957248 #
point $-1 -10.33632455191573 -26.694659405176314 6.4241398817728088 #
point $-1 -6.0112102723315459 -26.694659405176314 6.4241398817728088 #
straight-curve $-1 -60.846583452864159 0 -13.758304093957248 0 1 0 I I #
point $-1 -60.846583452864159 -33.790679477322428 -13.758304093957248 #
point $-1 -60.846583452864159 33.790679477322428 -13.758304093957248 #
End-of-ACIS-data 