500 0 14 0           
7 Unknown 11 ACIS 5.0 NT 24 Thu Mar 25 19:46:30 1999 
-1 9.9999999999999995e-007 1e-010 
body $-1 $14 $-1 $15 #
body $-1 $16 $-1 $17 #
body $-1 $18 $-1 $19 #
body $-1 $20 $-1 $21 #
body $-1 $22 $-1 $23 #
body $-1 $24 $-1 $25 #
body $-1 $26 $-1 $27 #
body $-1 $28 $-1 $29 #
body $-1 $30 $-1 $31 #
body $-1 $32 $-1 $33 #
body $-1 $34 $-1 $35 #
body $-1 $36 $-1 $37 #
body $-1 $38 $-1 $39 #
body $-1 $40 $-1 $41 #
lump $-1 $-1 $42 $0 #
transform $-1 1 0 0 0 1 0 0 0 1 78.435010834070866 37.356627783367209 13.027107853310456 1 rotate no_reflect no_shear #
lump $-1 $-1 $43 $1 #
transform $-1 1 0 0 0 1 0 0 0 1 78.435010834070866 37.356627783367209 13.027107853310456 1 rotate no_reflect no_shear #
lump $-1 $-1 $44 $2 #
transform $-1 1 0 0 0 1 0 0 0 1 78.435010834070866 37.356627783367209 13.027107853310456 1 rotate no_reflect no_shear #
lump $-1 $-1 $45 $3 #
transform $-1 1 0 0 0 1 0 0 0 1 78.435010834070866 37.356627783367209 13.027107853310456 1 rotate no_reflect no_shear #
lump $-1 $-1 $46 $4 #
transform $-1 1 0 0 0 1 0 0 0 1 78.435010834070866 37.356627783367209 13.027107853310456 1 rotate no_reflect no_shear #
lump $-1 $-1 $47 $5 #
transform $-1 1 0 0 0 1 0 0 0 1 78.435010834070866 37.356627783367209 13.027107853310456 1 rotate no_reflect no_shear #
lump $-1 $-1 $48 $6 #
transform $-1 1 0 0 0 1 0 0 0 1 78.435010834070866 37.356627783367209 13.027107853310456 1 rotate no_reflect no_shear #
lump $-1 $-1 $49 $7 #
transform $-1 1 0 0 0 1 0 0 0 1 78.435010834070866 37.356627783367209 13.027107853310456 1 rotate no_reflect no_shear #
lump $-1 $-1 $50 $8 #
transform $-1 1 0 0 0 1 0 0 0 1 78.435010834070866 37.356627783367209 13.027107853310456 1 rotate no_reflect no_shear #
lump $-1 $-1 $51 $9 #
transform $-1 1 0 0 0 1 0 0 0 1 78.435010834070866 37.356627783367209 13.027107853310456 1 rotate no_reflect no_shear #
lump $-1 $-1 $52 $10 #
transform $-1 1 0 0 0 1 0 0 0 1 78.435010834070866 37.356627783367209 13.027107853310456 1 rotate no_reflect no_shear #
lump $-1 $-1 $53 $11 #
transform $-1 1 0 0 0 1 0 0 0 1 78.435010834070866 37.356627783367209 13.027107853310456 1 rotate no_reflect no_shear #
lump $-1 $-1 $54 $12 #
transform $-1 1 0 0 0 1 0 0 0 1 78.435010834070866 37.356627783367209 13.027107853310456 1 rotate no_reflect no_shear #
lump $-1 $-1 $55 $13 #
transform $-1 1 0 0 0 1 0 0 0 1 78.435010834070866 37.356627783367209 13.027107853310456 1 rotate no_reflect no_shear #
shell $-1 $-1 $-1 $56 $-1 $14 #
shell $-1 $-1 $-1 $57 $-1 $16 #
shell $-1 $-1 $-1 $58 $-1 $18 #
shell $-1 $-1 $-1 $59 $-1 $20 #
shell $-1 $-1 $-1 $60 $-1 $22 #
shell $-1 $-1 $-1 $61 $-1 $24 #
shell $-1 $-1 $-1 $62 $-1 $26 #
shell $-1 $-1 $-1 $63 $-1 $28 #
shell $-1 $-1 $-1 $64 $-1 $30 #
shell $-1 $-1 $-1 $65 $-1 $32 #
shell $-1 $-1 $-1 $66 $-1 $34 #
shell $-1 $-1 $-1 $67 $-1 $36 #
shell $-1 $-1 $-1 $68 $-1 $38 #
shell $-1 $-1 $-1 $69 $-1 $40 #
face $-1 $70 $71 $42 $-1 $72 forward single #
face $-1 $73 $74 $43 $-1 $75 reversed single #
face $-1 $76 $77 $44 $-1 $78 reversed single #
face $-1 $79 $80 $45 $-1 $81 reversed single #
face $-1 $82 $83 $46 $-1 $84 forward single #
face $-1 $85 $86 $47 $-1 $87 forward single #
face $-1 $88 $89 $48 $-1 $90 forward single #
face $-1 $91 $92 $49 $-1 $93 reversed single #
face $-1 $94 $95 $50 $-1 $96 forward single #
face $-1 $97 $98 $51 $-1 $99 forward single #
face $-1 $100 $101 $52 $-1 $102 forward single #
face $-1 $103 $104 $53 $-1 $105 reversed single #
face $-1 $106 $107 $54 $-1 $108 forward single #
face $-1 $109 $110 $55 $-1 $111 forward single #
face $-1 $112 $113 $42 $-1 $114 reversed single #
loop $-1 $-1 $115 $56 #
plane-surface $-1 0 0 13.027107853310456 0 0 1 1 0 0 forward_v I I I I #
face $-1 $116 $117 $43 $-1 $118 reversed single #
loop $-1 $-1 $119 $57 #
plane-surface $-1 -58.065182085086192 -32.007053318290083 0 1 0 0 0 0 -1 forward_v I I I I #
face $-1 $120 $121 $44 $-1 $122 reversed single #
loop $-1 $-1 $123 $58 #
plane-surface $-1 -56.387087674916266 26.657478853212957 0 0 1 0 0 0 1 forward_v I I I I #
face $-1 $124 $125 $45 $-1 $126 reversed single #
loop $-1 $-1 $127 $59 #
plane-surface $-1 39.911561867263003 -1.7763568394002505e-015 218.70593853585487 0 -1 0 -0.57357644374324357 0 -0.81915203911291934 forward_v I I I I #
face $-1 $128 $129 $46 $-1 $130 forward single #
loop $-1 $131 $132 $60 #
cone-surface $-1 68.96300116935592 -9.6493544343977504 6.1523878800633334 -0.57357644374324357 0 -0.81915203911291934 0.81915203911291934 0 -0.57357644374324357 1 I I 0 1 1 forward I I I I #
face $-1 $133 $134 $47 $-1 $135 forward single #
loop $-1 $136 $137 $61 #
cone-surface $-1 68.96300116935592 -6.0308465214985958 6.1523878800633334 -0.57357644374324357 0 -0.81915203911291934 0.81915203911291934 0 -0.57357644374324357 1 I I 0 1 1 forward I I I I #
face $-1 $138 $139 $48 $-1 $140 forward single #
loop $-1 $141 $142 $62 #
cone-surface $-1 68.96300116935592 -2.4123386085994412 6.1523878800633334 -0.57357644374324357 0 -0.81915203911291934 0.81915203911291934 0 -0.57357644374324357 1 I I 0 1 1 forward I I I I #
face $-1 $143 $144 $49 $-1 $145 reversed single #
loop $-1 $-1 $146 $63 #
plane-surface $-1 39.911561867263003 26.657478853212957 218.70593853585487 0 -1 0 -0.57357644374324357 0 -0.81915203911291934 forward_v I I I I #
face $-1 $147 $148 $50 $-1 $149 forward single #
loop $-1 $150 $151 $64 #
cone-surface $-1 68.96300116935592 17.008124418815207 6.1523878800633334 -0.57357644374324357 0 -0.81915203911291934 0.81915203911291934 0 -0.57357644374324357 1 I I 0 1 1 forward I I I I #
face $-1 $152 $153 $51 $-1 $154 forward single #
loop $-1 $155 $156 $65 #
cone-surface $-1 68.96300116935592 20.626632331714362 6.1523878800633334 -0.57357644374324357 0 -0.81915203911291934 0.81915203911291934 0 -0.57357644374324357 1 I I 0 1 1 forward I I I I #
face $-1 $157 $158 $52 $-1 $159 forward single #
loop $-1 $160 $161 $66 #
cone-surface $-1 68.96300116935592 24.245140244613516 6.1523878800633334 -0.57357644374324357 0 -0.81915203911291934 0.81915203911291934 0 -0.57357644374324357 1 I I 0 1 1 forward I I I I #
face $-1 $162 $163 $53 $-1 $164 reversed single #
loop $-1 $-1 $165 $67 #
plane-surface $-1 -163.87254917759651 12.907113819394429 139.06355105803482 0 1 0 -0.54463904215088732 0 0.83867056331134215 forward_v I I I I #
face $-1 $166 $167 $54 $-1 $168 forward single #
loop $-1 $169 $170 $68 #
cone-surface $-1 -73.550249358567299 15.481721362204055 9.2936972513337679 0.54463904215088732 0 -0.83867056331134215 0.83867056331134215 0 0.54463904215088732 1 I I 0 1 1 forward I I I I #
face $-1 $171 $172 $55 $-1 $173 forward single #
loop $-1 $174 $175 $69 #
cone-surface $-1 -73.550249358567299 19.343632676418501 9.2936972513337679 0.54463904215088732 0 -0.83867056331134215 0.83867056331134215 0 0.54463904215088732 1 I I 0 1 1 forward I I I I #
face $-1 $176 $177 $42 $-1 $178 reversed single #
loop $-1 $-1 $179 $70 #
plane-surface $-1 0 0 -13.027107853310456 0 0 1 1 0 0 forward_v I I I I #
coedge $-1 $180 $181 $182 $183 forward $71 $-1 #
face $-1 $184 $185 $43 $-1 $186 reversed single #
loop $-1 $-1 $187 $73 #
plane-surface $-1 -56.387087674916266 -26.657478853212957 0 0 -1 0 0 0 -1 forward_v I I I I #
coedge $-1 $188 $189 $190 $191 forward $74 $-1 #
face $-1 $192 $193 $44 $-1 $194 reversed single #
loop $-1 $-1 $195 $76 #
plane-surface $-1 -58.065182085086192 32.007053318290083 0 1 0 0 0 0 -1 forward_v I I I I #
coedge $-1 $196 $197 $198 $199 forward $77 $-1 #
face $-1 $200 $201 $45 $-1 $202 reversed single #
loop $-1 $-1 $203 $79 #
plane-surface $-1 -50.065387291075297 -6.0308465214985958 90.205540410708721 0.57357644374324357 0 0.81915203911291934 0.81915203911291934 0 -0.57357644374324357 forward_v I I I I #
coedge $-1 $204 $205 $206 $207 reversed $80 $-1 #
face $-1 $-1 $208 $46 $-1 $209 forward single #
loop $-1 $210 $211 $82 #
cone-surface $-1 68.3432910936816 -9.6493544343977504 5.2673501877297308 -0.57357644374324357 0 -0.81915203911291934 0.40957601955645967 0 -0.28678822187162178 1 I I -0.70710678118654746 0.70710678118654746 0.5 forward I I I I #
loop $-1 $-1 $212 $60 #
coedge $-1 $132 $132 $213 $214 reversed $83 $-1 #
face $-1 $-1 $215 $47 $-1 $216 forward single #
loop $-1 $217 $218 $85 #
cone-surface $-1 68.3432910936816 -6.0308465214985958 5.2673501877297308 -0.57357644374324357 0 -0.81915203911291934 0.40957601955645967 0 -0.28678822187162178 1 I I -0.70710678118654746 0.70710678118654746 0.5 forward I I I I #
loop $-1 $-1 $219 $61 #
coedge $-1 $137 $137 $220 $221 reversed $86 $-1 #
face $-1 $-1 $222 $48 $-1 $223 forward single #
loop $-1 $224 $225 $88 #
cone-surface $-1 68.3432910936816 -2.4123386085994412 5.2673501877297308 -0.57357644374324357 0 -0.81915203911291934 0.40957601955645967 0 -0.28678822187162178 1 I I -0.70710678118654746 0.70710678118654746 0.5 forward I I I I #
loop $-1 $-1 $226 $62 #
coedge $-1 $142 $142 $227 $228 reversed $89 $-1 #
face $-1 $229 $230 $49 $-1 $231 reversed single #
loop $-1 $-1 $232 $91 #
plane-surface $-1 -50.065387291075297 20.626632331714362 90.205540410708721 0.57357644374324357 0 0.81915203911291934 0.81915203911291934 0 -0.57357644374324357 forward_v I I I I #
coedge $-1 $233 $234 $235 $236 reversed $92 $-1 #
face $-1 $-1 $237 $50 $-1 $238 forward single #
loop $-1 $239 $240 $94 #
cone-surface $-1 68.3432910936816 17.008124418815207 5.2673501877297308 -0.57357644374324357 0 -0.81915203911291934 0.40957601955645967 0 -0.28678822187162178 1 I I -0.70710678118654746 0.70710678118654746 0.5 forward I I I I #
loop $-1 $-1 $241 $64 #
coedge $-1 $151 $151 $242 $243 reversed $95 $-1 #
face $-1 $-1 $244 $51 $-1 $245 forward single #
loop $-1 $246 $247 $97 #
cone-surface $-1 68.3432910936816 20.626632331714362 5.2673501877297308 -0.57357644374324357 0 -0.81915203911291934 0.40957601955645967 0 -0.28678822187162178 1 I I -0.70710678118654746 0.70710678118654746 0.5 forward I I I I #
loop $-1 $-1 $248 $65 #
coedge $-1 $156 $156 $249 $250 reversed $98 $-1 #
face $-1 $-1 $251 $52 $-1 $252 forward single #
loop $-1 $253 $254 $100 #
cone-surface $-1 68.3432910936816 24.245140244613516 5.2673501877297308 -0.57357644374324357 0 -0.81915203911291934 0.40957601955645967 0 -0.28678822187162178 1 I I -0.70710678118654746 0.70710678118654746 0.5 forward I I I I #
loop $-1 $-1 $255 $66 #
coedge $-1 $161 $161 $256 $257 reversed $101 $-1 #
face $-1 $258 $259 $53 $-1 $260 reversed single #
loop $-1 $-1 $261 $103 #
plane-surface $-1 -78.435010834070866 17.412677019311282 7.5012816189519356 -0.54463904215088732 0 0.83867056331134215 0.83867056331134215 0 0.54463904215088732 forward_v I I I I #
coedge $-1 $262 $263 $264 $265 reversed $104 $-1 #
face $-1 $-1 $266 $54 $-1 $267 forward single #
loop $-1 $268 $269 $106 #
cone-surface $-1 -72.647681389945348 15.481721362204055 7.9038644848806552 0.54463904215088732 0 -0.83867056331134215 0.41933528165567108 0 0.27231952107544366 1 I I -0.70710678118654746 0.70710678118654746 0.5 forward I I I I #
loop $-1 $-1 $270 $68 #
coedge $-1 $170 $170 $271 $272 reversed $107 $-1 #
face $-1 $-1 $273 $55 $-1 $274 forward single #
loop $-1 $275 $276 $109 #
cone-surface $-1 -72.647681389945348 19.343632676418501 7.9038644848806552 0.54463904215088732 0 -0.83867056331134215 0.41933528165567108 0 0.27231952107544366 1 I I -0.70710678118654746 0.70710678118654746 0.5 forward I I I I #
loop $-1 $-1 $277 $69 #
coedge $-1 $175 $175 $278 $279 reversed $110 $-1 #
face $-1 $280 $281 $42 $-1 $282 reversed single #
loop $-1 $-1 $283 $112 #
plane-surface $-1 0 -37.356627783367209 0 0 1 0 0 0 1 forward_v I I I I #
coedge $-1 $284 $285 $286 $287 forward $113 $-1 #
coedge $-1 $288 $115 $289 $290 forward $71 $-1 #
coedge $-1 $115 $288 $291 $292 forward $71 $-1 #
coedge $-1 $293 $294 $115 $183 reversed $295 $-1 #
edge $-1 $296 -37.356627783367209 $297 37.356627783367209 $182 $298 forward 7 unknown #
face $-1 $299 $300 $43 $-1 $301 forward single #
loop $-1 $-1 $302 $116 #
plane-surface $-1 -54.70899326474634 -32.007053318290083 0 -1 0 0 0 0 1 forward_v I I I I #
coedge $-1 $303 $304 $305 $306 forward $117 $-1 #
coedge $-1 $307 $119 $308 $309 reversed $74 $-1 #
coedge $-1 $119 $307 $310 $311 reversed $74 $-1 #
coedge $-1 $304 $303 $119 $191 reversed $117 $-1 #
edge $-1 $312 -13.027107853310456 $313 13.027107853310456 $190 $314 forward 7 unknown #
face $-1 $315 $316 $44 $-1 $317 reversed single #
loop $-1 $-1 $318 $120 #
plane-surface $-1 -54.70899326474634 32.007053318290083 0 -1 0 0 0 0 1 forward_v I I I I #
coedge $-1 $319 $320 $321 $322 reversed $121 $-1 #
coedge $-1 $323 $123 $324 $325 reversed $77 $-1 #
coedge $-1 $123 $323 $326 $327 reversed $77 $-1 #
coedge $-1 $320 $319 $123 $199 reversed $121 $-1 #
edge $-1 $328 -13.027107853310456 $329 13.027107853310456 $198 $330 forward 7 unknown #
face $-1 $331 $332 $45 $-1 $333 forward single #
loop $-1 $-1 $334 $124 #
plane-surface $-1 39.911561867263003 -12.06169304299719 218.70593853585487 0 1 0 0.57357644374324357 0 0.81915203911291934 forward_v I I I I #
coedge $-1 $335 $336 $337 $338 reversed $125 $-1 #
coedge $-1 $205 $127 $339 $340 reversed $80 $-1 #
coedge $-1 $127 $204 $335 $341 reversed $80 $-1 #
coedge $-1 $337 $342 $127 $207 forward $332 $-1 #
edge $-1 $343 -58.479229900439364 $344 -40.201054278614791 $206 $345 forward 7 unknown #
loop $-1 $-1 $213 $128 #
plane-surface $-1 -50.065387291075297 -6.0308465214985958 90.205540410708721 0.57357644374324357 0 0.81915203911291934 0.81915203911291934 0 -0.57357644374324357 forward_v I I I I #
loop $-1 $-1 $346 $82 #
coedge $-1 $211 $211 $212 $347 reversed $129 $-1 #
coedge $-1 $212 $212 $211 $347 forward $131 $-1 #
coedge $-1 $213 $213 $132 $214 forward $208 $-1 #
edge $-1 $348 0 $348 6.2831853071796004 $213 $349 forward 7 unknown #
loop $-1 $-1 $220 $133 #
plane-surface $-1 -50.065387291075297 -6.0308465214985958 90.205540410708721 0.57357644374324357 0 0.81915203911291934 0.81915203911291934 0 -0.57357644374324357 forward_v I I I I #
loop $-1 $-1 $350 $85 #
coedge $-1 $218 $218 $219 $351 reversed $134 $-1 #
coedge $-1 $219 $219 $218 $351 forward $136 $-1 #
coedge $-1 $220 $220 $137 $221 forward $215 $-1 #
edge $-1 $352 0 $352 6.2831853071796004 $220 $353 forward 7 unknown #
loop $-1 $-1 $227 $138 #
plane-surface $-1 -50.065387291075297 -6.0308465214985958 90.205540410708721 0.57357644374324357 0 0.81915203911291934 0.81915203911291934 0 -0.57357644374324357 forward_v I I I I #
loop $-1 $-1 $354 $88 #
coedge $-1 $225 $225 $226 $355 reversed $139 $-1 #
coedge $-1 $226 $226 $225 $355 forward $141 $-1 #
coedge $-1 $227 $227 $142 $228 forward $222 $-1 #
edge $-1 $356 0 $356 6.2831853071796004 $227 $357 forward 7 unknown #
face $-1 $358 $359 $49 $-1 $360 reversed single #
loop $-1 $-1 $361 $143 #
plane-surface $-1 39.911561867263003 14.595785810215768 218.70593853585487 0 1 0 0.57357644374324357 0 0.81915203911291934 forward_v I I I I #
coedge $-1 $362 $363 $364 $365 reversed $144 $-1 #
coedge $-1 $234 $146 $366 $367 reversed $92 $-1 #
coedge $-1 $146 $233 $362 $368 reversed $92 $-1 #
coedge $-1 $364 $369 $146 $236 forward $370 $-1 #
edge $-1 $371 -58.479229900439364 $372 -40.201054278614791 $235 $373 forward 7 unknown #
loop $-1 $-1 $242 $147 #
plane-surface $-1 -50.065387291075297 20.626632331714362 90.205540410708721 0.57357644374324357 0 0.81915203911291934 0.81915203911291934 0 -0.57357644374324357 forward_v I I I I #
loop $-1 $-1 $374 $94 #
coedge $-1 $240 $240 $241 $375 reversed $148 $-1 #
coedge $-1 $241 $241 $240 $375 forward $150 $-1 #
coedge $-1 $242 $242 $151 $243 forward $237 $-1 #
edge $-1 $376 0 $376 6.2831853071796004 $242 $377 forward 7 unknown #
loop $-1 $-1 $249 $152 #
plane-surface $-1 -50.065387291075297 20.626632331714362 90.205540410708721 0.57357644374324357 0 0.81915203911291934 0.81915203911291934 0 -0.57357644374324357 forward_v I I I I #
loop $-1 $-1 $378 $97 #
coedge $-1 $247 $247 $248 $379 reversed $153 $-1 #
coedge $-1 $248 $248 $247 $379 forward $155 $-1 #
coedge $-1 $249 $249 $156 $250 forward $244 $-1 #
edge $-1 $380 0 $380 6.2831853071796004 $249 $381 forward 7 unknown #
loop $-1 $-1 $256 $157 #
plane-surface $-1 -50.065387291075297 20.626632331714362 90.205540410708721 0.57357644374324357 0 0.81915203911291934 0.81915203911291934 0 -0.57357644374324357 forward_v I I I I #
loop $-1 $-1 $382 $100 #
coedge $-1 $254 $254 $255 $383 reversed $158 $-1 #
coedge $-1 $255 $255 $254 $383 forward $160 $-1 #
coedge $-1 $256 $256 $161 $257 forward $251 $-1 #
edge $-1 $384 0 $384 6.2831853071796004 $256 $385 forward 7 unknown #
face $-1 $386 $387 $53 $-1 $388 reversed single #
loop $-1 $-1 $389 $162 #
plane-surface $-1 -163.87254917759651 21.918240219228135 139.06355105803482 0 -1 0 0.54463904215088732 0 -0.83867056331134215 forward_v I I I I #
coedge $-1 $390 $391 $392 $393 reversed $163 $-1 #
coedge $-1 $263 $165 $394 $395 reversed $104 $-1 #
coedge $-1 $165 $262 $390 $396 reversed $104 $-1 #
coedge $-1 $392 $397 $165 $265 forward $398 $-1 #
edge $-1 $399 3.5012637547273897 $400 12.010289810641595 $264 $401 forward 7 unknown #
loop $-1 $-1 $271 $166 #
plane-surface $-1 -78.435010834070866 17.412677019311282 7.5012816189519356 -0.54463904215088732 0 0.83867056331134215 0.83867056331134215 0 0.54463904215088732 forward_v I I I I #
loop $-1 $-1 $402 $106 #
coedge $-1 $269 $269 $270 $403 reversed $167 $-1 #
coedge $-1 $270 $270 $269 $403 forward $169 $-1 #
coedge $-1 $271 $271 $170 $272 forward $266 $-1 #
edge $-1 $404 0 $404 6.2831853071796004 $271 $405 forward 7 unknown #
loop $-1 $-1 $278 $171 #
plane-surface $-1 -78.435010834070866 17.412677019311282 7.5012816189519356 -0.54463904215088732 0 0.83867056331134215 0.83867056331134215 0 0.54463904215088732 forward_v I I I I #
loop $-1 $-1 $406 $109 #
coedge $-1 $276 $276 $277 $407 reversed $172 $-1 #
coedge $-1 $277 $277 $276 $407 forward $174 $-1 #
coedge $-1 $278 $278 $175 $279 forward $273 $-1 #
edge $-1 $408 0 $408 6.2831853071796004 $278 $409 forward 7 unknown #
face $-1 $410 $411 $42 $-1 $412 reversed single #
loop $-1 $-1 $413 $176 #
plane-surface $-1 -78.435010834070866 0 0 1 0 0 0 0 -1 forward_v I I I I #
coedge $-1 $414 $291 $415 $416 forward $177 $-1 #
coedge $-1 $417 $179 $414 $418 forward $113 $-1 #
coedge $-1 $179 $417 $419 $420 forward $113 $-1 #
coedge $-1 $294 $293 $179 $287 reversed $295 $-1 #
edge $-1 $421 -37.356627783367209 $422 37.356627783367209 $286 $423 forward 7 unknown #
coedge $-1 $181 $180 $424 $425 forward $71 $-1 #
coedge $-1 $426 $427 $180 $290 reversed $411 $-1 #
edge $-1 $297 -78.435010834070866 $428 78.435010834070866 $289 $429 forward 7 unknown #
coedge $-1 $283 $430 $181 $292 reversed $177 $-1 #
edge $-1 $431 -78.435010834070866 $296 78.435010834070866 $291 $432 forward 7 unknown #
coedge $-1 $286 $182 $430 $433 forward $295 $-1 #
coedge $-1 $182 $286 $426 $434 reversed $295 $-1 #
loop $-1 $-1 $293 $410 #
vertex $-1 $183 $435 #
vertex $-1 $183 $436 #
straight-curve $-1 78.435010834070866 0 13.027107853310456 0 1 0 I I #
face $-1 $437 $438 $43 $-1 $439 reversed single #
loop $-1 $-1 $440 $184 #
plane-surface $-1 0 0 13.027107853310456 0 0 1 1 0 0 forward_v I I I I #
coedge $-1 $441 $442 $443 $444 reversed $185 $-1 #
coedge $-1 $190 $187 $445 $446 reversed $117 $-1 #
coedge $-1 $187 $190 $447 $448 reversed $117 $-1 #
coedge $-1 $442 $441 $187 $306 reversed $185 $-1 #
edge $-1 $449 -13.027107853310456 $450 13.027107853310456 $305 $451 forward 7 unknown #
coedge $-1 $189 $188 $452 $453 reversed $74 $-1 #
coedge $-1 $445 $454 $188 $309 forward $438 $-1 #
edge $-1 $455 -21.353101124222167 $313 -10.653952194067916 $308 $456 forward 7 unknown #
coedge $-1 $457 $447 $189 $311 forward $300 $-1 #
edge $-1 $312 10.653952194067916 $458 21.353101124222167 $310 $459 forward 7 unknown #
vertex $-1 $311 $460 #
vertex $-1 $309 $461 #
straight-curve $-1 -58.065182085086192 -26.657478853212957 0 0 0 -1 I I #
face $-1 $462 $463 $44 $-1 $464 forward single #
loop $-1 $-1 $465 $192 #
plane-surface $-1 0 0 -13.027107853310456 0 0 1 1 0 0 forward_v I I I I #
coedge $-1 $466 $467 $323 $468 forward $193 $-1 #
coedge $-1 $198 $195 $469 $470 reversed $121 $-1 #
coedge $-1 $195 $198 $471 $472 reversed $121 $-1 #
coedge $-1 $473 $474 $195 $322 forward $475 $-1 #
edge $-1 $476 -13.027107853310456 $477 13.027107853310456 $321 $478 forward 7 unknown #
coedge $-1 $197 $196 $318 $468 reversed $77 $-1 #
coedge $-1 $469 $465 $196 $325 forward $316 $-1 #
edge $-1 $479 26.515449427288207 $329 29.871638247628059 $324 $480 forward 7 unknown #
coedge $-1 $481 $471 $197 $327 forward $463 $-1 #
edge $-1 $328 -29.871638247628059 $482 -26.515449427288207 $326 $483 forward 7 unknown #
vertex $-1 $327 $484 #
vertex $-1 $325 $485 #
straight-curve $-1 -58.065182085086192 26.657478853212957 0 0 0 -1 I I #
face $-1 $-1 $486 $45 $-1 $487 reversed single #
loop $-1 $-1 $206 $200 #
plane-surface $-1 0 0 13.027107853310456 0 0 1 1 0 0 forward_v I I I I #
coedge $-1 $488 $489 $490 $491 reversed $201 $-1 #
coedge $-1 $492 $203 $205 $341 forward $125 $-1 #
coedge $-1 $203 $492 $488 $493 forward $125 $-1 #
coedge $-1 $490 $206 $203 $338 forward $332 $-1 #
edge $-1 $344 -3.0154232607492961 $494 9.0462697822478919 $337 $495 forward 7 unknown #
coedge $-1 $496 $497 $204 $340 forward $486 $-1 #
edge $-1 $498 -109.12437801555701 $343 -96.32586141461698 $339 $499 forward 7 unknown #
edge $-1 $344 134.55648919910405 $498 156.87002166814173 $205 $500 forward 7 unknown #
coedge $-1 $206 $490 $496 $501 forward $332 $-1 #
vertex $-1 $207 $502 #
vertex $-1 $207 $503 #
straight-curve $-1 19.955780933631502 -1.7763568394002505e-015 13.027107853310454 -1 0 0 I I #
coedge $-1 $346 $346 $-1 $504 reversed $210 $-1 #
edge $-1 $505 0 $505 6.2831853071796004 $211 $506 forward 7 unknown #
vertex $-1 $214 $507 #
ellipse-curve $-1 69.295923023158579 -9.6493544343977504 6.6278495528404386 0.57357644374324357 0 0.81915203911291934 0.81915203911291934 0 -0.57357644374324357 1 I I #
coedge $-1 $350 $350 $-1 $508 reversed $217 $-1 #
edge $-1 $509 0 $509 6.2831853071796004 $218 $510 forward 7 unknown #
vertex $-1 $221 $511 #
ellipse-curve $-1 69.295923023158579 -6.0308465214985958 6.6278495528404386 0.57357644374324357 0 0.81915203911291934 0.81915203911291934 0 -0.57357644374324357 1 I I #
coedge $-1 $354 $354 $-1 $512 reversed $224 $-1 #
edge $-1 $513 0 $513 6.2831853071796004 $225 $514 forward 7 unknown #
vertex $-1 $228 $515 #
ellipse-curve $-1 69.295923023158579 -2.4123386085994412 6.6278495528404386 0.57357644374324357 0 0.81915203911291934 0.81915203911291934 0 -0.57357644374324357 1 I I #
face $-1 $-1 $370 $49 $-1 $516 forward single #
loop $-1 $-1 $517 $229 #
plane-surface $-1 78.435010834070866 0 0 -1 0 0 0 0 1 forward_v I I I I #
coedge $-1 $518 $519 $520 $521 reversed $230 $-1 #
coedge $-1 $522 $232 $234 $368 forward $144 $-1 #
coedge $-1 $232 $522 $518 $523 forward $144 $-1 #
coedge $-1 $520 $235 $232 $365 forward $370 $-1 #
edge $-1 $372 -16.344162687355777 $524 -4.2824696443585868 $364 $525 forward 7 unknown #
coedge $-1 $526 $527 $233 $367 forward $359 $-1 #
edge $-1 $528 -109.12437801555701 $371 -96.32586141461698 $366 $529 forward 7 unknown #
edge $-1 $372 134.55648919910405 $528 156.87002166814173 $234 $530 forward 7 unknown #
coedge $-1 $235 $520 $526 $531 forward $370 $-1 #
loop $-1 $-1 $520 $358 #
vertex $-1 $367 $532 #
vertex $-1 $236 $533 #
straight-curve $-1 19.955780933631502 26.657478853212957 13.027107853310454 -1 0 0 I I #
coedge $-1 $374 $374 $-1 $534 reversed $239 $-1 #
edge $-1 $535 0 $535 6.2831853071796004 $240 $536 forward 7 unknown #
vertex $-1 $243 $537 #
ellipse-curve $-1 69.295923023158579 17.008124418815207 6.6278495528404386 0.57357644374324357 0 0.81915203911291934 0.81915203911291934 0 -0.57357644374324357 1 I I #
coedge $-1 $378 $378 $-1 $538 reversed $246 $-1 #
edge $-1 $539 0 $539 6.2831853071796004 $247 $540 forward 7 unknown #
vertex $-1 $250 $541 #
ellipse-curve $-1 69.295923023158579 20.626632331714362 6.6278495528404386 0.57357644374324357 0 0.81915203911291934 0.81915203911291934 0 -0.57357644374324357 1 I I #
coedge $-1 $382 $382 $-1 $542 reversed $253 $-1 #
edge $-1 $543 0 $543 6.2831853071796004 $254 $544 forward 7 unknown #
vertex $-1 $257 $545 #
ellipse-curve $-1 69.295923023158579 24.245140244613516 6.6278495528404386 0.57357644374324357 0 0.81915203911291934 0.81915203911291934 0 -0.57357644374324357 1 I I #
face $-1 $-1 $398 $53 $-1 $546 forward single #
loop $-1 $-1 $547 $258 #
plane-surface $-1 -78.435010834070866 0 0 1 0 0 0 0 -1 forward_v I I I I #
coedge $-1 $548 $549 $550 $551 reversed $259 $-1 #
coedge $-1 $552 $261 $263 $396 forward $163 $-1 #
coedge $-1 $261 $552 $548 $553 forward $163 $-1 #
coedge $-1 $550 $264 $261 $393 forward $398 $-1 #
edge $-1 $400 4.2007753097387877 $554 13.211901709572494 $392 $555 forward 7 unknown #
coedge $-1 $556 $557 $262 $395 forward $387 $-1 #
edge $-1 $558 -62.030493910065474 $399 -56.504667675706955 $394 $559 forward 7 unknown #
edge $-1 $400 -10.145850382917724 $558 0 $263 $560 forward 7 unknown #
coedge $-1 $264 $550 $556 $561 forward $398 $-1 #
loop $-1 $-1 $550 $386 #
vertex $-1 $395 $562 #
vertex $-1 $265 $563 #
straight-curve $-1 -81.936274588798256 12.907113819394429 13.027107853310454 1 0 0 I I #
coedge $-1 $402 $402 $-1 $564 reversed $268 $-1 #
edge $-1 $565 0 $565 6.2831853071796004 $269 $566 forward 7 unknown #
vertex $-1 $272 $567 #
ellipse-curve $-1 -74.180497806113792 15.481721362204055 10.264194736131184 -0.54463904215088732 0 0.83867056331134215 0.83867056331134215 0 0.54463904215088732 1 I I #
coedge $-1 $406 $406 $-1 $568 reversed $275 $-1 #
edge $-1 $569 0 $569 6.2831853071796004 $276 $570 forward 7 unknown #
vertex $-1 $279 $571 #
ellipse-curve $-1 -74.180497806113792 19.343632676418501 10.264194736131184 -0.54463904215088732 0 0.83867056331134215 0.83867056331134215 0 0.54463904215088732 1 I I #
face $-1 $-1 $295 $42 $-1 $572 reversed single #
loop $-1 $-1 $426 $280 #
plane-surface $-1 0 37.356627783367209 0 0 -1 0 0 0 -1 forward_v I I I I #
coedge $-1 $573 $424 $427 $574 forward $281 $-1 #
coedge $-1 $430 $283 $284 $418 reversed $177 $-1 #
coedge $-1 $424 $573 $283 $416 reversed $281 $-1 #
edge $-1 $431 -13.027107853310456 $575 13.027107853310456 $415 $576 forward 7 unknown #
coedge $-1 $285 $284 $573 $577 forward $113 $-1 #
edge $-1 $422 -78.435010834070866 $575 78.435010834070866 $414 $578 forward 7 unknown #
coedge $-1 $427 $426 $285 $420 reversed $411 $-1 #
edge $-1 $579 -78.435010834070866 $421 78.435010834070866 $419 $580 forward 7 unknown #
vertex $-1 $287 $581 #
vertex $-1 $433 $582 #
straight-curve $-1 78.435010834070866 0 -13.027107853310456 0 -1 0 I I #
coedge $-1 $413 $415 $288 $425 reversed $281 $-1 #
edge $-1 $428 -37.356627783367209 $431 37.356627783367209 $424 $583 forward 7 unknown #
coedge $-1 $419 $289 $294 $434 forward $411 $-1 #
coedge $-1 $289 $419 $413 $574 reversed $411 $-1 #
vertex $-1 $290 $584 #
straight-curve $-1 0 37.356627783367209 13.027107853310456 -1 0 0 I I #
coedge $-1 $291 $414 $293 $433 reversed $177 $-1 #
vertex $-1 $425 $585 #
straight-curve $-1 0 -37.356627783367209 13.027107853310456 1 0 0 I I #
edge $-1 $296 -13.027107853310456 $422 13.027107853310456 $293 $586 forward 7 unknown #
edge $-1 $297 -13.027107853310456 $421 13.027107853310456 $294 $587 forward 7 unknown #
point $-1 78.435010834070866 -37.356627783367209 13.027107853310456 #
point $-1 78.435010834070866 37.356627783367209 13.027107853310456 #
face $-1 $-1 $588 $43 $-1 $589 reversed single #
loop $-1 $-1 $590 $299 #
plane-surface $-1 0 0 -13.027107853310456 0 0 1 1 0 0 forward_v I I I I #
coedge $-1 $447 $457 $442 $591 forward $300 $-1 #
coedge $-1 $305 $302 $590 $592 reversed $185 $-1 #
coedge $-1 $302 $305 $440 $591 reversed $185 $-1 #
coedge $-1 $593 $594 $302 $444 forward $588 $-1 #
edge $-1 $595 -13.027107853310456 $596 13.027107853310456 $443 $597 forward 7 unknown #
coedge $-1 $590 $308 $303 $446 forward $438 $-1 #
edge $-1 $313 -29.871638247628059 $450 -26.515449427288207 $445 $598 forward 7 unknown #
coedge $-1 $310 $440 $304 $448 forward $300 $-1 #
edge $-1 $449 26.515449427288207 $312 29.871638247628059 $447 $599 forward 7 unknown #
vertex $-1 $448 $600 #
vertex $-1 $446 $601 #
straight-curve $-1 -54.70899326474634 -26.657478853212957 0 0 0 -1 I I #
coedge $-1 $594 $593 $307 $453 forward $588 $-1 #
edge $-1 $458 -13.027107853310456 $455 13.027107853310456 $452 $602 forward 7 unknown #
coedge $-1 $308 $590 $594 $603 forward $438 $-1 #
vertex $-1 $309 $604 #
straight-curve $-1 -58.065182085086192 -16.003526659145042 -13.027107853310456 0 1 0 I I #
coedge $-1 $440 $310 $593 $605 forward $300 $-1 #
vertex $-1 $605 $606 #
straight-curve $-1 -58.065182085086192 -16.003526659145042 13.027107853310456 0 -1 0 I I #
point $-1 -58.065182085086192 -26.657478853212957 13.027107853310456 #
point $-1 -58.065182085086192 -26.657478853212957 -13.027107853310456 #
face $-1 $-1 $475 $44 $-1 $607 reversed single #
loop $-1 $-1 $481 $315 #
plane-surface $-1 0 0 13.027107853310456 0 0 1 1 0 0 forward_v I I I I #
coedge $-1 $324 $608 $466 $609 forward $316 $-1 #
coedge $-1 $610 $318 $465 $609 reversed $193 $-1 #
coedge $-1 $318 $610 $481 $611 reversed $193 $-1 #
edge $-1 $482 -13.027107853310456 $479 13.027107853310456 $318 $612 forward 7 unknown #
coedge $-1 $608 $324 $319 $470 forward $316 $-1 #
edge $-1 $329 10.653952194067916 $476 21.353101124222167 $469 $613 forward 7 unknown #
coedge $-1 $326 $614 $320 $472 forward $463 $-1 #
edge $-1 $477 -21.353101124222167 $328 -10.653952194067916 $471 $615 forward 7 unknown #
coedge $-1 $616 $321 $614 $617 reversed $475 $-1 #
coedge $-1 $321 $616 $608 $618 reversed $475 $-1 #
loop $-1 $-1 $616 $462 #
vertex $-1 $618 $619 #
vertex $-1 $322 $620 #
straight-curve $-1 -58.065182085086192 37.356627783367209 0 0 0 1 I I #
vertex $-1 $325 $621 #
straight-curve $-1 -28.193543837458133 26.657478853212957 -13.027107853310456 -1 0 0 I I #
coedge $-1 $614 $326 $467 $611 forward $463 $-1 #
vertex $-1 $327 $622 #
straight-curve $-1 -28.193543837458133 26.657478853212957 13.027107853310456 1 0 0 I I #
point $-1 -58.065182085086192 26.657478853212957 13.027107853310456 #
point $-1 -58.065182085086192 26.657478853212957 -13.027107853310456 #
loop $-1 $-1 $339 $331 #
plane-surface $-1 78.435010834070866 0 0 -1 0 0 0 0 1 forward_v I I I I #
coedge $-1 $489 $334 $336 $493 reversed $201 $-1 #
coedge $-1 $334 $488 $623 $624 reversed $201 $-1 #
coedge $-1 $342 $337 $334 $491 forward $332 $-1 #
edge $-1 $494 40.201054278614791 $625 58.479229900439364 $490 $626 forward 7 unknown #
coedge $-1 $336 $335 $497 $627 reversed $125 $-1 #
edge $-1 $628 -156.87002166814173 $494 -134.55648919910405 $488 $629 forward 7 unknown #
vertex $-1 $338 $630 #
straight-curve $-1 60.156835212246285 -3.0154232607492979 13.027107853310454 0 -1 0 I I #
coedge $-1 $623 $339 $342 $501 reversed $486 $-1 #
coedge $-1 $339 $623 $492 $627 forward $486 $-1 #
vertex $-1 $340 $631 #
straight-curve $-1 78.435010834070866 -1.7763568394002505e-015 109.35296926792743 0 0 1 I I #
straight-curve $-1 -50.065387291075297 -1.7763568394002505e-015 90.205540410708721 0.81915203911291934 0 -0.57357644374324357 I I #
edge $-1 $625 -12.06169304299719 $343 -1.7763568394002505e-015 $496 $632 forward 7 unknown #
point $-1 78.435010834070866 -1.7763568394002505e-015 13.027107853310456 #
point $-1 60.156835212246293 -1.7763568394002505e-015 13.027107853310454 #
edge $-1 $633 1 $633 0 $346 $-1 forward 7 unknown #
vertex $-1 $347 $634 #
ellipse-curve $-1 68.630079315553218 -9.6493544343977504 5.6769262072861908 0.57357644374324357 0 0.81915203911291934 0.81915203911291934 0 -0.57357644374324357 1 I I #
point $-1 70.115075062271529 -9.6493544343977504 6.0542731090972328 #
edge $-1 $635 1 $635 0 $350 $-1 forward 7 unknown #
vertex $-1 $351 $636 #
ellipse-curve $-1 68.630079315553218 -6.0308465214985958 5.6769262072861908 0.57357644374324357 0 0.81915203911291934 0.81915203911291934 0 -0.57357644374324357 1 I I #
point $-1 70.115075062271529 -6.0308465214985958 6.0542731090972328 #
edge $-1 $637 1 $637 0 $354 $-1 forward 7 unknown #
vertex $-1 $355 $638 #
ellipse-curve $-1 68.630079315553218 -2.4123386085994412 5.6769262072861908 0.57357644374324357 0 0.81915203911291934 0.81915203911291934 0 -0.57357644374324357 1 I I #
point $-1 70.115075062271529 -2.4123386085994412 6.0542731090972328 #
plane-surface $-1 0 0 13.027107853310456 0 0 1 1 0 0 forward_v I I I I #
coedge $-1 $527 $526 $519 $639 forward $359 $-1 #
coedge $-1 $519 $361 $363 $523 reversed $230 $-1 #
coedge $-1 $361 $518 $517 $639 reversed $230 $-1 #
coedge $-1 $369 $364 $361 $521 forward $370 $-1 #
edge $-1 $524 40.201054278614791 $640 58.479229900439364 $520 $641 forward 7 unknown #
coedge $-1 $363 $362 $527 $642 reversed $144 $-1 #
edge $-1 $643 -156.87002166814173 $524 -134.55648919910405 $518 $644 forward 7 unknown #
vertex $-1 $365 $645 #
straight-curve $-1 60.156835212246285 10.313316165857181 13.027107853310454 0 -1 0 I I #
coedge $-1 $517 $366 $369 $531 reversed $359 $-1 #
coedge $-1 $366 $517 $522 $642 forward $359 $-1 #
vertex $-1 $367 $646 #
straight-curve $-1 78.435010834070866 26.657478853212957 109.35296926792743 0 0 1 I I #
straight-curve $-1 -50.065387291075297 26.657478853212957 90.205540410708721 0.81915203911291934 0 -0.57357644374324357 I I #
edge $-1 $640 14.595785810215768 $371 26.657478853212957 $526 $647 forward 7 unknown #
point $-1 78.435010834070866 26.657478853212957 13.027107853310456 #
point $-1 60.156835212246293 26.657478853212957 13.027107853310454 #
edge $-1 $648 1 $648 0 $374 $-1 forward 7 unknown #
vertex $-1 $375 $649 #
ellipse-curve $-1 68.630079315553218 17.008124418815207 5.6769262072861908 0.57357644374324357 0 0.81915203911291934 0.81915203911291934 0 -0.57357644374324357 1 I I #
point $-1 70.115075062271529 17.008124418815207 6.0542731090972328 #
edge $-1 $650 1 $650 0 $378 $-1 forward 7 unknown #
vertex $-1 $379 $651 #
ellipse-curve $-1 68.630079315553218 20.626632331714362 5.6769262072861908 0.57357644374324357 0 0.81915203911291934 0.81915203911291934 0 -0.57357644374324357 1 I I #
point $-1 70.115075062271529 20.626632331714362 6.0542731090972328 #
edge $-1 $652 1 $652 0 $382 $-1 forward 7 unknown #
vertex $-1 $383 $653 #
ellipse-curve $-1 68.630079315553218 24.245140244613516 5.6769262072861908 0.57357644374324357 0 0.81915203911291934 0.81915203911291934 0 -0.57357644374324357 1 I I #
point $-1 70.115075062271529 24.245140244613516 6.0542731090972328 #
plane-surface $-1 0 0 13.027107853310456 0 0 1 1 0 0 forward_v I I I I #
coedge $-1 $557 $556 $549 $654 forward $387 $-1 #
coedge $-1 $549 $389 $391 $553 reversed $259 $-1 #
coedge $-1 $389 $548 $547 $654 reversed $259 $-1 #
coedge $-1 $397 $392 $389 $551 forward $398 $-1 #
edge $-1 $554 -12.010289810641595 $655 -3.5012637547273897 $550 $656 forward 7 unknown #
coedge $-1 $391 $390 $557 $657 reversed $163 $-1 #
edge $-1 $658 0 $554 10.145850382917724 $548 $659 forward 7 unknown #
vertex $-1 $393 $660 #
straight-curve $-1 -69.925984778156661 8.7063385096556409 13.027107853310454 0 1 0 I I #
coedge $-1 $547 $394 $397 $561 reversed $387 $-1 #
coedge $-1 $394 $547 $552 $657 forward $387 $-1 #
vertex $-1 $395 $661 #
straight-curve $-1 -78.435010834070866 12.907113819394429 69.531775529017409 0 0 1 I I #
straight-curve $-1 -78.435010834070866 12.907113819394429 7.5012816189519356 -0.83867056331134215 0 -0.54463904215088732 I I #
edge $-1 $655 -21.918240219228135 $399 -12.907113819394429 $556 $662 forward 7 unknown #
point $-1 -78.435010834070866 12.907113819394429 13.027107853310456 #
point $-1 -69.925984778156661 12.907113819394429 13.027107853310456 #
edge $-1 $663 1 $663 0 $402 $-1 forward 7 unknown #
vertex $-1 $403 $664 #
ellipse-curve $-1 -72.920000911020793 15.481721362204055 8.3231997665363266 -0.54463904215088732 0 0.83867056331134215 0.83867056331134215 0 0.54463904215088732 1 I I #
point $-1 -73.341827242802452 15.481721362204055 10.808833778282098 #
edge $-1 $665 1 $665 0 $406 $-1 forward 7 unknown #
vertex $-1 $407 $666 #
ellipse-curve $-1 -72.920000911020793 19.343632676418501 8.3231997665363266 -0.54463904215088732 0 0.83867056331134215 0.83867056331134215 0 0.54463904215088732 1 I I #
point $-1 -73.341827242802452 19.343632676418501 10.808833778282098 #
plane-surface $-1 78.435010834070866 0 0 -1 0 0 0 0 1 forward_v I I I I #
coedge $-1 $415 $413 $417 $577 reversed $281 $-1 #
edge $-1 $428 -13.027107853310456 $579 13.027107853310456 $427 $667 forward 7 unknown #
vertex $-1 $577 $668 #
straight-curve $-1 -78.435010834070866 -37.356627783367209 0 0 0 -1 I I #
edge $-1 $575 -37.356627783367209 $579 37.356627783367209 $573 $669 forward 7 unknown #
straight-curve $-1 0 -37.356627783367209 -13.027107853310456 -1 0 0 I I #
vertex $-1 $420 $670 #
straight-curve $-1 0 37.356627783367209 -13.027107853310456 1 0 0 I I #
point $-1 78.435010834070866 37.356627783367209 -13.027107853310456 #
point $-1 78.435010834070866 -37.356627783367209 -13.027107853310456 #
straight-curve $-1 -78.435010834070866 0 13.027107853310456 0 -1 0 I I #
point $-1 -78.435010834070866 37.356627783367209 13.027107853310456 #
point $-1 -78.435010834070866 -37.356627783367209 13.027107853310456 #
straight-curve $-1 78.435010834070866 -37.356627783367209 0 0 0 -1 I I #
straight-curve $-1 78.435010834070866 37.356627783367209 0 0 0 -1 I I #
loop $-1 $-1 $443 $437 #
plane-surface $-1 0 -37.356627783367209 0 0 1 0 0 0 1 forward_v I I I I #
coedge $-1 $454 $445 $441 $592 forward $438 $-1 #
edge $-1 $596 -21.353101124222167 $449 -10.653952194067916 $440 $671 forward 7 unknown #
edge $-1 $450 10.653952194067916 $595 21.353101124222167 $590 $672 forward 7 unknown #
coedge $-1 $452 $443 $457 $605 reversed $588 $-1 #
coedge $-1 $443 $452 $454 $603 reversed $588 $-1 #
vertex $-1 $603 $673 #
vertex $-1 $444 $674 #
straight-curve $-1 -54.70899326474634 -37.356627783367209 0 0 0 1 I I #
straight-curve $-1 -28.193543837458133 -26.657478853212957 -13.027107853310456 1 0 0 I I #
straight-curve $-1 -28.193543837458133 -26.657478853212957 13.027107853310456 -1 0 0 I I #
point $-1 -54.70899326474634 -26.657478853212957 13.027107853310456 #
point $-1 -54.70899326474634 -26.657478853212957 -13.027107853310456 #
straight-curve $-1 -58.065182085086192 -37.356627783367209 0 0 0 -1 I I #
edge $-1 $595 54.70899326474634 $455 58.065182085086192 $594 $675 forward 7 unknown #
point $-1 -58.065182085086192 -37.356627783367209 -13.027107853310456 #
edge $-1 $458 -58.065182085086192 $596 -54.70899326474634 $593 $676 forward 7 unknown #
point $-1 -58.065182085086192 -37.356627783367209 13.027107853310456 #
plane-surface $-1 0 37.356627783367209 0 0 -1 0 0 0 -1 forward_v I I I I #
coedge $-1 $465 $469 $474 $618 forward $316 $-1 #
edge $-1 $677 -21.353101124222167 $479 -10.653952194067916 $465 $678 forward 7 unknown #
coedge $-1 $467 $466 $616 $679 reversed $193 $-1 #
edge $-1 $482 10.653952194067916 $680 21.353101124222167 $481 $681 forward 7 unknown #
straight-curve $-1 -54.70899326474634 26.657478853212957 0 0 0 -1 I I #
straight-curve $-1 -58.065182085086192 16.003526659145042 -13.027107853310456 0 1 0 I I #
coedge $-1 $471 $481 $473 $617 forward $463 $-1 #
straight-curve $-1 -58.065182085086192 16.003526659145042 13.027107853310456 0 -1 0 I I #
coedge $-1 $474 $473 $610 $679 forward $475 $-1 #
edge $-1 $680 54.70899326474634 $477 58.065182085086192 $473 $682 forward 7 unknown #
edge $-1 $476 -58.065182085086192 $677 -54.70899326474634 $474 $683 forward 7 unknown #
point $-1 -58.065182085086192 37.356627783367209 -13.027107853310456 #
point $-1 -58.065182085086192 37.356627783367209 13.027107853310456 #
point $-1 -54.70899326474634 26.657478853212957 -13.027107853310456 #
point $-1 -54.70899326474634 26.657478853212957 13.027107853310456 #
coedge $-1 $497 $496 $489 $624 forward $486 $-1 #
edge $-1 $625 96.32586141461698 $628 109.12437801555701 $623 $684 forward 7 unknown #
vertex $-1 $501 $685 #
straight-curve $-1 19.955780933631502 -12.06169304299719 13.027107853310454 1 0 0 I I #
edge $-1 $628 -9.0462697822478919 $498 3.0154232607492961 $497 $686 forward 7 unknown #
vertex $-1 $627 $687 #
straight-curve $-1 -50.065387291075297 -12.06169304299719 90.205540410708721 -0.81915203911291934 0 0.57357644374324357 I I #
point $-1 60.156835212246293 -12.06169304299719 13.027107853310454 #
point $-1 78.435010834070852 -1.7763568394002505e-015 0.22859125237042122 #
straight-curve $-1 78.435010834070866 0 13.027107853310456 0 1 0 I I #
vertex $-1 $504 $688 #
point $-1 69.449231354666139 -9.6493544343977504 5.1033497635429468 #
vertex $-1 $508 $689 #
point $-1 69.449231354666139 -6.0308465214985958 5.1033497635429468 #
vertex $-1 $512 $690 #
point $-1 69.449231354666139 -2.4123386085994412 5.1033497635429468 #
edge $-1 $640 96.32586141461698 $643 109.12437801555701 $517 $691 forward 7 unknown #
vertex $-1 $531 $692 #
straight-curve $-1 19.955780933631502 14.595785810215768 13.027107853310454 1 0 0 I I #
edge $-1 $643 4.2824696443585868 $528 16.344162687355777 $527 $693 forward 7 unknown #
vertex $-1 $642 $694 #
straight-curve $-1 -50.065387291075297 14.595785810215768 90.205540410708721 -0.81915203911291934 0 0.57357644374324357 I I #
point $-1 60.156835212246293 14.595785810215768 13.027107853310454 #
point $-1 78.435010834070852 26.657478853212957 0.22859125237042122 #
straight-curve $-1 78.435010834070866 0 13.027107853310456 0 1 0 I I #
vertex $-1 $534 $695 #
point $-1 69.449231354666139 17.008124418815207 5.1033497635429468 #
vertex $-1 $538 $696 #
point $-1 69.449231354666139 20.626632331714362 5.1033497635429468 #
vertex $-1 $542 $697 #
point $-1 69.449231354666139 24.245140244613516 5.1033497635429468 #
edge $-1 $655 56.504667675706955 $658 62.030493910065474 $547 $698 forward 7 unknown #
vertex $-1 $561 $699 #
straight-curve $-1 -81.936274588798256 21.918240219228135 13.027107853310454 -1 0 0 I I #
edge $-1 $658 -13.211901709572494 $558 -4.2007753097387877 $557 $700 forward 7 unknown #
vertex $-1 $657 $701 #
straight-curve $-1 -78.435010834070866 21.918240219228135 7.5012816189519356 0.83867056331134215 0 0.54463904215088732 I I #
point $-1 -69.925984778156661 21.918240219228135 13.027107853310456 #
point $-1 -78.435010834070866 12.907113819394429 7.5012816189519356 #
straight-curve $-1 -78.435010834070866 0 13.027107853310456 0 -1 0 I I #
vertex $-1 $564 $702 #
point $-1 -72.081330347709454 15.481721362204055 8.867838808687214 #
vertex $-1 $568 $703 #
point $-1 -72.081330347709454 19.343632676418501 8.867838808687214 #
straight-curve $-1 -78.435010834070866 37.356627783367209 0 0 0 -1 I I #
point $-1 -78.435010834070866 -37.356627783367209 -13.027107853310456 #
straight-curve $-1 -78.435010834070866 0 -13.027107853310456 0 1 0 I I #
point $-1 -78.435010834070866 37.356627783367209 -13.027107853310456 #
straight-curve $-1 -54.70899326474634 -16.003526659145042 13.027107853310456 0 1 0 I I #
straight-curve $-1 -54.70899326474634 -16.003526659145042 -13.027107853310456 0 -1 0 I I #
point $-1 -54.70899326474634 -37.356627783367209 -13.027107853310456 #
point $-1 -54.70899326474634 -37.356627783367209 13.027107853310456 #
straight-curve $-1 0 -37.356627783367209 -13.027107853310456 -1 0 0 I I #
straight-curve $-1 0 -37.356627783367209 13.027107853310456 1 0 0 I I #
vertex $-1 $679 $704 #
straight-curve $-1 -54.70899326474634 16.003526659145042 -13.027107853310456 0 -1 0 I I #
edge $-1 $680 -13.027107853310456 $677 13.027107853310456 $616 $705 forward 7 unknown #
vertex $-1 $617 $706 #
straight-curve $-1 -54.70899326474634 16.003526659145042 13.027107853310456 0 1 0 I I #
straight-curve $-1 0 37.356627783367209 13.027107853310456 -1 0 0 I I #
straight-curve $-1 0 37.356627783367209 -13.027107853310456 1 0 0 I I #
straight-curve $-1 78.435010834070866 -12.06169304299719 109.35296926792743 0 0 -1 I I #
point $-1 78.435010834070866 -12.06169304299719 13.027107853310456 #
straight-curve $-1 78.43501083407088 -3.0154232607492979 0.22859125237040701 0 1 0 I I #
point $-1 78.435010834070852 -12.06169304299719 0.22859125237042122 #
point $-1 68.056502871809982 -9.6493544343977504 4.8577741681732709 #
point $-1 68.056502871809982 -6.0308465214985958 4.8577741681732709 #
point $-1 68.056502871809982 -2.4123386085994412 4.8577741681732709 #
straight-curve $-1 78.435010834070866 14.595785810215768 109.35296926792743 0 0 -1 I I #
point $-1 78.435010834070866 14.595785810215768 13.027107853310456 #
straight-curve $-1 78.43501083407088 10.313316165857181 0.22859125237040701 0 1 0 I I #
point $-1 78.435010834070852 14.595785810215768 0.22859125237042122 #
point $-1 68.056502871809982 17.008124418815207 4.8577741681732709 #
point $-1 68.056502871809982 20.626632331714362 4.8577741681732709 #
point $-1 68.056502871809982 24.245140244613516 4.8577741681732709 #
straight-curve $-1 -78.435010834070866 21.918240219228135 69.531775529017409 0 0 -1 I I #
point $-1 -78.435010834070866 21.918240219228135 13.027107853310456 #
straight-curve $-1 -78.435010834070866 8.7063385096556409 7.5012816189519356 0 -1 0 I I #
point $-1 -78.435010834070866 21.918240219228135 7.5012816189519356 #
point $-1 -72.375361868869902 15.481721362204055 7.4845292032249837 #
point $-1 -72.375361868869902 19.343632676418501 7.4845292032249837 #
point $-1 -54.70899326474634 37.356627783367209 -13.027107853310456 #
straight-curve $-1 -54.70899326474634 37.356627783367209 0 0 0 -1 I I #
point $-1 -54.70899326474634 37.356627783367209 13.027107853310456 #
End-of-ACIS-data 