500 0 5 0           
7 Unknown 11 ACIS 5.0 NT 24 Fri Mar 26 14:32:58 1999 
-1 9.9999999999999995e-007 1e-010 
body $-1 $5 $-1 $6 #
body $-1 $7 $-1 $8 #
body $-1 $9 $-1 $10 #
body $-1 $11 $-1 $12 #
body $-1 $13 $-1 $14 #
lump $-1 $-1 $15 $0 #
transform $-1 1 0 0 0 1 0 0 0 1 65.548875392925808 36.264629746331295 13.926250879270647 1 rotate no_reflect no_shear #
lump $-1 $-1 $16 $1 #
transform $-1 1 0 0 0 1 0 0 0 1 65.548875392925808 36.264629746331295 13.926250879270647 1 rotate no_reflect no_shear #
lump $-1 $-1 $17 $2 #
transform $-1 1 0 0 0 1 0 0 0 1 65.548875392925808 36.264629746331295 13.926250879270647 1 rotate no_reflect no_shear #
lump $-1 $-1 $18 $3 #
transform $-1 1 0 0 0 1 0 0 0 1 65.548875392925808 36.264629746331295 13.926250879270647 1 rotate no_reflect no_shear #
lump $-1 $-1 $19 $4 #
transform $-1 1 0 0 0 1 0 0 0 1 65.548875392925808 36.264629746331295 13.926250879270647 1 rotate no_reflect no_shear #
shell $-1 $-1 $-1 $20 $-1 $5 #
shell $-1 $-1 $-1 $21 $-1 $7 #
shell $-1 $-1 $-1 $22 $-1 $9 #
shell $-1 $-1 $-1 $23 $-1 $11 #
shell $-1 $-1 $-1 $24 $-1 $13 #
face $-1 $25 $26 $15 $-1 $27 forward single #
face $-1 $28 $29 $16 $-1 $30 forward single #
face $-1 $31 $32 $17 $-1 $33 forward single #
face $-1 $34 $35 $18 $-1 $36 reversed single #
face $-1 $37 $38 $19 $-1 $39 reversed single #
face $-1 $40 $41 $15 $-1 $42 reversed single #
loop $-1 $-1 $43 $20 #
plane-surface $-1 0 0 13.926250879270647 0 0 1 1 0 0 forward_v I I I I #
face $-1 $44 $45 $16 $-1 $46 forward single #
loop $-1 $-1 $47 $21 #
plane-surface $-1 -59.326280373210906 -31.622432784329234 0 0 -1 0 0 0 -1 forward_v I I I I #
face $-1 $48 $49 $17 $-1 $50 forward single #
loop $-1 $-1 $51 $22 #
plane-surface $-1 56.181272560107558 -36.264629746331309 6.0685091632388435 0 -0.6018150307709319 0.79863550430605224 1 0 0 forward_v I I I I #
face $-1 $52 $53 $18 $-1 $54 reversed single #
loop $-1 $55 $56 $23 #
cone-surface $-1 52.166585631756874 -29.377635814139357 7.7769602978200103 0 0.6018150307709319 -0.79863550430605224 1.5 0 0 1 I I 0 1 1.5 forward I I I I #
face $-1 $57 $58 $19 $-1 $59 reversed single #
loop $-1 $60 $61 $24 #
cone-surface $-1 60.195959488458243 -29.377635814139357 7.7769602978200103 0 0.6018150307709319 -0.79863550430605224 1.5 0 0 1 I I 0 1 1.5 forward I I I I #
face $-1 $62 $63 $15 $-1 $64 reversed single #
loop $-1 $-1 $65 $25 #
plane-surface $-1 0 0 -13.926250879270647 0 0 1 1 0 0 forward_v I I I I #
coedge $-1 $66 $67 $68 $69 forward $26 $-1 #
face $-1 $70 $71 $16 $-1 $72 forward single #
loop $-1 $-1 $73 $28 #
plane-surface $-1 -53.103685353496004 -33.943531265330265 0 -1 0 0 0 0 1 forward_v I I I I #
coedge $-1 $74 $75 $76 $77 reversed $29 $-1 #
face $-1 $78 $79 $17 $-1 $80 forward single #
loop $-1 $-1 $81 $31 #
plane-surface $-1 46.813669727289302 -115.16122666951856 110.7678274754866 1 0 0 0 0.6018150307709319 -0.79863550430605224 forward_v I I I I #
coedge $-1 $82 $83 $84 $85 reversed $32 $-1 #
face $-1 $86 $87 $18 $-1 $88 forward single #
loop $-1 $89 $90 $34 #
cone-surface $-1 52.166585631756874 -27.253068232327898 4.9575639461557444 0 0.6018150307709319 -0.79863550430605224 0.75 0 0 1 I I -0.70710678118654757 0.70710678118654757 0.75 forward I I I I #
loop $-1 $-1 $91 $23 #
coedge $-1 $56 $56 $92 $93 reversed $35 $-1 #
face $-1 $94 $95 $19 $-1 $96 reversed single #
loop $-1 $97 $98 $37 #
cone-surface $-1 60.195959488458243 -27.253068232327898 4.9575639461557444 0 0.6018150307709319 -0.79863550430605224 0.75 0 0 1 I I -0.70710678118654757 0.70710678118654757 0.75 forward I I I I #
loop $-1 $-1 $99 $24 #
coedge $-1 $61 $61 $100 $101 reversed $38 $-1 #
face $-1 $102 $103 $15 $-1 $104 reversed single #
loop $-1 $-1 $105 $40 #
plane-surface $-1 0 -36.264629746331295 0 0 1 0 0 0 1 forward_v I I I I #
coedge $-1 $106 $107 $108 $109 forward $41 $-1 #
coedge $-1 $110 $43 $111 $112 forward $26 $-1 #
coedge $-1 $43 $110 $113 $114 forward $26 $-1 #
coedge $-1 $115 $116 $43 $69 reversed $117 $-1 #
edge $-1 $118 -36.264629746331295 $119 36.264629746331295 $68 $120 forward 7 unknown #
face $-1 $121 $122 $16 $-1 $123 reversed single #
loop $-1 $-1 $124 $44 #
plane-surface $-1 0 0 13.926250879270647 0 0 1 1 0 0 forward_v I I I I #
coedge $-1 $125 $126 $127 $128 reversed $45 $-1 #
coedge $-1 $129 $47 $124 $130 reversed $29 $-1 #
coedge $-1 $47 $129 $131 $132 reversed $29 $-1 #
coedge $-1 $126 $125 $47 $77 forward $45 $-1 #
edge $-1 $133 -13.926250879270647 $134 13.926250879270647 $76 $135 forward 7 unknown #
face $-1 $136 $137 $17 $-1 $138 reversed single #
loop $-1 $-1 $139 $48 #
plane-surface $-1 0 0 13.926250879270647 0 0 1 1 0 0 forward_v I I I I #
coedge $-1 $140 $141 $139 $142 reversed $49 $-1 #
coedge $-1 $143 $51 $141 $144 reversed $32 $-1 #
coedge $-1 $51 $143 $145 $146 reversed $32 $-1 #
coedge $-1 $147 $139 $51 $85 forward $79 $-1 #
edge $-1 $148 18.723033447235522 $149 37.458239112872043 $84 $150 forward 7 unknown #
face $-1 $151 $152 $18 $-1 $153 forward single #
loop $-1 $154 $92 $52 #
plane-surface $-1 56.181272560107558 -36.264629746331309 6.0685091632388435 0 -0.6018150307709319 0.79863550430605224 1 0 0 forward_v I I I I #
loop $-1 $-1 $155 $34 #
coedge $-1 $90 $90 $91 $156 forward $53 $-1 #
coedge $-1 $91 $91 $90 $156 reversed $55 $-1 #
coedge $-1 $92 $92 $56 $93 forward $87 $-1 #
edge $-1 $157 -4.3927377497148149e-016 $157 6.2831853071796004 $92 $158 forward 7 unknown #
face $-1 $159 $160 $19 $-1 $161 reversed single #
loop $-1 $162 $163 $57 #
cone-surface $-1 52.166585631756874 -29.377635814139357 7.7769602978200103 0 0.6018150307709319 -0.79863550430605224 1.5 0 0 1 I I 0 1 1.5 forward I I I I #
loop $-1 $-1 $164 $37 #
coedge $-1 $98 $98 $99 $165 forward $58 $-1 #
coedge $-1 $99 $99 $98 $165 reversed $60 $-1 #
coedge $-1 $100 $100 $61 $101 forward $166 $-1 #
edge $-1 $167 -4.3927377497148149e-016 $167 6.2831853071796004 $100 $168 forward 7 unknown #
face $-1 $169 $170 $15 $-1 $171 reversed single #
loop $-1 $-1 $172 $62 #
plane-surface $-1 -65.548875392925808 0 0 1 0 0 0 0 -1 forward_v I I I I #
coedge $-1 $173 $113 $174 $175 forward $63 $-1 #
coedge $-1 $176 $65 $173 $177 forward $41 $-1 #
coedge $-1 $65 $176 $178 $179 forward $41 $-1 #
coedge $-1 $116 $115 $65 $109 reversed $117 $-1 #
edge $-1 $180 -36.264629746331295 $181 36.264629746331295 $108 $182 forward 7 unknown #
coedge $-1 $67 $66 $183 $184 forward $26 $-1 #
coedge $-1 $185 $186 $66 $112 reversed $170 $-1 #
edge $-1 $119 -65.548875392925808 $187 65.548875392925808 $111 $188 forward 7 unknown #
coedge $-1 $105 $189 $67 $114 reversed $63 $-1 #
edge $-1 $190 -65.548875392925808 $118 65.548875392925808 $113 $191 forward 7 unknown #
coedge $-1 $108 $68 $189 $192 forward $117 $-1 #
coedge $-1 $68 $108 $185 $193 reversed $117 $-1 #
loop $-1 $-1 $115 $169 #
vertex $-1 $69 $194 #
vertex $-1 $69 $195 #
straight-curve $-1 65.548875392925808 0 13.926250879270647 0 1 0 I I #
face $-1 $196 $197 $16 $-1 $198 reversed single #
loop $-1 $-1 $127 $70 #
plane-surface $-1 0 -36.264629746331295 0 0 1 0 0 0 1 forward_v I I I I #
coedge $-1 $199 $200 $74 $130 forward $71 $-1 #
coedge $-1 $76 $73 $199 $201 reversed $45 $-1 #
coedge $-1 $73 $76 $202 $203 reversed $45 $-1 #
coedge $-1 $204 $205 $73 $128 forward $122 $-1 #
edge $-1 $206 -13.926250879270647 $207 13.926250879270647 $127 $208 forward 7 unknown #
coedge $-1 $75 $74 $209 $210 reversed $29 $-1 #
edge $-1 $211 -35.885735206320355 $133 -23.440545166890551 $124 $212 forward 7 unknown #
coedge $-1 $213 $202 $75 $132 forward $197 $-1 #
edge $-1 $134 23.440545166890551 $214 35.885735206320355 $131 $215 forward 7 unknown #
vertex $-1 $130 $216 #
vertex $-1 $132 $217 #
straight-curve $-1 -53.103685353496004 -31.622432784329234 0 0 0 -1 I I #
face $-1 $218 $219 $17 $-1 $220 forward single #
loop $-1 $-1 $145 $78 #
plane-surface $-1 65.548875392925808 0 0 -1 0 0 0 0 1 forward_v I I I I #
coedge $-1 $84 $221 $81 $142 forward $79 $-1 #
coedge $-1 $141 $81 $222 $223 reversed $49 $-1 #
coedge $-1 $81 $140 $82 $144 forward $49 $-1 #
edge $-1 $224 21.315983588427983 $148 31.743558835345304 $139 $225 forward 7 unknown #
coedge $-1 $83 $82 $226 $227 reversed $32 $-1 #
edge $-1 $228 1.7763522597878294e-014 $148 13.05673888863485 $141 $229 forward 7 unknown #
coedge $-1 $230 $231 $83 $146 forward $137 $-1 #
edge $-1 $149 -0.40168847007219793 $232 12.655050418562634 $145 $233 forward 7 unknown #
coedge $-1 $234 $84 $231 $235 forward $79 $-1 #
vertex $-1 $85 $236 #
vertex $-1 $235 $237 #
straight-curve $-1 28.090636280053779 -25.837054499413977 13.926250879270647 1 0 0 I I #
face $-1 $238 $239 $18 $-1 $240 forward single #
loop $-1 $-1 $241 $86 #
plane-surface $-1 46.813669727289302 -115.16122666951856 110.7678274754866 1 0 0 0 0.6018150307709319 -0.79863550430605224 forward_v I I I I #
loop $-1 $-1 $242 $52 #
coedge $-1 $155 $155 $-1 $243 forward $89 $-1 #
edge $-1 $244 0 $244 6.2831853071796004 $90 $245 forward 7 unknown #
vertex $-1 $93 $246 #
ellipse-curve $-1 52.166585631756874 -31.050842122872627 9.9973800212547541 0 0.6018150307709319 -0.79863550430605224 1.5 0 0 1 I I #
face $-1 $247 $166 $19 $-1 $248 forward single #
loop $-1 $249 $250 $94 #
cone-surface $-1 52.166585631756874 -27.253068232327898 4.9575639461557444 0 0.6018150307709319 -0.79863550430605224 0.75 0 0 1 I I -0.70710678118654757 0.70710678118654757 0.75 forward I I I I #
loop $-1 $-1 $251 $57 #
coedge $-1 $163 $163 $252 $253 reversed $95 $-1 #
coedge $-1 $164 $164 $-1 $254 forward $97 $-1 #
edge $-1 $255 0 $255 6.2831853071796004 $98 $256 forward 7 unknown #
loop $-1 $257 $100 $159 #
vertex $-1 $101 $258 #
ellipse-curve $-1 60.195959488458243 -31.050842122872627 9.9973800212547541 0 0.6018150307709319 -0.79863550430605224 1.5 0 0 1 I I #
face $-1 $-1 $117 $15 $-1 $259 reversed single #
loop $-1 $-1 $185 $102 #
plane-surface $-1 0 36.264629746331295 0 0 -1 0 0 0 -1 forward_v I I I I #
coedge $-1 $260 $183 $186 $261 forward $103 $-1 #
coedge $-1 $189 $105 $106 $177 reversed $63 $-1 #
coedge $-1 $183 $260 $105 $175 reversed $103 $-1 #
edge $-1 $190 -13.926250879270647 $262 13.926250879270647 $174 $263 forward 7 unknown #
coedge $-1 $107 $106 $260 $264 forward $41 $-1 #
edge $-1 $181 -65.548875392925808 $262 65.548875392925808 $173 $265 forward 7 unknown #
coedge $-1 $186 $185 $107 $179 reversed $170 $-1 #
edge $-1 $266 -65.548875392925808 $180 65.548875392925808 $178 $267 forward 7 unknown #
vertex $-1 $109 $268 #
vertex $-1 $192 $269 #
straight-curve $-1 65.548875392925808 0 -13.926250879270647 0 -1 0 I I #
coedge $-1 $172 $174 $110 $184 reversed $103 $-1 #
edge $-1 $187 -36.264629746331295 $190 36.264629746331295 $183 $270 forward 7 unknown #
coedge $-1 $178 $111 $116 $193 forward $170 $-1 #
coedge $-1 $111 $178 $172 $261 reversed $170 $-1 #
vertex $-1 $112 $271 #
straight-curve $-1 0 36.264629746331295 13.926250879270647 -1 0 0 I I #
coedge $-1 $113 $173 $115 $192 reversed $63 $-1 #
vertex $-1 $184 $272 #
straight-curve $-1 0 -36.264629746331295 13.926250879270647 1 0 0 I I #
edge $-1 $118 -13.926250879270647 $181 13.926250879270647 $115 $273 forward 7 unknown #
edge $-1 $119 -13.926250879270647 $180 13.926250879270647 $116 $274 forward 7 unknown #
point $-1 65.548875392925808 -36.264629746331295 13.926250879270647 #
point $-1 65.548875392925808 36.264629746331295 13.926250879270647 #
face $-1 $275 $276 $16 $-1 $277 reversed single #
loop $-1 $-1 $131 $121 #
plane-surface $-1 0 0 -13.926250879270647 0 0 1 1 0 0 forward_v I I I I #
coedge $-1 $278 $124 $125 $201 forward $71 $-1 #
coedge $-1 $124 $279 $280 $281 forward $71 $-1 #
edge $-1 $133 14.650667151664102 $206 19.292864113666162 $199 $282 forward 7 unknown #
coedge $-1 $131 $283 $126 $203 forward $197 $-1 #
edge $-1 $207 -19.292864113666162 $134 -14.650667151664102 $202 $284 forward 7 unknown #
coedge $-1 $285 $127 $283 $286 reversed $122 $-1 #
coedge $-1 $127 $285 $278 $287 reversed $122 $-1 #
vertex $-1 $287 $288 #
vertex $-1 $128 $289 #
straight-curve $-1 -53.103685353496004 -36.264629746331295 0 0 0 -1 I I #
coedge $-1 $280 $290 $129 $210 forward $276 $-1 #
edge $-1 $214 -13.926250879270647 $211 13.926250879270647 $209 $291 forward 7 unknown #
vertex $-1 $210 $292 #
straight-curve $-1 -29.663140186605453 -31.622432784329234 13.926250879270647 1 0 0 I I #
coedge $-1 $293 $131 $290 $294 forward $197 $-1 #
vertex $-1 $294 $295 #
straight-curve $-1 -29.663140186605453 -31.622432784329234 -13.926250879270647 -1 0 0 I I #
point $-1 -53.103685353496004 -31.622432784329234 13.926250879270647 #
point $-1 -53.103685353496004 -31.622432784329234 -13.926250879270647 #
face $-1 $296 $297 $17 $-1 $298 forward single #
loop $-1 $-1 $299 $136 #
plane-surface $-1 -59.326280373210906 -31.622432784329234 0 0 -1 0 0 0 -1 forward_v I I I I #
coedge $-1 $139 $300 $301 $302 forward $79 $-1 #
coedge $-1 $301 $226 $140 $223 forward $303 $-1 #
edge $-1 $228 -49.315404574504441 $224 -41.457662858472652 $222 $304 forward 7 unknown #
vertex $-1 $223 $305 #
straight-curve $-1 46.813669727289302 -57.580613334759278 13.926250879270647 0 1 0 I I #
coedge $-1 $222 $306 $143 $227 forward $303 $-1 #
edge $-1 $232 -37.458239112872043 $228 -18.723033447235522 $226 $307 forward 7 unknown #
vertex $-1 $227 $308 #
straight-curve $-1 46.813669727289302 -36.264629746331309 6.0685091632388435 0 0.79863550430605224 0.6018150307709319 I I #
coedge $-1 $309 $145 $306 $310 forward $137 $-1 #
coedge $-1 $145 $311 $147 $235 reversed $137 $-1 #
vertex $-1 $310 $312 #
straight-curve $-1 65.548875392925808 -26.157857173284011 13.68450872029382 0 -0.79863550430605224 -0.6018150307709319 I I #
coedge $-1 $313 $147 $314 $315 forward $79 $-1 #
edge $-1 $149 -25.837054499413973 $316 36.264629746331295 $231 $317 forward 7 unknown #
point $-1 46.813669727289302 -25.837054499413973 13.926250879270647 #
point $-1 65.548875392925822 -25.837054499413973 13.926250879270647 #
face $-1 $318 $319 $18 $-1 $320 reversed single #
loop $-1 $-1 $321 $151 #
plane-surface $-1 0 0 13.926250879270647 0 0 1 1 0 0 forward_v I I I I #
coedge $-1 $322 $323 $321 $324 reversed $152 $-1 #
coedge $-1 $325 $326 $327 $328 reversed $154 $-1 #
edge $-1 $329 1 $329 0 $155 $-1 forward 7 unknown #
vertex $-1 $156 $330 #
ellipse-curve $-1 52.166585631756874 -27.704429505406097 5.5565405743852834 0 -0.6018150307709319 0.79863550430605224 1.5 0 0 1 I I #
point $-1 53.666585631756874 -31.050842122872613 9.9973800212547363 #
face $-1 $331 $332 $19 $-1 $333 forward single #
plane-surface $-1 56.181272560107558 -36.264629746331309 6.0685091632388435 0 -0.6018150307709319 0.79863550430605224 1 0 0 forward_v I I I I #
loop $-1 $-1 $334 $94 #
coedge $-1 $250 $250 $251 $335 forward $160 $-1 #
coedge $-1 $251 $251 $250 $335 reversed $162 $-1 #
coedge $-1 $252 $252 $163 $253 forward $257 $-1 #
edge $-1 $336 -4.3927377497148149e-016 $336 6.2831853071796004 $252 $337 forward 7 unknown #
edge $-1 $338 1 $338 0 $164 $-1 forward 7 unknown #
vertex $-1 $165 $339 #
ellipse-curve $-1 60.195959488458243 -27.704429505406097 5.5565405743852834 0 -0.6018150307709319 0.79863550430605224 1.5 0 0 1 I I #
loop $-1 $340 $252 $159 #
point $-1 61.695959488458243 -31.050842122872613 9.9973800212547363 #
plane-surface $-1 65.548875392925808 0 0 -1 0 0 0 0 1 forward_v I I I I #
coedge $-1 $174 $172 $176 $264 reversed $103 $-1 #
edge $-1 $187 -13.926250879270647 $266 13.926250879270647 $186 $341 forward 7 unknown #
vertex $-1 $264 $342 #
straight-curve $-1 -65.548875392925808 -36.264629746331295 0 0 0 -1 I I #
edge $-1 $262 -36.264629746331295 $266 36.264629746331295 $260 $343 forward 7 unknown #
straight-curve $-1 0 -36.264629746331295 -13.926250879270647 -1 0 0 I I #
vertex $-1 $179 $344 #
straight-curve $-1 0 36.264629746331295 -13.926250879270647 1 0 0 I I #
point $-1 65.548875392925808 36.264629746331295 -13.926250879270647 #
point $-1 65.548875392925808 -36.264629746331295 -13.926250879270647 #
straight-curve $-1 -65.548875392925808 0 13.926250879270647 0 -1 0 I I #
point $-1 -65.548875392925808 36.264629746331295 13.926250879270647 #
point $-1 -65.548875392925808 -36.264629746331295 13.926250879270647 #
straight-curve $-1 65.548875392925808 -36.264629746331295 0 0 0 -1 I I #
straight-curve $-1 65.548875392925808 36.264629746331295 0 0 0 -1 I I #
face $-1 $345 $346 $16 $-1 $347 reversed single #
loop $-1 $-1 $209 $196 #
plane-surface $-1 -65.548875392925808 0 0 1 0 0 0 0 -1 forward_v I I I I #
coedge $-1 $348 $199 $205 $287 forward $71 $-1 #
coedge $-1 $200 $348 $349 $350 forward $71 $-1 #
coedge $-1 $351 $209 $200 $281 reversed $276 $-1 #
edge $-1 $352 -36.264629746331295 $211 31.622432784329234 $280 $353 forward 7 unknown #
straight-curve $-1 -53.103685353496004 -16.971765632665132 13.926250879270647 0 -1 0 I I #
coedge $-1 $202 $354 $204 $286 forward $197 $-1 #
straight-curve $-1 -53.103685353496004 -16.971765632665132 -13.926250879270647 0 1 0 I I #
coedge $-1 $205 $204 $355 $356 reversed $122 $-1 #
edge $-1 $357 -65.548875392925808 $207 53.103685353496004 $204 $358 forward 7 unknown #
edge $-1 $206 -53.103685353496004 $359 65.548875392925808 $205 $360 forward 7 unknown #
point $-1 -53.103685353496004 -36.264629746331295 13.926250879270647 #
point $-1 -53.103685353496004 -36.264629746331295 -13.926250879270647 #
coedge $-1 $209 $351 $213 $294 reversed $276 $-1 #
straight-curve $-1 -65.548875392925808 -31.622432784329234 0 0 0 1 I I #
point $-1 -65.548875392925808 -31.622432784329234 13.926250879270647 #
coedge $-1 $354 $213 $361 $362 forward $197 $-1 #
edge $-1 $214 -31.622432784329234 $363 36.264629746331295 $290 $364 forward 7 unknown #
point $-1 -65.548875392925808 -31.622432784329234 -13.926250879270647 #
face $-1 $365 $303 $17 $-1 $366 reversed single #
loop $-1 $-1 $367 $218 #
plane-surface $-1 -53.103685353496004 -33.943531265330265 0 -1 0 0 0 0 1 forward_v I I I I #
coedge $-1 $368 $369 $370 $371 reversed $219 $-1 #
coedge $-1 $221 $372 $373 $374 forward $79 $-1 #
coedge $-1 $375 $222 $221 $302 reversed $303 $-1 #
edge $-1 $376 -53.103685353496004 $224 46.813669727289302 $301 $377 forward 7 unknown #
loop $-1 $-1 $222 $296 #
straight-curve $-1 46.813669727289302 -36.264629746331295 55.383913737743299 0 0 1 I I #
point $-1 46.813669727289302 -36.264629746331295 13.926250879270647 #
coedge $-1 $226 $378 $230 $310 reversed $303 $-1 #
straight-curve $-1 28.090636280053779 -36.264629746331295 6.0685091632388541 -1 0 0 I I #
point $-1 46.813669727289302 -36.264629746331295 6.0685091632388541 #
coedge $-1 $311 $230 $379 $380 reversed $137 $-1 #
edge $-1 $232 -6.0685091632388541 $381 13.926250879270647 $230 $382 forward 7 unknown #
coedge $-1 $231 $309 $383 $384 reversed $137 $-1 #
point $-1 65.548875392925822 -36.264629746331295 6.0685091632388541 #
coedge $-1 $372 $234 $385 $386 forward $79 $-1 #
coedge $-1 $383 $387 $234 $315 reversed $388 $-1 #
edge $-1 $316 -65.548875392925808 $389 65.548875392925808 $314 $390 forward 7 unknown #
vertex $-1 $235 $391 #
straight-curve $-1 65.548875392925808 0 13.926250879270647 0 1 0 I I #
face $-1 $392 $393 $18 $-1 $394 forward single #
loop $-1 $-1 $395 $238 #
plane-surface $-1 65.548875392925808 0 0 -1 0 0 0 0 1 forward_v I I I I #
coedge $-1 $327 $396 $241 $324 forward $239 $-1 #
coedge $-1 $323 $241 $397 $398 reversed $152 $-1 #
coedge $-1 $241 $322 $325 $399 forward $152 $-1 #
edge $-1 $400 21.315983588427983 $401 31.743558835345304 $321 $402 forward 7 unknown #
coedge $-1 $403 $242 $323 $399 reversed $154 $-1 #
coedge $-1 $242 $403 $395 $404 reversed $154 $-1 #
coedge $-1 $405 $321 $242 $328 forward $239 $-1 #
edge $-1 $401 18.723033447235522 $406 37.458239112872043 $327 $407 forward 7 unknown #
vertex $-1 $243 $408 #
point $-1 53.666585631756874 -27.704429505406097 5.5565405743852834 #
face $-1 $409 $410 $19 $-1 $411 forward single #
loop $-1 $-1 $412 $247 #
plane-surface $-1 46.813669727289302 -115.16122666951856 110.7678274754866 1 0 0 0 0.6018150307709319 -0.79863550430605224 forward_v I I I I #
coedge $-1 $334 $334 $-1 $413 forward $249 $-1 #
edge $-1 $414 0 $414 6.2831853071796004 $250 $415 forward 7 unknown #
vertex $-1 $253 $416 #
ellipse-curve $-1 52.166585631756874 -31.050842122872627 9.9973800212547541 0 0.6018150307709319 -0.79863550430605224 1.5 0 0 1 I I #
vertex $-1 $254 $417 #
point $-1 61.695959488458243 -27.704429505406097 5.5565405743852834 #
loop $-1 $-1 $418 $159 #
straight-curve $-1 -65.548875392925808 36.264629746331295 0 0 0 -1 I I #
point $-1 -65.548875392925808 -36.264629746331295 -13.926250879270647 #
straight-curve $-1 -65.548875392925808 0 -13.926250879270647 0 1 0 I I #
point $-1 -65.548875392925808 36.264629746331295 -13.926250879270647 #
face $-1 $-1 $419 $16 $-1 $420 reversed single #
loop $-1 $-1 $421 $275 #
plane-surface $-1 0 36.264629746331295 0 0 -1 0 0 0 -1 forward_v I I I I #
coedge $-1 $279 $278 $422 $423 forward $71 $-1 #
coedge $-1 $421 $424 $279 $350 reversed $346 $-1 #
edge $-1 $425 -65.548875392925808 $352 65.548875392925808 $349 $426 forward 7 unknown #
coedge $-1 $290 $280 $424 $427 forward $276 $-1 #
vertex $-1 $350 $428 #
straight-curve $-1 -65.548875392925808 0 13.926250879270647 0 -1 0 I I #
coedge $-1 $283 $293 $429 $430 forward $197 $-1 #
coedge $-1 $429 $422 $285 $356 forward $419 $-1 #
edge $-1 $359 -13.926250879270647 $357 13.926250879270647 $355 $431 forward 7 unknown #
vertex $-1 $356 $432 #
straight-curve $-1 0 -36.264629746331295 -13.926250879270647 -1 0 0 I I #
vertex $-1 $423 $433 #
straight-curve $-1 0 -36.264629746331295 13.926250879270647 1 0 0 I I #
coedge $-1 $424 $421 $293 $362 reversed $346 $-1 #
edge $-1 $363 -65.548875392925808 $434 65.548875392925808 $361 $435 forward 7 unknown #
vertex $-1 $362 $436 #
straight-curve $-1 -65.548875392925808 0 -13.926250879270647 0 1 0 I I #
face $-1 $437 $438 $17 $-1 $439 reversed single #
plane-surface $-1 0 -36.264629746331295 0 0 1 0 0 0 1 forward_v I I I I #
coedge $-1 $373 $440 $375 $441 reversed $297 $-1 #
coedge $-1 $442 $299 $372 $443 reversed $219 $-1 #
coedge $-1 $299 $442 $444 $445 reversed $219 $-1 #
coedge $-1 $440 $373 $299 $371 forward $297 $-1 #
edge $-1 $446 -13.926250879270647 $447 13.926250879270647 $370 $448 forward 7 unknown #
coedge $-1 $300 $313 $368 $443 forward $79 $-1 #
coedge $-1 $370 $367 $300 $374 reversed $297 $-1 #
edge $-1 $446 14.650667151664102 $376 19.292864113666162 $300 $449 forward 7 unknown #
coedge $-1 $378 $301 $367 $441 forward $303 $-1 #
vertex $-1 $302 $450 #
straight-curve $-1 0 -36.264629746331295 13.926250879270647 1 0 0 I I #
coedge $-1 $306 $375 $451 $452 reversed $303 $-1 #
coedge $-1 $451 $453 $309 $380 forward $438 $-1 #
edge $-1 $454 -36.264629746331295 $381 36.264629746331295 $309 $455 forward 7 unknown #
vertex $-1 $310 $456 #
straight-curve $-1 65.548875392925808 -36.264629746331295 0 0 0 -1 I I #
coedge $-1 $457 $314 $311 $384 forward $388 $-1 #
edge $-1 $316 -13.926250879270647 $454 13.926250879270647 $311 $458 forward 7 unknown #
coedge $-1 $459 $460 $313 $386 reversed $461 $-1 #
edge $-1 $389 -36.264629746331295 $462 31.622432784329234 $385 $463 forward 7 unknown #
coedge $-1 $314 $457 $459 $464 reversed $388 $-1 #
loop $-1 $-1 $383 $465 #
vertex $-1 $315 $466 #
straight-curve $-1 0 36.264629746331295 13.926250879270647 -1 0 0 I I #
point $-1 65.548875392925808 36.264629746331295 13.926250879270647 #
face $-1 $467 $468 $18 $-1 $469 forward single #
loop $-1 $-1 $470 $318 #
plane-surface $-1 -59.326280373210906 -31.622432784329234 0 0 -1 0 0 0 -1 forward_v I I I I #
coedge $-1 $471 $472 $326 $404 forward $319 $-1 #
coedge $-1 $321 $473 $474 $475 forward $239 $-1 #
coedge $-1 $474 $476 $322 $398 forward $477 $-1 #
edge $-1 $478 -49.315404574504441 $400 -41.457662858472652 $397 $479 forward 7 unknown #
edge $-1 $478 1.7763522597878294e-014 $401 13.05673888863485 $323 $480 forward 7 unknown #
vertex $-1 $398 $481 #
vertex $-1 $328 $482 #
straight-curve $-1 46.813669727289302 -57.580613334759278 13.926250879270647 0 1 0 I I #
coedge $-1 $326 $325 $476 $483 reversed $154 $-1 #
edge $-1 $406 -0.40168847007219793 $484 12.655050418562634 $395 $485 forward 7 unknown #
coedge $-1 $486 $327 $472 $487 forward $239 $-1 #
vertex $-1 $487 $488 #
straight-curve $-1 28.090636280053779 -25.837054499413977 13.926250879270647 1 0 0 I I #
point $-1 52.166585631756874 -26.801706959249699 4.3585873179262054 #
face $-1 $489 $490 $19 $-1 $491 reversed single #
loop $-1 $-1 $492 $331 #
plane-surface $-1 0 0 13.926250879270647 0 0 1 1 0 0 forward_v I I I I #
coedge $-1 $493 $494 $492 $495 reversed $332 $-1 #
edge $-1 $496 1 $496 0 $334 $-1 forward 7 unknown #
vertex $-1 $335 $497 #
ellipse-curve $-1 52.166585631756874 -27.704429505406097 5.5565405743852834 0 -0.6018150307709319 0.79863550430605224 1.5 0 0 1 I I #
point $-1 53.666585631756874 -31.050842122872613 9.9973800212547363 #
point $-1 60.195959488458243 -26.801706959249699 4.3585873179262054 #
coedge $-1 $498 $499 $500 $501 reversed $340 $-1 #
loop $-1 $-1 $355 $345 #
plane-surface $-1 65.548875392925808 0 0 -1 0 0 0 0 1 forward_v I I I I #
coedge $-1 $361 $349 $502 $503 forward $346 $-1 #
coedge $-1 $355 $502 $348 $423 reversed $419 $-1 #
edge $-1 $359 -36.264629746331295 $425 36.264629746331295 $422 $504 forward 7 unknown #
coedge $-1 $349 $361 $351 $427 reversed $346 $-1 #
vertex $-1 $423 $505 #
straight-curve $-1 0 36.264629746331295 13.926250879270647 -1 0 0 I I #
edge $-1 $352 -13.926250879270647 $363 13.926250879270647 $424 $506 forward 7 unknown #
point $-1 -65.548875392925808 36.264629746331295 13.926250879270647 #
coedge $-1 $502 $355 $354 $430 reversed $419 $-1 #
edge $-1 $434 -36.264629746331295 $357 36.264629746331295 $429 $507 forward 7 unknown #
straight-curve $-1 65.548875392925808 -36.264629746331295 0 0 0 -1 I I #
point $-1 65.548875392925808 -36.264629746331295 -13.926250879270647 #
point $-1 65.548875392925808 -36.264629746331295 13.926250879270647 #
vertex $-1 $430 $508 #
straight-curve $-1 0 36.264629746331295 -13.926250879270647 1 0 0 I I #
point $-1 -65.548875392925808 36.264629746331295 -13.926250879270647 #
face $-1 $465 $461 $17 $-1 $509 reversed single #
loop $-1 $-1 $444 $365 #
plane-surface $-1 0 0 -13.926250879270647 0 0 1 1 0 0 forward_v I I I I #
coedge $-1 $367 $370 $510 $511 reversed $297 $-1 #
edge $-1 $376 -13.926250879270647 $512 13.926250879270647 $375 $513 forward 7 unknown #
coedge $-1 $369 $368 $460 $514 reversed $219 $-1 #
edge $-1 $462 -35.885735206320355 $446 -23.440545166890551 $372 $515 forward 7 unknown #
coedge $-1 $516 $510 $369 $445 forward $438 $-1 #
edge $-1 $447 23.440545166890551 $517 35.885735206320355 $444 $518 forward 7 unknown #
vertex $-1 $443 $519 #
vertex $-1 $445 $520 #
straight-curve $-1 -53.103685353496004 -31.622432784329234 0 0 0 -1 I I #
straight-curve $-1 -53.103685353496004 -16.971765632665132 13.926250879270647 0 -1 0 I I #
point $-1 -53.103685353496004 -36.264629746331295 13.926250879270647 #
coedge $-1 $510 $379 $378 $452 forward $438 $-1 #
edge $-1 $381 -65.548875392925808 $512 53.103685353496004 $378 $521 forward 7 unknown #
coedge $-1 $379 $516 $457 $522 forward $438 $-1 #
vertex $-1 $380 $523 #
straight-curve $-1 65.548875392925808 0 -13.926250879270647 0 -1 0 I I #
point $-1 65.548875392925808 -36.264629746331295 -13.926250879270647 #
coedge $-1 $387 $383 $453 $522 reversed $388 $-1 #
straight-curve $-1 65.548875392925808 36.264629746331295 0 0 0 -1 I I #
coedge $-1 $524 $385 $387 $464 forward $461 $-1 #
coedge $-1 $385 $524 $442 $514 forward $461 $-1 #
loop $-1 $-1 $460 $437 #
vertex $-1 $514 $525 #
straight-curve $-1 -65.548875392925808 0 13.926250879270647 0 -1 0 I I #
edge $-1 $389 -13.926250879270647 $526 13.926250879270647 $387 $527 forward 7 unknown #
face $-1 $-1 $388 $17 $-1 $528 reversed single #
point $-1 -65.548875392925808 36.264629746331295 13.926250879270647 #
face $-1 $529 $477 $18 $-1 $530 reversed single #
loop $-1 $-1 $531 $392 #
plane-surface $-1 -53.103685353496004 -33.943531265330265 0 -1 0 0 0 0 1 forward_v I I I I #
coedge $-1 $532 $533 $534 $535 reversed $393 $-1 #
coedge $-1 $536 $395 $537 $538 forward $319 $-1 #
coedge $-1 $395 $539 $405 $487 reversed $319 $-1 #
coedge $-1 $396 $540 $541 $542 forward $239 $-1 #
coedge $-1 $543 $397 $396 $475 reversed $477 $-1 #
edge $-1 $544 -53.103685353496004 $400 46.813669727289302 $474 $545 forward 7 unknown #
coedge $-1 $397 $537 $403 $483 forward $477 $-1 #
loop $-1 $-1 $397 $467 #
vertex $-1 $483 $546 #
straight-curve $-1 46.813669727289302 -36.264629746331295 55.383913737743299 0 0 1 I I #
straight-curve $-1 46.813669727289302 -36.264629746331309 6.0685091632388435 0 0.79863550430605224 0.6018150307709319 I I #
point $-1 46.813669727289302 -36.264629746331295 13.926250879270647 #
point $-1 46.813669727289302 -25.837054499413973 13.926250879270647 #
edge $-1 $484 -37.458239112872043 $478 -18.723033447235522 $476 $547 forward 7 unknown #
vertex $-1 $538 $548 #
straight-curve $-1 65.548875392925808 -26.157857173284011 13.68450872029382 0 -0.79863550430605224 -0.6018150307709319 I I #
coedge $-1 $549 $405 $550 $551 forward $239 $-1 #
edge $-1 $406 -25.837054499413973 $552 36.264629746331295 $472 $553 forward 7 unknown #
point $-1 65.548875392925822 -25.837054499413973 13.926250879270647 #
face $-1 $554 $555 $19 $-1 $556 forward single #
loop $-1 $-1 $557 $409 #
plane-surface $-1 65.548875392925808 0 0 -1 0 0 0 0 1 forward_v I I I I #
coedge $-1 $500 $558 $412 $495 forward $410 $-1 #
coedge $-1 $494 $412 $559 $560 reversed $332 $-1 #
coedge $-1 $412 $493 $498 $561 forward $332 $-1 #
edge $-1 $562 21.315983588427983 $563 31.743558835345304 $492 $564 forward 7 unknown #
vertex $-1 $413 $565 #
point $-1 53.666585631756874 -27.704429505406097 5.5565405743852834 #
coedge $-1 $566 $418 $494 $561 reversed $340 $-1 #
coedge $-1 $418 $566 $557 $567 reversed $340 $-1 #
coedge $-1 $568 $492 $418 $501 forward $410 $-1 #
edge $-1 $563 18.723033447235522 $569 37.458239112872043 $500 $570 forward 7 unknown #
coedge $-1 $422 $429 $421 $503 reversed $419 $-1 #
edge $-1 $425 -13.926250879270647 $434 13.926250879270647 $502 $571 forward 7 unknown #
straight-curve $-1 65.548875392925808 0 13.926250879270647 0 1 0 I I #
point $-1 65.548875392925808 36.264629746331295 13.926250879270647 #
straight-curve $-1 -65.548875392925808 36.264629746331295 0 0 0 -1 I I #
straight-curve $-1 65.548875392925808 0 -13.926250879270647 0 -1 0 I I #
point $-1 65.548875392925808 36.264629746331295 -13.926250879270647 #
plane-surface $-1 -65.548875392925808 0 0 1 0 0 0 0 -1 forward_v I I I I #
coedge $-1 $444 $451 $440 $511 forward $438 $-1 #
edge $-1 $512 -19.292864113666162 $447 -14.650667151664102 $510 $572 forward 7 unknown #
vertex $-1 $441 $573 #
straight-curve $-1 -53.103685353496004 -36.264629746331295 0 0 0 -1 I I #
edge $-1 $517 -13.926250879270647 $462 13.926250879270647 $460 $574 forward 7 unknown #
straight-curve $-1 -29.663140186605453 -31.622432784329234 13.926250879270647 1 0 0 I I #
coedge $-1 $453 $444 $524 $575 forward $438 $-1 #
vertex $-1 $575 $576 #
straight-curve $-1 -29.663140186605453 -31.622432784329234 -13.926250879270647 -1 0 0 I I #
point $-1 -53.103685353496004 -31.622432784329234 13.926250879270647 #
point $-1 -53.103685353496004 -31.622432784329234 -13.926250879270647 #
straight-curve $-1 0 -36.264629746331295 -13.926250879270647 -1 0 0 I I #
edge $-1 $526 -65.548875392925808 $454 65.548875392925808 $457 $577 forward 7 unknown #
point $-1 65.548875392925808 36.264629746331295 -13.926250879270647 #
coedge $-1 $460 $459 $516 $575 reversed $461 $-1 #
point $-1 -65.548875392925808 -31.622432784329234 13.926250879270647 #
vertex $-1 $522 $578 #
straight-curve $-1 -65.548875392925808 36.264629746331295 0 0 0 -1 I I #
plane-surface $-1 0 36.264629746331295 0 0 -1 0 0 0 -1 forward_v I I I I #
face $-1 $579 $580 $18 $-1 $581 reversed single #
plane-surface $-1 0 -36.264629746331295 0 0 1 0 0 0 1 forward_v I I I I #
coedge $-1 $541 $582 $543 $583 reversed $468 $-1 #
coedge $-1 $584 $470 $540 $585 reversed $393 $-1 #
coedge $-1 $470 $584 $586 $587 reversed $393 $-1 #
coedge $-1 $582 $541 $470 $535 forward $468 $-1 #
edge $-1 $588 -13.926250879270647 $589 13.926250879270647 $534 $590 forward 7 unknown #
coedge $-1 $539 $471 $591 $592 reversed $319 $-1 #
coedge $-1 $476 $593 $471 $538 reversed $477 $-1 #
edge $-1 $484 -6.0685091632388541 $594 13.926250879270647 $471 $595 forward 7 unknown #
coedge $-1 $472 $536 $596 $597 reversed $319 $-1 #
coedge $-1 $473 $549 $532 $585 forward $239 $-1 #
coedge $-1 $534 $531 $473 $542 reversed $468 $-1 #
edge $-1 $588 14.650667151664102 $544 19.292864113666162 $473 $598 forward 7 unknown #
coedge $-1 $593 $474 $531 $583 forward $477 $-1 #
vertex $-1 $475 $599 #
straight-curve $-1 0 -36.264629746331295 13.926250879270647 1 0 0 I I #
point $-1 46.813669727289302 -36.264629746331295 6.0685091632388541 #
straight-curve $-1 28.090636280053779 -36.264629746331295 6.0685091632388541 -1 0 0 I I #
point $-1 65.548875392925822 -36.264629746331295 6.0685091632388541 #
coedge $-1 $540 $486 $600 $601 forward $239 $-1 #
coedge $-1 $596 $602 $486 $551 reversed $603 $-1 #
edge $-1 $552 -65.548875392925808 $604 65.548875392925808 $550 $605 forward 7 unknown #
vertex $-1 $487 $606 #
straight-curve $-1 65.548875392925808 0 13.926250879270647 0 1 0 I I #
face $-1 $607 $608 $19 $-1 $609 forward single #
loop $-1 $-1 $610 $489 #
plane-surface $-1 -59.326280373210906 -31.622432784329234 0 0 -1 0 0 0 -1 forward_v I I I I #
coedge $-1 $611 $612 $499 $567 forward $490 $-1 #
coedge $-1 $492 $613 $614 $615 forward $410 $-1 #
coedge $-1 $614 $616 $493 $560 forward $617 $-1 #
edge $-1 $618 -49.315404574504441 $562 -41.457662858472652 $559 $619 forward 7 unknown #
edge $-1 $618 1.7763522597878294e-014 $563 13.05673888863485 $494 $620 forward 7 unknown #
vertex $-1 $560 $621 #
vertex $-1 $501 $622 #
straight-curve $-1 46.813669727289302 -57.580613334759278 13.926250879270647 0 1 0 I I #
point $-1 52.166585631756874 -26.801706959249699 4.3585873179262054 #
coedge $-1 $499 $498 $616 $623 reversed $340 $-1 #
edge $-1 $569 -0.40168847007219793 $624 12.655050418562634 $557 $625 forward 7 unknown #
coedge $-1 $626 $500 $612 $627 forward $410 $-1 #
vertex $-1 $627 $628 #
straight-curve $-1 28.090636280053779 -25.837054499413977 13.926250879270647 1 0 0 I I #
straight-curve $-1 65.548875392925808 36.264629746331295 0 0 0 -1 I I #
straight-curve $-1 -53.103685353496004 -16.971765632665132 -13.926250879270647 0 1 0 I I #
point $-1 -53.103685353496004 -36.264629746331295 -13.926250879270647 #
straight-curve $-1 -65.548875392925808 -31.622432784329234 0 0 0 1 I I #
edge $-1 $517 -31.622432784329234 $526 36.264629746331295 $524 $629 forward 7 unknown #
point $-1 -65.548875392925808 -31.622432784329234 -13.926250879270647 #
straight-curve $-1 0 36.264629746331295 -13.926250879270647 1 0 0 I I #
point $-1 -65.548875392925808 36.264629746331295 -13.926250879270647 #
face $-1 $630 $631 $18 $-1 $632 reversed single #
loop $-1 $-1 $586 $529 #
plane-surface $-1 0 0 -13.926250879270647 0 0 1 1 0 0 forward_v I I I I #
coedge $-1 $531 $534 $633 $634 reversed $468 $-1 #
edge $-1 $544 -13.926250879270647 $635 13.926250879270647 $543 $636 forward 7 unknown #
coedge $-1 $533 $532 $637 $638 reversed $393 $-1 #
edge $-1 $639 -35.885735206320355 $588 -23.440545166890551 $540 $640 forward 7 unknown #
coedge $-1 $641 $633 $533 $587 forward $580 $-1 #
edge $-1 $589 23.440545166890551 $642 35.885735206320355 $586 $643 forward 7 unknown #
vertex $-1 $585 $644 #
vertex $-1 $587 $645 #
straight-curve $-1 -53.103685353496004 -31.622432784329234 0 0 0 -1 I I #
coedge $-1 $646 $647 $536 $592 forward $580 $-1 #
edge $-1 $648 -36.264629746331295 $594 36.264629746331295 $536 $649 forward 7 unknown #
coedge $-1 $537 $543 $646 $650 reversed $477 $-1 #
vertex $-1 $538 $651 #
straight-curve $-1 65.548875392925808 -36.264629746331295 0 0 0 -1 I I #
coedge $-1 $652 $550 $539 $597 forward $603 $-1 #
edge $-1 $552 -13.926250879270647 $648 13.926250879270647 $539 $653 forward 7 unknown #
straight-curve $-1 -53.103685353496004 -16.971765632665132 13.926250879270647 0 -1 0 I I #
point $-1 -53.103685353496004 -36.264629746331295 13.926250879270647 #
coedge $-1 $654 $637 $549 $601 reversed $631 $-1 #
edge $-1 $604 -36.264629746331295 $639 31.622432784329234 $600 $655 forward 7 unknown #
coedge $-1 $550 $652 $654 $656 reversed $603 $-1 #
loop $-1 $-1 $596 $630 #
vertex $-1 $551 $657 #
straight-curve $-1 0 36.264629746331295 13.926250879270647 -1 0 0 I I #
point $-1 65.548875392925808 36.264629746331295 13.926250879270647 #
face $-1 $658 $617 $19 $-1 $659 reversed single #
loop $-1 $-1 $660 $554 #
plane-surface $-1 -53.103685353496004 -33.943531265330265 0 -1 0 0 0 0 1 forward_v I I I I #
coedge $-1 $661 $662 $663 $664 reversed $555 $-1 #
coedge $-1 $665 $557 $666 $667 forward $490 $-1 #
coedge $-1 $557 $668 $568 $627 reversed $490 $-1 #
coedge $-1 $558 $669 $670 $671 forward $410 $-1 #
coedge $-1 $672 $559 $558 $615 reversed $617 $-1 #
edge $-1 $673 -53.103685353496004 $562 46.813669727289302 $614 $674 forward 7 unknown #
coedge $-1 $559 $666 $566 $623 forward $617 $-1 #
loop $-1 $-1 $559 $607 #
vertex $-1 $623 $675 #
straight-curve $-1 46.813669727289302 -36.264629746331295 55.383913737743299 0 0 1 I I #
straight-curve $-1 46.813669727289302 -36.264629746331309 6.0685091632388435 0 0.79863550430605224 0.6018150307709319 I I #
point $-1 46.813669727289302 -36.264629746331295 13.926250879270647 #
point $-1 46.813669727289302 -25.837054499413973 13.926250879270647 #
edge $-1 $624 -37.458239112872043 $618 -18.723033447235522 $616 $676 forward 7 unknown #
vertex $-1 $667 $677 #
straight-curve $-1 65.548875392925808 -26.157857173284011 13.68450872029382 0 -0.79863550430605224 -0.6018150307709319 I I #
coedge $-1 $678 $568 $679 $680 forward $410 $-1 #
edge $-1 $569 -25.837054499413973 $681 36.264629746331295 $612 $682 forward 7 unknown #
point $-1 65.548875392925822 -25.837054499413973 13.926250879270647 #
straight-curve $-1 -65.548875392925808 0 -13.926250879270647 0 1 0 I I #
face $-1 $-1 $603 $18 $-1 $683 reversed single #
loop $-1 $-1 $637 $579 #
plane-surface $-1 -65.548875392925808 0 0 1 0 0 0 0 -1 forward_v I I I I #
coedge $-1 $586 $646 $582 $634 forward $580 $-1 #
edge $-1 $635 -19.292864113666162 $589 -14.650667151664102 $633 $684 forward 7 unknown #
vertex $-1 $583 $685 #
straight-curve $-1 -53.103685353496004 -36.264629746331295 0 0 0 -1 I I #
coedge $-1 $600 $686 $584 $638 forward $631 $-1 #
edge $-1 $642 -13.926250879270647 $639 13.926250879270647 $637 $687 forward 7 unknown #
vertex $-1 $638 $688 #
straight-curve $-1 -29.663140186605453 -31.622432784329234 13.926250879270647 1 0 0 I I #
coedge $-1 $647 $586 $686 $689 forward $580 $-1 #
vertex $-1 $689 $690 #
straight-curve $-1 -29.663140186605453 -31.622432784329234 -13.926250879270647 -1 0 0 I I #
point $-1 -53.103685353496004 -31.622432784329234 13.926250879270647 #
point $-1 -53.103685353496004 -31.622432784329234 -13.926250879270647 #
coedge $-1 $633 $591 $593 $650 forward $580 $-1 #
coedge $-1 $591 $641 $652 $691 forward $580 $-1 #
vertex $-1 $592 $692 #
straight-curve $-1 65.548875392925808 0 -13.926250879270647 0 -1 0 I I #
edge $-1 $594 -65.548875392925808 $635 53.103685353496004 $593 $693 forward 7 unknown #
point $-1 65.548875392925808 -36.264629746331295 -13.926250879270647 #
coedge $-1 $602 $596 $647 $691 reversed $603 $-1 #
straight-curve $-1 65.548875392925808 36.264629746331295 0 0 0 -1 I I #
coedge $-1 $686 $600 $602 $656 forward $631 $-1 #
straight-curve $-1 -65.548875392925808 0 13.926250879270647 0 -1 0 I I #
edge $-1 $604 -13.926250879270647 $694 13.926250879270647 $602 $695 forward 7 unknown #
point $-1 -65.548875392925808 36.264629746331295 13.926250879270647 #
face $-1 $696 $697 $19 $-1 $698 reversed single #
plane-surface $-1 0 -36.264629746331295 0 0 1 0 0 0 1 forward_v I I I I #
coedge $-1 $670 $699 $672 $700 reversed $608 $-1 #
coedge $-1 $701 $610 $669 $702 reversed $555 $-1 #
coedge $-1 $610 $701 $703 $704 reversed $555 $-1 #
coedge $-1 $699 $670 $610 $664 forward $608 $-1 #
edge $-1 $705 -13.926250879270647 $706 13.926250879270647 $663 $707 forward 7 unknown #
coedge $-1 $668 $611 $708 $709 reversed $490 $-1 #
coedge $-1 $616 $710 $611 $667 reversed $617 $-1 #
edge $-1 $624 -6.0685091632388541 $711 13.926250879270647 $611 $712 forward 7 unknown #
coedge $-1 $612 $665 $713 $714 reversed $490 $-1 #
coedge $-1 $613 $678 $661 $702 forward $410 $-1 #
coedge $-1 $663 $660 $613 $671 reversed $608 $-1 #
edge $-1 $705 14.650667151664102 $673 19.292864113666162 $613 $715 forward 7 unknown #
coedge $-1 $710 $614 $660 $700 forward $617 $-1 #
vertex $-1 $615 $716 #
straight-curve $-1 0 -36.264629746331295 13.926250879270647 1 0 0 I I #
point $-1 46.813669727289302 -36.264629746331295 6.0685091632388541 #
straight-curve $-1 28.090636280053779 -36.264629746331295 6.0685091632388541 -1 0 0 I I #
point $-1 65.548875392925822 -36.264629746331295 6.0685091632388541 #
coedge $-1 $669 $626 $717 $718 forward $410 $-1 #
coedge $-1 $713 $719 $626 $680 reversed $720 $-1 #
edge $-1 $681 -65.548875392925808 $721 65.548875392925808 $679 $722 forward 7 unknown #
vertex $-1 $627 $723 #
straight-curve $-1 65.548875392925808 0 13.926250879270647 0 1 0 I I #
plane-surface $-1 0 36.264629746331295 0 0 -1 0 0 0 -1 forward_v I I I I #
straight-curve $-1 -53.103685353496004 -16.971765632665132 -13.926250879270647 0 1 0 I I #
point $-1 -53.103685353496004 -36.264629746331295 -13.926250879270647 #
coedge $-1 $637 $654 $641 $689 reversed $631 $-1 #
straight-curve $-1 -65.548875392925808 -31.622432784329234 0 0 0 1 I I #
point $-1 -65.548875392925808 -31.622432784329234 13.926250879270647 #
edge $-1 $642 -31.622432784329234 $694 36.264629746331295 $686 $724 forward 7 unknown #
point $-1 -65.548875392925808 -31.622432784329234 -13.926250879270647 #
edge $-1 $694 -65.548875392925808 $648 65.548875392925808 $652 $725 forward 7 unknown #
point $-1 65.548875392925808 36.264629746331295 -13.926250879270647 #
straight-curve $-1 0 -36.264629746331295 -13.926250879270647 -1 0 0 I I #
vertex $-1 $691 $726 #
straight-curve $-1 -65.548875392925808 36.264629746331295 0 0 0 -1 I I #
face $-1 $727 $728 $19 $-1 $729 reversed single #
loop $-1 $-1 $703 $658 #
plane-surface $-1 0 0 -13.926250879270647 0 0 1 1 0 0 forward_v I I I I #
coedge $-1 $660 $663 $730 $731 reversed $608 $-1 #
edge $-1 $673 -13.926250879270647 $732 13.926250879270647 $672 $733 forward 7 unknown #
coedge $-1 $662 $661 $734 $735 reversed $555 $-1 #
edge $-1 $736 -35.885735206320355 $705 -23.440545166890551 $669 $737 forward 7 unknown #
coedge $-1 $738 $730 $662 $704 forward $697 $-1 #
edge $-1 $706 23.440545166890551 $739 35.885735206320355 $703 $740 forward 7 unknown #
vertex $-1 $702 $741 #
vertex $-1 $704 $742 #
straight-curve $-1 -53.103685353496004 -31.622432784329234 0 0 0 -1 I I #
coedge $-1 $743 $744 $665 $709 forward $697 $-1 #
edge $-1 $745 -36.264629746331295 $711 36.264629746331295 $665 $746 forward 7 unknown #
coedge $-1 $666 $672 $743 $747 reversed $617 $-1 #
vertex $-1 $667 $748 #
straight-curve $-1 65.548875392925808 -36.264629746331295 0 0 0 -1 I I #
coedge $-1 $749 $679 $668 $714 forward $720 $-1 #
edge $-1 $681 -13.926250879270647 $745 13.926250879270647 $668 $750 forward 7 unknown #
straight-curve $-1 -53.103685353496004 -16.971765632665132 13.926250879270647 0 -1 0 I I #
point $-1 -53.103685353496004 -36.264629746331295 13.926250879270647 #
coedge $-1 $751 $734 $678 $718 reversed $728 $-1 #
edge $-1 $721 -36.264629746331295 $736 31.622432784329234 $717 $752 forward 7 unknown #
coedge $-1 $679 $749 $751 $753 reversed $720 $-1 #
loop $-1 $-1 $713 $727 #
vertex $-1 $680 $754 #
straight-curve $-1 0 36.264629746331295 13.926250879270647 -1 0 0 I I #
point $-1 65.548875392925808 36.264629746331295 13.926250879270647 #
straight-curve $-1 -65.548875392925808 0 -13.926250879270647 0 1 0 I I #
straight-curve $-1 0 36.264629746331295 -13.926250879270647 1 0 0 I I #
point $-1 -65.548875392925808 36.264629746331295 -13.926250879270647 #
face $-1 $-1 $720 $19 $-1 $755 reversed single #
loop $-1 $-1 $734 $696 #
plane-surface $-1 -65.548875392925808 0 0 1 0 0 0 0 -1 forward_v I I I I #
coedge $-1 $703 $743 $699 $731 forward $697 $-1 #
edge $-1 $732 -19.292864113666162 $706 -14.650667151664102 $730 $756 forward 7 unknown #
vertex $-1 $700 $757 #
straight-curve $-1 -53.103685353496004 -36.264629746331295 0 0 0 -1 I I #
coedge $-1 $717 $758 $701 $735 forward $728 $-1 #
edge $-1 $739 -13.926250879270647 $736 13.926250879270647 $734 $759 forward 7 unknown #
vertex $-1 $735 $760 #
straight-curve $-1 -29.663140186605453 -31.622432784329234 13.926250879270647 1 0 0 I I #
coedge $-1 $744 $703 $758 $761 forward $697 $-1 #
vertex $-1 $761 $762 #
straight-curve $-1 -29.663140186605453 -31.622432784329234 -13.926250879270647 -1 0 0 I I #
point $-1 -53.103685353496004 -31.622432784329234 13.926250879270647 #
point $-1 -53.103685353496004 -31.622432784329234 -13.926250879270647 #
coedge $-1 $730 $708 $710 $747 forward $697 $-1 #
coedge $-1 $708 $738 $749 $763 forward $697 $-1 #
vertex $-1 $709 $764 #
straight-curve $-1 65.548875392925808 0 -13.926250879270647 0 -1 0 I I #
edge $-1 $711 -65.548875392925808 $732 53.103685353496004 $710 $765 forward 7 unknown #
point $-1 65.548875392925808 -36.264629746331295 -13.926250879270647 #
coedge $-1 $719 $713 $744 $763 reversed $720 $-1 #
straight-curve $-1 65.548875392925808 36.264629746331295 0 0 0 -1 I I #
coedge $-1 $758 $717 $719 $753 forward $728 $-1 #
straight-curve $-1 -65.548875392925808 0 13.926250879270647 0 -1 0 I I #
edge $-1 $721 -13.926250879270647 $766 13.926250879270647 $719 $767 forward 7 unknown #
point $-1 -65.548875392925808 36.264629746331295 13.926250879270647 #
plane-surface $-1 0 36.264629746331295 0 0 -1 0 0 0 -1 forward_v I I I I #
straight-curve $-1 -53.103685353496004 -16.971765632665132 -13.926250879270647 0 1 0 I I #
point $-1 -53.103685353496004 -36.264629746331295 -13.926250879270647 #
coedge $-1 $734 $751 $738 $761 reversed $728 $-1 #
straight-curve $-1 -65.548875392925808 -31.622432784329234 0 0 0 1 I I #
point $-1 -65.548875392925808 -31.622432784329234 13.926250879270647 #
edge $-1 $739 -31.622432784329234 $766 36.264629746331295 $758 $768 forward 7 unknown #
point $-1 -65.548875392925808 -31.622432784329234 -13.926250879270647 #
edge $-1 $766 -65.548875392925808 $745 65.548875392925808 $749 $769 forward 7 unknown #
point $-1 65.548875392925808 36.264629746331295 -13.926250879270647 #
straight-curve $-1 0 -36.264629746331295 -13.926250879270647 -1 0 0 I I #
vertex $-1 $763 $770 #
straight-curve $-1 -65.548875392925808 36.264629746331295 0 0 0 -1 I I #
straight-curve $-1 -65.548875392925808 0 -13.926250879270647 0 1 0 I I #
straight-curve $-1 0 36.264629746331295 -13.926250879270647 1 0 0 I I #
point $-1 -65.548875392925808 36.264629746331295 -13.926250879270647 #
End-of-ACIS-data 