500 0 16 0           
7 Unknown 11 ACIS 5.0 NT 24 Fri Mar 26 16:18:04 1999 
-1 9.9999999999999995e-007 1e-010 
body $-1 $16 $-1 $17 #
body $-1 $18 $-1 $19 #
body $-1 $20 $-1 $21 #
body $-1 $22 $-1 $23 #
body $-1 $24 $-1 $25 #
body $-1 $26 $-1 $27 #
body $-1 $28 $-1 $29 #
body $-1 $30 $-1 $31 #
body $-1 $32 $-1 $33 #
body $-1 $34 $-1 $35 #
body $-1 $36 $-1 $37 #
body $-1 $38 $-1 $39 #
body $-1 $40 $-1 $41 #
body $-1 $42 $-1 $43 #
body $-1 $44 $-1 $45 #
body $-1 $46 $-1 $47 #
lump $-1 $-1 $48 $0 #
transform $-1 1 0 0 0 1 0 0 0 1 76.14856410412915 40.892757302941611 17.131103839151567 1 rotate no_reflect no_shear #
lump $-1 $-1 $49 $1 #
transform $-1 1 0 0 0 1 0 0 0 1 76.14856410412915 40.892757302941611 17.131103839151567 1 rotate no_reflect no_shear #
lump $-1 $-1 $50 $2 #
transform $-1 1 0 0 0 1 0 0 0 1 76.14856410412915 40.892757302941611 17.131103839151567 1 rotate no_reflect no_shear #
lump $-1 $-1 $51 $3 #
transform $-1 1 0 0 0 1 0 0 0 1 76.14856410412915 40.892757302941611 17.131103839151567 1 rotate no_reflect no_shear #
lump $-1 $-1 $52 $4 #
transform $-1 1 0 0 0 1 0 0 0 1 76.14856410412915 40.892757302941611 17.131103839151567 1 rotate no_reflect no_shear #
lump $-1 $-1 $53 $5 #
transform $-1 1 0 0 0 1 0 0 0 1 76.14856410412915 40.892757302941611 17.131103839151567 1 rotate no_reflect no_shear #
lump $-1 $-1 $54 $6 #
transform $-1 1 0 0 0 1 0 0 0 1 76.14856410412915 40.892757302941611 17.131103839151567 1 rotate no_reflect no_shear #
lump $-1 $-1 $55 $7 #
transform $-1 1 0 0 0 1 0 0 0 1 76.14856410412915 40.892757302941611 17.131103839151567 1 rotate no_reflect no_shear #
lump $-1 $-1 $56 $8 #
transform $-1 1 0 0 0 1 0 0 0 1 76.14856410412915 40.892757302941611 17.131103839151567 1 rotate no_reflect no_shear #
lump $-1 $-1 $57 $9 #
transform $-1 1 0 0 0 1 0 0 0 1 76.14856410412915 40.892757302941611 17.131103839151567 1 rotate no_reflect no_shear #
lump $-1 $-1 $58 $10 #
transform $-1 1 0 0 0 1 0 0 0 1 76.14856410412915 40.892757302941611 17.131103839151567 1 rotate no_reflect no_shear #
lump $-1 $-1 $59 $11 #
transform $-1 1 0 0 0 1 0 0 0 1 76.14856410412915 40.892757302941611 17.131103839151567 1 rotate no_reflect no_shear #
lump $-1 $-1 $60 $12 #
transform $-1 1 0 0 0 1 0 0 0 1 76.14856410412915 40.892757302941611 17.131103839151567 1 rotate no_reflect no_shear #
lump $-1 $-1 $61 $13 #
transform $-1 1 0 0 0 1 0 0 0 1 76.14856410412915 40.892757302941611 17.131103839151567 1 rotate no_reflect no_shear #
lump $-1 $-1 $62 $14 #
transform $-1 1 0 0 0 1 0 0 0 1 76.14856410412915 40.892757302941611 17.131103839151567 1 rotate no_reflect no_shear #
lump $-1 $-1 $63 $15 #
transform $-1 1 0 0 0 1 0 0 0 1 76.14856410412915 40.892757302941611 17.131103839151567 1 rotate no_reflect no_shear #
shell $-1 $-1 $-1 $64 $-1 $16 #
shell $-1 $-1 $-1 $65 $-1 $18 #
shell $-1 $-1 $-1 $66 $-1 $20 #
shell $-1 $-1 $-1 $67 $-1 $22 #
shell $-1 $-1 $-1 $68 $-1 $24 #
shell $-1 $-1 $-1 $69 $-1 $26 #
shell $-1 $-1 $-1 $70 $-1 $28 #
shell $-1 $-1 $-1 $71 $-1 $30 #
shell $-1 $-1 $-1 $72 $-1 $32 #
shell $-1 $-1 $-1 $73 $-1 $34 #
shell $-1 $-1 $-1 $74 $-1 $36 #
shell $-1 $-1 $-1 $75 $-1 $38 #
shell $-1 $-1 $-1 $76 $-1 $40 #
shell $-1 $-1 $-1 $77 $-1 $42 #
shell $-1 $-1 $-1 $78 $-1 $44 #
shell $-1 $-1 $-1 $79 $-1 $46 #
face $-1 $80 $81 $48 $-1 $82 forward single #
face $-1 $83 $84 $49 $-1 $85 forward single #
face $-1 $86 $87 $50 $-1 $88 reversed single #
face $-1 $89 $90 $51 $-1 $91 forward single #
face $-1 $92 $93 $52 $-1 $94 reversed single #
face $-1 $95 $96 $53 $-1 $97 forward single #
face $-1 $98 $99 $54 $-1 $100 forward single #
face $-1 $101 $102 $55 $-1 $103 reversed single #
face $-1 $104 $105 $56 $-1 $106 forward single #
face $-1 $107 $108 $57 $-1 $109 forward single #
face $-1 $110 $111 $58 $-1 $112 reversed single #
face $-1 $113 $114 $59 $-1 $115 forward single #
face $-1 $116 $117 $60 $-1 $118 forward single #
face $-1 $119 $120 $61 $-1 $121 reversed single #
face $-1 $122 $123 $62 $-1 $124 forward single #
face $-1 $125 $126 $63 $-1 $127 forward single #
face $-1 $128 $129 $48 $-1 $130 reversed single #
loop $-1 $-1 $131 $64 #
plane-surface $-1 0 0 17.131103839151567 0 0 1 1 0 0 forward_v I I I I #
face $-1 $132 $133 $49 $-1 $134 reversed single #
loop $-1 $-1 $135 $65 #
plane-surface $-1 -67.441705542332656 0 -10.515079587833856 0 0 1 1 0 0 forward_v I I I I #
face $-1 $136 $137 $50 $-1 $138 reversed single #
loop $-1 $-1 $139 $66 #
plane-surface $-1 -37.217597129627649 -157.55912733188796 108.12721689138181 1 0 0 0 0.7660444514056185 -0.64278759981090561 forward_v I I I I #
face $-1 $140 $141 $51 $-1 $142 forward single #
loop $-1 $143 $144 $67 #
cone-surface $-1 -20.497644281544538 -35.78679803601144 11.826007801361216 0 0.7660444514056185 -0.64278759981090561 1.5 0 0 1 I I 0 1 1.5 forward I I I I #
face $-1 $145 $146 $52 $-1 $147 reversed single #
loop $-1 $-1 $148 $68 #
plane-surface $-1 -54.230418104487647 52.239890896404283 176.88135702129898 1 0 0 0 -0.52991927123019833 -0.84804809178421925 forward_v I I I I #
face $-1 $149 $150 $53 $-1 $151 forward single #
loop $-1 $152 $153 $69 #
cone-surface $-1 -49.883427365074738 28.754220189346306 7.6531155598345251 0 -0.52991927123019833 -0.84804809178421925 2 0 0 1 I I 0 1 2 forward I I I I #
face $-1 $154 $155 $54 $-1 $156 forward single #
loop $-1 $157 $158 $70 #
cone-surface $-1 -43.362941255955363 28.754220189346306 7.6531155598345251 0 -0.52991927123019833 -0.84804809178421925 2 0 0 1 I I 0 1 2 forward I I I I #
face $-1 $159 $160 $55 $-1 $161 reversed single #
loop $-1 $-1 $162 $71 #
plane-surface $-1 -20.509565333321319 52.239890896404283 176.88135702129898 1 0 0 0 -0.52991927123019833 -0.84804809178421925 forward_v I I I I #
face $-1 $163 $164 $56 $-1 $165 forward single #
loop $-1 $166 $167 $72 #
cone-surface $-1 -16.162574593908403 28.754220189346306 7.6531155598345251 0 -0.52991927123019833 -0.84804809178421925 2 0 0 1 I I 0 1 2 forward I I I I #
face $-1 $168 $169 $57 $-1 $170 forward single #
loop $-1 $171 $172 $73 #
cone-surface $-1 -9.642088484789042 28.754220189346306 7.6531155598345251 0 -0.52991927123019833 -0.84804809178421925 2 0 0 1 I I 0 1 2 forward I I I I #
face $-1 $173 $174 $58 $-1 $175 reversed single #
loop $-1 $-1 $176 $74 #
plane-surface $-1 13.211287437845016 52.239890896404283 176.88135702129898 1 0 0 0 -0.52991927123019833 -0.84804809178421925 forward_v I I I I #
face $-1 $177 $178 $59 $-1 $179 forward single #
loop $-1 $180 $181 $75 #
cone-surface $-1 17.558278177257932 28.754220189346306 7.6531155598345251 0 -0.52991927123019833 -0.84804809178421925 2 0 0 1 I I 0 1 2 forward I I I I #
face $-1 $182 $183 $60 $-1 $184 forward single #
loop $-1 $185 $186 $76 #
cone-surface $-1 24.078764286377293 28.754220189346306 7.6531155598345251 0 -0.52991927123019833 -0.84804809178421925 2 0 0 1 I I 0 1 2 forward I I I I #
face $-1 $187 $188 $61 $-1 $189 reversed single #
loop $-1 $-1 $190 $77 #
plane-surface $-1 46.932140209011351 52.239890896404283 176.88135702129898 1 0 0 0 -0.52991927123019833 -0.84804809178421925 forward_v I I I I #
face $-1 $191 $192 $62 $-1 $193 forward single #
loop $-1 $194 $195 $78 #
cone-surface $-1 51.279130948424267 28.754220189346306 7.6531155598345251 0 -0.52991927123019833 -0.84804809178421925 2 0 0 1 I I 0 1 2 forward I I I I #
face $-1 $196 $197 $63 $-1 $198 forward single #
loop $-1 $199 $200 $79 #
cone-surface $-1 57.799617057543628 28.754220189346306 7.6531155598345251 0 -0.52991927123019833 -0.84804809178421925 2 0 0 1 I I 0 1 2 forward I I I I #
face $-1 $201 $202 $48 $-1 $203 reversed single #
loop $-1 $-1 $204 $80 #
plane-surface $-1 0 0 -17.131103839151567 0 0 1 1 0 0 forward_v I I I I #
coedge $-1 $205 $206 $207 $208 forward $81 $-1 #
face $-1 $209 $210 $49 $-1 $211 reversed single #
loop $-1 $-1 $212 $83 #
plane-surface $-1 -58.734846980536169 0 -13.823091713492712 -1 0 0 0 0 1 forward_v I I I I #
coedge $-1 $213 $214 $215 $216 forward $84 $-1 #
face $-1 $217 $218 $50 $-1 $219 reversed single #
loop $-1 $-1 $220 $86 #
plane-surface $-1 -20.497644281544538 -40.89275730294159 10.232511392301689 0 -0.7660444514056185 0.64278759981090561 1 0 0 forward_v I I I I #
coedge $-1 $221 $222 $223 $224 reversed $87 $-1 #
face $-1 $-1 $225 $51 $-1 $226 forward single #
loop $-1 $227 $228 $89 #
cone-surface $-1 -20.497644281544538 -33.000608543647772 9.48811728713763 0 0.7660444514056185 -0.64278759981090561 0.75 0 0 1 I I -0.70710678118654757 0.70710678118654757 0.75 forward I I I I #
loop $-1 $-1 $229 $67 #
coedge $-1 $144 $144 $230 $231 reversed $90 $-1 #
face $-1 $232 $233 $52 $-1 $234 reversed single #
loop $-1 $-1 $235 $92 #
plane-surface $-1 -46.62318431051505 -28.46529229416803 47.72606806006894 0 0.52991927123019833 0.84804809178421925 1 0 0 forward_v I I I I #
coedge $-1 $236 $237 $238 $239 reversed $93 $-1 #
face $-1 $-1 $240 $53 $-1 $241 forward single #
loop $-1 $242 $243 $95 #
cone-surface $-1 -49.883427365074738 26.283700223781331 3.6994572268427675 0 -0.52991927123019833 -0.84804809178421925 1 0 0 1 I I -0.70710678118654746 0.70710678118654746 1 forward I I I I #
loop $-1 $-1 $244 $69 #
coedge $-1 $153 $153 $245 $246 reversed $96 $-1 #
face $-1 $-1 $247 $54 $-1 $248 forward single #
loop $-1 $249 $250 $98 #
cone-surface $-1 -43.362941255955363 26.283700223781331 3.6994572268427675 0 -0.52991927123019833 -0.84804809178421925 1 0 0 1 I I -0.70710678118654746 0.70710678118654746 1 forward I I I I #
loop $-1 $-1 $251 $70 #
coedge $-1 $158 $158 $252 $253 reversed $99 $-1 #
face $-1 $254 $255 $55 $-1 $256 reversed single #
loop $-1 $-1 $257 $101 #
plane-surface $-1 -12.902331539348722 -28.46529229416803 47.72606806006894 0 0.52991927123019833 0.84804809178421925 1 0 0 forward_v I I I I #
coedge $-1 $258 $259 $260 $261 reversed $102 $-1 #
face $-1 $-1 $262 $56 $-1 $263 forward single #
loop $-1 $264 $265 $104 #
cone-surface $-1 -16.162574593908403 26.283700223781331 3.6994572268427675 0 -0.52991927123019833 -0.84804809178421925 1 0 0 1 I I -0.70710678118654746 0.70710678118654746 1 forward I I I I #
loop $-1 $-1 $266 $72 #
coedge $-1 $167 $167 $267 $268 reversed $105 $-1 #
face $-1 $-1 $269 $57 $-1 $270 forward single #
loop $-1 $271 $272 $107 #
cone-surface $-1 -9.642088484789042 26.283700223781331 3.6994572268427675 0 -0.52991927123019833 -0.84804809178421925 1 0 0 1 I I -0.70710678118654746 0.70710678118654746 1 forward I I I I #
loop $-1 $-1 $273 $73 #
coedge $-1 $172 $172 $274 $275 reversed $108 $-1 #
face $-1 $276 $277 $58 $-1 $278 reversed single #
loop $-1 $-1 $279 $110 #
plane-surface $-1 20.818521231817613 -28.46529229416803 47.72606806006894 0 0.52991927123019833 0.84804809178421925 1 0 0 forward_v I I I I #
coedge $-1 $280 $281 $282 $283 reversed $111 $-1 #
face $-1 $-1 $284 $59 $-1 $285 forward single #
loop $-1 $286 $287 $113 #
cone-surface $-1 17.558278177257932 26.283700223781331 3.6994572268427675 0 -0.52991927123019833 -0.84804809178421925 1 0 0 1 I I -0.70710678118654746 0.70710678118654746 1 forward I I I I #
loop $-1 $-1 $288 $75 #
coedge $-1 $181 $181 $289 $290 reversed $114 $-1 #
face $-1 $-1 $291 $60 $-1 $292 forward single #
loop $-1 $293 $294 $116 #
cone-surface $-1 24.078764286377293 26.283700223781331 3.6994572268427675 0 -0.52991927123019833 -0.84804809178421925 1 0 0 1 I I -0.70710678118654746 0.70710678118654746 1 forward I I I I #
loop $-1 $-1 $295 $76 #
coedge $-1 $186 $186 $296 $297 reversed $117 $-1 #
face $-1 $298 $299 $61 $-1 $300 reversed single #
loop $-1 $-1 $301 $119 #
plane-surface $-1 54.539374002983948 -28.46529229416803 47.72606806006894 0 0.52991927123019833 0.84804809178421925 1 0 0 forward_v I I I I #
coedge $-1 $302 $303 $304 $305 reversed $120 $-1 #
face $-1 $-1 $306 $62 $-1 $307 forward single #
loop $-1 $308 $309 $122 #
cone-surface $-1 51.279130948424267 26.283700223781331 3.6994572268427675 0 -0.52991927123019833 -0.84804809178421925 1 0 0 1 I I -0.70710678118654746 0.70710678118654746 1 forward I I I I #
loop $-1 $-1 $310 $78 #
coedge $-1 $195 $195 $311 $312 reversed $123 $-1 #
face $-1 $-1 $313 $63 $-1 $314 forward single #
loop $-1 $315 $316 $125 #
cone-surface $-1 57.799617057543628 26.283700223781331 3.6994572268427675 0 -0.52991927123019833 -0.84804809178421925 1 0 0 1 I I -0.70710678118654746 0.70710678118654746 1 forward I I I I #
loop $-1 $-1 $317 $79 #
coedge $-1 $200 $200 $318 $319 reversed $126 $-1 #
face $-1 $320 $321 $48 $-1 $322 reversed single #
loop $-1 $-1 $323 $128 #
plane-surface $-1 0 -40.892757302941611 0 0 1 0 0 0 1 forward_v I I I I #
coedge $-1 $324 $325 $326 $327 forward $129 $-1 #
coedge $-1 $328 $131 $329 $330 forward $81 $-1 #
coedge $-1 $131 $328 $331 $332 forward $81 $-1 #
coedge $-1 $333 $334 $131 $208 reversed $335 $-1 #
edge $-1 $336 -40.892757302941611 $337 40.892757302941611 $207 $338 forward 7 unknown #
face $-1 $339 $340 $49 $-1 $341 reversed single #
loop $-1 $-1 $342 $132 #
plane-surface $-1 0 0 -17.131103839151567 0 0 1 1 0 0 forward_v I I I I #
coedge $-1 $343 $215 $344 $345 reversed $133 $-1 #
coedge $-1 $346 $135 $347 $348 reversed $84 $-1 #
coedge $-1 $135 $346 $349 $350 reversed $84 $-1 #
coedge $-1 $212 $351 $135 $216 reversed $133 $-1 #
edge $-1 $352 -40.892757302941611 $353 40.892757302941611 $215 $354 forward 7 unknown #
face $-1 $355 $356 $50 $-1 $357 forward single #
loop $-1 $-1 $358 $136 #
plane-surface $-1 -3.7776914334614276 -157.55912733188796 108.12721689138181 -1 0 0 0 -0.7660444514056185 0.64278759981090561 forward_v I I I I #
coedge $-1 $359 $360 $361 $362 reversed $137 $-1 #
coedge $-1 $222 $139 $363 $364 reversed $87 $-1 #
coedge $-1 $139 $221 $359 $365 reversed $87 $-1 #
coedge $-1 $361 $366 $139 $224 forward $367 $-1 #
edge $-1 $368 36.932504606539339 $369 43.831097053389243 $223 $370 forward 7 unknown #
loop $-1 $-1 $230 $140 #
plane-surface $-1 -20.497644281544538 -40.89275730294159 10.232511392301689 0 -0.7660444514056185 0.64278759981090561 1 0 0 forward_v I I I I #
loop $-1 $-1 $371 $89 #
coedge $-1 $228 $228 $229 $372 reversed $141 $-1 #
coedge $-1 $229 $229 $228 $372 forward $143 $-1 #
coedge $-1 $230 $230 $144 $231 forward $225 $-1 #
edge $-1 $373 -6.4663426027485831e-016 $373 6.2831853071795996 $230 $374 forward 7 unknown #
face $-1 $375 $376 $52 $-1 $377 reversed single #
loop $-1 $-1 $378 $145 #
plane-surface $-1 -39.015950516542453 52.239890896404283 176.88135702129898 -1 0 0 0 0.52991927123019833 0.84804809178421925 forward_v I I I I #
coedge $-1 $379 $380 $381 $382 reversed $146 $-1 #
coedge $-1 $237 $148 $383 $384 reversed $93 $-1 #
coedge $-1 $148 $236 $379 $385 reversed $93 $-1 #
coedge $-1 $381 $386 $148 $239 forward $387 $-1 #
edge $-1 $388 -14.772811854739469 $389 5.6230609837815386 $238 $390 forward 7 unknown #
loop $-1 $-1 $245 $149 #
plane-surface $-1 -46.62318431051505 -28.46529229416803 47.72606806006894 0 0.52991927123019833 0.84804809178421925 1 0 0 forward_v I I I I #
loop $-1 $-1 $391 $95 #
coedge $-1 $243 $243 $244 $392 reversed $150 $-1 #
coedge $-1 $244 $244 $243 $392 forward $152 $-1 #
coedge $-1 $245 $245 $153 $246 forward $240 $-1 #
edge $-1 $393 7.5243083115657809e-016 $393 6.2831853071796013 $245 $394 forward 7 unknown #
loop $-1 $-1 $252 $154 #
plane-surface $-1 -46.62318431051505 -28.46529229416803 47.72606806006894 0 0.52991927123019833 0.84804809178421925 1 0 0 forward_v I I I I #
loop $-1 $-1 $395 $98 #
coedge $-1 $250 $250 $251 $396 reversed $155 $-1 #
coedge $-1 $251 $251 $250 $396 forward $157 $-1 #
coedge $-1 $252 $252 $158 $253 forward $247 $-1 #
edge $-1 $397 7.5243083115657809e-016 $397 6.2831853071796013 $252 $398 forward 7 unknown #
face $-1 $399 $400 $55 $-1 $401 forward single #
loop $-1 $-1 $402 $159 #
plane-surface $-1 -5.2950977453761254 52.239890896404283 176.88135702129898 -1 0 0 0 0.52991927123019833 0.84804809178421925 forward_v I I I I #
coedge $-1 $403 $404 $405 $406 reversed $160 $-1 #
coedge $-1 $259 $162 $407 $408 reversed $102 $-1 #
coedge $-1 $162 $258 $403 $409 reversed $102 $-1 #
coedge $-1 $405 $410 $162 $261 forward $400 $-1 #
edge $-1 $411 -14.772811854739469 $412 5.6230609837815386 $260 $413 forward 7 unknown #
loop $-1 $-1 $267 $163 #
plane-surface $-1 -12.902331539348722 -28.46529229416803 47.72606806006894 0 0.52991927123019833 0.84804809178421925 1 0 0 forward_v I I I I #
loop $-1 $-1 $414 $104 #
coedge $-1 $265 $265 $266 $415 reversed $164 $-1 #
coedge $-1 $266 $266 $265 $415 forward $166 $-1 #
coedge $-1 $267 $267 $167 $268 forward $262 $-1 #
edge $-1 $416 7.5243083115657809e-016 $416 6.2831853071796013 $267 $417 forward 7 unknown #
loop $-1 $-1 $274 $168 #
plane-surface $-1 -12.902331539348722 -28.46529229416803 47.72606806006894 0 0.52991927123019833 0.84804809178421925 1 0 0 forward_v I I I I #
loop $-1 $-1 $418 $107 #
coedge $-1 $272 $272 $273 $419 reversed $169 $-1 #
coedge $-1 $273 $273 $272 $419 forward $171 $-1 #
coedge $-1 $274 $274 $172 $275 forward $269 $-1 #
edge $-1 $420 7.5243083115657809e-016 $420 6.2831853071796013 $274 $421 forward 7 unknown #
face $-1 $422 $423 $58 $-1 $424 forward single #
loop $-1 $-1 $425 $173 #
plane-surface $-1 28.42575502579021 52.239890896404283 176.88135702129898 -1 0 0 0 0.52991927123019833 0.84804809178421925 forward_v I I I I #
coedge $-1 $426 $427 $428 $429 reversed $174 $-1 #
coedge $-1 $281 $176 $430 $431 reversed $111 $-1 #
coedge $-1 $176 $280 $426 $432 reversed $111 $-1 #
coedge $-1 $428 $433 $176 $283 forward $423 $-1 #
edge $-1 $434 -14.772811854739469 $435 5.6230609837815386 $282 $436 forward 7 unknown #
loop $-1 $-1 $289 $177 #
plane-surface $-1 20.818521231817613 -28.46529229416803 47.72606806006894 0 0.52991927123019833 0.84804809178421925 1 0 0 forward_v I I I I #
loop $-1 $-1 $437 $113 #
coedge $-1 $287 $287 $288 $438 reversed $178 $-1 #
coedge $-1 $288 $288 $287 $438 forward $180 $-1 #
coedge $-1 $289 $289 $181 $290 forward $284 $-1 #
edge $-1 $439 7.5243083115657809e-016 $439 6.2831853071796013 $289 $440 forward 7 unknown #
loop $-1 $-1 $296 $182 #
plane-surface $-1 20.818521231817613 -28.46529229416803 47.72606806006894 0 0.52991927123019833 0.84804809178421925 1 0 0 forward_v I I I I #
loop $-1 $-1 $441 $116 #
coedge $-1 $294 $294 $295 $442 reversed $183 $-1 #
coedge $-1 $295 $295 $294 $442 forward $185 $-1 #
coedge $-1 $296 $296 $186 $297 forward $291 $-1 #
edge $-1 $443 7.5243083115657809e-016 $443 6.2831853071796013 $296 $444 forward 7 unknown #
face $-1 $445 $446 $61 $-1 $447 forward single #
loop $-1 $-1 $448 $187 #
plane-surface $-1 62.146607796956545 52.239890896404283 176.88135702129898 -1 0 0 0 0.52991927123019833 0.84804809178421925 forward_v I I I I #
coedge $-1 $449 $450 $451 $452 reversed $188 $-1 #
coedge $-1 $303 $190 $453 $454 reversed $120 $-1 #
coedge $-1 $190 $302 $449 $455 reversed $120 $-1 #
coedge $-1 $451 $456 $190 $305 forward $446 $-1 #
edge $-1 $457 -14.772811854739469 $458 5.6230609837815386 $304 $459 forward 7 unknown #
loop $-1 $-1 $311 $191 #
plane-surface $-1 54.539374002983948 -28.46529229416803 47.72606806006894 0 0.52991927123019833 0.84804809178421925 1 0 0 forward_v I I I I #
loop $-1 $-1 $460 $122 #
coedge $-1 $309 $309 $310 $461 reversed $192 $-1 #
coedge $-1 $310 $310 $309 $461 forward $194 $-1 #
coedge $-1 $311 $311 $195 $312 forward $306 $-1 #
edge $-1 $462 7.5243083115657809e-016 $462 6.2831853071796013 $311 $463 forward 7 unknown #
loop $-1 $-1 $318 $196 #
plane-surface $-1 54.539374002983948 -28.46529229416803 47.72606806006894 0 0.52991927123019833 0.84804809178421925 1 0 0 forward_v I I I I #
loop $-1 $-1 $464 $125 #
coedge $-1 $316 $316 $317 $465 reversed $197 $-1 #
coedge $-1 $317 $317 $316 $465 forward $199 $-1 #
coedge $-1 $318 $318 $200 $319 forward $313 $-1 #
edge $-1 $466 7.5243083115657809e-016 $466 6.2831853071796013 $318 $467 forward 7 unknown #
face $-1 $468 $469 $48 $-1 $470 reversed single #
loop $-1 $-1 $471 $201 #
plane-surface $-1 -76.14856410412915 0 0 1 0 0 0 0 -1 forward_v I I I I #
coedge $-1 $472 $331 $473 $474 forward $202 $-1 #
coedge $-1 $475 $204 $472 $476 forward $129 $-1 #
coedge $-1 $204 $475 $477 $478 forward $129 $-1 #
coedge $-1 $334 $333 $204 $327 reversed $335 $-1 #
edge $-1 $479 -40.892757302941611 $480 40.892757302941611 $326 $481 forward 7 unknown #
coedge $-1 $206 $205 $482 $483 forward $81 $-1 #
coedge $-1 $484 $485 $205 $330 reversed $469 $-1 #
edge $-1 $337 -76.14856410412915 $486 76.14856410412915 $329 $487 forward 7 unknown #
coedge $-1 $323 $488 $206 $332 reversed $202 $-1 #
edge $-1 $489 -76.14856410412915 $336 76.14856410412915 $331 $490 forward 7 unknown #
coedge $-1 $326 $207 $488 $491 forward $335 $-1 #
coedge $-1 $207 $326 $484 $492 reversed $335 $-1 #
loop $-1 $-1 $333 $468 #
vertex $-1 $208 $493 #
vertex $-1 $208 $494 #
straight-curve $-1 76.14856410412915 0 17.131103839151567 0 1 0 I I #
face $-1 $495 $496 $49 $-1 $497 reversed single #
loop $-1 $-1 $344 $209 #
plane-surface $-1 0 -40.892757302941611 0 0 1 0 0 0 1 forward_v I I I I #
coedge $-1 $498 $499 $343 $500 forward $210 $-1 #
coedge $-1 $351 $212 $342 $500 reversed $133 $-1 #
coedge $-1 $349 $501 $212 $345 forward $340 $-1 #
edge $-1 $502 -10.219557982405211 $352 -3.6035337310875004 $344 $503 forward 7 unknown #
coedge $-1 $214 $213 $504 $505 reversed $84 $-1 #
coedge $-1 $506 $507 $213 $348 forward $508 $-1 #
edge $-1 $509 -42.427711332962822 $353 -25.013994209369841 $347 $510 forward 7 unknown #
coedge $-1 $511 $344 $214 $350 forward $340 $-1 #
edge $-1 $352 25.013994209369841 $512 42.427711332962822 $349 $513 forward 7 unknown #
coedge $-1 $215 $343 $506 $514 reversed $133 $-1 #
vertex $-1 $350 $515 #
vertex $-1 $348 $516 #
straight-curve $-1 -58.734846980536169 0 -10.515079587833856 0 1 0 I I #
face $-1 $-1 $367 $50 $-1 $517 reversed single #
loop $-1 $-1 $518 $217 #
plane-surface $-1 0 0 17.131103839151567 0 0 1 1 0 0 forward_v I I I I #
coedge $-1 $519 $520 $521 $522 reversed $218 $-1 #
coedge $-1 $523 $220 $222 $365 forward $137 $-1 #
coedge $-1 $220 $523 $519 $524 forward $137 $-1 #
coedge $-1 $521 $223 $220 $362 forward $367 $-1 #
edge $-1 $369 -26.96877498885538 $525 6.4711307073108415 $361 $526 forward 7 unknown #
coedge $-1 $527 $528 $221 $364 forward $356 $-1 #
edge $-1 $529 -43.675412589243841 $368 -37.886806363002371 $363 $530 forward 7 unknown #
edge $-1 $369 -3.2752597998015054e-014 $529 9.0054727688342666 $222 $531 forward 7 unknown #
coedge $-1 $223 $521 $527 $532 reversed $367 $-1 #
loop $-1 $-1 $521 $355 #
vertex $-1 $532 $533 #
vertex $-1 $224 $534 #
straight-curve $-1 -37.217597129627649 -40.892757302941611 54.063608445690903 0 0 -1 I I #
coedge $-1 $371 $371 $-1 $535 reversed $227 $-1 #
edge $-1 $536 0 $536 6.2831853071796004 $228 $537 forward 7 unknown #
vertex $-1 $231 $538 #
ellipse-curve $-1 -20.497644281544538 -37.998454189820876 13.681807615726612 0 -0.7660444514056185 0.64278759981090561 1.5 0 0 1 I I #
face $-1 $-1 $387 $52 $-1 $539 forward single #
loop $-1 $-1 $540 $232 #
plane-surface $-1 0 40.892757302941611 0 0 -1 0 0 0 -1 forward_v I I I I #
coedge $-1 $541 $542 $543 $544 reversed $233 $-1 #
coedge $-1 $545 $235 $237 $385 forward $146 $-1 #
coedge $-1 $235 $545 $541 $546 forward $146 $-1 #
coedge $-1 $543 $238 $235 $382 forward $387 $-1 #
edge $-1 $389 -30.918825949230122 $547 -15.704358361284928 $381 $548 forward 7 unknown #
coedge $-1 $549 $550 $236 $384 forward $376 $-1 #
edge $-1 $551 -84.054330747716932 $388 -71.309574671497927 $383 $552 forward 7 unknown #
edge $-1 $389 57.735141712985268 $551 81.785514605883208 $237 $553 forward 7 unknown #
coedge $-1 $238 $543 $549 $554 forward $387 $-1 #
loop $-1 $-1 $543 $375 #
vertex $-1 $384 $555 #
vertex $-1 $239 $556 #
straight-curve $-1 -54.230418104487647 26.119945448202142 17.131103839151564 0 -1 0 I I #
coedge $-1 $391 $391 $-1 $557 reversed $242 $-1 #
edge $-1 $558 0 $558 6.2831853071796004 $243 $559 forward 7 unknown #
vertex $-1 $246 $560 #
ellipse-curve $-1 -49.883427365074738 30.694820883681093 10.758725801042077 0 0.52991927123019833 0.84804809178421925 2 0 0 1 I I #
coedge $-1 $395 $395 $-1 $561 reversed $249 $-1 #
edge $-1 $562 0 $562 6.2831853071796004 $250 $563 forward 7 unknown #
vertex $-1 $253 $564 #
ellipse-curve $-1 -43.362941255955363 30.694820883681093 10.758725801042077 0 0.52991927123019833 0.84804809178421925 2 0 0 1 I I #
face $-1 $-1 $565 $55 $-1 $566 reversed single #
loop $-1 $-1 $260 $254 #
plane-surface $-1 0 0 17.131103839151567 0 0 1 1 0 0 forward_v I I I I #
coedge $-1 $567 $568 $569 $570 reversed $255 $-1 #
coedge $-1 $571 $257 $259 $409 forward $160 $-1 #
coedge $-1 $257 $571 $567 $572 forward $160 $-1 #
coedge $-1 $569 $260 $257 $406 forward $400 $-1 #
edge $-1 $412 -14.058399563646958 $573 1.1560680242982357 $405 $574 forward 7 unknown #
coedge $-1 $575 $576 $258 $408 forward $565 $-1 #
edge $-1 $577 -84.054330747716932 $411 -71.309574671497927 $407 $578 forward 7 unknown #
edge $-1 $412 57.735141712985268 $577 81.785514605883208 $259 $579 forward 7 unknown #
coedge $-1 $260 $569 $575 $580 forward $400 $-1 #
vertex $-1 $408 $581 #
vertex $-1 $261 $582 #
straight-curve $-1 -20.509565333321319 26.119945448202142 17.131103839151564 0 -1 0 I I #
coedge $-1 $414 $414 $-1 $583 reversed $264 $-1 #
edge $-1 $584 0 $584 6.2831853071796004 $265 $585 forward 7 unknown #
vertex $-1 $268 $586 #
ellipse-curve $-1 -16.162574593908403 30.694820883681093 10.758725801042077 0 0.52991927123019833 0.84804809178421925 2 0 0 1 I I #
coedge $-1 $418 $418 $-1 $587 reversed $271 $-1 #
edge $-1 $588 0 $588 6.2831853071796004 $272 $589 forward 7 unknown #
vertex $-1 $275 $590 #
ellipse-curve $-1 -9.642088484789042 30.694820883681093 10.758725801042077 0 0.52991927123019833 0.84804809178421925 2 0 0 1 I I #
face $-1 $-1 $591 $58 $-1 $592 reversed single #
loop $-1 $-1 $282 $276 #
plane-surface $-1 0 0 17.131103839151567 0 0 1 1 0 0 forward_v I I I I #
coedge $-1 $593 $594 $595 $596 reversed $277 $-1 #
coedge $-1 $597 $279 $281 $432 forward $174 $-1 #
coedge $-1 $279 $597 $593 $598 forward $174 $-1 #
coedge $-1 $595 $282 $279 $429 forward $423 $-1 #
edge $-1 $435 2.8020268219362094 $599 18.016494409881403 $428 $600 forward 7 unknown #
coedge $-1 $601 $602 $280 $431 forward $591 $-1 #
edge $-1 $603 -84.054330747716932 $434 -71.309574671497927 $430 $604 forward 7 unknown #
edge $-1 $435 57.735141712985268 $603 81.785514605883208 $281 $605 forward 7 unknown #
coedge $-1 $282 $595 $601 $606 forward $423 $-1 #
vertex $-1 $283 $607 #
vertex $-1 $283 $608 #
straight-curve $-1 13.211287437845016 26.119945448202142 17.131103839151564 0 -1 0 I I #
coedge $-1 $437 $437 $-1 $609 reversed $286 $-1 #
edge $-1 $610 0 $610 6.2831853071796004 $287 $611 forward 7 unknown #
vertex $-1 $290 $612 #
ellipse-curve $-1 17.558278177257932 30.694820883681093 10.758725801042077 0 0.52991927123019833 0.84804809178421925 2 0 0 1 I I #
coedge $-1 $441 $441 $-1 $613 reversed $293 $-1 #
edge $-1 $614 0 $614 6.2831853071796004 $294 $615 forward 7 unknown #
vertex $-1 $297 $616 #
ellipse-curve $-1 24.078764286377293 30.694820883681093 10.758725801042077 0 0.52991927123019833 0.84804809178421925 2 0 0 1 I I #
face $-1 $-1 $617 $61 $-1 $618 reversed single #
loop $-1 $-1 $304 $298 #
plane-surface $-1 0 0 17.131103839151567 0 0 1 1 0 0 forward_v I I I I #
coedge $-1 $619 $620 $621 $622 reversed $299 $-1 #
coedge $-1 $623 $301 $303 $455 forward $188 $-1 #
coedge $-1 $301 $623 $619 $624 forward $188 $-1 #
coedge $-1 $621 $304 $301 $452 forward $446 $-1 #
edge $-1 $458 19.662453207519377 $625 34.876920795464571 $451 $626 forward 7 unknown #
coedge $-1 $627 $628 $302 $454 forward $617 $-1 #
edge $-1 $629 -84.054330747716932 $457 -71.309574671497927 $453 $630 forward 7 unknown #
edge $-1 $458 57.735141712985268 $629 81.785514605883208 $303 $631 forward 7 unknown #
coedge $-1 $304 $621 $627 $632 forward $446 $-1 #
vertex $-1 $305 $633 #
vertex $-1 $305 $634 #
straight-curve $-1 46.932140209011351 26.119945448202142 17.131103839151564 0 -1 0 I I #
coedge $-1 $460 $460 $-1 $635 reversed $308 $-1 #
edge $-1 $636 0 $636 6.2831853071796004 $309 $637 forward 7 unknown #
vertex $-1 $312 $638 #
ellipse-curve $-1 51.279130948424267 30.694820883681093 10.758725801042077 0 0.52991927123019833 0.84804809178421925 2 0 0 1 I I #
coedge $-1 $464 $464 $-1 $639 reversed $315 $-1 #
edge $-1 $640 0 $640 6.2831853071796004 $316 $641 forward 7 unknown #
vertex $-1 $319 $642 #
ellipse-curve $-1 57.799617057543628 30.694820883681093 10.758725801042077 0 0.52991927123019833 0.84804809178421925 2 0 0 1 I I #
face $-1 $-1 $335 $48 $-1 $643 reversed single #
loop $-1 $-1 $484 $320 #
plane-surface $-1 0 40.892757302941611 0 0 -1 0 0 0 -1 forward_v I I I I #
coedge $-1 $644 $482 $485 $645 forward $321 $-1 #
coedge $-1 $488 $323 $324 $476 reversed $202 $-1 #
coedge $-1 $482 $644 $323 $474 reversed $321 $-1 #
edge $-1 $489 -17.131103839151567 $646 17.131103839151567 $473 $647 forward 7 unknown #
coedge $-1 $325 $324 $644 $648 forward $129 $-1 #
edge $-1 $480 -76.14856410412915 $646 76.14856410412915 $472 $649 forward 7 unknown #
coedge $-1 $485 $484 $325 $478 reversed $469 $-1 #
edge $-1 $650 -76.14856410412915 $479 76.14856410412915 $477 $651 forward 7 unknown #
vertex $-1 $327 $652 #
vertex $-1 $491 $653 #
straight-curve $-1 76.14856410412915 0 -17.131103839151567 0 -1 0 I I #
coedge $-1 $471 $473 $328 $483 reversed $321 $-1 #
edge $-1 $486 -40.892757302941611 $489 40.892757302941611 $482 $654 forward 7 unknown #
coedge $-1 $477 $329 $334 $492 forward $469 $-1 #
coedge $-1 $329 $477 $471 $645 reversed $469 $-1 #
vertex $-1 $330 $655 #
straight-curve $-1 0 40.892757302941611 17.131103839151567 -1 0 0 I I #
coedge $-1 $331 $472 $333 $491 reversed $202 $-1 #
vertex $-1 $483 $656 #
straight-curve $-1 0 -40.892757302941611 17.131103839151567 1 0 0 I I #
edge $-1 $336 -17.131103839151567 $480 17.131103839151567 $333 $657 forward 7 unknown #
edge $-1 $337 -17.131103839151567 $479 17.131103839151567 $334 $658 forward 7 unknown #
point $-1 76.14856410412915 -40.892757302941611 17.131103839151567 #
point $-1 76.14856410412915 40.892757302941611 17.131103839151567 #
face $-1 $-1 $508 $49 $-1 $659 reversed single #
loop $-1 $-1 $504 $339 #
plane-surface $-1 -76.14856410412915 0 0 1 0 0 0 0 -1 forward_v I I I I #
coedge $-1 $660 $342 $501 $661 forward $210 $-1 #
coedge $-1 $342 $660 $662 $663 forward $210 $-1 #
edge $-1 $664 -40.892757302941611 $502 40.892757302941611 $342 $665 forward 7 unknown #
coedge $-1 $344 $511 $498 $661 reversed $340 $-1 #
vertex $-1 $661 $666 #
straight-curve $-1 -58.734846980536169 -40.892757302941611 -6.9115458567463559 0 0 1 I I #
coedge $-1 $667 $668 $346 $505 forward $496 $-1 #
edge $-1 $512 -40.892757302941611 $509 40.892757302941611 $504 $669 forward 7 unknown #
coedge $-1 $662 $347 $351 $514 forward $508 $-1 #
coedge $-1 $347 $662 $667 $670 reversed $508 $-1 #
loop $-1 $-1 $506 $495 #
vertex $-1 $670 $671 #
straight-curve $-1 -33.720852771166328 40.892757302941611 -10.515079587833856 1 0 0 I I #
coedge $-1 $501 $349 $668 $672 forward $340 $-1 #
vertex $-1 $672 $673 #
straight-curve $-1 -33.720852771166328 -40.892757302941611 -10.515079587833856 -1 0 0 I I #
edge $-1 $353 3.6035337310875004 $664 10.219557982405211 $506 $674 forward 7 unknown #
point $-1 -58.734846980536169 -40.892757302941611 -10.515079587833856 #
point $-1 -58.734846980536169 40.892757302941611 -10.515079587833856 #
plane-surface $-1 0 -40.892757302941611 0 0 1 0 0 0 1 forward_v I I I I #
coedge $-1 $528 $527 $520 $675 forward $356 $-1 #
coedge $-1 $520 $358 $360 $524 reversed $218 $-1 #
coedge $-1 $358 $519 $518 $675 reversed $218 $-1 #
coedge $-1 $366 $361 $358 $522 forward $367 $-1 #
edge $-1 $525 -43.831097053389243 $676 -36.932504606539339 $521 $677 forward 7 unknown #
coedge $-1 $360 $359 $528 $678 reversed $137 $-1 #
edge $-1 $679 -9.0054727688342666 $525 3.2752597998015054e-014 $519 $680 forward 7 unknown #
vertex $-1 $362 $681 #
straight-curve $-1 -10.248822140772269 -40.892757302941611 10.232511392301667 1 0 0 I I #
coedge $-1 $518 $363 $366 $532 forward $356 $-1 #
coedge $-1 $363 $518 $523 $678 forward $356 $-1 #
vertex $-1 $364 $682 #
straight-curve $-1 -37.217597129627649 -78.779563665943982 17.131103839151564 0 -1 0 I I #
straight-curve $-1 -37.217597129627649 -40.89275730294159 10.232511392301689 0 0.64278759981090561 0.7660444514056185 I I #
edge $-1 $368 -37.217597129627649 $676 -3.7776914334614276 $366 $683 forward 7 unknown #
point $-1 -37.217597129627649 -40.892757302941611 17.131103839151567 #
point $-1 -37.217597129627649 -40.892757302941611 10.232511392301664 #
edge $-1 $684 1 $684 0 $371 $-1 forward 7 unknown #
vertex $-1 $372 $685 #
ellipse-curve $-1 -20.497644281544538 -33.575141882201983 9.9702079869958098 0 -0.7660444514056185 0.64278759981090561 1.5 0 0 1 I I #
point $-1 -18.997644281544538 -37.99845418982089 13.681807615726623 #
plane-surface $-1 0 0 17.131103839151567 0 0 1 1 0 0 forward_v I I I I #
coedge $-1 $550 $549 $542 $686 forward $376 $-1 #
coedge $-1 $542 $378 $380 $546 reversed $233 $-1 #
coedge $-1 $378 $541 $540 $686 reversed $233 $-1 #
coedge $-1 $386 $381 $378 $544 forward $387 $-1 #
edge $-1 $547 -5.6230609837815386 $687 14.772811854739469 $543 $688 forward 7 unknown #
coedge $-1 $380 $379 $550 $689 reversed $146 $-1 #
edge $-1 $690 -81.785514605883208 $547 -57.735141712985268 $541 $691 forward 7 unknown #
vertex $-1 $382 $692 #
straight-curve $-1 -23.311592155257525 20.496884464420603 17.131103839151567 1 0 0 I I #
coedge $-1 $540 $383 $386 $554 reversed $376 $-1 #
coedge $-1 $383 $540 $545 $689 forward $376 $-1 #
vertex $-1 $384 $693 #
straight-curve $-1 -54.230418104487647 40.892757302941611 88.440678510649491 0 0 1 I I #
straight-curve $-1 -54.230418104487647 -28.46529229416803 47.72606806006894 0 0.84804809178421925 -0.52991927123019833 I I #
edge $-1 $687 39.015950516542453 $388 54.230418104487647 $549 $694 forward 7 unknown #
point $-1 -54.230418104487647 40.892757302941611 17.131103839151567 #
point $-1 -54.230418104487647 20.496884464420603 17.131103839151567 #
edge $-1 $695 1 $695 0 $391 $-1 forward 7 unknown #
vertex $-1 $392 $696 #
ellipse-curve $-1 -49.883427365074738 26.81361949501153 4.5475053186269871 0 0.52991927123019833 0.84804809178421925 2 0 0 1 I I #
point $-1 -47.883427365074738 30.694820883681086 10.758725801042063 #
edge $-1 $697 1 $697 0 $395 $-1 forward 7 unknown #
vertex $-1 $396 $698 #
ellipse-curve $-1 -43.362941255955363 26.81361949501153 4.5475053186269871 0 0.52991927123019833 0.84804809178421925 2 0 0 1 I I #
point $-1 -41.362941255955363 30.694820883681086 10.758725801042063 #
loop $-1 $-1 $407 $399 #
plane-surface $-1 0 40.892757302941611 0 0 -1 0 0 0 -1 forward_v I I I I #
coedge $-1 $568 $402 $404 $572 reversed $255 $-1 #
coedge $-1 $402 $567 $699 $700 reversed $255 $-1 #
coedge $-1 $410 $405 $402 $570 forward $400 $-1 #
edge $-1 $573 -5.6230609837815386 $701 14.772811854739469 $569 $702 forward 7 unknown #
coedge $-1 $404 $403 $576 $703 reversed $160 $-1 #
edge $-1 $704 -81.785514605883208 $573 -57.735141712985268 $567 $705 forward 7 unknown #
vertex $-1 $406 $706 #
straight-curve $-1 -6.4511657696743612 20.496884464420603 17.131103839151567 1 0 0 I I #
coedge $-1 $699 $407 $410 $580 reversed $565 $-1 #
coedge $-1 $407 $699 $571 $703 forward $565 $-1 #
vertex $-1 $408 $707 #
straight-curve $-1 -20.509565333321319 40.892757302941611 88.440678510649491 0 0 1 I I #
straight-curve $-1 -20.509565333321319 -28.46529229416803 47.72606806006894 0 0.84804809178421925 -0.52991927123019833 I I #
edge $-1 $701 5.2950977453761254 $411 20.509565333321319 $575 $708 forward 7 unknown #
point $-1 -20.509565333321319 40.892757302941611 17.131103839151567 #
point $-1 -20.509565333321319 20.496884464420603 17.131103839151567 #
edge $-1 $709 1 $709 0 $414 $-1 forward 7 unknown #
vertex $-1 $415 $710 #
ellipse-curve $-1 -16.162574593908403 26.81361949501153 4.5475053186269871 0 0.52991927123019833 0.84804809178421925 2 0 0 1 I I #
point $-1 -14.162574593908403 30.694820883681086 10.758725801042063 #
edge $-1 $711 1 $711 0 $418 $-1 forward 7 unknown #
vertex $-1 $419 $712 #
ellipse-curve $-1 -9.642088484789042 26.81361949501153 4.5475053186269871 0 0.52991927123019833 0.84804809178421925 2 0 0 1 I I #
point $-1 -7.642088484789042 30.694820883681086 10.758725801042063 #
loop $-1 $-1 $430 $422 #
plane-surface $-1 0 40.892757302941611 0 0 -1 0 0 0 -1 forward_v I I I I #
coedge $-1 $594 $425 $427 $598 reversed $277 $-1 #
coedge $-1 $425 $593 $713 $714 reversed $277 $-1 #
coedge $-1 $433 $428 $425 $596 forward $423 $-1 #
edge $-1 $599 -5.6230609837815386 $715 14.772811854739469 $595 $716 forward 7 unknown #
coedge $-1 $427 $426 $602 $717 reversed $174 $-1 #
edge $-1 $718 -81.785514605883208 $599 -57.735141712985268 $593 $719 forward 7 unknown #
vertex $-1 $429 $720 #
straight-curve $-1 10.409260615908806 20.496884464420603 17.131103839151567 1 0 0 I I #
coedge $-1 $713 $430 $433 $606 reversed $591 $-1 #
coedge $-1 $430 $713 $597 $717 forward $591 $-1 #
vertex $-1 $431 $721 #
straight-curve $-1 13.211287437845016 40.892757302941611 88.440678510649491 0 0 1 I I #
straight-curve $-1 13.211287437845016 -28.46529229416803 47.72606806006894 0 0.84804809178421925 -0.52991927123019833 I I #
edge $-1 $715 -28.42575502579021 $434 -13.211287437845016 $601 $722 forward 7 unknown #
point $-1 13.211287437845016 40.892757302941611 17.131103839151567 #
point $-1 13.211287437845016 20.496884464420603 17.131103839151567 #
edge $-1 $723 1 $723 0 $437 $-1 forward 7 unknown #
vertex $-1 $438 $724 #
ellipse-curve $-1 17.558278177257932 26.81361949501153 4.5475053186269871 0 0.52991927123019833 0.84804809178421925 2 0 0 1 I I #
point $-1 19.558278177257932 30.694820883681086 10.758725801042063 #
edge $-1 $725 1 $725 0 $441 $-1 forward 7 unknown #
vertex $-1 $442 $726 #
ellipse-curve $-1 24.078764286377293 26.81361949501153 4.5475053186269871 0 0.52991927123019833 0.84804809178421925 2 0 0 1 I I #
point $-1 26.078764286377293 30.694820883681086 10.758725801042063 #
loop $-1 $-1 $453 $445 #
plane-surface $-1 0 40.892757302941611 0 0 -1 0 0 0 -1 forward_v I I I I #
coedge $-1 $620 $448 $450 $624 reversed $299 $-1 #
coedge $-1 $448 $619 $727 $728 reversed $299 $-1 #
coedge $-1 $456 $451 $448 $622 forward $446 $-1 #
edge $-1 $625 -5.6230609837815386 $729 14.772811854739469 $621 $730 forward 7 unknown #
coedge $-1 $450 $449 $628 $731 reversed $188 $-1 #
edge $-1 $732 -81.785514605883208 $625 -57.735141712985268 $619 $733 forward 7 unknown #
vertex $-1 $452 $734 #
straight-curve $-1 27.269687001491974 20.496884464420603 17.131103839151567 1 0 0 I I #
coedge $-1 $727 $453 $456 $632 reversed $617 $-1 #
coedge $-1 $453 $727 $623 $731 forward $617 $-1 #
vertex $-1 $454 $735 #
straight-curve $-1 46.932140209011351 40.892757302941611 88.440678510649491 0 0 1 I I #
straight-curve $-1 46.932140209011351 -28.46529229416803 47.72606806006894 0 0.84804809178421925 -0.52991927123019833 I I #
edge $-1 $729 -62.146607796956545 $457 -46.932140209011351 $627 $736 forward 7 unknown #
point $-1 46.932140209011351 40.892757302941611 17.131103839151567 #
point $-1 46.932140209011351 20.496884464420603 17.131103839151567 #
edge $-1 $737 1 $737 0 $460 $-1 forward 7 unknown #
vertex $-1 $461 $738 #
ellipse-curve $-1 51.279130948424267 26.81361949501153 4.5475053186269871 0 0.52991927123019833 0.84804809178421925 2 0 0 1 I I #
point $-1 53.279130948424267 30.694820883681086 10.758725801042063 #
edge $-1 $739 1 $739 0 $464 $-1 forward 7 unknown #
vertex $-1 $465 $740 #
ellipse-curve $-1 57.799617057543628 26.81361949501153 4.5475053186269871 0 0.52991927123019833 0.84804809178421925 2 0 0 1 I I #
point $-1 59.799617057543628 30.694820883681086 10.758725801042063 #
plane-surface $-1 76.14856410412915 0 0 -1 0 0 0 0 1 forward_v I I I I #
coedge $-1 $473 $471 $475 $648 reversed $321 $-1 #
edge $-1 $486 -17.131103839151567 $650 17.131103839151567 $485 $741 forward 7 unknown #
vertex $-1 $648 $742 #
straight-curve $-1 -76.14856410412915 -40.892757302941611 0 0 0 -1 I I #
edge $-1 $646 -40.892757302941611 $650 40.892757302941611 $644 $743 forward 7 unknown #
straight-curve $-1 0 -40.892757302941611 -17.131103839151567 -1 0 0 I I #
vertex $-1 $478 $744 #
straight-curve $-1 0 40.892757302941611 -17.131103839151567 1 0 0 I I #
point $-1 76.14856410412915 40.892757302941611 -17.131103839151567 #
point $-1 76.14856410412915 -40.892757302941611 -17.131103839151567 #
straight-curve $-1 -76.14856410412915 0 17.131103839151567 0 -1 0 I I #
point $-1 -76.14856410412915 40.892757302941611 17.131103839151567 #
point $-1 -76.14856410412915 -40.892757302941611 17.131103839151567 #
straight-curve $-1 76.14856410412915 -40.892757302941611 0 0 0 -1 I I #
straight-curve $-1 76.14856410412915 40.892757302941611 0 0 0 -1 I I #
plane-surface $-1 0 40.892757302941611 0 0 -1 0 0 0 -1 forward_v I I I I #
coedge $-1 $499 $498 $745 $746 forward $210 $-1 #
edge $-1 $502 58.734846980536169 $747 76.14856410412915 $501 $748 forward 7 unknown #
coedge $-1 $507 $506 $499 $663 reversed $508 $-1 #
edge $-1 $749 -76.14856410412915 $664 -58.734846980536169 $662 $750 forward 7 unknown #
vertex $-1 $514 $751 #
straight-curve $-1 -58.734846980536169 0 -17.131103839151567 0 -1 0 I I #
point $-1 -58.734846980536169 -40.892757302941611 -17.131103839151567 #
coedge $-1 $745 $504 $507 $670 forward $496 $-1 #
coedge $-1 $504 $745 $511 $672 reversed $496 $-1 #
straight-curve $-1 -76.14856410412915 0 -10.515079587833856 0 1 0 I I #
edge $-1 $509 10.515079587833856 $749 17.131103839151567 $507 $752 forward 7 unknown #
point $-1 -76.14856410412915 40.892757302941611 -10.515079587833856 #
edge $-1 $512 10.515079587833856 $747 17.131103839151567 $668 $753 forward 7 unknown #
point $-1 -76.14856410412915 -40.892757302941611 -10.515079587833856 #
straight-curve $-1 -58.734846980536169 40.892757302941611 -6.9115458567463559 0 0 -1 I I #
edge $-1 $676 37.886806363002371 $679 43.675412589243841 $518 $754 forward 7 unknown #
vertex $-1 $522 $755 #
straight-curve $-1 -3.7776914334614276 -40.892757302941611 54.063608445690903 0 0 1 I I #
edge $-1 $679 -6.4711307073108415 $529 26.96877498885538 $528 $756 forward 7 unknown #
vertex $-1 $678 $757 #
straight-curve $-1 -3.7776914334614276 -40.89275730294159 10.232511392301689 0 -0.64278759981090561 -0.7660444514056185 I I #
point $-1 -3.7776914334614276 -40.892757302941611 10.232511392301664 #
point $-1 -37.217597129627649 -35.104151076700141 17.131103839151567 #
straight-curve $-1 0 -40.892757302941611 17.131103839151567 1 0 0 I I #
vertex $-1 $535 $758 #
point $-1 -18.997644281544538 -33.575141882201983 9.9702079869958098 #
edge $-1 $687 71.309574671497927 $690 84.054330747716932 $540 $759 forward 7 unknown #
vertex $-1 $554 $760 #
straight-curve $-1 -39.015950516542453 26.119945448202142 17.131103839151564 0 1 0 I I #
edge $-1 $690 15.704358361284928 $551 30.918825949230122 $550 $761 forward 7 unknown #
vertex $-1 $689 $762 #
straight-curve $-1 -39.015950516542453 -28.46529229416803 47.72606806006894 0 -0.84804809178421925 0.52991927123019833 I I #
point $-1 -39.015950516542453 20.496884464420603 17.131103839151567 #
point $-1 -54.230418104487647 40.892757302941611 4.3863477629325658 #
straight-curve $-1 0 40.892757302941611 17.131103839151567 -1 0 0 I I #
vertex $-1 $557 $763 #
point $-1 -47.883427365074738 26.81361949501153 4.5475053186269871 #
vertex $-1 $561 $764 #
point $-1 -41.362941255955363 26.81361949501153 4.5475053186269871 #
coedge $-1 $576 $575 $568 $700 forward $565 $-1 #
edge $-1 $701 71.309574671497927 $704 84.054330747716932 $699 $765 forward 7 unknown #
vertex $-1 $580 $766 #
straight-curve $-1 -5.2950977453761254 26.119945448202142 17.131103839151564 0 1 0 I I #
edge $-1 $704 -1.1560680242982357 $577 14.058399563646958 $576 $767 forward 7 unknown #
vertex $-1 $703 $768 #
straight-curve $-1 -5.2950977453761254 -28.46529229416803 47.72606806006894 0 -0.84804809178421925 0.52991927123019833 I I #
point $-1 -5.2950977453761254 20.496884464420603 17.131103839151567 #
point $-1 -20.509565333321319 40.892757302941611 4.3863477629325658 #
straight-curve $-1 0 40.892757302941611 17.131103839151567 -1 0 0 I I #
vertex $-1 $583 $769 #
point $-1 -14.162574593908403 26.81361949501153 4.5475053186269871 #
vertex $-1 $587 $770 #
point $-1 -7.642088484789042 26.81361949501153 4.5475053186269871 #
coedge $-1 $602 $601 $594 $714 forward $591 $-1 #
edge $-1 $715 71.309574671497927 $718 84.054330747716932 $713 $771 forward 7 unknown #
vertex $-1 $606 $772 #
straight-curve $-1 28.42575502579021 26.119945448202142 17.131103839151564 0 1 0 I I #
edge $-1 $718 -18.016494409881403 $603 -2.8020268219362094 $602 $773 forward 7 unknown #
vertex $-1 $717 $774 #
straight-curve $-1 28.42575502579021 -28.46529229416803 47.72606806006894 0 -0.84804809178421925 0.52991927123019833 I I #
point $-1 28.42575502579021 20.496884464420603 17.131103839151567 #
point $-1 13.211287437845016 40.892757302941611 4.3863477629325658 #
straight-curve $-1 0 40.892757302941611 17.131103839151567 -1 0 0 I I #
vertex $-1 $609 $775 #
point $-1 19.558278177257932 26.81361949501153 4.5475053186269871 #
vertex $-1 $613 $776 #
point $-1 26.078764286377293 26.81361949501153 4.5475053186269871 #
coedge $-1 $628 $627 $620 $728 forward $617 $-1 #
edge $-1 $729 71.309574671497927 $732 84.054330747716932 $727 $777 forward 7 unknown #
vertex $-1 $632 $778 #
straight-curve $-1 62.146607796956545 26.119945448202142 17.131103839151564 0 1 0 I I #
edge $-1 $732 -34.876920795464571 $629 -19.662453207519377 $628 $779 forward 7 unknown #
vertex $-1 $731 $780 #
straight-curve $-1 62.146607796956545 -28.46529229416803 47.72606806006894 0 -0.84804809178421925 0.52991927123019833 I I #
point $-1 62.146607796956545 20.496884464420603 17.131103839151567 #
point $-1 46.932140209011351 40.892757302941611 4.3863477629325658 #
straight-curve $-1 0 40.892757302941611 17.131103839151567 -1 0 0 I I #
vertex $-1 $635 $781 #
point $-1 53.279130948424267 26.81361949501153 4.5475053186269871 #
vertex $-1 $639 $782 #
point $-1 59.799617057543628 26.81361949501153 4.5475053186269871 #
straight-curve $-1 -76.14856410412915 40.892757302941611 0 0 0 -1 I I #
point $-1 -76.14856410412915 -40.892757302941611 -17.131103839151567 #
straight-curve $-1 -76.14856410412915 0 -17.131103839151567 0 1 0 I I #
point $-1 -76.14856410412915 40.892757302941611 -17.131103839151567 #
coedge $-1 $668 $667 $660 $746 reversed $496 $-1 #
edge $-1 $747 -40.892757302941611 $749 40.892757302941611 $745 $783 forward 7 unknown #
vertex $-1 $746 $784 #
straight-curve $-1 0 -40.892757302941611 -17.131103839151567 -1 0 0 I I #
vertex $-1 $663 $785 #
straight-curve $-1 0 40.892757302941611 -17.131103839151567 1 0 0 I I #
point $-1 -58.734846980536169 40.892757302941611 -17.131103839151567 #
straight-curve $-1 -76.14856410412915 40.892757302941611 0 0 0 -1 I I #
straight-curve $-1 -76.14856410412915 -40.892757302941611 0 0 0 -1 I I #
straight-curve $-1 -3.7776914334614276 -78.779563665943982 17.131103839151564 0 1 0 I I #
point $-1 -3.7776914334614276 -40.892757302941611 17.131103839151567 #
straight-curve $-1 -10.248822140772269 -35.104151076700141 17.131103839151567 -1 0 0 I I #
point $-1 -3.7776914334614276 -35.104151076700141 17.131103839151567 #
point $-1 -20.497644281544538 -32.426075205093561 9.0060265872794503 #
straight-curve $-1 -39.015950516542453 40.892757302941611 88.440678510649491 0 0 -1 I I #
point $-1 -39.015950516542453 40.892757302941611 17.131103839151567 #
straight-curve $-1 -23.311592155257525 40.892757302941611 4.3863477629325729 -1 0 0 I I #
point $-1 -39.015950516542453 40.892757302941611 4.3863477629325658 #
point $-1 -49.883427365074738 25.753780952551132 2.8514091350585482 #
point $-1 -43.362941255955363 25.753780952551132 2.8514091350585482 #
straight-curve $-1 -5.2950977453761254 40.892757302941611 88.440678510649491 0 0 -1 I I #
point $-1 -5.2950977453761254 40.892757302941611 17.131103839151567 #
straight-curve $-1 -6.4511657696743612 40.892757302941611 4.3863477629325729 -1 0 0 I I #
point $-1 -5.2950977453761254 40.892757302941611 4.3863477629325658 #
point $-1 -16.162574593908403 25.753780952551132 2.8514091350585482 #
point $-1 -9.642088484789042 25.753780952551132 2.8514091350585482 #
straight-curve $-1 28.42575502579021 40.892757302941611 88.440678510649491 0 0 -1 I I #
point $-1 28.42575502579021 40.892757302941611 17.131103839151567 #
straight-curve $-1 10.409260615908806 40.892757302941611 4.3863477629325729 -1 0 0 I I #
point $-1 28.42575502579021 40.892757302941611 4.3863477629325658 #
point $-1 17.558278177257932 25.753780952551132 2.8514091350585482 #
point $-1 24.078764286377293 25.753780952551132 2.8514091350585482 #
straight-curve $-1 62.146607796956545 40.892757302941611 88.440678510649491 0 0 -1 I I #
point $-1 62.146607796956545 40.892757302941611 17.131103839151567 #
straight-curve $-1 27.269687001491974 40.892757302941611 4.3863477629325729 -1 0 0 I I #
point $-1 62.146607796956545 40.892757302941611 4.3863477629325658 #
point $-1 51.279130948424267 25.753780952551132 2.8514091350585482 #
point $-1 57.799617057543628 25.753780952551132 2.8514091350585482 #
straight-curve $-1 -76.14856410412915 0 -17.131103839151567 0 1 0 I I #
point $-1 -76.14856410412915 -40.892757302941611 -17.131103839151567 #
point $-1 -76.14856410412915 40.892757302941611 -17.131103839151567 #
End-of-ACIS-data 