500 0 7 0           
7 Unknown 11 ACIS 5.0 NT 24 Thu Mar 25 15:11:09 1999 
-1 9.9999999999999995e-007 1e-010 
body $-1 $7 $-1 $8 #
body $-1 $9 $-1 $10 #
body $-1 $11 $-1 $12 #
body $-1 $13 $-1 $14 #
body $-1 $15 $-1 $16 #
body $-1 $17 $-1 $18 #
body $-1 $19 $-1 $20 #
lump $-1 $-1 $21 $0 #
transform $-1 1 0 0 0 1 0 0 0 1 49.198278756065555 20.069840763708999 7.8271582726351916 1 rotate no_reflect no_shear #
lump $-1 $-1 $22 $1 #
transform $-1 1 0 0 0 1 0 0 0 1 49.198278756065555 20.069840763708999 7.8271582726351916 1 rotate no_reflect no_shear #
lump $-1 $-1 $23 $2 #
transform $-1 1 0 0 0 1 0 0 0 1 49.198278756065555 20.069840763708999 7.8271582726351916 1 rotate no_reflect no_shear #
lump $-1 $-1 $24 $3 #
transform $-1 1 0 0 0 1 0 0 0 1 49.198278756065555 20.069840763708999 7.8271582726351916 1 rotate no_reflect no_shear #
lump $-1 $-1 $25 $4 #
transform $-1 1 0 0 0 1 0 0 0 1 49.198278756065555 20.069840763708999 7.8271582726351916 1 rotate no_reflect no_shear #
lump $-1 $-1 $26 $5 #
transform $-1 1 0 0 0 1 0 0 0 1 49.198278756065555 20.069840763708999 7.8271582726351916 1 rotate no_reflect no_shear #
lump $-1 $-1 $27 $6 #
transform $-1 1 0 0 0 1 0 0 0 1 49.198278756065555 20.069840763708999 7.8271582726351916 1 rotate no_reflect no_shear #
shell $-1 $-1 $-1 $28 $-1 $7 #
shell $-1 $-1 $-1 $29 $-1 $9 #
shell $-1 $-1 $-1 $30 $-1 $11 #
shell $-1 $-1 $-1 $31 $-1 $13 #
shell $-1 $-1 $-1 $32 $-1 $15 #
shell $-1 $-1 $-1 $33 $-1 $17 #
shell $-1 $-1 $-1 $34 $-1 $19 #
face $-1 $35 $36 $21 $-1 $37 forward single #
face $-1 $38 $39 $22 $-1 $40 forward single #
face $-1 $41 $42 $23 $-1 $43 forward single #
face $-1 $44 $45 $24 $-1 $46 reversed single #
face $-1 $47 $48 $25 $-1 $49 forward single #
face $-1 $50 $51 $26 $-1 $52 reversed single #
face $-1 $53 $54 $27 $-1 $55 forward single #
face $-1 $56 $57 $21 $-1 $58 reversed single #
loop $-1 $-1 $59 $28 #
plane-surface $-1 0 0 7.8271582726351916 0 0 1 1 0 0 forward_v I I I I #
face $-1 $60 $61 $22 $-1 $62 reversed single #
loop $-1 $-1 $63 $29 #
plane-surface $-1 -45.598196812564098 0 -3.2577527549729521 0 0 1 1 0 0 forward_v I I I I #
face $-1 $64 $65 $23 $-1 $66 reversed single #
loop $-1 $-1 $67 $30 #
plane-surface $-1 45.598196812564105 0 -3.2577527549729521 0 0 1 1 0 0 forward_v I I I I #
face $-1 $68 $69 $24 $-1 $70 reversed single #
loop $-1 $-1 $71 $31 #
plane-surface $-1 17.886630558460578 67.996666090485277 96.820040607149139 -1 0 0 0 0.75470958851134928 0.65605901945558964 forward_v I I I I #
face $-1 $72 $73 $25 $-1 $74 forward single #
loop $-1 $75 $76 $32 #
cone-surface $-1 8.973422434099227 16.769044051365373 4.2425283912742477 0 -0.75470958851134928 -0.65605901945558964 1.5 0 0 1 I I 0 1 1.5 forward I I I I #
face $-1 $77 $78 $26 $-1 $79 reversed single #
loop $-1 $-1 $80 $33 #
plane-surface $-1 19.716440364019192 -83.317929545698519 76.566609587502214 1 0 0 0 0.64278761758704617 -0.76604443648966558 forward_v I I I I #
face $-1 $81 $82 $27 $-1 $83 forward single #
loop $-1 $84 $85 $34 #
cone-surface $-1 30.857277616540919 -14.908214719725256 3.0703934291873907 0 0.64278761758704617 -0.76604443648966558 2.5 0 0 1 I I 0 1 2.5 forward I I I I #
face $-1 $86 $87 $21 $-1 $88 reversed single #
loop $-1 $-1 $89 $35 #
plane-surface $-1 0 0 -7.8271582726351916 0 0 1 1 0 0 forward_v I I I I #
coedge $-1 $90 $91 $92 $93 forward $36 $-1 #
face $-1 $94 $95 $22 $-1 $96 reversed single #
loop $-1 $-1 $97 $38 #
plane-surface $-1 -41.99811486906264 0 -5.5424555138040716 -1 0 0 0 0 1 forward_v I I I I #
coedge $-1 $98 $99 $100 $101 forward $39 $-1 #
face $-1 $102 $103 $23 $-1 $104 reversed single #
loop $-1 $-1 $105 $41 #
plane-surface $-1 41.998114869062647 0 -5.5424555138040716 1 0 0 0 0 -1 forward_v I I I I #
coedge $-1 $106 $107 $108 $109 reversed $42 $-1 #
face $-1 $110 $111 $24 $-1 $112 reversed single #
loop $-1 $-1 $113 $44 #
plane-surface $-1 8.973422434099227 -6.2641593404285061 32.266091567934865 0 0.75470958851134928 0.65605901945558964 1 0 0 forward_v I I I I #
coedge $-1 $114 $115 $116 $117 reversed $45 $-1 #
face $-1 $-1 $118 $25 $-1 $119 forward single #
loop $-1 $120 $121 $47 #
cone-surface $-1 8.973422434099227 15.446995170754914 3.0932888619388983 0 -0.75470958851134928 -0.65605901945558964 0.75 0 0 1 I I -0.70710678118654757 0.70710678118654757 0.75 forward I I I I #
loop $-1 $-1 $122 $32 #
coedge $-1 $76 $76 $123 $124 reversed $48 $-1 #
face $-1 $125 $126 $26 $-1 $127 reversed single #
loop $-1 $-1 $128 $50 #
plane-surface $-1 30.857277616540919 -20.069840763708989 1.1904741355987625 0 -0.64278761758704617 0.76604443648966558 1 0 0 forward_v I I I I #
coedge $-1 $129 $130 $131 $132 reversed $51 $-1 #
face $-1 $-1 $133 $27 $-1 $134 forward single #
loop $-1 $135 $136 $53 #
cone-surface $-1 30.857277616540919 -12.897750152540882 0.67441510864571796 0 0.64278761758704617 -0.76604443648966558 1.25 0 0 1 I I -0.70710678118654746 0.70710678118654746 1.25 forward I I I I #
loop $-1 $-1 $137 $34 #
coedge $-1 $85 $85 $138 $139 reversed $54 $-1 #
face $-1 $140 $141 $21 $-1 $142 reversed single #
loop $-1 $-1 $143 $56 #
plane-surface $-1 0 -20.069840763708999 0 0 1 0 0 0 1 forward_v I I I I #
coedge $-1 $144 $145 $146 $147 forward $57 $-1 #
coedge $-1 $148 $59 $149 $150 forward $36 $-1 #
coedge $-1 $59 $148 $151 $152 forward $36 $-1 #
coedge $-1 $153 $154 $59 $93 reversed $155 $-1 #
edge $-1 $156 -20.069840763708999 $157 20.069840763708999 $92 $158 forward 7 unknown #
face $-1 $159 $160 $22 $-1 $161 reversed single #
loop $-1 $-1 $162 $60 #
plane-surface $-1 0 0 -7.8271582726351916 0 0 1 1 0 0 forward_v I I I I #
coedge $-1 $163 $100 $164 $165 reversed $61 $-1 #
coedge $-1 $166 $63 $167 $168 reversed $39 $-1 #
coedge $-1 $63 $166 $169 $170 reversed $39 $-1 #
coedge $-1 $97 $171 $63 $101 reversed $61 $-1 #
edge $-1 $172 -20.069840763708999 $173 20.069840763708999 $100 $174 forward 7 unknown #
face $-1 $175 $176 $23 $-1 $177 reversed single #
loop $-1 $-1 $178 $64 #
plane-surface $-1 0 -20.069840763708999 0 0 1 0 0 0 1 forward_v I I I I #
coedge $-1 $179 $180 $181 $182 reversed $65 $-1 #
coedge $-1 $183 $67 $184 $185 reversed $42 $-1 #
coedge $-1 $67 $183 $178 $186 reversed $42 $-1 #
coedge $-1 $187 $188 $67 $109 forward $189 $-1 #
edge $-1 $190 -20.069840763708999 $191 20.069840763708999 $108 $192 forward 7 unknown #
face $-1 $193 $194 $24 $-1 $195 reversed single #
loop $-1 $-1 $196 $68 #
plane-surface $-1 0.060214309737876448 67.996666090485277 96.820040607149139 1 0 0 0 -0.75470958851134928 -0.65605901945558964 forward_v I I I I #
coedge $-1 $197 $198 $199 $200 reversed $69 $-1 #
coedge $-1 $115 $71 $201 $202 reversed $45 $-1 #
coedge $-1 $71 $114 $197 $203 reversed $45 $-1 #
coedge $-1 $199 $204 $71 $117 forward $194 $-1 #
edge $-1 $205 40.582862030939381 $206 46.437731264173962 $116 $207 forward 7 unknown #
loop $-1 $-1 $123 $72 #
plane-surface $-1 8.973422434099227 -6.2641593404285061 32.266091567934865 0 0.75470958851134928 0.65605901945558964 1 0 0 forward_v I I I I #
loop $-1 $-1 $208 $47 #
coedge $-1 $121 $121 $122 $209 reversed $73 $-1 #
coedge $-1 $122 $122 $121 $209 forward $75 $-1 #
coedge $-1 $123 $123 $76 $124 forward $118 $-1 #
edge $-1 $210 -1.3406335393130842e-015 $210 6.2831853071795987 $123 $211 forward 7 unknown #
face $-1 $212 $213 $26 $-1 $214 forward single #
loop $-1 $-1 $215 $77 #
plane-surface $-1 41.998114869062647 -83.317929545698519 76.566609587502214 -1 0 0 0 -0.64278761758704617 0.76604443648966558 forward_v I I I I #
coedge $-1 $216 $217 $218 $219 reversed $78 $-1 #
coedge $-1 $130 $80 $220 $221 reversed $51 $-1 #
coedge $-1 $80 $129 $216 $222 reversed $51 $-1 #
coedge $-1 $218 $223 $80 $132 forward $224 $-1 #
edge $-1 $225 30.456146521115915 $226 37.092830658152351 $131 $227 forward 7 unknown #
loop $-1 $-1 $138 $81 #
plane-surface $-1 30.857277616540919 -20.069840763708989 1.1904741355987625 0 -0.64278761758704617 0.76604443648966558 1 0 0 forward_v I I I I #
loop $-1 $-1 $228 $53 #
coedge $-1 $136 $136 $137 $229 reversed $82 $-1 #
coedge $-1 $137 $137 $136 $229 forward $84 $-1 #
coedge $-1 $138 $138 $85 $139 forward $133 $-1 #
edge $-1 $230 -2.9711138766841782e-016 $230 6.2831853071796004 $138 $231 forward 7 unknown #
face $-1 $232 $233 $21 $-1 $234 reversed single #
loop $-1 $-1 $235 $86 #
plane-surface $-1 -49.198278756065555 0 0 1 0 0 0 0 -1 forward_v I I I I #
coedge $-1 $236 $151 $237 $238 forward $87 $-1 #
coedge $-1 $239 $89 $236 $240 forward $57 $-1 #
coedge $-1 $89 $239 $241 $242 forward $57 $-1 #
coedge $-1 $154 $153 $89 $147 reversed $155 $-1 #
edge $-1 $243 -20.069840763708999 $244 20.069840763708999 $146 $245 forward 7 unknown #
coedge $-1 $91 $90 $246 $247 forward $36 $-1 #
coedge $-1 $248 $249 $90 $150 reversed $233 $-1 #
edge $-1 $157 -49.198278756065555 $250 49.198278756065555 $149 $251 forward 7 unknown #
coedge $-1 $143 $252 $91 $152 reversed $87 $-1 #
edge $-1 $253 -49.198278756065555 $156 49.198278756065555 $151 $254 forward 7 unknown #
coedge $-1 $146 $92 $252 $255 forward $155 $-1 #
coedge $-1 $92 $146 $248 $256 reversed $155 $-1 #
loop $-1 $-1 $153 $232 #
vertex $-1 $93 $257 #
vertex $-1 $93 $258 #
straight-curve $-1 49.198278756065555 0 7.8271582726351916 0 1 0 I I #
face $-1 $259 $260 $22 $-1 $261 reversed single #
loop $-1 $-1 $164 $94 #
plane-surface $-1 0 -20.069840763708999 0 0 1 0 0 0 1 forward_v I I I I #
coedge $-1 $262 $263 $163 $264 forward $95 $-1 #
coedge $-1 $171 $97 $162 $264 reversed $61 $-1 #
coedge $-1 $169 $265 $97 $165 forward $160 $-1 #
edge $-1 $266 -5.0559305157331558 $172 -0.48652499807091631 $164 $267 forward 7 unknown #
coedge $-1 $99 $98 $268 $269 reversed $39 $-1 #
coedge $-1 $270 $271 $98 $168 forward $272 $-1 #
edge $-1 $273 -26.399180349783506 $173 -19.199016462780591 $167 $274 forward 7 unknown #
coedge $-1 $275 $164 $99 $170 forward $160 $-1 #
edge $-1 $172 19.199016462780591 $276 26.399180349783506 $169 $277 forward 7 unknown #
coedge $-1 $100 $163 $270 $278 reversed $61 $-1 #
vertex $-1 $170 $279 #
vertex $-1 $168 $280 #
straight-curve $-1 -41.99811486906264 0 -3.2577527549729521 0 1 0 I I #
face $-1 $281 $282 $23 $-1 $283 reversed single #
loop $-1 $-1 $284 $102 #
plane-surface $-1 0 0 -7.8271582726351916 0 0 1 1 0 0 forward_v I I I I #
coedge $-1 $285 $286 $107 $186 forward $103 $-1 #
coedge $-1 $287 $105 $284 $288 reversed $65 $-1 #
coedge $-1 $105 $287 $183 $289 reversed $65 $-1 #
coedge $-1 $184 $290 $105 $182 forward $282 $-1 #
edge $-1 $291 -5.0559305157331558 $292 -0.48652499807091631 $181 $293 forward 7 unknown #
coedge $-1 $107 $106 $180 $289 forward $42 $-1 #
coedge $-1 $294 $181 $106 $185 forward $282 $-1 #
edge $-1 $292 19.199016462780595 $190 26.39918034978351 $184 $295 forward 7 unknown #
edge $-1 $191 -26.39918034978351 $296 -19.199016462780595 $178 $297 forward 7 unknown #
coedge $-1 $298 $108 $286 $299 forward $189 $-1 #
coedge $-1 $108 $298 $294 $300 reversed $189 $-1 #
loop $-1 $-1 $108 $281 #
vertex $-1 $300 $301 #
vertex $-1 $299 $302 #
straight-curve $-1 49.198278756065555 0 -3.2577527549729521 0 -1 0 I I #
face $-1 $-1 $303 $24 $-1 $304 forward single #
loop $-1 $-1 $116 $110 #
plane-surface $-1 0 20.069840763708999 0 0 -1 0 0 0 -1 forward_v I I I I #
coedge $-1 $305 $306 $307 $308 reversed $111 $-1 #
coedge $-1 $309 $113 $115 $203 forward $69 $-1 #
coedge $-1 $113 $309 $305 $310 forward $69 $-1 #
coedge $-1 $307 $116 $113 $200 forward $194 $-1 #
edge $-1 $206 -13.399919341410964 $311 4.4264969073117371 $199 $312 forward 7 unknown #
coedge $-1 $313 $314 $114 $202 forward $303 $-1 #
edge $-1 $315 -19.018052327766995 $205 -13.928492281533639 $201 $316 forward 7 unknown #
edge $-1 $206 -40.13968152741802 $315 -32.38190380422359 $115 $317 forward 7 unknown #
coedge $-1 $116 $307 $313 $318 reversed $194 $-1 #
vertex $-1 $318 $319 #
vertex $-1 $117 $320 #
straight-curve $-1 17.886630558460578 20.069840763708999 48.410020303574569 0 0 -1 I I #
coedge $-1 $208 $208 $-1 $321 reversed $120 $-1 #
edge $-1 $322 0 $322 6.2831853071796004 $121 $323 forward 7 unknown #
vertex $-1 $124 $324 #
ellipse-curve $-1 8.973422434099227 17.52506074059232 4.8997236560179021 0 0.75470958851134928 0.65605901945558964 1.5 0 0 1 I I #
face $-1 $-1 $224 $26 $-1 $325 reversed single #
loop $-1 $-1 $326 $125 #
plane-surface $-1 0 0 7.8271582726351916 0 0 1 1 0 0 forward_v I I I I #
coedge $-1 $327 $328 $329 $330 reversed $126 $-1 #
coedge $-1 $331 $128 $130 $222 forward $78 $-1 #
coedge $-1 $128 $331 $327 $332 forward $78 $-1 #
coedge $-1 $329 $131 $128 $219 forward $224 $-1 #
edge $-1 $226 4.2878015557487323 $333 26.569476060792187 $218 $334 forward 7 unknown #
coedge $-1 $335 $336 $129 $221 forward $213 $-1 #
edge $-1 $337 -29.498416006706638 $225 -21.58912400914026 $220 $338 forward 7 unknown #
edge $-1 $226 -1.3873710548170279e-014 $337 10.324847516431337 $130 $339 forward 7 unknown #
coedge $-1 $131 $329 $335 $340 reversed $224 $-1 #
loop $-1 $-1 $329 $212 #
vertex $-1 $340 $341 #
vertex $-1 $132 $342 #
straight-curve $-1 19.716440364019192 -20.069840763708999 38.283304793751107 0 0 -1 I I #
coedge $-1 $228 $228 $-1 $343 reversed $135 $-1 #
edge $-1 $344 0 $344 6.2831853071796004 $136 $345 forward 7 unknown #
vertex $-1 $139 $346 #
ellipse-curve $-1 30.857277616540919 -16.115194764925814 4.5088162041169699 0 -0.64278761758704617 0.76604443648966558 2.5 0 0 1 I I #
face $-1 $-1 $155 $21 $-1 $347 reversed single #
loop $-1 $-1 $248 $140 #
plane-surface $-1 0 20.069840763708999 0 0 -1 0 0 0 -1 forward_v I I I I #
coedge $-1 $348 $246 $249 $349 forward $141 $-1 #
coedge $-1 $252 $143 $144 $240 reversed $87 $-1 #
coedge $-1 $246 $348 $143 $238 reversed $141 $-1 #
edge $-1 $253 -7.8271582726351916 $350 7.8271582726351916 $237 $351 forward 7 unknown #
coedge $-1 $145 $144 $348 $352 forward $57 $-1 #
edge $-1 $244 -49.198278756065555 $350 49.198278756065555 $236 $353 forward 7 unknown #
coedge $-1 $249 $248 $145 $242 reversed $233 $-1 #
edge $-1 $354 -49.198278756065555 $243 49.198278756065555 $241 $355 forward 7 unknown #
vertex $-1 $147 $356 #
vertex $-1 $255 $357 #
straight-curve $-1 49.198278756065555 0 -7.8271582726351916 0 -1 0 I I #
coedge $-1 $235 $237 $148 $247 reversed $141 $-1 #
edge $-1 $250 -20.069840763708999 $253 20.069840763708999 $246 $358 forward 7 unknown #
coedge $-1 $241 $149 $154 $256 forward $233 $-1 #
coedge $-1 $149 $241 $235 $349 reversed $233 $-1 #
vertex $-1 $150 $359 #
straight-curve $-1 0 20.069840763708999 7.8271582726351916 -1 0 0 I I #
coedge $-1 $151 $236 $153 $255 reversed $87 $-1 #
vertex $-1 $247 $360 #
straight-curve $-1 0 -20.069840763708999 7.8271582726351916 1 0 0 I I #
edge $-1 $156 -7.8271582726351916 $244 7.8271582726351916 $153 $361 forward 7 unknown #
edge $-1 $157 -7.8271582726351916 $243 7.8271582726351916 $154 $362 forward 7 unknown #
point $-1 49.198278756065555 -20.069840763708999 7.8271582726351916 #
point $-1 49.198278756065555 20.069840763708999 7.8271582726351916 #
face $-1 $-1 $272 $22 $-1 $363 reversed single #
loop $-1 $-1 $268 $159 #
plane-surface $-1 -49.198278756065555 0 0 1 0 0 0 0 -1 forward_v I I I I #
coedge $-1 $364 $162 $265 $365 forward $95 $-1 #
coedge $-1 $162 $364 $366 $367 forward $95 $-1 #
edge $-1 $368 -20.069840763708999 $266 20.069840763708999 $162 $369 forward 7 unknown #
coedge $-1 $164 $275 $262 $365 reversed $160 $-1 #
vertex $-1 $365 $370 #
straight-curve $-1 -41.99811486906264 -20.069840763708999 -2.7712277569020358 0 0 1 I I #
coedge $-1 $371 $372 $166 $269 forward $260 $-1 #
edge $-1 $276 -20.069840763708999 $273 20.069840763708999 $268 $373 forward 7 unknown #
coedge $-1 $366 $167 $171 $278 forward $272 $-1 #
coedge $-1 $167 $366 $371 $374 reversed $272 $-1 #
loop $-1 $-1 $270 $259 #
vertex $-1 $374 $375 #
straight-curve $-1 -22.799098406282049 20.069840763708999 -3.2577527549729521 1 0 0 I I #
coedge $-1 $265 $169 $372 $376 forward $160 $-1 #
vertex $-1 $376 $377 #
straight-curve $-1 -22.799098406282049 -20.069840763708999 -3.2577527549729521 -1 0 0 I I #
edge $-1 $173 0.48652499807091631 $368 5.0559305157331558 $270 $378 forward 7 unknown #
point $-1 -41.99811486906264 -20.069840763708999 -3.2577527549729521 #
point $-1 -41.99811486906264 20.069840763708999 -3.2577527549729521 #
face $-1 $-1 $189 $23 $-1 $379 reversed single #
loop $-1 $-1 $184 $175 #
plane-surface $-1 0 20.069840763708999 0 0 -1 0 0 0 -1 forward_v I I I I #
coedge $-1 $380 $381 $179 $288 forward $176 $-1 #
coedge $-1 $382 $178 $287 $383 forward $103 $-1 #
coedge $-1 $178 $382 $187 $299 reversed $103 $-1 #
coedge $-1 $180 $179 $285 $383 reversed $65 $-1 #
edge $-1 $384 -20.069840763708999 $291 20.069840763708999 $284 $385 forward 7 unknown #
edge $-1 $292 -20.069840763708999 $296 20.069840763708999 $180 $386 forward 7 unknown #
coedge $-1 $181 $294 $380 $387 reversed $282 $-1 #
vertex $-1 $387 $388 #
vertex $-1 $185 $389 #
straight-curve $-1 41.998114869062647 20.069840763708999 -2.7712277569020358 0 0 1 I I #
coedge $-1 $290 $184 $188 $300 forward $282 $-1 #
straight-curve $-1 22.799098406282052 20.069840763708999 -3.2577527549729521 1 0 0 I I #
vertex $-1 $186 $390 #
straight-curve $-1 22.799098406282052 -20.069840763708999 -3.2577527549729521 -1 0 0 I I #
coedge $-1 $188 $187 $391 $392 reversed $189 $-1 #
edge $-1 $191 3.2577527549729521 $393 7.8271582726351916 $187 $394 forward 7 unknown #
edge $-1 $190 3.2577527549729521 $395 7.8271582726351916 $188 $396 forward 7 unknown #
point $-1 49.198278756065562 20.069840763708999 -3.2577527549729521 #
point $-1 49.198278756065562 -20.069840763708999 -3.2577527549729521 #
loop $-1 $-1 $201 $193 #
plane-surface $-1 0 0 7.8271582726351916 0 0 1 1 0 0 forward_v I I I I #
coedge $-1 $306 $196 $198 $310 reversed $111 $-1 #
coedge $-1 $196 $305 $397 $398 reversed $111 $-1 #
coedge $-1 $204 $199 $196 $308 forward $194 $-1 #
edge $-1 $311 -46.437731264173962 $399 -40.582862030939381 $307 $400 forward 7 unknown #
coedge $-1 $198 $197 $314 $401 reversed $69 $-1 #
edge $-1 $402 32.38190380422359 $311 40.13968152741802 $305 $403 forward 7 unknown #
vertex $-1 $200 $404 #
straight-curve $-1 4.4867112170496135 20.069840763709003 1.972289039400609 -1 0 0 I I #
coedge $-1 $397 $201 $204 $318 forward $303 $-1 #
coedge $-1 $201 $397 $309 $401 forward $303 $-1 #
vertex $-1 $202 $405 #
straight-curve $-1 17.886630558460578 33.998333045242639 7.827158272635188 0 1 0 I I #
straight-curve $-1 17.886630558460578 -6.2641593404285061 32.266091567934865 0 -0.65605901945558964 0.75470958851134928 I I #
edge $-1 $205 -17.886630558460578 $399 -0.060214309737876448 $204 $406 forward 7 unknown #
point $-1 17.886630558460578 20.069840763708999 7.8271582726351916 #
point $-1 17.886630558460578 20.069840763708999 1.9722890394006107 #
edge $-1 $407 1 $407 0 $208 $-1 forward 7 unknown #
vertex $-1 $209 $408 #
ellipse-curve $-1 8.973422434099227 16.013027362138427 3.5853331265305908 0 0.75470958851134928 0.65605901945558964 1.5 0 0 1 I I #
point $-1 10.473422434099227 17.52506074059232 4.8997236560179047 #
plane-surface $-1 0 -20.069840763708999 0 0 1 0 0 0 1 forward_v I I I I #
coedge $-1 $336 $335 $328 $409 forward $213 $-1 #
coedge $-1 $328 $215 $217 $332 reversed $126 $-1 #
coedge $-1 $215 $327 $326 $409 reversed $126 $-1 #
coedge $-1 $223 $218 $215 $330 forward $224 $-1 #
edge $-1 $333 -37.092830658152351 $410 -30.456146521115915 $329 $411 forward 7 unknown #
coedge $-1 $217 $216 $336 $412 reversed $78 $-1 #
edge $-1 $413 -10.324847516431337 $333 1.3873710548170279e-014 $327 $414 forward 7 unknown #
vertex $-1 $219 $415 #
straight-curve $-1 15.42863880827046 -20.069840763708999 1.1904741355987563 1 0 0 I I #
coedge $-1 $326 $220 $223 $340 forward $213 $-1 #
coedge $-1 $220 $326 $331 $412 forward $213 $-1 #
vertex $-1 $221 $416 #
straight-curve $-1 19.716440364019192 -41.658964772849259 7.8271582726351951 0 -1 0 I I #
straight-curve $-1 19.716440364019192 -20.069840763708989 1.1904741355987625 0 0.76604443648966558 0.64278761758704617 I I #
edge $-1 $225 19.716440364019192 $410 41.998114869062647 $223 $417 forward 7 unknown #
point $-1 19.716440364019192 -20.069840763708999 7.8271582726351916 #
point $-1 19.716440364019192 -20.069840763708999 1.1904741355987536 #
edge $-1 $418 1 $418 0 $228 $-1 forward 7 unknown #
vertex $-1 $229 $419 #
ellipse-curve $-1 30.857277616540919 -13.70123467452469 1.6319706542577999 0 -0.64278761758704617 0.76604443648966558 2.5 0 0 1 I I #
point $-1 33.357277616540919 -16.115194764925825 4.5088162041169815 #
plane-surface $-1 49.198278756065555 0 0 -1 0 0 0 0 1 forward_v I I I I #
coedge $-1 $237 $235 $239 $352 reversed $141 $-1 #
edge $-1 $250 -7.8271582726351916 $354 7.8271582726351916 $249 $420 forward 7 unknown #
vertex $-1 $352 $421 #
straight-curve $-1 -49.198278756065555 -20.069840763708999 0 0 0 -1 I I #
edge $-1 $350 -20.069840763708999 $354 20.069840763708999 $348 $422 forward 7 unknown #
straight-curve $-1 0 -20.069840763708999 -7.8271582726351916 -1 0 0 I I #
vertex $-1 $242 $423 #
straight-curve $-1 0 20.069840763708999 -7.8271582726351916 1 0 0 I I #
point $-1 49.198278756065555 20.069840763708999 -7.8271582726351916 #
point $-1 49.198278756065555 -20.069840763708999 -7.8271582726351916 #
straight-curve $-1 -49.198278756065555 0 7.8271582726351916 0 -1 0 I I #
point $-1 -49.198278756065555 20.069840763708999 7.8271582726351916 #
point $-1 -49.198278756065555 -20.069840763708999 7.8271582726351916 #
straight-curve $-1 49.198278756065555 -20.069840763708999 0 0 0 -1 I I #
straight-curve $-1 49.198278756065555 20.069840763708999 0 0 0 -1 I I #
plane-surface $-1 0 20.069840763708999 0 0 -1 0 0 0 -1 forward_v I I I I #
coedge $-1 $263 $262 $424 $425 forward $95 $-1 #
edge $-1 $266 41.99811486906264 $426 49.198278756065555 $265 $427 forward 7 unknown #
coedge $-1 $271 $270 $263 $367 reversed $272 $-1 #
edge $-1 $428 -49.198278756065555 $368 -41.99811486906264 $366 $429 forward 7 unknown #
vertex $-1 $278 $430 #
straight-curve $-1 -41.99811486906264 0 -7.8271582726351916 0 -1 0 I I #
point $-1 -41.99811486906264 -20.069840763708999 -7.8271582726351916 #
coedge $-1 $424 $268 $271 $374 forward $260 $-1 #
coedge $-1 $268 $424 $275 $376 reversed $260 $-1 #
straight-curve $-1 -49.198278756065555 0 -3.2577527549729521 0 1 0 I I #
edge $-1 $273 3.2577527549729521 $428 7.8271582726351916 $271 $431 forward 7 unknown #
point $-1 -49.198278756065555 20.069840763708999 -3.2577527549729521 #
edge $-1 $276 3.2577527549729521 $426 7.8271582726351916 $372 $432 forward 7 unknown #
point $-1 -49.198278756065555 -20.069840763708999 -3.2577527549729521 #
straight-curve $-1 -41.99811486906264 20.069840763708999 -2.7712277569020358 0 0 -1 I I #
plane-surface $-1 49.198278756065555 0 0 -1 0 0 0 0 1 forward_v I I I I #
coedge $-1 $391 $284 $290 $387 forward $176 $-1 #
coedge $-1 $284 $391 $382 $433 forward $176 $-1 #
coedge $-1 $286 $285 $381 $433 reversed $103 $-1 #
edge $-1 $296 0.48652499807091631 $384 5.0559305157331558 $285 $434 forward 7 unknown #
vertex $-1 $288 $435 #
straight-curve $-1 41.998114869062647 0 -7.8271582726351916 0 1 0 I I #
straight-curve $-1 41.998114869062647 0 -3.2577527549729521 0 -1 0 I I #
edge $-1 $291 41.998114869062647 $395 49.198278756065555 $290 $436 forward 7 unknown #
point $-1 41.998114869062647 20.069840763708999 -7.8271582726351916 #
point $-1 41.998114869062647 20.069840763708999 -3.2577527549729521 #
point $-1 41.998114869062647 -20.069840763708999 -3.2577527549729521 #
coedge $-1 $381 $380 $298 $392 forward $176 $-1 #
edge $-1 $395 -20.069840763708999 $393 20.069840763708999 $298 $437 forward 7 unknown #
vertex $-1 $299 $438 #
straight-curve $-1 49.198278756065555 -20.069840763708999 0 0 0 -1 I I #
vertex $-1 $392 $439 #
straight-curve $-1 49.198278756065555 20.069840763708999 0 0 0 -1 I I #
coedge $-1 $314 $313 $306 $398 forward $303 $-1 #
edge $-1 $399 13.928492281533639 $402 19.018052327766995 $397 $440 forward 7 unknown #
vertex $-1 $398 $441 #
straight-curve $-1 0.060214309737876448 20.069840763708999 48.410020303574569 0 0 1 I I #
edge $-1 $402 -4.4264969073117371 $315 13.399919341410964 $314 $442 forward 7 unknown #
vertex $-1 $401 $443 #
straight-curve $-1 0.060214309737876448 -6.2641593404285061 32.266091567934865 0 0.65605901945558964 -0.75470958851134928 I I #
point $-1 0.060214309737876448 20.069840763708999 1.9722890394006107 #
point $-1 17.886630558460578 14.980280717475644 7.8271582726351916 #
straight-curve $-1 0 20.069840763708999 7.8271582726351916 -1 0 0 I I #
vertex $-1 $321 $444 #
point $-1 10.473422434099227 16.013027362138427 3.5853331265305908 #
edge $-1 $410 21.58912400914026 $413 29.498416006706638 $326 $445 forward 7 unknown #
vertex $-1 $330 $446 #
straight-curve $-1 41.998114869062647 -20.069840763708999 38.283304793751107 0 0 1 I I #
edge $-1 $413 -26.569476060792187 $337 -4.2878015557487323 $336 $447 forward 7 unknown #
vertex $-1 $412 $448 #
straight-curve $-1 41.998114869062647 -20.069840763708989 1.1904741355987625 0 -0.76604443648966558 -0.64278761758704617 I I #
point $-1 41.998114869062647 -20.069840763708999 1.1904741355987536 #
point $-1 19.716440364019192 -12.160548766142622 7.8271582726351916 #
straight-curve $-1 0 -20.069840763708999 7.8271582726351916 1 0 0 I I #
vertex $-1 $343 $449 #
point $-1 33.357277616540919 -13.70123467452469 1.6319706542577999 #
straight-curve $-1 -49.198278756065555 20.069840763708999 0 0 0 -1 I I #
point $-1 -49.198278756065555 -20.069840763708999 -7.8271582726351916 #
straight-curve $-1 -49.198278756065555 0 -7.8271582726351916 0 1 0 I I #
point $-1 -49.198278756065555 20.069840763708999 -7.8271582726351916 #
coedge $-1 $372 $371 $364 $425 reversed $260 $-1 #
edge $-1 $426 -20.069840763708999 $428 20.069840763708999 $424 $450 forward 7 unknown #
vertex $-1 $425 $451 #
straight-curve $-1 0 -20.069840763708999 -7.8271582726351916 -1 0 0 I I #
vertex $-1 $367 $452 #
straight-curve $-1 0 20.069840763708999 -7.8271582726351916 1 0 0 I I #
point $-1 -41.99811486906264 20.069840763708999 -7.8271582726351916 #
straight-curve $-1 -49.198278756065555 20.069840763708999 0 0 0 -1 I I #
straight-curve $-1 -49.198278756065555 -20.069840763708999 0 0 0 -1 I I #
edge $-1 $393 -49.198278756065555 $384 -41.998114869062647 $382 $453 forward 7 unknown #
straight-curve $-1 41.998114869062647 -20.069840763708999 -2.7712277569020358 0 0 -1 I I #
point $-1 41.998114869062647 -20.069840763708999 -7.8271582726351916 #
straight-curve $-1 0 20.069840763708999 -7.8271582726351916 1 0 0 I I #
straight-curve $-1 49.198278756065555 0 -7.8271582726351916 0 -1 0 I I #
point $-1 49.198278756065555 -20.069840763708999 -7.8271582726351916 #
point $-1 49.198278756065555 20.069840763708999 -7.8271582726351916 #
straight-curve $-1 0.060214309737876448 33.998333045242639 7.827158272635188 0 -1 0 I I #
point $-1 0.060214309737876448 20.069840763708999 7.8271582726351916 #
straight-curve $-1 4.4867112170496135 14.980280717475638 7.8271582726351898 1 0 0 I I #
point $-1 0.060214309737876448 14.980280717475644 7.8271582726351916 #
point $-1 8.973422434099227 14.880962979371402 2.6012445973472058 #
straight-curve $-1 41.998114869062647 -41.658964772849259 7.8271582726351951 0 1 0 I I #
point $-1 41.998114869062647 -20.069840763708999 7.8271582726351916 #
straight-curve $-1 15.42863880827046 -12.160548766142623 7.8271582726351916 -1 0 0 I I #
point $-1 41.998114869062647 -12.160548766142622 7.8271582726351916 #
point $-1 30.857277616540919 -12.094265630557073 -0.28314043696636404 #
straight-curve $-1 -49.198278756065555 0 -7.8271582726351916 0 1 0 I I #
point $-1 -49.198278756065555 -20.069840763708999 -7.8271582726351916 #
point $-1 -49.198278756065555 20.069840763708999 -7.8271582726351916 #
straight-curve $-1 0 -20.069840763708999 -7.8271582726351916 -1 0 0 I I #
End-of-ACIS-data 