500 0 10 0           
7 Unknown 11 ACIS 5.0 NT 24 Fri Mar 26 19:33:04 1999 
-1 9.9999999999999995e-007 1e-010 
body $-1 $10 $-1 $11 #
body $-1 $12 $-1 $13 #
body $-1 $14 $-1 $15 #
body $-1 $16 $-1 $17 #
body $-1 $18 $-1 $19 #
body $-1 $20 $-1 $21 #
body $-1 $22 $-1 $23 #
body $-1 $24 $-1 $25 #
body $-1 $26 $-1 $27 #
body $-1 $28 $-1 $29 #
lump $-1 $-1 $30 $0 #
transform $-1 1 0 0 0 1 0 0 0 1 79.91821039460433 36.550624133229789 8.3856615492406466 1 rotate no_reflect no_shear #
lump $-1 $-1 $31 $1 #
transform $-1 1 0 0 0 1 0 0 0 1 79.91821039460433 36.550624133229789 8.3856615492406466 1 rotate no_reflect no_shear #
lump $-1 $-1 $32 $2 #
transform $-1 1 0 0 0 1 0 0 0 1 79.91821039460433 36.550624133229789 8.3856615492406466 1 rotate no_reflect no_shear #
lump $-1 $-1 $33 $3 #
transform $-1 1 0 0 0 1 0 0 0 1 79.91821039460433 36.550624133229789 8.3856615492406466 1 rotate no_reflect no_shear #
lump $-1 $-1 $34 $4 #
transform $-1 1 0 0 0 1 0 0 0 1 79.91821039460433 36.550624133229789 8.3856615492406466 1 rotate no_reflect no_shear #
lump $-1 $-1 $35 $5 #
transform $-1 1 0 0 0 1 0 0 0 1 79.91821039460433 36.550624133229789 8.3856615492406466 1 rotate no_reflect no_shear #
lump $-1 $-1 $36 $6 #
transform $-1 1 0 0 0 1 0 0 0 1 79.91821039460433 36.550624133229789 8.3856615492406466 1 rotate no_reflect no_shear #
lump $-1 $-1 $37 $7 #
transform $-1 1 0 0 0 1 0 0 0 1 79.91821039460433 36.550624133229789 8.3856615492406466 1 rotate no_reflect no_shear #
lump $-1 $-1 $38 $8 #
transform $-1 1 0 0 0 1 0 0 0 1 79.91821039460433 36.550624133229789 8.3856615492406466 1 rotate no_reflect no_shear #
lump $-1 $-1 $39 $9 #
transform $-1 1 0 0 0 1 0 0 0 1 79.91821039460433 36.550624133229789 8.3856615492406466 1 rotate no_reflect no_shear #
shell $-1 $-1 $-1 $40 $-1 $10 #
shell $-1 $-1 $-1 $41 $-1 $12 #
shell $-1 $-1 $-1 $42 $-1 $14 #
shell $-1 $-1 $-1 $43 $-1 $16 #
shell $-1 $-1 $-1 $44 $-1 $18 #
shell $-1 $-1 $-1 $45 $-1 $20 #
shell $-1 $-1 $-1 $46 $-1 $22 #
shell $-1 $-1 $-1 $47 $-1 $24 #
shell $-1 $-1 $-1 $48 $-1 $26 #
shell $-1 $-1 $-1 $49 $-1 $28 #
face $-1 $50 $51 $30 $-1 $52 forward single #
face $-1 $53 $54 $31 $-1 $55 forward single #
face $-1 $56 $57 $32 $-1 $58 reversed single #
face $-1 $59 $60 $33 $-1 $61 forward single #
face $-1 $62 $63 $34 $-1 $64 reversed single #
face $-1 $65 $66 $35 $-1 $67 forward single #
face $-1 $68 $69 $36 $-1 $70 forward single #
face $-1 $71 $72 $37 $-1 $73 reversed single #
face $-1 $74 $75 $38 $-1 $76 forward single #
face $-1 $77 $78 $39 $-1 $79 forward single #
face $-1 $80 $81 $30 $-1 $82 reversed single #
loop $-1 $-1 $83 $40 #
plane-surface $-1 0 0 8.3856615492406466 0 0 1 1 0 0 forward_v I I I I #
face $-1 $84 $85 $31 $-1 $86 reversed single #
loop $-1 $-1 $87 $41 #
plane-surface $-1 0 -32.610389435831415 1.6260721582252784 0 0 1 1 0 0 forward_v I I I I #
face $-1 $88 $89 $32 $-1 $90 reversed single #
loop $-1 $-1 $91 $42 #
plane-surface $-1 134.60292462906486 22.858579827059518 222.49845188934714 0 1 0 0.85716730853699208 0 0.51503806187062418 forward_v I I I I #
face $-1 $92 $93 $33 $-1 $94 forward single #
loop $-1 $95 $96 $43 #
cone-surface $-1 77.202341246473836 29.704601980144659 5.0875043545696146 -0.85716730853699208 0 -0.51503806187062418 0.77255709280593621 0 -1.2857509628054882 1 I I 0 1 1.5 forward I I I I #
face $-1 $97 $98 $34 $-1 $99 reversed single #
loop $-1 $-1 $100 $44 #
plane-surface $-1 -188.92638854712692 -28.670154738433034 119.47021394470582 0 1 0 -0.68199836817093118 0 0.7313536940579346 forward_v I I I I #
face $-1 $101 $102 $35 $-1 $103 forward single #
loop $-1 $104 $105 $45 #
cone-surface $-1 -75.6761545400594 -25.646731792932044 4.2724701951923905 0.68199836817093118 0 -0.7313536940579346 0.7313536940579346 0 0.68199836817093118 1 I I 0 1 1 forward I I I I #
face $-1 $106 $107 $36 $-1 $108 forward single #
loop $-1 $109 $110 $46 #
cone-surface $-1 -75.6761545400594 -21.11159737468056 4.2724701951923905 0.68199836817093118 0 -0.7313536940579346 0.7313536940579346 0 0.68199836817093118 1 I I 0 1 1 forward I I I I #
face $-1 $111 $112 $37 $-1 $113 reversed single #
loop $-1 $-1 $114 $47 #
plane-surface $-1 -188.92638854712692 25.968643823976329 119.47021394470582 0 1 0 -0.68199836817093118 0 0.7313536940579346 forward_v I I I I #
face $-1 $115 $116 $38 $-1 $117 forward single #
loop $-1 $118 $119 $48 #
cone-surface $-1 -75.6761545400594 28.992066769477319 4.2724701951923905 0.68199836817093118 0 -0.7313536940579346 0.7313536940579346 0 0.68199836817093118 1 I I 0 1 1 forward I I I I #
face $-1 $120 $121 $39 $-1 $122 forward single #
loop $-1 $123 $124 $49 #
cone-surface $-1 -75.6761545400594 33.527201187728807 4.2724701951923905 0.68199836817093118 0 -0.7313536940579346 0.7313536940579346 0 0.68199836817093118 1 I I 0 1 1 forward I I I I #
face $-1 $125 $126 $30 $-1 $127 reversed single #
loop $-1 $-1 $128 $50 #
plane-surface $-1 0 0 -8.3856615492406466 0 0 1 1 0 0 forward_v I I I I #
coedge $-1 $129 $130 $131 $132 forward $51 $-1 #
face $-1 $133 $134 $31 $-1 $135 reversed single #
loop $-1 $-1 $136 $53 #
plane-surface $-1 0 -32.610389435831415 -2.6823055443860766 0 0 1 1 0 0 forward_v I I I I #
coedge $-1 $137 $138 $139 $140 reversed $54 $-1 #
face $-1 $141 $142 $32 $-1 $143 forward single #
loop $-1 $-1 $144 $56 #
plane-surface $-1 -2.4036299850072567 29.704601980144659 140.17661150973555 0.85716730853699208 0 0.51503806187062418 0.51503806187062418 0 -0.85716730853699208 forward_v I I I I #
coedge $-1 $145 $146 $147 $148 reversed $57 $-1 #
face $-1 $-1 $149 $33 $-1 $150 forward single #
loop $-1 $151 $152 $59 #
cone-surface $-1 75.410522283323417 29.704601980144659 4.0108709402841978 -0.85716730853699208 0 -0.51503806187062418 0.3862785464029681 0 -0.64287548140274409 1 I I -0.70710678118654757 0.70710678118654757 0.75 forward I I I I #
loop $-1 $-1 $153 $43 #
coedge $-1 $96 $96 $154 $155 reversed $60 $-1 #
face $-1 $156 $157 $34 $-1 $158 reversed single #
loop $-1 $-1 $159 $62 #
plane-surface $-1 -79.918210394604316 -23.3791645838063 2.5732571555196131 -0.68199836817093118 0 0.7313536940579346 0.7313536940579346 0 0.68199836817093118 forward_v I I I I #
coedge $-1 $160 $161 $162 $163 reversed $63 $-1 #
face $-1 $-1 $164 $35 $-1 $165 forward single #
loop $-1 $166 $167 $65 #
cone-surface $-1 -74.209619733073467 -25.646731792932044 2.6998041909756747 0.68199836817093118 0 -0.7313536940579346 0.3656768470289673 0 0.34099918408546559 1 I I -0.70710678118654746 0.70710678118654746 0.5 forward I I I I #
loop $-1 $-1 $168 $45 #
coedge $-1 $105 $105 $169 $170 reversed $66 $-1 #
face $-1 $-1 $171 $36 $-1 $172 forward single #
loop $-1 $173 $174 $68 #
cone-surface $-1 -74.209619733073467 -21.11159737468056 2.6998041909756747 0.68199836817093118 0 -0.7313536940579346 0.3656768470289673 0 0.34099918408546559 1 I I -0.70710678118654746 0.70710678118654746 0.5 forward I I I I #
loop $-1 $-1 $175 $46 #
coedge $-1 $110 $110 $176 $177 reversed $69 $-1 #
face $-1 $178 $179 $37 $-1 $180 forward single #
loop $-1 $-1 $181 $71 #
plane-surface $-1 -79.918210394604316 31.259633978603063 2.5732571555196131 -0.68199836817093118 0 0.7313536940579346 0.7313536940579346 0 0.68199836817093118 forward_v I I I I #
coedge $-1 $182 $183 $184 $185 reversed $72 $-1 #
face $-1 $-1 $186 $38 $-1 $187 forward single #
loop $-1 $188 $189 $74 #
cone-surface $-1 -74.209619733073467 28.992066769477319 2.6998041909756747 0.68199836817093118 0 -0.7313536940579346 0.3656768470289673 0 0.34099918408546559 1 I I -0.70710678118654746 0.70710678118654746 0.5 forward I I I I #
loop $-1 $-1 $190 $48 #
coedge $-1 $119 $119 $191 $192 reversed $75 $-1 #
face $-1 $-1 $193 $39 $-1 $194 forward single #
loop $-1 $195 $196 $77 #
cone-surface $-1 -74.209619733073467 33.527201187728807 2.6998041909756747 0.68199836817093118 0 -0.7313536940579346 0.3656768470289673 0 0.34099918408546559 1 I I -0.70710678118654746 0.70710678118654746 0.5 forward I I I I #
loop $-1 $-1 $197 $49 #
coedge $-1 $124 $124 $198 $199 reversed $78 $-1 #
face $-1 $200 $201 $30 $-1 $202 reversed single #
loop $-1 $-1 $203 $80 #
plane-surface $-1 0 -36.550624133229789 0 0 1 0 0 0 1 forward_v I I I I #
coedge $-1 $204 $205 $206 $207 forward $81 $-1 #
coedge $-1 $208 $83 $209 $210 forward $51 $-1 #
coedge $-1 $83 $208 $211 $212 forward $51 $-1 #
coedge $-1 $213 $214 $83 $132 reversed $215 $-1 #
edge $-1 $216 -36.550624133229789 $217 36.550624133229789 $131 $218 forward 7 unknown #
face $-1 $219 $220 $31 $-1 $221 reversed single #
loop $-1 $-1 $222 $84 #
plane-surface $-1 0 -28.670154738433038 -0.5281166930803991 0 -1 0 0 0 -1 forward_v I I I I #
coedge $-1 $223 $224 $225 $226 reversed $85 $-1 #
coedge $-1 $227 $87 $228 $229 forward $54 $-1 #
coedge $-1 $87 $227 $230 $231 reversed $54 $-1 #
coedge $-1 $232 $233 $87 $140 forward $234 $-1 #
edge $-1 $235 12.36496002051733 $236 20.245429415314081 $139 $237 forward 7 unknown #
face $-1 $238 $239 $32 $-1 $240 reversed single #
loop $-1 $-1 $241 $88 #
plane-surface $-1 0 0 8.3856615492406466 0 0 1 1 0 0 forward_v I I I I #
coedge $-1 $242 $243 $244 $245 reversed $89 $-1 #
coedge $-1 $146 $91 $246 $247 reversed $57 $-1 #
coedge $-1 $91 $145 $242 $248 reversed $57 $-1 #
coedge $-1 $244 $249 $91 $148 forward $239 $-1 #
edge $-1 $250 102.86356439543292 $251 108.07916904901016 $147 $252 forward 7 unknown #
loop $-1 $-1 $154 $92 #
plane-surface $-1 -2.4036299850072567 29.704601980144659 140.17661150973555 0.85716730853699208 0 0.51503806187062418 0.51503806187062418 0 -0.85716730853699208 forward_v I I I I #
loop $-1 $-1 $253 $59 #
coedge $-1 $152 $152 $153 $254 reversed $93 $-1 #
coedge $-1 $153 $153 $152 $254 forward $95 $-1 #
coedge $-1 $154 $154 $96 $155 forward $149 $-1 #
edge $-1 $255 0 $255 6.2831853071796004 $154 $256 forward 7 unknown #
face $-1 $257 $258 $34 $-1 $259 reversed single #
loop $-1 $-1 $260 $97 #
plane-surface $-1 -188.92638854712692 -18.088174429179567 119.47021394470582 0 -1 0 0.68199836817093118 0 -0.7313536940579346 forward_v I I I I #
coedge $-1 $261 $262 $263 $264 reversed $98 $-1 #
coedge $-1 $161 $100 $265 $266 reversed $63 $-1 #
coedge $-1 $100 $160 $261 $267 reversed $63 $-1 #
coedge $-1 $263 $268 $100 $163 forward $269 $-1 #
edge $-1 $270 14.54498387895913 $271 20.778024342248088 $162 $272 forward 7 unknown #
loop $-1 $-1 $169 $101 #
plane-surface $-1 -79.918210394604316 -23.3791645838063 2.5732571555196131 -0.68199836817093118 0 0.7313536940579346 0.7313536940579346 0 0.68199836817093118 forward_v I I I I #
loop $-1 $-1 $273 $65 #
coedge $-1 $167 $167 $168 $274 reversed $102 $-1 #
coedge $-1 $168 $168 $167 $274 forward $104 $-1 #
coedge $-1 $169 $169 $105 $170 forward $164 $-1 #
edge $-1 $275 0 $275 6.2831853071796004 $169 $276 forward 7 unknown #
loop $-1 $-1 $176 $106 #
plane-surface $-1 -79.918210394604316 -23.3791645838063 2.5732571555196131 -0.68199836817093118 0 0.7313536940579346 0.7313536940579346 0 0.68199836817093118 forward_v I I I I #
loop $-1 $-1 $277 $68 #
coedge $-1 $174 $174 $175 $278 reversed $107 $-1 #
coedge $-1 $175 $175 $174 $278 forward $109 $-1 #
coedge $-1 $176 $176 $110 $177 forward $171 $-1 #
edge $-1 $279 0 $279 6.2831853071796004 $176 $280 forward 7 unknown #
face $-1 $281 $282 $37 $-1 $283 reversed single #
loop $-1 $-1 $184 $111 #
plane-surface $-1 0 0 8.3856615492406466 0 0 1 1 0 0 forward_v I I I I #
coedge $-1 $284 $285 $286 $287 reversed $112 $-1 #
coedge $-1 $183 $114 $288 $289 reversed $72 $-1 #
coedge $-1 $114 $182 $284 $290 reversed $72 $-1 #
coedge $-1 $286 $291 $114 $185 forward $179 $-1 #
edge $-1 $292 14.54498387895913 $293 20.778024342248088 $184 $294 forward 7 unknown #
loop $-1 $-1 $191 $115 #
plane-surface $-1 -79.918210394604316 31.259633978603063 2.5732571555196131 -0.68199836817093118 0 0.7313536940579346 0.7313536940579346 0 0.68199836817093118 forward_v I I I I #
loop $-1 $-1 $295 $74 #
coedge $-1 $189 $189 $190 $296 reversed $116 $-1 #
coedge $-1 $190 $190 $189 $296 forward $118 $-1 #
coedge $-1 $191 $191 $119 $192 forward $186 $-1 #
edge $-1 $297 0 $297 6.2831853071796004 $191 $298 forward 7 unknown #
loop $-1 $-1 $198 $120 #
plane-surface $-1 -79.918210394604316 31.259633978603063 2.5732571555196131 -0.68199836817093118 0 0.7313536940579346 0.7313536940579346 0 0.68199836817093118 forward_v I I I I #
loop $-1 $-1 $299 $77 #
coedge $-1 $196 $196 $197 $300 reversed $121 $-1 #
coedge $-1 $197 $197 $196 $300 forward $123 $-1 #
coedge $-1 $198 $198 $124 $199 forward $193 $-1 #
edge $-1 $301 0 $301 6.2831853071796004 $198 $302 forward 7 unknown #
face $-1 $303 $304 $30 $-1 $305 reversed single #
loop $-1 $-1 $306 $125 #
plane-surface $-1 -79.91821039460433 0 0 1 0 0 0 0 -1 forward_v I I I I #
coedge $-1 $307 $211 $308 $309 forward $126 $-1 #
coedge $-1 $310 $128 $307 $311 forward $81 $-1 #
coedge $-1 $128 $310 $312 $313 forward $81 $-1 #
coedge $-1 $214 $213 $128 $207 reversed $215 $-1 #
edge $-1 $314 -36.550624133229789 $315 36.550624133229789 $206 $316 forward 7 unknown #
coedge $-1 $130 $129 $317 $318 forward $51 $-1 #
coedge $-1 $319 $320 $129 $210 reversed $304 $-1 #
edge $-1 $217 -79.91821039460433 $321 79.91821039460433 $209 $322 forward 7 unknown #
coedge $-1 $203 $323 $130 $212 reversed $126 $-1 #
edge $-1 $324 -79.91821039460433 $216 79.91821039460433 $211 $325 forward 7 unknown #
coedge $-1 $206 $131 $323 $326 forward $215 $-1 #
coedge $-1 $131 $206 $319 $327 reversed $215 $-1 #
loop $-1 $-1 $213 $303 #
vertex $-1 $132 $328 #
vertex $-1 $132 $329 #
straight-curve $-1 79.91821039460433 0 8.3856615492406466 0 1 0 I I #
face $-1 $330 $331 $31 $-1 $332 reversed single #
loop $-1 $-1 $333 $133 #
plane-surface $-1 -79.91821039460433 0 0 1 0 0 0 0 -1 forward_v I I I I #
coedge $-1 $334 $228 $233 $335 reversed $134 $-1 #
coedge $-1 $336 $136 $337 $338 reversed $85 $-1 #
coedge $-1 $136 $336 $334 $339 forward $85 $-1 #
coedge $-1 $233 $232 $136 $226 forward $234 $-1 #
edge $-1 $340 -20.245429415314081 $341 -12.36496002051733 $225 $342 forward 7 unknown #
coedge $-1 $138 $137 $333 $343 reversed $54 $-1 #
coedge $-1 $222 $344 $137 $229 reversed $134 $-1 #
edge $-1 $235 -79.91821039460433 $345 79.91821039460433 $228 $346 forward 7 unknown #
coedge $-1 $347 $348 $138 $231 forward $331 $-1 #
edge $-1 $236 -79.91821039460433 $349 79.91821039460433 $230 $350 forward 7 unknown #
coedge $-1 $225 $139 $348 $351 forward $234 $-1 #
coedge $-1 $139 $225 $222 $335 forward $234 $-1 #
loop $-1 $-1 $139 $330 #
vertex $-1 $140 $352 #
vertex $-1 $351 $353 #
straight-curve $-1 79.91821039460433 -16.305194717915708 1.6260721582252784 0 -1 0 I I #
face $-1 $-1 $354 $32 $-1 $355 reversed single #
loop $-1 $-1 $147 $141 #
plane-surface $-1 79.91821039460433 0 0 -1 0 0 0 0 1 forward_v I I I I #
coedge $-1 $246 $356 $357 $358 forward $142 $-1 #
coedge $-1 $357 $144 $146 $248 forward $89 $-1 #
coedge $-1 $144 $357 $359 $360 reversed $89 $-1 #
coedge $-1 $361 $147 $144 $245 forward $239 $-1 #
edge $-1 $251 8.0062788369871889 $362 21.698323143157474 $244 $363 forward 7 unknown #
coedge $-1 $364 $241 $145 $247 forward $142 $-1 #
edge $-1 $365 9.4828967473062278 $250 12.616748080071901 $246 $366 forward 7 unknown #
edge $-1 $251 -159.83642078920872 $365 -153.75172226929061 $146 $367 forward 7 unknown #
coedge $-1 $147 $361 $364 $368 reversed $239 $-1 #
vertex $-1 $368 $369 #
vertex $-1 $148 $370 #
straight-curve $-1 79.91821039460433 22.858579827059518 111.24922594467357 0 0 -1 I I #
coedge $-1 $253 $253 $-1 $371 reversed $151 $-1 #
edge $-1 $372 0 $372 6.2831853071796004 $152 $373 forward 7 unknown #
vertex $-1 $155 $374 #
ellipse-curve $-1 78.351284728221486 29.704601980144659 5.7778592224520482 0.85716730853699208 0 0.51503806187062418 0.77255709280593621 0 -1.2857509628054882 1 I I #
face $-1 $-1 $269 $34 $-1 $375 forward single #
loop $-1 $-1 $376 $156 #
plane-surface $-1 -79.91821039460433 0 0 1 0 0 0 0 -1 forward_v I I I I #
coedge $-1 $377 $378 $379 $380 reversed $157 $-1 #
coedge $-1 $381 $159 $161 $267 forward $98 $-1 #
coedge $-1 $159 $381 $377 $382 forward $98 $-1 #
coedge $-1 $379 $162 $159 $264 forward $269 $-1 #
edge $-1 $271 -16.980572446529884 $383 -6.3985921372764167 $263 $384 forward 7 unknown #
coedge $-1 $385 $386 $160 $266 forward $258 $-1 #
edge $-1 $387 -57.16184981683331 $270 -51.349445423112265 $265 $388 forward 7 unknown #
edge $-1 $271 -8.5226074797062434 $387 1.9479204584885432e-014 $161 $389 forward 7 unknown #
coedge $-1 $162 $379 $385 $390 forward $269 $-1 #
loop $-1 $-1 $379 $257 #
vertex $-1 $266 $391 #
vertex $-1 $163 $392 #
straight-curve $-1 -94.46319427356346 -28.670154738433034 8.3856615492406448 1 0 0 I I #
coedge $-1 $273 $273 $-1 $393 reversed $166 $-1 #
edge $-1 $394 0 $394 6.2831853071796004 $167 $395 forward 7 unknown #
vertex $-1 $170 $396 #
ellipse-curve $-1 -76.801690162959844 -25.646731792932044 5.4794593523801236 -0.68199836817093118 0 0.7313536940579346 0.7313536940579346 0 0.68199836817093118 1 I I #
coedge $-1 $277 $277 $-1 $397 reversed $173 $-1 #
edge $-1 $398 0 $398 6.2831853071796004 $174 $399 forward 7 unknown #
vertex $-1 $177 $400 #
ellipse-curve $-1 -76.801690162959844 -21.11159737468056 5.4794593523801236 -0.68199836817093118 0 0.7313536940579346 0.7313536940579346 0 0.68199836817093118 1 I I #
face $-1 $-1 $401 $37 $-1 $402 reversed single #
loop $-1 $-1 $403 $178 #
plane-surface $-1 0 36.550624133229789 0 0 -1 0 0 0 -1 forward_v I I I I #
coedge $-1 $404 $181 $183 $290 forward $112 $-1 #
coedge $-1 $181 $404 $403 $405 reversed $112 $-1 #
coedge $-1 $406 $184 $181 $287 forward $179 $-1 #
edge $-1 $293 10.338826834674798 $407 20.920807143928265 $286 $408 forward 7 unknown #
coedge $-1 $409 $410 $182 $289 forward $401 $-1 #
edge $-1 $411 -57.16184981683331 $292 -51.349445423112265 $288 $412 forward 7 unknown #
edge $-1 $293 -8.5226074797062434 $411 1.9479204584885432e-014 $183 $413 forward 7 unknown #
coedge $-1 $184 $406 $409 $414 forward $179 $-1 #
vertex $-1 $289 $415 #
vertex $-1 $185 $416 #
straight-curve $-1 -94.46319427356346 25.968643823976329 8.3856615492406448 1 0 0 I I #
coedge $-1 $295 $295 $-1 $417 reversed $188 $-1 #
edge $-1 $418 0 $418 6.2831853071796004 $189 $419 forward 7 unknown #
vertex $-1 $192 $420 #
ellipse-curve $-1 -76.801690162959844 28.992066769477319 5.4794593523801236 -0.68199836817093118 0 0.7313536940579346 0.7313536940579346 0 0.68199836817093118 1 I I #
coedge $-1 $299 $299 $-1 $421 reversed $195 $-1 #
edge $-1 $422 0 $422 6.2831853071796004 $196 $423 forward 7 unknown #
vertex $-1 $199 $424 #
ellipse-curve $-1 -76.801690162959844 33.527201187728807 5.4794593523801236 -0.68199836817093118 0 0.7313536940579346 0.7313536940579346 0 0.68199836817093118 1 I I #
face $-1 $-1 $215 $30 $-1 $425 reversed single #
loop $-1 $-1 $319 $200 #
plane-surface $-1 0 36.550624133229789 0 0 -1 0 0 0 -1 forward_v I I I I #
coedge $-1 $426 $317 $320 $427 forward $201 $-1 #
coedge $-1 $323 $203 $204 $311 reversed $126 $-1 #
coedge $-1 $317 $426 $203 $309 reversed $201 $-1 #
edge $-1 $324 -8.3856615492406466 $428 8.3856615492406466 $308 $429 forward 7 unknown #
coedge $-1 $205 $204 $426 $430 forward $81 $-1 #
edge $-1 $315 -79.91821039460433 $428 79.91821039460433 $307 $431 forward 7 unknown #
coedge $-1 $320 $319 $205 $313 reversed $304 $-1 #
edge $-1 $432 -79.91821039460433 $314 79.91821039460433 $312 $433 forward 7 unknown #
vertex $-1 $207 $434 #
vertex $-1 $326 $435 #
straight-curve $-1 79.91821039460433 0 -8.3856615492406466 0 -1 0 I I #
coedge $-1 $306 $308 $208 $318 reversed $201 $-1 #
edge $-1 $321 -36.550624133229789 $324 36.550624133229789 $317 $436 forward 7 unknown #
coedge $-1 $312 $209 $214 $327 forward $304 $-1 #
coedge $-1 $209 $312 $306 $427 reversed $304 $-1 #
vertex $-1 $210 $437 #
straight-curve $-1 0 36.550624133229789 8.3856615492406466 -1 0 0 I I #
coedge $-1 $211 $307 $213 $326 reversed $126 $-1 #
vertex $-1 $318 $438 #
straight-curve $-1 0 -36.550624133229789 8.3856615492406466 1 0 0 I I #
edge $-1 $216 -8.3856615492406466 $315 8.3856615492406466 $213 $439 forward 7 unknown #
edge $-1 $217 -8.3856615492406466 $314 8.3856615492406466 $214 $440 forward 7 unknown #
point $-1 79.91821039460433 -36.550624133229789 8.3856615492406466 #
point $-1 79.91821039460433 36.550624133229789 8.3856615492406466 #
face $-1 $-1 $234 $31 $-1 $441 reversed single #
loop $-1 $-1 $230 $219 #
plane-surface $-1 0 -36.550624133229789 0 0 1 0 0 0 1 forward_v I I I I #
coedge $-1 $442 $443 $227 $343 forward $220 $-1 #
coedge $-1 $344 $222 $224 $339 reversed $134 $-1 #
edge $-1 $341 -2.4182471978458771 $235 1.8901305047654779 $233 $444 forward 7 unknown #
coedge $-1 $224 $223 $445 $446 reversed $85 $-1 #
coedge $-1 $348 $347 $223 $338 forward $331 $-1 #
edge $-1 $447 -79.91821039460433 $340 79.91821039460433 $337 $448 forward 7 unknown #
edge $-1 $449 -79.91821039460433 $341 79.91821039460433 $334 $450 forward 7 unknown #
vertex $-1 $338 $451 #
vertex $-1 $226 $452 #
straight-curve $-1 79.91821039460433 -16.305194717915708 -2.6823055443860766 0 1 0 I I #
edge $-1 $349 -20.245429415314081 $345 -12.36496002051733 $333 $453 forward 7 unknown #
coedge $-1 $228 $334 $442 $454 reversed $134 $-1 #
vertex $-1 $343 $455 #
straight-curve $-1 0 -28.670154738433038 1.6260721582252784 -1 0 0 I I #
coedge $-1 $337 $230 $443 $456 forward $331 $-1 #
coedge $-1 $230 $337 $232 $351 reversed $331 $-1 #
vertex $-1 $456 $457 #
straight-curve $-1 0 -36.550624133229789 1.6260721582252784 -1 0 0 I I #
edge $-1 $236 -1.6260721582252784 $340 2.6823055443860766 $232 $458 forward 7 unknown #
point $-1 79.91821039460433 -28.670154738433038 1.6260721582252784 #
point $-1 79.91821039460433 -36.550624133229789 1.6260721582252784 #
loop $-1 $-1 $359 $238 #
plane-surface $-1 0 36.550624133229789 0 0 -1 0 0 0 -1 forward_v I I I I #
coedge $-1 $241 $364 $459 $460 forward $142 $-1 #
coedge $-1 $243 $242 $241 $358 reversed $89 $-1 #
edge $-1 $461 -21.698323143157474 $365 -8.0062788369871889 $241 $462 forward 7 unknown #
coedge $-1 $459 $463 $243 $360 forward $354 $-1 #
edge $-1 $362 -99.14003592092476 $461 -93.055337401006653 $359 $464 forward 7 unknown #
coedge $-1 $249 $244 $463 $465 reversed $239 $-1 #
vertex $-1 $360 $466 #
straight-curve $-1 79.91821039460433 14.85230099007233 3.1700568956634072 0 1 0 I I #
coedge $-1 $356 $246 $249 $368 forward $142 $-1 #
vertex $-1 $247 $467 #
straight-curve $-1 67.301462314532429 22.858579827059518 8.3856615492406519 1 0 0 I I #
straight-curve $-1 -2.4036299850072567 22.858579827059518 140.17661150973555 -0.51503806187062418 0 0.85716730853699208 I I #
edge $-1 $250 22.858579827059518 $468 36.550624133229789 $249 $469 forward 7 unknown #
point $-1 79.91821039460433 22.858579827059518 8.3856615492406466 #
point $-1 79.91821039460433 22.858579827059518 3.1700568956634072 #
edge $-1 $470 1 $470 0 $253 $-1 forward 7 unknown #
vertex $-1 $254 $471 #
ellipse-curve $-1 76.053397764726157 29.704601980144659 4.3971494866871659 0.85716730853699208 0 0.51503806187062418 0.77255709280593621 0 -1.2857509628054882 1 I I #
point $-1 79.123841821027455 29.704601980144659 4.4921082596465762 #
plane-surface $-1 0 0 8.3856615492406466 0 0 1 1 0 0 forward_v I I I I #
coedge $-1 $386 $385 $378 $472 forward $258 $-1 #
coedge $-1 $378 $260 $262 $382 reversed $157 $-1 #
coedge $-1 $260 $377 $376 $472 reversed $157 $-1 #
coedge $-1 $268 $263 $260 $380 forward $269 $-1 #
edge $-1 $383 -20.778024342248088 $473 -14.54498387895913 $379 $474 forward 7 unknown #
coedge $-1 $262 $261 $386 $475 reversed $98 $-1 #
edge $-1 $476 -1.9479204584885432e-014 $383 8.5226074797062434 $377 $477 forward 7 unknown #
vertex $-1 $264 $478 #
straight-curve $-1 -73.685169931315357 -11.68958229190315 8.3856615492406466 0 1 0 I I #
coedge $-1 $376 $265 $268 $390 reversed $258 $-1 #
coedge $-1 $265 $376 $381 $475 forward $258 $-1 #
vertex $-1 $266 $479 #
straight-curve $-1 -79.91821039460433 -28.670154738433034 59.735106972352909 0 0 1 I I #
straight-curve $-1 -79.918210394604316 -28.670154738433034 2.5732571555196131 -0.7313536940579346 0 -0.68199836817093118 I I #
edge $-1 $473 18.088174429179567 $270 28.670154738433034 $385 $480 forward 7 unknown #
point $-1 -79.91821039460433 -28.670154738433034 8.3856615492406466 #
point $-1 -73.685169931315372 -28.670154738433034 8.3856615492406448 #
edge $-1 $481 1 $481 0 $273 $-1 forward 7 unknown #
vertex $-1 $274 $482 #
ellipse-curve $-1 -74.550618917158928 -25.646731792932044 3.0654810380046422 -0.68199836817093118 0 0.7313536940579346 0.7313536940579346 0 0.68199836817093118 1 I I #
point $-1 -76.070336468901928 -25.646731792932044 6.1614577205510699 #
edge $-1 $483 1 $483 0 $277 $-1 forward 7 unknown #
vertex $-1 $278 $484 #
ellipse-curve $-1 -74.550618917158928 -21.11159737468056 3.0654810380046422 -0.68199836817093118 0 0.7313536940579346 0.7313536940579346 0 0.68199836817093118 1 I I #
point $-1 -76.070336468901928 -21.11159737468056 6.1614577205510699 #
loop $-1 $-1 $288 $281 #
plane-surface $-1 -79.91821039460433 0 0 1 0 0 0 0 -1 forward_v I I I I #
coedge $-1 $485 $486 $285 $405 forward $282 $-1 #
coedge $-1 $285 $284 $410 $487 reversed $112 $-1 #
edge $-1 $407 19.824153127116027 $488 28.346760606822293 $403 $489 forward 7 unknown #
coedge $-1 $291 $286 $486 $490 forward $179 $-1 #
vertex $-1 $490 $491 #
straight-curve $-1 -73.685169931315357 15.629816989301531 8.3856615492406466 0 1 0 I I #
coedge $-1 $492 $288 $291 $414 reversed $401 $-1 #
coedge $-1 $288 $492 $404 $487 forward $401 $-1 #
vertex $-1 $289 $493 #
straight-curve $-1 -79.91821039460433 25.968643823976329 59.735106972352909 0 0 1 I I #
straight-curve $-1 -79.918210394604316 25.968643823976329 2.5732571555196131 -0.7313536940579346 0 -0.68199836817093118 I I #
edge $-1 $494 -36.550624133229789 $292 -25.968643823976329 $409 $495 forward 7 unknown #
point $-1 -79.91821039460433 25.968643823976329 8.3856615492406466 #
point $-1 -73.685169931315372 25.968643823976329 8.3856615492406448 #
edge $-1 $496 1 $496 0 $295 $-1 forward 7 unknown #
vertex $-1 $296 $497 #
ellipse-curve $-1 -74.550618917158928 28.992066769477319 3.0654810380046422 -0.68199836817093118 0 0.7313536940579346 0.7313536940579346 0 0.68199836817093118 1 I I #
point $-1 -76.070336468901928 28.992066769477319 6.1614577205510699 #
edge $-1 $498 1 $498 0 $299 $-1 forward 7 unknown #
vertex $-1 $300 $499 #
ellipse-curve $-1 -74.550618917158928 33.527201187728807 3.0654810380046422 -0.68199836817093118 0 0.7313536940579346 0.7313536940579346 0 0.68199836817093118 1 I I #
point $-1 -76.070336468901928 33.527201187728807 6.1614577205510699 #
plane-surface $-1 79.91821039460433 0 0 -1 0 0 0 0 1 forward_v I I I I #
coedge $-1 $308 $306 $310 $430 reversed $201 $-1 #
edge $-1 $321 -8.3856615492406466 $432 8.3856615492406466 $320 $500 forward 7 unknown #
vertex $-1 $430 $501 #
straight-curve $-1 -79.91821039460433 -36.550624133229789 0 0 0 -1 I I #
edge $-1 $428 -36.550624133229789 $432 36.550624133229789 $426 $502 forward 7 unknown #
straight-curve $-1 0 -36.550624133229789 -8.3856615492406466 -1 0 0 I I #
vertex $-1 $313 $503 #
straight-curve $-1 0 36.550624133229789 -8.3856615492406466 1 0 0 I I #
point $-1 79.91821039460433 36.550624133229789 -8.3856615492406466 #
point $-1 79.91821039460433 -36.550624133229789 -8.3856615492406466 #
straight-curve $-1 -79.91821039460433 0 8.3856615492406466 0 -1 0 I I #
point $-1 -79.91821039460433 36.550624133229789 8.3856615492406466 #
point $-1 -79.91821039460433 -36.550624133229789 8.3856615492406466 #
straight-curve $-1 79.91821039460433 -36.550624133229789 0 0 0 -1 I I #
straight-curve $-1 79.91821039460433 36.550624133229789 0 0 0 -1 I I #
plane-surface $-1 79.91821039460433 0 0 -1 0 0 0 0 1 forward_v I I I I #
coedge $-1 $445 $333 $344 $454 forward $220 $-1 #
coedge $-1 $333 $445 $347 $456 reversed $220 $-1 #
straight-curve $-1 79.91821039460433 -28.670154738433038 -0.26405834654019955 0 0 1 I I #
coedge $-1 $443 $442 $336 $446 forward $220 $-1 #
edge $-1 $449 12.36496002051733 $447 20.245429415314081 $445 $504 forward 7 unknown #
vertex $-1 $338 $505 #
straight-curve $-1 0 -36.550624133229789 -2.6823055443860766 1 0 0 I I #
vertex $-1 $446 $506 #
straight-curve $-1 0 -28.670154738433038 -2.6823055443860766 1 0 0 I I #
point $-1 79.91821039460433 -36.550624133229789 -2.6823055443860766 #
point $-1 79.91821039460433 -28.670154738433038 -2.6823055443860766 #
straight-curve $-1 -79.91821039460433 -16.305194717915708 1.6260721582252784 0 1 0 I I #
edge $-1 $345 -1.8901305047654779 $449 2.4182471978458771 $442 $507 forward 7 unknown #
point $-1 -79.91821039460433 -28.670154738433038 1.6260721582252784 #
edge $-1 $349 -1.6260721582252784 $447 2.6823055443860766 $443 $508 forward 7 unknown #
point $-1 -79.91821039460433 -36.550624133229789 1.6260721582252784 #
straight-curve $-1 79.91821039460433 -36.550624133229789 0 0 0 -1 I I #
coedge $-1 $463 $359 $356 $460 reversed $354 $-1 #
edge $-1 $468 -79.91821039460433 $461 -76.784359061838657 $459 $509 forward 7 unknown #
vertex $-1 $360 $510 #
straight-curve $-1 76.784359061838643 14.85230099007233 8.3856615492406519 0 -1 0 I I #
coedge $-1 $359 $459 $361 $465 forward $354 $-1 #
straight-curve $-1 28.857318440107171 36.550624133229789 88.149654654263202 -0.51503806187062429 0 0.85716730853699219 I I #
edge $-1 $468 -8.3856615492406466 $362 -3.1700568956634072 $361 $511 forward 7 unknown #
point $-1 79.91821039460433 36.550624133229803 3.1700568956634072 #
point $-1 76.784359061838657 22.858579827059518 8.3856615492406377 #
vertex $-1 $368 $512 #
straight-curve $-1 79.91821039460433 0 8.3856615492406466 0 1 0 I I #
vertex $-1 $371 $513 #
point $-1 76.825954857532096 29.704601980144659 3.1113985238816779 #
edge $-1 $473 51.349445423112265 $476 57.16184981683331 $376 $514 forward 7 unknown #
vertex $-1 $390 $515 #
straight-curve $-1 -94.46319427356346 -18.088174429179567 8.3856615492406448 -1 0 0 I I #
edge $-1 $476 6.3985921372764167 $387 16.980572446529884 $386 $516 forward 7 unknown #
vertex $-1 $475 $517 #
straight-curve $-1 -79.918210394604316 -18.088174429179567 2.5732571555196131 0.7313536940579346 0 0.68199836817093118 I I #
point $-1 -73.685169931315372 -18.088174429179567 8.3856615492406448 #
point $-1 -79.91821039460433 -28.670154738433034 2.5732571555195998 #
straight-curve $-1 -79.91821039460433 0 8.3856615492406466 0 -1 0 I I #
vertex $-1 $393 $518 #
point $-1 -73.819265223100999 -25.646731792932044 3.7474794061755734 #
vertex $-1 $397 $519 #
point $-1 -73.819265223100999 -21.11159737468056 3.7474794061755734 #
coedge $-1 $486 $403 $492 $520 reversed $282 $-1 #
coedge $-1 $403 $485 $406 $490 reversed $282 $-1 #
edge $-1 $488 -20.920807143928265 $411 -10.338826834674798 $410 $521 forward 7 unknown #
vertex $-1 $405 $522 #
straight-curve $-1 -59.18670231022891 36.550624133229789 21.905701632304439 -0.7313536940579346 0 -0.68199836817093118 I I #
edge $-1 $407 73.685169931315372 $494 79.91821039460433 $486 $523 forward 7 unknown #
point $-1 -73.685169931315372 36.550624133229796 8.3856615492406448 #
coedge $-1 $410 $409 $485 $520 forward $401 $-1 #
point $-1 -79.91821039460433 25.968643823976329 2.5732571555195998 #
vertex $-1 $490 $524 #
straight-curve $-1 -79.91821039460433 0 8.3856615492406466 0 -1 0 I I #
vertex $-1 $417 $525 #
point $-1 -73.819265223100999 28.992066769477319 3.7474794061755734 #
vertex $-1 $421 $526 #
point $-1 -73.819265223100999 33.527201187728807 3.7474794061755734 #
straight-curve $-1 -79.91821039460433 36.550624133229789 0 0 0 -1 I I #
point $-1 -79.91821039460433 -36.550624133229789 -8.3856615492406466 #
straight-curve $-1 -79.91821039460433 0 -8.3856615492406466 0 1 0 I I #
point $-1 -79.91821039460433 36.550624133229789 -8.3856615492406466 #
straight-curve $-1 -79.91821039460433 -16.305194717915708 -2.6823055443860766 0 -1 0 I I #
point $-1 -79.91821039460433 -36.550624133229789 -2.6823055443860766 #
point $-1 -79.91821039460433 -28.670154738433038 -2.6823055443860766 #
straight-curve $-1 -79.91821039460433 -28.670154738433038 -0.26405834654019955 0 0 -1 I I #
straight-curve $-1 -79.91821039460433 -36.550624133229789 0 0 0 -1 I I #
straight-curve $-1 0 36.550624133229789 8.3856615492406466 -1 0 0 I I #
point $-1 76.784359061838657 36.550624133229803 8.3856615492406377 #
straight-curve $-1 79.91821039460433 36.550624133229789 0 0 0 -1 I I #
point $-1 79.91821039460433 36.550624133229789 8.3856615492406466 #
point $-1 74.767646801920677 29.704601980144659 3.6245923938812297 #
straight-curve $-1 -79.91821039460433 -18.088174429179567 59.735106972352909 0 0 -1 I I #
point $-1 -79.91821039460433 -18.088174429179567 8.3856615492406466 #
straight-curve $-1 -79.91821039460433 -11.68958229190315 2.5732571555196078 0 -1 0 I I #
point $-1 -79.91821039460433 -18.088174429179567 2.5732571555195998 #
point $-1 -73.868620548988005 -25.646731792932044 2.3341273439467072 #
point $-1 -73.868620548988005 -21.11159737468056 2.3341273439467072 #
edge $-1 $494 -8.3856615492406466 $488 -2.5732571555195998 $485 $527 forward 7 unknown #
straight-curve $-1 -79.91821039460433 15.629816989301531 2.5732571555196078 0 -1 0 I I #
point $-1 -79.91821039460433 36.550624133229796 2.5732571555195998 #
straight-curve $-1 0 36.550624133229789 8.3856615492406466 -1 0 0 I I #
point $-1 -79.91821039460433 36.550624133229789 8.3856615492406466 #
point $-1 -73.868620548988005 28.992066769477319 2.3341273439467072 #
point $-1 -73.868620548988005 33.527201187728807 2.3341273439467072 #
straight-curve $-1 -79.91821039460433 36.550624133229789 0 0 0 -1 I I #
End-of-ACIS-data 