500 0 5 0           
7 Unknown 11 ACIS 5.0 NT 24 Thu Mar 25 16:18:15 1999 
-1 9.9999999999999995e-007 1e-010 
body $-1 $5 $-1 $6 #
body $-1 $7 $-1 $8 #
body $-1 $9 $-1 $10 #
body $-1 $11 $-1 $12 #
body $-1 $13 $-1 $14 #
lump $-1 $-1 $15 $0 #
transform $-1 1 0 0 0 1 0 0 0 1 72.686544389172042 48.719749660039298 19.657995977822551 1 rotate no_reflect no_shear #
lump $-1 $-1 $16 $1 #
transform $-1 1 0 0 0 1 0 0 0 1 72.686544389172042 48.719749660039298 19.657995977822551 1 rotate no_reflect no_shear #
lump $-1 $-1 $17 $2 #
transform $-1 1 0 0 0 1 0 0 0 1 72.686544389172042 48.719749660039298 19.657995977822551 1 rotate no_reflect no_shear #
lump $-1 $-1 $18 $3 #
transform $-1 1 0 0 0 1 0 0 0 1 72.686544389172042 48.719749660039298 19.657995977822551 1 rotate no_reflect no_shear #
lump $-1 $-1 $19 $4 #
transform $-1 1 0 0 0 1 0 0 0 1 72.686544389172042 48.719749660039298 19.657995977822551 1 rotate no_reflect no_shear #
shell $-1 $-1 $-1 $20 $-1 $5 #
shell $-1 $-1 $-1 $21 $-1 $7 #
shell $-1 $-1 $-1 $22 $-1 $9 #
shell $-1 $-1 $-1 $23 $-1 $11 #
shell $-1 $-1 $-1 $24 $-1 $13 #
face $-1 $25 $26 $15 $-1 $27 forward single #
face $-1 $28 $29 $16 $-1 $30 forward single #
face $-1 $31 $32 $17 $-1 $33 reversed single #
face $-1 $34 $35 $18 $-1 $36 forward single #
face $-1 $37 $38 $19 $-1 $39 forward single #
face $-1 $40 $41 $15 $-1 $42 reversed single #
loop $-1 $-1 $43 $20 #
plane-surface $-1 0 0 19.657995977822551 0 0 1 1 0 0 forward_v I I I I #
face $-1 $44 $45 $16 $-1 $46 reversed single #
loop $-1 $-1 $47 $21 #
plane-surface $-1 -72.686544389172042 0 0 1 0 0 0 0 -1 forward_v I I I I #
face $-1 $48 $49 $17 $-1 $50 reversed single #
loop $-1 $-1 $51 $22 #
plane-surface $-1 19.99114352955646 61.436988389830034 182.15164281174981 1 0 0 0 -0.61566148304635926 -0.78801074757464917 forward_v I I I I #
face $-1 $52 $53 $18 $-1 $54 forward single #
loop $-1 $55 $56 $23 #
cone-surface $-1 30.151788136163944 40.317853754054553 12.750047724510063 0 -0.61566148304635926 -0.78801074757464917 1.5 0 0 1 I I 0 1 1.5 forward I I I I #
face $-1 $57 $58 $19 $-1 $59 forward single #
loop $-1 $60 $61 $24 #
cone-surface $-1 45.39275504607518 40.317853754054553 12.750047724510063 0 -0.61566148304635926 -0.78801074757464917 1.5 0 0 1 I I 0 1 1.5 forward I I I I #
face $-1 $62 $63 $15 $-1 $64 reversed single #
loop $-1 $-1 $65 $25 #
plane-surface $-1 0 0 -19.657995977822551 0 0 1 1 0 0 forward_v I I I I #
coedge $-1 $66 $67 $68 $69 forward $26 $-1 #
face $-1 $70 $71 $16 $-1 $72 forward single #
loop $-1 $-1 $73 $28 #
plane-surface $-1 0 48.719749660039298 0 0 -1 0 0 0 -1 forward_v I I I I #
coedge $-1 $74 $75 $76 $77 forward $29 $-1 #
face $-1 $78 $79 $17 $-1 $80 reversed single #
loop $-1 $-1 $81 $31 #
plane-surface $-1 37.772271591119562 -28.063623042475328 67.596086446291039 0 0.61566148304635926 0.78801074757464917 1 0 0 forward_v I I I I #
coedge $-1 $82 $83 $84 $85 reversed $32 $-1 #
face $-1 $-1 $86 $18 $-1 $87 forward single #
loop $-1 $88 $89 $34 #
cone-surface $-1 30.151788136163944 39.166919827398274 11.276919505629515 0 -0.61566148304635926 -0.78801074757464917 0.75 0 0 1 I I -0.70710678118654757 0.70710678118654757 0.75 forward I I I I #
loop $-1 $-1 $90 $23 #
coedge $-1 $56 $56 $91 $92 reversed $35 $-1 #
face $-1 $-1 $93 $19 $-1 $94 forward single #
loop $-1 $95 $96 $37 #
cone-surface $-1 45.39275504607518 39.166919827398274 11.276919505629515 0 -0.61566148304635926 -0.78801074757464917 0.75 0 0 1 I I -0.70710678118654757 0.70710678118654757 0.75 forward I I I I #
loop $-1 $-1 $97 $24 #
coedge $-1 $61 $61 $98 $99 reversed $38 $-1 #
face $-1 $100 $101 $15 $-1 $102 reversed single #
loop $-1 $-1 $103 $40 #
plane-surface $-1 0 -48.719749660039298 0 0 1 0 0 0 1 forward_v I I I I #
coedge $-1 $104 $105 $106 $107 forward $41 $-1 #
coedge $-1 $108 $43 $109 $110 forward $26 $-1 #
coedge $-1 $43 $108 $111 $112 forward $26 $-1 #
coedge $-1 $113 $114 $43 $69 reversed $115 $-1 #
edge $-1 $116 -48.719749660039298 $117 48.719749660039298 $68 $118 forward 7 unknown #
face $-1 $119 $120 $16 $-1 $121 reversed single #
loop $-1 $-1 $76 $44 #
plane-surface $-1 -81.569610434417058 0 16.635678445433136 0 0 1 1 0 0 forward_v I I I I #
coedge $-1 $122 $123 $75 $124 forward $45 $-1 #
coedge $-1 $125 $47 $126 $127 reversed $29 $-1 #
coedge $-1 $47 $125 $73 $124 reversed $29 $-1 #
coedge $-1 $128 $129 $47 $77 reversed $71 $-1 #
edge $-1 $130 -48.719749660039298 $131 48.719749660039298 $76 $132 forward 7 unknown #
face $-1 $133 $134 $17 $-1 $135 forward single #
loop $-1 $-1 $136 $48 #
plane-surface $-1 55.553399652682664 61.436988389830034 182.15164281174981 -1 0 0 0 0.61566148304635926 0.78801074757464917 forward_v I I I I #
coedge $-1 $137 $138 $139 $140 reversed $49 $-1 #
coedge $-1 $83 $51 $141 $142 reversed $32 $-1 #
coedge $-1 $51 $82 $137 $143 reversed $32 $-1 #
coedge $-1 $139 $144 $51 $85 forward $134 $-1 #
edge $-1 $145 -18.001255465124281 $146 -2.5758392818978848 $84 $147 forward 7 unknown #
loop $-1 $-1 $91 $52 #
plane-surface $-1 37.772271591119562 -28.063623042475328 67.596086446291039 0 0.61566148304635926 0.78801074757464917 1 0 0 forward_v I I I I #
loop $-1 $-1 $148 $34 #
coedge $-1 $89 $89 $90 $149 reversed $53 $-1 #
coedge $-1 $90 $90 $89 $149 forward $55 $-1 #
coedge $-1 $91 $91 $56 $92 forward $86 $-1 #
edge $-1 $150 3.7980780923774422e-016 $150 6.2831853071796004 $91 $151 forward 7 unknown #
loop $-1 $-1 $98 $57 #
plane-surface $-1 37.772271591119562 -28.063623042475328 67.596086446291039 0 0.61566148304635926 0.78801074757464917 1 0 0 forward_v I I I I #
loop $-1 $-1 $152 $37 #
coedge $-1 $96 $96 $97 $153 reversed $58 $-1 #
coedge $-1 $97 $97 $96 $153 forward $60 $-1 #
coedge $-1 $98 $98 $61 $99 forward $93 $-1 #
edge $-1 $154 3.7980780923774422e-016 $154 6.2831853071796004 $98 $155 forward 7 unknown #
face $-1 $156 $157 $15 $-1 $158 reversed single #
loop $-1 $-1 $159 $62 #
plane-surface $-1 -72.686544389172042 0 0 1 0 0 0 0 -1 forward_v I I I I #
coedge $-1 $160 $111 $161 $162 forward $63 $-1 #
coedge $-1 $163 $65 $160 $164 forward $41 $-1 #
coedge $-1 $65 $163 $165 $166 forward $41 $-1 #
coedge $-1 $114 $113 $65 $107 reversed $115 $-1 #
edge $-1 $167 -48.719749660039298 $168 48.719749660039298 $106 $169 forward 7 unknown #
coedge $-1 $67 $66 $170 $171 forward $26 $-1 #
coedge $-1 $172 $173 $66 $110 reversed $157 $-1 #
edge $-1 $117 -72.686544389172042 $174 72.686544389172042 $109 $175 forward 7 unknown #
coedge $-1 $103 $176 $67 $112 reversed $63 $-1 #
edge $-1 $177 -72.686544389172042 $116 72.686544389172042 $111 $178 forward 7 unknown #
coedge $-1 $106 $68 $176 $179 forward $115 $-1 #
coedge $-1 $68 $106 $172 $180 reversed $115 $-1 #
loop $-1 $-1 $113 $156 #
vertex $-1 $69 $181 #
vertex $-1 $69 $182 #
straight-curve $-1 72.686544389172042 0 19.657995977822551 0 1 0 I I #
face $-1 $183 $184 $16 $-1 $185 reversed single #
loop $-1 $-1 $186 $70 #
plane-surface $-1 -81.569610434417058 0 9.7680084372991658 0 0 1 1 0 0 forward_v I I I I #
coedge $-1 $187 $73 $188 $189 reversed $45 $-1 #
coedge $-1 $73 $187 $128 $190 reversed $45 $-1 #
edge $-1 $130 -16.635678445433136 $191 -9.7680084372991658 $73 $192 forward 7 unknown #
coedge $-1 $75 $74 $186 $193 forward $29 $-1 #
coedge $-1 $194 $195 $74 $127 forward $196 $-1 #
edge $-1 $197 9.7680084372991658 $131 16.635678445433136 $126 $198 forward 7 unknown #
coedge $-1 $199 $76 $123 $190 forward $71 $-1 #
coedge $-1 $76 $199 $194 $200 forward $71 $-1 #
vertex $-1 $124 $201 #
vertex $-1 $200 $202 #
straight-curve $-1 -72.686544389172042 0 16.635678445433136 0 -1 0 I I #
face $-1 $-1 $203 $17 $-1 $204 reversed single #
loop $-1 $-1 $84 $78 #
plane-surface $-1 0 0 19.657995977822551 0 0 1 1 0 0 forward_v I I I I #
coedge $-1 $205 $206 $207 $208 reversed $79 $-1 #
coedge $-1 $209 $81 $83 $143 forward $49 $-1 #
coedge $-1 $81 $209 $205 $210 forward $49 $-1 #
coedge $-1 $207 $84 $81 $140 forward $134 $-1 #
edge $-1 $146 1.1050077339966791 $211 36.667263857122883 $139 $212 forward 7 unknown #
coedge $-1 $213 $214 $82 $142 forward $203 $-1 #
edge $-1 $215 -83.469481618278138 $145 -71.417825428052353 $141 $216 forward 7 unknown #
edge $-1 $146 77.864365058644978 $215 97.439499320078554 $83 $217 forward 7 unknown #
coedge $-1 $84 $207 $213 $218 forward $134 $-1 #
vertex $-1 $142 $219 #
vertex $-1 $85 $220 #
straight-curve $-1 19.99114352955646 30.718494194915017 19.657995977822551 0 -1 0 I I #
coedge $-1 $148 $148 $-1 $221 reversed $88 $-1 #
edge $-1 $222 0 $222 6.2831853071796004 $89 $223 forward 7 unknown #
vertex $-1 $92 $224 #
ellipse-curve $-1 30.151788136163944 41.007041568426089 13.632167882709661 0 0.61566148304635926 0.78801074757464917 1.5 0 0 1 I I #
coedge $-1 $152 $152 $-1 $225 reversed $95 $-1 #
edge $-1 $226 0 $226 6.2831853071796004 $96 $227 forward 7 unknown #
vertex $-1 $99 $228 #
ellipse-curve $-1 45.39275504607518 41.007041568426089 13.632167882709661 0 0.61566148304635926 0.78801074757464917 1.5 0 0 1 I I #
face $-1 $-1 $115 $15 $-1 $229 reversed single #
loop $-1 $-1 $172 $100 #
plane-surface $-1 0 48.719749660039298 0 0 -1 0 0 0 -1 forward_v I I I I #
coedge $-1 $230 $170 $173 $231 forward $101 $-1 #
coedge $-1 $176 $103 $104 $164 reversed $63 $-1 #
coedge $-1 $170 $230 $103 $162 reversed $101 $-1 #
edge $-1 $177 -19.657995977822551 $232 19.657995977822551 $161 $233 forward 7 unknown #
coedge $-1 $105 $104 $230 $234 forward $41 $-1 #
edge $-1 $168 -72.686544389172042 $232 72.686544389172042 $160 $235 forward 7 unknown #
coedge $-1 $173 $172 $105 $166 reversed $157 $-1 #
edge $-1 $236 -72.686544389172042 $167 72.686544389172042 $165 $237 forward 7 unknown #
vertex $-1 $107 $238 #
vertex $-1 $179 $239 #
straight-curve $-1 72.686544389172042 0 -19.657995977822551 0 -1 0 I I #
coedge $-1 $159 $161 $108 $171 reversed $101 $-1 #
edge $-1 $174 -48.719749660039298 $177 48.719749660039298 $170 $240 forward 7 unknown #
coedge $-1 $165 $109 $114 $180 forward $157 $-1 #
coedge $-1 $109 $165 $159 $231 reversed $157 $-1 #
vertex $-1 $110 $241 #
straight-curve $-1 0 48.719749660039298 19.657995977822551 -1 0 0 I I #
coedge $-1 $111 $160 $113 $179 reversed $63 $-1 #
vertex $-1 $171 $242 #
straight-curve $-1 0 -48.719749660039298 19.657995977822551 1 0 0 I I #
edge $-1 $116 -19.657995977822551 $168 19.657995977822551 $113 $243 forward 7 unknown #
edge $-1 $117 -19.657995977822551 $167 19.657995977822551 $114 $244 forward 7 unknown #
point $-1 72.686544389172042 -48.719749660039298 19.657995977822551 #
point $-1 72.686544389172042 48.719749660039298 19.657995977822551 #
face $-1 $-1 $196 $16 $-1 $245 reversed single #
loop $-1 $-1 $246 $119 #
plane-surface $-1 -90.452676479662074 0 13.201843441366151 1 0 0 0 0 -1 forward_v I I I I #
coedge $-1 $247 $188 $125 $193 reversed $120 $-1 #
coedge $-1 $123 $122 $246 $248 reversed $45 $-1 #
coedge $-1 $186 $249 $122 $189 forward $120 $-1 #
edge $-1 $250 -8.8830660452450161 $191 8.8830660452450161 $122 $251 forward 7 unknown #
edge $-1 $130 -8.8830660452450161 $252 8.8830660452450161 $123 $253 forward 7 unknown #
vertex $-1 $124 $254 #
straight-curve $-1 -72.686544389172042 48.719749660039298 0 0 0 -1 I I #
edge $-1 $197 -48.719749660039298 $191 48.719749660039298 $186 $255 forward 7 unknown #
coedge $-1 $256 $126 $129 $200 reversed $196 $-1 #
coedge $-1 $126 $256 $247 $257 reversed $196 $-1 #
loop $-1 $-1 $126 $183 #
vertex $-1 $127 $258 #
straight-curve $-1 -72.686544389172042 -48.719749660039298 0 0 0 1 I I #
coedge $-1 $129 $128 $259 $260 forward $71 $-1 #
edge $-1 $261 -8.8830660452450161 $131 8.8830660452450161 $194 $262 forward 7 unknown #
point $-1 -72.686544389172042 48.719749660039298 16.635678445433136 #
point $-1 -72.686544389172042 -48.719749660039298 16.635678445433136 #
loop $-1 $-1 $141 $133 #
plane-surface $-1 0 48.719749660039298 0 0 -1 0 0 0 -1 forward_v I I I I #
coedge $-1 $206 $136 $138 $210 reversed $79 $-1 #
coedge $-1 $136 $205 $263 $264 reversed $79 $-1 #
coedge $-1 $144 $139 $136 $208 forward $134 $-1 #
edge $-1 $211 2.5758392818978848 $265 18.001255465124281 $207 $266 forward 7 unknown #
coedge $-1 $138 $137 $214 $267 reversed $49 $-1 #
edge $-1 $268 -97.439499320078554 $211 -77.864365058644978 $205 $269 forward 7 unknown #
vertex $-1 $140 $270 #
straight-curve $-1 18.886135795559781 33.294333476812895 19.657995977822544 1 0 0 I I #
coedge $-1 $263 $141 $144 $218 reversed $203 $-1 #
coedge $-1 $141 $263 $209 $267 forward $203 $-1 #
vertex $-1 $142 $271 #
straight-curve $-1 19.99114352955646 48.719749660039298 91.075821405874905 0 0 1 I I #
straight-curve $-1 19.99114352955646 -28.063623042475328 67.596086446291039 0 0.78801074757464917 -0.61566148304635926 I I #
edge $-1 $265 -55.553399652682664 $145 -19.99114352955646 $213 $272 forward 7 unknown #
point $-1 19.99114352955646 48.719749660039298 19.657995977822551 #
point $-1 19.99114352955646 33.294333476812902 19.657995977822544 #
edge $-1 $273 1 $273 0 $148 $-1 forward 7 unknown #
vertex $-1 $149 $274 #
ellipse-curve $-1 30.151788136163944 39.628665939683046 11.867927566310502 0 0.61566148304635926 0.78801074757464917 1.5 0 0 1 I I #
point $-1 31.651788136163944 41.007041568426061 13.632167882709624 #
edge $-1 $275 1 $275 0 $152 $-1 forward 7 unknown #
vertex $-1 $153 $276 #
ellipse-curve $-1 45.39275504607518 39.628665939683046 11.867927566310502 0 0.61566148304635926 0.78801074757464917 1.5 0 0 1 I I #
point $-1 46.89275504607518 41.007041568426061 13.632167882709624 #
plane-surface $-1 72.686544389172042 0 0 -1 0 0 0 0 1 forward_v I I I I #
coedge $-1 $161 $159 $163 $234 reversed $101 $-1 #
edge $-1 $174 -19.657995977822551 $236 19.657995977822551 $173 $277 forward 7 unknown #
vertex $-1 $234 $278 #
straight-curve $-1 -72.686544389172042 -48.719749660039298 0 0 0 -1 I I #
edge $-1 $232 -48.719749660039298 $236 48.719749660039298 $230 $279 forward 7 unknown #
straight-curve $-1 0 -48.719749660039298 -19.657995977822551 -1 0 0 I I #
vertex $-1 $166 $280 #
straight-curve $-1 0 48.719749660039298 -19.657995977822551 1 0 0 I I #
point $-1 72.686544389172042 48.719749660039298 -19.657995977822551 #
point $-1 72.686544389172042 -48.719749660039298 -19.657995977822551 #
straight-curve $-1 -72.686544389172042 0 19.657995977822551 0 -1 0 I I #
point $-1 -72.686544389172042 48.719749660039298 19.657995977822551 #
point $-1 -72.686544389172042 -48.719749660039298 19.657995977822551 #
straight-curve $-1 72.686544389172042 -48.719749660039298 0 0 0 -1 I I #
straight-curve $-1 72.686544389172042 48.719749660039298 0 0 0 -1 I I #
plane-surface $-1 0 -48.719749660039298 0 0 1 0 0 0 1 forward_v I I I I #
coedge $-1 $281 $259 $187 $248 forward $184 $-1 #
coedge $-1 $249 $186 $195 $257 forward $120 $-1 #
edge $-1 $252 -3.4338350040669852 $250 3.4338350040669852 $187 $282 forward 7 unknown #
coedge $-1 $188 $247 $281 $283 forward $120 $-1 #
vertex $-1 $189 $284 #
straight-curve $-1 -81.569610434417058 48.719749660039298 9.7680084372991658 1 0 0 I I #
vertex $-1 $190 $285 #
straight-curve $-1 -81.569610434417058 48.719749660039298 16.635678445433136 -1 0 0 I I #
point $-1 -72.686544389172042 48.719749660039298 9.7680084372991658 #
straight-curve $-1 -72.686544389172042 0 9.7680084372991658 0 1 0 I I #
coedge $-1 $195 $194 $286 $287 forward $196 $-1 #
edge $-1 $197 -8.8830660452450161 $288 8.8830660452450161 $195 $289 forward 7 unknown #
point $-1 -72.686544389172042 -48.719749660039298 9.7680084372991658 #
coedge $-1 $246 $286 $199 $260 reversed $184 $-1 #
edge $-1 $252 -48.719749660039298 $261 48.719749660039298 $259 $290 forward 7 unknown #
vertex $-1 $260 $291 #
straight-curve $-1 -81.569610434417058 -48.719749660039298 16.635678445433136 1 0 0 I I #
coedge $-1 $214 $213 $206 $264 forward $203 $-1 #
edge $-1 $265 71.417825428052353 $268 83.469481618278138 $263 $292 forward 7 unknown #
vertex $-1 $218 $293 #
straight-curve $-1 55.553399652682664 30.718494194915017 19.657995977822551 0 1 0 I I #
edge $-1 $268 -36.667263857122883 $215 -1.1050077339966791 $214 $294 forward 7 unknown #
vertex $-1 $267 $295 #
straight-curve $-1 55.553399652682664 -28.063623042475328 67.596086446291039 0 -0.78801074757464917 0.61566148304635926 I I #
point $-1 55.553399652682664 33.294333476812902 19.657995977822544 #
point $-1 19.99114352955646 48.719749660039298 7.6063397875967595 #
straight-curve $-1 0 48.719749660039298 19.657995977822551 -1 0 0 I I #
vertex $-1 $221 $296 #
point $-1 31.651788136163944 39.628665939683046 11.867927566310502 #
vertex $-1 $225 $297 #
point $-1 46.89275504607518 39.628665939683046 11.867927566310502 #
straight-curve $-1 -72.686544389172042 48.719749660039298 0 0 0 -1 I I #
point $-1 -72.686544389172042 -48.719749660039298 -19.657995977822551 #
straight-curve $-1 -72.686544389172042 0 -19.657995977822551 0 1 0 I I #
point $-1 -72.686544389172042 48.719749660039298 -19.657995977822551 #
coedge $-1 $286 $246 $249 $283 reversed $184 $-1 #
straight-curve $-1 -90.452676479662074 48.719749660039298 13.201843441366151 0 0 -1 I I #
edge $-1 $288 -48.719749660039298 $250 48.719749660039298 $281 $298 forward 7 unknown #
point $-1 -90.452676479662074 48.719749660039298 9.7680084372991658 #
point $-1 -90.452676479662074 48.719749660039298 16.635678445433136 #
coedge $-1 $259 $281 $256 $287 reversed $184 $-1 #
edge $-1 $261 -3.4338350040669852 $288 3.4338350040669852 $286 $299 forward 7 unknown #
vertex $-1 $283 $300 #
straight-curve $-1 -81.569610434417058 -48.719749660039298 9.7680084372991658 -1 0 0 I I #
straight-curve $-1 -90.452676479662074 0 16.635678445433136 0 -1 0 I I #
point $-1 -90.452676479662074 -48.719749660039298 16.635678445433136 #
straight-curve $-1 55.553399652682664 48.719749660039298 91.075821405874905 0 0 -1 I I #
point $-1 55.553399652682664 48.719749660039298 19.657995977822551 #
straight-curve $-1 18.886135795559781 48.719749660039305 7.606339787596756 -1 0 0 I I #
point $-1 55.553399652682664 48.719749660039298 7.6063397875967595 #
point $-1 30.151788136163944 38.705173715113503 10.685911444948527 #
point $-1 45.39275504607518 38.705173715113503 10.685911444948527 #
straight-curve $-1 -90.452676479662074 0 9.7680084372991658 0 1 0 I I #
straight-curve $-1 -90.452676479662074 -48.719749660039298 13.201843441366151 0 0 -1 I I #
point $-1 -90.452676479662074 -48.719749660039298 9.7680084372991658 #
End-of-ACIS-data 