500 0 10 0           
7 Unknown 11 ACIS 5.0 NT 24 Fri Mar 26 17:48:10 1999 
-1 9.9999999999999995e-007 1e-010 
body $-1 $10 $-1 $11 #
body $-1 $12 $-1 $13 #
body $-1 $14 $-1 $15 #
body $-1 $16 $-1 $17 #
body $-1 $18 $-1 $19 #
body $-1 $20 $-1 $21 #
body $-1 $22 $-1 $23 #
body $-1 $24 $-1 $25 #
body $-1 $26 $-1 $27 #
body $-1 $28 $-1 $29 #
lump $-1 $-1 $30 $0 #
transform $-1 1 0 0 0 1 0 0 0 1 64.763939329203168 39.898594966550483 11.713385845506934 1 rotate no_reflect no_shear #
lump $-1 $-1 $31 $1 #
transform $-1 1 0 0 0 1 0 0 0 1 64.763939329203168 39.898594966550483 11.713385845506934 1 rotate no_reflect no_shear #
lump $-1 $-1 $32 $2 #
transform $-1 1 0 0 0 1 0 0 0 1 64.763939329203168 39.898594966550483 11.713385845506934 1 rotate no_reflect no_shear #
lump $-1 $-1 $33 $3 #
transform $-1 1 0 0 0 1 0 0 0 1 64.763939329203168 39.898594966550483 11.713385845506934 1 rotate no_reflect no_shear #
lump $-1 $-1 $34 $4 #
transform $-1 1 0 0 0 1 0 0 0 1 64.763939329203168 39.898594966550483 11.713385845506934 1 rotate no_reflect no_shear #
lump $-1 $-1 $35 $5 #
transform $-1 1 0 0 0 1 0 0 0 1 64.763939329203168 39.898594966550483 11.713385845506934 1 rotate no_reflect no_shear #
lump $-1 $-1 $36 $6 #
transform $-1 1 0 0 0 1 0 0 0 1 64.763939329203168 39.898594966550483 11.713385845506934 1 rotate no_reflect no_shear #
lump $-1 $-1 $37 $7 #
transform $-1 1 0 0 0 1 0 0 0 1 64.763939329203168 39.898594966550483 11.713385845506934 1 rotate no_reflect no_shear #
lump $-1 $-1 $38 $8 #
transform $-1 1 0 0 0 1 0 0 0 1 64.763939329203168 39.898594966550483 11.713385845506934 1 rotate no_reflect no_shear #
lump $-1 $-1 $39 $9 #
transform $-1 1 0 0 0 1 0 0 0 1 64.763939329203168 39.898594966550483 11.713385845506934 1 rotate no_reflect no_shear #
shell $-1 $-1 $-1 $40 $-1 $10 #
shell $-1 $-1 $-1 $41 $-1 $12 #
shell $-1 $-1 $-1 $42 $-1 $14 #
shell $-1 $-1 $-1 $43 $-1 $16 #
shell $-1 $-1 $-1 $44 $-1 $18 #
shell $-1 $-1 $-1 $45 $-1 $20 #
shell $-1 $-1 $-1 $46 $-1 $22 #
shell $-1 $-1 $-1 $47 $-1 $24 #
shell $-1 $-1 $-1 $48 $-1 $26 #
shell $-1 $-1 $-1 $49 $-1 $28 #
face $-1 $50 $51 $30 $-1 $52 forward single #
face $-1 $53 $54 $31 $-1 $55 reversed single #
face $-1 $56 $57 $32 $-1 $58 reversed single #
face $-1 $59 $60 $33 $-1 $61 forward single #
face $-1 $62 $63 $34 $-1 $64 forward single #
face $-1 $65 $66 $35 $-1 $67 forward single #
face $-1 $68 $69 $36 $-1 $70 reversed single #
face $-1 $71 $72 $37 $-1 $73 forward single #
face $-1 $74 $75 $38 $-1 $76 forward single #
face $-1 $77 $78 $39 $-1 $79 forward single #
face $-1 $80 $81 $30 $-1 $82 reversed single #
loop $-1 $-1 $83 $40 #
plane-surface $-1 0 0 11.713385845506934 0 0 1 1 0 0 forward_v I I I I #
face $-1 $84 $85 $31 $-1 $86 reversed single #
loop $-1 $-1 $87 $41 #
plane-surface $-1 -58.452834812918617 -36.898594966550483 0 0 -1 0 0 0 -1 forward_v I I I I #
face $-1 $88 $89 $32 $-1 $90 reversed single #
loop $-1 $-1 $91 $42 #
plane-surface $-1 90.257681952095396 0 184.40919118921136 0 -1 0 -0.79863551827123203 0 -0.60181501223851219 forward_v I I I I #
face $-1 $92 $93 $33 $-1 $94 forward single #
loop $-1 $95 $96 $43 #
cone-surface $-1 60.608156814349279 -12.763264276613207 6.7015575435647516 -0.79863551827123203 0 -0.60181501223851219 0.60181501223851219 0 -0.79863551827123203 1 I I 0 1 1 forward I I I I #
face $-1 $97 $98 $34 $-1 $99 forward single #
loop $-1 $100 $101 $44 #
cone-surface $-1 60.608156814349279 -7.9770401728832567 6.7015575435647516 -0.79863551827123203 0 -0.60181501223851219 0.60181501223851219 0 -0.79863551827123203 1 I I 0 1 1 forward I I I I #
face $-1 $102 $103 $35 $-1 $104 forward single #
loop $-1 $105 $106 $45 #
cone-surface $-1 60.608156814349279 -3.190816069153307 6.7015575435647516 -0.79863551827123203 0 -0.60181501223851219 0.60181501223851219 0 -0.79863551827123203 1 I I 0 1 1 forward I I I I #
face $-1 $107 $108 $36 $-1 $109 reversed single #
loop $-1 $-1 $110 $46 #
plane-surface $-1 90.257681952095396 23.944514620783981 184.40919118921136 0 1 0 0.79863551827123203 0 0.60181501223851219 forward_v I I I I #
face $-1 $111 $112 $37 $-1 $113 forward single #
loop $-1 $114 $115 $47 #
cone-surface $-1 60.608156814349279 27.13533068993727 6.7015575435647516 -0.79863551827123203 0 -0.60181501223851219 0.60181501223851219 0 -0.79863551827123203 1 I I 0 1 1 forward I I I I #
face $-1 $116 $117 $38 $-1 $118 forward single #
loop $-1 $119 $120 $48 #
cone-surface $-1 60.608156814349279 31.921554793667219 6.7015575435647516 -0.79863551827123203 0 -0.60181501223851219 0.60181501223851219 0 -0.79863551827123203 1 I I 0 1 1 forward I I I I #
face $-1 $121 $122 $39 $-1 $123 forward single #
loop $-1 $124 $125 $49 #
cone-surface $-1 60.608156814349279 36.707778897397169 6.7015575435647516 -0.79863551827123203 0 -0.60181501223851219 0.60181501223851219 0 -0.79863551827123203 1 I I 0 1 1 forward I I I I #
face $-1 $126 $127 $30 $-1 $128 reversed single #
loop $-1 $-1 $129 $50 #
plane-surface $-1 0 0 -11.713385845506934 0 0 1 1 0 0 forward_v I I I I #
coedge $-1 $130 $131 $132 $133 forward $51 $-1 #
face $-1 $134 $135 $31 $-1 $136 forward single #
loop $-1 $-1 $137 $53 #
plane-surface $-1 -52.141730296634066 -38.398594966550483 0 -1 0 0 0 0 1 forward_v I I I I #
coedge $-1 $138 $139 $140 $141 forward $54 $-1 #
face $-1 $142 $143 $32 $-1 $144 reversed single #
loop $-1 $-1 $145 $56 #
plane-surface $-1 -13.187882550834203 -7.9770401728832532 106.45736930917403 0.79863551827123203 0 0.60181501223851219 0.60181501223851219 0 -0.79863551827123203 forward_v I I I I #
coedge $-1 $146 $147 $148 $149 reversed $57 $-1 #
face $-1 $-1 $150 $33 $-1 $151 forward single #
loop $-1 $152 $153 $59 #
cone-surface $-1 59.331612264361311 -12.763264276613207 5.7396122551345599 -0.79863551827123203 0 -0.60181501223851219 0.3009075061192561 0 -0.39931775913561601 1 I I -0.70710678118654746 0.70710678118654746 0.5 forward I I I I #
loop $-1 $-1 $154 $43 #
coedge $-1 $96 $96 $155 $156 reversed $60 $-1 #
face $-1 $-1 $157 $34 $-1 $158 forward single #
loop $-1 $159 $160 $62 #
cone-surface $-1 59.331612264361311 -7.9770401728832567 5.7396122551345599 -0.79863551827123203 0 -0.60181501223851219 0.3009075061192561 0 -0.39931775913561601 1 I I -0.70710678118654746 0.70710678118654746 0.5 forward I I I I #
loop $-1 $-1 $161 $44 #
coedge $-1 $101 $101 $162 $163 reversed $63 $-1 #
face $-1 $-1 $164 $35 $-1 $165 forward single #
loop $-1 $166 $167 $65 #
cone-surface $-1 59.331612264361311 -3.190816069153307 5.7396122551345599 -0.79863551827123203 0 -0.60181501223851219 0.3009075061192561 0 -0.39931775913561601 1 I I -0.70710678118654746 0.70710678118654746 0.5 forward I I I I #
loop $-1 $-1 $168 $45 #
coedge $-1 $106 $106 $169 $170 reversed $66 $-1 #
face $-1 $171 $172 $36 $-1 $173 reversed single #
loop $-1 $-1 $174 $68 #
plane-surface $-1 -13.187882550834203 31.921554793667234 106.45736930917403 0.79863551827123203 0 0.60181501223851219 0.60181501223851219 0 -0.79863551827123203 forward_v I I I I #
coedge $-1 $175 $176 $177 $178 reversed $69 $-1 #
face $-1 $-1 $179 $37 $-1 $180 forward single #
loop $-1 $181 $182 $71 #
cone-surface $-1 59.331612264361311 27.13533068993727 5.7396122551345599 -0.79863551827123203 0 -0.60181501223851219 0.3009075061192561 0 -0.39931775913561601 1 I I -0.70710678118654746 0.70710678118654746 0.5 forward I I I I #
loop $-1 $-1 $183 $47 #
coedge $-1 $115 $115 $184 $185 reversed $72 $-1 #
face $-1 $-1 $186 $38 $-1 $187 forward single #
loop $-1 $188 $189 $74 #
cone-surface $-1 59.331612264361311 31.921554793667219 5.7396122551345599 -0.79863551827123203 0 -0.60181501223851219 0.3009075061192561 0 -0.39931775913561601 1 I I -0.70710678118654746 0.70710678118654746 0.5 forward I I I I #
loop $-1 $-1 $190 $48 #
coedge $-1 $120 $120 $191 $192 reversed $75 $-1 #
face $-1 $-1 $193 $39 $-1 $194 forward single #
loop $-1 $195 $196 $77 #
cone-surface $-1 59.331612264361311 36.707778897397169 5.7396122551345599 -0.79863551827123203 0 -0.60181501223851219 0.3009075061192561 0 -0.39931775913561601 1 I I -0.70710678118654746 0.70710678118654746 0.5 forward I I I I #
loop $-1 $-1 $197 $49 #
coedge $-1 $125 $125 $198 $199 reversed $78 $-1 #
face $-1 $200 $201 $30 $-1 $202 reversed single #
loop $-1 $-1 $203 $80 #
plane-surface $-1 0 -39.898594966550483 0 0 1 0 0 0 1 forward_v I I I I #
coedge $-1 $204 $205 $206 $207 forward $81 $-1 #
coedge $-1 $208 $83 $209 $210 forward $51 $-1 #
coedge $-1 $83 $208 $211 $212 forward $51 $-1 #
coedge $-1 $213 $214 $83 $133 reversed $215 $-1 #
edge $-1 $216 -39.898594966550483 $217 39.898594966550483 $132 $218 forward 7 unknown #
face $-1 $219 $220 $31 $-1 $221 reversed single #
loop $-1 $-1 $222 $84 #
plane-surface $-1 0 0 11.713385845506934 0 0 1 1 0 0 forward_v I I I I #
coedge $-1 $223 $224 $225 $226 reversed $85 $-1 #
coedge $-1 $227 $87 $228 $229 reversed $54 $-1 #
coedge $-1 $87 $227 $230 $231 reversed $54 $-1 #
coedge $-1 $224 $223 $87 $141 reversed $85 $-1 #
edge $-1 $232 -11.713385845506934 $233 11.713385845506934 $140 $234 forward 7 unknown #
face $-1 $235 $236 $32 $-1 $237 reversed single #
loop $-1 $-1 $238 $88 #
plane-surface $-1 90.257681952095396 -15.954080345766506 184.40919118921136 0 1 0 0.79863551827123203 0 0.60181501223851219 forward_v I I I I #
coedge $-1 $239 $240 $241 $242 reversed $89 $-1 #
coedge $-1 $147 $91 $243 $244 reversed $57 $-1 #
coedge $-1 $91 $146 $239 $245 reversed $57 $-1 #
coedge $-1 $241 $246 $91 $149 forward $247 $-1 #
edge $-1 $248 -19.63509835315547 $249 -13.077986905152343 $148 $250 forward 7 unknown #
loop $-1 $-1 $155 $92 #
plane-surface $-1 -13.187882550834203 -7.9770401728832532 106.45736930917403 0.79863551827123203 0 0.60181501223851219 0.60181501223851219 0 -0.79863551827123203 forward_v I I I I #
loop $-1 $-1 $251 $59 #
coedge $-1 $153 $153 $154 $252 reversed $93 $-1 #
coedge $-1 $154 $154 $153 $252 forward $95 $-1 #
coedge $-1 $155 $155 $96 $156 forward $150 $-1 #
edge $-1 $253 0 $253 6.2831853071796004 $155 $254 forward 7 unknown #
loop $-1 $-1 $162 $97 #
plane-surface $-1 -13.187882550834203 -7.9770401728832532 106.45736930917403 0.79863551827123203 0 0.60181501223851219 0.60181501223851219 0 -0.79863551827123203 forward_v I I I I #
loop $-1 $-1 $255 $62 #
coedge $-1 $160 $160 $161 $256 reversed $98 $-1 #
coedge $-1 $161 $161 $160 $256 forward $100 $-1 #
coedge $-1 $162 $162 $101 $163 forward $157 $-1 #
edge $-1 $257 0 $257 6.2831853071796004 $162 $258 forward 7 unknown #
loop $-1 $-1 $169 $102 #
plane-surface $-1 -13.187882550834203 -7.9770401728832532 106.45736930917403 0.79863551827123203 0 0.60181501223851219 0.60181501223851219 0 -0.79863551827123203 forward_v I I I I #
loop $-1 $-1 $259 $65 #
coedge $-1 $167 $167 $168 $260 reversed $103 $-1 #
coedge $-1 $168 $168 $167 $260 forward $105 $-1 #
coedge $-1 $169 $169 $106 $170 forward $164 $-1 #
edge $-1 $261 0 $261 6.2831853071796004 $169 $262 forward 7 unknown #
face $-1 $263 $264 $36 $-1 $265 reversed single #
loop $-1 $-1 $177 $107 #
plane-surface $-1 64.763939329203168 0 0 -1 0 0 0 0 1 forward_v I I I I #
coedge $-1 $266 $267 $268 $269 reversed $108 $-1 #
coedge $-1 $176 $110 $270 $271 reversed $69 $-1 #
coedge $-1 $110 $175 $266 $272 reversed $69 $-1 #
coedge $-1 $268 $273 $110 $178 forward $172 $-1 #
edge $-1 $274 80.491209749098743 $275 89.192790788361293 $177 $276 forward 7 unknown #
loop $-1 $-1 $184 $111 #
plane-surface $-1 -13.187882550834203 31.921554793667234 106.45736930917403 0.79863551827123203 0 0.60181501223851219 0.60181501223851219 0 -0.79863551827123203 forward_v I I I I #
loop $-1 $-1 $277 $71 #
coedge $-1 $182 $182 $183 $278 reversed $112 $-1 #
coedge $-1 $183 $183 $182 $278 forward $114 $-1 #
coedge $-1 $184 $184 $115 $185 forward $179 $-1 #
edge $-1 $279 0 $279 6.2831853071796004 $184 $280 forward 7 unknown #
loop $-1 $-1 $191 $116 #
plane-surface $-1 -13.187882550834203 31.921554793667234 106.45736930917403 0.79863551827123203 0 0.60181501223851219 0.60181501223851219 0 -0.79863551827123203 forward_v I I I I #
loop $-1 $-1 $281 $74 #
coedge $-1 $189 $189 $190 $282 reversed $117 $-1 #
coedge $-1 $190 $190 $189 $282 forward $119 $-1 #
coedge $-1 $191 $191 $120 $192 forward $186 $-1 #
edge $-1 $283 0 $283 6.2831853071796004 $191 $284 forward 7 unknown #
loop $-1 $-1 $198 $121 #
plane-surface $-1 -13.187882550834203 31.921554793667234 106.45736930917403 0.79863551827123203 0 0.60181501223851219 0.60181501223851219 0 -0.79863551827123203 forward_v I I I I #
loop $-1 $-1 $285 $77 #
coedge $-1 $196 $196 $197 $286 reversed $122 $-1 #
coedge $-1 $197 $197 $196 $286 forward $124 $-1 #
coedge $-1 $198 $198 $125 $199 forward $193 $-1 #
edge $-1 $287 0 $287 6.2831853071796004 $198 $288 forward 7 unknown #
face $-1 $289 $290 $30 $-1 $291 reversed single #
loop $-1 $-1 $292 $126 #
plane-surface $-1 -64.763939329203168 0 0 1 0 0 0 0 -1 forward_v I I I I #
coedge $-1 $293 $211 $294 $295 forward $127 $-1 #
coedge $-1 $296 $129 $293 $297 forward $81 $-1 #
coedge $-1 $129 $296 $298 $299 forward $81 $-1 #
coedge $-1 $214 $213 $129 $207 reversed $215 $-1 #
edge $-1 $300 -39.898594966550483 $301 39.898594966550483 $206 $302 forward 7 unknown #
coedge $-1 $131 $130 $303 $304 forward $51 $-1 #
coedge $-1 $305 $306 $130 $210 reversed $290 $-1 #
edge $-1 $217 -64.763939329203168 $307 64.763939329203168 $209 $308 forward 7 unknown #
coedge $-1 $203 $309 $131 $212 reversed $127 $-1 #
edge $-1 $310 -64.763939329203168 $216 64.763939329203168 $211 $311 forward 7 unknown #
coedge $-1 $206 $132 $309 $312 forward $215 $-1 #
coedge $-1 $132 $206 $305 $313 reversed $215 $-1 #
loop $-1 $-1 $213 $289 #
vertex $-1 $133 $314 #
vertex $-1 $133 $315 #
straight-curve $-1 64.763939329203168 0 11.713385845506934 0 1 0 I I #
face $-1 $316 $317 $31 $-1 $318 reversed single #
loop $-1 $-1 $319 $134 #
plane-surface $-1 -64.763939329203168 0 0 1 0 0 0 0 -1 forward_v I I I I #
coedge $-1 $230 $320 $224 $321 forward $135 $-1 #
coedge $-1 $140 $137 $322 $323 reversed $85 $-1 #
coedge $-1 $137 $140 $222 $321 reversed $85 $-1 #
coedge $-1 $324 $325 $137 $226 forward $326 $-1 #
edge $-1 $327 -11.713385845506934 $328 11.713385845506934 $225 $329 forward 7 unknown #
coedge $-1 $139 $138 $319 $330 reversed $54 $-1 #
coedge $-1 $322 $331 $138 $229 forward $317 $-1 #
edge $-1 $332 -35.537521922743863 $233 -22.915312890174757 $228 $333 forward 7 unknown #
coedge $-1 $334 $222 $139 $231 forward $135 $-1 #
edge $-1 $232 22.915312890174757 $335 35.537521922743863 $230 $336 forward 7 unknown #
vertex $-1 $231 $337 #
vertex $-1 $229 $338 #
straight-curve $-1 -52.141730296634066 -36.898594966550483 0 0 0 -1 I I #
face $-1 $-1 $247 $32 $-1 $339 forward single #
loop $-1 $-1 $340 $142 #
plane-surface $-1 64.763939329203168 0 0 -1 0 0 0 0 1 forward_v I I I I #
coedge $-1 $341 $342 $343 $344 reversed $143 $-1 #
coedge $-1 $345 $145 $147 $245 forward $89 $-1 #
coedge $-1 $145 $345 $341 $346 forward $89 $-1 #
coedge $-1 $343 $148 $145 $242 forward $247 $-1 #
edge $-1 $249 -3.9885200864416266 $347 11.96556025932488 $241 $348 forward 7 unknown #
coedge $-1 $349 $350 $146 $244 forward $236 $-1 #
edge $-1 $351 -89.192790788361293 $248 -80.491209749098743 $243 $352 forward 7 unknown #
edge $-1 $249 118.63231886900653 $351 129.52787865840639 $147 $353 forward 7 unknown #
coedge $-1 $148 $343 $349 $354 forward $247 $-1 #
loop $-1 $-1 $343 $235 #
vertex $-1 $244 $355 #
vertex $-1 $149 $356 #
straight-curve $-1 45.128840976047698 0 11.713385845506934 -1 0 0 I I #
coedge $-1 $251 $251 $-1 $357 reversed $152 $-1 #
edge $-1 $358 0 $358 6.2831853071796004 $153 $359 forward 7 unknown #
vertex $-1 $156 $360 #
ellipse-curve $-1 61.485383605201605 -12.763264276613207 7.3625953258756685 0.79863551827123203 0 0.60181501223851219 0.60181501223851219 0 -0.79863551827123203 1 I I #
coedge $-1 $255 $255 $-1 $361 reversed $159 $-1 #
edge $-1 $362 0 $362 6.2831853071796004 $160 $363 forward 7 unknown #
vertex $-1 $163 $364 #
ellipse-curve $-1 61.485383605201605 -7.9770401728832567 7.3625953258756685 0.79863551827123203 0 0.60181501223851219 0.60181501223851219 0 -0.79863551827123203 1 I I #
coedge $-1 $259 $259 $-1 $365 reversed $166 $-1 #
edge $-1 $366 0 $366 6.2831853071796004 $167 $367 forward 7 unknown #
vertex $-1 $170 $368 #
ellipse-curve $-1 61.485383605201605 -3.190816069153307 7.3625953258756685 0.79863551827123203 0 0.60181501223851219 0.60181501223851219 0 -0.79863551827123203 1 I I #
face $-1 $-1 $369 $36 $-1 $370 forward single #
loop $-1 $-1 $371 $171 #
plane-surface $-1 0 39.898594966550483 0 0 -1 0 0 0 -1 forward_v I I I I #
coedge $-1 $372 $174 $176 $272 forward $108 $-1 #
coedge $-1 $174 $372 $371 $373 reversed $108 $-1 #
coedge $-1 $374 $177 $174 $269 forward $172 $-1 #
edge $-1 $275 7.9837372239503637 $375 23.937817569716866 $268 $376 forward 7 unknown #
coedge $-1 $377 $378 $175 $271 forward $369 $-1 #
edge $-1 $379 13.077986905152343 $274 19.63509835315547 $270 $380 forward 7 unknown #
edge $-1 $275 -129.52787865840639 $379 -118.63231886900653 $176 $381 forward 7 unknown #
coedge $-1 $177 $374 $377 $382 reversed $172 $-1 #
vertex $-1 $382 $383 #
vertex $-1 $178 $384 #
straight-curve $-1 64.763939329203168 23.944514620783981 92.204595594605678 0 0 -1 I I #
coedge $-1 $277 $277 $-1 $385 reversed $181 $-1 #
edge $-1 $386 0 $386 6.2831853071796004 $182 $387 forward 7 unknown #
vertex $-1 $185 $388 #
ellipse-curve $-1 61.485383605201605 27.13533068993727 7.3625953258756685 0.79863551827123203 0 0.60181501223851219 0.60181501223851219 0 -0.79863551827123203 1 I I #
coedge $-1 $281 $281 $-1 $389 reversed $188 $-1 #
edge $-1 $390 0 $390 6.2831853071796004 $189 $391 forward 7 unknown #
vertex $-1 $192 $392 #
ellipse-curve $-1 61.485383605201605 31.921554793667219 7.3625953258756685 0.79863551827123203 0 0.60181501223851219 0.60181501223851219 0 -0.79863551827123203 1 I I #
coedge $-1 $285 $285 $-1 $393 reversed $195 $-1 #
edge $-1 $394 0 $394 6.2831853071796004 $196 $395 forward 7 unknown #
vertex $-1 $199 $396 #
ellipse-curve $-1 61.485383605201605 36.707778897397169 7.3625953258756685 0.79863551827123203 0 0.60181501223851219 0.60181501223851219 0 -0.79863551827123203 1 I I #
face $-1 $-1 $215 $30 $-1 $397 reversed single #
loop $-1 $-1 $305 $200 #
plane-surface $-1 0 39.898594966550483 0 0 -1 0 0 0 -1 forward_v I I I I #
coedge $-1 $398 $303 $306 $399 forward $201 $-1 #
coedge $-1 $309 $203 $204 $297 reversed $127 $-1 #
coedge $-1 $303 $398 $203 $295 reversed $201 $-1 #
edge $-1 $310 -11.713385845506934 $400 11.713385845506934 $294 $401 forward 7 unknown #
coedge $-1 $205 $204 $398 $402 forward $81 $-1 #
edge $-1 $301 -64.763939329203168 $400 64.763939329203168 $293 $403 forward 7 unknown #
coedge $-1 $306 $305 $205 $299 reversed $290 $-1 #
edge $-1 $404 -64.763939329203168 $300 64.763939329203168 $298 $405 forward 7 unknown #
vertex $-1 $207 $406 #
vertex $-1 $312 $407 #
straight-curve $-1 64.763939329203168 0 -11.713385845506934 0 -1 0 I I #
coedge $-1 $292 $294 $208 $304 reversed $201 $-1 #
edge $-1 $307 -39.898594966550483 $310 39.898594966550483 $303 $408 forward 7 unknown #
coedge $-1 $298 $209 $214 $313 forward $290 $-1 #
coedge $-1 $209 $298 $292 $399 reversed $290 $-1 #
vertex $-1 $210 $409 #
straight-curve $-1 0 39.898594966550483 11.713385845506934 -1 0 0 I I #
coedge $-1 $211 $293 $213 $312 reversed $127 $-1 #
vertex $-1 $304 $410 #
straight-curve $-1 0 -39.898594966550483 11.713385845506934 1 0 0 I I #
edge $-1 $216 -11.713385845506934 $301 11.713385845506934 $213 $411 forward 7 unknown #
edge $-1 $217 -11.713385845506934 $300 11.713385845506934 $214 $412 forward 7 unknown #
point $-1 64.763939329203168 -39.898594966550483 11.713385845506934 #
point $-1 64.763939329203168 39.898594966550483 11.713385845506934 #
face $-1 $-1 $326 $31 $-1 $413 reversed single #
loop $-1 $-1 $322 $219 #
plane-surface $-1 0 0 -11.713385845506934 0 0 1 1 0 0 forward_v I I I I #
coedge $-1 $414 $415 $227 $330 forward $220 $-1 #
coedge $-1 $222 $334 $324 $416 forward $135 $-1 #
edge $-1 $328 -20.699297483275242 $232 -17.699297483275242 $222 $417 forward 7 unknown #
coedge $-1 $418 $228 $223 $323 forward $317 $-1 #
edge $-1 $233 17.699297483275242 $327 20.699297483275242 $322 $419 forward 7 unknown #
coedge $-1 $420 $225 $320 $416 reversed $326 $-1 #
coedge $-1 $225 $420 $418 $421 reversed $326 $-1 #
loop $-1 $-1 $225 $316 #
vertex $-1 $421 $422 #
vertex $-1 $226 $423 #
straight-curve $-1 -52.141730296634066 -39.898594966550483 0 0 0 1 I I #
edge $-1 $335 -11.713385845506934 $332 11.713385845506934 $319 $424 forward 7 unknown #
coedge $-1 $228 $418 $414 $425 forward $317 $-1 #
vertex $-1 $229 $426 #
straight-curve $-1 -29.226417406459309 -36.898594966550483 -11.713385845506934 1 0 0 I I #
coedge $-1 $320 $230 $415 $427 forward $135 $-1 #
vertex $-1 $427 $428 #
straight-curve $-1 -29.226417406459309 -36.898594966550483 11.713385845506934 -1 0 0 I I #
point $-1 -52.141730296634066 -36.898594966550483 11.713385845506934 #
point $-1 -52.141730296634066 -36.898594966550483 -11.713385845506934 #
plane-surface $-1 0 0 11.713385845506934 0 0 1 1 0 0 forward_v I I I I #
coedge $-1 $350 $349 $342 $429 forward $236 $-1 #
coedge $-1 $342 $238 $240 $346 reversed $143 $-1 #
coedge $-1 $238 $341 $340 $429 reversed $143 $-1 #
coedge $-1 $246 $241 $238 $344 forward $247 $-1 #
edge $-1 $347 13.077986905152343 $430 19.63509835315547 $343 $431 forward 7 unknown #
coedge $-1 $240 $239 $350 $432 reversed $89 $-1 #
edge $-1 $433 -129.52787865840639 $347 -118.63231886900653 $341 $434 forward 7 unknown #
vertex $-1 $242 $435 #
straight-curve $-1 58.206827881200041 -3.9885200864416266 11.713385845506942 0 -1 0 I I #
coedge $-1 $340 $243 $246 $354 reversed $236 $-1 #
coedge $-1 $243 $340 $345 $432 forward $236 $-1 #
vertex $-1 $244 $436 #
straight-curve $-1 64.763939329203168 0 92.204595594605678 0 0 1 I I #
straight-curve $-1 -13.187882550834203 0 106.45736930917403 0.60181501223851219 0 -0.79863551827123203 I I #
edge $-1 $430 -15.954080345766506 $248 0 $349 $437 forward 7 unknown #
point $-1 64.763939329203168 0 11.713385845506934 #
point $-1 58.206827881200041 0 11.713385845506934 #
edge $-1 $438 1 $438 0 $251 $-1 forward 7 unknown #
vertex $-1 $252 $439 #
ellipse-curve $-1 59.730930023496924 -12.763264276613207 6.0405197612538162 0.79863551827123203 0 0.60181501223851219 0.60181501223851219 0 -0.79863551827123203 1 I I #
point $-1 62.087198617440144 -12.763264276613207 6.563959807604455 #
edge $-1 $440 1 $440 0 $255 $-1 forward 7 unknown #
vertex $-1 $256 $441 #
ellipse-curve $-1 59.730930023496924 -7.9770401728832567 6.0405197612538162 0.79863551827123203 0 0.60181501223851219 0.60181501223851219 0 -0.79863551827123203 1 I I #
point $-1 62.087198617440144 -7.9770401728832567 6.563959807604455 #
edge $-1 $442 1 $442 0 $259 $-1 forward 7 unknown #
vertex $-1 $260 $443 #
ellipse-curve $-1 59.730930023496924 -3.190816069153307 6.0405197612538162 0.79863551827123203 0 0.60181501223851219 0.60181501223851219 0 -0.79863551827123203 1 I I #
point $-1 62.087198617440144 -3.190816069153307 6.563959807604455 #
loop $-1 $-1 $270 $263 #
plane-surface $-1 0 0 11.713385845506934 0 0 1 1 0 0 forward_v I I I I #
coedge $-1 $444 $445 $267 $373 forward $264 $-1 #
coedge $-1 $267 $266 $378 $446 reversed $108 $-1 #
edge $-1 $375 -83.049227653029135 $447 -72.153667863629281 $371 $448 forward 7 unknown #
coedge $-1 $273 $268 $445 $449 reversed $172 $-1 #
vertex $-1 $373 $450 #
straight-curve $-1 64.763939329203168 15.960777396833617 3.0118048062443776 0 1 0 I I #
coedge $-1 $451 $270 $273 $382 forward $369 $-1 #
coedge $-1 $270 $451 $372 $446 forward $369 $-1 #
vertex $-1 $271 $452 #
straight-curve $-1 45.128840976047698 23.944514620783981 11.713385845506934 1 0 0 I I #
straight-curve $-1 -13.187882550834203 23.944514620783981 106.45736930917403 -0.60181501223851219 0 0.79863551827123203 I I #
edge $-1 $274 23.944514620783981 $453 39.898594966550483 $273 $454 forward 7 unknown #
point $-1 64.763939329203168 23.944514620783981 11.713385845506934 #
point $-1 64.763939329203168 23.944514620783981 3.0118048062443847 #
edge $-1 $455 1 $455 0 $277 $-1 forward 7 unknown #
vertex $-1 $278 $456 #
ellipse-curve $-1 59.730930023496924 27.13533068993727 6.0405197612538162 0.79863551827123203 0 0.60181501223851219 0.60181501223851219 0 -0.79863551827123203 1 I I #
point $-1 62.087198617440144 27.13533068993727 6.563959807604455 #
edge $-1 $457 1 $457 0 $281 $-1 forward 7 unknown #
vertex $-1 $282 $458 #
ellipse-curve $-1 59.730930023496924 31.921554793667219 6.0405197612538162 0.79863551827123203 0 0.60181501223851219 0.60181501223851219 0 -0.79863551827123203 1 I I #
point $-1 62.087198617440144 31.921554793667219 6.563959807604455 #
edge $-1 $459 1 $459 0 $285 $-1 forward 7 unknown #
vertex $-1 $286 $460 #
ellipse-curve $-1 59.730930023496924 36.707778897397169 6.0405197612538162 0.79863551827123203 0 0.60181501223851219 0.60181501223851219 0 -0.79863551827123203 1 I I #
point $-1 62.087198617440144 36.707778897397169 6.563959807604455 #
plane-surface $-1 64.763939329203168 0 0 -1 0 0 0 0 1 forward_v I I I I #
coedge $-1 $294 $292 $296 $402 reversed $201 $-1 #
edge $-1 $307 -11.713385845506934 $404 11.713385845506934 $306 $461 forward 7 unknown #
vertex $-1 $402 $462 #
straight-curve $-1 -64.763939329203168 -39.898594966550483 0 0 0 -1 I I #
edge $-1 $400 -39.898594966550483 $404 39.898594966550483 $398 $463 forward 7 unknown #
straight-curve $-1 0 -39.898594966550483 -11.713385845506934 -1 0 0 I I #
vertex $-1 $299 $464 #
straight-curve $-1 0 39.898594966550483 -11.713385845506934 1 0 0 I I #
point $-1 64.763939329203168 39.898594966550483 -11.713385845506934 #
point $-1 64.763939329203168 -39.898594966550483 -11.713385845506934 #
straight-curve $-1 -64.763939329203168 0 11.713385845506934 0 -1 0 I I #
point $-1 -64.763939329203168 39.898594966550483 11.713385845506934 #
point $-1 -64.763939329203168 -39.898594966550483 11.713385845506934 #
straight-curve $-1 64.763939329203168 -39.898594966550483 0 0 0 -1 I I #
straight-curve $-1 64.763939329203168 39.898594966550483 0 0 0 -1 I I #
plane-surface $-1 0 -39.898594966550483 0 0 1 0 0 0 1 forward_v I I I I #
coedge $-1 $465 $319 $331 $425 reversed $220 $-1 #
coedge $-1 $319 $465 $334 $427 reversed $220 $-1 #
edge $-1 $466 -64.763939329203168 $328 -52.141730296634066 $324 $467 forward 7 unknown #
straight-curve $-1 -52.141730296634066 -19.199297483275242 11.713385845506934 0 1 0 I I #
coedge $-1 $331 $322 $325 $421 forward $317 $-1 #
straight-curve $-1 -52.141730296634066 -19.199297483275242 -11.713385845506934 0 -1 0 I I #
coedge $-1 $325 $324 $465 $468 forward $326 $-1 #
edge $-1 $327 52.141730296634066 $469 64.763939329203168 $325 $470 forward 7 unknown #
point $-1 -52.141730296634066 -39.898594966550483 -11.713385845506934 #
point $-1 -52.141730296634066 -39.898594966550483 11.713385845506934 #
straight-curve $-1 -64.763939329203168 -36.898594966550483 0 0 0 -1 I I #
edge $-1 $469 -39.898594966550483 $332 -36.898594966550483 $414 $471 forward 7 unknown #
point $-1 -64.763939329203168 -36.898594966550483 -11.713385845506934 #
edge $-1 $335 36.898594966550483 $466 39.898594966550483 $415 $472 forward 7 unknown #
point $-1 -64.763939329203168 -36.898594966550483 11.713385845506934 #
edge $-1 $430 80.491209749098743 $433 89.192790788361293 $340 $473 forward 7 unknown #
vertex $-1 $354 $474 #
straight-curve $-1 45.128840976047698 -15.954080345766506 11.713385845506934 1 0 0 I I #
edge $-1 $433 -11.96556025932488 $351 3.9885200864416266 $350 $475 forward 7 unknown #
vertex $-1 $432 $476 #
straight-curve $-1 -13.187882550834203 -15.954080345766506 106.45736930917403 -0.60181501223851219 0 0.79863551827123203 I I #
point $-1 58.206827881200041 -15.954080345766506 11.713385845506934 #
point $-1 64.763939329203168 0 3.0118048062443847 #
straight-curve $-1 64.763939329203168 0 11.713385845506934 0 1 0 I I #
vertex $-1 $357 $477 #
point $-1 60.332745035735442 -12.763264276613207 5.241884242982584 #
vertex $-1 $361 $478 #
point $-1 60.332745035735442 -7.9770401728832567 5.241884242982584 #
vertex $-1 $365 $479 #
point $-1 60.332745035735442 -3.190816069153307 5.241884242982584 #
coedge $-1 $445 $371 $451 $480 reversed $264 $-1 #
coedge $-1 $371 $444 $374 $449 forward $264 $-1 #
edge $-1 $447 -23.937817569716874 $379 -7.9837372239503637 $378 $481 forward 7 unknown #
vertex $-1 $373 $482 #
straight-curve $-1 14.78366737279644 39.898594966550483 69.337867774946844 -0.60181501223851219 0 0.79863551827123203 I I #
edge $-1 $453 -11.713385845506934 $375 -3.0118048062443834 $374 $483 forward 7 unknown #
point $-1 64.763939329203168 39.898594966550483 3.0118048062443834 #
coedge $-1 $378 $377 $444 $480 forward $369 $-1 #
point $-1 58.206827881200041 23.944514620783981 11.713385845506934 #
vertex $-1 $382 $484 #
straight-curve $-1 64.763939329203168 0 11.713385845506934 0 1 0 I I #
vertex $-1 $385 $485 #
point $-1 60.332745035735442 27.13533068993727 5.241884242982584 #
vertex $-1 $389 $486 #
point $-1 60.332745035735442 31.921554793667219 5.241884242982584 #
vertex $-1 $393 $487 #
point $-1 60.332745035735442 36.707778897397169 5.241884242982584 #
straight-curve $-1 -64.763939329203168 39.898594966550483 0 0 0 -1 I I #
point $-1 -64.763939329203168 -39.898594966550483 -11.713385845506934 #
straight-curve $-1 -64.763939329203168 0 -11.713385845506934 0 1 0 I I #
point $-1 -64.763939329203168 39.898594966550483 -11.713385845506934 #
coedge $-1 $415 $414 $420 $468 reversed $220 $-1 #
vertex $-1 $427 $488 #
straight-curve $-1 0 -39.898594966550483 11.713385845506934 1 0 0 I I #
edge $-1 $466 -11.713385845506934 $469 11.713385845506934 $465 $489 forward 7 unknown #
vertex $-1 $425 $490 #
straight-curve $-1 0 -39.898594966550483 -11.713385845506934 -1 0 0 I I #
straight-curve $-1 -64.763939329203168 0 -11.713385845506934 0 1 0 I I #
straight-curve $-1 -64.763939329203168 0 11.713385845506934 0 -1 0 I I #
straight-curve $-1 64.763939329203168 -15.954080345766506 92.204595594605678 0 0 -1 I I #
point $-1 64.763939329203168 -15.954080345766506 11.713385845506934 #
straight-curve $-1 64.763939329203168 -3.9885200864416266 3.0118048062443776 0 1 0 I I #
point $-1 64.763939329203168 -15.954080345766506 3.0118048062443847 #
point $-1 58.932294505225698 -12.763264276613207 5.4387047490153035 #
point $-1 58.932294505225698 -7.9770401728832567 5.4387047490153035 #
point $-1 58.932294505225698 -3.190816069153307 5.4387047490153035 #
edge $-1 $453 -64.763939329203168 $447 -58.206827881200041 $444 $491 forward 7 unknown #
straight-curve $-1 58.206827881200041 15.960777396833617 11.713385845506942 0 -1 0 I I #
point $-1 58.206827881200041 39.89859496655049 11.713385845506934 #
straight-curve $-1 64.763939329203168 39.898594966550483 0 0 0 -1 I I #
point $-1 64.763939329203168 39.898594966550483 11.713385845506934 #
point $-1 58.932294505225698 27.13533068993727 5.4387047490153035 #
point $-1 58.932294505225698 31.921554793667219 5.4387047490153035 #
point $-1 58.932294505225698 36.707778897397169 5.4387047490153035 #
point $-1 -64.763939329203168 -39.898594966550483 11.713385845506934 #
straight-curve $-1 -64.763939329203168 -39.898594966550483 0 0 0 -1 I I #
point $-1 -64.763939329203168 -39.898594966550483 -11.713385845506934 #
straight-curve $-1 0 39.898594966550483 11.713385845506934 -1 0 0 I I #
End-of-ACIS-data 