500 0 7 0           
7 Unknown 11 ACIS 5.0 NT 24 Fri Mar 26 19:06:17 1999 
-1 9.9999999999999995e-007 1e-010 
body $-1 $7 $-1 $8 #
body $-1 $9 $-1 $10 #
body $-1 $11 $-1 $12 #
body $-1 $13 $-1 $14 #
body $-1 $15 $-1 $16 #
body $-1 $17 $-1 $18 #
body $-1 $19 $-1 $20 #
lump $-1 $-1 $21 $0 #
transform $-1 1 0 0 0 1 0 0 0 1 64.699240089114056 44.905620524511747 9.4744870428833732 1 rotate no_reflect no_shear #
lump $-1 $-1 $22 $1 #
transform $-1 1 0 0 0 1 0 0 0 1 64.699240089114056 44.905620524511747 9.4744870428833732 1 rotate no_reflect no_shear #
lump $-1 $-1 $23 $2 #
transform $-1 1 0 0 0 1 0 0 0 1 64.699240089114056 44.905620524511747 9.4744870428833732 1 rotate no_reflect no_shear #
lump $-1 $-1 $24 $3 #
transform $-1 1 0 0 0 1 0 0 0 1 64.699240089114056 44.905620524511747 9.4744870428833732 1 rotate no_reflect no_shear #
lump $-1 $-1 $25 $4 #
transform $-1 1 0 0 0 1 0 0 0 1 64.699240089114056 44.905620524511747 9.4744870428833732 1 rotate no_reflect no_shear #
lump $-1 $-1 $26 $5 #
transform $-1 1 0 0 0 1 0 0 0 1 64.699240089114056 44.905620524511747 9.4744870428833732 1 rotate no_reflect no_shear #
lump $-1 $-1 $27 $6 #
transform $-1 1 0 0 0 1 0 0 0 1 64.699240089114056 44.905620524511747 9.4744870428833732 1 rotate no_reflect no_shear #
shell $-1 $-1 $-1 $28 $-1 $7 #
shell $-1 $-1 $-1 $29 $-1 $9 #
shell $-1 $-1 $-1 $30 $-1 $11 #
shell $-1 $-1 $-1 $31 $-1 $13 #
shell $-1 $-1 $-1 $32 $-1 $15 #
shell $-1 $-1 $-1 $33 $-1 $17 #
shell $-1 $-1 $-1 $34 $-1 $19 #
face $-1 $35 $36 $21 $-1 $37 reversed single #
face $-1 $38 $39 $22 $-1 $40 forward single #
face $-1 $41 $42 $23 $-1 $43 forward single #
face $-1 $44 $45 $24 $-1 $46 reversed single #
face $-1 $47 $48 $25 $-1 $49 forward single #
face $-1 $50 $51 $26 $-1 $52 reversed single #
face $-1 $53 $54 $27 $-1 $55 forward single #
face $-1 $56 $57 $21 $-1 $58 forward single #
loop $-1 $-1 $59 $28 #
plane-surface $-1 64.699240089114056 0 0 -1 0 0 0 0 1 forward_v I I I I #
face $-1 $60 $61 $22 $-1 $62 reversed single #
loop $-1 $-1 $63 $29 #
plane-surface $-1 -64.699240089114056 0 0 1 0 0 0 0 -1 forward_v I I I I #
face $-1 $64 $65 $23 $-1 $66 reversed single #
loop $-1 $-1 $67 $30 #
plane-surface $-1 64.699240089114056 0 0 -1 0 0 0 0 1 forward_v I I I I #
face $-1 $68 $69 $24 $-1 $70 reversed single #
loop $-1 $-1 $71 $31 #
plane-surface $-1 -35.410858538066279 -155.82176750766087 71.672072731389591 -1 0 0 0 -0.85716730853699208 0.51503806187062418 forward_v I I I I #
face $-1 $72 $73 $25 $-1 $74 forward single #
loop $-1 $75 $76 $32 #
cone-surface $-1 -45.037653939645068 -41.860127720025197 6.223650436638307 0 0.85716730853699208 -0.51503806187062418 1 0 0 1 I I 0 1 1 forward I I I I #
face $-1 $77 $78 $26 $-1 $79 reversed single #
loop $-1 $-1 $80 $33 #
plane-surface $-1 -54.664449341223857 109.56555998357636 148.65533249774808 1 0 0 0 -0.85716730853699208 -0.51503806187062418 forward_v I I I I #
face $-1 $81 $82 $27 $-1 $83 forward single #
loop $-1 $84 $85 $34 #
cone-surface $-1 -45.037653939645068 41.860127720025204 6.2236504366383034 0 -0.85716730853699208 -0.51503806187062418 1 0 0 1 I I 0 1 1 forward I I I I #
face $-1 $86 $87 $21 $-1 $88 reversed single #
loop $-1 $-1 $89 $35 #
plane-surface $-1 0 0 9.4744870428833732 0 0 1 1 0 0 forward_v I I I I #
coedge $-1 $90 $91 $92 $93 reversed $36 $-1 #
face $-1 $94 $95 $22 $-1 $96 forward single #
loop $-1 $-1 $97 $38 #
plane-surface $-1 0 44.905620524511747 0 0 -1 0 0 0 -1 forward_v I I I I #
coedge $-1 $98 $99 $100 $101 forward $39 $-1 #
face $-1 $102 $103 $23 $-1 $104 forward single #
loop $-1 $-1 $105 $41 #
plane-surface $-1 0 -44.905620524511747 0 0 1 0 0 0 1 forward_v I I I I #
coedge $-1 $106 $107 $108 $109 forward $42 $-1 #
face $-1 $110 $111 $24 $-1 $112 reversed single #
loop $-1 $-1 $113 $44 #
plane-surface $-1 -45.037653939645068 -44.905620524511761 5.0269302913905989 0 -0.85716730853699208 0.51503806187062418 1 0 0 forward_v I I I I #
coedge $-1 $114 $115 $116 $117 reversed $45 $-1 #
face $-1 $-1 $118 $25 $-1 $119 forward single #
loop $-1 $120 $121 $47 #
cone-surface $-1 -45.037653939645068 -39.722232066659309 4.939073175204312 0 0.85716730853699208 -0.51503806187062418 0.5 0 0 1 I I -0.70710678118654746 0.70710678118654746 0.5 forward I I I I #
loop $-1 $-1 $122 $32 #
coedge $-1 $76 $76 $123 $124 reversed $48 $-1 #
face $-1 $125 $126 $26 $-1 $127 reversed single #
loop $-1 $-1 $128 $50 #
plane-surface $-1 -45.037653939645068 -1.3505869995727409 82.010190057749085 0 0.85716730853699208 0.51503806187062418 1 0 0 forward_v I I I I #
coedge $-1 $129 $130 $131 $132 reversed $51 $-1 #
face $-1 $-1 $133 $27 $-1 $134 forward single #
loop $-1 $135 $136 $53 #
cone-surface $-1 -45.037653939645068 39.722232066659316 4.9390731752043084 0 -0.85716730853699208 -0.51503806187062418 0.5 0 0 1 I I -0.70710678118654746 0.70710678118654746 0.5 forward I I I I #
loop $-1 $-1 $137 $34 #
coedge $-1 $85 $85 $138 $139 reversed $54 $-1 #
face $-1 $140 $141 $21 $-1 $142 reversed single #
loop $-1 $-1 $143 $56 #
plane-surface $-1 0 0 -9.4744870428833732 0 0 1 1 0 0 forward_v I I I I #
coedge $-1 $144 $145 $90 $146 forward $57 $-1 #
coedge $-1 $147 $59 $89 $146 reversed $36 $-1 #
coedge $-1 $59 $147 $143 $148 reversed $36 $-1 #
coedge $-1 $149 $150 $59 $93 forward $151 $-1 #
edge $-1 $152 -9.4744870428833732 $153 9.4744870428833732 $59 $154 forward 7 unknown #
face $-1 $155 $156 $22 $-1 $157 reversed single #
loop $-1 $-1 $100 $60 #
plane-surface $-1 -69.716635463059148 0 -1.9979790349627038 0 0 1 1 0 0 forward_v I I I I #
coedge $-1 $158 $159 $99 $160 forward $61 $-1 #
coedge $-1 $161 $63 $162 $163 reversed $39 $-1 #
coedge $-1 $63 $161 $97 $160 reversed $39 $-1 #
coedge $-1 $164 $165 $63 $101 reversed $95 $-1 #
edge $-1 $166 -44.905620524511747 $167 44.905620524511747 $100 $168 forward 7 unknown #
face $-1 $169 $170 $23 $-1 $171 reversed single #
loop $-1 $-1 $172 $64 #
plane-surface $-1 69.716635463059134 0 -1.9979790349627038 0 0 1 1 0 0 forward_v I I I I #
coedge $-1 $173 $174 $107 $175 forward $65 $-1 #
coedge $-1 $176 $67 $177 $178 reversed $42 $-1 #
coedge $-1 $67 $176 $105 $175 reversed $42 $-1 #
coedge $-1 $179 $180 $67 $109 reversed $103 $-1 #
edge $-1 $181 -44.905620524511747 $182 44.905620524511747 $108 $183 forward 7 unknown #
face $-1 $184 $185 $24 $-1 $186 forward single #
loop $-1 $-1 $187 $68 #
plane-surface $-1 -54.664449341223857 -155.82176750766087 71.672072731389591 1 0 0 0 0.85716730853699208 -0.51503806187062418 forward_v I I I I #
coedge $-1 $188 $189 $190 $191 reversed $69 $-1 #
coedge $-1 $115 $71 $192 $193 reversed $45 $-1 #
coedge $-1 $71 $114 $188 $194 reversed $45 $-1 #
coedge $-1 $190 $195 $71 $117 forward $185 $-1 #
edge $-1 $196 33.005263229318686 $197 35.67762484009701 $116 $198 forward 7 unknown #
loop $-1 $-1 $123 $72 #
plane-surface $-1 -45.037653939645068 -44.905620524511761 5.0269302913905989 0 -0.85716730853699208 0.51503806187062418 1 0 0 forward_v I I I I #
loop $-1 $-1 $199 $47 #
coedge $-1 $121 $121 $122 $200 reversed $73 $-1 #
coedge $-1 $122 $122 $121 $200 forward $75 $-1 #
coedge $-1 $123 $123 $76 $124 forward $118 $-1 #
edge $-1 $201 1.3756130184763443e-015 $201 6.2831853071796022 $123 $202 forward 7 unknown #
face $-1 $203 $204 $26 $-1 $205 reversed single #
loop $-1 $-1 $206 $77 #
plane-surface $-1 -35.410858538066279 109.56555998357636 148.65533249774808 -1 0 0 0 0.85716730853699208 0.51503806187062418 forward_v I I I I #
coedge $-1 $207 $208 $209 $210 reversed $78 $-1 #
coedge $-1 $130 $80 $211 $212 reversed $51 $-1 #
coedge $-1 $80 $129 $207 $213 reversed $51 $-1 #
coedge $-1 $209 $214 $80 $132 forward $215 $-1 #
edge $-1 $216 9.8771594672764351 $217 12.549521078054752 $131 $218 forward 7 unknown #
loop $-1 $-1 $138 $81 #
plane-surface $-1 -45.037653939645068 -1.3505869995727409 82.010190057749085 0 0.85716730853699208 0.51503806187062418 1 0 0 forward_v I I I I #
loop $-1 $-1 $219 $53 #
coedge $-1 $136 $136 $137 $220 reversed $82 $-1 #
coedge $-1 $137 $137 $136 $220 forward $84 $-1 #
coedge $-1 $138 $138 $85 $139 forward $133 $-1 #
edge $-1 $221 1.3756130184763443e-015 $221 6.2831853071796022 $138 $222 forward 7 unknown #
face $-1 $223 $224 $21 $-1 $225 reversed single #
loop $-1 $-1 $226 $86 #
plane-surface $-1 0 -44.905620524511747 0 0 1 0 0 0 1 forward_v I I I I #
coedge $-1 $227 $228 $91 $148 forward $87 $-1 #
coedge $-1 $229 $89 $150 $230 forward $57 $-1 #
coedge $-1 $89 $229 $231 $232 forward $57 $-1 #
edge $-1 $233 -44.905620524511747 $152 44.905620524511747 $90 $234 forward 7 unknown #
coedge $-1 $91 $90 $235 $236 forward $36 $-1 #
edge $-1 $153 -44.905620524511747 $237 44.905620524511747 $91 $238 forward 7 unknown #
coedge $-1 $239 $92 $228 $240 reversed $151 $-1 #
coedge $-1 $92 $239 $144 $230 reversed $151 $-1 #
loop $-1 $-1 $92 $223 #
vertex $-1 $146 $241 #
vertex $-1 $148 $242 #
straight-curve $-1 64.699240089114056 44.905620524511747 0 0 0 -1 I I #
face $-1 $243 $244 $22 $-1 $245 reversed single #
loop $-1 $-1 $246 $94 #
plane-surface $-1 -69.716635463059148 0 -6.3146579211349465 0 0 1 1 0 0 forward_v I I I I #
coedge $-1 $247 $97 $248 $249 reversed $61 $-1 #
coedge $-1 $97 $247 $164 $250 reversed $61 $-1 #
edge $-1 $166 1.9979790349627038 $251 6.3146579211349465 $97 $252 forward 7 unknown #
coedge $-1 $99 $98 $246 $253 forward $39 $-1 #
coedge $-1 $254 $255 $98 $163 forward $256 $-1 #
edge $-1 $257 -6.3146579211349465 $167 -1.9979790349627038 $162 $258 forward 7 unknown #
coedge $-1 $259 $100 $159 $250 forward $95 $-1 #
coedge $-1 $100 $259 $254 $260 forward $95 $-1 #
vertex $-1 $160 $261 #
vertex $-1 $260 $262 #
straight-curve $-1 -64.699240089114056 0 -1.9979790349627038 0 -1 0 I I #
face $-1 $263 $264 $23 $-1 $265 reversed single #
loop $-1 $-1 $266 $102 #
plane-surface $-1 69.716635463059134 0 -6.3146579211349465 0 0 1 1 0 0 forward_v I I I I #
coedge $-1 $180 $179 $267 $268 forward $103 $-1 #
coedge $-1 $269 $105 $270 $271 reversed $65 $-1 #
coedge $-1 $105 $269 $179 $272 reversed $65 $-1 #
edge $-1 $181 1.9979790349627038 $273 6.3146579211349465 $105 $274 forward 7 unknown #
coedge $-1 $107 $106 $275 $276 forward $42 $-1 #
coedge $-1 $277 $278 $106 $178 forward $279 $-1 #
edge $-1 $280 -6.3146579211349465 $182 -1.9979790349627038 $177 $281 forward 7 unknown #
coedge $-1 $172 $108 $174 $272 forward $103 $-1 #
coedge $-1 $108 $172 $277 $282 forward $103 $-1 #
vertex $-1 $175 $283 #
vertex $-1 $282 $284 #
straight-curve $-1 64.699240089114056 0 -1.9979790349627038 0 1 0 I I #
face $-1 $-1 $285 $24 $-1 $286 reversed single #
loop $-1 $-1 $116 $110 #
plane-surface $-1 0 0 9.4744870428833732 0 0 1 1 0 0 forward_v I I I I #
coedge $-1 $287 $288 $289 $290 reversed $111 $-1 #
coedge $-1 $291 $113 $115 $194 forward $69 $-1 #
coedge $-1 $113 $291 $287 $292 forward $69 $-1 #
coedge $-1 $289 $116 $113 $191 forward $185 $-1 #
edge $-1 $197 12.892031568243745 $293 32.145622371401323 $190 $294 forward 7 unknown #
coedge $-1 $295 $296 $114 $193 forward $285 $-1 #
edge $-1 $297 -30.809106074304172 $196 -26.36154932281142 $192 $298 forward 7 unknown #
edge $-1 $197 -5.1886681948753255 $297 -2.787470371894754e-014 $115 $299 forward 7 unknown #
coedge $-1 $116 $289 $295 $300 forward $185 $-1 #
vertex $-1 $193 $301 #
vertex $-1 $117 $302 #
straight-curve $-1 -35.410858538066279 -77.910883753830433 9.474487042883375 0 1 0 I I #
coedge $-1 $199 $199 $-1 $303 reversed $120 $-1 #
edge $-1 $304 0 $304 6.2831853071796004 $121 $305 forward 7 unknown #
vertex $-1 $124 $306 #
ellipse-curve $-1 -45.037653939645068 -43.569439719122592 7.2507086671369914 0 -0.85716730853699208 0.51503806187062418 1 0 0 1 I I #
face $-1 $-1 $215 $26 $-1 $307 forward single #
loop $-1 $-1 $308 $125 #
plane-surface $-1 0 44.905620524511747 0 0 -1 0 0 0 -1 forward_v I I I I #
coedge $-1 $309 $310 $311 $312 reversed $126 $-1 #
coedge $-1 $313 $128 $130 $213 forward $78 $-1 #
coedge $-1 $128 $313 $309 $314 forward $78 $-1 #
coedge $-1 $311 $131 $128 $210 forward $215 $-1 #
edge $-1 $217 -32.145622371401323 $315 -12.892031568243745 $209 $316 forward 7 unknown #
coedge $-1 $317 $318 $129 $212 forward $204 $-1 #
edge $-1 $319 -69.300735957483397 $216 -64.853179205990671 $211 $320 forward 7 unknown #
edge $-1 $217 84.622572854148189 $319 89.811241049023465 $130 $321 forward 7 unknown #
coedge $-1 $131 $311 $317 $322 forward $215 $-1 #
loop $-1 $-1 $311 $203 #
vertex $-1 $212 $323 #
vertex $-1 $132 $324 #
straight-curve $-1 -54.664449341223857 54.782779991788182 9.4744870428833678 0 -1 0 I I #
coedge $-1 $219 $219 $-1 $325 reversed $135 $-1 #
edge $-1 $326 0 $326 6.2831853071796004 $136 $327 forward 7 unknown #
vertex $-1 $139 $328 #
ellipse-curve $-1 -45.037653939645068 43.569439719122585 7.2507086671369825 0 0.85716730853699208 0.51503806187062418 1 0 0 1 I I #
face $-1 $-1 $151 $21 $-1 $329 reversed single #
loop $-1 $-1 $330 $140 #
plane-surface $-1 -64.699240089114056 0 0 1 0 0 0 0 -1 forward_v I I I I #
coedge $-1 $331 $231 $330 $332 forward $141 $-1 #
coedge $-1 $333 $143 $331 $334 forward $87 $-1 #
coedge $-1 $143 $333 $149 $240 forward $87 $-1 #
coedge $-1 $145 $144 $335 $336 forward $57 $-1 #
edge $-1 $152 -64.699240089114056 $337 64.699240089114056 $150 $338 forward 7 unknown #
coedge $-1 $226 $235 $145 $232 reversed $141 $-1 #
edge $-1 $339 -64.699240089114056 $233 64.699240089114056 $231 $340 forward 7 unknown #
vertex $-1 $146 $341 #
straight-curve $-1 64.699240089114056 0 9.4744870428833732 0 1 0 I I #
coedge $-1 $231 $331 $147 $236 reversed $141 $-1 #
edge $-1 $233 -9.4744870428833732 $237 9.4744870428833732 $147 $342 forward 7 unknown #
vertex $-1 $236 $343 #
straight-curve $-1 64.699240089114056 0 -9.4744870428833732 0 -1 0 I I #
coedge $-1 $150 $149 $344 $345 reversed $151 $-1 #
edge $-1 $346 -64.699240089114056 $153 64.699240089114056 $149 $347 forward 7 unknown #
point $-1 64.699240089114056 44.905620524511747 9.4744870428833732 #
point $-1 64.699240089114056 44.905620524511747 -9.4744870428833732 #
face $-1 $-1 $256 $22 $-1 $348 reversed single #
loop $-1 $-1 $349 $155 #
plane-surface $-1 -74.734030837004241 0 -4.1563184780488251 1 0 0 0 0 -1 forward_v I I I I #
coedge $-1 $350 $248 $161 $253 reversed $156 $-1 #
coedge $-1 $159 $158 $349 $351 reversed $61 $-1 #
coedge $-1 $246 $352 $158 $249 forward $156 $-1 #
edge $-1 $353 -5.0173953739450923 $251 5.0173953739450923 $158 $354 forward 7 unknown #
edge $-1 $166 -5.0173953739450923 $355 5.0173953739450923 $159 $356 forward 7 unknown #
vertex $-1 $160 $357 #
straight-curve $-1 -64.699240089114056 44.905620524511747 0 0 0 -1 I I #
edge $-1 $257 -44.905620524511747 $251 44.905620524511747 $246 $358 forward 7 unknown #
coedge $-1 $359 $162 $165 $260 reversed $256 $-1 #
coedge $-1 $162 $359 $350 $360 reversed $256 $-1 #
loop $-1 $-1 $162 $243 #
vertex $-1 $163 $361 #
straight-curve $-1 -64.699240089114056 -44.905620524511747 0 0 0 1 I I #
coedge $-1 $165 $164 $362 $363 forward $95 $-1 #
edge $-1 $364 -5.0173953739450923 $167 5.0173953739450923 $254 $365 forward 7 unknown #
point $-1 -64.699240089114056 44.905620524511747 -1.9979790349627038 #
point $-1 -64.699240089114056 -44.905620524511747 -1.9979790349627038 #
face $-1 $-1 $279 $23 $-1 $366 reversed single #
loop $-1 $-1 $367 $169 #
plane-surface $-1 74.734030837004227 0 -4.1563184780488251 -1 0 0 0 0 1 forward_v I I I I #
coedge $-1 $270 $368 $369 $370 forward $170 $-1 #
coedge $-1 $367 $371 $172 $268 reversed $264 $-1 #
edge $-1 $372 -44.905620524511747 $373 44.905620524511747 $267 $374 forward 7 unknown #
coedge $-1 $174 $173 $367 $375 reversed $65 $-1 #
coedge $-1 $275 $266 $173 $271 forward $170 $-1 #
edge $-1 $376 -5.0173953739450923 $273 5.0173953739450923 $173 $377 forward 7 unknown #
edge $-1 $181 -5.0173953739450923 $372 5.0173953739450923 $174 $378 forward 7 unknown #
vertex $-1 $175 $379 #
straight-curve $-1 64.699240089114056 -44.905620524511747 0 0 0 -1 I I #
coedge $-1 $368 $270 $176 $276 reversed $170 $-1 #
edge $-1 $280 -44.905620524511747 $273 44.905620524511747 $275 $380 forward 7 unknown #
coedge $-1 $381 $177 $180 $282 reversed $279 $-1 #
coedge $-1 $177 $381 $368 $382 reversed $279 $-1 #
loop $-1 $-1 $177 $263 #
vertex $-1 $178 $383 #
straight-curve $-1 64.699240089114056 44.905620524511747 0 0 0 1 I I #
edge $-1 $373 -5.0173953739450923 $182 5.0173953739450923 $277 $384 forward 7 unknown #
point $-1 64.699240089114042 -44.905620524511747 -1.9979790349627038 #
point $-1 64.699240089114042 44.905620524511747 -1.9979790349627038 #
loop $-1 $-1 $192 $184 #
plane-surface $-1 0 -44.905620524511747 0 0 1 0 0 0 1 forward_v I I I I #
coedge $-1 $288 $187 $189 $292 reversed $111 $-1 #
coedge $-1 $187 $287 $385 $386 reversed $111 $-1 #
coedge $-1 $195 $190 $187 $290 forward $185 $-1 #
edge $-1 $293 -35.67762484009701 $387 -33.005263229318686 $289 $388 forward 7 unknown #
coedge $-1 $189 $188 $296 $389 reversed $69 $-1 #
edge $-1 $390 2.787470371894754e-014 $293 5.1886681948753255 $287 $391 forward 7 unknown #
vertex $-1 $191 $392 #
straight-curve $-1 -22.518826969822534 -42.233258913733422 9.4744870428833732 -1 0 0 I I #
coedge $-1 $385 $192 $195 $300 reversed $285 $-1 #
coedge $-1 $192 $385 $291 $389 forward $285 $-1 #
vertex $-1 $193 $393 #
straight-curve $-1 -35.410858538066279 -44.905620524511747 35.836036365694795 0 0 1 I I #
straight-curve $-1 -35.410858538066279 -44.905620524511761 5.0269302913905989 0 -0.51503806187062418 -0.85716730853699208 I I #
edge $-1 $387 -54.664449341223857 $196 -35.410858538066279 $295 $394 forward 7 unknown #
point $-1 -35.410858538066279 -44.905620524511747 9.4744870428833732 #
point $-1 -35.410858538066279 -42.233258913733422 9.4744870428833732 #
edge $-1 $395 1 $395 0 $199 $-1 forward 7 unknown #
vertex $-1 $200 $396 #
ellipse-curve $-1 -45.037653939645068 -40.150815720927802 5.1965922061396244 0 -0.85716730853699208 0.51503806187062418 1 0 0 1 I I #
point $-1 -44.037653939645068 -43.569439719122585 7.2507086671369887 #
plane-surface $-1 0 0 9.4744870428833732 0 0 1 1 0 0 forward_v I I I I #
coedge $-1 $318 $317 $310 $397 forward $204 $-1 #
coedge $-1 $310 $206 $208 $314 reversed $126 $-1 #
coedge $-1 $206 $309 $308 $397 reversed $126 $-1 #
coedge $-1 $214 $209 $206 $312 forward $215 $-1 #
edge $-1 $315 -12.549521078054752 $398 -9.8771594672764351 $311 $399 forward 7 unknown #
coedge $-1 $208 $207 $318 $400 reversed $78 $-1 #
edge $-1 $401 -89.811241049023465 $315 -84.622572854148189 $309 $402 forward 7 unknown #
vertex $-1 $210 $403 #
straight-curve $-1 -22.518826969822534 42.233258913733422 9.474487042883375 1 0 0 I I #
coedge $-1 $308 $211 $214 $322 reversed $204 $-1 #
coedge $-1 $211 $308 $313 $400 forward $204 $-1 #
vertex $-1 $212 $404 #
straight-curve $-1 -54.664449341223857 44.905620524511747 74.327666248874039 0 0 1 I I #
straight-curve $-1 -54.664449341223857 -1.3505869995727409 82.010190057749085 0 0.51503806187062418 -0.85716730853699208 I I #
edge $-1 $398 35.410858538066279 $216 54.664449341223857 $317 $405 forward 7 unknown #
point $-1 -54.664449341223857 44.905620524511747 9.4744870428833732 #
point $-1 -54.664449341223857 42.23325891373343 9.4744870428833678 #
edge $-1 $406 1 $406 0 $219 $-1 forward 7 unknown #
vertex $-1 $220 $407 #
ellipse-curve $-1 -45.037653939645068 40.15081572092781 5.1965922061396208 0 0.85716730853699208 0.51503806187062418 1 0 0 1 I I #
point $-1 -44.037653939645068 43.569439719122592 7.2507086671369851 #
plane-surface $-1 0 44.905620524511747 0 0 -1 0 0 0 -1 forward_v I I I I #
coedge $-1 $335 $408 $226 $332 reversed $224 $-1 #
coedge $-1 $235 $226 $227 $334 reversed $141 $-1 #
edge $-1 $339 -9.4744870428833732 $409 9.4744870428833732 $330 $410 forward 7 unknown #
coedge $-1 $228 $227 $408 $411 forward $87 $-1 #
edge $-1 $237 -64.699240089114056 $409 64.699240089114056 $331 $412 forward 7 unknown #
coedge $-1 $344 $330 $229 $336 reversed $224 $-1 #
edge $-1 $337 -44.905620524511747 $339 44.905620524511747 $335 $413 forward 7 unknown #
vertex $-1 $230 $414 #
straight-curve $-1 0 44.905620524511747 9.4744870428833732 -1 0 0 I I #
vertex $-1 $336 $415 #
straight-curve $-1 0 -44.905620524511747 9.4744870428833732 1 0 0 I I #
point $-1 64.699240089114056 -44.905620524511747 9.4744870428833732 #
straight-curve $-1 64.699240089114056 -44.905620524511747 0 0 0 -1 I I #
point $-1 64.699240089114056 -44.905620524511747 -9.4744870428833732 #
coedge $-1 $408 $335 $239 $345 forward $224 $-1 #
edge $-1 $337 -9.4744870428833732 $346 9.4744870428833732 $239 $416 forward 7 unknown #
vertex $-1 $240 $417 #
straight-curve $-1 0 44.905620524511747 -9.4744870428833732 1 0 0 I I #
plane-surface $-1 0 -44.905620524511747 0 0 1 0 0 0 1 forward_v I I I I #
coedge $-1 $418 $362 $247 $351 forward $244 $-1 #
coedge $-1 $352 $246 $255 $360 forward $156 $-1 #
edge $-1 $355 -2.1583394430861214 $353 2.1583394430861214 $247 $419 forward 7 unknown #
coedge $-1 $248 $350 $418 $420 forward $156 $-1 #
vertex $-1 $249 $421 #
straight-curve $-1 -69.716635463059148 44.905620524511747 -6.3146579211349465 1 0 0 I I #
vertex $-1 $250 $422 #
straight-curve $-1 -69.716635463059148 44.905620524511747 -1.9979790349627038 -1 0 0 I I #
point $-1 -64.699240089114056 44.905620524511747 -6.3146579211349465 #
straight-curve $-1 -64.699240089114056 0 -6.3146579211349465 0 1 0 I I #
coedge $-1 $255 $254 $423 $424 forward $256 $-1 #
edge $-1 $257 -5.0173953739450923 $425 5.0173953739450923 $255 $426 forward 7 unknown #
point $-1 -64.699240089114056 -44.905620524511747 -6.3146579211349465 #
coedge $-1 $349 $423 $259 $363 reversed $244 $-1 #
edge $-1 $355 -44.905620524511747 $364 44.905620524511747 $362 $427 forward 7 unknown #
vertex $-1 $363 $428 #
straight-curve $-1 -69.716635463059148 -44.905620524511747 -1.9979790349627038 1 0 0 I I #
plane-surface $-1 0 44.905620524511747 0 0 -1 0 0 0 -1 forward_v I I I I #
coedge $-1 $369 $267 $269 $375 forward $264 $-1 #
coedge $-1 $266 $275 $278 $382 forward $170 $-1 #
coedge $-1 $371 $367 $266 $370 reversed $264 $-1 #
edge $-1 $429 -44.905620524511747 $376 44.905620524511747 $369 $430 forward 7 unknown #
coedge $-1 $267 $369 $381 $431 reversed $264 $-1 #
vertex $-1 $268 $432 #
vertex $-1 $268 $433 #
straight-curve $-1 74.734030837004227 0 -1.9979790349627038 0 1 0 I I #
edge $-1 $372 -2.1583394430861214 $376 2.1583394430861214 $367 $434 forward 7 unknown #
vertex $-1 $375 $435 #
straight-curve $-1 69.716635463059134 -44.905620524511747 -6.3146579211349465 -1 0 0 I I #
straight-curve $-1 69.716635463059134 -44.905620524511747 -1.9979790349627038 1 0 0 I I #
point $-1 64.699240089114042 -44.905620524511747 -6.3146579211349465 #
straight-curve $-1 64.699240089114056 0 -6.3146579211349465 0 -1 0 I I #
coedge $-1 $278 $277 $371 $431 forward $279 $-1 #
edge $-1 $280 -5.0173953739450923 $429 5.0173953739450923 $278 $436 forward 7 unknown #
point $-1 64.699240089114042 44.905620524511747 -6.3146579211349465 #
straight-curve $-1 69.716635463059134 44.905620524511747 -1.9979790349627038 -1 0 0 I I #
coedge $-1 $296 $295 $288 $386 forward $285 $-1 #
edge $-1 $387 26.36154932281142 $390 30.809106074304172 $385 $437 forward 7 unknown #
vertex $-1 $300 $438 #
straight-curve $-1 -54.664449341223857 -77.910883753830433 9.474487042883375 0 -1 0 I I #
edge $-1 $390 -32.145622371401323 $297 -12.892031568243745 $296 $439 forward 7 unknown #
vertex $-1 $389 $440 #
straight-curve $-1 -54.664449341223857 -44.905620524511761 5.0269302913905989 0 0.51503806187062418 0.85716730853699208 I I #
point $-1 -54.664449341223857 -42.233258913733422 9.4744870428833732 #
point $-1 -35.410858538066279 -44.905620524511747 5.0269302913906229 #
straight-curve $-1 0 -44.905620524511747 9.4744870428833732 1 0 0 I I #
vertex $-1 $303 $441 #
point $-1 -44.037653939645068 -40.150815720927802 5.1965922061396244 #
edge $-1 $398 64.853179205990671 $401 69.300735957483397 $308 $442 forward 7 unknown #
vertex $-1 $322 $443 #
straight-curve $-1 -35.410858538066279 54.782779991788182 9.4744870428833678 0 1 0 I I #
edge $-1 $401 12.892031568243745 $319 32.145622371401323 $318 $444 forward 7 unknown #
vertex $-1 $400 $445 #
straight-curve $-1 -35.410858538066279 -1.3505869995727409 82.010190057749085 0 -0.51503806187062418 0.85716730853699208 I I #
point $-1 -35.410858538066279 42.23325891373343 9.4744870428833678 #
point $-1 -54.664449341223857 44.905620524511747 5.0269302913906415 #
straight-curve $-1 0 44.905620524511747 9.4744870428833732 -1 0 0 I I #
vertex $-1 $325 $446 #
point $-1 -44.037653939645068 40.15081572092781 5.1965922061396208 #
coedge $-1 $330 $344 $333 $411 reversed $224 $-1 #
vertex $-1 $411 $447 #
straight-curve $-1 -64.699240089114056 -44.905620524511747 0 0 0 -1 I I #
edge $-1 $409 -44.905620524511747 $346 44.905620524511747 $408 $448 forward 7 unknown #
straight-curve $-1 0 -44.905620524511747 -9.4744870428833732 -1 0 0 I I #
straight-curve $-1 -64.699240089114056 0 9.4744870428833732 0 -1 0 I I #
point $-1 -64.699240089114056 44.905620524511747 9.4744870428833732 #
point $-1 -64.699240089114056 -44.905620524511747 9.4744870428833732 #
straight-curve $-1 -64.699240089114056 44.905620524511747 0 0 0 -1 I I #
point $-1 -64.699240089114056 44.905620524511747 -9.4744870428833732 #
coedge $-1 $423 $349 $352 $420 reversed $244 $-1 #
straight-curve $-1 -74.734030837004241 44.905620524511747 -4.1563184780488251 0 0 -1 I I #
edge $-1 $425 -44.905620524511747 $353 44.905620524511747 $418 $449 forward 7 unknown #
point $-1 -74.734030837004241 44.905620524511747 -6.3146579211349465 #
point $-1 -74.734030837004241 44.905620524511747 -1.9979790349627038 #
coedge $-1 $362 $418 $359 $424 reversed $244 $-1 #
edge $-1 $364 -2.1583394430861214 $425 2.1583394430861214 $423 $450 forward 7 unknown #
vertex $-1 $420 $451 #
straight-curve $-1 -69.716635463059148 -44.905620524511747 -6.3146579211349465 -1 0 0 I I #
straight-curve $-1 -74.734030837004241 0 -1.9979790349627038 0 -1 0 I I #
point $-1 -74.734030837004241 -44.905620524511747 -1.9979790349627038 #
vertex $-1 $370 $452 #
straight-curve $-1 74.734030837004227 0 -6.3146579211349465 0 -1 0 I I #
edge $-1 $373 -2.1583394430861214 $429 2.1583394430861214 $371 $453 forward 7 unknown #
point $-1 74.734030837004227 -44.905620524511747 -1.9979790349627038 #
point $-1 74.734030837004227 44.905620524511747 -1.9979790349627038 #
straight-curve $-1 74.734030837004227 -44.905620524511747 -4.1563184780488251 0 0 -1 I I #
point $-1 74.734030837004227 -44.905620524511747 -6.3146579211349465 #
straight-curve $-1 69.716635463059134 44.905620524511747 -6.3146579211349465 1 0 0 I I #
straight-curve $-1 -54.664449341223857 -44.905620524511747 35.836036365694795 0 0 -1 I I #
point $-1 -54.664449341223857 -44.905620524511747 9.4744870428833732 #
straight-curve $-1 -22.518826969822534 -44.905620524511747 5.0269302913906255 1 0 0 I I #
point $-1 -54.664449341223857 -44.905620524511747 5.0269302913906229 #
point $-1 -45.037653939645068 -39.293648412390816 4.6815541442689996 #
straight-curve $-1 -35.410858538066279 44.905620524511747 74.327666248874039 0 0 -1 I I #
point $-1 -35.410858538066279 44.905620524511747 9.4744870428833732 #
straight-curve $-1 -22.518826969822534 44.905620524511747 5.0269302913906202 -1 0 0 I I #
point $-1 -35.410858538066279 44.905620524511747 5.0269302913906415 #
point $-1 -45.037653939645068 39.293648412390823 4.6815541442689961 #
point $-1 -64.699240089114056 -44.905620524511747 -9.4744870428833732 #
straight-curve $-1 -64.699240089114056 0 -9.4744870428833732 0 1 0 I I #
straight-curve $-1 -74.734030837004241 0 -6.3146579211349465 0 1 0 I I #
straight-curve $-1 -74.734030837004241 -44.905620524511747 -4.1563184780488251 0 0 -1 I I #
point $-1 -74.734030837004241 -44.905620524511747 -6.3146579211349465 #
point $-1 74.734030837004227 44.905620524511747 -6.3146579211349465 #
straight-curve $-1 74.734030837004227 44.905620524511747 -4.1563184780488251 0 0 -1 I I #
End-of-ACIS-data 