500 0 9 0           
7 Unknown 11 ACIS 5.0 NT 24 Fri Mar 26 02:11:55 1999 
-1 9.9999999999999995e-007 1e-010 
body $-1 $9 $-1 $10 #
body $-1 $11 $-1 $12 #
body $-1 $13 $-1 $14 #
body $-1 $15 $-1 $16 #
body $-1 $17 $-1 $18 #
body $-1 $19 $-1 $20 #
body $-1 $21 $-1 $22 #
body $-1 $23 $-1 $24 #
body $-1 $25 $-1 $26 #
lump $-1 $-1 $27 $0 #
transform $-1 1 0 0 0 1 0 0 0 1 73.599658192693866 42.569744009686325 19.403940721014191 1 rotate no_reflect no_shear #
lump $-1 $-1 $28 $1 #
transform $-1 1 0 0 0 1 0 0 0 1 73.599658192693866 42.569744009686325 19.403940721014191 1 rotate no_reflect no_shear #
lump $-1 $-1 $29 $2 #
transform $-1 1 0 0 0 1 0 0 0 1 73.599658192693866 42.569744009686325 19.403940721014191 1 rotate no_reflect no_shear #
lump $-1 $-1 $30 $3 #
transform $-1 1 0 0 0 1 0 0 0 1 73.599658192693866 42.569744009686325 19.403940721014191 1 rotate no_reflect no_shear #
lump $-1 $-1 $31 $4 #
transform $-1 1 0 0 0 1 0 0 0 1 73.599658192693866 42.569744009686325 19.403940721014191 1 rotate no_reflect no_shear #
lump $-1 $-1 $32 $5 #
transform $-1 1 0 0 0 1 0 0 0 1 73.599658192693866 42.569744009686325 19.403940721014191 1 rotate no_reflect no_shear #
lump $-1 $-1 $33 $6 #
transform $-1 1 0 0 0 1 0 0 0 1 73.599658192693866 42.569744009686325 19.403940721014191 1 rotate no_reflect no_shear #
lump $-1 $-1 $34 $7 #
transform $-1 1 0 0 0 1 0 0 0 1 73.599658192693866 42.569744009686325 19.403940721014191 1 rotate no_reflect no_shear #
lump $-1 $-1 $35 $8 #
transform $-1 1 0 0 0 1 0 0 0 1 73.599658192693866 42.569744009686325 19.403940721014191 1 rotate no_reflect no_shear #
shell $-1 $-1 $-1 $36 $-1 $9 #
shell $-1 $-1 $-1 $37 $-1 $11 #
shell $-1 $-1 $-1 $38 $-1 $13 #
shell $-1 $-1 $-1 $39 $-1 $15 #
shell $-1 $-1 $-1 $40 $-1 $17 #
shell $-1 $-1 $-1 $41 $-1 $19 #
shell $-1 $-1 $-1 $42 $-1 $21 #
shell $-1 $-1 $-1 $43 $-1 $23 #
shell $-1 $-1 $-1 $44 $-1 $25 #
face $-1 $45 $46 $27 $-1 $47 forward single #
face $-1 $48 $49 $28 $-1 $50 reversed single #
face $-1 $51 $52 $29 $-1 $53 forward single #
face $-1 $54 $55 $30 $-1 $56 reversed single #
face $-1 $57 $58 $31 $-1 $59 forward single #
face $-1 $60 $61 $32 $-1 $62 forward single #
face $-1 $63 $64 $33 $-1 $65 reversed single #
face $-1 $66 $67 $34 $-1 $68 forward single #
face $-1 $69 $70 $35 $-1 $71 forward single #
face $-1 $72 $73 $27 $-1 $74 reversed single #
loop $-1 $-1 $75 $36 #
plane-surface $-1 0 0 19.403940721014191 0 0 1 1 0 0 forward_v I I I I #
face $-1 $76 $77 $28 $-1 $78 reversed single #
loop $-1 $-1 $79 $37 #
plane-surface $-1 -63.530293842418885 -17.247634577668144 0 0 1 0 0 0 1 forward_v I I I I #
face $-1 $80 $81 $29 $-1 $82 reversed single #
loop $-1 $-1 $83 $38 #
plane-surface $-1 73.599658192693866 0 0 -1 0 0 0 0 1 forward_v I I I I #
face $-1 $84 $85 $30 $-1 $86 reversed single #
loop $-1 $-1 $87 $39 #
plane-surface $-1 9.1332075204221894 119.65119191487722 164.89907887208196 1 0 0 0 -0.83867057594974714 -0.54463902268945019 forward_v I I I I #
face $-1 $88 $89 $31 $-1 $90 forward single #
loop $-1 $91 $92 $40 #
cone-surface $-1 13.8390817110743 39.507257093989999 15.657389982636664 0 -0.83867057594974714 -0.54463902268945019 1.5 0 0 1 I I 0 1 1.5 forward I I I I #
face $-1 $93 $94 $32 $-1 $95 forward single #
loop $-1 $96 $97 $41 #
cone-surface $-1 20.897892997052466 39.507257093989999 15.657389982636664 0 -0.83867057594974714 -0.54463902268945019 1.5 0 0 1 I I 0 1 1.5 forward I I I I #
face $-1 $98 $99 $33 $-1 $100 reversed single #
loop $-1 $-1 $101 $42 #
plane-surface $-1 25.603767187704591 -166.02147946202851 93.495095418808091 -1 0 0 0 -0.83867057594974714 0.54463902268945019 forward_v I I I I #
face $-1 $102 $103 $34 $-1 $104 forward single #
loop $-1 $105 $106 $43 #
cone-surface $-1 13.8390817110743 -39.507257093989999 15.657389982636678 0 0.83867057594974714 -0.54463902268945019 1.5 0 0 1 I I 0 1 1.5 forward I I I I #
face $-1 $107 $108 $35 $-1 $109 forward single #
loop $-1 $110 $111 $44 #
cone-surface $-1 20.897892997052466 -39.507257093989999 15.657389982636678 0 0.83867057594974714 -0.54463902268945019 1.5 0 0 1 I I 0 1 1.5 forward I I I I #
face $-1 $112 $113 $27 $-1 $114 reversed single #
loop $-1 $-1 $115 $45 #
plane-surface $-1 0 0 -19.403940721014191 0 0 1 1 0 0 forward_v I I I I #
coedge $-1 $116 $117 $118 $119 forward $46 $-1 #
face $-1 $120 $121 $28 $-1 $122 reversed single #
loop $-1 $-1 $123 $48 #
plane-surface $-1 -63.530293842418885 -10.101569504369811 0 0 -1 0 0 0 -1 forward_v I I I I #
coedge $-1 $124 $125 $126 $127 reversed $49 $-1 #
face $-1 $128 $129 $29 $-1 $130 reversed single #
loop $-1 $-1 $131 $51 #
plane-surface $-1 0 0 -19.403940721014191 0 0 1 1 0 0 forward_v I I I I #
coedge $-1 $132 $133 $134 $135 forward $52 $-1 #
face $-1 $136 $137 $30 $-1 $138 reversed single #
loop $-1 $-1 $139 $54 #
plane-surface $-1 17.36848735406339 -3.8005435374649608 84.728587055389212 0 0.83867057594974714 0.54463902268945019 1 0 0 forward_v I I I I #
coedge $-1 $140 $141 $142 $143 reversed $55 $-1 #
face $-1 $-1 $144 $31 $-1 $145 forward single #
loop $-1 $146 $147 $57 #
cone-surface $-1 13.8390817110743 37.789751026129046 14.542028536691479 0 -0.83867057594974714 -0.54463902268945019 0.75 0 0 1 I I -0.70710678118654757 0.70710678118654757 0.75 forward I I I I #
loop $-1 $-1 $148 $40 #
coedge $-1 $92 $92 $149 $150 reversed $58 $-1 #
face $-1 $-1 $151 $32 $-1 $152 forward single #
loop $-1 $153 $154 $60 #
cone-surface $-1 20.897892997052466 37.789751026129046 14.542028536691479 0 -0.83867057594974714 -0.54463902268945019 0.75 0 0 1 I I -0.70710678118654757 0.70710678118654757 0.75 forward I I I I #
loop $-1 $-1 $155 $41 #
coedge $-1 $97 $97 $156 $157 reversed $61 $-1 #
face $-1 $158 $159 $33 $-1 $160 reversed single #
loop $-1 $-1 $161 $63 #
plane-surface $-1 17.36848735406339 -42.569744009686332 13.324603602115346 0 -0.83867057594974714 0.54463902268945019 1 0 0 forward_v I I I I #
coedge $-1 $162 $163 $164 $165 reversed $64 $-1 #
face $-1 $-1 $166 $34 $-1 $167 forward single #
loop $-1 $168 $169 $66 #
cone-surface $-1 13.8390817110743 -37.789751026129046 14.542028536691493 0 0.83867057594974714 -0.54463902268945019 0.75 0 0 1 I I -0.70710678118654757 0.70710678118654757 0.75 forward I I I I #
loop $-1 $-1 $170 $43 #
coedge $-1 $106 $106 $171 $172 reversed $67 $-1 #
face $-1 $-1 $173 $35 $-1 $174 forward single #
loop $-1 $175 $176 $69 #
cone-surface $-1 20.897892997052466 -37.789751026129046 14.542028536691493 0 0.83867057594974714 -0.54463902268945019 0.75 0 0 1 I I -0.70710678118654757 0.70710678118654757 0.75 forward I I I I #
loop $-1 $-1 $177 $44 #
coedge $-1 $111 $111 $178 $179 reversed $70 $-1 #
face $-1 $180 $181 $27 $-1 $182 reversed single #
loop $-1 $-1 $183 $72 #
plane-surface $-1 0 -42.569744009686325 0 0 1 0 0 0 1 forward_v I I I I #
coedge $-1 $184 $185 $186 $187 forward $73 $-1 #
coedge $-1 $188 $75 $189 $190 forward $46 $-1 #
coedge $-1 $75 $188 $191 $192 forward $46 $-1 #
coedge $-1 $193 $194 $75 $119 reversed $195 $-1 #
edge $-1 $196 -42.569744009686325 $197 42.569744009686325 $118 $198 forward 7 unknown #
face $-1 $199 $200 $28 $-1 $201 reversed single #
loop $-1 $-1 $202 $76 #
plane-surface $-1 -53.460929492143904 -13.674602041018979 0 -1 0 0 0 0 1 forward_v I I I I #
coedge $-1 $203 $204 $205 $206 forward $77 $-1 #
coedge $-1 $207 $79 $208 $209 reversed $49 $-1 #
coedge $-1 $79 $207 $210 $211 reversed $49 $-1 #
coedge $-1 $212 $213 $79 $127 forward $214 $-1 #
edge $-1 $215 -19.403940721014191 $216 19.403940721014191 $126 $217 forward 7 unknown #
face $-1 $218 $219 $29 $-1 $220 reversed single #
loop $-1 $-1 $134 $80 #
plane-surface $-1 85.537229952455689 -13.315728873038676 0 0 1 0 0 0 1 forward_v I I I I #
coedge $-1 $221 $222 $133 $223 forward $81 $-1 #
coedge $-1 $224 $83 $225 $226 reversed $52 $-1 #
coedge $-1 $83 $224 $131 $223 reversed $52 $-1 #
coedge $-1 $227 $228 $83 $135 reversed $129 $-1 #
edge $-1 $229 -19.403940721014191 $230 19.403940721014191 $134 $231 forward 7 unknown #
face $-1 $232 $233 $30 $-1 $234 reversed single #
loop $-1 $-1 $235 $84 #
plane-surface $-1 25.603767187704591 119.65119191487722 164.89907887208196 -1 0 0 0 0.83867057594974714 0.54463902268945019 forward_v I I I I #
coedge $-1 $236 $237 $238 $239 reversed $85 $-1 #
coedge $-1 $141 $87 $240 $241 reversed $55 $-1 #
coedge $-1 $87 $140 $236 $242 reversed $55 $-1 #
coedge $-1 $238 $243 $87 $143 forward $244 $-1 #
edge $-1 $245 17.255851947752284 $246 21.20381950734766 $142 $247 forward 7 unknown #
loop $-1 $-1 $149 $88 #
plane-surface $-1 17.36848735406339 -3.8005435374649608 84.728587055389212 0 0.83867057594974714 0.54463902268945019 1 0 0 forward_v I I I I #
loop $-1 $-1 $248 $57 #
coedge $-1 $147 $147 $148 $249 reversed $89 $-1 #
coedge $-1 $148 $148 $147 $249 forward $91 $-1 #
coedge $-1 $149 $149 $92 $150 forward $144 $-1 #
edge $-1 $250 2.5799286745564613e-015 $250 6.2831853071796031 $149 $251 forward 7 unknown #
loop $-1 $-1 $156 $93 #
plane-surface $-1 17.36848735406339 -3.8005435374649608 84.728587055389212 0 0.83867057594974714 0.54463902268945019 1 0 0 forward_v I I I I #
loop $-1 $-1 $252 $60 #
coedge $-1 $154 $154 $155 $253 reversed $94 $-1 #
coedge $-1 $155 $155 $154 $253 forward $96 $-1 #
coedge $-1 $156 $156 $97 $157 forward $151 $-1 #
edge $-1 $254 2.5799286745564613e-015 $254 6.2831853071796031 $156 $255 forward 7 unknown #
face $-1 $256 $257 $33 $-1 $258 forward single #
loop $-1 $-1 $259 $98 #
plane-surface $-1 9.1332075204221894 -166.02147946202851 93.495095418808091 1 0 0 0 0.83867057594974714 -0.54463902268945019 forward_v I I I I #
coedge $-1 $260 $261 $262 $263 reversed $99 $-1 #
coedge $-1 $163 $101 $264 $265 reversed $64 $-1 #
coedge $-1 $101 $162 $260 $266 reversed $64 $-1 #
coedge $-1 $262 $267 $101 $165 forward $257 $-1 #
edge $-1 $268 40.44099572132793 $269 44.388963280923292 $164 $270 forward 7 unknown #
loop $-1 $-1 $171 $102 #
plane-surface $-1 17.36848735406339 -42.569744009686332 13.324603602115346 0 -0.83867057594974714 0.54463902268945019 1 0 0 forward_v I I I I #
loop $-1 $-1 $271 $66 #
coedge $-1 $169 $169 $170 $272 reversed $103 $-1 #
coedge $-1 $170 $170 $169 $272 forward $105 $-1 #
coedge $-1 $171 $171 $106 $172 forward $166 $-1 #
edge $-1 $273 -2.5799286745564613e-015 $273 6.2831853071795978 $171 $274 forward 7 unknown #
loop $-1 $-1 $178 $107 #
plane-surface $-1 17.36848735406339 -42.569744009686332 13.324603602115346 0 -0.83867057594974714 0.54463902268945019 1 0 0 forward_v I I I I #
loop $-1 $-1 $275 $69 #
coedge $-1 $176 $176 $177 $276 reversed $108 $-1 #
coedge $-1 $177 $177 $176 $276 forward $110 $-1 #
coedge $-1 $178 $178 $111 $179 forward $173 $-1 #
edge $-1 $277 -2.5799286745564613e-015 $277 6.2831853071795978 $178 $278 forward 7 unknown #
face $-1 $279 $280 $27 $-1 $281 reversed single #
loop $-1 $-1 $282 $112 #
plane-surface $-1 -73.599658192693866 0 0 1 0 0 0 0 -1 forward_v I I I I #
coedge $-1 $283 $191 $284 $285 forward $113 $-1 #
coedge $-1 $286 $115 $283 $287 forward $73 $-1 #
coedge $-1 $115 $286 $288 $289 forward $73 $-1 #
coedge $-1 $194 $193 $115 $187 reversed $195 $-1 #
edge $-1 $290 -42.569744009686325 $291 42.569744009686325 $186 $292 forward 7 unknown #
coedge $-1 $117 $116 $293 $294 forward $46 $-1 #
coedge $-1 $295 $296 $116 $190 reversed $280 $-1 #
edge $-1 $197 -73.599658192693866 $297 73.599658192693866 $189 $298 forward 7 unknown #
coedge $-1 $183 $299 $117 $192 reversed $113 $-1 #
edge $-1 $300 -73.599658192693866 $196 73.599658192693866 $191 $301 forward 7 unknown #
coedge $-1 $186 $118 $299 $302 forward $195 $-1 #
coedge $-1 $118 $186 $295 $303 reversed $195 $-1 #
loop $-1 $-1 $193 $279 #
vertex $-1 $119 $304 #
vertex $-1 $119 $305 #
straight-curve $-1 73.599658192693866 0 19.403940721014191 0 1 0 I I #
face $-1 $306 $307 $28 $-1 $308 forward single #
loop $-1 $-1 $309 $120 #
plane-surface $-1 0 0 -19.403940721014191 0 0 1 1 0 0 forward_v I I I I #
coedge $-1 $310 $311 $207 $312 forward $121 $-1 #
coedge $-1 $313 $123 $309 $314 reversed $77 $-1 #
coedge $-1 $123 $313 $315 $316 reversed $77 $-1 #
coedge $-1 $311 $310 $123 $206 reversed $121 $-1 #
edge $-1 $317 -19.403940721014191 $318 19.403940721014191 $205 $319 forward 7 unknown #
coedge $-1 $125 $124 $202 $312 reversed $49 $-1 #
coedge $-1 $320 $321 $124 $209 forward $200 $-1 #
edge $-1 $322 21.695782570934462 $215 41.834511271484423 $208 $323 forward 7 unknown #
coedge $-1 $324 $325 $125 $211 forward $307 $-1 #
edge $-1 $216 -41.834511271484423 $326 -21.695782570934462 $210 $327 forward 7 unknown #
coedge $-1 $328 $126 $325 $329 reversed $214 $-1 #
coedge $-1 $126 $328 $320 $330 reversed $214 $-1 #
loop $-1 $-1 $328 $306 #
vertex $-1 $330 $331 #
vertex $-1 $127 $332 #
straight-curve $-1 -73.599658192693866 -17.247634577668144 0 0 0 1 I I #
face $-1 $333 $334 $29 $-1 $335 reversed single #
loop $-1 $-1 $336 $128 #
plane-surface $-1 85.537229952455689 -3.7618625676579462 0 0 -1 0 0 0 -1 forward_v I I I I #
coedge $-1 $337 $131 $338 $339 forward $81 $-1 #
coedge $-1 $131 $337 $227 $340 forward $81 $-1 #
edge $-1 $229 -13.315728873038676 $341 -3.7618625676579462 $131 $342 forward 7 unknown #
coedge $-1 $133 $132 $343 $344 forward $52 $-1 #
coedge $-1 $345 $346 $132 $226 forward $347 $-1 #
edge $-1 $348 3.7618625676579462 $230 13.315728873038676 $225 $349 forward 7 unknown #
coedge $-1 $350 $134 $222 $340 reversed $129 $-1 #
coedge $-1 $134 $350 $345 $351 reversed $129 $-1 #
vertex $-1 $223 $352 #
vertex $-1 $351 $353 #
straight-curve $-1 73.599658192693866 -13.315728873038676 0 0 0 1 I I #
face $-1 $-1 $244 $30 $-1 $354 forward single #
loop $-1 $-1 $355 $136 #
plane-surface $-1 0 42.569744009686325 0 0 -1 0 0 0 -1 forward_v I I I I #
coedge $-1 $356 $357 $358 $359 reversed $137 $-1 #
coedge $-1 $360 $139 $141 $242 forward $85 $-1 #
coedge $-1 $139 $360 $356 $361 forward $85 $-1 #
coedge $-1 $358 $142 $139 $239 forward $244 $-1 #
edge $-1 $246 0.44896384339049433 $362 16.919523510672896 $238 $363 forward 7 unknown #
coedge $-1 $364 $365 $140 $241 forward $233 $-1 #
edge $-1 $366 -69.124935833925647 $245 -63.045598715026784 $240 $367 forward 7 unknown #
edge $-1 $246 77.890709663205413 $366 85.139488019372678 $141 $368 forward 7 unknown #
coedge $-1 $142 $358 $364 $369 forward $244 $-1 #
loop $-1 $-1 $358 $232 #
vertex $-1 $241 $370 #
vertex $-1 $143 $371 #
straight-curve $-1 9.1332075204221894 59.825595957438608 19.403940721014195 0 -1 0 I I #
coedge $-1 $248 $248 $-1 $372 reversed $146 $-1 #
edge $-1 $373 0 $373 6.2831853071796004 $147 $374 forward 7 unknown #
vertex $-1 $150 $375 #
ellipse-curve $-1 13.8390817110743 40.59576022988864 16.36427216156476 0 0.83867057594974714 0.54463902268945019 1.5 0 0 1 I I #
coedge $-1 $252 $252 $-1 $376 reversed $153 $-1 #
edge $-1 $377 0 $377 6.2831853071796004 $154 $378 forward 7 unknown #
vertex $-1 $157 $379 #
ellipse-curve $-1 20.897892997052466 40.59576022988864 16.36427216156476 0 0.83867057594974714 0.54463902268945019 1.5 0 0 1 I I #
face $-1 $-1 $380 $33 $-1 $381 reversed single #
loop $-1 $-1 $164 $158 #
plane-surface $-1 0 0 19.403940721014191 0 0 1 1 0 0 forward_v I I I I #
coedge $-1 $382 $383 $384 $385 reversed $159 $-1 #
coedge $-1 $386 $161 $163 $266 forward $99 $-1 #
coedge $-1 $161 $386 $382 $387 forward $99 $-1 #
coedge $-1 $384 $164 $161 $263 forward $257 $-1 #
edge $-1 $269 -16.919523510672896 $388 -0.44896384339049433 $262 $389 forward 7 unknown #
coedge $-1 $390 $391 $162 $265 forward $380 $-1 #
edge $-1 $392 -33.422944107288686 $268 -27.343606988389855 $264 $393 forward 7 unknown #
edge $-1 $269 -7.2487783561672465 $392 -1.2808562293387176e-014 $163 $394 forward 7 unknown #
coedge $-1 $164 $384 $390 $395 forward $257 $-1 #
vertex $-1 $165 $396 #
vertex $-1 $165 $397 #
straight-curve $-1 25.603767187704591 -83.010739731014255 19.403940721014187 0 1 0 I I #
coedge $-1 $271 $271 $-1 $398 reversed $168 $-1 #
edge $-1 $399 0 $399 6.2831853071796004 $169 $400 forward 7 unknown #
vertex $-1 $172 $401 #
ellipse-curve $-1 13.8390817110743 -40.59576022988864 16.364272161564774 0 -0.83867057594974714 0.54463902268945019 1.5 0 0 1 I I #
coedge $-1 $275 $275 $-1 $402 reversed $175 $-1 #
edge $-1 $403 0 $403 6.2831853071796004 $176 $404 forward 7 unknown #
vertex $-1 $179 $405 #
ellipse-curve $-1 20.897892997052466 -40.59576022988864 16.364272161564774 0 -0.83867057594974714 0.54463902268945019 1.5 0 0 1 I I #
face $-1 $-1 $195 $27 $-1 $406 reversed single #
loop $-1 $-1 $295 $180 #
plane-surface $-1 0 42.569744009686325 0 0 -1 0 0 0 -1 forward_v I I I I #
coedge $-1 $407 $293 $296 $408 forward $181 $-1 #
coedge $-1 $299 $183 $184 $287 reversed $113 $-1 #
coedge $-1 $293 $407 $183 $285 reversed $181 $-1 #
edge $-1 $300 -19.403940721014191 $409 19.403940721014191 $284 $410 forward 7 unknown #
coedge $-1 $185 $184 $407 $411 forward $73 $-1 #
edge $-1 $291 -73.599658192693866 $409 73.599658192693866 $283 $412 forward 7 unknown #
coedge $-1 $296 $295 $185 $289 reversed $280 $-1 #
edge $-1 $413 -73.599658192693866 $290 73.599658192693866 $288 $414 forward 7 unknown #
vertex $-1 $187 $415 #
vertex $-1 $302 $416 #
straight-curve $-1 73.599658192693866 0 -19.403940721014191 0 -1 0 I I #
coedge $-1 $282 $284 $188 $294 reversed $181 $-1 #
edge $-1 $297 -42.569744009686325 $300 42.569744009686325 $293 $417 forward 7 unknown #
coedge $-1 $288 $189 $194 $303 forward $280 $-1 #
coedge $-1 $189 $288 $282 $408 reversed $280 $-1 #
vertex $-1 $190 $418 #
straight-curve $-1 0 42.569744009686325 19.403940721014191 -1 0 0 I I #
coedge $-1 $191 $283 $193 $302 reversed $113 $-1 #
vertex $-1 $294 $419 #
straight-curve $-1 0 -42.569744009686325 19.403940721014191 1 0 0 I I #
edge $-1 $196 -19.403940721014191 $291 19.403940721014191 $193 $420 forward 7 unknown #
edge $-1 $197 -19.403940721014191 $290 19.403940721014191 $194 $421 forward 7 unknown #
point $-1 73.599658192693866 -42.569744009686325 19.403940721014191 #
point $-1 73.599658192693866 42.569744009686325 19.403940721014191 #
face $-1 $-1 $214 $28 $-1 $422 reversed single #
loop $-1 $-1 $315 $199 #
plane-surface $-1 0 0 19.403940721014191 0 0 1 1 0 0 forward_v I I I I #
coedge $-1 $321 $320 $203 $314 forward $200 $-1 #
coedge $-1 $205 $202 $321 $423 reversed $121 $-1 #
coedge $-1 $202 $205 $324 $424 reversed $121 $-1 #
edge $-1 $326 -19.403940721014191 $322 19.403940721014191 $202 $425 forward 7 unknown #
coedge $-1 $204 $203 $328 $426 reversed $77 $-1 #
edge $-1 $427 -41.834511271484423 $318 -21.695782570934462 $309 $428 forward 7 unknown #
coedge $-1 $325 $324 $204 $316 forward $307 $-1 #
edge $-1 $317 21.695782570934462 $429 41.834511271484423 $315 $430 forward 7 unknown #
vertex $-1 $316 $431 #
vertex $-1 $314 $432 #
straight-curve $-1 -53.460929492143904 -10.101569504369811 0 0 0 -1 I I #
coedge $-1 $309 $208 $213 $330 forward $200 $-1 #
coedge $-1 $208 $309 $310 $423 forward $200 $-1 #
vertex $-1 $209 $433 #
straight-curve $-1 -31.765146921209443 -17.247634577668144 -19.403940721014191 -1 0 0 I I #
coedge $-1 $315 $210 $311 $424 forward $307 $-1 #
coedge $-1 $210 $315 $212 $329 forward $307 $-1 #
vertex $-1 $211 $434 #
straight-curve $-1 -31.765146921209443 -17.247634577668144 19.403940721014191 1 0 0 I I #
coedge $-1 $213 $212 $313 $426 forward $214 $-1 #
edge $-1 $429 10.101569504369811 $216 17.247634577668144 $212 $435 forward 7 unknown #
edge $-1 $215 -17.247634577668144 $427 -10.101569504369811 $213 $436 forward 7 unknown #
point $-1 -73.599658192693866 -17.247634577668144 -19.403940721014191 #
point $-1 -73.599658192693866 -17.247634577668144 19.403940721014191 #
face $-1 $-1 $347 $29 $-1 $437 forward single #
loop $-1 $-1 $438 $218 #
plane-surface $-1 97.474801712217527 -8.5387957203483111 0 -1 0 0 0 0 1 forward_v I I I I #
coedge $-1 $338 $439 $440 $441 forward $219 $-1 #
coedge $-1 $222 $221 $442 $443 forward $81 $-1 #
coedge $-1 $343 $336 $221 $339 reversed $219 $-1 #
edge $-1 $341 -11.937571759761838 $444 11.937571759761838 $338 $445 forward 7 unknown #
edge $-1 $446 -11.937571759761838 $229 11.937571759761838 $227 $447 forward 7 unknown #
vertex $-1 $339 $448 #
straight-curve $-1 73.599658192693866 0 -19.403940721014191 0 1 0 I I #
coedge $-1 $439 $338 $224 $344 reversed $219 $-1 #
edge $-1 $348 -19.403940721014191 $341 19.403940721014191 $343 $449 forward 7 unknown #
coedge $-1 $450 $225 $228 $351 forward $347 $-1 #
coedge $-1 $225 $450 $439 $451 forward $347 $-1 #
loop $-1 $-1 $225 $333 #
vertex $-1 $226 $452 #
straight-curve $-1 73.599658192693866 0 19.403940721014191 0 -1 0 I I #
coedge $-1 $228 $227 $438 $453 reversed $129 $-1 #
edge $-1 $230 -11.937571759761838 $454 11.937571759761838 $228 $455 forward 7 unknown #
point $-1 73.599658192693852 -13.315728873038676 -19.403940721014191 #
point $-1 73.599658192693852 -13.315728873038676 19.403940721014191 #
plane-surface $-1 0 0 19.403940721014191 0 0 1 1 0 0 forward_v I I I I #
coedge $-1 $365 $364 $357 $456 forward $233 $-1 #
coedge $-1 $357 $235 $237 $361 reversed $137 $-1 #
coedge $-1 $235 $356 $355 $456 reversed $137 $-1 #
coedge $-1 $243 $238 $235 $359 forward $244 $-1 #
edge $-1 $362 -21.20381950734766 $457 -17.255851947752284 $358 $458 forward 7 unknown #
coedge $-1 $237 $236 $365 $459 reversed $85 $-1 #
edge $-1 $460 -85.139488019372678 $362 -77.890709663205413 $356 $461 forward 7 unknown #
vertex $-1 $239 $462 #
straight-curve $-1 8.6842436770316951 38.621776450090948 19.403940721014195 1 0 0 I I #
coedge $-1 $355 $240 $243 $369 reversed $233 $-1 #
coedge $-1 $240 $355 $360 $459 forward $233 $-1 #
vertex $-1 $241 $463 #
straight-curve $-1 9.1332075204221894 42.569744009686325 82.449539436040979 0 0 1 I I #
straight-curve $-1 9.1332075204221894 -3.8005435374649608 84.728587055389212 0 0.54463902268945019 -0.83867057594974714 I I #
edge $-1 $457 -25.603767187704591 $245 -9.1332075204221894 $364 $464 forward 7 unknown #
point $-1 9.1332075204221894 42.569744009686325 19.403940721014191 #
point $-1 9.1332075204221894 38.621776450090948 19.403940721014195 #
edge $-1 $465 1 $465 0 $248 $-1 forward 7 unknown #
vertex $-1 $249 $466 #
ellipse-curve $-1 13.8390817110743 38.418753958091358 14.950507803708566 0 0.83867057594974714 0.54463902268945019 1.5 0 0 1 I I #
point $-1 15.3390817110743 40.595760229888647 16.36427216156476 #
edge $-1 $467 1 $467 0 $252 $-1 forward 7 unknown #
vertex $-1 $253 $468 #
ellipse-curve $-1 20.897892997052466 38.418753958091358 14.950507803708566 0 0.83867057594974714 0.54463902268945019 1.5 0 0 1 I I #
point $-1 22.397892997052466 40.595760229888647 16.36427216156476 #
loop $-1 $-1 $264 $256 #
plane-surface $-1 0 -42.569744009686325 0 0 1 0 0 0 1 forward_v I I I I #
coedge $-1 $383 $259 $261 $387 reversed $159 $-1 #
coedge $-1 $259 $382 $469 $470 reversed $159 $-1 #
coedge $-1 $267 $262 $259 $385 forward $257 $-1 #
edge $-1 $388 -44.388963280923292 $471 -40.44099572132793 $384 $472 forward 7 unknown #
coedge $-1 $261 $260 $391 $473 reversed $99 $-1 #
edge $-1 $474 1.2808562293387176e-014 $388 7.2487783561672465 $382 $475 forward 7 unknown #
vertex $-1 $263 $476 #
straight-curve $-1 8.6842436770316951 -38.621776450090962 19.403940721014191 -1 0 0 I I #
coedge $-1 $469 $264 $267 $395 reversed $380 $-1 #
coedge $-1 $264 $469 $386 $473 forward $380 $-1 #
vertex $-1 $265 $477 #
straight-curve $-1 25.603767187704591 -42.569744009686325 46.747547709404046 0 0 1 I I #
straight-curve $-1 25.603767187704591 -42.569744009686332 13.324603602115346 0 -0.54463902268945019 -0.83867057594974714 I I #
edge $-1 $471 9.1332075204221894 $268 25.603767187704591 $390 $478 forward 7 unknown #
point $-1 25.603767187704591 -42.569744009686325 19.403940721014191 #
point $-1 25.603767187704591 -38.621776450090962 19.403940721014191 #
edge $-1 $479 1 $479 0 $271 $-1 forward 7 unknown #
vertex $-1 $272 $480 #
ellipse-curve $-1 13.8390817110743 -38.418753958091358 14.950507803708581 0 -0.83867057594974714 0.54463902268945019 1.5 0 0 1 I I #
point $-1 15.3390817110743 -40.595760229888647 16.364272161564774 #
edge $-1 $481 1 $481 0 $275 $-1 forward 7 unknown #
vertex $-1 $276 $482 #
ellipse-curve $-1 20.897892997052466 -38.418753958091358 14.950507803708581 0 -0.83867057594974714 0.54463902268945019 1.5 0 0 1 I I #
point $-1 22.397892997052466 -40.595760229888647 16.364272161564774 #
plane-surface $-1 73.599658192693866 0 0 -1 0 0 0 0 1 forward_v I I I I #
coedge $-1 $284 $282 $286 $411 reversed $181 $-1 #
edge $-1 $297 -19.403940721014191 $413 19.403940721014191 $296 $483 forward 7 unknown #
vertex $-1 $411 $484 #
straight-curve $-1 -73.599658192693866 -42.569744009686325 0 0 0 -1 I I #
edge $-1 $409 -42.569744009686325 $413 42.569744009686325 $407 $485 forward 7 unknown #
straight-curve $-1 0 -42.569744009686325 -19.403940721014191 -1 0 0 I I #
vertex $-1 $289 $486 #
straight-curve $-1 0 42.569744009686325 -19.403940721014191 1 0 0 I I #
point $-1 73.599658192693866 42.569744009686325 -19.403940721014191 #
point $-1 73.599658192693866 -42.569744009686325 -19.403940721014191 #
straight-curve $-1 -73.599658192693866 0 19.403940721014191 0 -1 0 I I #
point $-1 -73.599658192693866 42.569744009686325 19.403940721014191 #
point $-1 -73.599658192693866 -42.569744009686325 19.403940721014191 #
straight-curve $-1 73.599658192693866 -42.569744009686325 0 0 0 -1 I I #
straight-curve $-1 73.599658192693866 42.569744009686325 0 0 0 -1 I I #
plane-surface $-1 -73.599658192693866 0 0 1 0 0 0 0 -1 forward_v I I I I #
edge $-1 $318 3.264268483860322 $322 10.410333557158655 $321 $487 forward 7 unknown #
edge $-1 $326 -10.410333557158655 $317 -3.264268483860322 $324 $488 forward 7 unknown #
straight-curve $-1 -53.460929492143904 -17.247634577668144 0 0 0 -1 I I #
edge $-1 $429 -19.403940721014191 $427 19.403940721014191 $328 $489 forward 7 unknown #
vertex $-1 $426 $490 #
straight-curve $-1 -31.765146921209443 -10.101569504369811 -19.403940721014191 1 0 0 I I #
vertex $-1 $329 $491 #
straight-curve $-1 -31.765146921209443 -10.101569504369811 19.403940721014191 -1 0 0 I I #
point $-1 -53.460929492143904 -10.101569504369811 19.403940721014191 #
point $-1 -53.460929492143904 -10.101569504369811 -19.403940721014191 #
point $-1 -53.460929492143904 -17.247634577668144 -19.403940721014191 #
point $-1 -53.460929492143904 -17.247634577668144 19.403940721014191 #
straight-curve $-1 -73.599658192693866 0 19.403940721014191 0 -1 0 I I #
straight-curve $-1 -73.599658192693866 0 -19.403940721014191 0 1 0 I I #
plane-surface $-1 0 0 19.403940721014191 0 0 1 1 0 0 forward_v I I I I #
coedge $-1 $442 $492 $350 $453 forward $334 $-1 #
coedge $-1 $336 $343 $346 $451 reversed $219 $-1 #
coedge $-1 $492 $442 $336 $441 reversed $334 $-1 #
edge $-1 $493 -19.403940721014191 $444 19.403940721014191 $440 $494 forward 7 unknown #
coedge $-1 $440 $438 $337 $443 reversed $334 $-1 #
edge $-1 $444 -4.7769331526903649 $446 4.7769331526903649 $442 $495 forward 7 unknown #
vertex $-1 $443 $496 #
straight-curve $-1 85.537229952455689 -3.7618625676579462 -19.403940721014191 1 0 0 I I #
vertex $-1 $453 $497 #
straight-curve $-1 85.537229952455689 -13.315728873038676 -19.403940721014191 -1 0 0 I I #
point $-1 73.599658192693852 -3.7618625676579462 -19.403940721014191 #
straight-curve $-1 73.599658192693866 -3.7618625676579462 0 0 0 -1 I I #
coedge $-1 $346 $345 $492 $498 forward $347 $-1 #
edge $-1 $493 -11.937571759761838 $348 11.937571759761838 $439 $499 forward 7 unknown #
point $-1 73.599658192693852 -3.7618625676579462 19.403940721014191 #
edge $-1 $454 -19.403940721014191 $446 19.403940721014191 $438 $500 forward 7 unknown #
vertex $-1 $498 $501 #
straight-curve $-1 85.537229952455689 -13.315728873038676 19.403940721014191 1 0 0 I I #
edge $-1 $457 63.045598715026784 $460 69.124935833925647 $355 $502 forward 7 unknown #
vertex $-1 $369 $503 #
straight-curve $-1 25.603767187704591 59.825595957438608 19.403940721014195 0 1 0 I I #
edge $-1 $460 -16.919523510672896 $366 -0.44896384339049433 $365 $504 forward 7 unknown #
vertex $-1 $459 $505 #
straight-curve $-1 25.603767187704591 -3.8005435374649608 84.728587055389212 0 -0.54463902268945019 0.83867057594974714 I I #
point $-1 25.603767187704591 38.621776450090948 19.403940721014195 #
point $-1 9.1332075204221894 42.569744009686325 13.324603602115332 #
straight-curve $-1 0 42.569744009686325 19.403940721014191 -1 0 0 I I #
vertex $-1 $372 $506 #
point $-1 15.3390817110743 38.418753958091358 14.950507803708566 #
vertex $-1 $376 $507 #
point $-1 22.397892997052466 38.418753958091358 14.950507803708566 #
coedge $-1 $391 $390 $383 $470 forward $380 $-1 #
edge $-1 $471 27.343606988389855 $474 33.422944107288686 $469 $508 forward 7 unknown #
vertex $-1 $395 $509 #
straight-curve $-1 9.1332075204221894 -83.010739731014255 19.403940721014187 0 -1 0 I I #
edge $-1 $474 0.44896384339049433 $392 16.919523510672896 $391 $510 forward 7 unknown #
vertex $-1 $473 $511 #
straight-curve $-1 9.1332075204221894 -42.569744009686332 13.324603602115346 0 0.54463902268945019 0.83867057594974714 I I #
point $-1 9.1332075204221894 -38.621776450090962 19.403940721014191 #
point $-1 25.603767187704591 -42.569744009686325 13.324603602115356 #
straight-curve $-1 0 -42.569744009686325 19.403940721014191 1 0 0 I I #
vertex $-1 $398 $512 #
point $-1 15.3390817110743 -38.418753958091358 14.950507803708581 #
vertex $-1 $402 $513 #
point $-1 22.397892997052466 -38.418753958091358 14.950507803708581 #
straight-curve $-1 -73.599658192693866 42.569744009686325 0 0 0 -1 I I #
point $-1 -73.599658192693866 -42.569744009686325 -19.403940721014191 #
straight-curve $-1 -73.599658192693866 0 -19.403940721014191 0 1 0 I I #
point $-1 -73.599658192693866 42.569744009686325 -19.403940721014191 #
straight-curve $-1 -53.460929492143904 -6.8373010205094893 -19.403940721014191 0 -1 0 I I #
straight-curve $-1 -53.460929492143904 -6.8373010205094893 19.403940721014191 0 1 0 I I #
straight-curve $-1 -73.599658192693866 -10.101569504369811 0 0 0 -1 I I #
point $-1 -73.599658192693866 -10.101569504369811 -19.403940721014191 #
point $-1 -73.599658192693866 -10.101569504369811 19.403940721014191 #
coedge $-1 $438 $440 $450 $498 reversed $334 $-1 #
vertex $-1 $498 $514 #
straight-curve $-1 97.474801712217527 -3.7618625676579462 0 0 0 -1 I I #
straight-curve $-1 97.474801712217527 -8.5387957203483111 -19.403940721014191 0 -1 0 I I #
point $-1 97.474801712217527 -3.7618625676579462 -19.403940721014191 #
point $-1 97.474801712217527 -13.315728873038676 -19.403940721014191 #
edge $-1 $454 -4.7769331526903649 $493 4.7769331526903649 $492 $515 forward 7 unknown #
straight-curve $-1 85.537229952455689 -3.7618625676579462 19.403940721014191 -1 0 0 I I #
straight-curve $-1 97.474801712217527 -13.315728873038676 0 0 0 -1 I I #
point $-1 97.474801712217527 -13.315728873038676 19.403940721014191 #
straight-curve $-1 25.603767187704591 42.569744009686325 82.449539436040979 0 0 -1 I I #
point $-1 25.603767187704591 42.569744009686325 19.403940721014191 #
straight-curve $-1 8.6842436770316951 42.569744009686325 13.324603602115335 -1 0 0 I I #
point $-1 25.603767187704591 42.569744009686325 13.324603602115332 #
point $-1 13.8390817110743 37.160748094166735 14.133549269674392 #
point $-1 20.897892997052466 37.160748094166735 14.133549269674392 #
straight-curve $-1 9.1332075204221894 -42.569744009686325 46.747547709404046 0 0 -1 I I #
point $-1 9.1332075204221894 -42.569744009686325 19.403940721014191 #
straight-curve $-1 8.6842436770316951 -42.569744009686325 13.324603602115364 1 0 0 I I #
point $-1 9.1332075204221894 -42.569744009686325 13.324603602115356 #
point $-1 13.8390817110743 -37.160748094166735 14.133549269674406 #
point $-1 20.897892997052466 -37.160748094166735 14.133549269674406 #
point $-1 97.474801712217527 -3.7618625676579462 19.403940721014191 #
straight-curve $-1 97.474801712217527 -8.5387957203483111 19.403940721014191 0 1 0 I I #
End-of-ACIS-data 