500 0 20 0           
7 Unknown 11 ACIS 5.0 NT 24 Fri Mar 26 01:13:35 1999 
-1 9.9999999999999995e-007 1e-010 
body $-1 $20 $-1 $21 #
body $-1 $22 $-1 $23 #
body $-1 $24 $-1 $25 #
body $-1 $26 $-1 $27 #
body $-1 $28 $-1 $29 #
body $-1 $30 $-1 $31 #
body $-1 $32 $-1 $33 #
body $-1 $34 $-1 $35 #
body $-1 $36 $-1 $37 #
body $-1 $38 $-1 $39 #
body $-1 $40 $-1 $41 #
body $-1 $42 $-1 $43 #
body $-1 $44 $-1 $45 #
body $-1 $46 $-1 $47 #
body $-1 $48 $-1 $49 #
body $-1 $50 $-1 $51 #
body $-1 $52 $-1 $53 #
body $-1 $54 $-1 $55 #
body $-1 $56 $-1 $57 #
body $-1 $58 $-1 $59 #
lump $-1 $-1 $60 $0 #
transform $-1 1 0 0 0 1 0 0 0 1 64.6638386181219 38.369276451442623 13.18141029568161 1 rotate no_reflect no_shear #
lump $-1 $-1 $61 $1 #
transform $-1 1 0 0 0 1 0 0 0 1 64.6638386181219 38.369276451442623 13.18141029568161 1 rotate no_reflect no_shear #
lump $-1 $-1 $62 $2 #
transform $-1 1 0 0 0 1 0 0 0 1 64.6638386181219 38.369276451442623 13.18141029568161 1 rotate no_reflect no_shear #
lump $-1 $-1 $63 $3 #
transform $-1 1 0 0 0 1 0 0 0 1 64.6638386181219 38.369276451442623 13.18141029568161 1 rotate no_reflect no_shear #
lump $-1 $-1 $64 $4 #
transform $-1 1 0 0 0 1 0 0 0 1 64.6638386181219 38.369276451442623 13.18141029568161 1 rotate no_reflect no_shear #
lump $-1 $-1 $65 $5 #
transform $-1 1 0 0 0 1 0 0 0 1 64.6638386181219 38.369276451442623 13.18141029568161 1 rotate no_reflect no_shear #
lump $-1 $-1 $66 $6 #
transform $-1 1 0 0 0 1 0 0 0 1 64.6638386181219 38.369276451442623 13.18141029568161 1 rotate no_reflect no_shear #
lump $-1 $-1 $67 $7 #
transform $-1 1 0 0 0 1 0 0 0 1 64.6638386181219 38.369276451442623 13.18141029568161 1 rotate no_reflect no_shear #
lump $-1 $-1 $68 $8 #
transform $-1 1 0 0 0 1 0 0 0 1 64.6638386181219 38.369276451442623 13.18141029568161 1 rotate no_reflect no_shear #
lump $-1 $-1 $69 $9 #
transform $-1 1 0 0 0 1 0 0 0 1 64.6638386181219 38.369276451442623 13.18141029568161 1 rotate no_reflect no_shear #
lump $-1 $-1 $70 $10 #
transform $-1 1 0 0 0 1 0 0 0 1 64.6638386181219 38.369276451442623 13.18141029568161 1 rotate no_reflect no_shear #
lump $-1 $-1 $71 $11 #
transform $-1 1 0 0 0 1 0 0 0 1 64.6638386181219 38.369276451442623 13.18141029568161 1 rotate no_reflect no_shear #
lump $-1 $-1 $72 $12 #
transform $-1 1 0 0 0 1 0 0 0 1 64.6638386181219 38.369276451442623 13.18141029568161 1 rotate no_reflect no_shear #
lump $-1 $-1 $73 $13 #
transform $-1 1 0 0 0 1 0 0 0 1 64.6638386181219 38.369276451442623 13.18141029568161 1 rotate no_reflect no_shear #
lump $-1 $-1 $74 $14 #
transform $-1 1 0 0 0 1 0 0 0 1 64.6638386181219 38.369276451442623 13.18141029568161 1 rotate no_reflect no_shear #
lump $-1 $-1 $75 $15 #
transform $-1 1 0 0 0 1 0 0 0 1 64.6638386181219 38.369276451442623 13.18141029568161 1 rotate no_reflect no_shear #
lump $-1 $-1 $76 $16 #
transform $-1 1 0 0 0 1 0 0 0 1 64.6638386181219 38.369276451442623 13.18141029568161 1 rotate no_reflect no_shear #
lump $-1 $-1 $77 $17 #
transform $-1 1 0 0 0 1 0 0 0 1 64.6638386181219 38.369276451442623 13.18141029568161 1 rotate no_reflect no_shear #
lump $-1 $-1 $78 $18 #
transform $-1 1 0 0 0 1 0 0 0 1 64.6638386181219 38.369276451442623 13.18141029568161 1 rotate no_reflect no_shear #
lump $-1 $-1 $79 $19 #
transform $-1 1 0 0 0 1 0 0 0 1 64.6638386181219 38.369276451442623 13.18141029568161 1 rotate no_reflect no_shear #
shell $-1 $-1 $-1 $80 $-1 $20 #
shell $-1 $-1 $-1 $81 $-1 $22 #
shell $-1 $-1 $-1 $82 $-1 $24 #
shell $-1 $-1 $-1 $83 $-1 $26 #
shell $-1 $-1 $-1 $84 $-1 $28 #
shell $-1 $-1 $-1 $85 $-1 $30 #
shell $-1 $-1 $-1 $86 $-1 $32 #
shell $-1 $-1 $-1 $87 $-1 $34 #
shell $-1 $-1 $-1 $88 $-1 $36 #
shell $-1 $-1 $-1 $89 $-1 $38 #
shell $-1 $-1 $-1 $90 $-1 $40 #
shell $-1 $-1 $-1 $91 $-1 $42 #
shell $-1 $-1 $-1 $92 $-1 $44 #
shell $-1 $-1 $-1 $93 $-1 $46 #
shell $-1 $-1 $-1 $94 $-1 $48 #
shell $-1 $-1 $-1 $95 $-1 $50 #
shell $-1 $-1 $-1 $96 $-1 $52 #
shell $-1 $-1 $-1 $97 $-1 $54 #
shell $-1 $-1 $-1 $98 $-1 $56 #
shell $-1 $-1 $-1 $99 $-1 $58 #
face $-1 $100 $101 $60 $-1 $102 forward single #
face $-1 $103 $104 $61 $-1 $105 forward single #
face $-1 $106 $107 $62 $-1 $108 reversed single #
face $-1 $109 $110 $63 $-1 $111 forward single #
face $-1 $112 $113 $64 $-1 $114 forward single #
face $-1 $115 $116 $65 $-1 $117 reversed single #
face $-1 $118 $119 $66 $-1 $120 forward single #
face $-1 $121 $122 $67 $-1 $123 forward single #
face $-1 $124 $125 $68 $-1 $126 reversed single #
face $-1 $127 $128 $69 $-1 $129 forward single #
face $-1 $130 $131 $70 $-1 $132 forward single #
face $-1 $133 $134 $71 $-1 $135 reversed single #
face $-1 $136 $137 $72 $-1 $138 forward single #
face $-1 $139 $140 $73 $-1 $141 forward single #
face $-1 $142 $143 $74 $-1 $144 reversed single #
face $-1 $145 $146 $75 $-1 $147 forward single #
face $-1 $148 $149 $76 $-1 $150 forward single #
face $-1 $151 $152 $77 $-1 $153 reversed single #
face $-1 $154 $155 $78 $-1 $156 forward single #
face $-1 $157 $158 $79 $-1 $159 forward single #
face $-1 $160 $161 $60 $-1 $162 reversed single #
loop $-1 $-1 $163 $80 #
plane-surface $-1 0 0 13.18141029568161 0 0 1 1 0 0 forward_v I I I I #
face $-1 $164 $165 $61 $-1 $166 reversed single #
loop $-1 $-1 $167 $81 #
plane-surface $-1 -64.6638386181219 0 0 1 0 0 0 0 -1 forward_v I I I I #
face $-1 $168 $169 $62 $-1 $170 reversed single #
loop $-1 $-1 $171 $82 #
plane-surface $-1 -26.201277765310628 -137.4400260114439 83.93064573773475 -1 0 0 0 -0.7660444514056185 0.64278759981090561 forward_v I I I I #
face $-1 $172 $173 $63 $-1 $174 forward single #
loop $-1 $175 $176 $83 #
cone-surface $-1 -40.497722036776715 -30.455559480896877 4.7091724102948715 0 0.7660444514056185 -0.64278759981090561 2.5 0 0 1 I I 0 1 2.5 forward I I I I #
face $-1 $177 $178 $64 $-1 $179 forward single #
loop $-1 $180 $181 $84 #
cone-surface $-1 -31.919855473897059 -30.455559480896877 4.7091724102948715 0 0.7660444514056185 -0.64278759981090561 2.5 0 0 1 I I 0 1 2.5 forward I I I I #
face $-1 $182 $183 $65 $-1 $184 reversed single #
loop $-1 $-1 $185 $85 #
plane-surface $-1 1.7079662345961566 -137.4400260114439 83.93064573773475 -1 0 0 0 -0.7660444514056185 0.64278759981090561 forward_v I I I I #
face $-1 $186 $187 $66 $-1 $188 forward single #
loop $-1 $189 $190 $86 #
cone-surface $-1 -12.58847803686993 -30.455559480896877 4.7091724102948715 0 0.7660444514056185 -0.64278759981090561 2.5 0 0 1 I I 0 1 2.5 forward I I I I #
face $-1 $191 $192 $67 $-1 $193 forward single #
loop $-1 $194 $195 $87 #
cone-surface $-1 -4.0106114739902665 -30.455559480896877 4.7091724102948715 0 0.7660444514056185 -0.64278759981090561 2.5 0 0 1 I I 0 1 2.5 forward I I I I #
face $-1 $196 $197 $68 $-1 $198 reversed single #
loop $-1 $-1 $199 $88 #
plane-surface $-1 29.617210234502949 -137.4400260114439 83.93064573773475 -1 0 0 0 -0.7660444514056185 0.64278759981090561 forward_v I I I I #
face $-1 $200 $201 $69 $-1 $202 forward single #
loop $-1 $203 $204 $89 #
cone-surface $-1 15.320765963036862 -30.455559480896877 4.7091724102948715 0 0.7660444514056185 -0.64278759981090561 2.5 0 0 1 I I 0 1 2.5 forward I I I I #
face $-1 $205 $206 $70 $-1 $207 forward single #
loop $-1 $208 $209 $90 #
cone-surface $-1 23.898632525916526 -30.455559480896877 4.7091724102948715 0 0.7660444514056185 -0.64278759981090561 2.5 0 0 1 I I 0 1 2.5 forward I I I I #
face $-1 $210 $211 $71 $-1 $212 reversed single #
loop $-1 $-1 $213 $91 #
plane-surface $-1 57.526454234409741 -137.4400260114439 83.93064573773475 -1 0 0 0 -0.7660444514056185 0.64278759981090561 forward_v I I I I #
face $-1 $214 $215 $72 $-1 $216 forward single #
loop $-1 $217 $218 $92 #
cone-surface $-1 43.230009962943655 -30.455559480896877 4.7091724102948715 0 0.7660444514056185 -0.64278759981090561 2.5 0 0 1 I I 0 1 2.5 forward I I I I #
face $-1 $219 $220 $73 $-1 $221 forward single #
loop $-1 $222 $223 $93 #
cone-surface $-1 51.807876525823318 -30.455559480896877 4.7091724102948715 0 0.7660444514056185 -0.64278759981090561 2.5 0 0 1 I I 0 1 2.5 forward I I I I #
face $-1 $224 $225 $74 $-1 $226 reversed single #
loop $-1 $-1 $227 $94 #
plane-surface $-1 -12.859392817028013 75.555404574840367 148.90255917826153 1 0 0 0 -0.70710678939079041 -0.70710677298230451 forward_v I I I I #
face $-1 $228 $229 $75 $-1 $230 forward single #
loop $-1 $231 $232 $95 #
cone-surface $-1 -8.71227078509515 31.643344845432164 6.4554786139355436 0 -0.70710678939079041 -0.70710677298230451 2 0 0 1 I I 0 1 2 forward I I I I #
face $-1 $233 $234 $76 $-1 $235 forward single #
loop $-1 $236 $237 $96 #
cone-surface $-1 -2.4915877371958501 31.643344845432164 6.4554786139355436 0 -0.70710678939079041 -0.70710677298230451 2 0 0 1 I I 0 1 2 forward I I I I #
face $-1 $238 $239 $77 $-1 $240 reversed single #
loop $-1 $-1 $241 $97 #
plane-surface $-1 46.149368556570607 75.555404574840367 148.90255917826153 1 0 0 0 -0.70710678939079041 -0.70710677298230451 forward_v I I I I #
face $-1 $242 $243 $78 $-1 $244 forward single #
loop $-1 $245 $246 $98 #
cone-surface $-1 50.296490588503474 31.643344845432164 6.4554786139355436 0 -0.70710678939079041 -0.70710677298230451 2 0 0 1 I I 0 1 2 forward I I I I #
face $-1 $247 $248 $79 $-1 $249 forward single #
loop $-1 $250 $251 $99 #
cone-surface $-1 56.517173636402759 31.643344845432164 6.4554786139355436 0 -0.70710678939079041 -0.70710677298230451 2 0 0 1 I I 0 1 2 forward I I I I #
face $-1 $252 $253 $60 $-1 $254 reversed single #
loop $-1 $-1 $255 $100 #
plane-surface $-1 0 0 -13.18141029568161 0 0 1 1 0 0 forward_v I I I I #
coedge $-1 $256 $257 $258 $259 forward $101 $-1 #
face $-1 $260 $261 $61 $-1 $262 reversed single #
loop $-1 $-1 $263 $103 #
plane-surface $-1 0 38.369276451442623 0 0 -1 0 0 0 -1 forward_v I I I I #
coedge $-1 $264 $265 $266 $267 forward $104 $-1 #
face $-1 $268 $269 $62 $-1 $270 reversed single #
loop $-1 $-1 $271 $106 #
plane-surface $-1 -36.20878875533689 -38.36927645144263 0.8004184979300959 0 -0.7660444514056185 0.64278759981090561 1 0 0 forward_v I I I I #
coedge $-1 $272 $273 $274 $275 reversed $107 $-1 #
face $-1 $-1 $276 $63 $-1 $277 forward single #
loop $-1 $278 $279 $109 #
cone-surface $-1 -40.497722036776715 -26.778729635648475 1.6239459240202532 0 0.7660444514056185 -0.64278759981090561 1.25 0 0 1 I I -0.70710678118654746 0.70710678118654746 1.25 forward I I I I #
loop $-1 $-1 $280 $83 #
coedge $-1 $176 $176 $281 $282 reversed $110 $-1 #
face $-1 $-1 $283 $64 $-1 $284 forward single #
loop $-1 $285 $286 $112 #
cone-surface $-1 -31.919855473897059 -26.778729635648475 1.6239459240202532 0 0.7660444514056185 -0.64278759981090561 1.25 0 0 1 I I -0.70710678118654746 0.70710678118654746 1.25 forward I I I I #
loop $-1 $-1 $287 $84 #
coedge $-1 $181 $181 $288 $289 reversed $113 $-1 #
face $-1 $290 $291 $65 $-1 $292 reversed single #
loop $-1 $-1 $293 $115 #
plane-surface $-1 -8.2995447554301052 -38.36927645144263 0.8004184979300959 0 -0.7660444514056185 0.64278759981090561 1 0 0 forward_v I I I I #
coedge $-1 $294 $295 $296 $297 reversed $116 $-1 #
face $-1 $-1 $298 $66 $-1 $299 forward single #
loop $-1 $300 $301 $118 #
cone-surface $-1 -12.58847803686993 -26.778729635648475 1.6239459240202532 0 0.7660444514056185 -0.64278759981090561 1.25 0 0 1 I I -0.70710678118654746 0.70710678118654746 1.25 forward I I I I #
loop $-1 $-1 $302 $86 #
coedge $-1 $190 $190 $303 $304 reversed $119 $-1 #
face $-1 $-1 $305 $67 $-1 $306 forward single #
loop $-1 $307 $308 $121 #
cone-surface $-1 -4.0106114739902665 -26.778729635648475 1.6239459240202532 0 0.7660444514056185 -0.64278759981090561 1.25 0 0 1 I I -0.70710678118654746 0.70710678118654746 1.25 forward I I I I #
loop $-1 $-1 $309 $87 #
coedge $-1 $195 $195 $310 $311 reversed $122 $-1 #
face $-1 $312 $313 $68 $-1 $314 reversed single #
loop $-1 $-1 $315 $124 #
plane-surface $-1 19.609699244476687 -38.36927645144263 0.8004184979300959 0 -0.7660444514056185 0.64278759981090561 1 0 0 forward_v I I I I #
coedge $-1 $316 $317 $318 $319 reversed $125 $-1 #
face $-1 $-1 $320 $69 $-1 $321 forward single #
loop $-1 $322 $323 $127 #
cone-surface $-1 15.320765963036862 -26.778729635648475 1.6239459240202532 0 0.7660444514056185 -0.64278759981090561 1.25 0 0 1 I I -0.70710678118654746 0.70710678118654746 1.25 forward I I I I #
loop $-1 $-1 $324 $89 #
coedge $-1 $204 $204 $325 $326 reversed $128 $-1 #
face $-1 $-1 $327 $70 $-1 $328 forward single #
loop $-1 $329 $330 $130 #
cone-surface $-1 23.898632525916526 -26.778729635648475 1.6239459240202532 0 0.7660444514056185 -0.64278759981090561 1.25 0 0 1 I I -0.70710678118654746 0.70710678118654746 1.25 forward I I I I #
loop $-1 $-1 $331 $90 #
coedge $-1 $209 $209 $332 $333 reversed $131 $-1 #
face $-1 $334 $335 $71 $-1 $336 reversed single #
loop $-1 $-1 $337 $133 #
plane-surface $-1 47.518943244383479 -38.36927645144263 0.8004184979300959 0 -0.7660444514056185 0.64278759981090561 1 0 0 forward_v I I I I #
coedge $-1 $338 $339 $340 $341 reversed $134 $-1 #
face $-1 $-1 $342 $72 $-1 $343 forward single #
loop $-1 $344 $345 $136 #
cone-surface $-1 43.230009962943655 -26.778729635648475 1.6239459240202532 0 0.7660444514056185 -0.64278759981090561 1.25 0 0 1 I I -0.70710678118654746 0.70710678118654746 1.25 forward I I I I #
loop $-1 $-1 $346 $92 #
coedge $-1 $218 $218 $347 $348 reversed $137 $-1 #
face $-1 $-1 $349 $73 $-1 $350 forward single #
loop $-1 $351 $352 $139 #
cone-surface $-1 51.807876525823318 -26.778729635648475 1.6239459240202532 0 0.7660444514056185 -0.64278759981090561 1.25 0 0 1 I I -0.70710678118654746 0.70710678118654746 1.25 forward I I I I #
loop $-1 $-1 $353 $93 #
coedge $-1 $223 $223 $354 $355 reversed $140 $-1 #
face $-1 $356 $357 $74 $-1 $358 reversed single #
loop $-1 $-1 $359 $142 #
plane-surface $-1 -5.6019292611455 -15.893074055048402 57.454082670444137 0 0.70710678939079041 0.70710677298230451 1 0 0 forward_v I I I I #
coedge $-1 $360 $361 $362 $363 reversed $143 $-1 #
face $-1 $-1 $364 $75 $-1 $365 forward single #
loop $-1 $366 $367 $145 #
cone-surface $-1 -8.71227078509515 29.205146029571132 4.0172798546531663 0 -0.70710678939079041 -0.70710677298230451 1 0 0 1 I I -0.70710678118654746 0.70710678118654746 1 forward I I I I #
loop $-1 $-1 $368 $95 #
coedge $-1 $232 $232 $369 $370 reversed $146 $-1 #
face $-1 $-1 $371 $76 $-1 $372 forward single #
loop $-1 $373 $374 $148 #
cone-surface $-1 -2.4915877371958501 29.205146029571132 4.0172798546531663 0 -0.70710678939079041 -0.70710677298230451 1 0 0 1 I I -0.70710678118654746 0.70710678118654746 1 forward I I I I #
loop $-1 $-1 $375 $96 #
coedge $-1 $237 $237 $376 $377 reversed $149 $-1 #
face $-1 $378 $379 $77 $-1 $380 reversed single #
loop $-1 $-1 $381 $151 #
plane-surface $-1 53.406832112453117 -15.893074055048402 57.454082670444137 0 0.70710678939079041 0.70710677298230451 1 0 0 forward_v I I I I #
coedge $-1 $382 $383 $384 $385 reversed $152 $-1 #
face $-1 $-1 $386 $78 $-1 $387 forward single #
loop $-1 $388 $389 $154 #
cone-surface $-1 50.296490588503474 29.205146029571132 4.0172798546531663 0 -0.70710678939079041 -0.70710677298230451 1 0 0 1 I I -0.70710678118654746 0.70710678118654746 1 forward I I I I #
loop $-1 $-1 $390 $98 #
coedge $-1 $246 $246 $391 $392 reversed $155 $-1 #
face $-1 $-1 $393 $79 $-1 $394 forward single #
loop $-1 $395 $396 $157 #
cone-surface $-1 56.517173636402759 29.205146029571132 4.0172798546531663 0 -0.70710678939079041 -0.70710677298230451 1 0 0 1 I I -0.70710678118654746 0.70710678118654746 1 forward I I I I #
loop $-1 $-1 $397 $99 #
coedge $-1 $251 $251 $398 $399 reversed $158 $-1 #
face $-1 $400 $401 $60 $-1 $402 reversed single #
loop $-1 $-1 $403 $160 #
plane-surface $-1 0 -38.369276451442623 0 0 1 0 0 0 1 forward_v I I I I #
coedge $-1 $404 $405 $406 $407 forward $161 $-1 #
coedge $-1 $408 $163 $409 $410 forward $101 $-1 #
coedge $-1 $163 $408 $411 $412 forward $101 $-1 #
coedge $-1 $413 $414 $163 $259 reversed $415 $-1 #
edge $-1 $416 -38.369276451442623 $417 38.369276451442623 $258 $418 forward 7 unknown #
face $-1 $419 $420 $61 $-1 $421 reversed single #
loop $-1 $-1 $266 $164 #
plane-surface $-1 -70.318915862645184 0 9.0349803972561009 0 0 1 1 0 0 forward_v I I I I #
coedge $-1 $422 $423 $264 $424 forward $165 $-1 #
coedge $-1 $425 $167 $263 $424 reversed $104 $-1 #
coedge $-1 $167 $425 $426 $427 reversed $104 $-1 #
coedge $-1 $428 $429 $167 $267 reversed $261 $-1 #
edge $-1 $430 -38.369276451442623 $431 38.369276451442623 $266 $432 forward 7 unknown #
face $-1 $433 $434 $62 $-1 $435 reversed single #
loop $-1 $-1 $436 $168 #
plane-surface $-1 -46.216299745363152 -137.4400260114439 83.93064573773475 1 0 0 0 0.7660444514056185 -0.64278759981090561 forward_v I I I I #
coedge $-1 $437 $438 $439 $440 reversed $169 $-1 #
coedge $-1 $273 $171 $441 $442 reversed $107 $-1 #
coedge $-1 $171 $272 $437 $443 reversed $107 $-1 #
coedge $-1 $439 $444 $171 $275 forward $445 $-1 #
edge $-1 $446 30.350736554279329 $447 40.739621933388065 $274 $448 forward 7 unknown #
loop $-1 $-1 $281 $172 #
plane-surface $-1 -36.20878875533689 -38.36927645144263 0.8004184979300959 0 -0.7660444514056185 0.64278759981090561 1 0 0 forward_v I I I I #
loop $-1 $-1 $449 $109 #
coedge $-1 $279 $279 $280 $450 reversed $173 $-1 #
coedge $-1 $280 $280 $279 $450 forward $175 $-1 #
coedge $-1 $281 $281 $176 $282 forward $276 $-1 #
edge $-1 $451 2.7215366010779664e-016 $451 6.2831853071796004 $281 $452 forward 7 unknown #
loop $-1 $-1 $288 $177 #
plane-surface $-1 -36.20878875533689 -38.36927645144263 0.8004184979300959 0 -0.7660444514056185 0.64278759981090561 1 0 0 forward_v I I I I #
loop $-1 $-1 $453 $112 #
coedge $-1 $286 $286 $287 $454 reversed $178 $-1 #
coedge $-1 $287 $287 $286 $454 forward $180 $-1 #
coedge $-1 $288 $288 $181 $289 forward $283 $-1 #
edge $-1 $455 2.7215366010779664e-016 $455 6.2831853071796004 $288 $456 forward 7 unknown #
face $-1 $457 $458 $65 $-1 $459 reversed single #
loop $-1 $-1 $460 $182 #
plane-surface $-1 -18.307055745456367 -137.4400260114439 83.93064573773475 1 0 0 0 0.7660444514056185 -0.64278759981090561 forward_v I I I I #
coedge $-1 $461 $462 $463 $464 reversed $183 $-1 #
coedge $-1 $295 $185 $465 $466 reversed $116 $-1 #
coedge $-1 $185 $294 $461 $467 reversed $116 $-1 #
coedge $-1 $463 $468 $185 $297 forward $469 $-1 #
edge $-1 $470 30.350736554279329 $471 40.739621933388065 $296 $472 forward 7 unknown #
loop $-1 $-1 $303 $186 #
plane-surface $-1 -8.2995447554301052 -38.36927645144263 0.8004184979300959 0 -0.7660444514056185 0.64278759981090561 1 0 0 forward_v I I I I #
loop $-1 $-1 $473 $118 #
coedge $-1 $301 $301 $302 $474 reversed $187 $-1 #
coedge $-1 $302 $302 $301 $474 forward $189 $-1 #
coedge $-1 $303 $303 $190 $304 forward $298 $-1 #
edge $-1 $475 2.7215366010779664e-016 $475 6.2831853071796004 $303 $476 forward 7 unknown #
loop $-1 $-1 $310 $191 #
plane-surface $-1 -8.2995447554301052 -38.36927645144263 0.8004184979300959 0 -0.7660444514056185 0.64278759981090561 1 0 0 forward_v I I I I #
loop $-1 $-1 $477 $121 #
coedge $-1 $308 $308 $309 $478 reversed $192 $-1 #
coedge $-1 $309 $309 $308 $478 forward $194 $-1 #
coedge $-1 $310 $310 $195 $311 forward $305 $-1 #
edge $-1 $479 2.7215366010779664e-016 $479 6.2831853071796004 $310 $480 forward 7 unknown #
face $-1 $481 $482 $68 $-1 $483 reversed single #
loop $-1 $-1 $484 $196 #
plane-surface $-1 9.6021882544504251 -137.4400260114439 83.93064573773475 1 0 0 0 0.7660444514056185 -0.64278759981090561 forward_v I I I I #
coedge $-1 $485 $486 $487 $488 reversed $197 $-1 #
coedge $-1 $317 $199 $489 $490 reversed $125 $-1 #
coedge $-1 $199 $316 $485 $491 reversed $125 $-1 #
coedge $-1 $487 $492 $199 $319 forward $493 $-1 #
edge $-1 $494 30.350736554279329 $495 40.739621933388065 $318 $496 forward 7 unknown #
loop $-1 $-1 $325 $200 #
plane-surface $-1 19.609699244476687 -38.36927645144263 0.8004184979300959 0 -0.7660444514056185 0.64278759981090561 1 0 0 forward_v I I I I #
loop $-1 $-1 $497 $127 #
coedge $-1 $323 $323 $324 $498 reversed $201 $-1 #
coedge $-1 $324 $324 $323 $498 forward $203 $-1 #
coedge $-1 $325 $325 $204 $326 forward $320 $-1 #
edge $-1 $499 2.7215366010779664e-016 $499 6.2831853071796004 $325 $500 forward 7 unknown #
loop $-1 $-1 $332 $205 #
plane-surface $-1 19.609699244476687 -38.36927645144263 0.8004184979300959 0 -0.7660444514056185 0.64278759981090561 1 0 0 forward_v I I I I #
loop $-1 $-1 $501 $130 #
coedge $-1 $330 $330 $331 $502 reversed $206 $-1 #
coedge $-1 $331 $331 $330 $502 forward $208 $-1 #
coedge $-1 $332 $332 $209 $333 forward $327 $-1 #
edge $-1 $503 2.7215366010779664e-016 $503 6.2831853071796004 $332 $504 forward 7 unknown #
face $-1 $505 $506 $71 $-1 $507 reversed single #
loop $-1 $-1 $508 $210 #
plane-surface $-1 37.511432254357217 -137.4400260114439 83.93064573773475 1 0 0 0 0.7660444514056185 -0.64278759981090561 forward_v I I I I #
coedge $-1 $509 $510 $511 $512 reversed $211 $-1 #
coedge $-1 $339 $213 $513 $514 reversed $134 $-1 #
coedge $-1 $213 $338 $509 $515 reversed $134 $-1 #
coedge $-1 $511 $516 $213 $341 forward $517 $-1 #
edge $-1 $518 30.350736554279329 $519 40.739621933388065 $340 $520 forward 7 unknown #
loop $-1 $-1 $347 $214 #
plane-surface $-1 47.518943244383479 -38.36927645144263 0.8004184979300959 0 -0.7660444514056185 0.64278759981090561 1 0 0 forward_v I I I I #
loop $-1 $-1 $521 $136 #
coedge $-1 $345 $345 $346 $522 reversed $215 $-1 #
coedge $-1 $346 $346 $345 $522 forward $217 $-1 #
coedge $-1 $347 $347 $218 $348 forward $342 $-1 #
edge $-1 $523 2.7215366010779664e-016 $523 6.2831853071796004 $347 $524 forward 7 unknown #
loop $-1 $-1 $354 $219 #
plane-surface $-1 47.518943244383479 -38.36927645144263 0.8004184979300959 0 -0.7660444514056185 0.64278759981090561 1 0 0 forward_v I I I I #
loop $-1 $-1 $525 $139 #
coedge $-1 $352 $352 $353 $526 reversed $220 $-1 #
coedge $-1 $353 $353 $352 $526 forward $222 $-1 #
coedge $-1 $354 $354 $223 $355 forward $349 $-1 #
edge $-1 $527 2.7215366010779664e-016 $527 6.2831853071796004 $354 $528 forward 7 unknown #
face $-1 $529 $530 $74 $-1 $531 forward single #
loop $-1 $-1 $532 $224 #
plane-surface $-1 1.6555342947370129 75.555404574840367 148.90255917826153 -1 0 0 0 0.70710678939079041 0.70710677298230451 forward_v I I I I #
coedge $-1 $533 $534 $535 $536 reversed $225 $-1 #
coedge $-1 $361 $227 $537 $538 reversed $143 $-1 #
coedge $-1 $227 $360 $533 $539 reversed $143 $-1 #
coedge $-1 $535 $540 $227 $363 forward $530 $-1 #
edge $-1 $541 -0.59157416402243967 $542 9.3981049950579845 $362 $543 forward 7 unknown #
loop $-1 $-1 $369 $228 #
plane-surface $-1 -5.6019292611455 -15.893074055048402 57.454082670444137 0 0.70710678939079041 0.70710677298230451 1 0 0 forward_v I I I I #
loop $-1 $-1 $544 $145 #
coedge $-1 $367 $367 $368 $545 reversed $229 $-1 #
coedge $-1 $368 $368 $367 $545 forward $231 $-1 #
coedge $-1 $369 $369 $232 $370 forward $364 $-1 #
edge $-1 $546 -1.2560738649313782e-015 $546 6.2831853071795996 $369 $547 forward 7 unknown #
loop $-1 $-1 $376 $233 #
plane-surface $-1 -5.6019292611455 -15.893074055048402 57.454082670444137 0 0.70710678939079041 0.70710677298230451 1 0 0 forward_v I I I I #
loop $-1 $-1 $548 $148 #
coedge $-1 $374 $374 $375 $549 reversed $234 $-1 #
coedge $-1 $375 $375 $374 $549 forward $236 $-1 #
coedge $-1 $376 $376 $237 $377 forward $371 $-1 #
edge $-1 $550 -1.2560738649313782e-015 $550 6.2831853071795996 $376 $551 forward 7 unknown #
face $-1 $552 $553 $77 $-1 $554 forward single #
loop $-1 $-1 $555 $238 #
plane-surface $-1 60.664295668335626 75.555404574840367 148.90255917826153 -1 0 0 0 0.70710678939079041 0.70710677298230451 forward_v I I I I #
coedge $-1 $556 $557 $558 $559 reversed $239 $-1 #
coedge $-1 $383 $241 $560 $561 reversed $152 $-1 #
coedge $-1 $241 $382 $556 $562 reversed $152 $-1 #
coedge $-1 $558 $563 $241 $385 forward $553 $-1 #
edge $-1 $564 -0.59157416402243967 $565 9.3981049950579845 $384 $566 forward 7 unknown #
loop $-1 $-1 $391 $242 #
plane-surface $-1 53.406832112453117 -15.893074055048402 57.454082670444137 0 0.70710678939079041 0.70710677298230451 1 0 0 forward_v I I I I #
loop $-1 $-1 $567 $154 #
coedge $-1 $389 $389 $390 $568 reversed $243 $-1 #
coedge $-1 $390 $390 $389 $568 forward $245 $-1 #
coedge $-1 $391 $391 $246 $392 forward $386 $-1 #
edge $-1 $569 -1.2560738649313782e-015 $569 6.2831853071795996 $391 $570 forward 7 unknown #
loop $-1 $-1 $398 $247 #
plane-surface $-1 53.406832112453117 -15.893074055048402 57.454082670444137 0 0.70710678939079041 0.70710677298230451 1 0 0 forward_v I I I I #
loop $-1 $-1 $571 $157 #
coedge $-1 $396 $396 $397 $572 reversed $248 $-1 #
coedge $-1 $397 $397 $396 $572 forward $250 $-1 #
coedge $-1 $398 $398 $251 $399 forward $393 $-1 #
edge $-1 $573 -1.2560738649313782e-015 $573 6.2831853071795996 $398 $574 forward 7 unknown #
face $-1 $575 $576 $60 $-1 $577 reversed single #
loop $-1 $-1 $578 $252 #
plane-surface $-1 -64.6638386181219 0 0 1 0 0 0 0 -1 forward_v I I I I #
coedge $-1 $579 $411 $580 $581 forward $253 $-1 #
coedge $-1 $582 $255 $579 $583 forward $161 $-1 #
coedge $-1 $255 $582 $584 $585 forward $161 $-1 #
coedge $-1 $414 $413 $255 $407 reversed $415 $-1 #
edge $-1 $586 -38.369276451442623 $587 38.369276451442623 $406 $588 forward 7 unknown #
coedge $-1 $257 $256 $589 $590 forward $101 $-1 #
coedge $-1 $591 $592 $256 $410 reversed $576 $-1 #
edge $-1 $417 -64.6638386181219 $593 64.6638386181219 $409 $594 forward 7 unknown #
coedge $-1 $403 $595 $257 $412 reversed $253 $-1 #
edge $-1 $596 -64.6638386181219 $416 64.6638386181219 $411 $597 forward 7 unknown #
coedge $-1 $406 $258 $595 $598 forward $415 $-1 #
coedge $-1 $258 $406 $591 $599 reversed $415 $-1 #
loop $-1 $-1 $413 $575 #
vertex $-1 $259 $600 #
vertex $-1 $259 $601 #
straight-curve $-1 64.6638386181219 0 13.18141029568161 0 1 0 I I #
face $-1 $602 $603 $61 $-1 $604 forward single #
loop $-1 $-1 $605 $260 #
plane-surface $-1 -75.973993107168468 0 11.108195346468856 1 0 0 0 0 -1 forward_v I I I I #
coedge $-1 $606 $263 $429 $607 reversed $165 $-1 #
coedge $-1 $263 $606 $608 $609 reversed $165 $-1 #
edge $-1 $610 -13.18141029568161 $431 -9.0349803972561009 $263 $611 forward 7 unknown #
coedge $-1 $265 $264 $612 $613 reversed $104 $-1 #
coedge $-1 $614 $615 $265 $427 forward $616 $-1 #
edge $-1 $430 9.0349803972561009 $617 13.18141029568161 $426 $618 forward 7 unknown #
coedge $-1 $619 $266 $615 $620 forward $261 $-1 #
coedge $-1 $266 $619 $422 $607 forward $261 $-1 #
vertex $-1 $427 $621 #
vertex $-1 $424 $622 #
straight-curve $-1 -64.6638386181219 0 9.0349803972561009 0 1 0 I I #
face $-1 $-1 $445 $62 $-1 $623 forward single #
loop $-1 $-1 $624 $268 #
plane-surface $-1 0 -38.369276451442623 0 0 1 0 0 0 1 forward_v I I I I #
coedge $-1 $625 $626 $627 $628 reversed $269 $-1 #
coedge $-1 $629 $271 $273 $443 forward $169 $-1 #
coedge $-1 $271 $629 $625 $630 forward $169 $-1 #
coedge $-1 $627 $274 $271 $440 forward $445 $-1 #
edge $-1 $447 8.0968833876421833 $631 28.111905367694707 $439 $632 forward 7 unknown #
coedge $-1 $633 $634 $272 $442 forward $434 $-1 #
edge $-1 $635 -41.164904370937272 $446 -28.783912573185766 $441 $636 forward 7 unknown #
edge $-1 $447 -16.162236767113942 $635 -1.1030930024383267e-014 $273 $637 forward 7 unknown #
coedge $-1 $274 $627 $633 $638 forward $445 $-1 #
loop $-1 $-1 $627 $433 #
vertex $-1 $442 $639 #
vertex $-1 $275 $640 #
straight-curve $-1 -26.201277765310628 -68.720013005721952 13.181410295681609 0 1 0 I I #
coedge $-1 $449 $449 $-1 $641 reversed $278 $-1 #
edge $-1 $642 0 $642 6.2831853071796004 $279 $643 forward 7 unknown #
vertex $-1 $282 $644 #
ellipse-curve $-1 -40.497722036776715 -33.174833761888259 6.9909143968058576 0 -0.7660444514056185 0.64278759981090561 2.5 0 0 1 I I #
coedge $-1 $453 $453 $-1 $645 reversed $285 $-1 #
edge $-1 $646 0 $646 6.2831853071796004 $286 $647 forward 7 unknown #
vertex $-1 $289 $648 #
ellipse-curve $-1 -31.919855473897059 -33.174833761888259 6.9909143968058576 0 -0.7660444514056185 0.64278759981090561 2.5 0 0 1 I I #
face $-1 $-1 $469 $65 $-1 $649 forward single #
loop $-1 $-1 $650 $290 #
plane-surface $-1 0 -38.369276451442623 0 0 1 0 0 0 1 forward_v I I I I #
coedge $-1 $651 $652 $653 $654 reversed $291 $-1 #
coedge $-1 $655 $293 $295 $467 forward $183 $-1 #
coedge $-1 $293 $655 $651 $656 forward $183 $-1 #
coedge $-1 $653 $296 $293 $464 forward $469 $-1 #
edge $-1 $471 -5.8577386123112092 $657 14.157283367741314 $463 $658 forward 7 unknown #
coedge $-1 $659 $660 $294 $466 forward $458 $-1 #
edge $-1 $661 -41.164904370937272 $470 -28.783912573185766 $465 $662 forward 7 unknown #
edge $-1 $471 -16.162236767113942 $661 -1.1030930024383267e-014 $295 $663 forward 7 unknown #
coedge $-1 $296 $653 $659 $664 forward $469 $-1 #
loop $-1 $-1 $653 $457 #
vertex $-1 $466 $665 #
vertex $-1 $297 $666 #
straight-curve $-1 1.7079662345961566 -68.720013005721952 13.181410295681609 0 1 0 I I #
coedge $-1 $473 $473 $-1 $667 reversed $300 $-1 #
edge $-1 $668 0 $668 6.2831853071796004 $301 $669 forward 7 unknown #
vertex $-1 $304 $670 #
ellipse-curve $-1 -12.58847803686993 -33.174833761888259 6.9909143968058576 0 -0.7660444514056185 0.64278759981090561 2.5 0 0 1 I I #
coedge $-1 $477 $477 $-1 $671 reversed $307 $-1 #
edge $-1 $672 0 $672 6.2831853071796004 $308 $673 forward 7 unknown #
vertex $-1 $311 $674 #
ellipse-curve $-1 -4.0106114739902665 -33.174833761888259 6.9909143968058576 0 -0.7660444514056185 0.64278759981090561 2.5 0 0 1 I I #
face $-1 $-1 $493 $68 $-1 $675 forward single #
loop $-1 $-1 $676 $312 #
plane-surface $-1 0 -38.369276451442623 0 0 1 0 0 0 1 forward_v I I I I #
coedge $-1 $677 $678 $679 $680 reversed $313 $-1 #
coedge $-1 $681 $315 $317 $491 forward $197 $-1 #
coedge $-1 $315 $681 $677 $682 forward $197 $-1 #
coedge $-1 $679 $318 $315 $488 forward $493 $-1 #
edge $-1 $495 -19.812360612264605 $683 0.20266136778791832 $487 $684 forward 7 unknown #
coedge $-1 $685 $686 $316 $490 forward $482 $-1 #
edge $-1 $687 -41.164904370937272 $494 -28.783912573185766 $489 $688 forward 7 unknown #
edge $-1 $495 -16.162236767113942 $687 -1.1030930024383267e-014 $317 $689 forward 7 unknown #
coedge $-1 $318 $679 $685 $690 forward $493 $-1 #
loop $-1 $-1 $679 $481 #
vertex $-1 $490 $691 #
vertex $-1 $319 $692 #
straight-curve $-1 29.617210234502949 -68.720013005721952 13.181410295681609 0 1 0 I I #
coedge $-1 $497 $497 $-1 $693 reversed $322 $-1 #
edge $-1 $694 0 $694 6.2831853071796004 $323 $695 forward 7 unknown #
vertex $-1 $326 $696 #
ellipse-curve $-1 15.320765963036862 -33.174833761888259 6.9909143968058576 0 -0.7660444514056185 0.64278759981090561 2.5 0 0 1 I I #
coedge $-1 $501 $501 $-1 $697 reversed $329 $-1 #
edge $-1 $698 0 $698 6.2831853071796004 $330 $699 forward 7 unknown #
vertex $-1 $333 $700 #
ellipse-curve $-1 23.898632525916526 -33.174833761888259 6.9909143968058576 0 -0.7660444514056185 0.64278759981090561 2.5 0 0 1 I I #
face $-1 $-1 $517 $71 $-1 $701 forward single #
loop $-1 $-1 $702 $334 #
plane-surface $-1 0 -38.369276451442623 0 0 1 0 0 0 1 forward_v I I I I #
coedge $-1 $703 $704 $705 $706 reversed $335 $-1 #
coedge $-1 $707 $337 $339 $515 forward $211 $-1 #
coedge $-1 $337 $707 $703 $708 forward $211 $-1 #
coedge $-1 $705 $340 $337 $512 forward $517 $-1 #
edge $-1 $519 -33.766982612218001 $709 -13.751960632165478 $511 $710 forward 7 unknown #
coedge $-1 $711 $712 $338 $514 forward $506 $-1 #
edge $-1 $713 -41.164904370937272 $518 -28.783912573185766 $513 $714 forward 7 unknown #
edge $-1 $519 -16.162236767113942 $713 -1.1030930024383267e-014 $339 $715 forward 7 unknown #
coedge $-1 $340 $705 $711 $716 forward $517 $-1 #
loop $-1 $-1 $705 $505 #
vertex $-1 $514 $717 #
vertex $-1 $341 $718 #
straight-curve $-1 57.526454234409741 -68.720013005721952 13.181410295681609 0 1 0 I I #
coedge $-1 $521 $521 $-1 $719 reversed $344 $-1 #
edge $-1 $720 0 $720 6.2831853071796004 $345 $721 forward 7 unknown #
vertex $-1 $348 $722 #
ellipse-curve $-1 43.230009962943655 -33.174833761888259 6.9909143968058576 0 -0.7660444514056185 0.64278759981090561 2.5 0 0 1 I I #
coedge $-1 $525 $525 $-1 $723 reversed $351 $-1 #
edge $-1 $724 0 $724 6.2831853071796004 $352 $725 forward 7 unknown #
vertex $-1 $355 $726 #
ellipse-curve $-1 51.807876525823318 -33.174833761888259 6.9909143968058576 0 -0.7660444514056185 0.64278759981090561 2.5 0 0 1 I I #
face $-1 $-1 $727 $74 $-1 $728 reversed single #
loop $-1 $-1 $362 $356 #
plane-surface $-1 0 0 13.18141029568161 0 0 1 1 0 0 forward_v I I I I #
coedge $-1 $729 $730 $731 $732 reversed $357 $-1 #
coedge $-1 $733 $359 $361 $539 forward $225 $-1 #
coedge $-1 $359 $733 $729 $734 forward $225 $-1 #
coedge $-1 $731 $362 $359 $536 forward $530 $-1 #
edge $-1 $542 -10.058428186455263 $735 4.4564989253097629 $535 $736 forward 7 unknown #
coedge $-1 $737 $738 $360 $538 forward $727 $-1 #
edge $-1 $739 -71.259548684341112 $541 -61.269869293449155 $537 $740 forward 7 unknown #
edge $-1 $542 62.611012988442333 $739 76.738552902885232 $361 $741 forward 7 unknown #
coedge $-1 $362 $731 $737 $742 forward $530 $-1 #
vertex $-1 $538 $743 #
vertex $-1 $363 $744 #
straight-curve $-1 -12.859392817028013 37.777702287420183 13.181410295681616 0 -1 0 I I #
coedge $-1 $544 $544 $-1 $745 reversed $366 $-1 #
edge $-1 $746 0 $746 6.2831853071796004 $367 $747 forward 7 unknown #
vertex $-1 $370 $748 #
ellipse-curve $-1 -8.71227078509515 33.374436871902418 8.186570600235628 0 0.70710678939079041 0.70710677298230451 2 0 0 1 I I #
coedge $-1 $548 $548 $-1 $749 reversed $373 $-1 #
edge $-1 $750 0 $750 6.2831853071796004 $374 $751 forward 7 unknown #
vertex $-1 $377 $752 #
ellipse-curve $-1 -2.4915877371958501 33.374436871902418 8.186570600235628 0 0.70710678939079041 0.70710677298230451 2 0 0 1 I I #
face $-1 $-1 $753 $77 $-1 $754 reversed single #
loop $-1 $-1 $384 $378 #
plane-surface $-1 0 0 13.18141029568161 0 0 1 1 0 0 forward_v I I I I #
coedge $-1 $755 $756 $757 $758 reversed $379 $-1 #
coedge $-1 $759 $381 $383 $562 forward $239 $-1 #
coedge $-1 $381 $759 $755 $760 forward $239 $-1 #
coedge $-1 $757 $384 $381 $559 forward $553 $-1 #
edge $-1 $565 19.445952500344049 $761 33.960879612109068 $558 $762 forward 7 unknown #
coedge $-1 $763 $764 $382 $561 forward $753 $-1 #
edge $-1 $765 -71.259548684341112 $564 -61.269869293449155 $560 $766 forward 7 unknown #
edge $-1 $565 62.611012988442333 $765 76.738552902885232 $383 $767 forward 7 unknown #
coedge $-1 $384 $757 $763 $768 forward $553 $-1 #
vertex $-1 $385 $769 #
vertex $-1 $385 $770 #
straight-curve $-1 46.149368556570607 37.777702287420183 13.181410295681616 0 -1 0 I I #
coedge $-1 $567 $567 $-1 $771 reversed $388 $-1 #
edge $-1 $772 0 $772 6.2831853071796004 $389 $773 forward 7 unknown #
vertex $-1 $392 $774 #
ellipse-curve $-1 50.296490588503474 33.374436871902418 8.186570600235628 0 0.70710678939079041 0.70710677298230451 2 0 0 1 I I #
coedge $-1 $571 $571 $-1 $775 reversed $395 $-1 #
edge $-1 $776 0 $776 6.2831853071796004 $396 $777 forward 7 unknown #
vertex $-1 $399 $778 #
ellipse-curve $-1 56.517173636402759 33.374436871902418 8.186570600235628 0 0.70710678939079041 0.70710677298230451 2 0 0 1 I I #
face $-1 $-1 $415 $60 $-1 $779 reversed single #
loop $-1 $-1 $591 $400 #
plane-surface $-1 0 38.369276451442623 0 0 -1 0 0 0 -1 forward_v I I I I #
coedge $-1 $780 $589 $592 $781 forward $401 $-1 #
coedge $-1 $595 $403 $404 $583 reversed $253 $-1 #
coedge $-1 $589 $780 $403 $581 reversed $401 $-1 #
edge $-1 $596 -13.18141029568161 $782 13.18141029568161 $580 $783 forward 7 unknown #
coedge $-1 $405 $404 $780 $784 forward $161 $-1 #
edge $-1 $587 -64.6638386181219 $782 64.6638386181219 $579 $785 forward 7 unknown #
coedge $-1 $592 $591 $405 $585 reversed $576 $-1 #
edge $-1 $786 -64.6638386181219 $586 64.6638386181219 $584 $787 forward 7 unknown #
vertex $-1 $407 $788 #
vertex $-1 $598 $789 #
straight-curve $-1 64.6638386181219 0 -13.18141029568161 0 -1 0 I I #
coedge $-1 $578 $580 $408 $590 reversed $401 $-1 #
edge $-1 $593 -38.369276451442623 $596 38.369276451442623 $589 $790 forward 7 unknown #
coedge $-1 $584 $409 $414 $599 forward $576 $-1 #
coedge $-1 $409 $584 $578 $781 reversed $576 $-1 #
vertex $-1 $410 $791 #
straight-curve $-1 0 38.369276451442623 13.18141029568161 -1 0 0 I I #
coedge $-1 $411 $579 $413 $598 reversed $253 $-1 #
vertex $-1 $590 $792 #
straight-curve $-1 0 -38.369276451442623 13.18141029568161 1 0 0 I I #
edge $-1 $416 -13.18141029568161 $587 13.18141029568161 $413 $793 forward 7 unknown #
edge $-1 $417 -13.18141029568161 $586 13.18141029568161 $414 $794 forward 7 unknown #
point $-1 64.6638386181219 -38.369276451442623 13.18141029568161 #
point $-1 64.6638386181219 38.369276451442623 13.18141029568161 #
face $-1 $-1 $616 $61 $-1 $795 reversed single #
loop $-1 $-1 $612 $419 #
plane-surface $-1 0 0 13.18141029568161 0 0 1 1 0 0 forward_v I I I I #
coedge $-1 $796 $797 $606 $798 forward $420 $-1 #
coedge $-1 $423 $422 $605 $798 reversed $165 $-1 #
edge $-1 $799 -5.6550772445232838 $431 5.6550772445232838 $422 $800 forward 7 unknown #
coedge $-1 $801 $612 $423 $609 forward $603 $-1 #
edge $-1 $610 64.6638386181219 $802 75.973993107168468 $423 $803 forward 7 unknown #
vertex $-1 $609 $804 #
straight-curve $-1 -64.6638386181219 38.369276451442623 0 0 0 -1 I I #
coedge $-1 $608 $805 $425 $613 forward $603 $-1 #
edge $-1 $617 -38.369276451442623 $610 38.369276451442623 $612 $806 forward 7 unknown #
coedge $-1 $807 $426 $805 $808 reversed $616 $-1 #
coedge $-1 $426 $807 $428 $620 reversed $616 $-1 #
loop $-1 $-1 $426 $602 #
vertex $-1 $427 $809 #
straight-curve $-1 -64.6638386181219 -38.369276451442623 0 0 0 1 I I #
coedge $-1 $429 $428 $796 $810 forward $261 $-1 #
edge $-1 $430 -5.6550772445232838 $811 5.6550772445232838 $615 $812 forward 7 unknown #
point $-1 -64.6638386181219 -38.369276451442623 9.0349803972561009 #
point $-1 -64.6638386181219 38.369276451442623 9.0349803972561009 #
plane-surface $-1 0 0 13.18141029568161 0 0 1 1 0 0 forward_v I I I I #
coedge $-1 $634 $633 $626 $813 forward $434 $-1 #
coedge $-1 $626 $436 $438 $630 reversed $269 $-1 #
coedge $-1 $436 $625 $624 $813 reversed $269 $-1 #
coedge $-1 $444 $439 $436 $628 forward $445 $-1 #
edge $-1 $631 -40.739621933388065 $814 -30.350736554279329 $627 $815 forward 7 unknown #
coedge $-1 $438 $437 $634 $816 reversed $169 $-1 #
edge $-1 $817 1.1030930024383267e-014 $631 16.162236767113942 $625 $818 forward 7 unknown #
vertex $-1 $440 $819 #
straight-curve $-1 -18.104394377668445 -27.980391072333891 13.18141029568161 -1 0 0 I I #
coedge $-1 $624 $441 $444 $638 reversed $434 $-1 #
coedge $-1 $441 $624 $629 $816 forward $434 $-1 #
vertex $-1 $442 $820 #
straight-curve $-1 -26.201277765310628 -38.369276451442623 41.965322868867375 0 0 1 I I #
straight-curve $-1 -26.201277765310628 -38.36927645144263 0.8004184979300959 0 -0.64278759981090561 -0.7660444514056185 I I #
edge $-1 $814 -46.216299745363152 $446 -26.201277765310628 $633 $821 forward 7 unknown #
point $-1 -26.201277765310628 -38.369276451442623 13.18141029568161 #
point $-1 -26.201277765310628 -27.980391072333891 13.181410295681609 #
edge $-1 $822 1 $822 0 $449 $-1 forward 7 unknown #
vertex $-1 $450 $823 #
ellipse-curve $-1 -40.497722036776715 -27.736285199905499 2.4274304237838851 0 -0.7660444514056185 0.64278759981090561 2.5 0 0 1 I I #
point $-1 -37.997722036776715 -33.174833761888259 6.9909143968058585 #
edge $-1 $824 1 $824 0 $453 $-1 forward 7 unknown #
vertex $-1 $454 $825 #
ellipse-curve $-1 -31.919855473897059 -27.736285199905499 2.4274304237838851 0 -0.7660444514056185 0.64278759981090561 2.5 0 0 1 I I #
point $-1 -29.419855473897059 -33.174833761888259 6.9909143968058585 #
plane-surface $-1 0 0 13.18141029568161 0 0 1 1 0 0 forward_v I I I I #
coedge $-1 $660 $659 $652 $826 forward $458 $-1 #
coedge $-1 $652 $460 $462 $656 reversed $291 $-1 #
coedge $-1 $460 $651 $650 $826 reversed $291 $-1 #
coedge $-1 $468 $463 $460 $654 forward $469 $-1 #
edge $-1 $657 -40.739621933388065 $827 -30.350736554279329 $653 $828 forward 7 unknown #
coedge $-1 $462 $461 $660 $829 reversed $183 $-1 #
edge $-1 $830 1.1030930024383267e-014 $657 16.162236767113942 $651 $831 forward 7 unknown #
vertex $-1 $464 $832 #
straight-curve $-1 -4.1497723777150526 -27.980391072333891 13.18141029568161 -1 0 0 I I #
coedge $-1 $650 $465 $468 $664 reversed $458 $-1 #
coedge $-1 $465 $650 $655 $829 forward $458 $-1 #
vertex $-1 $466 $833 #
straight-curve $-1 1.7079662345961566 -38.369276451442623 41.965322868867375 0 0 1 I I #
straight-curve $-1 1.7079662345961566 -38.36927645144263 0.8004184979300959 0 -0.64278759981090561 -0.7660444514056185 I I #
edge $-1 $827 -18.307055745456367 $470 1.7079662345961566 $659 $834 forward 7 unknown #
point $-1 1.7079662345961566 -38.369276451442623 13.18141029568161 #
point $-1 1.7079662345961566 -27.980391072333891 13.181410295681609 #
edge $-1 $835 1 $835 0 $473 $-1 forward 7 unknown #
vertex $-1 $474 $836 #
ellipse-curve $-1 -12.58847803686993 -27.736285199905499 2.4274304237838851 0 -0.7660444514056185 0.64278759981090561 2.5 0 0 1 I I #
point $-1 -10.08847803686993 -33.174833761888259 6.9909143968058585 #
edge $-1 $837 1 $837 0 $477 $-1 forward 7 unknown #
vertex $-1 $478 $838 #
ellipse-curve $-1 -4.0106114739902665 -27.736285199905499 2.4274304237838851 0 -0.7660444514056185 0.64278759981090561 2.5 0 0 1 I I #
point $-1 -1.5106114739902665 -33.174833761888259 6.9909143968058585 #
plane-surface $-1 0 0 13.18141029568161 0 0 1 1 0 0 forward_v I I I I #
coedge $-1 $686 $685 $678 $839 forward $482 $-1 #
coedge $-1 $678 $484 $486 $682 reversed $313 $-1 #
coedge $-1 $484 $677 $676 $839 reversed $313 $-1 #
coedge $-1 $492 $487 $484 $680 forward $493 $-1 #
edge $-1 $683 -40.739621933388065 $840 -30.350736554279329 $679 $841 forward 7 unknown #
coedge $-1 $486 $485 $686 $842 reversed $197 $-1 #
edge $-1 $843 1.1030930024383267e-014 $683 16.162236767113942 $677 $844 forward 7 unknown #
vertex $-1 $488 $845 #
straight-curve $-1 9.8048496222383434 -27.980391072333891 13.18141029568161 -1 0 0 I I #
coedge $-1 $676 $489 $492 $690 reversed $482 $-1 #
coedge $-1 $489 $676 $681 $842 forward $482 $-1 #
vertex $-1 $490 $846 #
straight-curve $-1 29.617210234502949 -38.369276451442623 41.965322868867375 0 0 1 I I #
straight-curve $-1 29.617210234502949 -38.36927645144263 0.8004184979300959 0 -0.64278759981090561 -0.7660444514056185 I I #
edge $-1 $840 9.6021882544504251 $494 29.617210234502949 $685 $847 forward 7 unknown #
point $-1 29.617210234502949 -38.369276451442623 13.18141029568161 #
point $-1 29.617210234502949 -27.980391072333891 13.181410295681609 #
edge $-1 $848 1 $848 0 $497 $-1 forward 7 unknown #
vertex $-1 $498 $849 #
ellipse-curve $-1 15.320765963036862 -27.736285199905499 2.4274304237838851 0 -0.7660444514056185 0.64278759981090561 2.5 0 0 1 I I #
point $-1 17.820765963036862 -33.174833761888259 6.9909143968058585 #
edge $-1 $850 1 $850 0 $501 $-1 forward 7 unknown #
vertex $-1 $502 $851 #
ellipse-curve $-1 23.898632525916526 -27.736285199905499 2.4274304237838851 0 -0.7660444514056185 0.64278759981090561 2.5 0 0 1 I I #
point $-1 26.398632525916526 -33.174833761888259 6.9909143968058585 #
plane-surface $-1 0 0 13.18141029568161 0 0 1 1 0 0 forward_v I I I I #
coedge $-1 $712 $711 $704 $852 forward $506 $-1 #
coedge $-1 $704 $508 $510 $708 reversed $335 $-1 #
coedge $-1 $508 $703 $702 $852 reversed $335 $-1 #
coedge $-1 $516 $511 $508 $706 forward $517 $-1 #
edge $-1 $709 -40.739621933388065 $853 -30.350736554279329 $705 $854 forward 7 unknown #
coedge $-1 $510 $509 $712 $855 reversed $211 $-1 #
edge $-1 $856 1.1030930024383267e-014 $709 16.162236767113942 $703 $857 forward 7 unknown #
vertex $-1 $512 $858 #
straight-curve $-1 23.759471622191739 -27.980391072333891 13.18141029568161 -1 0 0 I I #
coedge $-1 $702 $513 $516 $716 reversed $506 $-1 #
coedge $-1 $513 $702 $707 $855 forward $506 $-1 #
vertex $-1 $514 $859 #
straight-curve $-1 57.526454234409741 -38.369276451442623 41.965322868867375 0 0 1 I I #
straight-curve $-1 57.526454234409741 -38.36927645144263 0.8004184979300959 0 -0.64278759981090561 -0.7660444514056185 I I #
edge $-1 $853 37.511432254357217 $518 57.526454234409741 $711 $860 forward 7 unknown #
point $-1 57.526454234409741 -38.369276451442623 13.18141029568161 #
point $-1 57.526454234409741 -27.980391072333891 13.181410295681609 #
edge $-1 $861 1 $861 0 $521 $-1 forward 7 unknown #
vertex $-1 $522 $862 #
ellipse-curve $-1 43.230009962943655 -27.736285199905499 2.4274304237838851 0 -0.7660444514056185 0.64278759981090561 2.5 0 0 1 I I #
point $-1 45.730009962943655 -33.174833761888259 6.9909143968058585 #
edge $-1 $863 1 $863 0 $525 $-1 forward 7 unknown #
vertex $-1 $526 $864 #
ellipse-curve $-1 51.807876525823318 -27.736285199905499 2.4274304237838851 0 -0.7660444514056185 0.64278759981090561 2.5 0 0 1 I I #
point $-1 54.307876525823318 -33.174833761888259 6.9909143968058585 #
loop $-1 $-1 $537 $529 #
plane-surface $-1 0 38.369276451442623 0 0 -1 0 0 0 -1 forward_v I I I I #
coedge $-1 $730 $532 $534 $734 reversed $357 $-1 #
coedge $-1 $532 $729 $865 $866 reversed $357 $-1 #
coedge $-1 $540 $535 $532 $732 forward $530 $-1 #
edge $-1 $735 -9.3981049950579845 $867 0.59157416402243967 $731 $868 forward 7 unknown #
coedge $-1 $534 $533 $738 $869 reversed $225 $-1 #
edge $-1 $870 -76.738552902885232 $735 -62.611012988442333 $729 $871 forward 7 unknown #
vertex $-1 $536 $872 #
straight-curve $-1 -2.80096463057275 28.379597292362206 13.181410295681605 1 0 0 I I #
coedge $-1 $865 $537 $540 $742 reversed $727 $-1 #
coedge $-1 $537 $865 $733 $869 forward $727 $-1 #
vertex $-1 $538 $873 #
straight-curve $-1 -12.859392817028013 38.369276451442623 74.451279589130763 0 0 1 I I #
straight-curve $-1 -12.859392817028013 -15.893074055048402 57.454082670444137 0 0.70710677298230451 -0.70710678939079041 I I #
edge $-1 $867 -1.6555342947370129 $541 12.859392817028013 $737 $874 forward 7 unknown #
point $-1 -12.859392817028013 38.369276451442623 13.18141029568161 #
point $-1 -12.859392817028013 28.379597292362199 13.181410295681609 #
edge $-1 $875 1 $875 0 $544 $-1 forward 7 unknown #
vertex $-1 $545 $876 #
ellipse-curve $-1 -8.71227078509515 29.912252818961921 4.7243866276354707 0 0.70710678939079041 0.70710677298230451 2 0 0 1 I I #
point $-1 -6.71227078509515 33.374436871902404 8.1865706002356173 #
edge $-1 $877 1 $877 0 $548 $-1 forward 7 unknown #
vertex $-1 $549 $878 #
ellipse-curve $-1 -2.4915877371958501 29.912252818961921 4.7243866276354707 0 0.70710678939079041 0.70710677298230451 2 0 0 1 I I #
point $-1 -0.49158773719585014 33.374436871902404 8.1865706002356173 #
loop $-1 $-1 $560 $552 #
plane-surface $-1 0 38.369276451442623 0 0 -1 0 0 0 -1 forward_v I I I I #
coedge $-1 $756 $555 $557 $760 reversed $379 $-1 #
coedge $-1 $555 $755 $879 $880 reversed $379 $-1 #
coedge $-1 $563 $558 $555 $758 forward $553 $-1 #
edge $-1 $761 -9.3981049950579845 $881 0.59157416402243967 $757 $882 forward 7 unknown #
coedge $-1 $557 $556 $764 $883 reversed $239 $-1 #
edge $-1 $884 -76.738552902885232 $761 -62.611012988442333 $755 $885 forward 7 unknown #
vertex $-1 $559 $886 #
straight-curve $-1 26.703416056226558 28.379597292362206 13.181410295681605 1 0 0 I I #
coedge $-1 $879 $560 $563 $768 reversed $753 $-1 #
coedge $-1 $560 $879 $759 $883 forward $753 $-1 #
vertex $-1 $561 $887 #
straight-curve $-1 46.149368556570607 38.369276451442623 74.451279589130763 0 0 1 I I #
straight-curve $-1 46.149368556570607 -15.893074055048402 57.454082670444137 0 0.70710677298230451 -0.70710678939079041 I I #
edge $-1 $881 -60.664295668335626 $564 -46.149368556570607 $763 $888 forward 7 unknown #
point $-1 46.149368556570607 38.369276451442623 13.18141029568161 #
point $-1 46.149368556570607 28.379597292362199 13.181410295681609 #
edge $-1 $889 1 $889 0 $567 $-1 forward 7 unknown #
vertex $-1 $568 $890 #
ellipse-curve $-1 50.296490588503474 29.912252818961921 4.7243866276354707 0 0.70710678939079041 0.70710677298230451 2 0 0 1 I I #
point $-1 52.296490588503474 33.374436871902404 8.1865706002356173 #
edge $-1 $891 1 $891 0 $571 $-1 forward 7 unknown #
vertex $-1 $572 $892 #
ellipse-curve $-1 56.517173636402759 29.912252818961921 4.7243866276354707 0 0.70710678939079041 0.70710677298230451 2 0 0 1 I I #
point $-1 58.517173636402759 33.374436871902404 8.1865706002356173 #
plane-surface $-1 64.6638386181219 0 0 -1 0 0 0 0 1 forward_v I I I I #
coedge $-1 $580 $578 $582 $784 reversed $401 $-1 #
edge $-1 $593 -13.18141029568161 $786 13.18141029568161 $592 $893 forward 7 unknown #
vertex $-1 $784 $894 #
straight-curve $-1 -64.6638386181219 -38.369276451442623 0 0 0 -1 I I #
edge $-1 $782 -38.369276451442623 $786 38.369276451442623 $780 $895 forward 7 unknown #
straight-curve $-1 0 -38.369276451442623 -13.18141029568161 -1 0 0 I I #
vertex $-1 $585 $896 #
straight-curve $-1 0 38.369276451442623 -13.18141029568161 1 0 0 I I #
point $-1 64.6638386181219 38.369276451442623 -13.18141029568161 #
point $-1 64.6638386181219 -38.369276451442623 -13.18141029568161 #
straight-curve $-1 -64.6638386181219 0 13.18141029568161 0 -1 0 I I #
point $-1 -64.6638386181219 38.369276451442623 13.18141029568161 #
point $-1 -64.6638386181219 -38.369276451442623 13.18141029568161 #
straight-curve $-1 64.6638386181219 -38.369276451442623 0 0 0 -1 I I #
straight-curve $-1 64.6638386181219 38.369276451442623 0 0 0 -1 I I #
plane-surface $-1 0 -38.369276451442623 0 0 1 0 0 0 1 forward_v I I I I #
coedge $-1 $897 $605 $619 $810 reversed $420 $-1 #
coedge $-1 $605 $897 $801 $898 reversed $420 $-1 #
edge $-1 $802 -2.0732149492127547 $799 2.0732149492127547 $606 $899 forward 7 unknown #
vertex $-1 $607 $900 #
straight-curve $-1 -70.318915862645184 38.369276451442623 9.0349803972561009 1 0 0 I I #
coedge $-1 $805 $608 $797 $898 forward $603 $-1 #
vertex $-1 $609 $901 #
straight-curve $-1 0 38.369276451442623 13.18141029568161 -1 0 0 I I #
point $-1 -64.6638386181219 38.369276451442623 13.18141029568161 #
coedge $-1 $612 $801 $614 $808 forward $603 $-1 #
straight-curve $-1 -64.6638386181219 0 13.18141029568161 0 1 0 I I #
coedge $-1 $615 $614 $897 $902 forward $616 $-1 #
edge $-1 $903 -75.973993107168468 $617 -64.6638386181219 $614 $904 forward 7 unknown #
point $-1 -64.6638386181219 -38.369276451442623 13.18141029568161 #
edge $-1 $811 -38.369276451442623 $799 38.369276451442623 $796 $905 forward 7 unknown #
vertex $-1 $810 $906 #
straight-curve $-1 -70.318915862645184 -38.369276451442623 9.0349803972561009 -1 0 0 I I #
edge $-1 $814 28.783912573185766 $817 41.164904370937272 $624 $907 forward 7 unknown #
vertex $-1 $638 $908 #
straight-curve $-1 -46.216299745363152 -68.720013005721952 13.181410295681609 0 -1 0 I I #
edge $-1 $817 -28.111905367694707 $635 -8.0968833876421833 $634 $909 forward 7 unknown #
vertex $-1 $816 $910 #
straight-curve $-1 -46.216299745363152 -38.36927645144263 0.8004184979300959 0 0.64278759981090561 0.7660444514056185 I I #
point $-1 -46.216299745363152 -27.980391072333891 13.181410295681609 #
point $-1 -26.201277765310628 -38.369276451442623 0.80041849793010433 #
straight-curve $-1 0 -38.369276451442623 13.18141029568161 1 0 0 I I #
vertex $-1 $641 $911 #
point $-1 -37.997722036776715 -27.736285199905499 2.4274304237838851 #
vertex $-1 $645 $912 #
point $-1 -29.419855473897059 -27.736285199905499 2.4274304237838851 #
edge $-1 $827 28.783912573185766 $830 41.164904370937272 $650 $913 forward 7 unknown #
vertex $-1 $664 $914 #
straight-curve $-1 -18.307055745456367 -68.720013005721952 13.181410295681609 0 -1 0 I I #
edge $-1 $830 -14.157283367741314 $661 5.8577386123112092 $660 $915 forward 7 unknown #
vertex $-1 $829 $916 #
straight-curve $-1 -18.307055745456367 -38.36927645144263 0.8004184979300959 0 0.64278759981090561 0.7660444514056185 I I #
point $-1 -18.307055745456367 -27.980391072333891 13.181410295681609 #
point $-1 1.7079662345961566 -38.369276451442623 0.80041849793010433 #
straight-curve $-1 0 -38.369276451442623 13.18141029568161 1 0 0 I I #
vertex $-1 $667 $917 #
point $-1 -10.08847803686993 -27.736285199905499 2.4274304237838851 #
vertex $-1 $671 $918 #
point $-1 -1.5106114739902665 -27.736285199905499 2.4274304237838851 #
edge $-1 $840 28.783912573185766 $843 41.164904370937272 $676 $919 forward 7 unknown #
vertex $-1 $690 $920 #
straight-curve $-1 9.6021882544504251 -68.720013005721952 13.181410295681609 0 -1 0 I I #
edge $-1 $843 -0.20266136778791832 $687 19.812360612264605 $686 $921 forward 7 unknown #
vertex $-1 $842 $922 #
straight-curve $-1 9.6021882544504251 -38.36927645144263 0.8004184979300959 0 0.64278759981090561 0.7660444514056185 I I #
point $-1 9.6021882544504251 -27.980391072333891 13.181410295681609 #
point $-1 29.617210234502949 -38.369276451442623 0.80041849793010433 #
straight-curve $-1 0 -38.369276451442623 13.18141029568161 1 0 0 I I #
vertex $-1 $693 $923 #
point $-1 17.820765963036862 -27.736285199905499 2.4274304237838851 #
vertex $-1 $697 $924 #
point $-1 26.398632525916526 -27.736285199905499 2.4274304237838851 #
edge $-1 $853 28.783912573185766 $856 41.164904370937272 $702 $925 forward 7 unknown #
vertex $-1 $716 $926 #
straight-curve $-1 37.511432254357217 -68.720013005721952 13.181410295681609 0 -1 0 I I #
edge $-1 $856 13.751960632165478 $713 33.766982612218001 $712 $927 forward 7 unknown #
vertex $-1 $855 $928 #
straight-curve $-1 37.511432254357217 -38.36927645144263 0.8004184979300959 0 0.64278759981090561 0.7660444514056185 I I #
point $-1 37.511432254357217 -27.980391072333891 13.181410295681609 #
point $-1 57.526454234409741 -38.369276451442623 0.80041849793010433 #
straight-curve $-1 0 -38.369276451442623 13.18141029568161 1 0 0 I I #
vertex $-1 $719 $929 #
point $-1 45.730009962943655 -27.736285199905499 2.4274304237838851 #
vertex $-1 $723 $930 #
point $-1 54.307876525823318 -27.736285199905499 2.4274304237838851 #
coedge $-1 $738 $737 $730 $866 forward $727 $-1 #
edge $-1 $867 61.269869293449155 $870 71.259548684341112 $865 $931 forward 7 unknown #
vertex $-1 $742 $932 #
straight-curve $-1 1.6555342947370129 37.777702287420183 13.181410295681616 0 1 0 I I #
edge $-1 $870 -4.4564989253097629 $739 10.058428186455263 $738 $933 forward 7 unknown #
vertex $-1 $869 $934 #
straight-curve $-1 1.6555342947370129 -15.893074055048402 57.454082670444137 0 -0.70710677298230451 0.70710678939079041 I I #
point $-1 1.6555342947370129 28.379597292362199 13.181410295681609 #
point $-1 -12.859392817028013 38.369276451442616 3.1917309047896509 #
straight-curve $-1 0 38.369276451442623 13.18141029568161 -1 0 0 I I #
vertex $-1 $745 $935 #
point $-1 -6.71227078509515 29.912252818961921 4.7243866276354707 #
vertex $-1 $749 $936 #
point $-1 -0.49158773719585014 29.912252818961921 4.7243866276354707 #
coedge $-1 $764 $763 $756 $880 forward $753 $-1 #
edge $-1 $881 61.269869293449155 $884 71.259548684341112 $879 $937 forward 7 unknown #
vertex $-1 $768 $938 #
straight-curve $-1 60.664295668335626 37.777702287420183 13.181410295681616 0 1 0 I I #
edge $-1 $884 -33.960879612109068 $765 -19.445952500344049 $764 $939 forward 7 unknown #
vertex $-1 $883 $940 #
straight-curve $-1 60.664295668335626 -15.893074055048402 57.454082670444137 0 -0.70710677298230451 0.70710678939079041 I I #
point $-1 60.664295668335626 28.379597292362199 13.181410295681609 #
point $-1 46.149368556570607 38.369276451442616 3.1917309047896509 #
straight-curve $-1 0 38.369276451442623 13.18141029568161 -1 0 0 I I #
vertex $-1 $771 $941 #
point $-1 52.296490588503474 29.912252818961921 4.7243866276354707 #
vertex $-1 $775 $942 #
point $-1 58.517173636402759 29.912252818961921 4.7243866276354707 #
straight-curve $-1 -64.6638386181219 38.369276451442623 0 0 0 -1 I I #
point $-1 -64.6638386181219 -38.369276451442623 -13.18141029568161 #
straight-curve $-1 -64.6638386181219 0 -13.18141029568161 0 1 0 I I #
point $-1 -64.6638386181219 38.369276451442623 -13.18141029568161 #
coedge $-1 $797 $796 $807 $902 reversed $420 $-1 #
edge $-1 $802 -38.369276451442623 $903 38.369276451442623 $797 $943 forward 7 unknown #
straight-curve $-1 -75.973993107168468 38.369276451442623 11.108195346468856 0 0 -1 I I #
point $-1 -75.973993107168468 38.369276451442623 9.0349803972561009 #
point $-1 -75.973993107168468 38.369276451442623 13.18141029568161 #
edge $-1 $903 -2.0732149492127547 $811 2.0732149492127547 $897 $944 forward 7 unknown #
vertex $-1 $898 $945 #
straight-curve $-1 0 -38.369276451442623 13.18141029568161 1 0 0 I I #
straight-curve $-1 -75.973993107168468 0 9.0349803972561009 0 1 0 I I #
point $-1 -75.973993107168468 -38.369276451442623 9.0349803972561009 #
straight-curve $-1 -46.216299745363152 -38.369276451442623 41.965322868867375 0 0 -1 I I #
point $-1 -46.216299745363152 -38.369276451442623 13.18141029568161 #
straight-curve $-1 -18.104394377668445 -38.369276451442623 0.80041849793011255 1 0 0 I I #
point $-1 -46.216299745363152 -38.369276451442623 0.80041849793010433 #
point $-1 -40.497722036776715 -25.82117407139145 0.82046142425662116 #
point $-1 -31.919855473897059 -25.82117407139145 0.82046142425662116 #
straight-curve $-1 -18.307055745456367 -38.369276451442623 41.965322868867375 0 0 -1 I I #
point $-1 -18.307055745456367 -38.369276451442623 13.18141029568161 #
straight-curve $-1 -4.1497723777150526 -38.369276451442623 0.80041849793011255 1 0 0 I I #
point $-1 -18.307055745456367 -38.369276451442623 0.80041849793010433 #
point $-1 -12.58847803686993 -25.82117407139145 0.82046142425662116 #
point $-1 -4.0106114739902665 -25.82117407139145 0.82046142425662116 #
straight-curve $-1 9.6021882544504251 -38.369276451442623 41.965322868867375 0 0 -1 I I #
point $-1 9.6021882544504251 -38.369276451442623 13.18141029568161 #
straight-curve $-1 9.8048496222383434 -38.369276451442623 0.80041849793011255 1 0 0 I I #
point $-1 9.6021882544504251 -38.369276451442623 0.80041849793010433 #
point $-1 15.320765963036862 -25.82117407139145 0.82046142425662116 #
point $-1 23.898632525916526 -25.82117407139145 0.82046142425662116 #
straight-curve $-1 37.511432254357217 -38.369276451442623 41.965322868867375 0 0 -1 I I #
point $-1 37.511432254357217 -38.369276451442623 13.18141029568161 #
straight-curve $-1 23.759471622191739 -38.369276451442623 0.80041849793011255 1 0 0 I I #
point $-1 37.511432254357217 -38.369276451442623 0.80041849793010433 #
point $-1 43.230009962943655 -25.82117407139145 0.82046142425662116 #
point $-1 51.807876525823318 -25.82117407139145 0.82046142425662116 #
straight-curve $-1 1.6555342947370129 38.369276451442623 74.451279589130763 0 0 -1 I I #
point $-1 1.6555342947370129 38.369276451442623 13.18141029568161 #
straight-curve $-1 -2.80096463057275 38.369276451442623 3.1917309047896474 -1 0 0 I I #
point $-1 1.6555342947370129 38.369276451442616 3.1917309047896509 #
point $-1 -8.71227078509515 28.498039240180344 3.3101730816708619 #
point $-1 -2.4915877371958501 28.498039240180344 3.3101730816708619 #
straight-curve $-1 60.664295668335626 38.369276451442623 74.451279589130763 0 0 -1 I I #
point $-1 60.664295668335626 38.369276451442623 13.18141029568161 #
straight-curve $-1 26.703416056226558 38.369276451442623 3.1917309047896474 -1 0 0 I I #
point $-1 60.664295668335626 38.369276451442616 3.1917309047896509 #
point $-1 50.296490588503474 28.498039240180344 3.3101730816708619 #
point $-1 56.517173636402759 28.498039240180344 3.3101730816708619 #
straight-curve $-1 -75.973993107168468 0 13.18141029568161 0 -1 0 I I #
straight-curve $-1 -75.973993107168468 -38.369276451442623 11.108195346468856 0 0 -1 I I #
point $-1 -75.973993107168468 -38.369276451442623 13.18141029568161 #
End-of-ACIS-data 