500 0 8 0           
7 Unknown 11 ACIS 5.0 NT 24 Fri Mar 26 19:55:33 1999 
-1 9.9999999999999995e-007 1e-010 
body $-1 $8 $-1 $9 #
body $-1 $10 $-1 $11 #
body $-1 $12 $-1 $13 #
body $-1 $14 $-1 $15 #
body $-1 $16 $-1 $17 #
body $-1 $18 $-1 $19 #
body $-1 $20 $-1 $21 #
body $-1 $22 $-1 $23 #
lump $-1 $-1 $24 $0 #
transform $-1 1 0 0 0 1 0 0 0 1 75.151219214453562 35.092892397850093 15.548634941289327 1 rotate no_reflect no_shear #
lump $-1 $-1 $25 $1 #
transform $-1 1 0 0 0 1 0 0 0 1 75.151219214453562 35.092892397850093 15.548634941289327 1 rotate no_reflect no_shear #
lump $-1 $-1 $26 $2 #
transform $-1 1 0 0 0 1 0 0 0 1 75.151219214453562 35.092892397850093 15.548634941289327 1 rotate no_reflect no_shear #
lump $-1 $-1 $27 $3 #
transform $-1 1 0 0 0 1 0 0 0 1 75.151219214453562 35.092892397850093 15.548634941289327 1 rotate no_reflect no_shear #
lump $-1 $-1 $28 $4 #
transform $-1 1 0 0 0 1 0 0 0 1 75.151219214453562 35.092892397850093 15.548634941289327 1 rotate no_reflect no_shear #
lump $-1 $-1 $29 $5 #
transform $-1 1 0 0 0 1 0 0 0 1 75.151219214453562 35.092892397850093 15.548634941289327 1 rotate no_reflect no_shear #
lump $-1 $-1 $30 $6 #
transform $-1 1 0 0 0 1 0 0 0 1 75.151219214453562 35.092892397850093 15.548634941289327 1 rotate no_reflect no_shear #
lump $-1 $-1 $31 $7 #
transform $-1 1 0 0 0 1 0 0 0 1 75.151219214453562 35.092892397850093 15.548634941289327 1 rotate no_reflect no_shear #
shell $-1 $-1 $-1 $32 $-1 $8 #
shell $-1 $-1 $-1 $33 $-1 $10 #
shell $-1 $-1 $-1 $34 $-1 $12 #
shell $-1 $-1 $-1 $35 $-1 $14 #
shell $-1 $-1 $-1 $36 $-1 $16 #
shell $-1 $-1 $-1 $37 $-1 $18 #
shell $-1 $-1 $-1 $38 $-1 $20 #
shell $-1 $-1 $-1 $39 $-1 $22 #
face $-1 $40 $41 $24 $-1 $42 reversed single #
face $-1 $43 $44 $25 $-1 $45 forward single #
face $-1 $46 $47 $26 $-1 $48 reversed single #
face $-1 $49 $50 $27 $-1 $51 forward single #
face $-1 $52 $53 $28 $-1 $54 reversed single #
face $-1 $55 $56 $29 $-1 $57 forward single #
face $-1 $58 $59 $30 $-1 $60 forward single #
face $-1 $61 $62 $31 $-1 $63 forward single #
face $-1 $64 $65 $24 $-1 $66 forward single #
loop $-1 $-1 $67 $32 #
plane-surface $-1 -75.151219214453562 0 0 1 0 0 0 0 -1 forward_v I I I I #
face $-1 $68 $69 $25 $-1 $70 reversed single #
loop $-1 $-1 $71 $33 #
plane-surface $-1 -75.151219214453562 0 0 1 0 0 0 0 -1 forward_v I I I I #
face $-1 $72 $73 $26 $-1 $74 reversed single #
loop $-1 $-1 $75 $34 #
plane-surface $-1 -59.31945647617124 110.32214834111473 152.27999595430103 1 0 0 0 -0.78801076186113728 -0.61566146476048833 forward_v I I I I #
face $-1 $76 $77 $27 $-1 $78 forward single #
loop $-1 $79 $80 $35 #
cone-surface $-1 -49.410928905101891 29.331952299617093 8.8832712283199573 0 -0.78801076186113728 -0.61566146476048833 3 0 0 1 I I 0 1 3 forward I I I I #
face $-1 $81 $82 $28 $-1 $83 reversed single #
loop $-1 $-1 $84 $36 #
plane-surface $-1 21.888522027882367 -139.50174057946259 109.73310797986305 -1 0 0 0 -0.69465837861970381 0.71933979245794832 forward_v I I I I #
face $-1 $85 $86 $29 $-1 $87 forward single #
loop $-1 $88 $89 $37 #
cone-surface $-1 -2.1616488091591037 -26.417289882810454 7.0686618408773203 0 0.69465837861970381 -0.71933979245794832 2 0 0 1 I I 0 1 2 forward I I I I #
face $-1 $90 $91 $30 $-1 $92 forward single #
loop $-1 $93 $94 $38 #
cone-surface $-1 6.8571652547314415 -26.417289882810454 7.0686618408773203 0 0.69465837861970381 -0.71933979245794832 2 0 0 1 I I 0 1 2 forward I I I I #
face $-1 $95 $96 $31 $-1 $97 forward single #
loop $-1 $98 $99 $39 #
cone-surface $-1 15.875979318621987 -26.417289882810454 7.0686618408773203 0 0.69465837861970381 -0.71933979245794832 2 0 0 1 I I 0 1 2 forward I I I I #
face $-1 $100 $101 $24 $-1 $102 reversed single #
loop $-1 $-1 $103 $40 #
plane-surface $-1 0 0 15.548634941289327 0 0 1 1 0 0 forward_v I I I I #
coedge $-1 $104 $105 $106 $107 reversed $41 $-1 #
face $-1 $108 $109 $25 $-1 $110 reversed single #
loop $-1 $-1 $111 $43 #
plane-surface $-1 0 0 -15.548634941289327 0 0 1 1 0 0 forward_v I I I I #
coedge $-1 $112 $113 $114 $115 forward $44 $-1 #
face $-1 $116 $117 $26 $-1 $118 reversed single #
loop $-1 $-1 $119 $46 #
plane-surface $-1 -49.410928905101898 -8.1177906748350495 59.744576554086962 0 0.78801076186113728 0.61566146476048833 1 0 0 forward_v I I I I #
coedge $-1 $120 $121 $122 $123 reversed $47 $-1 #
face $-1 $-1 $124 $27 $-1 $125 forward single #
loop $-1 $126 $127 $49 #
cone-surface $-1 -49.410928905101891 26.729511106055824 6.8500213861518038 0 -0.78801076186113728 -0.61566146476048833 1.5 0 0 1 I I -0.70710678118654757 0.70710678118654757 1.5 forward I I I I #
loop $-1 $-1 $128 $35 #
coedge $-1 $80 $80 $129 $130 reversed $50 $-1 #
face $-1 $131 $132 $28 $-1 $133 reversed single #
loop $-1 $-1 $134 $52 #
plane-surface $-1 6.8571652547314557 -35.092892397850107 1.6145831144894487 0 -0.69465837861970381 0.71933979245794832 1 0 0 forward_v I I I I #
coedge $-1 $135 $136 $137 $138 reversed $53 $-1 #
face $-1 $-1 $139 $29 $-1 $140 forward single #
loop $-1 $141 $142 $55 #
cone-surface $-1 -2.1616488091591037 -24.261595355646968 4.8363748614073057 0 0.69465837861970381 -0.71933979245794832 1 0 0 1 I I -0.70710678118654746 0.70710678118654746 1 forward I I I I #
loop $-1 $-1 $143 $37 #
coedge $-1 $89 $89 $144 $145 reversed $56 $-1 #
face $-1 $-1 $146 $30 $-1 $147 forward single #
loop $-1 $148 $149 $58 #
cone-surface $-1 6.8571652547314415 -24.261595355646968 4.8363748614073057 0 0.69465837861970381 -0.71933979245794832 1 0 0 1 I I -0.70710678118654746 0.70710678118654746 1 forward I I I I #
loop $-1 $-1 $150 $38 #
coedge $-1 $94 $94 $151 $152 reversed $59 $-1 #
face $-1 $-1 $153 $31 $-1 $154 forward single #
loop $-1 $155 $156 $61 #
cone-surface $-1 15.875979318621987 -24.261595355646968 4.8363748614073057 0 0.69465837861970381 -0.71933979245794832 1 0 0 1 I I -0.70710678118654746 0.70710678118654746 1 forward I I I I #
loop $-1 $-1 $157 $39 #
coedge $-1 $99 $99 $158 $159 reversed $62 $-1 #
face $-1 $160 $161 $24 $-1 $162 reversed single #
loop $-1 $-1 $163 $64 #
plane-surface $-1 0 0 -15.548634941289327 0 0 1 1 0 0 forward_v I I I I #
coedge $-1 $164 $165 $166 $167 forward $65 $-1 #
coedge $-1 $168 $67 $169 $170 reversed $41 $-1 #
coedge $-1 $67 $168 $171 $172 forward $41 $-1 #
coedge $-1 $173 $174 $67 $107 forward $101 $-1 #
edge $-1 $175 -35.092892397850093 $176 35.092892397850093 $67 $177 forward 7 unknown #
face $-1 $178 $179 $25 $-1 $180 reversed single #
loop $-1 $-1 $181 $68 #
plane-surface $-1 -83.067100583594723 -13.950890788965879 0 0 1 0 0 0 1 forward_v I I I I #
coedge $-1 $182 $183 $113 $184 forward $69 $-1 #
coedge $-1 $185 $71 $186 $187 reversed $44 $-1 #
coedge $-1 $71 $185 $111 $184 reversed $44 $-1 #
coedge $-1 $188 $189 $71 $115 reversed $190 $-1 #
edge $-1 $191 -15.548634941289327 $192 15.548634941289327 $114 $193 forward 7 unknown #
face $-1 $194 $195 $26 $-1 $196 forward single #
loop $-1 $-1 $197 $72 #
plane-surface $-1 -39.502401334032555 110.32214834111473 152.27999595430103 -1 0 0 0 0.78801076186113728 0.61566146476048833 forward_v I I I I #
coedge $-1 $198 $199 $200 $201 reversed $73 $-1 #
coedge $-1 $121 $75 $202 $203 reversed $47 $-1 #
coedge $-1 $75 $120 $198 $204 reversed $47 $-1 #
coedge $-1 $200 $205 $75 $123 forward $195 $-1 #
edge $-1 $206 20.06818177270727 $207 28.749211867634109 $122 $208 forward 7 unknown #
loop $-1 $-1 $129 $76 #
plane-surface $-1 -49.410928905101898 -8.1177906748350495 59.744576554086962 0 0.78801076186113728 0.61566146476048833 1 0 0 forward_v I I I I #
loop $-1 $-1 $209 $49 #
coedge $-1 $127 $127 $128 $210 reversed $77 $-1 #
coedge $-1 $128 $128 $127 $210 forward $79 $-1 #
coedge $-1 $129 $129 $80 $130 forward $124 $-1 #
edge $-1 $211 -4.960573945650075e-016 $211 6.2831853071795996 $129 $212 forward 7 unknown #
face $-1 $213 $214 $28 $-1 $215 forward single #
loop $-1 $-1 $216 $81 #
plane-surface $-1 -8.1741915184194553 -139.50174057946259 109.73310797986305 1 0 0 0 0.69465837861970381 -0.71933979245794832 forward_v I I I I #
coedge $-1 $217 $218 $219 $220 reversed $82 $-1 #
coedge $-1 $136 $84 $221 $222 reversed $53 $-1 #
coedge $-1 $84 $135 $217 $223 reversed $53 $-1 #
coedge $-1 $219 $224 $84 $138 forward $214 $-1 #
edge $-1 $225 34.657977891881202 $226 49.087110624872906 $137 $227 forward 7 unknown #
loop $-1 $-1 $144 $85 #
plane-surface $-1 6.8571652547314557 -35.092892397850107 1.6145831144894487 0 -0.69465837861970381 0.71933979245794832 1 0 0 forward_v I I I I #
loop $-1 $-1 $228 $55 #
coedge $-1 $142 $142 $143 $229 reversed $86 $-1 #
coedge $-1 $143 $143 $142 $229 forward $88 $-1 #
coedge $-1 $144 $144 $89 $145 forward $139 $-1 #
edge $-1 $230 1.9824707376946005e-015 $230 6.2831853071796022 $144 $231 forward 7 unknown #
loop $-1 $-1 $151 $90 #
plane-surface $-1 6.8571652547314557 -35.092892397850107 1.6145831144894487 0 -0.69465837861970381 0.71933979245794832 1 0 0 forward_v I I I I #
loop $-1 $-1 $232 $58 #
coedge $-1 $149 $149 $150 $233 reversed $91 $-1 #
coedge $-1 $150 $150 $149 $233 forward $93 $-1 #
coedge $-1 $151 $151 $94 $152 forward $146 $-1 #
edge $-1 $234 1.9824707376946005e-015 $234 6.2831853071796022 $151 $235 forward 7 unknown #
loop $-1 $-1 $158 $95 #
plane-surface $-1 6.8571652547314557 -35.092892397850107 1.6145831144894487 0 -0.69465837861970381 0.71933979245794832 1 0 0 forward_v I I I I #
loop $-1 $-1 $236 $61 #
coedge $-1 $156 $156 $157 $237 reversed $96 $-1 #
coedge $-1 $157 $157 $156 $237 forward $98 $-1 #
coedge $-1 $158 $158 $99 $159 forward $153 $-1 #
edge $-1 $238 1.9824707376946005e-015 $238 6.2831853071796022 $158 $239 forward 7 unknown #
face $-1 $240 $241 $24 $-1 $242 reversed single #
loop $-1 $-1 $169 $100 #
plane-surface $-1 0 -35.092892397850093 0 0 1 0 0 0 1 forward_v I I I I #
coedge $-1 $174 $173 $243 $244 forward $101 $-1 #
coedge $-1 $245 $103 $246 $247 forward $65 $-1 #
coedge $-1 $103 $245 $248 $249 forward $65 $-1 #
coedge $-1 $250 $251 $103 $167 reversed $252 $-1 #
edge $-1 $253 -35.092892397850093 $254 35.092892397850093 $166 $255 forward 7 unknown #
coedge $-1 $105 $104 $245 $256 reversed $41 $-1 #
coedge $-1 $257 $248 $104 $170 forward $161 $-1 #
edge $-1 $258 -15.548634941289327 $175 15.548634941289327 $104 $259 forward 7 unknown #
coedge $-1 $246 $260 $105 $172 reversed $241 $-1 #
edge $-1 $261 -15.548634941289327 $176 15.548634941289327 $171 $262 forward 7 unknown #
coedge $-1 $163 $106 $260 $263 forward $101 $-1 #
coedge $-1 $106 $163 $257 $264 forward $101 $-1 #
vertex $-1 $107 $265 #
vertex $-1 $263 $266 #
straight-curve $-1 -75.151219214453562 0 -15.548634941289327 0 1 0 I I #
face $-1 $267 $190 $25 $-1 $268 reversed single #
loop $-1 $-1 $269 $108 #
plane-surface $-1 -90.982981952735884 -9.3556753005796445 0 1 0 0 0 0 -1 forward_v I I I I #
coedge $-1 $270 $271 $272 $273 forward $109 $-1 #
coedge $-1 $274 $111 $270 $275 forward $69 $-1 #
coedge $-1 $111 $274 $188 $276 forward $69 $-1 #
edge $-1 $191 4.7604598121934103 $277 13.950890788965879 $111 $278 forward 7 unknown #
coedge $-1 $113 $112 $279 $280 forward $44 $-1 #
coedge $-1 $281 $282 $112 $187 forward $283 $-1 #
edge $-1 $284 -13.950890788965879 $192 -4.7604598121934103 $186 $285 forward 7 unknown #
coedge $-1 $286 $114 $183 $276 reversed $190 $-1 #
coedge $-1 $114 $286 $281 $287 reversed $190 $-1 #
loop $-1 $-1 $114 $178 #
vertex $-1 $184 $288 #
vertex $-1 $287 $289 #
straight-curve $-1 -75.151219214453562 -4.7604598121934103 0 0 0 1 I I #
face $-1 $-1 $290 $26 $-1 $291 reversed single #
loop $-1 $-1 $122 $116 #
plane-surface $-1 0 0 15.548634941289327 0 0 1 1 0 0 forward_v I I I I #
coedge $-1 $292 $293 $294 $295 reversed $117 $-1 #
coedge $-1 $296 $119 $121 $204 forward $73 $-1 #
coedge $-1 $119 $296 $292 $297 forward $73 $-1 #
coedge $-1 $294 $122 $119 $201 forward $195 $-1 #
edge $-1 $207 -34.613992023620291 $298 -14.796936881481606 $200 $299 forward 7 unknown #
coedge $-1 $300 $301 $120 $203 forward $290 $-1 #
edge $-1 $302 -71.702575171745025 $206 -60.591363035861185 $202 $303 forward 7 unknown #
edge $-1 $207 56.085454351429036 $302 70.185784795700116 $121 $304 forward 7 unknown #
coedge $-1 $122 $294 $300 $305 forward $195 $-1 #
vertex $-1 $203 $306 #
vertex $-1 $123 $307 #
straight-curve $-1 -59.31945647617124 55.161074170557363 15.548634941289322 0 -1 0 I I #
coedge $-1 $209 $209 $-1 $308 reversed $126 $-1 #
edge $-1 $309 0 $309 6.2831853071796004 $127 $310 forward 7 unknown #
vertex $-1 $130 $311 #
ellipse-curve $-1 -49.410928905101891 30.752377350386684 9.9930288733474004 0 0.78801076186113728 0.61566146476048833 3 0 0 1 I I #
face $-1 $-1 $312 $28 $-1 $313 reversed single #
loop $-1 $-1 $137 $131 #
plane-surface $-1 0 0 15.548634941289327 0 0 1 1 0 0 forward_v I I I I #
coedge $-1 $314 $315 $316 $317 reversed $132 $-1 #
coedge $-1 $318 $134 $136 $223 forward $82 $-1 #
coedge $-1 $134 $318 $314 $319 forward $82 $-1 #
coedge $-1 $316 $137 $134 $220 forward $214 $-1 #
edge $-1 $226 -18.459939400516639 $320 11.602774145785183 $219 $321 forward 7 unknown #
coedge $-1 $322 $323 $135 $222 forward $312 $-1 #
edge $-1 $324 -53.251970875442062 $225 -39.317919048642196 $221 $325 forward 7 unknown #
edge $-1 $226 -20.058855195106176 $324 -1.9785632286268914e-014 $136 $326 forward 7 unknown #
coedge $-1 $137 $316 $322 $327 forward $214 $-1 #
vertex $-1 $138 $328 #
vertex $-1 $138 $329 #
straight-curve $-1 21.888522027882367 -69.750870289731296 15.548634941289329 0 1 0 I I #
coedge $-1 $228 $228 $-1 $330 reversed $141 $-1 #
edge $-1 $331 0 $331 6.2831853071796004 $142 $332 forward 7 unknown #
vertex $-1 $145 $333 #
ellipse-curve $-1 -2.1616488091591037 -27.878326031354245 8.5816090278893942 0 -0.69465837861970381 0.71933979245794832 2 0 0 1 I I #
coedge $-1 $232 $232 $-1 $334 reversed $148 $-1 #
edge $-1 $335 0 $335 6.2831853071796004 $149 $336 forward 7 unknown #
vertex $-1 $152 $337 #
ellipse-curve $-1 6.8571652547314415 -27.878326031354245 8.5816090278893942 0 -0.69465837861970381 0.71933979245794832 2 0 0 1 I I #
coedge $-1 $236 $236 $-1 $338 reversed $155 $-1 #
edge $-1 $339 0 $339 6.2831853071796004 $156 $340 forward 7 unknown #
vertex $-1 $159 $341 #
ellipse-curve $-1 15.875979318621987 -27.878326031354245 8.5816090278893942 0 -0.69465837861970381 0.71933979245794832 2 0 0 1 I I #
face $-1 $-1 $252 $24 $-1 $342 reversed single #
loop $-1 $-1 $343 $160 #
plane-surface $-1 0 35.092892397850093 0 0 -1 0 0 0 -1 forward_v I I I I #
coedge $-1 $251 $250 $163 $244 reversed $252 $-1 #
edge $-1 $344 -35.092892397850093 $345 35.092892397850093 $243 $346 forward 7 unknown #
coedge $-1 $165 $164 $168 $256 forward $65 $-1 #
coedge $-1 $343 $171 $164 $247 reversed $241 $-1 #
edge $-1 $254 -75.151219214453562 $261 75.151219214453562 $246 $347 forward 7 unknown #
coedge $-1 $169 $348 $165 $249 reversed $161 $-1 #
edge $-1 $258 -75.151219214453562 $253 75.151219214453562 $248 $349 forward 7 unknown #
coedge $-1 $243 $166 $348 $350 forward $252 $-1 #
coedge $-1 $166 $243 $343 $351 reversed $252 $-1 #
loop $-1 $-1 $250 $240 #
vertex $-1 $167 $352 #
vertex $-1 $167 $353 #
straight-curve $-1 75.151219214453562 0 15.548634941289327 0 1 0 I I #
edge $-1 $261 -35.092892397850093 $258 35.092892397850093 $168 $354 forward 7 unknown #
coedge $-1 $348 $169 $174 $264 reversed $161 $-1 #
vertex $-1 $256 $355 #
straight-curve $-1 -75.151219214453562 -35.092892397850093 0 0 0 -1 I I #
coedge $-1 $171 $343 $173 $263 reversed $241 $-1 #
vertex $-1 $247 $356 #
straight-curve $-1 -75.151219214453562 35.092892397850093 0 0 0 -1 I I #
edge $-1 $176 -75.151219214453562 $344 75.151219214453562 $260 $357 forward 7 unknown #
edge $-1 $345 -75.151219214453562 $175 75.151219214453562 $257 $358 forward 7 unknown #
point $-1 -75.151219214453562 -35.092892397850093 -15.548634941289327 #
point $-1 -75.151219214453562 35.092892397850093 -15.548634941289327 #
face $-1 $-1 $283 $25 $-1 $359 forward single #
plane-surface $-1 -83.067100583594723 -4.7604598121934103 0 0 -1 0 0 0 -1 forward_v I I I I #
coedge $-1 $360 $361 $286 $362 forward $179 $-1 #
coedge $-1 $279 $181 $182 $275 reversed $109 $-1 #
coedge $-1 $181 $279 $282 $363 reversed $109 $-1 #
coedge $-1 $361 $360 $181 $273 reversed $179 $-1 #
edge $-1 $364 -15.548634941289327 $365 15.548634941289327 $272 $366 forward 7 unknown #
coedge $-1 $183 $182 $360 $367 forward $69 $-1 #
edge $-1 $277 -7.9158813691411609 $365 7.9158813691411609 $270 $368 forward 7 unknown #
edge $-1 $369 -7.9158813691411609 $191 7.9158813691411609 $188 $370 forward 7 unknown #
vertex $-1 $275 $371 #
straight-curve $-1 -75.151219214453562 0 -15.548634941289327 0 -1 0 I I #
coedge $-1 $271 $270 $185 $280 reversed $109 $-1 #
edge $-1 $284 -15.548634941289327 $277 15.548634941289327 $279 $372 forward 7 unknown #
coedge $-1 $373 $186 $189 $287 forward $283 $-1 #
coedge $-1 $186 $373 $271 $363 forward $283 $-1 #
loop $-1 $-1 $186 $267 #
vertex $-1 $187 $374 #
straight-curve $-1 -75.151219214453562 0 15.548634941289327 0 1 0 I I #
coedge $-1 $189 $188 $269 $362 reversed $190 $-1 #
edge $-1 $192 -7.9158813691411609 $375 7.9158813691411609 $189 $376 forward 7 unknown #
point $-1 -75.151219214453562 -4.7604598121934103 -15.548634941289327 #
point $-1 -75.151219214453562 -4.7604598121934103 15.548634941289327 #
loop $-1 $-1 $202 $194 #
plane-surface $-1 0 35.092892397850093 0 0 -1 0 0 0 -1 forward_v I I I I #
coedge $-1 $293 $197 $199 $297 reversed $117 $-1 #
coedge $-1 $197 $292 $377 $378 reversed $117 $-1 #
coedge $-1 $205 $200 $197 $295 forward $195 $-1 #
edge $-1 $298 -28.749211867634109 $379 -20.06818177270727 $294 $380 forward 7 unknown #
coedge $-1 $199 $198 $301 $381 reversed $73 $-1 #
edge $-1 $382 -70.185784795700116 $298 -56.085454351429036 $292 $383 forward 7 unknown #
vertex $-1 $201 $384 #
straight-curve $-1 -24.705464452550949 26.411862302923254 15.548634941289333 1 0 0 I I #
coedge $-1 $377 $202 $205 $305 reversed $290 $-1 #
coedge $-1 $202 $377 $296 $381 forward $290 $-1 #
vertex $-1 $203 $385 #
straight-curve $-1 -59.31945647617124 35.092892397850093 76.139997977150514 0 0 1 I I #
straight-curve $-1 -59.31945647617124 -8.1177906748350495 59.744576554086962 0 0.61566146476048833 -0.78801076186113728 I I #
edge $-1 $379 39.502401334032555 $206 59.31945647617124 $300 $386 forward 7 unknown #
point $-1 -59.31945647617124 35.092892397850093 15.548634941289327 #
point $-1 -59.31945647617124 26.411862302923254 15.548634941289329 #
edge $-1 $387 1 $387 0 $209 $-1 forward 7 unknown #
vertex $-1 $210 $388 #
ellipse-curve $-1 -49.410928905101891 27.911527248847531 7.7735135832925364 0 0.78801076186113728 0.61566146476048833 3 0 0 1 I I #
point $-1 -46.410928905101891 30.752377350386652 9.9930288733473773 #
loop $-1 $-1 $221 $213 #
plane-surface $-1 0 -35.092892397850093 0 0 1 0 0 0 1 forward_v I I I I #
coedge $-1 $315 $216 $218 $319 reversed $132 $-1 #
coedge $-1 $216 $314 $389 $390 reversed $132 $-1 #
coedge $-1 $224 $219 $216 $317 forward $214 $-1 #
edge $-1 $320 -49.087110624872906 $391 -34.657977891881202 $316 $392 forward 7 unknown #
coedge $-1 $218 $217 $323 $393 reversed $82 $-1 #
edge $-1 $394 1.9785632286268914e-014 $320 20.058855195106176 $314 $395 forward 7 unknown #
vertex $-1 $220 $396 #
straight-curve $-1 3.4285826273657278 -20.663759664858393 15.548634941289327 -1 0 0 I I #
coedge $-1 $389 $221 $224 $327 reversed $312 $-1 #
coedge $-1 $221 $389 $318 $393 forward $312 $-1 #
vertex $-1 $222 $397 #
straight-curve $-1 21.888522027882367 -35.092892397850093 54.866553989931525 0 0 1 I I #
straight-curve $-1 21.888522027882367 -35.092892397850107 1.6145831144894487 0 -0.71933979245794832 -0.69465837861970381 I I #
edge $-1 $391 -8.1741915184194553 $225 21.888522027882367 $322 $398 forward 7 unknown #
point $-1 21.888522027882367 -35.092892397850093 15.548634941289327 #
point $-1 21.888522027882367 -20.663759664858393 15.548634941289327 #
edge $-1 $399 1 $399 0 $228 $-1 forward 7 unknown #
vertex $-1 $229 $400 #
ellipse-curve $-1 -2.1616488091591037 -24.956253734266671 5.5557146538652535 0 -0.69465837861970381 0.71933979245794832 2 0 0 1 I I #
point $-1 -0.16164880915910373 -27.878326031354234 8.5816090278893888 #
edge $-1 $401 1 $401 0 $232 $-1 forward 7 unknown #
vertex $-1 $233 $402 #
ellipse-curve $-1 6.8571652547314415 -24.956253734266671 5.5557146538652535 0 -0.69465837861970381 0.71933979245794832 2 0 0 1 I I #
point $-1 8.8571652547314415 -27.878326031354234 8.5816090278893888 #
edge $-1 $403 1 $403 0 $236 $-1 forward 7 unknown #
vertex $-1 $237 $404 #
ellipse-curve $-1 15.875979318621987 -24.956253734266671 5.5557146538652535 0 -0.69465837861970381 0.71933979245794832 2 0 0 1 I I #
point $-1 17.875979318621987 -27.878326031354234 8.5816090278893888 #
plane-surface $-1 75.151219214453562 0 0 -1 0 0 0 0 1 forward_v I I I I #
coedge $-1 $260 $246 $251 $351 forward $241 $-1 #
vertex $-1 $244 $405 #
vertex $-1 $350 $406 #
straight-curve $-1 75.151219214453562 0 -15.548634941289327 0 -1 0 I I #
straight-curve $-1 0 35.092892397850093 15.548634941289327 -1 0 0 I I #
coedge $-1 $248 $257 $250 $350 reversed $161 $-1 #
straight-curve $-1 0 -35.092892397850093 15.548634941289327 1 0 0 I I #
edge $-1 $253 -15.548634941289327 $345 15.548634941289327 $250 $407 forward 7 unknown #
edge $-1 $254 -15.548634941289327 $344 15.548634941289327 $251 $408 forward 7 unknown #
point $-1 75.151219214453562 -35.092892397850093 15.548634941289327 #
point $-1 75.151219214453562 35.092892397850093 15.548634941289327 #
straight-curve $-1 -75.151219214453562 0 15.548634941289327 0 -1 0 I I #
point $-1 -75.151219214453562 -35.092892397850093 15.548634941289327 #
point $-1 -75.151219214453562 35.092892397850093 15.548634941289327 #
straight-curve $-1 0 35.092892397850093 -15.548634941289327 1 0 0 I I #
straight-curve $-1 0 -35.092892397850093 -15.548634941289327 -1 0 0 I I #
plane-surface $-1 0 0 15.548634941289327 0 0 1 1 0 0 forward_v I I I I #
coedge $-1 $272 $269 $274 $367 reversed $179 $-1 #
coedge $-1 $269 $272 $373 $409 reversed $179 $-1 #
edge $-1 $375 -15.548634941289327 $369 15.548634941289327 $286 $410 forward 7 unknown #
edge $-1 $364 -7.9158813691411609 $284 7.9158813691411609 $271 $411 forward 7 unknown #
vertex $-1 $409 $412 #
vertex $-1 $367 $413 #
straight-curve $-1 -90.982981952735884 -13.950890788965879 0 0 0 -1 I I #
edge $-1 $365 -4.5952154883862342 $369 4.5952154883862342 $360 $414 forward 7 unknown #
straight-curve $-1 -83.067100583594723 -13.950890788965879 -15.548634941289327 -1 0 0 I I #
vertex $-1 $276 $415 #
straight-curve $-1 -83.067100583594723 -4.7604598121934103 -15.548634941289327 1 0 0 I I #
point $-1 -75.151219214453562 -13.950890788965879 -15.548634941289327 #
straight-curve $-1 -75.151219214453562 -13.950890788965879 0 0 0 -1 I I #
coedge $-1 $282 $281 $361 $409 forward $283 $-1 #
point $-1 -75.151219214453562 -13.950890788965879 15.548634941289327 #
vertex $-1 $287 $416 #
straight-curve $-1 -83.067100583594723 -4.7604598121934103 15.548634941289327 -1 0 0 I I #
coedge $-1 $301 $300 $293 $378 forward $290 $-1 #
edge $-1 $379 60.591363035861185 $382 71.702575171745025 $377 $417 forward 7 unknown #
vertex $-1 $305 $418 #
straight-curve $-1 -39.502401334032555 55.161074170557363 15.548634941289322 0 1 0 I I #
edge $-1 $382 14.796936881481606 $302 34.613992023620291 $301 $419 forward 7 unknown #
vertex $-1 $381 $420 #
straight-curve $-1 -39.502401334032555 -8.1177906748350495 59.744576554086962 0 -0.61566146476048833 0.78801076186113728 I I #
point $-1 -39.502401334032555 26.411862302923254 15.548634941289329 #
point $-1 -59.31945647617124 35.092892397850093 4.4374228054054896 #
straight-curve $-1 0 35.092892397850093 15.548634941289327 -1 0 0 I I #
vertex $-1 $308 $421 #
point $-1 -46.410928905101891 27.911527248847531 7.7735135832925364 #
coedge $-1 $323 $322 $315 $390 forward $312 $-1 #
edge $-1 $391 39.317919048642196 $394 53.251970875442062 $389 $422 forward 7 unknown #
vertex $-1 $327 $423 #
straight-curve $-1 -8.1741915184194553 -69.750870289731296 15.548634941289329 0 -1 0 I I #
edge $-1 $394 -11.602774145785183 $324 18.459939400516639 $323 $424 forward 7 unknown #
vertex $-1 $393 $425 #
straight-curve $-1 -8.1741915184194553 -35.092892397850107 1.6145831144894487 0 0.71933979245794832 0.69465837861970381 I I #
point $-1 -8.1741915184194553 -20.663759664858393 15.548634941289327 #
point $-1 21.888522027882367 -35.092892397850093 1.6145831144894625 #
straight-curve $-1 0 -35.092892397850093 15.548634941289327 1 0 0 I I #
vertex $-1 $330 $426 #
point $-1 -0.16164880915910373 -24.956253734266671 5.5557146538652535 #
vertex $-1 $334 $427 #
point $-1 8.8571652547314415 -24.956253734266671 5.5557146538652535 #
vertex $-1 $338 $428 #
point $-1 17.875979318621987 -24.956253734266671 5.5557146538652535 #
point $-1 75.151219214453562 35.092892397850093 -15.548634941289327 #
point $-1 75.151219214453562 -35.092892397850093 -15.548634941289327 #
straight-curve $-1 75.151219214453562 -35.092892397850093 0 0 0 -1 I I #
straight-curve $-1 75.151219214453562 35.092892397850093 0 0 0 -1 I I #
edge $-1 $375 -4.5952154883862342 $364 4.5952154883862342 $361 $429 forward 7 unknown #
straight-curve $-1 -90.982981952735884 -4.7604598121934103 0 0 0 -1 I I #
straight-curve $-1 -83.067100583594723 -13.950890788965879 15.548634941289327 1 0 0 I I #
point $-1 -90.982981952735884 -13.950890788965879 15.548634941289327 #
point $-1 -90.982981952735884 -13.950890788965879 -15.548634941289327 #
straight-curve $-1 -90.982981952735884 -9.3556753005796445 -15.548634941289327 0 1 0 I I #
point $-1 -90.982981952735884 -4.7604598121934103 -15.548634941289327 #
point $-1 -90.982981952735884 -4.7604598121934103 15.548634941289327 #
straight-curve $-1 -39.502401334032555 35.092892397850093 76.139997977150514 0 0 -1 I I #
point $-1 -39.502401334032555 35.092892397850093 15.548634941289327 #
straight-curve $-1 -24.705464452550949 35.092892397850093 4.4374228054054861 -1 0 0 I I #
point $-1 -39.502401334032555 35.092892397850093 4.4374228054054896 #
point $-1 -49.410928905101891 25.547494963264118 5.9265291890110712 #
straight-curve $-1 -8.1741915184194553 -35.092892397850093 54.866553989931525 0 0 -1 I I #
point $-1 -8.1741915184194553 -35.092892397850093 15.548634941289327 #
straight-curve $-1 3.4285826273657278 -35.092892397850093 1.6145831144894629 1 0 0 I I #
point $-1 -8.1741915184194553 -35.092892397850093 1.6145831144894625 #
point $-1 -2.1616488091591037 -23.566936977027265 4.1170350689493578 #
point $-1 6.8571652547314415 -23.566936977027265 4.1170350689493578 #
point $-1 15.875979318621987 -23.566936977027265 4.1170350689493578 #
straight-curve $-1 -90.982981952735884 -9.3556753005796445 15.548634941289327 0 -1 0 I I #
End-of-ACIS-data 