500 0 4 0           
7 Unknown 11 ACIS 5.0 NT 24 Thu Mar 25 18:32:02 1999 
-1 9.9999999999999995e-007 1e-010 
body $-1 $4 $-1 $5 #
body $-1 $6 $-1 $7 #
body $-1 $8 $-1 $9 #
body $-1 $10 $-1 $11 #
lump $-1 $-1 $12 $0 #
transform $-1 1 0 0 0 1 0 0 0 1 50.566728720969266 21.688276277096772 8.193848913379064 1 rotate no_reflect no_shear #
lump $-1 $-1 $13 $1 #
transform $-1 1 0 0 0 1 0 0 0 1 50.566728720969266 21.688276277096772 8.193848913379064 1 rotate no_reflect no_shear #
lump $-1 $-1 $14 $2 #
transform $-1 1 0 0 0 1 0 0 0 1 50.566728720969266 21.688276277096772 8.193848913379064 1 rotate no_reflect no_shear #
lump $-1 $-1 $15 $3 #
transform $-1 1 0 0 0 1 0 0 0 1 50.566728720969266 21.688276277096772 8.193848913379064 1 rotate no_reflect no_shear #
shell $-1 $-1 $-1 $16 $-1 $4 #
shell $-1 $-1 $-1 $17 $-1 $6 #
shell $-1 $-1 $-1 $18 $-1 $8 #
shell $-1 $-1 $-1 $19 $-1 $10 #
face $-1 $20 $21 $12 $-1 $22 forward single #
face $-1 $23 $24 $13 $-1 $25 reversed single #
face $-1 $26 $27 $14 $-1 $28 forward single #
face $-1 $29 $30 $15 $-1 $31 reversed single #
face $-1 $32 $33 $12 $-1 $34 reversed single #
loop $-1 $-1 $35 $16 #
plane-surface $-1 0 0 8.193848913379064 0 0 1 1 0 0 forward_v I I I I #
face $-1 $36 $37 $13 $-1 $38 reversed single #
loop $-1 $-1 $39 $17 #
plane-surface $-1 0 -25.816148661320707 4.4791473658389771 0 0 1 1 0 0 forward_v I I I I #
face $-1 $40 $41 $14 $-1 $42 forward single #
loop $-1 $-1 $43 $18 #
plane-surface $-1 23.276405594967159 -3.8427990410651889 144.97649339321745 0 -1 0 -0.55919291073839883 0 -0.82903756765294845 forward_v I I I I #
face $-1 $44 $45 $15 $-1 $46 reversed single #
loop $-1 $47 $48 $19 #
cone-surface $-1 47.340377995790504 -8.6376652748570439 5.5752919653542232 -0.55919291073839883 0 -0.82903756765294845 0.82903756765294845 0 -0.55919291073839883 1 I I 0 1 1 forward I I I I #
face $-1 $49 $50 $12 $-1 $51 reversed single #
loop $-1 $-1 $52 $20 #
plane-surface $-1 0 0 -8.193848913379064 0 0 1 1 0 0 forward_v I I I I #
coedge $-1 $53 $54 $55 $56 forward $21 $-1 #
face $-1 $57 $58 $13 $-1 $59 forward single #
loop $-1 $-1 $60 $23 #
plane-surface $-1 0 -29.944021045544641 6.3364981396090201 0 1 0 0 0 1 forward_v I I I I #
coedge $-1 $61 $62 $63 $64 forward $24 $-1 #
face $-1 $65 $66 $14 $-1 $67 forward single #
loop $-1 $-1 $68 $26 #
plane-surface $-1 -33.276706845028428 -8.6376652748570457 61.133057827219758 0.55919291073839883 0 0.82903756765294845 0.82903756765294845 0 -0.55919291073839883 forward_v I I I I #
coedge $-1 $69 $70 $71 $72 reversed $27 $-1 #
face $-1 $73 $74 $15 $-1 $75 forward single #
loop $-1 $76 $77 $29 #
cone-surface $-1 46.513346920509008 -8.6376652748570439 4.3491679965803556 -0.55919291073839883 0 -0.82903756765294845 0.41451878382647422 0 -0.27959645536919941 1 I I -0.70710678118654746 0.70710678118654746 0.5 forward I I I I #
loop $-1 $-1 $78 $19 #
coedge $-1 $48 $48 $79 $80 reversed $30 $-1 #
face $-1 $81 $82 $12 $-1 $83 reversed single #
loop $-1 $-1 $84 $32 #
plane-surface $-1 0 -21.688276277096772 0 0 1 0 0 0 1 forward_v I I I I #
coedge $-1 $85 $86 $87 $88 forward $33 $-1 #
coedge $-1 $89 $35 $90 $91 forward $21 $-1 #
coedge $-1 $35 $89 $92 $93 forward $21 $-1 #
coedge $-1 $94 $95 $35 $56 reversed $96 $-1 #
edge $-1 $97 -21.688276277096772 $98 21.688276277096772 $55 $99 forward 7 unknown #
face $-1 $100 $101 $13 $-1 $102 reversed single #
loop $-1 $-1 $103 $36 #
plane-surface $-1 0 0 8.193848913379064 0 0 1 1 0 0 forward_v I I I I #
coedge $-1 $104 $105 $106 $107 forward $37 $-1 #
coedge $-1 $108 $39 $104 $109 forward $24 $-1 #
coedge $-1 $39 $108 $110 $111 reversed $24 $-1 #
coedge $-1 $112 $113 $39 $64 reversed $114 $-1 #
edge $-1 $115 -4.1278723842239344 $116 4.1278723842239344 $63 $117 forward 7 unknown #
face $-1 $118 $119 $14 $-1 $120 forward single #
loop $-1 $-1 $121 $40 #
plane-surface $-1 23.276405594967159 -13.432531508648903 144.97649339321745 0 1 0 0.55919291073839883 0 0.82903756765294845 forward_v I I I I #
coedge $-1 $122 $123 $124 $125 reversed $41 $-1 #
coedge $-1 $70 $43 $123 $126 forward $27 $-1 #
coedge $-1 $43 $69 $127 $128 reversed $27 $-1 #
coedge $-1 $129 $124 $43 $72 forward $119 $-1 #
edge $-1 $130 33.570693712952739 $131 38.928525923485687 $71 $132 forward 7 unknown #
face $-1 $133 $134 $15 $-1 $135 forward single #
loop $-1 $-1 $136 $44 #
plane-surface $-1 23.276405594967159 -3.8427990410651889 144.97649339321745 0 -1 0 -0.55919291073839883 0 -0.82903756765294845 forward_v I I I I #
loop $-1 $-1 $137 $29 #
coedge $-1 $77 $77 $78 $138 forward $45 $-1 #
coedge $-1 $78 $78 $77 $138 reversed $47 $-1 #
coedge $-1 $79 $79 $48 $80 forward $134 $-1 #
edge $-1 $139 0 $139 6.2831853071796004 $79 $140 forward 7 unknown #
face $-1 $141 $142 $12 $-1 $143 reversed single #
loop $-1 $-1 $144 $49 #
plane-surface $-1 -50.566728720969266 0 0 1 0 0 0 0 -1 forward_v I I I I #
coedge $-1 $145 $92 $146 $147 forward $50 $-1 #
coedge $-1 $148 $52 $145 $149 forward $33 $-1 #
coedge $-1 $52 $148 $150 $151 forward $33 $-1 #
coedge $-1 $95 $94 $52 $88 reversed $96 $-1 #
edge $-1 $152 -21.688276277096772 $153 21.688276277096772 $87 $154 forward 7 unknown #
coedge $-1 $54 $53 $155 $156 forward $21 $-1 #
coedge $-1 $157 $158 $53 $91 reversed $142 $-1 #
edge $-1 $98 -50.566728720969266 $159 50.566728720969266 $90 $160 forward 7 unknown #
coedge $-1 $84 $161 $54 $93 reversed $50 $-1 #
edge $-1 $162 -50.566728720969266 $97 50.566728720969266 $92 $163 forward 7 unknown #
coedge $-1 $87 $55 $161 $164 forward $96 $-1 #
coedge $-1 $55 $87 $157 $165 reversed $96 $-1 #
loop $-1 $-1 $94 $141 #
vertex $-1 $56 $166 #
vertex $-1 $56 $167 #
straight-curve $-1 50.566728720969266 0 8.193848913379064 0 1 0 I I #
face $-1 $168 $169 $13 $-1 $170 reversed single #
loop $-1 $-1 $171 $57 #
plane-surface $-1 0 0 -8.193848913379064 0 0 1 1 0 0 forward_v I I I I #
coedge $-1 $172 $173 $174 $175 forward $58 $-1 #
coedge $-1 $176 $60 $61 $109 reversed $37 $-1 #
coedge $-1 $60 $176 $173 $177 reversed $37 $-1 #
coedge $-1 $178 $179 $60 $107 reversed $180 $-1 #
edge $-1 $181 -1.8573507737700439 $182 1.857350773770043 $106 $183 forward 7 unknown #
coedge $-1 $62 $61 $179 $184 forward $24 $-1 #
edge $-1 $116 -50.566728720969266 $182 50.566728720969266 $104 $185 forward 7 unknown #
coedge $-1 $186 $187 $62 $111 forward $169 $-1 #
edge $-1 $115 -50.566728720969266 $188 50.566728720969266 $110 $189 forward 7 unknown #
coedge $-1 $190 $63 $187 $191 forward $114 $-1 #
coedge $-1 $63 $174 $176 $192 forward $114 $-1 #
loop $-1 $-1 $112 $193 #
vertex $-1 $191 $194 #
vertex $-1 $192 $195 #
straight-curve $-1 50.566728720969266 -25.816148661320707 4.4791473658389771 0 -1 0 I I #
face $-1 $196 $197 $14 $-1 $198 reversed single #
loop $-1 $-1 $199 $65 #
plane-surface $-1 0 0 8.193848913379064 0 0 1 1 0 0 forward_v I I I I #
coedge $-1 $200 $201 $199 $202 reversed $66 $-1 #
coedge $-1 $203 $68 $201 $204 reversed $41 $-1 #
coedge $-1 $68 $203 $69 $126 reversed $41 $-1 #
coedge $-1 $71 $199 $68 $125 forward $119 $-1 #
edge $-1 $205 -9.1136988712203806 $130 0.47603359636333398 $124 $206 forward 7 unknown #
edge $-1 $130 94.670744026307347 $207 101.13345744193853 $69 $208 forward 7 unknown #
coedge $-1 $209 $210 $70 $128 forward $211 $-1 #
edge $-1 $131 64.29439778322967 $207 67.908301309384555 $127 $212 forward 7 unknown #
coedge $-1 $213 $71 $210 $214 forward $119 $-1 #
vertex $-1 $125 $215 #
vertex $-1 $214 $216 #
straight-curve $-1 11.638202797483579 -3.8427990410651889 8.1938489133790711 1 0 0 I I #
face $-1 $217 $218 $15 $-1 $219 forward single #
loop $-1 $220 $79 $73 #
plane-surface $-1 -33.276706845028428 -8.6376652748570457 61.133057827219758 0.55919291073839883 0 0.82903756765294845 0.82903756765294845 0 -0.55919291073839883 forward_v I I I I #
coedge $-1 $221 $222 $223 $224 reversed $74 $-1 #
coedge $-1 $137 $137 $-1 $225 forward $76 $-1 #
edge $-1 $226 0 $226 6.2831853071796004 $77 $227 forward 7 unknown #
vertex $-1 $80 $228 #
ellipse-curve $-1 47.887812615702799 -8.6376652748570439 6.3868971503016123 -0.55919291073839883 0 -0.82903756765294845 0.82903756765294845 0 -0.55919291073839883 1 I I #
face $-1 $-1 $96 $12 $-1 $229 reversed single #
loop $-1 $-1 $157 $81 #
plane-surface $-1 0 21.688276277096772 0 0 -1 0 0 0 -1 forward_v I I I I #
coedge $-1 $230 $155 $158 $231 forward $82 $-1 #
coedge $-1 $161 $84 $85 $149 reversed $50 $-1 #
coedge $-1 $155 $230 $84 $147 reversed $82 $-1 #
edge $-1 $162 -8.193848913379064 $232 8.193848913379064 $146 $233 forward 7 unknown #
coedge $-1 $86 $85 $230 $234 forward $33 $-1 #
edge $-1 $153 -50.566728720969266 $232 50.566728720969266 $145 $235 forward 7 unknown #
coedge $-1 $158 $157 $86 $151 reversed $142 $-1 #
edge $-1 $236 -50.566728720969266 $152 50.566728720969266 $150 $237 forward 7 unknown #
vertex $-1 $88 $238 #
vertex $-1 $164 $239 #
straight-curve $-1 50.566728720969266 0 -8.193848913379064 0 -1 0 I I #
coedge $-1 $144 $146 $89 $156 reversed $82 $-1 #
edge $-1 $159 -21.688276277096772 $162 21.688276277096772 $155 $240 forward 7 unknown #
coedge $-1 $150 $90 $95 $165 forward $142 $-1 #
coedge $-1 $90 $150 $144 $231 reversed $142 $-1 #
vertex $-1 $91 $241 #
straight-curve $-1 0 21.688276277096772 8.193848913379064 -1 0 0 I I #
coedge $-1 $92 $145 $94 $164 reversed $50 $-1 #
vertex $-1 $156 $242 #
straight-curve $-1 0 -21.688276277096772 8.193848913379064 1 0 0 I I #
edge $-1 $97 -8.193848913379064 $153 8.193848913379064 $94 $243 forward 7 unknown #
edge $-1 $98 -8.193848913379064 $152 8.193848913379064 $95 $244 forward 7 unknown #
point $-1 50.566728720969266 -21.688276277096772 8.193848913379064 #
point $-1 50.566728720969266 21.688276277096772 8.193848913379064 #
face $-1 $245 $180 $13 $-1 $246 reversed single #
loop $-1 $-1 $110 $100 #
plane-surface $-1 0 -21.688276277096772 0 0 1 0 0 0 1 forward_v I I I I #
coedge $-1 $247 $248 $190 $249 forward $101 $-1 #
coedge $-1 $250 $103 $251 $252 forward $58 $-1 #
coedge $-1 $103 $250 $105 $177 forward $58 $-1 #
coedge $-1 $113 $253 $103 $175 reversed $114 $-1 #
edge $-1 $254 -29.944021045544641 $255 21.688276277096772 $174 $256 forward 7 unknown #
coedge $-1 $105 $104 $113 $192 reversed $37 $-1 #
edge $-1 $181 -50.566728720969266 $254 50.566728720969266 $105 $257 forward 7 unknown #
coedge $-1 $258 $106 $250 $259 reversed $180 $-1 #
coedge $-1 $106 $260 $108 $184 reversed $180 $-1 #
loop $-1 $-1 $258 $168 #
vertex $-1 $259 $261 #
vertex $-1 $184 $262 #
straight-curve $-1 -50.566728720969266 -29.944021045544641 6.3364981396090201 0 0 -1 I I #
edge $-1 $182 -4.1278723842239344 $188 4.1278723842239344 $179 $263 forward 7 unknown #
straight-curve $-1 0 -29.944021045544641 4.4791473658389771 -1 0 0 I I #
coedge $-1 $264 $110 $260 $265 forward $169 $-1 #
coedge $-1 $110 $264 $112 $191 reversed $169 $-1 #
vertex $-1 $265 $266 #
straight-curve $-1 0 -21.688276277096772 4.4791473658389771 -1 0 0 I I #
coedge $-1 $253 $112 $171 $249 reversed $114 $-1 #
edge $-1 $115 -4.4791473658389771 $267 8.193848913379064 $112 $268 forward 7 unknown #
edge $-1 $254 -1.8573507737700439 $116 1.857350773770043 $113 $269 forward 7 unknown #
face $-1 $-1 $114 $13 $-1 $270 reversed single #
point $-1 50.566728720969266 -21.688276277096772 4.4791473658389771 #
point $-1 50.566728720969266 -29.944021045544641 4.4791473658389771 #
face $-1 $271 $272 $14 $-1 $273 reversed single #
loop $-1 $-1 $274 $118 #
plane-surface $-1 0 -25.816148661320707 4.4791473658389771 0 0 1 1 0 0 forward_v I I I I #
coedge $-1 $124 $275 $121 $202 forward $119 $-1 #
coedge $-1 $201 $121 $276 $277 reversed $66 $-1 #
coedge $-1 $121 $200 $122 $204 forward $66 $-1 #
edge $-1 $278 -38.928525923485687 $205 -33.570693712952739 $199 $279 forward 7 unknown #
coedge $-1 $123 $122 $209 $280 reversed $41 $-1 #
edge $-1 $281 -101.13345744193853 $205 -94.670744026307347 $201 $282 forward 7 unknown #
vertex $-1 $125 $283 #
straight-curve $-1 45.208896510436304 -4.3188326374285229 8.193848913379064 0 1 0 I I #
vertex $-1 $280 $284 #
straight-curve $-1 -33.276706845028428 -3.8427990410651889 61.133057827219758 0.82903756765294845 0 -0.55919291073839883 I I #
coedge $-1 $276 $127 $203 $280 forward $211 $-1 #
coedge $-1 $127 $285 $129 $214 reversed $211 $-1 #
loop $-1 $-1 $276 $286 #
straight-curve $-1 50.566728720969266 -3.8427990410651889 72.488246696608726 0 0 -1 I I #
coedge $-1 $287 $129 $288 $289 forward $119 $-1 #
edge $-1 $131 -3.8427990410651889 $290 21.688276277096772 $210 $291 forward 7 unknown #
point $-1 45.208896510436318 -3.8427990410651889 8.193848913379064 #
point $-1 50.566728720969266 -3.8427990410651889 8.193848913379064 #
face $-1 $292 $293 $15 $-1 $294 forward single #
loop $-1 $-1 $295 $133 #
plane-surface $-1 23.276405594967159 -13.432531508648903 144.97649339321745 0 1 0 0.55919291073839883 0 0.82903756765294845 forward_v I I I I #
loop $-1 $-1 $296 $73 #
coedge $-1 $222 $136 $297 $298 forward $74 $-1 #
coedge $-1 $136 $221 $299 $300 reversed $74 $-1 #
coedge $-1 $301 $302 $136 $224 forward $293 $-1 #
edge $-1 $303 33.570693712952739 $304 38.928525923485687 $223 $305 forward 7 unknown #
edge $-1 $306 1 $306 0 $137 $-1 forward 7 unknown #
vertex $-1 $138 $307 #
ellipse-curve $-1 46.79294337587821 -8.6376652748570439 4.7636867804068297 0.55919291073839883 0 0.82903756765294845 0.82903756765294845 0 -0.55919291073839883 1 I I #
point $-1 48.71685018335576 -8.6376652748570439 5.8277042395632197 #
plane-surface $-1 50.566728720969266 0 0 -1 0 0 0 0 1 forward_v I I I I #
coedge $-1 $146 $144 $148 $234 reversed $82 $-1 #
edge $-1 $159 -8.193848913379064 $236 8.193848913379064 $158 $308 forward 7 unknown #
vertex $-1 $234 $309 #
straight-curve $-1 -50.566728720969266 -21.688276277096772 0 0 0 -1 I I #
edge $-1 $232 -21.688276277096772 $236 21.688276277096772 $230 $310 forward 7 unknown #
straight-curve $-1 0 -21.688276277096772 -8.193848913379064 -1 0 0 I I #
vertex $-1 $151 $311 #
straight-curve $-1 0 21.688276277096772 -8.193848913379064 1 0 0 I I #
point $-1 50.566728720969266 21.688276277096772 -8.193848913379064 #
point $-1 50.566728720969266 -21.688276277096772 -8.193848913379064 #
straight-curve $-1 -50.566728720969266 0 8.193848913379064 0 -1 0 I I #
point $-1 -50.566728720969266 21.688276277096772 8.193848913379064 #
point $-1 -50.566728720969266 -21.688276277096772 8.193848913379064 #
straight-curve $-1 50.566728720969266 -21.688276277096772 0 0 0 -1 I I #
straight-curve $-1 50.566728720969266 21.688276277096772 0 0 0 -1 I I #
face $-1 $193 $312 $13 $-1 $313 reversed single #
plane-surface $-1 -50.566728720969266 0 0 1 0 0 0 0 -1 forward_v I I I I #
coedge $-1 $314 $171 $264 $315 forward $101 $-1 #
coedge $-1 $171 $314 $316 $317 forward $101 $-1 #
edge $-1 $318 -21.688276277096772 $267 21.688276277096772 $190 $319 forward 7 unknown #
coedge $-1 $173 $172 $178 $259 forward $58 $-1 #
coedge $-1 $320 $321 $172 $252 reversed $312 $-1 #
edge $-1 $255 -50.566728720969266 $322 50.566728720969266 $251 $323 forward 7 unknown #
coedge $-1 $174 $190 $320 $324 reversed $114 $-1 #
vertex $-1 $175 $325 #
vertex $-1 $175 $326 #
straight-curve $-1 50.566728720969266 0 8.193848913379064 0 1 0 I I #
straight-curve $-1 0 -29.944021045544641 8.193848913379064 1 0 0 I I #
coedge $-1 $327 $178 $321 $328 forward $180 $-1 #
edge $-1 $322 -21.688276277096772 $181 29.944021045544641 $178 $329 forward 7 unknown #
coedge $-1 $179 $327 $186 $265 reversed $180 $-1 #
point $-1 -50.566728720969266 -29.944021045544641 8.193848913379064 #
point $-1 -50.566728720969266 -29.944021045544641 4.4791473658389771 #
straight-curve $-1 -50.566728720969266 -25.816148661320707 4.4791473658389771 0 1 0 I I #
coedge $-1 $187 $186 $247 $315 reversed $169 $-1 #
edge $-1 $188 -4.4791473658389771 $330 8.193848913379064 $260 $331 forward 7 unknown #
point $-1 -50.566728720969266 -21.688276277096772 4.4791473658389771 #
vertex $-1 $191 $332 #
straight-curve $-1 50.566728720969266 -21.688276277096772 0 0 0 -1 I I #
straight-curve $-1 50.566728720969266 -29.944021045544641 6.3364981396090201 0 0 -1 I I #
plane-surface $-1 50.566728720969266 0 0 -1 0 0 0 0 1 forward_v I I I I #
face $-1 $333 $334 $14 $-1 $335 reversed single #
loop $-1 $-1 $336 $196 #
plane-surface $-1 0 -29.944021045544641 6.3364981396090201 0 1 0 0 0 1 forward_v I I I I #
coedge $-1 $337 $338 $339 $340 forward $197 $-1 #
coedge $-1 $199 $341 $342 $343 forward $119 $-1 #
coedge $-1 $342 $209 $200 $277 forward $211 $-1 #
edge $-1 $281 -67.908301309384555 $278 -64.29439778322967 $276 $344 forward 7 unknown #
vertex $-1 $277 $345 #
straight-curve $-1 11.638202797483579 -13.432531508648903 8.1938489133790711 -1 0 0 I I #
edge $-1 $207 -0.47603359636333398 $281 9.1136988712203806 $209 $346 forward 7 unknown #
vertex $-1 $280 $347 #
straight-curve $-1 -33.276706845028428 -13.432531508648903 61.133057827219758 -0.82903756765294845 0 0.55919291073839883 I I #
point $-1 45.208896510436318 -13.432531508648903 8.193848913379064 #
point $-1 50.566728720969266 -3.8427990410651889 4.5799453872241713 #
coedge $-1 $210 $348 $349 $350 reversed $211 $-1 #
face $-1 $-1 $211 $14 $-1 $351 reversed single #
coedge $-1 $341 $213 $352 $353 forward $119 $-1 #
coedge $-1 $349 $354 $213 $289 reversed $355 $-1 #
edge $-1 $290 -50.566728720969266 $356 50.566728720969266 $288 $357 forward 7 unknown #
vertex $-1 $214 $358 #
straight-curve $-1 50.566728720969266 0 8.193848913379064 0 1 0 I I #
face $-1 $359 $360 $15 $-1 $361 reversed single #
loop $-1 $-1 $362 $217 #
plane-surface $-1 0 0 8.193848913379064 0 0 1 1 0 0 forward_v I I I I #
coedge $-1 $363 $364 $362 $365 reversed $218 $-1 #
coedge $-1 $366 $297 $302 $367 reversed $220 $-1 #
coedge $-1 $296 $368 $221 $298 reversed $220 $-1 #
edge $-1 $303 94.670744026307347 $369 101.13345744193853 $221 $370 forward 7 unknown #
coedge $-1 $371 $372 $222 $300 forward $373 $-1 #
edge $-1 $304 64.29439778322967 $369 67.908301309384555 $299 $374 forward 7 unknown #
coedge $-1 $375 $223 $372 $376 forward $293 $-1 #
coedge $-1 $223 $362 $296 $367 forward $293 $-1 #
vertex $-1 $367 $377 #
vertex $-1 $376 $378 #
straight-curve $-1 11.638202797483579 -3.8427990410651889 8.1938489133790711 1 0 0 I I #
vertex $-1 $225 $379 #
point $-1 47.621980943531156 -8.6376652748570439 4.2044938696684309 #
straight-curve $-1 -50.566728720969266 21.688276277096772 0 0 0 -1 I I #
point $-1 -50.566728720969266 -21.688276277096772 -8.193848913379064 #
straight-curve $-1 -50.566728720969266 0 -8.193848913379064 0 1 0 I I #
point $-1 -50.566728720969266 21.688276277096772 -8.193848913379064 #
loop $-1 $-1 $320 $245 #
plane-surface $-1 0 21.688276277096772 0 0 -1 0 0 0 -1 forward_v I I I I #
coedge $-1 $248 $247 $327 $380 forward $101 $-1 #
edge $-1 $267 -50.566728720969266 $330 50.566728720969266 $264 $381 forward 7 unknown #
coedge $-1 $321 $320 $248 $317 reversed $312 $-1 #
edge $-1 $382 -50.566728720969266 $318 50.566728720969266 $316 $383 forward 7 unknown #
vertex $-1 $249 $384 #
straight-curve $-1 50.566728720969266 0 -8.193848913379064 0 -1 0 I I #
coedge $-1 $316 $251 $253 $324 forward $312 $-1 #
coedge $-1 $251 $316 $258 $328 reversed $312 $-1 #
vertex $-1 $252 $385 #
straight-curve $-1 0 21.688276277096772 8.193848913379064 -1 0 0 I I #
edge $-1 $255 -8.193848913379064 $318 8.193848913379064 $253 $386 forward 7 unknown #
point $-1 50.566728720969266 -29.944021045544641 8.193848913379064 #
point $-1 50.566728720969266 21.688276277096772 8.193848913379064 #
coedge $-1 $260 $258 $314 $380 reversed $180 $-1 #
edge $-1 $322 -8.193848913379064 $382 8.193848913379064 $321 $387 forward 7 unknown #
straight-curve $-1 -50.566728720969266 0 8.193848913379064 0 -1 0 I I #
vertex $-1 $380 $388 #
straight-curve $-1 -50.566728720969266 -21.688276277096772 0 0 0 -1 I I #
point $-1 50.566728720969266 -21.688276277096772 -8.193848913379064 #
face $-1 $389 $390 $14 $-1 $391 reversed single #
loop $-1 $-1 $392 $271 #
plane-surface $-1 0 0 -8.193848913379064 0 0 1 1 0 0 forward_v I I I I #
coedge $-1 $393 $394 $395 $396 forward $272 $-1 #
coedge $-1 $397 $274 $393 $398 forward $197 $-1 #
coedge $-1 $274 $397 $399 $400 reversed $197 $-1 #
coedge $-1 $401 $402 $274 $340 reversed $211 $-1 #
edge $-1 $403 -4.1278723842239344 $404 4.1278723842239344 $339 $405 forward 7 unknown #
coedge $-1 $275 $287 $394 $406 forward $119 $-1 #
coedge $-1 $402 $276 $275 $343 reversed $211 $-1 #
edge $-1 $407 -29.944021045544641 $278 -13.432531508648903 $342 $291 forward 7 unknown #
straight-curve $-1 50.566728720969266 -13.432531508648903 72.488246696608726 0 0 1 I I #
point $-1 50.566728720969266 -13.432531508648903 8.193848913379064 #
straight-curve $-1 50.566728720969273 -4.3188326374285229 4.5799453872241642 0 -1 0 I I #
point $-1 50.566728720969266 -13.432531508648903 4.5799453872241713 #
coedge $-1 $285 $401 $392 $408 reversed $211 $-1 #
coedge $-1 $409 $288 $285 $350 forward $355 $-1 #
edge $-1 $290 -8.193848913379064 $410 8.193848913379064 $285 $411 forward 7 unknown #
plane-surface $-1 50.566728720969266 0 0 -1 0 0 0 0 1 forward_v I I I I #
coedge $-1 $412 $395 $287 $353 reversed $413 $-1 #
edge $-1 $356 -21.688276277096772 $414 29.944021045544641 $352 $415 forward 7 unknown #
coedge $-1 $288 $409 $412 $416 reversed $355 $-1 #
loop $-1 $-1 $349 $417 #
vertex $-1 $289 $418 #
straight-curve $-1 0 21.688276277096772 8.193848913379064 -1 0 0 I I #
point $-1 50.566728720969266 21.688276277096772 8.193848913379064 #
face $-1 $419 $420 $15 $-1 $421 reversed single #
loop $-1 $-1 $422 $292 #
plane-surface $-1 0 -25.816148661320707 4.4791473658389771 0 0 1 1 0 0 forward_v I I I I #
coedge $-1 $302 $423 $295 $365 forward $293 $-1 #
coedge $-1 $364 $295 $424 $425 reversed $218 $-1 #
coedge $-1 $295 $363 $366 $426 forward $218 $-1 #
edge $-1 $427 -38.928525923485687 $428 -33.570693712952739 $362 $429 forward 7 unknown #
coedge $-1 $368 $296 $364 $426 reversed $220 $-1 #
edge $-1 $428 -9.1136988712203806 $303 0.47603359636333398 $302 $430 forward 7 unknown #
coedge $-1 $297 $366 $371 $431 reversed $220 $-1 #
vertex $-1 $431 $432 #
straight-curve $-1 -33.276706845028428 -3.8427990410651889 61.133057827219758 0.82903756765294845 0 -0.55919291073839883 I I #
coedge $-1 $424 $299 $368 $431 forward $373 $-1 #
coedge $-1 $299 $433 $301 $376 reversed $373 $-1 #
loop $-1 $-1 $424 $434 #
straight-curve $-1 50.566728720969266 -3.8427990410651889 72.488246696608726 0 0 -1 I I #
coedge $-1 $435 $301 $436 $437 forward $293 $-1 #
edge $-1 $304 -3.8427990410651889 $438 21.688276277096772 $372 $439 forward 7 unknown #
point $-1 45.208896510436318 -3.8427990410651889 8.193848913379064 #
point $-1 50.566728720969266 -3.8427990410651889 8.193848913379064 #
point $-1 46.233750465139806 -8.6376652748570439 3.9346492127538815 #
edge $-1 $330 -21.688276277096772 $382 21.688276277096772 $327 $440 forward 7 unknown #
straight-curve $-1 0 -21.688276277096772 -8.193848913379064 -1 0 0 I I #
vertex $-1 $317 $441 #
straight-curve $-1 0 21.688276277096772 -8.193848913379064 1 0 0 I I #
point $-1 50.566728720969266 21.688276277096772 -8.193848913379064 #
point $-1 -50.566728720969266 21.688276277096772 8.193848913379064 #
straight-curve $-1 50.566728720969266 21.688276277096772 0 0 0 -1 I I #
straight-curve $-1 -50.566728720969266 21.688276277096772 0 0 0 -1 I I #
point $-1 -50.566728720969266 -21.688276277096772 -8.193848913379064 #
face $-1 $417 $413 $14 $-1 $442 reversed single #
loop $-1 $-1 $399 $333 #
plane-surface $-1 0 -21.688276277096772 0 0 1 0 0 0 1 forward_v I I I I #
coedge $-1 $443 $444 $348 $408 forward $334 $-1 #
coedge $-1 $445 $336 $337 $398 reversed $272 $-1 #
coedge $-1 $336 $445 $341 $406 reversed $272 $-1 #
coedge $-1 $352 $446 $336 $396 reversed $413 $-1 #
edge $-1 $414 -1.8573507737700439 $447 1.857350773770043 $395 $448 forward 7 unknown #
coedge $-1 $338 $337 $446 $449 forward $197 $-1 #
edge $-1 $404 -50.566728720969266 $447 50.566728720969266 $393 $450 forward 7 unknown #
coedge $-1 $451 $452 $338 $400 forward $390 $-1 #
edge $-1 $403 -50.566728720969266 $453 50.566728720969266 $399 $454 forward 7 unknown #
coedge $-1 $348 $339 $452 $455 forward $211 $-1 #
coedge $-1 $339 $342 $445 $456 forward $211 $-1 #
vertex $-1 $455 $457 #
vertex $-1 $456 $458 #
straight-curve $-1 50.566728720969266 -25.816148661320707 4.4791473658389771 0 -1 0 I I #
edge $-1 $414 -50.566728720969266 $407 50.566728720969266 $394 $459 forward 7 unknown #
vertex $-1 $343 $460 #
edge $-1 $410 -21.688276277096772 $461 21.688276277096772 $348 $462 forward 7 unknown #
coedge $-1 $354 $349 $444 $463 reversed $355 $-1 #
vertex $-1 $408 $464 #
straight-curve $-1 50.566728720969266 21.688276277096772 0 0 0 -1 I I #
coedge $-1 $465 $352 $354 $416 forward $413 $-1 #
loop $-1 $-1 $412 $389 #
vertex $-1 $353 $466 #
straight-curve $-1 -50.566728720969266 0 8.193848913379064 0 -1 0 I I #
edge $-1 $356 -8.193848913379064 $467 8.193848913379064 $354 $468 forward 7 unknown #
face $-1 $286 $355 $14 $-1 $469 reversed single #
point $-1 -50.566728720969266 21.688276277096772 8.193848913379064 #
face $-1 $470 $471 $15 $-1 $472 reversed single #
loop $-1 $-1 $473 $359 #
plane-surface $-1 0 -29.944021045544641 6.3364981396090201 0 1 0 0 0 1 forward_v I I I I #
coedge $-1 $474 $475 $476 $477 forward $360 $-1 #
coedge $-1 $362 $478 $479 $480 forward $293 $-1 #
coedge $-1 $479 $371 $363 $425 forward $373 $-1 #
edge $-1 $481 -67.908301309384555 $427 -64.29439778322967 $424 $482 forward 7 unknown #
edge $-1 $481 -101.13345744193853 $428 -94.670744026307347 $364 $483 forward 7 unknown #
vertex $-1 $425 $484 #
vertex $-1 $367 $485 #
straight-curve $-1 11.638202797483579 -13.432531508648903 8.1938489133790711 -1 0 0 I I #
straight-curve $-1 45.208896510436304 -4.3188326374285229 8.193848913379064 0 1 0 I I #
edge $-1 $369 -0.47603359636333398 $481 9.1136988712203806 $371 $486 forward 7 unknown #
point $-1 50.566728720969266 -3.8427990410651889 4.5799453872241713 #
coedge $-1 $372 $487 $488 $489 reversed $373 $-1 #
face $-1 $-1 $373 $15 $-1 $490 reversed single #
coedge $-1 $478 $375 $491 $492 forward $293 $-1 #
coedge $-1 $488 $493 $375 $437 reversed $494 $-1 #
edge $-1 $438 -50.566728720969266 $495 50.566728720969266 $436 $496 forward 7 unknown #
vertex $-1 $376 $497 #
straight-curve $-1 50.566728720969266 0 8.193848913379064 0 1 0 I I #
straight-curve $-1 -50.566728720969266 0 -8.193848913379064 0 1 0 I I #
point $-1 -50.566728720969266 21.688276277096772 -8.193848913379064 #
plane-surface $-1 -50.566728720969266 0 0 1 0 0 0 0 -1 forward_v I I I I #
coedge $-1 $498 $392 $499 $500 forward $334 $-1 #
coedge $-1 $392 $498 $409 $463 forward $334 $-1 #
coedge $-1 $394 $393 $402 $456 reversed $272 $-1 #
coedge $-1 $395 $501 $397 $449 reversed $413 $-1 #
vertex $-1 $449 $502 #
straight-curve $-1 -50.566728720969266 -29.944021045544641 6.3364981396090201 0 0 -1 I I #
edge $-1 $447 -4.1278723842239344 $453 4.1278723842239344 $446 $503 forward 7 unknown #
straight-curve $-1 0 -29.944021045544641 4.4791473658389771 -1 0 0 I I #
coedge $-1 $499 $399 $501 $504 forward $390 $-1 #
coedge $-1 $399 $499 $401 $455 reversed $390 $-1 #
vertex $-1 $504 $505 #
straight-curve $-1 0 -21.688276277096772 4.4791473658389771 -1 0 0 I I #
edge $-1 $403 -4.4791473658389771 $461 8.193848913379064 $401 $506 forward 7 unknown #
edge $-1 $407 -1.8573507737700439 $404 1.857350773770043 $402 $507 forward 7 unknown #
point $-1 50.566728720969266 -21.688276277096772 4.4791473658389771 #
point $-1 50.566728720969266 -29.944021045544641 4.4791473658389771 #
straight-curve $-1 0 -29.944021045544641 8.193848913379064 1 0 0 I I #
point $-1 50.566728720969266 -29.944021045544641 8.193848913379064 #
vertex $-1 $455 $508 #
straight-curve $-1 50.566728720969266 0 -8.193848913379064 0 -1 0 I I #
edge $-1 $467 -50.566728720969266 $410 50.566728720969266 $409 $509 forward 7 unknown #
point $-1 50.566728720969266 21.688276277096772 -8.193848913379064 #
coedge $-1 $501 $412 $498 $510 reversed $413 $-1 #
point $-1 -50.566728720969266 -29.944021045544641 8.193848913379064 #
vertex $-1 $463 $511 #
straight-curve $-1 -50.566728720969266 21.688276277096772 0 0 0 -1 I I #
plane-surface $-1 0 21.688276277096772 0 0 -1 0 0 0 -1 forward_v I I I I #
face $-1 $512 $513 $15 $-1 $514 reversed single #
loop $-1 $-1 $515 $419 #
plane-surface $-1 0 0 -8.193848913379064 0 0 1 1 0 0 forward_v I I I I #
coedge $-1 $516 $517 $518 $519 forward $420 $-1 #
coedge $-1 $520 $422 $516 $521 forward $360 $-1 #
coedge $-1 $422 $520 $522 $523 reversed $360 $-1 #
coedge $-1 $524 $525 $422 $477 reversed $373 $-1 #
edge $-1 $526 -4.1278723842239344 $527 4.1278723842239344 $476 $528 forward 7 unknown #
coedge $-1 $423 $435 $517 $529 forward $293 $-1 #
coedge $-1 $525 $424 $423 $480 reversed $373 $-1 #
edge $-1 $530 -29.944021045544641 $427 -13.432531508648903 $479 $439 forward 7 unknown #
vertex $-1 $431 $531 #
straight-curve $-1 50.566728720969266 -13.432531508648903 72.488246696608726 0 0 1 I I #
straight-curve $-1 -33.276706845028428 -13.432531508648903 61.133057827219758 -0.82903756765294845 0 0.55919291073839883 I I #
point $-1 50.566728720969266 -13.432531508648903 8.193848913379064 #
point $-1 45.208896510436318 -13.432531508648903 8.193848913379064 #
straight-curve $-1 50.566728720969273 -4.3188326374285229 4.5799453872241642 0 -1 0 I I #
coedge $-1 $433 $524 $515 $532 reversed $373 $-1 #
coedge $-1 $533 $436 $433 $489 forward $494 $-1 #
edge $-1 $438 -8.193848913379064 $534 8.193848913379064 $433 $535 forward 7 unknown #
plane-surface $-1 50.566728720969266 0 0 -1 0 0 0 0 1 forward_v I I I I #
coedge $-1 $536 $518 $435 $492 reversed $537 $-1 #
edge $-1 $495 -21.688276277096772 $538 29.944021045544641 $491 $539 forward 7 unknown #
coedge $-1 $436 $533 $536 $540 reversed $494 $-1 #
loop $-1 $-1 $488 $541 #
vertex $-1 $437 $542 #
straight-curve $-1 0 21.688276277096772 8.193848913379064 -1 0 0 I I #
point $-1 50.566728720969266 21.688276277096772 8.193848913379064 #
coedge $-1 $444 $443 $465 $510 forward $334 $-1 #
coedge $-1 $452 $451 $443 $500 reversed $390 $-1 #
edge $-1 $461 -50.566728720969266 $543 50.566728720969266 $499 $544 forward 7 unknown #
coedge $-1 $446 $465 $451 $504 reversed $413 $-1 #
point $-1 -50.566728720969266 -29.944021045544641 4.4791473658389771 #
straight-curve $-1 -50.566728720969266 -25.816148661320707 4.4791473658389771 0 1 0 I I #
edge $-1 $453 -4.4791473658389771 $543 8.193848913379064 $501 $545 forward 7 unknown #
point $-1 -50.566728720969266 -21.688276277096772 4.4791473658389771 #
straight-curve $-1 50.566728720969266 -21.688276277096772 0 0 0 -1 I I #
straight-curve $-1 50.566728720969266 -29.944021045544641 6.3364981396090201 0 0 -1 I I #
point $-1 50.566728720969266 -21.688276277096772 -8.193848913379064 #
straight-curve $-1 0 21.688276277096772 -8.193848913379064 1 0 0 I I #
edge $-1 $543 -21.688276277096772 $467 21.688276277096772 $465 $546 forward 7 unknown #
point $-1 -50.566728720969266 21.688276277096772 -8.193848913379064 #
face $-1 $541 $537 $15 $-1 $547 reversed single #
loop $-1 $-1 $522 $470 #
plane-surface $-1 0 -21.688276277096772 0 0 1 0 0 0 1 forward_v I I I I #
coedge $-1 $548 $549 $487 $532 forward $471 $-1 #
coedge $-1 $550 $473 $474 $521 reversed $420 $-1 #
coedge $-1 $473 $550 $478 $529 reversed $420 $-1 #
coedge $-1 $491 $551 $473 $519 reversed $537 $-1 #
edge $-1 $538 -1.8573507737700439 $552 1.857350773770043 $518 $553 forward 7 unknown #
coedge $-1 $475 $474 $551 $554 forward $360 $-1 #
edge $-1 $527 -50.566728720969266 $552 50.566728720969266 $516 $555 forward 7 unknown #
coedge $-1 $556 $557 $475 $523 forward $513 $-1 #
edge $-1 $526 -50.566728720969266 $558 50.566728720969266 $522 $559 forward 7 unknown #
coedge $-1 $487 $476 $557 $560 forward $373 $-1 #
coedge $-1 $476 $479 $550 $561 forward $373 $-1 #
vertex $-1 $560 $562 #
vertex $-1 $561 $563 #
straight-curve $-1 50.566728720969266 -25.816148661320707 4.4791473658389771 0 -1 0 I I #
edge $-1 $538 -50.566728720969266 $530 50.566728720969266 $517 $564 forward 7 unknown #
vertex $-1 $480 $565 #
point $-1 50.566728720969266 -13.432531508648903 4.5799453872241713 #
edge $-1 $534 -21.688276277096772 $566 21.688276277096772 $487 $567 forward 7 unknown #
coedge $-1 $493 $488 $549 $568 reversed $494 $-1 #
vertex $-1 $532 $569 #
straight-curve $-1 50.566728720969266 21.688276277096772 0 0 0 -1 I I #
coedge $-1 $570 $491 $493 $540 forward $537 $-1 #
loop $-1 $-1 $536 $512 #
vertex $-1 $492 $571 #
straight-curve $-1 -50.566728720969266 0 8.193848913379064 0 -1 0 I I #
edge $-1 $495 -8.193848913379064 $572 8.193848913379064 $493 $573 forward 7 unknown #
face $-1 $434 $494 $15 $-1 $574 reversed single #
point $-1 -50.566728720969266 21.688276277096772 8.193848913379064 #
vertex $-1 $510 $575 #
straight-curve $-1 0 -21.688276277096772 -8.193848913379064 -1 0 0 I I #
straight-curve $-1 -50.566728720969266 -21.688276277096772 0 0 0 -1 I I #
straight-curve $-1 -50.566728720969266 0 -8.193848913379064 0 1 0 I I #
plane-surface $-1 -50.566728720969266 0 0 1 0 0 0 0 -1 forward_v I I I I #
coedge $-1 $576 $515 $577 $578 forward $471 $-1 #
coedge $-1 $515 $576 $533 $568 forward $471 $-1 #
coedge $-1 $517 $516 $525 $561 reversed $420 $-1 #
coedge $-1 $518 $579 $520 $554 reversed $537 $-1 #
vertex $-1 $554 $580 #
straight-curve $-1 -50.566728720969266 -29.944021045544641 6.3364981396090201 0 0 -1 I I #
edge $-1 $552 -4.1278723842239344 $558 4.1278723842239344 $551 $581 forward 7 unknown #
straight-curve $-1 0 -29.944021045544641 4.4791473658389771 -1 0 0 I I #
coedge $-1 $577 $522 $579 $582 forward $513 $-1 #
coedge $-1 $522 $577 $524 $560 reversed $513 $-1 #
vertex $-1 $582 $583 #
straight-curve $-1 0 -21.688276277096772 4.4791473658389771 -1 0 0 I I #
edge $-1 $526 -4.4791473658389771 $566 8.193848913379064 $524 $584 forward 7 unknown #
edge $-1 $530 -1.8573507737700439 $527 1.857350773770043 $525 $585 forward 7 unknown #
point $-1 50.566728720969266 -21.688276277096772 4.4791473658389771 #
point $-1 50.566728720969266 -29.944021045544641 4.4791473658389771 #
straight-curve $-1 0 -29.944021045544641 8.193848913379064 1 0 0 I I #
point $-1 50.566728720969266 -29.944021045544641 8.193848913379064 #
vertex $-1 $560 $586 #
straight-curve $-1 50.566728720969266 0 -8.193848913379064 0 -1 0 I I #
edge $-1 $572 -50.566728720969266 $534 50.566728720969266 $533 $587 forward 7 unknown #
point $-1 50.566728720969266 21.688276277096772 -8.193848913379064 #
coedge $-1 $579 $536 $576 $588 reversed $537 $-1 #
point $-1 -50.566728720969266 -29.944021045544641 8.193848913379064 #
vertex $-1 $568 $589 #
straight-curve $-1 -50.566728720969266 21.688276277096772 0 0 0 -1 I I #
plane-surface $-1 0 21.688276277096772 0 0 -1 0 0 0 -1 forward_v I I I I #
point $-1 -50.566728720969266 -21.688276277096772 -8.193848913379064 #
coedge $-1 $549 $548 $570 $588 forward $471 $-1 #
coedge $-1 $557 $556 $548 $578 reversed $513 $-1 #
edge $-1 $566 -50.566728720969266 $590 50.566728720969266 $577 $591 forward 7 unknown #
coedge $-1 $551 $570 $556 $582 reversed $537 $-1 #
point $-1 -50.566728720969266 -29.944021045544641 4.4791473658389771 #
straight-curve $-1 -50.566728720969266 -25.816148661320707 4.4791473658389771 0 1 0 I I #
edge $-1 $558 -4.4791473658389771 $590 8.193848913379064 $579 $592 forward 7 unknown #
point $-1 -50.566728720969266 -21.688276277096772 4.4791473658389771 #
straight-curve $-1 50.566728720969266 -21.688276277096772 0 0 0 -1 I I #
straight-curve $-1 50.566728720969266 -29.944021045544641 6.3364981396090201 0 0 -1 I I #
point $-1 50.566728720969266 -21.688276277096772 -8.193848913379064 #
straight-curve $-1 0 21.688276277096772 -8.193848913379064 1 0 0 I I #
edge $-1 $590 -21.688276277096772 $572 21.688276277096772 $570 $593 forward 7 unknown #
point $-1 -50.566728720969266 21.688276277096772 -8.193848913379064 #
vertex $-1 $588 $594 #
straight-curve $-1 0 -21.688276277096772 -8.193848913379064 -1 0 0 I I #
straight-curve $-1 -50.566728720969266 -21.688276277096772 0 0 0 -1 I I #
straight-curve $-1 -50.566728720969266 0 -8.193848913379064 0 1 0 I I #
point $-1 -50.566728720969266 -21.688276277096772 -8.193848913379064 #
End-of-ACIS-data 