500 0 9 0           
7 Unknown 11 ACIS 5.0 NT 24 Thu Mar 25 22:29:49 1999 
-1 9.9999999999999995e-007 1e-010 
body $-1 $9 $-1 $10 #
body $-1 $11 $-1 $12 #
body $-1 $13 $-1 $14 #
body $-1 $15 $-1 $16 #
body $-1 $17 $-1 $18 #
body $-1 $19 $-1 $20 #
body $-1 $21 $-1 $22 #
body $-1 $23 $-1 $24 #
body $-1 $25 $-1 $26 #
lump $-1 $-1 $27 $0 #
transform $-1 1 0 0 0 1 0 0 0 1 55.969725638599812 22.730708454715629 11.226127163944581 1 rotate no_reflect no_shear #
lump $-1 $-1 $28 $1 #
transform $-1 1 0 0 0 1 0 0 0 1 55.969725638599812 22.730708454715629 11.226127163944581 1 rotate no_reflect no_shear #
lump $-1 $-1 $29 $2 #
transform $-1 1 0 0 0 1 0 0 0 1 55.969725638599812 22.730708454715629 11.226127163944581 1 rotate no_reflect no_shear #
lump $-1 $-1 $30 $3 #
transform $-1 1 0 0 0 1 0 0 0 1 55.969725638599812 22.730708454715629 11.226127163944581 1 rotate no_reflect no_shear #
lump $-1 $-1 $31 $4 #
transform $-1 1 0 0 0 1 0 0 0 1 55.969725638599812 22.730708454715629 11.226127163944581 1 rotate no_reflect no_shear #
lump $-1 $-1 $32 $5 #
transform $-1 1 0 0 0 1 0 0 0 1 55.969725638599812 22.730708454715629 11.226127163944581 1 rotate no_reflect no_shear #
lump $-1 $-1 $33 $6 #
transform $-1 1 0 0 0 1 0 0 0 1 55.969725638599812 22.730708454715629 11.226127163944581 1 rotate no_reflect no_shear #
lump $-1 $-1 $34 $7 #
transform $-1 1 0 0 0 1 0 0 0 1 55.969725638599812 22.730708454715629 11.226127163944581 1 rotate no_reflect no_shear #
lump $-1 $-1 $35 $8 #
transform $-1 1 0 0 0 1 0 0 0 1 55.969725638599812 22.730708454715629 11.226127163944581 1 rotate no_reflect no_shear #
shell $-1 $-1 $-1 $36 $-1 $9 #
shell $-1 $-1 $-1 $37 $-1 $11 #
shell $-1 $-1 $-1 $38 $-1 $13 #
shell $-1 $-1 $-1 $39 $-1 $15 #
shell $-1 $-1 $-1 $40 $-1 $17 #
shell $-1 $-1 $-1 $41 $-1 $19 #
shell $-1 $-1 $-1 $42 $-1 $21 #
shell $-1 $-1 $-1 $43 $-1 $23 #
shell $-1 $-1 $-1 $44 $-1 $25 #
face $-1 $45 $46 $27 $-1 $47 forward single #
face $-1 $48 $49 $28 $-1 $50 forward single #
face $-1 $51 $52 $29 $-1 $53 reversed single #
face $-1 $54 $55 $30 $-1 $56 forward single #
face $-1 $57 $58 $31 $-1 $59 reversed single #
face $-1 $60 $61 $32 $-1 $62 forward single #
face $-1 $63 $64 $33 $-1 $65 reversed single #
face $-1 $66 $67 $34 $-1 $68 forward single #
face $-1 $69 $70 $35 $-1 $71 forward single #
face $-1 $72 $73 $27 $-1 $74 reversed single #
loop $-1 $-1 $75 $36 #
plane-surface $-1 0 0 11.226127163944581 0 0 1 1 0 0 forward_v I I I I #
face $-1 $76 $77 $28 $-1 $78 reversed single #
loop $-1 $-1 $79 $37 #
plane-surface $-1 0 -18.970913434841901 -6.7621938996878743 0 0 1 1 0 0 forward_v I I I I #
face $-1 $80 $81 $29 $-1 $82 reversed single #
loop $-1 $-1 $83 $38 #
plane-surface $-1 31.20516727610341 3.7597950198737298 160.66452735618674 0 -1 0 -0.5877852598018023 0 -0.80901698891910034 forward_v I I I I #
face $-1 $84 $85 $30 $-1 $86 forward single #
loop $-1 $87 $88 $39 #
cone-surface $-1 50.21502555710115 0.33457717179821955 6.3996778051363004 -0.5877852598018023 0 -0.80901698891910034 0.80901698891910034 0 -0.5877852598018023 1 I I 0 1 1 forward I I I I #
face $-1 $89 $90 $31 $-1 $91 reversed single #
loop $-1 $-1 $92 $40 #
plane-surface $-1 31.20516727610341 15.880272758564606 160.66452735618674 0 1 0 0.5877852598018023 0 0.80901698891910034 forward_v I I I I #
face $-1 $93 $94 $32 $-1 $95 forward single #
loop $-1 $96 $97 $41 #
cone-surface $-1 50.21502555710115 19.305490606640117 6.3996778051363004 -0.5877852598018023 0 -0.80901698891910034 0.80901698891910034 0 -0.5877852598018023 1 I I 0 1 1 forward I I I I #
face $-1 $98 $99 $33 $-1 $100 reversed single #
loop $-1 $-1 $101 $42 #
plane-surface $-1 -113.62280589781898 13.629340999962707 101.71994606522604 0 1 0 -0.51503808176128008 0 0.85716729658548041 forward_v I I I I #
face $-1 $102 $103 $34 $-1 $104 forward single #
loop $-1 $105 $106 $43 #
cone-surface $-1 -51.135131934470017 16.229731701320684 8.0089985703585143 0.51503808176128008 0 -0.85716729658548041 0.85716729658548041 0 0.51503808176128008 1 I I 0 1 1 forward I I I I #
face $-1 $107 $108 $35 $-1 $109 forward single #
loop $-1 $110 $111 $44 #
cone-surface $-1 -51.135131934470017 20.130317753357648 8.0089985703585143 0.51503808176128008 0 -0.85716729658548041 0.85716729658548041 0 0.51503808176128008 1 I I 0 1 1 forward I I I I #
face $-1 $112 $113 $27 $-1 $114 reversed single #
loop $-1 $-1 $115 $45 #
plane-surface $-1 0 0 -11.226127163944581 0 0 1 1 0 0 forward_v I I I I #
coedge $-1 $116 $117 $118 $119 forward $46 $-1 #
face $-1 $120 $121 $28 $-1 $122 reversed single #
loop $-1 $-1 $123 $48 #
plane-surface $-1 0 -15.211118414968173 -8.9941605318162274 0 -1 0 0 0 -1 forward_v I I I I #
coedge $-1 $124 $125 $126 $127 reversed $49 $-1 #
face $-1 $128 $129 $29 $-1 $130 reversed single #
loop $-1 $-1 $131 $51 #
plane-surface $-1 -34.591192174936566 0.33457717179821955 70.103609542650361 0.5877852598018023 0 0.80901698891910034 0.80901698891910034 0 -0.5877852598018023 forward_v I I I I #
coedge $-1 $132 $133 $134 $135 reversed $52 $-1 #
face $-1 $-1 $136 $30 $-1 $137 forward single #
loop $-1 $138 $139 $54 #
cone-surface $-1 48.927941408921299 0.33457717179821955 4.6281584880355613 -0.5877852598018023 0 -0.80901698891910034 0.40450849445955017 0 -0.29389262990090115 1 I I -0.70710678118654746 0.70710678118654746 0.5 forward I I I I #
loop $-1 $-1 $140 $39 #
coedge $-1 $88 $88 $141 $142 reversed $55 $-1 #
face $-1 $143 $144 $31 $-1 $145 reversed single #
loop $-1 $-1 $146 $57 #
plane-surface $-1 -34.591192174936566 19.305490606640117 70.103609542650361 0.5877852598018023 0 0.80901698891910034 0.80901698891910034 0 -0.5877852598018023 forward_v I I I I #
coedge $-1 $147 $148 $149 $150 reversed $58 $-1 #
face $-1 $-1 $151 $32 $-1 $152 forward single #
loop $-1 $153 $154 $60 #
cone-surface $-1 48.927941408921299 19.305490606640117 4.6281584880355613 -0.5877852598018023 0 -0.80901698891910034 0.40450849445955017 0 -0.29389262990090115 1 I I -0.70710678118654746 0.70710678118654746 0.5 forward I I I I #
loop $-1 $-1 $155 $41 #
coedge $-1 $97 $97 $156 $157 reversed $61 $-1 #
face $-1 $158 $159 $33 $-1 $160 reversed single #
loop $-1 $-1 $161 $63 #
plane-surface $-1 -55.969725638599812 18.18002472733917 5.7691092326867306 -0.51503808176128008 0 0.85716729658548041 0.85716729658548041 0 0.51503808176128008 forward_v I I I I #
coedge $-1 $162 $163 $164 $165 reversed $64 $-1 #
face $-1 $-1 $166 $34 $-1 $167 forward single #
loop $-1 $168 $169 $66 #
cone-surface $-1 -50.584020596150552 16.229731701320684 7.0917952941086231 0.51503808176128008 0 -0.85716729658548041 0.4285836482927402 0 0.25751904088064004 1 I I -0.70710678118654746 0.70710678118654746 0.5 forward I I I I #
loop $-1 $-1 $170 $43 #
coedge $-1 $106 $106 $171 $172 reversed $67 $-1 #
face $-1 $-1 $173 $35 $-1 $174 forward single #
loop $-1 $175 $176 $69 #
cone-surface $-1 -50.584020596150552 20.130317753357648 7.0917952941086231 0.51503808176128008 0 -0.85716729658548041 0.4285836482927402 0 0.25751904088064004 1 I I -0.70710678118654746 0.70710678118654746 0.5 forward I I I I #
loop $-1 $-1 $177 $44 #
coedge $-1 $111 $111 $178 $179 reversed $70 $-1 #
face $-1 $180 $181 $27 $-1 $182 reversed single #
loop $-1 $-1 $183 $72 #
plane-surface $-1 0 -22.730708454715629 0 0 1 0 0 0 1 forward_v I I I I #
coedge $-1 $184 $185 $186 $187 forward $73 $-1 #
coedge $-1 $188 $75 $189 $190 forward $46 $-1 #
coedge $-1 $75 $188 $191 $192 forward $46 $-1 #
coedge $-1 $193 $194 $75 $119 reversed $195 $-1 #
edge $-1 $196 -22.730708454715629 $197 22.730708454715629 $118 $198 forward 7 unknown #
face $-1 $199 $200 $28 $-1 $201 reversed single #
loop $-1 $-1 $202 $76 #
plane-surface $-1 0 0 -11.226127163944581 0 0 1 1 0 0 forward_v I I I I #
coedge $-1 $203 $204 $205 $206 reversed $77 $-1 #
coedge $-1 $207 $79 $204 $208 forward $49 $-1 #
coedge $-1 $79 $207 $209 $210 reversed $49 $-1 #
coedge $-1 $211 $205 $79 $127 forward $200 $-1 #
edge $-1 $212 5.7256616975472223 $213 13.245251737294678 $126 $214 forward 7 unknown #
face $-1 $215 $216 $29 $-1 $217 reversed single #
loop $-1 $-1 $218 $80 #
plane-surface $-1 31.20516727610341 -3.0906406762772907 160.66452735618674 0 1 0 0.5877852598018023 0 0.80901698891910034 forward_v I I I I #
coedge $-1 $219 $220 $221 $222 reversed $81 $-1 #
coedge $-1 $133 $83 $223 $224 reversed $52 $-1 #
coedge $-1 $83 $132 $219 $225 reversed $52 $-1 #
coedge $-1 $221 $226 $83 $135 forward $227 $-1 #
edge $-1 $228 -40.367142000548107 $229 -30.844124874108694 $134 $230 forward 7 unknown #
loop $-1 $-1 $141 $84 #
plane-surface $-1 -34.591192174936566 0.33457717179821955 70.103609542650361 0.5877852598018023 0 0.80901698891910034 0.80901698891910034 0 -0.5877852598018023 forward_v I I I I #
loop $-1 $-1 $231 $54 #
coedge $-1 $139 $139 $140 $232 reversed $85 $-1 #
coedge $-1 $140 $140 $139 $232 forward $87 $-1 #
coedge $-1 $141 $141 $88 $142 forward $136 $-1 #
edge $-1 $233 0 $233 6.2831853071796004 $141 $234 forward 7 unknown #
face $-1 $235 $236 $31 $-1 $237 forward single #
loop $-1 $-1 $149 $89 #
plane-surface $-1 55.969725638599812 0 0 -1 0 0 0 0 1 forward_v I I I I #
coedge $-1 $238 $239 $240 $241 reversed $90 $-1 #
coedge $-1 $148 $92 $242 $243 reversed $58 $-1 #
coedge $-1 $92 $147 $238 $244 reversed $58 $-1 #
coedge $-1 $240 $245 $92 $150 forward $144 $-1 #
edge $-1 $246 69.106136514148787 $247 76.025013586482984 $149 $248 forward 7 unknown #
loop $-1 $-1 $156 $93 #
plane-surface $-1 -34.591192174936566 19.305490606640117 70.103609542650361 0.5877852598018023 0 0.80901698891910034 0.80901698891910034 0 -0.5877852598018023 forward_v I I I I #
loop $-1 $-1 $249 $60 #
coedge $-1 $154 $154 $155 $250 reversed $94 $-1 #
coedge $-1 $155 $155 $154 $250 forward $96 $-1 #
coedge $-1 $156 $156 $97 $157 forward $151 $-1 #
edge $-1 $251 0 $251 6.2831853071796004 $156 $252 forward 7 unknown #
face $-1 $253 $254 $33 $-1 $255 reversed single #
loop $-1 $-1 $256 $98 #
plane-surface $-1 0 22.730708454715629 0 0 -1 0 0 0 -1 forward_v I I I I #
coedge $-1 $257 $258 $259 $260 reversed $99 $-1 #
coedge $-1 $163 $101 $261 $262 reversed $64 $-1 #
coedge $-1 $101 $162 $257 $263 reversed $64 $-1 #
coedge $-1 $259 $264 $101 $165 forward $265 $-1 #
edge $-1 $266 0.8416773103096773 $267 9.9236801236916179 $164 $268 forward 7 unknown #
loop $-1 $-1 $171 $102 #
plane-surface $-1 -55.969725638599812 18.18002472733917 5.7691092326867306 -0.51503808176128008 0 0.85716729658548041 0.85716729658548041 0 0.51503808176128008 forward_v I I I I #
loop $-1 $-1 $269 $66 #
coedge $-1 $169 $169 $170 $270 reversed $103 $-1 #
coedge $-1 $170 $170 $169 $270 forward $105 $-1 #
coedge $-1 $171 $171 $106 $172 forward $166 $-1 #
edge $-1 $271 0 $271 6.2831853071796004 $171 $272 forward 7 unknown #
loop $-1 $-1 $178 $107 #
plane-surface $-1 -55.969725638599812 18.18002472733917 5.7691092326867306 -0.51503808176128008 0 0.85716729658548041 0.85716729658548041 0 0.51503808176128008 forward_v I I I I #
loop $-1 $-1 $273 $69 #
coedge $-1 $176 $176 $177 $274 reversed $108 $-1 #
coedge $-1 $177 $177 $176 $274 forward $110 $-1 #
coedge $-1 $178 $178 $111 $179 forward $173 $-1 #
edge $-1 $275 0 $275 6.2831853071796004 $178 $276 forward 7 unknown #
face $-1 $277 $278 $27 $-1 $279 reversed single #
loop $-1 $-1 $280 $112 #
plane-surface $-1 -55.969725638599812 0 0 1 0 0 0 0 -1 forward_v I I I I #
coedge $-1 $281 $191 $282 $283 forward $113 $-1 #
coedge $-1 $284 $115 $281 $285 forward $73 $-1 #
coedge $-1 $115 $284 $286 $287 forward $73 $-1 #
coedge $-1 $194 $193 $115 $187 reversed $195 $-1 #
edge $-1 $288 -22.730708454715629 $289 22.730708454715629 $186 $290 forward 7 unknown #
coedge $-1 $117 $116 $291 $292 forward $46 $-1 #
coedge $-1 $293 $294 $116 $190 reversed $278 $-1 #
edge $-1 $197 -55.969725638599812 $295 55.969725638599812 $189 $296 forward 7 unknown #
coedge $-1 $183 $297 $117 $192 reversed $113 $-1 #
edge $-1 $298 -55.969725638599812 $196 55.969725638599812 $191 $299 forward 7 unknown #
coedge $-1 $186 $118 $297 $300 forward $195 $-1 #
coedge $-1 $118 $186 $293 $301 reversed $195 $-1 #
loop $-1 $-1 $193 $277 #
vertex $-1 $119 $302 #
vertex $-1 $119 $303 #
straight-curve $-1 55.969725638599812 0 11.226127163944581 0 1 0 I I #
face $-1 $304 $305 $28 $-1 $306 reversed single #
loop $-1 $-1 $205 $120 #
plane-surface $-1 55.969725638599812 0 0 -1 0 0 0 0 1 forward_v I I I I #
coedge $-1 $307 $308 $203 $309 forward $121 $-1 #
coedge $-1 $310 $123 $202 $309 reversed $77 $-1 #
coedge $-1 $123 $310 $124 $208 reversed $77 $-1 #
coedge $-1 $126 $311 $123 $206 forward $200 $-1 #
edge $-1 $312 -6.7290468980364668 $212 -2.2651136337797606 $205 $313 forward 7 unknown #
coedge $-1 $125 $124 $314 $315 reversed $49 $-1 #
edge $-1 $212 -55.969725638599812 $316 55.969725638599812 $204 $317 forward 7 unknown #
coedge $-1 $318 $319 $125 $210 forward $305 $-1 #
edge $-1 $213 -55.969725638599812 $320 55.969725638599812 $209 $321 forward 7 unknown #
coedge $-1 $311 $126 $319 $322 forward $200 $-1 #
vertex $-1 $127 $323 #
vertex $-1 $322 $324 #
straight-curve $-1 55.969725638599812 -9.4854567174209503 -6.7621938996878743 0 -1 0 I I #
face $-1 $-1 $227 $29 $-1 $325 forward single #
loop $-1 $-1 $326 $128 #
plane-surface $-1 55.969725638599812 0 0 -1 0 0 0 0 1 forward_v I I I I #
coedge $-1 $327 $328 $329 $330 reversed $129 $-1 #
coedge $-1 $331 $131 $133 $225 forward $81 $-1 #
coedge $-1 $131 $331 $327 $332 forward $81 $-1 #
coedge $-1 $329 $134 $131 $222 forward $227 $-1 #
edge $-1 $229 -3.59250643397462 $333 3.2579292621764004 $221 $334 forward 7 unknown #
coedge $-1 $335 $336 $132 $224 forward $216 $-1 #
edge $-1 $337 -76.025013586482984 $228 -69.106136514148787 $223 $338 forward 7 unknown #
edge $-1 $229 100.16835467864389 $337 111.93945127719962 $133 $339 forward 7 unknown #
coedge $-1 $134 $329 $335 $340 forward $227 $-1 #
loop $-1 $-1 $329 $215 #
vertex $-1 $224 $341 #
vertex $-1 $135 $342 #
straight-curve $-1 15.602583638051705 3.7597950198737298 11.226127163944582 -1 0 0 I I #
coedge $-1 $231 $231 $-1 $343 reversed $138 $-1 #
edge $-1 $344 0 $344 6.2831853071796004 $139 $345 forward 7 unknown #
vertex $-1 $142 $346 #
ellipse-curve $-1 51.208217075380105 0.33457717179821955 7.7666886277774907 0.5877852598018023 0 0.80901698891910034 0.80901698891910034 0 -0.5877852598018023 1 I I #
face $-1 $-1 $347 $31 $-1 $348 reversed single #
loop $-1 $-1 $242 $143 #
plane-surface $-1 0 0 11.226127163944581 0 0 1 1 0 0 forward_v I I I I #
coedge $-1 $349 $146 $148 $244 forward $90 $-1 #
coedge $-1 $146 $349 $350 $351 reversed $90 $-1 #
coedge $-1 $352 $149 $146 $241 forward $144 $-1 #
edge $-1 $247 6.2275274552445481 $353 13.07796315139557 $240 $354 forward 7 unknown #
coedge $-1 $355 $356 $147 $243 forward $236 $-1 #
edge $-1 $357 30.844124874108694 $246 40.367142000548107 $242 $358 forward 7 unknown #
edge $-1 $247 -111.93945127719962 $357 -100.16835467864389 $148 $359 forward 7 unknown #
coedge $-1 $149 $352 $355 $360 reversed $144 $-1 #
vertex $-1 $360 $361 #
vertex $-1 $150 $362 #
straight-curve $-1 55.969725638599812 15.880272758564606 80.332263678093369 0 0 -1 I I #
coedge $-1 $249 $249 $-1 $363 reversed $153 $-1 #
edge $-1 $364 0 $364 6.2831853071796004 $154 $365 forward 7 unknown #
vertex $-1 $157 $366 #
ellipse-curve $-1 51.208217075380105 19.305490606640117 7.7666886277774907 0.5877852598018023 0 0.80901698891910034 0.80901698891910034 0 -0.5877852598018023 1 I I #
face $-1 $-1 $265 $33 $-1 $367 forward single #
loop $-1 $-1 $368 $158 #
plane-surface $-1 -55.969725638599812 0 0 1 0 0 0 0 -1 forward_v I I I I #
coedge $-1 $369 $370 $258 $371 forward $159 $-1 #
coedge $-1 $372 $161 $163 $263 forward $99 $-1 #
coedge $-1 $161 $372 $256 $371 reversed $99 $-1 #
coedge $-1 $373 $164 $161 $260 forward $265 $-1 #
edge $-1 $267 4.5393286362931224 $374 13.640696091046047 $259 $375 forward 7 unknown #
coedge $-1 $376 $368 $162 $262 forward $254 $-1 #
edge $-1 $377 -45.090863799926289 $266 -39.633845868668438 $261 $378 forward 7 unknown #
edge $-1 $267 -10.595367846580277 $377 0 $163 $379 forward 7 unknown #
coedge $-1 $164 $373 $376 $380 forward $265 $-1 #
loop $-1 $-1 $259 $253 #
vertex $-1 $262 $381 #
vertex $-1 $165 $382 #
straight-curve $-1 -56.811402948909489 13.629340999962707 11.226127163944582 1 0 0 I I #
coedge $-1 $269 $269 $-1 $383 reversed $168 $-1 #
edge $-1 $384 0 $384 6.2831853071796004 $169 $385 forward 7 unknown #
vertex $-1 $172 $386 #
ellipse-curve $-1 -51.428724231908838 16.229731701320684 8.4976181983156565 -0.51503808176128008 0 0.85716729658548041 0.85716729658548041 0 0.51503808176128008 1 I I #
coedge $-1 $273 $273 $-1 $387 reversed $175 $-1 #
edge $-1 $388 0 $388 6.2831853071796004 $176 $389 forward 7 unknown #
vertex $-1 $179 $390 #
ellipse-curve $-1 -51.428724231908838 20.130317753357648 8.4976181983156565 -0.51503808176128008 0 0.85716729658548041 0.85716729658548041 0 0.51503808176128008 1 I I #
face $-1 $-1 $195 $27 $-1 $391 reversed single #
loop $-1 $-1 $293 $180 #
plane-surface $-1 0 22.730708454715629 0 0 -1 0 0 0 -1 forward_v I I I I #
coedge $-1 $392 $291 $294 $393 forward $181 $-1 #
coedge $-1 $297 $183 $184 $285 reversed $113 $-1 #
coedge $-1 $291 $392 $183 $283 reversed $181 $-1 #
edge $-1 $298 -11.226127163944581 $394 11.226127163944581 $282 $395 forward 7 unknown #
coedge $-1 $185 $184 $392 $396 forward $73 $-1 #
edge $-1 $289 -55.969725638599812 $394 55.969725638599812 $281 $397 forward 7 unknown #
coedge $-1 $294 $293 $185 $287 reversed $278 $-1 #
edge $-1 $398 -55.969725638599812 $288 55.969725638599812 $286 $399 forward 7 unknown #
vertex $-1 $187 $400 #
vertex $-1 $300 $401 #
straight-curve $-1 55.969725638599812 0 -11.226127163944581 0 -1 0 I I #
coedge $-1 $280 $282 $188 $292 reversed $181 $-1 #
edge $-1 $295 -22.730708454715629 $298 22.730708454715629 $291 $402 forward 7 unknown #
coedge $-1 $286 $189 $194 $301 forward $278 $-1 #
coedge $-1 $189 $286 $280 $393 reversed $278 $-1 #
vertex $-1 $190 $403 #
straight-curve $-1 0 22.730708454715629 11.226127163944581 -1 0 0 I I #
coedge $-1 $191 $281 $193 $300 reversed $113 $-1 #
vertex $-1 $292 $404 #
straight-curve $-1 0 -22.730708454715629 11.226127163944581 1 0 0 I I #
edge $-1 $196 -11.226127163944581 $289 11.226127163944581 $193 $405 forward 7 unknown #
edge $-1 $197 -11.226127163944581 $288 11.226127163944581 $194 $406 forward 7 unknown #
point $-1 55.969725638599812 -22.730708454715629 11.226127163944581 #
point $-1 55.969725638599812 22.730708454715629 11.226127163944581 #
face $-1 $-1 $407 $28 $-1 $408 reversed single #
loop $-1 $-1 $209 $199 #
plane-surface $-1 0 -22.730708454715629 0 0 1 0 0 0 1 forward_v I I I I #
coedge $-1 $409 $202 $311 $410 forward $121 $-1 #
coedge $-1 $202 $409 $411 $412 forward $121 $-1 #
edge $-1 $413 -55.969725638599812 $312 55.969725638599812 $202 $414 forward 7 unknown #
coedge $-1 $204 $203 $415 $416 reversed $77 $-1 #
coedge $-1 $205 $211 $307 $410 reversed $200 $-1 #
vertex $-1 $410 $417 #
straight-curve $-1 55.969725638599812 -15.211118414968173 -4.4970802659081137 0 0 1 I I #
coedge $-1 $415 $418 $207 $315 forward $407 $-1 #
edge $-1 $320 -13.245251737294678 $316 -5.7256616975472223 $314 $419 forward 7 unknown #
vertex $-1 $315 $420 #
straight-curve $-1 0 -15.211118414968173 -6.7621938996878743 -1 0 0 I I #
coedge $-1 $421 $209 $418 $422 forward $305 $-1 #
coedge $-1 $209 $421 $211 $322 reversed $305 $-1 #
vertex $-1 $422 $423 #
straight-curve $-1 0 -22.730708454715629 -6.7621938996878743 -1 0 0 I I #
edge $-1 $213 6.7621938996878743 $424 11.226127163944581 $211 $425 forward 7 unknown #
point $-1 55.969725638599812 -15.211118414968173 -6.7621938996878743 #
point $-1 55.969725638599812 -22.730708454715629 -6.7621938996878743 #
plane-surface $-1 0 0 11.226127163944581 0 0 1 1 0 0 forward_v I I I I #
coedge $-1 $336 $335 $328 $426 forward $216 $-1 #
coedge $-1 $328 $218 $220 $332 reversed $129 $-1 #
coedge $-1 $218 $327 $326 $426 reversed $129 $-1 #
coedge $-1 $226 $221 $218 $330 forward $227 $-1 #
edge $-1 $333 30.844124874108694 $427 40.367142000548107 $329 $428 forward 7 unknown #
coedge $-1 $220 $219 $336 $429 reversed $81 $-1 #
edge $-1 $430 -111.93945127719962 $333 -100.16835467864389 $327 $431 forward 7 unknown #
vertex $-1 $222 $432 #
straight-curve $-1 46.446708512160384 0.16728858589910978 11.226127163944582 0 -1 0 I I #
coedge $-1 $326 $223 $226 $340 reversed $216 $-1 #
coedge $-1 $223 $326 $331 $429 forward $216 $-1 #
vertex $-1 $224 $433 #
straight-curve $-1 55.969725638599812 3.7597950198737298 80.332263678093369 0 0 1 I I #
straight-curve $-1 -34.591192174936566 3.7597950198737298 70.103609542650361 0.80901698891910034 0 -0.5877852598018023 I I #
edge $-1 $427 -3.0906406762772907 $228 3.7597950198737298 $335 $434 forward 7 unknown #
point $-1 55.969725638599812 3.7597950198737298 11.226127163944581 #
point $-1 46.446708512160399 3.7597950198737298 11.226127163944582 #
edge $-1 $435 1 $435 0 $231 $-1 forward 7 unknown #
vertex $-1 $232 $436 #
ellipse-curve $-1 49.221834038822202 0.33457717179821955 5.0326669824951118 0.5877852598018023 0 0.80901698891910034 0.80901698891910034 0 -0.5877852598018023 1 I I #
point $-1 52.017234064299203 0.33457717179821955 7.1789033679756864 #
loop $-1 $-1 $350 $235 #
plane-surface $-1 0 22.730708454715629 0 0 -1 0 0 0 -1 forward_v I I I I #
coedge $-1 $239 $238 $356 $437 reversed $90 $-1 #
coedge $-1 $438 $439 $239 $351 forward $347 $-1 #
edge $-1 $353 -77.344086034919627 $440 -65.572989436363912 $350 $441 forward 7 unknown #
coedge $-1 $245 $240 $439 $442 reversed $144 $-1 #
vertex $-1 $241 $443 #
straight-curve $-1 55.969725638599812 9.6527453033200583 4.3072500916103849 0 1 0 I I #
coedge $-1 $444 $242 $245 $360 forward $236 $-1 #
coedge $-1 $242 $444 $349 $437 forward $236 $-1 #
vertex $-1 $243 $445 #
straight-curve $-1 15.602583638051705 15.880272758564606 11.226127163944582 1 0 0 I I #
straight-curve $-1 -34.591192174936566 15.880272758564606 70.103609542650361 -0.80901698891910034 0 0.5877852598018023 I I #
edge $-1 $246 15.880272758564606 $446 22.730708454715629 $245 $447 forward 7 unknown #
point $-1 55.969725638599812 15.880272758564606 11.226127163944581 #
point $-1 55.969725638599812 15.880272758564606 4.3072500916103849 #
edge $-1 $448 1 $448 0 $249 $-1 forward 7 unknown #
vertex $-1 $250 $449 #
ellipse-curve $-1 49.221834038822202 19.305490606640117 5.0326669824951118 0.5877852598018023 0 0.80901698891910034 0.80901698891910034 0 -0.5877852598018023 1 I I #
point $-1 52.017234064299203 19.305490606640117 7.1789033679756864 #
plane-surface $-1 0 0 11.226127163944581 0 0 1 1 0 0 forward_v I I I I #
coedge $-1 $261 $450 $372 $451 forward $254 $-1 #
coedge $-1 $370 $256 $450 $452 reversed $159 $-1 #
coedge $-1 $256 $369 $373 $453 reversed $159 $-1 #
edge $-1 $374 11.906685885217417 $454 22.502053731797695 $256 $455 forward 7 unknown #
coedge $-1 $258 $257 $368 $451 reversed $99 $-1 #
coedge $-1 $264 $259 $370 $453 forward $265 $-1 #
vertex $-1 $453 $456 #
straight-curve $-1 -46.887722825217878 9.0900123636695849 11.226127163944581 0 1 0 I I #
coedge $-1 $450 $261 $264 $380 reversed $254 $-1 #
vertex $-1 $262 $457 #
straight-curve $-1 -55.969725638599812 13.629340999962707 50.85997303261302 0 0 1 I I #
straight-curve $-1 -55.969725638599812 13.629340999962707 5.7691092326867306 -0.85716729658548041 0 -0.51503808176128008 I I #
edge $-1 $458 -22.730708454715629 $266 -13.629340999962707 $376 $459 forward 7 unknown #
point $-1 -55.969725638599812 13.629340999962707 11.226127163944581 #
point $-1 -46.887722825217871 13.629340999962707 11.226127163944581 #
edge $-1 $460 1 $460 0 $269 $-1 forward 7 unknown #
vertex $-1 $270 $461 #
ellipse-curve $-1 -50.84153963703119 16.229731701320684 7.5203789424013632 -0.51503808176128008 0 0.85716729658548041 0.85716729658548041 0 0.51503808176128008 1 I I #
point $-1 -50.571556935323365 16.229731701320684 9.0126562800769427 #
edge $-1 $462 1 $462 0 $273 $-1 forward 7 unknown #
vertex $-1 $274 $463 #
ellipse-curve $-1 -50.84153963703119 20.130317753357648 7.5203789424013632 -0.51503808176128008 0 0.85716729658548041 0.85716729658548041 0 0.51503808176128008 1 I I #
point $-1 -50.571556935323365 20.130317753357648 9.0126562800769427 #
plane-surface $-1 55.969725638599812 0 0 -1 0 0 0 0 1 forward_v I I I I #
coedge $-1 $282 $280 $284 $396 reversed $181 $-1 #
edge $-1 $295 -11.226127163944581 $398 11.226127163944581 $294 $464 forward 7 unknown #
vertex $-1 $396 $465 #
straight-curve $-1 -55.969725638599812 -22.730708454715629 0 0 0 -1 I I #
edge $-1 $394 -22.730708454715629 $398 22.730708454715629 $392 $466 forward 7 unknown #
straight-curve $-1 0 -22.730708454715629 -11.226127163944581 -1 0 0 I I #
vertex $-1 $287 $467 #
straight-curve $-1 0 22.730708454715629 -11.226127163944581 1 0 0 I I #
point $-1 55.969725638599812 22.730708454715629 -11.226127163944581 #
point $-1 55.969725638599812 -22.730708454715629 -11.226127163944581 #
straight-curve $-1 -55.969725638599812 0 11.226127163944581 0 -1 0 I I #
point $-1 -55.969725638599812 22.730708454715629 11.226127163944581 #
point $-1 -55.969725638599812 -22.730708454715629 11.226127163944581 #
straight-curve $-1 55.969725638599812 -22.730708454715629 0 0 0 -1 I I #
straight-curve $-1 55.969725638599812 22.730708454715629 0 0 0 -1 I I #
loop $-1 $-1 $415 $304 #
plane-surface $-1 -55.969725638599812 0 0 1 0 0 0 0 -1 forward_v I I I I #
coedge $-1 $308 $307 $421 $468 forward $121 $-1 #
edge $-1 $312 15.211118414968173 $424 22.730708454715629 $311 $469 forward 7 unknown #
coedge $-1 $418 $415 $308 $412 reversed $407 $-1 #
edge $-1 $470 -22.730708454715629 $413 -15.211118414968173 $411 $471 forward 7 unknown #
vertex $-1 $416 $472 #
straight-curve $-1 0 -15.211118414968173 -11.226127163944581 1 0 0 I I #
coedge $-1 $411 $314 $310 $416 forward $407 $-1 #
edge $-1 $316 2.2651136337797606 $413 6.7290468980364668 $415 $473 forward 7 unknown #
point $-1 55.969725638599812 -15.211118414968173 -11.226127163944581 #
coedge $-1 $314 $411 $318 $422 reversed $407 $-1 #
straight-curve $-1 -55.969725638599812 -9.4854567174209503 -6.7621938996878743 0 1 0 I I #
point $-1 -55.969725638599812 -15.211118414968173 -6.7621938996878743 #
coedge $-1 $319 $318 $409 $468 reversed $305 $-1 #
edge $-1 $320 6.7621938996878743 $470 11.226127163944581 $418 $474 forward 7 unknown #
point $-1 -55.969725638599812 -22.730708454715629 -6.7621938996878743 #
vertex $-1 $322 $475 #
straight-curve $-1 55.969725638599812 -22.730708454715629 0 0 0 -1 I I #
edge $-1 $427 69.106136514148787 $430 76.025013586482984 $326 $476 forward 7 unknown #
vertex $-1 $340 $477 #
straight-curve $-1 15.602583638051705 -3.0906406762772907 11.226127163944582 1 0 0 I I #
edge $-1 $430 -3.2579292621764004 $337 3.59250643397462 $336 $478 forward 7 unknown #
vertex $-1 $429 $479 #
straight-curve $-1 -34.591192174936566 -3.0906406762772907 70.103609542650361 -0.80901698891910034 0 0.5877852598018023 I I #
point $-1 46.446708512160399 -3.0906406762772907 11.226127163944582 #
point $-1 55.969725638599812 3.7597950198737298 4.3072500916103849 #
straight-curve $-1 55.969725638599812 0 11.226127163944581 0 1 0 I I #
vertex $-1 $343 $480 #
point $-1 50.030851027741299 0.33457717179821955 4.4448817226933093 #
edge $-1 $440 -13.077963151395567 $357 -6.2275274552445481 $356 $481 forward 7 unknown #
coedge $-1 $439 $350 $444 $482 reversed $347 $-1 #
coedge $-1 $350 $438 $352 $442 forward $347 $-1 #
vertex $-1 $351 $483 #
straight-curve $-1 -6.6029539560707082 22.730708454715629 49.768963795778575 -0.80901698891910034 0 0.5877852598018023 I I #
edge $-1 $446 -11.226127163944581 $353 -4.3072500916103875 $352 $484 forward 7 unknown #
point $-1 55.969725638599812 22.730708454715629 4.3072500916103875 #
coedge $-1 $356 $355 $438 $482 forward $236 $-1 #
point $-1 46.446708512160399 15.880272758564606 11.226127163944582 #
vertex $-1 $360 $485 #
straight-curve $-1 55.969725638599812 0 11.226127163944581 0 1 0 I I #
vertex $-1 $363 $486 #
point $-1 50.030851027741299 19.305490606640117 4.4448817226933093 #
coedge $-1 $368 $376 $369 $452 forward $254 $-1 #
edge $-1 $454 -13.640696091046047 $377 -4.5393286362931224 $368 $487 forward 7 unknown #
edge $-1 $458 -11.226127163944581 $454 -5.7691092326867306 $369 $488 forward 7 unknown #
edge $-1 $374 46.887722825217871 $458 55.969725638599812 $370 $489 forward 7 unknown #
vertex $-1 $451 $490 #
straight-curve $-1 -36.68170107369356 22.730708454715629 17.358523822401068 -0.85716729658548041 0 -0.51503808176128008 I I #
point $-1 -46.887722825217871 22.730708454715632 11.226127163944581 #
point $-1 -55.969725638599812 13.629340999962707 5.7691092326867306 #
vertex $-1 $453 $491 #
straight-curve $-1 -55.969725638599812 0 11.226127163944581 0 -1 0 I I #
vertex $-1 $383 $492 #
point $-1 -49.984372340445709 16.229731701320684 8.0354170241626441 #
vertex $-1 $387 $493 #
point $-1 -49.984372340445709 20.130317753357648 8.0354170241626441 #
straight-curve $-1 -55.969725638599812 22.730708454715629 0 0 0 -1 I I #
point $-1 -55.969725638599812 -22.730708454715629 -11.226127163944581 #
straight-curve $-1 -55.969725638599812 0 -11.226127163944581 0 1 0 I I #
point $-1 -55.969725638599812 22.730708454715629 -11.226127163944581 #
edge $-1 $424 -55.969725638599812 $470 55.969725638599812 $421 $494 forward 7 unknown #
straight-curve $-1 55.969725638599812 0 -11.226127163944581 0 -1 0 I I #
vertex $-1 $412 $495 #
straight-curve $-1 -55.969725638599812 0 -11.226127163944581 0 1 0 I I #
point $-1 -55.969725638599812 -15.211118414968173 -11.226127163944581 #
straight-curve $-1 -55.969725638599812 -15.211118414968173 -4.4970802659081137 0 0 -1 I I #
straight-curve $-1 -55.969725638599812 -22.730708454715629 0 0 0 -1 I I #
point $-1 55.969725638599812 -22.730708454715629 -11.226127163944581 #
straight-curve $-1 55.969725638599812 -3.0906406762772907 80.332263678093369 0 0 -1 I I #
point $-1 55.969725638599812 -3.0906406762772907 11.226127163944581 #
straight-curve $-1 55.969725638599812 0.16728858589910978 4.3072500916103849 0 1 0 I I #
point $-1 55.969725638599812 -3.0906406762772907 4.3072500916103849 #
point $-1 48.634048779020397 0.33457717179821955 4.2236499935760108 #
straight-curve $-1 46.446708512160384 9.6527453033200583 11.226127163944582 0 -1 0 I I #
edge $-1 $446 -55.969725638599812 $440 -46.446708512160399 $438 $496 forward 7 unknown #
point $-1 46.446708512160399 22.730708454715625 11.226127163944582 #
straight-curve $-1 55.969725638599812 22.730708454715629 0 0 0 -1 I I #
point $-1 55.969725638599812 22.730708454715629 11.226127163944581 #
point $-1 48.634048779020397 19.305490606640117 4.2236499935760108 #
straight-curve $-1 -55.969725638599812 9.0900123636695849 5.7691092326867306 0 -1 0 I I #
straight-curve $-1 -55.969725638599812 22.730708454715629 0 0 0 -1 I I #
straight-curve $-1 0 22.730708454715629 11.226127163944581 -1 0 0 I I #
point $-1 -55.969725638599812 22.730708454715632 5.7691092326867306 #
point $-1 -55.969725638599812 22.730708454715629 11.226127163944581 #
point $-1 -50.326501555269914 16.229731701320684 6.663211645815883 #
point $-1 -50.326501555269914 20.130317753357648 6.663211645815883 #
straight-curve $-1 0 -22.730708454715629 -11.226127163944581 -1 0 0 I I #
point $-1 -55.969725638599812 -22.730708454715629 -11.226127163944581 #
straight-curve $-1 0 22.730708454715629 11.226127163944581 -1 0 0 I I #
End-of-ACIS-data 