500 0 5 0           
7 Unknown 11 ACIS 5.0 NT 24 Fri Mar 26 16:47:21 1999 
-1 9.9999999999999995e-007 1e-010 
body $-1 $5 $-1 $6 #
body $-1 $7 $-1 $8 #
body $-1 $9 $-1 $10 #
body $-1 $11 $-1 $12 #
body $-1 $13 $-1 $14 #
lump $-1 $-1 $15 $0 #
transform $-1 1 0 0 0 1 0 0 0 1 58.48323007904294 37.670967711945067 9.4794212827561832 1 rotate no_reflect no_shear #
lump $-1 $-1 $16 $1 #
transform $-1 1 0 0 0 1 0 0 0 1 58.48323007904294 37.670967711945067 9.4794212827561832 1 rotate no_reflect no_shear #
lump $-1 $-1 $17 $2 #
transform $-1 1 0 0 0 1 0 0 0 1 58.48323007904294 37.670967711945067 9.4794212827561832 1 rotate no_reflect no_shear #
lump $-1 $-1 $18 $3 #
transform $-1 1 0 0 0 1 0 0 0 1 58.48323007904294 37.670967711945067 9.4794212827561832 1 rotate no_reflect no_shear #
lump $-1 $-1 $19 $4 #
transform $-1 1 0 0 0 1 0 0 0 1 58.48323007904294 37.670967711945067 9.4794212827561832 1 rotate no_reflect no_shear #
shell $-1 $-1 $-1 $20 $-1 $5 #
shell $-1 $-1 $-1 $21 $-1 $7 #
shell $-1 $-1 $-1 $22 $-1 $9 #
shell $-1 $-1 $-1 $23 $-1 $11 #
shell $-1 $-1 $-1 $24 $-1 $13 #
face $-1 $25 $26 $15 $-1 $27 forward single #
face $-1 $28 $29 $16 $-1 $30 forward single #
face $-1 $31 $32 $17 $-1 $33 forward single #
face $-1 $34 $35 $18 $-1 $36 reversed single #
face $-1 $37 $38 $19 $-1 $39 reversed single #
face $-1 $40 $41 $15 $-1 $42 reversed single #
loop $-1 $-1 $43 $20 #
plane-surface $-1 0 0 9.4794212827561832 0 0 1 1 0 0 forward_v I I I I #
face $-1 $44 $45 $16 $-1 $46 forward single #
loop $-1 $-1 $47 $21 #
plane-surface $-1 -43.406706240613659 -32.494677748144802 0 1 0 0 0 0 -1 forward_v I I I I #
face $-1 $48 $49 $17 $-1 $50 forward single #
loop $-1 $-1 $51 $22 #
plane-surface $-1 -156.57955858662797 -18.654835270271263 68.363504402707392 0 1 0 -0.83867057594974714 0 0.54463902268945019 forward_v I I I I #
face $-1 $52 $53 $18 $-1 $54 reversed single #
loop $-1 $55 $56 $23 #
cone-surface $-1 -56.430694597245882 -15.459272883208261 6.7527388535886095 0.83867057594974714 0 -0.54463902268945019 0.54463902268945019 0 0.83867057594974714 1 I I 0 1 1 forward I I I I #
face $-1 $57 $58 $19 $-1 $59 reversed single #
loop $-1 $60 $61 $24 #
cone-surface $-1 -56.430694597245882 -10.665929302613758 6.7527388535886095 0.83867057594974714 0 -0.54463902268945019 0.54463902268945019 0 0.83867057594974714 1 I I 0 1 1 forward I I I I #
face $-1 $62 $63 $15 $-1 $64 reversed single #
loop $-1 $-1 $65 $25 #
plane-surface $-1 0 0 -9.4794212827561832 0 0 1 1 0 0 forward_v I I I I #
coedge $-1 $66 $67 $68 $69 forward $26 $-1 #
face $-1 $70 $71 $16 $-1 $72 forward single #
loop $-1 $-1 $73 $28 #
plane-surface $-1 -41.465546877072114 -27.318387784344537 0 0 -1 0 0 0 -1 forward_v I I I I #
coedge $-1 $74 $75 $76 $77 reversed $29 $-1 #
face $-1 $78 $79 $17 $-1 $80 forward single #
loop $-1 $-1 $81 $31 #
plane-surface $-1 -58.483230079042926 -13.062601092911009 4.6590058547629809 -0.83867057594974714 0 0.54463902268945019 0.54463902268945019 0 0.83867057594974714 forward_v I I I I #
coedge $-1 $82 $83 $84 $85 reversed $32 $-1 #
face $-1 $86 $87 $18 $-1 $88 forward single #
loop $-1 $89 $90 $34 #
cone-surface $-1 -55.52403096776635 -15.459272883208261 6.163944627072917 0.83867057594974714 0 -0.54463902268945019 0.2723195113447251 0 0.41933528797487357 1 I I -0.70710678118654813 0.70710678118654691 0.5 forward I I I I #
loop $-1 $-1 $91 $23 #
coedge $-1 $56 $56 $92 $93 reversed $35 $-1 #
face $-1 $94 $95 $19 $-1 $96 reversed single #
loop $-1 $97 $98 $37 #
cone-surface $-1 -55.52403096776635 -10.665929302613758 6.163944627072917 0.83867057594974714 0 -0.54463902268945019 0.2723195113447251 0 0.41933528797487357 1 I I -0.70710678118654813 0.70710678118654691 0.5 forward I I I I #
loop $-1 $-1 $99 $24 #
coedge $-1 $61 $61 $100 $101 reversed $38 $-1 #
face $-1 $102 $103 $15 $-1 $104 reversed single #
loop $-1 $-1 $105 $40 #
plane-surface $-1 0 -37.670967711945067 0 0 1 0 0 0 1 forward_v I I I I #
coedge $-1 $106 $107 $108 $109 forward $41 $-1 #
coedge $-1 $110 $43 $111 $112 forward $26 $-1 #
coedge $-1 $43 $110 $113 $114 forward $26 $-1 #
coedge $-1 $115 $116 $43 $69 reversed $117 $-1 #
edge $-1 $118 -37.670967711945067 $119 37.670967711945067 $68 $120 forward 7 unknown #
face $-1 $121 $122 $16 $-1 $123 forward single #
loop $-1 $-1 $124 $44 #
plane-surface $-1 -39.52438751353057 -32.494677748144802 0 -1 0 0 0 0 1 forward_v I I I I #
coedge $-1 $125 $126 $127 $128 reversed $45 $-1 #
coedge $-1 $129 $47 $130 $131 reversed $29 $-1 #
coedge $-1 $47 $129 $132 $133 reversed $29 $-1 #
coedge $-1 $126 $125 $47 $77 forward $45 $-1 #
edge $-1 $134 -9.4794212827561832 $135 9.4794212827561832 $76 $136 forward 7 unknown #
face $-1 $137 $138 $17 $-1 $139 forward single #
loop $-1 $-1 $140 $48 #
plane-surface $-1 -156.57955858662797 -7.4703669155507573 68.363504402707392 0 -1 0 0.83867057594974714 0 -0.54463902268945019 forward_v I I I I #
coedge $-1 $141 $142 $143 $144 reversed $49 $-1 #
coedge $-1 $83 $51 $142 $145 forward $32 $-1 #
coedge $-1 $51 $82 $146 $147 reversed $32 $-1 #
coedge $-1 $148 $143 $51 $85 forward $138 $-1 #
edge $-1 $149 -22.936963494855853 $150 -19.806549214271044 $84 $151 forward 7 unknown #
face $-1 $152 $153 $18 $-1 $154 forward single #
loop $-1 $-1 $155 $52 #
plane-surface $-1 -156.57955858662797 -18.654835270271263 68.363504402707392 0 1 0 -0.83867057594974714 0 0.54463902268945019 forward_v I I I I #
loop $-1 $-1 $156 $34 #
coedge $-1 $90 $90 $91 $157 forward $53 $-1 #
coedge $-1 $91 $91 $90 $157 reversed $55 $-1 #
coedge $-1 $92 $92 $56 $93 forward $153 $-1 #
edge $-1 $158 0 $158 6.2831853071796004 $92 $159 forward 7 unknown #
face $-1 $160 $161 $19 $-1 $162 reversed single #
loop $-1 $163 $164 $57 #
cone-surface $-1 -56.430694597245882 -15.459272883208261 6.7527388535886095 0.83867057594974714 0 -0.54463902268945019 0.54463902268945019 0 0.83867057594974714 1 I I 0 1 1 forward I I I I #
loop $-1 $-1 $165 $37 #
coedge $-1 $98 $98 $99 $166 forward $58 $-1 #
coedge $-1 $99 $99 $98 $166 reversed $60 $-1 #
coedge $-1 $100 $100 $61 $101 forward $167 $-1 #
edge $-1 $168 0 $168 6.2831853071796004 $100 $169 forward 7 unknown #
face $-1 $170 $171 $15 $-1 $172 reversed single #
loop $-1 $-1 $173 $62 #
plane-surface $-1 -58.48323007904294 0 0 1 0 0 0 0 -1 forward_v I I I I #
coedge $-1 $174 $113 $175 $176 forward $63 $-1 #
coedge $-1 $177 $65 $174 $178 forward $41 $-1 #
coedge $-1 $65 $177 $179 $180 forward $41 $-1 #
coedge $-1 $116 $115 $65 $109 reversed $117 $-1 #
edge $-1 $181 -37.670967711945067 $182 37.670967711945067 $108 $183 forward 7 unknown #
coedge $-1 $67 $66 $184 $185 forward $26 $-1 #
coedge $-1 $186 $187 $66 $112 reversed $171 $-1 #
edge $-1 $119 -58.48323007904294 $188 58.48323007904294 $111 $189 forward 7 unknown #
coedge $-1 $105 $190 $67 $114 reversed $63 $-1 #
edge $-1 $191 -58.48323007904294 $118 58.48323007904294 $113 $192 forward 7 unknown #
coedge $-1 $108 $68 $190 $193 forward $117 $-1 #
coedge $-1 $68 $108 $186 $194 reversed $117 $-1 #
loop $-1 $-1 $115 $170 #
vertex $-1 $69 $195 #
vertex $-1 $69 $196 #
straight-curve $-1 58.48323007904294 0 9.4794212827561832 0 1 0 I I #
face $-1 $197 $198 $16 $-1 $199 reversed single #
loop $-1 $-1 $130 $70 #
plane-surface $-1 0 0 9.4794212827561832 0 0 1 1 0 0 forward_v I I I I #
coedge $-1 $200 $201 $202 $203 reversed $71 $-1 #
coedge $-1 $76 $73 $204 $205 reversed $45 $-1 #
coedge $-1 $73 $76 $206 $207 reversed $45 $-1 #
coedge $-1 $201 $200 $73 $128 forward $71 $-1 #
edge $-1 $208 -9.4794212827561832 $209 9.4794212827561832 $127 $210 forward 7 unknown #
coedge $-1 $75 $74 $211 $212 reversed $29 $-1 #
coedge $-1 $204 $213 $74 $131 forward $122 $-1 #
edge $-1 $214 -21.423628837872666 $134 -11.071048910272136 $130 $215 forward 7 unknown #
coedge $-1 $216 $206 $75 $133 forward $217 $-1 #
edge $-1 $135 11.071048910272136 $218 21.423628837872666 $132 $219 forward 7 unknown #
vertex $-1 $131 $220 #
vertex $-1 $133 $221 #
straight-curve $-1 -43.406706240613659 -27.318387784344537 0 0 0 -1 I I #
face $-1 $222 $223 $17 $-1 $224 forward single #
loop $-1 $-1 $225 $78 #
plane-surface $-1 0 0 9.4794212827561832 0 0 1 1 0 0 forward_v I I I I #
coedge $-1 $226 $227 $225 $228 reversed $79 $-1 #
coedge $-1 $229 $81 $227 $230 reversed $49 $-1 #
coedge $-1 $81 $229 $82 $145 reversed $49 $-1 #
coedge $-1 $84 $225 $81 $144 forward $138 $-1 #
edge $-1 $231 0.93906636909525254 $149 12.123534723815759 $143 $232 forward 7 unknown #
edge $-1 $149 -5.7476863577029063 $233 2.636201369357039e-014 $82 $234 forward 7 unknown #
coedge $-1 $235 $236 $83 $147 forward $237 $-1 #
edge $-1 $150 24.702330918597511 $233 29.522746346590736 $146 $238 forward 7 unknown #
coedge $-1 $239 $84 $236 $240 forward $138 $-1 #
vertex $-1 $144 $241 #
vertex $-1 $240 $242 #
straight-curve $-1 -78.289779293313984 -18.654835270271263 9.479421282756185 -1 0 0 I I #
face $-1 $243 $244 $18 $-1 $245 forward single #
loop $-1 $246 $92 $86 #
plane-surface $-1 -58.483230079042926 -13.062601092911009 4.6590058547629809 -0.83867057594974714 0 0.54463902268945019 0.54463902268945019 0 0.83867057594974714 forward_v I I I I #
coedge $-1 $247 $248 $249 $250 reversed $87 $-1 #
coedge $-1 $156 $156 $-1 $251 forward $89 $-1 #
edge $-1 $252 0 $252 6.2831853071796004 $90 $253 forward 7 unknown #
vertex $-1 $93 $254 #
ellipse-curve $-1 -56.918022938750532 -15.459272883208261 7.0692135687595723 0.83867057594974714 0 -0.54463902268945019 0.54463902268945019 0 0.83867057594974714 1 I I #
face $-1 $255 $256 $19 $-1 $257 forward single #
loop $-1 $258 $259 $94 #
cone-surface $-1 -55.52403096776635 -15.459272883208261 6.163944627072917 0.83867057594974714 0 -0.54463902268945019 0.2723195113447251 0 0.41933528797487357 1 I I -0.70710678118654813 0.70710678118654691 0.5 forward I I I I #
loop $-1 $-1 $260 $57 #
coedge $-1 $164 $164 $261 $262 reversed $95 $-1 #
coedge $-1 $165 $165 $-1 $263 forward $97 $-1 #
edge $-1 $264 0 $264 6.2831853071796004 $98 $265 forward 7 unknown #
loop $-1 $266 $100 $255 #
vertex $-1 $101 $267 #
ellipse-curve $-1 -56.918022938750532 -10.665929302613758 7.0692135687595723 0.83867057594974714 0 -0.54463902268945019 0.54463902268945019 0 0.83867057594974714 1 I I #
face $-1 $-1 $117 $15 $-1 $268 reversed single #
loop $-1 $-1 $186 $102 #
plane-surface $-1 0 37.670967711945067 0 0 -1 0 0 0 -1 forward_v I I I I #
coedge $-1 $269 $184 $187 $270 forward $103 $-1 #
coedge $-1 $190 $105 $106 $178 reversed $63 $-1 #
coedge $-1 $184 $269 $105 $176 reversed $103 $-1 #
edge $-1 $191 -9.4794212827561832 $271 9.4794212827561832 $175 $272 forward 7 unknown #
coedge $-1 $107 $106 $269 $273 forward $41 $-1 #
edge $-1 $182 -58.48323007904294 $271 58.48323007904294 $174 $274 forward 7 unknown #
coedge $-1 $187 $186 $107 $180 reversed $171 $-1 #
edge $-1 $275 -58.48323007904294 $181 58.48323007904294 $179 $276 forward 7 unknown #
vertex $-1 $109 $277 #
vertex $-1 $193 $278 #
straight-curve $-1 58.48323007904294 0 -9.4794212827561832 0 -1 0 I I #
coedge $-1 $173 $175 $110 $185 reversed $103 $-1 #
edge $-1 $188 -37.670967711945067 $191 37.670967711945067 $184 $279 forward 7 unknown #
coedge $-1 $179 $111 $116 $194 forward $171 $-1 #
coedge $-1 $111 $179 $173 $270 reversed $171 $-1 #
vertex $-1 $112 $280 #
straight-curve $-1 0 37.670967711945067 9.4794212827561832 -1 0 0 I I #
coedge $-1 $113 $174 $115 $193 reversed $63 $-1 #
vertex $-1 $185 $281 #
straight-curve $-1 0 -37.670967711945067 9.4794212827561832 1 0 0 I I #
edge $-1 $118 -9.4794212827561832 $182 9.4794212827561832 $115 $282 forward 7 unknown #
edge $-1 $119 -9.4794212827561832 $181 9.4794212827561832 $116 $283 forward 7 unknown #
point $-1 58.48323007904294 -37.670967711945067 9.4794212827561832 #
point $-1 58.48323007904294 37.670967711945067 9.4794212827561832 #
face $-1 $284 $217 $16 $-1 $285 reversed single #
loop $-1 $-1 $202 $121 #
plane-surface $-1 0 -37.670967711945067 0 0 1 0 0 0 1 forward_v I I I I #
coedge $-1 $127 $124 $286 $287 reversed $71 $-1 #
coedge $-1 $124 $127 $288 $289 reversed $71 $-1 #
coedge $-1 $290 $291 $124 $203 forward $198 $-1 #
edge $-1 $292 -9.4794212827561832 $293 9.4794212827561832 $202 $294 forward 7 unknown #
coedge $-1 $286 $130 $125 $205 forward $122 $-1 #
edge $-1 $134 -22.673932802077601 $208 -18.791614074994513 $204 $295 forward 7 unknown #
coedge $-1 $132 $288 $126 $207 forward $217 $-1 #
edge $-1 $209 18.791614074994513 $135 22.673932802077601 $206 $296 forward 7 unknown #
vertex $-1 $205 $297 #
vertex $-1 $207 $298 #
straight-curve $-1 -39.52438751353057 -27.318387784344537 0 0 0 -1 I I #
coedge $-1 $299 $300 $129 $212 forward $301 $-1 #
edge $-1 $218 -9.4794212827561832 $214 9.4794212827561832 $211 $302 forward 7 unknown #
coedge $-1 $130 $303 $299 $304 forward $122 $-1 #
vertex $-1 $212 $305 #
straight-curve $-1 -43.406706240613659 -16.247338874072401 9.4794212827561832 0 1 0 I I #
coedge $-1 $306 $132 $300 $307 forward $217 $-1 #
loop $-1 $-1 $132 $197 #
vertex $-1 $307 $308 #
straight-curve $-1 -43.406706240613659 -16.247338874072401 -9.4794212827561832 0 -1 0 I I #
point $-1 -43.406706240613659 -27.318387784344537 9.4794212827561832 #
point $-1 -43.406706240613659 -27.318387784344537 -9.4794212827561832 #
face $-1 $309 $310 $17 $-1 $311 forward single #
loop $-1 $-1 $312 $137 #
plane-surface $-1 -43.406706240613659 -32.494677748144802 0 1 0 0 0 0 -1 forward_v I I I I #
coedge $-1 $143 $313 $140 $228 forward $138 $-1 #
coedge $-1 $227 $140 $314 $315 reversed $79 $-1 #
coedge $-1 $140 $226 $141 $230 forward $79 $-1 #
edge $-1 $316 19.806549214271044 $231 22.936963494855853 $225 $317 forward 7 unknown #
coedge $-1 $142 $141 $235 $318 reversed $49 $-1 #
edge $-1 $319 -2.636201369357039e-014 $231 5.7476863577029063 $227 $320 forward 7 unknown #
vertex $-1 $144 $321 #
straight-curve $-1 -55.352815798458131 -6.5313005464555047 9.4794212827561832 0 -1 0 I I #
vertex $-1 $318 $322 #
straight-curve $-1 -58.483230079042926 -18.654835270271263 4.6590058547629809 -0.54463902268945019 0 -0.83867057594974714 I I #
coedge $-1 $314 $146 $229 $318 forward $237 $-1 #
coedge $-1 $146 $323 $148 $240 reversed $237 $-1 #
loop $-1 $-1 $314 $324 #
straight-curve $-1 -58.48323007904294 -18.654835270271263 34.181752201353696 0 0 -1 I I #
coedge $-1 $325 $148 $326 $327 forward $138 $-1 #
edge $-1 $150 18.654835270271263 $328 37.670967711945067 $236 $329 forward 7 unknown #
point $-1 -55.352815798458131 -18.654835270271263 9.4794212827561832 #
point $-1 -58.48323007904294 -18.654835270271263 9.4794212827561832 #
face $-1 $330 $331 $18 $-1 $332 forward single #
loop $-1 $-1 $333 $152 #
plane-surface $-1 -156.57955858662797 -7.4703669155507573 68.363504402707392 0 -1 0 0.83867057594974714 0 -0.54463902268945019 forward_v I I I I #
loop $-1 $-1 $334 $86 #
coedge $-1 $248 $155 $335 $336 forward $87 $-1 #
coedge $-1 $155 $247 $337 $338 reversed $87 $-1 #
coedge $-1 $339 $340 $155 $250 forward $331 $-1 #
edge $-1 $341 -22.936963494855853 $342 -19.806549214271044 $249 $343 forward 7 unknown #
edge $-1 $344 1 $344 0 $156 $-1 forward 7 unknown #
vertex $-1 $157 $345 #
ellipse-curve $-1 -55.943366255741225 -15.459272883208261 6.4362641384176413 -0.83867057594974714 0 0.54463902268945019 0.54463902268945019 0 0.83867057594974714 1 I I #
point $-1 -56.373383916061094 -15.459272883208261 7.9078841447093255 #
face $-1 $346 $167 $19 $-1 $347 forward single #
loop $-1 $-1 $348 $160 #
plane-surface $-1 -156.57955858662797 -18.654835270271263 68.363504402707392 0 1 0 -0.83867057594974714 0 0.54463902268945019 forward_v I I I I #
loop $-1 $-1 $349 $94 #
coedge $-1 $259 $259 $260 $350 forward $161 $-1 #
coedge $-1 $260 $260 $259 $350 reversed $163 $-1 #
coedge $-1 $261 $261 $164 $262 forward $266 $-1 #
edge $-1 $351 0 $351 6.2831853071796004 $261 $352 forward 7 unknown #
edge $-1 $353 1 $353 0 $165 $-1 forward 7 unknown #
vertex $-1 $166 $354 #
ellipse-curve $-1 -55.943366255741225 -10.665929302613758 6.4362641384176413 -0.83867057594974714 0 0.54463902268945019 0.54463902268945019 0 0.83867057594974714 1 I I #
loop $-1 $355 $261 $255 #
point $-1 -56.373383916061094 -10.665929302613758 7.9078841447093255 #
plane-surface $-1 58.48323007904294 0 0 -1 0 0 0 0 1 forward_v I I I I #
coedge $-1 $175 $173 $177 $273 reversed $103 $-1 #
edge $-1 $188 -9.4794212827561832 $275 9.4794212827561832 $187 $356 forward 7 unknown #
vertex $-1 $273 $357 #
straight-curve $-1 -58.48323007904294 -37.670967711945067 0 0 0 -1 I I #
edge $-1 $271 -37.670967711945067 $275 37.670967711945067 $269 $358 forward 7 unknown #
straight-curve $-1 0 -37.670967711945067 -9.4794212827561832 -1 0 0 I I #
vertex $-1 $180 $359 #
straight-curve $-1 0 37.670967711945067 -9.4794212827561832 1 0 0 I I #
point $-1 58.48323007904294 37.670967711945067 -9.4794212827561832 #
point $-1 58.48323007904294 -37.670967711945067 -9.4794212827561832 #
straight-curve $-1 -58.48323007904294 0 9.4794212827561832 0 -1 0 I I #
point $-1 -58.48323007904294 37.670967711945067 9.4794212827561832 #
point $-1 -58.48323007904294 -37.670967711945067 9.4794212827561832 #
straight-curve $-1 58.48323007904294 -37.670967711945067 0 0 0 -1 I I #
straight-curve $-1 58.48323007904294 37.670967711945067 0 0 0 -1 I I #
face $-1 $360 $301 $16 $-1 $199 reversed single #
plane-surface $-1 0 0 -9.4794212827561832 0 0 1 1 0 0 forward_v I I I I #
coedge $-1 $361 $204 $200 $287 forward $122 $-1 #
edge $-1 $208 11.071048910272136 $292 21.423628837872666 $286 $362 forward 7 unknown #
coedge $-1 $206 $363 $201 $289 forward $217 $-1 #
edge $-1 $293 -21.423628837872666 $209 -11.071048910272136 $288 $364 forward 7 unknown #
coedge $-1 $365 $202 $363 $366 reversed $198 $-1 #
coedge $-1 $202 $365 $361 $367 reversed $198 $-1 #
vertex $-1 $367 $368 #
vertex $-1 $203 $369 #
straight-curve $-1 -39.52438751353057 -37.670967711945067 0 0 0 -1 I I #
straight-curve $-1 -20.732773438536057 -27.318387784344537 9.4794212827561832 1 0 0 I I #
straight-curve $-1 -20.732773438536057 -27.318387784344537 -9.4794212827561832 -1 0 0 I I #
point $-1 -39.52438751353057 -27.318387784344537 9.4794212827561832 #
point $-1 -39.52438751353057 -27.318387784344537 -9.4794212827561832 #
coedge $-1 $370 $211 $213 $304 reversed $301 $-1 #
coedge $-1 $211 $370 $216 $307 reversed $301 $-1 #
loop $-1 $-1 $211 $284 #
straight-curve $-1 -43.406706240613659 -37.670967711945067 0 0 0 1 I I #
coedge $-1 $213 $371 $372 $373 forward $122 $-1 #
edge $-1 $374 -58.48323007904294 $214 -43.406706240613659 $299 $375 forward 7 unknown #
point $-1 -43.406706240613659 -37.670967711945067 9.4794212827561832 #
coedge $-1 $376 $216 $377 $378 forward $217 $-1 #
edge $-1 $218 43.406706240613659 $379 58.48323007904294 $300 $380 forward 7 unknown #
point $-1 -43.406706240613659 -37.670967711945067 -9.4794212827561832 #
face $-1 $381 $382 $17 $-1 $383 forward single #
loop $-1 $-1 $384 $222 #
plane-surface $-1 -41.465546877072114 -27.318387784344537 0 0 -1 0 0 0 -1 forward_v I I I I #
coedge $-1 $385 $386 $387 $388 reversed $223 $-1 #
coedge $-1 $225 $389 $390 $391 forward $138 $-1 #
coedge $-1 $390 $235 $226 $315 forward $237 $-1 #
edge $-1 $319 -29.522746346590736 $316 -24.702330918597511 $314 $392 forward 7 unknown #
vertex $-1 $315 $393 #
straight-curve $-1 -78.289779293313984 -7.4703669155507573 9.479421282756185 1 0 0 I I #
edge $-1 $233 -12.123534723815759 $319 -0.93906636909525254 $235 $394 forward 7 unknown #
vertex $-1 $318 $395 #
straight-curve $-1 -58.483230079042926 -7.4703669155507573 4.6590058547629809 0.54463902268945019 0 0.83867057594974714 I I #
point $-1 -55.352815798458131 -7.4703669155507573 9.4794212827561832 #
point $-1 -58.48323007904294 -18.654835270271263 4.6590058547629587 #
coedge $-1 $236 $396 $397 $398 reversed $237 $-1 #
face $-1 $399 $237 $17 $-1 $400 reversed single #
coedge $-1 $401 $239 $385 $402 forward $138 $-1 #
coedge $-1 $397 $403 $239 $327 reversed $404 $-1 #
edge $-1 $328 -58.48323007904294 $405 -43.406706240613659 $326 $406 forward 7 unknown #
vertex $-1 $240 $407 #
straight-curve $-1 -58.48323007904294 0 9.4794212827561832 0 -1 0 I I #
face $-1 $408 $409 $18 $-1 $410 forward single #
loop $-1 $-1 $411 $243 #
plane-surface $-1 0 0 9.4794212827561832 0 0 1 1 0 0 forward_v I I I I #
coedge $-1 $412 $413 $411 $414 reversed $244 $-1 #
coedge $-1 $415 $335 $340 $416 reversed $246 $-1 #
coedge $-1 $334 $417 $247 $336 reversed $246 $-1 #
edge $-1 $341 -5.7476863577029063 $418 2.636201369357039e-014 $247 $419 forward 7 unknown #
coedge $-1 $420 $421 $248 $338 forward $422 $-1 #
edge $-1 $342 24.702330918597511 $418 29.522746346590736 $337 $423 forward 7 unknown #
coedge $-1 $424 $249 $421 $425 forward $331 $-1 #
coedge $-1 $249 $411 $334 $416 forward $331 $-1 #
vertex $-1 $416 $426 #
vertex $-1 $425 $427 #
straight-curve $-1 -78.289779293313984 -18.654835270271263 9.479421282756185 -1 0 0 I I #
vertex $-1 $251 $428 #
point $-1 -55.398727233051773 -15.459272883208261 7.2749347143673884 #
face $-1 $429 $430 $19 $-1 $431 forward single #
plane-surface $-1 -58.483230079042926 -13.062601092911009 4.6590058547629809 -0.83867057594974714 0 0.54463902268945019 0.54463902268945019 0 0.83867057594974714 forward_v I I I I #
coedge $-1 $432 $433 $434 $435 reversed $256 $-1 #
coedge $-1 $349 $349 $-1 $436 forward $258 $-1 #
edge $-1 $437 0 $437 6.2831853071796004 $259 $438 forward 7 unknown #
vertex $-1 $262 $439 #
ellipse-curve $-1 -56.918022938750532 -15.459272883208261 7.0692135687595723 0.83867057594974714 0 -0.54463902268945019 0.54463902268945019 0 0.83867057594974714 1 I I #
vertex $-1 $263 $440 #
point $-1 -55.398727233051773 -10.665929302613758 7.2749347143673884 #
loop $-1 $-1 $441 $255 #
straight-curve $-1 -58.48323007904294 37.670967711945067 0 0 0 -1 I I #
point $-1 -58.48323007904294 -37.670967711945067 -9.4794212827561832 #
straight-curve $-1 -58.48323007904294 0 -9.4794212827561832 0 1 0 I I #
point $-1 -58.48323007904294 37.670967711945067 -9.4794212827561832 #
face $-1 $442 $443 $16 $-1 $444 reversed single #
coedge $-1 $445 $286 $291 $367 forward $122 $-1 #
straight-curve $-1 -39.52438751353057 -16.247338874072401 9.4794212827561832 0 -1 0 I I #
coedge $-1 $288 $446 $290 $366 forward $217 $-1 #
straight-curve $-1 -39.52438751353057 -16.247338874072401 -9.4794212827561832 0 1 0 I I #
coedge $-1 $291 $290 $447 $448 reversed $198 $-1 #
edge $-1 $449 -58.48323007904294 $293 39.52438751353057 $290 $380 forward 7 unknown #
edge $-1 $292 -39.52438751353057 $450 58.48323007904294 $291 $375 forward 7 unknown #
point $-1 -39.52438751353057 -37.670967711945067 9.4794212827561832 #
point $-1 -39.52438751353057 -37.670967711945067 -9.4794212827561832 #
coedge $-1 $300 $299 $451 $452 forward $301 $-1 #
coedge $-1 $303 $445 $453 $454 forward $122 $-1 #
coedge $-1 $455 $451 $303 $373 reversed $443 $-1 #
edge $-1 $456 -37.670967711945067 $374 37.670967711945067 $372 $457 forward 7 unknown #
vertex $-1 $373 $458 #
straight-curve $-1 0 -37.670967711945067 9.4794212827561832 1 0 0 I I #
coedge $-1 $446 $306 $459 $460 forward $217 $-1 #
coedge $-1 $451 $455 $306 $378 reversed $443 $-1 #
edge $-1 $379 -37.670967711945067 $461 37.670967711945067 $377 $462 forward 7 unknown #
vertex $-1 $378 $463 #
straight-curve $-1 0 -37.670967711945067 -9.4794212827561832 -1 0 0 I I #
face $-1 $464 $465 $17 $-1 $466 reversed single #
loop $-1 $-1 $467 $309 #
plane-surface $-1 -39.52438751353057 -32.494677748144802 0 -1 0 0 0 0 1 forward_v I I I I #
coedge $-1 $468 $469 $470 $471 reversed $310 $-1 #
coedge $-1 $472 $312 $325 $402 reversed $223 $-1 #
coedge $-1 $312 $472 $473 $474 reversed $223 $-1 #
coedge $-1 $469 $468 $312 $388 forward $310 $-1 #
edge $-1 $475 -9.4794212827561832 $476 9.4794212827561832 $387 $477 forward 7 unknown #
coedge $-1 $313 $478 $479 $480 forward $138 $-1 #
coedge $-1 $481 $314 $313 $391 reversed $237 $-1 #
edge $-1 $482 -37.670967711945067 $316 7.4703669155507573 $390 $329 forward 7 unknown #
straight-curve $-1 -58.48323007904294 -7.4703669155507573 34.181752201353696 0 0 1 I I #
point $-1 -58.48323007904294 -7.4703669155507573 9.4794212827561832 #
straight-curve $-1 -58.48323007904294 -6.5313005464555047 4.6590058547629614 0 1 0 I I #
point $-1 -58.48323007904294 -7.4703669155507573 4.6590058547629587 #
coedge $-1 $323 $481 $483 $484 reversed $237 $-1 #
coedge $-1 $485 $326 $323 $398 forward $404 $-1 #
edge $-1 $328 -9.4794212827561832 $486 9.4794212827561832 $323 $487 forward 7 unknown #
face $-1 $488 $489 $17 $-1 $490 reversed single #
plane-surface $-1 -58.48323007904294 0 0 1 0 0 0 0 -1 forward_v I I I I #
coedge $-1 $491 $325 $468 $492 forward $138 $-1 #
edge $-1 $405 -21.423628837872666 $475 -11.071048910272136 $325 $493 forward 7 unknown #
coedge $-1 $326 $485 $472 $494 forward $404 $-1 #
loop $-1 $-1 $403 $495 #
vertex $-1 $494 $496 #
straight-curve $-1 0 -37.670967711945067 9.4794212827561832 1 0 0 I I #
point $-1 -58.48323007904294 -37.670967711945067 9.4794212827561832 #
face $-1 $497 $498 $18 $-1 $499 forward single #
loop $-1 $-1 $500 $330 #
plane-surface $-1 -43.406706240613659 -32.494677748144802 0 1 0 0 0 0 -1 forward_v I I I I #
coedge $-1 $340 $501 $333 $414 forward $331 $-1 #
coedge $-1 $413 $333 $502 $503 reversed $244 $-1 #
coedge $-1 $333 $412 $415 $504 forward $244 $-1 #
edge $-1 $505 19.806549214271044 $506 22.936963494855853 $411 $507 forward 7 unknown #
coedge $-1 $417 $334 $413 $504 reversed $246 $-1 #
edge $-1 $506 0.93906636909525254 $341 12.123534723815759 $340 $508 forward 7 unknown #
coedge $-1 $335 $415 $420 $509 reversed $246 $-1 #
vertex $-1 $509 $510 #
straight-curve $-1 -58.483230079042926 -18.654835270271263 4.6590058547629809 -0.54463902268945019 0 -0.83867057594974714 I I #
coedge $-1 $502 $337 $417 $509 forward $422 $-1 #
coedge $-1 $337 $511 $339 $425 reversed $422 $-1 #
loop $-1 $-1 $502 $512 #
straight-curve $-1 -58.48323007904294 -18.654835270271263 34.181752201353696 0 0 -1 I I #
coedge $-1 $513 $339 $514 $515 forward $331 $-1 #
edge $-1 $342 18.654835270271263 $516 37.670967711945067 $421 $517 forward 7 unknown #
point $-1 -55.352815798458131 -18.654835270271263 9.4794212827561832 #
point $-1 -58.48323007904294 -18.654835270271263 9.4794212827561832 #
point $-1 -55.104695679791476 -15.459272883208261 5.8916251157281927 #
face $-1 $518 $519 $19 $-1 $520 forward single #
loop $-1 $-1 $521 $346 #
plane-surface $-1 -156.57955858662797 -7.4703669155507573 68.363504402707392 0 -1 0 0.83867057594974714 0 -0.54463902268945019 forward_v I I I I #
coedge $-1 $433 $348 $522 $523 forward $256 $-1 #
coedge $-1 $348 $432 $524 $525 reversed $256 $-1 #
coedge $-1 $526 $527 $348 $435 forward $519 $-1 #
edge $-1 $528 -22.936963494855853 $529 -19.806549214271044 $434 $530 forward 7 unknown #
edge $-1 $531 1 $531 0 $349 $-1 forward 7 unknown #
vertex $-1 $350 $532 #
ellipse-curve $-1 -55.943366255741225 -15.459272883208261 6.4362641384176413 -0.83867057594974714 0 0.54463902268945019 0.54463902268945019 0 0.83867057594974714 1 I I #
point $-1 -56.373383916061094 -15.459272883208261 7.9078841447093255 #
point $-1 -55.104695679791476 -10.665929302613758 5.8916251157281927 #
coedge $-1 $533 $522 $527 $534 reversed $355 $-1 #
face $-1 $535 $536 $16 $-1 $537 reversed single #
loop $-1 $-1 $455 $360 #
plane-surface $-1 -58.48323007904294 0 0 1 0 0 0 0 -1 forward_v I I I I #
coedge $-1 $371 $361 $538 $539 forward $122 $-1 #
coedge $-1 $363 $376 $540 $541 forward $217 $-1 #
coedge $-1 $540 $538 $365 $448 forward $542 $-1 #
edge $-1 $450 -9.4794212827561832 $449 9.4794212827561832 $447 $543 forward 7 unknown #
vertex $-1 $448 $544 #
vertex $-1 $539 $545 #
coedge $-1 $372 $377 $370 $452 reversed $443 $-1 #
edge $-1 $374 -9.4794212827561832 $379 9.4794212827561832 $451 $546 forward 7 unknown #
coedge $-1 $547 $548 $371 $454 reversed $536 $-1 #
edge $-1 $549 -58.48323007904294 $456 58.48323007904294 $453 $550 forward 7 unknown #
coedge $-1 $377 $372 $548 $551 forward $443 $-1 #
vertex $-1 $454 $552 #
straight-curve $-1 -58.48323007904294 0 9.4794212827561832 0 -1 0 I I #
point $-1 -58.48323007904294 -37.670967711945067 9.4794212827561832 #
coedge $-1 $548 $547 $376 $460 reversed $536 $-1 #
edge $-1 $461 -58.48323007904294 $553 58.48323007904294 $459 $554 forward 7 unknown #
vertex $-1 $460 $555 #
straight-curve $-1 -58.48323007904294 0 -9.4794212827561832 0 1 0 I I #
point $-1 -58.48323007904294 -37.670967711945067 -9.4794212827561832 #
face $-1 $495 $556 $17 $-1 $557 reversed single #
loop $-1 $-1 $558 $381 #
plane-surface $-1 0 -37.670967711945067 0 0 1 0 0 0 1 forward_v I I I I #
coedge $-1 $559 $560 $558 $561 reversed $382 $-1 #
coedge $-1 $387 $384 $401 $492 reversed $310 $-1 #
coedge $-1 $384 $387 $562 $563 reversed $310 $-1 #
coedge $-1 $560 $559 $384 $471 forward $382 $-1 #
edge $-1 $564 -9.4794212827561832 $565 9.4794212827561832 $470 $566 forward 7 unknown #
coedge $-1 $386 $385 $403 $494 reversed $223 $-1 #
coedge $-1 $567 $562 $386 $474 forward $556 $-1 #
edge $-1 $476 11.071048910272136 $568 21.423628837872666 $473 $569 forward 7 unknown #
vertex $-1 $402 $570 #
vertex $-1 $474 $571 #
straight-curve $-1 -43.406706240613659 -27.318387784344537 0 0 0 -1 I I #
coedge $-1 $389 $572 $573 $574 forward $138 $-1 #
coedge $-1 $575 $576 $389 $480 reversed $489 $-1 #
edge $-1 $577 -58.48323007904294 $482 58.48323007904294 $479 $578 forward 7 unknown #
coedge $-1 $396 $390 $576 $579 forward $237 $-1 #
vertex $-1 $480 $580 #
coedge $-1 $581 $567 $396 $484 forward $556 $-1 #
edge $-1 $486 -37.670967711945067 $582 37.670967711945067 $396 $583 forward 7 unknown #
coedge $-1 $403 $397 $567 $584 reversed $404 $-1 #
vertex $-1 $484 $585 #
straight-curve $-1 -58.48323007904294 -37.670967711945067 0 0 0 -1 I I #
face $-1 $-1 $586 $17 $-1 $587 reversed single #
loop $-1 $-1 $575 $399 #
plane-surface $-1 0 37.670967711945067 0 0 -1 0 0 0 -1 forward_v I I I I #
coedge $-1 $572 $401 $559 $588 forward $138 $-1 #
edge $-1 $475 -22.673932802077601 $564 -18.791614074994513 $401 $589 forward 7 unknown #
straight-curve $-1 -43.406706240613659 -16.247338874072401 9.4794212827561832 0 1 0 I I #
edge $-1 $568 -9.4794212827561832 $405 9.4794212827561832 $403 $590 forward 7 unknown #
face $-1 $324 $404 $17 $-1 $466 reversed single #
point $-1 -43.406706240613659 -37.670967711945067 9.4794212827561832 #
face $-1 $591 $592 $18 $-1 $593 forward single #
loop $-1 $-1 $594 $408 #
plane-surface $-1 -41.465546877072114 -27.318387784344537 0 0 -1 0 0 0 -1 forward_v I I I I #
coedge $-1 $595 $596 $597 $598 reversed $409 $-1 #
coedge $-1 $411 $599 $600 $601 forward $331 $-1 #
coedge $-1 $600 $420 $412 $503 forward $422 $-1 #
edge $-1 $602 -29.522746346590736 $505 -24.702330918597511 $502 $603 forward 7 unknown #
edge $-1 $602 -2.636201369357039e-014 $506 5.7476863577029063 $413 $604 forward 7 unknown #
vertex $-1 $503 $605 #
vertex $-1 $416 $606 #
straight-curve $-1 -78.289779293313984 -7.4703669155507573 9.479421282756185 1 0 0 I I #
straight-curve $-1 -55.352815798458131 -6.5313005464555047 9.4794212827561832 0 -1 0 I I #
edge $-1 $418 -12.123534723815759 $602 -0.93906636909525254 $420 $607 forward 7 unknown #
point $-1 -58.48323007904294 -18.654835270271263 4.6590058547629587 #
coedge $-1 $421 $608 $609 $610 reversed $422 $-1 #
face $-1 $611 $422 $18 $-1 $612 reversed single #
coedge $-1 $613 $424 $595 $614 forward $331 $-1 #
coedge $-1 $609 $615 $424 $515 reversed $616 $-1 #
edge $-1 $516 -58.48323007904294 $617 -43.406706240613659 $514 $618 forward 7 unknown #
vertex $-1 $425 $619 #
straight-curve $-1 -58.48323007904294 0 9.4794212827561832 0 -1 0 I I #
face $-1 $620 $621 $19 $-1 $622 forward single #
loop $-1 $-1 $623 $429 #
plane-surface $-1 0 0 9.4794212827561832 0 0 1 1 0 0 forward_v I I I I #
coedge $-1 $624 $625 $623 $626 reversed $430 $-1 #
coedge $-1 $441 $627 $432 $523 reversed $355 $-1 #
edge $-1 $528 -5.7476863577029063 $628 2.636201369357039e-014 $432 $629 forward 7 unknown #
coedge $-1 $630 $631 $433 $525 forward $632 $-1 #
edge $-1 $529 24.702330918597511 $628 29.522746346590736 $524 $633 forward 7 unknown #
coedge $-1 $634 $434 $631 $635 forward $519 $-1 #
coedge $-1 $434 $623 $441 $534 forward $519 $-1 #
vertex $-1 $534 $636 #
vertex $-1 $635 $637 #
straight-curve $-1 -78.289779293313984 -18.654835270271263 9.479421282756185 -1 0 0 I I #
vertex $-1 $436 $638 #
point $-1 -55.398727233051773 -15.459272883208261 7.2749347143673884 #
coedge $-1 $627 $441 $625 $639 reversed $355 $-1 #
edge $-1 $640 0.93906636909525254 $528 12.123534723815759 $527 $641 forward 7 unknown #
face $-1 $-1 $542 $16 $-1 $642 reversed single #
loop $-1 $-1 $547 $442 #
plane-surface $-1 0 37.670967711945067 0 0 -1 0 0 0 -1 forward_v I I I I #
coedge $-1 $447 $643 $445 $539 reversed $542 $-1 #
edge $-1 $450 -37.670967711945067 $549 37.670967711945067 $538 $644 forward 7 unknown #
coedge $-1 $643 $447 $446 $541 reversed $542 $-1 #
edge $-1 $553 -37.670967711945067 $449 37.670967711945067 $540 $645 forward 7 unknown #
loop $-1 $-1 $447 $535 #
straight-curve $-1 58.48323007904294 -37.670967711945067 0 0 0 -1 I I #
point $-1 58.48323007904294 -37.670967711945067 -9.4794212827561832 #
point $-1 58.48323007904294 -37.670967711945067 9.4794212827561832 #
straight-curve $-1 -58.48323007904294 -37.670967711945067 0 0 0 -1 I I #
coedge $-1 $459 $453 $643 $646 forward $536 $-1 #
coedge $-1 $453 $459 $455 $551 reversed $536 $-1 #
vertex $-1 $539 $647 #
straight-curve $-1 0 37.670967711945067 9.4794212827561832 -1 0 0 I I #
edge $-1 $456 -9.4794212827561832 $461 9.4794212827561832 $548 $648 forward 7 unknown #
point $-1 -58.48323007904294 37.670967711945067 9.4794212827561832 #
vertex $-1 $541 $649 #
straight-curve $-1 0 37.670967711945067 -9.4794212827561832 1 0 0 I I #
point $-1 -58.48323007904294 37.670967711945067 -9.4794212827561832 #
loop $-1 $-1 $473 $464 #
plane-surface $-1 0 0 -9.4794212827561832 0 0 1 1 0 0 forward_v I I I I #
coedge $-1 $650 $651 $467 $561 forward $465 $-1 #
coedge $-1 $470 $467 $491 $588 reversed $382 $-1 #
coedge $-1 $467 $470 $652 $653 reversed $382 $-1 #
edge $-1 $654 -9.4794212827561832 $655 9.4794212827561832 $558 $656 forward 7 unknown #
coedge $-1 $473 $652 $469 $563 forward $556 $-1 #
edge $-1 $565 18.791614074994513 $476 22.673932802077601 $562 $657 forward 7 unknown #
vertex $-1 $492 $658 #
vertex $-1 $563 $659 #
straight-curve $-1 -39.52438751353057 -27.318387784344537 0 0 0 -1 I I #
coedge $-1 $483 $473 $485 $584 forward $556 $-1 #
vertex $-1 $584 $660 #
straight-curve $-1 -43.406706240613659 -16.247338874072401 -9.4794212827561832 0 -1 0 I I #
point $-1 -43.406706240613659 -27.318387784344537 9.4794212827561832 #
point $-1 -43.406706240613659 -27.318387784344537 -9.4794212827561832 #
coedge $-1 $478 $491 $651 $661 forward $138 $-1 #
coedge $-1 $662 $663 $478 $574 reversed $586 $-1 #
edge $-1 $664 -37.670967711945067 $577 37.670967711945067 $573 $665 forward 7 unknown #
coedge $-1 $666 $479 $663 $667 forward $489 $-1 #
coedge $-1 $479 $666 $481 $579 reversed $489 $-1 #
vertex $-1 $574 $668 #
straight-curve $-1 0 37.670967711945067 9.4794212827561832 -1 0 0 I I #
edge $-1 $482 -9.4794212827561832 $582 9.4794212827561832 $576 $669 forward 7 unknown #
point $-1 -58.48323007904294 37.670967711945067 9.4794212827561832 #
coedge $-1 $670 $483 $666 $671 forward $556 $-1 #
vertex $-1 $671 $672 #
straight-curve $-1 -58.48323007904294 0 -9.4794212827561832 0 1 0 I I #
edge $-1 $568 43.406706240613659 $486 58.48323007904294 $485 $673 forward 7 unknown #
point $-1 -58.48323007904294 -37.670967711945067 -9.4794212827561832 #
loop $-1 $-1 $662 $488 #
plane-surface $-1 58.48323007904294 0 0 -1 0 0 0 0 1 forward_v I I I I #
edge $-1 $564 11.071048910272136 $654 21.423628837872666 $491 $674 forward 7 unknown #
straight-curve $-1 -20.732773438536057 -27.318387784344537 9.4794212827561832 1 0 0 I I #
straight-curve $-1 -43.406706240613659 -37.670967711945067 0 0 0 1 I I #
face $-1 $675 $676 $18 $-1 $677 reversed single #
loop $-1 $-1 $678 $497 #
plane-surface $-1 -39.52438751353057 -32.494677748144802 0 -1 0 0 0 0 1 forward_v I I I I #
coedge $-1 $679 $680 $681 $682 reversed $498 $-1 #
coedge $-1 $683 $500 $513 $614 reversed $409 $-1 #
coedge $-1 $500 $683 $684 $685 reversed $409 $-1 #
coedge $-1 $680 $679 $500 $598 forward $498 $-1 #
edge $-1 $686 -9.4794212827561832 $687 9.4794212827561832 $597 $688 forward 7 unknown #
coedge $-1 $501 $689 $690 $691 forward $331 $-1 #
coedge $-1 $692 $502 $501 $601 reversed $422 $-1 #
edge $-1 $693 -37.670967711945067 $505 7.4703669155507573 $600 $517 forward 7 unknown #
vertex $-1 $509 $694 #
straight-curve $-1 -58.48323007904294 -7.4703669155507573 34.181752201353696 0 0 1 I I #
straight-curve $-1 -58.483230079042926 -7.4703669155507573 4.6590058547629809 0.54463902268945019 0 0.83867057594974714 I I #
point $-1 -58.48323007904294 -7.4703669155507573 9.4794212827561832 #
point $-1 -55.352815798458131 -7.4703669155507573 9.4794212827561832 #
straight-curve $-1 -58.48323007904294 -6.5313005464555047 4.6590058547629614 0 1 0 I I #
coedge $-1 $511 $692 $695 $696 reversed $422 $-1 #
coedge $-1 $697 $514 $511 $610 forward $616 $-1 #
edge $-1 $516 -9.4794212827561832 $698 9.4794212827561832 $511 $699 forward 7 unknown #
face $-1 $700 $701 $18 $-1 $702 reversed single #
plane-surface $-1 -58.48323007904294 0 0 1 0 0 0 0 -1 forward_v I I I I #
coedge $-1 $703 $513 $679 $704 forward $331 $-1 #
edge $-1 $617 -21.423628837872666 $686 -11.071048910272136 $513 $705 forward 7 unknown #
coedge $-1 $514 $697 $683 $706 forward $616 $-1 #
loop $-1 $-1 $615 $707 #
vertex $-1 $706 $708 #
straight-curve $-1 0 -37.670967711945067 9.4794212827561832 1 0 0 I I #
point $-1 -58.48323007904294 -37.670967711945067 9.4794212827561832 #
face $-1 $709 $710 $19 $-1 $711 forward single #
loop $-1 $-1 $712 $518 #
plane-surface $-1 -43.406706240613659 -32.494677748144802 0 1 0 0 0 0 -1 forward_v I I I I #
coedge $-1 $527 $713 $521 $626 forward $519 $-1 #
coedge $-1 $625 $521 $714 $715 reversed $430 $-1 #
coedge $-1 $521 $624 $533 $639 forward $430 $-1 #
edge $-1 $716 19.806549214271044 $640 22.936963494855853 $623 $717 forward 7 unknown #
coedge $-1 $522 $533 $630 $718 reversed $355 $-1 #
vertex $-1 $718 $719 #
straight-curve $-1 -58.483230079042926 -18.654835270271263 4.6590058547629809 -0.54463902268945019 0 -0.83867057594974714 I I #
coedge $-1 $714 $524 $627 $718 forward $632 $-1 #
coedge $-1 $524 $720 $526 $635 reversed $632 $-1 #
loop $-1 $-1 $714 $721 #
straight-curve $-1 -58.48323007904294 -18.654835270271263 34.181752201353696 0 0 -1 I I #
coedge $-1 $722 $526 $723 $724 forward $519 $-1 #
edge $-1 $529 18.654835270271263 $725 37.670967711945067 $631 $726 forward 7 unknown #
point $-1 -55.352815798458131 -18.654835270271263 9.4794212827561832 #
point $-1 -58.48323007904294 -18.654835270271263 9.4794212827561832 #
point $-1 -55.104695679791476 -15.459272883208261 5.8916251157281927 #
edge $-1 $727 -2.636201369357039e-014 $640 5.7476863577029063 $625 $728 forward 7 unknown #
vertex $-1 $534 $729 #
straight-curve $-1 -55.352815798458131 -6.5313005464555047 9.4794212827561832 0 -1 0 I I #
plane-surface $-1 58.48323007904294 0 0 -1 0 0 0 0 1 forward_v I I I I #
coedge $-1 $538 $540 $547 $646 reversed $542 $-1 #
straight-curve $-1 58.48323007904294 0 9.4794212827561832 0 1 0 I I #
straight-curve $-1 58.48323007904294 0 -9.4794212827561832 0 -1 0 I I #
edge $-1 $549 -9.4794212827561832 $553 9.4794212827561832 $643 $730 forward 7 unknown #
point $-1 58.48323007904294 37.670967711945067 9.4794212827561832 #
straight-curve $-1 -58.48323007904294 37.670967711945067 0 0 0 -1 I I #
point $-1 58.48323007904294 37.670967711945067 -9.4794212827561832 #
coedge $-1 $731 $558 $732 $733 reversed $465 $-1 #
coedge $-1 $558 $731 $572 $661 reversed $465 $-1 #
coedge $-1 $562 $732 $560 $653 forward $556 $-1 #
edge $-1 $655 -21.423628837872666 $565 -11.071048910272136 $652 $734 forward 7 unknown #
vertex $-1 $661 $735 #
vertex $-1 $561 $736 #
straight-curve $-1 -39.52438751353057 -37.670967711945067 0 0 0 -1 I I #
straight-curve $-1 -20.732773438536057 -27.318387784344537 -9.4794212827561832 -1 0 0 I I #
point $-1 -39.52438751353057 -27.318387784344537 9.4794212827561832 #
point $-1 -39.52438751353057 -27.318387784344537 -9.4794212827561832 #
point $-1 -43.406706240613659 -37.670967711945067 -9.4794212827561832 #
edge $-1 $654 -39.52438751353057 $664 58.48323007904294 $651 $406 forward 7 unknown #
coedge $-1 $737 $573 $731 $738 forward $586 $-1 #
coedge $-1 $573 $737 $575 $667 reversed $586 $-1 #
vertex $-1 $574 $739 #
straight-curve $-1 58.48323007904294 0 9.4794212827561832 0 1 0 I I #
coedge $-1 $576 $575 $581 $671 reversed $489 $-1 #
edge $-1 $577 -9.4794212827561832 $740 9.4794212827561832 $663 $741 forward 7 unknown #
point $-1 58.48323007904294 37.670967711945067 9.4794212827561832 #
straight-curve $-1 -58.48323007904294 37.670967711945067 0 0 0 -1 I I #
coedge $-1 $732 $581 $737 $742 forward $556 $-1 #
edge $-1 $582 -58.48323007904294 $740 58.48323007904294 $666 $743 forward 7 unknown #
point $-1 -58.48323007904294 37.670967711945067 -9.4794212827561832 #
straight-curve $-1 0 -37.670967711945067 -9.4794212827561832 -1 0 0 I I #
straight-curve $-1 -39.52438751353057 -16.247338874072401 9.4794212827561832 0 -1 0 I I #
face $-1 $707 $744 $18 $-1 $745 reversed single #
loop $-1 $-1 $746 $591 #
plane-surface $-1 0 -37.670967711945067 0 0 1 0 0 0 1 forward_v I I I I #
coedge $-1 $747 $748 $746 $749 reversed $592 $-1 #
coedge $-1 $597 $594 $613 $704 reversed $498 $-1 #
coedge $-1 $594 $597 $750 $751 reversed $498 $-1 #
coedge $-1 $748 $747 $594 $682 forward $592 $-1 #
edge $-1 $752 -9.4794212827561832 $753 9.4794212827561832 $681 $754 forward 7 unknown #
coedge $-1 $596 $595 $615 $706 reversed $409 $-1 #
coedge $-1 $755 $750 $596 $685 forward $744 $-1 #
edge $-1 $687 11.071048910272136 $756 21.423628837872666 $684 $757 forward 7 unknown #
vertex $-1 $614 $758 #
vertex $-1 $685 $759 #
straight-curve $-1 -43.406706240613659 -27.318387784344537 0 0 0 -1 I I #
coedge $-1 $599 $760 $761 $762 forward $331 $-1 #
coedge $-1 $763 $764 $599 $691 reversed $701 $-1 #
edge $-1 $765 -58.48323007904294 $693 58.48323007904294 $690 $766 forward 7 unknown #
coedge $-1 $608 $600 $764 $767 forward $422 $-1 #
vertex $-1 $691 $768 #
point $-1 -58.48323007904294 -7.4703669155507573 4.6590058547629587 #
coedge $-1 $769 $755 $608 $696 forward $744 $-1 #
edge $-1 $698 -37.670967711945067 $770 37.670967711945067 $608 $771 forward 7 unknown #
coedge $-1 $615 $609 $755 $772 reversed $616 $-1 #
vertex $-1 $696 $773 #
straight-curve $-1 -58.48323007904294 -37.670967711945067 0 0 0 -1 I I #
face $-1 $-1 $774 $18 $-1 $775 reversed single #
loop $-1 $-1 $763 $611 #
plane-surface $-1 0 37.670967711945067 0 0 -1 0 0 0 -1 forward_v I I I I #
coedge $-1 $760 $613 $747 $776 forward $331 $-1 #
edge $-1 $686 -22.673932802077601 $752 -18.791614074994513 $613 $777 forward 7 unknown #
straight-curve $-1 -43.406706240613659 -16.247338874072401 9.4794212827561832 0 1 0 I I #
edge $-1 $756 -9.4794212827561832 $617 9.4794212827561832 $615 $778 forward 7 unknown #
face $-1 $512 $616 $18 $-1 $677 reversed single #
point $-1 -43.406706240613659 -37.670967711945067 9.4794212827561832 #
face $-1 $779 $780 $19 $-1 $781 forward single #
loop $-1 $-1 $782 $620 #
plane-surface $-1 -41.465546877072114 -27.318387784344537 0 0 -1 0 0 0 -1 forward_v I I I I #
coedge $-1 $783 $784 $785 $786 reversed $621 $-1 #
coedge $-1 $623 $787 $788 $789 forward $519 $-1 #
coedge $-1 $788 $630 $624 $715 forward $632 $-1 #
edge $-1 $727 -29.522746346590736 $716 -24.702330918597511 $714 $790 forward 7 unknown #
vertex $-1 $715 $791 #
straight-curve $-1 -78.289779293313984 -7.4703669155507573 9.479421282756185 1 0 0 I I #
edge $-1 $628 -12.123534723815759 $727 -0.93906636909525254 $630 $792 forward 7 unknown #
point $-1 -58.48323007904294 -18.654835270271263 4.6590058547629587 #
coedge $-1 $631 $793 $794 $795 reversed $632 $-1 #
face $-1 $796 $632 $19 $-1 $797 reversed single #
coedge $-1 $798 $634 $783 $799 forward $519 $-1 #
coedge $-1 $794 $800 $634 $724 reversed $801 $-1 #
edge $-1 $725 -58.48323007904294 $802 -43.406706240613659 $723 $803 forward 7 unknown #
vertex $-1 $635 $804 #
straight-curve $-1 -58.48323007904294 0 9.4794212827561832 0 -1 0 I I #
vertex $-1 $718 $805 #
straight-curve $-1 -58.483230079042926 -7.4703669155507573 4.6590058547629809 0.54463902268945019 0 0.83867057594974714 I I #
point $-1 -55.352815798458131 -7.4703669155507573 9.4794212827561832 #
straight-curve $-1 58.48323007904294 37.670967711945067 0 0 0 -1 I I #
coedge $-1 $651 $650 $662 $738 reversed $465 $-1 #
coedge $-1 $652 $670 $650 $733 forward $556 $-1 #
edge $-1 $806 -58.48323007904294 $655 39.52438751353057 $650 $673 forward 7 unknown #
straight-curve $-1 -39.52438751353057 -16.247338874072401 -9.4794212827561832 0 1 0 I I #
point $-1 -39.52438751353057 -37.670967711945067 9.4794212827561832 #
point $-1 -39.52438751353057 -37.670967711945067 -9.4794212827561832 #
coedge $-1 $663 $662 $670 $742 reversed $586 $-1 #
edge $-1 $664 -9.4794212827561832 $806 9.4794212827561832 $662 $807 forward 7 unknown #
point $-1 58.48323007904294 -37.670967711945067 9.4794212827561832 #
vertex $-1 $742 $808 #
straight-curve $-1 58.48323007904294 37.670967711945067 0 0 0 -1 I I #
edge $-1 $740 -37.670967711945067 $806 37.670967711945067 $737 $809 forward 7 unknown #
straight-curve $-1 0 37.670967711945067 -9.4794212827561832 1 0 0 I I #
loop $-1 $-1 $684 $675 #
plane-surface $-1 0 0 -9.4794212827561832 0 0 1 1 0 0 forward_v I I I I #
coedge $-1 $810 $811 $678 $749 forward $676 $-1 #
coedge $-1 $681 $678 $703 $776 reversed $592 $-1 #
coedge $-1 $678 $681 $812 $813 reversed $592 $-1 #
edge $-1 $814 -9.4794212827561832 $815 9.4794212827561832 $746 $816 forward 7 unknown #
coedge $-1 $684 $812 $680 $751 forward $744 $-1 #
edge $-1 $753 18.791614074994513 $687 22.673932802077601 $750 $817 forward 7 unknown #
vertex $-1 $704 $818 #
vertex $-1 $751 $819 #
straight-curve $-1 -39.52438751353057 -27.318387784344537 0 0 0 -1 I I #
coedge $-1 $695 $684 $697 $772 forward $744 $-1 #
vertex $-1 $772 $820 #
straight-curve $-1 -43.406706240613659 -16.247338874072401 -9.4794212827561832 0 -1 0 I I #
point $-1 -43.406706240613659 -27.318387784344537 9.4794212827561832 #
point $-1 -43.406706240613659 -27.318387784344537 -9.4794212827561832 #
coedge $-1 $689 $703 $811 $821 forward $331 $-1 #
coedge $-1 $822 $823 $689 $762 reversed $774 $-1 #
edge $-1 $824 -37.670967711945067 $765 37.670967711945067 $761 $825 forward 7 unknown #
coedge $-1 $826 $690 $823 $827 forward $701 $-1 #
coedge $-1 $690 $826 $692 $767 reversed $701 $-1 #
vertex $-1 $762 $828 #
straight-curve $-1 0 37.670967711945067 9.4794212827561832 -1 0 0 I I #
edge $-1 $693 -9.4794212827561832 $770 9.4794212827561832 $764 $829 forward 7 unknown #
point $-1 -58.48323007904294 37.670967711945067 9.4794212827561832 #
coedge $-1 $830 $695 $826 $831 forward $744 $-1 #
vertex $-1 $831 $832 #
straight-curve $-1 -58.48323007904294 0 -9.4794212827561832 0 1 0 I I #
edge $-1 $756 43.406706240613659 $698 58.48323007904294 $697 $833 forward 7 unknown #
point $-1 -58.48323007904294 -37.670967711945067 -9.4794212827561832 #
loop $-1 $-1 $822 $700 #
plane-surface $-1 58.48323007904294 0 0 -1 0 0 0 0 1 forward_v I I I I #
edge $-1 $752 11.071048910272136 $814 21.423628837872666 $703 $834 forward 7 unknown #
straight-curve $-1 -20.732773438536057 -27.318387784344537 9.4794212827561832 1 0 0 I I #
straight-curve $-1 -43.406706240613659 -37.670967711945067 0 0 0 1 I I #
face $-1 $835 $836 $19 $-1 $837 reversed single #
loop $-1 $-1 $838 $709 #
plane-surface $-1 -39.52438751353057 -32.494677748144802 0 -1 0 0 0 0 1 forward_v I I I I #
coedge $-1 $839 $840 $841 $842 reversed $710 $-1 #
coedge $-1 $843 $712 $722 $799 reversed $621 $-1 #
coedge $-1 $712 $843 $844 $845 reversed $621 $-1 #
coedge $-1 $840 $839 $712 $786 forward $710 $-1 #
edge $-1 $846 -9.4794212827561832 $847 9.4794212827561832 $785 $848 forward 7 unknown #
coedge $-1 $713 $849 $850 $851 forward $519 $-1 #
coedge $-1 $852 $714 $713 $789 reversed $632 $-1 #
edge $-1 $853 -37.670967711945067 $716 7.4703669155507573 $788 $726 forward 7 unknown #
straight-curve $-1 -58.48323007904294 -7.4703669155507573 34.181752201353696 0 0 1 I I #
point $-1 -58.48323007904294 -7.4703669155507573 9.4794212827561832 #
straight-curve $-1 -58.48323007904294 -6.5313005464555047 4.6590058547629614 0 1 0 I I #
coedge $-1 $720 $852 $854 $855 reversed $632 $-1 #
coedge $-1 $856 $723 $720 $795 forward $801 $-1 #
edge $-1 $725 -9.4794212827561832 $857 9.4794212827561832 $720 $858 forward 7 unknown #
face $-1 $859 $860 $19 $-1 $861 reversed single #
plane-surface $-1 -58.48323007904294 0 0 1 0 0 0 0 -1 forward_v I I I I #
coedge $-1 $862 $722 $839 $863 forward $519 $-1 #
edge $-1 $802 -21.423628837872666 $846 -11.071048910272136 $722 $864 forward 7 unknown #
coedge $-1 $723 $856 $843 $865 forward $801 $-1 #
loop $-1 $-1 $800 $866 #
vertex $-1 $865 $867 #
straight-curve $-1 0 -37.670967711945067 9.4794212827561832 1 0 0 I I #
point $-1 -58.48323007904294 -37.670967711945067 9.4794212827561832 #
point $-1 -58.48323007904294 -7.4703669155507573 4.6590058547629587 #
vertex $-1 $738 $868 #
straight-curve $-1 58.48323007904294 -37.670967711945067 0 0 0 -1 I I #
point $-1 58.48323007904294 37.670967711945067 -9.4794212827561832 #
straight-curve $-1 58.48323007904294 0 -9.4794212827561832 0 -1 0 I I #
coedge $-1 $869 $746 $870 $871 reversed $676 $-1 #
coedge $-1 $746 $869 $760 $821 reversed $676 $-1 #
coedge $-1 $750 $870 $748 $813 forward $744 $-1 #
edge $-1 $815 -21.423628837872666 $753 -11.071048910272136 $812 $872 forward 7 unknown #
vertex $-1 $821 $873 #
vertex $-1 $749 $874 #
straight-curve $-1 -39.52438751353057 -37.670967711945067 0 0 0 -1 I I #
straight-curve $-1 -20.732773438536057 -27.318387784344537 -9.4794212827561832 -1 0 0 I I #
point $-1 -39.52438751353057 -27.318387784344537 9.4794212827561832 #
point $-1 -39.52438751353057 -27.318387784344537 -9.4794212827561832 #
point $-1 -43.406706240613659 -37.670967711945067 -9.4794212827561832 #
edge $-1 $814 -39.52438751353057 $824 58.48323007904294 $811 $618 forward 7 unknown #
coedge $-1 $875 $761 $869 $876 forward $774 $-1 #
coedge $-1 $761 $875 $763 $827 reversed $774 $-1 #
vertex $-1 $762 $877 #
straight-curve $-1 58.48323007904294 0 9.4794212827561832 0 1 0 I I #
coedge $-1 $764 $763 $769 $831 reversed $701 $-1 #
edge $-1 $765 -9.4794212827561832 $878 9.4794212827561832 $823 $879 forward 7 unknown #
point $-1 58.48323007904294 37.670967711945067 9.4794212827561832 #
straight-curve $-1 -58.48323007904294 37.670967711945067 0 0 0 -1 I I #
coedge $-1 $870 $769 $875 $880 forward $744 $-1 #
edge $-1 $770 -58.48323007904294 $878 58.48323007904294 $826 $881 forward 7 unknown #
point $-1 -58.48323007904294 37.670967711945067 -9.4794212827561832 #
straight-curve $-1 0 -37.670967711945067 -9.4794212827561832 -1 0 0 I I #
straight-curve $-1 -39.52438751353057 -16.247338874072401 9.4794212827561832 0 -1 0 I I #
face $-1 $866 $882 $19 $-1 $883 reversed single #
loop $-1 $-1 $884 $779 #
plane-surface $-1 0 -37.670967711945067 0 0 1 0 0 0 1 forward_v I I I I #
coedge $-1 $885 $886 $884 $887 reversed $780 $-1 #
coedge $-1 $785 $782 $798 $863 reversed $710 $-1 #
coedge $-1 $782 $785 $888 $889 reversed $710 $-1 #
coedge $-1 $886 $885 $782 $842 forward $780 $-1 #
edge $-1 $890 -9.4794212827561832 $891 9.4794212827561832 $841 $892 forward 7 unknown #
coedge $-1 $784 $783 $800 $865 reversed $621 $-1 #
coedge $-1 $893 $888 $784 $845 forward $882 $-1 #
edge $-1 $847 11.071048910272136 $894 21.423628837872666 $844 $895 forward 7 unknown #
vertex $-1 $799 $896 #
vertex $-1 $845 $897 #
straight-curve $-1 -43.406706240613659 -27.318387784344537 0 0 0 -1 I I #
coedge $-1 $787 $898 $899 $900 forward $519 $-1 #
coedge $-1 $901 $902 $787 $851 reversed $860 $-1 #
edge $-1 $903 -58.48323007904294 $853 58.48323007904294 $850 $904 forward 7 unknown #
coedge $-1 $793 $788 $902 $905 forward $632 $-1 #
vertex $-1 $851 $906 #
coedge $-1 $907 $893 $793 $855 forward $882 $-1 #
edge $-1 $857 -37.670967711945067 $908 37.670967711945067 $793 $909 forward 7 unknown #
coedge $-1 $800 $794 $893 $910 reversed $801 $-1 #
vertex $-1 $855 $911 #
straight-curve $-1 -58.48323007904294 -37.670967711945067 0 0 0 -1 I I #
face $-1 $-1 $912 $19 $-1 $913 reversed single #
loop $-1 $-1 $901 $796 #
plane-surface $-1 0 37.670967711945067 0 0 -1 0 0 0 -1 forward_v I I I I #
coedge $-1 $898 $798 $885 $914 forward $519 $-1 #
edge $-1 $846 -22.673932802077601 $890 -18.791614074994513 $798 $915 forward 7 unknown #
straight-curve $-1 -43.406706240613659 -16.247338874072401 9.4794212827561832 0 1 0 I I #
edge $-1 $894 -9.4794212827561832 $802 9.4794212827561832 $800 $916 forward 7 unknown #
face $-1 $721 $801 $19 $-1 $837 reversed single #
point $-1 -43.406706240613659 -37.670967711945067 9.4794212827561832 #
point $-1 58.48323007904294 -37.670967711945067 -9.4794212827561832 #
coedge $-1 $811 $810 $822 $876 reversed $676 $-1 #
coedge $-1 $812 $830 $810 $871 forward $744 $-1 #
edge $-1 $917 -58.48323007904294 $815 39.52438751353057 $810 $833 forward 7 unknown #
straight-curve $-1 -39.52438751353057 -16.247338874072401 -9.4794212827561832 0 1 0 I I #
point $-1 -39.52438751353057 -37.670967711945067 9.4794212827561832 #
point $-1 -39.52438751353057 -37.670967711945067 -9.4794212827561832 #
coedge $-1 $823 $822 $830 $880 reversed $774 $-1 #
edge $-1 $824 -9.4794212827561832 $917 9.4794212827561832 $822 $918 forward 7 unknown #
point $-1 58.48323007904294 -37.670967711945067 9.4794212827561832 #
vertex $-1 $880 $919 #
straight-curve $-1 58.48323007904294 37.670967711945067 0 0 0 -1 I I #
edge $-1 $878 -37.670967711945067 $917 37.670967711945067 $875 $920 forward 7 unknown #
straight-curve $-1 0 37.670967711945067 -9.4794212827561832 1 0 0 I I #
loop $-1 $-1 $844 $835 #
plane-surface $-1 0 0 -9.4794212827561832 0 0 1 1 0 0 forward_v I I I I #
coedge $-1 $921 $922 $838 $887 forward $836 $-1 #
coedge $-1 $841 $838 $862 $914 reversed $780 $-1 #
coedge $-1 $838 $841 $923 $924 reversed $780 $-1 #
edge $-1 $925 -9.4794212827561832 $926 9.4794212827561832 $884 $927 forward 7 unknown #
coedge $-1 $844 $923 $840 $889 forward $882 $-1 #
edge $-1 $891 18.791614074994513 $847 22.673932802077601 $888 $928 forward 7 unknown #
vertex $-1 $863 $929 #
vertex $-1 $889 $930 #
straight-curve $-1 -39.52438751353057 -27.318387784344537 0 0 0 -1 I I #
coedge $-1 $854 $844 $856 $910 forward $882 $-1 #
vertex $-1 $910 $931 #
straight-curve $-1 -43.406706240613659 -16.247338874072401 -9.4794212827561832 0 -1 0 I I #
point $-1 -43.406706240613659 -27.318387784344537 9.4794212827561832 #
point $-1 -43.406706240613659 -27.318387784344537 -9.4794212827561832 #
coedge $-1 $849 $862 $922 $932 forward $519 $-1 #
coedge $-1 $933 $934 $849 $900 reversed $912 $-1 #
edge $-1 $935 -37.670967711945067 $903 37.670967711945067 $899 $936 forward 7 unknown #
coedge $-1 $937 $850 $934 $938 forward $860 $-1 #
coedge $-1 $850 $937 $852 $905 reversed $860 $-1 #
vertex $-1 $900 $939 #
straight-curve $-1 0 37.670967711945067 9.4794212827561832 -1 0 0 I I #
edge $-1 $853 -9.4794212827561832 $908 9.4794212827561832 $902 $940 forward 7 unknown #
point $-1 -58.48323007904294 37.670967711945067 9.4794212827561832 #
coedge $-1 $941 $854 $937 $942 forward $882 $-1 #
vertex $-1 $942 $943 #
straight-curve $-1 -58.48323007904294 0 -9.4794212827561832 0 1 0 I I #
edge $-1 $894 43.406706240613659 $857 58.48323007904294 $856 $944 forward 7 unknown #
point $-1 -58.48323007904294 -37.670967711945067 -9.4794212827561832 #
loop $-1 $-1 $933 $859 #
plane-surface $-1 58.48323007904294 0 0 -1 0 0 0 0 1 forward_v I I I I #
edge $-1 $890 11.071048910272136 $925 21.423628837872666 $862 $945 forward 7 unknown #
straight-curve $-1 -20.732773438536057 -27.318387784344537 9.4794212827561832 1 0 0 I I #
straight-curve $-1 -43.406706240613659 -37.670967711945067 0 0 0 1 I I #
vertex $-1 $876 $946 #
straight-curve $-1 58.48323007904294 -37.670967711945067 0 0 0 -1 I I #
point $-1 58.48323007904294 37.670967711945067 -9.4794212827561832 #
straight-curve $-1 58.48323007904294 0 -9.4794212827561832 0 -1 0 I I #
coedge $-1 $947 $884 $948 $949 reversed $836 $-1 #
coedge $-1 $884 $947 $898 $932 reversed $836 $-1 #
coedge $-1 $888 $948 $886 $924 forward $882 $-1 #
edge $-1 $926 -21.423628837872666 $891 -11.071048910272136 $923 $950 forward 7 unknown #
vertex $-1 $932 $951 #
vertex $-1 $887 $952 #
straight-curve $-1 -39.52438751353057 -37.670967711945067 0 0 0 -1 I I #
straight-curve $-1 -20.732773438536057 -27.318387784344537 -9.4794212827561832 -1 0 0 I I #
point $-1 -39.52438751353057 -27.318387784344537 9.4794212827561832 #
point $-1 -39.52438751353057 -27.318387784344537 -9.4794212827561832 #
point $-1 -43.406706240613659 -37.670967711945067 -9.4794212827561832 #
edge $-1 $925 -39.52438751353057 $935 58.48323007904294 $922 $803 forward 7 unknown #
coedge $-1 $953 $899 $947 $954 forward $912 $-1 #
coedge $-1 $899 $953 $901 $938 reversed $912 $-1 #
vertex $-1 $900 $955 #
straight-curve $-1 58.48323007904294 0 9.4794212827561832 0 1 0 I I #
coedge $-1 $902 $901 $907 $942 reversed $860 $-1 #
edge $-1 $903 -9.4794212827561832 $956 9.4794212827561832 $934 $957 forward 7 unknown #
point $-1 58.48323007904294 37.670967711945067 9.4794212827561832 #
straight-curve $-1 -58.48323007904294 37.670967711945067 0 0 0 -1 I I #
coedge $-1 $948 $907 $953 $958 forward $882 $-1 #
edge $-1 $908 -58.48323007904294 $956 58.48323007904294 $937 $959 forward 7 unknown #
point $-1 -58.48323007904294 37.670967711945067 -9.4794212827561832 #
straight-curve $-1 0 -37.670967711945067 -9.4794212827561832 -1 0 0 I I #
straight-curve $-1 -39.52438751353057 -16.247338874072401 9.4794212827561832 0 -1 0 I I #
point $-1 58.48323007904294 -37.670967711945067 -9.4794212827561832 #
coedge $-1 $922 $921 $933 $954 reversed $836 $-1 #
coedge $-1 $923 $941 $921 $949 forward $882 $-1 #
edge $-1 $960 -58.48323007904294 $926 39.52438751353057 $921 $944 forward 7 unknown #
straight-curve $-1 -39.52438751353057 -16.247338874072401 -9.4794212827561832 0 1 0 I I #
point $-1 -39.52438751353057 -37.670967711945067 9.4794212827561832 #
point $-1 -39.52438751353057 -37.670967711945067 -9.4794212827561832 #
coedge $-1 $934 $933 $941 $958 reversed $912 $-1 #
edge $-1 $935 -9.4794212827561832 $960 9.4794212827561832 $933 $961 forward 7 unknown #
point $-1 58.48323007904294 -37.670967711945067 9.4794212827561832 #
vertex $-1 $958 $962 #
straight-curve $-1 58.48323007904294 37.670967711945067 0 0 0 -1 I I #
edge $-1 $956 -37.670967711945067 $960 37.670967711945067 $953 $963 forward 7 unknown #
straight-curve $-1 0 37.670967711945067 -9.4794212827561832 1 0 0 I I #
vertex $-1 $954 $964 #
straight-curve $-1 58.48323007904294 -37.670967711945067 0 0 0 -1 I I #
point $-1 58.48323007904294 37.670967711945067 -9.4794212827561832 #
straight-curve $-1 58.48323007904294 0 -9.4794212827561832 0 -1 0 I I #
point $-1 58.48323007904294 -37.670967711945067 -9.4794212827561832 #
End-of-ACIS-data 