500 0 8 0           
7 Unknown 11 ACIS 5.0 NT 24 Thu Mar 25 18:13:47 1999 
-1 9.9999999999999995e-007 1e-010 
body $-1 $8 $-1 $9 #
body $-1 $10 $-1 $11 #
body $-1 $12 $-1 $13 #
body $-1 $14 $-1 $15 #
body $-1 $16 $-1 $17 #
body $-1 $18 $-1 $19 #
body $-1 $20 $-1 $21 #
body $-1 $22 $-1 $23 #
lump $-1 $-1 $24 $0 #
transform $-1 1 0 0 0 1 0 0 0 1 74.947355571153906 31.949664038822789 11.727487540114783 1 rotate no_reflect no_shear #
lump $-1 $-1 $25 $1 #
transform $-1 1 0 0 0 1 0 0 0 1 74.947355571153906 31.949664038822789 11.727487540114783 1 rotate no_reflect no_shear #
lump $-1 $-1 $26 $2 #
transform $-1 1 0 0 0 1 0 0 0 1 74.947355571153906 31.949664038822789 11.727487540114783 1 rotate no_reflect no_shear #
lump $-1 $-1 $27 $3 #
transform $-1 1 0 0 0 1 0 0 0 1 74.947355571153906 31.949664038822789 11.727487540114783 1 rotate no_reflect no_shear #
lump $-1 $-1 $28 $4 #
transform $-1 1 0 0 0 1 0 0 0 1 74.947355571153906 31.949664038822789 11.727487540114783 1 rotate no_reflect no_shear #
lump $-1 $-1 $29 $5 #
transform $-1 1 0 0 0 1 0 0 0 1 74.947355571153906 31.949664038822789 11.727487540114783 1 rotate no_reflect no_shear #
lump $-1 $-1 $30 $6 #
transform $-1 1 0 0 0 1 0 0 0 1 74.947355571153906 31.949664038822789 11.727487540114783 1 rotate no_reflect no_shear #
lump $-1 $-1 $31 $7 #
transform $-1 1 0 0 0 1 0 0 0 1 74.947355571153906 31.949664038822789 11.727487540114783 1 rotate no_reflect no_shear #
shell $-1 $-1 $-1 $32 $-1 $8 #
shell $-1 $-1 $-1 $33 $-1 $10 #
shell $-1 $-1 $-1 $34 $-1 $12 #
shell $-1 $-1 $-1 $35 $-1 $14 #
shell $-1 $-1 $-1 $36 $-1 $16 #
shell $-1 $-1 $-1 $37 $-1 $18 #
shell $-1 $-1 $-1 $38 $-1 $20 #
shell $-1 $-1 $-1 $39 $-1 $22 #
face $-1 $40 $41 $24 $-1 $42 forward single #
face $-1 $43 $44 $25 $-1 $45 forward single #
face $-1 $46 $47 $26 $-1 $48 forward single #
face $-1 $49 $50 $27 $-1 $51 reversed single #
face $-1 $52 $53 $28 $-1 $54 forward single #
face $-1 $55 $56 $29 $-1 $57 forward single #
face $-1 $58 $59 $30 $-1 $60 reversed single #
face $-1 $61 $62 $31 $-1 $63 forward single #
face $-1 $64 $65 $24 $-1 $66 reversed single #
loop $-1 $-1 $67 $32 #
plane-surface $-1 0 0 11.727487540114783 0 0 1 1 0 0 forward_v I I I I #
face $-1 $68 $69 $25 $-1 $70 reversed single #
loop $-1 $-1 $71 $33 #
plane-surface $-1 0 -25.225966552766515 -7.7830116900337565 0 0 1 1 0 0 forward_v I I I I #
face $-1 $72 $73 $26 $-1 $74 reversed single #
loop $-1 $-1 $75 $34 #
plane-surface $-1 0 25.353405942652941 11.024416469216289 0 0 1 1 0 0 forward_v I I I I #
face $-1 $76 $77 $27 $-1 $78 reversed single #
loop $-1 $-1 $79 $35 #
plane-surface $-1 122.63318802715651 -2.0795239471047253 213.68846270594662 0 -1 0 -0.84804810408105047 0 -0.52991925155115449 forward_v I I I I #
face $-1 $80 $81 $28 $-1 $82 forward single #
loop $-1 $83 $84 $36 #
cone-surface $-1 73.047245993018009 -6.9065679036704033 9.1415683871125317 -0.84804810408105047 0 -0.52991925155115449 0.26495962577557725 0 -0.42402405204052523 1 I I 0 1 0.5 forward I I I I #
face $-1 $85 $86 $29 $-1 $87 forward single #
loop $-1 $88 $89 $37 #
cone-surface $-1 73.047245993018009 -4.0103415297309972 9.1415683871125317 -0.84804810408105047 0 -0.52991925155115449 0.26495962577557725 0 -0.42402405204052523 1 I I 0 1 0.5 forward I I I I #
face $-1 $90 $91 $30 $-1 $92 reversed single #
loop $-1 $-1 $93 $38 #
plane-surface $-1 -165.15624576966184 -18.502269066710241 126.36732250670109 0 1 0 -0.6018150307709319 0 0.79863550430605224 forward_v I I I I #
face $-1 $94 $95 $31 $-1 $96 forward single #
loop $-1 $97 $98 $39 #
cone-surface $-1 -70.952624630549423 -14.805798104660923 8.3560910084325979 0.6018150307709319 0 -0.79863550430605224 0.79863550430605224 0 0.6018150307709319 1 I I 0 1 1 forward I I I I #
face $-1 $99 $100 $24 $-1 $101 reversed single #
loop $-1 $-1 $102 $40 #
plane-surface $-1 0 0 -11.727487540114783 0 0 1 1 0 0 forward_v I I I I #
coedge $-1 $103 $104 $105 $106 forward $41 $-1 #
face $-1 $107 $108 $25 $-1 $109 reversed single #
loop $-1 $-1 $110 $43 #
plane-surface $-1 0 -18.502269066710241 -9.7552496150742698 0 -1 0 0 0 -1 forward_v I I I I #
coedge $-1 $111 $112 $113 $114 reversed $44 $-1 #
face $-1 $115 $116 $26 $-1 $117 reversed single #
loop $-1 $-1 $118 $46 #
plane-surface $-1 0 25.353405942652941 6.1181771217813239 0 0 1 1 0 0 forward_v I I I I #
coedge $-1 $119 $120 $121 $122 reversed $47 $-1 #
face $-1 $123 $124 $27 $-1 $125 reversed single #
loop $-1 $-1 $126 $49 #
plane-surface $-1 -4.4847375688543423 -5.4584547167007003 134.25636956593837 0.84804810408105047 0 0.52991925155115449 0.52991925155115449 0 -0.84804810408105047 forward_v I I I I #
coedge $-1 $127 $128 $129 $130 reversed $50 $-1 #
face $-1 $-1 $131 $28 $-1 $132 forward single #
loop $-1 $133 $134 $52 #
cone-surface $-1 72.368900681943927 -6.9065679036704033 8.7176912063161289 -0.84804810408105047 0 -0.52991925155115449 0.13247981288778862 0 -0.21201202602026262 1 I I -0.70710678118654746 0.70710678118654746 0.25 forward I I I I #
loop $-1 $-1 $135 $36 #
coedge $-1 $84 $84 $136 $137 reversed $53 $-1 #
face $-1 $-1 $138 $29 $-1 $139 forward single #
loop $-1 $140 $141 $55 #
cone-surface $-1 72.368900681943927 -4.0103415297309972 8.7176912063161289 -0.84804810408105047 0 -0.52991925155115449 0.13247981288778862 0 -0.21201202602026262 1 I I -0.70710678118654746 0.70710678118654746 0.25 forward I I I I #
loop $-1 $-1 $142 $37 #
coedge $-1 $89 $89 $143 $144 reversed $56 $-1 #
face $-1 $145 $146 $30 $-1 $147 reversed single #
loop $-1 $-1 $148 $58 #
plane-surface $-1 -74.947355571153906 -14.805798104660926 6.6560842807540581 -0.6018150307709319 0 0.79863550430605224 0.79863550430605224 0 0.6018150307709319 forward_v I I I I #
coedge $-1 $149 $150 $151 $152 reversed $59 $-1 #
face $-1 $-1 $153 $31 $-1 $154 forward single #
loop $-1 $155 $156 $61 #
cone-surface $-1 -70.021975824610706 -14.805798104660923 7.1210783542777492 0.6018150307709319 0 -0.79863550430605224 0.39931775215302612 0 0.30090751538546595 1 I I -0.70710678118654746 0.70710678118654746 0.5 forward I I I I #
loop $-1 $-1 $157 $39 #
coedge $-1 $98 $98 $158 $159 reversed $62 $-1 #
face $-1 $160 $161 $24 $-1 $162 reversed single #
loop $-1 $-1 $163 $64 #
plane-surface $-1 0 -31.949664038822789 0 0 1 0 0 0 1 forward_v I I I I #
coedge $-1 $164 $165 $166 $167 forward $65 $-1 #
coedge $-1 $168 $67 $169 $170 forward $41 $-1 #
coedge $-1 $67 $168 $171 $172 forward $41 $-1 #
coedge $-1 $173 $174 $67 $106 reversed $175 $-1 #
edge $-1 $176 -31.949664038822789 $177 31.949664038822789 $105 $178 forward 7 unknown #
face $-1 $179 $180 $25 $-1 $181 reversed single #
loop $-1 $-1 $182 $68 #
plane-surface $-1 0 0 -11.727487540114783 0 0 1 1 0 0 forward_v I I I I #
coedge $-1 $183 $184 $185 $186 reversed $69 $-1 #
coedge $-1 $187 $71 $184 $188 forward $44 $-1 #
coedge $-1 $71 $187 $189 $190 reversed $44 $-1 #
coedge $-1 $191 $185 $71 $114 forward $180 $-1 #
edge $-1 $192 5.8892857903269835 $193 19.336680762439531 $113 $194 forward 7 unknown #
face $-1 $195 $196 $26 $-1 $197 reversed single #
loop $-1 $-1 $198 $72 #
plane-surface $-1 0 18.757147846483097 8.5712967954988066 0 1 0 0 0 1 forward_v I I I I #
coedge $-1 $199 $200 $201 $202 reversed $73 $-1 #
coedge $-1 $203 $75 $204 $205 reversed $47 $-1 #
coedge $-1 $75 $203 $206 $207 forward $47 $-1 #
coedge $-1 $208 $209 $75 $122 forward $196 $-1 #
edge $-1 $210 -19.272961067496315 $211 -6.0804448751566262 $121 $212 forward 7 unknown #
face $-1 $213 $214 $27 $-1 $215 forward single #
loop $-1 $-1 $216 $76 #
plane-surface $-1 122.63318802715651 -8.8373854862966752 213.68846270594662 0 1 0 0.84804810408105047 0 0.52991925155115449 forward_v I I I I #
coedge $-1 $217 $218 $219 $220 reversed $77 $-1 #
coedge $-1 $128 $79 $221 $222 reversed $50 $-1 #
coedge $-1 $79 $127 $217 $223 reversed $50 $-1 #
coedge $-1 $219 $224 $79 $130 forward $214 $-1 #
edge $-1 $225 -13.630761557575653 $226 -10.763208971411444 $129 $227 forward 7 unknown #
loop $-1 $-1 $136 $80 #
plane-surface $-1 -4.4847375688543423 -5.4584547167007003 134.25636956593837 0.84804810408105047 0 0.52991925155115449 0.52991925155115449 0 -0.84804810408105047 forward_v I I I I #
loop $-1 $-1 $228 $52 #
coedge $-1 $134 $134 $135 $229 reversed $81 $-1 #
coedge $-1 $135 $135 $134 $229 forward $83 $-1 #
coedge $-1 $136 $136 $84 $137 forward $131 $-1 #
edge $-1 $230 0 $230 6.2831853071796004 $136 $231 forward 7 unknown #
loop $-1 $-1 $143 $85 #
plane-surface $-1 -4.4847375688543423 -5.4584547167007003 134.25636956593837 0.84804810408105047 0 0.52991925155115449 0.52991925155115449 0 -0.84804810408105047 forward_v I I I I #
loop $-1 $-1 $232 $55 #
coedge $-1 $141 $141 $142 $233 reversed $86 $-1 #
coedge $-1 $142 $142 $141 $233 forward $88 $-1 #
coedge $-1 $143 $143 $89 $144 forward $138 $-1 #
edge $-1 $234 0 $234 6.2831853071796004 $143 $235 forward 7 unknown #
face $-1 $236 $237 $30 $-1 $238 reversed single #
loop $-1 $-1 $239 $90 #
plane-surface $-1 -165.15624576966184 -11.109327142611612 126.36732250670109 0 -1 0 0.6018150307709319 0 -0.79863550430605224 forward_v I I I I #
coedge $-1 $240 $241 $242 $243 reversed $91 $-1 #
coedge $-1 $150 $93 $244 $245 reversed $59 $-1 #
coedge $-1 $93 $149 $240 $246 reversed $59 $-1 #
coedge $-1 $242 $247 $93 $152 forward $248 $-1 #
edge $-1 $249 7.630767313677012 $250 14.360746613779497 $151 $251 forward 7 unknown #
loop $-1 $-1 $158 $94 #
plane-surface $-1 -74.947355571153906 -14.805798104660926 6.6560842807540581 -0.6018150307709319 0 0.79863550430605224 0.79863550430605224 0 0.6018150307709319 forward_v I I I I #
loop $-1 $-1 $252 $61 #
coedge $-1 $156 $156 $157 $253 reversed $95 $-1 #
coedge $-1 $157 $157 $156 $253 forward $97 $-1 #
coedge $-1 $158 $158 $98 $159 forward $153 $-1 #
edge $-1 $254 0 $254 6.2831853071796004 $158 $255 forward 7 unknown #
face $-1 $256 $257 $24 $-1 $258 reversed single #
loop $-1 $-1 $259 $99 #
plane-surface $-1 -74.947355571153906 0 0 1 0 0 0 0 -1 forward_v I I I I #
coedge $-1 $260 $171 $261 $262 forward $100 $-1 #
coedge $-1 $263 $102 $260 $264 forward $65 $-1 #
coedge $-1 $102 $263 $265 $266 forward $65 $-1 #
coedge $-1 $174 $173 $102 $167 reversed $175 $-1 #
edge $-1 $267 -31.949664038822789 $268 31.949664038822789 $166 $269 forward 7 unknown #
coedge $-1 $104 $103 $270 $271 forward $41 $-1 #
coedge $-1 $272 $273 $103 $170 reversed $257 $-1 #
edge $-1 $177 -74.947355571153906 $274 74.947355571153906 $169 $275 forward 7 unknown #
coedge $-1 $163 $276 $104 $172 reversed $100 $-1 #
edge $-1 $277 -74.947355571153906 $176 74.947355571153906 $171 $278 forward 7 unknown #
coedge $-1 $166 $105 $276 $279 forward $175 $-1 #
coedge $-1 $105 $166 $272 $280 reversed $175 $-1 #
loop $-1 $-1 $173 $256 #
vertex $-1 $106 $281 #
vertex $-1 $106 $282 #
straight-curve $-1 74.947355571153906 0 11.727487540114783 0 1 0 I I #
face $-1 $283 $284 $25 $-1 $285 reversed single #
loop $-1 $-1 $185 $107 #
plane-surface $-1 74.947355571153906 0 0 -1 0 0 0 0 1 forward_v I I I I #
coedge $-1 $286 $287 $183 $288 forward $108 $-1 #
coedge $-1 $289 $110 $182 $288 reversed $69 $-1 #
coedge $-1 $110 $289 $111 $188 reversed $69 $-1 #
coedge $-1 $113 $290 $110 $186 forward $180 $-1 #
edge $-1 $291 -6.8498627325776482 $192 -2.9053868824966216 $185 $292 forward 7 unknown #
coedge $-1 $112 $111 $293 $294 reversed $44 $-1 #
edge $-1 $192 -74.947355571153906 $295 74.947355571153906 $184 $296 forward 7 unknown #
coedge $-1 $297 $298 $112 $190 forward $284 $-1 #
edge $-1 $193 -74.947355571153906 $299 74.947355571153906 $189 $300 forward 7 unknown #
coedge $-1 $290 $113 $298 $301 forward $180 $-1 #
vertex $-1 $114 $302 #
vertex $-1 $301 $303 #
straight-curve $-1 74.947355571153906 -12.612983276383257 -7.7830116900337565 0 -1 0 I I #
face $-1 $304 $305 $26 $-1 $306 reversed single #
loop $-1 $-1 $121 $115 #
plane-surface $-1 74.947355571153906 0 0 -1 0 0 0 0 1 forward_v I I I I #
coedge $-1 $307 $206 $308 $309 reversed $116 $-1 #
coedge $-1 $310 $118 $307 $311 forward $73 $-1 #
coedge $-1 $118 $310 $312 $313 reversed $73 $-1 #
coedge $-1 $209 $208 $118 $202 forward $196 $-1 #
edge $-1 $314 6.0804448751566262 $315 19.272961067496315 $201 $316 forward 7 unknown #
coedge $-1 $120 $119 $317 $318 reversed $47 $-1 #
coedge $-1 $319 $320 $119 $205 forward $321 $-1 #
edge $-1 $322 -74.947355571153906 $210 74.947355571153906 $204 $323 forward 7 unknown #
coedge $-1 $198 $324 $120 $207 reversed $116 $-1 #
edge $-1 $325 -74.947355571153906 $211 74.947355571153906 $206 $326 forward 7 unknown #
coedge $-1 $201 $121 $324 $327 forward $196 $-1 #
coedge $-1 $121 $201 $319 $328 reversed $196 $-1 #
vertex $-1 $328 $329 #
vertex $-1 $122 $330 #
straight-curve $-1 74.947355571153906 12.676702971326471 11.024416469216289 0 -1 0 I I #
face $-1 $-1 $331 $27 $-1 $332 reversed single #
loop $-1 $-1 $129 $123 #
plane-surface $-1 0 0 11.727487540114783 0 0 1 1 0 0 forward_v I I I I #
coedge $-1 $333 $334 $335 $336 reversed $124 $-1 #
coedge $-1 $337 $126 $128 $223 forward $77 $-1 #
coedge $-1 $126 $337 $333 $338 forward $77 $-1 #
coedge $-1 $335 $129 $126 $220 forward $214 $-1 #
edge $-1 $226 -0.64970341124562481 $339 6.1081581279463251 $219 $340 forward 7 unknown #
coedge $-1 $341 $342 $127 $222 forward $331 $-1 #
edge $-1 $343 -99.705787383045788 $225 -95.11674381285853 $221 $344 forward 7 unknown #
edge $-1 $226 144.48341012282145 $343 149.89471114230781 $128 $345 forward 7 unknown #
coedge $-1 $129 $335 $341 $346 forward $214 $-1 #
vertex $-1 $222 $347 #
vertex $-1 $130 $348 #
straight-curve $-1 61.316594013578253 -2.0795239471047253 11.72748754011478 -1 0 0 I I #
coedge $-1 $228 $228 $-1 $349 reversed $133 $-1 #
edge $-1 $350 0 $350 6.2831853071796004 $134 $351 forward 7 unknown #
vertex $-1 $137 $352 #
ellipse-curve $-1 73.513579278071816 -6.9065679036704033 9.4329657550211419 0.84804810408105047 0 0.52991925155115449 0.26495962577557725 0 -0.42402405204052523 1 I I #
coedge $-1 $232 $232 $-1 $353 reversed $140 $-1 #
edge $-1 $354 0 $354 6.2831853071796004 $141 $355 forward 7 unknown #
vertex $-1 $144 $356 #
ellipse-curve $-1 73.513579278071816 -4.0103415297309972 9.4329657550211419 0.84804810408105047 0 0.52991925155115449 0.26495962577557725 0 -0.42402405204052523 1 I I #
face $-1 $-1 $248 $30 $-1 $357 forward single #
loop $-1 $-1 $358 $145 #
plane-surface $-1 -74.947355571153906 0 0 1 0 0 0 0 -1 forward_v I I I I #
coedge $-1 $359 $360 $361 $362 reversed $146 $-1 #
coedge $-1 $363 $148 $150 $246 forward $91 $-1 #
coedge $-1 $148 $363 $359 $364 forward $91 $-1 #
coedge $-1 $361 $151 $148 $243 forward $248 $-1 #
edge $-1 $250 -11.099370014379778 $365 -3.7064280902811486 $242 $366 forward 7 unknown #
coedge $-1 $367 $368 $149 $245 forward $237 $-1 #
edge $-1 $369 -56.527576972596485 $249 -51.456173713235756 $244 $370 forward 7 unknown #
edge $-1 $250 -8.4268471208906206 $369 0 $150 $371 forward 7 unknown #
coedge $-1 $151 $361 $367 $372 forward $248 $-1 #
loop $-1 $-1 $361 $236 #
vertex $-1 $245 $373 #
vertex $-1 $152 $374 #
straight-curve $-1 -82.578122884830918 -18.502269066710241 11.72748754011478 1 0 0 I I #
coedge $-1 $252 $252 $-1 $375 reversed $155 $-1 #
edge $-1 $376 0 $376 6.2831853071796004 $156 $377 forward 7 unknown #
vertex $-1 $159 $378 #
ellipse-curve $-1 -71.582365921102664 -14.805798104660923 9.1917859104344188 -0.6018150307709319 0 0.79863550430605224 0.79863550430605224 0 0.6018150307709319 1 I I #
face $-1 $-1 $175 $24 $-1 $379 reversed single #
loop $-1 $-1 $272 $160 #
plane-surface $-1 0 31.949664038822789 0 0 -1 0 0 0 -1 forward_v I I I I #
coedge $-1 $380 $270 $273 $381 forward $161 $-1 #
coedge $-1 $276 $163 $164 $264 reversed $100 $-1 #
coedge $-1 $270 $380 $163 $262 reversed $161 $-1 #
edge $-1 $277 -11.727487540114783 $382 11.727487540114783 $261 $383 forward 7 unknown #
coedge $-1 $165 $164 $380 $384 forward $65 $-1 #
edge $-1 $268 -74.947355571153906 $382 74.947355571153906 $260 $385 forward 7 unknown #
coedge $-1 $273 $272 $165 $266 reversed $257 $-1 #
edge $-1 $386 -74.947355571153906 $267 74.947355571153906 $265 $387 forward 7 unknown #
vertex $-1 $167 $388 #
vertex $-1 $279 $389 #
straight-curve $-1 74.947355571153906 0 -11.727487540114783 0 -1 0 I I #
coedge $-1 $259 $261 $168 $271 reversed $161 $-1 #
edge $-1 $274 -31.949664038822789 $277 31.949664038822789 $270 $390 forward 7 unknown #
coedge $-1 $265 $169 $174 $280 forward $257 $-1 #
coedge $-1 $169 $265 $259 $381 reversed $257 $-1 #
vertex $-1 $170 $391 #
straight-curve $-1 0 31.949664038822789 11.727487540114783 -1 0 0 I I #
coedge $-1 $171 $260 $173 $279 reversed $100 $-1 #
vertex $-1 $271 $392 #
straight-curve $-1 0 -31.949664038822789 11.727487540114783 1 0 0 I I #
edge $-1 $176 -11.727487540114783 $268 11.727487540114783 $173 $393 forward 7 unknown #
edge $-1 $177 -11.727487540114783 $267 11.727487540114783 $174 $394 forward 7 unknown #
point $-1 74.947355571153906 -31.949664038822789 11.727487540114783 #
point $-1 74.947355571153906 31.949664038822789 11.727487540114783 #
face $-1 $-1 $395 $25 $-1 $396 reversed single #
loop $-1 $-1 $189 $179 #
plane-surface $-1 0 -31.949664038822789 0 0 1 0 0 0 1 forward_v I I I I #
coedge $-1 $397 $182 $290 $398 forward $108 $-1 #
coedge $-1 $182 $397 $399 $400 forward $108 $-1 #
edge $-1 $401 -74.947355571153906 $291 74.947355571153906 $182 $402 forward 7 unknown #
coedge $-1 $184 $183 $403 $404 reversed $69 $-1 #
coedge $-1 $185 $191 $286 $398 reversed $180 $-1 #
vertex $-1 $398 $405 #
straight-curve $-1 74.947355571153906 -18.502269066710241 -4.8776248075371349 0 0 1 I I #
coedge $-1 $403 $406 $187 $294 forward $395 $-1 #
edge $-1 $299 -19.336680762439531 $295 -5.8892857903269835 $293 $407 forward 7 unknown #
vertex $-1 $294 $408 #
straight-curve $-1 0 -18.502269066710241 -7.7830116900337565 -1 0 0 I I #
coedge $-1 $409 $189 $406 $410 forward $284 $-1 #
coedge $-1 $189 $409 $191 $301 reversed $284 $-1 #
vertex $-1 $410 $411 #
straight-curve $-1 0 -31.949664038822789 -7.7830116900337565 -1 0 0 I I #
edge $-1 $193 7.7830116900337565 $412 11.727487540114783 $191 $413 forward 7 unknown #
point $-1 74.947355571153906 -18.502269066710241 -7.7830116900337565 #
point $-1 74.947355571153906 -31.949664038822789 -7.7830116900337565 #
face $-1 $-1 $321 $26 $-1 $414 reversed single #
loop $-1 $-1 $317 $195 #
plane-surface $-1 -74.947355571153906 0 0 1 0 0 0 0 -1 forward_v I I I I #
coedge $-1 $324 $198 $199 $311 reversed $116 $-1 #
coedge $-1 $317 $415 $198 $309 forward $305 $-1 #
edge $-1 $416 1.8325287240319206 $325 6.7387680714668861 $308 $417 forward 7 unknown #
coedge $-1 $200 $199 $415 $418 reversed $73 $-1 #
edge $-1 $314 -74.947355571153906 $416 74.947355571153906 $307 $419 forward 7 unknown #
coedge $-1 $320 $319 $200 $313 forward $321 $-1 #
edge $-1 $315 -74.947355571153906 $420 74.947355571153906 $312 $421 forward 7 unknown #
vertex $-1 $202 $422 #
vertex $-1 $313 $423 #
straight-curve $-1 74.947355571153906 12.676702971326471 6.1181771217813239 0 1 0 I I #
coedge $-1 $424 $308 $203 $318 forward $305 $-1 #
edge $-1 $325 6.0804448751566262 $322 19.272961067496315 $317 $425 forward 7 unknown #
coedge $-1 $312 $204 $209 $328 forward $321 $-1 #
coedge $-1 $204 $312 $424 $426 reversed $321 $-1 #
loop $-1 $-1 $204 $304 #
vertex $-1 $426 $427 #
straight-curve $-1 0 31.949664038822789 11.024416469216289 1 0 0 I I #
coedge $-1 $206 $307 $208 $327 reversed $116 $-1 #
vertex $-1 $318 $428 #
straight-curve $-1 0 18.757147846483097 11.024416469216289 1 0 0 I I #
edge $-1 $211 -6.7387680714668861 $314 -1.8325287240319206 $208 $429 forward 7 unknown #
edge $-1 $210 -11.024416469216289 $315 -6.1181771217813239 $209 $430 forward 7 unknown #
point $-1 74.947355571153906 31.949664038822785 11.024416469216289 #
point $-1 74.947355571153906 18.757147846483097 11.024416469216289 #
loop $-1 $-1 $221 $213 #
plane-surface $-1 74.947355571153906 0 0 -1 0 0 0 0 1 forward_v I I I I #
coedge $-1 $334 $216 $218 $338 reversed $124 $-1 #
coedge $-1 $216 $333 $431 $432 reversed $124 $-1 #
coedge $-1 $224 $219 $216 $336 forward $214 $-1 #
edge $-1 $339 10.763208971411444 $433 13.630761557575653 $335 $434 forward 7 unknown #
coedge $-1 $218 $217 $342 $435 reversed $77 $-1 #
edge $-1 $436 -149.89471114230781 $339 -144.48341012282145 $333 $437 forward 7 unknown #
vertex $-1 $220 $438 #
straight-curve $-1 72.079802984989712 -2.7292273583503501 11.72748754011478 0 -1 0 I I #
coedge $-1 $431 $221 $224 $346 reversed $331 $-1 #
coedge $-1 $221 $431 $337 $435 forward $331 $-1 #
vertex $-1 $222 $439 #
straight-curve $-1 74.947355571153906 -2.0795239471047253 106.84423135297331 0 0 1 I I #
straight-curve $-1 -4.4847375688543423 -2.0795239471047253 134.25636956593837 0.52991925155115449 0 -0.84804810408105047 I I #
edge $-1 $433 -8.8373854862966752 $225 -2.0795239471047253 $341 $440 forward 7 unknown #
point $-1 74.947355571153906 -2.0795239471047253 11.727487540114783 #
point $-1 72.079802984989698 -2.0795239471047253 11.72748754011478 #
edge $-1 $441 1 $441 0 $228 $-1 forward 7 unknown #
vertex $-1 $229 $442 #
ellipse-curve $-1 72.580912707964188 -6.9065679036704033 8.850171019203918 0.84804810408105047 0 0.52991925155115449 0.26495962577557725 0 -0.42402405204052523 1 I I #
point $-1 73.778538903847391 -6.9065679036704033 9.0089417029806214 #
edge $-1 $443 1 $443 0 $232 $-1 forward 7 unknown #
vertex $-1 $233 $444 #
ellipse-curve $-1 72.580912707964188 -4.0103415297309972 8.850171019203918 0.84804810408105047 0 0.52991925155115449 0.26495962577557725 0 -0.42402405204052523 1 I I #
point $-1 73.778538903847391 -4.0103415297309972 9.0089417029806214 #
plane-surface $-1 0 0 11.727487540114783 0 0 1 1 0 0 forward_v I I I I #
coedge $-1 $368 $367 $360 $445 forward $237 $-1 #
coedge $-1 $360 $239 $241 $364 reversed $146 $-1 #
coedge $-1 $239 $359 $358 $445 reversed $146 $-1 #
coedge $-1 $247 $242 $239 $362 forward $248 $-1 #
edge $-1 $365 -14.360746613779497 $446 -7.630767313677012 $361 $447 forward 7 unknown #
coedge $-1 $241 $240 $368 $448 reversed $91 $-1 #
edge $-1 $449 0 $365 8.4268471208906206 $359 $450 forward 7 unknown #
vertex $-1 $243 $451 #
straight-curve $-1 -68.217376271051421 -7.4028990523304632 11.727487540114783 0 1 0 I I #
coedge $-1 $358 $244 $247 $372 reversed $237 $-1 #
coedge $-1 $244 $358 $363 $448 forward $237 $-1 #
vertex $-1 $245 $452 #
straight-curve $-1 -74.947355571153906 -18.502269066710241 63.183661253350543 0 0 1 I I #
straight-curve $-1 -74.947355571153906 -18.502269066710241 6.6560842807540581 -0.79863550430605224 0 -0.6018150307709319 I I #
edge $-1 $446 11.109327142611612 $249 18.502269066710241 $367 $453 forward 7 unknown #
point $-1 -74.947355571153906 -18.502269066710241 11.727487540114783 #
point $-1 -68.217376271051421 -18.502269066710241 11.727487540114783 #
edge $-1 $454 1 $454 0 $252 $-1 forward 7 unknown #
vertex $-1 $253 $455 #
ellipse-curve $-1 -70.322883339996167 -14.805798104660923 7.5203961064307752 -0.6018150307709319 0 0.79863550430605224 0.79863550430605224 0 0.6018150307709319 1 I I #
point $-1 -70.783730416796615 -14.805798104660923 9.7936009412053551 #
plane-surface $-1 74.947355571153906 0 0 -1 0 0 0 0 1 forward_v I I I I #
coedge $-1 $261 $259 $263 $384 reversed $161 $-1 #
edge $-1 $274 -11.727487540114783 $386 11.727487540114783 $273 $456 forward 7 unknown #
vertex $-1 $384 $457 #
straight-curve $-1 -74.947355571153906 -31.949664038822789 0 0 0 -1 I I #
edge $-1 $382 -31.949664038822789 $386 31.949664038822789 $380 $458 forward 7 unknown #
straight-curve $-1 0 -31.949664038822789 -11.727487540114783 -1 0 0 I I #
vertex $-1 $266 $459 #
straight-curve $-1 0 31.949664038822789 -11.727487540114783 1 0 0 I I #
point $-1 74.947355571153906 31.949664038822789 -11.727487540114783 #
point $-1 74.947355571153906 -31.949664038822789 -11.727487540114783 #
straight-curve $-1 -74.947355571153906 0 11.727487540114783 0 -1 0 I I #
point $-1 -74.947355571153906 31.949664038822789 11.727487540114783 #
point $-1 -74.947355571153906 -31.949664038822789 11.727487540114783 #
straight-curve $-1 74.947355571153906 -31.949664038822789 0 0 0 -1 I I #
straight-curve $-1 74.947355571153906 31.949664038822789 0 0 0 -1 I I #
loop $-1 $-1 $403 $283 #
plane-surface $-1 -74.947355571153906 0 0 1 0 0 0 0 -1 forward_v I I I I #
coedge $-1 $287 $286 $409 $460 forward $108 $-1 #
edge $-1 $291 18.502269066710241 $412 31.949664038822789 $290 $461 forward 7 unknown #
coedge $-1 $406 $403 $287 $400 reversed $395 $-1 #
edge $-1 $462 -31.949664038822789 $401 -18.502269066710241 $399 $463 forward 7 unknown #
vertex $-1 $404 $464 #
straight-curve $-1 0 -18.502269066710241 -11.727487540114783 1 0 0 I I #
coedge $-1 $399 $293 $289 $404 forward $395 $-1 #
edge $-1 $295 2.9053868824966216 $401 6.8498627325776482 $403 $465 forward 7 unknown #
point $-1 74.947355571153906 -18.502269066710241 -11.727487540114783 #
coedge $-1 $293 $399 $297 $410 reversed $395 $-1 #
straight-curve $-1 -74.947355571153906 -12.612983276383257 -7.7830116900337565 0 1 0 I I #
point $-1 -74.947355571153906 -18.502269066710241 -7.7830116900337565 #
coedge $-1 $298 $297 $397 $460 reversed $284 $-1 #
edge $-1 $299 7.7830116900337565 $462 11.727487540114783 $406 $466 forward 7 unknown #
point $-1 -74.947355571153906 -31.949664038822789 -7.7830116900337565 #
vertex $-1 $301 $467 #
straight-curve $-1 74.947355571153906 -31.949664038822789 0 0 0 -1 I I #
plane-surface $-1 0 31.949664038822789 0 0 -1 0 0 0 -1 forward_v I I I I #
coedge $-1 $308 $424 $310 $418 forward $305 $-1 #
vertex $-1 $418 $468 #
straight-curve $-1 -74.947355571153906 18.757147846483097 4.2856483977494033 0 0 1 I I #
edge $-1 $420 -19.272961067496315 $416 -6.0804448751566262 $415 $469 forward 7 unknown #
straight-curve $-1 0 18.757147846483097 6.1181771217813239 -1 0 0 I I #
vertex $-1 $313 $470 #
straight-curve $-1 0 31.949664038822789 6.1181771217813239 -1 0 0 I I #
point $-1 74.947355571153906 18.757147846483097 6.1181771217813239 #
point $-1 74.947355571153906 31.949664038822785 6.1181771217813239 #
coedge $-1 $415 $317 $320 $426 forward $305 $-1 #
straight-curve $-1 -74.947355571153906 12.676702971326471 11.024416469216289 0 1 0 I I #
edge $-1 $322 -11.024416469216289 $420 -6.1181771217813239 $320 $471 forward 7 unknown #
point $-1 -74.947355571153906 31.949664038822785 11.024416469216289 #
point $-1 -74.947355571153906 18.757147846483097 11.024416469216289 #
straight-curve $-1 74.947355571153906 18.757147846483097 4.2856483977494033 0 0 -1 I I #
straight-curve $-1 74.947355571153906 31.949664038822789 0 0 0 -1 I I #
coedge $-1 $342 $341 $334 $432 forward $331 $-1 #
edge $-1 $433 95.11674381285853 $436 99.705787383045788 $431 $472 forward 7 unknown #
vertex $-1 $346 $473 #
straight-curve $-1 61.316594013578253 -8.8373854862966752 11.72748754011478 1 0 0 I I #
edge $-1 $436 -6.1081581279463251 $343 0.64970341124562481 $342 $474 forward 7 unknown #
vertex $-1 $435 $475 #
straight-curve $-1 -4.4847375688543423 -8.8373854862966752 134.25636956593837 -0.52991925155115449 0 0.84804810408105047 I I #
point $-1 72.079802984989698 -8.8373854862966752 11.72748754011478 #
point $-1 74.947355571153906 -2.0795239471047253 7.1384439699275219 #
straight-curve $-1 74.947355571153906 0 11.727487540114783 0 1 0 I I #
vertex $-1 $349 $476 #
point $-1 72.845872333739763 -6.9065679036704033 8.4261469671633922 #
vertex $-1 $353 $477 #
point $-1 72.845872333739763 -4.0103415297309972 8.4261469671633922 #
edge $-1 $446 51.456173713235756 $449 56.527576972596485 $358 $478 forward 7 unknown #
vertex $-1 $372 $479 #
straight-curve $-1 -82.578122884830918 -11.109327142611612 11.72748754011478 -1 0 0 I I #
edge $-1 $449 3.7064280902811486 $369 11.099370014379778 $368 $480 forward 7 unknown #
vertex $-1 $448 $481 #
straight-curve $-1 -74.947355571153906 -11.109327142611612 6.6560842807540581 0.79863550430605224 0 0.6018150307709319 I I #
point $-1 -68.217376271051421 -11.109327142611612 11.727487540114783 #
point $-1 -74.947355571153906 -18.502269066710241 6.6560842807540581 #
straight-curve $-1 -74.947355571153906 0 11.727487540114783 0 -1 0 I I #
vertex $-1 $375 $482 #
point $-1 -69.524247835690119 -14.805798104660923 8.1222111372017078 #
straight-curve $-1 -74.947355571153906 31.949664038822789 0 0 0 -1 I I #
point $-1 -74.947355571153906 -31.949664038822789 -11.727487540114783 #
straight-curve $-1 -74.947355571153906 0 -11.727487540114783 0 1 0 I I #
point $-1 -74.947355571153906 31.949664038822789 -11.727487540114783 #
edge $-1 $412 -74.947355571153906 $462 74.947355571153906 $409 $483 forward 7 unknown #
straight-curve $-1 74.947355571153906 0 -11.727487540114783 0 -1 0 I I #
vertex $-1 $400 $484 #
straight-curve $-1 -74.947355571153906 0 -11.727487540114783 0 1 0 I I #
point $-1 -74.947355571153906 -18.502269066710241 -11.727487540114783 #
straight-curve $-1 -74.947355571153906 -18.502269066710241 -4.8776248075371349 0 0 -1 I I #
straight-curve $-1 -74.947355571153906 -31.949664038822789 0 0 0 -1 I I #
point $-1 74.947355571153906 -31.949664038822789 -11.727487540114783 #
point $-1 -74.947355571153906 18.757147846483097 6.1181771217813239 #
straight-curve $-1 -74.947355571153906 12.676702971326471 6.1181771217813239 0 -1 0 I I #
point $-1 -74.947355571153906 31.949664038822785 6.1181771217813239 #
straight-curve $-1 -74.947355571153906 31.949664038822789 0 0 0 -1 I I #
straight-curve $-1 74.947355571153906 -8.8373854862966752 106.84423135297331 0 0 -1 I I #
point $-1 74.947355571153906 -8.8373854862966752 11.727487540114783 #
straight-curve $-1 74.947355571153906 -2.7292273583503501 7.1384439699275219 0 1 0 I I #
point $-1 74.947355571153906 -8.8373854862966752 7.1384439699275219 #
point $-1 72.156888655923666 -6.9065679036704033 8.5852113934283398 #
point $-1 72.156888655923666 -4.0103415297309972 8.5852113934283398 #
straight-curve $-1 -74.947355571153906 -11.109327142611612 63.183661253350543 0 0 -1 I I #
point $-1 -74.947355571153906 -11.109327142611612 11.727487540114783 #
straight-curve $-1 -74.947355571153906 -7.4028990523304632 6.6560842807540626 0 -1 0 I I #
point $-1 -74.947355571153906 -11.109327142611612 6.6560842807540581 #
point $-1 -69.721068309225245 -14.805798104660923 6.7217606021247231 #
straight-curve $-1 0 -31.949664038822789 -11.727487540114783 -1 0 0 I I #
point $-1 -74.947355571153906 -31.949664038822789 -11.727487540114783 #
End-of-ACIS-data 