500 0 9 0           
7 Unknown 11 ACIS 5.0 NT 24 Fri Mar 26 00:22:45 1999 
-1 9.9999999999999995e-007 1e-010 
body $-1 $9 $-1 $10 #
body $-1 $11 $-1 $12 #
body $-1 $13 $-1 $14 #
body $-1 $15 $-1 $16 #
body $-1 $17 $-1 $18 #
body $-1 $19 $-1 $20 #
body $-1 $21 $-1 $22 #
body $-1 $23 $-1 $24 #
body $-1 $25 $-1 $26 #
lump $-1 $-1 $27 $0 #
transform $-1 1 0 0 0 1 0 0 0 1 75.261085848567149 32.977112340794179 7.1669640221105864 1 rotate no_reflect no_shear #
lump $-1 $-1 $28 $1 #
transform $-1 1 0 0 0 1 0 0 0 1 75.261085848567149 32.977112340794179 7.1669640221105864 1 rotate no_reflect no_shear #
lump $-1 $-1 $29 $2 #
transform $-1 1 0 0 0 1 0 0 0 1 75.261085848567149 32.977112340794179 7.1669640221105864 1 rotate no_reflect no_shear #
lump $-1 $-1 $30 $3 #
transform $-1 1 0 0 0 1 0 0 0 1 75.261085848567149 32.977112340794179 7.1669640221105864 1 rotate no_reflect no_shear #
lump $-1 $-1 $31 $4 #
transform $-1 1 0 0 0 1 0 0 0 1 75.261085848567149 32.977112340794179 7.1669640221105864 1 rotate no_reflect no_shear #
lump $-1 $-1 $32 $5 #
transform $-1 1 0 0 0 1 0 0 0 1 75.261085848567149 32.977112340794179 7.1669640221105864 1 rotate no_reflect no_shear #
lump $-1 $-1 $33 $6 #
transform $-1 1 0 0 0 1 0 0 0 1 75.261085848567149 32.977112340794179 7.1669640221105864 1 rotate no_reflect no_shear #
lump $-1 $-1 $34 $7 #
transform $-1 1 0 0 0 1 0 0 0 1 75.261085848567149 32.977112340794179 7.1669640221105864 1 rotate no_reflect no_shear #
lump $-1 $-1 $35 $8 #
transform $-1 1 0 0 0 1 0 0 0 1 75.261085848567149 32.977112340794179 7.1669640221105864 1 rotate no_reflect no_shear #
shell $-1 $-1 $-1 $36 $-1 $9 #
shell $-1 $-1 $-1 $37 $-1 $11 #
shell $-1 $-1 $-1 $38 $-1 $13 #
shell $-1 $-1 $-1 $39 $-1 $15 #
shell $-1 $-1 $-1 $40 $-1 $17 #
shell $-1 $-1 $-1 $41 $-1 $19 #
shell $-1 $-1 $-1 $42 $-1 $21 #
shell $-1 $-1 $-1 $43 $-1 $23 #
shell $-1 $-1 $-1 $44 $-1 $25 #
face $-1 $45 $46 $27 $-1 $47 forward single #
face $-1 $48 $49 $28 $-1 $50 reversed single #
face $-1 $51 $52 $29 $-1 $53 forward single #
face $-1 $54 $55 $30 $-1 $56 reversed single #
face $-1 $57 $58 $31 $-1 $59 forward single #
face $-1 $60 $61 $32 $-1 $62 forward single #
face $-1 $63 $64 $33 $-1 $65 reversed single #
face $-1 $66 $67 $34 $-1 $68 forward single #
face $-1 $69 $70 $35 $-1 $71 forward single #
face $-1 $72 $73 $27 $-1 $74 reversed single #
loop $-1 $-1 $75 $36 #
plane-surface $-1 0 0 7.1669640221105864 0 0 1 1 0 0 forward_v I I I I #
face $-1 $76 $77 $28 $-1 $78 reversed single #
loop $-1 $-1 $79 $37 #
plane-surface $-1 -71.747687721052145 -32.477112340794179 0 0 1 0 0 0 1 forward_v I I I I #
face $-1 $80 $81 $29 $-1 $82 reversed single #
loop $-1 $-1 $83 $38 #
plane-surface $-1 75.261085848567149 0 0 -1 0 0 0 0 1 forward_v I I I I #
face $-1 $84 $85 $30 $-1 $86 reversed single #
loop $-1 $-1 $87 $39 #
plane-surface $-1 38.783501699847449 -160.62715467071129 83.666793626178944 -1 0 0 0 -0.84804810408105047 0.52991925155115449 forward_v I I I I #
face $-1 $88 $89 $31 $-1 $90 forward single #
loop $-1 $91 $92 $40 #
cone-surface $-1 15.147030739806482 -31.35879756619854 5.1607284678849235 0 0.84804810408105047 -0.52991925155115449 0.5 0 0 1 I I 0 1 0.5 forward I I I I #
face $-1 $93 $94 $32 $-1 $95 forward single #
loop $-1 $96 $97 $41 #
cone-surface $-1 29.328913315831073 -31.35879756619854 5.1607284678849235 0 0.84804810408105047 -0.52991925155115449 0.5 0 0 1 I I 0 1 0.5 forward I I I I #
face $-1 $98 $99 $33 $-1 $100 reversed single #
loop $-1 $-1 $101 $42 #
plane-surface $-1 -46.740686517451536 76.447726536226753 161.56827851026583 1 0 0 0 -0.62932039886446345 -0.77714595512881146 forward_v I I I I #
face $-1 $102 $103 $34 $-1 $104 forward single #
loop $-1 $105 $106 $43 #
cone-surface $-1 -35.397058088282186 29.769870290949516 4.2780050263666869 0 -0.62932039886446345 -0.77714595512881146 1.5 0 0 1 I I 0 1 1.5 forward I I I I #
face $-1 $107 $108 $35 $-1 $109 forward single #
loop $-1 $110 $111 $44 #
cone-surface $-1 -18.381615444528158 29.769870290949516 4.2780050263666869 0 -0.62932039886446345 -0.77714595512881146 1.5 0 0 1 I I 0 1 1.5 forward I I I I #
face $-1 $112 $113 $27 $-1 $114 reversed single #
loop $-1 $-1 $115 $45 #
plane-surface $-1 0 0 -7.1669640221105864 0 0 1 1 0 0 forward_v I I I I #
coedge $-1 $116 $117 $118 $119 forward $46 $-1 #
face $-1 $120 $121 $28 $-1 $122 reversed single #
loop $-1 $-1 $123 $48 #
plane-surface $-1 -71.747687721052145 -29.477112340794179 0 0 -1 0 0 0 -1 forward_v I I I I #
coedge $-1 $124 $125 $126 $127 reversed $49 $-1 #
face $-1 $128 $129 $29 $-1 $130 reversed single #
loop $-1 $-1 $131 $51 #
plane-surface $-1 0 32.977112340794179 0 0 -1 0 0 0 -1 forward_v I I I I #
coedge $-1 $132 $133 $134 $135 forward $52 $-1 #
face $-1 $136 $137 $30 $-1 $138 reversed single #
loop $-1 $-1 $139 $54 #
plane-surface $-1 22.23797202781877 -32.977112340794193 3.9021970585791621 0 -0.84804810408105047 0.52991925155115449 1 0 0 forward_v I I I I #
coedge $-1 $140 $141 $142 $143 reversed $55 $-1 #
face $-1 $-1 $144 $31 $-1 $145 forward single #
loop $-1 $146 $147 $57 #
cone-surface $-1 15.147030739806482 -30.548497139958066 4.6543965825371858 0 0.84804810408105047 -0.52991925155115449 0.25 0 0 1 I I -0.70710678118654746 0.70710678118654746 0.25 forward I I I I #
loop $-1 $-1 $148 $40 #
coedge $-1 $92 $92 $149 $150 reversed $58 $-1 #
face $-1 $-1 $151 $32 $-1 $152 forward single #
loop $-1 $153 $154 $60 #
cone-surface $-1 29.328913315831073 -30.548497139958066 4.6543965825371858 0 0.84804810408105047 -0.52991925155115449 0.25 0 0 1 I I -0.70710678118654746 0.70710678118654746 0.25 forward I I I I #
loop $-1 $-1 $155 $41 #
coedge $-1 $97 $97 $156 $157 reversed $61 $-1 #
face $-1 $158 $159 $33 $-1 $160 reversed single #
loop $-1 $-1 $161 $63 #
plane-surface $-1 -26.889336766405172 -18.278946594159052 44.590581618633436 0 0.62932039886446345 0.77714595512881146 1 0 0 forward_v I I I I #
coedge $-1 $162 $163 $164 $165 reversed $64 $-1 #
face $-1 $-1 $166 $34 $-1 $167 forward single #
loop $-1 $168 $169 $66 #
cone-surface $-1 -35.397058088282186 28.61150840592456 2.8475472577215486 0 -0.62932039886446345 -0.77714595512881146 0.75 0 0 1 I I -0.70710678118654757 0.70710678118654757 0.75 forward I I I I #
loop $-1 $-1 $170 $43 #
coedge $-1 $106 $106 $171 $172 reversed $67 $-1 #
face $-1 $-1 $173 $35 $-1 $174 forward single #
loop $-1 $175 $176 $69 #
cone-surface $-1 -18.381615444528158 28.61150840592456 2.8475472577215486 0 -0.62932039886446345 -0.77714595512881146 0.75 0 0 1 I I -0.70710678118654757 0.70710678118654757 0.75 forward I I I I #
loop $-1 $-1 $177 $44 #
coedge $-1 $111 $111 $178 $179 reversed $70 $-1 #
face $-1 $180 $181 $27 $-1 $182 reversed single #
loop $-1 $-1 $183 $72 #
plane-surface $-1 0 -32.977112340794179 0 0 1 0 0 0 1 forward_v I I I I #
coedge $-1 $184 $185 $186 $187 forward $73 $-1 #
coedge $-1 $188 $75 $189 $190 forward $46 $-1 #
coedge $-1 $75 $188 $191 $192 forward $46 $-1 #
coedge $-1 $193 $194 $75 $119 reversed $195 $-1 #
edge $-1 $196 -32.977112340794179 $197 32.977112340794179 $118 $198 forward 7 unknown #
face $-1 $199 $200 $28 $-1 $201 reversed single #
loop $-1 $-1 $202 $76 #
plane-surface $-1 -68.234289593537142 -30.977112340794179 0 -1 0 0 0 0 1 forward_v I I I I #
coedge $-1 $203 $204 $205 $206 forward $77 $-1 #
coedge $-1 $207 $79 $208 $209 reversed $49 $-1 #
coedge $-1 $79 $207 $210 $211 reversed $49 $-1 #
coedge $-1 $212 $213 $79 $127 forward $214 $-1 #
edge $-1 $215 -7.1669640221105864 $216 7.1669640221105864 $126 $217 forward 7 unknown #
face $-1 $218 $219 $29 $-1 $220 reversed single #
loop $-1 $-1 $221 $80 #
plane-surface $-1 78.864708063094099 0 4.1669640221105864 0 0 1 1 0 0 forward_v I I I I #
coedge $-1 $222 $223 $133 $224 forward $81 $-1 #
coedge $-1 $225 $83 $226 $227 reversed $52 $-1 #
coedge $-1 $83 $225 $131 $224 reversed $52 $-1 #
coedge $-1 $228 $229 $83 $135 reversed $129 $-1 #
edge $-1 $230 -32.977112340794179 $231 32.977112340794179 $134 $232 forward 7 unknown #
face $-1 $233 $234 $30 $-1 $235 reversed single #
loop $-1 $-1 $236 $84 #
plane-surface $-1 5.6924423557900923 -160.62715467071129 83.666793626178944 1 0 0 0 0.84804810408105047 -0.52991925155115449 forward_v I I I I #
coedge $-1 $237 $238 $239 $240 reversed $85 $-1 #
coedge $-1 $141 $87 $241 $242 reversed $55 $-1 #
coedge $-1 $87 $140 $237 $243 reversed $55 $-1 #
coedge $-1 $239 $244 $87 $143 forward $245 $-1 #
edge $-1 $246 47.336464994561467 $247 49.37651774331232 $142 $248 forward 7 unknown #
loop $-1 $-1 $149 $88 #
plane-surface $-1 22.23797202781877 -32.977112340794193 3.9021970585791621 0 -0.84804810408105047 0.52991925155115449 1 0 0 forward_v I I I I #
loop $-1 $-1 $249 $57 #
coedge $-1 $147 $147 $148 $250 reversed $89 $-1 #
coedge $-1 $148 $148 $147 $250 forward $91 $-1 #
coedge $-1 $149 $149 $92 $150 forward $144 $-1 #
edge $-1 $251 2.2572919429243232e-015 $251 6.2831853071796031 $149 $252 forward 7 unknown #
loop $-1 $-1 $156 $93 #
plane-surface $-1 22.23797202781877 -32.977112340794193 3.9021970585791621 0 -0.84804810408105047 0.52991925155115449 1 0 0 forward_v I I I I #
loop $-1 $-1 $253 $60 #
coedge $-1 $154 $154 $155 $254 reversed $94 $-1 #
coedge $-1 $155 $155 $154 $254 forward $96 $-1 #
coedge $-1 $156 $156 $97 $157 forward $151 $-1 #
edge $-1 $255 2.2572919429243232e-015 $255 6.2831853071796031 $156 $256 forward 7 unknown #
face $-1 $257 $258 $33 $-1 $259 forward single #
loop $-1 $-1 $260 $98 #
plane-surface $-1 -7.0379870153588087 76.447726536226753 161.56827851026583 -1 0 0 0 0.62932039886446345 0.77714595512881146 forward_v I I I I #
coedge $-1 $261 $262 $263 $264 reversed $99 $-1 #
coedge $-1 $163 $101 $265 $266 reversed $64 $-1 #
coedge $-1 $101 $162 $261 $267 reversed $64 $-1 #
coedge $-1 $263 $268 $101 $165 forward $258 $-1 #
edge $-1 $269 5.2467509273191979 $270 10.288491855255344 $164 $271 forward 7 unknown #
loop $-1 $-1 $171 $102 #
plane-surface $-1 -26.889336766405172 -18.278946594159052 44.590581618633436 0 0.62932039886446345 0.77714595512881146 1 0 0 forward_v I I I I #
loop $-1 $-1 $272 $66 #
coedge $-1 $169 $169 $170 $273 reversed $103 $-1 #
coedge $-1 $170 $170 $169 $273 forward $105 $-1 #
coedge $-1 $171 $171 $106 $172 forward $166 $-1 #
edge $-1 $274 -2.3033290324576643e-015 $274 6.2831853071795978 $171 $275 forward 7 unknown #
loop $-1 $-1 $178 $107 #
plane-surface $-1 -26.889336766405172 -18.278946594159052 44.590581618633436 0 0.62932039886446345 0.77714595512881146 1 0 0 forward_v I I I I #
loop $-1 $-1 $276 $69 #
coedge $-1 $176 $176 $177 $277 reversed $108 $-1 #
coedge $-1 $177 $177 $176 $277 forward $110 $-1 #
coedge $-1 $178 $178 $111 $179 forward $173 $-1 #
edge $-1 $278 -2.3033290324576643e-015 $278 6.2831853071795978 $178 $279 forward 7 unknown #
face $-1 $280 $281 $27 $-1 $282 reversed single #
loop $-1 $-1 $283 $112 #
plane-surface $-1 -75.261085848567149 0 0 1 0 0 0 0 -1 forward_v I I I I #
coedge $-1 $284 $191 $285 $286 forward $113 $-1 #
coedge $-1 $287 $115 $284 $288 forward $73 $-1 #
coedge $-1 $115 $287 $289 $290 forward $73 $-1 #
coedge $-1 $194 $193 $115 $187 reversed $195 $-1 #
edge $-1 $291 -32.977112340794179 $292 32.977112340794179 $186 $293 forward 7 unknown #
coedge $-1 $117 $116 $294 $295 forward $46 $-1 #
coedge $-1 $296 $297 $116 $190 reversed $281 $-1 #
edge $-1 $197 -75.261085848567149 $298 75.261085848567149 $189 $299 forward 7 unknown #
coedge $-1 $183 $300 $117 $192 reversed $113 $-1 #
edge $-1 $301 -75.261085848567149 $196 75.261085848567149 $191 $302 forward 7 unknown #
coedge $-1 $186 $118 $300 $303 forward $195 $-1 #
coedge $-1 $118 $186 $296 $304 reversed $195 $-1 #
loop $-1 $-1 $193 $280 #
vertex $-1 $119 $305 #
vertex $-1 $119 $306 #
straight-curve $-1 75.261085848567149 0 7.1669640221105864 0 1 0 I I #
face $-1 $307 $308 $28 $-1 $309 forward single #
loop $-1 $-1 $310 $120 #
plane-surface $-1 0 0 -7.1669640221105864 0 0 1 1 0 0 forward_v I I I I #
coedge $-1 $311 $312 $207 $313 forward $121 $-1 #
coedge $-1 $314 $123 $310 $315 reversed $77 $-1 #
coedge $-1 $123 $314 $316 $317 reversed $77 $-1 #
coedge $-1 $312 $311 $123 $206 reversed $121 $-1 #
edge $-1 $318 -7.1669640221105864 $319 7.1669640221105864 $205 $320 forward 7 unknown #
coedge $-1 $125 $124 $202 $313 reversed $49 $-1 #
coedge $-1 $321 $322 $124 $209 forward $200 $-1 #
edge $-1 $323 32.360445733011069 $215 39.387241988041076 $208 $324 forward 7 unknown #
coedge $-1 $325 $326 $125 $211 forward $308 $-1 #
edge $-1 $216 -39.387241988041076 $327 -32.360445733011069 $210 $328 forward 7 unknown #
coedge $-1 $329 $126 $326 $330 reversed $214 $-1 #
coedge $-1 $126 $329 $321 $331 reversed $214 $-1 #
loop $-1 $-1 $329 $307 #
vertex $-1 $331 $332 #
vertex $-1 $127 $333 #
straight-curve $-1 -75.261085848567149 -32.477112340794179 0 0 0 1 I I #
face $-1 $334 $335 $29 $-1 $336 forward single #
loop $-1 $-1 $337 $128 #
plane-surface $-1 82.46833027762105 0 5.6669640221105864 -1 0 0 0 0 1 forward_v I I I I #
coedge $-1 $229 $228 $338 $339 forward $129 $-1 #
coedge $-1 $340 $131 $341 $342 reversed $81 $-1 #
coedge $-1 $131 $340 $228 $343 reversed $81 $-1 #
edge $-1 $230 4.1669640221105864 $344 7.1669640221105864 $131 $345 forward 7 unknown #
coedge $-1 $133 $132 $346 $347 reversed $52 $-1 #
coedge $-1 $348 $349 $132 $227 forward $350 $-1 #
edge $-1 $351 -7.1669640221105864 $231 -4.1669640221105864 $226 $352 forward 7 unknown #
coedge $-1 $221 $134 $223 $343 forward $129 $-1 #
coedge $-1 $134 $221 $348 $353 forward $129 $-1 #
vertex $-1 $224 $354 #
vertex $-1 $227 $355 #
straight-curve $-1 75.261085848567149 0 4.1669640221105864 0 -1 0 I I #
face $-1 $-1 $245 $30 $-1 $356 forward single #
loop $-1 $-1 $357 $136 #
plane-surface $-1 0 -32.977112340794179 0 0 1 0 0 0 1 forward_v I I I I #
coedge $-1 $358 $359 $360 $361 reversed $137 $-1 #
coedge $-1 $362 $139 $141 $243 forward $85 $-1 #
coedge $-1 $139 $362 $358 $363 forward $85 $-1 #
coedge $-1 $360 $142 $139 $240 forward $245 $-1 #
edge $-1 $247 -27.664515685938063 $364 5.426543658119293 $239 $365 forward 7 unknown #
coedge $-1 $366 $367 $140 $242 forward $234 $-1 #
edge $-1 $368 -37.931199754510288 $246 -34.666432790978888 $241 $369 forward 7 unknown #
edge $-1 $247 -3.8497426594322066 $368 -2.6737665129848107e-014 $141 $370 forward 7 unknown #
coedge $-1 $142 $360 $366 $371 forward $245 $-1 #
loop $-1 $-1 $360 $233 #
vertex $-1 $242 $372 #
vertex $-1 $143 $373 #
straight-curve $-1 38.783501699847449 -80.313577335355646 7.1669640221105837 0 1 0 I I #
coedge $-1 $249 $249 $-1 $374 reversed $146 $-1 #
edge $-1 $375 0 $375 6.2831853071796004 $147 $376 forward 7 unknown #
vertex $-1 $150 $377 #
ellipse-curve $-1 15.147030739806482 -31.957085966418759 5.5345805403448773 0 -0.84804810408105047 0.52991925155115449 0.5 0 0 1 I I #
coedge $-1 $253 $253 $-1 $378 reversed $153 $-1 #
edge $-1 $379 0 $379 6.2831853071796004 $154 $380 forward 7 unknown #
vertex $-1 $157 $381 #
ellipse-curve $-1 29.328913315831073 -31.957085966418759 5.5345805403448773 0 -0.84804810408105047 0.52991925155115449 0.5 0 0 1 I I #
face $-1 $-1 $382 $33 $-1 $383 reversed single #
loop $-1 $-1 $164 $158 #
plane-surface $-1 0 0 7.1669640221105864 0 0 1 1 0 0 forward_v I I I I #
coedge $-1 $384 $385 $386 $387 reversed $159 $-1 #
coedge $-1 $388 $161 $163 $267 forward $99 $-1 #
coedge $-1 $161 $388 $384 $389 forward $99 $-1 #
coedge $-1 $386 $164 $161 $264 forward $258 $-1 #
edge $-1 $270 -33.296018134248953 $390 6.4066813678437775 $263 $391 forward 7 unknown #
coedge $-1 $392 $393 $162 $266 forward $382 $-1 #
edge $-1 $394 -77.699896619913119 $269 -73.617175233022323 $265 $395 forward 7 unknown #
edge $-1 $270 59.466716260984839 $394 65.954224681588371 $163 $396 forward 7 unknown #
coedge $-1 $164 $386 $392 $397 forward $258 $-1 #
vertex $-1 $165 $398 #
vertex $-1 $165 $399 #
straight-curve $-1 -46.740686517451536 38.223863268113377 7.1669640221105908 0 -1 0 I I #
coedge $-1 $272 $272 $-1 $400 reversed $168 $-1 #
edge $-1 $401 0 $401 6.2831853071796004 $169 $402 forward 7 unknown #
vertex $-1 $172 $403 #
ellipse-curve $-1 -35.397058088282186 30.456241876826109 5.1256033286651972 0 0.62932039886446345 0.77714595512881146 1.5 0 0 1 I I #
coedge $-1 $276 $276 $-1 $404 reversed $175 $-1 #
edge $-1 $405 0 $405 6.2831853071796004 $176 $406 forward 7 unknown #
vertex $-1 $179 $407 #
ellipse-curve $-1 -18.381615444528158 30.456241876826109 5.1256033286651972 0 0.62932039886446345 0.77714595512881146 1.5 0 0 1 I I #
face $-1 $-1 $195 $27 $-1 $408 reversed single #
loop $-1 $-1 $296 $180 #
plane-surface $-1 0 32.977112340794179 0 0 -1 0 0 0 -1 forward_v I I I I #
coedge $-1 $409 $294 $297 $410 forward $181 $-1 #
coedge $-1 $300 $183 $184 $288 reversed $113 $-1 #
coedge $-1 $294 $409 $183 $286 reversed $181 $-1 #
edge $-1 $301 -7.1669640221105864 $411 7.1669640221105864 $285 $412 forward 7 unknown #
coedge $-1 $185 $184 $409 $413 forward $73 $-1 #
edge $-1 $292 -75.261085848567149 $411 75.261085848567149 $284 $414 forward 7 unknown #
coedge $-1 $297 $296 $185 $290 reversed $281 $-1 #
edge $-1 $415 -75.261085848567149 $291 75.261085848567149 $289 $416 forward 7 unknown #
vertex $-1 $187 $417 #
vertex $-1 $303 $418 #
straight-curve $-1 75.261085848567149 0 -7.1669640221105864 0 -1 0 I I #
coedge $-1 $283 $285 $188 $295 reversed $181 $-1 #
edge $-1 $298 -32.977112340794179 $301 32.977112340794179 $294 $419 forward 7 unknown #
coedge $-1 $289 $189 $194 $304 forward $281 $-1 #
coedge $-1 $189 $289 $283 $410 reversed $281 $-1 #
vertex $-1 $190 $420 #
straight-curve $-1 0 32.977112340794179 7.1669640221105864 -1 0 0 I I #
coedge $-1 $191 $284 $193 $303 reversed $113 $-1 #
vertex $-1 $295 $421 #
straight-curve $-1 0 -32.977112340794179 7.1669640221105864 1 0 0 I I #
edge $-1 $196 -7.1669640221105864 $292 7.1669640221105864 $193 $422 forward 7 unknown #
edge $-1 $197 -7.1669640221105864 $291 7.1669640221105864 $194 $423 forward 7 unknown #
point $-1 75.261085848567149 -32.977112340794179 7.1669640221105864 #
point $-1 75.261085848567149 32.977112340794179 7.1669640221105864 #
face $-1 $-1 $214 $28 $-1 $424 reversed single #
loop $-1 $-1 $316 $199 #
plane-surface $-1 0 0 7.1669640221105864 0 0 1 1 0 0 forward_v I I I I #
coedge $-1 $322 $321 $203 $315 forward $200 $-1 #
coedge $-1 $205 $202 $322 $425 reversed $121 $-1 #
coedge $-1 $202 $205 $325 $426 reversed $121 $-1 #
edge $-1 $327 -7.1669640221105864 $323 7.1669640221105864 $202 $427 forward 7 unknown #
coedge $-1 $204 $203 $329 $428 reversed $77 $-1 #
edge $-1 $429 -39.387241988041076 $319 -32.360445733011069 $310 $430 forward 7 unknown #
coedge $-1 $326 $325 $204 $317 forward $308 $-1 #
edge $-1 $318 32.360445733011069 $431 39.387241988041076 $316 $432 forward 7 unknown #
vertex $-1 $317 $433 #
vertex $-1 $315 $434 #
straight-curve $-1 -68.234289593537142 -29.477112340794179 0 0 0 -1 I I #
coedge $-1 $310 $208 $213 $331 forward $200 $-1 #
coedge $-1 $208 $310 $311 $425 forward $200 $-1 #
vertex $-1 $209 $435 #
straight-curve $-1 -35.873843860526073 -32.477112340794179 -7.1669640221105864 -1 0 0 I I #
coedge $-1 $316 $210 $312 $426 forward $308 $-1 #
coedge $-1 $210 $316 $212 $330 forward $308 $-1 #
vertex $-1 $211 $436 #
straight-curve $-1 -35.873843860526073 -32.477112340794179 7.1669640221105864 1 0 0 I I #
coedge $-1 $213 $212 $314 $428 forward $214 $-1 #
edge $-1 $431 29.477112340794179 $216 32.477112340794179 $212 $437 forward 7 unknown #
edge $-1 $215 -32.477112340794179 $429 -29.477112340794179 $213 $438 forward 7 unknown #
point $-1 -75.261085848567149 -32.477112340794179 -7.1669640221105864 #
point $-1 -75.261085848567149 -32.477112340794179 7.1669640221105864 #
face $-1 $-1 $350 $29 $-1 $439 reversed single #
loop $-1 $-1 $346 $218 #
plane-surface $-1 0 0 7.1669640221105864 0 0 1 1 0 0 forward_v I I I I #
coedge $-1 $338 $440 $441 $442 forward $219 $-1 #
coedge $-1 $443 $337 $221 $339 reversed $219 $-1 #
edge $-1 $444 -32.977112340794179 $445 32.977112340794179 $338 $446 forward 7 unknown #
coedge $-1 $223 $222 $443 $447 forward $81 $-1 #
coedge $-1 $346 $448 $222 $342 forward $335 $-1 #
edge $-1 $449 -82.46833027762105 $344 -75.261085848567149 $222 $450 forward 7 unknown #
edge $-1 $230 -3.6036222145269505 $444 3.6036222145269505 $223 $451 forward 7 unknown #
vertex $-1 $224 $452 #
straight-curve $-1 75.261085848567149 32.977112340794179 0 0 0 1 I I #
coedge $-1 $453 $341 $225 $347 forward $335 $-1 #
edge $-1 $344 -32.977112340794179 $351 32.977112340794179 $346 $454 forward 7 unknown #
coedge $-1 $441 $226 $229 $353 reversed $350 $-1 #
coedge $-1 $226 $441 $453 $455 reversed $350 $-1 #
loop $-1 $-1 $226 $334 #
vertex $-1 $455 $456 #
straight-curve $-1 75.261085848567149 -32.977112340794179 0 0 0 -1 I I #
edge $-1 $445 -3.6036222145269505 $231 3.6036222145269505 $348 $457 forward 7 unknown #
point $-1 75.261085848567149 32.977112340794179 4.1669640221105864 #
point $-1 75.261085848567149 -32.977112340794179 4.1669640221105864 #
plane-surface $-1 0 0 7.1669640221105864 0 0 1 1 0 0 forward_v I I I I #
coedge $-1 $367 $366 $359 $458 forward $234 $-1 #
coedge $-1 $359 $236 $238 $363 reversed $137 $-1 #
coedge $-1 $236 $358 $357 $458 reversed $137 $-1 #
coedge $-1 $244 $239 $236 $361 forward $245 $-1 #
edge $-1 $364 -49.37651774331232 $459 -47.336464994561467 $360 $460 forward 7 unknown #
coedge $-1 $238 $237 $367 $461 reversed $85 $-1 #
edge $-1 $462 2.6737665129848107e-014 $364 3.8497426594322066 $358 $463 forward 7 unknown #
vertex $-1 $240 $464 #
straight-curve $-1 11.118986013909385 -30.937059592043326 7.1669640221105864 -1 0 0 I I #
coedge $-1 $357 $241 $244 $371 reversed $234 $-1 #
coedge $-1 $241 $357 $362 $461 forward $234 $-1 #
vertex $-1 $242 $465 #
straight-curve $-1 38.783501699847449 -32.977112340794179 41.833396813089472 0 0 1 I I #
straight-curve $-1 38.783501699847449 -32.977112340794193 3.9021970585791621 0 -0.52991925155115449 -0.84804810408105047 I I #
edge $-1 $459 -73.172265707304007 $246 -40.08120636324665 $366 $466 forward 7 unknown #
point $-1 38.783501699847449 -32.977112340794179 7.1669640221105864 #
point $-1 38.783501699847449 -30.937059592043326 7.1669640221105864 #
edge $-1 $467 1 $467 0 $249 $-1 forward 7 unknown #
vertex $-1 $250 $468 #
ellipse-curve $-1 15.147030739806482 -30.760509165978327 4.786876395424974 0 -0.84804810408105047 0.52991925155115449 0.5 0 0 1 I I #
point $-1 15.647030739806482 -31.957085966418749 5.534580540344872 #
edge $-1 $469 1 $469 0 $253 $-1 forward 7 unknown #
vertex $-1 $254 $470 #
ellipse-curve $-1 29.328913315831073 -30.760509165978327 4.786876395424974 0 -0.84804810408105047 0.52991925155115449 0.5 0 0 1 I I #
point $-1 29.828913315831073 -31.957085966418749 5.534580540344872 #
loop $-1 $-1 $265 $257 #
plane-surface $-1 0 32.977112340794179 0 0 -1 0 0 0 -1 forward_v I I I I #
coedge $-1 $385 $260 $262 $389 reversed $159 $-1 #
coedge $-1 $260 $384 $471 $472 reversed $159 $-1 #
coedge $-1 $268 $263 $260 $387 forward $258 $-1 #
edge $-1 $390 -10.288491855255344 $473 -5.2467509273191979 $386 $474 forward 7 unknown #
coedge $-1 $262 $261 $393 $475 reversed $99 $-1 #
edge $-1 $476 -65.954224681588371 $390 -59.466716260984839 $384 $477 forward 7 unknown #
vertex $-1 $264 $478 #
straight-curve $-1 -13.444668383202586 27.935371412858036 7.1669640221105837 1 0 0 I I #
coedge $-1 $471 $265 $268 $397 reversed $382 $-1 #
coedge $-1 $265 $471 $388 $475 forward $382 $-1 #
vertex $-1 $266 $479 #
straight-curve $-1 -46.740686517451536 32.977112340794179 80.784139255132914 0 0 1 I I #
straight-curve $-1 -46.740686517451536 -18.278946594159052 44.590581618633436 0 0.77714595512881146 -0.62932039886446345 I I #
edge $-1 $473 7.0379870153588087 $269 46.740686517451536 $392 $480 forward 7 unknown #
point $-1 -46.740686517451536 32.977112340794179 7.1669640221105864 #
point $-1 -46.740686517451536 27.935371412858032 7.1669640221105837 #
edge $-1 $481 1 $481 0 $272 $-1 forward 7 unknown #
vertex $-1 $273 $482 #
ellipse-curve $-1 -35.397058088282186 29.083498705072909 3.4304067240681571 0 0.62932039886446345 0.77714595512881146 1.5 0 0 1 I I #
point $-1 -33.897058088282186 30.45624187682612 5.1256033286652158 #
edge $-1 $483 1 $483 0 $276 $-1 forward 7 unknown #
vertex $-1 $277 $484 #
ellipse-curve $-1 -18.381615444528158 29.083498705072909 3.4304067240681571 0 0.62932039886446345 0.77714595512881146 1.5 0 0 1 I I #
point $-1 -16.881615444528158 30.45624187682612 5.1256033286652158 #
plane-surface $-1 75.261085848567149 0 0 -1 0 0 0 0 1 forward_v I I I I #
coedge $-1 $285 $283 $287 $413 reversed $181 $-1 #
edge $-1 $298 -7.1669640221105864 $415 7.1669640221105864 $297 $485 forward 7 unknown #
vertex $-1 $413 $486 #
straight-curve $-1 -75.261085848567149 -32.977112340794179 0 0 0 -1 I I #
edge $-1 $411 -32.977112340794179 $415 32.977112340794179 $409 $487 forward 7 unknown #
straight-curve $-1 0 -32.977112340794179 -7.1669640221105864 -1 0 0 I I #
vertex $-1 $290 $488 #
straight-curve $-1 0 32.977112340794179 -7.1669640221105864 1 0 0 I I #
point $-1 75.261085848567149 32.977112340794179 -7.1669640221105864 #
point $-1 75.261085848567149 -32.977112340794179 -7.1669640221105864 #
straight-curve $-1 -75.261085848567149 0 7.1669640221105864 0 -1 0 I I #
point $-1 -75.261085848567149 32.977112340794179 7.1669640221105864 #
point $-1 -75.261085848567149 -32.977112340794179 7.1669640221105864 #
straight-curve $-1 75.261085848567149 -32.977112340794179 0 0 0 -1 I I #
straight-curve $-1 75.261085848567149 32.977112340794179 0 0 0 -1 I I #
plane-surface $-1 -75.261085848567149 0 0 1 0 0 0 0 -1 forward_v I I I I #
edge $-1 $319 13.988556170397089 $323 16.988556170397089 $322 $489 forward 7 unknown #
edge $-1 $327 -16.988556170397089 $318 -13.988556170397089 $325 $490 forward 7 unknown #
straight-curve $-1 -68.234289593537142 -32.477112340794179 0 0 0 -1 I I #
edge $-1 $431 -7.1669640221105864 $429 7.1669640221105864 $329 $491 forward 7 unknown #
vertex $-1 $428 $492 #
straight-curve $-1 -35.873843860526073 -29.477112340794179 -7.1669640221105864 1 0 0 I I #
vertex $-1 $330 $493 #
straight-curve $-1 -35.873843860526073 -29.477112340794179 7.1669640221105864 -1 0 0 I I #
point $-1 -68.234289593537142 -29.477112340794179 7.1669640221105864 #
point $-1 -68.234289593537142 -29.477112340794179 -7.1669640221105864 #
point $-1 -68.234289593537142 -32.477112340794179 -7.1669640221105864 #
point $-1 -68.234289593537142 -32.477112340794179 7.1669640221105864 #
straight-curve $-1 -75.261085848567149 0 7.1669640221105864 0 -1 0 I I #
straight-curve $-1 -75.261085848567149 0 -7.1669640221105864 0 1 0 I I #
plane-surface $-1 0 -32.977112340794179 0 0 1 0 0 0 1 forward_v I I I I #
coedge $-1 $337 $443 $448 $494 reversed $219 $-1 #
coedge $-1 $349 $348 $337 $442 reversed $350 $-1 #
edge $-1 $495 -1.5 $445 1.5 $337 $496 forward 7 unknown #
coedge $-1 $440 $338 $340 $447 reversed $219 $-1 #
vertex $-1 $339 $497 #
vertex $-1 $442 $498 #
straight-curve $-1 82.46833027762105 0 4.1669640221105864 0 -1 0 I I #
edge $-1 $449 -1.5 $444 1.5 $443 $499 forward 7 unknown #
coedge $-1 $341 $453 $440 $494 forward $335 $-1 #
vertex $-1 $494 $500 #
straight-curve $-1 0 32.977112340794179 7.1669640221105864 -1 0 0 I I #
straight-curve $-1 78.864708063094099 32.977112340794179 4.1669640221105864 1 0 0 I I #
point $-1 75.261085848567149 32.977112340794179 7.1669640221105864 #
coedge $-1 $448 $346 $349 $455 forward $335 $-1 #
straight-curve $-1 75.261085848567149 0 7.1669640221105864 0 -1 0 I I #
edge $-1 $351 -3.6036222145269505 $495 3.6036222145269505 $349 $501 forward 7 unknown #
point $-1 75.261085848567149 -32.977112340794179 7.1669640221105864 #
straight-curve $-1 78.864708063094099 -32.977112340794179 4.1669640221105864 -1 0 0 I I #
edge $-1 $459 34.666432790978888 $462 37.931199754510288 $357 $502 forward 7 unknown #
vertex $-1 $371 $503 #
straight-curve $-1 5.6924423557900923 -80.313577335355646 7.1669640221105837 0 -1 0 I I #
edge $-1 $462 -5.426543658119293 $368 27.664515685938063 $367 $504 forward 7 unknown #
vertex $-1 $461 $505 #
straight-curve $-1 5.6924423557900923 -32.977112340794193 3.9021970585791621 0 0.52991925155115449 0.84804810408105047 I I #
point $-1 5.6924423557900923 -30.937059592043326 7.1669640221105864 #
point $-1 38.783501699847449 -32.977112340794179 3.9021970585791848 #
straight-curve $-1 78.864708063094099 -32.977112340794179 7.1669640221105864 1 0 0 I I #
vertex $-1 $374 $506 #
point $-1 15.647030739806482 -30.760509165978327 4.786876395424974 #
vertex $-1 $378 $507 #
point $-1 29.828913315831073 -30.760509165978327 4.786876395424974 #
coedge $-1 $393 $392 $385 $472 forward $382 $-1 #
edge $-1 $473 73.617175233022323 $476 77.699896619913119 $471 $508 forward 7 unknown #
vertex $-1 $397 $509 #
straight-curve $-1 -7.0379870153588087 38.223863268113377 7.1669640221105908 0 1 0 I I #
edge $-1 $476 -6.4066813678437775 $394 33.296018134248953 $393 $510 forward 7 unknown #
vertex $-1 $475 $511 #
straight-curve $-1 -7.0379870153588087 -18.278946594159052 44.590581618633436 0 -0.77714595512881146 0.62932039886446345 I I #
point $-1 -7.0379870153588087 27.935371412858032 7.1669640221105837 #
point $-1 -46.740686517451536 32.977112340794172 3.0842426352198018 #
straight-curve $-1 0 32.977112340794179 7.1669640221105864 -1 0 0 I I #
vertex $-1 $400 $512 #
point $-1 -33.897058088282186 29.083498705072909 3.4304067240681571 #
vertex $-1 $404 $513 #
point $-1 -16.881615444528158 29.083498705072909 3.4304067240681571 #
straight-curve $-1 -75.261085848567149 32.977112340794179 0 0 0 -1 I I #
point $-1 -75.261085848567149 -32.977112340794179 -7.1669640221105864 #
straight-curve $-1 -75.261085848567149 0 -7.1669640221105864 0 1 0 I I #
point $-1 -75.261085848567149 32.977112340794179 -7.1669640221105864 #
straight-curve $-1 -68.234289593537142 -15.488556170397089 -7.1669640221105864 0 -1 0 I I #
straight-curve $-1 -68.234289593537142 -15.488556170397089 7.1669640221105864 0 1 0 I I #
straight-curve $-1 -75.261085848567149 -29.477112340794179 0 0 0 -1 I I #
point $-1 -75.261085848567149 -29.477112340794179 -7.1669640221105864 #
point $-1 -75.261085848567149 -29.477112340794179 7.1669640221105864 #
edge $-1 $495 -32.977112340794179 $449 32.977112340794179 $440 $514 forward 7 unknown #
vertex $-1 $494 $515 #
straight-curve $-1 82.46833027762105 -32.977112340794179 5.6669640221105864 0 0 -1 I I #
point $-1 82.46833027762105 32.977112340794179 4.1669640221105864 #
point $-1 82.46833027762105 -32.977112340794179 4.1669640221105864 #
straight-curve $-1 82.46833027762105 32.977112340794179 5.6669640221105864 0 0 -1 I I #
point $-1 82.46833027762105 32.977112340794179 7.1669640221105864 #
straight-curve $-1 78.864708063094099 -32.977112340794179 7.1669640221105864 1 0 0 I I #
straight-curve $-1 5.6924423557900923 -32.977112340794179 41.833396813089472 0 0 -1 I I #
point $-1 5.6924423557900923 -32.977112340794179 7.1669640221105864 #
straight-curve $-1 11.118986013909385 -32.977112340794179 3.9021970585791852 1 0 0 I I #
point $-1 5.6924423557900923 -32.977112340794179 3.9021970585791848 #
point $-1 15.147030739806482 -30.336485113937805 4.5219167696493976 #
point $-1 29.328913315831073 -30.336485113937805 4.5219167696493976 #
straight-curve $-1 -7.0379870153588087 32.977112340794179 80.784139255132914 0 0 -1 I I #
point $-1 -7.0379870153588087 32.977112340794179 7.1669640221105864 #
straight-curve $-1 -13.444668383202586 32.977112340794179 3.0842426352197982 -1 0 0 I I #
point $-1 -7.0379870153588087 32.977112340794172 3.0842426352198018 #
point $-1 -35.397058088282186 28.139518106776212 2.2646877913749401 #
point $-1 -18.381615444528158 28.139518106776212 2.2646877913749401 #
straight-curve $-1 82.46833027762105 0 7.1669640221105864 0 1 0 I I #
point $-1 82.46833027762105 -32.977112340794179 7.1669640221105864 #
End-of-ACIS-data 