500 0 11 0           
7 Unknown 11 ACIS 5.0 NT 24 Thu Mar 25 16:06:47 1999 
-1 9.9999999999999995e-007 1e-010 
body $-1 $11 $-1 $12 #
body $-1 $13 $-1 $14 #
body $-1 $15 $-1 $16 #
body $-1 $17 $-1 $18 #
body $-1 $19 $-1 $20 #
body $-1 $21 $-1 $22 #
body $-1 $23 $-1 $24 #
body $-1 $25 $-1 $26 #
body $-1 $27 $-1 $28 #
body $-1 $29 $-1 $30 #
body $-1 $31 $-1 $32 #
lump $-1 $-1 $33 $0 #
transform $-1 1 0 0 0 1 0 0 0 1 40.207525864436782 19.746929883072049 6.3781733790240587 1 rotate no_reflect no_shear #
lump $-1 $-1 $34 $1 #
transform $-1 1 0 0 0 1 0 0 0 1 40.207525864436782 19.746929883072049 6.3781733790240587 1 rotate no_reflect no_shear #
lump $-1 $-1 $35 $2 #
transform $-1 1 0 0 0 1 0 0 0 1 40.207525864436782 19.746929883072049 6.3781733790240587 1 rotate no_reflect no_shear #
lump $-1 $-1 $36 $3 #
transform $-1 1 0 0 0 1 0 0 0 1 40.207525864436782 19.746929883072049 6.3781733790240587 1 rotate no_reflect no_shear #
lump $-1 $-1 $37 $4 #
transform $-1 1 0 0 0 1 0 0 0 1 40.207525864436782 19.746929883072049 6.3781733790240587 1 rotate no_reflect no_shear #
lump $-1 $-1 $38 $5 #
transform $-1 1 0 0 0 1 0 0 0 1 40.207525864436782 19.746929883072049 6.3781733790240587 1 rotate no_reflect no_shear #
lump $-1 $-1 $39 $6 #
transform $-1 1 0 0 0 1 0 0 0 1 40.207525864436782 19.746929883072049 6.3781733790240587 1 rotate no_reflect no_shear #
lump $-1 $-1 $40 $7 #
transform $-1 1 0 0 0 1 0 0 0 1 40.207525864436782 19.746929883072049 6.3781733790240587 1 rotate no_reflect no_shear #
lump $-1 $-1 $41 $8 #
transform $-1 1 0 0 0 1 0 0 0 1 40.207525864436782 19.746929883072049 6.3781733790240587 1 rotate no_reflect no_shear #
lump $-1 $-1 $42 $9 #
transform $-1 1 0 0 0 1 0 0 0 1 40.207525864436782 19.746929883072049 6.3781733790240587 1 rotate no_reflect no_shear #
lump $-1 $-1 $43 $10 #
transform $-1 1 0 0 0 1 0 0 0 1 40.207525864436782 19.746929883072049 6.3781733790240587 1 rotate no_reflect no_shear #
shell $-1 $-1 $-1 $44 $-1 $11 #
shell $-1 $-1 $-1 $45 $-1 $13 #
shell $-1 $-1 $-1 $46 $-1 $15 #
shell $-1 $-1 $-1 $47 $-1 $17 #
shell $-1 $-1 $-1 $48 $-1 $19 #
shell $-1 $-1 $-1 $49 $-1 $21 #
shell $-1 $-1 $-1 $50 $-1 $23 #
shell $-1 $-1 $-1 $51 $-1 $25 #
shell $-1 $-1 $-1 $52 $-1 $27 #
shell $-1 $-1 $-1 $53 $-1 $29 #
shell $-1 $-1 $-1 $54 $-1 $31 #
face $-1 $55 $56 $33 $-1 $57 forward single #
face $-1 $58 $59 $34 $-1 $60 reversed single #
face $-1 $61 $62 $35 $-1 $63 reversed single #
face $-1 $64 $65 $36 $-1 $66 forward single #
face $-1 $67 $68 $37 $-1 $69 forward single #
face $-1 $70 $71 $38 $-1 $72 reversed single #
face $-1 $73 $74 $39 $-1 $75 forward single #
face $-1 $76 $77 $40 $-1 $78 forward single #
face $-1 $79 $80 $41 $-1 $81 reversed single #
face $-1 $82 $83 $42 $-1 $84 forward single #
face $-1 $85 $86 $43 $-1 $87 forward single #
face $-1 $88 $89 $33 $-1 $90 reversed single #
loop $-1 $-1 $91 $44 #
plane-surface $-1 0 0 6.3781733790240587 0 0 1 1 0 0 forward_v I I I I #
face $-1 $92 $93 $34 $-1 $94 reversed single #
loop $-1 $-1 $95 $45 #
plane-surface $-1 -34.455309823336542 -17.463430136412128 0 1 0 0 0 0 -1 forward_v I I I I #
face $-1 $96 $97 $35 $-1 $98 reversed single #
loop $-1 $-1 $99 $46 #
plane-surface $-1 -92.964547259470052 8.6709660533569917 60.712793772582629 0 1 0 -0.6560590369687036 0 0.75470957328743171 forward_v I I I I #
face $-1 $100 $101 $36 $-1 $102 forward single #
loop $-1 $103 $104 $47 #
cone-surface $-1 -35.431348356831755 11.167553592822308 1.9113090863480133 0.6560590369687036 0 -0.75470957328743171 0.75470957328743171 0 0.6560590369687036 1 I I 0 1 1 forward I I I I #
face $-1 $105 $106 $37 $-1 $107 forward single #
loop $-1 $108 $109 $48 #
cone-surface $-1 -35.431348356831755 14.912434902020287 1.9113090863480133 0.6560590369687036 0 -0.75470957328743171 0.75470957328743171 0 0.6560590369687036 1 I I 0 1 1 forward I I I I #
face $-1 $110 $111 $38 $-1 $112 reversed single #
loop $-1 $-1 $113 $49 #
plane-surface $-1 22.417164923401124 -2.7887320646764406 114.0842001270512 0 -1 0 -0.5877852598018023 0 -0.80901698891910034 forward_v I I I I #
face $-1 $114 $115 $39 $-1 $116 forward single #
loop $-1 $117 $118 $50 #
cone-surface $-1 36.604158415268941 -8.7026208943546077 3.4837504145552014 -0.5877852598018023 0 -0.80901698891910034 0.40450849445955017 0 -0.29389262990090115 1 I I 0 1 0.5 forward I I I I #
face $-1 $119 $120 $40 $-1 $121 forward single #
loop $-1 $122 $123 $51 #
cone-surface $-1 36.604158415268941 -5.1542875965477073 3.4837504145552014 -0.5877852598018023 0 -0.80901698891910034 0.40450849445955017 0 -0.29389262990090115 1 I I 0 1 0.5 forward I I I I #
face $-1 $124 $125 $41 $-1 $126 reversed single #
loop $-1 $-1 $127 $52 #
plane-surface $-1 22.417164923401124 15.635175919545723 114.0842001270512 0 -1 0 -0.5877852598018023 0 -0.80901698891910034 forward_v I I I I #
face $-1 $128 $129 $42 $-1 $130 forward single #
loop $-1 $131 $132 $53 #
cone-surface $-1 36.604158415268941 9.721287089867559 3.4837504145552014 -0.5877852598018023 0 -0.80901698891910034 0.40450849445955017 0 -0.29389262990090115 1 I I 0 1 0.5 forward I I I I #
face $-1 $133 $134 $43 $-1 $135 forward single #
loop $-1 $136 $137 $54 #
cone-surface $-1 36.604158415268941 13.269620387674458 3.4837504145552014 -0.5877852598018023 0 -0.80901698891910034 0.40450849445955017 0 -0.29389262990090115 1 I I 0 1 0.5 forward I I I I #
face $-1 $138 $139 $33 $-1 $140 reversed single #
loop $-1 $-1 $141 $55 #
plane-surface $-1 0 0 -6.3781733790240587 0 0 1 1 0 0 forward_v I I I I #
coedge $-1 $142 $143 $144 $145 forward $56 $-1 #
face $-1 $146 $147 $34 $-1 $148 reversed single #
loop $-1 $-1 $149 $58 #
plane-surface $-1 -32.955309823336542 -15.179930389752206 0 0 -1 0 0 0 -1 forward_v I I I I #
coedge $-1 $150 $151 $152 $153 forward $59 $-1 #
face $-1 $154 $155 $35 $-1 $156 reversed single #
loop $-1 $-1 $157 $61 #
plane-surface $-1 -40.207525864436775 13.039994247421298 0.022784396397710793 -0.6560590369687036 0 0.75470957328743171 0.75470957328743171 0 0.6560590369687036 forward_v I I I I #
coedge $-1 $158 $159 $160 $161 reversed $62 $-1 #
face $-1 $-1 $162 $36 $-1 $163 forward single #
loop $-1 $164 $165 $64 #
cone-surface $-1 -33.982660603303188 11.167553592822308 0.24478449834141802 0.6560590369687036 0 -0.75470957328743171 0.37735478664371586 0 0.3280295184843518 1 I I -0.70710678118654746 0.70710678118654746 0.5 forward I I I I #
loop $-1 $-1 $166 $47 #
coedge $-1 $104 $104 $167 $168 reversed $65 $-1 #
face $-1 $-1 $169 $37 $-1 $170 forward single #
loop $-1 $171 $172 $67 #
cone-surface $-1 -33.982660603303188 14.912434902020287 0.24478449834141802 0.6560590369687036 0 -0.75470957328743171 0.37735478664371586 0 0.3280295184843518 1 I I -0.70710678118654746 0.70710678118654746 0.5 forward I I I I #
loop $-1 $-1 $173 $48 #
coedge $-1 $109 $109 $174 $175 reversed $68 $-1 #
face $-1 $176 $177 $38 $-1 $178 reversed single #
loop $-1 $-1 $179 $70 #
plane-surface $-1 -24.849617149030195 -6.9284542454511566 49.02705711358422 0.5877852598018023 0 0.80901698891910034 0.80901698891910034 0 -0.5877852598018023 forward_v I I I I #
coedge $-1 $180 $181 $182 $183 reversed $71 $-1 #
face $-1 $-1 $184 $39 $-1 $185 forward single #
loop $-1 $186 $187 $73 #
cone-surface $-1 36.03184048052784 -8.7026208943546077 2.6960223717921572 -0.5877852598018023 0 -0.80901698891910034 0.20225424722977509 0 -0.14694631495045057 1 I I -0.70710678118654746 0.70710678118654746 0.25 forward I I I I #
loop $-1 $-1 $188 $50 #
coedge $-1 $118 $118 $189 $190 reversed $74 $-1 #
face $-1 $-1 $191 $40 $-1 $192 forward single #
loop $-1 $193 $194 $76 #
cone-surface $-1 36.03184048052784 -5.1542875965477073 2.6960223717921572 -0.5877852598018023 0 -0.80901698891910034 0.20225424722977509 0 -0.14694631495045057 1 I I -0.70710678118654746 0.70710678118654746 0.25 forward I I I I #
loop $-1 $-1 $195 $51 #
coedge $-1 $123 $123 $196 $197 reversed $77 $-1 #
face $-1 $198 $199 $41 $-1 $200 reversed single #
loop $-1 $-1 $201 $79 #
plane-surface $-1 -24.849617149030195 11.495453738771008 49.02705711358422 0.5877852598018023 0 0.80901698891910034 0.80901698891910034 0 -0.5877852598018023 forward_v I I I I #
coedge $-1 $202 $203 $204 $205 reversed $80 $-1 #
face $-1 $-1 $206 $42 $-1 $207 forward single #
loop $-1 $208 $209 $82 #
cone-surface $-1 36.03184048052784 9.721287089867559 2.6960223717921572 -0.5877852598018023 0 -0.80901698891910034 0.20225424722977509 0 -0.14694631495045057 1 I I -0.70710678118654746 0.70710678118654746 0.25 forward I I I I #
loop $-1 $-1 $210 $53 #
coedge $-1 $132 $132 $211 $212 reversed $83 $-1 #
face $-1 $-1 $213 $43 $-1 $214 forward single #
loop $-1 $215 $216 $85 #
cone-surface $-1 36.03184048052784 13.269620387674458 2.6960223717921572 -0.5877852598018023 0 -0.80901698891910034 0.20225424722977509 0 -0.14694631495045057 1 I I -0.70710678118654746 0.70710678118654746 0.25 forward I I I I #
loop $-1 $-1 $217 $54 #
coedge $-1 $137 $137 $218 $219 reversed $86 $-1 #
face $-1 $220 $221 $33 $-1 $222 reversed single #
loop $-1 $-1 $223 $88 #
plane-surface $-1 0 -19.746929883072049 0 0 1 0 0 0 1 forward_v I I I I #
coedge $-1 $224 $225 $226 $227 forward $89 $-1 #
coedge $-1 $228 $91 $229 $230 forward $56 $-1 #
coedge $-1 $91 $228 $231 $232 forward $56 $-1 #
coedge $-1 $233 $234 $91 $145 reversed $235 $-1 #
edge $-1 $236 -19.746929883072049 $237 19.746929883072049 $144 $238 forward 7 unknown #
face $-1 $239 $240 $34 $-1 $241 forward single #
loop $-1 $-1 $242 $92 #
plane-surface $-1 -31.455309823336542 -17.463430136412128 0 -1 0 0 0 0 1 forward_v I I I I #
coedge $-1 $243 $244 $245 $246 forward $93 $-1 #
coedge $-1 $247 $95 $248 $249 reversed $59 $-1 #
coedge $-1 $95 $247 $250 $251 reversed $59 $-1 #
coedge $-1 $244 $243 $95 $153 reversed $93 $-1 #
edge $-1 $252 -6.3781733790240587 $253 6.3781733790240587 $152 $254 forward 7 unknown #
face $-1 $255 $256 $35 $-1 $257 reversed single #
loop $-1 $-1 $258 $96 #
plane-surface $-1 -92.964547259470052 17.409022441485604 60.712793772582629 0 -1 0 0.6560590369687036 0 -0.75470957328743171 forward_v I I I I #
coedge $-1 $259 $260 $261 $262 reversed $97 $-1 #
coedge $-1 $159 $99 $263 $264 reversed $62 $-1 #
coedge $-1 $99 $158 $259 $265 reversed $62 $-1 #
coedge $-1 $261 $266 $99 $161 forward $267 $-1 #
edge $-1 $268 6.274747765298244 $269 13.585786310419891 $160 $270 forward 7 unknown #
loop $-1 $-1 $167 $100 #
plane-surface $-1 -40.207525864436775 13.039994247421298 0.022784396397710793 -0.6560590369687036 0 0.75470957328743171 0.75470957328743171 0 0.6560590369687036 forward_v I I I I #
loop $-1 $-1 $271 $64 #
coedge $-1 $165 $165 $166 $272 reversed $101 $-1 #
coedge $-1 $166 $166 $165 $272 forward $103 $-1 #
coedge $-1 $167 $167 $104 $168 forward $162 $-1 #
edge $-1 $273 0 $273 6.2831853071796004 $167 $274 forward 7 unknown #
loop $-1 $-1 $174 $105 #
plane-surface $-1 -40.207525864436775 13.039994247421298 0.022784396397710793 -0.6560590369687036 0 0.75470957328743171 0.75470957328743171 0 0.6560590369687036 forward_v I I I I #
loop $-1 $-1 $275 $67 #
coedge $-1 $172 $172 $173 $276 reversed $106 $-1 #
coedge $-1 $173 $173 $172 $276 forward $108 $-1 #
coedge $-1 $174 $174 $109 $175 forward $169 $-1 #
edge $-1 $277 0 $277 6.2831853071796004 $174 $278 forward 7 unknown #
face $-1 $279 $280 $38 $-1 $281 forward single #
loop $-1 $-1 $282 $110 #
plane-surface $-1 22.417164923401124 -11.068176426225872 114.0842001270512 0 1 0 0.5877852598018023 0 0.80901698891910034 forward_v I I I I #
coedge $-1 $283 $284 $285 $286 reversed $111 $-1 #
coedge $-1 $181 $113 $287 $288 reversed $71 $-1 #
coedge $-1 $113 $180 $283 $289 reversed $71 $-1 #
coedge $-1 $285 $290 $113 $183 forward $280 $-1 #
edge $-1 $291 -28.99894340273622 $292 -22.642951743981822 $182 $293 forward 7 unknown #
loop $-1 $-1 $189 $114 #
plane-surface $-1 -24.849617149030195 -6.9284542454511566 49.02705711358422 0.5877852598018023 0 0.80901698891910034 0.80901698891910034 0 -0.5877852598018023 forward_v I I I I #
loop $-1 $-1 $294 $73 #
coedge $-1 $187 $187 $188 $295 reversed $115 $-1 #
coedge $-1 $188 $188 $187 $295 forward $117 $-1 #
coedge $-1 $189 $189 $118 $190 forward $184 $-1 #
edge $-1 $296 0 $296 6.2831853071796004 $189 $297 forward 7 unknown #
loop $-1 $-1 $196 $119 #
plane-surface $-1 -24.849617149030195 -6.9284542454511566 49.02705711358422 0.5877852598018023 0 0.80901698891910034 0.80901698891910034 0 -0.5877852598018023 forward_v I I I I #
loop $-1 $-1 $298 $76 #
coedge $-1 $194 $194 $195 $299 reversed $120 $-1 #
coedge $-1 $195 $195 $194 $299 forward $122 $-1 #
coedge $-1 $196 $196 $123 $197 forward $191 $-1 #
edge $-1 $300 0 $300 6.2831853071796004 $196 $301 forward 7 unknown #
face $-1 $302 $303 $41 $-1 $304 reversed single #
loop $-1 $-1 $305 $124 #
plane-surface $-1 22.417164923401124 7.3557315579962923 114.0842001270512 0 1 0 0.5877852598018023 0 0.80901698891910034 forward_v I I I I #
coedge $-1 $306 $307 $308 $309 reversed $125 $-1 #
coedge $-1 $203 $127 $310 $311 reversed $80 $-1 #
coedge $-1 $127 $202 $306 $312 reversed $80 $-1 #
coedge $-1 $308 $313 $127 $205 forward $314 $-1 #
edge $-1 $315 -28.99894340273622 $316 -22.642951743981822 $204 $317 forward 7 unknown #
loop $-1 $-1 $211 $128 #
plane-surface $-1 -24.849617149030195 11.495453738771008 49.02705711358422 0.5877852598018023 0 0.80901698891910034 0.80901698891910034 0 -0.5877852598018023 forward_v I I I I #
loop $-1 $-1 $318 $82 #
coedge $-1 $209 $209 $210 $319 reversed $129 $-1 #
coedge $-1 $210 $210 $209 $319 forward $131 $-1 #
coedge $-1 $211 $211 $132 $212 forward $206 $-1 #
edge $-1 $320 0 $320 6.2831853071796004 $211 $321 forward 7 unknown #
loop $-1 $-1 $218 $133 #
plane-surface $-1 -24.849617149030195 11.495453738771008 49.02705711358422 0.5877852598018023 0 0.80901698891910034 0.80901698891910034 0 -0.5877852598018023 forward_v I I I I #
loop $-1 $-1 $322 $85 #
coedge $-1 $216 $216 $217 $323 reversed $134 $-1 #
coedge $-1 $217 $217 $216 $323 forward $136 $-1 #
coedge $-1 $218 $218 $137 $219 forward $213 $-1 #
edge $-1 $324 0 $324 6.2831853071796004 $218 $325 forward 7 unknown #
face $-1 $326 $327 $33 $-1 $328 reversed single #
loop $-1 $-1 $329 $138 #
plane-surface $-1 -40.207525864436782 0 0 1 0 0 0 0 -1 forward_v I I I I #
coedge $-1 $330 $231 $331 $332 forward $139 $-1 #
coedge $-1 $333 $141 $330 $334 forward $89 $-1 #
coedge $-1 $141 $333 $335 $336 forward $89 $-1 #
coedge $-1 $234 $233 $141 $227 reversed $235 $-1 #
edge $-1 $337 -19.746929883072049 $338 19.746929883072049 $226 $339 forward 7 unknown #
coedge $-1 $143 $142 $340 $341 forward $56 $-1 #
coedge $-1 $342 $343 $142 $230 reversed $327 $-1 #
edge $-1 $237 -40.207525864436782 $344 40.207525864436782 $229 $345 forward 7 unknown #
coedge $-1 $223 $346 $143 $232 reversed $139 $-1 #
edge $-1 $347 -40.207525864436782 $236 40.207525864436782 $231 $348 forward 7 unknown #
coedge $-1 $226 $144 $346 $349 forward $235 $-1 #
coedge $-1 $144 $226 $342 $350 reversed $235 $-1 #
loop $-1 $-1 $233 $326 #
vertex $-1 $145 $351 #
vertex $-1 $145 $352 #
straight-curve $-1 40.207525864436782 0 6.3781733790240587 0 1 0 I I #
face $-1 $353 $354 $34 $-1 $355 reversed single #
loop $-1 $-1 $356 $146 #
plane-surface $-1 0 0 6.3781733790240587 0 0 1 1 0 0 forward_v I I I I #
coedge $-1 $357 $358 $359 $360 reversed $147 $-1 #
coedge $-1 $152 $149 $361 $362 reversed $93 $-1 #
coedge $-1 $149 $152 $363 $364 reversed $93 $-1 #
coedge $-1 $358 $357 $149 $246 reversed $147 $-1 #
edge $-1 $365 -6.3781733790240587 $366 6.3781733790240587 $245 $367 forward 7 unknown #
coedge $-1 $151 $150 $368 $369 reversed $59 $-1 #
coedge $-1 $361 $370 $150 $249 forward $354 $-1 #
edge $-1 $371 -11.015214814865985 $253 -6.448215321546142 $248 $372 forward 7 unknown #
coedge $-1 $373 $363 $151 $251 forward $240 $-1 #
edge $-1 $252 6.448215321546142 $374 11.015214814865985 $250 $375 forward 7 unknown #
vertex $-1 $251 $376 #
vertex $-1 $249 $377 #
straight-curve $-1 -34.455309823336542 -15.179930389752206 0 0 0 -1 I I #
face $-1 $-1 $267 $35 $-1 $378 forward single #
loop $-1 $-1 $379 $154 #
plane-surface $-1 -40.207525864436782 0 0 1 0 0 0 0 -1 forward_v I I I I #
coedge $-1 $380 $381 $382 $383 reversed $155 $-1 #
coedge $-1 $384 $157 $159 $265 forward $97 $-1 #
coedge $-1 $157 $384 $380 $385 forward $97 $-1 #
coedge $-1 $382 $160 $157 $262 forward $267 $-1 #
edge $-1 $269 2.1509689296463428 $386 10.889025317774955 $261 $387 forward 7 unknown #
coedge $-1 $388 $389 $158 $264 forward $256 $-1 #
edge $-1 $390 -30.333612489893611 $268 -23.978223507267256 $263 $391 forward 7 unknown #
edge $-1 $269 -9.687221156180069 $390 9.4141024555604873e-015 $159 $392 forward 7 unknown #
coedge $-1 $160 $382 $388 $393 forward $267 $-1 #
loop $-1 $-1 $382 $255 #
vertex $-1 $264 $394 #
vertex $-1 $161 $395 #
straight-curve $-1 -46.482273629735026 8.6709660533569917 6.3781733790240587 1 0 0 I I #
coedge $-1 $271 $271 $-1 $396 reversed $164 $-1 #
edge $-1 $397 0 $397 6.2831853071796004 $165 $398 forward 7 unknown #
vertex $-1 $168 $399 #
ellipse-curve $-1 -36.552006591875958 11.167553592822308 3.2004788877108807 -0.6560590369687036 0 0.75470957328743171 0.75470957328743171 0 0.6560590369687036 1 I I #
coedge $-1 $275 $275 $-1 $400 reversed $171 $-1 #
edge $-1 $401 0 $401 6.2831853071796004 $172 $402 forward 7 unknown #
vertex $-1 $175 $403 #
ellipse-curve $-1 -36.552006591875958 14.912434902020287 3.2004788877108807 -0.6560590369687036 0 0.75470957328743171 0.75470957328743171 0 0.6560590369687036 1 I I #
face $-1 $-1 $404 $38 $-1 $405 reversed single #
loop $-1 $-1 $182 $176 #
plane-surface $-1 0 0 6.3781733790240587 0 0 1 1 0 0 forward_v I I I I #
coedge $-1 $406 $407 $408 $409 reversed $177 $-1 #
coedge $-1 $410 $179 $181 $289 forward $111 $-1 #
coedge $-1 $179 $410 $406 $411 forward $111 $-1 #
coedge $-1 $408 $182 $179 $286 forward $280 $-1 #
edge $-1 $292 -0.67549505804913768 $412 7.6039493035002934 $285 $413 forward 7 unknown #
coedge $-1 $414 $415 $180 $288 forward $404 $-1 #
edge $-1 $416 -55.281825022372693 $291 -50.663926684501547 $287 $417 forward 7 unknown #
edge $-1 $292 72.558613921249247 $416 80.41505172887355 $181 $418 forward 7 unknown #
coedge $-1 $182 $408 $414 $419 forward $280 $-1 #
vertex $-1 $288 $420 #
vertex $-1 $183 $421 #
straight-curve $-1 11.208582461700562 -2.7887320646764406 6.3781733790240622 -1 0 0 I I #
coedge $-1 $294 $294 $-1 $422 reversed $186 $-1 #
edge $-1 $423 0 $423 6.2831853071796004 $187 $424 forward 7 unknown #
vertex $-1 $190 $425 #
ellipse-curve $-1 37.029530035059594 -8.7026208943546077 4.0692242100884828 0.5877852598018023 0 0.80901698891910034 0.40450849445955017 0 -0.29389262990090115 1 I I #
coedge $-1 $298 $298 $-1 $426 reversed $193 $-1 #
edge $-1 $427 0 $427 6.2831853071796004 $194 $428 forward 7 unknown #
vertex $-1 $197 $429 #
ellipse-curve $-1 37.029530035059594 -5.1542875965477073 4.0692242100884828 0.5877852598018023 0 0.80901698891910034 0.40450849445955017 0 -0.29389262990090115 1 I I #
face $-1 $-1 $314 $41 $-1 $430 forward single #
loop $-1 $-1 $431 $198 #
plane-surface $-1 40.207525864436782 0 0 -1 0 0 0 0 1 forward_v I I I I #
coedge $-1 $432 $433 $434 $435 reversed $199 $-1 #
coedge $-1 $436 $201 $203 $312 forward $125 $-1 #
coedge $-1 $201 $436 $432 $437 forward $125 $-1 #
coedge $-1 $434 $204 $201 $309 forward $314 $-1 #
edge $-1 $316 -9.8874490501602192 $438 -1.6080046886107882 $308 $439 forward 7 unknown #
coedge $-1 $440 $441 $202 $311 forward $303 $-1 #
edge $-1 $442 -55.281825022372693 $315 -50.663926684501547 $310 $443 forward 7 unknown #
edge $-1 $316 72.558613921249247 $442 80.41505172887355 $203 $444 forward 7 unknown #
coedge $-1 $204 $434 $440 $445 forward $314 $-1 #
loop $-1 $-1 $434 $302 #
vertex $-1 $311 $446 #
vertex $-1 $205 $447 #
straight-curve $-1 11.208582461700562 15.635175919545723 6.3781733790240622 -1 0 0 I I #
coedge $-1 $318 $318 $-1 $448 reversed $208 $-1 #
edge $-1 $449 0 $449 6.2831853071796004 $209 $450 forward 7 unknown #
vertex $-1 $212 $451 #
ellipse-curve $-1 37.029530035059594 9.721287089867559 4.0692242100884828 0.5877852598018023 0 0.80901698891910034 0.40450849445955017 0 -0.29389262990090115 1 I I #
coedge $-1 $322 $322 $-1 $452 reversed $215 $-1 #
edge $-1 $453 0 $453 6.2831853071796004 $216 $454 forward 7 unknown #
vertex $-1 $219 $455 #
ellipse-curve $-1 37.029530035059594 13.269620387674458 4.0692242100884828 0.5877852598018023 0 0.80901698891910034 0.40450849445955017 0 -0.29389262990090115 1 I I #
face $-1 $-1 $235 $33 $-1 $456 reversed single #
loop $-1 $-1 $342 $220 #
plane-surface $-1 0 19.746929883072049 0 0 -1 0 0 0 -1 forward_v I I I I #
coedge $-1 $457 $340 $343 $458 forward $221 $-1 #
coedge $-1 $346 $223 $224 $334 reversed $139 $-1 #
coedge $-1 $340 $457 $223 $332 reversed $221 $-1 #
edge $-1 $347 -6.3781733790240587 $459 6.3781733790240587 $331 $460 forward 7 unknown #
coedge $-1 $225 $224 $457 $461 forward $89 $-1 #
edge $-1 $338 -40.207525864436782 $459 40.207525864436782 $330 $462 forward 7 unknown #
coedge $-1 $343 $342 $225 $336 reversed $327 $-1 #
edge $-1 $463 -40.207525864436782 $337 40.207525864436782 $335 $464 forward 7 unknown #
vertex $-1 $227 $465 #
vertex $-1 $349 $466 #
straight-curve $-1 40.207525864436782 0 -6.3781733790240587 0 -1 0 I I #
coedge $-1 $329 $331 $228 $341 reversed $221 $-1 #
edge $-1 $344 -19.746929883072049 $347 19.746929883072049 $340 $467 forward 7 unknown #
coedge $-1 $335 $229 $234 $350 forward $327 $-1 #
coedge $-1 $229 $335 $329 $458 reversed $327 $-1 #
vertex $-1 $230 $468 #
straight-curve $-1 0 19.746929883072049 6.3781733790240587 -1 0 0 I I #
coedge $-1 $231 $330 $233 $349 reversed $139 $-1 #
vertex $-1 $341 $469 #
straight-curve $-1 0 -19.746929883072049 6.3781733790240587 1 0 0 I I #
edge $-1 $236 -6.3781733790240587 $338 6.3781733790240587 $233 $470 forward 7 unknown #
edge $-1 $237 -6.3781733790240587 $337 6.3781733790240587 $234 $471 forward 7 unknown #
point $-1 40.207525864436782 -19.746929883072049 6.3781733790240587 #
point $-1 40.207525864436782 19.746929883072049 6.3781733790240587 #
face $-1 $-1 $472 $34 $-1 $473 reversed single #
loop $-1 $-1 $474 $239 #
plane-surface $-1 0 0 -6.3781733790240587 0 0 1 1 0 0 forward_v I I I I #
coedge $-1 $363 $373 $358 $475 forward $240 $-1 #
coedge $-1 $245 $242 $474 $476 reversed $147 $-1 #
coedge $-1 $242 $245 $356 $475 reversed $147 $-1 #
coedge $-1 $477 $478 $242 $360 forward $472 $-1 #
edge $-1 $479 -6.3781733790240587 $480 6.3781733790240587 $359 $481 forward 7 unknown #
coedge $-1 $474 $248 $243 $362 forward $354 $-1 #
edge $-1 $253 -17.977654911668271 $366 -14.977654911668271 $361 $482 forward 7 unknown #
coedge $-1 $250 $356 $244 $364 forward $240 $-1 #
edge $-1 $365 14.977654911668271 $252 17.977654911668271 $363 $483 forward 7 unknown #
vertex $-1 $364 $484 #
vertex $-1 $362 $485 #
straight-curve $-1 -31.455309823336542 -15.179930389752206 0 0 0 -1 I I #
coedge $-1 $478 $477 $247 $369 forward $472 $-1 #
edge $-1 $374 -6.3781733790240587 $371 6.3781733790240587 $368 $486 forward 7 unknown #
coedge $-1 $248 $474 $478 $487 forward $354 $-1 #
vertex $-1 $249 $488 #
straight-curve $-1 -34.455309823336542 -8.7317150682060642 -6.3781733790240587 0 1 0 I I #
coedge $-1 $356 $250 $477 $489 forward $240 $-1 #
vertex $-1 $489 $490 #
straight-curve $-1 -34.455309823336542 -8.7317150682060642 6.3781733790240587 0 -1 0 I I #
point $-1 -34.455309823336542 -15.179930389752206 6.3781733790240587 #
point $-1 -34.455309823336542 -15.179930389752206 -6.3781733790240587 #
plane-surface $-1 0 0 6.3781733790240587 0 0 1 1 0 0 forward_v I I I I #
coedge $-1 $389 $388 $381 $491 forward $256 $-1 #
coedge $-1 $381 $258 $260 $385 reversed $155 $-1 #
coedge $-1 $258 $380 $379 $491 reversed $155 $-1 #
coedge $-1 $266 $261 $258 $383 forward $267 $-1 #
edge $-1 $386 -13.585786310419891 $492 -6.274747765298244 $382 $493 forward 7 unknown #
coedge $-1 $260 $259 $389 $494 reversed $97 $-1 #
edge $-1 $495 -9.4141024555604873e-015 $386 9.687221156180069 $380 $496 forward 7 unknown #
vertex $-1 $262 $497 #
straight-curve $-1 -32.896487319315135 6.5199971237106489 6.3781733790240596 0 1 0 I I #
coedge $-1 $379 $263 $266 $393 reversed $256 $-1 #
coedge $-1 $263 $379 $384 $494 forward $256 $-1 #
vertex $-1 $264 $498 #
straight-curve $-1 -40.207525864436782 8.6709660533569917 30.356396886291314 0 0 1 I I #
straight-curve $-1 -40.207525864436775 8.6709660533569917 0.022784396397710793 -0.75470957328743171 0 -0.6560590369687036 I I #
edge $-1 $492 -17.409022441485604 $268 -8.6709660533569917 $388 $499 forward 7 unknown #
point $-1 -40.207525864436782 8.6709660533569917 6.3781733790240587 #
point $-1 -32.896487319315135 8.6709660533569917 6.3781733790240587 #
edge $-1 $500 1 $500 0 $271 $-1 forward 7 unknown #
vertex $-1 $272 $501 #
ellipse-curve $-1 -34.310690121787538 11.167553592822308 0.62213928498513393 -0.6560590369687036 0 0.75470957328743171 0.75470957328743171 0 0.6560590369687036 1 I I #
point $-1 -35.797297018588537 11.167553592822308 3.8565379246795968 #
edge $-1 $502 1 $502 0 $275 $-1 forward 7 unknown #
vertex $-1 $276 $503 #
ellipse-curve $-1 -34.310690121787538 14.912434902020287 0.62213928498513393 -0.6560590369687036 0 0.75470957328743171 0.75470957328743171 0 0.6560590369687036 1 I I #
point $-1 -35.797297018588537 14.912434902020287 3.8565379246795968 #
loop $-1 $-1 $287 $279 #
plane-surface $-1 40.207525864436782 0 0 -1 0 0 0 0 1 forward_v I I I I #
coedge $-1 $407 $282 $284 $411 reversed $177 $-1 #
coedge $-1 $282 $406 $504 $505 reversed $177 $-1 #
coedge $-1 $290 $285 $282 $409 forward $280 $-1 #
edge $-1 $412 22.642951743981822 $506 28.99894340273622 $408 $507 forward 7 unknown #
coedge $-1 $284 $283 $415 $508 reversed $111 $-1 #
edge $-1 $509 -80.41505172887355 $412 -72.558613921249247 $406 $510 forward 7 unknown #
vertex $-1 $286 $511 #
straight-curve $-1 33.851534205682391 -3.4642271227255783 6.3781733790240551 0 -1 0 I I #
coedge $-1 $504 $287 $290 $419 reversed $404 $-1 #
coedge $-1 $287 $504 $410 $508 forward $404 $-1 #
vertex $-1 $288 $512 #
straight-curve $-1 40.207525864436782 -2.7887320646764406 57.042100063525602 0 0 1 I I #
straight-curve $-1 -24.849617149030195 -2.7887320646764406 49.02705711358422 0.80901698891910034 0 -0.5877852598018023 I I #
edge $-1 $506 -11.068176426225872 $291 -2.7887320646764406 $414 $513 forward 7 unknown #
point $-1 40.207525864436782 -2.7887320646764406 6.3781733790240587 #
point $-1 33.851534205682384 -2.7887320646764406 6.3781733790240622 #
edge $-1 $514 1 $514 0 $294 $-1 forward 7 unknown #
vertex $-1 $295 $515 #
ellipse-curve $-1 36.178786795478288 -8.7026208943546077 2.8982766190219325 0.5877852598018023 0 0.80901698891910034 0.40450849445955017 0 -0.29389262990090115 1 I I #
point $-1 37.434038529519135 -8.7026208943546077 3.7753315801875691 #
edge $-1 $516 1 $516 0 $298 $-1 forward 7 unknown #
vertex $-1 $299 $517 #
ellipse-curve $-1 36.178786795478288 -5.1542875965477073 2.8982766190219325 0.5877852598018023 0 0.80901698891910034 0.40450849445955017 0 -0.29389262990090115 1 I I #
point $-1 37.434038529519135 -5.1542875965477073 3.7753315801875691 #
plane-surface $-1 0 0 6.3781733790240587 0 0 1 1 0 0 forward_v I I I I #
coedge $-1 $441 $440 $433 $518 forward $303 $-1 #
coedge $-1 $433 $305 $307 $437 reversed $199 $-1 #
coedge $-1 $305 $432 $431 $518 reversed $199 $-1 #
coedge $-1 $313 $308 $305 $435 forward $314 $-1 #
edge $-1 $438 22.642951743981822 $519 28.99894340273622 $434 $520 forward 7 unknown #
coedge $-1 $307 $306 $441 $521 reversed $125 $-1 #
edge $-1 $522 -80.41505172887355 $438 -72.558613921249247 $432 $523 forward 7 unknown #
vertex $-1 $309 $524 #
straight-curve $-1 33.851534205682391 5.7477268693855041 6.3781733790240551 0 -1 0 I I #
coedge $-1 $431 $310 $313 $445 reversed $303 $-1 #
coedge $-1 $310 $431 $436 $521 forward $303 $-1 #
vertex $-1 $311 $525 #
straight-curve $-1 40.207525864436782 15.635175919545723 57.042100063525602 0 0 1 I I #
straight-curve $-1 -24.849617149030195 15.635175919545723 49.02705711358422 0.80901698891910034 0 -0.5877852598018023 I I #
edge $-1 $519 7.3557315579962923 $315 15.635175919545723 $440 $526 forward 7 unknown #
point $-1 40.207525864436782 15.635175919545723 6.3781733790240587 #
point $-1 33.851534205682384 15.635175919545723 6.3781733790240622 #
edge $-1 $527 1 $527 0 $318 $-1 forward 7 unknown #
vertex $-1 $319 $528 #
ellipse-curve $-1 36.178786795478288 9.721287089867559 2.8982766190219325 0.5877852598018023 0 0.80901698891910034 0.40450849445955017 0 -0.29389262990090115 1 I I #
point $-1 37.434038529519135 9.721287089867559 3.7753315801875691 #
edge $-1 $529 1 $529 0 $322 $-1 forward 7 unknown #
vertex $-1 $323 $530 #
ellipse-curve $-1 36.178786795478288 13.269620387674458 2.8982766190219325 0.5877852598018023 0 0.80901698891910034 0.40450849445955017 0 -0.29389262990090115 1 I I #
point $-1 37.434038529519135 13.269620387674458 3.7753315801875691 #
plane-surface $-1 40.207525864436782 0 0 -1 0 0 0 0 1 forward_v I I I I #
coedge $-1 $331 $329 $333 $461 reversed $221 $-1 #
edge $-1 $344 -6.3781733790240587 $463 6.3781733790240587 $343 $531 forward 7 unknown #
vertex $-1 $461 $532 #
straight-curve $-1 -40.207525864436782 -19.746929883072049 0 0 0 -1 I I #
edge $-1 $459 -19.746929883072049 $463 19.746929883072049 $457 $533 forward 7 unknown #
straight-curve $-1 0 -19.746929883072049 -6.3781733790240587 -1 0 0 I I #
vertex $-1 $336 $534 #
straight-curve $-1 0 19.746929883072049 -6.3781733790240587 1 0 0 I I #
point $-1 40.207525864436782 19.746929883072049 -6.3781733790240587 #
point $-1 40.207525864436782 -19.746929883072049 -6.3781733790240587 #
straight-curve $-1 -40.207525864436782 0 6.3781733790240587 0 -1 0 I I #
point $-1 -40.207525864436782 19.746929883072049 6.3781733790240587 #
point $-1 -40.207525864436782 -19.746929883072049 6.3781733790240587 #
straight-curve $-1 40.207525864436782 -19.746929883072049 0 0 0 -1 I I #
straight-curve $-1 40.207525864436782 19.746929883072049 0 0 0 -1 I I #
loop $-1 $-1 $359 $353 #
plane-surface $-1 0 -19.746929883072049 0 0 1 0 0 0 1 forward_v I I I I #
coedge $-1 $370 $361 $357 $476 forward $354 $-1 #
edge $-1 $480 -11.015214814865985 $365 -6.448215321546142 $356 $535 forward 7 unknown #
edge $-1 $366 6.448215321546142 $479 11.015214814865985 $474 $536 forward 7 unknown #
coedge $-1 $368 $359 $373 $489 reversed $472 $-1 #
coedge $-1 $359 $368 $370 $487 reversed $472 $-1 #
vertex $-1 $487 $537 #
vertex $-1 $360 $538 #
straight-curve $-1 -31.455309823336542 -19.746929883072049 0 0 0 1 I I #
straight-curve $-1 -16.477654911668271 -15.179930389752206 -6.3781733790240587 1 0 0 I I #
straight-curve $-1 -16.477654911668271 -15.179930389752206 6.3781733790240587 -1 0 0 I I #
point $-1 -31.455309823336542 -15.179930389752206 6.3781733790240587 #
point $-1 -31.455309823336542 -15.179930389752206 -6.3781733790240587 #
straight-curve $-1 -34.455309823336542 -19.746929883072049 0 0 0 -1 I I #
edge $-1 $479 31.455309823336542 $371 34.455309823336542 $478 $539 forward 7 unknown #
point $-1 -34.455309823336542 -19.746929883072049 -6.3781733790240587 #
edge $-1 $374 -34.455309823336542 $480 -31.455309823336542 $477 $540 forward 7 unknown #
point $-1 -34.455309823336542 -19.746929883072049 6.3781733790240587 #
edge $-1 $492 23.978223507267256 $495 30.333612489893611 $379 $541 forward 7 unknown #
vertex $-1 $393 $542 #
straight-curve $-1 -46.482273629735026 17.409022441485604 6.3781733790240587 -1 0 0 I I #
edge $-1 $495 -10.889025317774955 $390 -2.1509689296463428 $389 $543 forward 7 unknown #
vertex $-1 $494 $544 #
straight-curve $-1 -40.207525864436775 17.409022441485604 0.022784396397710793 0.75470957328743171 0 0.6560590369687036 I I #
point $-1 -32.896487319315135 17.409022441485604 6.3781733790240587 #
point $-1 -40.207525864436782 8.6709660533569917 0.022784396397704618 #
straight-curve $-1 -40.207525864436782 0 6.3781733790240587 0 -1 0 I I #
vertex $-1 $396 $545 #
point $-1 -33.555980548500109 11.167553592822308 1.2781983219538375 #
vertex $-1 $400 $546 #
point $-1 -33.555980548500109 14.912434902020287 1.2781983219538375 #
coedge $-1 $415 $414 $407 $505 forward $404 $-1 #
edge $-1 $506 50.663926684501547 $509 55.281825022372693 $504 $547 forward 7 unknown #
vertex $-1 $419 $548 #
straight-curve $-1 11.208582461700562 -11.068176426225872 6.3781733790240622 1 0 0 I I #
edge $-1 $509 -7.6039493035002934 $416 0.67549505804913768 $415 $549 forward 7 unknown #
vertex $-1 $508 $550 #
straight-curve $-1 -24.849617149030195 -11.068176426225872 49.02705711358422 -0.80901698891910034 0 0.5877852598018023 I I #
point $-1 33.851534205682384 -11.068176426225872 6.3781733790240622 #
point $-1 40.207525864436775 -2.7887320646764406 1.7602750411529087 #
straight-curve $-1 40.207525864436782 0 6.3781733790240587 0 1 0 I I #
vertex $-1 $422 $551 #
point $-1 36.583295289937844 -8.7026208943546077 2.6043839891210312 #
vertex $-1 $426 $552 #
point $-1 36.583295289937844 -5.1542875965477073 2.6043839891210312 #
edge $-1 $519 50.663926684501547 $522 55.281825022372693 $431 $553 forward 7 unknown #
vertex $-1 $445 $554 #
straight-curve $-1 11.208582461700562 7.3557315579962923 6.3781733790240622 1 0 0 I I #
edge $-1 $522 1.6080046886107882 $442 9.8874490501602192 $441 $555 forward 7 unknown #
vertex $-1 $521 $556 #
straight-curve $-1 -24.849617149030195 7.3557315579962923 49.02705711358422 -0.80901698891910034 0 0.5877852598018023 I I #
point $-1 33.851534205682384 7.3557315579962923 6.3781733790240622 #
point $-1 40.207525864436775 15.635175919545723 1.7602750411529087 #
straight-curve $-1 40.207525864436782 0 6.3781733790240587 0 1 0 I I #
vertex $-1 $448 $557 #
point $-1 36.583295289937844 9.721287089867559 2.6043839891210312 #
vertex $-1 $452 $558 #
point $-1 36.583295289937844 13.269620387674458 2.6043839891210312 #
straight-curve $-1 -40.207525864436782 19.746929883072049 0 0 0 -1 I I #
point $-1 -40.207525864436782 -19.746929883072049 -6.3781733790240587 #
straight-curve $-1 -40.207525864436782 0 -6.3781733790240587 0 1 0 I I #
point $-1 -40.207525864436782 19.746929883072049 -6.3781733790240587 #
straight-curve $-1 -31.455309823336542 -8.7317150682060642 6.3781733790240587 0 1 0 I I #
straight-curve $-1 -31.455309823336542 -8.7317150682060642 -6.3781733790240587 0 -1 0 I I #
point $-1 -31.455309823336542 -19.746929883072049 -6.3781733790240587 #
point $-1 -31.455309823336542 -19.746929883072049 6.3781733790240587 #
straight-curve $-1 0 -19.746929883072049 -6.3781733790240587 -1 0 0 I I #
straight-curve $-1 0 -19.746929883072049 6.3781733790240587 1 0 0 I I #
straight-curve $-1 -40.207525864436782 17.409022441485604 30.356396886291314 0 0 -1 I I #
point $-1 -40.207525864436782 17.409022441485604 6.3781733790240587 #
straight-curve $-1 -40.207525864436782 6.5199971237106489 0.022784396397702904 0 -1 0 I I #
point $-1 -40.207525864436782 17.409022441485604 0.022784396397704618 #
point $-1 -33.654631084818838 11.167553592822308 -0.13257028830229783 #
point $-1 -33.654631084818838 14.912434902020287 -0.13257028830229783 #
straight-curve $-1 40.207525864436782 -11.068176426225872 57.042100063525602 0 0 -1 I I #
point $-1 40.207525864436782 -11.068176426225872 6.3781733790240587 #
straight-curve $-1 40.207525864436782 -3.4642271227255783 1.7602750411529087 0 1 0 I I #
point $-1 40.207525864436775 -11.068176426225872 1.7602750411529087 #
point $-1 35.884894165577393 -8.7026208943546077 2.4937681245623819 #
point $-1 35.884894165577393 -5.1542875965477073 2.4937681245623819 #
straight-curve $-1 40.207525864436782 7.3557315579962923 57.042100063525602 0 0 -1 I I #
point $-1 40.207525864436782 7.3557315579962923 6.3781733790240587 #
straight-curve $-1 40.207525864436782 5.7477268693855041 1.7602750411529087 0 1 0 I I #
point $-1 40.207525864436775 7.3557315579962923 1.7602750411529087 #
point $-1 35.884894165577393 9.721287089867559 2.4937681245623819 #
point $-1 35.884894165577393 13.269620387674458 2.4937681245623819 #
End-of-ACIS-data 