500 0 9 0           
7 Unknown 11 ACIS 5.0 NT 24 Thu Mar 25 21:18:17 1999 
-1 9.9999999999999995e-007 1e-010 
body $-1 $9 $-1 $10 #
body $-1 $11 $-1 $12 #
body $-1 $13 $-1 $14 #
body $-1 $15 $-1 $16 #
body $-1 $17 $-1 $18 #
body $-1 $19 $-1 $20 #
body $-1 $21 $-1 $22 #
body $-1 $23 $-1 $24 #
body $-1 $25 $-1 $26 #
lump $-1 $-1 $27 $0 #
transform $-1 1 0 0 0 1 0 0 0 1 70.591753898739583 32.869426788654735 15.540025392593881 1 rotate no_reflect no_shear #
lump $-1 $-1 $28 $1 #
transform $-1 1 0 0 0 1 0 0 0 1 70.591753898739583 32.869426788654735 15.540025392593881 1 rotate no_reflect no_shear #
lump $-1 $-1 $29 $2 #
transform $-1 1 0 0 0 1 0 0 0 1 70.591753898739583 32.869426788654735 15.540025392593881 1 rotate no_reflect no_shear #
lump $-1 $-1 $30 $3 #
transform $-1 1 0 0 0 1 0 0 0 1 70.591753898739583 32.869426788654735 15.540025392593881 1 rotate no_reflect no_shear #
lump $-1 $-1 $31 $4 #
transform $-1 1 0 0 0 1 0 0 0 1 70.591753898739583 32.869426788654735 15.540025392593881 1 rotate no_reflect no_shear #
lump $-1 $-1 $32 $5 #
transform $-1 1 0 0 0 1 0 0 0 1 70.591753898739583 32.869426788654735 15.540025392593881 1 rotate no_reflect no_shear #
lump $-1 $-1 $33 $6 #
transform $-1 1 0 0 0 1 0 0 0 1 70.591753898739583 32.869426788654735 15.540025392593881 1 rotate no_reflect no_shear #
lump $-1 $-1 $34 $7 #
transform $-1 1 0 0 0 1 0 0 0 1 70.591753898739583 32.869426788654735 15.540025392593881 1 rotate no_reflect no_shear #
lump $-1 $-1 $35 $8 #
transform $-1 1 0 0 0 1 0 0 0 1 70.591753898739583 32.869426788654735 15.540025392593881 1 rotate no_reflect no_shear #
shell $-1 $-1 $-1 $36 $-1 $9 #
shell $-1 $-1 $-1 $37 $-1 $11 #
shell $-1 $-1 $-1 $38 $-1 $13 #
shell $-1 $-1 $-1 $39 $-1 $15 #
shell $-1 $-1 $-1 $40 $-1 $17 #
shell $-1 $-1 $-1 $41 $-1 $19 #
shell $-1 $-1 $-1 $42 $-1 $21 #
shell $-1 $-1 $-1 $43 $-1 $23 #
shell $-1 $-1 $-1 $44 $-1 $25 #
face $-1 $45 $46 $27 $-1 $47 forward single #
face $-1 $48 $49 $28 $-1 $50 forward single #
face $-1 $51 $52 $29 $-1 $53 reversed single #
face $-1 $54 $55 $30 $-1 $56 forward single #
face $-1 $57 $58 $31 $-1 $59 forward single #
face $-1 $60 $61 $32 $-1 $62 reversed single #
face $-1 $63 $64 $33 $-1 $65 forward single #
face $-1 $66 $67 $34 $-1 $68 reversed single #
face $-1 $69 $70 $35 $-1 $71 forward single #
face $-1 $72 $73 $27 $-1 $74 reversed single #
loop $-1 $-1 $75 $36 #
plane-surface $-1 0 0 15.540025392593881 0 0 1 1 0 0 forward_v I I I I #
face $-1 $76 $77 $28 $-1 $78 reversed single #
loop $-1 $-1 $79 $37 #
plane-surface $-1 0 -23.292086422221182 -0.86456107230495416 0 0 1 1 0 0 forward_v I I I I #
face $-1 $80 $81 $29 $-1 $82 reversed single #
loop $-1 $-1 $83 $38 #
plane-surface $-1 -151.57128821641419 24.899648864248423 118.94736094224147 0 1 0 -0.57357644374324357 0 0.81915203911291934 forward_v I I I I #
face $-1 $84 $85 $30 $-1 $86 forward single #
loop $-1 $87 $88 $39 #
cone-surface $-1 -61.562255945464479 27.176728271221656 9.0087379971513144 0.57357644374324357 0 -0.81915203911291934 0.40957601955645967 0 0.28678822187162178 1 I I 0 1 0.5 forward I I I I #
face $-1 $89 $90 $31 $-1 $91 forward single #
loop $-1 $92 $93 $40 #
cone-surface $-1 -61.562255945464479 30.592347381681506 9.0087379971513144 0.57357644374324357 0 -0.81915203911291934 0.40957601955645967 0 0.28678822187162178 1 I I 0 1 0.5 forward I I I I #
face $-1 $94 $95 $32 $-1 $96 reversed single #
loop $-1 $-1 $97 $41 #
plane-surface $-1 42.803949038690376 -3.1682137387957994 203.4151379495693 0 -1 0 -0.6018150307709319 0 -0.79863550430605224 forward_v I I I I #
face $-1 $98 $99 $33 $-1 $100 forward single #
loop $-1 $101 $102 $42 #
cone-surface $-1 63.023502026871618 -6.7527714216380694 9.2430290448442456 -0.6018150307709319 0 -0.79863550430605224 0.79863550430605224 0 -0.6018150307709319 1 I I 0 1 1 forward I I I I #
face $-1 $103 $104 $34 $-1 $105 reversed single #
loop $-1 $-1 $106 $43 #
plane-surface $-1 42.803949038690376 20.123872683425386 203.4151379495693 0 -1 0 -0.6018150307709319 0 -0.79863550430605224 forward_v I I I I #
face $-1 $107 $108 $35 $-1 $109 forward single #
loop $-1 $110 $111 $44 #
cone-surface $-1 63.023502026871618 16.539315000583116 9.2430290448442456 -0.6018150307709319 0 -0.79863550430605224 0.79863550430605224 0 -0.6018150307709319 1 I I 0 1 1 forward I I I I #
face $-1 $112 $113 $27 $-1 $114 reversed single #
loop $-1 $-1 $115 $45 #
plane-surface $-1 0 0 -15.540025392593881 0 0 1 1 0 0 forward_v I I I I #
coedge $-1 $116 $117 $118 $119 forward $46 $-1 #
face $-1 $120 $121 $28 $-1 $122 reversed single #
loop $-1 $-1 $123 $48 #
plane-surface $-1 0 -23.292086422221182 -9.0710337853505791 0 0 1 1 0 0 forward_v I I I I #
coedge $-1 $124 $125 $126 $127 reversed $49 $-1 #
face $-1 $128 $129 $29 $-1 $130 forward single #
loop $-1 $-1 $131 $51 #
plane-surface $-1 -70.591753898739597 28.884537826451577 3.2966026408216607 -0.57357644374324357 0 0.81915203911291934 0.81915203911291934 0 0.57357644374324357 forward_v I I I I #
coedge $-1 $132 $133 $134 $135 reversed $52 $-1 #
face $-1 $-1 $136 $30 $-1 $137 forward single #
loop $-1 $138 $139 $54 #
cone-surface $-1 -61.132073612657045 27.176728271221656 8.3943739678166249 0.57357644374324357 0 -0.81915203911291934 0.20478800977822983 0 0.14339411093581089 1 I I -0.70710678118654746 0.70710678118654746 0.25 forward I I I I #
loop $-1 $-1 $140 $39 #
coedge $-1 $88 $88 $141 $142 reversed $55 $-1 #
face $-1 $-1 $143 $31 $-1 $144 forward single #
loop $-1 $145 $146 $57 #
cone-surface $-1 -61.132073612657045 30.592347381681506 8.3943739678166249 0.57357644374324357 0 -0.81915203911291934 0.20478800977822983 0 0.14339411093581089 1 I I -0.70710678118654746 0.70710678118654746 0.25 forward I I I I #
loop $-1 $-1 $147 $40 #
coedge $-1 $93 $93 $148 $149 reversed $58 $-1 #
face $-1 $150 $151 $32 $-1 $152 reversed single #
loop $-1 $-1 $153 $60 #
plane-surface $-1 -42.162408050797652 -6.7527714216380694 90.660976000032065 0.6018150307709319 0 0.79863550430605224 0.79863550430605224 0 -0.6018150307709319 forward_v I I I I #
coedge $-1 $154 $155 $156 $157 reversed $61 $-1 #
face $-1 $-1 $158 $33 $-1 $159 forward single #
loop $-1 $160 $161 $63 #
cone-surface $-1 61.686990354330035 -6.7527714216380694 7.4694181859664983 -0.6018150307709319 0 -0.79863550430605224 0.39931775215302612 0 -0.30090751538546595 1 I I -0.70710678118654746 0.70710678118654746 0.5 forward I I I I #
loop $-1 $-1 $162 $42 #
coedge $-1 $102 $102 $163 $164 reversed $64 $-1 #
face $-1 $165 $166 $34 $-1 $167 reversed single #
loop $-1 $-1 $168 $66 #
plane-surface $-1 -42.162408050797652 16.539315000583116 90.660976000032065 0.6018150307709319 0 0.79863550430605224 0.79863550430605224 0 -0.6018150307709319 forward_v I I I I #
coedge $-1 $169 $170 $171 $172 reversed $67 $-1 #
face $-1 $-1 $173 $35 $-1 $174 forward single #
loop $-1 $175 $176 $69 #
cone-surface $-1 61.686990354330035 16.539315000583116 7.4694181859664983 -0.6018150307709319 0 -0.79863550430605224 0.39931775215302612 0 -0.30090751538546595 1 I I -0.70710678118654746 0.70710678118654746 0.5 forward I I I I #
loop $-1 $-1 $177 $44 #
coedge $-1 $111 $111 $178 $179 reversed $70 $-1 #
face $-1 $180 $181 $27 $-1 $182 reversed single #
loop $-1 $-1 $183 $72 #
plane-surface $-1 0 -32.869426788654735 0 0 1 0 0 0 1 forward_v I I I I #
coedge $-1 $184 $185 $186 $187 forward $73 $-1 #
coedge $-1 $188 $75 $189 $190 forward $46 $-1 #
coedge $-1 $75 $188 $191 $192 forward $46 $-1 #
coedge $-1 $193 $194 $75 $119 reversed $195 $-1 #
edge $-1 $196 -32.869426788654735 $197 32.869426788654735 $118 $198 forward 7 unknown #
face $-1 $199 $200 $28 $-1 $201 reversed single #
loop $-1 $-1 $202 $76 #
plane-surface $-1 0 -13.714746055787629 -4.9677974288277671 0 -1 0 0 0 -1 forward_v I I I I #
coedge $-1 $203 $204 $205 $206 reversed $77 $-1 #
coedge $-1 $207 $79 $208 $209 forward $49 $-1 #
coedge $-1 $79 $207 $210 $211 reversed $49 $-1 #
coedge $-1 $212 $213 $79 $127 forward $214 $-1 #
edge $-1 $215 2.0687028446770377 $216 21.223383577544144 $126 $217 forward 7 unknown #
face $-1 $218 $219 $29 $-1 $220 reversed single #
loop $-1 $-1 $134 $80 #
plane-surface $-1 0 0 15.540025392593881 0 0 1 1 0 0 forward_v I I I I #
coedge $-1 $221 $222 $223 $224 reversed $81 $-1 #
coedge $-1 $133 $83 $225 $226 reversed $52 $-1 #
coedge $-1 $83 $132 $221 $227 reversed $52 $-1 #
coedge $-1 $223 $228 $83 $135 forward $129 $-1 #
edge $-1 $229 5.1938902094675115 $230 22.679309672274478 $134 $231 forward 7 unknown #
loop $-1 $-1 $141 $84 #
plane-surface $-1 -70.591753898739597 28.884537826451577 3.2966026408216607 -0.57357644374324357 0 0.81915203911291934 0.81915203911291934 0 0.57357644374324357 forward_v I I I I #
loop $-1 $-1 $232 $54 #
coedge $-1 $139 $139 $140 $233 reversed $85 $-1 #
coedge $-1 $140 $140 $139 $233 forward $87 $-1 #
coedge $-1 $141 $141 $88 $142 forward $136 $-1 #
edge $-1 $234 0 $234 6.2831853071796004 $141 $235 forward 7 unknown #
loop $-1 $-1 $148 $89 #
plane-surface $-1 -70.591753898739597 28.884537826451577 3.2966026408216607 -0.57357644374324357 0 0.81915203911291934 0.81915203911291934 0 0.57357644374324357 forward_v I I I I #
loop $-1 $-1 $236 $57 #
coedge $-1 $146 $146 $147 $237 reversed $90 $-1 #
coedge $-1 $147 $147 $146 $237 forward $92 $-1 #
coedge $-1 $148 $148 $93 $149 forward $143 $-1 #
edge $-1 $238 0 $238 6.2831853071796004 $148 $239 forward 7 unknown #
face $-1 $240 $241 $32 $-1 $242 reversed single #
loop $-1 $-1 $243 $94 #
plane-surface $-1 42.803949038690376 -10.337329104480339 203.4151379495693 0 1 0 0.6018150307709319 0 0.79863550430605224 forward_v I I I I #
coedge $-1 $244 $245 $246 $247 reversed $95 $-1 #
coedge $-1 $155 $97 $248 $249 reversed $61 $-1 #
coedge $-1 $97 $154 $244 $250 reversed $61 $-1 #
coedge $-1 $246 $251 $97 $157 forward $252 $-1 #
edge $-1 $253 -49.189779379394395 $254 -36.124483949970681 $156 $255 forward 7 unknown #
loop $-1 $-1 $163 $98 #
plane-surface $-1 -42.162408050797652 -6.7527714216380694 90.660976000032065 0.6018150307709319 0 0.79863550430605224 0.79863550430605224 0 -0.6018150307709319 forward_v I I I I #
loop $-1 $-1 $256 $63 #
coedge $-1 $161 $161 $162 $257 reversed $99 $-1 #
coedge $-1 $162 $162 $161 $257 forward $101 $-1 #
coedge $-1 $163 $163 $102 $164 forward $158 $-1 #
edge $-1 $258 0 $258 6.2831853071796004 $163 $259 forward 7 unknown #
face $-1 $260 $261 $34 $-1 $262 reversed single #
loop $-1 $-1 $263 $103 #
plane-surface $-1 42.803949038690376 12.954757317740846 203.4151379495693 0 1 0 0.6018150307709319 0 0.79863550430605224 forward_v I I I I #
coedge $-1 $264 $265 $266 $267 reversed $104 $-1 #
coedge $-1 $170 $106 $268 $269 reversed $67 $-1 #
coedge $-1 $106 $169 $264 $270 reversed $67 $-1 #
coedge $-1 $266 $271 $106 $172 forward $272 $-1 #
edge $-1 $273 -49.189779379394395 $274 -36.124483949970681 $171 $275 forward 7 unknown #
loop $-1 $-1 $178 $107 #
plane-surface $-1 -42.162408050797652 16.539315000583116 90.660976000032065 0.6018150307709319 0 0.79863550430605224 0.79863550430605224 0 -0.6018150307709319 forward_v I I I I #
loop $-1 $-1 $276 $69 #
coedge $-1 $176 $176 $177 $277 reversed $108 $-1 #
coedge $-1 $177 $177 $176 $277 forward $110 $-1 #
coedge $-1 $178 $178 $111 $179 forward $173 $-1 #
edge $-1 $278 0 $278 6.2831853071796004 $178 $279 forward 7 unknown #
face $-1 $280 $281 $27 $-1 $282 reversed single #
loop $-1 $-1 $283 $112 #
plane-surface $-1 -70.591753898739583 0 0 1 0 0 0 0 -1 forward_v I I I I #
coedge $-1 $284 $191 $285 $286 forward $113 $-1 #
coedge $-1 $287 $115 $284 $288 forward $73 $-1 #
coedge $-1 $115 $287 $289 $290 forward $73 $-1 #
coedge $-1 $194 $193 $115 $187 reversed $195 $-1 #
edge $-1 $291 -32.869426788654735 $292 32.869426788654735 $186 $293 forward 7 unknown #
coedge $-1 $117 $116 $294 $295 forward $46 $-1 #
coedge $-1 $296 $297 $116 $190 reversed $281 $-1 #
edge $-1 $197 -70.591753898739583 $298 70.591753898739583 $189 $299 forward 7 unknown #
coedge $-1 $183 $300 $117 $192 reversed $113 $-1 #
edge $-1 $301 -70.591753898739583 $196 70.591753898739583 $191 $302 forward 7 unknown #
coedge $-1 $186 $118 $300 $303 forward $195 $-1 #
coedge $-1 $118 $186 $296 $304 reversed $195 $-1 #
loop $-1 $-1 $193 $280 #
vertex $-1 $119 $305 #
vertex $-1 $119 $306 #
straight-curve $-1 70.591753898739583 0 15.540025392593881 0 1 0 I I #
face $-1 $307 $308 $28 $-1 $309 reversed single #
loop $-1 $-1 $310 $120 #
plane-surface $-1 -70.591753898739583 0 0 1 0 0 0 0 -1 forward_v I I I I #
coedge $-1 $311 $208 $213 $312 reversed $121 $-1 #
coedge $-1 $313 $123 $314 $315 reversed $77 $-1 #
coedge $-1 $123 $313 $311 $316 forward $77 $-1 #
coedge $-1 $213 $212 $123 $206 forward $214 $-1 #
edge $-1 $317 -21.223383577544144 $318 -2.0687028446770377 $205 $319 forward 7 unknown #
coedge $-1 $125 $124 $310 $320 reversed $49 $-1 #
coedge $-1 $202 $321 $124 $209 reversed $121 $-1 #
edge $-1 $215 -70.591753898739583 $322 70.591753898739583 $208 $323 forward 7 unknown #
coedge $-1 $324 $325 $125 $211 forward $308 $-1 #
edge $-1 $216 -70.591753898739583 $326 70.591753898739583 $210 $327 forward 7 unknown #
coedge $-1 $205 $126 $325 $328 forward $214 $-1 #
coedge $-1 $126 $205 $202 $312 forward $214 $-1 #
loop $-1 $-1 $126 $307 #
vertex $-1 $127 $329 #
vertex $-1 $328 $330 #
straight-curve $-1 70.591753898739583 -11.646043211110591 -0.86456107230495416 0 -1 0 I I #
face $-1 $-1 $331 $29 $-1 $332 reversed single #
loop $-1 $-1 $333 $128 #
plane-surface $-1 0 32.869426788654735 0 0 -1 0 0 0 -1 forward_v I I I I #
coedge $-1 $334 $131 $133 $227 forward $81 $-1 #
coedge $-1 $131 $334 $333 $335 reversed $81 $-1 #
coedge $-1 $336 $134 $131 $224 forward $129 $-1 #
edge $-1 $230 10.457379951022634 $337 18.427157875428946 $223 $338 forward 7 unknown #
coedge $-1 $339 $340 $132 $226 forward $331 $-1 #
edge $-1 $341 -56.177077830299069 $229 -43.933655078526854 $225 $342 forward 7 unknown #
edge $-1 $230 -21.345755888909693 $341 -1.7244671030687178e-014 $133 $343 forward 7 unknown #
coedge $-1 $134 $336 $339 $344 forward $129 $-1 #
vertex $-1 $226 $345 #
vertex $-1 $135 $346 #
straight-curve $-1 -75.785644108207094 24.899648864248423 15.540025392593883 1 0 0 I I #
coedge $-1 $232 $232 $-1 $347 reversed $138 $-1 #
edge $-1 $348 0 $348 6.2831853071796004 $139 $349 forward 7 unknown #
vertex $-1 $142 $350 #
ellipse-curve $-1 -61.849044167336103 27.176728271221656 9.4183140167077752 -0.57357644374324357 0 0.81915203911291934 0.40957601955645967 0 0.28678822187162178 1 I I #
coedge $-1 $236 $236 $-1 $351 reversed $145 $-1 #
edge $-1 $352 0 $352 6.2831853071796004 $146 $353 forward 7 unknown #
vertex $-1 $149 $354 #
ellipse-curve $-1 -61.849044167336103 30.592347381681506 9.4183140167077752 -0.57357644374324357 0 0.81915203911291934 0.40957601955645967 0 0.28678822187162178 1 I I #
face $-1 $-1 $252 $32 $-1 $355 forward single #
loop $-1 $-1 $356 $150 #
plane-surface $-1 70.591753898739583 0 0 -1 0 0 0 0 1 forward_v I I I I #
coedge $-1 $357 $358 $359 $360 reversed $151 $-1 #
coedge $-1 $361 $153 $155 $250 forward $95 $-1 #
coedge $-1 $153 $361 $357 $362 forward $95 $-1 #
coedge $-1 $359 $156 $153 $247 forward $252 $-1 #
edge $-1 $254 -0.20817197202323534 $363 6.9609433936613048 $246 $364 forward 7 unknown #
coedge $-1 $365 $366 $154 $249 forward $241 $-1 #
edge $-1 $367 -96.012950064240613 $253 -86.167543582190774 $248 $368 forward 7 unknown #
edge $-1 $254 124.82398538834666 $367 141.18350779747919 $155 $369 forward 7 unknown #
coedge $-1 $156 $359 $365 $370 forward $252 $-1 #
loop $-1 $-1 $359 $240 #
vertex $-1 $249 $371 #
vertex $-1 $157 $372 #
straight-curve $-1 21.401974519345188 -3.1682137387957994 15.540025392593876 -1 0 0 I I #
coedge $-1 $256 $256 $-1 $373 reversed $160 $-1 #
edge $-1 $374 0 $374 6.2831853071796004 $161 $375 forward 7 unknown #
vertex $-1 $164 $376 #
ellipse-curve $-1 64.059106184027726 -6.7527714216380694 10.617322151568954 0.6018150307709319 0 0.79863550430605224 0.79863550430605224 0 -0.6018150307709319 1 I I #
face $-1 $-1 $272 $34 $-1 $377 forward single #
loop $-1 $-1 $378 $165 #
plane-surface $-1 70.591753898739583 0 0 -1 0 0 0 0 1 forward_v I I I I #
coedge $-1 $379 $380 $381 $382 reversed $166 $-1 #
coedge $-1 $383 $168 $170 $270 forward $104 $-1 #
coedge $-1 $168 $383 $379 $384 forward $104 $-1 #
coedge $-1 $381 $171 $168 $267 forward $272 $-1 #
edge $-1 $274 -11.854215183133828 $385 -4.6850998174492879 $266 $386 forward 7 unknown #
coedge $-1 $387 $388 $169 $269 forward $261 $-1 #
edge $-1 $389 -96.012950064240613 $273 -86.167543582190774 $268 $390 forward 7 unknown #
edge $-1 $274 124.82398538834666 $389 141.18350779747919 $170 $391 forward 7 unknown #
coedge $-1 $171 $381 $387 $392 forward $272 $-1 #
loop $-1 $-1 $381 $260 #
vertex $-1 $269 $393 #
vertex $-1 $172 $394 #
straight-curve $-1 21.401974519345188 20.123872683425386 15.540025392593876 -1 0 0 I I #
coedge $-1 $276 $276 $-1 $395 reversed $175 $-1 #
edge $-1 $396 0 $396 6.2831853071796004 $176 $397 forward 7 unknown #
vertex $-1 $179 $398 #
ellipse-curve $-1 64.059106184027726 16.539315000583116 10.617322151568954 0.6018150307709319 0 0.79863550430605224 0.79863550430605224 0 -0.6018150307709319 1 I I #
face $-1 $-1 $195 $27 $-1 $399 reversed single #
loop $-1 $-1 $296 $180 #
plane-surface $-1 0 32.869426788654735 0 0 -1 0 0 0 -1 forward_v I I I I #
coedge $-1 $400 $294 $297 $401 forward $181 $-1 #
coedge $-1 $300 $183 $184 $288 reversed $113 $-1 #
coedge $-1 $294 $400 $183 $286 reversed $181 $-1 #
edge $-1 $301 -15.540025392593881 $402 15.540025392593881 $285 $403 forward 7 unknown #
coedge $-1 $185 $184 $400 $404 forward $73 $-1 #
edge $-1 $292 -70.591753898739583 $402 70.591753898739583 $284 $405 forward 7 unknown #
coedge $-1 $297 $296 $185 $290 reversed $281 $-1 #
edge $-1 $406 -70.591753898739583 $291 70.591753898739583 $289 $407 forward 7 unknown #
vertex $-1 $187 $408 #
vertex $-1 $303 $409 #
straight-curve $-1 70.591753898739583 0 -15.540025392593881 0 -1 0 I I #
coedge $-1 $283 $285 $188 $295 reversed $181 $-1 #
edge $-1 $298 -32.869426788654735 $301 32.869426788654735 $294 $410 forward 7 unknown #
coedge $-1 $289 $189 $194 $304 forward $281 $-1 #
coedge $-1 $189 $289 $283 $401 reversed $281 $-1 #
vertex $-1 $190 $411 #
straight-curve $-1 0 32.869426788654735 15.540025392593881 -1 0 0 I I #
coedge $-1 $191 $284 $193 $303 reversed $113 $-1 #
vertex $-1 $295 $412 #
straight-curve $-1 0 -32.869426788654735 15.540025392593881 1 0 0 I I #
edge $-1 $196 -15.540025392593881 $292 15.540025392593881 $193 $413 forward 7 unknown #
edge $-1 $197 -15.540025392593881 $291 15.540025392593881 $194 $414 forward 7 unknown #
point $-1 70.591753898739583 -32.869426788654735 15.540025392593881 #
point $-1 70.591753898739583 32.869426788654735 15.540025392593881 #
face $-1 $-1 $214 $28 $-1 $415 reversed single #
loop $-1 $-1 $210 $199 #
plane-surface $-1 0 -32.869426788654735 0 0 1 0 0 0 1 forward_v I I I I #
coedge $-1 $416 $417 $207 $320 forward $200 $-1 #
coedge $-1 $321 $202 $204 $316 reversed $121 $-1 #
edge $-1 $318 -6.5871350709366956 $215 1.6193376421089294 $213 $418 forward 7 unknown #
coedge $-1 $204 $203 $419 $420 reversed $77 $-1 #
coedge $-1 $325 $324 $203 $315 forward $308 $-1 #
edge $-1 $421 -70.591753898739583 $317 70.591753898739583 $314 $422 forward 7 unknown #
edge $-1 $423 -70.591753898739583 $318 70.591753898739583 $311 $424 forward 7 unknown #
vertex $-1 $315 $425 #
vertex $-1 $206 $426 #
straight-curve $-1 70.591753898739583 -11.646043211110591 -9.0710337853505791 0 1 0 I I #
edge $-1 $326 -21.223383577544144 $322 -2.0687028446770377 $310 $427 forward 7 unknown #
coedge $-1 $208 $311 $416 $428 reversed $121 $-1 #
vertex $-1 $320 $429 #
straight-curve $-1 0 -13.714746055787629 -0.86456107230495416 -1 0 0 I I #
coedge $-1 $314 $210 $417 $430 forward $308 $-1 #
coedge $-1 $210 $314 $212 $328 reversed $308 $-1 #
vertex $-1 $430 $431 #
straight-curve $-1 0 -32.869426788654735 -0.86456107230495416 -1 0 0 I I #
edge $-1 $216 0.86456107230495416 $317 9.0710337853505791 $212 $432 forward 7 unknown #
point $-1 70.591753898739583 -13.714746055787629 -0.86456107230495416 #
point $-1 70.591753898739583 -32.869426788654735 -0.86456107230495416 #
loop $-1 $-1 $225 $218 #
plane-surface $-1 -70.591753898739583 0 0 1 0 0 0 0 -1 forward_v I I I I #
coedge $-1 $433 $434 $222 $335 forward $219 $-1 #
coedge $-1 $222 $221 $340 $435 reversed $81 $-1 #
edge $-1 $337 6.6215068768667287 $436 27.967262765776404 $333 $437 forward 7 unknown #
coedge $-1 $228 $223 $434 $438 forward $129 $-1 #
vertex $-1 $438 $439 #
straight-curve $-1 -53.106334435932624 14.442268913225789 15.540025392593883 0 1 0 I I #
coedge $-1 $440 $225 $228 $344 reversed $331 $-1 #
coedge $-1 $225 $440 $334 $435 forward $331 $-1 #
vertex $-1 $226 $441 #
straight-curve $-1 -70.591753898739583 24.899648864248423 59.473680471120737 0 0 1 I I #
straight-curve $-1 -70.591753898739597 24.899648864248423 3.2966026408216607 -0.81915203911291934 0 -0.57357644374324357 I I #
edge $-1 $442 -32.869426788654735 $229 -24.899648864248423 $339 $443 forward 7 unknown #
point $-1 -70.591753898739583 24.899648864248423 15.540025392593881 #
point $-1 -53.106334435932617 24.899648864248423 15.540025392593881 #
edge $-1 $444 1 $444 0 $232 $-1 forward 7 unknown #
vertex $-1 $233 $445 #
ellipse-curve $-1 -61.275467723592854 27.176728271221656 8.5991619775948553 -0.57357644374324357 0 0.81915203911291934 0.40957601955645967 0 0.28678822187162178 1 I I #
point $-1 -61.439468147779642 27.176728271221656 9.7051022385793964 #
edge $-1 $446 1 $446 0 $236 $-1 forward 7 unknown #
vertex $-1 $237 $447 #
ellipse-curve $-1 -61.275467723592854 30.592347381681506 8.5991619775948553 -0.57357644374324357 0 0.81915203911291934 0.40957601955645967 0 0.28678822187162178 1 I I #
point $-1 -61.439468147779642 30.592347381681506 9.7051022385793964 #
plane-surface $-1 0 0 15.540025392593881 0 0 1 1 0 0 forward_v I I I I #
coedge $-1 $366 $365 $358 $448 forward $241 $-1 #
coedge $-1 $358 $243 $245 $362 reversed $151 $-1 #
coedge $-1 $243 $357 $356 $448 reversed $151 $-1 #
coedge $-1 $251 $246 $243 $360 forward $252 $-1 #
edge $-1 $363 36.124483949970681 $449 49.189779379394395 $359 $450 forward 7 unknown #
coedge $-1 $245 $244 $366 $451 reversed $95 $-1 #
edge $-1 $452 -141.18350779747919 $363 -124.82398538834666 $357 $453 forward 7 unknown #
vertex $-1 $247 $454 #
straight-curve $-1 57.526458469315848 -3.3763857108190347 15.540025392593876 0 -1 0 I I #
coedge $-1 $356 $248 $251 $370 reversed $241 $-1 #
coedge $-1 $248 $356 $361 $451 forward $241 $-1 #
vertex $-1 $249 $455 #
straight-curve $-1 70.591753898739583 -3.1682137387957994 101.70756897478465 0 0 1 I I #
straight-curve $-1 -42.162408050797652 -3.1682137387957994 90.660976000032065 0.79863550430605224 0 -0.6018150307709319 I I #
edge $-1 $449 -10.337329104480339 $253 -3.1682137387957994 $365 $456 forward 7 unknown #
point $-1 70.591753898739583 -3.1682137387957994 15.540025392593881 #
point $-1 57.52645846931587 -3.1682137387957994 15.540025392593876 #
edge $-1 $457 1 $457 0 $256 $-1 forward 7 unknown #
vertex $-1 $257 $458 #
ellipse-curve $-1 61.987897869715503 -6.7527714216380694 7.8687359381195243 0.6018150307709319 0 0.79863550430605224 0.79863550430605224 0 -0.6018150307709319 1 I I #
point $-1 64.857741688333789 -6.7527714216380694 10.015507120798034 #
plane-surface $-1 0 0 15.540025392593881 0 0 1 1 0 0 forward_v I I I I #
coedge $-1 $388 $387 $380 $459 forward $261 $-1 #
coedge $-1 $380 $263 $265 $384 reversed $166 $-1 #
coedge $-1 $263 $379 $378 $459 reversed $166 $-1 #
coedge $-1 $271 $266 $263 $382 forward $272 $-1 #
edge $-1 $385 36.124483949970681 $460 49.189779379394395 $381 $461 forward 7 unknown #
coedge $-1 $265 $264 $388 $462 reversed $104 $-1 #
edge $-1 $463 -141.18350779747919 $385 -124.82398538834666 $379 $464 forward 7 unknown #
vertex $-1 $267 $465 #
straight-curve $-1 57.526458469315848 8.269657500291558 15.540025392593876 0 -1 0 I I #
coedge $-1 $378 $268 $271 $392 reversed $261 $-1 #
coedge $-1 $268 $378 $383 $462 forward $261 $-1 #
vertex $-1 $269 $466 #
straight-curve $-1 70.591753898739583 20.123872683425386 101.70756897478465 0 0 1 I I #
straight-curve $-1 -42.162408050797652 20.123872683425386 90.660976000032065 0.79863550430605224 0 -0.6018150307709319 I I #
edge $-1 $460 12.954757317740846 $273 20.123872683425386 $387 $467 forward 7 unknown #
point $-1 70.591753898739583 20.123872683425386 15.540025392593881 #
point $-1 57.52645846931587 20.123872683425386 15.540025392593876 #
edge $-1 $468 1 $468 0 $276 $-1 forward 7 unknown #
vertex $-1 $277 $469 #
ellipse-curve $-1 61.987897869715503 16.539315000583116 7.8687359381195243 0.6018150307709319 0 0.79863550430605224 0.79863550430605224 0 -0.6018150307709319 1 I I #
point $-1 64.857741688333789 16.539315000583116 10.015507120798034 #
plane-surface $-1 70.591753898739583 0 0 -1 0 0 0 0 1 forward_v I I I I #
coedge $-1 $285 $283 $287 $404 reversed $181 $-1 #
edge $-1 $298 -15.540025392593881 $406 15.540025392593881 $297 $470 forward 7 unknown #
vertex $-1 $404 $471 #
straight-curve $-1 -70.591753898739583 -32.869426788654735 0 0 0 -1 I I #
edge $-1 $402 -32.869426788654735 $406 32.869426788654735 $400 $472 forward 7 unknown #
straight-curve $-1 0 -32.869426788654735 -15.540025392593881 -1 0 0 I I #
vertex $-1 $290 $473 #
straight-curve $-1 0 32.869426788654735 -15.540025392593881 1 0 0 I I #
point $-1 70.591753898739583 32.869426788654735 -15.540025392593881 #
point $-1 70.591753898739583 -32.869426788654735 -15.540025392593881 #
straight-curve $-1 -70.591753898739583 0 15.540025392593881 0 -1 0 I I #
point $-1 -70.591753898739583 32.869426788654735 15.540025392593881 #
point $-1 -70.591753898739583 -32.869426788654735 15.540025392593881 #
straight-curve $-1 70.591753898739583 -32.869426788654735 0 0 0 -1 I I #
straight-curve $-1 70.591753898739583 32.869426788654735 0 0 0 -1 I I #
plane-surface $-1 70.591753898739583 0 0 -1 0 0 0 0 1 forward_v I I I I #
coedge $-1 $419 $310 $321 $428 forward $200 $-1 #
coedge $-1 $310 $419 $324 $430 reversed $200 $-1 #
straight-curve $-1 70.591753898739583 -13.714746055787629 -2.4838987144138835 0 0 1 I I #
coedge $-1 $417 $416 $313 $420 forward $200 $-1 #
edge $-1 $423 2.0687028446770377 $421 21.223383577544144 $419 $474 forward 7 unknown #
vertex $-1 $315 $475 #
straight-curve $-1 0 -32.869426788654735 -9.0710337853505791 1 0 0 I I #
vertex $-1 $420 $476 #
straight-curve $-1 0 -13.714746055787629 -9.0710337853505791 1 0 0 I I #
point $-1 70.591753898739583 -32.869426788654735 -9.0710337853505791 #
point $-1 70.591753898739583 -13.714746055787629 -9.0710337853505791 #
straight-curve $-1 -70.591753898739583 -11.646043211110591 -0.86456107230495416 0 1 0 I I #
edge $-1 $322 -1.6193376421089294 $423 6.5871350709366956 $416 $477 forward 7 unknown #
point $-1 -70.591753898739583 -13.714746055787629 -0.86456107230495416 #
edge $-1 $326 0.86456107230495416 $421 9.0710337853505791 $417 $478 forward 7 unknown #
point $-1 -70.591753898739583 -32.869426788654735 -0.86456107230495416 #
straight-curve $-1 70.591753898739583 -32.869426788654735 0 0 0 -1 I I #
coedge $-1 $434 $333 $440 $479 reversed $219 $-1 #
coedge $-1 $333 $433 $336 $438 reversed $219 $-1 #
edge $-1 $436 -18.427157875428946 $341 -10.457379951022634 $340 $480 forward 7 unknown #
vertex $-1 $335 $481 #
straight-curve $-1 -47.682313575747017 32.869426788654735 19.337965759248529 -0.81915203911291934 0 -0.57357644374324357 I I #
edge $-1 $337 53.106334435932617 $442 70.591753898739583 $434 $482 forward 7 unknown #
point $-1 -53.106334435932617 32.869426788654735 15.540025392593881 #
coedge $-1 $340 $339 $433 $479 forward $331 $-1 #
point $-1 -70.591753898739583 24.899648864248423 3.2966026408216704 #
vertex $-1 $438 $483 #
straight-curve $-1 -70.591753898739583 0 15.540025392593881 0 -1 0 I I #
vertex $-1 $347 $484 #
point $-1 -60.865891704036393 27.176728271221656 8.8859501994664765 #
vertex $-1 $351 $485 #
point $-1 -60.865891704036393 30.592347381681506 8.8859501994664765 #
edge $-1 $449 86.167543582190774 $452 96.012950064240613 $356 $486 forward 7 unknown #
vertex $-1 $370 $487 #
straight-curve $-1 21.401974519345188 -10.337329104480339 15.540025392593876 1 0 0 I I #
edge $-1 $452 -6.9609433936613048 $367 0.20817197202323534 $366 $488 forward 7 unknown #
vertex $-1 $451 $489 #
straight-curve $-1 -42.162408050797652 -10.337329104480339 90.660976000032065 -0.79863550430605224 0 0.6018150307709319 I I #
point $-1 57.52645846931587 -10.337329104480339 15.540025392593876 #
point $-1 70.591753898739583 -3.1682137387957994 5.6946189105440368 #
straight-curve $-1 70.591753898739583 0 15.540025392593881 0 1 0 I I #
vertex $-1 $373 $490 #
point $-1 62.786533374021552 -6.7527714216380694 7.2669209073485925 #
edge $-1 $460 86.167543582190774 $463 96.012950064240613 $378 $491 forward 7 unknown #
vertex $-1 $392 $492 #
straight-curve $-1 21.401974519345188 12.954757317740846 15.540025392593876 1 0 0 I I #
edge $-1 $463 4.6850998174492879 $389 11.854215183133828 $388 $493 forward 7 unknown #
vertex $-1 $462 $494 #
straight-curve $-1 -42.162408050797652 12.954757317740846 90.660976000032065 -0.79863550430605224 0 0.6018150307709319 I I #
point $-1 57.52645846931587 12.954757317740846 15.540025392593876 #
point $-1 70.591753898739583 20.123872683425386 5.6946189105440368 #
straight-curve $-1 70.591753898739583 0 15.540025392593881 0 1 0 I I #
vertex $-1 $395 $495 #
point $-1 62.786533374021552 16.539315000583116 7.2669209073485925 #
straight-curve $-1 -70.591753898739583 32.869426788654735 0 0 0 -1 I I #
point $-1 -70.591753898739583 -32.869426788654735 -15.540025392593881 #
straight-curve $-1 -70.591753898739583 0 -15.540025392593881 0 1 0 I I #
point $-1 -70.591753898739583 32.869426788654735 -15.540025392593881 #
straight-curve $-1 -70.591753898739583 -11.646043211110591 -9.0710337853505791 0 -1 0 I I #
point $-1 -70.591753898739583 -32.869426788654735 -9.0710337853505791 #
point $-1 -70.591753898739583 -13.714746055787629 -9.0710337853505791 #
straight-curve $-1 -70.591753898739583 -13.714746055787629 -2.4838987144138835 0 0 -1 I I #
straight-curve $-1 -70.591753898739583 -32.869426788654735 0 0 0 -1 I I #
edge $-1 $442 -15.540025392593881 $436 -3.2966026408216704 $433 $496 forward 7 unknown #
straight-curve $-1 -70.591753898739583 14.442268913225789 3.2966026408216731 0 -1 0 I I #
point $-1 -70.591753898739583 32.869426788654735 3.2966026408216704 #
straight-curve $-1 0 32.869426788654735 15.540025392593881 -1 0 0 I I #
point $-1 -70.591753898739583 32.869426788654735 15.540025392593881 #
point $-1 -60.988679501721236 27.176728271221656 8.1895859580383945 #
point $-1 -60.988679501721236 30.592347381681506 8.1895859580383945 #
straight-curve $-1 70.591753898739583 -10.337329104480339 101.70756897478465 0 0 -1 I I #
point $-1 70.591753898739583 -10.337329104480339 15.540025392593881 #
straight-curve $-1 70.591753898739569 -3.3763857108190347 5.6946189105440439 0 1 0 I I #
point $-1 70.591753898739583 -10.337329104480339 5.6946189105440368 #
point $-1 61.386082838944567 -6.7527714216380694 7.0701004338134723 #
straight-curve $-1 70.591753898739583 12.954757317740846 101.70756897478465 0 0 -1 I I #
point $-1 70.591753898739583 12.954757317740846 15.540025392593881 #
straight-curve $-1 70.591753898739569 8.269657500291558 5.6946189105440439 0 1 0 I I #
point $-1 70.591753898739583 12.954757317740846 5.6946189105440368 #
point $-1 61.386082838944567 16.539315000583116 7.0701004338134723 #
straight-curve $-1 -70.591753898739583 32.869426788654735 0 0 0 -1 I I #
End-of-ACIS-data 