500 0 15 0           
7 Unknown 11 ACIS 5.0 NT 24 Fri Mar 26 20:28:47 1999 
-1 9.9999999999999995e-007 1e-010 
body $-1 $15 $-1 $16 #
body $-1 $17 $-1 $18 #
body $-1 $19 $-1 $20 #
body $-1 $21 $-1 $22 #
body $-1 $23 $-1 $24 #
body $-1 $25 $-1 $26 #
body $-1 $27 $-1 $28 #
body $-1 $29 $-1 $30 #
body $-1 $31 $-1 $32 #
body $-1 $33 $-1 $34 #
body $-1 $35 $-1 $36 #
body $-1 $37 $-1 $38 #
body $-1 $39 $-1 $40 #
body $-1 $41 $-1 $42 #
body $-1 $43 $-1 $44 #
lump $-1 $-1 $45 $0 #
transform $-1 1 0 0 0 1 0 0 0 1 55.431379131443222 38.468027154132308 14.051448622327634 1 rotate no_reflect no_shear #
lump $-1 $-1 $46 $1 #
transform $-1 1 0 0 0 1 0 0 0 1 55.431379131443222 38.468027154132308 14.051448622327634 1 rotate no_reflect no_shear #
lump $-1 $-1 $47 $2 #
transform $-1 1 0 0 0 1 0 0 0 1 55.431379131443222 38.468027154132308 14.051448622327634 1 rotate no_reflect no_shear #
lump $-1 $-1 $48 $3 #
transform $-1 1 0 0 0 1 0 0 0 1 55.431379131443222 38.468027154132308 14.051448622327634 1 rotate no_reflect no_shear #
lump $-1 $-1 $49 $4 #
transform $-1 1 0 0 0 1 0 0 0 1 55.431379131443222 38.468027154132308 14.051448622327634 1 rotate no_reflect no_shear #
lump $-1 $-1 $50 $5 #
transform $-1 1 0 0 0 1 0 0 0 1 55.431379131443222 38.468027154132308 14.051448622327634 1 rotate no_reflect no_shear #
lump $-1 $-1 $51 $6 #
transform $-1 1 0 0 0 1 0 0 0 1 55.431379131443222 38.468027154132308 14.051448622327634 1 rotate no_reflect no_shear #
lump $-1 $-1 $52 $7 #
transform $-1 1 0 0 0 1 0 0 0 1 55.431379131443222 38.468027154132308 14.051448622327634 1 rotate no_reflect no_shear #
lump $-1 $-1 $53 $8 #
transform $-1 1 0 0 0 1 0 0 0 1 55.431379131443222 38.468027154132308 14.051448622327634 1 rotate no_reflect no_shear #
lump $-1 $-1 $54 $9 #
transform $-1 1 0 0 0 1 0 0 0 1 55.431379131443222 38.468027154132308 14.051448622327634 1 rotate no_reflect no_shear #
lump $-1 $-1 $55 $10 #
transform $-1 1 0 0 0 1 0 0 0 1 55.431379131443222 38.468027154132308 14.051448622327634 1 rotate no_reflect no_shear #
lump $-1 $-1 $56 $11 #
transform $-1 1 0 0 0 1 0 0 0 1 55.431379131443222 38.468027154132308 14.051448622327634 1 rotate no_reflect no_shear #
lump $-1 $-1 $57 $12 #
transform $-1 1 0 0 0 1 0 0 0 1 55.431379131443222 38.468027154132308 14.051448622327634 1 rotate no_reflect no_shear #
lump $-1 $-1 $58 $13 #
transform $-1 1 0 0 0 1 0 0 0 1 55.431379131443222 38.468027154132308 14.051448622327634 1 rotate no_reflect no_shear #
lump $-1 $-1 $59 $14 #
transform $-1 1 0 0 0 1 0 0 0 1 55.431379131443222 38.468027154132308 14.051448622327634 1 rotate no_reflect no_shear #
shell $-1 $-1 $-1 $60 $-1 $15 #
shell $-1 $-1 $-1 $61 $-1 $17 #
shell $-1 $-1 $-1 $62 $-1 $19 #
shell $-1 $-1 $-1 $63 $-1 $21 #
shell $-1 $-1 $-1 $64 $-1 $23 #
shell $-1 $-1 $-1 $65 $-1 $25 #
shell $-1 $-1 $-1 $66 $-1 $27 #
shell $-1 $-1 $-1 $67 $-1 $29 #
shell $-1 $-1 $-1 $68 $-1 $31 #
shell $-1 $-1 $-1 $69 $-1 $33 #
shell $-1 $-1 $-1 $70 $-1 $35 #
shell $-1 $-1 $-1 $71 $-1 $37 #
shell $-1 $-1 $-1 $72 $-1 $39 #
shell $-1 $-1 $-1 $73 $-1 $41 #
shell $-1 $-1 $-1 $74 $-1 $43 #
face $-1 $75 $76 $45 $-1 $77 forward single #
face $-1 $78 $79 $46 $-1 $80 reversed single #
face $-1 $81 $82 $47 $-1 $83 reversed single #
face $-1 $84 $85 $48 $-1 $86 reversed single #
face $-1 $87 $88 $49 $-1 $89 forward single #
face $-1 $90 $91 $50 $-1 $92 forward single #
face $-1 $93 $94 $51 $-1 $95 reversed single #
face $-1 $96 $97 $52 $-1 $98 forward single #
face $-1 $99 $100 $53 $-1 $101 forward single #
face $-1 $102 $103 $54 $-1 $104 reversed single #
face $-1 $105 $106 $55 $-1 $107 forward single #
face $-1 $108 $109 $56 $-1 $110 forward single #
face $-1 $111 $112 $57 $-1 $113 reversed single #
face $-1 $114 $115 $58 $-1 $116 forward single #
face $-1 $117 $118 $59 $-1 $119 forward single #
face $-1 $120 $121 $45 $-1 $122 reversed single #
loop $-1 $-1 $123 $60 #
plane-surface $-1 0 0 14.051448622327634 0 0 1 1 0 0 forward_v I I I I #
face $-1 $124 $125 $46 $-1 $126 reversed single #
loop $-1 $-1 $127 $61 #
plane-surface $-1 -51.90378669050785 -28.507729820070914 0 0 -1 0 0 0 -1 forward_v I I I I #
face $-1 $128 $129 $47 $-1 $130 reversed single #
loop $-1 $-1 $131 $62 #
plane-surface $-1 -51.90378669050785 28.507729820070921 0 0 1 0 0 0 1 forward_v I I I I #
face $-1 $132 $133 $48 $-1 $134 reversed single #
loop $-1 $-1 $135 $63 #
plane-surface $-1 -55.431379131443194 -23.983511262763756 7.1343514117281543 -0.85716730853699208 0 0.51503806187062418 0.51503806187062418 0 0.85716730853699208 forward_v I I I I #
face $-1 $136 $137 $49 $-1 $138 forward single #
loop $-1 $139 $140 $64 #
cone-surface $-1 -52.660256904237293 -25.922462073038254 10.176493622329675 0.85716730853699208 0 -0.51503806187062418 0.51503806187062418 0 0.85716730853699208 1 I I 0 1 1 forward I I I I #
face $-1 $141 $142 $50 $-1 $143 forward single #
loop $-1 $144 $145 $65 #
cone-surface $-1 -52.660256904237293 -22.044560452489257 10.176493622329675 0.85716730853699208 0 -0.51503806187062418 0.51503806187062418 0 0.85716730853699208 1 I I 0 1 1 forward I I I I #
face $-1 $146 $147 $51 $-1 $148 reversed single #
loop $-1 $-1 $149 $66 #
plane-surface $-1 -150.45931124862875 -12.518722311561746 64.232891561076713 0 1 0 -0.85716730853699208 0 0.51503806187062418 forward_v I I I I #
face $-1 $150 $151 $52 $-1 $152 forward single #
loop $-1 $153 $154 $67 #
cone-surface $-1 -52.660256904237293 -9.9334545645290824 10.176493622329675 0.85716730853699208 0 -0.51503806187062418 0.51503806187062418 0 0.85716730853699208 1 I I 0 1 1 forward I I I I #
face $-1 $155 $156 $53 $-1 $157 forward single #
loop $-1 $158 $159 $68 #
cone-surface $-1 -52.660256904237293 -6.0555529439800893 10.176493622329675 0.85716730853699208 0 -0.51503806187062418 0.51503806187062418 0 0.85716730853699208 1 I I 0 1 1 forward I I I I #
face $-1 $160 $161 $54 $-1 $162 reversed single #
loop $-1 $-1 $163 $69 #
plane-surface $-1 -150.45931124862875 3.4702851969474224 64.232891561076713 0 1 0 -0.85716730853699208 0 0.51503806187062418 forward_v I I I I #
face $-1 $164 $165 $55 $-1 $166 forward single #
loop $-1 $167 $168 $70 #
cone-surface $-1 -52.660256904237293 6.0555529439800893 10.176493622329675 0.85716730853699208 0 -0.51503806187062418 0.51503806187062418 0 0.85716730853699208 1 I I 0 1 1 forward I I I I #
face $-1 $169 $170 $56 $-1 $171 forward single #
loop $-1 $172 $173 $71 #
cone-surface $-1 -52.660256904237293 9.9334545645290788 10.176493622329675 0.85716730853699208 0 -0.51503806187062418 0.51503806187062418 0 0.85716730853699208 1 I I 0 1 1 forward I I I I #
face $-1 $174 $175 $57 $-1 $176 reversed single #
loop $-1 $-1 $177 $72 #
plane-surface $-1 -55.431379131443194 23.983511262763749 7.1343514117281543 -0.85716730853699208 0 0.51503806187062418 0.51503806187062418 0 0.85716730853699208 forward_v I I I I #
face $-1 $178 $179 $58 $-1 $180 forward single #
loop $-1 $181 $182 $73 #
cone-surface $-1 -52.660256904237293 22.044560452489257 10.176493622329675 0.85716730853699208 0 -0.51503806187062418 0.51503806187062418 0 0.85716730853699208 1 I I 0 1 1 forward I I I I #
face $-1 $183 $184 $59 $-1 $185 forward single #
loop $-1 $186 $187 $74 #
cone-surface $-1 -52.660256904237293 25.922462073038254 10.176493622329675 0.85716730853699208 0 -0.51503806187062418 0.51503806187062418 0 0.85716730853699208 1 I I 0 1 1 forward I I I I #
face $-1 $188 $189 $45 $-1 $190 reversed single #
loop $-1 $-1 $191 $75 #
plane-surface $-1 0 0 -14.051448622327634 0 0 1 1 0 0 forward_v I I I I #
coedge $-1 $192 $193 $194 $195 forward $76 $-1 #
face $-1 $196 $197 $46 $-1 $198 forward single #
loop $-1 $-1 $199 $78 #
plane-surface $-1 -48.376194249572478 -33.487878487101611 0 -1 0 0 0 0 1 forward_v I I I I #
coedge $-1 $200 $201 $202 $203 reversed $79 $-1 #
face $-1 $204 $205 $47 $-1 $206 reversed single #
loop $-1 $-1 $207 $81 #
plane-surface $-1 -48.376194249572478 33.487878487101618 0 -1 0 0 0 0 1 forward_v I I I I #
coedge $-1 $208 $209 $210 $211 reversed $82 $-1 #
face $-1 $212 $213 $48 $-1 $214 forward single #
loop $-1 $-1 $215 $84 #
plane-surface $-1 -150.45931124862875 -19.459292705456598 64.232891561076713 0 -1 0 0.85716730853699208 0 -0.51503806187062418 forward_v I I I I #
coedge $-1 $216 $217 $218 $219 reversed $85 $-1 #
face $-1 $-1 $220 $49 $-1 $221 forward single #
loop $-1 $222 $223 $87 #
cone-surface $-1 -51.538656607073136 -25.922462073038254 9.5025681966961422 0.85716730853699208 0 -0.51503806187062418 0.25751903093531209 0 0.42858365426849604 1 I I -0.70710678118654746 0.70710678118654746 0.5 forward I I I I #
loop $-1 $-1 $224 $64 #
coedge $-1 $140 $140 $225 $226 reversed $88 $-1 #
face $-1 $-1 $227 $50 $-1 $228 forward single #
loop $-1 $229 $230 $90 #
cone-surface $-1 -51.538656607073136 -22.044560452489257 9.5025681966961422 0.85716730853699208 0 -0.51503806187062418 0.25751903093531209 0 0.42858365426849604 1 I I -0.70710678118654746 0.70710678118654746 0.5 forward I I I I #
loop $-1 $-1 $231 $65 #
coedge $-1 $145 $145 $232 $233 reversed $91 $-1 #
face $-1 $234 $235 $51 $-1 $236 reversed single #
loop $-1 $-1 $237 $93 #
plane-surface $-1 -55.431379131443194 -7.9945037542545876 7.1343514117281543 -0.85716730853699208 0 0.51503806187062418 0.51503806187062418 0 0.85716730853699208 forward_v I I I I #
coedge $-1 $238 $239 $240 $241 reversed $94 $-1 #
face $-1 $-1 $242 $52 $-1 $243 forward single #
loop $-1 $244 $245 $96 #
cone-surface $-1 -51.538656607073136 -9.9334545645290824 9.5025681966961422 0.85716730853699208 0 -0.51503806187062418 0.25751903093531209 0 0.42858365426849604 1 I I -0.70710678118654746 0.70710678118654746 0.5 forward I I I I #
loop $-1 $-1 $246 $67 #
coedge $-1 $154 $154 $247 $248 reversed $97 $-1 #
face $-1 $-1 $249 $53 $-1 $250 forward single #
loop $-1 $251 $252 $99 #
cone-surface $-1 -51.538656607073136 -6.0555529439800893 9.5025681966961422 0.85716730853699208 0 -0.51503806187062418 0.25751903093531209 0 0.42858365426849604 1 I I -0.70710678118654746 0.70710678118654746 0.5 forward I I I I #
loop $-1 $-1 $253 $68 #
coedge $-1 $159 $159 $254 $255 reversed $100 $-1 #
face $-1 $256 $257 $54 $-1 $258 reversed single #
loop $-1 $-1 $259 $102 #
plane-surface $-1 -55.431379131443194 7.9945037542545805 7.1343514117281543 -0.85716730853699208 0 0.51503806187062418 0.51503806187062418 0 0.85716730853699208 forward_v I I I I #
coedge $-1 $260 $261 $262 $263 reversed $103 $-1 #
face $-1 $-1 $264 $55 $-1 $265 forward single #
loop $-1 $266 $267 $105 #
cone-surface $-1 -51.538656607073136 6.0555529439800893 9.5025681966961422 0.85716730853699208 0 -0.51503806187062418 0.25751903093531209 0 0.42858365426849604 1 I I -0.70710678118654746 0.70710678118654746 0.5 forward I I I I #
loop $-1 $-1 $268 $70 #
coedge $-1 $168 $168 $269 $270 reversed $106 $-1 #
face $-1 $-1 $271 $56 $-1 $272 forward single #
loop $-1 $273 $274 $108 #
cone-surface $-1 -51.538656607073136 9.9334545645290788 9.5025681966961422 0.85716730853699208 0 -0.51503806187062418 0.25751903093531209 0 0.42858365426849604 1 I I -0.70710678118654746 0.70710678118654746 0.5 forward I I I I #
loop $-1 $-1 $275 $71 #
coedge $-1 $173 $173 $276 $277 reversed $109 $-1 #
face $-1 $278 $279 $57 $-1 $280 forward single #
loop $-1 $-1 $281 $111 #
plane-surface $-1 -150.45931124862875 19.459292705456591 64.232891561076713 0 1 0 -0.85716730853699208 0 0.51503806187062418 forward_v I I I I #
coedge $-1 $282 $283 $284 $285 reversed $112 $-1 #
face $-1 $-1 $286 $58 $-1 $287 forward single #
loop $-1 $288 $289 $114 #
cone-surface $-1 -51.538656607073136 22.044560452489257 9.5025681966961422 0.85716730853699208 0 -0.51503806187062418 0.25751903093531209 0 0.42858365426849604 1 I I -0.70710678118654746 0.70710678118654746 0.5 forward I I I I #
loop $-1 $-1 $290 $73 #
coedge $-1 $182 $182 $291 $292 reversed $115 $-1 #
face $-1 $-1 $293 $59 $-1 $294 forward single #
loop $-1 $295 $296 $117 #
cone-surface $-1 -51.538656607073136 25.922462073038254 9.5025681966961422 0.85716730853699208 0 -0.51503806187062418 0.25751903093531209 0 0.42858365426849604 1 I I -0.70710678118654746 0.70710678118654746 0.5 forward I I I I #
loop $-1 $-1 $297 $74 #
coedge $-1 $187 $187 $298 $299 reversed $118 $-1 #
face $-1 $300 $301 $45 $-1 $302 reversed single #
loop $-1 $-1 $303 $120 #
plane-surface $-1 0 -38.468027154132308 0 0 1 0 0 0 1 forward_v I I I I #
coedge $-1 $304 $305 $306 $307 forward $121 $-1 #
coedge $-1 $308 $123 $309 $310 forward $76 $-1 #
coedge $-1 $123 $308 $311 $312 forward $76 $-1 #
coedge $-1 $313 $314 $123 $195 reversed $315 $-1 #
edge $-1 $316 -38.468027154132308 $317 38.468027154132308 $194 $318 forward 7 unknown #
face $-1 $319 $320 $46 $-1 $321 reversed single #
loop $-1 $-1 $322 $124 #
plane-surface $-1 0 0 14.051448622327634 0 0 1 1 0 0 forward_v I I I I #
coedge $-1 $323 $324 $325 $326 reversed $125 $-1 #
coedge $-1 $327 $127 $328 $329 forward $79 $-1 #
coedge $-1 $127 $327 $330 $331 reversed $79 $-1 #
coedge $-1 $332 $322 $127 $203 forward $197 $-1 #
edge $-1 $333 22.424300904318553 $334 29.479485786189297 $202 $335 forward 7 unknown #
face $-1 $336 $337 $47 $-1 $338 reversed single #
loop $-1 $-1 $339 $128 #
plane-surface $-1 0 0 -14.051448622327634 0 0 1 1 0 0 forward_v I I I I #
coedge $-1 $340 $341 $342 $343 forward $129 $-1 #
coedge $-1 $342 $131 $344 $345 reversed $82 $-1 #
coedge $-1 $131 $342 $346 $347 reversed $82 $-1 #
coedge $-1 $348 $349 $131 $211 forward $337 $-1 #
edge $-1 $350 -14.051448622327634 $351 14.051448622327634 $210 $352 forward 7 unknown #
face $-1 $353 $354 $48 $-1 $355 reversed single #
loop $-1 $-1 $218 $132 #
plane-surface $-1 0 0 14.051448622327634 0 0 1 1 0 0 forward_v I I I I #
coedge $-1 $356 $357 $358 $359 reversed $133 $-1 #
coedge $-1 $360 $135 $361 $362 reversed $85 $-1 #
coedge $-1 $135 $360 $356 $363 forward $85 $-1 #
coedge $-1 $358 $364 $135 $219 forward $213 $-1 #
edge $-1 $365 -16.515974188689036 $366 -7.4675370740747198 $218 $367 forward 7 unknown #
loop $-1 $-1 $225 $136 #
plane-surface $-1 -55.431379131443194 -23.983511262763756 7.1343514117281543 -0.85716730853699208 0 0.51503806187062418 0.51503806187062418 0 0.85716730853699208 forward_v I I I I #
loop $-1 $-1 $368 $87 #
coedge $-1 $223 $223 $224 $369 reversed $137 $-1 #
coedge $-1 $224 $224 $223 $369 forward $139 $-1 #
coedge $-1 $225 $225 $140 $226 forward $220 $-1 #
edge $-1 $370 0 $370 6.2831853071796004 $225 $371 forward 7 unknown #
loop $-1 $-1 $232 $141 #
plane-surface $-1 -55.431379131443194 -23.983511262763756 7.1343514117281543 -0.85716730853699208 0 0.51503806187062418 0.51503806187062418 0 0.85716730853699208 forward_v I I I I #
loop $-1 $-1 $372 $90 #
coedge $-1 $230 $230 $231 $373 reversed $142 $-1 #
coedge $-1 $231 $231 $230 $373 forward $144 $-1 #
coedge $-1 $232 $232 $145 $233 forward $227 $-1 #
edge $-1 $374 0 $374 6.2831853071796004 $232 $375 forward 7 unknown #
face $-1 $376 $377 $51 $-1 $378 forward single #
loop $-1 $-1 $379 $146 #
plane-surface $-1 -150.45931124862875 -3.4702851969474295 64.232891561076713 0 -1 0 0.85716730853699208 0 -0.51503806187062418 forward_v I I I I #
coedge $-1 $380 $381 $382 $383 reversed $147 $-1 #
coedge $-1 $239 $149 $384 $385 reversed $94 $-1 #
coedge $-1 $149 $238 $380 $386 reversed $94 $-1 #
coedge $-1 $382 $387 $149 $241 forward $377 $-1 #
edge $-1 $388 19.798276492871153 $389 23.954487661491726 $240 $390 forward 7 unknown #
loop $-1 $-1 $247 $150 #
plane-surface $-1 -55.431379131443194 -7.9945037542545876 7.1343514117281543 -0.85716730853699208 0 0.51503806187062418 0.51503806187062418 0 0.85716730853699208 forward_v I I I I #
loop $-1 $-1 $391 $96 #
coedge $-1 $245 $245 $246 $392 reversed $151 $-1 #
coedge $-1 $246 $246 $245 $392 forward $153 $-1 #
coedge $-1 $247 $247 $154 $248 forward $242 $-1 #
edge $-1 $393 0 $393 6.2831853071796004 $247 $394 forward 7 unknown #
loop $-1 $-1 $254 $155 #
plane-surface $-1 -55.431379131443194 -7.9945037542545876 7.1343514117281543 -0.85716730853699208 0 0.51503806187062418 0.51503806187062418 0 0.85716730853699208 forward_v I I I I #
loop $-1 $-1 $395 $99 #
coedge $-1 $252 $252 $253 $396 reversed $156 $-1 #
coedge $-1 $253 $253 $252 $396 forward $158 $-1 #
coedge $-1 $254 $254 $159 $255 forward $249 $-1 #
edge $-1 $397 0 $397 6.2831853071796004 $254 $398 forward 7 unknown #
face $-1 $399 $400 $54 $-1 $401 forward single #
loop $-1 $-1 $402 $160 #
plane-surface $-1 -150.45931124862875 12.518722311561739 64.232891561076713 0 -1 0 0.85716730853699208 0 -0.51503806187062418 forward_v I I I I #
coedge $-1 $403 $404 $405 $406 reversed $161 $-1 #
coedge $-1 $261 $163 $407 $408 reversed $103 $-1 #
coedge $-1 $163 $260 $403 $409 reversed $103 $-1 #
coedge $-1 $405 $410 $163 $263 forward $400 $-1 #
edge $-1 $411 19.798276492871153 $412 23.954487661491726 $262 $413 forward 7 unknown #
loop $-1 $-1 $269 $164 #
plane-surface $-1 -55.431379131443194 7.9945037542545805 7.1343514117281543 -0.85716730853699208 0 0.51503806187062418 0.51503806187062418 0 0.85716730853699208 forward_v I I I I #
loop $-1 $-1 $414 $105 #
coedge $-1 $267 $267 $268 $415 reversed $165 $-1 #
coedge $-1 $268 $268 $267 $415 forward $167 $-1 #
coedge $-1 $269 $269 $168 $270 forward $264 $-1 #
edge $-1 $416 0 $416 6.2831853071796004 $269 $417 forward 7 unknown #
loop $-1 $-1 $276 $169 #
plane-surface $-1 -55.431379131443194 7.9945037542545805 7.1343514117281543 -0.85716730853699208 0 0.51503806187062418 0.51503806187062418 0 0.85716730853699208 forward_v I I I I #
loop $-1 $-1 $418 $108 #
coedge $-1 $274 $274 $275 $419 reversed $170 $-1 #
coedge $-1 $275 $275 $274 $419 forward $172 $-1 #
coedge $-1 $276 $276 $173 $277 forward $271 $-1 #
edge $-1 $420 0 $420 6.2831853071796004 $276 $421 forward 7 unknown #
face $-1 $422 $423 $57 $-1 $424 forward single #
loop $-1 $-1 $425 $174 #
plane-surface $-1 0 0 14.051448622327634 0 0 1 1 0 0 forward_v I I I I #
coedge $-1 $426 $427 $428 $429 reversed $175 $-1 #
coedge $-1 $430 $177 $431 $432 reversed $112 $-1 #
coedge $-1 $177 $430 $426 $433 forward $112 $-1 #
coedge $-1 $428 $434 $177 $285 forward $435 $-1 #
edge $-1 $436 -16.515974188689047 $437 -7.4675370740747162 $284 $438 forward 7 unknown #
loop $-1 $-1 $291 $178 #
plane-surface $-1 -55.431379131443194 23.983511262763749 7.1343514117281543 -0.85716730853699208 0 0.51503806187062418 0.51503806187062418 0 0.85716730853699208 forward_v I I I I #
loop $-1 $-1 $439 $114 #
coedge $-1 $289 $289 $290 $440 reversed $179 $-1 #
coedge $-1 $290 $290 $289 $440 forward $181 $-1 #
coedge $-1 $291 $291 $182 $292 forward $286 $-1 #
edge $-1 $441 0 $441 6.2831853071796004 $291 $442 forward 7 unknown #
loop $-1 $-1 $298 $183 #
plane-surface $-1 -55.431379131443194 23.983511262763749 7.1343514117281543 -0.85716730853699208 0 0.51503806187062418 0.51503806187062418 0 0.85716730853699208 forward_v I I I I #
loop $-1 $-1 $443 $117 #
coedge $-1 $296 $296 $297 $444 reversed $184 $-1 #
coedge $-1 $297 $297 $296 $444 forward $186 $-1 #
coedge $-1 $298 $298 $187 $299 forward $293 $-1 #
edge $-1 $445 0 $445 6.2831853071796004 $298 $446 forward 7 unknown #
face $-1 $447 $448 $45 $-1 $449 reversed single #
loop $-1 $-1 $450 $188 #
plane-surface $-1 -55.431379131443222 0 0 1 0 0 0 0 -1 forward_v I I I I #
coedge $-1 $451 $311 $452 $453 forward $189 $-1 #
coedge $-1 $454 $191 $451 $455 forward $121 $-1 #
coedge $-1 $191 $454 $456 $457 forward $121 $-1 #
coedge $-1 $314 $313 $191 $307 reversed $315 $-1 #
edge $-1 $458 -38.468027154132308 $459 38.468027154132308 $306 $460 forward 7 unknown #
coedge $-1 $193 $192 $461 $462 forward $76 $-1 #
coedge $-1 $463 $464 $192 $310 reversed $448 $-1 #
edge $-1 $317 -55.431379131443222 $465 55.431379131443222 $309 $466 forward 7 unknown #
coedge $-1 $303 $467 $193 $312 reversed $189 $-1 #
edge $-1 $468 -55.431379131443222 $316 55.431379131443222 $311 $469 forward 7 unknown #
coedge $-1 $306 $194 $467 $470 forward $315 $-1 #
coedge $-1 $194 $306 $463 $471 reversed $315 $-1 #
loop $-1 $-1 $313 $447 #
vertex $-1 $195 $472 #
vertex $-1 $195 $473 #
straight-curve $-1 55.431379131443222 0 14.051448622327634 0 1 0 I I #
face $-1 $474 $475 $46 $-1 $476 reversed single #
loop $-1 $-1 $330 $196 #
plane-surface $-1 -55.431379131443222 0 0 1 0 0 0 0 -1 forward_v I I I I #
coedge $-1 $202 $477 $324 $478 forward $197 $-1 #
coedge $-1 $328 $199 $479 $480 reversed $125 $-1 #
coedge $-1 $199 $328 $322 $478 reversed $125 $-1 #
coedge $-1 $481 $482 $199 $326 forward $483 $-1 #
edge $-1 $484 -14.051448622327634 $485 14.051448622327634 $325 $486 forward 7 unknown #
coedge $-1 $201 $200 $487 $488 reversed $79 $-1 #
coedge $-1 $324 $323 $200 $329 reversed $125 $-1 #
edge $-1 $333 -14.051448622327634 $489 14.051448622327634 $328 $490 forward 7 unknown #
coedge $-1 $491 $492 $201 $331 forward $320 $-1 #
edge $-1 $334 -14.051448622327634 $493 14.051448622327634 $330 $494 forward 7 unknown #
coedge $-1 $477 $202 $492 $495 forward $197 $-1 #
vertex $-1 $203 $496 #
vertex $-1 $495 $497 #
straight-curve $-1 -25.951893345253925 -28.507729820070914 14.051448622327634 -1 0 0 I I #
face $-1 $498 $499 $47 $-1 $500 forward single #
loop $-1 $-1 $210 $204 #
plane-surface $-1 -55.431379131443222 0 0 1 0 0 0 0 -1 forward_v I I I I #
coedge $-1 $344 $501 $340 $502 forward $205 $-1 #
coedge $-1 $503 $207 $339 $502 reversed $129 $-1 #
coedge $-1 $207 $503 $504 $505 reversed $129 $-1 #
coedge $-1 $209 $208 $207 $343 reversed $82 $-1 #
edge $-1 $506 -14.051448622327634 $507 14.051448622327634 $207 $508 forward 7 unknown #
coedge $-1 $509 $339 $208 $345 forward $205 $-1 #
edge $-1 $507 22.424300904318553 $350 29.479485786189297 $344 $510 forward 7 unknown #
coedge $-1 $504 $511 $209 $347 forward $499 $-1 #
edge $-1 $351 -29.479485786189297 $506 -22.424300904318553 $346 $512 forward 7 unknown #
coedge $-1 $513 $210 $511 $514 reversed $337 $-1 #
coedge $-1 $210 $513 $509 $515 reversed $337 $-1 #
vertex $-1 $515 $516 #
vertex $-1 $211 $517 #
straight-curve $-1 -55.431379131443222 28.507729820070921 0 0 0 1 I I #
face $-1 $-1 $518 $48 $-1 $519 forward single #
loop $-1 $-1 $520 $212 #
plane-surface $-1 -55.431379131443222 0 0 1 0 0 0 0 -1 forward_v I I I I #
coedge $-1 $357 $215 $217 $363 reversed $133 $-1 #
coedge $-1 $215 $356 $521 $522 reversed $133 $-1 #
coedge $-1 $523 $218 $215 $359 forward $213 $-1 #
edge $-1 $366 -23.954487661491726 $524 -19.798276492871153 $358 $525 forward 7 unknown #
coedge $-1 $217 $216 $520 $526 reversed $85 $-1 #
coedge $-1 $527 $528 $216 $362 forward $518 $-1 #
edge $-1 $529 2.1492442119496031 $365 10.218960755859317 $361 $530 forward 7 unknown #
edge $-1 $531 -5.4988089932380084e-014 $366 8.0697165439096619 $356 $532 forward 7 unknown #
coedge $-1 $218 $523 $527 $533 forward $213 $-1 #
vertex $-1 $219 $534 #
vertex $-1 $219 $535 #
straight-curve $-1 -51.275167962822643 -11.991755631381878 14.051448622327634 0 1 0 I I #
coedge $-1 $368 $368 $-1 $536 reversed $222 $-1 #
edge $-1 $537 0 $537 6.2831853071796004 $223 $538 forward 7 unknown #
vertex $-1 $226 $539 #
ellipse-curve $-1 -53.353273547132929 -25.922462073038254 10.592900017027882 -0.85716730853699208 0 0.51503806187062418 0.51503806187062418 0 0.85716730853699208 1 I I #
coedge $-1 $372 $372 $-1 $540 reversed $229 $-1 #
edge $-1 $541 0 $541 6.2831853071796004 $230 $542 forward 7 unknown #
vertex $-1 $233 $543 #
ellipse-curve $-1 -53.353273547132929 -22.044560452489257 10.592900017027882 -0.85716730853699208 0 0.51503806187062418 0.51503806187062418 0 0.85716730853699208 1 I I #
face $-1 $-1 $544 $51 $-1 $545 reversed single #
loop $-1 $-1 $240 $234 #
plane-surface $-1 0 0 14.051448622327634 0 0 1 1 0 0 forward_v I I I I #
coedge $-1 $546 $547 $548 $549 reversed $235 $-1 #
coedge $-1 $550 $237 $239 $386 forward $147 $-1 #
coedge $-1 $237 $550 $546 $551 forward $147 $-1 #
coedge $-1 $548 $240 $237 $383 forward $377 $-1 #
edge $-1 $389 -8.5214704344344518 $552 0.52696668017986426 $382 $553 forward 7 unknown #
coedge $-1 $554 $555 $238 $385 forward $544 $-1 #
edge $-1 $556 -24.982094368810248 $388 -18.064997158210723 $384 $557 forward 7 unknown #
edge $-1 $389 -8.0697165439096619 $556 5.4988089932380084e-014 $239 $558 forward 7 unknown #
coedge $-1 $240 $548 $554 $559 forward $377 $-1 #
vertex $-1 $241 $560 #
vertex $-1 $241 $561 #
straight-curve $-1 -75.229655624314375 -12.518722311561746 14.051448622327634 1 0 0 I I #
coedge $-1 $391 $391 $-1 $562 reversed $244 $-1 #
edge $-1 $563 0 $563 6.2831853071796004 $245 $564 forward 7 unknown #
vertex $-1 $248 $565 #
ellipse-curve $-1 -53.353273547132929 -9.9334545645290824 10.592900017027882 -0.85716730853699208 0 0.51503806187062418 0.51503806187062418 0 0.85716730853699208 1 I I #
coedge $-1 $395 $395 $-1 $566 reversed $251 $-1 #
edge $-1 $567 0 $567 6.2831853071796004 $252 $568 forward 7 unknown #
vertex $-1 $255 $569 #
ellipse-curve $-1 -53.353273547132929 -6.0555529439800893 10.592900017027882 -0.85716730853699208 0 0.51503806187062418 0.51503806187062418 0 0.85716730853699208 1 I I #
face $-1 $-1 $570 $54 $-1 $571 reversed single #
loop $-1 $-1 $262 $256 #
plane-surface $-1 0 0 14.051448622327634 0 0 1 1 0 0 forward_v I I I I #
coedge $-1 $572 $573 $574 $575 reversed $257 $-1 #
coedge $-1 $576 $259 $261 $409 forward $161 $-1 #
coedge $-1 $259 $576 $572 $577 forward $161 $-1 #
coedge $-1 $574 $262 $259 $406 forward $400 $-1 #
edge $-1 $412 -0.52696668017986781 $578 8.5214704344344483 $405 $579 forward 7 unknown #
coedge $-1 $580 $581 $260 $408 forward $570 $-1 #
edge $-1 $582 -24.982094368810248 $411 -18.064997158210723 $407 $583 forward 7 unknown #
edge $-1 $412 -8.0697165439096619 $582 5.4988089932380084e-014 $261 $584 forward 7 unknown #
coedge $-1 $262 $574 $580 $585 forward $400 $-1 #
vertex $-1 $263 $586 #
vertex $-1 $263 $587 #
straight-curve $-1 -75.229655624314375 3.4702851969474224 14.051448622327634 1 0 0 I I #
coedge $-1 $414 $414 $-1 $588 reversed $266 $-1 #
edge $-1 $589 0 $589 6.2831853071796004 $267 $590 forward 7 unknown #
vertex $-1 $270 $591 #
ellipse-curve $-1 -53.353273547132929 6.0555529439800893 10.592900017027882 -0.85716730853699208 0 0.51503806187062418 0.51503806187062418 0 0.85716730853699208 1 I I #
coedge $-1 $418 $418 $-1 $592 reversed $273 $-1 #
edge $-1 $593 0 $593 6.2831853071796004 $274 $594 forward 7 unknown #
vertex $-1 $277 $595 #
ellipse-curve $-1 -53.353273547132929 9.9334545645290788 10.592900017027882 -0.85716730853699208 0 0.51503806187062418 0.51503806187062418 0 0.85716730853699208 1 I I #
face $-1 $-1 $435 $57 $-1 $596 reversed single #
loop $-1 $-1 $431 $278 #
plane-surface $-1 -51.90378669050785 28.507729820070921 0 0 1 0 0 0 1 forward_v I I I I #
coedge $-1 $597 $598 $427 $599 forward $279 $-1 #
coedge $-1 $427 $281 $283 $433 reversed $175 $-1 #
coedge $-1 $281 $426 $425 $599 reversed $175 $-1 #
coedge $-1 $600 $284 $281 $429 forward $435 $-1 #
edge $-1 $437 -24.982094368810248 $601 -18.064997158210723 $428 $602 forward 7 unknown #
coedge $-1 $283 $282 $597 $603 reversed $112 $-1 #
coedge $-1 $604 $605 $282 $432 forward $423 $-1 #
edge $-1 $606 -10.218960755859317 $436 -2.1492442119496031 $431 $607 forward 7 unknown #
edge $-1 $608 -8.0697165439096619 $437 5.4988089932380084e-014 $426 $609 forward 7 unknown #
coedge $-1 $284 $600 $604 $610 forward $435 $-1 #
loop $-1 $-1 $428 $422 #
vertex $-1 $432 $611 #
vertex $-1 $285 $612 #
straight-curve $-1 -55.431379131443222 11.991755631381874 7.1343514117281064 0 -1 0 I I #
coedge $-1 $439 $439 $-1 $613 reversed $288 $-1 #
edge $-1 $614 0 $614 6.2831853071796004 $289 $615 forward 7 unknown #
vertex $-1 $292 $616 #
ellipse-curve $-1 -53.353273547132929 22.044560452489257 10.592900017027882 -0.85716730853699208 0 0.51503806187062418 0.51503806187062418 0 0.85716730853699208 1 I I #
coedge $-1 $443 $443 $-1 $617 reversed $295 $-1 #
edge $-1 $618 0 $618 6.2831853071796004 $296 $619 forward 7 unknown #
vertex $-1 $299 $620 #
ellipse-curve $-1 -53.353273547132929 25.922462073038254 10.592900017027882 -0.85716730853699208 0 0.51503806187062418 0.51503806187062418 0 0.85716730853699208 1 I I #
face $-1 $-1 $315 $45 $-1 $621 reversed single #
loop $-1 $-1 $463 $300 #
plane-surface $-1 0 38.468027154132308 0 0 -1 0 0 0 -1 forward_v I I I I #
coedge $-1 $622 $461 $464 $623 forward $301 $-1 #
coedge $-1 $467 $303 $304 $455 reversed $189 $-1 #
coedge $-1 $461 $622 $303 $453 reversed $301 $-1 #
edge $-1 $468 -14.051448622327634 $624 14.051448622327634 $452 $625 forward 7 unknown #
coedge $-1 $305 $304 $622 $626 forward $121 $-1 #
edge $-1 $459 -55.431379131443222 $624 55.431379131443222 $451 $627 forward 7 unknown #
coedge $-1 $464 $463 $305 $457 reversed $448 $-1 #
edge $-1 $628 -55.431379131443222 $458 55.431379131443222 $456 $629 forward 7 unknown #
vertex $-1 $307 $630 #
vertex $-1 $470 $631 #
straight-curve $-1 55.431379131443222 0 -14.051448622327634 0 -1 0 I I #
coedge $-1 $450 $452 $308 $462 reversed $301 $-1 #
edge $-1 $465 -38.468027154132308 $468 38.468027154132308 $461 $632 forward 7 unknown #
coedge $-1 $456 $309 $314 $471 forward $448 $-1 #
coedge $-1 $309 $456 $450 $623 reversed $448 $-1 #
vertex $-1 $310 $633 #
straight-curve $-1 0 38.468027154132308 14.051448622327634 -1 0 0 I I #
coedge $-1 $311 $451 $313 $470 reversed $189 $-1 #
vertex $-1 $462 $634 #
straight-curve $-1 0 -38.468027154132308 14.051448622327634 1 0 0 I I #
edge $-1 $316 -14.051448622327634 $459 14.051448622327634 $313 $635 forward 7 unknown #
edge $-1 $317 -14.051448622327634 $458 14.051448622327634 $314 $636 forward 7 unknown #
point $-1 55.431379131443222 -38.468027154132308 14.051448622327634 #
point $-1 55.431379131443222 38.468027154132308 14.051448622327634 #
face $-1 $-1 $483 $46 $-1 $637 reversed single #
loop $-1 $-1 $479 $319 #
plane-surface $-1 0 0 -14.051448622327634 0 0 1 1 0 0 forward_v I I I I #
coedge $-1 $322 $332 $481 $638 forward $197 $-1 #
edge $-1 $485 -21.724087910581503 $333 -11.763790576520108 $322 $639 forward 7 unknown #
coedge $-1 $640 $487 $323 $480 forward $475 $-1 #
edge $-1 $489 11.763790576520108 $484 21.724087910581503 $479 $641 forward 7 unknown #
coedge $-1 $642 $325 $477 $638 reversed $483 $-1 #
coedge $-1 $325 $642 $640 $643 reversed $483 $-1 #
loop $-1 $-1 $325 $474 #
vertex $-1 $643 $644 #
vertex $-1 $326 $645 #
straight-curve $-1 -48.376194249572478 -38.468027154132308 0 0 0 1 I I #
coedge $-1 $479 $646 $327 $488 forward $475 $-1 #
edge $-1 $493 -29.479485786189297 $489 -22.424300904318553 $487 $647 forward 7 unknown #
vertex $-1 $488 $648 #
straight-curve $-1 -48.376194249572478 -28.507729820070914 0 0 0 -1 I I #
coedge $-1 $649 $330 $646 $650 reversed $320 $-1 #
coedge $-1 $330 $649 $332 $495 reversed $320 $-1 #
vertex $-1 $488 $651 #
straight-curve $-1 -55.431379131443222 -28.507729820070914 0 0 0 -1 I I #
edge $-1 $334 28.507729820070914 $652 38.468027154132308 $492 $653 forward 7 unknown #
point $-1 -48.376194249572478 -28.507729820070914 14.051448622327634 #
point $-1 -55.431379131443222 -28.507729820070914 14.051448622327634 #
face $-1 $-1 $654 $47 $-1 $655 reversed single #
loop $-1 $-1 $504 $336 #
plane-surface $-1 0 0 14.051448622327634 0 0 1 1 0 0 forward_v I I I I #
coedge $-1 $339 $509 $656 $657 forward $205 $-1 #
edge $-1 $658 -21.724087910581506 $507 -11.763790576520112 $339 $659 forward 7 unknown #
coedge $-1 $341 $340 $660 $661 reversed $129 $-1 #
coedge $-1 $662 $346 $341 $505 forward $499 $-1 #
edge $-1 $506 11.763790576520112 $663 21.724087910581506 $504 $664 forward 7 unknown #
vertex $-1 $347 $665 #
vertex $-1 $345 $666 #
straight-curve $-1 -48.376194249572478 28.507729820070921 0 0 0 -1 I I #
coedge $-1 $501 $344 $349 $515 forward $205 $-1 #
straight-curve $-1 -25.951893345253925 28.507729820070921 -14.051448622327634 -1 0 0 I I #
coedge $-1 $346 $662 $348 $514 forward $499 $-1 #
straight-curve $-1 -25.951893345253925 28.507729820070921 14.051448622327634 1 0 0 I I #
coedge $-1 $349 $348 $667 $668 forward $337 $-1 #
edge $-1 $669 -38.468027154132308 $351 -28.507729820070921 $348 $670 forward 7 unknown #
edge $-1 $350 28.507729820070921 $671 38.468027154132308 $349 $672 forward 7 unknown #
point $-1 -55.431379131443222 28.507729820070921 -14.051448622327634 #
point $-1 -55.431379131443222 28.507729820070921 14.051448622327634 #
loop $-1 $-1 $361 $353 #
plane-surface $-1 -51.90378669050785 -28.507729820070914 0 0 -1 0 0 0 -1 forward_v I I I I #
coedge $-1 $673 $521 $360 $526 forward $354 $-1 #
coedge $-1 $520 $674 $357 $522 forward $354 $-1 #
edge $-1 $524 18.064997158210723 $531 24.982094368810248 $521 $675 forward 7 unknown #
coedge $-1 $364 $358 $674 $676 forward $213 $-1 #
vertex $-1 $676 $677 #
straight-curve $-1 -75.229655624314375 -19.459292705456598 14.051448622327634 -1 0 0 I I #
edge $-1 $531 7.4675370740747198 $529 16.515974188689036 $520 $678 forward 7 unknown #
coedge $-1 $528 $361 $364 $533 reversed $518 $-1 #
coedge $-1 $361 $527 $673 $679 reversed $518 $-1 #
vertex $-1 $679 $680 #
straight-curve $-1 -56.538321704852407 -28.507729820070914 5.2920895351825603 0.51503806187062429 0 0.85716730853699219 I I #
vertex $-1 $526 $681 #
straight-curve $-1 -55.431379131443194 -19.459292705456598 7.1343514117281543 0.51503806187062418 0 0.85716730853699208 I I #
edge $-1 $682 -29.479485786189297 $365 -25.323274617568725 $364 $683 forward 7 unknown #
point $-1 -51.27516796282265 -28.507729820070914 14.051448622327634 #
point $-1 -51.27516796282265 -19.459292705456598 14.051448622327634 #
edge $-1 $684 1 $684 0 $368 $-1 forward 7 unknown #
vertex $-1 $369 $685 #
ellipse-curve $-1 -51.96724026134163 -25.922462073038254 9.7600872276314536 -0.85716730853699208 0 0.51503806187062418 0.51503806187062418 0 0.85716730853699208 1 I I #
point $-1 -52.838235485262324 -25.922462073038254 11.450067325564888 #
edge $-1 $686 1 $686 0 $372 $-1 forward 7 unknown #
vertex $-1 $373 $687 #
ellipse-curve $-1 -51.96724026134163 -22.044560452489257 9.7600872276314536 -0.85716730853699208 0 0.51503806187062418 0.51503806187062418 0 0.85716730853699208 1 I I #
point $-1 -52.838235485262324 -22.044560452489257 11.450067325564888 #
loop $-1 $-1 $384 $376 #
plane-surface $-1 -55.431379131443222 0 0 1 0 0 0 0 -1 forward_v I I I I #
coedge $-1 $547 $379 $381 $551 reversed $235 $-1 #
coedge $-1 $379 $546 $688 $689 reversed $235 $-1 #
coedge $-1 $387 $382 $379 $549 forward $377 $-1 #
edge $-1 $552 -23.954487661491726 $690 -19.798276492871153 $548 $691 forward 7 unknown #
coedge $-1 $381 $380 $555 $692 reversed $147 $-1 #
edge $-1 $693 -5.4988089932380084e-014 $552 8.0697165439096619 $546 $694 forward 7 unknown #
vertex $-1 $383 $695 #
straight-curve $-1 -51.275167962822643 -3.9972518771272938 14.051448622327634 0 1 0 I I #
coedge $-1 $688 $384 $387 $559 reversed $544 $-1 #
coedge $-1 $384 $688 $550 $692 forward $544 $-1 #
vertex $-1 $385 $696 #
straight-curve $-1 -55.431379131443222 -12.518722311561746 32.116445780538356 0 0 1 I I #
straight-curve $-1 -55.431379131443194 -12.518722311561746 7.1343514117281543 -0.51503806187062418 0 -0.85716730853699208 I I #
edge $-1 $690 3.4702851969474295 $388 12.518722311561746 $554 $697 forward 7 unknown #
point $-1 -55.431379131443222 -12.518722311561746 14.051448622327634 #
point $-1 -51.27516796282265 -12.518722311561746 14.051448622327634 #
edge $-1 $698 1 $698 0 $391 $-1 forward 7 unknown #
vertex $-1 $392 $699 #
ellipse-curve $-1 -51.96724026134163 -9.9334545645290824 9.7600872276314536 -0.85716730853699208 0 0.51503806187062418 0.51503806187062418 0 0.85716730853699208 1 I I #
point $-1 -52.838235485262324 -9.9334545645290824 11.450067325564888 #
edge $-1 $700 1 $700 0 $395 $-1 forward 7 unknown #
vertex $-1 $396 $701 #
ellipse-curve $-1 -51.96724026134163 -6.0555529439800893 9.7600872276314536 -0.85716730853699208 0 0.51503806187062418 0.51503806187062418 0 0.85716730853699208 1 I I #
point $-1 -52.838235485262324 -6.0555529439800893 11.450067325564888 #
loop $-1 $-1 $407 $399 #
plane-surface $-1 -55.431379131443222 0 0 1 0 0 0 0 -1 forward_v I I I I #
coedge $-1 $573 $402 $404 $577 reversed $257 $-1 #
coedge $-1 $402 $572 $702 $703 reversed $257 $-1 #
coedge $-1 $410 $405 $402 $575 forward $400 $-1 #
edge $-1 $578 -23.954487661491726 $704 -19.798276492871153 $574 $705 forward 7 unknown #
coedge $-1 $404 $403 $581 $706 reversed $161 $-1 #
edge $-1 $707 -5.4988089932380084e-014 $578 8.0697165439096619 $572 $708 forward 7 unknown #
vertex $-1 $406 $709 #
straight-curve $-1 -51.275167962822643 3.9972518771272902 14.051448622327634 0 1 0 I I #
coedge $-1 $702 $407 $410 $585 reversed $570 $-1 #
coedge $-1 $407 $702 $576 $706 forward $570 $-1 #
vertex $-1 $408 $710 #
straight-curve $-1 -55.431379131443222 3.4702851969474224 32.116445780538356 0 0 1 I I #
straight-curve $-1 -55.431379131443194 3.4702851969474224 7.1343514117281543 -0.51503806187062418 0 -0.85716730853699208 I I #
edge $-1 $704 -12.518722311561739 $411 -3.4702851969474224 $580 $711 forward 7 unknown #
point $-1 -55.431379131443222 3.4702851969474224 14.051448622327634 #
point $-1 -51.27516796282265 3.4702851969474224 14.051448622327634 #
edge $-1 $712 1 $712 0 $414 $-1 forward 7 unknown #
vertex $-1 $415 $713 #
ellipse-curve $-1 -51.96724026134163 6.0555529439800893 9.7600872276314536 -0.85716730853699208 0 0.51503806187062418 0.51503806187062418 0 0.85716730853699208 1 I I #
point $-1 -52.838235485262324 6.0555529439800893 11.450067325564888 #
edge $-1 $714 1 $714 0 $418 $-1 forward 7 unknown #
vertex $-1 $419 $715 #
ellipse-curve $-1 -51.96724026134163 9.9334545645290788 9.7600872276314536 -0.85716730853699208 0 0.51503806187062418 0.51503806187062418 0 0.85716730853699208 1 I I #
point $-1 -52.838235485262324 9.9334545645290788 11.450067325564888 #
plane-surface $-1 -55.431379131443222 0 0 1 0 0 0 0 -1 forward_v I I I I #
coedge $-1 $716 $425 $430 $603 forward $279 $-1 #
coedge $-1 $425 $716 $600 $717 forward $279 $-1 #
edge $-1 $601 19.798276492871153 $608 23.954487661491726 $425 $718 forward 7 unknown #
coedge $-1 $434 $428 $598 $717 reversed $435 $-1 #
vertex $-1 $429 $719 #
straight-curve $-1 -55.431379131443222 19.459292705456591 32.116445780538356 0 0 1 I I #
edge $-1 $608 7.4675370740747162 $606 16.515974188689032 $597 $720 forward 7 unknown #
coedge $-1 $605 $431 $434 $610 reversed $423 $-1 #
coedge $-1 $431 $604 $716 $721 reversed $423 $-1 #
vertex $-1 $721 $722 #
straight-curve $-1 -56.538321704852407 28.507729820070921 5.2920895351825603 -0.51503806187062429 0 -0.85716730853699219 I I #
vertex $-1 $603 $723 #
straight-curve $-1 -55.431379131443194 19.459292705456591 7.1343514117281543 -0.51503806187062418 0 -0.85716730853699208 I I #
edge $-1 $724 -14.051448622327634 $436 -7.1343514117281073 $434 $725 forward 7 unknown #
point $-1 -55.431379131443222 28.507729820070921 7.1343514117281073 #
point $-1 -55.431379131443222 19.459292705456591 7.1343514117281073 #
edge $-1 $726 1 $726 0 $439 $-1 forward 7 unknown #
vertex $-1 $440 $727 #
ellipse-curve $-1 -51.96724026134163 22.044560452489257 9.7600872276314536 -0.85716730853699208 0 0.51503806187062418 0.51503806187062418 0 0.85716730853699208 1 I I #
point $-1 -52.838235485262324 22.044560452489257 11.450067325564888 #
edge $-1 $728 1 $728 0 $443 $-1 forward 7 unknown #
vertex $-1 $444 $729 #
ellipse-curve $-1 -51.96724026134163 25.922462073038254 9.7600872276314536 -0.85716730853699208 0 0.51503806187062418 0.51503806187062418 0 0.85716730853699208 1 I I #
point $-1 -52.838235485262324 25.922462073038254 11.450067325564888 #
plane-surface $-1 55.431379131443222 0 0 -1 0 0 0 0 1 forward_v I I I I #
coedge $-1 $452 $450 $454 $626 reversed $301 $-1 #
edge $-1 $465 -14.051448622327634 $628 14.051448622327634 $464 $730 forward 7 unknown #
vertex $-1 $626 $731 #
straight-curve $-1 -55.431379131443222 -38.468027154132308 0 0 0 -1 I I #
edge $-1 $624 -38.468027154132308 $628 38.468027154132308 $622 $732 forward 7 unknown #
straight-curve $-1 0 -38.468027154132308 -14.051448622327634 -1 0 0 I I #
vertex $-1 $457 $733 #
straight-curve $-1 0 38.468027154132308 -14.051448622327634 1 0 0 I I #
point $-1 55.431379131443222 38.468027154132308 -14.051448622327634 #
point $-1 55.431379131443222 -38.468027154132308 -14.051448622327634 #
straight-curve $-1 -55.431379131443222 0 14.051448622327634 0 -1 0 I I #
point $-1 -55.431379131443222 38.468027154132308 14.051448622327634 #
point $-1 -55.431379131443222 -38.468027154132308 14.051448622327634 #
straight-curve $-1 55.431379131443222 -38.468027154132308 0 0 0 -1 I I #
straight-curve $-1 55.431379131443222 38.468027154132308 0 0 0 -1 I I #
plane-surface $-1 0 -38.468027154132308 0 0 1 0 0 0 1 forward_v I I I I #
edge $-1 $652 -55.431379131443222 $485 -48.376194249572478 $481 $734 forward 7 unknown #
straight-curve $-1 -48.376194249572478 -16.743939243550805 14.051448622327634 0 1 0 I I #
coedge $-1 $646 $479 $482 $643 forward $475 $-1 #
straight-curve $-1 -48.376194249572478 -16.743939243550805 -14.051448622327634 0 -1 0 I I #
coedge $-1 $482 $481 $649 $735 forward $483 $-1 #
edge $-1 $484 48.376194249572478 $736 55.431379131443222 $482 $737 forward 7 unknown #
point $-1 -48.376194249572478 -38.468027154132308 -14.051448622327634 #
point $-1 -48.376194249572478 -38.468027154132308 14.051448622327634 #
coedge $-1 $487 $640 $491 $650 forward $475 $-1 #
straight-curve $-1 -25.951893345253925 -28.507729820070914 -14.051448622327634 1 0 0 I I #
point $-1 -48.376194249572478 -28.507729820070914 -14.051448622327634 #
coedge $-1 $492 $491 $642 $735 reversed $320 $-1 #
edge $-1 $736 -38.468027154132308 $493 -28.507729820070914 $491 $738 forward 7 unknown #
point $-1 -55.431379131443222 -28.507729820070914 -14.051448622327634 #
vertex $-1 $495 $739 #
straight-curve $-1 -55.431379131443222 0 14.051448622327634 0 -1 0 I I #
loop $-1 $-1 $660 $498 #
plane-surface $-1 0 38.468027154132308 0 0 -1 0 0 0 -1 forward_v I I I I #
coedge $-1 $667 $660 $501 $657 reversed $654 $-1 #
edge $-1 $671 -55.431379131443222 $658 -48.376194249572478 $656 $740 forward 7 unknown #
vertex $-1 $502 $741 #
straight-curve $-1 -48.376194249572478 16.743939243550809 -14.051448622327634 0 -1 0 I I #
coedge $-1 $656 $742 $503 $661 forward $654 $-1 #
edge $-1 $663 -14.051448622327634 $658 14.051448622327634 $660 $743 forward 7 unknown #
coedge $-1 $511 $504 $742 $744 forward $499 $-1 #
vertex $-1 $744 $745 #
straight-curve $-1 -48.376194249572478 16.743939243550809 14.051448622327634 0 1 0 I I #
point $-1 -48.376194249572478 28.507729820070921 14.051448622327634 #
point $-1 -48.376194249572478 28.507729820070921 -14.051448622327634 #
coedge $-1 $742 $656 $513 $668 reversed $654 $-1 #
edge $-1 $669 -14.051448622327634 $671 14.051448622327634 $667 $746 forward 7 unknown #
vertex $-1 $744 $747 #
straight-curve $-1 -55.431379131443222 0 14.051448622327634 0 -1 0 I I #
vertex $-1 $657 $748 #
straight-curve $-1 -55.431379131443222 0 -14.051448622327634 0 1 0 I I #
coedge $-1 $674 $520 $528 $679 forward $354 $-1 #
coedge $-1 $521 $673 $523 $676 reversed $354 $-1 #
straight-curve $-1 -55.431379131443222 -19.459292705456598 32.116445780538356 0 0 -1 I I #
edge $-1 $524 19.459292705456598 $682 28.507729820070914 $674 $749 forward 7 unknown #
point $-1 -55.431379131443222 -19.459292705456598 14.051448622327634 #
straight-curve $-1 -55.431379131443222 -11.991755631381878 7.1343514117281064 0 -1 0 I I #
edge $-1 $529 7.1343514117281073 $682 14.051448622327634 $673 $750 forward 7 unknown #
point $-1 -55.431379131443222 -28.507729820070914 7.1343514117281073 #
point $-1 -55.431379131443222 -19.459292705456598 7.1343514117281073 #
vertex $-1 $679 $751 #
straight-curve $-1 -25.951893345253925 -28.507729820070914 14.051448622327634 1 0 0 I I #
vertex $-1 $536 $752 #
point $-1 -51.45220219947101 -25.922462073038254 10.617254536168446 #
vertex $-1 $540 $753 #
point $-1 -51.45220219947101 -22.044560452489257 10.617254536168446 #
coedge $-1 $555 $554 $547 $689 forward $544 $-1 #
edge $-1 $690 18.064997158210723 $693 24.982094368810248 $688 $754 forward 7 unknown #
vertex $-1 $559 $755 #
straight-curve $-1 -75.229655624314375 -3.4702851969474295 14.051448622327634 -1 0 0 I I #
edge $-1 $693 -0.52696668017986426 $556 8.5214704344344518 $555 $756 forward 7 unknown #
vertex $-1 $692 $757 #
straight-curve $-1 -55.431379131443194 -3.4702851969474295 7.1343514117281543 0.51503806187062418 0 0.85716730853699208 I I #
point $-1 -51.27516796282265 -3.4702851969474295 14.051448622327634 #
point $-1 -55.431379131443222 -12.518722311561746 7.1343514117281073 #
straight-curve $-1 -55.431379131443222 0 14.051448622327634 0 -1 0 I I #
vertex $-1 $562 $758 #
point $-1 -51.45220219947101 -9.9334545645290824 10.617254536168446 #
vertex $-1 $566 $759 #
point $-1 -51.45220219947101 -6.0555529439800893 10.617254536168446 #
coedge $-1 $581 $580 $573 $703 forward $570 $-1 #
edge $-1 $704 18.064997158210723 $707 24.982094368810248 $702 $760 forward 7 unknown #
vertex $-1 $585 $761 #
straight-curve $-1 -75.229655624314375 12.518722311561739 14.051448622327634 -1 0 0 I I #
edge $-1 $707 -8.5214704344344483 $582 0.52696668017986781 $581 $762 forward 7 unknown #
vertex $-1 $706 $763 #
straight-curve $-1 -55.431379131443194 12.518722311561739 7.1343514117281543 0.51503806187062418 0 0.85716730853699208 I I #
point $-1 -51.27516796282265 12.518722311561739 14.051448622327634 #
point $-1 -55.431379131443222 3.4702851969474224 7.1343514117281073 #
straight-curve $-1 -55.431379131443222 0 14.051448622327634 0 -1 0 I I #
vertex $-1 $588 $764 #
point $-1 -51.45220219947101 6.0555529439800893 10.617254536168446 #
vertex $-1 $592 $765 #
point $-1 -51.45220219947101 9.9334545645290788 10.617254536168446 #
coedge $-1 $598 $597 $605 $721 forward $279 $-1 #
edge $-1 $724 -28.507729820070921 $601 -19.459292705456591 $600 $766 forward 7 unknown #
straight-curve $-1 -75.229655624314375 19.459292705456591 14.051448622327634 1 0 0 I I #
point $-1 -55.431379131443222 19.459292705456591 14.051448622327634 #
straight-curve $-1 -51.275167962822643 11.991755631381874 14.051448622327634 0 1 0 I I #
edge $-1 $606 25.323274617568725 $724 29.479485786189297 $716 $767 forward 7 unknown #
point $-1 -51.27516796282265 28.507729820070907 14.051448622327634 #
point $-1 -51.27516796282265 19.459292705456591 14.051448622327634 #
vertex $-1 $717 $768 #
straight-curve $-1 -55.431379131443222 28.507729820070921 0 0 0 -1 I I #
vertex $-1 $613 $769 #
point $-1 -51.45220219947101 22.044560452489257 10.617254536168446 #
vertex $-1 $617 $770 #
point $-1 -51.45220219947101 25.922462073038254 10.617254536168446 #
straight-curve $-1 -55.431379131443222 38.468027154132308 0 0 0 -1 I I #
point $-1 -55.431379131443222 -38.468027154132308 -14.051448622327634 #
straight-curve $-1 -55.431379131443222 0 -14.051448622327634 0 1 0 I I #
point $-1 -55.431379131443222 38.468027154132308 -14.051448622327634 #
straight-curve $-1 0 -38.468027154132308 14.051448622327634 1 0 0 I I #
edge $-1 $652 -14.051448622327634 $736 14.051448622327634 $649 $771 forward 7 unknown #
vertex $-1 $650 $772 #
straight-curve $-1 0 -38.468027154132308 -14.051448622327634 -1 0 0 I I #
straight-curve $-1 -55.431379131443222 0 -14.051448622327634 0 1 0 I I #
point $-1 -55.431379131443222 -38.468027154132308 14.051448622327634 #
straight-curve $-1 0 38.468027154132308 -14.051448622327634 1 0 0 I I #
point $-1 -48.376194249572478 38.468027154132315 -14.051448622327634 #
coedge $-1 $660 $667 $662 $744 reversed $654 $-1 #
straight-curve $-1 -48.376194249572478 38.468027154132308 0 0 0 -1 I I #
edge $-1 $663 48.376194249572478 $669 55.431379131443222 $742 $773 forward 7 unknown #
point $-1 -48.376194249572478 38.468027154132315 14.051448622327634 #
straight-curve $-1 -55.431379131443222 38.468027154132308 0 0 0 -1 I I #
point $-1 -55.431379131443222 38.468027154132308 14.051448622327634 #
point $-1 -55.431379131443222 38.468027154132308 -14.051448622327634 #
straight-curve $-1 -55.431379131443222 0 14.051448622327634 0 -1 0 I I #
straight-curve $-1 -55.431379131443222 -28.507729820070914 0 0 0 1 I I #
point $-1 -55.431379131443222 -28.507729820070914 14.051448622327634 #
point $-1 -51.110072952804643 -25.922462073038254 9.2450491657608307 #
point $-1 -51.110072952804643 -22.044560452489257 9.2450491657608307 #
straight-curve $-1 -55.431379131443222 -3.4702851969474295 32.116445780538356 0 0 -1 I I #
point $-1 -55.431379131443222 -3.4702851969474295 14.051448622327634 #
straight-curve $-1 -55.431379131443222 -3.9972518771272938 7.1343514117281064 0 -1 0 I I #
point $-1 -55.431379131443222 -3.4702851969474295 7.1343514117281073 #
point $-1 -51.110072952804643 -9.9334545645290824 9.2450491657608307 #
point $-1 -51.110072952804643 -6.0555529439800893 9.2450491657608307 #
straight-curve $-1 -55.431379131443222 12.518722311561739 32.116445780538356 0 0 -1 I I #
point $-1 -55.431379131443222 12.518722311561739 14.051448622327634 #
straight-curve $-1 -55.431379131443222 3.9972518771272902 7.1343514117281064 0 -1 0 I I #
point $-1 -55.431379131443222 12.518722311561739 7.1343514117281073 #
point $-1 -51.110072952804643 6.0555529439800893 9.2450491657608307 #
point $-1 -51.110072952804643 9.9334545645290788 9.2450491657608307 #
straight-curve $-1 -55.431379131443222 0 14.051448622327634 0 -1 0 I I #
straight-curve $-1 -25.951893345253925 28.507729820070921 14.051448622327634 -1 0 0 I I #
point $-1 -55.431379131443222 28.507729820070921 14.051448622327634 #
point $-1 -51.110072952804643 22.044560452489257 9.2450491657608307 #
point $-1 -51.110072952804643 25.922462073038254 9.2450491657608307 #
straight-curve $-1 -55.431379131443222 -38.468027154132308 0 0 0 -1 I I #
point $-1 -55.431379131443222 -38.468027154132308 -14.051448622327634 #
straight-curve $-1 0 38.468027154132308 14.051448622327634 -1 0 0 I I #
End-of-ACIS-data 