500 0 8 0           
7 Unknown 11 ACIS 5.0 NT 24 Thu Mar 25 17:04:31 1999 
-1 9.9999999999999995e-007 1e-010 
body $-1 $8 $-1 $9 #
body $-1 $10 $-1 $11 #
body $-1 $12 $-1 $13 #
body $-1 $14 $-1 $15 #
body $-1 $16 $-1 $17 #
body $-1 $18 $-1 $19 #
body $-1 $20 $-1 $21 #
body $-1 $22 $-1 $23 #
lump $-1 $-1 $24 $0 #
transform $-1 1 0 0 0 1 0 0 0 1 64.976348155156103 29.496846791221262 10.193052336243094 1 rotate no_reflect no_shear #
lump $-1 $-1 $25 $1 #
transform $-1 1 0 0 0 1 0 0 0 1 64.976348155156103 29.496846791221262 10.193052336243094 1 rotate no_reflect no_shear #
lump $-1 $-1 $26 $2 #
transform $-1 1 0 0 0 1 0 0 0 1 64.976348155156103 29.496846791221262 10.193052336243094 1 rotate no_reflect no_shear #
lump $-1 $-1 $27 $3 #
transform $-1 1 0 0 0 1 0 0 0 1 64.976348155156103 29.496846791221262 10.193052336243094 1 rotate no_reflect no_shear #
lump $-1 $-1 $28 $4 #
transform $-1 1 0 0 0 1 0 0 0 1 64.976348155156103 29.496846791221262 10.193052336243094 1 rotate no_reflect no_shear #
lump $-1 $-1 $29 $5 #
transform $-1 1 0 0 0 1 0 0 0 1 64.976348155156103 29.496846791221262 10.193052336243094 1 rotate no_reflect no_shear #
lump $-1 $-1 $30 $6 #
transform $-1 1 0 0 0 1 0 0 0 1 64.976348155156103 29.496846791221262 10.193052336243094 1 rotate no_reflect no_shear #
lump $-1 $-1 $31 $7 #
transform $-1 1 0 0 0 1 0 0 0 1 64.976348155156103 29.496846791221262 10.193052336243094 1 rotate no_reflect no_shear #
shell $-1 $-1 $-1 $32 $-1 $8 #
shell $-1 $-1 $-1 $33 $-1 $10 #
shell $-1 $-1 $-1 $34 $-1 $12 #
shell $-1 $-1 $-1 $35 $-1 $14 #
shell $-1 $-1 $-1 $36 $-1 $16 #
shell $-1 $-1 $-1 $37 $-1 $18 #
shell $-1 $-1 $-1 $38 $-1 $20 #
shell $-1 $-1 $-1 $39 $-1 $22 #
face $-1 $40 $41 $24 $-1 $42 forward single #
face $-1 $43 $44 $25 $-1 $45 reversed single #
face $-1 $46 $47 $26 $-1 $48 reversed single #
face $-1 $49 $50 $27 $-1 $51 forward single #
face $-1 $52 $53 $28 $-1 $54 forward single #
face $-1 $55 $56 $29 $-1 $57 reversed single #
face $-1 $58 $59 $30 $-1 $60 forward single #
face $-1 $61 $62 $31 $-1 $63 forward single #
face $-1 $64 $65 $24 $-1 $66 reversed single #
loop $-1 $-1 $67 $32 #
plane-surface $-1 0 0 10.193052336243094 0 0 1 1 0 0 forward_v I I I I #
face $-1 $68 $69 $25 $-1 $70 reversed single #
loop $-1 $-1 $71 $33 #
plane-surface $-1 -60.016145157459427 -23.977411762016235 0 0 -1 0 0 0 -1 forward_v I I I I #
face $-1 $72 $73 $26 $-1 $74 reversed single #
loop $-1 $-1 $75 $34 #
plane-surface $-1 -42.759319103887421 -23.99556182214328 78.156876926427017 0.55919291073839883 0 0.82903756765294845 0.82903756765294845 0 -0.55919291073839883 forward_v I I I I #
face $-1 $76 $77 $27 $-1 $78 forward single #
loop $-1 $79 $80 $35 #
cone-surface $-1 59.936445600630734 -26.35325538031956 5.5392352967919516 -0.55919291073839883 0 -0.82903756765294845 1.2435563514794228 0 -0.83878936610759824 1 I I 0 1 1.5 forward I I I I #
face $-1 $81 $82 $28 $-1 $83 forward single #
loop $-1 $84 $85 $36 #
cone-surface $-1 59.936445600630734 -21.637868263967004 5.5392352967919516 -0.55919291073839883 0 -0.82903756765294845 1.2435563514794228 0 -0.83878936610759824 1 I I 0 1 1.5 forward I I I I #
face $-1 $86 $87 $29 $-1 $88 reversed single #
loop $-1 $-1 $89 $37 #
plane-surface $-1 29.909307404179245 1.7763568394002505e-015 185.89254418547054 0 1 0 0.55919291073839883 0 0.82903756765294845 forward_v I I I I #
face $-1 $90 $91 $30 $-1 $92 forward single #
loop $-1 $93 $94 $38 #
cone-surface $-1 59.936445600630734 3.1435914109017098 5.5392352967919516 -0.55919291073839883 0 -0.82903756765294845 1.2435563514794228 0 -0.83878936610759824 1 I I 0 1 1.5 forward I I I I #
face $-1 $95 $96 $31 $-1 $97 forward single #
loop $-1 $98 $99 $39 #
cone-surface $-1 59.936445600630734 7.858978527254262 5.5392352967919516 -0.55919291073839883 0 -0.82903756765294845 1.2435563514794228 0 -0.83878936610759824 1 I I 0 1 1.5 forward I I I I #
face $-1 $100 $101 $24 $-1 $102 reversed single #
loop $-1 $-1 $103 $40 #
plane-surface $-1 0 0 -10.193052336243094 0 0 1 1 0 0 forward_v I I I I #
coedge $-1 $104 $105 $106 $107 forward $41 $-1 #
face $-1 $108 $109 $25 $-1 $110 forward single #
loop $-1 $-1 $111 $43 #
plane-surface $-1 -55.055942159762751 -26.737129276618749 0 -1 0 0 0 0 1 forward_v I I I I #
coedge $-1 $112 $113 $114 $115 forward $44 $-1 #
face $-1 $116 $117 $26 $-1 $118 forward single #
loop $-1 $-1 $119 $46 #
plane-surface $-1 29.909307404179245 -18.494276853065301 185.89254418547054 0 -1 0 -0.55919291073839883 0 -0.82903756765294845 forward_v I I I I #
coedge $-1 $120 $121 $122 $123 reversed $47 $-1 #
face $-1 $-1 $124 $27 $-1 $125 forward single #
loop $-1 $126 $127 $49 #
cone-surface $-1 57.96472614112102 -26.35325538031956 2.6160410405424681 -0.55919291073839883 0 -0.82903756765294845 0.62177817573971139 0 -0.41939468305379912 1 I I -0.70710678118654757 0.70710678118654757 0.75 forward I I I I #
loop $-1 $-1 $128 $35 #
coedge $-1 $80 $80 $129 $130 reversed $50 $-1 #
face $-1 $-1 $131 $28 $-1 $132 forward single #
loop $-1 $133 $134 $52 #
cone-surface $-1 57.96472614112102 -21.637868263967004 2.6160410405424681 -0.55919291073839883 0 -0.82903756765294845 0.62177817573971139 0 -0.41939468305379912 1 I I -0.70710678118654757 0.70710678118654757 0.75 forward I I I I #
loop $-1 $-1 $135 $36 #
coedge $-1 $85 $85 $136 $137 reversed $53 $-1 #
face $-1 $138 $139 $29 $-1 $140 reversed single #
loop $-1 $-1 $141 $55 #
plane-surface $-1 -42.759319103887421 5.5012849690779824 78.156876926427017 0.55919291073839883 0 0.82903756765294845 0.82903756765294845 0 -0.55919291073839883 forward_v I I I I #
coedge $-1 $142 $143 $144 $145 reversed $56 $-1 #
face $-1 $-1 $146 $30 $-1 $147 forward single #
loop $-1 $148 $149 $58 #
cone-surface $-1 57.96472614112102 3.1435914109017098 2.6160410405424681 -0.55919291073839883 0 -0.82903756765294845 0.62177817573971139 0 -0.41939468305379912 1 I I -0.70710678118654757 0.70710678118654757 0.75 forward I I I I #
loop $-1 $-1 $150 $38 #
coedge $-1 $94 $94 $151 $152 reversed $59 $-1 #
face $-1 $-1 $153 $31 $-1 $154 forward single #
loop $-1 $155 $156 $61 #
cone-surface $-1 57.96472614112102 7.858978527254262 2.6160410405424681 -0.55919291073839883 0 -0.82903756765294845 0.62177817573971139 0 -0.41939468305379912 1 I I -0.70710678118654757 0.70710678118654757 0.75 forward I I I I #
loop $-1 $-1 $157 $39 #
coedge $-1 $99 $99 $158 $159 reversed $62 $-1 #
face $-1 $160 $161 $24 $-1 $162 reversed single #
loop $-1 $-1 $163 $64 #
plane-surface $-1 0 -29.496846791221262 0 0 1 0 0 0 1 forward_v I I I I #
coedge $-1 $164 $165 $166 $167 forward $65 $-1 #
coedge $-1 $168 $67 $169 $170 forward $41 $-1 #
coedge $-1 $67 $168 $171 $172 forward $41 $-1 #
coedge $-1 $173 $174 $67 $107 reversed $175 $-1 #
edge $-1 $176 -29.496846791221262 $177 29.496846791221262 $106 $178 forward 7 unknown #
face $-1 $179 $180 $25 $-1 $181 reversed single #
loop $-1 $-1 $182 $68 #
plane-surface $-1 0 0 10.193052336243094 0 0 1 1 0 0 forward_v I I I I #
coedge $-1 $183 $184 $185 $186 reversed $69 $-1 #
coedge $-1 $187 $71 $188 $189 reversed $44 $-1 #
coedge $-1 $71 $187 $190 $191 reversed $44 $-1 #
coedge $-1 $184 $183 $71 $115 reversed $69 $-1 #
edge $-1 $192 -10.193052336243094 $193 10.193052336243094 $114 $194 forward 7 unknown #
face $-1 $195 $196 $26 $-1 $197 reversed single #
loop $-1 $-1 $198 $72 #
plane-surface $-1 0 0 10.193052336243094 0 0 1 1 0 0 forward_v I I I I #
coedge $-1 $199 $200 $201 $202 reversed $73 $-1 #
coedge $-1 $203 $75 $204 $205 reversed $47 $-1 #
coedge $-1 $75 $203 $199 $206 forward $47 $-1 #
coedge $-1 $201 $207 $75 $123 forward $208 $-1 #
edge $-1 $209 -17.499065880149622 $210 -6.4964959419936612 $122 $211 forward 7 unknown #
loop $-1 $-1 $129 $76 #
plane-surface $-1 -42.759319103887421 -23.99556182214328 78.156876926427017 0.55919291073839883 0 0.82903756765294845 0.82903756765294845 0 -0.55919291073839883 forward_v I I I I #
loop $-1 $-1 $212 $49 #
coedge $-1 $127 $127 $128 $213 reversed $77 $-1 #
coedge $-1 $128 $128 $127 $213 forward $79 $-1 #
coedge $-1 $129 $129 $80 $130 forward $124 $-1 #
edge $-1 $214 0 $214 6.2831853071796004 $129 $215 forward 7 unknown #
loop $-1 $-1 $136 $81 #
plane-surface $-1 -42.759319103887421 -23.99556182214328 78.156876926427017 0.55919291073839883 0 0.82903756765294845 0.82903756765294845 0 -0.55919291073839883 forward_v I I I I #
loop $-1 $-1 $216 $52 #
coedge $-1 $134 $134 $135 $217 reversed $82 $-1 #
coedge $-1 $135 $135 $134 $217 forward $84 $-1 #
coedge $-1 $136 $136 $85 $137 forward $131 $-1 #
edge $-1 $218 0 $218 6.2831853071796004 $136 $219 forward 7 unknown #
face $-1 $220 $221 $29 $-1 $222 reversed single #
loop $-1 $-1 $223 $86 #
plane-surface $-1 29.909307404179245 11.002569938155963 185.89254418547054 0 -1 0 -0.55919291073839883 0 -0.82903756765294845 forward_v I I I I #
coedge $-1 $224 $225 $226 $227 reversed $87 $-1 #
coedge $-1 $143 $89 $228 $229 reversed $56 $-1 #
coedge $-1 $89 $142 $224 $230 reversed $56 $-1 #
coedge $-1 $226 $231 $89 $145 forward $221 $-1 #
edge $-1 $232 82.753219756492172 $233 87.458021674374919 $144 $234 forward 7 unknown #
loop $-1 $-1 $151 $90 #
plane-surface $-1 -42.759319103887421 5.5012849690779824 78.156876926427017 0.55919291073839883 0 0.82903756765294845 0.82903756765294845 0 -0.55919291073839883 forward_v I I I I #
loop $-1 $-1 $235 $58 #
coedge $-1 $149 $149 $150 $236 reversed $91 $-1 #
coedge $-1 $150 $150 $149 $236 forward $93 $-1 #
coedge $-1 $151 $151 $94 $152 forward $146 $-1 #
edge $-1 $237 0 $237 6.2831853071796004 $151 $238 forward 7 unknown #
loop $-1 $-1 $158 $95 #
plane-surface $-1 -42.759319103887421 5.5012849690779824 78.156876926427017 0.55919291073839883 0 0.82903756765294845 0.82903756765294845 0 -0.55919291073839883 forward_v I I I I #
loop $-1 $-1 $239 $61 #
coedge $-1 $156 $156 $157 $240 reversed $96 $-1 #
coedge $-1 $157 $157 $156 $240 forward $98 $-1 #
coedge $-1 $158 $158 $99 $159 forward $153 $-1 #
edge $-1 $241 0 $241 6.2831853071796004 $158 $242 forward 7 unknown #
face $-1 $243 $244 $24 $-1 $245 reversed single #
loop $-1 $-1 $246 $100 #
plane-surface $-1 -64.976348155156103 0 0 1 0 0 0 0 -1 forward_v I I I I #
coedge $-1 $247 $171 $248 $249 forward $101 $-1 #
coedge $-1 $250 $103 $247 $251 forward $65 $-1 #
coedge $-1 $103 $250 $252 $253 forward $65 $-1 #
coedge $-1 $174 $173 $103 $167 reversed $175 $-1 #
edge $-1 $254 -29.496846791221262 $255 29.496846791221262 $166 $256 forward 7 unknown #
coedge $-1 $105 $104 $257 $258 forward $41 $-1 #
coedge $-1 $259 $260 $104 $170 reversed $244 $-1 #
edge $-1 $177 -64.976348155156103 $261 64.976348155156103 $169 $262 forward 7 unknown #
coedge $-1 $163 $263 $105 $172 reversed $101 $-1 #
edge $-1 $264 -64.976348155156103 $176 64.976348155156103 $171 $265 forward 7 unknown #
coedge $-1 $166 $106 $263 $266 forward $175 $-1 #
coedge $-1 $106 $166 $259 $267 reversed $175 $-1 #
loop $-1 $-1 $173 $243 #
vertex $-1 $107 $268 #
vertex $-1 $107 $269 #
straight-curve $-1 64.976348155156103 0 10.193052336243094 0 1 0 I I #
face $-1 $270 $271 $25 $-1 $272 reversed single #
loop $-1 $-1 $273 $108 #
plane-surface $-1 -64.976348155156103 0 0 1 0 0 0 0 -1 forward_v I I I I #
coedge $-1 $190 $274 $184 $275 forward $109 $-1 #
coedge $-1 $114 $111 $276 $277 reversed $69 $-1 #
coedge $-1 $111 $114 $182 $275 reversed $69 $-1 #
coedge $-1 $278 $279 $111 $186 forward $280 $-1 #
edge $-1 $281 -10.193052336243094 $282 10.193052336243094 $185 $283 forward 7 unknown #
coedge $-1 $113 $112 $273 $284 reversed $44 $-1 #
coedge $-1 $276 $285 $112 $189 forward $271 $-1 #
edge $-1 $286 -34.968275576426393 $193 -25.047869581033037 $188 $287 forward 7 unknown #
coedge $-1 $288 $182 $113 $191 forward $109 $-1 #
edge $-1 $192 25.047869581033037 $289 34.968275576426393 $190 $290 forward 7 unknown #
vertex $-1 $191 $291 #
vertex $-1 $189 $292 #
straight-curve $-1 -55.055942159762751 -23.977411762016235 0 0 0 -1 I I #
face $-1 $-1 $208 $26 $-1 $293 reversed single #
loop $-1 $-1 $204 $116 #
plane-surface $-1 0 -29.496846791221262 0 0 1 0 0 0 1 forward_v I I I I #
coedge $-1 $294 $295 $200 $296 forward $117 $-1 #
coedge $-1 $200 $119 $121 $206 reversed $73 $-1 #
coedge $-1 $119 $199 $198 $296 reversed $73 $-1 #
coedge $-1 $297 $122 $119 $202 forward $208 $-1 #
edge $-1 $210 -87.458021674374919 $298 -82.753219756492172 $201 $299 forward 7 unknown #
coedge $-1 $121 $120 $294 $300 reversed $47 $-1 #
coedge $-1 $301 $302 $120 $205 forward $196 $-1 #
edge $-1 $303 81.962211731594095 $209 90.375769606764905 $204 $304 forward 7 unknown #
edge $-1 $305 121.53913843514138 $210 129.95269631031221 $199 $306 forward 7 unknown #
coedge $-1 $122 $297 $301 $307 forward $208 $-1 #
loop $-1 $-1 $201 $195 #
vertex $-1 $205 $308 #
vertex $-1 $123 $309 #
straight-curve $-1 64.976348155156103 -11.99778091107164 5.4882504183603444 0 1 0 I I #
coedge $-1 $212 $212 $-1 $310 reversed $126 $-1 #
edge $-1 $311 0 $311 6.2831853071796004 $127 $312 forward 7 unknown #
vertex $-1 $130 $313 #
ellipse-curve $-1 61.488770377086638 -26.35325538031956 7.8406513773017164 0.55919291073839883 0 0.82903756765294845 1.2435563514794228 0 -0.83878936610759824 1 I I #
coedge $-1 $216 $216 $-1 $314 reversed $133 $-1 #
edge $-1 $315 0 $315 6.2831853071796004 $134 $316 forward 7 unknown #
vertex $-1 $137 $317 #
ellipse-curve $-1 61.488770377086638 -21.637868263967004 7.8406513773017164 0.55919291073839883 0 0.82903756765294845 1.2435563514794228 0 -0.83878936610759824 1 I I #
face $-1 $-1 $318 $29 $-1 $319 forward single #
loop $-1 $-1 $144 $138 #
plane-surface $-1 64.976348155156103 0 0 -1 0 0 0 0 1 forward_v I I I I #
coedge $-1 $320 $321 $322 $323 reversed $139 $-1 #
coedge $-1 $324 $141 $143 $230 forward $87 $-1 #
coedge $-1 $141 $324 $320 $325 forward $87 $-1 #
coedge $-1 $322 $144 $141 $227 forward $221 $-1 #
edge $-1 $233 -2.7506424845389894 $326 8.2519274536169718 $226 $327 forward 7 unknown #
coedge $-1 $328 $329 $142 $229 forward $318 $-1 #
edge $-1 $330 43.046538896927565 $232 50.02169445306648 $228 $331 forward 7 unknown #
edge $-1 $233 -129.95269631031221 $330 -121.53913843514138 $143 $332 forward 7 unknown #
coedge $-1 $144 $322 $328 $333 reversed $221 $-1 #
vertex $-1 $333 $334 #
vertex $-1 $145 $335 #
straight-curve $-1 64.976348155156103 1.7763568394002505e-015 92.946272092735271 0 0 -1 I I #
coedge $-1 $235 $235 $-1 $336 reversed $148 $-1 #
edge $-1 $337 0 $337 6.2831853071796004 $149 $338 forward 7 unknown #
vertex $-1 $152 $339 #
ellipse-curve $-1 61.488770377086638 3.1435914109017098 7.8406513773017164 0.55919291073839883 0 0.82903756765294845 1.2435563514794228 0 -0.83878936610759824 1 I I #
coedge $-1 $239 $239 $-1 $340 reversed $155 $-1 #
edge $-1 $341 0 $341 6.2831853071796004 $156 $342 forward 7 unknown #
vertex $-1 $159 $343 #
ellipse-curve $-1 61.488770377086638 7.858978527254262 7.8406513773017164 0.55919291073839883 0 0.82903756765294845 1.2435563514794228 0 -0.83878936610759824 1 I I #
face $-1 $-1 $175 $24 $-1 $344 reversed single #
loop $-1 $-1 $259 $160 #
plane-surface $-1 0 29.496846791221262 0 0 -1 0 0 0 -1 forward_v I I I I #
coedge $-1 $345 $257 $260 $346 forward $161 $-1 #
coedge $-1 $263 $163 $164 $251 reversed $101 $-1 #
coedge $-1 $257 $345 $163 $249 reversed $161 $-1 #
edge $-1 $264 -10.193052336243094 $347 10.193052336243094 $248 $348 forward 7 unknown #
coedge $-1 $165 $164 $345 $349 forward $65 $-1 #
edge $-1 $255 -64.976348155156103 $347 64.976348155156103 $247 $350 forward 7 unknown #
coedge $-1 $260 $259 $165 $253 reversed $244 $-1 #
edge $-1 $351 -64.976348155156103 $254 64.976348155156103 $252 $352 forward 7 unknown #
vertex $-1 $167 $353 #
vertex $-1 $266 $354 #
straight-curve $-1 64.976348155156103 0 -10.193052336243094 0 -1 0 I I #
coedge $-1 $246 $248 $168 $258 reversed $161 $-1 #
edge $-1 $261 -29.496846791221262 $264 29.496846791221262 $257 $355 forward 7 unknown #
coedge $-1 $252 $169 $174 $267 forward $244 $-1 #
coedge $-1 $169 $252 $246 $346 reversed $244 $-1 #
vertex $-1 $170 $356 #
straight-curve $-1 0 29.496846791221262 10.193052336243094 -1 0 0 I I #
coedge $-1 $171 $247 $173 $266 reversed $101 $-1 #
vertex $-1 $258 $357 #
straight-curve $-1 0 -29.496846791221262 10.193052336243094 1 0 0 I I #
edge $-1 $176 -10.193052336243094 $255 10.193052336243094 $173 $358 forward 7 unknown #
edge $-1 $177 -10.193052336243094 $254 10.193052336243094 $174 $359 forward 7 unknown #
point $-1 64.976348155156103 -29.496846791221262 10.193052336243094 #
point $-1 64.976348155156103 29.496846791221262 10.193052336243094 #
face $-1 $-1 $280 $25 $-1 $360 reversed single #
loop $-1 $-1 $276 $179 #
plane-surface $-1 0 0 -10.193052336243094 0 0 1 1 0 0 forward_v I I I I #
coedge $-1 $361 $362 $187 $284 forward $180 $-1 #
coedge $-1 $182 $288 $278 $363 forward $109 $-1 #
edge $-1 $282 -16.128282152911886 $192 -10.608847123706861 $182 $364 forward 7 unknown #
coedge $-1 $365 $188 $183 $277 forward $271 $-1 #
edge $-1 $193 10.608847123706861 $281 16.128282152911886 $276 $366 forward 7 unknown #
coedge $-1 $367 $185 $274 $363 reversed $280 $-1 #
coedge $-1 $185 $367 $365 $368 reversed $280 $-1 #
loop $-1 $-1 $185 $270 #
vertex $-1 $368 $369 #
vertex $-1 $186 $370 #
straight-curve $-1 -55.055942159762751 -29.496846791221262 0 0 0 1 I I #
edge $-1 $289 -10.193052336243094 $286 10.193052336243094 $273 $371 forward 7 unknown #
coedge $-1 $188 $365 $361 $372 forward $271 $-1 #
vertex $-1 $189 $373 #
straight-curve $-1 -30.008072578729713 -23.977411762016235 -10.193052336243094 1 0 0 I I #
coedge $-1 $274 $190 $362 $374 forward $109 $-1 #
vertex $-1 $374 $375 #
straight-curve $-1 -30.008072578729713 -23.977411762016235 10.193052336243094 -1 0 0 I I #
point $-1 -55.055942159762751 -23.977411762016235 10.193052336243094 #
point $-1 -55.055942159762751 -23.977411762016235 -10.193052336243094 #
plane-surface $-1 64.976348155156103 0 0 -1 0 0 0 0 1 forward_v I I I I #
coedge $-1 $376 $198 $203 $300 forward $117 $-1 #
coedge $-1 $198 $376 $297 $377 forward $117 $-1 #
edge $-1 $298 -50.02169445306648 $305 -43.046538896927565 $198 $378 forward 7 unknown #
coedge $-1 $207 $201 $295 $377 reversed $208 $-1 #
vertex $-1 $296 $379 #
straight-curve $-1 64.976348155156103 -18.494276853065301 92.946272092735271 0 0 1 I I #
edge $-1 $305 6.4964959419936612 $303 17.499065880149619 $294 $380 forward 7 unknown #
coedge $-1 $302 $204 $207 $307 reversed $196 $-1 #
coedge $-1 $204 $301 $376 $381 reversed $196 $-1 #
vertex $-1 $381 $382 #
straight-curve $-1 -9.9485600543995432 -29.496846791221262 56.025740084990133 0.82903756765294845 0 -0.55919291073839883 I I #
vertex $-1 $300 $383 #
straight-curve $-1 -42.759319103887421 -18.494276853065301 78.156876926427017 0.82903756765294845 0 -0.55919291073839883 I I #
edge $-1 $384 -10.193052336243094 $209 -5.4882504183603444 $207 $385 forward 7 unknown #
point $-1 64.976348155156103 -29.496846791221262 5.4882504183603444 #
point $-1 64.976348155156103 -18.494276853065301 5.4882504183603515 #
edge $-1 $386 1 $386 0 $212 $-1 forward 7 unknown #
vertex $-1 $213 $387 #
ellipse-curve $-1 58.384120824174822 -26.35325538031956 3.2378192162821797 0.55919291073839883 0 0.82903756765294845 1.2435563514794228 0 -0.83878936610759824 1 I I #
point $-1 62.732326728566065 -26.35325538031956 7.0018620111941239 #
edge $-1 $388 1 $388 0 $216 $-1 forward 7 unknown #
vertex $-1 $217 $389 #
ellipse-curve $-1 58.384120824174822 -21.637868263967004 3.2378192162821797 0.55919291073839883 0 0.82903756765294845 1.2435563514794228 0 -0.83878936610759824 1 I I #
point $-1 62.732326728566065 -21.637868263967004 7.0018620111941239 #
loop $-1 $-1 $228 $220 #
plane-surface $-1 0 0 10.193052336243094 0 0 1 1 0 0 forward_v I I I I #
coedge $-1 $321 $223 $225 $325 reversed $139 $-1 #
coedge $-1 $223 $320 $390 $391 reversed $139 $-1 #
coedge $-1 $231 $226 $223 $323 forward $221 $-1 #
edge $-1 $326 -87.458021674374919 $392 -82.753219756492172 $322 $393 forward 7 unknown #
coedge $-1 $225 $224 $329 $394 reversed $87 $-1 #
edge $-1 $395 121.53913843514138 $326 129.95269631031221 $320 $396 forward 7 unknown #
vertex $-1 $227 $397 #
straight-curve $-1 64.976348155156103 2.7506424845389912 5.4882504183603444 0 1 0 I I #
coedge $-1 $390 $228 $231 $333 forward $318 $-1 #
coedge $-1 $228 $390 $324 $394 forward $318 $-1 #
vertex $-1 $229 $398 #
straight-curve $-1 14.954653702089622 1.7763568394002505e-015 10.193052336243099 1 0 0 I I #
straight-curve $-1 -42.759319103887421 1.7763568394002505e-015 78.156876926427017 -0.82903756765294845 0 0.55919291073839883 I I #
edge $-1 $232 1.7763568394002505e-015 $392 11.002569938155963 $231 $399 forward 7 unknown #
point $-1 64.976348155156103 1.7763568394002505e-015 10.193052336243094 #
point $-1 64.976348155156103 1.7763568394002505e-015 5.4882504183603515 #
edge $-1 $400 1 $400 0 $235 $-1 forward 7 unknown #
vertex $-1 $236 $401 #
ellipse-curve $-1 58.384120824174822 3.1435914109017098 3.2378192162821797 0.55919291073839883 0 0.82903756765294845 1.2435563514794228 0 -0.83878936610759824 1 I I #
point $-1 62.732326728566065 3.1435914109017098 7.0018620111941239 #
edge $-1 $402 1 $402 0 $239 $-1 forward 7 unknown #
vertex $-1 $240 $403 #
ellipse-curve $-1 58.384120824174822 7.858978527254262 3.2378192162821797 0.55919291073839883 0 0.82903756765294845 1.2435563514794228 0 -0.83878936610759824 1 I I #
point $-1 62.732326728566065 7.858978527254262 7.0018620111941239 #
plane-surface $-1 64.976348155156103 0 0 -1 0 0 0 0 1 forward_v I I I I #
coedge $-1 $248 $246 $250 $349 reversed $161 $-1 #
edge $-1 $261 -10.193052336243094 $351 10.193052336243094 $260 $404 forward 7 unknown #
vertex $-1 $349 $405 #
straight-curve $-1 -64.976348155156103 -29.496846791221262 0 0 0 -1 I I #
edge $-1 $347 -29.496846791221262 $351 29.496846791221262 $345 $406 forward 7 unknown #
straight-curve $-1 0 -29.496846791221262 -10.193052336243094 -1 0 0 I I #
vertex $-1 $253 $407 #
straight-curve $-1 0 29.496846791221262 -10.193052336243094 1 0 0 I I #
point $-1 64.976348155156103 29.496846791221262 -10.193052336243094 #
point $-1 64.976348155156103 -29.496846791221262 -10.193052336243094 #
straight-curve $-1 -64.976348155156103 0 10.193052336243094 0 -1 0 I I #
point $-1 -64.976348155156103 29.496846791221262 10.193052336243094 #
point $-1 -64.976348155156103 -29.496846791221262 10.193052336243094 #
straight-curve $-1 64.976348155156103 -29.496846791221262 0 0 0 -1 I I #
straight-curve $-1 64.976348155156103 29.496846791221262 0 0 0 -1 I I #
plane-surface $-1 0 -29.496846791221262 0 0 1 0 0 0 1 forward_v I I I I #
coedge $-1 $408 $273 $285 $372 reversed $180 $-1 #
coedge $-1 $273 $408 $288 $374 reversed $180 $-1 #
edge $-1 $409 -64.976348155156103 $282 -55.055942159762751 $278 $410 forward 7 unknown #
straight-curve $-1 -55.055942159762751 -13.368564638309374 10.193052336243094 0 1 0 I I #
coedge $-1 $285 $276 $279 $368 forward $271 $-1 #
straight-curve $-1 -55.055942159762751 -13.368564638309374 -10.193052336243094 0 -1 0 I I #
coedge $-1 $279 $278 $408 $411 forward $280 $-1 #
edge $-1 $281 55.055942159762751 $412 64.976348155156103 $279 $413 forward 7 unknown #
point $-1 -55.055942159762751 -29.496846791221262 -10.193052336243094 #
point $-1 -55.055942159762751 -29.496846791221262 10.193052336243094 #
straight-curve $-1 -64.976348155156103 -23.977411762016235 0 0 0 -1 I I #
edge $-1 $412 -29.496846791221262 $286 -23.977411762016235 $361 $414 forward 7 unknown #
point $-1 -64.976348155156103 -23.977411762016235 -10.193052336243094 #
edge $-1 $289 23.977411762016235 $409 29.496846791221262 $362 $415 forward 7 unknown #
point $-1 -64.976348155156103 -23.977411762016235 10.193052336243094 #
coedge $-1 $295 $294 $302 $381 forward $117 $-1 #
edge $-1 $384 -29.496846791221262 $298 -18.494276853065301 $297 $416 forward 7 unknown #
straight-curve $-1 14.954653702089622 -18.494276853065301 10.193052336243099 -1 0 0 I I #
point $-1 64.976348155156103 -18.494276853065301 10.193052336243094 #
straight-curve $-1 58.001192599017195 -11.99778091107164 10.193052336243085 0 -1 0 I I #
edge $-1 $303 58.001192599017187 $384 64.976348155156103 $302 $417 forward 7 unknown #
point $-1 58.001192599017187 -29.496846791221259 10.193052336243099 #
point $-1 58.001192599017187 -18.494276853065301 10.193052336243099 #
vertex $-1 $377 $418 #
straight-curve $-1 64.976348155156103 -29.496846791221262 0 0 0 -1 I I #
vertex $-1 $310 $419 #
point $-1 59.627677175654242 -26.35325538031956 2.399029850174581 #
vertex $-1 $314 $420 #
point $-1 59.627677175654242 -21.637868263967004 2.399029850174581 #
coedge $-1 $329 $328 $321 $391 forward $318 $-1 #
edge $-1 $392 -50.02169445306648 $395 -43.046538896927565 $390 $421 forward 7 unknown #
vertex $-1 $391 $422 #
straight-curve $-1 64.976348155156103 11.002569938155963 92.946272092735271 0 0 1 I I #
edge $-1 $395 -8.2519274536169718 $330 2.7506424845389894 $329 $423 forward 7 unknown #
vertex $-1 $394 $424 #
straight-curve $-1 -42.759319103887421 11.002569938155963 78.156876926427017 0.82903756765294845 0 -0.55919291073839883 I I #
point $-1 64.976348155156103 11.002569938155963 5.4882504183603515 #
point $-1 58.001192599017187 1.7763568394002505e-015 10.193052336243099 #
straight-curve $-1 64.976348155156103 0 10.193052336243094 0 1 0 I I #
vertex $-1 $336 $425 #
point $-1 59.627677175654242 3.1435914109017098 2.399029850174581 #
vertex $-1 $340 $426 #
point $-1 59.627677175654242 7.858978527254262 2.399029850174581 #
straight-curve $-1 -64.976348155156103 29.496846791221262 0 0 0 -1 I I #
point $-1 -64.976348155156103 -29.496846791221262 -10.193052336243094 #
straight-curve $-1 -64.976348155156103 0 -10.193052336243094 0 1 0 I I #
point $-1 -64.976348155156103 29.496846791221262 -10.193052336243094 #
coedge $-1 $362 $361 $367 $411 reversed $180 $-1 #
vertex $-1 $374 $427 #
straight-curve $-1 0 -29.496846791221262 10.193052336243094 1 0 0 I I #
edge $-1 $409 -10.193052336243094 $412 10.193052336243094 $408 $428 forward 7 unknown #
vertex $-1 $372 $429 #
straight-curve $-1 0 -29.496846791221262 -10.193052336243094 -1 0 0 I I #
straight-curve $-1 -64.976348155156103 0 -10.193052336243094 0 1 0 I I #
straight-curve $-1 -64.976348155156103 0 10.193052336243094 0 -1 0 I I #
straight-curve $-1 64.976348155156103 0 10.193052336243094 0 1 0 I I #
straight-curve $-1 0 -29.496846791221262 10.193052336243094 1 0 0 I I #
point $-1 64.976348155156103 -29.496846791221262 10.193052336243094 #
point $-1 57.545331458067217 -26.35325538031956 1.9942628648027567 #
point $-1 57.545331458067217 -21.637868263967004 1.9942628648027567 #
straight-curve $-1 14.954653702089622 11.002569938155963 10.193052336243099 -1 0 0 I I #
point $-1 64.976348155156103 11.002569938155963 10.193052336243094 #
straight-curve $-1 58.001192599017195 2.7506424845389912 10.193052336243085 0 -1 0 I I #
point $-1 58.001192599017187 11.002569938155963 10.193052336243099 #
point $-1 57.545331458067217 3.1435914109017098 1.9942628648027567 #
point $-1 57.545331458067217 7.858978527254262 1.9942628648027567 #
point $-1 -64.976348155156103 -29.496846791221262 10.193052336243094 #
straight-curve $-1 -64.976348155156103 -29.496846791221262 0 0 0 -1 I I #
point $-1 -64.976348155156103 -29.496846791221262 -10.193052336243094 #
End-of-ACIS-data 