500 0 10 0           
7 Unknown 11 ACIS 5.0 NT 24 Fri Mar 26 02:53:26 1999 
-1 9.9999999999999995e-007 1e-010 
body $-1 $10 $-1 $11 #
body $-1 $12 $-1 $13 #
body $-1 $14 $-1 $15 #
body $-1 $16 $-1 $17 #
body $-1 $18 $-1 $19 #
body $-1 $20 $-1 $21 #
body $-1 $22 $-1 $23 #
body $-1 $24 $-1 $25 #
body $-1 $26 $-1 $27 #
body $-1 $28 $-1 $29 #
lump $-1 $-1 $30 $0 #
transform $-1 1 0 0 0 1 0 0 0 1 63.659169286172059 39.033812419415355 12.716753165028866 1 rotate no_reflect no_shear #
lump $-1 $-1 $31 $1 #
transform $-1 1 0 0 0 1 0 0 0 1 63.659169286172059 39.033812419415355 12.716753165028866 1 rotate no_reflect no_shear #
lump $-1 $-1 $32 $2 #
transform $-1 1 0 0 0 1 0 0 0 1 63.659169286172059 39.033812419415355 12.716753165028866 1 rotate no_reflect no_shear #
lump $-1 $-1 $33 $3 #
transform $-1 1 0 0 0 1 0 0 0 1 63.659169286172059 39.033812419415355 12.716753165028866 1 rotate no_reflect no_shear #
lump $-1 $-1 $34 $4 #
transform $-1 1 0 0 0 1 0 0 0 1 63.659169286172059 39.033812419415355 12.716753165028866 1 rotate no_reflect no_shear #
lump $-1 $-1 $35 $5 #
transform $-1 1 0 0 0 1 0 0 0 1 63.659169286172059 39.033812419415355 12.716753165028866 1 rotate no_reflect no_shear #
lump $-1 $-1 $36 $6 #
transform $-1 1 0 0 0 1 0 0 0 1 63.659169286172059 39.033812419415355 12.716753165028866 1 rotate no_reflect no_shear #
lump $-1 $-1 $37 $7 #
transform $-1 1 0 0 0 1 0 0 0 1 63.659169286172059 39.033812419415355 12.716753165028866 1 rotate no_reflect no_shear #
lump $-1 $-1 $38 $8 #
transform $-1 1 0 0 0 1 0 0 0 1 63.659169286172059 39.033812419415355 12.716753165028866 1 rotate no_reflect no_shear #
lump $-1 $-1 $39 $9 #
transform $-1 1 0 0 0 1 0 0 0 1 63.659169286172059 39.033812419415355 12.716753165028866 1 rotate no_reflect no_shear #
shell $-1 $-1 $-1 $40 $-1 $10 #
shell $-1 $-1 $-1 $41 $-1 $12 #
shell $-1 $-1 $-1 $42 $-1 $14 #
shell $-1 $-1 $-1 $43 $-1 $16 #
shell $-1 $-1 $-1 $44 $-1 $18 #
shell $-1 $-1 $-1 $45 $-1 $20 #
shell $-1 $-1 $-1 $46 $-1 $22 #
shell $-1 $-1 $-1 $47 $-1 $24 #
shell $-1 $-1 $-1 $48 $-1 $26 #
shell $-1 $-1 $-1 $49 $-1 $28 #
face $-1 $50 $51 $30 $-1 $52 forward single #
face $-1 $53 $54 $31 $-1 $55 reversed single #
face $-1 $56 $57 $32 $-1 $58 reversed single #
face $-1 $59 $60 $33 $-1 $61 forward single #
face $-1 $62 $63 $34 $-1 $64 forward single #
face $-1 $65 $66 $35 $-1 $67 forward single #
face $-1 $68 $69 $36 $-1 $70 reversed single #
face $-1 $71 $72 $37 $-1 $73 forward single #
face $-1 $74 $75 $38 $-1 $76 forward single #
face $-1 $77 $78 $39 $-1 $79 forward single #
face $-1 $80 $81 $30 $-1 $82 reversed single #
loop $-1 $-1 $83 $40 #
plane-surface $-1 0 0 12.716753165028866 0 0 1 1 0 0 forward_v I I I I #
face $-1 $84 $85 $31 $-1 $86 reversed single #
loop $-1 $-1 $87 $41 #
plane-surface $-1 -57.63441585166585 0 7.9763114642457147 0 0 1 1 0 0 forward_v I I I I #
face $-1 $88 $89 $32 $-1 $90 reversed single #
loop $-1 $-1 $91 $42 #
plane-surface $-1 40.601534923733965 -135.12218333329781 91.899098729454678 -1 0 0 0 -0.75470958851134928 0.65605901945558964 forward_v I I I I #
face $-1 $92 $93 $33 $-1 $94 forward single #
loop $-1 $95 $96 $43 #
cone-surface $-1 13.469474507616511 -35.701283968663766 9.2888784632736812 0 0.75470958851134928 -0.65605901945558964 1 0 0 1 I I 0 1 1 forward I I I I #
face $-1 $97 $98 $34 $-1 $99 forward single #
loop $-1 $100 $101 $44 #
cone-surface $-1 23.643997163660558 -35.701283968663766 9.2888784632736812 0 0.75470958851134928 -0.65605901945558964 1 0 0 1 I I 0 1 1 forward I I I I #
face $-1 $102 $103 $35 $-1 $104 forward single #
loop $-1 $105 $106 $45 #
cone-surface $-1 33.818519819704605 -35.701283968663766 9.2888784632736812 0 0.75470958851134928 -0.65605901945558964 1 0 0 1 I I 0 1 1 forward I I I I #
face $-1 $107 $108 $36 $-1 $109 reversed single #
loop $-1 $-1 $110 $46 #
plane-surface $-1 43.882967888832674 96.149515379556149 145.15444743516957 1 0 0 0 -0.80901700255871778 -0.5877852410284794 forward_v I I I I #
face $-1 $111 $112 $37 $-1 $113 forward single #
loop $-1 $114 $115 $47 #
cone-surface $-1 47.83820816830054 35.722174110627357 8.9990704573929801 0 -0.80901700255871778 -0.5877852410284794 1 0 0 1 I I 0 1 1 forward I I I I #
face $-1 $116 $117 $38 $-1 $118 forward single #
loop $-1 $119 $120 $48 #
cone-surface $-1 53.771068587502356 35.722174110627357 8.9990704573929801 0 -0.80901700255871778 -0.5877852410284794 1 0 0 1 I I 0 1 1 forward I I I I #
face $-1 $121 $122 $39 $-1 $123 forward single #
loop $-1 $124 $125 $49 #
cone-surface $-1 59.703929006704172 35.722174110627357 8.9990704573929801 0 -0.80901700255871778 -0.5877852410284794 1 0 0 1 I I 0 1 1 forward I I I I #
face $-1 $126 $127 $30 $-1 $128 reversed single #
loop $-1 $-1 $129 $50 #
plane-surface $-1 0 0 -12.716753165028866 0 0 1 1 0 0 forward_v I I I I #
coedge $-1 $130 $131 $132 $133 forward $51 $-1 #
face $-1 $134 $135 $31 $-1 $136 reversed single #
loop $-1 $-1 $137 $53 #
plane-surface $-1 -51.60966241715964 0 10.34653231463729 -1 0 0 0 0 1 forward_v I I I I #
coedge $-1 $138 $139 $140 $141 forward $54 $-1 #
face $-1 $142 $143 $32 $-1 $144 reversed single #
loop $-1 $-1 $145 $56 #
plane-surface $-1 23.643997163660558 -39.033812419415341 8.3707543669678302 0 -0.75470958851134928 0.65605901945558964 1 0 0 forward_v I I I I #
coedge $-1 $146 $147 $148 $149 reversed $57 $-1 #
face $-1 $-1 $150 $33 $-1 $151 forward single #
loop $-1 $152 $153 $59 #
cone-surface $-1 13.469474507616511 -33.880360234317493 7.7059736508212247 0 0.75470958851134928 -0.65605901945558964 0.5 0 0 1 I I -0.70710678118654879 0.70710678118654635 0.5 forward I I I I #
loop $-1 $-1 $154 $43 #
coedge $-1 $96 $96 $155 $156 reversed $60 $-1 #
face $-1 $-1 $157 $34 $-1 $158 forward single #
loop $-1 $159 $160 $62 #
cone-surface $-1 23.643997163660558 -33.880360234317493 7.7059736508212247 0 0.75470958851134928 -0.65605901945558964 0.5 0 0 1 I I -0.70710678118654879 0.70710678118654635 0.5 forward I I I I #
loop $-1 $-1 $161 $44 #
coedge $-1 $101 $101 $162 $163 reversed $63 $-1 #
face $-1 $-1 $164 $35 $-1 $165 forward single #
loop $-1 $166 $167 $65 #
cone-surface $-1 33.818519819704605 -33.880360234317493 7.7059736508212247 0 0.75470958851134928 -0.65605901945558964 0.5 0 0 1 I I -0.70710678118654879 0.70710678118654635 0.5 forward I I I I #
loop $-1 $-1 $168 $45 #
coedge $-1 $106 $106 $169 $170 reversed $66 $-1 #
face $-1 $171 $172 $36 $-1 $173 forward single #
loop $-1 $-1 $174 $68 #
plane-surface $-1 53.77106858750237 -6.8531852629976555 70.318607110078744 0 0.80901700255871778 0.5877852410284794 1 0 0 forward_v I I I I #
coedge $-1 $175 $176 $177 $178 reversed $69 $-1 #
face $-1 $-1 $179 $37 $-1 $180 forward single #
loop $-1 $181 $182 $71 #
cone-surface $-1 47.83820816830054 34.024428462919488 7.7655860787125768 0 -0.80901700255871778 -0.5877852410284794 0.5 0 0 1 I I -0.70710678118654691 0.70710678118654813 0.5 forward I I I I #
loop $-1 $-1 $183 $47 #
coedge $-1 $115 $115 $184 $185 reversed $72 $-1 #
face $-1 $-1 $186 $38 $-1 $187 forward single #
loop $-1 $188 $189 $74 #
cone-surface $-1 53.771068587502356 34.024428462919488 7.7655860787125768 0 -0.80901700255871778 -0.5877852410284794 0.5 0 0 1 I I -0.70710678118654691 0.70710678118654813 0.5 forward I I I I #
loop $-1 $-1 $190 $48 #
coedge $-1 $120 $120 $191 $192 reversed $75 $-1 #
face $-1 $-1 $193 $39 $-1 $194 forward single #
loop $-1 $195 $196 $77 #
cone-surface $-1 59.703929006704172 34.024428462919488 7.7655860787125768 0 -0.80901700255871778 -0.5877852410284794 0.5 0 0 1 I I -0.70710678118654691 0.70710678118654813 0.5 forward I I I I #
loop $-1 $-1 $197 $49 #
coedge $-1 $125 $125 $198 $199 reversed $78 $-1 #
face $-1 $200 $201 $30 $-1 $202 reversed single #
loop $-1 $-1 $203 $80 #
plane-surface $-1 0 -39.033812419415355 0 0 1 0 0 0 1 forward_v I I I I #
coedge $-1 $204 $205 $206 $207 forward $81 $-1 #
coedge $-1 $208 $83 $209 $210 forward $51 $-1 #
coedge $-1 $83 $208 $211 $212 forward $51 $-1 #
coedge $-1 $213 $214 $83 $133 reversed $215 $-1 #
edge $-1 $216 -39.033812419415355 $217 39.033812419415355 $132 $218 forward 7 unknown #
face $-1 $219 $220 $31 $-1 $221 reversed single #
loop $-1 $-1 $222 $84 #
plane-surface $-1 0 39.033812419415355 0 0 -1 0 0 0 -1 forward_v I I I I #
coedge $-1 $140 $223 $224 $225 reversed $85 $-1 #
coedge $-1 $226 $87 $227 $228 reversed $54 $-1 #
coedge $-1 $87 $226 $229 $230 reversed $54 $-1 #
coedge $-1 $231 $137 $87 $141 reversed $85 $-1 #
edge $-1 $232 -39.033812419415355 $233 39.033812419415355 $140 $234 forward 7 unknown #
face $-1 $235 $236 $32 $-1 $237 reversed single #
loop $-1 $-1 $238 $88 #
plane-surface $-1 6.6864594035871505 -135.12218333329781 91.899098729454678 1 0 0 0 0.75470958851134928 -0.65605901945558964 forward_v I I I I #
coedge $-1 $239 $240 $241 $242 reversed $89 $-1 #
coedge $-1 $147 $91 $243 $244 reversed $57 $-1 #
coedge $-1 $91 $146 $239 $245 reversed $57 $-1 #
coedge $-1 $241 $246 $91 $149 forward $247 $-1 #
edge $-1 $248 28.527279247233551 $249 32.305198268555522 $148 $250 forward 7 unknown #
loop $-1 $-1 $155 $92 #
plane-surface $-1 23.643997163660558 -39.033812419415341 8.3707543669678302 0 -0.75470958851134928 0.65605901945558964 1 0 0 forward_v I I I I #
loop $-1 $-1 $251 $59 #
coedge $-1 $153 $153 $154 $252 reversed $93 $-1 #
coedge $-1 $154 $154 $153 $252 forward $95 $-1 #
coedge $-1 $155 $155 $96 $156 forward $150 $-1 #
edge $-1 $253 -1.980312626414467e-015 $253 6.2831853071795987 $155 $254 forward 7 unknown #
loop $-1 $-1 $162 $97 #
plane-surface $-1 23.643997163660558 -39.033812419415341 8.3707543669678302 0 -0.75470958851134928 0.65605901945558964 1 0 0 forward_v I I I I #
loop $-1 $-1 $255 $62 #
coedge $-1 $160 $160 $161 $256 reversed $98 $-1 #
coedge $-1 $161 $161 $160 $256 forward $100 $-1 #
coedge $-1 $162 $162 $101 $163 forward $157 $-1 #
edge $-1 $257 -1.980312626414467e-015 $257 6.2831853071795987 $162 $258 forward 7 unknown #
loop $-1 $-1 $169 $102 #
plane-surface $-1 23.643997163660558 -39.033812419415341 8.3707543669678302 0 -0.75470958851134928 0.65605901945558964 1 0 0 forward_v I I I I #
loop $-1 $-1 $259 $65 #
coedge $-1 $167 $167 $168 $260 reversed $103 $-1 #
coedge $-1 $168 $168 $167 $260 forward $105 $-1 #
coedge $-1 $169 $169 $106 $170 forward $164 $-1 #
edge $-1 $261 -1.980312626414467e-015 $261 6.2831853071795987 $169 $262 forward 7 unknown #
face $-1 $263 $264 $36 $-1 $265 reversed single #
loop $-1 $-1 $177 $107 #
plane-surface $-1 0 0 12.716753165028866 0 0 1 1 0 0 forward_v I I I I #
coedge $-1 $266 $267 $268 $269 reversed $108 $-1 #
coedge $-1 $176 $110 $270 $271 reversed $69 $-1 #
coedge $-1 $110 $175 $266 $272 reversed $69 $-1 #
coedge $-1 $268 $273 $110 $178 forward $172 $-1 #
edge $-1 $274 9.0409452703627196 $275 13.077747595081675 $177 $276 forward 7 unknown #
loop $-1 $-1 $184 $111 #
plane-surface $-1 53.77106858750237 -6.8531852629976555 70.318607110078744 0 0.80901700255871778 0.5877852410284794 1 0 0 forward_v I I I I #
loop $-1 $-1 $277 $71 #
coedge $-1 $182 $182 $183 $278 reversed $112 $-1 #
coedge $-1 $183 $183 $182 $278 forward $114 $-1 #
coedge $-1 $184 $184 $115 $185 forward $179 $-1 #
edge $-1 $279 -1.30225956062532e-015 $279 6.2831853071795996 $184 $280 forward 7 unknown #
loop $-1 $-1 $191 $116 #
plane-surface $-1 53.77106858750237 -6.8531852629976555 70.318607110078744 0 0.80901700255871778 0.5877852410284794 1 0 0 forward_v I I I I #
loop $-1 $-1 $281 $74 #
coedge $-1 $189 $189 $190 $282 reversed $117 $-1 #
coedge $-1 $190 $190 $189 $282 forward $119 $-1 #
coedge $-1 $191 $191 $120 $192 forward $186 $-1 #
edge $-1 $283 -1.30225956062532e-015 $283 6.2831853071795996 $191 $284 forward 7 unknown #
loop $-1 $-1 $198 $121 #
plane-surface $-1 53.77106858750237 -6.8531852629976555 70.318607110078744 0 0.80901700255871778 0.5877852410284794 1 0 0 forward_v I I I I #
loop $-1 $-1 $285 $77 #
coedge $-1 $196 $196 $197 $286 reversed $122 $-1 #
coedge $-1 $197 $197 $196 $286 forward $124 $-1 #
coedge $-1 $198 $198 $125 $199 forward $193 $-1 #
edge $-1 $287 -1.30225956062532e-015 $287 6.2831853071795996 $198 $288 forward 7 unknown #
face $-1 $289 $290 $30 $-1 $291 reversed single #
loop $-1 $-1 $292 $126 #
plane-surface $-1 -63.659169286172059 0 0 1 0 0 0 0 -1 forward_v I I I I #
coedge $-1 $293 $211 $294 $295 forward $127 $-1 #
coedge $-1 $296 $129 $293 $297 forward $81 $-1 #
coedge $-1 $129 $296 $298 $299 forward $81 $-1 #
coedge $-1 $214 $213 $129 $207 reversed $215 $-1 #
edge $-1 $300 -39.033812419415355 $301 39.033812419415355 $206 $302 forward 7 unknown #
coedge $-1 $131 $130 $303 $304 forward $51 $-1 #
coedge $-1 $305 $306 $130 $210 reversed $290 $-1 #
edge $-1 $217 -63.659169286172059 $307 63.659169286172059 $209 $308 forward 7 unknown #
coedge $-1 $203 $309 $131 $212 reversed $127 $-1 #
edge $-1 $310 -63.659169286172059 $216 63.659169286172059 $211 $311 forward 7 unknown #
coedge $-1 $206 $132 $309 $312 forward $215 $-1 #
coedge $-1 $132 $206 $305 $313 reversed $215 $-1 #
loop $-1 $-1 $213 $289 #
vertex $-1 $133 $314 #
vertex $-1 $133 $315 #
straight-curve $-1 63.659169286172059 0 12.716753165028866 0 1 0 I I #
face $-1 $316 $317 $31 $-1 $318 forward single #
loop $-1 $-1 $319 $134 #
plane-surface $-1 -63.659169286172059 0 0 1 0 0 0 0 -1 forward_v I I I I #
coedge $-1 $229 $320 $231 $321 forward $135 $-1 #
coedge $-1 $137 $231 $322 $323 reversed $85 $-1 #
coedge $-1 $324 $227 $137 $225 forward $325 $-1 #
edge $-1 $233 2.8030453069270695 $326 7.5434870077102207 $224 $327 forward 7 unknown #
coedge $-1 $139 $138 $319 $328 reversed $54 $-1 #
coedge $-1 $224 $329 $138 $228 forward $325 $-1 #
edge $-1 $330 -34.841961360339134 $233 -22.792454491326716 $227 $331 forward 7 unknown #
coedge $-1 $332 $222 $139 $230 forward $135 $-1 #
edge $-1 $232 22.792454491326716 $333 34.841961360339134 $229 $334 forward 7 unknown #
coedge $-1 $223 $140 $222 $321 reversed $85 $-1 #
vertex $-1 $230 $335 #
vertex $-1 $228 $336 #
straight-curve $-1 -51.60966241715964 0 7.9763114642457147 0 -1 0 I I #
face $-1 $-1 $247 $32 $-1 $337 forward single #
loop $-1 $-1 $338 $142 #
plane-surface $-1 0 -39.033812419415355 0 0 1 0 0 0 1 forward_v I I I I #
coedge $-1 $339 $340 $341 $342 reversed $143 $-1 #
coedge $-1 $343 $145 $147 $245 forward $89 $-1 #
coedge $-1 $145 $343 $339 $344 forward $89 $-1 #
coedge $-1 $341 $148 $145 $242 forward $247 $-1 #
edge $-1 $249 -28.779536341903686 $345 5.1355391782431283 $241 $346 forward 7 unknown #
coedge $-1 $347 $348 $146 $244 forward $236 $-1 #
edge $-1 $349 -37.578794997759523 $248 -33.23279619969847 $243 $350 forward 7 unknown #
edge $-1 $249 -5.7585048132665682 $349 2.1388861263899031e-014 $147 $351 forward 7 unknown #
coedge $-1 $148 $341 $347 $352 forward $247 $-1 #
loop $-1 $-1 $341 $235 #
vertex $-1 $244 $353 #
vertex $-1 $149 $354 #
straight-curve $-1 40.601534923733965 -67.561091666648906 12.716753165028862 0 1 0 I I #
coedge $-1 $251 $251 $-1 $355 reversed $152 $-1 #
edge $-1 $356 0 $356 6.2831853071796004 $153 $357 forward 7 unknown #
vertex $-1 $156 $358 #
ellipse-curve $-1 13.469474507616511 -37.144852908754366 10.543753765998343 0 -0.75470958851134928 0.65605901945558964 1 0 0 1 I I #
coedge $-1 $255 $255 $-1 $359 reversed $159 $-1 #
edge $-1 $360 0 $360 6.2831853071796004 $160 $361 forward 7 unknown #
vertex $-1 $163 $362 #
ellipse-curve $-1 23.643997163660558 -37.144852908754366 10.543753765998343 0 -0.75470958851134928 0.65605901945558964 1 0 0 1 I I #
coedge $-1 $259 $259 $-1 $363 reversed $166 $-1 #
edge $-1 $364 0 $364 6.2831853071796004 $167 $365 forward 7 unknown #
vertex $-1 $170 $366 #
ellipse-curve $-1 33.818519819704605 -37.144852908754366 10.543753765998343 0 -0.75470958851134928 0.65605901945558964 1 0 0 1 I I #
face $-1 $-1 $367 $36 $-1 $368 reversed single #
loop $-1 $-1 $369 $171 #
plane-surface $-1 63.659169286172059 0 0 -1 0 0 0 0 1 forward_v I I I I #
coedge $-1 $370 $174 $176 $272 forward $108 $-1 #
coedge $-1 $174 $370 $369 $371 reversed $108 $-1 #
coedge $-1 $372 $177 $174 $269 forward $172 $-1 #
edge $-1 $275 16.997433595081489 $373 36.773634992420881 $268 $374 forward 7 unknown #
coedge $-1 $375 $376 $175 $271 forward $367 $-1 #
edge $-1 $377 -65.416652451495366 $274 -59.860470552555924 $270 $378 forward 7 unknown #
edge $-1 $275 71.199806385860455 $377 78.06762483883071 $176 $379 forward 7 unknown #
coedge $-1 $177 $372 $375 $380 forward $172 $-1 #
vertex $-1 $271 $381 #
vertex $-1 $178 $382 #
straight-curve $-1 43.882967888832674 48.074757689778075 12.716753165028862 0 -1 0 I I #
coedge $-1 $277 $277 $-1 $383 reversed $181 $-1 #
edge $-1 $384 0 $384 6.2831853071796004 $182 $385 forward 7 unknown #
vertex $-1 $185 $386 #
ellipse-curve $-1 47.83820816830054 37.015411257055874 9.9386622155591482 0 0.80901700255871778 0.5877852410284794 1 0 0 1 I I #
coedge $-1 $281 $281 $-1 $387 reversed $188 $-1 #
edge $-1 $388 0 $388 6.2831853071796004 $189 $389 forward 7 unknown #
vertex $-1 $192 $390 #
ellipse-curve $-1 53.771068587502356 37.015411257055874 9.9386622155591482 0 0.80901700255871778 0.5877852410284794 1 0 0 1 I I #
coedge $-1 $285 $285 $-1 $391 reversed $195 $-1 #
edge $-1 $392 0 $392 6.2831853071796004 $196 $393 forward 7 unknown #
vertex $-1 $199 $394 #
ellipse-curve $-1 59.703929006704172 37.015411257055874 9.9386622155591482 0 0.80901700255871778 0.5877852410284794 1 0 0 1 I I #
face $-1 $-1 $215 $30 $-1 $395 reversed single #
loop $-1 $-1 $305 $200 #
plane-surface $-1 0 39.033812419415355 0 0 -1 0 0 0 -1 forward_v I I I I #
coedge $-1 $396 $303 $306 $397 forward $201 $-1 #
coedge $-1 $309 $203 $204 $297 reversed $127 $-1 #
coedge $-1 $303 $396 $203 $295 reversed $201 $-1 #
edge $-1 $310 -12.716753165028866 $398 12.716753165028866 $294 $399 forward 7 unknown #
coedge $-1 $205 $204 $396 $400 forward $81 $-1 #
edge $-1 $301 -63.659169286172059 $398 63.659169286172059 $293 $401 forward 7 unknown #
coedge $-1 $306 $305 $205 $299 reversed $290 $-1 #
edge $-1 $402 -63.659169286172059 $300 63.659169286172059 $298 $403 forward 7 unknown #
vertex $-1 $207 $404 #
vertex $-1 $312 $405 #
straight-curve $-1 63.659169286172059 0 -12.716753165028866 0 -1 0 I I #
coedge $-1 $292 $294 $208 $304 reversed $201 $-1 #
edge $-1 $307 -39.033812419415355 $310 39.033812419415355 $303 $406 forward 7 unknown #
coedge $-1 $298 $209 $214 $313 forward $290 $-1 #
coedge $-1 $209 $298 $292 $397 reversed $290 $-1 #
vertex $-1 $210 $407 #
straight-curve $-1 0 39.033812419415355 12.716753165028866 -1 0 0 I I #
coedge $-1 $211 $293 $213 $312 reversed $127 $-1 #
vertex $-1 $304 $408 #
straight-curve $-1 0 -39.033812419415355 12.716753165028866 1 0 0 I I #
edge $-1 $216 -12.716753165028866 $301 12.716753165028866 $213 $409 forward 7 unknown #
edge $-1 $217 -12.716753165028866 $300 12.716753165028866 $214 $410 forward 7 unknown #
point $-1 63.659169286172059 -39.033812419415355 12.716753165028866 #
point $-1 63.659169286172059 39.033812419415355 12.716753165028866 #
face $-1 $-1 $325 $31 $-1 $411 reversed single #
loop $-1 $-1 $322 $219 #
plane-surface $-1 0 0 12.716753165028866 0 0 1 1 0 0 forward_v I I I I #
coedge $-1 $412 $413 $226 $328 forward $220 $-1 #
coedge $-1 $222 $332 $414 $415 reversed $135 $-1 #
edge $-1 $416 -7.5434870077102207 $232 -2.8030453069270695 $222 $417 forward 7 unknown #
coedge $-1 $414 $418 $223 $323 forward $317 $-1 #
edge $-1 $326 -39.033812419415355 $416 39.033812419415355 $322 $419 forward 7 unknown #
coedge $-1 $329 $224 $418 $420 reversed $325 $-1 #
loop $-1 $-1 $224 $316 #
vertex $-1 $225 $421 #
straight-curve $-1 -51.60966241715964 -39.033812419415355 5.1732661573186451 0 0 1 I I #
edge $-1 $333 -39.033812419415355 $330 39.033812419415355 $319 $422 forward 7 unknown #
coedge $-1 $227 $324 $412 $423 forward $325 $-1 #
vertex $-1 $328 $424 #
straight-curve $-1 -28.817207925832925 -39.033812419415355 7.9763114642457147 1 0 0 I I #
coedge $-1 $320 $229 $413 $425 reversed $135 $-1 #
vertex $-1 $328 $426 #
straight-curve $-1 -28.817207925832925 39.033812419415355 7.9763114642457147 -1 0 0 I I #
point $-1 -51.60966241715964 39.033812419415355 7.9763114642457147 #
point $-1 -51.60966241715964 -39.033812419415355 7.9763114642457147 #
plane-surface $-1 0 0 12.716753165028866 0 0 1 1 0 0 forward_v I I I I #
coedge $-1 $348 $347 $340 $427 forward $236 $-1 #
coedge $-1 $340 $238 $240 $344 reversed $143 $-1 #
coedge $-1 $238 $339 $338 $427 reversed $143 $-1 #
coedge $-1 $246 $241 $238 $342 forward $247 $-1 #
edge $-1 $345 -32.305198268555522 $428 -28.527279247233551 $341 $429 forward 7 unknown #
coedge $-1 $240 $239 $348 $430 reversed $89 $-1 #
edge $-1 $431 -2.1388861263899031e-014 $345 5.7585048132665682 $339 $432 forward 7 unknown #
vertex $-1 $242 $433 #
straight-curve $-1 11.821998581830279 -35.255893398093384 12.716753165028866 -1 0 0 I I #
coedge $-1 $338 $243 $246 $352 reversed $236 $-1 #
coedge $-1 $243 $338 $343 $430 forward $236 $-1 #
vertex $-1 $244 $434 #
straight-curve $-1 40.601534923733965 -39.033812419415355 45.949549364727339 0 0 1 I I #
straight-curve $-1 40.601534923733965 -39.033812419415341 8.3707543669678302 0 -0.65605901945558964 -0.75470958851134928 I I #
edge $-1 $428 6.6864594035871505 $248 40.601534923733965 $347 $435 forward 7 unknown #
point $-1 40.601534923733965 -39.033812419415355 12.716753165028866 #
point $-1 40.601534923733965 -35.255893398093384 12.716753165028866 #
edge $-1 $436 1 $436 0 $251 $-1 forward 7 unknown #
vertex $-1 $252 $437 #
ellipse-curve $-1 13.469474507616511 -34.257715028573166 8.0340031605490179 0 -0.75470958851134928 0.65605901945558964 1 0 0 1 I I #
point $-1 14.469474507616511 -37.144852908754373 10.543753765998346 #
edge $-1 $438 1 $438 0 $255 $-1 forward 7 unknown #
vertex $-1 $256 $439 #
ellipse-curve $-1 23.643997163660558 -34.257715028573166 8.0340031605490179 0 -0.75470958851134928 0.65605901945558964 1 0 0 1 I I #
point $-1 24.643997163660558 -37.144852908754373 10.543753765998346 #
edge $-1 $440 1 $440 0 $259 $-1 forward 7 unknown #
vertex $-1 $260 $441 #
ellipse-curve $-1 33.818519819704605 -34.257715028573166 8.0340031605490179 0 -0.75470958851134928 0.65605901945558964 1 0 0 1 I I #
point $-1 34.818519819704605 -37.144852908754373 10.543753765998346 #
loop $-1 $-1 $270 $263 #
plane-surface $-1 0 39.033812419415355 0 0 -1 0 0 0 -1 forward_v I I I I #
coedge $-1 $442 $443 $267 $371 forward $264 $-1 #
coedge $-1 $267 $266 $376 $444 reversed $108 $-1 #
edge $-1 $373 40.741231435898477 $445 47.609049888868739 $369 $446 forward 7 unknown #
coedge $-1 $273 $268 $443 $447 forward $172 $-1 #
vertex $-1 $447 $448 #
straight-curve $-1 26.885534293751185 34.997010094696407 12.716753165028862 1 0 0 I I #
coedge $-1 $449 $270 $273 $380 reversed $367 $-1 #
coedge $-1 $270 $449 $370 $444 forward $367 $-1 #
vertex $-1 $271 $450 #
straight-curve $-1 43.882967888832674 39.033812419415355 72.577223717584786 0 0 1 I I #
straight-curve $-1 43.882967888832674 -6.8531852629976555 70.318607110078744 0 0.5877852410284794 -0.80901700255871778 I I #
edge $-1 $451 -63.659169286172059 $274 -43.882967888832674 $375 $452 forward 7 unknown #
point $-1 43.882967888832674 39.033812419415355 12.716753165028866 #
point $-1 43.882967888832674 34.9970100946964 12.716753165028869 #
edge $-1 $453 1 $453 0 $277 $-1 forward 7 unknown #
vertex $-1 $278 $454 #
ellipse-curve $-1 47.83820816830054 34.428936964198847 8.0594786992268173 0 0.80901700255871778 0.5877852410284794 1 0 0 1 I I #
point $-1 48.83820816830054 37.015411257055867 9.9386622155591446 #
edge $-1 $455 1 $455 0 $281 $-1 forward 7 unknown #
vertex $-1 $282 $456 #
ellipse-curve $-1 53.771068587502356 34.428936964198847 8.0594786992268173 0 0.80901700255871778 0.5877852410284794 1 0 0 1 I I #
point $-1 54.771068587502356 37.015411257055867 9.9386622155591446 #
edge $-1 $457 1 $457 0 $285 $-1 forward 7 unknown #
vertex $-1 $286 $458 #
ellipse-curve $-1 59.703929006704172 34.428936964198847 8.0594786992268173 0 0.80901700255871778 0.5877852410284794 1 0 0 1 I I #
point $-1 60.703929006704172 37.015411257055867 9.9386622155591446 #
plane-surface $-1 63.659169286172059 0 0 -1 0 0 0 0 1 forward_v I I I I #
coedge $-1 $294 $292 $296 $400 reversed $201 $-1 #
edge $-1 $307 -12.716753165028866 $402 12.716753165028866 $306 $459 forward 7 unknown #
vertex $-1 $400 $460 #
straight-curve $-1 -63.659169286172059 -39.033812419415355 0 0 0 -1 I I #
edge $-1 $398 -39.033812419415355 $402 39.033812419415355 $396 $461 forward 7 unknown #
straight-curve $-1 0 -39.033812419415355 -12.716753165028866 -1 0 0 I I #
vertex $-1 $299 $462 #
straight-curve $-1 0 39.033812419415355 -12.716753165028866 1 0 0 I I #
point $-1 63.659169286172059 39.033812419415355 -12.716753165028866 #
point $-1 63.659169286172059 -39.033812419415355 -12.716753165028866 #
straight-curve $-1 -63.659169286172059 0 12.716753165028866 0 -1 0 I I #
point $-1 -63.659169286172059 39.033812419415355 12.716753165028866 #
point $-1 -63.659169286172059 -39.033812419415355 12.716753165028866 #
straight-curve $-1 63.659169286172059 -39.033812419415355 0 0 0 -1 I I #
straight-curve $-1 63.659169286172059 39.033812419415355 0 0 0 -1 I I #
plane-surface $-1 0 -39.033812419415355 0 0 1 0 0 0 1 forward_v I I I I #
coedge $-1 $463 $319 $329 $423 reversed $220 $-1 #
coedge $-1 $319 $463 $332 $425 forward $220 $-1 #
coedge $-1 $464 $322 $320 $415 forward $317 $-1 #
edge $-1 $416 51.60966241715964 $465 63.659169286172059 $320 $466 forward 7 unknown #
vertex $-1 $415 $467 #
straight-curve $-1 -51.60966241715964 39.033812419415355 5.1732661573186451 0 0 -1 I I #
coedge $-1 $322 $464 $324 $420 forward $317 $-1 #
straight-curve $-1 -51.60966241715964 0 12.716753165028866 0 1 0 I I #
edge $-1 $468 -63.659169286172059 $326 -51.60966241715964 $324 $469 forward 7 unknown #
point $-1 -51.60966241715964 -39.033812419415355 12.716753165028866 #
straight-curve $-1 -63.659169286172059 0 7.9763114642457147 0 -1 0 I I #
edge $-1 $468 -12.716753165028866 $330 -7.9763114642457147 $412 $470 forward 7 unknown #
point $-1 -63.659169286172059 -39.033812419415355 7.9763114642457147 #
edge $-1 $465 -12.716753165028866 $333 -7.9763114642457147 $332 $471 forward 7 unknown #
point $-1 -63.659169286172059 39.033812419415355 7.9763114642457147 #
edge $-1 $428 33.23279619969847 $431 37.578794997759523 $338 $472 forward 7 unknown #
vertex $-1 $352 $473 #
straight-curve $-1 6.6864594035871505 -67.561091666648906 12.716753165028862 0 -1 0 I I #
edge $-1 $431 -5.1355391782431283 $349 28.779536341903686 $348 $474 forward 7 unknown #
vertex $-1 $430 $475 #
straight-curve $-1 6.6864594035871505 -39.033812419415341 8.3707543669678302 0 0.65605901945558964 0.75470958851134928 I I #
point $-1 6.6864594035871505 -35.255893398093384 12.716753165028866 #
point $-1 40.601534923733965 -39.033812419415355 8.3707543669678142 #
straight-curve $-1 0 -39.033812419415355 12.716753165028866 1 0 0 I I #
vertex $-1 $355 $476 #
point $-1 14.469474507616511 -34.257715028573166 8.0340031605490179 #
vertex $-1 $359 $477 #
point $-1 24.643997163660558 -34.257715028573166 8.0340031605490179 #
vertex $-1 $363 $478 #
point $-1 34.818519819704605 -34.257715028573166 8.0340031605490179 #
coedge $-1 $443 $369 $449 $479 reversed $264 $-1 #
coedge $-1 $369 $442 $372 $447 reversed $264 $-1 #
edge $-1 $445 -36.773634992420881 $377 -16.997433595081489 $376 $480 forward 7 unknown #
vertex $-1 $371 $481 #
straight-curve $-1 63.659169286172059 11.049915555349747 45.677102101850458 0 0.5877852410284794 -0.80901700255871778 I I #
edge $-1 $373 34.9970100946964 $451 39.033812419415355 $443 $482 forward 7 unknown #
point $-1 63.659169286172066 34.9970100946964 12.716753165028869 #
coedge $-1 $376 $375 $442 $479 forward $367 $-1 #
point $-1 43.882967888832674 39.033812419415362 7.1605712660894199 #
vertex $-1 $447 $483 #
straight-curve $-1 0 39.033812419415355 12.716753165028866 -1 0 0 I I #
vertex $-1 $383 $484 #
point $-1 48.83820816830054 34.428936964198847 8.0594786992268173 #
vertex $-1 $387 $485 #
point $-1 54.771068587502356 34.428936964198847 8.0594786992268173 #
vertex $-1 $391 $486 #
point $-1 60.703929006704172 34.428936964198847 8.0594786992268173 #
straight-curve $-1 -63.659169286172059 39.033812419415355 0 0 0 -1 I I #
point $-1 -63.659169286172059 -39.033812419415355 -12.716753165028866 #
straight-curve $-1 -63.659169286172059 0 -12.716753165028866 0 1 0 I I #
point $-1 -63.659169286172059 39.033812419415355 -12.716753165028866 #
coedge $-1 $413 $412 $464 $487 reversed $220 $-1 #
coedge $-1 $418 $414 $463 $487 forward $317 $-1 #
vertex $-1 $415 $488 #
straight-curve $-1 0 39.033812419415355 12.716753165028866 -1 0 0 I I #
point $-1 -51.60966241715964 39.033812419415355 12.716753165028866 #
vertex $-1 $487 $489 #
straight-curve $-1 0 -39.033812419415355 12.716753165028866 1 0 0 I I #
straight-curve $-1 -63.659169286172059 -39.033812419415355 0 0 0 -1 I I #
straight-curve $-1 -63.659169286172059 39.033812419415355 0 0 0 -1 I I #
straight-curve $-1 6.6864594035871505 -39.033812419415355 45.949549364727339 0 0 -1 I I #
point $-1 6.6864594035871505 -39.033812419415355 12.716753165028866 #
straight-curve $-1 11.821998581830279 -39.033812419415355 8.3707543669678159 1 0 0 I I #
point $-1 6.6864594035871505 -39.033812419415355 8.3707543669678142 #
point $-1 13.469474507616511 -33.50300544006182 7.3779441410934314 #
point $-1 23.643997163660558 -33.50300544006182 7.3779441410934314 #
point $-1 33.818519819704605 -33.50300544006182 7.3779441410934314 #
edge $-1 $451 -12.716753165028866 $445 -7.1605712660894199 $442 $490 forward 7 unknown #
straight-curve $-1 26.885534293751185 39.033812419415355 7.1605712660894199 -1 0 0 I I #
point $-1 63.659169286172066 39.033812419415362 7.1605712660894199 #
straight-curve $-1 63.659169286172059 0 12.716753165028866 0 1 0 I I #
point $-1 63.659169286172059 39.033812419415355 12.716753165028866 #
point $-1 47.83820816830054 33.619919961640129 7.4716934581983363 #
point $-1 53.771068587502356 33.619919961640129 7.4716934581983363 #
point $-1 59.703929006704172 33.619919961640129 7.4716934581983363 #
edge $-1 $465 -39.033812419415355 $468 39.033812419415355 $463 $491 forward 7 unknown #
point $-1 -63.659169286172059 39.033812419415355 12.716753165028866 #
point $-1 -63.659169286172059 -39.033812419415355 12.716753165028866 #
straight-curve $-1 63.659169286172059 39.033812419415355 0 0 0 -1 I I #
straight-curve $-1 -63.659169286172059 0 12.716753165028866 0 -1 0 I I #
End-of-ACIS-data 