500 0 4 0           
7 Unknown 11 ACIS 5.0 NT 24 Fri Mar 26 16:32:56 1999 
-1 9.9999999999999995e-007 1e-010 
body $-1 $4 $-1 $5 #
body $-1 $6 $-1 $7 #
body $-1 $8 $-1 $9 #
body $-1 $10 $-1 $11 #
lump $-1 $-1 $12 $0 #
transform $-1 1 0 0 0 1 0 0 0 1 70.561235389263587 38.079637860010514 7.7707237926800232 1 rotate no_reflect no_shear #
lump $-1 $-1 $13 $1 #
transform $-1 1 0 0 0 1 0 0 0 1 70.561235389263587 38.079637860010514 7.7707237926800232 1 rotate no_reflect no_shear #
lump $-1 $-1 $14 $2 #
transform $-1 1 0 0 0 1 0 0 0 1 70.561235389263587 38.079637860010514 7.7707237926800232 1 rotate no_reflect no_shear #
lump $-1 $-1 $15 $3 #
transform $-1 1 0 0 0 1 0 0 0 1 70.561235389263587 38.079637860010514 7.7707237926800232 1 rotate no_reflect no_shear #
shell $-1 $-1 $-1 $16 $-1 $4 #
shell $-1 $-1 $-1 $17 $-1 $6 #
shell $-1 $-1 $-1 $18 $-1 $8 #
shell $-1 $-1 $-1 $19 $-1 $10 #
face $-1 $20 $21 $12 $-1 $22 forward single #
face $-1 $23 $24 $13 $-1 $25 forward single #
face $-1 $26 $27 $14 $-1 $28 reversed single #
face $-1 $29 $30 $15 $-1 $31 forward single #
face $-1 $32 $33 $12 $-1 $34 reversed single #
loop $-1 $-1 $35 $16 #
plane-surface $-1 0 0 7.7707237926800232 0 0 1 1 0 0 forward_v I I I I #
face $-1 $36 $37 $13 $-1 $38 reversed single #
loop $-1 $-1 $39 $17 #
plane-surface $-1 0 -38.079637860010514 0 0 1 0 0 0 1 forward_v I I I I #
face $-1 $40 $41 $14 $-1 $42 reversed single #
loop $-1 $-1 $43 $18 #
plane-surface $-1 21.973907699878936 104.95126000041569 149.22513712408258 1 0 0 0 -0.79863551827123203 -0.60181501223851219 forward_v I I I I #
face $-1 $44 $45 $15 $-1 $46 forward single #
loop $-1 $47 $48 $19 #
cone-surface $-1 35.441635055083665 35.688523007046271 5.0400320332047546 0 -0.79863551827123203 -0.60181501223851219 1 0 0 1 I I 0 1 1 forward I I I I #
face $-1 $49 $50 $12 $-1 $51 reversed single #
loop $-1 $-1 $52 $20 #
plane-surface $-1 0 0 -7.7707237926800232 0 0 1 1 0 0 forward_v I I I I #
coedge $-1 $53 $54 $55 $56 forward $21 $-1 #
face $-1 $57 $58 $13 $-1 $59 forward single #
loop $-1 $-1 $60 $23 #
plane-surface $-1 -70.561235389263587 0 0 1 0 0 0 0 -1 forward_v I I I I #
coedge $-1 $61 $62 $63 $64 forward $24 $-1 #
face $-1 $65 $66 $14 $-1 $67 reversed single #
loop $-1 $-1 $68 $26 #
plane-surface $-1 35.441635055083665 -7.7541575895101573 64.295515645374167 0 0.79863551827123203 0.60181501223851219 1 0 0 forward_v I I I I #
coedge $-1 $69 $70 $71 $72 reversed $27 $-1 #
face $-1 $-1 $73 $15 $-1 $74 forward single #
loop $-1 $75 $76 $29 #
cone-surface $-1 35.441635055083665 34.517745809319358 4.1577881591734709 0 -0.79863551827123203 -0.60181501223851219 0.5 0 0 1 I I -0.70710678118654746 0.70710678118654746 0.5 forward I I I I #
loop $-1 $-1 $77 $19 #
coedge $-1 $48 $48 $78 $79 reversed $30 $-1 #
face $-1 $80 $81 $12 $-1 $82 reversed single #
loop $-1 $-1 $83 $32 #
plane-surface $-1 0 -38.079637860010514 0 0 1 0 0 0 1 forward_v I I I I #
coedge $-1 $84 $85 $86 $87 forward $33 $-1 #
coedge $-1 $88 $35 $89 $90 forward $21 $-1 #
coedge $-1 $35 $88 $91 $92 forward $21 $-1 #
coedge $-1 $93 $94 $35 $56 reversed $95 $-1 #
edge $-1 $96 -38.079637860010514 $97 38.079637860010514 $55 $98 forward 7 unknown #
face $-1 $99 $100 $13 $-1 $101 reversed single #
loop $-1 $-1 $102 $36 #
plane-surface $-1 0 -42.938397514559846 -1.7259770797817049 0 0 1 1 0 0 forward_v I I I I #
coedge $-1 $103 $104 $62 $105 forward $37 $-1 #
coedge $-1 $106 $39 $107 $108 reversed $24 $-1 #
coedge $-1 $39 $106 $60 $105 reversed $24 $-1 #
coedge $-1 $109 $102 $39 $64 reversed $58 $-1 #
edge $-1 $110 -70.561235389263587 $111 70.561235389263587 $63 $112 forward 7 unknown #
face $-1 $113 $114 $14 $-1 $115 forward single #
loop $-1 $-1 $116 $40 #
plane-surface $-1 48.909362410288395 104.95126000041569 149.22513712408258 -1 0 0 0 0.79863551827123203 0.60181501223851219 forward_v I I I I #
coedge $-1 $117 $118 $119 $120 reversed $41 $-1 #
coedge $-1 $70 $43 $121 $122 reversed $27 $-1 #
coedge $-1 $43 $69 $117 $123 reversed $27 $-1 #
coedge $-1 $119 $124 $43 $72 forward $114 $-1 #
edge $-1 $125 14.395992140197329 $126 17.635302968943229 $71 $127 forward 7 unknown #
loop $-1 $-1 $78 $44 #
plane-surface $-1 35.441635055083665 -7.7541575895101573 64.295515645374167 0 0.79863551827123203 0.60181501223851219 1 0 0 forward_v I I I I #
loop $-1 $-1 $128 $29 #
coedge $-1 $76 $76 $77 $129 reversed $45 $-1 #
coedge $-1 $77 $77 $76 $129 forward $47 $-1 #
coedge $-1 $78 $78 $48 $79 forward $73 $-1 #
edge $-1 $130 1.4388295220363729e-015 $130 6.2831853071796022 $78 $131 forward 7 unknown #
face $-1 $132 $133 $12 $-1 $134 reversed single #
loop $-1 $-1 $135 $49 #
plane-surface $-1 -70.561235389263587 0 0 1 0 0 0 0 -1 forward_v I I I I #
coedge $-1 $136 $91 $137 $138 forward $50 $-1 #
coedge $-1 $139 $52 $136 $140 forward $33 $-1 #
coedge $-1 $52 $139 $141 $142 forward $33 $-1 #
coedge $-1 $94 $93 $52 $87 reversed $95 $-1 #
edge $-1 $143 -38.079637860010514 $144 38.079637860010514 $86 $145 forward 7 unknown #
coedge $-1 $54 $53 $146 $147 forward $21 $-1 #
coedge $-1 $148 $149 $53 $90 reversed $133 $-1 #
edge $-1 $97 -70.561235389263587 $150 70.561235389263587 $89 $151 forward 7 unknown #
coedge $-1 $83 $152 $54 $92 reversed $50 $-1 #
edge $-1 $153 -70.561235389263587 $96 70.561235389263587 $91 $154 forward 7 unknown #
coedge $-1 $86 $55 $152 $155 forward $95 $-1 #
coedge $-1 $55 $86 $148 $156 reversed $95 $-1 #
loop $-1 $-1 $93 $132 #
vertex $-1 $56 $157 #
vertex $-1 $56 $158 #
straight-curve $-1 70.561235389263587 0 7.7707237926800232 0 1 0 I I #
face $-1 $159 $160 $13 $-1 $161 reversed single #
loop $-1 $-1 $162 $57 #
plane-surface $-1 0 -42.938397514559846 -4.7259770797817051 0 0 1 1 0 0 forward_v I I I I #
coedge $-1 $63 $163 $164 $165 forward $58 $-1 #
coedge $-1 $166 $60 $167 $168 reversed $37 $-1 #
coedge $-1 $60 $166 $109 $169 reversed $37 $-1 #
edge $-1 $110 1.7259770797817049 $170 4.7259770797817051 $60 $171 forward 7 unknown #
coedge $-1 $62 $61 $172 $173 forward $24 $-1 #
coedge $-1 $164 $174 $61 $108 forward $175 $-1 #
edge $-1 $176 -4.7259770797817051 $111 -1.7259770797817049 $107 $177 forward 7 unknown #
coedge $-1 $163 $63 $104 $169 forward $58 $-1 #
vertex $-1 $105 $178 #
vertex $-1 $165 $179 #
straight-curve $-1 0 -38.079637860010514 -1.7259770797817049 1 0 0 I I #
face $-1 $-1 $180 $14 $-1 $181 reversed single #
loop $-1 $-1 $71 $65 #
plane-surface $-1 0 0 7.7707237926800232 0 0 1 1 0 0 forward_v I I I I #
coedge $-1 $182 $183 $184 $185 reversed $66 $-1 #
coedge $-1 $186 $68 $70 $123 forward $41 $-1 #
coedge $-1 $68 $186 $182 $187 forward $41 $-1 #
coedge $-1 $184 $71 $68 $120 forward $114 $-1 #
edge $-1 $126 4.2530901723371031 $188 31.188544882746562 $119 $189 forward 7 unknown #
coedge $-1 $190 $191 $69 $122 forward $180 $-1 #
edge $-1 $192 -71.140555552487768 $125 -66.841844769361273 $121 $193 forward 7 unknown #
edge $-1 $126 70.776706719794589 $192 76.159275720021014 $70 $194 forward 7 unknown #
coedge $-1 $71 $184 $190 $195 forward $114 $-1 #
vertex $-1 $122 $196 #
vertex $-1 $72 $197 #
straight-curve $-1 21.973907699878936 52.475630000207843 7.7707237926800161 0 -1 0 I I #
coedge $-1 $128 $128 $-1 $198 reversed $75 $-1 #
edge $-1 $199 0 $199 6.2831853071796004 $76 $200 forward 7 unknown #
vertex $-1 $79 $201 #
ellipse-curve $-1 35.441635055083665 36.459982445637564 5.6213684011167775 0 0.79863551827123203 0.60181501223851219 1 0 0 1 I I #
face $-1 $-1 $95 $12 $-1 $202 reversed single #
loop $-1 $-1 $148 $80 #
plane-surface $-1 0 38.079637860010514 0 0 -1 0 0 0 -1 forward_v I I I I #
coedge $-1 $203 $146 $149 $204 forward $81 $-1 #
coedge $-1 $152 $83 $84 $140 reversed $50 $-1 #
coedge $-1 $146 $203 $83 $138 reversed $81 $-1 #
edge $-1 $153 -7.7707237926800232 $205 7.7707237926800232 $137 $206 forward 7 unknown #
coedge $-1 $85 $84 $203 $207 forward $33 $-1 #
edge $-1 $144 -70.561235389263587 $205 70.561235389263587 $136 $208 forward 7 unknown #
coedge $-1 $149 $148 $85 $142 reversed $133 $-1 #
edge $-1 $209 -70.561235389263587 $143 70.561235389263587 $141 $210 forward 7 unknown #
vertex $-1 $87 $211 #
vertex $-1 $155 $212 #
straight-curve $-1 70.561235389263587 0 -7.7707237926800232 0 -1 0 I I #
coedge $-1 $135 $137 $88 $147 reversed $81 $-1 #
edge $-1 $150 -38.079637860010514 $153 38.079637860010514 $146 $213 forward 7 unknown #
coedge $-1 $141 $89 $94 $156 forward $133 $-1 #
coedge $-1 $89 $141 $135 $204 reversed $133 $-1 #
vertex $-1 $90 $214 #
straight-curve $-1 0 38.079637860010514 7.7707237926800232 -1 0 0 I I #
coedge $-1 $91 $136 $93 $155 reversed $50 $-1 #
vertex $-1 $147 $215 #
straight-curve $-1 0 -38.079637860010514 7.7707237926800232 1 0 0 I I #
edge $-1 $96 -7.7707237926800232 $144 7.7707237926800232 $93 $216 forward 7 unknown #
edge $-1 $97 -7.7707237926800232 $143 7.7707237926800232 $94 $217 forward 7 unknown #
point $-1 70.561235389263587 -38.079637860010514 7.7707237926800232 #
point $-1 70.561235389263587 38.079637860010514 7.7707237926800232 #
face $-1 $-1 $175 $13 $-1 $218 reversed single #
loop $-1 $-1 $219 $99 #
plane-surface $-1 0 -47.797157169109177 -3.2259770797817051 0 1 0 0 0 1 forward_v I I I I #
coedge $-1 $220 $172 $174 $221 forward $100 $-1 #
coedge $-1 $102 $109 $222 $223 forward $58 $-1 #
coedge $-1 $224 $107 $102 $165 reversed $175 $-1 #
edge $-1 $225 -4.8587596545493312 $111 4.8587596545493312 $164 $226 forward 7 unknown #
coedge $-1 $104 $103 $219 $227 reversed $37 $-1 #
coedge $-1 $172 $220 $103 $168 forward $100 $-1 #
edge $-1 $228 -4.8587596545493312 $170 4.8587596545493312 $103 $229 forward 7 unknown #
edge $-1 $110 -4.8587596545493312 $230 4.8587596545493312 $104 $231 forward 7 unknown #
vertex $-1 $105 $232 #
straight-curve $-1 -70.561235389263587 -38.079637860010514 0 0 0 -1 I I #
coedge $-1 $162 $167 $106 $173 reversed $100 $-1 #
edge $-1 $176 -70.561235389263587 $170 70.561235389263587 $172 $233 forward 7 unknown #
coedge $-1 $107 $224 $162 $221 reversed $175 $-1 #
loop $-1 $-1 $107 $159 #
vertex $-1 $108 $234 #
straight-curve $-1 70.561235389263587 -38.079637860010514 0 0 0 1 I I #
point $-1 -70.561235389263587 -38.079637860010514 -1.7259770797817049 #
point $-1 70.561235389263587 -38.079637860010514 -1.7259770797817049 #
loop $-1 $-1 $121 $113 #
plane-surface $-1 0 38.079637860010514 0 0 -1 0 0 0 -1 forward_v I I I I #
coedge $-1 $183 $116 $118 $187 reversed $66 $-1 #
coedge $-1 $116 $182 $235 $236 reversed $66 $-1 #
coedge $-1 $124 $119 $116 $185 forward $114 $-1 #
edge $-1 $188 -17.635302968943229 $237 -14.395992140197329 $184 $238 forward 7 unknown #
coedge $-1 $118 $117 $191 $239 reversed $41 $-1 #
edge $-1 $240 -76.159275720021014 $188 -70.776706719794589 $182 $241 forward 7 unknown #
vertex $-1 $120 $242 #
straight-curve $-1 17.720817527541833 34.840327031264607 7.7707237926800303 1 0 0 I I #
coedge $-1 $235 $121 $124 $195 reversed $180 $-1 #
coedge $-1 $121 $235 $186 $239 forward $180 $-1 #
vertex $-1 $122 $243 #
straight-curve $-1 21.973907699878936 38.079637860010514 74.61256856204129 0 0 1 I I #
straight-curve $-1 21.973907699878936 -7.7541575895101573 64.295515645374167 0 0.60181501223851219 -0.79863551827123203 I I #
edge $-1 $237 -48.909362410288395 $125 -21.973907699878936 $190 $244 forward 7 unknown #
point $-1 21.973907699878936 38.079637860010514 7.7707237926800232 #
point $-1 21.973907699878936 34.840327031264614 7.7707237926800232 #
edge $-1 $245 1 $245 0 $128 $-1 forward 7 unknown #
vertex $-1 $129 $246 #
ellipse-curve $-1 35.441635055083665 34.917063568454971 4.4586956652927272 0 0.79863551827123203 0.60181501223851219 1 0 0 1 I I #
point $-1 36.441635055083665 36.459982445637571 5.621368401116781 #
plane-surface $-1 70.561235389263587 0 0 -1 0 0 0 0 1 forward_v I I I I #
coedge $-1 $137 $135 $139 $207 reversed $81 $-1 #
edge $-1 $150 -7.7707237926800232 $209 7.7707237926800232 $149 $247 forward 7 unknown #
vertex $-1 $207 $248 #
straight-curve $-1 -70.561235389263587 -38.079637860010514 0 0 0 -1 I I #
edge $-1 $205 -38.079637860010514 $209 38.079637860010514 $203 $249 forward 7 unknown #
straight-curve $-1 0 -38.079637860010514 -7.7707237926800232 -1 0 0 I I #
vertex $-1 $142 $250 #
straight-curve $-1 0 38.079637860010514 -7.7707237926800232 1 0 0 I I #
point $-1 70.561235389263587 38.079637860010514 -7.7707237926800232 #
point $-1 70.561235389263587 -38.079637860010514 -7.7707237926800232 #
straight-curve $-1 -70.561235389263587 0 7.7707237926800232 0 -1 0 I I #
point $-1 -70.561235389263587 38.079637860010514 7.7707237926800232 #
point $-1 -70.561235389263587 -38.079637860010514 7.7707237926800232 #
straight-curve $-1 70.561235389263587 -38.079637860010514 0 0 0 -1 I I #
straight-curve $-1 70.561235389263587 38.079637860010514 0 0 0 -1 I I #
plane-surface $-1 70.561235389263587 0 0 -1 0 0 0 0 1 forward_v I I I I #
coedge $-1 $251 $222 $166 $227 forward $160 $-1 #
coedge $-1 $167 $162 $251 $252 forward $100 $-1 #
edge $-1 $176 -4.8587596545493312 $253 4.8587596545493312 $174 $254 forward 7 unknown #
coedge $-1 $219 $255 $163 $223 reversed $160 $-1 #
edge $-1 $230 -70.561235389263587 $225 70.561235389263587 $222 $256 forward 7 unknown #
coedge $-1 $174 $164 $255 $257 forward $175 $-1 #
vertex $-1 $165 $258 #
straight-curve $-1 70.561235389263587 -42.938397514559846 -1.7259770797817049 0 1 0 I I #
edge $-1 $230 -1.5000000000000002 $228 1.5 $166 $259 forward 7 unknown #
vertex $-1 $168 $260 #
straight-curve $-1 -70.561235389263587 -42.938397514559846 -4.7259770797817051 0 1 0 I I #
vertex $-1 $169 $261 #
straight-curve $-1 -70.561235389263587 -42.938397514559846 -1.7259770797817049 0 -1 0 I I #
point $-1 -70.561235389263587 -38.079637860010514 -4.7259770797817051 #
straight-curve $-1 0 -38.079637860010514 -4.7259770797817051 -1 0 0 I I #
point $-1 70.561235389263587 -38.079637860010514 -4.7259770797817051 #
coedge $-1 $191 $190 $183 $236 forward $180 $-1 #
edge $-1 $237 66.841844769361273 $240 71.140555552487768 $235 $262 forward 7 unknown #
vertex $-1 $195 $263 #
straight-curve $-1 48.909362410288395 52.475630000207843 7.7707237926800161 0 1 0 I I #
edge $-1 $240 -31.188544882746562 $192 -4.2530901723371031 $191 $264 forward 7 unknown #
vertex $-1 $239 $265 #
straight-curve $-1 48.909362410288395 -7.7541575895101573 64.295515645374167 0 -0.60181501223851219 0.79863551827123203 I I #
point $-1 48.909362410288395 34.840327031264614 7.7707237926800232 #
point $-1 21.973907699878936 38.079637860010514 3.4720130095535282 #
straight-curve $-1 0 38.079637860010514 7.7707237926800232 -1 0 0 I I #
vertex $-1 $198 $266 #
point $-1 36.441635055083665 34.917063568454971 4.4586956652927272 #
straight-curve $-1 -70.561235389263587 38.079637860010514 0 0 0 -1 I I #
point $-1 -70.561235389263587 -38.079637860010514 -7.7707237926800232 #
straight-curve $-1 -70.561235389263587 0 -7.7707237926800232 0 1 0 I I #
point $-1 -70.561235389263587 38.079637860010514 -7.7707237926800232 #
coedge $-1 $255 $219 $220 $252 reversed $160 $-1 #
edge $-1 $253 -70.561235389263587 $228 70.561235389263587 $251 $267 forward 7 unknown #
vertex $-1 $257 $268 #
straight-curve $-1 70.561235389263587 -42.938397514559846 -4.7259770797817051 0 -1 0 I I #
coedge $-1 $222 $251 $224 $257 reversed $160 $-1 #
straight-curve $-1 0 -47.797157169109177 -1.7259770797817049 1 0 0 I I #
edge $-1 $225 -1.5000000000000002 $253 1.5 $224 $269 forward 7 unknown #
point $-1 70.561235389263587 -47.797157169109177 -1.7259770797817049 #
straight-curve $-1 -70.561235389263587 -47.797157169109177 -3.2259770797817051 0 0 -1 I I #
point $-1 -70.561235389263587 -47.797157169109177 -4.7259770797817051 #
point $-1 -70.561235389263587 -47.797157169109177 -1.7259770797817049 #
straight-curve $-1 48.909362410288395 38.079637860010514 74.61256856204129 0 0 -1 I I #
point $-1 48.909362410288395 38.079637860010514 7.7707237926800232 #
straight-curve $-1 17.720817527541833 38.079637860010514 3.4720130095535282 -1 0 0 I I #
point $-1 48.909362410288395 38.079637860010514 3.4720130095535282 #
point $-1 35.441635055083665 34.118428050183745 3.8568806530542146 #
straight-curve $-1 0 -47.797157169109177 -4.7259770797817051 -1 0 0 I I #
point $-1 70.561235389263587 -47.797157169109177 -4.7259770797817051 #
straight-curve $-1 70.561235389263587 -47.797157169109177 -3.2259770797817051 0 0 -1 I I #
End-of-ACIS-data 