500 0 9 0           
7 Unknown 11 ACIS 5.0 NT 24 Thu Mar 25 23:45:27 1999 
-1 9.9999999999999995e-007 1e-010 
body $-1 $9 $-1 $10 #
body $-1 $11 $-1 $12 #
body $-1 $13 $-1 $14 #
body $-1 $15 $-1 $16 #
body $-1 $17 $-1 $18 #
body $-1 $19 $-1 $20 #
body $-1 $21 $-1 $22 #
body $-1 $23 $-1 $24 #
body $-1 $25 $-1 $26 #
lump $-1 $-1 $27 $0 #
transform $-1 1 0 0 0 1 0 0 0 1 56.104007080294195 31.750721033199603 13.674796306681397 1 rotate no_reflect no_shear #
lump $-1 $-1 $28 $1 #
transform $-1 1 0 0 0 1 0 0 0 1 56.104007080294195 31.750721033199603 13.674796306681397 1 rotate no_reflect no_shear #
lump $-1 $-1 $29 $2 #
transform $-1 1 0 0 0 1 0 0 0 1 56.104007080294195 31.750721033199603 13.674796306681397 1 rotate no_reflect no_shear #
lump $-1 $-1 $30 $3 #
transform $-1 1 0 0 0 1 0 0 0 1 56.104007080294195 31.750721033199603 13.674796306681397 1 rotate no_reflect no_shear #
lump $-1 $-1 $31 $4 #
transform $-1 1 0 0 0 1 0 0 0 1 56.104007080294195 31.750721033199603 13.674796306681397 1 rotate no_reflect no_shear #
lump $-1 $-1 $32 $5 #
transform $-1 1 0 0 0 1 0 0 0 1 56.104007080294195 31.750721033199603 13.674796306681397 1 rotate no_reflect no_shear #
lump $-1 $-1 $33 $6 #
transform $-1 1 0 0 0 1 0 0 0 1 56.104007080294195 31.750721033199603 13.674796306681397 1 rotate no_reflect no_shear #
lump $-1 $-1 $34 $7 #
transform $-1 1 0 0 0 1 0 0 0 1 56.104007080294195 31.750721033199603 13.674796306681397 1 rotate no_reflect no_shear #
lump $-1 $-1 $35 $8 #
transform $-1 1 0 0 0 1 0 0 0 1 56.104007080294195 31.750721033199603 13.674796306681397 1 rotate no_reflect no_shear #
shell $-1 $-1 $-1 $36 $-1 $9 #
shell $-1 $-1 $-1 $37 $-1 $11 #
shell $-1 $-1 $-1 $38 $-1 $13 #
shell $-1 $-1 $-1 $39 $-1 $15 #
shell $-1 $-1 $-1 $40 $-1 $17 #
shell $-1 $-1 $-1 $41 $-1 $19 #
shell $-1 $-1 $-1 $42 $-1 $21 #
shell $-1 $-1 $-1 $43 $-1 $23 #
shell $-1 $-1 $-1 $44 $-1 $25 #
face $-1 $45 $46 $27 $-1 $47 forward single #
face $-1 $48 $49 $28 $-1 $50 reversed single #
face $-1 $51 $52 $29 $-1 $53 forward single #
face $-1 $54 $55 $30 $-1 $56 reversed single #
face $-1 $57 $58 $31 $-1 $59 forward single #
face $-1 $60 $61 $32 $-1 $62 forward single #
face $-1 $63 $64 $33 $-1 $65 forward single #
face $-1 $66 $67 $34 $-1 $68 reversed single #
face $-1 $69 $70 $35 $-1 $71 forward single #
face $-1 $72 $73 $27 $-1 $74 reversed single #
loop $-1 $-1 $75 $36 #
plane-surface $-1 0 0 13.674796306681397 0 0 1 1 0 0 forward_v I I I I #
face $-1 $76 $77 $28 $-1 $78 forward single #
loop $-1 $-1 $79 $37 #
plane-surface $-1 -42.21022706689439 0 8.5170755746371363 -1 0 0 0 0 1 forward_v I I I I #
face $-1 $80 $81 $29 $-1 $82 reversed single #
loop $-1 $-1 $83 $38 #
plane-surface $-1 49.157117073594293 0 11.752377048934026 0 0 1 1 0 0 forward_v I I I I #
face $-1 $84 $85 $30 $-1 $86 reversed single #
loop $-1 $-1 $87 $39 #
plane-surface $-1 -15.886760426244393 -106.83253848979717 85.164579593283378 1 0 0 0 0.66913061440640931 -0.74314481823134659 forward_v I I I I #
face $-1 $88 $89 $31 $-1 $90 forward single #
loop $-1 $91 $92 $40 #
cone-surface $-1 -10.8775953469219 -23.02084348636016 5.368025143668226 0 0.66913061440640931 -0.74314481823134659 2.5 0 0 1 I I 0 1 2.5 forward I I I I #
face $-1 $93 $94 $32 $-1 $95 forward single #
loop $-1 $96 $97 $41 #
cone-surface $-1 -3.3638477279381576 -23.02084348636016 5.368025143668226 0 0.66913061440640931 -0.74314481823134659 2.5 0 0 1 I I 0 1 2.5 forward I I I I #
face $-1 $98 $99 $33 $-1 $100 forward single #
loop $-1 $101 $102 $42 #
cone-surface $-1 4.1498998910455853 -23.02084348636016 5.368025143668226 0 0.66913061440640931 -0.74314481823134659 2.5 0 0 1 I I 0 1 2.5 forward I I I I #
face $-1 $103 $104 $34 $-1 $105 reversed single #
loop $-1 $-1 $106 $43 #
plane-surface $-1 -18.923043047024507 70.506589680143861 126.23069707150887 -1 0 0 0 0.73135370988377701 0.68199835119979291 forward_v I I I I #
face $-1 $107 $108 $35 $-1 $109 forward single #
loop $-1 $110 $111 $44 #
cone-surface $-1 -30.566635056959452 25.190852699329195 6.878689723405655 0 -0.73135370988377701 -0.68199835119979291 3 0 0 1 I I 0 1 3 forward I I I I #
face $-1 $112 $113 $27 $-1 $114 reversed single #
loop $-1 $-1 $115 $45 #
plane-surface $-1 0 0 -13.674796306681397 0 0 1 1 0 0 forward_v I I I I #
coedge $-1 $116 $117 $118 $119 forward $46 $-1 #
face $-1 $120 $121 $28 $-1 $122 reversed single #
loop $-1 $-1 $123 $48 #
plane-surface $-1 -49.157117073594293 0 11.752377048934026 0 0 1 1 0 0 forward_v I I I I #
coedge $-1 $124 $125 $123 $126 reversed $49 $-1 #
face $-1 $127 $128 $29 $-1 $129 reversed single #
loop $-1 $-1 $130 $51 #
plane-surface $-1 49.157117073594293 0 5.2817741003402467 0 0 1 1 0 0 forward_v I I I I #
coedge $-1 $131 $132 $133 $134 reversed $52 $-1 #
face $-1 $135 $136 $30 $-1 $137 reversed single #
loop $-1 $-1 $138 $54 #
plane-surface $-1 -3.3638477279381576 -31.750721033199582 1.7777753058125541 0 -0.66913061440640931 0.74314481823134659 1 0 0 forward_v I I I I #
coedge $-1 $139 $140 $141 $142 reversed $55 $-1 #
face $-1 $-1 $143 $31 $-1 $144 forward single #
loop $-1 $145 $146 $57 #
cone-surface $-1 -10.8775953469219 -20.061042734015881 2.0808334583002832 0 0.66913061440640931 -0.74314481823134659 1.25 0 0 1 I I -0.70710678118654746 0.70710678118654746 1.25 forward I I I I #
loop $-1 $-1 $147 $40 #
coedge $-1 $92 $92 $148 $149 reversed $58 $-1 #
face $-1 $-1 $150 $32 $-1 $151 forward single #
loop $-1 $152 $153 $60 #
cone-surface $-1 -3.3638477279381576 -20.061042734015881 2.0808334583002832 0 0.66913061440640931 -0.74314481823134659 1.25 0 0 1 I I -0.70710678118654746 0.70710678118654746 1.25 forward I I I I #
loop $-1 $-1 $154 $41 #
coedge $-1 $97 $97 $155 $156 reversed $61 $-1 #
face $-1 $-1 $157 $33 $-1 $158 forward single #
loop $-1 $159 $160 $63 #
cone-surface $-1 4.1498998910455853 -20.061042734015881 2.0808334583002832 0 0.66913061440640931 -0.74314481823134659 1.25 0 0 1 I I -0.70710678118654746 0.70710678118654746 1.25 forward I I I I #
loop $-1 $-1 $161 $42 #
coedge $-1 $102 $102 $162 $163 reversed $64 $-1 #
face $-1 $164 $165 $34 $-1 $166 reversed single #
loop $-1 $-1 $167 $66 #
plane-surface $-1 -30.566635056959452 -11.557157754893851 49.705016422584578 0 0.73135370988377701 0.68199835119979291 1 0 0 forward_v I I I I #
coedge $-1 $168 $169 $170 $171 reversed $67 $-1 #
face $-1 $-1 $172 $35 $-1 $173 forward single #
loop $-1 $174 $175 $69 #
cone-surface $-1 -30.566635056959452 22.388531695360633 4.2654831744940189 0 -0.73135370988377701 -0.68199835119979291 1.5 0 0 1 I I -0.70710678118654757 0.70710678118654757 1.5 forward I I I I #
loop $-1 $-1 $176 $44 #
coedge $-1 $111 $111 $177 $178 reversed $70 $-1 #
face $-1 $179 $180 $27 $-1 $181 reversed single #
loop $-1 $-1 $182 $72 #
plane-surface $-1 0 -31.750721033199603 0 0 1 0 0 0 1 forward_v I I I I #
coedge $-1 $183 $184 $185 $186 forward $73 $-1 #
coedge $-1 $187 $75 $188 $189 forward $46 $-1 #
coedge $-1 $75 $187 $190 $191 forward $46 $-1 #
coedge $-1 $192 $193 $75 $119 reversed $194 $-1 #
edge $-1 $195 -31.750721033199603 $196 31.750721033199603 $118 $197 forward 7 unknown #
face $-1 $198 $199 $28 $-1 $200 reversed single #
loop $-1 $-1 $201 $76 #
plane-surface $-1 -49.157117073594293 0 5.2817741003402467 0 0 1 1 0 0 forward_v I I I I #
coedge $-1 $202 $203 $79 $126 forward $77 $-1 #
coedge $-1 $204 $79 $205 $206 reversed $49 $-1 #
coedge $-1 $79 $204 $207 $208 reversed $49 $-1 #
edge $-1 $209 -31.750721033199603 $210 31.750721033199603 $79 $211 forward 7 unknown #
face $-1 $212 $213 $29 $-1 $214 reversed single #
loop $-1 $-1 $215 $80 #
plane-surface $-1 42.21022706689439 0 8.5170755746371363 1 0 0 0 0 -1 forward_v I I I I #
coedge $-1 $216 $217 $218 $219 reversed $81 $-1 #
coedge $-1 $220 $83 $221 $222 reversed $52 $-1 #
coedge $-1 $83 $220 $223 $224 reversed $52 $-1 #
coedge $-1 $225 $226 $83 $134 forward $227 $-1 #
edge $-1 $228 -31.750721033199603 $229 31.750721033199603 $133 $230 forward 7 unknown #
face $-1 $231 $232 $30 $-1 $233 forward single #
loop $-1 $-1 $234 $84 #
plane-surface $-1 9.1590649703680782 -106.83253848979717 85.164579593283378 -1 0 0 0 -0.66913061440640931 0.74314481823134659 forward_v I I I I #
coedge $-1 $235 $236 $237 $238 reversed $85 $-1 #
coedge $-1 $140 $87 $239 $240 reversed $55 $-1 #
coedge $-1 $87 $139 $235 $241 reversed $55 $-1 #
coedge $-1 $237 $242 $87 $142 forward $243 $-1 #
edge $-1 $244 28.907493489960292 $245 40.804514490829156 $141 $246 forward 7 unknown #
loop $-1 $-1 $148 $88 #
plane-surface $-1 -3.3638477279381576 -31.750721033199582 1.7777753058125541 0 -0.66913061440640931 0.74314481823134659 1 0 0 forward_v I I I I #
loop $-1 $-1 $247 $57 #
coedge $-1 $146 $146 $147 $248 reversed $89 $-1 #
coedge $-1 $147 $147 $146 $248 forward $91 $-1 #
coedge $-1 $148 $148 $92 $149 forward $143 $-1 #
edge $-1 $249 6.6271219464415093e-016 $249 6.2831853071796013 $148 $250 forward 7 unknown #
loop $-1 $-1 $155 $93 #
plane-surface $-1 -3.3638477279381576 -31.750721033199582 1.7777753058125541 0 -0.66913061440640931 0.74314481823134659 1 0 0 forward_v I I I I #
loop $-1 $-1 $251 $60 #
coedge $-1 $153 $153 $154 $252 reversed $94 $-1 #
coedge $-1 $154 $154 $153 $252 forward $96 $-1 #
coedge $-1 $155 $155 $97 $156 forward $150 $-1 #
edge $-1 $253 6.6271219464415093e-016 $253 6.2831853071796013 $155 $254 forward 7 unknown #
loop $-1 $-1 $162 $98 #
plane-surface $-1 -3.3638477279381576 -31.750721033199582 1.7777753058125541 0 -0.66913061440640931 0.74314481823134659 1 0 0 forward_v I I I I #
loop $-1 $-1 $255 $63 #
coedge $-1 $160 $160 $161 $256 reversed $99 $-1 #
coedge $-1 $161 $161 $160 $256 forward $101 $-1 #
coedge $-1 $162 $162 $102 $163 forward $157 $-1 #
edge $-1 $257 6.6271219464415093e-016 $257 6.2831853071796013 $162 $258 forward 7 unknown #
face $-1 $259 $260 $34 $-1 $261 forward single #
loop $-1 $-1 $170 $103 #
plane-surface $-1 0 31.750721033199603 0 0 -1 0 0 0 -1 forward_v I I I I #
coedge $-1 $262 $263 $264 $265 reversed $104 $-1 #
coedge $-1 $169 $106 $266 $267 reversed $67 $-1 #
coedge $-1 $106 $168 $262 $268 reversed $67 $-1 #
coedge $-1 $264 $269 $106 $171 forward $165 $-1 #
edge $-1 $270 49.440552229073035 $271 59.852347351400681 $170 $272 forward 7 unknown #
loop $-1 $-1 $177 $107 #
plane-surface $-1 -30.566635056959452 -11.557157754893851 49.705016422584578 0 0.73135370988377701 0.68199835119979291 1 0 0 forward_v I I I I #
loop $-1 $-1 $273 $69 #
coedge $-1 $175 $175 $176 $274 reversed $108 $-1 #
coedge $-1 $176 $176 $175 $274 forward $110 $-1 #
coedge $-1 $177 $177 $111 $178 forward $172 $-1 #
edge $-1 $275 -3.5069091583739076e-016 $275 6.2831853071796004 $177 $276 forward 7 unknown #
face $-1 $277 $278 $27 $-1 $279 reversed single #
loop $-1 $-1 $280 $112 #
plane-surface $-1 -56.104007080294195 0 0 1 0 0 0 0 -1 forward_v I I I I #
coedge $-1 $281 $190 $282 $283 forward $113 $-1 #
coedge $-1 $284 $115 $281 $285 forward $73 $-1 #
coedge $-1 $115 $284 $286 $287 forward $73 $-1 #
coedge $-1 $193 $192 $115 $186 reversed $194 $-1 #
edge $-1 $288 -31.750721033199603 $289 31.750721033199603 $185 $290 forward 7 unknown #
coedge $-1 $117 $116 $291 $292 forward $46 $-1 #
coedge $-1 $293 $294 $116 $189 reversed $278 $-1 #
edge $-1 $196 -56.104007080294195 $295 56.104007080294195 $188 $296 forward 7 unknown #
coedge $-1 $182 $297 $117 $191 reversed $113 $-1 #
edge $-1 $298 -56.104007080294195 $195 56.104007080294195 $190 $299 forward 7 unknown #
coedge $-1 $185 $118 $297 $300 forward $194 $-1 #
coedge $-1 $118 $185 $293 $301 reversed $194 $-1 #
loop $-1 $-1 $192 $277 #
vertex $-1 $119 $302 #
vertex $-1 $119 $303 #
straight-curve $-1 56.104007080294195 0 13.674796306681397 0 1 0 I I #
face $-1 $304 $305 $28 $-1 $306 reversed single #
loop $-1 $-1 $307 $120 #
plane-surface $-1 0 -31.750721033199603 0 0 1 0 0 0 1 forward_v I I I I #
coedge $-1 $308 $309 $204 $310 forward $121 $-1 #
coedge $-1 $311 $123 $312 $313 reversed $77 $-1 #
coedge $-1 $123 $311 $314 $315 reversed $77 $-1 #
coedge $-1 $125 $124 $201 $310 reversed $49 $-1 #
coedge $-1 $314 $307 $124 $206 forward $199 $-1 #
edge $-1 $316 1.0232363130216786 $209 7.4938392616154577 $205 $317 forward 7 unknown #
coedge $-1 $318 $312 $125 $208 forward $319 $-1 #
edge $-1 $210 -7.4938392616154577 $320 -1.0232363130216786 $207 $321 forward 7 unknown #
vertex $-1 $315 $322 #
vertex $-1 $313 $323 #
straight-curve $-1 -42.21022706689439 0 11.752377048934026 0 1 0 I I #
face $-1 $324 $325 $29 $-1 $326 reversed single #
loop $-1 $-1 $223 $127 #
plane-surface $-1 0 -31.750721033199603 0 0 1 0 0 0 1 forward_v I I I I #
coedge $-1 $327 $328 $329 $330 reversed $128 $-1 #
coedge $-1 $331 $130 $332 $333 reversed $81 $-1 #
coedge $-1 $130 $331 $334 $335 reversed $81 $-1 #
coedge $-1 $226 $225 $130 $219 forward $227 $-1 #
edge $-1 $336 -31.750721033199603 $337 31.750721033199603 $218 $338 forward 7 unknown #
coedge $-1 $132 $131 $328 $339 forward $52 $-1 #
coedge $-1 $340 $329 $131 $222 forward $325 $-1 #
edge $-1 $341 17.631668530097244 $228 31.525448543497049 $221 $342 forward 7 unknown #
coedge $-1 $343 $344 $132 $224 forward $213 $-1 #
edge $-1 $229 -31.525448543497049 $345 -17.631668530097244 $223 $346 forward 7 unknown #
coedge $-1 $218 $133 $344 $347 forward $227 $-1 #
coedge $-1 $133 $218 $340 $348 reversed $227 $-1 #
loop $-1 $-1 $133 $324 #
vertex $-1 $348 $349 #
vertex $-1 $347 $350 #
straight-curve $-1 56.104007080294195 0 11.752377048934026 0 -1 0 I I #
face $-1 $-1 $243 $30 $-1 $351 reversed single #
loop $-1 $-1 $352 $135 #
plane-surface $-1 0 0 13.674796306681397 0 0 1 1 0 0 forward_v I I I I #
coedge $-1 $353 $354 $355 $356 reversed $136 $-1 #
coedge $-1 $357 $138 $140 $241 forward $85 $-1 #
coedge $-1 $138 $357 $353 $358 forward $85 $-1 #
coedge $-1 $355 $141 $138 $238 forward $243 $-1 #
edge $-1 $245 -14.204836562275315 $359 10.840988834337157 $237 $360 forward 7 unknown #
coedge $-1 $361 $362 $139 $240 forward $232 $-1 #
edge $-1 $363 -34.878528336705379 $244 -21.665548211698983 $239 $364 forward 7 unknown #
edge $-1 $245 -2.8618693057405159e-014 $363 17.77981868520958 $140 $365 forward 7 unknown #
coedge $-1 $141 $355 $361 $366 reversed $243 $-1 #
loop $-1 $-1 $355 $231 #
vertex $-1 $366 $367 #
vertex $-1 $142 $368 #
straight-curve $-1 -15.886760426244393 -31.750721033199603 42.582289796641689 0 0 -1 I I #
coedge $-1 $247 $247 $-1 $369 reversed $145 $-1 #
edge $-1 $370 0 $370 6.2831853071796004 $146 $371 forward 7 unknown #
vertex $-1 $149 $372 #
ellipse-curve $-1 -10.8775953469219 -25.144230970696409 7.7262858062469633 0 -0.66913061440640931 0.74314481823134659 2.5 0 0 1 I I #
coedge $-1 $251 $251 $-1 $373 reversed $152 $-1 #
edge $-1 $374 0 $374 6.2831853071796004 $153 $375 forward 7 unknown #
vertex $-1 $156 $376 #
ellipse-curve $-1 -3.3638477279381576 -25.144230970696409 7.7262858062469633 0 -0.66913061440640931 0.74314481823134659 2.5 0 0 1 I I #
coedge $-1 $255 $255 $-1 $377 reversed $159 $-1 #
edge $-1 $378 0 $378 6.2831853071796004 $160 $379 forward 7 unknown #
vertex $-1 $163 $380 #
ellipse-curve $-1 4.1498998910455853 -25.144230970696409 7.7262858062469633 0 -0.66913061440640931 0.74314481823134659 2.5 0 0 1 I I #
face $-1 $-1 $381 $34 $-1 $382 forward single #
loop $-1 $-1 $383 $164 #
plane-surface $-1 -42.21022706689439 0 8.5170755746371363 -1 0 0 0 0 1 forward_v I I I I #
coedge $-1 $384 $167 $169 $268 forward $104 $-1 #
coedge $-1 $167 $384 $383 $385 forward $104 $-1 #
coedge $-1 $386 $170 $167 $265 forward $165 $-1 #
edge $-1 $271 3.6397255185447808 $387 26.926909538414669 $264 $388 forward 7 unknown #
coedge $-1 $389 $390 $168 $267 forward $381 $-1 #
edge $-1 $391 -13.21172959632738 $270 -3.5025738068723271 $266 $392 forward 7 unknown #
edge $-1 $271 -63.501442066399235 $391 -49.265108837184826 $169 $393 forward 7 unknown #
coedge $-1 $170 $386 $389 $394 reversed $165 $-1 #
vertex $-1 $394 $395 #
vertex $-1 $171 $396 #
straight-curve $-1 -18.923043047024507 31.750721033199603 63.115348535754435 0 0 -1 I I #
coedge $-1 $273 $273 $-1 $397 reversed $174 $-1 #
edge $-1 $398 0 $398 6.2831853071796004 $175 $399 forward 7 unknown #
vertex $-1 $178 $400 #
ellipse-curve $-1 -30.566635056959452 26.89614313847207 8.4688987455175813 0 0.73135370988377701 0.68199835119979291 3 0 0 1 I I #
face $-1 $-1 $194 $27 $-1 $401 reversed single #
loop $-1 $-1 $293 $179 #
plane-surface $-1 0 31.750721033199603 0 0 -1 0 0 0 -1 forward_v I I I I #
coedge $-1 $402 $291 $294 $403 forward $180 $-1 #
coedge $-1 $297 $182 $183 $285 reversed $113 $-1 #
coedge $-1 $291 $402 $182 $283 reversed $180 $-1 #
edge $-1 $298 -13.674796306681397 $404 13.674796306681397 $282 $405 forward 7 unknown #
coedge $-1 $184 $183 $402 $406 forward $73 $-1 #
edge $-1 $289 -56.104007080294195 $404 56.104007080294195 $281 $407 forward 7 unknown #
coedge $-1 $294 $293 $184 $287 reversed $278 $-1 #
edge $-1 $408 -56.104007080294195 $288 56.104007080294195 $286 $409 forward 7 unknown #
vertex $-1 $186 $410 #
vertex $-1 $300 $411 #
straight-curve $-1 56.104007080294195 0 -13.674796306681397 0 -1 0 I I #
coedge $-1 $280 $282 $187 $292 reversed $180 $-1 #
edge $-1 $295 -31.750721033199603 $298 31.750721033199603 $291 $412 forward 7 unknown #
coedge $-1 $286 $188 $193 $301 forward $278 $-1 #
coedge $-1 $188 $286 $280 $403 reversed $278 $-1 #
vertex $-1 $189 $413 #
straight-curve $-1 0 31.750721033199603 13.674796306681397 -1 0 0 I I #
coedge $-1 $190 $281 $192 $300 reversed $113 $-1 #
vertex $-1 $292 $414 #
straight-curve $-1 0 -31.750721033199603 13.674796306681397 1 0 0 I I #
edge $-1 $195 -13.674796306681397 $289 13.674796306681397 $192 $415 forward 7 unknown #
edge $-1 $196 -13.674796306681397 $288 13.674796306681397 $193 $416 forward 7 unknown #
point $-1 56.104007080294195 -31.750721033199603 13.674796306681397 #
point $-1 56.104007080294195 31.750721033199603 13.674796306681397 #
face $-1 $-1 $319 $28 $-1 $417 reversed single #
loop $-1 $-1 $418 $198 #
plane-surface $-1 -56.104007080294195 0 0 1 0 0 0 0 -1 forward_v I I I I #
coedge $-1 $205 $419 $308 $420 forward $199 $-1 #
coedge $-1 $421 $201 $307 $420 reversed $121 $-1 #
coedge $-1 $201 $421 $318 $422 reversed $121 $-1 #
edge $-1 $320 -31.750721033199603 $316 31.750721033199603 $204 $423 forward 7 unknown #
coedge $-1 $203 $202 $424 $425 reversed $77 $-1 #
coedge $-1 $207 $426 $202 $313 forward $319 $-1 #
edge $-1 $427 -31.525448543497049 $210 -17.631668530097244 $312 $428 forward 7 unknown #
coedge $-1 $419 $205 $203 $315 forward $199 $-1 #
edge $-1 $209 17.631668530097244 $429 31.525448543497049 $314 $430 forward 7 unknown #
vertex $-1 $420 $431 #
straight-curve $-1 -42.21022706689439 -31.750721033199603 4.2585377873185681 0 0 1 I I #
coedge $-1 $426 $207 $309 $422 forward $319 $-1 #
loop $-1 $-1 $318 $304 #
vertex $-1 $422 $432 #
straight-curve $-1 -42.21022706689439 31.750721033199603 4.2585377873185681 0 0 -1 I I #
point $-1 -42.21022706689439 -31.750721033199603 11.752377048934026 #
point $-1 -42.21022706689439 31.750721033199603 11.752377048934026 #
face $-1 $-1 $227 $29 $-1 $433 reversed single #
loop $-1 $-1 $221 $212 #
plane-surface $-1 0 31.750721033199603 0 0 -1 0 0 0 -1 forward_v I I I I #
coedge $-1 $434 $215 $331 $435 reversed $128 $-1 #
coedge $-1 $215 $434 $220 $339 reversed $128 $-1 #
coedge $-1 $221 $334 $215 $330 forward $325 $-1 #
edge $-1 $436 1.0232363130216786 $341 7.4938392616154577 $329 $437 forward 7 unknown #
coedge $-1 $217 $216 $327 $435 forward $81 $-1 #
coedge $-1 $344 $343 $216 $333 forward $213 $-1 #
edge $-1 $438 17.631668530097244 $336 31.525448543497049 $332 $439 forward 7 unknown #
coedge $-1 $329 $340 $217 $335 forward $325 $-1 #
edge $-1 $337 -31.525448543497049 $436 -17.631668530097244 $334 $440 forward 7 unknown #
vertex $-1 $219 $441 #
vertex $-1 $219 $442 #
straight-curve $-1 56.104007080294195 0 5.2817741003402467 0 1 0 I I #
edge $-1 $341 -31.750721033199603 $345 31.750721033199603 $328 $443 forward 7 unknown #
coedge $-1 $334 $221 $226 $348 forward $325 $-1 #
vertex $-1 $222 $444 #
straight-curve $-1 24.578558536797146 31.750721033199603 11.752377048934026 1 0 0 I I #
coedge $-1 $332 $223 $434 $445 forward $213 $-1 #
coedge $-1 $223 $332 $225 $347 reversed $213 $-1 #
vertex $-1 $224 $446 #
straight-curve $-1 24.578558536797146 -31.750721033199603 11.752377048934026 -1 0 0 I I #
edge $-1 $229 -11.752377048934026 $336 -5.2817741003402467 $225 $447 forward 7 unknown #
edge $-1 $228 -11.752377048934026 $337 -5.2817741003402467 $226 $448 forward 7 unknown #
point $-1 56.104007080294195 31.750721033199603 11.752377048934026 #
point $-1 56.104007080294195 -31.750721033199603 11.752377048934026 #
plane-surface $-1 0 -31.750721033199603 0 0 1 0 0 0 1 forward_v I I I I #
coedge $-1 $362 $361 $354 $449 forward $232 $-1 #
coedge $-1 $354 $234 $236 $358 reversed $136 $-1 #
coedge $-1 $234 $353 $352 $449 reversed $136 $-1 #
coedge $-1 $242 $237 $234 $356 forward $243 $-1 #
edge $-1 $359 -40.804514490829156 $450 -28.907493489960292 $355 $451 forward 7 unknown #
coedge $-1 $236 $235 $362 $452 reversed $85 $-1 #
edge $-1 $453 -17.77981868520958 $359 2.8618693057405159e-014 $353 $454 forward 7 unknown #
vertex $-1 $238 $455 #
straight-curve $-1 -1.6819238639690788 -31.750721033199603 1.7777753058125325 1 0 0 I I #
coedge $-1 $352 $239 $242 $366 forward $232 $-1 #
coedge $-1 $239 $352 $357 $452 forward $232 $-1 #
vertex $-1 $240 $456 #
straight-curve $-1 -15.886760426244393 -53.416269244898587 13.674796306681401 0 -1 0 I I #
straight-curve $-1 -15.886760426244393 -31.750721033199582 1.7777753058125541 0 0.74314481823134659 0.66913061440640931 I I #
edge $-1 $244 -15.886760426244393 $450 9.1590649703680782 $242 $457 forward 7 unknown #
point $-1 -15.886760426244393 -31.750721033199603 13.674796306681397 #
point $-1 -15.886760426244393 -31.750721033199603 1.777775305812535 #
edge $-1 $458 1 $458 0 $247 $-1 forward 7 unknown #
vertex $-1 $248 $459 #
ellipse-curve $-1 -10.8775953469219 -20.897456002023894 3.0097644810894666 0 -0.66913061440640931 0.74314481823134659 2.5 0 0 1 I I #
point $-1 -8.3775953469219004 -25.144230970696427 7.7262858062469855 #
edge $-1 $460 1 $460 0 $251 $-1 forward 7 unknown #
vertex $-1 $252 $461 #
ellipse-curve $-1 -3.3638477279381576 -20.897456002023894 3.0097644810894666 0 -0.66913061440640931 0.74314481823134659 2.5 0 0 1 I I #
point $-1 -0.86384772793815756 -25.144230970696427 7.7262858062469855 #
edge $-1 $462 1 $462 0 $255 $-1 forward 7 unknown #
vertex $-1 $256 $463 #
ellipse-curve $-1 4.1498998910455853 -20.897456002023894 3.0097644810894666 0 -0.66913061440640931 0.74314481823134659 2.5 0 0 1 I I #
point $-1 6.6498998910455853 -25.144230970696427 7.7262858062469855 #
loop $-1 $-1 $266 $259 #
plane-surface $-1 0 0 13.674796306681397 0 0 1 1 0 0 forward_v I I I I #
coedge $-1 $464 $465 $263 $385 reversed $260 $-1 #
coedge $-1 $263 $262 $390 $466 reversed $104 $-1 #
edge $-1 $467 49.265108837184826 $387 63.501442066399235 $383 $468 forward 7 unknown #
coedge $-1 $269 $264 $465 $469 forward $165 $-1 #
vertex $-1 $265 $470 #
straight-curve $-1 -15.283317528479726 31.7507210331996 3.263001184353751 -1 0 0 I I #
coedge $-1 $471 $266 $269 $394 forward $381 $-1 #
coedge $-1 $266 $471 $384 $466 forward $381 $-1 #
vertex $-1 $267 $472 #
straight-curve $-1 -18.923043047024507 35.253294840071931 13.674796306681401 0 1 0 I I #
straight-curve $-1 -18.923043047024507 -11.557157754893851 49.705016422584578 0 -0.68199835119979291 0.73135370988377701 I I #
edge $-1 $270 18.923043047024507 $473 42.210227066894397 $269 $474 forward 7 unknown #
point $-1 -18.923043047024507 31.750721033199603 13.674796306681397 #
point $-1 -18.923043047024507 31.750721033199603 3.2630011843537545 #
edge $-1 $475 1 $475 0 $273 $-1 forward 7 unknown #
vertex $-1 $274 $476 #
ellipse-curve $-1 -30.566635056959452 23.485562260186299 5.2884807012937083 0 0.73135370988377701 0.68199835119979291 3 0 0 1 I I #
point $-1 -27.566635056959452 26.896143138472091 8.4688987455176026 #
plane-surface $-1 56.104007080294195 0 0 -1 0 0 0 0 1 forward_v I I I I #
coedge $-1 $282 $280 $284 $406 reversed $180 $-1 #
edge $-1 $295 -13.674796306681397 $408 13.674796306681397 $294 $477 forward 7 unknown #
vertex $-1 $406 $478 #
straight-curve $-1 -56.104007080294195 -31.750721033199603 0 0 0 -1 I I #
edge $-1 $404 -31.750721033199603 $408 31.750721033199603 $402 $479 forward 7 unknown #
straight-curve $-1 0 -31.750721033199603 -13.674796306681397 -1 0 0 I I #
vertex $-1 $287 $480 #
straight-curve $-1 0 31.750721033199603 -13.674796306681397 1 0 0 I I #
point $-1 56.104007080294195 31.750721033199603 -13.674796306681397 #
point $-1 56.104007080294195 -31.750721033199603 -13.674796306681397 #
straight-curve $-1 -56.104007080294195 0 13.674796306681397 0 -1 0 I I #
point $-1 -56.104007080294195 31.750721033199603 13.674796306681397 #
point $-1 -56.104007080294195 -31.750721033199603 13.674796306681397 #
straight-curve $-1 56.104007080294195 -31.750721033199603 0 0 0 -1 I I #
straight-curve $-1 56.104007080294195 31.750721033199603 0 0 0 -1 I I #
plane-surface $-1 0 31.750721033199603 0 0 -1 0 0 0 -1 forward_v I I I I #
coedge $-1 $481 $482 $421 $483 forward $305 $-1 #
coedge $-1 $307 $314 $481 $484 forward $199 $-1 #
edge $-1 $485 -31.525448543497049 $316 -17.631668530097244 $307 $486 forward 7 unknown #
coedge $-1 $309 $308 $418 $483 reversed $121 $-1 #
edge $-1 $320 17.631668530097244 $487 31.525448543497049 $318 $488 forward 7 unknown #
straight-curve $-1 -42.21022706689439 0 5.2817741003402467 0 -1 0 I I #
coedge $-1 $482 $481 $311 $425 forward $305 $-1 #
edge $-1 $429 -31.750721033199603 $427 31.750721033199603 $424 $489 forward 7 unknown #
coedge $-1 $312 $318 $482 $490 reversed $319 $-1 #
vertex $-1 $490 $491 #
straight-curve $-1 -24.578558536797146 31.750721033199603 11.752377048934026 1 0 0 I I #
vertex $-1 $484 $492 #
straight-curve $-1 -24.578558536797146 -31.750721033199603 11.752377048934026 -1 0 0 I I #
point $-1 -42.21022706689439 -31.750721033199603 5.2817741003402467 #
point $-1 -42.21022706689439 31.750721033199603 5.2817741003402467 #
plane-surface $-1 56.104007080294195 0 0 -1 0 0 0 0 1 forward_v I I I I #
coedge $-1 $328 $327 $343 $445 reversed $128 $-1 #
edge $-1 $438 -31.750721033199603 $436 31.750721033199603 $327 $493 forward 7 unknown #
vertex $-1 $335 $494 #
straight-curve $-1 42.21022706689439 31.750721033199603 4.2585377873185681 0 0 1 I I #
vertex $-1 $333 $495 #
straight-curve $-1 24.578558536797146 -31.750721033199603 5.2817741003402467 1 0 0 I I #
straight-curve $-1 24.578558536797146 31.750721033199603 5.2817741003402467 -1 0 0 I I #
point $-1 56.104007080294195 -31.750721033199603 5.2817741003402467 #
point $-1 56.104007080294195 31.750721033199603 5.2817741003402467 #
straight-curve $-1 42.21022706689439 0 11.752377048934026 0 -1 0 I I #
point $-1 42.21022706689439 31.750721033199603 11.752377048934026 #
edge $-1 $345 -7.4938392616154577 $438 -1.0232363130216786 $343 $496 forward 7 unknown #
point $-1 42.21022706689439 -31.750721033199603 11.752377048934026 #
straight-curve $-1 56.104007080294195 -31.750721033199603 0 0 0 -1 I I #
straight-curve $-1 56.104007080294195 31.750721033199603 0 0 0 -1 I I #
edge $-1 $450 21.665548211698983 $453 34.878528336705379 $352 $497 forward 7 unknown #
vertex $-1 $449 $498 #
straight-curve $-1 9.1590649703680782 -31.750721033199603 42.582289796641689 0 0 1 I I #
edge $-1 $453 -10.840988834337157 $363 14.204836562275315 $362 $499 forward 7 unknown #
vertex $-1 $452 $500 #
straight-curve $-1 9.1590649703680782 -31.750721033199582 1.7777753058125541 0 -0.74314481823134659 -0.66913061440640931 I I #
point $-1 9.1590649703680782 -31.750721033199603 1.777775305812535 #
point $-1 -15.886760426244393 -18.537740908193207 13.674796306681397 #
straight-curve $-1 0 -31.750721033199603 13.674796306681397 1 0 0 I I #
vertex $-1 $369 $501 #
point $-1 -8.3775953469219004 -20.897456002023894 3.0097644810894666 #
vertex $-1 $373 $502 #
point $-1 -0.86384772793815756 -20.897456002023894 3.0097644810894666 #
vertex $-1 $377 $503 #
point $-1 6.6498998910455853 -20.897456002023894 3.0097644810894666 #
coedge $-1 $465 $383 $471 $504 reversed $260 $-1 #
coedge $-1 $383 $464 $386 $469 reversed $260 $-1 #
edge $-1 $467 -26.926909538414669 $391 -3.6397255185447808 $390 $505 forward 7 unknown #
vertex $-1 $504 $506 #
straight-curve $-1 -42.210227066894397 -11.557157754893851 49.705016422584578 0 0.68199835119979291 -0.73135370988377701 I I #
edge $-1 $387 -59.852347351400681 $473 -49.440552229073035 $386 $507 forward 7 unknown #
point $-1 -42.210227066894397 31.750721033199603 3.2630011843537545 #
coedge $-1 $390 $389 $464 $504 forward $381 $-1 #
point $-1 -18.923043047024507 22.04156524374455 13.674796306681401 #
vertex $-1 $469 $508 #
straight-curve $-1 0 31.750721033199603 13.674796306681397 -1 0 0 I I #
vertex $-1 $397 $509 #
point $-1 -27.566635056959452 23.485562260186299 5.2884807012937083 #
straight-curve $-1 -56.104007080294195 31.750721033199603 0 0 0 -1 I I #
point $-1 -56.104007080294195 -31.750721033199603 -13.674796306681397 #
straight-curve $-1 -56.104007080294195 0 -13.674796306681397 0 1 0 I I #
point $-1 -56.104007080294195 31.750721033199603 -13.674796306681397 #
coedge $-1 $424 $418 $419 $484 reversed $305 $-1 #
coedge $-1 $418 $424 $426 $490 forward $305 $-1 #
edge $-1 $487 -31.750721033199603 $485 31.750721033199603 $418 $510 forward 7 unknown #
edge $-1 $429 -11.752377048934026 $485 -5.2817741003402467 $481 $511 forward 7 unknown #
vertex $-1 $420 $512 #
straight-curve $-1 -24.578558536797146 -31.750721033199603 5.2817741003402467 1 0 0 I I #
vertex $-1 $422 $513 #
straight-curve $-1 -24.578558536797146 31.750721033199603 5.2817741003402467 -1 0 0 I I #
straight-curve $-1 -56.104007080294195 0 11.752377048934026 0 1 0 I I #
edge $-1 $427 -11.752377048934026 $487 -5.2817741003402467 $426 $514 forward 7 unknown #
point $-1 -56.104007080294195 31.750721033199603 11.752377048934026 #
point $-1 -56.104007080294195 -31.750721033199603 11.752377048934026 #
straight-curve $-1 42.21022706689439 0 5.2817741003402467 0 1 0 I I #
point $-1 42.21022706689439 31.750721033199603 5.2817741003402467 #
point $-1 42.21022706689439 -31.750721033199603 5.2817741003402467 #
straight-curve $-1 42.21022706689439 -31.750721033199603 4.2585377873185681 0 0 -1 I I #
straight-curve $-1 9.1590649703680782 -53.416269244898587 13.674796306681401 0 1 0 I I #
point $-1 9.1590649703680782 -31.750721033199603 13.674796306681397 #
straight-curve $-1 -1.6819238639690788 -18.537740908193207 13.674796306681397 -1 0 0 I I #
point $-1 9.1590649703680782 -18.537740908193207 13.674796306681397 #
point $-1 -10.8775953469219 -19.224629466007869 1.1519024355110998 #
point $-1 -3.3638477279381576 -19.224629466007869 1.1519024355110998 #
point $-1 4.1498998910455853 -19.224629466007869 1.1519024355110998 #
edge $-1 $473 3.5025738068723271 $467 13.21172959632738 $471 $515 forward 7 unknown #
straight-curve $-1 -15.283317528479726 22.041565243744554 13.674796306681397 1 0 0 I I #
point $-1 -42.210227066894397 22.04156524374455 13.674796306681401 #
straight-curve $-1 -42.210227066894397 31.750721033199603 63.115348535754435 0 0 1 I I #
point $-1 -42.210227066894397 31.750721033199603 13.674796306681397 #
point $-1 -30.566635056959452 21.291501130534968 3.2424856476943296 #
straight-curve $-1 -56.104007080294195 0 5.2817741003402467 0 -1 0 I I #
straight-curve $-1 -56.104007080294195 -31.750721033199603 0 0 0 -1 I I #
point $-1 -56.104007080294195 -31.750721033199603 5.2817741003402467 #
point $-1 -56.104007080294195 31.750721033199603 5.2817741003402467 #
straight-curve $-1 -56.104007080294195 31.750721033199603 0 0 0 -1 I I #
straight-curve $-1 -42.210227066894397 35.253294840071931 13.674796306681401 0 -1 0 I I #
End-of-ACIS-data 