500 0 8 0           
7 Unknown 11 ACIS 5.0 NT 24 Fri Mar 26 03:16:56 1999 
-1 9.9999999999999995e-007 1e-010 
body $-1 $8 $-1 $9 #
body $-1 $10 $-1 $11 #
body $-1 $12 $-1 $13 #
body $-1 $14 $-1 $15 #
body $-1 $16 $-1 $17 #
body $-1 $18 $-1 $19 #
body $-1 $20 $-1 $21 #
body $-1 $22 $-1 $23 #
lump $-1 $-1 $24 $0 #
transform $-1 1 0 0 0 1 0 0 0 1 54.678182317575612 25.820577229865606 5.7858518098258989 1 rotate no_reflect no_shear #
lump $-1 $-1 $25 $1 #
transform $-1 1 0 0 0 1 0 0 0 1 54.678182317575612 25.820577229865606 5.7858518098258989 1 rotate no_reflect no_shear #
lump $-1 $-1 $26 $2 #
transform $-1 1 0 0 0 1 0 0 0 1 54.678182317575612 25.820577229865606 5.7858518098258989 1 rotate no_reflect no_shear #
lump $-1 $-1 $27 $3 #
transform $-1 1 0 0 0 1 0 0 0 1 54.678182317575612 25.820577229865606 5.7858518098258989 1 rotate no_reflect no_shear #
lump $-1 $-1 $28 $4 #
transform $-1 1 0 0 0 1 0 0 0 1 54.678182317575612 25.820577229865606 5.7858518098258989 1 rotate no_reflect no_shear #
lump $-1 $-1 $29 $5 #
transform $-1 1 0 0 0 1 0 0 0 1 54.678182317575612 25.820577229865606 5.7858518098258989 1 rotate no_reflect no_shear #
lump $-1 $-1 $30 $6 #
transform $-1 1 0 0 0 1 0 0 0 1 54.678182317575612 25.820577229865606 5.7858518098258989 1 rotate no_reflect no_shear #
lump $-1 $-1 $31 $7 #
transform $-1 1 0 0 0 1 0 0 0 1 54.678182317575612 25.820577229865606 5.7858518098258989 1 rotate no_reflect no_shear #
shell $-1 $-1 $-1 $32 $-1 $8 #
shell $-1 $-1 $-1 $33 $-1 $10 #
shell $-1 $-1 $-1 $34 $-1 $12 #
shell $-1 $-1 $-1 $35 $-1 $14 #
shell $-1 $-1 $-1 $36 $-1 $16 #
shell $-1 $-1 $-1 $37 $-1 $18 #
shell $-1 $-1 $-1 $38 $-1 $20 #
shell $-1 $-1 $-1 $39 $-1 $22 #
face $-1 $40 $41 $24 $-1 $42 forward single #
face $-1 $43 $44 $25 $-1 $45 forward single #
face $-1 $46 $47 $26 $-1 $48 reversed single #
face $-1 $49 $50 $27 $-1 $51 forward single #
face $-1 $52 $53 $28 $-1 $54 forward single #
face $-1 $55 $56 $29 $-1 $57 reversed single #
face $-1 $58 $59 $30 $-1 $60 forward single #
face $-1 $61 $62 $31 $-1 $63 forward single #
face $-1 $64 $65 $24 $-1 $66 reversed single #
loop $-1 $-1 $67 $32 #
plane-surface $-1 0 0 5.7858518098258989 0 0 1 1 0 0 forward_v I I I I #
face $-1 $68 $69 $25 $-1 $70 reversed single #
loop $-1 $-1 $71 $33 #
plane-surface $-1 -54.678182317575612 0 0 1 0 0 0 0 -1 forward_v I I I I #
face $-1 $72 $73 $26 $-1 $74 reversed single #
loop $-1 $-1 $75 $34 #
plane-surface $-1 40.491171189207328 -25.820577229865606 2.0149750631084089 0 -0.66913061440640931 0.74314481823134659 1 0 0 forward_v I I I I #
face $-1 $76 $77 $27 $-1 $78 forward single #
loop $-1 $79 $80 $35 #
cone-surface $-1 34.411023562763781 -22.777495304162748 2.8463416525220584 0 0.66913061440640931 -0.74314481823134659 1 0 0 1 I I 0 1 1 forward I I I I #
face $-1 $81 $82 $28 $-1 $83 forward single #
loop $-1 $84 $85 $36 #
cone-surface $-1 46.571318815650905 -22.777495304162748 2.8463416525220584 0 0.66913061440640931 -0.74314481823134659 1 0 0 1 I I 0 1 1 forward I I I I #
face $-1 $86 $87 $29 $-1 $88 reversed single #
loop $-1 $-1 $89 $37 #
plane-surface $-1 40.491171189207328 -12.556279114368238 36.569652475404652 0 0.66913061440640931 0.74314481823134659 1 0 0 forward_v I I I I #
face $-1 $90 $91 $30 $-1 $92 forward single #
loop $-1 $93 $94 $38 #
cone-surface $-1 34.411023562763781 22.777495304162755 2.8463416525220531 0 -0.66913061440640931 -0.74314481823134659 1 0 0 1 I I 0 1 1 forward I I I I #
face $-1 $95 $96 $31 $-1 $97 forward single #
loop $-1 $98 $99 $39 #
cone-surface $-1 46.571318815650905 22.777495304162755 2.8463416525220531 0 -0.66913061440640931 -0.74314481823134659 1 0 0 1 I I 0 1 1 forward I I I I #
face $-1 $100 $101 $24 $-1 $102 reversed single #
loop $-1 $-1 $103 $40 #
plane-surface $-1 0 0 -5.7858518098258989 0 0 1 1 0 0 forward_v I I I I #
coedge $-1 $104 $105 $106 $107 forward $41 $-1 #
face $-1 $108 $109 $25 $-1 $110 forward single #
loop $-1 $-1 $111 $43 #
plane-surface $-1 0 25.820577229865606 0 0 -1 0 0 0 -1 forward_v I I I I #
coedge $-1 $112 $113 $114 $115 forward $44 $-1 #
face $-1 $116 $117 $26 $-1 $118 reversed single #
loop $-1 $-1 $119 $46 #
plane-surface $-1 26.304160060839031 -98.994268687435678 83.28259078233873 1 0 0 0 0.66913061440640931 -0.74314481823134659 forward_v I I I I #
coedge $-1 $120 $121 $122 $123 reversed $47 $-1 #
face $-1 $-1 $124 $27 $-1 $125 forward single #
loop $-1 $126 $127 $49 #
cone-surface $-1 34.411023562763781 -21.493839479046414 1.4206974594612829 0 0.66913061440640931 -0.74314481823134659 0.5 0 0 1 I I -0.70710678118654746 0.70710678118654746 0.5 forward I I I I #
loop $-1 $-1 $128 $35 #
coedge $-1 $80 $80 $129 $130 reversed $50 $-1 #
face $-1 $-1 $131 $28 $-1 $132 forward single #
loop $-1 $133 $134 $52 #
cone-surface $-1 46.571318815650905 -21.493839479046414 1.4206974594612829 0 0.66913061440640931 -0.74314481823134659 0.5 0 0 1 I I -0.70710678118654746 0.70710678118654746 0.5 forward I I I I #
loop $-1 $-1 $135 $36 #
coedge $-1 $85 $85 $136 $137 reversed $53 $-1 #
face $-1 $138 $139 $29 $-1 $140 forward single #
loop $-1 $-1 $141 $55 #
plane-surface $-1 26.304160060839031 60.617412343201835 117.83726819463497 1 0 0 0 -0.66913061440640931 -0.74314481823134659 forward_v I I I I #
coedge $-1 $142 $143 $144 $145 reversed $56 $-1 #
face $-1 $-1 $146 $30 $-1 $147 forward single #
loop $-1 $148 $149 $58 #
cone-surface $-1 34.411023562763781 21.493839479046422 1.4206974594612776 0 -0.66913061440640931 -0.74314481823134659 0.5 0 0 1 I I -0.70710678118654746 0.70710678118654746 0.5 forward I I I I #
loop $-1 $-1 $150 $38 #
coedge $-1 $94 $94 $151 $152 reversed $59 $-1 #
face $-1 $-1 $153 $31 $-1 $154 forward single #
loop $-1 $155 $156 $61 #
cone-surface $-1 46.571318815650905 21.493839479046422 1.4206974594612776 0 -0.66913061440640931 -0.74314481823134659 0.5 0 0 1 I I -0.70710678118654746 0.70710678118654746 0.5 forward I I I I #
loop $-1 $-1 $157 $39 #
coedge $-1 $99 $99 $158 $159 reversed $62 $-1 #
face $-1 $160 $161 $24 $-1 $162 reversed single #
loop $-1 $-1 $163 $64 #
plane-surface $-1 0 -25.820577229865606 0 0 1 0 0 0 1 forward_v I I I I #
coedge $-1 $164 $165 $166 $167 forward $65 $-1 #
coedge $-1 $168 $67 $169 $170 forward $41 $-1 #
coedge $-1 $67 $168 $171 $172 forward $41 $-1 #
coedge $-1 $173 $174 $67 $107 reversed $175 $-1 #
edge $-1 $176 -25.820577229865606 $177 25.820577229865606 $106 $178 forward 7 unknown #
face $-1 $179 $180 $25 $-1 $181 reversed single #
loop $-1 $-1 $114 $68 #
plane-surface $-1 -56.92099227676826 0 3.4683762287078435 0 0 1 1 0 0 forward_v I I I I #
coedge $-1 $182 $183 $113 $184 forward $69 $-1 #
coedge $-1 $185 $71 $186 $187 reversed $44 $-1 #
coedge $-1 $71 $185 $111 $184 reversed $44 $-1 #
coedge $-1 $188 $189 $71 $115 reversed $109 $-1 #
edge $-1 $190 -25.820577229865606 $191 25.820577229865606 $114 $192 forward 7 unknown #
face $-1 $193 $194 $26 $-1 $195 forward single #
loop $-1 $-1 $196 $72 #
plane-surface $-1 0 -25.820577229865606 0 0 1 0 0 0 1 forward_v I I I I #
coedge $-1 $197 $198 $199 $200 reversed $73 $-1 #
coedge $-1 $201 $75 $202 $203 reversed $47 $-1 #
coedge $-1 $75 $201 $197 $204 forward $47 $-1 #
coedge $-1 $199 $205 $75 $123 forward $194 $-1 #
edge $-1 $206 -34.432596722971965 $207 -6.0585744662353669 $122 $208 forward 7 unknown #
loop $-1 $-1 $129 $76 #
plane-surface $-1 40.491171189207328 -25.820577229865606 2.0149750631084089 0 -0.66913061440640931 0.74314481823134659 1 0 0 forward_v I I I I #
loop $-1 $-1 $209 $49 #
coedge $-1 $127 $127 $128 $210 reversed $77 $-1 #
coedge $-1 $128 $128 $127 $210 forward $79 $-1 #
coedge $-1 $129 $129 $80 $130 forward $124 $-1 #
edge $-1 $211 1.2570195663206093e-015 $211 6.2831853071796013 $129 $212 forward 7 unknown #
loop $-1 $-1 $136 $81 #
plane-surface $-1 40.491171189207328 -25.820577229865606 2.0149750631084089 0 -0.66913061440640931 0.74314481823134659 1 0 0 forward_v I I I I #
loop $-1 $-1 $213 $52 #
coedge $-1 $134 $134 $135 $214 reversed $82 $-1 #
coedge $-1 $135 $135 $134 $214 forward $84 $-1 #
coedge $-1 $136 $136 $85 $137 forward $131 $-1 #
edge $-1 $215 1.2570195663206093e-015 $215 6.2831853071796013 $136 $216 forward 7 unknown #
face $-1 $217 $218 $29 $-1 $219 reversed single #
loop $-1 $-1 $220 $86 #
plane-surface $-1 0 0 5.7858518098258989 0 0 1 1 0 0 forward_v I I I I #
coedge $-1 $221 $222 $223 $224 reversed $87 $-1 #
coedge $-1 $225 $89 $226 $227 reversed $56 $-1 #
coedge $-1 $89 $225 $221 $228 forward $56 $-1 #
coedge $-1 $223 $229 $89 $145 forward $230 $-1 #
edge $-1 $231 -34.432596722971951 $232 -6.0585744662353669 $144 $233 forward 7 unknown #
loop $-1 $-1 $151 $90 #
plane-surface $-1 40.491171189207328 -12.556279114368238 36.569652475404652 0 0.66913061440640931 0.74314481823134659 1 0 0 forward_v I I I I #
loop $-1 $-1 $234 $58 #
coedge $-1 $149 $149 $150 $235 reversed $91 $-1 #
coedge $-1 $150 $150 $149 $235 forward $93 $-1 #
coedge $-1 $151 $151 $94 $152 forward $146 $-1 #
edge $-1 $236 -3.4202411483846084e-017 $236 6.2831853071796004 $151 $237 forward 7 unknown #
loop $-1 $-1 $158 $95 #
plane-surface $-1 40.491171189207328 -12.556279114368238 36.569652475404652 0 0.66913061440640931 0.74314481823134659 1 0 0 forward_v I I I I #
loop $-1 $-1 $238 $61 #
coedge $-1 $156 $156 $157 $239 reversed $96 $-1 #
coedge $-1 $157 $157 $156 $239 forward $98 $-1 #
coedge $-1 $158 $158 $99 $159 forward $153 $-1 #
edge $-1 $240 -3.4202411483846084e-017 $240 6.2831853071796004 $158 $241 forward 7 unknown #
face $-1 $242 $243 $24 $-1 $244 reversed single #
loop $-1 $-1 $245 $100 #
plane-surface $-1 -54.678182317575612 0 0 1 0 0 0 0 -1 forward_v I I I I #
coedge $-1 $246 $171 $247 $248 forward $101 $-1 #
coedge $-1 $249 $103 $246 $250 forward $65 $-1 #
coedge $-1 $103 $249 $251 $252 forward $65 $-1 #
coedge $-1 $174 $173 $103 $167 reversed $175 $-1 #
edge $-1 $253 -25.820577229865606 $254 25.820577229865606 $166 $255 forward 7 unknown #
coedge $-1 $105 $104 $256 $257 forward $41 $-1 #
coedge $-1 $258 $259 $104 $170 reversed $243 $-1 #
edge $-1 $177 -54.678182317575612 $260 54.678182317575612 $169 $261 forward 7 unknown #
coedge $-1 $163 $262 $105 $172 reversed $101 $-1 #
edge $-1 $263 -54.678182317575612 $176 54.678182317575612 $171 $264 forward 7 unknown #
coedge $-1 $166 $106 $262 $265 forward $175 $-1 #
coedge $-1 $106 $166 $258 $266 reversed $175 $-1 #
loop $-1 $-1 $173 $242 #
vertex $-1 $107 $267 #
vertex $-1 $107 $268 #
straight-curve $-1 54.678182317575612 0 5.7858518098258989 0 1 0 I I #
face $-1 $269 $270 $25 $-1 $271 reversed single #
loop $-1 $-1 $272 $108 #
plane-surface $-1 -56.92099227676826 0 0.46837622870784434 0 0 1 1 0 0 forward_v I I I I #
coedge $-1 $273 $111 $274 $275 reversed $69 $-1 #
coedge $-1 $111 $273 $188 $276 reversed $69 $-1 #
edge $-1 $190 -3.4683762287078435 $277 -0.46837622870784434 $111 $278 forward 7 unknown #
coedge $-1 $113 $112 $272 $279 forward $44 $-1 #
coedge $-1 $280 $281 $112 $187 forward $282 $-1 #
edge $-1 $283 0.46837622870784434 $191 3.4683762287078435 $186 $284 forward 7 unknown #
coedge $-1 $285 $114 $183 $276 forward $109 $-1 #
coedge $-1 $114 $285 $280 $286 forward $109 $-1 #
vertex $-1 $184 $287 #
vertex $-1 $286 $288 #
straight-curve $-1 -54.678182317575612 0 3.4683762287078435 0 -1 0 I I #
face $-1 $-1 $289 $26 $-1 $290 reversed single #
loop $-1 $-1 $199 $116 #
plane-surface $-1 0 0 5.7858518098258989 0 0 1 1 0 0 forward_v I I I I #
coedge $-1 $291 $292 $198 $293 forward $117 $-1 #
coedge $-1 $198 $119 $121 $204 reversed $73 $-1 #
coedge $-1 $119 $197 $196 $293 reversed $73 $-1 #
coedge $-1 $294 $122 $119 $200 forward $194 $-1 #
edge $-1 $207 -27.864539929431711 $295 -23.676557113852233 $199 $296 forward 7 unknown #
coedge $-1 $121 $120 $291 $297 reversed $47 $-1 #
coedge $-1 $298 $299 $120 $203 forward $289 $-1 #
edge $-1 $300 -8.9200733350627992 $206 -3.284586532441069 $202 $301 forward 7 unknown #
edge $-1 $302 0 $207 5.6354868026217293 $197 $303 forward 7 unknown #
coedge $-1 $122 $294 $298 $304 forward $194 $-1 #
vertex $-1 $203 $305 #
vertex $-1 $123 $306 #
straight-curve $-1 20.245585594603664 -21.632594414286128 5.785851809825898 -1 0 0 I I #
coedge $-1 $209 $209 $-1 $307 reversed $126 $-1 #
edge $-1 $308 0 $308 6.2831853071796004 $127 $309 forward 7 unknown #
vertex $-1 $130 $310 #
ellipse-curve $-1 34.411023562763781 -23.726585822075869 3.9004134364671517 0 -0.66913061440640931 0.74314481823134659 1 0 0 1 I I #
coedge $-1 $213 $213 $-1 $311 reversed $133 $-1 #
edge $-1 $312 0 $312 6.2831853071796004 $134 $313 forward 7 unknown #
vertex $-1 $137 $314 #
ellipse-curve $-1 46.571318815650905 -23.726585822075869 3.9004134364671517 0 -0.66913061440640931 0.74314481823134659 1 0 0 1 I I #
face $-1 $-1 $230 $29 $-1 $315 reversed single #
loop $-1 $-1 $226 $138 #
plane-surface $-1 54.678182317575612 0 0 -1 0 0 0 0 1 forward_v I I I I #
coedge $-1 $316 $317 $222 $318 forward $139 $-1 #
coedge $-1 $222 $141 $143 $228 reversed $87 $-1 #
coedge $-1 $141 $221 $220 $318 reversed $87 $-1 #
coedge $-1 $319 $144 $141 $224 forward $230 $-1 #
edge $-1 $232 -56.903659034209063 $320 -53.132782287491587 $223 $321 forward 7 unknown #
coedge $-1 $143 $142 $316 $322 reversed $56 $-1 #
coedge $-1 $323 $324 $142 $227 forward $218 $-1 #
edge $-1 $325 29.105163762306688 $231 34.740650564928401 $226 $326 forward 7 unknown #
edge $-1 $327 46.005667657109498 $232 51.641154459731212 $221 $328 forward 7 unknown #
coedge $-1 $144 $319 $323 $329 forward $230 $-1 #
loop $-1 $-1 $223 $217 #
vertex $-1 $227 $330 #
vertex $-1 $145 $331 #
straight-curve $-1 20.245585594603664 25.820577229865606 2.0149750631084231 -1 0 0 I I #
coedge $-1 $234 $234 $-1 $332 reversed $148 $-1 #
edge $-1 $333 0 $333 6.2831853071796004 $149 $334 forward 7 unknown #
vertex $-1 $152 $335 #
ellipse-curve $-1 34.411023562763781 23.726585822075879 3.9004134364671521 0 0.66913061440640931 0.74314481823134659 1 0 0 1 I I #
coedge $-1 $238 $238 $-1 $336 reversed $155 $-1 #
edge $-1 $337 0 $337 6.2831853071796004 $156 $338 forward 7 unknown #
vertex $-1 $159 $339 #
ellipse-curve $-1 46.571318815650905 23.726585822075879 3.9004134364671521 0 0.66913061440640931 0.74314481823134659 1 0 0 1 I I #
face $-1 $-1 $175 $24 $-1 $340 reversed single #
loop $-1 $-1 $258 $160 #
plane-surface $-1 0 25.820577229865606 0 0 -1 0 0 0 -1 forward_v I I I I #
coedge $-1 $341 $256 $259 $342 forward $161 $-1 #
coedge $-1 $262 $163 $164 $250 reversed $101 $-1 #
coedge $-1 $256 $341 $163 $248 reversed $161 $-1 #
edge $-1 $263 -5.7858518098258989 $343 5.7858518098258989 $247 $344 forward 7 unknown #
coedge $-1 $165 $164 $341 $345 forward $65 $-1 #
edge $-1 $254 -54.678182317575612 $343 54.678182317575612 $246 $346 forward 7 unknown #
coedge $-1 $259 $258 $165 $252 reversed $243 $-1 #
edge $-1 $347 -54.678182317575612 $253 54.678182317575612 $251 $348 forward 7 unknown #
vertex $-1 $167 $349 #
vertex $-1 $265 $350 #
straight-curve $-1 54.678182317575612 0 -5.7858518098258989 0 -1 0 I I #
coedge $-1 $245 $247 $168 $257 reversed $161 $-1 #
edge $-1 $260 -25.820577229865606 $263 25.820577229865606 $256 $351 forward 7 unknown #
coedge $-1 $251 $169 $174 $266 forward $243 $-1 #
coedge $-1 $169 $251 $245 $342 reversed $243 $-1 #
vertex $-1 $170 $352 #
straight-curve $-1 0 25.820577229865606 5.7858518098258989 -1 0 0 I I #
coedge $-1 $171 $246 $173 $265 reversed $101 $-1 #
vertex $-1 $257 $353 #
straight-curve $-1 0 -25.820577229865606 5.7858518098258989 1 0 0 I I #
edge $-1 $176 -5.7858518098258989 $254 5.7858518098258989 $173 $354 forward 7 unknown #
edge $-1 $177 -5.7858518098258989 $253 5.7858518098258989 $174 $355 forward 7 unknown #
point $-1 54.678182317575612 -25.820577229865606 5.7858518098258989 #
point $-1 54.678182317575612 25.820577229865606 5.7858518098258989 #
face $-1 $-1 $282 $25 $-1 $356 reversed single #
loop $-1 $-1 $357 $179 #
plane-surface $-1 -59.163802235960915 0 1.9683762287078439 1 0 0 0 0 -1 forward_v I I I I #
coedge $-1 $358 $274 $185 $279 reversed $180 $-1 #
coedge $-1 $183 $182 $357 $359 reversed $69 $-1 #
coedge $-1 $272 $360 $182 $275 forward $180 $-1 #
edge $-1 $361 -2.2428099591926554 $277 2.2428099591926554 $182 $362 forward 7 unknown #
edge $-1 $190 -2.2428099591926554 $363 2.2428099591926554 $183 $364 forward 7 unknown #
vertex $-1 $184 $365 #
straight-curve $-1 -54.678182317575612 25.820577229865606 0 0 0 -1 I I #
edge $-1 $283 -25.820577229865606 $277 25.820577229865606 $272 $366 forward 7 unknown #
coedge $-1 $367 $186 $189 $286 reversed $282 $-1 #
coedge $-1 $186 $367 $358 $368 reversed $282 $-1 #
loop $-1 $-1 $186 $269 #
vertex $-1 $187 $369 #
straight-curve $-1 -54.678182317575612 -25.820577229865606 0 0 0 1 I I #
coedge $-1 $189 $188 $370 $371 forward $109 $-1 #
edge $-1 $372 -2.2428099591926554 $191 2.2428099591926554 $280 $373 forward 7 unknown #
point $-1 -54.678182317575605 25.820577229865606 3.4683762287078435 #
point $-1 -54.678182317575605 -25.820577229865606 3.4683762287078435 #
loop $-1 $-1 $202 $193 #
plane-surface $-1 54.678182317575612 0 0 -1 0 0 0 0 1 forward_v I I I I #
coedge $-1 $374 $196 $201 $297 forward $117 $-1 #
coedge $-1 $196 $374 $294 $375 reversed $117 $-1 #
edge $-1 $295 35.855443581343465 $302 39.626320328060956 $196 $376 forward 7 unknown #
coedge $-1 $205 $199 $292 $375 forward $194 $-1 #
vertex $-1 $375 $377 #
straight-curve $-1 26.304160060839031 -49.497134343717839 5.7858518098258997 0 -1 0 I I #
edge $-1 $302 6.0585744662353669 $300 34.432596722971965 $291 $378 forward 7 unknown #
coedge $-1 $299 $202 $205 $304 reversed $289 $-1 #
coedge $-1 $202 $298 $374 $379 forward $289 $-1 #
vertex $-1 $297 $380 #
straight-curve $-1 54.678182317575612 -19.19167095267008 7.9836692143492076 0 0.74314481823134659 0.66913061440640931 I I #
vertex $-1 $297 $381 #
straight-curve $-1 26.304160060839031 -25.820577229865606 2.0149750631084089 0 0.74314481823134659 0.66913061440640931 I I #
edge $-1 $382 -25.820577229865606 $206 -21.632594414286128 $298 $383 forward 7 unknown #
point $-1 54.678182317575626 -21.632594414286128 5.7858518098258989 #
point $-1 26.304160060839031 -21.632594414286128 5.7858518098258989 #
edge $-1 $384 1 $384 0 $209 $-1 forward 7 unknown #
vertex $-1 $210 $385 #
ellipse-curve $-1 34.411023562763781 -21.828404786249621 1.7922698685769562 0 -0.66913061440640931 0.74314481823134659 1 0 0 1 I I #
point $-1 35.411023562763781 -23.726585822075876 3.9004134364671614 #
edge $-1 $386 1 $386 0 $213 $-1 forward 7 unknown #
vertex $-1 $214 $387 #
ellipse-curve $-1 46.571318815650905 -21.828404786249621 1.7922698685769562 0 -0.66913061440640931 0.74314481823134659 1 0 0 1 I I #
point $-1 47.571318815650905 -23.726585822075876 3.9004134364671614 #
plane-surface $-1 0 25.820577229865606 0 0 -1 0 0 0 -1 forward_v I I I I #
coedge $-1 $388 $220 $225 $322 forward $139 $-1 #
coedge $-1 $220 $388 $319 $389 forward $139 $-1 #
edge $-1 $320 4.4881289417353116 $327 8.6761117573147786 $220 $390 forward 7 unknown #
coedge $-1 $229 $223 $317 $389 reversed $230 $-1 #
vertex $-1 $318 $391 #
straight-curve $-1 26.304160060839031 25.820577229865606 58.918634097317486 0 0 1 I I #
edge $-1 $327 6.0585744662353669 $325 34.432596722971965 $316 $392 forward 7 unknown #
coedge $-1 $324 $226 $229 $329 reversed $218 $-1 #
coedge $-1 $226 $323 $388 $393 reversed $218 $-1 #
vertex $-1 $393 $394 #
straight-curve $-1 54.678182317575612 0.0032427805531618503 25.261007920497335 0 0.74314481823134659 -0.66913061440640931 I I #
vertex $-1 $322 $395 #
straight-curve $-1 26.304160060839031 -12.556279114368238 36.569652475404652 0 0.74314481823134659 -0.66913061440640931 I I #
edge $-1 $396 -5.7858518098258989 $231 -2.0149750631084262 $323 $397 forward 7 unknown #
point $-1 54.678182317575612 25.820577229865606 2.0149750631084262 #
point $-1 26.304160060839031 25.820577229865606 2.0149750631084231 #
edge $-1 $398 1 $398 0 $234 $-1 forward 7 unknown #
vertex $-1 $235 $399 #
ellipse-curve $-1 34.411023562763781 21.828404786249628 1.7922698685769509 0 0.66913061440640931 0.74314481823134659 1 0 0 1 I I #
point $-1 35.411023562763781 23.726585822075883 3.9004134364671561 #
edge $-1 $400 1 $400 0 $238 $-1 forward 7 unknown #
vertex $-1 $239 $401 #
ellipse-curve $-1 46.571318815650905 21.828404786249628 1.7922698685769509 0 0.66913061440640931 0.74314481823134659 1 0 0 1 I I #
point $-1 47.571318815650905 23.726585822075883 3.9004134364671561 #
plane-surface $-1 54.678182317575612 0 0 -1 0 0 0 0 1 forward_v I I I I #
coedge $-1 $247 $245 $249 $345 reversed $161 $-1 #
edge $-1 $260 -5.7858518098258989 $347 5.7858518098258989 $259 $402 forward 7 unknown #
vertex $-1 $345 $403 #
straight-curve $-1 -54.678182317575612 -25.820577229865606 0 0 0 -1 I I #
edge $-1 $343 -25.820577229865606 $347 25.820577229865606 $341 $404 forward 7 unknown #
straight-curve $-1 0 -25.820577229865606 -5.7858518098258989 -1 0 0 I I #
vertex $-1 $252 $405 #
straight-curve $-1 0 25.820577229865606 -5.7858518098258989 1 0 0 I I #
point $-1 54.678182317575612 25.820577229865606 -5.7858518098258989 #
point $-1 54.678182317575612 -25.820577229865606 -5.7858518098258989 #
straight-curve $-1 -54.678182317575612 0 5.7858518098258989 0 -1 0 I I #
point $-1 -54.678182317575612 25.820577229865606 5.7858518098258989 #
point $-1 -54.678182317575612 -25.820577229865606 5.7858518098258989 #
straight-curve $-1 54.678182317575612 -25.820577229865606 0 0 0 -1 I I #
straight-curve $-1 54.678182317575612 25.820577229865606 0 0 0 -1 I I #
plane-surface $-1 0 -25.820577229865606 0 0 1 0 0 0 1 forward_v I I I I #
coedge $-1 $406 $370 $273 $359 forward $270 $-1 #
coedge $-1 $360 $272 $281 $368 forward $180 $-1 #
edge $-1 $363 -1.4999999999999996 $361 1.4999999999999996 $273 $407 forward 7 unknown #
coedge $-1 $274 $358 $406 $408 forward $180 $-1 #
vertex $-1 $275 $409 #
straight-curve $-1 -56.92099227676826 25.820577229865606 0.46837622870784434 1 0 0 I I #
vertex $-1 $276 $410 #
straight-curve $-1 -56.92099227676826 25.820577229865606 3.4683762287078435 -1 0 0 I I #
point $-1 -54.678182317575605 25.820577229865606 0.46837622870784434 #
straight-curve $-1 -54.678182317575612 0 0.46837622870784434 0 1 0 I I #
coedge $-1 $281 $280 $411 $412 forward $282 $-1 #
edge $-1 $283 -2.2428099591926554 $413 2.2428099591926554 $281 $414 forward 7 unknown #
point $-1 -54.678182317575605 -25.820577229865606 0.46837622870784434 #
coedge $-1 $357 $411 $285 $371 reversed $270 $-1 #
edge $-1 $363 -25.820577229865606 $372 25.820577229865606 $370 $415 forward 7 unknown #
vertex $-1 $371 $416 #
straight-curve $-1 -56.92099227676826 -25.820577229865606 3.4683762287078435 1 0 0 I I #
coedge $-1 $292 $291 $299 $379 reversed $117 $-1 #
edge $-1 $295 26.304160060839031 $382 54.678182317575612 $292 $417 forward 7 unknown #
straight-curve $-1 26.304160060839031 -25.820577229865606 41.641295391169365 0 0 -1 I I #
point $-1 26.304160060839031 -25.820577229865606 5.7858518098258989 #
straight-curve $-1 20.245585594603664 -25.820577229865606 2.0149750631084107 1 0 0 I I #
edge $-1 $382 -5.7858518098258989 $300 -2.0149750631084089 $299 $418 forward 7 unknown #
point $-1 54.678182317575626 -25.820577229865606 2.0149750631084089 #
point $-1 26.304160060839031 -25.820577229865606 2.0149750631084089 #
vertex $-1 $304 $419 #
straight-curve $-1 54.678182317575612 0 5.7858518098258989 0 1 0 I I #
vertex $-1 $307 $420 #
point $-1 35.411023562763781 -21.828404786249621 1.7922698685769562 #
vertex $-1 $311 $421 #
point $-1 47.571318815650905 -21.828404786249621 1.7922698685769562 #
coedge $-1 $317 $316 $324 $393 forward $139 $-1 #
edge $-1 $396 -54.678182317575612 $320 -26.304160060839031 $319 $422 forward 7 unknown #
straight-curve $-1 26.304160060839031 30.308706171600917 5.7858518098258997 0 -1 0 I I #
point $-1 26.304160060839031 25.820577229865606 5.7858518098258989 #
straight-curve $-1 20.245585594603664 21.632594414286149 5.7858518098258962 1 0 0 I I #
edge $-1 $325 21.632594414286139 $396 25.820577229865606 $324 $423 forward 7 unknown #
point $-1 54.678182317575626 21.632594414286139 5.7858518098258997 #
point $-1 26.304160060839031 21.632594414286139 5.7858518098258997 #
vertex $-1 $393 $424 #
straight-curve $-1 54.678182317575612 25.820577229865606 0 0 0 -1 I I #
vertex $-1 $332 $425 #
point $-1 35.411023562763781 21.828404786249628 1.7922698685769509 #
vertex $-1 $336 $426 #
point $-1 47.571318815650905 21.828404786249628 1.7922698685769509 #
straight-curve $-1 -54.678182317575612 25.820577229865606 0 0 0 -1 I I #
point $-1 -54.678182317575612 -25.820577229865606 -5.7858518098258989 #
straight-curve $-1 -54.678182317575612 0 -5.7858518098258989 0 1 0 I I #
point $-1 -54.678182317575612 25.820577229865606 -5.7858518098258989 #
coedge $-1 $411 $357 $360 $408 reversed $270 $-1 #
straight-curve $-1 -59.163802235960915 25.820577229865606 1.9683762287078439 0 0 -1 I I #
edge $-1 $413 -25.820577229865606 $361 25.820577229865606 $406 $427 forward 7 unknown #
point $-1 -59.163802235960915 25.820577229865606 0.46837622870784434 #
point $-1 -59.163802235960915 25.820577229865606 3.4683762287078435 #
coedge $-1 $370 $406 $367 $412 reversed $270 $-1 #
edge $-1 $372 -1.4999999999999996 $413 1.4999999999999996 $411 $428 forward 7 unknown #
vertex $-1 $408 $429 #
straight-curve $-1 -56.92099227676826 -25.820577229865606 0.46837622870784434 -1 0 0 I I #
straight-curve $-1 -59.163802235960915 0 3.4683762287078435 0 -1 0 I I #
point $-1 -59.163802235960915 -25.820577229865606 3.4683762287078435 #
straight-curve $-1 0 -25.820577229865606 5.7858518098258989 1 0 0 I I #
straight-curve $-1 54.678182317575612 -25.820577229865606 0 0 0 -1 I I #
point $-1 54.678182317575612 -25.820577229865606 5.7858518098258989 #
point $-1 34.411023562763781 -21.159274171843208 1.0491250503456095 #
point $-1 46.571318815650905 -21.159274171843208 1.0491250503456095 #
straight-curve $-1 0 25.820577229865606 5.7858518098258989 -1 0 0 I I #
straight-curve $-1 54.678182317575612 0 5.7858518098258989 0 1 0 I I #
point $-1 54.678182317575612 25.820577229865606 5.7858518098258989 #
point $-1 34.411023562763781 21.159274171843215 1.0491250503456042 #
point $-1 46.571318815650905 21.159274171843215 1.0491250503456042 #
straight-curve $-1 -59.163802235960915 0 0.46837622870784434 0 1 0 I I #
straight-curve $-1 -59.163802235960915 -25.820577229865606 1.9683762287078439 0 0 -1 I I #
point $-1 -59.163802235960915 -25.820577229865606 0.46837622870784434 #
End-of-ACIS-data 