500 0 6 0           
7 Unknown 11 ACIS 5.0 NT 24 Fri Mar 26 20:15:55 1999 
-1 9.9999999999999995e-007 1e-010 
body $-1 $6 $-1 $7 #
body $-1 $8 $-1 $9 #
body $-1 $10 $-1 $11 #
body $-1 $12 $-1 $13 #
body $-1 $14 $-1 $15 #
body $-1 $16 $-1 $17 #
lump $-1 $-1 $18 $0 #
transform $-1 1 0 0 0 1 0 0 0 1 46.664021729178749 30.259482628846616 6.1604971043133574 1 rotate no_reflect no_shear #
lump $-1 $-1 $19 $1 #
transform $-1 1 0 0 0 1 0 0 0 1 46.664021729178749 30.259482628846616 6.1604971043133574 1 rotate no_reflect no_shear #
lump $-1 $-1 $20 $2 #
transform $-1 1 0 0 0 1 0 0 0 1 46.664021729178749 30.259482628846616 6.1604971043133574 1 rotate no_reflect no_shear #
lump $-1 $-1 $21 $3 #
transform $-1 1 0 0 0 1 0 0 0 1 46.664021729178749 30.259482628846616 6.1604971043133574 1 rotate no_reflect no_shear #
lump $-1 $-1 $22 $4 #
transform $-1 1 0 0 0 1 0 0 0 1 46.664021729178749 30.259482628846616 6.1604971043133574 1 rotate no_reflect no_shear #
lump $-1 $-1 $23 $5 #
transform $-1 1 0 0 0 1 0 0 0 1 46.664021729178749 30.259482628846616 6.1604971043133574 1 rotate no_reflect no_shear #
shell $-1 $-1 $-1 $24 $-1 $6 #
shell $-1 $-1 $-1 $25 $-1 $8 #
shell $-1 $-1 $-1 $26 $-1 $10 #
shell $-1 $-1 $-1 $27 $-1 $12 #
shell $-1 $-1 $-1 $28 $-1 $14 #
shell $-1 $-1 $-1 $29 $-1 $16 #
face $-1 $30 $31 $18 $-1 $32 forward single #
face $-1 $33 $34 $19 $-1 $35 forward single #
face $-1 $36 $37 $20 $-1 $38 reversed single #
face $-1 $39 $40 $21 $-1 $41 forward single #
face $-1 $42 $43 $22 $-1 $44 reversed single #
face $-1 $45 $46 $23 $-1 $47 forward single #
face $-1 $48 $49 $18 $-1 $50 reversed single #
loop $-1 $-1 $51 $24 #
plane-surface $-1 0 0 6.1604971043133574 0 0 1 1 0 0 forward_v I I I I #
face $-1 $52 $53 $19 $-1 $54 reversed single #
loop $-1 $-1 $55 $25 #
plane-surface $-1 0 -26.937140283962158 -0.15059568759900266 0 0 1 1 0 0 forward_v I I I I #
face $-1 $56 $57 $20 $-1 $58 reversed single #
loop $-1 $-1 $59 $26 #
plane-surface $-1 -112.65691489914209 19.383186537936787 68.522195986453909 0 1 0 -0.70710678939079041 0 0.70710677298230451 forward_v I I I I #
face $-1 $60 $61 $21 $-1 $62 forward single #
loop $-1 $63 $64 $27 #
cone-surface $-1 -43.614446681852243 24.8213345833917 3.1109220434903508 0.70710678939079041 0 -0.70710677298230451 0.70710677298230451 0 0.70710678939079041 1 I I 0 1 1 forward I I I I #
face $-1 $65 $66 $22 $-1 $67 reversed single #
loop $-1 $-1 $68 $28 #
plane-surface $-1 -30.708432413346628 22.673475486680143 52.276538920994469 0.55919291073839883 0 0.82903756765294845 0.82903756765294845 0 -0.55919291073839883 forward_v I I I I #
face $-1 $69 $70 $23 $-1 $71 forward single #
loop $-1 $72 $73 $29 #
cone-surface $-1 40.091976705892556 22.673475486680143 0.054330944662251746 -0.55919291073839883 0 -0.82903756765294845 1.6580751353058969 0 -1.1183858214767977 1 I I 0 1 2 forward I I I I #
face $-1 $74 $75 $18 $-1 $76 reversed single #
loop $-1 $-1 $77 $30 #
plane-surface $-1 0 0 -6.1604971043133574 0 0 1 1 0 0 forward_v I I I I #
coedge $-1 $78 $79 $80 $81 forward $31 $-1 #
face $-1 $82 $83 $19 $-1 $84 reversed single #
loop $-1 $-1 $85 $33 #
plane-surface $-1 0 -26.937140283962158 -3.1505956875990027 0 0 1 1 0 0 forward_v I I I I #
coedge $-1 $86 $87 $88 $89 reversed $34 $-1 #
face $-1 $90 $91 $20 $-1 $92 forward single #
loop $-1 $-1 $93 $36 #
plane-surface $-1 -46.664021729178771 24.8213345833917 2.5293043478624639 -0.70710678939079041 0 0.70710677298230451 0.70710677298230451 0 0.70710678939079041 forward_v I I I I #
coedge $-1 $94 $95 $96 $97 reversed $37 $-1 #
face $-1 $-1 $98 $21 $-1 $99 forward single #
loop $-1 $100 $101 $39 #
cone-surface $-1 -42.026914575924685 24.8213345833917 1.5233899744016419 0.70710678939079041 0 -0.70710677298230451 0.35355338649115226 0 0.35355339469539521 1 I I -0.70710678118654746 0.70710678118654746 0.5 forward I I I I #
loop $-1 $-1 $102 $27 #
coedge $-1 $64 $64 $103 $104 reversed $40 $-1 #
face $-1 $105 $106 $22 $-1 $107 reversed single #
loop $-1 $-1 $108 $42 #
plane-surface $-1 21.479947861652086 15.087468344513663 129.64899306351984 0 1 0 0.55919291073839883 0 0.82903756765294845 forward_v I I I I #
coedge $-1 $109 $110 $111 $112 reversed $43 $-1 #
face $-1 $-1 $113 $23 $-1 $114 forward single #
loop $-1 $115 $116 $45 #
cone-surface $-1 37.462044679699993 22.673475486680143 -3.8447035534829936 -0.55919291073839883 0 -0.82903756765294845 0.82903756765294845 0 -0.55919291073839883 1 I I -0.70710678118654768 0.70710678118654735 1 forward I I I I #
loop $-1 $-1 $117 $29 #
coedge $-1 $73 $73 $118 $119 reversed $46 $-1 #
face $-1 $120 $121 $18 $-1 $122 reversed single #
loop $-1 $-1 $123 $48 #
plane-surface $-1 0 -30.259482628846616 0 0 1 0 0 0 1 forward_v I I I I #
coedge $-1 $124 $125 $126 $127 forward $49 $-1 #
coedge $-1 $128 $51 $129 $130 forward $31 $-1 #
coedge $-1 $51 $128 $131 $132 forward $31 $-1 #
coedge $-1 $133 $134 $51 $81 reversed $135 $-1 #
edge $-1 $136 -30.259482628846616 $137 30.259482628846616 $80 $138 forward 7 unknown #
face $-1 $139 $140 $19 $-1 $141 reversed single #
loop $-1 $-1 $142 $52 #
plane-surface $-1 0 -23.614797939077697 -1.6505956875990027 0 -1 0 0 0 -1 forward_v I I I I #
coedge $-1 $143 $144 $145 $146 reversed $53 $-1 #
coedge $-1 $147 $55 $148 $149 forward $34 $-1 #
coedge $-1 $55 $147 $150 $151 reversed $34 $-1 #
coedge $-1 $152 $153 $55 $89 forward $154 $-1 #
edge $-1 $155 10.146227797096618 $156 16.79091248686554 $88 $157 forward 7 unknown #
face $-1 $158 $159 $20 $-1 $160 reversed single #
loop $-1 $-1 $96 $56 #
plane-surface $-1 0 0 6.1604971043133574 0 0 1 1 0 0 forward_v I I I I #
coedge $-1 $161 $162 $163 $164 reversed $57 $-1 #
coedge $-1 $95 $59 $165 $166 reversed $37 $-1 #
coedge $-1 $59 $94 $161 $167 reversed $37 $-1 #
coedge $-1 $163 $168 $59 $97 forward $91 $-1 #
edge $-1 $169 9.6644357203922979 $170 13.295628392580966 $96 $171 forward 7 unknown #
loop $-1 $-1 $103 $60 #
plane-surface $-1 -46.664021729178771 24.8213345833917 2.5293043478624639 -0.70710678939079041 0 0.70710677298230451 0.70710677298230451 0 0.70710678939079041 forward_v I I I I #
loop $-1 $-1 $172 $39 #
coedge $-1 $101 $101 $102 $173 reversed $61 $-1 #
coedge $-1 $102 $102 $101 $173 forward $63 $-1 #
coedge $-1 $103 $103 $64 $104 forward $98 $-1 #
edge $-1 $174 0 $174 6.2831853071796004 $103 $175 forward 7 unknown #
face $-1 $176 $177 $22 $-1 $178 forward single #
loop $-1 $-1 $179 $65 #
plane-surface $-1 46.664021729178749 0 0 -1 0 0 0 0 1 forward_v I I I I #
coedge $-1 $180 $181 $182 $183 reversed $66 $-1 #
coedge $-1 $184 $68 $185 $186 reversed $43 $-1 #
coedge $-1 $68 $184 $180 $187 forward $43 $-1 #
coedge $-1 $182 $188 $68 $112 forward $177 $-1 #
edge $-1 $189 -18.922744885506553 $190 -3.7507306011735917 $111 $191 forward 7 unknown #
loop $-1 $-1 $118 $69 #
plane-surface $-1 -30.708432413346628 22.673475486680143 52.276538920994469 0.55919291073839883 0 0.82903756765294845 0.82903756765294845 0 -0.55919291073839883 forward_v I I I I #
loop $-1 $-1 $192 $45 #
coedge $-1 $116 $116 $117 $193 reversed $70 $-1 #
coedge $-1 $117 $117 $116 $193 forward $72 $-1 #
coedge $-1 $118 $118 $73 $119 forward $113 $-1 #
edge $-1 $194 0 $194 6.2831853071796004 $118 $195 forward 7 unknown #
face $-1 $196 $197 $18 $-1 $198 reversed single #
loop $-1 $-1 $199 $74 #
plane-surface $-1 -46.664021729178749 0 0 1 0 0 0 0 -1 forward_v I I I I #
coedge $-1 $200 $131 $201 $202 forward $75 $-1 #
coedge $-1 $203 $77 $200 $204 forward $49 $-1 #
coedge $-1 $77 $203 $205 $206 forward $49 $-1 #
coedge $-1 $134 $133 $77 $127 reversed $135 $-1 #
edge $-1 $207 -30.259482628846616 $208 30.259482628846616 $126 $209 forward 7 unknown #
coedge $-1 $79 $78 $210 $211 forward $31 $-1 #
coedge $-1 $212 $213 $78 $130 reversed $197 $-1 #
edge $-1 $137 -46.664021729178749 $214 46.664021729178749 $129 $215 forward 7 unknown #
coedge $-1 $123 $216 $79 $132 reversed $75 $-1 #
edge $-1 $217 -46.664021729178749 $136 46.664021729178749 $131 $218 forward 7 unknown #
coedge $-1 $126 $80 $216 $219 forward $135 $-1 #
coedge $-1 $80 $126 $212 $220 reversed $135 $-1 #
loop $-1 $-1 $133 $196 #
vertex $-1 $81 $221 #
vertex $-1 $81 $222 #
straight-curve $-1 46.664021729178749 0 6.1604971043133574 0 1 0 I I #
face $-1 $223 $224 $19 $-1 $225 reversed single #
loop $-1 $-1 $226 $82 #
plane-surface $-1 -46.664021729178749 0 0 1 0 0 0 0 -1 forward_v I I I I #
coedge $-1 $227 $148 $153 $228 reversed $83 $-1 #
coedge $-1 $229 $85 $230 $231 reversed $53 $-1 #
coedge $-1 $85 $229 $227 $232 forward $53 $-1 #
coedge $-1 $153 $152 $85 $146 forward $154 $-1 #
edge $-1 $233 -16.79091248686554 $234 -10.146227797096618 $145 $235 forward 7 unknown #
coedge $-1 $87 $86 $226 $236 reversed $34 $-1 #
coedge $-1 $142 $237 $86 $149 reversed $83 $-1 #
edge $-1 $155 -46.664021729178749 $238 46.664021729178749 $148 $239 forward 7 unknown #
coedge $-1 $240 $241 $87 $151 forward $224 $-1 #
edge $-1 $156 -46.664021729178749 $242 46.664021729178749 $150 $243 forward 7 unknown #
coedge $-1 $145 $88 $241 $244 forward $154 $-1 #
coedge $-1 $88 $145 $142 $228 forward $154 $-1 #
loop $-1 $-1 $88 $223 #
vertex $-1 $89 $245 #
vertex $-1 $244 $246 #
straight-curve $-1 46.664021729178749 -13.468570141981079 -0.15059568759900266 0 -1 0 I I #
face $-1 $-1 $247 $20 $-1 $248 reversed single #
loop $-1 $-1 $249 $90 #
plane-surface $-1 0 30.259482628846616 0 0 -1 0 0 0 -1 forward_v I I I I #
coedge $-1 $250 $93 $95 $167 forward $57 $-1 #
coedge $-1 $93 $250 $249 $251 reversed $57 $-1 #
coedge $-1 $252 $96 $93 $164 forward $91 $-1 #
edge $-1 $170 6.9725192462409371 $253 17.848815337150761 $163 $254 forward 7 unknown #
coedge $-1 $255 $256 $94 $166 forward $247 $-1 #
edge $-1 $257 -31.731793645364469 $169 -28.100600888913597 $165 $258 forward 7 unknown #
edge $-1 $170 -5.1352819841814226 $257 -3.0145775206728491e-014 $95 $259 forward 7 unknown #
coedge $-1 $96 $252 $255 $260 forward $91 $-1 #
vertex $-1 $166 $261 #
vertex $-1 $97 $262 #
straight-curve $-1 -56.328457449571047 19.383186537936787 6.1604971043133574 1 0 0 I I #
coedge $-1 $172 $172 $-1 $263 reversed $100 $-1 #
edge $-1 $264 0 $264 6.2831853071796004 $101 $265 forward 7 unknown #
vertex $-1 $104 $266 #
ellipse-curve $-1 -44.848425393084412 24.8213345833917 4.3449007260879196 -0.70710678939079041 0 0.70710677298230451 0.70710677298230451 0 0.70710678939079041 1 I I #
face $-1 $-1 $267 $22 $-1 $268 reversed single #
loop $-1 $-1 $182 $105 #
plane-surface $-1 0 0 6.1604971043133574 0 0 1 1 0 0 forward_v I I I I #
coedge $-1 $269 $270 $181 $271 forward $106 $-1 #
coedge $-1 $181 $108 $110 $187 reversed $66 $-1 #
coedge $-1 $108 $180 $179 $271 reversed $66 $-1 #
coedge $-1 $272 $111 $108 $183 forward $177 $-1 #
edge $-1 $190 26.921435982688646 $273 35.924047798352703 $182 $274 forward 7 unknown #
coedge $-1 $110 $109 $269 $275 reversed $43 $-1 #
coedge $-1 $276 $277 $109 $186 forward $267 $-1 #
edge $-1 $278 -65.982486419879535 $189 -55.123374400202366 $185 $279 forward 7 unknown #
edge $-1 $280 -93.328043458357513 $190 -82.468931438680343 $180 $281 forward 7 unknown #
coedge $-1 $111 $272 $276 $282 forward $177 $-1 #
vertex $-1 $186 $283 #
vertex $-1 $112 $284 #
straight-curve $-1 37.661409913514696 11.336737743340072 6.1604971043133574 0 -1 0 I I #
coedge $-1 $192 $192 $-1 $285 reversed $115 $-1 #
edge $-1 $286 0 $286 6.2831853071796004 $116 $287 forward 7 unknown #
vertex $-1 $119 $288 #
ellipse-curve $-1 42.162715821346723 22.673475486680143 3.1243278751545502 0.55919291073839883 0 0.82903756765294845 1.6580751353058969 0 -1.1183858214767977 1 I I #
face $-1 $-1 $135 $18 $-1 $289 reversed single #
loop $-1 $-1 $212 $120 #
plane-surface $-1 0 30.259482628846616 0 0 -1 0 0 0 -1 forward_v I I I I #
coedge $-1 $290 $210 $213 $291 forward $121 $-1 #
coedge $-1 $216 $123 $124 $204 reversed $75 $-1 #
coedge $-1 $210 $290 $123 $202 reversed $121 $-1 #
edge $-1 $217 -6.1604971043133574 $292 6.1604971043133574 $201 $293 forward 7 unknown #
coedge $-1 $125 $124 $290 $294 forward $49 $-1 #
edge $-1 $208 -46.664021729178749 $292 46.664021729178749 $200 $295 forward 7 unknown #
coedge $-1 $213 $212 $125 $206 reversed $197 $-1 #
edge $-1 $296 -46.664021729178749 $207 46.664021729178749 $205 $297 forward 7 unknown #
vertex $-1 $127 $298 #
vertex $-1 $219 $299 #
straight-curve $-1 46.664021729178749 0 -6.1604971043133574 0 -1 0 I I #
coedge $-1 $199 $201 $128 $211 reversed $121 $-1 #
edge $-1 $214 -30.259482628846616 $217 30.259482628846616 $210 $300 forward 7 unknown #
coedge $-1 $205 $129 $134 $220 forward $197 $-1 #
coedge $-1 $129 $205 $199 $291 reversed $197 $-1 #
vertex $-1 $130 $301 #
straight-curve $-1 0 30.259482628846616 6.1604971043133574 -1 0 0 I I #
coedge $-1 $131 $200 $133 $219 reversed $75 $-1 #
vertex $-1 $211 $302 #
straight-curve $-1 0 -30.259482628846616 6.1604971043133574 1 0 0 I I #
edge $-1 $136 -6.1604971043133574 $208 6.1604971043133574 $133 $303 forward 7 unknown #
edge $-1 $137 -6.1604971043133574 $207 6.1604971043133574 $134 $304 forward 7 unknown #
point $-1 46.664021729178749 -30.259482628846616 6.1604971043133574 #
point $-1 46.664021729178749 30.259482628846616 6.1604971043133574 #
face $-1 $-1 $154 $19 $-1 $305 reversed single #
loop $-1 $-1 $150 $139 #
plane-surface $-1 0 -30.259482628846616 0 0 1 0 0 0 1 forward_v I I I I #
coedge $-1 $306 $307 $147 $236 forward $140 $-1 #
coedge $-1 $237 $142 $144 $232 reversed $83 $-1 #
edge $-1 $234 -2.3252978437995013 $155 0.67470215620049867 $153 $308 forward 7 unknown #
coedge $-1 $144 $143 $309 $310 reversed $53 $-1 #
coedge $-1 $241 $240 $143 $231 forward $224 $-1 #
edge $-1 $311 -46.664021729178749 $233 46.664021729178749 $230 $312 forward 7 unknown #
edge $-1 $313 -46.664021729178749 $234 46.664021729178749 $227 $314 forward 7 unknown #
vertex $-1 $231 $315 #
vertex $-1 $146 $316 #
straight-curve $-1 46.664021729178749 -13.468570141981079 -3.1505956875990027 0 1 0 I I #
edge $-1 $242 -16.79091248686554 $238 -10.146227797096618 $226 $317 forward 7 unknown #
coedge $-1 $148 $227 $306 $318 reversed $83 $-1 #
vertex $-1 $236 $319 #
straight-curve $-1 0 -23.614797939077697 -0.15059568759900266 -1 0 0 I I #
coedge $-1 $230 $150 $307 $320 forward $224 $-1 #
coedge $-1 $150 $230 $152 $244 reversed $224 $-1 #
vertex $-1 $320 $321 #
straight-curve $-1 0 -30.259482628846616 -0.15059568759900266 -1 0 0 I I #
edge $-1 $156 0.15059568759900266 $233 3.1505956875990027 $152 $322 forward 7 unknown #
point $-1 46.664021729178749 -23.614797939077697 -0.15059568759900266 #
point $-1 46.664021729178749 -30.259482628846619 -0.15059568759900266 #
loop $-1 $-1 $165 $158 #
plane-surface $-1 -46.664021729178749 0 0 1 0 0 0 0 -1 forward_v I I I I #
coedge $-1 $323 $324 $162 $251 forward $159 $-1 #
coedge $-1 $162 $161 $256 $325 reversed $57 $-1 #
edge $-1 $253 10.468696787061852 $326 15.603978771243243 $249 $327 forward 7 unknown #
coedge $-1 $168 $163 $324 $328 forward $91 $-1 #
vertex $-1 $328 $329 #
straight-curve $-1 -43.032829056990089 12.41066729169585 6.1604971043133574 0 1 0 I I #
coedge $-1 $330 $165 $168 $260 reversed $247 $-1 #
coedge $-1 $165 $330 $250 $325 forward $247 $-1 #
vertex $-1 $166 $331 #
straight-curve $-1 -46.664021729178749 19.383186537936787 34.261097993226954 0 0 1 I I #
straight-curve $-1 -46.664021729178771 19.383186537936787 2.5293043478624639 -0.70710677298230451 0 -0.70710678939079041 I I #
edge $-1 $332 -30.259482628846616 $169 -19.383186537936787 $255 $333 forward 7 unknown #
point $-1 -46.664021729178749 19.383186537936787 6.1604971043133574 #
point $-1 -43.032829056990082 19.383186537936787 6.1604971043133574 #
edge $-1 $334 1 $334 0 $172 $-1 forward 7 unknown #
vertex $-1 $173 $335 #
ellipse-curve $-1 -42.380467970620082 24.8213345833917 1.8769433608927941 -0.70710678939079041 0 0.70710677298230451 0.70710677298230451 0 0.70710678939079041 1 I I #
point $-1 -44.141318620102098 24.8213345833917 5.0520075154786976 #
loop $-1 $-1 $185 $176 #
plane-surface $-1 0 30.259482628846616 0 0 -1 0 0 0 -1 forward_v I I I I #
coedge $-1 $336 $179 $184 $275 forward $106 $-1 #
coedge $-1 $179 $336 $272 $337 reversed $106 $-1 #
edge $-1 $273 58.663999427446562 $280 64.736337885764172 $179 $338 forward 7 unknown #
coedge $-1 $188 $182 $270 $337 forward $177 $-1 #
vertex $-1 $337 $339 #
straight-curve $-1 10.739973930826043 15.087468344513663 6.1604971043133574 1 0 0 I I #
edge $-1 $280 3.7507306011735917 $278 18.922744885506553 $269 $340 forward 7 unknown #
coedge $-1 $277 $185 $188 $282 reversed $267 $-1 #
coedge $-1 $185 $276 $336 $341 forward $267 $-1 #
vertex $-1 $186 $342 #
straight-curve $-1 -8.0379383200518859 30.259482628846616 36.985097284885065 -0.82903756765294845 0 0.55919291073839883 I I #
vertex $-1 $275 $343 #
straight-curve $-1 -30.708432413346628 15.087468344513663 52.276538920994469 -0.82903756765294845 0 0.55919291073839883 I I #
edge $-1 $344 -46.664021729178749 $189 -37.661409913514689 $276 $345 forward 7 unknown #
point $-1 37.661409913514689 30.259482628846623 6.1604971043133574 #
point $-1 37.661409913514689 15.087468344513663 6.1604971043133574 #
edge $-1 $346 1 $346 0 $192 $-1 forward 7 unknown #
vertex $-1 $193 $347 #
ellipse-curve $-1 38.021237590438389 22.673475486680143 -3.0156659858300454 0.55919291073839883 0 0.82903756765294845 1.6580751353058969 0 -1.1183858214767977 1 I I #
point $-1 43.820790956652615 22.673475486680143 2.0059420536777512 #
plane-surface $-1 46.664021729178749 0 0 -1 0 0 0 0 1 forward_v I I I I #
coedge $-1 $201 $199 $203 $294 reversed $121 $-1 #
edge $-1 $214 -6.1604971043133574 $296 6.1604971043133574 $213 $348 forward 7 unknown #
vertex $-1 $294 $349 #
straight-curve $-1 -46.664021729178749 -30.259482628846616 0 0 0 -1 I I #
edge $-1 $292 -30.259482628846616 $296 30.259482628846616 $290 $350 forward 7 unknown #
straight-curve $-1 0 -30.259482628846616 -6.1604971043133574 -1 0 0 I I #
vertex $-1 $206 $351 #
straight-curve $-1 0 30.259482628846616 -6.1604971043133574 1 0 0 I I #
point $-1 46.664021729178749 30.259482628846616 -6.1604971043133574 #
point $-1 46.664021729178749 -30.259482628846616 -6.1604971043133574 #
straight-curve $-1 -46.664021729178749 0 6.1604971043133574 0 -1 0 I I #
point $-1 -46.664021729178749 30.259482628846616 6.1604971043133574 #
point $-1 -46.664021729178749 -30.259482628846616 6.1604971043133574 #
straight-curve $-1 46.664021729178749 -30.259482628846616 0 0 0 -1 I I #
straight-curve $-1 46.664021729178749 30.259482628846616 0 0 0 -1 I I #
plane-surface $-1 46.664021729178749 0 0 -1 0 0 0 0 1 forward_v I I I I #
coedge $-1 $309 $226 $237 $318 forward $140 $-1 #
coedge $-1 $226 $309 $240 $320 reversed $140 $-1 #
straight-curve $-1 46.664021729178749 -23.614797939077697 -0.82529784379950133 0 0 1 I I #
coedge $-1 $307 $306 $229 $310 forward $140 $-1 #
edge $-1 $313 10.146227797096618 $311 16.79091248686554 $309 $352 forward 7 unknown #
vertex $-1 $231 $353 #
straight-curve $-1 0 -30.259482628846616 -3.1505956875990027 1 0 0 I I #
vertex $-1 $310 $354 #
straight-curve $-1 0 -23.614797939077697 -3.1505956875990027 1 0 0 I I #
point $-1 46.664021729178749 -30.259482628846619 -3.1505956875990027 #
point $-1 46.664021729178749 -23.614797939077697 -3.1505956875990027 #
straight-curve $-1 -46.664021729178749 -13.468570141981079 -0.15059568759900266 0 1 0 I I #
edge $-1 $238 -0.67470215620049867 $313 2.3252978437995013 $306 $355 forward 7 unknown #
point $-1 -46.664021729178749 -23.614797939077697 -0.15059568759900266 #
edge $-1 $242 0.15059568759900266 $311 3.1505956875990027 $307 $356 forward 7 unknown #
point $-1 -46.664021729178749 -30.259482628846619 -0.15059568759900266 #
straight-curve $-1 46.664021729178749 -30.259482628846616 0 0 0 -1 I I #
coedge $-1 $324 $249 $330 $357 reversed $159 $-1 #
coedge $-1 $249 $323 $252 $328 reversed $159 $-1 #
edge $-1 $326 -17.848815337150761 $257 -6.9725192462409371 $256 $358 forward 7 unknown #
vertex $-1 $251 $359 #
straight-curve $-1 -35.630342654560557 30.259482628846616 13.562983678518346 -0.70710677298230462 0 -0.70710678939079052 I I #
edge $-1 $253 43.032829056990082 $332 46.664021729178749 $324 $360 forward 7 unknown #
point $-1 -43.032829056990082 30.259482628846612 6.1604971043133574 #
coedge $-1 $256 $255 $323 $357 forward $247 $-1 #
point $-1 -46.664021729178749 19.383186537936787 2.5293043478624853 #
vertex $-1 $328 $361 #
straight-curve $-1 -46.664021729178749 0 6.1604971043133574 0 -1 0 I I #
vertex $-1 $263 $362 #
point $-1 -41.673361197637774 24.8213345833917 2.5840501502835846 #
coedge $-1 $270 $269 $277 $341 reversed $106 $-1 #
edge $-1 $273 15.087468344513663 $344 30.259482628846616 $270 $363 forward 7 unknown #
straight-curve $-1 46.664021729178749 15.087468344513663 64.82449653175992 0 0 -1 I I #
point $-1 46.664021729178749 15.087468344513663 6.1604971043133574 #
straight-curve $-1 46.664021729178749 11.336737743340072 0.088158645995743967 0 1 0 I I #
edge $-1 $344 -6.1604971043133574 $278 -0.08815864599574752 $336 $364 forward 7 unknown #
point $-1 46.664021729178756 30.259482628846623 0.08815864599574752 #
point $-1 46.664021729178756 15.087468344513663 0.08815864599574752 #
vertex $-1 $337 $365 #
straight-curve $-1 0 30.259482628846616 6.1604971043133574 -1 0 0 I I #
vertex $-1 $285 $366 #
point $-1 39.679312725744289 22.673475486680143 -4.1340518073068431 #
straight-curve $-1 -46.664021729178749 30.259482628846616 0 0 0 -1 I I #
point $-1 -46.664021729178749 -30.259482628846616 -6.1604971043133574 #
straight-curve $-1 -46.664021729178749 0 -6.1604971043133574 0 1 0 I I #
point $-1 -46.664021729178749 30.259482628846616 -6.1604971043133574 #
straight-curve $-1 -46.664021729178749 -13.468570141981079 -3.1505956875990027 0 -1 0 I I #
point $-1 -46.664021729178749 -30.259482628846619 -3.1505956875990027 #
point $-1 -46.664021729178749 -23.614797939077697 -3.1505956875990027 #
straight-curve $-1 -46.664021729178749 -23.614797939077697 -0.82529784379950133 0 0 -1 I I #
straight-curve $-1 -46.664021729178749 -30.259482628846616 0 0 0 -1 I I #
edge $-1 $332 -6.1604971043133574 $326 -2.5293043478624853 $323 $367 forward 7 unknown #
straight-curve $-1 -46.664021729178749 12.41066729169585 2.5293043478624799 0 -1 0 I I #
point $-1 -46.664021729178749 30.259482628846612 2.5293043478624853 #
straight-curve $-1 0 30.259482628846616 6.1604971043133574 -1 0 0 I I #
point $-1 -46.664021729178749 30.259482628846616 6.1604971043133574 #
point $-1 -41.673361181229289 24.8213345833917 1.1698365879104897 #
straight-curve $-1 46.664021729178749 0 6.1604971043133574 0 1 0 I I #
straight-curve $-1 46.664021729178749 30.259482628846616 0 0 0 -1 I I #
point $-1 46.664021729178749 30.259482628846616 6.1604971043133574 #
point $-1 36.902851768961597 22.673475486680143 -4.6737411211359419 #
straight-curve $-1 -46.664021729178749 30.259482628846616 0 0 0 -1 I I #
End-of-ACIS-data 