500 0 11 0           
7 Unknown 11 ACIS 5.0 NT 24 Fri Mar 26 19:05:42 1999 
-1 9.9999999999999995e-007 1e-010 
body $-1 $11 $-1 $12 #
body $-1 $13 $-1 $14 #
body $-1 $15 $-1 $16 #
body $-1 $17 $-1 $18 #
body $-1 $19 $-1 $20 #
body $-1 $21 $-1 $22 #
body $-1 $23 $-1 $24 #
body $-1 $25 $-1 $26 #
body $-1 $27 $-1 $28 #
body $-1 $29 $-1 $30 #
body $-1 $31 $-1 $32 #
lump $-1 $-1 $33 $0 #
transform $-1 1 0 0 0 1 0 0 0 1 48.039796136356699 20.407420341197458 7.8128899793761946 1 rotate no_reflect no_shear #
lump $-1 $-1 $34 $1 #
transform $-1 1 0 0 0 1 0 0 0 1 48.039796136356699 20.407420341197458 7.8128899793761946 1 rotate no_reflect no_shear #
lump $-1 $-1 $35 $2 #
transform $-1 1 0 0 0 1 0 0 0 1 48.039796136356699 20.407420341197458 7.8128899793761946 1 rotate no_reflect no_shear #
lump $-1 $-1 $36 $3 #
transform $-1 1 0 0 0 1 0 0 0 1 48.039796136356699 20.407420341197458 7.8128899793761946 1 rotate no_reflect no_shear #
lump $-1 $-1 $37 $4 #
transform $-1 1 0 0 0 1 0 0 0 1 48.039796136356699 20.407420341197458 7.8128899793761946 1 rotate no_reflect no_shear #
lump $-1 $-1 $38 $5 #
transform $-1 1 0 0 0 1 0 0 0 1 48.039796136356699 20.407420341197458 7.8128899793761946 1 rotate no_reflect no_shear #
lump $-1 $-1 $39 $6 #
transform $-1 1 0 0 0 1 0 0 0 1 48.039796136356699 20.407420341197458 7.8128899793761946 1 rotate no_reflect no_shear #
lump $-1 $-1 $40 $7 #
transform $-1 1 0 0 0 1 0 0 0 1 48.039796136356699 20.407420341197458 7.8128899793761946 1 rotate no_reflect no_shear #
lump $-1 $-1 $41 $8 #
transform $-1 1 0 0 0 1 0 0 0 1 48.039796136356699 20.407420341197458 7.8128899793761946 1 rotate no_reflect no_shear #
lump $-1 $-1 $42 $9 #
transform $-1 1 0 0 0 1 0 0 0 1 48.039796136356699 20.407420341197458 7.8128899793761946 1 rotate no_reflect no_shear #
lump $-1 $-1 $43 $10 #
transform $-1 1 0 0 0 1 0 0 0 1 48.039796136356699 20.407420341197458 7.8128899793761946 1 rotate no_reflect no_shear #
shell $-1 $-1 $-1 $44 $-1 $11 #
shell $-1 $-1 $-1 $45 $-1 $13 #
shell $-1 $-1 $-1 $46 $-1 $15 #
shell $-1 $-1 $-1 $47 $-1 $17 #
shell $-1 $-1 $-1 $48 $-1 $19 #
shell $-1 $-1 $-1 $49 $-1 $21 #
shell $-1 $-1 $-1 $50 $-1 $23 #
shell $-1 $-1 $-1 $51 $-1 $25 #
shell $-1 $-1 $-1 $52 $-1 $27 #
shell $-1 $-1 $-1 $53 $-1 $29 #
shell $-1 $-1 $-1 $54 $-1 $31 #
face $-1 $55 $56 $33 $-1 $57 reversed single #
face $-1 $58 $59 $34 $-1 $60 forward single #
face $-1 $61 $62 $35 $-1 $63 forward single #
face $-1 $64 $65 $36 $-1 $66 reversed single #
face $-1 $67 $68 $37 $-1 $69 forward single #
face $-1 $70 $71 $38 $-1 $72 reversed single #
face $-1 $73 $74 $39 $-1 $75 forward single #
face $-1 $76 $77 $40 $-1 $78 reversed single #
face $-1 $79 $80 $41 $-1 $81 forward single #
face $-1 $82 $83 $42 $-1 $84 reversed single #
face $-1 $85 $86 $43 $-1 $87 forward single #
face $-1 $88 $89 $33 $-1 $90 forward single #
loop $-1 $-1 $91 $44 #
plane-surface $-1 48.039796136356699 0 0 -1 0 0 0 0 1 forward_v I I I I #
face $-1 $92 $93 $34 $-1 $94 reversed single #
loop $-1 $-1 $95 $45 #
plane-surface $-1 -48.039796136356699 0 0 1 0 0 0 0 -1 forward_v I I I I #
face $-1 $96 $97 $35 $-1 $98 reversed single #
loop $-1 $-1 $99 $46 #
plane-surface $-1 48.039796136356699 0 0 -1 0 0 0 0 1 forward_v I I I I #
face $-1 $100 $101 $36 $-1 $102 reversed single #
loop $-1 $-1 $103 $47 #
plane-surface $-1 -30.065654848104657 80.258966582358084 86.335519906462281 1 0 0 0 -0.84804810408105047 -0.52991925155115449 forward_v I I I I #
face $-1 $104 $105 $37 $-1 $106 forward single #
loop $-1 $107 $108 $48 #
cone-surface $-1 -23.588921942101855 14.951010320059812 2.2685167703258537 0 -0.84804810408105047 -0.52991925155115449 2 0 0 1 I I 0 1 2 forward I I I I #
face $-1 $109 $110 $38 $-1 $111 reversed single #
loop $-1 $-1 $112 $49 #
plane-surface $-1 17.112189036099046 80.258966582358084 86.335519906462281 1 0 0 0 -0.84804810408105047 -0.52991925155115449 forward_v I I I I #
face $-1 $113 $114 $39 $-1 $115 forward single #
loop $-1 $116 $117 $50 #
cone-surface $-1 23.588921942101848 14.951010320059812 2.2685167703258537 0 -0.84804810408105047 -0.52991925155115449 2 0 0 1 I I 0 1 2 forward I I I I #
face $-1 $118 $119 $40 $-1 $120 reversed single #
loop $-1 $-1 $121 $51 #
plane-surface $-1 -17.112189036099053 -101.8875364089524 51.722571647387142 -1 0 0 0 -0.84804810408105047 0.52991925155115449 forward_v I I I I #
face $-1 $122 $123 $41 $-1 $124 forward single #
loop $-1 $125 $126 $52 #
cone-surface $-1 -23.588921942101855 -14.951010320059812 2.2685167703258537 0 0.84804810408105047 -0.52991925155115449 2 0 0 1 I I 0 1 2 forward I I I I #
face $-1 $127 $128 $42 $-1 $129 reversed single #
loop $-1 $-1 $130 $53 #
plane-surface $-1 30.06565484810465 -101.8875364089524 51.722571647387142 -1 0 0 0 -0.84804810408105047 0.52991925155115449 forward_v I I I I #
face $-1 $131 $132 $43 $-1 $133 forward single #
loop $-1 $134 $135 $54 #
cone-surface $-1 23.588921942101848 -14.951010320059812 2.2685167703258537 0 0.84804810408105047 -0.52991925155115449 2 0 0 1 I I 0 1 2 forward I I I I #
face $-1 $136 $137 $33 $-1 $138 reversed single #
loop $-1 $-1 $139 $55 #
plane-surface $-1 0 0 7.8128899793761946 0 0 1 1 0 0 forward_v I I I I #
coedge $-1 $140 $141 $142 $143 reversed $56 $-1 #
face $-1 $144 $145 $34 $-1 $146 forward single #
loop $-1 $-1 $147 $58 #
plane-surface $-1 0 20.407420341197458 0 0 -1 0 0 0 -1 forward_v I I I I #
coedge $-1 $148 $149 $150 $151 forward $59 $-1 #
face $-1 $152 $153 $35 $-1 $154 forward single #
loop $-1 $-1 $155 $61 #
plane-surface $-1 0 -20.407420341197458 0 0 1 0 0 0 1 forward_v I I I I #
coedge $-1 $156 $157 $158 $159 forward $62 $-1 #
face $-1 $160 $161 $36 $-1 $162 reversed single #
loop $-1 $-1 $163 $64 #
plane-surface $-1 -23.588921942101855 -1.2211494853968645 35.421094279965914 0 0.84804810408105047 0.52991925155115449 1 0 0 forward_v I I I I #
coedge $-1 $164 $165 $166 $167 reversed $65 $-1 #
face $-1 $-1 $168 $37 $-1 $169 forward single #
loop $-1 $170 $171 $67 #
cone-surface $-1 -23.588921942101855 10.835077030829257 -0.30340371103292796 0 -0.84804810408105047 -0.52991925155115449 1 0 0 1 I I -0.70710678118654746 0.70710678118654746 1 forward I I I I #
loop $-1 $-1 $172 $48 #
coedge $-1 $108 $108 $173 $174 reversed $68 $-1 #
face $-1 $175 $176 $38 $-1 $177 reversed single #
loop $-1 $-1 $178 $70 #
plane-surface $-1 23.588921942101848 -1.2211494853968645 35.421094279965914 0 0.84804810408105047 0.52991925155115449 1 0 0 forward_v I I I I #
coedge $-1 $179 $180 $181 $182 reversed $71 $-1 #
face $-1 $-1 $183 $39 $-1 $184 forward single #
loop $-1 $185 $186 $73 #
cone-surface $-1 23.588921942101848 10.835077030829257 -0.30340371103292796 0 -0.84804810408105047 -0.52991925155115449 1 0 0 1 I I -0.70710678118654746 0.70710678118654746 1 forward I I I I #
loop $-1 $-1 $187 $50 #
coedge $-1 $117 $117 $188 $189 reversed $74 $-1 #
face $-1 $190 $191 $40 $-1 $192 reversed single #
loop $-1 $-1 $193 $76 #
plane-surface $-1 -23.588921942101855 -20.407420341197451 0.80814602089077425 0 -0.84804810408105047 0.52991925155115449 1 0 0 forward_v I I I I #
coedge $-1 $194 $195 $196 $197 reversed $77 $-1 #
face $-1 $-1 $198 $41 $-1 $199 forward single #
loop $-1 $200 $201 $79 #
cone-surface $-1 -23.588921942101855 -10.835077030829257 -0.30340371103292796 0 0.84804810408105047 -0.52991925155115449 1 0 0 1 I I -0.70710678118654746 0.70710678118654746 1 forward I I I I #
loop $-1 $-1 $202 $52 #
coedge $-1 $126 $126 $203 $204 reversed $80 $-1 #
face $-1 $205 $206 $42 $-1 $207 reversed single #
loop $-1 $-1 $208 $82 #
plane-surface $-1 23.588921942101848 -20.407420341197451 0.80814602089077425 0 -0.84804810408105047 0.52991925155115449 1 0 0 forward_v I I I I #
coedge $-1 $209 $210 $211 $212 reversed $83 $-1 #
face $-1 $-1 $213 $43 $-1 $214 forward single #
loop $-1 $215 $216 $85 #
cone-surface $-1 23.588921942101848 -10.835077030829257 -0.30340371103292796 0 0.84804810408105047 -0.52991925155115449 1 0 0 1 I I -0.70710678118654746 0.70710678118654746 1 forward I I I I #
loop $-1 $-1 $217 $54 #
coedge $-1 $135 $135 $218 $219 reversed $86 $-1 #
face $-1 $220 $221 $33 $-1 $222 reversed single #
loop $-1 $-1 $223 $88 #
plane-surface $-1 0 0 -7.8128899793761946 0 0 1 1 0 0 forward_v I I I I #
coedge $-1 $224 $225 $140 $226 forward $89 $-1 #
coedge $-1 $227 $91 $139 $226 reversed $56 $-1 #
coedge $-1 $91 $227 $223 $228 reversed $56 $-1 #
coedge $-1 $229 $230 $91 $143 forward $231 $-1 #
edge $-1 $232 -7.8128899793761946 $233 7.8128899793761946 $91 $234 forward 7 unknown #
face $-1 $235 $236 $34 $-1 $237 reversed single #
loop $-1 $-1 $150 $92 #
plane-surface $-1 -50.794853810647901 0 0.40511326173299622 0 0 1 1 0 0 forward_v I I I I #
coedge $-1 $238 $239 $149 $240 forward $93 $-1 #
coedge $-1 $241 $95 $242 $243 reversed $59 $-1 #
coedge $-1 $95 $241 $147 $240 reversed $59 $-1 #
coedge $-1 $244 $245 $95 $151 reversed $145 $-1 #
edge $-1 $246 -20.407420341197458 $247 20.407420341197458 $150 $248 forward 7 unknown #
face $-1 $249 $250 $35 $-1 $251 reversed single #
loop $-1 $-1 $252 $96 #
plane-surface $-1 50.794853810647908 0 0.40511326173299622 0 0 1 1 0 0 forward_v I I I I #
coedge $-1 $253 $254 $157 $255 forward $97 $-1 #
coedge $-1 $256 $99 $257 $258 reversed $62 $-1 #
coedge $-1 $99 $256 $155 $255 reversed $62 $-1 #
coedge $-1 $259 $260 $99 $159 reversed $153 $-1 #
edge $-1 $261 -20.407420341197458 $262 20.407420341197458 $158 $263 forward 7 unknown #
face $-1 $264 $265 $36 $-1 $266 reversed single #
loop $-1 $-1 $267 $100 #
plane-surface $-1 -17.112189036099053 80.258966582358084 86.335519906462281 -1 0 0 0 0.84804810408105047 0.52991925155115449 forward_v I I I I #
coedge $-1 $268 $269 $270 $271 reversed $101 $-1 #
coedge $-1 $165 $103 $272 $273 reversed $65 $-1 #
coedge $-1 $103 $164 $268 $274 reversed $65 $-1 #
coedge $-1 $270 $275 $103 $167 forward $276 $-1 #
edge $-1 $277 19.722062949981584 $278 24.099112621957854 $166 $279 forward 7 unknown #
loop $-1 $-1 $173 $104 #
plane-surface $-1 -23.588921942101855 -1.2211494853968645 35.421094279965914 0 0.84804810408105047 0.52991925155115449 1 0 0 forward_v I I I I #
loop $-1 $-1 $280 $67 #
coedge $-1 $171 $171 $172 $281 reversed $105 $-1 #
coedge $-1 $172 $172 $171 $281 forward $107 $-1 #
coedge $-1 $173 $173 $108 $174 forward $168 $-1 #
edge $-1 $282 3.7700270109167406e-016 $282 6.2831853071796004 $173 $283 forward 7 unknown #
face $-1 $284 $285 $38 $-1 $286 forward single #
loop $-1 $-1 $287 $109 #
plane-surface $-1 30.06565484810465 80.258966582358084 86.335519906462281 -1 0 0 0 0.84804810408105047 0.52991925155115449 forward_v I I I I #
coedge $-1 $288 $289 $290 $291 reversed $110 $-1 #
coedge $-1 $180 $112 $292 $293 reversed $71 $-1 #
coedge $-1 $112 $179 $288 $294 reversed $71 $-1 #
coedge $-1 $290 $295 $112 $182 forward $285 $-1 #
edge $-1 $296 19.722062949981584 $297 24.099112621957854 $181 $298 forward 7 unknown #
loop $-1 $-1 $188 $113 #
plane-surface $-1 23.588921942101848 -1.2211494853968645 35.421094279965914 0 0.84804810408105047 0.52991925155115449 1 0 0 forward_v I I I I #
loop $-1 $-1 $299 $73 #
coedge $-1 $186 $186 $187 $300 reversed $114 $-1 #
coedge $-1 $187 $187 $186 $300 forward $116 $-1 #
coedge $-1 $188 $188 $117 $189 forward $183 $-1 #
edge $-1 $301 3.7700270109167406e-016 $301 6.2831853071796004 $188 $302 forward 7 unknown #
face $-1 $303 $304 $40 $-1 $305 forward single #
loop $-1 $-1 $306 $118 #
plane-surface $-1 -30.065654848104657 -101.8875364089524 51.722571647387142 1 0 0 0 0.84804810408105047 -0.52991925155115449 forward_v I I I I #
coedge $-1 $307 $308 $309 $310 reversed $119 $-1 #
coedge $-1 $195 $121 $311 $312 reversed $77 $-1 #
coedge $-1 $121 $194 $307 $313 reversed $77 $-1 #
coedge $-1 $309 $314 $121 $197 forward $304 $-1 #
edge $-1 $315 30.536347863278742 $316 34.913397535255029 $196 $317 forward 7 unknown #
loop $-1 $-1 $203 $122 #
plane-surface $-1 -23.588921942101855 -20.407420341197451 0.80814602089077425 0 -0.84804810408105047 0.52991925155115449 1 0 0 forward_v I I I I #
loop $-1 $-1 $318 $79 #
coedge $-1 $201 $201 $202 $319 reversed $123 $-1 #
coedge $-1 $202 $202 $201 $319 forward $125 $-1 #
coedge $-1 $203 $203 $126 $204 forward $198 $-1 #
edge $-1 $320 -5.6471667436655775e-016 $320 6.2831853071795996 $203 $321 forward 7 unknown #
face $-1 $322 $323 $42 $-1 $324 reversed single #
loop $-1 $-1 $325 $127 #
plane-surface $-1 17.112189036099046 -101.8875364089524 51.722571647387142 1 0 0 0 0.84804810408105047 -0.52991925155115449 forward_v I I I I #
coedge $-1 $326 $327 $328 $329 reversed $128 $-1 #
coedge $-1 $210 $130 $330 $331 reversed $83 $-1 #
coedge $-1 $130 $209 $326 $332 reversed $83 $-1 #
coedge $-1 $328 $333 $130 $212 forward $334 $-1 #
edge $-1 $335 30.536347863278742 $336 34.913397535255029 $211 $337 forward 7 unknown #
loop $-1 $-1 $218 $131 #
plane-surface $-1 23.588921942101848 -20.407420341197451 0.80814602089077425 0 -0.84804810408105047 0.52991925155115449 1 0 0 forward_v I I I I #
loop $-1 $-1 $338 $85 #
coedge $-1 $216 $216 $217 $339 reversed $132 $-1 #
coedge $-1 $217 $217 $216 $339 forward $134 $-1 #
coedge $-1 $218 $218 $135 $219 forward $213 $-1 #
edge $-1 $340 -5.6471667436655775e-016 $340 6.2831853071795996 $218 $341 forward 7 unknown #
face $-1 $342 $343 $33 $-1 $344 reversed single #
loop $-1 $-1 $345 $136 #
plane-surface $-1 0 -20.407420341197458 0 0 1 0 0 0 1 forward_v I I I I #
coedge $-1 $346 $347 $141 $228 forward $137 $-1 #
coedge $-1 $348 $139 $230 $349 forward $89 $-1 #
coedge $-1 $139 $348 $350 $351 forward $89 $-1 #
edge $-1 $352 -20.407420341197458 $232 20.407420341197458 $140 $353 forward 7 unknown #
coedge $-1 $141 $140 $354 $355 forward $56 $-1 #
edge $-1 $233 -20.407420341197458 $356 20.407420341197458 $141 $357 forward 7 unknown #
coedge $-1 $358 $142 $347 $359 reversed $231 $-1 #
coedge $-1 $142 $358 $224 $349 reversed $231 $-1 #
loop $-1 $-1 $142 $342 #
vertex $-1 $226 $360 #
vertex $-1 $228 $361 #
straight-curve $-1 48.039796136356699 20.407420341197458 0 0 0 -1 I I #
face $-1 $362 $363 $34 $-1 $364 reversed single #
loop $-1 $-1 $365 $144 #
plane-surface $-1 -50.794853810647901 0 -2.5948867382670038 0 0 1 1 0 0 forward_v I I I I #
coedge $-1 $366 $147 $367 $368 reversed $93 $-1 #
coedge $-1 $147 $366 $244 $369 reversed $93 $-1 #
edge $-1 $246 -0.40511326173299622 $370 2.5948867382670038 $147 $371 forward 7 unknown #
coedge $-1 $149 $148 $365 $372 forward $59 $-1 #
coedge $-1 $373 $374 $148 $243 forward $375 $-1 #
edge $-1 $376 -2.5948867382670038 $247 0.40511326173299622 $242 $377 forward 7 unknown #
coedge $-1 $378 $150 $239 $369 forward $145 $-1 #
coedge $-1 $150 $378 $373 $379 forward $145 $-1 #
vertex $-1 $240 $380 #
vertex $-1 $379 $381 #
straight-curve $-1 -48.039796136356699 0 0.40511326173299622 0 -1 0 I I #
face $-1 $382 $383 $35 $-1 $384 reversed single #
loop $-1 $-1 $385 $152 #
plane-surface $-1 50.794853810647908 0 -2.5948867382670038 0 0 1 1 0 0 forward_v I I I I #
coedge $-1 $260 $259 $386 $387 forward $153 $-1 #
coedge $-1 $388 $155 $389 $390 reversed $97 $-1 #
coedge $-1 $155 $388 $259 $391 reversed $97 $-1 #
edge $-1 $261 -0.40511326173299622 $392 2.5948867382670038 $155 $393 forward 7 unknown #
coedge $-1 $157 $156 $394 $395 forward $62 $-1 #
coedge $-1 $396 $397 $156 $258 forward $398 $-1 #
edge $-1 $399 -2.5948867382670038 $262 0.40511326173299622 $257 $400 forward 7 unknown #
coedge $-1 $252 $158 $254 $391 forward $153 $-1 #
coedge $-1 $158 $252 $396 $401 forward $153 $-1 #
vertex $-1 $255 $402 #
vertex $-1 $401 $403 #
straight-curve $-1 48.039796136356699 0 0.40511326173299622 0 1 0 I I #
face $-1 $-1 $276 $36 $-1 $404 forward single #
loop $-1 $-1 $405 $160 #
plane-surface $-1 0 20.407420341197458 0 0 -1 0 0 0 -1 forward_v I I I I #
coedge $-1 $406 $407 $408 $409 reversed $161 $-1 #
coedge $-1 $410 $163 $165 $274 forward $101 $-1 #
coedge $-1 $163 $410 $406 $411 forward $101 $-1 #
coedge $-1 $408 $166 $163 $271 forward $276 $-1 #
edge $-1 $278 -18.271193877053729 $412 -5.3177280650481258 $270 $413 forward 7 unknown #
coedge $-1 $414 $415 $164 $273 forward $265 $-1 #
edge $-1 $416 -42.359613932340359 $277 -35.354869973854946 $272 $417 forward 7 unknown #
edge $-1 $278 32.554997962652266 $416 40.814840682394909 $165 $418 forward 7 unknown #
coedge $-1 $166 $408 $414 $419 forward $276 $-1 #
loop $-1 $-1 $408 $264 #
vertex $-1 $273 $420 #
vertex $-1 $167 $421 #
straight-curve $-1 -30.065654848104657 40.129483291179042 7.8128899793761946 0 -1 0 I I #
coedge $-1 $280 $280 $-1 $422 reversed $170 $-1 #
edge $-1 $423 0 $423 6.2831853071796004 $171 $424 forward 7 unknown #
vertex $-1 $174 $425 #
ellipse-curve $-1 -23.588921942101855 18.218895505209325 4.3105180001334862 0 0.84804810408105047 0.52991925155115449 2 0 0 1 I I #
face $-1 $-1 $426 $38 $-1 $427 reversed single #
loop $-1 $-1 $181 $175 #
plane-surface $-1 0 0 7.8128899793761946 0 0 1 1 0 0 forward_v I I I I #
coedge $-1 $428 $429 $430 $431 reversed $176 $-1 #
coedge $-1 $432 $178 $180 $294 forward $110 $-1 #
coedge $-1 $178 $432 $428 $433 forward $110 $-1 #
coedge $-1 $430 $181 $178 $291 forward $285 $-1 #
edge $-1 $297 5.3177280650481222 $434 18.271193877053726 $290 $435 forward 7 unknown #
coedge $-1 $436 $437 $179 $293 forward $426 $-1 #
edge $-1 $438 -42.359613932340359 $296 -35.354869973854946 $292 $439 forward 7 unknown #
edge $-1 $297 32.554997962652266 $438 40.814840682394909 $180 $440 forward 7 unknown #
coedge $-1 $181 $430 $436 $441 forward $285 $-1 #
vertex $-1 $182 $442 #
vertex $-1 $182 $443 #
straight-curve $-1 17.112189036099046 40.129483291179042 7.8128899793761946 0 -1 0 I I #
coedge $-1 $299 $299 $-1 $444 reversed $185 $-1 #
edge $-1 $445 0 $445 6.2831853071796004 $186 $446 forward 7 unknown #
vertex $-1 $189 $447 #
ellipse-curve $-1 23.588921942101848 18.218895505209325 4.3105180001334862 0 0.84804810408105047 0.52991925155115449 2 0 0 1 I I #
face $-1 $-1 $448 $40 $-1 $449 reversed single #
loop $-1 $-1 $196 $190 #
plane-surface $-1 0 0 7.8128899793761946 0 0 1 1 0 0 forward_v I I I I #
coedge $-1 $450 $451 $452 $453 reversed $191 $-1 #
coedge $-1 $454 $193 $195 $313 forward $119 $-1 #
coedge $-1 $193 $454 $450 $455 forward $119 $-1 #
coedge $-1 $452 $196 $193 $310 forward $304 $-1 #
edge $-1 $316 5.3177280650481258 $456 18.271193877053729 $309 $457 forward 7 unknown #
coedge $-1 $458 $459 $194 $312 forward $448 $-1 #
edge $-1 $460 -25.053139802802807 $315 -18.048395844317376 $311 $461 forward 7 unknown #
edge $-1 $316 -8.2598427197426485 $460 1.3368832564924053e-014 $195 $462 forward 7 unknown #
coedge $-1 $196 $452 $458 $463 forward $304 $-1 #
vertex $-1 $312 $464 #
vertex $-1 $197 $465 #
straight-curve $-1 -17.112189036099053 -50.9437682044762 7.8128899793761946 0 1 0 I I #
coedge $-1 $318 $318 $-1 $466 reversed $200 $-1 #
edge $-1 $467 0 $467 6.2831853071796004 $201 $468 forward 7 unknown #
vertex $-1 $204 $469 #
ellipse-curve $-1 -23.588921942101855 -18.218895505209314 4.31051800013348 0 -0.84804810408105047 0.52991925155115449 2 0 0 1 I I #
face $-1 $-1 $334 $42 $-1 $470 forward single #
loop $-1 $-1 $471 $205 #
plane-surface $-1 0 -20.407420341197458 0 0 1 0 0 0 1 forward_v I I I I #
coedge $-1 $472 $473 $474 $475 reversed $206 $-1 #
coedge $-1 $476 $208 $210 $332 forward $128 $-1 #
coedge $-1 $208 $476 $472 $477 forward $128 $-1 #
coedge $-1 $474 $211 $208 $329 forward $334 $-1 #
edge $-1 $336 -18.271193877053726 $478 -5.3177280650481222 $328 $479 forward 7 unknown #
coedge $-1 $480 $481 $209 $331 forward $323 $-1 #
edge $-1 $482 -25.053139802802807 $335 -18.048395844317376 $330 $483 forward 7 unknown #
edge $-1 $336 -8.2598427197426485 $482 1.3368832564924053e-014 $210 $484 forward 7 unknown #
coedge $-1 $211 $474 $480 $485 forward $334 $-1 #
loop $-1 $-1 $474 $322 #
vertex $-1 $331 $486 #
vertex $-1 $212 $487 #
straight-curve $-1 30.06565484810465 -50.9437682044762 7.8128899793761946 0 1 0 I I #
coedge $-1 $338 $338 $-1 $488 reversed $215 $-1 #
edge $-1 $489 0 $489 6.2831853071796004 $216 $490 forward 7 unknown #
vertex $-1 $219 $491 #
ellipse-curve $-1 23.588921942101848 -18.218895505209314 4.31051800013348 0 -0.84804810408105047 0.52991925155115449 2 0 0 1 I I #
face $-1 $-1 $231 $33 $-1 $492 reversed single #
loop $-1 $-1 $493 $220 #
plane-surface $-1 -48.039796136356699 0 0 1 0 0 0 0 -1 forward_v I I I I #
coedge $-1 $494 $350 $493 $495 forward $221 $-1 #
coedge $-1 $496 $223 $494 $497 forward $137 $-1 #
coedge $-1 $223 $496 $229 $359 forward $137 $-1 #
coedge $-1 $225 $224 $498 $499 forward $89 $-1 #
edge $-1 $232 -48.039796136356699 $500 48.039796136356699 $230 $501 forward 7 unknown #
coedge $-1 $345 $354 $225 $351 reversed $221 $-1 #
edge $-1 $502 -48.039796136356699 $352 48.039796136356699 $350 $503 forward 7 unknown #
vertex $-1 $226 $504 #
straight-curve $-1 48.039796136356699 0 7.8128899793761946 0 1 0 I I #
coedge $-1 $350 $494 $227 $355 reversed $221 $-1 #
edge $-1 $352 -7.8128899793761946 $356 7.8128899793761946 $227 $505 forward 7 unknown #
vertex $-1 $355 $506 #
straight-curve $-1 48.039796136356699 0 -7.8128899793761946 0 -1 0 I I #
coedge $-1 $230 $229 $507 $508 reversed $231 $-1 #
edge $-1 $509 -48.039796136356699 $233 48.039796136356699 $229 $510 forward 7 unknown #
point $-1 48.039796136356699 20.407420341197458 7.8128899793761946 #
point $-1 48.039796136356699 20.407420341197458 -7.8128899793761946 #
face $-1 $-1 $375 $34 $-1 $511 reversed single #
loop $-1 $-1 $512 $235 #
plane-surface $-1 -53.549911484939102 0 -1.0948867382670038 1 0 0 0 0 -1 forward_v I I I I #
coedge $-1 $513 $367 $241 $372 reversed $236 $-1 #
coedge $-1 $239 $238 $512 $514 reversed $93 $-1 #
coedge $-1 $365 $515 $238 $368 forward $236 $-1 #
edge $-1 $516 -2.7550576742912014 $370 2.7550576742912014 $238 $517 forward 7 unknown #
edge $-1 $246 -2.7550576742912014 $518 2.7550576742912014 $239 $519 forward 7 unknown #
vertex $-1 $240 $520 #
straight-curve $-1 -48.039796136356699 20.407420341197458 0 0 0 -1 I I #
edge $-1 $376 -20.407420341197458 $370 20.407420341197458 $365 $521 forward 7 unknown #
coedge $-1 $522 $242 $245 $379 reversed $375 $-1 #
coedge $-1 $242 $522 $513 $523 reversed $375 $-1 #
loop $-1 $-1 $242 $362 #
vertex $-1 $243 $524 #
straight-curve $-1 -48.039796136356699 -20.407420341197458 0 0 0 1 I I #
coedge $-1 $245 $244 $525 $526 forward $145 $-1 #
edge $-1 $527 -2.7550576742912014 $247 2.7550576742912014 $373 $528 forward 7 unknown #
point $-1 -48.039796136356699 20.407420341197458 0.40511326173299622 #
point $-1 -48.039796136356699 -20.407420341197458 0.40511326173299622 #
face $-1 $-1 $398 $35 $-1 $529 reversed single #
loop $-1 $-1 $530 $249 #
plane-surface $-1 53.549911484939109 0 -1.0948867382670038 -1 0 0 0 0 1 forward_v I I I I #
coedge $-1 $389 $531 $532 $533 forward $250 $-1 #
coedge $-1 $530 $534 $252 $387 reversed $383 $-1 #
edge $-1 $535 -20.407420341197458 $536 20.407420341197458 $386 $537 forward 7 unknown #
coedge $-1 $254 $253 $530 $538 reversed $97 $-1 #
coedge $-1 $394 $385 $253 $390 forward $250 $-1 #
edge $-1 $539 -2.7550576742912014 $392 2.7550576742912014 $253 $540 forward 7 unknown #
edge $-1 $261 -2.7550576742912014 $535 2.7550576742912014 $254 $541 forward 7 unknown #
vertex $-1 $255 $542 #
straight-curve $-1 48.039796136356699 -20.407420341197458 0 0 0 -1 I I #
coedge $-1 $531 $389 $256 $395 reversed $250 $-1 #
edge $-1 $399 -20.407420341197458 $392 20.407420341197458 $394 $543 forward 7 unknown #
coedge $-1 $544 $257 $260 $401 reversed $398 $-1 #
coedge $-1 $257 $544 $531 $545 reversed $398 $-1 #
loop $-1 $-1 $257 $382 #
vertex $-1 $258 $546 #
straight-curve $-1 48.039796136356699 20.407420341197458 0 0 0 1 I I #
edge $-1 $536 -2.7550576742912014 $262 2.7550576742912014 $396 $547 forward 7 unknown #
point $-1 48.039796136356706 -20.407420341197458 0.40511326173299622 #
point $-1 48.039796136356706 20.407420341197458 0.40511326173299622 #
plane-surface $-1 0 0 7.8128899793761946 0 0 1 1 0 0 forward_v I I I I #
coedge $-1 $415 $414 $407 $548 forward $265 $-1 #
coedge $-1 $407 $267 $269 $411 reversed $161 $-1 #
coedge $-1 $267 $406 $405 $548 reversed $161 $-1 #
coedge $-1 $275 $270 $267 $409 forward $276 $-1 #
edge $-1 $412 -24.099112621957854 $549 -19.722062949981584 $408 $550 forward 7 unknown #
coedge $-1 $269 $268 $415 $551 reversed $101 $-1 #
edge $-1 $552 -40.814840682394909 $412 -32.554997962652266 $406 $553 forward 7 unknown #
vertex $-1 $271 $554 #
straight-curve $-1 -11.794460971050928 16.030370669221188 7.8128899793761946 1 0 0 I I #
coedge $-1 $405 $272 $275 $419 reversed $265 $-1 #
coedge $-1 $272 $405 $410 $551 forward $265 $-1 #
vertex $-1 $273 $555 #
straight-curve $-1 -30.065654848104657 20.407420341197458 43.16775995323114 0 0 1 I I #
straight-curve $-1 -30.065654848104657 -1.2211494853968645 35.421094279965914 0 0.52991925155115449 -0.84804810408105047 I I #
edge $-1 $549 17.112189036099053 $277 30.065654848104657 $414 $556 forward 7 unknown #
point $-1 -30.065654848104657 20.407420341197458 7.8128899793761946 #
point $-1 -30.065654848104657 16.030370669221188 7.8128899793761946 #
edge $-1 $557 1 $557 0 $280 $-1 forward 7 unknown #
vertex $-1 $281 $558 #
ellipse-curve $-1 -23.588921942101855 11.683125134910307 0.22651554051822653 0 0.84804810408105047 0.52991925155115449 2 0 0 1 I I #
point $-1 -21.588921942101855 18.218895505209318 4.3105180001334809 #
loop $-1 $-1 $292 $284 #
plane-surface $-1 0 20.407420341197458 0 0 -1 0 0 0 -1 forward_v I I I I #
coedge $-1 $429 $287 $289 $433 reversed $176 $-1 #
coedge $-1 $287 $428 $559 $560 reversed $176 $-1 #
coedge $-1 $295 $290 $287 $431 forward $285 $-1 #
edge $-1 $434 -24.099112621957854 $561 -19.722062949981584 $430 $562 forward 7 unknown #
coedge $-1 $289 $288 $437 $563 reversed $110 $-1 #
edge $-1 $564 -40.814840682394909 $434 -32.554997962652266 $428 $565 forward 7 unknown #
vertex $-1 $291 $566 #
straight-curve $-1 11.794460971050924 16.030370669221188 7.8128899793761946 1 0 0 I I #
coedge $-1 $559 $292 $295 $441 reversed $426 $-1 #
coedge $-1 $292 $559 $432 $563 forward $426 $-1 #
vertex $-1 $293 $567 #
straight-curve $-1 17.112189036099046 20.407420341197458 43.16775995323114 0 0 1 I I #
straight-curve $-1 17.112189036099046 -1.2211494853968645 35.421094279965914 0 0.52991925155115449 -0.84804810408105047 I I #
edge $-1 $561 -30.06565484810465 $296 -17.112189036099046 $436 $568 forward 7 unknown #
point $-1 17.112189036099046 20.407420341197458 7.8128899793761946 #
point $-1 17.112189036099046 16.030370669221188 7.8128899793761946 #
edge $-1 $569 1 $569 0 $299 $-1 forward 7 unknown #
vertex $-1 $300 $570 #
ellipse-curve $-1 23.588921942101848 11.683125134910307 0.22651554051822653 0 0.84804810408105047 0.52991925155115449 2 0 0 1 I I #
point $-1 25.588921942101848 18.218895505209318 4.3105180001334809 #
loop $-1 $-1 $311 $303 #
plane-surface $-1 0 -20.407420341197458 0 0 1 0 0 0 1 forward_v I I I I #
coedge $-1 $451 $306 $308 $455 reversed $191 $-1 #
coedge $-1 $306 $450 $571 $572 reversed $191 $-1 #
coedge $-1 $314 $309 $306 $453 forward $304 $-1 #
edge $-1 $456 -34.913397535255029 $573 -30.536347863278742 $452 $574 forward 7 unknown #
coedge $-1 $308 $307 $459 $575 reversed $119 $-1 #
edge $-1 $576 -1.3368832564924053e-014 $456 8.2598427197426485 $450 $577 forward 7 unknown #
vertex $-1 $310 $578 #
straight-curve $-1 -11.794460971050928 -16.030370669221174 7.8128899793761946 -1 0 0 I I #
coedge $-1 $571 $311 $314 $463 reversed $448 $-1 #
coedge $-1 $311 $571 $454 $575 forward $448 $-1 #
vertex $-1 $312 $579 #
straight-curve $-1 -17.112189036099053 -20.407420341197458 25.861285823693571 0 0 1 I I #
straight-curve $-1 -17.112189036099053 -20.407420341197451 0.80814602089077425 0 -0.52991925155115449 -0.84804810408105047 I I #
edge $-1 $573 -30.065654848104657 $315 -17.112189036099053 $458 $580 forward 7 unknown #
point $-1 -17.112189036099053 -20.407420341197458 7.8128899793761946 #
point $-1 -17.112189036099053 -16.030370669221174 7.8128899793761946 #
edge $-1 $581 1 $581 0 $318 $-1 forward 7 unknown #
vertex $-1 $319 $582 #
ellipse-curve $-1 -23.588921942101855 -11.683125134910307 0.22651554051822653 0 -0.84804810408105047 0.52991925155115449 2 0 0 1 I I #
point $-1 -21.588921942101855 -18.218895505209318 4.3105180001334809 #
plane-surface $-1 0 0 7.8128899793761946 0 0 1 1 0 0 forward_v I I I I #
coedge $-1 $481 $480 $473 $583 forward $323 $-1 #
coedge $-1 $473 $325 $327 $477 reversed $206 $-1 #
coedge $-1 $325 $472 $471 $583 reversed $206 $-1 #
coedge $-1 $333 $328 $325 $475 forward $334 $-1 #
edge $-1 $478 -34.913397535255029 $584 -30.536347863278742 $474 $585 forward 7 unknown #
coedge $-1 $327 $326 $481 $586 reversed $128 $-1 #
edge $-1 $587 -1.3368832564924053e-014 $478 8.2598427197426485 $472 $588 forward 7 unknown #
vertex $-1 $329 $589 #
straight-curve $-1 11.794460971050924 -16.030370669221174 7.8128899793761946 -1 0 0 I I #
coedge $-1 $471 $330 $333 $485 reversed $323 $-1 #
coedge $-1 $330 $471 $476 $586 forward $323 $-1 #
vertex $-1 $331 $590 #
straight-curve $-1 30.06565484810465 -20.407420341197458 25.861285823693571 0 0 1 I I #
straight-curve $-1 30.06565484810465 -20.407420341197451 0.80814602089077425 0 -0.52991925155115449 -0.84804810408105047 I I #
edge $-1 $584 17.112189036099046 $335 30.06565484810465 $480 $591 forward 7 unknown #
point $-1 30.06565484810465 -20.407420341197458 7.8128899793761946 #
point $-1 30.06565484810465 -16.030370669221174 7.8128899793761946 #
edge $-1 $592 1 $592 0 $338 $-1 forward 7 unknown #
vertex $-1 $339 $593 #
ellipse-curve $-1 23.588921942101848 -11.683125134910307 0.22651554051822653 0 -0.84804810408105047 0.52991925155115449 2 0 0 1 I I #
point $-1 25.588921942101848 -18.218895505209318 4.3105180001334809 #
plane-surface $-1 0 20.407420341197458 0 0 -1 0 0 0 -1 forward_v I I I I #
coedge $-1 $498 $594 $345 $495 reversed $343 $-1 #
coedge $-1 $354 $345 $346 $497 reversed $221 $-1 #
edge $-1 $502 -7.8128899793761946 $595 7.8128899793761946 $493 $596 forward 7 unknown #
coedge $-1 $347 $346 $594 $597 forward $137 $-1 #
edge $-1 $356 -48.039796136356699 $595 48.039796136356699 $494 $598 forward 7 unknown #
coedge $-1 $507 $493 $348 $499 reversed $343 $-1 #
edge $-1 $500 -20.407420341197458 $502 20.407420341197458 $498 $599 forward 7 unknown #
vertex $-1 $349 $600 #
straight-curve $-1 0 20.407420341197458 7.8128899793761946 -1 0 0 I I #
vertex $-1 $499 $601 #
straight-curve $-1 0 -20.407420341197458 7.8128899793761946 1 0 0 I I #
point $-1 48.039796136356699 -20.407420341197458 7.8128899793761946 #
straight-curve $-1 48.039796136356699 -20.407420341197458 0 0 0 -1 I I #
point $-1 48.039796136356699 -20.407420341197458 -7.8128899793761946 #
coedge $-1 $594 $498 $358 $508 forward $343 $-1 #
edge $-1 $500 -7.8128899793761946 $509 7.8128899793761946 $358 $602 forward 7 unknown #
vertex $-1 $359 $603 #
straight-curve $-1 0 20.407420341197458 -7.8128899793761946 1 0 0 I I #
plane-surface $-1 0 -20.407420341197458 0 0 1 0 0 0 1 forward_v I I I I #
coedge $-1 $604 $525 $366 $514 forward $363 $-1 #
coedge $-1 $515 $365 $374 $523 forward $236 $-1 #
edge $-1 $518 -1.5 $516 1.5 $366 $605 forward 7 unknown #
coedge $-1 $367 $513 $604 $606 forward $236 $-1 #
vertex $-1 $368 $607 #
straight-curve $-1 -50.794853810647901 20.407420341197458 -2.5948867382670038 1 0 0 I I #
vertex $-1 $369 $608 #
straight-curve $-1 -50.794853810647901 20.407420341197458 0.40511326173299622 -1 0 0 I I #
point $-1 -48.039796136356699 20.407420341197458 -2.5948867382670038 #
straight-curve $-1 -48.039796136356699 0 -2.5948867382670038 0 1 0 I I #
coedge $-1 $374 $373 $609 $610 forward $375 $-1 #
edge $-1 $376 -2.7550576742912014 $611 2.7550576742912014 $374 $612 forward 7 unknown #
point $-1 -48.039796136356699 -20.407420341197458 -2.5948867382670038 #
coedge $-1 $512 $609 $378 $526 reversed $363 $-1 #
edge $-1 $518 -20.407420341197458 $527 20.407420341197458 $525 $613 forward 7 unknown #
vertex $-1 $526 $614 #
straight-curve $-1 -50.794853810647901 -20.407420341197458 0.40511326173299622 1 0 0 I I #
plane-surface $-1 0 20.407420341197458 0 0 -1 0 0 0 -1 forward_v I I I I #
coedge $-1 $532 $386 $388 $538 forward $383 $-1 #
coedge $-1 $385 $394 $397 $545 forward $250 $-1 #
coedge $-1 $534 $530 $385 $533 reversed $383 $-1 #
edge $-1 $615 -20.407420341197458 $539 20.407420341197458 $532 $616 forward 7 unknown #
coedge $-1 $386 $532 $544 $617 reversed $383 $-1 #
vertex $-1 $387 $618 #
vertex $-1 $387 $619 #
straight-curve $-1 53.549911484939109 0 0.40511326173299622 0 1 0 I I #
edge $-1 $535 -1.5 $539 1.5 $530 $620 forward 7 unknown #
vertex $-1 $538 $621 #
straight-curve $-1 50.794853810647908 -20.407420341197458 -2.5948867382670038 -1 0 0 I I #
straight-curve $-1 50.794853810647908 -20.407420341197458 0.40511326173299622 1 0 0 I I #
point $-1 48.039796136356706 -20.407420341197458 -2.5948867382670038 #
straight-curve $-1 48.039796136356699 0 -2.5948867382670038 0 -1 0 I I #
coedge $-1 $397 $396 $534 $617 forward $398 $-1 #
edge $-1 $399 -2.7550576742912014 $615 2.7550576742912014 $397 $622 forward 7 unknown #
point $-1 48.039796136356706 20.407420341197458 -2.5948867382670038 #
straight-curve $-1 50.794853810647908 20.407420341197458 0.40511326173299622 -1 0 0 I I #
edge $-1 $549 35.354869973854946 $552 42.359613932340359 $405 $623 forward 7 unknown #
vertex $-1 $419 $624 #
straight-curve $-1 -17.112189036099053 40.129483291179042 7.8128899793761946 0 1 0 I I #
edge $-1 $552 5.3177280650481258 $416 18.271193877053729 $415 $625 forward 7 unknown #
vertex $-1 $551 $626 #
straight-curve $-1 -17.112189036099053 -1.2211494853968645 35.421094279965914 0 -0.52991925155115449 0.84804810408105047 I I #
point $-1 -17.112189036099053 16.030370669221188 7.8128899793761946 #
point $-1 -30.065654848104657 20.407420341197458 0.80814602089078136 #
straight-curve $-1 0 20.407420341197458 7.8128899793761946 -1 0 0 I I #
vertex $-1 $422 $627 #
point $-1 -21.588921942101855 11.683125134910307 0.22651554051822653 #
coedge $-1 $437 $436 $429 $560 forward $426 $-1 #
edge $-1 $561 35.354869973854946 $564 42.359613932340359 $559 $628 forward 7 unknown #
vertex $-1 $441 $629 #
straight-curve $-1 30.06565484810465 40.129483291179042 7.8128899793761946 0 1 0 I I #
edge $-1 $564 -18.271193877053726 $438 -5.3177280650481222 $437 $630 forward 7 unknown #
vertex $-1 $563 $631 #
straight-curve $-1 30.06565484810465 -1.2211494853968645 35.421094279965914 0 -0.52991925155115449 0.84804810408105047 I I #
point $-1 30.06565484810465 16.030370669221188 7.8128899793761946 #
point $-1 17.112189036099046 20.407420341197458 0.80814602089078136 #
straight-curve $-1 0 20.407420341197458 7.8128899793761946 -1 0 0 I I #
vertex $-1 $444 $632 #
point $-1 25.588921942101848 11.683125134910307 0.22651554051822653 #
coedge $-1 $459 $458 $451 $572 forward $448 $-1 #
edge $-1 $573 18.048395844317376 $576 25.053139802802807 $571 $633 forward 7 unknown #
vertex $-1 $463 $634 #
straight-curve $-1 -30.065654848104657 -50.9437682044762 7.8128899793761946 0 -1 0 I I #
edge $-1 $576 -18.271193877053729 $460 -5.3177280650481258 $459 $635 forward 7 unknown #
vertex $-1 $575 $636 #
straight-curve $-1 -30.065654848104657 -20.407420341197451 0.80814602089077425 0 0.52991925155115449 0.84804810408105047 I I #
point $-1 -30.065654848104657 -16.030370669221174 7.8128899793761946 #
point $-1 -17.112189036099053 -20.407420341197458 0.80814602089076293 #
straight-curve $-1 0 -20.407420341197458 7.8128899793761946 1 0 0 I I #
vertex $-1 $466 $637 #
point $-1 -21.588921942101855 -11.683125134910307 0.22651554051822653 #
edge $-1 $584 18.048395844317376 $587 25.053139802802807 $471 $638 forward 7 unknown #
vertex $-1 $485 $639 #
straight-curve $-1 17.112189036099046 -50.9437682044762 7.8128899793761946 0 -1 0 I I #
edge $-1 $587 5.3177280650481222 $482 18.271193877053726 $481 $640 forward 7 unknown #
vertex $-1 $586 $641 #
straight-curve $-1 17.112189036099046 -20.407420341197451 0.80814602089077425 0 0.52991925155115449 0.84804810408105047 I I #
point $-1 17.112189036099046 -16.030370669221174 7.8128899793761946 #
point $-1 30.06565484810465 -20.407420341197458 0.80814602089076293 #
straight-curve $-1 0 -20.407420341197458 7.8128899793761946 1 0 0 I I #
vertex $-1 $488 $642 #
point $-1 25.588921942101848 -11.683125134910307 0.22651554051822653 #
coedge $-1 $493 $507 $496 $597 reversed $343 $-1 #
vertex $-1 $597 $643 #
straight-curve $-1 -48.039796136356699 -20.407420341197458 0 0 0 -1 I I #
edge $-1 $595 -20.407420341197458 $509 20.407420341197458 $594 $644 forward 7 unknown #
straight-curve $-1 0 -20.407420341197458 -7.8128899793761946 -1 0 0 I I #
straight-curve $-1 -48.039796136356699 0 7.8128899793761946 0 -1 0 I I #
point $-1 -48.039796136356699 20.407420341197458 7.8128899793761946 #
point $-1 -48.039796136356699 -20.407420341197458 7.8128899793761946 #
straight-curve $-1 -48.039796136356699 20.407420341197458 0 0 0 -1 I I #
point $-1 -48.039796136356699 20.407420341197458 -7.8128899793761946 #
coedge $-1 $609 $512 $515 $606 reversed $363 $-1 #
straight-curve $-1 -53.549911484939102 20.407420341197458 -1.0948867382670038 0 0 -1 I I #
edge $-1 $611 -20.407420341197458 $516 20.407420341197458 $604 $645 forward 7 unknown #
point $-1 -53.549911484939102 20.407420341197458 -2.5948867382670038 #
point $-1 -53.549911484939102 20.407420341197458 0.40511326173299622 #
coedge $-1 $525 $604 $522 $610 reversed $363 $-1 #
edge $-1 $527 -1.5 $611 1.5 $609 $646 forward 7 unknown #
vertex $-1 $606 $647 #
straight-curve $-1 -50.794853810647901 -20.407420341197458 -2.5948867382670038 -1 0 0 I I #
straight-curve $-1 -53.549911484939102 0 0.40511326173299622 0 -1 0 I I #
point $-1 -53.549911484939102 -20.407420341197458 0.40511326173299622 #
vertex $-1 $533 $648 #
straight-curve $-1 53.549911484939109 0 -2.5948867382670038 0 -1 0 I I #
edge $-1 $536 -1.5 $615 1.5 $534 $649 forward 7 unknown #
point $-1 53.549911484939109 -20.407420341197458 0.40511326173299622 #
point $-1 53.549911484939109 20.407420341197458 0.40511326173299622 #
straight-curve $-1 53.549911484939109 -20.407420341197458 -1.0948867382670038 0 0 -1 I I #
point $-1 53.549911484939109 -20.407420341197458 -2.5948867382670038 #
straight-curve $-1 50.794853810647908 20.407420341197458 -2.5948867382670038 1 0 0 I I #
straight-curve $-1 -17.112189036099053 20.407420341197458 43.16775995323114 0 0 -1 I I #
point $-1 -17.112189036099053 20.407420341197458 7.8128899793761946 #
straight-curve $-1 -11.794460971050928 20.407420341197458 0.80814602089078136 -1 0 0 I I #
point $-1 -17.112189036099053 20.407420341197458 0.80814602089078136 #
point $-1 -23.588921942101855 9.9870289267482075 -0.83332296258408245 #
straight-curve $-1 30.06565484810465 20.407420341197458 43.16775995323114 0 0 -1 I I #
point $-1 30.06565484810465 20.407420341197458 7.8128899793761946 #
straight-curve $-1 11.794460971050924 20.407420341197458 0.80814602089078136 -1 0 0 I I #
point $-1 30.06565484810465 20.407420341197458 0.80814602089078136 #
point $-1 23.588921942101848 9.9870289267482075 -0.83332296258408245 #
straight-curve $-1 -30.065654848104657 -20.407420341197458 25.861285823693571 0 0 -1 I I #
point $-1 -30.065654848104657 -20.407420341197458 7.8128899793761946 #
straight-curve $-1 -11.794460971050928 -20.407420341197458 0.80814602089076215 1 0 0 I I #
point $-1 -30.065654848104657 -20.407420341197458 0.80814602089076293 #
point $-1 -23.588921942101855 -9.9870289267482075 -0.83332296258408245 #
straight-curve $-1 17.112189036099046 -20.407420341197458 25.861285823693571 0 0 -1 I I #
point $-1 17.112189036099046 -20.407420341197458 7.8128899793761946 #
straight-curve $-1 11.794460971050924 -20.407420341197458 0.80814602089076215 1 0 0 I I #
point $-1 17.112189036099046 -20.407420341197458 0.80814602089076293 #
point $-1 23.588921942101848 -9.9870289267482075 -0.83332296258408245 #
point $-1 -48.039796136356699 -20.407420341197458 -7.8128899793761946 #
straight-curve $-1 -48.039796136356699 0 -7.8128899793761946 0 1 0 I I #
straight-curve $-1 -53.549911484939102 0 -2.5948867382670038 0 1 0 I I #
straight-curve $-1 -53.549911484939102 -20.407420341197458 -1.0948867382670038 0 0 -1 I I #
point $-1 -53.549911484939102 -20.407420341197458 -2.5948867382670038 #
point $-1 53.549911484939109 20.407420341197458 -2.5948867382670038 #
straight-curve $-1 53.549911484939109 20.407420341197458 -1.0948867382670038 0 0 -1 I I #
End-of-ACIS-data 