500 0 13 0           
7 Unknown 11 ACIS 5.0 NT 24 Fri Mar 26 14:32:39 1999 
-1 9.9999999999999995e-007 1e-010 
body $-1 $13 $-1 $14 #
body $-1 $15 $-1 $16 #
body $-1 $17 $-1 $18 #
body $-1 $19 $-1 $20 #
body $-1 $21 $-1 $22 #
body $-1 $23 $-1 $24 #
body $-1 $25 $-1 $26 #
body $-1 $27 $-1 $28 #
body $-1 $29 $-1 $30 #
body $-1 $31 $-1 $32 #
body $-1 $33 $-1 $34 #
body $-1 $35 $-1 $36 #
body $-1 $37 $-1 $38 #
lump $-1 $-1 $39 $0 #
transform $-1 1 0 0 0 1 0 0 0 1 58.727378154850918 29.561376684178594 8.4512499882314476 1 rotate no_reflect no_shear #
lump $-1 $-1 $40 $1 #
transform $-1 1 0 0 0 1 0 0 0 1 58.727378154850918 29.561376684178594 8.4512499882314476 1 rotate no_reflect no_shear #
lump $-1 $-1 $41 $2 #
transform $-1 1 0 0 0 1 0 0 0 1 58.727378154850918 29.561376684178594 8.4512499882314476 1 rotate no_reflect no_shear #
lump $-1 $-1 $42 $3 #
transform $-1 1 0 0 0 1 0 0 0 1 58.727378154850918 29.561376684178594 8.4512499882314476 1 rotate no_reflect no_shear #
lump $-1 $-1 $43 $4 #
transform $-1 1 0 0 0 1 0 0 0 1 58.727378154850918 29.561376684178594 8.4512499882314476 1 rotate no_reflect no_shear #
lump $-1 $-1 $44 $5 #
transform $-1 1 0 0 0 1 0 0 0 1 58.727378154850918 29.561376684178594 8.4512499882314476 1 rotate no_reflect no_shear #
lump $-1 $-1 $45 $6 #
transform $-1 1 0 0 0 1 0 0 0 1 58.727378154850918 29.561376684178594 8.4512499882314476 1 rotate no_reflect no_shear #
lump $-1 $-1 $46 $7 #
transform $-1 1 0 0 0 1 0 0 0 1 58.727378154850918 29.561376684178594 8.4512499882314476 1 rotate no_reflect no_shear #
lump $-1 $-1 $47 $8 #
transform $-1 1 0 0 0 1 0 0 0 1 58.727378154850918 29.561376684178594 8.4512499882314476 1 rotate no_reflect no_shear #
lump $-1 $-1 $48 $9 #
transform $-1 1 0 0 0 1 0 0 0 1 58.727378154850918 29.561376684178594 8.4512499882314476 1 rotate no_reflect no_shear #
lump $-1 $-1 $49 $10 #
transform $-1 1 0 0 0 1 0 0 0 1 58.727378154850918 29.561376684178594 8.4512499882314476 1 rotate no_reflect no_shear #
lump $-1 $-1 $50 $11 #
transform $-1 1 0 0 0 1 0 0 0 1 58.727378154850918 29.561376684178594 8.4512499882314476 1 rotate no_reflect no_shear #
lump $-1 $-1 $51 $12 #
transform $-1 1 0 0 0 1 0 0 0 1 58.727378154850918 29.561376684178594 8.4512499882314476 1 rotate no_reflect no_shear #
shell $-1 $-1 $-1 $52 $-1 $13 #
shell $-1 $-1 $-1 $53 $-1 $15 #
shell $-1 $-1 $-1 $54 $-1 $17 #
shell $-1 $-1 $-1 $55 $-1 $19 #
shell $-1 $-1 $-1 $56 $-1 $21 #
shell $-1 $-1 $-1 $57 $-1 $23 #
shell $-1 $-1 $-1 $58 $-1 $25 #
shell $-1 $-1 $-1 $59 $-1 $27 #
shell $-1 $-1 $-1 $60 $-1 $29 #
shell $-1 $-1 $-1 $61 $-1 $31 #
shell $-1 $-1 $-1 $62 $-1 $33 #
shell $-1 $-1 $-1 $63 $-1 $35 #
shell $-1 $-1 $-1 $64 $-1 $37 #
face $-1 $65 $66 $39 $-1 $67 forward single #
face $-1 $68 $69 $40 $-1 $70 forward single #
face $-1 $71 $72 $41 $-1 $73 reversed single #
face $-1 $74 $75 $42 $-1 $76 forward single #
face $-1 $77 $78 $43 $-1 $79 reversed single #
face $-1 $80 $81 $44 $-1 $82 forward single #
face $-1 $83 $84 $45 $-1 $85 reversed single #
face $-1 $86 $87 $46 $-1 $88 forward single #
face $-1 $89 $90 $47 $-1 $91 reversed single #
face $-1 $92 $93 $48 $-1 $94 forward single #
face $-1 $95 $96 $49 $-1 $97 reversed single #
face $-1 $98 $99 $50 $-1 $100 forward single #
face $-1 $101 $102 $51 $-1 $103 forward single #
face $-1 $104 $105 $39 $-1 $106 reversed single #
loop $-1 $-1 $107 $52 #
plane-surface $-1 0 0 8.4512499882314476 0 0 1 1 0 0 forward_v I I I I #
face $-1 $108 $109 $40 $-1 $110 reversed single #
loop $-1 $-1 $111 $53 #
plane-surface $-1 -54.082737055175308 0 -5.2487660683158435 0 0 1 1 0 0 forward_v I I I I #
face $-1 $112 $113 $41 $-1 $114 reversed single #
loop $-1 $-1 $115 $54 #
plane-surface $-1 -43.562896145524149 -100.24741446689413 95.313458424196099 1 0 0 0 0.6018150307709319 -0.79863550430605224 forward_v I I I I #
face $-1 $116 $117 $42 $-1 $118 forward single #
loop $-1 $119 $120 $55 #
cone-surface $-1 -36.268072909867598 -24.354196399262761 4.1824308026489447 0 0.6018150307709319 -0.79863550430605224 1.5 0 0 1 I I 0 1 1.5 forward I I I I #
face $-1 $121 $122 $43 $-1 $123 reversed single #
loop $-1 $-1 $124 $56 #
plane-surface $-1 -16.521527617936496 -100.24741446689413 95.313458424196099 1 0 0 0 0.6018150307709319 -0.79863550430605224 forward_v I I I I #
face $-1 $125 $126 $44 $-1 $127 forward single #
loop $-1 $128 $129 $57 #
cone-surface $-1 -9.2267043822799408 -24.354196399262761 4.1824308026489447 0 0.6018150307709319 -0.79863550430605224 1.5 0 0 1 I I 0 1 1.5 forward I I I I #
face $-1 $130 $131 $45 $-1 $132 reversed single #
loop $-1 $-1 $133 $58 #
plane-surface $-1 10.519840909651155 -100.24741446689413 95.313458424196099 1 0 0 0 0.6018150307709319 -0.79863550430605224 forward_v I I I I #
face $-1 $134 $135 $46 $-1 $136 forward single #
loop $-1 $137 $138 $59 #
cone-surface $-1 17.814664145307709 -24.354196399262761 4.1824308026489447 0 0.6018150307709319 -0.79863550430605224 1.5 0 0 1 I I 0 1 1.5 forward I I I I #
face $-1 $139 $140 $47 $-1 $141 reversed single #
loop $-1 $-1 $142 $60 #
plane-surface $-1 37.561209437238809 -100.24741446689413 95.313458424196099 1 0 0 0 0.6018150307709319 -0.79863550430605224 forward_v I I I I #
face $-1 $143 $144 $48 $-1 $145 forward single #
loop $-1 $146 $147 $61 #
cone-surface $-1 44.85603267289536 -24.354196399262761 4.1824308026489447 0 0.6018150307709319 -0.79863550430605224 1.5 0 0 1 I I 0 1 1.5 forward I I I I #
face $-1 $148 $149 $49 $-1 $150 reversed single #
loop $-1 $-1 $151 $62 #
plane-surface $-1 -23.486316453321841 48.500134129366657 132.62367576677542 1 0 0 0 -0.57357644374324357 -0.81915203911291934 forward_v I I I I #
face $-1 $152 $153 $50 $-1 $154 forward single #
loop $-1 $155 $156 $63 #
cone-surface $-1 -20.255343962184604 24.317010169172161 4.055541789904912 0 -0.57357644374324357 -0.81915203911291934 1.5 0 0 1 I I 0 1 1.5 forward I I I I #
face $-1 $157 $158 $51 $-1 $159 forward single #
loop $-1 $160 $161 $64 #
cone-surface $-1 -15.408885225478755 24.317010169172161 4.055541789904912 0 -0.57357644374324357 -0.81915203911291934 1.5 0 0 1 I I 0 1 1.5 forward I I I I #
face $-1 $162 $163 $39 $-1 $164 reversed single #
loop $-1 $-1 $165 $65 #
plane-surface $-1 0 0 -8.4512499882314476 0 0 1 1 0 0 forward_v I I I I #
coedge $-1 $166 $167 $168 $169 forward $66 $-1 #
face $-1 $170 $171 $40 $-1 $172 reversed single #
loop $-1 $-1 $173 $68 #
plane-surface $-1 -49.438095955499698 0 -6.8500080282736455 -1 0 0 0 0 1 forward_v I I I I #
coedge $-1 $174 $175 $176 $177 forward $69 $-1 #
face $-1 $178 $179 $41 $-1 $180 reversed single #
loop $-1 $-1 $181 $71 #
plane-surface $-1 -36.268072909867598 -29.561376684178612 1.5099198856529057 0 -0.6018150307709319 0.79863550430605224 1 0 0 forward_v I I I I #
coedge $-1 $182 $183 $184 $185 reversed $72 $-1 #
face $-1 $-1 $186 $42 $-1 $187 forward single #
loop $-1 $188 $189 $74 #
cone-surface $-1 -36.268072909867598 -23.301382833743588 2.785300040126172 0 0.6018150307709319 -0.79863550430605224 0.75 0 0 1 I I -0.70710678118654757 0.70710678118654757 0.75 forward I I I I #
loop $-1 $-1 $190 $55 #
coedge $-1 $120 $120 $191 $192 reversed $75 $-1 #
face $-1 $193 $194 $43 $-1 $195 reversed single #
loop $-1 $-1 $196 $77 #
plane-surface $-1 -9.2267043822799408 -29.561376684178612 1.5099198856529057 0 -0.6018150307709319 0.79863550430605224 1 0 0 forward_v I I I I #
coedge $-1 $197 $198 $199 $200 reversed $78 $-1 #
face $-1 $-1 $201 $44 $-1 $202 forward single #
loop $-1 $203 $204 $80 #
cone-surface $-1 -9.2267043822799408 -23.301382833743588 2.785300040126172 0 0.6018150307709319 -0.79863550430605224 0.75 0 0 1 I I -0.70710678118654757 0.70710678118654757 0.75 forward I I I I #
loop $-1 $-1 $205 $57 #
coedge $-1 $129 $129 $206 $207 reversed $81 $-1 #
face $-1 $208 $209 $45 $-1 $210 reversed single #
loop $-1 $-1 $211 $83 #
plane-surface $-1 17.814664145307709 -29.561376684178612 1.5099198856529057 0 -0.6018150307709319 0.79863550430605224 1 0 0 forward_v I I I I #
coedge $-1 $212 $213 $214 $215 reversed $84 $-1 #
face $-1 $-1 $216 $46 $-1 $217 forward single #
loop $-1 $218 $219 $86 #
cone-surface $-1 17.814664145307709 -23.301382833743588 2.785300040126172 0 0.6018150307709319 -0.79863550430605224 0.75 0 0 1 I I -0.70710678118654757 0.70710678118654757 0.75 forward I I I I #
loop $-1 $-1 $220 $59 #
coedge $-1 $138 $138 $221 $222 reversed $87 $-1 #
face $-1 $223 $224 $47 $-1 $225 reversed single #
loop $-1 $-1 $226 $89 #
plane-surface $-1 44.85603267289536 -29.561376684178612 1.5099198856529057 0 -0.6018150307709319 0.79863550430605224 1 0 0 forward_v I I I I #
coedge $-1 $227 $228 $229 $230 reversed $90 $-1 #
face $-1 $-1 $231 $48 $-1 $232 forward single #
loop $-1 $233 $234 $92 #
cone-surface $-1 44.85603267289536 -23.301382833743588 2.785300040126172 0 0.6018150307709319 -0.79863550430605224 0.75 0 0 1 I I -0.70710678118654757 0.70710678118654757 0.75 forward I I I I #
loop $-1 $-1 $235 $61 #
coedge $-1 $147 $147 $236 $237 reversed $93 $-1 #
face $-1 $238 $239 $49 $-1 $240 reversed single #
loop $-1 $-1 $241 $95 #
plane-surface $-1 -17.832114593831683 -18.869147295481426 36.410372632172127 0 0.57357644374324357 0.81915203911291934 1 0 0 forward_v I I I I #
coedge $-1 $242 $243 $244 $245 reversed $96 $-1 #
face $-1 $-1 $246 $50 $-1 $247 forward single #
loop $-1 $248 $249 $98 #
cone-surface $-1 -20.255343962184604 22.892841057547127 2.0216175509389469 0 -0.57357644374324357 -0.81915203911291934 0.75 0 0 1 I I -0.70710678118654757 0.70710678118654757 0.75 forward I I I I #
loop $-1 $-1 $250 $63 #
coedge $-1 $156 $156 $251 $252 reversed $99 $-1 #
face $-1 $-1 $253 $51 $-1 $254 forward single #
loop $-1 $255 $256 $101 #
cone-surface $-1 -15.408885225478755 22.892841057547127 2.0216175509389469 0 -0.57357644374324357 -0.81915203911291934 0.75 0 0 1 I I -0.70710678118654757 0.70710678118654757 0.75 forward I I I I #
loop $-1 $-1 $257 $64 #
coedge $-1 $161 $161 $258 $259 reversed $102 $-1 #
face $-1 $260 $261 $39 $-1 $262 reversed single #
loop $-1 $-1 $263 $104 #
plane-surface $-1 0 -29.561376684178594 0 0 1 0 0 0 1 forward_v I I I I #
coedge $-1 $264 $265 $266 $267 forward $105 $-1 #
coedge $-1 $268 $107 $269 $270 forward $66 $-1 #
coedge $-1 $107 $268 $271 $272 forward $66 $-1 #
coedge $-1 $273 $274 $107 $169 reversed $275 $-1 #
edge $-1 $276 -29.561376684178594 $277 29.561376684178594 $168 $278 forward 7 unknown #
face $-1 $279 $280 $40 $-1 $281 reversed single #
loop $-1 $-1 $282 $108 #
plane-surface $-1 0 0 -8.4512499882314476 0 0 1 1 0 0 forward_v I I I I #
coedge $-1 $283 $176 $284 $285 reversed $109 $-1 #
coedge $-1 $286 $111 $287 $288 reversed $69 $-1 #
coedge $-1 $111 $286 $289 $290 reversed $69 $-1 #
coedge $-1 $173 $291 $111 $177 reversed $109 $-1 #
edge $-1 $292 -29.561376684178594 $293 29.561376684178594 $176 $294 forward 7 unknown #
face $-1 $295 $296 $41 $-1 $297 forward single #
loop $-1 $-1 $298 $112 #
plane-surface $-1 -28.973249674211043 -100.24741446689413 95.313458424196099 -1 0 0 0 -0.6018150307709319 0.79863550430605224 forward_v I I I I #
coedge $-1 $299 $300 $301 $302 reversed $113 $-1 #
coedge $-1 $183 $115 $303 $304 reversed $72 $-1 #
coedge $-1 $115 $182 $299 $305 reversed $72 $-1 #
coedge $-1 $301 $306 $115 $185 forward $307 $-1 #
edge $-1 $308 39.205479223866604 $309 46.14680932644513 $184 $310 forward 7 unknown #
loop $-1 $-1 $191 $116 #
plane-surface $-1 -36.268072909867598 -29.561376684178612 1.5099198856529057 0 -0.6018150307709319 0.79863550430605224 1 0 0 forward_v I I I I #
loop $-1 $-1 $311 $74 #
coedge $-1 $189 $189 $190 $312 reversed $117 $-1 #
coedge $-1 $190 $190 $189 $312 forward $119 $-1 #
coedge $-1 $191 $191 $120 $192 forward $186 $-1 #
edge $-1 $313 -1.3670919450219845e-016 $313 6.2831853071796004 $191 $314 forward 7 unknown #
face $-1 $315 $316 $43 $-1 $317 reversed single #
loop $-1 $-1 $318 $121 #
plane-surface $-1 -1.9318811466233869 -100.24741446689413 95.313458424196099 -1 0 0 0 -0.6018150307709319 0.79863550430605224 forward_v I I I I #
coedge $-1 $319 $320 $321 $322 reversed $122 $-1 #
coedge $-1 $198 $124 $323 $324 reversed $78 $-1 #
coedge $-1 $124 $197 $319 $325 reversed $78 $-1 #
coedge $-1 $321 $326 $124 $200 forward $316 $-1 #
edge $-1 $327 39.205479223866604 $328 46.14680932644513 $199 $329 forward 7 unknown #
loop $-1 $-1 $206 $125 #
plane-surface $-1 -9.2267043822799408 -29.561376684178612 1.5099198856529057 0 -0.6018150307709319 0.79863550430605224 1 0 0 forward_v I I I I #
loop $-1 $-1 $330 $80 #
coedge $-1 $204 $204 $205 $331 reversed $126 $-1 #
coedge $-1 $205 $205 $204 $331 forward $128 $-1 #
coedge $-1 $206 $206 $129 $207 forward $201 $-1 #
edge $-1 $332 -1.3670919450219845e-016 $332 6.2831853071796004 $206 $333 forward 7 unknown #
face $-1 $334 $335 $45 $-1 $336 reversed single #
loop $-1 $-1 $337 $130 #
plane-surface $-1 25.109487380964264 -100.24741446689413 95.313458424196099 -1 0 0 0 -0.6018150307709319 0.79863550430605224 forward_v I I I I #
coedge $-1 $338 $339 $340 $341 reversed $131 $-1 #
coedge $-1 $213 $133 $342 $343 reversed $84 $-1 #
coedge $-1 $133 $212 $338 $344 reversed $84 $-1 #
coedge $-1 $340 $345 $133 $215 forward $335 $-1 #
edge $-1 $346 39.205479223866604 $347 46.14680932644513 $214 $348 forward 7 unknown #
loop $-1 $-1 $221 $134 #
plane-surface $-1 17.814664145307709 -29.561376684178612 1.5099198856529057 0 -0.6018150307709319 0.79863550430605224 1 0 0 forward_v I I I I #
loop $-1 $-1 $349 $86 #
coedge $-1 $219 $219 $220 $350 reversed $135 $-1 #
coedge $-1 $220 $220 $219 $350 forward $137 $-1 #
coedge $-1 $221 $221 $138 $222 forward $216 $-1 #
edge $-1 $351 -1.3670919450219845e-016 $351 6.2831853071796004 $221 $352 forward 7 unknown #
face $-1 $353 $354 $47 $-1 $355 reversed single #
loop $-1 $-1 $356 $139 #
plane-surface $-1 52.150855908551911 -100.24741446689413 95.313458424196099 -1 0 0 0 -0.6018150307709319 0.79863550430605224 forward_v I I I I #
coedge $-1 $357 $358 $359 $360 reversed $140 $-1 #
coedge $-1 $228 $142 $361 $362 reversed $90 $-1 #
coedge $-1 $142 $227 $357 $363 reversed $90 $-1 #
coedge $-1 $359 $364 $142 $230 forward $354 $-1 #
edge $-1 $365 39.205479223866604 $366 46.14680932644513 $229 $367 forward 7 unknown #
loop $-1 $-1 $236 $143 #
plane-surface $-1 44.85603267289536 -29.561376684178612 1.5099198856529057 0 -0.6018150307709319 0.79863550430605224 1 0 0 forward_v I I I I #
loop $-1 $-1 $368 $92 #
coedge $-1 $234 $234 $235 $369 reversed $144 $-1 #
coedge $-1 $235 $235 $234 $369 forward $146 $-1 #
coedge $-1 $236 $236 $147 $237 forward $231 $-1 #
edge $-1 $370 -1.3670919450219845e-016 $370 6.2831853071796004 $236 $371 forward 7 unknown #
face $-1 $372 $373 $49 $-1 $374 reversed single #
loop $-1 $-1 $375 $148 #
plane-surface $-1 -12.177912734341525 48.500134129366657 132.62367576677542 -1 0 0 0 0.57357644374324357 0.81915203911291934 forward_v I I I I #
coedge $-1 $376 $377 $378 $379 reversed $149 $-1 #
coedge $-1 $243 $151 $380 $381 reversed $96 $-1 #
coedge $-1 $151 $242 $376 $382 reversed $96 $-1 #
coedge $-1 $378 $383 $151 $245 forward $384 $-1 #
edge $-1 $385 -5.3113096194952654 $386 3.1894498528823902 $244 $387 forward 7 unknown #
loop $-1 $-1 $251 $152 #
plane-surface $-1 -17.832114593831683 -18.869147295481426 36.410372632172127 0 0.57357644374324357 0.81915203911291934 1 0 0 forward_v I I I I #
loop $-1 $-1 $388 $98 #
coedge $-1 $249 $249 $250 $389 reversed $153 $-1 #
coedge $-1 $250 $250 $249 $389 forward $155 $-1 #
coedge $-1 $251 $251 $156 $252 forward $246 $-1 #
edge $-1 $390 -1.0188764387621837e-015 $390 6.2831853071795996 $251 $391 forward 7 unknown #
loop $-1 $-1 $258 $157 #
plane-surface $-1 -17.832114593831683 -18.869147295481426 36.410372632172127 0 0.57357644374324357 0.81915203911291934 1 0 0 forward_v I I I I #
loop $-1 $-1 $392 $101 #
coedge $-1 $256 $256 $257 $393 reversed $158 $-1 #
coedge $-1 $257 $257 $256 $393 forward $160 $-1 #
coedge $-1 $258 $258 $161 $259 forward $253 $-1 #
edge $-1 $394 -1.0188764387621837e-015 $394 6.2831853071795996 $258 $395 forward 7 unknown #
face $-1 $396 $397 $39 $-1 $398 reversed single #
loop $-1 $-1 $399 $162 #
plane-surface $-1 -58.727378154850918 0 0 1 0 0 0 0 -1 forward_v I I I I #
coedge $-1 $400 $271 $401 $402 forward $163 $-1 #
coedge $-1 $403 $165 $400 $404 forward $105 $-1 #
coedge $-1 $165 $403 $405 $406 forward $105 $-1 #
coedge $-1 $274 $273 $165 $267 reversed $275 $-1 #
edge $-1 $407 -29.561376684178594 $408 29.561376684178594 $266 $409 forward 7 unknown #
coedge $-1 $167 $166 $410 $411 forward $66 $-1 #
coedge $-1 $412 $413 $166 $270 reversed $397 $-1 #
edge $-1 $277 -58.727378154850918 $414 58.727378154850918 $269 $415 forward 7 unknown #
coedge $-1 $263 $416 $167 $272 reversed $163 $-1 #
edge $-1 $417 -58.727378154850918 $276 58.727378154850918 $271 $418 forward 7 unknown #
coedge $-1 $266 $168 $416 $419 forward $275 $-1 #
coedge $-1 $168 $266 $412 $420 reversed $275 $-1 #
loop $-1 $-1 $273 $396 #
vertex $-1 $169 $421 #
vertex $-1 $169 $422 #
straight-curve $-1 58.727378154850918 0 8.4512499882314476 0 1 0 I I #
face $-1 $423 $424 $40 $-1 $425 reversed single #
loop $-1 $-1 $284 $170 #
plane-surface $-1 0 -29.561376684178594 0 0 1 0 0 0 1 forward_v I I I I #
coedge $-1 $426 $427 $283 $428 forward $171 $-1 #
coedge $-1 $291 $173 $282 $428 reversed $109 $-1 #
coedge $-1 $289 $429 $173 $285 forward $280 $-1 #
edge $-1 $430 -5.0262459740946248 $292 -1.8237620541790207 $284 $431 forward 7 unknown #
coedge $-1 $175 $174 $432 $433 reversed $69 $-1 #
coedge $-1 $434 $435 $174 $288 forward $436 $-1 #
edge $-1 $437 -31.686009627263264 $293 -22.396727427912044 $287 $438 forward 7 unknown #
coedge $-1 $439 $284 $175 $290 forward $280 $-1 #
edge $-1 $292 22.396727427912044 $440 31.686009627263264 $289 $441 forward 7 unknown #
coedge $-1 $176 $283 $434 $442 reversed $109 $-1 #
vertex $-1 $290 $443 #
vertex $-1 $288 $444 #
straight-curve $-1 -49.438095955499698 0 -5.2487660683158435 0 1 0 I I #
face $-1 $-1 $307 $41 $-1 $445 reversed single #
loop $-1 $-1 $446 $178 #
plane-surface $-1 0 0 8.4512499882314476 0 0 1 1 0 0 forward_v I I I I #
coedge $-1 $447 $448 $449 $450 reversed $179 $-1 #
coedge $-1 $451 $181 $183 $305 forward $113 $-1 #
coedge $-1 $181 $451 $447 $452 forward $113 $-1 #
coedge $-1 $449 $184 $181 $302 forward $307 $-1 #
edge $-1 $309 -25.42885969059035 $453 -10.839213219277244 $301 $454 forward 7 unknown #
coedge $-1 $455 $456 $182 $304 forward $296 $-1 #
edge $-1 $457 -29.773786534218164 $308 -20.56233054926847 $303 $458 forward 7 unknown #
edge $-1 $309 2.2204403247347866e-014 $457 11.533992585207816 $183 $459 forward 7 unknown #
coedge $-1 $184 $449 $455 $460 reversed $307 $-1 #
loop $-1 $-1 $449 $295 #
vertex $-1 $460 $461 #
vertex $-1 $185 $462 #
straight-curve $-1 -43.562896145524149 -29.561376684178597 47.65672921209805 0 0 -1 I I #
coedge $-1 $311 $311 $-1 $463 reversed $188 $-1 #
edge $-1 $464 0 $464 6.2831853071796004 $189 $465 forward 7 unknown #
vertex $-1 $192 $466 #
ellipse-curve $-1 -36.268072909867598 -24.955648691703743 4.9805849369421873 0 -0.6018150307709319 0.79863550430605224 1.5 0 0 1 I I #
face $-1 $-1 $467 $43 $-1 $468 forward single #
loop $-1 $-1 $199 $193 #
plane-surface $-1 0 -29.561376684178594 0 0 1 0 0 0 1 forward_v I I I I #
coedge $-1 $469 $470 $471 $472 reversed $194 $-1 #
coedge $-1 $473 $196 $198 $325 forward $122 $-1 #
coedge $-1 $196 $473 $469 $474 forward $122 $-1 #
coedge $-1 $471 $199 $196 $322 forward $316 $-1 #
edge $-1 $328 -11.908175426796525 $475 2.6814710445165835 $321 $476 forward 7 unknown #
coedge $-1 $477 $478 $197 $324 forward $467 $-1 #
edge $-1 $479 -29.773786534218164 $327 -20.56233054926847 $323 $480 forward 7 unknown #
edge $-1 $328 2.2204403247347866e-014 $479 11.533992585207816 $198 $481 forward 7 unknown #
coedge $-1 $199 $471 $477 $482 reversed $316 $-1 #
vertex $-1 $482 $483 #
vertex $-1 $200 $484 #
straight-curve $-1 -16.521527617936496 -29.561376684178597 47.65672921209805 0 0 -1 I I #
coedge $-1 $330 $330 $-1 $485 reversed $203 $-1 #
edge $-1 $486 0 $486 6.2831853071796004 $204 $487 forward 7 unknown #
vertex $-1 $207 $488 #
ellipse-curve $-1 -9.2267043822799408 -24.955648691703743 4.9805849369421873 0 -0.6018150307709319 0.79863550430605224 1.5 0 0 1 I I #
face $-1 $-1 $489 $45 $-1 $490 forward single #
loop $-1 $-1 $214 $208 #
plane-surface $-1 0 -29.561376684178594 0 0 1 0 0 0 1 forward_v I I I I #
coedge $-1 $491 $492 $493 $494 reversed $209 $-1 #
coedge $-1 $495 $211 $213 $344 forward $131 $-1 #
coedge $-1 $211 $495 $491 $496 forward $131 $-1 #
coedge $-1 $493 $214 $211 $341 forward $335 $-1 #
edge $-1 $347 1.6125088369973 $497 16.20215530831041 $340 $498 forward 7 unknown #
coedge $-1 $499 $500 $212 $343 forward $489 $-1 #
edge $-1 $501 -29.773786534218164 $346 -20.56233054926847 $342 $502 forward 7 unknown #
edge $-1 $347 2.2204403247347866e-014 $501 11.533992585207816 $213 $503 forward 7 unknown #
coedge $-1 $214 $493 $499 $504 reversed $335 $-1 #
vertex $-1 $504 $505 #
vertex $-1 $215 $506 #
straight-curve $-1 10.519840909651155 -29.561376684178597 47.65672921209805 0 0 -1 I I #
coedge $-1 $349 $349 $-1 $507 reversed $218 $-1 #
edge $-1 $508 0 $508 6.2831853071796004 $219 $509 forward 7 unknown #
vertex $-1 $222 $510 #
ellipse-curve $-1 17.814664145307709 -24.955648691703743 4.9805849369421873 0 -0.6018150307709319 0.79863550430605224 1.5 0 0 1 I I #
face $-1 $-1 $511 $47 $-1 $512 forward single #
loop $-1 $-1 $229 $223 #
plane-surface $-1 0 -29.561376684178594 0 0 1 0 0 0 1 forward_v I I I I #
coedge $-1 $513 $514 $515 $516 reversed $224 $-1 #
coedge $-1 $517 $226 $228 $363 forward $140 $-1 #
coedge $-1 $226 $517 $513 $518 forward $140 $-1 #
coedge $-1 $515 $229 $226 $360 forward $354 $-1 #
edge $-1 $366 15.133193100791129 $519 29.722839572104231 $359 $520 forward 7 unknown #
coedge $-1 $521 $522 $227 $362 forward $511 $-1 #
edge $-1 $523 -29.773786534218164 $365 -20.56233054926847 $361 $524 forward 7 unknown #
edge $-1 $366 2.2204403247347866e-014 $523 11.533992585207816 $228 $525 forward 7 unknown #
coedge $-1 $229 $515 $521 $526 reversed $354 $-1 #
vertex $-1 $526 $527 #
vertex $-1 $230 $528 #
straight-curve $-1 37.561209437238809 -29.561376684178597 47.65672921209805 0 0 -1 I I #
coedge $-1 $368 $368 $-1 $529 reversed $233 $-1 #
edge $-1 $530 0 $530 6.2831853071796004 $234 $531 forward 7 unknown #
vertex $-1 $237 $532 #
ellipse-curve $-1 44.85603267289536 -24.955648691703743 4.9805849369421873 0 -0.6018150307709319 0.79863550430605224 1.5 0 0 1 I I #
face $-1 $-1 $384 $49 $-1 $533 forward single #
loop $-1 $-1 $534 $238 #
plane-surface $-1 0 29.561376684178594 0 0 -1 0 0 0 -1 forward_v I I I I #
coedge $-1 $535 $536 $537 $538 reversed $239 $-1 #
coedge $-1 $539 $241 $243 $382 forward $149 $-1 #
coedge $-1 $241 $539 $535 $540 forward $149 $-1 #
coedge $-1 $537 $244 $241 $379 forward $384 $-1 #
edge $-1 $386 -14.570259156405999 $541 -3.2618554374256838 $378 $542 forward 7 unknown #
coedge $-1 $543 $544 $242 $381 forward $373 $-1 #
edge $-1 $545 -63.812883872546784 $385 -57.860587895156264 $380 $546 forward 7 unknown #
edge $-1 $386 48.745242153731709 $545 59.122753368357202 $243 $547 forward 7 unknown #
coedge $-1 $244 $537 $543 $548 forward $384 $-1 #
loop $-1 $-1 $537 $372 #
vertex $-1 $381 $549 #
vertex $-1 $245 $550 #
straight-curve $-1 -23.486316453321841 24.250067064683329 8.4512499882314458 0 -1 0 I I #
coedge $-1 $388 $388 $-1 $551 reversed $248 $-1 #
edge $-1 $552 0 $552 6.2831853071796004 $249 $553 forward 7 unknown #
vertex $-1 $252 $554 #
ellipse-curve $-1 -20.255343962184604 25.310996947989761 5.4751019995361849 0 0.57357644374324357 0.81915203911291934 1.5 0 0 1 I I #
coedge $-1 $392 $392 $-1 $555 reversed $255 $-1 #
edge $-1 $556 0 $556 6.2831853071796004 $256 $557 forward 7 unknown #
vertex $-1 $259 $558 #
ellipse-curve $-1 -15.408885225478755 25.310996947989761 5.4751019995361849 0 0.57357644374324357 0.81915203911291934 1.5 0 0 1 I I #
face $-1 $-1 $275 $39 $-1 $559 reversed single #
loop $-1 $-1 $412 $260 #
plane-surface $-1 0 29.561376684178594 0 0 -1 0 0 0 -1 forward_v I I I I #
coedge $-1 $560 $410 $413 $561 forward $261 $-1 #
coedge $-1 $416 $263 $264 $404 reversed $163 $-1 #
coedge $-1 $410 $560 $263 $402 reversed $261 $-1 #
edge $-1 $417 -8.4512499882314476 $562 8.4512499882314476 $401 $563 forward 7 unknown #
coedge $-1 $265 $264 $560 $564 forward $105 $-1 #
edge $-1 $408 -58.727378154850918 $562 58.727378154850918 $400 $565 forward 7 unknown #
coedge $-1 $413 $412 $265 $406 reversed $397 $-1 #
edge $-1 $566 -58.727378154850918 $407 58.727378154850918 $405 $567 forward 7 unknown #
vertex $-1 $267 $568 #
vertex $-1 $419 $569 #
straight-curve $-1 58.727378154850918 0 -8.4512499882314476 0 -1 0 I I #
coedge $-1 $399 $401 $268 $411 reversed $261 $-1 #
edge $-1 $414 -29.561376684178594 $417 29.561376684178594 $410 $570 forward 7 unknown #
coedge $-1 $405 $269 $274 $420 forward $397 $-1 #
coedge $-1 $269 $405 $399 $561 reversed $397 $-1 #
vertex $-1 $270 $571 #
straight-curve $-1 0 29.561376684178594 8.4512499882314476 -1 0 0 I I #
coedge $-1 $271 $400 $273 $419 reversed $163 $-1 #
vertex $-1 $411 $572 #
straight-curve $-1 0 -29.561376684178594 8.4512499882314476 1 0 0 I I #
edge $-1 $276 -8.4512499882314476 $408 8.4512499882314476 $273 $573 forward 7 unknown #
edge $-1 $277 -8.4512499882314476 $407 8.4512499882314476 $274 $574 forward 7 unknown #
point $-1 58.727378154850918 -29.561376684178594 8.4512499882314476 #
point $-1 58.727378154850918 29.561376684178594 8.4512499882314476 #
face $-1 $-1 $436 $40 $-1 $575 reversed single #
loop $-1 $-1 $432 $279 #
plane-surface $-1 -58.727378154850918 0 0 1 0 0 0 0 -1 forward_v I I I I #
coedge $-1 $576 $282 $429 $577 forward $171 $-1 #
coedge $-1 $282 $576 $578 $579 forward $171 $-1 #
edge $-1 $580 -29.561376684178594 $430 29.561376684178594 $282 $581 forward 7 unknown #
coedge $-1 $284 $439 $426 $577 reversed $280 $-1 #
vertex $-1 $577 $582 #
straight-curve $-1 -49.438095955499698 -29.561376684178594 -3.4250040141368228 0 0 1 I I #
coedge $-1 $583 $584 $286 $433 forward $424 $-1 #
edge $-1 $440 -29.561376684178594 $437 29.561376684178594 $432 $585 forward 7 unknown #
coedge $-1 $578 $287 $291 $442 forward $436 $-1 #
coedge $-1 $287 $578 $583 $586 reversed $436 $-1 #
loop $-1 $-1 $434 $423 #
vertex $-1 $586 $587 #
straight-curve $-1 -27.041368527587654 29.561376684178594 -5.2487660683158435 1 0 0 I I #
coedge $-1 $429 $289 $584 $588 forward $280 $-1 #
vertex $-1 $588 $589 #
straight-curve $-1 -27.041368527587654 -29.561376684178594 -5.2487660683158435 -1 0 0 I I #
edge $-1 $293 1.8237620541790207 $580 5.0262459740946248 $434 $590 forward 7 unknown #
point $-1 -49.438095955499698 -29.561376684178594 -5.2487660683158435 #
point $-1 -49.438095955499698 29.561376684178594 -5.2487660683158435 #
plane-surface $-1 0 -29.561376684178594 0 0 1 0 0 0 1 forward_v I I I I #
coedge $-1 $456 $455 $448 $591 forward $296 $-1 #
coedge $-1 $448 $298 $300 $452 reversed $179 $-1 #
coedge $-1 $298 $447 $446 $591 reversed $179 $-1 #
coedge $-1 $306 $301 $298 $450 forward $307 $-1 #
edge $-1 $453 -46.14680932644513 $592 -39.205479223866604 $449 $593 forward 7 unknown #
coedge $-1 $300 $299 $456 $594 reversed $113 $-1 #
edge $-1 $595 -11.533992585207816 $453 -2.2204403247347866e-014 $447 $596 forward 7 unknown #
vertex $-1 $302 $597 #
straight-curve $-1 -18.134036454933799 -29.561376684178594 1.5099198856529201 1 0 0 I I #
coedge $-1 $446 $303 $306 $460 forward $296 $-1 #
coedge $-1 $303 $446 $451 $594 forward $296 $-1 #
vertex $-1 $304 $598 #
straight-curve $-1 -43.562896145524149 -50.123707233447064 8.4512499882314458 0 -1 0 I I #
straight-curve $-1 -43.562896145524149 -29.561376684178612 1.5099198856529057 0 0.79863550430605224 0.6018150307709319 I I #
edge $-1 $308 -43.562896145524149 $592 -28.973249674211043 $306 $599 forward 7 unknown #
point $-1 -43.562896145524149 -29.561376684178594 8.4512499882314476 #
point $-1 -43.562896145524149 -29.561376684178594 1.509919885652919 #
edge $-1 $600 1 $600 0 $311 $-1 forward 7 unknown #
vertex $-1 $312 $601 #
ellipse-curve $-1 -36.268072909867598 -23.752744106821787 3.3842766683557111 0 -0.6018150307709319 0.79863550430605224 1.5 0 0 1 I I #
point $-1 -34.768072909867598 -24.955648691703736 4.9805849369421775 #
loop $-1 $-1 $323 $315 #
plane-surface $-1 0 0 8.4512499882314476 0 0 1 1 0 0 forward_v I I I I #
coedge $-1 $470 $318 $320 $474 reversed $194 $-1 #
coedge $-1 $318 $469 $602 $603 reversed $194 $-1 #
coedge $-1 $326 $321 $318 $472 forward $316 $-1 #
edge $-1 $475 -46.14680932644513 $604 -39.205479223866604 $471 $605 forward 7 unknown #
coedge $-1 $320 $319 $478 $606 reversed $122 $-1 #
edge $-1 $607 -11.533992585207816 $475 -2.2204403247347866e-014 $469 $608 forward 7 unknown #
vertex $-1 $322 $609 #
straight-curve $-1 -4.6133521911399704 -29.561376684178594 1.5099198856529201 1 0 0 I I #
coedge $-1 $602 $323 $326 $482 forward $467 $-1 #
coedge $-1 $323 $602 $473 $606 forward $467 $-1 #
vertex $-1 $324 $610 #
straight-curve $-1 -16.521527617936496 -50.123707233447064 8.4512499882314458 0 -1 0 I I #
straight-curve $-1 -16.521527617936496 -29.561376684178612 1.5099198856529057 0 0.79863550430605224 0.6018150307709319 I I #
edge $-1 $327 -16.521527617936496 $604 -1.9318811466233869 $326 $611 forward 7 unknown #
point $-1 -16.521527617936496 -29.561376684178594 8.4512499882314476 #
point $-1 -16.521527617936496 -29.561376684178594 1.509919885652919 #
edge $-1 $612 1 $612 0 $330 $-1 forward 7 unknown #
vertex $-1 $331 $613 #
ellipse-curve $-1 -9.2267043822799408 -23.752744106821787 3.3842766683557111 0 -0.6018150307709319 0.79863550430605224 1.5 0 0 1 I I #
point $-1 -7.7267043822799408 -24.955648691703736 4.9805849369421775 #
loop $-1 $-1 $342 $334 #
plane-surface $-1 0 0 8.4512499882314476 0 0 1 1 0 0 forward_v I I I I #
coedge $-1 $492 $337 $339 $496 reversed $209 $-1 #
coedge $-1 $337 $491 $614 $615 reversed $209 $-1 #
coedge $-1 $345 $340 $337 $494 forward $335 $-1 #
edge $-1 $497 -46.14680932644513 $616 -39.205479223866604 $493 $617 forward 7 unknown #
coedge $-1 $339 $338 $500 $618 reversed $131 $-1 #
edge $-1 $619 -11.533992585207816 $497 -2.2204403247347866e-014 $491 $620 forward 7 unknown #
vertex $-1 $341 $621 #
straight-curve $-1 8.9073320726538547 -29.561376684178594 1.5099198856529201 1 0 0 I I #
coedge $-1 $614 $342 $345 $504 forward $489 $-1 #
coedge $-1 $342 $614 $495 $618 forward $489 $-1 #
vertex $-1 $343 $622 #
straight-curve $-1 10.519840909651155 -50.123707233447064 8.4512499882314458 0 -1 0 I I #
straight-curve $-1 10.519840909651155 -29.561376684178612 1.5099198856529057 0 0.79863550430605224 0.6018150307709319 I I #
edge $-1 $346 10.519840909651155 $616 25.109487380964264 $345 $623 forward 7 unknown #
point $-1 10.519840909651155 -29.561376684178594 8.4512499882314476 #
point $-1 10.519840909651155 -29.561376684178594 1.509919885652919 #
edge $-1 $624 1 $624 0 $349 $-1 forward 7 unknown #
vertex $-1 $350 $625 #
ellipse-curve $-1 17.814664145307709 -23.752744106821787 3.3842766683557111 0 -0.6018150307709319 0.79863550430605224 1.5 0 0 1 I I #
point $-1 19.314664145307709 -24.955648691703736 4.9805849369421775 #
loop $-1 $-1 $361 $353 #
plane-surface $-1 0 0 8.4512499882314476 0 0 1 1 0 0 forward_v I I I I #
coedge $-1 $514 $356 $358 $518 reversed $224 $-1 #
coedge $-1 $356 $513 $626 $627 reversed $224 $-1 #
coedge $-1 $364 $359 $356 $516 forward $354 $-1 #
edge $-1 $519 -46.14680932644513 $628 -39.205479223866604 $515 $629 forward 7 unknown #
coedge $-1 $358 $357 $522 $630 reversed $140 $-1 #
edge $-1 $631 -11.533992585207816 $519 -2.2204403247347866e-014 $513 $632 forward 7 unknown #
vertex $-1 $360 $633 #
straight-curve $-1 22.42801633644768 -29.561376684178594 1.5099198856529201 1 0 0 I I #
coedge $-1 $626 $361 $364 $526 forward $511 $-1 #
coedge $-1 $361 $626 $517 $630 forward $511 $-1 #
vertex $-1 $362 $634 #
straight-curve $-1 37.561209437238809 -50.123707233447064 8.4512499882314458 0 -1 0 I I #
straight-curve $-1 37.561209437238809 -29.561376684178612 1.5099198856529057 0 0.79863550430605224 0.6018150307709319 I I #
edge $-1 $365 37.561209437238809 $628 52.150855908551911 $364 $635 forward 7 unknown #
point $-1 37.561209437238809 -29.561376684178594 8.4512499882314476 #
point $-1 37.561209437238809 -29.561376684178594 1.509919885652919 #
edge $-1 $636 1 $636 0 $368 $-1 forward 7 unknown #
vertex $-1 $369 $637 #
ellipse-curve $-1 44.85603267289536 -23.752744106821787 3.3842766683557111 0 -0.6018150307709319 0.79863550430605224 1.5 0 0 1 I I #
point $-1 46.35603267289536 -24.955648691703736 4.9805849369421775 #
plane-surface $-1 0 0 8.4512499882314476 0 0 1 1 0 0 forward_v I I I I #
coedge $-1 $544 $543 $536 $638 forward $373 $-1 #
coedge $-1 $536 $375 $377 $540 reversed $239 $-1 #
coedge $-1 $375 $535 $534 $638 reversed $239 $-1 #
coedge $-1 $383 $378 $375 $538 forward $384 $-1 #
edge $-1 $541 -3.1894498528823902 $639 5.3113096194952654 $537 $640 forward 7 unknown #
coedge $-1 $377 $376 $544 $641 reversed $149 $-1 #
edge $-1 $642 -59.122753368357202 $541 -48.745242153731709 $535 $643 forward 7 unknown #
vertex $-1 $379 $644 #
straight-curve $-1 -8.9160572969158416 21.060617211800935 8.4512499882314458 1 0 0 I I #
coedge $-1 $534 $380 $383 $548 reversed $373 $-1 #
coedge $-1 $380 $534 $539 $641 forward $373 $-1 #
vertex $-1 $381 $645 #
straight-curve $-1 -23.486316453321841 29.561376684178594 66.31183788338771 0 0 1 I I #
straight-curve $-1 -23.486316453321841 -18.869147295481426 36.410372632172127 0 0.81915203911291934 -0.57357644374324357 I I #
edge $-1 $639 12.177912734341525 $385 23.486316453321841 $543 $646 forward 7 unknown #
point $-1 -23.486316453321841 29.561376684178594 8.4512499882314476 #
point $-1 -23.486316453321841 21.060617211800938 8.4512499882314458 #
edge $-1 $647 1 $647 0 $388 $-1 forward 7 unknown #
vertex $-1 $389 $648 #
ellipse-curve $-1 -20.255343962184604 23.32302339035456 2.6359815802736364 0 0.57357644374324357 0.81915203911291934 1.5 0 0 1 I I #
point $-1 -18.755343962184604 25.310996947989761 5.4751019995361876 #
edge $-1 $649 1 $649 0 $392 $-1 forward 7 unknown #
vertex $-1 $393 $650 #
ellipse-curve $-1 -15.408885225478755 23.32302339035456 2.6359815802736364 0 0.57357644374324357 0.81915203911291934 1.5 0 0 1 I I #
point $-1 -13.908885225478755 25.310996947989761 5.4751019995361876 #
plane-surface $-1 58.727378154850918 0 0 -1 0 0 0 0 1 forward_v I I I I #
coedge $-1 $401 $399 $403 $564 reversed $261 $-1 #
edge $-1 $414 -8.4512499882314476 $566 8.4512499882314476 $413 $651 forward 7 unknown #
vertex $-1 $564 $652 #
straight-curve $-1 -58.727378154850918 -29.561376684178594 0 0 0 -1 I I #
edge $-1 $562 -29.561376684178594 $566 29.561376684178594 $560 $653 forward 7 unknown #
straight-curve $-1 0 -29.561376684178594 -8.4512499882314476 -1 0 0 I I #
vertex $-1 $406 $654 #
straight-curve $-1 0 29.561376684178594 -8.4512499882314476 1 0 0 I I #
point $-1 58.727378154850918 29.561376684178594 -8.4512499882314476 #
point $-1 58.727378154850918 -29.561376684178594 -8.4512499882314476 #
straight-curve $-1 -58.727378154850918 0 8.4512499882314476 0 -1 0 I I #
point $-1 -58.727378154850918 29.561376684178594 8.4512499882314476 #
point $-1 -58.727378154850918 -29.561376684178594 8.4512499882314476 #
straight-curve $-1 58.727378154850918 -29.561376684178594 0 0 0 -1 I I #
straight-curve $-1 58.727378154850918 29.561376684178594 0 0 0 -1 I I #
plane-surface $-1 0 29.561376684178594 0 0 -1 0 0 0 -1 forward_v I I I I #
coedge $-1 $427 $426 $655 $656 forward $171 $-1 #
edge $-1 $430 49.438095955499698 $657 58.727378154850918 $429 $658 forward 7 unknown #
coedge $-1 $435 $434 $427 $579 reversed $436 $-1 #
edge $-1 $659 -58.727378154850918 $580 -49.438095955499698 $578 $660 forward 7 unknown #
vertex $-1 $442 $661 #
straight-curve $-1 -49.438095955499698 0 -8.4512499882314476 0 -1 0 I I #
point $-1 -49.438095955499698 -29.561376684178594 -8.4512499882314476 #
coedge $-1 $655 $432 $435 $586 forward $424 $-1 #
coedge $-1 $432 $655 $439 $588 reversed $424 $-1 #
straight-curve $-1 -58.727378154850918 0 -5.2487660683158435 0 1 0 I I #
edge $-1 $437 5.2487660683158435 $659 8.4512499882314476 $435 $662 forward 7 unknown #
point $-1 -58.727378154850918 29.561376684178594 -5.2487660683158435 #
edge $-1 $440 5.2487660683158435 $657 8.4512499882314476 $584 $663 forward 7 unknown #
point $-1 -58.727378154850918 -29.561376684178594 -5.2487660683158435 #
straight-curve $-1 -49.438095955499698 29.561376684178594 -3.4250040141368228 0 0 -1 I I #
edge $-1 $592 20.56233054926847 $595 29.773786534218164 $446 $664 forward 7 unknown #
vertex $-1 $450 $665 #
straight-curve $-1 -28.973249674211043 -29.561376684178597 47.65672921209805 0 0 1 I I #
edge $-1 $595 10.839213219277244 $457 25.42885969059035 $456 $666 forward 7 unknown #
vertex $-1 $594 $667 #
straight-curve $-1 -28.973249674211043 -29.561376684178612 1.5099198856529057 0 -0.79863550430605224 -0.6018150307709319 I I #
point $-1 -28.973249674211043 -29.561376684178594 1.509919885652919 #
point $-1 -43.562896145524149 -20.3499206992289 8.4512499882314476 #
straight-curve $-1 0 -29.561376684178594 8.4512499882314476 1 0 0 I I #
vertex $-1 $463 $668 #
point $-1 -34.768072909867598 -23.752744106821787 3.3842766683557111 #
coedge $-1 $478 $477 $470 $603 forward $467 $-1 #
edge $-1 $604 20.56233054926847 $607 29.773786534218164 $602 $669 forward 7 unknown #
vertex $-1 $603 $670 #
straight-curve $-1 -1.9318811466233869 -29.561376684178597 47.65672921209805 0 0 1 I I #
edge $-1 $607 -2.6814710445165835 $479 11.908175426796525 $478 $671 forward 7 unknown #
vertex $-1 $606 $672 #
straight-curve $-1 -1.9318811466233869 -29.561376684178612 1.5099198856529057 0 -0.79863550430605224 -0.6018150307709319 I I #
point $-1 -1.9318811466233869 -29.561376684178594 1.509919885652919 #
point $-1 -16.521527617936496 -20.3499206992289 8.4512499882314476 #
straight-curve $-1 0 -29.561376684178594 8.4512499882314476 1 0 0 I I #
vertex $-1 $485 $673 #
point $-1 -7.7267043822799408 -23.752744106821787 3.3842766683557111 #
coedge $-1 $500 $499 $492 $615 forward $489 $-1 #
edge $-1 $616 20.56233054926847 $619 29.773786534218164 $614 $674 forward 7 unknown #
vertex $-1 $615 $675 #
straight-curve $-1 25.109487380964264 -29.561376684178597 47.65672921209805 0 0 1 I I #
edge $-1 $619 -16.20215530831041 $501 -1.6125088369973 $500 $676 forward 7 unknown #
vertex $-1 $618 $677 #
straight-curve $-1 25.109487380964264 -29.561376684178612 1.5099198856529057 0 -0.79863550430605224 -0.6018150307709319 I I #
point $-1 25.109487380964264 -29.561376684178594 1.509919885652919 #
point $-1 10.519840909651155 -20.3499206992289 8.4512499882314476 #
straight-curve $-1 0 -29.561376684178594 8.4512499882314476 1 0 0 I I #
vertex $-1 $507 $678 #
point $-1 19.314664145307709 -23.752744106821787 3.3842766683557111 #
coedge $-1 $522 $521 $514 $627 forward $511 $-1 #
edge $-1 $628 20.56233054926847 $631 29.773786534218164 $626 $679 forward 7 unknown #
vertex $-1 $627 $680 #
straight-curve $-1 52.150855908551911 -29.561376684178597 47.65672921209805 0 0 1 I I #
edge $-1 $631 -29.722839572104231 $523 -15.133193100791129 $522 $681 forward 7 unknown #
vertex $-1 $630 $682 #
straight-curve $-1 52.150855908551911 -29.561376684178612 1.5099198856529057 0 -0.79863550430605224 -0.6018150307709319 I I #
point $-1 52.150855908551911 -29.561376684178594 1.509919885652919 #
point $-1 37.561209437238809 -20.3499206992289 8.4512499882314476 #
straight-curve $-1 0 -29.561376684178594 8.4512499882314476 1 0 0 I I #
vertex $-1 $529 $683 #
point $-1 46.35603267289536 -23.752744106821787 3.3842766683557111 #
edge $-1 $639 57.860587895156264 $642 63.812883872546784 $534 $684 forward 7 unknown #
vertex $-1 $548 $685 #
straight-curve $-1 -12.177912734341525 24.250067064683329 8.4512499882314458 0 1 0 I I #
edge $-1 $642 3.2618554374256838 $545 14.570259156405999 $544 $686 forward 7 unknown #
vertex $-1 $641 $687 #
straight-curve $-1 -12.177912734341525 -18.869147295481426 36.410372632172127 0 -0.81915203911291934 0.57357644374324357 I I #
point $-1 -12.177912734341525 21.060617211800938 8.4512499882314458 #
point $-1 -23.486316453321841 29.561376684178597 2.4989540108409258 #
straight-curve $-1 0 29.561376684178594 8.4512499882314476 -1 0 0 I I #
vertex $-1 $551 $688 #
point $-1 -18.755343962184604 23.32302339035456 2.6359815802736364 #
vertex $-1 $555 $689 #
point $-1 -13.908885225478755 23.32302339035456 2.6359815802736364 #
straight-curve $-1 -58.727378154850918 29.561376684178594 0 0 0 -1 I I #
point $-1 -58.727378154850918 -29.561376684178594 -8.4512499882314476 #
straight-curve $-1 -58.727378154850918 0 -8.4512499882314476 0 1 0 I I #
point $-1 -58.727378154850918 29.561376684178594 -8.4512499882314476 #
coedge $-1 $584 $583 $576 $656 reversed $424 $-1 #
edge $-1 $657 -29.561376684178594 $659 29.561376684178594 $655 $690 forward 7 unknown #
vertex $-1 $656 $691 #
straight-curve $-1 0 -29.561376684178594 -8.4512499882314476 -1 0 0 I I #
vertex $-1 $579 $692 #
straight-curve $-1 0 29.561376684178594 -8.4512499882314476 1 0 0 I I #
point $-1 -49.438095955499698 29.561376684178594 -8.4512499882314476 #
straight-curve $-1 -58.727378154850918 29.561376684178594 0 0 0 -1 I I #
straight-curve $-1 -58.727378154850918 -29.561376684178594 0 0 0 -1 I I #
straight-curve $-1 -28.973249674211043 -50.123707233447064 8.4512499882314458 0 1 0 I I #
point $-1 -28.973249674211043 -29.561376684178594 8.4512499882314476 #
straight-curve $-1 -18.134036454933799 -20.349920699228903 8.4512499882314476 -1 0 0 I I #
point $-1 -28.973249674211043 -20.3499206992289 8.4512499882314476 #
point $-1 -36.268072909867598 -22.85002156066539 2.186323411896633 #
straight-curve $-1 -1.9318811466233869 -50.123707233447064 8.4512499882314458 0 1 0 I I #
point $-1 -1.9318811466233869 -29.561376684178594 8.4512499882314476 #
straight-curve $-1 -4.6133521911399704 -20.349920699228903 8.4512499882314476 -1 0 0 I I #
point $-1 -1.9318811466233869 -20.3499206992289 8.4512499882314476 #
point $-1 -9.2267043822799408 -22.85002156066539 2.186323411896633 #
straight-curve $-1 25.109487380964264 -50.123707233447064 8.4512499882314458 0 1 0 I I #
point $-1 25.109487380964264 -29.561376684178594 8.4512499882314476 #
straight-curve $-1 8.9073320726538547 -20.349920699228903 8.4512499882314476 -1 0 0 I I #
point $-1 25.109487380964264 -20.3499206992289 8.4512499882314476 #
point $-1 17.814664145307709 -22.85002156066539 2.186323411896633 #
straight-curve $-1 52.150855908551911 -50.123707233447064 8.4512499882314458 0 1 0 I I #
point $-1 52.150855908551911 -29.561376684178594 8.4512499882314476 #
straight-curve $-1 22.42801633644768 -20.349920699228903 8.4512499882314476 -1 0 0 I I #
point $-1 52.150855908551911 -20.3499206992289 8.4512499882314476 #
point $-1 44.85603267289536 -22.85002156066539 2.186323411896633 #
straight-curve $-1 -12.177912734341525 29.561376684178594 66.31183788338771 0 0 -1 I I #
point $-1 -12.177912734341525 29.561376684178594 8.4512499882314476 #
straight-curve $-1 -8.9160572969158416 29.561376684178597 2.4989540108409258 -1 0 0 I I #
point $-1 -12.177912734341525 29.561376684178597 2.4989540108409258 #
point $-1 -20.255343962184604 22.462658724739693 1.4072535216042574 #
point $-1 -15.408885225478755 22.462658724739693 1.4072535216042574 #
straight-curve $-1 -58.727378154850918 0 -8.4512499882314476 0 1 0 I I #
point $-1 -58.727378154850918 -29.561376684178594 -8.4512499882314476 #
point $-1 -58.727378154850918 29.561376684178594 -8.4512499882314476 #
End-of-ACIS-data 