500 0 9 0           
7 Unknown 11 ACIS 5.0 NT 24 Fri Mar 26 01:36:58 1999 
-1 9.9999999999999995e-007 1e-010 
body $-1 $9 $-1 $10 #
body $-1 $11 $-1 $12 #
body $-1 $13 $-1 $14 #
body $-1 $15 $-1 $16 #
body $-1 $17 $-1 $18 #
body $-1 $19 $-1 $20 #
body $-1 $21 $-1 $22 #
body $-1 $23 $-1 $24 #
body $-1 $25 $-1 $26 #
lump $-1 $-1 $27 $0 #
transform $-1 1 0 0 0 1 0 0 0 1 48.17896053956725 20.279950289560695 10.09374227980552 1 rotate no_reflect no_shear #
lump $-1 $-1 $28 $1 #
transform $-1 1 0 0 0 1 0 0 0 1 48.17896053956725 20.279950289560695 10.09374227980552 1 rotate no_reflect no_shear #
lump $-1 $-1 $29 $2 #
transform $-1 1 0 0 0 1 0 0 0 1 48.17896053956725 20.279950289560695 10.09374227980552 1 rotate no_reflect no_shear #
lump $-1 $-1 $30 $3 #
transform $-1 1 0 0 0 1 0 0 0 1 48.17896053956725 20.279950289560695 10.09374227980552 1 rotate no_reflect no_shear #
lump $-1 $-1 $31 $4 #
transform $-1 1 0 0 0 1 0 0 0 1 48.17896053956725 20.279950289560695 10.09374227980552 1 rotate no_reflect no_shear #
lump $-1 $-1 $32 $5 #
transform $-1 1 0 0 0 1 0 0 0 1 48.17896053956725 20.279950289560695 10.09374227980552 1 rotate no_reflect no_shear #
lump $-1 $-1 $33 $6 #
transform $-1 1 0 0 0 1 0 0 0 1 48.17896053956725 20.279950289560695 10.09374227980552 1 rotate no_reflect no_shear #
lump $-1 $-1 $34 $7 #
transform $-1 1 0 0 0 1 0 0 0 1 48.17896053956725 20.279950289560695 10.09374227980552 1 rotate no_reflect no_shear #
lump $-1 $-1 $35 $8 #
transform $-1 1 0 0 0 1 0 0 0 1 48.17896053956725 20.279950289560695 10.09374227980552 1 rotate no_reflect no_shear #
shell $-1 $-1 $-1 $36 $-1 $9 #
shell $-1 $-1 $-1 $37 $-1 $11 #
shell $-1 $-1 $-1 $38 $-1 $13 #
shell $-1 $-1 $-1 $39 $-1 $15 #
shell $-1 $-1 $-1 $40 $-1 $17 #
shell $-1 $-1 $-1 $41 $-1 $19 #
shell $-1 $-1 $-1 $42 $-1 $21 #
shell $-1 $-1 $-1 $43 $-1 $23 #
shell $-1 $-1 $-1 $44 $-1 $25 #
face $-1 $45 $46 $27 $-1 $47 forward single #
face $-1 $48 $49 $28 $-1 $50 reversed single #
face $-1 $51 $52 $29 $-1 $53 reversed single #
face $-1 $54 $55 $30 $-1 $56 forward single #
face $-1 $57 $58 $31 $-1 $59 forward single #
face $-1 $60 $61 $32 $-1 $62 reversed single #
face $-1 $63 $64 $33 $-1 $65 forward single #
face $-1 $66 $67 $34 $-1 $68 forward single #
face $-1 $69 $70 $35 $-1 $71 forward single #
face $-1 $72 $73 $27 $-1 $74 reversed single #
loop $-1 $-1 $75 $36 #
plane-surface $-1 0 0 10.09374227980552 0 0 1 1 0 0 forward_v I I I I #
face $-1 $76 $77 $28 $-1 $78 reversed single #
loop $-1 $-1 $79 $37 #
plane-surface $-1 0 -14.457548777979333 5.2889028580717454 0 0 1 1 0 0 forward_v I I I I #
face $-1 $80 $81 $29 $-1 $82 reversed single #
loop $-1 $-1 $83 $38 #
plane-surface $-1 -112.65499547417281 3.5612937371633322 76.050706575429359 0 1 0 -0.66913061440640931 0 0.74314481823134659 forward_v I I I I #
face $-1 $84 $85 $30 $-1 $86 forward single #
loop $-1 $87 $88 $39 #
cone-surface $-1 -44.487729267768465 5.307062472346928 6.6538475461579978 0.66913061440640931 0 -0.74314481823134659 0.3715724091156733 0 0.33456530720320465 1 I I 0 1 0.5 forward I I I I #
face $-1 $89 $90 $31 $-1 $91 forward single #
loop $-1 $92 $93 $40 #
cone-surface $-1 -44.487729267768465 7.9257155751223252 6.6538475461579978 0.66913061440640931 0 -0.74314481823134659 0.3715724091156733 0 0.33456530720320465 1 I I 0 1 0.5 forward I I I I #
face $-1 $94 $95 $32 $-1 $96 reversed single #
loop $-1 $-1 $97 $41 #
plane-surface $-1 -30.75282699708751 17.056875595932034 58.036031006192886 0.57357644374324357 0 0.81915203911291934 0.81915203911291934 0 -0.57357644374324357 forward_v I I I I #
face $-1 $98 $99 $33 $-1 $100 forward single #
loop $-1 $101 $102 $42 #
cone-surface $-1 42.613860508571968 15.123030779754835 5.9542143957421674 -0.57357644374324357 0 -0.81915203911291934 0.40957601955645967 0 -0.28678822187162178 1 I I 0 1 0.5 forward I I I I #
face $-1 $103 $104 $34 $-1 $105 forward single #
loop $-1 $106 $107 $43 #
cone-surface $-1 42.613860508571968 17.056875595932034 5.9542143957421674 -0.57357644374324357 0 -0.81915203911291934 0.40957601955645967 0 -0.28678822187162178 1 I I 0 1 0.5 forward I I I I #
face $-1 $108 $109 $35 $-1 $110 forward single #
loop $-1 $111 $112 $44 #
cone-surface $-1 42.613860508571968 18.990720412109233 5.9542143957421674 -0.57357644374324357 0 -0.81915203911291934 0.40957601955645967 0 -0.28678822187162178 1 I I 0 1 0.5 forward I I I I #
face $-1 $113 $114 $27 $-1 $115 reversed single #
loop $-1 $-1 $116 $45 #
plane-surface $-1 0 0 -10.09374227980552 0 0 1 1 0 0 forward_v I I I I #
coedge $-1 $117 $118 $119 $120 forward $46 $-1 #
face $-1 $121 $122 $28 $-1 $123 reversed single #
loop $-1 $-1 $124 $48 #
plane-surface $-1 0 -8.635147266397972 7.6913225689386326 0 -1 0 0 0 -1 forward_v I I I I #
coedge $-1 $125 $126 $127 $128 reversed $49 $-1 #
face $-1 $129 $130 $29 $-1 $131 reversed single #
loop $-1 $-1 $132 $51 #
plane-surface $-1 -48.178960539567242 6.6163890237346266 4.4428168299255049 -0.66913061440640931 0 0.74314481823134659 0.74314481823134659 0 0.66913061440640931 forward_v I I I I #
coedge $-1 $133 $134 $135 $136 reversed $52 $-1 #
face $-1 $-1 $137 $30 $-1 $138 forward single #
loop $-1 $139 $140 $54 #
cone-surface $-1 -43.767209536532512 5.307062472346928 5.8536293328926483 0.66913061440640931 0 -0.74314481823134659 0.18578620455783665 0 0.16728265360160233 1 I I -0.70710678118654746 0.70710678118654746 0.25 forward I I I I #
loop $-1 $-1 $141 $39 #
coedge $-1 $88 $88 $142 $143 reversed $55 $-1 #
face $-1 $-1 $144 $31 $-1 $145 forward single #
loop $-1 $146 $147 $57 #
cone-surface $-1 -43.767209536532512 7.9257155751223252 5.8536293328926483 0.66913061440640931 0 -0.74314481823134659 0.18578620455783665 0 0.16728265360160233 1 I I -0.70710678118654746 0.70710678118654746 0.25 forward I I I I #
loop $-1 $-1 $148 $40 #
coedge $-1 $93 $93 $149 $150 reversed $58 $-1 #
face $-1 $151 $152 $32 $-1 $153 reversed single #
loop $-1 $-1 $154 $60 #
plane-surface $-1 24.515806701974576 13.83380090230337 136.96781854284765 0 1 0 0.57357644374324357 0 0.81915203911291934 forward_v I I I I #
coedge $-1 $155 $156 $157 $158 reversed $61 $-1 #
face $-1 $-1 $159 $33 $-1 $160 forward single #
loop $-1 $161 $162 $63 #
cone-surface $-1 42.136918750875189 15.123030779754835 5.2730709882379667 -0.57357644374324357 0 -0.81915203911291934 0.20478800977822983 0 -0.14339411093581089 1 I I -0.70710678118654746 0.70710678118654746 0.25 forward I I I I #
loop $-1 $-1 $163 $42 #
coedge $-1 $102 $102 $164 $165 reversed $64 $-1 #
face $-1 $-1 $166 $34 $-1 $167 forward single #
loop $-1 $168 $169 $66 #
cone-surface $-1 42.136918750875189 17.056875595932034 5.2730709882379667 -0.57357644374324357 0 -0.81915203911291934 0.20478800977822983 0 -0.14339411093581089 1 I I -0.70710678118654746 0.70710678118654746 0.25 forward I I I I #
loop $-1 $-1 $170 $43 #
coedge $-1 $107 $107 $171 $172 reversed $67 $-1 #
face $-1 $-1 $173 $35 $-1 $174 forward single #
loop $-1 $175 $176 $69 #
cone-surface $-1 42.136918750875189 18.990720412109233 5.2730709882379667 -0.57357644374324357 0 -0.81915203911291934 0.20478800977822983 0 -0.14339411093581089 1 I I -0.70710678118654746 0.70710678118654746 0.25 forward I I I I #
loop $-1 $-1 $177 $44 #
coedge $-1 $112 $112 $178 $179 reversed $70 $-1 #
face $-1 $180 $181 $27 $-1 $182 reversed single #
loop $-1 $-1 $183 $72 #
plane-surface $-1 0 -20.279950289560695 0 0 1 0 0 0 1 forward_v I I I I #
coedge $-1 $184 $185 $186 $187 forward $73 $-1 #
coedge $-1 $188 $75 $189 $190 forward $46 $-1 #
coedge $-1 $75 $188 $191 $192 forward $46 $-1 #
coedge $-1 $193 $194 $75 $120 reversed $195 $-1 #
edge $-1 $196 -20.279950289560695 $197 20.279950289560695 $119 $198 forward 7 unknown #
face $-1 $199 $200 $28 $-1 $201 reversed single #
loop $-1 $-1 $202 $76 #
plane-surface $-1 -48.17896053956725 0 0 1 0 0 0 0 -1 forward_v I I I I #
coedge $-1 $203 $204 $205 $206 reversed $77 $-1 #
coedge $-1 $207 $79 $208 $209 reversed $49 $-1 #
coedge $-1 $79 $207 $203 $210 forward $49 $-1 #
coedge $-1 $205 $211 $79 $128 forward $212 $-1 #
edge $-1 $213 -13.051175900571028 $214 -1.4063728774083053 $127 $215 forward 7 unknown #
face $-1 $216 $217 $29 $-1 $218 forward single #
loop $-1 $-1 $219 $80 #
plane-surface $-1 -112.65499547417281 9.6714843103059209 76.050706575429359 0 -1 0 0.66913061440640931 0 -0.74314481823134659 forward_v I I I I #
coedge $-1 $220 $221 $222 $223 reversed $81 $-1 #
coedge $-1 $134 $83 $224 $225 reversed $52 $-1 #
coedge $-1 $83 $133 $220 $226 reversed $52 $-1 #
coedge $-1 $222 $227 $83 $136 forward $217 $-1 #
edge $-1 $228 8.1485371975191541 $229 14.424525585848009 $135 $230 forward 7 unknown #
loop $-1 $-1 $142 $84 #
plane-surface $-1 -48.178960539567242 6.6163890237346266 4.4428168299255049 -0.66913061440640931 0 0.74314481823134659 0.74314481823134659 0 0.66913061440640931 forward_v I I I I #
loop $-1 $-1 $231 $54 #
coedge $-1 $140 $140 $141 $232 reversed $85 $-1 #
coedge $-1 $141 $141 $140 $232 forward $87 $-1 #
coedge $-1 $142 $142 $88 $143 forward $137 $-1 #
edge $-1 $233 0 $233 6.2831853071796004 $142 $234 forward 7 unknown #
loop $-1 $-1 $149 $89 #
plane-surface $-1 -48.178960539567242 6.6163890237346266 4.4428168299255049 -0.66913061440640931 0 0.74314481823134659 0.74314481823134659 0 0.66913061440640931 forward_v I I I I #
loop $-1 $-1 $235 $57 #
coedge $-1 $147 $147 $148 $236 reversed $90 $-1 #
coedge $-1 $148 $148 $147 $236 forward $92 $-1 #
coedge $-1 $149 $149 $93 $150 forward $144 $-1 #
edge $-1 $237 0 $237 6.2831853071796004 $149 $238 forward 7 unknown #
face $-1 $239 $240 $32 $-1 $241 forward single #
loop $-1 $-1 $242 $94 #
plane-surface $-1 0 20.279950289560695 0 0 -1 0 0 0 -1 forward_v I I I I #
coedge $-1 $243 $244 $245 $246 reversed $95 $-1 #
coedge $-1 $247 $97 $242 $248 reversed $61 $-1 #
coedge $-1 $97 $247 $243 $249 forward $61 $-1 #
coedge $-1 $245 $250 $97 $158 forward $240 $-1 #
edge $-1 $251 -11.751512491594681 $252 -5.3053631043373528 $157 $253 forward 7 unknown #
loop $-1 $-1 $164 $98 #
plane-surface $-1 -30.75282699708751 17.056875595932034 58.036031006192886 0.57357644374324357 0 0.81915203911291934 0.81915203911291934 0 -0.57357644374324357 forward_v I I I I #
loop $-1 $-1 $254 $63 #
coedge $-1 $162 $162 $163 $255 reversed $99 $-1 #
coedge $-1 $163 $163 $162 $255 forward $101 $-1 #
coedge $-1 $164 $164 $102 $165 forward $159 $-1 #
edge $-1 $256 0 $256 6.2831853071796004 $164 $257 forward 7 unknown #
loop $-1 $-1 $171 $103 #
plane-surface $-1 -30.75282699708751 17.056875595932034 58.036031006192886 0.57357644374324357 0 0.81915203911291934 0.81915203911291934 0 -0.57357644374324357 forward_v I I I I #
loop $-1 $-1 $258 $66 #
coedge $-1 $169 $169 $170 $259 reversed $104 $-1 #
coedge $-1 $170 $170 $169 $259 forward $106 $-1 #
coedge $-1 $171 $171 $107 $172 forward $166 $-1 #
edge $-1 $260 0 $260 6.2831853071796004 $171 $261 forward 7 unknown #
loop $-1 $-1 $178 $108 #
plane-surface $-1 -30.75282699708751 17.056875595932034 58.036031006192886 0.57357644374324357 0 0.81915203911291934 0.81915203911291934 0 -0.57357644374324357 forward_v I I I I #
loop $-1 $-1 $262 $69 #
coedge $-1 $176 $176 $177 $263 reversed $109 $-1 #
coedge $-1 $177 $177 $176 $263 forward $111 $-1 #
coedge $-1 $178 $178 $112 $179 forward $173 $-1 #
edge $-1 $264 0 $264 6.2831853071796004 $178 $265 forward 7 unknown #
face $-1 $266 $267 $27 $-1 $268 reversed single #
loop $-1 $-1 $269 $113 #
plane-surface $-1 -48.17896053956725 0 0 1 0 0 0 0 -1 forward_v I I I I #
coedge $-1 $270 $191 $271 $272 forward $114 $-1 #
coedge $-1 $273 $116 $270 $274 forward $73 $-1 #
coedge $-1 $116 $273 $275 $276 forward $73 $-1 #
coedge $-1 $194 $193 $116 $187 reversed $195 $-1 #
edge $-1 $277 -20.279950289560695 $278 20.279950289560695 $186 $279 forward 7 unknown #
coedge $-1 $118 $117 $280 $281 forward $46 $-1 #
coedge $-1 $282 $283 $117 $190 reversed $267 $-1 #
edge $-1 $197 -48.17896053956725 $284 48.17896053956725 $189 $285 forward 7 unknown #
coedge $-1 $183 $286 $118 $192 reversed $114 $-1 #
edge $-1 $287 -48.17896053956725 $196 48.17896053956725 $191 $288 forward 7 unknown #
coedge $-1 $186 $119 $286 $289 forward $195 $-1 #
coedge $-1 $119 $186 $282 $290 reversed $195 $-1 #
loop $-1 $-1 $193 $266 #
vertex $-1 $120 $291 #
vertex $-1 $120 $292 #
straight-curve $-1 48.17896053956725 0 10.09374227980552 0 1 0 I I #
face $-1 $293 $294 $28 $-1 $295 forward single #
loop $-1 $-1 $208 $121 #
plane-surface $-1 0 -20.279950289560695 0 0 1 0 0 0 1 forward_v I I I I #
coedge $-1 $296 $297 $298 $299 forward $122 $-1 #
coedge $-1 $298 $124 $126 $210 reversed $77 $-1 #
coedge $-1 $124 $298 $300 $301 reversed $77 $-1 #
coedge $-1 $302 $127 $124 $206 forward $212 $-1 #
edge $-1 $214 1.4432415736024291 $303 6.2480809953362035 $205 $304 forward 7 unknown #
coedge $-1 $126 $125 $296 $305 reversed $49 $-1 #
coedge $-1 $306 $307 $125 $209 forward $200 $-1 #
edge $-1 $308 -48.17896053956725 $213 48.17896053956725 $208 $309 forward 7 unknown #
edge $-1 $310 -48.17896053956725 $214 48.17896053956725 $203 $311 forward 7 unknown #
coedge $-1 $127 $302 $306 $312 forward $212 $-1 #
loop $-1 $-1 $205 $293 #
vertex $-1 $209 $313 #
vertex $-1 $128 $314 #
straight-curve $-1 48.17896053956725 -7.2287743889896667 5.2889028580717454 0 1 0 I I #
face $-1 $-1 $315 $29 $-1 $316 reversed single #
loop $-1 $-1 $135 $129 #
plane-surface $-1 0 0 10.09374227980552 0 0 1 1 0 0 forward_v I I I I #
coedge $-1 $317 $318 $319 $320 reversed $130 $-1 #
coedge $-1 $321 $132 $134 $226 forward $81 $-1 #
coedge $-1 $132 $321 $317 $322 forward $81 $-1 #
coedge $-1 $319 $135 $132 $223 forward $217 $-1 #
edge $-1 $229 0.25309922529601891 $323 6.3632897984386076 $222 $324 forward 7 unknown #
coedge $-1 $325 $326 $133 $225 forward $315 $-1 #
edge $-1 $327 -33.582536457789182 $228 -27.931611007909162 $224 $328 forward 7 unknown #
edge $-1 $229 -8.4451754683097136 $327 9.4405131238556439e-015 $134 $329 forward 7 unknown #
coedge $-1 $135 $319 $325 $330 forward $217 $-1 #
vertex $-1 $225 $331 #
vertex $-1 $136 $332 #
straight-curve $-1 -56.327497737086404 3.5612937371633322 10.093742279805518 1 0 0 I I #
coedge $-1 $231 $231 $-1 $333 reversed $139 $-1 #
edge $-1 $334 0 $334 6.2831853071796004 $140 $335 forward 7 unknown #
vertex $-1 $143 $336 #
ellipse-curve $-1 -45.040966345402815 5.307062472346928 7.2682795548655115 -0.66913061440640931 0 0.74314481823134659 0.3715724091156733 0 0.33456530720320465 1 I I #
coedge $-1 $235 $235 $-1 $337 reversed $146 $-1 #
edge $-1 $338 0 $338 6.2831853071796004 $147 $339 forward 7 unknown #
vertex $-1 $150 $340 #
ellipse-curve $-1 -45.040966345402815 7.9257155751223252 7.2682795548655115 -0.66913061440640931 0 0.74314481823134659 0.3715724091156733 0 0.33456530720320465 1 I I #
face $-1 $-1 $341 $32 $-1 $342 reversed single #
loop $-1 $-1 $157 $151 #
plane-surface $-1 0 0 10.09374227980552 0 0 1 1 0 0 forward_v I I I I #
coedge $-1 $343 $344 $155 $248 forward $152 $-1 #
coedge $-1 $244 $154 $156 $249 reversed $95 $-1 #
coedge $-1 $154 $243 $345 $346 reversed $95 $-1 #
coedge $-1 $347 $157 $154 $246 forward $240 $-1 #
edge $-1 $252 25.457952420111386 $348 35.921057188579965 $245 $349 forward 7 unknown #
coedge $-1 $156 $155 $350 $351 reversed $61 $-1 #
edge $-1 $352 -67.118250470806572 $251 -54.345157969200478 $242 $353 forward 7 unknown #
edge $-1 $354 -96.357921079134456 $252 -83.584828577528384 $243 $355 forward 7 unknown #
coedge $-1 $157 $347 $343 $356 forward $240 $-1 #
vertex $-1 $158 $357 #
vertex $-1 $158 $358 #
straight-curve $-1 37.715855771098688 8.5284377979660171 10.093742279805518 0 -1 0 I I #
coedge $-1 $254 $254 $-1 $359 reversed $161 $-1 #
edge $-1 $360 0 $360 6.2831853071796004 $162 $361 forward 7 unknown #
vertex $-1 $165 $362 #
ellipse-curve $-1 42.947408155332951 15.123030779754835 6.430569793468166 0.57357644374324357 0 0.81915203911291934 0.40957601955645967 0 -0.28678822187162178 1 I I #
coedge $-1 $258 $258 $-1 $363 reversed $168 $-1 #
edge $-1 $364 0 $364 6.2831853071796004 $169 $365 forward 7 unknown #
vertex $-1 $172 $366 #
ellipse-curve $-1 42.947408155332951 17.056875595932034 6.430569793468166 0.57357644374324357 0 0.81915203911291934 0.40957601955645967 0 -0.28678822187162178 1 I I #
coedge $-1 $262 $262 $-1 $367 reversed $175 $-1 #
edge $-1 $368 0 $368 6.2831853071796004 $176 $369 forward 7 unknown #
vertex $-1 $179 $370 #
ellipse-curve $-1 42.947408155332951 18.990720412109233 6.430569793468166 0.57357644374324357 0 0.81915203911291934 0.40957601955645967 0 -0.28678822187162178 1 I I #
face $-1 $-1 $195 $27 $-1 $371 reversed single #
loop $-1 $-1 $282 $180 #
plane-surface $-1 0 20.279950289560695 0 0 -1 0 0 0 -1 forward_v I I I I #
coedge $-1 $372 $280 $283 $373 forward $181 $-1 #
coedge $-1 $286 $183 $184 $274 reversed $114 $-1 #
coedge $-1 $280 $372 $183 $272 reversed $181 $-1 #
edge $-1 $287 -10.09374227980552 $374 10.09374227980552 $271 $375 forward 7 unknown #
coedge $-1 $185 $184 $372 $376 forward $73 $-1 #
edge $-1 $278 -48.17896053956725 $374 48.17896053956725 $270 $377 forward 7 unknown #
coedge $-1 $283 $282 $185 $276 reversed $267 $-1 #
edge $-1 $378 -48.17896053956725 $277 48.17896053956725 $275 $379 forward 7 unknown #
vertex $-1 $187 $380 #
vertex $-1 $289 $381 #
straight-curve $-1 48.17896053956725 0 -10.09374227980552 0 -1 0 I I #
coedge $-1 $269 $271 $188 $281 reversed $181 $-1 #
edge $-1 $284 -20.279950289560695 $287 20.279950289560695 $280 $382 forward 7 unknown #
coedge $-1 $275 $189 $194 $290 forward $267 $-1 #
coedge $-1 $189 $275 $269 $373 reversed $267 $-1 #
vertex $-1 $190 $383 #
straight-curve $-1 0 20.279950289560695 10.09374227980552 -1 0 0 I I #
coedge $-1 $191 $270 $193 $289 reversed $114 $-1 #
vertex $-1 $281 $384 #
straight-curve $-1 0 -20.279950289560695 10.09374227980552 1 0 0 I I #
edge $-1 $196 -10.09374227980552 $278 10.09374227980552 $193 $385 forward 7 unknown #
edge $-1 $197 -10.09374227980552 $277 10.09374227980552 $194 $386 forward 7 unknown #
point $-1 48.17896053956725 -20.279950289560695 10.09374227980552 #
point $-1 48.17896053956725 20.279950289560695 10.09374227980552 #
face $-1 $-1 $212 $28 $-1 $387 reversed single #
loop $-1 $-1 $300 $199 #
plane-surface $-1 0 0 10.09374227980552 0 0 1 1 0 0 forward_v I I I I #
coedge $-1 $388 $202 $207 $305 forward $122 $-1 #
coedge $-1 $202 $388 $389 $390 reversed $122 $-1 #
coedge $-1 $204 $203 $202 $299 reversed $77 $-1 #
edge $-1 $391 -6.2480809953362035 $310 -1.4432415736024291 $202 $392 forward 7 unknown #
coedge $-1 $389 $393 $204 $301 forward $294 $-1 #
edge $-1 $303 -48.17896053956725 $391 48.17896053956725 $300 $394 forward 7 unknown #
coedge $-1 $211 $205 $393 $395 reversed $212 $-1 #
vertex $-1 $206 $396 #
straight-curve $-1 48.17896053956725 -8.635147266397972 3.8456612844693163 0 0 1 I I #
edge $-1 $310 1.4063728774083053 $308 13.051175900571028 $296 $397 forward 7 unknown #
coedge $-1 $398 $208 $211 $312 reversed $200 $-1 #
coedge $-1 $208 $398 $388 $399 forward $200 $-1 #
vertex $-1 $209 $400 #
straight-curve $-1 0 -20.279950289560695 5.2889028580717454 1 0 0 I I #
vertex $-1 $305 $401 #
straight-curve $-1 0 -8.635147266397972 5.2889028580717454 1 0 0 I I #
edge $-1 $402 -10.09374227980552 $213 -5.2889028580717454 $211 $403 forward 7 unknown #
point $-1 48.17896053956725 -20.279950289560695 5.2889028580717454 #
point $-1 48.17896053956725 -8.635147266397972 5.2889028580717454 #
loop $-1 $-1 $224 $216 #
plane-surface $-1 -48.17896053956725 0 0 1 0 0 0 0 -1 forward_v I I I I #
coedge $-1 $318 $219 $221 $322 reversed $130 $-1 #
coedge $-1 $219 $317 $404 $405 reversed $130 $-1 #
coedge $-1 $227 $222 $219 $320 forward $217 $-1 #
edge $-1 $323 -14.424525585848009 $406 -8.1485371975191541 $319 $407 forward 7 unknown #
coedge $-1 $221 $220 $326 $408 reversed $81 $-1 #
edge $-1 $409 -9.4405131238556439e-015 $323 8.4451754683097136 $317 $410 forward 7 unknown #
vertex $-1 $223 $411 #
straight-curve $-1 -41.902972151238387 3.3081945118673133 10.093742279805518 0 1 0 I I #
coedge $-1 $404 $224 $227 $330 reversed $315 $-1 #
coedge $-1 $224 $404 $321 $408 forward $315 $-1 #
vertex $-1 $225 $412 #
straight-curve $-1 -48.17896053956725 3.5612937371633322 38.02535328771468 0 0 1 I I #
straight-curve $-1 -48.178960539567242 3.5612937371633322 4.4428168299255049 -0.74314481823134659 0 -0.66913061440640931 I I #
edge $-1 $406 -9.6714843103059209 $228 -3.5612937371633322 $325 $413 forward 7 unknown #
point $-1 -48.17896053956725 3.5612937371633322 10.09374227980552 #
point $-1 -41.902972151238394 3.5612937371633322 10.09374227980552 #
edge $-1 $414 1 $414 0 $231 $-1 forward 7 unknown #
vertex $-1 $232 $415 #
ellipse-curve $-1 -43.934492190134115 5.307062472346928 6.039415537450485 -0.66913061440640931 0 0.74314481823134659 0.3715724091156733 0 0.33456530720320465 1 I I #
point $-1 -44.669393936287143 5.307062472346928 7.6028448620687152 #
edge $-1 $416 1 $416 0 $235 $-1 forward 7 unknown #
vertex $-1 $236 $417 #
ellipse-curve $-1 -43.934492190134115 7.9257155751223252 6.039415537450485 -0.66913061440640931 0 0.74314481823134659 0.3715724091156733 0 0.33456530720320465 1 I I #
point $-1 -44.669393936287143 7.9257155751223252 7.6028448620687152 #
loop $-1 $-1 $350 $239 #
plane-surface $-1 48.17896053956725 0 0 -1 0 0 0 0 1 forward_v I I I I #
coedge $-1 $344 $242 $250 $356 reversed $152 $-1 #
coedge $-1 $242 $343 $418 $419 forward $152 $-1 #
coedge $-1 $350 $420 $244 $346 forward $341 $-1 #
edge $-1 $348 58.390166991618308 $354 65.716511964293019 $345 $421 forward 7 unknown #
coedge $-1 $250 $245 $420 $422 forward $240 $-1 #
vertex $-1 $422 $423 #
straight-curve $-1 12.257903350987288 13.83380090230337 10.093742279805518 1 0 0 I I #
coedge $-1 $418 $345 $247 $351 forward $341 $-1 #
edge $-1 $354 5.3053631043373528 $352 11.751512491594681 $350 $424 forward 7 unknown #
vertex $-1 $351 $425 #
straight-curve $-1 -6.8010911952856148 20.279950289560695 41.264844722444323 -0.81915203911291934 0 0.57357644374324357 I I #
vertex $-1 $351 $426 #
straight-curve $-1 -30.75282699708751 13.83380090230337 58.036031006192886 -0.81915203911291934 0 0.57357644374324357 I I #
edge $-1 $427 -48.17896053956725 $251 -37.715855771098674 $343 $428 forward 7 unknown #
point $-1 37.715855771098674 20.279950289560698 10.093742279805518 #
point $-1 37.715855771098674 13.83380090230337 10.093742279805518 #
edge $-1 $429 1 $429 0 $254 $-1 forward 7 unknown #
vertex $-1 $255 $430 #
ellipse-curve $-1 42.280312861810998 15.123030779754835 5.4778589980161962 0.57357644374324357 0 0.81915203911291934 0.40957601955645967 0 -0.28678822187162178 1 I I #
point $-1 43.356984174889391 15.123030779754835 6.1437815715965174 #
edge $-1 $431 1 $431 0 $258 $-1 forward 7 unknown #
vertex $-1 $259 $432 #
ellipse-curve $-1 42.280312861810998 17.056875595932034 5.4778589980161962 0.57357644374324357 0 0.81915203911291934 0.40957601955645967 0 -0.28678822187162178 1 I I #
point $-1 43.356984174889391 17.056875595932034 6.1437815715965174 #
edge $-1 $433 1 $433 0 $262 $-1 forward 7 unknown #
vertex $-1 $263 $434 #
ellipse-curve $-1 42.280312861810998 18.990720412109233 5.4778589980161962 0.57357644374324357 0 0.81915203911291934 0.40957601955645967 0 -0.28678822187162178 1 I I #
point $-1 43.356984174889391 18.990720412109233 6.1437815715965174 #
plane-surface $-1 48.17896053956725 0 0 -1 0 0 0 0 1 forward_v I I I I #
coedge $-1 $271 $269 $273 $376 reversed $181 $-1 #
edge $-1 $284 -10.09374227980552 $378 10.09374227980552 $283 $435 forward 7 unknown #
vertex $-1 $376 $436 #
straight-curve $-1 -48.17896053956725 -20.279950289560695 0 0 0 -1 I I #
edge $-1 $374 -20.279950289560695 $378 20.279950289560695 $372 $437 forward 7 unknown #
straight-curve $-1 0 -20.279950289560695 -10.09374227980552 -1 0 0 I I #
vertex $-1 $276 $438 #
straight-curve $-1 0 20.279950289560695 -10.09374227980552 1 0 0 I I #
point $-1 48.17896053956725 20.279950289560695 -10.09374227980552 #
point $-1 48.17896053956725 -20.279950289560695 -10.09374227980552 #
straight-curve $-1 -48.17896053956725 0 10.09374227980552 0 -1 0 I I #
point $-1 -48.17896053956725 20.279950289560695 10.09374227980552 #
point $-1 -48.17896053956725 -20.279950289560695 10.09374227980552 #
straight-curve $-1 48.17896053956725 -20.279950289560695 0 0 0 -1 I I #
straight-curve $-1 48.17896053956725 20.279950289560695 0 0 0 -1 I I #
plane-surface $-1 48.17896053956725 0 0 -1 0 0 0 0 1 forward_v I I I I #
coedge $-1 $297 $296 $307 $399 reversed $122 $-1 #
coedge $-1 $439 $300 $297 $390 forward $294 $-1 #
edge $-1 $391 8.635147266397972 $440 20.279950289560695 $297 $441 forward 7 unknown #
vertex $-1 $390 $442 #
straight-curve $-1 -48.17896053956725 -8.635147266397972 3.8456612844693163 0 0 -1 I I #
coedge $-1 $300 $439 $302 $395 forward $294 $-1 #
straight-curve $-1 0 -8.635147266397972 10.09374227980552 -1 0 0 I I #
edge $-1 $402 -20.279950289560695 $303 -8.635147266397972 $302 $443 forward 7 unknown #
point $-1 48.17896053956725 -8.635147266397972 10.09374227980552 #
straight-curve $-1 -48.17896053956725 -7.2287743889896667 5.2889028580717454 0 -1 0 I I #
coedge $-1 $307 $306 $439 $444 reversed $200 $-1 #
edge $-1 $440 -10.09374227980552 $308 -5.2889028580717454 $388 $445 forward 7 unknown #
point $-1 -48.17896053956725 -20.279950289560695 5.2889028580717454 #
point $-1 -48.17896053956725 -8.635147266397972 5.2889028580717454 #
vertex $-1 $395 $446 #
straight-curve $-1 48.17896053956725 -20.279950289560695 0 0 0 -1 I I #
coedge $-1 $326 $325 $318 $405 forward $315 $-1 #
edge $-1 $406 27.931611007909162 $409 33.582536457789182 $404 $447 forward 7 unknown #
vertex $-1 $330 $448 #
straight-curve $-1 -56.327497737086404 9.6714843103059209 10.093742279805518 -1 0 0 I I #
edge $-1 $409 -6.3632897984386076 $327 -0.25309922529601891 $326 $449 forward 7 unknown #
vertex $-1 $408 $450 #
straight-curve $-1 -48.178960539567242 9.6714843103059209 4.4428168299255049 0.74314481823134659 0 0.66913061440640931 I I #
point $-1 -41.902972151238394 9.6714843103059209 10.09374227980552 #
point $-1 -48.17896053956725 3.5612937371633322 4.4428168299254986 #
straight-curve $-1 -48.17896053956725 0 10.09374227980552 0 -1 0 I I #
vertex $-1 $333 $451 #
point $-1 -43.562919781018444 5.307062472346928 6.3739808446536896 #
vertex $-1 $337 $452 #
point $-1 -43.562919781018444 7.9257155751223252 6.3739808446536896 #
coedge $-1 $420 $350 $344 $419 reversed $341 $-1 #
edge $-1 $427 -10.09374227980552 $352 -2.7673973071308069 $418 $453 forward 7 unknown #
coedge $-1 $345 $418 $347 $422 reversed $341 $-1 #
straight-curve $-1 48.17896053956725 13.83380090230337 68.483909271423826 0 0 -1 I I #
edge $-1 $348 13.83380090230337 $427 20.279950289560695 $420 $454 forward 7 unknown #
point $-1 48.17896053956725 13.83380090230337 10.09374227980552 #
straight-curve $-1 48.17896053956725 8.5284377979660171 2.7673973071308069 0 1 0 I I #
point $-1 48.178960539567242 20.279950289560698 2.7673973071308069 #
point $-1 48.178960539567242 13.83380090230337 2.7673973071308069 #
vertex $-1 $422 $455 #
straight-curve $-1 0 20.279950289560695 10.09374227980552 -1 0 0 I I #
vertex $-1 $359 $456 #
point $-1 42.689888881367459 15.123030779754835 5.1910707761445751 #
vertex $-1 $363 $457 #
point $-1 42.689888881367459 17.056875595932034 5.1910707761445751 #
vertex $-1 $367 $458 #
point $-1 42.689888881367459 18.990720412109233 5.1910707761445751 #
straight-curve $-1 -48.17896053956725 20.279950289560695 0 0 0 -1 I I #
point $-1 -48.17896053956725 -20.279950289560695 -10.09374227980552 #
straight-curve $-1 -48.17896053956725 0 -10.09374227980552 0 1 0 I I #
point $-1 -48.17896053956725 20.279950289560695 -10.09374227980552 #
coedge $-1 $393 $389 $398 $444 forward $294 $-1 #
vertex $-1 $390 $459 #
straight-curve $-1 -48.17896053956725 0 10.09374227980552 0 -1 0 I I #
point $-1 -48.17896053956725 -8.635147266397972 10.09374227980552 #
straight-curve $-1 48.17896053956725 0 10.09374227980552 0 1 0 I I #
edge $-1 $440 -48.17896053956725 $402 48.17896053956725 $398 $460 forward 7 unknown #
straight-curve $-1 -48.17896053956725 -20.279950289560695 0 0 0 -1 I I #
point $-1 48.17896053956725 -20.279950289560695 10.09374227980552 #
straight-curve $-1 -48.17896053956725 9.6714843103059209 38.02535328771468 0 0 -1 I I #
point $-1 -48.17896053956725 9.6714843103059209 10.09374227980552 #
straight-curve $-1 -48.17896053956725 3.3081945118673133 4.4428168299254924 0 -1 0 I I #
point $-1 -48.17896053956725 9.6714843103059209 4.4428168299254986 #
point $-1 -43.599926882930909 5.307062472346928 5.6678431283348116 #
point $-1 -43.599926882930909 7.9257155751223252 5.6678431283348116 #
straight-curve $-1 48.17896053956725 20.279950289560695 0 0 0 -1 I I #
straight-curve $-1 48.17896053956725 0 10.09374227980552 0 1 0 I I #
point $-1 48.17896053956725 20.279950289560695 10.09374227980552 #
point $-1 41.99352463993938 15.123030779754835 5.0682829784597372 #
point $-1 41.99352463993938 17.056875595932034 5.0682829784597372 #
point $-1 41.99352463993938 18.990720412109233 5.0682829784597372 #
point $-1 -48.17896053956725 -20.279950289560695 10.09374227980552 #
straight-curve $-1 0 -20.279950289560695 10.09374227980552 1 0 0 I I #
End-of-ACIS-data 