500 0 18 0           
7 Unknown 11 ACIS 5.0 NT 24 Thu Mar 25 22:25:18 1999 
-1 9.9999999999999995e-007 1e-010 
body $-1 $18 $-1 $19 #
body $-1 $20 $-1 $21 #
body $-1 $22 $-1 $23 #
body $-1 $24 $-1 $25 #
body $-1 $26 $-1 $27 #
body $-1 $28 $-1 $29 #
body $-1 $30 $-1 $31 #
body $-1 $32 $-1 $33 #
body $-1 $34 $-1 $35 #
body $-1 $36 $-1 $37 #
body $-1 $38 $-1 $39 #
body $-1 $40 $-1 $41 #
body $-1 $42 $-1 $43 #
body $-1 $44 $-1 $45 #
body $-1 $46 $-1 $47 #
body $-1 $48 $-1 $49 #
body $-1 $50 $-1 $51 #
body $-1 $52 $-1 $53 #
lump $-1 $-1 $54 $0 #
transform $-1 1 0 0 0 1 0 0 0 1 66.446119571520128 34.904339052606197 7.0054745866104513 1 rotate no_reflect no_shear #
lump $-1 $-1 $55 $1 #
transform $-1 1 0 0 0 1 0 0 0 1 66.446119571520128 34.904339052606197 7.0054745866104513 1 rotate no_reflect no_shear #
lump $-1 $-1 $56 $2 #
transform $-1 1 0 0 0 1 0 0 0 1 66.446119571520128 34.904339052606197 7.0054745866104513 1 rotate no_reflect no_shear #
lump $-1 $-1 $57 $3 #
transform $-1 1 0 0 0 1 0 0 0 1 66.446119571520128 34.904339052606197 7.0054745866104513 1 rotate no_reflect no_shear #
lump $-1 $-1 $58 $4 #
transform $-1 1 0 0 0 1 0 0 0 1 66.446119571520128 34.904339052606197 7.0054745866104513 1 rotate no_reflect no_shear #
lump $-1 $-1 $59 $5 #
transform $-1 1 0 0 0 1 0 0 0 1 66.446119571520128 34.904339052606197 7.0054745866104513 1 rotate no_reflect no_shear #
lump $-1 $-1 $60 $6 #
transform $-1 1 0 0 0 1 0 0 0 1 66.446119571520128 34.904339052606197 7.0054745866104513 1 rotate no_reflect no_shear #
lump $-1 $-1 $61 $7 #
transform $-1 1 0 0 0 1 0 0 0 1 66.446119571520128 34.904339052606197 7.0054745866104513 1 rotate no_reflect no_shear #
lump $-1 $-1 $62 $8 #
transform $-1 1 0 0 0 1 0 0 0 1 66.446119571520128 34.904339052606197 7.0054745866104513 1 rotate no_reflect no_shear #
lump $-1 $-1 $63 $9 #
transform $-1 1 0 0 0 1 0 0 0 1 66.446119571520128 34.904339052606197 7.0054745866104513 1 rotate no_reflect no_shear #
lump $-1 $-1 $64 $10 #
transform $-1 1 0 0 0 1 0 0 0 1 66.446119571520128 34.904339052606197 7.0054745866104513 1 rotate no_reflect no_shear #
lump $-1 $-1 $65 $11 #
transform $-1 1 0 0 0 1 0 0 0 1 66.446119571520128 34.904339052606197 7.0054745866104513 1 rotate no_reflect no_shear #
lump $-1 $-1 $66 $12 #
transform $-1 1 0 0 0 1 0 0 0 1 66.446119571520128 34.904339052606197 7.0054745866104513 1 rotate no_reflect no_shear #
lump $-1 $-1 $67 $13 #
transform $-1 1 0 0 0 1 0 0 0 1 66.446119571520128 34.904339052606197 7.0054745866104513 1 rotate no_reflect no_shear #
lump $-1 $-1 $68 $14 #
transform $-1 1 0 0 0 1 0 0 0 1 66.446119571520128 34.904339052606197 7.0054745866104513 1 rotate no_reflect no_shear #
lump $-1 $-1 $69 $15 #
transform $-1 1 0 0 0 1 0 0 0 1 66.446119571520128 34.904339052606197 7.0054745866104513 1 rotate no_reflect no_shear #
lump $-1 $-1 $70 $16 #
transform $-1 1 0 0 0 1 0 0 0 1 66.446119571520128 34.904339052606197 7.0054745866104513 1 rotate no_reflect no_shear #
lump $-1 $-1 $71 $17 #
transform $-1 1 0 0 0 1 0 0 0 1 66.446119571520128 34.904339052606197 7.0054745866104513 1 rotate no_reflect no_shear #
shell $-1 $-1 $-1 $72 $-1 $18 #
shell $-1 $-1 $-1 $73 $-1 $20 #
shell $-1 $-1 $-1 $74 $-1 $22 #
shell $-1 $-1 $-1 $75 $-1 $24 #
shell $-1 $-1 $-1 $76 $-1 $26 #
shell $-1 $-1 $-1 $77 $-1 $28 #
shell $-1 $-1 $-1 $78 $-1 $30 #
shell $-1 $-1 $-1 $79 $-1 $32 #
shell $-1 $-1 $-1 $80 $-1 $34 #
shell $-1 $-1 $-1 $81 $-1 $36 #
shell $-1 $-1 $-1 $82 $-1 $38 #
shell $-1 $-1 $-1 $83 $-1 $40 #
shell $-1 $-1 $-1 $84 $-1 $42 #
shell $-1 $-1 $-1 $85 $-1 $44 #
shell $-1 $-1 $-1 $86 $-1 $46 #
shell $-1 $-1 $-1 $87 $-1 $48 #
shell $-1 $-1 $-1 $88 $-1 $50 #
shell $-1 $-1 $-1 $89 $-1 $52 #
face $-1 $90 $91 $54 $-1 $92 reversed single #
face $-1 $93 $94 $55 $-1 $95 forward single #
face $-1 $96 $97 $56 $-1 $98 reversed single #
face $-1 $99 $100 $57 $-1 $101 forward single #
face $-1 $102 $103 $58 $-1 $104 forward single #
face $-1 $105 $106 $59 $-1 $107 forward single #
face $-1 $108 $109 $60 $-1 $110 reversed single #
face $-1 $111 $112 $61 $-1 $113 forward single #
face $-1 $114 $115 $62 $-1 $116 forward single #
face $-1 $117 $118 $63 $-1 $119 forward single #
face $-1 $120 $121 $64 $-1 $122 reversed single #
face $-1 $123 $124 $65 $-1 $125 forward single #
face $-1 $126 $127 $66 $-1 $128 forward single #
face $-1 $129 $130 $67 $-1 $131 forward single #
face $-1 $132 $133 $68 $-1 $134 reversed single #
face $-1 $135 $136 $69 $-1 $137 forward single #
face $-1 $138 $139 $70 $-1 $140 forward single #
face $-1 $141 $142 $71 $-1 $143 forward single #
face $-1 $144 $145 $54 $-1 $146 forward single #
loop $-1 $-1 $147 $72 #
plane-surface $-1 0 -34.904339052606197 0 0 1 0 0 0 1 forward_v I I I I #
face $-1 $148 $149 $55 $-1 $150 reversed single #
loop $-1 $-1 $151 $73 #
plane-surface $-1 0 -34.904339052606197 0 0 1 0 0 0 1 forward_v I I I I #
face $-1 $152 $153 $56 $-1 $154 reversed single #
loop $-1 $-1 $155 $74 #
plane-surface $-1 -173.95820054633887 -29.516496898830724 79.935811997171982 0 1 0 -0.80901700255871778 0 0.5877852410284794 forward_v I I I I #
face $-1 $156 $157 $57 $-1 $158 forward single #
loop $-1 $159 $160 $75 #
cone-surface $-1 -64.159226836563334 -27.798581726420508 4.1207022636238557 0.80901700255871778 0 -0.5877852410284794 0.2938926205142397 0 0.40450850127935889 1 I I 0 1 0.5 forward I I I I #
face $-1 $161 $162 $58 $-1 $163 forward single #
loop $-1 $164 $165 $76 #
cone-surface $-1 -64.159226836563334 -25.221708967805181 4.1207022636238557 0.80901700255871778 0 -0.5877852410284794 0.2938926205142397 0 0.40450850127935889 1 I I 0 1 0.5 forward I I I I #
face $-1 $166 $167 $59 $-1 $168 forward single #
loop $-1 $169 $170 $77 #
cone-surface $-1 -64.159226836563334 -22.644836209189855 4.1207022636238557 0.80901700255871778 0 -0.5877852410284794 0.2938926205142397 0 0.40450850127935889 1 I I 0 1 0.5 forward I I I I #
face $-1 $171 $172 $60 $-1 $173 reversed single #
loop $-1 $-1 $174 $78 #
plane-surface $-1 -173.95820054633887 26.314763190555102 79.935811997171982 0 1 0 -0.80901700255871778 0 0.5877852410284794 forward_v I I I I #
face $-1 $175 $176 $61 $-1 $177 forward single #
loop $-1 $178 $179 $79 #
cone-surface $-1 -64.159226836563334 28.032678362965321 4.1207022636238557 0.80901700255871778 0 -0.5877852410284794 0.2938926205142397 0 0.40450850127935889 1 I I 0 1 0.5 forward I I I I #
face $-1 $180 $181 $62 $-1 $182 forward single #
loop $-1 $183 $184 $80 #
cone-surface $-1 -64.159226836563334 30.609551121580644 4.1207022636238557 0.80901700255871778 0 -0.5877852410284794 0.2938926205142397 0 0.40450850127935889 1 I I 0 1 0.5 forward I I I I #
face $-1 $185 $186 $63 $-1 $187 forward single #
loop $-1 $188 $189 $81 #
cone-surface $-1 -64.159226836563334 33.186423880195967 4.1207022636238557 0.80901700255871778 0 -0.5877852410284794 0.2938926205142397 0 0.40450850127935889 1 I I 0 1 0.5 forward I I I I #
face $-1 $190 $191 $64 $-1 $192 reversed single #
loop $-1 $-1 $193 $82 #
plane-surface $-1 56.610206296834832 2.6939210768877331 191.07789181487837 0 -1 0 -0.66913061440640931 0 -0.74314481823134659 forward_v I I I I #
face $-1 $194 $195 $65 $-1 $196 forward single #
loop $-1 $197 $198 $83 #
cone-surface $-1 63.849425127176595 -5.7246889996371522 4.5427185175519922 -0.66913061440640931 0 -0.74314481823134659 0.3715724091156733 0 -0.33456530720320465 1 I I 0 1 0.5 forward I I I I #
face $-1 $199 $200 $66 $-1 $201 forward single #
loop $-1 $202 $203 $84 #
cone-surface $-1 63.849425127176595 -2.5677102209403202 4.5427185175519922 -0.66913061440640931 0 -0.74314481823134659 0.3715724091156733 0 -0.33456530720320465 1 I I 0 1 0.5 forward I I I I #
face $-1 $204 $205 $67 $-1 $206 forward single #
loop $-1 $207 $208 $85 #
cone-surface $-1 63.849425127176595 0.58926855775651177 4.5427185175519922 -0.66913061440640931 0 -0.74314481823134659 0.3715724091156733 0 -0.33456530720320465 1 I I 0 1 0.5 forward I I I I #
face $-1 $209 $210 $68 $-1 $211 reversed single #
loop $-1 $-1 $212 $86 #
plane-surface $-1 56.610206296834832 24.381076456950083 191.07789181487837 0 1 0 0.66913061440640931 0 0.74314481823134659 forward_v I I I I #
face $-1 $213 $214 $69 $-1 $215 forward single #
loop $-1 $216 $217 $87 #
cone-surface $-1 63.849425127176595 26.485728976081305 4.5427185175519922 -0.66913061440640931 0 -0.74314481823134659 0.3715724091156733 0 -0.33456530720320465 1 I I 0 1 0.5 forward I I I I #
face $-1 $218 $219 $70 $-1 $220 forward single #
loop $-1 $221 $222 $88 #
cone-surface $-1 63.849425127176595 29.642707754778137 4.5427185175519922 -0.66913061440640931 0 -0.74314481823134659 0.3715724091156733 0 -0.33456530720320465 1 I I 0 1 0.5 forward I I I I #
face $-1 $223 $224 $71 $-1 $225 forward single #
loop $-1 $226 $227 $89 #
cone-surface $-1 63.849425127176595 32.799686533474976 4.5427185175519922 -0.66913061440640931 0 -0.74314481823134659 0.3715724091156733 0 -0.33456530720320465 1 I I 0 1 0.5 forward I I I I #
face $-1 $228 $229 $54 $-1 $230 reversed single #
loop $-1 $-1 $231 $90 #
plane-surface $-1 0 0 7.0054745866104513 0 0 1 1 0 0 forward_v I I I I #
coedge $-1 $232 $233 $234 $235 reversed $91 $-1 #
face $-1 $236 $237 $55 $-1 $238 reversed single #
loop $-1 $-1 $239 $93 #
plane-surface $-1 0 0 -7.0054745866104513 0 0 1 1 0 0 forward_v I I I I #
coedge $-1 $240 $241 $242 $243 forward $94 $-1 #
face $-1 $244 $245 $56 $-1 $246 reversed single #
loop $-1 $-1 $247 $96 #
plane-surface $-1 -66.446119571520143 -25.221708967805181 1.8237151816657331 -0.80901700255871778 0 0.5877852410284794 0.5877852410284794 0 0.80901700255871778 forward_v I I I I #
coedge $-1 $248 $249 $250 $251 reversed $97 $-1 #
face $-1 $-1 $252 $57 $-1 $253 forward single #
loop $-1 $254 $255 $99 #
cone-surface $-1 -63.552464084644292 -27.798581726420508 3.6798633328524959 0.80901700255871778 0 -0.5877852410284794 0.14694631025711985 0 0.20225425063967944 1 I I -0.70710678118654746 0.70710678118654746 0.25 forward I I I I #
loop $-1 $-1 $256 $75 #
coedge $-1 $160 $160 $257 $258 reversed $100 $-1 #
face $-1 $-1 $259 $58 $-1 $260 forward single #
loop $-1 $261 $262 $102 #
cone-surface $-1 -63.552464084644292 -25.221708967805181 3.6798633328524959 0.80901700255871778 0 -0.5877852410284794 0.14694631025711985 0 0.20225425063967944 1 I I -0.70710678118654746 0.70710678118654746 0.25 forward I I I I #
loop $-1 $-1 $263 $76 #
coedge $-1 $165 $165 $264 $265 reversed $103 $-1 #
face $-1 $-1 $266 $59 $-1 $267 forward single #
loop $-1 $268 $269 $105 #
cone-surface $-1 -63.552464084644292 -22.644836209189855 3.6798633328524959 0.80901700255871778 0 -0.5877852410284794 0.14694631025711985 0 0.20225425063967944 1 I I -0.70710678118654746 0.70710678118654746 0.25 forward I I I I #
loop $-1 $-1 $270 $77 #
coedge $-1 $170 $170 $271 $272 reversed $106 $-1 #
face $-1 $273 $274 $60 $-1 $275 forward single #
loop $-1 $-1 $276 $108 #
plane-surface $-1 -66.446119571520143 30.609551121580644 1.8237151816657331 -0.80901700255871778 0 0.5877852410284794 0.5877852410284794 0 0.80901700255871778 forward_v I I I I #
coedge $-1 $277 $278 $279 $280 reversed $109 $-1 #
face $-1 $-1 $281 $61 $-1 $282 forward single #
loop $-1 $283 $284 $111 #
cone-surface $-1 -63.552464084644292 28.032678362965321 3.6798633328524959 0.80901700255871778 0 -0.5877852410284794 0.14694631025711985 0 0.20225425063967944 1 I I -0.70710678118654746 0.70710678118654746 0.25 forward I I I I #
loop $-1 $-1 $285 $79 #
coedge $-1 $179 $179 $286 $287 reversed $112 $-1 #
face $-1 $-1 $288 $62 $-1 $289 forward single #
loop $-1 $290 $291 $114 #
cone-surface $-1 -63.552464084644292 30.609551121580644 3.6798633328524959 0.80901700255871778 0 -0.5877852410284794 0.14694631025711985 0 0.20225425063967944 1 I I -0.70710678118654746 0.70710678118654746 0.25 forward I I I I #
loop $-1 $-1 $292 $80 #
coedge $-1 $184 $184 $293 $294 reversed $115 $-1 #
face $-1 $-1 $295 $63 $-1 $296 forward single #
loop $-1 $297 $298 $117 #
cone-surface $-1 -63.552464084644292 33.186423880195967 3.6798633328524959 0.80901700255871778 0 -0.5877852410284794 0.14694631025711985 0 0.20225425063967944 1 I I -0.70710678118654746 0.70710678118654746 0.25 forward I I I I #
loop $-1 $-1 $299 $81 #
coedge $-1 $189 $189 $300 $301 reversed $118 $-1 #
face $-1 $302 $303 $64 $-1 $304 reversed single #
loop $-1 $-1 $305 $120 #
plane-surface $-1 -32.312059330791172 -2.5677102209403202 92.31971291256707 0.66913061440640931 0 0.74314481823134659 0.74314481823134659 0 -0.66913061440640931 forward_v I I I I #
coedge $-1 $306 $307 $308 $309 reversed $121 $-1 #
face $-1 $-1 $310 $65 $-1 $311 forward single #
loop $-1 $312 $313 $123 #
cone-surface $-1 63.089008123138839 -5.7246889996371522 3.6981898947703753 -0.66913061440640931 0 -0.74314481823134659 0.18578620455783665 0 -0.16728265360160233 1 I I -0.70710678118654624 0.70710678118654879 0.25 forward I I I I #
loop $-1 $-1 $314 $83 #
coedge $-1 $198 $198 $315 $316 reversed $124 $-1 #
face $-1 $-1 $317 $66 $-1 $318 forward single #
loop $-1 $319 $320 $126 #
cone-surface $-1 63.089008123138839 -2.5677102209403202 3.6981898947703753 -0.66913061440640931 0 -0.74314481823134659 0.18578620455783665 0 -0.16728265360160233 1 I I -0.70710678118654624 0.70710678118654879 0.25 forward I I I I #
loop $-1 $-1 $321 $84 #
coedge $-1 $203 $203 $322 $323 reversed $127 $-1 #
face $-1 $-1 $324 $67 $-1 $325 forward single #
loop $-1 $326 $327 $129 #
cone-surface $-1 63.089008123138839 0.58926855775651177 3.6981898947703753 -0.66913061440640931 0 -0.74314481823134659 0.18578620455783665 0 -0.16728265360160233 1 I I -0.70710678118654624 0.70710678118654879 0.25 forward I I I I #
loop $-1 $-1 $328 $85 #
coedge $-1 $208 $208 $329 $330 reversed $130 $-1 #
face $-1 $331 $332 $68 $-1 $333 reversed single #
loop $-1 $-1 $334 $132 #
plane-surface $-1 -32.312059330791172 29.642707754778137 92.31971291256707 0.66913061440640931 0 0.74314481823134659 0.74314481823134659 0 -0.66913061440640931 forward_v I I I I #
coedge $-1 $335 $336 $337 $338 reversed $133 $-1 #
face $-1 $-1 $339 $69 $-1 $340 forward single #
loop $-1 $341 $342 $135 #
cone-surface $-1 63.089008123138839 26.485728976081305 3.6981898947703753 -0.66913061440640931 0 -0.74314481823134659 0.18578620455783665 0 -0.16728265360160233 1 I I -0.70710678118654624 0.70710678118654879 0.25 forward I I I I #
loop $-1 $-1 $343 $87 #
coedge $-1 $217 $217 $344 $345 reversed $136 $-1 #
face $-1 $-1 $346 $70 $-1 $347 forward single #
loop $-1 $348 $349 $138 #
cone-surface $-1 63.089008123138839 29.642707754778137 3.6981898947703753 -0.66913061440640931 0 -0.74314481823134659 0.18578620455783665 0 -0.16728265360160233 1 I I -0.70710678118654624 0.70710678118654879 0.25 forward I I I I #
loop $-1 $-1 $350 $88 #
coedge $-1 $222 $222 $351 $352 reversed $139 $-1 #
face $-1 $-1 $353 $71 $-1 $354 forward single #
loop $-1 $355 $356 $141 #
cone-surface $-1 63.089008123138839 32.799686533474976 3.6981898947703753 -0.66913061440640931 0 -0.74314481823134659 0.18578620455783665 0 -0.16728265360160233 1 I I -0.70710678118654624 0.70710678118654879 0.25 forward I I I I #
loop $-1 $-1 $357 $89 #
coedge $-1 $227 $227 $358 $359 reversed $142 $-1 #
face $-1 $360 $361 $54 $-1 $362 reversed single #
loop $-1 $-1 $363 $144 #
plane-surface $-1 0 0 -7.0054745866104513 0 0 1 1 0 0 forward_v I I I I #
coedge $-1 $364 $365 $366 $367 forward $145 $-1 #
coedge $-1 $368 $147 $369 $370 reversed $91 $-1 #
coedge $-1 $147 $368 $371 $372 forward $91 $-1 #
coedge $-1 $373 $363 $147 $235 forward $229 $-1 #
edge $-1 $374 -66.446119571520128 $375 66.446119571520128 $147 $376 forward 7 unknown #
face $-1 $377 $378 $55 $-1 $379 reversed single #
loop $-1 $-1 $380 $148 #
plane-surface $-1 -63.285500725252128 -40.29218120638167 0 0 1 0 0 0 1 forward_v I I I I #
coedge $-1 $381 $382 $241 $383 forward $149 $-1 #
coedge $-1 $384 $151 $385 $386 reversed $94 $-1 #
coedge $-1 $151 $384 $239 $383 reversed $94 $-1 #
coedge $-1 $387 $388 $151 $243 reversed $378 $-1 #
edge $-1 $389 -7.0054745866104513 $390 7.0054745866104513 $242 $391 forward 7 unknown #
face $-1 $392 $393 $56 $-1 $394 reversed single #
loop $-1 $-1 $395 $152 #
plane-surface $-1 -173.95820054633887 -20.926921036779639 79.935811997171982 0 -1 0 0.80901700255871778 0 -0.5877852410284794 forward_v I I I I #
coedge $-1 $396 $397 $398 $399 reversed $153 $-1 #
coedge $-1 $249 $155 $400 $401 reversed $97 $-1 #
coedge $-1 $155 $248 $396 $402 reversed $97 $-1 #
coedge $-1 $398 $403 $155 $251 forward $404 $-1 #
edge $-1 $405 20.532980701649308 $406 24.29774916900417 $250 $407 forward 7 unknown #
loop $-1 $-1 $257 $156 #
plane-surface $-1 -66.446119571520143 -25.221708967805181 1.8237151816657331 -0.80901700255871778 0 0.5877852410284794 0.5877852410284794 0 0.80901700255871778 forward_v I I I I #
loop $-1 $-1 $408 $99 #
coedge $-1 $255 $255 $256 $409 reversed $157 $-1 #
coedge $-1 $256 $256 $255 $409 forward $159 $-1 #
coedge $-1 $257 $257 $160 $258 forward $252 $-1 #
edge $-1 $410 0 $410 6.2831853071796004 $257 $411 forward 7 unknown #
loop $-1 $-1 $264 $161 #
plane-surface $-1 -66.446119571520143 -25.221708967805181 1.8237151816657331 -0.80901700255871778 0 0.5877852410284794 0.5877852410284794 0 0.80901700255871778 forward_v I I I I #
loop $-1 $-1 $412 $102 #
coedge $-1 $262 $262 $263 $413 reversed $162 $-1 #
coedge $-1 $263 $263 $262 $413 forward $164 $-1 #
coedge $-1 $264 $264 $165 $265 forward $259 $-1 #
edge $-1 $414 0 $414 6.2831853071796004 $264 $415 forward 7 unknown #
loop $-1 $-1 $271 $166 #
plane-surface $-1 -66.446119571520143 -25.221708967805181 1.8237151816657331 -0.80901700255871778 0 0.5877852410284794 0.5877852410284794 0 0.80901700255871778 forward_v I I I I #
loop $-1 $-1 $416 $105 #
coedge $-1 $269 $269 $270 $417 reversed $167 $-1 #
coedge $-1 $270 $270 $269 $417 forward $169 $-1 #
coedge $-1 $271 $271 $170 $272 forward $266 $-1 #
edge $-1 $418 0 $418 6.2831853071796004 $271 $419 forward 7 unknown #
face $-1 $420 $421 $60 $-1 $422 reversed single #
loop $-1 $-1 $279 $171 #
plane-surface $-1 0 0 7.0054745866104513 0 0 1 1 0 0 forward_v I I I I #
coedge $-1 $423 $424 $425 $426 reversed $172 $-1 #
coedge $-1 $278 $174 $427 $428 reversed $109 $-1 #
coedge $-1 $174 $277 $423 $429 reversed $109 $-1 #
coedge $-1 $425 $430 $174 $280 forward $274 $-1 #
edge $-1 $431 20.532980701649308 $432 24.29774916900417 $279 $433 forward 7 unknown #
loop $-1 $-1 $286 $175 #
plane-surface $-1 -66.446119571520143 30.609551121580644 1.8237151816657331 -0.80901700255871778 0 0.5877852410284794 0.5877852410284794 0 0.80901700255871778 forward_v I I I I #
loop $-1 $-1 $434 $111 #
coedge $-1 $284 $284 $285 $435 reversed $176 $-1 #
coedge $-1 $285 $285 $284 $435 forward $178 $-1 #
coedge $-1 $286 $286 $179 $287 forward $281 $-1 #
edge $-1 $436 0 $436 6.2831853071796004 $286 $437 forward 7 unknown #
loop $-1 $-1 $293 $180 #
plane-surface $-1 -66.446119571520143 30.609551121580644 1.8237151816657331 -0.80901700255871778 0 0.5877852410284794 0.5877852410284794 0 0.80901700255871778 forward_v I I I I #
loop $-1 $-1 $438 $114 #
coedge $-1 $291 $291 $292 $439 reversed $181 $-1 #
coedge $-1 $292 $292 $291 $439 forward $183 $-1 #
coedge $-1 $293 $293 $184 $294 forward $288 $-1 #
edge $-1 $440 0 $440 6.2831853071796004 $293 $441 forward 7 unknown #
loop $-1 $-1 $300 $185 #
plane-surface $-1 -66.446119571520143 30.609551121580644 1.8237151816657331 -0.80901700255871778 0 0.5877852410284794 0.5877852410284794 0 0.80901700255871778 forward_v I I I I #
loop $-1 $-1 $442 $117 #
coedge $-1 $298 $298 $299 $443 reversed $186 $-1 #
coedge $-1 $299 $299 $298 $443 forward $188 $-1 #
coedge $-1 $300 $300 $189 $301 forward $295 $-1 #
edge $-1 $444 0 $444 6.2831853071796004 $300 $445 forward 7 unknown #
face $-1 $446 $447 $64 $-1 $448 forward single #
loop $-1 $-1 $449 $190 #
plane-surface $-1 56.610206296834832 -7.8293415187683735 191.07789181487837 0 1 0 0.66913061440640931 0 0.74314481823134659 forward_v I I I I #
coedge $-1 $450 $451 $452 $453 reversed $191 $-1 #
coedge $-1 $307 $193 $454 $455 reversed $121 $-1 #
coedge $-1 $193 $306 $450 $456 reversed $121 $-1 #
coedge $-1 $452 $457 $193 $309 forward $447 $-1 #
edge $-1 $458 -38.141016423102712 $459 -34.133896235287935 $308 $460 forward 7 unknown #
loop $-1 $-1 $315 $194 #
plane-surface $-1 -32.312059330791172 -2.5677102209403202 92.31971291256707 0.66913061440640931 0 0.74314481823134659 0.74314481823134659 0 -0.66913061440640931 forward_v I I I I #
loop $-1 $-1 $461 $123 #
coedge $-1 $313 $313 $314 $462 reversed $195 $-1 #
coedge $-1 $314 $314 $313 $462 forward $197 $-1 #
coedge $-1 $315 $315 $198 $316 forward $310 $-1 #
edge $-1 $463 0 $463 6.2831853071796004 $315 $464 forward 7 unknown #
loop $-1 $-1 $322 $199 #
plane-surface $-1 -32.312059330791172 -2.5677102209403202 92.31971291256707 0.66913061440640931 0 0.74314481823134659 0.74314481823134659 0 -0.66913061440640931 forward_v I I I I #
loop $-1 $-1 $465 $126 #
coedge $-1 $320 $320 $321 $466 reversed $200 $-1 #
coedge $-1 $321 $321 $320 $466 forward $202 $-1 #
coedge $-1 $322 $322 $203 $323 forward $317 $-1 #
edge $-1 $467 0 $467 6.2831853071796004 $322 $468 forward 7 unknown #
loop $-1 $-1 $329 $204 #
plane-surface $-1 -32.312059330791172 -2.5677102209403202 92.31971291256707 0.66913061440640931 0 0.74314481823134659 0.74314481823134659 0 -0.66913061440640931 forward_v I I I I #
loop $-1 $-1 $469 $129 #
coedge $-1 $327 $327 $328 $470 reversed $205 $-1 #
coedge $-1 $328 $328 $327 $470 forward $207 $-1 #
coedge $-1 $329 $329 $208 $330 forward $324 $-1 #
edge $-1 $471 0 $471 6.2831853071796004 $329 $472 forward 7 unknown #
face $-1 $473 $474 $68 $-1 $475 forward single #
loop $-1 $-1 $337 $209 #
plane-surface $-1 66.446119571520128 0 0 -1 0 0 0 0 1 forward_v I I I I #
coedge $-1 $476 $477 $478 $479 reversed $210 $-1 #
coedge $-1 $336 $212 $480 $481 reversed $133 $-1 #
coedge $-1 $212 $335 $476 $482 reversed $133 $-1 #
coedge $-1 $478 $483 $212 $338 forward $332 $-1 #
edge $-1 $484 88.533471320828738 $485 92.141498622498119 $337 $486 forward 7 unknown #
loop $-1 $-1 $344 $213 #
plane-surface $-1 -32.312059330791172 29.642707754778137 92.31971291256707 0.66913061440640931 0 0.74314481823134659 0.74314481823134659 0 -0.66913061440640931 forward_v I I I I #
loop $-1 $-1 $487 $135 #
coedge $-1 $342 $342 $343 $488 reversed $214 $-1 #
coedge $-1 $343 $343 $342 $488 forward $216 $-1 #
coedge $-1 $344 $344 $217 $345 forward $339 $-1 #
edge $-1 $489 0 $489 6.2831853071796004 $344 $490 forward 7 unknown #
loop $-1 $-1 $351 $218 #
plane-surface $-1 -32.312059330791172 29.642707754778137 92.31971291256707 0.66913061440640931 0 0.74314481823134659 0.74314481823134659 0 -0.66913061440640931 forward_v I I I I #
loop $-1 $-1 $491 $138 #
coedge $-1 $349 $349 $350 $492 reversed $219 $-1 #
coedge $-1 $350 $350 $349 $492 forward $221 $-1 #
coedge $-1 $351 $351 $222 $352 forward $346 $-1 #
edge $-1 $493 0 $493 6.2831853071796004 $351 $494 forward 7 unknown #
loop $-1 $-1 $358 $223 #
plane-surface $-1 -32.312059330791172 29.642707754778137 92.31971291256707 0.66913061440640931 0 0.74314481823134659 0.74314481823134659 0 -0.66913061440640931 forward_v I I I I #
loop $-1 $-1 $495 $141 #
coedge $-1 $356 $356 $357 $496 reversed $224 $-1 #
coedge $-1 $357 $357 $356 $496 forward $226 $-1 #
coedge $-1 $358 $358 $227 $359 forward $353 $-1 #
edge $-1 $497 0 $497 6.2831853071796004 $358 $498 forward 7 unknown #
face $-1 $499 $500 $54 $-1 $501 reversed single #
loop $-1 $-1 $502 $228 #
plane-surface $-1 -66.446119571520128 0 0 1 0 0 0 0 -1 forward_v I I I I #
coedge $-1 $234 $503 $504 $505 forward $229 $-1 #
coedge $-1 $506 $231 $507 $508 forward $145 $-1 #
coedge $-1 $231 $506 $368 $509 forward $145 $-1 #
coedge $-1 $369 $510 $231 $367 reversed $511 $-1 #
edge $-1 $512 -34.904339052606197 $513 34.904339052606197 $366 $514 forward 7 unknown #
coedge $-1 $233 $232 $365 $509 reversed $91 $-1 #
coedge $-1 $504 $366 $232 $370 forward $511 $-1 #
edge $-1 $512 -7.0054745866104513 $374 7.0054745866104513 $369 $515 forward 7 unknown #
coedge $-1 $516 $517 $233 $372 reversed $361 $-1 #
edge $-1 $518 -7.0054745866104513 $375 7.0054745866104513 $371 $519 forward 7 unknown #
coedge $-1 $503 $234 $517 $520 forward $229 $-1 #
vertex $-1 $370 $521 #
vertex $-1 $520 $522 #
straight-curve $-1 0 -34.904339052606197 -7.0054745866104513 -1 0 0 I I #
face $-1 $523 $524 $55 $-1 $525 reversed single #
loop $-1 $-1 $242 $236 #
plane-surface $-1 -65.078762824013452 -37.598260129493937 0 1 0 0 0 0 -1 forward_v I I I I #
coedge $-1 $526 $527 $528 $529 forward $237 $-1 #
coedge $-1 $530 $239 $531 $532 forward $149 $-1 #
coedge $-1 $239 $530 $387 $533 forward $149 $-1 #
edge $-1 $389 -65.078762824013452 $534 -61.492238626490796 $239 $535 forward 7 unknown #
coedge $-1 $241 $240 $536 $537 forward $94 $-1 #
coedge $-1 $538 $539 $240 $386 forward $540 $-1 #
edge $-1 $541 61.492238626490796 $390 65.078762824013452 $385 $542 forward 7 unknown #
coedge $-1 $528 $242 $382 $533 reversed $378 $-1 #
coedge $-1 $242 $528 $538 $543 reversed $378 $-1 #
vertex $-1 $383 $544 #
vertex $-1 $543 $545 #
straight-curve $-1 -65.078762824013452 -34.904339052606197 0 0 0 1 I I #
face $-1 $-1 $404 $56 $-1 $546 forward single #
loop $-1 $-1 $547 $244 #
plane-surface $-1 -66.446119571520128 0 0 1 0 0 0 0 -1 forward_v I I I I #
coedge $-1 $548 $549 $550 $551 reversed $245 $-1 #
coedge $-1 $552 $247 $249 $402 forward $153 $-1 #
coedge $-1 $247 $552 $548 $553 forward $153 $-1 #
coedge $-1 $550 $250 $247 $399 forward $404 $-1 #
edge $-1 $406 -16.905642414928131 $554 -8.3160665528770483 $398 $555 forward 7 unknown #
coedge $-1 $556 $557 $248 $401 forward $393 $-1 #
edge $-1 $558 -38.144190816920236 $405 -32.962431411975537 $400 $559 forward 7 unknown #
edge $-1 $406 -6.4050068027694262 $558 -2.4161062406544664e-014 $249 $560 forward 7 unknown #
coedge $-1 $250 $550 $556 $561 forward $404 $-1 #
loop $-1 $-1 $550 $392 #
vertex $-1 $401 $562 #
vertex $-1 $251 $563 #
straight-curve $-1 -86.979100273169436 -29.516496898830724 7.005474586610454 1 0 0 I I #
coedge $-1 $408 $408 $-1 $564 reversed $254 $-1 #
edge $-1 $565 0 $565 6.2831853071796004 $255 $566 forward 7 unknown #
vertex $-1 $258 $567 #
ellipse-curve $-1 -64.563735337842701 -27.798581726420508 4.4145948841380998 -0.80901700255871778 0 0.5877852410284794 0.2938926205142397 0 0.40450850127935889 1 I I #
coedge $-1 $412 $412 $-1 $568 reversed $261 $-1 #
edge $-1 $569 0 $569 6.2831853071796004 $262 $570 forward 7 unknown #
vertex $-1 $265 $571 #
ellipse-curve $-1 -64.563735337842701 -25.221708967805181 4.4145948841380998 -0.80901700255871778 0 0.5877852410284794 0.2938926205142397 0 0.40450850127935889 1 I I #
coedge $-1 $416 $416 $-1 $572 reversed $268 $-1 #
edge $-1 $573 0 $573 6.2831853071796004 $269 $574 forward 7 unknown #
vertex $-1 $272 $575 #
ellipse-curve $-1 -64.563735337842701 -22.644836209189855 4.4145948841380998 -0.80901700255871778 0 0.5877852410284794 0.2938926205142397 0 0.40450850127935889 1 I I #
face $-1 $-1 $576 $60 $-1 $577 reversed single #
loop $-1 $-1 $427 $273 #
plane-surface $-1 -66.446119571520128 0 0 1 0 0 0 0 -1 forward_v I I I I #
coedge $-1 $578 $276 $278 $429 forward $172 $-1 #
coedge $-1 $276 $578 $579 $580 reversed $172 $-1 #
coedge $-1 $581 $279 $276 $426 forward $274 $-1 #
edge $-1 $432 11.00998762976478 $582 19.599563491815868 $425 $583 forward 7 unknown #
coedge $-1 $584 $585 $277 $428 forward $421 $-1 #
edge $-1 $586 -38.144190816920236 $431 -32.962431411975537 $427 $587 forward 7 unknown #
edge $-1 $432 -6.4050068027694262 $586 -2.4161062406544664e-014 $278 $588 forward 7 unknown #
coedge $-1 $279 $581 $584 $589 forward $274 $-1 #
vertex $-1 $280 $590 #
vertex $-1 $280 $591 #
straight-curve $-1 -86.979100273169436 26.314763190555102 7.005474586610454 1 0 0 I I #
coedge $-1 $434 $434 $-1 $592 reversed $283 $-1 #
edge $-1 $593 0 $593 6.2831853071796004 $284 $594 forward 7 unknown #
vertex $-1 $287 $595 #
ellipse-curve $-1 -64.563735337842701 28.032678362965321 4.4145948841380998 -0.80901700255871778 0 0.5877852410284794 0.2938926205142397 0 0.40450850127935889 1 I I #
coedge $-1 $438 $438 $-1 $596 reversed $290 $-1 #
edge $-1 $597 0 $597 6.2831853071796004 $291 $598 forward 7 unknown #
vertex $-1 $294 $599 #
ellipse-curve $-1 -64.563735337842701 30.609551121580644 4.4145948841380998 -0.80901700255871778 0 0.5877852410284794 0.2938926205142397 0 0.40450850127935889 1 I I #
coedge $-1 $442 $442 $-1 $600 reversed $297 $-1 #
edge $-1 $601 0 $601 6.2831853071796004 $298 $602 forward 7 unknown #
vertex $-1 $301 $603 #
ellipse-curve $-1 -64.563735337842701 33.186423880195967 4.4145948841380998 -0.80901700255871778 0 0.5877852410284794 0.2938926205142397 0 0.40450850127935889 1 I I #
face $-1 $-1 $604 $64 $-1 $605 reversed single #
loop $-1 $-1 $308 $302 #
plane-surface $-1 0 0 7.0054745866104513 0 0 1 1 0 0 forward_v I I I I #
coedge $-1 $606 $607 $608 $609 reversed $303 $-1 #
coedge $-1 $610 $305 $307 $456 forward $191 $-1 #
coedge $-1 $305 $610 $606 $611 forward $191 $-1 #
coedge $-1 $608 $308 $305 $453 forward $447 $-1 #
edge $-1 $459 -3.9777761873578932 $612 6.5454864082982134 $452 $613 forward 7 unknown #
coedge $-1 $614 $615 $306 $455 forward $604 $-1 #
edge $-1 $616 -92.141498622498119 $458 -88.533471320828738 $454 $617 forward 7 unknown #
edge $-1 $459 127.50012701427434 $616 132.89223914304026 $307 $618 forward 7 unknown #
coedge $-1 $308 $608 $614 $619 forward $447 $-1 #
vertex $-1 $309 $620 #
vertex $-1 $309 $621 #
straight-curve $-1 28.305103148417416 2.6939210768877331 7.0054745866104469 -1 0 0 I I #
coedge $-1 $461 $461 $-1 $622 reversed $312 $-1 #
edge $-1 $623 0 $623 6.2831853071796004 $313 $624 forward 7 unknown #
vertex $-1 $316 $625 #
ellipse-curve $-1 64.442559477612733 -5.7246889996371522 5.2014609357757635 0.66913061440640931 0 0.74314481823134659 0.3715724091156733 0 -0.33456530720320465 1 I I #
coedge $-1 $465 $465 $-1 $626 reversed $319 $-1 #
edge $-1 $627 0 $627 6.2831853071796004 $320 $628 forward 7 unknown #
vertex $-1 $323 $629 #
ellipse-curve $-1 64.442559477612733 -2.5677102209403202 5.2014609357757635 0.66913061440640931 0 0.74314481823134659 0.3715724091156733 0 -0.33456530720320465 1 I I #
coedge $-1 $469 $469 $-1 $630 reversed $326 $-1 #
edge $-1 $631 0 $631 6.2831853071796004 $327 $632 forward 7 unknown #
vertex $-1 $330 $633 #
ellipse-curve $-1 64.442559477612733 0.58926855775651177 5.2014609357757635 0.66913061440640931 0 0.74314481823134659 0.3715724091156733 0 -0.33456530720320465 1 I I #
face $-1 $-1 $634 $68 $-1 $635 reversed single #
loop $-1 $-1 $480 $331 #
plane-surface $-1 0 0 7.0054745866104513 0 0 1 1 0 0 forward_v I I I I #
coedge $-1 $636 $334 $336 $482 forward $210 $-1 #
coedge $-1 $334 $636 $637 $638 reversed $210 $-1 #
coedge $-1 $639 $337 $334 $479 forward $332 $-1 #
edge $-1 $485 9.559722579561015 $640 20.082985175217129 $478 $641 forward 7 unknown #
coedge $-1 $642 $643 $335 $481 forward $474 $-1 #
edge $-1 $644 34.133896235287935 $484 38.141016423102712 $480 $645 forward 7 unknown #
edge $-1 $485 -132.89223914304026 $644 -127.50012701427434 $336 $646 forward 7 unknown #
coedge $-1 $337 $639 $642 $647 reversed $332 $-1 #
vertex $-1 $647 $648 #
vertex $-1 $338 $649 #
straight-curve $-1 66.446119571520128 24.381076456950083 95.538945907439185 0 0 -1 I I #
coedge $-1 $487 $487 $-1 $650 reversed $341 $-1 #
edge $-1 $651 0 $651 6.2831853071796004 $342 $652 forward 7 unknown #
vertex $-1 $345 $653 #
ellipse-curve $-1 64.442559477612733 26.485728976081305 5.2014609357757635 0.66913061440640931 0 0.74314481823134659 0.3715724091156733 0 -0.33456530720320465 1 I I #
coedge $-1 $491 $491 $-1 $654 reversed $348 $-1 #
edge $-1 $655 0 $655 6.2831853071796004 $349 $656 forward 7 unknown #
vertex $-1 $352 $657 #
ellipse-curve $-1 64.442559477612733 29.642707754778137 5.2014609357757635 0.66913061440640931 0 0.74314481823134659 0.3715724091156733 0 -0.33456530720320465 1 I I #
coedge $-1 $495 $495 $-1 $658 reversed $355 $-1 #
edge $-1 $659 0 $659 6.2831853071796004 $356 $660 forward 7 unknown #
vertex $-1 $359 $661 #
ellipse-curve $-1 64.442559477612733 32.799686533474976 5.2014609357757635 0.66913061440640931 0 0.74314481823134659 0.3715724091156733 0 -0.33456530720320465 1 I I #
face $-1 $-1 $511 $54 $-1 $662 reversed single #
loop $-1 $-1 $663 $360 #
plane-surface $-1 0 34.904339052606197 0 0 -1 0 0 0 -1 forward_v I I I I #
coedge $-1 $517 $516 $664 $665 forward $361 $-1 #
coedge $-1 $363 $373 $666 $667 forward $229 $-1 #
coedge $-1 $510 $369 $363 $505 reversed $511 $-1 #
edge $-1 $668 -34.904339052606197 $374 34.904339052606197 $504 $669 forward 7 unknown #
coedge $-1 $365 $364 $516 $670 forward $145 $-1 #
coedge $-1 $663 $664 $364 $508 reversed $500 $-1 #
edge $-1 $513 -66.446119571520128 $671 66.446119571520128 $507 $672 forward 7 unknown #
edge $-1 $518 -66.446119571520128 $512 66.446119571520128 $368 $673 forward 7 unknown #
coedge $-1 $366 $504 $663 $674 reversed $511 $-1 #
loop $-1 $-1 $369 $499 #
vertex $-1 $367 $675 #
vertex $-1 $367 $676 #
straight-curve $-1 66.446119571520128 0 7.0054745866104513 0 1 0 I I #
straight-curve $-1 66.446119571520128 -34.904339052606197 0 0 0 -1 I I #
coedge $-1 $502 $371 $506 $670 reversed $361 $-1 #
coedge $-1 $371 $502 $373 $520 reversed $361 $-1 #
vertex $-1 $670 $677 #
straight-curve $-1 -66.446119571520128 -34.904339052606197 0 0 0 -1 I I #
edge $-1 $375 -34.904339052606197 $678 34.904339052606197 $517 $679 forward 7 unknown #
point $-1 66.446119571520128 -34.904339052606197 -7.0054745866104513 #
point $-1 -66.446119571520128 -34.904339052606197 -7.0054745866104513 #
face $-1 $-1 $540 $55 $-1 $680 forward single #
loop $-1 $-1 $681 $377 #
plane-surface $-1 -61.492238626490796 -37.598260129493937 0 -1 0 0 0 0 1 forward_v I I I I #
coedge $-1 $682 $380 $530 $683 reversed $237 $-1 #
coedge $-1 $380 $682 $684 $685 reversed $237 $-1 #
coedge $-1 $388 $387 $380 $529 reversed $378 $-1 #
edge $-1 $686 -7.0054745866104513 $687 7.0054745866104513 $528 $688 forward 7 unknown #
coedge $-1 $382 $381 $526 $683 forward $149 $-1 #
coedge $-1 $536 $681 $381 $532 reversed $524 $-1 #
edge $-1 $534 -2.6939210768877331 $689 2.6939210768877331 $531 $690 forward 7 unknown #
edge $-1 $687 -2.6939210768877331 $389 2.6939210768877331 $387 $691 forward 7 unknown #
vertex $-1 $532 $692 #
straight-curve $-1 0 -34.904339052606197 -7.0054745866104513 1 0 0 I I #
coedge $-1 $693 $531 $384 $537 reversed $524 $-1 #
edge $-1 $541 -7.0054745866104513 $534 7.0054745866104513 $536 $694 forward 7 unknown #
coedge $-1 $684 $385 $388 $543 forward $540 $-1 #
coedge $-1 $385 $684 $693 $695 forward $540 $-1 #
loop $-1 $-1 $385 $523 #
vertex $-1 $386 $696 #
straight-curve $-1 0 -34.904339052606197 7.0054745866104513 -1 0 0 I I #
edge $-1 $390 -2.6939210768877331 $686 2.6939210768877331 $388 $697 forward 7 unknown #
point $-1 -65.078762824013452 -34.904339052606204 -7.0054745866104513 #
point $-1 -65.078762824013452 -34.904339052606204 7.0054745866104513 #
plane-surface $-1 0 0 7.0054745866104513 0 0 1 1 0 0 forward_v I I I I #
coedge $-1 $557 $556 $549 $698 forward $393 $-1 #
coedge $-1 $549 $395 $397 $553 reversed $245 $-1 #
coedge $-1 $395 $548 $547 $698 reversed $245 $-1 #
coedge $-1 $403 $398 $395 $551 forward $404 $-1 #
edge $-1 $554 -24.29774916900417 $699 -20.532980701649308 $550 $700 forward 7 unknown #
coedge $-1 $397 $396 $557 $701 reversed $153 $-1 #
edge $-1 $702 2.4161062406544664e-014 $554 6.4050068027694262 $548 $703 forward 7 unknown #
vertex $-1 $399 $704 #
straight-curve $-1 -62.681351104165259 -12.610854483902591 7.0054745866104522 0 1 0 I I #
coedge $-1 $547 $400 $403 $561 reversed $393 $-1 #
coedge $-1 $400 $547 $552 $701 forward $393 $-1 #
vertex $-1 $401 $705 #
straight-curve $-1 -66.446119571520128 -29.516496898830724 39.967905998585991 0 0 1 I I #
straight-curve $-1 -66.446119571520143 -29.516496898830724 1.8237151816657331 -0.5877852410284794 0 -0.80901700255871778 I I #
edge $-1 $699 20.926921036779639 $405 29.516496898830724 $556 $706 forward 7 unknown #
point $-1 -66.446119571520128 -29.516496898830724 7.0054745866104513 #
point $-1 -62.681351104165266 -29.516496898830724 7.0054745866104513 #
edge $-1 $707 1 $707 0 $408 $-1 forward 7 unknown #
vertex $-1 $409 $708 #
ellipse-curve $-1 -63.754718335283968 -27.798581726420508 3.8268096431096157 -0.80901700255871778 0 0.5877852410284794 0.2938926205142397 0 0.40450850127935889 1 I I #
point $-1 -64.269842717328444 -27.798581726420508 4.8191033854174545 #
edge $-1 $709 1 $709 0 $412 $-1 forward 7 unknown #
vertex $-1 $413 $710 #
ellipse-curve $-1 -63.754718335283968 -25.221708967805181 3.8268096431096157 -0.80901700255871778 0 0.5877852410284794 0.2938926205142397 0 0.40450850127935889 1 I I #
point $-1 -64.269842717328444 -25.221708967805181 4.8191033854174545 #
edge $-1 $711 1 $711 0 $416 $-1 forward 7 unknown #
vertex $-1 $417 $712 #
ellipse-curve $-1 -63.754718335283968 -22.644836209189855 3.8268096431096157 -0.80901700255871778 0 0.5877852410284794 0.2938926205142397 0 0.40450850127935889 1 I I #
point $-1 -64.269842717328444 -22.644836209189855 4.8191033854174545 #
loop $-1 $-1 $579 $420 #
plane-surface $-1 0 34.904339052606197 0 0 -1 0 0 0 -1 forward_v I I I I #
coedge $-1 $424 $423 $585 $713 reversed $172 $-1 #
coedge $-1 $714 $715 $424 $580 forward $576 $-1 #
edge $-1 $582 12.385309106211121 $716 18.790315908980524 $579 $717 forward 7 unknown #
coedge $-1 $430 $425 $715 $718 forward $274 $-1 #
vertex $-1 $718 $719 #
straight-curve $-1 -62.681351104165259 15.304775560790322 7.0054745866104522 0 1 0 I I #
coedge $-1 $720 $427 $430 $589 reversed $421 $-1 #
coedge $-1 $427 $720 $578 $713 forward $421 $-1 #
vertex $-1 $428 $721 #
straight-curve $-1 -66.446119571520128 26.314763190555102 39.967905998585991 0 0 1 I I #
straight-curve $-1 -66.446119571520143 26.314763190555102 1.8237151816657331 -0.5877852410284794 0 -0.80901700255871778 I I #
edge $-1 $722 -34.904339052606197 $431 -26.314763190555102 $584 $723 forward 7 unknown #
point $-1 -66.446119571520128 26.314763190555102 7.0054745866104513 #
point $-1 -62.681351104165266 26.314763190555102 7.0054745866104513 #
edge $-1 $724 1 $724 0 $434 $-1 forward 7 unknown #
vertex $-1 $435 $725 #
ellipse-curve $-1 -63.754718335283968 28.032678362965321 3.8268096431096157 -0.80901700255871778 0 0.5877852410284794 0.2938926205142397 0 0.40450850127935889 1 I I #
point $-1 -64.269842717328444 28.032678362965321 4.8191033854174545 #
edge $-1 $726 1 $726 0 $438 $-1 forward 7 unknown #
vertex $-1 $439 $727 #
ellipse-curve $-1 -63.754718335283968 30.609551121580644 3.8268096431096157 -0.80901700255871778 0 0.5877852410284794 0.2938926205142397 0 0.40450850127935889 1 I I #
point $-1 -64.269842717328444 30.609551121580644 4.8191033854174545 #
edge $-1 $728 1 $728 0 $442 $-1 forward 7 unknown #
vertex $-1 $443 $729 #
ellipse-curve $-1 -63.754718335283968 33.186423880195967 3.8268096431096157 -0.80901700255871778 0 0.5877852410284794 0.2938926205142397 0 0.40450850127935889 1 I I #
point $-1 -64.269842717328444 33.186423880195967 4.8191033854174545 #
loop $-1 $-1 $454 $446 #
plane-surface $-1 66.446119571520128 0 0 -1 0 0 0 0 1 forward_v I I I I #
coedge $-1 $607 $449 $451 $611 reversed $303 $-1 #
coedge $-1 $449 $606 $730 $731 reversed $303 $-1 #
coedge $-1 $457 $452 $449 $609 forward $447 $-1 #
edge $-1 $612 34.133896235287935 $732 38.141016423102712 $608 $733 forward 7 unknown #
coedge $-1 $451 $450 $615 $734 reversed $191 $-1 #
edge $-1 $735 -132.89223914304026 $612 -127.50012701427434 $606 $736 forward 7 unknown #
vertex $-1 $453 $737 #
straight-curve $-1 62.438999383705344 -1.2838551104701601 7.0054745866104469 0 -1 0 I I #
coedge $-1 $730 $454 $457 $619 reversed $604 $-1 #
coedge $-1 $454 $730 $610 $734 forward $604 $-1 #
vertex $-1 $455 $738 #
straight-curve $-1 66.446119571520128 2.6939210768877331 95.538945907439185 0 0 1 I I #
straight-curve $-1 -32.312059330791172 2.6939210768877331 92.31971291256707 0.74314481823134659 0 -0.66913061440640931 I I #
edge $-1 $732 -7.8293415187683735 $458 2.6939210768877331 $614 $739 forward 7 unknown #
point $-1 66.446119571520128 2.6939210768877331 7.0054745866104513 #
point $-1 62.438999383705351 2.6939210768877331 7.0054745866104469 #
edge $-1 $740 1 $740 0 $461 $-1 forward 7 unknown #
vertex $-1 $462 $741 #
ellipse-curve $-1 63.256290776740443 -5.7246889996371522 3.8839760993282124 0.66913061440640931 0 0.74314481823134659 0.3715724091156733 0 -0.33456530720320465 1 I I #
point $-1 64.814131886728418 -5.7246889996371522 4.8668956285725669 #
edge $-1 $742 1 $742 0 $465 $-1 forward 7 unknown #
vertex $-1 $466 $743 #
ellipse-curve $-1 63.256290776740443 -2.5677102209403202 3.8839760993282124 0.66913061440640931 0 0.74314481823134659 0.3715724091156733 0 -0.33456530720320465 1 I I #
point $-1 64.814131886728418 -2.5677102209403202 4.8668956285725669 #
edge $-1 $744 1 $744 0 $469 $-1 forward 7 unknown #
vertex $-1 $470 $745 #
ellipse-curve $-1 63.256290776740443 0.58926855775651177 3.8839760993282124 0.66913061440640931 0 0.74314481823134659 0.3715724091156733 0 -0.33456530720320465 1 I I #
point $-1 64.814131886728418 0.58926855775651177 4.8668956285725669 #
loop $-1 $-1 $637 $473 #
plane-surface $-1 0 34.904339052606197 0 0 -1 0 0 0 -1 forward_v I I I I #
coedge $-1 $477 $476 $643 $746 reversed $210 $-1 #
coedge $-1 $747 $748 $477 $638 forward $634 $-1 #
edge $-1 $640 -89.998996302504935 $749 -84.606884173739047 $637 $750 forward 7 unknown #
coedge $-1 $483 $478 $748 $751 reversed $332 $-1 #
vertex $-1 $479 $752 #
straight-curve $-1 66.446119571520128 14.821353877389068 3.3974472849410731 0 1 0 I I #
coedge $-1 $753 $480 $483 $647 forward $474 $-1 #
coedge $-1 $480 $753 $636 $746 forward $474 $-1 #
vertex $-1 $481 $754 #
straight-curve $-1 28.305103148417416 24.381076456950083 7.0054745866104469 1 0 0 I I #
straight-curve $-1 -32.312059330791172 24.381076456950083 92.31971291256707 -0.74314481823134659 0 0.66913061440640931 I I #
edge $-1 $484 24.381076456950083 $755 34.904339052606197 $483 $756 forward 7 unknown #
point $-1 66.446119571520128 24.381076456950083 7.0054745866104513 #
point $-1 66.446119571520128 24.381076456950083 3.397447284941066 #
edge $-1 $757 1 $757 0 $487 $-1 forward 7 unknown #
vertex $-1 $488 $758 #
ellipse-curve $-1 63.256290776740443 26.485728976081305 3.8839760993282124 0.66913061440640931 0 0.74314481823134659 0.3715724091156733 0 -0.33456530720320465 1 I I #
point $-1 64.814131886728418 26.485728976081305 4.8668956285725669 #
edge $-1 $759 1 $759 0 $491 $-1 forward 7 unknown #
vertex $-1 $492 $760 #
ellipse-curve $-1 63.256290776740443 29.642707754778137 3.8839760993282124 0.66913061440640931 0 0.74314481823134659 0.3715724091156733 0 -0.33456530720320465 1 I I #
point $-1 64.814131886728418 29.642707754778137 4.8668956285725669 #
edge $-1 $761 1 $761 0 $495 $-1 forward 7 unknown #
vertex $-1 $496 $762 #
ellipse-curve $-1 63.256290776740443 32.799686533474976 3.8839760993282124 0.66913061440640931 0 0.74314481823134659 0.3715724091156733 0 -0.33456530720320465 1 I I #
point $-1 64.814131886728418 32.799686533474976 4.8668956285725669 #
plane-surface $-1 66.446119571520128 0 0 -1 0 0 0 0 1 forward_v I I I I #
coedge $-1 $666 $507 $510 $674 forward $500 $-1 #
coedge $-1 $507 $666 $502 $665 reversed $500 $-1 #
edge $-1 $671 -7.0054745866104513 $678 7.0054745866104513 $664 $763 forward 7 unknown #
coedge $-1 $664 $663 $503 $667 reversed $500 $-1 #
edge $-1 $678 -66.446119571520128 $668 66.446119571520128 $666 $764 forward 7 unknown #
vertex $-1 $505 $765 #
straight-curve $-1 66.446119571520128 0 -7.0054745866104513 0 -1 0 I I #
edge $-1 $671 -34.904339052606197 $518 34.904339052606197 $516 $766 forward 7 unknown #
vertex $-1 $508 $767 #
straight-curve $-1 0 34.904339052606197 7.0054745866104513 -1 0 0 I I #
straight-curve $-1 0 -34.904339052606197 7.0054745866104513 1 0 0 I I #
edge $-1 $513 -7.0054745866104513 $668 7.0054745866104513 $510 $768 forward 7 unknown #
point $-1 66.446119571520128 -34.904339052606197 7.0054745866104513 #
point $-1 66.446119571520128 34.904339052606197 7.0054745866104513 #
point $-1 -66.446119571520128 -34.904339052606197 7.0054745866104513 #
vertex $-1 $667 $769 #
straight-curve $-1 -66.446119571520128 0 -7.0054745866104513 0 1 0 I I #
plane-surface $-1 0 0 7.0054745866104513 0 0 1 1 0 0 forward_v I I I I #
coedge $-1 $531 $693 $682 $770 forward $524 $-1 #
coedge $-1 $527 $526 $681 $770 reversed $237 $-1 #
edge $-1 $689 -1.7932620987613319 $687 1.7932620987613248 $526 $771 forward 7 unknown #
coedge $-1 $539 $538 $527 $685 forward $540 $-1 #
edge $-1 $686 -1.7932620987613248 $772 1.7932620987613319 $527 $773 forward 7 unknown #
vertex $-1 $543 $774 #
vertex $-1 $533 $775 #
straight-curve $-1 -65.078762824013452 -40.29218120638167 0 0 0 -1 I I #
vertex $-1 $770 $776 #
straight-curve $-1 -61.492238626490796 -37.598260129493937 -7.0054745866104513 0 -1 0 I I #
straight-curve $-1 -65.078762824013452 -37.598260129493937 -7.0054745866104513 0 1 0 I I #
point $-1 -61.492238626490796 -34.904339052606204 -7.0054745866104513 #
coedge $-1 $681 $536 $539 $695 reversed $524 $-1 #
straight-curve $-1 -61.492238626490796 -34.904339052606197 0 0 0 -1 I I #
edge $-1 $772 -2.6939210768877331 $541 2.6939210768877331 $693 $777 forward 7 unknown #
point $-1 -61.492238626490796 -34.904339052606204 7.0054745866104513 #
straight-curve $-1 -65.078762824013452 -37.598260129493937 7.0054745866104513 0 -1 0 I I #
edge $-1 $699 32.962431411975537 $702 38.144190816920236 $547 $778 forward 7 unknown #
vertex $-1 $561 $779 #
straight-curve $-1 -86.979100273169436 -20.926921036779639 7.005474586610454 -1 0 0 I I #
edge $-1 $702 8.3160665528770483 $558 16.905642414928131 $557 $780 forward 7 unknown #
vertex $-1 $701 $781 #
straight-curve $-1 -66.446119571520143 -20.926921036779639 1.8237151816657331 0.5877852410284794 0 0.80901700255871778 I I #
point $-1 -62.681351104165266 -20.926921036779639 7.0054745866104513 #
point $-1 -66.446119571520128 -29.516496898830724 1.8237151816657526 #
straight-curve $-1 -66.446119571520128 0 7.0054745866104513 0 -1 0 I I #
vertex $-1 $564 $782 #
point $-1 -63.460825714769733 -27.798581726420508 4.2313181443889745 #
vertex $-1 $568 $783 #
point $-1 -63.460825714769733 -25.221708967805181 4.2313181443889745 #
vertex $-1 $572 $784 #
point $-1 -63.460825714769733 -22.644836209189855 4.2313181443889745 #
edge $-1 $716 -19.599563491815868 $586 -11.00998762976478 $585 $785 forward 7 unknown #
coedge $-1 $715 $579 $720 $786 reversed $576 $-1 #
coedge $-1 $579 $714 $581 $718 reversed $576 $-1 #
vertex $-1 $580 $787 #
straight-curve $-1 -55.401449205958741 34.904339052606197 17.025400235480564 -0.5877852410284794 0 -0.80901700255871778 I I #
edge $-1 $582 62.681351104165266 $722 66.446119571520128 $715 $788 forward 7 unknown #
point $-1 -62.681351104165266 34.90433905260619 7.0054745866104513 #
coedge $-1 $585 $584 $714 $786 forward $421 $-1 #
point $-1 -66.446119571520128 26.314763190555102 1.8237151816657526 #
vertex $-1 $718 $789 #
straight-curve $-1 -66.446119571520128 0 7.0054745866104513 0 -1 0 I I #
vertex $-1 $592 $790 #
point $-1 -63.460825714769733 28.032678362965321 4.2313181443889745 #
vertex $-1 $596 $791 #
point $-1 -63.460825714769733 30.609551121580644 4.2313181443889745 #
vertex $-1 $600 $792 #
point $-1 -63.460825714769733 33.186423880195967 4.2313181443889745 #
coedge $-1 $615 $614 $607 $731 forward $604 $-1 #
edge $-1 $732 88.533471320828738 $735 92.141498622498119 $730 $793 forward 7 unknown #
vertex $-1 $619 $794 #
straight-curve $-1 28.305103148417416 -7.8293415187683735 7.0054745866104469 1 0 0 I I #
edge $-1 $735 -6.5454864082982134 $616 3.9777761873578932 $615 $795 forward 7 unknown #
vertex $-1 $734 $796 #
straight-curve $-1 -32.312059330791172 -7.8293415187683735 92.31971291256707 -0.74314481823134659 0 0.66913061440640931 I I #
point $-1 62.438999383705351 -7.8293415187683735 7.0054745866104469 #
point $-1 66.446119571520128 2.6939210768877331 3.397447284941066 #
straight-curve $-1 66.446119571520128 0 7.0054745866104513 0 1 0 I I #
vertex $-1 $622 $797 #
point $-1 63.627863185856114 -5.7246889996371522 3.5494107921250078 #
vertex $-1 $626 $798 #
point $-1 63.627863185856114 -2.5677102209403202 3.5494107921250078 #
vertex $-1 $630 $799 #
point $-1 63.627863185856114 0.58926855775651177 3.5494107921250078 #
edge $-1 $749 -20.082985175217122 $644 -9.559722579561015 $643 $800 forward 7 unknown #
coedge $-1 $748 $637 $753 $801 reversed $634 $-1 #
coedge $-1 $637 $747 $639 $751 forward $634 $-1 #
vertex $-1 $638 $802 #
straight-curve $-1 -0.43616817670855035 34.904339052606197 63.618530976796364 -0.74314481823134659 0 0.66913061440640931 I I #
edge $-1 $755 -7.0054745866104513 $640 -3.3974472849410788 $639 $803 forward 7 unknown #
point $-1 66.446119571520128 34.904339052606197 3.3974472849410788 #
coedge $-1 $643 $642 $747 $801 forward $474 $-1 #
point $-1 62.438999383705351 24.381076456950083 7.0054745866104469 #
vertex $-1 $647 $804 #
straight-curve $-1 66.446119571520128 0 7.0054745866104513 0 1 0 I I #
vertex $-1 $650 $805 #
point $-1 63.627863185856114 26.485728976081305 3.5494107921250078 #
vertex $-1 $654 $806 #
point $-1 63.627863185856114 29.642707754778137 3.5494107921250078 #
vertex $-1 $658 $807 #
point $-1 63.627863185856114 32.799686533474976 3.5494107921250078 #
straight-curve $-1 -66.446119571520128 34.904339052606197 0 0 0 -1 I I #
straight-curve $-1 0 34.904339052606197 -7.0054745866104513 1 0 0 I I #
point $-1 66.446119571520128 34.904339052606197 -7.0054745866104513 #
straight-curve $-1 -66.446119571520128 0 7.0054745866104513 0 -1 0 I I #
point $-1 -66.446119571520128 34.904339052606197 7.0054745866104513 #
straight-curve $-1 66.446119571520128 34.904339052606197 0 0 0 -1 I I #
point $-1 -66.446119571520128 34.904339052606197 -7.0054745866104513 #
edge $-1 $772 -7.0054745866104513 $689 7.0054745866104513 $681 $808 forward 7 unknown #
straight-curve $-1 -63.285500725252128 -40.29218120638167 -7.0054745866104513 -1 0 0 I I #
vertex $-1 $695 $809 #
straight-curve $-1 -63.285500725252128 -40.29218120638167 7.0054745866104513 1 0 0 I I #
point $-1 -65.078762824013452 -40.29218120638167 7.0054745866104513 #
point $-1 -65.078762824013452 -40.29218120638167 -7.0054745866104513 #
point $-1 -61.492238626490796 -40.29218120638167 -7.0054745866104513 #
straight-curve $-1 -61.492238626490796 -37.598260129493937 7.0054745866104513 0 1 0 I I #
straight-curve $-1 -66.446119571520128 -20.926921036779639 39.967905998585991 0 0 -1 I I #
point $-1 -66.446119571520128 -20.926921036779639 7.0054745866104513 #
straight-curve $-1 -66.446119571520128 -12.610854483902591 1.8237151816657573 0 -1 0 I I #
point $-1 -66.446119571520128 -20.926921036779639 1.8237151816657526 #
point $-1 -63.350209834004616 -27.798581726420508 3.5329170225953761 #
point $-1 -63.350209834004616 -25.221708967805181 3.5329170225953761 #
point $-1 -63.350209834004616 -22.644836209189855 3.5329170225953761 #
straight-curve $-1 -66.446119571520128 15.304775560790322 1.8237151816657573 0 -1 0 I I #
edge $-1 $722 -7.0054745866104513 $716 -1.8237151816657526 $714 $810 forward 7 unknown #
point $-1 -66.446119571520128 34.90433905260619 1.8237151816657526 #
straight-curve $-1 0 34.904339052606197 7.0054745866104513 -1 0 0 I I #
point $-1 -66.446119571520128 34.904339052606197 7.0054745866104513 #
point $-1 -63.350209834004616 28.032678362965321 3.5329170225953761 #
point $-1 -63.350209834004616 30.609551121580644 3.5329170225953761 #
point $-1 -63.350209834004616 33.186423880195967 3.5329170225953761 #
straight-curve $-1 66.446119571520128 -7.8293415187683735 95.538945907439185 0 0 -1 I I #
point $-1 66.446119571520128 -7.8293415187683735 7.0054745866104513 #
straight-curve $-1 66.446119571520128 -1.2838551104701601 3.3974472849410731 0 1 0 I I #
point $-1 66.446119571520128 -7.8293415187683735 3.397447284941066 #
point $-1 62.921725469537236 -5.7246889996371522 3.5124036902125382 #
point $-1 62.921725469537236 -2.5677102209403202 3.5124036902125382 #
point $-1 62.921725469537236 0.58926855775651177 3.5124036902125382 #
straight-curve $-1 62.438999383705344 14.821353877389068 7.0054745866104469 0 -1 0 I I #
edge $-1 $755 -66.446119571520128 $749 -62.438999383705351 $747 $811 forward 7 unknown #
point $-1 62.438999383705351 34.90433905260619 7.0054745866104469 #
straight-curve $-1 66.446119571520128 34.904339052606197 0 0 0 -1 I I #
point $-1 66.446119571520128 34.904339052606197 7.0054745866104513 #
point $-1 62.921725469537236 26.485728976081305 3.5124036902125382 #
point $-1 62.921725469537236 29.642707754778137 3.5124036902125382 #
point $-1 62.921725469537236 32.799686533474976 3.5124036902125382 #
straight-curve $-1 -61.492238626490796 -40.29218120638167 0 0 0 -1 I I #
point $-1 -61.492238626490796 -40.29218120638167 7.0054745866104513 #
straight-curve $-1 -66.446119571520128 34.904339052606197 0 0 0 -1 I I #
straight-curve $-1 0 34.904339052606197 7.0054745866104513 -1 0 0 I I #
End-of-ACIS-data 