500 0 18 0           
7 Unknown 11 ACIS 5.0 NT 24 Thu Mar 25 17:23:07 1999 
-1 9.9999999999999995e-007 1e-010 
body $-1 $18 $-1 $19 #
body $-1 $20 $-1 $21 #
body $-1 $22 $-1 $23 #
body $-1 $24 $-1 $25 #
body $-1 $26 $-1 $27 #
body $-1 $28 $-1 $29 #
body $-1 $30 $-1 $31 #
body $-1 $32 $-1 $33 #
body $-1 $34 $-1 $35 #
body $-1 $36 $-1 $37 #
body $-1 $38 $-1 $39 #
body $-1 $40 $-1 $41 #
body $-1 $42 $-1 $43 #
body $-1 $44 $-1 $45 #
body $-1 $46 $-1 $47 #
body $-1 $48 $-1 $49 #
body $-1 $50 $-1 $51 #
body $-1 $52 $-1 $53 #
lump $-1 $-1 $54 $0 #
transform $-1 1 0 0 0 1 0 0 0 1 61.054109317300941 40.307972534541086 15.385966566233487 1 rotate no_reflect no_shear #
lump $-1 $-1 $55 $1 #
transform $-1 1 0 0 0 1 0 0 0 1 61.054109317300941 40.307972534541086 15.385966566233487 1 rotate no_reflect no_shear #
lump $-1 $-1 $56 $2 #
transform $-1 1 0 0 0 1 0 0 0 1 61.054109317300941 40.307972534541086 15.385966566233487 1 rotate no_reflect no_shear #
lump $-1 $-1 $57 $3 #
transform $-1 1 0 0 0 1 0 0 0 1 61.054109317300941 40.307972534541086 15.385966566233487 1 rotate no_reflect no_shear #
lump $-1 $-1 $58 $4 #
transform $-1 1 0 0 0 1 0 0 0 1 61.054109317300941 40.307972534541086 15.385966566233487 1 rotate no_reflect no_shear #
lump $-1 $-1 $59 $5 #
transform $-1 1 0 0 0 1 0 0 0 1 61.054109317300941 40.307972534541086 15.385966566233487 1 rotate no_reflect no_shear #
lump $-1 $-1 $60 $6 #
transform $-1 1 0 0 0 1 0 0 0 1 61.054109317300941 40.307972534541086 15.385966566233487 1 rotate no_reflect no_shear #
lump $-1 $-1 $61 $7 #
transform $-1 1 0 0 0 1 0 0 0 1 61.054109317300941 40.307972534541086 15.385966566233487 1 rotate no_reflect no_shear #
lump $-1 $-1 $62 $8 #
transform $-1 1 0 0 0 1 0 0 0 1 61.054109317300941 40.307972534541086 15.385966566233487 1 rotate no_reflect no_shear #
lump $-1 $-1 $63 $9 #
transform $-1 1 0 0 0 1 0 0 0 1 61.054109317300941 40.307972534541086 15.385966566233487 1 rotate no_reflect no_shear #
lump $-1 $-1 $64 $10 #
transform $-1 1 0 0 0 1 0 0 0 1 61.054109317300941 40.307972534541086 15.385966566233487 1 rotate no_reflect no_shear #
lump $-1 $-1 $65 $11 #
transform $-1 1 0 0 0 1 0 0 0 1 61.054109317300941 40.307972534541086 15.385966566233487 1 rotate no_reflect no_shear #
lump $-1 $-1 $66 $12 #
transform $-1 1 0 0 0 1 0 0 0 1 61.054109317300941 40.307972534541086 15.385966566233487 1 rotate no_reflect no_shear #
lump $-1 $-1 $67 $13 #
transform $-1 1 0 0 0 1 0 0 0 1 61.054109317300941 40.307972534541086 15.385966566233487 1 rotate no_reflect no_shear #
lump $-1 $-1 $68 $14 #
transform $-1 1 0 0 0 1 0 0 0 1 61.054109317300941 40.307972534541086 15.385966566233487 1 rotate no_reflect no_shear #
lump $-1 $-1 $69 $15 #
transform $-1 1 0 0 0 1 0 0 0 1 61.054109317300941 40.307972534541086 15.385966566233487 1 rotate no_reflect no_shear #
lump $-1 $-1 $70 $16 #
transform $-1 1 0 0 0 1 0 0 0 1 61.054109317300941 40.307972534541086 15.385966566233487 1 rotate no_reflect no_shear #
lump $-1 $-1 $71 $17 #
transform $-1 1 0 0 0 1 0 0 0 1 61.054109317300941 40.307972534541086 15.385966566233487 1 rotate no_reflect no_shear #
shell $-1 $-1 $-1 $72 $-1 $18 #
shell $-1 $-1 $-1 $73 $-1 $20 #
shell $-1 $-1 $-1 $74 $-1 $22 #
shell $-1 $-1 $-1 $75 $-1 $24 #
shell $-1 $-1 $-1 $76 $-1 $26 #
shell $-1 $-1 $-1 $77 $-1 $28 #
shell $-1 $-1 $-1 $78 $-1 $30 #
shell $-1 $-1 $-1 $79 $-1 $32 #
shell $-1 $-1 $-1 $80 $-1 $34 #
shell $-1 $-1 $-1 $81 $-1 $36 #
shell $-1 $-1 $-1 $82 $-1 $38 #
shell $-1 $-1 $-1 $83 $-1 $40 #
shell $-1 $-1 $-1 $84 $-1 $42 #
shell $-1 $-1 $-1 $85 $-1 $44 #
shell $-1 $-1 $-1 $86 $-1 $46 #
shell $-1 $-1 $-1 $87 $-1 $48 #
shell $-1 $-1 $-1 $88 $-1 $50 #
shell $-1 $-1 $-1 $89 $-1 $52 #
face $-1 $90 $91 $54 $-1 $92 forward single #
face $-1 $93 $94 $55 $-1 $95 reversed single #
face $-1 $96 $97 $56 $-1 $98 reversed single #
face $-1 $99 $100 $57 $-1 $101 forward single #
face $-1 $102 $103 $58 $-1 $104 forward single #
face $-1 $105 $106 $59 $-1 $107 forward single #
face $-1 $108 $109 $60 $-1 $110 reversed single #
face $-1 $111 $112 $61 $-1 $113 forward single #
face $-1 $114 $115 $62 $-1 $116 forward single #
face $-1 $117 $118 $63 $-1 $119 forward single #
face $-1 $120 $121 $64 $-1 $122 reversed single #
face $-1 $123 $124 $65 $-1 $125 forward single #
face $-1 $126 $127 $66 $-1 $128 reversed single #
face $-1 $129 $130 $67 $-1 $131 forward single #
face $-1 $132 $133 $68 $-1 $134 reversed single #
face $-1 $135 $136 $69 $-1 $137 forward single #
face $-1 $138 $139 $70 $-1 $140 reversed single #
face $-1 $141 $142 $71 $-1 $143 forward single #
face $-1 $144 $145 $54 $-1 $146 reversed single #
loop $-1 $-1 $147 $72 #
plane-surface $-1 0 0 15.385966566233487 0 0 1 1 0 0 forward_v I I I I #
face $-1 $148 $149 $55 $-1 $150 reversed single #
loop $-1 $-1 $151 $73 #
plane-surface $-1 0 -34.024288756838303 11.263539890871375 0 0 1 1 0 0 forward_v I I I I #
face $-1 $152 $153 $56 $-1 $154 reversed single #
loop $-1 $-1 $155 $74 #
plane-surface $-1 -131.09250711355838 -13.710557066085917 112.26487637409969 0 -1 0 0.57357644374324357 0 -0.81915203911291934 forward_v I I I I #
face $-1 $156 $157 $57 $-1 $158 forward single #
loop $-1 $159 $160 $75 #
cone-surface $-1 -57.708115431071683 -24.934595396525598 12.242842333349895 0.57357644374324357 0 -0.81915203911291934 0.81915203911291934 0 0.57357644374324357 1 I I 0 1 1 forward I I I I #
face $-1 $161 $162 $58 $-1 $163 forward single #
loop $-1 $164 $165 $76 #
cone-surface $-1 -57.708115431071683 -20.725581022610719 12.242842333349895 0.57357644374324357 0 -0.81915203911291934 0.81915203911291934 0 0.57357644374324357 1 I I 0 1 1 forward I I I I #
face $-1 $166 $167 $59 $-1 $168 forward single #
loop $-1 $169 $170 $77 #
cone-surface $-1 -57.708115431071683 -16.516566648695836 12.242842333349895 0.57357644374324357 0 -0.81915203911291934 0.81915203911291934 0 0.57357644374324357 1 I I 0 1 1 forward I I I I #
face $-1 $171 $172 $60 $-1 $173 reversed single #
loop $-1 $-1 $174 $78 #
plane-surface $-1 -131.09250711355838 6.2836837777027821 112.26487637409969 0 1 0 -0.57357644374324357 0 0.81915203911291934 forward_v I I I I #
face $-1 $175 $176 $61 $-1 $177 forward single #
loop $-1 $178 $179 $79 #
cone-surface $-1 -57.708115431071683 9.089693360312701 12.242842333349895 0.57357644374324357 0 -0.81915203911291934 0.81915203911291934 0 0.57357644374324357 1 I I 0 1 1 forward I I I I #
face $-1 $180 $181 $62 $-1 $182 forward single #
loop $-1 $183 $184 $80 #
cone-surface $-1 -57.708115431071683 13.298707734227584 12.242842333349895 0.57357644374324357 0 -0.81915203911291934 0.81915203911291934 0 0.57357644374324357 1 I I 0 1 1 forward I I I I #
face $-1 $185 $186 $63 $-1 $187 forward single #
loop $-1 $188 $189 $81 #
cone-surface $-1 -57.708115431071683 17.507722108142467 12.242842333349895 0.57357644374324357 0 -0.81915203911291934 0.81915203911291934 0 0.57357644374324357 1 I I 0 1 1 forward I I I I #
face $-1 $190 $191 $64 $-1 $192 reversed single #
loop $-1 $-1 $193 $82 #
plane-surface $-1 25.150444045975561 -13.902141214290864 169.42074940455095 0 -1 0 -0.54463904215088732 0 -0.83867056331134215 forward_v I I I I #
face $-1 $194 $195 $65 $-1 $196 forward single #
loop $-1 $197 $198 $83 #
cone-surface $-1 48.817330558510989 -19.695262592166124 6.7436902574663637 -0.54463904215088732 0 -0.83867056331134215 1.2580058449670133 0 -0.81695856322633098 1 I I 0 1 1.5 forward I I I I #
face $-1 $199 $200 $66 $-1 $201 reversed single #
loop $-1 $-1 $202 $84 #
plane-surface $-1 25.150444045975561 3.4171563656217385 169.42074940455095 0 -1 0 -0.54463904215088732 0 -0.83867056331134215 forward_v I I I I #
face $-1 $203 $204 $67 $-1 $205 forward single #
loop $-1 $206 $207 $85 #
cone-surface $-1 48.817330558510989 -2.3759650122535163 6.7436902574663637 -0.54463904215088732 0 -0.83867056331134215 1.2580058449670133 0 -0.81695856322633098 1 I I 0 1 1.5 forward I I I I #
face $-1 $208 $209 $68 $-1 $210 reversed single #
loop $-1 $-1 $211 $86 #
plane-surface $-1 25.150444045975561 20.736453945534347 169.42074940455095 0 -1 0 -0.54463904215088732 0 -0.83867056331134215 forward_v I I I I #
face $-1 $212 $213 $69 $-1 $214 forward single #
loop $-1 $215 $216 $87 #
cone-surface $-1 48.817330558510989 14.943332567659091 6.7436902574663637 -0.54463904215088732 0 -0.83867056331134215 1.2580058449670133 0 -0.81695856322633098 1 I I 0 1 1.5 forward I I I I #
face $-1 $217 $218 $70 $-1 $219 reversed single #
loop $-1 $-1 $220 $88 #
plane-surface $-1 25.150444045975561 38.055751525446951 169.42074940455095 0 -1 0 -0.54463904215088732 0 -0.83867056331134215 forward_v I I I I #
face $-1 $221 $222 $71 $-1 $223 forward single #
loop $-1 $224 $225 $89 #
cone-surface $-1 48.817330558510989 32.262630147571706 6.7436902574663637 -0.54463904215088732 0 -0.83867056331134215 1.2580058449670133 0 -0.81695856322633098 1 I I 0 1 1.5 forward I I I I #
face $-1 $226 $227 $54 $-1 $228 reversed single #
loop $-1 $-1 $229 $90 #
plane-surface $-1 0 0 -15.385966566233487 0 0 1 1 0 0 forward_v I I I I #
coedge $-1 $230 $231 $232 $233 forward $91 $-1 #
face $-1 $234 $235 $55 $-1 $236 reversed single #
loop $-1 $-1 $237 $93 #
plane-surface $-1 0 -27.740604979135519 13.32475322855243 0 -1 0 0 0 -1 forward_v I I I I #
coedge $-1 $238 $239 $240 $241 reversed $94 $-1 #
face $-1 $242 $243 $56 $-1 $244 forward single #
loop $-1 $-1 $245 $96 #
plane-surface $-1 -61.054109317300956 -20.725581022610719 12.239680087119368 -0.57357644374324357 0 0.81915203911291934 0.81915203911291934 0 0.57357644374324357 forward_v I I I I #
coedge $-1 $246 $247 $248 $249 reversed $97 $-1 #
face $-1 $-1 $250 $57 $-1 $251 forward single #
loop $-1 $252 $253 $99 #
cone-surface $-1 -56.322014661712664 -24.934595396525598 10.263285320466904 0.57357644374324357 0 -0.81915203911291934 0.40957601955645967 0 0.28678822187162178 1 I I -0.70710678118654746 0.70710678118654746 0.5 forward I I I I #
loop $-1 $-1 $254 $75 #
coedge $-1 $160 $160 $255 $256 reversed $100 $-1 #
face $-1 $-1 $257 $58 $-1 $258 forward single #
loop $-1 $259 $260 $102 #
cone-surface $-1 -56.322014661712664 -20.725581022610719 10.263285320466904 0.57357644374324357 0 -0.81915203911291934 0.40957601955645967 0 0.28678822187162178 1 I I -0.70710678118654746 0.70710678118654746 0.5 forward I I I I #
loop $-1 $-1 $261 $76 #
coedge $-1 $165 $165 $262 $263 reversed $103 $-1 #
face $-1 $-1 $264 $59 $-1 $265 forward single #
loop $-1 $266 $267 $105 #
cone-surface $-1 -56.322014661712664 -16.516566648695836 10.263285320466904 0.57357644374324357 0 -0.81915203911291934 0.40957601955645967 0 0.28678822187162178 1 I I -0.70710678118654746 0.70710678118654746 0.5 forward I I I I #
loop $-1 $-1 $268 $77 #
coedge $-1 $170 $170 $269 $270 reversed $106 $-1 #
face $-1 $271 $272 $60 $-1 $273 reversed single #
loop $-1 $-1 $274 $108 #
plane-surface $-1 -61.054109317300956 13.298707734227584 12.239680087119368 -0.57357644374324357 0 0.81915203911291934 0.81915203911291934 0 0.57357644374324357 forward_v I I I I #
coedge $-1 $275 $276 $277 $278 reversed $109 $-1 #
face $-1 $-1 $279 $61 $-1 $280 forward single #
loop $-1 $281 $282 $111 #
cone-surface $-1 -56.322014661712664 9.089693360312701 10.263285320466904 0.57357644374324357 0 -0.81915203911291934 0.40957601955645967 0 0.28678822187162178 1 I I -0.70710678118654746 0.70710678118654746 0.5 forward I I I I #
loop $-1 $-1 $283 $79 #
coedge $-1 $179 $179 $284 $285 reversed $112 $-1 #
face $-1 $-1 $286 $62 $-1 $287 forward single #
loop $-1 $288 $289 $114 #
cone-surface $-1 -56.322014661712664 13.298707734227584 10.263285320466904 0.57357644374324357 0 -0.81915203911291934 0.40957601955645967 0 0.28678822187162178 1 I I -0.70710678118654746 0.70710678118654746 0.5 forward I I I I #
loop $-1 $-1 $290 $80 #
coedge $-1 $184 $184 $291 $292 reversed $115 $-1 #
face $-1 $-1 $293 $63 $-1 $294 forward single #
loop $-1 $295 $296 $117 #
cone-surface $-1 -56.322014661712664 17.507722108142467 10.263285320466904 0.57357644374324357 0 -0.81915203911291934 0.40957601955645967 0 0.28678822187162178 1 I I -0.70710678118654746 0.70710678118654746 0.5 forward I I I I #
loop $-1 $-1 $297 $81 #
coedge $-1 $189 $189 $298 $299 reversed $118 $-1 #
face $-1 $300 $301 $64 $-1 $302 reversed single #
loop $-1 $-1 $303 $120 #
plane-surface $-1 -41.354459189925137 -19.695262592166127 67.012180897324853 0.54463904215088732 0 0.83867056331134215 0.83867056331134215 0 -0.54463904215088732 forward_v I I I I #
coedge $-1 $304 $305 $306 $307 reversed $121 $-1 #
face $-1 $-1 $308 $65 $-1 $309 forward single #
loop $-1 $310 $311 $123 #
cone-surface $-1 47.627658180725177 -19.695262592166124 4.9117554786203907 -0.54463904215088732 0 -0.83867056331134215 0.62900292248350664 0 -0.40847928161316549 1 I I -0.70710678118654757 0.70710678118654757 0.75 forward I I I I #
loop $-1 $-1 $312 $83 #
coedge $-1 $198 $198 $313 $314 reversed $124 $-1 #
face $-1 $315 $316 $66 $-1 $317 reversed single #
loop $-1 $-1 $318 $126 #
plane-surface $-1 -41.354459189925137 -2.3759650122535234 67.012180897324853 0.54463904215088732 0 0.83867056331134215 0.83867056331134215 0 -0.54463904215088732 forward_v I I I I #
coedge $-1 $319 $320 $321 $322 reversed $127 $-1 #
face $-1 $-1 $323 $67 $-1 $324 forward single #
loop $-1 $325 $326 $129 #
cone-surface $-1 47.627658180725177 -2.3759650122535163 4.9117554786203907 -0.54463904215088732 0 -0.83867056331134215 0.62900292248350664 0 -0.40847928161316549 1 I I -0.70710678118654757 0.70710678118654757 0.75 forward I I I I #
loop $-1 $-1 $327 $85 #
coedge $-1 $207 $207 $328 $329 reversed $130 $-1 #
face $-1 $330 $331 $68 $-1 $332 reversed single #
loop $-1 $-1 $333 $132 #
plane-surface $-1 -41.354459189925137 14.943332567659084 67.012180897324853 0.54463904215088732 0 0.83867056331134215 0.83867056331134215 0 -0.54463904215088732 forward_v I I I I #
coedge $-1 $334 $335 $336 $337 reversed $133 $-1 #
face $-1 $-1 $338 $69 $-1 $339 forward single #
loop $-1 $340 $341 $135 #
cone-surface $-1 47.627658180725177 14.943332567659091 4.9117554786203907 -0.54463904215088732 0 -0.83867056331134215 0.62900292248350664 0 -0.40847928161316549 1 I I -0.70710678118654757 0.70710678118654757 0.75 forward I I I I #
loop $-1 $-1 $342 $87 #
coedge $-1 $216 $216 $343 $344 reversed $136 $-1 #
face $-1 $345 $346 $70 $-1 $347 reversed single #
loop $-1 $-1 $348 $138 #
plane-surface $-1 -41.354459189925137 32.262630147571691 67.012180897324853 0.54463904215088732 0 0.83867056331134215 0.83867056331134215 0 -0.54463904215088732 forward_v I I I I #
coedge $-1 $349 $350 $351 $352 reversed $139 $-1 #
face $-1 $-1 $353 $71 $-1 $354 forward single #
loop $-1 $355 $356 $141 #
cone-surface $-1 47.627658180725177 32.262630147571706 4.9117554786203907 -0.54463904215088732 0 -0.83867056331134215 0.62900292248350664 0 -0.40847928161316549 1 I I -0.70710678118654757 0.70710678118654757 0.75 forward I I I I #
loop $-1 $-1 $357 $89 #
coedge $-1 $225 $225 $358 $359 reversed $142 $-1 #
face $-1 $360 $361 $54 $-1 $362 reversed single #
loop $-1 $-1 $363 $144 #
plane-surface $-1 0 -40.307972534541086 0 0 1 0 0 0 1 forward_v I I I I #
coedge $-1 $364 $365 $366 $367 forward $145 $-1 #
coedge $-1 $368 $147 $369 $370 forward $91 $-1 #
coedge $-1 $147 $368 $371 $372 forward $91 $-1 #
coedge $-1 $373 $374 $147 $233 reversed $375 $-1 #
edge $-1 $376 -40.307972534541086 $377 40.307972534541086 $232 $378 forward 7 unknown #
face $-1 $379 $380 $55 $-1 $381 reversed single #
loop $-1 $-1 $382 $148 #
plane-surface $-1 -61.054109317300941 0 0 1 0 0 0 0 -1 forward_v I I I I #
coedge $-1 $383 $384 $385 $386 reversed $149 $-1 #
coedge $-1 $387 $151 $388 $389 reversed $94 $-1 #
coedge $-1 $151 $387 $383 $390 forward $94 $-1 #
coedge $-1 $385 $391 $151 $241 forward $392 $-1 #
edge $-1 $393 -23.295828156121935 $394 -10.728460600716367 $240 $395 forward 7 unknown #
face $-1 $396 $397 $56 $-1 $398 forward single #
loop $-1 $-1 $399 $152 #
plane-surface $-1 0 -27.740604979135519 13.32475322855243 0 -1 0 0 0 -1 forward_v I I I I #
coedge $-1 $400 $401 $402 $403 reversed $153 $-1 #
coedge $-1 $247 $155 $404 $405 reversed $97 $-1 #
coedge $-1 $155 $246 $400 $406 reversed $97 $-1 #
coedge $-1 $402 $407 $155 $249 forward $408 $-1 #
edge $-1 $409 40.746471620816358 $410 43.892758099930461 $248 $411 forward 7 unknown #
loop $-1 $-1 $255 $156 #
plane-surface $-1 -61.054109317300956 -20.725581022610719 12.239680087119368 -0.57357644374324357 0 0.81915203911291934 0.81915203911291934 0 0.57357644374324357 forward_v I I I I #
loop $-1 $-1 $412 $99 #
coedge $-1 $253 $253 $254 $413 reversed $157 $-1 #
coedge $-1 $254 $254 $253 $413 forward $159 $-1 #
coedge $-1 $255 $255 $160 $256 forward $250 $-1 #
edge $-1 $414 0 $414 6.2831853071796004 $255 $415 forward 7 unknown #
loop $-1 $-1 $262 $161 #
plane-surface $-1 -61.054109317300956 -20.725581022610719 12.239680087119368 -0.57357644374324357 0 0.81915203911291934 0.81915203911291934 0 0.57357644374324357 forward_v I I I I #
loop $-1 $-1 $416 $102 #
coedge $-1 $260 $260 $261 $417 reversed $162 $-1 #
coedge $-1 $261 $261 $260 $417 forward $164 $-1 #
coedge $-1 $262 $262 $165 $263 forward $257 $-1 #
edge $-1 $418 0 $418 6.2831853071796004 $262 $419 forward 7 unknown #
loop $-1 $-1 $269 $166 #
plane-surface $-1 -61.054109317300956 -20.725581022610719 12.239680087119368 -0.57357644374324357 0 0.81915203911291934 0.81915203911291934 0 0.57357644374324357 forward_v I I I I #
loop $-1 $-1 $420 $105 #
coedge $-1 $267 $267 $268 $421 reversed $167 $-1 #
coedge $-1 $268 $268 $267 $421 forward $169 $-1 #
coedge $-1 $269 $269 $170 $270 forward $264 $-1 #
edge $-1 $422 0 $422 6.2831853071796004 $269 $423 forward 7 unknown #
face $-1 $424 $425 $60 $-1 $426 forward single #
loop $-1 $-1 $427 $171 #
plane-surface $-1 -131.09250711355838 20.313731690752384 112.26487637409969 0 -1 0 0.57357644374324357 0 -0.81915203911291934 forward_v I I I I #
coedge $-1 $428 $429 $430 $431 reversed $172 $-1 #
coedge $-1 $276 $174 $432 $433 reversed $109 $-1 #
coedge $-1 $174 $275 $428 $434 reversed $109 $-1 #
coedge $-1 $430 $435 $174 $278 forward $425 $-1 #
edge $-1 $436 4.4921442394782503 $437 8.9855069169619668 $277 $438 forward 7 unknown #
loop $-1 $-1 $284 $175 #
plane-surface $-1 -61.054109317300956 13.298707734227584 12.239680087119368 -0.57357644374324357 0 0.81915203911291934 0.81915203911291934 0 0.57357644374324357 forward_v I I I I #
loop $-1 $-1 $439 $111 #
coedge $-1 $282 $282 $283 $440 reversed $176 $-1 #
coedge $-1 $283 $283 $282 $440 forward $178 $-1 #
coedge $-1 $284 $284 $179 $285 forward $279 $-1 #
edge $-1 $441 0 $441 6.2831853071796004 $284 $442 forward 7 unknown #
loop $-1 $-1 $291 $180 #
plane-surface $-1 -61.054109317300956 13.298707734227584 12.239680087119368 -0.57357644374324357 0 0.81915203911291934 0.81915203911291934 0 0.57357644374324357 forward_v I I I I #
loop $-1 $-1 $443 $114 #
coedge $-1 $289 $289 $290 $444 reversed $181 $-1 #
coedge $-1 $290 $290 $289 $444 forward $183 $-1 #
coedge $-1 $291 $291 $184 $292 forward $286 $-1 #
edge $-1 $445 0 $445 6.2831853071796004 $291 $446 forward 7 unknown #
loop $-1 $-1 $298 $185 #
plane-surface $-1 -61.054109317300956 13.298707734227584 12.239680087119368 -0.57357644374324357 0 0.81915203911291934 0.81915203911291934 0 0.57357644374324357 forward_v I I I I #
loop $-1 $-1 $447 $117 #
coedge $-1 $296 $296 $297 $448 reversed $186 $-1 #
coedge $-1 $297 $297 $296 $448 forward $188 $-1 #
coedge $-1 $298 $298 $189 $299 forward $293 $-1 #
edge $-1 $449 0 $449 6.2831853071796004 $298 $450 forward 7 unknown #
face $-1 $451 $452 $64 $-1 $453 reversed single #
loop $-1 $-1 $454 $190 #
plane-surface $-1 25.150444045975561 -25.48838397004139 169.42074940455095 0 1 0 0.54463904215088732 0 0.83867056331134215 forward_v I I I I #
coedge $-1 $455 $456 $457 $458 reversed $191 $-1 #
coedge $-1 $305 $193 $459 $460 reversed $121 $-1 #
coedge $-1 $193 $304 $455 $461 reversed $121 $-1 #
coedge $-1 $457 $462 $193 $307 forward $463 $-1 #
edge $-1 $464 -48.478887294313161 $465 -25.567715969078556 $306 $466 forward 7 unknown #
loop $-1 $-1 $313 $194 #
plane-surface $-1 -41.354459189925137 -19.695262592166127 67.012180897324853 0.54463904215088732 0 0.83867056331134215 0.83867056331134215 0 -0.54463904215088732 forward_v I I I I #
loop $-1 $-1 $467 $123 #
coedge $-1 $311 $311 $312 $468 reversed $195 $-1 #
coedge $-1 $312 $312 $311 $468 forward $197 $-1 #
coedge $-1 $313 $313 $198 $314 forward $308 $-1 #
edge $-1 $469 0 $469 6.2831853071796004 $313 $470 forward 7 unknown #
face $-1 $471 $472 $66 $-1 $473 reversed single #
loop $-1 $-1 $474 $199 #
plane-surface $-1 25.150444045975561 -8.1690863901287862 169.42074940455095 0 1 0 0.54463904215088732 0 0.83867056331134215 forward_v I I I I #
coedge $-1 $475 $476 $477 $478 reversed $200 $-1 #
coedge $-1 $320 $202 $479 $480 reversed $127 $-1 #
coedge $-1 $202 $319 $475 $481 reversed $127 $-1 #
coedge $-1 $477 $482 $202 $322 forward $483 $-1 #
edge $-1 $484 -48.478887294313161 $485 -25.567715969078556 $321 $486 forward 7 unknown #
loop $-1 $-1 $328 $203 #
plane-surface $-1 -41.354459189925137 -2.3759650122535234 67.012180897324853 0.54463904215088732 0 0.83867056331134215 0.83867056331134215 0 -0.54463904215088732 forward_v I I I I #
loop $-1 $-1 $487 $129 #
coedge $-1 $326 $326 $327 $488 reversed $204 $-1 #
coedge $-1 $327 $327 $326 $488 forward $206 $-1 #
coedge $-1 $328 $328 $207 $329 forward $323 $-1 #
edge $-1 $489 0 $489 6.2831853071796004 $328 $490 forward 7 unknown #
face $-1 $491 $492 $68 $-1 $493 reversed single #
loop $-1 $-1 $494 $208 #
plane-surface $-1 25.150444045975561 9.1502111897838212 169.42074940455095 0 1 0 0.54463904215088732 0 0.83867056331134215 forward_v I I I I #
coedge $-1 $495 $496 $497 $498 reversed $209 $-1 #
coedge $-1 $335 $211 $499 $500 reversed $133 $-1 #
coedge $-1 $211 $334 $495 $501 reversed $133 $-1 #
coedge $-1 $497 $502 $211 $337 forward $503 $-1 #
edge $-1 $504 -48.478887294313161 $505 -25.567715969078556 $336 $506 forward 7 unknown #
loop $-1 $-1 $343 $212 #
plane-surface $-1 -41.354459189925137 14.943332567659084 67.012180897324853 0.54463904215088732 0 0.83867056331134215 0.83867056331134215 0 -0.54463904215088732 forward_v I I I I #
loop $-1 $-1 $507 $135 #
coedge $-1 $341 $341 $342 $508 reversed $213 $-1 #
coedge $-1 $342 $342 $341 $508 forward $215 $-1 #
coedge $-1 $343 $343 $216 $344 forward $338 $-1 #
edge $-1 $509 0 $509 6.2831853071796004 $343 $510 forward 7 unknown #
face $-1 $511 $512 $70 $-1 $513 reversed single #
loop $-1 $-1 $514 $217 #
plane-surface $-1 25.150444045975561 26.469508769696429 169.42074940455095 0 1 0 0.54463904215088732 0 0.83867056331134215 forward_v I I I I #
coedge $-1 $515 $516 $517 $518 reversed $218 $-1 #
coedge $-1 $350 $220 $519 $520 reversed $139 $-1 #
coedge $-1 $220 $349 $515 $521 reversed $139 $-1 #
coedge $-1 $517 $522 $220 $352 forward $523 $-1 #
edge $-1 $524 -48.478887294313161 $525 -25.567715969078556 $351 $526 forward 7 unknown #
loop $-1 $-1 $358 $221 #
plane-surface $-1 -41.354459189925137 32.262630147571691 67.012180897324853 0.54463904215088732 0 0.83867056331134215 0.83867056331134215 0 -0.54463904215088732 forward_v I I I I #
loop $-1 $-1 $527 $141 #
coedge $-1 $356 $356 $357 $528 reversed $222 $-1 #
coedge $-1 $357 $357 $356 $528 forward $224 $-1 #
coedge $-1 $358 $358 $225 $359 forward $353 $-1 #
edge $-1 $529 0 $529 6.2831853071796004 $358 $530 forward 7 unknown #
face $-1 $531 $532 $54 $-1 $533 reversed single #
loop $-1 $-1 $534 $226 #
plane-surface $-1 -61.054109317300941 0 0 1 0 0 0 0 -1 forward_v I I I I #
coedge $-1 $535 $371 $536 $537 forward $227 $-1 #
coedge $-1 $538 $229 $535 $539 forward $145 $-1 #
coedge $-1 $229 $538 $540 $541 forward $145 $-1 #
coedge $-1 $374 $373 $229 $367 reversed $375 $-1 #
edge $-1 $542 -40.307972534541086 $543 40.307972534541086 $366 $544 forward 7 unknown #
coedge $-1 $231 $230 $545 $546 forward $91 $-1 #
coedge $-1 $547 $548 $230 $370 reversed $532 $-1 #
edge $-1 $377 -61.054109317300941 $549 61.054109317300941 $369 $550 forward 7 unknown #
coedge $-1 $363 $551 $231 $372 reversed $227 $-1 #
edge $-1 $552 -61.054109317300941 $376 61.054109317300941 $371 $553 forward 7 unknown #
coedge $-1 $366 $232 $551 $554 forward $375 $-1 #
coedge $-1 $232 $366 $547 $555 reversed $375 $-1 #
loop $-1 $-1 $373 $531 #
vertex $-1 $233 $556 #
vertex $-1 $233 $557 #
straight-curve $-1 61.054109317300941 0 15.385966566233487 0 1 0 I I #
face $-1 $558 $559 $55 $-1 $560 forward single #
loop $-1 $-1 $388 $234 #
plane-surface $-1 0 -40.307972534541086 0 0 1 0 0 0 1 forward_v I I I I #
coedge $-1 $561 $562 $563 $564 forward $235 $-1 #
coedge $-1 $563 $237 $239 $390 reversed $149 $-1 #
coedge $-1 $237 $563 $565 $566 reversed $149 $-1 #
coedge $-1 $567 $240 $237 $386 forward $392 $-1 #
edge $-1 $394 4.6011632765951598 $568 8.7235899519572691 $385 $569 forward 7 unknown #
coedge $-1 $239 $238 $561 $570 reversed $94 $-1 #
coedge $-1 $571 $572 $238 $389 forward $380 $-1 #
edge $-1 $573 -61.054109317300941 $393 61.054109317300941 $388 $574 forward 7 unknown #
edge $-1 $575 -61.054109317300941 $394 61.054109317300941 $383 $576 forward 7 unknown #
coedge $-1 $240 $567 $571 $577 forward $392 $-1 #
loop $-1 $-1 $385 $558 #
vertex $-1 $389 $578 #
vertex $-1 $241 $579 #
straight-curve $-1 61.054109317300941 -17.012144378419151 11.263539890871375 0 1 0 I I #
face $-1 $-1 $408 $56 $-1 $580 reversed single #
loop $-1 $-1 $581 $242 #
plane-surface $-1 0 0 15.385966566233487 0 0 1 1 0 0 forward_v I I I I #
coedge $-1 $582 $583 $401 $584 forward $243 $-1 #
coedge $-1 $585 $245 $247 $406 forward $153 $-1 #
coedge $-1 $245 $585 $399 $584 reversed $153 $-1 #
coedge $-1 $586 $248 $245 $403 forward $408 $-1 #
edge $-1 $410 3.3477665547805575 $587 17.377814467830159 $402 $588 forward 7 unknown #
coedge $-1 $589 $581 $246 $405 forward $397 $-1 #
edge $-1 $590 -8.9855069169619668 $409 -4.4921442394782503 $404 $591 forward 7 unknown #
edge $-1 $410 1.7754109250068268e-014 $590 5.4853830094224119 $247 $592 forward 7 unknown #
coedge $-1 $248 $586 $589 $593 reversed $408 $-1 #
loop $-1 $-1 $402 $396 #
vertex $-1 $593 $594 #
vertex $-1 $249 $595 #
straight-curve $-1 -61.054109317300941 -13.710557066085917 56.132438187049843 0 0 -1 I I #
coedge $-1 $412 $412 $-1 $596 reversed $252 $-1 #
edge $-1 $597 0 $597 6.2831853071796004 $253 $598 forward 7 unknown #
vertex $-1 $256 $599 #
ellipse-curve $-1 -58.807427978559083 -24.934595396525598 13.812823326676433 -0.57357644374324357 0 0.81915203911291934 0.81915203911291934 0 0.57357644374324357 1 I I #
coedge $-1 $416 $416 $-1 $600 reversed $259 $-1 #
edge $-1 $601 0 $601 6.2831853071796004 $260 $602 forward 7 unknown #
vertex $-1 $263 $603 #
ellipse-curve $-1 -58.807427978559083 -20.725581022610719 13.812823326676433 -0.57357644374324357 0 0.81915203911291934 0.81915203911291934 0 0.57357644374324357 1 I I #
coedge $-1 $420 $420 $-1 $604 reversed $266 $-1 #
edge $-1 $605 0 $605 6.2831853071796004 $267 $606 forward 7 unknown #
vertex $-1 $270 $607 #
ellipse-curve $-1 -58.807427978559083 -16.516566648695836 13.812823326676433 -0.57357644374324357 0 0.81915203911291934 0.81915203911291934 0 0.57357644374324357 1 I I #
face $-1 $-1 $608 $60 $-1 $609 reversed single #
loop $-1 $-1 $277 $271 #
plane-surface $-1 0 0 15.385966566233487 0 0 1 1 0 0 forward_v I I I I #
coedge $-1 $610 $611 $612 $613 reversed $272 $-1 #
coedge $-1 $614 $274 $276 $434 forward $172 $-1 #
coedge $-1 $274 $614 $610 $615 forward $172 $-1 #
coedge $-1 $612 $277 $274 $431 forward $425 $-1 #
edge $-1 $437 -0.36567008941100987 $616 13.664377823638592 $430 $617 forward 7 unknown #
coedge $-1 $618 $619 $275 $433 forward $608 $-1 #
edge $-1 $620 -43.892758099930461 $436 -40.746471620816358 $432 $621 forward 7 unknown #
edge $-1 $437 -5.4853830094224119 $620 -1.7754109250068268e-014 $276 $622 forward 7 unknown #
coedge $-1 $277 $612 $618 $623 forward $425 $-1 #
vertex $-1 $278 $624 #
vertex $-1 $278 $625 #
straight-curve $-1 -65.546253556779192 6.2836837777027821 15.385966566233485 1 0 0 I I #
coedge $-1 $439 $439 $-1 $626 reversed $281 $-1 #
edge $-1 $627 0 $627 6.2831853071796004 $282 $628 forward 7 unknown #
vertex $-1 $285 $629 #
ellipse-curve $-1 -58.807427978559083 9.089693360312701 13.812823326676433 -0.57357644374324357 0 0.81915203911291934 0.81915203911291934 0 0.57357644374324357 1 I I #
coedge $-1 $443 $443 $-1 $630 reversed $288 $-1 #
edge $-1 $631 0 $631 6.2831853071796004 $289 $632 forward 7 unknown #
vertex $-1 $292 $633 #
ellipse-curve $-1 -58.807427978559083 13.298707734227584 13.812823326676433 -0.57357644374324357 0 0.81915203911291934 0.81915203911291934 0 0.57357644374324357 1 I I #
coedge $-1 $447 $447 $-1 $634 reversed $295 $-1 #
edge $-1 $635 0 $635 6.2831853071796004 $296 $636 forward 7 unknown #
vertex $-1 $299 $637 #
ellipse-curve $-1 -58.807427978559083 17.507722108142467 13.812823326676433 -0.57357644374324357 0 0.81915203911291934 0.81915203911291934 0 0.57357644374324357 1 I I #
face $-1 $-1 $463 $64 $-1 $638 forward single #
loop $-1 $-1 $639 $300 #
plane-surface $-1 61.054109317300941 0 0 -1 0 0 0 0 1 forward_v I I I I #
coedge $-1 $640 $641 $642 $643 reversed $301 $-1 #
coedge $-1 $644 $303 $305 $461 forward $191 $-1 #
coedge $-1 $303 $644 $640 $645 forward $191 $-1 #
coedge $-1 $642 $306 $303 $458 forward $463 $-1 #
edge $-1 $465 4.0545099182078008 $646 15.640752673958326 $457 $647 forward 7 unknown #
coedge $-1 $648 $649 $304 $460 forward $452 $-1 #
edge $-1 $650 -84.203097040851318 $464 -69.324408136041981 $459 $651 forward 7 unknown #
edge $-1 $465 94.78977879956831 $650 122.10821863460187 $305 $652 forward 7 unknown #
coedge $-1 $306 $642 $648 $653 forward $463 $-1 #
loop $-1 $-1 $642 $451 #
vertex $-1 $460 $654 #
vertex $-1 $307 $655 #
straight-curve $-1 12.575222022987781 -13.902141214290864 15.385966566233492 -1 0 0 I I #
coedge $-1 $467 $467 $-1 $656 reversed $310 $-1 #
edge $-1 $657 0 $657 6.2831853071796004 $311 $658 forward 7 unknown #
vertex $-1 $314 $659 #
ellipse-curve $-1 49.598523654683632 -19.695262592166124 7.9466221138288322 0.54463904215088732 0 0.83867056331134215 1.2580058449670133 0 -0.81695856322633098 1 I I #
face $-1 $-1 $483 $66 $-1 $660 forward single #
loop $-1 $-1 $661 $315 #
plane-surface $-1 61.054109317300941 0 0 -1 0 0 0 0 1 forward_v I I I I #
coedge $-1 $662 $663 $664 $665 reversed $316 $-1 #
coedge $-1 $666 $318 $320 $481 forward $200 $-1 #
coedge $-1 $318 $666 $662 $667 forward $200 $-1 #
coedge $-1 $664 $321 $318 $478 forward $483 $-1 #
edge $-1 $485 -4.6051388717485002 $668 6.9811038840020245 $477 $669 forward 7 unknown #
coedge $-1 $670 $671 $319 $480 forward $472 $-1 #
edge $-1 $672 -84.203097040851318 $484 -69.324408136041981 $479 $673 forward 7 unknown #
edge $-1 $485 94.78977879956831 $672 122.10821863460187 $320 $674 forward 7 unknown #
coedge $-1 $321 $664 $670 $675 forward $483 $-1 #
loop $-1 $-1 $664 $471 #
vertex $-1 $480 $676 #
vertex $-1 $322 $677 #
straight-curve $-1 12.575222022987781 3.4171563656217385 15.385966566233492 -1 0 0 I I #
coedge $-1 $487 $487 $-1 $678 reversed $325 $-1 #
edge $-1 $679 0 $679 6.2831853071796004 $326 $680 forward 7 unknown #
vertex $-1 $329 $681 #
ellipse-curve $-1 49.598523654683632 -2.3759650122535163 7.9466221138288322 0.54463904215088732 0 0.83867056331134215 1.2580058449670133 0 -0.81695856322633098 1 I I #
face $-1 $-1 $503 $68 $-1 $682 forward single #
loop $-1 $-1 $683 $330 #
plane-surface $-1 61.054109317300941 0 0 -1 0 0 0 0 1 forward_v I I I I #
coedge $-1 $684 $685 $686 $687 reversed $331 $-1 #
coedge $-1 $688 $333 $335 $501 forward $209 $-1 #
coedge $-1 $333 $688 $684 $689 forward $209 $-1 #
coedge $-1 $686 $336 $333 $498 forward $503 $-1 #
edge $-1 $505 -13.264787661704805 $690 -1.6785449059542792 $497 $691 forward 7 unknown #
coedge $-1 $692 $693 $334 $500 forward $492 $-1 #
edge $-1 $694 -84.203097040851318 $504 -69.324408136041981 $499 $695 forward 7 unknown #
edge $-1 $505 94.78977879956831 $694 122.10821863460187 $335 $696 forward 7 unknown #
coedge $-1 $336 $686 $692 $697 forward $503 $-1 #
loop $-1 $-1 $686 $491 #
vertex $-1 $500 $698 #
vertex $-1 $337 $699 #
straight-curve $-1 12.575222022987781 20.736453945534347 15.385966566233492 -1 0 0 I I #
coedge $-1 $507 $507 $-1 $700 reversed $340 $-1 #
edge $-1 $701 0 $701 6.2831853071796004 $341 $702 forward 7 unknown #
vertex $-1 $344 $703 #
ellipse-curve $-1 49.598523654683632 14.943332567659091 7.9466221138288322 0.54463904215088732 0 0.83867056331134215 1.2580058449670133 0 -0.81695856322633098 1 I I #
face $-1 $-1 $523 $70 $-1 $704 forward single #
loop $-1 $-1 $705 $345 #
plane-surface $-1 61.054109317300941 0 0 -1 0 0 0 0 1 forward_v I I I I #
coedge $-1 $706 $707 $708 $709 reversed $346 $-1 #
coedge $-1 $710 $348 $350 $521 forward $218 $-1 #
coedge $-1 $348 $710 $706 $711 forward $218 $-1 #
coedge $-1 $708 $351 $348 $518 forward $523 $-1 #
edge $-1 $525 -21.924436451661105 $712 -10.338193695910583 $517 $713 forward 7 unknown #
coedge $-1 $714 $715 $349 $520 forward $512 $-1 #
edge $-1 $716 -84.203097040851318 $524 -69.324408136041981 $519 $717 forward 7 unknown #
edge $-1 $525 94.78977879956831 $716 122.10821863460187 $350 $718 forward 7 unknown #
coedge $-1 $351 $708 $714 $719 forward $523 $-1 #
loop $-1 $-1 $708 $511 #
vertex $-1 $520 $720 #
vertex $-1 $352 $721 #
straight-curve $-1 12.575222022987781 38.055751525446951 15.385966566233492 -1 0 0 I I #
coedge $-1 $527 $527 $-1 $722 reversed $355 $-1 #
edge $-1 $723 0 $723 6.2831853071796004 $356 $724 forward 7 unknown #
vertex $-1 $359 $725 #
ellipse-curve $-1 49.598523654683632 32.262630147571706 7.9466221138288322 0.54463904215088732 0 0.83867056331134215 1.2580058449670133 0 -0.81695856322633098 1 I I #
face $-1 $-1 $375 $54 $-1 $726 reversed single #
loop $-1 $-1 $547 $360 #
plane-surface $-1 0 40.307972534541086 0 0 -1 0 0 0 -1 forward_v I I I I #
coedge $-1 $727 $545 $548 $728 forward $361 $-1 #
coedge $-1 $551 $363 $364 $539 reversed $227 $-1 #
coedge $-1 $545 $727 $363 $537 reversed $361 $-1 #
edge $-1 $552 -15.385966566233487 $729 15.385966566233487 $536 $730 forward 7 unknown #
coedge $-1 $365 $364 $727 $731 forward $145 $-1 #
edge $-1 $543 -61.054109317300941 $729 61.054109317300941 $535 $732 forward 7 unknown #
coedge $-1 $548 $547 $365 $541 reversed $532 $-1 #
edge $-1 $733 -61.054109317300941 $542 61.054109317300941 $540 $734 forward 7 unknown #
vertex $-1 $367 $735 #
vertex $-1 $554 $736 #
straight-curve $-1 61.054109317300941 0 -15.385966566233487 0 -1 0 I I #
coedge $-1 $534 $536 $368 $546 reversed $361 $-1 #
edge $-1 $549 -40.307972534541086 $552 40.307972534541086 $545 $737 forward 7 unknown #
coedge $-1 $540 $369 $374 $555 forward $532 $-1 #
coedge $-1 $369 $540 $534 $728 reversed $532 $-1 #
vertex $-1 $370 $738 #
straight-curve $-1 0 40.307972534541086 15.385966566233487 -1 0 0 I I #
coedge $-1 $371 $535 $373 $554 reversed $227 $-1 #
vertex $-1 $546 $739 #
straight-curve $-1 0 -40.307972534541086 15.385966566233487 1 0 0 I I #
edge $-1 $376 -15.385966566233487 $543 15.385966566233487 $373 $740 forward 7 unknown #
edge $-1 $377 -15.385966566233487 $542 15.385966566233487 $374 $741 forward 7 unknown #
point $-1 61.054109317300941 -40.307972534541086 15.385966566233487 #
point $-1 61.054109317300941 40.307972534541086 15.385966566233487 #
face $-1 $-1 $392 $55 $-1 $742 reversed single #
loop $-1 $-1 $565 $379 #
plane-surface $-1 0 0 15.385966566233487 0 0 1 1 0 0 forward_v I I I I #
coedge $-1 $743 $382 $387 $570 forward $235 $-1 #
coedge $-1 $382 $743 $744 $745 reversed $235 $-1 #
coedge $-1 $384 $383 $382 $564 reversed $149 $-1 #
edge $-1 $746 -8.7235899519572691 $575 -4.6011632765951598 $382 $747 forward 7 unknown #
coedge $-1 $744 $748 $384 $566 forward $559 $-1 #
edge $-1 $568 -61.054109317300941 $746 61.054109317300941 $565 $749 forward 7 unknown #
coedge $-1 $391 $385 $748 $750 reversed $392 $-1 #
vertex $-1 $386 $751 #
straight-curve $-1 61.054109317300941 -27.740604979135519 6.6623766142762149 0 0 1 I I #
edge $-1 $575 10.728460600716367 $573 23.295828156121935 $561 $752 forward 7 unknown #
coedge $-1 $753 $388 $391 $577 reversed $380 $-1 #
coedge $-1 $388 $753 $743 $754 forward $380 $-1 #
vertex $-1 $389 $755 #
straight-curve $-1 0 -40.307972534541086 11.263539890871375 1 0 0 I I #
vertex $-1 $570 $756 #
straight-curve $-1 0 -27.740604979135519 11.263539890871375 1 0 0 I I #
edge $-1 $757 -15.385966566233487 $393 -11.263539890871375 $391 $758 forward 7 unknown #
point $-1 61.054109317300941 -40.307972534541086 11.263539890871375 #
point $-1 61.054109317300941 -27.740604979135519 11.263539890871375 #
plane-surface $-1 -61.054109317300941 0 0 1 0 0 0 0 -1 forward_v I I I I #
coedge $-1 $404 $759 $585 $760 forward $397 $-1 #
coedge $-1 $583 $399 $759 $761 reversed $243 $-1 #
coedge $-1 $399 $582 $586 $762 reversed $243 $-1 #
edge $-1 $587 -25.317485268577308 $763 -19.832102259154915 $399 $764 forward 7 unknown #
coedge $-1 $401 $400 $581 $760 reversed $153 $-1 #
coedge $-1 $407 $402 $583 $762 forward $408 $-1 #
vertex $-1 $762 $765 #
straight-curve $-1 -61.054109317300941 -10.362790511305359 12.239680087119376 0 -1 0 I I #
coedge $-1 $759 $404 $407 $593 forward $397 $-1 #
vertex $-1 $405 $766 #
straight-curve $-1 -65.546253556779192 -13.710557066085917 15.385966566233485 -1 0 0 I I #
straight-curve $-1 -61.054109317300956 -13.710557066085917 12.239680087119368 0.81915203911291934 0 0.57357644374324357 I I #
edge $-1 $409 13.710557066085917 $767 27.740604979135519 $407 $768 forward 7 unknown #
point $-1 -61.054109317300941 -13.710557066085917 15.385966566233487 #
point $-1 -61.054109317300941 -13.710557066085917 12.239680087119378 #
edge $-1 $769 1 $769 0 $412 $-1 forward 7 unknown #
vertex $-1 $413 $770 #
ellipse-curve $-1 -56.608802883584289 -24.934595396525598 10.672861340023363 -0.57357644374324357 0 0.81915203911291934 0.81915203911291934 0 0.57357644374324357 1 I I #
point $-1 -57.988275939446154 -24.934595396525598 14.386399770419668 #
edge $-1 $771 1 $771 0 $416 $-1 forward 7 unknown #
vertex $-1 $417 $772 #
ellipse-curve $-1 -56.608802883584289 -20.725581022610719 10.672861340023363 -0.57357644374324357 0 0.81915203911291934 0.81915203911291934 0 0.57357644374324357 1 I I #
point $-1 -57.988275939446154 -20.725581022610719 14.386399770419668 #
edge $-1 $773 1 $773 0 $420 $-1 forward 7 unknown #
vertex $-1 $421 $774 #
ellipse-curve $-1 -56.608802883584289 -16.516566648695836 10.672861340023363 -0.57357644374324357 0 0.81915203911291934 0.81915203911291934 0 0.57357644374324357 1 I I #
point $-1 -57.988275939446154 -16.516566648695836 14.386399770419668 #
loop $-1 $-1 $432 $424 #
plane-surface $-1 -61.054109317300941 0 0 1 0 0 0 0 -1 forward_v I I I I #
coedge $-1 $611 $427 $429 $615 reversed $272 $-1 #
coedge $-1 $427 $610 $775 $776 reversed $272 $-1 #
coedge $-1 $435 $430 $427 $613 forward $425 $-1 #
edge $-1 $616 -8.9855069169619668 $777 -4.4921442394782503 $612 $778 forward 7 unknown #
coedge $-1 $429 $428 $619 $779 reversed $172 $-1 #
edge $-1 $780 1.7754109250068268e-014 $616 5.4853830094224119 $610 $781 forward 7 unknown #
vertex $-1 $431 $782 #
straight-curve $-1 -56.560746639817211 6.6493538671137919 15.385966566233488 0 1 0 I I #
coedge $-1 $775 $432 $435 $623 reversed $608 $-1 #
coedge $-1 $432 $775 $614 $779 forward $608 $-1 #
vertex $-1 $433 $783 #
straight-curve $-1 -61.054109317300941 6.2836837777027821 56.132438187049843 0 0 1 I I #
straight-curve $-1 -61.054109317300956 6.2836837777027821 12.239680087119368 -0.81915203911291934 0 -0.57357644374324357 I I #
edge $-1 $777 -20.313731690752384 $436 -6.2836837777027821 $618 $784 forward 7 unknown #
point $-1 -61.054109317300941 6.2836837777027821 15.385966566233487 #
point $-1 -56.560746639817225 6.2836837777027821 15.385966566233487 #
edge $-1 $785 1 $785 0 $439 $-1 forward 7 unknown #
vertex $-1 $440 $786 #
ellipse-curve $-1 -56.608802883584289 9.089693360312701 10.672861340023363 -0.57357644374324357 0 0.81915203911291934 0.81915203911291934 0 0.57357644374324357 1 I I #
point $-1 -57.988275939446154 9.089693360312701 14.386399770419668 #
edge $-1 $787 1 $787 0 $443 $-1 forward 7 unknown #
vertex $-1 $444 $788 #
ellipse-curve $-1 -56.608802883584289 13.298707734227584 10.672861340023363 -0.57357644374324357 0 0.81915203911291934 0.81915203911291934 0 0.57357644374324357 1 I I #
point $-1 -57.988275939446154 13.298707734227584 14.386399770419668 #
edge $-1 $789 1 $789 0 $447 $-1 forward 7 unknown #
vertex $-1 $448 $790 #
ellipse-curve $-1 -56.608802883584289 17.507722108142467 10.672861340023363 -0.57357644374324357 0 0.81915203911291934 0.81915203911291934 0 0.57357644374324357 1 I I #
point $-1 -57.988275939446154 17.507722108142467 14.386399770419668 #
plane-surface $-1 0 0 15.385966566233487 0 0 1 1 0 0 forward_v I I I I #
coedge $-1 $649 $648 $641 $791 forward $452 $-1 #
coedge $-1 $641 $454 $456 $645 reversed $301 $-1 #
coedge $-1 $454 $640 $639 $791 reversed $301 $-1 #
coedge $-1 $462 $457 $454 $643 forward $463 $-1 #
edge $-1 $646 25.567715969078556 $792 48.478887294313161 $642 $793 forward 7 unknown #
coedge $-1 $456 $455 $649 $794 reversed $191 $-1 #
edge $-1 $795 -122.10821863460187 $646 -94.78977879956831 $640 $796 forward 7 unknown #
vertex $-1 $458 $797 #
straight-curve $-1 38.142937992066337 -9.8476312960830636 15.385966566233485 0 -1 0 I I #
coedge $-1 $639 $459 $462 $653 reversed $452 $-1 #
coedge $-1 $459 $639 $644 $794 forward $452 $-1 #
vertex $-1 $460 $798 #
straight-curve $-1 61.054109317300941 -13.902141214290864 84.710374702275473 0 0 1 I I #
straight-curve $-1 -41.354459189925137 -13.902141214290864 67.012180897324853 0.83867056331134215 0 -0.54463904215088732 I I #
edge $-1 $792 -25.48838397004139 $464 -13.902141214290864 $648 $799 forward 7 unknown #
point $-1 61.054109317300941 -13.902141214290864 15.385966566233487 #
point $-1 38.142937992066337 -13.902141214290864 15.385966566233485 #
edge $-1 $800 1 $800 0 $467 $-1 forward 7 unknown #
vertex $-1 $468 $801 #
ellipse-curve $-1 48.036137462338345 -19.695262592166124 5.5407584011038971 0.54463904215088732 0 0.83867056331134215 1.2580058449670133 0 -0.81695856322633098 1 I I #
point $-1 50.856529499650641 -19.695262592166124 7.1296635506024995 #
plane-surface $-1 0 0 15.385966566233487 0 0 1 1 0 0 forward_v I I I I #
coedge $-1 $671 $670 $663 $802 forward $472 $-1 #
coedge $-1 $663 $474 $476 $667 reversed $316 $-1 #
coedge $-1 $474 $662 $661 $802 reversed $316 $-1 #
coedge $-1 $482 $477 $474 $665 forward $483 $-1 #
edge $-1 $668 25.567715969078556 $803 48.478887294313161 $664 $804 forward 7 unknown #
coedge $-1 $476 $475 $671 $805 reversed $200 $-1 #
edge $-1 $806 -122.10821863460187 $668 -94.78977879956831 $662 $807 forward 7 unknown #
vertex $-1 $478 $808 #
straight-curve $-1 38.142937992066337 -1.1879825061267617 15.385966566233485 0 -1 0 I I #
coedge $-1 $661 $479 $482 $675 reversed $472 $-1 #
coedge $-1 $479 $661 $666 $805 forward $472 $-1 #
vertex $-1 $480 $809 #
straight-curve $-1 61.054109317300941 3.4171563656217385 84.710374702275473 0 0 1 I I #
straight-curve $-1 -41.354459189925137 3.4171563656217385 67.012180897324853 0.83867056331134215 0 -0.54463904215088732 I I #
edge $-1 $803 -8.1690863901287862 $484 3.4171563656217385 $670 $810 forward 7 unknown #
point $-1 61.054109317300941 3.4171563656217385 15.385966566233487 #
point $-1 38.142937992066337 3.4171563656217385 15.385966566233485 #
edge $-1 $811 1 $811 0 $487 $-1 forward 7 unknown #
vertex $-1 $488 $812 #
ellipse-curve $-1 48.036137462338345 -2.3759650122535163 5.5407584011038971 0.54463904215088732 0 0.83867056331134215 1.2580058449670133 0 -0.81695856322633098 1 I I #
point $-1 50.856529499650641 -2.3759650122535163 7.1296635506024995 #
plane-surface $-1 0 0 15.385966566233487 0 0 1 1 0 0 forward_v I I I I #
coedge $-1 $693 $692 $685 $813 forward $492 $-1 #
coedge $-1 $685 $494 $496 $689 reversed $331 $-1 #
coedge $-1 $494 $684 $683 $813 reversed $331 $-1 #
coedge $-1 $502 $497 $494 $687 forward $503 $-1 #
edge $-1 $690 25.567715969078556 $814 48.478887294313161 $686 $815 forward 7 unknown #
coedge $-1 $496 $495 $693 $816 reversed $209 $-1 #
edge $-1 $817 -122.10821863460187 $690 -94.78977879956831 $684 $818 forward 7 unknown #
vertex $-1 $498 $819 #
straight-curve $-1 38.142937992066337 7.471666283829542 15.385966566233485 0 -1 0 I I #
coedge $-1 $683 $499 $502 $697 reversed $492 $-1 #
coedge $-1 $499 $683 $688 $816 forward $492 $-1 #
vertex $-1 $500 $820 #
straight-curve $-1 61.054109317300941 20.736453945534347 84.710374702275473 0 0 1 I I #
straight-curve $-1 -41.354459189925137 20.736453945534347 67.012180897324853 0.83867056331134215 0 -0.54463904215088732 I I #
edge $-1 $814 9.1502111897838212 $504 20.736453945534347 $692 $821 forward 7 unknown #
point $-1 61.054109317300941 20.736453945534347 15.385966566233487 #
point $-1 38.142937992066337 20.736453945534347 15.385966566233485 #
edge $-1 $822 1 $822 0 $507 $-1 forward 7 unknown #
vertex $-1 $508 $823 #
ellipse-curve $-1 48.036137462338345 14.943332567659091 5.5407584011038971 0.54463904215088732 0 0.83867056331134215 1.2580058449670133 0 -0.81695856322633098 1 I I #
point $-1 50.856529499650641 14.943332567659091 7.1296635506024995 #
plane-surface $-1 0 0 15.385966566233487 0 0 1 1 0 0 forward_v I I I I #
coedge $-1 $715 $714 $707 $824 forward $512 $-1 #
coedge $-1 $707 $514 $516 $711 reversed $346 $-1 #
coedge $-1 $514 $706 $705 $824 reversed $346 $-1 #
coedge $-1 $522 $517 $514 $709 forward $523 $-1 #
edge $-1 $712 25.567715969078556 $825 48.478887294313161 $708 $826 forward 7 unknown #
coedge $-1 $516 $515 $715 $827 reversed $218 $-1 #
edge $-1 $828 -122.10821863460187 $712 -94.78977879956831 $706 $829 forward 7 unknown #
vertex $-1 $518 $830 #
straight-curve $-1 38.142937992066337 16.131315073785846 15.385966566233485 0 -1 0 I I #
coedge $-1 $705 $519 $522 $719 reversed $512 $-1 #
coedge $-1 $519 $705 $710 $827 forward $512 $-1 #
vertex $-1 $520 $831 #
straight-curve $-1 61.054109317300941 38.055751525446951 84.710374702275473 0 0 1 I I #
straight-curve $-1 -41.354459189925137 38.055751525446951 67.012180897324853 0.83867056331134215 0 -0.54463904215088732 I I #
edge $-1 $825 26.469508769696429 $524 38.055751525446951 $714 $832 forward 7 unknown #
point $-1 61.054109317300941 38.055751525446951 15.385966566233487 #
point $-1 38.142937992066337 38.055751525446951 15.385966566233485 #
edge $-1 $833 1 $833 0 $527 $-1 forward 7 unknown #
vertex $-1 $528 $834 #
ellipse-curve $-1 48.036137462338345 32.262630147571706 5.5407584011038971 0.54463904215088732 0 0.83867056331134215 1.2580058449670133 0 -0.81695856322633098 1 I I #
point $-1 50.856529499650641 32.262630147571706 7.1296635506024995 #
plane-surface $-1 61.054109317300941 0 0 -1 0 0 0 0 1 forward_v I I I I #
coedge $-1 $536 $534 $538 $731 reversed $361 $-1 #
edge $-1 $549 -15.385966566233487 $733 15.385966566233487 $548 $835 forward 7 unknown #
vertex $-1 $731 $836 #
straight-curve $-1 -61.054109317300941 -40.307972534541086 0 0 0 -1 I I #
edge $-1 $729 -40.307972534541086 $733 40.307972534541086 $727 $837 forward 7 unknown #
straight-curve $-1 0 -40.307972534541086 -15.385966566233487 -1 0 0 I I #
vertex $-1 $541 $838 #
straight-curve $-1 0 40.307972534541086 -15.385966566233487 1 0 0 I I #
point $-1 61.054109317300941 40.307972534541086 -15.385966566233487 #
point $-1 61.054109317300941 -40.307972534541086 -15.385966566233487 #
straight-curve $-1 -61.054109317300941 0 15.385966566233487 0 -1 0 I I #
point $-1 -61.054109317300941 40.307972534541086 15.385966566233487 #
point $-1 -61.054109317300941 -40.307972534541086 15.385966566233487 #
straight-curve $-1 61.054109317300941 -40.307972534541086 0 0 0 -1 I I #
straight-curve $-1 61.054109317300941 40.307972534541086 0 0 0 -1 I I #
plane-surface $-1 61.054109317300941 0 0 -1 0 0 0 0 1 forward_v I I I I #
coedge $-1 $562 $561 $572 $754 reversed $235 $-1 #
coedge $-1 $839 $565 $562 $745 forward $559 $-1 #
edge $-1 $746 27.740604979135519 $840 40.307972534541086 $562 $841 forward 7 unknown #
vertex $-1 $745 $842 #
straight-curve $-1 -61.054109317300941 -27.740604979135519 6.6623766142762149 0 0 -1 I I #
coedge $-1 $565 $839 $567 $750 forward $559 $-1 #
straight-curve $-1 0 -27.740604979135519 15.385966566233487 -1 0 0 I I #
edge $-1 $757 -40.307972534541086 $568 -27.740604979135519 $567 $843 forward 7 unknown #
point $-1 61.054109317300941 -27.740604979135519 15.385966566233485 #
straight-curve $-1 -61.054109317300941 -17.012144378419151 11.263539890871375 0 -1 0 I I #
coedge $-1 $572 $571 $839 $844 reversed $380 $-1 #
edge $-1 $840 -15.385966566233487 $573 -11.263539890871375 $743 $845 forward 7 unknown #
point $-1 -61.054109317300941 -40.307972534541086 11.263539890871375 #
point $-1 -61.054109317300941 -27.740604979135519 11.263539890871375 #
vertex $-1 $750 $846 #
straight-curve $-1 61.054109317300941 -40.307972534541086 0 0 0 -1 I I #
coedge $-1 $581 $589 $582 $761 forward $397 $-1 #
edge $-1 $763 -17.377814467830159 $590 -3.3477665547805575 $581 $847 forward 7 unknown #
edge $-1 $767 -61.054109317300941 $763 -56.560746639817225 $759 $848 forward 7 unknown #
edge $-1 $587 5.5773034728431616 $767 8.7235899519572691 $586 $849 forward 7 unknown #
vertex $-1 $584 $850 #
straight-curve $-1 -40.315239634334546 -27.740604979135519 26.761193251991912 0.81915203911291934 0 0.57357644374324357 I I #
point $-1 -61.054109317300941 -27.740604979135519 12.239680087119376 #
point $-1 -56.560746639817225 -13.710557066085917 15.385966566233487 #
vertex $-1 $762 $851 #
straight-curve $-1 -61.054109317300941 0 15.385966566233487 0 -1 0 I I #
vertex $-1 $596 $852 #
point $-1 -55.789650844471367 -24.934595396525598 11.246437783766607 #
vertex $-1 $600 $853 #
point $-1 -55.789650844471367 -20.725581022610719 11.246437783766607 #
vertex $-1 $604 $854 #
point $-1 -55.789650844471367 -16.516566648695836 11.246437783766607 #
coedge $-1 $619 $618 $611 $776 forward $608 $-1 #
edge $-1 $777 40.746471620816358 $780 43.892758099930461 $775 $855 forward 7 unknown #
vertex $-1 $623 $856 #
straight-curve $-1 -65.546253556779192 20.313731690752384 15.385966566233485 -1 0 0 I I #
edge $-1 $780 -13.664377823638592 $620 0.36567008941100987 $619 $857 forward 7 unknown #
vertex $-1 $779 $858 #
straight-curve $-1 -61.054109317300956 20.313731690752384 12.239680087119368 0.81915203911291934 0 0.57357644374324357 I I #
point $-1 -56.560746639817225 20.313731690752384 15.385966566233487 #
point $-1 -61.054109317300941 6.2836837777027821 12.239680087119378 #
straight-curve $-1 -61.054109317300941 0 15.385966566233487 0 -1 0 I I #
vertex $-1 $626 $859 #
point $-1 -55.789650844471367 9.089693360312701 11.246437783766607 #
vertex $-1 $630 $860 #
point $-1 -55.789650844471367 13.298707734227584 11.246437783766607 #
vertex $-1 $634 $861 #
point $-1 -55.789650844471367 17.507722108142467 11.246437783766607 #
edge $-1 $792 69.324408136041981 $795 84.203097040851318 $639 $862 forward 7 unknown #
vertex $-1 $653 $863 #
straight-curve $-1 12.575222022987781 -25.48838397004139 15.385966566233492 1 0 0 I I #
edge $-1 $795 -15.640752673958326 $650 -4.0545099182078008 $649 $864 forward 7 unknown #
vertex $-1 $794 $865 #
straight-curve $-1 -41.354459189925137 -25.48838397004139 67.012180897324853 -0.83867056331134215 0 0.54463904215088732 I I #
point $-1 38.142937992066337 -25.48838397004139 15.385966566233485 #
point $-1 61.054109317300941 -13.902141214290864 0.50727766142415476 #
straight-curve $-1 61.054109317300941 0 15.385966566233487 0 1 0 I I #
vertex $-1 $656 $866 #
point $-1 49.294143307305355 -19.695262592166124 4.7237998378775661 #
edge $-1 $803 69.324408136041981 $806 84.203097040851318 $661 $867 forward 7 unknown #
vertex $-1 $675 $868 #
straight-curve $-1 12.575222022987781 -8.1690863901287862 15.385966566233492 1 0 0 I I #
edge $-1 $806 -6.9811038840020245 $672 4.6051388717485002 $671 $869 forward 7 unknown #
vertex $-1 $805 $870 #
straight-curve $-1 -41.354459189925137 -8.1690863901287862 67.012180897324853 -0.83867056331134215 0 0.54463904215088732 I I #
point $-1 38.142937992066337 -8.1690863901287862 15.385966566233485 #
point $-1 61.054109317300941 3.4171563656217385 0.50727766142415476 #
straight-curve $-1 61.054109317300941 0 15.385966566233487 0 1 0 I I #
vertex $-1 $678 $871 #
point $-1 49.294143307305355 -2.3759650122535163 4.7237998378775661 #
edge $-1 $814 69.324408136041981 $817 84.203097040851318 $683 $872 forward 7 unknown #
vertex $-1 $697 $873 #
straight-curve $-1 12.575222022987781 9.1502111897838212 15.385966566233492 1 0 0 I I #
edge $-1 $817 1.6785449059542792 $694 13.264787661704805 $693 $874 forward 7 unknown #
vertex $-1 $816 $875 #
straight-curve $-1 -41.354459189925137 9.1502111897838212 67.012180897324853 -0.83867056331134215 0 0.54463904215088732 I I #
point $-1 38.142937992066337 9.1502111897838212 15.385966566233485 #
point $-1 61.054109317300941 20.736453945534347 0.50727766142415476 #
straight-curve $-1 61.054109317300941 0 15.385966566233487 0 1 0 I I #
vertex $-1 $700 $876 #
point $-1 49.294143307305355 14.943332567659091 4.7237998378775661 #
edge $-1 $825 69.324408136041981 $828 84.203097040851318 $705 $877 forward 7 unknown #
vertex $-1 $719 $878 #
straight-curve $-1 12.575222022987781 26.469508769696429 15.385966566233492 1 0 0 I I #
edge $-1 $828 10.338193695910583 $716 21.924436451661105 $715 $879 forward 7 unknown #
vertex $-1 $827 $880 #
straight-curve $-1 -41.354459189925137 26.469508769696429 67.012180897324853 -0.83867056331134215 0 0.54463904215088732 I I #
point $-1 38.142937992066337 26.469508769696429 15.385966566233485 #
point $-1 61.054109317300941 38.055751525446951 0.50727766142415476 #
straight-curve $-1 61.054109317300941 0 15.385966566233487 0 1 0 I I #
vertex $-1 $722 $881 #
point $-1 49.294143307305355 32.262630147571706 4.7237998378775661 #
straight-curve $-1 -61.054109317300941 40.307972534541086 0 0 0 -1 I I #
point $-1 -61.054109317300941 -40.307972534541086 -15.385966566233487 #
straight-curve $-1 -61.054109317300941 0 -15.385966566233487 0 1 0 I I #
point $-1 -61.054109317300941 40.307972534541086 -15.385966566233487 #
coedge $-1 $748 $744 $753 $844 forward $559 $-1 #
vertex $-1 $745 $882 #
straight-curve $-1 -61.054109317300941 0 15.385966566233487 0 -1 0 I I #
point $-1 -61.054109317300941 -27.740604979135519 15.385966566233485 #
straight-curve $-1 61.054109317300941 0 15.385966566233487 0 1 0 I I #
edge $-1 $840 -61.054109317300941 $757 61.054109317300941 $753 $883 forward 7 unknown #
straight-curve $-1 -61.054109317300941 -40.307972534541086 0 0 0 -1 I I #
point $-1 61.054109317300941 -40.307972534541086 15.385966566233487 #
straight-curve $-1 -56.560746639817211 -10.362790511305359 15.385966566233488 0 1 0 I I #
straight-curve $-1 0 -27.740604979135519 15.385966566233487 1 0 0 I I #
straight-curve $-1 -61.054109317300941 -27.740604979135519 6.6623766142762149 0 0 1 I I #
point $-1 -56.560746639817225 -27.740604979135519 15.385966566233487 #
point $-1 -61.054109317300941 -27.740604979135519 15.385966566233485 #
point $-1 -56.03522643984104 -24.934595396525598 9.8537093009104453 #
point $-1 -56.03522643984104 -20.725581022610719 9.8537093009104453 #
point $-1 -56.03522643984104 -16.516566648695836 9.8537093009104453 #
straight-curve $-1 -61.054109317300941 20.313731690752384 56.132438187049843 0 0 -1 I I #
point $-1 -61.054109317300941 20.313731690752384 15.385966566233487 #
straight-curve $-1 -61.054109317300941 6.6493538671137919 12.239680087119376 0 -1 0 I I #
point $-1 -61.054109317300941 20.313731690752384 12.239680087119378 #
point $-1 -56.03522643984104 9.089693360312701 9.8537093009104453 #
point $-1 -56.03522643984104 13.298707734227584 9.8537093009104453 #
point $-1 -56.03522643984104 17.507722108142467 9.8537093009104453 #
straight-curve $-1 61.054109317300941 -25.48838397004139 84.710374702275473 0 0 -1 I I #
point $-1 61.054109317300941 -25.48838397004139 15.385966566233487 #
straight-curve $-1 61.054109317300941 -9.8476312960830636 0.50727766142416897 0 1 0 I I #
point $-1 61.054109317300941 -25.48838397004139 0.50727766142415476 #
point $-1 47.219178899112009 -19.695262592166124 4.2827525561368844 #
straight-curve $-1 61.054109317300941 -8.1690863901287862 84.710374702275473 0 0 -1 I I #
point $-1 61.054109317300941 -8.1690863901287862 15.385966566233487 #
straight-curve $-1 61.054109317300941 -1.1879825061267617 0.50727766142416897 0 1 0 I I #
point $-1 61.054109317300941 -8.1690863901287862 0.50727766142415476 #
point $-1 47.219178899112009 -2.3759650122535163 4.2827525561368844 #
straight-curve $-1 61.054109317300941 9.1502111897838212 84.710374702275473 0 0 -1 I I #
point $-1 61.054109317300941 9.1502111897838212 15.385966566233487 #
straight-curve $-1 61.054109317300941 7.471666283829542 0.50727766142416897 0 1 0 I I #
point $-1 61.054109317300941 9.1502111897838212 0.50727766142415476 #
point $-1 47.219178899112009 14.943332567659091 4.2827525561368844 #
straight-curve $-1 61.054109317300941 26.469508769696429 84.710374702275473 0 0 -1 I I #
point $-1 61.054109317300941 26.469508769696429 15.385966566233487 #
straight-curve $-1 61.054109317300941 16.131315073785846 0.50727766142416897 0 1 0 I I #
point $-1 61.054109317300941 26.469508769696429 0.50727766142415476 #
point $-1 47.219178899112009 32.262630147571706 4.2827525561368844 #
point $-1 -61.054109317300941 -40.307972534541086 15.385966566233487 #
straight-curve $-1 0 -40.307972534541086 15.385966566233487 1 0 0 I I #
End-of-ACIS-data 