500 0 6 0           
7 Unknown 11 ACIS 5.0 NT 24 Thu Mar 25 19:31:21 1999 
-1 9.9999999999999995e-007 1e-010 
body $-1 $6 $-1 $7 #
body $-1 $8 $-1 $9 #
body $-1 $10 $-1 $11 #
body $-1 $12 $-1 $13 #
body $-1 $14 $-1 $15 #
body $-1 $16 $-1 $17 #
lump $-1 $-1 $18 $0 #
transform $-1 1 0 0 0 1 0 0 0 1 68.93520920438246 38.902414655074864 9.3861113248112691 1 rotate no_reflect no_shear #
lump $-1 $-1 $19 $1 #
transform $-1 1 0 0 0 1 0 0 0 1 68.93520920438246 38.902414655074864 9.3861113248112691 1 rotate no_reflect no_shear #
lump $-1 $-1 $20 $2 #
transform $-1 1 0 0 0 1 0 0 0 1 68.93520920438246 38.902414655074864 9.3861113248112691 1 rotate no_reflect no_shear #
lump $-1 $-1 $21 $3 #
transform $-1 1 0 0 0 1 0 0 0 1 68.93520920438246 38.902414655074864 9.3861113248112691 1 rotate no_reflect no_shear #
lump $-1 $-1 $22 $4 #
transform $-1 1 0 0 0 1 0 0 0 1 68.93520920438246 38.902414655074864 9.3861113248112691 1 rotate no_reflect no_shear #
lump $-1 $-1 $23 $5 #
transform $-1 1 0 0 0 1 0 0 0 1 68.93520920438246 38.902414655074864 9.3861113248112691 1 rotate no_reflect no_shear #
shell $-1 $-1 $-1 $24 $-1 $6 #
shell $-1 $-1 $-1 $25 $-1 $8 #
shell $-1 $-1 $-1 $26 $-1 $10 #
shell $-1 $-1 $-1 $27 $-1 $12 #
shell $-1 $-1 $-1 $28 $-1 $14 #
shell $-1 $-1 $-1 $29 $-1 $16 #
face $-1 $30 $31 $18 $-1 $32 forward single #
face $-1 $33 $34 $19 $-1 $35 reversed single #
face $-1 $36 $37 $20 $-1 $38 forward single #
face $-1 $39 $40 $21 $-1 $41 reversed single #
face $-1 $42 $43 $22 $-1 $44 forward single #
face $-1 $45 $46 $23 $-1 $47 forward single #
face $-1 $48 $49 $18 $-1 $50 reversed single #
loop $-1 $-1 $51 $24 #
plane-surface $-1 0 0 9.3861113248112691 0 0 1 1 0 0 forward_v I I I I #
face $-1 $52 $53 $19 $-1 $54 reversed single #
loop $-1 $-1 $55 $25 #
plane-surface $-1 -64.791077921130722 0 5.4516042447974531 0 0 1 1 0 0 forward_v I I I I #
face $-1 $56 $57 $20 $-1 $58 reversed single #
loop $-1 $-1 $59 $26 #
plane-surface $-1 65.478678535965884 0 5.2975692188542443 0 0 1 1 0 0 forward_v I I I I #
face $-1 $60 $61 $21 $-1 $62 reversed single #
loop $-1 $-1 $63 $27 #
plane-surface $-1 14.050192023073297 91.909981374115006 152.35205697601435 -1 0 0 0 0.75470958851134928 0.65605901945558964 forward_v I I I I #
face $-1 $64 $65 $22 $-1 $66 forward single #
loop $-1 $67 $68 $28 #
cone-surface $-1 -6.81573169232216 35.045318062573799 5.2750928634309506 0 -0.75470958851134928 -0.65605901945558964 1.5 0 0 1 I I 0 1 1.5 forward I I I I #
face $-1 $69 $70 $23 $-1 $71 forward single #
loop $-1 $72 $73 $29 #
cone-surface $-1 5.7038225369151121 35.045318062573799 5.2750928634309506 0 -0.75470958851134928 -0.65605901945558964 1.5 0 0 1 I I 0 1 1.5 forward I I I I #
face $-1 $74 $75 $18 $-1 $76 reversed single #
loop $-1 $-1 $77 $30 #
plane-surface $-1 0 0 -9.3861113248112691 0 0 1 1 0 0 forward_v I I I I #
coedge $-1 $78 $79 $80 $81 forward $31 $-1 #
face $-1 $82 $83 $19 $-1 $84 reversed single #
loop $-1 $-1 $85 $33 #
plane-surface $-1 -60.646946637878983 0 7.4188577848043611 -1 0 0 0 0 1 forward_v I I I I #
coedge $-1 $86 $87 $88 $89 forward $34 $-1 #
face $-1 $90 $91 $20 $-1 $92 reversed single #
loop $-1 $-1 $93 $36 #
plane-surface $-1 65.478678535965884 0 2.2975692188542443 0 0 1 1 0 0 forward_v I I I I #
coedge $-1 $94 $95 $96 $97 reversed $37 $-1 #
face $-1 $98 $99 $21 $-1 $100 reversed single #
loop $-1 $-1 $101 $39 #
plane-surface $-1 -0.55595457770351686 -12.142145371051527 61.90092546282817 0 0.75470958851134928 0.65605901945558964 1 0 0 forward_v I I I I #
coedge $-1 $102 $103 $104 $105 reversed $40 $-1 #
face $-1 $-1 $106 $22 $-1 $107 forward single #
loop $-1 $108 $109 $42 #
cone-surface $-1 -6.81573169232216 33.319254139631795 3.7746484248799117 0 -0.75470958851134928 -0.65605901945558964 0.75 0 0 1 I I -0.70710678118654757 0.70710678118654757 0.75 forward I I I I #
loop $-1 $-1 $110 $28 #
coedge $-1 $68 $68 $111 $112 reversed $43 $-1 #
face $-1 $-1 $113 $23 $-1 $114 forward single #
loop $-1 $115 $116 $45 #
cone-surface $-1 5.7038225369151121 33.319254139631795 3.7746484248799117 0 -0.75470958851134928 -0.65605901945558964 0.75 0 0 1 I I -0.70710678118654757 0.70710678118654757 0.75 forward I I I I #
loop $-1 $-1 $117 $29 #
coedge $-1 $73 $73 $118 $119 reversed $46 $-1 #
face $-1 $120 $121 $18 $-1 $122 reversed single #
loop $-1 $-1 $123 $48 #
plane-surface $-1 0 -38.902414655074864 0 0 1 0 0 0 1 forward_v I I I I #
coedge $-1 $124 $125 $126 $127 forward $49 $-1 #
coedge $-1 $128 $51 $129 $130 forward $31 $-1 #
coedge $-1 $51 $128 $131 $132 forward $31 $-1 #
coedge $-1 $133 $134 $51 $81 reversed $135 $-1 #
edge $-1 $136 -38.902414655074864 $137 38.902414655074864 $80 $138 forward 7 unknown #
face $-1 $139 $140 $19 $-1 $141 reversed single #
loop $-1 $-1 $142 $52 #
plane-surface $-1 0 38.902414655074864 0 0 -1 0 0 0 -1 forward_v I I I I #
coedge $-1 $88 $143 $144 $145 reversed $53 $-1 #
coedge $-1 $146 $55 $147 $148 reversed $34 $-1 #
coedge $-1 $55 $146 $149 $150 reversed $34 $-1 #
coedge $-1 $151 $85 $55 $89 reversed $53 $-1 #
edge $-1 $152 -38.902414655074864 $153 38.902414655074864 $88 $154 forward 7 unknown #
face $-1 $155 $156 $20 $-1 $157 reversed single #
loop $-1 $-1 $158 $56 #
plane-surface $-1 62.022147867549307 0 3.7975692188542443 1 0 0 0 0 -1 forward_v I I I I #
coedge $-1 $159 $160 $161 $162 reversed $57 $-1 #
coedge $-1 $163 $59 $164 $165 reversed $37 $-1 #
coedge $-1 $59 $163 $166 $167 reversed $37 $-1 #
coedge $-1 $168 $169 $59 $97 forward $170 $-1 #
edge $-1 $171 -38.902414655074864 $172 38.902414655074864 $96 $173 forward 7 unknown #
face $-1 $174 $175 $21 $-1 $176 reversed single #
loop $-1 $-1 $177 $60 #
plane-surface $-1 -15.162101178480331 91.909981374115006 152.35205697601435 1 0 0 0 -0.75470958851134928 -0.65605901945558964 forward_v I I I I #
coedge $-1 $178 $179 $180 $181 reversed $61 $-1 #
coedge $-1 $103 $63 $182 $183 reversed $40 $-1 #
coedge $-1 $63 $102 $178 $184 reversed $40 $-1 #
coedge $-1 $180 $185 $63 $105 forward $175 $-1 #
edge $-1 $186 66.789917163195909 $187 72.995153738037914 $104 $188 forward 7 unknown #
loop $-1 $-1 $111 $64 #
plane-surface $-1 -0.55595457770351686 -12.142145371051527 61.90092546282817 0 0.75470958851134928 0.65605901945558964 1 0 0 forward_v I I I I #
loop $-1 $-1 $189 $42 #
coedge $-1 $109 $109 $110 $190 reversed $65 $-1 #
coedge $-1 $110 $110 $109 $190 forward $67 $-1 #
coedge $-1 $111 $111 $68 $112 forward $106 $-1 #
edge $-1 $191 -2.7425424437364872e-015 $191 6.2831853071795978 $111 $192 forward 7 unknown #
loop $-1 $-1 $118 $69 #
plane-surface $-1 -0.55595457770351686 -12.142145371051527 61.90092546282817 0 0.75470958851134928 0.65605901945558964 1 0 0 forward_v I I I I #
loop $-1 $-1 $193 $45 #
coedge $-1 $116 $116 $117 $194 reversed $70 $-1 #
coedge $-1 $117 $117 $116 $194 forward $72 $-1 #
coedge $-1 $118 $118 $73 $119 forward $113 $-1 #
edge $-1 $195 -2.7425424437364872e-015 $195 6.2831853071795978 $118 $196 forward 7 unknown #
face $-1 $197 $198 $18 $-1 $199 reversed single #
loop $-1 $-1 $200 $74 #
plane-surface $-1 -68.93520920438246 0 0 1 0 0 0 0 -1 forward_v I I I I #
coedge $-1 $201 $131 $202 $203 forward $75 $-1 #
coedge $-1 $204 $77 $201 $205 forward $49 $-1 #
coedge $-1 $77 $204 $206 $207 forward $49 $-1 #
coedge $-1 $134 $133 $77 $127 reversed $135 $-1 #
edge $-1 $208 -38.902414655074864 $209 38.902414655074864 $126 $210 forward 7 unknown #
coedge $-1 $79 $78 $211 $212 forward $31 $-1 #
coedge $-1 $213 $214 $78 $130 reversed $198 $-1 #
edge $-1 $137 -68.93520920438246 $215 68.93520920438246 $129 $216 forward 7 unknown #
coedge $-1 $123 $217 $79 $132 reversed $75 $-1 #
edge $-1 $218 -68.93520920438246 $136 68.93520920438246 $131 $219 forward 7 unknown #
coedge $-1 $126 $80 $217 $220 forward $135 $-1 #
coedge $-1 $80 $126 $213 $221 reversed $135 $-1 #
loop $-1 $-1 $133 $197 #
vertex $-1 $81 $222 #
vertex $-1 $81 $223 #
straight-curve $-1 68.93520920438246 0 9.3861113248112691 0 1 0 I I #
face $-1 $224 $225 $19 $-1 $226 forward single #
loop $-1 $-1 $227 $82 #
plane-surface $-1 -68.93520920438246 0 0 1 0 0 0 0 -1 forward_v I I I I #
coedge $-1 $149 $228 $151 $229 forward $83 $-1 #
coedge $-1 $85 $151 $230 $231 reversed $53 $-1 #
coedge $-1 $232 $147 $85 $145 forward $233 $-1 #
edge $-1 $153 1.7421753523952725 $234 5.6766824324090885 $144 $235 forward 7 unknown #
coedge $-1 $87 $86 $227 $236 reversed $34 $-1 #
coedge $-1 $144 $237 $86 $148 forward $233 $-1 #
edge $-1 $238 -36.539670243817099 $153 -28.251407677313622 $147 $239 forward 7 unknown #
coedge $-1 $240 $142 $87 $150 forward $83 $-1 #
edge $-1 $152 28.251407677313622 $241 36.539670243817099 $149 $242 forward 7 unknown #
coedge $-1 $143 $88 $142 $229 reversed $53 $-1 #
vertex $-1 $150 $243 #
vertex $-1 $148 $244 #
straight-curve $-1 -60.646946637878983 0 5.4516042447974531 0 -1 0 I I #
face $-1 $245 $246 $20 $-1 $247 reversed single #
loop $-1 $-1 $166 $90 #
plane-surface $-1 0 -38.902414655074864 0 0 1 0 0 0 1 forward_v I I I I #
coedge $-1 $248 $249 $250 $251 reversed $91 $-1 #
coedge $-1 $252 $93 $253 $254 reversed $57 $-1 #
coedge $-1 $93 $252 $255 $256 reversed $57 $-1 #
coedge $-1 $169 $168 $93 $162 forward $170 $-1 #
edge $-1 $257 -38.902414655074864 $258 38.902414655074864 $161 $259 forward 7 unknown #
coedge $-1 $95 $94 $249 $260 forward $37 $-1 #
coedge $-1 $261 $250 $94 $165 forward $246 $-1 #
edge $-1 $262 29.282808599566366 $171 36.195869936399518 $164 $263 forward 7 unknown #
coedge $-1 $264 $265 $95 $167 forward $156 $-1 #
edge $-1 $172 -36.195869936399518 $266 -29.282808599566366 $166 $267 forward 7 unknown #
coedge $-1 $161 $96 $265 $268 forward $170 $-1 #
coedge $-1 $96 $161 $261 $269 reversed $170 $-1 #
loop $-1 $-1 $96 $245 #
vertex $-1 $269 $270 #
vertex $-1 $268 $271 #
straight-curve $-1 68.93520920438246 0 5.2975692188542443 0 -1 0 I I #
face $-1 $-1 $272 $21 $-1 $273 forward single #
loop $-1 $-1 $104 $98 #
plane-surface $-1 0 38.902414655074864 0 0 -1 0 0 0 -1 forward_v I I I I #
coedge $-1 $274 $275 $276 $277 reversed $99 $-1 #
coedge $-1 $278 $101 $103 $184 forward $61 $-1 #
coedge $-1 $101 $278 $274 $279 forward $61 $-1 #
coedge $-1 $276 $104 $101 $181 forward $175 $-1 #
edge $-1 $187 -14.328169311925055 $280 14.884123889628572 $180 $281 forward 7 unknown #
coedge $-1 $282 $283 $102 $183 forward $272 $-1 #
edge $-1 $284 -12.446705753867832 $186 -7.0525760319826389 $182 $285 forward 7 unknown #
edge $-1 $187 -77.804829310149799 $284 -69.582810311978974 $103 $286 forward 7 unknown #
coedge $-1 $104 $276 $282 $287 reversed $175 $-1 #
vertex $-1 $287 $288 #
vertex $-1 $105 $289 #
straight-curve $-1 14.050192023073297 38.902414655074864 76.176028488007177 0 0 -1 I I #
coedge $-1 $189 $189 $-1 $290 reversed $108 $-1 #
edge $-1 $291 0 $291 6.2831853071796004 $109 $292 forward 7 unknown #
vertex $-1 $112 $293 #
ellipse-curve $-1 -6.81573169232216 36.20534979413226 6.2834930373902731 0 0.75470958851134928 0.65605901945558964 1.5 0 0 1 I I #
coedge $-1 $193 $193 $-1 $294 reversed $115 $-1 #
edge $-1 $295 0 $295 6.2831853071796004 $116 $296 forward 7 unknown #
vertex $-1 $119 $297 #
ellipse-curve $-1 5.7038225369151121 36.20534979413226 6.2834930373902731 0 0.75470958851134928 0.65605901945558964 1.5 0 0 1 I I #
face $-1 $-1 $135 $18 $-1 $298 reversed single #
loop $-1 $-1 $213 $120 #
plane-surface $-1 0 38.902414655074864 0 0 -1 0 0 0 -1 forward_v I I I I #
coedge $-1 $299 $211 $214 $300 forward $121 $-1 #
coedge $-1 $217 $123 $124 $205 reversed $75 $-1 #
coedge $-1 $211 $299 $123 $203 reversed $121 $-1 #
edge $-1 $218 -9.3861113248112691 $301 9.3861113248112691 $202 $302 forward 7 unknown #
coedge $-1 $125 $124 $299 $303 forward $49 $-1 #
edge $-1 $209 -68.93520920438246 $301 68.93520920438246 $201 $304 forward 7 unknown #
coedge $-1 $214 $213 $125 $207 reversed $198 $-1 #
edge $-1 $305 -68.93520920438246 $208 68.93520920438246 $206 $306 forward 7 unknown #
vertex $-1 $127 $307 #
vertex $-1 $220 $308 #
straight-curve $-1 68.93520920438246 0 -9.3861113248112691 0 -1 0 I I #
coedge $-1 $200 $202 $128 $212 reversed $121 $-1 #
edge $-1 $215 -38.902414655074864 $218 38.902414655074864 $211 $309 forward 7 unknown #
coedge $-1 $206 $129 $134 $221 forward $198 $-1 #
coedge $-1 $129 $206 $200 $300 reversed $198 $-1 #
vertex $-1 $130 $310 #
straight-curve $-1 0 38.902414655074864 9.3861113248112691 -1 0 0 I I #
coedge $-1 $131 $201 $133 $220 reversed $75 $-1 #
vertex $-1 $212 $311 #
straight-curve $-1 0 -38.902414655074864 9.3861113248112691 1 0 0 I I #
edge $-1 $136 -9.3861113248112691 $209 9.3861113248112691 $133 $312 forward 7 unknown #
edge $-1 $137 -9.3861113248112691 $208 9.3861113248112691 $134 $313 forward 7 unknown #
point $-1 68.93520920438246 -38.902414655074864 9.3861113248112691 #
point $-1 68.93520920438246 38.902414655074864 9.3861113248112691 #
face $-1 $-1 $233 $19 $-1 $314 reversed single #
loop $-1 $-1 $230 $139 #
plane-surface $-1 0 0 9.3861113248112691 0 0 1 1 0 0 forward_v I I I I #
coedge $-1 $315 $316 $146 $236 forward $140 $-1 #
coedge $-1 $142 $240 $317 $318 reversed $83 $-1 #
edge $-1 $319 -5.6766824324090885 $152 -1.7421753523952725 $142 $320 forward 7 unknown #
coedge $-1 $317 $321 $143 $231 forward $225 $-1 #
edge $-1 $234 -38.902414655074864 $319 38.902414655074864 $230 $322 forward 7 unknown #
coedge $-1 $237 $144 $321 $323 reversed $233 $-1 #
loop $-1 $-1 $144 $224 #
vertex $-1 $145 $324 #
straight-curve $-1 -60.646946637878983 -38.902414655074864 3.7094288924021805 0 0 1 I I #
edge $-1 $241 -38.902414655074864 $238 38.902414655074864 $227 $325 forward 7 unknown #
coedge $-1 $147 $232 $315 $326 forward $233 $-1 #
vertex $-1 $236 $327 #
straight-curve $-1 -32.395538960565361 -38.902414655074864 5.4516042447974531 1 0 0 I I #
coedge $-1 $228 $149 $316 $328 reversed $83 $-1 #
vertex $-1 $236 $329 #
straight-curve $-1 -32.395538960565361 38.902414655074864 5.4516042447974531 -1 0 0 I I #
point $-1 -60.646946637878983 38.902414655074864 5.4516042447974531 #
point $-1 -60.646946637878983 -38.902414655074864 5.4516042447974531 #
face $-1 $-1 $170 $20 $-1 $330 reversed single #
loop $-1 $-1 $164 $155 #
plane-surface $-1 0 38.902414655074864 0 0 -1 0 0 0 -1 forward_v I I I I #
coedge $-1 $331 $158 $252 $332 reversed $91 $-1 #
coedge $-1 $158 $331 $163 $260 reversed $91 $-1 #
coedge $-1 $164 $255 $158 $251 forward $246 $-1 #
edge $-1 $333 0.39878460942712213 $262 3.3987846094271221 $250 $334 forward 7 unknown #
coedge $-1 $160 $159 $248 $332 forward $57 $-1 #
coedge $-1 $265 $264 $159 $254 forward $156 $-1 #
edge $-1 $335 29.282808599566366 $257 36.195869936399518 $253 $336 forward 7 unknown #
coedge $-1 $250 $261 $160 $256 forward $246 $-1 #
edge $-1 $258 -36.195869936399518 $333 -29.282808599566366 $255 $337 forward 7 unknown #
vertex $-1 $162 $338 #
vertex $-1 $162 $339 #
straight-curve $-1 68.93520920438246 0 2.2975692188542443 0 1 0 I I #
edge $-1 $262 -38.902414655074864 $266 38.902414655074864 $249 $340 forward 7 unknown #
coedge $-1 $255 $164 $169 $269 forward $246 $-1 #
vertex $-1 $165 $341 #
straight-curve $-1 32.739339267982942 38.902414655074864 5.2975692188542443 1 0 0 I I #
coedge $-1 $253 $166 $331 $342 forward $156 $-1 #
coedge $-1 $166 $253 $168 $268 reversed $156 $-1 #
vertex $-1 $167 $343 #
straight-curve $-1 32.739339267982942 -38.902414655074864 5.2975692188542443 -1 0 0 I I #
edge $-1 $172 -5.2975692188542443 $257 -2.2975692188542443 $168 $344 forward 7 unknown #
edge $-1 $171 -5.2975692188542443 $258 -2.2975692188542443 $169 $345 forward 7 unknown #
point $-1 68.93520920438246 38.902414655074864 5.2975692188542443 #
point $-1 68.93520920438246 -38.902414655074864 5.2975692188542443 #
loop $-1 $-1 $182 $174 #
plane-surface $-1 0 0 9.3861113248112691 0 0 1 1 0 0 forward_v I I I I #
coedge $-1 $275 $177 $179 $279 reversed $99 $-1 #
coedge $-1 $177 $274 $346 $347 reversed $99 $-1 #
coedge $-1 $185 $180 $177 $277 forward $175 $-1 #
edge $-1 $280 -72.995153738037914 $348 -66.789917163195909 $276 $349 forward 7 unknown #
coedge $-1 $179 $178 $283 $350 reversed $61 $-1 #
edge $-1 $351 69.582810311978974 $280 77.804829310149799 $274 $352 forward 7 unknown #
vertex $-1 $181 $353 #
straight-curve $-1 -0.27797728885175843 38.902414655074864 3.1808747499692593 -1 0 0 I I #
coedge $-1 $346 $182 $185 $287 forward $272 $-1 #
coedge $-1 $182 $346 $278 $350 forward $272 $-1 #
vertex $-1 $183 $354 #
straight-curve $-1 14.050192023073297 45.954990687057503 9.3861113248112673 0 1 0 I I #
straight-curve $-1 14.050192023073297 -12.142145371051527 61.90092546282817 0 -0.65605901945558964 0.75470958851134928 I I #
edge $-1 $186 -14.050192023073297 $348 15.162101178480331 $185 $355 forward 7 unknown #
point $-1 14.050192023073297 38.902414655074864 9.3861113248112691 #
point $-1 14.050192023073297 38.902414655074864 3.1808747499692629 #
edge $-1 $356 1 $356 0 $189 $-1 forward 7 unknown #
vertex $-1 $190 $357 #
ellipse-curve $-1 -6.81573169232216 33.885286331015308 4.2666926894716042 0 0.75470958851134928 0.65605901945558964 1.5 0 0 1 I I #
point $-1 -5.31573169232216 36.205349794132282 6.2834930373902971 #
edge $-1 $358 1 $358 0 $193 $-1 forward 7 unknown #
vertex $-1 $194 $359 #
ellipse-curve $-1 5.7038225369151121 33.885286331015308 4.2666926894716042 0 0.75470958851134928 0.65605901945558964 1.5 0 0 1 I I #
point $-1 7.2038225369151121 36.205349794132282 6.2834930373902971 #
plane-surface $-1 68.93520920438246 0 0 -1 0 0 0 0 1 forward_v I I I I #
coedge $-1 $202 $200 $204 $303 reversed $121 $-1 #
edge $-1 $215 -9.3861113248112691 $305 9.3861113248112691 $214 $360 forward 7 unknown #
vertex $-1 $303 $361 #
straight-curve $-1 -68.93520920438246 -38.902414655074864 0 0 0 -1 I I #
edge $-1 $301 -38.902414655074864 $305 38.902414655074864 $299 $362 forward 7 unknown #
straight-curve $-1 0 -38.902414655074864 -9.3861113248112691 -1 0 0 I I #
vertex $-1 $207 $363 #
straight-curve $-1 0 38.902414655074864 -9.3861113248112691 1 0 0 I I #
point $-1 68.93520920438246 38.902414655074864 -9.3861113248112691 #
point $-1 68.93520920438246 -38.902414655074864 -9.3861113248112691 #
straight-curve $-1 -68.93520920438246 0 9.3861113248112691 0 -1 0 I I #
point $-1 -68.93520920438246 38.902414655074864 9.3861113248112691 #
point $-1 -68.93520920438246 -38.902414655074864 9.3861113248112691 #
straight-curve $-1 68.93520920438246 -38.902414655074864 0 0 0 -1 I I #
straight-curve $-1 68.93520920438246 38.902414655074864 0 0 0 -1 I I #
plane-surface $-1 0 -38.902414655074864 0 0 1 0 0 0 1 forward_v I I I I #
coedge $-1 $364 $227 $237 $326 reversed $140 $-1 #
coedge $-1 $227 $364 $240 $328 forward $140 $-1 #
coedge $-1 $365 $230 $228 $318 forward $225 $-1 #
edge $-1 $319 60.646946637878983 $366 68.93520920438246 $228 $367 forward 7 unknown #
vertex $-1 $318 $368 #
straight-curve $-1 -60.646946637878983 38.902414655074864 3.7094288924021805 0 0 -1 I I #
coedge $-1 $230 $365 $232 $323 forward $225 $-1 #
straight-curve $-1 -60.646946637878983 0 9.3861113248112691 0 1 0 I I #
edge $-1 $369 -68.93520920438246 $234 -60.646946637878983 $232 $370 forward 7 unknown #
point $-1 -60.646946637878983 -38.902414655074864 9.3861113248112691 #
straight-curve $-1 -68.93520920438246 0 5.4516042447974531 0 -1 0 I I #
edge $-1 $369 -9.3861113248112691 $238 -5.4516042447974531 $315 $371 forward 7 unknown #
point $-1 -68.93520920438246 -38.902414655074864 5.4516042447974531 #
edge $-1 $366 -9.3861113248112691 $241 -5.4516042447974531 $240 $372 forward 7 unknown #
point $-1 -68.93520920438246 38.902414655074864 5.4516042447974531 #
plane-surface $-1 68.93520920438246 0 0 -1 0 0 0 0 1 forward_v I I I I #
coedge $-1 $249 $248 $264 $342 reversed $91 $-1 #
edge $-1 $335 -38.902414655074864 $333 38.902414655074864 $248 $373 forward 7 unknown #
vertex $-1 $256 $374 #
straight-curve $-1 62.022147867549307 38.902414655074864 1.8987846094271221 0 0 1 I I #
vertex $-1 $254 $375 #
straight-curve $-1 32.739339267982942 -38.902414655074864 2.2975692188542443 1 0 0 I I #
straight-curve $-1 32.739339267982942 38.902414655074864 2.2975692188542443 -1 0 0 I I #
point $-1 68.93520920438246 -38.902414655074864 2.2975692188542443 #
point $-1 68.93520920438246 38.902414655074864 2.2975692188542443 #
straight-curve $-1 62.022147867549307 0 5.2975692188542443 0 -1 0 I I #
point $-1 62.022147867549307 38.902414655074864 5.2975692188542443 #
edge $-1 $266 -3.3987846094271221 $335 -0.39878460942712213 $264 $376 forward 7 unknown #
point $-1 62.022147867549307 -38.902414655074864 5.2975692188542443 #
straight-curve $-1 68.93520920438246 -38.902414655074864 0 0 0 -1 I I #
straight-curve $-1 68.93520920438246 38.902414655074864 0 0 0 -1 I I #
coedge $-1 $283 $282 $275 $347 forward $272 $-1 #
edge $-1 $348 7.0525760319826389 $351 12.446705753867832 $346 $377 forward 7 unknown #
vertex $-1 $347 $378 #
straight-curve $-1 -15.162101178480331 38.902414655074864 76.176028488007177 0 0 1 I I #
edge $-1 $351 -14.884123889628572 $284 14.328169311925055 $283 $379 forward 7 unknown #
vertex $-1 $350 $380 #
straight-curve $-1 -15.162101178480331 -12.142145371051527 61.90092546282817 0 0.65605901945558964 -0.75470958851134928 I I #
point $-1 -15.162101178480331 38.902414655074864 3.1808747499692629 #
point $-1 14.050192023073297 33.508284933189671 9.3861113248112673 #
straight-curve $-1 0 38.902414655074864 9.3861113248112691 -1 0 0 I I #
vertex $-1 $290 $381 #
point $-1 -5.31573169232216 33.885286331015308 4.2666926894716042 #
vertex $-1 $294 $382 #
point $-1 7.2038225369151121 33.885286331015308 4.2666926894716042 #
straight-curve $-1 -68.93520920438246 38.902414655074864 0 0 0 -1 I I #
point $-1 -68.93520920438246 -38.902414655074864 -9.3861113248112691 #
straight-curve $-1 -68.93520920438246 0 -9.3861113248112691 0 1 0 I I #
point $-1 -68.93520920438246 38.902414655074864 -9.3861113248112691 #
coedge $-1 $316 $315 $365 $383 reversed $140 $-1 #
coedge $-1 $321 $317 $364 $383 forward $225 $-1 #
vertex $-1 $318 $384 #
straight-curve $-1 0 38.902414655074864 9.3861113248112691 -1 0 0 I I #
point $-1 -60.646946637878983 38.902414655074864 9.3861113248112691 #
vertex $-1 $383 $385 #
straight-curve $-1 0 -38.902414655074864 9.3861113248112691 1 0 0 I I #
straight-curve $-1 -68.93520920438246 -38.902414655074864 0 0 0 -1 I I #
straight-curve $-1 -68.93520920438246 38.902414655074864 0 0 0 -1 I I #
straight-curve $-1 62.022147867549307 0 2.2975692188542443 0 1 0 I I #
point $-1 62.022147867549307 38.902414655074864 2.2975692188542443 #
point $-1 62.022147867549307 -38.902414655074864 2.2975692188542443 #
straight-curve $-1 62.022147867549307 -38.902414655074864 1.8987846094271221 0 0 -1 I I #
straight-curve $-1 -15.162101178480331 45.954990687057503 9.3861113248112673 0 -1 0 I I #
point $-1 -15.162101178480331 38.902414655074864 9.3861113248112691 #
straight-curve $-1 -0.27797728885175843 33.508284933189671 9.3861113248112602 1 0 0 I I #
point $-1 -15.162101178480331 33.508284933189671 9.3861113248112673 #
point $-1 -6.81573169232216 32.753221948248282 3.2826041602882192 #
point $-1 5.7038225369151121 32.753221948248282 3.2826041602882192 #
edge $-1 $366 -38.902414655074864 $369 38.902414655074864 $364 $386 forward 7 unknown #
point $-1 -68.93520920438246 38.902414655074864 9.3861113248112691 #
point $-1 -68.93520920438246 -38.902414655074864 9.3861113248112691 #
straight-curve $-1 -68.93520920438246 0 9.3861113248112691 0 -1 0 I I #
End-of-ACIS-data 