500 0 7 0           
7 Unknown 11 ACIS 5.0 NT 24 Fri Mar 26 15:30:44 1999 
-1 9.9999999999999995e-007 1e-010 
body $-1 $7 $-1 $8 #
body $-1 $9 $-1 $10 #
body $-1 $11 $-1 $12 #
body $-1 $13 $-1 $14 #
body $-1 $15 $-1 $16 #
body $-1 $17 $-1 $18 #
body $-1 $19 $-1 $20 #
lump $-1 $-1 $21 $0 #
transform $-1 1 0 0 0 1 0 0 0 1 43.961302529984437 27.327597128299811 5.8956119528691726 1 rotate no_reflect no_shear #
lump $-1 $-1 $22 $1 #
transform $-1 1 0 0 0 1 0 0 0 1 43.961302529984437 27.327597128299811 5.8956119528691726 1 rotate no_reflect no_shear #
lump $-1 $-1 $23 $2 #
transform $-1 1 0 0 0 1 0 0 0 1 43.961302529984437 27.327597128299811 5.8956119528691726 1 rotate no_reflect no_shear #
lump $-1 $-1 $24 $3 #
transform $-1 1 0 0 0 1 0 0 0 1 43.961302529984437 27.327597128299811 5.8956119528691726 1 rotate no_reflect no_shear #
lump $-1 $-1 $25 $4 #
transform $-1 1 0 0 0 1 0 0 0 1 43.961302529984437 27.327597128299811 5.8956119528691726 1 rotate no_reflect no_shear #
lump $-1 $-1 $26 $5 #
transform $-1 1 0 0 0 1 0 0 0 1 43.961302529984437 27.327597128299811 5.8956119528691726 1 rotate no_reflect no_shear #
lump $-1 $-1 $27 $6 #
transform $-1 1 0 0 0 1 0 0 0 1 43.961302529984437 27.327597128299811 5.8956119528691726 1 rotate no_reflect no_shear #
shell $-1 $-1 $-1 $28 $-1 $7 #
shell $-1 $-1 $-1 $29 $-1 $9 #
shell $-1 $-1 $-1 $30 $-1 $11 #
shell $-1 $-1 $-1 $31 $-1 $13 #
shell $-1 $-1 $-1 $32 $-1 $15 #
shell $-1 $-1 $-1 $33 $-1 $17 #
shell $-1 $-1 $-1 $34 $-1 $19 #
face $-1 $35 $36 $21 $-1 $37 forward single #
face $-1 $38 $39 $22 $-1 $40 forward single #
face $-1 $41 $42 $23 $-1 $43 reversed single #
face $-1 $44 $45 $24 $-1 $46 forward single #
face $-1 $47 $48 $25 $-1 $49 forward single #
face $-1 $50 $51 $26 $-1 $52 reversed single #
face $-1 $53 $54 $27 $-1 $55 forward single #
face $-1 $56 $57 $21 $-1 $58 reversed single #
loop $-1 $-1 $59 $28 #
plane-surface $-1 0 0 5.8956119528691726 0 0 1 1 0 0 forward_v I I I I #
face $-1 $60 $61 $22 $-1 $62 forward single #
loop $-1 $-1 $63 $29 #
plane-surface $-1 0 -27.327597128299811 0 0 1 0 0 0 1 forward_v I I I I #
face $-1 $64 $65 $23 $-1 $66 reversed single #
loop $-1 $-1 $67 $30 #
plane-surface $-1 56.958513400732301 5.4592051526906733 125.4355339656065 0 -1 0 -0.77714596973225614 0 -0.62932038083071107 forward_v I I I I #
face $-1 $68 $69 $24 $-1 $70 forward single #
loop $-1 $71 $72 $31 #
cone-surface $-1 41.541877166996102 -0.067360923086937419 3.2271999284317445 -0.77714596973225614 0 -0.62932038083071107 0.62932038083071107 0 -0.77714596973225614 1 I I 0 1 1 forward I I I I #
face $-1 $73 $74 $25 $-1 $75 forward single #
loop $-1 $76 $77 $32 #
cone-surface $-1 41.541877166996102 3.2485787223796301 3.2271999284317445 -0.77714596973225614 0 -0.62932038083071107 0.62932038083071107 0 -0.77714596973225614 1 I I 0 1 1 forward I I I I #
face $-1 $78 $79 $26 $-1 $80 reversed single #
loop $-1 $-1 $81 $33 #
plane-surface $-1 -113.2452615281064 12.035881930372653 54.650704228979293 0 1 0 -0.78801076186113728 0 0.61566146476048833 forward_v I I I I #
face $-1 $82 $83 $27 $-1 $84 forward single #
loop $-1 $85 $86 $34 #
cone-surface $-1 -41.076151651929798 16.64720100027154 2.5943633690502028 0.78801076186113728 0 -0.61566146476048833 0.9234921971407325 0 1.182016142791706 1 I I 0 1 1.5 forward I I I I #
face $-1 $87 $88 $21 $-1 $89 reversed single #
loop $-1 $-1 $90 $35 #
plane-surface $-1 0 0 -5.8956119528691726 0 0 1 1 0 0 forward_v I I I I #
coedge $-1 $91 $92 $93 $94 forward $36 $-1 #
face $-1 $95 $96 $22 $-1 $97 reversed single #
loop $-1 $-1 $98 $38 #
plane-surface $-1 0 0 5.8956119528691726 0 0 1 1 0 0 forward_v I I I I #
coedge $-1 $99 $100 $101 $102 forward $39 $-1 #
face $-1 $103 $104 $23 $-1 $105 reversed single #
loop $-1 $-1 $106 $41 #
plane-surface $-1 -11.370184769983382 1.5906088996463446 70.104046665638677 0.77714596973225614 0 0.62932038083071107 0.62932038083071107 0 -0.77714596973225614 forward_v I I I I #
coedge $-1 $107 $108 $109 $110 reversed $42 $-1 #
face $-1 $-1 $111 $24 $-1 $112 forward single #
loop $-1 $113 $114 $44 #
cone-surface $-1 40.402140554688486 -0.067360923086937419 2.3042594425520537 -0.77714596973225614 0 -0.62932038083071107 0.31466019041535553 0 -0.38857298486612807 1 I I -0.70710678118654746 0.70710678118654746 0.5 forward I I I I #
loop $-1 $-1 $115 $31 #
coedge $-1 $72 $72 $116 $117 reversed $45 $-1 #
face $-1 $-1 $118 $25 $-1 $119 forward single #
loop $-1 $120 $121 $47 #
cone-surface $-1 40.402140554688486 3.2485787223796301 2.3042594425520537 -0.77714596973225614 0 -0.62932038083071107 0.31466019041535553 0 -0.38857298486612807 1 I I -0.70710678118654746 0.70710678118654746 0.5 forward I I I I #
loop $-1 $-1 $122 $32 #
coedge $-1 $77 $77 $123 $124 reversed $48 $-1 #
face $-1 $125 $126 $26 $-1 $127 reversed single #
loop $-1 $-1 $128 $50 #
plane-surface $-1 -43.961302529984437 16.64720100027154 0.52014441220093488 -0.78801076186113728 0 0.61566146476048833 0.61566146476048833 0 0.78801076186113728 forward_v I I I I #
coedge $-1 $129 $130 $131 $132 reversed $51 $-1 #
face $-1 $-1 $133 $27 $-1 $134 forward single #
loop $-1 $135 $136 $53 #
cone-surface $-1 -39.699880407086233 16.64720100027154 1.5191024569949878 0.78801076186113728 0 -0.61566146476048833 0.46174609857036625 0 0.59100807139585299 1 I I -0.70710678118654757 0.70710678118654757 0.75 forward I I I I #
loop $-1 $-1 $137 $34 #
coedge $-1 $86 $86 $138 $139 reversed $54 $-1 #
face $-1 $140 $141 $21 $-1 $142 reversed single #
loop $-1 $-1 $143 $56 #
plane-surface $-1 0 -27.327597128299811 0 0 1 0 0 0 1 forward_v I I I I #
coedge $-1 $144 $145 $146 $147 forward $57 $-1 #
coedge $-1 $148 $59 $149 $150 forward $36 $-1 #
coedge $-1 $59 $148 $151 $152 forward $36 $-1 #
coedge $-1 $153 $154 $59 $94 reversed $155 $-1 #
edge $-1 $156 -27.327597128299811 $157 27.327597128299811 $93 $158 forward 7 unknown #
face $-1 $159 $160 $22 $-1 $161 reversed single #
loop $-1 $-1 $162 $60 #
plane-surface $-1 -43.961302529984437 0 0 1 0 0 0 0 -1 forward_v I I I I #
coedge $-1 $163 $164 $165 $166 forward $61 $-1 #
coedge $-1 $165 $63 $162 $167 reversed $39 $-1 #
coedge $-1 $63 $165 $168 $169 reversed $39 $-1 #
coedge $-1 $170 $171 $63 $102 reversed $160 $-1 #
edge $-1 $172 -43.961302529984437 $173 43.961302529984437 $101 $174 forward 7 unknown #
face $-1 $175 $176 $23 $-1 $177 reversed single #
loop $-1 $-1 $178 $64 #
plane-surface $-1 56.958513400732301 -2.2779873533979842 125.4355339656065 0 1 0 0.77714596973225614 0 0.62932038083071107 forward_v I I I I #
coedge $-1 $179 $180 $181 $182 reversed $65 $-1 #
coedge $-1 $108 $67 $183 $184 reversed $42 $-1 #
coedge $-1 $67 $107 $179 $185 reversed $42 $-1 #
coedge $-1 $181 $186 $67 $110 forward $187 $-1 #
edge $-1 $188 -15.482045829618286 $189 -12.14552235852458 $109 $190 forward 7 unknown #
loop $-1 $-1 $116 $68 #
plane-surface $-1 -11.370184769983382 1.5906088996463446 70.104046665638677 0.77714596973225614 0 0.62932038083071107 0.62932038083071107 0 -0.77714596973225614 forward_v I I I I #
loop $-1 $-1 $191 $44 #
coedge $-1 $114 $114 $115 $192 reversed $69 $-1 #
coedge $-1 $115 $115 $114 $192 forward $71 $-1 #
coedge $-1 $116 $116 $72 $117 forward $111 $-1 #
edge $-1 $193 0 $193 6.2831853071796004 $116 $194 forward 7 unknown #
loop $-1 $-1 $123 $73 #
plane-surface $-1 -11.370184769983382 1.5906088996463446 70.104046665638677 0.77714596973225614 0 0.62932038083071107 0.62932038083071107 0 -0.77714596973225614 forward_v I I I I #
loop $-1 $-1 $195 $47 #
coedge $-1 $121 $121 $122 $196 reversed $74 $-1 #
coedge $-1 $122 $122 $121 $196 forward $76 $-1 #
coedge $-1 $123 $123 $77 $124 forward $118 $-1 #
edge $-1 $197 0 $197 6.2831853071796004 $123 $198 forward 7 unknown #
face $-1 $199 $200 $26 $-1 $201 forward single #
loop $-1 $-1 $202 $78 #
plane-surface $-1 -113.2452615281064 21.258520070170427 54.650704228979293 0 -1 0 0.78801076186113728 0 -0.61566146476048833 forward_v I I I I #
coedge $-1 $203 $204 $205 $206 reversed $79 $-1 #
coedge $-1 $130 $81 $207 $208 reversed $51 $-1 #
coedge $-1 $81 $129 $203 $209 reversed $51 $-1 #
coedge $-1 $205 $210 $81 $132 forward $200 $-1 #
edge $-1 $211 12.661328234068762 $212 16.861103643282604 $131 $213 forward 7 unknown #
loop $-1 $-1 $138 $82 #
plane-surface $-1 -43.961302529984437 16.64720100027154 0.52014441220093488 -0.78801076186113728 0 0.61566146476048833 0.61566146476048833 0 0.78801076186113728 forward_v I I I I #
loop $-1 $-1 $214 $53 #
coedge $-1 $136 $136 $137 $215 reversed $83 $-1 #
coedge $-1 $137 $137 $136 $215 forward $85 $-1 #
coedge $-1 $138 $138 $86 $139 forward $133 $-1 #
edge $-1 $216 0 $216 6.2831853071796004 $138 $217 forward 7 unknown #
face $-1 $218 $219 $21 $-1 $220 reversed single #
loop $-1 $-1 $221 $87 #
plane-surface $-1 -43.961302529984437 0 0 1 0 0 0 0 -1 forward_v I I I I #
coedge $-1 $222 $151 $223 $224 forward $88 $-1 #
coedge $-1 $225 $90 $222 $226 forward $57 $-1 #
coedge $-1 $90 $225 $227 $228 forward $57 $-1 #
coedge $-1 $154 $153 $90 $147 reversed $155 $-1 #
edge $-1 $229 -27.327597128299811 $230 27.327597128299811 $146 $231 forward 7 unknown #
coedge $-1 $92 $91 $232 $233 forward $36 $-1 #
coedge $-1 $234 $235 $91 $150 reversed $219 $-1 #
edge $-1 $157 -43.961302529984437 $236 43.961302529984437 $149 $237 forward 7 unknown #
coedge $-1 $143 $238 $92 $152 reversed $88 $-1 #
edge $-1 $239 -43.961302529984437 $156 43.961302529984437 $151 $240 forward 7 unknown #
coedge $-1 $146 $93 $238 $241 forward $155 $-1 #
coedge $-1 $93 $146 $234 $242 reversed $155 $-1 #
loop $-1 $-1 $153 $218 #
vertex $-1 $94 $243 #
vertex $-1 $94 $244 #
straight-curve $-1 43.961302529984437 0 5.8956119528691726 0 1 0 I I #
face $-1 $245 $246 $22 $-1 $247 reversed single #
loop $-1 $-1 $170 $95 #
plane-surface $-1 0 -29.463684556304177 2.8956119528691726 0 0 1 1 0 0 forward_v I I I I #
coedge $-1 $248 $249 $99 $167 forward $96 $-1 #
coedge $-1 $250 $98 $249 $251 forward $61 $-1 #
coedge $-1 $98 $250 $252 $253 forward $61 $-1 #
coedge $-1 $100 $99 $98 $166 reversed $39 $-1 #
edge $-1 $254 -43.961302529984437 $255 43.961302529984437 $98 $256 forward 7 unknown #
edge $-1 $255 -5.8956119528691726 $173 -2.8956119528691726 $162 $257 forward 7 unknown #
coedge $-1 $252 $258 $100 $169 forward $259 $-1 #
edge $-1 $172 2.8956119528691726 $254 5.8956119528691726 $168 $260 forward 7 unknown #
coedge $-1 $261 $101 $258 $262 forward $160 $-1 #
coedge $-1 $101 $261 $248 $263 forward $160 $-1 #
vertex $-1 $169 $264 #
vertex $-1 $167 $265 #
straight-curve $-1 0 -27.327597128299811 2.8956119528691726 -1 0 0 I I #
face $-1 $-1 $187 $23 $-1 $266 forward single #
loop $-1 $-1 $267 $103 #
plane-surface $-1 43.961302529984437 0 0 -1 0 0 0 0 1 forward_v I I I I #
coedge $-1 $268 $269 $270 $271 reversed $104 $-1 #
coedge $-1 $272 $106 $108 $185 forward $65 $-1 #
coedge $-1 $106 $272 $268 $273 forward $65 $-1 #
coedge $-1 $270 $109 $106 $182 forward $187 $-1 #
edge $-1 $189 -4.663900702867501 $274 3.0732918032211565 $181 $275 forward 7 unknown #
coedge $-1 $276 $277 $107 $184 forward $176 $-1 #
edge $-1 $278 -60.942418487880254 $188 -56.822155029934073 $183 $279 forward 7 unknown #
edge $-1 $189 82.620816697911607 $278 87.922605059968873 $108 $280 forward 7 unknown #
coedge $-1 $109 $270 $276 $281 forward $187 $-1 #
loop $-1 $-1 $270 $175 #
vertex $-1 $184 $282 #
vertex $-1 $110 $283 #
straight-curve $-1 28.47925670036615 5.4592051526906733 5.8956119528691744 -1 0 0 I I #
coedge $-1 $191 $191 $-1 $284 reversed $113 $-1 #
edge $-1 $285 0 $285 6.2831853071796004 $114 $286 forward 7 unknown #
vertex $-1 $117 $287 #
ellipse-curve $-1 42.293040794437587 -0.067360923086937419 3.8354802238960799 0.77714596973225614 0 0.62932038083071107 0.62932038083071107 0 -0.77714596973225614 1 I I #
coedge $-1 $195 $195 $-1 $288 reversed $120 $-1 #
edge $-1 $289 0 $289 6.2831853071796004 $121 $290 forward 7 unknown #
vertex $-1 $124 $291 #
ellipse-curve $-1 42.293040794437587 3.2485787223796301 3.8354802238960799 0.77714596973225614 0 0.62932038083071107 0.62932038083071107 0 -0.77714596973225614 1 I I #
face $-1 $-1 $292 $26 $-1 $293 reversed single #
loop $-1 $-1 $131 $125 #
plane-surface $-1 0 0 5.8956119528691726 0 0 1 1 0 0 forward_v I I I I #
coedge $-1 $294 $295 $296 $297 reversed $126 $-1 #
coedge $-1 $298 $128 $130 $209 forward $79 $-1 #
coedge $-1 $128 $298 $294 $299 forward $79 $-1 #
coedge $-1 $296 $131 $128 $206 forward $200 $-1 #
edge $-1 $212 3.7122814302368834 $300 12.934919570034657 $205 $301 forward 7 unknown #
coedge $-1 $302 $303 $129 $208 forward $292 $-1 #
edge $-1 $304 -26.805207702288712 $211 -21.429740161620472 $207 $305 forward 7 unknown #
edge $-1 $212 -6.8215661521834647 $304 0 $130 $306 forward 7 unknown #
coedge $-1 $131 $296 $302 $307 forward $200 $-1 #
vertex $-1 $208 $308 #
vertex $-1 $132 $309 #
straight-curve $-1 -56.622630764053199 12.035881930372653 5.8956119528691744 1 0 0 I I #
coedge $-1 $214 $214 $-1 $310 reversed $135 $-1 #
edge $-1 $311 0 $311 6.2831853071796004 $136 $312 forward 7 unknown #
vertex $-1 $139 $313 #
ellipse-curve $-1 -41.861414825377516 16.64720100027154 3.2078781825350542 -0.78801076186113728 0 0.61566146476048833 0.9234921971407325 0 1.182016142791706 1 I I #
face $-1 $-1 $155 $21 $-1 $314 reversed single #
loop $-1 $-1 $234 $140 #
plane-surface $-1 0 27.327597128299811 0 0 -1 0 0 0 -1 forward_v I I I I #
coedge $-1 $315 $232 $235 $316 forward $141 $-1 #
coedge $-1 $238 $143 $144 $226 reversed $88 $-1 #
coedge $-1 $232 $315 $143 $224 reversed $141 $-1 #
edge $-1 $239 -5.8956119528691726 $317 5.8956119528691726 $223 $318 forward 7 unknown #
coedge $-1 $145 $144 $315 $319 forward $57 $-1 #
edge $-1 $230 -43.961302529984437 $317 43.961302529984437 $222 $320 forward 7 unknown #
coedge $-1 $235 $234 $145 $228 reversed $219 $-1 #
edge $-1 $321 -43.961302529984437 $229 43.961302529984437 $227 $322 forward 7 unknown #
vertex $-1 $147 $323 #
vertex $-1 $241 $324 #
straight-curve $-1 43.961302529984437 0 -5.8956119528691726 0 -1 0 I I #
coedge $-1 $221 $223 $148 $233 reversed $141 $-1 #
edge $-1 $236 -27.327597128299811 $239 27.327597128299811 $232 $325 forward 7 unknown #
coedge $-1 $227 $149 $154 $242 forward $219 $-1 #
coedge $-1 $149 $227 $221 $316 reversed $219 $-1 #
vertex $-1 $150 $326 #
straight-curve $-1 0 27.327597128299811 5.8956119528691726 -1 0 0 I I #
coedge $-1 $151 $222 $153 $241 reversed $88 $-1 #
vertex $-1 $233 $327 #
straight-curve $-1 0 -27.327597128299811 5.8956119528691726 1 0 0 I I #
edge $-1 $156 -5.8956119528691726 $230 5.8956119528691726 $153 $328 forward 7 unknown #
edge $-1 $157 -5.8956119528691726 $229 5.8956119528691726 $154 $329 forward 7 unknown #
point $-1 43.961302529984437 -27.327597128299811 5.8956119528691726 #
point $-1 43.961302529984437 27.327597128299811 5.8956119528691726 #
face $-1 $-1 $259 $22 $-1 $330 reversed single #
loop $-1 $-1 $331 $159 #
plane-surface $-1 0 -31.599771984308543 4.3956119528691726 0 1 0 0 0 1 forward_v I I I I #
coedge $-1 $332 $162 $171 $263 reversed $96 $-1 #
coedge $-1 $162 $332 $163 $251 reversed $96 $-1 #
coedge $-1 $164 $163 $333 $334 forward $61 $-1 #
edge $-1 $255 27.327597128299811 $335 31.599771984308543 $249 $336 forward 7 unknown #
coedge $-1 $337 $168 $164 $253 reversed $259 $-1 #
edge $-1 $338 -31.599771984308543 $254 -27.327597128299811 $252 $339 forward 7 unknown #
vertex $-1 $169 $340 #
vertex $-1 $251 $341 #
straight-curve $-1 0 -27.327597128299811 5.8956119528691726 -1 0 0 I I #
straight-curve $-1 -43.961302529984437 -27.327597128299811 0 0 0 -1 I I #
coedge $-1 $168 $337 $170 $262 reversed $259 $-1 #
loop $-1 $-1 $168 $245 #
straight-curve $-1 43.961302529984437 -27.327597128299811 0 0 0 1 I I #
coedge $-1 $171 $170 $342 $343 forward $160 $-1 #
edge $-1 $172 -2.136087428004366 $344 2.136087428004366 $258 $345 forward 7 unknown #
edge $-1 $346 -2.136087428004366 $173 2.136087428004366 $248 $347 forward 7 unknown #
point $-1 43.961302529984437 -27.327597128299811 2.8956119528691726 #
point $-1 -43.961302529984437 -27.327597128299811 2.8956119528691726 #
plane-surface $-1 0 0 5.8956119528691726 0 0 1 1 0 0 forward_v I I I I #
coedge $-1 $277 $276 $269 $348 forward $176 $-1 #
coedge $-1 $269 $178 $180 $273 reversed $104 $-1 #
coedge $-1 $178 $268 $267 $348 reversed $104 $-1 #
coedge $-1 $186 $181 $178 $271 forward $187 $-1 #
edge $-1 $274 12.14552235852458 $349 15.482045829618286 $270 $350 forward 7 unknown #
coedge $-1 $180 $179 $277 $351 reversed $65 $-1 #
edge $-1 $352 -87.922605059968873 $274 -82.620816697911607 $268 $353 forward 7 unknown #
vertex $-1 $182 $354 #
straight-curve $-1 40.624779058890731 0.79530444982317228 5.8956119528691744 0 -1 0 I I #
coedge $-1 $267 $183 $186 $281 reversed $176 $-1 #
coedge $-1 $183 $267 $272 $351 forward $176 $-1 #
vertex $-1 $184 $355 #
straight-curve $-1 43.961302529984437 5.4592051526906733 62.717766982803248 0 0 1 I I #
straight-curve $-1 -11.370184769983382 5.4592051526906733 70.104046665638677 0.62932038083071107 0 -0.77714596973225614 I I #
edge $-1 $349 -2.2779873533979842 $188 5.4592051526906733 $276 $356 forward 7 unknown #
point $-1 43.961302529984437 5.4592051526906733 5.8956119528691726 #
point $-1 40.624779058890731 5.4592051526906733 5.8956119528691744 #
edge $-1 $357 1 $357 0 $191 $-1 forward 7 unknown #
vertex $-1 $192 $358 #
ellipse-curve $-1 40.790713539554616 -0.067360923086937419 2.6189196329674092 0.77714596973225614 0 0.62932038083071107 0.62932038083071107 0 -0.77714596973225614 1 I I #
point $-1 42.922361175268293 -0.067360923086937419 3.0583342541638232 #
edge $-1 $359 1 $359 0 $195 $-1 forward 7 unknown #
vertex $-1 $196 $360 #
ellipse-curve $-1 40.790713539554616 3.2485787223796301 2.6189196329674092 0.77714596973225614 0 0.62932038083071107 0.62932038083071107 0 -0.77714596973225614 1 I I #
point $-1 42.922361175268293 3.2485787223796301 3.0583342541638232 #
loop $-1 $-1 $207 $199 #
plane-surface $-1 -43.961302529984437 0 0 1 0 0 0 0 -1 forward_v I I I I #
coedge $-1 $295 $202 $204 $299 reversed $126 $-1 #
coedge $-1 $202 $294 $361 $362 reversed $126 $-1 #
coedge $-1 $210 $205 $202 $297 forward $200 $-1 #
edge $-1 $300 -16.861103643282604 $363 -12.661328234068762 $296 $364 forward 7 unknown #
coedge $-1 $204 $203 $303 $365 reversed $79 $-1 #
edge $-1 $366 0 $300 6.8215661521834647 $294 $367 forward 7 unknown #
vertex $-1 $206 $368 #
straight-curve $-1 -39.761527120770602 8.32360050013577 5.8956119528691735 0 1 0 I I #
coedge $-1 $361 $207 $210 $307 reversed $292 $-1 #
coedge $-1 $207 $361 $298 $365 forward $292 $-1 #
vertex $-1 $208 $369 #
straight-curve $-1 -43.961302529984437 12.035881930372653 27.325352114489647 0 0 1 I I #
straight-curve $-1 -43.961302529984437 12.035881930372653 0.52014441220093488 -0.61566146476048833 0 -0.78801076186113728 I I #
edge $-1 $363 -21.258520070170427 $211 -12.035881930372653 $302 $370 forward 7 unknown #
point $-1 -43.961302529984437 12.035881930372653 5.8956119528691726 #
point $-1 -39.761527120770594 12.035881930372653 5.8956119528691726 #
edge $-1 $371 1 $371 0 $214 $-1 forward 7 unknown #
vertex $-1 $215 $372 #
ellipse-curve $-1 -40.290888478482088 16.64720100027154 1.9808485555653541 -0.78801076186113728 0 0.61566146476048833 0.9234921971407325 0 1.182016142791706 1 I I #
point $-1 -40.937922628236784 16.64720100027154 4.3898943253267575 #
plane-surface $-1 43.961302529984437 0 0 -1 0 0 0 0 1 forward_v I I I I #
coedge $-1 $223 $221 $225 $319 reversed $141 $-1 #
edge $-1 $236 -5.8956119528691726 $321 5.8956119528691726 $235 $373 forward 7 unknown #
vertex $-1 $319 $374 #
straight-curve $-1 -43.961302529984437 -27.327597128299811 0 0 0 -1 I I #
edge $-1 $317 -27.327597128299811 $321 27.327597128299811 $315 $375 forward 7 unknown #
straight-curve $-1 0 -27.327597128299811 -5.8956119528691726 -1 0 0 I I #
vertex $-1 $228 $376 #
straight-curve $-1 0 27.327597128299811 -5.8956119528691726 1 0 0 I I #
point $-1 43.961302529984437 27.327597128299811 -5.8956119528691726 #
point $-1 43.961302529984437 -27.327597128299811 -5.8956119528691726 #
straight-curve $-1 -43.961302529984437 0 5.8956119528691726 0 -1 0 I I #
point $-1 -43.961302529984437 27.327597128299811 5.8956119528691726 #
point $-1 -43.961302529984437 -27.327597128299811 5.8956119528691726 #
straight-curve $-1 43.961302529984437 -27.327597128299811 0 0 0 -1 I I #
straight-curve $-1 43.961302529984437 27.327597128299811 0 0 0 -1 I I #
plane-surface $-1 43.961302529984437 0 0 -1 0 0 0 0 1 forward_v I I I I #
coedge $-1 $342 $333 $332 $377 forward $246 $-1 #
coedge $-1 $249 $248 $331 $377 reversed $96 $-1 #
coedge $-1 $331 $378 $250 $334 reversed $246 $-1 #
edge $-1 $335 -43.961302529984437 $338 43.961302529984437 $333 $379 forward 7 unknown #
vertex $-1 $251 $380 #
straight-curve $-1 -43.961302529984437 0 5.8956119528691726 0 -1 0 I I #
coedge $-1 $258 $252 $378 $381 forward $259 $-1 #
vertex $-1 $253 $382 #
straight-curve $-1 43.961302529984437 0 5.8956119528691726 0 1 0 I I #
point $-1 43.961302529984437 -27.327597128299811 5.8956119528691726 #
point $-1 -43.961302529984437 -27.327597128299811 5.8956119528691726 #
coedge $-1 $378 $331 $261 $343 reversed $246 $-1 #
edge $-1 $344 -43.961302529984437 $346 43.961302529984437 $342 $383 forward 7 unknown #
vertex $-1 $381 $384 #
straight-curve $-1 43.961302529984437 -29.463684556304177 2.8956119528691726 0 -1 0 I I #
vertex $-1 $263 $385 #
straight-curve $-1 -43.961302529984437 -29.463684556304177 2.8956119528691726 0 1 0 I I #
edge $-1 $349 56.822155029934073 $352 60.942418487880254 $267 $386 forward 7 unknown #
vertex $-1 $281 $387 #
straight-curve $-1 28.47925670036615 -2.2779873533979842 5.8956119528691744 1 0 0 I I #
edge $-1 $352 -3.0732918032211565 $278 4.663900702867501 $277 $388 forward 7 unknown #
vertex $-1 $351 $389 #
straight-curve $-1 -11.370184769983382 -2.2779873533979842 70.104046665638677 -0.62932038083071107 0 0.77714596973225614 I I #
point $-1 40.624779058890731 -2.2779873533979842 5.8956119528691744 #
point $-1 43.961302529984437 5.4592051526906733 1.7753484949229943 #
straight-curve $-1 43.961302529984437 0 5.8956119528691726 0 1 0 I I #
vertex $-1 $284 $390 #
point $-1 41.420033920385329 -0.067360923086937419 1.8417736632351531 #
vertex $-1 $288 $391 #
point $-1 41.420033920385329 3.2485787223796301 1.8417736632351531 #
coedge $-1 $303 $302 $295 $362 forward $292 $-1 #
edge $-1 $363 21.429740161620472 $366 26.805207702288712 $361 $392 forward 7 unknown #
vertex $-1 $307 $393 #
straight-curve $-1 -56.622630764053199 21.258520070170427 5.8956119528691744 -1 0 0 I I #
edge $-1 $366 -12.934919570034657 $304 -3.7122814302368834 $303 $394 forward 7 unknown #
vertex $-1 $365 $395 #
straight-curve $-1 -43.961302529984437 21.258520070170427 0.52014441220093488 0.61566146476048833 0 0.78801076186113728 I I #
point $-1 -39.761527120770594 21.258520070170427 5.8956119528691726 #
point $-1 -43.961302529984437 12.035881930372653 0.52014441220093488 #
straight-curve $-1 -43.961302529984437 0 5.8956119528691726 0 -1 0 I I #
vertex $-1 $310 $396 #
point $-1 -39.367396281341357 16.64720100027154 3.1628646983570601 #
straight-curve $-1 -43.961302529984437 27.327597128299811 0 0 0 -1 I I #
point $-1 -43.961302529984437 -27.327597128299811 -5.8956119528691726 #
straight-curve $-1 -43.961302529984437 0 -5.8956119528691726 0 1 0 I I #
point $-1 -43.961302529984437 27.327597128299811 -5.8956119528691726 #
edge $-1 $335 -1.5 $346 1.5 $332 $397 forward 7 unknown #
coedge $-1 $333 $342 $337 $381 reversed $246 $-1 #
straight-curve $-1 0 -31.599771984308543 5.8956119528691726 1 0 0 I I #
point $-1 -43.961302529984437 -31.599771984308543 5.8956119528691726 #
edge $-1 $338 -1.5 $344 1.5 $337 $398 forward 7 unknown #
point $-1 43.961302529984437 -31.599771984308543 5.8956119528691726 #
straight-curve $-1 0 -31.599771984308543 2.8956119528691726 -1 0 0 I I #
point $-1 43.961302529984437 -31.599771984308543 2.8956119528691726 #
point $-1 -43.961302529984437 -31.599771984308543 2.8956119528691726 #
straight-curve $-1 43.961302529984437 -2.2779873533979842 62.717766982803248 0 0 -1 I I #
point $-1 43.961302529984437 -2.2779873533979842 5.8956119528691726 #
straight-curve $-1 43.961302529984437 0.79530444982317228 1.7753484949229872 0 1 0 I I #
point $-1 43.961302529984437 -2.2779873533979842 1.7753484949229943 #
point $-1 40.013567569822357 -0.067360923086937419 1.9895992521366983 #
point $-1 40.013567569822357 3.2485787223796301 1.9895992521366983 #
straight-curve $-1 -43.961302529984437 21.258520070170427 27.325352114489647 0 0 -1 I I #
point $-1 -43.961302529984437 21.258520070170427 5.8956119528691726 #
straight-curve $-1 -43.961302529984437 8.32360050013577 0.52014441220093066 0 -1 0 I I #
point $-1 -43.961302529984437 21.258520070170427 0.52014441220093488 #
point $-1 -39.108872335690378 16.64720100027154 1.0573563584246215 #
straight-curve $-1 -43.961302529984437 -31.599771984308543 4.3956119528691726 0 0 -1 I I #
straight-curve $-1 43.961302529984437 -31.599771984308543 4.3956119528691726 0 0 -1 I I #
End-of-ACIS-data 