500 0 18 0           
7 Unknown 11 ACIS 5.0 NT 24 Fri Mar 26 19:05:59 1999 
-1 9.9999999999999995e-007 1e-010 
body $-1 $18 $-1 $19 #
body $-1 $20 $-1 $21 #
body $-1 $22 $-1 $23 #
body $-1 $24 $-1 $25 #
body $-1 $26 $-1 $27 #
body $-1 $28 $-1 $29 #
body $-1 $30 $-1 $31 #
body $-1 $32 $-1 $33 #
body $-1 $34 $-1 $35 #
body $-1 $36 $-1 $37 #
body $-1 $38 $-1 $39 #
body $-1 $40 $-1 $41 #
body $-1 $42 $-1 $43 #
body $-1 $44 $-1 $45 #
body $-1 $46 $-1 $47 #
body $-1 $48 $-1 $49 #
body $-1 $50 $-1 $51 #
body $-1 $52 $-1 $53 #
lump $-1 $-1 $54 $0 #
transform $-1 1 0 0 0 1 0 0 0 1 64.18530838953825 26.40104885840503 9.1643473561932645 1 rotate no_reflect no_shear #
lump $-1 $-1 $55 $1 #
transform $-1 1 0 0 0 1 0 0 0 1 64.18530838953825 26.40104885840503 9.1643473561932645 1 rotate no_reflect no_shear #
lump $-1 $-1 $56 $2 #
transform $-1 1 0 0 0 1 0 0 0 1 64.18530838953825 26.40104885840503 9.1643473561932645 1 rotate no_reflect no_shear #
lump $-1 $-1 $57 $3 #
transform $-1 1 0 0 0 1 0 0 0 1 64.18530838953825 26.40104885840503 9.1643473561932645 1 rotate no_reflect no_shear #
lump $-1 $-1 $58 $4 #
transform $-1 1 0 0 0 1 0 0 0 1 64.18530838953825 26.40104885840503 9.1643473561932645 1 rotate no_reflect no_shear #
lump $-1 $-1 $59 $5 #
transform $-1 1 0 0 0 1 0 0 0 1 64.18530838953825 26.40104885840503 9.1643473561932645 1 rotate no_reflect no_shear #
lump $-1 $-1 $60 $6 #
transform $-1 1 0 0 0 1 0 0 0 1 64.18530838953825 26.40104885840503 9.1643473561932645 1 rotate no_reflect no_shear #
lump $-1 $-1 $61 $7 #
transform $-1 1 0 0 0 1 0 0 0 1 64.18530838953825 26.40104885840503 9.1643473561932645 1 rotate no_reflect no_shear #
lump $-1 $-1 $62 $8 #
transform $-1 1 0 0 0 1 0 0 0 1 64.18530838953825 26.40104885840503 9.1643473561932645 1 rotate no_reflect no_shear #
lump $-1 $-1 $63 $9 #
transform $-1 1 0 0 0 1 0 0 0 1 64.18530838953825 26.40104885840503 9.1643473561932645 1 rotate no_reflect no_shear #
lump $-1 $-1 $64 $10 #
transform $-1 1 0 0 0 1 0 0 0 1 64.18530838953825 26.40104885840503 9.1643473561932645 1 rotate no_reflect no_shear #
lump $-1 $-1 $65 $11 #
transform $-1 1 0 0 0 1 0 0 0 1 64.18530838953825 26.40104885840503 9.1643473561932645 1 rotate no_reflect no_shear #
lump $-1 $-1 $66 $12 #
transform $-1 1 0 0 0 1 0 0 0 1 64.18530838953825 26.40104885840503 9.1643473561932645 1 rotate no_reflect no_shear #
lump $-1 $-1 $67 $13 #
transform $-1 1 0 0 0 1 0 0 0 1 64.18530838953825 26.40104885840503 9.1643473561932645 1 rotate no_reflect no_shear #
lump $-1 $-1 $68 $14 #
transform $-1 1 0 0 0 1 0 0 0 1 64.18530838953825 26.40104885840503 9.1643473561932645 1 rotate no_reflect no_shear #
lump $-1 $-1 $69 $15 #
transform $-1 1 0 0 0 1 0 0 0 1 64.18530838953825 26.40104885840503 9.1643473561932645 1 rotate no_reflect no_shear #
lump $-1 $-1 $70 $16 #
transform $-1 1 0 0 0 1 0 0 0 1 64.18530838953825 26.40104885840503 9.1643473561932645 1 rotate no_reflect no_shear #
lump $-1 $-1 $71 $17 #
transform $-1 1 0 0 0 1 0 0 0 1 64.18530838953825 26.40104885840503 9.1643473561932645 1 rotate no_reflect no_shear #
shell $-1 $-1 $-1 $72 $-1 $18 #
shell $-1 $-1 $-1 $73 $-1 $20 #
shell $-1 $-1 $-1 $74 $-1 $22 #
shell $-1 $-1 $-1 $75 $-1 $24 #
shell $-1 $-1 $-1 $76 $-1 $26 #
shell $-1 $-1 $-1 $77 $-1 $28 #
shell $-1 $-1 $-1 $78 $-1 $30 #
shell $-1 $-1 $-1 $79 $-1 $32 #
shell $-1 $-1 $-1 $80 $-1 $34 #
shell $-1 $-1 $-1 $81 $-1 $36 #
shell $-1 $-1 $-1 $82 $-1 $38 #
shell $-1 $-1 $-1 $83 $-1 $40 #
shell $-1 $-1 $-1 $84 $-1 $42 #
shell $-1 $-1 $-1 $85 $-1 $44 #
shell $-1 $-1 $-1 $86 $-1 $46 #
shell $-1 $-1 $-1 $87 $-1 $48 #
shell $-1 $-1 $-1 $88 $-1 $50 #
shell $-1 $-1 $-1 $89 $-1 $52 #
face $-1 $90 $91 $54 $-1 $92 forward single #
face $-1 $93 $94 $55 $-1 $95 reversed single #
face $-1 $96 $97 $56 $-1 $98 reversed single #
face $-1 $99 $100 $57 $-1 $101 forward single #
face $-1 $102 $103 $58 $-1 $104 reversed single #
face $-1 $105 $106 $59 $-1 $107 forward single #
face $-1 $108 $109 $60 $-1 $110 reversed single #
face $-1 $111 $112 $61 $-1 $113 forward single #
face $-1 $114 $115 $62 $-1 $116 forward single #
face $-1 $117 $118 $63 $-1 $119 reversed single #
face $-1 $120 $121 $64 $-1 $122 forward single #
face $-1 $123 $124 $65 $-1 $125 forward single #
face $-1 $126 $127 $66 $-1 $128 reversed single #
face $-1 $129 $130 $67 $-1 $131 forward single #
face $-1 $132 $133 $68 $-1 $134 forward single #
face $-1 $135 $136 $69 $-1 $137 reversed single #
face $-1 $138 $139 $70 $-1 $140 forward single #
face $-1 $141 $142 $71 $-1 $143 forward single #
face $-1 $144 $145 $54 $-1 $146 reversed single #
loop $-1 $-1 $147 $72 #
plane-surface $-1 0 0 9.1643473561932645 0 0 1 1 0 0 forward_v I I I I #
face $-1 $148 $149 $55 $-1 $150 reversed single #
loop $-1 $-1 $151 $73 #
plane-surface $-1 -59.727268868690459 0 4.5042262429279845 0 0 1 1 0 0 forward_v I I I I #
face $-1 $152 $153 $56 $-1 $154 reversed single #
loop $-1 $-1 $155 $74 #
plane-surface $-1 -20.8827129821677 79.836062617943469 132.99523334868269 1 0 0 0 -0.70710678939079041 -0.70710677298230451 forward_v I I I I #
face $-1 $156 $157 $57 $-1 $158 forward single #
loop $-1 $159 $160 $75 #
cone-surface $-1 -8.2123367306599562 23.593656375803643 6.3569548394762956 0 -0.70710678939079041 -0.70710677298230451 1 0 0 1 I I 0 1 1 forward I I I I #
face $-1 $161 $162 $58 $-1 $163 reversed single #
loop $-1 $-1 $164 $76 #
plane-surface $-1 -8.2123367306599562 -10.935672064824843 42.223500772281838 0 0.70710678939079041 0.70710677298230451 1 0 0 forward_v I I I I #
face $-1 $165 $166 $59 $-1 $167 forward single #
loop $-1 $168 $169 $77 #
cone-surface $-1 17.128415772355524 23.593656375803643 6.3569548394762956 0 -0.70710678939079041 -0.70710677298230451 1 0 0 1 I I 0 1 1 forward I I I I #
face $-1 $170 $171 $60 $-1 $172 reversed single #
loop $-1 $-1 $173 $78 #
plane-surface $-1 -29.854314335408244 -137.57326508151331 64.601254788368948 -1 0 0 0 -0.86602541151947299 0.49999998660252726 forward_v I I I I #
face $-1 $174 $175 $61 $-1 $176 forward single #
loop $-1 $177 $178 $79 #
cone-surface $-1 -42.26931809726166 -21.352033006219699 3.3331636155791347 0 0.86602541151947299 -0.49999998660252726 2 0 0 1 I I 0 1 2 forward I I I I #
face $-1 $179 $180 $62 $-1 $181 forward single #
loop $-1 $182 $183 $80 #
cone-surface $-1 -34.820315840149618 -21.352033006219699 3.3331636155791347 0 0.86602541151947299 -0.49999998660252726 2 0 0 1 I I 0 1 2 forward I I I I #
face $-1 $184 $185 $63 $-1 $186 reversed single #
loop $-1 $-1 $187 $81 #
plane-surface $-1 -1.1857433423726285 -137.57326508151331 64.601254788368948 -1 0 0 0 -0.86602541151947299 0.49999998660252726 forward_v I I I I #
face $-1 $188 $189 $64 $-1 $190 forward single #
loop $-1 $191 $192 $82 #
cone-surface $-1 -13.600747104226045 -21.352033006219699 3.3331636155791347 0 0.86602541151947299 -0.49999998660252726 2 0 0 1 I I 0 1 2 forward I I I I #
face $-1 $193 $194 $65 $-1 $195 forward single #
loop $-1 $196 $197 $83 #
cone-surface $-1 -6.1517448471139957 -21.352033006219699 3.3331636155791347 0 0.86602541151947299 -0.49999998660252726 2 0 0 1 I I 0 1 2 forward I I I I #
face $-1 $198 $199 $66 $-1 $200 reversed single #
loop $-1 $-1 $201 $84 #
plane-surface $-1 27.482827650662987 -137.57326508151331 64.601254788368948 -1 0 0 0 -0.86602541151947299 0.49999998660252726 forward_v I I I I #
face $-1 $202 $203 $67 $-1 $204 forward single #
loop $-1 $205 $206 $85 #
cone-surface $-1 15.067823888809571 -21.352033006219699 3.3331636155791347 0 0.86602541151947299 -0.49999998660252726 2 0 0 1 I I 0 1 2 forward I I I I #
face $-1 $207 $208 $68 $-1 $209 forward single #
loop $-1 $210 $211 $86 #
cone-surface $-1 22.516826145921627 -21.352033006219699 3.3331636155791347 0 0.86602541151947299 -0.49999998660252726 2 0 0 1 I I 0 1 2 forward I I I I #
face $-1 $212 $213 $69 $-1 $214 reversed single #
loop $-1 $-1 $215 $87 #
plane-surface $-1 56.151398643698599 -137.57326508151331 64.601254788368948 -1 0 0 0 -0.86602541151947299 0.49999998660252726 forward_v I I I I #
face $-1 $216 $217 $70 $-1 $218 forward single #
loop $-1 $219 $220 $88 #
cone-surface $-1 43.736394881845186 -21.352033006219699 3.3331636155791347 0 0.86602541151947299 -0.49999998660252726 2 0 0 1 I I 0 1 2 forward I I I I #
face $-1 $221 $222 $71 $-1 $223 forward single #
loop $-1 $224 $225 $89 #
cone-surface $-1 51.185397138957242 -21.352033006219699 3.3331636155791347 0 0.86602541151947299 -0.49999998660252726 2 0 0 1 I I 0 1 2 forward I I I I #
face $-1 $226 $227 $54 $-1 $228 reversed single #
loop $-1 $-1 $229 $90 #
plane-surface $-1 0 0 -9.1643473561932645 0 0 1 1 0 0 forward_v I I I I #
coedge $-1 $230 $231 $232 $233 forward $91 $-1 #
face $-1 $234 $235 $55 $-1 $236 reversed single #
loop $-1 $-1 $237 $93 #
plane-surface $-1 -55.269229347842668 0 6.8342867995606245 -1 0 0 0 0 1 forward_v I I I I #
coedge $-1 $238 $239 $240 $241 forward $94 $-1 #
face $-1 $242 $243 $56 $-1 $244 reversed single #
loop $-1 $-1 $245 $96 #
plane-surface $-1 -8.2123367306599562 -10.935672064824843 42.223500772281838 0 0.70710678939079041 0.70710677298230451 1 0 0 forward_v I I I I #
coedge $-1 $246 $247 $248 $249 reversed $97 $-1 #
face $-1 $-1 $250 $57 $-1 $251 forward single #
loop $-1 $252 $253 $99 #
cone-surface $-1 -8.2123367306599562 22.571494635648033 5.334793123040054 0 -0.70710678939079041 -0.70710677298230451 0.5 0 0 1 I I -0.70710678118654746 0.70710678118654746 0.5 forward I I I I #
loop $-1 $-1 $254 $75 #
coedge $-1 $160 $160 $255 $256 reversed $100 $-1 #
face $-1 $257 $258 $58 $-1 $259 forward single #
loop $-1 $-1 $260 $102 #
plane-surface $-1 29.798792023863268 79.836062617943469 132.99523334868269 -1 0 0 0 0.70710678939079041 0.70710677298230451 forward_v I I I I #
coedge $-1 $261 $262 $263 $264 reversed $103 $-1 #
face $-1 $-1 $265 $59 $-1 $266 forward single #
loop $-1 $267 $268 $105 #
cone-surface $-1 17.128415772355524 22.571494635648033 5.334793123040054 0 -0.70710678939079041 -0.70710677298230451 0.5 0 0 1 I I -0.70710678118654746 0.70710678118654746 0.5 forward I I I I #
loop $-1 $-1 $269 $77 #
coedge $-1 $169 $169 $270 $271 reversed $106 $-1 #
face $-1 $272 $273 $60 $-1 $274 reversed single #
loop $-1 $-1 $275 $108 #
plane-surface $-1 -38.544816968705632 -26.401048858405019 0.41594811867253156 0 -0.86602541151947299 0.49999998660252726 1 0 0 forward_v I I I I #
coedge $-1 $276 $277 $278 $279 reversed $109 $-1 #
face $-1 $-1 $280 $61 $-1 $281 forward single #
loop $-1 $282 $283 $111 #
cone-surface $-1 -42.26931809726166 -17.962436979669789 1.3761795071228367 0 0.86602541151947299 -0.49999998660252726 1 0 0 1 I I -0.70710678118654746 0.70710678118654746 1 forward I I I I #
loop $-1 $-1 $284 $79 #
coedge $-1 $178 $178 $285 $286 reversed $112 $-1 #
face $-1 $-1 $287 $62 $-1 $288 forward single #
loop $-1 $289 $290 $114 #
cone-surface $-1 -34.820315840149618 -17.962436979669789 1.3761795071228367 0 0.86602541151947299 -0.49999998660252726 1 0 0 1 I I -0.70710678118654746 0.70710678118654746 1 forward I I I I #
loop $-1 $-1 $291 $80 #
coedge $-1 $183 $183 $292 $293 reversed $115 $-1 #
face $-1 $294 $295 $63 $-1 $296 reversed single #
loop $-1 $-1 $297 $117 #
plane-surface $-1 -9.8762459756700167 -26.401048858405019 0.41594811867253156 0 -0.86602541151947299 0.49999998660252726 1 0 0 forward_v I I I I #
coedge $-1 $298 $299 $300 $301 reversed $118 $-1 #
face $-1 $-1 $302 $64 $-1 $303 forward single #
loop $-1 $304 $305 $120 #
cone-surface $-1 -13.600747104226045 -17.962436979669789 1.3761795071228367 0 0.86602541151947299 -0.49999998660252726 1 0 0 1 I I -0.70710678118654746 0.70710678118654746 1 forward I I I I #
loop $-1 $-1 $306 $82 #
coedge $-1 $192 $192 $307 $308 reversed $121 $-1 #
face $-1 $-1 $309 $65 $-1 $310 forward single #
loop $-1 $311 $312 $123 #
cone-surface $-1 -6.1517448471139957 -17.962436979669789 1.3761795071228367 0 0.86602541151947299 -0.49999998660252726 1 0 0 1 I I -0.70710678118654746 0.70710678118654746 1 forward I I I I #
loop $-1 $-1 $313 $83 #
coedge $-1 $197 $197 $314 $315 reversed $124 $-1 #
face $-1 $316 $317 $66 $-1 $318 reversed single #
loop $-1 $-1 $319 $126 #
plane-surface $-1 18.792325017365599 -26.401048858405019 0.41594811867253156 0 -0.86602541151947299 0.49999998660252726 1 0 0 forward_v I I I I #
coedge $-1 $320 $321 $322 $323 reversed $127 $-1 #
face $-1 $-1 $324 $67 $-1 $325 forward single #
loop $-1 $326 $327 $129 #
cone-surface $-1 15.067823888809571 -17.962436979669789 1.3761795071228367 0 0.86602541151947299 -0.49999998660252726 1 0 0 1 I I -0.70710678118654746 0.70710678118654746 1 forward I I I I #
loop $-1 $-1 $328 $85 #
coedge $-1 $206 $206 $329 $330 reversed $130 $-1 #
face $-1 $-1 $331 $68 $-1 $332 forward single #
loop $-1 $333 $334 $132 #
cone-surface $-1 22.516826145921627 -17.962436979669789 1.3761795071228367 0 0.86602541151947299 -0.49999998660252726 1 0 0 1 I I -0.70710678118654746 0.70710678118654746 1 forward I I I I #
loop $-1 $-1 $335 $86 #
coedge $-1 $211 $211 $336 $337 reversed $133 $-1 #
face $-1 $338 $339 $69 $-1 $340 reversed single #
loop $-1 $-1 $341 $135 #
plane-surface $-1 47.460896010401214 -26.401048858405019 0.41594811867253156 0 -0.86602541151947299 0.49999998660252726 1 0 0 forward_v I I I I #
coedge $-1 $342 $343 $344 $345 reversed $136 $-1 #
face $-1 $-1 $346 $70 $-1 $347 forward single #
loop $-1 $348 $349 $138 #
cone-surface $-1 43.736394881845186 -17.962436979669789 1.3761795071228367 0 0.86602541151947299 -0.49999998660252726 1 0 0 1 I I -0.70710678118654746 0.70710678118654746 1 forward I I I I #
loop $-1 $-1 $350 $88 #
coedge $-1 $220 $220 $351 $352 reversed $139 $-1 #
face $-1 $-1 $353 $71 $-1 $354 forward single #
loop $-1 $355 $356 $141 #
cone-surface $-1 51.185397138957242 -17.962436979669789 1.3761795071228367 0 0.86602541151947299 -0.49999998660252726 1 0 0 1 I I -0.70710678118654746 0.70710678118654746 1 forward I I I I #
loop $-1 $-1 $357 $89 #
coedge $-1 $225 $225 $358 $359 reversed $142 $-1 #
face $-1 $360 $361 $54 $-1 $362 reversed single #
loop $-1 $-1 $363 $144 #
plane-surface $-1 0 -26.40104885840503 0 0 1 0 0 0 1 forward_v I I I I #
coedge $-1 $364 $365 $366 $367 forward $145 $-1 #
coedge $-1 $368 $147 $369 $370 forward $91 $-1 #
coedge $-1 $147 $368 $371 $372 forward $91 $-1 #
coedge $-1 $373 $374 $147 $233 reversed $375 $-1 #
edge $-1 $376 -26.40104885840503 $377 26.40104885840503 $232 $378 forward 7 unknown #
face $-1 $379 $380 $55 $-1 $381 reversed single #
loop $-1 $-1 $382 $148 #
plane-surface $-1 0 26.40104885840503 0 0 -1 0 0 0 -1 forward_v I I I I #
coedge $-1 $240 $383 $384 $385 reversed $149 $-1 #
coedge $-1 $386 $151 $387 $388 reversed $94 $-1 #
coedge $-1 $151 $386 $389 $390 reversed $94 $-1 #
coedge $-1 $391 $237 $151 $241 reversed $149 $-1 #
edge $-1 $392 -26.40104885840503 $393 26.40104885840503 $240 $394 forward 7 unknown #
face $-1 $395 $396 $56 $-1 $397 forward single #
loop $-1 $-1 $398 $152 #
plane-surface $-1 4.4580395208477874 79.836062617943469 132.99523334868269 -1 0 0 0 0.70710678939079041 0.70710677298230451 forward_v I I I I #
coedge $-1 $399 $400 $401 $402 reversed $153 $-1 #
coedge $-1 $247 $155 $403 $404 reversed $97 $-1 #
coedge $-1 $155 $246 $399 $405 reversed $97 $-1 #
coedge $-1 $401 $406 $155 $249 forward $396 $-1 #
edge $-1 $407 13.516982450566704 $408 17.79455072484906 $248 $409 forward 7 unknown #
loop $-1 $-1 $255 $156 #
plane-surface $-1 -8.2123367306599562 -10.935672064824843 42.223500772281838 0 0.70710678939079041 0.70710677298230451 1 0 0 forward_v I I I I #
loop $-1 $-1 $410 $99 #
coedge $-1 $253 $253 $254 $411 reversed $157 $-1 #
coedge $-1 $254 $254 $253 $411 forward $159 $-1 #
coedge $-1 $255 $255 $160 $256 forward $250 $-1 #
edge $-1 $412 -1.2560740981099875e-015 $412 6.2831853071795996 $255 $413 forward 7 unknown #
face $-1 $414 $415 $58 $-1 $416 forward single #
loop $-1 $-1 $417 $161 #
plane-surface $-1 0 0 9.1643473561932645 0 0 1 1 0 0 forward_v I I I I #
coedge $-1 $418 $419 $420 $421 reversed $162 $-1 #
coedge $-1 $422 $164 $423 $424 reversed $103 $-1 #
coedge $-1 $164 $422 $417 $425 reversed $103 $-1 #
coedge $-1 $426 $427 $164 $264 forward $415 $-1 #
edge $-1 $428 -52.802097716810074 $429 -46.752702579154672 $263 $430 forward 7 unknown #
loop $-1 $-1 $270 $165 #
plane-surface $-1 -8.2123367306599562 -10.935672064824843 42.223500772281838 0 0.70710678939079041 0.70710677298230451 1 0 0 forward_v I I I I #
loop $-1 $-1 $431 $105 #
coedge $-1 $268 $268 $269 $432 reversed $166 $-1 #
coedge $-1 $269 $269 $268 $432 forward $168 $-1 #
coedge $-1 $270 $270 $169 $271 forward $265 $-1 #
edge $-1 $433 -1.2560740981099875e-015 $433 6.2831853071795996 $270 $434 forward 7 unknown #
face $-1 $435 $436 $60 $-1 $437 reversed single #
loop $-1 $-1 $438 $170 #
plane-surface $-1 -47.235319602003017 -137.57326508151331 64.601254788368948 1 0 0 0 0.86602541151947299 -0.49999998660252726 forward_v I I I I #
coedge $-1 $439 $440 $441 $442 reversed $171 $-1 #
coedge $-1 $277 $173 $443 $444 reversed $109 $-1 #
coedge $-1 $173 $276 $439 $445 reversed $109 $-1 #
coedge $-1 $441 $446 $173 $279 forward $447 $-1 #
edge $-1 $448 42.385583682351623 $449 47.436474156661433 $278 $450 forward 7 unknown #
loop $-1 $-1 $285 $174 #
plane-surface $-1 -38.544816968705632 -26.401048858405019 0.41594811867253156 0 -0.86602541151947299 0.49999998660252726 1 0 0 forward_v I I I I #
loop $-1 $-1 $451 $111 #
coedge $-1 $283 $283 $284 $452 reversed $175 $-1 #
coedge $-1 $284 $284 $283 $452 forward $177 $-1 #
coedge $-1 $285 $285 $178 $286 forward $280 $-1 #
edge $-1 $453 -9.1380717199909102e-017 $453 6.2831853071796004 $285 $454 forward 7 unknown #
loop $-1 $-1 $292 $179 #
plane-surface $-1 -38.544816968705632 -26.401048858405019 0.41594811867253156 0 -0.86602541151947299 0.49999998660252726 1 0 0 forward_v I I I I #
loop $-1 $-1 $455 $114 #
coedge $-1 $290 $290 $291 $456 reversed $180 $-1 #
coedge $-1 $291 $291 $290 $456 forward $182 $-1 #
coedge $-1 $292 $292 $183 $293 forward $287 $-1 #
edge $-1 $457 -9.1380717199909102e-017 $457 6.2831853071796004 $292 $458 forward 7 unknown #
face $-1 $459 $460 $63 $-1 $461 reversed single #
loop $-1 $-1 $462 $184 #
plane-surface $-1 -18.566748608967405 -137.57326508151331 64.601254788368948 1 0 0 0 0.86602541151947299 -0.49999998660252726 forward_v I I I I #
coedge $-1 $463 $464 $465 $466 reversed $185 $-1 #
coedge $-1 $299 $187 $467 $468 reversed $118 $-1 #
coedge $-1 $187 $298 $463 $469 reversed $118 $-1 #
coedge $-1 $465 $470 $187 $301 forward $471 $-1 #
edge $-1 $472 42.385583682351623 $473 47.436474156661433 $300 $474 forward 7 unknown #
loop $-1 $-1 $307 $188 #
plane-surface $-1 -9.8762459756700167 -26.401048858405019 0.41594811867253156 0 -0.86602541151947299 0.49999998660252726 1 0 0 forward_v I I I I #
loop $-1 $-1 $475 $120 #
coedge $-1 $305 $305 $306 $476 reversed $189 $-1 #
coedge $-1 $306 $306 $305 $476 forward $191 $-1 #
coedge $-1 $307 $307 $192 $308 forward $302 $-1 #
edge $-1 $477 -9.1380717199909102e-017 $477 6.2831853071796004 $307 $478 forward 7 unknown #
loop $-1 $-1 $314 $193 #
plane-surface $-1 -9.8762459756700167 -26.401048858405019 0.41594811867253156 0 -0.86602541151947299 0.49999998660252726 1 0 0 forward_v I I I I #
loop $-1 $-1 $479 $123 #
coedge $-1 $312 $312 $313 $480 reversed $194 $-1 #
coedge $-1 $313 $313 $312 $480 forward $196 $-1 #
coedge $-1 $314 $314 $197 $315 forward $309 $-1 #
edge $-1 $481 -9.1380717199909102e-017 $481 6.2831853071796004 $314 $482 forward 7 unknown #
face $-1 $483 $484 $66 $-1 $485 reversed single #
loop $-1 $-1 $486 $198 #
plane-surface $-1 10.10182238406821 -137.57326508151331 64.601254788368948 1 0 0 0 0.86602541151947299 -0.49999998660252726 forward_v I I I I #
coedge $-1 $487 $488 $489 $490 reversed $199 $-1 #
coedge $-1 $321 $201 $491 $492 reversed $127 $-1 #
coedge $-1 $201 $320 $487 $493 reversed $127 $-1 #
coedge $-1 $489 $494 $201 $323 forward $495 $-1 #
edge $-1 $496 42.385583682351623 $497 47.436474156661433 $322 $498 forward 7 unknown #
loop $-1 $-1 $329 $202 #
plane-surface $-1 18.792325017365599 -26.401048858405019 0.41594811867253156 0 -0.86602541151947299 0.49999998660252726 1 0 0 forward_v I I I I #
loop $-1 $-1 $499 $129 #
coedge $-1 $327 $327 $328 $500 reversed $203 $-1 #
coedge $-1 $328 $328 $327 $500 forward $205 $-1 #
coedge $-1 $329 $329 $206 $330 forward $324 $-1 #
edge $-1 $501 -9.1380717199909102e-017 $501 6.2831853071796004 $329 $502 forward 7 unknown #
loop $-1 $-1 $336 $207 #
plane-surface $-1 18.792325017365599 -26.401048858405019 0.41594811867253156 0 -0.86602541151947299 0.49999998660252726 1 0 0 forward_v I I I I #
loop $-1 $-1 $503 $132 #
coedge $-1 $334 $334 $335 $504 reversed $208 $-1 #
coedge $-1 $335 $335 $334 $504 forward $210 $-1 #
coedge $-1 $336 $336 $211 $337 forward $331 $-1 #
edge $-1 $505 -9.1380717199909102e-017 $505 6.2831853071796004 $336 $506 forward 7 unknown #
face $-1 $507 $508 $69 $-1 $509 reversed single #
loop $-1 $-1 $510 $212 #
plane-surface $-1 38.770393377103829 -137.57326508151331 64.601254788368948 1 0 0 0 0.86602541151947299 -0.49999998660252726 forward_v I I I I #
coedge $-1 $511 $512 $513 $514 reversed $213 $-1 #
coedge $-1 $343 $215 $515 $516 reversed $136 $-1 #
coedge $-1 $215 $342 $511 $517 reversed $136 $-1 #
coedge $-1 $513 $518 $215 $345 forward $519 $-1 #
edge $-1 $520 42.385583682351623 $521 47.436474156661433 $344 $522 forward 7 unknown #
loop $-1 $-1 $351 $216 #
plane-surface $-1 47.460896010401214 -26.401048858405019 0.41594811867253156 0 -0.86602541151947299 0.49999998660252726 1 0 0 forward_v I I I I #
loop $-1 $-1 $523 $138 #
coedge $-1 $349 $349 $350 $524 reversed $217 $-1 #
coedge $-1 $350 $350 $349 $524 forward $219 $-1 #
coedge $-1 $351 $351 $220 $352 forward $346 $-1 #
edge $-1 $525 -9.1380717199909102e-017 $525 6.2831853071796004 $351 $526 forward 7 unknown #
loop $-1 $-1 $358 $221 #
plane-surface $-1 47.460896010401214 -26.401048858405019 0.41594811867253156 0 -0.86602541151947299 0.49999998660252726 1 0 0 forward_v I I I I #
loop $-1 $-1 $527 $141 #
coedge $-1 $356 $356 $357 $528 reversed $222 $-1 #
coedge $-1 $357 $357 $356 $528 forward $224 $-1 #
coedge $-1 $358 $358 $225 $359 forward $353 $-1 #
edge $-1 $529 -9.1380717199909102e-017 $529 6.2831853071796004 $358 $530 forward 7 unknown #
face $-1 $531 $532 $54 $-1 $533 reversed single #
loop $-1 $-1 $534 $226 #
plane-surface $-1 -64.18530838953825 0 0 1 0 0 0 0 -1 forward_v I I I I #
coedge $-1 $535 $371 $536 $537 forward $227 $-1 #
coedge $-1 $538 $229 $535 $539 forward $145 $-1 #
coedge $-1 $229 $538 $540 $541 forward $145 $-1 #
coedge $-1 $374 $373 $229 $367 reversed $375 $-1 #
edge $-1 $542 -26.40104885840503 $543 26.40104885840503 $366 $544 forward 7 unknown #
coedge $-1 $231 $230 $545 $546 forward $91 $-1 #
coedge $-1 $547 $548 $230 $370 reversed $532 $-1 #
edge $-1 $377 -64.18530838953825 $549 64.18530838953825 $369 $550 forward 7 unknown #
coedge $-1 $363 $551 $231 $372 reversed $227 $-1 #
edge $-1 $552 -64.18530838953825 $376 64.18530838953825 $371 $553 forward 7 unknown #
coedge $-1 $366 $232 $551 $554 forward $375 $-1 #
coedge $-1 $232 $366 $547 $555 reversed $375 $-1 #
loop $-1 $-1 $373 $531 #
vertex $-1 $233 $556 #
vertex $-1 $233 $557 #
straight-curve $-1 64.18530838953825 0 9.1643473561932645 0 1 0 I I #
face $-1 $558 $559 $55 $-1 $560 forward single #
loop $-1 $-1 $561 $234 #
plane-surface $-1 -64.18530838953825 0 0 1 0 0 0 0 -1 forward_v I I I I #
coedge $-1 $389 $562 $391 $563 forward $235 $-1 #
coedge $-1 $237 $391 $564 $565 reversed $149 $-1 #
coedge $-1 $566 $387 $237 $385 forward $567 $-1 #
edge $-1 $393 1.0870828431476722 $568 5.7472039564129522 $384 $569 forward 7 unknown #
coedge $-1 $239 $238 $561 $570 reversed $94 $-1 #
coedge $-1 $384 $571 $238 $388 forward $567 $-1 #
edge $-1 $572 -34.32167395519302 $393 -25.405594913497438 $387 $573 forward 7 unknown #
coedge $-1 $574 $382 $239 $390 forward $235 $-1 #
edge $-1 $392 25.405594913497438 $575 34.32167395519302 $389 $576 forward 7 unknown #
coedge $-1 $383 $240 $382 $563 reversed $149 $-1 #
vertex $-1 $390 $577 #
vertex $-1 $388 $578 #
straight-curve $-1 -55.269229347842668 0 4.5042262429279845 0 -1 0 I I #
face $-1 $-1 $579 $56 $-1 $580 reversed single #
loop $-1 $-1 $248 $242 #
plane-surface $-1 0 0 9.1643473561932645 0 0 1 1 0 0 forward_v I I I I #
coedge $-1 $581 $582 $583 $584 reversed $243 $-1 #
coedge $-1 $585 $245 $247 $405 forward $153 $-1 #
coedge $-1 $245 $585 $581 $586 forward $153 $-1 #
coedge $-1 $583 $248 $245 $402 forward $396 $-1 #
edge $-1 $408 -16.776544616837722 $587 8.5642078861777655 $401 $588 forward 7 unknown #
coedge $-1 $589 $590 $246 $404 forward $579 $-1 #
edge $-1 $591 -61.610837691691856 $407 -57.333269318148083 $403 $592 forward 7 unknown #
edge $-1 $408 46.752702579154672 $591 52.802097716810074 $247 $593 forward 7 unknown #
coedge $-1 $248 $583 $589 $594 forward $396 $-1 #
vertex $-1 $404 $595 #
vertex $-1 $249 $596 #
straight-curve $-1 -20.8827129821677 39.918031308971734 9.1643473561932609 0 -1 0 I I #
coedge $-1 $410 $410 $-1 $597 reversed $252 $-1 #
edge $-1 $598 0 $598 6.2831853071796004 $253 $599 forward 7 unknown #
vertex $-1 $256 $600 #
ellipse-curve $-1 -8.2123367306599562 24.26226472126385 7.0255631694213756 0 0.70710678939079041 0.70710677298230451 1 0 0 1 I I #
face $-1 $-1 $601 $58 $-1 $602 reversed single #
loop $-1 $-1 $426 $257 #
plane-surface $-1 4.4580395208477874 79.836062617943469 132.99523334868269 -1 0 0 0 0.70710678939079041 0.70710677298230451 forward_v I I I I #
coedge $-1 $420 $603 $262 $425 forward $258 $-1 #
coedge $-1 $419 $260 $422 $604 reversed $162 $-1 #
coedge $-1 $260 $418 $605 $606 reversed $162 $-1 #
coedge $-1 $607 $417 $260 $421 forward $258 $-1 #
edge $-1 $608 -17.79455072484906 $609 -13.516982450566704 $420 $610 forward 7 unknown #
coedge $-1 $262 $261 $418 $604 forward $103 $-1 #
coedge $-1 $611 $605 $261 $424 forward $601 $-1 #
edge $-1 $612 -33.904960389193249 $428 -8.5642078861777655 $423 $613 forward 7 unknown #
edge $-1 $429 8.5642078861777655 $608 33.904960389193249 $417 $614 forward 7 unknown #
coedge $-1 $427 $263 $603 $615 reversed $415 $-1 #
coedge $-1 $263 $426 $611 $616 reversed $415 $-1 #
vertex $-1 $424 $617 #
vertex $-1 $425 $618 #
straight-curve $-1 4.4580395208477874 -10.935672064824843 42.223500772281838 0 -0.70710677298230451 0.70710678939079041 I I #
coedge $-1 $431 $431 $-1 $619 reversed $267 $-1 #
edge $-1 $620 0 $620 6.2831853071796004 $268 $621 forward 7 unknown #
vertex $-1 $271 $622 #
ellipse-curve $-1 17.128415772355524 24.26226472126385 7.0255631694213756 0 0.70710678939079041 0.70710677298230451 1 0 0 1 I I #
face $-1 $-1 $447 $60 $-1 $623 forward single #
loop $-1 $-1 $624 $272 #
plane-surface $-1 0 -26.40104885840503 0 0 1 0 0 0 1 forward_v I I I I #
coedge $-1 $625 $626 $627 $628 reversed $273 $-1 #
coedge $-1 $629 $275 $277 $445 forward $171 $-1 #
coedge $-1 $275 $629 $625 $630 forward $171 $-1 #
coedge $-1 $627 $278 $275 $442 forward $447 $-1 #
edge $-1 $449 10.581905851055428 $631 27.962911117650201 $441 $632 forward 7 unknown #
coedge $-1 $633 $634 $276 $444 forward $436 $-1 #
edge $-1 $635 -31.88467927551196 $448 -23.136280037991209 $443 $636 forward 7 unknown #
edge $-1 $449 -10.101781219296267 $635 2.1337734882535526e-014 $277 $637 forward 7 unknown #
coedge $-1 $278 $627 $633 $638 forward $447 $-1 #
loop $-1 $-1 $627 $435 #
vertex $-1 $444 $639 #
vertex $-1 $279 $640 #
straight-curve $-1 -29.854314335408244 -68.786632540756656 9.1643473561932645 0 1 0 I I #
coedge $-1 $451 $451 $-1 $641 reversed $282 $-1 #
edge $-1 $642 0 $642 6.2831853071796004 $283 $643 forward 7 unknown #
vertex $-1 $286 $644 #
ellipse-curve $-1 -42.26931809726166 -23.875603621250121 4.7901477374328971 0 -0.86602541151947299 0.49999998660252726 2 0 0 1 I I #
coedge $-1 $455 $455 $-1 $645 reversed $289 $-1 #
edge $-1 $646 0 $646 6.2831853071796004 $290 $647 forward 7 unknown #
vertex $-1 $293 $648 #
ellipse-curve $-1 -34.820315840149618 -23.875603621250121 4.7901477374328971 0 -0.86602541151947299 0.49999998660252726 2 0 0 1 I I #
face $-1 $-1 $471 $63 $-1 $649 forward single #
loop $-1 $-1 $650 $294 #
plane-surface $-1 0 -26.40104885840503 0 0 1 0 0 0 1 forward_v I I I I #
coedge $-1 $651 $652 $653 $654 reversed $295 $-1 #
coedge $-1 $655 $297 $299 $469 forward $185 $-1 #
coedge $-1 $297 $655 $651 $656 forward $185 $-1 #
coedge $-1 $653 $300 $297 $466 forward $471 $-1 #
edge $-1 $473 -3.7523796454623799 $657 13.628625621132397 $465 $658 forward 7 unknown #
coedge $-1 $659 $660 $298 $468 forward $460 $-1 #
edge $-1 $661 -31.88467927551196 $472 -23.136280037991209 $467 $662 forward 7 unknown #
edge $-1 $473 -10.101781219296267 $661 2.1337734882535526e-014 $299 $663 forward 7 unknown #
coedge $-1 $300 $653 $659 $664 forward $471 $-1 #
loop $-1 $-1 $653 $459 #
vertex $-1 $468 $665 #
vertex $-1 $301 $666 #
straight-curve $-1 -1.1857433423726285 -68.786632540756656 9.1643473561932645 0 1 0 I I #
coedge $-1 $475 $475 $-1 $667 reversed $304 $-1 #
edge $-1 $668 0 $668 6.2831853071796004 $305 $669 forward 7 unknown #
vertex $-1 $308 $670 #
ellipse-curve $-1 -13.600747104226045 -23.875603621250121 4.7901477374328971 0 -0.86602541151947299 0.49999998660252726 2 0 0 1 I I #
coedge $-1 $479 $479 $-1 $671 reversed $311 $-1 #
edge $-1 $672 0 $672 6.2831853071796004 $312 $673 forward 7 unknown #
vertex $-1 $315 $674 #
ellipse-curve $-1 -6.1517448471139957 -23.875603621250121 4.7901477374328971 0 -0.86602541151947299 0.49999998660252726 2 0 0 1 I I #
face $-1 $-1 $495 $66 $-1 $675 forward single #
loop $-1 $-1 $676 $316 #
plane-surface $-1 0 -26.40104885840503 0 0 1 0 0 0 1 forward_v I I I I #
coedge $-1 $677 $678 $679 $680 reversed $317 $-1 #
coedge $-1 $681 $319 $321 $493 forward $199 $-1 #
coedge $-1 $319 $681 $677 $682 forward $199 $-1 #
coedge $-1 $679 $322 $319 $490 forward $495 $-1 #
edge $-1 $497 -18.086665141980188 $683 -0.70565987538541108 $489 $684 forward 7 unknown #
coedge $-1 $685 $686 $320 $492 forward $484 $-1 #
edge $-1 $687 -31.88467927551196 $496 -23.136280037991209 $491 $688 forward 7 unknown #
edge $-1 $497 -10.101781219296267 $687 2.1337734882535526e-014 $321 $689 forward 7 unknown #
coedge $-1 $322 $679 $685 $690 forward $495 $-1 #
loop $-1 $-1 $679 $483 #
vertex $-1 $492 $691 #
vertex $-1 $323 $692 #
straight-curve $-1 27.482827650662987 -68.786632540756656 9.1643473561932645 0 1 0 I I #
coedge $-1 $499 $499 $-1 $693 reversed $326 $-1 #
edge $-1 $694 0 $694 6.2831853071796004 $327 $695 forward 7 unknown #
vertex $-1 $330 $696 #
ellipse-curve $-1 15.067823888809571 -23.875603621250121 4.7901477374328971 0 -0.86602541151947299 0.49999998660252726 2 0 0 1 I I #
coedge $-1 $503 $503 $-1 $697 reversed $333 $-1 #
edge $-1 $698 0 $698 6.2831853071796004 $334 $699 forward 7 unknown #
vertex $-1 $337 $700 #
ellipse-curve $-1 22.516826145921627 -23.875603621250121 4.7901477374328971 0 -0.86602541151947299 0.49999998660252726 2 0 0 1 I I #
face $-1 $-1 $519 $69 $-1 $701 forward single #
loop $-1 $-1 $702 $338 #
plane-surface $-1 0 -26.40104885840503 0 0 1 0 0 0 1 forward_v I I I I #
coedge $-1 $703 $704 $705 $706 reversed $339 $-1 #
coedge $-1 $707 $341 $343 $517 forward $213 $-1 #
coedge $-1 $341 $707 $703 $708 forward $213 $-1 #
coedge $-1 $705 $344 $341 $514 forward $519 $-1 #
edge $-1 $521 -32.420950638497992 $709 -15.039945371903222 $513 $710 forward 7 unknown #
coedge $-1 $711 $712 $342 $516 forward $508 $-1 #
edge $-1 $713 -31.88467927551196 $520 -23.136280037991209 $515 $714 forward 7 unknown #
edge $-1 $521 -10.101781219296267 $713 2.1337734882535526e-014 $343 $715 forward 7 unknown #
coedge $-1 $344 $705 $711 $716 forward $519 $-1 #
loop $-1 $-1 $705 $507 #
vertex $-1 $516 $717 #
vertex $-1 $345 $718 #
straight-curve $-1 56.151398643698599 -68.786632540756656 9.1643473561932645 0 1 0 I I #
coedge $-1 $523 $523 $-1 $719 reversed $348 $-1 #
edge $-1 $720 0 $720 6.2831853071796004 $349 $721 forward 7 unknown #
vertex $-1 $352 $722 #
ellipse-curve $-1 43.736394881845186 -23.875603621250121 4.7901477374328971 0 -0.86602541151947299 0.49999998660252726 2 0 0 1 I I #
coedge $-1 $527 $527 $-1 $723 reversed $355 $-1 #
edge $-1 $724 0 $724 6.2831853071796004 $356 $725 forward 7 unknown #
vertex $-1 $359 $726 #
ellipse-curve $-1 51.185397138957242 -23.875603621250121 4.7901477374328971 0 -0.86602541151947299 0.49999998660252726 2 0 0 1 I I #
face $-1 $-1 $375 $54 $-1 $727 reversed single #
loop $-1 $-1 $547 $360 #
plane-surface $-1 0 26.40104885840503 0 0 -1 0 0 0 -1 forward_v I I I I #
coedge $-1 $728 $545 $548 $729 forward $361 $-1 #
coedge $-1 $551 $363 $364 $539 reversed $227 $-1 #
coedge $-1 $545 $728 $363 $537 reversed $361 $-1 #
edge $-1 $552 -9.1643473561932645 $730 9.1643473561932645 $536 $731 forward 7 unknown #
coedge $-1 $365 $364 $728 $732 forward $145 $-1 #
edge $-1 $543 -64.18530838953825 $730 64.18530838953825 $535 $733 forward 7 unknown #
coedge $-1 $548 $547 $365 $541 reversed $532 $-1 #
edge $-1 $734 -64.18530838953825 $542 64.18530838953825 $540 $735 forward 7 unknown #
vertex $-1 $367 $736 #
vertex $-1 $554 $737 #
straight-curve $-1 64.18530838953825 0 -9.1643473561932645 0 -1 0 I I #
coedge $-1 $534 $536 $368 $546 reversed $361 $-1 #
edge $-1 $549 -26.40104885840503 $552 26.40104885840503 $545 $738 forward 7 unknown #
coedge $-1 $540 $369 $374 $555 forward $532 $-1 #
coedge $-1 $369 $540 $534 $729 reversed $532 $-1 #
vertex $-1 $370 $739 #
straight-curve $-1 0 26.40104885840503 9.1643473561932645 -1 0 0 I I #
coedge $-1 $371 $535 $373 $554 reversed $227 $-1 #
vertex $-1 $546 $740 #
straight-curve $-1 0 -26.40104885840503 9.1643473561932645 1 0 0 I I #
edge $-1 $376 -9.1643473561932645 $543 9.1643473561932645 $373 $741 forward 7 unknown #
edge $-1 $377 -9.1643473561932645 $542 9.1643473561932645 $374 $742 forward 7 unknown #
point $-1 64.18530838953825 -26.40104885840503 9.1643473561932645 #
point $-1 64.18530838953825 26.40104885840503 9.1643473561932645 #
face $-1 $-1 $567 $55 $-1 $743 reversed single #
loop $-1 $-1 $564 $379 #
plane-surface $-1 0 0 9.1643473561932645 0 0 1 1 0 0 forward_v I I I I #
coedge $-1 $744 $745 $386 $570 forward $380 $-1 #
coedge $-1 $382 $574 $746 $747 reversed $235 $-1 #
edge $-1 $748 -5.7472039564129522 $392 -1.0870828431476722 $382 $749 forward 7 unknown #
coedge $-1 $746 $750 $383 $565 forward $559 $-1 #
edge $-1 $568 -26.40104885840503 $748 26.40104885840503 $564 $751 forward 7 unknown #
coedge $-1 $571 $384 $750 $752 reversed $567 $-1 #
loop $-1 $-1 $384 $558 #
vertex $-1 $385 $753 #
straight-curve $-1 -55.269229347842668 -26.40104885840503 3.4171433997803122 0 0 1 I I #
edge $-1 $575 -26.40104885840503 $572 26.40104885840503 $561 $754 forward 7 unknown #
coedge $-1 $387 $566 $744 $755 forward $567 $-1 #
vertex $-1 $570 $756 #
straight-curve $-1 -29.863634434345229 -26.40104885840503 4.5042262429279845 1 0 0 I I #
coedge $-1 $562 $389 $745 $757 reversed $235 $-1 #
vertex $-1 $570 $758 #
straight-curve $-1 -29.863634434345229 26.40104885840503 4.5042262429279845 -1 0 0 I I #
point $-1 -55.269229347842668 26.40104885840503 4.5042262429279845 #
point $-1 -55.269229347842668 -26.40104885840503 4.5042262429279845 #
loop $-1 $-1 $403 $395 #
plane-surface $-1 0 26.40104885840503 0 0 -1 0 0 0 -1 forward_v I I I I #
coedge $-1 $582 $398 $400 $586 reversed $243 $-1 #
coedge $-1 $398 $581 $759 $760 reversed $243 $-1 #
coedge $-1 $406 $401 $398 $584 forward $396 $-1 #
edge $-1 $587 -17.79455072484906 $761 -13.516982450566704 $583 $762 forward 7 unknown #
coedge $-1 $400 $399 $590 $763 reversed $153 $-1 #
edge $-1 $764 -52.802097716810074 $587 -46.752702579154672 $581 $765 forward 7 unknown #
vertex $-1 $402 $766 #
straight-curve $-1 -4.1061683653299781 22.123480584122667 9.1643473561932609 1 0 0 I I #
coedge $-1 $759 $403 $406 $594 reversed $579 $-1 #
coedge $-1 $403 $759 $585 $763 forward $579 $-1 #
vertex $-1 $404 $767 #
straight-curve $-1 -20.8827129821677 26.40104885840503 66.497616674341344 0 0 1 I I #
straight-curve $-1 -20.8827129821677 -10.935672064824843 42.223500772281838 0 0.70710677298230451 -0.70710678939079041 I I #
edge $-1 $761 -4.4580395208477874 $407 20.8827129821677 $589 $768 forward 7 unknown #
point $-1 -20.8827129821677 26.40104885840503 9.1643473561932645 #
point $-1 -20.8827129821677 22.123480584122674 9.1643473561932609 #
edge $-1 $769 1 $769 0 $410 $-1 forward 7 unknown #
vertex $-1 $411 $770 #
ellipse-curve $-1 -8.2123367306599562 22.925048030343429 5.6883465095312067 0 0.70710678939079041 0.70710677298230451 1 0 0 1 I I #
point $-1 -7.2123367306599562 24.262264721263858 7.0255631694213845 #
loop $-1 $-1 $423 $414 #
plane-surface $-1 0 26.40104885840503 0 0 -1 0 0 0 -1 forward_v I I I I #
coedge $-1 $417 $607 $426 $615 forward $258 $-1 #
edge $-1 $612 -52.802097716810074 $608 -46.752702579154672 $418 $771 forward 7 unknown #
coedge $-1 $423 $772 $419 $606 forward $601 $-1 #
edge $-1 $609 57.333269318148083 $612 61.610837691691856 $605 $773 forward 7 unknown #
coedge $-1 $603 $420 $772 $774 forward $258 $-1 #
vertex $-1 $421 $775 #
vertex $-1 $774 $776 #
straight-curve $-1 29.798792023863268 39.918031308971734 9.1643473561932609 0 1 0 I I #
coedge $-1 $772 $423 $427 $616 forward $601 $-1 #
vertex $-1 $606 $777 #
straight-curve $-1 -4.1061683653299781 26.40104885840503 4.886778982649485 -1 0 0 I I #
straight-curve $-1 -4.1061683653299781 22.123480584122667 9.1643473561932609 1 0 0 I I #
edge $-1 $778 13.516982450566704 $429 17.79455072484906 $603 $779 forward 7 unknown #
edge $-1 $428 -61.610837691691856 $778 -57.333269318148083 $611 $780 forward 7 unknown #
point $-1 4.4580395208477874 26.401048858405034 4.8867789826494885 #
point $-1 4.4580395208477874 22.123480584122674 9.1643473561932609 #
edge $-1 $781 1 $781 0 $431 $-1 forward 7 unknown #
vertex $-1 $432 $782 #
ellipse-curve $-1 17.128415772355524 22.925048030343429 5.6883465095312067 0 0.70710678939079041 0.70710677298230451 1 0 0 1 I I #
point $-1 18.128415772355524 24.262264721263858 7.0255631694213845 #
plane-surface $-1 0 0 9.1643473561932645 0 0 1 1 0 0 forward_v I I I I #
coedge $-1 $634 $633 $626 $783 forward $436 $-1 #
coedge $-1 $626 $438 $440 $630 reversed $273 $-1 #
coedge $-1 $438 $625 $624 $783 reversed $273 $-1 #
coedge $-1 $446 $441 $438 $628 forward $447 $-1 #
edge $-1 $631 -47.436474156661433 $784 -42.385583682351623 $627 $785 forward 7 unknown #
coedge $-1 $440 $439 $634 $786 reversed $171 $-1 #
edge $-1 $787 -2.1337734882535526e-014 $631 10.101781219296267 $625 $788 forward 7 unknown #
vertex $-1 $442 $789 #
straight-curve $-1 -19.272408484352816 -21.350158384095224 9.1643473561932645 -1 0 0 I I #
coedge $-1 $624 $443 $446 $638 reversed $436 $-1 #
coedge $-1 $443 $624 $629 $786 forward $436 $-1 #
vertex $-1 $444 $790 #
straight-curve $-1 -29.854314335408244 -26.401048858405034 32.300627394184474 0 0 1 I I #
straight-curve $-1 -29.854314335408244 -26.401048858405019 0.41594811867253156 0 -0.49999998660252726 -0.86602541151947299 I I #
edge $-1 $784 -47.235319602003017 $448 -29.854314335408244 $633 $791 forward 7 unknown #
point $-1 -29.854314335408244 -26.40104885840503 9.1643473561932645 #
point $-1 -29.854314335408244 -21.350158384095224 9.1643473561932645 #
edge $-1 $792 1 $792 0 $451 $-1 forward 7 unknown #
vertex $-1 $452 $793 #
ellipse-curve $-1 -42.26931809726166 -18.828462391189262 1.876179493725364 0 -0.86602541151947299 0.49999998660252726 2 0 0 1 I I #
point $-1 -40.26931809726166 -23.875603621250136 4.7901477374329051 #
edge $-1 $794 1 $794 0 $455 $-1 forward 7 unknown #
vertex $-1 $456 $795 #
ellipse-curve $-1 -34.820315840149618 -18.828462391189262 1.876179493725364 0 -0.86602541151947299 0.49999998660252726 2 0 0 1 I I #
point $-1 -32.820315840149618 -23.875603621250136 4.7901477374329051 #
plane-surface $-1 0 0 9.1643473561932645 0 0 1 1 0 0 forward_v I I I I #
coedge $-1 $660 $659 $652 $796 forward $460 $-1 #
coedge $-1 $652 $462 $464 $656 reversed $295 $-1 #
coedge $-1 $462 $651 $650 $796 reversed $295 $-1 #
coedge $-1 $470 $465 $462 $654 forward $471 $-1 #
edge $-1 $657 -47.436474156661433 $797 -42.385583682351623 $653 $798 forward 7 unknown #
coedge $-1 $464 $463 $660 $799 reversed $185 $-1 #
edge $-1 $800 -2.1337734882535526e-014 $657 10.101781219296267 $651 $801 forward 7 unknown #
vertex $-1 $466 $802 #
straight-curve $-1 -4.9381229878350084 -21.350158384095224 9.1643473561932645 -1 0 0 I I #
coedge $-1 $650 $467 $470 $664 reversed $460 $-1 #
coedge $-1 $467 $650 $655 $799 forward $460 $-1 #
vertex $-1 $468 $803 #
straight-curve $-1 -1.1857433423726285 -26.401048858405034 32.300627394184474 0 0 1 I I #
straight-curve $-1 -1.1857433423726285 -26.401048858405019 0.41594811867253156 0 -0.49999998660252726 -0.86602541151947299 I I #
edge $-1 $797 -18.566748608967405 $472 -1.1857433423726285 $659 $804 forward 7 unknown #
point $-1 -1.1857433423726285 -26.40104885840503 9.1643473561932645 #
point $-1 -1.1857433423726285 -21.350158384095224 9.1643473561932645 #
edge $-1 $805 1 $805 0 $475 $-1 forward 7 unknown #
vertex $-1 $476 $806 #
ellipse-curve $-1 -13.600747104226045 -18.828462391189262 1.876179493725364 0 -0.86602541151947299 0.49999998660252726 2 0 0 1 I I #
point $-1 -11.600747104226045 -23.875603621250136 4.7901477374329051 #
edge $-1 $807 1 $807 0 $479 $-1 forward 7 unknown #
vertex $-1 $480 $808 #
ellipse-curve $-1 -6.1517448471139957 -18.828462391189262 1.876179493725364 0 -0.86602541151947299 0.49999998660252726 2 0 0 1 I I #
point $-1 -4.1517448471139957 -23.875603621250136 4.7901477374329051 #
plane-surface $-1 0 0 9.1643473561932645 0 0 1 1 0 0 forward_v I I I I #
coedge $-1 $686 $685 $678 $809 forward $484 $-1 #
coedge $-1 $678 $486 $488 $682 reversed $317 $-1 #
coedge $-1 $486 $677 $676 $809 reversed $317 $-1 #
coedge $-1 $494 $489 $486 $680 forward $495 $-1 #
edge $-1 $683 -47.436474156661433 $810 -42.385583682351623 $679 $811 forward 7 unknown #
coedge $-1 $488 $487 $686 $812 reversed $199 $-1 #
edge $-1 $813 -2.1337734882535526e-014 $683 10.101781219296267 $677 $814 forward 7 unknown #
vertex $-1 $490 $815 #
straight-curve $-1 9.3961625086827993 -21.350158384095224 9.1643473561932645 -1 0 0 I I #
coedge $-1 $676 $491 $494 $690 reversed $484 $-1 #
coedge $-1 $491 $676 $681 $812 forward $484 $-1 #
vertex $-1 $492 $816 #
straight-curve $-1 27.482827650662987 -26.401048858405034 32.300627394184474 0 0 1 I I #
straight-curve $-1 27.482827650662987 -26.401048858405019 0.41594811867253156 0 -0.49999998660252726 -0.86602541151947299 I I #
edge $-1 $810 10.10182238406821 $496 27.482827650662987 $685 $817 forward 7 unknown #
point $-1 27.482827650662987 -26.40104885840503 9.1643473561932645 #
point $-1 27.482827650662987 -21.350158384095224 9.1643473561932645 #
edge $-1 $818 1 $818 0 $499 $-1 forward 7 unknown #
vertex $-1 $500 $819 #
ellipse-curve $-1 15.067823888809571 -18.828462391189262 1.876179493725364 0 -0.86602541151947299 0.49999998660252726 2 0 0 1 I I #
point $-1 17.067823888809571 -23.875603621250136 4.7901477374329051 #
edge $-1 $820 1 $820 0 $503 $-1 forward 7 unknown #
vertex $-1 $504 $821 #
ellipse-curve $-1 22.516826145921627 -18.828462391189262 1.876179493725364 0 -0.86602541151947299 0.49999998660252726 2 0 0 1 I I #
point $-1 24.516826145921627 -23.875603621250136 4.7901477374329051 #
plane-surface $-1 0 0 9.1643473561932645 0 0 1 1 0 0 forward_v I I I I #
coedge $-1 $712 $711 $704 $822 forward $508 $-1 #
coedge $-1 $704 $510 $512 $708 reversed $339 $-1 #
coedge $-1 $510 $703 $702 $822 reversed $339 $-1 #
coedge $-1 $518 $513 $510 $706 forward $519 $-1 #
edge $-1 $709 -47.436474156661433 $823 -42.385583682351623 $705 $824 forward 7 unknown #
coedge $-1 $512 $511 $712 $825 reversed $213 $-1 #
edge $-1 $826 -2.1337734882535526e-014 $709 10.101781219296267 $703 $827 forward 7 unknown #
vertex $-1 $514 $828 #
straight-curve $-1 23.730448005200607 -21.350158384095224 9.1643473561932645 -1 0 0 I I #
coedge $-1 $702 $515 $518 $716 reversed $508 $-1 #
coedge $-1 $515 $702 $707 $825 forward $508 $-1 #
vertex $-1 $516 $829 #
straight-curve $-1 56.151398643698599 -26.401048858405034 32.300627394184474 0 0 1 I I #
straight-curve $-1 56.151398643698599 -26.401048858405019 0.41594811867253156 0 -0.49999998660252726 -0.86602541151947299 I I #
edge $-1 $823 38.770393377103829 $520 56.151398643698599 $711 $830 forward 7 unknown #
point $-1 56.151398643698599 -26.40104885840503 9.1643473561932645 #
point $-1 56.151398643698599 -21.350158384095224 9.1643473561932645 #
edge $-1 $831 1 $831 0 $523 $-1 forward 7 unknown #
vertex $-1 $524 $832 #
ellipse-curve $-1 43.736394881845186 -18.828462391189262 1.876179493725364 0 -0.86602541151947299 0.49999998660252726 2 0 0 1 I I #
point $-1 45.736394881845186 -23.875603621250136 4.7901477374329051 #
edge $-1 $833 1 $833 0 $527 $-1 forward 7 unknown #
vertex $-1 $528 $834 #
ellipse-curve $-1 51.185397138957242 -18.828462391189262 1.876179493725364 0 -0.86602541151947299 0.49999998660252726 2 0 0 1 I I #
point $-1 53.185397138957242 -23.875603621250136 4.7901477374329051 #
plane-surface $-1 64.18530838953825 0 0 -1 0 0 0 0 1 forward_v I I I I #
coedge $-1 $536 $534 $538 $732 reversed $361 $-1 #
edge $-1 $549 -9.1643473561932645 $734 9.1643473561932645 $548 $835 forward 7 unknown #
vertex $-1 $732 $836 #
straight-curve $-1 -64.18530838953825 -26.40104885840503 0 0 0 -1 I I #
edge $-1 $730 -26.40104885840503 $734 26.40104885840503 $728 $837 forward 7 unknown #
straight-curve $-1 0 -26.40104885840503 -9.1643473561932645 -1 0 0 I I #
vertex $-1 $541 $838 #
straight-curve $-1 0 26.40104885840503 -9.1643473561932645 1 0 0 I I #
point $-1 64.18530838953825 26.40104885840503 -9.1643473561932645 #
point $-1 64.18530838953825 -26.40104885840503 -9.1643473561932645 #
straight-curve $-1 -64.18530838953825 0 9.1643473561932645 0 -1 0 I I #
point $-1 -64.18530838953825 26.40104885840503 9.1643473561932645 #
point $-1 -64.18530838953825 -26.40104885840503 9.1643473561932645 #
straight-curve $-1 64.18530838953825 -26.40104885840503 0 0 0 -1 I I #
straight-curve $-1 64.18530838953825 26.40104885840503 0 0 0 -1 I I #
plane-surface $-1 0 -26.40104885840503 0 0 1 0 0 0 1 forward_v I I I I #
coedge $-1 $839 $561 $571 $755 reversed $380 $-1 #
coedge $-1 $561 $839 $574 $757 forward $380 $-1 #
coedge $-1 $840 $564 $562 $747 forward $559 $-1 #
edge $-1 $748 55.269229347842668 $841 64.18530838953825 $562 $842 forward 7 unknown #
vertex $-1 $747 $843 #
straight-curve $-1 -55.269229347842668 26.40104885840503 3.4171433997803122 0 0 -1 I I #
coedge $-1 $564 $840 $566 $752 forward $559 $-1 #
straight-curve $-1 -55.269229347842668 0 9.1643473561932645 0 1 0 I I #
edge $-1 $844 -64.18530838953825 $568 -55.269229347842668 $566 $845 forward 7 unknown #
point $-1 -55.269229347842668 -26.40104885840503 9.1643473561932645 #
straight-curve $-1 -64.18530838953825 0 4.5042262429279845 0 -1 0 I I #
edge $-1 $844 -9.1643473561932645 $572 -4.5042262429279845 $744 $846 forward 7 unknown #
point $-1 -64.18530838953825 -26.40104885840503 4.5042262429279845 #
edge $-1 $841 -9.1643473561932645 $575 -4.5042262429279845 $574 $847 forward 7 unknown #
point $-1 -64.18530838953825 26.40104885840503 4.5042262429279845 #
coedge $-1 $590 $589 $582 $760 forward $579 $-1 #
edge $-1 $761 57.333269318148083 $764 61.610837691691856 $759 $848 forward 7 unknown #
vertex $-1 $594 $849 #
straight-curve $-1 4.4580395208477874 39.918031308971734 9.1643473561932609 0 1 0 I I #
edge $-1 $764 -8.5642078861777655 $591 16.776544616837722 $590 $850 forward 7 unknown #
vertex $-1 $763 $851 #
straight-curve $-1 4.4580395208477874 -10.935672064824843 42.223500772281838 0 -0.70710677298230451 0.70710678939079041 I I #
point $-1 4.4580395208477874 22.123480584122674 9.1643473561932609 #
point $-1 -20.8827129821677 26.401048858405034 4.8867789826494885 #
straight-curve $-1 0 26.40104885840503 9.1643473561932645 -1 0 0 I I #
vertex $-1 $597 $852 #
point $-1 -7.2123367306599562 22.925048030343429 5.6883465095312067 #
straight-curve $-1 29.798792023863268 -10.935672064824843 42.223500772281838 0 -0.70710677298230451 0.70710678939079041 I I #
coedge $-1 $605 $611 $607 $774 reversed $601 $-1 #
straight-curve $-1 29.798792023863268 26.40104885840503 66.497616674341344 0 0 -1 I I #
edge $-1 $609 -29.798792023863268 $778 -4.4580395208477874 $772 $853 forward 7 unknown #
point $-1 29.798792023863268 22.123480584122674 9.1643473561932609 #
point $-1 29.798792023863268 26.40104885840503 9.1643473561932645 #
point $-1 29.798792023863268 26.401048858405034 4.8867789826494885 #
vertex $-1 $616 $854 #
straight-curve $-1 4.4580395208477874 39.918031308971734 9.1643473561932609 0 -1 0 I I #
straight-curve $-1 4.4580395208477874 26.40104885840503 66.497616674341344 0 0 1 I I #
vertex $-1 $619 $855 #
point $-1 18.128415772355524 22.925048030343429 5.6883465095312067 #
edge $-1 $784 23.136280037991209 $787 31.88467927551196 $624 $856 forward 7 unknown #
vertex $-1 $638 $857 #
straight-curve $-1 -47.235319602003017 -68.786632540756656 9.1643473561932645 0 -1 0 I I #
edge $-1 $787 -27.962911117650201 $635 -10.581905851055428 $634 $858 forward 7 unknown #
vertex $-1 $786 $859 #
straight-curve $-1 -47.235319602003017 -26.401048858405019 0.41594811867253156 0 0.49999998660252726 0.86602541151947299 I I #
point $-1 -47.235319602003017 -21.350158384095224 9.1643473561932645 #
point $-1 -29.854314335408244 -26.40104885840503 0.41594811867251308 #
straight-curve $-1 0 -26.40104885840503 9.1643473561932645 1 0 0 I I #
vertex $-1 $641 $860 #
point $-1 -40.26931809726166 -18.828462391189262 1.876179493725364 #
vertex $-1 $645 $861 #
point $-1 -32.820315840149618 -18.828462391189262 1.876179493725364 #
edge $-1 $797 23.136280037991209 $800 31.88467927551196 $650 $862 forward 7 unknown #
vertex $-1 $664 $863 #
straight-curve $-1 -18.566748608967405 -68.786632540756656 9.1643473561932645 0 -1 0 I I #
edge $-1 $800 -13.628625621132397 $661 3.7523796454623799 $660 $864 forward 7 unknown #
vertex $-1 $799 $865 #
straight-curve $-1 -18.566748608967405 -26.401048858405019 0.41594811867253156 0 0.49999998660252726 0.86602541151947299 I I #
point $-1 -18.566748608967405 -21.350158384095224 9.1643473561932645 #
point $-1 -1.1857433423726285 -26.40104885840503 0.41594811867251308 #
straight-curve $-1 0 -26.40104885840503 9.1643473561932645 1 0 0 I I #
vertex $-1 $667 $866 #
point $-1 -11.600747104226045 -18.828462391189262 1.876179493725364 #
vertex $-1 $671 $867 #
point $-1 -4.1517448471139957 -18.828462391189262 1.876179493725364 #
edge $-1 $810 23.136280037991209 $813 31.88467927551196 $676 $868 forward 7 unknown #
vertex $-1 $690 $869 #
straight-curve $-1 10.10182238406821 -68.786632540756656 9.1643473561932645 0 -1 0 I I #
edge $-1 $813 0.70565987538541108 $687 18.086665141980188 $686 $870 forward 7 unknown #
vertex $-1 $812 $871 #
straight-curve $-1 10.10182238406821 -26.401048858405019 0.41594811867253156 0 0.49999998660252726 0.86602541151947299 I I #
point $-1 10.10182238406821 -21.350158384095224 9.1643473561932645 #
point $-1 27.482827650662987 -26.40104885840503 0.41594811867251308 #
straight-curve $-1 0 -26.40104885840503 9.1643473561932645 1 0 0 I I #
vertex $-1 $693 $872 #
point $-1 17.067823888809571 -18.828462391189262 1.876179493725364 #
vertex $-1 $697 $873 #
point $-1 24.516826145921627 -18.828462391189262 1.876179493725364 #
edge $-1 $823 23.136280037991209 $826 31.88467927551196 $702 $874 forward 7 unknown #
vertex $-1 $716 $875 #
straight-curve $-1 38.770393377103829 -68.786632540756656 9.1643473561932645 0 -1 0 I I #
edge $-1 $826 15.039945371903222 $713 32.420950638497992 $712 $876 forward 7 unknown #
vertex $-1 $825 $877 #
straight-curve $-1 38.770393377103829 -26.401048858405019 0.41594811867253156 0 0.49999998660252726 0.86602541151947299 I I #
point $-1 38.770393377103829 -21.350158384095224 9.1643473561932645 #
point $-1 56.151398643698599 -26.40104885840503 0.41594811867251308 #
straight-curve $-1 0 -26.40104885840503 9.1643473561932645 1 0 0 I I #
vertex $-1 $719 $878 #
point $-1 45.736394881845186 -18.828462391189262 1.876179493725364 #
vertex $-1 $723 $879 #
point $-1 53.185397138957242 -18.828462391189262 1.876179493725364 #
straight-curve $-1 -64.18530838953825 26.40104885840503 0 0 0 -1 I I #
point $-1 -64.18530838953825 -26.40104885840503 -9.1643473561932645 #
straight-curve $-1 -64.18530838953825 0 -9.1643473561932645 0 1 0 I I #
point $-1 -64.18530838953825 26.40104885840503 -9.1643473561932645 #
coedge $-1 $745 $744 $840 $880 reversed $380 $-1 #
coedge $-1 $750 $746 $839 $880 forward $559 $-1 #
vertex $-1 $747 $881 #
straight-curve $-1 0 26.40104885840503 9.1643473561932645 -1 0 0 I I #
point $-1 -55.269229347842668 26.40104885840503 9.1643473561932645 #
vertex $-1 $880 $882 #
straight-curve $-1 0 -26.40104885840503 9.1643473561932645 1 0 0 I I #
straight-curve $-1 -64.18530838953825 -26.40104885840503 0 0 0 -1 I I #
straight-curve $-1 -64.18530838953825 26.40104885840503 0 0 0 -1 I I #
straight-curve $-1 4.4580395208477874 26.40104885840503 66.497616674341344 0 0 -1 I I #
point $-1 4.4580395208477874 26.40104885840503 9.1643473561932645 #
straight-curve $-1 -4.1061683653299781 26.40104885840503 4.886778982649485 -1 0 0 I I #
point $-1 4.4580395208477874 26.401048858405034 4.8867789826494885 #
point $-1 -8.2123367306599562 22.217941240952637 4.9812397365489014 #
straight-curve $-1 0 26.40104885840503 9.1643473561932645 -1 0 0 I I #
point $-1 4.4580395208477874 26.40104885840503 9.1643473561932645 #
point $-1 17.128415772355524 22.217941240952637 4.9812397365489014 #
straight-curve $-1 -47.235319602003017 -26.401048858405034 32.300627394184474 0 0 -1 I I #
point $-1 -47.235319602003017 -26.40104885840503 9.1643473561932645 #
straight-curve $-1 -19.272408484352816 -26.40104885840503 0.41594811867251902 1 0 0 I I #
point $-1 -47.235319602003017 -26.40104885840503 0.41594811867251308 #
point $-1 -42.26931809726166 -17.096411568150316 0.87617952052030934 #
point $-1 -34.820315840149618 -17.096411568150316 0.87617952052030934 #
straight-curve $-1 -18.566748608967405 -26.401048858405034 32.300627394184474 0 0 -1 I I #
point $-1 -18.566748608967405 -26.40104885840503 9.1643473561932645 #
straight-curve $-1 -4.9381229878350084 -26.40104885840503 0.41594811867251902 1 0 0 I I #
point $-1 -18.566748608967405 -26.40104885840503 0.41594811867251308 #
point $-1 -13.600747104226045 -17.096411568150316 0.87617952052030934 #
point $-1 -6.1517448471139957 -17.096411568150316 0.87617952052030934 #
straight-curve $-1 10.10182238406821 -26.401048858405034 32.300627394184474 0 0 -1 I I #
point $-1 10.10182238406821 -26.40104885840503 9.1643473561932645 #
straight-curve $-1 9.3961625086827993 -26.40104885840503 0.41594811867251902 1 0 0 I I #
point $-1 10.10182238406821 -26.40104885840503 0.41594811867251308 #
point $-1 15.067823888809571 -17.096411568150316 0.87617952052030934 #
point $-1 22.516826145921627 -17.096411568150316 0.87617952052030934 #
straight-curve $-1 38.770393377103829 -26.401048858405034 32.300627394184474 0 0 -1 I I #
point $-1 38.770393377103829 -26.40104885840503 9.1643473561932645 #
straight-curve $-1 23.730448005200607 -26.40104885840503 0.41594811867251902 1 0 0 I I #
point $-1 38.770393377103829 -26.40104885840503 0.41594811867251308 #
point $-1 43.736394881845186 -17.096411568150316 0.87617952052030934 #
point $-1 51.185397138957242 -17.096411568150316 0.87617952052030934 #
edge $-1 $841 -26.40104885840503 $844 26.40104885840503 $839 $883 forward 7 unknown #
point $-1 -64.18530838953825 26.40104885840503 9.1643473561932645 #
point $-1 -64.18530838953825 -26.40104885840503 9.1643473561932645 #
straight-curve $-1 -64.18530838953825 0 9.1643473561932645 0 -1 0 I I #
End-of-ACIS-data 