500 0 11 0           
7 Unknown 11 ACIS 5.0 NT 24 Thu Mar 25 20:39:31 1999 
-1 9.9999999999999995e-007 1e-010 
body $-1 $11 $-1 $12 #
body $-1 $13 $-1 $14 #
body $-1 $15 $-1 $16 #
body $-1 $17 $-1 $18 #
body $-1 $19 $-1 $20 #
body $-1 $21 $-1 $22 #
body $-1 $23 $-1 $24 #
body $-1 $25 $-1 $26 #
body $-1 $27 $-1 $28 #
body $-1 $29 $-1 $30 #
body $-1 $31 $-1 $32 #
lump $-1 $-1 $33 $0 #
transform $-1 1 0 0 0 1 0 0 0 1 74.661702322458581 41.684275290911273 16.187243034506409 1 rotate no_reflect no_shear #
lump $-1 $-1 $34 $1 #
transform $-1 1 0 0 0 1 0 0 0 1 74.661702322458581 41.684275290911273 16.187243034506409 1 rotate no_reflect no_shear #
lump $-1 $-1 $35 $2 #
transform $-1 1 0 0 0 1 0 0 0 1 74.661702322458581 41.684275290911273 16.187243034506409 1 rotate no_reflect no_shear #
lump $-1 $-1 $36 $3 #
transform $-1 1 0 0 0 1 0 0 0 1 74.661702322458581 41.684275290911273 16.187243034506409 1 rotate no_reflect no_shear #
lump $-1 $-1 $37 $4 #
transform $-1 1 0 0 0 1 0 0 0 1 74.661702322458581 41.684275290911273 16.187243034506409 1 rotate no_reflect no_shear #
lump $-1 $-1 $38 $5 #
transform $-1 1 0 0 0 1 0 0 0 1 74.661702322458581 41.684275290911273 16.187243034506409 1 rotate no_reflect no_shear #
lump $-1 $-1 $39 $6 #
transform $-1 1 0 0 0 1 0 0 0 1 74.661702322458581 41.684275290911273 16.187243034506409 1 rotate no_reflect no_shear #
lump $-1 $-1 $40 $7 #
transform $-1 1 0 0 0 1 0 0 0 1 74.661702322458581 41.684275290911273 16.187243034506409 1 rotate no_reflect no_shear #
lump $-1 $-1 $41 $8 #
transform $-1 1 0 0 0 1 0 0 0 1 74.661702322458581 41.684275290911273 16.187243034506409 1 rotate no_reflect no_shear #
lump $-1 $-1 $42 $9 #
transform $-1 1 0 0 0 1 0 0 0 1 74.661702322458581 41.684275290911273 16.187243034506409 1 rotate no_reflect no_shear #
lump $-1 $-1 $43 $10 #
transform $-1 1 0 0 0 1 0 0 0 1 74.661702322458581 41.684275290911273 16.187243034506409 1 rotate no_reflect no_shear #
shell $-1 $-1 $-1 $44 $-1 $11 #
shell $-1 $-1 $-1 $45 $-1 $13 #
shell $-1 $-1 $-1 $46 $-1 $15 #
shell $-1 $-1 $-1 $47 $-1 $17 #
shell $-1 $-1 $-1 $48 $-1 $19 #
shell $-1 $-1 $-1 $49 $-1 $21 #
shell $-1 $-1 $-1 $50 $-1 $23 #
shell $-1 $-1 $-1 $51 $-1 $25 #
shell $-1 $-1 $-1 $52 $-1 $27 #
shell $-1 $-1 $-1 $53 $-1 $29 #
shell $-1 $-1 $-1 $54 $-1 $31 #
face $-1 $55 $56 $33 $-1 $57 forward single #
face $-1 $58 $59 $34 $-1 $60 forward single #
face $-1 $61 $62 $35 $-1 $63 forward single #
face $-1 $64 $65 $36 $-1 $66 reversed single #
face $-1 $67 $68 $37 $-1 $69 forward single #
face $-1 $70 $71 $38 $-1 $72 forward single #
face $-1 $73 $74 $39 $-1 $75 forward single #
face $-1 $76 $77 $40 $-1 $78 reversed single #
face $-1 $79 $80 $41 $-1 $81 forward single #
face $-1 $82 $83 $42 $-1 $84 forward single #
face $-1 $85 $86 $43 $-1 $87 forward single #
face $-1 $88 $89 $33 $-1 $90 reversed single #
loop $-1 $-1 $91 $44 #
plane-surface $-1 0 0 16.187243034506409 0 0 1 1 0 0 forward_v I I I I #
face $-1 $92 $93 $34 $-1 $94 reversed single #
loop $-1 $-1 $95 $45 #
plane-surface $-1 0 -41.684275290911273 0 0 1 0 0 0 1 forward_v I I I I #
face $-1 $96 $97 $35 $-1 $98 reversed single #
loop $-1 $-1 $99 $46 #
plane-surface $-1 0 41.684275290911273 0 0 -1 0 0 0 -1 forward_v I I I I #
face $-1 $100 $101 $36 $-1 $102 reversed single #
loop $-1 $-1 $103 $47 #
plane-surface $-1 -185.63061904357238 -20.722399682819422 103.68343527940527 0 1 0 -0.74314483375859142 0 0.66913059716165679 forward_v I I I I #
face $-1 $104 $105 $37 $-1 $106 forward single #
loop $-1 $107 $108 $48 #
cone-surface $-1 -68.586929578837299 -18.858729709387845 9.5420473027512731 0.74314483375859142 0 -0.66913059716165679 0.3345652985808284 0 0.37157241687929571 1 I I 0 1 0.5 forward I I I I #
face $-1 $109 $110 $38 $-1 $111 forward single #
loop $-1 $112 $113 $49 #
cone-surface $-1 -68.586929578837299 -16.063224749240479 9.5420473027512731 0.74314483375859142 0 -0.66913059716165679 0.3345652985808284 0 0.37157241687929571 1 I I 0 1 0.5 forward I I I I #
face $-1 $114 $115 $39 $-1 $116 forward single #
loop $-1 $117 $118 $50 #
cone-surface $-1 -68.586929578837299 -13.267719789093114 9.5420473027512731 0.74314483375859142 0 -0.66913059716165679 0.3345652985808284 0 0.37157241687929571 1 I I 0 1 0.5 forward I I I I #
face $-1 $119 $120 $40 $-1 $121 reversed single #
loop $-1 $-1 $122 $51 #
plane-surface $-1 -185.63061904357238 2.6204304963128831 103.68343527940527 0 1 0 -0.74314483375859142 0 0.66913059716165679 forward_v I I I I #
face $-1 $123 $124 $41 $-1 $125 forward single #
loop $-1 $126 $127 $52 #
cone-surface $-1 -68.586929578837299 4.4841004697444617 9.5420473027512731 0.74314483375859142 0 -0.66913059716165679 0.3345652985808284 0 0.37157241687929571 1 I I 0 1 0.5 forward I I I I #
face $-1 $128 $129 $42 $-1 $130 forward single #
loop $-1 $131 $132 $53 #
cone-surface $-1 -68.586929578837299 7.2796054298918307 9.5420473027512731 0.74314483375859142 0 -0.66913059716165679 0.3345652985808284 0 0.37157241687929571 1 I I 0 1 0.5 forward I I I I #
face $-1 $133 $134 $43 $-1 $135 forward single #
loop $-1 $136 $137 $54 #
cone-surface $-1 -68.586929578837299 10.075110390039193 9.5420473027512731 0.74314483375859142 0 -0.66913059716165679 0.3345652985808284 0 0.37157241687929571 1 I I 0 1 0.5 forward I I I I #
face $-1 $138 $139 $33 $-1 $140 reversed single #
loop $-1 $-1 $141 $55 #
plane-surface $-1 0 0 -16.187243034506409 0 0 1 1 0 0 forward_v I I I I #
coedge $-1 $142 $143 $144 $145 forward $56 $-1 #
face $-1 $146 $147 $34 $-1 $148 reversed single #
loop $-1 $-1 $149 $58 #
plane-surface $-1 0 0 -16.187243034506409 0 0 1 1 0 0 forward_v I I I I #
coedge $-1 $150 $151 $152 $153 forward $59 $-1 #
face $-1 $154 $155 $35 $-1 $156 forward single #
loop $-1 $-1 $157 $61 #
plane-surface $-1 -74.661702322458581 0 0 1 0 0 0 0 -1 forward_v I I I I #
coedge $-1 $158 $159 $160 $161 forward $62 $-1 #
face $-1 $162 $163 $36 $-1 $164 reversed single #
loop $-1 $-1 $165 $64 #
plane-surface $-1 -74.661702322458538 -16.063224749240483 3.7665763591401316 -0.74314483375859142 0 0.66913059716165679 0.66913059716165679 0 0.74314483375859142 forward_v I I I I #
coedge $-1 $166 $167 $168 $169 reversed $65 $-1 #
face $-1 $-1 $170 $37 $-1 $171 forward single #
loop $-1 $172 $173 $67 #
cone-surface $-1 -67.918179741292477 -18.858729709387845 8.9399022593888517 0.74314483375859142 0 -0.66913059716165679 0.1672826492904142 0 0.18578620843964785 1 I I -0.70710678118654746 0.70710678118654746 0.25 forward I I I I #
loop $-1 $-1 $174 $48 #
coedge $-1 $108 $108 $175 $176 reversed $68 $-1 #
face $-1 $-1 $177 $38 $-1 $178 forward single #
loop $-1 $179 $180 $70 #
cone-surface $-1 -67.918179741292477 -16.063224749240479 8.9399022593888517 0.74314483375859142 0 -0.66913059716165679 0.1672826492904142 0 0.18578620843964785 1 I I -0.70710678118654746 0.70710678118654746 0.25 forward I I I I #
loop $-1 $-1 $181 $49 #
coedge $-1 $113 $113 $182 $183 reversed $71 $-1 #
face $-1 $-1 $184 $39 $-1 $185 forward single #
loop $-1 $186 $187 $73 #
cone-surface $-1 -67.918179741292477 -13.267719789093114 8.9399022593888517 0.74314483375859142 0 -0.66913059716165679 0.1672826492904142 0 0.18578620843964785 1 I I -0.70710678118654746 0.70710678118654746 0.25 forward I I I I #
loop $-1 $-1 $188 $50 #
coedge $-1 $118 $118 $189 $190 reversed $74 $-1 #
face $-1 $191 $192 $40 $-1 $193 reversed single #
loop $-1 $-1 $194 $76 #
plane-surface $-1 -74.661702322458538 7.2796054298918236 3.7665763591401316 -0.74314483375859142 0 0.66913059716165679 0.66913059716165679 0 0.74314483375859142 forward_v I I I I #
coedge $-1 $195 $196 $197 $198 reversed $77 $-1 #
face $-1 $-1 $199 $41 $-1 $200 forward single #
loop $-1 $201 $202 $79 #
cone-surface $-1 -67.918179741292477 4.4841004697444617 8.9399022593888517 0.74314483375859142 0 -0.66913059716165679 0.1672826492904142 0 0.18578620843964785 1 I I -0.70710678118654746 0.70710678118654746 0.25 forward I I I I #
loop $-1 $-1 $203 $52 #
coedge $-1 $127 $127 $204 $205 reversed $80 $-1 #
face $-1 $-1 $206 $42 $-1 $207 forward single #
loop $-1 $208 $209 $82 #
cone-surface $-1 -67.918179741292477 7.2796054298918307 8.9399022593888517 0.74314483375859142 0 -0.66913059716165679 0.1672826492904142 0 0.18578620843964785 1 I I -0.70710678118654746 0.70710678118654746 0.25 forward I I I I #
loop $-1 $-1 $210 $53 #
coedge $-1 $132 $132 $211 $212 reversed $83 $-1 #
face $-1 $-1 $213 $43 $-1 $214 forward single #
loop $-1 $215 $216 $85 #
cone-surface $-1 -67.918179741292477 10.075110390039193 8.9399022593888517 0.74314483375859142 0 -0.66913059716165679 0.1672826492904142 0 0.18578620843964785 1 I I -0.70710678118654746 0.70710678118654746 0.25 forward I I I I #
loop $-1 $-1 $217 $54 #
coedge $-1 $137 $137 $218 $219 reversed $86 $-1 #
face $-1 $220 $221 $33 $-1 $222 reversed single #
loop $-1 $-1 $223 $88 #
plane-surface $-1 0 -41.684275290911273 0 0 1 0 0 0 1 forward_v I I I I #
coedge $-1 $224 $225 $226 $227 forward $89 $-1 #
coedge $-1 $228 $91 $229 $230 forward $56 $-1 #
coedge $-1 $91 $228 $231 $232 forward $56 $-1 #
coedge $-1 $233 $234 $91 $145 reversed $235 $-1 #
edge $-1 $236 -41.684275290911273 $237 41.684275290911273 $144 $238 forward 7 unknown #
face $-1 $239 $240 $34 $-1 $241 forward single #
loop $-1 $-1 $242 $92 #
plane-surface $-1 74.661702322458581 0 0 -1 0 0 0 0 1 forward_v I I I I #
coedge $-1 $243 $244 $245 $246 forward $93 $-1 #
coedge $-1 $245 $95 $242 $247 reversed $59 $-1 #
coedge $-1 $95 $245 $248 $249 reversed $59 $-1 #
coedge $-1 $250 $251 $95 $153 reversed $240 $-1 #
edge $-1 $252 -74.661702322458581 $253 74.661702322458581 $152 $254 forward 7 unknown #
face $-1 $255 $256 $35 $-1 $257 reversed single #
loop $-1 $-1 $258 $96 #
plane-surface $-1 0 50.854997846800757 -7.7190133324005723 0 0 1 1 0 0 forward_v I I I I #
coedge $-1 $259 $260 $158 $261 forward $97 $-1 #
coedge $-1 $262 $99 $157 $261 reversed $62 $-1 #
coedge $-1 $99 $262 $263 $264 reversed $62 $-1 #
coedge $-1 $258 $265 $99 $161 reversed $155 $-1 #
edge $-1 $266 -74.661702322458581 $267 74.661702322458581 $160 $268 forward 7 unknown #
face $-1 $269 $270 $36 $-1 $271 reversed single #
loop $-1 $-1 $272 $100 #
plane-surface $-1 -185.63061904357238 -11.404049815661542 103.68343527940527 0 -1 0 0.74314483375859142 0 -0.66913059716165679 forward_v I I I I #
coedge $-1 $273 $274 $275 $276 reversed $101 $-1 #
coedge $-1 $167 $103 $277 $278 reversed $65 $-1 #
coedge $-1 $103 $166 $273 $279 reversed $65 $-1 #
coedge $-1 $275 $280 $103 $169 forward $281 $-1 #
edge $-1 $282 18.15360719932761 $283 29.337225428359908 $168 $284 forward 7 unknown #
loop $-1 $-1 $175 $104 #
plane-surface $-1 -74.661702322458538 -16.063224749240483 3.7665763591401316 -0.74314483375859142 0 0.66913059716165679 0.66913059716165679 0 0.74314483375859142 forward_v I I I I #
loop $-1 $-1 $285 $67 #
coedge $-1 $173 $173 $174 $286 reversed $105 $-1 #
coedge $-1 $174 $174 $173 $286 forward $107 $-1 #
coedge $-1 $175 $175 $108 $176 forward $170 $-1 #
edge $-1 $287 0 $287 6.2831853071796004 $175 $288 forward 7 unknown #
loop $-1 $-1 $182 $109 #
plane-surface $-1 -74.661702322458538 -16.063224749240483 3.7665763591401316 -0.74314483375859142 0 0.66913059716165679 0.66913059716165679 0 0.74314483375859142 forward_v I I I I #
loop $-1 $-1 $289 $70 #
coedge $-1 $180 $180 $181 $290 reversed $110 $-1 #
coedge $-1 $181 $181 $180 $290 forward $112 $-1 #
coedge $-1 $182 $182 $113 $183 forward $177 $-1 #
edge $-1 $291 0 $291 6.2831853071796004 $182 $292 forward 7 unknown #
loop $-1 $-1 $189 $114 #
plane-surface $-1 -74.661702322458538 -16.063224749240483 3.7665763591401316 -0.74314483375859142 0 0.66913059716165679 0.66913059716165679 0 0.74314483375859142 forward_v I I I I #
loop $-1 $-1 $293 $73 #
coedge $-1 $187 $187 $188 $294 reversed $115 $-1 #
coedge $-1 $188 $188 $187 $294 forward $117 $-1 #
coedge $-1 $189 $189 $118 $190 forward $184 $-1 #
edge $-1 $295 0 $295 6.2831853071796004 $189 $296 forward 7 unknown #
face $-1 $297 $298 $40 $-1 $299 forward single #
loop $-1 $-1 $300 $119 #
plane-surface $-1 -185.63061904357238 11.938780363470764 103.68343527940527 0 -1 0 0.74314483375859142 0 -0.66913059716165679 forward_v I I I I #
coedge $-1 $301 $302 $303 $304 reversed $120 $-1 #
coedge $-1 $196 $122 $305 $306 reversed $77 $-1 #
coedge $-1 $122 $195 $301 $307 reversed $77 $-1 #
coedge $-1 $303 $308 $122 $198 forward $298 $-1 #
edge $-1 $309 18.15360719932761 $310 29.337225428359908 $197 $311 forward 7 unknown #
loop $-1 $-1 $204 $123 #
plane-surface $-1 -74.661702322458538 7.2796054298918236 3.7665763591401316 -0.74314483375859142 0 0.66913059716165679 0.66913059716165679 0 0.74314483375859142 forward_v I I I I #
loop $-1 $-1 $312 $79 #
coedge $-1 $202 $202 $203 $313 reversed $124 $-1 #
coedge $-1 $203 $203 $202 $313 forward $126 $-1 #
coedge $-1 $204 $204 $127 $205 forward $199 $-1 #
edge $-1 $314 0 $314 6.2831853071796004 $204 $315 forward 7 unknown #
loop $-1 $-1 $211 $128 #
plane-surface $-1 -74.661702322458538 7.2796054298918236 3.7665763591401316 -0.74314483375859142 0 0.66913059716165679 0.66913059716165679 0 0.74314483375859142 forward_v I I I I #
loop $-1 $-1 $316 $82 #
coedge $-1 $209 $209 $210 $317 reversed $129 $-1 #
coedge $-1 $210 $210 $209 $317 forward $131 $-1 #
coedge $-1 $211 $211 $132 $212 forward $206 $-1 #
edge $-1 $318 0 $318 6.2831853071796004 $211 $319 forward 7 unknown #
loop $-1 $-1 $218 $133 #
plane-surface $-1 -74.661702322458538 7.2796054298918236 3.7665763591401316 -0.74314483375859142 0 0.66913059716165679 0.66913059716165679 0 0.74314483375859142 forward_v I I I I #
loop $-1 $-1 $320 $85 #
coedge $-1 $216 $216 $217 $321 reversed $134 $-1 #
coedge $-1 $217 $217 $216 $321 forward $136 $-1 #
coedge $-1 $218 $218 $137 $219 forward $213 $-1 #
edge $-1 $322 0 $322 6.2831853071796004 $218 $323 forward 7 unknown #
face $-1 $324 $325 $33 $-1 $326 reversed single #
loop $-1 $-1 $327 $138 #
plane-surface $-1 -74.661702322458581 0 0 1 0 0 0 0 -1 forward_v I I I I #
coedge $-1 $231 $328 $233 $329 reversed $139 $-1 #
coedge $-1 $330 $141 $328 $331 forward $89 $-1 #
coedge $-1 $141 $330 $332 $333 forward $89 $-1 #
coedge $-1 $234 $233 $141 $227 reversed $235 $-1 #
edge $-1 $334 -41.684275290911273 $335 41.684275290911273 $226 $336 forward 7 unknown #
coedge $-1 $143 $142 $337 $338 forward $56 $-1 #
coedge $-1 $339 $340 $142 $230 reversed $325 $-1 #
edge $-1 $237 -74.661702322458581 $341 74.661702322458581 $229 $342 forward 7 unknown #
coedge $-1 $343 $223 $143 $232 reversed $139 $-1 #
edge $-1 $344 -74.661702322458581 $236 74.661702322458581 $231 $345 forward 7 unknown #
coedge $-1 $226 $144 $223 $329 forward $235 $-1 #
coedge $-1 $144 $226 $339 $346 reversed $235 $-1 #
loop $-1 $-1 $233 $324 #
vertex $-1 $145 $347 #
vertex $-1 $145 $348 #
straight-curve $-1 74.661702322458581 0 16.187243034506409 0 1 0 I I #
face $-1 $349 $350 $34 $-1 $351 reversed single #
loop $-1 $-1 $251 $146 #
plane-surface $-1 0 -50.854997846800757 -7.7190133324005723 0 0 1 1 0 0 forward_v I I I I #
coedge $-1 $352 $353 $150 $247 forward $147 $-1 #
coedge $-1 $354 $149 $353 $355 forward $93 $-1 #
coedge $-1 $149 $354 $356 $357 forward $93 $-1 #
coedge $-1 $151 $150 $149 $246 reversed $59 $-1 #
edge $-1 $358 -74.661702322458581 $359 74.661702322458581 $149 $360 forward 7 unknown #
edge $-1 $359 -16.187243034506409 $253 -7.7190133324005723 $242 $361 forward 7 unknown #
coedge $-1 $356 $362 $151 $249 forward $363 $-1 #
edge $-1 $252 7.7190133324005723 $358 16.187243034506409 $248 $364 forward 7 unknown #
coedge $-1 $365 $152 $362 $366 forward $240 $-1 #
coedge $-1 $152 $365 $352 $367 forward $240 $-1 #
vertex $-1 $249 $368 #
vertex $-1 $367 $369 #
straight-curve $-1 0 -41.684275290911273 -7.7190133324005723 1 0 0 I I #
face $-1 $370 $371 $35 $-1 $372 reversed single #
loop $-1 $-1 $373 $154 #
plane-surface $-1 0 60.02572040269024 -11.95312818345349 0 -1 0 0 0 -1 forward_v I I I I #
coedge $-1 $374 $160 $375 $376 forward $155 $-1 #
coedge $-1 $377 $157 $265 $378 reversed $97 $-1 #
coedge $-1 $157 $377 $379 $380 reversed $97 $-1 #
edge $-1 $381 -16.187243034506409 $267 -7.7190133324005723 $157 $382 forward 7 unknown #
coedge $-1 $159 $158 $383 $384 reversed $62 $-1 #
coedge $-1 $385 $375 $159 $264 forward $386 $-1 #
edge $-1 $266 7.7190133324005723 $387 16.187243034506409 $263 $388 forward 7 unknown #
coedge $-1 $160 $374 $259 $378 forward $155 $-1 #
vertex $-1 $264 $389 #
vertex $-1 $378 $390 #
straight-curve $-1 0 41.684275290911273 -7.7190133324005723 -1 0 0 I I #
face $-1 $-1 $281 $36 $-1 $391 forward single #
loop $-1 $-1 $392 $162 #
plane-surface $-1 -74.661702322458581 0 0 1 0 0 0 0 -1 forward_v I I I I #
coedge $-1 $393 $394 $395 $396 reversed $163 $-1 #
coedge $-1 $397 $165 $167 $279 forward $101 $-1 #
coedge $-1 $165 $397 $393 $398 forward $101 $-1 #
coedge $-1 $395 $168 $165 $276 forward $281 $-1 #
edge $-1 $283 -12.69078730819918 $399 -3.3724374410413009 $275 $400 forward 7 unknown #
coedge $-1 $401 $402 $166 $278 forward $270 $-1 #
edge $-1 $403 -48.075141280562555 $282 -35.654474605196228 $277 $404 forward 7 unknown #
edge $-1 $283 -16.713655415656291 $403 6.3839171522278943e-014 $167 $405 forward 7 unknown #
coedge $-1 $168 $395 $401 $406 forward $281 $-1 #
loop $-1 $-1 $395 $269 #
vertex $-1 $278 $407 #
vertex $-1 $169 $408 #
straight-curve $-1 -92.81530952178619 -20.722399682819422 16.187243034506409 1 0 0 I I #
coedge $-1 $285 $285 $-1 $409 reversed $172 $-1 #
edge $-1 $410 0 $410 6.2831853071796004 $173 $411 forward 7 unknown #
vertex $-1 $176 $412 #
ellipse-curve $-1 -69.069893207942428 -18.858729709387845 9.9769096968232454 -0.74314483375859142 0 0.66913059716165679 0.3345652985808284 0 0.37157241687929571 1 I I #
coedge $-1 $289 $289 $-1 $413 reversed $179 $-1 #
edge $-1 $414 0 $414 6.2831853071796004 $180 $415 forward 7 unknown #
vertex $-1 $183 $416 #
ellipse-curve $-1 -69.069893207942428 -16.063224749240479 9.9769096968232454 -0.74314483375859142 0 0.66913059716165679 0.3345652985808284 0 0.37157241687929571 1 I I #
coedge $-1 $293 $293 $-1 $417 reversed $186 $-1 #
edge $-1 $418 0 $418 6.2831853071796004 $187 $419 forward 7 unknown #
vertex $-1 $190 $420 #
ellipse-curve $-1 -69.069893207942428 -13.267719789093114 9.9769096968232454 -0.74314483375859142 0 0.66913059716165679 0.3345652985808284 0 0.37157241687929571 1 I I #
face $-1 $-1 $421 $40 $-1 $422 reversed single #
loop $-1 $-1 $197 $191 #
plane-surface $-1 0 0 16.187243034506409 0 0 1 1 0 0 forward_v I I I I #
coedge $-1 $423 $424 $425 $426 reversed $192 $-1 #
coedge $-1 $427 $194 $196 $307 forward $120 $-1 #
coedge $-1 $194 $427 $423 $428 forward $120 $-1 #
coedge $-1 $425 $197 $194 $304 forward $298 $-1 #
edge $-1 $310 -1.0193722186330287 $429 8.2989776485248523 $303 $430 forward 7 unknown #
coedge $-1 $431 $432 $195 $306 forward $421 $-1 #
edge $-1 $433 -48.075141280562555 $309 -35.654474605196228 $305 $434 forward 7 unknown #
edge $-1 $310 -16.713655415656291 $433 6.3839171522278943e-014 $196 $435 forward 7 unknown #
coedge $-1 $197 $425 $431 $436 forward $298 $-1 #
vertex $-1 $198 $437 #
vertex $-1 $198 $438 #
straight-curve $-1 -92.81530952178619 2.6204304963128831 16.187243034506409 1 0 0 I I #
coedge $-1 $312 $312 $-1 $439 reversed $201 $-1 #
edge $-1 $440 0 $440 6.2831853071796004 $202 $441 forward 7 unknown #
vertex $-1 $205 $442 #
ellipse-curve $-1 -69.069893207942428 4.4841004697444617 9.9769096968232454 -0.74314483375859142 0 0.66913059716165679 0.3345652985808284 0 0.37157241687929571 1 I I #
coedge $-1 $316 $316 $-1 $443 reversed $208 $-1 #
edge $-1 $444 0 $444 6.2831853071796004 $209 $445 forward 7 unknown #
vertex $-1 $212 $446 #
ellipse-curve $-1 -69.069893207942428 7.2796054298918307 9.9769096968232454 -0.74314483375859142 0 0.66913059716165679 0.3345652985808284 0 0.37157241687929571 1 I I #
coedge $-1 $320 $320 $-1 $447 reversed $215 $-1 #
edge $-1 $448 0 $448 6.2831853071796004 $216 $449 forward 7 unknown #
vertex $-1 $219 $450 #
ellipse-curve $-1 -69.069893207942428 10.075110390039193 9.9769096968232454 -0.74314483375859142 0 0.66913059716165679 0.3345652985808284 0 0.37157241687929571 1 I I #
face $-1 $-1 $235 $33 $-1 $451 reversed single #
loop $-1 $-1 $340 $220 #
plane-surface $-1 0 41.684275290911273 0 0 -1 0 0 0 -1 forward_v I I I I #
coedge $-1 $452 $337 $340 $453 forward $221 $-1 #
coedge $-1 $223 $343 $224 $331 reversed $139 $-1 #
edge $-1 $236 -16.187243034506409 $335 16.187243034506409 $233 $454 forward 7 unknown #
coedge $-1 $225 $224 $452 $455 forward $89 $-1 #
edge $-1 $335 -74.661702322458581 $456 74.661702322458581 $328 $457 forward 7 unknown #
coedge $-1 $340 $339 $225 $333 reversed $325 $-1 #
edge $-1 $458 -74.661702322458581 $334 74.661702322458581 $332 $459 forward 7 unknown #
vertex $-1 $227 $460 #
vertex $-1 $329 $461 #
straight-curve $-1 74.661702322458581 0 -16.187243034506409 0 -1 0 I I #
coedge $-1 $327 $462 $228 $338 reversed $221 $-1 #
edge $-1 $341 -41.684275290911273 $344 41.684275290911273 $337 $463 forward 7 unknown #
coedge $-1 $332 $229 $234 $346 forward $325 $-1 #
coedge $-1 $229 $332 $327 $453 reversed $325 $-1 #
vertex $-1 $230 $464 #
straight-curve $-1 0 41.684275290911273 16.187243034506409 -1 0 0 I I #
coedge $-1 $328 $231 $462 $465 forward $139 $-1 #
vertex $-1 $338 $466 #
straight-curve $-1 0 -41.684275290911273 16.187243034506409 1 0 0 I I #
edge $-1 $237 -16.187243034506409 $334 16.187243034506409 $234 $467 forward 7 unknown #
point $-1 74.661702322458581 -41.684275290911273 16.187243034506409 #
point $-1 74.661702322458581 41.684275290911273 16.187243034506409 #
face $-1 $-1 $363 $34 $-1 $468 reversed single #
loop $-1 $-1 $469 $239 #
plane-surface $-1 0 -60.02572040269024 -11.95312818345349 0 1 0 0 0 1 forward_v I I I I #
coedge $-1 $470 $242 $251 $367 reversed $147 $-1 #
coedge $-1 $242 $470 $243 $355 reversed $147 $-1 #
coedge $-1 $244 $243 $471 $472 forward $93 $-1 #
edge $-1 $359 41.684275290911273 $473 60.02572040269024 $353 $474 forward 7 unknown #
coedge $-1 $475 $248 $244 $357 reversed $363 $-1 #
edge $-1 $476 -60.02572040269024 $358 -41.684275290911273 $356 $477 forward 7 unknown #
vertex $-1 $249 $478 #
vertex $-1 $355 $479 #
straight-curve $-1 0 -41.684275290911273 -16.187243034506409 1 0 0 I I #
straight-curve $-1 74.661702322458581 -41.684275290911273 0 0 0 1 I I #
coedge $-1 $248 $475 $250 $366 reversed $363 $-1 #
loop $-1 $-1 $248 $349 #
straight-curve $-1 -74.661702322458581 -41.684275290911273 0 0 0 -1 I I #
coedge $-1 $251 $250 $480 $481 forward $240 $-1 #
edge $-1 $252 -9.1707225558894834 $482 9.1707225558894834 $362 $483 forward 7 unknown #
edge $-1 $484 -9.1707225558894834 $253 9.1707225558894834 $352 $485 forward 7 unknown #
point $-1 -74.661702322458581 -41.684275290911273 -7.7190133324005723 #
point $-1 74.661702322458581 -41.684275290911273 -7.7190133324005723 #
face $-1 $-1 $386 $35 $-1 $486 reversed single #
loop $-1 $-1 $383 $255 #
plane-surface $-1 0 0 -16.187243034506409 0 0 1 1 0 0 forward_v I I I I #
coedge $-1 $487 $488 $489 $490 forward $256 $-1 #
coedge $-1 $265 $258 $488 $491 forward $155 $-1 #
coedge $-1 $263 $489 $258 $376 reversed $386 $-1 #
edge $-1 $266 -9.1707225558894834 $492 9.1707225558894834 $375 $493 forward 7 unknown #
coedge $-1 $260 $259 $494 $495 forward $97 $-1 #
edge $-1 $496 -9.1707225558894834 $267 9.1707225558894834 $259 $497 forward 7 unknown #
coedge $-1 $498 $383 $260 $380 forward $371 $-1 #
edge $-1 $381 -9.1707225558894834 $499 9.1707225558894834 $260 $500 forward 7 unknown #
vertex $-1 $380 $501 #
straight-curve $-1 -74.661702322458581 41.684275290911273 0 0 0 1 I I #
coedge $-1 $379 $502 $262 $384 forward $371 $-1 #
edge $-1 $387 -74.661702322458581 $381 74.661702322458581 $383 $503 forward 7 unknown #
coedge $-1 $489 $263 $502 $504 reversed $386 $-1 #
loop $-1 $-1 $263 $370 #
vertex $-1 $264 $505 #
straight-curve $-1 74.661702322458581 41.684275290911273 0 0 0 -1 I I #
point $-1 74.661702322458581 41.684275290911273 -7.7190133324005723 #
point $-1 -74.661702322458581 41.684275290911273 -7.7190133324005723 #
plane-surface $-1 0 0 16.187243034506409 0 0 1 1 0 0 forward_v I I I I #
coedge $-1 $402 $401 $394 $506 forward $270 $-1 #
coedge $-1 $394 $272 $274 $398 reversed $163 $-1 #
coedge $-1 $272 $393 $392 $506 reversed $163 $-1 #
coedge $-1 $280 $275 $272 $396 forward $281 $-1 #
edge $-1 $399 -29.337225428359908 $507 -18.15360719932761 $395 $508 forward 7 unknown #
coedge $-1 $274 $273 $402 $509 reversed $101 $-1 #
edge $-1 $510 -6.3839171522278943e-014 $399 16.713655415656291 $393 $511 forward 7 unknown #
vertex $-1 $276 $512 #
straight-curve $-1 -63.478084093426276 -8.0316123746202415 16.187243034506409 0 1 0 I I #
coedge $-1 $392 $277 $280 $406 reversed $270 $-1 #
coedge $-1 $277 $392 $397 $509 forward $270 $-1 #
vertex $-1 $278 $513 #
straight-curve $-1 -74.661702322458581 -20.722399682819422 51.841717639702637 0 0 1 I I #
straight-curve $-1 -74.661702322458538 -20.722399682819422 3.7665763591401316 -0.66913059716165679 0 -0.74314483375859142 I I #
edge $-1 $507 11.404049815661542 $282 20.722399682819422 $401 $514 forward 7 unknown #
point $-1 -74.661702322458581 -20.722399682819422 16.187243034506409 #
point $-1 -63.478084093426283 -20.722399682819422 16.187243034506409 #
edge $-1 $515 1 $515 0 $285 $-1 forward 7 unknown #
vertex $-1 $286 $516 #
ellipse-curve $-1 -68.103965949732128 -18.858729709387845 9.1071849086792653 -0.74314483375859142 0 0.66913059716165679 0.3345652985808284 0 0.37157241687929571 1 I I #
point $-1 -68.735327909361644 -18.858729709387845 10.348482113702577 #
edge $-1 $517 1 $517 0 $289 $-1 forward 7 unknown #
vertex $-1 $290 $518 #
ellipse-curve $-1 -68.103965949732128 -16.063224749240479 9.1071849086792653 -0.74314483375859142 0 0.66913059716165679 0.3345652985808284 0 0.37157241687929571 1 I I #
point $-1 -68.735327909361644 -16.063224749240479 10.348482113702577 #
edge $-1 $519 1 $519 0 $293 $-1 forward 7 unknown #
vertex $-1 $294 $520 #
ellipse-curve $-1 -68.103965949732128 -13.267719789093114 9.1071849086792653 -0.74314483375859142 0 0.66913059716165679 0.3345652985808284 0 0.37157241687929571 1 I I #
point $-1 -68.735327909361644 -13.267719789093114 10.348482113702577 #
loop $-1 $-1 $305 $297 #
plane-surface $-1 -74.661702322458581 0 0 1 0 0 0 0 -1 forward_v I I I I #
coedge $-1 $424 $300 $302 $428 reversed $192 $-1 #
coedge $-1 $300 $423 $521 $522 reversed $192 $-1 #
coedge $-1 $308 $303 $300 $426 forward $298 $-1 #
edge $-1 $429 -29.337225428359908 $523 -18.15360719932761 $425 $524 forward 7 unknown #
coedge $-1 $302 $301 $432 $525 reversed $120 $-1 #
edge $-1 $526 -6.3839171522278943e-014 $429 16.713655415656291 $423 $527 forward 7 unknown #
vertex $-1 $304 $528 #
straight-curve $-1 -63.478084093426276 3.6398027149459118 16.187243034506409 0 1 0 I I #
coedge $-1 $521 $305 $308 $436 reversed $421 $-1 #
coedge $-1 $305 $521 $427 $525 forward $421 $-1 #
vertex $-1 $306 $529 #
straight-curve $-1 -74.661702322458581 2.6204304963128831 51.841717639702637 0 0 1 I I #
straight-curve $-1 -74.661702322458538 2.6204304963128831 3.7665763591401316 -0.66913059716165679 0 -0.74314483375859142 I I #
edge $-1 $523 -11.938780363470764 $309 -2.6204304963128831 $431 $530 forward 7 unknown #
point $-1 -74.661702322458581 2.6204304963128831 16.187243034506409 #
point $-1 -63.478084093426283 2.6204304963128831 16.187243034506409 #
edge $-1 $531 1 $531 0 $312 $-1 forward 7 unknown #
vertex $-1 $313 $532 #
ellipse-curve $-1 -68.103965949732128 4.4841004697444617 9.1071849086792653 -0.74314483375859142 0 0.66913059716165679 0.3345652985808284 0 0.37157241687929571 1 I I #
point $-1 -68.735327909361644 4.4841004697444617 10.348482113702577 #
edge $-1 $533 1 $533 0 $316 $-1 forward 7 unknown #
vertex $-1 $317 $534 #
ellipse-curve $-1 -68.103965949732128 7.2796054298918307 9.1071849086792653 -0.74314483375859142 0 0.66913059716165679 0.3345652985808284 0 0.37157241687929571 1 I I #
point $-1 -68.735327909361644 7.2796054298918307 10.348482113702577 #
edge $-1 $535 1 $535 0 $320 $-1 forward 7 unknown #
vertex $-1 $321 $536 #
ellipse-curve $-1 -68.103965949732128 10.075110390039193 9.1071849086792653 -0.74314483375859142 0 0.66913059716165679 0.3345652985808284 0 0.37157241687929571 1 I I #
point $-1 -68.735327909361644 10.075110390039193 10.348482113702577 #
plane-surface $-1 74.661702322458581 0 0 -1 0 0 0 0 1 forward_v I I I I #
coedge $-1 $462 $327 $330 $455 reversed $221 $-1 #
edge $-1 $341 -16.187243034506409 $458 16.187243034506409 $340 $537 forward 7 unknown #
straight-curve $-1 74.661702322458581 -41.684275290911273 0 0 0 -1 I I #
edge $-1 $456 -41.684275290911273 $458 41.684275290911273 $452 $538 forward 7 unknown #
vertex $-1 $455 $539 #
straight-curve $-1 0 -41.684275290911273 -16.187243034506409 -1 0 0 I I #
vertex $-1 $333 $540 #
straight-curve $-1 0 41.684275290911273 -16.187243034506409 1 0 0 I I #
point $-1 74.661702322458581 41.684275290911273 -16.187243034506409 #
point $-1 74.661702322458581 -41.684275290911273 -16.187243034506409 #
coedge $-1 $337 $452 $343 $465 reversed $221 $-1 #
straight-curve $-1 -74.661702322458581 0 16.187243034506409 0 -1 0 I I #
point $-1 -74.661702322458581 41.684275290911273 16.187243034506409 #
edge $-1 $344 -16.187243034506409 $456 16.187243034506409 $462 $541 forward 7 unknown #
point $-1 -74.661702322458581 -41.684275290911273 16.187243034506409 #
straight-curve $-1 74.661702322458581 41.684275290911273 0 0 0 -1 I I #
plane-surface $-1 -74.661702322458581 0 0 1 0 0 0 0 -1 forward_v I I I I #
coedge $-1 $471 $480 $475 $542 forward $350 $-1 #
coedge $-1 $353 $352 $543 $544 forward $147 $-1 #
coedge $-1 $543 $469 $354 $472 reversed $350 $-1 #
edge $-1 $473 -74.661702322458581 $476 74.661702322458581 $471 $545 forward 7 unknown #
vertex $-1 $544 $546 #
straight-curve $-1 74.661702322458581 0 -16.187243034506409 0 -1 0 I I #
coedge $-1 $362 $356 $469 $542 reversed $363 $-1 #
vertex $-1 $357 $547 #
straight-curve $-1 -74.661702322458581 0 -16.187243034506409 0 1 0 I I #
point $-1 -74.661702322458581 -41.684275290911273 -16.187243034506409 #
point $-1 74.661702322458581 -41.684275290911273 -16.187243034506409 #
coedge $-1 $469 $543 $365 $481 reversed $350 $-1 #
edge $-1 $482 -74.661702322458581 $484 74.661702322458581 $480 $548 forward 7 unknown #
vertex $-1 $366 $549 #
straight-curve $-1 -74.661702322458581 -50.854997846800757 -7.7190133324005723 0 -1 0 I I #
vertex $-1 $367 $550 #
straight-curve $-1 74.661702322458581 -50.854997846800757 -7.7190133324005723 0 1 0 I I #
plane-surface $-1 74.661702322458581 0 0 -1 0 0 0 0 1 forward_v I I I I #
coedge $-1 $494 $373 $498 $551 reversed $256 $-1 #
coedge $-1 $373 $494 $374 $491 reversed $256 $-1 #
coedge $-1 $375 $385 $373 $490 reversed $386 $-1 #
edge $-1 $492 -4.2341148510529178 $552 4.2341148510529187 $489 $553 forward 7 unknown #
edge $-1 $492 -74.661702322458581 $496 74.661702322458581 $488 $554 forward 7 unknown #
vertex $-1 $376 $555 #
straight-curve $-1 74.661702322458581 50.854997846800757 -7.7190133324005723 0 1 0 I I #
coedge $-1 $488 $487 $377 $495 reversed $256 $-1 #
edge $-1 $496 -4.2341148510529178 $499 4.2341148510529187 $494 $556 forward 7 unknown #
vertex $-1 $491 $557 #
straight-curve $-1 -74.661702322458581 50.854997846800757 -7.7190133324005723 0 -1 0 I I #
coedge $-1 $502 $379 $487 $551 forward $371 $-1 #
vertex $-1 $551 $558 #
straight-curve $-1 -74.661702322458581 50.854997846800757 -16.187243034506409 0 1 0 I I #
point $-1 -74.661702322458581 41.684275290911273 -16.187243034506409 #
coedge $-1 $383 $498 $385 $504 forward $371 $-1 #
straight-curve $-1 0 41.684275290911273 -16.187243034506409 -1 0 0 I I #
edge $-1 $552 -60.02572040269024 $387 -41.684275290911273 $385 $559 forward 7 unknown #
point $-1 74.661702322458581 41.684275290911273 -16.187243034506409 #
edge $-1 $507 35.654474605196228 $510 48.075141280562555 $392 $560 forward 7 unknown #
vertex $-1 $406 $561 #
straight-curve $-1 -92.81530952178619 -11.404049815661542 16.187243034506409 -1 0 0 I I #
edge $-1 $510 3.3724374410413009 $403 12.69078730819918 $402 $562 forward 7 unknown #
vertex $-1 $509 $563 #
straight-curve $-1 -74.661702322458538 -11.404049815661542 3.7665763591401316 0.66913059716165679 0 0.74314483375859142 I I #
point $-1 -63.478084093426283 -11.404049815661542 16.187243034506409 #
point $-1 -74.661702322458581 -20.722399682819422 3.766576359140084 #
straight-curve $-1 -74.661702322458581 0 16.187243034506409 0 -1 0 I I #
vertex $-1 $409 $564 #
point $-1 -67.769400651151301 -18.858729709387845 9.4787573255585613 #
vertex $-1 $413 $565 #
point $-1 -67.769400651151301 -16.063224749240479 9.4787573255585613 #
vertex $-1 $417 $566 #
point $-1 -67.769400651151301 -13.267719789093114 9.4787573255585613 #
coedge $-1 $432 $431 $424 $522 forward $421 $-1 #
edge $-1 $523 35.654474605196228 $526 48.075141280562555 $521 $567 forward 7 unknown #
vertex $-1 $436 $568 #
straight-curve $-1 -92.81530952178619 11.938780363470764 16.187243034506409 -1 0 0 I I #
edge $-1 $526 -8.2989776485248523 $433 1.0193722186330287 $432 $569 forward 7 unknown #
vertex $-1 $525 $570 #
straight-curve $-1 -74.661702322458538 11.938780363470764 3.7665763591401316 0.66913059716165679 0 0.74314483375859142 I I #
point $-1 -63.478084093426283 11.938780363470764 16.187243034506409 #
point $-1 -74.661702322458581 2.6204304963128831 3.766576359140084 #
straight-curve $-1 -74.661702322458581 0 16.187243034506409 0 -1 0 I I #
vertex $-1 $439 $571 #
point $-1 -67.769400651151301 4.4841004697444617 9.4787573255585613 #
vertex $-1 $443 $572 #
point $-1 -67.769400651151301 7.2796054298918307 9.4787573255585613 #
vertex $-1 $447 $573 #
point $-1 -67.769400651151301 10.075110390039193 9.4787573255585613 #
straight-curve $-1 -74.661702322458581 41.684275290911273 0 0 0 -1 I I #
straight-curve $-1 -74.661702322458581 0 -16.187243034506409 0 1 0 I I #
point $-1 -74.661702322458581 -41.684275290911273 -16.187243034506409 #
point $-1 -74.661702322458581 41.684275290911273 -16.187243034506409 #
straight-curve $-1 -74.661702322458581 -41.684275290911273 0 0 0 -1 I I #
edge $-1 $482 -4.2341148510529178 $476 4.2341148510529187 $475 $574 forward 7 unknown #
coedge $-1 $480 $471 $470 $544 reversed $350 $-1 #
edge $-1 $484 -4.2341148510529178 $473 4.2341148510529187 $470 $575 forward 7 unknown #
straight-curve $-1 0 -60.02572040269024 -16.187243034506409 -1 0 0 I I #
point $-1 74.661702322458581 -60.02572040269024 -16.187243034506409 #
point $-1 -74.661702322458581 -60.02572040269024 -16.187243034506409 #
straight-curve $-1 0 -60.02572040269024 -7.7190133324005723 1 0 0 I I #
point $-1 -74.661702322458581 -60.02572040269024 -7.7190133324005723 #
point $-1 74.661702322458581 -60.02572040269024 -7.7190133324005723 #
edge $-1 $499 -74.661702322458581 $552 74.661702322458581 $487 $576 forward 7 unknown #
vertex $-1 $504 $577 #
straight-curve $-1 74.661702322458581 60.02572040269024 -11.95312818345349 0 0 -1 I I #
straight-curve $-1 0 60.02572040269024 -7.7190133324005723 -1 0 0 I I #
point $-1 74.661702322458581 60.02572040269024 -7.7190133324005723 #
straight-curve $-1 -74.661702322458581 60.02572040269024 -11.95312818345349 0 0 -1 I I #
point $-1 -74.661702322458581 60.02572040269024 -7.7190133324005723 #
point $-1 -74.661702322458581 60.02572040269024 -16.187243034506409 #
straight-curve $-1 74.661702322458581 0 -16.187243034506409 0 -1 0 I I #
straight-curve $-1 -74.661702322458581 -11.404049815661542 51.841717639702637 0 0 -1 I I #
point $-1 -74.661702322458581 -11.404049815661542 16.187243034506409 #
straight-curve $-1 -74.661702322458581 -8.0316123746202415 3.7665763591400698 0 -1 0 I I #
point $-1 -74.661702322458581 -11.404049815661542 3.766576359140084 #
point $-1 -67.732393532852825 -18.858729709387845 8.7726196100984382 #
point $-1 -67.732393532852825 -16.063224749240479 8.7726196100984382 #
point $-1 -67.732393532852825 -13.267719789093114 8.7726196100984382 #
straight-curve $-1 -74.661702322458581 11.938780363470764 51.841717639702637 0 0 -1 I I #
point $-1 -74.661702322458581 11.938780363470764 16.187243034506409 #
straight-curve $-1 -74.661702322458581 3.6398027149459118 3.7665763591400698 0 -1 0 I I #
point $-1 -74.661702322458581 11.938780363470764 3.766576359140084 #
point $-1 -67.732393532852825 4.4841004697444617 8.7726196100984382 #
point $-1 -67.732393532852825 7.2796054298918307 8.7726196100984382 #
point $-1 -67.732393532852825 10.075110390039193 8.7726196100984382 #
straight-curve $-1 -74.661702322458581 -60.02572040269024 -11.95312818345349 0 0 -1 I I #
straight-curve $-1 74.661702322458581 -60.02572040269024 -11.95312818345349 0 0 -1 I I #
straight-curve $-1 0 60.02572040269024 -16.187243034506409 1 0 0 I I #
point $-1 74.661702322458581 60.02572040269024 -16.187243034506409 #
End-of-ACIS-data 