500 0 7 0           
7 Unknown 11 ACIS 5.0 NT 24 Thu Mar 25 16:30:30 1999 
-1 9.9999999999999995e-007 1e-010 
body $-1 $7 $-1 $8 #
body $-1 $9 $-1 $10 #
body $-1 $11 $-1 $12 #
body $-1 $13 $-1 $14 #
body $-1 $15 $-1 $16 #
body $-1 $17 $-1 $18 #
body $-1 $19 $-1 $20 #
lump $-1 $-1 $21 $0 #
transform $-1 1 0 0 0 1 0 0 0 1 59.032563249610888 28.20490729119566 10.104771497934021 1 rotate no_reflect no_shear #
lump $-1 $-1 $22 $1 #
transform $-1 1 0 0 0 1 0 0 0 1 59.032563249610888 28.20490729119566 10.104771497934021 1 rotate no_reflect no_shear #
lump $-1 $-1 $23 $2 #
transform $-1 1 0 0 0 1 0 0 0 1 59.032563249610888 28.20490729119566 10.104771497934021 1 rotate no_reflect no_shear #
lump $-1 $-1 $24 $3 #
transform $-1 1 0 0 0 1 0 0 0 1 59.032563249610888 28.20490729119566 10.104771497934021 1 rotate no_reflect no_shear #
lump $-1 $-1 $25 $4 #
transform $-1 1 0 0 0 1 0 0 0 1 59.032563249610888 28.20490729119566 10.104771497934021 1 rotate no_reflect no_shear #
lump $-1 $-1 $26 $5 #
transform $-1 1 0 0 0 1 0 0 0 1 59.032563249610888 28.20490729119566 10.104771497934021 1 rotate no_reflect no_shear #
lump $-1 $-1 $27 $6 #
transform $-1 1 0 0 0 1 0 0 0 1 59.032563249610888 28.20490729119566 10.104771497934021 1 rotate no_reflect no_shear #
shell $-1 $-1 $-1 $28 $-1 $7 #
shell $-1 $-1 $-1 $29 $-1 $9 #
shell $-1 $-1 $-1 $30 $-1 $11 #
shell $-1 $-1 $-1 $31 $-1 $13 #
shell $-1 $-1 $-1 $32 $-1 $15 #
shell $-1 $-1 $-1 $33 $-1 $17 #
shell $-1 $-1 $-1 $34 $-1 $19 #
face $-1 $35 $36 $21 $-1 $37 forward single #
face $-1 $38 $39 $22 $-1 $40 forward single #
face $-1 $41 $42 $23 $-1 $43 forward single #
face $-1 $44 $45 $24 $-1 $46 reversed single #
face $-1 $47 $48 $25 $-1 $49 forward single #
face $-1 $50 $51 $26 $-1 $52 forward single #
face $-1 $53 $54 $27 $-1 $55 forward single #
face $-1 $56 $57 $21 $-1 $58 reversed single #
loop $-1 $-1 $59 $28 #
plane-surface $-1 0 0 10.104771497934021 0 0 1 1 0 0 forward_v I I I I #
face $-1 $60 $61 $22 $-1 $62 reversed single #
loop $-1 $-1 $63 $29 #
plane-surface $-1 0 -28.20490729119566 0 0 1 0 0 0 1 forward_v I I I I #
face $-1 $64 $65 $23 $-1 $66 reversed single #
loop $-1 $-1 $67 $30 #
plane-surface $-1 0 28.20490729119566 0 0 -1 0 0 0 -1 forward_v I I I I #
face $-1 $68 $69 $24 $-1 $70 reversed single #
loop $-1 $-1 $71 $31 #
plane-surface $-1 -161.27996301219807 8.1436516180100043 60.859112621497161 0 1 0 -0.86602541151947299 0 0.49999998660252726 forward_v I I I I #
face $-1 $72 $73 $25 $-1 $74 forward single #
loop $-1 $75 $76 $32 #
cone-surface $-1 -56.182505781315236 9.7364713053019614 5.6998831635197202 0.86602541151947299 0 -0.49999998660252726 0.24999999330126363 0 0.43301270575973649 1 I I 0 1 0.5 forward I I I I #
face $-1 $77 $78 $26 $-1 $79 forward single #
loop $-1 $80 $81 $33 #
cone-surface $-1 -56.182505781315236 12.125700836239901 5.6998831635197202 0.86602541151947299 0 -0.49999998660252726 0.24999999330126363 0 0.43301270575973649 1 I I 0 1 0.5 forward I I I I #
face $-1 $82 $83 $27 $-1 $84 forward single #
loop $-1 $85 $86 $34 #
cone-surface $-1 -56.182505781315236 14.51493036717784 5.6998831635197202 0.86602541151947299 0 -0.49999998660252726 0.24999999330126363 0 0.43301270575973649 1 I I 0 1 0.5 forward I I I I #
face $-1 $87 $88 $21 $-1 $89 reversed single #
loop $-1 $-1 $90 $35 #
plane-surface $-1 0 0 -10.104771497934021 0 0 1 1 0 0 forward_v I I I I #
coedge $-1 $91 $92 $93 $94 forward $36 $-1 #
face $-1 $95 $96 $22 $-1 $97 forward single #
loop $-1 $-1 $98 $38 #
plane-surface $-1 -59.032563249610888 0 0 1 0 0 0 0 -1 forward_v I I I I #
coedge $-1 $99 $100 $101 $102 forward $39 $-1 #
face $-1 $103 $104 $23 $-1 $105 reversed single #
loop $-1 $-1 $106 $41 #
plane-surface $-1 0 0 -10.104771497934021 0 0 1 1 0 0 forward_v I I I I #
coedge $-1 $107 $108 $109 $110 forward $42 $-1 #
face $-1 $111 $112 $24 $-1 $113 reversed single #
loop $-1 $-1 $114 $44 #
plane-surface $-1 -59.032563249610888 12.125700836239901 1.8265509536605862 -0.86602541151947299 0 0.49999998660252726 0.49999998660252726 0 0.86602541151947299 forward_v I I I I #
coedge $-1 $115 $116 $117 $118 reversed $45 $-1 #
face $-1 $-1 $119 $25 $-1 $120 forward single #
loop $-1 $121 $122 $47 #
cone-surface $-1 -55.505658304586973 9.7364713053019614 5.3091051045915059 0.86602541151947299 0 -0.49999998660252726 0.12499999665063181 0 0.21650635287986825 1 I I -0.70710678118654746 0.70710678118654746 0.25 forward I I I I #
loop $-1 $-1 $123 $32 #
coedge $-1 $76 $76 $124 $125 reversed $48 $-1 #
face $-1 $-1 $126 $26 $-1 $127 forward single #
loop $-1 $128 $129 $50 #
cone-surface $-1 -55.505658304586973 12.125700836239901 5.3091051045915059 0.86602541151947299 0 -0.49999998660252726 0.12499999665063181 0 0.21650635287986825 1 I I -0.70710678118654746 0.70710678118654746 0.25 forward I I I I #
loop $-1 $-1 $130 $33 #
coedge $-1 $81 $81 $131 $132 reversed $51 $-1 #
face $-1 $-1 $133 $27 $-1 $134 forward single #
loop $-1 $135 $136 $53 #
cone-surface $-1 -55.505658304586973 14.51493036717784 5.3091051045915059 0.86602541151947299 0 -0.49999998660252726 0.12499999665063181 0 0.21650635287986825 1 I I -0.70710678118654746 0.70710678118654746 0.25 forward I I I I #
loop $-1 $-1 $137 $34 #
coedge $-1 $86 $86 $138 $139 reversed $54 $-1 #
face $-1 $140 $141 $21 $-1 $142 reversed single #
loop $-1 $-1 $143 $56 #
plane-surface $-1 0 -28.20490729119566 0 0 1 0 0 0 1 forward_v I I I I #
coedge $-1 $144 $145 $146 $147 forward $57 $-1 #
coedge $-1 $148 $59 $149 $150 forward $36 $-1 #
coedge $-1 $59 $148 $151 $152 forward $36 $-1 #
coedge $-1 $153 $154 $59 $94 reversed $155 $-1 #
edge $-1 $156 -28.20490729119566 $157 28.20490729119566 $93 $158 forward 7 unknown #
face $-1 $159 $160 $22 $-1 $161 reversed single #
loop $-1 $-1 $162 $60 #
plane-surface $-1 0 -32.288481458687571 4.9268908717285775 0 0 1 1 0 0 forward_v I I I I #
coedge $-1 $163 $164 $100 $165 forward $61 $-1 #
coedge $-1 $166 $63 $167 $168 reversed $39 $-1 #
coedge $-1 $63 $166 $98 $165 reversed $39 $-1 #
coedge $-1 $169 $162 $63 $102 reversed $96 $-1 #
edge $-1 $170 -59.032563249610888 $171 59.032563249610888 $101 $172 forward 7 unknown #
face $-1 $173 $174 $23 $-1 $175 forward single #
loop $-1 $-1 $176 $64 #
plane-surface $-1 -59.032563249610888 0 0 1 0 0 0 0 -1 forward_v I I I I #
coedge $-1 $177 $178 $179 $180 forward $65 $-1 #
coedge $-1 $179 $67 $176 $181 reversed $42 $-1 #
coedge $-1 $67 $179 $182 $183 reversed $42 $-1 #
coedge $-1 $184 $185 $67 $110 reversed $174 $-1 #
edge $-1 $186 -59.032563249610888 $187 59.032563249610888 $109 $188 forward 7 unknown #
face $-1 $189 $190 $24 $-1 $191 forward single #
loop $-1 $-1 $192 $68 #
plane-surface $-1 -161.27996301219807 16.107750054469797 60.859112621497161 0 -1 0 0.86602541151947299 0 -0.49999998660252726 forward_v I I I I #
coedge $-1 $193 $194 $195 $196 reversed $69 $-1 #
coedge $-1 $116 $71 $197 $198 reversed $45 $-1 #
coedge $-1 $71 $115 $193 $199 reversed $45 $-1 #
coedge $-1 $195 $200 $71 $118 forward $190 $-1 #
edge $-1 $201 21.607418256488145 $202 26.386850945382648 $117 $203 forward 7 unknown #
loop $-1 $-1 $124 $72 #
plane-surface $-1 -59.032563249610888 12.125700836239901 1.8265509536605862 -0.86602541151947299 0 0.49999998660252726 0.49999998660252726 0 0.86602541151947299 forward_v I I I I #
loop $-1 $-1 $204 $47 #
coedge $-1 $122 $122 $123 $205 reversed $73 $-1 #
coedge $-1 $123 $123 $122 $205 forward $75 $-1 #
coedge $-1 $124 $124 $76 $125 forward $119 $-1 #
edge $-1 $206 0 $206 6.2831853071796004 $124 $207 forward 7 unknown #
loop $-1 $-1 $131 $77 #
plane-surface $-1 -59.032563249610888 12.125700836239901 1.8265509536605862 -0.86602541151947299 0 0.49999998660252726 0.49999998660252726 0 0.86602541151947299 forward_v I I I I #
loop $-1 $-1 $208 $50 #
coedge $-1 $129 $129 $130 $209 reversed $78 $-1 #
coedge $-1 $130 $130 $129 $209 forward $80 $-1 #
coedge $-1 $131 $131 $81 $132 forward $126 $-1 #
edge $-1 $210 0 $210 6.2831853071796004 $131 $211 forward 7 unknown #
loop $-1 $-1 $138 $82 #
plane-surface $-1 -59.032563249610888 12.125700836239901 1.8265509536605862 -0.86602541151947299 0 0.49999998660252726 0.49999998660252726 0 0.86602541151947299 forward_v I I I I #
loop $-1 $-1 $212 $53 #
coedge $-1 $136 $136 $137 $213 reversed $83 $-1 #
coedge $-1 $137 $137 $136 $213 forward $85 $-1 #
coedge $-1 $138 $138 $86 $139 forward $133 $-1 #
edge $-1 $214 0 $214 6.2831853071796004 $138 $215 forward 7 unknown #
face $-1 $216 $217 $21 $-1 $218 reversed single #
loop $-1 $-1 $219 $87 #
plane-surface $-1 -59.032563249610888 0 0 1 0 0 0 0 -1 forward_v I I I I #
coedge $-1 $220 $151 $221 $222 forward $88 $-1 #
coedge $-1 $223 $90 $220 $224 forward $57 $-1 #
coedge $-1 $90 $223 $225 $226 forward $57 $-1 #
coedge $-1 $154 $153 $90 $147 reversed $155 $-1 #
edge $-1 $227 -28.20490729119566 $228 28.20490729119566 $146 $229 forward 7 unknown #
coedge $-1 $92 $91 $230 $231 forward $36 $-1 #
coedge $-1 $232 $233 $91 $150 reversed $217 $-1 #
edge $-1 $157 -59.032563249610888 $234 59.032563249610888 $149 $235 forward 7 unknown #
coedge $-1 $143 $236 $92 $152 reversed $88 $-1 #
edge $-1 $237 -59.032563249610888 $156 59.032563249610888 $151 $238 forward 7 unknown #
coedge $-1 $146 $93 $236 $239 forward $155 $-1 #
coedge $-1 $93 $146 $232 $240 reversed $155 $-1 #
loop $-1 $-1 $153 $216 #
vertex $-1 $94 $241 #
vertex $-1 $94 $242 #
straight-curve $-1 59.032563249610888 0 10.104771497934021 0 1 0 I I #
face $-1 $243 $244 $22 $-1 $245 reversed single #
loop $-1 $-1 $246 $95 #
plane-surface $-1 0 -32.288481458687571 0.35166546514119545 0 0 1 1 0 0 forward_v I I I I #
coedge $-1 $101 $247 $248 $249 forward $96 $-1 #
coedge $-1 $250 $98 $251 $252 reversed $61 $-1 #
coedge $-1 $98 $250 $169 $253 reversed $61 $-1 #
edge $-1 $170 -4.9268908717285775 $254 -0.35166546514119545 $98 $255 forward 7 unknown #
coedge $-1 $100 $99 $256 $257 forward $39 $-1 #
coedge $-1 $248 $258 $99 $168 forward $259 $-1 #
edge $-1 $260 0.35166546514119545 $171 4.9268908717285775 $167 $261 forward 7 unknown #
coedge $-1 $247 $101 $164 $253 forward $96 $-1 #
vertex $-1 $165 $262 #
vertex $-1 $249 $263 #
straight-curve $-1 0 -28.20490729119566 4.9268908717285775 1 0 0 I I #
face $-1 $264 $265 $23 $-1 $266 reversed single #
loop $-1 $-1 $184 $103 #
plane-surface $-1 0 34.253485909558592 -4.5451889447843854 0 0 1 1 0 0 forward_v I I I I #
coedge $-1 $267 $268 $107 $181 forward $104 $-1 #
coedge $-1 $269 $106 $268 $270 forward $65 $-1 #
coedge $-1 $106 $269 $271 $272 forward $65 $-1 #
coedge $-1 $108 $107 $106 $180 reversed $42 $-1 #
edge $-1 $273 -59.032563249610888 $274 59.032563249610888 $106 $275 forward 7 unknown #
edge $-1 $274 -10.104771497934021 $187 -4.5451889447843854 $176 $276 forward 7 unknown #
coedge $-1 $271 $277 $108 $183 forward $278 $-1 #
edge $-1 $186 4.5451889447843854 $273 10.104771497934021 $182 $279 forward 7 unknown #
coedge $-1 $280 $109 $277 $281 forward $174 $-1 #
coedge $-1 $109 $280 $267 $282 forward $174 $-1 #
vertex $-1 $183 $283 #
vertex $-1 $282 $284 #
straight-curve $-1 0 28.20490729119566 -4.5451889447843854 -1 0 0 I I #
face $-1 $-1 $285 $24 $-1 $286 reversed single #
loop $-1 $-1 $117 $111 #
plane-surface $-1 0 0 10.104771497934021 0 0 1 1 0 0 forward_v I I I I #
coedge $-1 $287 $288 $289 $290 reversed $112 $-1 #
coedge $-1 $291 $114 $116 $199 forward $69 $-1 #
coedge $-1 $114 $291 $287 $292 forward $69 $-1 #
coedge $-1 $289 $117 $114 $196 forward $190 $-1 #
edge $-1 $202 2.080801199890054 $293 10.044899636349847 $195 $294 forward 7 unknown #
coedge $-1 $295 $296 $115 $198 forward $285 $-1 #
edge $-1 $297 -28.603005357087994 $201 -20.32478481281456 $197 $298 forward 7 unknown #
edge $-1 $202 -9.5588656339182876 $297 0 $116 $299 forward 7 unknown #
coedge $-1 $117 $289 $295 $300 forward $190 $-1 #
vertex $-1 $198 $301 #
vertex $-1 $118 $302 #
straight-curve $-1 -80.639981506099033 8.1436516180100043 10.104771497934021 1 0 0 I I #
coedge $-1 $204 $204 $-1 $303 reversed $121 $-1 #
edge $-1 $304 0 $304 6.2831853071796004 $122 $305 forward 7 unknown #
vertex $-1 $125 $306 #
ellipse-curve $-1 -56.642846905163637 9.7364713053019614 5.9656612257973043 -0.86602541151947299 0 0.49999998660252726 0.24999999330126363 0 0.43301270575973649 1 I I #
coedge $-1 $208 $208 $-1 $307 reversed $128 $-1 #
edge $-1 $308 0 $308 6.2831853071796004 $129 $309 forward 7 unknown #
vertex $-1 $132 $310 #
ellipse-curve $-1 -56.642846905163637 12.125700836239901 5.9656612257973043 -0.86602541151947299 0 0.49999998660252726 0.24999999330126363 0 0.43301270575973649 1 I I #
coedge $-1 $212 $212 $-1 $311 reversed $135 $-1 #
edge $-1 $312 0 $312 6.2831853071796004 $136 $313 forward 7 unknown #
vertex $-1 $139 $314 #
ellipse-curve $-1 -56.642846905163637 14.51493036717784 5.9656612257973043 -0.86602541151947299 0 0.49999998660252726 0.24999999330126363 0 0.43301270575973649 1 I I #
face $-1 $-1 $155 $21 $-1 $315 reversed single #
loop $-1 $-1 $233 $140 #
plane-surface $-1 0 28.20490729119566 0 0 -1 0 0 0 -1 forward_v I I I I #
coedge $-1 $316 $230 $233 $317 forward $141 $-1 #
coedge $-1 $236 $143 $144 $224 reversed $88 $-1 #
coedge $-1 $230 $316 $143 $222 reversed $141 $-1 #
edge $-1 $237 -10.104771497934021 $318 10.104771497934021 $221 $319 forward 7 unknown #
coedge $-1 $145 $144 $316 $320 forward $57 $-1 #
edge $-1 $228 -59.032563249610888 $318 59.032563249610888 $220 $321 forward 7 unknown #
coedge $-1 $233 $232 $145 $226 reversed $217 $-1 #
edge $-1 $322 -59.032563249610888 $227 59.032563249610888 $225 $323 forward 7 unknown #
vertex $-1 $147 $324 #
vertex $-1 $239 $325 #
straight-curve $-1 59.032563249610888 0 -10.104771497934021 0 -1 0 I I #
coedge $-1 $219 $221 $148 $231 reversed $141 $-1 #
edge $-1 $234 -28.20490729119566 $237 28.20490729119566 $230 $326 forward 7 unknown #
coedge $-1 $225 $149 $154 $240 forward $217 $-1 #
coedge $-1 $149 $225 $219 $317 reversed $217 $-1 #
vertex $-1 $150 $327 #
straight-curve $-1 0 28.20490729119566 10.104771497934021 -1 0 0 I I #
coedge $-1 $151 $220 $153 $239 reversed $88 $-1 #
vertex $-1 $231 $328 #
straight-curve $-1 0 -28.20490729119566 10.104771497934021 1 0 0 I I #
edge $-1 $156 -10.104771497934021 $228 10.104771497934021 $153 $329 forward 7 unknown #
edge $-1 $157 -10.104771497934021 $227 10.104771497934021 $154 $330 forward 7 unknown #
point $-1 59.032563249610888 -28.20490729119566 10.104771497934021 #
point $-1 59.032563249610888 28.20490729119566 10.104771497934021 #
face $-1 $-1 $259 $22 $-1 $331 reversed single #
loop $-1 $-1 $332 $159 #
plane-surface $-1 0 -36.372055626179481 2.6392781684348865 0 1 0 0 0 1 forward_v I I I I #
coedge $-1 $333 $256 $258 $334 forward $160 $-1 #
coedge $-1 $162 $169 $335 $336 forward $96 $-1 #
coedge $-1 $337 $167 $162 $249 reversed $259 $-1 #
edge $-1 $338 -4.0835741674919106 $171 4.0835741674919106 $248 $339 forward 7 unknown #
coedge $-1 $164 $163 $332 $340 reversed $61 $-1 #
coedge $-1 $256 $333 $163 $252 forward $160 $-1 #
edge $-1 $341 -4.0835741674919106 $254 4.0835741674919106 $163 $342 forward 7 unknown #
edge $-1 $170 -4.0835741674919106 $343 4.0835741674919106 $164 $344 forward 7 unknown #
vertex $-1 $165 $345 #
straight-curve $-1 -59.032563249610888 -28.20490729119566 0 0 0 -1 I I #
coedge $-1 $246 $251 $166 $257 reversed $160 $-1 #
edge $-1 $260 -59.032563249610888 $254 59.032563249610888 $256 $346 forward 7 unknown #
coedge $-1 $167 $337 $246 $334 reversed $259 $-1 #
loop $-1 $-1 $167 $243 #
vertex $-1 $168 $347 #
straight-curve $-1 59.032563249610888 -28.20490729119566 0 0 0 1 I I #
point $-1 -59.032563249610888 -28.20490729119566 4.9268908717285775 #
point $-1 59.032563249610888 -28.20490729119566 4.9268908717285775 #
face $-1 $-1 $278 $23 $-1 $348 reversed single #
loop $-1 $-1 $349 $173 #
plane-surface $-1 0 40.302064527921523 -7.324980221359203 0 -1 0 0 0 -1 forward_v I I I I #
coedge $-1 $350 $176 $185 $282 reversed $104 $-1 #
coedge $-1 $176 $350 $177 $270 reversed $104 $-1 #
coedge $-1 $178 $177 $351 $352 forward $65 $-1 #
edge $-1 $274 -6.0485786183629315 $353 6.0485786183629315 $268 $354 forward 7 unknown #
coedge $-1 $355 $182 $178 $272 reversed $278 $-1 #
edge $-1 $356 -40.302064527921523 $273 -28.20490729119566 $271 $357 forward 7 unknown #
vertex $-1 $183 $358 #
vertex $-1 $270 $359 #
straight-curve $-1 0 28.20490729119566 -10.104771497934021 -1 0 0 I I #
straight-curve $-1 -59.032563249610888 28.20490729119566 0 0 0 1 I I #
coedge $-1 $182 $355 $184 $281 reversed $278 $-1 #
loop $-1 $-1 $182 $264 #
straight-curve $-1 59.032563249610888 28.20490729119566 0 0 0 -1 I I #
coedge $-1 $185 $184 $360 $361 forward $174 $-1 #
edge $-1 $186 -6.0485786183629315 $362 6.0485786183629315 $277 $363 forward 7 unknown #
edge $-1 $364 -6.0485786183629315 $187 6.0485786183629315 $267 $365 forward 7 unknown #
point $-1 59.032563249610888 28.20490729119566 -4.5451889447843854 #
point $-1 -59.032563249610888 28.20490729119566 -4.5451889447843854 #
loop $-1 $-1 $197 $189 #
plane-surface $-1 -59.032563249610888 0 0 1 0 0 0 0 -1 forward_v I I I I #
coedge $-1 $288 $192 $194 $292 reversed $112 $-1 #
coedge $-1 $192 $287 $366 $367 reversed $112 $-1 #
coedge $-1 $200 $195 $192 $290 forward $190 $-1 #
edge $-1 $293 -26.386850945382648 $368 -21.607418256488145 $289 $369 forward 7 unknown #
coedge $-1 $194 $193 $296 $370 reversed $69 $-1 #
edge $-1 $371 0 $293 9.5588656339182876 $287 $372 forward 7 unknown #
vertex $-1 $196 $373 #
straight-curve $-1 -54.253130560716393 6.0628504181199503 10.104771497934021 0 1 0 I I #
coedge $-1 $366 $197 $200 $300 reversed $285 $-1 #
coedge $-1 $197 $366 $291 $370 forward $285 $-1 #
vertex $-1 $198 $374 #
straight-curve $-1 -59.032563249610888 8.1436516180100043 30.42955631074858 0 0 1 I I #
straight-curve $-1 -59.032563249610888 8.1436516180100043 1.8265509536605862 -0.49999998660252726 0 -0.86602541151947299 I I #
edge $-1 $368 -16.107750054469797 $201 -8.1436516180100043 $295 $375 forward 7 unknown #
point $-1 -59.032563249610888 8.1436516180100043 10.104771497934021 #
point $-1 -54.253130560716386 8.1436516180100043 10.104771497934021 #
edge $-1 $376 1 $376 0 $204 $-1 forward 7 unknown #
vertex $-1 $205 $377 #
ellipse-curve $-1 -55.722164657466841 9.7364713053019614 5.434105101242138 -0.86602541151947299 0 0.49999998660252726 0.24999999330126363 0 0.43301270575973649 1 I I #
point $-1 -56.392846911862371 9.7364713053019614 6.3986739315570382 #
edge $-1 $378 1 $378 0 $208 $-1 forward 7 unknown #
vertex $-1 $209 $379 #
ellipse-curve $-1 -55.722164657466841 12.125700836239901 5.434105101242138 -0.86602541151947299 0 0.49999998660252726 0.24999999330126363 0 0.43301270575973649 1 I I #
point $-1 -56.392846911862371 12.125700836239901 6.3986739315570382 #
edge $-1 $380 1 $380 0 $212 $-1 forward 7 unknown #
vertex $-1 $213 $381 #
ellipse-curve $-1 -55.722164657466841 14.51493036717784 5.434105101242138 -0.86602541151947299 0 0.49999998660252726 0.24999999330126363 0 0.43301270575973649 1 I I #
point $-1 -56.392846911862371 14.51493036717784 6.3986739315570382 #
plane-surface $-1 59.032563249610888 0 0 -1 0 0 0 0 1 forward_v I I I I #
coedge $-1 $221 $219 $223 $320 reversed $141 $-1 #
edge $-1 $234 -10.104771497934021 $322 10.104771497934021 $233 $382 forward 7 unknown #
vertex $-1 $320 $383 #
straight-curve $-1 -59.032563249610888 -28.20490729119566 0 0 0 -1 I I #
edge $-1 $318 -28.20490729119566 $322 28.20490729119566 $316 $384 forward 7 unknown #
straight-curve $-1 0 -28.20490729119566 -10.104771497934021 -1 0 0 I I #
vertex $-1 $226 $385 #
straight-curve $-1 0 28.20490729119566 -10.104771497934021 1 0 0 I I #
point $-1 59.032563249610888 28.20490729119566 -10.104771497934021 #
point $-1 59.032563249610888 -28.20490729119566 -10.104771497934021 #
straight-curve $-1 -59.032563249610888 0 10.104771497934021 0 -1 0 I I #
point $-1 -59.032563249610888 28.20490729119566 10.104771497934021 #
point $-1 -59.032563249610888 -28.20490729119566 10.104771497934021 #
straight-curve $-1 59.032563249610888 -28.20490729119566 0 0 0 -1 I I #
straight-curve $-1 59.032563249610888 28.20490729119566 0 0 0 -1 I I #
plane-surface $-1 59.032563249610888 0 0 -1 0 0 0 0 1 forward_v I I I I #
coedge $-1 $386 $335 $250 $340 forward $244 $-1 #
coedge $-1 $251 $246 $386 $387 forward $160 $-1 #
edge $-1 $260 -4.0835741674919106 $388 4.0835741674919106 $258 $389 forward 7 unknown #
coedge $-1 $332 $390 $247 $336 reversed $244 $-1 #
edge $-1 $343 -59.032563249610888 $338 59.032563249610888 $335 $391 forward 7 unknown #
coedge $-1 $258 $248 $390 $392 forward $259 $-1 #
vertex $-1 $249 $393 #
straight-curve $-1 59.032563249610888 -32.288481458687571 4.9268908717285775 0 1 0 I I #
edge $-1 $343 -2.287612703293691 $341 2.287612703293691 $250 $394 forward 7 unknown #
vertex $-1 $252 $395 #
straight-curve $-1 -59.032563249610888 -32.288481458687571 0.35166546514119545 0 1 0 I I #
vertex $-1 $253 $396 #
straight-curve $-1 -59.032563249610888 -32.288481458687571 4.9268908717285775 0 -1 0 I I #
point $-1 -59.032563249610888 -28.20490729119566 0.35166546514119545 #
straight-curve $-1 0 -28.20490729119566 0.35166546514119545 -1 0 0 I I #
point $-1 59.032563249610888 -28.20490729119566 0.35166546514119545 #
plane-surface $-1 59.032563249610888 0 0 -1 0 0 0 0 1 forward_v I I I I #
coedge $-1 $351 $360 $355 $397 forward $265 $-1 #
coedge $-1 $268 $267 $398 $399 forward $104 $-1 #
coedge $-1 $398 $349 $269 $352 reversed $265 $-1 #
edge $-1 $353 -59.032563249610888 $356 59.032563249610888 $351 $400 forward 7 unknown #
vertex $-1 $352 $401 #
straight-curve $-1 -59.032563249610888 34.253485909558592 -10.104771497934021 0 1 0 I I #
coedge $-1 $277 $271 $349 $397 reversed $278 $-1 #
vertex $-1 $272 $402 #
straight-curve $-1 59.032563249610888 0 -10.104771497934021 0 -1 0 I I #
point $-1 59.032563249610888 28.20490729119566 -10.104771497934021 #
point $-1 -59.032563249610888 28.20490729119566 -10.104771497934021 #
coedge $-1 $349 $398 $280 $361 reversed $265 $-1 #
edge $-1 $362 -59.032563249610888 $364 59.032563249610888 $360 $403 forward 7 unknown #
vertex $-1 $281 $404 #
straight-curve $-1 59.032563249610888 34.253485909558592 -4.5451889447843854 0 1 0 I I #
vertex $-1 $361 $405 #
straight-curve $-1 -59.032563249610888 34.253485909558592 -4.5451889447843854 0 -1 0 I I #
coedge $-1 $296 $295 $288 $367 forward $285 $-1 #
edge $-1 $368 20.32478481281456 $371 28.603005357087994 $366 $406 forward 7 unknown #
vertex $-1 $300 $407 #
straight-curve $-1 -80.639981506099033 16.107750054469797 10.104771497934021 -1 0 0 I I #
edge $-1 $371 -10.044899636349847 $297 -2.080801199890054 $296 $408 forward 7 unknown #
vertex $-1 $370 $409 #
straight-curve $-1 -59.032563249610888 16.107750054469797 1.8265509536605862 0.49999998660252726 0 0.86602541151947299 I I #
point $-1 -54.253130560716386 16.107750054469797 10.104771497934021 #
point $-1 -59.032563249610888 8.1436516180100043 1.8265509536605862 #
straight-curve $-1 -59.032563249610888 0 10.104771497934021 0 -1 0 I I #
vertex $-1 $303 $410 #
point $-1 -55.472164664165575 9.7364713053019614 5.8671178070018737 #
vertex $-1 $307 $411 #
point $-1 -55.472164664165575 12.125700836239901 5.8671178070018737 #
vertex $-1 $311 $412 #
point $-1 -55.472164664165575 14.51493036717784 5.8671178070018737 #
straight-curve $-1 -59.032563249610888 28.20490729119566 0 0 0 -1 I I #
point $-1 -59.032563249610888 -28.20490729119566 -10.104771497934021 #
straight-curve $-1 -59.032563249610888 0 -10.104771497934021 0 1 0 I I #
point $-1 -59.032563249610888 28.20490729119566 -10.104771497934021 #
coedge $-1 $390 $332 $333 $387 reversed $244 $-1 #
edge $-1 $388 -59.032563249610888 $341 59.032563249610888 $386 $413 forward 7 unknown #
vertex $-1 $392 $414 #
straight-curve $-1 59.032563249610888 -32.288481458687571 0.35166546514119545 0 -1 0 I I #
coedge $-1 $335 $386 $337 $392 reversed $244 $-1 #
straight-curve $-1 0 -36.372055626179481 4.9268908717285775 1 0 0 I I #
edge $-1 $338 -2.287612703293691 $388 2.287612703293691 $337 $415 forward 7 unknown #
point $-1 59.032563249610888 -36.372055626179481 4.9268908717285775 #
straight-curve $-1 -59.032563249610888 -36.372055626179481 2.6392781684348865 0 0 -1 I I #
point $-1 -59.032563249610888 -36.372055626179481 0.35166546514119545 #
point $-1 -59.032563249610888 -36.372055626179481 4.9268908717285775 #
edge $-1 $362 -2.7797912765748176 $356 2.7797912765748176 $355 $416 forward 7 unknown #
coedge $-1 $360 $351 $350 $399 reversed $265 $-1 #
edge $-1 $364 -2.7797912765748176 $353 2.7797912765748176 $398 $417 forward 7 unknown #
straight-curve $-1 0 40.302064527921523 -10.104771497934021 1 0 0 I I #
point $-1 -59.032563249610888 40.302064527921523 -10.104771497934021 #
point $-1 59.032563249610888 40.302064527921523 -10.104771497934021 #
straight-curve $-1 0 40.302064527921523 -4.5451889447843854 -1 0 0 I I #
point $-1 59.032563249610888 40.302064527921523 -4.5451889447843854 #
point $-1 -59.032563249610888 40.302064527921523 -4.5451889447843854 #
straight-curve $-1 -59.032563249610888 16.107750054469797 30.42955631074858 0 0 -1 I I #
point $-1 -59.032563249610888 16.107750054469797 10.104771497934021 #
straight-curve $-1 -59.032563249610888 6.0628504181199503 1.8265509536605862 0 -1 0 I I #
point $-1 -59.032563249610888 16.107750054469797 1.8265509536605862 #
point $-1 -55.289151951707105 9.7364713053019614 5.1841051079408738 #
point $-1 -55.289151951707105 12.125700836239901 5.1841051079408738 #
point $-1 -55.289151951707105 14.51493036717784 5.1841051079408738 #
straight-curve $-1 0 -36.372055626179481 0.35166546514119545 -1 0 0 I I #
point $-1 59.032563249610888 -36.372055626179481 0.35166546514119545 #
straight-curve $-1 59.032563249610888 -36.372055626179481 2.6392781684348865 0 0 -1 I I #
straight-curve $-1 59.032563249610888 40.302064527921523 -7.324980221359203 0 0 -1 I I #
straight-curve $-1 -59.032563249610888 40.302064527921523 -7.324980221359203 0 0 -1 I I #
End-of-ACIS-data 