500 0 4 0           
7 Unknown 11 ACIS 5.0 NT 24 Thu Mar 25 17:16:01 1999 
-1 9.9999999999999995e-007 1e-010 
body $-1 $4 $-1 $5 #
body $-1 $6 $-1 $7 #
body $-1 $8 $-1 $9 #
body $-1 $10 $-1 $11 #
lump $-1 $-1 $12 $0 #
transform $-1 1 0 0 0 1 0 0 0 1 78.19940794091616 43.854863744690554 15.620024530519563 1 rotate no_reflect no_shear #
lump $-1 $-1 $13 $1 #
transform $-1 1 0 0 0 1 0 0 0 1 78.19940794091616 43.854863744690554 15.620024530519563 1 rotate no_reflect no_shear #
lump $-1 $-1 $14 $2 #
transform $-1 1 0 0 0 1 0 0 0 1 78.19940794091616 43.854863744690554 15.620024530519563 1 rotate no_reflect no_shear #
lump $-1 $-1 $15 $3 #
transform $-1 1 0 0 0 1 0 0 0 1 78.19940794091616 43.854863744690554 15.620024530519563 1 rotate no_reflect no_shear #
shell $-1 $-1 $-1 $16 $-1 $4 #
shell $-1 $-1 $-1 $17 $-1 $6 #
shell $-1 $-1 $-1 $18 $-1 $8 #
shell $-1 $-1 $-1 $19 $-1 $10 #
face $-1 $20 $21 $12 $-1 $22 forward single #
face $-1 $23 $24 $13 $-1 $25 forward single #
face $-1 $26 $27 $14 $-1 $28 reversed single #
face $-1 $29 $30 $15 $-1 $31 forward single #
face $-1 $32 $33 $12 $-1 $34 reversed single #
loop $-1 $-1 $35 $16 #
plane-surface $-1 0 0 15.620024530519563 0 0 1 1 0 0 forward_v I I I I #
face $-1 $36 $37 $13 $-1 $38 forward single #
loop $-1 $-1 $39 $17 #
plane-surface $-1 0 -43.854863744690554 0 0 1 0 0 0 1 forward_v I I I I #
face $-1 $40 $41 $14 $-1 $42 reversed single #
loop $-1 $-1 $43 $18 #
plane-surface $-1 -30.899632400137477 135.44535006031083 159.05382837195896 1 0 0 0 -0.86602541151947299 -0.49999998660252726 forward_v I I I I #
face $-1 $44 $45 $15 $-1 $46 forward single #
loop $-1 $47 $48 $19 #
cone-surface $-1 -16.117708121282519 38.583642293385857 9.0018651052027945 0 -0.86602541151947299 -0.49999998660252726 2.5 0 0 1 I I 0 1 2.5 forward I I I I #
face $-1 $49 $50 $12 $-1 $51 reversed single #
loop $-1 $-1 $52 $20 #
plane-surface $-1 0 0 -15.620024530519563 0 0 1 1 0 0 forward_v I I I I #
coedge $-1 $53 $54 $55 $56 forward $21 $-1 #
face $-1 $57 $58 $13 $-1 $59 reversed single #
loop $-1 $-1 $60 $23 #
plane-surface $-1 0 0 15.620024530519563 0 0 1 1 0 0 forward_v I I I I #
coedge $-1 $61 $62 $63 $64 forward $24 $-1 #
face $-1 $65 $66 $14 $-1 $67 reversed single #
loop $-1 $-1 $68 $26 #
plane-surface $-1 -16.117708121282519 1.1750886983463715e-006 80.854422526391673 0 0.86602541151947299 0.49999998660252726 1 0 0 forward_v I I I I #
coedge $-1 $69 $70 $71 $72 reversed $27 $-1 #
face $-1 $-1 $73 $15 $-1 $74 forward single #
loop $-1 $75 $76 $29 #
cone-surface $-1 -16.117708121282519 35.325772413599857 7.120933120322869 0 -0.86602541151947299 -0.49999998660252726 1.25 0 0 1 I I -0.70710678118654746 0.70710678118654746 1.25 forward I I I I #
loop $-1 $-1 $77 $19 #
coedge $-1 $48 $48 $78 $79 reversed $30 $-1 #
face $-1 $80 $81 $12 $-1 $82 reversed single #
loop $-1 $-1 $83 $32 #
plane-surface $-1 0 -43.854863744690554 0 0 1 0 0 0 1 forward_v I I I I #
coedge $-1 $84 $85 $86 $87 forward $33 $-1 #
coedge $-1 $88 $35 $89 $90 forward $21 $-1 #
coedge $-1 $35 $88 $91 $92 forward $21 $-1 #
coedge $-1 $93 $94 $35 $56 reversed $95 $-1 #
edge $-1 $96 -43.854863744690554 $97 43.854863744690554 $55 $98 forward 7 unknown #
face $-1 $99 $100 $13 $-1 $101 reversed single #
loop $-1 $-1 $102 $36 #
plane-surface $-1 -78.19940794091616 0 0 1 0 0 0 0 -1 forward_v I I I I #
coedge $-1 $103 $104 $105 $106 forward $37 $-1 #
coedge $-1 $105 $39 $102 $107 reversed $24 $-1 #
coedge $-1 $39 $105 $108 $109 reversed $24 $-1 #
coedge $-1 $110 $111 $39 $64 reversed $100 $-1 #
edge $-1 $112 -78.19940794091616 $113 78.19940794091616 $63 $114 forward 7 unknown #
face $-1 $115 $116 $14 $-1 $117 reversed single #
loop $-1 $-1 $118 $40 #
plane-surface $-1 -1.3357838424275599 135.44535006031083 159.05382837195896 -1 0 0 0 0.86602541151947299 0.49999998660252726 forward_v I I I I #
coedge $-1 $119 $120 $121 $122 reversed $41 $-1 #
coedge $-1 $70 $43 $123 $124 reversed $27 $-1 #
coedge $-1 $43 $69 $119 $125 reversed $27 $-1 #
coedge $-1 $121 $126 $43 $72 forward $127 $-1 #
edge $-1 $128 23.86781128546486 $129 30.059577957300931 $71 $130 forward 7 unknown #
loop $-1 $-1 $78 $44 #
plane-surface $-1 -16.117708121282519 1.1750886983463715e-006 80.854422526391673 0 0.86602541151947299 0.49999998660252726 1 0 0 forward_v I I I I #
loop $-1 $-1 $131 $29 #
coedge $-1 $76 $76 $77 $132 reversed $45 $-1 #
coedge $-1 $77 $77 $76 $132 forward $47 $-1 #
coedge $-1 $78 $78 $48 $79 forward $73 $-1 #
edge $-1 $133 -1.9038930316466689e-016 $133 6.2831853071796004 $78 $134 forward 7 unknown #
face $-1 $135 $136 $12 $-1 $137 reversed single #
loop $-1 $-1 $138 $49 #
plane-surface $-1 -78.19940794091616 0 0 1 0 0 0 0 -1 forward_v I I I I #
coedge $-1 $139 $91 $140 $141 forward $50 $-1 #
coedge $-1 $142 $52 $139 $143 forward $33 $-1 #
coedge $-1 $52 $142 $144 $145 forward $33 $-1 #
coedge $-1 $94 $93 $52 $87 reversed $95 $-1 #
edge $-1 $146 -43.854863744690554 $147 43.854863744690554 $86 $148 forward 7 unknown #
coedge $-1 $54 $53 $149 $150 forward $21 $-1 #
coedge $-1 $151 $152 $53 $90 reversed $136 $-1 #
edge $-1 $97 -78.19940794091616 $153 78.19940794091616 $89 $154 forward 7 unknown #
coedge $-1 $83 $155 $54 $92 reversed $50 $-1 #
edge $-1 $156 -78.19940794091616 $96 78.19940794091616 $91 $157 forward 7 unknown #
coedge $-1 $86 $55 $155 $158 forward $95 $-1 #
coedge $-1 $55 $86 $151 $159 reversed $95 $-1 #
loop $-1 $-1 $93 $135 #
vertex $-1 $56 $160 #
vertex $-1 $56 $161 #
straight-curve $-1 78.19940794091616 0 15.620024530519563 0 1 0 I I #
face $-1 $162 $163 $13 $-1 $164 reversed single #
loop $-1 $-1 $110 $57 #
plane-surface $-1 0 -50.184112748172865 10.739666635730501 0 0 1 1 0 0 forward_v I I I I #
coedge $-1 $165 $166 $61 $107 forward $58 $-1 #
coedge $-1 $167 $60 $166 $168 forward $37 $-1 #
coedge $-1 $60 $167 $169 $170 forward $37 $-1 #
coedge $-1 $62 $61 $60 $106 reversed $24 $-1 #
edge $-1 $171 -78.19940794091616 $172 78.19940794091616 $60 $173 forward 7 unknown #
edge $-1 $172 -15.620024530519563 $113 -10.739666635730501 $102 $174 forward 7 unknown #
coedge $-1 $169 $175 $62 $109 forward $176 $-1 #
edge $-1 $112 10.739666635730501 $171 15.620024530519563 $108 $177 forward 7 unknown #
coedge $-1 $178 $63 $175 $179 forward $100 $-1 #
coedge $-1 $63 $178 $165 $180 forward $100 $-1 #
vertex $-1 $109 $181 #
vertex $-1 $107 $182 #
straight-curve $-1 0 -43.854863744690554 10.739666635730501 -1 0 0 I I #
face $-1 $-1 $127 $14 $-1 $183 forward single #
loop $-1 $-1 $184 $65 #
plane-surface $-1 0 43.854863744690554 0 0 -1 0 0 0 -1 forward_v I I I I #
coedge $-1 $185 $186 $187 $188 reversed $66 $-1 #
coedge $-1 $189 $68 $70 $125 forward $41 $-1 #
coedge $-1 $68 $189 $185 $190 forward $41 $-1 #
coedge $-1 $187 $71 $68 $122 forward $127 $-1 #
edge $-1 $129 -22.840778339496218 $191 6.7230702182136994 $121 $192 forward 7 unknown #
coedge $-1 $193 $194 $69 $124 forward $116 $-1 #
edge $-1 $195 -74.631344502839895 $128 -63.906889655459914 $123 $196 forward 7 unknown #
edge $-1 $129 75.326193813892829 $195 87.709727489381095 $70 $197 forward 7 unknown #
coedge $-1 $71 $187 $193 $198 forward $127 $-1 #
loop $-1 $-1 $187 $115 #
vertex $-1 $124 $199 #
vertex $-1 $72 $200 #
straight-curve $-1 -30.899632400137477 67.722675030155415 15.620024530519558 0 -1 0 I I #
coedge $-1 $131 $131 $-1 $201 reversed $75 $-1 #
edge $-1 $202 0 $202 6.2831853071796004 $76 $203 forward 7 unknown #
vertex $-1 $79 $204 #
ellipse-curve $-1 -16.117708121282519 40.758980408772523 10.257797106829564 0 0.86602541151947299 0.49999998660252726 2.5 0 0 1 I I #
face $-1 $-1 $95 $12 $-1 $205 reversed single #
loop $-1 $-1 $151 $80 #
plane-surface $-1 0 43.854863744690554 0 0 -1 0 0 0 -1 forward_v I I I I #
coedge $-1 $206 $149 $152 $207 forward $81 $-1 #
coedge $-1 $155 $83 $84 $143 reversed $50 $-1 #
coedge $-1 $149 $206 $83 $141 reversed $81 $-1 #
edge $-1 $156 -15.620024530519563 $208 15.620024530519563 $140 $209 forward 7 unknown #
coedge $-1 $85 $84 $206 $210 forward $33 $-1 #
edge $-1 $147 -78.19940794091616 $208 78.19940794091616 $139 $211 forward 7 unknown #
coedge $-1 $152 $151 $85 $145 reversed $136 $-1 #
edge $-1 $212 -78.19940794091616 $146 78.19940794091616 $144 $213 forward 7 unknown #
vertex $-1 $87 $214 #
vertex $-1 $158 $215 #
straight-curve $-1 78.19940794091616 0 -15.620024530519563 0 -1 0 I I #
coedge $-1 $138 $140 $88 $150 reversed $81 $-1 #
edge $-1 $153 -43.854863744690554 $156 43.854863744690554 $149 $216 forward 7 unknown #
coedge $-1 $144 $89 $94 $159 forward $136 $-1 #
coedge $-1 $89 $144 $138 $207 reversed $136 $-1 #
vertex $-1 $90 $217 #
straight-curve $-1 0 43.854863744690554 15.620024530519563 -1 0 0 I I #
coedge $-1 $91 $139 $93 $158 reversed $50 $-1 #
vertex $-1 $150 $218 #
straight-curve $-1 0 -43.854863744690554 15.620024530519563 1 0 0 I I #
edge $-1 $96 -15.620024530519563 $147 15.620024530519563 $93 $219 forward 7 unknown #
edge $-1 $97 -15.620024530519563 $146 15.620024530519563 $94 $220 forward 7 unknown #
point $-1 78.19940794091616 -43.854863744690554 15.620024530519563 #
point $-1 78.19940794091616 43.854863744690554 15.620024530519563 #
face $-1 $-1 $176 $13 $-1 $221 reversed single #
loop $-1 $-1 $222 $99 #
plane-surface $-1 0 -56.513361751655175 13.179845583125031 0 1 0 0 0 1 forward_v I I I I #
coedge $-1 $223 $102 $111 $180 reversed $58 $-1 #
coedge $-1 $102 $223 $103 $168 reversed $58 $-1 #
coedge $-1 $104 $103 $224 $225 forward $37 $-1 #
edge $-1 $172 43.854863744690554 $226 56.513361751655175 $166 $227 forward 7 unknown #
coedge $-1 $228 $108 $104 $170 reversed $176 $-1 #
edge $-1 $229 -56.513361751655175 $171 -43.854863744690554 $169 $230 forward 7 unknown #
vertex $-1 $109 $231 #
vertex $-1 $168 $232 #
straight-curve $-1 0 -43.854863744690554 15.620024530519563 -1 0 0 I I #
straight-curve $-1 -78.19940794091616 -43.854863744690554 0 0 0 -1 I I #
coedge $-1 $108 $228 $110 $179 reversed $176 $-1 #
loop $-1 $-1 $108 $162 #
straight-curve $-1 78.19940794091616 -43.854863744690554 0 0 0 1 I I #
coedge $-1 $111 $110 $233 $234 forward $100 $-1 #
edge $-1 $112 -6.3292490034823103 $235 6.3292490034823103 $175 $236 forward 7 unknown #
edge $-1 $237 -6.3292490034823103 $113 6.3292490034823103 $165 $238 forward 7 unknown #
point $-1 78.19940794091616 -43.854863744690554 10.739666635730501 #
point $-1 -78.19940794091616 -43.854863744690554 10.739666635730501 #
plane-surface $-1 0 0 15.620024530519563 0 0 1 1 0 0 forward_v I I I I #
coedge $-1 $194 $193 $186 $239 forward $116 $-1 #
coedge $-1 $186 $118 $120 $190 reversed $66 $-1 #
coedge $-1 $118 $185 $184 $239 reversed $66 $-1 #
coedge $-1 $126 $121 $118 $188 forward $127 $-1 #
edge $-1 $191 -30.059577957300931 $240 -23.86781128546486 $187 $241 forward 7 unknown #
coedge $-1 $120 $119 $194 $242 reversed $41 $-1 #
edge $-1 $243 -87.709727489381095 $191 -75.326193813892829 $185 $244 forward 7 unknown #
vertex $-1 $122 $245 #
straight-curve $-1 -8.0588540606412593 37.663097072854477 15.620024530519565 1 0 0 I I #
coedge $-1 $184 $123 $126 $198 reversed $116 $-1 #
coedge $-1 $123 $184 $189 $242 forward $116 $-1 #
vertex $-1 $124 $246 #
straight-curve $-1 -30.899632400137477 43.854863744690554 79.526914185979479 0 0 1 I I #
straight-curve $-1 -30.899632400137477 1.1750886983463715e-006 80.854422526391673 0 0.49999998660252726 -0.86602541151947299 I I #
edge $-1 $240 1.3357838424275599 $128 30.899632400137477 $193 $247 forward 7 unknown #
point $-1 -30.899632400137477 43.854863744690554 15.620024530519563 #
point $-1 -30.899632400137477 37.663097072854484 15.620024530519558 #
edge $-1 $248 1 $248 0 $131 $-1 forward 7 unknown #
vertex $-1 $132 $249 #
ellipse-curve $-1 -16.117708121282519 36.408304177999199 7.7459331035760277 0 0.86602541151947299 0.49999998660252726 2.5 0 0 1 I I #
point $-1 -13.617708121282519 40.758980408772516 10.25779710682956 #
plane-surface $-1 78.19940794091616 0 0 -1 0 0 0 0 1 forward_v I I I I #
coedge $-1 $140 $138 $142 $210 reversed $81 $-1 #
edge $-1 $153 -15.620024530519563 $212 15.620024530519563 $152 $250 forward 7 unknown #
vertex $-1 $210 $251 #
straight-curve $-1 -78.19940794091616 -43.854863744690554 0 0 0 -1 I I #
edge $-1 $208 -43.854863744690554 $212 43.854863744690554 $206 $252 forward 7 unknown #
straight-curve $-1 0 -43.854863744690554 -15.620024530519563 -1 0 0 I I #
vertex $-1 $145 $253 #
straight-curve $-1 0 43.854863744690554 -15.620024530519563 1 0 0 I I #
point $-1 78.19940794091616 43.854863744690554 -15.620024530519563 #
point $-1 78.19940794091616 -43.854863744690554 -15.620024530519563 #
straight-curve $-1 -78.19940794091616 0 15.620024530519563 0 -1 0 I I #
point $-1 -78.19940794091616 43.854863744690554 15.620024530519563 #
point $-1 -78.19940794091616 -43.854863744690554 15.620024530519563 #
straight-curve $-1 78.19940794091616 -43.854863744690554 0 0 0 -1 I I #
straight-curve $-1 78.19940794091616 43.854863744690554 0 0 0 -1 I I #
plane-surface $-1 78.19940794091616 0 0 -1 0 0 0 0 1 forward_v I I I I #
coedge $-1 $233 $224 $223 $254 forward $163 $-1 #
coedge $-1 $166 $165 $222 $254 reversed $58 $-1 #
coedge $-1 $222 $255 $167 $225 reversed $163 $-1 #
edge $-1 $226 -78.19940794091616 $229 78.19940794091616 $224 $256 forward 7 unknown #
vertex $-1 $168 $257 #
straight-curve $-1 -78.19940794091616 0 15.620024530519563 0 -1 0 I I #
coedge $-1 $175 $169 $255 $258 forward $176 $-1 #
vertex $-1 $170 $259 #
straight-curve $-1 78.19940794091616 0 15.620024530519563 0 1 0 I I #
point $-1 78.19940794091616 -43.854863744690554 15.620024530519563 #
point $-1 -78.19940794091616 -43.854863744690554 15.620024530519563 #
coedge $-1 $255 $222 $178 $234 reversed $163 $-1 #
edge $-1 $235 -78.19940794091616 $237 78.19940794091616 $233 $260 forward 7 unknown #
vertex $-1 $258 $261 #
straight-curve $-1 78.19940794091616 -50.184112748172865 10.739666635730501 0 -1 0 I I #
vertex $-1 $180 $262 #
straight-curve $-1 -78.19940794091616 -50.184112748172865 10.739666635730501 0 1 0 I I #
edge $-1 $240 63.906889655459914 $243 74.631344502839895 $184 $263 forward 7 unknown #
vertex $-1 $198 $264 #
straight-curve $-1 -1.3357838424275599 67.722675030155415 15.620024530519558 0 1 0 I I #
edge $-1 $243 -6.7230702182136994 $195 22.840778339496218 $194 $265 forward 7 unknown #
vertex $-1 $242 $266 #
straight-curve $-1 -1.3357838424275599 1.1750886983463715e-006 80.854422526391673 0 -0.49999998660252726 0.86602541151947299 I I #
point $-1 -1.3357838424275599 37.663097072854484 15.620024530519558 #
point $-1 -30.899632400137477 43.854863744690554 4.8955696831395841 #
straight-curve $-1 0 43.854863744690554 15.620024530519563 -1 0 0 I I #
vertex $-1 $201 $267 #
point $-1 -13.617708121282519 36.408304177999199 7.7459331035760277 #
straight-curve $-1 -78.19940794091616 43.854863744690554 0 0 0 -1 I I #
point $-1 -78.19940794091616 -43.854863744690554 -15.620024530519563 #
straight-curve $-1 -78.19940794091616 0 -15.620024530519563 0 1 0 I I #
point $-1 -78.19940794091616 43.854863744690554 -15.620024530519563 #
edge $-1 $226 -2.4401789473945303 $237 2.4401789473945303 $223 $268 forward 7 unknown #
coedge $-1 $224 $233 $228 $258 reversed $163 $-1 #
straight-curve $-1 0 -56.513361751655175 15.620024530519562 1 0 0 I I #
point $-1 -78.19940794091616 -56.513361751655175 15.620024530519562 #
edge $-1 $229 -2.4401789473945303 $235 2.4401789473945303 $228 $269 forward 7 unknown #
point $-1 78.19940794091616 -56.513361751655175 15.620024530519562 #
straight-curve $-1 0 -56.513361751655175 10.739666635730501 -1 0 0 I I #
point $-1 78.19940794091616 -56.513361751655175 10.739666635730501 #
point $-1 -78.19940794091616 -56.513361751655175 10.739666635730501 #
straight-curve $-1 -1.3357838424275599 43.854863744690554 79.526914185979479 0 0 -1 I I #
point $-1 -1.3357838424275599 43.854863744690554 15.620024530519563 #
straight-curve $-1 -8.0588540606412593 43.854863744690562 4.8955696831395912 -1 0 0 I I #
point $-1 -1.3357838424275599 43.854863744690554 4.8955696831395841 #
point $-1 -16.117708121282519 34.243240649200516 6.4959331370697102 #
straight-curve $-1 -78.19940794091616 -56.513361751655175 13.179845583125031 0 0 -1 I I #
straight-curve $-1 78.19940794091616 -56.513361751655175 13.179845583125031 0 0 -1 I I #
End-of-ACIS-data 