500 0 6 0           
7 Unknown 11 ACIS 5.0 NT 24 Fri Mar 26 18:28:57 1999 
-1 9.9999999999999995e-007 1e-010 
body $-1 $6 $-1 $7 #
body $-1 $8 $-1 $9 #
body $-1 $10 $-1 $11 #
body $-1 $12 $-1 $13 #
body $-1 $14 $-1 $15 #
body $-1 $16 $-1 $17 #
lump $-1 $-1 $18 $0 #
transform $-1 1 0 0 0 1 0 0 0 1 41.250038148136845 28.754928628213374 6.0724350605379831 1 rotate no_reflect no_shear #
lump $-1 $-1 $19 $1 #
transform $-1 1 0 0 0 1 0 0 0 1 41.250038148136845 28.754928628213374 6.0724350605379831 1 rotate no_reflect no_shear #
lump $-1 $-1 $20 $2 #
transform $-1 1 0 0 0 1 0 0 0 1 41.250038148136845 28.754928628213374 6.0724350605379831 1 rotate no_reflect no_shear #
lump $-1 $-1 $21 $3 #
transform $-1 1 0 0 0 1 0 0 0 1 41.250038148136845 28.754928628213374 6.0724350605379831 1 rotate no_reflect no_shear #
lump $-1 $-1 $22 $4 #
transform $-1 1 0 0 0 1 0 0 0 1 41.250038148136845 28.754928628213374 6.0724350605379831 1 rotate no_reflect no_shear #
lump $-1 $-1 $23 $5 #
transform $-1 1 0 0 0 1 0 0 0 1 41.250038148136845 28.754928628213374 6.0724350605379831 1 rotate no_reflect no_shear #
shell $-1 $-1 $-1 $24 $-1 $6 #
shell $-1 $-1 $-1 $25 $-1 $8 #
shell $-1 $-1 $-1 $26 $-1 $10 #
shell $-1 $-1 $-1 $27 $-1 $12 #
shell $-1 $-1 $-1 $28 $-1 $14 #
shell $-1 $-1 $-1 $29 $-1 $16 #
face $-1 $30 $31 $18 $-1 $32 forward single #
face $-1 $33 $34 $19 $-1 $35 forward single #
face $-1 $36 $37 $20 $-1 $38 reversed single #
face $-1 $39 $40 $21 $-1 $41 forward single #
face $-1 $42 $43 $22 $-1 $44 reversed single #
face $-1 $45 $46 $23 $-1 $47 forward single #
face $-1 $48 $49 $18 $-1 $50 reversed single #
loop $-1 $-1 $51 $24 #
plane-surface $-1 0 0 6.0724350605379831 0 0 1 1 0 0 forward_v I I I I #
face $-1 $52 $53 $19 $-1 $54 reversed single #
loop $-1 $-1 $55 $25 #
plane-surface $-1 -39.072023018854949 0 4.9599886886246694 0 0 1 1 0 0 forward_v I I I I #
face $-1 $56 $57 $20 $-1 $58 reversed single #
loop $-1 $-1 $59 $26 #
plane-surface $-1 30.912949993882457 -81.784956121444679 63.721095614369347 1 0 0 0 0.64278761758704617 -0.76604443648966558 forward_v I I I I #
face $-1 $60 $61 $21 $-1 $62 forward single #
loop $-1 $63 $64 $27 #
cone-surface $-1 36.081494071009651 -23.989668353216235 1.5597000261120102 0 0.64278761758704617 -0.76604443648966558 2 0 0 1 I I 0 1 2 forward I I I I #
face $-1 $65 $66 $22 $-1 $67 reversed single #
loop $-1 $-1 $68 $28 #
plane-surface $-1 30.912949993882457 37.729849926844139 100.687719747999 1 0 0 0 -0.64278761758704617 -0.76604443648966558 forward_v I I I I #
face $-1 $69 $70 $23 $-1 $71 forward single #
loop $-1 $72 $73 $29 #
cone-surface $-1 36.081494071009651 23.989668353216238 1.5597000261120155 0 -0.64278761758704617 -0.76604443648966558 2 0 0 1 I I 0 1 2 forward I I I I #
face $-1 $74 $75 $18 $-1 $76 reversed single #
loop $-1 $-1 $77 $30 #
plane-surface $-1 0 0 -6.0724350605379831 0 0 1 1 0 0 forward_v I I I I #
coedge $-1 $78 $79 $80 $81 forward $31 $-1 #
face $-1 $82 $83 $19 $-1 $84 reversed single #
loop $-1 $-1 $85 $33 #
plane-surface $-1 -39.072023018854949 0 1.4386175664802416 0 0 1 1 0 0 forward_v I I I I #
coedge $-1 $86 $87 $88 $89 forward $34 $-1 #
face $-1 $90 $91 $20 $-1 $92 forward single #
loop $-1 $-1 $93 $36 #
plane-surface $-1 36.081494071009651 -28.754928628213378 0.52237115763595199 0 -0.64278761758704617 0.76604443648966558 1 0 0 forward_v I I I I #
coedge $-1 $94 $95 $96 $97 reversed $37 $-1 #
face $-1 $-1 $98 $21 $-1 $99 forward single #
loop $-1 $100 $101 $39 #
cone-surface $-1 36.081494071009651 -21.888774689069308 -0.94404749335261062 0 0.64278761758704617 -0.76604443648966558 1 0 0 1 I I -0.70710678118654746 0.70710678118654746 1 forward I I I I #
loop $-1 $-1 $102 $27 #
coedge $-1 $64 $64 $103 $104 reversed $40 $-1 #
face $-1 $105 $106 $22 $-1 $107 reversed single #
loop $-1 $-1 $108 $42 #
plane-surface $-1 36.081494071009651 -15.300177566387163 37.488995291265603 0 0.64278761758704617 0.76604443648966558 1 0 0 forward_v I I I I #
coedge $-1 $109 $110 $111 $112 reversed $43 $-1 #
face $-1 $-1 $113 $23 $-1 $114 forward single #
loop $-1 $115 $116 $45 #
cone-surface $-1 36.081494071009651 21.888774689069312 -0.94404749335260529 0 -0.64278761758704617 -0.76604443648966558 1 0 0 1 I I -0.70710678118654746 0.70710678118654746 1 forward I I I I #
loop $-1 $-1 $117 $29 #
coedge $-1 $73 $73 $118 $119 reversed $46 $-1 #
face $-1 $120 $121 $18 $-1 $122 reversed single #
loop $-1 $-1 $123 $48 #
plane-surface $-1 0 -28.754928628213374 0 0 1 0 0 0 1 forward_v I I I I #
coedge $-1 $124 $125 $126 $127 forward $49 $-1 #
coedge $-1 $128 $51 $129 $130 forward $31 $-1 #
coedge $-1 $51 $128 $131 $132 forward $31 $-1 #
coedge $-1 $133 $134 $51 $81 reversed $135 $-1 #
edge $-1 $136 -28.754928628213374 $137 28.754928628213374 $80 $138 forward 7 unknown #
face $-1 $139 $140 $19 $-1 $141 reversed single #
loop $-1 $-1 $142 $52 #
plane-surface $-1 -36.894007889573054 0 3.1993031275524553 -1 0 0 0 0 1 forward_v I I I I #
coedge $-1 $143 $144 $145 $146 forward $53 $-1 #
coedge $-1 $147 $55 $148 $149 reversed $34 $-1 #
coedge $-1 $55 $147 $150 $151 reversed $34 $-1 #
coedge $-1 $142 $152 $55 $89 reversed $83 $-1 #
edge $-1 $153 -28.754928628213374 $154 28.754928628213374 $88 $155 forward 7 unknown #
face $-1 $156 $157 $20 $-1 $158 reversed single #
loop $-1 $-1 $159 $56 #
plane-surface $-1 0 0 6.0724350605379831 0 0 1 1 0 0 forward_v I I I I #
coedge $-1 $160 $161 $162 $163 reversed $57 $-1 #
coedge $-1 $95 $59 $164 $165 reversed $37 $-1 #
coedge $-1 $59 $94 $160 $166 reversed $37 $-1 #
coedge $-1 $162 $167 $59 $97 forward $157 $-1 #
edge $-1 $168 25.788112746646689 $169 31.338176649548718 $96 $170 forward 7 unknown #
loop $-1 $-1 $103 $60 #
plane-surface $-1 36.081494071009651 -28.754928628213378 0.52237115763595199 0 -0.64278761758704617 0.76604443648966558 1 0 0 forward_v I I I I #
loop $-1 $-1 $171 $39 #
coedge $-1 $101 $101 $102 $172 reversed $61 $-1 #
coedge $-1 $102 $102 $101 $172 forward $63 $-1 #
coedge $-1 $103 $103 $64 $104 forward $98 $-1 #
edge $-1 $173 1.2942613221076786e-015 $173 6.2831853071796013 $103 $174 forward 7 unknown #
face $-1 $175 $176 $22 $-1 $177 forward single #
loop $-1 $-1 $178 $65 #
plane-surface $-1 41.250038148136845 0 0 -1 0 0 0 0 1 forward_v I I I I #
coedge $-1 $179 $180 $181 $182 reversed $66 $-1 #
coedge $-1 $110 $68 $183 $184 reversed $43 $-1 #
coedge $-1 $68 $109 $179 $185 reversed $43 $-1 #
coedge $-1 $181 $186 $68 $112 forward $176 $-1 #
edge $-1 $187 -9.8900036647913048 $188 -3.2756952079167903 $111 $189 forward 7 unknown #
loop $-1 $-1 $118 $69 #
plane-surface $-1 36.081494071009651 -15.300177566387163 37.488995291265603 0 0.64278761758704617 0.76604443648966558 1 0 0 forward_v I I I I #
loop $-1 $-1 $190 $45 #
coedge $-1 $116 $116 $117 $191 reversed $70 $-1 #
coedge $-1 $117 $117 $116 $191 forward $72 $-1 #
coedge $-1 $118 $118 $73 $119 forward $113 $-1 #
edge $-1 $192 -6.3741704232652076e-016 $192 6.2831853071795996 $118 $193 forward 7 unknown #
face $-1 $194 $195 $18 $-1 $196 reversed single #
loop $-1 $-1 $197 $74 #
plane-surface $-1 -41.250038148136845 0 0 1 0 0 0 0 -1 forward_v I I I I #
coedge $-1 $198 $131 $199 $200 forward $75 $-1 #
coedge $-1 $201 $77 $198 $202 forward $49 $-1 #
coedge $-1 $77 $201 $203 $204 forward $49 $-1 #
coedge $-1 $134 $133 $77 $127 reversed $135 $-1 #
edge $-1 $205 -28.754928628213374 $206 28.754928628213374 $126 $207 forward 7 unknown #
coedge $-1 $79 $78 $208 $209 forward $31 $-1 #
coedge $-1 $210 $211 $78 $130 reversed $195 $-1 #
edge $-1 $137 -41.250038148136845 $212 41.250038148136845 $129 $213 forward 7 unknown #
coedge $-1 $123 $214 $79 $132 reversed $75 $-1 #
edge $-1 $215 -41.250038148136845 $136 41.250038148136845 $131 $216 forward 7 unknown #
coedge $-1 $126 $80 $214 $217 forward $135 $-1 #
coedge $-1 $80 $126 $210 $218 reversed $135 $-1 #
loop $-1 $-1 $133 $194 #
vertex $-1 $81 $219 #
vertex $-1 $81 $220 #
straight-curve $-1 41.250038148136845 0 6.0724350605379831 0 1 0 I I #
face $-1 $221 $222 $19 $-1 $223 reversed single #
loop $-1 $-1 $224 $82 #
plane-surface $-1 0 -28.754928628213374 0 0 1 0 0 0 1 forward_v I I I I #
coedge $-1 $145 $88 $225 $226 reversed $83 $-1 #
coedge $-1 $227 $85 $224 $228 reversed $53 $-1 #
coedge $-1 $85 $227 $229 $230 reversed $53 $-1 #
coedge $-1 $152 $142 $85 $146 reversed $83 $-1 #
edge $-1 $231 -28.754928628213374 $232 28.754928628213374 $145 $233 forward 7 unknown #
coedge $-1 $87 $86 $234 $235 reversed $34 $-1 #
coedge $-1 $236 $237 $86 $149 forward $238 $-1 #
edge $-1 $239 -21.71402663870937 $154 -17.357996380145579 $148 $240 forward 7 unknown #
coedge $-1 $241 $225 $87 $151 forward $140 $-1 #
edge $-1 $153 17.357996380145579 $242 21.71402663870937 $150 $243 forward 7 unknown #
coedge $-1 $88 $145 $236 $244 reversed $83 $-1 #
vertex $-1 $151 $245 #
vertex $-1 $149 $246 #
straight-curve $-1 -36.894007889573054 0 4.9599886886246694 0 1 0 I I #
face $-1 $-1 $247 $20 $-1 $248 reversed single #
loop $-1 $-1 $96 $90 #
plane-surface $-1 0 -28.754928628213374 0 0 1 0 0 0 1 forward_v I I I I #
coedge $-1 $164 $249 $250 $251 forward $91 $-1 #
coedge $-1 $250 $93 $95 $166 forward $57 $-1 #
coedge $-1 $93 $250 $252 $253 reversed $57 $-1 #
coedge $-1 $254 $96 $93 $163 forward $157 $-1 #
edge $-1 $169 12.872202958377631 $255 23.20929111263202 $162 $256 forward 7 unknown #
coedge $-1 $257 $159 $94 $165 forward $91 $-1 #
edge $-1 $258 -18.751857889383476 $168 -12.137549432508965 $164 $259 forward 7 unknown #
edge $-1 $169 4.6483581031563966e-015 $258 8.6343665482175265 $95 $260 forward 7 unknown #
coedge $-1 $96 $254 $257 $261 reversed $157 $-1 #
vertex $-1 $261 $262 #
vertex $-1 $97 $263 #
straight-curve $-1 30.912949993882457 -28.754928628213374 31.860547807184673 0 0 -1 I I #
coedge $-1 $171 $171 $-1 $264 reversed $100 $-1 #
edge $-1 $265 0 $265 6.2831853071796004 $101 $266 forward 7 unknown #
vertex $-1 $104 $267 #
ellipse-curve $-1 36.081494071009651 -25.447774399776119 3.2974031090869698 0 -0.64278761758704617 0.76604443648966558 2 0 0 1 I I #
face $-1 $-1 $268 $22 $-1 $269 reversed single #
loop $-1 $-1 $181 $105 #
plane-surface $-1 0 0 6.0724350605379831 0 0 1 1 0 0 forward_v I I I I #
coedge $-1 $270 $271 $180 $272 forward $106 $-1 #
coedge $-1 $273 $108 $110 $185 forward $66 $-1 #
coedge $-1 $108 $273 $178 $272 reversed $66 $-1 #
coedge $-1 $274 $111 $108 $182 forward $176 $-1 #
edge $-1 $188 12.872202958377631 $275 23.20929111263202 $181 $276 forward 7 unknown #
coedge $-1 $277 $278 $109 $184 forward $268 $-1 #
edge $-1 $279 -49.821488716363547 $187 -44.271424813461515 $183 $280 forward 7 unknown #
edge $-1 $188 48.875490708209227 $279 57.509857256426756 $110 $281 forward 7 unknown #
coedge $-1 $111 $274 $277 $282 forward $176 $-1 #
vertex $-1 $184 $283 #
vertex $-1 $112 $284 #
straight-curve $-1 30.912949993882457 18.864924963422069 6.072435060537984 0 -1 0 I I #
coedge $-1 $190 $190 $-1 $285 reversed $115 $-1 #
edge $-1 $286 0 $286 6.2831853071796004 $116 $287 forward 7 unknown #
vertex $-1 $119 $288 #
ellipse-curve $-1 36.081494071009651 25.447774399776112 3.2974031090869644 0 0.64278761758704617 0.76604443648966558 2 0 0 1 I I #
face $-1 $-1 $135 $18 $-1 $289 reversed single #
loop $-1 $-1 $210 $120 #
plane-surface $-1 0 28.754928628213374 0 0 -1 0 0 0 -1 forward_v I I I I #
coedge $-1 $290 $208 $211 $291 forward $121 $-1 #
coedge $-1 $214 $123 $124 $202 reversed $75 $-1 #
coedge $-1 $208 $290 $123 $200 reversed $121 $-1 #
edge $-1 $215 -6.0724350605379831 $292 6.0724350605379831 $199 $293 forward 7 unknown #
coedge $-1 $125 $124 $290 $294 forward $49 $-1 #
edge $-1 $206 -41.250038148136845 $292 41.250038148136845 $198 $295 forward 7 unknown #
coedge $-1 $211 $210 $125 $204 reversed $195 $-1 #
edge $-1 $296 -41.250038148136845 $205 41.250038148136845 $203 $297 forward 7 unknown #
vertex $-1 $127 $298 #
vertex $-1 $217 $299 #
straight-curve $-1 41.250038148136845 0 -6.0724350605379831 0 -1 0 I I #
coedge $-1 $197 $199 $128 $209 reversed $121 $-1 #
edge $-1 $212 -28.754928628213374 $215 28.754928628213374 $208 $300 forward 7 unknown #
coedge $-1 $203 $129 $134 $218 forward $195 $-1 #
coedge $-1 $129 $203 $197 $291 reversed $195 $-1 #
vertex $-1 $130 $301 #
straight-curve $-1 0 28.754928628213374 6.0724350605379831 -1 0 0 I I #
coedge $-1 $131 $198 $133 $217 reversed $75 $-1 #
vertex $-1 $209 $302 #
straight-curve $-1 0 -28.754928628213374 6.0724350605379831 1 0 0 I I #
edge $-1 $136 -6.0724350605379831 $206 6.0724350605379831 $133 $303 forward 7 unknown #
edge $-1 $137 -6.0724350605379831 $205 6.0724350605379831 $134 $304 forward 7 unknown #
point $-1 41.250038148136845 -28.754928628213374 6.0724350605379831 #
point $-1 41.250038148136845 28.754928628213374 6.0724350605379831 #
face $-1 $-1 $238 $19 $-1 $305 reversed single #
loop $-1 $-1 $306 $139 #
plane-surface $-1 -41.250038148136845 0 0 1 0 0 0 0 -1 forward_v I I I I #
coedge $-1 $225 $241 $143 $228 forward $140 $-1 #
coedge $-1 $150 $224 $142 $226 forward $140 $-1 #
edge $-1 $232 -0.161033997295986 $153 3.3603371248484417 $225 $307 forward 7 unknown #
coedge $-1 $144 $143 $306 $308 reversed $53 $-1 #
edge $-1 $309 -21.71402663870937 $232 -17.357996380145579 $224 $310 forward 7 unknown #
coedge $-1 $237 $236 $144 $230 forward $238 $-1 #
edge $-1 $231 17.357996380145579 $311 21.71402663870937 $229 $312 forward 7 unknown #
vertex $-1 $230 $313 #
vertex $-1 $228 $314 #
straight-curve $-1 -36.894007889573054 0 1.4386175664802416 0 -1 0 I I #
coedge $-1 $315 $316 $147 $235 forward $222 $-1 #
edge $-1 $242 -28.754928628213374 $239 28.754928628213374 $234 $317 forward 7 unknown #
coedge $-1 $229 $148 $152 $244 forward $238 $-1 #
coedge $-1 $148 $229 $315 $318 reversed $238 $-1 #
loop $-1 $-1 $229 $221 #
vertex $-1 $318 $319 #
straight-curve $-1 -19.536011509427475 28.754928628213374 4.9599886886246694 1 0 0 I I #
coedge $-1 $224 $150 $316 $320 forward $140 $-1 #
vertex $-1 $320 $321 #
straight-curve $-1 -19.536011509427475 -28.754928628213374 4.9599886886246694 -1 0 0 I I #
edge $-1 $154 -3.3603371248484417 $231 0.161033997295986 $236 $322 forward 7 unknown #
point $-1 -36.894007889573054 -28.754928628213374 4.9599886886246694 #
point $-1 -36.894007889573054 28.754928628213374 4.9599886886246694 #
loop $-1 $-1 $252 $156 #
plane-surface $-1 41.250038148136845 0 0 -1 0 0 0 0 1 forward_v I I I I #
coedge $-1 $159 $257 $323 $324 forward $91 $-1 #
coedge $-1 $161 $160 $159 $251 reversed $57 $-1 #
edge $-1 $325 -23.20929111263202 $258 -12.872202958377631 $159 $326 forward 7 unknown #
coedge $-1 $323 $327 $161 $253 forward $247 $-1 #
edge $-1 $255 -10.845889692693628 $325 -2.2115231444761068 $252 $328 forward 7 unknown #
coedge $-1 $167 $162 $327 $329 reversed $157 $-1 #
vertex $-1 $163 $330 #
straight-curve $-1 18.040747035504825 -28.754928628213374 0.52237115763595687 1 0 0 I I #
coedge $-1 $249 $164 $167 $261 forward $91 $-1 #
vertex $-1 $165 $331 #
straight-curve $-1 30.912949993882457 -40.89247806072234 6.072435060537984 0 -1 0 I I #
straight-curve $-1 30.912949993882457 -28.754928628213378 0.52237115763595199 0 0.76604443648966558 0.64278761758704617 I I #
edge $-1 $168 30.912949993882457 $332 41.250038148136845 $167 $333 forward 7 unknown #
point $-1 30.912949993882457 -28.754928628213374 6.0724350605379831 #
point $-1 30.912949993882457 -28.754928628213374 0.52237115763595499 #
edge $-1 $334 1 $334 0 $171 $-1 forward 7 unknown #
vertex $-1 $172 $335 #
ellipse-curve $-1 36.081494071009651 -22.531562306656355 -0.17800305686294504 0 -0.64278761758704617 0.76604443648966558 2 0 0 1 I I #
point $-1 38.081494071009651 -25.447774399776112 3.2974031090869653 #
loop $-1 $-1 $183 $175 #
plane-surface $-1 0 28.754928628213374 0 0 -1 0 0 0 -1 forward_v I I I I #
coedge $-1 $271 $178 $336 $337 reversed $106 $-1 #
coedge $-1 $178 $270 $274 $338 reversed $106 $-1 #
edge $-1 $275 30.966451772689481 $339 39.60081832090701 $178 $340 forward 7 unknown #
coedge $-1 $180 $179 $278 $341 reversed $66 $-1 #
coedge $-1 $186 $181 $271 $338 forward $176 $-1 #
vertex $-1 $338 $342 #
straight-curve $-1 18.040747035504825 22.140620171338856 6.0724350605379875 1 0 0 I I #
coedge $-1 $336 $183 $186 $282 reversed $268 $-1 #
coedge $-1 $183 $336 $273 $341 forward $268 $-1 #
vertex $-1 $184 $343 #
straight-curve $-1 30.912949993882457 28.754928628213374 50.343859873999499 0 0 1 I I #
straight-curve $-1 30.912949993882457 -15.300177566387163 37.488995291265603 0 0.76604443648966558 -0.64278761758704617 I I #
edge $-1 $344 -41.250038148136845 $187 -30.912949993882457 $277 $345 forward 7 unknown #
point $-1 30.912949993882457 28.754928628213374 6.0724350605379831 #
point $-1 30.912949993882457 22.14062017133886 6.0724350605379804 #
edge $-1 $346 1 $346 0 $190 $-1 forward 7 unknown #
vertex $-1 $191 $347 #
ellipse-curve $-1 36.081494071009651 22.531562306656358 -0.17800305686293971 0 0.64278761758704617 0.76604443648966558 2 0 0 1 I I #
point $-1 38.081494071009651 25.447774399776115 3.2974031090869707 #
plane-surface $-1 41.250038148136845 0 0 -1 0 0 0 0 1 forward_v I I I I #
coedge $-1 $199 $197 $201 $294 reversed $121 $-1 #
edge $-1 $212 -6.0724350605379831 $296 6.0724350605379831 $211 $348 forward 7 unknown #
vertex $-1 $294 $349 #
straight-curve $-1 -41.250038148136845 -28.754928628213374 0 0 0 -1 I I #
edge $-1 $292 -28.754928628213374 $296 28.754928628213374 $290 $350 forward 7 unknown #
straight-curve $-1 0 -28.754928628213374 -6.0724350605379831 -1 0 0 I I #
vertex $-1 $204 $351 #
straight-curve $-1 0 28.754928628213374 -6.0724350605379831 1 0 0 I I #
point $-1 41.250038148136845 28.754928628213374 -6.0724350605379831 #
point $-1 41.250038148136845 -28.754928628213374 -6.0724350605379831 #
straight-curve $-1 -41.250038148136845 0 6.0724350605379831 0 -1 0 I I #
point $-1 -41.250038148136845 28.754928628213374 6.0724350605379831 #
point $-1 -41.250038148136845 -28.754928628213374 6.0724350605379831 #
straight-curve $-1 41.250038148136845 -28.754928628213374 0 0 0 -1 I I #
straight-curve $-1 41.250038148136845 28.754928628213374 0 0 0 -1 I I #
plane-surface $-1 0 28.754928628213374 0 0 -1 0 0 0 -1 forward_v I I I I #
coedge $-1 $316 $315 $227 $308 forward $222 $-1 #
straight-curve $-1 -36.894007889573054 -28.754928628213374 1.5996515637762276 0 0 1 I I #
edge $-1 $311 -28.754928628213374 $309 28.754928628213374 $306 $352 forward 7 unknown #
vertex $-1 $228 $353 #
straight-curve $-1 -19.536011509427475 -28.754928628213374 1.4386175664802416 1 0 0 I I #
vertex $-1 $230 $354 #
straight-curve $-1 -19.536011509427475 28.754928628213374 1.4386175664802416 -1 0 0 I I #
point $-1 -36.894007889573054 28.754928628213374 1.4386175664802416 #
point $-1 -36.894007889573054 -28.754928628213374 1.4386175664802416 #
coedge $-1 $306 $234 $237 $318 forward $222 $-1 #
coedge $-1 $234 $306 $241 $320 reversed $222 $-1 #
straight-curve $-1 -41.250038148136845 0 4.9599886886246694 0 1 0 I I #
edge $-1 $239 -4.9599886886246694 $311 -1.4386175664802416 $237 $355 forward 7 unknown #
point $-1 -41.250038148136845 28.754928628213374 4.9599886886246694 #
edge $-1 $242 -4.9599886886246694 $309 -1.4386175664802416 $316 $356 forward 7 unknown #
point $-1 -41.250038148136845 -28.754928628213374 4.9599886886246694 #
straight-curve $-1 -36.894007889573054 28.754928628213374 1.5996515637762276 0 0 -1 I I #
coedge $-1 $327 $252 $249 $324 reversed $247 $-1 #
edge $-1 $332 -28.754928628213374 $325 -22.140620171338863 $323 $357 forward 7 unknown #
vertex $-1 $253 $358 #
straight-curve $-1 18.040747035504825 -22.14062017133886 6.072435060537984 -1 0 0 I I #
coedge $-1 $252 $323 $254 $329 forward $247 $-1 #
straight-curve $-1 41.250038148136845 -20.446495170344811 7.4939747538143928 0 0.76604443648966558 0.64278761758704617 I I #
edge $-1 $332 -6.0724350605379831 $255 -0.52237115763595499 $327 $359 forward 7 unknown #
point $-1 41.250038148136845 -28.754928628213374 0.52237115763595499 #
point $-1 30.912949993882457 -22.140620171338863 6.0724350605379831 #
vertex $-1 $324 $360 #
straight-curve $-1 0 -28.754928628213374 6.0724350605379831 1 0 0 I I #
vertex $-1 $264 $361 #
point $-1 38.081494071009651 -22.531562306656355 -0.17800305686294504 #
coedge $-1 $278 $277 $270 $337 forward $268 $-1 #
edge $-1 $344 -6.0724350605379831 $339 -0.52237115763595199 $270 $362 forward 7 unknown #
edge $-1 $275 22.14062017133886 $344 28.754928628213374 $271 $363 forward 7 unknown #
vertex $-1 $272 $364 #
straight-curve $-1 41.250038148136845 -1.5810579269554603 25.977286820629217 0 0.76604443648966558 -0.64278761758704617 I I #
edge $-1 $339 -23.20929111263202 $279 -12.872202958377631 $278 $365 forward 7 unknown #
point $-1 41.250038148136845 22.14062017133886 6.0724350605379804 #
point $-1 30.912949993882457 28.754928628213378 0.52237115763595199 #
vertex $-1 $338 $366 #
straight-curve $-1 0 28.754928628213374 6.0724350605379831 -1 0 0 I I #
vertex $-1 $285 $367 #
point $-1 38.081494071009651 22.531562306656358 -0.17800305686293971 #
straight-curve $-1 -41.250038148136845 28.754928628213374 0 0 0 -1 I I #
point $-1 -41.250038148136845 -28.754928628213374 -6.0724350605379831 #
straight-curve $-1 -41.250038148136845 0 -6.0724350605379831 0 1 0 I I #
point $-1 -41.250038148136845 28.754928628213374 -6.0724350605379831 #
straight-curve $-1 -41.250038148136845 0 1.4386175664802416 0 -1 0 I I #
point $-1 -41.250038148136845 -28.754928628213374 1.4386175664802416 #
point $-1 -41.250038148136845 28.754928628213374 1.4386175664802416 #
straight-curve $-1 -41.250038148136845 28.754928628213374 0 0 0 -1 I I #
straight-curve $-1 -41.250038148136845 -28.754928628213374 0 0 0 -1 I I #
straight-curve $-1 41.250038148136845 0 6.0724350605379831 0 1 0 I I #
point $-1 41.250038148136845 -22.140620171338863 6.0724350605379831 #
straight-curve $-1 41.250038148136845 -28.754928628213374 0 0 0 -1 I I #
point $-1 41.250038148136845 -28.754928628213374 6.0724350605379831 #
point $-1 36.081494071009651 -21.245987071482261 -1.7100919298422763 #
straight-curve $-1 41.250038148136845 28.754928628213374 0 0 0 -1 I I #
straight-curve $-1 41.250038148136845 0 6.0724350605379831 0 1 0 I I #
point $-1 41.250038148136845 28.754928628213378 0.52237115763595199 #
straight-curve $-1 18.040747035504825 28.754928628213367 0.52237115763595554 -1 0 0 I I #
point $-1 41.250038148136845 28.754928628213374 6.0724350605379831 #
point $-1 36.081494071009651 21.245987071482265 -1.710091929842271 #
End-of-ACIS-data 