500 0 11 0           
7 Unknown 11 ACIS 5.0 NT 24 Fri Mar 26 18:40:31 1999 
-1 9.9999999999999995e-007 1e-010 
body $-1 $11 $-1 $12 #
body $-1 $13 $-1 $14 #
body $-1 $15 $-1 $16 #
body $-1 $17 $-1 $18 #
body $-1 $19 $-1 $20 #
body $-1 $21 $-1 $22 #
body $-1 $23 $-1 $24 #
body $-1 $25 $-1 $26 #
body $-1 $27 $-1 $28 #
body $-1 $29 $-1 $30 #
body $-1 $31 $-1 $32 #
lump $-1 $-1 $33 $0 #
transform $-1 1 0 0 0 1 0 0 0 1 50.249336222418897 34.009662288444183 15.006100510692718 1 rotate no_reflect no_shear #
lump $-1 $-1 $34 $1 #
transform $-1 1 0 0 0 1 0 0 0 1 50.249336222418897 34.009662288444183 15.006100510692718 1 rotate no_reflect no_shear #
lump $-1 $-1 $35 $2 #
transform $-1 1 0 0 0 1 0 0 0 1 50.249336222418897 34.009662288444183 15.006100510692718 1 rotate no_reflect no_shear #
lump $-1 $-1 $36 $3 #
transform $-1 1 0 0 0 1 0 0 0 1 50.249336222418897 34.009662288444183 15.006100510692718 1 rotate no_reflect no_shear #
lump $-1 $-1 $37 $4 #
transform $-1 1 0 0 0 1 0 0 0 1 50.249336222418897 34.009662288444183 15.006100510692718 1 rotate no_reflect no_shear #
lump $-1 $-1 $38 $5 #
transform $-1 1 0 0 0 1 0 0 0 1 50.249336222418897 34.009662288444183 15.006100510692718 1 rotate no_reflect no_shear #
lump $-1 $-1 $39 $6 #
transform $-1 1 0 0 0 1 0 0 0 1 50.249336222418897 34.009662288444183 15.006100510692718 1 rotate no_reflect no_shear #
lump $-1 $-1 $40 $7 #
transform $-1 1 0 0 0 1 0 0 0 1 50.249336222418897 34.009662288444183 15.006100510692718 1 rotate no_reflect no_shear #
lump $-1 $-1 $41 $8 #
transform $-1 1 0 0 0 1 0 0 0 1 50.249336222418897 34.009662288444183 15.006100510692718 1 rotate no_reflect no_shear #
lump $-1 $-1 $42 $9 #
transform $-1 1 0 0 0 1 0 0 0 1 50.249336222418897 34.009662288444183 15.006100510692718 1 rotate no_reflect no_shear #
lump $-1 $-1 $43 $10 #
transform $-1 1 0 0 0 1 0 0 0 1 50.249336222418897 34.009662288444183 15.006100510692718 1 rotate no_reflect no_shear #
shell $-1 $-1 $-1 $44 $-1 $11 #
shell $-1 $-1 $-1 $45 $-1 $13 #
shell $-1 $-1 $-1 $46 $-1 $15 #
shell $-1 $-1 $-1 $47 $-1 $17 #
shell $-1 $-1 $-1 $48 $-1 $19 #
shell $-1 $-1 $-1 $49 $-1 $21 #
shell $-1 $-1 $-1 $50 $-1 $23 #
shell $-1 $-1 $-1 $51 $-1 $25 #
shell $-1 $-1 $-1 $52 $-1 $27 #
shell $-1 $-1 $-1 $53 $-1 $29 #
shell $-1 $-1 $-1 $54 $-1 $31 #
face $-1 $55 $56 $33 $-1 $57 forward single #
face $-1 $58 $59 $34 $-1 $60 forward single #
face $-1 $61 $62 $35 $-1 $63 forward single #
face $-1 $64 $65 $36 $-1 $66 reversed single #
face $-1 $67 $68 $37 $-1 $69 forward single #
face $-1 $70 $71 $38 $-1 $72 forward single #
face $-1 $73 $74 $39 $-1 $75 forward single #
face $-1 $76 $77 $40 $-1 $78 reversed single #
face $-1 $79 $80 $41 $-1 $81 forward single #
face $-1 $82 $83 $42 $-1 $84 reversed single #
face $-1 $85 $86 $43 $-1 $87 forward single #
face $-1 $88 $89 $33 $-1 $90 reversed single #
loop $-1 $-1 $91 $44 #
plane-surface $-1 0 0 15.006100510692718 0 0 1 1 0 0 forward_v I I I I #
face $-1 $92 $93 $34 $-1 $94 reversed single #
loop $-1 $-1 $95 $45 #
plane-surface $-1 0 -24.349103257350293 -8.8835821926455694 0 0 1 1 0 0 forward_v I I I I #
face $-1 $96 $97 $35 $-1 $98 reversed single #
loop $-1 $-1 $99 $46 #
plane-surface $-1 0 24.349103257350293 -8.8835821926455694 0 0 1 1 0 0 forward_v I I I I #
face $-1 $100 $101 $36 $-1 $102 reversed single #
loop $-1 $-1 $103 $47 #
plane-surface $-1 47.768886897613676 -7.6242316659444906 150.59095508020863 0 -1 0 -0.69465837861970381 0 -0.71933979245794832 forward_v I I I I #
face $-1 $104 $105 $37 $-1 $106 forward single #
loop $-1 $107 $108 $48 #
cone-surface $-1 46.230830013988495 -13.275681714194018 11.08059158610731 -0.69465837861970381 0 -0.71933979245794832 0.35966989622897416 0 -0.3473291893098519 1 I I 0 1 0.5 forward I I I I #
face $-1 $109 $110 $38 $-1 $111 forward single #
loop $-1 $112 $113 $49 #
cone-surface $-1 46.230830013988495 -11.156387946100445 11.08059158610731 -0.69465837861970381 0 -0.71933979245794832 0.35966989622897416 0 -0.3473291893098519 1 I I 0 1 0.5 forward I I I I #
face $-1 $114 $115 $39 $-1 $116 forward single #
loop $-1 $117 $118 $50 #
cone-surface $-1 46.230830013988495 -9.0370941780068712 11.08059158610731 -0.69465837861970381 0 -0.71933979245794832 0.35966989622897416 0 -0.3473291893098519 1 I I 0 1 0.5 forward I I I I #
face $-1 $119 $120 $40 $-1 $121 reversed single #
loop $-1 $-1 $122 $51 #
plane-surface $-1 -116.18239848321238 -10.591743847399272 81.390701249571649 0 1 0 -0.6560590369687036 0 0.75470957328743171 forward_v I I I I #
face $-1 $123 $124 $41 $-1 $125 forward single #
loop $-1 $126 $127 $52 #
cone-surface $-1 -43.791472832350792 -7.0005299607971878 9.1070499721771778 0.6560590369687036 0 -0.75470957328743171 0.75470957328743171 0 0.6560590369687036 1 I I 0 1 1 forward I I I I #
face $-1 $128 $129 $42 $-1 $130 reversed single #
loop $-1 $-1 $131 $53 #
plane-surface $-1 -116.18239848321238 3.4093160741951039 81.390701249571649 0 1 0 -0.6560590369687036 0 0.75470957328743171 forward_v I I I I #
face $-1 $132 $133 $43 $-1 $134 forward single #
loop $-1 $135 $136 $54 #
cone-surface $-1 -43.791472832350792 7.0005299607971878 9.1070499721771778 0.6560590369687036 0 -0.75470957328743171 0.75470957328743171 0 0.6560590369687036 1 I I 0 1 1 forward I I I I #
face $-1 $137 $138 $33 $-1 $139 reversed single #
loop $-1 $-1 $140 $55 #
plane-surface $-1 0 0 -15.006100510692718 0 0 1 1 0 0 forward_v I I I I #
coedge $-1 $141 $142 $143 $144 forward $56 $-1 #
face $-1 $145 $146 $34 $-1 $147 reversed single #
loop $-1 $-1 $148 $58 #
plane-surface $-1 0 -14.688544226256402 -11.944841351669144 0 -1 0 0 0 -1 forward_v I I I I #
coedge $-1 $149 $150 $151 $152 reversed $59 $-1 #
face $-1 $153 $154 $35 $-1 $155 reversed single #
loop $-1 $-1 $156 $61 #
plane-surface $-1 0 14.688544226256404 -11.944841351669144 0 1 0 0 0 1 forward_v I I I I #
coedge $-1 $157 $158 $159 $160 reversed $62 $-1 #
face $-1 $161 $162 $36 $-1 $163 reversed single #
loop $-1 $-1 $164 $64 #
plane-surface $-1 -22.043357956350057 -11.156387946100445 78.298260901439676 0.69465837861970381 0 0.71933979245794832 0.71933979245794832 0 -0.69465837861970381 forward_v I I I I #
coedge $-1 $165 $166 $167 $168 reversed $65 $-1 #
face $-1 $-1 $169 $37 $-1 $170 forward single #
loop $-1 $171 $172 $67 #
cone-surface $-1 45.414531689327795 -13.275681714194018 10.235289945015808 -0.69465837861970381 0 -0.71933979245794832 0.17983494811448708 0 -0.17366459465492595 1 I I -0.70710678118654746 0.70710678118654746 0.25 forward I I I I #
loop $-1 $-1 $173 $48 #
coedge $-1 $108 $108 $174 $175 reversed $68 $-1 #
face $-1 $-1 $176 $38 $-1 $177 forward single #
loop $-1 $178 $179 $70 #
cone-surface $-1 45.414531689327795 -11.156387946100445 10.235289945015808 -0.69465837861970381 0 -0.71933979245794832 0.17983494811448708 0 -0.17366459465492595 1 I I -0.70710678118654746 0.70710678118654746 0.25 forward I I I I #
loop $-1 $-1 $180 $49 #
coedge $-1 $113 $113 $181 $182 reversed $71 $-1 #
face $-1 $-1 $183 $39 $-1 $184 forward single #
loop $-1 $185 $186 $73 #
cone-surface $-1 45.414531689327795 -9.0370941780068712 10.235289945015808 -0.69465837861970381 0 -0.71933979245794832 0.17983494811448708 0 -0.17366459465492595 1 I I -0.70710678118654746 0.70710678118654746 0.25 forward I I I I #
loop $-1 $-1 $187 $50 #
coedge $-1 $118 $118 $188 $189 reversed $74 $-1 #
face $-1 $190 $191 $40 $-1 $192 reversed single #
loop $-1 $-1 $193 $76 #
plane-surface $-1 -50.249336222418904 -7.0005299607971878 5.5433910527747514 -0.6560590369687036 0 0.75470957328743171 0.75470957328743171 0 0.6560590369687036 forward_v I I I I #
coedge $-1 $194 $195 $196 $197 reversed $77 $-1 #
face $-1 $-1 $198 $41 $-1 $199 forward single #
loop $-1 $200 $201 $79 #
cone-surface $-1 -42.448380811143551 -7.0005299607971878 7.5619993759769102 0.6560590369687036 0 -0.75470957328743171 0.37735478664371586 0 0.3280295184843518 1 I I -0.70710678118654746 0.70710678118654746 0.5 forward I I I I #
loop $-1 $-1 $202 $52 #
coedge $-1 $127 $127 $203 $204 reversed $80 $-1 #
face $-1 $205 $206 $42 $-1 $207 reversed single #
loop $-1 $-1 $208 $82 #
plane-surface $-1 -50.249336222418904 7.0005299607971878 5.5433910527747514 -0.6560590369687036 0 0.75470957328743171 0.75470957328743171 0 0.6560590369687036 forward_v I I I I #
coedge $-1 $209 $210 $211 $212 reversed $83 $-1 #
face $-1 $-1 $213 $43 $-1 $214 forward single #
loop $-1 $215 $216 $85 #
cone-surface $-1 -42.448380811143551 7.0005299607971878 7.5619993759769102 0.6560590369687036 0 -0.75470957328743171 0.37735478664371586 0 0.3280295184843518 1 I I -0.70710678118654746 0.70710678118654746 0.5 forward I I I I #
loop $-1 $-1 $217 $54 #
coedge $-1 $136 $136 $218 $219 reversed $86 $-1 #
face $-1 $220 $221 $33 $-1 $222 reversed single #
loop $-1 $-1 $223 $88 #
plane-surface $-1 0 -34.009662288444183 0 0 1 0 0 0 1 forward_v I I I I #
coedge $-1 $224 $225 $226 $227 forward $89 $-1 #
coedge $-1 $228 $91 $229 $230 forward $56 $-1 #
coedge $-1 $91 $228 $231 $232 forward $56 $-1 #
coedge $-1 $233 $234 $91 $144 reversed $235 $-1 #
edge $-1 $236 -34.009662288444183 $237 34.009662288444183 $143 $238 forward 7 unknown #
face $-1 $239 $240 $34 $-1 $241 reversed single #
loop $-1 $-1 $242 $92 #
plane-surface $-1 0 0 -15.006100510692718 0 0 1 1 0 0 forward_v I I I I #
coedge $-1 $243 $244 $245 $246 reversed $93 $-1 #
coedge $-1 $247 $95 $244 $248 forward $59 $-1 #
coedge $-1 $95 $247 $249 $250 reversed $59 $-1 #
coedge $-1 $251 $245 $95 $152 forward $240 $-1 #
edge $-1 $252 2.5139925975812556 $253 21.835110659769036 $151 $254 forward 7 unknown #
face $-1 $255 $256 $35 $-1 $257 reversed single #
loop $-1 $-1 $159 $96 #
plane-surface $-1 50.249336222418897 0 0 -1 0 0 0 0 1 forward_v I I I I #
coedge $-1 $258 $259 $260 $261 reversed $97 $-1 #
coedge $-1 $262 $99 $263 $264 reversed $62 $-1 #
coedge $-1 $99 $262 $259 $265 forward $62 $-1 #
coedge $-1 $266 $267 $99 $160 forward $154 $-1 #
edge $-1 $268 -21.835110659769036 $269 -2.5139925975812574 $159 $270 forward 7 unknown #
face $-1 $271 $272 $36 $-1 $273 forward single #
loop $-1 $-1 $274 $100 #
plane-surface $-1 47.768886897613676 -14.688544226256399 150.59095508020863 0 1 0 0.69465837861970381 0 0.71933979245794832 forward_v I I I I #
coedge $-1 $275 $276 $277 $278 reversed $101 $-1 #
coedge $-1 $166 $103 $279 $280 reversed $65 $-1 #
coedge $-1 $103 $165 $275 $281 reversed $65 $-1 #
coedge $-1 $277 $282 $103 $168 forward $272 $-1 #
edge $-1 $283 -26.364892773612059 $284 -19.613147816762837 $167 $285 forward 7 unknown #
loop $-1 $-1 $174 $104 #
plane-surface $-1 -22.043357956350057 -11.156387946100445 78.298260901439676 0.69465837861970381 0 0.71933979245794832 0.71933979245794832 0 -0.69465837861970381 forward_v I I I I #
loop $-1 $-1 $286 $67 #
coedge $-1 $172 $172 $173 $287 reversed $105 $-1 #
coedge $-1 $173 $173 $172 $287 forward $107 $-1 #
coedge $-1 $174 $174 $108 $175 forward $169 $-1 #
edge $-1 $288 0 $288 6.2831853071796004 $174 $289 forward 7 unknown #
loop $-1 $-1 $181 $109 #
plane-surface $-1 -22.043357956350057 -11.156387946100445 78.298260901439676 0.69465837861970381 0 0.71933979245794832 0.71933979245794832 0 -0.69465837861970381 forward_v I I I I #
loop $-1 $-1 $290 $70 #
coedge $-1 $179 $179 $180 $291 reversed $110 $-1 #
coedge $-1 $180 $180 $179 $291 forward $112 $-1 #
coedge $-1 $181 $181 $113 $182 forward $176 $-1 #
edge $-1 $292 0 $292 6.2831853071796004 $181 $293 forward 7 unknown #
loop $-1 $-1 $188 $114 #
plane-surface $-1 -22.043357956350057 -11.156387946100445 78.298260901439676 0.69465837861970381 0 0.71933979245794832 0.71933979245794832 0 -0.69465837861970381 forward_v I I I I #
loop $-1 $-1 $294 $73 #
coedge $-1 $186 $186 $187 $295 reversed $115 $-1 #
coedge $-1 $187 $187 $186 $295 forward $117 $-1 #
coedge $-1 $188 $188 $118 $189 forward $183 $-1 #
edge $-1 $296 0 $296 6.2831853071796004 $188 $297 forward 7 unknown #
face $-1 $298 $299 $40 $-1 $300 reversed single #
loop $-1 $-1 $301 $119 #
plane-surface $-1 -116.18239848321238 -3.4093160741951039 81.390701249571649 0 -1 0 0.6560590369687036 0 -0.75470957328743171 forward_v I I I I #
coedge $-1 $302 $303 $304 $305 reversed $120 $-1 #
coedge $-1 $195 $122 $306 $307 reversed $77 $-1 #
coedge $-1 $122 $194 $302 $308 reversed $77 $-1 #
coedge $-1 $304 $309 $122 $197 forward $310 $-1 #
edge $-1 $311 7.8418630191872936 $312 18.727464793877715 $196 $313 forward 7 unknown #
loop $-1 $-1 $203 $123 #
plane-surface $-1 -50.249336222418904 -7.0005299607971878 5.5433910527747514 -0.6560590369687036 0 0.75470957328743171 0.75470957328743171 0 0.6560590369687036 forward_v I I I I #
loop $-1 $-1 $314 $79 #
coedge $-1 $201 $201 $202 $315 reversed $124 $-1 #
coedge $-1 $202 $202 $201 $315 forward $126 $-1 #
coedge $-1 $203 $203 $127 $204 forward $198 $-1 #
edge $-1 $316 0 $316 6.2831853071796004 $203 $317 forward 7 unknown #
face $-1 $318 $319 $42 $-1 $320 forward single #
loop $-1 $-1 $321 $128 #
plane-surface $-1 -116.18239848321238 10.591743847399272 81.390701249571649 0 -1 0 0.6560590369687036 0 -0.75470957328743171 forward_v I I I I #
coedge $-1 $322 $323 $324 $325 reversed $129 $-1 #
coedge $-1 $210 $131 $326 $327 reversed $83 $-1 #
coedge $-1 $131 $209 $322 $328 reversed $83 $-1 #
coedge $-1 $324 $329 $131 $212 forward $319 $-1 #
edge $-1 $330 7.8418630191872936 $331 18.727464793877715 $211 $332 forward 7 unknown #
loop $-1 $-1 $218 $132 #
plane-surface $-1 -50.249336222418904 7.0005299607971878 5.5433910527747514 -0.6560590369687036 0 0.75470957328743171 0.75470957328743171 0 0.6560590369687036 forward_v I I I I #
loop $-1 $-1 $333 $85 #
coedge $-1 $216 $216 $217 $334 reversed $133 $-1 #
coedge $-1 $217 $217 $216 $334 forward $135 $-1 #
coedge $-1 $218 $218 $136 $219 forward $213 $-1 #
edge $-1 $335 0 $335 6.2831853071796004 $218 $336 forward 7 unknown #
face $-1 $337 $338 $33 $-1 $339 reversed single #
loop $-1 $-1 $340 $137 #
plane-surface $-1 -50.249336222418897 0 0 1 0 0 0 0 -1 forward_v I I I I #
coedge $-1 $341 $231 $342 $343 forward $138 $-1 #
coedge $-1 $344 $140 $341 $345 forward $89 $-1 #
coedge $-1 $140 $344 $346 $347 forward $89 $-1 #
coedge $-1 $234 $233 $140 $227 reversed $235 $-1 #
edge $-1 $348 -34.009662288444183 $349 34.009662288444183 $226 $350 forward 7 unknown #
coedge $-1 $142 $141 $351 $352 forward $56 $-1 #
coedge $-1 $353 $354 $141 $230 reversed $338 $-1 #
edge $-1 $237 -50.249336222418897 $355 50.249336222418897 $229 $356 forward 7 unknown #
coedge $-1 $223 $357 $142 $232 reversed $138 $-1 #
edge $-1 $358 -50.249336222418897 $236 50.249336222418897 $231 $359 forward 7 unknown #
coedge $-1 $226 $143 $357 $360 forward $235 $-1 #
coedge $-1 $143 $226 $353 $361 reversed $235 $-1 #
loop $-1 $-1 $233 $337 #
vertex $-1 $144 $362 #
vertex $-1 $144 $363 #
straight-curve $-1 50.249336222418897 0 15.006100510692718 0 1 0 I I #
face $-1 $364 $365 $34 $-1 $366 reversed single #
loop $-1 $-1 $245 $145 #
plane-surface $-1 50.249336222418897 0 0 -1 0 0 0 0 1 forward_v I I I I #
coedge $-1 $367 $368 $243 $369 forward $146 $-1 #
coedge $-1 $370 $148 $242 $369 reversed $93 $-1 #
coedge $-1 $148 $370 $149 $248 reversed $93 $-1 #
coedge $-1 $151 $371 $148 $246 forward $240 $-1 #
edge $-1 $372 -9.0336798348581464 $252 -2.9111615168109974 $245 $373 forward 7 unknown #
coedge $-1 $150 $149 $374 $375 reversed $59 $-1 #
edge $-1 $252 -50.249336222418897 $376 50.249336222418897 $244 $377 forward 7 unknown #
coedge $-1 $378 $379 $150 $250 forward $365 $-1 #
edge $-1 $253 -50.249336222418897 $380 50.249336222418897 $249 $381 forward 7 unknown #
coedge $-1 $371 $151 $379 $382 forward $240 $-1 #
vertex $-1 $152 $383 #
vertex $-1 $382 $384 #
straight-curve $-1 50.249336222418897 -12.174551628675147 -8.8835821926455694 0 -1 0 I I #
face $-1 $385 $386 $35 $-1 $387 reversed single #
loop $-1 $-1 $388 $153 #
plane-surface $-1 0 0 -15.006100510692718 0 0 1 1 0 0 forward_v I I I I #
coedge $-1 $389 $156 $388 $390 reversed $97 $-1 #
coedge $-1 $156 $389 $158 $265 reversed $97 $-1 #
coedge $-1 $391 $392 $156 $261 forward $386 $-1 #
edge $-1 $393 -9.0336798348581464 $394 -2.9111615168109974 $260 $395 forward 7 unknown #
coedge $-1 $158 $157 $391 $396 reversed $62 $-1 #
coedge $-1 $397 $398 $157 $264 forward $399 $-1 #
edge $-1 $400 -50.249336222418897 $268 50.249336222418897 $263 $401 forward 7 unknown #
edge $-1 $394 -50.249336222418897 $269 50.249336222418897 $259 $402 forward 7 unknown #
coedge $-1 $403 $159 $389 $404 forward $154 $-1 #
coedge $-1 $159 $403 $397 $405 reversed $154 $-1 #
vertex $-1 $405 $406 #
vertex $-1 $160 $407 #
straight-curve $-1 50.249336222418897 12.174551628675147 -8.8835821926455694 0 -1 0 I I #
face $-1 $-1 $408 $36 $-1 $409 reversed single #
loop $-1 $-1 $167 $161 #
plane-surface $-1 0 0 15.006100510692718 0 0 1 1 0 0 forward_v I I I I #
coedge $-1 $410 $411 $412 $413 reversed $162 $-1 #
coedge $-1 $414 $164 $166 $281 forward $101 $-1 #
coedge $-1 $164 $414 $410 $415 forward $101 $-1 #
coedge $-1 $412 $167 $164 $278 forward $272 $-1 #
edge $-1 $284 2.0460376928942683 $416 9.1103502532061764 $277 $417 forward 7 unknown #
coedge $-1 $418 $419 $165 $280 forward $408 $-1 #
edge $-1 $420 -66.809461492628373 $283 -60.289377029411597 $279 $421 forward 7 unknown #
edge $-1 $284 91.11264232716718 $420 100.49867244483779 $166 $422 forward 7 unknown #
coedge $-1 $167 $412 $418 $423 forward $272 $-1 #
vertex $-1 $280 $424 #
vertex $-1 $168 $425 #
straight-curve $-1 23.884443448806838 -7.6242316659444906 15.006100510692718 -1 0 0 I I #
coedge $-1 $286 $286 $-1 $426 reversed $171 $-1 #
edge $-1 $427 0 $427 6.2831853071796004 $172 $428 forward 7 unknown #
vertex $-1 $175 $429 #
ellipse-curve $-1 46.873463743994279 -13.275681714194018 11.746058279084336 0.69465837861970381 0 0.71933979245794832 0.35966989622897416 0 -0.3473291893098519 1 I I #
coedge $-1 $290 $290 $-1 $430 reversed $178 $-1 #
edge $-1 $431 0 $431 6.2831853071796004 $179 $432 forward 7 unknown #
vertex $-1 $182 $433 #
ellipse-curve $-1 46.873463743994279 -11.156387946100445 11.746058279084336 0.69465837861970381 0 0.71933979245794832 0.35966989622897416 0 -0.3473291893098519 1 I I #
coedge $-1 $294 $294 $-1 $434 reversed $185 $-1 #
edge $-1 $435 0 $435 6.2831853071796004 $186 $436 forward 7 unknown #
vertex $-1 $189 $437 #
ellipse-curve $-1 46.873463743994279 -9.0370941780068712 11.746058279084336 0.69465837861970381 0 0.71933979245794832 0.35966989622897416 0 -0.3473291893098519 1 I I #
face $-1 $-1 $310 $40 $-1 $438 forward single #
loop $-1 $-1 $439 $190 #
plane-surface $-1 -50.249336222418897 0 0 1 0 0 0 0 -1 forward_v I I I I #
coedge $-1 $440 $441 $442 $443 reversed $191 $-1 #
coedge $-1 $444 $193 $195 $308 forward $120 $-1 #
coedge $-1 $193 $444 $440 $445 forward $120 $-1 #
coedge $-1 $442 $196 $193 $305 forward $310 $-1 #
edge $-1 $312 -7.0914788670006779 $446 0.090948906203490054 $304 $447 forward 7 unknown #
coedge $-1 $448 $449 $194 $307 forward $299 $-1 #
edge $-1 $450 -35.151959572011066 $311 -25.689250114093106 $306 $451 forward 7 unknown #
edge $-1 $312 -14.423563924429828 $450 -9.44141639987384e-015 $195 $452 forward 7 unknown #
coedge $-1 $196 $442 $448 $453 forward $310 $-1 #
loop $-1 $-1 $442 $298 #
vertex $-1 $307 $454 #
vertex $-1 $197 $455 #
straight-curve $-1 -58.091199241606191 -10.591743847399272 15.006100510692718 1 0 0 I I #
coedge $-1 $314 $314 $-1 $456 reversed $200 $-1 #
edge $-1 $457 0 $457 6.2831853071796004 $201 $458 forward 7 unknown #
vertex $-1 $204 $459 #
ellipse-curve $-1 -44.806535335073683 -7.0005299607971878 10.274745781733738 -0.6560590369687036 0 0.75470957328743171 0.75470957328743171 0 0.6560590369687036 1 I I #
face $-1 $-1 $460 $42 $-1 $461 reversed single #
loop $-1 $-1 $211 $205 #
plane-surface $-1 0 0 15.006100510692718 0 0 1 1 0 0 forward_v I I I I #
coedge $-1 $462 $463 $464 $465 reversed $206 $-1 #
coedge $-1 $466 $208 $210 $328 forward $129 $-1 #
coedge $-1 $208 $466 $462 $467 forward $129 $-1 #
coedge $-1 $464 $211 $208 $325 forward $319 $-1 #
edge $-1 $331 -0.090948906203490054 $468 7.0914788670006779 $324 $469 forward 7 unknown #
coedge $-1 $470 $471 $209 $327 forward $460 $-1 #
edge $-1 $472 -35.151959572011066 $330 -25.689250114093106 $326 $473 forward 7 unknown #
edge $-1 $331 -14.423563924429828 $472 -9.44141639987384e-015 $210 $474 forward 7 unknown #
coedge $-1 $211 $464 $470 $475 forward $319 $-1 #
vertex $-1 $327 $476 #
vertex $-1 $212 $477 #
straight-curve $-1 -58.091199241606191 3.4093160741951039 15.006100510692718 1 0 0 I I #
coedge $-1 $333 $333 $-1 $478 reversed $215 $-1 #
edge $-1 $479 0 $479 6.2831853071796004 $216 $480 forward 7 unknown #
vertex $-1 $219 $481 #
ellipse-curve $-1 -44.806535335073683 7.0005299607971878 10.274745781733738 -0.6560590369687036 0 0.75470957328743171 0.75470957328743171 0 0.6560590369687036 1 I I #
face $-1 $-1 $235 $33 $-1 $482 reversed single #
loop $-1 $-1 $353 $220 #
plane-surface $-1 0 34.009662288444183 0 0 -1 0 0 0 -1 forward_v I I I I #
coedge $-1 $483 $351 $354 $484 forward $221 $-1 #
coedge $-1 $357 $223 $224 $345 reversed $138 $-1 #
coedge $-1 $351 $483 $223 $343 reversed $221 $-1 #
edge $-1 $358 -15.006100510692718 $485 15.006100510692718 $342 $486 forward 7 unknown #
coedge $-1 $225 $224 $483 $487 forward $89 $-1 #
edge $-1 $349 -50.249336222418897 $485 50.249336222418897 $341 $488 forward 7 unknown #
coedge $-1 $354 $353 $225 $347 reversed $338 $-1 #
edge $-1 $489 -50.249336222418897 $348 50.249336222418897 $346 $490 forward 7 unknown #
vertex $-1 $227 $491 #
vertex $-1 $360 $492 #
straight-curve $-1 50.249336222418897 0 -15.006100510692718 0 -1 0 I I #
coedge $-1 $340 $342 $228 $352 reversed $221 $-1 #
edge $-1 $355 -34.009662288444183 $358 34.009662288444183 $351 $493 forward 7 unknown #
coedge $-1 $346 $229 $234 $361 forward $338 $-1 #
coedge $-1 $229 $346 $340 $484 reversed $338 $-1 #
vertex $-1 $230 $494 #
straight-curve $-1 0 34.009662288444183 15.006100510692718 -1 0 0 I I #
coedge $-1 $231 $341 $233 $360 reversed $138 $-1 #
vertex $-1 $352 $495 #
straight-curve $-1 0 -34.009662288444183 15.006100510692718 1 0 0 I I #
edge $-1 $236 -15.006100510692718 $349 15.006100510692718 $233 $496 forward 7 unknown #
edge $-1 $237 -15.006100510692718 $348 15.006100510692718 $234 $497 forward 7 unknown #
point $-1 50.249336222418897 -34.009662288444183 15.006100510692718 #
point $-1 50.249336222418897 34.009662288444183 15.006100510692718 #
face $-1 $-1 $498 $34 $-1 $499 reversed single #
loop $-1 $-1 $249 $239 #
plane-surface $-1 0 -34.009662288444183 0 0 1 0 0 0 1 forward_v I I I I #
coedge $-1 $500 $242 $371 $501 forward $146 $-1 #
coedge $-1 $242 $500 $502 $503 forward $146 $-1 #
edge $-1 $504 -50.249336222418897 $372 50.249336222418897 $242 $505 forward 7 unknown #
coedge $-1 $244 $243 $506 $507 reversed $93 $-1 #
coedge $-1 $245 $251 $367 $501 reversed $240 $-1 #
vertex $-1 $501 $508 #
straight-curve $-1 50.249336222418897 -14.688544226256402 -5.9724206758345719 0 0 1 I I #
coedge $-1 $506 $509 $247 $375 forward $498 $-1 #
edge $-1 $380 -21.835110659769036 $376 -2.5139925975812556 $374 $510 forward 7 unknown #
vertex $-1 $375 $511 #
straight-curve $-1 0 -14.688544226256402 -8.8835821926455694 -1 0 0 I I #
coedge $-1 $512 $249 $509 $513 forward $365 $-1 #
coedge $-1 $249 $512 $251 $382 reversed $365 $-1 #
vertex $-1 $513 $514 #
straight-curve $-1 0 -34.009662288444183 -8.8835821926455694 -1 0 0 I I #
edge $-1 $253 8.8835821926455694 $515 15.006100510692718 $251 $516 forward 7 unknown #
point $-1 50.249336222418897 -14.688544226256402 -8.8835821926455694 #
point $-1 50.249336222418897 -34.009662288444183 -8.8835821926455694 #
face $-1 $-1 $399 $35 $-1 $517 reversed single #
loop $-1 $-1 $391 $255 #
plane-surface $-1 -50.249336222418897 0 0 1 0 0 0 0 -1 forward_v I I I I #
coedge $-1 $518 $519 $258 $390 forward $256 $-1 #
coedge $-1 $259 $258 $266 $404 reversed $97 $-1 #
edge $-1 $520 -50.249336222418897 $393 50.249336222418897 $388 $521 forward 7 unknown #
coedge $-1 $522 $260 $262 $396 forward $386 $-1 #
coedge $-1 $260 $522 $518 $523 reversed $386 $-1 #
vertex $-1 $523 $524 #
vertex $-1 $396 $525 #
straight-curve $-1 -50.249336222418897 14.688544226256404 -5.9724206758345719 0 0 1 I I #
edge $-1 $394 2.5139925975812574 $400 21.835110659769036 $391 $526 forward 7 unknown #
coedge $-1 $527 $263 $267 $405 forward $399 $-1 #
coedge $-1 $263 $527 $522 $528 reversed $399 $-1 #
loop $-1 $-1 $263 $385 #
vertex $-1 $528 $529 #
straight-curve $-1 0 34.009662288444183 -8.8835821926455694 1 0 0 I I #
straight-curve $-1 0 14.688544226256404 -8.8835821926455694 1 0 0 I I #
coedge $-1 $267 $266 $519 $530 reversed $154 $-1 #
edge $-1 $269 2.9111615168109974 $520 9.0336798348581464 $266 $531 forward 7 unknown #
edge $-1 $268 8.8835821926455694 $532 15.006100510692718 $267 $533 forward 7 unknown #
point $-1 50.249336222418897 34.009662288444183 -8.8835821926455694 #
point $-1 50.249336222418897 14.688544226256404 -8.8835821926455694 #
loop $-1 $-1 $279 $271 #
plane-surface $-1 50.249336222418897 0 0 -1 0 0 0 0 1 forward_v I I I I #
coedge $-1 $411 $274 $276 $415 reversed $162 $-1 #
coedge $-1 $274 $410 $534 $535 reversed $162 $-1 #
coedge $-1 $282 $277 $274 $413 forward $272 $-1 #
edge $-1 $416 19.613147816762837 $536 26.364892773612059 $412 $537 forward 7 unknown #
coedge $-1 $276 $275 $419 $538 reversed $101 $-1 #
edge $-1 $539 -100.49867244483779 $416 -91.11264232716718 $410 $540 forward 7 unknown #
vertex $-1 $278 $541 #
straight-curve $-1 43.497591265569667 -5.5781939730502224 15.006100510692718 0 -1 0 I I #
coedge $-1 $534 $279 $282 $423 reversed $408 $-1 #
coedge $-1 $279 $534 $414 $538 forward $408 $-1 #
vertex $-1 $280 $542 #
straight-curve $-1 50.249336222418897 -7.6242316659444906 75.295477540104315 0 0 1 I I #
straight-curve $-1 -22.043357956350057 -7.6242316659444906 78.298260901439676 0.71933979245794832 0 -0.69465837861970381 I I #
edge $-1 $536 -14.688544226256399 $283 -7.6242316659444906 $418 $543 forward 7 unknown #
point $-1 50.249336222418897 -7.6242316659444906 15.006100510692718 #
point $-1 43.497591265569675 -7.6242316659444906 15.006100510692718 #
edge $-1 $544 1 $544 0 $286 $-1 forward 7 unknown #
vertex $-1 $287 $545 #
ellipse-curve $-1 45.588196283982718 -13.275681714194018 10.415124893130296 0.69465837861970381 0 0.71933979245794832 0.35966989622897416 0 -0.3473291893098519 1 I I #
point $-1 47.233133640223237 -13.275681714194018 11.39872908977447 #
edge $-1 $546 1 $546 0 $290 $-1 forward 7 unknown #
vertex $-1 $291 $547 #
ellipse-curve $-1 45.588196283982718 -11.156387946100445 10.415124893130296 0.69465837861970381 0 0.71933979245794832 0.35966989622897416 0 -0.3473291893098519 1 I I #
point $-1 47.233133640223237 -11.156387946100445 11.39872908977447 #
edge $-1 $548 1 $548 0 $294 $-1 forward 7 unknown #
vertex $-1 $295 $549 #
ellipse-curve $-1 45.588196283982718 -9.0370941780068712 10.415124893130296 0.69465837861970381 0 0.71933979245794832 0.35966989622897416 0 -0.3473291893098519 1 I I #
point $-1 47.233133640223237 -9.0370941780068712 11.39872908977447 #
plane-surface $-1 0 0 15.006100510692718 0 0 1 1 0 0 forward_v I I I I #
coedge $-1 $449 $448 $441 $550 forward $299 $-1 #
coedge $-1 $441 $301 $303 $445 reversed $191 $-1 #
coedge $-1 $301 $440 $439 $550 reversed $191 $-1 #
coedge $-1 $309 $304 $301 $443 forward $310 $-1 #
edge $-1 $446 -18.727464793877715 $551 -7.8418630191872936 $442 $552 forward 7 unknown #
coedge $-1 $303 $302 $449 $553 reversed $120 $-1 #
edge $-1 $554 9.44141639987384e-015 $446 14.423563924429828 $440 $555 forward 7 unknown #
vertex $-1 $305 $556 #
straight-curve $-1 -39.363734447728469 -3.5002649803985939 15.006100510692718 0 1 0 I I #
coedge $-1 $439 $306 $309 $453 reversed $299 $-1 #
coedge $-1 $306 $439 $444 $553 forward $299 $-1 #
vertex $-1 $307 $557 #
straight-curve $-1 -50.249336222418897 -10.591743847399272 40.695350624785824 0 0 1 I I #
straight-curve $-1 -50.249336222418904 -10.591743847399272 5.5433910527747514 -0.75470957328743171 0 -0.6560590369687036 I I #
edge $-1 $551 3.4093160741951039 $311 10.591743847399272 $448 $558 forward 7 unknown #
point $-1 -50.249336222418897 -10.591743847399272 15.006100510692718 #
point $-1 -39.363734447728476 -10.591743847399272 15.006100510692718 #
edge $-1 $559 1 $559 0 $314 $-1 forward 7 unknown #
vertex $-1 $315 $560 #
ellipse-curve $-1 -42.7764103296279 -7.0005299607971878 7.9393541626206261 -0.6560590369687036 0 0.75470957328743171 0.75470957328743171 0 0.6560590369687036 1 I I #
point $-1 -44.051825761786247 -7.0005299607971878 10.930804818702434 #
loop $-1 $-1 $326 $318 #
plane-surface $-1 -50.249336222418897 0 0 1 0 0 0 0 -1 forward_v I I I I #
coedge $-1 $463 $321 $323 $467 reversed $206 $-1 #
coedge $-1 $321 $462 $561 $562 reversed $206 $-1 #
coedge $-1 $329 $324 $321 $465 forward $319 $-1 #
edge $-1 $468 -18.727464793877715 $563 -7.8418630191872936 $464 $564 forward 7 unknown #
coedge $-1 $323 $322 $471 $565 reversed $129 $-1 #
edge $-1 $566 9.44141639987384e-015 $468 14.423563924429828 $462 $567 forward 7 unknown #
vertex $-1 $325 $568 #
straight-curve $-1 -39.363734447728469 3.5002649803985939 15.006100510692718 0 1 0 I I #
coedge $-1 $561 $326 $329 $475 reversed $460 $-1 #
coedge $-1 $326 $561 $466 $565 forward $460 $-1 #
vertex $-1 $327 $569 #
straight-curve $-1 -50.249336222418897 3.4093160741951039 40.695350624785824 0 0 1 I I #
straight-curve $-1 -50.249336222418904 3.4093160741951039 5.5433910527747514 -0.75470957328743171 0 -0.6560590369687036 I I #
edge $-1 $563 -10.591743847399272 $330 -3.4093160741951039 $470 $570 forward 7 unknown #
point $-1 -50.249336222418897 3.4093160741951039 15.006100510692718 #
point $-1 -39.363734447728476 3.4093160741951039 15.006100510692718 #
edge $-1 $571 1 $571 0 $333 $-1 forward 7 unknown #
vertex $-1 $334 $572 #
ellipse-curve $-1 -42.7764103296279 7.0005299607971878 7.9393541626206261 -0.6560590369687036 0 0.75470957328743171 0.75470957328743171 0 0.6560590369687036 1 I I #
point $-1 -44.051825761786247 7.0005299607971878 10.930804818702434 #
plane-surface $-1 50.249336222418897 0 0 -1 0 0 0 0 1 forward_v I I I I #
coedge $-1 $342 $340 $344 $487 reversed $221 $-1 #
edge $-1 $355 -15.006100510692718 $489 15.006100510692718 $354 $573 forward 7 unknown #
vertex $-1 $487 $574 #
straight-curve $-1 -50.249336222418897 -34.009662288444183 0 0 0 -1 I I #
edge $-1 $485 -34.009662288444183 $489 34.009662288444183 $483 $575 forward 7 unknown #
straight-curve $-1 0 -34.009662288444183 -15.006100510692718 -1 0 0 I I #
vertex $-1 $347 $576 #
straight-curve $-1 0 34.009662288444183 -15.006100510692718 1 0 0 I I #
point $-1 50.249336222418897 34.009662288444183 -15.006100510692718 #
point $-1 50.249336222418897 -34.009662288444183 -15.006100510692718 #
straight-curve $-1 -50.249336222418897 0 15.006100510692718 0 -1 0 I I #
point $-1 -50.249336222418897 34.009662288444183 15.006100510692718 #
point $-1 -50.249336222418897 -34.009662288444183 15.006100510692718 #
straight-curve $-1 50.249336222418897 -34.009662288444183 0 0 0 -1 I I #
straight-curve $-1 50.249336222418897 34.009662288444183 0 0 0 -1 I I #
loop $-1 $-1 $506 $364 #
plane-surface $-1 -50.249336222418897 0 0 1 0 0 0 0 -1 forward_v I I I I #
coedge $-1 $368 $367 $512 $577 forward $146 $-1 #
edge $-1 $372 14.688544226256402 $515 34.009662288444183 $371 $578 forward 7 unknown #
coedge $-1 $509 $506 $368 $503 reversed $498 $-1 #
edge $-1 $579 -34.009662288444183 $504 -14.688544226256402 $502 $580 forward 7 unknown #
vertex $-1 $507 $581 #
straight-curve $-1 0 -14.688544226256402 -15.006100510692718 1 0 0 I I #
coedge $-1 $502 $374 $370 $507 forward $498 $-1 #
edge $-1 $376 2.9111615168109974 $504 9.0336798348581464 $506 $582 forward 7 unknown #
point $-1 50.249336222418897 -14.688544226256402 -15.006100510692718 #
coedge $-1 $374 $502 $378 $513 reversed $498 $-1 #
straight-curve $-1 -50.249336222418897 -12.174551628675147 -8.8835821926455694 0 1 0 I I #
point $-1 -50.249336222418897 -14.688544226256402 -8.8835821926455694 #
coedge $-1 $379 $378 $500 $577 reversed $365 $-1 #
edge $-1 $380 8.8835821926455694 $579 15.006100510692718 $509 $583 forward 7 unknown #
point $-1 -50.249336222418897 -34.009662288444183 -8.8835821926455694 #
vertex $-1 $382 $584 #
straight-curve $-1 50.249336222418897 -34.009662288444183 0 0 0 -1 I I #
plane-surface $-1 0 34.009662288444183 0 0 -1 0 0 0 -1 forward_v I I I I #
coedge $-1 $585 $388 $392 $523 forward $256 $-1 #
coedge $-1 $388 $585 $403 $530 forward $256 $-1 #
vertex $-1 $390 $586 #
straight-curve $-1 0 14.688544226256404 -15.006100510692718 -1 0 0 I I #
coedge $-1 $392 $391 $398 $528 forward $386 $-1 #
edge $-1 $393 14.688544226256404 $587 34.009662288444183 $392 $588 forward 7 unknown #
point $-1 -50.249336222418897 14.688544226256404 -15.006100510692718 #
point $-1 -50.249336222418897 14.688544226256404 -8.8835821926455694 #
straight-curve $-1 -50.249336222418897 12.174551628675147 -8.8835821926455694 0 1 0 I I #
coedge $-1 $398 $397 $585 $589 reversed $399 $-1 #
edge $-1 $400 8.8835821926455694 $587 15.006100510692718 $398 $590 forward 7 unknown #
point $-1 -50.249336222418897 34.009662288444183 -8.8835821926455694 #
edge $-1 $532 -34.009662288444183 $520 -14.688544226256404 $403 $591 forward 7 unknown #
straight-curve $-1 50.249336222418897 14.688544226256404 -5.9724206758345719 0 0 -1 I I #
vertex $-1 $530 $592 #
straight-curve $-1 50.249336222418897 34.009662288444183 0 0 0 -1 I I #
coedge $-1 $419 $418 $411 $535 forward $408 $-1 #
edge $-1 $536 60.289377029411597 $539 66.809461492628373 $534 $593 forward 7 unknown #
vertex $-1 $423 $594 #
straight-curve $-1 23.884443448806838 -14.688544226256399 15.006100510692718 1 0 0 I I #
edge $-1 $539 -9.1103502532061764 $420 -2.0460376928942683 $419 $595 forward 7 unknown #
vertex $-1 $538 $596 #
straight-curve $-1 -22.043357956350057 -14.688544226256399 78.298260901439676 -0.71933979245794832 0 0.69465837861970381 I I #
point $-1 43.497591265569675 -14.688544226256399 15.006100510692718 #
point $-1 50.249336222418897 -7.6242316659444906 8.4860160474759425 #
straight-curve $-1 50.249336222418897 0 15.006100510692718 0 1 0 I I #
vertex $-1 $426 $597 #
point $-1 45.947866180211697 -13.275681714194018 10.067795703820442 #
vertex $-1 $430 $598 #
point $-1 45.947866180211697 -11.156387946100445 10.067795703820442 #
vertex $-1 $434 $599 #
point $-1 45.947866180211697 -9.0370941780068712 10.067795703820442 #
edge $-1 $551 25.689250114093106 $554 35.151959572011066 $439 $600 forward 7 unknown #
vertex $-1 $453 $601 #
straight-curve $-1 -58.091199241606191 -3.4093160741951039 15.006100510692718 -1 0 0 I I #
edge $-1 $554 -0.090948906203490054 $450 7.0914788670006779 $449 $602 forward 7 unknown #
vertex $-1 $553 $603 #
straight-curve $-1 -50.249336222418904 -3.4093160741951039 5.5433910527747514 0.75470957328743171 0 0.6560590369687036 I I #
point $-1 -39.363734447728476 -3.4093160741951039 15.006100510692718 #
point $-1 -50.249336222418897 -10.591743847399272 5.5433910527747576 #
straight-curve $-1 -50.249336222418897 0 15.006100510692718 0 -1 0 I I #
vertex $-1 $456 $604 #
point $-1 -42.021700756340472 -7.0005299607971878 8.5954131995893306 #
coedge $-1 $471 $470 $463 $562 forward $460 $-1 #
edge $-1 $563 25.689250114093106 $566 35.151959572011066 $561 $605 forward 7 unknown #
vertex $-1 $475 $606 #
straight-curve $-1 -58.091199241606191 10.591743847399272 15.006100510692718 -1 0 0 I I #
edge $-1 $566 -7.0914788670006779 $472 0.090948906203490054 $471 $607 forward 7 unknown #
vertex $-1 $565 $608 #
straight-curve $-1 -50.249336222418904 10.591743847399272 5.5433910527747514 0.75470957328743171 0 0.6560590369687036 I I #
point $-1 -39.363734447728476 10.591743847399272 15.006100510692718 #
point $-1 -50.249336222418897 3.4093160741951039 5.5433910527747576 #
straight-curve $-1 -50.249336222418897 0 15.006100510692718 0 -1 0 I I #
vertex $-1 $478 $609 #
point $-1 -42.021700756340472 7.0005299607971878 8.5954131995893306 #
straight-curve $-1 -50.249336222418897 34.009662288444183 0 0 0 -1 I I #
point $-1 -50.249336222418897 -34.009662288444183 -15.006100510692718 #
straight-curve $-1 -50.249336222418897 0 -15.006100510692718 0 1 0 I I #
point $-1 -50.249336222418897 34.009662288444183 -15.006100510692718 #
edge $-1 $515 -50.249336222418897 $579 50.249336222418897 $512 $610 forward 7 unknown #
straight-curve $-1 50.249336222418897 0 -15.006100510692718 0 -1 0 I I #
vertex $-1 $503 $611 #
straight-curve $-1 -50.249336222418897 0 -15.006100510692718 0 1 0 I I #
point $-1 -50.249336222418897 -14.688544226256402 -15.006100510692718 #
straight-curve $-1 -50.249336222418897 -14.688544226256402 -5.9724206758345719 0 0 -1 I I #
straight-curve $-1 -50.249336222418897 -34.009662288444183 0 0 0 -1 I I #
point $-1 50.249336222418897 -34.009662288444183 -15.006100510692718 #
coedge $-1 $519 $518 $527 $589 forward $256 $-1 #
point $-1 50.249336222418897 14.688544226256404 -15.006100510692718 #
vertex $-1 $589 $612 #
straight-curve $-1 -50.249336222418897 0 -15.006100510692718 0 1 0 I I #
edge $-1 $587 -50.249336222418897 $532 50.249336222418897 $527 $613 forward 7 unknown #
straight-curve $-1 -50.249336222418897 34.009662288444183 0 0 0 -1 I I #
straight-curve $-1 50.249336222418897 0 -15.006100510692718 0 -1 0 I I #
point $-1 50.249336222418897 34.009662288444183 -15.006100510692718 #
straight-curve $-1 50.249336222418897 -14.688544226256399 75.295477540104315 0 0 -1 I I #
point $-1 50.249336222418897 -14.688544226256399 15.006100510692718 #
straight-curve $-1 50.24933622241889 -5.5781939730502224 8.4860160474759567 0 1 0 I I #
point $-1 50.249336222418897 -14.688544226256399 8.4860160474759425 #
point $-1 45.240867094672872 -13.275681714194018 10.05545499690132 #
point $-1 45.240867094672872 -11.156387946100445 10.05545499690132 #
point $-1 45.240867094672872 -9.0370941780068712 10.05545499690132 #
straight-curve $-1 -50.249336222418897 -3.4093160741951039 40.695350624785824 0 0 -1 I I #
point $-1 -50.249336222418897 -3.4093160741951039 15.006100510692718 #
straight-curve $-1 -50.249336222418897 -3.5002649803985939 5.5433910527747621 0 -1 0 I I #
point $-1 -50.249336222418897 -3.4093160741951039 5.5433910527747576 #
point $-1 -42.120351292659201 -7.0005299607971878 7.1846445893331943 #
straight-curve $-1 -50.249336222418897 10.591743847399272 40.695350624785824 0 0 -1 I I #
point $-1 -50.249336222418897 10.591743847399272 15.006100510692718 #
straight-curve $-1 -50.249336222418897 3.5002649803985939 5.5433910527747621 0 -1 0 I I #
point $-1 -50.249336222418897 10.591743847399272 5.5433910527747576 #
point $-1 -42.120351292659201 7.0005299607971878 7.1846445893331943 #
straight-curve $-1 0 -34.009662288444183 -15.006100510692718 -1 0 0 I I #
point $-1 -50.249336222418897 -34.009662288444183 -15.006100510692718 #
point $-1 -50.249336222418897 34.009662288444183 -15.006100510692718 #
straight-curve $-1 0 34.009662288444183 -15.006100510692718 1 0 0 I I #
End-of-ACIS-data 