500 0 10 0           
7 Unknown 11 ACIS 5.0 NT 24 Thu Mar 25 17:03:23 1999 
-1 9.9999999999999995e-007 1e-010 
body $-1 $10 $-1 $11 #
body $-1 $12 $-1 $13 #
body $-1 $14 $-1 $15 #
body $-1 $16 $-1 $17 #
body $-1 $18 $-1 $19 #
body $-1 $20 $-1 $21 #
body $-1 $22 $-1 $23 #
body $-1 $24 $-1 $25 #
body $-1 $26 $-1 $27 #
body $-1 $28 $-1 $29 #
lump $-1 $-1 $30 $0 #
transform $-1 1 0 0 0 1 0 0 0 1 61.052888576921902 33.382050753288077 12.930234326021065 1 rotate no_reflect no_shear #
lump $-1 $-1 $31 $1 #
transform $-1 1 0 0 0 1 0 0 0 1 61.052888576921902 33.382050753288077 12.930234326021065 1 rotate no_reflect no_shear #
lump $-1 $-1 $32 $2 #
transform $-1 1 0 0 0 1 0 0 0 1 61.052888576921902 33.382050753288077 12.930234326021065 1 rotate no_reflect no_shear #
lump $-1 $-1 $33 $3 #
transform $-1 1 0 0 0 1 0 0 0 1 61.052888576921902 33.382050753288077 12.930234326021065 1 rotate no_reflect no_shear #
lump $-1 $-1 $34 $4 #
transform $-1 1 0 0 0 1 0 0 0 1 61.052888576921902 33.382050753288077 12.930234326021065 1 rotate no_reflect no_shear #
lump $-1 $-1 $35 $5 #
transform $-1 1 0 0 0 1 0 0 0 1 61.052888576921902 33.382050753288077 12.930234326021065 1 rotate no_reflect no_shear #
lump $-1 $-1 $36 $6 #
transform $-1 1 0 0 0 1 0 0 0 1 61.052888576921902 33.382050753288077 12.930234326021065 1 rotate no_reflect no_shear #
lump $-1 $-1 $37 $7 #
transform $-1 1 0 0 0 1 0 0 0 1 61.052888576921902 33.382050753288077 12.930234326021065 1 rotate no_reflect no_shear #
lump $-1 $-1 $38 $8 #
transform $-1 1 0 0 0 1 0 0 0 1 61.052888576921902 33.382050753288077 12.930234326021065 1 rotate no_reflect no_shear #
lump $-1 $-1 $39 $9 #
transform $-1 1 0 0 0 1 0 0 0 1 61.052888576921902 33.382050753288077 12.930234326021065 1 rotate no_reflect no_shear #
shell $-1 $-1 $-1 $40 $-1 $10 #
shell $-1 $-1 $-1 $41 $-1 $12 #
shell $-1 $-1 $-1 $42 $-1 $14 #
shell $-1 $-1 $-1 $43 $-1 $16 #
shell $-1 $-1 $-1 $44 $-1 $18 #
shell $-1 $-1 $-1 $45 $-1 $20 #
shell $-1 $-1 $-1 $46 $-1 $22 #
shell $-1 $-1 $-1 $47 $-1 $24 #
shell $-1 $-1 $-1 $48 $-1 $26 #
shell $-1 $-1 $-1 $49 $-1 $28 #
face $-1 $50 $51 $30 $-1 $52 forward single #
face $-1 $53 $54 $31 $-1 $55 reversed single #
face $-1 $56 $57 $32 $-1 $58 reversed single #
face $-1 $59 $60 $33 $-1 $61 forward single #
face $-1 $62 $63 $34 $-1 $64 reversed single #
face $-1 $65 $66 $35 $-1 $67 forward single #
face $-1 $68 $69 $36 $-1 $70 reversed single #
face $-1 $71 $72 $37 $-1 $73 forward single #
face $-1 $74 $75 $38 $-1 $76 reversed single #
face $-1 $77 $78 $39 $-1 $79 forward single #
face $-1 $80 $81 $30 $-1 $82 reversed single #
loop $-1 $-1 $83 $40 #
plane-surface $-1 0 0 12.930234326021065 0 0 1 1 0 0 forward_v I I I I #
face $-1 $84 $85 $31 $-1 $86 reversed single #
loop $-1 $-1 $87 $41 #
plane-surface $-1 0 -28.126299389372875 7.739436011517256 0 0 1 1 0 0 forward_v I I I I #
face $-1 $88 $89 $32 $-1 $90 reversed single #
loop $-1 $-1 $91 $42 #
plane-surface $-1 28.103297033558491 1.8173754685596322 170.0610079825631 0 -1 0 -0.55919291073839883 0 -0.82903756765294845 forward_v I I I I #
face $-1 $92 $93 $33 $-1 $94 forward single #
loop $-1 $95 $96 $43 #
cone-surface $-1 50.980974850849158 -4.4684681507264798 5.4136600889407553 -0.55919291073839883 0 -0.82903756765294845 1.2435563514794228 0 -0.83878936610759824 1 I I 0 1 1.5 forward I I I I #
face $-1 $97 $98 $34 $-1 $99 reversed single #
loop $-1 $-1 $100 $44 #
plane-surface $-1 28.103297033558491 21.265814497842989 170.0610079825631 0 -1 0 -0.55919291073839883 0 -0.82903756765294845 forward_v I I I I #
face $-1 $101 $102 $35 $-1 $103 forward single #
loop $-1 $104 $105 $45 #
cone-surface $-1 50.980974850849158 14.979970878556877 5.4136600889407553 -0.55919291073839883 0 -0.82903756765294845 1.2435563514794228 0 -0.83878936610759824 1 I I 0 1 1.5 forward I I I I #
face $-1 $106 $107 $36 $-1 $108 reversed single #
loop $-1 $-1 $109 $46 #
plane-surface $-1 -129.33357352155411 -10.754311770012592 101.7803230379309 0 1 0 -0.55919291073839883 0 0.82903756765294845 forward_v I I I I #
face $-1 $110 $111 $37 $-1 $112 forward single #
loop $-1 $113 $114 $47 #
cone-surface $-1 -50.980974850849158 -4.4684681507264798 5.4136600889407482 0.55919291073839883 0 -0.82903756765294845 1.2435563514794228 0 0.83878936610759824 1 I I 0 1 1.5 forward I I I I #
face $-1 $115 $116 $38 $-1 $117 reversed single #
loop $-1 $-1 $118 $48 #
plane-surface $-1 -129.33357352155411 8.6941272592707648 101.7803230379309 0 1 0 -0.55919291073839883 0 0.82903756765294845 forward_v I I I I #
face $-1 $119 $120 $39 $-1 $121 forward single #
loop $-1 $122 $123 $49 #
cone-surface $-1 -50.980974850849158 14.979970878556877 5.4136600889407482 0.55919291073839883 0 -0.82903756765294845 1.2435563514794228 0 0.83878936610759824 1 I I 0 1 1.5 forward I I I I #
face $-1 $124 $125 $30 $-1 $126 reversed single #
loop $-1 $-1 $127 $50 #
plane-surface $-1 0 0 -12.930234326021065 0 0 1 1 0 0 forward_v I I I I #
coedge $-1 $128 $129 $130 $131 forward $51 $-1 #
face $-1 $132 $133 $31 $-1 $134 reversed single #
loop $-1 $-1 $135 $53 #
plane-surface $-1 0 -22.870548025457673 10.33483516876916 0 -1 0 0 0 -1 forward_v I I I I #
coedge $-1 $136 $137 $138 $139 reversed $54 $-1 #
face $-1 $140 $141 $32 $-1 $142 reversed single #
loop $-1 $-1 $143 $56 #
plane-surface $-1 -40.177387911073708 -4.4684681507264798 68.830731494567459 0.55919291073839883 0 0.82903756765294845 0.82903756765294845 0 -0.55919291073839883 forward_v I I I I #
coedge $-1 $144 $145 $146 $147 reversed $57 $-1 #
face $-1 $-1 $148 $33 $-1 $149 forward single #
loop $-1 $150 $151 $59 #
cone-surface $-1 49.666857858026603 -4.4684681507264798 3.4654015641636349 -0.55919291073839883 0 -0.82903756765294845 0.62177817573971139 0 -0.41939468305379912 1 I I -0.70710678118654757 0.70710678118654757 0.75 forward I I I I #
loop $-1 $-1 $152 $43 #
coedge $-1 $96 $96 $153 $154 reversed $60 $-1 #
face $-1 $155 $156 $34 $-1 $157 reversed single #
loop $-1 $-1 $158 $62 #
plane-surface $-1 -40.177387911073708 14.979970878556877 68.830731494567459 0.55919291073839883 0 0.82903756765294845 0.82903756765294845 0 -0.55919291073839883 forward_v I I I I #
coedge $-1 $159 $160 $161 $162 reversed $63 $-1 #
face $-1 $-1 $163 $35 $-1 $164 forward single #
loop $-1 $165 $166 $65 #
cone-surface $-1 49.666857858026603 14.979970878556877 3.4654015641636349 -0.55919291073839883 0 -0.82903756765294845 0.62177817573971139 0 -0.41939468305379912 1 I I -0.70710678118654757 0.70710678118654757 0.75 forward I I I I #
loop $-1 $-1 $167 $45 #
coedge $-1 $105 $105 $168 $169 reversed $66 $-1 #
face $-1 $170 $171 $36 $-1 $172 reversed single #
loop $-1 $-1 $173 $68 #
plane-surface $-1 -61.052888576921916 -4.4684681507264798 0.55004654993526003 -0.55919291073839883 0 0.82903756765294845 0.82903756765294845 0 0.55919291073839883 forward_v I I I I #
coedge $-1 $174 $175 $176 $177 reversed $69 $-1 #
face $-1 $-1 $178 $37 $-1 $179 forward single #
loop $-1 $180 $181 $71 #
cone-surface $-1 -49.666857858026603 -4.4684681507264798 3.4654015641636278 0.55919291073839883 0 -0.82903756765294845 0.62177817573971139 0 0.41939468305379912 1 I I -0.70710678118654757 0.70710678118654757 0.75 forward I I I I #
loop $-1 $-1 $182 $47 #
coedge $-1 $114 $114 $183 $184 reversed $72 $-1 #
face $-1 $185 $186 $38 $-1 $187 reversed single #
loop $-1 $-1 $188 $74 #
plane-surface $-1 -61.052888576921916 14.979970878556877 0.55004654993526003 -0.55919291073839883 0 0.82903756765294845 0.82903756765294845 0 0.55919291073839883 forward_v I I I I #
coedge $-1 $189 $190 $191 $192 reversed $75 $-1 #
face $-1 $-1 $193 $39 $-1 $194 forward single #
loop $-1 $195 $196 $77 #
cone-surface $-1 -49.666857858026603 14.979970878556877 3.4654015641636278 0.55919291073839883 0 -0.82903756765294845 0.62177817573971139 0 0.41939468305379912 1 I I -0.70710678118654757 0.70710678118654757 0.75 forward I I I I #
loop $-1 $-1 $197 $49 #
coedge $-1 $123 $123 $198 $199 reversed $78 $-1 #
face $-1 $200 $201 $30 $-1 $202 reversed single #
loop $-1 $-1 $203 $80 #
plane-surface $-1 0 -33.382050753288077 0 0 1 0 0 0 1 forward_v I I I I #
coedge $-1 $204 $205 $206 $207 forward $81 $-1 #
coedge $-1 $208 $83 $209 $210 forward $51 $-1 #
coedge $-1 $83 $208 $211 $212 forward $51 $-1 #
coedge $-1 $213 $214 $83 $131 reversed $215 $-1 #
edge $-1 $216 -33.382050753288077 $217 33.382050753288077 $130 $218 forward 7 unknown #
face $-1 $219 $220 $31 $-1 $221 reversed single #
loop $-1 $-1 $222 $84 #
plane-surface $-1 -61.052888576921902 0 0 1 0 0 0 0 -1 forward_v I I I I #
coedge $-1 $223 $224 $225 $226 reversed $85 $-1 #
coedge $-1 $227 $87 $228 $229 reversed $54 $-1 #
coedge $-1 $87 $227 $223 $230 forward $54 $-1 #
coedge $-1 $225 $231 $87 $139 forward $232 $-1 #
edge $-1 $233 -19.318901058601639 $234 -8.8073983307712354 $138 $235 forward 7 unknown #
face $-1 $236 $237 $32 $-1 $238 reversed single #
loop $-1 $-1 $239 $88 #
plane-surface $-1 28.103297033558491 -10.754311770012592 170.0610079825631 0 1 0 0.55919291073839883 0 0.82903756765294845 forward_v I I I I #
coedge $-1 $240 $241 $242 $243 reversed $89 $-1 #
coedge $-1 $145 $91 $244 $245 reversed $57 $-1 #
coedge $-1 $91 $144 $240 $246 reversed $57 $-1 #
coedge $-1 $242 $247 $91 $147 forward $248 $-1 #
edge $-1 $249 -47.001240060142656 $250 -28.646857227534731 $146 $251 forward 7 unknown #
loop $-1 $-1 $153 $92 #
plane-surface $-1 -40.177387911073708 -4.4684681507264798 68.830731494567459 0.55919291073839883 0 0.82903756765294845 0.82903756765294845 0 -0.55919291073839883 forward_v I I I I #
loop $-1 $-1 $252 $59 #
coedge $-1 $151 $151 $152 $253 reversed $93 $-1 #
coedge $-1 $152 $152 $151 $253 forward $95 $-1 #
coedge $-1 $153 $153 $96 $154 forward $148 $-1 #
edge $-1 $254 0 $254 6.2831853071796004 $153 $255 forward 7 unknown #
face $-1 $256 $257 $34 $-1 $258 reversed single #
loop $-1 $-1 $259 $97 #
plane-surface $-1 28.103297033558491 8.6941272592707648 170.0610079825631 0 1 0 0.55919291073839883 0 0.82903756765294845 forward_v I I I I #
coedge $-1 $260 $261 $262 $263 reversed $98 $-1 #
coedge $-1 $160 $100 $264 $265 reversed $63 $-1 #
coedge $-1 $100 $159 $260 $266 reversed $63 $-1 #
coedge $-1 $262 $267 $100 $162 forward $268 $-1 #
edge $-1 $269 -47.001240060142656 $270 -28.646857227534731 $161 $271 forward 7 unknown #
loop $-1 $-1 $168 $101 #
plane-surface $-1 -40.177387911073708 14.979970878556877 68.830731494567459 0.55919291073839883 0 0.82903756765294845 0.82903756765294845 0 -0.55919291073839883 forward_v I I I I #
loop $-1 $-1 $272 $65 #
coedge $-1 $166 $166 $167 $273 reversed $102 $-1 #
coedge $-1 $167 $167 $166 $273 forward $104 $-1 #
coedge $-1 $168 $168 $105 $169 forward $163 $-1 #
edge $-1 $274 0 $274 6.2831853071796004 $168 $275 forward 7 unknown #
face $-1 $276 $277 $36 $-1 $278 forward single #
loop $-1 $-1 $279 $106 #
plane-surface $-1 -129.33357352155411 1.8173754685596322 101.7803230379309 0 -1 0 0.55919291073839883 0 -0.82903756765294845 forward_v I I I I #
coedge $-1 $280 $281 $282 $283 reversed $107 $-1 #
coedge $-1 $175 $109 $284 $285 reversed $69 $-1 #
coedge $-1 $109 $174 $280 $286 reversed $69 $-1 #
coedge $-1 $282 $287 $109 $177 forward $277 $-1 #
edge $-1 $288 3.6138981838551558 $289 21.968281016463095 $176 $290 forward 7 unknown #
loop $-1 $-1 $183 $110 #
plane-surface $-1 -61.052888576921916 -4.4684681507264798 0.55004654993526003 -0.55919291073839883 0 0.82903756765294845 0.82903756765294845 0 0.55919291073839883 forward_v I I I I #
loop $-1 $-1 $291 $71 #
coedge $-1 $181 $181 $182 $292 reversed $111 $-1 #
coedge $-1 $182 $182 $181 $292 forward $113 $-1 #
coedge $-1 $183 $183 $114 $184 forward $178 $-1 #
edge $-1 $293 0 $293 6.2831853071796004 $183 $294 forward 7 unknown #
face $-1 $295 $296 $38 $-1 $297 forward single #
loop $-1 $-1 $298 $115 #
plane-surface $-1 -129.33357352155411 21.265814497842989 101.7803230379309 0 -1 0 0.55919291073839883 0 -0.82903756765294845 forward_v I I I I #
coedge $-1 $299 $300 $301 $302 reversed $116 $-1 #
coedge $-1 $190 $118 $303 $304 reversed $75 $-1 #
coedge $-1 $118 $189 $299 $305 reversed $75 $-1 #
coedge $-1 $301 $306 $118 $192 forward $296 $-1 #
edge $-1 $307 3.6138981838551558 $308 21.968281016463095 $191 $309 forward 7 unknown #
loop $-1 $-1 $198 $119 #
plane-surface $-1 -61.052888576921916 14.979970878556877 0.55004654993526003 -0.55919291073839883 0 0.82903756765294845 0.82903756765294845 0 0.55919291073839883 forward_v I I I I #
loop $-1 $-1 $310 $77 #
coedge $-1 $196 $196 $197 $311 reversed $120 $-1 #
coedge $-1 $197 $197 $196 $311 forward $122 $-1 #
coedge $-1 $198 $198 $123 $199 forward $193 $-1 #
edge $-1 $312 0 $312 6.2831853071796004 $198 $313 forward 7 unknown #
face $-1 $314 $315 $30 $-1 $316 reversed single #
loop $-1 $-1 $317 $124 #
plane-surface $-1 -61.052888576921902 0 0 1 0 0 0 0 -1 forward_v I I I I #
coedge $-1 $318 $211 $319 $320 forward $125 $-1 #
coedge $-1 $321 $127 $318 $322 forward $81 $-1 #
coedge $-1 $127 $321 $323 $324 forward $81 $-1 #
coedge $-1 $214 $213 $127 $207 reversed $215 $-1 #
edge $-1 $325 -33.382050753288077 $326 33.382050753288077 $206 $327 forward 7 unknown #
coedge $-1 $129 $128 $328 $329 forward $51 $-1 #
coedge $-1 $330 $331 $128 $210 reversed $315 $-1 #
edge $-1 $217 -61.052888576921902 $332 61.052888576921902 $209 $333 forward 7 unknown #
coedge $-1 $203 $334 $129 $212 reversed $125 $-1 #
edge $-1 $335 -61.052888576921902 $216 61.052888576921902 $211 $336 forward 7 unknown #
coedge $-1 $206 $130 $334 $337 forward $215 $-1 #
coedge $-1 $130 $206 $330 $338 reversed $215 $-1 #
loop $-1 $-1 $213 $314 #
vertex $-1 $131 $339 #
vertex $-1 $131 $340 #
straight-curve $-1 61.052888576921902 0 12.930234326021065 0 1 0 I I #
face $-1 $341 $342 $31 $-1 $343 forward single #
loop $-1 $-1 $228 $132 #
plane-surface $-1 0 -33.382050753288077 0 0 1 0 0 0 1 forward_v I I I I #
coedge $-1 $344 $345 $346 $347 forward $133 $-1 #
coedge $-1 $346 $135 $137 $230 reversed $85 $-1 #
coedge $-1 $135 $346 $348 $349 reversed $85 $-1 #
coedge $-1 $350 $138 $135 $226 forward $232 $-1 #
edge $-1 $234 2.5720184271326758 $351 7.7628167416364846 $225 $352 forward 7 unknown #
coedge $-1 $137 $136 $344 $353 reversed $54 $-1 #
coedge $-1 $354 $355 $136 $229 forward $220 $-1 #
edge $-1 $356 -61.052888576921902 $233 61.052888576921902 $228 $357 forward 7 unknown #
edge $-1 $358 -61.052888576921902 $234 61.052888576921902 $223 $359 forward 7 unknown #
coedge $-1 $138 $350 $354 $360 forward $232 $-1 #
loop $-1 $-1 $225 $341 #
vertex $-1 $229 $361 #
vertex $-1 $139 $362 #
straight-curve $-1 61.052888576921902 -14.063149694686437 7.739436011517256 0 1 0 I I #
face $-1 $-1 $248 $32 $-1 $363 forward single #
loop $-1 $-1 $364 $140 #
plane-surface $-1 61.052888576921902 0 0 -1 0 0 0 0 1 forward_v I I I I #
coedge $-1 $365 $366 $367 $368 reversed $141 $-1 #
coedge $-1 $369 $143 $145 $246 forward $89 $-1 #
coedge $-1 $143 $369 $365 $370 forward $89 $-1 #
coedge $-1 $367 $146 $143 $243 forward $248 $-1 #
edge $-1 $250 -4.0516095439228721 $371 8.5200776946493519 $242 $372 forward 7 unknown #
coedge $-1 $373 $374 $144 $245 forward $237 $-1 #
edge $-1 $375 -84.480457441346275 $249 -72.100269665260484 $244 $376 forward 7 unknown #
edge $-1 $250 99.96639101653011 $375 122.10577715384377 $145 $377 forward 7 unknown #
coedge $-1 $146 $367 $373 $378 forward $248 $-1 #
loop $-1 $-1 $367 $236 #
vertex $-1 $245 $379 #
vertex $-1 $147 $380 #
straight-curve $-1 14.051648516779245 1.8173754685596322 12.930234326021065 -1 0 0 I I #
coedge $-1 $252 $252 $-1 $381 reversed $150 $-1 #
edge $-1 $382 0 $382 6.2831853071796004 $151 $383 forward 7 unknown #
vertex $-1 $154 $384 #
ellipse-curve $-1 51.875697160617925 -4.4684681507264798 6.7401404379781802 0.55919291073839883 0 0.82903756765294845 1.2435563514794228 0 -0.83878936610759824 1 I I #
face $-1 $-1 $268 $34 $-1 $385 forward single #
loop $-1 $-1 $386 $155 #
plane-surface $-1 61.052888576921902 0 0 -1 0 0 0 0 1 forward_v I I I I #
coedge $-1 $387 $388 $389 $390 reversed $156 $-1 #
coedge $-1 $391 $158 $160 $266 forward $98 $-1 #
coedge $-1 $158 $391 $387 $392 forward $98 $-1 #
coedge $-1 $389 $161 $158 $263 forward $268 $-1 #
edge $-1 $270 -13.77582905856455 $393 -1.2041418199923264 $262 $394 forward 7 unknown #
coedge $-1 $395 $396 $159 $265 forward $257 $-1 #
edge $-1 $397 -84.480457441346275 $269 -72.100269665260484 $264 $398 forward 7 unknown #
edge $-1 $270 99.96639101653011 $397 122.10577715384377 $160 $399 forward 7 unknown #
coedge $-1 $161 $389 $395 $400 forward $268 $-1 #
loop $-1 $-1 $389 $256 #
vertex $-1 $265 $401 #
vertex $-1 $162 $402 #
straight-curve $-1 14.051648516779245 21.265814497842989 12.930234326021065 -1 0 0 I I #
coedge $-1 $272 $272 $-1 $403 reversed $165 $-1 #
edge $-1 $404 0 $404 6.2831853071796004 $166 $405 forward 7 unknown #
vertex $-1 $169 $406 #
ellipse-curve $-1 51.875697160617925 14.979970878556877 6.7401404379781802 0.55919291073839883 0 0.82903756765294845 1.2435563514794228 0 -0.83878936610759824 1 I I #
face $-1 $-1 $407 $36 $-1 $408 reversed single #
loop $-1 $-1 $176 $170 #
plane-surface $-1 0 0 12.930234326021065 0 0 1 1 0 0 forward_v I I I I #
coedge $-1 $409 $410 $411 $412 reversed $171 $-1 #
coedge $-1 $413 $173 $175 $286 forward $107 $-1 #
coedge $-1 $173 $413 $409 $414 forward $107 $-1 #
coedge $-1 $411 $176 $173 $283 forward $277 $-1 #
edge $-1 $289 -8.5200776946493519 $415 4.0516095439228721 $282 $416 forward 7 unknown #
coedge $-1 $417 $418 $174 $285 forward $407 $-1 #
edge $-1 $419 -50.340114969030182 $288 -37.959927192944384 $284 $420 forward 7 unknown #
edge $-1 $289 -22.139386137313696 $419 -1.7120460491857305e-014 $175 $421 forward 7 unknown #
coedge $-1 $176 $411 $417 $422 forward $277 $-1 #
vertex $-1 $285 $423 #
vertex $-1 $177 $424 #
straight-curve $-1 -64.666786760777057 -10.754311770012592 12.930234326021065 1 0 0 I I #
coedge $-1 $291 $291 $-1 $425 reversed $180 $-1 #
edge $-1 $426 0 $426 6.2831853071796004 $181 $427 forward 7 unknown #
vertex $-1 $184 $428 #
ellipse-curve $-1 -51.875697160617925 -4.4684681507264798 6.7401404379781713 -0.55919291073839883 0 0.82903756765294845 1.2435563514794228 0 0.83878936610759824 1 I I #
face $-1 $-1 $429 $38 $-1 $430 reversed single #
loop $-1 $-1 $191 $185 #
plane-surface $-1 0 0 12.930234326021065 0 0 1 1 0 0 forward_v I I I I #
coedge $-1 $431 $432 $433 $434 reversed $186 $-1 #
coedge $-1 $435 $188 $190 $305 forward $116 $-1 #
coedge $-1 $188 $435 $431 $436 forward $116 $-1 #
coedge $-1 $433 $191 $188 $302 forward $296 $-1 #
edge $-1 $308 1.2041418199923264 $437 13.77582905856455 $301 $438 forward 7 unknown #
coedge $-1 $439 $440 $189 $304 forward $429 $-1 #
edge $-1 $441 -50.340114969030182 $307 -37.959927192944384 $303 $442 forward 7 unknown #
edge $-1 $308 -22.139386137313696 $441 -1.7120460491857305e-014 $190 $443 forward 7 unknown #
coedge $-1 $191 $433 $439 $444 forward $296 $-1 #
vertex $-1 $192 $445 #
vertex $-1 $192 $446 #
straight-curve $-1 -64.666786760777057 8.6941272592707648 12.930234326021065 1 0 0 I I #
coedge $-1 $310 $310 $-1 $447 reversed $195 $-1 #
edge $-1 $448 0 $448 6.2831853071796004 $196 $449 forward 7 unknown #
vertex $-1 $199 $450 #
ellipse-curve $-1 -51.875697160617925 14.979970878556877 6.7401404379781713 -0.55919291073839883 0 0.82903756765294845 1.2435563514794228 0 0.83878936610759824 1 I I #
face $-1 $-1 $215 $30 $-1 $451 reversed single #
loop $-1 $-1 $330 $200 #
plane-surface $-1 0 33.382050753288077 0 0 -1 0 0 0 -1 forward_v I I I I #
coedge $-1 $452 $328 $331 $453 forward $201 $-1 #
coedge $-1 $334 $203 $204 $322 reversed $125 $-1 #
coedge $-1 $328 $452 $203 $320 reversed $201 $-1 #
edge $-1 $335 -12.930234326021065 $454 12.930234326021065 $319 $455 forward 7 unknown #
coedge $-1 $205 $204 $452 $456 forward $81 $-1 #
edge $-1 $326 -61.052888576921902 $454 61.052888576921902 $318 $457 forward 7 unknown #
coedge $-1 $331 $330 $205 $324 reversed $315 $-1 #
edge $-1 $458 -61.052888576921902 $325 61.052888576921902 $323 $459 forward 7 unknown #
vertex $-1 $207 $460 #
vertex $-1 $337 $461 #
straight-curve $-1 61.052888576921902 0 -12.930234326021065 0 -1 0 I I #
coedge $-1 $317 $319 $208 $329 reversed $201 $-1 #
edge $-1 $332 -33.382050753288077 $335 33.382050753288077 $328 $462 forward 7 unknown #
coedge $-1 $323 $209 $214 $338 forward $315 $-1 #
coedge $-1 $209 $323 $317 $453 reversed $315 $-1 #
vertex $-1 $210 $463 #
straight-curve $-1 0 33.382050753288077 12.930234326021065 -1 0 0 I I #
coedge $-1 $211 $318 $213 $337 reversed $125 $-1 #
vertex $-1 $329 $464 #
straight-curve $-1 0 -33.382050753288077 12.930234326021065 1 0 0 I I #
edge $-1 $216 -12.930234326021065 $326 12.930234326021065 $213 $465 forward 7 unknown #
edge $-1 $217 -12.930234326021065 $325 12.930234326021065 $214 $466 forward 7 unknown #
point $-1 61.052888576921902 -33.382050753288077 12.930234326021065 #
point $-1 61.052888576921902 33.382050753288077 12.930234326021065 #
face $-1 $-1 $232 $31 $-1 $467 reversed single #
loop $-1 $-1 $348 $219 #
plane-surface $-1 0 0 12.930234326021065 0 0 1 1 0 0 forward_v I I I I #
coedge $-1 $468 $222 $227 $353 forward $133 $-1 #
coedge $-1 $222 $468 $469 $470 reversed $133 $-1 #
coedge $-1 $224 $223 $222 $347 reversed $85 $-1 #
edge $-1 $471 -7.7628167416364846 $358 -2.5720184271326758 $222 $472 forward 7 unknown #
coedge $-1 $469 $473 $224 $349 forward $342 $-1 #
edge $-1 $351 -61.052888576921902 $471 61.052888576921902 $348 $474 forward 7 unknown #
coedge $-1 $231 $225 $473 $475 reversed $232 $-1 #
vertex $-1 $226 $476 #
straight-curve $-1 61.052888576921902 -22.870548025457673 5.1674175843845802 0 0 1 I I #
edge $-1 $358 8.8073983307712354 $356 19.318901058601639 $344 $477 forward 7 unknown #
coedge $-1 $478 $228 $231 $360 reversed $220 $-1 #
coedge $-1 $228 $478 $468 $479 forward $220 $-1 #
vertex $-1 $229 $480 #
straight-curve $-1 0 -33.382050753288077 7.739436011517256 1 0 0 I I #
vertex $-1 $353 $481 #
straight-curve $-1 0 -22.870548025457673 7.739436011517256 1 0 0 I I #
edge $-1 $482 -12.930234326021065 $233 -7.739436011517256 $231 $483 forward 7 unknown #
point $-1 61.052888576921902 -33.382050753288077 7.739436011517256 #
point $-1 61.052888576921902 -22.870548025457673 7.739436011517256 #
plane-surface $-1 0 0 12.930234326021065 0 0 1 1 0 0 forward_v I I I I #
coedge $-1 $374 $373 $366 $484 forward $237 $-1 #
coedge $-1 $366 $239 $241 $370 reversed $141 $-1 #
coedge $-1 $239 $365 $364 $484 reversed $141 $-1 #
coedge $-1 $247 $242 $239 $368 forward $248 $-1 #
edge $-1 $371 28.646857227534731 $485 47.001240060142656 $367 $486 forward 7 unknown #
coedge $-1 $241 $240 $374 $487 reversed $89 $-1 #
edge $-1 $488 -122.10577715384377 $371 -99.96639101653011 $365 $489 forward 7 unknown #
vertex $-1 $243 $490 #
straight-curve $-1 42.698505744313962 -2.2342340753632399 12.930234326021072 0 -1 0 I I #
coedge $-1 $364 $244 $247 $378 reversed $237 $-1 #
coedge $-1 $244 $364 $369 $487 forward $237 $-1 #
vertex $-1 $245 $491 #
straight-curve $-1 61.052888576921902 1.8173754685596322 85.030503991281549 0 0 1 I I #
straight-curve $-1 -40.177387911073708 1.8173754685596322 68.830731494567459 0.82903756765294845 0 -0.55919291073839883 I I #
edge $-1 $485 -10.754311770012592 $249 1.8173754685596322 $373 $492 forward 7 unknown #
point $-1 61.052888576921902 1.8173754685596322 12.930234326021065 #
point $-1 42.698505744313977 1.8173754685596322 12.930234326021065 #
edge $-1 $493 1 $493 0 $252 $-1 forward 7 unknown #
vertex $-1 $253 $494 #
ellipse-curve $-1 50.086252541080405 -4.4684681507264798 4.0871797399033465 0.55919291073839883 0 0.82903756765294845 1.2435563514794228 0 -0.83878936610759824 1 I I #
point $-1 53.11925351209733 -4.4684681507264798 5.9013510718705664 #
plane-surface $-1 0 0 12.930234326021065 0 0 1 1 0 0 forward_v I I I I #
coedge $-1 $396 $395 $388 $495 forward $257 $-1 #
coedge $-1 $388 $259 $261 $392 reversed $156 $-1 #
coedge $-1 $259 $387 $386 $495 reversed $156 $-1 #
coedge $-1 $267 $262 $259 $390 forward $268 $-1 #
edge $-1 $393 28.646857227534731 $496 47.001240060142656 $389 $497 forward 7 unknown #
coedge $-1 $261 $260 $396 $498 reversed $98 $-1 #
edge $-1 $499 -122.10577715384377 $393 -99.96639101653011 $387 $500 forward 7 unknown #
vertex $-1 $263 $501 #
straight-curve $-1 42.698505744313962 7.4899854392784384 12.930234326021072 0 -1 0 I I #
coedge $-1 $386 $264 $267 $400 reversed $257 $-1 #
coedge $-1 $264 $386 $391 $498 forward $257 $-1 #
vertex $-1 $265 $502 #
straight-curve $-1 61.052888576921902 21.265814497842989 85.030503991281549 0 0 1 I I #
straight-curve $-1 -40.177387911073708 21.265814497842989 68.830731494567459 0.82903756765294845 0 -0.55919291073839883 I I #
edge $-1 $496 8.6941272592707648 $269 21.265814497842989 $395 $503 forward 7 unknown #
point $-1 61.052888576921902 21.265814497842989 12.930234326021065 #
point $-1 42.698505744313977 21.265814497842989 12.930234326021065 #
edge $-1 $504 1 $504 0 $272 $-1 forward 7 unknown #
vertex $-1 $273 $505 #
ellipse-curve $-1 50.086252541080405 14.979970878556877 4.0871797399033465 0.55919291073839883 0 0.82903756765294845 1.2435563514794228 0 -0.83878936610759824 1 I I #
point $-1 53.11925351209733 14.979970878556877 5.9013510718705664 #
loop $-1 $-1 $284 $276 #
plane-surface $-1 -61.052888576921902 0 0 1 0 0 0 0 -1 forward_v I I I I #
coedge $-1 $410 $279 $281 $414 reversed $171 $-1 #
coedge $-1 $279 $409 $506 $507 reversed $171 $-1 #
coedge $-1 $287 $282 $279 $412 forward $277 $-1 #
edge $-1 $415 -21.968281016463095 $508 -3.6138981838551558 $411 $509 forward 7 unknown #
coedge $-1 $281 $280 $418 $510 reversed $107 $-1 #
edge $-1 $511 1.7120460491857305e-014 $415 22.139386137313696 $409 $512 forward 7 unknown #
vertex $-1 $283 $513 #
straight-curve $-1 -42.698505744313962 -2.2342340753632399 12.930234326021065 0 1 0 I I #
coedge $-1 $506 $284 $287 $422 reversed $407 $-1 #
coedge $-1 $284 $506 $413 $510 forward $407 $-1 #
vertex $-1 $285 $514 #
straight-curve $-1 -61.052888576921902 -10.754311770012592 50.890161518965449 0 0 1 I I #
straight-curve $-1 -61.052888576921916 -10.754311770012592 0.55004654993526003 -0.82903756765294845 0 -0.55919291073839883 I I #
edge $-1 $508 -1.8173754685596322 $288 10.754311770012592 $417 $515 forward 7 unknown #
point $-1 -61.052888576921902 -10.754311770012592 12.930234326021065 #
point $-1 -42.698505744313962 -10.754311770012592 12.930234326021065 #
edge $-1 $516 1 $516 0 $291 $-1 forward 7 unknown #
vertex $-1 $292 $517 #
ellipse-curve $-1 -50.086252541080405 -4.4684681507264798 4.0871797399033394 -0.55919291073839883 0 0.82903756765294845 1.2435563514794228 0 0.83878936610759824 1 I I #
point $-1 -50.632140809138491 -4.4684681507264798 7.5789298040857558 #
loop $-1 $-1 $303 $295 #
plane-surface $-1 -61.052888576921902 0 0 1 0 0 0 0 -1 forward_v I I I I #
coedge $-1 $432 $298 $300 $436 reversed $186 $-1 #
coedge $-1 $298 $431 $518 $519 reversed $186 $-1 #
coedge $-1 $306 $301 $298 $434 forward $296 $-1 #
edge $-1 $437 -21.968281016463095 $520 -3.6138981838551558 $433 $521 forward 7 unknown #
coedge $-1 $300 $299 $440 $522 reversed $116 $-1 #
edge $-1 $523 1.7120460491857305e-014 $437 22.139386137313696 $431 $524 forward 7 unknown #
vertex $-1 $302 $525 #
straight-curve $-1 -42.698505744313962 7.4899854392784384 12.930234326021065 0 1 0 I I #
coedge $-1 $518 $303 $306 $444 reversed $429 $-1 #
coedge $-1 $303 $518 $435 $522 forward $429 $-1 #
vertex $-1 $304 $526 #
straight-curve $-1 -61.052888576921902 8.6941272592707648 50.890161518965449 0 0 1 I I #
straight-curve $-1 -61.052888576921916 8.6941272592707648 0.55004654993526003 -0.82903756765294845 0 -0.55919291073839883 I I #
edge $-1 $520 -21.265814497842989 $307 -8.6941272592707648 $439 $527 forward 7 unknown #
point $-1 -61.052888576921902 8.6941272592707648 12.930234326021065 #
point $-1 -42.698505744313962 8.6941272592707648 12.930234326021065 #
edge $-1 $528 1 $528 0 $310 $-1 forward 7 unknown #
vertex $-1 $311 $529 #
ellipse-curve $-1 -50.086252541080405 14.979970878556877 4.0871797399033394 -0.55919291073839883 0 0.82903756765294845 1.2435563514794228 0 0.83878936610759824 1 I I #
point $-1 -50.632140809138491 14.979970878556877 7.5789298040857558 #
plane-surface $-1 61.052888576921902 0 0 -1 0 0 0 0 1 forward_v I I I I #
coedge $-1 $319 $317 $321 $456 reversed $201 $-1 #
edge $-1 $332 -12.930234326021065 $458 12.930234326021065 $331 $530 forward 7 unknown #
vertex $-1 $456 $531 #
straight-curve $-1 -61.052888576921902 -33.382050753288077 0 0 0 -1 I I #
edge $-1 $454 -33.382050753288077 $458 33.382050753288077 $452 $532 forward 7 unknown #
straight-curve $-1 0 -33.382050753288077 -12.930234326021065 -1 0 0 I I #
vertex $-1 $324 $533 #
straight-curve $-1 0 33.382050753288077 -12.930234326021065 1 0 0 I I #
point $-1 61.052888576921902 33.382050753288077 -12.930234326021065 #
point $-1 61.052888576921902 -33.382050753288077 -12.930234326021065 #
straight-curve $-1 -61.052888576921902 0 12.930234326021065 0 -1 0 I I #
point $-1 -61.052888576921902 33.382050753288077 12.930234326021065 #
point $-1 -61.052888576921902 -33.382050753288077 12.930234326021065 #
straight-curve $-1 61.052888576921902 -33.382050753288077 0 0 0 -1 I I #
straight-curve $-1 61.052888576921902 33.382050753288077 0 0 0 -1 I I #
plane-surface $-1 61.052888576921902 0 0 -1 0 0 0 0 1 forward_v I I I I #
coedge $-1 $345 $344 $355 $479 reversed $133 $-1 #
coedge $-1 $534 $348 $345 $470 forward $342 $-1 #
edge $-1 $471 22.870548025457673 $535 33.382050753288077 $345 $536 forward 7 unknown #
vertex $-1 $470 $537 #
straight-curve $-1 -61.052888576921902 -22.870548025457673 5.1674175843845802 0 0 -1 I I #
coedge $-1 $348 $534 $350 $475 forward $342 $-1 #
straight-curve $-1 0 -22.870548025457673 12.930234326021065 -1 0 0 I I #
edge $-1 $482 -33.382050753288077 $351 -22.870548025457673 $350 $538 forward 7 unknown #
point $-1 61.052888576921902 -22.870548025457673 12.930234326021065 #
straight-curve $-1 -61.052888576921902 -14.063149694686437 7.739436011517256 0 -1 0 I I #
coedge $-1 $355 $354 $534 $539 reversed $220 $-1 #
edge $-1 $535 -12.930234326021065 $356 -7.739436011517256 $468 $540 forward 7 unknown #
point $-1 -61.052888576921902 -33.382050753288077 7.739436011517256 #
point $-1 -61.052888576921902 -22.870548025457673 7.739436011517256 #
vertex $-1 $475 $541 #
straight-curve $-1 61.052888576921902 -33.382050753288077 0 0 0 -1 I I #
edge $-1 $485 72.100269665260484 $488 84.480457441346275 $364 $542 forward 7 unknown #
vertex $-1 $378 $543 #
straight-curve $-1 14.051648516779245 -10.754311770012592 12.930234326021065 1 0 0 I I #
edge $-1 $488 -8.5200776946493519 $375 4.0516095439228721 $374 $544 forward 7 unknown #
vertex $-1 $487 $545 #
straight-curve $-1 -40.177387911073708 -10.754311770012592 68.830731494567459 -0.82903756765294845 0 0.55919291073839883 I I #
point $-1 42.698505744313977 -10.754311770012592 12.930234326021065 #
point $-1 61.052888576921902 1.8173754685596322 0.55004654993527424 #
straight-curve $-1 61.052888576921902 0 12.930234326021065 0 1 0 I I #
vertex $-1 $381 $546 #
point $-1 51.329808892559825 -4.4684681507264798 3.2483903737957478 #
edge $-1 $496 72.100269665260484 $499 84.480457441346275 $386 $547 forward 7 unknown #
vertex $-1 $400 $548 #
straight-curve $-1 14.051648516779245 8.6941272592707648 12.930234326021065 1 0 0 I I #
edge $-1 $499 1.2041418199923264 $397 13.77582905856455 $396 $549 forward 7 unknown #
vertex $-1 $498 $550 #
straight-curve $-1 -40.177387911073708 8.6941272592707648 68.830731494567459 -0.82903756765294845 0 0.55919291073839883 I I #
point $-1 42.698505744313977 8.6941272592707648 12.930234326021065 #
point $-1 61.052888576921902 21.265814497842989 0.55004654993527424 #
straight-curve $-1 61.052888576921902 0 12.930234326021065 0 1 0 I I #
vertex $-1 $403 $551 #
point $-1 51.329808892559825 14.979970878556877 3.2483903737957478 #
coedge $-1 $418 $417 $410 $507 forward $407 $-1 #
edge $-1 $508 37.959927192944384 $511 50.340114969030182 $506 $552 forward 7 unknown #
vertex $-1 $422 $553 #
straight-curve $-1 -64.666786760777057 1.8173754685596322 12.930234326021065 -1 0 0 I I #
edge $-1 $511 -4.0516095439228721 $419 8.5200776946493519 $418 $554 forward 7 unknown #
vertex $-1 $510 $555 #
straight-curve $-1 -61.052888576921916 1.8173754685596322 0.55004654993526003 0.82903756765294845 0 0.55919291073839883 I I #
point $-1 -42.698505744313962 1.8173754685596322 12.930234326021065 #
point $-1 -61.052888576921902 -10.754311770012592 0.55004654993526958 #
straight-curve $-1 -61.052888576921902 0 12.930234326021065 0 -1 0 I I #
vertex $-1 $425 $556 #
point $-1 -48.842696189600979 -4.4684681507264798 4.9259691060109372 #
coedge $-1 $440 $439 $432 $519 forward $429 $-1 #
edge $-1 $520 37.959927192944384 $523 50.340114969030182 $518 $557 forward 7 unknown #
vertex $-1 $444 $558 #
straight-curve $-1 -64.666786760777057 21.265814497842989 12.930234326021065 -1 0 0 I I #
edge $-1 $523 -13.77582905856455 $441 -1.2041418199923264 $440 $559 forward 7 unknown #
vertex $-1 $522 $560 #
straight-curve $-1 -61.052888576921916 21.265814497842989 0.55004654993526003 0.82903756765294845 0 0.55919291073839883 I I #
point $-1 -42.698505744313962 21.265814497842989 12.930234326021065 #
point $-1 -61.052888576921902 8.6941272592707648 0.55004654993526958 #
straight-curve $-1 -61.052888576921902 0 12.930234326021065 0 -1 0 I I #
vertex $-1 $447 $561 #
point $-1 -48.842696189600979 14.979970878556877 4.9259691060109372 #
straight-curve $-1 -61.052888576921902 33.382050753288077 0 0 0 -1 I I #
point $-1 -61.052888576921902 -33.382050753288077 -12.930234326021065 #
straight-curve $-1 -61.052888576921902 0 -12.930234326021065 0 1 0 I I #
point $-1 -61.052888576921902 33.382050753288077 -12.930234326021065 #
coedge $-1 $473 $469 $478 $539 forward $342 $-1 #
vertex $-1 $470 $562 #
straight-curve $-1 -61.052888576921902 0 12.930234326021065 0 -1 0 I I #
point $-1 -61.052888576921902 -22.870548025457673 12.930234326021065 #
straight-curve $-1 61.052888576921902 0 12.930234326021065 0 1 0 I I #
edge $-1 $535 -61.052888576921902 $482 61.052888576921902 $478 $563 forward 7 unknown #
straight-curve $-1 -61.052888576921902 -33.382050753288077 0 0 0 -1 I I #
point $-1 61.052888576921902 -33.382050753288077 12.930234326021065 #
straight-curve $-1 61.052888576921902 -10.754311770012592 85.030503991281549 0 0 -1 I I #
point $-1 61.052888576921902 -10.754311770012592 12.930234326021065 #
straight-curve $-1 61.052888576921909 -2.2342340753632399 0.55004654993526714 0 1 0 I I #
point $-1 61.052888576921902 -10.754311770012592 0.55004654993527424 #
point $-1 49.2474631749728 -4.4684681507264798 2.8436233884239233 #
straight-curve $-1 61.052888576921902 8.6941272592707648 85.030503991281549 0 0 -1 I I #
point $-1 61.052888576921902 8.6941272592707648 12.930234326021065 #
straight-curve $-1 61.052888576921909 7.4899854392784384 0.55004654993526714 0 1 0 I I #
point $-1 61.052888576921902 8.6941272592707648 0.55004654993527424 #
point $-1 49.2474631749728 14.979970878556877 2.8436233884239233 #
straight-curve $-1 -61.052888576921902 1.8173754685596322 50.890161518965449 0 0 -1 I I #
point $-1 -61.052888576921902 1.8173754685596322 12.930234326021065 #
straight-curve $-1 -61.052888576921902 -2.2342340753632399 0.55004654993526969 0 -1 0 I I #
point $-1 -61.052888576921902 1.8173754685596322 0.55004654993526958 #
point $-1 -49.2474631749728 -4.4684681507264798 2.8436233884239162 #
straight-curve $-1 -61.052888576921902 21.265814497842989 50.890161518965449 0 0 -1 I I #
point $-1 -61.052888576921902 21.265814497842989 12.930234326021065 #
straight-curve $-1 -61.052888576921902 7.4899854392784384 0.55004654993526969 0 -1 0 I I #
point $-1 -61.052888576921902 21.265814497842989 0.55004654993526958 #
point $-1 -49.2474631749728 14.979970878556877 2.8436233884239162 #
point $-1 -61.052888576921902 -33.382050753288077 12.930234326021065 #
straight-curve $-1 0 -33.382050753288077 12.930234326021065 1 0 0 I I #
End-of-ACIS-data 