500 0 15 0           
7 Unknown 11 ACIS 5.0 NT 24 Thu Mar 25 16:21:29 1999 
-1 9.9999999999999995e-007 1e-010 
body $-1 $15 $-1 $16 #
body $-1 $17 $-1 $18 #
body $-1 $19 $-1 $20 #
body $-1 $21 $-1 $22 #
body $-1 $23 $-1 $24 #
body $-1 $25 $-1 $26 #
body $-1 $27 $-1 $28 #
body $-1 $29 $-1 $30 #
body $-1 $31 $-1 $32 #
body $-1 $33 $-1 $34 #
body $-1 $35 $-1 $36 #
body $-1 $37 $-1 $38 #
body $-1 $39 $-1 $40 #
body $-1 $41 $-1 $42 #
body $-1 $43 $-1 $44 #
lump $-1 $-1 $45 $0 #
transform $-1 1 0 0 0 1 0 0 0 1 47.80907620471816 25.196974996250475 10.051183827585387 1 rotate no_reflect no_shear #
lump $-1 $-1 $46 $1 #
transform $-1 1 0 0 0 1 0 0 0 1 47.80907620471816 25.196974996250475 10.051183827585387 1 rotate no_reflect no_shear #
lump $-1 $-1 $47 $2 #
transform $-1 1 0 0 0 1 0 0 0 1 47.80907620471816 25.196974996250475 10.051183827585387 1 rotate no_reflect no_shear #
lump $-1 $-1 $48 $3 #
transform $-1 1 0 0 0 1 0 0 0 1 47.80907620471816 25.196974996250475 10.051183827585387 1 rotate no_reflect no_shear #
lump $-1 $-1 $49 $4 #
transform $-1 1 0 0 0 1 0 0 0 1 47.80907620471816 25.196974996250475 10.051183827585387 1 rotate no_reflect no_shear #
lump $-1 $-1 $50 $5 #
transform $-1 1 0 0 0 1 0 0 0 1 47.80907620471816 25.196974996250475 10.051183827585387 1 rotate no_reflect no_shear #
lump $-1 $-1 $51 $6 #
transform $-1 1 0 0 0 1 0 0 0 1 47.80907620471816 25.196974996250475 10.051183827585387 1 rotate no_reflect no_shear #
lump $-1 $-1 $52 $7 #
transform $-1 1 0 0 0 1 0 0 0 1 47.80907620471816 25.196974996250475 10.051183827585387 1 rotate no_reflect no_shear #
lump $-1 $-1 $53 $8 #
transform $-1 1 0 0 0 1 0 0 0 1 47.80907620471816 25.196974996250475 10.051183827585387 1 rotate no_reflect no_shear #
lump $-1 $-1 $54 $9 #
transform $-1 1 0 0 0 1 0 0 0 1 47.80907620471816 25.196974996250475 10.051183827585387 1 rotate no_reflect no_shear #
lump $-1 $-1 $55 $10 #
transform $-1 1 0 0 0 1 0 0 0 1 47.80907620471816 25.196974996250475 10.051183827585387 1 rotate no_reflect no_shear #
lump $-1 $-1 $56 $11 #
transform $-1 1 0 0 0 1 0 0 0 1 47.80907620471816 25.196974996250475 10.051183827585387 1 rotate no_reflect no_shear #
lump $-1 $-1 $57 $12 #
transform $-1 1 0 0 0 1 0 0 0 1 47.80907620471816 25.196974996250475 10.051183827585387 1 rotate no_reflect no_shear #
lump $-1 $-1 $58 $13 #
transform $-1 1 0 0 0 1 0 0 0 1 47.80907620471816 25.196974996250475 10.051183827585387 1 rotate no_reflect no_shear #
lump $-1 $-1 $59 $14 #
transform $-1 1 0 0 0 1 0 0 0 1 47.80907620471816 25.196974996250475 10.051183827585387 1 rotate no_reflect no_shear #
shell $-1 $-1 $-1 $60 $-1 $15 #
shell $-1 $-1 $-1 $61 $-1 $17 #
shell $-1 $-1 $-1 $62 $-1 $19 #
shell $-1 $-1 $-1 $63 $-1 $21 #
shell $-1 $-1 $-1 $64 $-1 $23 #
shell $-1 $-1 $-1 $65 $-1 $25 #
shell $-1 $-1 $-1 $66 $-1 $27 #
shell $-1 $-1 $-1 $67 $-1 $29 #
shell $-1 $-1 $-1 $68 $-1 $31 #
shell $-1 $-1 $-1 $69 $-1 $33 #
shell $-1 $-1 $-1 $70 $-1 $35 #
shell $-1 $-1 $-1 $71 $-1 $37 #
shell $-1 $-1 $-1 $72 $-1 $39 #
shell $-1 $-1 $-1 $73 $-1 $41 #
shell $-1 $-1 $-1 $74 $-1 $43 #
face $-1 $75 $76 $45 $-1 $77 forward single #
face $-1 $78 $79 $46 $-1 $80 forward single #
face $-1 $81 $82 $47 $-1 $83 forward single #
face $-1 $84 $85 $48 $-1 $86 reversed single #
face $-1 $87 $88 $49 $-1 $89 forward single #
face $-1 $90 $91 $50 $-1 $92 reversed single #
face $-1 $93 $94 $51 $-1 $95 forward single #
face $-1 $96 $97 $52 $-1 $98 reversed single #
face $-1 $99 $100 $53 $-1 $101 forward single #
face $-1 $102 $103 $54 $-1 $104 reversed single #
face $-1 $105 $106 $55 $-1 $107 forward single #
face $-1 $108 $109 $56 $-1 $110 reversed single #
face $-1 $111 $112 $57 $-1 $113 forward single #
face $-1 $114 $115 $58 $-1 $116 forward single #
face $-1 $117 $118 $59 $-1 $119 forward single #
face $-1 $120 $121 $45 $-1 $122 reversed single #
loop $-1 $-1 $123 $60 #
plane-surface $-1 0 0 10.051183827585387 0 0 1 1 0 0 forward_v I I I I #
face $-1 $124 $125 $46 $-1 $126 reversed single #
loop $-1 $-1 $127 $61 #
plane-surface $-1 -47.80907620471816 0 0 1 0 0 0 0 -1 forward_v I I I I #
face $-1 $128 $129 $47 $-1 $130 reversed single #
loop $-1 $-1 $131 $62 #
plane-surface $-1 47.80907620471816 0 0 -1 0 0 0 0 1 forward_v I I I I #
face $-1 $132 $133 $48 $-1 $134 reversed single #
loop $-1 $-1 $135 $63 #
plane-surface $-1 -35.430903863118495 62.534977121047859 102.9746045043899 1 0 0 0 -0.74314483375859142 -0.66913059716165679 forward_v I I I I #
face $-1 $136 $137 $49 $-1 $138 forward single #
loop $-1 $139 $140 $64 #
cone-surface $-1 -29.291426920218708 19.527616191173482 4.1413412267649292 0 -0.74314483375859142 -0.66913059716165679 1.5 0 0 1 I I 0 1 1.5 forward I I I I #
face $-1 $141 $142 $50 $-1 $143 reversed single #
loop $-1 $-1 $144 $65 #
plane-surface $-1 -15.866758163253937 62.534977121047859 102.9746045043899 1 0 0 0 -0.74314483375859142 -0.66913059716165679 forward_v I I I I #
face $-1 $145 $146 $51 $-1 $147 forward single #
loop $-1 $148 $149 $66 #
cone-surface $-1 -9.7272812203541505 19.527616191173482 4.1413412267649292 0 -0.74314483375859142 -0.66913059716165679 1.5 0 0 1 I I 0 1 1.5 forward I I I I #
face $-1 $150 $151 $52 $-1 $152 reversed single #
loop $-1 $-1 $153 $67 #
plane-surface $-1 3.6973875366106173 62.534977121047859 102.9746045043899 1 0 0 0 -0.74314483375859142 -0.66913059716165679 forward_v I I I I #
face $-1 $154 $155 $53 $-1 $156 forward single #
loop $-1 $157 $158 $68 #
cone-surface $-1 9.8368644795104032 19.527616191173482 4.1413412267649292 0 -0.74314483375859142 -0.66913059716165679 1.5 0 0 1 I I 0 1 1.5 forward I I I I #
face $-1 $159 $160 $54 $-1 $161 reversed single #
loop $-1 $-1 $162 $69 #
plane-surface $-1 23.26153323647517 62.534977121047859 102.9746045043899 1 0 0 0 -0.74314483375859142 -0.66913059716165679 forward_v I I I I #
face $-1 $163 $164 $55 $-1 $165 forward single #
loop $-1 $166 $167 $70 #
cone-surface $-1 29.401010179374957 19.527616191173482 4.1413412267649292 0 -0.74314483375859142 -0.66913059716165679 1.5 0 0 1 I I 0 1 1.5 forward I I I I #
face $-1 $168 $169 $56 $-1 $170 reversed single #
loop $-1 $-1 $171 $71 #
plane-surface $-1 -12.015613986726386 -89.17800806638229 75.826135226441409 -1 0 0 0 -0.66913061440640931 0.74314481823134659 forward_v I I I I #
face $-1 $172 $173 $57 $-1 $174 forward single #
loop $-1 $175 $176 $72 #
cone-surface $-1 -25.461598091494899 -21.28509206716836 6.323304022776667 0 0.66913061440640931 -0.74314481823134659 1 0 0 1 I I 0 1 1 forward I I I I #
face $-1 $177 $178 $58 $-1 $179 forward single #
loop $-1 $180 $181 $73 #
cone-surface $-1 -20.419354052206707 -21.28509206716836 6.323304022776667 0 0.66913061440640931 -0.74314481823134659 1 0 0 1 I I 0 1 1 forward I I I I #
face $-1 $182 $183 $59 $-1 $184 forward single #
loop $-1 $185 $186 $74 #
cone-surface $-1 -15.377110012918514 -21.28509206716836 6.323304022776667 0 0.66913061440640931 -0.74314481823134659 1 0 0 1 I I 0 1 1 forward I I I I #
face $-1 $187 $188 $45 $-1 $189 reversed single #
loop $-1 $-1 $190 $75 #
plane-surface $-1 0 0 -10.051183827585387 0 0 1 1 0 0 forward_v I I I I #
coedge $-1 $191 $192 $193 $194 forward $76 $-1 #
face $-1 $195 $196 $46 $-1 $197 reversed single #
loop $-1 $-1 $198 $78 #
plane-surface $-1 0 0 -10.051183827585387 0 0 1 1 0 0 forward_v I I I I #
coedge $-1 $199 $200 $201 $202 forward $79 $-1 #
face $-1 $203 $204 $47 $-1 $205 reversed single #
loop $-1 $-1 $206 $81 #
plane-surface $-1 0 0 -10.051183827585387 0 0 1 1 0 0 forward_v I I I I #
coedge $-1 $207 $208 $209 $210 forward $82 $-1 #
face $-1 $211 $212 $48 $-1 $213 reversed single #
loop $-1 $-1 $214 $84 #
plane-surface $-1 -29.291426920218708 -8.5231588555663507 38.993573083169466 0 0.74314483375859142 0.66913059716165679 1 0 0 forward_v I I I I #
coedge $-1 $215 $216 $217 $218 reversed $85 $-1 #
face $-1 $-1 $219 $49 $-1 $220 forward single #
loop $-1 $221 $222 $87 #
cone-surface $-1 -29.291426920218708 17.131043842295426 1.9834578450891307 0 -0.74314483375859142 -0.66913059716165679 0.75 0 0 1 I I -0.70710678118654757 0.70710678118654757 0.75 forward I I I I #
loop $-1 $-1 $223 $64 #
coedge $-1 $140 $140 $224 $225 reversed $88 $-1 #
face $-1 $226 $227 $50 $-1 $228 reversed single #
loop $-1 $-1 $229 $90 #
plane-surface $-1 -9.7272812203541505 -8.5231588555663507 38.993573083169466 0 0.74314483375859142 0.66913059716165679 1 0 0 forward_v I I I I #
coedge $-1 $230 $231 $232 $233 reversed $91 $-1 #
face $-1 $-1 $234 $51 $-1 $235 forward single #
loop $-1 $236 $237 $93 #
cone-surface $-1 -9.7272812203541505 17.131043842295426 1.9834578450891307 0 -0.74314483375859142 -0.66913059716165679 0.75 0 0 1 I I -0.70710678118654757 0.70710678118654757 0.75 forward I I I I #
loop $-1 $-1 $238 $66 #
coedge $-1 $149 $149 $239 $240 reversed $94 $-1 #
face $-1 $241 $242 $52 $-1 $243 reversed single #
loop $-1 $-1 $244 $96 #
plane-surface $-1 9.8368644795104032 -8.5231588555663507 38.993573083169466 0 0.74314483375859142 0.66913059716165679 1 0 0 forward_v I I I I #
coedge $-1 $245 $246 $247 $248 reversed $97 $-1 #
face $-1 $-1 $249 $53 $-1 $250 forward single #
loop $-1 $251 $252 $99 #
cone-surface $-1 9.8368644795104032 17.131043842295426 1.9834578450891307 0 -0.74314483375859142 -0.66913059716165679 0.75 0 0 1 I I -0.70710678118654757 0.70710678118654757 0.75 forward I I I I #
loop $-1 $-1 $253 $68 #
coedge $-1 $158 $158 $254 $255 reversed $100 $-1 #
face $-1 $256 $257 $54 $-1 $258 reversed single #
loop $-1 $-1 $259 $102 #
plane-surface $-1 29.401010179374957 -8.5231588555663507 38.993573083169466 0 0.74314483375859142 0.66913059716165679 1 0 0 forward_v I I I I #
coedge $-1 $260 $261 $262 $263 reversed $103 $-1 #
face $-1 $-1 $264 $55 $-1 $265 forward single #
loop $-1 $266 $267 $105 #
cone-surface $-1 29.401010179374957 17.131043842295426 1.9834578450891307 0 -0.74314483375859142 -0.66913059716165679 0.75 0 0 1 I I -0.70710678118654757 0.70710678118654757 0.75 forward I I I I #
loop $-1 $-1 $268 $70 #
coedge $-1 $167 $167 $269 $270 reversed $106 $-1 #
face $-1 $271 $272 $56 $-1 $273 reversed single #
loop $-1 $-1 $274 $108 #
plane-surface $-1 -20.419354052206707 -25.196974996250482 4.768000734513663 0 -0.66913061440640931 0.74314481823134659 1 0 0 forward_v I I I I #
coedge $-1 $275 $276 $277 $278 reversed $109 $-1 #
face $-1 $-1 $279 $57 $-1 $280 forward single #
loop $-1 $281 $282 $111 #
cone-surface $-1 -25.461598091494899 -19.972428397642581 4.865443355388134 0 0.66913061440640931 -0.74314481823134659 0.5 0 0 1 I I -0.70710678118654746 0.70710678118654746 0.5 forward I I I I #
loop $-1 $-1 $283 $72 #
coedge $-1 $176 $176 $284 $285 reversed $112 $-1 #
face $-1 $-1 $286 $58 $-1 $287 forward single #
loop $-1 $288 $289 $114 #
cone-surface $-1 -20.419354052206707 -19.972428397642581 4.865443355388134 0 0.66913061440640931 -0.74314481823134659 0.5 0 0 1 I I -0.70710678118654746 0.70710678118654746 0.5 forward I I I I #
loop $-1 $-1 $290 $73 #
coedge $-1 $181 $181 $291 $292 reversed $115 $-1 #
face $-1 $-1 $293 $59 $-1 $294 forward single #
loop $-1 $295 $296 $117 #
cone-surface $-1 -15.377110012918514 -19.972428397642581 4.865443355388134 0 0.66913061440640931 -0.74314481823134659 0.5 0 0 1 I I -0.70710678118654746 0.70710678118654746 0.5 forward I I I I #
loop $-1 $-1 $297 $74 #
coedge $-1 $186 $186 $298 $299 reversed $118 $-1 #
face $-1 $300 $301 $45 $-1 $302 reversed single #
loop $-1 $-1 $303 $120 #
plane-surface $-1 0 -25.196974996250475 0 0 1 0 0 0 1 forward_v I I I I #
coedge $-1 $304 $305 $306 $307 forward $121 $-1 #
coedge $-1 $308 $123 $309 $310 forward $76 $-1 #
coedge $-1 $123 $308 $311 $312 forward $76 $-1 #
coedge $-1 $313 $314 $123 $194 reversed $315 $-1 #
edge $-1 $316 -25.196974996250475 $317 25.196974996250475 $193 $318 forward 7 unknown #
face $-1 $319 $320 $46 $-1 $321 reversed single #
loop $-1 $-1 $322 $124 #
plane-surface $-1 -52.149468607212683 -11.448585872899137 0 0 1 0 0 0 1 forward_v I I I I #
coedge $-1 $323 $324 $200 $325 forward $125 $-1 #
coedge $-1 $326 $127 $327 $328 reversed $79 $-1 #
coedge $-1 $127 $326 $198 $325 reversed $79 $-1 #
coedge $-1 $329 $330 $127 $202 reversed $331 $-1 #
edge $-1 $332 -10.051183827585387 $333 10.051183827585387 $201 $334 forward 7 unknown #
face $-1 $335 $336 $47 $-1 $337 reversed single #
loop $-1 $-1 $209 $128 #
plane-surface $-1 52.149468607212675 -11.448585872899137 0 0 1 0 0 0 1 forward_v I I I I #
coedge $-1 $338 $339 $208 $340 forward $129 $-1 #
coedge $-1 $341 $131 $342 $343 reversed $82 $-1 #
coedge $-1 $131 $341 $206 $340 reversed $82 $-1 #
coedge $-1 $344 $345 $131 $210 reversed $204 $-1 #
edge $-1 $346 -10.051183827585387 $347 10.051183827585387 $209 $348 forward 7 unknown #
face $-1 $349 $350 $48 $-1 $351 reversed single #
loop $-1 $-1 $352 $132 #
plane-surface $-1 -23.151949977318921 62.534977121047859 102.9746045043899 -1 0 0 0 0.74314483375859142 0.66913059716165679 forward_v I I I I #
coedge $-1 $353 $354 $355 $356 reversed $133 $-1 #
coedge $-1 $216 $135 $357 $358 reversed $85 $-1 #
coedge $-1 $135 $215 $353 $359 reversed $85 $-1 #
coedge $-1 $355 $360 $135 $218 forward $361 $-1 #
edge $-1 $362 6.0705135642734547 $363 13.730803727309201 $217 $364 forward 7 unknown #
loop $-1 $-1 $224 $136 #
plane-surface $-1 -29.291426920218708 -8.5231588555663507 38.993573083169466 0 0.74314483375859142 0.66913059716165679 1 0 0 forward_v I I I I #
loop $-1 $-1 $365 $87 #
coedge $-1 $222 $222 $223 $366 reversed $137 $-1 #
coedge $-1 $223 $223 $222 $366 forward $139 $-1 #
coedge $-1 $224 $224 $140 $225 forward $219 $-1 #
edge $-1 $367 1.0553611992639615e-015 $367 6.2831853071796013 $224 $368 forward 7 unknown #
face $-1 $369 $370 $50 $-1 $371 forward single #
loop $-1 $-1 $372 $141 #
plane-surface $-1 -3.5878042774543646 62.534977121047859 102.9746045043899 -1 0 0 0 0.74314483375859142 0.66913059716165679 forward_v I I I I #
coedge $-1 $373 $374 $375 $376 reversed $142 $-1 #
coedge $-1 $231 $144 $377 $378 reversed $91 $-1 #
coedge $-1 $144 $230 $373 $379 reversed $91 $-1 #
coedge $-1 $375 $380 $144 $233 forward $370 $-1 #
edge $-1 $381 6.0705135642734547 $382 13.730803727309201 $232 $383 forward 7 unknown #
loop $-1 $-1 $239 $145 #
plane-surface $-1 -9.7272812203541505 -8.5231588555663507 38.993573083169466 0 0.74314483375859142 0.66913059716165679 1 0 0 forward_v I I I I #
loop $-1 $-1 $384 $93 #
coedge $-1 $237 $237 $238 $385 reversed $146 $-1 #
coedge $-1 $238 $238 $237 $385 forward $148 $-1 #
coedge $-1 $239 $239 $149 $240 forward $234 $-1 #
edge $-1 $386 1.0553611992639615e-015 $386 6.2831853071796013 $239 $387 forward 7 unknown #
face $-1 $388 $389 $52 $-1 $390 forward single #
loop $-1 $-1 $391 $150 #
plane-surface $-1 15.97634142241019 62.534977121047859 102.9746045043899 -1 0 0 0 0.74314483375859142 0.66913059716165679 forward_v I I I I #
coedge $-1 $392 $393 $394 $395 reversed $151 $-1 #
coedge $-1 $246 $153 $396 $397 reversed $97 $-1 #
coedge $-1 $153 $245 $392 $398 reversed $97 $-1 #
coedge $-1 $394 $399 $153 $248 forward $389 $-1 #
edge $-1 $400 6.0705135642734547 $401 13.730803727309201 $247 $402 forward 7 unknown #
loop $-1 $-1 $254 $154 #
plane-surface $-1 9.8368644795104032 -8.5231588555663507 38.993573083169466 0 0.74314483375859142 0.66913059716165679 1 0 0 forward_v I I I I #
loop $-1 $-1 $403 $99 #
coedge $-1 $252 $252 $253 $404 reversed $155 $-1 #
coedge $-1 $253 $253 $252 $404 forward $157 $-1 #
coedge $-1 $254 $254 $158 $255 forward $249 $-1 #
edge $-1 $405 1.0553611992639615e-015 $405 6.2831853071796013 $254 $406 forward 7 unknown #
face $-1 $407 $408 $54 $-1 $409 forward single #
loop $-1 $-1 $410 $159 #
plane-surface $-1 35.54048712227474 62.534977121047859 102.9746045043899 -1 0 0 0 0.74314483375859142 0.66913059716165679 forward_v I I I I #
coedge $-1 $411 $412 $413 $414 reversed $160 $-1 #
coedge $-1 $261 $162 $415 $416 reversed $103 $-1 #
coedge $-1 $162 $260 $411 $417 reversed $103 $-1 #
coedge $-1 $413 $418 $162 $263 forward $408 $-1 #
edge $-1 $419 6.0705135642734547 $420 13.730803727309201 $262 $421 forward 7 unknown #
loop $-1 $-1 $269 $163 #
plane-surface $-1 29.401010179374957 -8.5231588555663507 38.993573083169466 0 0.74314483375859142 0.66913059716165679 1 0 0 forward_v I I I I #
loop $-1 $-1 $422 $105 #
coedge $-1 $267 $267 $268 $423 reversed $164 $-1 #
coedge $-1 $268 $268 $267 $423 forward $166 $-1 #
coedge $-1 $269 $269 $167 $270 forward $264 $-1 #
edge $-1 $424 1.0553611992639615e-015 $424 6.2831853071796013 $269 $425 forward 7 unknown #
face $-1 $426 $427 $56 $-1 $428 forward single #
loop $-1 $-1 $429 $168 #
plane-surface $-1 -28.823094117687027 -89.17800806638229 75.826135226441409 1 0 0 0 0.66913061440640931 -0.74314481823134659 forward_v I I I I #
coedge $-1 $430 $431 $432 $433 reversed $169 $-1 #
coedge $-1 $276 $171 $434 $435 reversed $109 $-1 #
coedge $-1 $171 $275 $430 $436 reversed $109 $-1 #
coedge $-1 $432 $437 $171 $278 forward $427 $-1 #
edge $-1 $438 19.39202903694067 $439 25.25959817045975 $277 $440 forward 7 unknown #
loop $-1 $-1 $284 $172 #
plane-surface $-1 -20.419354052206707 -25.196974996250482 4.768000734513663 0 -0.66913061440640931 0.74314481823134659 1 0 0 forward_v I I I I #
loop $-1 $-1 $441 $111 #
coedge $-1 $282 $282 $283 $442 reversed $173 $-1 #
coedge $-1 $283 $283 $282 $442 forward $175 $-1 #
coedge $-1 $284 $284 $176 $285 forward $279 $-1 #
edge $-1 $443 -5.9430737167645847e-016 $443 6.2831853071795996 $284 $444 forward 7 unknown #
loop $-1 $-1 $291 $177 #
plane-surface $-1 -20.419354052206707 -25.196974996250482 4.768000734513663 0 -0.66913061440640931 0.74314481823134659 1 0 0 forward_v I I I I #
loop $-1 $-1 $445 $114 #
coedge $-1 $289 $289 $290 $446 reversed $178 $-1 #
coedge $-1 $290 $290 $289 $446 forward $180 $-1 #
coedge $-1 $291 $291 $181 $292 forward $286 $-1 #
edge $-1 $447 -5.9430737167645847e-016 $447 6.2831853071795996 $291 $448 forward 7 unknown #
loop $-1 $-1 $298 $182 #
plane-surface $-1 -20.419354052206707 -25.196974996250482 4.768000734513663 0 -0.66913061440640931 0.74314481823134659 1 0 0 forward_v I I I I #
loop $-1 $-1 $449 $117 #
coedge $-1 $296 $296 $297 $450 reversed $183 $-1 #
coedge $-1 $297 $297 $296 $450 forward $185 $-1 #
coedge $-1 $298 $298 $186 $299 forward $293 $-1 #
edge $-1 $451 -5.9430737167645847e-016 $451 6.2831853071795996 $298 $452 forward 7 unknown #
face $-1 $453 $454 $45 $-1 $455 reversed single #
loop $-1 $-1 $456 $187 #
plane-surface $-1 -47.80907620471816 0 0 1 0 0 0 0 -1 forward_v I I I I #
coedge $-1 $457 $311 $458 $459 forward $188 $-1 #
coedge $-1 $460 $190 $457 $461 forward $121 $-1 #
coedge $-1 $190 $460 $462 $463 forward $121 $-1 #
coedge $-1 $314 $313 $190 $307 reversed $315 $-1 #
edge $-1 $464 -25.196974996250475 $465 25.196974996250475 $306 $466 forward 7 unknown #
coedge $-1 $192 $191 $467 $468 forward $76 $-1 #
coedge $-1 $469 $470 $191 $310 reversed $454 $-1 #
edge $-1 $317 -47.80907620471816 $471 47.80907620471816 $309 $472 forward 7 unknown #
coedge $-1 $303 $473 $192 $312 reversed $188 $-1 #
edge $-1 $474 -47.80907620471816 $316 47.80907620471816 $311 $475 forward 7 unknown #
coedge $-1 $306 $193 $473 $476 forward $315 $-1 #
coedge $-1 $193 $306 $469 $477 reversed $315 $-1 #
loop $-1 $-1 $313 $453 #
vertex $-1 $194 $478 #
vertex $-1 $194 $479 #
straight-curve $-1 47.80907620471816 0 10.051183827585387 0 1 0 I I #
face $-1 $480 $331 $46 $-1 $481 reversed single #
loop $-1 $-1 $482 $195 #
plane-surface $-1 -56.489861009707205 -9.9485858728991374 0 1 0 0 0 0 -1 forward_v I I I I #
coedge $-1 $483 $484 $485 $486 forward $196 $-1 #
coedge $-1 $487 $198 $483 $488 forward $125 $-1 #
coedge $-1 $198 $487 $329 $489 forward $125 $-1 #
edge $-1 $332 8.4485858728991374 $490 11.448585872899137 $198 $491 forward 7 unknown #
coedge $-1 $200 $199 $492 $493 forward $79 $-1 #
coedge $-1 $494 $495 $199 $328 forward $496 $-1 #
edge $-1 $497 -11.448585872899137 $333 -8.4485858728991374 $327 $498 forward 7 unknown #
coedge $-1 $499 $201 $324 $489 reversed $331 $-1 #
coedge $-1 $201 $499 $494 $500 reversed $331 $-1 #
loop $-1 $-1 $201 $319 #
vertex $-1 $325 $501 #
vertex $-1 $500 $502 #
straight-curve $-1 -47.80907620471816 -8.4485858728991374 0 0 0 1 I I #
face $-1 $503 $504 $47 $-1 $505 reversed single #
loop $-1 $-1 $506 $203 #
plane-surface $-1 52.149468607212675 -8.4485858728991374 0 0 -1 0 0 0 -1 forward_v I I I I #
coedge $-1 $507 $206 $508 $509 forward $129 $-1 #
coedge $-1 $206 $507 $344 $510 forward $129 $-1 #
edge $-1 $346 -11.448585872899137 $511 -8.4485858728991374 $206 $512 forward 7 unknown #
coedge $-1 $208 $207 $513 $514 forward $82 $-1 #
coedge $-1 $515 $516 $207 $343 forward $517 $-1 #
edge $-1 $518 8.4485858728991374 $347 11.448585872899137 $342 $519 forward 7 unknown #
coedge $-1 $520 $209 $339 $510 reversed $204 $-1 #
coedge $-1 $209 $520 $515 $521 reversed $204 $-1 #
vertex $-1 $340 $522 #
vertex $-1 $521 $523 #
straight-curve $-1 47.80907620471816 -11.448585872899137 0 0 0 1 I I #
face $-1 $-1 $361 $48 $-1 $524 forward single #
loop $-1 $-1 $525 $211 #
plane-surface $-1 0 25.196974996250475 0 0 -1 0 0 0 -1 forward_v I I I I #
coedge $-1 $526 $527 $528 $529 reversed $212 $-1 #
coedge $-1 $530 $214 $216 $359 forward $133 $-1 #
coedge $-1 $214 $530 $526 $531 forward $133 $-1 #
coedge $-1 $528 $217 $214 $356 forward $361 $-1 #
edge $-1 $363 -20.785190403009139 $532 -8.5062365172095671 $355 $533 forward 7 unknown #
coedge $-1 $534 $535 $215 $358 forward $350 $-1 #
edge $-1 $536 -49.943732758641367 $362 -41.43611842460956 $357 $537 forward 7 unknown #
edge $-1 $363 38.945825821330985 $536 50.393949992500936 $216 $538 forward 7 unknown #
coedge $-1 $217 $528 $534 $539 forward $361 $-1 #
loop $-1 $-1 $528 $349 #
vertex $-1 $358 $540 #
vertex $-1 $218 $541 #
straight-curve $-1 -35.430903863118495 31.26748856052393 10.05118382758539 0 -1 0 I I #
coedge $-1 $365 $365 $-1 $542 reversed $221 $-1 #
edge $-1 $543 0 $543 6.2831853071796004 $222 $544 forward 7 unknown #
vertex $-1 $225 $545 #
ellipse-curve $-1 -29.291426920218708 21.366829914732598 5.7973766605694887 0 0.74314483375859142 0.66913059716165679 1.5 0 0 1 I I #
face $-1 $-1 $546 $50 $-1 $547 reversed single #
loop $-1 $-1 $232 $226 #
plane-surface $-1 0 0 10.051183827585387 0 0 1 1 0 0 forward_v I I I I #
coedge $-1 $548 $549 $550 $551 reversed $227 $-1 #
coedge $-1 $552 $229 $231 $379 forward $142 $-1 #
coedge $-1 $229 $552 $548 $553 forward $142 $-1 #
coedge $-1 $550 $232 $229 $376 forward $370 $-1 #
edge $-1 $382 -11.003117553076862 $554 1.2758363327227107 $375 $555 forward 7 unknown #
coedge $-1 $556 $557 $230 $378 forward $546 $-1 #
edge $-1 $558 -49.943732758641367 $381 -41.43611842460956 $377 $559 forward 7 unknown #
edge $-1 $382 38.945825821330985 $558 50.393949992500936 $231 $560 forward 7 unknown #
coedge $-1 $232 $550 $556 $561 forward $370 $-1 #
vertex $-1 $378 $562 #
vertex $-1 $233 $563 #
straight-curve $-1 -15.866758163253937 31.26748856052393 10.05118382758539 0 -1 0 I I #
coedge $-1 $384 $384 $-1 $564 reversed $236 $-1 #
edge $-1 $565 0 $565 6.2831853071796004 $237 $566 forward 7 unknown #
vertex $-1 $240 $567 #
ellipse-curve $-1 -9.7272812203541505 21.366829914732598 5.7973766605694887 0 0.74314483375859142 0.66913059716165679 1.5 0 0 1 I I #
face $-1 $-1 $568 $52 $-1 $569 reversed single #
loop $-1 $-1 $247 $241 #
plane-surface $-1 0 0 10.051183827585387 0 0 1 1 0 0 forward_v I I I I #
coedge $-1 $570 $571 $572 $573 reversed $242 $-1 #
coedge $-1 $574 $244 $246 $398 forward $151 $-1 #
coedge $-1 $244 $574 $570 $575 forward $151 $-1 #
coedge $-1 $572 $247 $244 $395 forward $389 $-1 #
edge $-1 $401 -1.2210447031445844 $576 11.057909182654988 $394 $577 forward 7 unknown #
coedge $-1 $578 $579 $245 $397 forward $568 $-1 #
edge $-1 $580 -49.943732758641367 $400 -41.43611842460956 $396 $581 forward 7 unknown #
edge $-1 $401 38.945825821330985 $580 50.393949992500936 $246 $582 forward 7 unknown #
coedge $-1 $247 $572 $578 $583 forward $389 $-1 #
vertex $-1 $248 $584 #
vertex $-1 $248 $585 #
straight-curve $-1 3.6973875366106173 31.26748856052393 10.05118382758539 0 -1 0 I I #
coedge $-1 $403 $403 $-1 $586 reversed $251 $-1 #
edge $-1 $587 0 $587 6.2831853071796004 $252 $588 forward 7 unknown #
vertex $-1 $255 $589 #
ellipse-curve $-1 9.8368644795104032 21.366829914732598 5.7973766605694887 0 0.74314483375859142 0.66913059716165679 1.5 0 0 1 I I #
face $-1 $-1 $590 $54 $-1 $591 reversed single #
loop $-1 $-1 $262 $256 #
plane-surface $-1 0 0 10.051183827585387 0 0 1 1 0 0 forward_v I I I I #
coedge $-1 $592 $593 $594 $595 reversed $257 $-1 #
coedge $-1 $596 $259 $261 $417 forward $160 $-1 #
coedge $-1 $259 $596 $592 $597 forward $160 $-1 #
coedge $-1 $594 $262 $259 $414 forward $408 $-1 #
edge $-1 $420 8.5610281467876916 $598 20.839982032587262 $413 $599 forward 7 unknown #
coedge $-1 $600 $601 $260 $416 forward $590 $-1 #
edge $-1 $602 -49.943732758641367 $419 -41.43611842460956 $415 $603 forward 7 unknown #
edge $-1 $420 38.945825821330985 $602 50.393949992500936 $261 $604 forward 7 unknown #
coedge $-1 $262 $594 $600 $605 forward $408 $-1 #
vertex $-1 $263 $606 #
vertex $-1 $263 $607 #
straight-curve $-1 23.26153323647517 31.26748856052393 10.05118382758539 0 -1 0 I I #
coedge $-1 $422 $422 $-1 $608 reversed $266 $-1 #
edge $-1 $609 0 $609 6.2831853071796004 $267 $610 forward 7 unknown #
vertex $-1 $270 $611 #
ellipse-curve $-1 29.401010179374957 21.366829914732598 5.7973766605694887 0 0.74314483375859142 0.66913059716165679 1.5 0 0 1 I I #
face $-1 $-1 $612 $56 $-1 $613 reversed single #
loop $-1 $-1 $277 $271 #
plane-surface $-1 0 0 10.051183827585387 0 0 1 1 0 0 forward_v I I I I #
coedge $-1 $614 $615 $616 $617 reversed $272 $-1 #
coedge $-1 $618 $274 $276 $436 forward $169 $-1 #
coedge $-1 $274 $618 $614 $619 forward $169 $-1 #
coedge $-1 $616 $277 $274 $433 forward $427 $-1 #
edge $-1 $439 1.8059369606230327 $620 18.613417091583674 $432 $621 forward 7 unknown #
coedge $-1 $622 $623 $275 $435 forward $612 $-1 #
edge $-1 $624 -33.145066878707034 $438 -27.861883785635317 $434 $625 forward 7 unknown #
edge $-1 $439 -7.8955931462775375 $624 -9.4405131238556439e-015 $276 $626 forward 7 unknown #
coedge $-1 $277 $616 $622 $627 forward $427 $-1 #
vertex $-1 $278 $628 #
vertex $-1 $278 $629 #
straight-curve $-1 -12.015613986726386 -44.589004033191145 10.05118382758539 0 1 0 I I #
coedge $-1 $441 $441 $-1 $630 reversed $281 $-1 #
edge $-1 $631 0 $631 6.2831853071796004 $282 $632 forward 7 unknown #
vertex $-1 $285 $633 #
ellipse-curve $-1 -25.461598091494899 -22.263190429490933 7.4095922810495276 0 -0.66913061440640931 0.74314481823134659 1 0 0 1 I I #
coedge $-1 $445 $445 $-1 $634 reversed $288 $-1 #
edge $-1 $635 0 $635 6.2831853071796004 $289 $636 forward 7 unknown #
vertex $-1 $292 $637 #
ellipse-curve $-1 -20.419354052206707 -22.263190429490933 7.4095922810495276 0 -0.66913061440640931 0.74314481823134659 1 0 0 1 I I #
coedge $-1 $449 $449 $-1 $638 reversed $295 $-1 #
edge $-1 $639 0 $639 6.2831853071796004 $296 $640 forward 7 unknown #
vertex $-1 $299 $641 #
ellipse-curve $-1 -15.377110012918514 -22.263190429490933 7.4095922810495276 0 -0.66913061440640931 0.74314481823134659 1 0 0 1 I I #
face $-1 $-1 $315 $45 $-1 $642 reversed single #
loop $-1 $-1 $469 $300 #
plane-surface $-1 0 25.196974996250475 0 0 -1 0 0 0 -1 forward_v I I I I #
coedge $-1 $643 $467 $470 $644 forward $301 $-1 #
coedge $-1 $473 $303 $304 $461 reversed $188 $-1 #
coedge $-1 $467 $643 $303 $459 reversed $301 $-1 #
edge $-1 $474 -10.051183827585387 $645 10.051183827585387 $458 $646 forward 7 unknown #
coedge $-1 $305 $304 $643 $647 forward $121 $-1 #
edge $-1 $465 -47.80907620471816 $645 47.80907620471816 $457 $648 forward 7 unknown #
coedge $-1 $470 $469 $305 $463 reversed $454 $-1 #
edge $-1 $649 -47.80907620471816 $464 47.80907620471816 $462 $650 forward 7 unknown #
vertex $-1 $307 $651 #
vertex $-1 $476 $652 #
straight-curve $-1 47.80907620471816 0 -10.051183827585387 0 -1 0 I I #
coedge $-1 $456 $458 $308 $468 reversed $301 $-1 #
edge $-1 $471 -25.196974996250475 $474 25.196974996250475 $467 $653 forward 7 unknown #
coedge $-1 $462 $309 $314 $477 forward $454 $-1 #
coedge $-1 $309 $462 $456 $644 reversed $454 $-1 #
vertex $-1 $310 $654 #
straight-curve $-1 0 25.196974996250475 10.051183827585387 -1 0 0 I I #
coedge $-1 $311 $457 $313 $476 reversed $188 $-1 #
vertex $-1 $468 $655 #
straight-curve $-1 0 -25.196974996250475 10.051183827585387 1 0 0 I I #
edge $-1 $316 -10.051183827585387 $465 10.051183827585387 $313 $656 forward 7 unknown #
edge $-1 $317 -10.051183827585387 $464 10.051183827585387 $314 $657 forward 7 unknown #
point $-1 47.80907620471816 -25.196974996250475 10.051183827585387 #
point $-1 47.80907620471816 25.196974996250475 10.051183827585387 #
face $-1 $-1 $496 $46 $-1 $658 forward single #
plane-surface $-1 -52.149468607212683 -8.4485858728991374 0 0 -1 0 0 0 -1 forward_v I I I I #
coedge $-1 $659 $660 $499 $661 forward $320 $-1 #
coedge $-1 $492 $322 $323 $488 reversed $196 $-1 #
coedge $-1 $322 $492 $495 $662 reversed $196 $-1 #
coedge $-1 $660 $659 $322 $486 reversed $320 $-1 #
edge $-1 $663 -10.051183827585387 $664 10.051183827585387 $485 $665 forward 7 unknown #
coedge $-1 $324 $323 $659 $666 forward $125 $-1 #
edge $-1 $490 -4.3403924024945226 $664 4.3403924024945226 $483 $667 forward 7 unknown #
edge $-1 $668 -4.3403924024945226 $332 4.3403924024945226 $329 $669 forward 7 unknown #
vertex $-1 $488 $670 #
straight-curve $-1 -47.80907620471816 0 -10.051183827585387 0 -1 0 I I #
coedge $-1 $484 $483 $326 $493 reversed $196 $-1 #
edge $-1 $497 -10.051183827585387 $490 10.051183827585387 $492 $671 forward 7 unknown #
coedge $-1 $672 $327 $330 $500 forward $496 $-1 #
coedge $-1 $327 $672 $484 $662 forward $496 $-1 #
loop $-1 $-1 $327 $480 #
vertex $-1 $328 $673 #
straight-curve $-1 -47.80907620471816 0 10.051183827585387 0 1 0 I I #
coedge $-1 $330 $329 $482 $661 reversed $331 $-1 #
edge $-1 $333 -4.3403924024945226 $674 4.3403924024945226 $330 $675 forward 7 unknown #
point $-1 -47.80907620471816 -8.4485858728991374 -10.051183827585387 #
point $-1 -47.80907620471816 -8.4485858728991374 10.051183827585387 #
face $-1 $-1 $517 $47 $-1 $676 forward single #
loop $-1 $-1 $677 $335 #
plane-surface $-1 56.489861009707198 -9.9485858728991374 0 -1 0 0 0 0 1 forward_v I I I I #
coedge $-1 $508 $678 $679 $680 forward $336 $-1 #
coedge $-1 $339 $338 $681 $682 forward $129 $-1 #
coedge $-1 $513 $506 $338 $509 reversed $336 $-1 #
edge $-1 $511 -4.3403924024945226 $683 4.3403924024945226 $508 $684 forward 7 unknown #
edge $-1 $685 -4.3403924024945226 $346 4.3403924024945226 $344 $686 forward 7 unknown #
vertex $-1 $509 $687 #
straight-curve $-1 47.80907620471816 0 -10.051183827585387 0 1 0 I I #
coedge $-1 $678 $508 $341 $514 reversed $336 $-1 #
edge $-1 $518 -10.051183827585387 $511 10.051183827585387 $513 $688 forward 7 unknown #
coedge $-1 $689 $342 $345 $521 forward $517 $-1 #
coedge $-1 $342 $689 $678 $690 forward $517 $-1 #
loop $-1 $-1 $342 $503 #
vertex $-1 $343 $691 #
straight-curve $-1 47.80907620471816 0 10.051183827585387 0 -1 0 I I #
coedge $-1 $345 $344 $677 $692 reversed $204 $-1 #
edge $-1 $347 -4.3403924024945226 $693 4.3403924024945226 $345 $694 forward 7 unknown #
point $-1 47.809076204718153 -11.448585872899137 -10.051183827585387 #
point $-1 47.809076204718153 -11.448585872899137 10.051183827585387 #
plane-surface $-1 0 0 10.051183827585387 0 0 1 1 0 0 forward_v I I I I #
coedge $-1 $535 $534 $527 $695 forward $350 $-1 #
coedge $-1 $527 $352 $354 $531 reversed $212 $-1 #
coedge $-1 $352 $526 $525 $695 reversed $212 $-1 #
coedge $-1 $360 $355 $352 $529 forward $361 $-1 #
edge $-1 $532 -13.730803727309201 $696 -6.0705135642734547 $528 $697 forward 7 unknown #
coedge $-1 $354 $353 $535 $698 reversed $133 $-1 #
edge $-1 $699 -50.393949992500936 $532 -38.945825821330985 $526 $700 forward 7 unknown #
vertex $-1 $356 $701 #
straight-curve $-1 -14.645713460109354 17.536684833214732 10.051183827585387 1 0 0 I I #
coedge $-1 $525 $357 $360 $539 reversed $350 $-1 #
coedge $-1 $357 $525 $530 $698 forward $350 $-1 #
vertex $-1 $358 $702 #
straight-curve $-1 -35.430903863118495 25.196974996250475 51.487302252194951 0 0 1 I I #
straight-curve $-1 -35.430903863118495 -8.5231588555663507 38.993573083169466 0 0.66913059716165679 -0.74314483375859142 I I #
edge $-1 $696 23.151949977318921 $362 35.430903863118495 $534 $703 forward 7 unknown #
point $-1 -35.430903863118495 25.196974996250475 10.051183827585387 #
point $-1 -35.430903863118495 17.536684833214728 10.05118382758539 #
edge $-1 $704 1 $704 0 $365 $-1 forward 7 unknown #
vertex $-1 $366 $705 #
ellipse-curve $-1 -29.291426920218708 17.68840246761437 2.4853057929603732 0 0.74314483375859142 0.66913059716165679 1.5 0 0 1 I I #
point $-1 -27.791426920218708 21.366829914732595 5.7973766605694834 #
loop $-1 $-1 $377 $369 #
plane-surface $-1 0 25.196974996250475 0 0 -1 0 0 0 -1 forward_v I I I I #
coedge $-1 $549 $372 $374 $553 reversed $227 $-1 #
coedge $-1 $372 $548 $706 $707 reversed $227 $-1 #
coedge $-1 $380 $375 $372 $551 forward $370 $-1 #
edge $-1 $554 -13.730803727309201 $708 -6.0705135642734547 $550 $709 forward 7 unknown #
coedge $-1 $374 $373 $557 $710 reversed $142 $-1 #
edge $-1 $711 -50.393949992500936 $554 -38.945825821330985 $548 $712 forward 7 unknown #
vertex $-1 $376 $713 #
straight-curve $-1 -4.8636406101770753 17.536684833214732 10.051183827585387 1 0 0 I I #
coedge $-1 $706 $377 $380 $561 reversed $546 $-1 #
coedge $-1 $377 $706 $552 $710 forward $546 $-1 #
vertex $-1 $378 $714 #
straight-curve $-1 -15.866758163253937 25.196974996250475 51.487302252194951 0 0 1 I I #
straight-curve $-1 -15.866758163253937 -8.5231588555663507 38.993573083169466 0 0.66913059716165679 -0.74314483375859142 I I #
edge $-1 $708 3.5878042774543646 $381 15.866758163253937 $556 $715 forward 7 unknown #
point $-1 -15.866758163253937 25.196974996250475 10.051183827585387 #
point $-1 -15.866758163253937 17.536684833214728 10.05118382758539 #
edge $-1 $716 1 $716 0 $384 $-1 forward 7 unknown #
vertex $-1 $385 $717 #
ellipse-curve $-1 -9.7272812203541505 17.68840246761437 2.4853057929603732 0 0.74314483375859142 0.66913059716165679 1.5 0 0 1 I I #
point $-1 -8.2272812203541505 21.366829914732595 5.7973766605694834 #
loop $-1 $-1 $396 $388 #
plane-surface $-1 0 25.196974996250475 0 0 -1 0 0 0 -1 forward_v I I I I #
coedge $-1 $571 $391 $393 $575 reversed $242 $-1 #
coedge $-1 $391 $570 $718 $719 reversed $242 $-1 #
coedge $-1 $399 $394 $391 $573 forward $389 $-1 #
edge $-1 $576 -13.730803727309201 $720 -6.0705135642734547 $572 $721 forward 7 unknown #
coedge $-1 $393 $392 $579 $722 reversed $151 $-1 #
edge $-1 $723 -50.393949992500936 $576 -38.945825821330985 $570 $724 forward 7 unknown #
vertex $-1 $395 $725 #
straight-curve $-1 4.9184322397552016 17.536684833214732 10.051183827585387 1 0 0 I I #
coedge $-1 $718 $396 $399 $583 reversed $568 $-1 #
coedge $-1 $396 $718 $574 $722 forward $568 $-1 #
vertex $-1 $397 $726 #
straight-curve $-1 3.6973875366106173 25.196974996250475 51.487302252194951 0 0 1 I I #
straight-curve $-1 3.6973875366106173 -8.5231588555663507 38.993573083169466 0 0.66913059716165679 -0.74314483375859142 I I #
edge $-1 $720 -15.97634142241019 $400 -3.6973875366106173 $578 $727 forward 7 unknown #
point $-1 3.6973875366106173 25.196974996250475 10.051183827585387 #
point $-1 3.6973875366106173 17.536684833214728 10.05118382758539 #
edge $-1 $728 1 $728 0 $403 $-1 forward 7 unknown #
vertex $-1 $404 $729 #
ellipse-curve $-1 9.8368644795104032 17.68840246761437 2.4853057929603732 0 0.74314483375859142 0.66913059716165679 1.5 0 0 1 I I #
point $-1 11.336864479510403 21.366829914732595 5.7973766605694834 #
loop $-1 $-1 $415 $407 #
plane-surface $-1 0 25.196974996250475 0 0 -1 0 0 0 -1 forward_v I I I I #
coedge $-1 $593 $410 $412 $597 reversed $257 $-1 #
coedge $-1 $410 $592 $730 $731 reversed $257 $-1 #
coedge $-1 $418 $413 $410 $595 forward $408 $-1 #
edge $-1 $598 -13.730803727309201 $732 -6.0705135642734547 $594 $733 forward 7 unknown #
coedge $-1 $412 $411 $601 $734 reversed $160 $-1 #
edge $-1 $735 -50.393949992500936 $598 -38.945825821330985 $592 $736 forward 7 unknown #
vertex $-1 $414 $737 #
straight-curve $-1 14.700505089687478 17.536684833214732 10.051183827585387 1 0 0 I I #
coedge $-1 $730 $415 $418 $605 reversed $590 $-1 #
coedge $-1 $415 $730 $596 $734 forward $590 $-1 #
vertex $-1 $416 $738 #
straight-curve $-1 23.26153323647517 25.196974996250475 51.487302252194951 0 0 1 I I #
straight-curve $-1 23.26153323647517 -8.5231588555663507 38.993573083169466 0 0.66913059716165679 -0.74314483375859142 I I #
edge $-1 $732 -35.54048712227474 $419 -23.26153323647517 $600 $739 forward 7 unknown #
point $-1 23.26153323647517 25.196974996250475 10.051183827585387 #
point $-1 23.26153323647517 17.536684833214728 10.05118382758539 #
edge $-1 $740 1 $740 0 $422 $-1 forward 7 unknown #
vertex $-1 $423 $741 #
ellipse-curve $-1 29.401010179374957 17.68840246761437 2.4853057929603732 0 0.74314483375859142 0.66913059716165679 1.5 0 0 1 I I #
point $-1 30.901010179374957 21.366829914732595 5.7973766605694834 #
loop $-1 $-1 $434 $426 #
plane-surface $-1 0 -25.196974996250475 0 0 1 0 0 0 1 forward_v I I I I #
coedge $-1 $615 $429 $431 $619 reversed $272 $-1 #
coedge $-1 $429 $614 $742 $743 reversed $272 $-1 #
coedge $-1 $437 $432 $429 $617 forward $427 $-1 #
edge $-1 $620 -25.25959817045975 $744 -19.39202903694067 $616 $745 forward 7 unknown #
coedge $-1 $431 $430 $623 $746 reversed $169 $-1 #
edge $-1 $747 9.4405131238556439e-015 $620 7.8955931462775375 $614 $748 forward 7 unknown #
vertex $-1 $433 $749 #
straight-curve $-1 -10.209677026103353 -19.329405862731395 10.051183827585387 -1 0 0 I I #
coedge $-1 $742 $434 $437 $627 reversed $612 $-1 #
coedge $-1 $434 $742 $618 $746 forward $612 $-1 #
vertex $-1 $435 $750 #
straight-curve $-1 -12.015613986726386 -25.196974996250475 37.913067613220704 0 0 1 I I #
straight-curve $-1 -12.015613986726386 -25.196974996250482 4.768000734513663 0 -0.74314481823134659 -0.66913061440640931 I I #
edge $-1 $744 -28.823094117687027 $438 -12.015613986726386 $622 $751 forward 7 unknown #
point $-1 -12.015613986726386 -25.196974996250475 10.051183827585387 #
point $-1 -12.015613986726386 -19.329405862731395 10.051183827585387 #
edge $-1 $752 1 $752 0 $441 $-1 forward 7 unknown #
vertex $-1 $442 $753 #
ellipse-curve $-1 -25.461598091494899 -20.306993704845787 5.2370157645038073 0 -0.66913061440640931 0.74314481823134659 1 0 0 1 I I #
point $-1 -24.461598091494899 -22.263190429490933 7.4095922810495267 #
edge $-1 $754 1 $754 0 $445 $-1 forward 7 unknown #
vertex $-1 $446 $755 #
ellipse-curve $-1 -20.419354052206707 -20.306993704845787 5.2370157645038073 0 -0.66913061440640931 0.74314481823134659 1 0 0 1 I I #
point $-1 -19.419354052206707 -22.263190429490933 7.4095922810495267 #
edge $-1 $756 1 $756 0 $449 $-1 forward 7 unknown #
vertex $-1 $450 $757 #
ellipse-curve $-1 -15.377110012918514 -20.306993704845787 5.2370157645038073 0 -0.66913061440640931 0.74314481823134659 1 0 0 1 I I #
point $-1 -14.377110012918514 -22.263190429490933 7.4095922810495267 #
plane-surface $-1 47.80907620471816 0 0 -1 0 0 0 0 1 forward_v I I I I #
coedge $-1 $458 $456 $460 $647 reversed $301 $-1 #
edge $-1 $471 -10.051183827585387 $649 10.051183827585387 $470 $758 forward 7 unknown #
vertex $-1 $647 $759 #
straight-curve $-1 -47.80907620471816 -25.196974996250475 0 0 0 -1 I I #
edge $-1 $645 -25.196974996250475 $649 25.196974996250475 $643 $760 forward 7 unknown #
straight-curve $-1 0 -25.196974996250475 -10.051183827585387 -1 0 0 I I #
vertex $-1 $463 $761 #
straight-curve $-1 0 25.196974996250475 -10.051183827585387 1 0 0 I I #
point $-1 47.80907620471816 25.196974996250475 -10.051183827585387 #
point $-1 47.80907620471816 -25.196974996250475 -10.051183827585387 #
straight-curve $-1 -47.80907620471816 0 10.051183827585387 0 -1 0 I I #
point $-1 -47.80907620471816 25.196974996250475 10.051183827585387 #
point $-1 -47.80907620471816 -25.196974996250475 10.051183827585387 #
straight-curve $-1 47.80907620471816 -25.196974996250475 0 0 0 -1 I I #
straight-curve $-1 47.80907620471816 25.196974996250475 0 0 0 -1 I I #
plane-surface $-1 0 0 10.051183827585387 0 0 1 1 0 0 forward_v I I I I #
coedge $-1 $485 $482 $487 $666 reversed $320 $-1 #
coedge $-1 $482 $485 $672 $762 reversed $320 $-1 #
edge $-1 $674 -10.051183827585387 $668 10.051183827585387 $499 $763 forward 7 unknown #
edge $-1 $663 -4.3403924024945226 $497 4.3403924024945226 $484 $764 forward 7 unknown #
vertex $-1 $762 $765 #
vertex $-1 $666 $766 #
straight-curve $-1 -56.489861009707205 -11.448585872899137 0 0 0 -1 I I #
edge $-1 $664 -1.5 $668 1.5 $659 $767 forward 7 unknown #
straight-curve $-1 -52.149468607212683 -11.448585872899137 -10.051183827585387 -1 0 0 I I #
vertex $-1 $489 $768 #
straight-curve $-1 -52.149468607212683 -8.4485858728991374 -10.051183827585387 1 0 0 I I #
point $-1 -47.80907620471816 -11.448585872899137 -10.051183827585387 #
straight-curve $-1 -47.80907620471816 -11.448585872899137 0 0 0 -1 I I #
coedge $-1 $495 $494 $660 $762 forward $496 $-1 #
point $-1 -47.80907620471816 -11.448585872899137 10.051183827585387 #
vertex $-1 $500 $769 #
straight-curve $-1 -52.149468607212683 -8.4485858728991374 10.051183827585387 -1 0 0 I I #
plane-surface $-1 0 0 10.051183827585387 0 0 1 1 0 0 forward_v I I I I #
coedge $-1 $681 $770 $520 $692 forward $504 $-1 #
coedge $-1 $506 $513 $516 $690 reversed $336 $-1 #
coedge $-1 $770 $681 $506 $680 reversed $504 $-1 #
edge $-1 $771 -10.051183827585387 $683 10.051183827585387 $679 $772 forward 7 unknown #
coedge $-1 $679 $677 $507 $682 reversed $504 $-1 #
edge $-1 $683 -1.5 $685 1.5 $681 $773 forward 7 unknown #
vertex $-1 $682 $774 #
straight-curve $-1 52.149468607212675 -8.4485858728991374 -10.051183827585387 1 0 0 I I #
vertex $-1 $692 $775 #
straight-curve $-1 52.149468607212675 -11.448585872899137 -10.051183827585387 -1 0 0 I I #
point $-1 47.809076204718153 -8.4485858728991374 -10.051183827585387 #
straight-curve $-1 47.80907620471816 -8.4485858728991374 0 0 0 -1 I I #
coedge $-1 $516 $515 $770 $776 forward $517 $-1 #
edge $-1 $771 -4.3403924024945226 $518 4.3403924024945226 $678 $777 forward 7 unknown #
point $-1 47.809076204718153 -8.4485858728991374 10.051183827585387 #
edge $-1 $693 -10.051183827585387 $685 10.051183827585387 $677 $778 forward 7 unknown #
vertex $-1 $776 $779 #
straight-curve $-1 52.149468607212675 -11.448585872899137 10.051183827585387 1 0 0 I I #
edge $-1 $696 41.43611842460956 $699 49.943732758641367 $525 $780 forward 7 unknown #
vertex $-1 $539 $781 #
straight-curve $-1 -23.151949977318921 31.26748856052393 10.05118382758539 0 1 0 I I #
edge $-1 $699 8.5062365172095671 $536 20.785190403009139 $535 $782 forward 7 unknown #
vertex $-1 $698 $783 #
straight-curve $-1 -23.151949977318921 -8.5231588555663507 38.993573083169466 0 -0.66913059716165679 0.74314483375859142 I I #
point $-1 -23.151949977318921 17.536684833214728 10.05118382758539 #
point $-1 -35.430903863118495 25.196974996250475 1.5435694935535835 #
straight-curve $-1 0 25.196974996250475 10.051183827585387 -1 0 0 I I #
vertex $-1 $542 $784 #
point $-1 -27.791426920218708 17.68840246761437 2.4853057929603732 #
coedge $-1 $557 $556 $549 $707 forward $546 $-1 #
edge $-1 $708 41.43611842460956 $711 49.943732758641367 $706 $785 forward 7 unknown #
vertex $-1 $561 $786 #
straight-curve $-1 -3.5878042774543646 31.26748856052393 10.05118382758539 0 1 0 I I #
edge $-1 $711 -1.2758363327227107 $558 11.003117553076862 $557 $787 forward 7 unknown #
vertex $-1 $710 $788 #
straight-curve $-1 -3.5878042774543646 -8.5231588555663507 38.993573083169466 0 -0.66913059716165679 0.74314483375859142 I I #
point $-1 -3.5878042774543646 17.536684833214728 10.05118382758539 #
point $-1 -15.866758163253937 25.196974996250475 1.5435694935535835 #
straight-curve $-1 0 25.196974996250475 10.051183827585387 -1 0 0 I I #
vertex $-1 $564 $789 #
point $-1 -8.2272812203541505 17.68840246761437 2.4853057929603732 #
coedge $-1 $579 $578 $571 $719 forward $568 $-1 #
edge $-1 $720 41.43611842460956 $723 49.943732758641367 $718 $790 forward 7 unknown #
vertex $-1 $583 $791 #
straight-curve $-1 15.97634142241019 31.26748856052393 10.05118382758539 0 1 0 I I #
edge $-1 $723 -11.057909182654988 $580 1.2210447031445844 $579 $792 forward 7 unknown #
vertex $-1 $722 $793 #
straight-curve $-1 15.97634142241019 -8.5231588555663507 38.993573083169466 0 -0.66913059716165679 0.74314483375859142 I I #
point $-1 15.97634142241019 17.536684833214728 10.05118382758539 #
point $-1 3.6973875366106173 25.196974996250475 1.5435694935535835 #
straight-curve $-1 0 25.196974996250475 10.051183827585387 -1 0 0 I I #
vertex $-1 $586 $794 #
point $-1 11.336864479510403 17.68840246761437 2.4853057929603732 #
coedge $-1 $601 $600 $593 $731 forward $590 $-1 #
edge $-1 $732 41.43611842460956 $735 49.943732758641367 $730 $795 forward 7 unknown #
vertex $-1 $605 $796 #
straight-curve $-1 35.54048712227474 31.26748856052393 10.05118382758539 0 1 0 I I #
edge $-1 $735 -20.839982032587262 $602 -8.5610281467876916 $601 $797 forward 7 unknown #
vertex $-1 $734 $798 #
straight-curve $-1 35.54048712227474 -8.5231588555663507 38.993573083169466 0 -0.66913059716165679 0.74314483375859142 I I #
point $-1 35.54048712227474 17.536684833214728 10.05118382758539 #
point $-1 23.26153323647517 25.196974996250475 1.5435694935535835 #
straight-curve $-1 0 25.196974996250475 10.051183827585387 -1 0 0 I I #
vertex $-1 $608 $799 #
point $-1 30.901010179374957 17.68840246761437 2.4853057929603732 #
coedge $-1 $623 $622 $615 $743 forward $612 $-1 #
edge $-1 $744 27.861883785635317 $747 33.145066878707034 $742 $800 forward 7 unknown #
vertex $-1 $627 $801 #
straight-curve $-1 -28.823094117687027 -44.589004033191145 10.05118382758539 0 -1 0 I I #
edge $-1 $747 -18.613417091583674 $624 -1.8059369606230327 $623 $802 forward 7 unknown #
vertex $-1 $746 $803 #
straight-curve $-1 -28.823094117687027 -25.196974996250482 4.768000734513663 0 0.74314481823134659 0.66913061440640931 I I #
point $-1 -28.823094117687027 -19.329405862731395 10.051183827585387 #
point $-1 -12.015613986726386 -25.196974996250475 4.7680007345136692 #
straight-curve $-1 0 -25.196974996250475 10.051183827585387 1 0 0 I I #
vertex $-1 $630 $804 #
point $-1 -24.461598091494899 -20.306993704845787 5.2370157645038073 #
vertex $-1 $634 $805 #
point $-1 -19.419354052206707 -20.306993704845787 5.2370157645038073 #
vertex $-1 $638 $806 #
point $-1 -14.377110012918514 -20.306993704845787 5.2370157645038073 #
straight-curve $-1 -47.80907620471816 25.196974996250475 0 0 0 -1 I I #
point $-1 -47.80907620471816 -25.196974996250475 -10.051183827585387 #
straight-curve $-1 -47.80907620471816 0 -10.051183827585387 0 1 0 I I #
point $-1 -47.80907620471816 25.196974996250475 -10.051183827585387 #
edge $-1 $674 -1.5 $663 1.5 $660 $807 forward 7 unknown #
straight-curve $-1 -56.489861009707205 -8.4485858728991374 0 0 0 -1 I I #
straight-curve $-1 -52.149468607212683 -11.448585872899137 10.051183827585387 1 0 0 I I #
point $-1 -56.489861009707205 -11.448585872899137 10.051183827585387 #
point $-1 -56.489861009707205 -11.448585872899137 -10.051183827585387 #
straight-curve $-1 -56.489861009707205 -9.9485858728991374 -10.051183827585387 0 1 0 I I #
point $-1 -56.489861009707205 -8.4485858728991374 -10.051183827585387 #
point $-1 -56.489861009707205 -8.4485858728991374 10.051183827585387 #
coedge $-1 $677 $679 $689 $776 reversed $504 $-1 #
vertex $-1 $776 $808 #
straight-curve $-1 56.489861009707198 -8.4485858728991374 0 0 0 -1 I I #
straight-curve $-1 56.489861009707198 -9.9485858728991374 -10.051183827585387 0 -1 0 I I #
point $-1 56.489861009707198 -8.4485858728991374 -10.051183827585387 #
point $-1 56.489861009707198 -11.448585872899137 -10.051183827585387 #
edge $-1 $693 -1.5 $771 1.5 $770 $809 forward 7 unknown #
straight-curve $-1 52.149468607212675 -8.4485858728991374 10.051183827585387 -1 0 0 I I #
straight-curve $-1 56.489861009707198 -11.448585872899137 0 0 0 -1 I I #
point $-1 56.489861009707198 -11.448585872899137 10.051183827585387 #
straight-curve $-1 -23.151949977318921 25.196974996250475 51.487302252194951 0 0 -1 I I #
point $-1 -23.151949977318921 25.196974996250475 10.051183827585387 #
straight-curve $-1 -14.645713460109354 25.196974996250475 1.54356949355358 -1 0 0 I I #
point $-1 -23.151949977318921 25.196974996250475 1.5435694935535835 #
point $-1 -29.291426920218708 16.573685216976482 1.4816098972178882 #
straight-curve $-1 -3.5878042774543646 25.196974996250475 51.487302252194951 0 0 -1 I I #
point $-1 -3.5878042774543646 25.196974996250475 10.051183827585387 #
straight-curve $-1 -4.8636406101770753 25.196974996250475 1.54356949355358 -1 0 0 I I #
point $-1 -3.5878042774543646 25.196974996250475 1.5435694935535835 #
point $-1 -9.7272812203541505 16.573685216976482 1.4816098972178882 #
straight-curve $-1 15.97634142241019 25.196974996250475 51.487302252194951 0 0 -1 I I #
point $-1 15.97634142241019 25.196974996250475 10.051183827585387 #
straight-curve $-1 4.9184322397552016 25.196974996250475 1.54356949355358 -1 0 0 I I #
point $-1 15.97634142241019 25.196974996250475 1.5435694935535835 #
point $-1 9.8368644795104032 16.573685216976482 1.4816098972178882 #
straight-curve $-1 35.54048712227474 25.196974996250475 51.487302252194951 0 0 -1 I I #
point $-1 35.54048712227474 25.196974996250475 10.051183827585387 #
straight-curve $-1 14.700505089687478 25.196974996250475 1.54356949355358 -1 0 0 I I #
point $-1 35.54048712227474 25.196974996250475 1.5435694935535835 #
point $-1 29.401010179374957 16.573685216976482 1.4816098972178882 #
straight-curve $-1 -28.823094117687027 -25.196974996250475 37.913067613220704 0 0 -1 I I #
point $-1 -28.823094117687027 -25.196974996250475 10.051183827585387 #
straight-curve $-1 -10.209677026103353 -25.196974996250475 4.7680007345136701 1 0 0 I I #
point $-1 -28.823094117687027 -25.196974996250475 4.7680007345136692 #
point $-1 -25.461598091494899 -19.637863090439375 4.4938709462724606 #
point $-1 -20.419354052206707 -19.637863090439375 4.4938709462724606 #
point $-1 -15.377110012918514 -19.637863090439375 4.4938709462724606 #
straight-curve $-1 -56.489861009707205 -9.9485858728991374 10.051183827585387 0 -1 0 I I #
point $-1 56.489861009707198 -8.4485858728991374 10.051183827585387 #
straight-curve $-1 56.489861009707198 -9.9485858728991374 10.051183827585387 0 1 0 I I #
End-of-ACIS-data 