500 0 10 0           
7 Unknown 11 ACIS 5.0 NT 24 Fri Mar 26 17:57:58 1999 
-1 9.9999999999999995e-007 1e-010 
body $-1 $10 $-1 $11 #
body $-1 $12 $-1 $13 #
body $-1 $14 $-1 $15 #
body $-1 $16 $-1 $17 #
body $-1 $18 $-1 $19 #
body $-1 $20 $-1 $21 #
body $-1 $22 $-1 $23 #
body $-1 $24 $-1 $25 #
body $-1 $26 $-1 $27 #
body $-1 $28 $-1 $29 #
lump $-1 $-1 $30 $0 #
transform $-1 1 0 0 0 1 0 0 0 1 55.620593890194399 35.642705903138364 15.236503498228085 1 rotate no_reflect no_shear #
lump $-1 $-1 $31 $1 #
transform $-1 1 0 0 0 1 0 0 0 1 55.620593890194399 35.642705903138364 15.236503498228085 1 rotate no_reflect no_shear #
lump $-1 $-1 $32 $2 #
transform $-1 1 0 0 0 1 0 0 0 1 55.620593890194399 35.642705903138364 15.236503498228085 1 rotate no_reflect no_shear #
lump $-1 $-1 $33 $3 #
transform $-1 1 0 0 0 1 0 0 0 1 55.620593890194399 35.642705903138364 15.236503498228085 1 rotate no_reflect no_shear #
lump $-1 $-1 $34 $4 #
transform $-1 1 0 0 0 1 0 0 0 1 55.620593890194399 35.642705903138364 15.236503498228085 1 rotate no_reflect no_shear #
lump $-1 $-1 $35 $5 #
transform $-1 1 0 0 0 1 0 0 0 1 55.620593890194399 35.642705903138364 15.236503498228085 1 rotate no_reflect no_shear #
lump $-1 $-1 $36 $6 #
transform $-1 1 0 0 0 1 0 0 0 1 55.620593890194399 35.642705903138364 15.236503498228085 1 rotate no_reflect no_shear #
lump $-1 $-1 $37 $7 #
transform $-1 1 0 0 0 1 0 0 0 1 55.620593890194399 35.642705903138364 15.236503498228085 1 rotate no_reflect no_shear #
lump $-1 $-1 $38 $8 #
transform $-1 1 0 0 0 1 0 0 0 1 55.620593890194399 35.642705903138364 15.236503498228085 1 rotate no_reflect no_shear #
lump $-1 $-1 $39 $9 #
transform $-1 1 0 0 0 1 0 0 0 1 55.620593890194399 35.642705903138364 15.236503498228085 1 rotate no_reflect no_shear #
shell $-1 $-1 $-1 $40 $-1 $10 #
shell $-1 $-1 $-1 $41 $-1 $12 #
shell $-1 $-1 $-1 $42 $-1 $14 #
shell $-1 $-1 $-1 $43 $-1 $16 #
shell $-1 $-1 $-1 $44 $-1 $18 #
shell $-1 $-1 $-1 $45 $-1 $20 #
shell $-1 $-1 $-1 $46 $-1 $22 #
shell $-1 $-1 $-1 $47 $-1 $24 #
shell $-1 $-1 $-1 $48 $-1 $26 #
shell $-1 $-1 $-1 $49 $-1 $28 #
face $-1 $50 $51 $30 $-1 $52 forward single #
face $-1 $53 $54 $31 $-1 $55 reversed single #
face $-1 $56 $57 $32 $-1 $58 reversed single #
face $-1 $59 $60 $33 $-1 $61 forward single #
face $-1 $62 $63 $34 $-1 $64 reversed single #
face $-1 $65 $66 $35 $-1 $67 forward single #
face $-1 $68 $69 $36 $-1 $70 reversed single #
face $-1 $71 $72 $37 $-1 $73 forward single #
face $-1 $74 $75 $38 $-1 $76 reversed single #
face $-1 $77 $78 $39 $-1 $79 forward single #
face $-1 $80 $81 $30 $-1 $82 reversed single #
loop $-1 $-1 $83 $40 #
plane-surface $-1 0 0 15.236503498228085 0 0 1 1 0 0 forward_v I I I I #
face $-1 $84 $85 $31 $-1 $86 reversed single #
loop $-1 $-1 $87 $41 #
plane-surface $-1 -51.756807809142529 -21.062338780721603 0 0 -1 0 0 0 -1 forward_v I I I I #
face $-1 $88 $89 $32 $-1 $90 reversed single #
loop $-1 $-1 $91 $42 #
plane-surface $-1 -145.61660618935599 -15.081220440263804 71.232129191662622 0 1 0 -0.80901700255871778 0 0.5877852410284794 forward_v I I I I #
face $-1 $92 $93 $33 $-1 $94 forward single #
loop $-1 $95 $96 $43 #
cone-surface $-1 -49.993137537293158 -10.903077274312963 8.9311673465404695 0.80901700255871778 0 -0.5877852410284794 0.8816778615427191 0 1.2135255038380768 1 I I 0 1 1.5 forward I I I I #
face $-1 $97 $98 $34 $-1 $99 reversed single #
loop $-1 $-1 $100 $44 #
plane-surface $-1 -145.61660618935599 21.305301230778873 71.232129191662622 0 1 0 -0.80901700255871778 0 0.5877852410284794 forward_v I I I I #
face $-1 $101 $102 $35 $-1 $103 forward single #
loop $-1 $104 $105 $45 #
cone-surface $-1 -49.993137537293158 25.483444396729716 8.9311673465404695 0.80901700255871778 0 -0.5877852410284794 0.8816778615427191 0 1.2135255038380768 1 I I 0 1 1.5 forward I I I I #
face $-1 $106 $107 $36 $-1 $108 reversed single #
loop $-1 $-1 $109 $46 #
plane-surface $-1 80.230677817565848 -6.7249341083621221 161.22814149082424 0 -1 0 -0.80901700255871778 0 -0.5877852410284794 forward_v I I I I #
face $-1 $110 $111 $37 $-1 $112 forward single #
loop $-1 $113 $114 $47 #
cone-surface $-1 49.993137537293158 -10.903077274312963 8.9311673465404624 -0.80901700255871778 0 -0.5877852410284794 0.8816778615427191 0 -1.2135255038380768 1 I I 0 1 1.5 forward I I I I #
face $-1 $115 $116 $38 $-1 $117 reversed single #
loop $-1 $-1 $118 $48 #
plane-surface $-1 80.230677817565848 29.661587562680559 161.22814149082424 0 -1 0 -0.80901700255871778 0 -0.5877852410284794 forward_v I I I I #
face $-1 $119 $120 $39 $-1 $121 forward single #
loop $-1 $122 $123 $49 #
cone-surface $-1 49.993137537293158 25.483444396729716 8.9311673465404624 -0.80901700255871778 0 -0.5877852410284794 0.8816778615427191 0 -1.2135255038380768 1 I I 0 1 1.5 forward I I I I #
face $-1 $124 $125 $30 $-1 $126 reversed single #
loop $-1 $-1 $127 $50 #
plane-surface $-1 0 0 -15.236503498228085 0 0 1 1 0 0 forward_v I I I I #
coedge $-1 $128 $129 $130 $131 forward $51 $-1 #
face $-1 $132 $133 $31 $-1 $134 forward single #
loop $-1 $-1 $135 $53 #
plane-surface $-1 -47.893021728090659 -28.352522341929983 0 -1 0 0 0 0 1 forward_v I I I I #
coedge $-1 $136 $137 $138 $139 forward $54 $-1 #
face $-1 $140 $141 $32 $-1 $142 reversed single #
loop $-1 $-1 $143 $56 #
plane-surface $-1 -55.620593890194385 -10.903077274312963 5.8462008198724504 -0.80901700255871778 0 0.5877852410284794 0.5877852410284794 0 0.80901700255871778 forward_v I I I I #
coedge $-1 $144 $145 $146 $147 reversed $57 $-1 #
face $-1 $-1 $148 $33 $-1 $149 forward single #
loop $-1 $150 $151 $59 #
cone-surface $-1 -47.17014545592906 -10.903077274312963 6.8801436032593095 0.80901700255871778 0 -0.5877852410284794 0.44083893077135955 0 0.60676275191903839 1 I I -0.70710678118654757 0.70710678118654757 0.75 forward I I I I #
loop $-1 $-1 $152 $43 #
coedge $-1 $96 $96 $153 $154 reversed $60 $-1 #
face $-1 $155 $156 $34 $-1 $157 reversed single #
loop $-1 $-1 $158 $62 #
plane-surface $-1 -55.620593890194385 25.483444396729716 5.8462008198724504 -0.80901700255871778 0 0.5877852410284794 0.5877852410284794 0 0.80901700255871778 forward_v I I I I #
coedge $-1 $159 $160 $161 $162 reversed $63 $-1 #
face $-1 $-1 $163 $35 $-1 $164 forward single #
loop $-1 $165 $166 $65 #
cone-surface $-1 -47.17014545592906 25.483444396729716 6.8801436032593095 0.80901700255871778 0 -0.5877852410284794 0.44083893077135955 0 0.60676275191903839 1 I I -0.70710678118654757 0.70710678118654757 0.75 forward I I I I #
loop $-1 $-1 $167 $45 #
coedge $-1 $105 $105 $168 $169 reversed $66 $-1 #
face $-1 $170 $171 $36 $-1 $172 reversed single #
loop $-1 $-1 $173 $68 #
plane-surface $-1 -9.7653344815957581 -10.903077274312963 95.842213119034071 0.80901700255871778 0 0.5877852410284794 0.5877852410284794 0 -0.80901700255871778 forward_v I I I I #
coedge $-1 $174 $175 $176 $177 reversed $69 $-1 #
face $-1 $-1 $178 $37 $-1 $179 forward single #
loop $-1 $180 $181 $71 #
cone-surface $-1 47.17014545592906 -10.903077274312963 6.8801436032593024 -0.80901700255871778 0 -0.5877852410284794 0.44083893077135955 0 -0.60676275191903839 1 I I -0.70710678118654757 0.70710678118654757 0.75 forward I I I I #
loop $-1 $-1 $182 $47 #
coedge $-1 $114 $114 $183 $184 reversed $72 $-1 #
face $-1 $185 $186 $38 $-1 $187 reversed single #
loop $-1 $-1 $188 $74 #
plane-surface $-1 -9.7653344815957581 25.483444396729716 95.842213119034071 0.80901700255871778 0 0.5877852410284794 0.5877852410284794 0 -0.80901700255871778 forward_v I I I I #
coedge $-1 $189 $190 $191 $192 reversed $75 $-1 #
face $-1 $-1 $193 $39 $-1 $194 forward single #
loop $-1 $195 $196 $77 #
cone-surface $-1 47.17014545592906 25.483444396729716 6.8801436032593024 -0.80901700255871778 0 -0.5877852410284794 0.44083893077135955 0 -0.60676275191903839 1 I I -0.70710678118654757 0.70710678118654757 0.75 forward I I I I #
loop $-1 $-1 $197 $49 #
coedge $-1 $123 $123 $198 $199 reversed $78 $-1 #
face $-1 $200 $201 $30 $-1 $202 reversed single #
loop $-1 $-1 $203 $80 #
plane-surface $-1 0 -35.642705903138364 0 0 1 0 0 0 1 forward_v I I I I #
coedge $-1 $204 $205 $206 $207 forward $81 $-1 #
coedge $-1 $208 $83 $209 $210 forward $51 $-1 #
coedge $-1 $83 $208 $211 $212 forward $51 $-1 #
coedge $-1 $213 $214 $83 $131 reversed $215 $-1 #
edge $-1 $216 -35.642705903138364 $217 35.642705903138364 $130 $218 forward 7 unknown #
face $-1 $219 $220 $31 $-1 $221 reversed single #
loop $-1 $-1 $222 $84 #
plane-surface $-1 0 0 15.236503498228085 0 0 1 1 0 0 forward_v I I I I #
coedge $-1 $223 $224 $225 $226 reversed $85 $-1 #
coedge $-1 $227 $87 $228 $229 reversed $54 $-1 #
coedge $-1 $87 $227 $230 $231 reversed $54 $-1 #
coedge $-1 $224 $223 $87 $139 reversed $85 $-1 #
edge $-1 $232 -15.236503498228085 $233 15.236503498228085 $138 $234 forward 7 unknown #
face $-1 $235 $236 $32 $-1 $237 reversed single #
loop $-1 $-1 $238 $88 #
plane-surface $-1 -145.61660618935599 -6.7249341083621221 71.232129191662622 0 -1 0 0.80901700255871778 0 -0.5877852410284794 forward_v I I I I #
coedge $-1 $239 $240 $241 $242 reversed $89 $-1 #
coedge $-1 $145 $91 $243 $244 reversed $57 $-1 #
coedge $-1 $91 $144 $239 $245 reversed $57 $-1 #
coedge $-1 $241 $246 $91 $147 forward $247 $-1 #
edge $-1 $248 17.187709204483596 $249 24.010163251395987 $146 $250 forward 7 unknown #
loop $-1 $-1 $153 $92 #
plane-surface $-1 -55.620593890194385 -10.903077274312963 5.8462008198724504 -0.80901700255871778 0 0.5877852410284794 0.5877852410284794 0 0.80901700255871778 forward_v I I I I #
loop $-1 $-1 $251 $59 #
coedge $-1 $151 $151 $152 $252 reversed $93 $-1 #
coedge $-1 $152 $152 $151 $252 forward $95 $-1 #
coedge $-1 $153 $153 $96 $154 forward $148 $-1 #
edge $-1 $253 0 $253 6.2831853071796004 $153 $254 forward 7 unknown #
face $-1 $255 $256 $34 $-1 $257 forward single #
loop $-1 $-1 $258 $97 #
plane-surface $-1 -145.61660618935599 29.661587562680559 71.232129191662622 0 -1 0 0.80901700255871778 0 -0.5877852410284794 forward_v I I I I #
coedge $-1 $259 $260 $261 $262 reversed $98 $-1 #
coedge $-1 $160 $100 $263 $264 reversed $63 $-1 #
coedge $-1 $100 $159 $259 $265 reversed $63 $-1 #
coedge $-1 $261 $266 $100 $162 forward $256 $-1 #
edge $-1 $267 17.187709204483596 $268 24.010163251395987 $161 $269 forward 7 unknown #
loop $-1 $-1 $168 $101 #
plane-surface $-1 -55.620593890194385 25.483444396729716 5.8462008198724504 -0.80901700255871778 0 0.5877852410284794 0.5877852410284794 0 0.80901700255871778 forward_v I I I I #
loop $-1 $-1 $270 $65 #
coedge $-1 $166 $166 $167 $271 reversed $102 $-1 #
coedge $-1 $167 $167 $166 $271 forward $104 $-1 #
coedge $-1 $168 $168 $105 $169 forward $163 $-1 #
edge $-1 $272 0 $272 6.2831853071796004 $168 $273 forward 7 unknown #
face $-1 $274 $275 $36 $-1 $276 forward single #
loop $-1 $-1 $277 $106 #
plane-surface $-1 80.230677817565848 -15.081220440263804 161.22814149082424 0 1 0 0.80901700255871778 0 0.5877852410284794 forward_v I I I I #
coedge $-1 $278 $279 $280 $281 reversed $107 $-1 #
coedge $-1 $175 $109 $282 $283 reversed $69 $-1 #
coedge $-1 $109 $174 $278 $284 reversed $69 $-1 #
coedge $-1 $280 $285 $109 $177 forward $275 $-1 #
edge $-1 $286 -15.505254981411476 $287 -8.6828009344991202 $176 $288 forward 7 unknown #
loop $-1 $-1 $183 $110 #
plane-surface $-1 -9.7653344815957581 -10.903077274312963 95.842213119034071 0.80901700255871778 0 0.5877852410284794 0.5877852410284794 0 -0.80901700255871778 forward_v I I I I #
loop $-1 $-1 $289 $71 #
coedge $-1 $181 $181 $182 $290 reversed $111 $-1 #
coedge $-1 $182 $182 $181 $290 forward $113 $-1 #
coedge $-1 $183 $183 $114 $184 forward $178 $-1 #
edge $-1 $291 0 $291 6.2831853071796004 $183 $292 forward 7 unknown #
face $-1 $293 $294 $38 $-1 $295 reversed single #
loop $-1 $-1 $296 $115 #
plane-surface $-1 80.230677817565848 21.305301230778873 161.22814149082424 0 1 0 0.80901700255871778 0 0.5877852410284794 forward_v I I I I #
coedge $-1 $297 $298 $299 $300 reversed $116 $-1 #
coedge $-1 $190 $118 $301 $302 reversed $75 $-1 #
coedge $-1 $118 $189 $297 $303 reversed $75 $-1 #
coedge $-1 $299 $304 $118 $192 forward $305 $-1 #
edge $-1 $306 -15.505254981411476 $307 -8.6828009344991202 $191 $308 forward 7 unknown #
loop $-1 $-1 $198 $119 #
plane-surface $-1 -9.7653344815957581 25.483444396729716 95.842213119034071 0.80901700255871778 0 0.5877852410284794 0.5877852410284794 0 -0.80901700255871778 forward_v I I I I #
loop $-1 $-1 $309 $77 #
coedge $-1 $196 $196 $197 $310 reversed $120 $-1 #
coedge $-1 $197 $197 $196 $310 forward $122 $-1 #
coedge $-1 $198 $198 $123 $199 forward $193 $-1 #
edge $-1 $311 0 $311 6.2831853071796004 $198 $312 forward 7 unknown #
face $-1 $313 $314 $30 $-1 $315 reversed single #
loop $-1 $-1 $316 $124 #
plane-surface $-1 -55.620593890194399 0 0 1 0 0 0 0 -1 forward_v I I I I #
coedge $-1 $317 $211 $318 $319 forward $125 $-1 #
coedge $-1 $320 $127 $317 $321 forward $81 $-1 #
coedge $-1 $127 $320 $322 $323 forward $81 $-1 #
coedge $-1 $214 $213 $127 $207 reversed $215 $-1 #
edge $-1 $324 -35.642705903138364 $325 35.642705903138364 $206 $326 forward 7 unknown #
coedge $-1 $129 $128 $327 $328 forward $51 $-1 #
coedge $-1 $329 $330 $128 $210 reversed $314 $-1 #
edge $-1 $217 -55.620593890194399 $331 55.620593890194399 $209 $332 forward 7 unknown #
coedge $-1 $203 $333 $129 $212 reversed $125 $-1 #
edge $-1 $334 -55.620593890194399 $216 55.620593890194399 $211 $335 forward 7 unknown #
coedge $-1 $206 $130 $333 $336 forward $215 $-1 #
coedge $-1 $130 $206 $329 $337 reversed $215 $-1 #
loop $-1 $-1 $213 $313 #
vertex $-1 $131 $338 #
vertex $-1 $131 $339 #
straight-curve $-1 55.620593890194399 0 15.236503498228085 0 1 0 I I #
face $-1 $340 $341 $31 $-1 $342 reversed single #
loop $-1 $-1 $343 $132 #
plane-surface $-1 -55.620593890194399 0 0 1 0 0 0 0 -1 forward_v I I I I #
coedge $-1 $230 $344 $224 $345 forward $133 $-1 #
coedge $-1 $138 $135 $346 $347 reversed $85 $-1 #
coedge $-1 $135 $138 $222 $345 reversed $85 $-1 #
coedge $-1 $348 $349 $135 $226 forward $350 $-1 #
edge $-1 $351 -15.236503498228085 $352 15.236503498228085 $225 $353 forward 7 unknown #
coedge $-1 $137 $136 $343 $354 reversed $54 $-1 #
coedge $-1 $346 $355 $136 $229 forward $341 $-1 #
edge $-1 $356 -29.742189985623135 $233 -22.014617823519394 $228 $357 forward 7 unknown #
coedge $-1 $358 $222 $137 $231 forward $133 $-1 #
edge $-1 $232 22.014617823519394 $359 29.742189985623135 $230 $360 forward 7 unknown #
vertex $-1 $231 $361 #
vertex $-1 $229 $362 #
straight-curve $-1 -47.893021728090659 -21.062338780721603 0 0 0 -1 I I #
face $-1 $-1 $247 $32 $-1 $363 forward single #
loop $-1 $-1 $364 $140 #
plane-surface $-1 -55.620593890194399 0 0 1 0 0 0 0 -1 forward_v I I I I #
coedge $-1 $365 $366 $367 $368 reversed $141 $-1 #
coedge $-1 $369 $143 $145 $245 forward $89 $-1 #
coedge $-1 $143 $369 $365 $370 forward $89 $-1 #
coedge $-1 $367 $146 $143 $242 forward $247 $-1 #
edge $-1 $249 -9.6296818031073226 $371 -1.2733954712056406 $241 $372 forward 7 unknown #
coedge $-1 $373 $374 $144 $244 forward $236 $-1 #
edge $-1 $375 -29.769863775958882 $248 -20.379561097603226 $243 $376 forward 7 unknown #
edge $-1 $249 -11.607052322332491 $375 2.4161062406544664e-014 $145 $377 forward 7 unknown #
coedge $-1 $146 $367 $373 $378 forward $247 $-1 #
loop $-1 $-1 $367 $235 #
vertex $-1 $244 $379 #
vertex $-1 $147 $380 #
straight-curve $-1 -72.808303094677996 -15.081220440263804 15.236503498228085 1 0 0 I I #
coedge $-1 $251 $251 $-1 $381 reversed $150 $-1 #
edge $-1 $382 0 $382 6.2831853071796004 $151 $383 forward 7 unknown #
vertex $-1 $154 $384 #
ellipse-curve $-1 -52.209366866738208 -10.903077274312963 10.541352159050261 -0.80901700255871778 0 0.5877852410284794 0.8816778615427191 0 1.2135255038380768 1 I I #
face $-1 $-1 $385 $34 $-1 $386 reversed single #
loop $-1 $-1 $161 $155 #
plane-surface $-1 0 0 15.236503498228085 0 0 1 1 0 0 forward_v I I I I #
coedge $-1 $387 $388 $389 $390 reversed $156 $-1 #
coedge $-1 $391 $158 $160 $265 forward $98 $-1 #
coedge $-1 $158 $391 $387 $392 forward $98 $-1 #
coedge $-1 $389 $161 $158 $262 forward $256 $-1 #
edge $-1 $268 8.5635790324140153 $393 16.919865364315701 $261 $394 forward 7 unknown #
coedge $-1 $395 $396 $159 $264 forward $385 $-1 #
edge $-1 $397 -29.769863775958882 $267 -20.379561097603226 $263 $398 forward 7 unknown #
edge $-1 $268 -11.607052322332491 $397 2.4161062406544664e-014 $160 $399 forward 7 unknown #
coedge $-1 $161 $389 $395 $400 forward $256 $-1 #
vertex $-1 $264 $401 #
vertex $-1 $162 $402 #
straight-curve $-1 -72.808303094677996 21.305301230778873 15.236503498228085 1 0 0 I I #
coedge $-1 $270 $270 $-1 $403 reversed $165 $-1 #
edge $-1 $404 0 $404 6.2831853071796004 $166 $405 forward 7 unknown #
vertex $-1 $169 $406 #
ellipse-curve $-1 -52.209366866738208 25.483444396729716 10.541352159050261 -0.80901700255871778 0 0.5877852410284794 0.8816778615427191 0 1.2135255038380768 1 I I #
face $-1 $-1 $407 $36 $-1 $408 reversed single #
loop $-1 $-1 $176 $170 #
plane-surface $-1 0 0 15.236503498228085 0 0 1 1 0 0 forward_v I I I I #
coedge $-1 $409 $410 $411 $412 reversed $171 $-1 #
coedge $-1 $413 $173 $175 $284 forward $107 $-1 #
coedge $-1 $173 $413 $409 $414 forward $107 $-1 #
coedge $-1 $411 $176 $173 $281 forward $275 $-1 #
edge $-1 $287 1.2733954712056406 $415 9.6296818031073226 $280 $416 forward 7 unknown #
coedge $-1 $417 $418 $174 $283 forward $407 $-1 #
edge $-1 $419 -74.767869925539642 $286 -65.377567247184032 $282 $420 forward 7 unknown #
edge $-1 $287 99.634135458056306 $419 111.24118778038877 $175 $421 forward 7 unknown #
coedge $-1 $176 $411 $417 $422 forward $275 $-1 #
vertex $-1 $177 $423 #
vertex $-1 $177 $424 #
straight-curve $-1 40.115338908782924 -6.7249341083621221 15.236503498228089 -1 0 0 I I #
coedge $-1 $289 $289 $-1 $425 reversed $180 $-1 #
edge $-1 $426 0 $426 6.2831853071796004 $181 $427 forward 7 unknown #
vertex $-1 $184 $428 #
ellipse-curve $-1 52.209366866738229 -10.903077274312963 10.541352159050271 0.80901700255871778 0 0.5877852410284794 0.8816778615427191 0 -1.2135255038380768 1 I I #
face $-1 $-1 $305 $38 $-1 $429 forward single #
loop $-1 $-1 $430 $185 #
plane-surface $-1 55.620593890194399 0 0 -1 0 0 0 0 1 forward_v I I I I #
coedge $-1 $431 $432 $433 $434 reversed $186 $-1 #
coedge $-1 $435 $188 $190 $303 forward $116 $-1 #
coedge $-1 $188 $435 $431 $436 forward $116 $-1 #
coedge $-1 $433 $191 $188 $300 forward $305 $-1 #
edge $-1 $307 -16.919865364315701 $437 -8.5635790324140153 $299 $438 forward 7 unknown #
coedge $-1 $439 $440 $189 $302 forward $294 $-1 #
edge $-1 $441 -74.767869925539642 $306 -65.377567247184032 $301 $442 forward 7 unknown #
edge $-1 $307 99.634135458056306 $441 111.24118778038877 $190 $443 forward 7 unknown #
coedge $-1 $191 $433 $439 $444 forward $305 $-1 #
loop $-1 $-1 $433 $293 #
vertex $-1 $302 $445 #
vertex $-1 $192 $446 #
straight-curve $-1 40.115338908782924 29.661587562680559 15.236503498228089 -1 0 0 I I #
coedge $-1 $309 $309 $-1 $447 reversed $195 $-1 #
edge $-1 $448 0 $448 6.2831853071796004 $196 $449 forward 7 unknown #
vertex $-1 $199 $450 #
ellipse-curve $-1 52.209366866738229 25.483444396729716 10.541352159050271 0.80901700255871778 0 0.5877852410284794 0.8816778615427191 0 -1.2135255038380768 1 I I #
face $-1 $-1 $215 $30 $-1 $451 reversed single #
loop $-1 $-1 $329 $200 #
plane-surface $-1 0 35.642705903138364 0 0 -1 0 0 0 -1 forward_v I I I I #
coedge $-1 $452 $327 $330 $453 forward $201 $-1 #
coedge $-1 $333 $203 $204 $321 reversed $125 $-1 #
coedge $-1 $327 $452 $203 $319 reversed $201 $-1 #
edge $-1 $334 -15.236503498228085 $454 15.236503498228085 $318 $455 forward 7 unknown #
coedge $-1 $205 $204 $452 $456 forward $81 $-1 #
edge $-1 $325 -55.620593890194399 $454 55.620593890194399 $317 $457 forward 7 unknown #
coedge $-1 $330 $329 $205 $323 reversed $314 $-1 #
edge $-1 $458 -55.620593890194399 $324 55.620593890194399 $322 $459 forward 7 unknown #
vertex $-1 $207 $460 #
vertex $-1 $336 $461 #
straight-curve $-1 55.620593890194399 0 -15.236503498228085 0 -1 0 I I #
coedge $-1 $316 $318 $208 $328 reversed $201 $-1 #
edge $-1 $331 -35.642705903138364 $334 35.642705903138364 $327 $462 forward 7 unknown #
coedge $-1 $322 $209 $214 $337 forward $314 $-1 #
coedge $-1 $209 $322 $316 $453 reversed $314 $-1 #
vertex $-1 $210 $463 #
straight-curve $-1 0 35.642705903138364 15.236503498228085 -1 0 0 I I #
coedge $-1 $211 $317 $213 $336 reversed $125 $-1 #
vertex $-1 $328 $464 #
straight-curve $-1 0 -35.642705903138364 15.236503498228085 1 0 0 I I #
edge $-1 $216 -15.236503498228085 $325 15.236503498228085 $213 $465 forward 7 unknown #
edge $-1 $217 -15.236503498228085 $324 15.236503498228085 $214 $466 forward 7 unknown #
point $-1 55.620593890194399 -35.642705903138364 15.236503498228085 #
point $-1 55.620593890194399 35.642705903138364 15.236503498228085 #
face $-1 $-1 $350 $31 $-1 $467 reversed single #
loop $-1 $-1 $346 $219 #
plane-surface $-1 0 0 -15.236503498228085 0 0 1 1 0 0 forward_v I I I I #
coedge $-1 $468 $469 $227 $354 forward $220 $-1 #
coedge $-1 $222 $358 $348 $470 forward $133 $-1 #
edge $-1 $352 -21.466444732173372 $232 -6.8860776097566117 $222 $471 forward 7 unknown #
coedge $-1 $472 $228 $223 $347 forward $341 $-1 #
edge $-1 $233 6.8860776097566117 $351 21.466444732173372 $346 $473 forward 7 unknown #
coedge $-1 $474 $225 $344 $470 reversed $350 $-1 #
coedge $-1 $225 $474 $472 $475 reversed $350 $-1 #
loop $-1 $-1 $225 $340 #
vertex $-1 $475 $476 #
vertex $-1 $226 $477 #
straight-curve $-1 -47.893021728090659 -35.642705903138364 0 0 0 1 I I #
edge $-1 $359 -15.236503498228085 $356 15.236503498228085 $343 $478 forward 7 unknown #
coedge $-1 $228 $472 $468 $479 forward $341 $-1 #
vertex $-1 $229 $480 #
straight-curve $-1 -25.878403904571265 -21.062338780721603 -15.236503498228085 1 0 0 I I #
coedge $-1 $344 $230 $469 $481 forward $133 $-1 #
vertex $-1 $481 $482 #
straight-curve $-1 -25.878403904571265 -21.062338780721603 15.236503498228085 -1 0 0 I I #
point $-1 -47.893021728090659 -21.062338780721603 15.236503498228085 #
point $-1 -47.893021728090659 -21.062338780721603 -15.236503498228085 #
plane-surface $-1 0 0 15.236503498228085 0 0 1 1 0 0 forward_v I I I I #
coedge $-1 $374 $373 $366 $483 forward $236 $-1 #
coedge $-1 $366 $238 $240 $370 reversed $141 $-1 #
coedge $-1 $238 $365 $364 $483 reversed $141 $-1 #
coedge $-1 $246 $241 $238 $368 forward $247 $-1 #
edge $-1 $371 -24.010163251395987 $484 -17.187709204483596 $367 $485 forward 7 unknown #
coedge $-1 $240 $239 $374 $486 reversed $89 $-1 #
edge $-1 $487 -2.4161062406544664e-014 $371 11.607052322332491 $365 $488 forward 7 unknown #
vertex $-1 $242 $489 #
straight-curve $-1 -48.798139843282009 -5.4515386371564816 15.236503498228085 0 1 0 I I #
coedge $-1 $364 $243 $246 $378 reversed $236 $-1 #
coedge $-1 $243 $364 $369 $486 forward $236 $-1 #
vertex $-1 $244 $490 #
straight-curve $-1 -55.620593890194399 -15.081220440263804 35.616064595831311 0 0 1 I I #
straight-curve $-1 -55.620593890194385 -15.081220440263804 5.8462008198724504 -0.5877852410284794 0 -0.80901700255871778 I I #
edge $-1 $484 6.7249341083621221 $248 15.081220440263804 $373 $491 forward 7 unknown #
point $-1 -55.620593890194399 -15.081220440263804 15.236503498228085 #
point $-1 -48.798139843282009 -15.081220440263804 15.236503498228085 #
edge $-1 $492 1 $492 0 $251 $-1 forward 7 unknown #
vertex $-1 $252 $493 #
ellipse-curve $-1 -47.776908207848095 -10.903077274312963 7.3209825340306693 -0.80901700255871778 0 0.5877852410284794 0.8816778615427191 0 1.2135255038380768 1 I I #
point $-1 -51.327689005195495 -10.903077274312963 11.754877662888347 #
loop $-1 $-1 $263 $255 #
plane-surface $-1 -55.620593890194399 0 0 1 0 0 0 0 -1 forward_v I I I I #
coedge $-1 $388 $258 $260 $392 reversed $156 $-1 #
coedge $-1 $258 $387 $494 $495 reversed $156 $-1 #
coedge $-1 $266 $261 $258 $390 forward $256 $-1 #
edge $-1 $393 -24.010163251395987 $496 -17.187709204483596 $389 $497 forward 7 unknown #
coedge $-1 $260 $259 $396 $498 reversed $98 $-1 #
edge $-1 $499 -2.4161062406544664e-014 $393 11.607052322332491 $387 $500 forward 7 unknown #
vertex $-1 $262 $501 #
straight-curve $-1 -48.798139843282009 12.741722198364858 15.236503498228085 0 1 0 I I #
coedge $-1 $494 $263 $266 $400 reversed $385 $-1 #
coedge $-1 $263 $494 $391 $498 forward $385 $-1 #
vertex $-1 $264 $502 #
straight-curve $-1 -55.620593890194399 21.305301230778873 35.616064595831311 0 0 1 I I #
straight-curve $-1 -55.620593890194385 21.305301230778873 5.8462008198724504 -0.5877852410284794 0 -0.80901700255871778 I I #
edge $-1 $496 -29.661587562680559 $267 -21.305301230778873 $395 $503 forward 7 unknown #
point $-1 -55.620593890194399 21.305301230778873 15.236503498228085 #
point $-1 -48.798139843282009 21.305301230778873 15.236503498228085 #
edge $-1 $504 1 $504 0 $270 $-1 forward 7 unknown #
vertex $-1 $271 $505 #
ellipse-curve $-1 -47.776908207848095 25.483444396729716 7.3209825340306693 -0.80901700255871778 0 0.5877852410284794 0.8816778615427191 0 1.2135255038380768 1 I I #
point $-1 -51.327689005195495 25.483444396729716 11.754877662888347 #
loop $-1 $-1 $282 $274 #
plane-surface $-1 55.620593890194399 0 0 -1 0 0 0 0 1 forward_v I I I I #
coedge $-1 $410 $277 $279 $414 reversed $171 $-1 #
coedge $-1 $277 $409 $506 $507 reversed $171 $-1 #
coedge $-1 $285 $280 $277 $412 forward $275 $-1 #
edge $-1 $415 8.6828009344991202 $508 15.505254981411476 $411 $509 forward 7 unknown #
coedge $-1 $279 $278 $418 $510 reversed $107 $-1 #
edge $-1 $511 -111.24118778038877 $415 -99.634135458056306 $409 $512 forward 7 unknown #
vertex $-1 $281 $513 #
straight-curve $-1 48.798139843282037 -5.4515386371564816 15.236503498228089 0 -1 0 I I #
coedge $-1 $506 $282 $285 $422 reversed $407 $-1 #
coedge $-1 $282 $506 $413 $510 forward $407 $-1 #
vertex $-1 $283 $514 #
straight-curve $-1 55.620593890194399 -6.7249341083621221 80.614070745412121 0 0 1 I I #
straight-curve $-1 -9.7653344815957581 -6.7249341083621221 95.842213119034071 0.5877852410284794 0 -0.80901700255871778 I I #
edge $-1 $508 -15.081220440263804 $286 -6.7249341083621221 $417 $515 forward 7 unknown #
point $-1 55.620593890194399 -6.7249341083621221 15.236503498228085 #
point $-1 48.798139843282044 -6.7249341083621221 15.236503498228089 #
edge $-1 $516 1 $516 0 $289 $-1 forward 7 unknown #
vertex $-1 $290 $517 #
ellipse-curve $-1 47.776908207848095 -10.903077274312963 7.3209825340306622 0.80901700255871778 0 0.5877852410284794 0.8816778615427191 0 -1.2135255038380768 1 I I #
point $-1 53.091044728280934 -10.903077274312963 9.3278266552121867 #
plane-surface $-1 0 0 15.236503498228085 0 0 1 1 0 0 forward_v I I I I #
coedge $-1 $440 $439 $432 $518 forward $294 $-1 #
coedge $-1 $432 $296 $298 $436 reversed $186 $-1 #
coedge $-1 $296 $431 $430 $518 reversed $186 $-1 #
coedge $-1 $304 $299 $296 $434 forward $305 $-1 #
edge $-1 $437 8.6828009344991202 $519 15.505254981411476 $433 $520 forward 7 unknown #
coedge $-1 $298 $297 $440 $521 reversed $116 $-1 #
edge $-1 $522 -111.24118778038877 $437 -99.634135458056306 $431 $523 forward 7 unknown #
vertex $-1 $300 $524 #
straight-curve $-1 48.798139843282037 12.741722198364858 15.236503498228089 0 -1 0 I I #
coedge $-1 $430 $301 $304 $444 reversed $294 $-1 #
coedge $-1 $301 $430 $435 $521 forward $294 $-1 #
vertex $-1 $302 $525 #
straight-curve $-1 55.620593890194399 29.661587562680559 80.614070745412121 0 0 1 I I #
straight-curve $-1 -9.7653344815957581 29.661587562680559 95.842213119034071 0.5877852410284794 0 -0.80901700255871778 I I #
edge $-1 $519 21.305301230778873 $306 29.661587562680559 $439 $526 forward 7 unknown #
point $-1 55.620593890194399 29.661587562680559 15.236503498228085 #
point $-1 48.798139843282044 29.661587562680559 15.236503498228089 #
edge $-1 $527 1 $527 0 $309 $-1 forward 7 unknown #
vertex $-1 $310 $528 #
ellipse-curve $-1 47.776908207848095 25.483444396729716 7.3209825340306622 0.80901700255871778 0 0.5877852410284794 0.8816778615427191 0 -1.2135255038380768 1 I I #
point $-1 53.091044728280934 25.483444396729716 9.3278266552121867 #
plane-surface $-1 55.620593890194399 0 0 -1 0 0 0 0 1 forward_v I I I I #
coedge $-1 $318 $316 $320 $456 reversed $201 $-1 #
edge $-1 $331 -15.236503498228085 $458 15.236503498228085 $330 $529 forward 7 unknown #
vertex $-1 $456 $530 #
straight-curve $-1 -55.620593890194399 -35.642705903138364 0 0 0 -1 I I #
edge $-1 $454 -35.642705903138364 $458 35.642705903138364 $452 $531 forward 7 unknown #
straight-curve $-1 0 -35.642705903138364 -15.236503498228085 -1 0 0 I I #
vertex $-1 $323 $532 #
straight-curve $-1 0 35.642705903138364 -15.236503498228085 1 0 0 I I #
point $-1 55.620593890194399 35.642705903138364 -15.236503498228085 #
point $-1 55.620593890194399 -35.642705903138364 -15.236503498228085 #
straight-curve $-1 -55.620593890194399 0 15.236503498228085 0 -1 0 I I #
point $-1 -55.620593890194399 35.642705903138364 15.236503498228085 #
point $-1 -55.620593890194399 -35.642705903138364 15.236503498228085 #
straight-curve $-1 55.620593890194399 -35.642705903138364 0 0 0 -1 I I #
straight-curve $-1 55.620593890194399 35.642705903138364 0 0 0 -1 I I #
plane-surface $-1 0 -35.642705903138364 0 0 1 0 0 0 1 forward_v I I I I #
coedge $-1 $533 $343 $355 $479 reversed $220 $-1 #
coedge $-1 $343 $533 $358 $481 reversed $220 $-1 #
edge $-1 $534 -55.620593890194399 $352 -47.893021728090659 $348 $535 forward 7 unknown #
straight-curve $-1 -47.893021728090659 -14.176261170964992 15.236503498228085 0 1 0 I I #
coedge $-1 $355 $346 $349 $475 forward $341 $-1 #
straight-curve $-1 -47.893021728090659 -14.176261170964992 -15.236503498228085 0 -1 0 I I #
coedge $-1 $349 $348 $533 $536 forward $350 $-1 #
edge $-1 $351 47.893021728090659 $537 55.620593890194399 $349 $538 forward 7 unknown #
point $-1 -47.893021728090659 -35.642705903138364 -15.236503498228085 #
point $-1 -47.893021728090659 -35.642705903138364 15.236503498228085 #
straight-curve $-1 -55.620593890194399 -21.062338780721603 0 0 0 -1 I I #
edge $-1 $537 -35.642705903138364 $356 -21.062338780721603 $468 $539 forward 7 unknown #
point $-1 -55.620593890194399 -21.062338780721603 -15.236503498228085 #
edge $-1 $359 21.062338780721603 $534 35.642705903138364 $469 $540 forward 7 unknown #
point $-1 -55.620593890194399 -21.062338780721603 15.236503498228085 #
edge $-1 $484 20.379561097603226 $487 29.769863775958882 $364 $541 forward 7 unknown #
vertex $-1 $378 $542 #
straight-curve $-1 -72.808303094677996 -6.7249341083621221 15.236503498228085 -1 0 0 I I #
edge $-1 $487 1.2733954712056406 $375 9.6296818031073226 $374 $543 forward 7 unknown #
vertex $-1 $486 $544 #
straight-curve $-1 -55.620593890194385 -6.7249341083621221 5.8462008198724504 0.5877852410284794 0 0.80901700255871778 I I #
point $-1 -48.798139843282009 -6.7249341083621221 15.236503498228085 #
point $-1 -55.620593890194399 -15.081220440263804 5.8462008198724309 #
straight-curve $-1 -55.620593890194399 0 15.236503498228085 0 -1 0 I I #
vertex $-1 $381 $545 #
point $-1 -46.895230346305382 -10.903077274312963 8.5345080378687452 #
coedge $-1 $396 $395 $388 $495 forward $385 $-1 #
edge $-1 $496 20.379561097603226 $499 29.769863775958882 $494 $546 forward 7 unknown #
vertex $-1 $400 $547 #
straight-curve $-1 -72.808303094677996 29.661587562680559 15.236503498228085 -1 0 0 I I #
edge $-1 $499 -16.919865364315701 $397 -8.5635790324140153 $396 $548 forward 7 unknown #
vertex $-1 $498 $549 #
straight-curve $-1 -55.620593890194385 29.661587562680559 5.8462008198724504 0.5877852410284794 0 0.80901700255871778 I I #
point $-1 -48.798139843282009 29.661587562680559 15.236503498228085 #
point $-1 -55.620593890194399 21.305301230778873 5.8462008198724309 #
straight-curve $-1 -55.620593890194399 0 15.236503498228085 0 -1 0 I I #
vertex $-1 $403 $550 #
point $-1 -46.895230346305382 25.483444396729716 8.5345080378687452 #
coedge $-1 $418 $417 $410 $507 forward $407 $-1 #
edge $-1 $508 65.377567247184032 $511 74.767869925539642 $506 $551 forward 7 unknown #
vertex $-1 $422 $552 #
straight-curve $-1 40.115338908782924 -15.081220440263804 15.236503498228089 1 0 0 I I #
edge $-1 $511 -9.6296818031073226 $419 -1.2733954712056406 $418 $553 forward 7 unknown #
vertex $-1 $510 $554 #
straight-curve $-1 -9.7653344815957581 -15.081220440263804 95.842213119034071 -0.5877852410284794 0 0.80901700255871778 I I #
point $-1 48.798139843282044 -15.081220440263804 15.236503498228089 #
point $-1 55.620593890194399 -6.7249341083621221 5.8462008198724789 #
straight-curve $-1 55.620593890194399 0 15.236503498228085 0 1 0 I I #
vertex $-1 $425 $555 #
point $-1 48.658586069390815 -10.903077274312963 6.1074570301925855 #
edge $-1 $519 65.377567247184032 $522 74.767869925539642 $430 $556 forward 7 unknown #
vertex $-1 $444 $557 #
straight-curve $-1 40.115338908782924 21.305301230778873 15.236503498228089 1 0 0 I I #
edge $-1 $522 8.5635790324140153 $441 16.919865364315701 $440 $558 forward 7 unknown #
vertex $-1 $521 $559 #
straight-curve $-1 -9.7653344815957581 21.305301230778873 95.842213119034071 -0.5877852410284794 0 0.80901700255871778 I I #
point $-1 48.798139843282044 21.305301230778873 15.236503498228089 #
point $-1 55.620593890194399 29.661587562680559 5.8462008198724789 #
straight-curve $-1 55.620593890194399 0 15.236503498228085 0 1 0 I I #
vertex $-1 $447 $560 #
point $-1 48.658586069390815 25.483444396729716 6.1074570301925855 #
straight-curve $-1 -55.620593890194399 35.642705903138364 0 0 0 -1 I I #
point $-1 -55.620593890194399 -35.642705903138364 -15.236503498228085 #
straight-curve $-1 -55.620593890194399 0 -15.236503498228085 0 1 0 I I #
point $-1 -55.620593890194399 35.642705903138364 -15.236503498228085 #
coedge $-1 $469 $468 $474 $536 reversed $220 $-1 #
vertex $-1 $481 $561 #
straight-curve $-1 0 -35.642705903138364 15.236503498228085 1 0 0 I I #
edge $-1 $534 -15.236503498228085 $537 15.236503498228085 $533 $562 forward 7 unknown #
vertex $-1 $479 $563 #
straight-curve $-1 0 -35.642705903138364 -15.236503498228085 -1 0 0 I I #
straight-curve $-1 -55.620593890194399 0 -15.236503498228085 0 1 0 I I #
straight-curve $-1 -55.620593890194399 0 15.236503498228085 0 -1 0 I I #
straight-curve $-1 -55.620593890194399 -6.7249341083621221 35.616064595831311 0 0 -1 I I #
point $-1 -55.620593890194399 -6.7249341083621221 15.236503498228085 #
straight-curve $-1 -55.620593890194399 -5.4515386371564816 5.8462008198724318 0 -1 0 I I #
point $-1 -55.620593890194399 -6.7249341083621221 5.8462008198724309 #
point $-1 -46.563382704010024 -10.903077274312963 6.4393046724879497 #
straight-curve $-1 -55.620593890194399 29.661587562680559 35.616064595831311 0 0 -1 I I #
point $-1 -55.620593890194399 29.661587562680559 15.236503498228085 #
straight-curve $-1 -55.620593890194399 12.741722198364858 5.8462008198724318 0 -1 0 I I #
point $-1 -55.620593890194399 29.661587562680559 5.8462008198724309 #
point $-1 -46.563382704010024 25.483444396729716 6.4393046724879497 #
straight-curve $-1 55.620593890194399 -15.081220440263804 80.614070745412121 0 0 -1 I I #
point $-1 55.620593890194399 -15.081220440263804 15.236503498228085 #
straight-curve $-1 55.620593890194399 -5.4515386371564816 5.8462008198724789 0 1 0 I I #
point $-1 55.620593890194399 -15.081220440263804 5.8462008198724789 #
point $-1 46.563382704010024 -10.903077274312963 6.4393046724879426 #
straight-curve $-1 55.620593890194399 21.305301230778873 80.614070745412121 0 0 -1 I I #
point $-1 55.620593890194399 21.305301230778873 15.236503498228085 #
straight-curve $-1 55.620593890194399 12.741722198364858 5.8462008198724789 0 1 0 I I #
point $-1 55.620593890194399 21.305301230778873 5.8462008198724789 #
point $-1 46.563382704010024 25.483444396729716 6.4393046724879426 #
point $-1 -55.620593890194399 -35.642705903138364 15.236503498228085 #
straight-curve $-1 -55.620593890194399 -35.642705903138364 0 0 0 -1 I I #
point $-1 -55.620593890194399 -35.642705903138364 -15.236503498228085 #
End-of-ACIS-data 