500 0 8 0           
7 Unknown 11 ACIS 5.0 NT 24 Fri Mar 26 02:27:52 1999 
-1 9.9999999999999995e-007 1e-010 
body $-1 $8 $-1 $9 #
body $-1 $10 $-1 $11 #
body $-1 $12 $-1 $13 #
body $-1 $14 $-1 $15 #
body $-1 $16 $-1 $17 #
body $-1 $18 $-1 $19 #
body $-1 $20 $-1 $21 #
body $-1 $22 $-1 $23 #
lump $-1 $-1 $24 $0 #
transform $-1 1 0 0 0 1 0 0 0 1 69.358806115909303 31.693970758815933 8.7283920630658631 1 rotate no_reflect no_shear #
lump $-1 $-1 $25 $1 #
transform $-1 1 0 0 0 1 0 0 0 1 69.358806115909303 31.693970758815933 8.7283920630658631 1 rotate no_reflect no_shear #
lump $-1 $-1 $26 $2 #
transform $-1 1 0 0 0 1 0 0 0 1 69.358806115909303 31.693970758815933 8.7283920630658631 1 rotate no_reflect no_shear #
lump $-1 $-1 $27 $3 #
transform $-1 1 0 0 0 1 0 0 0 1 69.358806115909303 31.693970758815933 8.7283920630658631 1 rotate no_reflect no_shear #
lump $-1 $-1 $28 $4 #
transform $-1 1 0 0 0 1 0 0 0 1 69.358806115909303 31.693970758815933 8.7283920630658631 1 rotate no_reflect no_shear #
lump $-1 $-1 $29 $5 #
transform $-1 1 0 0 0 1 0 0 0 1 69.358806115909303 31.693970758815933 8.7283920630658631 1 rotate no_reflect no_shear #
lump $-1 $-1 $30 $6 #
transform $-1 1 0 0 0 1 0 0 0 1 69.358806115909303 31.693970758815933 8.7283920630658631 1 rotate no_reflect no_shear #
lump $-1 $-1 $31 $7 #
transform $-1 1 0 0 0 1 0 0 0 1 69.358806115909303 31.693970758815933 8.7283920630658631 1 rotate no_reflect no_shear #
shell $-1 $-1 $-1 $32 $-1 $8 #
shell $-1 $-1 $-1 $33 $-1 $10 #
shell $-1 $-1 $-1 $34 $-1 $12 #
shell $-1 $-1 $-1 $35 $-1 $14 #
shell $-1 $-1 $-1 $36 $-1 $16 #
shell $-1 $-1 $-1 $37 $-1 $18 #
shell $-1 $-1 $-1 $38 $-1 $20 #
shell $-1 $-1 $-1 $39 $-1 $22 #
face $-1 $40 $41 $24 $-1 $42 forward single #
face $-1 $43 $44 $25 $-1 $45 forward single #
face $-1 $46 $47 $26 $-1 $48 reversed single #
face $-1 $49 $50 $27 $-1 $51 forward single #
face $-1 $52 $53 $28 $-1 $54 forward single #
face $-1 $55 $56 $29 $-1 $57 reversed single #
face $-1 $58 $59 $30 $-1 $60 forward single #
face $-1 $61 $62 $31 $-1 $63 forward single #
face $-1 $64 $65 $24 $-1 $66 reversed single #
loop $-1 $-1 $67 $32 #
plane-surface $-1 0 0 8.7283920630658631 0 0 1 1 0 0 forward_v I I I I #
face $-1 $68 $69 $25 $-1 $70 reversed single #
loop $-1 $-1 $71 $33 #
plane-surface $-1 0 -26.367744337332006 -5.7283920630658631 0 0 1 1 0 0 forward_v I I I I #
face $-1 $72 $73 $26 $-1 $74 reversed single #
loop $-1 $-1 $75 $34 #
plane-surface $-1 76.205263623396533 -12.472690680240195 201.1799814989154 0 -1 0 -0.73135370988377701 0 -0.68199835119979291 forward_v I I I I #
face $-1 $76 $77 $27 $-1 $78 forward single #
loop $-1 $79 $80 $35 #
cone-surface $-1 66.984986728459177 -18.593281562817257 6.2796802652475829 -0.73135370988377701 0 -0.68199835119979291 0.34099917559989645 0 -0.36567685494188851 1 I I 0 1 0.5 forward I I I I #
face $-1 $81 $82 $28 $-1 $83 forward single #
loop $-1 $84 $85 $36 #
cone-surface $-1 66.984986728459177 -14.92092703327102 6.2796802652475829 -0.73135370988377701 0 -0.68199835119979291 0.34099917559989645 0 -0.36567685494188851 1 I I 0 1 0.5 forward I I I I #
face $-1 $86 $87 $29 $-1 $88 reversed single #
loop $-1 $-1 $89 $37 #
plane-surface $-1 -170.81044644786903 -21.041517915848079 99.728341166955644 0 1 0 -0.73135370988377701 0 0.68199835119979291 forward_v I I I I #
face $-1 $90 $91 $30 $-1 $92 forward single #
loop $-1 $93 $94 $38 #
cone-surface $-1 -66.984986728459177 -18.593281562817257 6.2796802652476007 0.73135370988377701 0 -0.68199835119979291 0.34099917559989645 0 0.36567685494188851 1 I I 0 1 0.5 forward I I I I #
face $-1 $95 $96 $31 $-1 $97 forward single #
loop $-1 $98 $99 $39 #
cone-surface $-1 -66.984986728459177 -14.92092703327102 6.2796802652476007 0.73135370988377701 0 -0.68199835119979291 0.34099917559989645 0 0.36567685494188851 1 I I 0 1 0.5 forward I I I I #
face $-1 $100 $101 $24 $-1 $102 reversed single #
loop $-1 $-1 $103 $40 #
plane-surface $-1 0 0 -8.7283920630658631 0 0 1 1 0 0 forward_v I I I I #
coedge $-1 $104 $105 $106 $107 forward $41 $-1 #
face $-1 $108 $109 $25 $-1 $110 reversed single #
loop $-1 $-1 $111 $43 #
plane-surface $-1 0 -21.041517915848079 -7.2283920630658631 0 -1 0 0 0 -1 forward_v I I I I #
coedge $-1 $112 $113 $114 $115 reversed $44 $-1 #
face $-1 $116 $117 $26 $-1 $118 reversed single #
loop $-1 $-1 $119 $46 #
plane-surface $-1 -25.246376708563204 -16.757104298044137 106.57479867444289 0.73135370988377701 0 0.68199835119979291 0.68199835119979291 0 -0.73135370988377701 forward_v I I I I #
coedge $-1 $120 $121 $122 $123 reversed $47 $-1 #
face $-1 $-1 $124 $27 $-1 $125 forward single #
loop $-1 $126 $127 $49 #
cone-surface $-1 66.109296289445766 -18.593281562817257 5.463085739920734 -0.73135370988377701 0 -0.68199835119979291 0.17049958779994823 0 -0.18283842747094425 1 I I -0.70710678118654746 0.70710678118654746 0.25 forward I I I I #
loop $-1 $-1 $128 $35 #
coedge $-1 $80 $80 $129 $130 reversed $50 $-1 #
face $-1 $-1 $131 $28 $-1 $132 forward single #
loop $-1 $133 $134 $52 #
cone-surface $-1 66.109296289445766 -14.92092703327102 5.463085739920734 -0.73135370988377701 0 -0.68199835119979291 0.17049958779994823 0 -0.18283842747094425 1 I I -0.70710678118654746 0.70710678118654746 0.25 forward I I I I #
loop $-1 $-1 $135 $36 #
coedge $-1 $85 $85 $136 $137 reversed $53 $-1 #
face $-1 $138 $139 $29 $-1 $140 reversed single #
loop $-1 $-1 $141 $55 #
plane-surface $-1 -69.358806115909289 -16.757104298044137 5.1231583424831371 -0.73135370988377701 0 0.68199835119979291 0.68199835119979291 0 0.73135370988377701 forward_v I I I I #
coedge $-1 $142 $143 $144 $145 reversed $56 $-1 #
face $-1 $-1 $146 $30 $-1 $147 forward single #
loop $-1 $148 $149 $58 #
cone-surface $-1 -66.109296289445766 -18.593281562817257 5.4630857399207517 0.73135370988377701 0 -0.68199835119979291 0.17049958779994823 0 0.18283842747094425 1 I I -0.70710678118654746 0.70710678118654746 0.25 forward I I I I #
loop $-1 $-1 $150 $38 #
coedge $-1 $94 $94 $151 $152 reversed $59 $-1 #
face $-1 $-1 $153 $31 $-1 $154 forward single #
loop $-1 $155 $156 $61 #
cone-surface $-1 -66.109296289445766 -14.92092703327102 5.4630857399207517 0.73135370988377701 0 -0.68199835119979291 0.17049958779994823 0 0.18283842747094425 1 I I -0.70710678118654746 0.70710678118654746 0.25 forward I I I I #
loop $-1 $-1 $157 $39 #
coedge $-1 $99 $99 $158 $159 reversed $62 $-1 #
face $-1 $160 $161 $24 $-1 $162 reversed single #
loop $-1 $-1 $163 $64 #
plane-surface $-1 0 -31.693970758815933 0 0 1 0 0 0 1 forward_v I I I I #
coedge $-1 $164 $165 $166 $167 forward $65 $-1 #
coedge $-1 $168 $67 $169 $170 forward $41 $-1 #
coedge $-1 $67 $168 $171 $172 forward $41 $-1 #
coedge $-1 $173 $174 $67 $107 reversed $175 $-1 #
edge $-1 $176 -31.693970758815933 $177 31.693970758815933 $106 $178 forward 7 unknown #
face $-1 $179 $180 $25 $-1 $181 reversed single #
loop $-1 $-1 $182 $68 #
plane-surface $-1 0 0 -8.7283920630658631 0 0 1 1 0 0 forward_v I I I I #
coedge $-1 $183 $184 $185 $186 reversed $69 $-1 #
coedge $-1 $187 $71 $184 $188 forward $44 $-1 #
coedge $-1 $71 $187 $189 $190 reversed $44 $-1 #
coedge $-1 $191 $185 $71 $115 forward $180 $-1 #
edge $-1 $192 7.857645747182076 $193 18.51009859014993 $114 $194 forward 7 unknown #
face $-1 $195 $196 $26 $-1 $197 reversed single #
loop $-1 $-1 $198 $72 #
plane-surface $-1 76.205263623396533 -21.041517915848079 201.1799814989154 0 1 0 0.73135370988377701 0 0.68199835119979291 forward_v I I I I #
coedge $-1 $199 $200 $201 $202 reversed $73 $-1 #
coedge $-1 $121 $75 $203 $204 reversed $47 $-1 #
coedge $-1 $75 $120 $199 $205 reversed $47 $-1 #
coedge $-1 $201 $206 $75 $123 forward $207 $-1 #
edge $-1 $208 -31.256174304211036 $209 -27.894239552395753 $122 $210 forward 7 unknown #
loop $-1 $-1 $129 $76 #
plane-surface $-1 -25.246376708563204 -16.757104298044137 106.57479867444289 0.73135370988377701 0 0.68199835119979291 0.68199835119979291 0 -0.73135370988377701 forward_v I I I I #
loop $-1 $-1 $211 $49 #
coedge $-1 $127 $127 $128 $212 reversed $77 $-1 #
coedge $-1 $128 $128 $127 $212 forward $79 $-1 #
coedge $-1 $129 $129 $80 $130 forward $124 $-1 #
edge $-1 $213 0 $213 6.2831853071796004 $129 $214 forward 7 unknown #
loop $-1 $-1 $136 $81 #
plane-surface $-1 -25.246376708563204 -16.757104298044137 106.57479867444289 0.73135370988377701 0 0.68199835119979291 0.68199835119979291 0 -0.73135370988377701 forward_v I I I I #
loop $-1 $-1 $215 $52 #
coedge $-1 $134 $134 $135 $216 reversed $82 $-1 #
coedge $-1 $135 $135 $134 $216 forward $84 $-1 #
coedge $-1 $136 $136 $85 $137 forward $131 $-1 #
edge $-1 $217 0 $217 6.2831853071796004 $136 $218 forward 7 unknown #
face $-1 $219 $220 $29 $-1 $221 forward single #
loop $-1 $-1 $222 $86 #
plane-surface $-1 -170.81044644786903 -12.472690680240195 99.728341166955644 0 -1 0 0.73135370988377701 0 -0.68199835119979291 forward_v I I I I #
coedge $-1 $223 $224 $225 $226 reversed $87 $-1 #
coedge $-1 $143 $89 $227 $228 reversed $56 $-1 #
coedge $-1 $89 $142 $223 $229 reversed $56 $-1 #
coedge $-1 $225 $230 $89 $145 forward $220 $-1 #
edge $-1 $231 16.04641710802521 $232 19.408351859840522 $144 $233 forward 7 unknown #
loop $-1 $-1 $151 $90 #
plane-surface $-1 -69.358806115909289 -16.757104298044137 5.1231583424831371 -0.73135370988377701 0 0.68199835119979291 0.68199835119979291 0 0.73135370988377701 forward_v I I I I #
loop $-1 $-1 $234 $58 #
coedge $-1 $149 $149 $150 $235 reversed $91 $-1 #
coedge $-1 $150 $150 $149 $235 forward $93 $-1 #
coedge $-1 $151 $151 $94 $152 forward $146 $-1 #
edge $-1 $236 0 $236 6.2831853071796004 $151 $237 forward 7 unknown #
loop $-1 $-1 $158 $95 #
plane-surface $-1 -69.358806115909289 -16.757104298044137 5.1231583424831371 -0.73135370988377701 0 0.68199835119979291 0.68199835119979291 0 0.73135370988377701 forward_v I I I I #
loop $-1 $-1 $238 $61 #
coedge $-1 $156 $156 $157 $239 reversed $96 $-1 #
coedge $-1 $157 $157 $156 $239 forward $98 $-1 #
coedge $-1 $158 $158 $99 $159 forward $153 $-1 #
edge $-1 $240 0 $240 6.2831853071796004 $158 $241 forward 7 unknown #
face $-1 $242 $243 $24 $-1 $244 reversed single #
loop $-1 $-1 $245 $100 #
plane-surface $-1 -69.358806115909303 0 0 1 0 0 0 0 -1 forward_v I I I I #
coedge $-1 $246 $171 $247 $248 forward $101 $-1 #
coedge $-1 $249 $103 $246 $250 forward $65 $-1 #
coedge $-1 $103 $249 $251 $252 forward $65 $-1 #
coedge $-1 $174 $173 $103 $167 reversed $175 $-1 #
edge $-1 $253 -31.693970758815933 $254 31.693970758815933 $166 $255 forward 7 unknown #
coedge $-1 $105 $104 $256 $257 forward $41 $-1 #
coedge $-1 $258 $259 $104 $170 reversed $243 $-1 #
edge $-1 $177 -69.358806115909303 $260 69.358806115909303 $169 $261 forward 7 unknown #
coedge $-1 $163 $262 $105 $172 reversed $101 $-1 #
edge $-1 $263 -69.358806115909303 $176 69.358806115909303 $171 $264 forward 7 unknown #
coedge $-1 $166 $106 $262 $265 forward $175 $-1 #
coedge $-1 $106 $166 $258 $266 reversed $175 $-1 #
loop $-1 $-1 $173 $242 #
vertex $-1 $107 $267 #
vertex $-1 $107 $268 #
straight-curve $-1 69.358806115909303 0 8.7283920630658631 0 1 0 I I #
face $-1 $269 $270 $25 $-1 $271 reversed single #
loop $-1 $-1 $185 $108 #
plane-surface $-1 69.358806115909303 0 0 -1 0 0 0 0 1 forward_v I I I I #
coedge $-1 $272 $273 $183 $274 forward $109 $-1 #
coedge $-1 $275 $111 $182 $274 reversed $69 $-1 #
coedge $-1 $111 $275 $112 $188 reversed $69 $-1 #
coedge $-1 $114 $276 $111 $186 forward $180 $-1 #
edge $-1 $277 -5.1141960315329316 $192 -2.1141960315329316 $185 $278 forward 7 unknown #
coedge $-1 $113 $112 $279 $280 reversed $44 $-1 #
edge $-1 $192 -69.358806115909303 $281 69.358806115909303 $184 $282 forward 7 unknown #
coedge $-1 $283 $284 $113 $190 forward $270 $-1 #
edge $-1 $193 -69.358806115909303 $285 69.358806115909303 $189 $286 forward 7 unknown #
coedge $-1 $276 $114 $284 $287 forward $180 $-1 #
vertex $-1 $115 $288 #
vertex $-1 $287 $289 #
straight-curve $-1 69.358806115909303 -13.183872168666003 -5.7283920630658631 0 -1 0 I I #
face $-1 $-1 $207 $26 $-1 $290 forward single #
loop $-1 $-1 $291 $116 #
plane-surface $-1 69.358806115909303 0 0 -1 0 0 0 0 1 forward_v I I I I #
coedge $-1 $292 $293 $294 $295 reversed $117 $-1 #
coedge $-1 $296 $119 $121 $205 forward $73 $-1 #
coedge $-1 $119 $296 $292 $297 forward $73 $-1 #
coedge $-1 $294 $122 $119 $202 forward $207 $-1 #
edge $-1 $209 4.0941385312181264 $298 12.66296576682601 $201 $299 forward 7 unknown #
coedge $-1 $300 $301 $120 $204 forward $196 $-1 #
edge $-1 $302 -95.466832406974547 $208 -91.861598686391829 $203 $303 forward 7 unknown #
edge $-1 $209 133.788077217693 $302 138.71761223181858 $121 $304 forward 7 unknown #
coedge $-1 $122 $294 $300 $305 forward $207 $-1 #
loop $-1 $-1 $294 $195 #
vertex $-1 $204 $306 #
vertex $-1 $123 $307 #
straight-curve $-1 38.102631811698267 -12.472690680240195 8.7283920630658685 -1 0 0 I I #
coedge $-1 $211 $211 $-1 $308 reversed $126 $-1 #
edge $-1 $309 0 $309 6.2831853071796004 $127 $310 forward 7 unknown #
vertex $-1 $130 $311 #
ellipse-curve $-1 67.677838740001675 -18.593281562817257 6.9257752027745045 0.73135370988377701 0 0.68199835119979291 0.34099917559989645 0 -0.36567685494188851 1 I I #
coedge $-1 $215 $215 $-1 $312 reversed $133 $-1 #
edge $-1 $313 0 $313 6.2831853071796004 $134 $314 forward 7 unknown #
vertex $-1 $137 $315 #
ellipse-curve $-1 67.677838740001675 -14.92092703327102 6.9257752027745045 0.73135370988377701 0 0.68199835119979291 0.34099917559989645 0 -0.36567685494188851 1 I I #
face $-1 $-1 $316 $29 $-1 $317 reversed single #
loop $-1 $-1 $144 $138 #
plane-surface $-1 0 0 8.7283920630658631 0 0 1 1 0 0 forward_v I I I I #
coedge $-1 $318 $319 $320 $321 reversed $139 $-1 #
coedge $-1 $322 $141 $143 $229 forward $87 $-1 #
coedge $-1 $141 $322 $318 $323 forward $87 $-1 #
coedge $-1 $320 $144 $141 $226 forward $220 $-1 #
edge $-1 $232 -12.66296576682601 $324 -4.0941385312181264 $225 $325 forward 7 unknown #
coedge $-1 $326 $327 $142 $228 forward $316 $-1 #
edge $-1 $328 -44.741012240994699 $231 -41.135778520411961 $227 $329 forward 7 unknown #
edge $-1 $232 -4.9295350141255874 $328 2.0734513383776317e-014 $143 $330 forward 7 unknown #
coedge $-1 $144 $320 $326 $331 forward $220 $-1 #
vertex $-1 $228 $332 #
vertex $-1 $145 $333 #
straight-curve $-1 -85.405223223934513 -21.041517915848079 8.7283920630658614 1 0 0 I I #
coedge $-1 $234 $234 $-1 $334 reversed $148 $-1 #
edge $-1 $335 0 $335 6.2831853071796004 $149 $336 forward 7 unknown #
vertex $-1 $152 $337 #
ellipse-curve $-1 -67.677838740001647 -18.593281562817257 6.9257752027744957 -0.73135370988377701 0 0.68199835119979291 0.34099917559989645 0 0.36567685494188851 1 I I #
coedge $-1 $238 $238 $-1 $338 reversed $155 $-1 #
edge $-1 $339 0 $339 6.2831853071796004 $156 $340 forward 7 unknown #
vertex $-1 $159 $341 #
ellipse-curve $-1 -67.677838740001647 -14.92092703327102 6.9257752027744957 -0.73135370988377701 0 0.68199835119979291 0.34099917559989645 0 0.36567685494188851 1 I I #
face $-1 $-1 $175 $24 $-1 $342 reversed single #
loop $-1 $-1 $258 $160 #
plane-surface $-1 0 31.693970758815933 0 0 -1 0 0 0 -1 forward_v I I I I #
coedge $-1 $343 $256 $259 $344 forward $161 $-1 #
coedge $-1 $262 $163 $164 $250 reversed $101 $-1 #
coedge $-1 $256 $343 $163 $248 reversed $161 $-1 #
edge $-1 $263 -8.7283920630658631 $345 8.7283920630658631 $247 $346 forward 7 unknown #
coedge $-1 $165 $164 $343 $347 forward $65 $-1 #
edge $-1 $254 -69.358806115909303 $345 69.358806115909303 $246 $348 forward 7 unknown #
coedge $-1 $259 $258 $165 $252 reversed $243 $-1 #
edge $-1 $349 -69.358806115909303 $253 69.358806115909303 $251 $350 forward 7 unknown #
vertex $-1 $167 $351 #
vertex $-1 $265 $352 #
straight-curve $-1 69.358806115909303 0 -8.7283920630658631 0 -1 0 I I #
coedge $-1 $245 $247 $168 $257 reversed $161 $-1 #
edge $-1 $260 -31.693970758815933 $263 31.693970758815933 $256 $353 forward 7 unknown #
coedge $-1 $251 $169 $174 $266 forward $243 $-1 #
coedge $-1 $169 $251 $245 $344 reversed $243 $-1 #
vertex $-1 $170 $354 #
straight-curve $-1 0 31.693970758815933 8.7283920630658631 -1 0 0 I I #
coedge $-1 $171 $246 $173 $265 reversed $101 $-1 #
vertex $-1 $257 $355 #
straight-curve $-1 0 -31.693970758815933 8.7283920630658631 1 0 0 I I #
edge $-1 $176 -8.7283920630658631 $254 8.7283920630658631 $173 $356 forward 7 unknown #
edge $-1 $177 -8.7283920630658631 $253 8.7283920630658631 $174 $357 forward 7 unknown #
point $-1 69.358806115909303 -31.693970758815933 8.7283920630658631 #
point $-1 69.358806115909303 31.693970758815933 8.7283920630658631 #
face $-1 $-1 $358 $25 $-1 $359 reversed single #
loop $-1 $-1 $189 $179 #
plane-surface $-1 0 -31.693970758815933 0 0 1 0 0 0 1 forward_v I I I I #
coedge $-1 $360 $182 $276 $361 forward $109 $-1 #
coedge $-1 $182 $360 $362 $363 forward $109 $-1 #
edge $-1 $364 -69.358806115909303 $277 69.358806115909303 $182 $365 forward 7 unknown #
coedge $-1 $184 $183 $366 $367 reversed $69 $-1 #
coedge $-1 $185 $191 $272 $361 reversed $180 $-1 #
vertex $-1 $361 $368 #
straight-curve $-1 69.358806115909303 -21.041517915848079 -3.6141960315329316 0 0 1 I I #
coedge $-1 $366 $369 $187 $280 forward $358 $-1 #
edge $-1 $285 -18.51009859014993 $281 -7.857645747182076 $279 $370 forward 7 unknown #
vertex $-1 $280 $371 #
straight-curve $-1 0 -21.041517915848079 -5.7283920630658631 -1 0 0 I I #
coedge $-1 $372 $189 $369 $373 forward $270 $-1 #
coedge $-1 $189 $372 $191 $287 reversed $270 $-1 #
vertex $-1 $373 $374 #
straight-curve $-1 0 -31.693970758815933 -5.7283920630658631 -1 0 0 I I #
edge $-1 $193 5.7283920630658631 $375 8.7283920630658631 $191 $376 forward 7 unknown #
point $-1 69.358806115909303 -21.041517915848079 -5.7283920630658631 #
point $-1 69.358806115909303 -31.693970758815933 -5.7283920630658631 #
plane-surface $-1 0 0 8.7283920630658631 0 0 1 1 0 0 forward_v I I I I #
coedge $-1 $301 $300 $293 $377 forward $196 $-1 #
coedge $-1 $293 $198 $200 $297 reversed $117 $-1 #
coedge $-1 $198 $292 $291 $377 reversed $117 $-1 #
coedge $-1 $206 $201 $198 $295 forward $207 $-1 #
edge $-1 $298 27.894239552395753 $378 31.256174304211036 $294 $379 forward 7 unknown #
coedge $-1 $200 $199 $301 $380 reversed $73 $-1 #
edge $-1 $381 -138.71761223181858 $298 -133.788077217693 $292 $382 forward 7 unknown #
vertex $-1 $202 $383 #
straight-curve $-1 65.996871364094005 -8.3785521490220685 8.7283920630658685 0 -1 0 I I #
coedge $-1 $291 $203 $206 $305 reversed $196 $-1 #
coedge $-1 $203 $291 $296 $380 forward $196 $-1 #
vertex $-1 $204 $384 #
straight-curve $-1 69.358806115909303 -12.472690680240195 100.5899907494577 0 0 1 I I #
straight-curve $-1 -25.246376708563204 -12.472690680240195 106.57479867444289 0.68199835119979291 0 -0.73135370988377701 I I #
edge $-1 $378 -21.041517915848079 $208 -12.472690680240195 $300 $385 forward 7 unknown #
point $-1 69.358806115909303 -12.472690680240195 8.7283920630658631 #
point $-1 65.996871364094019 -12.472690680240195 8.7283920630658685 #
edge $-1 $386 1 $386 0 $211 $-1 forward 7 unknown #
vertex $-1 $212 $387 #
ellipse-curve $-1 66.292134716916706 -18.593281562817257 5.6335853277206827 0.73135370988377701 0 0.68199835119979291 0.34099917559989645 0 -0.36567685494188851 1 I I #
point $-1 68.018837915601551 -18.593281562817257 6.5600983478325956 #
edge $-1 $388 1 $388 0 $215 $-1 forward 7 unknown #
vertex $-1 $216 $389 #
ellipse-curve $-1 66.292134716916706 -14.92092703327102 5.6335853277206827 0.73135370988377701 0 0.68199835119979291 0.34099917559989645 0 -0.36567685494188851 1 I I #
point $-1 68.018837915601551 -14.92092703327102 6.5600983478325956 #
loop $-1 $-1 $227 $219 #
plane-surface $-1 -69.358806115909303 0 0 1 0 0 0 0 -1 forward_v I I I I #
coedge $-1 $319 $222 $224 $323 reversed $139 $-1 #
coedge $-1 $222 $318 $390 $391 reversed $139 $-1 #
coedge $-1 $230 $225 $222 $321 forward $220 $-1 #
edge $-1 $324 -19.408351859840522 $392 -16.04641710802521 $320 $393 forward 7 unknown #
coedge $-1 $224 $223 $327 $394 reversed $87 $-1 #
edge $-1 $395 -2.0734513383776317e-014 $324 4.9295350141255874 $318 $396 forward 7 unknown #
vertex $-1 $226 $397 #
straight-curve $-1 -65.996871364093991 -8.3785521490220685 8.7283920630658631 0 1 0 I I #
coedge $-1 $390 $227 $230 $331 reversed $316 $-1 #
coedge $-1 $227 $390 $322 $394 forward $316 $-1 #
vertex $-1 $228 $398 #
straight-curve $-1 -69.358806115909303 -21.041517915848079 49.864170583477822 0 0 1 I I #
straight-curve $-1 -69.358806115909289 -21.041517915848079 5.1231583424831371 -0.68199835119979291 0 -0.73135370988377701 I I #
edge $-1 $392 12.472690680240195 $231 21.041517915848079 $326 $399 forward 7 unknown #
point $-1 -69.358806115909303 -21.041517915848079 8.7283920630658631 #
point $-1 -65.996871364093991 -21.041517915848079 8.7283920630658631 #
edge $-1 $400 1 $400 0 $234 $-1 forward 7 unknown #
vertex $-1 $235 $401 #
ellipse-curve $-1 -66.292134716916706 -18.593281562817257 5.6335853277207004 -0.73135370988377701 0 0.68199835119979291 0.34099917559989645 0 0.36567685494188851 1 I I #
point $-1 -67.336839564401757 -18.593281562817257 7.2914520577163904 #
edge $-1 $402 1 $402 0 $238 $-1 forward 7 unknown #
vertex $-1 $239 $403 #
ellipse-curve $-1 -66.292134716916706 -14.92092703327102 5.6335853277207004 -0.73135370988377701 0 0.68199835119979291 0.34099917559989645 0 0.36567685494188851 1 I I #
point $-1 -67.336839564401757 -14.92092703327102 7.2914520577163904 #
plane-surface $-1 69.358806115909303 0 0 -1 0 0 0 0 1 forward_v I I I I #
coedge $-1 $247 $245 $249 $347 reversed $161 $-1 #
edge $-1 $260 -8.7283920630658631 $349 8.7283920630658631 $259 $404 forward 7 unknown #
vertex $-1 $347 $405 #
straight-curve $-1 -69.358806115909303 -31.693970758815933 0 0 0 -1 I I #
edge $-1 $345 -31.693970758815933 $349 31.693970758815933 $343 $406 forward 7 unknown #
straight-curve $-1 0 -31.693970758815933 -8.7283920630658631 -1 0 0 I I #
vertex $-1 $252 $407 #
straight-curve $-1 0 31.693970758815933 -8.7283920630658631 1 0 0 I I #
point $-1 69.358806115909303 31.693970758815933 -8.7283920630658631 #
point $-1 69.358806115909303 -31.693970758815933 -8.7283920630658631 #
straight-curve $-1 -69.358806115909303 0 8.7283920630658631 0 -1 0 I I #
point $-1 -69.358806115909303 31.693970758815933 8.7283920630658631 #
point $-1 -69.358806115909303 -31.693970758815933 8.7283920630658631 #
straight-curve $-1 69.358806115909303 -31.693970758815933 0 0 0 -1 I I #
straight-curve $-1 69.358806115909303 31.693970758815933 0 0 0 -1 I I #
loop $-1 $-1 $366 $269 #
plane-surface $-1 -69.358806115909303 0 0 1 0 0 0 0 -1 forward_v I I I I #
coedge $-1 $273 $272 $372 $408 forward $109 $-1 #
edge $-1 $277 21.041517915848079 $375 31.693970758815933 $276 $409 forward 7 unknown #
coedge $-1 $369 $366 $273 $363 reversed $358 $-1 #
edge $-1 $410 -31.693970758815933 $364 -21.041517915848079 $362 $411 forward 7 unknown #
vertex $-1 $367 $412 #
straight-curve $-1 0 -21.041517915848079 -8.7283920630658631 1 0 0 I I #
coedge $-1 $362 $279 $275 $367 forward $358 $-1 #
edge $-1 $281 2.1141960315329316 $364 5.1141960315329316 $366 $413 forward 7 unknown #
point $-1 69.358806115909303 -21.041517915848079 -8.7283920630658631 #
coedge $-1 $279 $362 $283 $373 reversed $358 $-1 #
straight-curve $-1 -69.358806115909303 -13.183872168666003 -5.7283920630658631 0 1 0 I I #
point $-1 -69.358806115909303 -21.041517915848079 -5.7283920630658631 #
coedge $-1 $284 $283 $360 $408 reversed $270 $-1 #
edge $-1 $285 5.7283920630658631 $410 8.7283920630658631 $369 $414 forward 7 unknown #
point $-1 -69.358806115909303 -31.693970758815933 -5.7283920630658631 #
vertex $-1 $287 $415 #
straight-curve $-1 69.358806115909303 -31.693970758815933 0 0 0 -1 I I #
edge $-1 $378 91.861598686391829 $381 95.466832406974547 $291 $416 forward 7 unknown #
vertex $-1 $305 $417 #
straight-curve $-1 38.102631811698267 -21.041517915848079 8.7283920630658685 1 0 0 I I #
edge $-1 $381 -12.66296576682601 $302 -4.0941385312181264 $301 $418 forward 7 unknown #
vertex $-1 $380 $419 #
straight-curve $-1 -25.246376708563204 -21.041517915848079 106.57479867444289 -0.68199835119979291 0 0.73135370988377701 I I #
point $-1 65.996871364094019 -21.041517915848079 8.7283920630658685 #
point $-1 69.358806115909303 -12.472690680240195 5.1231583424831513 #
straight-curve $-1 69.358806115909303 0 8.7283920630658631 0 1 0 I I #
vertex $-1 $308 $420 #
point $-1 66.633133892516611 -18.593281562817257 5.2679084727787941 #
vertex $-1 $312 $421 #
point $-1 66.633133892516611 -14.92092703327102 5.2679084727787941 #
coedge $-1 $327 $326 $319 $391 forward $316 $-1 #
edge $-1 $392 41.135778520411961 $395 44.741012240994699 $390 $422 forward 7 unknown #
vertex $-1 $331 $423 #
straight-curve $-1 -85.405223223934513 -12.472690680240195 8.7283920630658614 -1 0 0 I I #
edge $-1 $395 4.0941385312181264 $328 12.66296576682601 $327 $424 forward 7 unknown #
vertex $-1 $394 $425 #
straight-curve $-1 -69.358806115909289 -12.472690680240195 5.1231583424831371 0.68199835119979291 0 0.73135370988377701 I I #
point $-1 -65.996871364093991 -12.472690680240195 8.7283920630658631 #
point $-1 -69.358806115909303 -21.041517915848079 5.123158342483122 #
straight-curve $-1 -69.358806115909303 0 8.7283920630658631 0 -1 0 I I #
vertex $-1 $334 $426 #
point $-1 -65.951135541316816 -18.593281562817257 5.9992621826625889 #
vertex $-1 $338 $427 #
point $-1 -65.951135541316816 -14.92092703327102 5.9992621826625889 #
straight-curve $-1 -69.358806115909303 31.693970758815933 0 0 0 -1 I I #
point $-1 -69.358806115909303 -31.693970758815933 -8.7283920630658631 #
straight-curve $-1 -69.358806115909303 0 -8.7283920630658631 0 1 0 I I #
point $-1 -69.358806115909303 31.693970758815933 -8.7283920630658631 #
edge $-1 $375 -69.358806115909303 $410 69.358806115909303 $372 $428 forward 7 unknown #
straight-curve $-1 69.358806115909303 0 -8.7283920630658631 0 -1 0 I I #
vertex $-1 $363 $429 #
straight-curve $-1 -69.358806115909303 0 -8.7283920630658631 0 1 0 I I #
point $-1 -69.358806115909303 -21.041517915848079 -8.7283920630658631 #
straight-curve $-1 -69.358806115909303 -21.041517915848079 -3.6141960315329316 0 0 -1 I I #
straight-curve $-1 -69.358806115909303 -31.693970758815933 0 0 0 -1 I I #
point $-1 69.358806115909303 -31.693970758815933 -8.7283920630658631 #
straight-curve $-1 69.358806115909303 -21.041517915848079 100.5899907494577 0 0 -1 I I #
point $-1 69.358806115909303 -21.041517915848079 8.7283920630658631 #
straight-curve $-1 69.358806115909303 -8.3785521490220685 5.1231583424831513 0 1 0 I I #
point $-1 69.358806115909303 -21.041517915848079 5.1231583424831513 #
point $-1 65.926457861974825 -18.593281562817257 5.2925861521207853 #
point $-1 65.926457861974825 -14.92092703327102 5.2925861521207853 #
straight-curve $-1 -69.358806115909303 -12.472690680240195 49.864170583477822 0 0 -1 I I #
point $-1 -69.358806115909303 -12.472690680240195 8.7283920630658631 #
straight-curve $-1 -69.358806115909303 -8.3785521490220685 5.1231583424831193 0 -1 0 I I #
point $-1 -69.358806115909303 -12.472690680240195 5.123158342483122 #
point $-1 -65.926457861974825 -18.593281562817257 5.2925861521208031 #
point $-1 -65.926457861974825 -14.92092703327102 5.2925861521208031 #
straight-curve $-1 0 -31.693970758815933 -8.7283920630658631 -1 0 0 I I #
point $-1 -69.358806115909303 -31.693970758815933 -8.7283920630658631 #
End-of-ACIS-data 