500 0 9 0           
7 Unknown 11 ACIS 5.0 NT 24 Thu Mar 25 15:54:05 1999 
-1 9.9999999999999995e-007 1e-010 
body $-1 $9 $-1 $10 #
body $-1 $11 $-1 $12 #
body $-1 $13 $-1 $14 #
body $-1 $15 $-1 $16 #
body $-1 $17 $-1 $18 #
body $-1 $19 $-1 $20 #
body $-1 $21 $-1 $22 #
body $-1 $23 $-1 $24 #
body $-1 $25 $-1 $26 #
lump $-1 $-1 $27 $0 #
transform $-1 1 0 0 0 1 0 0 0 1 50.179754020813618 27.031706537015644 12.160101856326923 1 rotate no_reflect no_shear #
lump $-1 $-1 $28 $1 #
transform $-1 1 0 0 0 1 0 0 0 1 50.179754020813618 27.031706537015644 12.160101856326923 1 rotate no_reflect no_shear #
lump $-1 $-1 $29 $2 #
transform $-1 1 0 0 0 1 0 0 0 1 50.179754020813618 27.031706537015644 12.160101856326923 1 rotate no_reflect no_shear #
lump $-1 $-1 $30 $3 #
transform $-1 1 0 0 0 1 0 0 0 1 50.179754020813618 27.031706537015644 12.160101856326923 1 rotate no_reflect no_shear #
lump $-1 $-1 $31 $4 #
transform $-1 1 0 0 0 1 0 0 0 1 50.179754020813618 27.031706537015644 12.160101856326923 1 rotate no_reflect no_shear #
lump $-1 $-1 $32 $5 #
transform $-1 1 0 0 0 1 0 0 0 1 50.179754020813618 27.031706537015644 12.160101856326923 1 rotate no_reflect no_shear #
lump $-1 $-1 $33 $6 #
transform $-1 1 0 0 0 1 0 0 0 1 50.179754020813618 27.031706537015644 12.160101856326923 1 rotate no_reflect no_shear #
lump $-1 $-1 $34 $7 #
transform $-1 1 0 0 0 1 0 0 0 1 50.179754020813618 27.031706537015644 12.160101856326923 1 rotate no_reflect no_shear #
lump $-1 $-1 $35 $8 #
transform $-1 1 0 0 0 1 0 0 0 1 50.179754020813618 27.031706537015644 12.160101856326923 1 rotate no_reflect no_shear #
shell $-1 $-1 $-1 $36 $-1 $9 #
shell $-1 $-1 $-1 $37 $-1 $11 #
shell $-1 $-1 $-1 $38 $-1 $13 #
shell $-1 $-1 $-1 $39 $-1 $15 #
shell $-1 $-1 $-1 $40 $-1 $17 #
shell $-1 $-1 $-1 $41 $-1 $19 #
shell $-1 $-1 $-1 $42 $-1 $21 #
shell $-1 $-1 $-1 $43 $-1 $23 #
shell $-1 $-1 $-1 $44 $-1 $25 #
face $-1 $45 $46 $27 $-1 $47 forward single #
face $-1 $48 $49 $28 $-1 $50 reversed single #
face $-1 $51 $52 $29 $-1 $53 reversed single #
face $-1 $54 $55 $30 $-1 $56 forward single #
face $-1 $57 $58 $31 $-1 $59 forward single #
face $-1 $60 $61 $32 $-1 $62 reversed single #
face $-1 $63 $64 $33 $-1 $65 forward single #
face $-1 $66 $67 $34 $-1 $68 reversed single #
face $-1 $69 $70 $35 $-1 $71 forward single #
face $-1 $72 $73 $27 $-1 $74 reversed single #
loop $-1 $-1 $75 $36 #
plane-surface $-1 0 0 12.160101856326923 0 0 1 1 0 0 forward_v I I I I #
face $-1 $76 $77 $28 $-1 $78 reversed single #
loop $-1 $-1 $79 $37 #
plane-surface $-1 -44.659122702052386 -24.031706537015644 0 0 -1 0 0 0 -1 forward_v I I I I #
face $-1 $80 $81 $29 $-1 $82 reversed single #
loop $-1 $-1 $83 $38 #
plane-surface $-1 37.789469662522414 -90.189992167613838 81.034959517658564 -1 0 0 0 -0.62932039886446345 0.77714595512881146 forward_v I I I I #
face $-1 $84 $85 $30 $-1 $86 forward single #
loop $-1 $87 $88 $39 #
cone-surface $-1 31.324703930988306 -20.487488348868524 6.4723041375230181 0 0.62932039886446345 -0.77714595512881146 1 0 0 1 I I 0 1 1 forward I I I I #
face $-1 $89 $90 $31 $-1 $91 forward single #
loop $-1 $92 $93 $40 #
cone-surface $-1 35.203563369908764 -20.487488348868524 6.4723041375230181 0 0.62932039886446345 -0.77714595512881146 1 0 0 1 I I 0 1 1 forward I I I I #
face $-1 $94 $95 $32 $-1 $96 reversed single #
loop $-1 $-1 $97 $41 #
plane-surface $-1 -9.6997515927930742 55.937250386770025 117.96749790341147 1 0 0 0 -0.68199836817093118 -0.7313536940579346 forward_v I I I I #
face $-1 $98 $99 $33 $-1 $100 forward single #
loop $-1 $101 $102 $42 #
cone-surface $-1 -2.0895601370159227 24.249537486558882 9.5111887458409239 0 -0.68199836817093118 -0.7313536940579346 0.5 0 0 1 I I 0 1 0.5 forward I I I I #
face $-1 $103 $104 $34 $-1 $105 reversed single #
loop $-1 $-1 $106 $43 #
plane-surface $-1 -2.0895601370159227 -12.507770328057198 44.569200963330402 0 0.68199836817093118 0.7313536940579346 1 0 0 forward_v I I I I #
face $-1 $107 $108 $35 $-1 $109 forward single #
loop $-1 $110 $111 $44 #
cone-surface $-1 13.130822774538373 24.249537486558882 9.5111887458409239 0 -0.68199836817093118 -0.7313536940579346 0.5 0 0 1 I I 0 1 0.5 forward I I I I #
face $-1 $112 $113 $27 $-1 $114 reversed single #
loop $-1 $-1 $115 $45 #
plane-surface $-1 0 0 -12.160101856326923 0 0 1 1 0 0 forward_v I I I I #
coedge $-1 $116 $117 $118 $119 forward $46 $-1 #
face $-1 $120 $121 $28 $-1 $122 forward single #
loop $-1 $-1 $123 $48 #
plane-surface $-1 -39.138491383291154 -25.531706537015644 0 -1 0 0 0 0 1 forward_v I I I I #
coedge $-1 $124 $125 $126 $127 forward $49 $-1 #
face $-1 $128 $129 $29 $-1 $130 reversed single #
loop $-1 $-1 $131 $51 #
plane-surface $-1 33.264133650448542 -27.031706537015658 3.0409737843905305 0 -0.62932039886446345 0.77714595512881146 1 0 0 forward_v I I I I #
coedge $-1 $132 $133 $134 $135 reversed $52 $-1 #
face $-1 $-1 $136 $30 $-1 $137 forward single #
loop $-1 $138 $139 $54 #
cone-surface $-1 31.324703930988306 -19.259202508578646 4.9554974771229059 0 0.62932039886446345 -0.77714595512881146 0.5 0 0 1 I I -0.70710678118654746 0.70710678118654746 0.5 forward I I I I #
loop $-1 $-1 $140 $39 #
coedge $-1 $88 $88 $141 $142 reversed $55 $-1 #
face $-1 $-1 $143 $31 $-1 $144 forward single #
loop $-1 $145 $146 $57 #
cone-surface $-1 35.203563369908764 -19.259202508578646 4.9554974771229059 0 0.62932039886446345 -0.77714595512881146 0.5 0 0 1 I I -0.70710678118654746 0.70710678118654746 0.5 forward I I I I #
loop $-1 $-1 $147 $40 #
coedge $-1 $93 $93 $148 $149 reversed $58 $-1 #
face $-1 $150 $151 $32 $-1 $152 reversed single #
loop $-1 $-1 $153 $60 #
plane-surface $-1 -2.0895601370159227 -12.507770328057198 44.569200963330402 0 0.68199836817093118 0.7313536940579346 1 0 0 forward_v I I I I #
coedge $-1 $154 $155 $156 $157 reversed $61 $-1 #
face $-1 $-1 $158 $33 $-1 $159 forward single #
loop $-1 $160 $161 $63 #
cone-surface $-1 -2.0895601370159227 23.689355761636108 8.9104674054588688 0 -0.68199836817093118 -0.7313536940579346 0.25 0 0 1 I I -0.70710678118654746 0.70710678118654746 0.25 forward I I I I #
loop $-1 $-1 $162 $42 #
coedge $-1 $102 $102 $163 $164 reversed $64 $-1 #
face $-1 $165 $166 $34 $-1 $167 reversed single #
loop $-1 $-1 $168 $66 #
plane-surface $-1 20.741014230315525 55.937250386770025 117.96749790341147 -1 0 0 0 0.68199836817093118 0.7313536940579346 forward_v I I I I #
coedge $-1 $169 $170 $171 $172 reversed $67 $-1 #
face $-1 $-1 $173 $35 $-1 $174 forward single #
loop $-1 $175 $176 $69 #
cone-surface $-1 13.130822774538373 23.689355761636108 8.9104674054588688 0 -0.68199836817093118 -0.7313536940579346 0.25 0 0 1 I I -0.70710678118654746 0.70710678118654746 0.25 forward I I I I #
loop $-1 $-1 $177 $44 #
coedge $-1 $111 $111 $178 $179 reversed $70 $-1 #
face $-1 $180 $181 $27 $-1 $182 reversed single #
loop $-1 $-1 $183 $72 #
plane-surface $-1 0 -27.031706537015644 0 0 1 0 0 0 1 forward_v I I I I #
coedge $-1 $184 $185 $186 $187 forward $73 $-1 #
coedge $-1 $188 $75 $189 $190 forward $46 $-1 #
coedge $-1 $75 $188 $191 $192 forward $46 $-1 #
coedge $-1 $193 $194 $75 $119 reversed $195 $-1 #
edge $-1 $196 -27.031706537015644 $197 27.031706537015644 $118 $198 forward 7 unknown #
face $-1 $199 $200 $28 $-1 $201 reversed single #
loop $-1 $-1 $202 $76 #
plane-surface $-1 0 0 12.160101856326923 0 0 1 1 0 0 forward_v I I I I #
coedge $-1 $203 $204 $205 $206 reversed $77 $-1 #
coedge $-1 $207 $79 $208 $209 reversed $49 $-1 #
coedge $-1 $79 $207 $210 $211 reversed $49 $-1 #
coedge $-1 $204 $203 $79 $127 reversed $77 $-1 #
edge $-1 $212 -12.160101856326923 $213 12.160101856326923 $126 $214 forward 7 unknown #
face $-1 $215 $216 $29 $-1 $217 forward single #
loop $-1 $-1 $218 $80 #
plane-surface $-1 28.73879763837467 -90.189992167613838 81.034959517658564 1 0 0 0 0.62932039886446345 -0.77714595512881146 forward_v I I I I #
coedge $-1 $219 $220 $221 $222 reversed $81 $-1 #
coedge $-1 $133 $83 $223 $224 reversed $52 $-1 #
coedge $-1 $83 $132 $219 $225 reversed $52 $-1 #
coedge $-1 $221 $226 $83 $135 forward $216 $-1 #
edge $-1 $227 18.063289546791275 $228 29.324474641370195 $134 $229 forward 7 unknown #
loop $-1 $-1 $141 $84 #
plane-surface $-1 33.264133650448542 -27.031706537015658 3.0409737843905305 0 -0.62932039886446345 0.77714595512881146 1 0 0 forward_v I I I I #
loop $-1 $-1 $230 $54 #
coedge $-1 $139 $139 $140 $231 reversed $85 $-1 #
coedge $-1 $140 $140 $139 $231 forward $87 $-1 #
coedge $-1 $141 $141 $88 $142 forward $136 $-1 #
edge $-1 $232 -1.1854314377606828e-015 $232 6.2831853071795996 $141 $233 forward 7 unknown #
loop $-1 $-1 $148 $89 #
plane-surface $-1 33.264133650448542 -27.031706537015658 3.0409737843905305 0 -0.62932039886446345 0.77714595512881146 1 0 0 forward_v I I I I #
loop $-1 $-1 $234 $57 #
coedge $-1 $146 $146 $147 $235 reversed $90 $-1 #
coedge $-1 $147 $147 $146 $235 forward $92 $-1 #
coedge $-1 $148 $148 $93 $149 forward $143 $-1 #
edge $-1 $236 -1.1854314377606828e-015 $236 6.2831853071795996 $148 $237 forward 7 unknown #
face $-1 $238 $239 $32 $-1 $240 reversed single #
loop $-1 $-1 $241 $94 #
plane-surface $-1 5.5206313187612288 55.937250386770025 117.96749790341147 -1 0 0 0 0.68199836817093118 0.7313536940579346 forward_v I I I I #
coedge $-1 $242 $243 $244 $245 reversed $95 $-1 #
coedge $-1 $155 $97 $246 $247 reversed $61 $-1 #
coedge $-1 $97 $154 $242 $248 reversed $61 $-1 #
coedge $-1 $244 $249 $97 $157 forward $250 $-1 #
edge $-1 $251 0.93691865636936811 $252 5.7218924915228264 $156 $253 forward 7 unknown #
loop $-1 $-1 $163 $98 #
plane-surface $-1 -2.0895601370159227 -12.507770328057198 44.569200963330402 0 0.68199836817093118 0.7313536940579346 1 0 0 forward_v I I I I #
loop $-1 $-1 $254 $63 #
coedge $-1 $161 $161 $162 $255 reversed $99 $-1 #
coedge $-1 $162 $162 $161 $255 forward $101 $-1 #
coedge $-1 $163 $163 $102 $164 forward $158 $-1 #
edge $-1 $256 7.0138136560165447e-016 $256 6.2831853071796013 $163 $257 forward 7 unknown #
face $-1 $258 $259 $34 $-1 $260 forward single #
loop $-1 $-1 $261 $103 #
plane-surface $-1 0 27.031706537015644 0 0 -1 0 0 0 -1 forward_v I I I I #
coedge $-1 $262 $263 $264 $265 reversed $104 $-1 #
coedge $-1 $266 $106 $267 $268 reversed $67 $-1 #
coedge $-1 $106 $266 $269 $270 reversed $67 $-1 #
coedge $-1 $271 $272 $106 $172 forward $259 $-1 #
edge $-1 $273 -54.063413074031317 $274 -47.520786880945579 $171 $275 forward 7 unknown #
loop $-1 $-1 $178 $107 #
plane-surface $-1 -2.0895601370159227 -12.507770328057198 44.569200963330402 0 0.68199836817093118 0.7313536940579346 1 0 0 forward_v I I I I #
loop $-1 $-1 $276 $69 #
coedge $-1 $176 $176 $177 $277 reversed $108 $-1 #
coedge $-1 $177 $177 $176 $277 forward $110 $-1 #
coedge $-1 $178 $178 $111 $179 forward $173 $-1 #
edge $-1 $278 7.0138136560165447e-016 $278 6.2831853071796013 $178 $279 forward 7 unknown #
face $-1 $280 $281 $27 $-1 $282 reversed single #
loop $-1 $-1 $283 $112 #
plane-surface $-1 -50.179754020813618 0 0 1 0 0 0 0 -1 forward_v I I I I #
coedge $-1 $284 $191 $285 $286 forward $113 $-1 #
coedge $-1 $287 $115 $284 $288 forward $73 $-1 #
coedge $-1 $115 $287 $289 $290 forward $73 $-1 #
coedge $-1 $194 $193 $115 $187 reversed $195 $-1 #
edge $-1 $291 -27.031706537015644 $292 27.031706537015644 $186 $293 forward 7 unknown #
coedge $-1 $117 $116 $294 $295 forward $46 $-1 #
coedge $-1 $296 $297 $116 $190 reversed $281 $-1 #
edge $-1 $197 -50.179754020813618 $298 50.179754020813618 $189 $299 forward 7 unknown #
coedge $-1 $183 $300 $117 $192 reversed $113 $-1 #
edge $-1 $301 -50.179754020813618 $196 50.179754020813618 $191 $302 forward 7 unknown #
coedge $-1 $186 $118 $300 $303 forward $195 $-1 #
coedge $-1 $118 $186 $296 $304 reversed $195 $-1 #
loop $-1 $-1 $193 $280 #
vertex $-1 $119 $305 #
vertex $-1 $119 $306 #
straight-curve $-1 50.179754020813618 0 12.160101856326923 0 1 0 I I #
face $-1 $307 $308 $28 $-1 $309 reversed single #
loop $-1 $-1 $310 $120 #
plane-surface $-1 -50.179754020813618 0 0 1 0 0 0 0 -1 forward_v I I I I #
coedge $-1 $210 $311 $204 $312 forward $121 $-1 #
coedge $-1 $126 $123 $313 $314 reversed $77 $-1 #
coedge $-1 $123 $126 $202 $312 reversed $77 $-1 #
coedge $-1 $315 $316 $123 $206 forward $317 $-1 #
edge $-1 $318 -12.160101856326923 $319 12.160101856326923 $205 $320 forward 7 unknown #
coedge $-1 $125 $124 $310 $321 reversed $49 $-1 #
coedge $-1 $313 $322 $124 $209 forward $308 $-1 #
edge $-1 $323 -27.850192669787425 $213 -16.808930032264961 $208 $324 forward 7 unknown #
coedge $-1 $325 $202 $125 $211 forward $121 $-1 #
edge $-1 $212 16.808930032264961 $326 27.850192669787425 $210 $327 forward 7 unknown #
vertex $-1 $211 $328 #
vertex $-1 $209 $329 #
straight-curve $-1 -39.138491383291154 -24.031706537015644 0 0 0 -1 I I #
face $-1 $-1 $330 $29 $-1 $331 reversed single #
loop $-1 $-1 $134 $128 #
plane-surface $-1 0 0 12.160101856326923 0 0 1 1 0 0 forward_v I I I I #
coedge $-1 $332 $333 $334 $335 reversed $129 $-1 #
coedge $-1 $336 $131 $133 $225 forward $81 $-1 #
coedge $-1 $131 $336 $332 $337 forward $81 $-1 #
coedge $-1 $334 $134 $131 $222 forward $216 $-1 #
edge $-1 $228 -21.157402837298143 $338 -12.106730813150399 $221 $339 forward 7 unknown #
coedge $-1 $340 $341 $132 $224 forward $330 $-1 #
edge $-1 $342 -37.476505974438737 $227 -28.357377902502357 $223 $343 forward 7 unknown #
edge $-1 $228 -14.490437761736018 $342 -1.8310242626372826e-014 $133 $344 forward 7 unknown #
coedge $-1 $134 $334 $340 $345 forward $216 $-1 #
vertex $-1 $224 $346 #
vertex $-1 $135 $347 #
straight-curve $-1 37.789469662522414 -45.094996083806919 12.160101856326925 0 1 0 I I #
coedge $-1 $230 $230 $-1 $348 reversed $138 $-1 #
edge $-1 $349 0 $349 6.2831853071796004 $139 $350 forward 7 unknown #
vertex $-1 $142 $351 #
ellipse-curve $-1 31.324703930988306 -21.401113989726181 7.6005378203587348 0 -0.62932039886446345 0.77714595512881146 1 0 0 1 I I #
coedge $-1 $234 $234 $-1 $352 reversed $145 $-1 #
edge $-1 $353 0 $353 6.2831853071796004 $146 $354 forward 7 unknown #
vertex $-1 $149 $355 #
ellipse-curve $-1 35.203563369908764 -21.401113989726181 7.6005378203587348 0 -0.62932039886446345 0.77714595512881146 1 0 0 1 I I #
face $-1 $-1 $250 $32 $-1 $356 forward single #
loop $-1 $-1 $357 $150 #
plane-surface $-1 0 27.031706537015644 0 0 -1 0 0 0 -1 forward_v I I I I #
coedge $-1 $358 $359 $360 $361 reversed $151 $-1 #
coedge $-1 $362 $153 $155 $248 forward $95 $-1 #
coedge $-1 $153 $362 $358 $363 forward $95 $-1 #
coedge $-1 $360 $156 $153 $245 forward $250 $-1 #
edge $-1 $252 -8.6549715242851128 $364 6.5654113872691902 $244 $365 forward 7 unknown #
coedge $-1 $366 $367 $154 $247 forward $239 $-1 #
edge $-1 $368 -51.285707482615678 $251 -46.82364709537881 $246 $369 forward 7 unknown #
edge $-1 $252 47.520786880945579 $368 54.063413074031317 $155 $370 forward 7 unknown #
coedge $-1 $156 $360 $366 $371 forward $250 $-1 #
loop $-1 $-1 $360 $238 #
vertex $-1 $247 $372 #
vertex $-1 $157 $373 #
straight-curve $-1 -9.6997515927930742 27.968625193385012 12.160101856326925 0 -1 0 I I #
coedge $-1 $254 $254 $-1 $374 reversed $160 $-1 #
edge $-1 $375 0 $375 6.2831853071796004 $161 $376 forward 7 unknown #
vertex $-1 $164 $377 #
ellipse-curve $-1 -2.0895601370159227 24.639219619438915 9.9290716627084876 0 0.68199836817093118 0.7313536940579346 0.5 0 0 1 I I #
face $-1 $-1 $378 $34 $-1 $379 forward single #
loop $-1 $-1 $271 $165 #
plane-surface $-1 5.5206313187612288 55.937250386770025 117.96749790341147 -1 0 0 0 0.68199836817093118 0.7313536940579346 forward_v I I I I #
coedge $-1 $267 $380 $263 $381 forward $166 $-1 #
coedge $-1 $263 $168 $266 $382 reversed $104 $-1 #
coedge $-1 $168 $262 $261 $381 reversed $104 $-1 #
coedge $-1 $383 $269 $168 $265 forward $378 $-1 #
edge $-1 $384 -5.7218924915228264 $385 -0.93691865636936811 $264 $386 forward 7 unknown #
coedge $-1 $170 $169 $262 $382 forward $67 $-1 #
coedge $-1 $387 $261 $169 $268 forward $166 $-1 #
edge $-1 $388 -21.785794298823486 $273 -6.5654113872691902 $267 $389 forward 7 unknown #
coedge $-1 $264 $390 $170 $270 forward $378 $-1 #
edge $-1 $274 6.5654113872691902 $384 21.785794298823486 $269 $391 forward 7 unknown #
coedge $-1 $272 $171 $390 $392 reversed $259 $-1 #
coedge $-1 $171 $271 $387 $393 reversed $259 $-1 #
vertex $-1 $268 $394 #
vertex $-1 $270 $395 #
straight-curve $-1 5.5206313187612288 -12.507770328057198 44.569200963330402 0 -0.7313536940579346 0.68199836817093118 I I #
coedge $-1 $276 $276 $-1 $396 reversed $175 $-1 #
edge $-1 $397 0 $397 6.2831853071796004 $176 $398 forward 7 unknown #
vertex $-1 $179 $399 #
ellipse-curve $-1 13.130822774538373 24.639219619438915 9.9290716627084876 0 0.68199836817093118 0.7313536940579346 0.5 0 0 1 I I #
face $-1 $-1 $195 $27 $-1 $400 reversed single #
loop $-1 $-1 $296 $180 #
plane-surface $-1 0 27.031706537015644 0 0 -1 0 0 0 -1 forward_v I I I I #
coedge $-1 $401 $294 $297 $402 forward $181 $-1 #
coedge $-1 $300 $183 $184 $288 reversed $113 $-1 #
coedge $-1 $294 $401 $183 $286 reversed $181 $-1 #
edge $-1 $301 -12.160101856326923 $403 12.160101856326923 $285 $404 forward 7 unknown #
coedge $-1 $185 $184 $401 $405 forward $73 $-1 #
edge $-1 $292 -50.179754020813618 $403 50.179754020813618 $284 $406 forward 7 unknown #
coedge $-1 $297 $296 $185 $290 reversed $281 $-1 #
edge $-1 $407 -50.179754020813618 $291 50.179754020813618 $289 $408 forward 7 unknown #
vertex $-1 $187 $409 #
vertex $-1 $303 $410 #
straight-curve $-1 50.179754020813618 0 -12.160101856326923 0 -1 0 I I #
coedge $-1 $283 $285 $188 $295 reversed $181 $-1 #
edge $-1 $298 -27.031706537015644 $301 27.031706537015644 $294 $411 forward 7 unknown #
coedge $-1 $289 $189 $194 $304 forward $281 $-1 #
coedge $-1 $189 $289 $283 $402 reversed $281 $-1 #
vertex $-1 $190 $412 #
straight-curve $-1 0 27.031706537015644 12.160101856326923 -1 0 0 I I #
coedge $-1 $191 $284 $193 $303 reversed $113 $-1 #
vertex $-1 $295 $413 #
straight-curve $-1 0 -27.031706537015644 12.160101856326923 1 0 0 I I #
edge $-1 $196 -12.160101856326923 $292 12.160101856326923 $193 $414 forward 7 unknown #
edge $-1 $197 -12.160101856326923 $291 12.160101856326923 $194 $415 forward 7 unknown #
point $-1 50.179754020813618 -27.031706537015644 12.160101856326923 #
point $-1 50.179754020813618 27.031706537015644 12.160101856326923 #
face $-1 $-1 $317 $28 $-1 $416 reversed single #
loop $-1 $-1 $313 $199 #
plane-surface $-1 0 0 -12.160101856326923 0 0 1 1 0 0 forward_v I I I I #
coedge $-1 $417 $418 $207 $321 forward $200 $-1 #
coedge $-1 $202 $325 $315 $419 forward $121 $-1 #
edge $-1 $319 -14.265853268507822 $212 -11.265853268507822 $202 $420 forward 7 unknown #
coedge $-1 $421 $208 $203 $314 forward $308 $-1 #
edge $-1 $213 11.265853268507822 $318 14.265853268507822 $313 $422 forward 7 unknown #
coedge $-1 $423 $205 $311 $419 reversed $317 $-1 #
coedge $-1 $205 $423 $421 $424 reversed $317 $-1 #
loop $-1 $-1 $205 $307 #
vertex $-1 $424 $425 #
vertex $-1 $206 $426 #
straight-curve $-1 -39.138491383291154 -27.031706537015644 0 0 0 1 I I #
edge $-1 $326 -12.160101856326923 $323 12.160101856326923 $310 $427 forward 7 unknown #
coedge $-1 $208 $421 $417 $428 forward $308 $-1 #
vertex $-1 $209 $429 #
straight-curve $-1 -22.329561351026193 -24.031706537015644 -12.160101856326923 1 0 0 I I #
coedge $-1 $311 $210 $418 $430 forward $121 $-1 #
vertex $-1 $430 $431 #
straight-curve $-1 -22.329561351026193 -24.031706537015644 12.160101856326923 -1 0 0 I I #
point $-1 -39.138491383291154 -24.031706537015644 12.160101856326923 #
point $-1 -39.138491383291154 -24.031706537015644 -12.160101856326923 #
loop $-1 $-1 $223 $215 #
plane-surface $-1 0 -27.031706537015644 0 0 1 0 0 0 1 forward_v I I I I #
coedge $-1 $333 $218 $220 $337 reversed $129 $-1 #
coedge $-1 $218 $332 $432 $433 reversed $129 $-1 #
coedge $-1 $226 $221 $218 $335 forward $216 $-1 #
edge $-1 $338 -29.324474641370195 $434 -18.063289546791275 $334 $435 forward 7 unknown #
coedge $-1 $220 $219 $341 $436 reversed $81 $-1 #
edge $-1 $437 1.8310242626372826e-014 $338 14.490437761736018 $332 $438 forward 7 unknown #
vertex $-1 $222 $439 #
straight-curve $-1 16.632066825224271 -15.770521442436728 12.160101856326923 -1 0 0 I I #
coedge $-1 $432 $223 $226 $345 reversed $330 $-1 #
coedge $-1 $223 $432 $336 $436 forward $330 $-1 #
vertex $-1 $224 $440 #
straight-curve $-1 37.789469662522414 -27.031706537015644 40.517479758829282 0 0 1 I I #
straight-curve $-1 37.789469662522414 -27.031706537015658 3.0409737843905305 0 -0.77714595512881146 -0.62932039886446345 I I #
edge $-1 $434 28.73879763837467 $227 37.789469662522414 $340 $441 forward 7 unknown #
point $-1 37.789469662522414 -27.031706537015644 12.160101856326923 #
point $-1 37.789469662522414 -15.770521442436724 12.160101856326923 #
edge $-1 $442 1 $442 0 $230 $-1 forward 7 unknown #
vertex $-1 $231 $443 #
ellipse-curve $-1 31.324703930988306 -19.573862708010878 5.3440704546873112 0 -0.62932039886446345 0.77714595512881146 1 0 0 1 I I #
point $-1 32.324703930988306 -21.401113989726174 7.6005378203587242 #
edge $-1 $444 1 $444 0 $234 $-1 forward 7 unknown #
vertex $-1 $235 $445 #
ellipse-curve $-1 35.203563369908764 -19.573862708010878 5.3440704546873112 0 -0.62932039886446345 0.77714595512881146 1 0 0 1 I I #
point $-1 36.203563369908764 -21.401113989726174 7.6005378203587242 #
plane-surface $-1 0 0 12.160101856326923 0 0 1 1 0 0 forward_v I I I I #
coedge $-1 $367 $366 $359 $446 forward $239 $-1 #
coedge $-1 $359 $241 $243 $363 reversed $151 $-1 #
coedge $-1 $241 $358 $357 $446 reversed $151 $-1 #
coedge $-1 $249 $244 $241 $361 forward $250 $-1 #
edge $-1 $364 -5.7218924915228264 $447 -0.93691865636936811 $360 $448 forward 7 unknown #
coedge $-1 $243 $242 $367 $449 reversed $95 $-1 #
edge $-1 $450 -54.063413074031317 $364 -47.520786880945579 $358 $451 forward 7 unknown #
vertex $-1 $245 $452 #
straight-curve $-1 -1.0447800685079613 22.246732701862179 12.160101856326925 1 0 0 I I #
coedge $-1 $357 $246 $249 $371 reversed $239 $-1 #
coedge $-1 $246 $357 $362 $449 forward $239 $-1 #
vertex $-1 $247 $453 #
straight-curve $-1 -9.6997515927930742 27.031706537015644 58.983748951705735 0 0 1 I I #
straight-curve $-1 -9.6997515927930742 -12.507770328057198 44.569200963330402 0 0.7313536940579346 -0.68199836817093118 I I #
edge $-1 $447 -5.5206313187612288 $251 9.6997515927930742 $366 $454 forward 7 unknown #
point $-1 -9.6997515927930742 27.031706537015644 12.160101856326923 #
point $-1 -9.6997515927930742 22.246732701862186 12.160101856326925 #
edge $-1 $455 1 $455 0 $254 $-1 forward 7 unknown #
vertex $-1 $255 $456 #
ellipse-curve $-1 -2.0895601370159227 23.859855353678842 9.093305828973353 0 0.68199836817093118 0.7313536940579346 0.5 0 0 1 I I #
point $-1 -1.5895601370159227 24.639219619438922 9.9290716627084947 #
loop $-1 $-1 $264 $258 #
plane-surface $-1 0 0 12.160101856326923 0 0 1 1 0 0 forward_v I I I I #
coedge $-1 $261 $387 $383 $457 reversed $166 $-1 #
edge $-1 $385 46.82364709537881 $388 51.285707482615678 $261 $458 forward 7 unknown #
edge $-1 $388 -54.063413074031317 $384 -47.520786880945579 $262 $459 forward 7 unknown #
coedge $-1 $390 $264 $380 $457 forward $378 $-1 #
vertex $-1 $265 $460 #
vertex $-1 $457 $461 #
straight-curve $-1 20.741014230315525 27.968625193385012 12.160101856326925 0 1 0 I I #
coedge $-1 $380 $267 $272 $393 forward $166 $-1 #
vertex $-1 $381 $462 #
straight-curve $-1 -1.0447800685079613 27.031706537015644 7.6980414690900503 -1 0 0 I I #
coedge $-1 $269 $383 $271 $392 forward $378 $-1 #
straight-curve $-1 -1.0447800685079613 22.246732701862179 12.160101856326925 1 0 0 I I #
edge $-1 $463 0.93691865636936811 $274 5.7218924915228264 $390 $464 forward 7 unknown #
edge $-1 $273 -51.285707482615678 $463 -46.82364709537881 $387 $465 forward 7 unknown #
point $-1 5.5206313187612288 27.031706537015644 7.6980414690900574 #
point $-1 5.5206313187612288 22.246732701862186 12.160101856326925 #
edge $-1 $466 1 $466 0 $276 $-1 forward 7 unknown #
vertex $-1 $277 $467 #
ellipse-curve $-1 13.130822774538373 23.859855353678842 9.093305828973353 0 0.68199836817093118 0.7313536940579346 0.5 0 0 1 I I #
point $-1 13.630822774538373 24.639219619438922 9.9290716627084947 #
plane-surface $-1 50.179754020813618 0 0 -1 0 0 0 0 1 forward_v I I I I #
coedge $-1 $285 $283 $287 $405 reversed $181 $-1 #
edge $-1 $298 -12.160101856326923 $407 12.160101856326923 $297 $468 forward 7 unknown #
vertex $-1 $405 $469 #
straight-curve $-1 -50.179754020813618 -27.031706537015644 0 0 0 -1 I I #
edge $-1 $403 -27.031706537015644 $407 27.031706537015644 $401 $470 forward 7 unknown #
straight-curve $-1 0 -27.031706537015644 -12.160101856326923 -1 0 0 I I #
vertex $-1 $290 $471 #
straight-curve $-1 0 27.031706537015644 -12.160101856326923 1 0 0 I I #
point $-1 50.179754020813618 27.031706537015644 -12.160101856326923 #
point $-1 50.179754020813618 -27.031706537015644 -12.160101856326923 #
straight-curve $-1 -50.179754020813618 0 12.160101856326923 0 -1 0 I I #
point $-1 -50.179754020813618 27.031706537015644 12.160101856326923 #
point $-1 -50.179754020813618 -27.031706537015644 12.160101856326923 #
straight-curve $-1 50.179754020813618 -27.031706537015644 0 0 0 -1 I I #
straight-curve $-1 50.179754020813618 27.031706537015644 0 0 0 -1 I I #
plane-surface $-1 0 -27.031706537015644 0 0 1 0 0 0 1 forward_v I I I I #
coedge $-1 $472 $310 $322 $428 reversed $200 $-1 #
coedge $-1 $310 $472 $325 $430 reversed $200 $-1 #
edge $-1 $473 -50.179754020813618 $319 -39.138491383291154 $315 $474 forward 7 unknown #
straight-curve $-1 -39.138491383291154 -12.765853268507822 12.160101856326923 0 1 0 I I #
coedge $-1 $322 $313 $316 $424 forward $308 $-1 #
straight-curve $-1 -39.138491383291154 -12.765853268507822 -12.160101856326923 0 -1 0 I I #
coedge $-1 $316 $315 $472 $475 forward $317 $-1 #
edge $-1 $318 39.138491383291154 $476 50.179754020813618 $316 $477 forward 7 unknown #
point $-1 -39.138491383291154 -27.031706537015644 -12.160101856326923 #
point $-1 -39.138491383291154 -27.031706537015644 12.160101856326923 #
straight-curve $-1 -50.179754020813618 -24.031706537015644 0 0 0 -1 I I #
edge $-1 $476 -27.031706537015644 $323 -24.031706537015644 $417 $478 forward 7 unknown #
point $-1 -50.179754020813618 -24.031706537015644 -12.160101856326923 #
edge $-1 $326 24.031706537015644 $473 27.031706537015644 $418 $479 forward 7 unknown #
point $-1 -50.179754020813618 -24.031706537015644 12.160101856326923 #
coedge $-1 $341 $340 $333 $433 forward $330 $-1 #
edge $-1 $434 28.357377902502357 $437 37.476505974438737 $432 $480 forward 7 unknown #
vertex $-1 $345 $481 #
straight-curve $-1 28.73879763837467 -45.094996083806919 12.160101856326925 0 -1 0 I I #
edge $-1 $437 12.106730813150399 $342 21.157402837298143 $341 $482 forward 7 unknown #
vertex $-1 $436 $483 #
straight-curve $-1 28.73879763837467 -27.031706537015658 3.0409737843905305 0 0.77714595512881146 0.62932039886446345 I I #
point $-1 28.73879763837467 -15.770521442436724 12.160101856326923 #
point $-1 37.789469662522414 -27.031706537015644 3.040973784390542 #
straight-curve $-1 0 -27.031706537015644 12.160101856326923 1 0 0 I I #
vertex $-1 $348 $484 #
point $-1 32.324703930988306 -19.573862708010878 5.3440704546873112 #
vertex $-1 $352 $485 #
point $-1 36.203563369908764 -19.573862708010878 5.3440704546873112 #
edge $-1 $447 46.82364709537881 $450 51.285707482615678 $357 $486 forward 7 unknown #
vertex $-1 $371 $487 #
straight-curve $-1 5.5206313187612288 27.968625193385012 12.160101856326925 0 1 0 I I #
edge $-1 $450 -6.5654113872691902 $368 8.6549715242851128 $367 $488 forward 7 unknown #
vertex $-1 $449 $489 #
straight-curve $-1 5.5206313187612288 -12.507770328057198 44.569200963330402 0 -0.7313536940579346 0.68199836817093118 I I #
point $-1 5.5206313187612288 22.246732701862186 12.160101856326925 #
point $-1 -9.6997515927930742 27.031706537015644 7.6980414690900574 #
straight-curve $-1 0 27.031706537015644 12.160101856326923 -1 0 0 I I #
vertex $-1 $374 $490 #
point $-1 -1.5895601370159227 23.859855353678842 9.093305828973353 #
edge $-1 $385 -20.741014230315525 $463 -5.5206313187612288 $380 $491 forward 7 unknown #
straight-curve $-1 20.741014230315525 27.031706537015644 58.983748951705735 0 0 -1 I I #
straight-curve $-1 20.741014230315525 -12.507770328057198 44.569200963330402 0 -0.7313536940579346 0.68199836817093118 I I #
point $-1 20.741014230315525 22.246732701862186 12.160101856326925 #
point $-1 20.741014230315525 27.031706537015644 12.160101856326923 #
point $-1 20.741014230315525 27.031706537015644 7.6980414690900574 #
vertex $-1 $393 $492 #
straight-curve $-1 5.5206313187612288 27.968625193385012 12.160101856326925 0 -1 0 I I #
straight-curve $-1 5.5206313187612288 27.031706537015644 58.983748951705735 0 0 1 I I #
vertex $-1 $396 $493 #
point $-1 13.630822774538373 23.859855353678842 9.093305828973353 #
straight-curve $-1 -50.179754020813618 27.031706537015644 0 0 0 -1 I I #
point $-1 -50.179754020813618 -27.031706537015644 -12.160101856326923 #
straight-curve $-1 -50.179754020813618 0 -12.160101856326923 0 1 0 I I #
point $-1 -50.179754020813618 27.031706537015644 -12.160101856326923 #
coedge $-1 $418 $417 $423 $475 reversed $200 $-1 #
vertex $-1 $430 $494 #
straight-curve $-1 0 -27.031706537015644 12.160101856326923 1 0 0 I I #
edge $-1 $473 -12.160101856326923 $476 12.160101856326923 $472 $495 forward 7 unknown #
vertex $-1 $428 $496 #
straight-curve $-1 0 -27.031706537015644 -12.160101856326923 -1 0 0 I I #
straight-curve $-1 -50.179754020813618 0 -12.160101856326923 0 1 0 I I #
straight-curve $-1 -50.179754020813618 0 12.160101856326923 0 -1 0 I I #
straight-curve $-1 28.73879763837467 -27.031706537015644 40.517479758829282 0 0 -1 I I #
point $-1 28.73879763837467 -27.031706537015644 12.160101856326923 #
straight-curve $-1 16.632066825224271 -27.031706537015644 3.0409737843905411 1 0 0 I I #
point $-1 28.73879763837467 -27.031706537015644 3.040973784390542 #
point $-1 31.324703930988306 -18.944542309146414 4.5669244995585005 #
point $-1 35.203563369908764 -18.944542309146414 4.5669244995585005 #
straight-curve $-1 5.5206313187612288 27.031706537015644 58.983748951705735 0 0 -1 I I #
point $-1 5.5206313187612288 27.031706537015644 12.160101856326923 #
straight-curve $-1 -1.0447800685079613 27.031706537015644 7.6980414690900503 -1 0 0 I I #
point $-1 5.5206313187612288 27.031706537015644 7.6980414690900574 #
point $-1 -2.0895601370159227 23.518856169593374 8.7276289819443846 #
straight-curve $-1 0 27.031706537015644 12.160101856326923 -1 0 0 I I #
point $-1 5.5206313187612288 27.031706537015644 12.160101856326923 #
point $-1 13.130822774538373 23.518856169593374 8.7276289819443846 #
point $-1 -50.179754020813618 -27.031706537015644 12.160101856326923 #
straight-curve $-1 -50.179754020813618 -27.031706537015644 0 0 0 -1 I I #
point $-1 -50.179754020813618 -27.031706537015644 -12.160101856326923 #
End-of-ACIS-data 