500 0 7 0           
7 Unknown 11 ACIS 5.0 NT 24 Thu Mar 25 21:55:22 1999 
-1 9.9999999999999995e-007 1e-010 
body $-1 $7 $-1 $8 #
body $-1 $9 $-1 $10 #
body $-1 $11 $-1 $12 #
body $-1 $13 $-1 $14 #
body $-1 $15 $-1 $16 #
body $-1 $17 $-1 $18 #
body $-1 $19 $-1 $20 #
lump $-1 $-1 $21 $0 #
transform $-1 1 0 0 0 1 0 0 0 1 58.596758934293646 33.760152395430232 16.775602811292902 1 rotate no_reflect no_shear #
lump $-1 $-1 $22 $1 #
transform $-1 1 0 0 0 1 0 0 0 1 58.596758934293646 33.760152395430232 16.775602811292902 1 rotate no_reflect no_shear #
lump $-1 $-1 $23 $2 #
transform $-1 1 0 0 0 1 0 0 0 1 58.596758934293646 33.760152395430232 16.775602811292902 1 rotate no_reflect no_shear #
lump $-1 $-1 $24 $3 #
transform $-1 1 0 0 0 1 0 0 0 1 58.596758934293646 33.760152395430232 16.775602811292902 1 rotate no_reflect no_shear #
lump $-1 $-1 $25 $4 #
transform $-1 1 0 0 0 1 0 0 0 1 58.596758934293646 33.760152395430232 16.775602811292902 1 rotate no_reflect no_shear #
lump $-1 $-1 $26 $5 #
transform $-1 1 0 0 0 1 0 0 0 1 58.596758934293646 33.760152395430232 16.775602811292902 1 rotate no_reflect no_shear #
lump $-1 $-1 $27 $6 #
transform $-1 1 0 0 0 1 0 0 0 1 58.596758934293646 33.760152395430232 16.775602811292902 1 rotate no_reflect no_shear #
shell $-1 $-1 $-1 $28 $-1 $7 #
shell $-1 $-1 $-1 $29 $-1 $9 #
shell $-1 $-1 $-1 $30 $-1 $11 #
shell $-1 $-1 $-1 $31 $-1 $13 #
shell $-1 $-1 $-1 $32 $-1 $15 #
shell $-1 $-1 $-1 $33 $-1 $17 #
shell $-1 $-1 $-1 $34 $-1 $19 #
face $-1 $35 $36 $21 $-1 $37 forward single #
face $-1 $38 $39 $22 $-1 $40 forward single #
face $-1 $41 $42 $23 $-1 $43 forward single #
face $-1 $44 $45 $24 $-1 $46 reversed single #
face $-1 $47 $48 $25 $-1 $49 forward single #
face $-1 $50 $51 $26 $-1 $52 reversed single #
face $-1 $53 $54 $27 $-1 $55 forward single #
face $-1 $56 $57 $21 $-1 $58 reversed single #
loop $-1 $-1 $59 $28 #
plane-surface $-1 0 0 16.775602811292902 0 0 1 1 0 0 forward_v I I I I #
face $-1 $60 $61 $22 $-1 $62 reversed single #
loop $-1 $-1 $63 $29 #
plane-surface $-1 0 -23.89961822331076 -7.6045440204419164 0 0 1 1 0 0 forward_v I I I I #
face $-1 $64 $65 $23 $-1 $66 reversed single #
loop $-1 $-1 $67 $30 #
plane-surface $-1 0 23.89961822331076 -7.6045440204419164 0 0 1 1 0 0 forward_v I I I I #
face $-1 $68 $69 $24 $-1 $70 reversed single #
loop $-1 $-1 $71 $31 #
plane-surface $-1 -147.04383058109264 7.0463951966112859 79.593310389591565 0 -1 0 0.75470958851134928 0 -0.65605901945558964 forward_v I I I I #
face $-1 $72 $73 $25 $-1 $74 forward single #
loop $-1 $75 $76 $32 #
cone-surface $-1 -51.506731448774985 3.3421101925986676 8.8936251205714711 0.75470958851134928 0 -0.65605901945558964 0.65605901945558964 0 0.75470958851134928 1 I I 0 1 1 forward I I I I #
face $-1 $77 $78 $26 $-1 $79 reversed single #
loop $-1 $-1 $80 $33 #
plane-surface $-1 70.157966161676129 7.0463951966112859 168.04038203639053 0 -1 0 -0.75470958851134928 0 -0.65605901945558964 forward_v I I I I #
face $-1 $81 $82 $27 $-1 $83 forward single #
loop $-1 $84 $85 $34 #
cone-surface $-1 51.506731448774993 3.3421101925986676 8.893625120571464 -0.75470958851134928 0 -0.65605901945558964 0.65605901945558964 0 -0.75470958851134928 1 I I 0 1 1 forward I I I I #
face $-1 $86 $87 $21 $-1 $88 reversed single #
loop $-1 $-1 $89 $35 #
plane-surface $-1 0 0 -16.775602811292902 0 0 1 1 0 0 forward_v I I I I #
coedge $-1 $90 $91 $92 $93 forward $36 $-1 #
face $-1 $94 $95 $22 $-1 $96 reversed single #
loop $-1 $-1 $97 $38 #
plane-surface $-1 0 -14.03908405119129 -12.19007341586741 0 -1 0 0 0 -1 forward_v I I I I #
coedge $-1 $98 $99 $100 $101 reversed $39 $-1 #
face $-1 $102 $103 $23 $-1 $104 reversed single #
loop $-1 $-1 $105 $41 #
plane-surface $-1 0 14.039084051191288 -12.19007341586741 0 1 0 0 0 1 forward_v I I I I #
coedge $-1 $106 $107 $108 $109 reversed $42 $-1 #
face $-1 $110 $111 $24 $-1 $112 reversed single #
loop $-1 $-1 $113 $44 #
plane-surface $-1 -58.596758934293661 3.3421101925986676 2.7074459701750584 -0.75470958851134928 0 0.65605901945558964 0.65605901945558964 0 0.75470958851134928 forward_v I I I I #
coedge $-1 $114 $115 $116 $117 reversed $45 $-1 #
face $-1 $-1 $118 $25 $-1 $119 forward single #
loop $-1 $120 $121 $47 #
cone-surface $-1 -50.153980096730287 3.3421101925986676 7.7176963406811616 0.75470958851134928 0 -0.65605901945558964 0.32802950972779482 0 0.37735479425567464 1 I I -0.70710678118654813 0.70710678118654691 0.5 forward I I I I #
loop $-1 $-1 $122 $32 #
coedge $-1 $76 $76 $123 $124 reversed $48 $-1 #
face $-1 $125 $126 $26 $-1 $127 reversed single #
loop $-1 $-1 $128 $50 #
plane-surface $-1 -18.289105485122846 3.3421101925986676 91.154517616974019 0.75470958851134928 0 0.65605901945558964 0.65605901945558964 0 -0.75470958851134928 forward_v I I I I #
coedge $-1 $129 $130 $131 $132 reversed $51 $-1 #
face $-1 $-1 $133 $27 $-1 $134 forward single #
loop $-1 $135 $136 $53 #
cone-surface $-1 50.153980096730294 3.3421101925986676 7.7176963406811545 -0.75470958851134928 0 -0.65605901945558964 0.32802950972779482 0 -0.37735479425567464 1 I I -0.70710678118654813 0.70710678118654691 0.5 forward I I I I #
loop $-1 $-1 $137 $34 #
coedge $-1 $85 $85 $138 $139 reversed $54 $-1 #
face $-1 $140 $141 $21 $-1 $142 reversed single #
loop $-1 $-1 $143 $56 #
plane-surface $-1 0 -33.760152395430232 0 0 1 0 0 0 1 forward_v I I I I #
coedge $-1 $144 $145 $146 $147 forward $57 $-1 #
coedge $-1 $148 $59 $149 $150 forward $36 $-1 #
coedge $-1 $59 $148 $151 $152 forward $36 $-1 #
coedge $-1 $153 $154 $59 $93 reversed $155 $-1 #
edge $-1 $156 -33.760152395430232 $157 33.760152395430232 $92 $158 forward 7 unknown #
face $-1 $159 $160 $22 $-1 $161 reversed single #
loop $-1 $-1 $162 $60 #
plane-surface $-1 0 0 -16.775602811292902 0 0 1 1 0 0 forward_v I I I I #
coedge $-1 $163 $164 $165 $166 reversed $61 $-1 #
coedge $-1 $167 $63 $164 $168 forward $39 $-1 #
coedge $-1 $63 $167 $169 $170 reversed $39 $-1 #
coedge $-1 $171 $165 $63 $101 forward $160 $-1 #
edge $-1 $172 2.08927493953591 $173 21.810343283774852 $100 $174 forward 7 unknown #
face $-1 $175 $176 $23 $-1 $177 reversed single #
loop $-1 $-1 $108 $64 #
plane-surface $-1 58.596758934293646 0 0 -1 0 0 0 0 1 forward_v I I I I #
coedge $-1 $178 $179 $180 $181 reversed $65 $-1 #
coedge $-1 $182 $67 $183 $184 reversed $42 $-1 #
coedge $-1 $67 $182 $179 $185 forward $42 $-1 #
coedge $-1 $186 $187 $67 $109 forward $103 $-1 #
edge $-1 $188 -21.810343283774852 $189 -2.0892749395359083 $108 $190 forward 7 unknown #
face $-1 $191 $192 $24 $-1 $193 reversed single #
loop $-1 $-1 $194 $68 #
plane-surface $-1 -147.04383058109264 -0.36217481141395069 79.593310389591565 0 1 0 -0.75470958851134928 0 0.65605901945558964 forward_v I I I I #
coedge $-1 $195 $196 $197 $198 reversed $69 $-1 #
coedge $-1 $115 $71 $199 $200 reversed $45 $-1 #
coedge $-1 $71 $114 $195 $201 reversed $45 $-1 #
coedge $-1 $197 $202 $71 $117 forward $192 $-1 #
edge $-1 $203 23.02105238350288 $204 37.08920922462071 $116 $205 forward 7 unknown #
loop $-1 $-1 $123 $72 #
plane-surface $-1 -58.596758934293661 3.3421101925986676 2.7074459701750584 -0.75470958851134928 0 0.65605901945558964 0.65605901945558964 0 0.75470958851134928 forward_v I I I I #
loop $-1 $-1 $206 $47 #
coedge $-1 $121 $121 $122 $207 reversed $73 $-1 #
coedge $-1 $122 $122 $121 $207 forward $75 $-1 #
coedge $-1 $123 $123 $76 $124 forward $118 $-1 #
edge $-1 $208 0 $208 6.2831853071796004 $123 $209 forward 7 unknown #
face $-1 $210 $211 $26 $-1 $212 forward single #
loop $-1 $-1 $213 $77 #
plane-surface $-1 70.157966161676129 -0.36217481141395069 168.04038203639053 0 1 0 0.75470958851134928 0 0.65605901945558964 forward_v I I I I #
coedge $-1 $214 $215 $216 $217 reversed $78 $-1 #
coedge $-1 $130 $80 $218 $219 reversed $51 $-1 #
coedge $-1 $80 $129 $214 $220 reversed $51 $-1 #
coedge $-1 $216 $221 $80 $132 forward $211 $-1 #
edge $-1 $222 -23.517775853455582 $223 -11.288513997996297 $131 $224 forward 7 unknown #
loop $-1 $-1 $138 $81 #
plane-surface $-1 -18.289105485122846 3.3421101925986676 91.154517616974019 0.75470958851134928 0 0.65605901945558964 0.65605901945558964 0 -0.75470958851134928 forward_v I I I I #
loop $-1 $-1 $225 $53 #
coedge $-1 $136 $136 $137 $226 reversed $82 $-1 #
coedge $-1 $137 $137 $136 $226 forward $84 $-1 #
coedge $-1 $138 $138 $85 $139 forward $133 $-1 #
edge $-1 $227 0 $227 6.2831853071796004 $138 $228 forward 7 unknown #
face $-1 $229 $230 $21 $-1 $231 reversed single #
loop $-1 $-1 $232 $86 #
plane-surface $-1 -58.596758934293646 0 0 1 0 0 0 0 -1 forward_v I I I I #
coedge $-1 $233 $151 $234 $235 forward $87 $-1 #
coedge $-1 $236 $89 $233 $237 forward $57 $-1 #
coedge $-1 $89 $236 $238 $239 forward $57 $-1 #
coedge $-1 $154 $153 $89 $147 reversed $155 $-1 #
edge $-1 $240 -33.760152395430232 $241 33.760152395430232 $146 $242 forward 7 unknown #
coedge $-1 $91 $90 $243 $244 forward $36 $-1 #
coedge $-1 $245 $246 $90 $150 reversed $230 $-1 #
edge $-1 $157 -58.596758934293646 $247 58.596758934293646 $149 $248 forward 7 unknown #
coedge $-1 $143 $249 $91 $152 reversed $87 $-1 #
edge $-1 $250 -58.596758934293646 $156 58.596758934293646 $151 $251 forward 7 unknown #
coedge $-1 $146 $92 $249 $252 forward $155 $-1 #
coedge $-1 $92 $146 $245 $253 reversed $155 $-1 #
loop $-1 $-1 $153 $229 #
vertex $-1 $93 $254 #
vertex $-1 $93 $255 #
straight-curve $-1 58.596758934293646 0 16.775602811292902 0 1 0 I I #
face $-1 $256 $257 $22 $-1 $258 reversed single #
loop $-1 $-1 $165 $94 #
plane-surface $-1 58.596758934293646 0 0 -1 0 0 0 0 1 forward_v I I I I #
coedge $-1 $259 $260 $163 $261 forward $95 $-1 #
coedge $-1 $262 $97 $162 $261 reversed $61 $-1 #
coedge $-1 $97 $262 $98 $168 reversed $61 $-1 #
coedge $-1 $100 $263 $97 $166 forward $160 $-1 #
edge $-1 $264 -10.680566103359197 $172 -1.5095073125082115 $165 $265 forward 7 unknown #
coedge $-1 $99 $98 $266 $267 reversed $39 $-1 #
edge $-1 $172 -58.596758934293646 $268 58.596758934293646 $164 $269 forward 7 unknown #
coedge $-1 $270 $271 $99 $170 forward $257 $-1 #
edge $-1 $173 -58.596758934293646 $272 58.596758934293646 $169 $273 forward 7 unknown #
coedge $-1 $263 $100 $271 $274 forward $160 $-1 #
vertex $-1 $101 $275 #
vertex $-1 $274 $276 #
straight-curve $-1 58.596758934293646 -11.94980911165538 -7.6045440204419164 0 -1 0 I I #
face $-1 $277 $278 $23 $-1 $279 reversed single #
loop $-1 $-1 $280 $102 #
plane-surface $-1 0 0 -16.775602811292902 0 0 1 1 0 0 forward_v I I I I #
coedge $-1 $281 $105 $280 $282 reversed $65 $-1 #
coedge $-1 $105 $281 $107 $185 reversed $65 $-1 #
coedge $-1 $283 $284 $105 $181 forward $278 $-1 #
edge $-1 $285 -10.680566103359197 $286 -1.5095073125082115 $180 $287 forward 7 unknown #
coedge $-1 $107 $106 $283 $288 reversed $42 $-1 #
coedge $-1 $289 $290 $106 $184 forward $291 $-1 #
edge $-1 $292 -58.596758934293646 $188 58.596758934293646 $183 $293 forward 7 unknown #
edge $-1 $286 -58.596758934293646 $189 58.596758934293646 $179 $294 forward 7 unknown #
coedge $-1 $295 $108 $281 $296 forward $103 $-1 #
coedge $-1 $108 $295 $289 $297 reversed $103 $-1 #
vertex $-1 $297 $298 #
vertex $-1 $109 $299 #
straight-curve $-1 58.596758934293646 11.94980911165538 -7.6045440204419164 0 -1 0 I I #
face $-1 $-1 $300 $24 $-1 $301 forward single #
loop $-1 $-1 $116 $110 #
plane-surface $-1 -58.596758934293646 0 0 1 0 0 0 0 -1 forward_v I I I I #
coedge $-1 $302 $303 $304 $305 reversed $111 $-1 #
coedge $-1 $306 $113 $115 $201 forward $69 $-1 #
coedge $-1 $113 $306 $302 $307 forward $69 $-1 #
coedge $-1 $304 $116 $113 $198 forward $192 $-1 #
edge $-1 $204 -5.3753401003119521 $308 2.0332299077132845 $197 $309 forward 7 unknown #
coedge $-1 $310 $311 $114 $200 forward $300 $-1 #
edge $-1 $312 -27.154418211711942 $203 -14.925156356252671 $199 $313 forward 7 unknown #
edge $-1 $204 2.1724019648727301e-014 $312 18.640490402231439 $115 $314 forward 7 unknown #
coedge $-1 $116 $304 $310 $315 reversed $192 $-1 #
vertex $-1 $315 $316 #
vertex $-1 $117 $317 #
straight-curve $-1 -58.596758934293646 7.0463951966112859 39.796655194795783 0 0 -1 I I #
coedge $-1 $206 $206 $-1 $318 reversed $120 $-1 #
edge $-1 $319 0 $319 6.2831853071796004 $121 $320 forward 7 unknown #
vertex $-1 $124 $321 #
ellipse-curve $-1 -52.482128006564011 3.3421101925986676 9.7415243907339875 -0.75470958851134928 0 0.65605901945558964 0.65605901945558964 0 0.75470958851134928 1 I I #
face $-1 $-1 $322 $26 $-1 $323 reversed single #
loop $-1 $-1 $131 $125 #
plane-surface $-1 0 0 16.775602811292902 0 0 1 1 0 0 forward_v I I I I #
coedge $-1 $324 $325 $326 $327 reversed $126 $-1 #
coedge $-1 $328 $128 $130 $220 forward $78 $-1 #
coedge $-1 $128 $328 $324 $329 forward $78 $-1 #
coedge $-1 $326 $131 $128 $217 forward $211 $-1 #
edge $-1 $223 -5.3753401003119521 $330 2.0332299077132845 $216 $331 forward 7 unknown #
coedge $-1 $332 $333 $129 $219 forward $322 $-1 #
edge $-1 $334 -81.312745048020204 $222 -67.244588206902364 $218 $335 forward 7 unknown #
edge $-1 $223 98.553027466355857 $334 117.19351786858729 $130 $336 forward 7 unknown #
coedge $-1 $131 $326 $332 $337 forward $211 $-1 #
vertex $-1 $132 $338 #
vertex $-1 $132 $339 #
straight-curve $-1 35.078983080838064 7.0463951966112859 16.775602811292899 -1 0 0 I I #
coedge $-1 $225 $225 $-1 $340 reversed $135 $-1 #
edge $-1 $341 0 $341 6.2831853071796004 $136 $342 forward 7 unknown #
vertex $-1 $139 $343 #
ellipse-curve $-1 52.482128006564011 3.3421101925986676 9.7415243907339715 0.75470958851134928 0 0.65605901945558964 0.65605901945558964 0 -0.75470958851134928 1 I I #
face $-1 $-1 $155 $21 $-1 $344 reversed single #
loop $-1 $-1 $245 $140 #
plane-surface $-1 0 33.760152395430232 0 0 -1 0 0 0 -1 forward_v I I I I #
coedge $-1 $345 $243 $246 $346 forward $141 $-1 #
coedge $-1 $249 $143 $144 $237 reversed $87 $-1 #
coedge $-1 $243 $345 $143 $235 reversed $141 $-1 #
edge $-1 $250 -16.775602811292902 $347 16.775602811292902 $234 $348 forward 7 unknown #
coedge $-1 $145 $144 $345 $349 forward $57 $-1 #
edge $-1 $241 -58.596758934293646 $347 58.596758934293646 $233 $350 forward 7 unknown #
coedge $-1 $246 $245 $145 $239 reversed $230 $-1 #
edge $-1 $351 -58.596758934293646 $240 58.596758934293646 $238 $352 forward 7 unknown #
vertex $-1 $147 $353 #
vertex $-1 $252 $354 #
straight-curve $-1 58.596758934293646 0 -16.775602811292902 0 -1 0 I I #
coedge $-1 $232 $234 $148 $244 reversed $141 $-1 #
edge $-1 $247 -33.760152395430232 $250 33.760152395430232 $243 $355 forward 7 unknown #
coedge $-1 $238 $149 $154 $253 forward $230 $-1 #
coedge $-1 $149 $238 $232 $346 reversed $230 $-1 #
vertex $-1 $150 $356 #
straight-curve $-1 0 33.760152395430232 16.775602811292902 -1 0 0 I I #
coedge $-1 $151 $233 $153 $252 reversed $87 $-1 #
vertex $-1 $244 $357 #
straight-curve $-1 0 -33.760152395430232 16.775602811292902 1 0 0 I I #
edge $-1 $156 -16.775602811292902 $241 16.775602811292902 $153 $358 forward 7 unknown #
edge $-1 $157 -16.775602811292902 $240 16.775602811292902 $154 $359 forward 7 unknown #
point $-1 58.596758934293646 -33.760152395430232 16.775602811292902 #
point $-1 58.596758934293646 33.760152395430232 16.775602811292902 #
face $-1 $-1 $360 $22 $-1 $361 reversed single #
loop $-1 $-1 $169 $159 #
plane-surface $-1 0 -33.760152395430232 0 0 1 0 0 0 1 forward_v I I I I #
coedge $-1 $362 $162 $263 $363 forward $95 $-1 #
coedge $-1 $162 $362 $364 $365 forward $95 $-1 #
edge $-1 $366 -58.596758934293646 $264 58.596758934293646 $162 $367 forward 7 unknown #
coedge $-1 $164 $163 $368 $369 reversed $61 $-1 #
coedge $-1 $165 $171 $259 $363 reversed $160 $-1 #
vertex $-1 $363 $370 #
straight-curve $-1 58.596758934293646 -14.03908405119129 -6.0950367079337049 0 0 1 I I #
coedge $-1 $368 $371 $167 $267 forward $360 $-1 #
edge $-1 $272 -21.810343283774852 $268 -2.08927493953591 $266 $372 forward 7 unknown #
vertex $-1 $267 $373 #
straight-curve $-1 0 -14.03908405119129 -7.6045440204419164 -1 0 0 I I #
coedge $-1 $374 $169 $371 $375 forward $257 $-1 #
coedge $-1 $169 $374 $171 $274 reversed $257 $-1 #
vertex $-1 $375 $376 #
straight-curve $-1 0 -33.760152395430232 -7.6045440204419164 -1 0 0 I I #
edge $-1 $173 7.6045440204419164 $377 16.775602811292902 $171 $378 forward 7 unknown #
point $-1 58.596758934293646 -14.03908405119129 -7.6045440204419164 #
point $-1 58.596758934293646 -33.760152395430232 -7.6045440204419164 #
face $-1 $-1 $291 $23 $-1 $379 reversed single #
loop $-1 $-1 $283 $175 #
plane-surface $-1 -58.596758934293646 0 0 1 0 0 0 0 -1 forward_v I I I I #
coedge $-1 $380 $381 $178 $282 forward $176 $-1 #
coedge $-1 $179 $178 $186 $296 reversed $65 $-1 #
edge $-1 $382 -58.596758934293646 $285 58.596758934293646 $280 $383 forward 7 unknown #
coedge $-1 $384 $180 $182 $288 forward $278 $-1 #
coedge $-1 $180 $384 $380 $385 reversed $278 $-1 #
vertex $-1 $385 $386 #
vertex $-1 $288 $387 #
straight-curve $-1 -58.596758934293646 14.039084051191288 -6.0950367079337049 0 0 1 I I #
edge $-1 $286 2.0892749395359083 $292 21.810343283774852 $283 $388 forward 7 unknown #
coedge $-1 $389 $183 $187 $297 forward $291 $-1 #
coedge $-1 $183 $389 $384 $390 reversed $291 $-1 #
loop $-1 $-1 $183 $277 #
vertex $-1 $390 $391 #
straight-curve $-1 0 33.760152395430232 -7.6045440204419164 1 0 0 I I #
straight-curve $-1 0 14.039084051191288 -7.6045440204419164 1 0 0 I I #
coedge $-1 $187 $186 $381 $392 reversed $103 $-1 #
edge $-1 $189 1.5095073125082115 $382 10.680566103359197 $186 $393 forward 7 unknown #
edge $-1 $188 7.6045440204419164 $394 16.775602811292902 $187 $395 forward 7 unknown #
point $-1 58.596758934293646 33.760152395430232 -7.6045440204419164 #
point $-1 58.596758934293646 14.039084051191288 -7.6045440204419164 #
loop $-1 $-1 $199 $191 #
plane-surface $-1 0 0 16.775602811292902 0 0 1 1 0 0 forward_v I I I I #
coedge $-1 $303 $194 $196 $307 reversed $111 $-1 #
coedge $-1 $194 $302 $396 $397 reversed $111 $-1 #
coedge $-1 $202 $197 $194 $305 forward $192 $-1 #
edge $-1 $308 -37.08920922462071 $398 -23.02105238350288 $304 $399 forward 7 unknown #
coedge $-1 $196 $195 $311 $400 reversed $69 $-1 #
edge $-1 $401 -18.640490402231439 $308 -2.1724019648727301e-014 $302 $402 forward 7 unknown #
vertex $-1 $198 $403 #
straight-curve $-1 -58.596758934293646 1.6710550962993338 2.7074459701750735 0 -1 0 I I #
coedge $-1 $396 $199 $202 $315 forward $300 $-1 #
coedge $-1 $199 $396 $306 $400 forward $300 $-1 #
vertex $-1 $200 $404 #
straight-curve $-1 -73.521915290546318 7.0463951966112859 16.775602811292902 -1 0 0 I I #
straight-curve $-1 -58.596758934293661 7.0463951966112859 2.7074459701750584 0.65605901945558964 0 0.75470958851134928 I I #
edge $-1 $203 -7.0463951966112859 $398 0.36217481141395069 $202 $405 forward 7 unknown #
point $-1 -58.596758934293646 7.0463951966112859 16.775602811292902 #
point $-1 -58.596758934293646 7.0463951966112859 2.7074459701750748 #
edge $-1 $406 1 $406 0 $206 $-1 forward 7 unknown #
vertex $-1 $207 $407 #
ellipse-curve $-1 -50.53133489098596 3.3421101925986676 8.0457258504089566 -0.75470958851134928 0 0.65605901945558964 0.65605901945558964 0 0.75470958851134928 1 I I #
point $-1 -51.826068987108414 3.3421101925986676 10.496233979245332 #
loop $-1 $-1 $218 $210 #
plane-surface $-1 58.596758934293646 0 0 -1 0 0 0 0 1 forward_v I I I I #
coedge $-1 $325 $213 $215 $329 reversed $126 $-1 #
coedge $-1 $213 $324 $408 $409 reversed $126 $-1 #
coedge $-1 $221 $216 $213 $327 forward $211 $-1 #
edge $-1 $330 11.288513997996297 $410 23.517775853455582 $326 $411 forward 7 unknown #
coedge $-1 $215 $214 $333 $412 reversed $78 $-1 #
edge $-1 $413 -117.19351786858729 $330 -98.553027466355857 $324 $414 forward 7 unknown #
vertex $-1 $217 $415 #
straight-curve $-1 46.367497078834369 1.6710550962993338 16.775602811292892 0 -1 0 I I #
coedge $-1 $408 $218 $221 $337 reversed $322 $-1 #
coedge $-1 $218 $408 $328 $412 forward $322 $-1 #
vertex $-1 $219 $416 #
straight-curve $-1 58.596758934293646 7.0463951966112859 84.020191018195263 0 0 1 I I #
straight-curve $-1 -18.289105485122846 7.0463951966112859 91.154517616974019 0.65605901945558964 0 -0.75470958851134928 I I #
edge $-1 $410 -0.36217481141395069 $222 7.0463951966112859 $332 $417 forward 7 unknown #
point $-1 58.596758934293646 7.0463951966112859 16.775602811292902 #
point $-1 46.367497078834361 7.0463951966112859 16.775602811292899 #
edge $-1 $418 1 $418 0 $225 $-1 forward 7 unknown #
vertex $-1 $226 $419 #
ellipse-curve $-1 50.531334890985967 3.3421101925986676 8.0457258504089495 0.75470958851134928 0 0.65605901945558964 0.65605901945558964 0 -0.75470958851134928 1 I I #
point $-1 53.138187026019601 3.3421101925986676 8.9868148022226269 #
plane-surface $-1 58.596758934293646 0 0 -1 0 0 0 0 1 forward_v I I I I #
coedge $-1 $234 $232 $236 $349 reversed $141 $-1 #
edge $-1 $247 -16.775602811292902 $351 16.775602811292902 $246 $420 forward 7 unknown #
vertex $-1 $349 $421 #
straight-curve $-1 -58.596758934293646 -33.760152395430232 0 0 0 -1 I I #
edge $-1 $347 -33.760152395430232 $351 33.760152395430232 $345 $422 forward 7 unknown #
straight-curve $-1 0 -33.760152395430232 -16.775602811292902 -1 0 0 I I #
vertex $-1 $239 $423 #
straight-curve $-1 0 33.760152395430232 -16.775602811292902 1 0 0 I I #
point $-1 58.596758934293646 33.760152395430232 -16.775602811292902 #
point $-1 58.596758934293646 -33.760152395430232 -16.775602811292902 #
straight-curve $-1 -58.596758934293646 0 16.775602811292902 0 -1 0 I I #
point $-1 -58.596758934293646 33.760152395430232 16.775602811292902 #
point $-1 -58.596758934293646 -33.760152395430232 16.775602811292902 #
straight-curve $-1 58.596758934293646 -33.760152395430232 0 0 0 -1 I I #
straight-curve $-1 58.596758934293646 33.760152395430232 0 0 0 -1 I I #
loop $-1 $-1 $368 $256 #
plane-surface $-1 -58.596758934293646 0 0 1 0 0 0 0 -1 forward_v I I I I #
coedge $-1 $260 $259 $374 $424 forward $95 $-1 #
edge $-1 $264 14.03908405119129 $377 33.760152395430232 $263 $425 forward 7 unknown #
coedge $-1 $371 $368 $260 $365 reversed $360 $-1 #
edge $-1 $426 -33.760152395430232 $366 -14.03908405119129 $364 $427 forward 7 unknown #
vertex $-1 $369 $428 #
straight-curve $-1 0 -14.03908405119129 -16.775602811292902 1 0 0 I I #
coedge $-1 $364 $266 $262 $369 forward $360 $-1 #
edge $-1 $268 1.5095073125082115 $366 10.680566103359197 $368 $429 forward 7 unknown #
point $-1 58.596758934293646 -14.03908405119129 -16.775602811292902 #
coedge $-1 $266 $364 $270 $375 reversed $360 $-1 #
straight-curve $-1 -58.596758934293646 -11.94980911165538 -7.6045440204419164 0 1 0 I I #
point $-1 -58.596758934293646 -14.03908405119129 -7.6045440204419164 #
coedge $-1 $271 $270 $362 $424 reversed $257 $-1 #
edge $-1 $272 7.6045440204419164 $426 16.775602811292902 $371 $430 forward 7 unknown #
point $-1 -58.596758934293646 -33.760152395430232 -7.6045440204419164 #
vertex $-1 $274 $431 #
straight-curve $-1 58.596758934293646 -33.760152395430232 0 0 0 -1 I I #
plane-surface $-1 0 33.760152395430232 0 0 -1 0 0 0 -1 forward_v I I I I #
coedge $-1 $432 $280 $284 $385 forward $176 $-1 #
coedge $-1 $280 $432 $295 $392 forward $176 $-1 #
vertex $-1 $282 $433 #
straight-curve $-1 0 14.039084051191288 -16.775602811292902 -1 0 0 I I #
coedge $-1 $284 $283 $290 $390 forward $278 $-1 #
edge $-1 $285 14.039084051191288 $434 33.760152395430232 $284 $435 forward 7 unknown #
point $-1 -58.596758934293646 14.039084051191288 -16.775602811292902 #
point $-1 -58.596758934293646 14.039084051191288 -7.6045440204419164 #
straight-curve $-1 -58.596758934293646 11.94980911165538 -7.6045440204419164 0 1 0 I I #
coedge $-1 $290 $289 $432 $436 reversed $291 $-1 #
edge $-1 $292 7.6045440204419164 $434 16.775602811292902 $290 $437 forward 7 unknown #
point $-1 -58.596758934293646 33.760152395430232 -7.6045440204419164 #
edge $-1 $394 -33.760152395430232 $382 -14.039084051191288 $295 $438 forward 7 unknown #
straight-curve $-1 58.596758934293646 14.039084051191288 -6.0950367079337049 0 0 -1 I I #
vertex $-1 $392 $439 #
straight-curve $-1 58.596758934293646 33.760152395430232 0 0 0 -1 I I #
coedge $-1 $311 $310 $303 $397 forward $300 $-1 #
edge $-1 $398 14.925156356252671 $401 27.154418211711942 $396 $440 forward 7 unknown #
vertex $-1 $397 $441 #
straight-curve $-1 -58.596758934293646 -0.36217481141395069 39.796655194795783 0 0 1 I I #
edge $-1 $401 -2.0332299077132845 $312 5.3753401003119521 $311 $442 forward 7 unknown #
vertex $-1 $400 $443 #
straight-curve $-1 -58.596758934293661 -0.36217481141395069 2.7074459701750584 -0.65605901945558964 0 -0.75470958851134928 I I #
point $-1 -58.596758934293646 -0.36217481141395069 2.7074459701750748 #
point $-1 -46.367497078834376 7.0463951966112859 16.775602811292902 #
straight-curve $-1 -58.596758934293646 0 16.775602811292902 0 -1 0 I I #
vertex $-1 $318 $444 #
point $-1 -49.87527587153037 3.3421101925986676 8.8004354389203048 #
coedge $-1 $333 $332 $325 $409 forward $322 $-1 #
edge $-1 $410 67.244588206902364 $413 81.312745048020204 $408 $445 forward 7 unknown #
vertex $-1 $337 $446 #
straight-curve $-1 35.078983080838064 -0.36217481141395069 16.775602811292899 1 0 0 I I #
edge $-1 $413 -2.0332299077132845 $334 5.3753401003119521 $333 $447 forward 7 unknown #
vertex $-1 $412 $448 #
straight-curve $-1 -18.289105485122846 -0.36217481141395069 91.154517616974019 -0.65605901945558964 0 0.75470958851134928 I I #
point $-1 46.367497078834361 -0.36217481141395069 16.775602811292899 #
point $-1 58.596758934293646 7.0463951966112859 2.7074459701750584 #
straight-curve $-1 58.596758934293646 0 16.775602811292902 0 1 0 I I #
vertex $-1 $340 $449 #
point $-1 51.187393910441557 3.3421101925986676 7.2910162618975995 #
straight-curve $-1 -58.596758934293646 33.760152395430232 0 0 0 -1 I I #
point $-1 -58.596758934293646 -33.760152395430232 -16.775602811292902 #
straight-curve $-1 -58.596758934293646 0 -16.775602811292902 0 1 0 I I #
point $-1 -58.596758934293646 33.760152395430232 -16.775602811292902 #
edge $-1 $377 -58.596758934293646 $426 58.596758934293646 $374 $450 forward 7 unknown #
straight-curve $-1 58.596758934293646 0 -16.775602811292902 0 -1 0 I I #
vertex $-1 $365 $451 #
straight-curve $-1 -58.596758934293646 0 -16.775602811292902 0 1 0 I I #
point $-1 -58.596758934293646 -14.03908405119129 -16.775602811292902 #
straight-curve $-1 -58.596758934293646 -14.03908405119129 -6.0950367079337049 0 0 -1 I I #
straight-curve $-1 -58.596758934293646 -33.760152395430232 0 0 0 -1 I I #
point $-1 58.596758934293646 -33.760152395430232 -16.775602811292902 #
coedge $-1 $381 $380 $389 $436 forward $176 $-1 #
point $-1 58.596758934293646 14.039084051191288 -16.775602811292902 #
vertex $-1 $436 $452 #
straight-curve $-1 -58.596758934293646 0 -16.775602811292902 0 1 0 I I #
edge $-1 $434 -58.596758934293646 $394 58.596758934293646 $389 $453 forward 7 unknown #
straight-curve $-1 -58.596758934293646 33.760152395430232 0 0 0 -1 I I #
straight-curve $-1 58.596758934293646 0 -16.775602811292902 0 -1 0 I I #
point $-1 58.596758934293646 33.760152395430232 -16.775602811292902 #
straight-curve $-1 -73.521915290546318 -0.36217481141395069 16.775602811292902 1 0 0 I I #
point $-1 -58.596758934293646 -0.36217481141395069 16.775602811292902 #
straight-curve $-1 -46.367497078834376 1.6710550962993338 16.775602811292902 0 1 0 I I #
point $-1 -46.367497078834376 -0.36217481141395069 16.775602811292902 #
point $-1 -49.776625302474613 3.3421101925986676 7.3896668309533675 #
straight-curve $-1 58.596758934293646 -0.36217481141395069 84.020191018195263 0 0 -1 I I #
point $-1 58.596758934293646 -0.36217481141395069 16.775602811292902 #
straight-curve $-1 58.596758934293646 1.6710550962993338 2.7074459701750584 0 1 0 I I #
point $-1 58.596758934293646 -0.36217481141395069 2.7074459701750584 #
point $-1 49.776625302474621 3.3421101925986676 7.3896668309533604 #
straight-curve $-1 0 -33.760152395430232 -16.775602811292902 -1 0 0 I I #
point $-1 -58.596758934293646 -33.760152395430232 -16.775602811292902 #
point $-1 -58.596758934293646 33.760152395430232 -16.775602811292902 #
straight-curve $-1 0 33.760152395430232 -16.775602811292902 1 0 0 I I #
End-of-ACIS-data 