500 0 3 0           
7 Unknown 11 ACIS 5.0 NT 24 Thu Mar 25 17:22:18 1999 
-1 9.9999999999999995e-007 1e-010 
body $-1 $3 $-1 $4 #
body $-1 $5 $-1 $6 #
body $-1 $7 $-1 $8 #
lump $-1 $-1 $9 $0 #
transform $-1 1 0 0 0 1 0 0 0 1 71.133762627033292 35.315925688659775 9.9159859344272157 1 rotate no_reflect no_shear #
lump $-1 $-1 $10 $1 #
transform $-1 1 0 0 0 1 0 0 0 1 71.133762627033292 35.315925688659775 9.9159859344272157 1 rotate no_reflect no_shear #
lump $-1 $-1 $11 $2 #
transform $-1 1 0 0 0 1 0 0 0 1 71.133762627033292 35.315925688659775 9.9159859344272157 1 rotate no_reflect no_shear #
shell $-1 $-1 $-1 $12 $-1 $3 #
shell $-1 $-1 $-1 $13 $-1 $5 #
shell $-1 $-1 $-1 $14 $-1 $7 #
face $-1 $15 $16 $9 $-1 $17 reversed single #
face $-1 $18 $19 $10 $-1 $20 forward single #
face $-1 $21 $22 $11 $-1 $23 forward single #
face $-1 $24 $25 $9 $-1 $26 forward single #
loop $-1 $-1 $27 $12 #
plane-surface $-1 0 -35.315925688659775 0 0 1 0 0 0 1 forward_v I I I I #
face $-1 $28 $29 $10 $-1 $30 forward single #
loop $-1 $-1 $31 $13 #
plane-surface $-1 0 -35.315925688659775 0 0 1 0 0 0 1 forward_v I I I I #
face $-1 $32 $33 $11 $-1 $34 forward single #
loop $-1 $-1 $35 $14 #
plane-surface $-1 0 35.315925688659775 0 0 -1 0 0 0 -1 forward_v I I I I #
face $-1 $36 $37 $9 $-1 $38 reversed single #
loop $-1 $-1 $39 $15 #
plane-surface $-1 0 0 9.9159859344272157 0 0 1 1 0 0 forward_v I I I I #
coedge $-1 $40 $41 $42 $43 reversed $16 $-1 #
face $-1 $44 $45 $10 $-1 $46 reversed single #
loop $-1 $-1 $47 $18 #
plane-surface $-1 0 0 9.9159859344272157 0 0 1 1 0 0 forward_v I I I I #
coedge $-1 $48 $49 $50 $51 forward $19 $-1 #
face $-1 $52 $53 $11 $-1 $54 reversed single #
loop $-1 $-1 $55 $21 #
plane-surface $-1 0 0 9.9159859344272157 0 0 1 1 0 0 forward_v I I I I #
coedge $-1 $56 $57 $58 $59 forward $22 $-1 #
face $-1 $60 $61 $9 $-1 $62 reversed single #
loop $-1 $-1 $63 $24 #
plane-surface $-1 0 0 -9.9159859344272157 0 0 1 1 0 0 forward_v I I I I #
coedge $-1 $64 $65 $66 $67 forward $25 $-1 #
coedge $-1 $68 $27 $69 $70 reversed $16 $-1 #
coedge $-1 $27 $68 $71 $72 forward $16 $-1 #
coedge $-1 $73 $63 $27 $43 forward $37 $-1 #
edge $-1 $74 -71.133762627033292 $75 71.133762627033292 $27 $76 forward 7 unknown #
face $-1 $77 $78 $10 $-1 $79 reversed single #
loop $-1 $-1 $80 $28 #
plane-surface $-1 -71.133762627033292 0 0 1 0 0 0 0 -1 forward_v I I I I #
coedge $-1 $81 $82 $49 $83 forward $29 $-1 #
coedge $-1 $84 $31 $85 $86 reversed $19 $-1 #
coedge $-1 $31 $84 $47 $83 reversed $19 $-1 #
coedge $-1 $87 $88 $31 $51 reversed $89 $-1 #
edge $-1 $90 -9.9159859344272157 $91 9.9159859344272157 $50 $92 forward 7 unknown #
face $-1 $93 $94 $11 $-1 $95 reversed single #
loop $-1 $-1 $96 $32 #
plane-surface $-1 -69.633762627033292 46.354200169398204 0 0 -1 0 0 0 -1 forward_v I I I I #
coedge $-1 $97 $98 $56 $99 forward $33 $-1 #
coedge $-1 $100 $35 $55 $99 reversed $22 $-1 #
coedge $-1 $35 $100 $101 $102 reversed $22 $-1 #
coedge $-1 $103 $104 $35 $59 reversed $94 $-1 #
edge $-1 $105 -9.9159859344272157 $106 9.9159859344272157 $58 $107 forward 7 unknown #
face $-1 $108 $109 $9 $-1 $110 reversed single #
loop $-1 $-1 $111 $36 #
plane-surface $-1 -71.133762627033292 0 0 1 0 0 0 0 -1 forward_v I I I I #
coedge $-1 $42 $112 $113 $114 forward $37 $-1 #
coedge $-1 $115 $39 $116 $117 forward $25 $-1 #
coedge $-1 $39 $115 $68 $118 forward $25 $-1 #
coedge $-1 $69 $119 $39 $67 reversed $120 $-1 #
edge $-1 $121 -35.315925688659775 $122 35.315925688659775 $66 $123 forward 7 unknown #
coedge $-1 $41 $40 $65 $118 reversed $16 $-1 #
coedge $-1 $113 $66 $40 $70 forward $120 $-1 #
edge $-1 $121 -9.9159859344272157 $74 9.9159859344272157 $69 $124 forward 7 unknown #
coedge $-1 $125 $126 $41 $72 reversed $61 $-1 #
edge $-1 $127 -9.9159859344272157 $75 9.9159859344272157 $71 $128 forward 7 unknown #
coedge $-1 $112 $42 $126 $129 forward $37 $-1 #
vertex $-1 $70 $130 #
vertex $-1 $129 $131 #
straight-curve $-1 0 -35.315925688659775 -9.9159859344272157 -1 0 0 I I #
face $-1 $132 $89 $10 $-1 $133 reversed single #
loop $-1 $-1 $134 $44 #
plane-surface $-1 -69.633762627033292 -46.354200169398197 0 0 1 0 0 0 1 forward_v I I I I #
coedge $-1 $135 $136 $84 $137 forward $45 $-1 #
coedge $-1 $138 $47 $136 $139 forward $29 $-1 #
coedge $-1 $47 $138 $87 $140 forward $29 $-1 #
edge $-1 $90 68.133762627033292 $141 71.133762627033292 $47 $142 forward 7 unknown #
coedge $-1 $49 $48 $80 $137 reversed $19 $-1 #
coedge $-1 $143 $144 $48 $86 forward $145 $-1 #
edge $-1 $146 -71.133762627033292 $91 -68.133762627033292 $85 $147 forward 7 unknown #
coedge $-1 $148 $50 $82 $140 reversed $89 $-1 #
coedge $-1 $50 $148 $143 $149 reversed $89 $-1 #
loop $-1 $-1 $148 $77 #
vertex $-1 $83 $150 #
vertex $-1 $149 $151 #
straight-curve $-1 -68.133762627033292 -35.315925688659775 0 0 0 -1 I I #
face $-1 $152 $153 $11 $-1 $154 reversed single #
loop $-1 $-1 $58 $52 #
plane-surface $-1 -68.133762627033292 40.835062929028993 0 -1 0 0 0 0 1 forward_v I I I I #
coedge $-1 $155 $156 $157 $158 forward $53 $-1 #
coedge $-1 $159 $55 $104 $160 forward $33 $-1 #
coedge $-1 $55 $159 $161 $162 forward $33 $-1 #
edge $-1 $163 -71.133762627033292 $106 -68.133762627033292 $55 $164 forward 7 unknown #
coedge $-1 $57 $56 $165 $166 reversed $22 $-1 #
coedge $-1 $167 $168 $57 $102 forward $153 $-1 #
edge $-1 $105 68.133762627033292 $169 71.133762627033292 $101 $170 forward 7 unknown #
coedge $-1 $157 $58 $168 $171 reversed $94 $-1 #
coedge $-1 $58 $157 $97 $160 reversed $94 $-1 #
vertex $-1 $102 $172 #
vertex $-1 $160 $173 #
straight-curve $-1 -68.133762627033292 35.315925688659775 0 0 0 1 I I #
face $-1 $-1 $120 $9 $-1 $174 reversed single #
loop $-1 $-1 $116 $60 #
plane-surface $-1 0 35.315925688659775 0 0 -1 0 0 0 -1 forward_v I I I I #
coedge $-1 $126 $125 $175 $176 forward $61 $-1 #
coedge $-1 $63 $73 $177 $178 forward $37 $-1 #
coedge $-1 $119 $69 $63 $114 reversed $120 $-1 #
edge $-1 $179 -35.315925688659775 $74 35.315925688659775 $113 $180 forward 7 unknown #
coedge $-1 $65 $64 $125 $181 forward $25 $-1 #
coedge $-1 $182 $175 $64 $117 reversed $109 $-1 #
edge $-1 $122 -71.133762627033292 $183 71.133762627033292 $116 $184 forward 7 unknown #
edge $-1 $127 -71.133762627033292 $121 71.133762627033292 $68 $185 forward 7 unknown #
coedge $-1 $66 $113 $182 $186 reversed $120 $-1 #
loop $-1 $-1 $69 $108 #
vertex $-1 $67 $187 #
vertex $-1 $67 $188 #
straight-curve $-1 71.133762627033292 0 9.9159859344272157 0 1 0 I I #
straight-curve $-1 71.133762627033292 -35.315925688659775 0 0 0 -1 I I #
coedge $-1 $111 $71 $115 $181 reversed $61 $-1 #
coedge $-1 $71 $111 $73 $129 reversed $61 $-1 #
vertex $-1 $181 $189 #
straight-curve $-1 -71.133762627033292 -35.315925688659775 0 0 0 -1 I I #
edge $-1 $75 -35.315925688659775 $190 35.315925688659775 $126 $191 forward 7 unknown #
point $-1 71.133762627033292 -35.315925688659775 -9.9159859344272157 #
point $-1 -71.133762627033292 -35.315925688659775 -9.9159859344272157 #
face $-1 $-1 $145 $10 $-1 $192 reversed single #
plane-surface $-1 -68.133762627033292 -40.835062929028986 0 -1 0 0 0 0 1 forward_v I I I I #
coedge $-1 $193 $194 $195 $196 forward $78 $-1 #
coedge $-1 $195 $80 $144 $197 reversed $45 $-1 #
coedge $-1 $80 $195 $81 $139 reversed $45 $-1 #
edge $-1 $141 -9.9159859344272157 $146 9.9159859344272157 $80 $198 forward 7 unknown #
coedge $-1 $82 $81 $194 $199 forward $29 $-1 #
edge $-1 $141 35.315925688659775 $200 46.354200169398197 $136 $201 forward 7 unknown #
edge $-1 $202 -5.5191372403692114 $90 5.5191372403692114 $87 $203 forward 7 unknown #
vertex $-1 $139 $204 #
straight-curve $-1 0 -35.315925688659775 9.9159859344272157 -1 0 0 I I #
coedge $-1 $205 $85 $88 $149 forward $145 $-1 #
coedge $-1 $85 $205 $135 $197 forward $145 $-1 #
loop $-1 $-1 $85 $132 #
vertex $-1 $137 $206 #
straight-curve $-1 0 -35.315925688659775 -9.9159859344272157 1 0 0 I I #
coedge $-1 $88 $87 $207 $208 forward $89 $-1 #
edge $-1 $91 -5.5191372403692114 $209 5.5191372403692114 $88 $210 forward 7 unknown #
point $-1 -68.133762627033292 -35.315925688659775 9.9159859344272157 #
point $-1 -68.133762627033292 -35.315925688659775 -9.9159859344272157 #
face $-1 $-1 $211 $11 $-1 $212 reversed single #
loop $-1 $-1 $101 $93 #
plane-surface $-1 0 0 -9.9159859344272157 0 0 1 1 0 0 forward_v I I I I #
coedge $-1 $213 $96 $214 $215 reversed $53 $-1 #
coedge $-1 $96 $213 $159 $216 reversed $53 $-1 #
coedge $-1 $104 $103 $96 $158 reversed $94 $-1 #
edge $-1 $217 -9.9159859344272157 $218 9.9159859344272157 $157 $219 forward 7 unknown #
coedge $-1 $98 $97 $156 $216 forward $33 $-1 #
edge $-1 $106 -5.5191372403692114 $217 5.5191372403692114 $104 $220 forward 7 unknown #
coedge $-1 $221 $165 $98 $162 reversed $211 $-1 #
edge $-1 $222 -46.354200169398204 $163 -35.315925688659775 $161 $223 forward 7 unknown #
vertex $-1 $166 $224 #
straight-curve $-1 0 35.315925688659775 9.9159859344272157 1 0 0 I I #
coedge $-1 $161 $225 $100 $166 forward $211 $-1 #
edge $-1 $169 -9.9159859344272157 $163 9.9159859344272157 $165 $226 forward 7 unknown #
coedge $-1 $214 $101 $225 $227 forward $153 $-1 #
coedge $-1 $101 $214 $103 $171 forward $153 $-1 #
vertex $-1 $227 $228 #
straight-curve $-1 0 35.315925688659775 -9.9159859344272157 -1 0 0 I I #
edge $-1 $218 -5.5191372403692114 $105 5.5191372403692114 $103 $229 forward 7 unknown #
point $-1 -68.133762627033292 35.315925688659782 -9.9159859344272157 #
point $-1 -68.133762627033292 35.315925688659782 9.9159859344272157 #
plane-surface $-1 71.133762627033292 0 0 -1 0 0 0 0 1 forward_v I I I I #
coedge $-1 $116 $177 $111 $176 reversed $109 $-1 #
edge $-1 $183 -9.9159859344272157 $190 9.9159859344272157 $175 $230 forward 7 unknown #
coedge $-1 $175 $182 $112 $178 reversed $109 $-1 #
edge $-1 $190 -71.133762627033292 $179 71.133762627033292 $177 $231 forward 7 unknown #
vertex $-1 $114 $232 #
straight-curve $-1 71.133762627033292 0 -9.9159859344272157 0 -1 0 I I #
edge $-1 $183 -35.315925688659775 $127 35.315925688659775 $125 $233 forward 7 unknown #
coedge $-1 $177 $116 $119 $186 forward $109 $-1 #
vertex $-1 $117 $234 #
straight-curve $-1 0 35.315925688659775 9.9159859344272157 -1 0 0 I I #
straight-curve $-1 0 -35.315925688659775 9.9159859344272157 1 0 0 I I #
edge $-1 $122 -9.9159859344272157 $179 9.9159859344272157 $119 $235 forward 7 unknown #
point $-1 71.133762627033292 -35.315925688659775 9.9159859344272157 #
point $-1 71.133762627033292 35.315925688659775 9.9159859344272157 #
point $-1 -71.133762627033292 -35.315925688659775 9.9159859344272157 #
vertex $-1 $178 $236 #
straight-curve $-1 -71.133762627033292 0 -9.9159859344272157 0 1 0 I I #
plane-surface $-1 0 0 -9.9159859344272157 0 0 1 1 0 0 forward_v I I I I #
coedge $-1 $207 $134 $205 $237 reversed $78 $-1 #
coedge $-1 $134 $207 $138 $199 reversed $78 $-1 #
coedge $-1 $136 $135 $134 $196 reversed $45 $-1 #
edge $-1 $200 -9.9159859344272157 $238 9.9159859344272157 $195 $239 forward 7 unknown #
edge $-1 $238 -46.354200169398197 $146 -35.315925688659775 $135 $240 forward 7 unknown #
straight-curve $-1 -71.133762627033292 -35.315925688659775 0 0 0 -1 I I #
edge $-1 $200 -1.5 $202 1.5 $194 $241 forward 7 unknown #
vertex $-1 $139 $242 #
straight-curve $-1 -71.133762627033292 0 9.9159859344272157 0 -1 0 I I #
vertex $-1 $140 $243 #
straight-curve $-1 -68.133762627033292 -40.835062929028986 9.9159859344272157 0 1 0 I I #
point $-1 -71.133762627033292 -35.315925688659775 9.9159859344272157 #
coedge $-1 $144 $143 $193 $237 forward $145 $-1 #
point $-1 -71.133762627033292 -35.315925688659775 -9.9159859344272157 #
coedge $-1 $194 $193 $148 $208 reversed $78 $-1 #
edge $-1 $202 -9.9159859344272157 $209 9.9159859344272157 $148 $244 forward 7 unknown #
vertex $-1 $208 $245 #
straight-curve $-1 -68.133762627033292 -40.835062929028986 -9.9159859344272157 0 -1 0 I I #
loop $-1 $-1 $165 $152 #
plane-surface $-1 -71.133762627033292 0 0 1 0 0 0 0 -1 forward_v I I I I #
coedge $-1 $156 $155 $221 $246 reversed $53 $-1 #
coedge $-1 $168 $167 $155 $215 forward $153 $-1 #
edge $-1 $247 -1.5 $218 1.5 $155 $248 forward 7 unknown #
edge $-1 $217 -1.5 $222 1.5 $156 $249 forward 7 unknown #
vertex $-1 $160 $250 #
vertex $-1 $171 $251 #
straight-curve $-1 -68.133762627033292 46.354200169398204 0 0 0 -1 I I #
straight-curve $-1 -68.133762627033292 40.835062929028993 9.9159859344272157 0 1 0 I I #
coedge $-1 $225 $161 $213 $246 forward $211 $-1 #
vertex $-1 $216 $252 #
straight-curve $-1 -71.133762627033292 0 9.9159859344272157 0 -1 0 I I #
point $-1 -71.133762627033292 35.315925688659775 9.9159859344272157 #
coedge $-1 $165 $221 $167 $227 reversed $211 $-1 #
straight-curve $-1 -71.133762627033292 35.315925688659775 0 0 0 1 I I #
edge $-1 $169 -5.5191372403692185 $247 5.5191372403692114 $225 $253 forward 7 unknown #
point $-1 -71.133762627033292 35.315925688659775 -9.9159859344272157 #
straight-curve $-1 -68.133762627033292 40.835062929028993 -9.9159859344272157 0 -1 0 I I #
straight-curve $-1 -71.133762627033292 35.315925688659775 0 0 0 -1 I I #
straight-curve $-1 0 35.315925688659775 -9.9159859344272157 1 0 0 I I #
point $-1 71.133762627033292 35.315925688659775 -9.9159859344272157 #
straight-curve $-1 -71.133762627033292 0 9.9159859344272157 0 -1 0 I I #
point $-1 -71.133762627033292 35.315925688659775 9.9159859344272157 #
straight-curve $-1 71.133762627033292 35.315925688659775 0 0 0 -1 I I #
point $-1 -71.133762627033292 35.315925688659775 -9.9159859344272157 #
edge $-1 $209 -1.5 $238 1.5 $193 $254 forward 7 unknown #
vertex $-1 $197 $255 #
straight-curve $-1 -71.133762627033292 -46.354200169398197 0 0 0 -1 I I #
straight-curve $-1 -71.133762627033292 0 -9.9159859344272157 0 1 0 I I #
straight-curve $-1 -69.633762627033292 -46.354200169398197 9.9159859344272157 1 0 0 I I #
point $-1 -71.133762627033292 -46.354200169398197 9.9159859344272157 #
point $-1 -68.133762627033292 -46.354200169398197 9.9159859344272157 #
straight-curve $-1 -68.133762627033292 -46.354200169398197 0 0 0 -1 I I #
point $-1 -68.133762627033292 -46.354200169398197 -9.9159859344272157 #
edge $-1 $222 -9.9159859344272157 $247 9.9159859344272157 $213 $256 forward 7 unknown #
vertex $-1 $215 $257 #
straight-curve $-1 -69.633762627033292 46.354200169398204 -9.9159859344272157 1 0 0 I I #
straight-curve $-1 -69.633762627033292 46.354200169398204 9.9159859344272157 -1 0 0 I I #
point $-1 -68.133762627033292 46.354200169398204 9.9159859344272157 #
point $-1 -68.133762627033292 46.354200169398204 -9.9159859344272157 #
point $-1 -71.133762627033292 46.354200169398204 9.9159859344272157 #
straight-curve $-1 -71.133762627033292 40.835062929028993 -9.9159859344272157 0 1 0 I I #
straight-curve $-1 -69.633762627033292 -46.354200169398197 -9.9159859344272157 -1 0 0 I I #
point $-1 -71.133762627033292 -46.354200169398197 -9.9159859344272157 #
straight-curve $-1 -71.133762627033292 46.354200169398204 0 0 0 -1 I I #
point $-1 -71.133762627033292 46.354200169398204 -9.9159859344272157 #
End-of-ACIS-data 