500 0 6 0           
7 Unknown 11 ACIS 5.0 NT 24 Thu Mar 25 23:07:15 1999 
-1 9.9999999999999995e-007 1e-010 
body $-1 $6 $-1 $7 #
body $-1 $8 $-1 $9 #
body $-1 $10 $-1 $11 #
body $-1 $12 $-1 $13 #
body $-1 $14 $-1 $15 #
body $-1 $16 $-1 $17 #
lump $-1 $-1 $18 $0 #
transform $-1 1 0 0 0 1 0 0 0 1 70.53193762016663 43.844660304312633 12.314693508062394 1 rotate no_reflect no_shear #
lump $-1 $-1 $19 $1 #
transform $-1 1 0 0 0 1 0 0 0 1 70.53193762016663 43.844660304312633 12.314693508062394 1 rotate no_reflect no_shear #
lump $-1 $-1 $20 $2 #
transform $-1 1 0 0 0 1 0 0 0 1 70.53193762016663 43.844660304312633 12.314693508062394 1 rotate no_reflect no_shear #
lump $-1 $-1 $21 $3 #
transform $-1 1 0 0 0 1 0 0 0 1 70.53193762016663 43.844660304312633 12.314693508062394 1 rotate no_reflect no_shear #
lump $-1 $-1 $22 $4 #
transform $-1 1 0 0 0 1 0 0 0 1 70.53193762016663 43.844660304312633 12.314693508062394 1 rotate no_reflect no_shear #
lump $-1 $-1 $23 $5 #
transform $-1 1 0 0 0 1 0 0 0 1 70.53193762016663 43.844660304312633 12.314693508062394 1 rotate no_reflect no_shear #
shell $-1 $-1 $-1 $24 $-1 $6 #
shell $-1 $-1 $-1 $25 $-1 $8 #
shell $-1 $-1 $-1 $26 $-1 $10 #
shell $-1 $-1 $-1 $27 $-1 $12 #
shell $-1 $-1 $-1 $28 $-1 $14 #
shell $-1 $-1 $-1 $29 $-1 $16 #
face $-1 $30 $31 $18 $-1 $32 forward single #
face $-1 $33 $34 $19 $-1 $35 forward single #
face $-1 $36 $37 $20 $-1 $38 forward single #
face $-1 $39 $40 $21 $-1 $41 reversed single #
face $-1 $42 $43 $22 $-1 $44 forward single #
face $-1 $45 $46 $23 $-1 $47 forward single #
face $-1 $48 $49 $18 $-1 $50 reversed single #
loop $-1 $-1 $51 $24 #
plane-surface $-1 0 0 12.314693508062394 0 0 1 1 0 0 forward_v I I I I #
face $-1 $52 $53 $19 $-1 $54 reversed single #
loop $-1 $-1 $55 $25 #
plane-surface $-1 -70.53193762016663 0 0 1 0 0 0 0 -1 forward_v I I I I #
face $-1 $56 $57 $20 $-1 $58 forward single #
loop $-1 $-1 $59 $26 #
plane-surface $-1 70.53193762016663 0 0 -1 0 0 0 0 1 forward_v I I I I #
face $-1 $60 $61 $21 $-1 $62 reversed single #
loop $-1 $-1 $63 $27 #
plane-surface $-1 -45.140697957176869 98.287205781945062 159.89126407886633 1 0 0 0 -0.77714596973225614 -0.62932038083071107 forward_v I I I I #
face $-1 $64 $65 $22 $-1 $66 forward single #
loop $-1 $67 $68 $28 #
cone-surface $-1 -37.038977587755554 38.368345652812629 6.2715190363813855 0 -0.77714596973225614 -0.62932038083071107 2 0 0 1 I I 0 1 2 forward I I I I #
face $-1 $69 $70 $23 $-1 $71 forward single #
loop $-1 $72 $73 $29 #
cone-surface $-1 -24.886397033623581 38.368345652812629 6.2715190363813855 0 -0.77714596973225614 -0.62932038083071107 2 0 0 1 I I 0 1 2 forward I I I I #
face $-1 $74 $75 $18 $-1 $76 reversed single #
loop $-1 $-1 $77 $30 #
plane-surface $-1 0 0 -12.314693508062394 0 0 1 1 0 0 forward_v I I I I #
coedge $-1 $78 $79 $80 $81 forward $31 $-1 #
face $-1 $82 $83 $19 $-1 $84 reversed single #
loop $-1 $-1 $85 $33 #
plane-surface $-1 0 43.844660304312633 0 0 -1 0 0 0 -1 forward_v I I I I #
coedge $-1 $86 $87 $88 $89 forward $34 $-1 #
face $-1 $90 $91 $20 $-1 $92 reversed single #
loop $-1 $-1 $93 $36 #
plane-surface $-1 0 0 12.314693508062394 0 0 1 1 0 0 forward_v I I I I #
coedge $-1 $94 $95 $96 $97 forward $37 $-1 #
face $-1 $98 $99 $21 $-1 $100 reversed single #
loop $-1 $-1 $101 $39 #
plane-surface $-1 -30.962687310689567 -11.340016335893722 71.116892391163887 0 0.77714596973225614 0.62932038083071107 1 0 0 forward_v I I I I #
coedge $-1 $102 $103 $104 $105 reversed $40 $-1 #
face $-1 $-1 $106 $22 $-1 $107 forward single #
loop $-1 $108 $109 $42 #
cone-surface $-1 -37.038977587755554 35.898683105669157 4.2716257920953318 0 -0.77714596973225614 -0.62932038083071107 1 0 0 1 I I -0.70710678118654746 0.70710678118654746 1 forward I I I I #
loop $-1 $-1 $110 $28 #
coedge $-1 $68 $68 $111 $112 reversed $43 $-1 #
face $-1 $-1 $113 $23 $-1 $114 forward single #
loop $-1 $115 $116 $45 #
cone-surface $-1 -24.886397033623581 35.898683105669157 4.2716257920953318 0 -0.77714596973225614 -0.62932038083071107 1 0 0 1 I I -0.70710678118654746 0.70710678118654746 1 forward I I I I #
loop $-1 $-1 $117 $29 #
coedge $-1 $73 $73 $118 $119 reversed $46 $-1 #
face $-1 $120 $121 $18 $-1 $122 reversed single #
loop $-1 $-1 $123 $48 #
plane-surface $-1 0 -43.844660304312633 0 0 1 0 0 0 1 forward_v I I I I #
coedge $-1 $124 $125 $126 $127 forward $49 $-1 #
coedge $-1 $128 $51 $129 $130 forward $31 $-1 #
coedge $-1 $51 $128 $131 $132 forward $31 $-1 #
coedge $-1 $133 $134 $51 $81 reversed $135 $-1 #
edge $-1 $136 -43.844660304312633 $137 43.844660304312633 $80 $138 forward 7 unknown #
face $-1 $139 $140 $19 $-1 $141 reversed single #
loop $-1 $-1 $88 $52 #
plane-surface $-1 -77.358390112715668 0 9.314693508062394 0 0 1 1 0 0 forward_v I I I I #
coedge $-1 $142 $143 $86 $144 forward $53 $-1 #
coedge $-1 $145 $55 $85 $144 reversed $34 $-1 #
coedge $-1 $55 $145 $146 $147 reversed $34 $-1 #
coedge $-1 $148 $149 $55 $89 reversed $83 $-1 #
edge $-1 $150 -43.844660304312633 $151 43.844660304312633 $88 $152 forward 7 unknown #
face $-1 $153 $154 $20 $-1 $155 reversed single #
loop $-1 $-1 $156 $56 #
plane-surface $-1 0 -43.844660304312633 0 0 1 0 0 0 1 forward_v I I I I #
coedge $-1 $157 $158 $159 $160 forward $57 $-1 #
coedge $-1 $159 $59 $156 $161 reversed $37 $-1 #
coedge $-1 $59 $159 $162 $163 reversed $37 $-1 #
coedge $-1 $164 $165 $59 $97 reversed $154 $-1 #
edge $-1 $166 -43.844660304312633 $167 43.844660304312633 $96 $168 forward 7 unknown #
face $-1 $169 $170 $21 $-1 $171 reversed single #
loop $-1 $-1 $172 $60 #
plane-surface $-1 -16.784676664202266 98.287205781945062 159.89126407886633 -1 0 0 0 0.77714596973225614 0.62932038083071107 forward_v I I I I #
coedge $-1 $173 $174 $175 $176 reversed $61 $-1 #
coedge $-1 $103 $63 $177 $178 reversed $40 $-1 #
coedge $-1 $63 $102 $173 $179 reversed $40 $-1 #
coedge $-1 $175 $180 $63 $105 forward $181 $-1 #
edge $-1 $182 5.2989425866598978 $183 12.866538734837413 $104 $184 forward 7 unknown #
loop $-1 $-1 $111 $64 #
plane-surface $-1 -30.962687310689567 -11.340016335893722 71.116892391163887 0 0.77714596973225614 0.62932038083071107 1 0 0 forward_v I I I I #
loop $-1 $-1 $185 $42 #
coedge $-1 $109 $109 $110 $186 reversed $65 $-1 #
coedge $-1 $110 $110 $109 $186 forward $67 $-1 #
coedge $-1 $111 $111 $68 $112 forward $106 $-1 #
edge $-1 $187 -2.205799996075524e-015 $187 6.2831853071795987 $111 $188 forward 7 unknown #
loop $-1 $-1 $118 $69 #
plane-surface $-1 -30.962687310689567 -11.340016335893722 71.116892391163887 0 0.77714596973225614 0.62932038083071107 1 0 0 forward_v I I I I #
loop $-1 $-1 $189 $45 #
coedge $-1 $116 $116 $117 $190 reversed $70 $-1 #
coedge $-1 $117 $117 $116 $190 forward $72 $-1 #
coedge $-1 $118 $118 $73 $119 forward $113 $-1 #
edge $-1 $191 -2.205799996075524e-015 $191 6.2831853071795987 $118 $192 forward 7 unknown #
face $-1 $193 $194 $18 $-1 $195 reversed single #
loop $-1 $-1 $196 $74 #
plane-surface $-1 -70.53193762016663 0 0 1 0 0 0 0 -1 forward_v I I I I #
coedge $-1 $197 $131 $198 $199 forward $75 $-1 #
coedge $-1 $200 $77 $197 $201 forward $49 $-1 #
coedge $-1 $77 $200 $202 $203 forward $49 $-1 #
coedge $-1 $134 $133 $77 $127 reversed $135 $-1 #
edge $-1 $204 -43.844660304312633 $205 43.844660304312633 $126 $206 forward 7 unknown #
coedge $-1 $79 $78 $207 $208 forward $31 $-1 #
coedge $-1 $209 $210 $78 $130 reversed $194 $-1 #
edge $-1 $137 -70.53193762016663 $211 70.53193762016663 $129 $212 forward 7 unknown #
coedge $-1 $123 $213 $79 $132 reversed $75 $-1 #
edge $-1 $214 -70.53193762016663 $136 70.53193762016663 $131 $215 forward 7 unknown #
coedge $-1 $126 $80 $213 $216 forward $135 $-1 #
coedge $-1 $80 $126 $209 $217 reversed $135 $-1 #
loop $-1 $-1 $133 $193 #
vertex $-1 $81 $218 #
vertex $-1 $81 $219 #
straight-curve $-1 70.53193762016663 0 12.314693508062394 0 1 0 I I #
face $-1 $220 $221 $19 $-1 $222 forward single #
loop $-1 $-1 $223 $82 #
plane-surface $-1 -84.184842605264706 0 10.814693508062394 1 0 0 0 0 -1 forward_v I I I I #
coedge $-1 $224 $85 $149 $225 reversed $53 $-1 #
coedge $-1 $85 $224 $226 $227 reversed $53 $-1 #
edge $-1 $228 -12.314693508062394 $151 -9.314693508062394 $85 $229 forward 7 unknown #
coedge $-1 $87 $86 $230 $231 reversed $34 $-1 #
coedge $-1 $232 $233 $87 $147 forward $234 $-1 #
edge $-1 $150 9.314693508062394 $235 12.314693508062394 $146 $236 forward 7 unknown #
coedge $-1 $237 $88 $233 $238 forward $83 $-1 #
coedge $-1 $88 $237 $142 $225 forward $83 $-1 #
vertex $-1 $147 $239 #
vertex $-1 $144 $240 #
straight-curve $-1 -70.53193762016663 0 9.314693508062394 0 1 0 I I #
face $-1 $241 $242 $20 $-1 $243 reversed single #
loop $-1 $-1 $244 $90 #
plane-surface $-1 77.358390112715668 0 9.314693508062394 0 0 1 1 0 0 forward_v I I I I #
coedge $-1 $245 $246 $94 $161 forward $91 $-1 #
coedge $-1 $247 $93 $246 $248 forward $57 $-1 #
coedge $-1 $93 $247 $249 $250 forward $57 $-1 #
coedge $-1 $95 $94 $93 $160 reversed $37 $-1 #
edge $-1 $251 -43.844660304312633 $252 43.844660304312633 $93 $253 forward 7 unknown #
edge $-1 $252 -12.314693508062394 $167 -9.314693508062394 $156 $254 forward 7 unknown #
coedge $-1 $249 $255 $95 $163 forward $256 $-1 #
edge $-1 $166 9.314693508062394 $251 12.314693508062394 $162 $257 forward 7 unknown #
coedge $-1 $244 $96 $255 $258 forward $154 $-1 #
coedge $-1 $96 $244 $245 $259 forward $154 $-1 #
vertex $-1 $163 $260 #
vertex $-1 $161 $261 #
straight-curve $-1 70.53193762016663 0 9.314693508062394 0 -1 0 I I #
face $-1 $-1 $181 $21 $-1 $262 forward single #
loop $-1 $-1 $263 $98 #
plane-surface $-1 0 43.844660304312633 0 0 -1 0 0 0 -1 forward_v I I I I #
coedge $-1 $264 $265 $266 $267 reversed $99 $-1 #
coedge $-1 $268 $101 $103 $179 forward $61 $-1 #
coedge $-1 $101 $268 $264 $269 forward $61 $-1 #
coedge $-1 $266 $104 $101 $176 forward $181 $-1 #
edge $-1 $183 -29.659354301832085 $270 -1.3033330088574822 $175 $271 forward 7 unknown #
coedge $-1 $272 $273 $102 $178 forward $170 $-1 #
edge $-1 $274 -76.976141747822055 $182 -67.630938531370774 $177 $275 forward 7 unknown #
edge $-1 $183 75.664291102687116 $274 87.689320608625252 $103 $276 forward 7 unknown #
coedge $-1 $104 $266 $272 $277 forward $181 $-1 #
loop $-1 $-1 $266 $169 #
vertex $-1 $178 $278 #
vertex $-1 $105 $279 #
straight-curve $-1 -45.140697957176869 49.143602890972531 12.31469350806239 0 -1 0 I I #
coedge $-1 $185 $185 $-1 $280 reversed $108 $-1 #
edge $-1 $281 0 $281 6.2831853071796004 $109 $282 forward 7 unknown #
vertex $-1 $112 $283 #
ellipse-curve $-1 -37.038977587755554 40.060862230223876 7.6420918998367515 0 0.77714596973225614 0.62932038083071107 2 0 0 1 I I #
coedge $-1 $189 $189 $-1 $284 reversed $115 $-1 #
edge $-1 $285 0 $285 6.2831853071796004 $116 $286 forward 7 unknown #
vertex $-1 $119 $287 #
ellipse-curve $-1 -24.886397033623581 40.060862230223876 7.6420918998367515 0 0.77714596973225614 0.62932038083071107 2 0 0 1 I I #
face $-1 $-1 $135 $18 $-1 $288 reversed single #
loop $-1 $-1 $209 $120 #
plane-surface $-1 0 43.844660304312633 0 0 -1 0 0 0 -1 forward_v I I I I #
coedge $-1 $289 $207 $210 $290 forward $121 $-1 #
coedge $-1 $213 $123 $124 $201 reversed $75 $-1 #
coedge $-1 $207 $289 $123 $199 reversed $121 $-1 #
edge $-1 $214 -12.314693508062394 $291 12.314693508062394 $198 $292 forward 7 unknown #
coedge $-1 $125 $124 $289 $293 forward $49 $-1 #
edge $-1 $205 -70.53193762016663 $291 70.53193762016663 $197 $294 forward 7 unknown #
coedge $-1 $210 $209 $125 $203 reversed $194 $-1 #
edge $-1 $295 -70.53193762016663 $204 70.53193762016663 $202 $296 forward 7 unknown #
vertex $-1 $127 $297 #
vertex $-1 $216 $298 #
straight-curve $-1 70.53193762016663 0 -12.314693508062394 0 -1 0 I I #
coedge $-1 $196 $198 $128 $208 reversed $121 $-1 #
edge $-1 $211 -43.844660304312633 $214 43.844660304312633 $207 $299 forward 7 unknown #
coedge $-1 $202 $129 $134 $217 forward $194 $-1 #
coedge $-1 $129 $202 $196 $290 reversed $194 $-1 #
vertex $-1 $130 $300 #
straight-curve $-1 0 43.844660304312633 12.314693508062394 -1 0 0 I I #
coedge $-1 $131 $197 $133 $216 reversed $75 $-1 #
vertex $-1 $208 $301 #
straight-curve $-1 0 -43.844660304312633 12.314693508062394 1 0 0 I I #
edge $-1 $136 -12.314693508062394 $205 12.314693508062394 $133 $302 forward 7 unknown #
edge $-1 $137 -12.314693508062394 $204 12.314693508062394 $134 $303 forward 7 unknown #
point $-1 70.53193762016663 -43.844660304312633 12.314693508062394 #
point $-1 70.53193762016663 43.844660304312633 12.314693508062394 #
face $-1 $-1 $234 $19 $-1 $304 reversed single #
loop $-1 $-1 $230 $139 #
plane-surface $-1 0 0 12.314693508062394 0 0 1 1 0 0 forward_v I I I I #
coedge $-1 $305 $306 $224 $307 forward $140 $-1 #
coedge $-1 $143 $142 $223 $307 reversed $53 $-1 #
edge $-1 $308 -6.8264524925490377 $151 6.8264524925490377 $142 $309 forward 7 unknown #
coedge $-1 $310 $230 $143 $227 forward $221 $-1 #
edge $-1 $228 70.53193762016663 $311 84.184842605264706 $143 $312 forward 7 unknown #
vertex $-1 $227 $313 #
straight-curve $-1 -70.53193762016663 43.844660304312633 0 0 0 -1 I I #
coedge $-1 $226 $314 $145 $231 forward $221 $-1 #
edge $-1 $235 -43.844660304312633 $228 43.844660304312633 $230 $315 forward 7 unknown #
coedge $-1 $316 $146 $314 $317 reversed $234 $-1 #
coedge $-1 $146 $316 $148 $238 reversed $234 $-1 #
loop $-1 $-1 $146 $220 #
vertex $-1 $147 $318 #
straight-curve $-1 -70.53193762016663 -43.844660304312633 0 0 0 1 I I #
coedge $-1 $149 $148 $305 $319 forward $83 $-1 #
edge $-1 $150 -6.8264524925490377 $320 6.8264524925490377 $233 $321 forward 7 unknown #
point $-1 -70.53193762016663 -43.844660304312633 9.314693508062394 #
point $-1 -70.53193762016663 43.844660304312633 9.314693508062394 #
face $-1 $-1 $256 $20 $-1 $322 reversed single #
loop $-1 $-1 $323 $153 #
plane-surface $-1 84.184842605264706 0 10.814693508062394 -1 0 0 0 0 1 forward_v I I I I #
coedge $-1 $165 $164 $324 $325 forward $154 $-1 #
coedge $-1 $326 $156 $165 $259 reversed $91 $-1 #
coedge $-1 $156 $326 $157 $248 reversed $91 $-1 #
coedge $-1 $158 $157 $327 $328 forward $57 $-1 #
edge $-1 $252 -6.8264524925490377 $329 6.8264524925490377 $246 $330 forward 7 unknown #
coedge $-1 $331 $162 $158 $250 reversed $256 $-1 #
edge $-1 $332 -84.184842605264706 $251 -70.53193762016663 $249 $333 forward 7 unknown #
vertex $-1 $163 $334 #
vertex $-1 $248 $335 #
straight-curve $-1 70.53193762016663 0 12.314693508062394 0 -1 0 I I #
straight-curve $-1 70.53193762016663 -43.844660304312633 0 0 0 -1 I I #
coedge $-1 $162 $331 $164 $258 reversed $256 $-1 #
loop $-1 $-1 $162 $241 #
straight-curve $-1 70.53193762016663 43.844660304312633 0 0 0 1 I I #
edge $-1 $166 -6.8264524925490377 $336 6.8264524925490377 $255 $337 forward 7 unknown #
edge $-1 $338 -6.8264524925490377 $167 6.8264524925490377 $245 $339 forward 7 unknown #
point $-1 70.53193762016663 43.844660304312633 9.314693508062394 #
point $-1 70.53193762016663 -43.844660304312633 9.314693508062394 #
plane-surface $-1 0 0 12.314693508062394 0 0 1 1 0 0 forward_v I I I I #
coedge $-1 $273 $272 $265 $340 forward $170 $-1 #
coedge $-1 $265 $172 $174 $269 reversed $99 $-1 #
coedge $-1 $172 $264 $263 $340 reversed $99 $-1 #
coedge $-1 $180 $175 $172 $267 forward $181 $-1 #
edge $-1 $270 -12.866538734837413 $341 -5.2989425866598978 $266 $342 forward 7 unknown #
coedge $-1 $174 $173 $273 $343 reversed $61 $-1 #
edge $-1 $344 -87.689320608625252 $270 -75.664291102687116 $264 $345 forward 7 unknown #
vertex $-1 $176 $346 #
straight-curve $-1 -15.481343655344784 36.277064156135111 12.31469350806239 1 0 0 I I #
coedge $-1 $263 $177 $180 $277 reversed $170 $-1 #
coedge $-1 $177 $263 $268 $343 forward $170 $-1 #
vertex $-1 $178 $347 #
straight-curve $-1 -45.140697957176869 43.844660304312633 79.945632039433164 0 0 1 I I #
straight-curve $-1 -45.140697957176869 -11.340016335893722 71.116892391163887 0 0.62932038083071107 -0.77714596973225614 I I #
edge $-1 $341 16.784676664202266 $182 45.140697957176869 $272 $348 forward 7 unknown #
point $-1 -45.140697957176869 43.844660304312633 12.314693508062394 #
point $-1 -45.140697957176869 36.277064156135118 12.31469350806239 #
edge $-1 $349 1 $349 0 $185 $-1 forward 7 unknown #
vertex $-1 $186 $350 #
ellipse-curve $-1 -37.038977587755554 36.67582907540141 4.9009461729260426 0 0.77714596973225614 0.62932038083071107 2 0 0 1 I I #
point $-1 -35.038977587755554 40.06086223022384 7.6420918998367284 #
edge $-1 $351 1 $351 0 $189 $-1 forward 7 unknown #
vertex $-1 $190 $352 #
ellipse-curve $-1 -24.886397033623581 36.67582907540141 4.9009461729260426 0 0.77714596973225614 0.62932038083071107 2 0 0 1 I I #
point $-1 -22.886397033623581 40.06086223022384 7.6420918998367284 #
plane-surface $-1 70.53193762016663 0 0 -1 0 0 0 0 1 forward_v I I I I #
coedge $-1 $198 $196 $200 $293 reversed $121 $-1 #
edge $-1 $211 -12.314693508062394 $295 12.314693508062394 $210 $353 forward 7 unknown #
vertex $-1 $293 $354 #
straight-curve $-1 -70.53193762016663 -43.844660304312633 0 0 0 -1 I I #
edge $-1 $291 -43.844660304312633 $295 43.844660304312633 $289 $355 forward 7 unknown #
straight-curve $-1 0 -43.844660304312633 -12.314693508062394 -1 0 0 I I #
vertex $-1 $203 $356 #
straight-curve $-1 0 43.844660304312633 -12.314693508062394 1 0 0 I I #
point $-1 70.53193762016663 43.844660304312633 -12.314693508062394 #
point $-1 70.53193762016663 -43.844660304312633 -12.314693508062394 #
straight-curve $-1 -70.53193762016663 0 12.314693508062394 0 -1 0 I I #
point $-1 -70.53193762016663 43.844660304312633 12.314693508062394 #
point $-1 -70.53193762016663 -43.844660304312633 12.314693508062394 #
straight-curve $-1 70.53193762016663 -43.844660304312633 0 0 0 -1 I I #
straight-curve $-1 70.53193762016663 43.844660304312633 0 0 0 -1 I I #
plane-surface $-1 0 -43.844660304312633 0 0 1 0 0 0 1 forward_v I I I I #
coedge $-1 $357 $223 $237 $319 reversed $140 $-1 #
coedge $-1 $223 $357 $310 $358 reversed $140 $-1 #
edge $-1 $311 -1.5 $308 1.5 $224 $359 forward 7 unknown #
vertex $-1 $225 $360 #
straight-curve $-1 -77.358390112715668 43.844660304312633 9.314693508062394 1 0 0 I I #
coedge $-1 $314 $226 $306 $358 forward $221 $-1 #
vertex $-1 $227 $361 #
straight-curve $-1 0 43.844660304312633 12.314693508062394 -1 0 0 I I #
point $-1 -70.53193762016663 43.844660304312633 12.314693508062394 #
coedge $-1 $230 $310 $232 $317 forward $221 $-1 #
straight-curve $-1 -70.53193762016663 0 12.314693508062394 0 1 0 I I #
coedge $-1 $233 $232 $357 $362 forward $234 $-1 #
edge $-1 $363 -84.184842605264706 $235 -70.53193762016663 $232 $364 forward 7 unknown #
point $-1 -70.53193762016663 -43.844660304312633 12.314693508062394 #
edge $-1 $320 -43.844660304312633 $308 43.844660304312633 $305 $365 forward 7 unknown #
vertex $-1 $319 $366 #
straight-curve $-1 -77.358390112715668 -43.844660304312633 9.314693508062394 -1 0 0 I I #
plane-surface $-1 0 43.844660304312633 0 0 -1 0 0 0 -1 forward_v I I I I #
coedge $-1 $324 $327 $326 $367 forward $242 $-1 #
coedge $-1 $368 $323 $244 $325 reversed $242 $-1 #
edge $-1 $336 -43.844660304312633 $338 43.844660304312633 $324 $369 forward 7 unknown #
coedge $-1 $246 $245 $323 $367 reversed $91 $-1 #
coedge $-1 $323 $368 $247 $328 reversed $242 $-1 #
edge $-1 $329 -43.844660304312633 $332 43.844660304312633 $327 $370 forward 7 unknown #
vertex $-1 $328 $371 #
straight-curve $-1 77.358390112715668 -43.844660304312633 12.314693508062394 1 0 0 I I #
coedge $-1 $255 $249 $368 $372 forward $256 $-1 #
vertex $-1 $328 $373 #
straight-curve $-1 0 43.844660304312633 12.314693508062394 -1 0 0 I I #
point $-1 70.53193762016663 43.844660304312633 12.314693508062394 #
point $-1 70.53193762016663 -43.844660304312633 12.314693508062394 #
vertex $-1 $325 $374 #
straight-curve $-1 77.358390112715668 43.844660304312633 9.314693508062394 1 0 0 I I #
vertex $-1 $367 $375 #
straight-curve $-1 77.358390112715668 -43.844660304312633 9.314693508062394 -1 0 0 I I #
edge $-1 $341 67.630938531370774 $344 76.976141747822055 $263 $376 forward 7 unknown #
vertex $-1 $277 $377 #
straight-curve $-1 -16.784676664202266 49.143602890972531 12.31469350806239 0 1 0 I I #
edge $-1 $344 1.3033330088574822 $274 29.659354301832085 $273 $378 forward 7 unknown #
vertex $-1 $343 $379 #
straight-curve $-1 -16.784676664202266 -11.340016335893722 71.116892391163887 0 -0.62932038083071107 0.77714596973225614 I I #
point $-1 -16.784676664202266 36.277064156135118 12.31469350806239 #
point $-1 -45.140697957176869 43.844660304312633 2.969490291611109 #
straight-curve $-1 0 43.844660304312633 12.314693508062394 -1 0 0 I I #
vertex $-1 $280 $380 #
point $-1 -35.038977587755554 36.67582907540141 4.9009461729260426 #
vertex $-1 $284 $381 #
point $-1 -22.886397033623581 36.67582907540141 4.9009461729260426 #
straight-curve $-1 -70.53193762016663 43.844660304312633 0 0 0 -1 I I #
point $-1 -70.53193762016663 -43.844660304312633 -12.314693508062394 #
straight-curve $-1 -70.53193762016663 0 -12.314693508062394 0 1 0 I I #
point $-1 -70.53193762016663 43.844660304312633 -12.314693508062394 #
coedge $-1 $306 $305 $316 $362 reversed $140 $-1 #
edge $-1 $311 -43.844660304312633 $363 43.844660304312633 $306 $382 forward 7 unknown #
straight-curve $-1 -84.184842605264706 43.844660304312633 10.814693508062394 0 0 -1 I I #
point $-1 -84.184842605264706 43.844660304312633 9.314693508062394 #
point $-1 -84.184842605264706 43.844660304312633 12.314693508062394 #
edge $-1 $363 -1.5 $320 1.5 $357 $383 forward 7 unknown #
vertex $-1 $358 $384 #
straight-curve $-1 0 -43.844660304312633 12.314693508062394 1 0 0 I I #
straight-curve $-1 -84.184842605264706 0 9.314693508062394 0 1 0 I I #
point $-1 -84.184842605264706 -43.844660304312633 9.314693508062394 #
edge $-1 $329 -1.5 $338 1.5 $323 $385 forward 7 unknown #
coedge $-1 $327 $324 $331 $372 reversed $242 $-1 #
straight-curve $-1 84.184842605264706 0 9.314693508062394 0 -1 0 I I #
straight-curve $-1 84.184842605264706 0 12.314693508062394 0 1 0 I I #
point $-1 84.184842605264706 -43.844660304312633 12.314693508062394 #
edge $-1 $332 -1.5 $336 1.5 $368 $386 forward 7 unknown #
point $-1 84.184842605264706 43.844660304312633 12.314693508062394 #
point $-1 84.184842605264706 43.844660304312633 9.314693508062394 #
point $-1 84.184842605264706 -43.844660304312633 9.314693508062394 #
straight-curve $-1 -16.784676664202266 43.844660304312633 79.945632039433164 0 0 -1 I I #
point $-1 -16.784676664202266 43.844660304312633 12.314693508062394 #
straight-curve $-1 -15.481343655344784 43.844660304312633 2.9694902916111161 -1 0 0 I I #
point $-1 -16.784676664202266 43.844660304312633 2.969490291611109 #
point $-1 -37.038977587755554 35.121537135936904 3.6423054112646209 #
point $-1 -24.886397033623581 35.121537135936904 3.6423054112646209 #
straight-curve $-1 -84.184842605264706 0 12.314693508062394 0 -1 0 I I #
straight-curve $-1 -84.184842605264706 -43.844660304312633 10.814693508062394 0 0 -1 I I #
point $-1 -84.184842605264706 -43.844660304312633 12.314693508062394 #
straight-curve $-1 84.184842605264706 -43.844660304312633 10.814693508062394 0 0 -1 I I #
straight-curve $-1 84.184842605264706 43.844660304312633 10.814693508062394 0 0 -1 I I #
End-of-ACIS-data 