500 0 18 0           
7 Unknown 11 ACIS 5.0 NT 24 Fri Mar 26 15:03:04 1999 
-1 9.9999999999999995e-007 1e-010 
body $-1 $18 $-1 $19 #
body $-1 $20 $-1 $21 #
body $-1 $22 $-1 $23 #
body $-1 $24 $-1 $25 #
body $-1 $26 $-1 $27 #
body $-1 $28 $-1 $29 #
body $-1 $30 $-1 $31 #
body $-1 $32 $-1 $33 #
body $-1 $34 $-1 $35 #
body $-1 $36 $-1 $37 #
body $-1 $38 $-1 $39 #
body $-1 $40 $-1 $41 #
body $-1 $42 $-1 $43 #
body $-1 $44 $-1 $45 #
body $-1 $46 $-1 $47 #
body $-1 $48 $-1 $49 #
body $-1 $50 $-1 $51 #
body $-1 $52 $-1 $53 #
lump $-1 $-1 $54 $0 #
transform $-1 1 0 0 0 1 0 0 0 1 46.253852961821345 27.389954403659186 12.799476907245404 1 rotate no_reflect no_shear #
lump $-1 $-1 $55 $1 #
transform $-1 1 0 0 0 1 0 0 0 1 46.253852961821345 27.389954403659186 12.799476907245404 1 rotate no_reflect no_shear #
lump $-1 $-1 $56 $2 #
transform $-1 1 0 0 0 1 0 0 0 1 46.253852961821345 27.389954403659186 12.799476907245404 1 rotate no_reflect no_shear #
lump $-1 $-1 $57 $3 #
transform $-1 1 0 0 0 1 0 0 0 1 46.253852961821345 27.389954403659186 12.799476907245404 1 rotate no_reflect no_shear #
lump $-1 $-1 $58 $4 #
transform $-1 1 0 0 0 1 0 0 0 1 46.253852961821345 27.389954403659186 12.799476907245404 1 rotate no_reflect no_shear #
lump $-1 $-1 $59 $5 #
transform $-1 1 0 0 0 1 0 0 0 1 46.253852961821345 27.389954403659186 12.799476907245404 1 rotate no_reflect no_shear #
lump $-1 $-1 $60 $6 #
transform $-1 1 0 0 0 1 0 0 0 1 46.253852961821345 27.389954403659186 12.799476907245404 1 rotate no_reflect no_shear #
lump $-1 $-1 $61 $7 #
transform $-1 1 0 0 0 1 0 0 0 1 46.253852961821345 27.389954403659186 12.799476907245404 1 rotate no_reflect no_shear #
lump $-1 $-1 $62 $8 #
transform $-1 1 0 0 0 1 0 0 0 1 46.253852961821345 27.389954403659186 12.799476907245404 1 rotate no_reflect no_shear #
lump $-1 $-1 $63 $9 #
transform $-1 1 0 0 0 1 0 0 0 1 46.253852961821345 27.389954403659186 12.799476907245404 1 rotate no_reflect no_shear #
lump $-1 $-1 $64 $10 #
transform $-1 1 0 0 0 1 0 0 0 1 46.253852961821345 27.389954403659186 12.799476907245404 1 rotate no_reflect no_shear #
lump $-1 $-1 $65 $11 #
transform $-1 1 0 0 0 1 0 0 0 1 46.253852961821345 27.389954403659186 12.799476907245404 1 rotate no_reflect no_shear #
lump $-1 $-1 $66 $12 #
transform $-1 1 0 0 0 1 0 0 0 1 46.253852961821345 27.389954403659186 12.799476907245404 1 rotate no_reflect no_shear #
lump $-1 $-1 $67 $13 #
transform $-1 1 0 0 0 1 0 0 0 1 46.253852961821345 27.389954403659186 12.799476907245404 1 rotate no_reflect no_shear #
lump $-1 $-1 $68 $14 #
transform $-1 1 0 0 0 1 0 0 0 1 46.253852961821345 27.389954403659186 12.799476907245404 1 rotate no_reflect no_shear #
lump $-1 $-1 $69 $15 #
transform $-1 1 0 0 0 1 0 0 0 1 46.253852961821345 27.389954403659186 12.799476907245404 1 rotate no_reflect no_shear #
lump $-1 $-1 $70 $16 #
transform $-1 1 0 0 0 1 0 0 0 1 46.253852961821345 27.389954403659186 12.799476907245404 1 rotate no_reflect no_shear #
lump $-1 $-1 $71 $17 #
transform $-1 1 0 0 0 1 0 0 0 1 46.253852961821345 27.389954403659186 12.799476907245404 1 rotate no_reflect no_shear #
shell $-1 $-1 $-1 $72 $-1 $18 #
shell $-1 $-1 $-1 $73 $-1 $20 #
shell $-1 $-1 $-1 $74 $-1 $22 #
shell $-1 $-1 $-1 $75 $-1 $24 #
shell $-1 $-1 $-1 $76 $-1 $26 #
shell $-1 $-1 $-1 $77 $-1 $28 #
shell $-1 $-1 $-1 $78 $-1 $30 #
shell $-1 $-1 $-1 $79 $-1 $32 #
shell $-1 $-1 $-1 $80 $-1 $34 #
shell $-1 $-1 $-1 $81 $-1 $36 #
shell $-1 $-1 $-1 $82 $-1 $38 #
shell $-1 $-1 $-1 $83 $-1 $40 #
shell $-1 $-1 $-1 $84 $-1 $42 #
shell $-1 $-1 $-1 $85 $-1 $44 #
shell $-1 $-1 $-1 $86 $-1 $46 #
shell $-1 $-1 $-1 $87 $-1 $48 #
shell $-1 $-1 $-1 $88 $-1 $50 #
shell $-1 $-1 $-1 $89 $-1 $52 #
face $-1 $90 $91 $54 $-1 $92 forward single #
face $-1 $93 $94 $55 $-1 $95 forward single #
face $-1 $96 $97 $56 $-1 $98 reversed single #
face $-1 $99 $100 $57 $-1 $101 forward single #
face $-1 $102 $103 $58 $-1 $104 forward single #
face $-1 $105 $106 $59 $-1 $107 forward single #
face $-1 $108 $109 $60 $-1 $110 reversed single #
face $-1 $111 $112 $61 $-1 $113 forward single #
face $-1 $114 $115 $62 $-1 $116 forward single #
face $-1 $117 $118 $63 $-1 $119 forward single #
face $-1 $120 $121 $64 $-1 $122 reversed single #
face $-1 $123 $124 $65 $-1 $125 forward single #
face $-1 $126 $127 $66 $-1 $128 forward single #
face $-1 $129 $130 $67 $-1 $131 forward single #
face $-1 $132 $133 $68 $-1 $134 reversed single #
face $-1 $135 $136 $69 $-1 $137 forward single #
face $-1 $138 $139 $70 $-1 $140 forward single #
face $-1 $141 $142 $71 $-1 $143 forward single #
face $-1 $144 $145 $54 $-1 $146 reversed single #
loop $-1 $-1 $147 $72 #
plane-surface $-1 0 0 12.799476907245404 0 0 1 1 0 0 forward_v I I I I #
face $-1 $148 $149 $55 $-1 $150 reversed single #
loop $-1 $-1 $151 $73 #
plane-surface $-1 0 -19.003013860267494 -8.4781935052222419 0 0 1 1 0 0 forward_v I I I I #
face $-1 $152 $153 $56 $-1 $154 reversed single #
loop $-1 $-1 $155 $74 #
plane-surface $-1 37.127918158838817 -1.2550883024842925 130.91489296883694 0 -1 0 -0.6560590369687036 0 -0.75470957328743171 forward_v I I I I #
face $-1 $156 $157 $57 $-1 $158 forward single #
loop $-1 $159 $160 $75 #
cone-surface $-1 38.7983988211368 -8.7438763139975002 6.2263462894571271 -0.6560590369687036 0 -0.75470957328743171 0.37735478664371586 0 -0.3280295184843518 1 I I 0 1 0.5 forward I I I I #
face $-1 $161 $162 $58 $-1 $163 forward single #
loop $-1 $164 $165 $76 #
cone-surface $-1 38.7983988211368 -5.9355808096800473 6.2263462894571271 -0.6560590369687036 0 -0.75470957328743171 0.37735478664371586 0 -0.3280295184843518 1 I I 0 1 0.5 forward I I I I #
face $-1 $166 $167 $59 $-1 $168 forward single #
loop $-1 $169 $170 $77 #
cone-surface $-1 38.7983988211368 -3.1272853053625944 6.2263462894571271 -0.6560590369687036 0 -0.75470957328743171 0.37735478664371586 0 -0.3280295184843518 1 I I 0 1 0.5 forward I I I I #
face $-1 $171 $172 $60 $-1 $173 reversed single #
loop $-1 $-1 $174 $78 #
plane-surface $-1 37.127918158838817 17.747925557783198 130.91489296883694 0 -1 0 -0.6560590369687036 0 -0.75470957328743171 forward_v I I I I #
face $-1 $175 $176 $61 $-1 $177 forward single #
loop $-1 $178 $179 $79 #
cone-surface $-1 38.7983988211368 10.259137546269994 6.2263462894571271 -0.6560590369687036 0 -0.75470957328743171 0.37735478664371586 0 -0.3280295184843518 1 I I 0 1 0.5 forward I I I I #
face $-1 $180 $181 $62 $-1 $182 forward single #
loop $-1 $183 $184 $80 #
cone-surface $-1 38.7983988211368 13.067433050587443 6.2263462894571271 -0.6560590369687036 0 -0.75470957328743171 0.37735478664371586 0 -0.3280295184843518 1 I I 0 1 0.5 forward I I I I #
face $-1 $185 $186 $63 $-1 $187 forward single #
loop $-1 $188 $189 $81 #
cone-surface $-1 38.7983988211368 15.875728554904899 6.2263462894571271 -0.6560590369687036 0 -0.75470957328743171 0.37735478664371586 0 -0.3280295184843518 1 I I 0 1 0.5 forward I I I I #
face $-1 $190 $191 $64 $-1 $192 reversed single #
loop $-1 $-1 $193 $82 #
plane-surface $-1 -106.9443694222704 -10.616073316875802 70.224376508387877 0 1 0 -0.6560590369687036 0 0.75470957328743171 forward_v I I I I #
face $-1 $194 $195 $65 $-1 $196 forward single #
loop $-1 $197 $198 $83 #
cone-surface $-1 -38.798398821136793 -8.7438763139975002 6.2263462894571306 0.6560590369687036 0 -0.75470957328743171 0.37735478664371586 0 0.3280295184843518 1 I I 0 1 0.5 forward I I I I #
face $-1 $199 $200 $66 $-1 $201 forward single #
loop $-1 $202 $203 $84 #
cone-surface $-1 -38.798398821136793 -5.9355808096800473 6.2263462894571306 0.6560590369687036 0 -0.75470957328743171 0.37735478664371586 0 0.3280295184843518 1 I I 0 1 0.5 forward I I I I #
face $-1 $204 $205 $67 $-1 $206 forward single #
loop $-1 $207 $208 $85 #
cone-surface $-1 -38.798398821136793 -3.1272853053625944 6.2263462894571306 0.6560590369687036 0 -0.75470957328743171 0.37735478664371586 0 0.3280295184843518 1 I I 0 1 0.5 forward I I I I #
face $-1 $209 $210 $68 $-1 $211 reversed single #
loop $-1 $-1 $212 $86 #
plane-surface $-1 -106.9443694222704 8.3869405433916882 70.224376508387877 0 1 0 -0.6560590369687036 0 0.75470957328743171 forward_v I I I I #
face $-1 $213 $214 $69 $-1 $215 forward single #
loop $-1 $216 $217 $87 #
cone-surface $-1 -38.798398821136793 10.259137546269994 6.2263462894571306 0.6560590369687036 0 -0.75470957328743171 0.37735478664371586 0 0.3280295184843518 1 I I 0 1 0.5 forward I I I I #
face $-1 $218 $219 $70 $-1 $220 forward single #
loop $-1 $221 $222 $88 #
cone-surface $-1 -38.798398821136793 13.067433050587443 6.2263462894571306 0.6560590369687036 0 -0.75470957328743171 0.37735478664371586 0 0.3280295184843518 1 I I 0 1 0.5 forward I I I I #
face $-1 $223 $224 $71 $-1 $225 forward single #
loop $-1 $226 $227 $89 #
cone-surface $-1 -38.798398821136793 15.875728554904899 6.2263462894571306 0.6560590369687036 0 -0.75470957328743171 0.37735478664371586 0 0.3280295184843518 1 I I 0 1 0.5 forward I I I I #
face $-1 $228 $229 $54 $-1 $230 reversed single #
loop $-1 $-1 $231 $90 #
plane-surface $-1 0 0 -12.799476907245404 0 0 1 1 0 0 forward_v I I I I #
coedge $-1 $232 $233 $234 $235 forward $91 $-1 #
face $-1 $236 $237 $55 $-1 $238 reversed single #
loop $-1 $-1 $239 $93 #
plane-surface $-1 0 -10.616073316875802 -10.638835206233823 0 -1 0 0 0 -1 forward_v I I I I #
coedge $-1 $240 $241 $242 $243 reversed $94 $-1 #
face $-1 $244 $245 $56 $-1 $246 reversed single #
loop $-1 $-1 $247 $96 #
plane-surface $-1 -23.562598301610244 -5.9355808096800473 61.098441705405349 0.6560590369687036 0 0.75470957328743171 0.75470957328743171 0 -0.6560590369687036 forward_v I I I I #
coedge $-1 $248 $249 $250 $251 reversed $97 $-1 #
face $-1 $-1 $252 $57 $-1 $253 forward single #
loop $-1 $254 $255 $99 #
cone-surface $-1 38.306354543410272 -8.7438763139975002 5.6603141094915532 -0.6560590369687036 0 -0.75470957328743171 0.18867739332185793 0 -0.1640147592421759 1 I I -0.70710678118654746 0.70710678118654746 0.25 forward I I I I #
loop $-1 $-1 $256 $75 #
coedge $-1 $160 $160 $257 $258 reversed $100 $-1 #
face $-1 $-1 $259 $58 $-1 $260 forward single #
loop $-1 $261 $262 $102 #
cone-surface $-1 38.306354543410272 -5.9355808096800473 5.6603141094915532 -0.6560590369687036 0 -0.75470957328743171 0.18867739332185793 0 -0.1640147592421759 1 I I -0.70710678118654746 0.70710678118654746 0.25 forward I I I I #
loop $-1 $-1 $263 $76 #
coedge $-1 $165 $165 $264 $265 reversed $103 $-1 #
face $-1 $-1 $266 $59 $-1 $267 forward single #
loop $-1 $268 $269 $105 #
cone-surface $-1 38.306354543410272 -3.1272853053625944 5.6603141094915532 -0.6560590369687036 0 -0.75470957328743171 0.18867739332185793 0 -0.1640147592421759 1 I I -0.70710678118654746 0.70710678118654746 0.25 forward I I I I #
loop $-1 $-1 $270 $77 #
coedge $-1 $170 $170 $271 $272 reversed $106 $-1 #
face $-1 $273 $274 $60 $-1 $275 reversed single #
loop $-1 $-1 $276 $108 #
plane-surface $-1 -23.562598301610244 13.067433050587443 61.098441705405349 0.6560590369687036 0 0.75470957328743171 0.75470957328743171 0 -0.6560590369687036 forward_v I I I I #
coedge $-1 $277 $278 $279 $280 reversed $109 $-1 #
face $-1 $-1 $281 $61 $-1 $282 forward single #
loop $-1 $283 $284 $111 #
cone-surface $-1 38.306354543410272 10.259137546269994 5.6603141094915532 -0.6560590369687036 0 -0.75470957328743171 0.18867739332185793 0 -0.1640147592421759 1 I I -0.70710678118654746 0.70710678118654746 0.25 forward I I I I #
loop $-1 $-1 $285 $79 #
coedge $-1 $179 $179 $286 $287 reversed $112 $-1 #
face $-1 $-1 $288 $62 $-1 $289 forward single #
loop $-1 $290 $291 $114 #
cone-surface $-1 38.306354543410272 13.067433050587443 5.6603141094915532 -0.6560590369687036 0 -0.75470957328743171 0.18867739332185793 0 -0.1640147592421759 1 I I -0.70710678118654746 0.70710678118654746 0.25 forward I I I I #
loop $-1 $-1 $292 $80 #
coedge $-1 $184 $184 $293 $294 reversed $115 $-1 #
face $-1 $-1 $295 $63 $-1 $296 forward single #
loop $-1 $297 $298 $117 #
cone-surface $-1 38.306354543410272 15.875728554904899 5.6603141094915532 -0.6560590369687036 0 -0.75470957328743171 0.18867739332185793 0 -0.1640147592421759 1 I I -0.70710678118654746 0.70710678118654746 0.25 forward I I I I #
loop $-1 $-1 $299 $81 #
coedge $-1 $189 $189 $300 $301 reversed $118 $-1 #
face $-1 $302 $303 $64 $-1 $304 reversed single #
loop $-1 $-1 $305 $120 #
plane-surface $-1 -46.253852961821337 -5.9355808096800473 0.40792524495628868 -0.6560590369687036 0 0.75470957328743171 0.75470957328743171 0 0.6560590369687036 forward_v I I I I #
coedge $-1 $306 $307 $308 $309 reversed $121 $-1 #
face $-1 $-1 $310 $65 $-1 $311 forward single #
loop $-1 $312 $313 $123 #
cone-surface $-1 -38.306354543410265 -8.7438763139975002 5.6603141094915568 0.6560590369687036 0 -0.75470957328743171 0.18867739332185793 0 0.1640147592421759 1 I I -0.70710678118654746 0.70710678118654746 0.25 forward I I I I #
loop $-1 $-1 $314 $83 #
coedge $-1 $198 $198 $315 $316 reversed $124 $-1 #
face $-1 $-1 $317 $66 $-1 $318 forward single #
loop $-1 $319 $320 $126 #
cone-surface $-1 -38.306354543410265 -5.9355808096800473 5.6603141094915568 0.6560590369687036 0 -0.75470957328743171 0.18867739332185793 0 0.1640147592421759 1 I I -0.70710678118654746 0.70710678118654746 0.25 forward I I I I #
loop $-1 $-1 $321 $84 #
coedge $-1 $203 $203 $322 $323 reversed $127 $-1 #
face $-1 $-1 $324 $67 $-1 $325 forward single #
loop $-1 $326 $327 $129 #
cone-surface $-1 -38.306354543410265 -3.1272853053625944 5.6603141094915568 0.6560590369687036 0 -0.75470957328743171 0.18867739332185793 0 0.1640147592421759 1 I I -0.70710678118654746 0.70710678118654746 0.25 forward I I I I #
loop $-1 $-1 $328 $85 #
coedge $-1 $208 $208 $329 $330 reversed $130 $-1 #
face $-1 $331 $332 $68 $-1 $333 reversed single #
loop $-1 $-1 $334 $132 #
plane-surface $-1 -46.253852961821337 13.067433050587443 0.40792524495628868 -0.6560590369687036 0 0.75470957328743171 0.75470957328743171 0 0.6560590369687036 forward_v I I I I #
coedge $-1 $335 $336 $337 $338 reversed $133 $-1 #
face $-1 $-1 $339 $69 $-1 $340 forward single #
loop $-1 $341 $342 $135 #
cone-surface $-1 -38.306354543410265 10.259137546269994 5.6603141094915568 0.6560590369687036 0 -0.75470957328743171 0.18867739332185793 0 0.1640147592421759 1 I I -0.70710678118654746 0.70710678118654746 0.25 forward I I I I #
loop $-1 $-1 $343 $87 #
coedge $-1 $217 $217 $344 $345 reversed $136 $-1 #
face $-1 $-1 $346 $70 $-1 $347 forward single #
loop $-1 $348 $349 $138 #
cone-surface $-1 -38.306354543410265 13.067433050587443 5.6603141094915568 0.6560590369687036 0 -0.75470957328743171 0.18867739332185793 0 0.1640147592421759 1 I I -0.70710678118654746 0.70710678118654746 0.25 forward I I I I #
loop $-1 $-1 $350 $88 #
coedge $-1 $222 $222 $351 $352 reversed $139 $-1 #
face $-1 $-1 $353 $71 $-1 $354 forward single #
loop $-1 $355 $356 $141 #
cone-surface $-1 -38.306354543410265 15.875728554904899 5.6603141094915568 0.6560590369687036 0 -0.75470957328743171 0.18867739332185793 0 0.1640147592421759 1 I I -0.70710678118654746 0.70710678118654746 0.25 forward I I I I #
loop $-1 $-1 $357 $89 #
coedge $-1 $227 $227 $358 $359 reversed $142 $-1 #
face $-1 $360 $361 $54 $-1 $362 reversed single #
loop $-1 $-1 $363 $144 #
plane-surface $-1 0 -27.389954403659186 0 0 1 0 0 0 1 forward_v I I I I #
coedge $-1 $364 $365 $366 $367 forward $145 $-1 #
coedge $-1 $368 $147 $369 $370 forward $91 $-1 #
coedge $-1 $147 $368 $371 $372 forward $91 $-1 #
coedge $-1 $373 $374 $147 $235 reversed $375 $-1 #
edge $-1 $376 -27.389954403659186 $377 27.389954403659186 $234 $378 forward 7 unknown #
face $-1 $379 $380 $55 $-1 $381 reversed single #
loop $-1 $-1 $382 $148 #
plane-surface $-1 0 0 -12.799476907245404 0 0 1 1 0 0 forward_v I I I I #
coedge $-1 $383 $384 $385 $386 reversed $149 $-1 #
coedge $-1 $387 $151 $384 $388 forward $94 $-1 #
coedge $-1 $151 $387 $389 $390 reversed $94 $-1 #
coedge $-1 $391 $385 $151 $243 forward $380 $-1 #
edge $-1 $392 1.1145663867420552 $393 17.888447473525439 $242 $394 forward 7 unknown #
face $-1 $395 $396 $56 $-1 $397 reversed single #
loop $-1 $-1 $398 $152 #
plane-surface $-1 37.127918158838817 -10.616073316875802 130.91489296883694 0 1 0 0.6560590369687036 0 0.75470957328743171 forward_v I I I I #
coedge $-1 $399 $400 $401 $402 reversed $153 $-1 #
coedge $-1 $249 $155 $403 $404 reversed $97 $-1 #
coedge $-1 $155 $248 $399 $405 reversed $97 $-1 #
coedge $-1 $401 $406 $155 $251 forward $407 $-1 #
edge $-1 $408 -27.689893882401936 $409 -13.435044638001532 $250 $410 forward 7 unknown #
loop $-1 $-1 $257 $156 #
plane-surface $-1 -23.562598301610244 -5.9355808096800473 61.098441705405349 0.6560590369687036 0 0.75470957328743171 0.75470957328743171 0 -0.6560590369687036 forward_v I I I I #
loop $-1 $-1 $411 $99 #
coedge $-1 $255 $255 $256 $412 reversed $157 $-1 #
coedge $-1 $256 $256 $255 $412 forward $159 $-1 #
coedge $-1 $257 $257 $160 $258 forward $252 $-1 #
edge $-1 $413 0 $413 6.2831853071796004 $257 $414 forward 7 unknown #
loop $-1 $-1 $264 $161 #
plane-surface $-1 -23.562598301610244 -5.9355808096800473 61.098441705405349 0.6560590369687036 0 0.75470957328743171 0.75470957328743171 0 -0.6560590369687036 forward_v I I I I #
loop $-1 $-1 $415 $102 #
coedge $-1 $262 $262 $263 $416 reversed $162 $-1 #
coedge $-1 $263 $263 $262 $416 forward $164 $-1 #
coedge $-1 $264 $264 $165 $265 forward $259 $-1 #
edge $-1 $417 0 $417 6.2831853071796004 $264 $418 forward 7 unknown #
loop $-1 $-1 $271 $166 #
plane-surface $-1 -23.562598301610244 -5.9355808096800473 61.098441705405349 0.6560590369687036 0 0.75470957328743171 0.75470957328743171 0 -0.6560590369687036 forward_v I I I I #
loop $-1 $-1 $419 $105 #
coedge $-1 $269 $269 $270 $420 reversed $167 $-1 #
coedge $-1 $270 $270 $269 $420 forward $169 $-1 #
coedge $-1 $271 $271 $170 $272 forward $266 $-1 #
edge $-1 $421 0 $421 6.2831853071796004 $271 $422 forward 7 unknown #
face $-1 $423 $424 $60 $-1 $425 reversed single #
loop $-1 $-1 $426 $171 #
plane-surface $-1 37.127918158838817 8.3869405433916882 130.91489296883694 0 1 0 0.6560590369687036 0 0.75470957328743171 forward_v I I I I #
coedge $-1 $427 $428 $429 $430 reversed $172 $-1 #
coedge $-1 $278 $174 $431 $432 reversed $109 $-1 #
coedge $-1 $174 $277 $427 $433 reversed $109 $-1 #
coedge $-1 $429 $434 $174 $280 forward $435 $-1 #
edge $-1 $436 -27.689893882401936 $437 -13.435044638001532 $279 $438 forward 7 unknown #
loop $-1 $-1 $286 $175 #
plane-surface $-1 -23.562598301610244 13.067433050587443 61.098441705405349 0.6560590369687036 0 0.75470957328743171 0.75470957328743171 0 -0.6560590369687036 forward_v I I I I #
loop $-1 $-1 $439 $111 #
coedge $-1 $284 $284 $285 $440 reversed $176 $-1 #
coedge $-1 $285 $285 $284 $440 forward $178 $-1 #
coedge $-1 $286 $286 $179 $287 forward $281 $-1 #
edge $-1 $441 0 $441 6.2831853071796004 $286 $442 forward 7 unknown #
loop $-1 $-1 $293 $180 #
plane-surface $-1 -23.562598301610244 13.067433050587443 61.098441705405349 0.6560590369687036 0 0.75470957328743171 0.75470957328743171 0 -0.6560590369687036 forward_v I I I I #
loop $-1 $-1 $443 $114 #
coedge $-1 $291 $291 $292 $444 reversed $181 $-1 #
coedge $-1 $292 $292 $291 $444 forward $183 $-1 #
coedge $-1 $293 $293 $184 $294 forward $288 $-1 #
edge $-1 $445 0 $445 6.2831853071796004 $293 $446 forward 7 unknown #
loop $-1 $-1 $300 $185 #
plane-surface $-1 -23.562598301610244 13.067433050587443 61.098441705405349 0.6560590369687036 0 0.75470957328743171 0.75470957328743171 0 -0.6560590369687036 forward_v I I I I #
loop $-1 $-1 $447 $117 #
coedge $-1 $298 $298 $299 $448 reversed $186 $-1 #
coedge $-1 $299 $299 $298 $448 forward $188 $-1 #
coedge $-1 $300 $300 $189 $301 forward $295 $-1 #
edge $-1 $449 0 $449 6.2831853071796004 $300 $450 forward 7 unknown #
face $-1 $451 $452 $64 $-1 $453 forward single #
loop $-1 $-1 $454 $190 #
plane-surface $-1 -106.9443694222704 -1.2550883024842925 70.224376508387877 0 -1 0 0.6560590369687036 0 -0.75470957328743171 forward_v I I I I #
coedge $-1 $455 $456 $457 $458 reversed $191 $-1 #
coedge $-1 $307 $193 $459 $460 reversed $121 $-1 #
coedge $-1 $193 $306 $455 $461 reversed $121 $-1 #
coedge $-1 $457 $462 $193 $309 forward $452 $-1 #
edge $-1 $463 7.2183317493138546 $464 21.473180993714269 $308 $465 forward 7 unknown #
loop $-1 $-1 $315 $194 #
plane-surface $-1 -46.253852961821337 -5.9355808096800473 0.40792524495628868 -0.6560590369687036 0 0.75470957328743171 0.75470957328743171 0 0.6560590369687036 forward_v I I I I #
loop $-1 $-1 $466 $123 #
coedge $-1 $313 $313 $314 $467 reversed $195 $-1 #
coedge $-1 $314 $314 $313 $467 forward $197 $-1 #
coedge $-1 $315 $315 $198 $316 forward $310 $-1 #
edge $-1 $468 0 $468 6.2831853071796004 $315 $469 forward 7 unknown #
loop $-1 $-1 $322 $199 #
plane-surface $-1 -46.253852961821337 -5.9355808096800473 0.40792524495628868 -0.6560590369687036 0 0.75470957328743171 0.75470957328743171 0 0.6560590369687036 forward_v I I I I #
loop $-1 $-1 $470 $126 #
coedge $-1 $320 $320 $321 $471 reversed $200 $-1 #
coedge $-1 $321 $321 $320 $471 forward $202 $-1 #
coedge $-1 $322 $322 $203 $323 forward $317 $-1 #
edge $-1 $472 0 $472 6.2831853071796004 $322 $473 forward 7 unknown #
loop $-1 $-1 $329 $204 #
plane-surface $-1 -46.253852961821337 -5.9355808096800473 0.40792524495628868 -0.6560590369687036 0 0.75470957328743171 0.75470957328743171 0 0.6560590369687036 forward_v I I I I #
loop $-1 $-1 $474 $129 #
coedge $-1 $327 $327 $328 $475 reversed $205 $-1 #
coedge $-1 $328 $328 $327 $475 forward $207 $-1 #
coedge $-1 $329 $329 $208 $330 forward $324 $-1 #
edge $-1 $476 0 $476 6.2831853071796004 $329 $477 forward 7 unknown #
face $-1 $478 $479 $68 $-1 $480 forward single #
loop $-1 $-1 $481 $209 #
plane-surface $-1 -106.9443694222704 17.747925557783198 70.224376508387877 0 -1 0 0.6560590369687036 0 -0.75470957328743171 forward_v I I I I #
coedge $-1 $482 $483 $484 $485 reversed $210 $-1 #
coedge $-1 $336 $212 $486 $487 reversed $133 $-1 #
coedge $-1 $212 $335 $482 $488 reversed $133 $-1 #
coedge $-1 $484 $489 $212 $338 forward $479 $-1 #
edge $-1 $490 7.2183317493138546 $491 21.473180993714269 $337 $492 forward 7 unknown #
loop $-1 $-1 $344 $213 #
plane-surface $-1 -46.253852961821337 13.067433050587443 0.40792524495628868 -0.6560590369687036 0 0.75470957328743171 0.75470957328743171 0 0.6560590369687036 forward_v I I I I #
loop $-1 $-1 $493 $135 #
coedge $-1 $342 $342 $343 $494 reversed $214 $-1 #
coedge $-1 $343 $343 $342 $494 forward $216 $-1 #
coedge $-1 $344 $344 $217 $345 forward $339 $-1 #
edge $-1 $495 0 $495 6.2831853071796004 $344 $496 forward 7 unknown #
loop $-1 $-1 $351 $218 #
plane-surface $-1 -46.253852961821337 13.067433050587443 0.40792524495628868 -0.6560590369687036 0 0.75470957328743171 0.75470957328743171 0 0.6560590369687036 forward_v I I I I #
loop $-1 $-1 $497 $138 #
coedge $-1 $349 $349 $350 $498 reversed $219 $-1 #
coedge $-1 $350 $350 $349 $498 forward $221 $-1 #
coedge $-1 $351 $351 $222 $352 forward $346 $-1 #
edge $-1 $499 0 $499 6.2831853071796004 $351 $500 forward 7 unknown #
loop $-1 $-1 $358 $223 #
plane-surface $-1 -46.253852961821337 13.067433050587443 0.40792524495628868 -0.6560590369687036 0 0.75470957328743171 0.75470957328743171 0 0.6560590369687036 forward_v I I I I #
loop $-1 $-1 $501 $141 #
coedge $-1 $356 $356 $357 $502 reversed $224 $-1 #
coedge $-1 $357 $357 $356 $502 forward $226 $-1 #
coedge $-1 $358 $358 $227 $359 forward $353 $-1 #
edge $-1 $503 0 $503 6.2831853071796004 $358 $504 forward 7 unknown #
face $-1 $505 $506 $54 $-1 $507 reversed single #
loop $-1 $-1 $508 $228 #
plane-surface $-1 -46.253852961821345 0 0 1 0 0 0 0 -1 forward_v I I I I #
coedge $-1 $509 $371 $510 $511 forward $229 $-1 #
coedge $-1 $512 $231 $509 $513 forward $145 $-1 #
coedge $-1 $231 $512 $514 $515 forward $145 $-1 #
coedge $-1 $374 $373 $231 $367 reversed $375 $-1 #
edge $-1 $516 -27.389954403659186 $517 27.389954403659186 $366 $518 forward 7 unknown #
coedge $-1 $233 $232 $519 $520 forward $91 $-1 #
coedge $-1 $521 $522 $232 $370 reversed $506 $-1 #
edge $-1 $377 -46.253852961821345 $523 46.253852961821345 $369 $524 forward 7 unknown #
coedge $-1 $363 $525 $233 $372 reversed $229 $-1 #
edge $-1 $526 -46.253852961821345 $376 46.253852961821345 $371 $527 forward 7 unknown #
coedge $-1 $366 $234 $525 $528 forward $375 $-1 #
coedge $-1 $234 $366 $521 $529 reversed $375 $-1 #
loop $-1 $-1 $373 $505 #
vertex $-1 $235 $530 #
vertex $-1 $235 $531 #
straight-curve $-1 46.253852961821345 0 12.799476907245404 0 1 0 I I #
face $-1 $532 $533 $55 $-1 $534 reversed single #
loop $-1 $-1 $385 $236 #
plane-surface $-1 46.253852961821345 0 0 -1 0 0 0 0 1 forward_v I I I I #
coedge $-1 $535 $536 $383 $537 forward $237 $-1 #
coedge $-1 $538 $239 $382 $537 reversed $149 $-1 #
coedge $-1 $239 $538 $240 $388 reversed $149 $-1 #
coedge $-1 $242 $539 $239 $386 forward $380 $-1 #
edge $-1 $540 -7.4800593041284928 $392 -3.1587759021053303 $385 $541 forward 7 unknown #
coedge $-1 $241 $240 $542 $543 reversed $94 $-1 #
edge $-1 $392 -46.253852961821345 $544 46.253852961821345 $384 $545 forward 7 unknown #
coedge $-1 $546 $547 $241 $390 forward $533 $-1 #
edge $-1 $393 -46.253852961821345 $548 46.253852961821345 $389 $549 forward 7 unknown #
coedge $-1 $539 $242 $547 $550 forward $380 $-1 #
vertex $-1 $243 $551 #
vertex $-1 $550 $552 #
straight-curve $-1 46.253852961821345 -9.5015069301337469 -8.4781935052222419 0 -1 0 I I #
face $-1 $-1 $407 $56 $-1 $553 forward single #
loop $-1 $-1 $554 $244 #
plane-surface $-1 46.253852961821345 0 0 -1 0 0 0 0 1 forward_v I I I I #
coedge $-1 $555 $556 $557 $558 reversed $245 $-1 #
coedge $-1 $559 $247 $249 $405 forward $153 $-1 #
coedge $-1 $247 $559 $555 $560 forward $153 $-1 #
coedge $-1 $557 $250 $247 $402 forward $407 $-1 #
edge $-1 $409 -1.7127021023557312 $561 7.6482829120357785 $401 $562 forward 7 unknown #
coedge $-1 $563 $564 $248 $404 forward $396 $-1 #
edge $-1 $565 -65.04952123946218 $408 -52.657969577173063 $403 $566 forward 7 unknown #
edge $-1 $409 73.619845283015252 $565 92.507705923642689 $249 $567 forward 7 unknown #
coedge $-1 $250 $557 $563 $568 forward $407 $-1 #
loop $-1 $-1 $557 $395 #
vertex $-1 $404 $569 #
vertex $-1 $251 $570 #
straight-curve $-1 18.563959079419408 -1.2550883024842925 12.799476907245406 -1 0 0 I I #
coedge $-1 $411 $411 $-1 $571 reversed $254 $-1 #
edge $-1 $572 0 $572 6.2831853071796004 $255 $573 forward 7 unknown #
vertex $-1 $258 $574 #
ellipse-curve $-1 39.12642833962115 -8.7438763139975002 6.603701076100843 0.6560590369687036 0 0.75470957328743171 0.37735478664371586 0 -0.3280295184843518 1 I I #
coedge $-1 $415 $415 $-1 $575 reversed $261 $-1 #
edge $-1 $576 0 $576 6.2831853071796004 $262 $577 forward 7 unknown #
vertex $-1 $265 $578 #
ellipse-curve $-1 39.12642833962115 -5.9355808096800473 6.603701076100843 0.6560590369687036 0 0.75470957328743171 0.37735478664371586 0 -0.3280295184843518 1 I I #
coedge $-1 $419 $419 $-1 $579 reversed $268 $-1 #
edge $-1 $580 0 $580 6.2831853071796004 $269 $581 forward 7 unknown #
vertex $-1 $272 $582 #
ellipse-curve $-1 39.12642833962115 -3.1272853053625944 6.603701076100843 0.6560590369687036 0 0.75470957328743171 0.37735478664371586 0 -0.3280295184843518 1 I I #
face $-1 $-1 $435 $60 $-1 $583 forward single #
loop $-1 $-1 $584 $273 #
plane-surface $-1 46.253852961821345 0 0 -1 0 0 0 0 1 forward_v I I I I #
coedge $-1 $585 $586 $587 $588 reversed $274 $-1 #
coedge $-1 $589 $276 $278 $433 forward $172 $-1 #
coedge $-1 $276 $589 $585 $590 forward $172 $-1 #
coedge $-1 $587 $279 $276 $430 forward $435 $-1 #
edge $-1 $437 -11.214209032489476 $591 -1.8532240180979667 $429 $592 forward 7 unknown #
coedge $-1 $593 $594 $277 $432 forward $424 $-1 #
edge $-1 $595 -65.04952123946218 $436 -52.657969577173063 $431 $596 forward 7 unknown #
edge $-1 $437 73.619845283015252 $595 92.507705923642689 $278 $597 forward 7 unknown #
coedge $-1 $279 $587 $593 $598 forward $435 $-1 #
loop $-1 $-1 $587 $423 #
vertex $-1 $432 $599 #
vertex $-1 $280 $600 #
straight-curve $-1 18.563959079419408 17.747925557783198 12.799476907245406 -1 0 0 I I #
coedge $-1 $439 $439 $-1 $601 reversed $283 $-1 #
edge $-1 $602 0 $602 6.2831853071796004 $284 $603 forward 7 unknown #
vertex $-1 $287 $604 #
ellipse-curve $-1 39.12642833962115 10.259137546269994 6.603701076100843 0.6560590369687036 0 0.75470957328743171 0.37735478664371586 0 -0.3280295184843518 1 I I #
coedge $-1 $443 $443 $-1 $605 reversed $290 $-1 #
edge $-1 $606 0 $606 6.2831853071796004 $291 $607 forward 7 unknown #
vertex $-1 $294 $608 #
ellipse-curve $-1 39.12642833962115 13.067433050587443 6.603701076100843 0.6560590369687036 0 0.75470957328743171 0.37735478664371586 0 -0.3280295184843518 1 I I #
coedge $-1 $447 $447 $-1 $609 reversed $297 $-1 #
edge $-1 $610 0 $610 6.2831853071796004 $298 $611 forward 7 unknown #
vertex $-1 $301 $612 #
ellipse-curve $-1 39.12642833962115 15.875728554904899 6.603701076100843 0.6560590369687036 0 0.75470957328743171 0.37735478664371586 0 -0.3280295184843518 1 I I #
face $-1 $-1 $613 $64 $-1 $614 reversed single #
loop $-1 $-1 $308 $302 #
plane-surface $-1 0 0 12.799476907245404 0 0 1 1 0 0 forward_v I I I I #
coedge $-1 $615 $616 $617 $618 reversed $303 $-1 #
coedge $-1 $619 $305 $307 $461 forward $191 $-1 #
coedge $-1 $305 $619 $615 $620 forward $191 $-1 #
coedge $-1 $617 $308 $305 $458 forward $452 $-1 #
edge $-1 $464 -7.6482829120357785 $621 1.7127021023557312 $457 $622 forward 7 unknown #
coedge $-1 $623 $624 $306 $460 forward $613 $-1 #
edge $-1 $625 -34.704263009237657 $463 -22.312711346948532 $459 $626 forward 7 unknown #
edge $-1 $464 -18.887860640627437 $625 9.4049978074560379e-015 $307 $627 forward 7 unknown #
coedge $-1 $308 $617 $623 $628 forward $452 $-1 #
vertex $-1 $460 $629 #
vertex $-1 $309 $630 #
straight-curve $-1 -53.472184711135199 -10.616073316875802 12.799476907245406 1 0 0 I I #
coedge $-1 $466 $466 $-1 $631 reversed $312 $-1 #
edge $-1 $632 0 $632 6.2831853071796004 $313 $633 forward 7 unknown #
vertex $-1 $316 $634 #
ellipse-curve $-1 -39.126428339621143 -8.7438763139975002 6.6037010761008412 -0.6560590369687036 0 0.75470957328743171 0.37735478664371586 0 0.3280295184843518 1 I I #
coedge $-1 $470 $470 $-1 $635 reversed $319 $-1 #
edge $-1 $636 0 $636 6.2831853071796004 $320 $637 forward 7 unknown #
vertex $-1 $323 $638 #
ellipse-curve $-1 -39.126428339621143 -5.9355808096800473 6.6037010761008412 -0.6560590369687036 0 0.75470957328743171 0.37735478664371586 0 0.3280295184843518 1 I I #
coedge $-1 $474 $474 $-1 $639 reversed $326 $-1 #
edge $-1 $640 0 $640 6.2831853071796004 $327 $641 forward 7 unknown #
vertex $-1 $330 $642 #
ellipse-curve $-1 -39.126428339621143 -3.1272853053625944 6.6037010761008412 -0.6560590369687036 0 0.75470957328743171 0.37735478664371586 0 0.3280295184843518 1 I I #
face $-1 $-1 $643 $68 $-1 $644 reversed single #
loop $-1 $-1 $337 $331 #
plane-surface $-1 0 0 12.799476907245404 0 0 1 1 0 0 forward_v I I I I #
coedge $-1 $645 $646 $647 $648 reversed $332 $-1 #
coedge $-1 $649 $334 $336 $488 forward $210 $-1 #
coedge $-1 $334 $649 $645 $650 forward $210 $-1 #
coedge $-1 $647 $337 $334 $485 forward $479 $-1 #
edge $-1 $491 1.8532240180979667 $651 11.214209032489476 $484 $652 forward 7 unknown #
coedge $-1 $653 $654 $335 $487 forward $643 $-1 #
edge $-1 $655 -34.704263009237657 $490 -22.312711346948532 $486 $656 forward 7 unknown #
edge $-1 $491 -18.887860640627437 $655 9.4049978074560379e-015 $336 $657 forward 7 unknown #
coedge $-1 $337 $647 $653 $658 forward $479 $-1 #
vertex $-1 $338 $659 #
vertex $-1 $338 $660 #
straight-curve $-1 -53.472184711135199 8.3869405433916882 12.799476907245406 1 0 0 I I #
coedge $-1 $493 $493 $-1 $661 reversed $341 $-1 #
edge $-1 $662 0 $662 6.2831853071796004 $342 $663 forward 7 unknown #
vertex $-1 $345 $664 #
ellipse-curve $-1 -39.126428339621143 10.259137546269994 6.6037010761008412 -0.6560590369687036 0 0.75470957328743171 0.37735478664371586 0 0.3280295184843518 1 I I #
coedge $-1 $497 $497 $-1 $665 reversed $348 $-1 #
edge $-1 $666 0 $666 6.2831853071796004 $349 $667 forward 7 unknown #
vertex $-1 $352 $668 #
ellipse-curve $-1 -39.126428339621143 13.067433050587443 6.6037010761008412 -0.6560590369687036 0 0.75470957328743171 0.37735478664371586 0 0.3280295184843518 1 I I #
coedge $-1 $501 $501 $-1 $669 reversed $355 $-1 #
edge $-1 $670 0 $670 6.2831853071796004 $356 $671 forward 7 unknown #
vertex $-1 $359 $672 #
ellipse-curve $-1 -39.126428339621143 15.875728554904899 6.6037010761008412 -0.6560590369687036 0 0.75470957328743171 0.37735478664371586 0 0.3280295184843518 1 I I #
face $-1 $-1 $375 $54 $-1 $673 reversed single #
loop $-1 $-1 $521 $360 #
plane-surface $-1 0 27.389954403659186 0 0 -1 0 0 0 -1 forward_v I I I I #
coedge $-1 $674 $519 $522 $675 forward $361 $-1 #
coedge $-1 $525 $363 $364 $513 reversed $229 $-1 #
coedge $-1 $519 $674 $363 $511 reversed $361 $-1 #
edge $-1 $526 -12.799476907245404 $676 12.799476907245404 $510 $677 forward 7 unknown #
coedge $-1 $365 $364 $674 $678 forward $145 $-1 #
edge $-1 $517 -46.253852961821345 $676 46.253852961821345 $509 $679 forward 7 unknown #
coedge $-1 $522 $521 $365 $515 reversed $506 $-1 #
edge $-1 $680 -46.253852961821345 $516 46.253852961821345 $514 $681 forward 7 unknown #
vertex $-1 $367 $682 #
vertex $-1 $528 $683 #
straight-curve $-1 46.253852961821345 0 -12.799476907245404 0 -1 0 I I #
coedge $-1 $508 $510 $368 $520 reversed $361 $-1 #
edge $-1 $523 -27.389954403659186 $526 27.389954403659186 $519 $684 forward 7 unknown #
coedge $-1 $514 $369 $374 $529 forward $506 $-1 #
coedge $-1 $369 $514 $508 $675 reversed $506 $-1 #
vertex $-1 $370 $685 #
straight-curve $-1 0 27.389954403659186 12.799476907245404 -1 0 0 I I #
coedge $-1 $371 $509 $373 $528 reversed $229 $-1 #
vertex $-1 $520 $686 #
straight-curve $-1 0 -27.389954403659186 12.799476907245404 1 0 0 I I #
edge $-1 $376 -12.799476907245404 $517 12.799476907245404 $373 $687 forward 7 unknown #
edge $-1 $377 -12.799476907245404 $516 12.799476907245404 $374 $688 forward 7 unknown #
point $-1 46.253852961821345 -27.389954403659186 12.799476907245404 #
point $-1 46.253852961821345 27.389954403659186 12.799476907245404 #
face $-1 $-1 $689 $55 $-1 $690 reversed single #
loop $-1 $-1 $389 $379 #
plane-surface $-1 0 -27.389954403659186 0 0 1 0 0 0 1 forward_v I I I I #
coedge $-1 $691 $382 $539 $692 forward $237 $-1 #
coedge $-1 $382 $691 $693 $694 forward $237 $-1 #
edge $-1 $695 -46.253852961821345 $540 46.253852961821345 $382 $696 forward 7 unknown #
coedge $-1 $384 $383 $697 $698 reversed $149 $-1 #
coedge $-1 $385 $391 $535 $692 reversed $380 $-1 #
vertex $-1 $692 $699 #
straight-curve $-1 46.253852961821345 -10.616073316875802 -5.3194176031169116 0 0 1 I I #
coedge $-1 $697 $700 $387 $543 forward $689 $-1 #
edge $-1 $548 -17.888447473525439 $544 -1.1145663867420552 $542 $701 forward 7 unknown #
vertex $-1 $543 $702 #
straight-curve $-1 0 -10.616073316875802 -8.4781935052222419 -1 0 0 I I #
coedge $-1 $703 $389 $700 $704 forward $533 $-1 #
coedge $-1 $389 $703 $391 $550 reversed $533 $-1 #
vertex $-1 $704 $705 #
straight-curve $-1 0 -27.389954403659186 -8.4781935052222419 -1 0 0 I I #
edge $-1 $393 8.4781935052222419 $706 12.799476907245404 $391 $707 forward 7 unknown #
point $-1 46.253852961821345 -10.616073316875802 -8.4781935052222419 #
point $-1 46.253852961821345 -27.389954403659186 -8.4781935052222419 #
plane-surface $-1 0 0 12.799476907245404 0 0 1 1 0 0 forward_v I I I I #
coedge $-1 $564 $563 $556 $708 forward $396 $-1 #
coedge $-1 $556 $398 $400 $560 reversed $245 $-1 #
coedge $-1 $398 $555 $554 $708 reversed $245 $-1 #
coedge $-1 $406 $401 $398 $558 forward $407 $-1 #
edge $-1 $561 13.435044638001532 $709 27.689893882401936 $557 $710 forward 7 unknown #
coedge $-1 $400 $399 $564 $711 reversed $153 $-1 #
edge $-1 $712 -92.507705923642689 $561 -73.619845283015252 $555 $713 forward 7 unknown #
vertex $-1 $402 $714 #
straight-curve $-1 31.999003717420933 -2.9677904048400237 12.799476907245413 0 -1 0 I I #
coedge $-1 $554 $403 $406 $568 reversed $396 $-1 #
coedge $-1 $403 $554 $559 $711 forward $396 $-1 #
vertex $-1 $404 $715 #
straight-curve $-1 46.253852961821345 -1.2550883024842925 65.457446484418469 0 0 1 I I #
straight-curve $-1 -23.562598301610244 -1.2550883024842925 61.098441705405349 0.75470957328743171 0 -0.6560590369687036 I I #
edge $-1 $709 -10.616073316875802 $408 -1.2550883024842925 $563 $716 forward 7 unknown #
point $-1 46.253852961821345 -1.2550883024842925 12.799476907245404 #
point $-1 31.999003717420941 -1.2550883024842925 12.799476907245406 #
edge $-1 $717 1 $717 0 $411 $-1 forward 7 unknown #
vertex $-1 $412 $718 #
ellipse-curve $-1 38.47036930265245 -8.7438763139975002 5.8489915028134112 0.6560590369687036 0 0.75470957328743171 0.37735478664371586 0 -0.3280295184843518 1 I I #
point $-1 39.503783126264871 -8.7438763139975002 6.2756715576164908 #
edge $-1 $719 1 $719 0 $415 $-1 forward 7 unknown #
vertex $-1 $416 $720 #
ellipse-curve $-1 38.47036930265245 -5.9355808096800473 5.8489915028134112 0.6560590369687036 0 0.75470957328743171 0.37735478664371586 0 -0.3280295184843518 1 I I #
point $-1 39.503783126264871 -5.9355808096800473 6.2756715576164908 #
edge $-1 $721 1 $721 0 $419 $-1 forward 7 unknown #
vertex $-1 $420 $722 #
ellipse-curve $-1 38.47036930265245 -3.1272853053625944 5.8489915028134112 0.6560590369687036 0 0.75470957328743171 0.37735478664371586 0 -0.3280295184843518 1 I I #
point $-1 39.503783126264871 -3.1272853053625944 6.2756715576164908 #
plane-surface $-1 0 0 12.799476907245404 0 0 1 1 0 0 forward_v I I I I #
coedge $-1 $594 $593 $586 $723 forward $424 $-1 #
coedge $-1 $586 $426 $428 $590 reversed $274 $-1 #
coedge $-1 $426 $585 $584 $723 reversed $274 $-1 #
coedge $-1 $434 $429 $426 $588 forward $435 $-1 #
edge $-1 $591 13.435044638001532 $724 27.689893882401936 $587 $725 forward 7 unknown #
coedge $-1 $428 $427 $594 $726 reversed $172 $-1 #
edge $-1 $727 -92.507705923642689 $591 -73.619845283015252 $585 $728 forward 7 unknown #
vertex $-1 $430 $729 #
straight-curve $-1 31.999003717420933 6.5337165252937215 12.799476907245413 0 -1 0 I I #
coedge $-1 $584 $431 $434 $598 reversed $424 $-1 #
coedge $-1 $431 $584 $589 $726 forward $424 $-1 #
vertex $-1 $432 $730 #
straight-curve $-1 46.253852961821345 17.747925557783198 65.457446484418469 0 0 1 I I #
straight-curve $-1 -23.562598301610244 17.747925557783198 61.098441705405349 0.75470957328743171 0 -0.6560590369687036 I I #
edge $-1 $724 8.3869405433916882 $436 17.747925557783198 $593 $731 forward 7 unknown #
point $-1 46.253852961821345 17.747925557783198 12.799476907245404 #
point $-1 31.999003717420941 17.747925557783198 12.799476907245406 #
edge $-1 $732 1 $732 0 $439 $-1 forward 7 unknown #
vertex $-1 $440 $733 #
ellipse-curve $-1 38.47036930265245 10.259137546269994 5.8489915028134112 0.6560590369687036 0 0.75470957328743171 0.37735478664371586 0 -0.3280295184843518 1 I I #
point $-1 39.503783126264871 10.259137546269994 6.2756715576164908 #
edge $-1 $734 1 $734 0 $443 $-1 forward 7 unknown #
vertex $-1 $444 $735 #
ellipse-curve $-1 38.47036930265245 13.067433050587443 5.8489915028134112 0.6560590369687036 0 0.75470957328743171 0.37735478664371586 0 -0.3280295184843518 1 I I #
point $-1 39.503783126264871 13.067433050587443 6.2756715576164908 #
edge $-1 $736 1 $736 0 $447 $-1 forward 7 unknown #
vertex $-1 $448 $737 #
ellipse-curve $-1 38.47036930265245 15.875728554904899 5.8489915028134112 0.6560590369687036 0 0.75470957328743171 0.37735478664371586 0 -0.3280295184843518 1 I I #
point $-1 39.503783126264871 15.875728554904899 6.2756715576164908 #
loop $-1 $-1 $459 $451 #
plane-surface $-1 -46.253852961821345 0 0 1 0 0 0 0 -1 forward_v I I I I #
coedge $-1 $616 $454 $456 $620 reversed $303 $-1 #
coedge $-1 $454 $615 $738 $739 reversed $303 $-1 #
coedge $-1 $462 $457 $454 $618 forward $452 $-1 #
edge $-1 $621 -21.473180993714269 $740 -7.2183317493138546 $617 $741 forward 7 unknown #
coedge $-1 $456 $455 $624 $742 reversed $191 $-1 #
edge $-1 $743 -9.4049978074560379e-015 $621 18.887860640627437 $615 $744 forward 7 unknown #
vertex $-1 $458 $745 #
straight-curve $-1 -31.999003717420933 -2.9677904048400237 12.799476907245404 0 1 0 I I #
coedge $-1 $738 $459 $462 $628 reversed $613 $-1 #
coedge $-1 $459 $738 $619 $742 forward $613 $-1 #
vertex $-1 $460 $746 #
straight-curve $-1 -46.253852961821345 -10.616073316875802 35.112188254193939 0 0 1 I I #
straight-curve $-1 -46.253852961821337 -10.616073316875802 0.40792524495628868 -0.75470957328743171 0 -0.6560590369687036 I I #
edge $-1 $740 1.2550883024842925 $463 10.616073316875802 $623 $747 forward 7 unknown #
point $-1 -46.253852961821345 -10.616073316875802 12.799476907245404 #
point $-1 -31.99900371742093 -10.616073316875802 12.799476907245404 #
edge $-1 $748 1 $748 0 $466 $-1 forward 7 unknown #
vertex $-1 $467 $749 #
ellipse-curve $-1 -38.470369302652443 -8.7438763139975002 5.8489915028134147 -0.6560590369687036 0 0.75470957328743171 0.37735478664371586 0 0.3280295184843518 1 I I #
point $-1 -38.749073552977428 -8.7438763139975002 6.9317305945851988 #
edge $-1 $750 1 $750 0 $470 $-1 forward 7 unknown #
vertex $-1 $471 $751 #
ellipse-curve $-1 -38.470369302652443 -5.9355808096800473 5.8489915028134147 -0.6560590369687036 0 0.75470957328743171 0.37735478664371586 0 0.3280295184843518 1 I I #
point $-1 -38.749073552977428 -5.9355808096800473 6.9317305945851988 #
edge $-1 $752 1 $752 0 $474 $-1 forward 7 unknown #
vertex $-1 $475 $753 #
ellipse-curve $-1 -38.470369302652443 -3.1272853053625944 5.8489915028134147 -0.6560590369687036 0 0.75470957328743171 0.37735478664371586 0 0.3280295184843518 1 I I #
point $-1 -38.749073552977428 -3.1272853053625944 6.9317305945851988 #
loop $-1 $-1 $486 $478 #
plane-surface $-1 -46.253852961821345 0 0 1 0 0 0 0 -1 forward_v I I I I #
coedge $-1 $646 $481 $483 $650 reversed $332 $-1 #
coedge $-1 $481 $645 $754 $755 reversed $332 $-1 #
coedge $-1 $489 $484 $481 $648 forward $479 $-1 #
edge $-1 $651 -21.473180993714269 $756 -7.2183317493138546 $647 $757 forward 7 unknown #
coedge $-1 $483 $482 $654 $758 reversed $210 $-1 #
edge $-1 $759 -9.4049978074560379e-015 $651 18.887860640627437 $645 $760 forward 7 unknown #
vertex $-1 $485 $761 #
straight-curve $-1 -31.999003717420933 6.5337165252937215 12.799476907245404 0 1 0 I I #
coedge $-1 $754 $486 $489 $658 reversed $643 $-1 #
coedge $-1 $486 $754 $649 $758 forward $643 $-1 #
vertex $-1 $487 $762 #
straight-curve $-1 -46.253852961821345 8.3869405433916882 35.112188254193939 0 0 1 I I #
straight-curve $-1 -46.253852961821337 8.3869405433916882 0.40792524495628868 -0.75470957328743171 0 -0.6560590369687036 I I #
edge $-1 $756 -17.747925557783198 $490 -8.3869405433916882 $653 $763 forward 7 unknown #
point $-1 -46.253852961821345 8.3869405433916882 12.799476907245404 #
point $-1 -31.99900371742093 8.3869405433916882 12.799476907245404 #
edge $-1 $764 1 $764 0 $493 $-1 forward 7 unknown #
vertex $-1 $494 $765 #
ellipse-curve $-1 -38.470369302652443 10.259137546269994 5.8489915028134147 -0.6560590369687036 0 0.75470957328743171 0.37735478664371586 0 0.3280295184843518 1 I I #
point $-1 -38.749073552977428 10.259137546269994 6.9317305945851988 #
edge $-1 $766 1 $766 0 $497 $-1 forward 7 unknown #
vertex $-1 $498 $767 #
ellipse-curve $-1 -38.470369302652443 13.067433050587443 5.8489915028134147 -0.6560590369687036 0 0.75470957328743171 0.37735478664371586 0 0.3280295184843518 1 I I #
point $-1 -38.749073552977428 13.067433050587443 6.9317305945851988 #
edge $-1 $768 1 $768 0 $501 $-1 forward 7 unknown #
vertex $-1 $502 $769 #
ellipse-curve $-1 -38.470369302652443 15.875728554904899 5.8489915028134147 -0.6560590369687036 0 0.75470957328743171 0.37735478664371586 0 0.3280295184843518 1 I I #
point $-1 -38.749073552977428 15.875728554904899 6.9317305945851988 #
plane-surface $-1 46.253852961821345 0 0 -1 0 0 0 0 1 forward_v I I I I #
coedge $-1 $510 $508 $512 $678 reversed $361 $-1 #
edge $-1 $523 -12.799476907245404 $680 12.799476907245404 $522 $770 forward 7 unknown #
vertex $-1 $678 $771 #
straight-curve $-1 -46.253852961821345 -27.389954403659186 0 0 0 -1 I I #
edge $-1 $676 -27.389954403659186 $680 27.389954403659186 $674 $772 forward 7 unknown #
straight-curve $-1 0 -27.389954403659186 -12.799476907245404 -1 0 0 I I #
vertex $-1 $515 $773 #
straight-curve $-1 0 27.389954403659186 -12.799476907245404 1 0 0 I I #
point $-1 46.253852961821345 27.389954403659186 -12.799476907245404 #
point $-1 46.253852961821345 -27.389954403659186 -12.799476907245404 #
straight-curve $-1 -46.253852961821345 0 12.799476907245404 0 -1 0 I I #
point $-1 -46.253852961821345 27.389954403659186 12.799476907245404 #
point $-1 -46.253852961821345 -27.389954403659186 12.799476907245404 #
straight-curve $-1 46.253852961821345 -27.389954403659186 0 0 0 -1 I I #
straight-curve $-1 46.253852961821345 27.389954403659186 0 0 0 -1 I I #
loop $-1 $-1 $697 $532 #
plane-surface $-1 -46.253852961821345 0 0 1 0 0 0 0 -1 forward_v I I I I #
coedge $-1 $536 $535 $703 $774 forward $237 $-1 #
edge $-1 $540 10.616073316875802 $706 27.389954403659186 $539 $775 forward 7 unknown #
coedge $-1 $700 $697 $536 $694 reversed $689 $-1 #
edge $-1 $776 -27.389954403659186 $695 -10.616073316875802 $693 $777 forward 7 unknown #
vertex $-1 $698 $778 #
straight-curve $-1 0 -10.616073316875802 -12.799476907245404 1 0 0 I I #
coedge $-1 $693 $542 $538 $698 forward $689 $-1 #
edge $-1 $544 3.1587759021053303 $695 7.4800593041284928 $697 $779 forward 7 unknown #
point $-1 46.253852961821345 -10.616073316875802 -12.799476907245404 #
coedge $-1 $542 $693 $546 $704 reversed $689 $-1 #
straight-curve $-1 -46.253852961821345 -9.5015069301337469 -8.4781935052222419 0 1 0 I I #
point $-1 -46.253852961821345 -10.616073316875802 -8.4781935052222419 #
coedge $-1 $547 $546 $691 $774 reversed $533 $-1 #
edge $-1 $548 8.4781935052222419 $776 12.799476907245404 $700 $780 forward 7 unknown #
point $-1 -46.253852961821345 -27.389954403659186 -8.4781935052222419 #
vertex $-1 $550 $781 #
straight-curve $-1 46.253852961821345 -27.389954403659186 0 0 0 -1 I I #
edge $-1 $709 52.657969577173063 $712 65.04952123946218 $554 $782 forward 7 unknown #
vertex $-1 $568 $783 #
straight-curve $-1 18.563959079419408 -10.616073316875802 12.799476907245406 1 0 0 I I #
edge $-1 $712 -7.6482829120357785 $565 1.7127021023557312 $564 $784 forward 7 unknown #
vertex $-1 $711 $785 #
straight-curve $-1 -23.562598301610244 -10.616073316875802 61.098441705405349 -0.75470957328743171 0 0.6560590369687036 I I #
point $-1 31.999003717420941 -10.616073316875802 12.799476907245406 #
point $-1 46.253852961821345 -1.2550883024842925 0.40792524495628868 #
straight-curve $-1 46.253852961821345 0 12.799476907245404 0 1 0 I I #
vertex $-1 $571 $786 #
point $-1 38.847724089296165 -8.7438763139975002 5.5209619843290589 #
vertex $-1 $575 $787 #
point $-1 38.847724089296165 -5.9355808096800473 5.5209619843290589 #
vertex $-1 $579 $788 #
point $-1 38.847724089296165 -3.1272853053625944 5.5209619843290589 #
edge $-1 $724 52.657969577173063 $727 65.04952123946218 $584 $789 forward 7 unknown #
vertex $-1 $598 $790 #
straight-curve $-1 18.563959079419408 8.3869405433916882 12.799476907245406 1 0 0 I I #
edge $-1 $727 1.8532240180979667 $595 11.214209032489476 $594 $791 forward 7 unknown #
vertex $-1 $726 $792 #
straight-curve $-1 -23.562598301610244 8.3869405433916882 61.098441705405349 -0.75470957328743171 0 0.6560590369687036 I I #
point $-1 31.999003717420941 8.3869405433916882 12.799476907245406 #
point $-1 46.253852961821345 17.747925557783198 0.40792524495628868 #
straight-curve $-1 46.253852961821345 0 12.799476907245404 0 1 0 I I #
vertex $-1 $601 $793 #
point $-1 38.847724089296165 10.259137546269994 5.5209619843290589 #
vertex $-1 $605 $794 #
point $-1 38.847724089296165 13.067433050587443 5.5209619843290589 #
vertex $-1 $609 $795 #
point $-1 38.847724089296165 15.875728554904899 5.5209619843290589 #
coedge $-1 $624 $623 $616 $739 forward $613 $-1 #
edge $-1 $740 22.312711346948532 $743 34.704263009237657 $738 $796 forward 7 unknown #
vertex $-1 $628 $797 #
straight-curve $-1 -53.472184711135199 -1.2550883024842925 12.799476907245406 -1 0 0 I I #
edge $-1 $743 -1.7127021023557312 $625 7.6482829120357785 $624 $798 forward 7 unknown #
vertex $-1 $742 $799 #
straight-curve $-1 -46.253852961821337 -1.2550883024842925 0.40792524495628868 0.75470957328743171 0 0.6560590369687036 I I #
point $-1 -31.99900371742093 -1.2550883024842925 12.799476907245404 #
point $-1 -46.253852961821345 -10.616073316875802 0.40792524495628252 #
straight-curve $-1 -46.253852961821345 0 12.799476907245404 0 -1 0 I I #
vertex $-1 $631 $800 #
point $-1 -38.093014516008722 -8.7438763139975002 6.177021021297767 #
vertex $-1 $635 $801 #
point $-1 -38.093014516008722 -5.9355808096800473 6.177021021297767 #
vertex $-1 $639 $802 #
point $-1 -38.093014516008722 -3.1272853053625944 6.177021021297767 #
coedge $-1 $654 $653 $646 $755 forward $643 $-1 #
edge $-1 $756 22.312711346948532 $759 34.704263009237657 $754 $803 forward 7 unknown #
vertex $-1 $658 $804 #
straight-curve $-1 -53.472184711135199 17.747925557783198 12.799476907245406 -1 0 0 I I #
edge $-1 $759 -11.214209032489476 $655 -1.8532240180979667 $654 $805 forward 7 unknown #
vertex $-1 $758 $806 #
straight-curve $-1 -46.253852961821337 17.747925557783198 0.40792524495628868 0.75470957328743171 0 0.6560590369687036 I I #
point $-1 -31.99900371742093 17.747925557783198 12.799476907245404 #
point $-1 -46.253852961821345 8.3869405433916882 0.40792524495628252 #
straight-curve $-1 -46.253852961821345 0 12.799476907245404 0 -1 0 I I #
vertex $-1 $661 $807 #
point $-1 -38.093014516008722 10.259137546269994 6.177021021297767 #
vertex $-1 $665 $808 #
point $-1 -38.093014516008722 13.067433050587443 6.177021021297767 #
vertex $-1 $669 $809 #
point $-1 -38.093014516008722 15.875728554904899 6.177021021297767 #
straight-curve $-1 -46.253852961821345 27.389954403659186 0 0 0 -1 I I #
point $-1 -46.253852961821345 -27.389954403659186 -12.799476907245404 #
straight-curve $-1 -46.253852961821345 0 -12.799476907245404 0 1 0 I I #
point $-1 -46.253852961821345 27.389954403659186 -12.799476907245404 #
edge $-1 $706 -46.253852961821345 $776 46.253852961821345 $703 $810 forward 7 unknown #
straight-curve $-1 46.253852961821345 0 -12.799476907245404 0 -1 0 I I #
vertex $-1 $694 $811 #
straight-curve $-1 -46.253852961821345 0 -12.799476907245404 0 1 0 I I #
point $-1 -46.253852961821345 -10.616073316875802 -12.799476907245404 #
straight-curve $-1 -46.253852961821345 -10.616073316875802 -5.3194176031169116 0 0 -1 I I #
straight-curve $-1 -46.253852961821345 -27.389954403659186 0 0 0 -1 I I #
point $-1 46.253852961821345 -27.389954403659186 -12.799476907245404 #
straight-curve $-1 46.253852961821345 -10.616073316875802 65.457446484418469 0 0 -1 I I #
point $-1 46.253852961821345 -10.616073316875802 12.799476907245404 #
straight-curve $-1 46.253852961821345 -2.9677904048400237 0.40792524495629578 0 1 0 I I #
point $-1 46.253852961821345 -10.616073316875802 0.40792524495628868 #
point $-1 38.142339784168094 -8.7438763139975002 5.4716367161696953 #
point $-1 38.142339784168094 -5.9355808096800473 5.4716367161696953 #
point $-1 38.142339784168094 -3.1272853053625944 5.4716367161696953 #
straight-curve $-1 46.253852961821345 8.3869405433916882 65.457446484418469 0 0 -1 I I #
point $-1 46.253852961821345 8.3869405433916882 12.799476907245404 #
straight-curve $-1 46.253852961821345 6.5337165252937215 0.40792524495629578 0 1 0 I I #
point $-1 46.253852961821345 8.3869405433916882 0.40792524495628868 #
point $-1 38.142339784168094 10.259137546269994 5.4716367161696953 #
point $-1 38.142339784168094 13.067433050587443 5.4716367161696953 #
point $-1 38.142339784168094 15.875728554904899 5.4716367161696953 #
straight-curve $-1 -46.253852961821345 -1.2550883024842925 35.112188254193939 0 0 -1 I I #
point $-1 -46.253852961821345 -1.2550883024842925 12.799476907245404 #
straight-curve $-1 -46.253852961821345 -2.9677904048400237 0.40792524495627702 0 -1 0 I I #
point $-1 -46.253852961821345 -1.2550883024842925 0.40792524495628252 #
point $-1 -38.142339784168087 -8.7438763139975002 5.4716367161696988 #
point $-1 -38.142339784168087 -5.9355808096800473 5.4716367161696988 #
point $-1 -38.142339784168087 -3.1272853053625944 5.4716367161696988 #
straight-curve $-1 -46.253852961821345 17.747925557783198 35.112188254193939 0 0 -1 I I #
point $-1 -46.253852961821345 17.747925557783198 12.799476907245404 #
straight-curve $-1 -46.253852961821345 6.5337165252937215 0.40792524495627702 0 -1 0 I I #
point $-1 -46.253852961821345 17.747925557783198 0.40792524495628252 #
point $-1 -38.142339784168087 10.259137546269994 5.4716367161696988 #
point $-1 -38.142339784168087 13.067433050587443 5.4716367161696988 #
point $-1 -38.142339784168087 15.875728554904899 5.4716367161696988 #
straight-curve $-1 0 -27.389954403659186 -12.799476907245404 -1 0 0 I I #
point $-1 -46.253852961821345 -27.389954403659186 -12.799476907245404 #
End-of-ACIS-data 