500 0 15 0           
7 Unknown 11 ACIS 5.0 NT 24 Thu Mar 25 19:49:13 1999 
-1 9.9999999999999995e-007 1e-010 
body $-1 $15 $-1 $16 #
body $-1 $17 $-1 $18 #
body $-1 $19 $-1 $20 #
body $-1 $21 $-1 $22 #
body $-1 $23 $-1 $24 #
body $-1 $25 $-1 $26 #
body $-1 $27 $-1 $28 #
body $-1 $29 $-1 $30 #
body $-1 $31 $-1 $32 #
body $-1 $33 $-1 $34 #
body $-1 $35 $-1 $36 #
body $-1 $37 $-1 $38 #
body $-1 $39 $-1 $40 #
body $-1 $41 $-1 $42 #
body $-1 $43 $-1 $44 #
lump $-1 $-1 $45 $0 #
transform $-1 1 0 0 0 1 0 0 0 1 59.963988158818324 26.933194852363926 5.7888244693363271 1 rotate no_reflect no_shear #
lump $-1 $-1 $46 $1 #
transform $-1 1 0 0 0 1 0 0 0 1 59.963988158818324 26.933194852363926 5.7888244693363271 1 rotate no_reflect no_shear #
lump $-1 $-1 $47 $2 #
transform $-1 1 0 0 0 1 0 0 0 1 59.963988158818324 26.933194852363926 5.7888244693363271 1 rotate no_reflect no_shear #
lump $-1 $-1 $48 $3 #
transform $-1 1 0 0 0 1 0 0 0 1 59.963988158818324 26.933194852363926 5.7888244693363271 1 rotate no_reflect no_shear #
lump $-1 $-1 $49 $4 #
transform $-1 1 0 0 0 1 0 0 0 1 59.963988158818324 26.933194852363926 5.7888244693363271 1 rotate no_reflect no_shear #
lump $-1 $-1 $50 $5 #
transform $-1 1 0 0 0 1 0 0 0 1 59.963988158818324 26.933194852363926 5.7888244693363271 1 rotate no_reflect no_shear #
lump $-1 $-1 $51 $6 #
transform $-1 1 0 0 0 1 0 0 0 1 59.963988158818324 26.933194852363926 5.7888244693363271 1 rotate no_reflect no_shear #
lump $-1 $-1 $52 $7 #
transform $-1 1 0 0 0 1 0 0 0 1 59.963988158818324 26.933194852363926 5.7888244693363271 1 rotate no_reflect no_shear #
lump $-1 $-1 $53 $8 #
transform $-1 1 0 0 0 1 0 0 0 1 59.963988158818324 26.933194852363926 5.7888244693363271 1 rotate no_reflect no_shear #
lump $-1 $-1 $54 $9 #
transform $-1 1 0 0 0 1 0 0 0 1 59.963988158818324 26.933194852363926 5.7888244693363271 1 rotate no_reflect no_shear #
lump $-1 $-1 $55 $10 #
transform $-1 1 0 0 0 1 0 0 0 1 59.963988158818324 26.933194852363926 5.7888244693363271 1 rotate no_reflect no_shear #
lump $-1 $-1 $56 $11 #
transform $-1 1 0 0 0 1 0 0 0 1 59.963988158818324 26.933194852363926 5.7888244693363271 1 rotate no_reflect no_shear #
lump $-1 $-1 $57 $12 #
transform $-1 1 0 0 0 1 0 0 0 1 59.963988158818324 26.933194852363926 5.7888244693363271 1 rotate no_reflect no_shear #
lump $-1 $-1 $58 $13 #
transform $-1 1 0 0 0 1 0 0 0 1 59.963988158818324 26.933194852363926 5.7888244693363271 1 rotate no_reflect no_shear #
lump $-1 $-1 $59 $14 #
transform $-1 1 0 0 0 1 0 0 0 1 59.963988158818324 26.933194852363926 5.7888244693363271 1 rotate no_reflect no_shear #
shell $-1 $-1 $-1 $60 $-1 $15 #
shell $-1 $-1 $-1 $61 $-1 $17 #
shell $-1 $-1 $-1 $62 $-1 $19 #
shell $-1 $-1 $-1 $63 $-1 $21 #
shell $-1 $-1 $-1 $64 $-1 $23 #
shell $-1 $-1 $-1 $65 $-1 $25 #
shell $-1 $-1 $-1 $66 $-1 $27 #
shell $-1 $-1 $-1 $67 $-1 $29 #
shell $-1 $-1 $-1 $68 $-1 $31 #
shell $-1 $-1 $-1 $69 $-1 $33 #
shell $-1 $-1 $-1 $70 $-1 $35 #
shell $-1 $-1 $-1 $71 $-1 $37 #
shell $-1 $-1 $-1 $72 $-1 $39 #
shell $-1 $-1 $-1 $73 $-1 $41 #
shell $-1 $-1 $-1 $74 $-1 $43 #
face $-1 $75 $76 $45 $-1 $77 forward single #
face $-1 $78 $79 $46 $-1 $80 forward single #
face $-1 $81 $82 $47 $-1 $83 forward single #
face $-1 $84 $85 $48 $-1 $86 reversed single #
face $-1 $87 $88 $49 $-1 $89 forward single #
face $-1 $90 $91 $50 $-1 $92 forward single #
face $-1 $93 $94 $51 $-1 $95 reversed single #
face $-1 $96 $97 $52 $-1 $98 forward single #
face $-1 $99 $100 $53 $-1 $101 forward single #
face $-1 $102 $103 $54 $-1 $104 reversed single #
face $-1 $105 $106 $55 $-1 $107 forward single #
face $-1 $108 $109 $56 $-1 $110 forward single #
face $-1 $111 $112 $57 $-1 $113 reversed single #
face $-1 $114 $115 $58 $-1 $116 forward single #
face $-1 $117 $118 $59 $-1 $119 forward single #
face $-1 $120 $121 $45 $-1 $122 reversed single #
loop $-1 $-1 $123 $60 #
plane-surface $-1 0 0 5.7888244693363271 0 0 1 1 0 0 forward_v I I I I #
face $-1 $124 $125 $46 $-1 $126 reversed single #
loop $-1 $-1 $127 $61 #
plane-surface $-1 0 -26.933194852363926 0 0 1 0 0 0 1 forward_v I I I I #
face $-1 $128 $129 $47 $-1 $130 reversed single #
loop $-1 $-1 $131 $62 #
plane-surface $-1 0 26.933194852363926 0 0 -1 0 0 0 -1 forward_v I I I I #
face $-1 $132 $133 $48 $-1 $134 reversed single #
loop $-1 $-1 $135 $63 #
plane-surface $-1 68.840365772583425 -13.237926679445007 170.71480787460416 0 -1 0 -0.74314483375859142 0 -0.66913059716165679 forward_v I I I I #
face $-1 $136 $137 $49 $-1 $138 forward single #
loop $-1 $139 $140 $64 #
cone-surface $-1 57.272505728326287 -17.62271633177107 2.9447112964288449 -0.74314483375859142 0 -0.66913059716165679 0.3345652985808284 0 -0.37157241687929571 1 I I 0 1 0.5 forward I I I I #
face $-1 $141 $142 $50 $-1 $143 forward single #
loop $-1 $144 $145 $65 #
cone-surface $-1 57.272505728326287 -14.991842540375433 2.9447112964288449 -0.74314483375859142 0 -0.66913059716165679 0.3345652985808284 0 -0.37157241687929571 1 I I 0 1 0.5 forward I I I I #
face $-1 $146 $147 $51 $-1 $148 reversed single #
loop $-1 $-1 $149 $66 #
plane-surface $-1 68.840365772583425 -2.3664070553961709 170.71480787460416 0 -1 0 -0.74314483375859142 0 -0.66913059716165679 forward_v I I I I #
face $-1 $150 $151 $52 $-1 $152 forward single #
loop $-1 $153 $154 $67 #
cone-surface $-1 57.272505728326287 -6.7511967077222366 2.9447112964288449 -0.74314483375859142 0 -0.66913059716165679 0.3345652985808284 0 -0.37157241687929571 1 I I 0 1 0.5 forward I I I I #
face $-1 $155 $156 $53 $-1 $157 forward single #
loop $-1 $158 $159 $68 #
cone-surface $-1 57.272505728326287 -4.1203229163266002 2.9447112964288449 -0.74314483375859142 0 -0.66913059716165679 0.3345652985808284 0 -0.37157241687929571 1 I I 0 1 0.5 forward I I I I #
face $-1 $160 $161 $54 $-1 $162 reversed single #
loop $-1 $-1 $163 $69 #
plane-surface $-1 68.840365772583425 8.5051125686526667 170.71480787460416 0 -1 0 -0.74314483375859142 0 -0.66913059716165679 forward_v I I I I #
face $-1 $164 $165 $55 $-1 $166 forward single #
loop $-1 $167 $168 $70 #
cone-surface $-1 57.272505728326287 4.1203229163266002 2.9447112964288449 -0.74314483375859142 0 -0.66913059716165679 0.3345652985808284 0 -0.37157241687929571 1 I I 0 1 0.5 forward I I I I #
face $-1 $169 $170 $56 $-1 $171 forward single #
loop $-1 $172 $173 $71 #
cone-surface $-1 57.272505728326287 6.7511967077222366 2.9447112964288449 -0.74314483375859142 0 -0.66913059716165679 0.3345652985808284 0 -0.37157241687929571 1 I I 0 1 0.5 forward I I I I #
face $-1 $174 $175 $57 $-1 $176 reversed single #
loop $-1 $-1 $177 $72 #
plane-surface $-1 68.840365772583425 19.376632192701503 170.71480787460416 0 -1 0 -0.74314483375859142 0 -0.66913059716165679 forward_v I I I I #
face $-1 $178 $179 $58 $-1 $180 forward single #
loop $-1 $181 $182 $73 #
cone-surface $-1 57.272505728326287 14.991842540375437 2.9447112964288449 -0.74314483375859142 0 -0.66913059716165679 0.3345652985808284 0 -0.37157241687929571 1 I I 0 1 0.5 forward I I I I #
face $-1 $183 $184 $59 $-1 $185 forward single #
loop $-1 $186 $187 $74 #
cone-surface $-1 57.272505728326287 17.622716331771073 2.9447112964288449 -0.74314483375859142 0 -0.66913059716165679 0.3345652985808284 0 -0.37157241687929571 1 I I 0 1 0.5 forward I I I I #
face $-1 $188 $189 $45 $-1 $190 reversed single #
loop $-1 $-1 $191 $75 #
plane-surface $-1 0 0 -5.7888244693363271 0 0 1 1 0 0 forward_v I I I I #
coedge $-1 $192 $193 $194 $195 forward $76 $-1 #
face $-1 $196 $197 $46 $-1 $198 reversed single #
loop $-1 $-1 $199 $78 #
plane-surface $-1 0 0 -5.7888244693363271 0 0 1 1 0 0 forward_v I I I I #
coedge $-1 $200 $201 $202 $203 forward $79 $-1 #
face $-1 $204 $205 $47 $-1 $206 reversed single #
loop $-1 $-1 $207 $81 #
plane-surface $-1 0 0 -5.7888244693363271 0 0 1 1 0 0 forward_v I I I I #
coedge $-1 $208 $209 $210 $211 forward $82 $-1 #
face $-1 $212 $213 $48 $-1 $214 reversed single #
loop $-1 $-1 $215 $84 #
plane-surface $-1 -20.283490250990951 -16.307279436073252 90.467329464794915 0.74314483375859142 0 0.66913059716165679 0.66913059716165679 0 -0.74314483375859142 forward_v I I I I #
coedge $-1 $216 $217 $218 $219 reversed $85 $-1 #
face $-1 $-1 $220 $49 $-1 $221 forward single #
loop $-1 $222 $223 $87 #
cone-surface $-1 56.396543061604689 -17.62271633177107 2.1559909882888268 -0.74314483375859142 0 -0.66913059716165679 0.1672826492904142 0 -0.18578620843964785 1 I I -0.70710678118654746 0.70710678118654746 0.25 forward I I I I #
loop $-1 $-1 $224 $64 #
coedge $-1 $140 $140 $225 $226 reversed $88 $-1 #
face $-1 $-1 $227 $50 $-1 $228 forward single #
loop $-1 $229 $230 $90 #
cone-surface $-1 56.396543061604689 -14.991842540375433 2.1559909882888268 -0.74314483375859142 0 -0.66913059716165679 0.1672826492904142 0 -0.18578620843964785 1 I I -0.70710678118654746 0.70710678118654746 0.25 forward I I I I #
loop $-1 $-1 $231 $65 #
coedge $-1 $145 $145 $232 $233 reversed $91 $-1 #
face $-1 $234 $235 $51 $-1 $236 reversed single #
loop $-1 $-1 $237 $93 #
plane-surface $-1 -20.283490250990951 -5.4357598120244148 90.467329464794915 0.74314483375859142 0 0.66913059716165679 0.66913059716165679 0 -0.74314483375859142 forward_v I I I I #
coedge $-1 $238 $239 $240 $241 reversed $94 $-1 #
face $-1 $-1 $242 $52 $-1 $243 forward single #
loop $-1 $244 $245 $96 #
cone-surface $-1 56.396543061604689 -6.7511967077222366 2.1559909882888268 -0.74314483375859142 0 -0.66913059716165679 0.1672826492904142 0 -0.18578620843964785 1 I I -0.70710678118654746 0.70710678118654746 0.25 forward I I I I #
loop $-1 $-1 $246 $67 #
coedge $-1 $154 $154 $247 $248 reversed $97 $-1 #
face $-1 $-1 $249 $53 $-1 $250 forward single #
loop $-1 $251 $252 $99 #
cone-surface $-1 56.396543061604689 -4.1203229163266002 2.1559909882888268 -0.74314483375859142 0 -0.66913059716165679 0.1672826492904142 0 -0.18578620843964785 1 I I -0.70710678118654746 0.70710678118654746 0.25 forward I I I I #
loop $-1 $-1 $253 $68 #
coedge $-1 $159 $159 $254 $255 reversed $100 $-1 #
face $-1 $256 $257 $54 $-1 $258 reversed single #
loop $-1 $-1 $259 $102 #
plane-surface $-1 -20.283490250990951 5.4357598120244219 90.467329464794915 0.74314483375859142 0 0.66913059716165679 0.66913059716165679 0 -0.74314483375859142 forward_v I I I I #
coedge $-1 $260 $261 $262 $263 reversed $103 $-1 #
face $-1 $-1 $264 $55 $-1 $265 forward single #
loop $-1 $266 $267 $105 #
cone-surface $-1 56.396543061604689 4.1203229163266002 2.1559909882888268 -0.74314483375859142 0 -0.66913059716165679 0.1672826492904142 0 -0.18578620843964785 1 I I -0.70710678118654746 0.70710678118654746 0.25 forward I I I I #
loop $-1 $-1 $268 $70 #
coedge $-1 $168 $168 $269 $270 reversed $106 $-1 #
face $-1 $-1 $271 $56 $-1 $272 forward single #
loop $-1 $273 $274 $108 #
cone-surface $-1 56.396543061604689 6.7511967077222366 2.1559909882888268 -0.74314483375859142 0 -0.66913059716165679 0.1672826492904142 0 -0.18578620843964785 1 I I -0.70710678118654746 0.70710678118654746 0.25 forward I I I I #
loop $-1 $-1 $275 $71 #
coedge $-1 $173 $173 $276 $277 reversed $109 $-1 #
face $-1 $278 $279 $57 $-1 $280 reversed single #
loop $-1 $-1 $281 $111 #
plane-surface $-1 -20.283490250990951 16.307279436073259 90.467329464794915 0.74314483375859142 0 0.66913059716165679 0.66913059716165679 0 -0.74314483375859142 forward_v I I I I #
coedge $-1 $282 $283 $284 $285 reversed $112 $-1 #
face $-1 $-1 $286 $58 $-1 $287 forward single #
loop $-1 $288 $289 $114 #
cone-surface $-1 56.396543061604689 14.991842540375437 2.1559909882888268 -0.74314483375859142 0 -0.66913059716165679 0.1672826492904142 0 -0.18578620843964785 1 I I -0.70710678118654746 0.70710678118654746 0.25 forward I I I I #
loop $-1 $-1 $290 $73 #
coedge $-1 $182 $182 $291 $292 reversed $115 $-1 #
face $-1 $-1 $293 $59 $-1 $294 forward single #
loop $-1 $295 $296 $117 #
cone-surface $-1 56.396543061604689 17.622716331771073 2.1559909882888268 -0.74314483375859142 0 -0.66913059716165679 0.1672826492904142 0 -0.18578620843964785 1 I I -0.70710678118654746 0.70710678118654746 0.25 forward I I I I #
loop $-1 $-1 $297 $74 #
coedge $-1 $187 $187 $298 $299 reversed $118 $-1 #
face $-1 $300 $301 $45 $-1 $302 reversed single #
loop $-1 $-1 $303 $120 #
plane-surface $-1 0 -26.933194852363926 0 0 1 0 0 0 1 forward_v I I I I #
coedge $-1 $304 $305 $306 $307 forward $121 $-1 #
coedge $-1 $308 $123 $309 $310 forward $76 $-1 #
coedge $-1 $123 $308 $311 $312 forward $76 $-1 #
coedge $-1 $313 $314 $123 $195 reversed $315 $-1 #
edge $-1 $316 -26.933194852363926 $317 26.933194852363926 $194 $318 forward 7 unknown #
face $-1 $319 $320 $46 $-1 $321 reversed single #
loop $-1 $-1 $322 $124 #
plane-surface $-1 -52.955937030591414 -32.451394825252358 0 0 1 0 0 0 1 forward_v I I I I #
coedge $-1 $323 $324 $201 $325 forward $125 $-1 #
coedge $-1 $326 $127 $327 $328 reversed $79 $-1 #
coedge $-1 $127 $326 $199 $325 reversed $79 $-1 #
coedge $-1 $329 $330 $127 $203 reversed $320 $-1 #
edge $-1 $331 -5.7888244693363271 $332 5.7888244693363271 $202 $333 forward 7 unknown #
face $-1 $334 $335 $47 $-1 $336 reversed single #
loop $-1 $-1 $337 $128 #
plane-surface $-1 -54.455937030591414 29.692294838808138 0 1 0 0 0 0 -1 forward_v I I I I #
coedge $-1 $338 $339 $209 $340 forward $129 $-1 #
coedge $-1 $341 $131 $342 $343 reversed $82 $-1 #
coedge $-1 $131 $341 $207 $340 reversed $82 $-1 #
coedge $-1 $344 $345 $131 $211 reversed $346 $-1 #
edge $-1 $347 -5.7888244693363271 $348 5.7888244693363271 $210 $349 forward 7 unknown #
face $-1 $350 $351 $48 $-1 $352 forward single #
loop $-1 $-1 $353 $132 #
plane-surface $-1 68.840365772583425 -19.376632192701496 170.71480787460416 0 1 0 0.74314483375859142 0 0.66913059716165679 forward_v I I I I #
coedge $-1 $354 $355 $356 $357 reversed $133 $-1 #
coedge $-1 $217 $135 $358 $359 reversed $85 $-1 #
coedge $-1 $135 $216 $354 $360 reversed $85 $-1 #
coedge $-1 $356 $361 $135 $219 forward $351 $-1 #
edge $-1 $362 -25.543805272526612 $363 -21.541193328106374 $218 $364 forward 7 unknown #
loop $-1 $-1 $225 $136 #
plane-surface $-1 -20.283490250990951 -16.307279436073252 90.467329464794915 0.74314483375859142 0 0.66913059716165679 0.66913059716165679 0 -0.74314483375859142 forward_v I I I I #
loop $-1 $-1 $365 $87 #
coedge $-1 $223 $223 $224 $366 reversed $137 $-1 #
coedge $-1 $224 $224 $223 $366 forward $139 $-1 #
coedge $-1 $225 $225 $140 $226 forward $220 $-1 #
edge $-1 $367 0 $367 6.2831853071796004 $225 $368 forward 7 unknown #
loop $-1 $-1 $232 $141 #
plane-surface $-1 -20.283490250990951 -16.307279436073252 90.467329464794915 0.74314483375859142 0 0.66913059716165679 0.66913059716165679 0 -0.74314483375859142 forward_v I I I I #
loop $-1 $-1 $369 $90 #
coedge $-1 $230 $230 $231 $370 reversed $142 $-1 #
coedge $-1 $231 $231 $230 $370 forward $144 $-1 #
coedge $-1 $232 $232 $145 $233 forward $227 $-1 #
edge $-1 $371 0 $371 6.2831853071796004 $232 $372 forward 7 unknown #
face $-1 $373 $374 $51 $-1 $375 reversed single #
loop $-1 $-1 $376 $146 #
plane-surface $-1 68.840365772583425 -8.5051125686526596 170.71480787460416 0 1 0 0.74314483375859142 0 0.66913059716165679 forward_v I I I I #
coedge $-1 $377 $378 $379 $380 reversed $147 $-1 #
coedge $-1 $239 $149 $381 $382 reversed $94 $-1 #
coedge $-1 $149 $238 $377 $383 reversed $94 $-1 #
coedge $-1 $379 $384 $149 $241 forward $385 $-1 #
edge $-1 $386 -25.543805272526612 $387 -21.541193328106374 $240 $388 forward 7 unknown #
loop $-1 $-1 $247 $150 #
plane-surface $-1 -20.283490250990951 -5.4357598120244148 90.467329464794915 0.74314483375859142 0 0.66913059716165679 0.66913059716165679 0 -0.74314483375859142 forward_v I I I I #
loop $-1 $-1 $389 $96 #
coedge $-1 $245 $245 $246 $390 reversed $151 $-1 #
coedge $-1 $246 $246 $245 $390 forward $153 $-1 #
coedge $-1 $247 $247 $154 $248 forward $242 $-1 #
edge $-1 $391 0 $391 6.2831853071796004 $247 $392 forward 7 unknown #
loop $-1 $-1 $254 $155 #
plane-surface $-1 -20.283490250990951 -5.4357598120244148 90.467329464794915 0.74314483375859142 0 0.66913059716165679 0.66913059716165679 0 -0.74314483375859142 forward_v I I I I #
loop $-1 $-1 $393 $99 #
coedge $-1 $252 $252 $253 $394 reversed $156 $-1 #
coedge $-1 $253 $253 $252 $394 forward $158 $-1 #
coedge $-1 $254 $254 $159 $255 forward $249 $-1 #
edge $-1 $395 0 $395 6.2831853071796004 $254 $396 forward 7 unknown #
face $-1 $397 $398 $54 $-1 $399 reversed single #
loop $-1 $-1 $400 $160 #
plane-surface $-1 68.840365772583425 2.366407055396178 170.71480787460416 0 1 0 0.74314483375859142 0 0.66913059716165679 forward_v I I I I #
coedge $-1 $401 $402 $403 $404 reversed $161 $-1 #
coedge $-1 $261 $163 $405 $406 reversed $103 $-1 #
coedge $-1 $163 $260 $401 $407 reversed $103 $-1 #
coedge $-1 $403 $408 $163 $263 forward $409 $-1 #
edge $-1 $410 -25.543805272526612 $411 -21.541193328106374 $262 $412 forward 7 unknown #
loop $-1 $-1 $269 $164 #
plane-surface $-1 -20.283490250990951 5.4357598120244219 90.467329464794915 0.74314483375859142 0 0.66913059716165679 0.66913059716165679 0 -0.74314483375859142 forward_v I I I I #
loop $-1 $-1 $413 $105 #
coedge $-1 $267 $267 $268 $414 reversed $165 $-1 #
coedge $-1 $268 $268 $267 $414 forward $167 $-1 #
coedge $-1 $269 $269 $168 $270 forward $264 $-1 #
edge $-1 $415 0 $415 6.2831853071796004 $269 $416 forward 7 unknown #
loop $-1 $-1 $276 $169 #
plane-surface $-1 -20.283490250990951 5.4357598120244219 90.467329464794915 0.74314483375859142 0 0.66913059716165679 0.66913059716165679 0 -0.74314483375859142 forward_v I I I I #
loop $-1 $-1 $417 $108 #
coedge $-1 $274 $274 $275 $418 reversed $170 $-1 #
coedge $-1 $275 $275 $274 $418 forward $172 $-1 #
coedge $-1 $276 $276 $173 $277 forward $271 $-1 #
edge $-1 $419 0 $419 6.2831853071796004 $276 $420 forward 7 unknown #
face $-1 $421 $422 $57 $-1 $423 reversed single #
loop $-1 $-1 $424 $174 #
plane-surface $-1 68.840365772583425 13.237926679445014 170.71480787460416 0 1 0 0.74314483375859142 0 0.66913059716165679 forward_v I I I I #
coedge $-1 $425 $426 $427 $428 reversed $175 $-1 #
coedge $-1 $283 $177 $429 $430 reversed $112 $-1 #
coedge $-1 $177 $282 $425 $431 reversed $112 $-1 #
coedge $-1 $427 $432 $177 $285 forward $433 $-1 #
edge $-1 $434 -25.543805272526612 $435 -21.541193328106374 $284 $436 forward 7 unknown #
loop $-1 $-1 $291 $178 #
plane-surface $-1 -20.283490250990951 16.307279436073259 90.467329464794915 0.74314483375859142 0 0.66913059716165679 0.66913059716165679 0 -0.74314483375859142 forward_v I I I I #
loop $-1 $-1 $437 $114 #
coedge $-1 $289 $289 $290 $438 reversed $179 $-1 #
coedge $-1 $290 $290 $289 $438 forward $181 $-1 #
coedge $-1 $291 $291 $182 $292 forward $286 $-1 #
edge $-1 $439 0 $439 6.2831853071796004 $291 $440 forward 7 unknown #
loop $-1 $-1 $298 $183 #
plane-surface $-1 -20.283490250990951 16.307279436073259 90.467329464794915 0.74314483375859142 0 0.66913059716165679 0.66913059716165679 0 -0.74314483375859142 forward_v I I I I #
loop $-1 $-1 $441 $117 #
coedge $-1 $296 $296 $297 $442 reversed $184 $-1 #
coedge $-1 $297 $297 $296 $442 forward $186 $-1 #
coedge $-1 $298 $298 $187 $299 forward $293 $-1 #
edge $-1 $443 0 $443 6.2831853071796004 $298 $444 forward 7 unknown #
face $-1 $445 $446 $45 $-1 $447 reversed single #
loop $-1 $-1 $448 $188 #
plane-surface $-1 -59.963988158818324 0 0 1 0 0 0 0 -1 forward_v I I I I #
coedge $-1 $449 $311 $450 $451 forward $189 $-1 #
coedge $-1 $452 $191 $449 $453 forward $121 $-1 #
coedge $-1 $191 $452 $454 $455 forward $121 $-1 #
coedge $-1 $314 $313 $191 $307 reversed $315 $-1 #
edge $-1 $456 -26.933194852363926 $457 26.933194852363926 $306 $458 forward 7 unknown #
coedge $-1 $193 $192 $459 $460 forward $76 $-1 #
coedge $-1 $461 $462 $192 $310 reversed $446 $-1 #
edge $-1 $317 -59.963988158818324 $463 59.963988158818324 $309 $464 forward 7 unknown #
coedge $-1 $303 $465 $193 $312 reversed $189 $-1 #
edge $-1 $466 -59.963988158818324 $316 59.963988158818324 $311 $467 forward 7 unknown #
coedge $-1 $306 $194 $465 $468 forward $315 $-1 #
coedge $-1 $194 $306 $461 $469 reversed $315 $-1 #
loop $-1 $-1 $313 $445 #
vertex $-1 $195 $470 #
vertex $-1 $195 $471 #
straight-curve $-1 59.963988158818324 0 5.7888244693363271 0 1 0 I I #
face $-1 $472 $473 $46 $-1 $474 reversed single #
loop $-1 $-1 $202 $196 #
plane-surface $-1 -54.455937030591414 -29.692294838808142 0 1 0 0 0 0 -1 forward_v I I I I #
coedge $-1 $475 $476 $477 $478 forward $197 $-1 #
coedge $-1 $479 $199 $480 $481 forward $125 $-1 #
coedge $-1 $199 $479 $329 $482 forward $125 $-1 #
edge $-1 $331 -54.455937030591414 $483 -51.455937030591414 $199 $484 forward 7 unknown #
coedge $-1 $201 $200 $485 $486 forward $79 $-1 #
coedge $-1 $487 $488 $200 $328 forward $489 $-1 #
edge $-1 $490 51.455937030591414 $332 54.455937030591414 $327 $491 forward 7 unknown #
coedge $-1 $477 $202 $324 $482 reversed $320 $-1 #
coedge $-1 $202 $477 $487 $492 reversed $320 $-1 #
vertex $-1 $325 $493 #
vertex $-1 $492 $494 #
straight-curve $-1 -54.455937030591414 -26.933194852363926 0 0 0 1 I I #
face $-1 $495 $346 $47 $-1 $496 reversed single #
loop $-1 $-1 $497 $204 #
plane-surface $-1 -52.955937030591414 32.451394825252351 0 0 -1 0 0 0 -1 forward_v I I I I #
coedge $-1 $498 $499 $500 $501 forward $205 $-1 #
coedge $-1 $502 $207 $498 $503 forward $129 $-1 #
coedge $-1 $207 $502 $344 $504 forward $129 $-1 #
edge $-1 $347 51.455937030591414 $505 54.455937030591414 $207 $506 forward 7 unknown #
coedge $-1 $209 $208 $507 $508 forward $82 $-1 #
coedge $-1 $509 $510 $208 $343 forward $511 $-1 #
edge $-1 $512 -54.455937030591414 $348 -51.455937030591414 $342 $513 forward 7 unknown #
coedge $-1 $514 $210 $339 $504 reversed $346 $-1 #
coedge $-1 $210 $514 $509 $515 reversed $346 $-1 #
loop $-1 $-1 $210 $334 #
vertex $-1 $340 $516 #
vertex $-1 $515 $517 #
straight-curve $-1 -51.455937030591414 26.933194852363926 0 0 0 1 I I #
face $-1 $-1 $518 $48 $-1 $519 reversed single #
loop $-1 $-1 $218 $212 #
plane-surface $-1 0 0 5.7888244693363271 0 0 1 1 0 0 forward_v I I I I #
coedge $-1 $520 $521 $522 $523 reversed $213 $-1 #
coedge $-1 $524 $215 $217 $360 forward $133 $-1 #
coedge $-1 $215 $524 $520 $525 forward $133 $-1 #
coedge $-1 $522 $218 $215 $357 forward $351 $-1 #
edge $-1 $363 5.084286961408381 $526 11.222992474664871 $356 $527 forward 7 unknown #
coedge $-1 $528 $529 $216 $359 forward $518 $-1 #
edge $-1 $530 -84.013930496081571 $362 -79.568579467965748 $358 $531 forward 7 unknown #
edge $-1 $363 113.94616654627268 $530 119.92797631763668 $217 $532 forward 7 unknown #
coedge $-1 $218 $522 $528 $533 forward $351 $-1 #
vertex $-1 $219 $534 #
vertex $-1 $219 $535 #
straight-curve $-1 34.420182886291713 -13.237926679445007 5.7888244693363333 -1 0 0 I I #
coedge $-1 $365 $365 $-1 $536 reversed $222 $-1 #
edge $-1 $537 0 $537 6.2831853071796004 $223 $538 forward 7 unknown #
vertex $-1 $226 $539 #
ellipse-curve $-1 57.962682186608205 -17.62271633177107 3.5661489552784214 0.74314483375859142 0 0.66913059716165679 0.3345652985808284 0 -0.37157241687929571 1 I I #
coedge $-1 $369 $369 $-1 $540 reversed $229 $-1 #
edge $-1 $541 0 $541 6.2831853071796004 $230 $542 forward 7 unknown #
vertex $-1 $233 $543 #
ellipse-curve $-1 57.962682186608205 -14.991842540375433 3.5661489552784214 0.74314483375859142 0 0.66913059716165679 0.3345652985808284 0 -0.37157241687929571 1 I I #
face $-1 $-1 $385 $51 $-1 $544 forward single #
loop $-1 $-1 $545 $234 #
plane-surface $-1 59.963988158818324 0 0 -1 0 0 0 0 1 forward_v I I I I #
coedge $-1 $546 $547 $548 $549 reversed $235 $-1 #
coedge $-1 $550 $237 $239 $383 forward $147 $-1 #
coedge $-1 $237 $550 $546 $551 forward $147 $-1 #
coedge $-1 $548 $240 $237 $380 forward $385 $-1 #
edge $-1 $387 -0.3514728506160365 $552 5.7872326626404522 $379 $553 forward 7 unknown #
coedge $-1 $554 $555 $238 $382 forward $374 $-1 #
edge $-1 $556 -84.013930496081571 $386 -79.568579467965748 $381 $557 forward 7 unknown #
edge $-1 $387 113.94616654627268 $556 119.92797631763668 $239 $558 forward 7 unknown #
coedge $-1 $240 $548 $554 $559 forward $385 $-1 #
loop $-1 $-1 $548 $373 #
vertex $-1 $382 $560 #
vertex $-1 $241 $561 #
straight-curve $-1 34.420182886291713 -2.3664070553961709 5.7888244693363333 -1 0 0 I I #
coedge $-1 $389 $389 $-1 $562 reversed $244 $-1 #
edge $-1 $563 0 $563 6.2831853071796004 $245 $564 forward 7 unknown #
vertex $-1 $248 $565 #
ellipse-curve $-1 57.962682186608205 -6.7511967077222366 3.5661489552784214 0.74314483375859142 0 0.66913059716165679 0.3345652985808284 0 -0.37157241687929571 1 I I #
coedge $-1 $393 $393 $-1 $566 reversed $251 $-1 #
edge $-1 $567 0 $567 6.2831853071796004 $252 $568 forward 7 unknown #
vertex $-1 $255 $569 #
ellipse-curve $-1 57.962682186608205 -4.1203229163266002 3.5661489552784214 0.74314483375859142 0 0.66913059716165679 0.3345652985808284 0 -0.37157241687929571 1 I I #
face $-1 $-1 $409 $54 $-1 $570 forward single #
loop $-1 $-1 $571 $256 #
plane-surface $-1 59.963988158818324 0 0 -1 0 0 0 0 1 forward_v I I I I #
coedge $-1 $572 $573 $574 $575 reversed $257 $-1 #
coedge $-1 $576 $259 $261 $407 forward $161 $-1 #
coedge $-1 $259 $576 $572 $577 forward $161 $-1 #
coedge $-1 $574 $262 $259 $404 forward $409 $-1 #
edge $-1 $411 -5.7872326626404558 $578 0.35147285061603295 $403 $579 forward 7 unknown #
coedge $-1 $580 $581 $260 $406 forward $398 $-1 #
edge $-1 $582 -84.013930496081571 $410 -79.568579467965748 $405 $583 forward 7 unknown #
edge $-1 $411 113.94616654627268 $582 119.92797631763668 $261 $584 forward 7 unknown #
coedge $-1 $262 $574 $580 $585 forward $409 $-1 #
loop $-1 $-1 $574 $397 #
vertex $-1 $406 $586 #
vertex $-1 $263 $587 #
straight-curve $-1 34.420182886291713 8.5051125686526667 5.7888244693363333 -1 0 0 I I #
coedge $-1 $413 $413 $-1 $588 reversed $266 $-1 #
edge $-1 $589 0 $589 6.2831853071796004 $267 $590 forward 7 unknown #
vertex $-1 $270 $591 #
ellipse-curve $-1 57.962682186608205 4.1203229163266002 3.5661489552784214 0.74314483375859142 0 0.66913059716165679 0.3345652985808284 0 -0.37157241687929571 1 I I #
coedge $-1 $417 $417 $-1 $592 reversed $273 $-1 #
edge $-1 $593 0 $593 6.2831853071796004 $274 $594 forward 7 unknown #
vertex $-1 $277 $595 #
ellipse-curve $-1 57.962682186608205 6.7511967077222366 3.5661489552784214 0.74314483375859142 0 0.66913059716165679 0.3345652985808284 0 -0.37157241687929571 1 I I #
face $-1 $-1 $433 $57 $-1 $596 forward single #
loop $-1 $-1 $597 $278 #
plane-surface $-1 59.963988158818324 0 0 -1 0 0 0 0 1 forward_v I I I I #
coedge $-1 $598 $599 $600 $601 reversed $279 $-1 #
coedge $-1 $602 $281 $283 $431 forward $175 $-1 #
coedge $-1 $281 $602 $598 $603 forward $175 $-1 #
coedge $-1 $600 $284 $281 $428 forward $433 $-1 #
edge $-1 $435 -11.222992474664874 $604 -5.0842869614083845 $427 $605 forward 7 unknown #
coedge $-1 $606 $607 $282 $430 forward $422 $-1 #
edge $-1 $608 -84.013930496081571 $434 -79.568579467965748 $429 $609 forward 7 unknown #
edge $-1 $435 113.94616654627268 $608 119.92797631763668 $283 $610 forward 7 unknown #
coedge $-1 $284 $600 $606 $611 forward $433 $-1 #
loop $-1 $-1 $600 $421 #
vertex $-1 $430 $612 #
vertex $-1 $285 $613 #
straight-curve $-1 34.420182886291713 19.376632192701503 5.7888244693363333 -1 0 0 I I #
coedge $-1 $437 $437 $-1 $614 reversed $288 $-1 #
edge $-1 $615 0 $615 6.2831853071796004 $289 $616 forward 7 unknown #
vertex $-1 $292 $617 #
ellipse-curve $-1 57.962682186608205 14.991842540375437 3.5661489552784214 0.74314483375859142 0 0.66913059716165679 0.3345652985808284 0 -0.37157241687929571 1 I I #
coedge $-1 $441 $441 $-1 $618 reversed $295 $-1 #
edge $-1 $619 0 $619 6.2831853071796004 $296 $620 forward 7 unknown #
vertex $-1 $299 $621 #
ellipse-curve $-1 57.962682186608205 17.622716331771073 3.5661489552784214 0.74314483375859142 0 0.66913059716165679 0.3345652985808284 0 -0.37157241687929571 1 I I #
face $-1 $-1 $315 $45 $-1 $622 reversed single #
loop $-1 $-1 $461 $300 #
plane-surface $-1 0 26.933194852363926 0 0 -1 0 0 0 -1 forward_v I I I I #
coedge $-1 $623 $459 $462 $624 forward $301 $-1 #
coedge $-1 $465 $303 $304 $453 reversed $189 $-1 #
coedge $-1 $459 $623 $303 $451 reversed $301 $-1 #
edge $-1 $466 -5.7888244693363271 $625 5.7888244693363271 $450 $626 forward 7 unknown #
coedge $-1 $305 $304 $623 $627 forward $121 $-1 #
edge $-1 $457 -59.963988158818324 $625 59.963988158818324 $449 $628 forward 7 unknown #
coedge $-1 $462 $461 $305 $455 reversed $446 $-1 #
edge $-1 $629 -59.963988158818324 $456 59.963988158818324 $454 $630 forward 7 unknown #
vertex $-1 $307 $631 #
vertex $-1 $468 $632 #
straight-curve $-1 59.963988158818324 0 -5.7888244693363271 0 -1 0 I I #
coedge $-1 $448 $450 $308 $460 reversed $301 $-1 #
edge $-1 $463 -26.933194852363926 $466 26.933194852363926 $459 $633 forward 7 unknown #
coedge $-1 $454 $309 $314 $469 forward $446 $-1 #
coedge $-1 $309 $454 $448 $624 reversed $446 $-1 #
vertex $-1 $310 $634 #
straight-curve $-1 0 26.933194852363926 5.7888244693363271 -1 0 0 I I #
coedge $-1 $311 $449 $313 $468 reversed $189 $-1 #
vertex $-1 $460 $635 #
straight-curve $-1 0 -26.933194852363926 5.7888244693363271 1 0 0 I I #
edge $-1 $316 -5.7888244693363271 $457 5.7888244693363271 $313 $636 forward 7 unknown #
edge $-1 $317 -5.7888244693363271 $456 5.7888244693363271 $314 $637 forward 7 unknown #
point $-1 59.963988158818324 -26.933194852363926 5.7888244693363271 #
point $-1 59.963988158818324 26.933194852363926 5.7888244693363271 #
face $-1 $-1 $489 $46 $-1 $638 forward single #
loop $-1 $-1 $639 $319 #
plane-surface $-1 -51.455937030591414 -29.692294838808142 0 -1 0 0 0 0 1 forward_v I I I I #
coedge $-1 $640 $322 $479 $641 reversed $197 $-1 #
coedge $-1 $322 $640 $642 $643 reversed $197 $-1 #
coedge $-1 $330 $329 $322 $478 reversed $320 $-1 #
edge $-1 $644 -5.7888244693363271 $645 5.7888244693363271 $477 $646 forward 7 unknown #
coedge $-1 $324 $323 $475 $641 forward $125 $-1 #
coedge $-1 $485 $639 $323 $481 reversed $473 $-1 #
edge $-1 $483 -2.7590999864442161 $647 2.7590999864442161 $480 $648 forward 7 unknown #
edge $-1 $645 -2.7590999864442161 $331 2.7590999864442161 $329 $649 forward 7 unknown #
vertex $-1 $481 $650 #
straight-curve $-1 0 -26.933194852363926 -5.7888244693363271 1 0 0 I I #
coedge $-1 $651 $480 $326 $486 reversed $473 $-1 #
edge $-1 $490 -5.7888244693363271 $483 5.7888244693363271 $485 $652 forward 7 unknown #
coedge $-1 $642 $327 $330 $492 forward $489 $-1 #
coedge $-1 $327 $642 $651 $653 forward $489 $-1 #
loop $-1 $-1 $327 $472 #
vertex $-1 $328 $654 #
straight-curve $-1 0 -26.933194852363926 5.7888244693363271 -1 0 0 I I #
edge $-1 $332 -2.7590999864442161 $644 2.7590999864442161 $330 $655 forward 7 unknown #
point $-1 -54.455937030591414 -26.933194852363926 -5.7888244693363271 #
point $-1 -54.455937030591414 -26.933194852363926 5.7888244693363271 #
face $-1 $-1 $511 $47 $-1 $656 forward single #
plane-surface $-1 -51.455937030591414 29.692294838808138 0 -1 0 0 0 0 1 forward_v I I I I #
coedge $-1 $657 $658 $514 $659 forward $335 $-1 #
coedge $-1 $507 $337 $338 $503 reversed $205 $-1 #
coedge $-1 $337 $507 $510 $660 reversed $205 $-1 #
coedge $-1 $658 $657 $337 $501 reversed $335 $-1 #
edge $-1 $661 -5.7888244693363271 $662 5.7888244693363271 $500 $663 forward 7 unknown #
coedge $-1 $339 $338 $657 $664 forward $129 $-1 #
edge $-1 $505 -2.7590999864442161 $662 2.7590999864442125 $498 $665 forward 7 unknown #
edge $-1 $666 -2.7590999864442125 $347 2.7590999864442161 $344 $667 forward 7 unknown #
vertex $-1 $503 $668 #
straight-curve $-1 0 26.933194852363926 -5.7888244693363271 -1 0 0 I I #
coedge $-1 $499 $498 $341 $508 reversed $205 $-1 #
edge $-1 $512 -5.7888244693363271 $505 5.7888244693363271 $507 $669 forward 7 unknown #
coedge $-1 $670 $342 $345 $515 forward $511 $-1 #
coedge $-1 $342 $670 $499 $660 forward $511 $-1 #
loop $-1 $-1 $342 $495 #
vertex $-1 $343 $671 #
straight-curve $-1 0 26.933194852363926 5.7888244693363271 1 0 0 I I #
coedge $-1 $345 $344 $497 $659 reversed $346 $-1 #
edge $-1 $348 -2.7590999864442161 $672 2.7590999864442125 $345 $673 forward 7 unknown #
point $-1 -51.455937030591414 26.933194852363922 -5.7888244693363271 #
point $-1 -51.455937030591414 26.933194852363922 5.7888244693363271 #
loop $-1 $-1 $358 $350 #
plane-surface $-1 59.963988158818324 0 0 -1 0 0 0 0 1 forward_v I I I I #
coedge $-1 $521 $353 $355 $525 reversed $213 $-1 #
coedge $-1 $353 $520 $674 $675 reversed $213 $-1 #
coedge $-1 $361 $356 $353 $523 forward $351 $-1 #
edge $-1 $526 21.541193328106374 $676 25.543805272526612 $522 $677 forward 7 unknown #
coedge $-1 $355 $354 $529 $678 reversed $133 $-1 #
edge $-1 $679 -119.92797631763668 $526 -113.94616654627268 $520 $680 forward 7 unknown #
vertex $-1 $357 $681 #
straight-curve $-1 55.961376214398086 -8.1536397180366258 5.7888244693363333 0 -1 0 I I #
coedge $-1 $674 $358 $361 $533 reversed $518 $-1 #
coedge $-1 $358 $674 $524 $678 forward $518 $-1 #
vertex $-1 $359 $682 #
straight-curve $-1 59.963988158818324 -13.237926679445007 85.357403937302081 0 0 1 I I #
straight-curve $-1 -20.283490250990951 -13.237926679445007 90.467329464794915 0.66913059716165679 0 -0.74314483375859142 I I #
edge $-1 $676 -19.376632192701496 $362 -13.237926679445007 $528 $683 forward 7 unknown #
point $-1 59.963988158818324 -13.237926679445007 5.7888244693363271 #
point $-1 55.961376214398086 -13.237926679445007 5.7888244693363333 #
edge $-1 $684 1 $684 0 $365 $-1 forward 7 unknown #
vertex $-1 $366 $685 #
ellipse-curve $-1 56.582329270044333 -17.62271633177107 2.3232736375792409 0.74314483375859142 0 0.66913059716165679 0.3345652985808284 0 -0.37157241687929571 1 I I #
point $-1 58.297247485189061 -17.62271633177107 3.1945765383991525 #
edge $-1 $686 1 $686 0 $369 $-1 forward 7 unknown #
vertex $-1 $370 $687 #
ellipse-curve $-1 56.582329270044333 -14.991842540375433 2.3232736375792409 0.74314483375859142 0 0.66913059716165679 0.3345652985808284 0 -0.37157241687929571 1 I I #
point $-1 58.297247485189061 -14.991842540375433 3.1945765383991525 #
plane-surface $-1 0 0 5.7888244693363271 0 0 1 1 0 0 forward_v I I I I #
coedge $-1 $555 $554 $547 $688 forward $374 $-1 #
coedge $-1 $547 $376 $378 $551 reversed $235 $-1 #
coedge $-1 $376 $546 $545 $688 reversed $235 $-1 #
coedge $-1 $384 $379 $376 $549 forward $385 $-1 #
edge $-1 $552 21.541193328106374 $689 25.543805272526612 $548 $690 forward 7 unknown #
coedge $-1 $378 $377 $555 $691 reversed $147 $-1 #
edge $-1 $692 -119.92797631763668 $552 -113.94616654627268 $546 $693 forward 7 unknown #
vertex $-1 $380 $694 #
straight-curve $-1 55.961376214398086 -2.7178799060122074 5.7888244693363333 0 -1 0 I I #
coedge $-1 $545 $381 $384 $559 reversed $374 $-1 #
coedge $-1 $381 $545 $550 $691 forward $374 $-1 #
vertex $-1 $382 $695 #
straight-curve $-1 59.963988158818324 -2.3664070553961709 85.357403937302081 0 0 1 I I #
straight-curve $-1 -20.283490250990951 -2.3664070553961709 90.467329464794915 0.66913059716165679 0 -0.74314483375859142 I I #
edge $-1 $689 -8.5051125686526596 $386 -2.3664070553961709 $554 $696 forward 7 unknown #
point $-1 59.963988158818324 -2.3664070553961709 5.7888244693363271 #
point $-1 55.961376214398086 -2.3664070553961709 5.7888244693363333 #
edge $-1 $697 1 $697 0 $389 $-1 forward 7 unknown #
vertex $-1 $390 $698 #
ellipse-curve $-1 56.582329270044333 -6.7511967077222366 2.3232736375792409 0.74314483375859142 0 0.66913059716165679 0.3345652985808284 0 -0.37157241687929571 1 I I #
point $-1 58.297247485189061 -6.7511967077222366 3.1945765383991525 #
edge $-1 $699 1 $699 0 $393 $-1 forward 7 unknown #
vertex $-1 $394 $700 #
ellipse-curve $-1 56.582329270044333 -4.1203229163266002 2.3232736375792409 0.74314483375859142 0 0.66913059716165679 0.3345652985808284 0 -0.37157241687929571 1 I I #
point $-1 58.297247485189061 -4.1203229163266002 3.1945765383991525 #
plane-surface $-1 0 0 5.7888244693363271 0 0 1 1 0 0 forward_v I I I I #
coedge $-1 $581 $580 $573 $701 forward $398 $-1 #
coedge $-1 $573 $400 $402 $577 reversed $257 $-1 #
coedge $-1 $400 $572 $571 $701 reversed $257 $-1 #
coedge $-1 $408 $403 $400 $575 forward $409 $-1 #
edge $-1 $578 21.541193328106374 $702 25.543805272526612 $574 $703 forward 7 unknown #
coedge $-1 $402 $401 $581 $704 reversed $161 $-1 #
edge $-1 $705 -119.92797631763668 $578 -113.94616654627268 $572 $706 forward 7 unknown #
vertex $-1 $404 $707 #
straight-curve $-1 55.961376214398086 2.717879906012211 5.7888244693363333 0 -1 0 I I #
coedge $-1 $571 $405 $408 $585 reversed $398 $-1 #
coedge $-1 $405 $571 $576 $704 forward $398 $-1 #
vertex $-1 $406 $708 #
straight-curve $-1 59.963988158818324 8.5051125686526667 85.357403937302081 0 0 1 I I #
straight-curve $-1 -20.283490250990951 8.5051125686526667 90.467329464794915 0.66913059716165679 0 -0.74314483375859142 I I #
edge $-1 $702 2.366407055396178 $410 8.5051125686526667 $580 $709 forward 7 unknown #
point $-1 59.963988158818324 8.5051125686526667 5.7888244693363271 #
point $-1 55.961376214398086 8.5051125686526667 5.7888244693363333 #
edge $-1 $710 1 $710 0 $413 $-1 forward 7 unknown #
vertex $-1 $414 $711 #
ellipse-curve $-1 56.582329270044333 4.1203229163266002 2.3232736375792409 0.74314483375859142 0 0.66913059716165679 0.3345652985808284 0 -0.37157241687929571 1 I I #
point $-1 58.297247485189061 4.1203229163266002 3.1945765383991525 #
edge $-1 $712 1 $712 0 $417 $-1 forward 7 unknown #
vertex $-1 $418 $713 #
ellipse-curve $-1 56.582329270044333 6.7511967077222366 2.3232736375792409 0.74314483375859142 0 0.66913059716165679 0.3345652985808284 0 -0.37157241687929571 1 I I #
point $-1 58.297247485189061 6.7511967077222366 3.1945765383991525 #
plane-surface $-1 0 0 5.7888244693363271 0 0 1 1 0 0 forward_v I I I I #
coedge $-1 $607 $606 $599 $714 forward $422 $-1 #
coedge $-1 $599 $424 $426 $603 reversed $279 $-1 #
coedge $-1 $424 $598 $597 $714 reversed $279 $-1 #
coedge $-1 $432 $427 $424 $601 forward $433 $-1 #
edge $-1 $604 21.541193328106374 $715 25.543805272526612 $600 $716 forward 7 unknown #
coedge $-1 $426 $425 $607 $717 reversed $175 $-1 #
edge $-1 $718 -119.92797631763668 $604 -113.94616654627268 $598 $719 forward 7 unknown #
vertex $-1 $428 $720 #
straight-curve $-1 55.961376214398086 8.1536397180366293 5.7888244693363333 0 -1 0 I I #
coedge $-1 $597 $429 $432 $611 reversed $422 $-1 #
coedge $-1 $429 $597 $602 $717 forward $422 $-1 #
vertex $-1 $430 $721 #
straight-curve $-1 59.963988158818324 19.376632192701503 85.357403937302081 0 0 1 I I #
straight-curve $-1 -20.283490250990951 19.376632192701503 90.467329464794915 0.66913059716165679 0 -0.74314483375859142 I I #
edge $-1 $715 13.237926679445014 $434 19.376632192701503 $606 $722 forward 7 unknown #
point $-1 59.963988158818324 19.376632192701503 5.7888244693363271 #
point $-1 55.961376214398086 19.376632192701503 5.7888244693363333 #
edge $-1 $723 1 $723 0 $437 $-1 forward 7 unknown #
vertex $-1 $438 $724 #
ellipse-curve $-1 56.582329270044333 14.991842540375437 2.3232736375792409 0.74314483375859142 0 0.66913059716165679 0.3345652985808284 0 -0.37157241687929571 1 I I #
point $-1 58.297247485189061 14.991842540375437 3.1945765383991525 #
edge $-1 $725 1 $725 0 $441 $-1 forward 7 unknown #
vertex $-1 $442 $726 #
ellipse-curve $-1 56.582329270044333 17.622716331771073 2.3232736375792409 0.74314483375859142 0 0.66913059716165679 0.3345652985808284 0 -0.37157241687929571 1 I I #
point $-1 58.297247485189061 17.622716331771073 3.1945765383991525 #
plane-surface $-1 59.963988158818324 0 0 -1 0 0 0 0 1 forward_v I I I I #
coedge $-1 $450 $448 $452 $627 reversed $301 $-1 #
edge $-1 $463 -5.7888244693363271 $629 5.7888244693363271 $462 $727 forward 7 unknown #
vertex $-1 $627 $728 #
straight-curve $-1 -59.963988158818324 -26.933194852363926 0 0 0 -1 I I #
edge $-1 $625 -26.933194852363926 $629 26.933194852363926 $623 $729 forward 7 unknown #
straight-curve $-1 0 -26.933194852363926 -5.7888244693363271 -1 0 0 I I #
vertex $-1 $455 $730 #
straight-curve $-1 0 26.933194852363926 -5.7888244693363271 1 0 0 I I #
point $-1 59.963988158818324 26.933194852363926 -5.7888244693363271 #
point $-1 59.963988158818324 -26.933194852363926 -5.7888244693363271 #
straight-curve $-1 -59.963988158818324 0 5.7888244693363271 0 -1 0 I I #
point $-1 -59.963988158818324 26.933194852363926 5.7888244693363271 #
point $-1 -59.963988158818324 -26.933194852363926 5.7888244693363271 #
straight-curve $-1 59.963988158818324 -26.933194852363926 0 0 0 -1 I I #
straight-curve $-1 59.963988158818324 26.933194852363926 0 0 0 -1 I I #
plane-surface $-1 0 0 5.7888244693363271 0 0 1 1 0 0 forward_v I I I I #
coedge $-1 $480 $651 $640 $731 forward $473 $-1 #
coedge $-1 $476 $475 $639 $731 reversed $197 $-1 #
edge $-1 $647 -1.5 $645 1.5 $475 $732 forward 7 unknown #
coedge $-1 $488 $487 $476 $643 forward $489 $-1 #
edge $-1 $644 -1.5 $733 1.5 $476 $734 forward 7 unknown #
vertex $-1 $492 $735 #
vertex $-1 $482 $736 #
straight-curve $-1 -54.455937030591414 -32.451394825252358 0 0 0 -1 I I #
vertex $-1 $731 $737 #
straight-curve $-1 -51.455937030591414 -29.692294838808142 -5.7888244693363271 0 -1 0 I I #
straight-curve $-1 -54.455937030591414 -29.692294838808142 -5.7888244693363271 0 1 0 I I #
point $-1 -51.455937030591414 -26.933194852363926 -5.7888244693363271 #
coedge $-1 $639 $485 $488 $653 reversed $473 $-1 #
straight-curve $-1 -51.455937030591414 -26.933194852363926 0 0 0 -1 I I #
edge $-1 $733 -2.7590999864442161 $490 2.7590999864442161 $651 $738 forward 7 unknown #
point $-1 -51.455937030591414 -26.933194852363926 5.7888244693363271 #
straight-curve $-1 -54.455937030591414 -29.692294838808142 5.7888244693363271 0 -1 0 I I #
plane-surface $-1 0 0 5.7888244693363271 0 0 1 1 0 0 forward_v I I I I #
coedge $-1 $500 $497 $502 $664 reversed $335 $-1 #
coedge $-1 $497 $500 $670 $739 reversed $335 $-1 #
edge $-1 $672 -5.7888244693363271 $666 5.7888244693363271 $514 $740 forward 7 unknown #
edge $-1 $661 -2.7590999864442125 $512 2.7590999864442161 $499 $741 forward 7 unknown #
vertex $-1 $739 $742 #
vertex $-1 $664 $743 #
straight-curve $-1 -54.455937030591414 32.451394825252351 0 0 0 -1 I I #
edge $-1 $662 -1.5 $666 1.5 $657 $744 forward 7 unknown #
straight-curve $-1 -54.455937030591414 29.692294838808138 -5.7888244693363271 0 1 0 I I #
vertex $-1 $504 $745 #
straight-curve $-1 -51.455937030591414 29.692294838808138 -5.7888244693363271 0 -1 0 I I #
point $-1 -54.455937030591414 26.933194852363922 -5.7888244693363271 #
straight-curve $-1 -54.455937030591414 26.933194852363926 0 0 0 -1 I I #
coedge $-1 $510 $509 $658 $739 forward $511 $-1 #
point $-1 -54.455937030591414 26.933194852363922 5.7888244693363271 #
vertex $-1 $515 $746 #
straight-curve $-1 -51.455937030591414 29.692294838808138 5.7888244693363271 0 1 0 I I #
coedge $-1 $529 $528 $521 $675 forward $518 $-1 #
edge $-1 $676 79.568579467965748 $679 84.013930496081571 $674 $747 forward 7 unknown #
vertex $-1 $533 $748 #
straight-curve $-1 34.420182886291713 -19.376632192701496 5.7888244693363333 1 0 0 I I #
edge $-1 $679 -11.222992474664871 $530 -5.084286961408381 $529 $749 forward 7 unknown #
vertex $-1 $678 $750 #
straight-curve $-1 -20.283490250990951 -19.376632192701496 90.467329464794915 -0.66913059716165679 0 0.74314483375859142 I I #
point $-1 55.961376214398086 -19.376632192701496 5.7888244693363333 #
point $-1 59.963988158818324 -13.237926679445007 1.3434734412205103 #
straight-curve $-1 59.963988158818324 0 5.7888244693363271 0 1 0 I I #
vertex $-1 $536 $751 #
point $-1 56.916894568625167 -17.62271633177107 1.9517012206999453 #
vertex $-1 $540 $752 #
point $-1 56.916894568625167 -14.991842540375433 1.9517012206999453 #
edge $-1 $689 79.568579467965748 $692 84.013930496081571 $545 $753 forward 7 unknown #
vertex $-1 $559 $754 #
straight-curve $-1 34.420182886291713 -8.5051125686526596 5.7888244693363333 1 0 0 I I #
edge $-1 $692 -5.7872326626404522 $556 0.3514728506160365 $555 $755 forward 7 unknown #
vertex $-1 $691 $756 #
straight-curve $-1 -20.283490250990951 -8.5051125686526596 90.467329464794915 -0.66913059716165679 0 0.74314483375859142 I I #
point $-1 55.961376214398086 -8.5051125686526596 5.7888244693363333 #
point $-1 59.963988158818324 -2.3664070553961709 1.3434734412205103 #
straight-curve $-1 59.963988158818324 0 5.7888244693363271 0 1 0 I I #
vertex $-1 $562 $757 #
point $-1 56.916894568625167 -6.7511967077222366 1.9517012206999453 #
vertex $-1 $566 $758 #
point $-1 56.916894568625167 -4.1203229163266002 1.9517012206999453 #
edge $-1 $702 79.568579467965748 $705 84.013930496081571 $571 $759 forward 7 unknown #
vertex $-1 $585 $760 #
straight-curve $-1 34.420182886291713 2.366407055396178 5.7888244693363333 1 0 0 I I #
edge $-1 $705 -0.35147285061603295 $582 5.7872326626404558 $581 $761 forward 7 unknown #
vertex $-1 $704 $762 #
straight-curve $-1 -20.283490250990951 2.366407055396178 90.467329464794915 -0.66913059716165679 0 0.74314483375859142 I I #
point $-1 55.961376214398086 2.366407055396178 5.7888244693363333 #
point $-1 59.963988158818324 8.5051125686526667 1.3434734412205103 #
straight-curve $-1 59.963988158818324 0 5.7888244693363271 0 1 0 I I #
vertex $-1 $588 $763 #
point $-1 56.916894568625167 4.1203229163266002 1.9517012206999453 #
vertex $-1 $592 $764 #
point $-1 56.916894568625167 6.7511967077222366 1.9517012206999453 #
edge $-1 $715 79.568579467965748 $718 84.013930496081571 $597 $765 forward 7 unknown #
vertex $-1 $611 $766 #
straight-curve $-1 34.420182886291713 13.237926679445014 5.7888244693363333 1 0 0 I I #
edge $-1 $718 5.0842869614083845 $608 11.222992474664874 $607 $767 forward 7 unknown #
vertex $-1 $717 $768 #
straight-curve $-1 -20.283490250990951 13.237926679445014 90.467329464794915 -0.66913059716165679 0 0.74314483375859142 I I #
point $-1 55.961376214398086 13.237926679445014 5.7888244693363333 #
point $-1 59.963988158818324 19.376632192701503 1.3434734412205103 #
straight-curve $-1 59.963988158818324 0 5.7888244693363271 0 1 0 I I #
vertex $-1 $614 $769 #
point $-1 56.916894568625167 14.991842540375437 1.9517012206999453 #
vertex $-1 $618 $770 #
point $-1 56.916894568625167 17.622716331771073 1.9517012206999453 #
straight-curve $-1 -59.963988158818324 26.933194852363926 0 0 0 -1 I I #
point $-1 -59.963988158818324 -26.933194852363926 -5.7888244693363271 #
straight-curve $-1 -59.963988158818324 0 -5.7888244693363271 0 1 0 I I #
point $-1 -59.963988158818324 26.933194852363926 -5.7888244693363271 #
edge $-1 $733 -5.7888244693363271 $647 5.7888244693363271 $639 $771 forward 7 unknown #
straight-curve $-1 -52.955937030591414 -32.451394825252358 -5.7888244693363271 -1 0 0 I I #
vertex $-1 $653 $772 #
straight-curve $-1 -52.955937030591414 -32.451394825252358 5.7888244693363271 1 0 0 I I #
point $-1 -54.455937030591414 -32.451394825252358 5.7888244693363271 #
point $-1 -54.455937030591414 -32.451394825252358 -5.7888244693363271 #
point $-1 -51.455937030591414 -32.451394825252358 -5.7888244693363271 #
straight-curve $-1 -51.455937030591414 -29.692294838808142 5.7888244693363271 0 1 0 I I #
edge $-1 $672 -1.5 $661 1.5 $658 $773 forward 7 unknown #
straight-curve $-1 -51.455937030591414 32.451394825252351 0 0 0 -1 I I #
straight-curve $-1 -54.455937030591414 29.692294838808138 5.7888244693363271 0 -1 0 I I #
point $-1 -54.455937030591414 32.451394825252351 5.7888244693363271 #
point $-1 -54.455937030591414 32.451394825252351 -5.7888244693363271 #
straight-curve $-1 -52.955937030591414 32.451394825252351 -5.7888244693363271 1 0 0 I I #
point $-1 -51.455937030591414 32.451394825252351 -5.7888244693363271 #
point $-1 -51.455937030591414 32.451394825252351 5.7888244693363271 #
straight-curve $-1 59.963988158818324 -19.376632192701496 85.357403937302081 0 0 -1 I I #
point $-1 59.963988158818324 -19.376632192701496 5.7888244693363271 #
straight-curve $-1 59.963988158818324 -8.1536397180366258 1.3434734412205032 0 1 0 I I #
point $-1 59.963988158818324 -19.376632192701496 1.3434734412205103 #
point $-1 56.210756853165044 -17.62271633177107 1.9887083389984126 #
point $-1 56.210756853165044 -14.991842540375433 1.9887083389984126 #
straight-curve $-1 59.963988158818324 -8.5051125686526596 85.357403937302081 0 0 -1 I I #
point $-1 59.963988158818324 -8.5051125686526596 5.7888244693363271 #
straight-curve $-1 59.963988158818324 -2.7178799060122074 1.3434734412205032 0 1 0 I I #
point $-1 59.963988158818324 -8.5051125686526596 1.3434734412205103 #
point $-1 56.210756853165044 -6.7511967077222366 1.9887083389984126 #
point $-1 56.210756853165044 -4.1203229163266002 1.9887083389984126 #
straight-curve $-1 59.963988158818324 2.366407055396178 85.357403937302081 0 0 -1 I I #
point $-1 59.963988158818324 2.366407055396178 5.7888244693363271 #
straight-curve $-1 59.963988158818324 2.717879906012211 1.3434734412205032 0 1 0 I I #
point $-1 59.963988158818324 2.366407055396178 1.3434734412205103 #
point $-1 56.210756853165044 4.1203229163266002 1.9887083389984126 #
point $-1 56.210756853165044 6.7511967077222366 1.9887083389984126 #
straight-curve $-1 59.963988158818324 13.237926679445014 85.357403937302081 0 0 -1 I I #
point $-1 59.963988158818324 13.237926679445014 5.7888244693363271 #
straight-curve $-1 59.963988158818324 8.1536397180366293 1.3434734412205032 0 1 0 I I #
point $-1 59.963988158818324 13.237926679445014 1.3434734412205103 #
point $-1 56.210756853165044 14.991842540375437 1.9887083389984126 #
point $-1 56.210756853165044 17.622716331771073 1.9887083389984126 #
straight-curve $-1 -51.455937030591414 -32.451394825252358 0 0 0 -1 I I #
point $-1 -51.455937030591414 -32.451394825252358 5.7888244693363271 #
straight-curve $-1 -52.955937030591414 32.451394825252351 5.7888244693363271 -1 0 0 I I #
End-of-ACIS-data 