500 0 13 0           
7 Unknown 11 ACIS 5.0 NT 24 Thu Mar 25 21:14:45 1999 
-1 9.9999999999999995e-007 1e-010 
body $-1 $13 $-1 $14 #
body $-1 $15 $-1 $16 #
body $-1 $17 $-1 $18 #
body $-1 $19 $-1 $20 #
body $-1 $21 $-1 $22 #
body $-1 $23 $-1 $24 #
body $-1 $25 $-1 $26 #
body $-1 $27 $-1 $28 #
body $-1 $29 $-1 $30 #
body $-1 $31 $-1 $32 #
body $-1 $33 $-1 $34 #
body $-1 $35 $-1 $36 #
body $-1 $37 $-1 $38 #
lump $-1 $-1 $39 $0 #
transform $-1 1 0 0 0 1 0 0 0 1 64.457533494064151 42.638716437184911 9.4997920309465229 1 rotate no_reflect no_shear #
lump $-1 $-1 $40 $1 #
transform $-1 1 0 0 0 1 0 0 0 1 64.457533494064151 42.638716437184911 9.4997920309465229 1 rotate no_reflect no_shear #
lump $-1 $-1 $41 $2 #
transform $-1 1 0 0 0 1 0 0 0 1 64.457533494064151 42.638716437184911 9.4997920309465229 1 rotate no_reflect no_shear #
lump $-1 $-1 $42 $3 #
transform $-1 1 0 0 0 1 0 0 0 1 64.457533494064151 42.638716437184911 9.4997920309465229 1 rotate no_reflect no_shear #
lump $-1 $-1 $43 $4 #
transform $-1 1 0 0 0 1 0 0 0 1 64.457533494064151 42.638716437184911 9.4997920309465229 1 rotate no_reflect no_shear #
lump $-1 $-1 $44 $5 #
transform $-1 1 0 0 0 1 0 0 0 1 64.457533494064151 42.638716437184911 9.4997920309465229 1 rotate no_reflect no_shear #
lump $-1 $-1 $45 $6 #
transform $-1 1 0 0 0 1 0 0 0 1 64.457533494064151 42.638716437184911 9.4997920309465229 1 rotate no_reflect no_shear #
lump $-1 $-1 $46 $7 #
transform $-1 1 0 0 0 1 0 0 0 1 64.457533494064151 42.638716437184911 9.4997920309465229 1 rotate no_reflect no_shear #
lump $-1 $-1 $47 $8 #
transform $-1 1 0 0 0 1 0 0 0 1 64.457533494064151 42.638716437184911 9.4997920309465229 1 rotate no_reflect no_shear #
lump $-1 $-1 $48 $9 #
transform $-1 1 0 0 0 1 0 0 0 1 64.457533494064151 42.638716437184911 9.4997920309465229 1 rotate no_reflect no_shear #
lump $-1 $-1 $49 $10 #
transform $-1 1 0 0 0 1 0 0 0 1 64.457533494064151 42.638716437184911 9.4997920309465229 1 rotate no_reflect no_shear #
lump $-1 $-1 $50 $11 #
transform $-1 1 0 0 0 1 0 0 0 1 64.457533494064151 42.638716437184911 9.4997920309465229 1 rotate no_reflect no_shear #
lump $-1 $-1 $51 $12 #
transform $-1 1 0 0 0 1 0 0 0 1 64.457533494064151 42.638716437184911 9.4997920309465229 1 rotate no_reflect no_shear #
shell $-1 $-1 $-1 $52 $-1 $13 #
shell $-1 $-1 $-1 $53 $-1 $15 #
shell $-1 $-1 $-1 $54 $-1 $17 #
shell $-1 $-1 $-1 $55 $-1 $19 #
shell $-1 $-1 $-1 $56 $-1 $21 #
shell $-1 $-1 $-1 $57 $-1 $23 #
shell $-1 $-1 $-1 $58 $-1 $25 #
shell $-1 $-1 $-1 $59 $-1 $27 #
shell $-1 $-1 $-1 $60 $-1 $29 #
shell $-1 $-1 $-1 $61 $-1 $31 #
shell $-1 $-1 $-1 $62 $-1 $33 #
shell $-1 $-1 $-1 $63 $-1 $35 #
shell $-1 $-1 $-1 $64 $-1 $37 #
face $-1 $65 $66 $39 $-1 $67 forward single #
face $-1 $68 $69 $40 $-1 $70 forward single #
face $-1 $71 $72 $41 $-1 $73 forward single #
face $-1 $74 $75 $42 $-1 $76 reversed single #
face $-1 $77 $78 $43 $-1 $79 forward single #
face $-1 $80 $81 $44 $-1 $82 forward single #
face $-1 $83 $84 $45 $-1 $85 forward single #
face $-1 $86 $87 $46 $-1 $88 reversed single #
face $-1 $89 $90 $47 $-1 $91 forward single #
face $-1 $92 $93 $48 $-1 $94 forward single #
face $-1 $95 $96 $49 $-1 $97 reversed single #
face $-1 $98 $99 $50 $-1 $100 forward single #
face $-1 $101 $102 $51 $-1 $103 forward single #
face $-1 $104 $105 $39 $-1 $106 reversed single #
loop $-1 $-1 $107 $52 #
plane-surface $-1 0 0 9.4997920309465229 0 0 1 1 0 0 forward_v I I I I #
face $-1 $108 $109 $40 $-1 $110 reversed single #
loop $-1 $-1 $111 $53 #
plane-surface $-1 0 -42.638716437184911 0 0 1 0 0 0 1 forward_v I I I I #
face $-1 $112 $113 $41 $-1 $114 reversed single #
loop $-1 $-1 $115 $54 #
plane-surface $-1 0 42.638716437184911 0 0 -1 0 0 0 -1 forward_v I I I I #
face $-1 $116 $117 $42 $-1 $118 reversed single #
loop $-1 $-1 $119 $55 #
plane-surface $-1 -142.04055850036136 25.691052926349833 104.94792210614912 0 1 0 -0.6018150307709319 0 0.79863550430605224 forward_v I I I I #
face $-1 $120 $121 $43 $-1 $122 forward single #
loop $-1 $123 $124 $56 #
cone-surface $-1 -59.095107429580047 27.28211644008789 5.2405936116749086 0.6018150307709319 0 -0.79863550430605224 0.39931775215302612 0 0.30090751538546595 1 I I 0 1 0.5 forward I I I I #
face $-1 $125 $126 $44 $-1 $127 forward single #
loop $-1 $128 $129 $57 #
cone-surface $-1 -59.095107429580047 29.668711710694964 5.2405936116749086 0.6018150307709319 0 -0.79863550430605224 0.39931775215302612 0 0.30090751538546595 1 I I 0 1 0.5 forward I I I I #
face $-1 $130 $131 $45 $-1 $132 forward single #
loop $-1 $133 $134 $58 #
cone-surface $-1 -59.095107429580047 32.055306981302039 5.2405936116749086 0.6018150307709319 0 -0.79863550430605224 0.39931775215302612 0 0.30090751538546595 1 I I 0 1 0.5 forward I I I I #
face $-1 $135 $136 $46 $-1 $137 reversed single #
loop $-1 $-1 $138 $59 #
plane-surface $-1 99.244579669465836 -13.188070475854749 184.15143871407741 0 -1 0 -0.82903758062907751 0 -0.55919289150049634 forward_v I I I I #
face $-1 $139 $140 $47 $-1 $141 forward single #
loop $-1 $142 $143 $60 #
cone-surface $-1 62.355755604437448 -23.891453436742438 6.9069740302524014 -0.82903758062907751 0 -0.55919289150049634 0.27959644575024817 0 -0.41451879031453875 1 I I 0 1 0.5 forward I I I I #
face $-1 $144 $145 $48 $-1 $146 forward single #
loop $-1 $147 $148 $61 #
cone-surface $-1 62.355755604437448 -17.469423660209824 6.9069740302524014 -0.82903758062907751 0 -0.55919289150049634 0.27959644575024817 0 -0.41451879031453875 1 I I 0 1 0.5 forward I I I I #
face $-1 $149 $150 $49 $-1 $151 reversed single #
loop $-1 $-1 $152 $62 #
plane-surface $-1 99.244579669465836 28.172806621097514 184.15143871407741 0 -1 0 -0.82903758062907751 0 -0.55919289150049634 forward_v I I I I #
face $-1 $153 $154 $50 $-1 $155 forward single #
loop $-1 $156 $157 $63 #
cone-surface $-1 62.355755604437448 17.469423660209827 6.9069740302524014 -0.82903758062907751 0 -0.55919289150049634 0.27959644575024817 0 -0.41451879031453875 1 I I 0 1 0.5 forward I I I I #
face $-1 $158 $159 $51 $-1 $160 forward single #
loop $-1 $161 $162 $64 #
cone-surface $-1 62.355755604437448 23.891453436742438 6.9069740302524014 -0.82903758062907751 0 -0.55919289150049634 0.27959644575024817 0 -0.41451879031453875 1 I I 0 1 0.5 forward I I I I #
face $-1 $163 $164 $39 $-1 $165 reversed single #
loop $-1 $-1 $166 $65 #
plane-surface $-1 0 0 -9.4997920309465229 0 0 1 1 0 0 forward_v I I I I #
coedge $-1 $167 $168 $169 $170 forward $66 $-1 #
face $-1 $171 $172 $40 $-1 $173 forward single #
loop $-1 $-1 $174 $68 #
plane-surface $-1 -64.457533494064151 0 0 1 0 0 0 0 -1 forward_v I I I I #
coedge $-1 $175 $176 $177 $178 forward $69 $-1 #
face $-1 $179 $180 $41 $-1 $181 forward single #
loop $-1 $-1 $182 $71 #
plane-surface $-1 64.457533494064151 0 0 -1 0 0 0 0 1 forward_v I I I I #
coedge $-1 $183 $184 $185 $186 forward $72 $-1 #
face $-1 $187 $188 $42 $-1 $189 reversed single #
loop $-1 $-1 $190 $74 #
plane-surface $-1 -64.45753349406418 29.668711710694964 1.9917725694367618 -0.6018150307709319 0 0.79863550430605224 0.79863550430605224 0 0.6018150307709319 forward_v I I I I #
coedge $-1 $191 $192 $193 $194 reversed $75 $-1 #
face $-1 $-1 $195 $43 $-1 $196 forward single #
loop $-1 $197 $198 $77 #
cone-surface $-1 -58.563966682033289 27.28211644008789 4.535746047081668 0.6018150307709319 0 -0.79863550430605224 0.19965887607651306 0 0.15045375769273298 1 I I -0.70710678118654746 0.70710678118654746 0.25 forward I I I I #
loop $-1 $-1 $199 $56 #
coedge $-1 $124 $124 $200 $201 reversed $78 $-1 #
face $-1 $-1 $202 $44 $-1 $203 forward single #
loop $-1 $204 $205 $80 #
cone-surface $-1 -58.563966682033289 29.668711710694964 4.535746047081668 0.6018150307709319 0 -0.79863550430605224 0.19965887607651306 0 0.15045375769273298 1 I I -0.70710678118654746 0.70710678118654746 0.25 forward I I I I #
loop $-1 $-1 $206 $57 #
coedge $-1 $129 $129 $207 $208 reversed $81 $-1 #
face $-1 $-1 $209 $45 $-1 $210 forward single #
loop $-1 $211 $212 $83 #
cone-surface $-1 -58.563966682033289 32.055306981302039 4.535746047081668 0.6018150307709319 0 -0.79863550430605224 0.19965887607651306 0 0.15045375769273298 1 I I -0.70710678118654746 0.70710678118654746 0.25 forward I I I I #
loop $-1 $-1 $213 $58 #
coedge $-1 $134 $134 $214 $215 reversed $84 $-1 #
face $-1 $216 $217 $46 $-1 $218 reversed single #
loop $-1 $-1 $219 $86 #
plane-surface $-1 -7.6308555730075085 -20.680438548476133 112.06304964700577 0.82903758062907751 0 0.55919289150049634 0.55919289150049634 0 -0.82903758062907751 forward_v I I I I #
coedge $-1 $220 $221 $222 $223 reversed $87 $-1 #
face $-1 $-1 $224 $47 $-1 $225 forward single #
loop $-1 $226 $227 $89 #
cone-surface $-1 61.501018541935636 -23.891453436742438 6.3304466198901963 -0.82903758062907751 0 -0.55919289150049634 0.13979822287512408 0 -0.20725939515726938 1 I I -0.70710678118654746 0.70710678118654746 0.25 forward I I I I #
loop $-1 $-1 $228 $60 #
coedge $-1 $143 $143 $229 $230 reversed $90 $-1 #
face $-1 $-1 $231 $48 $-1 $232 forward single #
loop $-1 $233 $234 $92 #
cone-surface $-1 61.501018541935636 -17.469423660209824 6.3304466198901963 -0.82903758062907751 0 -0.55919289150049634 0.13979822287512408 0 -0.20725939515726938 1 I I -0.70710678118654746 0.70710678118654746 0.25 forward I I I I #
loop $-1 $-1 $235 $61 #
coedge $-1 $148 $148 $236 $237 reversed $93 $-1 #
face $-1 $238 $239 $49 $-1 $240 reversed single #
loop $-1 $-1 $241 $95 #
plane-surface $-1 -7.6308555730075085 20.680438548476133 112.06304964700577 0.82903758062907751 0 0.55919289150049634 0.55919289150049634 0 -0.82903758062907751 forward_v I I I I #
coedge $-1 $242 $243 $244 $245 reversed $96 $-1 #
face $-1 $-1 $246 $50 $-1 $247 forward single #
loop $-1 $248 $249 $98 #
cone-surface $-1 61.501018541935636 17.469423660209827 6.3304466198901963 -0.82903758062907751 0 -0.55919289150049634 0.13979822287512408 0 -0.20725939515726938 1 I I -0.70710678118654746 0.70710678118654746 0.25 forward I I I I #
loop $-1 $-1 $250 $63 #
coedge $-1 $157 $157 $251 $252 reversed $99 $-1 #
face $-1 $-1 $253 $51 $-1 $254 forward single #
loop $-1 $255 $256 $101 #
cone-surface $-1 61.501018541935636 23.891453436742438 6.3304466198901963 -0.82903758062907751 0 -0.55919289150049634 0.13979822287512408 0 -0.20725939515726938 1 I I -0.70710678118654746 0.70710678118654746 0.25 forward I I I I #
loop $-1 $-1 $257 $64 #
coedge $-1 $162 $162 $258 $259 reversed $102 $-1 #
face $-1 $260 $261 $39 $-1 $262 reversed single #
loop $-1 $-1 $263 $104 #
plane-surface $-1 0 -42.638716437184911 0 0 1 0 0 0 1 forward_v I I I I #
coedge $-1 $264 $265 $266 $267 forward $105 $-1 #
coedge $-1 $268 $107 $269 $270 forward $66 $-1 #
coedge $-1 $107 $268 $271 $272 forward $66 $-1 #
coedge $-1 $273 $274 $107 $170 reversed $275 $-1 #
edge $-1 $276 -42.638716437184911 $277 42.638716437184911 $169 $278 forward 7 unknown #
face $-1 $279 $280 $40 $-1 $281 reversed single #
loop $-1 $-1 $282 $108 #
plane-surface $-1 0 -47.134889408257315 5.2340132408041526 0 0 1 1 0 0 forward_v I I I I #
coedge $-1 $283 $284 $176 $285 forward $109 $-1 #
coedge $-1 $286 $111 $287 $288 reversed $69 $-1 #
coedge $-1 $111 $286 $174 $285 reversed $69 $-1 #
coedge $-1 $289 $282 $111 $178 reversed $172 $-1 #
edge $-1 $290 -64.457533494064151 $291 64.457533494064151 $177 $292 forward 7 unknown #
face $-1 $293 $294 $41 $-1 $295 reversed single #
loop $-1 $-1 $296 $112 #
plane-surface $-1 0 47.134889408257322 5.2340132408041526 0 0 1 1 0 0 forward_v I I I I #
coedge $-1 $297 $298 $184 $299 forward $113 $-1 #
coedge $-1 $300 $115 $301 $302 reversed $72 $-1 #
coedge $-1 $115 $300 $182 $299 reversed $72 $-1 #
coedge $-1 $296 $303 $115 $186 reversed $180 $-1 #
edge $-1 $304 -64.457533494064151 $305 64.457533494064151 $185 $306 forward 7 unknown #
face $-1 $307 $308 $42 $-1 $309 reversed single #
loop $-1 $-1 $310 $116 #
plane-surface $-1 -142.04055850036136 33.646370495040095 104.94792210614912 0 -1 0 0.6018150307709319 0 -0.79863550430605224 forward_v I I I I #
coedge $-1 $311 $312 $313 $314 reversed $117 $-1 #
coedge $-1 $192 $119 $315 $316 reversed $75 $-1 #
coedge $-1 $119 $191 $311 $317 reversed $75 $-1 #
coedge $-1 $313 $318 $119 $194 forward $319 $-1 #
edge $-1 $320 6.5627457561165272 $321 16.526223905376646 $193 $322 forward 7 unknown #
loop $-1 $-1 $200 $120 #
plane-surface $-1 -64.45753349406418 29.668711710694964 1.9917725694367618 -0.6018150307709319 0 0.79863550430605224 0.79863550430605224 0 0.6018150307709319 forward_v I I I I #
loop $-1 $-1 $323 $77 #
coedge $-1 $198 $198 $199 $324 reversed $121 $-1 #
coedge $-1 $199 $199 $198 $324 forward $123 $-1 #
coedge $-1 $200 $200 $124 $201 forward $195 $-1 #
edge $-1 $325 0 $325 6.2831853071796004 $200 $326 forward 7 unknown #
loop $-1 $-1 $207 $125 #
plane-surface $-1 -64.45753349406418 29.668711710694964 1.9917725694367618 -0.6018150307709319 0 0.79863550430605224 0.79863550430605224 0 0.6018150307709319 forward_v I I I I #
loop $-1 $-1 $327 $80 #
coedge $-1 $205 $205 $206 $328 reversed $126 $-1 #
coedge $-1 $206 $206 $205 $328 forward $128 $-1 #
coedge $-1 $207 $207 $129 $208 forward $202 $-1 #
edge $-1 $329 0 $329 6.2831853071796004 $207 $330 forward 7 unknown #
loop $-1 $-1 $214 $130 #
plane-surface $-1 -64.45753349406418 29.668711710694964 1.9917725694367618 -0.6018150307709319 0 0.79863550430605224 0.79863550430605224 0 0.6018150307709319 forward_v I I I I #
loop $-1 $-1 $331 $83 #
coedge $-1 $212 $212 $213 $332 reversed $131 $-1 #
coedge $-1 $213 $213 $212 $332 forward $133 $-1 #
coedge $-1 $214 $214 $134 $215 forward $209 $-1 #
edge $-1 $333 0 $333 6.2831853071796004 $214 $334 forward 7 unknown #
face $-1 $335 $336 $46 $-1 $337 forward single #
loop $-1 $-1 $338 $135 #
plane-surface $-1 99.244579669465836 -28.172806621097514 184.15143871407741 0 1 0 0.82903758062907751 0 0.55919289150049634 forward_v I I I I #
coedge $-1 $339 $340 $341 $342 reversed $136 $-1 #
coedge $-1 $221 $138 $343 $344 reversed $87 $-1 #
coedge $-1 $138 $220 $339 $345 reversed $87 $-1 #
coedge $-1 $341 $346 $138 $223 forward $336 $-1 #
edge $-1 $347 -14.835243659331233 $348 -11.926643214766919 $222 $349 forward 7 unknown #
loop $-1 $-1 $229 $139 #
plane-surface $-1 -7.6308555730075085 -20.680438548476133 112.06304964700577 0.82903758062907751 0 0.55919289150049634 0.55919289150049634 0 -0.82903758062907751 forward_v I I I I #
loop $-1 $-1 $350 $89 #
coedge $-1 $227 $227 $228 $351 reversed $140 $-1 #
coedge $-1 $228 $228 $227 $351 forward $142 $-1 #
coedge $-1 $229 $229 $143 $230 forward $224 $-1 #
edge $-1 $352 0 $352 6.2831853071796004 $229 $353 forward 7 unknown #
loop $-1 $-1 $236 $144 #
plane-surface $-1 -7.6308555730075085 -20.680438548476133 112.06304964700577 0.82903758062907751 0 0.55919289150049634 0.55919289150049634 0 -0.82903758062907751 forward_v I I I I #
loop $-1 $-1 $354 $92 #
coedge $-1 $234 $234 $235 $355 reversed $145 $-1 #
coedge $-1 $235 $235 $234 $355 forward $147 $-1 #
coedge $-1 $236 $236 $148 $237 forward $231 $-1 #
edge $-1 $356 0 $356 6.2831853071796004 $236 $357 forward 7 unknown #
face $-1 $358 $359 $49 $-1 $360 reversed single #
loop $-1 $-1 $361 $149 #
plane-surface $-1 99.244579669465836 13.188070475854749 184.15143871407741 0 1 0 0.82903758062907751 0 0.55919289150049634 forward_v I I I I #
coedge $-1 $362 $363 $364 $365 reversed $150 $-1 #
coedge $-1 $243 $152 $366 $367 reversed $96 $-1 #
coedge $-1 $152 $242 $362 $368 reversed $96 $-1 #
coedge $-1 $364 $369 $152 $245 forward $370 $-1 #
edge $-1 $371 -14.835243659331233 $372 -11.926643214766919 $244 $373 forward 7 unknown #
loop $-1 $-1 $251 $153 #
plane-surface $-1 -7.6308555730075085 20.680438548476133 112.06304964700577 0.82903758062907751 0 0.55919289150049634 0.55919289150049634 0 -0.82903758062907751 forward_v I I I I #
loop $-1 $-1 $374 $98 #
coedge $-1 $249 $249 $250 $375 reversed $154 $-1 #
coedge $-1 $250 $250 $249 $375 forward $156 $-1 #
coedge $-1 $251 $251 $157 $252 forward $246 $-1 #
edge $-1 $376 0 $376 6.2831853071796004 $251 $377 forward 7 unknown #
loop $-1 $-1 $258 $158 #
plane-surface $-1 -7.6308555730075085 20.680438548476133 112.06304964700577 0.82903758062907751 0 0.55919289150049634 0.55919289150049634 0 -0.82903758062907751 forward_v I I I I #
loop $-1 $-1 $378 $101 #
coedge $-1 $256 $256 $257 $379 reversed $159 $-1 #
coedge $-1 $257 $257 $256 $379 forward $161 $-1 #
coedge $-1 $258 $258 $162 $259 forward $253 $-1 #
edge $-1 $380 0 $380 6.2831853071796004 $258 $381 forward 7 unknown #
face $-1 $382 $383 $39 $-1 $384 reversed single #
loop $-1 $-1 $385 $163 #
plane-surface $-1 -64.457533494064151 0 0 1 0 0 0 0 -1 forward_v I I I I #
coedge $-1 $386 $271 $387 $388 forward $164 $-1 #
coedge $-1 $389 $166 $386 $390 forward $105 $-1 #
coedge $-1 $166 $389 $391 $392 forward $105 $-1 #
coedge $-1 $274 $273 $166 $267 reversed $275 $-1 #
edge $-1 $393 -42.638716437184911 $394 42.638716437184911 $266 $395 forward 7 unknown #
coedge $-1 $168 $167 $396 $397 forward $66 $-1 #
coedge $-1 $398 $399 $167 $270 reversed $383 $-1 #
edge $-1 $277 -64.457533494064151 $400 64.457533494064151 $269 $401 forward 7 unknown #
coedge $-1 $263 $402 $168 $272 reversed $164 $-1 #
edge $-1 $403 -64.457533494064151 $276 64.457533494064151 $271 $404 forward 7 unknown #
coedge $-1 $266 $169 $402 $405 forward $275 $-1 #
coedge $-1 $169 $266 $398 $406 reversed $275 $-1 #
loop $-1 $-1 $273 $382 #
vertex $-1 $170 $407 #
vertex $-1 $170 $408 #
straight-curve $-1 64.457533494064151 0 9.4997920309465229 0 1 0 I I #
face $-1 $409 $410 $40 $-1 $411 reversed single #
loop $-1 $-1 $412 $171 #
plane-surface $-1 0 -47.134889408257315 2.0444929292329057 0 0 1 1 0 0 forward_v I I I I #
coedge $-1 $177 $413 $414 $415 forward $172 $-1 #
coedge $-1 $416 $174 $417 $418 reversed $109 $-1 #
coedge $-1 $174 $416 $289 $419 reversed $109 $-1 #
edge $-1 $290 -5.2340132408041526 $420 -2.0444929292329057 $174 $421 forward 7 unknown #
coedge $-1 $176 $175 $422 $423 forward $69 $-1 #
coedge $-1 $414 $424 $175 $288 forward $425 $-1 #
edge $-1 $426 2.0444929292329057 $291 5.2340132408041526 $287 $427 forward 7 unknown #
coedge $-1 $413 $177 $284 $419 forward $172 $-1 #
vertex $-1 $285 $428 #
vertex $-1 $415 $429 #
straight-curve $-1 0 -42.638716437184911 5.2340132408041526 1 0 0 I I #
face $-1 $430 $431 $41 $-1 $432 reversed single #
loop $-1 $-1 $433 $179 #
plane-surface $-1 0 47.134889408257322 2.0444929292329057 0 0 1 1 0 0 forward_v I I I I #
coedge $-1 $434 $185 $298 $435 forward $180 $-1 #
coedge $-1 $436 $182 $433 $437 reversed $113 $-1 #
coedge $-1 $182 $436 $296 $435 reversed $113 $-1 #
edge $-1 $304 -5.2340132408041526 $438 -2.0444929292329057 $182 $439 forward 7 unknown #
coedge $-1 $184 $183 $440 $441 forward $72 $-1 #
coedge $-1 $442 $443 $183 $302 forward $444 $-1 #
edge $-1 $445 2.0444929292329057 $305 5.2340132408041526 $301 $446 forward 7 unknown #
coedge $-1 $185 $434 $442 $447 forward $180 $-1 #
vertex $-1 $299 $448 #
vertex $-1 $447 $449 #
straight-curve $-1 0 42.638716437184911 5.2340132408041526 -1 0 0 I I #
face $-1 $-1 $319 $42 $-1 $450 forward single #
loop $-1 $-1 $451 $187 #
plane-surface $-1 -64.457533494064151 0 0 1 0 0 0 0 -1 forward_v I I I I #
coedge $-1 $452 $453 $454 $455 reversed $188 $-1 #
coedge $-1 $456 $190 $192 $317 forward $117 $-1 #
coedge $-1 $190 $456 $452 $457 forward $117 $-1 #
coedge $-1 $454 $193 $190 $314 forward $319 $-1 #
edge $-1 $321 10.856697071002351 $458 18.812014639692613 $313 $459 forward 7 unknown #
coedge $-1 $460 $461 $191 $316 forward $308 $-1 #
edge $-1 $462 -50.482188483637778 $320 -42.974169022128038 $315 $463 forward 7 unknown #
edge $-1 $321 -12.475626359633964 $462 -3.5527045195756588e-014 $192 $464 forward 7 unknown #
coedge $-1 $193 $454 $460 $465 forward $319 $-1 #
loop $-1 $-1 $454 $307 #
vertex $-1 $316 $466 #
vertex $-1 $194 $467 #
straight-curve $-1 -71.020279250180678 25.691052926349833 9.4997920309465229 1 0 0 I I #
coedge $-1 $323 $323 $-1 $468 reversed $197 $-1 #
edge $-1 $469 0 $469 6.2831853071796004 $198 $470 forward 7 unknown #
vertex $-1 $201 $471 #
ellipse-curve $-1 -59.475794419434088 27.28211644008789 5.7457823001916575 -0.6018150307709319 0 0.79863550430605224 0.39931775215302612 0 0.30090751538546595 1 I I #
coedge $-1 $327 $327 $-1 $472 reversed $204 $-1 #
edge $-1 $473 0 $473 6.2831853071796004 $205 $474 forward 7 unknown #
vertex $-1 $208 $475 #
ellipse-curve $-1 -59.475794419434088 29.668711710694964 5.7457823001916575 -0.6018150307709319 0 0.79863550430605224 0.39931775215302612 0 0.30090751538546595 1 I I #
coedge $-1 $331 $331 $-1 $476 reversed $211 $-1 #
edge $-1 $477 0 $477 6.2831853071796004 $212 $478 forward 7 unknown #
vertex $-1 $215 $479 #
ellipse-curve $-1 -59.475794419434088 32.055306981302039 5.7457823001916575 -0.6018150307709319 0 0.79863550430605224 0.39931775215302612 0 0.30090751538546595 1 I I #
face $-1 $-1 $480 $46 $-1 $481 reversed single #
loop $-1 $-1 $222 $216 #
plane-surface $-1 0 0 9.4997920309465229 0 0 1 1 0 0 forward_v I I I I #
coedge $-1 $482 $483 $484 $485 reversed $217 $-1 #
coedge $-1 $486 $219 $221 $345 forward $136 $-1 #
coedge $-1 $219 $486 $482 $487 forward $136 $-1 #
coedge $-1 $484 $222 $219 $342 forward $336 $-1 #
edge $-1 $348 2.8478512016166828 $488 17.832587346859448 $341 $489 forward 7 unknown #
coedge $-1 $490 $491 $220 $344 forward $480 $-1 #
edge $-1 $492 -86.88810495250631 $347 -82.575927326092184 $343 $493 forward 7 unknown #
edge $-1 $348 123.71364098866759 $492 128.91506698812833 $221 $494 forward 7 unknown #
coedge $-1 $222 $484 $490 $495 forward $336 $-1 #
vertex $-1 $344 $496 #
vertex $-1 $223 $497 #
straight-curve $-1 49.622289834732918 -13.188070475854749 9.4997920309465229 -1 0 0 I I #
coedge $-1 $350 $350 $-1 $498 reversed $226 $-1 #
edge $-1 $499 0 $499 6.2831853071796004 $227 $500 forward 7 unknown #
vertex $-1 $230 $501 #
ellipse-curve $-1 63.003233271781987 -23.891453436742438 7.3437032177394785 0.82903758062907751 0 0.55919289150049634 0.27959644575024817 0 -0.41451879031453875 1 I I #
coedge $-1 $354 $354 $-1 $502 reversed $233 $-1 #
edge $-1 $503 0 $503 6.2831853071796004 $234 $504 forward 7 unknown #
vertex $-1 $237 $505 #
ellipse-curve $-1 63.003233271781987 -17.469423660209824 7.3437032177394785 0.82903758062907751 0 0.55919289150049634 0.27959644575024817 0 -0.41451879031453875 1 I I #
face $-1 $-1 $370 $49 $-1 $506 forward single #
loop $-1 $-1 $507 $238 #
plane-surface $-1 64.457533494064151 0 0 -1 0 0 0 0 1 forward_v I I I I #
coedge $-1 $508 $509 $510 $511 reversed $239 $-1 #
coedge $-1 $512 $241 $243 $368 forward $150 $-1 #
coedge $-1 $241 $512 $508 $513 forward $150 $-1 #
coedge $-1 $510 $244 $241 $365 forward $370 $-1 #
edge $-1 $372 -17.832587346859448 $514 -2.8478512016166828 $364 $515 forward 7 unknown #
coedge $-1 $516 $517 $242 $367 forward $359 $-1 #
edge $-1 $518 -86.88810495250631 $371 -82.575927326092184 $366 $519 forward 7 unknown #
edge $-1 $372 123.71364098866759 $518 128.91506698812833 $243 $520 forward 7 unknown #
coedge $-1 $244 $510 $516 $521 forward $370 $-1 #
loop $-1 $-1 $510 $358 #
vertex $-1 $367 $522 #
vertex $-1 $245 $523 #
straight-curve $-1 49.622289834732918 28.172806621097514 9.4997920309465229 -1 0 0 I I #
coedge $-1 $374 $374 $-1 $524 reversed $248 $-1 #
edge $-1 $525 0 $525 6.2831853071796004 $249 $526 forward 7 unknown #
vertex $-1 $252 $527 #
ellipse-curve $-1 63.003233271781987 17.469423660209827 7.3437032177394785 0.82903758062907751 0 0.55919289150049634 0.27959644575024817 0 -0.41451879031453875 1 I I #
coedge $-1 $378 $378 $-1 $528 reversed $255 $-1 #
edge $-1 $529 0 $529 6.2831853071796004 $256 $530 forward 7 unknown #
vertex $-1 $259 $531 #
ellipse-curve $-1 63.003233271781987 23.891453436742438 7.3437032177394785 0.82903758062907751 0 0.55919289150049634 0.27959644575024817 0 -0.41451879031453875 1 I I #
face $-1 $-1 $275 $39 $-1 $532 reversed single #
loop $-1 $-1 $398 $260 #
plane-surface $-1 0 42.638716437184911 0 0 -1 0 0 0 -1 forward_v I I I I #
coedge $-1 $533 $396 $399 $534 forward $261 $-1 #
coedge $-1 $402 $263 $264 $390 reversed $164 $-1 #
coedge $-1 $396 $533 $263 $388 reversed $261 $-1 #
edge $-1 $403 -9.4997920309465229 $535 9.4997920309465229 $387 $536 forward 7 unknown #
coedge $-1 $265 $264 $533 $537 forward $105 $-1 #
edge $-1 $394 -64.457533494064151 $535 64.457533494064151 $386 $538 forward 7 unknown #
coedge $-1 $399 $398 $265 $392 reversed $383 $-1 #
edge $-1 $539 -64.457533494064151 $393 64.457533494064151 $391 $540 forward 7 unknown #
vertex $-1 $267 $541 #
vertex $-1 $405 $542 #
straight-curve $-1 64.457533494064151 0 -9.4997920309465229 0 -1 0 I I #
coedge $-1 $385 $387 $268 $397 reversed $261 $-1 #
edge $-1 $400 -42.638716437184911 $403 42.638716437184911 $396 $543 forward 7 unknown #
coedge $-1 $391 $269 $274 $406 forward $383 $-1 #
coedge $-1 $269 $391 $385 $534 reversed $383 $-1 #
vertex $-1 $270 $544 #
straight-curve $-1 0 42.638716437184911 9.4997920309465229 -1 0 0 I I #
coedge $-1 $271 $386 $273 $405 reversed $164 $-1 #
vertex $-1 $397 $545 #
straight-curve $-1 0 -42.638716437184911 9.4997920309465229 1 0 0 I I #
edge $-1 $276 -9.4997920309465229 $394 9.4997920309465229 $273 $546 forward 7 unknown #
edge $-1 $277 -9.4997920309465229 $393 9.4997920309465229 $274 $547 forward 7 unknown #
point $-1 64.457533494064151 -42.638716437184911 9.4997920309465229 #
point $-1 64.457533494064151 42.638716437184911 9.4997920309465229 #
face $-1 $-1 $425 $40 $-1 $548 reversed single #
loop $-1 $-1 $549 $279 #
plane-surface $-1 0 -51.63106237932972 3.6392530850185292 0 1 0 0 0 1 forward_v I I I I #
coedge $-1 $550 $422 $424 $551 forward $280 $-1 #
coedge $-1 $282 $289 $552 $553 forward $172 $-1 #
coedge $-1 $554 $287 $282 $415 reversed $425 $-1 #
edge $-1 $555 -4.4961729710724043 $291 4.4961729710724043 $414 $556 forward 7 unknown #
coedge $-1 $284 $283 $549 $557 reversed $109 $-1 #
coedge $-1 $422 $550 $283 $418 forward $280 $-1 #
edge $-1 $558 -4.4961729710724043 $420 4.4961729710724043 $283 $559 forward 7 unknown #
edge $-1 $290 -4.4961729710724043 $560 4.4961729710724043 $284 $561 forward 7 unknown #
vertex $-1 $285 $562 #
straight-curve $-1 -64.457533494064151 -42.638716437184911 0 0 0 -1 I I #
coedge $-1 $412 $417 $286 $423 reversed $280 $-1 #
edge $-1 $426 -64.457533494064151 $420 64.457533494064151 $422 $563 forward 7 unknown #
coedge $-1 $287 $554 $412 $551 reversed $425 $-1 #
loop $-1 $-1 $287 $409 #
vertex $-1 $288 $564 #
straight-curve $-1 64.457533494064151 -42.638716437184911 0 0 0 1 I I #
point $-1 -64.457533494064151 -42.638716437184911 5.2340132408041526 #
point $-1 64.457533494064151 -42.638716437184911 5.2340132408041526 #
face $-1 $-1 $444 $41 $-1 $565 reversed single #
loop $-1 $-1 $566 $293 #
plane-surface $-1 0 51.631062379329727 3.6392530850185292 0 -1 0 0 0 -1 forward_v I I I I #
coedge $-1 $440 $567 $297 $437 forward $294 $-1 #
coedge $-1 $303 $296 $568 $569 forward $180 $-1 #
edge $-1 $304 -4.4961729710724043 $570 4.4961729710724043 $298 $571 forward 7 unknown #
coedge $-1 $298 $297 $566 $572 reversed $113 $-1 #
edge $-1 $573 -4.4961729710724043 $438 4.4961729710724043 $297 $574 forward 7 unknown #
vertex $-1 $299 $575 #
straight-curve $-1 64.457533494064151 42.638716437184911 0 0 0 -1 I I #
coedge $-1 $576 $433 $300 $441 reversed $294 $-1 #
edge $-1 $445 -64.457533494064151 $438 64.457533494064151 $440 $577 forward 7 unknown #
coedge $-1 $578 $301 $303 $447 reversed $444 $-1 #
coedge $-1 $301 $578 $576 $579 reversed $444 $-1 #
loop $-1 $-1 $301 $430 #
vertex $-1 $302 $580 #
straight-curve $-1 -64.457533494064151 42.638716437184911 0 0 0 1 I I #
edge $-1 $581 -4.4961729710724043 $305 4.4961729710724043 $442 $582 forward 7 unknown #
point $-1 64.457533494064151 42.638716437184918 5.2340132408041526 #
point $-1 -64.457533494064151 42.638716437184918 5.2340132408041526 #
plane-surface $-1 0 0 9.4997920309465229 0 0 1 1 0 0 forward_v I I I I #
coedge $-1 $461 $460 $453 $583 forward $308 $-1 #
coedge $-1 $453 $310 $312 $457 reversed $188 $-1 #
coedge $-1 $310 $452 $451 $583 reversed $188 $-1 #
coedge $-1 $318 $313 $310 $455 forward $319 $-1 #
edge $-1 $458 -16.526223905376646 $584 -6.5627457561165272 $454 $585 forward 7 unknown #
coedge $-1 $312 $311 $461 $586 reversed $117 $-1 #
edge $-1 $587 3.5527045195756588e-014 $458 12.475626359633964 $452 $588 forward 7 unknown #
vertex $-1 $314 $589 #
straight-curve $-1 -54.494055344804032 14.834355855347482 9.4997920309465247 0 1 0 I I #
coedge $-1 $451 $315 $318 $465 reversed $308 $-1 #
coedge $-1 $315 $451 $456 $586 forward $308 $-1 #
vertex $-1 $316 $590 #
straight-curve $-1 -64.457533494064151 25.691052926349833 52.473961053074561 0 0 1 I I #
straight-curve $-1 -64.45753349406418 25.691052926349833 1.9917725694367618 -0.79863550430605224 0 -0.6018150307709319 I I #
edge $-1 $584 -33.646370495040095 $320 -25.691052926349833 $460 $591 forward 7 unknown #
point $-1 -64.457533494064151 25.691052926349833 9.4997920309465229 #
point $-1 -54.494055344804032 25.691052926349833 9.4997920309465229 #
edge $-1 $592 1 $592 0 $323 $-1 forward 7 unknown #
vertex $-1 $324 $593 #
ellipse-curve $-1 -58.71442043972602 27.28211644008789 4.735404923158181 -0.6018150307709319 0 0.79863550430605224 0.39931775215302612 0 0.30090751538546595 1 I I #
point $-1 -59.076476667281042 27.28211644008789 6.0466898155771025 #
edge $-1 $594 1 $594 0 $327 $-1 forward 7 unknown #
vertex $-1 $328 $595 #
ellipse-curve $-1 -58.71442043972602 29.668711710694964 4.735404923158181 -0.6018150307709319 0 0.79863550430605224 0.39931775215302612 0 0.30090751538546595 1 I I #
point $-1 -59.076476667281042 29.668711710694964 6.0466898155771025 #
edge $-1 $596 1 $596 0 $331 $-1 forward 7 unknown #
vertex $-1 $332 $597 #
ellipse-curve $-1 -58.71442043972602 32.055306981302039 4.735404923158181 -0.6018150307709319 0 0.79863550430605224 0.39931775215302612 0 0.30090751538546595 1 I I #
point $-1 -59.076476667281042 32.055306981302039 6.0466898155771025 #
loop $-1 $-1 $343 $335 #
plane-surface $-1 64.457533494064151 0 0 -1 0 0 0 0 1 forward_v I I I I #
coedge $-1 $483 $338 $340 $487 reversed $217 $-1 #
coedge $-1 $338 $482 $598 $599 reversed $217 $-1 #
coedge $-1 $346 $341 $338 $485 forward $336 $-1 #
edge $-1 $488 11.926643214766919 $600 14.835243659331233 $484 $601 forward 7 unknown #
coedge $-1 $340 $339 $491 $602 reversed $136 $-1 #
edge $-1 $603 -128.91506698812833 $488 -123.71364098866759 $482 $604 forward 7 unknown #
vertex $-1 $342 $605 #
straight-curve $-1 61.548933049499837 -10.340219274238066 9.4997920309465229 0 -1 0 I I #
coedge $-1 $598 $343 $346 $495 reversed $480 $-1 #
coedge $-1 $343 $598 $486 $602 forward $480 $-1 #
vertex $-1 $344 $606 #
straight-curve $-1 64.457533494064151 -13.188070475854749 92.075719357038707 0 0 1 I I #
straight-curve $-1 -7.6308555730075085 -13.188070475854749 112.06304964700577 0.55919289150049634 0 -0.82903758062907751 I I #
edge $-1 $600 -28.172806621097514 $347 -13.188070475854749 $490 $607 forward 7 unknown #
point $-1 64.457533494064151 -13.188070475854749 9.4997920309465229 #
point $-1 61.548933049499837 -13.188070475854749 9.4997920309465229 #
edge $-1 $608 1 $608 0 $350 $-1 forward 7 unknown #
vertex $-1 $351 $609 #
ellipse-curve $-1 61.708277937092909 -23.891453436742438 6.4702448427653207 0.82903758062907751 0 0.55919289150049634 0.27959644575024817 0 -0.41451879031453875 1 I I #
point $-1 63.282829717532245 -23.891453436742438 6.9291844274249446 #
edge $-1 $610 1 $610 0 $354 $-1 forward 7 unknown #
vertex $-1 $355 $611 #
ellipse-curve $-1 61.708277937092909 -17.469423660209824 6.4702448427653207 0.82903758062907751 0 0.55919289150049634 0.27959644575024817 0 -0.41451879031453875 1 I I #
point $-1 63.282829717532245 -17.469423660209824 6.9291844274249446 #
plane-surface $-1 0 0 9.4997920309465229 0 0 1 1 0 0 forward_v I I I I #
coedge $-1 $517 $516 $509 $612 forward $359 $-1 #
coedge $-1 $509 $361 $363 $513 reversed $239 $-1 #
coedge $-1 $361 $508 $507 $612 reversed $239 $-1 #
coedge $-1 $369 $364 $361 $511 forward $370 $-1 #
edge $-1 $514 11.926643214766919 $613 14.835243659331233 $510 $614 forward 7 unknown #
coedge $-1 $363 $362 $517 $615 reversed $150 $-1 #
edge $-1 $616 -128.91506698812833 $514 -123.71364098866759 $508 $617 forward 7 unknown #
vertex $-1 $365 $618 #
straight-curve $-1 61.548933049499837 10.340219274238066 9.4997920309465229 0 -1 0 I I #
coedge $-1 $507 $366 $369 $521 reversed $359 $-1 #
coedge $-1 $366 $507 $512 $615 forward $359 $-1 #
vertex $-1 $367 $619 #
straight-curve $-1 64.457533494064151 28.172806621097514 92.075719357038707 0 0 1 I I #
straight-curve $-1 -7.6308555730075085 28.172806621097514 112.06304964700577 0.55919289150049634 0 -0.82903758062907751 I I #
edge $-1 $613 13.188070475854749 $371 28.172806621097514 $516 $620 forward 7 unknown #
point $-1 64.457533494064151 28.172806621097514 9.4997920309465229 #
point $-1 61.548933049499837 28.172806621097514 9.4997920309465229 #
edge $-1 $621 1 $621 0 $374 $-1 forward 7 unknown #
vertex $-1 $375 $622 #
ellipse-curve $-1 61.708277937092909 17.469423660209827 6.4702448427653207 0.82903758062907751 0 0.55919289150049634 0.27959644575024817 0 -0.41451879031453875 1 I I #
point $-1 63.282829717532245 17.469423660209827 6.9291844274249446 #
edge $-1 $623 1 $623 0 $378 $-1 forward 7 unknown #
vertex $-1 $379 $624 #
ellipse-curve $-1 61.708277937092909 23.891453436742438 6.4702448427653207 0.82903758062907751 0 0.55919289150049634 0.27959644575024817 0 -0.41451879031453875 1 I I #
point $-1 63.282829717532245 23.891453436742438 6.9291844274249446 #
plane-surface $-1 64.457533494064151 0 0 -1 0 0 0 0 1 forward_v I I I I #
coedge $-1 $387 $385 $389 $537 reversed $261 $-1 #
edge $-1 $400 -9.4997920309465229 $539 9.4997920309465229 $399 $625 forward 7 unknown #
vertex $-1 $537 $626 #
straight-curve $-1 -64.457533494064151 -42.638716437184911 0 0 0 -1 I I #
edge $-1 $535 -42.638716437184911 $539 42.638716437184911 $533 $627 forward 7 unknown #
straight-curve $-1 0 -42.638716437184911 -9.4997920309465229 -1 0 0 I I #
vertex $-1 $392 $628 #
straight-curve $-1 0 42.638716437184911 -9.4997920309465229 1 0 0 I I #
point $-1 64.457533494064151 42.638716437184911 -9.4997920309465229 #
point $-1 64.457533494064151 -42.638716437184911 -9.4997920309465229 #
straight-curve $-1 -64.457533494064151 0 9.4997920309465229 0 -1 0 I I #
point $-1 -64.457533494064151 42.638716437184911 9.4997920309465229 #
point $-1 -64.457533494064151 -42.638716437184911 9.4997920309465229 #
straight-curve $-1 64.457533494064151 -42.638716437184911 0 0 0 -1 I I #
straight-curve $-1 64.457533494064151 42.638716437184911 0 0 0 -1 I I #
plane-surface $-1 64.457533494064151 0 0 -1 0 0 0 0 1 forward_v I I I I #
coedge $-1 $629 $552 $416 $557 forward $410 $-1 #
coedge $-1 $417 $412 $629 $630 forward $280 $-1 #
edge $-1 $426 -4.4961729710724043 $631 4.4961729710724043 $424 $632 forward 7 unknown #
coedge $-1 $549 $633 $413 $553 reversed $410 $-1 #
edge $-1 $560 -64.457533494064151 $555 64.457533494064151 $552 $634 forward 7 unknown #
coedge $-1 $424 $414 $633 $635 forward $425 $-1 #
vertex $-1 $415 $636 #
straight-curve $-1 64.457533494064151 -47.134889408257315 5.2340132408041526 0 1 0 I I #
edge $-1 $560 -1.5947601557856235 $558 1.5947601557856235 $416 $637 forward 7 unknown #
vertex $-1 $418 $638 #
straight-curve $-1 -64.457533494064151 -47.134889408257315 2.0444929292329057 0 1 0 I I #
vertex $-1 $419 $639 #
straight-curve $-1 -64.457533494064151 -47.134889408257315 5.2340132408041526 0 -1 0 I I #
point $-1 -64.457533494064151 -42.638716437184911 2.0444929292329057 #
straight-curve $-1 0 -42.638716437184911 2.0444929292329057 -1 0 0 I I #
point $-1 64.457533494064151 -42.638716437184911 2.0444929292329057 #
plane-surface $-1 -64.457533494064151 0 0 1 0 0 0 0 -1 forward_v I I I I #
coedge $-1 $640 $568 $436 $572 forward $431 $-1 #
coedge $-1 $433 $576 $640 $641 forward $294 $-1 #
coedge $-1 $566 $642 $434 $569 reversed $431 $-1 #
edge $-1 $570 -64.457533494064151 $581 64.457533494064151 $568 $643 forward 7 unknown #
vertex $-1 $435 $644 #
straight-curve $-1 64.457533494064151 47.134889408257322 5.2340132408041526 0 1 0 I I #
edge $-1 $570 -1.5947601557856235 $573 1.5947601557856235 $436 $645 forward 7 unknown #
vertex $-1 $437 $646 #
straight-curve $-1 64.457533494064151 47.134889408257322 2.0444929292329057 0 -1 0 I I #
point $-1 64.457533494064151 42.638716437184918 2.0444929292329057 #
coedge $-1 $567 $440 $443 $579 forward $294 $-1 #
straight-curve $-1 0 42.638716437184911 2.0444929292329057 1 0 0 I I #
coedge $-1 $443 $442 $642 $647 forward $444 $-1 #
edge $-1 $445 -4.4961729710724043 $648 4.4961729710724043 $443 $649 forward 7 unknown #
point $-1 -64.457533494064151 42.638716437184918 2.0444929292329057 #
vertex $-1 $569 $650 #
straight-curve $-1 -64.457533494064151 47.134889408257322 5.2340132408041526 0 -1 0 I I #
edge $-1 $584 42.974169022128038 $587 50.482188483637778 $451 $651 forward 7 unknown #
vertex $-1 $465 $652 #
straight-curve $-1 -71.020279250180678 33.646370495040095 9.4997920309465229 -1 0 0 I I #
edge $-1 $587 -18.812014639692613 $462 -10.856697071002351 $461 $653 forward 7 unknown #
vertex $-1 $586 $654 #
straight-curve $-1 -64.45753349406418 33.646370495040095 1.9917725694367618 0.79863550430605224 0 0.6018150307709319 I I #
point $-1 -54.494055344804032 33.646370495040095 9.4997920309465229 #
point $-1 -64.457533494064151 25.691052926349833 1.9917725694367832 #
straight-curve $-1 -64.457533494064151 0 9.4997920309465229 0 -1 0 I I #
vertex $-1 $468 $655 #
point $-1 -58.315102687572995 27.28211644008789 5.0363124385436473 #
vertex $-1 $472 $656 #
point $-1 -58.315102687572995 29.668711710694964 5.0363124385436473 #
vertex $-1 $476 $657 #
point $-1 -58.315102687572995 32.055306981302039 5.0363124385436473 #
coedge $-1 $491 $490 $483 $599 forward $480 $-1 #
edge $-1 $600 82.575927326092184 $603 86.88810495250631 $598 $658 forward 7 unknown #
vertex $-1 $495 $659 #
straight-curve $-1 49.622289834732918 -28.172806621097514 9.4997920309465229 1 0 0 I I #
edge $-1 $603 -17.832587346859448 $492 -2.8478512016166828 $491 $660 forward 7 unknown #
vertex $-1 $602 $661 #
straight-curve $-1 -7.6308555730075085 -28.172806621097514 112.06304964700577 -0.55919289150049634 0 0.82903758062907751 I I #
point $-1 61.548933049499837 -28.172806621097514 9.4997920309465229 #
point $-1 64.457533494064151 -13.188070475854749 5.1876144045323969 #
straight-curve $-1 64.457533494064151 0 9.4997920309465229 0 1 0 I I #
vertex $-1 $498 $662 #
point $-1 61.987874382843152 -23.891453436742438 6.0557260524507814 #
vertex $-1 $502 $663 #
point $-1 61.987874382843152 -17.469423660209824 6.0557260524507814 #
edge $-1 $613 82.575927326092184 $616 86.88810495250631 $507 $664 forward 7 unknown #
vertex $-1 $521 $665 #
straight-curve $-1 49.622289834732918 13.188070475854749 9.4997920309465229 1 0 0 I I #
edge $-1 $616 2.8478512016166828 $518 17.832587346859448 $517 $666 forward 7 unknown #
vertex $-1 $615 $667 #
straight-curve $-1 -7.6308555730075085 13.188070475854749 112.06304964700577 -0.55919289150049634 0 0.82903758062907751 I I #
point $-1 61.548933049499837 13.188070475854749 9.4997920309465229 #
point $-1 64.457533494064151 28.172806621097514 5.1876144045323969 #
straight-curve $-1 64.457533494064151 0 9.4997920309465229 0 1 0 I I #
vertex $-1 $524 $668 #
point $-1 61.987874382843152 17.469423660209827 6.0557260524507814 #
vertex $-1 $528 $669 #
point $-1 61.987874382843152 23.891453436742438 6.0557260524507814 #
straight-curve $-1 -64.457533494064151 42.638716437184911 0 0 0 -1 I I #
point $-1 -64.457533494064151 -42.638716437184911 -9.4997920309465229 #
straight-curve $-1 -64.457533494064151 0 -9.4997920309465229 0 1 0 I I #
point $-1 -64.457533494064151 42.638716437184911 -9.4997920309465229 #
coedge $-1 $633 $549 $550 $630 reversed $410 $-1 #
edge $-1 $631 -64.457533494064151 $558 64.457533494064151 $629 $670 forward 7 unknown #
vertex $-1 $635 $671 #
straight-curve $-1 64.457533494064151 -47.134889408257315 2.0444929292329057 0 -1 0 I I #
coedge $-1 $552 $629 $554 $635 reversed $410 $-1 #
straight-curve $-1 0 -51.63106237932972 5.2340132408041526 1 0 0 I I #
edge $-1 $555 -1.5947601557856235 $631 1.5947601557856235 $554 $672 forward 7 unknown #
point $-1 64.457533494064151 -51.63106237932972 5.2340132408041526 #
straight-curve $-1 -64.457533494064151 -51.63106237932972 3.6392530850185292 0 0 -1 I I #
point $-1 -64.457533494064151 -51.63106237932972 2.0444929292329057 #
point $-1 -64.457533494064151 -51.63106237932972 5.2340132408041526 #
coedge $-1 $642 $566 $567 $641 reversed $431 $-1 #
edge $-1 $648 -64.457533494064151 $573 64.457533494064151 $640 $673 forward 7 unknown #
coedge $-1 $568 $640 $578 $647 reversed $431 $-1 #
straight-curve $-1 0 51.631062379329727 5.2340132408041526 -1 0 0 I I #
point $-1 64.457533494064151 51.631062379329727 5.2340132408041526 #
straight-curve $-1 64.457533494064151 51.631062379329727 3.6392530850185292 0 0 -1 I I #
point $-1 64.457533494064151 51.631062379329727 2.0444929292329057 #
edge $-1 $581 -1.5947601557856235 $648 1.5947601557856235 $642 $674 forward 7 unknown #
vertex $-1 $641 $675 #
straight-curve $-1 -64.457533494064151 47.134889408257322 2.0444929292329057 0 1 0 I I #
point $-1 -64.457533494064151 51.631062379329727 5.2340132408041526 #
straight-curve $-1 -64.457533494064151 33.646370495040095 52.473961053074561 0 0 -1 I I #
point $-1 -64.457533494064151 33.646370495040095 9.4997920309465229 #
straight-curve $-1 -64.457533494064151 14.834355855347482 1.9917725694367823 0 -1 0 I I #
point $-1 -64.457533494064151 33.646370495040095 1.9917725694367832 #
point $-1 -58.413512924340559 27.28211644008789 4.3360871710051549 #
point $-1 -58.413512924340559 29.668711710694964 4.3360871710051549 #
point $-1 -58.413512924340559 32.055306981302039 4.3360871710051549 #
straight-curve $-1 64.457533494064151 -28.172806621097514 92.075719357038707 0 0 -1 I I #
point $-1 64.457533494064151 -28.172806621097514 9.4997920309465229 #
straight-curve $-1 64.457533494064165 -10.340219274238066 5.187614404532404 0 1 0 I I #
point $-1 64.457533494064151 -28.172806621097514 5.1876144045323969 #
point $-1 61.293759146778363 -23.891453436742438 6.1906483970150719 #
point $-1 61.293759146778363 -17.469423660209824 6.1906483970150719 #
straight-curve $-1 64.457533494064151 13.188070475854749 92.075719357038707 0 0 -1 I I #
point $-1 64.457533494064151 13.188070475854749 9.4997920309465229 #
straight-curve $-1 64.457533494064165 10.340219274238066 5.187614404532404 0 1 0 I I #
point $-1 64.457533494064151 13.188070475854749 5.1876144045323969 #
point $-1 61.293759146778363 17.469423660209827 6.1906483970150719 #
point $-1 61.293759146778363 23.891453436742438 6.1906483970150719 #
straight-curve $-1 0 -51.63106237932972 2.0444929292329057 -1 0 0 I I #
point $-1 64.457533494064151 -51.63106237932972 2.0444929292329057 #
straight-curve $-1 64.457533494064151 -51.63106237932972 3.6392530850185292 0 0 -1 I I #
straight-curve $-1 0 51.631062379329727 2.0444929292329057 1 0 0 I I #
straight-curve $-1 -64.457533494064151 51.631062379329727 3.6392530850185292 0 0 -1 I I #
point $-1 -64.457533494064151 51.631062379329727 2.0444929292329057 #
End-of-ACIS-data 