500 0 12 0           
7 Unknown 11 ACIS 5.0 NT 24 Thu Mar 25 15:09:24 1999 
-1 9.9999999999999995e-007 1e-010 
body $-1 $12 $-1 $13 #
body $-1 $14 $-1 $15 #
body $-1 $16 $-1 $17 #
body $-1 $18 $-1 $19 #
body $-1 $20 $-1 $21 #
body $-1 $22 $-1 $23 #
body $-1 $24 $-1 $25 #
body $-1 $26 $-1 $27 #
body $-1 $28 $-1 $29 #
body $-1 $30 $-1 $31 #
body $-1 $32 $-1 $33 #
body $-1 $34 $-1 $35 #
lump $-1 $-1 $36 $0 #
transform $-1 1 0 0 0 1 0 0 0 1 49.900204474013492 29.580266172758893 8.0918507604035046 1 rotate no_reflect no_shear #
lump $-1 $-1 $37 $1 #
transform $-1 1 0 0 0 1 0 0 0 1 49.900204474013492 29.580266172758893 8.0918507604035046 1 rotate no_reflect no_shear #
lump $-1 $-1 $38 $2 #
transform $-1 1 0 0 0 1 0 0 0 1 49.900204474013492 29.580266172758893 8.0918507604035046 1 rotate no_reflect no_shear #
lump $-1 $-1 $39 $3 #
transform $-1 1 0 0 0 1 0 0 0 1 49.900204474013492 29.580266172758893 8.0918507604035046 1 rotate no_reflect no_shear #
lump $-1 $-1 $40 $4 #
transform $-1 1 0 0 0 1 0 0 0 1 49.900204474013492 29.580266172758893 8.0918507604035046 1 rotate no_reflect no_shear #
lump $-1 $-1 $41 $5 #
transform $-1 1 0 0 0 1 0 0 0 1 49.900204474013492 29.580266172758893 8.0918507604035046 1 rotate no_reflect no_shear #
lump $-1 $-1 $42 $6 #
transform $-1 1 0 0 0 1 0 0 0 1 49.900204474013492 29.580266172758893 8.0918507604035046 1 rotate no_reflect no_shear #
lump $-1 $-1 $43 $7 #
transform $-1 1 0 0 0 1 0 0 0 1 49.900204474013492 29.580266172758893 8.0918507604035046 1 rotate no_reflect no_shear #
lump $-1 $-1 $44 $8 #
transform $-1 1 0 0 0 1 0 0 0 1 49.900204474013492 29.580266172758893 8.0918507604035046 1 rotate no_reflect no_shear #
lump $-1 $-1 $45 $9 #
transform $-1 1 0 0 0 1 0 0 0 1 49.900204474013492 29.580266172758893 8.0918507604035046 1 rotate no_reflect no_shear #
lump $-1 $-1 $46 $10 #
transform $-1 1 0 0 0 1 0 0 0 1 49.900204474013492 29.580266172758893 8.0918507604035046 1 rotate no_reflect no_shear #
lump $-1 $-1 $47 $11 #
transform $-1 1 0 0 0 1 0 0 0 1 49.900204474013492 29.580266172758893 8.0918507604035046 1 rotate no_reflect no_shear #
shell $-1 $-1 $-1 $48 $-1 $12 #
shell $-1 $-1 $-1 $49 $-1 $14 #
shell $-1 $-1 $-1 $50 $-1 $16 #
shell $-1 $-1 $-1 $51 $-1 $18 #
shell $-1 $-1 $-1 $52 $-1 $20 #
shell $-1 $-1 $-1 $53 $-1 $22 #
shell $-1 $-1 $-1 $54 $-1 $24 #
shell $-1 $-1 $-1 $55 $-1 $26 #
shell $-1 $-1 $-1 $56 $-1 $28 #
shell $-1 $-1 $-1 $57 $-1 $30 #
shell $-1 $-1 $-1 $58 $-1 $32 #
shell $-1 $-1 $-1 $59 $-1 $34 #
face $-1 $60 $61 $36 $-1 $62 forward single #
face $-1 $63 $64 $37 $-1 $65 forward single #
face $-1 $66 $67 $38 $-1 $68 forward single #
face $-1 $69 $70 $39 $-1 $71 reversed single #
face $-1 $72 $73 $40 $-1 $74 forward single #
face $-1 $75 $76 $41 $-1 $77 forward single #
face $-1 $78 $79 $42 $-1 $80 reversed single #
face $-1 $81 $82 $43 $-1 $83 forward single #
face $-1 $84 $85 $44 $-1 $86 forward single #
face $-1 $87 $88 $45 $-1 $89 reversed single #
face $-1 $90 $91 $46 $-1 $92 forward single #
face $-1 $93 $94 $47 $-1 $95 forward single #
face $-1 $96 $97 $36 $-1 $98 reversed single #
loop $-1 $-1 $99 $48 #
plane-surface $-1 0 0 8.0918507604035046 0 0 1 1 0 0 forward_v I I I I #
face $-1 $100 $101 $37 $-1 $102 reversed single #
loop $-1 $-1 $103 $49 #
plane-surface $-1 0 -24.438489796545735 0.45906815533611756 0 0 1 1 0 0 forward_v I I I I #
face $-1 $104 $105 $38 $-1 $106 reversed single #
loop $-1 $-1 $107 $50 #
plane-surface $-1 0 24.438489796545735 0.45906815533611756 0 0 1 1 0 0 forward_v I I I I #
face $-1 $108 $109 $39 $-1 $110 reversed single #
loop $-1 $-1 $111 $51 #
plane-surface $-1 -132.63849405407831 1.7763568394002505e-015 60.433653717328866 0 -1 0 0.82903758062907751 0 -0.55919289150049634 forward_v I I I I #
face $-1 $112 $113 $40 $-1 $114 forward single #
loop $-1 $115 $116 $52 #
cone-surface $-1 -48.122498892601818 -6.3470599246367172 5.9482555995329891 0.82903758062907751 0 -0.55919289150049634 0.27959644575024817 0 0.41451879031453875 1 I I 0 1 0.5 forward I I I I #
face $-1 $117 $118 $41 $-1 $119 forward single #
loop $-1 $120 $121 $53 #
cone-surface $-1 -48.122498892601818 -2.5388239698546862 5.9482555995329891 0.82903758062907751 0 -0.55919289150049634 0.27959644575024817 0 0.41451879031453875 1 I I 0 1 0.5 forward I I I I #
face $-1 $122 $123 $42 $-1 $124 reversed single #
loop $-1 $-1 $125 $54 #
plane-surface $-1 -49.900204474013478 -4.4429419472457035 4.6259744647496461 -0.82903758062907751 0 0.55919289150049634 0.55919289150049634 0 0.82903758062907751 forward_v I I I I #
face $-1 $126 $127 $43 $-1 $128 forward single #
loop $-1 $129 $130 $55 #
cone-surface $-1 -48.122498892601818 2.5388239698546933 5.9482555995329891 0.82903758062907751 0 -0.55919289150049634 0.27959644575024817 0 0.41451879031453875 1 I I 0 1 0.5 forward I I I I #
face $-1 $131 $132 $44 $-1 $133 forward single #
loop $-1 $134 $135 $56 #
cone-surface $-1 -48.122498892601818 6.3470599246367279 5.9482555995329891 0.82903758062907751 0 -0.55919289150049634 0.27959644575024817 0 0.41451879031453875 1 I I 0 1 0.5 forward I I I I #
face $-1 $136 $137 $45 $-1 $138 reversed single #
loop $-1 $-1 $139 $57 #
plane-surface $-1 79.244673733014679 14.431786464563494 142.45147406384635 0 -1 0 -0.83867057594974714 0 -0.54463902268945019 forward_v I I I I #
face $-1 $140 $141 $46 $-1 $142 forward single #
loop $-1 $143 $144 $58 #
cone-surface $-1 48.2184949274126 10.0230179651406 5.9313128902239169 -0.83867057594974714 0 -0.54463902268945019 0.2723195113447251 0 -0.41933528797487357 1 I I 0 1 0.5 forward I I I I #
face $-1 $145 $146 $47 $-1 $147 forward single #
loop $-1 $148 $149 $59 #
cone-surface $-1 48.2184949274126 12.668279064794337 5.9313128902239169 -0.83867057594974714 0 -0.54463902268945019 0.2723195113447251 0 -0.41933528797487357 1 I I 0 1 0.5 forward I I I I #
face $-1 $150 $151 $36 $-1 $152 reversed single #
loop $-1 $-1 $153 $60 #
plane-surface $-1 0 0 -8.0918507604035046 0 0 1 1 0 0 forward_v I I I I #
coedge $-1 $154 $155 $156 $157 forward $61 $-1 #
face $-1 $158 $159 $37 $-1 $160 reversed single #
loop $-1 $-1 $161 $63 #
plane-surface $-1 0 -24.438489796545735 -3.4784703326038748 0 0 1 1 0 0 forward_v I I I I #
coedge $-1 $162 $163 $164 $165 reversed $64 $-1 #
face $-1 $166 $167 $38 $-1 $168 reversed single #
loop $-1 $-1 $169 $66 #
plane-surface $-1 0 24.438489796545735 -3.4784703326038748 0 0 1 1 0 0 forward_v I I I I #
coedge $-1 $170 $171 $172 $173 reversed $67 $-1 #
face $-1 $174 $175 $39 $-1 $176 reversed single #
loop $-1 $-1 $177 $69 #
plane-surface $-1 -49.900204474013478 -4.4429419472457035 4.6259744647496461 -0.82903758062907751 0 0.55919289150049634 0.55919289150049634 0 0.82903758062907751 forward_v I I I I #
coedge $-1 $178 $179 $180 $181 reversed $70 $-1 #
face $-1 $-1 $182 $40 $-1 $183 forward single #
loop $-1 $184 $185 $72 #
cone-surface $-1 -47.306415419498059 -6.3470599246367172 5.3978003636142748 0.82903758062907751 0 -0.55919289150049634 0.13979822287512408 0 0.20725939515726938 1 I I -0.70710678118654746 0.70710678118654746 0.25 forward I I I I #
loop $-1 $-1 $186 $52 #
coedge $-1 $116 $116 $187 $188 reversed $73 $-1 #
face $-1 $-1 $189 $41 $-1 $190 forward single #
loop $-1 $191 $192 $75 #
cone-surface $-1 -47.306415419498059 -2.5388239698546862 5.3978003636142748 0.82903758062907751 0 -0.55919289150049634 0.13979822287512408 0 0.20725939515726938 1 I I -0.70710678118654746 0.70710678118654746 0.25 forward I I I I #
loop $-1 $-1 $193 $53 #
coedge $-1 $121 $121 $194 $195 reversed $76 $-1 #
face $-1 $196 $197 $42 $-1 $198 reversed single #
loop $-1 $-1 $199 $78 #
plane-surface $-1 -132.63849405407831 8.8858838944914087 60.433653717328866 0 -1 0 0.82903758062907751 0 -0.55919289150049634 forward_v I I I I #
coedge $-1 $200 $201 $202 $203 reversed $79 $-1 #
face $-1 $-1 $204 $43 $-1 $205 forward single #
loop $-1 $206 $207 $81 #
cone-surface $-1 -47.306415419498059 2.5388239698546933 5.3978003636142748 0.82903758062907751 0 -0.55919289150049634 0.13979822287512408 0 0.20725939515726938 1 I I -0.70710678118654746 0.70710678118654746 0.25 forward I I I I #
loop $-1 $-1 $208 $55 #
coedge $-1 $130 $130 $209 $210 reversed $82 $-1 #
face $-1 $-1 $211 $44 $-1 $212 forward single #
loop $-1 $213 $214 $84 #
cone-surface $-1 -47.306415419498059 6.3470599246367279 5.3978003636142748 0.82903758062907751 0 -0.55919289150049634 0.13979822287512408 0 0.20725939515726938 1 I I -0.70710678118654746 0.70710678118654746 0.25 forward I I I I #
loop $-1 $-1 $215 $56 #
coedge $-1 $135 $135 $216 $217 reversed $85 $-1 #
face $-1 $218 $219 $45 $-1 $220 reversed single #
loop $-1 $-1 $221 $87 #
plane-surface $-1 -4.4549927194474037 11.345648514967468 88.096276870385481 0.83867057594974714 0 0.54463902268945019 0.54463902268945019 0 -0.83867057594974714 forward_v I I I I #
coedge $-1 $222 $223 $224 $225 reversed $88 $-1 #
face $-1 $-1 $226 $46 $-1 $227 forward single #
loop $-1 $228 $229 $90 #
cone-surface $-1 47.52697626676725 10.0230179651406 5.482235435612024 -0.83867057594974714 0 -0.54463902268945019 0.13615975567236255 0 -0.20966764398743679 1 I I -0.70710678118654746 0.70710678118654746 0.25 forward I I I I #
loop $-1 $-1 $230 $58 #
coedge $-1 $144 $144 $231 $232 reversed $91 $-1 #
face $-1 $-1 $233 $47 $-1 $234 forward single #
loop $-1 $235 $236 $93 #
cone-surface $-1 47.52697626676725 12.668279064794337 5.482235435612024 -0.83867057594974714 0 -0.54463902268945019 0.13615975567236255 0 -0.20966764398743679 1 I I -0.70710678118654746 0.70710678118654746 0.25 forward I I I I #
loop $-1 $-1 $237 $59 #
coedge $-1 $149 $149 $238 $239 reversed $94 $-1 #
face $-1 $240 $241 $36 $-1 $242 reversed single #
loop $-1 $-1 $243 $96 #
plane-surface $-1 0 -29.580266172758893 0 0 1 0 0 0 1 forward_v I I I I #
coedge $-1 $244 $245 $246 $247 forward $97 $-1 #
coedge $-1 $248 $99 $249 $250 forward $61 $-1 #
coedge $-1 $99 $248 $251 $252 forward $61 $-1 #
coedge $-1 $253 $254 $99 $157 reversed $255 $-1 #
edge $-1 $256 -29.580266172758893 $257 29.580266172758893 $156 $258 forward 7 unknown #
face $-1 $259 $260 $37 $-1 $261 reversed single #
loop $-1 $-1 $262 $100 #
plane-surface $-1 0 -19.296713420332576 -1.5097010886338786 0 -1 0 0 0 -1 forward_v I I I I #
coedge $-1 $263 $264 $265 $266 reversed $101 $-1 #
coedge $-1 $267 $103 $268 $269 forward $64 $-1 #
coedge $-1 $103 $267 $270 $271 reversed $64 $-1 #
coedge $-1 $272 $273 $103 $165 forward $274 $-1 #
edge $-1 $275 7.0774685220597089 $276 17.361021274486028 $164 $277 forward 7 unknown #
face $-1 $278 $279 $38 $-1 $280 reversed single #
loop $-1 $-1 $281 $104 #
plane-surface $-1 0 19.296713420332576 -1.5097010886338786 0 1 0 0 0 1 forward_v I I I I #
coedge $-1 $282 $283 $284 $285 reversed $105 $-1 #
coedge $-1 $286 $107 $287 $288 reversed $67 $-1 #
coedge $-1 $107 $286 $289 $290 forward $67 $-1 #
coedge $-1 $291 $292 $107 $173 forward $279 $-1 #
edge $-1 $293 -17.361021274486028 $294 -7.0774685220597089 $172 $295 forward 7 unknown #
face $-1 $296 $297 $39 $-1 $298 reversed single #
loop $-1 $-1 $299 $108 #
plane-surface $-1 -132.63849405407831 -8.8858838944914087 60.433653717328866 0 1 0 -0.82903758062907751 0 0.55919289150049634 forward_v I I I I #
coedge $-1 $300 $301 $302 $303 reversed $109 $-1 #
coedge $-1 $179 $111 $304 $305 reversed $70 $-1 #
coedge $-1 $111 $178 $300 $306 reversed $70 $-1 #
coedge $-1 $302 $307 $111 $181 forward $297 $-1 #
edge $-1 $308 22.12497609826093 $309 25.590852393914808 $180 $310 forward 7 unknown #
loop $-1 $-1 $187 $112 #
plane-surface $-1 -49.900204474013478 -4.4429419472457035 4.6259744647496461 -0.82903758062907751 0 0.55919289150049634 0.55919289150049634 0 0.82903758062907751 forward_v I I I I #
loop $-1 $-1 $311 $72 #
coedge $-1 $185 $185 $186 $312 reversed $113 $-1 #
coedge $-1 $186 $186 $185 $312 forward $115 $-1 #
coedge $-1 $187 $187 $116 $188 forward $182 $-1 #
edge $-1 $313 0 $313 6.2831853071796004 $187 $314 forward 7 unknown #
loop $-1 $-1 $194 $117 #
plane-surface $-1 -49.900204474013478 -4.4429419472457035 4.6259744647496461 -0.82903758062907751 0 0.55919289150049634 0.55919289150049634 0 0.82903758062907751 forward_v I I I I #
loop $-1 $-1 $315 $75 #
coedge $-1 $192 $192 $193 $316 reversed $118 $-1 #
coedge $-1 $193 $193 $192 $316 forward $120 $-1 #
coedge $-1 $194 $194 $121 $195 forward $189 $-1 #
edge $-1 $317 0 $317 6.2831853071796004 $194 $318 forward 7 unknown #
face $-1 $319 $320 $42 $-1 $321 forward single #
loop $-1 $-1 $322 $122 #
plane-surface $-1 -49.900204474013492 0 0 1 0 0 0 0 -1 forward_v I I I I #
coedge $-1 $323 $324 $325 $326 reversed $123 $-1 #
coedge $-1 $327 $125 $328 $329 reversed $79 $-1 #
coedge $-1 $125 $327 $330 $331 reversed $79 $-1 #
coedge $-1 $332 $333 $125 $203 forward $320 $-1 #
edge $-1 $334 -2.5618607856530852e-014 $335 4.1806021543968308 $202 $336 forward 7 unknown #
loop $-1 $-1 $209 $126 #
plane-surface $-1 -49.900204474013478 -4.4429419472457035 4.6259744647496461 -0.82903758062907751 0 0.55919289150049634 0.55919289150049634 0 0.82903758062907751 forward_v I I I I #
loop $-1 $-1 $337 $81 #
coedge $-1 $207 $207 $208 $338 reversed $127 $-1 #
coedge $-1 $208 $208 $207 $338 forward $129 $-1 #
coedge $-1 $209 $209 $130 $210 forward $204 $-1 #
edge $-1 $339 0 $339 6.2831853071796004 $209 $340 forward 7 unknown #
loop $-1 $-1 $216 $131 #
plane-surface $-1 -49.900204474013478 -4.4429419472457035 4.6259744647496461 -0.82903758062907751 0 0.55919289150049634 0.55919289150049634 0 0.82903758062907751 forward_v I I I I #
loop $-1 $-1 $341 $84 #
coedge $-1 $214 $214 $215 $342 reversed $132 $-1 #
coedge $-1 $215 $215 $214 $342 forward $134 $-1 #
coedge $-1 $216 $216 $135 $217 forward $211 $-1 #
edge $-1 $343 0 $343 6.2831853071796004 $216 $344 forward 7 unknown #
face $-1 $345 $346 $45 $-1 $347 forward single #
loop $-1 $-1 $348 $136 #
plane-surface $-1 79.244673733014679 8.2595105653714427 142.45147406384635 0 1 0 0.83867057594974714 0 0.54463902268945019 forward_v I I I I #
coedge $-1 $349 $350 $351 $352 reversed $137 $-1 #
coedge $-1 $223 $139 $353 $354 reversed $88 $-1 #
coedge $-1 $139 $222 $349 $355 reversed $88 $-1 #
coedge $-1 $351 $356 $139 $225 forward $346 $-1 #
edge $-1 $357 -10.277867607506153 $358 -7.8781505476201659 $224 $359 forward 7 unknown #
loop $-1 $-1 $231 $140 #
plane-surface $-1 -4.4549927194474037 11.345648514967468 88.096276870385481 0.83867057594974714 0 0.54463902268945019 0.54463902268945019 0 -0.83867057594974714 forward_v I I I I #
loop $-1 $-1 $360 $90 #
coedge $-1 $229 $229 $230 $361 reversed $141 $-1 #
coedge $-1 $230 $230 $229 $361 forward $143 $-1 #
coedge $-1 $231 $231 $144 $232 forward $226 $-1 #
edge $-1 $362 0 $362 6.2831853071796004 $231 $363 forward 7 unknown #
loop $-1 $-1 $238 $145 #
plane-surface $-1 -4.4549927194474037 11.345648514967468 88.096276870385481 0.83867057594974714 0 0.54463902268945019 0.54463902268945019 0 -0.83867057594974714 forward_v I I I I #
loop $-1 $-1 $364 $93 #
coedge $-1 $236 $236 $237 $365 reversed $146 $-1 #
coedge $-1 $237 $237 $236 $365 forward $148 $-1 #
coedge $-1 $238 $238 $149 $239 forward $233 $-1 #
edge $-1 $366 0 $366 6.2831853071796004 $238 $367 forward 7 unknown #
face $-1 $368 $369 $36 $-1 $370 reversed single #
loop $-1 $-1 $371 $150 #
plane-surface $-1 -49.900204474013492 0 0 1 0 0 0 0 -1 forward_v I I I I #
coedge $-1 $372 $251 $373 $374 forward $151 $-1 #
coedge $-1 $375 $153 $372 $376 forward $97 $-1 #
coedge $-1 $153 $375 $377 $378 forward $97 $-1 #
coedge $-1 $254 $253 $153 $247 reversed $255 $-1 #
edge $-1 $379 -29.580266172758893 $380 29.580266172758893 $246 $381 forward 7 unknown #
coedge $-1 $155 $154 $382 $383 forward $61 $-1 #
coedge $-1 $384 $385 $154 $250 reversed $369 $-1 #
edge $-1 $257 -49.900204474013492 $386 49.900204474013492 $249 $387 forward 7 unknown #
coedge $-1 $243 $388 $155 $252 reversed $151 $-1 #
edge $-1 $389 -49.900204474013492 $256 49.900204474013492 $251 $390 forward 7 unknown #
coedge $-1 $246 $156 $388 $391 forward $255 $-1 #
coedge $-1 $156 $246 $384 $392 reversed $255 $-1 #
loop $-1 $-1 $253 $368 #
vertex $-1 $157 $393 #
vertex $-1 $157 $394 #
straight-curve $-1 49.900204474013492 0 8.0918507604035046 0 1 0 I I #
face $-1 $395 $396 $37 $-1 $397 reversed single #
loop $-1 $-1 $398 $158 #
plane-surface $-1 -49.900204474013492 0 0 1 0 0 0 0 -1 forward_v I I I I #
coedge $-1 $399 $268 $273 $400 reversed $159 $-1 #
coedge $-1 $401 $161 $402 $403 reversed $101 $-1 #
coedge $-1 $161 $401 $399 $404 forward $101 $-1 #
coedge $-1 $273 $272 $161 $266 forward $274 $-1 #
edge $-1 $405 -17.361021274486028 $406 -7.0774685220597089 $265 $407 forward 7 unknown #
coedge $-1 $163 $162 $398 $408 reversed $64 $-1 #
coedge $-1 $262 $409 $162 $269 reversed $159 $-1 #
edge $-1 $275 -49.900204474013492 $410 49.900204474013492 $268 $411 forward 7 unknown #
coedge $-1 $412 $413 $163 $271 forward $396 $-1 #
edge $-1 $276 -49.900204474013492 $414 49.900204474013492 $270 $415 forward 7 unknown #
coedge $-1 $265 $164 $413 $416 forward $274 $-1 #
coedge $-1 $164 $265 $262 $400 forward $274 $-1 #
loop $-1 $-1 $164 $395 #
vertex $-1 $165 $417 #
vertex $-1 $416 $418 #
straight-curve $-1 49.900204474013492 -12.219244898272867 0.45906815533611756 0 -1 0 I I #
face $-1 $419 $420 $38 $-1 $421 reversed single #
loop $-1 $-1 $172 $166 #
plane-surface $-1 49.900204474013492 0 0 -1 0 0 0 0 1 forward_v I I I I #
coedge $-1 $422 $289 $423 $424 reversed $167 $-1 #
coedge $-1 $425 $169 $422 $426 forward $105 $-1 #
coedge $-1 $169 $425 $427 $428 reversed $105 $-1 #
coedge $-1 $292 $291 $169 $285 forward $279 $-1 #
edge $-1 $429 7.0774685220597089 $430 17.361021274486028 $284 $431 forward 7 unknown #
coedge $-1 $171 $170 $432 $433 reversed $67 $-1 #
coedge $-1 $434 $435 $170 $288 forward $436 $-1 #
edge $-1 $437 -49.900204474013492 $293 49.900204474013492 $287 $438 forward 7 unknown #
coedge $-1 $281 $439 $171 $290 reversed $167 $-1 #
edge $-1 $440 -49.900204474013492 $294 49.900204474013492 $289 $441 forward 7 unknown #
coedge $-1 $284 $172 $439 $442 forward $279 $-1 #
coedge $-1 $172 $284 $434 $443 reversed $279 $-1 #
vertex $-1 $443 $444 #
vertex $-1 $173 $445 #
straight-curve $-1 49.900204474013492 12.219244898272867 0.45906815533611756 0 -1 0 I I #
face $-1 $-1 $446 $39 $-1 $447 forward single #
loop $-1 $-1 $180 $174 #
plane-surface $-1 -49.900204474013492 0 0 1 0 0 0 0 -1 forward_v I I I I #
coedge $-1 $448 $449 $450 $451 reversed $175 $-1 #
coedge $-1 $452 $177 $179 $306 forward $109 $-1 #
coedge $-1 $177 $452 $448 $453 forward $109 $-1 #
coedge $-1 $450 $180 $177 $303 forward $297 $-1 #
edge $-1 $309 -2.2214709736228535 $454 6.664412920868557 $302 $455 forward 7 unknown #
coedge $-1 $456 $457 $178 $305 forward $446 $-1 #
edge $-1 $458 -18.756805559956042 $308 -16.419042553025662 $304 $459 forward 7 unknown #
edge $-1 $309 -2.5618607856530852e-014 $458 4.1806021543968308 $179 $460 forward 7 unknown #
coedge $-1 $180 $450 $456 $461 reversed $297 $-1 #
vertex $-1 $461 $462 #
vertex $-1 $181 $463 #
straight-curve $-1 -49.900204474013492 1.7763568394002505e-015 30.216826858664433 0 0 -1 I I #
coedge $-1 $311 $311 $-1 $464 reversed $184 $-1 #
edge $-1 $465 0 $465 6.2831853071796004 $185 $466 forward 7 unknown #
vertex $-1 $188 $467 #
ellipse-curve $-1 -48.731322970548298 -6.3470599246367172 6.3589126125765709 -0.82903758062907751 0 0.55919289150049634 0.27959644575024817 0 0.41451879031453875 1 I I #
coedge $-1 $315 $315 $-1 $468 reversed $191 $-1 #
edge $-1 $469 0 $469 6.2831853071796004 $192 $470 forward 7 unknown #
vertex $-1 $195 $471 #
ellipse-curve $-1 -48.731322970548298 -2.5388239698546862 6.3589126125765709 -0.82903758062907751 0 0.55919289150049634 0.27959644575024817 0 0.41451879031453875 1 I I #
face $-1 $-1 $472 $42 $-1 $473 forward single #
loop $-1 $-1 $333 $196 #
plane-surface $-1 -132.63849405407831 1.7763568394002505e-015 60.433653717328866 0 -1 0 0.82903758062907751 0 -0.55919289150049634 forward_v I I I I #
coedge $-1 $328 $474 $324 $475 forward $197 $-1 #
coedge $-1 $324 $199 $327 $476 reversed $123 $-1 #
coedge $-1 $199 $323 $322 $475 reversed $123 $-1 #
coedge $-1 $477 $330 $199 $326 forward $472 $-1 #
edge $-1 $478 -18.756805559956042 $479 -16.419042553025662 $325 $480 forward 7 unknown #
coedge $-1 $201 $200 $323 $476 forward $79 $-1 #
coedge $-1 $481 $322 $200 $329 forward $197 $-1 #
edge $-1 $482 -11.10735486811426 $334 -2.2214709736228535 $328 $483 forward 7 unknown #
coedge $-1 $325 $484 $201 $331 forward $472 $-1 #
edge $-1 $335 2.2214709736228535 $478 11.10735486811426 $330 $485 forward 7 unknown #
coedge $-1 $333 $202 $484 $486 reversed $320 $-1 #
coedge $-1 $202 $332 $481 $487 reversed $320 $-1 #
vertex $-1 $329 $488 #
vertex $-1 $331 $489 #
straight-curve $-1 -49.900204474013478 1.7763568394002505e-015 4.6259744647496461 0.55919289150049634 0 0.82903758062907751 I I #
coedge $-1 $337 $337 $-1 $490 reversed $206 $-1 #
edge $-1 $491 0 $491 6.2831853071796004 $207 $492 forward 7 unknown #
vertex $-1 $210 $493 #
ellipse-curve $-1 -48.731322970548298 2.5388239698546933 6.3589126125765709 -0.82903758062907751 0 0.55919289150049634 0.27959644575024817 0 0.41451879031453875 1 I I #
coedge $-1 $341 $341 $-1 $494 reversed $213 $-1 #
edge $-1 $495 0 $495 6.2831853071796004 $214 $496 forward 7 unknown #
vertex $-1 $217 $497 #
ellipse-curve $-1 -48.731322970548298 6.3470599246367279 6.3589126125765709 -0.82903758062907751 0 0.55919289150049634 0.27959644575024817 0 0.41451879031453875 1 I I #
face $-1 $-1 $498 $45 $-1 $499 reversed single #
loop $-1 $-1 $224 $218 #
plane-surface $-1 0 0 8.0918507604035046 0 0 1 1 0 0 forward_v I I I I #
coedge $-1 $500 $501 $502 $503 reversed $219 $-1 #
coedge $-1 $504 $221 $223 $355 forward $137 $-1 #
coedge $-1 $221 $504 $500 $505 forward $137 $-1 #
coedge $-1 $502 $224 $221 $352 forward $346 $-1 #
edge $-1 $358 -8.7589622070797599 $506 -2.5866863078877085 $351 $507 forward 7 unknown #
coedge $-1 $508 $509 $222 $354 forward $498 $-1 #
edge $-1 $510 -66.829126613999804 $357 -63.133886271519671 $353 $511 forward 7 unknown #
edge $-1 $358 95.394340047498957 $510 99.800408948027012 $223 $512 forward 7 unknown #
coedge $-1 $224 $502 $508 $513 forward $346 $-1 #
vertex $-1 $225 $514 #
vertex $-1 $225 $515 #
straight-curve $-1 39.622336866507339 14.431786464563494 8.0918507604035028 -1 0 0 I I #
coedge $-1 $360 $360 $-1 $516 reversed $228 $-1 #
edge $-1 $517 0 $517 6.2831853071796004 $229 $518 forward 7 unknown #
vertex $-1 $232 $519 #
ellipse-curve $-1 48.700345944070499 10.0230179651406 6.2442305891634344 0.83867057594974714 0 0.54463902268945019 0.2723195113447251 0 -0.41933528797487357 1 I I #
coedge $-1 $364 $364 $-1 $520 reversed $235 $-1 #
edge $-1 $521 0 $521 6.2831853071796004 $236 $522 forward 7 unknown #
vertex $-1 $239 $523 #
ellipse-curve $-1 48.700345944070499 12.668279064794337 6.2442305891634344 0.83867057594974714 0 0.54463902268945019 0.2723195113447251 0 -0.41933528797487357 1 I I #
face $-1 $-1 $255 $36 $-1 $524 reversed single #
loop $-1 $-1 $384 $240 #
plane-surface $-1 0 29.580266172758893 0 0 -1 0 0 0 -1 forward_v I I I I #
coedge $-1 $525 $382 $385 $526 forward $241 $-1 #
coedge $-1 $388 $243 $244 $376 reversed $151 $-1 #
coedge $-1 $382 $525 $243 $374 reversed $241 $-1 #
edge $-1 $389 -8.0918507604035046 $527 8.0918507604035046 $373 $528 forward 7 unknown #
coedge $-1 $245 $244 $525 $529 forward $97 $-1 #
edge $-1 $380 -49.900204474013492 $527 49.900204474013492 $372 $530 forward 7 unknown #
coedge $-1 $385 $384 $245 $378 reversed $369 $-1 #
edge $-1 $531 -49.900204474013492 $379 49.900204474013492 $377 $532 forward 7 unknown #
vertex $-1 $247 $533 #
vertex $-1 $391 $534 #
straight-curve $-1 49.900204474013492 0 -8.0918507604035046 0 -1 0 I I #
coedge $-1 $371 $373 $248 $383 reversed $241 $-1 #
edge $-1 $386 -29.580266172758893 $389 29.580266172758893 $382 $535 forward 7 unknown #
coedge $-1 $377 $249 $254 $392 forward $369 $-1 #
coedge $-1 $249 $377 $371 $526 reversed $369 $-1 #
vertex $-1 $250 $536 #
straight-curve $-1 0 29.580266172758893 8.0918507604035046 -1 0 0 I I #
coedge $-1 $251 $372 $253 $391 reversed $151 $-1 #
vertex $-1 $383 $537 #
straight-curve $-1 0 -29.580266172758893 8.0918507604035046 1 0 0 I I #
edge $-1 $256 -8.0918507604035046 $380 8.0918507604035046 $253 $538 forward 7 unknown #
edge $-1 $257 -8.0918507604035046 $379 8.0918507604035046 $254 $539 forward 7 unknown #
point $-1 49.900204474013492 -29.580266172758893 8.0918507604035046 #
point $-1 49.900204474013492 29.580266172758893 8.0918507604035046 #
face $-1 $-1 $274 $37 $-1 $540 reversed single #
loop $-1 $-1 $270 $259 #
plane-surface $-1 0 -29.580266172758893 0 0 1 0 0 0 1 forward_v I I I I #
coedge $-1 $541 $542 $267 $408 forward $260 $-1 #
coedge $-1 $409 $262 $264 $404 reversed $159 $-1 #
edge $-1 $406 -2.7236197882869355 $275 1.2139186996530569 $273 $543 forward 7 unknown #
coedge $-1 $264 $263 $544 $545 reversed $101 $-1 #
coedge $-1 $413 $412 $263 $403 forward $396 $-1 #
edge $-1 $546 -49.900204474013492 $405 49.900204474013492 $402 $547 forward 7 unknown #
edge $-1 $548 -49.900204474013492 $406 49.900204474013492 $399 $549 forward 7 unknown #
vertex $-1 $403 $550 #
vertex $-1 $266 $551 #
straight-curve $-1 49.900204474013492 -12.219244898272867 -3.4784703326038748 0 1 0 I I #
edge $-1 $414 -17.361021274486028 $410 -7.0774685220597089 $398 $552 forward 7 unknown #
coedge $-1 $268 $399 $541 $553 reversed $159 $-1 #
vertex $-1 $408 $554 #
straight-curve $-1 0 -19.296713420332576 0.45906815533611756 -1 0 0 I I #
coedge $-1 $402 $270 $542 $555 forward $396 $-1 #
coedge $-1 $270 $402 $272 $416 reversed $396 $-1 #
vertex $-1 $555 $556 #
straight-curve $-1 0 -29.580266172758893 0.45906815533611756 -1 0 0 I I #
edge $-1 $276 -0.45906815533611756 $405 3.4784703326038748 $272 $557 forward 7 unknown #
point $-1 49.900204474013492 -19.296713420332576 0.45906815533611756 #
point $-1 49.900204474013492 -29.580266172758893 0.45906815533611756 #
face $-1 $-1 $436 $38 $-1 $558 reversed single #
loop $-1 $-1 $432 $278 #
plane-surface $-1 -49.900204474013492 0 0 1 0 0 0 0 -1 forward_v I I I I #
coedge $-1 $439 $281 $282 $426 reversed $167 $-1 #
coedge $-1 $432 $559 $281 $424 forward $420 $-1 #
edge $-1 $560 -2.7236197882869355 $440 1.2139186996530569 $423 $561 forward 7 unknown #
coedge $-1 $283 $282 $559 $562 reversed $105 $-1 #
edge $-1 $429 -49.900204474013492 $560 49.900204474013492 $422 $563 forward 7 unknown #
coedge $-1 $435 $434 $283 $428 forward $436 $-1 #
edge $-1 $430 -49.900204474013492 $564 49.900204474013492 $427 $565 forward 7 unknown #
vertex $-1 $285 $566 #
vertex $-1 $428 $567 #
straight-curve $-1 49.900204474013492 12.219244898272867 -3.4784703326038748 0 1 0 I I #
coedge $-1 $568 $423 $286 $433 forward $420 $-1 #
edge $-1 $440 7.0774685220597089 $437 17.361021274486028 $432 $569 forward 7 unknown #
coedge $-1 $427 $287 $292 $443 forward $436 $-1 #
coedge $-1 $287 $427 $568 $570 reversed $436 $-1 #
loop $-1 $-1 $287 $419 #
vertex $-1 $570 $571 #
straight-curve $-1 0 29.580266172758893 0.45906815533611756 1 0 0 I I #
coedge $-1 $289 $422 $291 $442 reversed $167 $-1 #
vertex $-1 $433 $572 #
straight-curve $-1 0 19.296713420332576 0.45906815533611756 1 0 0 I I #
edge $-1 $294 -1.2139186996530569 $429 2.7236197882869355 $291 $573 forward 7 unknown #
edge $-1 $293 -0.45906815533611756 $430 3.4784703326038748 $292 $574 forward 7 unknown #
point $-1 49.900204474013492 29.580266172758893 0.45906815533611756 #
point $-1 49.900204474013492 19.296713420332576 0.45906815533611756 #
loop $-1 $-1 $304 $296 #
plane-surface $-1 0 0 8.0918507604035046 0 0 1 1 0 0 forward_v I I I I #
coedge $-1 $449 $299 $301 $453 reversed $175 $-1 #
coedge $-1 $299 $448 $575 $576 reversed $175 $-1 #
coedge $-1 $307 $302 $299 $451 forward $297 $-1 #
edge $-1 $454 -25.590852393914808 $577 -22.12497609826093 $450 $578 forward 7 unknown #
coedge $-1 $301 $300 $457 $579 reversed $109 $-1 #
edge $-1 $580 -4.1806021543968308 $454 2.5618607856530852e-014 $448 $581 forward 7 unknown #
vertex $-1 $303 $582 #
straight-curve $-1 -49.900204474013492 -2.2214709736228517 4.6259744647496222 0 -1 0 I I #
coedge $-1 $575 $304 $307 $461 forward $446 $-1 #
coedge $-1 $304 $575 $452 $579 forward $446 $-1 #
vertex $-1 $305 $583 #
straight-curve $-1 -66.319247027039154 1.7763568394002505e-015 8.0918507604035028 -1 0 0 I I #
straight-curve $-1 -49.900204474013478 1.7763568394002505e-015 4.6259744647496461 0.55919289150049634 0 0.82903758062907751 I I #
edge $-1 $308 -1.7763568394002505e-015 $577 8.8858838944914087 $307 $584 forward 7 unknown #
point $-1 -49.900204474013492 1.7763568394002505e-015 8.0918507604035046 #
point $-1 -49.900204474013492 1.7763568394002505e-015 4.6259744647496248 #
edge $-1 $585 1 $585 0 $311 $-1 forward 7 unknown #
vertex $-1 $312 $586 #
ellipse-curve $-1 -47.513674814655332 -6.3470599246367172 5.5375985864893993 -0.82903758062907751 0 0.55919289150049634 0.27959644575024817 0 0.41451879031453875 1 I I #
point $-1 -48.451726524798062 -6.3470599246367172 6.7734314028911182 #
edge $-1 $587 1 $587 0 $315 $-1 forward 7 unknown #
vertex $-1 $316 $588 #
ellipse-curve $-1 -47.513674814655332 -2.5388239698546862 5.5375985864893993 -0.82903758062907751 0 0.55919289150049634 0.27959644575024817 0 0.41451879031453875 1 I I #
point $-1 -48.451726524798062 -2.5388239698546862 6.7734314028911182 #
loop $-1 $-1 $325 $319 #
plane-surface $-1 0 0 8.0918507604035046 0 0 1 1 0 0 forward_v I I I I #
coedge $-1 $322 $481 $477 $589 reversed $197 $-1 #
edge $-1 $479 22.12497609826093 $482 25.590852393914808 $322 $590 forward 7 unknown #
edge $-1 $482 -2.5618607856530852e-014 $478 4.1806021543968308 $323 $591 forward 7 unknown #
coedge $-1 $484 $325 $474 $589 forward $472 $-1 #
vertex $-1 $326 $592 #
vertex $-1 $589 $593 #
straight-curve $-1 -66.319247027039154 8.8858838944914087 8.0918507604035028 -1 0 0 I I #
coedge $-1 $474 $328 $333 $487 forward $197 $-1 #
vertex $-1 $475 $594 #
straight-curve $-1 -49.900204474013492 -2.2214709736228517 4.6259744647496222 0 -1 0 I I #
coedge $-1 $330 $477 $332 $486 forward $472 $-1 #
straight-curve $-1 -47.562441467083111 -2.2214709736228517 8.0918507604035046 0 1 0 I I #
edge $-1 $595 16.419042553025662 $335 18.756805559956042 $484 $596 forward 7 unknown #
edge $-1 $334 -25.590852393914808 $595 -22.12497609826093 $481 $597 forward 7 unknown #
point $-1 -49.900204474013492 1.7763568394002505e-015 4.6259744647496248 #
point $-1 -47.562441467083111 1.7763568394002505e-015 8.0918507604035046 #
edge $-1 $598 1 $598 0 $337 $-1 forward 7 unknown #
vertex $-1 $338 $599 #
ellipse-curve $-1 -47.513674814655332 2.5388239698546933 5.5375985864893993 -0.82903758062907751 0 0.55919289150049634 0.27959644575024817 0 0.41451879031453875 1 I I #
point $-1 -48.451726524798062 2.5388239698546933 6.7734314028911182 #
edge $-1 $600 1 $600 0 $341 $-1 forward 7 unknown #
vertex $-1 $342 $601 #
ellipse-curve $-1 -47.513674814655332 6.3470599246367279 5.5375985864893993 -0.82903758062907751 0 0.55919289150049634 0.27959644575024817 0 0.41451879031453875 1 I I #
point $-1 -48.451726524798062 6.3470599246367279 6.7734314028911182 #
loop $-1 $-1 $353 $345 #
plane-surface $-1 49.900204474013492 0 0 -1 0 0 0 0 1 forward_v I I I I #
coedge $-1 $501 $348 $350 $505 reversed $219 $-1 #
coedge $-1 $348 $500 $602 $603 reversed $219 $-1 #
coedge $-1 $356 $351 $348 $503 forward $346 $-1 #
edge $-1 $506 7.8781505476201659 $604 10.277867607506153 $502 $605 forward 7 unknown #
coedge $-1 $350 $349 $509 $606 reversed $137 $-1 #
edge $-1 $607 -99.800408948027012 $506 -95.394340047498957 $500 $608 forward 7 unknown #
vertex $-1 $352 $609 #
straight-curve $-1 47.500487414127505 5.6728242574837342 8.0918507604035028 0 -1 0 I I #
coedge $-1 $602 $353 $356 $513 reversed $498 $-1 #
coedge $-1 $353 $602 $504 $606 forward $498 $-1 #
vertex $-1 $354 $610 #
straight-curve $-1 49.900204474013492 14.431786464563494 71.225737031923174 0 0 1 I I #
straight-curve $-1 -4.4549927194474037 14.431786464563494 88.096276870385481 0.54463902268945019 0 -0.83867057594974714 I I #
edge $-1 $604 8.2595105653714427 $357 14.431786464563494 $508 $611 forward 7 unknown #
point $-1 49.900204474013492 14.431786464563494 8.0918507604035046 #
point $-1 47.500487414127505 14.431786464563494 8.0918507604035028 #
edge $-1 $612 1 $612 0 $360 $-1 forward 7 unknown #
vertex $-1 $361 $613 #
ellipse-curve $-1 47.736643910754687 10.0230179651406 5.6183951912843861 0.83867057594974714 0 0.54463902268945019 0.2723195113447251 0 -0.41933528797487357 1 I I #
point $-1 48.972665455415246 10.0230179651406 5.8248953011885733 #
edge $-1 $614 1 $614 0 $364 $-1 forward 7 unknown #
vertex $-1 $365 $615 #
ellipse-curve $-1 47.736643910754687 12.668279064794337 5.6183951912843861 0.83867057594974714 0 0.54463902268945019 0.2723195113447251 0 -0.41933528797487357 1 I I #
point $-1 48.972665455415246 12.668279064794337 5.8248953011885733 #
plane-surface $-1 49.900204474013492 0 0 -1 0 0 0 0 1 forward_v I I I I #
coedge $-1 $373 $371 $375 $529 reversed $241 $-1 #
edge $-1 $386 -8.0918507604035046 $531 8.0918507604035046 $385 $616 forward 7 unknown #
vertex $-1 $529 $617 #
straight-curve $-1 -49.900204474013492 -29.580266172758893 0 0 0 -1 I I #
edge $-1 $527 -29.580266172758893 $531 29.580266172758893 $525 $618 forward 7 unknown #
straight-curve $-1 0 -29.580266172758893 -8.0918507604035046 -1 0 0 I I #
vertex $-1 $378 $619 #
straight-curve $-1 0 29.580266172758893 -8.0918507604035046 1 0 0 I I #
point $-1 49.900204474013492 29.580266172758893 -8.0918507604035046 #
point $-1 49.900204474013492 -29.580266172758893 -8.0918507604035046 #
straight-curve $-1 -49.900204474013492 0 8.0918507604035046 0 -1 0 I I #
point $-1 -49.900204474013492 29.580266172758893 8.0918507604035046 #
point $-1 -49.900204474013492 -29.580266172758893 8.0918507604035046 #
straight-curve $-1 49.900204474013492 -29.580266172758893 0 0 0 -1 I I #
straight-curve $-1 49.900204474013492 29.580266172758893 0 0 0 -1 I I #
plane-surface $-1 49.900204474013492 0 0 -1 0 0 0 0 1 forward_v I I I I #
coedge $-1 $544 $398 $409 $553 forward $260 $-1 #
coedge $-1 $398 $544 $412 $555 reversed $260 $-1 #
straight-curve $-1 49.900204474013492 -19.296713420332576 -0.75485054431693932 0 0 1 I I #
coedge $-1 $542 $541 $401 $545 forward $260 $-1 #
edge $-1 $548 7.0774685220597089 $546 17.361021274486028 $544 $620 forward 7 unknown #
vertex $-1 $403 $621 #
straight-curve $-1 0 -29.580266172758893 -3.4784703326038748 1 0 0 I I #
vertex $-1 $545 $622 #
straight-curve $-1 0 -19.296713420332576 -3.4784703326038748 1 0 0 I I #
point $-1 49.900204474013492 -29.580266172758893 -3.4784703326038748 #
point $-1 49.900204474013492 -19.296713420332576 -3.4784703326038748 #
straight-curve $-1 -49.900204474013492 -12.219244898272867 0.45906815533611756 0 1 0 I I #
edge $-1 $410 -1.2139186996530569 $548 2.7236197882869355 $541 $623 forward 7 unknown #
point $-1 -49.900204474013492 -19.296713420332576 0.45906815533611756 #
edge $-1 $414 -0.45906815533611756 $546 3.4784703326038748 $542 $624 forward 7 unknown #
point $-1 -49.900204474013492 -29.580266172758893 0.45906815533611756 #
straight-curve $-1 49.900204474013492 -29.580266172758893 0 0 0 -1 I I #
plane-surface $-1 0 29.580266172758893 0 0 -1 0 0 0 -1 forward_v I I I I #
coedge $-1 $423 $568 $425 $562 forward $420 $-1 #
vertex $-1 $562 $625 #
straight-curve $-1 -49.900204474013492 19.296713420332576 -0.75485054431693932 0 0 1 I I #
edge $-1 $564 -17.361021274486028 $560 -7.0774685220597089 $559 $626 forward 7 unknown #
straight-curve $-1 0 19.296713420332576 -3.4784703326038748 -1 0 0 I I #
vertex $-1 $428 $627 #
straight-curve $-1 0 29.580266172758893 -3.4784703326038748 -1 0 0 I I #
point $-1 49.900204474013492 19.296713420332576 -3.4784703326038748 #
point $-1 49.900204474013492 29.580266172758893 -3.4784703326038748 #
coedge $-1 $559 $432 $435 $570 forward $420 $-1 #
straight-curve $-1 -49.900204474013492 12.219244898272867 0.45906815533611756 0 1 0 I I #
edge $-1 $437 -0.45906815533611756 $564 3.4784703326038748 $435 $628 forward 7 unknown #
point $-1 -49.900204474013492 29.580266172758893 0.45906815533611756 #
point $-1 -49.900204474013492 19.296713420332576 0.45906815533611756 #
straight-curve $-1 49.900204474013492 19.296713420332576 -0.75485054431693932 0 0 -1 I I #
straight-curve $-1 49.900204474013492 29.580266172758893 0 0 0 -1 I I #
coedge $-1 $457 $456 $449 $576 forward $446 $-1 #
edge $-1 $577 16.419042553025662 $580 18.756805559956042 $575 $629 forward 7 unknown #
vertex $-1 $576 $630 #
straight-curve $-1 -49.900204474013492 -8.8858838944914087 30.216826858664433 0 0 1 I I #
edge $-1 $580 -6.664412920868557 $458 2.2214709736228535 $457 $631 forward 7 unknown #
vertex $-1 $579 $632 #
straight-curve $-1 -49.900204474013478 -8.8858838944914087 4.6259744647496461 -0.55919289150049634 0 -0.82903758062907751 I I #
point $-1 -49.900204474013492 -8.8858838944914087 4.6259744647496248 #
point $-1 -47.562441467083111 1.7763568394002505e-015 8.0918507604035046 #
straight-curve $-1 -49.900204474013492 0 8.0918507604035046 0 -1 0 I I #
vertex $-1 $464 $633 #
point $-1 -47.234078368905081 -6.3470599246367172 5.9521173768039377 #
vertex $-1 $468 $634 #
point $-1 -47.234078368905081 -2.5388239698546862 5.9521173768039377 #
edge $-1 $479 -8.8858838944914087 $595 -1.7763568394002505e-015 $474 $635 forward 7 unknown #
straight-curve $-1 -49.900204474013492 8.8858838944914087 30.216826858664433 0 0 -1 I I #
straight-curve $-1 -49.900204474013478 8.8858838944914087 4.6259744647496461 0.55919289150049634 0 0.82903758062907751 I I #
point $-1 -47.562441467083111 8.8858838944914087 8.0918507604035046 #
point $-1 -49.900204474013492 8.8858838944914087 8.0918507604035046 #
point $-1 -49.900204474013492 8.8858838944914087 4.6259744647496248 #
vertex $-1 $486 $636 #
straight-curve $-1 -66.319247027039154 1.7763568394002505e-015 8.0918507604035028 1 0 0 I I #
straight-curve $-1 -49.900204474013492 1.7763568394002505e-015 30.216826858664433 0 0 1 I I #
vertex $-1 $490 $637 #
point $-1 -47.234078368905081 2.5388239698546933 5.9521173768039377 #
vertex $-1 $494 $638 #
point $-1 -47.234078368905081 6.3470599246367279 5.9521173768039377 #
coedge $-1 $509 $508 $501 $603 forward $498 $-1 #
edge $-1 $604 63.133886271519671 $607 66.829126613999804 $602 $639 forward 7 unknown #
vertex $-1 $513 $640 #
straight-curve $-1 39.622336866507339 8.2595105653714427 8.0918507604035028 1 0 0 I I #
edge $-1 $607 2.5866863078877085 $510 8.7589622070797599 $509 $641 forward 7 unknown #
vertex $-1 $606 $642 #
straight-curve $-1 -4.4549927194474037 8.2595105653714427 88.096276870385481 -0.54463902268945019 0 0.83867057594974714 I I #
point $-1 47.500487414127505 8.2595105653714427 8.0918507604035028 #
point $-1 49.900204474013485 14.431786464563494 4.3966104179233696 #
straight-curve $-1 49.900204474013492 0 8.0918507604035046 0 1 0 I I #
vertex $-1 $516 $643 #
point $-1 48.008963422099413 10.0230179651406 5.1990599033095126 #
vertex $-1 $520 $644 #
point $-1 48.008963422099413 12.668279064794337 5.1990599033095126 #
straight-curve $-1 -49.900204474013492 29.580266172758893 0 0 0 -1 I I #
point $-1 -49.900204474013492 -29.580266172758893 -8.0918507604035046 #
straight-curve $-1 -49.900204474013492 0 -8.0918507604035046 0 1 0 I I #
point $-1 -49.900204474013492 29.580266172758893 -8.0918507604035046 #
straight-curve $-1 -49.900204474013492 -12.219244898272867 -3.4784703326038748 0 -1 0 I I #
point $-1 -49.900204474013492 -29.580266172758893 -3.4784703326038748 #
point $-1 -49.900204474013492 -19.296713420332576 -3.4784703326038748 #
straight-curve $-1 -49.900204474013492 -19.296713420332576 -0.75485054431693932 0 0 -1 I I #
straight-curve $-1 -49.900204474013492 -29.580266172758893 0 0 0 -1 I I #
point $-1 -49.900204474013492 19.296713420332576 -3.4784703326038748 #
straight-curve $-1 -49.900204474013492 12.219244898272867 -3.4784703326038748 0 -1 0 I I #
point $-1 -49.900204474013492 29.580266172758893 -3.4784703326038748 #
straight-curve $-1 -49.900204474013492 29.580266172758893 0 0 0 -1 I I #
straight-curve $-1 -66.319247027039154 -8.8858838944914087 8.0918507604035028 1 0 0 I I #
point $-1 -49.900204474013492 -8.8858838944914087 8.0918507604035046 #
straight-curve $-1 -47.562441467083111 -2.2214709736228517 8.0918507604035046 0 1 0 I I #
point $-1 -47.562441467083111 -8.8858838944914087 8.0918507604035046 #
point $-1 -47.099156024340786 -6.3470599246367172 5.2580021407391504 #
point $-1 -47.099156024340786 -2.5388239698546862 5.2580021407391504 #
straight-curve $-1 -49.900204474013492 0 8.0918507604035046 0 -1 0 I I #
point $-1 -49.900204474013492 1.7763568394002505e-015 8.0918507604035046 #
point $-1 -47.099156024340786 2.5388239698546933 5.2580021407391504 #
point $-1 -47.099156024340786 6.3470599246367279 5.2580021407391504 #
straight-curve $-1 49.900204474013492 8.2595105653714427 71.225737031923174 0 0 -1 I I #
point $-1 49.900204474013492 8.2595105653714427 8.0918507604035046 #
straight-curve $-1 49.900204474013492 5.6728242574837342 4.3966104179233696 0 1 0 I I #
point $-1 49.900204474013485 8.2595105653714427 4.3966104179233696 #
point $-1 47.317308622779812 10.0230179651406 5.3460756799396618 #
point $-1 47.317308622779812 12.668279064794337 5.3460756799396618 #
End-of-ACIS-data 