500 0 13 0           
7 Unknown 11 ACIS 5.0 NT 24 Thu Mar 25 23:31:49 1999 
-1 9.9999999999999995e-007 1e-010 
body $-1 $13 $-1 $14 #
body $-1 $15 $-1 $16 #
body $-1 $17 $-1 $18 #
body $-1 $19 $-1 $20 #
body $-1 $21 $-1 $22 #
body $-1 $23 $-1 $24 #
body $-1 $25 $-1 $26 #
body $-1 $27 $-1 $28 #
body $-1 $29 $-1 $30 #
body $-1 $31 $-1 $32 #
body $-1 $33 $-1 $34 #
body $-1 $35 $-1 $36 #
body $-1 $37 $-1 $38 #
lump $-1 $-1 $39 $0 #
transform $-1 1 0 0 0 1 0 0 0 1 49.667043061616866 20.031429208547976 8.1276238693699554 1 rotate no_reflect no_shear #
lump $-1 $-1 $40 $1 #
transform $-1 1 0 0 0 1 0 0 0 1 49.667043061616866 20.031429208547976 8.1276238693699554 1 rotate no_reflect no_shear #
lump $-1 $-1 $41 $2 #
transform $-1 1 0 0 0 1 0 0 0 1 49.667043061616866 20.031429208547976 8.1276238693699554 1 rotate no_reflect no_shear #
lump $-1 $-1 $42 $3 #
transform $-1 1 0 0 0 1 0 0 0 1 49.667043061616866 20.031429208547976 8.1276238693699554 1 rotate no_reflect no_shear #
lump $-1 $-1 $43 $4 #
transform $-1 1 0 0 0 1 0 0 0 1 49.667043061616866 20.031429208547976 8.1276238693699554 1 rotate no_reflect no_shear #
lump $-1 $-1 $44 $5 #
transform $-1 1 0 0 0 1 0 0 0 1 49.667043061616866 20.031429208547976 8.1276238693699554 1 rotate no_reflect no_shear #
lump $-1 $-1 $45 $6 #
transform $-1 1 0 0 0 1 0 0 0 1 49.667043061616866 20.031429208547976 8.1276238693699554 1 rotate no_reflect no_shear #
lump $-1 $-1 $46 $7 #
transform $-1 1 0 0 0 1 0 0 0 1 49.667043061616866 20.031429208547976 8.1276238693699554 1 rotate no_reflect no_shear #
lump $-1 $-1 $47 $8 #
transform $-1 1 0 0 0 1 0 0 0 1 49.667043061616866 20.031429208547976 8.1276238693699554 1 rotate no_reflect no_shear #
lump $-1 $-1 $48 $9 #
transform $-1 1 0 0 0 1 0 0 0 1 49.667043061616866 20.031429208547976 8.1276238693699554 1 rotate no_reflect no_shear #
lump $-1 $-1 $49 $10 #
transform $-1 1 0 0 0 1 0 0 0 1 49.667043061616866 20.031429208547976 8.1276238693699554 1 rotate no_reflect no_shear #
lump $-1 $-1 $50 $11 #
transform $-1 1 0 0 0 1 0 0 0 1 49.667043061616866 20.031429208547976 8.1276238693699554 1 rotate no_reflect no_shear #
lump $-1 $-1 $51 $12 #
transform $-1 1 0 0 0 1 0 0 0 1 49.667043061616866 20.031429208547976 8.1276238693699554 1 rotate no_reflect no_shear #
shell $-1 $-1 $-1 $52 $-1 $13 #
shell $-1 $-1 $-1 $53 $-1 $15 #
shell $-1 $-1 $-1 $54 $-1 $17 #
shell $-1 $-1 $-1 $55 $-1 $19 #
shell $-1 $-1 $-1 $56 $-1 $21 #
shell $-1 $-1 $-1 $57 $-1 $23 #
shell $-1 $-1 $-1 $58 $-1 $25 #
shell $-1 $-1 $-1 $59 $-1 $27 #
shell $-1 $-1 $-1 $60 $-1 $29 #
shell $-1 $-1 $-1 $61 $-1 $31 #
shell $-1 $-1 $-1 $62 $-1 $33 #
shell $-1 $-1 $-1 $63 $-1 $35 #
shell $-1 $-1 $-1 $64 $-1 $37 #
face $-1 $65 $66 $39 $-1 $67 forward single #
face $-1 $68 $69 $40 $-1 $70 reversed single #
face $-1 $71 $72 $41 $-1 $73 reversed single #
face $-1 $74 $75 $42 $-1 $76 reversed single #
face $-1 $77 $78 $43 $-1 $79 forward single #
face $-1 $80 $81 $44 $-1 $82 forward single #
face $-1 $83 $84 $45 $-1 $85 forward single #
face $-1 $86 $87 $46 $-1 $88 reversed single #
face $-1 $89 $90 $47 $-1 $91 forward single #
face $-1 $92 $93 $48 $-1 $94 forward single #
face $-1 $95 $96 $49 $-1 $97 reversed single #
face $-1 $98 $99 $50 $-1 $100 forward single #
face $-1 $101 $102 $51 $-1 $103 forward single #
face $-1 $104 $105 $39 $-1 $106 reversed single #
loop $-1 $-1 $107 $52 #
plane-surface $-1 0 0 8.1276238693699554 0 0 1 1 0 0 forward_v I I I I #
face $-1 $108 $109 $40 $-1 $110 reversed single #
loop $-1 $-1 $111 $53 #
plane-surface $-1 -48.167043061616866 -11.599793958238216 0 0 -1 0 0 0 -1 forward_v I I I I #
face $-1 $112 $113 $41 $-1 $114 reversed single #
loop $-1 $-1 $115 $54 #
plane-surface $-1 -48.167043061616866 11.599793958238212 0 0 1 0 0 0 1 forward_v I I I I #
face $-1 $116 $117 $42 $-1 $118 reversed single #
loop $-1 $-1 $119 $55 #
plane-surface $-1 -49.667043061616866 8.4446822481236907 2.9062846919748182 -0.51503808176128008 0 0.85716729658548041 0.85716729658548041 0 0.51503808176128008 forward_v I I I I #
face $-1 $120 $121 $43 $-1 $122 forward single #
loop $-1 $123 $124 $56 #
cone-surface $-1 -44.928532491328497 6.5516152220549699 4.8618492568201548 0.51503808176128008 0 -0.85716729658548041 0.4285836482927402 0 0.25751904088064004 1 I I 0 1 0.5 forward I I I I #
face $-1 $125 $126 $44 $-1 $127 forward single #
loop $-1 $128 $129 $57 #
cone-surface $-1 -44.928532491328497 8.4446822481236872 4.8618492568201548 0.51503808176128008 0 -0.85716729658548041 0.4285836482927402 0 0.25751904088064004 1 I I 0 1 0.5 forward I I I I #
face $-1 $130 $131 $45 $-1 $132 forward single #
loop $-1 $133 $134 $58 #
cone-surface $-1 -44.928532491328497 10.337749274192404 4.8618492568201548 0.51503808176128008 0 -0.85716729658548041 0.4285836482927402 0 0.25751904088064004 1 I I 0 1 0.5 forward I I I I #
face $-1 $135 $136 $46 $-1 $137 reversed single #
loop $-1 $-1 $138 $59 #
plane-surface $-1 78.874398696123379 -5.6970332661237828 140.90462875128603 0 -1 0 -0.83867057594974714 0 -0.54463902268945019 forward_v I I I I #
face $-1 $139 $140 $47 $-1 $141 forward single #
loop $-1 $142 $143 $60 #
cone-surface $-1 47.621284119655805 -9.9132909033483774 5.4595912581754575 -0.83867057594974714 0 -0.54463902268945019 0.2723195113447251 0 -0.41933528797487357 1 I I 0 1 0.5 forward I I I I #
face $-1 $144 $145 $48 $-1 $146 forward single #
loop $-1 $147 $148 $61 #
cone-surface $-1 47.621284119655805 -7.3835363210136222 5.4595912581754575 -0.83867057594974714 0 -0.54463902268945019 0.2723195113447251 0 -0.41933528797487357 1 I I 0 1 0.5 forward I I I I #
face $-1 $149 $150 $49 $-1 $151 reversed single #
loop $-1 $-1 $152 $62 #
plane-surface $-1 78.874398696123379 11.599793958238219 140.90462875128603 0 -1 0 -0.83867057594974714 0 -0.54463902268945019 forward_v I I I I #
face $-1 $153 $154 $50 $-1 $155 forward single #
loop $-1 $156 $157 $63 #
cone-surface $-1 47.621284119655805 7.3835363210136222 5.4595912581754575 -0.83867057594974714 0 -0.54463902268945019 0.2723195113447251 0 -0.41933528797487357 1 I I 0 1 0.5 forward I I I I #
face $-1 $158 $159 $51 $-1 $160 forward single #
loop $-1 $161 $162 $64 #
cone-surface $-1 47.621284119655805 9.9132909033483791 5.4595912581754575 -0.83867057594974714 0 -0.54463902268945019 0.2723195113447251 0 -0.41933528797487357 1 I I 0 1 0.5 forward I I I I #
face $-1 $163 $164 $39 $-1 $165 reversed single #
loop $-1 $-1 $166 $65 #
plane-surface $-1 0 0 -8.1276238693699554 0 0 1 1 0 0 forward_v I I I I #
coedge $-1 $167 $168 $169 $170 forward $66 $-1 #
face $-1 $171 $172 $40 $-1 $173 forward single #
loop $-1 $-1 $174 $68 #
plane-surface $-1 -46.667043061616866 -15.815611583393096 0 -1 0 0 0 0 1 forward_v I I I I #
coedge $-1 $175 $176 $177 $178 forward $69 $-1 #
face $-1 $179 $180 $41 $-1 $181 reversed single #
loop $-1 $-1 $182 $71 #
plane-surface $-1 -46.667043061616866 15.815611583393093 0 -1 0 0 0 0 1 forward_v I I I I #
coedge $-1 $183 $184 $185 $186 reversed $72 $-1 #
face $-1 $187 $188 $42 $-1 $189 forward single #
loop $-1 $-1 $190 $74 #
plane-surface $-1 -100.82788023203696 5.2895705380091602 88.052214753016358 0 1 0 -0.51503808176128008 0 0.85716729658548041 forward_v I I I I #
coedge $-1 $191 $192 $193 $194 reversed $75 $-1 #
face $-1 $-1 $195 $43 $-1 $196 forward single #
loop $-1 $197 $198 $77 #
cone-surface $-1 -44.406146153601661 6.5516152220549699 3.9924524088215545 0.51503808176128008 0 -0.85716729658548041 0.2142918241463701 0 0.12875952044032002 1 I I -0.70710678118654746 0.70710678118654746 0.25 forward I I I I #
loop $-1 $-1 $199 $56 #
coedge $-1 $124 $124 $200 $201 reversed $78 $-1 #
face $-1 $-1 $202 $44 $-1 $203 forward single #
loop $-1 $204 $205 $80 #
cone-surface $-1 -44.406146153601661 8.4446822481236872 3.9924524088215545 0.51503808176128008 0 -0.85716729658548041 0.2142918241463701 0 0.12875952044032002 1 I I -0.70710678118654746 0.70710678118654746 0.25 forward I I I I #
loop $-1 $-1 $206 $57 #
coedge $-1 $129 $129 $207 $208 reversed $81 $-1 #
face $-1 $-1 $209 $45 $-1 $210 forward single #
loop $-1 $211 $212 $83 #
cone-surface $-1 -44.406146153601661 10.337749274192404 3.9924524088215545 0.51503808176128008 0 -0.85716729658548041 0.2142918241463701 0 0.12875952044032002 1 I I -0.70710678118654746 0.70710678118654746 0.25 forward I I I I #
loop $-1 $-1 $213 $58 #
coedge $-1 $134 $134 $214 $215 reversed $84 $-1 #
face $-1 $216 $217 $46 $-1 $218 reversed single #
loop $-1 $-1 $219 $86 #
plane-surface $-1 -4.4341765242908338 -8.6484136121809989 86.803409165378326 0.83867057594974714 0 0.54463902268945019 0.54463902268945019 0 -0.83867057594974714 forward_v I I I I #
coedge $-1 $220 $221 $222 $223 reversed $87 $-1 #
face $-1 $-1 $224 $47 $-1 $225 forward single #
loop $-1 $226 $227 $89 #
cone-surface $-1 46.870141962606297 -9.9132909033483774 4.971793853511528 -0.83867057594974714 0 -0.54463902268945019 0.13615975567236255 0 -0.20966764398743679 1 I I -0.70710678118654746 0.70710678118654746 0.25 forward I I I I #
loop $-1 $-1 $228 $60 #
coedge $-1 $143 $143 $229 $230 reversed $90 $-1 #
face $-1 $-1 $231 $48 $-1 $232 forward single #
loop $-1 $233 $234 $92 #
cone-surface $-1 46.870141962606297 -7.3835363210136222 4.971793853511528 -0.83867057594974714 0 -0.54463902268945019 0.13615975567236255 0 -0.20966764398743679 1 I I -0.70710678118654746 0.70710678118654746 0.25 forward I I I I #
loop $-1 $-1 $235 $61 #
coedge $-1 $148 $148 $236 $237 reversed $93 $-1 #
face $-1 $238 $239 $49 $-1 $240 reversed single #
loop $-1 $-1 $241 $95 #
plane-surface $-1 -4.4341765242908338 8.6484136121810025 86.803409165378326 0.83867057594974714 0 0.54463902268945019 0.54463902268945019 0 -0.83867057594974714 forward_v I I I I #
coedge $-1 $242 $243 $244 $245 reversed $96 $-1 #
face $-1 $-1 $246 $50 $-1 $247 forward single #
loop $-1 $248 $249 $98 #
cone-surface $-1 46.870141962606297 7.3835363210136222 4.971793853511528 -0.83867057594974714 0 -0.54463902268945019 0.13615975567236255 0 -0.20966764398743679 1 I I -0.70710678118654746 0.70710678118654746 0.25 forward I I I I #
loop $-1 $-1 $250 $63 #
coedge $-1 $157 $157 $251 $252 reversed $99 $-1 #
face $-1 $-1 $253 $51 $-1 $254 forward single #
loop $-1 $255 $256 $101 #
cone-surface $-1 46.870141962606297 9.9132909033483791 4.971793853511528 -0.83867057594974714 0 -0.54463902268945019 0.13615975567236255 0 -0.20966764398743679 1 I I -0.70710678118654746 0.70710678118654746 0.25 forward I I I I #
loop $-1 $-1 $257 $64 #
coedge $-1 $162 $162 $258 $259 reversed $102 $-1 #
face $-1 $260 $261 $39 $-1 $262 reversed single #
loop $-1 $-1 $263 $104 #
plane-surface $-1 0 -20.031429208547976 0 0 1 0 0 0 1 forward_v I I I I #
coedge $-1 $264 $265 $266 $267 forward $105 $-1 #
coedge $-1 $268 $107 $269 $270 forward $66 $-1 #
coedge $-1 $107 $268 $271 $272 forward $66 $-1 #
coedge $-1 $273 $274 $107 $170 reversed $275 $-1 #
edge $-1 $276 -20.031429208547976 $277 20.031429208547976 $169 $278 forward 7 unknown #
face $-1 $279 $280 $40 $-1 $281 reversed single #
loop $-1 $-1 $282 $108 #
plane-surface $-1 0 0 8.1276238693699554 0 0 1 1 0 0 forward_v I I I I #
coedge $-1 $283 $284 $285 $286 reversed $109 $-1 #
coedge $-1 $287 $111 $288 $289 reversed $69 $-1 #
coedge $-1 $111 $287 $290 $291 reversed $69 $-1 #
coedge $-1 $284 $283 $111 $178 reversed $109 $-1 #
edge $-1 $292 -8.1276238693699554 $293 8.1276238693699554 $177 $294 forward 7 unknown #
face $-1 $295 $296 $41 $-1 $297 reversed single #
loop $-1 $-1 $298 $112 #
plane-surface $-1 0 0 -8.1276238693699554 0 0 1 1 0 0 forward_v I I I I #
coedge $-1 $299 $300 $301 $302 forward $113 $-1 #
coedge $-1 $301 $115 $303 $304 reversed $72 $-1 #
coedge $-1 $115 $301 $305 $306 reversed $72 $-1 #
coedge $-1 $307 $308 $115 $186 forward $296 $-1 #
edge $-1 $309 -8.1276238693699554 $310 8.1276238693699554 $185 $311 forward 7 unknown #
face $-1 $312 $313 $42 $-1 $314 forward single #
loop $-1 $-1 $315 $116 #
plane-surface $-1 0 0 8.1276238693699554 0 0 1 1 0 0 forward_v I I I I #
coedge $-1 $316 $317 $318 $319 reversed $117 $-1 #
coedge $-1 $320 $119 $321 $322 reversed $75 $-1 #
coedge $-1 $119 $320 $316 $323 forward $75 $-1 #
coedge $-1 $318 $324 $119 $194 forward $325 $-1 #
edge $-1 $326 -7.377452834176367 $327 -1.0672294139473149 $193 $328 forward 7 unknown #
loop $-1 $-1 $200 $120 #
plane-surface $-1 -49.667043061616866 8.4446822481236907 2.9062846919748182 -0.51503808176128008 0 0.85716729658548041 0.85716729658548041 0 0.51503808176128008 forward_v I I I I #
loop $-1 $-1 $329 $77 #
coedge $-1 $198 $198 $199 $330 reversed $121 $-1 #
coedge $-1 $199 $199 $198 $330 forward $123 $-1 #
coedge $-1 $200 $200 $124 $201 forward $195 $-1 #
edge $-1 $331 0 $331 6.2831853071796004 $200 $332 forward 7 unknown #
loop $-1 $-1 $207 $125 #
plane-surface $-1 -49.667043061616866 8.4446822481236907 2.9062846919748182 -0.51503808176128008 0 0.85716729658548041 0.85716729658548041 0 0.51503808176128008 forward_v I I I I #
loop $-1 $-1 $333 $80 #
coedge $-1 $205 $205 $206 $334 reversed $126 $-1 #
coedge $-1 $206 $206 $205 $334 forward $128 $-1 #
coedge $-1 $207 $207 $129 $208 forward $202 $-1 #
edge $-1 $335 0 $335 6.2831853071796004 $207 $336 forward 7 unknown #
loop $-1 $-1 $214 $130 #
plane-surface $-1 -49.667043061616866 8.4446822481236907 2.9062846919748182 -0.51503808176128008 0 0.85716729658548041 0.85716729658548041 0 0.51503808176128008 forward_v I I I I #
loop $-1 $-1 $337 $83 #
coedge $-1 $212 $212 $213 $338 reversed $131 $-1 #
coedge $-1 $213 $213 $212 $338 forward $133 $-1 #
coedge $-1 $214 $214 $134 $215 forward $209 $-1 #
edge $-1 $339 0 $339 6.2831853071796004 $214 $340 forward 7 unknown #
face $-1 $341 $342 $46 $-1 $343 reversed single #
loop $-1 $-1 $344 $135 #
plane-surface $-1 78.874398696123379 -11.599793958238216 140.90462875128603 0 1 0 0.83867057594974714 0 0.54463902268945019 forward_v I I I I #
coedge $-1 $345 $346 $347 $348 reversed $136 $-1 #
coedge $-1 $221 $138 $349 $350 reversed $87 $-1 #
coedge $-1 $138 $220 $345 $351 reversed $87 $-1 #
coedge $-1 $347 $352 $138 $223 forward $353 $-1 #
edge $-1 $354 -10.229843713555177 $355 -7.2212748557571587 $222 $356 forward 7 unknown #
loop $-1 $-1 $229 $139 #
plane-surface $-1 -4.4341765242908338 -8.6484136121809989 86.803409165378326 0.83867057594974714 0 0.54463902268945019 0.54463902268945019 0 -0.83867057594974714 forward_v I I I I #
loop $-1 $-1 $357 $89 #
coedge $-1 $227 $227 $228 $358 reversed $140 $-1 #
coedge $-1 $228 $228 $227 $358 forward $142 $-1 #
coedge $-1 $229 $229 $143 $230 forward $224 $-1 #
edge $-1 $359 0 $359 6.2831853071796004 $229 $360 forward 7 unknown #
loop $-1 $-1 $236 $144 #
plane-surface $-1 -4.4341765242908338 -8.6484136121809989 86.803409165378326 0.83867057594974714 0 0.54463902268945019 0.54463902268945019 0 -0.83867057594974714 forward_v I I I I #
loop $-1 $-1 $361 $92 #
coedge $-1 $234 $234 $235 $362 reversed $145 $-1 #
coedge $-1 $235 $235 $234 $362 forward $147 $-1 #
coedge $-1 $236 $236 $148 $237 forward $231 $-1 #
edge $-1 $363 0 $363 6.2831853071796004 $236 $364 forward 7 unknown #
face $-1 $365 $366 $49 $-1 $367 reversed single #
loop $-1 $-1 $368 $149 #
plane-surface $-1 78.874398696123379 5.6970332661237864 140.90462875128603 0 1 0 0.83867057594974714 0 0.54463902268945019 forward_v I I I I #
coedge $-1 $369 $370 $371 $372 reversed $150 $-1 #
coedge $-1 $243 $152 $373 $374 reversed $96 $-1 #
coedge $-1 $152 $242 $369 $375 reversed $96 $-1 #
coedge $-1 $371 $376 $152 $245 forward $377 $-1 #
edge $-1 $378 -10.229843713555177 $379 -7.2212748557571587 $244 $380 forward 7 unknown #
loop $-1 $-1 $251 $153 #
plane-surface $-1 -4.4341765242908338 8.6484136121810025 86.803409165378326 0.83867057594974714 0 0.54463902268945019 0.54463902268945019 0 -0.83867057594974714 forward_v I I I I #
loop $-1 $-1 $381 $98 #
coedge $-1 $249 $249 $250 $382 reversed $154 $-1 #
coedge $-1 $250 $250 $249 $382 forward $156 $-1 #
coedge $-1 $251 $251 $157 $252 forward $246 $-1 #
edge $-1 $383 0 $383 6.2831853071796004 $251 $384 forward 7 unknown #
loop $-1 $-1 $258 $158 #
plane-surface $-1 -4.4341765242908338 8.6484136121810025 86.803409165378326 0.83867057594974714 0 0.54463902268945019 0.54463902268945019 0 -0.83867057594974714 forward_v I I I I #
loop $-1 $-1 $385 $101 #
coedge $-1 $256 $256 $257 $386 reversed $159 $-1 #
coedge $-1 $257 $257 $256 $386 forward $161 $-1 #
coedge $-1 $258 $258 $162 $259 forward $253 $-1 #
edge $-1 $387 0 $387 6.2831853071796004 $258 $388 forward 7 unknown #
face $-1 $389 $390 $39 $-1 $391 reversed single #
loop $-1 $-1 $392 $163 #
plane-surface $-1 -49.667043061616866 0 0 1 0 0 0 0 -1 forward_v I I I I #
coedge $-1 $393 $271 $394 $395 forward $164 $-1 #
coedge $-1 $396 $166 $393 $397 forward $105 $-1 #
coedge $-1 $166 $396 $398 $399 forward $105 $-1 #
coedge $-1 $274 $273 $166 $267 reversed $275 $-1 #
edge $-1 $400 -20.031429208547976 $401 20.031429208547976 $266 $402 forward 7 unknown #
coedge $-1 $168 $167 $403 $404 forward $66 $-1 #
coedge $-1 $405 $406 $167 $270 reversed $390 $-1 #
edge $-1 $277 -49.667043061616866 $407 49.667043061616866 $269 $408 forward 7 unknown #
coedge $-1 $263 $409 $168 $272 reversed $164 $-1 #
edge $-1 $410 -49.667043061616866 $276 49.667043061616866 $271 $411 forward 7 unknown #
coedge $-1 $266 $169 $409 $412 forward $275 $-1 #
coedge $-1 $169 $266 $405 $413 reversed $275 $-1 #
loop $-1 $-1 $273 $389 #
vertex $-1 $170 $414 #
vertex $-1 $170 $415 #
straight-curve $-1 49.667043061616866 0 8.1276238693699554 0 1 0 I I #
face $-1 $416 $417 $40 $-1 $418 reversed single #
loop $-1 $-1 $419 $171 #
plane-surface $-1 -49.667043061616866 0 0 1 0 0 0 0 -1 forward_v I I I I #
coedge $-1 $290 $420 $284 $421 forward $172 $-1 #
coedge $-1 $177 $174 $422 $423 reversed $109 $-1 #
coedge $-1 $174 $177 $282 $421 reversed $109 $-1 #
coedge $-1 $424 $425 $174 $286 forward $426 $-1 #
edge $-1 $427 -8.1276238693699554 $428 8.1276238693699554 $285 $429 forward 7 unknown #
coedge $-1 $176 $175 $419 $430 reversed $69 $-1 #
coedge $-1 $422 $431 $175 $289 forward $417 $-1 #
edge $-1 $432 -25.583521530808433 $293 -22.583521530808433 $288 $433 forward 7 unknown #
coedge $-1 $434 $282 $176 $291 forward $172 $-1 #
edge $-1 $292 22.583521530808433 $435 25.583521530808433 $290 $436 forward 7 unknown #
vertex $-1 $291 $437 #
vertex $-1 $289 $438 #
straight-curve $-1 -46.667043061616866 -11.599793958238216 0 0 0 -1 I I #
face $-1 $439 $440 $41 $-1 $441 forward single #
loop $-1 $-1 $185 $179 #
plane-surface $-1 -49.667043061616866 0 0 1 0 0 0 0 -1 forward_v I I I I #
coedge $-1 $303 $442 $299 $443 forward $180 $-1 #
coedge $-1 $444 $182 $298 $443 reversed $113 $-1 #
coedge $-1 $182 $444 $445 $446 reversed $113 $-1 #
coedge $-1 $184 $183 $182 $302 reversed $72 $-1 #
edge $-1 $447 -8.1276238693699554 $448 8.1276238693699554 $182 $449 forward 7 unknown #
coedge $-1 $450 $298 $183 $304 forward $180 $-1 #
edge $-1 $448 22.583521530808433 $309 25.583521530808433 $303 $451 forward 7 unknown #
coedge $-1 $445 $452 $184 $306 forward $440 $-1 #
edge $-1 $310 -25.583521530808433 $447 -22.583521530808433 $305 $453 forward 7 unknown #
coedge $-1 $454 $185 $452 $455 reversed $296 $-1 #
coedge $-1 $185 $454 $450 $456 reversed $296 $-1 #
vertex $-1 $456 $457 #
vertex $-1 $186 $458 #
straight-curve $-1 -49.667043061616866 11.599793958238212 0 0 0 1 I I #
face $-1 $-1 $325 $42 $-1 $459 reversed single #
loop $-1 $-1 $321 $187 #
plane-surface $-1 -48.167043061616866 11.599793958238212 0 0 1 0 0 0 1 forward_v I I I I #
coedge $-1 $460 $461 $317 $462 forward $188 $-1 #
coedge $-1 $317 $190 $192 $323 reversed $117 $-1 #
coedge $-1 $190 $316 $315 $462 reversed $117 $-1 #
coedge $-1 $463 $193 $190 $319 forward $325 $-1 #
edge $-1 $327 -41.119822684533361 $464 -35.898483507138224 $318 $465 forward 7 unknown #
coedge $-1 $192 $191 $460 $466 reversed $75 $-1 #
coedge $-1 $467 $468 $191 $322 forward $313 $-1 #
edge $-1 $469 -10.243321209192482 $326 -0.10554817396432914 $321 $470 forward 7 unknown #
edge $-1 $471 -10.137773035228154 $327 0 $316 $472 forward 7 unknown #
coedge $-1 $193 $463 $467 $473 forward $325 $-1 #
loop $-1 $-1 $318 $312 #
vertex $-1 $322 $474 #
vertex $-1 $194 $475 #
straight-curve $-1 -49.667043061616866 4.2223411240618454 2.9062846919748164 0 -1 0 I I #
coedge $-1 $329 $329 $-1 $476 reversed $197 $-1 #
edge $-1 $477 0 $477 6.2831853071796004 $198 $478 forward 7 unknown #
vertex $-1 $201 $479 #
ellipse-curve $-1 -45.322159308615014 6.5516152220549699 5.5169542806723886 -0.51503808176128008 0 0.85716729658548041 0.4285836482927402 0 0.25751904088064004 1 I I #
coedge $-1 $333 $333 $-1 $480 reversed $204 $-1 #
edge $-1 $481 0 $481 6.2831853071796004 $205 $482 forward 7 unknown #
vertex $-1 $208 $483 #
ellipse-curve $-1 -45.322159308615014 8.4446822481236872 5.5169542806723886 -0.51503808176128008 0 0.85716729658548041 0.4285836482927402 0 0.25751904088064004 1 I I #
coedge $-1 $337 $337 $-1 $484 reversed $211 $-1 #
edge $-1 $485 0 $485 6.2831853071796004 $212 $486 forward 7 unknown #
vertex $-1 $215 $487 #
ellipse-curve $-1 -45.322159308615014 10.337749274192404 5.5169542806723886 -0.51503808176128008 0 0.85716729658548041 0.4285836482927402 0 0.25751904088064004 1 I I #
face $-1 $-1 $353 $46 $-1 $488 forward single #
loop $-1 $-1 $489 $216 #
plane-surface $-1 49.667043061616866 0 0 -1 0 0 0 0 1 forward_v I I I I #
coedge $-1 $490 $491 $492 $493 reversed $217 $-1 #
coedge $-1 $494 $219 $221 $351 forward $136 $-1 #
coedge $-1 $219 $494 $490 $495 forward $136 $-1 #
coedge $-1 $492 $222 $219 $348 forward $353 $-1 #
edge $-1 $355 1.3728264600332833 $496 7.2755871521477165 $347 $497 forward 7 unknown #
coedge $-1 $498 $499 $220 $350 forward $342 $-1 #
edge $-1 $500 -66.957480430678899 $354 -62.324690506273058 $349 $501 forward 7 unknown #
edge $-1 $355 93.810117526673068 $500 99.334086123233732 $221 $502 forward 7 unknown #
coedge $-1 $222 $492 $498 $503 forward $353 $-1 #
loop $-1 $-1 $492 $341 #
vertex $-1 $350 $504 #
vertex $-1 $223 $505 #
straight-curve $-1 39.437199348061689 -5.6970332661237828 8.1276238693699554 -1 0 0 I I #
coedge $-1 $357 $357 $-1 $506 reversed $226 $-1 #
edge $-1 $507 0 $507 6.2831853071796004 $227 $508 forward 7 unknown #
vertex $-1 $230 $509 #
ellipse-curve $-1 48.162758632717861 -9.9132909033483774 5.8112289071670142 0.83867057594974714 0 0.54463902268945019 0.2723195113447251 0 -0.41933528797487357 1 I I #
coedge $-1 $361 $361 $-1 $510 reversed $233 $-1 #
edge $-1 $511 0 $511 6.2831853071796004 $234 $512 forward 7 unknown #
vertex $-1 $237 $513 #
ellipse-curve $-1 48.162758632717861 -7.3835363210136222 5.8112289071670142 0.83867057594974714 0 0.54463902268945019 0.2723195113447251 0 -0.41933528797487357 1 I I #
face $-1 $-1 $377 $49 $-1 $514 forward single #
loop $-1 $-1 $515 $238 #
plane-surface $-1 49.667043061616866 0 0 -1 0 0 0 0 1 forward_v I I I I #
coedge $-1 $516 $517 $518 $519 reversed $239 $-1 #
coedge $-1 $520 $241 $243 $375 forward $150 $-1 #
coedge $-1 $241 $520 $516 $521 forward $150 $-1 #
coedge $-1 $518 $244 $241 $372 forward $377 $-1 #
edge $-1 $379 -7.2755871521477182 $522 -1.3728264600332851 $371 $523 forward 7 unknown #
coedge $-1 $524 $525 $242 $374 forward $366 $-1 #
edge $-1 $526 -66.957480430678899 $378 -62.324690506273058 $373 $527 forward 7 unknown #
edge $-1 $379 93.810117526673068 $526 99.334086123233732 $243 $528 forward 7 unknown #
coedge $-1 $244 $518 $524 $529 forward $377 $-1 #
loop $-1 $-1 $518 $365 #
vertex $-1 $374 $530 #
vertex $-1 $245 $531 #
straight-curve $-1 39.437199348061689 11.599793958238219 8.1276238693699554 -1 0 0 I I #
coedge $-1 $381 $381 $-1 $532 reversed $248 $-1 #
edge $-1 $533 0 $533 6.2831853071796004 $249 $534 forward 7 unknown #
vertex $-1 $252 $535 #
ellipse-curve $-1 48.162758632717861 7.3835363210136222 5.8112289071670142 0.83867057594974714 0 0.54463902268945019 0.2723195113447251 0 -0.41933528797487357 1 I I #
coedge $-1 $385 $385 $-1 $536 reversed $255 $-1 #
edge $-1 $537 0 $537 6.2831853071796004 $256 $538 forward 7 unknown #
vertex $-1 $259 $539 #
ellipse-curve $-1 48.162758632717861 9.9132909033483791 5.8112289071670142 0.83867057594974714 0 0.54463902268945019 0.2723195113447251 0 -0.41933528797487357 1 I I #
face $-1 $-1 $275 $39 $-1 $540 reversed single #
loop $-1 $-1 $405 $260 #
plane-surface $-1 0 20.031429208547976 0 0 -1 0 0 0 -1 forward_v I I I I #
coedge $-1 $541 $403 $406 $542 forward $261 $-1 #
coedge $-1 $409 $263 $264 $397 reversed $164 $-1 #
coedge $-1 $403 $541 $263 $395 reversed $261 $-1 #
edge $-1 $410 -8.1276238693699554 $543 8.1276238693699554 $394 $544 forward 7 unknown #
coedge $-1 $265 $264 $541 $545 forward $105 $-1 #
edge $-1 $401 -49.667043061616866 $543 49.667043061616866 $393 $546 forward 7 unknown #
coedge $-1 $406 $405 $265 $399 reversed $390 $-1 #
edge $-1 $547 -49.667043061616866 $400 49.667043061616866 $398 $548 forward 7 unknown #
vertex $-1 $267 $549 #
vertex $-1 $412 $550 #
straight-curve $-1 49.667043061616866 0 -8.1276238693699554 0 -1 0 I I #
coedge $-1 $392 $394 $268 $404 reversed $261 $-1 #
edge $-1 $407 -20.031429208547976 $410 20.031429208547976 $403 $551 forward 7 unknown #
coedge $-1 $398 $269 $274 $413 forward $390 $-1 #
coedge $-1 $269 $398 $392 $542 reversed $390 $-1 #
vertex $-1 $270 $552 #
straight-curve $-1 0 20.031429208547976 8.1276238693699554 -1 0 0 I I #
coedge $-1 $271 $393 $273 $412 reversed $164 $-1 #
vertex $-1 $404 $553 #
straight-curve $-1 0 -20.031429208547976 8.1276238693699554 1 0 0 I I #
edge $-1 $276 -8.1276238693699554 $401 8.1276238693699554 $273 $554 forward 7 unknown #
edge $-1 $277 -8.1276238693699554 $400 8.1276238693699554 $274 $555 forward 7 unknown #
point $-1 49.667043061616866 -20.031429208547976 8.1276238693699554 #
point $-1 49.667043061616866 20.031429208547976 8.1276238693699554 #
face $-1 $-1 $426 $40 $-1 $556 reversed single #
loop $-1 $-1 $422 $279 #
plane-surface $-1 0 0 -8.1276238693699554 0 0 1 1 0 0 forward_v I I I I #
coedge $-1 $557 $558 $287 $430 forward $280 $-1 #
coedge $-1 $282 $434 $424 $559 forward $172 $-1 #
edge $-1 $428 -12.123623416851428 $292 -3.6919881665416678 $282 $560 forward 7 unknown #
coedge $-1 $561 $288 $283 $423 forward $417 $-1 #
edge $-1 $293 3.6919881665416678 $427 12.123623416851428 $422 $562 forward 7 unknown #
coedge $-1 $563 $285 $420 $559 reversed $426 $-1 #
coedge $-1 $285 $563 $561 $564 reversed $426 $-1 #
loop $-1 $-1 $285 $416 #
vertex $-1 $564 $565 #
vertex $-1 $286 $566 #
straight-curve $-1 -46.667043061616866 -20.031429208547976 0 0 0 1 I I #
edge $-1 $435 -8.1276238693699554 $432 8.1276238693699554 $419 $567 forward 7 unknown #
coedge $-1 $288 $561 $557 $568 forward $417 $-1 #
vertex $-1 $289 $569 #
straight-curve $-1 -24.083521530808433 -11.599793958238216 -8.1276238693699554 1 0 0 I I #
coedge $-1 $420 $290 $558 $570 forward $172 $-1 #
vertex $-1 $570 $571 #
straight-curve $-1 -24.083521530808433 -11.599793958238216 8.1276238693699554 -1 0 0 I I #
point $-1 -46.667043061616866 -11.599793958238216 8.1276238693699554 #
point $-1 -46.667043061616866 -11.599793958238216 -8.1276238693699554 #
face $-1 $-1 $572 $41 $-1 $573 reversed single #
loop $-1 $-1 $445 $295 #
plane-surface $-1 0 0 8.1276238693699554 0 0 1 1 0 0 forward_v I I I I #
coedge $-1 $298 $450 $574 $575 forward $180 $-1 #
edge $-1 $576 -12.123623416851427 $448 -3.6919881665416661 $298 $577 forward 7 unknown #
coedge $-1 $300 $299 $578 $579 reversed $113 $-1 #
coedge $-1 $580 $305 $300 $446 forward $440 $-1 #
edge $-1 $447 3.6919881665416661 $581 12.123623416851427 $445 $582 forward 7 unknown #
vertex $-1 $306 $583 #
vertex $-1 $304 $584 #
straight-curve $-1 -46.667043061616866 11.599793958238212 0 0 0 -1 I I #
coedge $-1 $442 $303 $308 $456 forward $180 $-1 #
straight-curve $-1 -24.083521530808433 11.599793958238212 -8.1276238693699554 -1 0 0 I I #
coedge $-1 $305 $580 $307 $455 forward $440 $-1 #
straight-curve $-1 -24.083521530808433 11.599793958238212 8.1276238693699554 1 0 0 I I #
coedge $-1 $308 $307 $585 $586 forward $296 $-1 #
edge $-1 $587 -20.031429208547976 $310 -11.599793958238212 $307 $588 forward 7 unknown #
edge $-1 $309 11.599793958238212 $589 20.031429208547976 $308 $590 forward 7 unknown #
point $-1 -49.667043061616866 11.599793958238212 -8.1276238693699554 #
point $-1 -49.667043061616866 11.599793958238212 8.1276238693699554 #
plane-surface $-1 -49.667043061616866 0 0 1 0 0 0 0 -1 forward_v I I I I #
coedge $-1 $591 $315 $320 $466 forward $188 $-1 #
coedge $-1 $315 $591 $463 $592 forward $188 $-1 #
edge $-1 $464 0.74689705440161447 $471 9.4366645604053119 $315 $593 forward 7 unknown #
coedge $-1 $324 $318 $461 $592 reversed $325 $-1 #
vertex $-1 $319 $594 #
straight-curve $-1 -49.667043061616866 5.2895705380091602 44.026107376508179 0 0 1 I I #
edge $-1 $471 1.0672294139473149 $469 7.3774528341763759 $460 $595 forward 7 unknown #
coedge $-1 $468 $321 $324 $473 reversed $313 $-1 #
coedge $-1 $321 $467 $591 $596 reversed $313 $-1 #
vertex $-1 $596 $597 #
straight-curve $-1 -49.757515504553403 11.599793958238212 2.8519233629228231 -0.85716729658548041 0 -0.51503808176128008 I I #
vertex $-1 $466 $598 #
straight-curve $-1 -49.667043061616866 5.2895705380091602 2.9062846919748182 -0.85716729658548041 0 -0.51503808176128008 I I #
edge $-1 $599 -8.1276238693699554 $326 -2.9062846919748182 $324 $600 forward 7 unknown #
point $-1 -49.667043061616866 11.599793958238212 2.9062846919748182 #
point $-1 -49.667043061616866 5.2895705380091602 2.9062846919748182 #
edge $-1 $601 1 $601 0 $329 $-1 forward 7 unknown #
vertex $-1 $330 $602 #
ellipse-curve $-1 -44.53490567404198 6.5516152220549699 4.2067442329679245 -0.51503808176128008 0 0.85716729658548041 0.4285836482927402 0 0.25751904088064004 1 I I #
point $-1 -44.893575660322277 6.5516152220549699 5.7744733215530264 #
edge $-1 $603 1 $603 0 $333 $-1 forward 7 unknown #
vertex $-1 $334 $604 #
ellipse-curve $-1 -44.53490567404198 8.4446822481236872 4.2067442329679245 -0.51503808176128008 0 0.85716729658548041 0.4285836482927402 0 0.25751904088064004 1 I I #
point $-1 -44.893575660322277 8.4446822481236872 5.7744733215530264 #
edge $-1 $605 1 $605 0 $337 $-1 forward 7 unknown #
vertex $-1 $338 $606 #
ellipse-curve $-1 -44.53490567404198 10.337749274192404 4.2067442329679245 -0.51503808176128008 0 0.85716729658548041 0.4285836482927402 0 0.25751904088064004 1 I I #
point $-1 -44.893575660322277 10.337749274192404 5.7744733215530264 #
plane-surface $-1 0 0 8.1276238693699554 0 0 1 1 0 0 forward_v I I I I #
coedge $-1 $499 $498 $491 $607 forward $342 $-1 #
coedge $-1 $491 $344 $346 $495 reversed $217 $-1 #
coedge $-1 $344 $490 $489 $607 reversed $217 $-1 #
coedge $-1 $352 $347 $344 $493 forward $353 $-1 #
edge $-1 $496 7.2212748557571587 $608 10.229843713555177 $492 $609 forward 7 unknown #
coedge $-1 $346 $345 $499 $610 reversed $136 $-1 #
edge $-1 $611 -99.334086123233732 $496 -93.810117526673068 $490 $612 forward 7 unknown #
vertex $-1 $348 $613 #
straight-curve $-1 46.658474203818841 -4.3242068060904995 8.1276238693699625 0 -1 0 I I #
coedge $-1 $489 $349 $352 $503 reversed $342 $-1 #
coedge $-1 $349 $489 $494 $610 forward $342 $-1 #
vertex $-1 $350 $614 #
straight-curve $-1 49.667043061616866 -5.6970332661237828 70.452314375643013 0 0 1 I I #
straight-curve $-1 -4.4341765242908338 -5.6970332661237828 86.803409165378326 0.54463902268945019 0 -0.83867057594974714 I I #
edge $-1 $608 -11.599793958238216 $354 -5.6970332661237828 $498 $615 forward 7 unknown #
point $-1 49.667043061616866 -5.6970332661237828 8.1276238693699554 #
point $-1 46.658474203818848 -5.6970332661237828 8.1276238693699554 #
edge $-1 $616 1 $616 0 $357 $-1 forward 7 unknown #
vertex $-1 $358 $617 #
ellipse-curve $-1 47.079809606593734 -9.9132909033483774 5.1079536091838902 0.83867057594974714 0 0.54463902268945019 0.2723195113447251 0 -0.41933528797487357 1 I I #
point $-1 48.435078144062601 -9.9132909033483774 5.3918936191921514 #
edge $-1 $618 1 $618 0 $361 $-1 forward 7 unknown #
vertex $-1 $362 $619 #
ellipse-curve $-1 47.079809606593734 -7.3835363210136222 5.1079536091838902 0.83867057594974714 0 0.54463902268945019 0.2723195113447251 0 -0.41933528797487357 1 I I #
point $-1 48.435078144062601 -7.3835363210136222 5.3918936191921514 #
plane-surface $-1 0 0 8.1276238693699554 0 0 1 1 0 0 forward_v I I I I #
coedge $-1 $525 $524 $517 $620 forward $366 $-1 #
coedge $-1 $517 $368 $370 $521 reversed $239 $-1 #
coedge $-1 $368 $516 $515 $620 reversed $239 $-1 #
coedge $-1 $376 $371 $368 $519 forward $377 $-1 #
edge $-1 $522 7.2212748557571587 $621 10.229843713555177 $518 $622 forward 7 unknown #
coedge $-1 $370 $369 $525 $623 reversed $150 $-1 #
edge $-1 $624 -99.334086123233732 $522 -93.810117526673068 $516 $625 forward 7 unknown #
vertex $-1 $372 $626 #
straight-curve $-1 46.658474203818841 4.3242068060905012 8.1276238693699625 0 -1 0 I I #
coedge $-1 $515 $373 $376 $529 reversed $366 $-1 #
coedge $-1 $373 $515 $520 $623 forward $366 $-1 #
vertex $-1 $374 $627 #
straight-curve $-1 49.667043061616866 11.599793958238219 70.452314375643013 0 0 1 I I #
straight-curve $-1 -4.4341765242908338 11.599793958238219 86.803409165378326 0.54463902268945019 0 -0.83867057594974714 I I #
edge $-1 $621 5.6970332661237864 $378 11.599793958238219 $524 $628 forward 7 unknown #
point $-1 49.667043061616866 11.599793958238219 8.1276238693699554 #
point $-1 46.658474203818848 11.599793958238219 8.1276238693699554 #
edge $-1 $629 1 $629 0 $381 $-1 forward 7 unknown #
vertex $-1 $382 $630 #
ellipse-curve $-1 47.079809606593734 7.3835363210136222 5.1079536091838902 0.83867057594974714 0 0.54463902268945019 0.2723195113447251 0 -0.41933528797487357 1 I I #
point $-1 48.435078144062601 7.3835363210136222 5.3918936191921514 #
edge $-1 $631 1 $631 0 $385 $-1 forward 7 unknown #
vertex $-1 $386 $632 #
ellipse-curve $-1 47.079809606593734 9.9132909033483791 5.1079536091838902 0.83867057594974714 0 0.54463902268945019 0.2723195113447251 0 -0.41933528797487357 1 I I #
point $-1 48.435078144062601 9.9132909033483791 5.3918936191921514 #
plane-surface $-1 49.667043061616866 0 0 -1 0 0 0 0 1 forward_v I I I I #
coedge $-1 $394 $392 $396 $545 reversed $261 $-1 #
edge $-1 $407 -8.1276238693699554 $547 8.1276238693699554 $406 $633 forward 7 unknown #
vertex $-1 $545 $634 #
straight-curve $-1 -49.667043061616866 -20.031429208547976 0 0 0 -1 I I #
edge $-1 $543 -20.031429208547976 $547 20.031429208547976 $541 $635 forward 7 unknown #
straight-curve $-1 0 -20.031429208547976 -8.1276238693699554 -1 0 0 I I #
vertex $-1 $399 $636 #
straight-curve $-1 0 20.031429208547976 -8.1276238693699554 1 0 0 I I #
point $-1 49.667043061616866 20.031429208547976 -8.1276238693699554 #
point $-1 49.667043061616866 -20.031429208547976 -8.1276238693699554 #
straight-curve $-1 -49.667043061616866 0 8.1276238693699554 0 -1 0 I I #
point $-1 -49.667043061616866 20.031429208547976 8.1276238693699554 #
point $-1 -49.667043061616866 -20.031429208547976 8.1276238693699554 #
straight-curve $-1 49.667043061616866 -20.031429208547976 0 0 0 -1 I I #
straight-curve $-1 49.667043061616866 20.031429208547976 0 0 0 -1 I I #
plane-surface $-1 0 -20.031429208547976 0 0 1 0 0 0 1 forward_v I I I I #
coedge $-1 $637 $419 $431 $568 reversed $280 $-1 #
coedge $-1 $419 $637 $434 $570 reversed $280 $-1 #
edge $-1 $638 -49.667043061616866 $428 -46.667043061616866 $424 $639 forward 7 unknown #
straight-curve $-1 -46.667043061616866 -7.9078057916965481 8.1276238693699554 0 1 0 I I #
coedge $-1 $431 $422 $425 $564 forward $417 $-1 #
straight-curve $-1 -46.667043061616866 -7.9078057916965481 -8.1276238693699554 0 -1 0 I I #
coedge $-1 $425 $424 $637 $640 forward $426 $-1 #
edge $-1 $427 46.667043061616866 $641 49.667043061616866 $425 $642 forward 7 unknown #
point $-1 -46.667043061616866 -20.031429208547976 -8.1276238693699554 #
point $-1 -46.667043061616866 -20.031429208547976 8.1276238693699554 #
straight-curve $-1 -49.667043061616866 -11.599793958238216 0 0 0 -1 I I #
edge $-1 $641 -20.031429208547976 $432 -11.599793958238216 $557 $643 forward 7 unknown #
point $-1 -49.667043061616866 -11.599793958238216 -8.1276238693699554 #
edge $-1 $435 11.599793958238216 $638 20.031429208547976 $558 $644 forward 7 unknown #
point $-1 -49.667043061616866 -11.599793958238216 8.1276238693699554 #
loop $-1 $-1 $578 $439 #
plane-surface $-1 0 20.031429208547976 0 0 -1 0 0 0 -1 forward_v I I I I #
coedge $-1 $585 $578 $442 $575 reversed $572 $-1 #
edge $-1 $589 -49.667043061616866 $576 -46.667043061616866 $574 $645 forward 7 unknown #
vertex $-1 $443 $646 #
straight-curve $-1 -46.667043061616866 7.9078057916965463 -8.1276238693699554 0 -1 0 I I #
coedge $-1 $574 $647 $444 $579 forward $572 $-1 #
edge $-1 $581 -8.1276238693699554 $576 8.1276238693699554 $578 $648 forward 7 unknown #
coedge $-1 $452 $445 $647 $649 forward $440 $-1 #
vertex $-1 $649 $650 #
straight-curve $-1 -46.667043061616866 7.9078057916965463 8.1276238693699554 0 1 0 I I #
point $-1 -46.667043061616866 11.599793958238212 8.1276238693699554 #
point $-1 -46.667043061616866 11.599793958238212 -8.1276238693699554 #
coedge $-1 $647 $574 $454 $586 reversed $572 $-1 #
edge $-1 $587 -8.1276238693699554 $589 8.1276238693699554 $585 $651 forward 7 unknown #
vertex $-1 $649 $652 #
straight-curve $-1 -49.667043061616866 0 8.1276238693699554 0 -1 0 I I #
vertex $-1 $575 $653 #
straight-curve $-1 -49.667043061616866 0 -8.1276238693699554 0 1 0 I I #
coedge $-1 $461 $460 $468 $596 forward $188 $-1 #
edge $-1 $599 -11.599793958238212 $464 -5.2895705380091602 $463 $654 forward 7 unknown #
straight-curve $-1 -50.41394011601848 5.2895705380091602 8.1276238693699554 1 0 0 I I #
point $-1 -49.667043061616866 5.2895705380091602 8.1276238693699554 #
straight-curve $-1 -40.977275555613176 4.2223411240618454 8.1276238693699554 0 1 0 I I #
edge $-1 $469 16.893754024804736 $599 25.583521530808433 $591 $655 forward 7 unknown #
point $-1 -40.977275555613168 11.599793958238221 8.1276238693699554 #
point $-1 -40.977275555613168 5.2895705380091602 8.1276238693699554 #
vertex $-1 $592 $656 #
straight-curve $-1 -49.667043061616866 11.599793958238212 0 0 0 -1 I I #
vertex $-1 $476 $657 #
point $-1 -44.106322025749243 6.5516152220549699 4.464263273848565 #
vertex $-1 $480 $658 #
point $-1 -44.106322025749243 8.4446822481236872 4.464263273848565 #
vertex $-1 $484 $659 #
point $-1 -44.106322025749243 10.337749274192404 4.464263273848565 #
edge $-1 $608 62.324690506273058 $611 66.957480430678899 $489 $660 forward 7 unknown #
vertex $-1 $503 $661 #
straight-curve $-1 39.437199348061689 -11.599793958238216 8.1276238693699554 1 0 0 I I #
edge $-1 $611 -7.2755871521477165 $500 -1.3728264600332833 $499 $662 forward 7 unknown #
vertex $-1 $610 $663 #
straight-curve $-1 -4.4341765242908338 -11.599793958238216 86.803409165378326 -0.54463902268945019 0 0.83867057594974714 I I #
point $-1 46.658474203818848 -11.599793958238216 8.1276238693699554 #
point $-1 49.667043061616859 -5.6970332661237828 3.4948339449641139 #
straight-curve $-1 49.667043061616866 0 8.1276238693699554 0 1 0 I I #
vertex $-1 $506 $664 #
point $-1 47.35212911793846 -9.9132909033483774 4.6886183212090167 #
vertex $-1 $510 $665 #
point $-1 47.35212911793846 -7.3835363210136222 4.6886183212090167 #
edge $-1 $621 62.324690506273058 $624 66.957480430678899 $515 $666 forward 7 unknown #
vertex $-1 $529 $667 #
straight-curve $-1 39.437199348061689 5.6970332661237864 8.1276238693699554 1 0 0 I I #
edge $-1 $624 1.3728264600332851 $526 7.2755871521477182 $525 $668 forward 7 unknown #
vertex $-1 $623 $669 #
straight-curve $-1 -4.4341765242908338 5.6970332661237864 86.803409165378326 -0.54463902268945019 0 0.83867057594974714 I I #
point $-1 46.658474203818848 5.6970332661237864 8.1276238693699554 #
point $-1 49.667043061616859 11.599793958238219 3.4948339449641139 #
straight-curve $-1 49.667043061616866 0 8.1276238693699554 0 1 0 I I #
vertex $-1 $532 $670 #
point $-1 47.35212911793846 7.3835363210136222 4.6886183212090167 #
vertex $-1 $536 $671 #
point $-1 47.35212911793846 9.9132909033483791 4.6886183212090167 #
straight-curve $-1 -49.667043061616866 20.031429208547976 0 0 0 -1 I I #
point $-1 -49.667043061616866 -20.031429208547976 -8.1276238693699554 #
straight-curve $-1 -49.667043061616866 0 -8.1276238693699554 0 1 0 I I #
point $-1 -49.667043061616866 20.031429208547976 -8.1276238693699554 #
coedge $-1 $558 $557 $563 $640 reversed $280 $-1 #
vertex $-1 $570 $672 #
straight-curve $-1 0 -20.031429208547976 8.1276238693699554 1 0 0 I I #
edge $-1 $638 -8.1276238693699554 $641 8.1276238693699554 $637 $673 forward 7 unknown #
vertex $-1 $568 $674 #
straight-curve $-1 0 -20.031429208547976 -8.1276238693699554 -1 0 0 I I #
straight-curve $-1 -49.667043061616866 0 -8.1276238693699554 0 1 0 I I #
straight-curve $-1 -49.667043061616866 0 8.1276238693699554 0 -1 0 I I #
straight-curve $-1 0 20.031429208547976 -8.1276238693699554 1 0 0 I I #
point $-1 -46.667043061616866 20.031429208547973 -8.1276238693699554 #
coedge $-1 $578 $585 $580 $649 reversed $572 $-1 #
straight-curve $-1 -46.667043061616866 20.031429208547976 0 0 0 -1 I I #
edge $-1 $581 46.667043061616866 $587 49.667043061616866 $647 $675 forward 7 unknown #
point $-1 -46.667043061616866 20.031429208547973 8.1276238693699554 #
straight-curve $-1 -49.667043061616866 20.031429208547976 0 0 0 -1 I I #
point $-1 -49.667043061616866 20.031429208547976 8.1276238693699554 #
point $-1 -49.667043061616866 20.031429208547976 -8.1276238693699554 #
straight-curve $-1 -49.667043061616866 0 8.1276238693699554 0 -1 0 I I #
straight-curve $-1 -24.083521530808433 11.599793958238212 8.1276238693699554 -1 0 0 I I #
point $-1 -49.667043061616866 11.599793958238212 8.1276238693699554 #
point $-1 -44.277386633161342 6.5516152220549699 3.7781605846751845 #
point $-1 -44.277386633161342 8.4446822481236872 3.7781605846751845 #
point $-1 -44.277386633161342 10.337749274192404 3.7781605846751845 #
straight-curve $-1 49.667043061616866 -11.599793958238216 70.452314375643013 0 0 -1 I I #
point $-1 49.667043061616866 -11.599793958238216 8.1276238693699554 #
straight-curve $-1 49.667043061616866 -4.3242068060904995 3.4948339449640997 0 1 0 I I #
point $-1 49.667043061616859 -11.599793958238216 3.4948339449641139 #
point $-1 46.66047431861886 -9.9132909033483774 4.8356340978391659 #
point $-1 46.66047431861886 -7.3835363210136222 4.8356340978391659 #
straight-curve $-1 49.667043061616866 5.6970332661237864 70.452314375643013 0 0 -1 I I #
point $-1 49.667043061616866 5.6970332661237864 8.1276238693699554 #
straight-curve $-1 49.667043061616866 4.3242068060905012 3.4948339449640997 0 1 0 I I #
point $-1 49.667043061616859 5.6970332661237864 3.4948339449641139 #
point $-1 46.66047431861886 7.3835363210136222 4.8356340978391659 #
point $-1 46.66047431861886 9.9132909033483791 4.8356340978391659 #
point $-1 -49.667043061616866 -20.031429208547976 8.1276238693699554 #
straight-curve $-1 -49.667043061616866 -20.031429208547976 0 0 0 -1 I I #
point $-1 -49.667043061616866 -20.031429208547976 -8.1276238693699554 #
straight-curve $-1 0 20.031429208547976 8.1276238693699554 -1 0 0 I I #
End-of-ACIS-data 