500 0 10 0           
7 Unknown 11 ACIS 5.0 NT 24 Thu Mar 25 22:41:19 1999 
-1 9.9999999999999995e-007 1e-010 
body $-1 $10 $-1 $11 #
body $-1 $12 $-1 $13 #
body $-1 $14 $-1 $15 #
body $-1 $16 $-1 $17 #
body $-1 $18 $-1 $19 #
body $-1 $20 $-1 $21 #
body $-1 $22 $-1 $23 #
body $-1 $24 $-1 $25 #
body $-1 $26 $-1 $27 #
body $-1 $28 $-1 $29 #
lump $-1 $-1 $30 $0 #
transform $-1 1 0 0 0 1 0 0 0 1 65.204626606036555 42.569962909928798 11.323321717897807 1 rotate no_reflect no_shear #
lump $-1 $-1 $31 $1 #
transform $-1 1 0 0 0 1 0 0 0 1 65.204626606036555 42.569962909928798 11.323321717897807 1 rotate no_reflect no_shear #
lump $-1 $-1 $32 $2 #
transform $-1 1 0 0 0 1 0 0 0 1 65.204626606036555 42.569962909928798 11.323321717897807 1 rotate no_reflect no_shear #
lump $-1 $-1 $33 $3 #
transform $-1 1 0 0 0 1 0 0 0 1 65.204626606036555 42.569962909928798 11.323321717897807 1 rotate no_reflect no_shear #
lump $-1 $-1 $34 $4 #
transform $-1 1 0 0 0 1 0 0 0 1 65.204626606036555 42.569962909928798 11.323321717897807 1 rotate no_reflect no_shear #
lump $-1 $-1 $35 $5 #
transform $-1 1 0 0 0 1 0 0 0 1 65.204626606036555 42.569962909928798 11.323321717897807 1 rotate no_reflect no_shear #
lump $-1 $-1 $36 $6 #
transform $-1 1 0 0 0 1 0 0 0 1 65.204626606036555 42.569962909928798 11.323321717897807 1 rotate no_reflect no_shear #
lump $-1 $-1 $37 $7 #
transform $-1 1 0 0 0 1 0 0 0 1 65.204626606036555 42.569962909928798 11.323321717897807 1 rotate no_reflect no_shear #
lump $-1 $-1 $38 $8 #
transform $-1 1 0 0 0 1 0 0 0 1 65.204626606036555 42.569962909928798 11.323321717897807 1 rotate no_reflect no_shear #
lump $-1 $-1 $39 $9 #
transform $-1 1 0 0 0 1 0 0 0 1 65.204626606036555 42.569962909928798 11.323321717897807 1 rotate no_reflect no_shear #
shell $-1 $-1 $-1 $40 $-1 $10 #
shell $-1 $-1 $-1 $41 $-1 $12 #
shell $-1 $-1 $-1 $42 $-1 $14 #
shell $-1 $-1 $-1 $43 $-1 $16 #
shell $-1 $-1 $-1 $44 $-1 $18 #
shell $-1 $-1 $-1 $45 $-1 $20 #
shell $-1 $-1 $-1 $46 $-1 $22 #
shell $-1 $-1 $-1 $47 $-1 $24 #
shell $-1 $-1 $-1 $48 $-1 $26 #
shell $-1 $-1 $-1 $49 $-1 $28 #
face $-1 $50 $51 $30 $-1 $52 reversed single #
face $-1 $53 $54 $31 $-1 $55 forward single #
face $-1 $56 $57 $32 $-1 $58 forward single #
face $-1 $59 $60 $33 $-1 $61 reversed single #
face $-1 $62 $63 $34 $-1 $64 forward single #
face $-1 $65 $66 $35 $-1 $67 forward single #
face $-1 $68 $69 $36 $-1 $70 reversed single #
face $-1 $71 $72 $37 $-1 $73 forward single #
face $-1 $74 $75 $38 $-1 $76 forward single #
face $-1 $77 $78 $39 $-1 $79 forward single #
face $-1 $80 $81 $30 $-1 $82 reversed single #
loop $-1 $-1 $83 $40 #
plane-surface $-1 0 42.569962909928798 0 0 -1 0 0 0 -1 forward_v I I I I #
face $-1 $84 $85 $31 $-1 $86 reversed single #
loop $-1 $-1 $87 $41 #
plane-surface $-1 0 -42.569962909928798 0 0 1 0 0 0 1 forward_v I I I I #
face $-1 $88 $89 $32 $-1 $90 reversed single #
loop $-1 $-1 $91 $42 #
plane-surface $-1 0 42.569962909928798 0 0 -1 0 0 0 -1 forward_v I I I I #
face $-1 $92 $93 $33 $-1 $94 reversed single #
loop $-1 $-1 $95 $43 #
plane-surface $-1 23.717684692349067 24.282924548540869 181.17730218442878 0 -1 0 -0.52991927123019833 0 -0.84804809178421925 forward_v I I I I #
face $-1 $96 $97 $34 $-1 $98 forward single #
loop $-1 $99 $100 $44 #
cone-surface $-1 55.30219675145625 11.738770673430452 3.1610487128364797 -0.52991927123019833 0 -0.84804809178421925 2.1201202294605483 0 -1.3247981780754958 1 I I 0 1 2.5 forward I I I I #
face $-1 $101 $102 $35 $-1 $103 forward single #
loop $-1 $104 $105 $45 #
cone-surface $-1 55.30219675145625 19.265262998496709 3.1610487128364797 -0.52991927123019833 0 -0.84804809178421925 2.1201202294605483 0 -1.3247981780754958 1 I I 0 1 2.5 forward I I I I #
face $-1 $106 $107 $36 $-1 $108 reversed single #
loop $-1 $-1 $109 $46 #
plane-surface $-1 -159.01319384835278 15.10030087563862 97.785117664118417 0 1 0 -0.71933980857756763 0 0.69465836192734942 forward_v I I I I #
face $-1 $110 $111 $37 $-1 $112 forward single #
loop $-1 $113 $114 $47 #
cone-surface $-1 -62.851735394128518 16.715809907746632 8.9119514018106223 0.71933980857756763 0 -0.69465836192734942 0.34732918096367471 0 0.35966990428878381 1 I I 0 1 0.5 forward I I I I #
face $-1 $115 $116 $38 $-1 $117 forward single #
loop $-1 $118 $119 $48 #
cone-surface $-1 -62.851735394128518 19.139073455908651 8.9119514018106223 0.71933980857756763 0 -0.69465836192734942 0.34732918096367471 0 0.35966990428878381 1 I I 0 1 0.5 forward I I I I #
face $-1 $120 $121 $39 $-1 $122 forward single #
loop $-1 $123 $124 $49 #
cone-surface $-1 -62.851735394128518 21.562337004070663 8.9119514018106223 0.71933980857756763 0 -0.69465836192734942 0.34732918096367471 0 0.35966990428878381 1 I I 0 1 0.5 forward I I I I #
face $-1 $125 $126 $30 $-1 $127 forward single #
loop $-1 $-1 $128 $50 #
plane-surface $-1 0 -42.569962909928798 0 0 1 0 0 0 1 forward_v I I I I #
coedge $-1 $129 $130 $131 $132 reversed $51 $-1 #
face $-1 $133 $134 $31 $-1 $135 reversed single #
loop $-1 $-1 $136 $53 #
plane-surface $-1 0 0 -11.323321717897807 0 0 1 1 0 0 forward_v I I I I #
coedge $-1 $137 $138 $139 $140 forward $54 $-1 #
face $-1 $141 $142 $32 $-1 $143 reversed single #
loop $-1 $-1 $144 $56 #
plane-surface $-1 0 0 -11.323321717897807 0 0 1 1 0 0 forward_v I I I I #
coedge $-1 $145 $146 $147 $148 forward $57 $-1 #
face $-1 $149 $150 $33 $-1 $151 reversed single #
loop $-1 $-1 $152 $59 #
plane-surface $-1 -45.388691731467119 15.502016835963573 70.583983846925122 0.52991927123019833 0 0.84804809178421925 0.84804809178421925 0 -0.52991927123019833 forward_v I I I I #
coedge $-1 $153 $154 $155 $156 reversed $60 $-1 #
face $-1 $-1 $157 $34 $-1 $158 forward single #
loop $-1 $159 $160 $62 #
cone-surface $-1 52.615585937709866 11.738770673430452 -1.138427259560709 -0.52991927123019833 0 -0.84804809178421925 1.0600601147302742 0 -0.66239908903774791 1 I I -0.70710678118654746 0.70710678118654746 1.25 forward I I I I #
loop $-1 $-1 $161 $44 #
coedge $-1 $100 $100 $162 $163 reversed $63 $-1 #
face $-1 $-1 $164 $35 $-1 $165 forward single #
loop $-1 $166 $167 $65 #
cone-surface $-1 52.615585937709866 19.265262998496709 -1.138427259560709 -0.52991927123019833 0 -0.84804809178421925 1.0600601147302742 0 -0.66239908903774791 1 I I -0.70710678118654746 0.70710678118654746 1.25 forward I I I I #
loop $-1 $-1 $168 $45 #
coedge $-1 $105 $105 $169 $170 reversed $66 $-1 #
face $-1 $171 $172 $36 $-1 $173 reversed single #
loop $-1 $-1 $174 $68 #
plane-surface $-1 -65.20462660603657 19.139073455908651 7.1952394476507777 -0.71933980857756763 0 0.69465836192734942 0.69465836192734942 0 0.71933980857756763 forward_v I I I I #
coedge $-1 $175 $176 $177 $178 reversed $69 $-1 #
face $-1 $-1 $179 $37 $-1 $180 forward single #
loop $-1 $181 $182 $71 #
cone-surface $-1 -62.312230537695342 16.715809907746632 8.3909576303651097 0.71933980857756763 0 -0.69465836192734942 0.17366459048183736 0 0.17983495214439191 1 I I -0.70710678118654746 0.70710678118654746 0.25 forward I I I I #
loop $-1 $-1 $183 $47 #
coedge $-1 $114 $114 $184 $185 reversed $72 $-1 #
face $-1 $-1 $186 $38 $-1 $187 forward single #
loop $-1 $188 $189 $74 #
cone-surface $-1 -62.312230537695342 19.139073455908651 8.3909576303651097 0.71933980857756763 0 -0.69465836192734942 0.17366459048183736 0 0.17983495214439191 1 I I -0.70710678118654746 0.70710678118654746 0.25 forward I I I I #
loop $-1 $-1 $190 $48 #
coedge $-1 $119 $119 $191 $192 reversed $75 $-1 #
face $-1 $-1 $193 $39 $-1 $194 forward single #
loop $-1 $195 $196 $77 #
cone-surface $-1 -62.312230537695342 21.562337004070663 8.3909576303651097 0.71933980857756763 0 -0.69465836192734942 0.17366459048183736 0 0.17983495214439191 1 I I -0.70710678118654746 0.70710678118654746 0.25 forward I I I I #
loop $-1 $-1 $197 $49 #
coedge $-1 $124 $124 $198 $199 reversed $78 $-1 #
face $-1 $200 $201 $30 $-1 $202 reversed single #
loop $-1 $-1 $203 $80 #
plane-surface $-1 0 0 11.323321717897807 0 0 1 1 0 0 forward_v I I I I #
coedge $-1 $204 $205 $206 $207 reversed $81 $-1 #
coedge $-1 $208 $83 $209 $210 reversed $51 $-1 #
coedge $-1 $83 $208 $211 $212 forward $51 $-1 #
coedge $-1 $213 $214 $83 $132 forward $201 $-1 #
edge $-1 $215 -65.204626606036555 $216 65.204626606036555 $83 $217 forward 7 unknown #
face $-1 $218 $219 $31 $-1 $220 reversed single #
loop $-1 $-1 $221 $84 #
plane-surface $-1 -46.266297973583789 -54.89044328592356 0 0 1 0 0 0 1 forward_v I I I I #
coedge $-1 $222 $223 $138 $224 forward $85 $-1 #
coedge $-1 $225 $87 $226 $227 reversed $54 $-1 #
coedge $-1 $87 $225 $136 $224 reversed $54 $-1 #
coedge $-1 $228 $229 $87 $140 reversed $219 $-1 #
edge $-1 $230 -11.323321717897807 $231 11.323321717897807 $139 $232 forward 7 unknown #
face $-1 $233 $234 $32 $-1 $235 reversed single #
loop $-1 $-1 $236 $88 #
plane-surface $-1 -49.474612776926634 48.730203097926186 0 1 0 0 0 0 -1 forward_v I I I I #
coedge $-1 $237 $238 $146 $239 forward $89 $-1 #
coedge $-1 $240 $91 $241 $242 reversed $57 $-1 #
coedge $-1 $91 $240 $144 $239 reversed $57 $-1 #
coedge $-1 $243 $244 $91 $148 reversed $245 $-1 #
edge $-1 $246 -11.323321717897807 $247 11.323321717897807 $147 $248 forward 7 unknown #
face $-1 $249 $250 $33 $-1 $251 forward single #
loop $-1 $-1 $252 $92 #
plane-surface $-1 23.717684692349067 6.7211091233862774 181.17730218442878 0 1 0 0.52991927123019833 0 0.84804809178421925 forward_v I I I I #
coedge $-1 $253 $254 $255 $256 reversed $93 $-1 #
coedge $-1 $154 $95 $257 $258 reversed $60 $-1 #
coedge $-1 $95 $153 $253 $259 reversed $60 $-1 #
coedge $-1 $255 $260 $95 $156 forward $250 $-1 #
edge $-1 $261 -53.345784259862022 $262 -37.589348000118584 $155 $263 forward 7 unknown #
loop $-1 $-1 $162 $96 #
plane-surface $-1 -45.388691731467119 15.502016835963573 70.583983846925122 0.52991927123019833 0 0.84804809178421925 0.84804809178421925 0 -0.52991927123019833 forward_v I I I I #
loop $-1 $-1 $264 $62 #
coedge $-1 $160 $160 $161 $265 reversed $97 $-1 #
coedge $-1 $161 $161 $160 $265 forward $99 $-1 #
coedge $-1 $162 $162 $100 $163 forward $157 $-1 #
edge $-1 $266 0 $266 6.2831853071796004 $162 $267 forward 7 unknown #
loop $-1 $-1 $169 $101 #
plane-surface $-1 -45.388691731467119 15.502016835963573 70.583983846925122 0.52991927123019833 0 0.84804809178421925 0.84804809178421925 0 -0.52991927123019833 forward_v I I I I #
loop $-1 $-1 $268 $65 #
coedge $-1 $167 $167 $168 $269 reversed $102 $-1 #
coedge $-1 $168 $168 $167 $269 forward $104 $-1 #
coedge $-1 $169 $169 $105 $170 forward $164 $-1 #
edge $-1 $270 0 $270 6.2831853071796004 $169 $271 forward 7 unknown #
face $-1 $272 $273 $36 $-1 $274 reversed single #
loop $-1 $-1 $275 $106 #
plane-surface $-1 -159.01319384835278 23.177846036178682 97.785117664118417 0 -1 0 0.71933980857756763 0 -0.69465836192734942 forward_v I I I I #
coedge $-1 $276 $277 $278 $279 reversed $107 $-1 #
coedge $-1 $176 $109 $280 $281 reversed $69 $-1 #
coedge $-1 $109 $175 $276 $282 reversed $69 $-1 #
coedge $-1 $278 $283 $109 $178 forward $284 $-1 #
edge $-1 $285 14.301970318139837 $286 18.288412933378339 $177 $287 forward 7 unknown #
loop $-1 $-1 $184 $110 #
plane-surface $-1 -65.20462660603657 19.139073455908651 7.1952394476507777 -0.71933980857756763 0 0.69465836192734942 0.69465836192734942 0 0.71933980857756763 forward_v I I I I #
loop $-1 $-1 $288 $71 #
coedge $-1 $182 $182 $183 $289 reversed $111 $-1 #
coedge $-1 $183 $183 $182 $289 forward $113 $-1 #
coedge $-1 $184 $184 $114 $185 forward $179 $-1 #
edge $-1 $290 0 $290 6.2831853071796004 $184 $291 forward 7 unknown #
loop $-1 $-1 $191 $115 #
plane-surface $-1 -65.20462660603657 19.139073455908651 7.1952394476507777 -0.71933980857756763 0 0.69465836192734942 0.69465836192734942 0 0.71933980857756763 forward_v I I I I #
loop $-1 $-1 $292 $74 #
coedge $-1 $189 $189 $190 $293 reversed $116 $-1 #
coedge $-1 $190 $190 $189 $293 forward $118 $-1 #
coedge $-1 $191 $191 $119 $192 forward $186 $-1 #
edge $-1 $294 0 $294 6.2831853071796004 $191 $295 forward 7 unknown #
loop $-1 $-1 $198 $120 #
plane-surface $-1 -65.20462660603657 19.139073455908651 7.1952394476507777 -0.71933980857756763 0 0.69465836192734942 0.69465836192734942 0 0.71933980857756763 forward_v I I I I #
loop $-1 $-1 $296 $77 #
coedge $-1 $196 $196 $197 $297 reversed $121 $-1 #
coedge $-1 $197 $197 $196 $297 forward $123 $-1 #
coedge $-1 $198 $198 $124 $199 forward $193 $-1 #
edge $-1 $298 0 $298 6.2831853071796004 $198 $299 forward 7 unknown #
face $-1 $300 $301 $30 $-1 $302 reversed single #
loop $-1 $-1 $213 $125 #
plane-surface $-1 0 0 -11.323321717897807 0 0 1 1 0 0 forward_v I I I I #
coedge $-1 $303 $304 $305 $306 forward $126 $-1 #
coedge $-1 $307 $128 $308 $309 reversed $81 $-1 #
coedge $-1 $128 $307 $310 $311 forward $81 $-1 #
coedge $-1 $214 $213 $128 $207 forward $201 $-1 #
edge $-1 $312 -65.204626606036555 $313 65.204626606036555 $128 $314 forward 7 unknown #
coedge $-1 $130 $129 $303 $315 reversed $51 $-1 #
coedge $-1 $316 $317 $129 $210 forward $301 $-1 #
edge $-1 $318 -11.323321717897807 $215 11.323321717897807 $129 $319 forward 7 unknown #
coedge $-1 $305 $320 $130 $212 reversed $321 $-1 #
edge $-1 $322 -11.323321717897807 $216 11.323321717897807 $211 $323 forward 7 unknown #
coedge $-1 $206 $131 $320 $324 forward $201 $-1 #
coedge $-1 $131 $206 $316 $325 forward $201 $-1 #
vertex $-1 $132 $326 #
vertex $-1 $324 $327 #
straight-curve $-1 0 42.569962909928798 -11.323321717897807 1 0 0 I I #
face $-1 $328 $329 $31 $-1 $330 reversed single #
loop $-1 $-1 $139 $133 #
plane-surface $-1 -49.474612776926634 -48.730203097926179 0 1 0 0 0 0 -1 forward_v I I I I #
coedge $-1 $331 $332 $333 $334 forward $134 $-1 #
coedge $-1 $335 $136 $336 $337 forward $85 $-1 #
coedge $-1 $136 $335 $228 $338 forward $85 $-1 #
edge $-1 $230 -49.474612776926634 $339 -43.057983170240945 $136 $340 forward 7 unknown #
coedge $-1 $138 $137 $341 $342 forward $54 $-1 #
coedge $-1 $343 $344 $137 $227 forward $345 $-1 #
edge $-1 $346 43.057983170240945 $231 49.474612776926634 $226 $347 forward 7 unknown #
coedge $-1 $333 $139 $223 $338 reversed $219 $-1 #
coedge $-1 $139 $333 $343 $348 reversed $219 $-1 #
vertex $-1 $224 $349 #
vertex $-1 $348 $350 #
straight-curve $-1 -49.474612776926634 -42.569962909928798 0 0 0 1 I I #
face $-1 $351 $245 $32 $-1 $352 reversed single #
loop $-1 $-1 $353 $141 #
plane-surface $-1 -46.266297973583789 54.890443285923567 0 0 -1 0 0 0 -1 forward_v I I I I #
coedge $-1 $354 $355 $356 $357 forward $142 $-1 #
coedge $-1 $358 $144 $354 $359 forward $89 $-1 #
coedge $-1 $144 $358 $243 $360 forward $89 $-1 #
edge $-1 $246 43.057983170240945 $361 49.474612776926634 $144 $362 forward 7 unknown #
coedge $-1 $146 $145 $363 $364 forward $57 $-1 #
coedge $-1 $365 $366 $145 $242 forward $367 $-1 #
edge $-1 $368 -49.474612776926634 $247 -43.057983170240945 $241 $369 forward 7 unknown #
coedge $-1 $370 $147 $238 $360 reversed $245 $-1 #
coedge $-1 $147 $370 $365 $371 reversed $245 $-1 #
loop $-1 $-1 $147 $233 #
vertex $-1 $239 $372 #
vertex $-1 $371 $373 #
straight-curve $-1 -43.057983170240945 42.569962909928798 0 0 0 1 I I #
face $-1 $-1 $374 $33 $-1 $375 reversed single #
loop $-1 $-1 $155 $149 #
plane-surface $-1 0 0 11.323321717897807 0 0 1 1 0 0 forward_v I I I I #
coedge $-1 $376 $377 $378 $379 reversed $150 $-1 #
coedge $-1 $380 $152 $154 $259 forward $93 $-1 #
coedge $-1 $152 $380 $376 $381 forward $93 $-1 #
coedge $-1 $378 $155 $152 $256 forward $250 $-1 #
edge $-1 $262 -16.531916130559082 $382 1.0298992945955092 $255 $383 forward 7 unknown #
coedge $-1 $384 $385 $153 $258 forward $374 $-1 #
edge $-1 $386 -89.111043669105456 $261 -79.265329374316579 $257 $387 forward 7 unknown #
edge $-1 $262 111.82960376484277 $386 130.40925321207311 $154 $388 forward 7 unknown #
coedge $-1 $155 $378 $384 $389 forward $250 $-1 #
vertex $-1 $156 $390 #
vertex $-1 $156 $391 #
straight-curve $-1 11.858842346174534 24.282924548540869 11.323321717897812 -1 0 0 I I #
coedge $-1 $264 $264 $-1 $392 reversed $159 $-1 #
edge $-1 $393 0 $393 6.2831853071796004 $160 $394 forward 7 unknown #
vertex $-1 $163 $395 #
ellipse-curve $-1 57.326408476164858 11.738770673430452 6.4004645705033569 0.52991927123019833 0 0.84804809178421925 2.1201202294605483 0 -1.3247981780754958 1 I I #
coedge $-1 $268 $268 $-1 $396 reversed $166 $-1 #
edge $-1 $397 0 $397 6.2831853071796004 $167 $398 forward 7 unknown #
vertex $-1 $170 $399 #
ellipse-curve $-1 57.326408476164858 19.265262998496709 6.4004645705033569 0.52991927123019833 0 0.84804809178421925 2.1201202294605483 0 -1.3247981780754958 1 I I #
face $-1 $-1 $284 $36 $-1 $400 forward single #
loop $-1 $-1 $401 $171 #
plane-surface $-1 -65.204626606036555 0 0 1 0 0 0 0 -1 forward_v I I I I #
coedge $-1 $402 $403 $404 $405 reversed $172 $-1 #
coedge $-1 $406 $174 $176 $282 forward $107 $-1 #
coedge $-1 $174 $406 $402 $407 forward $107 $-1 #
coedge $-1 $404 $177 $174 $279 forward $284 $-1 #
edge $-1 $286 5.5307641476842946 $408 13.608309308224356 $278 $409 forward 7 unknown #
coedge $-1 $410 $411 $175 $281 forward $273 $-1 #
edge $-1 $412 -41.697319384408416 $285 -37.569237114161403 $280 $413 forward 7 unknown #
edge $-1 $286 -5.7387096070909154 $412 -2.0733024663016622e-014 $176 $414 forward 7 unknown #
coedge $-1 $177 $404 $410 $415 forward $284 $-1 #
loop $-1 $-1 $404 $272 #
vertex $-1 $281 $416 #
vertex $-1 $178 $417 #
straight-curve $-1 -79.506596924176392 15.10030087563862 11.323321717897805 1 0 0 I I #
coedge $-1 $288 $288 $-1 $418 reversed $181 $-1 #
edge $-1 $419 0 $419 6.2831853071796004 $182 $420 forward 7 unknown #
vertex $-1 $185 $421 #
ellipse-curve $-1 -63.211405298417304 16.715809907746632 9.2592805827742986 -0.71933980857756763 0 0.69465836192734942 0.34732918096367471 0 0.35966990428878381 1 I I #
coedge $-1 $292 $292 $-1 $422 reversed $188 $-1 #
edge $-1 $423 0 $423 6.2831853071796004 $189 $424 forward 7 unknown #
vertex $-1 $192 $425 #
ellipse-curve $-1 -63.211405298417304 19.139073455908651 9.2592805827742986 -0.71933980857756763 0 0.69465836192734942 0.34732918096367471 0 0.35966990428878381 1 I I #
coedge $-1 $296 $296 $-1 $426 reversed $195 $-1 #
edge $-1 $427 0 $427 6.2831853071796004 $196 $428 forward 7 unknown #
vertex $-1 $199 $429 #
ellipse-curve $-1 -63.211405298417304 21.562337004070663 9.2592805827742986 -0.71933980857756763 0 0.69465836192734942 0.34732918096367471 0 0.35966990428878381 1 I I #
face $-1 $-1 $321 $30 $-1 $430 reversed single #
loop $-1 $-1 $209 $200 #
plane-surface $-1 -65.204626606036555 0 0 1 0 0 0 0 -1 forward_v I I I I #
coedge $-1 $431 $203 $208 $315 forward $126 $-1 #
coedge $-1 $203 $431 $307 $432 forward $126 $-1 #
coedge $-1 $308 $211 $203 $306 reversed $321 $-1 #
edge $-1 $433 -42.569962909928798 $322 42.569962909928798 $305 $434 forward 7 unknown #
coedge $-1 $205 $204 $304 $432 reversed $81 $-1 #
coedge $-1 $320 $305 $204 $309 forward $321 $-1 #
edge $-1 $433 -11.323321717897807 $312 11.323321717897807 $308 $435 forward 7 unknown #
coedge $-1 $317 $316 $205 $311 reversed $301 $-1 #
edge $-1 $436 -11.323321717897807 $313 11.323321717897807 $310 $437 forward 7 unknown #
vertex $-1 $309 $438 #
vertex $-1 $325 $439 #
straight-curve $-1 0 -42.569962909928798 -11.323321717897807 -1 0 0 I I #
edge $-1 $322 -65.204626606036555 $318 65.204626606036555 $208 $440 forward 7 unknown #
coedge $-1 $310 $209 $214 $325 reversed $301 $-1 #
coedge $-1 $209 $310 $431 $441 reversed $301 $-1 #
vertex $-1 $315 $442 #
straight-curve $-1 -65.204626606036555 42.569962909928798 0 0 0 -1 I I #
coedge $-1 $211 $308 $213 $324 reversed $321 $-1 #
loop $-1 $-1 $308 $300 #
vertex $-1 $306 $443 #
straight-curve $-1 65.204626606036555 42.569962909928798 0 0 0 -1 I I #
edge $-1 $216 -42.569962909928798 $312 42.569962909928798 $320 $444 forward 7 unknown #
edge $-1 $313 -42.569962909928798 $215 42.569962909928798 $316 $445 forward 7 unknown #
point $-1 -65.204626606036555 42.569962909928798 -11.323321717897807 #
point $-1 65.204626606036555 42.569962909928798 -11.323321717897807 #
face $-1 $-1 $345 $31 $-1 $446 forward single #
loop $-1 $-1 $447 $218 #
plane-surface $-1 -43.057983170240945 -48.730203097926179 0 -1 0 0 0 0 1 forward_v I I I I #
coedge $-1 $448 $221 $335 $449 reversed $134 $-1 #
coedge $-1 $221 $448 $450 $451 reversed $134 $-1 #
coedge $-1 $229 $228 $221 $334 reversed $219 $-1 #
edge $-1 $452 -11.323321717897807 $453 11.323321717897807 $333 $454 forward 7 unknown #
coedge $-1 $223 $222 $331 $449 forward $85 $-1 #
coedge $-1 $341 $447 $222 $337 reversed $329 $-1 #
edge $-1 $339 -6.1602401879973812 $455 6.1602401879973812 $336 $456 forward 7 unknown #
edge $-1 $453 -6.1602401879973812 $230 6.1602401879973812 $228 $457 forward 7 unknown #
vertex $-1 $337 $458 #
straight-curve $-1 0 -42.569962909928798 -11.323321717897807 1 0 0 I I #
coedge $-1 $459 $336 $225 $342 reversed $329 $-1 #
edge $-1 $346 -11.323321717897807 $339 11.323321717897807 $341 $460 forward 7 unknown #
coedge $-1 $450 $226 $229 $348 forward $345 $-1 #
coedge $-1 $226 $450 $459 $461 forward $345 $-1 #
loop $-1 $-1 $226 $328 #
vertex $-1 $227 $462 #
straight-curve $-1 0 -42.569962909928798 11.323321717897807 -1 0 0 I I #
edge $-1 $231 -6.1602401879973812 $452 6.1602401879973812 $229 $463 forward 7 unknown #
point $-1 -49.474612776926634 -42.569962909928798 -11.323321717897807 #
point $-1 -49.474612776926634 -42.569962909928798 11.323321717897807 #
face $-1 $-1 $367 $32 $-1 $464 forward single #
plane-surface $-1 -43.057983170240945 48.730203097926186 0 -1 0 0 0 0 1 forward_v I I I I #
coedge $-1 $465 $466 $370 $467 forward $234 $-1 #
coedge $-1 $363 $236 $237 $359 reversed $142 $-1 #
coedge $-1 $236 $363 $366 $468 reversed $142 $-1 #
coedge $-1 $466 $465 $236 $357 reversed $234 $-1 #
edge $-1 $469 -11.323321717897807 $470 11.323321717897807 $356 $471 forward 7 unknown #
coedge $-1 $238 $237 $465 $472 forward $89 $-1 #
edge $-1 $361 -6.1602401879973812 $470 6.1602401879973812 $354 $473 forward 7 unknown #
edge $-1 $474 -6.1602401879973812 $246 6.1602401879973812 $243 $475 forward 7 unknown #
vertex $-1 $359 $476 #
straight-curve $-1 0 42.569962909928798 -11.323321717897807 -1 0 0 I I #
coedge $-1 $355 $354 $240 $364 reversed $142 $-1 #
edge $-1 $368 -11.323321717897807 $361 11.323321717897807 $363 $477 forward 7 unknown #
coedge $-1 $478 $241 $244 $371 forward $367 $-1 #
coedge $-1 $241 $478 $355 $468 forward $367 $-1 #
loop $-1 $-1 $241 $351 #
vertex $-1 $242 $479 #
straight-curve $-1 0 42.569962909928798 11.323321717897807 1 0 0 I I #
coedge $-1 $244 $243 $353 $467 reversed $245 $-1 #
edge $-1 $247 -6.1602401879973812 $480 6.1602401879973812 $244 $481 forward 7 unknown #
point $-1 -43.057983170240945 42.569962909928805 -11.323321717897807 #
point $-1 -43.057983170240945 42.569962909928805 11.323321717897807 #
loop $-1 $-1 $257 $249 #
plane-surface $-1 65.204626606036555 0 0 -1 0 0 0 0 1 forward_v I I I I #
coedge $-1 $377 $252 $254 $381 reversed $150 $-1 #
coedge $-1 $252 $376 $482 $483 reversed $150 $-1 #
coedge $-1 $260 $255 $252 $379 forward $250 $-1 #
edge $-1 $382 37.589348000118584 $484 53.345784259862022 $378 $485 forward 7 unknown #
coedge $-1 $254 $253 $385 $486 reversed $93 $-1 #
edge $-1 $487 -130.40925321207311 $382 -111.82960376484277 $376 $488 forward 7 unknown #
vertex $-1 $256 $489 #
straight-curve $-1 49.448190346293117 7.7510084179817866 11.323321717897805 0 -1 0 I I #
coedge $-1 $482 $257 $260 $389 reversed $374 $-1 #
coedge $-1 $257 $482 $380 $486 forward $374 $-1 #
vertex $-1 $258 $490 #
straight-curve $-1 65.204626606036555 24.282924548540869 90.588651092214391 0 0 1 I I #
straight-curve $-1 -45.388691731467119 24.282924548540869 70.583983846925122 0.84804809178421925 0 -0.52991927123019833 I I #
edge $-1 $484 6.7211091233862774 $261 24.282924548540869 $384 $491 forward 7 unknown #
point $-1 65.204626606036555 24.282924548540869 11.323321717897807 #
point $-1 49.448190346293117 24.282924548540869 11.323321717897805 #
edge $-1 $492 1 $492 0 $264 $-1 forward 7 unknown #
vertex $-1 $265 $493 #
ellipse-curve $-1 53.277985026747615 11.738770673430452 -0.078367144830434832 0.52991927123019833 0 0.84804809178421925 2.1201202294605483 0 -1.3247981780754958 1 I I #
point $-1 59.446528705625425 11.738770673430452 5.0756663924278982 #
edge $-1 $494 1 $494 0 $268 $-1 forward 7 unknown #
vertex $-1 $269 $495 #
ellipse-curve $-1 53.277985026747615 19.265262998496709 -0.078367144830434832 0.52991927123019833 0 0.84804809178421925 2.1201202294605483 0 -1.3247981780754958 1 I I #
point $-1 59.446528705625425 19.265262998496709 5.0756663924278982 #
plane-surface $-1 0 0 11.323321717897807 0 0 1 1 0 0 forward_v I I I I #
coedge $-1 $411 $410 $403 $496 forward $273 $-1 #
coedge $-1 $403 $275 $277 $407 reversed $172 $-1 #
coedge $-1 $275 $402 $401 $496 reversed $172 $-1 #
coedge $-1 $283 $278 $275 $405 forward $284 $-1 #
edge $-1 $408 -18.288412933378339 $497 -14.301970318139837 $404 $498 forward 7 unknown #
coedge $-1 $277 $276 $411 $499 reversed $107 $-1 #
edge $-1 $500 2.0733024663016622e-014 $408 5.7387096070909154 $402 $501 forward 7 unknown #
vertex $-1 $279 $502 #
straight-curve $-1 -61.218183990798046 9.5695367279543255 11.323321717897807 0 1 0 I I #
coedge $-1 $401 $280 $283 $415 reversed $273 $-1 #
coedge $-1 $280 $401 $406 $499 forward $273 $-1 #
vertex $-1 $281 $503 #
straight-curve $-1 -65.204626606036555 15.10030087563862 48.892558832059208 0 0 1 I I #
straight-curve $-1 -65.20462660603657 15.10030087563862 7.1952394476507777 -0.69465836192734942 0 -0.71933980857756763 I I #
edge $-1 $497 -23.177846036178682 $285 -15.10030087563862 $410 $504 forward 7 unknown #
point $-1 -65.204626606036555 15.10030087563862 11.323321717897807 #
point $-1 -61.218183990798053 15.10030087563862 11.323321717897807 #
edge $-1 $505 1 $505 0 $288 $-1 forward 7 unknown #
vertex $-1 $289 $506 #
ellipse-curve $-1 -62.492065489839732 16.715809907746632 8.5646222208469478 -0.71933980857756763 0 0.69465836192734942 0.34732918096367471 0 0.35966990428878381 1 I I #
point $-1 -62.864076117453628 16.715809907746632 9.6189504870630795 #
edge $-1 $507 1 $507 0 $292 $-1 forward 7 unknown #
vertex $-1 $293 $508 #
ellipse-curve $-1 -62.492065489839732 19.139073455908651 8.5646222208469478 -0.71933980857756763 0 0.69465836192734942 0.34732918096367471 0 0.35966990428878381 1 I I #
point $-1 -62.864076117453628 19.139073455908651 9.6189504870630795 #
edge $-1 $509 1 $509 0 $296 $-1 forward 7 unknown #
vertex $-1 $297 $510 #
ellipse-curve $-1 -62.492065489839732 21.562337004070663 8.5646222208469478 -0.71933980857756763 0 0.69465836192734942 0.34732918096367471 0 0.35966990428878381 1 I I #
point $-1 -62.864076117453628 21.562337004070663 9.6189504870630795 #
plane-surface $-1 65.204626606036555 0 0 -1 0 0 0 0 1 forward_v I I I I #
coedge $-1 $304 $303 $317 $441 forward $126 $-1 #
edge $-1 $436 -65.204626606036555 $433 65.204626606036555 $307 $511 forward 7 unknown #
vertex $-1 $306 $512 #
straight-curve $-1 65.204626606036555 0 11.323321717897807 0 1 0 I I #
straight-curve $-1 65.204626606036555 -42.569962909928798 0 0 0 -1 I I #
vertex $-1 $441 $513 #
straight-curve $-1 -65.204626606036555 -42.569962909928798 0 0 0 -1 I I #
point $-1 65.204626606036555 -42.569962909928798 -11.323321717897807 #
point $-1 -65.204626606036555 -42.569962909928798 -11.323321717897807 #
straight-curve $-1 0 42.569962909928798 11.323321717897807 -1 0 0 I I #
edge $-1 $318 -42.569962909928798 $436 42.569962909928798 $317 $514 forward 7 unknown #
point $-1 -65.204626606036555 42.569962909928798 11.323321717897807 #
point $-1 65.204626606036555 42.569962909928798 11.323321717897807 #
straight-curve $-1 65.204626606036555 0 -11.323321717897807 0 -1 0 I I #
straight-curve $-1 -65.204626606036555 0 -11.323321717897807 0 1 0 I I #
plane-surface $-1 0 0 11.323321717897807 0 0 1 1 0 0 forward_v I I I I #
coedge $-1 $336 $459 $448 $515 forward $329 $-1 #
coedge $-1 $332 $331 $447 $515 reversed $134 $-1 #
edge $-1 $455 -3.2083148033428444 $453 3.2083148033428444 $331 $516 forward 7 unknown #
coedge $-1 $344 $343 $332 $451 forward $345 $-1 #
edge $-1 $452 -3.2083148033428444 $517 3.2083148033428444 $332 $518 forward 7 unknown #
vertex $-1 $348 $519 #
vertex $-1 $338 $520 #
straight-curve $-1 -49.474612776926634 -54.89044328592356 0 0 0 -1 I I #
vertex $-1 $515 $521 #
straight-curve $-1 -43.057983170240945 -48.730203097926179 -11.323321717897807 0 -1 0 I I #
straight-curve $-1 -49.474612776926634 -48.730203097926179 -11.323321717897807 0 1 0 I I #
point $-1 -43.057983170240945 -42.569962909928798 -11.323321717897807 #
coedge $-1 $447 $341 $344 $461 reversed $329 $-1 #
straight-curve $-1 -43.057983170240945 -42.569962909928798 0 0 0 -1 I I #
edge $-1 $517 -6.1602401879973812 $346 6.1602401879973812 $459 $522 forward 7 unknown #
point $-1 -43.057983170240945 -42.569962909928798 11.323321717897807 #
straight-curve $-1 -49.474612776926634 -48.730203097926179 11.323321717897807 0 -1 0 I I #
plane-surface $-1 0 0 11.323321717897807 0 0 1 1 0 0 forward_v I I I I #
coedge $-1 $356 $353 $358 $472 reversed $234 $-1 #
coedge $-1 $353 $356 $478 $523 reversed $234 $-1 #
edge $-1 $480 -11.323321717897807 $474 11.323321717897807 $370 $524 forward 7 unknown #
edge $-1 $469 -6.1602401879973812 $368 6.1602401879973812 $355 $525 forward 7 unknown #
vertex $-1 $523 $526 #
vertex $-1 $472 $527 #
straight-curve $-1 -49.474612776926634 54.890443285923567 0 0 0 -1 I I #
edge $-1 $470 -3.2083148033428444 $474 3.2083148033428444 $465 $528 forward 7 unknown #
straight-curve $-1 -49.474612776926634 48.730203097926186 -11.323321717897807 0 1 0 I I #
vertex $-1 $360 $529 #
straight-curve $-1 -43.057983170240945 48.730203097926186 -11.323321717897807 0 -1 0 I I #
point $-1 -49.474612776926634 42.569962909928805 -11.323321717897807 #
straight-curve $-1 -49.474612776926634 42.569962909928798 0 0 0 -1 I I #
coedge $-1 $366 $365 $466 $523 forward $367 $-1 #
point $-1 -49.474612776926634 42.569962909928805 11.323321717897807 #
vertex $-1 $371 $530 #
straight-curve $-1 -43.057983170240945 48.730203097926186 11.323321717897807 0 1 0 I I #
coedge $-1 $385 $384 $377 $483 forward $374 $-1 #
edge $-1 $484 79.265329374316579 $487 89.111043669105456 $482 $531 forward 7 unknown #
vertex $-1 $389 $532 #
straight-curve $-1 11.858842346174534 6.7211091233862774 11.323321717897812 1 0 0 I I #
edge $-1 $487 -1.0298992945955092 $386 16.531916130559082 $385 $533 forward 7 unknown #
vertex $-1 $486 $534 #
straight-curve $-1 -45.388691731467119 6.7211091233862774 70.583983846925122 -0.84804809178421925 0 0.52991927123019833 I I #
point $-1 49.448190346293117 6.7211091233862774 11.323321717897805 #
point $-1 65.204626606036541 24.282924548540869 1.4776074231089353 #
straight-curve $-1 65.204626606036555 0 11.323321717897807 0 1 0 I I #
vertex $-1 $392 $535 #
point $-1 55.398105256208162 11.738770673430452 -1.4031653229059307 #
vertex $-1 $396 $536 #
point $-1 55.398105256208162 19.265262998496709 -1.4031653229059307 #
edge $-1 $497 37.569237114161403 $500 41.697319384408416 $401 $537 forward 7 unknown #
vertex $-1 $415 $538 #
straight-curve $-1 -79.506596924176392 23.177846036178682 11.323321717897805 -1 0 0 I I #
edge $-1 $500 -13.608309308224356 $412 -5.5307641476842946 $411 $539 forward 7 unknown #
vertex $-1 $499 $540 #
straight-curve $-1 -65.20462660603657 23.177846036178682 7.1952394476507777 0.69465836192734942 0 0.71933980857756763 I I #
point $-1 -61.218183990798053 23.177846036178682 11.323321717897807 #
point $-1 -65.204626606036555 15.10030087563862 7.1952394476507928 #
straight-curve $-1 -65.204626606036555 0 11.323321717897807 0 -1 0 I I #
vertex $-1 $418 $541 #
point $-1 -62.144736308876062 16.715809907746632 8.9242921251357306 #
vertex $-1 $422 $542 #
point $-1 -62.144736308876062 19.139073455908651 8.9242921251357306 #
vertex $-1 $426 $543 #
point $-1 -62.144736308876062 21.562337004070663 8.9242921251357306 #
straight-curve $-1 0 -42.569962909928798 11.323321717897807 1 0 0 I I #
point $-1 65.204626606036555 -42.569962909928798 11.323321717897807 #
point $-1 -65.204626606036555 -42.569962909928798 11.323321717897807 #
straight-curve $-1 -65.204626606036555 0 11.323321717897807 0 -1 0 I I #
edge $-1 $517 -11.323321717897807 $455 11.323321717897807 $447 $544 forward 7 unknown #
straight-curve $-1 -46.266297973583789 -54.89044328592356 -11.323321717897807 -1 0 0 I I #
vertex $-1 $461 $545 #
straight-curve $-1 -46.266297973583789 -54.89044328592356 11.323321717897807 1 0 0 I I #
point $-1 -49.474612776926634 -54.89044328592356 11.323321717897807 #
point $-1 -49.474612776926634 -54.89044328592356 -11.323321717897807 #
point $-1 -43.057983170240945 -54.89044328592356 -11.323321717897807 #
straight-curve $-1 -43.057983170240945 -48.730203097926179 11.323321717897807 0 1 0 I I #
edge $-1 $480 -3.2083148033428444 $469 3.2083148033428444 $466 $546 forward 7 unknown #
straight-curve $-1 -43.057983170240945 54.890443285923567 0 0 0 -1 I I #
straight-curve $-1 -49.474612776926634 48.730203097926186 11.323321717897807 0 -1 0 I I #
point $-1 -49.474612776926634 54.890443285923567 11.323321717897807 #
point $-1 -49.474612776926634 54.890443285923567 -11.323321717897807 #
straight-curve $-1 -46.266297973583789 54.890443285923567 -11.323321717897807 1 0 0 I I #
point $-1 -43.057983170240945 54.890443285923567 -11.323321717897807 #
point $-1 -43.057983170240945 54.890443285923567 11.323321717897807 #
straight-curve $-1 65.204626606036555 6.7211091233862774 90.588651092214391 0 0 -1 I I #
point $-1 65.204626606036555 6.7211091233862774 11.323321717897807 #
straight-curve $-1 65.204626606036555 7.7510084179817866 1.4776074231089282 0 1 0 I I #
point $-1 65.204626606036541 6.7211091233862774 1.4776074231089353 #
point $-1 51.953186848672118 11.738770673430452 -2.1984873742909832 #
point $-1 51.953186848672118 19.265262998496709 -2.1984873742909832 #
straight-curve $-1 -65.204626606036555 23.177846036178682 48.892558832059208 0 0 -1 I I #
point $-1 -65.204626606036555 23.177846036178682 11.323321717897807 #
straight-curve $-1 -65.204626606036555 9.5695367279543255 7.1952394476507893 0 -1 0 I I #
point $-1 -65.204626606036555 23.177846036178682 7.1952394476507928 #
point $-1 -62.132395585550952 16.715809907746632 8.2172930398832715 #
point $-1 -62.132395585550952 19.139073455908651 8.2172930398832715 #
point $-1 -62.132395585550952 21.562337004070663 8.2172930398832715 #
straight-curve $-1 -43.057983170240945 -54.89044328592356 0 0 0 -1 I I #
point $-1 -43.057983170240945 -54.89044328592356 11.323321717897807 #
straight-curve $-1 -46.266297973583789 54.890443285923567 11.323321717897807 -1 0 0 I I #
End-of-ACIS-data 