500 0 15 0           
7 Unknown 11 ACIS 5.0 NT 24 Fri Mar 26 15:38:32 1999 
-1 9.9999999999999995e-007 1e-010 
body $-1 $15 $-1 $16 #
body $-1 $17 $-1 $18 #
body $-1 $19 $-1 $20 #
body $-1 $21 $-1 $22 #
body $-1 $23 $-1 $24 #
body $-1 $25 $-1 $26 #
body $-1 $27 $-1 $28 #
body $-1 $29 $-1 $30 #
body $-1 $31 $-1 $32 #
body $-1 $33 $-1 $34 #
body $-1 $35 $-1 $36 #
body $-1 $37 $-1 $38 #
body $-1 $39 $-1 $40 #
body $-1 $41 $-1 $42 #
body $-1 $43 $-1 $44 #
lump $-1 $-1 $45 $0 #
transform $-1 1 0 0 0 1 0 0 0 1 61.399578844569234 31.451754844518138 8.4808490227588731 1 rotate no_reflect no_shear #
lump $-1 $-1 $46 $1 #
transform $-1 1 0 0 0 1 0 0 0 1 61.399578844569234 31.451754844518138 8.4808490227588731 1 rotate no_reflect no_shear #
lump $-1 $-1 $47 $2 #
transform $-1 1 0 0 0 1 0 0 0 1 61.399578844569234 31.451754844518138 8.4808490227588731 1 rotate no_reflect no_shear #
lump $-1 $-1 $48 $3 #
transform $-1 1 0 0 0 1 0 0 0 1 61.399578844569234 31.451754844518138 8.4808490227588731 1 rotate no_reflect no_shear #
lump $-1 $-1 $49 $4 #
transform $-1 1 0 0 0 1 0 0 0 1 61.399578844569234 31.451754844518138 8.4808490227588731 1 rotate no_reflect no_shear #
lump $-1 $-1 $50 $5 #
transform $-1 1 0 0 0 1 0 0 0 1 61.399578844569234 31.451754844518138 8.4808490227588731 1 rotate no_reflect no_shear #
lump $-1 $-1 $51 $6 #
transform $-1 1 0 0 0 1 0 0 0 1 61.399578844569234 31.451754844518138 8.4808490227588731 1 rotate no_reflect no_shear #
lump $-1 $-1 $52 $7 #
transform $-1 1 0 0 0 1 0 0 0 1 61.399578844569234 31.451754844518138 8.4808490227588731 1 rotate no_reflect no_shear #
lump $-1 $-1 $53 $8 #
transform $-1 1 0 0 0 1 0 0 0 1 61.399578844569234 31.451754844518138 8.4808490227588731 1 rotate no_reflect no_shear #
lump $-1 $-1 $54 $9 #
transform $-1 1 0 0 0 1 0 0 0 1 61.399578844569234 31.451754844518138 8.4808490227588731 1 rotate no_reflect no_shear #
lump $-1 $-1 $55 $10 #
transform $-1 1 0 0 0 1 0 0 0 1 61.399578844569234 31.451754844518138 8.4808490227588731 1 rotate no_reflect no_shear #
lump $-1 $-1 $56 $11 #
transform $-1 1 0 0 0 1 0 0 0 1 61.399578844569234 31.451754844518138 8.4808490227588731 1 rotate no_reflect no_shear #
lump $-1 $-1 $57 $12 #
transform $-1 1 0 0 0 1 0 0 0 1 61.399578844569234 31.451754844518138 8.4808490227588731 1 rotate no_reflect no_shear #
lump $-1 $-1 $58 $13 #
transform $-1 1 0 0 0 1 0 0 0 1 61.399578844569234 31.451754844518138 8.4808490227588731 1 rotate no_reflect no_shear #
lump $-1 $-1 $59 $14 #
transform $-1 1 0 0 0 1 0 0 0 1 61.399578844569234 31.451754844518138 8.4808490227588731 1 rotate no_reflect no_shear #
shell $-1 $-1 $-1 $60 $-1 $15 #
shell $-1 $-1 $-1 $61 $-1 $17 #
shell $-1 $-1 $-1 $62 $-1 $19 #
shell $-1 $-1 $-1 $63 $-1 $21 #
shell $-1 $-1 $-1 $64 $-1 $23 #
shell $-1 $-1 $-1 $65 $-1 $25 #
shell $-1 $-1 $-1 $66 $-1 $27 #
shell $-1 $-1 $-1 $67 $-1 $29 #
shell $-1 $-1 $-1 $68 $-1 $31 #
shell $-1 $-1 $-1 $69 $-1 $33 #
shell $-1 $-1 $-1 $70 $-1 $35 #
shell $-1 $-1 $-1 $71 $-1 $37 #
shell $-1 $-1 $-1 $72 $-1 $39 #
shell $-1 $-1 $-1 $73 $-1 $41 #
shell $-1 $-1 $-1 $74 $-1 $43 #
face $-1 $75 $76 $45 $-1 $77 forward single #
face $-1 $78 $79 $46 $-1 $80 forward single #
face $-1 $81 $82 $47 $-1 $83 forward single #
face $-1 $84 $85 $48 $-1 $86 reversed single #
face $-1 $87 $88 $49 $-1 $89 forward single #
face $-1 $90 $91 $50 $-1 $92 forward single #
face $-1 $93 $94 $51 $-1 $95 forward single #
face $-1 $96 $97 $52 $-1 $98 reversed single #
face $-1 $99 $100 $53 $-1 $101 forward single #
face $-1 $102 $103 $54 $-1 $104 forward single #
face $-1 $105 $106 $55 $-1 $107 forward single #
face $-1 $108 $109 $56 $-1 $110 reversed single #
face $-1 $111 $112 $57 $-1 $113 forward single #
face $-1 $114 $115 $58 $-1 $116 forward single #
face $-1 $117 $118 $59 $-1 $119 forward single #
face $-1 $120 $121 $45 $-1 $122 reversed single #
loop $-1 $-1 $123 $60 #
plane-surface $-1 0 0 8.4808490227588731 0 0 1 1 0 0 forward_v I I I I #
face $-1 $124 $125 $46 $-1 $126 reversed single #
loop $-1 $-1 $127 $61 #
plane-surface $-1 0 -31.451754844518138 0 0 1 0 0 0 1 forward_v I I I I #
face $-1 $128 $129 $47 $-1 $130 reversed single #
loop $-1 $-1 $131 $62 #
plane-surface $-1 0 31.451754844518138 0 0 -1 0 0 0 -1 forward_v I I I I #
face $-1 $132 $133 $48 $-1 $134 reversed single #
loop $-1 $-1 $135 $63 #
plane-surface $-1 61.399580859517485 -8.3598661086623096 175.49982607227153 0 -1 0 -0.70710678939079041 0 -0.70710677298230451 forward_v I I I I #
face $-1 $136 $137 $49 $-1 $138 forward single #
loop $-1 $139 $140 $64 #
cone-surface $-1 57.549592852081965 -14.700944485642115 4.6308629654070605 -0.70710678939079041 0 -0.70710677298230451 0.35355338649115226 0 -0.35355339469539521 1 I I 0 1 0.5 forward I I I I #
face $-1 $141 $142 $50 $-1 $143 forward single #
loop $-1 $144 $145 $65 #
cone-surface $-1 57.549592852081965 -12.323040094274688 4.6308629654070605 -0.70710678939079041 0 -0.70710677298230451 0.35355338649115226 0 -0.35355339469539521 1 I I 0 1 0.5 forward I I I I #
face $-1 $146 $147 $51 $-1 $148 forward single #
loop $-1 $149 $150 $66 #
cone-surface $-1 57.549592852081965 -9.9451357029072618 4.6308629654070605 -0.70710678939079041 0 -0.70710677298230451 0.35355338649115226 0 -0.35355339469539521 1 I I 0 1 0.5 forward I I I I #
face $-1 $151 $152 $52 $-1 $153 reversed single #
loop $-1 $-1 $154 $67 #
plane-surface $-1 61.399580859517485 14.571061932401275 175.49982607227153 0 -1 0 -0.70710678939079041 0 -0.70710677298230451 forward_v I I I I #
face $-1 $155 $156 $53 $-1 $157 forward single #
loop $-1 $158 $159 $68 #
cone-surface $-1 57.549592852081965 8.229983555421466 4.6308629654070605 -0.70710678939079041 0 -0.70710677298230451 0.35355338649115226 0 -0.35355339469539521 1 I I 0 1 0.5 forward I I I I #
face $-1 $160 $161 $54 $-1 $162 forward single #
loop $-1 $163 $164 $69 #
cone-surface $-1 57.549592852081965 10.607887946788896 4.6308629654070605 -0.70710678939079041 0 -0.70710677298230451 0.35355338649115226 0 -0.35355339469539521 1 I I 0 1 0.5 forward I I I I #
face $-1 $165 $166 $55 $-1 $167 forward single #
loop $-1 $168 $169 $70 #
cone-surface $-1 57.549592852081965 12.985792338156326 4.6308629654070605 -0.70710678939079041 0 -0.70710677298230451 0.35355338649115226 0 -0.35355339469539521 1 I I 0 1 0.5 forward I I I I #
face $-1 $170 $171 $56 $-1 $172 reversed single #
loop $-1 $-1 $173 $71 #
plane-surface $-1 -149.73390143016064 -22.930928041063588 87.861648467753085 0 1 0 -0.71933980857756763 0 0.69465836192734942 forward_v I I I I #
face $-1 $174 $175 $57 $-1 $176 forward single #
loop $-1 $177 $178 $72 #
cone-surface $-1 -58.107580116626558 -20.859389726291766 5.1020752068021515 0.71933980857756763 0 -0.69465836192734942 0.34732918096367471 0 0.35966990428878381 1 I I 0 1 0.5 forward I I I I #
face $-1 $179 $180 $58 $-1 $181 forward single #
loop $-1 $182 $183 $73 #
cone-surface $-1 -58.107580116626558 -17.752082254134045 5.1020752068021515 0.71933980857756763 0 -0.69465836192734942 0.34732918096367471 0 0.35966990428878381 1 I I 0 1 0.5 forward I I I I #
face $-1 $184 $185 $59 $-1 $186 forward single #
loop $-1 $187 $188 $74 #
cone-surface $-1 -58.107580116626558 -14.64477478197632 5.1020752068021515 0.71933980857756763 0 -0.69465836192734942 0.34732918096367471 0 0.35966990428878381 1 I I 0 1 0.5 forward I I I I #
face $-1 $189 $190 $45 $-1 $191 reversed single #
loop $-1 $-1 $192 $75 #
plane-surface $-1 0 0 -8.4808490227588731 0 0 1 1 0 0 forward_v I I I I #
coedge $-1 $193 $194 $195 $196 forward $76 $-1 #
face $-1 $197 $198 $46 $-1 $199 reversed single #
loop $-1 $-1 $200 $78 #
plane-surface $-1 0 0 -8.4808490227588731 0 0 1 1 0 0 forward_v I I I I #
coedge $-1 $201 $202 $203 $204 forward $79 $-1 #
face $-1 $205 $206 $47 $-1 $207 forward single #
loop $-1 $-1 $208 $81 #
plane-surface $-1 -61.399578844569234 0 0 1 0 0 0 0 -1 forward_v I I I I #
coedge $-1 $209 $210 $211 $212 forward $82 $-1 #
face $-1 $213 $214 $48 $-1 $215 reversed single #
loop $-1 $-1 $216 $84 #
plane-surface $-1 -25.432537273942614 -12.323040094274688 88.667709953759683 0.70710678939079041 0 0.70710677298230451 0.70710677298230451 0 -0.70710678939079041 forward_v I I I I #
coedge $-1 $217 $218 $219 $220 reversed $85 $-1 #
face $-1 $-1 $221 $49 $-1 $222 forward single #
loop $-1 $223 $224 $87 #
cone-surface $-1 56.845458686374712 -14.700944485642115 3.9267288160393168 -0.70710678939079041 0 -0.70710677298230451 0.17677669324557613 0 -0.1767766973476976 1 I I -0.70710678118654746 0.70710678118654746 0.25 forward I I I I #
loop $-1 $-1 $225 $64 #
coedge $-1 $140 $140 $226 $227 reversed $88 $-1 #
face $-1 $-1 $228 $50 $-1 $229 forward single #
loop $-1 $230 $231 $90 #
cone-surface $-1 56.845458686374712 -12.323040094274688 3.9267288160393168 -0.70710678939079041 0 -0.70710677298230451 0.17677669324557613 0 -0.1767766973476976 1 I I -0.70710678118654746 0.70710678118654746 0.25 forward I I I I #
loop $-1 $-1 $232 $65 #
coedge $-1 $145 $145 $233 $234 reversed $91 $-1 #
face $-1 $-1 $235 $51 $-1 $236 forward single #
loop $-1 $237 $238 $93 #
cone-surface $-1 56.845458686374712 -9.9451357029072618 3.9267288160393168 -0.70710678939079041 0 -0.70710677298230451 0.17677669324557613 0 -0.1767766973476976 1 I I -0.70710678118654746 0.70710678118654746 0.25 forward I I I I #
loop $-1 $-1 $239 $66 #
coedge $-1 $150 $150 $240 $241 reversed $94 $-1 #
face $-1 $242 $243 $52 $-1 $244 reversed single #
loop $-1 $-1 $245 $96 #
plane-surface $-1 -25.432537273942614 10.607887946788896 88.667709953759683 0.70710678939079041 0 0.70710677298230451 0.70710677298230451 0 -0.70710678939079041 forward_v I I I I #
coedge $-1 $246 $247 $248 $249 reversed $97 $-1 #
face $-1 $-1 $250 $53 $-1 $251 forward single #
loop $-1 $252 $253 $99 #
cone-surface $-1 56.845458686374712 8.229983555421466 3.9267288160393168 -0.70710678939079041 0 -0.70710677298230451 0.17677669324557613 0 -0.1767766973476976 1 I I -0.70710678118654746 0.70710678118654746 0.25 forward I I I I #
loop $-1 $-1 $254 $68 #
coedge $-1 $159 $159 $255 $256 reversed $100 $-1 #
face $-1 $-1 $257 $54 $-1 $258 forward single #
loop $-1 $259 $260 $102 #
cone-surface $-1 56.845458686374712 10.607887946788896 3.9267288160393168 -0.70710678939079041 0 -0.70710677298230451 0.17677669324557613 0 -0.1767766973476976 1 I I -0.70710678118654746 0.70710678118654746 0.25 forward I I I I #
loop $-1 $-1 $261 $69 #
coedge $-1 $164 $164 $262 $263 reversed $103 $-1 #
face $-1 $-1 $264 $55 $-1 $265 forward single #
loop $-1 $266 $267 $105 #
cone-surface $-1 56.845458686374712 12.985792338156326 3.9267288160393168 -0.70710678939079041 0 -0.70710677298230451 0.17677669324557613 0 -0.1767766973476976 1 I I -0.70710678118654746 0.70710678118654746 0.25 forward I I I I #
loop $-1 $-1 $268 $70 #
coedge $-1 $169 $169 $269 $270 reversed $106 $-1 #
face $-1 $271 $272 $56 $-1 $273 reversed single #
loop $-1 $-1 $274 $108 #
plane-surface $-1 -61.399578844569234 -17.752082254134045 2.5581867413578863 -0.71933980857756763 0 0.69465836192734942 0.69465836192734942 0 0.71933980857756763 forward_v I I I I #
coedge $-1 $275 $276 $277 $278 reversed $109 $-1 #
face $-1 $-1 $279 $57 $-1 $280 forward single #
loop $-1 $281 $282 $111 #
cone-surface $-1 -57.495470609724372 -20.859389726291766 4.5109679410640826 0.71933980857756763 0 -0.69465836192734942 0.17366459048183736 0 0.17983495214439191 1 I I -0.70710678118654746 0.70710678118654746 0.25 forward I I I I #
loop $-1 $-1 $283 $72 #
coedge $-1 $178 $178 $284 $285 reversed $112 $-1 #
face $-1 $-1 $286 $58 $-1 $287 forward single #
loop $-1 $288 $289 $114 #
cone-surface $-1 -57.495470609724372 -17.752082254134045 4.5109679410640826 0.71933980857756763 0 -0.69465836192734942 0.17366459048183736 0 0.17983495214439191 1 I I -0.70710678118654746 0.70710678118654746 0.25 forward I I I I #
loop $-1 $-1 $290 $73 #
coedge $-1 $183 $183 $291 $292 reversed $115 $-1 #
face $-1 $-1 $293 $59 $-1 $294 forward single #
loop $-1 $295 $296 $117 #
cone-surface $-1 -57.495470609724372 -14.64477478197632 4.5109679410640826 0.71933980857756763 0 -0.69465836192734942 0.17366459048183736 0 0.17983495214439191 1 I I -0.70710678118654746 0.70710678118654746 0.25 forward I I I I #
loop $-1 $-1 $297 $74 #
coedge $-1 $188 $188 $298 $299 reversed $118 $-1 #
face $-1 $300 $301 $45 $-1 $302 reversed single #
loop $-1 $-1 $303 $120 #
plane-surface $-1 0 -31.451754844518138 0 0 1 0 0 0 1 forward_v I I I I #
coedge $-1 $304 $305 $306 $307 forward $121 $-1 #
coedge $-1 $308 $123 $309 $310 forward $76 $-1 #
coedge $-1 $123 $308 $311 $312 forward $76 $-1 #
coedge $-1 $313 $314 $123 $196 reversed $315 $-1 #
edge $-1 $316 -31.451754844518138 $317 31.451754844518138 $195 $318 forward 7 unknown #
face $-1 $319 $320 $46 $-1 $321 forward single #
loop $-1 $-1 $322 $124 #
plane-surface $-1 61.399578844569234 0 0 -1 0 0 0 0 1 forward_v I I I I #
coedge $-1 $323 $324 $325 $326 forward $125 $-1 #
coedge $-1 $325 $127 $322 $327 reversed $79 $-1 #
coedge $-1 $127 $325 $328 $329 reversed $79 $-1 #
coedge $-1 $330 $331 $127 $204 reversed $320 $-1 #
edge $-1 $332 -61.399578844569234 $333 61.399578844569234 $203 $334 forward 7 unknown #
face $-1 $335 $336 $47 $-1 $337 reversed single #
loop $-1 $-1 $338 $128 #
plane-surface $-1 0 35.712168246245412 -4.8222842082715598 0 0 1 1 0 0 forward_v I I I I #
coedge $-1 $339 $340 $209 $341 forward $129 $-1 #
coedge $-1 $342 $131 $208 $341 reversed $82 $-1 #
coedge $-1 $131 $342 $343 $344 reversed $82 $-1 #
coedge $-1 $338 $345 $131 $212 reversed $206 $-1 #
edge $-1 $346 -61.399578844569234 $347 61.399578844569234 $211 $348 forward 7 unknown #
face $-1 $349 $350 $48 $-1 $351 forward single #
loop $-1 $-1 $352 $132 #
plane-surface $-1 61.399580859517485 -16.286214079887067 175.49982607227153 0 1 0 0.70710678939079041 0 0.70710677298230451 forward_v I I I I #
coedge $-1 $353 $354 $355 $356 reversed $133 $-1 #
coedge $-1 $218 $135 $357 $358 reversed $85 $-1 #
coedge $-1 $135 $217 $353 $359 reversed $85 $-1 #
coedge $-1 $355 $360 $135 $220 forward $350 $-1 #
edge $-1 $361 -30.699788414810492 $362 -24.054531366555075 $219 $363 forward 7 unknown #
loop $-1 $-1 $226 $136 #
plane-surface $-1 -25.432537273942614 -12.323040094274688 88.667709953759683 0.70710678939079041 0 0.70710677298230451 0.70710677298230451 0 -0.70710678939079041 forward_v I I I I #
loop $-1 $-1 $364 $87 #
coedge $-1 $224 $224 $225 $365 reversed $137 $-1 #
coedge $-1 $225 $225 $224 $365 forward $139 $-1 #
coedge $-1 $226 $226 $140 $227 forward $221 $-1 #
edge $-1 $366 0 $366 6.2831853071796004 $226 $367 forward 7 unknown #
loop $-1 $-1 $233 $141 #
plane-surface $-1 -25.432537273942614 -12.323040094274688 88.667709953759683 0.70710678939079041 0 0.70710677298230451 0.70710677298230451 0 -0.70710678939079041 forward_v I I I I #
loop $-1 $-1 $368 $90 #
coedge $-1 $231 $231 $232 $369 reversed $142 $-1 #
coedge $-1 $232 $232 $231 $369 forward $144 $-1 #
coedge $-1 $233 $233 $145 $234 forward $228 $-1 #
edge $-1 $370 0 $370 6.2831853071796004 $233 $371 forward 7 unknown #
loop $-1 $-1 $240 $146 #
plane-surface $-1 -25.432537273942614 -12.323040094274688 88.667709953759683 0.70710678939079041 0 0.70710677298230451 0.70710677298230451 0 -0.70710678939079041 forward_v I I I I #
loop $-1 $-1 $372 $93 #
coedge $-1 $238 $238 $239 $373 reversed $147 $-1 #
coedge $-1 $239 $239 $238 $373 forward $149 $-1 #
coedge $-1 $240 $240 $150 $241 forward $235 $-1 #
edge $-1 $374 0 $374 6.2831853071796004 $240 $375 forward 7 unknown #
face $-1 $376 $377 $52 $-1 $378 reversed single #
loop $-1 $-1 $379 $151 #
plane-surface $-1 61.399580859517485 6.6447139611765174 175.49982607227153 0 1 0 0.70710678939079041 0 0.70710677298230451 forward_v I I I I #
coedge $-1 $380 $381 $382 $383 reversed $152 $-1 #
coedge $-1 $247 $154 $384 $385 reversed $97 $-1 #
coedge $-1 $154 $246 $380 $386 reversed $97 $-1 #
coedge $-1 $382 $387 $154 $249 forward $388 $-1 #
edge $-1 $389 -30.699788414810492 $390 -24.054531366555075 $248 $391 forward 7 unknown #
loop $-1 $-1 $255 $155 #
plane-surface $-1 -25.432537273942614 10.607887946788896 88.667709953759683 0.70710678939079041 0 0.70710677298230451 0.70710677298230451 0 -0.70710678939079041 forward_v I I I I #
loop $-1 $-1 $392 $99 #
coedge $-1 $253 $253 $254 $393 reversed $156 $-1 #
coedge $-1 $254 $254 $253 $393 forward $158 $-1 #
coedge $-1 $255 $255 $159 $256 forward $250 $-1 #
edge $-1 $394 0 $394 6.2831853071796004 $255 $395 forward 7 unknown #
loop $-1 $-1 $262 $160 #
plane-surface $-1 -25.432537273942614 10.607887946788896 88.667709953759683 0.70710678939079041 0 0.70710677298230451 0.70710677298230451 0 -0.70710678939079041 forward_v I I I I #
loop $-1 $-1 $396 $102 #
coedge $-1 $260 $260 $261 $397 reversed $161 $-1 #
coedge $-1 $261 $261 $260 $397 forward $163 $-1 #
coedge $-1 $262 $262 $164 $263 forward $257 $-1 #
edge $-1 $398 0 $398 6.2831853071796004 $262 $399 forward 7 unknown #
loop $-1 $-1 $269 $165 #
plane-surface $-1 -25.432537273942614 10.607887946788896 88.667709953759683 0.70710678939079041 0 0.70710677298230451 0.70710677298230451 0 -0.70710678939079041 forward_v I I I I #
loop $-1 $-1 $400 $105 #
coedge $-1 $267 $267 $268 $401 reversed $166 $-1 #
coedge $-1 $268 $268 $267 $401 forward $168 $-1 #
coedge $-1 $269 $269 $169 $270 forward $264 $-1 #
edge $-1 $402 0 $402 6.2831853071796004 $269 $403 forward 7 unknown #
face $-1 $404 $405 $56 $-1 $406 reversed single #
loop $-1 $-1 $407 $170 #
plane-surface $-1 -149.73390143016064 -12.573236467204504 87.861648467753085 0 -1 0 0.71933980857756763 0 -0.69465836192734942 forward_v I I I I #
coedge $-1 $408 $409 $410 $411 reversed $171 $-1 #
coedge $-1 $276 $173 $412 $413 reversed $109 $-1 #
coedge $-1 $173 $275 $408 $414 reversed $109 $-1 #
coedge $-1 $410 $415 $173 $278 forward $416 $-1 #
edge $-1 $417 13.467371870511087 $418 19.186820216880847 $277 $419 forward 7 unknown #
loop $-1 $-1 $284 $174 #
plane-surface $-1 -61.399578844569234 -17.752082254134045 2.5581867413578863 -0.71933980857756763 0 0.69465836192734942 0.69465836192734942 0 0.71933980857756763 forward_v I I I I #
loop $-1 $-1 $420 $111 #
coedge $-1 $282 $282 $283 $421 reversed $175 $-1 #
coedge $-1 $283 $283 $282 $421 forward $177 $-1 #
coedge $-1 $284 $284 $178 $285 forward $279 $-1 #
edge $-1 $422 0 $422 6.2831853071796004 $284 $423 forward 7 unknown #
loop $-1 $-1 $291 $179 #
plane-surface $-1 -61.399578844569234 -17.752082254134045 2.5581867413578863 -0.71933980857756763 0 0.69465836192734942 0.69465836192734942 0 0.71933980857756763 forward_v I I I I #
loop $-1 $-1 $424 $114 #
coedge $-1 $289 $289 $290 $425 reversed $180 $-1 #
coedge $-1 $290 $290 $289 $425 forward $182 $-1 #
coedge $-1 $291 $291 $183 $292 forward $286 $-1 #
edge $-1 $426 0 $426 6.2831853071796004 $291 $427 forward 7 unknown #
loop $-1 $-1 $298 $184 #
plane-surface $-1 -61.399578844569234 -17.752082254134045 2.5581867413578863 -0.71933980857756763 0 0.69465836192734942 0.69465836192734942 0 0.71933980857756763 forward_v I I I I #
loop $-1 $-1 $428 $117 #
coedge $-1 $296 $296 $297 $429 reversed $185 $-1 #
coedge $-1 $297 $297 $296 $429 forward $187 $-1 #
coedge $-1 $298 $298 $188 $299 forward $293 $-1 #
edge $-1 $430 0 $430 6.2831853071796004 $298 $431 forward 7 unknown #
face $-1 $432 $433 $45 $-1 $434 reversed single #
loop $-1 $-1 $435 $189 #
plane-surface $-1 -61.399578844569234 0 0 1 0 0 0 0 -1 forward_v I I I I #
coedge $-1 $311 $436 $313 $437 reversed $190 $-1 #
coedge $-1 $438 $192 $436 $439 forward $121 $-1 #
coedge $-1 $192 $438 $440 $441 forward $121 $-1 #
coedge $-1 $314 $313 $192 $307 reversed $315 $-1 #
edge $-1 $442 -31.451754844518138 $443 31.451754844518138 $306 $444 forward 7 unknown #
coedge $-1 $194 $193 $445 $446 forward $76 $-1 #
coedge $-1 $447 $448 $193 $310 reversed $433 $-1 #
edge $-1 $317 -61.399578844569234 $449 61.399578844569234 $309 $450 forward 7 unknown #
coedge $-1 $451 $303 $194 $312 reversed $190 $-1 #
edge $-1 $452 -61.399578844569234 $316 61.399578844569234 $311 $453 forward 7 unknown #
coedge $-1 $306 $195 $303 $437 forward $315 $-1 #
coedge $-1 $195 $306 $447 $454 reversed $315 $-1 #
loop $-1 $-1 $313 $432 #
vertex $-1 $196 $455 #
vertex $-1 $196 $456 #
straight-curve $-1 61.399578844569234 0 8.4808490227588731 0 1 0 I I #
face $-1 $457 $458 $46 $-1 $459 reversed single #
loop $-1 $-1 $331 $197 #
plane-surface $-1 0 -35.712168246245412 -4.8222842082715598 0 0 1 1 0 0 forward_v I I I I #
coedge $-1 $460 $461 $201 $327 forward $198 $-1 #
coedge $-1 $462 $200 $461 $463 forward $125 $-1 #
coedge $-1 $200 $462 $464 $465 forward $125 $-1 #
coedge $-1 $202 $201 $200 $326 reversed $79 $-1 #
edge $-1 $466 -61.399578844569234 $467 61.399578844569234 $200 $468 forward 7 unknown #
edge $-1 $467 -8.4808490227588731 $333 -4.8222842082715598 $322 $469 forward 7 unknown #
coedge $-1 $464 $470 $202 $329 forward $471 $-1 #
edge $-1 $332 4.8222842082715598 $466 8.4808490227588731 $328 $472 forward 7 unknown #
coedge $-1 $473 $203 $470 $474 forward $320 $-1 #
coedge $-1 $203 $473 $460 $475 forward $320 $-1 #
vertex $-1 $329 $476 #
vertex $-1 $475 $477 #
straight-curve $-1 0 -31.451754844518138 -4.8222842082715598 1 0 0 I I #
face $-1 $478 $479 $47 $-1 $480 reversed single #
loop $-1 $-1 $481 $205 #
plane-surface $-1 0 39.972581647972689 -6.6515666155152164 0 -1 0 0 0 -1 forward_v I I I I #
coedge $-1 $482 $211 $483 $484 forward $206 $-1 #
coedge $-1 $485 $208 $345 $486 reversed $129 $-1 #
coedge $-1 $208 $485 $487 $488 reversed $129 $-1 #
edge $-1 $489 -8.4808490227588731 $347 -4.8222842082715598 $208 $490 forward 7 unknown #
coedge $-1 $210 $209 $491 $492 reversed $82 $-1 #
coedge $-1 $493 $483 $210 $344 forward $494 $-1 #
edge $-1 $346 4.8222842082715598 $495 8.4808490227588731 $343 $496 forward 7 unknown #
coedge $-1 $211 $482 $339 $486 forward $206 $-1 #
vertex $-1 $344 $497 #
vertex $-1 $486 $498 #
straight-curve $-1 0 31.451754844518138 -4.8222842082715598 -1 0 0 I I #
face $-1 $-1 $499 $48 $-1 $500 reversed single #
loop $-1 $-1 $219 $213 #
plane-surface $-1 0 0 8.4808490227588731 0 0 1 1 0 0 forward_v I I I I #
coedge $-1 $501 $502 $503 $504 reversed $214 $-1 #
coedge $-1 $505 $216 $218 $359 forward $133 $-1 #
coedge $-1 $216 $505 $501 $506 forward $133 $-1 #
coedge $-1 $503 $219 $216 $356 forward $350 $-1 #
edge $-1 $362 2.1983460615249655 $507 10.124694032749723 $355 $508 forward 7 unknown #
coedge $-1 $509 $510 $217 $358 forward $499 $-1 #
edge $-1 $511 -85.914321215836182 $361 -79.269064013376891 $357 $512 forward 7 unknown #
edge $-1 $362 113.40134493700168 $511 122.7991576891385 $218 $513 forward 7 unknown #
coedge $-1 $219 $503 $509 $514 forward $350 $-1 #
vertex $-1 $358 $515 #
vertex $-1 $220 $516 #
straight-curve $-1 30.699790429758743 -8.3598661086623096 8.4808490227588749 -1 0 0 I I #
coedge $-1 $364 $364 $-1 $517 reversed $223 $-1 #
edge $-1 $518 0 $518 6.2831853071796004 $224 $519 forward 7 unknown #
vertex $-1 $227 $520 #
ellipse-curve $-1 58.076950320441526 -14.700944485642115 5.1582204215292382 0.70710678939079041 0 0.70710677298230451 0.35355338649115226 0 -0.35355339469539521 1 I I #
coedge $-1 $368 $368 $-1 $521 reversed $230 $-1 #
edge $-1 $522 0 $522 6.2831853071796004 $231 $523 forward 7 unknown #
vertex $-1 $234 $524 #
ellipse-curve $-1 58.076950320441526 -12.323040094274688 5.1582204215292382 0.70710678939079041 0 0.70710677298230451 0.35355338649115226 0 -0.35355339469539521 1 I I #
coedge $-1 $372 $372 $-1 $525 reversed $237 $-1 #
edge $-1 $526 0 $526 6.2831853071796004 $238 $527 forward 7 unknown #
vertex $-1 $241 $528 #
ellipse-curve $-1 58.076950320441526 -9.9451357029072618 5.1582204215292382 0.70710678939079041 0 0.70710677298230451 0.35355338649115226 0 -0.35355339469539521 1 I I #
face $-1 $-1 $388 $52 $-1 $529 forward single #
loop $-1 $-1 $530 $242 #
plane-surface $-1 61.399578844569234 0 0 -1 0 0 0 0 1 forward_v I I I I #
coedge $-1 $531 $532 $533 $534 reversed $243 $-1 #
coedge $-1 $535 $245 $247 $386 forward $152 $-1 #
coedge $-1 $245 $535 $531 $536 forward $152 $-1 #
coedge $-1 $533 $248 $245 $383 forward $388 $-1 #
edge $-1 $390 -9.2671179590068267 $537 -1.3407699877820694 $382 $538 forward 7 unknown #
coedge $-1 $539 $540 $246 $385 forward $377 $-1 #
edge $-1 $541 -85.914321215836182 $389 -79.269064013376891 $384 $542 forward 7 unknown #
edge $-1 $390 113.40134493700168 $541 122.7991576891385 $247 $543 forward 7 unknown #
coedge $-1 $248 $533 $539 $544 forward $388 $-1 #
loop $-1 $-1 $533 $376 #
vertex $-1 $385 $545 #
vertex $-1 $249 $546 #
straight-curve $-1 30.699790429758743 14.571061932401275 8.4808490227588749 -1 0 0 I I #
coedge $-1 $392 $392 $-1 $547 reversed $252 $-1 #
edge $-1 $548 0 $548 6.2831853071796004 $253 $549 forward 7 unknown #
vertex $-1 $256 $550 #
ellipse-curve $-1 58.076950320441526 8.229983555421466 5.1582204215292382 0.70710678939079041 0 0.70710677298230451 0.35355338649115226 0 -0.35355339469539521 1 I I #
coedge $-1 $396 $396 $-1 $551 reversed $259 $-1 #
edge $-1 $552 0 $552 6.2831853071796004 $260 $553 forward 7 unknown #
vertex $-1 $263 $554 #
ellipse-curve $-1 58.076950320441526 10.607887946788896 5.1582204215292382 0.70710678939079041 0 0.70710677298230451 0.35355338649115226 0 -0.35355339469539521 1 I I #
coedge $-1 $400 $400 $-1 $555 reversed $266 $-1 #
edge $-1 $556 0 $556 6.2831853071796004 $267 $557 forward 7 unknown #
vertex $-1 $270 $558 #
ellipse-curve $-1 58.076950320441526 12.985792338156326 5.1582204215292382 0.70710678939079041 0 0.70710677298230451 0.35355338649115226 0 -0.35355339469539521 1 I I #
face $-1 $-1 $416 $56 $-1 $559 forward single #
loop $-1 $-1 $560 $271 #
plane-surface $-1 -61.399578844569234 0 0 1 0 0 0 0 -1 forward_v I I I I #
coedge $-1 $561 $562 $563 $564 reversed $272 $-1 #
coedge $-1 $565 $274 $276 $414 forward $171 $-1 #
coedge $-1 $274 $565 $561 $566 forward $171 $-1 #
coedge $-1 $563 $277 $274 $411 forward $416 $-1 #
edge $-1 $418 -14.054886913996565 $567 -3.6971953401374815 $410 $568 forward 7 unknown #
coedge $-1 $569 $570 $275 $413 forward $405 $-1 #
edge $-1 $571 -41.372637492518656 $417 -35.449975211117668 $412 $572 forward 7 unknown #
edge $-1 $418 -8.2334693711898694 $571 0 $276 $573 forward 7 unknown #
coedge $-1 $277 $563 $569 $574 forward $416 $-1 #
loop $-1 $-1 $563 $404 #
vertex $-1 $413 $575 #
vertex $-1 $278 $576 #
straight-curve $-1 -74.866950715080321 -22.930928041063588 8.4808490227588749 1 0 0 I I #
coedge $-1 $420 $420 $-1 $577 reversed $281 $-1 #
edge $-1 $578 0 $578 6.2831853071796004 $282 $579 forward 7 unknown #
vertex $-1 $285 $580 #
ellipse-curve $-1 -58.539854671384354 -20.859389726291766 5.5195178820583815 -0.71933980857756763 0 0.69465836192734942 0.34732918096367471 0 0.35966990428878381 1 I I #
coedge $-1 $424 $424 $-1 $581 reversed $288 $-1 #
edge $-1 $582 0 $582 6.2831853071796004 $289 $583 forward 7 unknown #
vertex $-1 $292 $584 #
ellipse-curve $-1 -58.539854671384354 -17.752082254134045 5.5195178820583815 -0.71933980857756763 0 0.69465836192734942 0.34732918096367471 0 0.35966990428878381 1 I I #
coedge $-1 $428 $428 $-1 $585 reversed $295 $-1 #
edge $-1 $586 0 $586 6.2831853071796004 $296 $587 forward 7 unknown #
vertex $-1 $299 $588 #
ellipse-curve $-1 -58.539854671384354 -14.64477478197632 5.5195178820583815 -0.71933980857756763 0 0.69465836192734942 0.34732918096367471 0 0.35966990428878381 1 I I #
face $-1 $-1 $315 $45 $-1 $589 reversed single #
loop $-1 $-1 $448 $300 #
plane-surface $-1 0 31.451754844518138 0 0 -1 0 0 0 -1 forward_v I I I I #
coedge $-1 $590 $445 $448 $591 forward $301 $-1 #
coedge $-1 $303 $451 $304 $439 reversed $190 $-1 #
edge $-1 $316 -8.4808490227588731 $443 8.4808490227588731 $313 $592 forward 7 unknown #
coedge $-1 $305 $304 $590 $593 forward $121 $-1 #
edge $-1 $443 -61.399578844569234 $594 61.399578844569234 $436 $595 forward 7 unknown #
coedge $-1 $448 $447 $305 $441 reversed $433 $-1 #
edge $-1 $596 -61.399578844569234 $442 61.399578844569234 $440 $597 forward 7 unknown #
vertex $-1 $307 $598 #
vertex $-1 $437 $599 #
straight-curve $-1 61.399578844569234 0 -8.4808490227588731 0 -1 0 I I #
coedge $-1 $435 $600 $308 $446 reversed $301 $-1 #
edge $-1 $449 -31.451754844518138 $452 31.451754844518138 $445 $601 forward 7 unknown #
coedge $-1 $440 $309 $314 $454 forward $433 $-1 #
coedge $-1 $309 $440 $435 $591 reversed $433 $-1 #
vertex $-1 $310 $602 #
straight-curve $-1 0 31.451754844518138 8.4808490227588731 -1 0 0 I I #
coedge $-1 $436 $311 $600 $603 forward $190 $-1 #
vertex $-1 $446 $604 #
straight-curve $-1 0 -31.451754844518138 8.4808490227588731 1 0 0 I I #
edge $-1 $317 -8.4808490227588731 $442 8.4808490227588731 $314 $605 forward 7 unknown #
point $-1 61.399578844569234 -31.451754844518138 8.4808490227588731 #
point $-1 61.399578844569234 31.451754844518138 8.4808490227588731 #
face $-1 $-1 $471 $46 $-1 $606 reversed single #
loop $-1 $-1 $607 $319 #
plane-surface $-1 0 -39.972581647972689 -6.6515666155152164 0 1 0 0 0 1 forward_v I I I I #
coedge $-1 $608 $322 $331 $475 reversed $198 $-1 #
coedge $-1 $322 $608 $323 $463 reversed $198 $-1 #
coedge $-1 $324 $323 $609 $610 forward $125 $-1 #
edge $-1 $467 31.451754844518138 $611 39.972581647972689 $461 $612 forward 7 unknown #
coedge $-1 $613 $328 $324 $465 reversed $471 $-1 #
edge $-1 $614 -39.972581647972689 $466 -31.451754844518138 $464 $615 forward 7 unknown #
vertex $-1 $329 $616 #
vertex $-1 $463 $617 #
straight-curve $-1 0 -31.451754844518138 -8.4808490227588731 1 0 0 I I #
straight-curve $-1 61.399578844569234 -31.451754844518138 0 0 0 1 I I #
coedge $-1 $328 $613 $330 $474 reversed $471 $-1 #
loop $-1 $-1 $328 $457 #
straight-curve $-1 -61.399578844569234 -31.451754844518138 0 0 0 -1 I I #
coedge $-1 $331 $330 $618 $619 forward $320 $-1 #
edge $-1 $332 -4.260413401727277 $620 4.260413401727277 $470 $621 forward 7 unknown #
edge $-1 $622 -4.260413401727277 $333 4.260413401727277 $460 $623 forward 7 unknown #
point $-1 -61.399578844569234 -31.451754844518135 -4.8222842082715598 #
point $-1 61.399578844569234 -31.451754844518135 -4.8222842082715598 #
face $-1 $-1 $494 $47 $-1 $624 reversed single #
loop $-1 $-1 $491 $335 #
plane-surface $-1 0 0 -8.4808490227588731 0 0 1 1 0 0 forward_v I I I I #
coedge $-1 $625 $626 $627 $628 forward $336 $-1 #
coedge $-1 $345 $338 $626 $629 forward $206 $-1 #
coedge $-1 $343 $627 $338 $484 reversed $494 $-1 #
edge $-1 $346 -4.2604134017272735 $630 4.260413401727277 $483 $631 forward 7 unknown #
coedge $-1 $340 $339 $632 $633 forward $129 $-1 #
edge $-1 $634 -4.260413401727277 $347 4.2604134017272735 $339 $635 forward 7 unknown #
coedge $-1 $636 $491 $340 $488 forward $479 $-1 #
edge $-1 $489 -4.2604134017272735 $637 4.260413401727277 $340 $638 forward 7 unknown #
vertex $-1 $488 $639 #
straight-curve $-1 -61.399578844569234 31.451754844518138 0 0 0 1 I I #
coedge $-1 $487 $640 $342 $492 forward $479 $-1 #
edge $-1 $495 -61.399578844569234 $489 61.399578844569234 $491 $641 forward 7 unknown #
coedge $-1 $627 $343 $640 $642 reversed $494 $-1 #
loop $-1 $-1 $343 $478 #
vertex $-1 $344 $643 #
straight-curve $-1 61.399578844569234 31.451754844518138 0 0 0 -1 I I #
point $-1 61.399578844569234 31.451754844518138 -4.8222842082715598 #
point $-1 -61.399578844569234 31.451754844518138 -4.8222842082715598 #
loop $-1 $-1 $357 $349 #
plane-surface $-1 61.399578844569234 0 0 -1 0 0 0 0 1 forward_v I I I I #
coedge $-1 $502 $352 $354 $506 reversed $214 $-1 #
coedge $-1 $352 $501 $644 $645 reversed $214 $-1 #
coedge $-1 $360 $355 $352 $504 forward $350 $-1 #
edge $-1 $507 24.054531366555075 $646 30.699788414810492 $503 $647 forward 7 unknown #
coedge $-1 $354 $353 $510 $648 reversed $133 $-1 #
edge $-1 $649 -122.7991576891385 $507 -113.40134493700168 $501 $650 forward 7 unknown #
vertex $-1 $356 $651 #
straight-curve $-1 54.754321796313832 -6.1615200471373441 8.4808490227588749 0 -1 0 I I #
coedge $-1 $644 $357 $360 $514 reversed $499 $-1 #
coedge $-1 $357 $644 $505 $648 forward $499 $-1 #
vertex $-1 $358 $652 #
straight-curve $-1 61.399578844569234 -8.3598661086623096 87.749913036135766 0 0 1 I I #
straight-curve $-1 -25.432537273942614 -8.3598661086623096 88.667709953759683 0.70710677298230451 0 -0.70710678939079041 I I #
edge $-1 $646 -16.286214079887067 $361 -8.3598661086623096 $509 $653 forward 7 unknown #
point $-1 61.399578844569234 -8.3598661086623096 8.4808490227588731 #
point $-1 54.754321796313818 -8.3598661086623096 8.4808490227588749 #
edge $-1 $654 1 $654 0 $364 $-1 forward 7 unknown #
vertex $-1 $365 $655 #
ellipse-curve $-1 57.022235383722411 -14.700944485642115 4.1035055092848927 0.70710678939079041 0 0.70710677298230451 0.35355338649115226 0 -0.35355339469539521 1 I I #
point $-1 58.430503706932669 -14.700944485642115 4.8046670268338332 #
edge $-1 $656 1 $656 0 $368 $-1 forward 7 unknown #
vertex $-1 $369 $657 #
ellipse-curve $-1 57.022235383722411 -12.323040094274688 4.1035055092848927 0.70710678939079041 0 0.70710677298230451 0.35355338649115226 0 -0.35355339469539521 1 I I #
point $-1 58.430503706932669 -12.323040094274688 4.8046670268338332 #
edge $-1 $658 1 $658 0 $372 $-1 forward 7 unknown #
vertex $-1 $373 $659 #
ellipse-curve $-1 57.022235383722411 -9.9451357029072618 4.1035055092848927 0.70710678939079041 0 0.70710677298230451 0.35355338649115226 0 -0.35355339469539521 1 I I #
point $-1 58.430503706932669 -9.9451357029072618 4.8046670268338332 #
plane-surface $-1 0 0 8.4808490227588731 0 0 1 1 0 0 forward_v I I I I #
coedge $-1 $540 $539 $532 $660 forward $377 $-1 #
coedge $-1 $532 $379 $381 $536 reversed $243 $-1 #
coedge $-1 $379 $531 $530 $660 reversed $243 $-1 #
coedge $-1 $387 $382 $379 $534 forward $388 $-1 #
edge $-1 $537 24.054531366555075 $661 30.699788414810492 $533 $662 forward 7 unknown #
coedge $-1 $381 $380 $540 $663 reversed $152 $-1 #
edge $-1 $664 -122.7991576891385 $537 -113.40134493700168 $531 $665 forward 7 unknown #
vertex $-1 $383 $666 #
straight-curve $-1 54.754321796313832 5.303943973394448 8.4808490227588749 0 -1 0 I I #
coedge $-1 $530 $384 $387 $544 reversed $377 $-1 #
coedge $-1 $384 $530 $535 $663 forward $377 $-1 #
vertex $-1 $385 $667 #
straight-curve $-1 61.399578844569234 14.571061932401275 87.749913036135766 0 0 1 I I #
straight-curve $-1 -25.432537273942614 14.571061932401275 88.667709953759683 0.70710677298230451 0 -0.70710678939079041 I I #
edge $-1 $661 6.6447139611765174 $389 14.571061932401275 $539 $668 forward 7 unknown #
point $-1 61.399578844569234 14.571061932401275 8.4808490227588731 #
point $-1 54.754321796313818 14.571061932401275 8.4808490227588749 #
edge $-1 $669 1 $669 0 $392 $-1 forward 7 unknown #
vertex $-1 $393 $670 #
ellipse-curve $-1 57.022235383722411 8.229983555421466 4.1035055092848927 0.70710678939079041 0 0.70710677298230451 0.35355338649115226 0 -0.35355339469539521 1 I I #
point $-1 58.430503706932669 8.229983555421466 4.8046670268338332 #
edge $-1 $671 1 $671 0 $396 $-1 forward 7 unknown #
vertex $-1 $397 $672 #
ellipse-curve $-1 57.022235383722411 10.607887946788896 4.1035055092848927 0.70710678939079041 0 0.70710677298230451 0.35355338649115226 0 -0.35355339469539521 1 I I #
point $-1 58.430503706932669 10.607887946788896 4.8046670268338332 #
edge $-1 $673 1 $673 0 $400 $-1 forward 7 unknown #
vertex $-1 $401 $674 #
ellipse-curve $-1 57.022235383722411 12.985792338156326 4.1035055092848927 0.70710678939079041 0 0.70710677298230451 0.35355338649115226 0 -0.35355339469539521 1 I I #
point $-1 58.430503706932669 12.985792338156326 4.8046670268338332 #
plane-surface $-1 0 0 8.4808490227588731 0 0 1 1 0 0 forward_v I I I I #
coedge $-1 $570 $569 $562 $675 forward $405 $-1 #
coedge $-1 $562 $407 $409 $566 reversed $272 $-1 #
coedge $-1 $407 $561 $560 $675 reversed $272 $-1 #
coedge $-1 $415 $410 $407 $564 forward $416 $-1 #
edge $-1 $567 -19.186820216880847 $676 -13.467371870511087 $563 $677 forward 7 unknown #
coedge $-1 $409 $408 $570 $678 reversed $171 $-1 #
edge $-1 $679 0 $567 8.2334693711898694 $561 $680 forward 7 unknown #
vertex $-1 $411 $681 #
straight-curve $-1 -55.680130498199475 -8.8760411270670225 8.4808490227588749 0 1 0 I I #
coedge $-1 $560 $412 $415 $574 reversed $405 $-1 #
coedge $-1 $412 $560 $565 $678 forward $405 $-1 #
vertex $-1 $413 $682 #
straight-curve $-1 -61.399578844569234 -22.930928041063588 43.930824233876542 0 0 1 I I #
straight-curve $-1 -61.399578844569234 -22.930928041063588 2.5581867413578863 -0.69465836192734942 0 -0.71933980857756763 I I #
edge $-1 $676 12.573236467204504 $417 22.930928041063588 $569 $683 forward 7 unknown #
point $-1 -61.399578844569234 -22.930928041063588 8.4808490227588731 #
point $-1 -55.680130498199475 -22.930928041063588 8.4808490227588731 #
edge $-1 $684 1 $684 0 $420 $-1 forward 7 unknown #
vertex $-1 $421 $685 #
ellipse-curve $-1 -57.675305561868761 -20.859389726291766 4.6846325315459199 -0.71933980857756763 0 0.69465836192734942 0.34732918096367471 0 0.35966990428878381 1 I I #
point $-1 -58.192525490420685 -20.859389726291766 5.8791877863471669 #
edge $-1 $686 1 $686 0 $424 $-1 forward 7 unknown #
vertex $-1 $425 $687 #
ellipse-curve $-1 -57.675305561868761 -17.752082254134045 4.6846325315459199 -0.71933980857756763 0 0.69465836192734942 0.34732918096367471 0 0.35966990428878381 1 I I #
point $-1 -58.192525490420685 -17.752082254134045 5.8791877863471669 #
edge $-1 $688 1 $688 0 $428 $-1 forward 7 unknown #
vertex $-1 $429 $689 #
ellipse-curve $-1 -57.675305561868761 -14.64477478197632 4.6846325315459199 -0.71933980857756763 0 0.69465836192734942 0.34732918096367471 0 0.35966990428878381 1 I I #
point $-1 -58.192525490420685 -14.64477478197632 5.8791877863471669 #
plane-surface $-1 61.399578844569234 0 0 -1 0 0 0 0 1 forward_v I I I I #
coedge $-1 $600 $435 $438 $593 reversed $301 $-1 #
edge $-1 $449 -8.4808490227588731 $596 8.4808490227588731 $448 $690 forward 7 unknown #
straight-curve $-1 61.399578844569234 -31.451754844518138 0 0 0 -1 I I #
edge $-1 $594 -31.451754844518138 $596 31.451754844518138 $590 $691 forward 7 unknown #
vertex $-1 $593 $692 #
straight-curve $-1 0 -31.451754844518138 -8.4808490227588731 -1 0 0 I I #
vertex $-1 $441 $693 #
straight-curve $-1 0 31.451754844518138 -8.4808490227588731 1 0 0 I I #
point $-1 61.399578844569234 31.451754844518138 -8.4808490227588731 #
point $-1 61.399578844569234 -31.451754844518138 -8.4808490227588731 #
coedge $-1 $445 $590 $451 $603 reversed $301 $-1 #
straight-curve $-1 -61.399578844569234 0 8.4808490227588731 0 -1 0 I I #
point $-1 -61.399578844569234 31.451754844518138 8.4808490227588731 #
edge $-1 $452 -8.4808490227588731 $594 8.4808490227588731 $600 $694 forward 7 unknown #
point $-1 -61.399578844569234 -31.451754844518138 8.4808490227588731 #
straight-curve $-1 61.399578844569234 31.451754844518138 0 0 0 -1 I I #
plane-surface $-1 -61.399578844569234 0 0 1 0 0 0 0 -1 forward_v I I I I #
coedge $-1 $609 $618 $613 $695 forward $458 $-1 #
coedge $-1 $461 $460 $696 $697 forward $198 $-1 #
coedge $-1 $696 $607 $462 $610 reversed $458 $-1 #
edge $-1 $611 -61.399578844569234 $614 61.399578844569234 $609 $698 forward 7 unknown #
vertex $-1 $697 $699 #
straight-curve $-1 61.399578844569234 0 -8.4808490227588731 0 -1 0 I I #
coedge $-1 $470 $464 $607 $695 reversed $471 $-1 #
vertex $-1 $465 $700 #
straight-curve $-1 -61.399578844569234 0 -8.4808490227588731 0 1 0 I I #
point $-1 -61.399578844569234 -31.451754844518138 -8.4808490227588731 #
point $-1 61.399578844569234 -31.451754844518138 -8.4808490227588731 #
coedge $-1 $607 $696 $473 $619 reversed $458 $-1 #
edge $-1 $620 -61.399578844569234 $622 61.399578844569234 $618 $701 forward 7 unknown #
vertex $-1 $474 $702 #
straight-curve $-1 -61.399578844569234 -35.712168246245412 -4.8222842082715598 0 -1 0 I I #
vertex $-1 $475 $703 #
straight-curve $-1 61.399578844569234 -35.712168246245412 -4.8222842082715598 0 1 0 I I #
plane-surface $-1 61.399578844569234 0 0 -1 0 0 0 0 1 forward_v I I I I #
coedge $-1 $632 $481 $636 $704 reversed $336 $-1 #
coedge $-1 $481 $632 $482 $629 reversed $336 $-1 #
coedge $-1 $483 $493 $481 $628 reversed $494 $-1 #
edge $-1 $630 -1.8292824072436566 $705 1.8292824072436566 $627 $706 forward 7 unknown #
edge $-1 $630 -61.399578844569234 $634 61.399578844569234 $626 $707 forward 7 unknown #
vertex $-1 $484 $708 #
straight-curve $-1 61.399578844569234 35.712168246245412 -4.8222842082715598 0 1 0 I I #
coedge $-1 $626 $625 $485 $633 reversed $336 $-1 #
edge $-1 $634 -1.8292824072436566 $637 1.8292824072436566 $632 $709 forward 7 unknown #
vertex $-1 $629 $710 #
straight-curve $-1 -61.399578844569234 35.712168246245412 -4.8222842082715598 0 -1 0 I I #
coedge $-1 $640 $487 $625 $704 forward $479 $-1 #
vertex $-1 $704 $711 #
straight-curve $-1 -61.399578844569234 35.712168246245412 -8.4808490227588731 0 1 0 I I #
point $-1 -61.399578844569234 31.451754844518138 -8.4808490227588731 #
coedge $-1 $491 $636 $493 $642 forward $479 $-1 #
straight-curve $-1 0 31.451754844518138 -8.4808490227588731 -1 0 0 I I #
edge $-1 $705 -39.972581647972689 $495 -31.451754844518138 $493 $712 forward 7 unknown #
point $-1 61.399578844569234 31.451754844518138 -8.4808490227588731 #
coedge $-1 $510 $509 $502 $645 forward $499 $-1 #
edge $-1 $646 79.269064013376891 $649 85.914321215836182 $644 $713 forward 7 unknown #
vertex $-1 $514 $714 #
straight-curve $-1 30.699790429758743 -16.286214079887067 8.4808490227588749 1 0 0 I I #
edge $-1 $649 -10.124694032749723 $511 -2.1983460615249655 $510 $715 forward 7 unknown #
vertex $-1 $648 $716 #
straight-curve $-1 -25.432537273942614 -16.286214079887067 88.667709953759683 -0.70710677298230451 0 0.70710678939079041 I I #
point $-1 54.754321796313818 -16.286214079887067 8.4808490227588749 #
point $-1 61.399578844569234 -8.3598661086623096 1.8355918202995838 #
straight-curve $-1 61.399578844569234 0 8.4808490227588731 0 1 0 I I #
vertex $-1 $517 $717 #
point $-1 57.37578877021356 -14.700944485642115 3.7499521145894978 #
vertex $-1 $521 $718 #
point $-1 57.37578877021356 -12.323040094274688 3.7499521145894978 #
vertex $-1 $525 $719 #
point $-1 57.37578877021356 -9.9451357029072618 3.7499521145894978 #
edge $-1 $661 79.269064013376891 $664 85.914321215836182 $530 $720 forward 7 unknown #
vertex $-1 $544 $721 #
straight-curve $-1 30.699790429758743 6.6447139611765174 8.4808490227588749 1 0 0 I I #
edge $-1 $664 1.3407699877820694 $541 9.2671179590068267 $540 $722 forward 7 unknown #
vertex $-1 $663 $723 #
straight-curve $-1 -25.432537273942614 6.6447139611765174 88.667709953759683 -0.70710677298230451 0 0.70710678939079041 I I #
point $-1 54.754321796313818 6.6447139611765174 8.4808490227588749 #
point $-1 61.399578844569234 14.571061932401275 1.8355918202995838 #
straight-curve $-1 61.399578844569234 0 8.4808490227588731 0 1 0 I I #
vertex $-1 $547 $724 #
point $-1 57.37578877021356 8.229983555421466 3.7499521145894978 #
vertex $-1 $551 $725 #
point $-1 57.37578877021356 10.607887946788896 3.7499521145894978 #
vertex $-1 $555 $726 #
point $-1 57.37578877021356 12.985792338156326 3.7499521145894978 #
edge $-1 $676 35.449975211117668 $679 41.372637492518656 $560 $727 forward 7 unknown #
vertex $-1 $574 $728 #
straight-curve $-1 -74.866950715080321 -12.573236467204504 8.4808490227588749 -1 0 0 I I #
edge $-1 $679 3.6971953401374815 $571 14.054886913996565 $570 $729 forward 7 unknown #
vertex $-1 $678 $730 #
straight-curve $-1 -61.399578844569234 -12.573236467204504 2.5581867413578863 0.69465836192734942 0 0.71933980857756763 I I #
point $-1 -55.680130498199475 -12.573236467204504 8.4808490227588731 #
point $-1 -61.399578844569234 -22.930928041063588 2.5581867413578863 #
straight-curve $-1 -61.399578844569234 0 8.4808490227588731 0 -1 0 I I #
vertex $-1 $577 $731 #
point $-1 -57.327976380905092 -20.859389726291766 5.0443024358347035 #
vertex $-1 $581 $732 #
point $-1 -57.327976380905092 -17.752082254134045 5.0443024358347035 #
vertex $-1 $585 $733 #
point $-1 -57.327976380905092 -14.64477478197632 5.0443024358347035 #
straight-curve $-1 -61.399578844569234 31.451754844518138 0 0 0 -1 I I #
straight-curve $-1 -61.399578844569234 0 -8.4808490227588731 0 1 0 I I #
point $-1 -61.399578844569234 -31.451754844518138 -8.4808490227588731 #
point $-1 -61.399578844569234 31.451754844518138 -8.4808490227588731 #
straight-curve $-1 -61.399578844569234 -31.451754844518138 0 0 0 -1 I I #
edge $-1 $620 -1.8292824072436566 $614 1.8292824072436566 $613 $734 forward 7 unknown #
coedge $-1 $618 $609 $608 $697 reversed $458 $-1 #
edge $-1 $622 -1.8292824072436566 $611 1.8292824072436566 $608 $735 forward 7 unknown #
straight-curve $-1 0 -39.972581647972689 -8.4808490227588731 -1 0 0 I I #
point $-1 61.399578844569234 -39.972581647972689 -8.4808490227588731 #
point $-1 -61.399578844569234 -39.972581647972689 -8.4808490227588731 #
straight-curve $-1 0 -39.972581647972689 -4.8222842082715598 1 0 0 I I #
point $-1 -61.399578844569234 -39.972581647972689 -4.8222842082715598 #
point $-1 61.399578844569234 -39.972581647972689 -4.8222842082715598 #
edge $-1 $637 -61.399578844569234 $705 61.399578844569234 $625 $736 forward 7 unknown #
vertex $-1 $642 $737 #
straight-curve $-1 61.399578844569234 39.972581647972689 -6.6515666155152164 0 0 -1 I I #
straight-curve $-1 0 39.972581647972689 -4.8222842082715598 -1 0 0 I I #
point $-1 61.399578844569234 39.972581647972689 -4.8222842082715598 #
straight-curve $-1 -61.399578844569234 39.972581647972689 -6.6515666155152164 0 0 -1 I I #
point $-1 -61.399578844569234 39.972581647972689 -4.8222842082715598 #
point $-1 -61.399578844569234 39.972581647972689 -8.4808490227588731 #
straight-curve $-1 61.399578844569234 0 -8.4808490227588731 0 -1 0 I I #
straight-curve $-1 61.399578844569234 -16.286214079887067 87.749913036135766 0 0 -1 I I #
point $-1 61.399578844569234 -16.286214079887067 8.4808490227588731 #
straight-curve $-1 61.399578844569227 -6.1615200471373441 1.8355918202995838 0 1 0 I I #
point $-1 61.399578844569234 -16.286214079887067 1.8355918202995838 #
point $-1 56.668681989027014 -14.700944485642115 3.7499521227937405 #
point $-1 56.668681989027014 -12.323040094274688 3.7499521227937405 #
point $-1 56.668681989027014 -9.9451357029072618 3.7499521227937405 #
straight-curve $-1 61.399578844569234 6.6447139611765174 87.749913036135766 0 0 -1 I I #
point $-1 61.399578844569234 6.6447139611765174 8.4808490227588731 #
straight-curve $-1 61.399578844569227 5.303943973394448 1.8355918202995838 0 1 0 I I #
point $-1 61.399578844569234 6.6447139611765174 1.8355918202995838 #
point $-1 56.668681989027014 8.229983555421466 3.7499521227937405 #
point $-1 56.668681989027014 10.607887946788896 3.7499521227937405 #
point $-1 56.668681989027014 12.985792338156326 3.7499521227937405 #
straight-curve $-1 -61.399578844569234 -12.573236467204504 43.930824233876542 0 0 -1 I I #
point $-1 -61.399578844569234 -12.573236467204504 8.4808490227588731 #
straight-curve $-1 -61.399578844569234 -8.8760411270670225 2.5581867413578863 0 -1 0 I I #
point $-1 -61.399578844569234 -12.573236467204504 2.5581867413578863 #
point $-1 -57.315635657579982 -20.859389726291766 4.3373033505822454 #
point $-1 -57.315635657579982 -17.752082254134045 4.3373033505822454 #
point $-1 -57.315635657579982 -14.64477478197632 4.3373033505822454 #
straight-curve $-1 -61.399578844569234 -39.972581647972689 -6.6515666155152164 0 0 -1 I I #
straight-curve $-1 61.399578844569234 -39.972581647972689 -6.6515666155152164 0 0 -1 I I #
straight-curve $-1 0 39.972581647972689 -8.4808490227588731 1 0 0 I I #
point $-1 61.399578844569234 39.972581647972689 -8.4808490227588731 #
End-of-ACIS-data 