500 0 7 0           
7 Unknown 11 ACIS 5.0 NT 24 Fri Mar 26 15:01:00 1999 
-1 9.9999999999999995e-007 1e-010 
body $-1 $7 $-1 $8 #
body $-1 $9 $-1 $10 #
body $-1 $11 $-1 $12 #
body $-1 $13 $-1 $14 #
body $-1 $15 $-1 $16 #
body $-1 $17 $-1 $18 #
body $-1 $19 $-1 $20 #
lump $-1 $-1 $21 $0 #
transform $-1 1 0 0 0 1 0 0 0 1 66.171452986236147 46.08071177773769 13.24312432446602 1 rotate no_reflect no_shear #
lump $-1 $-1 $22 $1 #
transform $-1 1 0 0 0 1 0 0 0 1 66.171452986236147 46.08071177773769 13.24312432446602 1 rotate no_reflect no_shear #
lump $-1 $-1 $23 $2 #
transform $-1 1 0 0 0 1 0 0 0 1 66.171452986236147 46.08071177773769 13.24312432446602 1 rotate no_reflect no_shear #
lump $-1 $-1 $24 $3 #
transform $-1 1 0 0 0 1 0 0 0 1 66.171452986236147 46.08071177773769 13.24312432446602 1 rotate no_reflect no_shear #
lump $-1 $-1 $25 $4 #
transform $-1 1 0 0 0 1 0 0 0 1 66.171452986236147 46.08071177773769 13.24312432446602 1 rotate no_reflect no_shear #
lump $-1 $-1 $26 $5 #
transform $-1 1 0 0 0 1 0 0 0 1 66.171452986236147 46.08071177773769 13.24312432446602 1 rotate no_reflect no_shear #
lump $-1 $-1 $27 $6 #
transform $-1 1 0 0 0 1 0 0 0 1 66.171452986236147 46.08071177773769 13.24312432446602 1 rotate no_reflect no_shear #
shell $-1 $-1 $-1 $28 $-1 $7 #
shell $-1 $-1 $-1 $29 $-1 $9 #
shell $-1 $-1 $-1 $30 $-1 $11 #
shell $-1 $-1 $-1 $31 $-1 $13 #
shell $-1 $-1 $-1 $32 $-1 $15 #
shell $-1 $-1 $-1 $33 $-1 $17 #
shell $-1 $-1 $-1 $34 $-1 $19 #
face $-1 $35 $36 $21 $-1 $37 forward single #
face $-1 $38 $39 $22 $-1 $40 forward single #
face $-1 $41 $42 $23 $-1 $43 forward single #
face $-1 $44 $45 $24 $-1 $46 reversed single #
face $-1 $47 $48 $25 $-1 $49 forward single #
face $-1 $50 $51 $26 $-1 $52 forward single #
face $-1 $53 $54 $27 $-1 $55 forward single #
face $-1 $56 $57 $21 $-1 $58 reversed single #
loop $-1 $-1 $59 $28 #
plane-surface $-1 0 0 13.24312432446602 0 0 1 1 0 0 forward_v I I I I #
face $-1 $60 $61 $22 $-1 $62 reversed single #
loop $-1 $-1 $63 $29 #
plane-surface $-1 0 -38.300668243013874 8.3631346177253789 0 0 1 1 0 0 forward_v I I I I #
face $-1 $64 $65 $23 $-1 $66 reversed single #
loop $-1 $-1 $67 $30 #
plane-surface $-1 0 39.239080227830641 -8.0720534763013134 0 0 1 1 0 0 forward_v I I I I #
face $-1 $68 $69 $24 $-1 $70 reversed single #
loop $-1 $-1 $71 $31 #
plane-surface $-1 117.76005549266557 1.3618565150180046 179.97522344572332 0 1 0 0.87461971476443456 0 0.48480960649040278 forward_v I I I I #
face $-1 $72 $73 $25 $-1 $74 forward single #
loop $-1 $75 $76 $32 #
cone-surface $-1 61.398148268226578 4.0509719376827817 6.032512619806087 -0.87461971476443456 0 -0.48480960649040278 0.48480960649040278 0 -0.87461971476443456 1 I I 0 1 1 forward I I I I #
face $-1 $77 $78 $26 $-1 $79 forward single #
loop $-1 $80 $81 $33 #
cone-surface $-1 61.398148268226578 8.0846450716799509 6.032512619806087 -0.87461971476443456 0 -0.48480960649040278 0.48480960649040278 0 -0.87461971476443456 1 I I 0 1 1 forward I I I I #
face $-1 $82 $83 $27 $-1 $84 forward single #
loop $-1 $85 $86 $34 #
cone-surface $-1 61.398148268226578 12.11831820567712 6.032512619806087 -0.87461971476443456 0 -0.48480960649040278 0.48480960649040278 0 -0.87461971476443456 1 I I 0 1 1 forward I I I I #
face $-1 $87 $88 $21 $-1 $89 reversed single #
loop $-1 $-1 $90 $35 #
plane-surface $-1 0 0 -13.24312432446602 0 0 1 1 0 0 forward_v I I I I #
coedge $-1 $91 $92 $93 $94 forward $36 $-1 #
face $-1 $95 $96 $22 $-1 $97 reversed single #
loop $-1 $-1 $98 $38 #
plane-surface $-1 0 -38.300668243013874 0.56146445918485455 0 0 1 1 0 0 forward_v I I I I #
coedge $-1 $99 $100 $101 $102 reversed $39 $-1 #
face $-1 $103 $104 $23 $-1 $105 reversed single #
loop $-1 $-1 $106 $41 #
plane-surface $-1 0 32.397448677923599 -10.657588900383667 0 1 0 0 0 1 forward_v I I I I #
coedge $-1 $107 $108 $109 $110 reversed $42 $-1 #
face $-1 $111 $112 $24 $-1 $113 reversed single #
loop $-1 $-1 $114 $44 #
plane-surface $-1 2.0103408199254744 8.0846450716799509 115.81411127941264 0.87461971476443456 0 0.48480960649040278 0.48480960649040278 0 -0.87461971476443456 forward_v I I I I #
coedge $-1 $115 $116 $117 $118 reversed $45 $-1 #
face $-1 $-1 $119 $25 $-1 $120 forward single #
loop $-1 $121 $122 $47 #
cone-surface $-1 59.840077587656808 4.0509719376827817 5.1688599707977012 -0.87461971476443456 0 -0.48480960649040278 0.24240480324520139 0 -0.43730985738221728 1 I I -0.70710678118654746 0.70710678118654746 0.5 forward I I I I #
loop $-1 $-1 $123 $32 #
coedge $-1 $76 $76 $124 $125 reversed $48 $-1 #
face $-1 $-1 $126 $26 $-1 $127 forward single #
loop $-1 $128 $129 $50 #
cone-surface $-1 59.840077587656808 8.0846450716799509 5.1688599707977012 -0.87461971476443456 0 -0.48480960649040278 0.24240480324520139 0 -0.43730985738221728 1 I I -0.70710678118654746 0.70710678118654746 0.5 forward I I I I #
loop $-1 $-1 $130 $33 #
coedge $-1 $81 $81 $131 $132 reversed $51 $-1 #
face $-1 $-1 $133 $27 $-1 $134 forward single #
loop $-1 $135 $136 $53 #
cone-surface $-1 59.840077587656808 12.11831820567712 5.1688599707977012 -0.87461971476443456 0 -0.48480960649040278 0.24240480324520139 0 -0.43730985738221728 1 I I -0.70710678118654746 0.70710678118654746 0.5 forward I I I I #
loop $-1 $-1 $137 $34 #
coedge $-1 $86 $86 $138 $139 reversed $54 $-1 #
face $-1 $140 $141 $21 $-1 $142 reversed single #
loop $-1 $-1 $143 $56 #
plane-surface $-1 0 -46.08071177773769 0 0 1 0 0 0 1 forward_v I I I I #
coedge $-1 $144 $145 $146 $147 forward $57 $-1 #
coedge $-1 $148 $59 $149 $150 forward $36 $-1 #
coedge $-1 $59 $148 $151 $152 forward $36 $-1 #
coedge $-1 $153 $154 $59 $94 reversed $155 $-1 #
edge $-1 $156 -46.08071177773769 $157 46.08071177773769 $93 $158 forward 7 unknown #
face $-1 $159 $160 $22 $-1 $161 reversed single #
loop $-1 $-1 $162 $60 #
plane-surface $-1 0 -30.520624708290057 4.4622995384551167 0 -1 0 0 0 -1 forward_v I I I I #
coedge $-1 $163 $164 $165 $166 reversed $61 $-1 #
coedge $-1 $167 $63 $168 $169 forward $39 $-1 #
coedge $-1 $63 $167 $170 $171 reversed $39 $-1 #
coedge $-1 $172 $173 $63 $102 forward $174 $-1 #
edge $-1 $175 11.370290586783121 $176 26.930377656230753 $101 $177 forward 7 unknown #
face $-1 $178 $179 $23 $-1 $180 reversed single #
loop $-1 $-1 $109 $64 #
plane-surface $-1 66.171452986236147 0 0 -1 0 0 0 0 1 forward_v I I I I #
coedge $-1 $181 $182 $183 $184 reversed $65 $-1 #
coedge $-1 $185 $67 $186 $187 reversed $42 $-1 #
coedge $-1 $67 $185 $182 $188 forward $42 $-1 #
coedge $-1 $189 $190 $67 $110 forward $104 $-1 #
edge $-1 $191 -26.461171663822363 $192 -12.777908564008278 $109 $193 forward 7 unknown #
face $-1 $194 $195 $24 $-1 $196 forward single #
loop $-1 $-1 $197 $68 #
plane-surface $-1 117.76005549266557 14.807433628341897 179.97522344572332 0 -1 0 -0.87461971476443456 0 -0.48480960649040278 forward_v I I I I #
coedge $-1 $198 $199 $200 $201 reversed $69 $-1 #
coedge $-1 $116 $71 $202 $203 reversed $45 $-1 #
coedge $-1 $71 $115 $198 $204 reversed $45 $-1 #
coedge $-1 $200 $205 $71 $118 forward $206 $-1 #
edge $-1 $207 76.744487398395634 $208 89.923215116189112 $117 $209 forward 7 unknown #
loop $-1 $-1 $124 $72 #
plane-surface $-1 2.0103408199254744 8.0846450716799509 115.81411127941264 0.87461971476443456 0 0.48480960649040278 0.48480960649040278 0 -0.87461971476443456 forward_v I I I I #
loop $-1 $-1 $210 $47 #
coedge $-1 $122 $122 $123 $211 reversed $73 $-1 #
coedge $-1 $123 $123 $122 $211 forward $75 $-1 #
coedge $-1 $124 $124 $76 $125 forward $119 $-1 #
edge $-1 $212 0 $212 6.2831853071796004 $124 $213 forward 7 unknown #
loop $-1 $-1 $131 $77 #
plane-surface $-1 2.0103408199254744 8.0846450716799509 115.81411127941264 0.87461971476443456 0 0.48480960649040278 0.48480960649040278 0 -0.87461971476443456 forward_v I I I I #
loop $-1 $-1 $214 $50 #
coedge $-1 $129 $129 $130 $215 reversed $78 $-1 #
coedge $-1 $130 $130 $129 $215 forward $80 $-1 #
coedge $-1 $131 $131 $81 $132 forward $126 $-1 #
edge $-1 $216 0 $216 6.2831853071796004 $131 $217 forward 7 unknown #
loop $-1 $-1 $138 $82 #
plane-surface $-1 2.0103408199254744 8.0846450716799509 115.81411127941264 0.87461971476443456 0 0.48480960649040278 0.48480960649040278 0 -0.87461971476443456 forward_v I I I I #
loop $-1 $-1 $218 $53 #
coedge $-1 $136 $136 $137 $219 reversed $83 $-1 #
coedge $-1 $137 $137 $136 $219 forward $85 $-1 #
coedge $-1 $138 $138 $86 $139 forward $133 $-1 #
edge $-1 $220 0 $220 6.2831853071796004 $138 $221 forward 7 unknown #
face $-1 $222 $223 $21 $-1 $224 reversed single #
loop $-1 $-1 $225 $87 #
plane-surface $-1 -66.171452986236147 0 0 1 0 0 0 0 -1 forward_v I I I I #
coedge $-1 $226 $151 $227 $228 forward $88 $-1 #
coedge $-1 $229 $90 $226 $230 forward $57 $-1 #
coedge $-1 $90 $229 $231 $232 forward $57 $-1 #
coedge $-1 $154 $153 $90 $147 reversed $155 $-1 #
edge $-1 $233 -46.08071177773769 $234 46.08071177773769 $146 $235 forward 7 unknown #
coedge $-1 $92 $91 $236 $237 forward $36 $-1 #
coedge $-1 $238 $239 $91 $150 reversed $223 $-1 #
edge $-1 $157 -66.171452986236147 $240 66.171452986236147 $149 $241 forward 7 unknown #
coedge $-1 $143 $242 $92 $152 reversed $88 $-1 #
edge $-1 $243 -66.171452986236147 $156 66.171452986236147 $151 $244 forward 7 unknown #
coedge $-1 $146 $93 $242 $245 forward $155 $-1 #
coedge $-1 $93 $146 $238 $246 reversed $155 $-1 #
loop $-1 $-1 $153 $222 #
vertex $-1 $94 $247 #
vertex $-1 $94 $248 #
straight-curve $-1 66.171452986236147 0 13.24312432446602 0 1 0 I I #
face $-1 $249 $250 $22 $-1 $251 reversed single #
loop $-1 $-1 $252 $95 #
plane-surface $-1 -66.171452986236147 0 0 1 0 0 0 0 -1 forward_v I I I I #
coedge $-1 $253 $168 $173 $254 reversed $96 $-1 #
coedge $-1 $255 $98 $256 $257 reversed $61 $-1 #
coedge $-1 $98 $255 $253 $258 forward $61 $-1 #
coedge $-1 $173 $172 $98 $166 forward $174 $-1 #
edge $-1 $259 -26.930377656230753 $260 -11.370290586783121 $165 $261 forward 7 unknown #
coedge $-1 $100 $99 $252 $262 reversed $39 $-1 #
coedge $-1 $162 $263 $99 $169 reversed $96 $-1 #
edge $-1 $175 -66.171452986236147 $264 66.171452986236147 $168 $265 forward 7 unknown #
coedge $-1 $266 $267 $100 $171 forward $250 $-1 #
edge $-1 $176 -66.171452986236147 $268 66.171452986236147 $170 $269 forward 7 unknown #
coedge $-1 $165 $101 $267 $270 forward $174 $-1 #
coedge $-1 $101 $165 $162 $254 forward $174 $-1 #
loop $-1 $-1 $101 $249 #
vertex $-1 $102 $271 #
vertex $-1 $270 $272 #
straight-curve $-1 66.171452986236147 -19.150334121506937 8.3631346177253789 0 -1 0 I I #
face $-1 $273 $274 $23 $-1 $275 reversed single #
loop $-1 $-1 $276 $103 #
plane-surface $-1 0 0 -13.24312432446602 0 0 1 1 0 0 forward_v I I I I #
coedge $-1 $277 $106 $276 $278 reversed $65 $-1 #
coedge $-1 $106 $277 $108 $188 reversed $65 $-1 #
coedge $-1 $279 $280 $106 $184 forward $274 $-1 #
edge $-1 $281 -7.9143298742741868 $282 -2.74325902610948 $183 $283 forward 7 unknown #
coedge $-1 $108 $107 $279 $284 reversed $42 $-1 #
coedge $-1 $285 $286 $107 $187 forward $287 $-1 #
edge $-1 $288 -66.171452986236147 $191 66.171452986236147 $186 $289 forward 7 unknown #
edge $-1 $282 -66.171452986236147 $192 66.171452986236147 $182 $290 forward 7 unknown #
coedge $-1 $291 $109 $277 $292 forward $104 $-1 #
coedge $-1 $109 $291 $285 $293 reversed $104 $-1 #
vertex $-1 $293 $294 #
vertex $-1 $110 $295 #
straight-curve $-1 66.171452986236147 19.61954011391532 -8.0720534763013134 0 -1 0 I I #
face $-1 $-1 $206 $24 $-1 $296 reversed single #
loop $-1 $-1 $297 $111 #
plane-surface $-1 0 0 13.24312432446602 0 0 1 1 0 0 forward_v I I I I #
coedge $-1 $298 $299 $300 $301 reversed $112 $-1 #
coedge $-1 $302 $114 $116 $204 forward $69 $-1 #
coedge $-1 $114 $302 $298 $303 forward $69 $-1 #
coedge $-1 $300 $117 $114 $201 forward $206 $-1 #
edge $-1 $208 -2.6804660208219708 $304 10.765111092501922 $200 $305 forward 7 unknown #
coedge $-1 $306 $307 $115 $203 forward $195 $-1 #
edge $-1 $308 -0.013662549740679708 $207 7.2914252399033614 $202 $309 forward 7 unknown #
edge $-1 $208 -132.34290597247229 $308 -117.27495415830245 $116 $310 forward 7 unknown #
coedge $-1 $117 $300 $306 $311 reversed $206 $-1 #
loop $-1 $-1 $300 $194 #
vertex $-1 $311 $312 #
vertex $-1 $118 $313 #
straight-curve $-1 66.171452986236147 1.3618565150180046 89.987611722861658 0 0 -1 I I #
coedge $-1 $210 $210 $-1 $314 reversed $121 $-1 #
edge $-1 $315 0 $315 6.2831853071796004 $122 $316 forward 7 unknown #
vertex $-1 $125 $317 #
ellipse-curve $-1 62.51890909141413 4.0509719376827817 6.6537604655692748 0.87461971476443456 0 0.48480960649040278 0.48480960649040278 0 -0.87461971476443456 1 I I #
coedge $-1 $214 $214 $-1 $318 reversed $128 $-1 #
edge $-1 $319 0 $319 6.2831853071796004 $129 $320 forward 7 unknown #
vertex $-1 $132 $321 #
ellipse-curve $-1 62.51890909141413 8.0846450716799509 6.6537604655692748 0.87461971476443456 0 0.48480960649040278 0.48480960649040278 0 -0.87461971476443456 1 I I #
coedge $-1 $218 $218 $-1 $322 reversed $135 $-1 #
edge $-1 $323 0 $323 6.2831853071796004 $136 $324 forward 7 unknown #
vertex $-1 $139 $325 #
ellipse-curve $-1 62.51890909141413 12.11831820567712 6.6537604655692748 0.87461971476443456 0 0.48480960649040278 0.48480960649040278 0 -0.87461971476443456 1 I I #
face $-1 $-1 $155 $21 $-1 $326 reversed single #
loop $-1 $-1 $238 $140 #
plane-surface $-1 0 46.08071177773769 0 0 -1 0 0 0 -1 forward_v I I I I #
coedge $-1 $327 $236 $239 $328 forward $141 $-1 #
coedge $-1 $242 $143 $144 $230 reversed $88 $-1 #
coedge $-1 $236 $327 $143 $228 reversed $141 $-1 #
edge $-1 $243 -13.24312432446602 $329 13.24312432446602 $227 $330 forward 7 unknown #
coedge $-1 $145 $144 $327 $331 forward $57 $-1 #
edge $-1 $234 -66.171452986236147 $329 66.171452986236147 $226 $332 forward 7 unknown #
coedge $-1 $239 $238 $145 $232 reversed $223 $-1 #
edge $-1 $333 -66.171452986236147 $233 66.171452986236147 $231 $334 forward 7 unknown #
vertex $-1 $147 $335 #
vertex $-1 $245 $336 #
straight-curve $-1 66.171452986236147 0 -13.24312432446602 0 -1 0 I I #
coedge $-1 $225 $227 $148 $237 reversed $141 $-1 #
edge $-1 $240 -46.08071177773769 $243 46.08071177773769 $236 $337 forward 7 unknown #
coedge $-1 $231 $149 $154 $246 forward $223 $-1 #
coedge $-1 $149 $231 $225 $328 reversed $223 $-1 #
vertex $-1 $150 $338 #
straight-curve $-1 0 46.08071177773769 13.24312432446602 -1 0 0 I I #
coedge $-1 $151 $226 $153 $245 reversed $88 $-1 #
vertex $-1 $237 $339 #
straight-curve $-1 0 -46.08071177773769 13.24312432446602 1 0 0 I I #
edge $-1 $156 -13.24312432446602 $234 13.24312432446602 $153 $340 forward 7 unknown #
edge $-1 $157 -13.24312432446602 $233 13.24312432446602 $154 $341 forward 7 unknown #
point $-1 66.171452986236147 -46.08071177773769 13.24312432446602 #
point $-1 66.171452986236147 46.08071177773769 13.24312432446602 #
face $-1 $-1 $174 $22 $-1 $342 reversed single #
loop $-1 $-1 $170 $159 #
plane-surface $-1 0 -46.08071177773769 0 0 1 0 0 0 1 forward_v I I I I #
coedge $-1 $343 $344 $167 $262 forward $160 $-1 #
coedge $-1 $263 $162 $164 $258 reversed $96 $-1 #
edge $-1 $260 -1.6696853100427038 $175 6.1319848484978206 $173 $345 forward 7 unknown #
coedge $-1 $164 $163 $346 $347 reversed $61 $-1 #
coedge $-1 $267 $266 $163 $257 forward $250 $-1 #
edge $-1 $348 -66.171452986236147 $259 66.171452986236147 $256 $349 forward 7 unknown #
edge $-1 $350 -66.171452986236147 $260 66.171452986236147 $253 $351 forward 7 unknown #
vertex $-1 $257 $352 #
vertex $-1 $166 $353 #
straight-curve $-1 66.171452986236147 -19.150334121506937 0.56146445918485455 0 1 0 I I #
edge $-1 $268 -26.930377656230753 $264 -11.370290586783121 $252 $354 forward 7 unknown #
coedge $-1 $168 $253 $343 $355 reversed $96 $-1 #
vertex $-1 $262 $356 #
straight-curve $-1 0 -30.520624708290057 8.3631346177253789 -1 0 0 I I #
coedge $-1 $256 $170 $344 $357 forward $250 $-1 #
coedge $-1 $170 $256 $172 $270 reversed $250 $-1 #
vertex $-1 $357 $358 #
straight-curve $-1 0 -46.08071177773769 8.3631346177253789 -1 0 0 I I #
edge $-1 $176 -8.3631346177253789 $259 -0.56146445918485455 $172 $359 forward 7 unknown #
point $-1 66.171452986236147 -30.520624708290057 8.3631346177253789 #
point $-1 66.171452986236147 -46.08071177773769 8.3631346177253789 #
face $-1 $-1 $287 $23 $-1 $360 reversed single #
loop $-1 $-1 $279 $178 #
plane-surface $-1 -66.171452986236147 0 0 1 0 0 0 0 -1 forward_v I I I I #
coedge $-1 $361 $362 $181 $278 forward $179 $-1 #
coedge $-1 $182 $181 $189 $292 reversed $65 $-1 #
edge $-1 $363 -66.171452986236147 $281 66.171452986236147 $276 $364 forward 7 unknown #
coedge $-1 $365 $183 $185 $284 forward $274 $-1 #
coedge $-1 $183 $365 $361 $366 reversed $274 $-1 #
vertex $-1 $366 $367 #
vertex $-1 $284 $368 #
straight-curve $-1 -66.171452986236147 32.397448677923599 -5.3287944501918334 0 0 1 I I #
edge $-1 $282 12.777908564008278 $288 26.461171663822363 $279 $369 forward 7 unknown #
coedge $-1 $370 $186 $190 $293 forward $287 $-1 #
coedge $-1 $186 $370 $365 $371 reversed $287 $-1 #
loop $-1 $-1 $186 $273 #
vertex $-1 $371 $372 #
straight-curve $-1 0 46.08071177773769 -8.0720534763013134 1 0 0 I I #
straight-curve $-1 0 32.397448677923599 -8.0720534763013134 1 0 0 I I #
coedge $-1 $190 $189 $362 $373 reversed $104 $-1 #
edge $-1 $192 2.74325902610948 $363 7.9143298742741868 $189 $374 forward 7 unknown #
edge $-1 $191 8.0720534763013134 $375 13.24312432446602 $190 $376 forward 7 unknown #
point $-1 66.171452986236147 46.080711777737683 -8.0720534763013134 #
point $-1 66.171452986236147 32.397448677923599 -8.0720534763013134 #
plane-surface $-1 66.171452986236147 0 0 -1 0 0 0 0 1 forward_v I I I I #
coedge $-1 $307 $306 $299 $377 forward $195 $-1 #
coedge $-1 $299 $197 $199 $303 reversed $112 $-1 #
coedge $-1 $197 $298 $297 $377 reversed $112 $-1 #
coedge $-1 $205 $200 $197 $301 forward $206 $-1 #
edge $-1 $304 -89.923215116189112 $378 -76.744487398395634 $300 $379 forward 7 unknown #
coedge $-1 $199 $198 $307 $380 reversed $69 $-1 #
edge $-1 $381 117.27495415830245 $304 132.34290597247229 $298 $382 forward 7 unknown #
vertex $-1 $201 $383 #
straight-curve $-1 66.171452986236147 4.0423225358399755 0.064396606672538326 0 1 0 I I #
coedge $-1 $297 $202 $205 $311 forward $195 $-1 #
coedge $-1 $202 $297 $302 $380 forward $195 $-1 #
vertex $-1 $203 $384 #
straight-curve $-1 58.880027746332786 1.3618565150180046 13.243124324466024 1 0 0 I I #
straight-curve $-1 2.0103408199254744 1.3618565150180046 115.81411127941264 -0.48480960649040278 0 0.87461971476443456 I I #
edge $-1 $207 1.3618565150180046 $378 14.807433628341897 $205 $385 forward 7 unknown #
point $-1 66.171452986236147 1.3618565150180046 13.24312432446602 #
point $-1 66.171452986236147 1.3618565150180046 0.064396606672545431 #
edge $-1 $386 1 $386 0 $210 $-1 forward 7 unknown #
vertex $-1 $211 $387 #
ellipse-curve $-1 60.277387445039025 4.0509719376827817 5.4112647740429027 0.87461971476443456 0 0.48480960649040278 0.48480960649040278 0 -0.87461971476443456 1 I I #
point $-1 63.003718697904525 4.0509719376827817 5.7791407508048369 #
edge $-1 $388 1 $388 0 $214 $-1 forward 7 unknown #
vertex $-1 $215 $389 #
ellipse-curve $-1 60.277387445039025 8.0846450716799509 5.4112647740429027 0.87461971476443456 0 0.48480960649040278 0.48480960649040278 0 -0.87461971476443456 1 I I #
point $-1 63.003718697904525 8.0846450716799509 5.7791407508048369 #
edge $-1 $390 1 $390 0 $218 $-1 forward 7 unknown #
vertex $-1 $219 $391 #
ellipse-curve $-1 60.277387445039025 12.11831820567712 5.4112647740429027 0.87461971476443456 0 0.48480960649040278 0.48480960649040278 0 -0.87461971476443456 1 I I #
point $-1 63.003718697904525 12.11831820567712 5.7791407508048369 #
plane-surface $-1 66.171452986236147 0 0 -1 0 0 0 0 1 forward_v I I I I #
coedge $-1 $227 $225 $229 $331 reversed $141 $-1 #
edge $-1 $240 -13.24312432446602 $333 13.24312432446602 $239 $392 forward 7 unknown #
vertex $-1 $331 $393 #
straight-curve $-1 -66.171452986236147 -46.08071177773769 0 0 0 -1 I I #
edge $-1 $329 -46.08071177773769 $333 46.08071177773769 $327 $394 forward 7 unknown #
straight-curve $-1 0 -46.08071177773769 -13.24312432446602 -1 0 0 I I #
vertex $-1 $232 $395 #
straight-curve $-1 0 46.08071177773769 -13.24312432446602 1 0 0 I I #
point $-1 66.171452986236147 46.08071177773769 -13.24312432446602 #
point $-1 66.171452986236147 -46.08071177773769 -13.24312432446602 #
straight-curve $-1 -66.171452986236147 0 13.24312432446602 0 -1 0 I I #
point $-1 -66.171452986236147 46.08071177773769 13.24312432446602 #
point $-1 -66.171452986236147 -46.08071177773769 13.24312432446602 #
straight-curve $-1 66.171452986236147 -46.08071177773769 0 0 0 -1 I I #
straight-curve $-1 66.171452986236147 46.08071177773769 0 0 0 -1 I I #
plane-surface $-1 66.171452986236147 0 0 -1 0 0 0 0 1 forward_v I I I I #
coedge $-1 $346 $252 $263 $355 forward $160 $-1 #
coedge $-1 $252 $346 $266 $357 reversed $160 $-1 #
straight-curve $-1 66.171452986236147 -30.520624708290057 2.2311497692275584 0 0 1 I I #
coedge $-1 $344 $343 $255 $347 forward $160 $-1 #
edge $-1 $350 11.370290586783121 $348 26.930377656230753 $346 $396 forward 7 unknown #
vertex $-1 $257 $397 #
straight-curve $-1 0 -46.08071177773769 0.56146445918485455 1 0 0 I I #
vertex $-1 $347 $398 #
straight-curve $-1 0 -30.520624708290057 0.56146445918485455 1 0 0 I I #
point $-1 66.171452986236147 -46.08071177773769 0.56146445918485455 #
point $-1 66.171452986236147 -30.520624708290057 0.56146445918485455 #
straight-curve $-1 -66.171452986236147 -19.150334121506937 8.3631346177253789 0 1 0 I I #
edge $-1 $264 -6.1319848484978206 $350 1.6696853100427038 $343 $399 forward 7 unknown #
point $-1 -66.171452986236147 -30.520624708290057 8.3631346177253789 #
edge $-1 $268 -8.3631346177253789 $348 -0.56146445918485455 $344 $400 forward 7 unknown #
point $-1 -66.171452986236147 -46.08071177773769 8.3631346177253789 #
straight-curve $-1 66.171452986236147 -46.08071177773769 0 0 0 -1 I I #
plane-surface $-1 0 46.08071177773769 0 0 -1 0 0 0 -1 forward_v I I I I #
coedge $-1 $401 $276 $280 $366 forward $179 $-1 #
coedge $-1 $276 $401 $291 $373 forward $179 $-1 #
vertex $-1 $278 $402 #
straight-curve $-1 0 32.397448677923599 -13.24312432446602 -1 0 0 I I #
coedge $-1 $280 $279 $286 $371 forward $274 $-1 #
edge $-1 $281 32.397448677923599 $403 46.08071177773769 $280 $404 forward 7 unknown #
point $-1 -66.171452986236147 32.397448677923599 -13.24312432446602 #
point $-1 -66.171452986236147 32.397448677923599 -8.0720534763013134 #
straight-curve $-1 -66.171452986236147 19.61954011391532 -8.0720534763013134 0 1 0 I I #
coedge $-1 $286 $285 $401 $405 reversed $287 $-1 #
edge $-1 $288 8.0720534763013134 $403 13.24312432446602 $286 $406 forward 7 unknown #
point $-1 -66.171452986236147 46.080711777737683 -8.0720534763013134 #
edge $-1 $375 -46.08071177773769 $363 -32.397448677923599 $291 $407 forward 7 unknown #
straight-curve $-1 66.171452986236147 32.397448677923599 -5.3287944501918334 0 0 -1 I I #
vertex $-1 $373 $408 #
straight-curve $-1 66.171452986236147 46.08071177773769 0 0 0 -1 I I #
edge $-1 $378 -7.2914252399033614 $381 0.013662549740679708 $297 $409 forward 7 unknown #
vertex $-1 $377 $410 #
straight-curve $-1 66.171452986236147 14.807433628341897 89.987611722861658 0 0 1 I I #
edge $-1 $381 -10.765111092501922 $308 2.6804660208219708 $307 $411 forward 7 unknown #
vertex $-1 $380 $412 #
straight-curve $-1 2.0103408199254744 14.807433628341897 115.81411127941264 0.48480960649040278 0 -0.87461971476443456 I I #
point $-1 66.171452986236147 14.807433628341897 0.064396606672545431 #
point $-1 58.866365196592106 1.3618565150180046 13.243124324466024 #
straight-curve $-1 66.171452986236147 0 13.24312432446602 0 1 0 I I #
vertex $-1 $314 $413 #
point $-1 60.762197051529427 4.0509719376827817 4.5366450592784684 #
vertex $-1 $318 $414 #
point $-1 60.762197051529427 8.0846450716799509 4.5366450592784684 #
vertex $-1 $322 $415 #
point $-1 60.762197051529427 12.11831820567712 4.5366450592784684 #
straight-curve $-1 -66.171452986236147 46.08071177773769 0 0 0 -1 I I #
point $-1 -66.171452986236147 -46.08071177773769 -13.24312432446602 #
straight-curve $-1 -66.171452986236147 0 -13.24312432446602 0 1 0 I I #
point $-1 -66.171452986236147 46.08071177773769 -13.24312432446602 #
straight-curve $-1 -66.171452986236147 -19.150334121506937 0.56146445918485455 0 -1 0 I I #
point $-1 -66.171452986236147 -46.08071177773769 0.56146445918485455 #
point $-1 -66.171452986236147 -30.520624708290057 0.56146445918485455 #
straight-curve $-1 -66.171452986236147 -30.520624708290057 2.2311497692275584 0 0 -1 I I #
straight-curve $-1 -66.171452986236147 -46.08071177773769 0 0 0 -1 I I #
coedge $-1 $362 $361 $370 $405 forward $179 $-1 #
point $-1 66.171452986236147 32.397448677923599 -13.24312432446602 #
vertex $-1 $405 $416 #
straight-curve $-1 -66.171452986236147 0 -13.24312432446602 0 1 0 I I #
edge $-1 $403 -66.171452986236147 $375 66.171452986236147 $370 $417 forward 7 unknown #
straight-curve $-1 -66.171452986236147 46.08071177773769 0 0 0 -1 I I #
straight-curve $-1 66.171452986236147 0 -13.24312432446602 0 -1 0 I I #
point $-1 66.171452986236147 46.08071177773769 -13.24312432446602 #
straight-curve $-1 58.880027746332786 14.807433628341897 13.243124324466024 -1 0 0 I I #
point $-1 66.171452986236147 14.807433628341897 13.24312432446602 #
straight-curve $-1 58.866365196592106 4.0423225358399755 13.243124324466024 0 -1 0 I I #
point $-1 58.866365196592106 14.807433628341897 13.243124324466024 #
point $-1 59.40276773027459 4.0509719376827817 4.9264551675524997 #
point $-1 59.40276773027459 8.0846450716799509 4.9264551675524997 #
point $-1 59.40276773027459 12.11831820567712 4.9264551675524997 #
point $-1 -66.171452986236147 46.08071177773769 -13.24312432446602 #
straight-curve $-1 0 46.08071177773769 -13.24312432446602 1 0 0 I I #
End-of-ACIS-data 