500 0 20 0           
7 Unknown 11 ACIS 5.0 NT 24 Fri Mar 26 17:40:33 1999 
-1 9.9999999999999995e-007 1e-010 
body $-1 $20 $-1 $21 #
body $-1 $22 $-1 $23 #
body $-1 $24 $-1 $25 #
body $-1 $26 $-1 $27 #
body $-1 $28 $-1 $29 #
body $-1 $30 $-1 $31 #
body $-1 $32 $-1 $33 #
body $-1 $34 $-1 $35 #
body $-1 $36 $-1 $37 #
body $-1 $38 $-1 $39 #
body $-1 $40 $-1 $41 #
body $-1 $42 $-1 $43 #
body $-1 $44 $-1 $45 #
body $-1 $46 $-1 $47 #
body $-1 $48 $-1 $49 #
body $-1 $50 $-1 $51 #
body $-1 $52 $-1 $53 #
body $-1 $54 $-1 $55 #
body $-1 $56 $-1 $57 #
body $-1 $58 $-1 $59 #
lump $-1 $-1 $60 $0 #
transform $-1 1 0 0 0 1 0 0 0 1 43.944212164677879 29.755516957308906 14.410816530369647 1 rotate no_reflect no_shear #
lump $-1 $-1 $61 $1 #
transform $-1 1 0 0 0 1 0 0 0 1 43.944212164677879 29.755516957308906 14.410816530369647 1 rotate no_reflect no_shear #
lump $-1 $-1 $62 $2 #
transform $-1 1 0 0 0 1 0 0 0 1 43.944212164677879 29.755516957308906 14.410816530369647 1 rotate no_reflect no_shear #
lump $-1 $-1 $63 $3 #
transform $-1 1 0 0 0 1 0 0 0 1 43.944212164677879 29.755516957308906 14.410816530369647 1 rotate no_reflect no_shear #
lump $-1 $-1 $64 $4 #
transform $-1 1 0 0 0 1 0 0 0 1 43.944212164677879 29.755516957308906 14.410816530369647 1 rotate no_reflect no_shear #
lump $-1 $-1 $65 $5 #
transform $-1 1 0 0 0 1 0 0 0 1 43.944212164677879 29.755516957308906 14.410816530369647 1 rotate no_reflect no_shear #
lump $-1 $-1 $66 $6 #
transform $-1 1 0 0 0 1 0 0 0 1 43.944212164677879 29.755516957308906 14.410816530369647 1 rotate no_reflect no_shear #
lump $-1 $-1 $67 $7 #
transform $-1 1 0 0 0 1 0 0 0 1 43.944212164677879 29.755516957308906 14.410816530369647 1 rotate no_reflect no_shear #
lump $-1 $-1 $68 $8 #
transform $-1 1 0 0 0 1 0 0 0 1 43.944212164677879 29.755516957308906 14.410816530369647 1 rotate no_reflect no_shear #
lump $-1 $-1 $69 $9 #
transform $-1 1 0 0 0 1 0 0 0 1 43.944212164677879 29.755516957308906 14.410816530369647 1 rotate no_reflect no_shear #
lump $-1 $-1 $70 $10 #
transform $-1 1 0 0 0 1 0 0 0 1 43.944212164677879 29.755516957308906 14.410816530369647 1 rotate no_reflect no_shear #
lump $-1 $-1 $71 $11 #
transform $-1 1 0 0 0 1 0 0 0 1 43.944212164677879 29.755516957308906 14.410816530369647 1 rotate no_reflect no_shear #
lump $-1 $-1 $72 $12 #
transform $-1 1 0 0 0 1 0 0 0 1 43.944212164677879 29.755516957308906 14.410816530369647 1 rotate no_reflect no_shear #
lump $-1 $-1 $73 $13 #
transform $-1 1 0 0 0 1 0 0 0 1 43.944212164677879 29.755516957308906 14.410816530369647 1 rotate no_reflect no_shear #
lump $-1 $-1 $74 $14 #
transform $-1 1 0 0 0 1 0 0 0 1 43.944212164677879 29.755516957308906 14.410816530369647 1 rotate no_reflect no_shear #
lump $-1 $-1 $75 $15 #
transform $-1 1 0 0 0 1 0 0 0 1 43.944212164677879 29.755516957308906 14.410816530369647 1 rotate no_reflect no_shear #
lump $-1 $-1 $76 $16 #
transform $-1 1 0 0 0 1 0 0 0 1 43.944212164677879 29.755516957308906 14.410816530369647 1 rotate no_reflect no_shear #
lump $-1 $-1 $77 $17 #
transform $-1 1 0 0 0 1 0 0 0 1 43.944212164677879 29.755516957308906 14.410816530369647 1 rotate no_reflect no_shear #
lump $-1 $-1 $78 $18 #
transform $-1 1 0 0 0 1 0 0 0 1 43.944212164677879 29.755516957308906 14.410816530369647 1 rotate no_reflect no_shear #
lump $-1 $-1 $79 $19 #
transform $-1 1 0 0 0 1 0 0 0 1 43.944212164677879 29.755516957308906 14.410816530369647 1 rotate no_reflect no_shear #
shell $-1 $-1 $-1 $80 $-1 $20 #
shell $-1 $-1 $-1 $81 $-1 $22 #
shell $-1 $-1 $-1 $82 $-1 $24 #
shell $-1 $-1 $-1 $83 $-1 $26 #
shell $-1 $-1 $-1 $84 $-1 $28 #
shell $-1 $-1 $-1 $85 $-1 $30 #
shell $-1 $-1 $-1 $86 $-1 $32 #
shell $-1 $-1 $-1 $87 $-1 $34 #
shell $-1 $-1 $-1 $88 $-1 $36 #
shell $-1 $-1 $-1 $89 $-1 $38 #
shell $-1 $-1 $-1 $90 $-1 $40 #
shell $-1 $-1 $-1 $91 $-1 $42 #
shell $-1 $-1 $-1 $92 $-1 $44 #
shell $-1 $-1 $-1 $93 $-1 $46 #
shell $-1 $-1 $-1 $94 $-1 $48 #
shell $-1 $-1 $-1 $95 $-1 $50 #
shell $-1 $-1 $-1 $96 $-1 $52 #
shell $-1 $-1 $-1 $97 $-1 $54 #
shell $-1 $-1 $-1 $98 $-1 $56 #
shell $-1 $-1 $-1 $99 $-1 $58 #
face $-1 $100 $101 $60 $-1 $102 forward single #
face $-1 $103 $104 $61 $-1 $105 forward single #
face $-1 $106 $107 $62 $-1 $108 reversed single #
face $-1 $109 $110 $63 $-1 $111 forward single #
face $-1 $112 $113 $64 $-1 $114 forward single #
face $-1 $115 $116 $65 $-1 $117 forward single #
face $-1 $118 $119 $66 $-1 $120 reversed single #
face $-1 $121 $122 $67 $-1 $123 forward single #
face $-1 $124 $125 $68 $-1 $126 forward single #
face $-1 $127 $128 $69 $-1 $129 forward single #
face $-1 $130 $131 $70 $-1 $132 reversed single #
face $-1 $133 $134 $71 $-1 $135 forward single #
face $-1 $136 $137 $72 $-1 $138 forward single #
face $-1 $139 $140 $73 $-1 $141 forward single #
face $-1 $142 $143 $74 $-1 $144 reversed single #
face $-1 $145 $146 $75 $-1 $147 forward single #
face $-1 $148 $149 $76 $-1 $150 forward single #
face $-1 $151 $152 $77 $-1 $153 forward single #
face $-1 $154 $155 $78 $-1 $156 reversed single #
face $-1 $157 $158 $79 $-1 $159 forward single #
face $-1 $160 $161 $60 $-1 $162 reversed single #
loop $-1 $-1 $163 $80 #
plane-surface $-1 0 0 14.410816530369647 0 0 1 1 0 0 forward_v I I I I #
face $-1 $164 $165 $61 $-1 $166 reversed single #
loop $-1 $-1 $167 $81 #
plane-surface $-1 -38.282142669491485 0 -9.6333056209362091 0 0 1 1 0 0 forward_v I I I I #
face $-1 $168 $169 $62 $-1 $170 reversed single #
loop $-1 $-1 $171 $82 #
plane-surface $-1 -29.852497312711584 -73.699729710728178 86.7527220531654 1 0 0 0 0.50000000669873634 -0.8660253999169214 forward_v I I I I #
face $-1 $172 $173 $63 $-1 $174 forward single #
loop $-1 $175 $176 $83 #
cone-surface $-1 -27.186066104692731 -25.689542044942623 11.140043628630204 0 0.50000000669873634 -0.8660253999169214 1 0 0 1 I I 0 1 1 forward I I I I #
face $-1 $177 $178 $64 $-1 $179 forward single #
loop $-1 $180 $181 $84 #
cone-surface $-1 -23.186419292664453 -25.689542044942623 11.140043628630204 0 0.50000000669873634 -0.8660253999169214 1 0 0 1 I I 0 1 1 forward I I I I #
face $-1 $182 $183 $65 $-1 $184 forward single #
loop $-1 $185 $186 $85 #
cone-surface $-1 -19.186772480636176 -25.689542044942623 11.140043628630204 0 0.50000000669873634 -0.8660253999169214 1 0 0 1 I I 0 1 1 forward I I I I #
face $-1 $187 $188 $66 $-1 $189 reversed single #
loop $-1 $-1 $190 $86 #
plane-surface $-1 -10.620171454144346 -73.699729710728178 86.7527220531654 1 0 0 0 0.50000000669873634 -0.8660253999169214 forward_v I I I I #
face $-1 $191 $192 $67 $-1 $193 forward single #
loop $-1 $194 $195 $87 #
cone-surface $-1 -7.9537402461254914 -25.689542044942623 11.140043628630204 0 0.50000000669873634 -0.8660253999169214 1 0 0 1 I I 0 1 1 forward I I I I #
face $-1 $196 $197 $68 $-1 $198 forward single #
loop $-1 $199 $200 $88 #
cone-surface $-1 -3.9540934340972171 -25.689542044942623 11.140043628630204 0 0.50000000669873634 -0.8660253999169214 1 0 0 1 I I 0 1 1 forward I I I I #
face $-1 $201 $202 $69 $-1 $203 forward single #
loop $-1 $204 $205 $89 #
cone-surface $-1 0.045553377931057071 -25.689542044942623 11.140043628630204 0 0.50000000669873634 -0.8660253999169214 1 0 0 1 I I 0 1 1 forward I I I I #
face $-1 $206 $207 $70 $-1 $208 reversed single #
loop $-1 $-1 $209 $90 #
plane-surface $-1 8.6121544044228902 -73.699729710728178 86.7527220531654 1 0 0 0 0.50000000669873634 -0.8660253999169214 forward_v I I I I #
face $-1 $210 $211 $71 $-1 $212 forward single #
loop $-1 $213 $214 $91 #
cone-surface $-1 11.278585612441745 -25.689542044942623 11.140043628630204 0 0.50000000669873634 -0.8660253999169214 1 0 0 1 I I 0 1 1 forward I I I I #
face $-1 $215 $216 $72 $-1 $217 forward single #
loop $-1 $218 $219 $92 #
cone-surface $-1 15.278232424470019 -25.689542044942623 11.140043628630204 0 0.50000000669873634 -0.8660253999169214 1 0 0 1 I I 0 1 1 forward I I I I #
face $-1 $220 $221 $73 $-1 $222 forward single #
loop $-1 $223 $224 $93 #
cone-surface $-1 19.277879236498293 -25.689542044942623 11.140043628630204 0 0.50000000669873634 -0.8660253999169214 1 0 0 1 I I 0 1 1 forward I I I I #
face $-1 $225 $226 $74 $-1 $227 reversed single #
loop $-1 $-1 $228 $94 #
plane-surface $-1 27.844480262990125 -73.699729710728178 86.7527220531654 1 0 0 0 0.50000000669873634 -0.8660253999169214 forward_v I I I I #
face $-1 $229 $230 $75 $-1 $231 forward single #
loop $-1 $232 $233 $95 #
cone-surface $-1 30.510911471008981 -25.689542044942623 11.140043628630204 0 0.50000000669873634 -0.8660253999169214 1 0 0 1 I I 0 1 1 forward I I I I #
face $-1 $234 $235 $76 $-1 $236 forward single #
loop $-1 $237 $238 $96 #
cone-surface $-1 34.510558283037255 -25.689542044942623 11.140043628630204 0 0.50000000669873634 -0.8660253999169214 1 0 0 1 I I 0 1 1 forward I I I I #
face $-1 $239 $240 $77 $-1 $241 forward single #
loop $-1 $242 $243 $97 #
cone-surface $-1 38.51020509506553 -25.689542044942623 11.140043628630204 0 0.50000000669873634 -0.8660253999169214 1 0 0 1 I I 0 1 1 forward I I I I #
face $-1 $244 $245 $78 $-1 $246 reversed single #
loop $-1 $-1 $247 $98 #
plane-surface $-1 -17.218851403877686 77.772944641362756 101.45808364173996 1 0 0 0 -0.87461971476443456 -0.48480960649040278 forward_v I I I I #
face $-1 $248 $249 $79 $-1 $250 forward single #
loop $-1 $251 $252 $99 #
cone-surface $-1 -7.7350630460909784 26.146779360601368 9.7740913187078871 0 -0.87461971476443456 -0.48480960649040278 1 0 0 1 I I 0 1 1 forward I I I I #
face $-1 $253 $254 $60 $-1 $255 reversed single #
loop $-1 $-1 $256 $100 #
plane-surface $-1 0 0 -14.410816530369647 0 0 1 1 0 0 forward_v I I I I #
coedge $-1 $257 $258 $259 $260 forward $101 $-1 #
face $-1 $261 $262 $61 $-1 $263 reversed single #
loop $-1 $-1 $264 $103 #
plane-surface $-1 -32.620073174305091 0 -12.022061075652928 -1 0 0 0 0 1 forward_v I I I I #
coedge $-1 $265 $266 $267 $268 forward $104 $-1 #
face $-1 $269 $270 $62 $-1 $271 reversed single #
loop $-1 $-1 $272 $106 #
plane-surface $-1 -23.186419292664453 -29.75551695730892 10.639114225266994 0 -0.50000000669873634 0.8660253999169214 1 0 0 forward_v I I I I #
coedge $-1 $273 $274 $275 $276 reversed $107 $-1 #
face $-1 $-1 $277 $63 $-1 $278 forward single #
loop $-1 $279 $280 $109 #
cone-surface $-1 -27.186066104692731 -24.639957082609712 9.3221091794836397 0 0.50000000669873634 -0.8660253999169214 0.5 0 0 1 I I -0.70710678118654879 0.70710678118654635 0.5 forward I I I I #
loop $-1 $-1 $281 $83 #
coedge $-1 $176 $176 $282 $283 reversed $110 $-1 #
face $-1 $-1 $284 $64 $-1 $285 forward single #
loop $-1 $286 $287 $112 #
cone-surface $-1 -23.186419292664453 -24.639957082609712 9.3221091794836397 0 0.50000000669873634 -0.8660253999169214 0.5 0 0 1 I I -0.70710678118654879 0.70710678118654635 0.5 forward I I I I #
loop $-1 $-1 $288 $84 #
coedge $-1 $181 $181 $289 $290 reversed $113 $-1 #
face $-1 $-1 $291 $65 $-1 $292 forward single #
loop $-1 $293 $294 $115 #
cone-surface $-1 -19.186772480636176 -24.639957082609712 9.3221091794836397 0 0.50000000669873634 -0.8660253999169214 0.5 0 0 1 I I -0.70710678118654879 0.70710678118654635 0.5 forward I I I I #
loop $-1 $-1 $295 $85 #
coedge $-1 $186 $186 $296 $297 reversed $116 $-1 #
face $-1 $298 $299 $66 $-1 $300 reversed single #
loop $-1 $-1 $301 $118 #
plane-surface $-1 -3.9540934340972171 -29.75551695730892 10.639114225266994 0 -0.50000000669873634 0.8660253999169214 1 0 0 forward_v I I I I #
coedge $-1 $302 $303 $304 $305 reversed $119 $-1 #
face $-1 $-1 $306 $67 $-1 $307 forward single #
loop $-1 $308 $309 $121 #
cone-surface $-1 -7.9537402461254914 -24.639957082609712 9.3221091794836397 0 0.50000000669873634 -0.8660253999169214 0.5 0 0 1 I I -0.70710678118654879 0.70710678118654635 0.5 forward I I I I #
loop $-1 $-1 $310 $87 #
coedge $-1 $195 $195 $311 $312 reversed $122 $-1 #
face $-1 $-1 $313 $68 $-1 $314 forward single #
loop $-1 $315 $316 $124 #
cone-surface $-1 -3.9540934340972171 -24.639957082609712 9.3221091794836397 0 0.50000000669873634 -0.8660253999169214 0.5 0 0 1 I I -0.70710678118654879 0.70710678118654635 0.5 forward I I I I #
loop $-1 $-1 $317 $88 #
coedge $-1 $200 $200 $318 $319 reversed $125 $-1 #
face $-1 $-1 $320 $69 $-1 $321 forward single #
loop $-1 $322 $323 $127 #
cone-surface $-1 0.045553377931057071 -24.639957082609712 9.3221091794836397 0 0.50000000669873634 -0.8660253999169214 0.5 0 0 1 I I -0.70710678118654879 0.70710678118654635 0.5 forward I I I I #
loop $-1 $-1 $324 $89 #
coedge $-1 $205 $205 $325 $326 reversed $128 $-1 #
face $-1 $327 $328 $70 $-1 $329 reversed single #
loop $-1 $-1 $330 $130 #
plane-surface $-1 15.278232424470019 -29.75551695730892 10.639114225266994 0 -0.50000000669873634 0.8660253999169214 1 0 0 forward_v I I I I #
coedge $-1 $331 $332 $333 $334 reversed $131 $-1 #
face $-1 $-1 $335 $71 $-1 $336 forward single #
loop $-1 $337 $338 $133 #
cone-surface $-1 11.278585612441745 -24.639957082609712 9.3221091794836397 0 0.50000000669873634 -0.8660253999169214 0.5 0 0 1 I I -0.70710678118654879 0.70710678118654635 0.5 forward I I I I #
loop $-1 $-1 $339 $91 #
coedge $-1 $214 $214 $340 $341 reversed $134 $-1 #
face $-1 $-1 $342 $72 $-1 $343 forward single #
loop $-1 $344 $345 $136 #
cone-surface $-1 15.278232424470019 -24.639957082609712 9.3221091794836397 0 0.50000000669873634 -0.8660253999169214 0.5 0 0 1 I I -0.70710678118654879 0.70710678118654635 0.5 forward I I I I #
loop $-1 $-1 $346 $92 #
coedge $-1 $219 $219 $347 $348 reversed $137 $-1 #
face $-1 $-1 $349 $73 $-1 $350 forward single #
loop $-1 $351 $352 $139 #
cone-surface $-1 19.277879236498293 -24.639957082609712 9.3221091794836397 0 0.50000000669873634 -0.8660253999169214 0.5 0 0 1 I I -0.70710678118654879 0.70710678118654635 0.5 forward I I I I #
loop $-1 $-1 $353 $93 #
coedge $-1 $224 $224 $354 $355 reversed $140 $-1 #
face $-1 $356 $357 $74 $-1 $358 reversed single #
loop $-1 $-1 $359 $142 #
plane-surface $-1 34.510558283037255 -29.75551695730892 10.639114225266994 0 -0.50000000669873634 0.8660253999169214 1 0 0 forward_v I I I I #
coedge $-1 $360 $361 $362 $363 reversed $143 $-1 #
face $-1 $-1 $364 $75 $-1 $365 forward single #
loop $-1 $366 $367 $145 #
cone-surface $-1 30.510911471008981 -24.639957082609712 9.3221091794836397 0 0.50000000669873634 -0.8660253999169214 0.5 0 0 1 I I -0.70710678118654879 0.70710678118654635 0.5 forward I I I I #
loop $-1 $-1 $368 $95 #
coedge $-1 $233 $233 $369 $370 reversed $146 $-1 #
face $-1 $-1 $371 $76 $-1 $372 forward single #
loop $-1 $373 $374 $148 #
cone-surface $-1 34.510558283037255 -24.639957082609712 9.3221091794836397 0 0.50000000669873634 -0.8660253999169214 0.5 0 0 1 I I -0.70710678118654879 0.70710678118654635 0.5 forward I I I I #
loop $-1 $-1 $375 $96 #
coedge $-1 $238 $238 $376 $377 reversed $149 $-1 #
face $-1 $-1 $378 $77 $-1 $379 forward single #
loop $-1 $380 $381 $151 #
cone-surface $-1 38.51020509506553 -24.639957082609712 9.3221091794836397 0 0.50000000669873634 -0.8660253999169214 0.5 0 0 1 I I -0.70710678118654879 0.70710678118654635 0.5 forward I I I I #
loop $-1 $-1 $382 $97 #
coedge $-1 $243 $243 $383 $384 reversed $152 $-1 #
face $-1 $385 $386 $78 $-1 $387 reversed single #
loop $-1 $-1 $388 $154 #
plane-surface $-1 -7.7350630460909784 0.90399602332603024 58.848931227563455 0 0.87461971476443456 0.48480960649040278 1 0 0 forward_v I I I I #
coedge $-1 $389 $390 $391 $392 reversed $155 $-1 #
face $-1 $-1 $393 $79 $-1 $394 forward single #
loop $-1 $395 $396 $157 #
cone-surface $-1 -7.7350630460909784 24.210268227261125 8.7006657090738422 0 -0.87461971476443456 -0.48480960649040278 0.5 0 0 1 I I -0.70710678118654624 0.70710678118654879 0.5 forward I I I I #
loop $-1 $-1 $397 $99 #
coedge $-1 $252 $252 $398 $399 reversed $158 $-1 #
face $-1 $400 $401 $60 $-1 $402 reversed single #
loop $-1 $-1 $403 $160 #
plane-surface $-1 0 -29.755516957308906 0 0 1 0 0 0 1 forward_v I I I I #
coedge $-1 $404 $405 $406 $407 forward $161 $-1 #
coedge $-1 $408 $163 $409 $410 forward $101 $-1 #
coedge $-1 $163 $408 $411 $412 forward $101 $-1 #
coedge $-1 $413 $414 $163 $260 reversed $415 $-1 #
edge $-1 $416 -29.755516957308906 $417 29.755516957308906 $259 $418 forward 7 unknown #
face $-1 $419 $420 $61 $-1 $421 reversed single #
loop $-1 $-1 $422 $164 #
plane-surface $-1 0 0 -14.410816530369647 0 0 1 1 0 0 forward_v I I I I #
coedge $-1 $423 $267 $424 $425 reversed $165 $-1 #
coedge $-1 $426 $167 $427 $428 reversed $104 $-1 #
coedge $-1 $167 $426 $429 $430 reversed $104 $-1 #
coedge $-1 $264 $431 $167 $268 reversed $165 $-1 #
edge $-1 $432 -29.755516957308906 $433 29.755516957308906 $267 $434 forward 7 unknown #
face $-1 $435 $436 $62 $-1 $437 forward single #
loop $-1 $-1 $438 $168 #
plane-surface $-1 -16.520341272617323 -73.699729710728178 86.7527220531654 -1 0 0 0 -0.50000000669873634 0.8660253999169214 forward_v I I I I #
coedge $-1 $439 $440 $441 $442 reversed $169 $-1 #
coedge $-1 $274 $171 $443 $444 reversed $107 $-1 #
coedge $-1 $171 $273 $439 $445 reversed $107 $-1 #
coedge $-1 $441 $446 $171 $276 forward $447 $-1 #
edge $-1 $448 28.965544496213052 $449 32.737246801315699 $275 $450 forward 7 unknown #
loop $-1 $-1 $282 $172 #
plane-surface $-1 -23.186419292664453 -29.75551695730892 10.639114225266994 0 -0.50000000669873634 0.8660253999169214 1 0 0 forward_v I I I I #
loop $-1 $-1 $451 $109 #
coedge $-1 $280 $280 $281 $452 reversed $173 $-1 #
coedge $-1 $281 $281 $280 $452 forward $175 $-1 #
coedge $-1 $282 $282 $176 $283 forward $277 $-1 #
edge $-1 $453 1.236614969025321e-015 $453 6.2831853071796013 $282 $454 forward 7 unknown #
loop $-1 $-1 $289 $177 #
plane-surface $-1 -23.186419292664453 -29.75551695730892 10.639114225266994 0 -0.50000000669873634 0.8660253999169214 1 0 0 forward_v I I I I #
loop $-1 $-1 $455 $112 #
coedge $-1 $287 $287 $288 $456 reversed $178 $-1 #
coedge $-1 $288 $288 $287 $456 forward $180 $-1 #
coedge $-1 $289 $289 $181 $290 forward $284 $-1 #
edge $-1 $457 1.236614969025321e-015 $457 6.2831853071796013 $289 $458 forward 7 unknown #
loop $-1 $-1 $296 $182 #
plane-surface $-1 -23.186419292664453 -29.75551695730892 10.639114225266994 0 -0.50000000669873634 0.8660253999169214 1 0 0 forward_v I I I I #
loop $-1 $-1 $459 $115 #
coedge $-1 $294 $294 $295 $460 reversed $183 $-1 #
coedge $-1 $295 $295 $294 $460 forward $185 $-1 #
coedge $-1 $296 $296 $186 $297 forward $291 $-1 #
edge $-1 $461 1.236614969025321e-015 $461 6.2831853071796013 $296 $462 forward 7 unknown #
face $-1 $463 $464 $66 $-1 $465 reversed single #
loop $-1 $-1 $466 $187 #
plane-surface $-1 2.7119845859499119 -73.699729710728178 86.7527220531654 -1 0 0 0 -0.50000000669873634 0.8660253999169214 forward_v I I I I #
coedge $-1 $467 $468 $469 $470 reversed $188 $-1 #
coedge $-1 $303 $190 $471 $472 reversed $119 $-1 #
coedge $-1 $190 $302 $467 $473 reversed $119 $-1 #
coedge $-1 $469 $474 $190 $305 forward $464 $-1 #
edge $-1 $475 28.965544496213052 $476 32.737246801315699 $304 $477 forward 7 unknown #
loop $-1 $-1 $311 $191 #
plane-surface $-1 -3.9540934340972171 -29.75551695730892 10.639114225266994 0 -0.50000000669873634 0.8660253999169214 1 0 0 forward_v I I I I #
loop $-1 $-1 $478 $121 #
coedge $-1 $309 $309 $310 $479 reversed $192 $-1 #
coedge $-1 $310 $310 $309 $479 forward $194 $-1 #
coedge $-1 $311 $311 $195 $312 forward $306 $-1 #
edge $-1 $480 1.236614969025321e-015 $480 6.2831853071796013 $311 $481 forward 7 unknown #
loop $-1 $-1 $318 $196 #
plane-surface $-1 -3.9540934340972171 -29.75551695730892 10.639114225266994 0 -0.50000000669873634 0.8660253999169214 1 0 0 forward_v I I I I #
loop $-1 $-1 $482 $124 #
coedge $-1 $316 $316 $317 $483 reversed $197 $-1 #
coedge $-1 $317 $317 $316 $483 forward $199 $-1 #
coedge $-1 $318 $318 $200 $319 forward $313 $-1 #
edge $-1 $484 1.236614969025321e-015 $484 6.2831853071796013 $318 $485 forward 7 unknown #
loop $-1 $-1 $325 $201 #
plane-surface $-1 -3.9540934340972171 -29.75551695730892 10.639114225266994 0 -0.50000000669873634 0.8660253999169214 1 0 0 forward_v I I I I #
loop $-1 $-1 $486 $127 #
coedge $-1 $323 $323 $324 $487 reversed $202 $-1 #
coedge $-1 $324 $324 $323 $487 forward $204 $-1 #
coedge $-1 $325 $325 $205 $326 forward $320 $-1 #
edge $-1 $488 1.236614969025321e-015 $488 6.2831853071796013 $325 $489 forward 7 unknown #
face $-1 $490 $491 $70 $-1 $492 reversed single #
loop $-1 $-1 $493 $206 #
plane-surface $-1 21.94431044451715 -73.699729710728178 86.7527220531654 -1 0 0 0 -0.50000000669873634 0.8660253999169214 forward_v I I I I #
coedge $-1 $494 $495 $496 $497 reversed $207 $-1 #
coedge $-1 $332 $209 $498 $499 reversed $131 $-1 #
coedge $-1 $209 $331 $494 $500 reversed $131 $-1 #
coedge $-1 $496 $501 $209 $334 forward $491 $-1 #
edge $-1 $502 28.965544496213052 $503 32.737246801315699 $333 $504 forward 7 unknown #
loop $-1 $-1 $340 $210 #
plane-surface $-1 15.278232424470019 -29.75551695730892 10.639114225266994 0 -0.50000000669873634 0.8660253999169214 1 0 0 forward_v I I I I #
loop $-1 $-1 $505 $133 #
coedge $-1 $338 $338 $339 $506 reversed $211 $-1 #
coedge $-1 $339 $339 $338 $506 forward $213 $-1 #
coedge $-1 $340 $340 $214 $341 forward $335 $-1 #
edge $-1 $507 1.236614969025321e-015 $507 6.2831853071796013 $340 $508 forward 7 unknown #
loop $-1 $-1 $347 $215 #
plane-surface $-1 15.278232424470019 -29.75551695730892 10.639114225266994 0 -0.50000000669873634 0.8660253999169214 1 0 0 forward_v I I I I #
loop $-1 $-1 $509 $136 #
coedge $-1 $345 $345 $346 $510 reversed $216 $-1 #
coedge $-1 $346 $346 $345 $510 forward $218 $-1 #
coedge $-1 $347 $347 $219 $348 forward $342 $-1 #
edge $-1 $511 1.236614969025321e-015 $511 6.2831853071796013 $347 $512 forward 7 unknown #
loop $-1 $-1 $354 $220 #
plane-surface $-1 15.278232424470019 -29.75551695730892 10.639114225266994 0 -0.50000000669873634 0.8660253999169214 1 0 0 forward_v I I I I #
loop $-1 $-1 $513 $139 #
coedge $-1 $352 $352 $353 $514 reversed $221 $-1 #
coedge $-1 $353 $353 $352 $514 forward $223 $-1 #
coedge $-1 $354 $354 $224 $355 forward $349 $-1 #
edge $-1 $515 1.236614969025321e-015 $515 6.2831853071796013 $354 $516 forward 7 unknown #
face $-1 $517 $518 $74 $-1 $519 reversed single #
loop $-1 $-1 $520 $225 #
plane-surface $-1 41.176636303084386 -73.699729710728178 86.7527220531654 -1 0 0 0 -0.50000000669873634 0.8660253999169214 forward_v I I I I #
coedge $-1 $521 $522 $523 $524 reversed $226 $-1 #
coedge $-1 $361 $228 $525 $526 reversed $143 $-1 #
coedge $-1 $228 $360 $521 $527 reversed $143 $-1 #
coedge $-1 $523 $528 $228 $363 forward $518 $-1 #
edge $-1 $529 28.965544496213052 $530 32.737246801315699 $362 $531 forward 7 unknown #
loop $-1 $-1 $369 $229 #
plane-surface $-1 34.510558283037255 -29.75551695730892 10.639114225266994 0 -0.50000000669873634 0.8660253999169214 1 0 0 forward_v I I I I #
loop $-1 $-1 $532 $145 #
coedge $-1 $367 $367 $368 $533 reversed $230 $-1 #
coedge $-1 $368 $368 $367 $533 forward $232 $-1 #
coedge $-1 $369 $369 $233 $370 forward $364 $-1 #
edge $-1 $534 1.236614969025321e-015 $534 6.2831853071796013 $369 $535 forward 7 unknown #
loop $-1 $-1 $376 $234 #
plane-surface $-1 34.510558283037255 -29.75551695730892 10.639114225266994 0 -0.50000000669873634 0.8660253999169214 1 0 0 forward_v I I I I #
loop $-1 $-1 $536 $148 #
coedge $-1 $374 $374 $375 $537 reversed $235 $-1 #
coedge $-1 $375 $375 $374 $537 forward $237 $-1 #
coedge $-1 $376 $376 $238 $377 forward $371 $-1 #
edge $-1 $538 1.236614969025321e-015 $538 6.2831853071796013 $376 $539 forward 7 unknown #
loop $-1 $-1 $383 $239 #
plane-surface $-1 34.510558283037255 -29.75551695730892 10.639114225266994 0 -0.50000000669873634 0.8660253999169214 1 0 0 forward_v I I I I #
loop $-1 $-1 $540 $151 #
coedge $-1 $381 $381 $382 $541 reversed $240 $-1 #
coedge $-1 $382 $382 $381 $541 forward $242 $-1 #
coedge $-1 $383 $383 $243 $384 forward $378 $-1 #
edge $-1 $542 1.236614969025321e-015 $542 6.2831853071796013 $383 $543 forward 7 unknown #
face $-1 $544 $545 $78 $-1 $546 reversed single #
loop $-1 $-1 $547 $244 #
plane-surface $-1 1.7487253116957309 77.772944641362756 101.45808364173996 -1 0 0 0 0.87461971476443456 0.48480960649040278 forward_v I I I I #
coedge $-1 $548 $549 $550 $551 reversed $245 $-1 #
coedge $-1 $390 $247 $552 $553 reversed $155 $-1 #
coedge $-1 $247 $389 $548 $554 reversed $155 $-1 #
coedge $-1 $550 $555 $247 $392 forward $556 $-1 #
edge $-1 $557 9.1309553633724718 $558 13.35002800487149 $391 $559 forward 7 unknown #
loop $-1 $-1 $398 $248 #
plane-surface $-1 -7.7350630460909784 0.90399602332603024 58.848931227563455 0 0.87461971476443456 0.48480960649040278 1 0 0 forward_v I I I I #
loop $-1 $-1 $560 $157 #
coedge $-1 $396 $396 $397 $561 reversed $249 $-1 #
coedge $-1 $397 $397 $396 $561 forward $251 $-1 #
coedge $-1 $398 $398 $252 $399 forward $393 $-1 #
edge $-1 $562 -1.6875300839624263e-016 $562 6.2831853071796004 $398 $563 forward 7 unknown #
face $-1 $564 $565 $60 $-1 $566 reversed single #
loop $-1 $-1 $567 $253 #
plane-surface $-1 -43.944212164677879 0 0 1 0 0 0 0 -1 forward_v I I I I #
coedge $-1 $568 $411 $569 $570 forward $254 $-1 #
coedge $-1 $571 $256 $568 $572 forward $161 $-1 #
coedge $-1 $256 $571 $573 $574 forward $161 $-1 #
coedge $-1 $414 $413 $256 $407 reversed $415 $-1 #
edge $-1 $575 -29.755516957308906 $576 29.755516957308906 $406 $577 forward 7 unknown #
coedge $-1 $258 $257 $578 $579 forward $101 $-1 #
coedge $-1 $580 $581 $257 $410 reversed $565 $-1 #
edge $-1 $417 -43.944212164677879 $582 43.944212164677879 $409 $583 forward 7 unknown #
coedge $-1 $403 $584 $258 $412 reversed $254 $-1 #
edge $-1 $585 -43.944212164677879 $416 43.944212164677879 $411 $586 forward 7 unknown #
coedge $-1 $406 $259 $584 $587 forward $415 $-1 #
coedge $-1 $259 $406 $580 $588 reversed $415 $-1 #
loop $-1 $-1 $413 $564 #
vertex $-1 $260 $589 #
vertex $-1 $260 $590 #
straight-curve $-1 43.944212164677879 0 14.410816530369647 0 1 0 I I #
face $-1 $591 $592 $61 $-1 $593 reversed single #
loop $-1 $-1 $424 $261 #
plane-surface $-1 0 -29.755516957308906 0 0 1 0 0 0 1 forward_v I I I I #
coedge $-1 $594 $595 $423 $596 forward $262 $-1 #
coedge $-1 $431 $264 $422 $596 reversed $165 $-1 #
coedge $-1 $429 $597 $264 $425 forward $420 $-1 #
edge $-1 $598 -8.3997859925431833 $432 -3.622275083109745 $424 $599 forward 7 unknown #
coedge $-1 $266 $265 $600 $601 reversed $104 $-1 #
coedge $-1 $602 $603 $265 $428 forward $604 $-1 #
edge $-1 $605 -24.803140829932136 $433 -13.479001839559348 $427 $606 forward 7 unknown #
coedge $-1 $607 $424 $266 $430 forward $420 $-1 #
edge $-1 $432 13.479001839559348 $608 24.803140829932136 $429 $609 forward 7 unknown #
coedge $-1 $267 $423 $602 $610 reversed $165 $-1 #
vertex $-1 $430 $611 #
vertex $-1 $428 $612 #
straight-curve $-1 -32.620073174305091 0 -9.6333056209362091 0 1 0 I I #
face $-1 $-1 $447 $62 $-1 $613 reversed single #
loop $-1 $-1 $614 $269 #
plane-surface $-1 0 0 14.410816530369647 0 0 1 1 0 0 forward_v I I I I #
coedge $-1 $615 $616 $617 $618 reversed $270 $-1 #
coedge $-1 $619 $272 $274 $445 forward $169 $-1 #
coedge $-1 $272 $619 $615 $620 forward $169 $-1 #
coedge $-1 $617 $275 $272 $442 forward $447 $-1 #
edge $-1 $449 -18.259287666379358 $621 -4.9271316262850959 $441 $622 forward 7 unknown #
coedge $-1 $623 $624 $273 $444 forward $436 $-1 #
edge $-1 $625 -13.627127804820628 $448 -7.0943478980551831 $443 $626 forward 7 unknown #
edge $-1 $449 1.6747853295891438e-014 $625 7.5434045091427508 $274 $627 forward 7 unknown #
coedge $-1 $275 $617 $623 $628 reversed $447 $-1 #
loop $-1 $-1 $617 $435 #
vertex $-1 $628 $629 #
vertex $-1 $276 $630 #
straight-curve $-1 -29.852497312711584 -29.755516957308906 43.3763610265827 0 0 -1 I I #
coedge $-1 $451 $451 $-1 $631 reversed $279 $-1 #
edge $-1 $632 0 $632 6.2831853071796004 $280 $633 forward 7 unknown #
vertex $-1 $283 $634 #
ellipse-curve $-1 -27.186066104692731 -26.489127003926178 12.524965377818328 0 -0.50000000669873634 0.8660253999169214 1 0 0 1 I I #
coedge $-1 $455 $455 $-1 $635 reversed $286 $-1 #
edge $-1 $636 0 $636 6.2831853071796004 $287 $637 forward 7 unknown #
vertex $-1 $290 $638 #
ellipse-curve $-1 -23.186419292664453 -26.489127003926178 12.524965377818328 0 -0.50000000669873634 0.8660253999169214 1 0 0 1 I I #
coedge $-1 $459 $459 $-1 $639 reversed $293 $-1 #
edge $-1 $640 0 $640 6.2831853071796004 $294 $641 forward 7 unknown #
vertex $-1 $297 $642 #
ellipse-curve $-1 -19.186772480636176 -26.489127003926178 12.524965377818328 0 -0.50000000669873634 0.8660253999169214 1 0 0 1 I I #
face $-1 $-1 $643 $66 $-1 $644 forward single #
loop $-1 $-1 $304 $298 #
plane-surface $-1 0 -29.755516957308906 0 0 1 0 0 0 1 forward_v I I I I #
coedge $-1 $645 $646 $647 $648 reversed $299 $-1 #
coedge $-1 $649 $301 $303 $473 forward $188 $-1 #
coedge $-1 $301 $649 $645 $650 forward $188 $-1 #
coedge $-1 $647 $304 $301 $470 forward $464 $-1 #
edge $-1 $476 -8.6431247370957376 $651 4.6890313029985204 $469 $652 forward 7 unknown #
coedge $-1 $653 $654 $302 $472 forward $643 $-1 #
edge $-1 $655 -13.627127804820628 $475 -7.0943478980551831 $471 $656 forward 7 unknown #
edge $-1 $476 1.6747853295891438e-014 $655 7.5434045091427508 $303 $657 forward 7 unknown #
coedge $-1 $304 $647 $653 $658 reversed $464 $-1 #
vertex $-1 $658 $659 #
vertex $-1 $305 $660 #
straight-curve $-1 -10.620171454144346 -29.755516957308906 43.3763610265827 0 0 -1 I I #
coedge $-1 $478 $478 $-1 $661 reversed $308 $-1 #
edge $-1 $662 0 $662 6.2831853071796004 $309 $663 forward 7 unknown #
vertex $-1 $312 $664 #
ellipse-curve $-1 -7.9537402461254914 -26.489127003926178 12.524965377818328 0 -0.50000000669873634 0.8660253999169214 1 0 0 1 I I #
coedge $-1 $482 $482 $-1 $665 reversed $315 $-1 #
edge $-1 $666 0 $666 6.2831853071796004 $316 $667 forward 7 unknown #
vertex $-1 $319 $668 #
ellipse-curve $-1 -3.9540934340972171 -26.489127003926178 12.524965377818328 0 -0.50000000669873634 0.8660253999169214 1 0 0 1 I I #
coedge $-1 $486 $486 $-1 $669 reversed $322 $-1 #
edge $-1 $670 0 $670 6.2831853071796004 $323 $671 forward 7 unknown #
vertex $-1 $326 $672 #
ellipse-curve $-1 0.045553377931057071 -26.489127003926178 12.524965377818328 0 -0.50000000669873634 0.8660253999169214 1 0 0 1 I I #
face $-1 $-1 $673 $70 $-1 $674 forward single #
loop $-1 $-1 $333 $327 #
plane-surface $-1 0 -29.755516957308906 0 0 1 0 0 0 1 forward_v I I I I #
coedge $-1 $675 $676 $677 $678 reversed $328 $-1 #
coedge $-1 $679 $330 $332 $500 forward $207 $-1 #
coedge $-1 $330 $679 $675 $680 forward $207 $-1 #
coedge $-1 $677 $333 $330 $497 forward $491 $-1 #
edge $-1 $503 0.97303819218788057 $681 14.30519423228214 $496 $682 forward 7 unknown #
coedge $-1 $683 $684 $331 $499 forward $673 $-1 #
edge $-1 $685 -13.627127804820628 $502 -7.0943478980551831 $498 $686 forward 7 unknown #
edge $-1 $503 1.6747853295891438e-014 $685 7.5434045091427508 $332 $687 forward 7 unknown #
coedge $-1 $333 $677 $683 $688 reversed $491 $-1 #
vertex $-1 $688 $689 #
vertex $-1 $334 $690 #
straight-curve $-1 8.6121544044228902 -29.755516957308906 43.3763610265827 0 0 -1 I I #
coedge $-1 $505 $505 $-1 $691 reversed $337 $-1 #
edge $-1 $692 0 $692 6.2831853071796004 $338 $693 forward 7 unknown #
vertex $-1 $341 $694 #
ellipse-curve $-1 11.278585612441745 -26.489127003926178 12.524965377818328 0 -0.50000000669873634 0.8660253999169214 1 0 0 1 I I #
coedge $-1 $509 $509 $-1 $695 reversed $344 $-1 #
edge $-1 $696 0 $696 6.2831853071796004 $345 $697 forward 7 unknown #
vertex $-1 $348 $698 #
ellipse-curve $-1 15.278232424470019 -26.489127003926178 12.524965377818328 0 -0.50000000669873634 0.8660253999169214 1 0 0 1 I I #
coedge $-1 $513 $513 $-1 $699 reversed $351 $-1 #
edge $-1 $700 0 $700 6.2831853071796004 $352 $701 forward 7 unknown #
vertex $-1 $355 $702 #
ellipse-curve $-1 19.277879236498293 -26.489127003926178 12.524965377818328 0 -0.50000000669873634 0.8660253999169214 1 0 0 1 I I #
face $-1 $-1 $703 $74 $-1 $704 forward single #
loop $-1 $-1 $362 $356 #
plane-surface $-1 0 -29.755516957308906 0 0 1 0 0 0 1 forward_v I I I I #
coedge $-1 $705 $706 $707 $708 reversed $357 $-1 #
coedge $-1 $709 $359 $361 $527 forward $226 $-1 #
coedge $-1 $359 $709 $705 $710 forward $226 $-1 #
coedge $-1 $707 $362 $359 $524 forward $518 $-1 #
edge $-1 $530 10.589201121471497 $711 23.921357161565759 $523 $712 forward 7 unknown #
coedge $-1 $713 $714 $360 $526 forward $703 $-1 #
edge $-1 $715 -13.627127804820628 $529 -7.0943478980551831 $525 $716 forward 7 unknown #
edge $-1 $530 1.6747853295891438e-014 $715 7.5434045091427508 $361 $717 forward 7 unknown #
coedge $-1 $362 $707 $713 $718 reversed $518 $-1 #
vertex $-1 $718 $719 #
vertex $-1 $363 $720 #
straight-curve $-1 27.844480262990125 -29.755516957308906 43.3763610265827 0 0 -1 I I #
coedge $-1 $532 $532 $-1 $721 reversed $366 $-1 #
edge $-1 $722 0 $722 6.2831853071796004 $367 $723 forward 7 unknown #
vertex $-1 $370 $724 #
ellipse-curve $-1 30.510911471008981 -26.489127003926178 12.524965377818328 0 -0.50000000669873634 0.8660253999169214 1 0 0 1 I I #
coedge $-1 $536 $536 $-1 $725 reversed $373 $-1 #
edge $-1 $726 0 $726 6.2831853071796004 $374 $727 forward 7 unknown #
vertex $-1 $377 $728 #
ellipse-curve $-1 34.510558283037255 -26.489127003926178 12.524965377818328 0 -0.50000000669873634 0.8660253999169214 1 0 0 1 I I #
coedge $-1 $540 $540 $-1 $729 reversed $380 $-1 #
edge $-1 $730 0 $730 6.2831853071796004 $381 $731 forward 7 unknown #
vertex $-1 $384 $732 #
ellipse-curve $-1 38.51020509506553 -26.489127003926178 12.524965377818328 0 -0.50000000669873634 0.8660253999169214 1 0 0 1 I I #
face $-1 $-1 $556 $78 $-1 $733 forward single #
loop $-1 $-1 $734 $385 #
plane-surface $-1 0 29.755516957308906 0 0 -1 0 0 0 -1 forward_v I I I I #
coedge $-1 $735 $736 $737 $738 reversed $386 $-1 #
coedge $-1 $739 $388 $390 $554 forward $245 $-1 #
coedge $-1 $388 $739 $735 $740 forward $245 $-1 #
coedge $-1 $737 $391 $388 $551 forward $556 $-1 #
edge $-1 $558 -13.351319880832197 $741 5.6162568347412201 $550 $742 forward 7 unknown #
coedge $-1 $743 $744 $389 $553 forward $545 $-1 #
edge $-1 $745 -43.929634101046148 $557 -36.318225290500337 $552 $746 forward 7 unknown #
edge $-1 $558 50.808498764703167 $745 59.511033914617812 $390 $747 forward 7 unknown #
coedge $-1 $391 $737 $743 $748 forward $556 $-1 #
loop $-1 $-1 $737 $544 #
vertex $-1 $553 $749 #
vertex $-1 $392 $750 #
straight-curve $-1 -17.218851403877686 38.886472320681378 14.410816530369651 0 -1 0 I I #
coedge $-1 $560 $560 $-1 $751 reversed $395 $-1 #
edge $-1 $752 0 $752 6.2831853071796004 $396 $753 forward 7 unknown #
vertex $-1 $399 $754 #
ellipse-curve $-1 -7.7350630460909784 27.645980636559397 10.605112125096731 0 0.87461971476443456 0.48480960649040278 1 0 0 1 I I #
face $-1 $-1 $415 $60 $-1 $755 reversed single #
loop $-1 $-1 $580 $400 #
plane-surface $-1 0 29.755516957308906 0 0 -1 0 0 0 -1 forward_v I I I I #
coedge $-1 $756 $578 $581 $757 forward $401 $-1 #
coedge $-1 $584 $403 $404 $572 reversed $254 $-1 #
coedge $-1 $578 $756 $403 $570 reversed $401 $-1 #
edge $-1 $585 -14.410816530369647 $758 14.410816530369647 $569 $759 forward 7 unknown #
coedge $-1 $405 $404 $756 $760 forward $161 $-1 #
edge $-1 $576 -43.944212164677879 $758 43.944212164677879 $568 $761 forward 7 unknown #
coedge $-1 $581 $580 $405 $574 reversed $565 $-1 #
edge $-1 $762 -43.944212164677879 $575 43.944212164677879 $573 $763 forward 7 unknown #
vertex $-1 $407 $764 #
vertex $-1 $587 $765 #
straight-curve $-1 43.944212164677879 0 -14.410816530369647 0 -1 0 I I #
coedge $-1 $567 $569 $408 $579 reversed $401 $-1 #
edge $-1 $582 -29.755516957308906 $585 29.755516957308906 $578 $766 forward 7 unknown #
coedge $-1 $573 $409 $414 $588 forward $565 $-1 #
coedge $-1 $409 $573 $567 $757 reversed $565 $-1 #
vertex $-1 $410 $767 #
straight-curve $-1 0 29.755516957308906 14.410816530369647 -1 0 0 I I #
coedge $-1 $411 $568 $413 $587 reversed $254 $-1 #
vertex $-1 $579 $768 #
straight-curve $-1 0 -29.755516957308906 14.410816530369647 1 0 0 I I #
edge $-1 $416 -14.410816530369647 $576 14.410816530369647 $413 $769 forward 7 unknown #
edge $-1 $417 -14.410816530369647 $575 14.410816530369647 $414 $770 forward 7 unknown #
point $-1 43.944212164677879 -29.755516957308906 14.410816530369647 #
point $-1 43.944212164677879 29.755516957308906 14.410816530369647 #
face $-1 $-1 $604 $61 $-1 $771 reversed single #
loop $-1 $-1 $600 $419 #
plane-surface $-1 -43.944212164677879 0 0 1 0 0 0 0 -1 forward_v I I I I #
coedge $-1 $772 $422 $597 $773 forward $262 $-1 #
coedge $-1 $422 $772 $774 $775 forward $262 $-1 #
edge $-1 $776 -29.755516957308906 $598 29.755516957308906 $422 $777 forward 7 unknown #
coedge $-1 $424 $607 $594 $773 reversed $420 $-1 #
vertex $-1 $773 $778 #
straight-curve $-1 -32.620073174305091 -29.755516957308906 -6.0110305378264641 0 0 1 I I #
coedge $-1 $779 $780 $426 $601 forward $592 $-1 #
edge $-1 $608 -29.755516957308906 $605 29.755516957308906 $600 $781 forward 7 unknown #
coedge $-1 $774 $427 $431 $610 forward $604 $-1 #
coedge $-1 $427 $774 $779 $782 reversed $604 $-1 #
loop $-1 $-1 $602 $591 #
vertex $-1 $782 $783 #
straight-curve $-1 -19.141071334745742 29.755516957308906 -9.6333056209362091 1 0 0 I I #
coedge $-1 $597 $429 $780 $784 forward $420 $-1 #
vertex $-1 $784 $785 #
straight-curve $-1 -19.141071334745742 -29.755516957308906 -9.6333056209362091 -1 0 0 I I #
edge $-1 $433 3.622275083109745 $776 8.3997859925431833 $602 $786 forward 7 unknown #
point $-1 -32.620073174305091 -29.755516957308906 -9.6333056209362091 #
point $-1 -32.620073174305091 29.755516957308906 -9.6333056209362091 #
plane-surface $-1 0 -29.755516957308906 0 0 1 0 0 0 1 forward_v I I I I #
coedge $-1 $624 $623 $616 $787 forward $436 $-1 #
coedge $-1 $616 $438 $440 $620 reversed $270 $-1 #
coedge $-1 $438 $615 $614 $787 reversed $270 $-1 #
coedge $-1 $446 $441 $438 $618 forward $447 $-1 #
edge $-1 $621 -32.737246801315699 $788 -28.965544496213052 $617 $789 forward 7 unknown #
coedge $-1 $440 $439 $624 $790 reversed $169 $-1 #
edge $-1 $791 -7.5434045091427508 $621 -1.6747853295891438e-014 $615 $792 forward 7 unknown #
vertex $-1 $442 $793 #
straight-curve $-1 -11.593209646332227 -29.755516957308906 10.639114225267004 1 0 0 I I #
coedge $-1 $614 $443 $446 $628 forward $436 $-1 #
coedge $-1 $443 $614 $619 $790 forward $436 $-1 #
vertex $-1 $444 $794 #
straight-curve $-1 -29.852497312711584 -36.849864855364089 14.410816530369651 0 -1 0 I I #
straight-curve $-1 -29.852497312711584 -29.75551695730892 10.639114225266994 0 0.8660253999169214 0.50000000669873634 I I #
edge $-1 $448 -29.852497312711584 $788 -16.520341272617323 $446 $795 forward 7 unknown #
point $-1 -29.852497312711584 -29.755516957308906 14.410816530369647 #
point $-1 -29.852497312711584 -29.755516957308906 10.639114225267003 #
edge $-1 $796 1 $796 0 $451 $-1 forward 7 unknown #
vertex $-1 $452 $797 #
ellipse-curve $-1 -27.186066104692731 -24.889957085959079 9.7551218794420986 0 -0.50000000669873634 0.8660253999169214 1 0 0 1 I I #
point $-1 -26.186066104692731 -26.489127003926168 12.524965377818312 #
edge $-1 $798 1 $798 0 $455 $-1 forward 7 unknown #
vertex $-1 $456 $799 #
ellipse-curve $-1 -23.186419292664453 -24.889957085959079 9.7551218794420986 0 -0.50000000669873634 0.8660253999169214 1 0 0 1 I I #
point $-1 -22.186419292664453 -26.489127003926168 12.524965377818312 #
edge $-1 $800 1 $800 0 $459 $-1 forward 7 unknown #
vertex $-1 $460 $801 #
ellipse-curve $-1 -19.186772480636176 -24.889957085959079 9.7551218794420986 0 -0.50000000669873634 0.8660253999169214 1 0 0 1 I I #
point $-1 -18.186772480636176 -26.489127003926168 12.524965377818312 #
loop $-1 $-1 $471 $463 #
plane-surface $-1 0 0 14.410816530369647 0 0 1 1 0 0 forward_v I I I I #
coedge $-1 $646 $466 $468 $650 reversed $299 $-1 #
coedge $-1 $466 $645 $802 $803 reversed $299 $-1 #
coedge $-1 $474 $469 $466 $648 forward $464 $-1 #
edge $-1 $651 -32.737246801315699 $804 -28.965544496213052 $647 $805 forward 7 unknown #
coedge $-1 $468 $467 $654 $806 reversed $188 $-1 #
edge $-1 $807 -7.5434045091427508 $651 -1.6747853295891438e-014 $645 $808 forward 7 unknown #
vertex $-1 $470 $809 #
straight-curve $-1 -1.9770467170486086 -29.755516957308906 10.639114225267004 1 0 0 I I #
coedge $-1 $802 $471 $474 $658 forward $643 $-1 #
coedge $-1 $471 $802 $649 $806 forward $643 $-1 #
vertex $-1 $472 $810 #
straight-curve $-1 -10.620171454144346 -36.849864855364089 14.410816530369651 0 -1 0 I I #
straight-curve $-1 -10.620171454144346 -29.75551695730892 10.639114225266994 0 0.8660253999169214 0.50000000669873634 I I #
edge $-1 $475 -10.620171454144346 $804 2.7119845859499119 $474 $811 forward 7 unknown #
point $-1 -10.620171454144346 -29.755516957308906 14.410816530369647 #
point $-1 -10.620171454144346 -29.755516957308906 10.639114225267003 #
edge $-1 $812 1 $812 0 $478 $-1 forward 7 unknown #
vertex $-1 $479 $813 #
ellipse-curve $-1 -7.9537402461254914 -24.889957085959079 9.7551218794420986 0 -0.50000000669873634 0.8660253999169214 1 0 0 1 I I #
point $-1 -6.9537402461254914 -26.489127003926168 12.524965377818312 #
edge $-1 $814 1 $814 0 $482 $-1 forward 7 unknown #
vertex $-1 $483 $815 #
ellipse-curve $-1 -3.9540934340972171 -24.889957085959079 9.7551218794420986 0 -0.50000000669873634 0.8660253999169214 1 0 0 1 I I #
point $-1 -2.9540934340972171 -26.489127003926168 12.524965377818312 #
edge $-1 $816 1 $816 0 $486 $-1 forward 7 unknown #
vertex $-1 $487 $817 #
ellipse-curve $-1 0.045553377931057071 -24.889957085959079 9.7551218794420986 0 -0.50000000669873634 0.8660253999169214 1 0 0 1 I I #
point $-1 1.0455533779310571 -26.489127003926168 12.524965377818312 #
loop $-1 $-1 $498 $490 #
plane-surface $-1 0 0 14.410816530369647 0 0 1 1 0 0 forward_v I I I I #
coedge $-1 $676 $493 $495 $680 reversed $328 $-1 #
coedge $-1 $493 $675 $818 $819 reversed $328 $-1 #
coedge $-1 $501 $496 $493 $678 forward $491 $-1 #
edge $-1 $681 -32.737246801315699 $820 -28.965544496213052 $677 $821 forward 7 unknown #
coedge $-1 $495 $494 $684 $822 reversed $207 $-1 #
edge $-1 $823 -7.5434045091427508 $681 -1.6747853295891438e-014 $675 $824 forward 7 unknown #
vertex $-1 $497 $825 #
straight-curve $-1 7.6391162122350096 -29.755516957308906 10.639114225267004 1 0 0 I I #
coedge $-1 $818 $498 $501 $688 forward $673 $-1 #
coedge $-1 $498 $818 $679 $822 forward $673 $-1 #
vertex $-1 $499 $826 #
straight-curve $-1 8.6121544044228902 -36.849864855364089 14.410816530369651 0 -1 0 I I #
straight-curve $-1 8.6121544044228902 -29.75551695730892 10.639114225266994 0 0.8660253999169214 0.50000000669873634 I I #
edge $-1 $502 8.6121544044228902 $820 21.94431044451715 $501 $827 forward 7 unknown #
point $-1 8.6121544044228902 -29.755516957308906 14.410816530369647 #
point $-1 8.6121544044228902 -29.755516957308906 10.639114225267003 #
edge $-1 $828 1 $828 0 $505 $-1 forward 7 unknown #
vertex $-1 $506 $829 #
ellipse-curve $-1 11.278585612441745 -24.889957085959079 9.7551218794420986 0 -0.50000000669873634 0.8660253999169214 1 0 0 1 I I #
point $-1 12.278585612441745 -26.489127003926168 12.524965377818312 #
edge $-1 $830 1 $830 0 $509 $-1 forward 7 unknown #
vertex $-1 $510 $831 #
ellipse-curve $-1 15.278232424470019 -24.889957085959079 9.7551218794420986 0 -0.50000000669873634 0.8660253999169214 1 0 0 1 I I #
point $-1 16.278232424470019 -26.489127003926168 12.524965377818312 #
edge $-1 $832 1 $832 0 $513 $-1 forward 7 unknown #
vertex $-1 $514 $833 #
ellipse-curve $-1 19.277879236498293 -24.889957085959079 9.7551218794420986 0 -0.50000000669873634 0.8660253999169214 1 0 0 1 I I #
point $-1 20.277879236498293 -26.489127003926168 12.524965377818312 #
loop $-1 $-1 $525 $517 #
plane-surface $-1 0 0 14.410816530369647 0 0 1 1 0 0 forward_v I I I I #
coedge $-1 $706 $520 $522 $710 reversed $357 $-1 #
coedge $-1 $520 $705 $834 $835 reversed $357 $-1 #
coedge $-1 $528 $523 $520 $708 forward $518 $-1 #
edge $-1 $711 -32.737246801315699 $836 -28.965544496213052 $707 $837 forward 7 unknown #
coedge $-1 $522 $521 $714 $838 reversed $226 $-1 #
edge $-1 $839 -7.5434045091427508 $711 -1.6747853295891438e-014 $705 $840 forward 7 unknown #
vertex $-1 $524 $841 #
straight-curve $-1 17.255279141518628 -29.755516957308906 10.639114225267004 1 0 0 I I #
coedge $-1 $834 $525 $528 $718 forward $703 $-1 #
coedge $-1 $525 $834 $709 $838 forward $703 $-1 #
vertex $-1 $526 $842 #
straight-curve $-1 27.844480262990125 -36.849864855364089 14.410816530369651 0 -1 0 I I #
straight-curve $-1 27.844480262990125 -29.75551695730892 10.639114225266994 0 0.8660253999169214 0.50000000669873634 I I #
edge $-1 $529 27.844480262990125 $836 41.176636303084386 $528 $843 forward 7 unknown #
point $-1 27.844480262990125 -29.755516957308906 14.410816530369647 #
point $-1 27.844480262990125 -29.755516957308906 10.639114225267003 #
edge $-1 $844 1 $844 0 $532 $-1 forward 7 unknown #
vertex $-1 $533 $845 #
ellipse-curve $-1 30.510911471008981 -24.889957085959079 9.7551218794420986 0 -0.50000000669873634 0.8660253999169214 1 0 0 1 I I #
point $-1 31.510911471008981 -26.489127003926168 12.524965377818312 #
edge $-1 $846 1 $846 0 $536 $-1 forward 7 unknown #
vertex $-1 $537 $847 #
ellipse-curve $-1 34.510558283037255 -24.889957085959079 9.7551218794420986 0 -0.50000000669873634 0.8660253999169214 1 0 0 1 I I #
point $-1 35.510558283037255 -26.489127003926168 12.524965377818312 #
edge $-1 $848 1 $848 0 $540 $-1 forward 7 unknown #
vertex $-1 $541 $849 #
ellipse-curve $-1 38.51020509506553 -24.889957085959079 9.7551218794420986 0 -0.50000000669873634 0.8660253999169214 1 0 0 1 I I #
point $-1 39.51020509506553 -26.489127003926168 12.524965377818312 #
plane-surface $-1 0 0 14.410816530369647 0 0 1 1 0 0 forward_v I I I I #
coedge $-1 $744 $743 $736 $850 forward $545 $-1 #
coedge $-1 $736 $547 $549 $740 reversed $386 $-1 #
coedge $-1 $547 $735 $734 $850 reversed $386 $-1 #
coedge $-1 $555 $550 $547 $738 forward $556 $-1 #
edge $-1 $741 -13.35002800487149 $851 -9.1309553633724718 $737 $852 forward 7 unknown #
coedge $-1 $549 $548 $744 $853 reversed $245 $-1 #
edge $-1 $854 -59.511033914617812 $741 -50.808498764703167 $735 $855 forward 7 unknown #
vertex $-1 $551 $856 #
straight-curve $-1 -3.8675315230454892 25.536444315809888 14.410816530369651 1 0 0 I I #
coedge $-1 $734 $552 $555 $748 reversed $545 $-1 #
coedge $-1 $552 $734 $739 $853 forward $545 $-1 #
vertex $-1 $553 $857 #
straight-curve $-1 -17.218851403877686 29.755516957308906 50.72904182086998 0 0 1 I I #
straight-curve $-1 -17.218851403877686 0.90399602332603024 58.848931227563455 0 0.48480960649040278 -0.87461971476443456 I I #
edge $-1 $851 -1.7487253116957309 $557 17.218851403877686 $743 $858 forward 7 unknown #
point $-1 -17.218851403877686 29.755516957308906 14.410816530369647 #
point $-1 -17.218851403877686 25.536444315809888 14.410816530369644 #
edge $-1 $859 1 $859 0 $560 $-1 forward 7 unknown #
vertex $-1 $561 $860 #
ellipse-curve $-1 -7.7350630460909784 24.647578084643342 8.9430705123190446 0 0.87461971476443456 0.48480960649040278 1 0 0 1 I I #
point $-1 -6.7350630460909784 27.645980636559393 10.60511212509673 #
plane-surface $-1 43.944212164677879 0 0 -1 0 0 0 0 1 forward_v I I I I #
coedge $-1 $569 $567 $571 $760 reversed $401 $-1 #
edge $-1 $582 -14.410816530369647 $762 14.410816530369647 $581 $861 forward 7 unknown #
vertex $-1 $760 $862 #
straight-curve $-1 -43.944212164677879 -29.755516957308906 0 0 0 -1 I I #
edge $-1 $758 -29.755516957308906 $762 29.755516957308906 $756 $863 forward 7 unknown #
straight-curve $-1 0 -29.755516957308906 -14.410816530369647 -1 0 0 I I #
vertex $-1 $574 $864 #
straight-curve $-1 0 29.755516957308906 -14.410816530369647 1 0 0 I I #
point $-1 43.944212164677879 29.755516957308906 -14.410816530369647 #
point $-1 43.944212164677879 -29.755516957308906 -14.410816530369647 #
straight-curve $-1 -43.944212164677879 0 14.410816530369647 0 -1 0 I I #
point $-1 -43.944212164677879 29.755516957308906 14.410816530369647 #
point $-1 -43.944212164677879 -29.755516957308906 14.410816530369647 #
straight-curve $-1 43.944212164677879 -29.755516957308906 0 0 0 -1 I I #
straight-curve $-1 43.944212164677879 29.755516957308906 0 0 0 -1 I I #
plane-surface $-1 0 29.755516957308906 0 0 -1 0 0 0 -1 forward_v I I I I #
coedge $-1 $595 $594 $865 $866 forward $262 $-1 #
edge $-1 $598 32.620073174305091 $867 43.944212164677879 $597 $868 forward 7 unknown #
coedge $-1 $603 $602 $595 $775 reversed $604 $-1 #
edge $-1 $869 -43.944212164677879 $776 -32.620073174305091 $774 $870 forward 7 unknown #
vertex $-1 $610 $871 #
straight-curve $-1 -32.620073174305091 0 -14.410816530369647 0 -1 0 I I #
point $-1 -32.620073174305091 -29.755516957308906 -14.410816530369647 #
coedge $-1 $865 $600 $603 $782 forward $592 $-1 #
coedge $-1 $600 $865 $607 $784 reversed $592 $-1 #
straight-curve $-1 -43.944212164677879 0 -9.6333056209362091 0 1 0 I I #
edge $-1 $605 9.6333056209362091 $869 14.410816530369647 $603 $872 forward 7 unknown #
point $-1 -43.944212164677879 29.755516957308906 -9.6333056209362091 #
edge $-1 $608 9.6333056209362091 $867 14.410816530369647 $780 $873 forward 7 unknown #
point $-1 -43.944212164677879 -29.755516957308906 -9.6333056209362091 #
straight-curve $-1 -32.620073174305091 29.755516957308906 -6.0110305378264641 0 0 -1 I I #
edge $-1 $788 7.0943478980551831 $791 13.627127804820628 $614 $874 forward 7 unknown #
vertex $-1 $618 $875 #
straight-curve $-1 -16.520341272617323 -29.755516957308906 43.3763610265827 0 0 1 I I #
edge $-1 $791 4.9271316262850959 $625 18.259287666379358 $624 $876 forward 7 unknown #
vertex $-1 $790 $877 #
straight-curve $-1 -16.520341272617323 -29.75551695730892 10.639114225266994 0 -0.8660253999169214 -0.50000000669873634 I I #
point $-1 -16.520341272617323 -29.755516957308906 10.639114225267003 #
point $-1 -29.852497312711584 -23.222737050543461 14.410816530369647 #
straight-curve $-1 0 -29.755516957308906 14.410816530369647 1 0 0 I I #
vertex $-1 $631 $878 #
point $-1 -26.186066104692731 -24.889957085959079 9.7551218794420986 #
vertex $-1 $635 $879 #
point $-1 -22.186419292664453 -24.889957085959079 9.7551218794420986 #
vertex $-1 $639 $880 #
point $-1 -18.186772480636176 -24.889957085959079 9.7551218794420986 #
coedge $-1 $654 $653 $646 $803 forward $643 $-1 #
edge $-1 $804 7.0943478980551831 $807 13.627127804820628 $802 $881 forward 7 unknown #
vertex $-1 $803 $882 #
straight-curve $-1 2.7119845859499119 -29.755516957308906 43.3763610265827 0 0 1 I I #
edge $-1 $807 -4.6890313029985204 $655 8.6431247370957376 $654 $883 forward 7 unknown #
vertex $-1 $806 $884 #
straight-curve $-1 2.7119845859499119 -29.75551695730892 10.639114225266994 0 -0.8660253999169214 -0.50000000669873634 I I #
point $-1 2.7119845859499119 -29.755516957308906 10.639114225267003 #
point $-1 -10.620171454144346 -23.222737050543461 14.410816530369647 #
straight-curve $-1 0 -29.755516957308906 14.410816530369647 1 0 0 I I #
vertex $-1 $661 $885 #
point $-1 -6.9537402461254914 -24.889957085959079 9.7551218794420986 #
vertex $-1 $665 $886 #
point $-1 -2.9540934340972171 -24.889957085959079 9.7551218794420986 #
vertex $-1 $669 $887 #
point $-1 1.0455533779310571 -24.889957085959079 9.7551218794420986 #
coedge $-1 $684 $683 $676 $819 forward $673 $-1 #
edge $-1 $820 7.0943478980551831 $823 13.627127804820628 $818 $888 forward 7 unknown #
vertex $-1 $819 $889 #
straight-curve $-1 21.94431044451715 -29.755516957308906 43.3763610265827 0 0 1 I I #
edge $-1 $823 -14.30519423228214 $685 -0.97303819218788057 $684 $890 forward 7 unknown #
vertex $-1 $822 $891 #
straight-curve $-1 21.94431044451715 -29.75551695730892 10.639114225266994 0 -0.8660253999169214 -0.50000000669873634 I I #
point $-1 21.94431044451715 -29.755516957308906 10.639114225267003 #
point $-1 8.6121544044228902 -23.222737050543461 14.410816530369647 #
straight-curve $-1 0 -29.755516957308906 14.410816530369647 1 0 0 I I #
vertex $-1 $691 $892 #
point $-1 12.278585612441745 -24.889957085959079 9.7551218794420986 #
vertex $-1 $695 $893 #
point $-1 16.278232424470019 -24.889957085959079 9.7551218794420986 #
vertex $-1 $699 $894 #
point $-1 20.277879236498293 -24.889957085959079 9.7551218794420986 #
coedge $-1 $714 $713 $706 $835 forward $703 $-1 #
edge $-1 $836 7.0943478980551831 $839 13.627127804820628 $834 $895 forward 7 unknown #
vertex $-1 $835 $896 #
straight-curve $-1 41.176636303084386 -29.755516957308906 43.3763610265827 0 0 1 I I #
edge $-1 $839 -23.921357161565759 $715 -10.589201121471497 $714 $897 forward 7 unknown #
vertex $-1 $838 $898 #
straight-curve $-1 41.176636303084386 -29.75551695730892 10.639114225266994 0 -0.8660253999169214 -0.50000000669873634 I I #
point $-1 41.176636303084386 -29.755516957308906 10.639114225267003 #
point $-1 27.844480262990125 -23.222737050543461 14.410816530369647 #
straight-curve $-1 0 -29.755516957308906 14.410816530369647 1 0 0 I I #
vertex $-1 $721 $899 #
point $-1 31.510911471008981 -24.889957085959079 9.7551218794420986 #
vertex $-1 $725 $900 #
point $-1 35.510558283037255 -24.889957085959079 9.7551218794420986 #
vertex $-1 $729 $901 #
point $-1 39.51020509506553 -24.889957085959079 9.7551218794420986 #
edge $-1 $851 36.318225290500337 $854 43.929634101046148 $734 $902 forward 7 unknown #
vertex $-1 $748 $903 #
straight-curve $-1 1.7487253116957309 38.886472320681378 14.410816530369651 0 1 0 I I #
edge $-1 $854 -5.6162568347412201 $745 13.351319880832197 $744 $904 forward 7 unknown #
vertex $-1 $853 $905 #
straight-curve $-1 1.7487253116957309 0.90399602332603024 58.848931227563455 0 -0.48480960649040278 0.87461971476443456 I I #
point $-1 1.7487253116957309 25.536444315809888 14.410816530369644 #
point $-1 -17.218851403877686 29.755516957308906 6.799407719823833 #
straight-curve $-1 0 29.755516957308906 14.410816530369647 -1 0 0 I I #
vertex $-1 $751 $906 #
point $-1 -6.7350630460909784 24.647578084643342 8.9430705123190446 #
straight-curve $-1 -43.944212164677879 29.755516957308906 0 0 0 -1 I I #
point $-1 -43.944212164677879 -29.755516957308906 -14.410816530369647 #
straight-curve $-1 -43.944212164677879 0 -14.410816530369647 0 1 0 I I #
point $-1 -43.944212164677879 29.755516957308906 -14.410816530369647 #
coedge $-1 $780 $779 $772 $866 reversed $592 $-1 #
edge $-1 $867 -29.755516957308906 $869 29.755516957308906 $865 $907 forward 7 unknown #
vertex $-1 $866 $908 #
straight-curve $-1 0 -29.755516957308906 -14.410816530369647 -1 0 0 I I #
vertex $-1 $775 $909 #
straight-curve $-1 0 29.755516957308906 -14.410816530369647 1 0 0 I I #
point $-1 -32.620073174305091 29.755516957308906 -14.410816530369647 #
straight-curve $-1 -43.944212164677879 29.755516957308906 0 0 0 -1 I I #
straight-curve $-1 -43.944212164677879 -29.755516957308906 0 0 0 -1 I I #
straight-curve $-1 -16.520341272617323 -36.849864855364089 14.410816530369651 0 1 0 I I #
point $-1 -16.520341272617323 -29.755516957308906 14.410816530369647 #
straight-curve $-1 -11.593209646332227 -23.222737050543461 14.410816530369647 -1 0 0 I I #
point $-1 -16.520341272617323 -23.222737050543461 14.410816530369647 #
point $-1 -27.186066104692731 -24.389957079260345 8.8890964795251808 #
point $-1 -23.186419292664453 -24.389957079260345 8.8890964795251808 #
point $-1 -19.186772480636176 -24.389957079260345 8.8890964795251808 #
straight-curve $-1 2.7119845859499119 -36.849864855364089 14.410816530369651 0 1 0 I I #
point $-1 2.7119845859499119 -29.755516957308906 14.410816530369647 #
straight-curve $-1 -1.9770467170486086 -23.222737050543461 14.410816530369647 -1 0 0 I I #
point $-1 2.7119845859499119 -23.222737050543461 14.410816530369647 #
point $-1 -7.9537402461254914 -24.389957079260345 8.8890964795251808 #
point $-1 -3.9540934340972171 -24.389957079260345 8.8890964795251808 #
point $-1 0.045553377931057071 -24.389957079260345 8.8890964795251808 #
straight-curve $-1 21.94431044451715 -36.849864855364089 14.410816530369651 0 1 0 I I #
point $-1 21.94431044451715 -29.755516957308906 14.410816530369647 #
straight-curve $-1 7.6391162122350096 -23.222737050543461 14.410816530369647 -1 0 0 I I #
point $-1 21.94431044451715 -23.222737050543461 14.410816530369647 #
point $-1 11.278585612441745 -24.389957079260345 8.8890964795251808 #
point $-1 15.278232424470019 -24.389957079260345 8.8890964795251808 #
point $-1 19.277879236498293 -24.389957079260345 8.8890964795251808 #
straight-curve $-1 41.176636303084386 -36.849864855364089 14.410816530369651 0 1 0 I I #
point $-1 41.176636303084386 -29.755516957308906 14.410816530369647 #
straight-curve $-1 17.255279141518628 -23.222737050543461 14.410816530369647 -1 0 0 I I #
point $-1 41.176636303084386 -23.222737050543461 14.410816530369647 #
point $-1 30.510911471008981 -24.389957079260345 8.8890964795251808 #
point $-1 34.510558283037255 -24.389957079260345 8.8890964795251808 #
point $-1 38.51020509506553 -24.389957079260345 8.8890964795251808 #
straight-curve $-1 1.7487253116957309 29.755516957308906 50.72904182086998 0 0 -1 I I #
point $-1 1.7487253116957309 29.755516957308906 14.410816530369647 #
straight-curve $-1 -3.8675315230454892 29.755516957308906 6.7994077198238365 -1 0 0 I I #
point $-1 1.7487253116957309 29.755516957308906 6.799407719823833 #
point $-1 -7.7350630460909784 23.772958369878907 8.4582609058286398 #
straight-curve $-1 -43.944212164677879 0 -14.410816530369647 0 1 0 I I #
point $-1 -43.944212164677879 -29.755516957308906 -14.410816530369647 #
point $-1 -43.944212164677879 29.755516957308906 -14.410816530369647 #
End-of-ACIS-data 