500 0 4 0           
7 Unknown 11 ACIS 5.0 NT 24 Fri Mar 26 17:30:55 1999 
-1 9.9999999999999995e-007 1e-010 
body $-1 $4 $-1 $5 #
body $-1 $6 $-1 $7 #
body $-1 $8 $-1 $9 #
body $-1 $10 $-1 $11 #
lump $-1 $-1 $12 $0 #
transform $-1 1 0 0 0 1 0 0 0 1 54.769737846003601 37.043076852375187 14.809543344404887 1 rotate no_reflect no_shear #
lump $-1 $-1 $13 $1 #
transform $-1 1 0 0 0 1 0 0 0 1 54.769737846003601 37.043076852375187 14.809543344404887 1 rotate no_reflect no_shear #
lump $-1 $-1 $14 $2 #
transform $-1 1 0 0 0 1 0 0 0 1 54.769737846003601 37.043076852375187 14.809543344404887 1 rotate no_reflect no_shear #
lump $-1 $-1 $15 $3 #
transform $-1 1 0 0 0 1 0 0 0 1 54.769737846003601 37.043076852375187 14.809543344404887 1 rotate no_reflect no_shear #
shell $-1 $-1 $-1 $16 $-1 $4 #
shell $-1 $-1 $-1 $17 $-1 $6 #
shell $-1 $-1 $-1 $18 $-1 $8 #
shell $-1 $-1 $-1 $19 $-1 $10 #
face $-1 $20 $21 $12 $-1 $22 forward single #
face $-1 $23 $24 $13 $-1 $25 forward single #
face $-1 $26 $27 $14 $-1 $28 reversed single #
face $-1 $29 $30 $15 $-1 $31 reversed single #
face $-1 $32 $33 $12 $-1 $34 reversed single #
loop $-1 $-1 $35 $16 #
plane-surface $-1 0 0 14.809543344404887 0 0 1 1 0 0 forward_v I I I I #
face $-1 $36 $37 $13 $-1 $38 forward single #
loop $-1 $-1 $39 $17 #
plane-surface $-1 84.32838361142106 -5.4202754816999814 153.16204383421038 0 -1 0 -0.82903758062907751 0 -0.55919289150049634 forward_v I I I I #
face $-1 $40 $41 $14 $-1 $42 reversed single #
loop $-1 $43 $44 $18 #
cone-surface $-1 47.754224888343316 -20.219321330822577 6.340318725693546 -0.82903758062907751 0 -0.55919289150049634 0.83878933725074445 0 -1.2435563709436162 1 I I 0 1 1.5 forward I I I I #
face $-1 $45 $46 $15 $-1 $47 reversed single #
loop $-1 $48 $49 $19 #
cone-surface $-1 47.754224888343316 -11.339893821349023 6.340318725693546 -0.82903758062907751 0 -0.55919289150049634 0.83878933725074445 0 -1.2435563709436162 1 I I 0 1 1.5 forward I I I I #
face $-1 $50 $51 $12 $-1 $52 reversed single #
loop $-1 $-1 $53 $20 #
plane-surface $-1 0 0 -14.809543344404887 0 0 1 1 0 0 forward_v I I I I #
coedge $-1 $54 $55 $56 $57 forward $21 $-1 #
face $-1 $58 $59 $13 $-1 $60 forward single #
loop $-1 $-1 $61 $23 #
plane-surface $-1 -6.4839582996582408 -15.779607576085798 91.908347688548531 0.82903758062907751 0 0.55919289150049634 0.55919289150049634 0 -0.82903758062907751 forward_v I I I I #
coedge $-1 $62 $63 $64 $65 reversed $24 $-1 #
face $-1 $66 $67 $14 $-1 $68 forward single #
loop $-1 $69 $70 $26 #
cone-surface $-1 44.741882543633913 -20.219321330822577 4.3084682218246542 -0.82903758062907751 0 -0.55919289150049634 0.41939466862537222 0 -0.62177818547180808 1 I I -0.70710678118654757 0.70710678118654757 0.75 forward I I I I #
loop $-1 $-1 $71 $18 #
coedge $-1 $44 $44 $72 $73 reversed $27 $-1 #
face $-1 $74 $75 $15 $-1 $76 reversed single #
loop $-1 $77 $78 $29 #
cone-surface $-1 44.741882543633913 -11.339893821349023 4.3084682218246542 -0.82903758062907751 0 -0.55919289150049634 0.41939466862537222 0 -0.62177818547180808 1 I I -0.70710678118654757 0.70710678118654757 0.75 forward I I I I #
loop $-1 $-1 $79 $19 #
coedge $-1 $49 $49 $80 $81 reversed $30 $-1 #
face $-1 $82 $83 $12 $-1 $84 reversed single #
loop $-1 $-1 $85 $32 #
plane-surface $-1 0 -37.043076852375187 0 0 1 0 0 0 1 forward_v I I I I #
coedge $-1 $86 $87 $88 $89 forward $33 $-1 #
coedge $-1 $90 $35 $91 $92 forward $21 $-1 #
coedge $-1 $35 $90 $93 $94 forward $21 $-1 #
coedge $-1 $95 $96 $35 $57 reversed $97 $-1 #
edge $-1 $98 -37.043076852375187 $99 37.043076852375187 $56 $100 forward 7 unknown #
face $-1 $101 $102 $13 $-1 $103 forward single #
loop $-1 $-1 $104 $36 #
plane-surface $-1 84.32838361142106 -26.138939670471615 153.16204383421038 0 1 0 0.82903758062907751 0 0.55919289150049634 forward_v I I I I #
coedge $-1 $105 $106 $107 $108 reversed $37 $-1 #
coedge $-1 $63 $39 $106 $109 forward $24 $-1 #
coedge $-1 $39 $62 $110 $111 reversed $24 $-1 #
coedge $-1 $112 $107 $39 $65 forward $102 $-1 #
edge $-1 $113 3.355648443447663 $114 12.605546040293071 $64 $115 forward 7 unknown #
face $-1 $116 $117 $14 $-1 $118 forward single #
loop $-1 $-1 $119 $40 #
plane-surface $-1 84.32838361142106 -5.4202754816999814 153.16204383421038 0 -1 0 -0.82903758062907751 0 -0.55919289150049634 forward_v I I I I #
loop $-1 $-1 $120 $26 #
coedge $-1 $70 $70 $71 $121 forward $41 $-1 #
coedge $-1 $71 $71 $70 $121 reversed $43 $-1 #
coedge $-1 $72 $72 $44 $73 forward $117 $-1 #
edge $-1 $122 0 $122 6.2831853071796004 $72 $123 forward 7 unknown #
face $-1 $124 $125 $15 $-1 $126 reversed single #
loop $-1 $127 $128 $45 #
cone-surface $-1 47.754224888343316 -20.219321330822577 6.340318725693546 -0.82903758062907751 0 -0.55919289150049634 0.83878933725074445 0 -1.2435563709436162 1 I I 0 1 1.5 forward I I I I #
loop $-1 $-1 $129 $29 #
coedge $-1 $78 $78 $79 $130 forward $46 $-1 #
coedge $-1 $79 $79 $78 $130 reversed $48 $-1 #
coedge $-1 $80 $80 $49 $81 forward $131 $-1 #
edge $-1 $132 0 $132 6.2831853071796004 $80 $133 forward 7 unknown #
face $-1 $134 $135 $12 $-1 $136 reversed single #
loop $-1 $-1 $137 $50 #
plane-surface $-1 -54.769737846003601 0 0 1 0 0 0 0 -1 forward_v I I I I #
coedge $-1 $138 $93 $139 $140 forward $51 $-1 #
coedge $-1 $141 $53 $138 $142 forward $33 $-1 #
coedge $-1 $53 $141 $143 $144 forward $33 $-1 #
coedge $-1 $96 $95 $53 $89 reversed $97 $-1 #
edge $-1 $145 -37.043076852375187 $146 37.043076852375187 $88 $147 forward 7 unknown #
coedge $-1 $55 $54 $148 $149 forward $21 $-1 #
coedge $-1 $150 $151 $54 $92 reversed $135 $-1 #
edge $-1 $99 -54.769737846003601 $152 54.769737846003601 $91 $153 forward 7 unknown #
coedge $-1 $85 $154 $55 $94 reversed $51 $-1 #
edge $-1 $155 -54.769737846003601 $98 54.769737846003601 $93 $156 forward 7 unknown #
coedge $-1 $88 $56 $154 $157 forward $97 $-1 #
coedge $-1 $56 $88 $150 $158 reversed $97 $-1 #
loop $-1 $-1 $95 $134 #
vertex $-1 $57 $159 #
vertex $-1 $57 $160 #
straight-curve $-1 54.769737846003601 0 14.809543344404887 0 1 0 I I #
face $-1 $161 $162 $13 $-1 $163 reversed single #
loop $-1 $-1 $164 $58 #
plane-surface $-1 0 0 14.809543344404887 0 0 1 1 0 0 forward_v I I I I #
coedge $-1 $165 $166 $164 $167 reversed $59 $-1 #
coedge $-1 $168 $61 $166 $169 reversed $37 $-1 #
coedge $-1 $61 $168 $62 $109 reversed $37 $-1 #
coedge $-1 $64 $164 $61 $108 forward $102 $-1 #
edge $-1 $170 -18.249135882428718 $113 2.4695283063429176 $107 $171 forward 7 unknown #
edge $-1 $113 92.997960702385427 $172 109.53947569200722 $62 $173 forward 7 unknown #
coedge $-1 $174 $175 $63 $111 forward $176 $-1 #
edge $-1 $114 61.771478572700303 $172 75.48501613963596 $110 $177 forward 7 unknown #
coedge $-1 $178 $64 $175 $179 forward $102 $-1 #
vertex $-1 $108 $180 #
vertex $-1 $179 $181 #
straight-curve $-1 42.16419180571053 -5.4202754816999814 14.809543344404887 1 0 0 I I #
face $-1 $182 $183 $14 $-1 $184 forward single #
loop $-1 $185 $72 $66 #
plane-surface $-1 -6.4839582996582408 -15.779607576085798 91.908347688548531 0.82903758062907751 0 0.55919289150049634 0.55919289150049634 0 -0.82903758062907751 forward_v I I I I #
coedge $-1 $186 $187 $188 $189 reversed $67 $-1 #
coedge $-1 $120 $120 $-1 $190 forward $69 $-1 #
edge $-1 $191 0 $191 6.2831853071796004 $70 $192 forward 7 unknown #
vertex $-1 $73 $193 #
ellipse-curve $-1 50.1447890475809 -20.219321330822577 7.9527745609370548 -0.82903758062907751 0 -0.55919289150049634 0.83878933725074445 0 -1.2435563709436162 1 I I #
face $-1 $194 $195 $15 $-1 $196 forward single #
loop $-1 $197 $198 $74 #
cone-surface $-1 44.741882543633913 -20.219321330822577 4.3084682218246542 -0.82903758062907751 0 -0.55919289150049634 0.41939466862537222 0 -0.62177818547180808 1 I I -0.70710678118654757 0.70710678118654757 0.75 forward I I I I #
loop $-1 $-1 $199 $45 #
coedge $-1 $128 $128 $200 $201 reversed $75 $-1 #
coedge $-1 $129 $129 $-1 $202 forward $77 $-1 #
edge $-1 $203 0 $203 6.2831853071796004 $78 $204 forward 7 unknown #
loop $-1 $205 $80 $194 #
vertex $-1 $81 $206 #
ellipse-curve $-1 50.1447890475809 -11.339893821349023 7.9527745609370548 -0.82903758062907751 0 -0.55919289150049634 0.83878933725074445 0 -1.2435563709436162 1 I I #
face $-1 $-1 $97 $12 $-1 $207 reversed single #
loop $-1 $-1 $150 $82 #
plane-surface $-1 0 37.043076852375187 0 0 -1 0 0 0 -1 forward_v I I I I #
coedge $-1 $208 $148 $151 $209 forward $83 $-1 #
coedge $-1 $154 $85 $86 $142 reversed $51 $-1 #
coedge $-1 $148 $208 $85 $140 reversed $83 $-1 #
edge $-1 $155 -14.809543344404887 $210 14.809543344404887 $139 $211 forward 7 unknown #
coedge $-1 $87 $86 $208 $212 forward $33 $-1 #
edge $-1 $146 -54.769737846003601 $210 54.769737846003601 $138 $213 forward 7 unknown #
coedge $-1 $151 $150 $87 $144 reversed $135 $-1 #
edge $-1 $214 -54.769737846003601 $145 54.769737846003601 $143 $215 forward 7 unknown #
vertex $-1 $89 $216 #
vertex $-1 $157 $217 #
straight-curve $-1 54.769737846003601 0 -14.809543344404887 0 -1 0 I I #
coedge $-1 $137 $139 $90 $149 reversed $83 $-1 #
edge $-1 $152 -37.043076852375187 $155 37.043076852375187 $148 $218 forward 7 unknown #
coedge $-1 $143 $91 $96 $158 forward $135 $-1 #
coedge $-1 $91 $143 $137 $209 reversed $135 $-1 #
vertex $-1 $92 $219 #
straight-curve $-1 0 37.043076852375187 14.809543344404887 -1 0 0 I I #
coedge $-1 $93 $138 $95 $157 reversed $51 $-1 #
vertex $-1 $149 $220 #
straight-curve $-1 0 -37.043076852375187 14.809543344404887 1 0 0 I I #
edge $-1 $98 -14.809543344404887 $146 14.809543344404887 $95 $221 forward 7 unknown #
edge $-1 $99 -14.809543344404887 $145 14.809543344404887 $96 $222 forward 7 unknown #
point $-1 54.769737846003601 -37.043076852375187 14.809543344404887 #
point $-1 54.769737846003601 37.043076852375187 14.809543344404887 #
face $-1 $223 $224 $13 $-1 $225 reversed single #
loop $-1 $-1 $226 $101 #
plane-surface $-1 0 0 -14.809543344404887 0 0 1 1 0 0 forward_v I I I I #
coedge $-1 $107 $227 $104 $167 forward $102 $-1 #
coedge $-1 $166 $104 $228 $229 reversed $59 $-1 #
coedge $-1 $104 $165 $105 $169 forward $59 $-1 #
edge $-1 $230 -12.605546040293071 $170 -3.355648443447663 $164 $231 forward 7 unknown #
coedge $-1 $106 $105 $174 $232 reversed $37 $-1 #
edge $-1 $233 -109.53947569200722 $170 -92.997960702385427 $166 $234 forward 7 unknown #
vertex $-1 $108 $235 #
straight-curve $-1 45.519840249158207 -7.8898037880428991 14.809543344404879 0 1 0 I I #
vertex $-1 $232 $236 #
straight-curve $-1 -6.4839582996582408 -5.4202754816999814 91.908347688548531 0.55919289150049634 0 -0.82903758062907751 I I #
coedge $-1 $228 $110 $168 $232 forward $176 $-1 #
coedge $-1 $110 $237 $112 $179 reversed $176 $-1 #
loop $-1 $-1 $228 $238 #
straight-curve $-1 54.769737846003601 -5.4202754816999814 76.58102191710519 0 0 -1 I I #
coedge $-1 $239 $112 $240 $241 forward $102 $-1 #
edge $-1 $114 -5.4202754816999814 $242 37.043076852375187 $175 $243 forward 7 unknown #
point $-1 45.519840249158193 -5.4202754816999814 14.809543344404887 #
point $-1 54.769737846003601 -5.4202754816999814 14.809543344404887 #
face $-1 $244 $245 $14 $-1 $246 forward single #
loop $-1 $-1 $247 $116 #
plane-surface $-1 84.32838361142106 -26.138939670471615 153.16204383421038 0 1 0 0.82903758062907751 0 0.55919289150049634 forward_v I I I I #
loop $-1 $-1 $248 $66 #
coedge $-1 $187 $119 $249 $250 forward $67 $-1 #
coedge $-1 $119 $186 $251 $252 reversed $67 $-1 #
coedge $-1 $253 $254 $119 $189 forward $245 $-1 #
edge $-1 $255 3.355648443447663 $256 12.605546040293071 $188 $257 forward 7 unknown #
edge $-1 $258 1 $258 0 $120 $-1 forward 7 unknown #
vertex $-1 $121 $259 #
ellipse-curve $-1 45.363660729105725 -20.219321330822577 4.7278628904500266 0.82903758062907751 0 0.55919289150049634 0.83878933725074445 0 -1.2435563709436162 1 I I #
point $-1 50.983578384831659 -20.219321330822577 6.7092181899934484 #
face $-1 $260 $131 $15 $-1 $261 forward single #
loop $-1 $-1 $262 $124 #
plane-surface $-1 84.32838361142106 -5.4202754816999814 153.16204383421038 0 -1 0 -0.82903758062907751 0 -0.55919289150049634 forward_v I I I I #
loop $-1 $-1 $263 $74 #
coedge $-1 $198 $198 $199 $264 forward $125 $-1 #
coedge $-1 $199 $199 $198 $264 reversed $127 $-1 #
coedge $-1 $200 $200 $128 $201 forward $205 $-1 #
edge $-1 $265 0 $265 6.2831853071796004 $200 $266 forward 7 unknown #
edge $-1 $267 1 $267 0 $129 $-1 forward 7 unknown #
vertex $-1 $130 $268 #
ellipse-curve $-1 45.363660729105725 -11.339893821349023 4.7278628904500266 0.82903758062907751 0 0.55919289150049634 0.83878933725074445 0 -1.2435563709436162 1 I I #
loop $-1 $269 $200 $194 #
point $-1 50.983578384831659 -11.339893821349023 6.7092181899934484 #
plane-surface $-1 54.769737846003601 0 0 -1 0 0 0 0 1 forward_v I I I I #
coedge $-1 $139 $137 $141 $212 reversed $83 $-1 #
edge $-1 $152 -14.809543344404887 $214 14.809543344404887 $151 $270 forward 7 unknown #
vertex $-1 $212 $271 #
straight-curve $-1 -54.769737846003601 -37.043076852375187 0 0 0 -1 I I #
edge $-1 $210 -37.043076852375187 $214 37.043076852375187 $208 $272 forward 7 unknown #
straight-curve $-1 0 -37.043076852375187 -14.809543344404887 -1 0 0 I I #
vertex $-1 $144 $273 #
straight-curve $-1 0 37.043076852375187 -14.809543344404887 1 0 0 I I #
point $-1 54.769737846003601 37.043076852375187 -14.809543344404887 #
point $-1 54.769737846003601 -37.043076852375187 -14.809543344404887 #
straight-curve $-1 -54.769737846003601 0 14.809543344404887 0 -1 0 I I #
point $-1 -54.769737846003601 37.043076852375187 14.809543344404887 #
point $-1 -54.769737846003601 -37.043076852375187 14.809543344404887 #
straight-curve $-1 54.769737846003601 -37.043076852375187 0 0 0 -1 I I #
straight-curve $-1 54.769737846003601 37.043076852375187 0 0 0 -1 I I #
face $-1 $274 $275 $13 $-1 $276 reversed single #
loop $-1 $-1 $277 $161 #
plane-surface $-1 0 -37.043076852375187 0 0 1 0 0 0 1 forward_v I I I I #
coedge $-1 $278 $279 $280 $281 forward $162 $-1 #
coedge $-1 $164 $282 $283 $284 forward $102 $-1 #
coedge $-1 $283 $174 $165 $229 forward $176 $-1 #
edge $-1 $233 -75.48501613963596 $230 -61.771478572700303 $228 $285 forward 7 unknown #
vertex $-1 $229 $286 #
straight-curve $-1 42.16419180571053 -26.138939670471615 14.809543344404887 -1 0 0 I I #
edge $-1 $172 -2.4695283063429176 $233 18.249135882428718 $174 $287 forward 7 unknown #
vertex $-1 $232 $288 #
straight-curve $-1 -6.4839582996582408 -26.138939670471615 91.908347688548531 -0.55919289150049634 0 0.82903758062907751 I I #
point $-1 45.519840249158193 -26.138939670471615 14.809543344404887 #
point $-1 54.769737846003601 -5.4202754816999814 1.0960057774692302 #
coedge $-1 $175 $280 $289 $290 reversed $176 $-1 #
face $-1 $-1 $176 $13 $-1 $291 reversed single #
coedge $-1 $282 $178 $292 $293 forward $102 $-1 #
coedge $-1 $289 $294 $178 $241 reversed $295 $-1 #
edge $-1 $242 -54.769737846003601 $296 54.769737846003601 $240 $297 forward 7 unknown #
vertex $-1 $179 $298 #
straight-curve $-1 54.769737846003601 0 14.809543344404887 0 1 0 I I #
face $-1 $299 $300 $14 $-1 $301 reversed single #
loop $-1 $-1 $302 $182 #
plane-surface $-1 0 0 14.809543344404887 0 0 1 1 0 0 forward_v I I I I #
coedge $-1 $303 $304 $302 $305 reversed $183 $-1 #
coedge $-1 $306 $249 $254 $307 reversed $185 $-1 #
coedge $-1 $248 $308 $186 $250 reversed $185 $-1 #
edge $-1 $255 92.997960702385427 $309 109.53947569200722 $186 $310 forward 7 unknown #
coedge $-1 $311 $312 $187 $252 forward $313 $-1 #
edge $-1 $256 61.771478572700303 $309 75.48501613963596 $251 $314 forward 7 unknown #
coedge $-1 $315 $188 $312 $316 forward $245 $-1 #
coedge $-1 $188 $302 $248 $307 forward $245 $-1 #
vertex $-1 $307 $317 #
vertex $-1 $316 $318 #
straight-curve $-1 42.16419180571053 -5.4202754816999814 14.809543344404887 1 0 0 I I #
vertex $-1 $190 $319 #
point $-1 46.202450066356462 -20.219321330822577 3.4843065195064105 #
face $-1 $320 $321 $15 $-1 $322 forward single #
plane-surface $-1 -6.4839582996582408 -15.779607576085798 91.908347688548531 0.82903758062907751 0 0.55919289150049634 0.55919289150049634 0 -0.82903758062907751 forward_v I I I I #
coedge $-1 $323 $324 $325 $326 reversed $195 $-1 #
coedge $-1 $263 $263 $-1 $327 forward $197 $-1 #
edge $-1 $328 0 $328 6.2831853071796004 $198 $329 forward 7 unknown #
vertex $-1 $201 $330 #
ellipse-curve $-1 50.1447890475809 -20.219321330822577 7.9527745609370548 -0.82903758062907751 0 -0.55919289150049634 0.83878933725074445 0 -1.2435563709436162 1 I I #
vertex $-1 $202 $331 #
point $-1 46.202450066356462 -11.339893821349023 3.4843065195064105 #
loop $-1 $-1 $332 $194 #
straight-curve $-1 -54.769737846003601 37.043076852375187 0 0 0 -1 I I #
point $-1 -54.769737846003601 -37.043076852375187 -14.809543344404887 #
straight-curve $-1 -54.769737846003601 0 -14.809543344404887 0 1 0 I I #
point $-1 -54.769737846003601 37.043076852375187 -14.809543344404887 #
face $-1 $238 $295 $13 $-1 $333 reversed single #
loop $-1 $-1 $334 $223 #
plane-surface $-1 -54.769737846003601 0 0 1 0 0 0 0 -1 forward_v I I I I #
coedge $-1 $335 $336 $337 $338 forward $224 $-1 #
coedge $-1 $339 $226 $335 $340 forward $162 $-1 #
coedge $-1 $226 $339 $341 $342 forward $162 $-1 #
coedge $-1 $237 $343 $226 $281 reversed $176 $-1 #
edge $-1 $344 -37.043076852375187 $345 37.043076852375187 $280 $346 forward 7 unknown #
coedge $-1 $227 $239 $336 $347 forward $102 $-1 #
coedge $-1 $343 $228 $227 $284 reversed $176 $-1 #
edge $-1 $348 -37.043076852375187 $230 -26.138939670471615 $283 $243 forward 7 unknown #
straight-curve $-1 54.769737846003601 -26.138939670471615 76.58102191710519 0 0 1 I I #
point $-1 54.769737846003601 -26.138939670471615 14.809543344404887 #
straight-curve $-1 54.769737846003608 -7.8898037880428991 1.0960057774692231 0 -1 0 I I #
point $-1 54.769737846003601 -26.138939670471615 1.0960057774692302 #
coedge $-1 $341 $240 $237 $290 forward $295 $-1 #
edge $-1 $242 -14.809543344404887 $344 14.809543344404887 $237 $349 forward 7 unknown #
plane-surface $-1 54.769737846003601 0 0 -1 0 0 0 0 1 forward_v I I I I #
coedge $-1 $334 $337 $239 $293 reversed $275 $-1 #
edge $-1 $296 -37.043076852375187 $350 37.043076852375187 $292 $351 forward 7 unknown #
coedge $-1 $240 $341 $334 $352 reversed $295 $-1 #
loop $-1 $-1 $289 $274 #
vertex $-1 $241 $353 #
straight-curve $-1 0 37.043076852375187 14.809543344404887 -1 0 0 I I #
point $-1 54.769737846003601 37.043076852375187 14.809543344404887 #
face $-1 $354 $355 $14 $-1 $356 reversed single #
loop $-1 $-1 $357 $244 #
plane-surface $-1 0 0 -14.809543344404887 0 0 1 1 0 0 forward_v I I I I #
coedge $-1 $254 $358 $247 $305 forward $245 $-1 #
coedge $-1 $304 $247 $359 $360 reversed $183 $-1 #
coedge $-1 $247 $303 $306 $361 forward $183 $-1 #
edge $-1 $362 -12.605546040293071 $363 -3.355648443447663 $302 $364 forward 7 unknown #
coedge $-1 $308 $248 $304 $361 reversed $185 $-1 #
edge $-1 $363 -18.249135882428718 $255 2.4695283063429176 $254 $365 forward 7 unknown #
coedge $-1 $249 $306 $311 $366 reversed $185 $-1 #
vertex $-1 $366 $367 #
straight-curve $-1 -6.4839582996582408 -5.4202754816999814 91.908347688548531 0.55919289150049634 0 -0.82903758062907751 I I #
coedge $-1 $359 $251 $308 $366 forward $313 $-1 #
coedge $-1 $251 $368 $253 $316 reversed $313 $-1 #
loop $-1 $-1 $359 $369 #
straight-curve $-1 54.769737846003601 -5.4202754816999814 76.58102191710519 0 0 -1 I I #
coedge $-1 $370 $253 $371 $372 forward $245 $-1 #
edge $-1 $256 -5.4202754816999814 $373 37.043076852375187 $312 $374 forward 7 unknown #
point $-1 45.519840249158193 -5.4202754816999814 14.809543344404887 #
point $-1 54.769737846003601 -5.4202754816999814 14.809543344404887 #
point $-1 44.120104358162102 -20.219321330822577 3.8890735531992817 #
face $-1 $375 $376 $15 $-1 $377 forward single #
loop $-1 $-1 $378 $260 #
plane-surface $-1 84.32838361142106 -26.138939670471615 153.16204383421038 0 1 0 0.82903758062907751 0 0.55919289150049634 forward_v I I I I #
coedge $-1 $324 $262 $379 $380 forward $195 $-1 #
coedge $-1 $262 $323 $381 $382 reversed $195 $-1 #
coedge $-1 $383 $384 $262 $326 forward $376 $-1 #
edge $-1 $385 3.355648443447663 $386 12.605546040293071 $325 $387 forward 7 unknown #
edge $-1 $388 1 $388 0 $263 $-1 forward 7 unknown #
vertex $-1 $264 $389 #
ellipse-curve $-1 45.363660729105725 -20.219321330822577 4.7278628904500266 0.82903758062907751 0 0.55919289150049634 0.83878933725074445 0 -1.2435563709436162 1 I I #
point $-1 50.983578384831659 -20.219321330822577 6.7092181899934484 #
point $-1 44.120104358162102 -11.339893821349023 3.8890735531992817 #
coedge $-1 $390 $379 $384 $391 reversed $269 $-1 #
plane-surface $-1 0 37.043076852375187 0 0 -1 0 0 0 -1 forward_v I I I I #
coedge $-1 $392 $292 $294 $352 forward $275 $-1 #
coedge $-1 $393 $277 $278 $340 reversed $224 $-1 #
coedge $-1 $277 $393 $282 $347 reversed $224 $-1 #
coedge $-1 $292 $392 $277 $338 reversed $275 $-1 #
edge $-1 $350 -14.809543344404887 $394 14.809543344404887 $337 $395 forward 7 unknown #
coedge $-1 $279 $278 $392 $396 forward $162 $-1 #
edge $-1 $345 -54.769737846003601 $394 54.769737846003601 $335 $397 forward 7 unknown #
coedge $-1 $294 $289 $279 $342 reversed $295 $-1 #
edge $-1 $398 -54.769737846003601 $344 54.769737846003601 $341 $399 forward 7 unknown #
coedge $-1 $280 $283 $393 $400 forward $176 $-1 #
vertex $-1 $281 $401 #
vertex $-1 $400 $402 #
straight-curve $-1 54.769737846003601 0 -14.809543344404887 0 -1 0 I I #
edge $-1 $350 -54.769737846003601 $348 54.769737846003601 $336 $403 forward 7 unknown #
vertex $-1 $284 $404 #
straight-curve $-1 54.769737846003601 37.043076852375187 0 0 0 -1 I I #
vertex $-1 $293 $405 #
straight-curve $-1 -54.769737846003601 0 14.809543344404887 0 -1 0 I I #
edge $-1 $296 -14.809543344404887 $398 14.809543344404887 $294 $406 forward 7 unknown #
point $-1 -54.769737846003601 37.043076852375187 14.809543344404887 #
face $-1 $407 $408 $14 $-1 $409 reversed single #
loop $-1 $-1 $410 $299 #
plane-surface $-1 0 -37.043076852375187 0 0 1 0 0 0 1 forward_v I I I I #
coedge $-1 $411 $412 $413 $414 forward $300 $-1 #
coedge $-1 $302 $415 $416 $417 forward $245 $-1 #
coedge $-1 $416 $311 $303 $360 forward $313 $-1 #
edge $-1 $418 -75.48501613963596 $362 -61.771478572700303 $359 $419 forward 7 unknown #
edge $-1 $418 -109.53947569200722 $363 -92.997960702385427 $304 $420 forward 7 unknown #
vertex $-1 $360 $421 #
vertex $-1 $307 $422 #
straight-curve $-1 42.16419180571053 -26.138939670471615 14.809543344404887 -1 0 0 I I #
straight-curve $-1 45.519840249158207 -7.8898037880428991 14.809543344404879 0 1 0 I I #
edge $-1 $309 -2.4695283063429176 $418 18.249135882428718 $311 $423 forward 7 unknown #
point $-1 54.769737846003601 -5.4202754816999814 1.0960057774692302 #
coedge $-1 $312 $413 $424 $425 reversed $313 $-1 #
face $-1 $-1 $313 $14 $-1 $426 reversed single #
coedge $-1 $415 $315 $427 $428 forward $245 $-1 #
coedge $-1 $424 $429 $315 $372 reversed $430 $-1 #
edge $-1 $373 -54.769737846003601 $431 54.769737846003601 $371 $432 forward 7 unknown #
vertex $-1 $316 $433 #
straight-curve $-1 54.769737846003601 0 14.809543344404887 0 1 0 I I #
face $-1 $434 $435 $15 $-1 $436 reversed single #
loop $-1 $-1 $437 $320 #
plane-surface $-1 0 0 14.809543344404887 0 0 1 1 0 0 forward_v I I I I #
coedge $-1 $438 $439 $437 $440 reversed $321 $-1 #
coedge $-1 $332 $441 $323 $380 reversed $269 $-1 #
edge $-1 $385 92.997960702385427 $442 109.53947569200722 $323 $443 forward 7 unknown #
coedge $-1 $444 $445 $324 $382 forward $446 $-1 #
edge $-1 $386 61.771478572700303 $442 75.48501613963596 $381 $447 forward 7 unknown #
coedge $-1 $448 $325 $445 $449 forward $376 $-1 #
coedge $-1 $325 $437 $332 $391 forward $376 $-1 #
vertex $-1 $391 $450 #
vertex $-1 $449 $451 #
straight-curve $-1 42.16419180571053 -5.4202754816999814 14.809543344404887 1 0 0 I I #
vertex $-1 $327 $452 #
point $-1 46.202450066356462 -20.219321330822577 3.4843065195064105 #
coedge $-1 $441 $332 $439 $453 reversed $269 $-1 #
edge $-1 $454 -18.249135882428718 $385 2.4695283063429176 $384 $455 forward 7 unknown #
coedge $-1 $337 $334 $339 $396 reversed $275 $-1 #
coedge $-1 $336 $335 $343 $400 reversed $224 $-1 #
vertex $-1 $396 $456 #
straight-curve $-1 -54.769737846003601 -37.043076852375187 0 0 0 -1 I I #
edge $-1 $394 -37.043076852375187 $398 37.043076852375187 $392 $457 forward 7 unknown #
straight-curve $-1 0 -37.043076852375187 -14.809543344404887 -1 0 0 I I #
vertex $-1 $342 $458 #
straight-curve $-1 0 37.043076852375187 -14.809543344404887 1 0 0 I I #
edge $-1 $348 -14.809543344404887 $345 14.809543344404887 $343 $459 forward 7 unknown #
point $-1 54.769737846003601 37.043076852375187 -14.809543344404887 #
point $-1 54.769737846003601 -37.043076852375187 -14.809543344404887 #
straight-curve $-1 0 -37.043076852375187 14.809543344404887 1 0 0 I I #
point $-1 54.769737846003601 -37.043076852375187 14.809543344404887 #
point $-1 -54.769737846003601 -37.043076852375187 14.809543344404887 #
straight-curve $-1 -54.769737846003601 37.043076852375187 0 0 0 -1 I I #
face $-1 $369 $430 $14 $-1 $460 reversed single #
loop $-1 $-1 $461 $354 #
plane-surface $-1 -54.769737846003601 0 0 1 0 0 0 0 -1 forward_v I I I I #
coedge $-1 $462 $463 $464 $465 forward $355 $-1 #
coedge $-1 $466 $357 $462 $467 forward $300 $-1 #
coedge $-1 $357 $466 $468 $469 forward $300 $-1 #
coedge $-1 $368 $470 $357 $414 reversed $313 $-1 #
edge $-1 $471 -37.043076852375187 $472 37.043076852375187 $413 $473 forward 7 unknown #
coedge $-1 $358 $370 $463 $474 forward $245 $-1 #
coedge $-1 $470 $359 $358 $417 reversed $313 $-1 #
edge $-1 $475 -37.043076852375187 $362 -26.138939670471615 $416 $374 forward 7 unknown #
vertex $-1 $366 $476 #
straight-curve $-1 54.769737846003601 -26.138939670471615 76.58102191710519 0 0 1 I I #
straight-curve $-1 -6.4839582996582408 -26.138939670471615 91.908347688548531 -0.55919289150049634 0 0.82903758062907751 I I #
point $-1 54.769737846003601 -26.138939670471615 14.809543344404887 #
point $-1 45.519840249158193 -26.138939670471615 14.809543344404887 #
straight-curve $-1 54.769737846003608 -7.8898037880428991 1.0960057774692231 0 -1 0 I I #
coedge $-1 $468 $371 $368 $425 forward $430 $-1 #
edge $-1 $373 -14.809543344404887 $471 14.809543344404887 $368 $477 forward 7 unknown #
plane-surface $-1 54.769737846003601 0 0 -1 0 0 0 0 1 forward_v I I I I #
coedge $-1 $461 $464 $370 $428 reversed $408 $-1 #
edge $-1 $431 -37.043076852375187 $478 37.043076852375187 $427 $479 forward 7 unknown #
coedge $-1 $371 $468 $461 $480 reversed $430 $-1 #
loop $-1 $-1 $424 $407 #
vertex $-1 $372 $481 #
straight-curve $-1 0 37.043076852375187 14.809543344404887 -1 0 0 I I #
point $-1 54.769737846003601 37.043076852375187 14.809543344404887 #
face $-1 $482 $483 $15 $-1 $484 reversed single #
loop $-1 $-1 $485 $375 #
plane-surface $-1 0 0 -14.809543344404887 0 0 1 1 0 0 forward_v I I I I #
coedge $-1 $384 $486 $378 $440 forward $376 $-1 #
coedge $-1 $439 $378 $487 $488 reversed $321 $-1 #
coedge $-1 $378 $438 $390 $453 forward $321 $-1 #
edge $-1 $489 -12.605546040293071 $454 -3.355648443447663 $437 $490 forward 7 unknown #
coedge $-1 $379 $390 $444 $491 reversed $269 $-1 #
vertex $-1 $491 $492 #
straight-curve $-1 -6.4839582996582408 -5.4202754816999814 91.908347688548531 0.55919289150049634 0 -0.82903758062907751 I I #
coedge $-1 $487 $381 $441 $491 forward $446 $-1 #
coedge $-1 $381 $493 $383 $449 reversed $446 $-1 #
loop $-1 $-1 $487 $494 #
straight-curve $-1 54.769737846003601 -5.4202754816999814 76.58102191710519 0 0 -1 I I #
coedge $-1 $495 $383 $496 $497 forward $376 $-1 #
edge $-1 $386 -5.4202754816999814 $498 37.043076852375187 $445 $499 forward 7 unknown #
point $-1 45.519840249158193 -5.4202754816999814 14.809543344404887 #
point $-1 54.769737846003601 -5.4202754816999814 14.809543344404887 #
point $-1 44.120104358162102 -20.219321330822577 3.8890735531992817 #
edge $-1 $500 -109.53947569200722 $454 -92.997960702385427 $439 $501 forward 7 unknown #
vertex $-1 $391 $502 #
straight-curve $-1 45.519840249158207 -7.8898037880428991 14.809543344404879 0 1 0 I I #
point $-1 -54.769737846003601 -37.043076852375187 -14.809543344404887 #
straight-curve $-1 -54.769737846003601 0 -14.809543344404887 0 1 0 I I #
point $-1 -54.769737846003601 37.043076852375187 -14.809543344404887 #
straight-curve $-1 54.769737846003601 -37.043076852375187 0 0 0 -1 I I #
plane-surface $-1 0 37.043076852375187 0 0 -1 0 0 0 -1 forward_v I I I I #
coedge $-1 $503 $427 $429 $480 forward $408 $-1 #
coedge $-1 $504 $410 $411 $467 reversed $355 $-1 #
coedge $-1 $410 $504 $415 $474 reversed $355 $-1 #
coedge $-1 $427 $503 $410 $465 reversed $408 $-1 #
edge $-1 $478 -14.809543344404887 $505 14.809543344404887 $464 $506 forward 7 unknown #
coedge $-1 $412 $411 $503 $507 forward $300 $-1 #
edge $-1 $472 -54.769737846003601 $505 54.769737846003601 $462 $508 forward 7 unknown #
coedge $-1 $429 $424 $412 $469 reversed $430 $-1 #
edge $-1 $509 -54.769737846003601 $471 54.769737846003601 $468 $510 forward 7 unknown #
coedge $-1 $413 $416 $504 $511 forward $313 $-1 #
vertex $-1 $414 $512 #
vertex $-1 $511 $513 #
straight-curve $-1 54.769737846003601 0 -14.809543344404887 0 -1 0 I I #
edge $-1 $478 -54.769737846003601 $475 54.769737846003601 $463 $514 forward 7 unknown #
vertex $-1 $417 $515 #
point $-1 54.769737846003601 -26.138939670471615 1.0960057774692302 #
straight-curve $-1 54.769737846003601 37.043076852375187 0 0 0 -1 I I #
vertex $-1 $428 $516 #
straight-curve $-1 -54.769737846003601 0 14.809543344404887 0 -1 0 I I #
edge $-1 $431 -14.809543344404887 $509 14.809543344404887 $429 $517 forward 7 unknown #
point $-1 -54.769737846003601 37.043076852375187 14.809543344404887 #
face $-1 $518 $519 $15 $-1 $520 reversed single #
loop $-1 $-1 $521 $434 #
plane-surface $-1 0 -37.043076852375187 0 0 1 0 0 0 1 forward_v I I I I #
coedge $-1 $522 $523 $524 $525 forward $435 $-1 #
coedge $-1 $437 $526 $527 $528 forward $376 $-1 #
coedge $-1 $527 $444 $438 $488 forward $446 $-1 #
edge $-1 $500 -75.48501613963596 $489 -61.771478572700303 $487 $529 forward 7 unknown #
vertex $-1 $488 $530 #
straight-curve $-1 42.16419180571053 -26.138939670471615 14.809543344404887 -1 0 0 I I #
edge $-1 $442 -2.4695283063429176 $500 18.249135882428718 $444 $531 forward 7 unknown #
point $-1 54.769737846003601 -5.4202754816999814 1.0960057774692302 #
coedge $-1 $445 $524 $532 $533 reversed $446 $-1 #
face $-1 $-1 $446 $15 $-1 $534 reversed single #
coedge $-1 $526 $448 $535 $536 forward $376 $-1 #
coedge $-1 $532 $537 $448 $497 reversed $538 $-1 #
edge $-1 $498 -54.769737846003601 $539 54.769737846003601 $496 $540 forward 7 unknown #
vertex $-1 $449 $541 #
straight-curve $-1 54.769737846003601 0 14.809543344404887 0 1 0 I I #
vertex $-1 $491 $542 #
straight-curve $-1 -6.4839582996582408 -26.138939670471615 91.908347688548531 -0.55919289150049634 0 0.82903758062907751 I I #
point $-1 45.519840249158193 -26.138939670471615 14.809543344404887 #
coedge $-1 $464 $461 $466 $507 reversed $408 $-1 #
coedge $-1 $463 $462 $470 $511 reversed $355 $-1 #
vertex $-1 $507 $543 #
straight-curve $-1 -54.769737846003601 -37.043076852375187 0 0 0 -1 I I #
edge $-1 $505 -37.043076852375187 $509 37.043076852375187 $503 $544 forward 7 unknown #
straight-curve $-1 0 -37.043076852375187 -14.809543344404887 -1 0 0 I I #
vertex $-1 $469 $545 #
straight-curve $-1 0 37.043076852375187 -14.809543344404887 1 0 0 I I #
edge $-1 $475 -14.809543344404887 $472 14.809543344404887 $470 $546 forward 7 unknown #
point $-1 54.769737846003601 37.043076852375187 -14.809543344404887 #
point $-1 54.769737846003601 -37.043076852375187 -14.809543344404887 #
straight-curve $-1 0 -37.043076852375187 14.809543344404887 1 0 0 I I #
point $-1 54.769737846003601 -37.043076852375187 14.809543344404887 #
point $-1 -54.769737846003601 -37.043076852375187 14.809543344404887 #
straight-curve $-1 -54.769737846003601 37.043076852375187 0 0 0 -1 I I #
face $-1 $494 $538 $15 $-1 $547 reversed single #
loop $-1 $-1 $548 $482 #
plane-surface $-1 -54.769737846003601 0 0 1 0 0 0 0 -1 forward_v I I I I #
coedge $-1 $549 $550 $551 $552 forward $483 $-1 #
coedge $-1 $553 $485 $549 $554 forward $435 $-1 #
coedge $-1 $485 $553 $555 $556 forward $435 $-1 #
coedge $-1 $493 $557 $485 $525 reversed $446 $-1 #
edge $-1 $558 -37.043076852375187 $559 37.043076852375187 $524 $560 forward 7 unknown #
coedge $-1 $486 $495 $550 $561 forward $376 $-1 #
coedge $-1 $557 $487 $486 $528 reversed $446 $-1 #
edge $-1 $562 -37.043076852375187 $489 -26.138939670471615 $527 $499 forward 7 unknown #
straight-curve $-1 54.769737846003601 -26.138939670471615 76.58102191710519 0 0 1 I I #
point $-1 54.769737846003601 -26.138939670471615 14.809543344404887 #
straight-curve $-1 54.769737846003608 -7.8898037880428991 1.0960057774692231 0 -1 0 I I #
coedge $-1 $555 $496 $493 $533 forward $538 $-1 #
edge $-1 $498 -14.809543344404887 $558 14.809543344404887 $493 $563 forward 7 unknown #
plane-surface $-1 54.769737846003601 0 0 -1 0 0 0 0 1 forward_v I I I I #
coedge $-1 $548 $551 $495 $536 reversed $519 $-1 #
edge $-1 $539 -37.043076852375187 $564 37.043076852375187 $535 $565 forward 7 unknown #
coedge $-1 $496 $555 $548 $566 reversed $538 $-1 #
loop $-1 $-1 $532 $518 #
vertex $-1 $497 $567 #
straight-curve $-1 0 37.043076852375187 14.809543344404887 -1 0 0 I I #
point $-1 54.769737846003601 37.043076852375187 14.809543344404887 #
point $-1 54.769737846003601 -26.138939670471615 1.0960057774692302 #
point $-1 -54.769737846003601 -37.043076852375187 -14.809543344404887 #
straight-curve $-1 -54.769737846003601 0 -14.809543344404887 0 1 0 I I #
point $-1 -54.769737846003601 37.043076852375187 -14.809543344404887 #
straight-curve $-1 54.769737846003601 -37.043076852375187 0 0 0 -1 I I #
plane-surface $-1 0 37.043076852375187 0 0 -1 0 0 0 -1 forward_v I I I I #
coedge $-1 $568 $535 $537 $566 forward $519 $-1 #
coedge $-1 $569 $521 $522 $554 reversed $483 $-1 #
coedge $-1 $521 $569 $526 $561 reversed $483 $-1 #
coedge $-1 $535 $568 $521 $552 reversed $519 $-1 #
edge $-1 $564 -14.809543344404887 $570 14.809543344404887 $551 $571 forward 7 unknown #
coedge $-1 $523 $522 $568 $572 forward $435 $-1 #
edge $-1 $559 -54.769737846003601 $570 54.769737846003601 $549 $573 forward 7 unknown #
coedge $-1 $537 $532 $523 $556 reversed $538 $-1 #
edge $-1 $574 -54.769737846003601 $558 54.769737846003601 $555 $575 forward 7 unknown #
coedge $-1 $524 $527 $569 $576 forward $446 $-1 #
vertex $-1 $525 $577 #
vertex $-1 $576 $578 #
straight-curve $-1 54.769737846003601 0 -14.809543344404887 0 -1 0 I I #
edge $-1 $564 -54.769737846003601 $562 54.769737846003601 $550 $579 forward 7 unknown #
vertex $-1 $528 $580 #
straight-curve $-1 54.769737846003601 37.043076852375187 0 0 0 -1 I I #
vertex $-1 $536 $581 #
straight-curve $-1 -54.769737846003601 0 14.809543344404887 0 -1 0 I I #
edge $-1 $539 -14.809543344404887 $574 14.809543344404887 $537 $582 forward 7 unknown #
point $-1 -54.769737846003601 37.043076852375187 14.809543344404887 #
coedge $-1 $551 $548 $553 $572 reversed $519 $-1 #
coedge $-1 $550 $549 $557 $576 reversed $483 $-1 #
vertex $-1 $572 $583 #
straight-curve $-1 -54.769737846003601 -37.043076852375187 0 0 0 -1 I I #
edge $-1 $570 -37.043076852375187 $574 37.043076852375187 $568 $584 forward 7 unknown #
straight-curve $-1 0 -37.043076852375187 -14.809543344404887 -1 0 0 I I #
vertex $-1 $556 $585 #
straight-curve $-1 0 37.043076852375187 -14.809543344404887 1 0 0 I I #
edge $-1 $562 -14.809543344404887 $559 14.809543344404887 $557 $586 forward 7 unknown #
point $-1 54.769737846003601 37.043076852375187 -14.809543344404887 #
point $-1 54.769737846003601 -37.043076852375187 -14.809543344404887 #
straight-curve $-1 0 -37.043076852375187 14.809543344404887 1 0 0 I I #
point $-1 54.769737846003601 -37.043076852375187 14.809543344404887 #
point $-1 -54.769737846003601 -37.043076852375187 14.809543344404887 #
straight-curve $-1 -54.769737846003601 37.043076852375187 0 0 0 -1 I I #
point $-1 -54.769737846003601 -37.043076852375187 -14.809543344404887 #
straight-curve $-1 -54.769737846003601 0 -14.809543344404887 0 1 0 I I #
point $-1 -54.769737846003601 37.043076852375187 -14.809543344404887 #
straight-curve $-1 54.769737846003601 -37.043076852375187 0 0 0 -1 I I #
End-of-ACIS-data 