500 0 19 0           
7 Unknown 11 ACIS 5.0 NT 24 Fri Mar 26 16:37:29 1999 
-1 9.9999999999999995e-007 1e-010 
body $-1 $19 $-1 $20 #
body $-1 $21 $-1 $22 #
body $-1 $23 $-1 $24 #
body $-1 $25 $-1 $26 #
body $-1 $27 $-1 $28 #
body $-1 $29 $-1 $30 #
body $-1 $31 $-1 $32 #
body $-1 $33 $-1 $34 #
body $-1 $35 $-1 $36 #
body $-1 $37 $-1 $38 #
body $-1 $39 $-1 $40 #
body $-1 $41 $-1 $42 #
body $-1 $43 $-1 $44 #
body $-1 $45 $-1 $46 #
body $-1 $47 $-1 $48 #
body $-1 $49 $-1 $50 #
body $-1 $51 $-1 $52 #
body $-1 $53 $-1 $54 #
body $-1 $55 $-1 $56 #
lump $-1 $-1 $57 $0 #
transform $-1 1 0 0 0 1 0 0 0 1 46.143986327707751 32.251783479592142 7.4900478147115184 1 rotate no_reflect no_shear #
lump $-1 $-1 $58 $1 #
transform $-1 1 0 0 0 1 0 0 0 1 46.143986327707751 32.251783479592142 7.4900478147115184 1 rotate no_reflect no_shear #
lump $-1 $-1 $59 $2 #
transform $-1 1 0 0 0 1 0 0 0 1 46.143986327707751 32.251783479592142 7.4900478147115184 1 rotate no_reflect no_shear #
lump $-1 $-1 $60 $3 #
transform $-1 1 0 0 0 1 0 0 0 1 46.143986327707751 32.251783479592142 7.4900478147115184 1 rotate no_reflect no_shear #
lump $-1 $-1 $61 $4 #
transform $-1 1 0 0 0 1 0 0 0 1 46.143986327707751 32.251783479592142 7.4900478147115184 1 rotate no_reflect no_shear #
lump $-1 $-1 $62 $5 #
transform $-1 1 0 0 0 1 0 0 0 1 46.143986327707751 32.251783479592142 7.4900478147115184 1 rotate no_reflect no_shear #
lump $-1 $-1 $63 $6 #
transform $-1 1 0 0 0 1 0 0 0 1 46.143986327707751 32.251783479592142 7.4900478147115184 1 rotate no_reflect no_shear #
lump $-1 $-1 $64 $7 #
transform $-1 1 0 0 0 1 0 0 0 1 46.143986327707751 32.251783479592142 7.4900478147115184 1 rotate no_reflect no_shear #
lump $-1 $-1 $65 $8 #
transform $-1 1 0 0 0 1 0 0 0 1 46.143986327707751 32.251783479592142 7.4900478147115184 1 rotate no_reflect no_shear #
lump $-1 $-1 $66 $9 #
transform $-1 1 0 0 0 1 0 0 0 1 46.143986327707751 32.251783479592142 7.4900478147115184 1 rotate no_reflect no_shear #
lump $-1 $-1 $67 $10 #
transform $-1 1 0 0 0 1 0 0 0 1 46.143986327707751 32.251783479592142 7.4900478147115184 1 rotate no_reflect no_shear #
lump $-1 $-1 $68 $11 #
transform $-1 1 0 0 0 1 0 0 0 1 46.143986327707751 32.251783479592142 7.4900478147115184 1 rotate no_reflect no_shear #
lump $-1 $-1 $69 $12 #
transform $-1 1 0 0 0 1 0 0 0 1 46.143986327707751 32.251783479592142 7.4900478147115184 1 rotate no_reflect no_shear #
lump $-1 $-1 $70 $13 #
transform $-1 1 0 0 0 1 0 0 0 1 46.143986327707751 32.251783479592142 7.4900478147115184 1 rotate no_reflect no_shear #
lump $-1 $-1 $71 $14 #
transform $-1 1 0 0 0 1 0 0 0 1 46.143986327707751 32.251783479592142 7.4900478147115184 1 rotate no_reflect no_shear #
lump $-1 $-1 $72 $15 #
transform $-1 1 0 0 0 1 0 0 0 1 46.143986327707751 32.251783479592142 7.4900478147115184 1 rotate no_reflect no_shear #
lump $-1 $-1 $73 $16 #
transform $-1 1 0 0 0 1 0 0 0 1 46.143986327707751 32.251783479592142 7.4900478147115184 1 rotate no_reflect no_shear #
lump $-1 $-1 $74 $17 #
transform $-1 1 0 0 0 1 0 0 0 1 46.143986327707751 32.251783479592142 7.4900478147115184 1 rotate no_reflect no_shear #
lump $-1 $-1 $75 $18 #
transform $-1 1 0 0 0 1 0 0 0 1 46.143986327707751 32.251783479592142 7.4900478147115184 1 rotate no_reflect no_shear #
shell $-1 $-1 $-1 $76 $-1 $19 #
shell $-1 $-1 $-1 $77 $-1 $21 #
shell $-1 $-1 $-1 $78 $-1 $23 #
shell $-1 $-1 $-1 $79 $-1 $25 #
shell $-1 $-1 $-1 $80 $-1 $27 #
shell $-1 $-1 $-1 $81 $-1 $29 #
shell $-1 $-1 $-1 $82 $-1 $31 #
shell $-1 $-1 $-1 $83 $-1 $33 #
shell $-1 $-1 $-1 $84 $-1 $35 #
shell $-1 $-1 $-1 $85 $-1 $37 #
shell $-1 $-1 $-1 $86 $-1 $39 #
shell $-1 $-1 $-1 $87 $-1 $41 #
shell $-1 $-1 $-1 $88 $-1 $43 #
shell $-1 $-1 $-1 $89 $-1 $45 #
shell $-1 $-1 $-1 $90 $-1 $47 #
shell $-1 $-1 $-1 $91 $-1 $49 #
shell $-1 $-1 $-1 $92 $-1 $51 #
shell $-1 $-1 $-1 $93 $-1 $53 #
shell $-1 $-1 $-1 $94 $-1 $55 #
face $-1 $95 $96 $57 $-1 $97 forward single #
face $-1 $98 $99 $58 $-1 $100 reversed single #
face $-1 $101 $102 $59 $-1 $103 reversed single #
face $-1 $104 $105 $60 $-1 $106 reversed single #
face $-1 $107 $108 $61 $-1 $109 forward single #
face $-1 $110 $111 $62 $-1 $112 forward single #
face $-1 $113 $114 $63 $-1 $115 forward single #
face $-1 $116 $117 $64 $-1 $118 reversed single #
face $-1 $119 $120 $65 $-1 $121 forward single #
face $-1 $122 $123 $66 $-1 $124 forward single #
face $-1 $125 $126 $67 $-1 $127 forward single #
face $-1 $128 $129 $68 $-1 $130 reversed single #
face $-1 $131 $132 $69 $-1 $133 forward single #
face $-1 $134 $135 $70 $-1 $136 forward single #
face $-1 $137 $138 $71 $-1 $139 forward single #
face $-1 $140 $141 $72 $-1 $142 reversed single #
face $-1 $143 $144 $73 $-1 $145 forward single #
face $-1 $146 $147 $74 $-1 $148 forward single #
face $-1 $149 $150 $75 $-1 $151 forward single #
face $-1 $152 $153 $57 $-1 $154 reversed single #
loop $-1 $-1 $155 $76 #
plane-surface $-1 0 0 7.4900478147115184 0 0 1 1 0 0 forward_v I I I I #
face $-1 $156 $157 $58 $-1 $158 reversed single #
loop $-1 $-1 $159 $77 #
plane-surface $-1 -34.163890698284717 -27.89574932689192 0 1 0 0 0 0 -1 forward_v I I I I #
face $-1 $160 $161 $59 $-1 $162 reversed single #
loop $-1 $-1 $163 $78 #
plane-surface $-1 -32.663890698284717 23.539715174191702 0 0 1 0 0 0 1 forward_v I I I I #
face $-1 $164 $165 $60 $-1 $166 reversed single #
loop $-1 $-1 $167 $79 #
plane-surface $-1 -106.69034479181369 -23.539715174191695 72.704046298910797 0 1 0 -0.6560590369687036 0 0.75470957328743171 forward_v I I I I #
face $-1 $168 $169 $61 $-1 $170 forward single #
loop $-1 $171 $172 $80 #
cone-surface $-1 -42.994754100882382 -22.00894782008978 4.5845551104315545 0.6560590369687036 0 -0.75470957328743171 0.37735478664371586 0 0.3280295184843518 1 I I 0 1 0.5 forward I I I I #
face $-1 $173 $174 $62 $-1 $175 forward single #
loop $-1 $176 $177 $81 #
cone-surface $-1 -42.994754100882382 -19.712796788936899 4.5845551104315545 0.6560590369687036 0 -0.75470957328743171 0.37735478664371586 0 0.3280295184843518 1 I I 0 1 0.5 forward I I I I #
face $-1 $178 $179 $63 $-1 $180 forward single #
loop $-1 $181 $182 $82 #
cone-surface $-1 -42.994754100882382 -17.416645757784025 4.5845551104315545 0.6560590369687036 0 -0.75470957328743171 0.37735478664371586 0 0.3280295184843518 1 I I 0 1 0.5 forward I I I I #
face $-1 $183 $184 $64 $-1 $185 reversed single #
loop $-1 $-1 $186 $83 #
plane-surface $-1 -106.69034479181369 -10.39785064823376 72.704046298910797 0 1 0 -0.6560590369687036 0 0.75470957328743171 forward_v I I I I #
face $-1 $187 $188 $65 $-1 $189 forward single #
loop $-1 $190 $191 $84 #
cone-surface $-1 -42.994754100882382 -8.8670832941318452 4.5845551104315545 0.6560590369687036 0 -0.75470957328743171 0.37735478664371586 0 0.3280295184843518 1 I I 0 1 0.5 forward I I I I #
face $-1 $192 $193 $66 $-1 $194 forward single #
loop $-1 $195 $196 $85 #
cone-surface $-1 -42.994754100882382 -6.5709322629789639 4.5845551104315545 0.6560590369687036 0 -0.75470957328743171 0.37735478664371586 0 0.3280295184843518 1 I I 0 1 0.5 forward I I I I #
face $-1 $197 $198 $67 $-1 $199 forward single #
loop $-1 $200 $201 $86 #
cone-surface $-1 -42.994754100882382 -4.2747812318260898 4.5845551104315545 0.6560590369687036 0 -0.75470957328743171 0.37735478664371586 0 0.3280295184843518 1 I I 0 1 0.5 forward I I I I #
face $-1 $202 $203 $68 $-1 $204 reversed single #
loop $-1 $-1 $205 $87 #
plane-surface $-1 -106.69034479181369 2.744013877724174 72.704046298910797 0 1 0 -0.6560590369687036 0 0.75470957328743171 forward_v I I I I #
face $-1 $206 $207 $69 $-1 $208 forward single #
loop $-1 $209 $210 $88 #
cone-surface $-1 -42.994754100882382 4.2747812318260898 4.5845551104315545 0.6560590369687036 0 -0.75470957328743171 0.37735478664371586 0 0.3280295184843518 1 I I 0 1 0.5 forward I I I I #
face $-1 $211 $212 $70 $-1 $213 forward single #
loop $-1 $214 $215 $89 #
cone-surface $-1 -42.994754100882382 6.570932262978971 4.5845551104315545 0.6560590369687036 0 -0.75470957328743171 0.37735478664371586 0 0.3280295184843518 1 I I 0 1 0.5 forward I I I I #
face $-1 $216 $217 $71 $-1 $218 forward single #
loop $-1 $219 $220 $90 #
cone-surface $-1 -42.994754100882382 8.8670832941318452 4.5845551104315545 0.6560590369687036 0 -0.75470957328743171 0.37735478664371586 0 0.3280295184843518 1 I I 0 1 0.5 forward I I I I #
face $-1 $221 $222 $72 $-1 $223 reversed single #
loop $-1 $-1 $224 $91 #
plane-surface $-1 -106.69034479181369 15.88587840368211 72.704046298910797 0 1 0 -0.6560590369687036 0 0.75470957328743171 forward_v I I I I #
face $-1 $225 $226 $73 $-1 $227 forward single #
loop $-1 $228 $229 $92 #
cone-surface $-1 -42.994754100882382 17.416645757784025 4.5845551104315545 0.6560590369687036 0 -0.75470957328743171 0.37735478664371586 0 0.3280295184843518 1 I I 0 1 0.5 forward I I I I #
face $-1 $230 $231 $74 $-1 $232 forward single #
loop $-1 $233 $234 $93 #
cone-surface $-1 -42.994754100882382 19.712796788936906 4.5845551104315545 0.6560590369687036 0 -0.75470957328743171 0.37735478664371586 0 0.3280295184843518 1 I I 0 1 0.5 forward I I I I #
face $-1 $235 $236 $75 $-1 $237 forward single #
loop $-1 $238 $239 $94 #
cone-surface $-1 -42.994754100882382 22.00894782008978 4.5845551104315545 0.6560590369687036 0 -0.75470957328743171 0.37735478664371586 0 0.3280295184843518 1 I I 0 1 0.5 forward I I I I #
face $-1 $240 $241 $57 $-1 $242 reversed single #
loop $-1 $-1 $243 $95 #
plane-surface $-1 0 0 -7.4900478147115184 0 0 1 1 0 0 forward_v I I I I #
coedge $-1 $244 $245 $246 $247 forward $96 $-1 #
face $-1 $248 $249 $58 $-1 $250 reversed single #
loop $-1 $-1 $251 $98 #
plane-surface $-1 -32.663890698284717 -23.539715174191699 0 0 -1 0 0 0 -1 forward_v I I I I #
coedge $-1 $252 $253 $254 $255 forward $99 $-1 #
face $-1 $256 $257 $59 $-1 $258 reversed single #
loop $-1 $-1 $259 $101 #
plane-surface $-1 -34.163890698284717 27.895749326891924 0 1 0 0 0 0 -1 forward_v I I I I #
coedge $-1 $260 $261 $262 $263 forward $102 $-1 #
face $-1 $264 $265 $60 $-1 $266 reversed single #
loop $-1 $-1 $267 $104 #
plane-surface $-1 -46.143986327707744 -19.712796788936899 3.0534298365799941 -0.6560590369687036 0 0.75470957328743171 0.75470957328743171 0 0.6560590369687036 forward_v I I I I #
coedge $-1 $268 $269 $270 $271 reversed $105 $-1 #
face $-1 $-1 $272 $61 $-1 $273 forward single #
loop $-1 $274 $275 $107 #
cone-surface $-1 -42.233379638807463 -22.00894782008978 3.7086940018954913 0.6560590369687036 0 -0.75470957328743171 0.18867739332185793 0 0.1640147592421759 1 I I -0.70710678118654746 0.70710678118654746 0.25 forward I I I I #
loop $-1 $-1 $276 $80 #
coedge $-1 $172 $172 $277 $278 reversed $108 $-1 #
face $-1 $-1 $279 $62 $-1 $280 forward single #
loop $-1 $281 $282 $110 #
cone-surface $-1 -42.233379638807463 -19.712796788936899 3.7086940018954913 0.6560590369687036 0 -0.75470957328743171 0.18867739332185793 0 0.1640147592421759 1 I I -0.70710678118654746 0.70710678118654746 0.25 forward I I I I #
loop $-1 $-1 $283 $81 #
coedge $-1 $177 $177 $284 $285 reversed $111 $-1 #
face $-1 $-1 $286 $63 $-1 $287 forward single #
loop $-1 $288 $289 $113 #
cone-surface $-1 -42.233379638807463 -17.416645757784025 3.7086940018954913 0.6560590369687036 0 -0.75470957328743171 0.18867739332185793 0 0.1640147592421759 1 I I -0.70710678118654746 0.70710678118654746 0.25 forward I I I I #
loop $-1 $-1 $290 $82 #
coedge $-1 $182 $182 $291 $292 reversed $114 $-1 #
face $-1 $293 $294 $64 $-1 $295 reversed single #
loop $-1 $-1 $296 $116 #
plane-surface $-1 -46.143986327707744 -6.5709322629789639 3.0534298365799941 -0.6560590369687036 0 0.75470957328743171 0.75470957328743171 0 0.6560590369687036 forward_v I I I I #
coedge $-1 $297 $298 $299 $300 reversed $117 $-1 #
face $-1 $-1 $301 $65 $-1 $302 forward single #
loop $-1 $303 $304 $119 #
cone-surface $-1 -42.233379638807463 -8.8670832941318452 3.7086940018954913 0.6560590369687036 0 -0.75470957328743171 0.18867739332185793 0 0.1640147592421759 1 I I -0.70710678118654746 0.70710678118654746 0.25 forward I I I I #
loop $-1 $-1 $305 $84 #
coedge $-1 $191 $191 $306 $307 reversed $120 $-1 #
face $-1 $-1 $308 $66 $-1 $309 forward single #
loop $-1 $310 $311 $122 #
cone-surface $-1 -42.233379638807463 -6.5709322629789639 3.7086940018954913 0.6560590369687036 0 -0.75470957328743171 0.18867739332185793 0 0.1640147592421759 1 I I -0.70710678118654746 0.70710678118654746 0.25 forward I I I I #
loop $-1 $-1 $312 $85 #
coedge $-1 $196 $196 $313 $314 reversed $123 $-1 #
face $-1 $-1 $315 $67 $-1 $316 forward single #
loop $-1 $317 $318 $125 #
cone-surface $-1 -42.233379638807463 -4.2747812318260898 3.7086940018954913 0.6560590369687036 0 -0.75470957328743171 0.18867739332185793 0 0.1640147592421759 1 I I -0.70710678118654746 0.70710678118654746 0.25 forward I I I I #
loop $-1 $-1 $319 $86 #
coedge $-1 $201 $201 $320 $321 reversed $126 $-1 #
face $-1 $322 $323 $68 $-1 $324 reversed single #
loop $-1 $-1 $325 $128 #
plane-surface $-1 -46.143986327707744 6.570932262978971 3.0534298365799941 -0.6560590369687036 0 0.75470957328743171 0.75470957328743171 0 0.6560590369687036 forward_v I I I I #
coedge $-1 $326 $327 $328 $329 reversed $129 $-1 #
face $-1 $-1 $330 $69 $-1 $331 forward single #
loop $-1 $332 $333 $131 #
cone-surface $-1 -42.233379638807463 4.2747812318260898 3.7086940018954913 0.6560590369687036 0 -0.75470957328743171 0.18867739332185793 0 0.1640147592421759 1 I I -0.70710678118654746 0.70710678118654746 0.25 forward I I I I #
loop $-1 $-1 $334 $88 #
coedge $-1 $210 $210 $335 $336 reversed $132 $-1 #
face $-1 $-1 $337 $70 $-1 $338 forward single #
loop $-1 $339 $340 $134 #
cone-surface $-1 -42.233379638807463 6.570932262978971 3.7086940018954913 0.6560590369687036 0 -0.75470957328743171 0.18867739332185793 0 0.1640147592421759 1 I I -0.70710678118654746 0.70710678118654746 0.25 forward I I I I #
loop $-1 $-1 $341 $89 #
coedge $-1 $215 $215 $342 $343 reversed $135 $-1 #
face $-1 $-1 $344 $71 $-1 $345 forward single #
loop $-1 $346 $347 $137 #
cone-surface $-1 -42.233379638807463 8.8670832941318452 3.7086940018954913 0.6560590369687036 0 -0.75470957328743171 0.18867739332185793 0 0.1640147592421759 1 I I -0.70710678118654746 0.70710678118654746 0.25 forward I I I I #
loop $-1 $-1 $348 $90 #
coedge $-1 $220 $220 $349 $350 reversed $138 $-1 #
face $-1 $351 $352 $72 $-1 $353 reversed single #
loop $-1 $-1 $354 $140 #
plane-surface $-1 -46.143986327707744 19.712796788936906 3.0534298365799941 -0.6560590369687036 0 0.75470957328743171 0.75470957328743171 0 0.6560590369687036 forward_v I I I I #
coedge $-1 $355 $356 $357 $358 reversed $141 $-1 #
face $-1 $-1 $359 $73 $-1 $360 forward single #
loop $-1 $361 $362 $143 #
cone-surface $-1 -42.233379638807463 17.416645757784025 3.7086940018954913 0.6560590369687036 0 -0.75470957328743171 0.18867739332185793 0 0.1640147592421759 1 I I -0.70710678118654746 0.70710678118654746 0.25 forward I I I I #
loop $-1 $-1 $363 $92 #
coedge $-1 $229 $229 $364 $365 reversed $144 $-1 #
face $-1 $-1 $366 $74 $-1 $367 forward single #
loop $-1 $368 $369 $146 #
cone-surface $-1 -42.233379638807463 19.712796788936906 3.7086940018954913 0.6560590369687036 0 -0.75470957328743171 0.18867739332185793 0 0.1640147592421759 1 I I -0.70710678118654746 0.70710678118654746 0.25 forward I I I I #
loop $-1 $-1 $370 $93 #
coedge $-1 $234 $234 $371 $372 reversed $147 $-1 #
face $-1 $-1 $373 $75 $-1 $374 forward single #
loop $-1 $375 $376 $149 #
cone-surface $-1 -42.233379638807463 22.00894782008978 3.7086940018954913 0.6560590369687036 0 -0.75470957328743171 0.18867739332185793 0 0.1640147592421759 1 I I -0.70710678118654746 0.70710678118654746 0.25 forward I I I I #
loop $-1 $-1 $377 $94 #
coedge $-1 $239 $239 $378 $379 reversed $150 $-1 #
face $-1 $380 $381 $57 $-1 $382 reversed single #
loop $-1 $-1 $383 $152 #
plane-surface $-1 0 -32.251783479592142 0 0 1 0 0 0 1 forward_v I I I I #
coedge $-1 $384 $385 $386 $387 forward $153 $-1 #
coedge $-1 $388 $155 $389 $390 forward $96 $-1 #
coedge $-1 $155 $388 $391 $392 forward $96 $-1 #
coedge $-1 $393 $394 $155 $247 reversed $395 $-1 #
edge $-1 $396 -32.251783479592142 $397 32.251783479592142 $246 $398 forward 7 unknown #
face $-1 $399 $400 $58 $-1 $401 forward single #
loop $-1 $-1 $402 $156 #
plane-surface $-1 -31.163890698284717 -27.89574932689192 0 -1 0 0 0 0 1 forward_v I I I I #
coedge $-1 $403 $404 $405 $406 forward $157 $-1 #
coedge $-1 $407 $159 $408 $409 reversed $99 $-1 #
coedge $-1 $159 $407 $410 $411 reversed $99 $-1 #
coedge $-1 $404 $403 $159 $255 reversed $157 $-1 #
edge $-1 $412 -7.4900478147115184 $413 7.4900478147115184 $254 $414 forward 7 unknown #
face $-1 $415 $416 $59 $-1 $417 reversed single #
loop $-1 $-1 $418 $160 #
plane-surface $-1 -31.163890698284717 27.895749326891924 0 -1 0 0 0 0 1 forward_v I I I I #
coedge $-1 $419 $420 $421 $422 reversed $161 $-1 #
coedge $-1 $423 $163 $424 $425 reversed $102 $-1 #
coedge $-1 $163 $423 $426 $427 reversed $102 $-1 #
coedge $-1 $420 $419 $163 $263 reversed $161 $-1 #
edge $-1 $428 -7.4900478147115184 $429 7.4900478147115184 $262 $430 forward 7 unknown #
face $-1 $431 $432 $60 $-1 $433 reversed single #
loop $-1 $-1 $434 $164 #
plane-surface $-1 -106.69034479181369 -15.885878403682103 72.704046298910797 0 -1 0 0.6560590369687036 0 -0.75470957328743171 forward_v I I I I #
coedge $-1 $435 $436 $437 $438 reversed $165 $-1 #
coedge $-1 $269 $167 $439 $440 reversed $105 $-1 #
coedge $-1 $167 $268 $435 $441 reversed $105 $-1 #
coedge $-1 $437 $442 $167 $271 forward $443 $-1 #
edge $-1 $444 7.2011860681990925 $445 12.304931116184349 $270 $446 forward 7 unknown #
loop $-1 $-1 $277 $168 #
plane-surface $-1 -46.143986327707744 -19.712796788936899 3.0534298365799941 -0.6560590369687036 0 0.75470957328743171 0.75470957328743171 0 0.6560590369687036 forward_v I I I I #
loop $-1 $-1 $447 $107 #
coedge $-1 $275 $275 $276 $448 reversed $169 $-1 #
coedge $-1 $276 $276 $275 $448 forward $171 $-1 #
coedge $-1 $277 $277 $172 $278 forward $272 $-1 #
edge $-1 $449 0 $449 6.2831853071796004 $277 $450 forward 7 unknown #
loop $-1 $-1 $284 $173 #
plane-surface $-1 -46.143986327707744 -19.712796788936899 3.0534298365799941 -0.6560590369687036 0 0.75470957328743171 0.75470957328743171 0 0.6560590369687036 forward_v I I I I #
loop $-1 $-1 $451 $110 #
coedge $-1 $282 $282 $283 $452 reversed $174 $-1 #
coedge $-1 $283 $283 $282 $452 forward $176 $-1 #
coedge $-1 $284 $284 $177 $285 forward $279 $-1 #
edge $-1 $453 0 $453 6.2831853071796004 $284 $454 forward 7 unknown #
loop $-1 $-1 $291 $178 #
plane-surface $-1 -46.143986327707744 -19.712796788936899 3.0534298365799941 -0.6560590369687036 0 0.75470957328743171 0.75470957328743171 0 0.6560590369687036 forward_v I I I I #
loop $-1 $-1 $455 $113 #
coedge $-1 $289 $289 $290 $456 reversed $179 $-1 #
coedge $-1 $290 $290 $289 $456 forward $181 $-1 #
coedge $-1 $291 $291 $182 $292 forward $286 $-1 #
edge $-1 $457 0 $457 6.2831853071796004 $291 $458 forward 7 unknown #
face $-1 $459 $460 $64 $-1 $461 forward single #
loop $-1 $-1 $462 $183 #
plane-surface $-1 -106.69034479181369 -2.7440138777241669 72.704046298910797 0 -1 0 0.6560590369687036 0 -0.75470957328743171 forward_v I I I I #
coedge $-1 $463 $464 $465 $466 reversed $184 $-1 #
coedge $-1 $298 $186 $467 $468 reversed $117 $-1 #
coedge $-1 $186 $297 $463 $469 reversed $117 $-1 #
coedge $-1 $465 $470 $186 $300 forward $460 $-1 #
edge $-1 $471 7.2011860681990925 $472 12.304931116184349 $299 $473 forward 7 unknown #
loop $-1 $-1 $306 $187 #
plane-surface $-1 -46.143986327707744 -6.5709322629789639 3.0534298365799941 -0.6560590369687036 0 0.75470957328743171 0.75470957328743171 0 0.6560590369687036 forward_v I I I I #
loop $-1 $-1 $474 $119 #
coedge $-1 $304 $304 $305 $475 reversed $188 $-1 #
coedge $-1 $305 $305 $304 $475 forward $190 $-1 #
coedge $-1 $306 $306 $191 $307 forward $301 $-1 #
edge $-1 $476 0 $476 6.2831853071796004 $306 $477 forward 7 unknown #
loop $-1 $-1 $313 $192 #
plane-surface $-1 -46.143986327707744 -6.5709322629789639 3.0534298365799941 -0.6560590369687036 0 0.75470957328743171 0.75470957328743171 0 0.6560590369687036 forward_v I I I I #
loop $-1 $-1 $478 $122 #
coedge $-1 $311 $311 $312 $479 reversed $193 $-1 #
coedge $-1 $312 $312 $311 $479 forward $195 $-1 #
coedge $-1 $313 $313 $196 $314 forward $308 $-1 #
edge $-1 $480 0 $480 6.2831853071796004 $313 $481 forward 7 unknown #
loop $-1 $-1 $320 $197 #
plane-surface $-1 -46.143986327707744 -6.5709322629789639 3.0534298365799941 -0.6560590369687036 0 0.75470957328743171 0.75470957328743171 0 0.6560590369687036 forward_v I I I I #
loop $-1 $-1 $482 $125 #
coedge $-1 $318 $318 $319 $483 reversed $198 $-1 #
coedge $-1 $319 $319 $318 $483 forward $200 $-1 #
coedge $-1 $320 $320 $201 $321 forward $315 $-1 #
edge $-1 $484 0 $484 6.2831853071796004 $320 $485 forward 7 unknown #
face $-1 $486 $487 $68 $-1 $488 forward single #
loop $-1 $-1 $489 $202 #
plane-surface $-1 -106.69034479181369 10.397850648233767 72.704046298910797 0 -1 0 0.6560590369687036 0 -0.75470957328743171 forward_v I I I I #
coedge $-1 $490 $491 $492 $493 reversed $203 $-1 #
coedge $-1 $327 $205 $494 $495 reversed $129 $-1 #
coedge $-1 $205 $326 $490 $496 reversed $129 $-1 #
coedge $-1 $492 $497 $205 $329 forward $487 $-1 #
edge $-1 $498 7.2011860681990925 $499 12.304931116184349 $328 $500 forward 7 unknown #
loop $-1 $-1 $335 $206 #
plane-surface $-1 -46.143986327707744 6.570932262978971 3.0534298365799941 -0.6560590369687036 0 0.75470957328743171 0.75470957328743171 0 0.6560590369687036 forward_v I I I I #
loop $-1 $-1 $501 $131 #
coedge $-1 $333 $333 $334 $502 reversed $207 $-1 #
coedge $-1 $334 $334 $333 $502 forward $209 $-1 #
coedge $-1 $335 $335 $210 $336 forward $330 $-1 #
edge $-1 $503 0 $503 6.2831853071796004 $335 $504 forward 7 unknown #
loop $-1 $-1 $342 $211 #
plane-surface $-1 -46.143986327707744 6.570932262978971 3.0534298365799941 -0.6560590369687036 0 0.75470957328743171 0.75470957328743171 0 0.6560590369687036 forward_v I I I I #
loop $-1 $-1 $505 $134 #
coedge $-1 $340 $340 $341 $506 reversed $212 $-1 #
coedge $-1 $341 $341 $340 $506 forward $214 $-1 #
coedge $-1 $342 $342 $215 $343 forward $337 $-1 #
edge $-1 $507 0 $507 6.2831853071796004 $342 $508 forward 7 unknown #
loop $-1 $-1 $349 $216 #
plane-surface $-1 -46.143986327707744 6.570932262978971 3.0534298365799941 -0.6560590369687036 0 0.75470957328743171 0.75470957328743171 0 0.6560590369687036 forward_v I I I I #
loop $-1 $-1 $509 $137 #
coedge $-1 $347 $347 $348 $510 reversed $217 $-1 #
coedge $-1 $348 $348 $347 $510 forward $219 $-1 #
coedge $-1 $349 $349 $220 $350 forward $344 $-1 #
edge $-1 $511 0 $511 6.2831853071796004 $349 $512 forward 7 unknown #
face $-1 $513 $514 $72 $-1 $515 forward single #
loop $-1 $-1 $516 $221 #
plane-surface $-1 -106.69034479181369 23.539715174191702 72.704046298910797 0 -1 0 0.6560590369687036 0 -0.75470957328743171 forward_v I I I I #
coedge $-1 $517 $518 $519 $520 reversed $222 $-1 #
coedge $-1 $356 $224 $521 $522 reversed $141 $-1 #
coedge $-1 $224 $355 $517 $523 reversed $141 $-1 #
coedge $-1 $519 $524 $224 $358 forward $514 $-1 #
edge $-1 $525 7.2011860681990925 $526 12.304931116184349 $357 $527 forward 7 unknown #
loop $-1 $-1 $364 $225 #
plane-surface $-1 -46.143986327707744 19.712796788936906 3.0534298365799941 -0.6560590369687036 0 0.75470957328743171 0.75470957328743171 0 0.6560590369687036 forward_v I I I I #
loop $-1 $-1 $528 $143 #
coedge $-1 $362 $362 $363 $529 reversed $226 $-1 #
coedge $-1 $363 $363 $362 $529 forward $228 $-1 #
coedge $-1 $364 $364 $229 $365 forward $359 $-1 #
edge $-1 $530 0 $530 6.2831853071796004 $364 $531 forward 7 unknown #
loop $-1 $-1 $371 $230 #
plane-surface $-1 -46.143986327707744 19.712796788936906 3.0534298365799941 -0.6560590369687036 0 0.75470957328743171 0.75470957328743171 0 0.6560590369687036 forward_v I I I I #
loop $-1 $-1 $532 $146 #
coedge $-1 $369 $369 $370 $533 reversed $231 $-1 #
coedge $-1 $370 $370 $369 $533 forward $233 $-1 #
coedge $-1 $371 $371 $234 $372 forward $366 $-1 #
edge $-1 $534 0 $534 6.2831853071796004 $371 $535 forward 7 unknown #
loop $-1 $-1 $378 $235 #
plane-surface $-1 -46.143986327707744 19.712796788936906 3.0534298365799941 -0.6560590369687036 0 0.75470957328743171 0.75470957328743171 0 0.6560590369687036 forward_v I I I I #
loop $-1 $-1 $536 $149 #
coedge $-1 $376 $376 $377 $537 reversed $236 $-1 #
coedge $-1 $377 $377 $376 $537 forward $238 $-1 #
coedge $-1 $378 $378 $239 $379 forward $373 $-1 #
edge $-1 $538 0 $538 6.2831853071796004 $378 $539 forward 7 unknown #
face $-1 $540 $541 $57 $-1 $542 reversed single #
loop $-1 $-1 $543 $240 #
plane-surface $-1 -46.143986327707751 0 0 1 0 0 0 0 -1 forward_v I I I I #
coedge $-1 $544 $391 $545 $546 forward $241 $-1 #
coedge $-1 $547 $243 $544 $548 forward $153 $-1 #
coedge $-1 $243 $547 $549 $550 forward $153 $-1 #
coedge $-1 $394 $393 $243 $387 reversed $395 $-1 #
edge $-1 $551 -32.251783479592142 $552 32.251783479592142 $386 $553 forward 7 unknown #
coedge $-1 $245 $244 $554 $555 forward $96 $-1 #
coedge $-1 $556 $557 $244 $390 reversed $541 $-1 #
edge $-1 $397 -46.143986327707751 $558 46.143986327707751 $389 $559 forward 7 unknown #
coedge $-1 $383 $560 $245 $392 reversed $241 $-1 #
edge $-1 $561 -46.143986327707751 $396 46.143986327707751 $391 $562 forward 7 unknown #
coedge $-1 $386 $246 $560 $563 forward $395 $-1 #
coedge $-1 $246 $386 $556 $564 reversed $395 $-1 #
loop $-1 $-1 $393 $540 #
vertex $-1 $247 $565 #
vertex $-1 $247 $566 #
straight-curve $-1 46.143986327707751 0 7.4900478147115184 0 1 0 I I #
face $-1 $567 $568 $58 $-1 $569 reversed single #
loop $-1 $-1 $570 $248 #
plane-surface $-1 0 0 7.4900478147115184 0 0 1 1 0 0 forward_v I I I I #
coedge $-1 $571 $572 $573 $574 reversed $249 $-1 #
coedge $-1 $254 $251 $575 $576 reversed $157 $-1 #
coedge $-1 $251 $254 $577 $578 reversed $157 $-1 #
coedge $-1 $572 $571 $251 $406 reversed $249 $-1 #
edge $-1 $579 -7.4900478147115184 $580 7.4900478147115184 $405 $581 forward 7 unknown #
coedge $-1 $253 $252 $582 $583 reversed $99 $-1 #
coedge $-1 $575 $584 $252 $409 forward $568 $-1 #
edge $-1 $585 -18.303908816146183 $413 -9.5918405107457385 $408 $586 forward 7 unknown #
coedge $-1 $587 $577 $253 $411 forward $400 $-1 #
edge $-1 $412 9.5918405107457385 $588 18.303908816146183 $410 $589 forward 7 unknown #
vertex $-1 $411 $590 #
vertex $-1 $409 $591 #
straight-curve $-1 -34.163890698284717 -23.539715174191699 0 0 0 -1 I I #
face $-1 $592 $593 $59 $-1 $594 forward single #
loop $-1 $-1 $595 $256 #
plane-surface $-1 0 0 -7.4900478147115184 0 0 1 1 0 0 forward_v I I I I #
coedge $-1 $596 $597 $423 $598 forward $257 $-1 #
coedge $-1 $262 $259 $599 $600 reversed $161 $-1 #
coedge $-1 $259 $262 $601 $602 reversed $161 $-1 #
coedge $-1 $603 $604 $259 $422 forward $605 $-1 #
edge $-1 $606 -7.4900478147115184 $607 7.4900478147115184 $421 $608 forward 7 unknown #
coedge $-1 $261 $260 $418 $598 reversed $102 $-1 #
coedge $-1 $599 $595 $260 $425 forward $416 $-1 #
edge $-1 $609 14.831945349142359 $429 17.831945349142359 $424 $610 forward 7 unknown #
coedge $-1 $611 $601 $261 $427 forward $593 $-1 #
edge $-1 $428 -17.831945349142359 $612 -14.831945349142359 $426 $613 forward 7 unknown #
vertex $-1 $427 $614 #
vertex $-1 $425 $615 #
straight-curve $-1 -34.163890698284717 23.539715174191702 0 0 0 -1 I I #
face $-1 $-1 $443 $60 $-1 $616 forward single #
loop $-1 $-1 $617 $264 #
plane-surface $-1 -46.143986327707751 0 0 1 0 0 0 0 -1 forward_v I I I I #
coedge $-1 $618 $619 $620 $621 reversed $265 $-1 #
coedge $-1 $622 $267 $269 $441 forward $165 $-1 #
coedge $-1 $267 $622 $618 $623 forward $165 $-1 #
coedge $-1 $620 $270 $267 $438 forward $443 $-1 #
edge $-1 $445 -13.683316779723246 $624 -6.0294800092136533 $437 $625 forward 7 unknown #
coedge $-1 $626 $627 $268 $440 forward $432 $-1 #
edge $-1 $628 -33.298593312875411 $444 -28.861975334743882 $439 $629 forward 7 unknown #
edge $-1 $445 -6.7625285654637945 $628 9.44141639987384e-015 $269 $630 forward 7 unknown #
coedge $-1 $270 $620 $626 $631 forward $443 $-1 #
loop $-1 $-1 $620 $431 #
vertex $-1 $440 $632 #
vertex $-1 $271 $633 #
straight-curve $-1 -53.345172395906843 -23.539715174191695 7.4900478147115166 1 0 0 I I #
coedge $-1 $447 $447 $-1 $634 reversed $274 $-1 #
edge $-1 $635 0 $635 6.2831853071796004 $275 $636 forward 7 unknown #
vertex $-1 $278 $637 #
ellipse-curve $-1 -43.592113803715122 -22.00894782008978 5.2717388256457554 -0.6560590369687036 0 0.75470957328743171 0.37735478664371586 0 0.3280295184843518 1 I I #
coedge $-1 $451 $451 $-1 $638 reversed $281 $-1 #
edge $-1 $639 0 $639 6.2831853071796004 $282 $640 forward 7 unknown #
vertex $-1 $285 $641 #
ellipse-curve $-1 -43.592113803715122 -19.712796788936899 5.2717388256457554 -0.6560590369687036 0 0.75470957328743171 0.37735478664371586 0 0.3280295184843518 1 I I #
coedge $-1 $455 $455 $-1 $642 reversed $288 $-1 #
edge $-1 $643 0 $643 6.2831853071796004 $289 $644 forward 7 unknown #
vertex $-1 $292 $645 #
ellipse-curve $-1 -43.592113803715122 -17.416645757784025 5.2717388256457554 -0.6560590369687036 0 0.75470957328743171 0.37735478664371586 0 0.3280295184843518 1 I I #
face $-1 $-1 $646 $64 $-1 $647 reversed single #
loop $-1 $-1 $299 $293 #
plane-surface $-1 0 0 7.4900478147115184 0 0 1 1 0 0 forward_v I I I I #
coedge $-1 $648 $649 $650 $651 reversed $294 $-1 #
coedge $-1 $652 $296 $298 $469 forward $184 $-1 #
coedge $-1 $296 $652 $648 $653 forward $184 $-1 #
coedge $-1 $650 $299 $296 $466 forward $460 $-1 #
edge $-1 $472 -7.1123845167442781 $654 0.54145225376531503 $465 $655 forward 7 unknown #
coedge $-1 $656 $657 $297 $468 forward $646 $-1 #
edge $-1 $658 -33.298593312875411 $471 -28.861975334743882 $467 $659 forward 7 unknown #
edge $-1 $472 -6.7625285654637945 $658 9.44141639987384e-015 $298 $660 forward 7 unknown #
coedge $-1 $299 $650 $656 $661 forward $460 $-1 #
vertex $-1 $468 $662 #
vertex $-1 $300 $663 #
straight-curve $-1 -53.345172395906843 -10.39785064823376 7.4900478147115166 1 0 0 I I #
coedge $-1 $474 $474 $-1 $664 reversed $303 $-1 #
edge $-1 $665 0 $665 6.2831853071796004 $304 $666 forward 7 unknown #
vertex $-1 $307 $667 #
ellipse-curve $-1 -43.592113803715122 -8.8670832941318452 5.2717388256457554 -0.6560590369687036 0 0.75470957328743171 0.37735478664371586 0 0.3280295184843518 1 I I #
coedge $-1 $478 $478 $-1 $668 reversed $310 $-1 #
edge $-1 $669 0 $669 6.2831853071796004 $311 $670 forward 7 unknown #
vertex $-1 $314 $671 #
ellipse-curve $-1 -43.592113803715122 -6.5709322629789639 5.2717388256457554 -0.6560590369687036 0 0.75470957328743171 0.37735478664371586 0 0.3280295184843518 1 I I #
coedge $-1 $482 $482 $-1 $672 reversed $317 $-1 #
edge $-1 $673 0 $673 6.2831853071796004 $318 $674 forward 7 unknown #
vertex $-1 $321 $675 #
ellipse-curve $-1 -43.592113803715122 -4.2747812318260898 5.2717388256457554 -0.6560590369687036 0 0.75470957328743171 0.37735478664371586 0 0.3280295184843518 1 I I #
face $-1 $-1 $676 $68 $-1 $677 reversed single #
loop $-1 $-1 $328 $322 #
plane-surface $-1 0 0 7.4900478147115184 0 0 1 1 0 0 forward_v I I I I #
coedge $-1 $678 $679 $680 $681 reversed $323 $-1 #
coedge $-1 $682 $325 $327 $496 forward $203 $-1 #
coedge $-1 $325 $682 $678 $683 forward $203 $-1 #
coedge $-1 $680 $328 $325 $493 forward $487 $-1 #
edge $-1 $499 -0.54145225376531148 $684 7.1123845167442816 $492 $685 forward 7 unknown #
coedge $-1 $686 $687 $326 $495 forward $676 $-1 #
edge $-1 $688 -33.298593312875411 $498 -28.861975334743882 $494 $689 forward 7 unknown #
edge $-1 $499 -6.7625285654637945 $688 9.44141639987384e-015 $327 $690 forward 7 unknown #
coedge $-1 $328 $680 $686 $691 forward $487 $-1 #
vertex $-1 $329 $692 #
vertex $-1 $329 $693 #
straight-curve $-1 -53.345172395906843 2.744013877724174 7.4900478147115166 1 0 0 I I #
coedge $-1 $501 $501 $-1 $694 reversed $332 $-1 #
edge $-1 $695 0 $695 6.2831853071796004 $333 $696 forward 7 unknown #
vertex $-1 $336 $697 #
ellipse-curve $-1 -43.592113803715122 4.2747812318260898 5.2717388256457554 -0.6560590369687036 0 0.75470957328743171 0.37735478664371586 0 0.3280295184843518 1 I I #
coedge $-1 $505 $505 $-1 $698 reversed $339 $-1 #
edge $-1 $699 0 $699 6.2831853071796004 $340 $700 forward 7 unknown #
vertex $-1 $343 $701 #
ellipse-curve $-1 -43.592113803715122 6.570932262978971 5.2717388256457554 -0.6560590369687036 0 0.75470957328743171 0.37735478664371586 0 0.3280295184843518 1 I I #
coedge $-1 $509 $509 $-1 $702 reversed $346 $-1 #
edge $-1 $703 0 $703 6.2831853071796004 $347 $704 forward 7 unknown #
vertex $-1 $350 $705 #
ellipse-curve $-1 -43.592113803715122 8.8670832941318452 5.2717388256457554 -0.6560590369687036 0 0.75470957328743171 0.37735478664371586 0 0.3280295184843518 1 I I #
face $-1 $-1 $706 $72 $-1 $707 reversed single #
loop $-1 $-1 $357 $351 #
plane-surface $-1 0 0 7.4900478147115184 0 0 1 1 0 0 forward_v I I I I #
coedge $-1 $708 $709 $710 $711 reversed $352 $-1 #
coedge $-1 $712 $354 $356 $523 forward $222 $-1 #
coedge $-1 $354 $712 $708 $713 forward $222 $-1 #
coedge $-1 $710 $357 $354 $520 forward $514 $-1 #
edge $-1 $526 6.0294800092136569 $714 13.683316779723249 $519 $715 forward 7 unknown #
coedge $-1 $716 $717 $355 $522 forward $706 $-1 #
edge $-1 $718 -33.298593312875411 $525 -28.861975334743882 $521 $719 forward 7 unknown #
edge $-1 $526 -6.7625285654637945 $718 9.44141639987384e-015 $356 $720 forward 7 unknown #
coedge $-1 $357 $710 $716 $721 forward $514 $-1 #
vertex $-1 $358 $722 #
vertex $-1 $358 $723 #
straight-curve $-1 -53.345172395906843 15.88587840368211 7.4900478147115166 1 0 0 I I #
coedge $-1 $528 $528 $-1 $724 reversed $361 $-1 #
edge $-1 $725 0 $725 6.2831853071796004 $362 $726 forward 7 unknown #
vertex $-1 $365 $727 #
ellipse-curve $-1 -43.592113803715122 17.416645757784025 5.2717388256457554 -0.6560590369687036 0 0.75470957328743171 0.37735478664371586 0 0.3280295184843518 1 I I #
coedge $-1 $532 $532 $-1 $728 reversed $368 $-1 #
edge $-1 $729 0 $729 6.2831853071796004 $369 $730 forward 7 unknown #
vertex $-1 $372 $731 #
ellipse-curve $-1 -43.592113803715122 19.712796788936906 5.2717388256457554 -0.6560590369687036 0 0.75470957328743171 0.37735478664371586 0 0.3280295184843518 1 I I #
coedge $-1 $536 $536 $-1 $732 reversed $375 $-1 #
edge $-1 $733 0 $733 6.2831853071796004 $376 $734 forward 7 unknown #
vertex $-1 $379 $735 #
ellipse-curve $-1 -43.592113803715122 22.00894782008978 5.2717388256457554 -0.6560590369687036 0 0.75470957328743171 0.37735478664371586 0 0.3280295184843518 1 I I #
face $-1 $-1 $395 $57 $-1 $736 reversed single #
loop $-1 $-1 $556 $380 #
plane-surface $-1 0 32.251783479592142 0 0 -1 0 0 0 -1 forward_v I I I I #
coedge $-1 $737 $554 $557 $738 forward $381 $-1 #
coedge $-1 $560 $383 $384 $548 reversed $241 $-1 #
coedge $-1 $554 $737 $383 $546 reversed $381 $-1 #
edge $-1 $561 -7.4900478147115184 $739 7.4900478147115184 $545 $740 forward 7 unknown #
coedge $-1 $385 $384 $737 $741 forward $153 $-1 #
edge $-1 $552 -46.143986327707751 $739 46.143986327707751 $544 $742 forward 7 unknown #
coedge $-1 $557 $556 $385 $550 reversed $541 $-1 #
edge $-1 $743 -46.143986327707751 $551 46.143986327707751 $549 $744 forward 7 unknown #
vertex $-1 $387 $745 #
vertex $-1 $563 $746 #
straight-curve $-1 46.143986327707751 0 -7.4900478147115184 0 -1 0 I I #
coedge $-1 $543 $545 $388 $555 reversed $381 $-1 #
edge $-1 $558 -32.251783479592142 $561 32.251783479592142 $554 $747 forward 7 unknown #
coedge $-1 $549 $389 $394 $564 forward $541 $-1 #
coedge $-1 $389 $549 $543 $738 reversed $541 $-1 #
vertex $-1 $390 $748 #
straight-curve $-1 0 32.251783479592142 7.4900478147115184 -1 0 0 I I #
coedge $-1 $391 $544 $393 $563 reversed $241 $-1 #
vertex $-1 $555 $749 #
straight-curve $-1 0 -32.251783479592142 7.4900478147115184 1 0 0 I I #
edge $-1 $396 -7.4900478147115184 $552 7.4900478147115184 $393 $750 forward 7 unknown #
edge $-1 $397 -7.4900478147115184 $551 7.4900478147115184 $394 $751 forward 7 unknown #
point $-1 46.143986327707751 -32.251783479592142 7.4900478147115184 #
point $-1 46.143986327707751 32.251783479592142 7.4900478147115184 #
face $-1 $-1 $752 $58 $-1 $753 reversed single #
loop $-1 $-1 $754 $399 #
plane-surface $-1 0 0 -7.4900478147115184 0 0 1 1 0 0 forward_v I I I I #
coedge $-1 $577 $587 $572 $755 forward $400 $-1 #
coedge $-1 $405 $402 $754 $756 reversed $249 $-1 #
coedge $-1 $402 $405 $570 $755 reversed $249 $-1 #
coedge $-1 $757 $758 $402 $574 forward $752 $-1 #
edge $-1 $759 -7.4900478147115184 $760 7.4900478147115184 $573 $761 forward 7 unknown #
coedge $-1 $754 $408 $403 $576 forward $568 $-1 #
edge $-1 $413 -17.831945349142359 $580 -14.831945349142359 $575 $762 forward 7 unknown #
coedge $-1 $410 $570 $404 $578 forward $400 $-1 #
edge $-1 $579 14.831945349142359 $412 17.831945349142359 $577 $763 forward 7 unknown #
vertex $-1 $578 $764 #
vertex $-1 $576 $765 #
straight-curve $-1 -31.163890698284717 -23.539715174191699 0 0 0 -1 I I #
coedge $-1 $758 $757 $407 $583 forward $752 $-1 #
edge $-1 $588 -7.4900478147115184 $585 7.4900478147115184 $582 $766 forward 7 unknown #
coedge $-1 $408 $754 $758 $767 forward $568 $-1 #
vertex $-1 $409 $768 #
straight-curve $-1 -34.163890698284717 -13.94787466344596 -7.4900478147115184 0 1 0 I I #
coedge $-1 $570 $410 $757 $769 forward $400 $-1 #
vertex $-1 $769 $770 #
straight-curve $-1 -34.163890698284717 -13.94787466344596 7.4900478147115184 0 -1 0 I I #
point $-1 -34.163890698284717 -23.539715174191699 7.4900478147115184 #
point $-1 -34.163890698284717 -23.539715174191699 -7.4900478147115184 #
face $-1 $-1 $605 $59 $-1 $771 reversed single #
loop $-1 $-1 $611 $415 #
plane-surface $-1 0 0 7.4900478147115184 0 0 1 1 0 0 forward_v I I I I #
coedge $-1 $424 $772 $596 $773 forward $416 $-1 #
coedge $-1 $774 $418 $595 $773 reversed $257 $-1 #
coedge $-1 $418 $774 $611 $775 reversed $257 $-1 #
edge $-1 $612 -7.4900478147115184 $609 7.4900478147115184 $418 $776 forward 7 unknown #
coedge $-1 $772 $424 $419 $600 forward $416 $-1 #
edge $-1 $429 9.5918405107457403 $606 18.303908816146187 $599 $777 forward 7 unknown #
coedge $-1 $426 $778 $420 $602 forward $593 $-1 #
edge $-1 $607 -18.303908816146187 $428 -9.5918405107457403 $601 $779 forward 7 unknown #
coedge $-1 $780 $421 $778 $781 reversed $605 $-1 #
coedge $-1 $421 $780 $772 $782 reversed $605 $-1 #
loop $-1 $-1 $780 $592 #
vertex $-1 $782 $783 #
vertex $-1 $422 $784 #
straight-curve $-1 -34.163890698284717 32.251783479592142 0 0 0 1 I I #
vertex $-1 $425 $785 #
straight-curve $-1 -16.331945349142359 23.539715174191702 -7.4900478147115184 -1 0 0 I I #
coedge $-1 $778 $426 $597 $775 forward $593 $-1 #
vertex $-1 $427 $786 #
straight-curve $-1 -16.331945349142359 23.539715174191702 7.4900478147115184 1 0 0 I I #
point $-1 -34.163890698284717 23.539715174191702 7.4900478147115184 #
point $-1 -34.163890698284717 23.539715174191702 -7.4900478147115184 #
plane-surface $-1 0 0 7.4900478147115184 0 0 1 1 0 0 forward_v I I I I #
coedge $-1 $627 $626 $619 $787 forward $432 $-1 #
coedge $-1 $619 $434 $436 $623 reversed $265 $-1 #
coedge $-1 $434 $618 $617 $787 reversed $265 $-1 #
coedge $-1 $442 $437 $434 $621 forward $443 $-1 #
edge $-1 $624 -12.304931116184349 $788 -7.2011860681990925 $620 $789 forward 7 unknown #
coedge $-1 $436 $435 $627 $790 reversed $165 $-1 #
edge $-1 $791 -9.44141639987384e-015 $624 6.7625285654637945 $618 $792 forward 7 unknown #
vertex $-1 $438 $793 #
straight-curve $-1 -41.040241279722501 -9.8563983944684495 7.4900478147115193 0 1 0 I I #
coedge $-1 $617 $439 $442 $631 reversed $432 $-1 #
coedge $-1 $439 $617 $622 $790 forward $432 $-1 #
vertex $-1 $440 $794 #
straight-curve $-1 -46.143986327707751 -23.539715174191695 36.352023149455398 0 0 1 I I #
straight-curve $-1 -46.143986327707744 -23.539715174191695 3.0534298365799941 -0.75470957328743171 0 -0.6560590369687036 I I #
edge $-1 $788 15.885878403682103 $444 23.539715174191695 $626 $795 forward 7 unknown #
point $-1 -46.143986327707751 -23.539715174191695 7.4900478147115184 #
point $-1 -41.040241279722494 -23.539715174191695 7.4900478147115184 #
edge $-1 $796 1 $796 0 $447 $-1 forward 7 unknown #
vertex $-1 $448 $797 #
ellipse-curve $-1 -42.397394398049641 -22.00894782008978 3.8973713952173492 -0.6560590369687036 0 0.75470957328743171 0.37735478664371586 0 0.3280295184843518 1 I I #
point $-1 -43.214759017071408 -22.00894782008978 5.5997683441301112 #
edge $-1 $798 1 $798 0 $451 $-1 forward 7 unknown #
vertex $-1 $452 $799 #
ellipse-curve $-1 -42.397394398049641 -19.712796788936899 3.8973713952173492 -0.6560590369687036 0 0.75470957328743171 0.37735478664371586 0 0.3280295184843518 1 I I #
point $-1 -43.214759017071408 -19.712796788936899 5.5997683441301112 #
edge $-1 $800 1 $800 0 $455 $-1 forward 7 unknown #
vertex $-1 $456 $801 #
ellipse-curve $-1 -42.397394398049641 -17.416645757784025 3.8973713952173492 -0.6560590369687036 0 0.75470957328743171 0.37735478664371586 0 0.3280295184843518 1 I I #
point $-1 -43.214759017071408 -17.416645757784025 5.5997683441301112 #
loop $-1 $-1 $467 $459 #
plane-surface $-1 -46.143986327707751 0 0 1 0 0 0 0 -1 forward_v I I I I #
coedge $-1 $649 $462 $464 $653 reversed $294 $-1 #
coedge $-1 $462 $648 $802 $803 reversed $294 $-1 #
coedge $-1 $470 $465 $462 $651 forward $460 $-1 #
edge $-1 $654 -12.304931116184349 $804 -7.2011860681990925 $650 $805 forward 7 unknown #
coedge $-1 $464 $463 $657 $806 reversed $184 $-1 #
edge $-1 $807 -9.44141639987384e-015 $654 6.7625285654637945 $648 $808 forward 7 unknown #
vertex $-1 $466 $809 #
straight-curve $-1 -41.040241279722501 -3.285466131489482 7.4900478147115193 0 1 0 I I #
coedge $-1 $802 $467 $470 $661 reversed $646 $-1 #
coedge $-1 $467 $802 $652 $806 forward $646 $-1 #
vertex $-1 $468 $810 #
straight-curve $-1 -46.143986327707751 -10.39785064823376 36.352023149455398 0 0 1 I I #
straight-curve $-1 -46.143986327707744 -10.39785064823376 3.0534298365799941 -0.75470957328743171 0 -0.6560590369687036 I I #
edge $-1 $804 2.7440138777241669 $471 10.39785064823376 $656 $811 forward 7 unknown #
point $-1 -46.143986327707751 -10.39785064823376 7.4900478147115184 #
point $-1 -41.040241279722494 -10.39785064823376 7.4900478147115184 #
edge $-1 $812 1 $812 0 $474 $-1 forward 7 unknown #
vertex $-1 $475 $813 #
ellipse-curve $-1 -42.397394398049641 -8.8670832941318452 3.8973713952173492 -0.6560590369687036 0 0.75470957328743171 0.37735478664371586 0 0.3280295184843518 1 I I #
point $-1 -43.214759017071408 -8.8670832941318452 5.5997683441301112 #
edge $-1 $814 1 $814 0 $478 $-1 forward 7 unknown #
vertex $-1 $479 $815 #
ellipse-curve $-1 -42.397394398049641 -6.5709322629789639 3.8973713952173492 -0.6560590369687036 0 0.75470957328743171 0.37735478664371586 0 0.3280295184843518 1 I I #
point $-1 -43.214759017071408 -6.5709322629789639 5.5997683441301112 #
edge $-1 $816 1 $816 0 $482 $-1 forward 7 unknown #
vertex $-1 $483 $817 #
ellipse-curve $-1 -42.397394398049641 -4.2747812318260898 3.8973713952173492 -0.6560590369687036 0 0.75470957328743171 0.37735478664371586 0 0.3280295184843518 1 I I #
point $-1 -43.214759017071408 -4.2747812318260898 5.5997683441301112 #
loop $-1 $-1 $494 $486 #
plane-surface $-1 -46.143986327707751 0 0 1 0 0 0 0 -1 forward_v I I I I #
coedge $-1 $679 $489 $491 $683 reversed $323 $-1 #
coedge $-1 $489 $678 $818 $819 reversed $323 $-1 #
coedge $-1 $497 $492 $489 $681 forward $487 $-1 #
edge $-1 $684 -12.304931116184349 $820 -7.2011860681990925 $680 $821 forward 7 unknown #
coedge $-1 $491 $490 $687 $822 reversed $203 $-1 #
edge $-1 $823 -9.44141639987384e-015 $684 6.7625285654637945 $678 $824 forward 7 unknown #
vertex $-1 $493 $825 #
straight-curve $-1 -41.040241279722501 3.2854661314894855 7.4900478147115193 0 1 0 I I #
coedge $-1 $818 $494 $497 $691 reversed $676 $-1 #
coedge $-1 $494 $818 $682 $822 forward $676 $-1 #
vertex $-1 $495 $826 #
straight-curve $-1 -46.143986327707751 2.744013877724174 36.352023149455398 0 0 1 I I #
straight-curve $-1 -46.143986327707744 2.744013877724174 3.0534298365799941 -0.75470957328743171 0 -0.6560590369687036 I I #
edge $-1 $820 -10.397850648233767 $498 -2.744013877724174 $686 $827 forward 7 unknown #
point $-1 -46.143986327707751 2.744013877724174 7.4900478147115184 #
point $-1 -41.040241279722494 2.744013877724174 7.4900478147115184 #
edge $-1 $828 1 $828 0 $501 $-1 forward 7 unknown #
vertex $-1 $502 $829 #
ellipse-curve $-1 -42.397394398049641 4.2747812318260898 3.8973713952173492 -0.6560590369687036 0 0.75470957328743171 0.37735478664371586 0 0.3280295184843518 1 I I #
point $-1 -43.214759017071408 4.2747812318260898 5.5997683441301112 #
edge $-1 $830 1 $830 0 $505 $-1 forward 7 unknown #
vertex $-1 $506 $831 #
ellipse-curve $-1 -42.397394398049641 6.570932262978971 3.8973713952173492 -0.6560590369687036 0 0.75470957328743171 0.37735478664371586 0 0.3280295184843518 1 I I #
point $-1 -43.214759017071408 6.570932262978971 5.5997683441301112 #
edge $-1 $832 1 $832 0 $509 $-1 forward 7 unknown #
vertex $-1 $510 $833 #
ellipse-curve $-1 -42.397394398049641 8.8670832941318452 3.8973713952173492 -0.6560590369687036 0 0.75470957328743171 0.37735478664371586 0 0.3280295184843518 1 I I #
point $-1 -43.214759017071408 8.8670832941318452 5.5997683441301112 #
loop $-1 $-1 $521 $513 #
plane-surface $-1 -46.143986327707751 0 0 1 0 0 0 0 -1 forward_v I I I I #
coedge $-1 $709 $516 $518 $713 reversed $352 $-1 #
coedge $-1 $516 $708 $834 $835 reversed $352 $-1 #
coedge $-1 $524 $519 $516 $711 forward $514 $-1 #
edge $-1 $714 -12.304931116184349 $836 -7.2011860681990925 $710 $837 forward 7 unknown #
coedge $-1 $518 $517 $717 $838 reversed $222 $-1 #
edge $-1 $839 -9.44141639987384e-015 $714 6.7625285654637945 $708 $840 forward 7 unknown #
vertex $-1 $520 $841 #
straight-curve $-1 -41.040241279722501 9.856398394468453 7.4900478147115193 0 1 0 I I #
coedge $-1 $834 $521 $524 $721 reversed $706 $-1 #
coedge $-1 $521 $834 $712 $838 forward $706 $-1 #
vertex $-1 $522 $842 #
straight-curve $-1 -46.143986327707751 15.88587840368211 36.352023149455398 0 0 1 I I #
straight-curve $-1 -46.143986327707744 15.88587840368211 3.0534298365799941 -0.75470957328743171 0 -0.6560590369687036 I I #
edge $-1 $836 -23.539715174191702 $525 -15.88587840368211 $716 $843 forward 7 unknown #
point $-1 -46.143986327707751 15.88587840368211 7.4900478147115184 #
point $-1 -41.040241279722494 15.88587840368211 7.4900478147115184 #
edge $-1 $844 1 $844 0 $528 $-1 forward 7 unknown #
vertex $-1 $529 $845 #
ellipse-curve $-1 -42.397394398049641 17.416645757784025 3.8973713952173492 -0.6560590369687036 0 0.75470957328743171 0.37735478664371586 0 0.3280295184843518 1 I I #
point $-1 -43.214759017071408 17.416645757784025 5.5997683441301112 #
edge $-1 $846 1 $846 0 $532 $-1 forward 7 unknown #
vertex $-1 $533 $847 #
ellipse-curve $-1 -42.397394398049641 19.712796788936906 3.8973713952173492 -0.6560590369687036 0 0.75470957328743171 0.37735478664371586 0 0.3280295184843518 1 I I #
point $-1 -43.214759017071408 19.712796788936906 5.5997683441301112 #
edge $-1 $848 1 $848 0 $536 $-1 forward 7 unknown #
vertex $-1 $537 $849 #
ellipse-curve $-1 -42.397394398049641 22.00894782008978 3.8973713952173492 -0.6560590369687036 0 0.75470957328743171 0.37735478664371586 0 0.3280295184843518 1 I I #
point $-1 -43.214759017071408 22.00894782008978 5.5997683441301112 #
plane-surface $-1 46.143986327707751 0 0 -1 0 0 0 0 1 forward_v I I I I #
coedge $-1 $545 $543 $547 $741 reversed $381 $-1 #
edge $-1 $558 -7.4900478147115184 $743 7.4900478147115184 $557 $850 forward 7 unknown #
vertex $-1 $741 $851 #
straight-curve $-1 -46.143986327707751 -32.251783479592142 0 0 0 -1 I I #
edge $-1 $739 -32.251783479592142 $743 32.251783479592142 $737 $852 forward 7 unknown #
straight-curve $-1 0 -32.251783479592142 -7.4900478147115184 -1 0 0 I I #
vertex $-1 $550 $853 #
straight-curve $-1 0 32.251783479592142 -7.4900478147115184 1 0 0 I I #
point $-1 46.143986327707751 32.251783479592142 -7.4900478147115184 #
point $-1 46.143986327707751 -32.251783479592142 -7.4900478147115184 #
straight-curve $-1 -46.143986327707751 0 7.4900478147115184 0 -1 0 I I #
point $-1 -46.143986327707751 32.251783479592142 7.4900478147115184 #
point $-1 -46.143986327707751 -32.251783479592142 7.4900478147115184 #
straight-curve $-1 46.143986327707751 -32.251783479592142 0 0 0 -1 I I #
straight-curve $-1 46.143986327707751 32.251783479592142 0 0 0 -1 I I #
loop $-1 $-1 $573 $567 #
plane-surface $-1 0 -32.251783479592142 0 0 1 0 0 0 1 forward_v I I I I #
coedge $-1 $584 $575 $571 $756 forward $568 $-1 #
edge $-1 $760 -18.303908816146183 $579 -9.5918405107457385 $570 $854 forward 7 unknown #
edge $-1 $580 9.5918405107457385 $759 18.303908816146183 $754 $855 forward 7 unknown #
coedge $-1 $582 $573 $587 $769 reversed $752 $-1 #
coedge $-1 $573 $582 $584 $767 reversed $752 $-1 #
vertex $-1 $767 $856 #
vertex $-1 $574 $857 #
straight-curve $-1 -31.163890698284717 -32.251783479592142 0 0 0 1 I I #
straight-curve $-1 -16.331945349142359 -23.539715174191699 -7.4900478147115184 1 0 0 I I #
straight-curve $-1 -16.331945349142359 -23.539715174191699 7.4900478147115184 -1 0 0 I I #
point $-1 -31.163890698284717 -23.539715174191699 7.4900478147115184 #
point $-1 -31.163890698284717 -23.539715174191699 -7.4900478147115184 #
straight-curve $-1 -34.163890698284717 -32.251783479592142 0 0 0 -1 I I #
edge $-1 $759 31.163890698284717 $585 34.163890698284717 $758 $858 forward 7 unknown #
point $-1 -34.163890698284717 -32.251783479592142 -7.4900478147115184 #
edge $-1 $588 -34.163890698284717 $760 -31.163890698284717 $757 $859 forward 7 unknown #
point $-1 -34.163890698284717 -32.251783479592142 7.4900478147115184 #
plane-surface $-1 0 32.251783479592142 0 0 -1 0 0 0 -1 forward_v I I I I #
coedge $-1 $595 $599 $604 $782 forward $416 $-1 #
edge $-1 $860 -18.303908816146187 $609 -9.5918405107457403 $595 $861 forward 7 unknown #
coedge $-1 $597 $596 $780 $862 reversed $257 $-1 #
edge $-1 $612 9.5918405107457403 $863 18.303908816146187 $611 $864 forward 7 unknown #
straight-curve $-1 -31.163890698284717 23.539715174191702 0 0 0 -1 I I #
straight-curve $-1 -34.163890698284717 13.947874663445962 -7.4900478147115184 0 1 0 I I #
coedge $-1 $601 $611 $603 $781 forward $593 $-1 #
straight-curve $-1 -34.163890698284717 13.947874663445962 7.4900478147115184 0 -1 0 I I #
coedge $-1 $604 $603 $774 $862 forward $605 $-1 #
edge $-1 $863 31.163890698284717 $607 34.163890698284717 $603 $865 forward 7 unknown #
edge $-1 $606 -34.163890698284717 $860 -31.163890698284717 $604 $866 forward 7 unknown #
point $-1 -34.163890698284717 32.251783479592149 -7.4900478147115184 #
point $-1 -34.163890698284717 32.251783479592149 7.4900478147115184 #
point $-1 -31.163890698284717 23.539715174191702 -7.4900478147115184 #
point $-1 -31.163890698284717 23.539715174191702 7.4900478147115184 #
edge $-1 $788 28.861975334743882 $791 33.298593312875411 $617 $867 forward 7 unknown #
vertex $-1 $631 $868 #
straight-curve $-1 -53.345172395906843 -15.885878403682103 7.4900478147115166 -1 0 0 I I #
edge $-1 $791 6.0294800092136533 $628 13.683316779723246 $627 $869 forward 7 unknown #
vertex $-1 $790 $870 #
straight-curve $-1 -46.143986327707744 -15.885878403682103 3.0534298365799941 0.75470957328743171 0 0.6560590369687036 I I #
point $-1 -41.040241279722494 -15.885878403682103 7.4900478147115184 #
point $-1 -46.143986327707751 -23.539715174191695 3.0534298365799879 #
straight-curve $-1 -46.143986327707751 0 7.4900478147115184 0 -1 0 I I #
vertex $-1 $634 $871 #
point $-1 -42.02003961140592 -22.00894782008978 4.2254009137017015 #
vertex $-1 $638 $872 #
point $-1 -42.02003961140592 -19.712796788936899 4.2254009137017015 #
vertex $-1 $642 $873 #
point $-1 -42.02003961140592 -17.416645757784025 4.2254009137017015 #
coedge $-1 $657 $656 $649 $803 forward $646 $-1 #
edge $-1 $804 28.861975334743882 $807 33.298593312875411 $802 $874 forward 7 unknown #
vertex $-1 $661 $875 #
straight-curve $-1 -53.345172395906843 -2.7440138777241669 7.4900478147115166 -1 0 0 I I #
edge $-1 $807 -0.54145225376531503 $658 7.1123845167442781 $657 $876 forward 7 unknown #
vertex $-1 $806 $877 #
straight-curve $-1 -46.143986327707744 -2.7440138777241669 3.0534298365799941 0.75470957328743171 0 0.6560590369687036 I I #
point $-1 -41.040241279722494 -2.7440138777241669 7.4900478147115184 #
point $-1 -46.143986327707751 -10.39785064823376 3.0534298365799879 #
straight-curve $-1 -46.143986327707751 0 7.4900478147115184 0 -1 0 I I #
vertex $-1 $664 $878 #
point $-1 -42.02003961140592 -8.8670832941318452 4.2254009137017015 #
vertex $-1 $668 $879 #
point $-1 -42.02003961140592 -6.5709322629789639 4.2254009137017015 #
vertex $-1 $672 $880 #
point $-1 -42.02003961140592 -4.2747812318260898 4.2254009137017015 #
coedge $-1 $687 $686 $679 $819 forward $676 $-1 #
edge $-1 $820 28.861975334743882 $823 33.298593312875411 $818 $881 forward 7 unknown #
vertex $-1 $691 $882 #
straight-curve $-1 -53.345172395906843 10.397850648233767 7.4900478147115166 -1 0 0 I I #
edge $-1 $823 -7.1123845167442816 $688 0.54145225376531148 $687 $883 forward 7 unknown #
vertex $-1 $822 $884 #
straight-curve $-1 -46.143986327707744 10.397850648233767 3.0534298365799941 0.75470957328743171 0 0.6560590369687036 I I #
point $-1 -41.040241279722494 10.397850648233767 7.4900478147115184 #
point $-1 -46.143986327707751 2.744013877724174 3.0534298365799879 #
straight-curve $-1 -46.143986327707751 0 7.4900478147115184 0 -1 0 I I #
vertex $-1 $694 $885 #
point $-1 -42.02003961140592 4.2747812318260898 4.2254009137017015 #
vertex $-1 $698 $886 #
point $-1 -42.02003961140592 6.570932262978971 4.2254009137017015 #
vertex $-1 $702 $887 #
point $-1 -42.02003961140592 8.8670832941318452 4.2254009137017015 #
coedge $-1 $717 $716 $709 $835 forward $706 $-1 #
edge $-1 $836 28.861975334743882 $839 33.298593312875411 $834 $888 forward 7 unknown #
vertex $-1 $721 $889 #
straight-curve $-1 -53.345172395906843 23.539715174191702 7.4900478147115166 -1 0 0 I I #
edge $-1 $839 -13.683316779723249 $718 -6.0294800092136569 $717 $890 forward 7 unknown #
vertex $-1 $838 $891 #
straight-curve $-1 -46.143986327707744 23.539715174191702 3.0534298365799941 0.75470957328743171 0 0.6560590369687036 I I #
point $-1 -41.040241279722494 23.539715174191702 7.4900478147115184 #
point $-1 -46.143986327707751 15.88587840368211 3.0534298365799879 #
straight-curve $-1 -46.143986327707751 0 7.4900478147115184 0 -1 0 I I #
vertex $-1 $724 $892 #
point $-1 -42.02003961140592 17.416645757784025 4.2254009137017015 #
vertex $-1 $728 $893 #
point $-1 -42.02003961140592 19.712796788936906 4.2254009137017015 #
vertex $-1 $732 $894 #
point $-1 -42.02003961140592 22.00894782008978 4.2254009137017015 #
straight-curve $-1 -46.143986327707751 32.251783479592142 0 0 0 -1 I I #
point $-1 -46.143986327707751 -32.251783479592142 -7.4900478147115184 #
straight-curve $-1 -46.143986327707751 0 -7.4900478147115184 0 1 0 I I #
point $-1 -46.143986327707751 32.251783479592142 -7.4900478147115184 #
straight-curve $-1 -31.163890698284717 -13.94787466344596 7.4900478147115184 0 1 0 I I #
straight-curve $-1 -31.163890698284717 -13.94787466344596 -7.4900478147115184 0 -1 0 I I #
point $-1 -31.163890698284717 -32.251783479592142 -7.4900478147115184 #
point $-1 -31.163890698284717 -32.251783479592142 7.4900478147115184 #
straight-curve $-1 0 -32.251783479592142 -7.4900478147115184 -1 0 0 I I #
straight-curve $-1 0 -32.251783479592142 7.4900478147115184 1 0 0 I I #
vertex $-1 $862 $895 #
straight-curve $-1 -31.163890698284717 13.947874663445962 -7.4900478147115184 0 -1 0 I I #
edge $-1 $863 -7.4900478147115184 $860 7.4900478147115184 $780 $896 forward 7 unknown #
vertex $-1 $781 $897 #
straight-curve $-1 -31.163890698284717 13.947874663445962 7.4900478147115184 0 1 0 I I #
straight-curve $-1 0 32.251783479592142 7.4900478147115184 -1 0 0 I I #
straight-curve $-1 0 32.251783479592142 -7.4900478147115184 1 0 0 I I #
straight-curve $-1 -46.143986327707751 -15.885878403682103 36.352023149455398 0 0 -1 I I #
point $-1 -46.143986327707751 -15.885878403682103 7.4900478147115184 #
straight-curve $-1 -46.143986327707751 -9.8563983944684495 3.0534298365799932 0 -1 0 I I #
point $-1 -46.143986327707751 -15.885878403682103 3.0534298365799879 #
point $-1 -42.069364879565285 -22.00894782008978 3.5200166085736333 #
point $-1 -42.069364879565285 -19.712796788936899 3.5200166085736333 #
point $-1 -42.069364879565285 -17.416645757784025 3.5200166085736333 #
straight-curve $-1 -46.143986327707751 -2.7440138777241669 36.352023149455398 0 0 -1 I I #
point $-1 -46.143986327707751 -2.7440138777241669 7.4900478147115184 #
straight-curve $-1 -46.143986327707751 -3.285466131489482 3.0534298365799932 0 -1 0 I I #
point $-1 -46.143986327707751 -2.7440138777241669 3.0534298365799879 #
point $-1 -42.069364879565285 -8.8670832941318452 3.5200166085736333 #
point $-1 -42.069364879565285 -6.5709322629789639 3.5200166085736333 #
point $-1 -42.069364879565285 -4.2747812318260898 3.5200166085736333 #
straight-curve $-1 -46.143986327707751 10.397850648233767 36.352023149455398 0 0 -1 I I #
point $-1 -46.143986327707751 10.397850648233767 7.4900478147115184 #
straight-curve $-1 -46.143986327707751 3.2854661314894855 3.0534298365799932 0 -1 0 I I #
point $-1 -46.143986327707751 10.397850648233767 3.0534298365799879 #
point $-1 -42.069364879565285 4.2747812318260898 3.5200166085736333 #
point $-1 -42.069364879565285 6.570932262978971 3.5200166085736333 #
point $-1 -42.069364879565285 8.8670832941318452 3.5200166085736333 #
straight-curve $-1 -46.143986327707751 23.539715174191702 36.352023149455398 0 0 -1 I I #
point $-1 -46.143986327707751 23.539715174191702 7.4900478147115184 #
straight-curve $-1 -46.143986327707751 9.856398394468453 3.0534298365799932 0 -1 0 I I #
point $-1 -46.143986327707751 23.539715174191702 3.0534298365799879 #
point $-1 -42.069364879565285 17.416645757784025 3.5200166085736333 #
point $-1 -42.069364879565285 19.712796788936906 3.5200166085736333 #
point $-1 -42.069364879565285 22.00894782008978 3.5200166085736333 #
point $-1 -31.163890698284717 32.251783479592149 -7.4900478147115184 #
straight-curve $-1 -31.163890698284717 32.251783479592142 0 0 0 -1 I I #
point $-1 -31.163890698284717 32.251783479592149 7.4900478147115184 #
End-of-ACIS-data 