500 0 8 0           
7 Unknown 11 ACIS 5.0 NT 24 Fri Mar 26 02:51:27 1999 
-1 9.9999999999999995e-007 1e-010 
body $-1 $8 $-1 $9 #
body $-1 $10 $-1 $11 #
body $-1 $12 $-1 $13 #
body $-1 $14 $-1 $15 #
body $-1 $16 $-1 $17 #
body $-1 $18 $-1 $19 #
body $-1 $20 $-1 $21 #
body $-1 $22 $-1 $23 #
lump $-1 $-1 $24 $0 #
transform $-1 1 0 0 0 1 0 0 0 1 44.566789757988218 23.757076226165964 11.134004235198224 1 rotate no_reflect no_shear #
lump $-1 $-1 $25 $1 #
transform $-1 1 0 0 0 1 0 0 0 1 44.566789757988218 23.757076226165964 11.134004235198224 1 rotate no_reflect no_shear #
lump $-1 $-1 $26 $2 #
transform $-1 1 0 0 0 1 0 0 0 1 44.566789757988218 23.757076226165964 11.134004235198224 1 rotate no_reflect no_shear #
lump $-1 $-1 $27 $3 #
transform $-1 1 0 0 0 1 0 0 0 1 44.566789757988218 23.757076226165964 11.134004235198224 1 rotate no_reflect no_shear #
lump $-1 $-1 $28 $4 #
transform $-1 1 0 0 0 1 0 0 0 1 44.566789757988218 23.757076226165964 11.134004235198224 1 rotate no_reflect no_shear #
lump $-1 $-1 $29 $5 #
transform $-1 1 0 0 0 1 0 0 0 1 44.566789757988218 23.757076226165964 11.134004235198224 1 rotate no_reflect no_shear #
lump $-1 $-1 $30 $6 #
transform $-1 1 0 0 0 1 0 0 0 1 44.566789757988218 23.757076226165964 11.134004235198224 1 rotate no_reflect no_shear #
lump $-1 $-1 $31 $7 #
transform $-1 1 0 0 0 1 0 0 0 1 44.566789757988218 23.757076226165964 11.134004235198224 1 rotate no_reflect no_shear #
shell $-1 $-1 $-1 $32 $-1 $8 #
shell $-1 $-1 $-1 $33 $-1 $10 #
shell $-1 $-1 $-1 $34 $-1 $12 #
shell $-1 $-1 $-1 $35 $-1 $14 #
shell $-1 $-1 $-1 $36 $-1 $16 #
shell $-1 $-1 $-1 $37 $-1 $18 #
shell $-1 $-1 $-1 $38 $-1 $20 #
shell $-1 $-1 $-1 $39 $-1 $22 #
face $-1 $40 $41 $24 $-1 $42 forward single #
face $-1 $43 $44 $25 $-1 $45 forward single #
face $-1 $46 $47 $26 $-1 $48 reversed single #
face $-1 $49 $50 $27 $-1 $51 forward single #
face $-1 $52 $53 $28 $-1 $54 forward single #
face $-1 $55 $56 $29 $-1 $57 reversed single #
face $-1 $58 $59 $30 $-1 $60 forward single #
face $-1 $61 $62 $31 $-1 $63 forward single #
face $-1 $64 $65 $24 $-1 $66 reversed single #
loop $-1 $-1 $67 $32 #
plane-surface $-1 0 0 11.134004235198224 0 0 1 1 0 0 forward_v I I I I #
face $-1 $68 $69 $25 $-1 $70 reversed single #
loop $-1 $-1 $71 $33 #
plane-surface $-1 0 -23.757076226165964 0 0 1 0 0 0 1 forward_v I I I I #
face $-1 $72 $73 $26 $-1 $74 reversed single #
loop $-1 $-1 $75 $34 #
plane-surface $-1 -91.800391257233386 -3.0629553631983768 76.912668885228101 0 1 0 -0.52991927123019833 0 0.84804809178421925 forward_v I I I I #
face $-1 $76 $77 $27 $-1 $78 forward single #
loop $-1 $79 $80 $35 #
cone-surface $-1 -36.210705547994621 -0.97956798918845323 5.4192256781514647 0.52991927123019833 0 -0.84804809178421925 0.84804809178421925 0 0.52991927123019833 1 I I 0 1 1 forward I I I I #
face $-1 $81 $82 $28 $-1 $83 forward single #
loop $-1 $84 $85 $36 #
cone-surface $-1 -36.210705547994621 2.1455130718264321 5.4192256781514647 0.52991927123019833 0 -0.84804809178421925 0.84804809178421925 0 0.52991927123019833 1 I I 0 1 1 forward I I I I #
face $-1 $86 $87 $29 $-1 $88 reversed single #
loop $-1 $-1 $89 $37 #
plane-surface $-1 -91.800391257233386 14.239592462761944 76.912668885228101 0 1 0 -0.52991927123019833 0 0.84804809178421925 forward_v I I I I #
face $-1 $90 $91 $30 $-1 $92 forward single #
loop $-1 $93 $94 $38 #
cone-surface $-1 -36.210705547994621 16.322979836771864 5.4192256781514647 0.52991927123019833 0 -0.84804809178421925 0.84804809178421925 0 0.52991927123019833 1 I I 0 1 1 forward I I I I #
face $-1 $95 $96 $31 $-1 $97 forward single #
loop $-1 $98 $99 $39 #
cone-surface $-1 -36.210705547994621 19.448060897786746 5.4192256781514647 0.52991927123019833 0 -0.84804809178421925 0.84804809178421925 0 0.52991927123019833 1 I I 0 1 1 forward I I I I #
face $-1 $100 $101 $24 $-1 $102 reversed single #
loop $-1 $-1 $103 $40 #
plane-surface $-1 0 0 -11.134004235198224 0 0 1 1 0 0 forward_v I I I I #
coedge $-1 $104 $105 $106 $107 forward $41 $-1 #
face $-1 $108 $109 $25 $-1 $110 forward single #
loop $-1 $-1 $111 $43 #
plane-surface $-1 -44.566789757988218 0 0 1 0 0 0 0 -1 forward_v I I I I #
coedge $-1 $112 $113 $114 $115 forward $44 $-1 #
face $-1 $116 $117 $26 $-1 $118 reversed single #
loop $-1 $-1 $119 $46 #
plane-surface $-1 -44.566789757988218 0.58297254131899123 1.3231068628073075 -0.52991927123019833 0 0.84804809178421925 0.84804809178421925 0 0.52991927123019833 forward_v I I I I #
coedge $-1 $120 $121 $122 $123 reversed $47 $-1 #
face $-1 $-1 $124 $27 $-1 $125 forward single #
loop $-1 $126 $127 $49 #
cone-surface $-1 -35.44002047121495 -0.97956798918845323 4.1858717614080625 0.52991927123019833 0 -0.84804809178421925 0.42402404589210962 0 0.26495963561509916 1 I I -0.70710678118654746 0.70710678118654746 0.5 forward I I I I #
loop $-1 $-1 $128 $35 #
coedge $-1 $80 $80 $129 $130 reversed $50 $-1 #
face $-1 $-1 $131 $28 $-1 $132 forward single #
loop $-1 $133 $134 $52 #
cone-surface $-1 -35.44002047121495 2.1455130718264321 4.1858717614080625 0.52991927123019833 0 -0.84804809178421925 0.42402404589210962 0 0.26495963561509916 1 I I -0.70710678118654746 0.70710678118654746 0.5 forward I I I I #
loop $-1 $-1 $135 $36 #
coedge $-1 $85 $85 $136 $137 reversed $53 $-1 #
face $-1 $138 $139 $29 $-1 $140 reversed single #
loop $-1 $-1 $141 $55 #
plane-surface $-1 -44.566789757988218 17.885520367279312 1.3231068628073075 -0.52991927123019833 0 0.84804809178421925 0.84804809178421925 0 0.52991927123019833 forward_v I I I I #
coedge $-1 $142 $143 $144 $145 reversed $56 $-1 #
face $-1 $-1 $146 $30 $-1 $147 forward single #
loop $-1 $148 $149 $58 #
cone-surface $-1 -35.44002047121495 16.322979836771864 4.1858717614080625 0.52991927123019833 0 -0.84804809178421925 0.42402404589210962 0 0.26495963561509916 1 I I -0.70710678118654746 0.70710678118654746 0.5 forward I I I I #
loop $-1 $-1 $150 $38 #
coedge $-1 $94 $94 $151 $152 reversed $59 $-1 #
face $-1 $-1 $153 $31 $-1 $154 forward single #
loop $-1 $155 $156 $61 #
cone-surface $-1 -35.44002047121495 19.448060897786746 4.1858717614080625 0.52991927123019833 0 -0.84804809178421925 0.42402404589210962 0 0.26495963561509916 1 I I -0.70710678118654746 0.70710678118654746 0.5 forward I I I I #
loop $-1 $-1 $157 $39 #
coedge $-1 $99 $99 $158 $159 reversed $62 $-1 #
face $-1 $160 $161 $24 $-1 $162 reversed single #
loop $-1 $-1 $163 $64 #
plane-surface $-1 0 -23.757076226165964 0 0 1 0 0 0 1 forward_v I I I I #
coedge $-1 $164 $165 $166 $167 forward $65 $-1 #
coedge $-1 $168 $67 $169 $170 forward $41 $-1 #
coedge $-1 $67 $168 $171 $172 forward $41 $-1 #
coedge $-1 $173 $174 $67 $107 reversed $175 $-1 #
edge $-1 $176 -23.757076226165964 $177 23.757076226165964 $106 $178 forward 7 unknown #
face $-1 $179 $180 $25 $-1 $181 reversed single #
loop $-1 $-1 $182 $68 #
plane-surface $-1 0 -30.21160462637161 9.9256007375736406 0 0 1 1 0 0 forward_v I I I I #
coedge $-1 $183 $184 $113 $185 forward $69 $-1 #
coedge $-1 $186 $71 $187 $188 reversed $44 $-1 #
coedge $-1 $71 $186 $111 $185 reversed $44 $-1 #
coedge $-1 $189 $182 $71 $115 reversed $109 $-1 #
edge $-1 $190 -44.566789757988218 $191 44.566789757988218 $114 $192 forward 7 unknown #
face $-1 $193 $194 $26 $-1 $195 forward single #
loop $-1 $-1 $196 $72 #
plane-surface $-1 -91.800391257233386 4.2289004458363593 76.912668885228101 0 -1 0 0.52991927123019833 0 -0.84804809178421925 forward_v I I I I #
coedge $-1 $197 $198 $199 $200 reversed $73 $-1 #
coedge $-1 $121 $75 $201 $202 reversed $47 $-1 #
coedge $-1 $75 $120 $197 $203 reversed $47 $-1 #
coedge $-1 $199 $204 $75 $123 forward $194 $-1 #
edge $-1 $205 1.333405870628475 $206 17.034123408286487 $122 $207 forward 7 unknown #
loop $-1 $-1 $129 $76 #
plane-surface $-1 -44.566789757988218 0.58297254131899123 1.3231068628073075 -0.52991927123019833 0 0.84804809178421925 0.84804809178421925 0 0.52991927123019833 forward_v I I I I #
loop $-1 $-1 $208 $49 #
coedge $-1 $127 $127 $128 $209 reversed $77 $-1 #
coedge $-1 $128 $128 $127 $209 forward $79 $-1 #
coedge $-1 $129 $129 $80 $130 forward $124 $-1 #
edge $-1 $210 0 $210 6.2831853071796004 $129 $211 forward 7 unknown #
loop $-1 $-1 $136 $81 #
plane-surface $-1 -44.566789757988218 0.58297254131899123 1.3231068628073075 -0.52991927123019833 0 0.84804809178421925 0.84804809178421925 0 0.52991927123019833 forward_v I I I I #
loop $-1 $-1 $212 $52 #
coedge $-1 $134 $134 $135 $213 reversed $82 $-1 #
coedge $-1 $135 $135 $134 $213 forward $84 $-1 #
coedge $-1 $136 $136 $85 $137 forward $131 $-1 #
edge $-1 $214 0 $214 6.2831853071796004 $136 $215 forward 7 unknown #
face $-1 $216 $217 $29 $-1 $218 forward single #
loop $-1 $-1 $219 $86 #
plane-surface $-1 -91.800391257233386 21.53144827179668 76.912668885228101 0 -1 0 0.52991927123019833 0 -0.84804809178421925 forward_v I I I I #
coedge $-1 $220 $221 $222 $223 reversed $87 $-1 #
coedge $-1 $143 $89 $224 $225 reversed $56 $-1 #
coedge $-1 $89 $142 $220 $226 reversed $56 $-1 #
coedge $-1 $222 $227 $89 $145 forward $217 $-1 #
edge $-1 $228 1.333405870628475 $229 17.034123408286487 $144 $230 forward 7 unknown #
loop $-1 $-1 $151 $90 #
plane-surface $-1 -44.566789757988218 17.885520367279312 1.3231068628073075 -0.52991927123019833 0 0.84804809178421925 0.84804809178421925 0 0.52991927123019833 forward_v I I I I #
loop $-1 $-1 $231 $58 #
coedge $-1 $149 $149 $150 $232 reversed $91 $-1 #
coedge $-1 $150 $150 $149 $232 forward $93 $-1 #
coedge $-1 $151 $151 $94 $152 forward $146 $-1 #
edge $-1 $233 0 $233 6.2831853071796004 $151 $234 forward 7 unknown #
loop $-1 $-1 $158 $95 #
plane-surface $-1 -44.566789757988218 17.885520367279312 1.3231068628073075 -0.52991927123019833 0 0.84804809178421925 0.84804809178421925 0 0.52991927123019833 forward_v I I I I #
loop $-1 $-1 $235 $61 #
coedge $-1 $156 $156 $157 $236 reversed $96 $-1 #
coedge $-1 $157 $157 $156 $236 forward $98 $-1 #
coedge $-1 $158 $158 $99 $159 forward $153 $-1 #
edge $-1 $237 0 $237 6.2831853071796004 $158 $238 forward 7 unknown #
face $-1 $239 $240 $24 $-1 $241 reversed single #
loop $-1 $-1 $242 $100 #
plane-surface $-1 -44.566789757988218 0 0 1 0 0 0 0 -1 forward_v I I I I #
coedge $-1 $243 $171 $244 $245 forward $101 $-1 #
coedge $-1 $246 $103 $243 $247 forward $65 $-1 #
coedge $-1 $103 $246 $248 $249 forward $65 $-1 #
coedge $-1 $174 $173 $103 $167 reversed $175 $-1 #
edge $-1 $250 -23.757076226165964 $251 23.757076226165964 $166 $252 forward 7 unknown #
coedge $-1 $105 $104 $253 $254 forward $41 $-1 #
coedge $-1 $255 $256 $104 $170 reversed $240 $-1 #
edge $-1 $177 -44.566789757988218 $257 44.566789757988218 $169 $258 forward 7 unknown #
coedge $-1 $163 $259 $105 $172 reversed $101 $-1 #
edge $-1 $260 -44.566789757988218 $176 44.566789757988218 $171 $261 forward 7 unknown #
coedge $-1 $166 $106 $259 $262 forward $175 $-1 #
coedge $-1 $106 $166 $255 $263 reversed $175 $-1 #
loop $-1 $-1 $173 $239 #
vertex $-1 $107 $264 #
vertex $-1 $107 $265 #
straight-curve $-1 44.566789757988218 0 11.134004235198224 0 1 0 I I #
face $-1 $266 $267 $25 $-1 $268 reversed single #
loop $-1 $-1 $269 $108 #
plane-surface $-1 0 -30.21160462637161 6.9256007375736406 0 0 1 1 0 0 forward_v I I I I #
coedge $-1 $114 $270 $271 $272 forward $109 $-1 #
coedge $-1 $273 $111 $274 $275 reversed $69 $-1 #
coedge $-1 $111 $273 $189 $276 reversed $69 $-1 #
edge $-1 $190 -9.9256007375736406 $277 -6.9256007375736406 $111 $278 forward 7 unknown #
coedge $-1 $113 $112 $279 $280 forward $44 $-1 #
coedge $-1 $271 $281 $112 $188 forward $282 $-1 #
edge $-1 $283 6.9256007375736406 $191 9.9256007375736406 $187 $284 forward 7 unknown #
coedge $-1 $270 $114 $184 $276 forward $109 $-1 #
vertex $-1 $185 $285 #
vertex $-1 $272 $286 #
straight-curve $-1 0 -23.757076226165964 9.9256007375736406 1 0 0 I I #
face $-1 $-1 $287 $26 $-1 $288 reversed single #
loop $-1 $-1 $122 $116 #
plane-surface $-1 0 0 11.134004235198224 0 0 1 1 0 0 forward_v I I I I #
coedge $-1 $289 $290 $291 $292 reversed $117 $-1 #
coedge $-1 $293 $119 $121 $203 forward $73 $-1 #
coedge $-1 $119 $293 $289 $294 forward $73 $-1 #
coedge $-1 $291 $122 $119 $200 forward $194 $-1 #
edge $-1 $206 -3.3544416338578724 $295 3.9374141751768637 $199 $296 forward 7 unknown #
coedge $-1 $297 $298 $120 $202 forward $287 $-1 #
edge $-1 $299 -37.133227579806743 $205 -27.322330207415824 $201 $300 forward 7 unknown #
edge $-1 $206 -18.513947133145564 $299 0 $121 $301 forward 7 unknown #
coedge $-1 $122 $291 $297 $302 forward $194 $-1 #
vertex $-1 $202 $303 #
vertex $-1 $123 $304 #
straight-curve $-1 -45.900195628616693 -3.0629553631983768 11.134004235198226 1 0 0 I I #
coedge $-1 $208 $208 $-1 $305 reversed $126 $-1 #
edge $-1 $306 0 $306 6.2831853071796004 $127 $307 forward 7 unknown #
vertex $-1 $130 $308 #
ellipse-curve $-1 -36.7164309891592 -0.97956798918845323 6.2285555490027722 -0.52991927123019833 0 0.84804809178421925 0.84804809178421925 0 0.52991927123019833 1 I I #
coedge $-1 $212 $212 $-1 $309 reversed $133 $-1 #
edge $-1 $310 0 $310 6.2831853071796004 $134 $311 forward 7 unknown #
vertex $-1 $137 $312 #
ellipse-curve $-1 -36.7164309891592 2.1455130718264321 6.2285555490027722 -0.52991927123019833 0 0.84804809178421925 0.84804809178421925 0 0.52991927123019833 1 I I #
face $-1 $-1 $313 $29 $-1 $314 reversed single #
loop $-1 $-1 $144 $138 #
plane-surface $-1 0 0 11.134004235198224 0 0 1 1 0 0 forward_v I I I I #
coedge $-1 $315 $316 $317 $318 reversed $139 $-1 #
coedge $-1 $319 $141 $143 $226 forward $87 $-1 #
coedge $-1 $141 $319 $315 $320 forward $87 $-1 #
coedge $-1 $317 $144 $141 $223 forward $217 $-1 #
edge $-1 $229 5.2968322791222882 $321 12.588688088157024 $222 $322 forward 7 unknown #
coedge $-1 $323 $324 $142 $225 forward $313 $-1 #
edge $-1 $325 -37.133227579806743 $228 -27.322330207415824 $224 $326 forward 7 unknown #
edge $-1 $229 -18.513947133145564 $325 0 $143 $327 forward 7 unknown #
coedge $-1 $144 $317 $323 $328 forward $217 $-1 #
vertex $-1 $145 $329 #
vertex $-1 $145 $330 #
straight-curve $-1 -45.900195628616693 14.239592462761944 11.134004235198226 1 0 0 I I #
coedge $-1 $231 $231 $-1 $331 reversed $148 $-1 #
edge $-1 $332 0 $332 6.2831853071796004 $149 $333 forward 7 unknown #
vertex $-1 $152 $334 #
ellipse-curve $-1 -36.7164309891592 16.322979836771864 6.2285555490027722 -0.52991927123019833 0 0.84804809178421925 0.84804809178421925 0 0.52991927123019833 1 I I #
coedge $-1 $235 $235 $-1 $335 reversed $155 $-1 #
edge $-1 $336 0 $336 6.2831853071796004 $156 $337 forward 7 unknown #
vertex $-1 $159 $338 #
ellipse-curve $-1 -36.7164309891592 19.448060897786746 6.2285555490027722 -0.52991927123019833 0 0.84804809178421925 0.84804809178421925 0 0.52991927123019833 1 I I #
face $-1 $-1 $175 $24 $-1 $339 reversed single #
loop $-1 $-1 $255 $160 #
plane-surface $-1 0 23.757076226165964 0 0 -1 0 0 0 -1 forward_v I I I I #
coedge $-1 $340 $253 $256 $341 forward $161 $-1 #
coedge $-1 $259 $163 $164 $247 reversed $101 $-1 #
coedge $-1 $253 $340 $163 $245 reversed $161 $-1 #
edge $-1 $260 -11.134004235198224 $342 11.134004235198224 $244 $343 forward 7 unknown #
coedge $-1 $165 $164 $340 $344 forward $65 $-1 #
edge $-1 $251 -44.566789757988218 $342 44.566789757988218 $243 $345 forward 7 unknown #
coedge $-1 $256 $255 $165 $249 reversed $240 $-1 #
edge $-1 $346 -44.566789757988218 $250 44.566789757988218 $248 $347 forward 7 unknown #
vertex $-1 $167 $348 #
vertex $-1 $262 $349 #
straight-curve $-1 44.566789757988218 0 -11.134004235198224 0 -1 0 I I #
coedge $-1 $242 $244 $168 $254 reversed $161 $-1 #
edge $-1 $257 -23.757076226165964 $260 23.757076226165964 $253 $350 forward 7 unknown #
coedge $-1 $248 $169 $174 $263 forward $240 $-1 #
coedge $-1 $169 $248 $242 $341 reversed $240 $-1 #
vertex $-1 $170 $351 #
straight-curve $-1 0 23.757076226165964 11.134004235198224 -1 0 0 I I #
coedge $-1 $171 $243 $173 $262 reversed $101 $-1 #
vertex $-1 $254 $352 #
straight-curve $-1 0 -23.757076226165964 11.134004235198224 1 0 0 I I #
edge $-1 $176 -11.134004235198224 $251 11.134004235198224 $173 $353 forward 7 unknown #
edge $-1 $177 -11.134004235198224 $250 11.134004235198224 $174 $354 forward 7 unknown #
point $-1 44.566789757988218 -23.757076226165964 11.134004235198224 #
point $-1 44.566789757988218 23.757076226165964 11.134004235198224 #
face $-1 $-1 $282 $25 $-1 $355 reversed single #
loop $-1 $-1 $356 $179 #
plane-surface $-1 0 -36.666133026577256 8.4256007375736406 0 1 0 0 0 1 forward_v I I I I #
coedge $-1 $357 $279 $281 $358 forward $180 $-1 #
coedge $-1 $182 $189 $359 $360 forward $109 $-1 #
coedge $-1 $361 $187 $182 $272 reversed $282 $-1 #
edge $-1 $362 -6.4545284002056462 $191 6.4545284002056462 $271 $363 forward 7 unknown #
coedge $-1 $184 $183 $356 $364 reversed $69 $-1 #
coedge $-1 $279 $357 $183 $275 forward $180 $-1 #
edge $-1 $365 -6.4545284002056462 $277 6.4545284002056462 $183 $366 forward 7 unknown #
edge $-1 $190 -6.4545284002056462 $367 6.4545284002056462 $184 $368 forward 7 unknown #
vertex $-1 $185 $369 #
straight-curve $-1 -44.566789757988218 -23.757076226165964 0 0 0 -1 I I #
coedge $-1 $269 $274 $186 $280 reversed $180 $-1 #
edge $-1 $283 -44.566789757988218 $277 44.566789757988218 $279 $370 forward 7 unknown #
coedge $-1 $187 $361 $269 $358 reversed $282 $-1 #
loop $-1 $-1 $187 $266 #
vertex $-1 $188 $371 #
straight-curve $-1 44.566789757988218 -23.757076226165964 0 0 0 1 I I #
point $-1 -44.566789757988218 -23.757076226165964 9.9256007375736406 #
point $-1 44.566789757988218 -23.757076226165964 9.9256007375736406 #
loop $-1 $-1 $201 $193 #
plane-surface $-1 -44.566789757988218 0 0 1 0 0 0 0 -1 forward_v I I I I #
coedge $-1 $290 $196 $198 $294 reversed $117 $-1 #
coedge $-1 $196 $289 $372 $373 reversed $117 $-1 #
coedge $-1 $204 $199 $196 $292 forward $194 $-1 #
edge $-1 $295 -17.034123408286487 $374 -1.333405870628475 $291 $375 forward 7 unknown #
coedge $-1 $198 $197 $298 $376 reversed $73 $-1 #
edge $-1 $377 0 $295 18.513947133145564 $289 $378 forward 7 unknown #
vertex $-1 $200 $379 #
straight-curve $-1 -28.866072220330206 0.29148627065949562 11.134004235198224 0 1 0 I I #
coedge $-1 $372 $201 $204 $302 reversed $287 $-1 #
coedge $-1 $201 $372 $293 $376 forward $287 $-1 #
vertex $-1 $202 $380 #
straight-curve $-1 -44.566789757988218 -3.0629553631983768 38.45633444261405 0 0 1 I I #
straight-curve $-1 -44.566789757988218 -3.0629553631983768 1.3231068628073075 -0.84804809178421925 0 -0.52991927123019833 I I #
edge $-1 $374 -4.2289004458363593 $205 3.0629553631983768 $297 $381 forward 7 unknown #
point $-1 -44.566789757988218 -3.0629553631983768 11.134004235198224 #
point $-1 -28.866072220330206 -3.0629553631983768 11.134004235198224 #
edge $-1 $382 1 $382 0 $208 $-1 forward 7 unknown #
vertex $-1 $209 $383 #
ellipse-curve $-1 -35.70498010683005 -0.97956798918845323 4.6098958073001723 -0.52991927123019833 0 0.84804809178421925 0.84804809178421925 0 0.52991927123019833 1 I I #
point $-1 -35.868382897374971 -0.97956798918845323 6.7584748202329559 #
edge $-1 $384 1 $384 0 $212 $-1 forward 7 unknown #
vertex $-1 $213 $385 #
ellipse-curve $-1 -35.70498010683005 2.1455130718264321 4.6098958073001723 -0.52991927123019833 0 0.84804809178421925 0.84804809178421925 0 0.52991927123019833 1 I I #
point $-1 -35.868382897374971 2.1455130718264321 6.7584748202329559 #
loop $-1 $-1 $224 $216 #
plane-surface $-1 -44.566789757988218 0 0 1 0 0 0 0 -1 forward_v I I I I #
coedge $-1 $316 $219 $221 $320 reversed $139 $-1 #
coedge $-1 $219 $315 $386 $387 reversed $139 $-1 #
coedge $-1 $227 $222 $219 $318 forward $217 $-1 #
edge $-1 $321 -17.034123408286487 $388 -1.333405870628475 $317 $389 forward 7 unknown #
coedge $-1 $221 $220 $324 $390 reversed $87 $-1 #
edge $-1 $391 0 $321 18.513947133145564 $315 $392 forward 7 unknown #
vertex $-1 $223 $393 #
straight-curve $-1 -28.866072220330206 8.9427601836396562 11.134004235198224 0 1 0 I I #
coedge $-1 $386 $224 $227 $328 reversed $313 $-1 #
coedge $-1 $224 $386 $319 $390 forward $313 $-1 #
vertex $-1 $225 $394 #
straight-curve $-1 -44.566789757988218 14.239592462761944 38.45633444261405 0 0 1 I I #
straight-curve $-1 -44.566789757988218 14.239592462761944 1.3231068628073075 -0.84804809178421925 0 -0.52991927123019833 I I #
edge $-1 $388 -21.53144827179668 $228 -14.239592462761944 $323 $395 forward 7 unknown #
point $-1 -44.566789757988218 14.239592462761944 11.134004235198224 #
point $-1 -28.866072220330206 14.239592462761944 11.134004235198224 #
edge $-1 $396 1 $396 0 $231 $-1 forward 7 unknown #
vertex $-1 $232 $397 #
ellipse-curve $-1 -35.70498010683005 16.322979836771864 4.6098958073001723 -0.52991927123019833 0 0.84804809178421925 0.84804809178421925 0 0.52991927123019833 1 I I #
point $-1 -35.868382897374971 16.322979836771864 6.7584748202329559 #
edge $-1 $398 1 $398 0 $235 $-1 forward 7 unknown #
vertex $-1 $236 $399 #
ellipse-curve $-1 -35.70498010683005 19.448060897786746 4.6098958073001723 -0.52991927123019833 0 0.84804809178421925 0.84804809178421925 0 0.52991927123019833 1 I I #
point $-1 -35.868382897374971 19.448060897786746 6.7584748202329559 #
plane-surface $-1 44.566789757988218 0 0 -1 0 0 0 0 1 forward_v I I I I #
coedge $-1 $244 $242 $246 $344 reversed $161 $-1 #
edge $-1 $257 -11.134004235198224 $346 11.134004235198224 $256 $400 forward 7 unknown #
vertex $-1 $344 $401 #
straight-curve $-1 -44.566789757988218 -23.757076226165964 0 0 0 -1 I I #
edge $-1 $342 -23.757076226165964 $346 23.757076226165964 $340 $402 forward 7 unknown #
straight-curve $-1 0 -23.757076226165964 -11.134004235198224 -1 0 0 I I #
vertex $-1 $249 $403 #
straight-curve $-1 0 23.757076226165964 -11.134004235198224 1 0 0 I I #
point $-1 44.566789757988218 23.757076226165964 -11.134004235198224 #
point $-1 44.566789757988218 -23.757076226165964 -11.134004235198224 #
straight-curve $-1 -44.566789757988218 0 11.134004235198224 0 -1 0 I I #
point $-1 -44.566789757988218 23.757076226165964 11.134004235198224 #
point $-1 -44.566789757988218 -23.757076226165964 11.134004235198224 #
straight-curve $-1 44.566789757988218 -23.757076226165964 0 0 0 -1 I I #
straight-curve $-1 44.566789757988218 23.757076226165964 0 0 0 -1 I I #
plane-surface $-1 44.566789757988218 0 0 -1 0 0 0 0 1 forward_v I I I I #
coedge $-1 $404 $359 $273 $364 forward $267 $-1 #
coedge $-1 $274 $269 $404 $405 forward $180 $-1 #
edge $-1 $283 -6.4545284002056462 $406 6.4545284002056462 $281 $407 forward 7 unknown #
coedge $-1 $356 $408 $270 $360 reversed $267 $-1 #
edge $-1 $367 -44.566789757988218 $362 44.566789757988218 $359 $409 forward 7 unknown #
coedge $-1 $281 $271 $408 $410 forward $282 $-1 #
vertex $-1 $272 $411 #
straight-curve $-1 44.566789757988218 -30.21160462637161 9.9256007375736406 0 1 0 I I #
edge $-1 $367 -1.5 $365 1.5 $273 $412 forward 7 unknown #
vertex $-1 $275 $413 #
straight-curve $-1 -44.566789757988218 -30.21160462637161 6.9256007375736406 0 1 0 I I #
vertex $-1 $276 $414 #
straight-curve $-1 -44.566789757988218 -30.21160462637161 9.9256007375736406 0 -1 0 I I #
point $-1 -44.566789757988218 -23.757076226165964 6.9256007375736406 #
straight-curve $-1 0 -23.757076226165964 6.9256007375736406 -1 0 0 I I #
point $-1 44.566789757988218 -23.757076226165964 6.9256007375736406 #
coedge $-1 $298 $297 $290 $373 forward $287 $-1 #
edge $-1 $374 27.322330207415824 $377 37.133227579806743 $372 $415 forward 7 unknown #
vertex $-1 $302 $416 #
straight-curve $-1 -45.900195628616693 4.2289004458363593 11.134004235198226 -1 0 0 I I #
edge $-1 $377 -3.9374141751768637 $299 3.3544416338578724 $298 $417 forward 7 unknown #
vertex $-1 $376 $418 #
straight-curve $-1 -44.566789757988218 4.2289004458363593 1.3231068628073075 0.84804809178421925 0 0.52991927123019833 I I #
point $-1 -28.866072220330206 4.2289004458363593 11.134004235198224 #
point $-1 -44.566789757988218 -3.0629553631983768 1.3231068628073075 #
straight-curve $-1 -44.566789757988218 0 11.134004235198224 0 -1 0 I I #
vertex $-1 $305 $419 #
point $-1 -34.856932015045828 -0.97956798918845323 5.1398150785303702 #
vertex $-1 $309 $420 #
point $-1 -34.856932015045828 2.1455130718264321 5.1398150785303702 #
coedge $-1 $324 $323 $316 $387 forward $313 $-1 #
edge $-1 $388 27.322330207415824 $391 37.133227579806743 $386 $421 forward 7 unknown #
vertex $-1 $328 $422 #
straight-curve $-1 -45.900195628616693 21.53144827179668 11.134004235198226 -1 0 0 I I #
edge $-1 $391 -12.588688088157024 $325 -5.2968322791222882 $324 $423 forward 7 unknown #
vertex $-1 $390 $424 #
straight-curve $-1 -44.566789757988218 21.53144827179668 1.3231068628073075 0.84804809178421925 0 0.52991927123019833 I I #
point $-1 -28.866072220330206 21.53144827179668 11.134004235198224 #
point $-1 -44.566789757988218 14.239592462761944 1.3231068628073075 #
straight-curve $-1 -44.566789757988218 0 11.134004235198224 0 -1 0 I I #
vertex $-1 $331 $425 #
point $-1 -34.856932015045828 16.322979836771864 5.1398150785303702 #
vertex $-1 $335 $426 #
point $-1 -34.856932015045828 19.448060897786746 5.1398150785303702 #
straight-curve $-1 -44.566789757988218 23.757076226165964 0 0 0 -1 I I #
point $-1 -44.566789757988218 -23.757076226165964 -11.134004235198224 #
straight-curve $-1 -44.566789757988218 0 -11.134004235198224 0 1 0 I I #
point $-1 -44.566789757988218 23.757076226165964 -11.134004235198224 #
coedge $-1 $408 $356 $357 $405 reversed $267 $-1 #
edge $-1 $406 -44.566789757988218 $365 44.566789757988218 $404 $427 forward 7 unknown #
vertex $-1 $410 $428 #
straight-curve $-1 44.566789757988218 -30.21160462637161 6.9256007375736406 0 -1 0 I I #
coedge $-1 $359 $404 $361 $410 reversed $267 $-1 #
straight-curve $-1 0 -36.666133026577256 9.9256007375736406 1 0 0 I I #
edge $-1 $362 -1.5 $406 1.5 $361 $429 forward 7 unknown #
point $-1 44.566789757988218 -36.666133026577256 9.9256007375736406 #
straight-curve $-1 -44.566789757988218 -36.666133026577256 8.4256007375736406 0 0 -1 I I #
point $-1 -44.566789757988218 -36.666133026577256 6.9256007375736406 #
point $-1 -44.566789757988218 -36.666133026577256 9.9256007375736406 #
straight-curve $-1 -44.566789757988218 4.2289004458363593 38.45633444261405 0 0 -1 I I #
point $-1 -44.566789757988218 4.2289004458363593 11.134004235198224 #
straight-curve $-1 -44.566789757988218 0.29148627065949562 1.3231068628073082 0 -1 0 I I #
point $-1 -44.566789757988218 4.2289004458363593 1.3231068628073075 #
point $-1 -35.175060835599851 -0.97956798918845323 3.7618477155159527 #
point $-1 -35.175060835599851 2.1455130718264321 3.7618477155159527 #
straight-curve $-1 -44.566789757988218 21.53144827179668 38.45633444261405 0 0 -1 I I #
point $-1 -44.566789757988218 21.53144827179668 11.134004235198224 #
straight-curve $-1 -44.566789757988218 8.9427601836396562 1.3231068628073082 0 -1 0 I I #
point $-1 -44.566789757988218 21.53144827179668 1.3231068628073075 #
point $-1 -35.175060835599851 16.322979836771864 3.7618477155159527 #
point $-1 -35.175060835599851 19.448060897786746 3.7618477155159527 #
straight-curve $-1 0 -36.666133026577256 6.9256007375736406 -1 0 0 I I #
point $-1 44.566789757988218 -36.666133026577256 6.9256007375736406 #
straight-curve $-1 44.566789757988218 -36.666133026577256 8.4256007375736406 0 0 -1 I I #
End-of-ACIS-data 