500 0 4 0           
7 Unknown 11 ACIS 5.0 NT 24 Thu Mar 25 22:24:20 1999 
-1 9.9999999999999995e-007 1e-010 
body $-1 $4 $-1 $5 #
body $-1 $6 $-1 $7 #
body $-1 $8 $-1 $9 #
body $-1 $10 $-1 $11 #
lump $-1 $-1 $12 $0 #
transform $-1 1 0 0 0 1 0 0 0 1 61.785332804345835 40.353457100513467 17.352590001628617 1 rotate no_reflect no_shear #
lump $-1 $-1 $13 $1 #
transform $-1 1 0 0 0 1 0 0 0 1 61.785332804345835 40.353457100513467 17.352590001628617 1 rotate no_reflect no_shear #
lump $-1 $-1 $14 $2 #
transform $-1 1 0 0 0 1 0 0 0 1 61.785332804345835 40.353457100513467 17.352590001628617 1 rotate no_reflect no_shear #
lump $-1 $-1 $15 $3 #
transform $-1 1 0 0 0 1 0 0 0 1 61.785332804345835 40.353457100513467 17.352590001628617 1 rotate no_reflect no_shear #
shell $-1 $-1 $-1 $16 $-1 $4 #
shell $-1 $-1 $-1 $17 $-1 $6 #
shell $-1 $-1 $-1 $18 $-1 $8 #
shell $-1 $-1 $-1 $19 $-1 $10 #
face $-1 $20 $21 $12 $-1 $22 forward single #
face $-1 $23 $24 $13 $-1 $25 forward single #
face $-1 $26 $27 $14 $-1 $28 reversed single #
face $-1 $29 $30 $15 $-1 $31 forward single #
face $-1 $32 $33 $12 $-1 $34 reversed single #
loop $-1 $-1 $35 $16 #
plane-surface $-1 0 0 17.352590001628617 0 0 1 1 0 0 forward_v I I I I #
face $-1 $36 $37 $13 $-1 $38 reversed single #
loop $-1 $-1 $39 $17 #
plane-surface $-1 0 -40.353457100513467 0 0 1 0 0 0 1 forward_v I I I I #
face $-1 $40 $41 $14 $-1 $42 reversed single #
loop $-1 $-1 $43 $18 #
plane-surface $-1 37.464095884193135 33.273410487889784 174.33537423971902 0 1 0 0.6018150307709319 0 0.79863550430605224 forward_v I I I I #
face $-1 $44 $45 $15 $-1 $46 forward single #
loop $-1 $47 $48 $19 #
cone-surface $-1 50.234851713893015 36.813433794201629 8.1402967296664119 -0.6018150307709319 0 -0.79863550430605224 1.1979532564590785 0 -0.90272254615639791 1 I I 0 1 1.5 forward I I I I #
face $-1 $49 $50 $12 $-1 $51 reversed single #
loop $-1 $-1 $52 $20 #
plane-surface $-1 0 0 -17.352590001628617 0 0 1 1 0 0 forward_v I I I I #
coedge $-1 $53 $54 $55 $56 forward $21 $-1 #
face $-1 $57 $58 $13 $-1 $59 reversed single #
loop $-1 $-1 $60 $23 #
plane-surface $-1 0 0 -17.352590001628617 0 0 1 1 0 0 forward_v I I I I #
coedge $-1 $61 $62 $63 $64 forward $24 $-1 #
face $-1 $65 $66 $14 $-1 $67 reversed single #
loop $-1 $-1 $68 $26 #
plane-surface $-1 -36.902588041486176 36.813433794201629 75.647453393887005 0.6018150307709319 0 0.79863550430605224 0.79863550430605224 0 -0.6018150307709319 forward_v I I I I #
coedge $-1 $69 $70 $71 $72 reversed $27 $-1 #
face $-1 $-1 $73 $15 $-1 $74 forward single #
loop $-1 $75 $76 $29 #
cone-surface $-1 48.897022245140072 36.813433794201629 6.3649370961851339 -0.6018150307709319 0 -0.79863550430605224 0.59897662822953923 0 -0.45136127307819895 1 I I -0.70710678118654757 0.70710678118654757 0.75 forward I I I I #
loop $-1 $-1 $77 $19 #
coedge $-1 $48 $48 $78 $79 reversed $30 $-1 #
face $-1 $80 $81 $12 $-1 $82 reversed single #
loop $-1 $-1 $83 $32 #
plane-surface $-1 0 -40.353457100513467 0 0 1 0 0 0 1 forward_v I I I I #
coedge $-1 $84 $85 $86 $87 forward $33 $-1 #
coedge $-1 $88 $35 $89 $90 forward $21 $-1 #
coedge $-1 $35 $88 $91 $92 forward $21 $-1 #
coedge $-1 $93 $94 $35 $56 reversed $95 $-1 #
edge $-1 $96 -40.353457100513467 $97 40.353457100513467 $55 $98 forward 7 unknown #
face $-1 $99 $100 $13 $-1 $101 reversed single #
loop $-1 $-1 $102 $36 #
plane-surface $-1 -39.742720011369059 -62.672381979661324 0 0 1 0 0 0 1 forward_v I I I I #
coedge $-1 $103 $104 $62 $105 forward $37 $-1 #
coedge $-1 $106 $39 $107 $108 reversed $24 $-1 #
coedge $-1 $39 $106 $60 $105 reversed $24 $-1 #
coedge $-1 $109 $110 $39 $64 reversed $100 $-1 #
edge $-1 $111 -17.352590001628617 $112 17.352590001628617 $63 $113 forward 7 unknown #
face $-1 $114 $115 $14 $-1 $116 forward single #
loop $-1 $-1 $117 $40 #
plane-surface $-1 0 40.353457100513467 0 0 -1 0 0 0 -1 forward_v I I I I #
coedge $-1 $118 $119 $120 $121 reversed $41 $-1 #
coedge $-1 $70 $43 $122 $123 reversed $27 $-1 #
coedge $-1 $43 $69 $118 $124 reversed $27 $-1 #
coedge $-1 $120 $125 $43 $72 forward $126 $-1 #
edge $-1 $127 69.815097118230895 $128 85.886917651651814 $71 $129 forward 7 unknown #
loop $-1 $-1 $78 $44 #
plane-surface $-1 -36.902588041486176 36.813433794201629 75.647453393887005 0.6018150307709319 0 0.79863550430605224 0.79863550430605224 0 -0.6018150307709319 forward_v I I I I #
loop $-1 $-1 $130 $29 #
coedge $-1 $76 $76 $77 $131 reversed $45 $-1 #
coedge $-1 $77 $77 $76 $131 forward $47 $-1 #
coedge $-1 $78 $78 $48 $79 forward $73 $-1 #
edge $-1 $132 0 $132 6.2831853071796004 $78 $133 forward 7 unknown #
face $-1 $134 $135 $12 $-1 $136 reversed single #
loop $-1 $-1 $137 $49 #
plane-surface $-1 -61.785332804345835 0 0 1 0 0 0 0 -1 forward_v I I I I #
coedge $-1 $138 $91 $139 $140 forward $50 $-1 #
coedge $-1 $141 $52 $138 $142 forward $33 $-1 #
coedge $-1 $52 $141 $143 $144 forward $33 $-1 #
coedge $-1 $94 $93 $52 $87 reversed $95 $-1 #
edge $-1 $145 -40.353457100513467 $146 40.353457100513467 $86 $147 forward 7 unknown #
coedge $-1 $54 $53 $148 $149 forward $21 $-1 #
coedge $-1 $150 $151 $53 $90 reversed $135 $-1 #
edge $-1 $97 -61.785332804345835 $152 61.785332804345835 $89 $153 forward 7 unknown #
coedge $-1 $83 $154 $54 $92 reversed $50 $-1 #
edge $-1 $155 -61.785332804345835 $96 61.785332804345835 $91 $156 forward 7 unknown #
coedge $-1 $86 $55 $154 $157 forward $95 $-1 #
coedge $-1 $55 $86 $150 $158 reversed $95 $-1 #
loop $-1 $-1 $93 $134 #
vertex $-1 $56 $159 #
vertex $-1 $56 $160 #
straight-curve $-1 61.785332804345835 0 17.352590001628617 0 1 0 I I #
face $-1 $161 $162 $13 $-1 $163 reversed single #
loop $-1 $-1 $63 $57 #
plane-surface $-1 -43.284042213581365 -51.512919540087395 0 1 0 0 0 0 -1 forward_v I I I I #
coedge $-1 $164 $165 $166 $167 forward $58 $-1 #
coedge $-1 $168 $60 $169 $170 forward $37 $-1 #
coedge $-1 $60 $168 $109 $171 forward $37 $-1 #
edge $-1 $111 -43.284042213581365 $172 -36.201397809156752 $60 $173 forward 7 unknown #
coedge $-1 $62 $61 $174 $175 forward $24 $-1 #
coedge $-1 $176 $177 $61 $108 forward $178 $-1 #
edge $-1 $179 36.201397809156752 $112 43.284042213581365 $107 $180 forward 7 unknown #
coedge $-1 $166 $63 $104 $171 reversed $100 $-1 #
coedge $-1 $63 $166 $176 $181 reversed $100 $-1 #
vertex $-1 $105 $182 #
vertex $-1 $181 $183 #
straight-curve $-1 -43.284042213581365 -40.353457100513467 0 0 0 1 I I #
face $-1 $-1 $126 $14 $-1 $184 reversed single #
loop $-1 $-1 $185 $65 #
plane-surface $-1 0 0 17.352590001628617 0 0 1 1 0 0 forward_v I I I I #
coedge $-1 $186 $187 $119 $188 forward $66 $-1 #
coedge $-1 $189 $68 $70 $124 forward $41 $-1 #
coedge $-1 $68 $189 $117 $188 reversed $41 $-1 #
coedge $-1 $190 $71 $68 $121 forward $126 $-1 #
edge $-1 $128 14.866693590788969 $191 21.946740203412652 $120 $192 forward 7 unknown #
coedge $-1 $193 $185 $69 $123 forward $115 $-1 #
edge $-1 $194 21.725259072693088 $127 43.053284862249271 $122 $195 forward 7 unknown #
edge $-1 $128 -123.57066560869168 $194 -96.865083807531377 $70 $196 forward 7 unknown #
coedge $-1 $71 $190 $193 $197 reversed $126 $-1 #
loop $-1 $-1 $120 $114 #
vertex $-1 $197 $198 #
vertex $-1 $72 $199 #
straight-curve $-1 61.785332804345835 33.273410487889784 87.167687119859508 0 0 -1 I I #
coedge $-1 $130 $130 $-1 $200 reversed $75 $-1 #
edge $-1 $201 0 $201 6.2831853071796004 $76 $202 forward 7 unknown #
vertex $-1 $79 $203 #
ellipse-curve $-1 51.12131990956776 36.813433794201629 9.3166797349181465 0.6018150307709319 0 0.79863550430605224 1.1979532564590785 0 -0.90272254615639791 1 I I #
face $-1 $-1 $95 $12 $-1 $204 reversed single #
loop $-1 $-1 $150 $80 #
plane-surface $-1 0 40.353457100513467 0 0 -1 0 0 0 -1 forward_v I I I I #
coedge $-1 $205 $148 $151 $206 forward $81 $-1 #
coedge $-1 $154 $83 $84 $142 reversed $50 $-1 #
coedge $-1 $148 $205 $83 $140 reversed $81 $-1 #
edge $-1 $155 -17.352590001628617 $207 17.352590001628617 $139 $208 forward 7 unknown #
coedge $-1 $85 $84 $205 $209 forward $33 $-1 #
edge $-1 $146 -61.785332804345835 $207 61.785332804345835 $138 $210 forward 7 unknown #
coedge $-1 $151 $150 $85 $144 reversed $135 $-1 #
edge $-1 $211 -61.785332804345835 $145 61.785332804345835 $143 $212 forward 7 unknown #
vertex $-1 $87 $213 #
vertex $-1 $157 $214 #
straight-curve $-1 61.785332804345835 0 -17.352590001628617 0 -1 0 I I #
coedge $-1 $137 $139 $88 $149 reversed $81 $-1 #
edge $-1 $152 -40.353457100513467 $155 40.353457100513467 $148 $215 forward 7 unknown #
coedge $-1 $143 $89 $94 $158 forward $135 $-1 #
coedge $-1 $89 $143 $137 $206 reversed $135 $-1 #
vertex $-1 $90 $216 #
straight-curve $-1 0 40.353457100513467 17.352590001628617 -1 0 0 I I #
coedge $-1 $91 $138 $93 $157 reversed $50 $-1 #
vertex $-1 $149 $217 #
straight-curve $-1 0 -40.353457100513467 17.352590001628617 1 0 0 I I #
edge $-1 $96 -17.352590001628617 $146 17.352590001628617 $93 $218 forward 7 unknown #
edge $-1 $97 -17.352590001628617 $145 17.352590001628617 $94 $219 forward 7 unknown #
point $-1 61.785332804345835 -40.353457100513467 17.352590001628617 #
point $-1 61.785332804345835 40.353457100513467 17.352590001628617 #
face $-1 $-1 $178 $13 $-1 $220 forward single #
loop $-1 $-1 $221 $99 #
plane-surface $-1 -36.201397809156752 -51.512919540087395 0 -1 0 0 0 0 1 forward_v I I I I #
coedge $-1 $222 $102 $168 $223 reversed $58 $-1 #
coedge $-1 $102 $222 $224 $225 reversed $58 $-1 #
coedge $-1 $110 $109 $102 $167 reversed $100 $-1 #
edge $-1 $226 -17.352590001628617 $227 17.352590001628617 $166 $228 forward 7 unknown #
coedge $-1 $104 $103 $164 $223 forward $37 $-1 #
coedge $-1 $174 $221 $103 $170 reversed $162 $-1 #
edge $-1 $172 -11.159462439573929 $229 11.159462439573929 $169 $230 forward 7 unknown #
edge $-1 $227 -11.159462439573929 $111 11.159462439573929 $109 $231 forward 7 unknown #
vertex $-1 $170 $232 #
straight-curve $-1 0 -40.353457100513467 -17.352590001628617 1 0 0 I I #
coedge $-1 $233 $169 $106 $175 reversed $162 $-1 #
edge $-1 $179 -17.352590001628617 $172 17.352590001628617 $174 $234 forward 7 unknown #
coedge $-1 $224 $107 $110 $181 forward $178 $-1 #
coedge $-1 $107 $224 $233 $235 forward $178 $-1 #
loop $-1 $-1 $107 $161 #
vertex $-1 $108 $236 #
straight-curve $-1 0 -40.353457100513467 17.352590001628617 -1 0 0 I I #
edge $-1 $112 -11.159462439573929 $226 11.159462439573929 $110 $237 forward 7 unknown #
point $-1 -43.284042213581365 -40.353457100513467 -17.352590001628617 #
point $-1 -43.284042213581365 -40.353457100513467 17.352590001628617 #
plane-surface $-1 61.785332804345835 0 0 -1 0 0 0 0 1 forward_v I I I I #
coedge $-1 $122 $238 $189 $239 forward $115 $-1 #
coedge $-1 $187 $117 $238 $240 reversed $66 $-1 #
coedge $-1 $117 $186 $190 $241 forward $66 $-1 #
edge $-1 $191 -86.0719198573439 $242 -59.366338056183608 $117 $243 forward 7 unknown #
coedge $-1 $119 $118 $185 $239 reversed $41 $-1 #
coedge $-1 $125 $120 $187 $241 reversed $126 $-1 #
vertex $-1 $121 $244 #
straight-curve $-1 61.785332804345828 18.406716897100814 1.2807694682077013 0 1 0 I I #
coedge $-1 $238 $122 $125 $197 forward $115 $-1 #
vertex $-1 $123 $245 #
straight-curve $-1 18.732047942096568 33.273410487889784 17.352590001628613 1 0 0 I I #
straight-curve $-1 -36.902588041486176 33.273410487889784 75.647453393887005 -0.79863550430605224 0 0.6018150307709319 I I #
edge $-1 $127 33.273410487889784 $246 40.353457100513467 $125 $247 forward 7 unknown #
point $-1 61.785332804345835 33.273410487889784 17.352590001628617 #
point $-1 61.785332804345835 33.273410487889784 1.2807694682076942 #
edge $-1 $248 1 $248 0 $130 $-1 forward 7 unknown #
vertex $-1 $131 $249 #
ellipse-curve $-1 49.34838351821827 36.813433794201629 6.9639137244146729 0.6018150307709319 0 0.79863550430605224 1.1979532564590785 0 -0.90272254615639791 1 I I #
point $-1 52.319273166026839 36.813433794201629 8.4139571887617546 #
plane-surface $-1 61.785332804345835 0 0 -1 0 0 0 0 1 forward_v I I I I #
coedge $-1 $139 $137 $141 $209 reversed $81 $-1 #
edge $-1 $152 -17.352590001628617 $211 17.352590001628617 $151 $250 forward 7 unknown #
vertex $-1 $209 $251 #
straight-curve $-1 -61.785332804345835 -40.353457100513467 0 0 0 -1 I I #
edge $-1 $207 -40.353457100513467 $211 40.353457100513467 $205 $252 forward 7 unknown #
straight-curve $-1 0 -40.353457100513467 -17.352590001628617 -1 0 0 I I #
vertex $-1 $144 $253 #
straight-curve $-1 0 40.353457100513467 -17.352590001628617 1 0 0 I I #
point $-1 61.785332804345835 40.353457100513467 -17.352590001628617 #
point $-1 61.785332804345835 -40.353457100513467 -17.352590001628617 #
straight-curve $-1 -61.785332804345835 0 17.352590001628617 0 -1 0 I I #
point $-1 -61.785332804345835 40.353457100513467 17.352590001628617 #
point $-1 -61.785332804345835 -40.353457100513467 17.352590001628617 #
straight-curve $-1 61.785332804345835 -40.353457100513467 0 0 0 -1 I I #
straight-curve $-1 61.785332804345835 40.353457100513467 0 0 0 -1 I I #
plane-surface $-1 0 0 17.352590001628617 0 0 1 1 0 0 forward_v I I I I #
coedge $-1 $169 $233 $222 $254 forward $162 $-1 #
coedge $-1 $165 $164 $221 $254 reversed $58 $-1 #
edge $-1 $229 -3.5413222022123065 $227 3.5413222022123065 $164 $255 forward 7 unknown #
coedge $-1 $177 $176 $165 $225 forward $178 $-1 #
edge $-1 $226 -3.5413222022123065 $256 3.5413222022123065 $165 $257 forward 7 unknown #
vertex $-1 $181 $258 #
vertex $-1 $171 $259 #
straight-curve $-1 -43.284042213581365 -62.672381979661324 0 0 0 -1 I I #
vertex $-1 $254 $260 #
straight-curve $-1 -36.201397809156752 -51.512919540087395 -17.352590001628617 0 -1 0 I I #
straight-curve $-1 -43.284042213581365 -51.512919540087395 -17.352590001628617 0 1 0 I I #
point $-1 -36.201397809156752 -40.353457100513467 -17.352590001628617 #
coedge $-1 $221 $174 $177 $235 reversed $162 $-1 #
straight-curve $-1 -36.201397809156752 -40.353457100513467 0 0 0 -1 I I #
edge $-1 $256 -11.159462439573929 $179 11.159462439573929 $233 $261 forward 7 unknown #
point $-1 -36.201397809156752 -40.353457100513467 17.352590001628617 #
straight-curve $-1 -43.284042213581365 -51.512919540087395 17.352590001628617 0 -1 0 I I #
coedge $-1 $185 $193 $186 $240 forward $115 $-1 #
edge $-1 $242 -21.946740203412659 $194 -14.866693590788969 $185 $262 forward 7 unknown #
edge $-1 $246 -61.785332804345835 $242 -40.457307014789656 $186 $263 forward 7 unknown #
edge $-1 $246 -17.352590001628617 $191 -1.2807694682077024 $190 $264 forward 7 unknown #
vertex $-1 $239 $265 #
straight-curve $-1 -6.9547583175141128 40.353457100513467 53.080144565668299 -0.79863550430605224 0 0.6018150307709319 I I #
point $-1 61.785332804345835 40.353457100513467 1.2807694682077024 #
point $-1 40.457307014789656 33.273410487889784 17.352590001628613 #
vertex $-1 $197 $266 #
straight-curve $-1 61.785332804345835 0 17.352590001628617 0 1 0 I I #
vertex $-1 $200 $267 #
point $-1 50.54633677467735 36.813433794201629 6.0611911782582748 #
straight-curve $-1 -61.785332804345835 40.353457100513467 0 0 0 -1 I I #
point $-1 -61.785332804345835 -40.353457100513467 -17.352590001628617 #
straight-curve $-1 -61.785332804345835 0 -17.352590001628617 0 1 0 I I #
point $-1 -61.785332804345835 40.353457100513467 -17.352590001628617 #
edge $-1 $256 -17.352590001628617 $229 17.352590001628617 $221 $268 forward 7 unknown #
straight-curve $-1 -39.742720011369059 -62.672381979661324 -17.352590001628617 -1 0 0 I I #
vertex $-1 $235 $269 #
straight-curve $-1 -39.742720011369059 -62.672381979661324 17.352590001628617 1 0 0 I I #
point $-1 -43.284042213581365 -62.672381979661324 17.352590001628617 #
point $-1 -43.284042213581365 -62.672381979661324 -17.352590001628617 #
point $-1 -36.201397809156752 -62.672381979661324 -17.352590001628617 #
straight-curve $-1 -36.201397809156752 -51.512919540087395 17.352590001628617 0 1 0 I I #
straight-curve $-1 40.45730701478967 18.406716897100814 17.352590001628613 0 -1 0 I I #
straight-curve $-1 0 40.353457100513467 17.352590001628617 -1 0 0 I I #
straight-curve $-1 61.785332804345835 40.353457100513467 0 0 0 -1 I I #
point $-1 40.457307014789656 40.353457100513474 17.352590001628613 #
point $-1 61.785332804345835 40.353457100513467 17.352590001628617 #
point $-1 48.445660972061873 36.813433794201629 5.7659604679555949 #
straight-curve $-1 -36.201397809156752 -62.672381979661324 0 0 0 -1 I I #
point $-1 -36.201397809156752 -62.672381979661324 17.352590001628617 #
End-of-ACIS-data 