500 0 11 0           
7 Unknown 11 ACIS 5.0 NT 24 Fri Mar 26 19:40:02 1999 
-1 9.9999999999999995e-007 1e-010 
body $-1 $11 $-1 $12 #
body $-1 $13 $-1 $14 #
body $-1 $15 $-1 $16 #
body $-1 $17 $-1 $18 #
body $-1 $19 $-1 $20 #
body $-1 $21 $-1 $22 #
body $-1 $23 $-1 $24 #
body $-1 $25 $-1 $26 #
body $-1 $27 $-1 $28 #
body $-1 $29 $-1 $30 #
body $-1 $31 $-1 $32 #
lump $-1 $-1 $33 $0 #
transform $-1 1 0 0 0 1 0 0 0 1 43.761101107821894 22.404476453889536 7.7112095874408828 1 rotate no_reflect no_shear #
lump $-1 $-1 $34 $1 #
transform $-1 1 0 0 0 1 0 0 0 1 43.761101107821894 22.404476453889536 7.7112095874408828 1 rotate no_reflect no_shear #
lump $-1 $-1 $35 $2 #
transform $-1 1 0 0 0 1 0 0 0 1 43.761101107821894 22.404476453889536 7.7112095874408828 1 rotate no_reflect no_shear #
lump $-1 $-1 $36 $3 #
transform $-1 1 0 0 0 1 0 0 0 1 43.761101107821894 22.404476453889536 7.7112095874408828 1 rotate no_reflect no_shear #
lump $-1 $-1 $37 $4 #
transform $-1 1 0 0 0 1 0 0 0 1 43.761101107821894 22.404476453889536 7.7112095874408828 1 rotate no_reflect no_shear #
lump $-1 $-1 $38 $5 #
transform $-1 1 0 0 0 1 0 0 0 1 43.761101107821894 22.404476453889536 7.7112095874408828 1 rotate no_reflect no_shear #
lump $-1 $-1 $39 $6 #
transform $-1 1 0 0 0 1 0 0 0 1 43.761101107821894 22.404476453889536 7.7112095874408828 1 rotate no_reflect no_shear #
lump $-1 $-1 $40 $7 #
transform $-1 1 0 0 0 1 0 0 0 1 43.761101107821894 22.404476453889536 7.7112095874408828 1 rotate no_reflect no_shear #
lump $-1 $-1 $41 $8 #
transform $-1 1 0 0 0 1 0 0 0 1 43.761101107821894 22.404476453889536 7.7112095874408828 1 rotate no_reflect no_shear #
lump $-1 $-1 $42 $9 #
transform $-1 1 0 0 0 1 0 0 0 1 43.761101107821894 22.404476453889536 7.7112095874408828 1 rotate no_reflect no_shear #
lump $-1 $-1 $43 $10 #
transform $-1 1 0 0 0 1 0 0 0 1 43.761101107821894 22.404476453889536 7.7112095874408828 1 rotate no_reflect no_shear #
shell $-1 $-1 $-1 $44 $-1 $11 #
shell $-1 $-1 $-1 $45 $-1 $13 #
shell $-1 $-1 $-1 $46 $-1 $15 #
shell $-1 $-1 $-1 $47 $-1 $17 #
shell $-1 $-1 $-1 $48 $-1 $19 #
shell $-1 $-1 $-1 $49 $-1 $21 #
shell $-1 $-1 $-1 $50 $-1 $23 #
shell $-1 $-1 $-1 $51 $-1 $25 #
shell $-1 $-1 $-1 $52 $-1 $27 #
shell $-1 $-1 $-1 $53 $-1 $29 #
shell $-1 $-1 $-1 $54 $-1 $31 #
face $-1 $55 $56 $33 $-1 $57 reversed single #
face $-1 $58 $59 $34 $-1 $60 forward single #
face $-1 $61 $62 $35 $-1 $63 forward single #
face $-1 $64 $65 $36 $-1 $66 reversed single #
face $-1 $67 $68 $37 $-1 $69 forward single #
face $-1 $70 $71 $38 $-1 $72 forward single #
face $-1 $73 $74 $39 $-1 $75 forward single #
face $-1 $76 $77 $40 $-1 $78 reversed single #
face $-1 $79 $80 $41 $-1 $81 forward single #
face $-1 $82 $83 $42 $-1 $84 forward single #
face $-1 $85 $86 $43 $-1 $87 forward single #
face $-1 $88 $89 $33 $-1 $90 forward single #
loop $-1 $-1 $91 $44 #
plane-surface $-1 0 22.404476453889536 0 0 -1 0 0 0 -1 forward_v I I I I #
face $-1 $92 $93 $34 $-1 $94 reversed single #
loop $-1 $-1 $95 $45 #
plane-surface $-1 0 -19.068262232872414 -4.1320994421253703 0 0 1 1 0 0 forward_v I I I I #
face $-1 $96 $97 $35 $-1 $98 reversed single #
loop $-1 $-1 $99 $46 #
plane-surface $-1 0 22.404476453889536 0 0 -1 0 0 0 -1 forward_v I I I I #
face $-1 $100 $101 $36 $-1 $102 reversed single #
loop $-1 $-1 $103 $47 #
plane-surface $-1 -101.1808328067973 -6.8915054452674607 69.317629331081164 0 1 0 -0.6560590369687036 0 0.75470957328743171 forward_v I I I I #
face $-1 $104 $105 $37 $-1 $106 forward single #
loop $-1 $107 $108 $48 #
cone-surface $-1 -40.874983529738408 -5.4118109046215181 5.1101427289448855 0.6560590369687036 0 -0.75470957328743171 0.18867739332185793 0 0.1640147592421759 1 I I 0 1 0.25 forward I I I I #
face $-1 $109 $110 $38 $-1 $111 forward single #
loop $-1 $112 $113 $49 #
cone-surface $-1 -40.874983529738408 -3.1922690936526088 5.1101427289448855 0.6560590369687036 0 -0.75470957328743171 0.18867739332185793 0 0.1640147592421759 1 I I 0 1 0.25 forward I I I I #
face $-1 $114 $115 $39 $-1 $116 forward single #
loop $-1 $117 $118 $50 #
cone-surface $-1 -40.874983529738408 -0.97272728268369946 5.1101427289448855 0.6560590369687036 0 -0.75470957328743171 0.18867739332185793 0 0.1640147592421759 1 I I 0 1 0.25 forward I I I I #
face $-1 $119 $120 $40 $-1 $121 reversed single #
loop $-1 $-1 $122 $51 #
plane-surface $-1 -43.761101107821901 -3.1922690936526124 3.2637854437363245 -0.6560590369687036 0 0.75470957328743171 0.75470957328743171 0 0.6560590369687036 forward_v I I I I #
face $-1 $123 $124 $41 $-1 $125 forward single #
loop $-1 $126 $127 $52 #
cone-surface $-1 -40.874983529738408 1.9866617986081785 5.1101427289448855 0.6560590369687036 0 -0.75470957328743171 0.18867739332185793 0 0.1640147592421759 1 I I 0 1 0.25 forward I I I I #
face $-1 $128 $129 $42 $-1 $130 forward single #
loop $-1 $131 $132 $53 #
cone-surface $-1 -40.874983529738408 4.2062036095770878 5.1101427289448855 0.6560590369687036 0 -0.75470957328743171 0.18867739332185793 0 0.1640147592421759 1 I I 0 1 0.25 forward I I I I #
face $-1 $133 $134 $43 $-1 $135 forward single #
loop $-1 $136 $137 $54 #
cone-surface $-1 -40.874983529738408 6.4257454205459972 5.1101427289448855 0.6560590369687036 0 -0.75470957328743171 0.18867739332185793 0 0.1640147592421759 1 I I 0 1 0.25 forward I I I I #
face $-1 $138 $139 $33 $-1 $140 reversed single #
loop $-1 $-1 $141 $55 #
plane-surface $-1 0 0 7.7112095874408828 0 0 1 1 0 0 forward_v I I I I #
coedge $-1 $142 $143 $144 $145 reversed $56 $-1 #
face $-1 $146 $147 $34 $-1 $148 reversed single #
loop $-1 $-1 $149 $58 #
plane-surface $-1 0 -15.732048011855291 -5.9216545147831265 0 -1 0 0 0 -1 forward_v I I I I #
coedge $-1 $150 $151 $152 $153 reversed $59 $-1 #
face $-1 $154 $155 $35 $-1 $156 reversed single #
loop $-1 $-1 $157 $61 #
plane-surface $-1 0 0 -7.7112095874408828 0 0 1 1 0 0 forward_v I I I I #
coedge $-1 $158 $159 $160 $161 forward $62 $-1 #
face $-1 $162 $163 $36 $-1 $164 reversed single #
loop $-1 $-1 $165 $64 #
plane-surface $-1 -43.761101107821901 -3.1922690936526124 3.2637854437363245 -0.6560590369687036 0 0.75470957328743171 0.75470957328743171 0 0.6560590369687036 forward_v I I I I #
coedge $-1 $166 $167 $168 $169 reversed $65 $-1 #
face $-1 $-1 $170 $37 $-1 $171 forward single #
loop $-1 $172 $173 $67 #
cone-surface $-1 -40.464946631632969 -5.4118109046215181 4.6384492456402411 0.6560590369687036 0 -0.75470957328743171 0.094338696660928964 0 0.08200737962108795 1 I I -0.70710678118654746 0.70710678118654746 0.125 forward I I I I #
loop $-1 $-1 $174 $48 #
coedge $-1 $108 $108 $175 $176 reversed $68 $-1 #
face $-1 $-1 $177 $38 $-1 $178 forward single #
loop $-1 $179 $180 $70 #
cone-surface $-1 -40.464946631632969 -3.1922690936526088 4.6384492456402411 0.6560590369687036 0 -0.75470957328743171 0.094338696660928964 0 0.08200737962108795 1 I I -0.70710678118654746 0.70710678118654746 0.125 forward I I I I #
loop $-1 $-1 $181 $49 #
coedge $-1 $113 $113 $182 $183 reversed $71 $-1 #
face $-1 $-1 $184 $39 $-1 $185 forward single #
loop $-1 $186 $187 $73 #
cone-surface $-1 -40.464946631632969 -0.97272728268369946 4.6384492456402411 0.6560590369687036 0 -0.75470957328743171 0.094338696660928964 0 0.08200737962108795 1 I I -0.70710678118654746 0.70710678118654746 0.125 forward I I I I #
loop $-1 $-1 $188 $50 #
coedge $-1 $118 $118 $189 $190 reversed $74 $-1 #
face $-1 $191 $192 $40 $-1 $193 forward single #
loop $-1 $-1 $194 $76 #
plane-surface $-1 -101.1808328067973 7.9054399611919326 69.317629331081164 0 -1 0 0.6560590369687036 0 -0.75470957328743171 forward_v I I I I #
coedge $-1 $195 $196 $197 $198 reversed $77 $-1 #
face $-1 $-1 $199 $41 $-1 $200 forward single #
loop $-1 $201 $202 $79 #
cone-surface $-1 -40.464946631632969 1.9866617986081785 4.6384492456402411 0.6560590369687036 0 -0.75470957328743171 0.094338696660928964 0 0.08200737962108795 1 I I -0.70710678118654746 0.70710678118654746 0.125 forward I I I I #
loop $-1 $-1 $203 $52 #
coedge $-1 $127 $127 $204 $205 reversed $80 $-1 #
face $-1 $-1 $206 $42 $-1 $207 forward single #
loop $-1 $208 $209 $82 #
cone-surface $-1 -40.464946631632969 4.2062036095770878 4.6384492456402411 0.6560590369687036 0 -0.75470957328743171 0.094338696660928964 0 0.08200737962108795 1 I I -0.70710678118654746 0.70710678118654746 0.125 forward I I I I #
loop $-1 $-1 $210 $53 #
coedge $-1 $132 $132 $211 $212 reversed $83 $-1 #
face $-1 $-1 $213 $43 $-1 $214 forward single #
loop $-1 $215 $216 $85 #
cone-surface $-1 -40.464946631632969 6.4257454205459972 4.6384492456402411 0.6560590369687036 0 -0.75470957328743171 0.094338696660928964 0 0.08200737962108795 1 I I -0.70710678118654746 0.70710678118654746 0.125 forward I I I I #
loop $-1 $-1 $217 $54 #
coedge $-1 $137 $137 $218 $219 reversed $86 $-1 #
face $-1 $220 $221 $33 $-1 $222 reversed single #
loop $-1 $-1 $223 $88 #
plane-surface $-1 0 0 -7.7112095874408828 0 0 1 1 0 0 forward_v I I I I #
coedge $-1 $224 $225 $226 $227 forward $89 $-1 #
coedge $-1 $228 $91 $229 $230 reversed $56 $-1 #
coedge $-1 $91 $228 $231 $232 forward $56 $-1 #
coedge $-1 $223 $233 $91 $145 forward $139 $-1 #
edge $-1 $234 -43.761101107821894 $235 43.761101107821894 $91 $236 forward 7 unknown #
face $-1 $237 $238 $34 $-1 $239 reversed single #
loop $-1 $-1 $240 $92 #
plane-surface $-1 0 0 -7.7112095874408828 0 0 1 1 0 0 forward_v I I I I #
coedge $-1 $241 $242 $243 $244 reversed $93 $-1 #
coedge $-1 $245 $95 $242 $246 forward $59 $-1 #
coedge $-1 $95 $245 $247 $248 reversed $59 $-1 #
coedge $-1 $249 $243 $95 $153 forward $238 $-1 #
edge $-1 $250 6.197916895419084 $251 12.87034533745333 $152 $252 forward 7 unknown #
face $-1 $253 $254 $35 $-1 $255 reversed single #
loop $-1 $-1 $256 $96 #
plane-surface $-1 -38.775303849040625 25.233723416944422 0 1 0 0 0 0 -1 forward_v I I I I #
coedge $-1 $257 $258 $159 $259 forward $97 $-1 #
coedge $-1 $260 $99 $261 $262 reversed $62 $-1 #
coedge $-1 $99 $260 $157 $259 reversed $62 $-1 #
coedge $-1 $263 $264 $99 $161 reversed $265 $-1 #
edge $-1 $266 -7.7112095874408828 $267 7.7112095874408828 $160 $268 forward 7 unknown #
face $-1 $269 $270 $36 $-1 $271 forward single #
loop $-1 $-1 $272 $100 #
plane-surface $-1 -101.1808328067973 0.50696725796223596 69.317629331081164 0 -1 0 0.6560590369687036 0 -0.75470957328743171 forward_v I I I I #
coedge $-1 $273 $274 $275 $276 reversed $101 $-1 #
coedge $-1 $167 $103 $277 $278 reversed $65 $-1 #
coedge $-1 $103 $166 $273 $279 reversed $65 $-1 #
coedge $-1 $275 $280 $103 $169 forward $270 $-1 #
edge $-1 $281 6.8293152955767553 $282 11.945491414775006 $168 $283 forward 7 unknown #
loop $-1 $-1 $175 $104 #
plane-surface $-1 -43.761101107821901 -3.1922690936526124 3.2637854437363245 -0.6560590369687036 0 0.75470957328743171 0.75470957328743171 0 0.6560590369687036 forward_v I I I I #
loop $-1 $-1 $284 $67 #
coedge $-1 $173 $173 $174 $285 reversed $105 $-1 #
coedge $-1 $174 $174 $173 $285 forward $107 $-1 #
coedge $-1 $175 $175 $108 $176 forward $170 $-1 #
edge $-1 $286 0 $286 6.2831853071796004 $175 $287 forward 7 unknown #
loop $-1 $-1 $182 $109 #
plane-surface $-1 -43.761101107821901 -3.1922690936526124 3.2637854437363245 -0.6560590369687036 0 0.75470957328743171 0.75470957328743171 0 0.6560590369687036 forward_v I I I I #
loop $-1 $-1 $288 $70 #
coedge $-1 $180 $180 $181 $289 reversed $110 $-1 #
coedge $-1 $181 $181 $180 $289 forward $112 $-1 #
coedge $-1 $182 $182 $113 $183 forward $177 $-1 #
edge $-1 $290 0 $290 6.2831853071796004 $182 $291 forward 7 unknown #
loop $-1 $-1 $189 $114 #
plane-surface $-1 -43.761101107821901 -3.1922690936526124 3.2637854437363245 -0.6560590369687036 0 0.75470957328743171 0.75470957328743171 0 0.6560590369687036 forward_v I I I I #
loop $-1 $-1 $292 $73 #
coedge $-1 $187 $187 $188 $293 reversed $115 $-1 #
coedge $-1 $188 $188 $187 $293 forward $117 $-1 #
coedge $-1 $189 $189 $118 $190 forward $184 $-1 #
edge $-1 $294 0 $294 6.2831853071796004 $189 $295 forward 7 unknown #
face $-1 $296 $297 $40 $-1 $298 forward single #
loop $-1 $-1 $299 $119 #
plane-surface $-1 0 0 7.7112095874408828 0 0 1 1 0 0 forward_v I I I I #
coedge $-1 $300 $301 $302 $303 reversed $120 $-1 #
coedge $-1 $304 $122 $305 $306 reversed $77 $-1 #
coedge $-1 $122 $304 $299 $307 reversed $77 $-1 #
coedge $-1 $308 $309 $122 $198 forward $297 $-1 #
edge $-1 $310 9.44141639987384e-015 $311 6.7789998964936391 $197 $312 forward 7 unknown #
loop $-1 $-1 $204 $123 #
plane-surface $-1 -43.761101107821901 -3.1922690936526124 3.2637854437363245 -0.6560590369687036 0 0.75470957328743171 0.75470957328743171 0 0.6560590369687036 forward_v I I I I #
loop $-1 $-1 $313 $79 #
coedge $-1 $202 $202 $203 $314 reversed $124 $-1 #
coedge $-1 $203 $203 $202 $314 forward $126 $-1 #
coedge $-1 $204 $204 $127 $205 forward $199 $-1 #
edge $-1 $315 0 $315 6.2831853071796004 $204 $316 forward 7 unknown #
loop $-1 $-1 $211 $128 #
plane-surface $-1 -43.761101107821901 -3.1922690936526124 3.2637854437363245 -0.6560590369687036 0 0.75470957328743171 0.75470957328743171 0 0.6560590369687036 forward_v I I I I #
loop $-1 $-1 $317 $82 #
coedge $-1 $209 $209 $210 $318 reversed $129 $-1 #
coedge $-1 $210 $210 $209 $318 forward $131 $-1 #
coedge $-1 $211 $211 $132 $212 forward $206 $-1 #
edge $-1 $319 0 $319 6.2831853071796004 $211 $320 forward 7 unknown #
loop $-1 $-1 $218 $133 #
plane-surface $-1 -43.761101107821901 -3.1922690936526124 3.2637854437363245 -0.6560590369687036 0 0.75470957328743171 0.75470957328743171 0 0.6560590369687036 forward_v I I I I #
loop $-1 $-1 $321 $85 #
coedge $-1 $216 $216 $217 $322 reversed $134 $-1 #
coedge $-1 $217 $217 $216 $322 forward $136 $-1 #
coedge $-1 $218 $218 $137 $219 forward $213 $-1 #
edge $-1 $323 0 $323 6.2831853071796004 $218 $324 forward 7 unknown #
face $-1 $325 $326 $33 $-1 $327 reversed single #
loop $-1 $-1 $328 $138 #
plane-surface $-1 0 -22.404476453889536 0 0 1 0 0 0 1 forward_v I I I I #
coedge $-1 $329 $144 $330 $331 forward $139 $-1 #
coedge $-1 $332 $141 $228 $333 forward $89 $-1 #
coedge $-1 $141 $332 $334 $335 forward $89 $-1 #
coedge $-1 $336 $231 $141 $227 reversed $337 $-1 #
edge $-1 $338 -22.404476453889536 $339 22.404476453889536 $226 $340 forward 7 unknown #
coedge $-1 $143 $142 $224 $333 reversed $56 $-1 #
coedge $-1 $341 $342 $142 $230 forward $326 $-1 #
edge $-1 $343 -7.7112095874408828 $234 7.7112095874408828 $142 $344 forward 7 unknown #
coedge $-1 $226 $330 $143 $232 reversed $337 $-1 #
edge $-1 $339 -7.7112095874408828 $235 7.7112095874408828 $231 $345 forward 7 unknown #
coedge $-1 $144 $329 $341 $346 forward $139 $-1 #
vertex $-1 $145 $347 #
vertex $-1 $331 $348 #
straight-curve $-1 0 22.404476453889536 -7.7112095874408828 1 0 0 I I #
face $-1 $349 $350 $34 $-1 $351 reversed single #
loop $-1 $-1 $243 $146 #
plane-surface $-1 43.761101107821894 0 0 -1 0 0 0 0 1 forward_v I I I I #
coedge $-1 $352 $353 $241 $354 forward $147 $-1 #
coedge $-1 $355 $149 $240 $354 reversed $93 $-1 #
coedge $-1 $149 $355 $150 $246 reversed $93 $-1 #
coedge $-1 $152 $356 $149 $244 forward $238 $-1 #
edge $-1 $357 -4.7503823300493195 $250 -1.171272184733807 $243 $358 forward 7 unknown #
coedge $-1 $151 $150 $359 $360 reversed $59 $-1 #
edge $-1 $250 -43.761101107821894 $361 43.761101107821894 $242 $362 forward 7 unknown #
coedge $-1 $363 $364 $151 $248 forward $350 $-1 #
edge $-1 $251 -43.761101107821894 $365 43.761101107821894 $247 $366 forward 7 unknown #
coedge $-1 $356 $152 $364 $367 forward $238 $-1 #
vertex $-1 $153 $368 #
vertex $-1 $367 $369 #
straight-curve $-1 43.761101107821894 -9.5341311164362068 -4.1320994421253703 0 -1 0 I I #
face $-1 $370 $265 $35 $-1 $371 reversed single #
loop $-1 $-1 $372 $154 #
plane-surface $-1 -37.138669214321013 28.062970379999307 0 0 -1 0 0 0 -1 forward_v I I I I #
coedge $-1 $373 $374 $375 $376 forward $155 $-1 #
coedge $-1 $377 $157 $373 $378 forward $97 $-1 #
coedge $-1 $157 $377 $263 $379 forward $97 $-1 #
edge $-1 $266 35.5020345796014 $380 38.775303849040625 $157 $381 forward 7 unknown #
coedge $-1 $159 $158 $382 $383 forward $62 $-1 #
coedge $-1 $384 $385 $158 $262 forward $386 $-1 #
edge $-1 $387 -38.775303849040625 $267 -35.5020345796014 $261 $388 forward 7 unknown #
coedge $-1 $389 $160 $258 $379 reversed $265 $-1 #
coedge $-1 $160 $389 $384 $390 reversed $265 $-1 #
loop $-1 $-1 $160 $253 #
vertex $-1 $259 $391 #
vertex $-1 $390 $392 #
straight-curve $-1 -35.5020345796014 22.404476453889536 0 0 0 1 I I #
face $-1 $-1 $393 $36 $-1 $394 reversed single #
loop $-1 $-1 $168 $162 #
plane-surface $-1 0 0 7.7112095874408828 0 0 1 1 0 0 forward_v I I I I #
coedge $-1 $395 $396 $397 $398 reversed $163 $-1 #
coedge $-1 $399 $165 $167 $279 forward $101 $-1 #
coedge $-1 $165 $399 $395 $400 forward $101 $-1 #
coedge $-1 $397 $168 $165 $276 forward $270 $-1 #
edge $-1 $282 -5.2953708984411545 $401 2.1031018047885421 $275 $402 forward 7 unknown #
coedge $-1 $403 $404 $166 $278 forward $393 $-1 #
edge $-1 $405 -31.395029221804251 $281 -26.947605078099699 $277 $406 forward 7 unknown #
edge $-1 $282 -6.7789998964936391 $405 -9.44141639987384e-015 $167 $407 forward 7 unknown #
coedge $-1 $168 $397 $403 $408 forward $270 $-1 #
vertex $-1 $278 $409 #
vertex $-1 $169 $410 #
straight-curve $-1 -50.590416403398649 -6.8915054452674607 7.7112095874408837 1 0 0 I I #
coedge $-1 $284 $284 $-1 $411 reversed $172 $-1 #
edge $-1 $412 0 $412 6.2831853071796004 $173 $413 forward 7 unknown #
vertex $-1 $176 $414 #
ellipse-curve $-1 -41.203013048222765 -5.4118109046215181 5.4874975155886085 -0.6560590369687036 0 0.75470957328743171 0.18867739332185793 0 0.1640147592421759 1 I I #
coedge $-1 $288 $288 $-1 $415 reversed $179 $-1 #
edge $-1 $416 0 $416 6.2831853071796004 $180 $417 forward 7 unknown #
vertex $-1 $183 $418 #
ellipse-curve $-1 -41.203013048222765 -3.1922690936526088 5.4874975155886085 -0.6560590369687036 0 0.75470957328743171 0.18867739332185793 0 0.1640147592421759 1 I I #
coedge $-1 $292 $292 $-1 $419 reversed $186 $-1 #
edge $-1 $420 0 $420 6.2831853071796004 $187 $421 forward 7 unknown #
vertex $-1 $190 $422 #
ellipse-curve $-1 -41.203013048222765 -0.97272728268369946 5.4874975155886085 -0.6560590369687036 0 0.75470957328743171 0.18867739332185793 0 0.1640147592421759 1 I I #
face $-1 $-1 $423 $40 $-1 $424 reversed single #
loop $-1 $-1 $308 $191 #
plane-surface $-1 -101.1808328067973 0.50696725796223596 69.317629331081164 0 -1 0 0.6560590369687036 0 -0.75470957328743171 forward_v I I I I #
coedge $-1 $302 $425 $196 $307 forward $192 $-1 #
coedge $-1 $301 $194 $304 $426 reversed $120 $-1 #
coedge $-1 $194 $300 $427 $428 reversed $120 $-1 #
coedge $-1 $429 $299 $194 $303 forward $192 $-1 #
edge $-1 $430 -11.945491414775006 $431 -6.8293152955767553 $302 $432 forward 7 unknown #
coedge $-1 $196 $195 $300 $426 forward $77 $-1 #
coedge $-1 $433 $427 $195 $306 forward $423 $-1 #
edge $-1 $434 -9.5015745080182388 $310 -2.1031018047885421 $305 $435 forward 7 unknown #
edge $-1 $311 2.1031018047885421 $430 9.5015745080182388 $299 $436 forward 7 unknown #
coedge $-1 $309 $197 $425 $437 reversed $297 $-1 #
coedge $-1 $197 $308 $433 $438 reversed $297 $-1 #
vertex $-1 $306 $439 #
vertex $-1 $307 $440 #
straight-curve $-1 -43.761101107821901 0.50696725796223596 3.2637854437363245 0.75470957328743171 0 0.6560590369687036 I I #
coedge $-1 $313 $313 $-1 $441 reversed $201 $-1 #
edge $-1 $442 0 $442 6.2831853071796004 $202 $443 forward 7 unknown #
vertex $-1 $205 $444 #
ellipse-curve $-1 -41.203013048222765 1.9866617986081785 5.4874975155886085 -0.6560590369687036 0 0.75470957328743171 0.18867739332185793 0 0.1640147592421759 1 I I #
coedge $-1 $317 $317 $-1 $445 reversed $208 $-1 #
edge $-1 $446 0 $446 6.2831853071796004 $209 $447 forward 7 unknown #
vertex $-1 $212 $448 #
ellipse-curve $-1 -41.203013048222765 4.2062036095770878 5.4874975155886085 -0.6560590369687036 0 0.75470957328743171 0.18867739332185793 0 0.1640147592421759 1 I I #
coedge $-1 $321 $321 $-1 $449 reversed $215 $-1 #
edge $-1 $450 0 $450 6.2831853071796004 $216 $451 forward 7 unknown #
vertex $-1 $219 $452 #
ellipse-curve $-1 -41.203013048222765 6.4257454205459972 5.4874975155886085 -0.6560590369687036 0 0.75470957328743171 0.18867739332185793 0 0.1640147592421759 1 I I #
face $-1 $-1 $337 $33 $-1 $453 reversed single #
loop $-1 $-1 $229 $220 #
plane-surface $-1 -43.761101107821894 0 0 1 0 0 0 0 -1 forward_v I I I I #
coedge $-1 $454 $334 $455 $456 forward $221 $-1 #
coedge $-1 $233 $223 $454 $457 forward $139 $-1 #
coedge $-1 $231 $336 $223 $331 reversed $337 $-1 #
edge $-1 $235 -22.404476453889536 $458 22.404476453889536 $330 $459 forward 7 unknown #
coedge $-1 $225 $224 $342 $460 forward $89 $-1 #
edge $-1 $339 -43.761101107821894 $343 43.761101107821894 $228 $461 forward 7 unknown #
coedge $-1 $328 $462 $225 $335 reversed $221 $-1 #
edge $-1 $463 -43.761101107821894 $338 43.761101107821894 $334 $464 forward 7 unknown #
coedge $-1 $330 $226 $462 $465 forward $337 $-1 #
loop $-1 $-1 $336 $325 #
vertex $-1 $227 $466 #
vertex $-1 $227 $467 #
straight-curve $-1 43.761101107821894 0 7.7112095874408828 0 1 0 I I #
coedge $-1 $455 $229 $233 $346 reversed $326 $-1 #
coedge $-1 $229 $455 $332 $460 reversed $326 $-1 #
vertex $-1 $333 $468 #
straight-curve $-1 -43.761101107821894 22.404476453889536 0 0 0 -1 I I #
straight-curve $-1 43.761101107821894 22.404476453889536 0 0 0 -1 I I #
edge $-1 $469 -22.404476453889536 $234 22.404476453889536 $341 $470 forward 7 unknown #
point $-1 -43.761101107821894 22.404476453889536 -7.7112095874408828 #
point $-1 43.761101107821894 22.404476453889536 -7.7112095874408828 #
face $-1 $-1 $471 $34 $-1 $472 reversed single #
loop $-1 $-1 $247 $237 #
plane-surface $-1 0 -22.404476453889536 0 0 1 0 0 0 1 forward_v I I I I #
coedge $-1 $473 $240 $356 $474 forward $147 $-1 #
coedge $-1 $240 $473 $475 $476 forward $147 $-1 #
edge $-1 $477 -43.761101107821894 $357 43.761101107821894 $240 $478 forward 7 unknown #
coedge $-1 $242 $241 $479 $480 reversed $93 $-1 #
coedge $-1 $243 $249 $352 $474 reversed $238 $-1 #
vertex $-1 $474 $481 #
straight-curve $-1 43.761101107821894 -15.732048011855291 -2.9608272573915633 0 0 1 I I #
coedge $-1 $479 $482 $245 $360 forward $471 $-1 #
edge $-1 $365 -12.87034533745333 $361 -6.197916895419084 $359 $483 forward 7 unknown #
vertex $-1 $360 $484 #
straight-curve $-1 0 -15.732048011855291 -4.1320994421253703 -1 0 0 I I #
coedge $-1 $485 $247 $482 $486 forward $350 $-1 #
coedge $-1 $247 $485 $249 $367 reversed $350 $-1 #
vertex $-1 $486 $487 #
straight-curve $-1 0 -22.404476453889536 -4.1320994421253703 -1 0 0 I I #
edge $-1 $251 4.1320994421253703 $488 7.7112095874408828 $249 $489 forward 7 unknown #
point $-1 43.761101107821894 -15.732048011855291 -4.1320994421253703 #
point $-1 43.761101107821894 -22.404476453889536 -4.1320994421253703 #
face $-1 $-1 $386 $35 $-1 $490 forward single #
plane-surface $-1 -35.5020345796014 25.233723416944422 0 -1 0 0 0 0 1 forward_v I I I I #
coedge $-1 $491 $492 $389 $493 forward $254 $-1 #
coedge $-1 $382 $256 $257 $378 reversed $155 $-1 #
coedge $-1 $256 $382 $385 $494 reversed $155 $-1 #
coedge $-1 $492 $491 $256 $376 reversed $254 $-1 #
edge $-1 $495 -7.7112095874408828 $496 7.7112095874408828 $375 $497 forward 7 unknown #
coedge $-1 $258 $257 $491 $498 forward $97 $-1 #
edge $-1 $380 -2.8292469630548851 $496 2.8292469630548851 $373 $499 forward 7 unknown #
edge $-1 $500 -2.8292469630548851 $266 2.8292469630548851 $263 $501 forward 7 unknown #
vertex $-1 $378 $502 #
straight-curve $-1 0 22.404476453889536 -7.7112095874408828 -1 0 0 I I #
coedge $-1 $374 $373 $260 $383 reversed $155 $-1 #
edge $-1 $387 -7.7112095874408828 $380 7.7112095874408828 $382 $503 forward 7 unknown #
coedge $-1 $504 $261 $264 $390 forward $386 $-1 #
coedge $-1 $261 $504 $374 $494 forward $386 $-1 #
loop $-1 $-1 $261 $370 #
vertex $-1 $262 $505 #
straight-curve $-1 0 22.404476453889536 7.7112095874408828 1 0 0 I I #
coedge $-1 $264 $263 $372 $493 reversed $265 $-1 #
edge $-1 $267 -2.8292469630548851 $506 2.8292469630548851 $264 $507 forward 7 unknown #
point $-1 -35.5020345796014 22.404476453889536 -7.7112095874408828 #
point $-1 -35.5020345796014 22.404476453889536 7.7112095874408828 #
loop $-1 $-1 $277 $269 #
plane-surface $-1 -43.761101107821894 0 0 1 0 0 0 0 -1 forward_v I I I I #
coedge $-1 $396 $272 $274 $400 reversed $163 $-1 #
coedge $-1 $272 $395 $508 $509 reversed $163 $-1 #
coedge $-1 $280 $275 $272 $398 forward $270 $-1 #
edge $-1 $401 -11.945491414775006 $510 -6.8293152955767553 $397 $511 forward 7 unknown #
coedge $-1 $274 $273 $404 $512 reversed $101 $-1 #
edge $-1 $513 9.44141639987384e-015 $401 6.7789998964936391 $395 $514 forward 7 unknown #
vertex $-1 $276 $515 #
straight-curve $-1 -38.644924988623643 -1.5961345468263062 7.7112095874408846 0 1 0 I I #
coedge $-1 $508 $277 $280 $408 reversed $393 $-1 #
coedge $-1 $277 $508 $399 $512 forward $393 $-1 #
vertex $-1 $278 $516 #
straight-curve $-1 -43.761101107821894 -6.8915054452674607 34.658814665540582 0 0 1 I I #
straight-curve $-1 -43.761101107821901 -6.8915054452674607 3.2637854437363245 -0.75470957328743171 0 -0.6560590369687036 I I #
edge $-1 $510 -0.50696725796223596 $281 6.8915054452674607 $403 $517 forward 7 unknown #
point $-1 -43.761101107821894 -6.8915054452674607 7.7112095874408828 #
point $-1 -38.644924988623643 -6.8915054452674607 7.7112095874408828 #
edge $-1 $518 1 $518 0 $284 $-1 forward 7 unknown #
vertex $-1 $285 $519 #
ellipse-curve $-1 -40.546954011254059 -5.4118109046215181 4.7327879423011696 -0.6560590369687036 0 0.75470957328743171 0.18867739332185793 0 0.1640147592421759 1 I I #
point $-1 -41.014335654900904 -5.4118109046215181 5.6515122748307771 #
edge $-1 $520 1 $520 0 $288 $-1 forward 7 unknown #
vertex $-1 $289 $521 #
ellipse-curve $-1 -40.546954011254059 -3.1922690936526088 4.7327879423011696 -0.6560590369687036 0 0.75470957328743171 0.18867739332185793 0 0.1640147592421759 1 I I #
point $-1 -41.014335654900904 -3.1922690936526088 5.6515122748307771 #
edge $-1 $522 1 $522 0 $292 $-1 forward 7 unknown #
vertex $-1 $293 $523 #
ellipse-curve $-1 -40.546954011254059 -0.97272728268369946 4.7327879423011696 -0.6560590369687036 0 0.75470957328743171 0.18867739332185793 0 0.1640147592421759 1 I I #
point $-1 -41.014335654900904 -0.97272728268369946 5.6515122748307771 #
loop $-1 $-1 $305 $296 #
plane-surface $-1 -43.761101107821894 0 0 1 0 0 0 0 -1 forward_v I I I I #
coedge $-1 $299 $429 $308 $437 forward $192 $-1 #
edge $-1 $434 9.44141639987384e-015 $430 6.7789998964936391 $300 $524 forward 7 unknown #
coedge $-1 $305 $525 $301 $428 forward $423 $-1 #
edge $-1 $431 26.947605078099699 $434 31.395029221804251 $427 $526 forward 7 unknown #
coedge $-1 $425 $302 $525 $527 forward $192 $-1 #
vertex $-1 $303 $528 #
vertex $-1 $527 $529 #
straight-curve $-1 -50.590416403398649 7.9054399611919326 7.7112095874408837 -1 0 0 I I #
coedge $-1 $525 $305 $309 $438 forward $423 $-1 #
vertex $-1 $428 $530 #
straight-curve $-1 -43.761101107821894 -1.5961345468263062 3.2637854437363316 0 -1 0 I I #
straight-curve $-1 -38.644924988623643 -1.5961345468263062 7.7112095874408846 0 1 0 I I #
edge $-1 $531 6.8293152955767553 $311 11.945491414775006 $425 $532 forward 7 unknown #
edge $-1 $310 -31.395029221804251 $531 -26.947605078099699 $433 $533 forward 7 unknown #
point $-1 -43.761101107821894 0.50696725796223596 3.2637854437363307 #
point $-1 -38.644924988623643 0.50696725796223596 7.7112095874408828 #
edge $-1 $534 1 $534 0 $313 $-1 forward 7 unknown #
vertex $-1 $314 $535 #
ellipse-curve $-1 -40.546954011254059 1.9866617986081785 4.7327879423011696 -0.6560590369687036 0 0.75470957328743171 0.18867739332185793 0 0.1640147592421759 1 I I #
point $-1 -41.014335654900904 1.9866617986081785 5.6515122748307771 #
edge $-1 $536 1 $536 0 $317 $-1 forward 7 unknown #
vertex $-1 $318 $537 #
ellipse-curve $-1 -40.546954011254059 4.2062036095770878 4.7327879423011696 -0.6560590369687036 0 0.75470957328743171 0.18867739332185793 0 0.1640147592421759 1 I I #
point $-1 -41.014335654900904 4.2062036095770878 5.6515122748307771 #
edge $-1 $538 1 $538 0 $321 $-1 forward 7 unknown #
vertex $-1 $322 $539 #
ellipse-curve $-1 -40.546954011254059 6.4257454205459972 4.7327879423011696 -0.6560590369687036 0 0.75470957328743171 0.18867739332185793 0 0.1640147592421759 1 I I #
point $-1 -41.014335654900904 6.4257454205459972 5.6515122748307771 #
plane-surface $-1 43.761101107821894 0 0 -1 0 0 0 0 1 forward_v I I I I #
coedge $-1 $462 $328 $329 $457 reversed $221 $-1 #
coedge $-1 $342 $341 $328 $456 reversed $326 $-1 #
edge $-1 $463 -7.7112095874408828 $469 7.7112095874408828 $455 $540 forward 7 unknown #
edge $-1 $458 -43.761101107821894 $469 43.761101107821894 $454 $541 forward 7 unknown #
vertex $-1 $465 $542 #
straight-curve $-1 43.761101107821894 0 -7.7112095874408828 0 -1 0 I I #
edge $-1 $343 -22.404476453889536 $463 22.404476453889536 $342 $543 forward 7 unknown #
straight-curve $-1 0 22.404476453889536 7.7112095874408828 -1 0 0 I I #
coedge $-1 $334 $454 $336 $465 reversed $221 $-1 #
vertex $-1 $460 $544 #
straight-curve $-1 0 -22.404476453889536 7.7112095874408828 1 0 0 I I #
edge $-1 $338 -7.7112095874408828 $458 7.7112095874408828 $336 $545 forward 7 unknown #
point $-1 43.761101107821894 -22.404476453889536 7.7112095874408828 #
point $-1 43.761101107821894 22.404476453889536 7.7112095874408828 #
point $-1 -43.761101107821894 22.404476453889536 7.7112095874408828 #
vertex $-1 $346 $546 #
straight-curve $-1 -43.761101107821894 0 -7.7112095874408828 0 1 0 I I #
loop $-1 $-1 $479 $349 #
plane-surface $-1 -43.761101107821894 0 0 1 0 0 0 0 -1 forward_v I I I I #
coedge $-1 $353 $352 $485 $547 forward $147 $-1 #
edge $-1 $357 15.732048011855291 $488 22.404476453889536 $356 $548 forward 7 unknown #
coedge $-1 $482 $479 $353 $476 reversed $471 $-1 #
edge $-1 $549 -22.404476453889536 $477 -15.732048011855291 $475 $550 forward 7 unknown #
vertex $-1 $480 $551 #
straight-curve $-1 0 -15.732048011855291 -7.7112095874408828 1 0 0 I I #
coedge $-1 $475 $359 $355 $480 forward $471 $-1 #
edge $-1 $361 1.171272184733807 $477 4.7503823300493195 $479 $552 forward 7 unknown #
point $-1 43.761101107821894 -15.732048011855291 -7.7112095874408828 #
coedge $-1 $359 $475 $363 $486 reversed $471 $-1 #
straight-curve $-1 -43.761101107821894 -9.5341311164362068 -4.1320994421253703 0 1 0 I I #
point $-1 -43.761101107821894 -15.732048011855291 -4.1320994421253703 #
coedge $-1 $364 $363 $473 $547 reversed $350 $-1 #
edge $-1 $365 4.1320994421253703 $549 7.7112095874408828 $482 $553 forward 7 unknown #
point $-1 -43.761101107821894 -22.404476453889536 -4.1320994421253703 #
vertex $-1 $367 $554 #
straight-curve $-1 43.761101107821894 -22.404476453889536 0 0 0 -1 I I #
plane-surface $-1 0 0 7.7112095874408828 0 0 1 1 0 0 forward_v I I I I #
coedge $-1 $375 $372 $377 $498 reversed $254 $-1 #
coedge $-1 $372 $375 $504 $555 reversed $254 $-1 #
edge $-1 $506 -7.7112095874408828 $500 7.7112095874408828 $389 $556 forward 7 unknown #
edge $-1 $495 -2.8292469630548851 $387 2.8292469630548851 $374 $557 forward 7 unknown #
vertex $-1 $555 $558 #
vertex $-1 $498 $559 #
straight-curve $-1 -38.775303849040625 28.062970379999307 0 0 0 -1 I I #
edge $-1 $496 -1.6366346347196128 $500 1.6366346347196128 $491 $560 forward 7 unknown #
straight-curve $-1 -38.775303849040625 25.233723416944422 -7.7112095874408828 0 1 0 I I #
vertex $-1 $379 $561 #
straight-curve $-1 -35.5020345796014 25.233723416944422 -7.7112095874408828 0 -1 0 I I #
point $-1 -38.775303849040625 22.404476453889536 -7.7112095874408828 #
straight-curve $-1 -38.775303849040625 22.404476453889536 0 0 0 -1 I I #
coedge $-1 $385 $384 $492 $555 forward $386 $-1 #
point $-1 -38.775303849040625 22.404476453889536 7.7112095874408828 #
vertex $-1 $390 $562 #
straight-curve $-1 -35.5020345796014 25.233723416944422 7.7112095874408828 0 1 0 I I #
coedge $-1 $404 $403 $396 $509 forward $393 $-1 #
edge $-1 $510 26.947605078099699 $513 31.395029221804251 $508 $563 forward 7 unknown #
vertex $-1 $408 $564 #
straight-curve $-1 -50.590416403398649 0.50696725796223596 7.7112095874408837 -1 0 0 I I #
edge $-1 $513 -2.1031018047885421 $405 5.2953708984411545 $404 $565 forward 7 unknown #
vertex $-1 $512 $566 #
straight-curve $-1 -43.761101107821901 0.50696725796223596 3.2637854437363245 0.75470957328743171 0 0.6560590369687036 I I #
point $-1 -38.644924988623643 0.50696725796223596 7.7112095874408828 #
point $-1 -43.761101107821894 -6.8915054452674607 3.2637854437363307 #
straight-curve $-1 -43.761101107821894 0 7.7112095874408828 0 -1 0 I I #
vertex $-1 $411 $567 #
point $-1 -40.358276617932198 -5.4118109046215181 4.8968027015433462 #
vertex $-1 $415 $568 #
point $-1 -40.358276617932198 -3.1922690936526088 4.8968027015433462 #
vertex $-1 $419 $569 #
point $-1 -40.358276617932198 -0.97272728268369946 4.8968027015433462 #
straight-curve $-1 -43.761101107821901 7.9054399611919326 3.2637854437363245 0.75470957328743171 0 0.6560590369687036 I I #
coedge $-1 $427 $433 $429 $527 reversed $423 $-1 #
straight-curve $-1 -43.761101107821894 7.9054399611919326 34.658814665540582 0 0 -1 I I #
edge $-1 $431 -7.9054399611919326 $531 -0.50696725796223596 $525 $570 forward 7 unknown #
point $-1 -38.644924988623643 7.9054399611919326 7.7112095874408828 #
point $-1 -43.761101107821894 7.9054399611919326 7.7112095874408828 #
point $-1 -43.761101107821894 7.9054399611919326 3.2637854437363307 #
vertex $-1 $438 $571 #
straight-curve $-1 -50.590416403398649 0.50696725796223596 7.7112095874408837 1 0 0 I I #
straight-curve $-1 -43.761101107821894 0.50696725796223596 34.658814665540582 0 0 1 I I #
vertex $-1 $441 $572 #
point $-1 -40.358276617932198 1.9866617986081785 4.8968027015433462 #
vertex $-1 $445 $573 #
point $-1 -40.358276617932198 4.2062036095770878 4.8968027015433462 #
vertex $-1 $449 $574 #
point $-1 -40.358276617932198 6.4257454205459972 4.8968027015433462 #
straight-curve $-1 -43.761101107821894 -22.404476453889536 0 0 0 -1 I I #
straight-curve $-1 0 -22.404476453889536 -7.7112095874408828 -1 0 0 I I #
point $-1 43.761101107821894 -22.404476453889536 -7.7112095874408828 #
straight-curve $-1 -43.761101107821894 0 7.7112095874408828 0 -1 0 I I #
point $-1 -43.761101107821894 -22.404476453889536 7.7112095874408828 #
straight-curve $-1 43.761101107821894 -22.404476453889536 0 0 0 -1 I I #
point $-1 -43.761101107821894 -22.404476453889536 -7.7112095874408828 #
edge $-1 $488 -43.761101107821894 $549 43.761101107821894 $485 $575 forward 7 unknown #
straight-curve $-1 43.761101107821894 0 -7.7112095874408828 0 -1 0 I I #
vertex $-1 $476 $576 #
straight-curve $-1 -43.761101107821894 0 -7.7112095874408828 0 1 0 I I #
point $-1 -43.761101107821894 -15.732048011855291 -7.7112095874408828 #
straight-curve $-1 -43.761101107821894 -15.732048011855291 -2.9608272573915633 0 0 -1 I I #
straight-curve $-1 -43.761101107821894 -22.404476453889536 0 0 0 -1 I I #
point $-1 43.761101107821894 -22.404476453889536 -7.7112095874408828 #
edge $-1 $506 -1.6366346347196128 $495 1.6366346347196128 $492 $577 forward 7 unknown #
straight-curve $-1 -35.5020345796014 28.062970379999307 0 0 0 -1 I I #
straight-curve $-1 -38.775303849040625 25.233723416944422 7.7112095874408828 0 -1 0 I I #
point $-1 -38.775303849040625 28.062970379999307 7.7112095874408828 #
point $-1 -38.775303849040625 28.062970379999307 -7.7112095874408828 #
straight-curve $-1 -37.138669214321013 28.062970379999307 -7.7112095874408828 1 0 0 I I #
point $-1 -35.5020345796014 28.062970379999307 -7.7112095874408828 #
point $-1 -35.5020345796014 28.062970379999307 7.7112095874408828 #
straight-curve $-1 -43.761101107821894 0.50696725796223596 34.658814665540582 0 0 -1 I I #
point $-1 -43.761101107821894 0.50696725796223596 7.7112095874408828 #
straight-curve $-1 -43.761101107821894 -1.5961345468263062 3.2637854437363316 0 -1 0 I I #
point $-1 -43.761101107821894 0.50696725796223596 3.2637854437363307 #
point $-1 -40.38293925201188 -5.4118109046215181 4.5441105489793125 #
point $-1 -40.38293925201188 -3.1922690936526088 4.5441105489793125 #
point $-1 -40.38293925201188 -0.97272728268369946 4.5441105489793125 #
straight-curve $-1 -43.761101107821894 0 7.7112095874408828 0 -1 0 I I #
point $-1 -43.761101107821894 0.50696725796223596 7.7112095874408828 #
point $-1 -40.38293925201188 1.9866617986081785 4.5441105489793125 #
point $-1 -40.38293925201188 4.2062036095770878 4.5441105489793125 #
point $-1 -40.38293925201188 6.4257454205459972 4.5441105489793125 #
straight-curve $-1 0 -22.404476453889536 -7.7112095874408828 -1 0 0 I I #
point $-1 -43.761101107821894 -22.404476453889536 -7.7112095874408828 #
straight-curve $-1 -37.138669214321013 28.062970379999307 7.7112095874408828 -1 0 0 I I #
End-of-ACIS-data 