500 0 4 0           
7 Unknown 11 ACIS 5.0 NT 24 Fri Mar 26 03:31:43 1999 
-1 9.9999999999999995e-007 1e-010 
body $-1 $4 $-1 $5 #
body $-1 $6 $-1 $7 #
body $-1 $8 $-1 $9 #
body $-1 $10 $-1 $11 #
lump $-1 $-1 $12 $0 #
transform $-1 1 0 0 0 1 0 0 0 1 62.247993408001953 26.391234291288335 5.9859704085294361 1 rotate no_reflect no_shear #
lump $-1 $-1 $13 $1 #
transform $-1 1 0 0 0 1 0 0 0 1 62.247993408001953 26.391234291288335 5.9859704085294361 1 rotate no_reflect no_shear #
lump $-1 $-1 $14 $2 #
transform $-1 1 0 0 0 1 0 0 0 1 62.247993408001953 26.391234291288335 5.9859704085294361 1 rotate no_reflect no_shear #
lump $-1 $-1 $15 $3 #
transform $-1 1 0 0 0 1 0 0 0 1 62.247993408001953 26.391234291288335 5.9859704085294361 1 rotate no_reflect no_shear #
shell $-1 $-1 $-1 $16 $-1 $4 #
shell $-1 $-1 $-1 $17 $-1 $6 #
shell $-1 $-1 $-1 $18 $-1 $8 #
shell $-1 $-1 $-1 $19 $-1 $10 #
face $-1 $20 $21 $12 $-1 $22 forward single #
face $-1 $23 $24 $13 $-1 $25 reversed single #
face $-1 $26 $27 $14 $-1 $28 forward single #
face $-1 $29 $30 $15 $-1 $31 reversed single #
face $-1 $32 $33 $12 $-1 $34 reversed single #
loop $-1 $-1 $35 $16 #
plane-surface $-1 0 0 5.9859704085294361 0 0 1 1 0 0 forward_v I I I I #
face $-1 $36 $37 $13 $-1 $38 reversed single #
loop $-1 $-1 $39 $17 #
plane-surface $-1 0 -28.62914724812881 2.9859704085294361 0 0 1 1 0 0 forward_v I I I I #
face $-1 $40 $41 $14 $-1 $42 forward single #
loop $-1 $-1 $43 $18 #
plane-surface $-1 32.694111958730247 98.097597791754424 116.04673388484707 1 0 0 0 -0.81915205242281985 -0.57357642473473569 forward_v I I I I #
face $-1 $44 $45 $15 $-1 $46 reversed single #
loop $-1 $47 $48 $19 #
cone-surface $-1 47.471052683366104 24.123941259005143 3.2301236864090939 0 -0.81915205242281985 -0.57357642473473569 1 0 0 1 I I 0 1 1 forward I I I I #
face $-1 $49 $50 $12 $-1 $51 reversed single #
loop $-1 $-1 $52 $20 #
plane-surface $-1 0 0 -5.9859704085294361 0 0 1 1 0 0 forward_v I I I I #
coedge $-1 $53 $54 $55 $56 forward $21 $-1 #
face $-1 $57 $58 $13 $-1 $59 forward single #
loop $-1 $-1 $60 $23 #
plane-surface $-1 0 -30.867060204969285 4.4859704085294361 0 1 0 0 0 1 forward_v I I I I #
coedge $-1 $61 $62 $63 $64 forward $24 $-1 #
face $-1 $65 $66 $14 $-1 $67 forward single #
loop $-1 $-1 $68 $26 #
plane-surface $-1 47.471052683366104 -3.8835453269795011 44.638770873100754 0 0.81915205242281985 0.57357642473473569 1 0 0 forward_v I I I I #
coedge $-1 $69 $70 $71 $72 reversed $27 $-1 #
face $-1 $73 $74 $15 $-1 $75 forward single #
loop $-1 $76 $77 $29 #
cone-surface $-1 47.471052683366104 23.051971288977661 2.4795222553160592 0 -0.81915205242281985 -0.57357642473473569 0.5 0 0 1 I I -0.70710678118654746 0.70710678118654746 0.5 forward I I I I #
loop $-1 $-1 $78 $19 #
coedge $-1 $48 $48 $79 $80 reversed $30 $-1 #
face $-1 $81 $82 $12 $-1 $83 reversed single #
loop $-1 $-1 $84 $32 #
plane-surface $-1 0 -26.391234291288335 0 0 1 0 0 0 1 forward_v I I I I #
coedge $-1 $85 $86 $87 $88 forward $33 $-1 #
coedge $-1 $89 $35 $90 $91 forward $21 $-1 #
coedge $-1 $35 $89 $92 $93 forward $21 $-1 #
coedge $-1 $94 $95 $35 $56 reversed $96 $-1 #
edge $-1 $97 -26.391234291288335 $98 26.391234291288335 $55 $99 forward 7 unknown #
face $-1 $100 $101 $13 $-1 $102 reversed single #
loop $-1 $-1 $103 $36 #
plane-surface $-1 0 0 5.9859704085294361 0 0 1 1 0 0 forward_v I I I I #
coedge $-1 $104 $105 $106 $107 forward $37 $-1 #
coedge $-1 $108 $39 $104 $109 forward $24 $-1 #
coedge $-1 $39 $108 $110 $111 reversed $24 $-1 #
coedge $-1 $112 $113 $39 $64 reversed $114 $-1 #
edge $-1 $115 -2.237912956840475 $116 2.237912956840475 $63 $117 forward 7 unknown #
face $-1 $118 $119 $14 $-1 $120 reversed single #
loop $-1 $-1 $121 $40 #
plane-surface $-1 0 0 5.9859704085294361 0 0 1 1 0 0 forward_v I I I I #
coedge $-1 $122 $123 $121 $124 reversed $41 $-1 #
coedge $-1 $70 $43 $123 $125 forward $27 $-1 #
coedge $-1 $43 $69 $126 $127 reversed $27 $-1 #
coedge $-1 $128 $121 $43 $72 forward $66 $-1 #
edge $-1 $129 -25.867362781523116 $130 -22.657564604588877 $71 $131 forward 7 unknown #
face $-1 $132 $133 $15 $-1 $134 forward single #
loop $-1 $-1 $135 $44 #
plane-surface $-1 32.694111958730247 98.097597791754424 116.04673388484707 1 0 0 0 -0.81915205242281985 -0.57357642473473569 forward_v I I I I #
loop $-1 $-1 $136 $29 #
coedge $-1 $77 $77 $78 $137 forward $45 $-1 #
coedge $-1 $78 $78 $77 $137 reversed $47 $-1 #
coedge $-1 $79 $79 $48 $80 forward $133 $-1 #
edge $-1 $138 -1.3101996345775673e-015 $138 6.2831853071795996 $79 $139 forward 7 unknown #
face $-1 $140 $141 $12 $-1 $142 reversed single #
loop $-1 $-1 $143 $49 #
plane-surface $-1 -62.247993408001953 0 0 1 0 0 0 0 -1 forward_v I I I I #
coedge $-1 $144 $92 $145 $146 forward $50 $-1 #
coedge $-1 $147 $52 $144 $148 forward $33 $-1 #
coedge $-1 $52 $147 $149 $150 forward $33 $-1 #
coedge $-1 $95 $94 $52 $88 reversed $96 $-1 #
edge $-1 $151 -26.391234291288335 $152 26.391234291288335 $87 $153 forward 7 unknown #
coedge $-1 $54 $53 $154 $155 forward $21 $-1 #
coedge $-1 $156 $157 $53 $91 reversed $141 $-1 #
edge $-1 $98 -62.247993408001953 $158 62.247993408001953 $90 $159 forward 7 unknown #
coedge $-1 $84 $160 $54 $93 reversed $50 $-1 #
edge $-1 $161 -62.247993408001953 $97 62.247993408001953 $92 $162 forward 7 unknown #
coedge $-1 $87 $55 $160 $163 forward $96 $-1 #
coedge $-1 $55 $87 $156 $164 reversed $96 $-1 #
loop $-1 $-1 $94 $140 #
vertex $-1 $56 $165 #
vertex $-1 $56 $166 #
straight-curve $-1 62.247993408001953 0 5.9859704085294361 0 1 0 I I #
face $-1 $167 $168 $13 $-1 $169 reversed single #
loop $-1 $-1 $170 $57 #
plane-surface $-1 0 0 -5.9859704085294361 0 0 1 1 0 0 forward_v I I I I #
coedge $-1 $171 $172 $173 $174 forward $58 $-1 #
coedge $-1 $175 $60 $61 $109 reversed $37 $-1 #
coedge $-1 $60 $175 $172 $176 reversed $37 $-1 #
coedge $-1 $177 $178 $60 $107 reversed $179 $-1 #
edge $-1 $180 -1.5 $181 1.5 $106 $182 forward 7 unknown #
coedge $-1 $62 $61 $178 $183 forward $24 $-1 #
edge $-1 $116 -62.247993408001953 $181 62.247993408001953 $104 $184 forward 7 unknown #
coedge $-1 $185 $186 $62 $111 forward $168 $-1 #
edge $-1 $115 -62.247993408001953 $187 62.247993408001953 $110 $188 forward 7 unknown #
coedge $-1 $189 $63 $186 $190 forward $114 $-1 #
coedge $-1 $63 $173 $175 $191 forward $114 $-1 #
loop $-1 $-1 $112 $192 #
vertex $-1 $190 $193 #
vertex $-1 $191 $194 #
straight-curve $-1 62.247993408001953 -28.62914724812881 2.9859704085294361 0 -1 0 I I #
face $-1 $195 $196 $14 $-1 $197 reversed single #
loop $-1 $-1 $126 $65 #
plane-surface $-1 0 26.391234291288335 0 0 -1 0 0 0 -1 forward_v I I I I #
coedge $-1 $71 $198 $68 $124 forward $66 $-1 #
coedge $-1 $199 $68 $200 $201 reversed $41 $-1 #
coedge $-1 $68 $199 $69 $125 reversed $41 $-1 #
edge $-1 $202 -38.512467066318905 $129 -8.9585856170471949 $121 $203 forward 7 unknown #
edge $-1 $129 47.186356123075413 $204 52.782468582576669 $69 $205 forward 7 unknown #
coedge $-1 $206 $207 $70 $127 forward $119 $-1 #
edge $-1 $130 52.037396533894096 $204 56.621463540683465 $126 $208 forward 7 unknown #
coedge $-1 $209 $71 $207 $210 forward $66 $-1 #
vertex $-1 $124 $211 #
vertex $-1 $210 $212 #
straight-curve $-1 32.694111958730247 49.048798895877212 5.9859704085294325 0 1 0 I I #
face $-1 $213 $214 $15 $-1 $215 forward single #
loop $-1 $216 $79 $73 #
plane-surface $-1 47.471052683366104 -3.8835453269795011 44.638770873100754 0 0.81915205242281985 0.57357642473473569 1 0 0 forward_v I I I I #
coedge $-1 $217 $218 $219 $220 reversed $74 $-1 #
coedge $-1 $136 $136 $-1 $221 forward $76 $-1 #
edge $-1 $222 0 $222 6.2831853071796004 $77 $223 forward 7 unknown #
vertex $-1 $80 $224 #
ellipse-curve $-1 47.471052683366104 24.786335202821213 3.6939369051347599 0 -0.81915205242281985 -0.57357642473473569 1 0 0 1 I I #
face $-1 $-1 $96 $12 $-1 $225 reversed single #
loop $-1 $-1 $156 $81 #
plane-surface $-1 0 26.391234291288335 0 0 -1 0 0 0 -1 forward_v I I I I #
coedge $-1 $226 $154 $157 $227 forward $82 $-1 #
coedge $-1 $160 $84 $85 $148 reversed $50 $-1 #
coedge $-1 $154 $226 $84 $146 reversed $82 $-1 #
edge $-1 $161 -5.9859704085294361 $228 5.9859704085294361 $145 $229 forward 7 unknown #
coedge $-1 $86 $85 $226 $230 forward $33 $-1 #
edge $-1 $152 -62.247993408001953 $228 62.247993408001953 $144 $231 forward 7 unknown #
coedge $-1 $157 $156 $86 $150 reversed $141 $-1 #
edge $-1 $232 -62.247993408001953 $151 62.247993408001953 $149 $233 forward 7 unknown #
vertex $-1 $88 $234 #
vertex $-1 $163 $235 #
straight-curve $-1 62.247993408001953 0 -5.9859704085294361 0 -1 0 I I #
coedge $-1 $143 $145 $89 $155 reversed $82 $-1 #
edge $-1 $158 -26.391234291288335 $161 26.391234291288335 $154 $236 forward 7 unknown #
coedge $-1 $149 $90 $95 $164 forward $141 $-1 #
coedge $-1 $90 $149 $143 $227 reversed $141 $-1 #
vertex $-1 $91 $237 #
straight-curve $-1 0 26.391234291288335 5.9859704085294361 -1 0 0 I I #
coedge $-1 $92 $144 $94 $163 reversed $50 $-1 #
vertex $-1 $155 $238 #
straight-curve $-1 0 -26.391234291288335 5.9859704085294361 1 0 0 I I #
edge $-1 $97 -5.9859704085294361 $152 5.9859704085294361 $94 $239 forward 7 unknown #
edge $-1 $98 -5.9859704085294361 $151 5.9859704085294361 $95 $240 forward 7 unknown #
point $-1 62.247993408001953 -26.391234291288335 5.9859704085294361 #
point $-1 62.247993408001953 26.391234291288335 5.9859704085294361 #
face $-1 $241 $179 $13 $-1 $242 reversed single #
loop $-1 $-1 $110 $100 #
plane-surface $-1 0 -26.391234291288335 0 0 1 0 0 0 1 forward_v I I I I #
coedge $-1 $243 $244 $189 $245 forward $101 $-1 #
coedge $-1 $246 $103 $247 $248 forward $58 $-1 #
coedge $-1 $103 $246 $105 $176 forward $58 $-1 #
coedge $-1 $113 $249 $103 $174 reversed $114 $-1 #
edge $-1 $250 -30.867060204969285 $251 26.391234291288335 $173 $252 forward 7 unknown #
coedge $-1 $105 $104 $113 $191 reversed $37 $-1 #
edge $-1 $180 -62.247993408001953 $250 62.247993408001953 $105 $253 forward 7 unknown #
coedge $-1 $254 $106 $246 $255 reversed $179 $-1 #
coedge $-1 $106 $256 $108 $183 reversed $179 $-1 #
loop $-1 $-1 $254 $167 #
vertex $-1 $255 $257 #
vertex $-1 $183 $258 #
straight-curve $-1 -62.247993408001953 -30.867060204969285 4.4859704085294361 0 0 -1 I I #
edge $-1 $181 -2.237912956840475 $187 2.237912956840475 $178 $259 forward 7 unknown #
straight-curve $-1 0 -30.867060204969285 2.9859704085294361 -1 0 0 I I #
coedge $-1 $260 $110 $256 $261 forward $168 $-1 #
coedge $-1 $110 $260 $112 $190 reversed $168 $-1 #
vertex $-1 $261 $262 #
straight-curve $-1 0 -26.391234291288335 2.9859704085294361 -1 0 0 I I #
coedge $-1 $249 $112 $170 $245 reversed $114 $-1 #
edge $-1 $115 -2.9859704085294361 $263 5.9859704085294361 $112 $264 forward 7 unknown #
edge $-1 $250 -1.5 $116 1.5 $113 $265 forward 7 unknown #
face $-1 $-1 $114 $13 $-1 $266 reversed single #
point $-1 62.247993408001953 -26.391234291288335 2.9859704085294361 #
point $-1 62.247993408001953 -30.867060204969285 2.9859704085294361 #
face $-1 $267 $268 $14 $-1 $269 reversed single #
loop $-1 $-1 $270 $118 #
plane-surface $-1 0 -28.62914724812881 2.9859704085294361 0 0 1 1 0 0 forward_v I I I I #
coedge $-1 $121 $271 $272 $273 forward $66 $-1 #
coedge $-1 $123 $122 $206 $274 reversed $41 $-1 #
coedge $-1 $272 $275 $122 $201 forward $276 $-1 #
edge $-1 $277 -33.385743171438335 $202 -27.789630711937079 $200 $278 forward 7 unknown #
vertex $-1 $201 $279 #
straight-curve $-1 23.735526341683052 23.181436114354099 5.9859704085294396 -1 0 0 I I #
vertex $-1 $274 $280 #
straight-curve $-1 32.694111958730247 -3.8835453269795011 44.638770873100754 0 0.57357642473473569 -0.81915205242281985 I I #
coedge $-1 $281 $126 $199 $274 forward $119 $-1 #
coedge $-1 $126 $282 $128 $210 reversed $119 $-1 #
straight-curve $-1 32.694111958730247 26.391234291288335 58.023366942423536 0 0 -1 I I #
coedge $-1 $271 $128 $283 $284 forward $66 $-1 #
edge $-1 $130 -32.694111958730247 $285 62.247993408001953 $207 $286 forward 7 unknown #
point $-1 32.694111958730247 23.181436114354096 5.9859704085294396 #
point $-1 32.694111958730247 26.391234291288335 5.9859704085294361 #
face $-1 $287 $288 $15 $-1 $289 reversed single #
loop $-1 $-1 $290 $132 #
plane-surface $-1 0 0 5.9859704085294361 0 0 1 1 0 0 forward_v I I I I #
loop $-1 $-1 $291 $73 #
coedge $-1 $218 $135 $292 $293 forward $74 $-1 #
coedge $-1 $135 $217 $294 $295 reversed $74 $-1 #
coedge $-1 $296 $290 $135 $220 forward $214 $-1 #
edge $-1 $297 -25.867362781523116 $298 -22.657564604588877 $219 $299 forward 7 unknown #
edge $-1 $300 1 $300 0 $136 $-1 forward 7 unknown #
vertex $-1 $137 $301 #
ellipse-curve $-1 47.471052683366104 23.461547315189073 2.7663104676834269 0 0.81915205242281985 0.57357642473473569 1 0 0 1 I I #
point $-1 48.471052683366104 24.786335202821217 3.6939369051347608 #
plane-surface $-1 62.247993408001953 0 0 -1 0 0 0 0 1 forward_v I I I I #
coedge $-1 $145 $143 $147 $230 reversed $82 $-1 #
edge $-1 $158 -5.9859704085294361 $232 5.9859704085294361 $157 $302 forward 7 unknown #
vertex $-1 $230 $303 #
straight-curve $-1 -62.247993408001953 -26.391234291288335 0 0 0 -1 I I #
edge $-1 $228 -26.391234291288335 $232 26.391234291288335 $226 $304 forward 7 unknown #
straight-curve $-1 0 -26.391234291288335 -5.9859704085294361 -1 0 0 I I #
vertex $-1 $150 $305 #
straight-curve $-1 0 26.391234291288335 -5.9859704085294361 1 0 0 I I #
point $-1 62.247993408001953 26.391234291288335 -5.9859704085294361 #
point $-1 62.247993408001953 -26.391234291288335 -5.9859704085294361 #
straight-curve $-1 -62.247993408001953 0 5.9859704085294361 0 -1 0 I I #
point $-1 -62.247993408001953 26.391234291288335 5.9859704085294361 #
point $-1 -62.247993408001953 -26.391234291288335 5.9859704085294361 #
straight-curve $-1 62.247993408001953 -26.391234291288335 0 0 0 -1 I I #
straight-curve $-1 62.247993408001953 26.391234291288335 0 0 0 -1 I I #
face $-1 $192 $306 $13 $-1 $307 reversed single #
plane-surface $-1 -62.247993408001953 0 0 1 0 0 0 0 -1 forward_v I I I I #
coedge $-1 $308 $170 $260 $309 forward $101 $-1 #
coedge $-1 $170 $308 $310 $311 forward $101 $-1 #
edge $-1 $312 -26.391234291288335 $263 26.391234291288335 $189 $313 forward 7 unknown #
coedge $-1 $172 $171 $177 $255 forward $58 $-1 #
coedge $-1 $314 $315 $171 $248 reversed $306 $-1 #
edge $-1 $251 -62.247993408001953 $316 62.247993408001953 $247 $317 forward 7 unknown #
coedge $-1 $173 $189 $314 $318 reversed $114 $-1 #
vertex $-1 $174 $319 #
vertex $-1 $174 $320 #
straight-curve $-1 62.247993408001953 0 5.9859704085294361 0 1 0 I I #
straight-curve $-1 0 -30.867060204969285 5.9859704085294361 1 0 0 I I #
coedge $-1 $321 $177 $315 $322 forward $179 $-1 #
edge $-1 $316 -26.391234291288335 $180 30.867060204969285 $177 $323 forward 7 unknown #
coedge $-1 $178 $321 $185 $261 reversed $179 $-1 #
point $-1 -62.247993408001953 -30.867060204969285 5.9859704085294361 #
point $-1 -62.247993408001953 -30.867060204969285 2.9859704085294361 #
straight-curve $-1 -62.247993408001953 -28.62914724812881 2.9859704085294361 0 1 0 I I #
coedge $-1 $186 $185 $243 $309 reversed $168 $-1 #
edge $-1 $187 -2.9859704085294361 $324 5.9859704085294361 $256 $325 forward 7 unknown #
point $-1 -62.247993408001953 -26.391234291288335 2.9859704085294361 #
vertex $-1 $190 $326 #
straight-curve $-1 62.247993408001953 -26.391234291288335 0 0 0 -1 I I #
straight-curve $-1 62.247993408001953 -30.867060204969285 4.4859704085294361 0 0 -1 I I #
plane-surface $-1 62.247993408001953 0 0 -1 0 0 0 0 1 forward_v I I I I #
face $-1 $327 $328 $14 $-1 $329 reversed single #
loop $-1 $-1 $330 $195 #
plane-surface $-1 0 -30.867060204969285 4.4859704085294361 0 1 0 0 0 1 forward_v I I I I #
coedge $-1 $331 $332 $333 $334 forward $196 $-1 #
coedge $-1 $198 $209 $335 $336 forward $66 $-1 #
coedge $-1 $337 $200 $198 $273 reversed $276 $-1 #
edge $-1 $338 -30.867060204969285 $202 23.181436114354096 $272 $339 forward 7 unknown #
edge $-1 $204 8.9585856170471949 $277 38.512467066318905 $206 $340 forward 7 unknown #
coedge $-1 $200 $341 $281 $342 reversed $276 $-1 #
loop $-1 $-1 $200 $343 #
vertex $-1 $342 $344 #
straight-curve $-1 62.247993408001953 7.2419590859026197 28.749903442284925 0 -0.57357642473473569 0.81915205242281985 I I #
point $-1 62.24799340800196 23.181436114354096 5.9859704085294396 #
point $-1 32.694111958730247 26.391234291288335 1.4019034017400713 #
coedge $-1 $345 $206 $275 $342 forward $119 $-1 #
coedge $-1 $207 $345 $346 $347 reversed $119 $-1 #
coedge $-1 $346 $348 $209 $284 reversed $349 $-1 #
edge $-1 $285 -26.391234291288335 $350 30.867060204969285 $283 $351 forward 7 unknown #
vertex $-1 $210 $352 #
straight-curve $-1 0 26.391234291288335 5.9859704085294361 -1 0 0 I I #
face $-1 $353 $354 $15 $-1 $355 reversed single #
loop $-1 $-1 $294 $213 #
plane-surface $-1 0 26.391234291288335 0 0 -1 0 0 0 -1 forward_v I I I I #
coedge $-1 $219 $356 $291 $357 forward $214 $-1 #
coedge $-1 $358 $292 $290 $357 reversed $216 $-1 #
coedge $-1 $291 $359 $217 $293 reversed $216 $-1 #
edge $-1 $297 47.186356123075413 $360 52.782468582576669 $217 $361 forward 7 unknown #
coedge $-1 $362 $363 $218 $295 forward $288 $-1 #
edge $-1 $298 52.037396533894096 $360 56.621463540683465 $294 $364 forward 7 unknown #
coedge $-1 $365 $219 $363 $366 forward $214 $-1 #
vertex $-1 $357 $367 #
vertex $-1 $366 $368 #
straight-curve $-1 32.694111958730247 49.048798895877212 5.9859704085294325 0 1 0 I I #
vertex $-1 $221 $369 #
point $-1 48.471052683366104 23.461547315189073 2.7663104676834269 #
straight-curve $-1 -62.247993408001953 26.391234291288335 0 0 0 -1 I I #
point $-1 -62.247993408001953 -26.391234291288335 -5.9859704085294361 #
straight-curve $-1 -62.247993408001953 0 -5.9859704085294361 0 1 0 I I #
point $-1 -62.247993408001953 26.391234291288335 -5.9859704085294361 #
loop $-1 $-1 $314 $241 #
plane-surface $-1 0 26.391234291288335 0 0 -1 0 0 0 -1 forward_v I I I I #
coedge $-1 $244 $243 $321 $370 forward $101 $-1 #
edge $-1 $263 -62.247993408001953 $324 62.247993408001953 $260 $371 forward 7 unknown #
coedge $-1 $315 $314 $244 $311 reversed $306 $-1 #
edge $-1 $372 -62.247993408001953 $312 62.247993408001953 $310 $373 forward 7 unknown #
vertex $-1 $245 $374 #
straight-curve $-1 62.247993408001953 0 -5.9859704085294361 0 -1 0 I I #
coedge $-1 $310 $247 $249 $318 forward $306 $-1 #
coedge $-1 $247 $310 $254 $322 reversed $306 $-1 #
vertex $-1 $248 $375 #
straight-curve $-1 0 26.391234291288335 5.9859704085294361 -1 0 0 I I #
edge $-1 $251 -5.9859704085294361 $312 5.9859704085294361 $249 $376 forward 7 unknown #
point $-1 62.247993408001953 -30.867060204969285 5.9859704085294361 #
point $-1 62.247993408001953 26.391234291288335 5.9859704085294361 #
coedge $-1 $256 $254 $308 $370 reversed $179 $-1 #
edge $-1 $316 -5.9859704085294361 $372 5.9859704085294361 $315 $377 forward 7 unknown #
straight-curve $-1 -62.247993408001953 0 5.9859704085294361 0 -1 0 I I #
vertex $-1 $370 $378 #
straight-curve $-1 -62.247993408001953 -26.391234291288335 0 0 0 -1 I I #
point $-1 62.247993408001953 -26.391234291288335 -5.9859704085294361 #
face $-1 $379 $380 $14 $-1 $381 reversed single #
loop $-1 $-1 $382 $267 #
plane-surface $-1 0 0 -5.9859704085294361 0 0 1 1 0 0 forward_v I I I I #
coedge $-1 $383 $335 $348 $384 forward $268 $-1 #
coedge $-1 $385 $270 $383 $386 forward $196 $-1 #
coedge $-1 $270 $385 $387 $388 reversed $196 $-1 #
coedge $-1 $389 $337 $270 $334 reversed $276 $-1 #
edge $-1 $390 -2.237912956840475 $391 2.237912956840475 $333 $392 forward 7 unknown #
coedge $-1 $330 $393 $271 $336 reversed $268 $-1 #
edge $-1 $350 -62.247993408001953 $338 62.247993408001953 $335 $394 forward 7 unknown #
coedge $-1 $333 $272 $393 $395 forward $276 $-1 #
vertex $-1 $273 $396 #
straight-curve $-1 62.247993408001953 0 5.9859704085294361 0 1 0 I I #
straight-curve $-1 23.735526341683052 26.391234291288335 1.4019034017400642 1 0 0 I I #
coedge $-1 $275 $389 $382 $397 reversed $276 $-1 #
edge $-1 $277 -1.4019034017400713 $398 5.9859704085294361 $275 $399 forward 7 unknown #
face $-1 $-1 $276 $14 $-1 $400 reversed single #
point $-1 62.24799340800196 26.391234291288335 1.4019034017400713 #
coedge $-1 $282 $281 $401 $402 reversed $119 $-1 #
coedge $-1 $403 $283 $282 $347 forward $349 $-1 #
edge $-1 $285 -5.9859704085294361 $404 5.9859704085294361 $282 $405 forward 7 unknown #
coedge $-1 $283 $406 $330 $384 reversed $349 $-1 #
loop $-1 $-1 $346 $379 #
vertex $-1 $284 $407 #
straight-curve $-1 -62.247993408001953 0 5.9859704085294361 0 -1 0 I I #
point $-1 -62.247993408001953 26.391234291288335 5.9859704085294361 #
face $-1 $408 $409 $15 $-1 $410 reversed single #
loop $-1 $-1 $411 $287 #
plane-surface $-1 0 -28.62914724812881 2.9859704085294361 0 0 1 1 0 0 forward_v I I I I #
coedge $-1 $290 $412 $413 $414 forward $214 $-1 #
edge $-1 $415 -38.512467066318905 $297 -8.9585856170471949 $290 $416 forward 7 unknown #
coedge $-1 $359 $291 $417 $418 reversed $216 $-1 #
coedge $-1 $292 $358 $362 $419 reversed $216 $-1 #
vertex $-1 $419 $420 #
straight-curve $-1 32.694111958730247 -3.8835453269795011 44.638770873100754 0 0.57357642473473569 -0.81915205242281985 I I #
coedge $-1 $421 $294 $359 $419 forward $288 $-1 #
coedge $-1 $294 $422 $296 $366 reversed $288 $-1 #
straight-curve $-1 32.694111958730247 26.391234291288335 58.023366942423536 0 0 -1 I I #
coedge $-1 $412 $296 $423 $424 forward $214 $-1 #
edge $-1 $298 -32.694111958730247 $425 62.247993408001953 $363 $426 forward 7 unknown #
point $-1 32.694111958730247 23.181436114354096 5.9859704085294396 #
point $-1 32.694111958730247 26.391234291288335 5.9859704085294361 #
point $-1 47.471052683366104 22.64239526276625 2.1927340429486915 #
edge $-1 $324 -26.391234291288335 $372 26.391234291288335 $321 $427 forward 7 unknown #
straight-curve $-1 0 -26.391234291288335 -5.9859704085294361 -1 0 0 I I #
vertex $-1 $311 $428 #
straight-curve $-1 0 26.391234291288335 -5.9859704085294361 1 0 0 I I #
point $-1 62.247993408001953 26.391234291288335 -5.9859704085294361 #
point $-1 -62.247993408001953 26.391234291288335 5.9859704085294361 #
straight-curve $-1 62.247993408001953 26.391234291288335 0 0 0 -1 I I #
straight-curve $-1 -62.247993408001953 26.391234291288335 0 0 0 -1 I I #
point $-1 -62.247993408001953 -26.391234291288335 -5.9859704085294361 #
face $-1 $343 $349 $14 $-1 $429 reversed single #
loop $-1 $-1 $387 $327 #
plane-surface $-1 0 -26.391234291288335 0 0 1 0 0 0 1 forward_v I I I I #
coedge $-1 $430 $401 $341 $397 forward $328 $-1 #
coedge $-1 $393 $330 $331 $386 reversed $268 $-1 #
edge $-1 $350 -1.5 $431 1.5 $348 $432 forward 7 unknown #
coedge $-1 $332 $331 $406 $433 forward $196 $-1 #
edge $-1 $391 -62.247993408001953 $431 62.247993408001953 $383 $434 forward 7 unknown #
coedge $-1 $435 $436 $332 $388 forward $380 $-1 #
edge $-1 $390 -62.247993408001953 $437 62.247993408001953 $387 $438 forward 7 unknown #
coedge $-1 $341 $333 $436 $439 forward $276 $-1 #
vertex $-1 $439 $440 #
vertex $-1 $395 $441 #
straight-curve $-1 62.247993408001953 -28.62914724812881 2.9859704085294361 0 -1 0 I I #
coedge $-1 $335 $383 $337 $395 reversed $268 $-1 #
straight-curve $-1 0 -30.867060204969285 5.9859704085294361 1 0 0 I I #
edge $-1 $338 -1.5 $391 1.5 $337 $442 forward 7 unknown #
point $-1 62.247993408001953 -30.867060204969285 5.9859704085294361 #
edge $-1 $398 -26.391234291288335 $443 26.391234291288335 $341 $444 forward 7 unknown #
vertex $-1 $397 $445 #
straight-curve $-1 62.247993408001953 26.391234291288335 0 0 0 -1 I I #
plane-surface $-1 62.247993408001953 0 0 -1 0 0 0 0 1 forward_v I I I I #
coedge $-1 $382 $446 $345 $402 forward $328 $-1 #
edge $-1 $404 -62.247993408001953 $398 62.247993408001953 $345 $447 forward 7 unknown #
coedge $-1 $448 $346 $446 $449 reversed $349 $-1 #
vertex $-1 $402 $450 #
straight-curve $-1 -62.247993408001953 26.391234291288335 0 0 0 -1 I I #
coedge $-1 $348 $448 $385 $433 reversed $349 $-1 #
point $-1 -62.247993408001953 -30.867060204969285 5.9859704085294361 #
face $-1 $451 $452 $15 $-1 $453 reversed single #
loop $-1 $-1 $454 $353 #
plane-surface $-1 0 -30.867060204969285 4.4859704085294361 0 1 0 0 0 1 forward_v I I I I #
coedge $-1 $455 $456 $457 $458 forward $354 $-1 #
coedge $-1 $356 $365 $459 $460 forward $214 $-1 #
coedge $-1 $461 $417 $356 $414 reversed $462 $-1 #
edge $-1 $463 -30.867060204969285 $415 23.181436114354096 $413 $464 forward 7 unknown #
vertex $-1 $418 $465 #
straight-curve $-1 23.735526341683052 23.181436114354099 5.9859704085294396 -1 0 0 I I #
coedge $-1 $413 $466 $358 $418 forward $462 $-1 #
edge $-1 $467 -33.385743171438335 $415 -27.789630711937079 $417 $468 forward 7 unknown #
edge $-1 $360 8.9585856170471949 $467 38.512467066318905 $362 $469 forward 7 unknown #
point $-1 32.694111958730247 26.391234291288335 1.4019034017400713 #
coedge $-1 $470 $362 $466 $471 forward $288 $-1 #
coedge $-1 $363 $470 $472 $473 reversed $288 $-1 #
coedge $-1 $472 $474 $365 $424 reversed $475 $-1 #
edge $-1 $425 -26.391234291288335 $476 30.867060204969285 $423 $477 forward 7 unknown #
vertex $-1 $366 $478 #
straight-curve $-1 0 26.391234291288335 5.9859704085294361 -1 0 0 I I #
straight-curve $-1 -62.247993408001953 0 -5.9859704085294361 0 1 0 I I #
point $-1 -62.247993408001953 26.391234291288335 -5.9859704085294361 #
plane-surface $-1 -62.247993408001953 0 0 1 0 0 0 0 -1 forward_v I I I I #
coedge $-1 $446 $382 $479 $480 forward $328 $-1 #
vertex $-1 $433 $481 #
straight-curve $-1 -62.247993408001953 -30.867060204969285 4.4859704085294361 0 0 -1 I I #
edge $-1 $431 -2.237912956840475 $437 2.237912956840475 $406 $482 forward 7 unknown #
straight-curve $-1 0 -30.867060204969285 2.9859704085294361 -1 0 0 I I #
coedge $-1 $479 $387 $448 $483 forward $380 $-1 #
coedge $-1 $387 $479 $389 $439 reversed $380 $-1 #
vertex $-1 $483 $484 #
straight-curve $-1 0 -26.391234291288335 2.9859704085294361 -1 0 0 I I #
edge $-1 $390 -2.9859704085294361 $443 5.9859704085294361 $389 $485 forward 7 unknown #
point $-1 62.247993408001953 -26.391234291288335 2.9859704085294361 #
point $-1 62.247993408001953 -30.867060204969285 2.9859704085294361 #
straight-curve $-1 62.247993408001953 -30.867060204969285 4.4859704085294361 0 0 -1 I I #
vertex $-1 $439 $486 #
straight-curve $-1 62.247993408001953 0 -5.9859704085294361 0 -1 0 I I #
point $-1 62.247993408001953 26.391234291288335 -5.9859704085294361 #
coedge $-1 $401 $430 $403 $449 forward $328 $-1 #
straight-curve $-1 0 26.391234291288335 -5.9859704085294361 1 0 0 I I #
coedge $-1 $406 $403 $435 $483 reversed $349 $-1 #
edge $-1 $487 -26.391234291288335 $404 26.391234291288335 $403 $488 forward 7 unknown #
point $-1 -62.247993408001953 26.391234291288335 -5.9859704085294361 #
face $-1 $489 $490 $15 $-1 $491 reversed single #
loop $-1 $-1 $492 $408 #
plane-surface $-1 0 0 -5.9859704085294361 0 0 1 1 0 0 forward_v I I I I #
coedge $-1 $493 $459 $474 $494 forward $409 $-1 #
coedge $-1 $495 $411 $493 $496 forward $354 $-1 #
coedge $-1 $411 $495 $497 $498 reversed $354 $-1 #
coedge $-1 $499 $461 $411 $458 reversed $462 $-1 #
edge $-1 $500 -2.237912956840475 $501 2.237912956840475 $457 $502 forward 7 unknown #
coedge $-1 $454 $503 $412 $460 reversed $409 $-1 #
edge $-1 $476 -62.247993408001953 $463 62.247993408001953 $459 $504 forward 7 unknown #
coedge $-1 $457 $413 $503 $505 forward $462 $-1 #
loop $-1 $-1 $417 $506 #
vertex $-1 $414 $507 #
straight-curve $-1 62.247993408001953 0 5.9859704085294361 0 1 0 I I #
point $-1 62.24799340800196 23.181436114354096 5.9859704085294396 #
coedge $-1 $417 $508 $421 $471 reversed $462 $-1 #
vertex $-1 $471 $509 #
straight-curve $-1 62.247993408001953 7.2419590859026197 28.749903442284925 0 -0.57357642473473569 0.81915205242281985 I I #
straight-curve $-1 23.735526341683052 26.391234291288335 1.4019034017400642 1 0 0 I I #
coedge $-1 $422 $421 $510 $511 reversed $288 $-1 #
edge $-1 $467 -1.4019034017400713 $512 5.9859704085294361 $466 $513 forward 7 unknown #
coedge $-1 $514 $423 $422 $473 forward $475 $-1 #
edge $-1 $425 -5.9859704085294361 $515 5.9859704085294361 $422 $516 forward 7 unknown #
coedge $-1 $423 $517 $454 $494 reversed $475 $-1 #
loop $-1 $-1 $472 $489 #
vertex $-1 $424 $518 #
straight-curve $-1 -62.247993408001953 0 5.9859704085294361 0 -1 0 I I #
point $-1 -62.247993408001953 26.391234291288335 5.9859704085294361 #
coedge $-1 $436 $435 $430 $480 reversed $380 $-1 #
edge $-1 $443 -62.247993408001953 $487 62.247993408001953 $479 $519 forward 7 unknown #
point $-1 -62.247993408001953 -30.867060204969285 2.9859704085294361 #
straight-curve $-1 -62.247993408001953 -28.62914724812881 2.9859704085294361 0 1 0 I I #
edge $-1 $437 -2.9859704085294361 $487 5.9859704085294361 $448 $520 forward 7 unknown #
point $-1 -62.247993408001953 -26.391234291288335 2.9859704085294361 #
straight-curve $-1 62.247993408001953 -26.391234291288335 0 0 0 -1 I I #
point $-1 62.247993408001953 -26.391234291288335 -5.9859704085294361 #
vertex $-1 $449 $521 #
straight-curve $-1 -62.247993408001953 0 -5.9859704085294361 0 1 0 I I #
face $-1 $506 $475 $15 $-1 $522 reversed single #
loop $-1 $-1 $497 $451 #
plane-surface $-1 0 -26.391234291288335 0 0 1 0 0 0 1 forward_v I I I I #
coedge $-1 $523 $510 $508 $524 forward $452 $-1 #
coedge $-1 $503 $454 $455 $496 reversed $409 $-1 #
edge $-1 $476 -1.5 $525 1.5 $474 $526 forward 7 unknown #
coedge $-1 $456 $455 $517 $527 forward $354 $-1 #
edge $-1 $501 -62.247993408001953 $525 62.247993408001953 $493 $528 forward 7 unknown #
coedge $-1 $529 $530 $456 $498 forward $490 $-1 #
edge $-1 $500 -62.247993408001953 $531 62.247993408001953 $497 $532 forward 7 unknown #
coedge $-1 $508 $457 $530 $533 forward $462 $-1 #
vertex $-1 $533 $534 #
vertex $-1 $505 $535 #
straight-curve $-1 62.247993408001953 -28.62914724812881 2.9859704085294361 0 -1 0 I I #
coedge $-1 $459 $493 $461 $505 reversed $409 $-1 #
straight-curve $-1 0 -30.867060204969285 5.9859704085294361 1 0 0 I I #
edge $-1 $463 -1.5 $501 1.5 $461 $536 forward 7 unknown #
face $-1 $-1 $462 $15 $-1 $537 reversed single #
point $-1 62.247993408001953 -30.867060204969285 5.9859704085294361 #
coedge $-1 $466 $499 $492 $524 reversed $462 $-1 #
point $-1 62.24799340800196 26.391234291288335 1.4019034017400713 #
coedge $-1 $492 $538 $470 $511 forward $452 $-1 #
edge $-1 $515 -62.247993408001953 $512 62.247993408001953 $470 $539 forward 7 unknown #
vertex $-1 $524 $540 #
straight-curve $-1 62.247993408001953 26.391234291288335 0 0 0 -1 I I #
coedge $-1 $541 $472 $538 $542 reversed $475 $-1 #
vertex $-1 $511 $543 #
straight-curve $-1 -62.247993408001953 26.391234291288335 0 0 0 -1 I I #
coedge $-1 $474 $541 $495 $527 reversed $475 $-1 #
point $-1 -62.247993408001953 -30.867060204969285 5.9859704085294361 #
straight-curve $-1 0 -26.391234291288335 -5.9859704085294361 -1 0 0 I I #
straight-curve $-1 -62.247993408001953 -26.391234291288335 0 0 0 -1 I I #
point $-1 -62.247993408001953 -26.391234291288335 -5.9859704085294361 #
plane-surface $-1 -62.247993408001953 0 0 1 0 0 0 0 -1 forward_v I I I I #
coedge $-1 $538 $492 $544 $545 forward $452 $-1 #
edge $-1 $512 -26.391234291288335 $546 26.391234291288335 $508 $547 forward 7 unknown #
vertex $-1 $527 $548 #
straight-curve $-1 -62.247993408001953 -30.867060204969285 4.4859704085294361 0 0 -1 I I #
edge $-1 $525 -2.237912956840475 $531 2.237912956840475 $517 $549 forward 7 unknown #
straight-curve $-1 0 -30.867060204969285 2.9859704085294361 -1 0 0 I I #
coedge $-1 $544 $497 $541 $550 forward $490 $-1 #
coedge $-1 $497 $544 $499 $533 reversed $490 $-1 #
vertex $-1 $550 $551 #
straight-curve $-1 0 -26.391234291288335 2.9859704085294361 -1 0 0 I I #
edge $-1 $500 -2.9859704085294361 $546 5.9859704085294361 $499 $552 forward 7 unknown #
point $-1 62.247993408001953 -26.391234291288335 2.9859704085294361 #
point $-1 62.247993408001953 -30.867060204969285 2.9859704085294361 #
straight-curve $-1 62.247993408001953 -30.867060204969285 4.4859704085294361 0 0 -1 I I #
plane-surface $-1 62.247993408001953 0 0 -1 0 0 0 0 1 forward_v I I I I #
coedge $-1 $510 $523 $514 $542 forward $452 $-1 #
straight-curve $-1 0 26.391234291288335 -5.9859704085294361 1 0 0 I I #
point $-1 62.247993408001953 26.391234291288335 -5.9859704085294361 #
coedge $-1 $517 $514 $529 $550 reversed $475 $-1 #
edge $-1 $553 -26.391234291288335 $515 26.391234291288335 $514 $554 forward 7 unknown #
point $-1 -62.247993408001953 26.391234291288335 -5.9859704085294361 #
coedge $-1 $530 $529 $523 $545 reversed $490 $-1 #
edge $-1 $546 -62.247993408001953 $553 62.247993408001953 $544 $555 forward 7 unknown #
vertex $-1 $533 $556 #
straight-curve $-1 62.247993408001953 0 -5.9859704085294361 0 -1 0 I I #
point $-1 -62.247993408001953 -30.867060204969285 2.9859704085294361 #
straight-curve $-1 -62.247993408001953 -28.62914724812881 2.9859704085294361 0 1 0 I I #
edge $-1 $531 -2.9859704085294361 $553 5.9859704085294361 $541 $557 forward 7 unknown #
point $-1 -62.247993408001953 -26.391234291288335 2.9859704085294361 #
straight-curve $-1 62.247993408001953 -26.391234291288335 0 0 0 -1 I I #
vertex $-1 $542 $558 #
straight-curve $-1 -62.247993408001953 0 -5.9859704085294361 0 1 0 I I #
straight-curve $-1 0 -26.391234291288335 -5.9859704085294361 -1 0 0 I I #
point $-1 62.247993408001953 -26.391234291288335 -5.9859704085294361 #
straight-curve $-1 -62.247993408001953 -26.391234291288335 0 0 0 -1 I I #
point $-1 -62.247993408001953 -26.391234291288335 -5.9859704085294361 #
End-of-ACIS-data 