500 0 10 0           
7 Unknown 11 ACIS 5.0 NT 24 Fri Mar 26 00:46:21 1999 
-1 9.9999999999999995e-007 1e-010 
body $-1 $10 $-1 $11 #
body $-1 $12 $-1 $13 #
body $-1 $14 $-1 $15 #
body $-1 $16 $-1 $17 #
body $-1 $18 $-1 $19 #
body $-1 $20 $-1 $21 #
body $-1 $22 $-1 $23 #
body $-1 $24 $-1 $25 #
body $-1 $26 $-1 $27 #
body $-1 $28 $-1 $29 #
lump $-1 $-1 $30 $0 #
transform $-1 1 0 0 0 1 0 0 0 1 74.654377880184342 30.617704476474664 13.193822663283859 1 rotate no_reflect no_shear #
lump $-1 $-1 $31 $1 #
transform $-1 1 0 0 0 1 0 0 0 1 74.654377880184342 30.617704476474664 13.193822663283859 1 rotate no_reflect no_shear #
lump $-1 $-1 $32 $2 #
transform $-1 1 0 0 0 1 0 0 0 1 74.654377880184342 30.617704476474664 13.193822663283859 1 rotate no_reflect no_shear #
lump $-1 $-1 $33 $3 #
transform $-1 1 0 0 0 1 0 0 0 1 74.654377880184342 30.617704476474664 13.193822663283859 1 rotate no_reflect no_shear #
lump $-1 $-1 $34 $4 #
transform $-1 1 0 0 0 1 0 0 0 1 74.654377880184342 30.617704476474664 13.193822663283859 1 rotate no_reflect no_shear #
lump $-1 $-1 $35 $5 #
transform $-1 1 0 0 0 1 0 0 0 1 74.654377880184342 30.617704476474664 13.193822663283859 1 rotate no_reflect no_shear #
lump $-1 $-1 $36 $6 #
transform $-1 1 0 0 0 1 0 0 0 1 74.654377880184342 30.617704476474664 13.193822663283859 1 rotate no_reflect no_shear #
lump $-1 $-1 $37 $7 #
transform $-1 1 0 0 0 1 0 0 0 1 74.654377880184342 30.617704476474664 13.193822663283859 1 rotate no_reflect no_shear #
lump $-1 $-1 $38 $8 #
transform $-1 1 0 0 0 1 0 0 0 1 74.654377880184342 30.617704476474664 13.193822663283859 1 rotate no_reflect no_shear #
lump $-1 $-1 $39 $9 #
transform $-1 1 0 0 0 1 0 0 0 1 74.654377880184342 30.617704476474664 13.193822663283859 1 rotate no_reflect no_shear #
shell $-1 $-1 $-1 $40 $-1 $10 #
shell $-1 $-1 $-1 $41 $-1 $12 #
shell $-1 $-1 $-1 $42 $-1 $14 #
shell $-1 $-1 $-1 $43 $-1 $16 #
shell $-1 $-1 $-1 $44 $-1 $18 #
shell $-1 $-1 $-1 $45 $-1 $20 #
shell $-1 $-1 $-1 $46 $-1 $22 #
shell $-1 $-1 $-1 $47 $-1 $24 #
shell $-1 $-1 $-1 $48 $-1 $26 #
shell $-1 $-1 $-1 $49 $-1 $28 #
face $-1 $50 $51 $30 $-1 $52 forward single #
face $-1 $53 $54 $31 $-1 $55 forward single #
face $-1 $56 $57 $32 $-1 $58 forward single #
face $-1 $59 $60 $33 $-1 $61 reversed single #
face $-1 $62 $63 $34 $-1 $64 forward single #
face $-1 $65 $66 $35 $-1 $67 forward single #
face $-1 $68 $69 $36 $-1 $70 forward single #
face $-1 $71 $72 $37 $-1 $73 reversed single #
face $-1 $74 $75 $38 $-1 $76 forward single #
face $-1 $77 $78 $39 $-1 $79 forward single #
face $-1 $80 $81 $30 $-1 $82 reversed single #
loop $-1 $-1 $83 $40 #
plane-surface $-1 0 0 13.193822663283859 0 0 1 1 0 0 forward_v I I I I #
face $-1 $84 $85 $31 $-1 $86 reversed single #
loop $-1 $-1 $87 $41 #
plane-surface $-1 0 -22.664253801098184 -5.8979411249951692 0 0 1 1 0 0 forward_v I I I I #
face $-1 $88 $89 $32 $-1 $90 reversed single #
loop $-1 $-1 $91 $42 #
plane-surface $-1 0 22.341762742739142 -9.2440108393995626 0 0 1 1 0 0 forward_v I I I I #
face $-1 $92 $93 $33 $-1 $94 reversed single #
loop $-1 $-1 $95 $43 #
plane-surface $-1 125.73727000917202 -3.7504371573949697 213.99129251268576 0 -1 0 -0.85716730853699208 0 -0.51503806187062418 forward_v I I I I #
face $-1 $96 $97 $34 $-1 $98 forward single #
loop $-1 $99 $100 $44 #
cone-surface $-1 72.998594540880845 -10.328657758473657 10.893900305420999 -0.85716730853699208 0 -0.51503806187062418 0.25751903093531209 0 -0.42858365426849604 1 I I 0 1 0.5 forward I I I I #
face $-1 $101 $102 $35 $-1 $103 forward single #
loop $-1 $104 $105 $45 #
cone-surface $-1 72.998594540880845 -7.8618250330691488 10.893900305420999 -0.85716730853699208 0 -0.51503806187062418 0.25751903093531209 0 -0.42858365426849604 1 I I 0 1 0.5 forward I I I I #
face $-1 $106 $107 $36 $-1 $108 forward single #
loop $-1 $109 $110 $46 #
cone-surface $-1 72.998594540880845 -5.3949923076646407 10.893900305420999 -0.85716730853699208 0 -0.51503806187062418 0.25751903093531209 0 -0.42858365426849604 1 I I 0 1 0.5 forward I I I I #
face $-1 $111 $112 $37 $-1 $113 reversed single #
loop $-1 $-1 $114 $47 #
plane-surface $-1 -164.51063132248015 4.4716913351148122 129.21808152469865 0 1 0 -0.6018150307709319 0 0.79863550430605224 forward_v I I I I #
face $-1 $115 $116 $38 $-1 $117 forward single #
loop $-1 $118 $119 $48 #
cone-surface $-1 -71.999764604590851 6.4677011396408304 10.89594406208168 0.6018150307709319 0 -0.79863550430605224 0.39931775215302612 0 0.30090751538546595 1 I I 0 1 0.5 forward I I I I #
face $-1 $120 $121 $39 $-1 $122 forward single #
loop $-1 $123 $124 $49 #
cone-surface $-1 -71.999764604590851 9.4617158464298612 10.89594406208168 0.6018150307709319 0 -0.79863550430605224 0.39931775215302612 0 0.30090751538546595 1 I I 0 1 0.5 forward I I I I #
face $-1 $125 $126 $30 $-1 $127 reversed single #
loop $-1 $-1 $128 $50 #
plane-surface $-1 0 0 -13.193822663283859 0 0 1 1 0 0 forward_v I I I I #
coedge $-1 $129 $130 $131 $132 forward $51 $-1 #
face $-1 $133 $134 $31 $-1 $135 reversed single #
loop $-1 $-1 $136 $53 #
plane-surface $-1 0 -14.710803125721704 -9.545881894139514 0 -1 0 0 0 -1 forward_v I I I I #
coedge $-1 $137 $138 $139 $140 reversed $54 $-1 #
face $-1 $141 $142 $32 $-1 $143 reversed single #
loop $-1 $-1 $144 $56 #
plane-surface $-1 0 14.065821009003621 -11.218916751341711 0 1 0 0 0 1 forward_v I I I I #
coedge $-1 $145 $146 $147 $148 reversed $57 $-1 #
face $-1 $149 $150 $33 $-1 $151 reversed single #
loop $-1 $-1 $152 $59 #
plane-surface $-1 -2.2453143069503199 -7.8618250330691488 137.0916003255511 0.85716730853699208 0 0.51503806187062418 0.51503806187062418 0 -0.85716730853699208 forward_v I I I I #
coedge $-1 $153 $154 $155 $156 reversed $60 $-1 #
face $-1 $-1 $157 $34 $-1 $158 forward single #
loop $-1 $159 $160 $62 #
cone-surface $-1 72.355719059478105 -10.328657758473657 10.507621759018031 -0.85716730853699208 0 -0.51503806187062418 0.12875951546765604 0 -0.21429182713424802 1 I I -0.70710678118654746 0.70710678118654746 0.25 forward I I I I #
loop $-1 $-1 $161 $44 #
coedge $-1 $100 $100 $162 $163 reversed $63 $-1 #
face $-1 $-1 $164 $35 $-1 $165 forward single #
loop $-1 $166 $167 $65 #
cone-surface $-1 72.355719059478105 -7.8618250330691488 10.507621759018031 -0.85716730853699208 0 -0.51503806187062418 0.12875951546765604 0 -0.21429182713424802 1 I I -0.70710678118654746 0.70710678118654746 0.25 forward I I I I #
loop $-1 $-1 $168 $45 #
coedge $-1 $105 $105 $169 $170 reversed $66 $-1 #
face $-1 $-1 $171 $36 $-1 $172 forward single #
loop $-1 $173 $174 $68 #
cone-surface $-1 72.355719059478105 -5.3949923076646407 10.507621759018031 -0.85716730853699208 0 -0.51503806187062418 0.12875951546765604 0 -0.21429182713424802 1 I I -0.70710678118654746 0.70710678118654746 0.25 forward I I I I #
loop $-1 $-1 $175 $46 #
coedge $-1 $110 $110 $176 $177 reversed $69 $-1 #
face $-1 $178 $179 $37 $-1 $180 reversed single #
loop $-1 $-1 $181 $71 #
plane-surface $-1 -74.654377880184313 7.9647084930353458 9.9748080707074251 -0.6018150307709319 0 0.79863550430605224 0.79863550430605224 0 0.6018150307709319 forward_v I I I I #
coedge $-1 $182 $183 $184 $185 reversed $72 $-1 #
face $-1 $-1 $186 $38 $-1 $187 forward single #
loop $-1 $188 $189 $74 #
cone-surface $-1 -71.330585851809658 6.4677011396408304 10.007913881091204 0.6018150307709319 0 -0.79863550430605224 0.19965887607651306 0 0.15045375769273298 1 I I -0.70710678118654746 0.70710678118654746 0.25 forward I I I I #
loop $-1 $-1 $190 $48 #
coedge $-1 $119 $119 $191 $192 reversed $75 $-1 #
face $-1 $-1 $193 $39 $-1 $194 forward single #
loop $-1 $195 $196 $77 #
cone-surface $-1 -71.330585851809658 9.4617158464298612 10.007913881091204 0.6018150307709319 0 -0.79863550430605224 0.19965887607651306 0 0.15045375769273298 1 I I -0.70710678118654746 0.70710678118654746 0.25 forward I I I I #
loop $-1 $-1 $197 $49 #
coedge $-1 $124 $124 $198 $199 reversed $78 $-1 #
face $-1 $200 $201 $30 $-1 $202 reversed single #
loop $-1 $-1 $203 $80 #
plane-surface $-1 0 -30.617704476474664 0 0 1 0 0 0 1 forward_v I I I I #
coedge $-1 $204 $205 $206 $207 forward $81 $-1 #
coedge $-1 $208 $83 $209 $210 forward $51 $-1 #
coedge $-1 $83 $208 $211 $212 forward $51 $-1 #
coedge $-1 $213 $214 $83 $132 reversed $215 $-1 #
edge $-1 $216 -30.617704476474664 $217 30.617704476474664 $131 $218 forward 7 unknown #
face $-1 $219 $220 $31 $-1 $221 reversed single #
loop $-1 $-1 $222 $84 #
plane-surface $-1 0 0 -13.193822663283859 0 0 1 1 0 0 forward_v I I I I #
coedge $-1 $223 $224 $225 $226 reversed $85 $-1 #
coedge $-1 $227 $87 $224 $228 forward $54 $-1 #
coedge $-1 $87 $227 $229 $230 reversed $54 $-1 #
coedge $-1 $231 $225 $87 $140 forward $220 $-1 #
edge $-1 $232 3.3786762251726117 $233 19.285577575925572 $139 $234 forward 7 unknown #
face $-1 $235 $236 $32 $-1 $237 reversed single #
loop $-1 $-1 $147 $88 #
plane-surface $-1 74.654377880184342 0 0 -1 0 0 0 0 1 forward_v I I I I #
coedge $-1 $238 $239 $240 $241 reversed $89 $-1 #
coedge $-1 $242 $91 $243 $244 reversed $57 $-1 #
coedge $-1 $91 $242 $239 $245 forward $57 $-1 #
coedge $-1 $246 $247 $91 $148 forward $142 $-1 #
edge $-1 $248 -19.446823105105093 $249 -2.8949396376340495 $147 $250 forward 7 unknown #
face $-1 $251 $252 $33 $-1 $253 forward single #
loop $-1 $-1 $254 $92 #
plane-surface $-1 125.73727000917202 -11.973212908743328 213.99129251268576 0 1 0 0.85716730853699208 0 0.51503806187062418 forward_v I I I I #
coedge $-1 $255 $256 $257 $258 reversed $93 $-1 #
coedge $-1 $154 $95 $259 $260 reversed $60 $-1 #
coedge $-1 $95 $153 $255 $261 reversed $60 $-1 #
coedge $-1 $257 $262 $95 $156 forward $252 $-1 #
edge $-1 $263 -11.785742875598331 $264 -9.3313435055283946 $155 $265 forward 7 unknown #
loop $-1 $-1 $162 $96 #
plane-surface $-1 -2.2453143069503199 -7.8618250330691488 137.0916003255511 0.85716730853699208 0 0.51503806187062418 0.51503806187062418 0 -0.85716730853699208 forward_v I I I I #
loop $-1 $-1 $266 $62 #
coedge $-1 $160 $160 $161 $267 reversed $97 $-1 #
coedge $-1 $161 $161 $160 $267 forward $99 $-1 #
coedge $-1 $162 $162 $100 $163 forward $157 $-1 #
edge $-1 $268 0 $268 6.2831853071796004 $162 $269 forward 7 unknown #
loop $-1 $-1 $169 $101 #
plane-surface $-1 -2.2453143069503199 -7.8618250330691488 137.0916003255511 0.85716730853699208 0 0.51503806187062418 0.51503806187062418 0 -0.85716730853699208 forward_v I I I I #
loop $-1 $-1 $270 $65 #
coedge $-1 $167 $167 $168 $271 reversed $102 $-1 #
coedge $-1 $168 $168 $167 $271 forward $104 $-1 #
coedge $-1 $169 $169 $105 $170 forward $164 $-1 #
edge $-1 $272 0 $272 6.2831853071796004 $169 $273 forward 7 unknown #
loop $-1 $-1 $176 $106 #
plane-surface $-1 -2.2453143069503199 -7.8618250330691488 137.0916003255511 0.85716730853699208 0 0.51503806187062418 0.51503806187062418 0 -0.85716730853699208 forward_v I I I I #
loop $-1 $-1 $274 $68 #
coedge $-1 $174 $174 $175 $275 reversed $107 $-1 #
coedge $-1 $175 $175 $174 $275 forward $109 $-1 #
coedge $-1 $176 $176 $110 $177 forward $171 $-1 #
edge $-1 $276 0 $276 6.2831853071796004 $176 $277 forward 7 unknown #
face $-1 $278 $279 $37 $-1 $280 reversed single #
loop $-1 $-1 $281 $111 #
plane-surface $-1 -164.51063132248015 11.457725650955879 129.21808152469865 0 -1 0 0.6018150307709319 0 -0.79863550430605224 forward_v I I I I #
coedge $-1 $282 $283 $284 $285 reversed $112 $-1 #
coedge $-1 $183 $114 $286 $287 reversed $72 $-1 #
coedge $-1 $114 $182 $282 $288 reversed $72 $-1 #
coedge $-1 $284 $289 $114 $185 forward $290 $-1 #
edge $-1 $291 7.6009377810557339 $292 11.872714342065834 $184 $293 forward 7 unknown #
loop $-1 $-1 $191 $115 #
plane-surface $-1 -74.654377880184313 7.9647084930353458 9.9748080707074251 -0.6018150307709319 0 0.79863550430605224 0.79863550430605224 0 0.6018150307709319 forward_v I I I I #
loop $-1 $-1 $294 $74 #
coedge $-1 $189 $189 $190 $295 reversed $116 $-1 #
coedge $-1 $190 $190 $189 $295 forward $118 $-1 #
coedge $-1 $191 $191 $119 $192 forward $186 $-1 #
edge $-1 $296 0 $296 6.2831853071796004 $191 $297 forward 7 unknown #
loop $-1 $-1 $198 $120 #
plane-surface $-1 -74.654377880184313 7.9647084930353458 9.9748080707074251 -0.6018150307709319 0 0.79863550430605224 0.79863550430605224 0 0.6018150307709319 forward_v I I I I #
loop $-1 $-1 $298 $77 #
coedge $-1 $196 $196 $197 $299 reversed $121 $-1 #
coedge $-1 $197 $197 $196 $299 forward $123 $-1 #
coedge $-1 $198 $198 $124 $199 forward $193 $-1 #
edge $-1 $300 0 $300 6.2831853071796004 $198 $301 forward 7 unknown #
face $-1 $302 $303 $30 $-1 $304 reversed single #
loop $-1 $-1 $305 $125 #
plane-surface $-1 -74.654377880184342 0 0 1 0 0 0 0 -1 forward_v I I I I #
coedge $-1 $306 $211 $307 $308 forward $126 $-1 #
coedge $-1 $309 $128 $306 $310 forward $81 $-1 #
coedge $-1 $128 $309 $311 $312 forward $81 $-1 #
coedge $-1 $214 $213 $128 $207 reversed $215 $-1 #
edge $-1 $313 -30.617704476474664 $314 30.617704476474664 $206 $315 forward 7 unknown #
coedge $-1 $130 $129 $316 $317 forward $51 $-1 #
coedge $-1 $318 $319 $129 $210 reversed $303 $-1 #
edge $-1 $217 -74.654377880184342 $320 74.654377880184342 $209 $321 forward 7 unknown #
coedge $-1 $203 $322 $130 $212 reversed $126 $-1 #
edge $-1 $323 -74.654377880184342 $216 74.654377880184342 $211 $324 forward 7 unknown #
coedge $-1 $206 $131 $322 $325 forward $215 $-1 #
coedge $-1 $131 $206 $318 $326 reversed $215 $-1 #
loop $-1 $-1 $213 $302 #
vertex $-1 $132 $327 #
vertex $-1 $132 $328 #
straight-curve $-1 74.654377880184342 0 13.193822663283859 0 1 0 I I #
face $-1 $329 $330 $31 $-1 $331 reversed single #
loop $-1 $-1 $225 $133 #
plane-surface $-1 74.654377880184342 0 0 -1 0 0 0 0 1 forward_v I I I I #
coedge $-1 $332 $333 $223 $334 forward $134 $-1 #
coedge $-1 $335 $136 $222 $334 reversed $85 $-1 #
coedge $-1 $136 $335 $137 $228 reversed $85 $-1 #
coedge $-1 $139 $336 $136 $226 forward $220 $-1 #
edge $-1 $337 -8.420881716214101 $232 -1.1250001779254122 $225 $338 forward 7 unknown #
coedge $-1 $138 $137 $339 $340 reversed $54 $-1 #
edge $-1 $232 -74.654377880184342 $341 74.654377880184342 $224 $342 forward 7 unknown #
coedge $-1 $343 $344 $138 $230 forward $330 $-1 #
edge $-1 $233 -74.654377880184342 $345 74.654377880184342 $229 $346 forward 7 unknown #
coedge $-1 $336 $139 $344 $347 forward $220 $-1 #
vertex $-1 $140 $348 #
vertex $-1 $347 $349 #
straight-curve $-1 74.654377880184342 -11.332126900549092 -5.8979411249951692 0 -1 0 I I #
face $-1 $350 $351 $32 $-1 $352 reversed single #
loop $-1 $-1 $353 $141 #
plane-surface $-1 0 0 -13.193822663283859 0 0 1 1 0 0 forward_v I I I I #
coedge $-1 $354 $144 $353 $355 reversed $89 $-1 #
coedge $-1 $144 $354 $146 $245 reversed $89 $-1 #
coedge $-1 $356 $357 $144 $241 forward $351 $-1 #
edge $-1 $358 -7.5843642876130035 $359 -3.6345524637287072 $240 $360 forward 7 unknown #
coedge $-1 $146 $145 $356 $361 reversed $57 $-1 #
coedge $-1 $362 $363 $145 $244 forward $364 $-1 #
edge $-1 $365 -74.654377880184342 $248 74.654377880184342 $243 $366 forward 7 unknown #
edge $-1 $359 -74.654377880184342 $249 74.654377880184342 $239 $367 forward 7 unknown #
coedge $-1 $368 $147 $354 $369 forward $142 $-1 #
coedge $-1 $147 $368 $362 $370 reversed $142 $-1 #
vertex $-1 $370 $371 #
vertex $-1 $148 $372 #
straight-curve $-1 74.654377880184342 11.170881371369571 -9.2440108393995626 0 -1 0 I I #
face $-1 $-1 $373 $33 $-1 $374 reversed single #
loop $-1 $-1 $155 $149 #
plane-surface $-1 0 0 13.193822663283859 0 0 1 1 0 0 forward_v I I I I #
coedge $-1 $375 $376 $377 $378 reversed $150 $-1 #
coedge $-1 $379 $152 $154 $261 forward $93 $-1 #
coedge $-1 $152 $379 $375 $380 forward $93 $-1 #
coedge $-1 $377 $155 $152 $258 forward $252 $-1 #
edge $-1 $264 -0.18047535913960466 $381 8.0423003922087535 $257 $382 forward 7 unknown #
coedge $-1 $383 $384 $153 $260 forward $373 $-1 #
edge $-1 $385 -97.886630246914081 $263 -93.801823593059027 $259 $386 forward 7 unknown #
edge $-1 $264 144.54328394037245 $385 149.30875576036868 $154 $387 forward 7 unknown #
coedge $-1 $155 $377 $383 $388 forward $252 $-1 #
vertex $-1 $260 $389 #
vertex $-1 $156 $390 #
straight-curve $-1 62.868635004586011 -3.7504371573949697 13.193822663283854 -1 0 0 I I #
coedge $-1 $266 $266 $-1 $391 reversed $159 $-1 #
edge $-1 $392 0 $392 6.2831853071796004 $160 $393 forward 7 unknown #
vertex $-1 $163 $394 #
ellipse-curve $-1 73.427178195149381 -10.328657758473657 11.151419336356334 0.85716730853699208 0 0.51503806187062418 0.25751903093531209 0 -0.42858365426849604 1 I I #
coedge $-1 $270 $270 $-1 $395 reversed $166 $-1 #
edge $-1 $396 0 $396 6.2831853071796004 $167 $397 forward 7 unknown #
vertex $-1 $170 $398 #
ellipse-curve $-1 73.427178195149381 -7.8618250330691488 11.151419336356334 0.85716730853699208 0 0.51503806187062418 0.25751903093531209 0 -0.42858365426849604 1 I I #
coedge $-1 $274 $274 $-1 $399 reversed $173 $-1 #
edge $-1 $400 0 $400 6.2831853071796004 $174 $401 forward 7 unknown #
vertex $-1 $177 $402 #
ellipse-curve $-1 73.427178195149381 -5.3949923076646407 11.151419336356334 0.85716730853699208 0 0.51503806187062418 0.25751903093531209 0 -0.42858365426849604 1 I I #
face $-1 $-1 $290 $37 $-1 $403 forward single #
loop $-1 $-1 $404 $178 #
plane-surface $-1 -74.654377880184342 0 0 1 0 0 0 0 -1 forward_v I I I I #
coedge $-1 $405 $406 $407 $408 reversed $179 $-1 #
coedge $-1 $409 $181 $183 $288 forward $112 $-1 #
coedge $-1 $181 $409 $405 $410 forward $112 $-1 #
coedge $-1 $407 $184 $181 $285 forward $290 $-1 #
edge $-1 $292 0.48933708859713931 $411 7.4753714044382065 $284 $412 forward 7 unknown #
coedge $-1 $413 $414 $182 $287 forward $279 $-1 #
edge $-1 $415 -54.63423269164192 $291 -51.415218099065463 $286 $416 forward 7 unknown #
edge $-1 $292 -5.3488437941685172 $415 3.5527045195756588e-014 $183 $417 forward 7 unknown #
coedge $-1 $184 $407 $413 $418 forward $290 $-1 #
loop $-1 $-1 $407 $278 #
vertex $-1 $287 $419 #
vertex $-1 $185 $420 #
straight-curve $-1 -82.255315661240076 4.4716913351148122 13.193822663283861 1 0 0 I I #
coedge $-1 $294 $294 $-1 $421 reversed $188 $-1 #
edge $-1 $422 0 $422 6.2831853071796004 $189 $423 forward 7 unknown #
vertex $-1 $192 $424 #
ellipse-curve $-1 -72.518489599679299 6.4677011396408304 11.584315366995629 -0.6018150307709319 0 0.79863550430605224 0.39931775215302612 0 0.30090751538546595 1 I I #
coedge $-1 $298 $298 $-1 $425 reversed $195 $-1 #
edge $-1 $426 0 $426 6.2831853071796004 $196 $427 forward 7 unknown #
vertex $-1 $199 $428 #
ellipse-curve $-1 -72.518489599679299 9.4617158464298612 11.584315366995629 -0.6018150307709319 0 0.79863550430605224 0.39931775215302612 0 0.30090751538546595 1 I I #
face $-1 $-1 $215 $30 $-1 $429 reversed single #
loop $-1 $-1 $318 $200 #
plane-surface $-1 0 30.617704476474664 0 0 -1 0 0 0 -1 forward_v I I I I #
coedge $-1 $430 $316 $319 $431 forward $201 $-1 #
coedge $-1 $322 $203 $204 $310 reversed $126 $-1 #
coedge $-1 $316 $430 $203 $308 reversed $201 $-1 #
edge $-1 $323 -13.193822663283859 $432 13.193822663283859 $307 $433 forward 7 unknown #
coedge $-1 $205 $204 $430 $434 forward $81 $-1 #
edge $-1 $314 -74.654377880184342 $432 74.654377880184342 $306 $435 forward 7 unknown #
coedge $-1 $319 $318 $205 $312 reversed $303 $-1 #
edge $-1 $436 -74.654377880184342 $313 74.654377880184342 $311 $437 forward 7 unknown #
vertex $-1 $207 $438 #
vertex $-1 $325 $439 #
straight-curve $-1 74.654377880184342 0 -13.193822663283859 0 -1 0 I I #
coedge $-1 $305 $307 $208 $317 reversed $201 $-1 #
edge $-1 $320 -30.617704476474664 $323 30.617704476474664 $316 $440 forward 7 unknown #
coedge $-1 $311 $209 $214 $326 forward $303 $-1 #
coedge $-1 $209 $311 $305 $431 reversed $303 $-1 #
vertex $-1 $210 $441 #
straight-curve $-1 0 30.617704476474664 13.193822663283859 -1 0 0 I I #
coedge $-1 $211 $306 $213 $325 reversed $126 $-1 #
vertex $-1 $317 $442 #
straight-curve $-1 0 -30.617704476474664 13.193822663283859 1 0 0 I I #
edge $-1 $216 -13.193822663283859 $314 13.193822663283859 $213 $443 forward 7 unknown #
edge $-1 $217 -13.193822663283859 $313 13.193822663283859 $214 $444 forward 7 unknown #
point $-1 74.654377880184342 -30.617704476474664 13.193822663283859 #
point $-1 74.654377880184342 30.617704476474664 13.193822663283859 #
face $-1 $-1 $445 $31 $-1 $446 reversed single #
loop $-1 $-1 $229 $219 #
plane-surface $-1 0 -30.617704476474664 0 0 1 0 0 0 1 forward_v I I I I #
coedge $-1 $447 $222 $336 $448 forward $134 $-1 #
coedge $-1 $222 $447 $449 $450 forward $134 $-1 #
edge $-1 $451 -74.654377880184342 $337 74.654377880184342 $222 $452 forward 7 unknown #
coedge $-1 $224 $223 $453 $454 reversed $85 $-1 #
coedge $-1 $225 $231 $332 $448 reversed $220 $-1 #
vertex $-1 $448 $455 #
straight-curve $-1 74.654377880184342 -14.710803125721704 -4.772940947069757 0 0 1 I I #
coedge $-1 $453 $456 $227 $340 forward $445 $-1 #
edge $-1 $345 -19.285577575925572 $341 -3.3786762251726117 $339 $457 forward 7 unknown #
vertex $-1 $340 $458 #
straight-curve $-1 0 -14.710803125721704 -5.8979411249951692 -1 0 0 I I #
coedge $-1 $459 $229 $456 $460 forward $330 $-1 #
coedge $-1 $229 $459 $231 $347 reversed $330 $-1 #
vertex $-1 $460 $461 #
straight-curve $-1 0 -30.617704476474664 -5.8979411249951692 -1 0 0 I I #
edge $-1 $233 5.8979411249951692 $462 13.193822663283859 $231 $463 forward 7 unknown #
point $-1 74.654377880184342 -14.710803125721704 -5.8979411249951692 #
point $-1 74.654377880184342 -30.617704476474664 -5.8979411249951692 #
face $-1 $-1 $364 $32 $-1 $464 reversed single #
loop $-1 $-1 $356 $235 #
plane-surface $-1 -74.654377880184342 0 0 1 0 0 0 0 -1 forward_v I I I I #
coedge $-1 $465 $466 $238 $355 forward $236 $-1 #
coedge $-1 $239 $238 $246 $369 reversed $89 $-1 #
edge $-1 $467 -74.654377880184342 $358 74.654377880184342 $353 $468 forward 7 unknown #
coedge $-1 $469 $240 $242 $361 forward $351 $-1 #
coedge $-1 $240 $469 $465 $470 reversed $351 $-1 #
vertex $-1 $470 $471 #
vertex $-1 $361 $472 #
straight-curve $-1 -74.654377880184342 14.065821009003621 -5.6094583756708554 0 0 1 I I #
edge $-1 $359 2.8949396376340495 $365 19.446823105105093 $356 $473 forward 7 unknown #
coedge $-1 $474 $243 $247 $370 forward $364 $-1 #
coedge $-1 $243 $474 $469 $475 reversed $364 $-1 #
loop $-1 $-1 $243 $350 #
vertex $-1 $475 $476 #
straight-curve $-1 0 30.617704476474664 -9.2440108393995626 1 0 0 I I #
straight-curve $-1 0 14.065821009003621 -9.2440108393995626 1 0 0 I I #
coedge $-1 $247 $246 $466 $477 reversed $142 $-1 #
edge $-1 $249 3.6345524637287072 $467 7.5843642876130035 $246 $478 forward 7 unknown #
edge $-1 $248 9.2440108393995626 $479 13.193822663283859 $247 $480 forward 7 unknown #
point $-1 74.654377880184342 30.617704476474664 -9.2440108393995626 #
point $-1 74.654377880184342 14.065821009003621 -9.2440108393995626 #
loop $-1 $-1 $259 $251 #
plane-surface $-1 74.654377880184342 0 0 -1 0 0 0 0 1 forward_v I I I I #
coedge $-1 $376 $254 $256 $380 reversed $150 $-1 #
coedge $-1 $254 $375 $481 $482 reversed $150 $-1 #
coedge $-1 $262 $257 $254 $378 forward $252 $-1 #
edge $-1 $381 9.3313435055283946 $483 11.785742875598331 $377 $484 forward 7 unknown #
coedge $-1 $256 $255 $384 $485 reversed $93 $-1 #
edge $-1 $486 -149.30875576036868 $381 -144.54328394037245 $375 $487 forward 7 unknown #
vertex $-1 $258 $488 #
straight-curve $-1 72.199978510114391 -3.9309125165345744 13.193822663283854 0 -1 0 I I #
coedge $-1 $481 $259 $262 $388 reversed $373 $-1 #
coedge $-1 $259 $481 $379 $485 forward $373 $-1 #
vertex $-1 $260 $489 #
straight-curve $-1 74.654377880184342 -3.7504371573949697 106.99564625634288 0 0 1 I I #
straight-curve $-1 -2.2453143069503199 -3.7504371573949697 137.0916003255511 0.51503806187062418 0 -0.85716730853699208 I I #
edge $-1 $483 -11.973212908743328 $263 -3.7504371573949697 $383 $490 forward 7 unknown #
point $-1 74.654377880184342 -3.7504371573949697 13.193822663283859 #
point $-1 72.199978510114406 -3.7504371573949697 13.193822663283854 #
edge $-1 $491 1 $491 0 $266 $-1 forward 7 unknown #
vertex $-1 $267 $492 #
ellipse-curve $-1 72.570010886612351 -10.328657758473657 10.636381274485688 0.85716730853699208 0 0.51503806187062418 0.25751903093531209 0 -0.42858365426849604 1 I I #
point $-1 73.684697226084651 -10.328657758473657 10.722835682087815 #
edge $-1 $493 1 $493 0 $270 $-1 forward 7 unknown #
vertex $-1 $271 $494 #
ellipse-curve $-1 72.570010886612351 -7.8618250330691488 10.636381274485688 0.85716730853699208 0 0.51503806187062418 0.25751903093531209 0 -0.42858365426849604 1 I I #
point $-1 73.684697226084651 -7.8618250330691488 10.722835682087815 #
edge $-1 $495 1 $495 0 $274 $-1 forward 7 unknown #
vertex $-1 $275 $496 #
ellipse-curve $-1 72.570010886612351 -5.3949923076646407 10.636381274485688 0.85716730853699208 0 0.51503806187062418 0.25751903093531209 0 -0.42858365426849604 1 I I #
point $-1 73.684697226084651 -5.3949923076646407 10.722835682087815 #
plane-surface $-1 0 0 13.193822663283859 0 0 1 1 0 0 forward_v I I I I #
coedge $-1 $414 $413 $406 $497 forward $279 $-1 #
coedge $-1 $406 $281 $283 $410 reversed $179 $-1 #
coedge $-1 $281 $405 $404 $497 reversed $179 $-1 #
coedge $-1 $289 $284 $281 $408 forward $290 $-1 #
edge $-1 $411 -11.872714342065834 $498 -7.6009377810557339 $407 $499 forward 7 unknown #
coedge $-1 $283 $282 $414 $500 reversed $112 $-1 #
edge $-1 $501 -3.5527045195756588e-014 $411 5.3488437941685172 $405 $502 forward 7 unknown #
vertex $-1 $285 $503 #
straight-curve $-1 -70.382601319174242 3.9823542465176729 13.193822663283859 0 1 0 I I #
coedge $-1 $404 $286 $289 $418 reversed $279 $-1 #
coedge $-1 $286 $404 $409 $500 forward $279 $-1 #
vertex $-1 $287 $504 #
straight-curve $-1 -74.654377880184342 4.4716913351148122 64.609040762349323 0 0 1 I I #
straight-curve $-1 -74.654377880184313 4.4716913351148122 9.9748080707074251 -0.79863550430605224 0 -0.6018150307709319 I I #
edge $-1 $498 -11.457725650955879 $291 -4.4716913351148122 $413 $505 forward 7 unknown #
point $-1 -74.654377880184342 4.4716913351148122 13.193822663283859 #
point $-1 -70.382601319174242 4.4716913351148122 13.193822663283859 #
edge $-1 $506 1 $506 0 $294 $-1 forward 7 unknown #
vertex $-1 $295 $507 #
ellipse-curve $-1 -71.481039609502389 6.4677011396408304 10.207572757167718 -0.6018150307709319 0 0.79863550430605224 0.39931775215302612 0 0.30090751538546595 1 I I #
point $-1 -72.119171847526275 6.4677011396408304 11.885222882381109 #
edge $-1 $508 1 $508 0 $298 $-1 forward 7 unknown #
vertex $-1 $299 $509 #
ellipse-curve $-1 -71.481039609502389 9.4617158464298612 10.207572757167718 -0.6018150307709319 0 0.79863550430605224 0.39931775215302612 0 0.30090751538546595 1 I I #
point $-1 -72.119171847526275 9.4617158464298612 11.885222882381109 #
plane-surface $-1 74.654377880184342 0 0 -1 0 0 0 0 1 forward_v I I I I #
coedge $-1 $307 $305 $309 $434 reversed $201 $-1 #
edge $-1 $320 -13.193822663283859 $436 13.193822663283859 $319 $510 forward 7 unknown #
vertex $-1 $434 $511 #
straight-curve $-1 -74.654377880184342 -30.617704476474664 0 0 0 -1 I I #
edge $-1 $432 -30.617704476474664 $436 30.617704476474664 $430 $512 forward 7 unknown #
straight-curve $-1 0 -30.617704476474664 -13.193822663283859 -1 0 0 I I #
vertex $-1 $312 $513 #
straight-curve $-1 0 30.617704476474664 -13.193822663283859 1 0 0 I I #
point $-1 74.654377880184342 30.617704476474664 -13.193822663283859 #
point $-1 74.654377880184342 -30.617704476474664 -13.193822663283859 #
straight-curve $-1 -74.654377880184342 0 13.193822663283859 0 -1 0 I I #
point $-1 -74.654377880184342 30.617704476474664 13.193822663283859 #
point $-1 -74.654377880184342 -30.617704476474664 13.193822663283859 #
straight-curve $-1 74.654377880184342 -30.617704476474664 0 0 0 -1 I I #
straight-curve $-1 74.654377880184342 30.617704476474664 0 0 0 -1 I I #
loop $-1 $-1 $453 $329 #
plane-surface $-1 -74.654377880184342 0 0 1 0 0 0 0 -1 forward_v I I I I #
coedge $-1 $333 $332 $459 $514 forward $134 $-1 #
edge $-1 $337 14.710803125721704 $462 30.617704476474664 $336 $515 forward 7 unknown #
coedge $-1 $456 $453 $333 $450 reversed $445 $-1 #
edge $-1 $516 -30.617704476474664 $451 -14.710803125721704 $449 $517 forward 7 unknown #
vertex $-1 $454 $518 #
straight-curve $-1 0 -14.710803125721704 -13.193822663283859 1 0 0 I I #
coedge $-1 $449 $339 $335 $454 forward $445 $-1 #
edge $-1 $341 1.1250001779254122 $451 8.420881716214101 $453 $519 forward 7 unknown #
point $-1 74.654377880184342 -14.710803125721704 -13.193822663283859 #
coedge $-1 $339 $449 $343 $460 reversed $445 $-1 #
straight-curve $-1 -74.654377880184342 -11.332126900549092 -5.8979411249951692 0 1 0 I I #
point $-1 -74.654377880184342 -14.710803125721704 -5.8979411249951692 #
coedge $-1 $344 $343 $447 $514 reversed $330 $-1 #
edge $-1 $345 5.8979411249951692 $516 13.193822663283859 $456 $520 forward 7 unknown #
point $-1 -74.654377880184342 -30.617704476474664 -5.8979411249951692 #
vertex $-1 $347 $521 #
straight-curve $-1 74.654377880184342 -30.617704476474664 0 0 0 -1 I I #
plane-surface $-1 0 30.617704476474664 0 0 -1 0 0 0 -1 forward_v I I I I #
coedge $-1 $522 $353 $357 $470 forward $236 $-1 #
coedge $-1 $353 $522 $368 $477 forward $236 $-1 #
vertex $-1 $355 $523 #
straight-curve $-1 0 14.065821009003621 -13.193822663283859 -1 0 0 I I #
coedge $-1 $357 $356 $363 $475 forward $351 $-1 #
edge $-1 $358 14.065821009003621 $524 30.617704476474664 $357 $525 forward 7 unknown #
point $-1 -74.654377880184342 14.065821009003621 -13.193822663283859 #
point $-1 -74.654377880184342 14.065821009003621 -9.2440108393995626 #
straight-curve $-1 -74.654377880184342 11.170881371369571 -9.2440108393995626 0 1 0 I I #
coedge $-1 $363 $362 $522 $526 reversed $364 $-1 #
edge $-1 $365 9.2440108393995626 $524 13.193822663283859 $363 $527 forward 7 unknown #
point $-1 -74.654377880184342 30.617704476474664 -9.2440108393995626 #
edge $-1 $479 -30.617704476474664 $467 -14.065821009003621 $368 $528 forward 7 unknown #
straight-curve $-1 74.654377880184342 14.065821009003621 -5.6094583756708554 0 0 -1 I I #
vertex $-1 $477 $529 #
straight-curve $-1 74.654377880184342 30.617704476474664 0 0 0 -1 I I #
coedge $-1 $384 $383 $376 $482 forward $373 $-1 #
edge $-1 $483 93.801823593059027 $486 97.886630246914081 $481 $530 forward 7 unknown #
vertex $-1 $388 $531 #
straight-curve $-1 62.868635004586011 -11.973212908743328 13.193822663283854 1 0 0 I I #
edge $-1 $486 -8.0423003922087535 $385 0.18047535913960466 $384 $532 forward 7 unknown #
vertex $-1 $485 $533 #
straight-curve $-1 -2.2453143069503199 -11.973212908743328 137.0916003255511 -0.51503806187062418 0 0.85716730853699208 I I #
point $-1 72.199978510114406 -11.973212908743328 13.193822663283854 #
point $-1 74.654377880184342 -3.7504371573949697 9.1090160094287995 #
straight-curve $-1 74.654377880184342 0 13.193822663283859 0 1 0 I I #
vertex $-1 $391 $534 #
point $-1 72.827529917547665 -10.328657758473657 10.207797620217191 #
vertex $-1 $395 $535 #
point $-1 72.827529917547665 -7.8618250330691488 10.207797620217191 #
vertex $-1 $399 $536 #
point $-1 72.827529917547665 -5.3949923076646407 10.207797620217191 #
edge $-1 $498 51.415218099065463 $501 54.63423269164192 $404 $537 forward 7 unknown #
vertex $-1 $418 $538 #
straight-curve $-1 -82.255315661240076 11.457725650955879 13.193822663283861 -1 0 0 I I #
edge $-1 $501 -7.4753714044382065 $415 -0.48933708859713931 $414 $539 forward 7 unknown #
vertex $-1 $500 $540 #
straight-curve $-1 -74.654377880184313 11.457725650955879 9.9748080707074251 0.79863550430605224 0 0.6018150307709319 I I #
point $-1 -70.382601319174242 11.457725650955879 13.193822663283859 #
point $-1 -74.654377880184342 4.4716913351148122 9.9748080707074038 #
straight-curve $-1 -74.654377880184342 0 13.193822663283859 0 -1 0 I I #
vertex $-1 $421 $541 #
point $-1 -71.081721857349365 6.4677011396408304 10.508480272553182 #
vertex $-1 $425 $542 #
point $-1 -71.081721857349365 9.4617158464298612 10.508480272553182 #
straight-curve $-1 -74.654377880184342 30.617704476474664 0 0 0 -1 I I #
point $-1 -74.654377880184342 -30.617704476474664 -13.193822663283859 #
straight-curve $-1 -74.654377880184342 0 -13.193822663283859 0 1 0 I I #
point $-1 -74.654377880184342 30.617704476474664 -13.193822663283859 #
edge $-1 $462 -74.654377880184342 $516 74.654377880184342 $459 $543 forward 7 unknown #
straight-curve $-1 74.654377880184342 0 -13.193822663283859 0 -1 0 I I #
vertex $-1 $450 $544 #
straight-curve $-1 -74.654377880184342 0 -13.193822663283859 0 1 0 I I #
point $-1 -74.654377880184342 -14.710803125721704 -13.193822663283859 #
straight-curve $-1 -74.654377880184342 -14.710803125721704 -4.772940947069757 0 0 -1 I I #
straight-curve $-1 -74.654377880184342 -30.617704476474664 0 0 0 -1 I I #
point $-1 74.654377880184342 -30.617704476474664 -13.193822663283859 #
coedge $-1 $466 $465 $474 $526 forward $236 $-1 #
point $-1 74.654377880184342 14.065821009003621 -13.193822663283859 #
vertex $-1 $526 $545 #
straight-curve $-1 -74.654377880184342 0 -13.193822663283859 0 1 0 I I #
edge $-1 $524 -74.654377880184342 $479 74.654377880184342 $474 $546 forward 7 unknown #
straight-curve $-1 -74.654377880184342 30.617704476474664 0 0 0 -1 I I #
straight-curve $-1 74.654377880184342 0 -13.193822663283859 0 -1 0 I I #
point $-1 74.654377880184342 30.617704476474664 -13.193822663283859 #
straight-curve $-1 74.654377880184342 -11.973212908743328 106.99564625634288 0 0 -1 I I #
point $-1 74.654377880184342 -11.973212908743328 13.193822663283859 #
straight-curve $-1 74.654377880184342 -3.9309125165345744 9.1090160094287782 0 1 0 I I #
point $-1 74.654377880184342 -11.973212908743328 9.1090160094287995 #
point $-1 72.141427232343858 -10.328657758473657 10.378862243550374 #
point $-1 72.141427232343858 -7.8618250330691488 10.378862243550374 #
point $-1 72.141427232343858 -5.3949923076646407 10.378862243550374 #
straight-curve $-1 -74.654377880184342 11.457725650955879 64.609040762349323 0 0 -1 I I #
point $-1 -74.654377880184342 11.457725650955879 13.193822663283859 #
straight-curve $-1 -74.654377880184342 3.9823542465176729 9.9748080707074074 0 -1 0 I I #
point $-1 -74.654377880184342 11.457725650955879 9.9748080707074038 #
point $-1 -71.180132094116928 6.4677011396408304 9.8082550050146899 #
point $-1 -71.180132094116928 9.4617158464298612 9.8082550050146899 #
straight-curve $-1 0 -30.617704476474664 -13.193822663283859 -1 0 0 I I #
point $-1 -74.654377880184342 -30.617704476474664 -13.193822663283859 #
point $-1 -74.654377880184342 30.617704476474664 -13.193822663283859 #
straight-curve $-1 0 30.617704476474664 -13.193822663283859 1 0 0 I I #
End-of-ACIS-data 