500 0 5 0           
7 Unknown 11 ACIS 5.0 NT 24 Thu Mar 25 15:07:11 1999 
-1 9.9999999999999995e-007 1e-010 
body $-1 $5 $-1 $6 #
body $-1 $7 $-1 $8 #
body $-1 $9 $-1 $10 #
body $-1 $11 $-1 $12 #
body $-1 $13 $-1 $14 #
lump $-1 $-1 $15 $0 #
transform $-1 1 0 0 0 1 0 0 0 1 56.627704702902307 23.637188888316782 9.329429003989139 1 rotate no_reflect no_shear #
lump $-1 $-1 $16 $1 #
transform $-1 1 0 0 0 1 0 0 0 1 56.627704702902307 23.637188888316782 9.329429003989139 1 rotate no_reflect no_shear #
lump $-1 $-1 $17 $2 #
transform $-1 1 0 0 0 1 0 0 0 1 56.627704702902307 23.637188888316782 9.329429003989139 1 rotate no_reflect no_shear #
lump $-1 $-1 $18 $3 #
transform $-1 1 0 0 0 1 0 0 0 1 56.627704702902307 23.637188888316782 9.329429003989139 1 rotate no_reflect no_shear #
lump $-1 $-1 $19 $4 #
transform $-1 1 0 0 0 1 0 0 0 1 56.627704702902307 23.637188888316782 9.329429003989139 1 rotate no_reflect no_shear #
shell $-1 $-1 $-1 $20 $-1 $5 #
shell $-1 $-1 $-1 $21 $-1 $7 #
shell $-1 $-1 $-1 $22 $-1 $9 #
shell $-1 $-1 $-1 $23 $-1 $11 #
shell $-1 $-1 $-1 $24 $-1 $13 #
face $-1 $25 $26 $15 $-1 $27 forward single #
face $-1 $28 $29 $16 $-1 $30 reversed single #
face $-1 $31 $32 $17 $-1 $33 reversed single #
face $-1 $34 $35 $18 $-1 $36 forward single #
face $-1 $37 $38 $19 $-1 $39 forward single #
face $-1 $40 $41 $15 $-1 $42 reversed single #
loop $-1 $-1 $43 $20 #
plane-surface $-1 0 0 9.329429003989139 0 0 1 1 0 0 forward_v I I I I #
face $-1 $44 $45 $16 $-1 $46 reversed single #
loop $-1 $-1 $47 $21 #
plane-surface $-1 -50.7509331751113 -19.09846310467498 0 0 -1 0 0 0 -1 forward_v I I I I #
face $-1 $48 $49 $17 $-1 $50 reversed single #
loop $-1 $-1 $51 $22 #
plane-surface $-1 46.410143404556663 -23.6371888883168 1.2503553557793623 0 -0.61566148304635926 0.78801074757464917 1 0 0 forward_v I I I I #
face $-1 $52 $53 $18 $-1 $54 forward single #
loop $-1 $55 $56 $23 #
cone-surface $-1 42.031188562408531 -17.553443326843755 4.1208263984242688 0 0.61566148304635926 -0.78801074757464917 1.5 0 0 1 I I 0 1 1.5 forward I I I I #
face $-1 $57 $58 $19 $-1 $59 forward single #
loop $-1 $60 $61 $24 #
cone-surface $-1 50.789098246704796 -17.553443326843755 4.1208263984242688 0 0.61566148304635926 -0.78801074757464917 1.5 0 0 1 I I 0 1 1.5 forward I I I I #
face $-1 $62 $63 $15 $-1 $64 reversed single #
loop $-1 $-1 $65 $25 #
plane-surface $-1 0 0 -9.329429003989139 0 0 1 1 0 0 forward_v I I I I #
coedge $-1 $66 $67 $68 $69 forward $26 $-1 #
face $-1 $70 $71 $16 $-1 $72 forward single #
loop $-1 $-1 $73 $28 #
plane-surface $-1 -44.874161647320292 -21.367825996495881 0 -1 0 0 0 0 1 forward_v I I I I #
coedge $-1 $74 $75 $76 $77 forward $29 $-1 #
face $-1 $78 $79 $17 $-1 $80 reversed single #
loop $-1 $-1 $81 $31 #
plane-surface $-1 36.19258210621102 -93.36418220611705 90.496835188520407 1 0 0 0 0.61566148304635926 -0.78801074757464917 forward_v I I I I #
coedge $-1 $82 $83 $84 $85 reversed $32 $-1 #
face $-1 $-1 $86 $18 $-1 $87 forward single #
loop $-1 $88 $89 $34 #
cone-surface $-1 42.031188562408531 -16.178322904617595 2.3607525562833125 0 0.61566148304635926 -0.78801074757464917 0.75 0 0 1 I I -0.70710678118654757 0.70710678118654757 0.75 forward I I I I #
loop $-1 $-1 $90 $23 #
coedge $-1 $56 $56 $91 $92 reversed $35 $-1 #
face $-1 $-1 $93 $19 $-1 $94 forward single #
loop $-1 $95 $96 $37 #
cone-surface $-1 50.789098246704796 -16.178322904617595 2.3607525562833125 0 0.61566148304635926 -0.78801074757464917 0.75 0 0 1 I I -0.70710678118654757 0.70710678118654757 0.75 forward I I I I #
loop $-1 $-1 $97 $24 #
coedge $-1 $61 $61 $98 $99 reversed $38 $-1 #
face $-1 $100 $101 $15 $-1 $102 reversed single #
loop $-1 $-1 $103 $40 #
plane-surface $-1 0 -23.637188888316782 0 0 1 0 0 0 1 forward_v I I I I #
coedge $-1 $104 $105 $106 $107 forward $41 $-1 #
coedge $-1 $108 $43 $109 $110 forward $26 $-1 #
coedge $-1 $43 $108 $111 $112 forward $26 $-1 #
coedge $-1 $113 $114 $43 $69 reversed $115 $-1 #
edge $-1 $116 -23.637188888316782 $117 23.637188888316782 $68 $118 forward 7 unknown #
face $-1 $119 $120 $16 $-1 $121 reversed single #
loop $-1 $-1 $122 $44 #
plane-surface $-1 0 0 9.329429003989139 0 0 1 1 0 0 forward_v I I I I #
coedge $-1 $123 $124 $125 $126 reversed $45 $-1 #
coedge $-1 $127 $47 $128 $129 reversed $29 $-1 #
coedge $-1 $47 $127 $130 $131 reversed $29 $-1 #
coedge $-1 $124 $123 $47 $77 reversed $45 $-1 #
edge $-1 $132 -9.329429003989139 $133 9.329429003989139 $76 $134 forward 7 unknown #
face $-1 $135 $136 $17 $-1 $137 forward single #
loop $-1 $-1 $138 $48 #
plane-surface $-1 56.627704702902307 0 0 -1 0 0 0 0 1 forward_v I I I I #
coedge $-1 $139 $140 $141 $142 reversed $49 $-1 #
coedge $-1 $143 $51 $138 $144 reversed $32 $-1 #
coedge $-1 $51 $143 $139 $145 forward $32 $-1 #
coedge $-1 $141 $146 $51 $85 forward $136 $-1 #
edge $-1 $147 -33.422633000623975 $148 -12.987510403932689 $84 $149 forward 7 unknown #
loop $-1 $-1 $91 $52 #
plane-surface $-1 46.410143404556663 -23.6371888883168 1.2503553557793623 0 -0.61566148304635926 0.78801074757464917 1 0 0 forward_v I I I I #
loop $-1 $-1 $150 $34 #
coedge $-1 $89 $89 $90 $151 reversed $53 $-1 #
coedge $-1 $90 $90 $89 $151 forward $55 $-1 #
coedge $-1 $91 $91 $56 $92 forward $86 $-1 #
edge $-1 $152 -1.4624367359319818e-016 $152 6.2831853071796004 $91 $153 forward 7 unknown #
loop $-1 $-1 $98 $57 #
plane-surface $-1 46.410143404556663 -23.6371888883168 1.2503553557793623 0 -0.61566148304635926 0.78801074757464917 1 0 0 forward_v I I I I #
loop $-1 $-1 $154 $37 #
coedge $-1 $96 $96 $97 $155 reversed $58 $-1 #
coedge $-1 $97 $97 $96 $155 forward $60 $-1 #
coedge $-1 $98 $98 $61 $99 forward $93 $-1 #
edge $-1 $156 -1.4624367359319818e-016 $156 6.2831853071796004 $98 $157 forward 7 unknown #
face $-1 $158 $159 $15 $-1 $160 reversed single #
loop $-1 $-1 $161 $62 #
plane-surface $-1 -56.627704702902307 0 0 1 0 0 0 0 -1 forward_v I I I I #
coedge $-1 $162 $111 $163 $164 forward $63 $-1 #
coedge $-1 $165 $65 $162 $166 forward $41 $-1 #
coedge $-1 $65 $165 $167 $168 forward $41 $-1 #
coedge $-1 $114 $113 $65 $107 reversed $115 $-1 #
edge $-1 $169 -23.637188888316782 $170 23.637188888316782 $106 $171 forward 7 unknown #
coedge $-1 $67 $66 $172 $173 forward $26 $-1 #
coedge $-1 $174 $175 $66 $110 reversed $159 $-1 #
edge $-1 $117 -56.627704702902307 $176 56.627704702902307 $109 $177 forward 7 unknown #
coedge $-1 $103 $178 $67 $112 reversed $63 $-1 #
edge $-1 $179 -56.627704702902307 $116 56.627704702902307 $111 $180 forward 7 unknown #
coedge $-1 $106 $68 $178 $181 forward $115 $-1 #
coedge $-1 $68 $106 $174 $182 reversed $115 $-1 #
loop $-1 $-1 $113 $158 #
vertex $-1 $69 $183 #
vertex $-1 $69 $184 #
straight-curve $-1 56.627704702902307 0 9.329429003989139 0 1 0 I I #
face $-1 $185 $186 $16 $-1 $187 reversed single #
loop $-1 $-1 $188 $70 #
plane-surface $-1 -56.627704702902307 0 0 1 0 0 0 0 -1 forward_v I I I I #
coedge $-1 $130 $189 $124 $190 forward $71 $-1 #
coedge $-1 $76 $73 $191 $192 reversed $45 $-1 #
coedge $-1 $73 $76 $122 $190 reversed $45 $-1 #
coedge $-1 $193 $194 $73 $126 forward $195 $-1 #
edge $-1 $196 -9.329429003989139 $197 9.329429003989139 $125 $198 forward 7 unknown #
coedge $-1 $75 $74 $188 $199 reversed $29 $-1 #
coedge $-1 $191 $200 $74 $129 forward $186 $-1 #
edge $-1 $201 -31.252238115346657 $133 -19.498695059764643 $128 $202 forward 7 unknown #
coedge $-1 $203 $122 $75 $131 forward $71 $-1 #
edge $-1 $132 19.498695059764643 $204 31.252238115346657 $130 $205 forward 7 unknown #
vertex $-1 $131 $206 #
vertex $-1 $129 $207 #
straight-curve $-1 -44.874161647320292 -19.09846310467498 0 0 0 -1 I I #
face $-1 $-1 $208 $17 $-1 $209 reversed single #
loop $-1 $-1 $84 $78 #
plane-surface $-1 0 0 9.329429003989139 0 0 1 1 0 0 forward_v I I I I #
coedge $-1 $210 $211 $82 $144 forward $79 $-1 #
coedge $-1 $140 $81 $83 $145 reversed $49 $-1 #
coedge $-1 $81 $139 $212 $213 reversed $49 $-1 #
coedge $-1 $214 $84 $81 $142 forward $136 $-1 #
edge $-1 $148 -33.385644717804965 $215 -23.044902214741743 $141 $216 forward 7 unknown #
coedge $-1 $83 $82 $217 $218 reversed $32 $-1 #
edge $-1 $219 -8.928281626885795 $147 4.1943090673275849 $138 $220 forward 7 unknown #
edge $-1 $221 2.2610254388298349e-014 $148 13.122590694213404 $139 $222 forward 7 unknown #
coedge $-1 $84 $214 $210 $223 forward $136 $-1 #
vertex $-1 $144 $224 #
vertex $-1 $85 $225 #
straight-curve $-1 23.205071702278332 -13.29644638525356 9.329429003989139 -1 0 0 I I #
coedge $-1 $150 $150 $-1 $226 reversed $88 $-1 #
edge $-1 $227 0 $227 6.2831853071796004 $89 $228 forward 7 unknown #
vertex $-1 $92 $229 #
ellipse-curve $-1 42.031188562408531 -18.466817636785166 5.2898921798842622 0 -0.61566148304635926 0.78801074757464917 1.5 0 0 1 I I #
coedge $-1 $154 $154 $-1 $230 reversed $95 $-1 #
edge $-1 $231 0 $231 6.2831853071796004 $96 $232 forward 7 unknown #
vertex $-1 $99 $233 #
ellipse-curve $-1 50.789098246704796 -18.466817636785166 5.2898921798842622 0 -0.61566148304635926 0.78801074757464917 1.5 0 0 1 I I #
face $-1 $-1 $115 $15 $-1 $234 reversed single #
loop $-1 $-1 $174 $100 #
plane-surface $-1 0 23.637188888316782 0 0 -1 0 0 0 -1 forward_v I I I I #
coedge $-1 $235 $172 $175 $236 forward $101 $-1 #
coedge $-1 $178 $103 $104 $166 reversed $63 $-1 #
coedge $-1 $172 $235 $103 $164 reversed $101 $-1 #
edge $-1 $179 -9.329429003989139 $237 9.329429003989139 $163 $238 forward 7 unknown #
coedge $-1 $105 $104 $235 $239 forward $41 $-1 #
edge $-1 $170 -56.627704702902307 $237 56.627704702902307 $162 $240 forward 7 unknown #
coedge $-1 $175 $174 $105 $168 reversed $159 $-1 #
edge $-1 $241 -56.627704702902307 $169 56.627704702902307 $167 $242 forward 7 unknown #
vertex $-1 $107 $243 #
vertex $-1 $181 $244 #
straight-curve $-1 56.627704702902307 0 -9.329429003989139 0 -1 0 I I #
coedge $-1 $161 $163 $108 $173 reversed $101 $-1 #
edge $-1 $176 -23.637188888316782 $179 23.637188888316782 $172 $245 forward 7 unknown #
coedge $-1 $167 $109 $114 $182 forward $159 $-1 #
coedge $-1 $109 $167 $161 $236 reversed $159 $-1 #
vertex $-1 $110 $246 #
straight-curve $-1 0 23.637188888316782 9.329429003989139 -1 0 0 I I #
coedge $-1 $111 $162 $113 $181 reversed $63 $-1 #
vertex $-1 $173 $247 #
straight-curve $-1 0 -23.637188888316782 9.329429003989139 1 0 0 I I #
edge $-1 $116 -9.329429003989139 $170 9.329429003989139 $113 $248 forward 7 unknown #
edge $-1 $117 -9.329429003989139 $169 9.329429003989139 $114 $249 forward 7 unknown #
point $-1 56.627704702902307 -23.637188888316782 9.329429003989139 #
point $-1 56.627704702902307 23.637188888316782 9.329429003989139 #
face $-1 $-1 $195 $16 $-1 $250 reversed single #
loop $-1 $-1 $191 $119 #
plane-surface $-1 0 0 -9.329429003989139 0 0 1 1 0 0 forward_v I I I I #
coedge $-1 $251 $252 $127 $199 forward $120 $-1 #
coedge $-1 $122 $203 $193 $253 forward $71 $-1 #
edge $-1 $197 -12.953275890068841 $132 -8.4145501064270398 $122 $254 forward 7 unknown #
coedge $-1 $255 $128 $123 $192 forward $186 $-1 #
edge $-1 $133 8.4145501064270398 $196 12.953275890068841 $191 $256 forward 7 unknown #
coedge $-1 $257 $125 $189 $253 reversed $195 $-1 #
coedge $-1 $125 $257 $255 $258 reversed $195 $-1 #
loop $-1 $-1 $125 $185 #
vertex $-1 $258 $259 #
vertex $-1 $126 $260 #
straight-curve $-1 -44.874161647320292 -23.637188888316782 0 0 0 1 I I #
edge $-1 $204 -9.329429003989139 $201 9.329429003989139 $188 $261 forward 7 unknown #
coedge $-1 $128 $255 $251 $262 forward $186 $-1 #
vertex $-1 $129 $263 #
straight-curve $-1 -25.37546658755565 -19.09846310467498 -9.329429003989139 1 0 0 I I #
coedge $-1 $189 $130 $252 $264 forward $71 $-1 #
vertex $-1 $264 $265 #
straight-curve $-1 -25.37546658755565 -19.09846310467498 9.329429003989139 -1 0 0 I I #
point $-1 -44.874161647320292 -19.09846310467498 9.329429003989139 #
point $-1 -44.874161647320292 -19.09846310467498 -9.329429003989139 #
loop $-1 $-1 $217 $135 #
plane-surface $-1 0 -23.637188888316782 0 0 1 0 0 0 1 forward_v I I I I #
coedge $-1 $211 $138 $146 $223 reversed $79 $-1 #
coedge $-1 $138 $210 $266 $267 forward $79 $-1 #
coedge $-1 $217 $268 $140 $213 forward $208 $-1 #
edge $-1 $215 35.918988590271063 $221 43.998062238480827 $212 $269 forward 7 unknown #
coedge $-1 $146 $141 $268 $270 forward $136 $-1 #
vertex $-1 $270 $271 #
straight-curve $-1 36.19258210621102 -46.682091103058525 9.3294290039891408 0 -1 0 I I #
coedge $-1 $266 $212 $143 $218 forward $208 $-1 #
edge $-1 $221 12.987510403932689 $219 33.422633000623975 $217 $272 forward 7 unknown #
vertex $-1 $144 $273 #
straight-curve $-1 56.627704702902307 -16.601607008957501 6.7471544632434455 0 0.78801074757464917 0.61566148304635926 I I #
vertex $-1 $218 $274 #
straight-curve $-1 36.19258210621102 -23.6371888883168 1.2503553557793623 0 0.78801074757464917 0.61566148304635926 I I #
edge $-1 $275 -23.637188888316782 $147 -13.296446385253562 $210 $276 forward 7 unknown #
point $-1 56.627704702902307 -13.296446385253562 9.329429003989139 #
point $-1 36.19258210621102 -13.296446385253562 9.329429003989139 #
edge $-1 $277 1 $277 0 $150 $-1 forward 7 unknown #
vertex $-1 $151 $278 #
ellipse-curve $-1 42.031188562408531 -16.640069016902363 2.9517606169642994 0 -0.61566148304635926 0.78801074757464917 1.5 0 0 1 I I #
point $-1 43.531188562408531 -18.466817636785148 5.2898921798842391 #
edge $-1 $279 1 $279 0 $154 $-1 forward 7 unknown #
vertex $-1 $155 $280 #
ellipse-curve $-1 50.789098246704796 -16.640069016902363 2.9517606169642994 0 -0.61566148304635926 0.78801074757464917 1.5 0 0 1 I I #
point $-1 52.289098246704796 -18.466817636785148 5.2898921798842391 #
plane-surface $-1 56.627704702902307 0 0 -1 0 0 0 0 1 forward_v I I I I #
coedge $-1 $163 $161 $165 $239 reversed $101 $-1 #
edge $-1 $176 -9.329429003989139 $241 9.329429003989139 $175 $281 forward 7 unknown #
vertex $-1 $239 $282 #
straight-curve $-1 -56.627704702902307 -23.637188888316782 0 0 0 -1 I I #
edge $-1 $237 -23.637188888316782 $241 23.637188888316782 $235 $283 forward 7 unknown #
straight-curve $-1 0 -23.637188888316782 -9.329429003989139 -1 0 0 I I #
vertex $-1 $168 $284 #
straight-curve $-1 0 23.637188888316782 -9.329429003989139 1 0 0 I I #
point $-1 56.627704702902307 23.637188888316782 -9.329429003989139 #
point $-1 56.627704702902307 -23.637188888316782 -9.329429003989139 #
straight-curve $-1 -56.627704702902307 0 9.329429003989139 0 -1 0 I I #
point $-1 -56.627704702902307 23.637188888316782 9.329429003989139 #
point $-1 -56.627704702902307 -23.637188888316782 9.329429003989139 #
straight-curve $-1 56.627704702902307 -23.637188888316782 0 0 0 -1 I I #
straight-curve $-1 56.627704702902307 23.637188888316782 0 0 0 -1 I I #
plane-surface $-1 0 -23.637188888316782 0 0 1 0 0 0 1 forward_v I I I I #
coedge $-1 $285 $188 $200 $262 reversed $120 $-1 #
coedge $-1 $188 $285 $203 $264 reversed $120 $-1 #
edge $-1 $286 -56.627704702902307 $197 -44.874161647320292 $193 $287 forward 7 unknown #
straight-curve $-1 -44.874161647320292 -10.683912998247941 9.329429003989139 0 1 0 I I #
coedge $-1 $200 $191 $194 $258 forward $186 $-1 #
straight-curve $-1 -44.874161647320292 -10.683912998247941 -9.329429003989139 0 -1 0 I I #
coedge $-1 $194 $193 $285 $288 forward $195 $-1 #
edge $-1 $196 44.874161647320292 $289 56.627704702902307 $194 $290 forward 7 unknown #
point $-1 -44.874161647320292 -23.637188888316782 -9.329429003989139 #
point $-1 -44.874161647320292 -23.637188888316782 9.329429003989139 #
straight-curve $-1 -56.627704702902307 -19.09846310467498 0 0 0 -1 I I #
edge $-1 $289 -23.637188888316782 $201 -19.09846310467498 $251 $291 forward 7 unknown #
point $-1 -56.627704702902307 -19.09846310467498 -9.329429003989139 #
edge $-1 $204 19.09846310467498 $286 23.637188888316782 $252 $292 forward 7 unknown #
point $-1 -56.627704702902307 -19.09846310467498 9.329429003989139 #
coedge $-1 $268 $217 $211 $267 reversed $208 $-1 #
edge $-1 $275 -9.329429003989139 $219 -1.2503553557793763 $211 $293 forward 7 unknown #
coedge $-1 $212 $266 $214 $270 reversed $208 $-1 #
straight-curve $-1 36.19258210621102 -23.637188888316786 45.248417594260204 0 0 -1 I I #
edge $-1 $215 36.19258210621102 $275 56.627704702902307 $268 $294 forward 7 unknown #
point $-1 36.19258210621102 -23.637188888316782 9.329429003989139 #
straight-curve $-1 23.205071702278332 -23.637188888316782 1.2503553557793787 1 0 0 I I #
point $-1 56.627704702902307 -23.637188888316782 1.2503553557793763 #
point $-1 36.19258210621102 -23.637188888316782 1.2503553557793763 #
vertex $-1 $223 $295 #
straight-curve $-1 56.627704702902307 0 9.329429003989139 0 1 0 I I #
vertex $-1 $226 $296 #
point $-1 43.531188562408531 -16.640069016902363 2.9517606169642994 #
vertex $-1 $230 $297 #
point $-1 52.289098246704796 -16.640069016902363 2.9517606169642994 #
straight-curve $-1 -56.627704702902307 23.637188888316782 0 0 0 -1 I I #
point $-1 -56.627704702902307 -23.637188888316782 -9.329429003989139 #
straight-curve $-1 -56.627704702902307 0 -9.329429003989139 0 1 0 I I #
point $-1 -56.627704702902307 23.637188888316782 -9.329429003989139 #
coedge $-1 $252 $251 $257 $288 reversed $120 $-1 #
vertex $-1 $264 $298 #
straight-curve $-1 0 -23.637188888316782 9.329429003989139 1 0 0 I I #
edge $-1 $286 -9.329429003989139 $289 9.329429003989139 $285 $299 forward 7 unknown #
vertex $-1 $262 $300 #
straight-curve $-1 0 -23.637188888316782 -9.329429003989139 -1 0 0 I I #
straight-curve $-1 -56.627704702902307 0 -9.329429003989139 0 1 0 I I #
straight-curve $-1 -56.627704702902307 0 9.329429003989139 0 -1 0 I I #
straight-curve $-1 56.627704702902307 -23.637188888316782 0 0 0 -1 I I #
straight-curve $-1 0 -23.637188888316782 9.329429003989139 1 0 0 I I #
point $-1 56.627704702902307 -23.637188888316782 9.329429003989139 #
point $-1 42.031188562408531 -15.716576792332825 1.7697444956023256 #
point $-1 50.789098246704796 -15.716576792332825 1.7697444956023256 #
point $-1 -56.627704702902307 -23.637188888316782 9.329429003989139 #
straight-curve $-1 -56.627704702902307 -23.637188888316782 0 0 0 -1 I I #
point $-1 -56.627704702902307 -23.637188888316782 -9.329429003989139 #
End-of-ACIS-data 