500 0 12 0           
7 Unknown 11 ACIS 5.0 NT 24 Fri Mar 26 14:25:52 1999 
-1 9.9999999999999995e-007 1e-010 
body $-1 $12 $-1 $13 #
body $-1 $14 $-1 $15 #
body $-1 $16 $-1 $17 #
body $-1 $18 $-1 $19 #
body $-1 $20 $-1 $21 #
body $-1 $22 $-1 $23 #
body $-1 $24 $-1 $25 #
body $-1 $26 $-1 $27 #
body $-1 $28 $-1 $29 #
body $-1 $30 $-1 $31 #
body $-1 $32 $-1 $33 #
body $-1 $34 $-1 $35 #
lump $-1 $-1 $36 $0 #
transform $-1 1 0 0 0 1 0 0 0 1 62.19183935056612 25.823649057039017 9.0237367382762148 1 rotate no_reflect no_shear #
lump $-1 $-1 $37 $1 #
transform $-1 1 0 0 0 1 0 0 0 1 62.19183935056612 25.823649057039017 9.0237367382762148 1 rotate no_reflect no_shear #
lump $-1 $-1 $38 $2 #
transform $-1 1 0 0 0 1 0 0 0 1 62.19183935056612 25.823649057039017 9.0237367382762148 1 rotate no_reflect no_shear #
lump $-1 $-1 $39 $3 #
transform $-1 1 0 0 0 1 0 0 0 1 62.19183935056612 25.823649057039017 9.0237367382762148 1 rotate no_reflect no_shear #
lump $-1 $-1 $40 $4 #
transform $-1 1 0 0 0 1 0 0 0 1 62.19183935056612 25.823649057039017 9.0237367382762148 1 rotate no_reflect no_shear #
lump $-1 $-1 $41 $5 #
transform $-1 1 0 0 0 1 0 0 0 1 62.19183935056612 25.823649057039017 9.0237367382762148 1 rotate no_reflect no_shear #
lump $-1 $-1 $42 $6 #
transform $-1 1 0 0 0 1 0 0 0 1 62.19183935056612 25.823649057039017 9.0237367382762148 1 rotate no_reflect no_shear #
lump $-1 $-1 $43 $7 #
transform $-1 1 0 0 0 1 0 0 0 1 62.19183935056612 25.823649057039017 9.0237367382762148 1 rotate no_reflect no_shear #
lump $-1 $-1 $44 $8 #
transform $-1 1 0 0 0 1 0 0 0 1 62.19183935056612 25.823649057039017 9.0237367382762148 1 rotate no_reflect no_shear #
lump $-1 $-1 $45 $9 #
transform $-1 1 0 0 0 1 0 0 0 1 62.19183935056612 25.823649057039017 9.0237367382762148 1 rotate no_reflect no_shear #
lump $-1 $-1 $46 $10 #
transform $-1 1 0 0 0 1 0 0 0 1 62.19183935056612 25.823649057039017 9.0237367382762148 1 rotate no_reflect no_shear #
lump $-1 $-1 $47 $11 #
transform $-1 1 0 0 0 1 0 0 0 1 62.19183935056612 25.823649057039017 9.0237367382762148 1 rotate no_reflect no_shear #
shell $-1 $-1 $-1 $48 $-1 $12 #
shell $-1 $-1 $-1 $49 $-1 $14 #
shell $-1 $-1 $-1 $50 $-1 $16 #
shell $-1 $-1 $-1 $51 $-1 $18 #
shell $-1 $-1 $-1 $52 $-1 $20 #
shell $-1 $-1 $-1 $53 $-1 $22 #
shell $-1 $-1 $-1 $54 $-1 $24 #
shell $-1 $-1 $-1 $55 $-1 $26 #
shell $-1 $-1 $-1 $56 $-1 $28 #
shell $-1 $-1 $-1 $57 $-1 $30 #
shell $-1 $-1 $-1 $58 $-1 $32 #
shell $-1 $-1 $-1 $59 $-1 $34 #
face $-1 $60 $61 $36 $-1 $62 forward single #
face $-1 $63 $64 $37 $-1 $65 forward single #
face $-1 $66 $67 $38 $-1 $68 reversed single #
face $-1 $69 $70 $39 $-1 $71 forward single #
face $-1 $72 $73 $40 $-1 $74 reversed single #
face $-1 $75 $76 $41 $-1 $77 forward single #
face $-1 $78 $79 $42 $-1 $80 reversed single #
face $-1 $81 $82 $43 $-1 $83 forward single #
face $-1 $84 $85 $44 $-1 $86 forward single #
face $-1 $87 $88 $45 $-1 $89 reversed single #
face $-1 $90 $91 $46 $-1 $92 forward single #
face $-1 $93 $94 $47 $-1 $95 forward single #
face $-1 $96 $97 $36 $-1 $98 reversed single #
loop $-1 $-1 $99 $48 #
plane-surface $-1 0 0 9.0237367382762148 0 0 1 1 0 0 forward_v I I I I #
face $-1 $100 $101 $37 $-1 $102 reversed single #
loop $-1 $-1 $103 $49 #
plane-surface $-1 -62.19183935056612 0 0 1 0 0 0 0 -1 forward_v I I I I #
face $-1 $104 $105 $38 $-1 $106 reversed single #
loop $-1 $-1 $107 $50 #
plane-surface $-1 -23.130434870053033 89.985226342066952 122.61365952177159 1 0 0 0 -0.77714596973225614 -0.62932038083071107 forward_v I I I I #
face $-1 $108 $109 $39 $-1 $110 forward single #
loop $-1 $111 $112 $51 #
cone-surface $-1 -8.9917051087535356 22.770942327276561 5.7212437483154304 0 -0.77714596973225614 -0.62932038083071107 1 0 0 1 I I 0 1 1 forward I I I I #
face $-1 $113 $114 $40 $-1 $115 reversed single #
loop $-1 $-1 $116 $52 #
plane-surface $-1 -8.9917051087535285 -6.6790482609898447 44.336475472450246 0 0.77714596973225614 0.62932038083071107 1 0 0 forward_v I I I I #
face $-1 $117 $118 $41 $-1 $119 forward single #
loop $-1 $120 $121 $53 #
cone-surface $-1 19.285754413845474 22.770942327276561 5.7212437483154304 0 -0.77714596973225614 -0.62932038083071107 1 0 0 1 I I 0 1 1 forward I I I I #
face $-1 $122 $123 $42 $-1 $124 reversed single #
loop $-1 $-1 $125 $54 #
plane-surface $-1 -23.899361173864239 -100.67961648196264 102.61298614854687 -1 0 0 0 -0.6018150307709319 0.79863550430605224 forward_v I I I I #
face $-1 $126 $127 $43 $-1 $128 forward single #
loop $-1 $129 $130 $55 #
cone-surface $-1 -37.078519203371862 -21.110617812077219 4.9565743438724823 0 0.6018150307709319 -0.79863550430605224 1 0 0 1 I I 0 1 1 forward I I I I #
face $-1 $131 $132 $44 $-1 $133 forward single #
loop $-1 $134 $135 $56 #
cone-surface $-1 -29.171024385667288 -21.110617812077219 4.9565743438724823 0 0.6018150307709319 -0.79863550430605224 1 0 0 1 I I 0 1 1 forward I I I I #
face $-1 $136 $137 $45 $-1 $138 reversed single #
loop $-1 $-1 $139 $57 #
plane-surface $-1 33.145453524155897 -100.67961648196264 102.61298614854687 -1 0 0 0 -0.6018150307709319 0.79863550430605224 forward_v I I I I #
face $-1 $140 $141 $46 $-1 $142 forward single #
loop $-1 $143 $144 $58 #
cone-surface $-1 19.966295494648286 -21.110617812077219 4.9565743438724823 0 0.6018150307709319 -0.79863550430605224 1 0 0 1 I I 0 1 1 forward I I I I #
face $-1 $145 $146 $47 $-1 $147 forward single #
loop $-1 $148 $149 $59 #
cone-surface $-1 27.87379031235286 -21.110617812077219 4.9565743438724823 0 0.6018150307709319 -0.79863550430605224 1 0 0 1 I I 0 1 1 forward I I I I #
face $-1 $150 $151 $36 $-1 $152 reversed single #
loop $-1 $-1 $153 $60 #
plane-surface $-1 0 0 -9.0237367382762148 0 0 1 1 0 0 forward_v I I I I #
coedge $-1 $154 $155 $156 $157 forward $61 $-1 #
face $-1 $158 $159 $37 $-1 $160 reversed single #
loop $-1 $-1 $161 $63 #
plane-surface $-1 0 0 -9.0237367382762148 0 0 1 1 0 0 forward_v I I I I #
coedge $-1 $162 $163 $164 $165 forward $64 $-1 #
face $-1 $166 $167 $38 $-1 $168 reversed single #
loop $-1 $-1 $169 $66 #
plane-surface $-1 -8.9917051087535285 -6.6790482609898447 44.336475472450246 0 0.77714596973225614 0.62932038083071107 1 0 0 forward_v I I I I #
coedge $-1 $170 $171 $172 $173 reversed $67 $-1 #
face $-1 $-1 $174 $39 $-1 $175 forward single #
loop $-1 $176 $177 $69 #
cone-surface $-1 -8.9917051087535356 21.283165658423155 4.5164659893103316 0 -0.77714596973225614 -0.62932038083071107 0.5 0 0 1 I I -0.70710678118654746 0.70710678118654746 0.5 forward I I I I #
loop $-1 $-1 $178 $51 #
coedge $-1 $112 $112 $179 $180 reversed $70 $-1 #
face $-1 $181 $182 $40 $-1 $183 forward single #
loop $-1 $-1 $184 $72 #
plane-surface $-1 33.424484175144997 89.985226342066952 122.61365952177159 -1 0 0 0 0.77714596973225614 0.62932038083071107 forward_v I I I I #
coedge $-1 $185 $186 $187 $188 reversed $73 $-1 #
face $-1 $-1 $189 $41 $-1 $190 forward single #
loop $-1 $191 $192 $75 #
cone-surface $-1 19.285754413845474 21.283165658423155 4.5164659893103316 0 -0.77714596973225614 -0.62932038083071107 0.5 0 0 1 I I -0.70710678118654746 0.70710678118654746 0.5 forward I I I I #
loop $-1 $-1 $193 $53 #
coedge $-1 $121 $121 $194 $195 reversed $76 $-1 #
face $-1 $196 $197 $42 $-1 $198 reversed single #
loop $-1 $-1 $199 $78 #
plane-surface $-1 -33.124771794519575 -25.82364905703902 3.275764181626144 0 -0.6018150307709319 0.79863550430605224 1 0 0 forward_v I I I I #
coedge $-1 $200 $201 $202 $203 reversed $79 $-1 #
face $-1 $-1 $204 $43 $-1 $205 forward single #
loop $-1 $206 $207 $81 #
cone-surface $-1 -37.078519203371862 -19.910587584088354 3.3640804756407601 0 0.6018150307709319 -0.79863550430605224 0.5 0 0 1 I I -0.70710678118654746 0.70710678118654746 0.5 forward I I I I #
loop $-1 $-1 $208 $55 #
coedge $-1 $130 $130 $209 $210 reversed $82 $-1 #
face $-1 $-1 $211 $44 $-1 $212 forward single #
loop $-1 $213 $214 $84 #
cone-surface $-1 -29.171024385667288 -19.910587584088354 3.3640804756407601 0 0.6018150307709319 -0.79863550430605224 0.5 0 0 1 I I -0.70710678118654746 0.70710678118654746 0.5 forward I I I I #
loop $-1 $-1 $215 $56 #
coedge $-1 $135 $135 $216 $217 reversed $85 $-1 #
face $-1 $218 $219 $45 $-1 $220 reversed single #
loop $-1 $-1 $221 $87 #
plane-surface $-1 23.920042903500566 -25.82364905703902 3.275764181626144 0 -0.6018150307709319 0.79863550430605224 1 0 0 forward_v I I I I #
coedge $-1 $222 $223 $224 $225 reversed $88 $-1 #
face $-1 $-1 $226 $46 $-1 $227 forward single #
loop $-1 $228 $229 $90 #
cone-surface $-1 19.966295494648286 -19.910587584088354 3.3640804756407601 0 0.6018150307709319 -0.79863550430605224 0.5 0 0 1 I I -0.70710678118654746 0.70710678118654746 0.5 forward I I I I #
loop $-1 $-1 $230 $58 #
coedge $-1 $144 $144 $231 $232 reversed $91 $-1 #
face $-1 $-1 $233 $47 $-1 $234 forward single #
loop $-1 $235 $236 $93 #
cone-surface $-1 27.87379031235286 -19.910587584088354 3.3640804756407601 0 0.6018150307709319 -0.79863550430605224 0.5 0 0 1 I I -0.70710678118654746 0.70710678118654746 0.5 forward I I I I #
loop $-1 $-1 $237 $59 #
coedge $-1 $149 $149 $238 $239 reversed $94 $-1 #
face $-1 $240 $241 $36 $-1 $242 reversed single #
loop $-1 $-1 $243 $96 #
plane-surface $-1 0 -25.823649057039017 0 0 1 0 0 0 1 forward_v I I I I #
coedge $-1 $244 $245 $246 $247 forward $97 $-1 #
coedge $-1 $248 $99 $249 $250 forward $61 $-1 #
coedge $-1 $99 $248 $251 $252 forward $61 $-1 #
coedge $-1 $253 $254 $99 $157 reversed $255 $-1 #
edge $-1 $256 -25.823649057039017 $257 25.823649057039017 $156 $258 forward 7 unknown #
face $-1 $259 $260 $37 $-1 $261 reversed single #
loop $-1 $-1 $262 $100 #
plane-surface $-1 -67.338864003112093 -12.118816183101341 0 0 1 0 0 0 1 forward_v I I I I #
coedge $-1 $263 $264 $163 $265 forward $101 $-1 #
coedge $-1 $266 $103 $267 $268 reversed $64 $-1 #
coedge $-1 $103 $266 $161 $265 reversed $64 $-1 #
coedge $-1 $269 $270 $103 $165 reversed $271 $-1 #
edge $-1 $272 -9.0237367382762148 $273 9.0237367382762148 $164 $274 forward 7 unknown #
face $-1 $275 $276 $38 $-1 $277 forward single #
loop $-1 $-1 $278 $104 #
plane-surface $-1 5.1470246525459764 89.985226342066952 122.61365952177159 -1 0 0 0 0.77714596973225614 0.62932038083071107 forward_v I I I I #
coedge $-1 $279 $280 $281 $282 reversed $105 $-1 #
coedge $-1 $171 $107 $283 $284 reversed $67 $-1 #
coedge $-1 $107 $170 $279 $285 reversed $67 $-1 #
coedge $-1 $281 $286 $107 $173 forward $276 $-1 #
edge $-1 $287 19.168964113994459 $288 23.07597020554482 $172 $289 forward 7 unknown #
loop $-1 $-1 $179 $108 #
plane-surface $-1 -8.9917051087535285 -6.6790482609898447 44.336475472450246 0 0.77714596973225614 0.62932038083071107 1 0 0 forward_v I I I I #
loop $-1 $-1 $290 $69 #
coedge $-1 $177 $177 $178 $291 reversed $109 $-1 #
coedge $-1 $178 $178 $177 $291 forward $111 $-1 #
coedge $-1 $179 $179 $112 $180 forward $174 $-1 #
edge $-1 $292 0 $292 6.2831853071796004 $179 $293 forward 7 unknown #
face $-1 $294 $295 $40 $-1 $296 forward single #
loop $-1 $-1 $297 $113 #
plane-surface $-1 0 0 9.0237367382762148 0 0 1 1 0 0 forward_v I I I I #
coedge $-1 $298 $299 $300 $301 reversed $114 $-1 #
coedge $-1 $302 $116 $303 $304 reversed $73 $-1 #
coedge $-1 $116 $302 $297 $305 reversed $73 $-1 #
coedge $-1 $306 $307 $116 $188 forward $295 $-1 #
edge $-1 $308 -51.647298114078048 $309 -45.439003880236356 $187 $310 forward 7 unknown #
loop $-1 $-1 $194 $117 #
plane-surface $-1 -8.9917051087535285 -6.6790482609898447 44.336475472450246 0 0.77714596973225614 0.62932038083071107 1 0 0 forward_v I I I I #
loop $-1 $-1 $311 $75 #
coedge $-1 $192 $192 $193 $312 reversed $118 $-1 #
coedge $-1 $193 $193 $192 $312 forward $120 $-1 #
coedge $-1 $194 $194 $121 $195 forward $189 $-1 #
edge $-1 $313 0 $313 6.2831853071796004 $194 $314 forward 7 unknown #
face $-1 $315 $316 $42 $-1 $317 forward single #
loop $-1 $-1 $318 $122 #
plane-surface $-1 -42.350182415174913 -100.67961648196264 102.61298614854687 1 0 0 0 0.6018150307709319 -0.79863550430605224 forward_v I I I I #
coedge $-1 $319 $320 $321 $322 reversed $123 $-1 #
coedge $-1 $201 $125 $323 $324 reversed $79 $-1 #
coedge $-1 $125 $200 $319 $325 reversed $79 $-1 #
coedge $-1 $321 $326 $125 $203 forward $316 $-1 #
edge $-1 $327 24.516159183942303 $328 32.143976248659094 $202 $329 forward 7 unknown #
loop $-1 $-1 $209 $126 #
plane-surface $-1 -33.124771794519575 -25.82364905703902 3.275764181626144 0 -0.6018150307709319 0.79863550430605224 1 0 0 forward_v I I I I #
loop $-1 $-1 $330 $81 #
coedge $-1 $207 $207 $208 $331 reversed $127 $-1 #
coedge $-1 $208 $208 $207 $331 forward $129 $-1 #
coedge $-1 $209 $209 $130 $210 forward $204 $-1 #
edge $-1 $332 -1.6035573689457257e-015 $332 6.2831853071795987 $209 $333 forward 7 unknown #
loop $-1 $-1 $216 $131 #
plane-surface $-1 -33.124771794519575 -25.82364905703902 3.275764181626144 0 -0.6018150307709319 0.79863550430605224 1 0 0 forward_v I I I I #
loop $-1 $-1 $334 $84 #
coedge $-1 $214 $214 $215 $335 reversed $132 $-1 #
coedge $-1 $215 $215 $214 $335 forward $134 $-1 #
coedge $-1 $216 $216 $135 $217 forward $211 $-1 #
edge $-1 $336 -1.6035573689457257e-015 $336 6.2831853071795987 $216 $337 forward 7 unknown #
face $-1 $338 $339 $45 $-1 $340 reversed single #
loop $-1 $-1 $341 $136 #
plane-surface $-1 14.69463228284523 -100.67961648196264 102.61298614854687 1 0 0 0 0.6018150307709319 -0.79863550430605224 forward_v I I I I #
coedge $-1 $342 $343 $344 $345 reversed $137 $-1 #
coedge $-1 $223 $139 $346 $347 reversed $88 $-1 #
coedge $-1 $139 $222 $342 $348 reversed $88 $-1 #
coedge $-1 $344 $349 $139 $225 forward $350 $-1 #
edge $-1 $351 24.516159183942303 $352 32.143976248659094 $224 $353 forward 7 unknown #
loop $-1 $-1 $231 $140 #
plane-surface $-1 23.920042903500566 -25.82364905703902 3.275764181626144 0 -0.6018150307709319 0.79863550430605224 1 0 0 forward_v I I I I #
loop $-1 $-1 $354 $90 #
coedge $-1 $229 $229 $230 $355 reversed $141 $-1 #
coedge $-1 $230 $230 $229 $355 forward $143 $-1 #
coedge $-1 $231 $231 $144 $232 forward $226 $-1 #
edge $-1 $356 -1.6035573689457257e-015 $356 6.2831853071795987 $231 $357 forward 7 unknown #
loop $-1 $-1 $238 $145 #
plane-surface $-1 23.920042903500566 -25.82364905703902 3.275764181626144 0 -0.6018150307709319 0.79863550430605224 1 0 0 forward_v I I I I #
loop $-1 $-1 $358 $93 #
coedge $-1 $236 $236 $237 $359 reversed $146 $-1 #
coedge $-1 $237 $237 $236 $359 forward $148 $-1 #
coedge $-1 $238 $238 $149 $239 forward $233 $-1 #
edge $-1 $360 -1.6035573689457257e-015 $360 6.2831853071795987 $238 $361 forward 7 unknown #
face $-1 $362 $363 $36 $-1 $364 reversed single #
loop $-1 $-1 $365 $150 #
plane-surface $-1 -62.19183935056612 0 0 1 0 0 0 0 -1 forward_v I I I I #
coedge $-1 $366 $251 $367 $368 forward $151 $-1 #
coedge $-1 $369 $153 $366 $370 forward $97 $-1 #
coedge $-1 $153 $369 $371 $372 forward $97 $-1 #
coedge $-1 $254 $253 $153 $247 reversed $255 $-1 #
edge $-1 $373 -25.823649057039017 $374 25.823649057039017 $246 $375 forward 7 unknown #
coedge $-1 $155 $154 $376 $377 forward $61 $-1 #
coedge $-1 $378 $379 $154 $250 reversed $363 $-1 #
edge $-1 $257 -62.19183935056612 $380 62.19183935056612 $249 $381 forward 7 unknown #
coedge $-1 $243 $382 $155 $252 reversed $151 $-1 #
edge $-1 $383 -62.19183935056612 $256 62.19183935056612 $251 $384 forward 7 unknown #
coedge $-1 $246 $156 $382 $385 forward $255 $-1 #
coedge $-1 $156 $246 $378 $386 reversed $255 $-1 #
loop $-1 $-1 $253 $362 #
vertex $-1 $157 $387 #
vertex $-1 $157 $388 #
straight-curve $-1 62.19183935056612 0 9.0237367382762148 0 1 0 I I #
face $-1 $389 $271 $37 $-1 $390 reversed single #
loop $-1 $-1 $391 $158 #
plane-surface $-1 -72.485888655658059 -9.947495881793964 0 1 0 0 0 0 -1 forward_v I I I I #
coedge $-1 $392 $393 $394 $395 forward $159 $-1 #
coedge $-1 $396 $161 $392 $397 forward $101 $-1 #
coedge $-1 $161 $396 $269 $398 forward $101 $-1 #
edge $-1 $272 7.7761755804865871 $399 12.118816183101341 $161 $400 forward 7 unknown #
coedge $-1 $163 $162 $401 $402 forward $64 $-1 #
coedge $-1 $403 $404 $162 $268 forward $405 $-1 #
edge $-1 $406 -12.118816183101341 $273 -7.7761755804865871 $267 $407 forward 7 unknown #
coedge $-1 $408 $164 $264 $398 reversed $271 $-1 #
coedge $-1 $164 $408 $403 $409 reversed $271 $-1 #
loop $-1 $-1 $164 $259 #
vertex $-1 $265 $410 #
vertex $-1 $409 $411 #
straight-curve $-1 -62.19183935056612 -7.7761755804865871 0 0 0 1 I I #
face $-1 $-1 $412 $38 $-1 $413 reversed single #
loop $-1 $-1 $172 $166 #
plane-surface $-1 0 0 9.0237367382762148 0 0 1 1 0 0 forward_v I I I I #
coedge $-1 $414 $415 $416 $417 reversed $167 $-1 #
coedge $-1 $418 $169 $171 $285 forward $105 $-1 #
coedge $-1 $169 $418 $414 $419 forward $105 $-1 #
coedge $-1 $416 $172 $169 $282 forward $276 $-1 #
edge $-1 $288 -18.634582315676269 $420 9.6428772069227406 $281 $421 forward 7 unknown #
coedge $-1 $422 $423 $170 $284 forward $412 $-1 #
edge $-1 $424 -57.107843865351661 $287 -52.283093022609584 $283 $425 forward 7 unknown #
edge $-1 $288 45.439003880236356 $424 51.647298114078048 $171 $426 forward 7 unknown #
coedge $-1 $172 $416 $422 $427 forward $276 $-1 #
vertex $-1 $284 $428 #
vertex $-1 $173 $429 #
straight-curve $-1 -23.130434870053033 44.992613171033476 9.023736738276213 0 -1 0 I I #
coedge $-1 $290 $290 $-1 $430 reversed $176 $-1 #
edge $-1 $431 0 $431 6.2831853071796004 $177 $432 forward 7 unknown #
vertex $-1 $180 $433 #
ellipse-curve $-1 -8.9917051087535356 23.870146011263838 6.6113613169051737 0 0.77714596973225614 0.62932038083071107 1 0 0 1 I I #
face $-1 $-1 $434 $40 $-1 $435 reversed single #
loop $-1 $-1 $306 $181 #
plane-surface $-1 5.1470246525459764 89.985226342066952 122.61365952177159 -1 0 0 0 0.77714596973225614 0.62932038083071107 forward_v I I I I #
coedge $-1 $300 $436 $186 $305 forward $182 $-1 #
coedge $-1 $299 $184 $302 $437 reversed $114 $-1 #
coedge $-1 $184 $298 $438 $439 reversed $114 $-1 #
coedge $-1 $440 $297 $184 $301 forward $182 $-1 #
edge $-1 $441 -23.07597020554482 $442 -19.168964113994459 $300 $443 forward 7 unknown #
coedge $-1 $186 $185 $298 $437 forward $73 $-1 #
coedge $-1 $444 $438 $185 $304 forward $434 $-1 #
edge $-1 $445 -37.920336729521765 $308 -9.6428772069227406 $303 $446 forward 7 unknown #
edge $-1 $309 9.6428772069227406 $441 37.920336729521765 $297 $447 forward 7 unknown #
coedge $-1 $307 $187 $436 $448 reversed $295 $-1 #
coedge $-1 $187 $306 $444 $449 reversed $295 $-1 #
vertex $-1 $304 $450 #
vertex $-1 $305 $451 #
straight-curve $-1 5.1470246525459764 -6.6790482609898447 44.336475472450246 0 -0.62932038083071107 0.77714596973225614 I I #
coedge $-1 $311 $311 $-1 $452 reversed $191 $-1 #
edge $-1 $453 0 $453 6.2831853071796004 $192 $454 forward 7 unknown #
vertex $-1 $195 $455 #
ellipse-curve $-1 19.285754413845474 23.870146011263838 6.6113613169051737 0 0.77714596973225614 0.62932038083071107 1 0 0 1 I I #
face $-1 $-1 $456 $42 $-1 $457 reversed single #
loop $-1 $-1 $202 $196 #
plane-surface $-1 0 0 9.0237367382762148 0 0 1 1 0 0 forward_v I I I I #
coedge $-1 $458 $459 $460 $461 reversed $197 $-1 #
coedge $-1 $462 $199 $201 $325 forward $123 $-1 #
coedge $-1 $199 $462 $458 $463 forward $123 $-1 #
coedge $-1 $460 $202 $199 $322 forward $316 $-1 #
edge $-1 $328 7.336975276604452 $464 25.787796517915126 $321 $465 forward 7 unknown #
coedge $-1 $466 $467 $200 $324 forward $456 $-1 #
edge $-1 $468 -48.030728892647289 $327 -42.28275633599722 $323 $469 forward 7 unknown #
edge $-1 $328 -9.5510618092852422 $468 -4.4408806494695735e-015 $201 $470 forward 7 unknown #
coedge $-1 $202 $460 $466 $471 forward $316 $-1 #
vertex $-1 $203 $472 #
vertex $-1 $203 $473 #
straight-curve $-1 -23.899361173864239 -50.33980824098132 9.023736738276213 0 1 0 I I #
coedge $-1 $330 $330 $-1 $474 reversed $206 $-1 #
edge $-1 $475 0 $475 6.2831853071796004 $207 $476 forward 7 unknown #
vertex $-1 $210 $477 #
ellipse-curve $-1 -37.078519203371862 -22.00974052468062 6.1497504599511812 0 -0.6018150307709319 0.79863550430605224 1 0 0 1 I I #
coedge $-1 $334 $334 $-1 $478 reversed $213 $-1 #
edge $-1 $479 0 $479 6.2831853071796004 $214 $480 forward 7 unknown #
vertex $-1 $217 $481 #
ellipse-curve $-1 -29.171024385667288 -22.00974052468062 6.1497504599511812 0 -0.6018150307709319 0.79863550430605224 1 0 0 1 I I #
face $-1 $-1 $350 $45 $-1 $482 forward single #
loop $-1 $-1 $483 $218 #
plane-surface $-1 0 -25.823649057039017 0 0 1 0 0 0 1 forward_v I I I I #
coedge $-1 $484 $485 $486 $487 reversed $219 $-1 #
coedge $-1 $488 $221 $223 $348 forward $137 $-1 #
coedge $-1 $221 $488 $484 $489 forward $137 $-1 #
coedge $-1 $486 $224 $221 $345 forward $350 $-1 #
edge $-1 $352 -21.185432072405614 $490 -2.7346108310949475 $344 $491 forward 7 unknown #
coedge $-1 $492 $493 $222 $347 forward $339 $-1 #
edge $-1 $494 -48.030728892647289 $351 -42.28275633599722 $346 $495 forward 7 unknown #
edge $-1 $352 -9.5510618092852422 $494 -4.4408806494695735e-015 $223 $496 forward 7 unknown #
coedge $-1 $224 $486 $492 $497 forward $350 $-1 #
loop $-1 $-1 $486 $338 #
vertex $-1 $347 $498 #
vertex $-1 $225 $499 #
straight-curve $-1 33.145453524155897 -50.33980824098132 9.023736738276213 0 1 0 I I #
coedge $-1 $354 $354 $-1 $500 reversed $228 $-1 #
edge $-1 $501 0 $501 6.2831853071796004 $229 $502 forward 7 unknown #
vertex $-1 $232 $503 #
ellipse-curve $-1 19.966295494648286 -22.00974052468062 6.1497504599511812 0 -0.6018150307709319 0.79863550430605224 1 0 0 1 I I #
coedge $-1 $358 $358 $-1 $504 reversed $235 $-1 #
edge $-1 $505 0 $505 6.2831853071796004 $236 $506 forward 7 unknown #
vertex $-1 $239 $507 #
ellipse-curve $-1 27.87379031235286 -22.00974052468062 6.1497504599511812 0 -0.6018150307709319 0.79863550430605224 1 0 0 1 I I #
face $-1 $-1 $255 $36 $-1 $508 reversed single #
loop $-1 $-1 $378 $240 #
plane-surface $-1 0 25.823649057039017 0 0 -1 0 0 0 -1 forward_v I I I I #
coedge $-1 $509 $376 $379 $510 forward $241 $-1 #
coedge $-1 $382 $243 $244 $370 reversed $151 $-1 #
coedge $-1 $376 $509 $243 $368 reversed $241 $-1 #
edge $-1 $383 -9.0237367382762148 $511 9.0237367382762148 $367 $512 forward 7 unknown #
coedge $-1 $245 $244 $509 $513 forward $97 $-1 #
edge $-1 $374 -62.19183935056612 $511 62.19183935056612 $366 $514 forward 7 unknown #
coedge $-1 $379 $378 $245 $372 reversed $363 $-1 #
edge $-1 $515 -62.19183935056612 $373 62.19183935056612 $371 $516 forward 7 unknown #
vertex $-1 $247 $517 #
vertex $-1 $385 $518 #
straight-curve $-1 62.19183935056612 0 -9.0237367382762148 0 -1 0 I I #
coedge $-1 $365 $367 $248 $377 reversed $241 $-1 #
edge $-1 $380 -25.823649057039017 $383 25.823649057039017 $376 $519 forward 7 unknown #
coedge $-1 $371 $249 $254 $386 forward $363 $-1 #
coedge $-1 $249 $371 $365 $510 reversed $363 $-1 #
vertex $-1 $250 $520 #
straight-curve $-1 0 25.823649057039017 9.0237367382762148 -1 0 0 I I #
coedge $-1 $251 $366 $253 $385 reversed $151 $-1 #
vertex $-1 $377 $521 #
straight-curve $-1 0 -25.823649057039017 9.0237367382762148 1 0 0 I I #
edge $-1 $256 -9.0237367382762148 $374 9.0237367382762148 $253 $522 forward 7 unknown #
edge $-1 $257 -9.0237367382762148 $373 9.0237367382762148 $254 $523 forward 7 unknown #
point $-1 62.19183935056612 -25.823649057039017 9.0237367382762148 #
point $-1 62.19183935056612 25.823649057039017 9.0237367382762148 #
face $-1 $-1 $405 $37 $-1 $524 forward single #
plane-surface $-1 -67.338864003112093 -7.7761755804865871 0 0 -1 0 0 0 -1 forward_v I I I I #
coedge $-1 $525 $526 $408 $527 forward $260 $-1 #
coedge $-1 $401 $262 $263 $397 reversed $159 $-1 #
coedge $-1 $262 $401 $404 $528 reversed $159 $-1 #
coedge $-1 $526 $525 $262 $395 reversed $260 $-1 #
edge $-1 $529 -9.0237367382762148 $530 9.0237367382762148 $394 $531 forward 7 unknown #
coedge $-1 $264 $263 $525 $532 forward $101 $-1 #
edge $-1 $399 -5.1470246525459729 $530 5.1470246525459658 $392 $533 forward 7 unknown #
edge $-1 $534 -5.1470246525459658 $272 5.1470246525459729 $269 $535 forward 7 unknown #
vertex $-1 $397 $536 #
straight-curve $-1 -62.19183935056612 0 -9.0237367382762148 0 -1 0 I I #
coedge $-1 $393 $392 $266 $402 reversed $159 $-1 #
edge $-1 $406 -9.0237367382762148 $399 9.0237367382762148 $401 $537 forward 7 unknown #
coedge $-1 $538 $267 $270 $409 forward $405 $-1 #
coedge $-1 $267 $538 $393 $528 forward $405 $-1 #
loop $-1 $-1 $267 $389 #
vertex $-1 $268 $539 #
straight-curve $-1 -62.19183935056612 0 9.0237367382762148 0 1 0 I I #
coedge $-1 $270 $269 $391 $527 reversed $271 $-1 #
edge $-1 $273 -5.1470246525459729 $540 5.1470246525459658 $270 $541 forward 7 unknown #
point $-1 -62.19183935056612 -7.7761755804865871 -9.0237367382762148 #
point $-1 -62.19183935056612 -7.7761755804865871 9.0237367382762148 #
loop $-1 $-1 $283 $275 #
plane-surface $-1 0 25.823649057039017 0 0 -1 0 0 0 -1 forward_v I I I I #
coedge $-1 $415 $278 $280 $419 reversed $167 $-1 #
coedge $-1 $278 $414 $542 $543 reversed $167 $-1 #
coedge $-1 $286 $281 $278 $417 forward $276 $-1 #
edge $-1 $420 -23.07597020554482 $544 -19.168964113994459 $416 $545 forward 7 unknown #
coedge $-1 $280 $279 $423 $546 reversed $105 $-1 #
edge $-1 $547 -51.647298114078048 $420 -45.439003880236356 $414 $548 forward 7 unknown #
vertex $-1 $282 $549 #
straight-curve $-1 -4.4958525543767642 21.916642965488663 9.023736738276213 1 0 0 I I #
coedge $-1 $542 $283 $286 $427 reversed $412 $-1 #
coedge $-1 $283 $542 $418 $546 forward $412 $-1 #
vertex $-1 $284 $550 #
straight-curve $-1 -23.130434870053033 25.82364905703902 61.306829760885797 0 0 1 I I #
straight-curve $-1 -23.130434870053033 -6.6790482609898447 44.336475472450246 0 0.62932038083071107 -0.77714596973225614 I I #
edge $-1 $544 -5.1470246525459764 $287 23.130434870053033 $422 $551 forward 7 unknown #
point $-1 -23.130434870053033 25.823649057039017 9.0237367382762148 #
point $-1 -23.130434870053033 21.916642965488656 9.023736738276213 #
edge $-1 $552 1 $552 0 $290 $-1 forward 7 unknown #
vertex $-1 $291 $553 #
ellipse-curve $-1 -8.9917051087535356 21.671738643289281 4.831126179725687 0 0.77714596973225614 0.62932038083071107 1 0 0 1 I I #
point $-1 -7.9917051087535356 23.870146011263838 6.6113613169051737 #
loop $-1 $-1 $303 $294 #
plane-surface $-1 0 25.823649057039017 0 0 -1 0 0 0 -1 forward_v I I I I #
coedge $-1 $297 $440 $306 $448 forward $182 $-1 #
edge $-1 $445 -51.647298114078048 $441 -45.439003880236356 $298 $554 forward 7 unknown #
coedge $-1 $303 $555 $299 $439 forward $434 $-1 #
edge $-1 $442 52.283093022609584 $445 57.107843865351661 $438 $556 forward 7 unknown #
coedge $-1 $436 $300 $555 $557 forward $182 $-1 #
vertex $-1 $301 $558 #
vertex $-1 $557 $559 #
straight-curve $-1 33.424484175144997 44.992613171033476 9.023736738276213 0 1 0 I I #
coedge $-1 $555 $303 $307 $449 forward $434 $-1 #
vertex $-1 $439 $560 #
straight-curve $-1 -4.4958525543767642 25.823649057039013 4.1989858955341397 -1 0 0 I I #
straight-curve $-1 -4.4958525543767642 21.916642965488663 9.023736738276213 1 0 0 I I #
edge $-1 $561 19.168964113994459 $309 23.07597020554482 $436 $562 forward 7 unknown #
edge $-1 $308 -57.107843865351661 $561 -52.283093022609584 $444 $563 forward 7 unknown #
point $-1 5.1470246525459764 25.82364905703902 4.1989858955341361 #
point $-1 5.1470246525459764 21.916642965488656 9.023736738276213 #
edge $-1 $564 1 $564 0 $311 $-1 forward 7 unknown #
vertex $-1 $312 $565 #
ellipse-curve $-1 19.285754413845474 21.671738643289281 4.831126179725687 0 0.77714596973225614 0.62932038083071107 1 0 0 1 I I #
point $-1 20.285754413845474 23.870146011263838 6.6113613169051737 #
loop $-1 $-1 $323 $315 #
plane-surface $-1 0 -25.823649057039017 0 0 1 0 0 0 1 forward_v I I I I #
coedge $-1 $459 $318 $320 $463 reversed $197 $-1 #
coedge $-1 $318 $458 $566 $567 reversed $197 $-1 #
coedge $-1 $326 $321 $318 $461 forward $316 $-1 #
edge $-1 $464 -32.143976248659094 $568 -24.516159183942303 $460 $569 forward 7 unknown #
coedge $-1 $320 $319 $467 $570 reversed $123 $-1 #
edge $-1 $571 4.4408806494695735e-015 $464 9.5510618092852422 $458 $572 forward 7 unknown #
vertex $-1 $322 $573 #
straight-curve $-1 -16.562385897259787 -18.195831992322226 9.0237367382762148 -1 0 0 I I #
coedge $-1 $566 $323 $326 $471 reversed $456 $-1 #
coedge $-1 $323 $566 $462 $570 forward $456 $-1 #
vertex $-1 $324 $574 #
straight-curve $-1 -23.899361173864239 -25.82364905703902 51.306493074273433 0 0 1 I I #
straight-curve $-1 -23.899361173864239 -25.82364905703902 3.275764181626144 0 -0.79863550430605224 -0.6018150307709319 I I #
edge $-1 $568 -42.350182415174913 $327 -23.899361173864239 $466 $575 forward 7 unknown #
point $-1 -23.899361173864239 -25.823649057039017 9.0237367382762148 #
point $-1 -23.899361173864239 -18.195831992322226 9.0237367382762148 #
edge $-1 $576 1 $576 0 $330 $-1 forward 7 unknown #
vertex $-1 $331 $577 #
ellipse-curve $-1 -37.078519203371862 -20.211495099473819 3.7633982277937861 0 -0.6018150307709319 0.79863550430605224 1 0 0 1 I I #
point $-1 -36.078519203371862 -22.00974052468062 6.1497504599511785 #
edge $-1 $578 1 $578 0 $334 $-1 forward 7 unknown #
vertex $-1 $335 $579 #
ellipse-curve $-1 -29.171024385667288 -20.211495099473819 3.7633982277937861 0 -0.6018150307709319 0.79863550430605224 1 0 0 1 I I #
point $-1 -28.171024385667288 -22.00974052468062 6.1497504599511785 #
plane-surface $-1 0 0 9.0237367382762148 0 0 1 1 0 0 forward_v I I I I #
coedge $-1 $493 $492 $485 $580 forward $339 $-1 #
coedge $-1 $485 $341 $343 $489 reversed $219 $-1 #
coedge $-1 $341 $484 $483 $580 reversed $219 $-1 #
coedge $-1 $349 $344 $341 $487 forward $350 $-1 #
edge $-1 $490 -32.143976248659094 $581 -24.516159183942303 $486 $582 forward 7 unknown #
coedge $-1 $343 $342 $493 $583 reversed $137 $-1 #
edge $-1 $584 4.4408806494695735e-015 $490 9.5510618092852422 $484 $585 forward 7 unknown #
vertex $-1 $345 $586 #
straight-curve $-1 11.960021451750283 -18.195831992322226 9.0237367382762148 -1 0 0 I I #
coedge $-1 $483 $346 $349 $497 reversed $339 $-1 #
coedge $-1 $346 $483 $488 $583 forward $339 $-1 #
vertex $-1 $347 $587 #
straight-curve $-1 33.145453524155897 -25.82364905703902 51.306493074273433 0 0 1 I I #
straight-curve $-1 33.145453524155897 -25.82364905703902 3.275764181626144 0 -0.79863550430605224 -0.6018150307709319 I I #
edge $-1 $581 14.69463228284523 $351 33.145453524155897 $492 $588 forward 7 unknown #
point $-1 33.145453524155897 -25.823649057039017 9.0237367382762148 #
point $-1 33.145453524155897 -18.195831992322226 9.0237367382762148 #
edge $-1 $589 1 $589 0 $354 $-1 forward 7 unknown #
vertex $-1 $355 $590 #
ellipse-curve $-1 19.966295494648286 -20.211495099473819 3.7633982277937861 0 -0.6018150307709319 0.79863550430605224 1 0 0 1 I I #
point $-1 20.966295494648286 -22.00974052468062 6.1497504599511785 #
edge $-1 $591 1 $591 0 $358 $-1 forward 7 unknown #
vertex $-1 $359 $592 #
ellipse-curve $-1 27.87379031235286 -20.211495099473819 3.7633982277937861 0 -0.6018150307709319 0.79863550430605224 1 0 0 1 I I #
point $-1 28.87379031235286 -22.00974052468062 6.1497504599511785 #
plane-surface $-1 62.19183935056612 0 0 -1 0 0 0 0 1 forward_v I I I I #
coedge $-1 $367 $365 $369 $513 reversed $241 $-1 #
edge $-1 $380 -9.0237367382762148 $515 9.0237367382762148 $379 $593 forward 7 unknown #
vertex $-1 $513 $594 #
straight-curve $-1 -62.19183935056612 -25.823649057039017 0 0 0 -1 I I #
edge $-1 $511 -25.823649057039017 $515 25.823649057039017 $509 $595 forward 7 unknown #
straight-curve $-1 0 -25.823649057039017 -9.0237367382762148 -1 0 0 I I #
vertex $-1 $372 $596 #
straight-curve $-1 0 25.823649057039017 -9.0237367382762148 1 0 0 I I #
point $-1 62.19183935056612 25.823649057039017 -9.0237367382762148 #
point $-1 62.19183935056612 -25.823649057039017 -9.0237367382762148 #
straight-curve $-1 -62.19183935056612 0 9.0237367382762148 0 -1 0 I I #
point $-1 -62.19183935056612 25.823649057039017 9.0237367382762148 #
point $-1 -62.19183935056612 -25.823649057039017 9.0237367382762148 #
straight-curve $-1 62.19183935056612 -25.823649057039017 0 0 0 -1 I I #
straight-curve $-1 62.19183935056612 25.823649057039017 0 0 0 -1 I I #
plane-surface $-1 0 0 9.0237367382762148 0 0 1 1 0 0 forward_v I I I I #
coedge $-1 $394 $391 $396 $532 reversed $260 $-1 #
coedge $-1 $391 $394 $538 $597 reversed $260 $-1 #
edge $-1 $540 -9.0237367382762148 $534 9.0237367382762148 $408 $598 forward 7 unknown #
edge $-1 $529 -5.1470246525459658 $406 5.1470246525459729 $393 $599 forward 7 unknown #
vertex $-1 $597 $600 #
vertex $-1 $532 $601 #
straight-curve $-1 -72.485888655658059 -12.118816183101341 0 0 0 -1 I I #
edge $-1 $530 -2.171320301307377 $534 2.171320301307377 $525 $602 forward 7 unknown #
straight-curve $-1 -67.338864003112093 -12.118816183101341 -9.0237367382762148 -1 0 0 I I #
vertex $-1 $398 $603 #
straight-curve $-1 -67.338864003112093 -7.7761755804865871 -9.0237367382762148 1 0 0 I I #
point $-1 -62.19183935056612 -12.118816183101341 -9.0237367382762148 #
straight-curve $-1 -62.19183935056612 -12.118816183101341 0 0 0 -1 I I #
coedge $-1 $404 $403 $526 $597 forward $405 $-1 #
point $-1 -62.19183935056612 -12.118816183101341 9.0237367382762148 #
vertex $-1 $409 $604 #
straight-curve $-1 -67.338864003112093 -7.7761755804865871 9.0237367382762148 -1 0 0 I I #
coedge $-1 $423 $422 $415 $543 forward $412 $-1 #
edge $-1 $544 52.283093022609584 $547 57.107843865351661 $542 $605 forward 7 unknown #
vertex $-1 $427 $606 #
straight-curve $-1 5.1470246525459764 44.992613171033476 9.023736738276213 0 1 0 I I #
edge $-1 $547 -9.6428772069227406 $424 18.634582315676269 $423 $607 forward 7 unknown #
vertex $-1 $546 $608 #
straight-curve $-1 5.1470246525459764 -6.6790482609898447 44.336475472450246 0 -0.62932038083071107 0.77714596973225614 I I #
point $-1 5.1470246525459764 21.916642965488656 9.023736738276213 #
point $-1 -23.130434870053033 25.82364905703902 4.1989858955341361 #
straight-curve $-1 0 25.823649057039017 9.0237367382762148 -1 0 0 I I #
vertex $-1 $430 $609 #
point $-1 -7.9917051087535356 21.671738643289281 4.831126179725687 #
straight-curve $-1 33.424484175144997 -6.6790482609898447 44.336475472450246 0 -0.62932038083071107 0.77714596973225614 I I #
coedge $-1 $438 $444 $440 $557 reversed $434 $-1 #
straight-curve $-1 33.424484175144997 25.82364905703902 61.306829760885797 0 0 -1 I I #
edge $-1 $442 -33.424484175144997 $561 -5.1470246525459764 $555 $610 forward 7 unknown #
point $-1 33.424484175144997 21.916642965488656 9.023736738276213 #
point $-1 33.424484175144997 25.823649057039017 9.0237367382762148 #
point $-1 33.424484175144997 25.82364905703902 4.1989858955341361 #
vertex $-1 $449 $611 #
straight-curve $-1 5.1470246525459764 44.992613171033476 9.023736738276213 0 -1 0 I I #
straight-curve $-1 5.1470246525459764 25.82364905703902 61.306829760885797 0 0 1 I I #
vertex $-1 $452 $612 #
point $-1 20.285754413845474 21.671738643289281 4.831126179725687 #
coedge $-1 $467 $466 $459 $567 forward $456 $-1 #
edge $-1 $568 42.28275633599722 $571 48.030728892647289 $566 $613 forward 7 unknown #
vertex $-1 $471 $614 #
straight-curve $-1 -42.350182415174913 -50.33980824098132 9.023736738276213 0 -1 0 I I #
edge $-1 $571 -25.787796517915126 $468 -7.336975276604452 $467 $615 forward 7 unknown #
vertex $-1 $570 $616 #
straight-curve $-1 -42.350182415174913 -25.82364905703902 3.275764181626144 0 0.79863550430605224 0.6018150307709319 I I #
point $-1 -42.350182415174913 -18.195831992322226 9.0237367382762148 #
point $-1 -23.899361173864239 -25.823649057039017 3.2757641816261467 #
straight-curve $-1 0 -25.823649057039017 9.0237367382762148 1 0 0 I I #
vertex $-1 $474 $617 #
point $-1 -36.078519203371862 -20.211495099473819 3.7633982277937861 #
vertex $-1 $478 $618 #
point $-1 -28.171024385667288 -20.211495099473819 3.7633982277937861 #
edge $-1 $581 42.28275633599722 $584 48.030728892647289 $483 $619 forward 7 unknown #
vertex $-1 $497 $620 #
straight-curve $-1 14.69463228284523 -50.33980824098132 9.023736738276213 0 -1 0 I I #
edge $-1 $584 2.7346108310949475 $494 21.185432072405614 $493 $621 forward 7 unknown #
vertex $-1 $583 $622 #
straight-curve $-1 14.69463228284523 -25.82364905703902 3.275764181626144 0 0.79863550430605224 0.6018150307709319 I I #
point $-1 14.69463228284523 -18.195831992322226 9.0237367382762148 #
point $-1 33.145453524155897 -25.823649057039017 3.2757641816261467 #
straight-curve $-1 0 -25.823649057039017 9.0237367382762148 1 0 0 I I #
vertex $-1 $500 $623 #
point $-1 20.966295494648286 -20.211495099473819 3.7633982277937861 #
vertex $-1 $504 $624 #
point $-1 28.87379031235286 -20.211495099473819 3.7633982277937861 #
straight-curve $-1 -62.19183935056612 25.823649057039017 0 0 0 -1 I I #
point $-1 -62.19183935056612 -25.823649057039017 -9.0237367382762148 #
straight-curve $-1 -62.19183935056612 0 -9.0237367382762148 0 1 0 I I #
point $-1 -62.19183935056612 25.823649057039017 -9.0237367382762148 #
edge $-1 $540 -2.171320301307377 $529 2.171320301307377 $526 $625 forward 7 unknown #
straight-curve $-1 -72.485888655658059 -7.7761755804865871 0 0 0 -1 I I #
straight-curve $-1 -67.338864003112093 -12.118816183101341 9.0237367382762148 1 0 0 I I #
point $-1 -72.485888655658059 -12.118816183101341 9.0237367382762148 #
point $-1 -72.485888655658059 -12.118816183101341 -9.0237367382762148 #
straight-curve $-1 -72.485888655658059 -9.947495881793964 -9.0237367382762148 0 1 0 I I #
point $-1 -72.485888655658059 -7.7761755804865871 -9.0237367382762148 #
point $-1 -72.485888655658059 -7.7761755804865871 9.0237367382762148 #
straight-curve $-1 5.1470246525459764 25.82364905703902 61.306829760885797 0 0 -1 I I #
point $-1 5.1470246525459764 25.823649057039017 9.0237367382762148 #
straight-curve $-1 -4.4958525543767642 25.823649057039013 4.1989858955341397 -1 0 0 I I #
point $-1 5.1470246525459764 25.82364905703902 4.1989858955341361 #
point $-1 -8.9917051087535356 20.894592673557028 4.2018057988949762 #
straight-curve $-1 0 25.823649057039017 9.0237367382762148 -1 0 0 I I #
point $-1 5.1470246525459764 25.823649057039017 9.0237367382762148 #
point $-1 19.285754413845474 20.894592673557028 4.2018057988949762 #
straight-curve $-1 -42.350182415174913 -25.82364905703902 51.306493074273433 0 0 -1 I I #
point $-1 -42.350182415174913 -25.823649057039017 9.0237367382762148 #
straight-curve $-1 -16.562385897259787 -25.823649057039017 3.2757641816261489 1 0 0 I I #
point $-1 -42.350182415174913 -25.823649057039017 3.2757641816261467 #
point $-1 -37.078519203371862 -19.60968006870289 2.9647627234877341 #
point $-1 -29.171024385667288 -19.60968006870289 2.9647627234877341 #
straight-curve $-1 14.69463228284523 -25.82364905703902 51.306493074273433 0 0 -1 I I #
point $-1 14.69463228284523 -25.823649057039017 9.0237367382762148 #
straight-curve $-1 11.960021451750283 -25.823649057039017 3.2757641816261489 1 0 0 I I #
point $-1 14.69463228284523 -25.823649057039017 3.2757641816261467 #
point $-1 19.966295494648286 -19.60968006870289 2.9647627234877341 #
point $-1 27.87379031235286 -19.60968006870289 2.9647627234877341 #
straight-curve $-1 -72.485888655658059 -9.947495881793964 9.0237367382762148 0 -1 0 I I #
End-of-ACIS-data 