500 0 8 0           
7 Unknown 11 ACIS 5.0 NT 24 Fri Mar 26 00:45:23 1999 
-1 9.9999999999999995e-007 1e-010 
body $-1 $8 $-1 $9 #
body $-1 $10 $-1 $11 #
body $-1 $12 $-1 $13 #
body $-1 $14 $-1 $15 #
body $-1 $16 $-1 $17 #
body $-1 $18 $-1 $19 #
body $-1 $20 $-1 $21 #
body $-1 $22 $-1 $23 #
lump $-1 $-1 $24 $0 #
transform $-1 1 0 0 0 1 0 0 0 1 64.928739280373549 38.773159584974309 8.49904534193176 1 rotate no_reflect no_shear #
lump $-1 $-1 $25 $1 #
transform $-1 1 0 0 0 1 0 0 0 1 64.928739280373549 38.773159584974309 8.49904534193176 1 rotate no_reflect no_shear #
lump $-1 $-1 $26 $2 #
transform $-1 1 0 0 0 1 0 0 0 1 64.928739280373549 38.773159584974309 8.49904534193176 1 rotate no_reflect no_shear #
lump $-1 $-1 $27 $3 #
transform $-1 1 0 0 0 1 0 0 0 1 64.928739280373549 38.773159584974309 8.49904534193176 1 rotate no_reflect no_shear #
lump $-1 $-1 $28 $4 #
transform $-1 1 0 0 0 1 0 0 0 1 64.928739280373549 38.773159584974309 8.49904534193176 1 rotate no_reflect no_shear #
lump $-1 $-1 $29 $5 #
transform $-1 1 0 0 0 1 0 0 0 1 64.928739280373549 38.773159584974309 8.49904534193176 1 rotate no_reflect no_shear #
lump $-1 $-1 $30 $6 #
transform $-1 1 0 0 0 1 0 0 0 1 64.928739280373549 38.773159584974309 8.49904534193176 1 rotate no_reflect no_shear #
lump $-1 $-1 $31 $7 #
transform $-1 1 0 0 0 1 0 0 0 1 64.928739280373549 38.773159584974309 8.49904534193176 1 rotate no_reflect no_shear #
shell $-1 $-1 $-1 $32 $-1 $8 #
shell $-1 $-1 $-1 $33 $-1 $10 #
shell $-1 $-1 $-1 $34 $-1 $12 #
shell $-1 $-1 $-1 $35 $-1 $14 #
shell $-1 $-1 $-1 $36 $-1 $16 #
shell $-1 $-1 $-1 $37 $-1 $18 #
shell $-1 $-1 $-1 $38 $-1 $20 #
shell $-1 $-1 $-1 $39 $-1 $22 #
face $-1 $40 $41 $24 $-1 $42 forward single #
face $-1 $43 $44 $25 $-1 $45 reversed single #
face $-1 $46 $47 $26 $-1 $48 reversed single #
face $-1 $49 $50 $27 $-1 $51 reversed single #
face $-1 $52 $53 $28 $-1 $54 forward single #
face $-1 $55 $56 $29 $-1 $57 reversed single #
face $-1 $58 $59 $30 $-1 $60 forward single #
face $-1 $61 $62 $31 $-1 $63 forward single #
face $-1 $64 $65 $24 $-1 $66 reversed single #
loop $-1 $-1 $67 $32 #
plane-surface $-1 0 0 8.49904534193176 0 0 1 1 0 0 forward_v I I I I #
face $-1 $68 $69 $25 $-1 $70 reversed single #
loop $-1 $-1 $71 $33 #
plane-surface $-1 -61.569143199213507 0 5.49904534193176 0 0 1 1 0 0 forward_v I I I I #
face $-1 $72 $73 $26 $-1 $74 reversed single #
loop $-1 $-1 $75 $34 #
plane-surface $-1 61.569143199213499 0 5.49904534193176 0 0 1 1 0 0 forward_v I I I I #
face $-1 $76 $77 $27 $-1 $78 reversed single #
loop $-1 $-1 $79 $35 #
plane-surface $-1 -33.179039818559531 93.359969752040001 142.43776699796572 1 0 0 0 -0.78801076186113728 -0.61566146476048833 forward_v I I I I #
face $-1 $80 $81 $28 $-1 $82 forward single #
loop $-1 $83 $84 $36 #
cone-surface $-1 -26.899400910279638 35.544065163680315 4.5898620518651398 0 -0.78801076186113728 -0.61566146476048833 1 0 0 1 I I 0 1 1 forward I I I I #
face $-1 $85 $86 $29 $-1 $87 reversed single #
loop $-1 $-1 $88 $37 #
plane-surface $-1 46.158161678612458 -38.773159584974294 0.33111412273417784 0 -0.70710678939079041 0.70710677298230451 1 0 0 forward_v I I I I #
face $-1 $89 $90 $30 $-1 $91 forward single #
loop $-1 $92 $93 $38 #
cone-surface $-1 40.993282204566327 -33.469673855231427 3.195559545719127 0 0.70710678939079041 -0.70710677298230451 2 0 0 1 I I 0 1 2 forward I I I I #
face $-1 $94 $95 $31 $-1 $96 forward single #
loop $-1 $97 $98 $39 #
cone-surface $-1 51.323041152658604 -33.469673855231427 3.195559545719127 0 0.70710678939079041 -0.70710677298230451 2 0 0 1 I I 0 1 2 forward I I I I #
face $-1 $99 $100 $24 $-1 $101 reversed single #
loop $-1 $-1 $102 $40 #
plane-surface $-1 0 0 -8.49904534193176 0 0 1 1 0 0 forward_v I I I I #
coedge $-1 $103 $104 $105 $106 forward $41 $-1 #
face $-1 $107 $108 $25 $-1 $109 reversed single #
loop $-1 $-1 $110 $43 #
plane-surface $-1 -58.209547118053464 0 6.99904534193176 -1 0 0 0 0 1 forward_v I I I I #
coedge $-1 $111 $112 $113 $114 forward $44 $-1 #
face $-1 $115 $116 $26 $-1 $117 forward single #
loop $-1 $-1 $118 $46 #
plane-surface $-1 58.209547118053457 0 6.99904534193176 1 0 0 0 0 -1 forward_v I I I I #
coedge $-1 $119 $120 $121 $122 reversed $47 $-1 #
face $-1 $123 $124 $27 $-1 $125 reversed single #
loop $-1 $-1 $126 $49 #
plane-surface $-1 -26.899400910279638 -8.9691208619806133 62.489521537152456 0 0.78801076186113728 0.61566146476048833 1 0 0 forward_v I I I I #
coedge $-1 $127 $128 $129 $130 reversed $50 $-1 #
face $-1 $-1 $131 $28 $-1 $132 forward single #
loop $-1 $133 $134 $52 #
cone-surface $-1 -26.899400910279638 34.701114658007668 3.9312769561269807 0 -0.78801076186113728 -0.61566146476048833 0.5 0 0 1 I I -0.70710678118654746 0.70710678118654746 0.5 forward I I I I #
loop $-1 $-1 $135 $36 #
coedge $-1 $84 $84 $136 $137 reversed $53 $-1 #
face $-1 $138 $139 $29 $-1 $140 forward single #
loop $-1 $-1 $141 $55 #
plane-surface $-1 34.106776239171474 -130.59626432844757 92.154216735442844 1 0 0 0 0.70710678939079041 -0.70710677298230451 forward_v I I I I #
coedge $-1 $142 $143 $144 $145 reversed $56 $-1 #
face $-1 $-1 $146 $30 $-1 $147 forward single #
loop $-1 $148 $149 $58 #
cone-surface $-1 40.993282204566327 -31.543046850927695 1.2689325861229737 0 0.70710678939079041 -0.70710677298230451 1 0 0 1 I I -0.70710678118654746 0.70710678118654746 1 forward I I I I #
loop $-1 $-1 $150 $38 #
coedge $-1 $93 $93 $151 $152 reversed $59 $-1 #
face $-1 $-1 $153 $31 $-1 $154 forward single #
loop $-1 $155 $156 $61 #
cone-surface $-1 51.323041152658604 -31.543046850927695 1.2689325861229737 0 0.70710678939079041 -0.70710677298230451 1 0 0 1 I I -0.70710678118654746 0.70710678118654746 1 forward I I I I #
loop $-1 $-1 $157 $39 #
coedge $-1 $98 $98 $158 $159 reversed $62 $-1 #
face $-1 $160 $161 $24 $-1 $162 reversed single #
loop $-1 $-1 $163 $64 #
plane-surface $-1 0 -38.773159584974309 0 0 1 0 0 0 1 forward_v I I I I #
coedge $-1 $164 $165 $166 $167 forward $65 $-1 #
coedge $-1 $168 $67 $169 $170 forward $41 $-1 #
coedge $-1 $67 $168 $171 $172 forward $41 $-1 #
coedge $-1 $173 $174 $67 $106 reversed $175 $-1 #
edge $-1 $176 -38.773159584974309 $177 38.773159584974309 $105 $178 forward 7 unknown #
face $-1 $179 $180 $25 $-1 $181 reversed single #
loop $-1 $-1 $182 $68 #
plane-surface $-1 0 38.773159584974309 0 0 -1 0 0 0 -1 forward_v I I I I #
coedge $-1 $113 $183 $184 $185 reversed $69 $-1 #
coedge $-1 $186 $71 $187 $188 reversed $44 $-1 #
coedge $-1 $71 $186 $189 $190 reversed $44 $-1 #
coedge $-1 $191 $110 $71 $114 reversed $69 $-1 #
edge $-1 $192 -38.773159584974309 $193 38.773159584974309 $113 $194 forward 7 unknown #
face $-1 $195 $196 $26 $-1 $197 reversed single #
loop $-1 $-1 $198 $72 #
plane-surface $-1 0 0 8.49904534193176 0 0 1 1 0 0 forward_v I I I I #
coedge $-1 $199 $200 $198 $201 reversed $73 $-1 #
coedge $-1 $202 $75 $203 $204 reversed $47 $-1 #
coedge $-1 $75 $202 $205 $206 reversed $47 $-1 #
coedge $-1 $207 $208 $75 $122 forward $209 $-1 #
edge $-1 $210 -38.773159584974309 $211 38.773159584974309 $121 $212 forward 7 unknown #
face $-1 $213 $214 $27 $-1 $215 reversed single #
loop $-1 $-1 $216 $76 #
plane-surface $-1 -20.619762001999746 93.359969752040001 142.43776699796572 -1 0 0 0 0.78801076186113728 0.61566146476048833 forward_v I I I I #
coedge $-1 $217 $218 $219 $220 reversed $77 $-1 #
coedge $-1 $128 $79 $221 $222 reversed $50 $-1 #
coedge $-1 $79 $127 $217 $223 reversed $50 $-1 #
coedge $-1 $219 $224 $79 $130 forward $225 $-1 #
edge $-1 $226 7.906825291045692 $227 13.467123884149551 $129 $228 forward 7 unknown #
loop $-1 $-1 $136 $80 #
plane-surface $-1 -26.899400910279638 -8.9691208619806133 62.489521537152456 0 0.78801076186113728 0.61566146476048833 1 0 0 forward_v I I I I #
loop $-1 $-1 $229 $52 #
coedge $-1 $134 $134 $135 $230 reversed $81 $-1 #
coedge $-1 $135 $135 $134 $230 forward $83 $-1 #
coedge $-1 $136 $136 $84 $137 forward $131 $-1 #
edge $-1 $231 1.9253069933653708e-015 $231 6.2831853071796022 $136 $232 forward 7 unknown #
face $-1 $233 $234 $29 $-1 $235 reversed single #
loop $-1 $-1 $144 $85 #
plane-surface $-1 0 0 8.49904534193176 0 0 1 1 0 0 forward_v I I I I #
coedge $-1 $236 $237 $238 $239 reversed $86 $-1 #
coedge $-1 $240 $88 $241 $242 reversed $56 $-1 #
coedge $-1 $88 $240 $236 $243 forward $56 $-1 #
coedge $-1 $238 $244 $88 $145 forward $139 $-1 #
edge $-1 $245 -35.130466278747214 $246 -11.027695399865244 $144 $247 forward 7 unknown #
loop $-1 $-1 $151 $89 #
plane-surface $-1 46.158161678612458 -38.773159584974294 0.33111412273417784 0 -0.70710678939079041 0.70710677298230451 1 0 0 forward_v I I I I #
loop $-1 $-1 $248 $58 #
coedge $-1 $149 $149 $150 $249 reversed $90 $-1 #
coedge $-1 $150 $150 $149 $249 forward $92 $-1 #
coedge $-1 $151 $151 $93 $152 forward $146 $-1 #
edge $-1 $250 3.1401861196947593e-016 $250 6.2831853071796004 $151 $251 forward 7 unknown #
loop $-1 $-1 $158 $94 #
plane-surface $-1 46.158161678612458 -38.773159584974294 0.33111412273417784 0 -0.70710678939079041 0.70710677298230451 1 0 0 forward_v I I I I #
loop $-1 $-1 $252 $61 #
coedge $-1 $156 $156 $157 $253 reversed $95 $-1 #
coedge $-1 $157 $157 $156 $253 forward $97 $-1 #
coedge $-1 $158 $158 $98 $159 forward $153 $-1 #
edge $-1 $254 3.1401861196947593e-016 $254 6.2831853071796004 $158 $255 forward 7 unknown #
face $-1 $256 $257 $24 $-1 $258 reversed single #
loop $-1 $-1 $259 $99 #
plane-surface $-1 -64.928739280373549 0 0 1 0 0 0 0 -1 forward_v I I I I #
coedge $-1 $260 $171 $261 $262 forward $100 $-1 #
coedge $-1 $263 $102 $260 $264 forward $65 $-1 #
coedge $-1 $102 $263 $265 $266 forward $65 $-1 #
coedge $-1 $174 $173 $102 $167 reversed $175 $-1 #
edge $-1 $267 -38.773159584974309 $268 38.773159584974309 $166 $269 forward 7 unknown #
coedge $-1 $104 $103 $270 $271 forward $41 $-1 #
coedge $-1 $272 $273 $103 $170 reversed $257 $-1 #
edge $-1 $177 -64.928739280373549 $274 64.928739280373549 $169 $275 forward 7 unknown #
coedge $-1 $163 $276 $104 $172 reversed $100 $-1 #
edge $-1 $277 -64.928739280373549 $176 64.928739280373549 $171 $278 forward 7 unknown #
coedge $-1 $166 $105 $276 $279 forward $175 $-1 #
coedge $-1 $105 $166 $272 $280 reversed $175 $-1 #
loop $-1 $-1 $173 $256 #
vertex $-1 $106 $281 #
vertex $-1 $106 $282 #
straight-curve $-1 64.928739280373549 0 8.49904534193176 0 1 0 I I #
face $-1 $283 $284 $25 $-1 $285 forward single #
loop $-1 $-1 $286 $107 #
plane-surface $-1 -64.928739280373549 0 0 1 0 0 0 0 -1 forward_v I I I I #
coedge $-1 $189 $287 $191 $288 forward $108 $-1 #
coedge $-1 $110 $191 $289 $290 reversed $69 $-1 #
coedge $-1 $291 $187 $110 $185 forward $292 $-1 #
edge $-1 $193 1.99952267096588 $293 4.99952267096588 $184 $294 forward 7 unknown #
coedge $-1 $112 $111 $286 $295 reversed $44 $-1 #
coedge $-1 $184 $296 $111 $188 forward $292 $-1 #
edge $-1 $297 -34.144167680766799 $193 -27.424975518446711 $187 $298 forward 7 unknown #
coedge $-1 $299 $182 $112 $190 forward $108 $-1 #
edge $-1 $192 27.424975518446711 $300 34.144167680766799 $189 $301 forward 7 unknown #
coedge $-1 $183 $113 $182 $288 reversed $69 $-1 #
vertex $-1 $190 $302 #
vertex $-1 $188 $303 #
straight-curve $-1 -58.209547118053464 0 5.49904534193176 0 -1 0 I I #
face $-1 $304 $305 $26 $-1 $306 reversed single #
loop $-1 $-1 $307 $115 #
plane-surface $-1 0 -38.773159584974309 0 0 1 0 0 0 1 forward_v I I I I #
coedge $-1 $308 $309 $118 $201 forward $116 $-1 #
coedge $-1 $310 $118 $311 $312 reversed $73 $-1 #
coedge $-1 $118 $310 $307 $313 reversed $73 $-1 #
edge $-1 $314 -38.773159584974309 $315 38.773159584974309 $198 $316 forward 7 unknown #
coedge $-1 $120 $119 $310 $317 forward $47 $-1 #
coedge $-1 $318 $307 $119 $204 forward $196 $-1 #
edge $-1 $319 27.424975518446708 $210 34.144167680766799 $203 $320 forward 7 unknown #
coedge $-1 $311 $321 $120 $206 forward $305 $-1 #
edge $-1 $211 -34.144167680766799 $322 -27.424975518446708 $205 $323 forward 7 unknown #
coedge $-1 $324 $121 $321 $325 reversed $209 $-1 #
coedge $-1 $121 $324 $318 $326 forward $209 $-1 #
loop $-1 $-1 $121 $304 #
vertex $-1 $204 $327 #
vertex $-1 $122 $328 #
straight-curve $-1 64.928739280373549 0 5.49904534193176 0 1 0 I I #
face $-1 $-1 $225 $27 $-1 $329 forward single #
loop $-1 $-1 $330 $123 #
plane-surface $-1 0 38.773159584974309 0 0 -1 0 0 0 -1 forward_v I I I I #
coedge $-1 $331 $332 $333 $334 reversed $124 $-1 #
coedge $-1 $335 $126 $128 $223 forward $77 $-1 #
coedge $-1 $126 $335 $331 $336 forward $77 $-1 #
coedge $-1 $333 $129 $126 $220 forward $225 $-1 #
edge $-1 $227 -19.729339363419712 $337 -7.1700615468599267 $219 $338 forward 7 unknown #
coedge $-1 $339 $340 $127 $222 forward $214 $-1 #
edge $-1 $341 -69.836696010468557 $226 -62.7198381570511 $221 $342 forward 7 unknown #
edge $-1 $227 68.514897014483736 $341 77.546319169948646 $128 $343 forward 7 unknown #
coedge $-1 $129 $333 $339 $344 forward $225 $-1 #
loop $-1 $-1 $333 $213 #
vertex $-1 $222 $345 #
vertex $-1 $130 $346 #
straight-curve $-1 -33.179039818559531 46.679984876020001 8.4990453419317618 0 -1 0 I I #
coedge $-1 $229 $229 $-1 $347 reversed $133 $-1 #
edge $-1 $348 0 $348 6.2831853071796004 $134 $349 forward 7 unknown #
vertex $-1 $137 $350 #
ellipse-curve $-1 -26.899400910279638 35.993010288422376 4.9406164152230403 0 0.78801076186113728 0.61566146476048833 1 0 0 1 I I #
face $-1 $-1 $351 $29 $-1 $352 forward single #
loop $-1 $-1 $353 $138 #
plane-surface $-1 0 -38.773159584974309 0 0 1 0 0 0 1 forward_v I I I I #
coedge $-1 $237 $141 $143 $243 reversed $86 $-1 #
coedge $-1 $141 $236 $353 $354 reversed $86 $-1 #
coedge $-1 $355 $144 $141 $239 forward $139 $-1 #
edge $-1 $246 -34.69290360890939 $356 -26.524972579249479 $238 $357 forward 7 unknown #
coedge $-1 $143 $142 $358 $359 reversed $56 $-1 #
coedge $-1 $360 $361 $142 $242 forward $351 $-1 #
edge $-1 $362 -16.065851594372273 $245 -4.5146526216758023 $241 $363 forward 7 unknown #
edge $-1 $364 -2.0097183471152325e-014 $246 11.551198972696453 $236 $365 forward 7 unknown #
coedge $-1 $144 $355 $360 $366 forward $139 $-1 #
vertex $-1 $242 $367 #
vertex $-1 $145 $368 #
straight-curve $-1 23.079080839306229 -30.605228555314397 8.49904534193176 -1 0 0 I I #
coedge $-1 $248 $248 $-1 $369 reversed $148 $-1 #
edge $-1 $370 0 $370 6.2831853071796004 $149 $371 forward 7 unknown #
vertex $-1 $152 $372 #
ellipse-curve $-1 40.993282204566327 -34.689194070144353 4.4150797323329609 0 -0.70710678939079041 0.70710677298230451 2 0 0 1 I I #
coedge $-1 $252 $252 $-1 $373 reversed $155 $-1 #
edge $-1 $374 0 $374 6.2831853071796004 $156 $375 forward 7 unknown #
vertex $-1 $159 $376 #
ellipse-curve $-1 51.323041152658604 -34.689194070144353 4.4150797323329609 0 -0.70710678939079041 0.70710677298230451 2 0 0 1 I I #
face $-1 $-1 $175 $24 $-1 $377 reversed single #
loop $-1 $-1 $272 $160 #
plane-surface $-1 0 38.773159584974309 0 0 -1 0 0 0 -1 forward_v I I I I #
coedge $-1 $378 $270 $273 $379 forward $161 $-1 #
coedge $-1 $276 $163 $164 $264 reversed $100 $-1 #
coedge $-1 $270 $378 $163 $262 reversed $161 $-1 #
edge $-1 $277 -8.49904534193176 $380 8.49904534193176 $261 $381 forward 7 unknown #
coedge $-1 $165 $164 $378 $382 forward $65 $-1 #
edge $-1 $268 -64.928739280373549 $380 64.928739280373549 $260 $383 forward 7 unknown #
coedge $-1 $273 $272 $165 $266 reversed $257 $-1 #
edge $-1 $384 -64.928739280373549 $267 64.928739280373549 $265 $385 forward 7 unknown #
vertex $-1 $167 $386 #
vertex $-1 $279 $387 #
straight-curve $-1 64.928739280373549 0 -8.49904534193176 0 -1 0 I I #
coedge $-1 $259 $261 $168 $271 reversed $161 $-1 #
edge $-1 $274 -38.773159584974309 $277 38.773159584974309 $270 $388 forward 7 unknown #
coedge $-1 $265 $169 $174 $280 forward $257 $-1 #
coedge $-1 $169 $265 $259 $379 reversed $257 $-1 #
vertex $-1 $170 $389 #
straight-curve $-1 0 38.773159584974309 8.49904534193176 -1 0 0 I I #
coedge $-1 $171 $260 $173 $279 reversed $100 $-1 #
vertex $-1 $271 $390 #
straight-curve $-1 0 -38.773159584974309 8.49904534193176 1 0 0 I I #
edge $-1 $176 -8.49904534193176 $268 8.49904534193176 $173 $391 forward 7 unknown #
edge $-1 $177 -8.49904534193176 $267 8.49904534193176 $174 $392 forward 7 unknown #
point $-1 64.928739280373549 -38.773159584974309 8.49904534193176 #
point $-1 64.928739280373549 38.773159584974309 8.49904534193176 #
face $-1 $-1 $292 $25 $-1 $393 reversed single #
loop $-1 $-1 $289 $179 #
plane-surface $-1 0 0 8.49904534193176 0 0 1 1 0 0 forward_v I I I I #
coedge $-1 $394 $395 $186 $295 forward $180 $-1 #
coedge $-1 $182 $299 $396 $397 reversed $108 $-1 #
edge $-1 $398 -4.99952267096588 $192 -1.99952267096588 $182 $399 forward 7 unknown #
coedge $-1 $396 $400 $183 $290 forward $284 $-1 #
edge $-1 $293 -38.773159584974309 $398 38.773159584974309 $289 $401 forward 7 unknown #
coedge $-1 $296 $184 $400 $402 reversed $292 $-1 #
loop $-1 $-1 $184 $283 #
vertex $-1 $185 $403 #
straight-curve $-1 -58.209547118053464 -38.773159584974309 3.49952267096588 0 0 1 I I #
edge $-1 $300 -38.773159584974309 $297 38.773159584974309 $286 $404 forward 7 unknown #
coedge $-1 $187 $291 $394 $405 forward $292 $-1 #
vertex $-1 $295 $406 #
straight-curve $-1 -30.784571599606753 -38.773159584974309 5.49904534193176 1 0 0 I I #
coedge $-1 $287 $189 $395 $407 reversed $108 $-1 #
vertex $-1 $295 $408 #
straight-curve $-1 -30.784571599606753 38.773159584974309 5.49904534193176 -1 0 0 I I #
point $-1 -58.209547118053464 38.773159584974309 5.49904534193176 #
point $-1 -58.209547118053464 -38.773159584974309 5.49904534193176 #
face $-1 $-1 $209 $26 $-1 $409 reversed single #
loop $-1 $-1 $311 $195 #
plane-surface $-1 0 38.773159584974309 0 0 -1 0 0 0 -1 forward_v I I I I #
coedge $-1 $203 $410 $200 $313 forward $196 $-1 #
coedge $-1 $411 $198 $410 $412 forward $116 $-1 #
coedge $-1 $198 $411 $413 $414 forward $116 $-1 #
coedge $-1 $200 $199 $202 $317 reversed $73 $-1 #
coedge $-1 $413 $205 $199 $312 forward $305 $-1 #
edge $-1 $322 1.99952267096588 $314 4.99952267096588 $311 $415 forward 7 unknown #
edge $-1 $315 -4.99952267096588 $319 -1.99952267096588 $307 $416 forward 7 unknown #
vertex $-1 $312 $417 #
vertex $-1 $412 $418 #
straight-curve $-1 58.209547118053457 0 8.49904534193176 0 -1 0 I I #
edge $-1 $319 -38.773159584974309 $322 38.773159584974309 $310 $419 forward 7 unknown #
coedge $-1 $410 $203 $208 $326 reversed $196 $-1 #
vertex $-1 $204 $420 #
straight-curve $-1 30.78457159960675 -38.773159584974309 5.49904534193176 1 0 0 I I #
coedge $-1 $205 $413 $207 $325 forward $305 $-1 #
vertex $-1 $206 $421 #
straight-curve $-1 30.78457159960675 38.773159584974309 5.49904534193176 -1 0 0 I I #
coedge $-1 $208 $207 $411 $422 reversed $209 $-1 #
edge $-1 $423 -8.49904534193176 $211 -5.49904534193176 $207 $424 forward 7 unknown #
edge $-1 $425 -8.49904534193176 $210 -5.49904534193176 $208 $426 forward 7 unknown #
point $-1 64.928739280373549 -38.773159584974309 5.49904534193176 #
point $-1 64.928739280373549 38.773159584974309 5.49904534193176 #
plane-surface $-1 0 0 8.49904534193176 0 0 1 1 0 0 forward_v I I I I #
coedge $-1 $340 $339 $332 $427 forward $214 $-1 #
coedge $-1 $332 $216 $218 $336 reversed $124 $-1 #
coedge $-1 $216 $331 $330 $427 reversed $124 $-1 #
coedge $-1 $224 $219 $216 $334 forward $225 $-1 #
edge $-1 $337 -13.467123884149551 $428 -7.906825291045692 $333 $429 forward 7 unknown #
coedge $-1 $218 $217 $340 $430 reversed $77 $-1 #
edge $-1 $431 -77.546319169948646 $337 -68.514897014483736 $331 $432 forward 7 unknown #
vertex $-1 $220 $433 #
straight-curve $-1 -13.449700455139819 33.212860991870457 8.4990453419317618 1 0 0 I I #
coedge $-1 $330 $221 $224 $344 reversed $214 $-1 #
coedge $-1 $221 $330 $335 $430 forward $214 $-1 #
vertex $-1 $222 $434 #
straight-curve $-1 -33.179039818559531 38.773159584974309 71.218883498982862 0 0 1 I I #
straight-curve $-1 -33.179039818559531 -8.9691208619806133 62.489521537152456 0 0.61566146476048833 -0.78801076186113728 I I #
edge $-1 $428 20.619762001999746 $226 33.179039818559531 $339 $435 forward 7 unknown #
point $-1 -33.179039818559531 38.773159584974309 8.49904534193176 #
point $-1 -33.179039818559531 33.21286099187045 8.4990453419317689 #
edge $-1 $436 1 $436 0 $229 $-1 forward 7 unknown #
vertex $-1 $230 $437 #
ellipse-curve $-1 -26.899400910279638 35.095120038938234 4.2391076885072252 0 0.78801076186113728 0.61566146476048833 1 0 0 1 I I #
point $-1 -25.899400910279638 35.993010288422397 4.9406164152230545 #
loop $-1 $-1 $241 $233 #
plane-surface $-1 58.209547118053457 0 6.99904534193176 1 0 0 0 0 -1 forward_v I I I I #
coedge $-1 $358 $438 $237 $354 forward $234 $-1 #
edge $-1 $356 37.57806302578966 $364 45.745994244987259 $353 $439 forward 7 unknown #
coedge $-1 $244 $238 $438 $440 forward $139 $-1 #
vertex $-1 $440 $441 #
straight-curve $-1 34.106776239171474 -65.298132164223787 8.4990453419317618 0 -1 0 I I #
coedge $-1 $442 $353 $240 $359 forward $234 $-1 #
edge $-1 $364 11.027695399865244 $362 35.130466278747214 $358 $443 forward 7 unknown #
coedge $-1 $361 $241 $244 $366 reversed $351 $-1 #
coedge $-1 $241 $360 $442 $444 reversed $351 $-1 #
vertex $-1 $444 $445 #
straight-curve $-1 58.209547118053457 -27.412887108865121 11.691386862459652 0 0.70710677298230462 0.70710678939079052 I I #
vertex $-1 $359 $446 #
straight-curve $-1 34.106776239171474 -38.773159584974294 0.33111412273417784 0 0.70710677298230451 0.70710678939079041 I I #
edge $-1 $447 -38.773159584974309 $245 -30.605228555314397 $244 $448 forward 7 unknown #
point $-1 58.209547118053443 -30.605228555314397 8.49904534193176 #
point $-1 34.106776239171474 -30.605228555314397 8.49904534193176 #
edge $-1 $449 1 $449 0 $248 $-1 forward 7 unknown #
vertex $-1 $249 $450 #
ellipse-curve $-1 40.993282204566327 -32.250153640318487 1.9760393591052781 0 -0.70710678939079041 0.70710677298230451 2 0 0 1 I I #
point $-1 42.993282204566327 -34.689194070144367 4.415079732332976 #
edge $-1 $451 1 $451 0 $252 $-1 forward 7 unknown #
vertex $-1 $253 $452 #
ellipse-curve $-1 51.323041152658604 -32.250153640318487 1.9760393591052781 0 -0.70710678939079041 0.70710677298230451 2 0 0 1 I I #
point $-1 53.323041152658604 -34.689194070144367 4.415079732332976 #
plane-surface $-1 64.928739280373549 0 0 -1 0 0 0 0 1 forward_v I I I I #
coedge $-1 $261 $259 $263 $382 reversed $161 $-1 #
edge $-1 $274 -8.49904534193176 $384 8.49904534193176 $273 $453 forward 7 unknown #
vertex $-1 $382 $454 #
straight-curve $-1 -64.928739280373549 -38.773159584974309 0 0 0 -1 I I #
edge $-1 $380 -38.773159584974309 $384 38.773159584974309 $378 $455 forward 7 unknown #
straight-curve $-1 0 -38.773159584974309 -8.49904534193176 -1 0 0 I I #
vertex $-1 $266 $456 #
straight-curve $-1 0 38.773159584974309 -8.49904534193176 1 0 0 I I #
point $-1 64.928739280373549 38.773159584974309 -8.49904534193176 #
point $-1 64.928739280373549 -38.773159584974309 -8.49904534193176 #
straight-curve $-1 -64.928739280373549 0 8.49904534193176 0 -1 0 I I #
point $-1 -64.928739280373549 38.773159584974309 8.49904534193176 #
point $-1 -64.928739280373549 -38.773159584974309 8.49904534193176 #
straight-curve $-1 64.928739280373549 -38.773159584974309 0 0 0 -1 I I #
straight-curve $-1 64.928739280373549 38.773159584974309 0 0 0 -1 I I #
plane-surface $-1 0 -38.773159584974309 0 0 1 0 0 0 1 forward_v I I I I #
coedge $-1 $457 $286 $296 $405 reversed $180 $-1 #
coedge $-1 $286 $457 $299 $407 forward $180 $-1 #
coedge $-1 $458 $289 $287 $397 forward $284 $-1 #
edge $-1 $398 58.209547118053464 $459 64.928739280373549 $287 $460 forward 7 unknown #
vertex $-1 $397 $461 #
straight-curve $-1 -58.209547118053464 38.773159584974309 3.49952267096588 0 0 -1 I I #
coedge $-1 $289 $458 $291 $402 forward $284 $-1 #
straight-curve $-1 -58.209547118053464 0 8.49904534193176 0 1 0 I I #
edge $-1 $462 -64.928739280373549 $293 -58.209547118053464 $291 $463 forward 7 unknown #
point $-1 -58.209547118053464 -38.773159584974309 8.49904534193176 #
straight-curve $-1 -64.928739280373549 0 5.49904534193176 0 -1 0 I I #
edge $-1 $462 -8.49904534193176 $297 -5.49904534193176 $394 $464 forward 7 unknown #
point $-1 -64.928739280373549 -38.773159584974309 5.49904534193176 #
edge $-1 $459 -8.49904534193176 $300 -5.49904534193176 $299 $465 forward 7 unknown #
point $-1 -64.928739280373549 38.773159584974309 5.49904534193176 #
plane-surface $-1 64.928739280373549 0 0 -1 0 0 0 0 1 forward_v I I I I #
coedge $-1 $307 $318 $308 $412 reversed $196 $-1 #
coedge $-1 $309 $308 $324 $422 forward $116 $-1 #
edge $-1 $315 58.209547118053457 $425 64.928739280373549 $410 $466 forward 7 unknown #
coedge $-1 $321 $311 $309 $414 reversed $305 $-1 #
edge $-1 $423 -64.928739280373549 $314 -58.209547118053457 $413 $467 forward 7 unknown #
straight-curve $-1 58.209547118053457 38.773159584974309 3.49952267096588 0 0 1 I I #
straight-curve $-1 58.209547118053457 -38.773159584974309 3.49952267096588 0 0 -1 I I #
point $-1 58.209547118053457 38.773159584974309 8.49904534193176 #
point $-1 58.209547118053457 -38.773159584974309 8.49904534193176 #
straight-curve $-1 58.209547118053457 0 5.49904534193176 0 1 0 I I #
point $-1 58.209547118053457 -38.773159584974309 5.49904534193176 #
point $-1 58.209547118053457 38.773159584974309 5.49904534193176 #
edge $-1 $425 -38.773159584974309 $423 38.773159584974309 $324 $468 forward 7 unknown #
vertex $-1 $422 $469 #
straight-curve $-1 64.928739280373549 38.773159584974309 0 0 0 -1 I I #
vertex $-1 $422 $470 #
straight-curve $-1 64.928739280373549 -38.773159584974309 0 0 0 -1 I I #
edge $-1 $428 62.7198381570511 $431 69.836696010468557 $330 $471 forward 7 unknown #
vertex $-1 $344 $472 #
straight-curve $-1 -20.619762001999746 46.679984876020001 8.4990453419317618 0 1 0 I I #
edge $-1 $431 7.1700615468599267 $341 19.729339363419712 $340 $473 forward 7 unknown #
vertex $-1 $430 $474 #
straight-curve $-1 -20.619762001999746 -8.9691208619806133 62.489521537152456 0 -0.61566146476048833 0.78801076186113728 I I #
point $-1 -20.619762001999746 33.21286099187045 8.4990453419317689 #
point $-1 -33.179039818559531 38.773159584974309 1.3821874885143117 #
straight-curve $-1 0 38.773159584974309 8.49904534193176 -1 0 0 I I #
vertex $-1 $347 $475 #
point $-1 -25.899400910279638 35.095120038938234 4.2391076885072252 #
coedge $-1 $353 $442 $355 $440 reversed $234 $-1 #
straight-curve $-1 34.106776239171474 -38.773159584974309 46.077108367721422 0 0 -1 I I #
edge $-1 $356 34.106776239171474 $447 58.209547118053457 $438 $476 forward 7 unknown #
point $-1 34.106776239171474 -38.773159584974309 8.49904534193176 #
coedge $-1 $438 $358 $361 $444 forward $234 $-1 #
straight-curve $-1 23.079080839306229 -38.773159584974309 0.33111412273416363 1 0 0 I I #
edge $-1 $362 -45.745994244987259 $447 -37.57806302578966 $442 $477 forward 7 unknown #
point $-1 58.209547118053443 -38.773159584974309 0.33111412273416363 #
point $-1 34.106776239171474 -38.773159584974309 0.33111412273416363 #
vertex $-1 $366 $478 #
straight-curve $-1 58.209547118053457 0 8.49904534193176 0 1 0 I I #
vertex $-1 $369 $479 #
point $-1 42.993282204566327 -32.250153640318487 1.9760393591052781 #
vertex $-1 $373 $480 #
point $-1 53.323041152658604 -32.250153640318487 1.9760393591052781 #
straight-curve $-1 -64.928739280373549 38.773159584974309 0 0 0 -1 I I #
point $-1 -64.928739280373549 -38.773159584974309 -8.49904534193176 #
straight-curve $-1 -64.928739280373549 0 -8.49904534193176 0 1 0 I I #
point $-1 -64.928739280373549 38.773159584974309 -8.49904534193176 #
coedge $-1 $395 $394 $458 $481 reversed $180 $-1 #
coedge $-1 $400 $396 $457 $481 forward $284 $-1 #
vertex $-1 $397 $482 #
straight-curve $-1 0 38.773159584974309 8.49904534193176 -1 0 0 I I #
point $-1 -58.209547118053464 38.773159584974309 8.49904534193176 #
vertex $-1 $481 $483 #
straight-curve $-1 0 -38.773159584974309 8.49904534193176 1 0 0 I I #
straight-curve $-1 -64.928739280373549 -38.773159584974309 0 0 0 -1 I I #
straight-curve $-1 -64.928739280373549 38.773159584974309 0 0 0 -1 I I #
straight-curve $-1 0 -38.773159584974309 8.49904534193176 1 0 0 I I #
straight-curve $-1 0 38.773159584974309 8.49904534193176 -1 0 0 I I #
straight-curve $-1 64.928739280373549 0 8.49904534193176 0 1 0 I I #
point $-1 64.928739280373549 38.773159584974309 8.49904534193176 #
point $-1 64.928739280373549 -38.773159584974309 8.49904534193176 #
straight-curve $-1 -20.619762001999746 38.773159584974309 71.218883498982862 0 0 -1 I I #
point $-1 -20.619762001999746 38.773159584974309 8.49904534193176 #
straight-curve $-1 -13.449700455139819 38.773159584974309 1.3821874885143011 -1 0 0 I I #
point $-1 -20.619762001999746 38.773159584974309 1.3821874885143117 #
point $-1 -26.899400910279638 34.307109277077103 3.6234462237467366 #
straight-curve $-1 0 -38.773159584974309 8.49904534193176 1 0 0 I I #
straight-curve $-1 58.209547118053443 -38.773159584974309 46.077108367721422 0 0 1 I I #
point $-1 58.209547118053457 -38.773159584974309 8.49904534193176 #
point $-1 40.993282204566327 -30.835940061536906 0.56182581314066915 #
point $-1 51.323041152658604 -30.835940061536906 0.56182581314066915 #
edge $-1 $459 -38.773159584974309 $462 38.773159584974309 $457 $484 forward 7 unknown #
point $-1 -64.928739280373549 38.773159584974309 8.49904534193176 #
point $-1 -64.928739280373549 -38.773159584974309 8.49904534193176 #
straight-curve $-1 -64.928739280373549 0 8.49904534193176 0 -1 0 I I #
End-of-ACIS-data 