500 0 5 0           
7 Unknown 11 ACIS 5.0 NT 24 Thu Mar 25 16:38:55 1999 
-1 9.9999999999999995e-007 1e-010 
body $-1 $5 $-1 $6 #
body $-1 $7 $-1 $8 #
body $-1 $9 $-1 $10 #
body $-1 $11 $-1 $12 #
body $-1 $13 $-1 $14 #
lump $-1 $-1 $15 $0 #
transform $-1 1 0 0 0 1 0 0 0 1 77.275307473982963 51.874708496985349 21.027882569059059 1 rotate no_reflect no_shear #
lump $-1 $-1 $16 $1 #
transform $-1 1 0 0 0 1 0 0 0 1 77.275307473982963 51.874708496985349 21.027882569059059 1 rotate no_reflect no_shear #
lump $-1 $-1 $17 $2 #
transform $-1 1 0 0 0 1 0 0 0 1 77.275307473982963 51.874708496985349 21.027882569059059 1 rotate no_reflect no_shear #
lump $-1 $-1 $18 $3 #
transform $-1 1 0 0 0 1 0 0 0 1 77.275307473982963 51.874708496985349 21.027882569059059 1 rotate no_reflect no_shear #
lump $-1 $-1 $19 $4 #
transform $-1 1 0 0 0 1 0 0 0 1 77.275307473982963 51.874708496985349 21.027882569059059 1 rotate no_reflect no_shear #
shell $-1 $-1 $-1 $20 $-1 $5 #
shell $-1 $-1 $-1 $21 $-1 $7 #
shell $-1 $-1 $-1 $22 $-1 $9 #
shell $-1 $-1 $-1 $23 $-1 $11 #
shell $-1 $-1 $-1 $24 $-1 $13 #
face $-1 $25 $26 $15 $-1 $27 forward single #
face $-1 $28 $29 $16 $-1 $30 forward single #
face $-1 $31 $32 $17 $-1 $33 reversed single #
face $-1 $34 $35 $18 $-1 $36 forward single #
face $-1 $37 $38 $19 $-1 $39 forward single #
face $-1 $40 $41 $15 $-1 $42 reversed single #
loop $-1 $-1 $43 $20 #
plane-surface $-1 0 0 21.027882569059059 0 0 1 1 0 0 forward_v I I I I #
face $-1 $44 $45 $16 $-1 $46 reversed single #
loop $-1 $-1 $47 $21 #
plane-surface $-1 -77.275307473982963 0 0 1 0 0 0 0 -1 forward_v I I I I #
face $-1 $48 $49 $17 $-1 $50 reversed single #
loop $-1 $-1 $51 $22 #
plane-surface $-1 92.521813586517396 49.369780302208113 224.93666532389688 0 -1 0 -0.75470958851134928 0 -0.65605901945558964 forward_v I I I I #
face $-1 $52 $53 $18 $-1 $54 forward single #
loop $-1 $55 $56 $23 #
cone-surface $-1 68.333156571049017 34.93675634451499 11.528766291063944 -0.75470958851134928 0 -0.65605901945558964 1.3121180389111793 0 -1.5094191770226986 1 I I 0 1 2 forward I I I I #
face $-1 $57 $58 $19 $-1 $59 forward single #
loop $-1 $60 $61 $24 #
cone-surface $-1 68.333156571049017 43.596570719130867 11.528766291063944 -0.75470958851134928 0 -0.65605901945558964 1.3121180389111793 0 -1.5094191770226986 1 I I 0 1 2 forward I I I I #
face $-1 $62 $63 $15 $-1 $64 reversed single #
loop $-1 $-1 $65 $25 #
plane-surface $-1 0 0 -21.027882569059059 0 0 1 1 0 0 forward_v I I I I #
coedge $-1 $66 $67 $68 $69 forward $26 $-1 #
face $-1 $70 $71 $16 $-1 $72 forward single #
loop $-1 $-1 $73 $28 #
plane-surface $-1 0 51.874708496985349 0 0 -1 0 0 0 -1 forward_v I I I I #
coedge $-1 $74 $75 $76 $77 forward $29 $-1 #
face $-1 $78 $79 $17 $-1 $80 reversed single #
loop $-1 $-1 $81 $31 #
plane-surface $-1 -24.119017425037953 39.266663531822928 123.54234042487596 0.75470958851134928 0 0.65605901945558964 0.65605901945558964 0 -0.75470958851134928 forward_v I I I I #
coedge $-1 $82 $83 $84 $85 reversed $32 $-1 #
face $-1 $-1 $86 $18 $-1 $87 forward single #
loop $-1 $88 $89 $34 #
cone-surface $-1 64.776230341799845 34.93675634451499 8.4367775714824518 -0.75470958851134928 0 -0.65605901945558964 0.65605901945558964 0 -0.75470958851134928 1 I I -0.70710678118654746 0.70710678118654746 1 forward I I I I #
loop $-1 $-1 $90 $23 #
coedge $-1 $56 $56 $91 $92 reversed $35 $-1 #
face $-1 $-1 $93 $19 $-1 $94 forward single #
loop $-1 $95 $96 $37 #
cone-surface $-1 64.776230341799845 43.596570719130867 8.4367775714824518 -0.75470958851134928 0 -0.65605901945558964 0.65605901945558964 0 -0.75470958851134928 1 I I -0.70710678118654746 0.70710678118654746 1 forward I I I I #
loop $-1 $-1 $97 $24 #
coedge $-1 $61 $61 $98 $99 reversed $38 $-1 #
face $-1 $100 $101 $15 $-1 $102 reversed single #
loop $-1 $-1 $103 $40 #
plane-surface $-1 0 -51.874708496985349 0 0 1 0 0 0 1 forward_v I I I I #
coedge $-1 $104 $105 $106 $107 forward $41 $-1 #
coedge $-1 $108 $43 $109 $110 forward $26 $-1 #
coedge $-1 $43 $108 $111 $112 forward $26 $-1 #
coedge $-1 $113 $114 $43 $69 reversed $115 $-1 #
edge $-1 $116 -51.874708496985349 $117 51.874708496985349 $68 $118 forward 7 unknown #
face $-1 $119 $120 $16 $-1 $121 reversed single #
loop $-1 $-1 $76 $44 #
plane-surface $-1 -84.586172230481537 0 3.915599326626813 0 0 1 1 0 0 forward_v I I I I #
coedge $-1 $122 $123 $75 $124 forward $45 $-1 #
coedge $-1 $125 $47 $126 $127 reversed $29 $-1 #
coedge $-1 $47 $125 $73 $124 reversed $29 $-1 #
coedge $-1 $128 $129 $47 $77 reversed $71 $-1 #
edge $-1 $130 -51.874708496985349 $131 51.874708496985349 $76 $132 forward 7 unknown #
face $-1 $133 $134 $17 $-1 $135 forward single #
loop $-1 $-1 $136 $48 #
plane-surface $-1 92.521813586517396 29.163546761437743 224.93666532389688 0 1 0 0.75470958851134928 0 0.65605901945558964 forward_v I I I I #
coedge $-1 $137 $138 $139 $140 reversed $49 $-1 #
coedge $-1 $83 $51 $141 $142 reversed $32 $-1 #
coedge $-1 $51 $82 $137 $143 reversed $32 $-1 #
coedge $-1 $139 $144 $51 $85 forward $134 $-1 #
edge $-1 $145 -31.014400680724265 $146 -18.734532156332037 $84 $147 forward 7 unknown #
loop $-1 $-1 $91 $52 #
plane-surface $-1 -24.119017425037953 39.266663531822928 123.54234042487596 0.75470958851134928 0 0.65605901945558964 0.65605901945558964 0 -0.75470958851134928 forward_v I I I I #
loop $-1 $-1 $148 $34 #
coedge $-1 $89 $89 $90 $149 reversed $53 $-1 #
coedge $-1 $90 $90 $89 $149 forward $55 $-1 #
coedge $-1 $91 $91 $56 $92 forward $86 $-1 #
edge $-1 $150 0 $150 6.2831853071796004 $91 $151 forward 7 unknown #
loop $-1 $-1 $98 $57 #
plane-surface $-1 -24.119017425037953 39.266663531822928 123.54234042487596 0.75470958851134928 0 0.65605901945558964 0.65605901945558964 0 -0.75470958851134928 forward_v I I I I #
loop $-1 $-1 $152 $37 #
coedge $-1 $96 $96 $97 $153 reversed $58 $-1 #
coedge $-1 $97 $97 $96 $153 forward $60 $-1 #
coedge $-1 $98 $98 $61 $99 forward $93 $-1 #
edge $-1 $154 0 $154 6.2831853071796004 $98 $155 forward 7 unknown #
face $-1 $156 $157 $15 $-1 $158 reversed single #
loop $-1 $-1 $159 $62 #
plane-surface $-1 -77.275307473982963 0 0 1 0 0 0 0 -1 forward_v I I I I #
coedge $-1 $160 $111 $159 $161 forward $63 $-1 #
coedge $-1 $162 $65 $160 $163 forward $41 $-1 #
coedge $-1 $65 $162 $164 $165 forward $41 $-1 #
coedge $-1 $114 $113 $65 $107 reversed $115 $-1 #
edge $-1 $166 -51.874708496985349 $167 51.874708496985349 $106 $168 forward 7 unknown #
coedge $-1 $67 $66 $169 $170 forward $26 $-1 #
coedge $-1 $171 $172 $66 $110 reversed $157 $-1 #
edge $-1 $117 -77.275307473982963 $173 77.275307473982963 $109 $174 forward 7 unknown #
coedge $-1 $103 $175 $67 $112 reversed $63 $-1 #
edge $-1 $176 -77.275307473982963 $116 77.275307473982963 $111 $177 forward 7 unknown #
coedge $-1 $106 $68 $175 $178 forward $115 $-1 #
coedge $-1 $68 $106 $171 $179 reversed $115 $-1 #
loop $-1 $-1 $113 $156 #
vertex $-1 $69 $180 #
vertex $-1 $69 $181 #
straight-curve $-1 77.275307473982963 0 21.027882569059059 0 1 0 I I #
face $-1 $182 $183 $16 $-1 $184 reversed single #
loop $-1 $-1 $185 $70 #
plane-surface $-1 -84.586172230481537 0 -2.1089240042186308 0 0 1 1 0 0 forward_v I I I I #
coedge $-1 $186 $73 $187 $188 reversed $45 $-1 #
coedge $-1 $73 $186 $128 $189 reversed $45 $-1 #
edge $-1 $130 -3.915599326626813 $190 2.1089240042186308 $73 $191 forward 7 unknown #
coedge $-1 $75 $74 $185 $192 forward $29 $-1 #
coedge $-1 $193 $194 $74 $127 forward $195 $-1 #
edge $-1 $196 -2.1089240042186308 $131 3.915599326626813 $126 $197 forward 7 unknown #
coedge $-1 $198 $76 $123 $189 forward $71 $-1 #
coedge $-1 $76 $198 $193 $199 forward $71 $-1 #
vertex $-1 $124 $200 #
vertex $-1 $199 $201 #
straight-curve $-1 -77.275307473982963 0 3.915599326626813 0 -1 0 I I #
face $-1 $-1 $202 $17 $-1 $203 reversed single #
loop $-1 $-1 $84 $78 #
plane-surface $-1 0 0 21.027882569059059 0 0 1 1 0 0 forward_v I I I I #
coedge $-1 $204 $205 $206 $207 reversed $79 $-1 #
coedge $-1 $208 $81 $83 $143 forward $49 $-1 #
coedge $-1 $81 $208 $204 $209 forward $49 $-1 #
coedge $-1 $206 $84 $81 $140 forward $134 $-1 #
edge $-1 $146 -29.736448536296649 $210 -9.5302149955262792 $139 $211 forward 7 unknown #
coedge $-1 $212 $213 $82 $142 forward $202 $-1 #
edge $-1 $214 -105.56682324862783 $145 -91.440450092889378 $141 $215 forward 7 unknown #
edge $-1 $146 135.83298717328449 $214 154.55061494796595 $83 $216 forward 7 unknown #
coedge $-1 $84 $206 $212 $217 forward $134 $-1 #
vertex $-1 $142 $218 #
vertex $-1 $85 $219 #
straight-curve $-1 46.260906793258698 49.369780302208113 21.027882569059059 -1 0 0 I I #
coedge $-1 $148 $148 $-1 $220 reversed $88 $-1 #
edge $-1 $221 0 $221 6.2831853071796004 $89 $222 forward 7 unknown #
vertex $-1 $92 $223 #
ellipse-curve $-1 71.135373211786842 34.93675634451499 13.964695991189849 0.75470958851134928 0 0.65605901945558964 1.3121180389111793 0 -1.5094191770226986 1 I I #
coedge $-1 $152 $152 $-1 $224 reversed $95 $-1 #
edge $-1 $225 0 $225 6.2831853071796004 $96 $226 forward 7 unknown #
vertex $-1 $99 $227 #
ellipse-curve $-1 71.135373211786842 43.596570719130867 13.964695991189849 0.75470958851134928 0 0.65605901945558964 1.3121180389111793 0 -1.5094191770226986 1 I I #
face $-1 $-1 $115 $15 $-1 $228 reversed single #
loop $-1 $-1 $171 $100 #
plane-surface $-1 0 51.874708496985349 0 0 -1 0 0 0 -1 forward_v I I I I #
coedge $-1 $169 $229 $103 $161 reversed $101 $-1 #
coedge $-1 $175 $103 $104 $163 reversed $63 $-1 #
edge $-1 $176 -21.027882569059059 $230 21.027882569059059 $159 $231 forward 7 unknown #
coedge $-1 $105 $104 $229 $232 forward $41 $-1 #
edge $-1 $167 -77.275307473982963 $230 77.275307473982963 $160 $233 forward 7 unknown #
coedge $-1 $172 $171 $105 $165 reversed $157 $-1 #
edge $-1 $234 -77.275307473982963 $166 77.275307473982963 $164 $235 forward 7 unknown #
vertex $-1 $107 $236 #
vertex $-1 $178 $237 #
straight-curve $-1 77.275307473982963 0 -21.027882569059059 0 -1 0 I I #
coedge $-1 $238 $159 $108 $170 reversed $101 $-1 #
edge $-1 $173 -51.874708496985349 $176 51.874708496985349 $169 $239 forward 7 unknown #
coedge $-1 $164 $109 $114 $179 forward $157 $-1 #
coedge $-1 $109 $164 $238 $240 reversed $157 $-1 #
vertex $-1 $110 $241 #
straight-curve $-1 0 51.874708496985349 21.027882569059059 -1 0 0 I I #
coedge $-1 $111 $160 $113 $178 reversed $63 $-1 #
vertex $-1 $170 $242 #
straight-curve $-1 0 -51.874708496985349 21.027882569059059 1 0 0 I I #
edge $-1 $116 -21.027882569059059 $167 21.027882569059059 $113 $243 forward 7 unknown #
edge $-1 $117 -21.027882569059059 $166 21.027882569059059 $114 $244 forward 7 unknown #
point $-1 77.275307473982963 -51.874708496985349 21.027882569059059 #
point $-1 77.275307473982963 51.874708496985349 21.027882569059059 #
face $-1 $-1 $195 $16 $-1 $245 reversed single #
loop $-1 $-1 $246 $119 #
plane-surface $-1 -91.897036986980112 0 0.90333766120409109 1 0 0 0 0 -1 forward_v I I I I #
coedge $-1 $247 $187 $125 $192 reversed $120 $-1 #
coedge $-1 $123 $122 $246 $248 reversed $45 $-1 #
coedge $-1 $185 $249 $122 $188 forward $120 $-1 #
edge $-1 $250 -7.3108647564985745 $190 7.3108647564985745 $122 $251 forward 7 unknown #
edge $-1 $130 -7.3108647564985745 $252 7.3108647564985745 $123 $253 forward 7 unknown #
vertex $-1 $124 $254 #
straight-curve $-1 -77.275307473982963 51.874708496985349 0 0 0 -1 I I #
edge $-1 $196 -51.874708496985349 $190 51.874708496985349 $185 $255 forward 7 unknown #
coedge $-1 $256 $126 $129 $199 reversed $195 $-1 #
coedge $-1 $126 $256 $247 $257 reversed $195 $-1 #
loop $-1 $-1 $126 $182 #
vertex $-1 $127 $258 #
straight-curve $-1 -77.275307473982963 -51.874708496985349 0 0 0 1 I I #
coedge $-1 $129 $128 $259 $260 forward $71 $-1 #
edge $-1 $261 -7.3108647564985745 $131 7.3108647564985745 $193 $262 forward 7 unknown #
point $-1 -77.275307473982963 51.874708496985349 3.915599326626813 #
point $-1 -77.275307473982963 -51.874708496985349 3.915599326626813 #
loop $-1 $-1 $141 $133 #
plane-surface $-1 77.275307473982963 0 0 -1 0 0 0 0 1 forward_v I I I I #
coedge $-1 $205 $136 $138 $209 reversed $79 $-1 #
coedge $-1 $136 $204 $263 $264 reversed $79 $-1 #
coedge $-1 $144 $139 $136 $207 forward $134 $-1 #
edge $-1 $210 18.734532156332037 $265 31.014400680724265 $206 $266 forward 7 unknown #
coedge $-1 $138 $137 $213 $267 reversed $49 $-1 #
edge $-1 $268 -154.55061494796595 $210 -135.83298717328449 $204 $269 forward 7 unknown #
vertex $-1 $140 $270 #
straight-curve $-1 64.995438949590735 19.633331765911464 21.027882569059059 0 -1 0 I I #
coedge $-1 $263 $141 $144 $217 reversed $202 $-1 #
coedge $-1 $141 $263 $208 $267 forward $202 $-1 #
vertex $-1 $142 $271 #
straight-curve $-1 77.275307473982963 49.369780302208113 112.46833266194844 0 0 1 I I #
straight-curve $-1 -24.119017425037953 49.369780302208113 123.54234042487596 0.65605901945558964 0 -0.75470958851134928 I I #
edge $-1 $265 29.163546761437743 $145 49.369780302208113 $212 $272 forward 7 unknown #
point $-1 77.275307473982963 49.369780302208113 21.027882569059059 #
point $-1 64.995438949590735 49.369780302208113 21.027882569059059 #
edge $-1 $273 1 $273 0 $148 $-1 forward 7 unknown #
vertex $-1 $149 $274 #
ellipse-curve $-1 65.530939930311192 34.93675634451499 9.0928365909380418 0.75470958851134928 0 0.65605901945558964 1.3121180389111793 0 -1.5094191770226986 1 I I #
point $-1 72.447491250698022 34.93675634451499 12.455276814167146 #
edge $-1 $275 1 $275 0 $152 $-1 forward 7 unknown #
vertex $-1 $153 $276 #
ellipse-curve $-1 65.530939930311192 43.596570719130867 9.0928365909380418 0.75470958851134928 0 0.65605901945558964 1.3121180389111793 0 -1.5094191770226986 1 I I #
point $-1 72.447491250698022 43.596570719130867 12.455276814167146 #
plane-surface $-1 77.275307473982963 0 0 -1 0 0 0 0 1 forward_v I I I I #
coedge $-1 $159 $238 $162 $232 reversed $101 $-1 #
vertex $-1 $232 $277 #
straight-curve $-1 -77.275307473982963 -51.874708496985349 0 0 0 -1 I I #
edge $-1 $230 -51.874708496985349 $234 51.874708496985349 $229 $278 forward 7 unknown #
straight-curve $-1 0 -51.874708496985349 -21.027882569059059 -1 0 0 I I #
vertex $-1 $165 $279 #
straight-curve $-1 0 51.874708496985349 -21.027882569059059 1 0 0 I I #
point $-1 77.275307473982963 51.874708496985349 -21.027882569059059 #
point $-1 77.275307473982963 -51.874708496985349 -21.027882569059059 #
coedge $-1 $229 $169 $172 $240 forward $101 $-1 #
straight-curve $-1 -77.275307473982963 0 21.027882569059059 0 -1 0 I I #
edge $-1 $173 -21.027882569059059 $234 21.027882569059059 $172 $280 forward 7 unknown #
point $-1 -77.275307473982963 51.874708496985349 21.027882569059059 #
point $-1 -77.275307473982963 -51.874708496985349 21.027882569059059 #
straight-curve $-1 77.275307473982963 -51.874708496985349 0 0 0 -1 I I #
straight-curve $-1 77.275307473982963 51.874708496985349 0 0 0 -1 I I #
plane-surface $-1 0 -51.874708496985349 0 0 1 0 0 0 1 forward_v I I I I #
coedge $-1 $281 $259 $186 $248 forward $183 $-1 #
coedge $-1 $249 $185 $194 $257 forward $120 $-1 #
edge $-1 $252 -3.0122616654227219 $250 3.0122616654227219 $186 $282 forward 7 unknown #
coedge $-1 $187 $247 $281 $283 forward $120 $-1 #
vertex $-1 $188 $284 #
straight-curve $-1 -84.586172230481537 51.874708496985349 -2.1089240042186308 1 0 0 I I #
vertex $-1 $189 $285 #
straight-curve $-1 -84.586172230481537 51.874708496985349 3.915599326626813 -1 0 0 I I #
point $-1 -77.275307473982963 51.874708496985349 -2.1089240042186308 #
straight-curve $-1 -77.275307473982963 0 -2.1089240042186308 0 1 0 I I #
coedge $-1 $194 $193 $286 $287 forward $195 $-1 #
edge $-1 $196 -7.3108647564985745 $288 7.3108647564985745 $194 $289 forward 7 unknown #
point $-1 -77.275307473982963 -51.874708496985349 -2.1089240042186308 #
coedge $-1 $246 $286 $198 $260 reversed $183 $-1 #
edge $-1 $252 -51.874708496985349 $261 51.874708496985349 $259 $290 forward 7 unknown #
vertex $-1 $260 $291 #
straight-curve $-1 -84.586172230481537 -51.874708496985349 3.915599326626813 1 0 0 I I #
coedge $-1 $213 $212 $205 $264 forward $202 $-1 #
edge $-1 $265 91.440450092889378 $268 105.56682324862783 $263 $292 forward 7 unknown #
vertex $-1 $217 $293 #
straight-curve $-1 46.260906793258698 29.163546761437743 21.027882569059059 1 0 0 I I #
edge $-1 $268 9.5302149955262792 $214 29.736448536296649 $213 $294 forward 7 unknown #
vertex $-1 $267 $295 #
straight-curve $-1 -24.119017425037953 29.163546761437743 123.54234042487596 -0.65605901945558964 0 0.75470958851134928 I I #
point $-1 64.995438949590735 29.163546761437743 21.027882569059059 #
point $-1 77.275307473982963 49.369780302208113 6.9015094133206105 #
straight-curve $-1 77.275307473982963 0 21.027882569059059 0 1 0 I I #
vertex $-1 $220 $296 #
point $-1 66.843057969222372 34.93675634451499 7.5834174139153427 #
vertex $-1 $224 $297 #
point $-1 66.843057969222372 43.596570719130867 7.5834174139153427 #
point $-1 -77.275307473982963 -51.874708496985349 -21.027882569059059 #
straight-curve $-1 -77.275307473982963 0 -21.027882569059059 0 1 0 I I #
point $-1 -77.275307473982963 51.874708496985349 -21.027882569059059 #
straight-curve $-1 -77.275307473982963 51.874708496985349 0 0 0 -1 I I #
coedge $-1 $286 $246 $249 $283 reversed $183 $-1 #
straight-curve $-1 -91.897036986980112 51.874708496985349 0.90333766120409109 0 0 -1 I I #
edge $-1 $288 -51.874708496985349 $250 51.874708496985349 $281 $298 forward 7 unknown #
point $-1 -91.897036986980112 51.874708496985349 -2.1089240042186308 #
point $-1 -91.897036986980112 51.874708496985349 3.915599326626813 #
coedge $-1 $259 $281 $256 $287 reversed $183 $-1 #
edge $-1 $261 -3.0122616654227219 $288 3.0122616654227219 $286 $299 forward 7 unknown #
vertex $-1 $283 $300 #
straight-curve $-1 -84.586172230481537 -51.874708496985349 -2.1089240042186308 -1 0 0 I I #
straight-curve $-1 -91.897036986980112 0 3.915599326626813 0 -1 0 I I #
point $-1 -91.897036986980112 -51.874708496985349 3.915599326626813 #
straight-curve $-1 77.275307473982963 29.163546761437743 112.46833266194844 0 0 -1 I I #
point $-1 77.275307473982963 29.163546761437743 21.027882569059059 #
straight-curve $-1 77.275307473982963 19.633331765911464 6.9015094133206176 0 1 0 I I #
point $-1 77.275307473982963 29.163546761437743 6.9015094133206105 #
point $-1 64.021520753288499 34.93675634451499 7.7807185520268618 #
point $-1 64.021520753288499 43.596570719130867 7.7807185520268618 #
straight-curve $-1 -91.897036986980112 0 -2.1089240042186308 0 1 0 I I #
straight-curve $-1 -91.897036986980112 -51.874708496985349 0.90333766120409109 0 0 -1 I I #
point $-1 -91.897036986980112 -51.874708496985349 -2.1089240042186308 #
End-of-ACIS-data 