500 0 7 0           
7 Unknown 11 ACIS 5.0 NT 24 Fri Mar 26 14:56:14 1999 
-1 9.9999999999999995e-007 1e-010 
body $-1 $7 $-1 $8 #
body $-1 $9 $-1 $10 #
body $-1 $11 $-1 $12 #
body $-1 $13 $-1 $14 #
body $-1 $15 $-1 $16 #
body $-1 $17 $-1 $18 #
body $-1 $19 $-1 $20 #
lump $-1 $-1 $21 $0 #
transform $-1 1 0 0 0 1 0 0 0 1 73.091830195013273 41.687125773902601 15.423485921267616 1 rotate no_reflect no_shear #
lump $-1 $-1 $22 $1 #
transform $-1 1 0 0 0 1 0 0 0 1 73.091830195013273 41.687125773902601 15.423485921267616 1 rotate no_reflect no_shear #
lump $-1 $-1 $23 $2 #
transform $-1 1 0 0 0 1 0 0 0 1 73.091830195013273 41.687125773902601 15.423485921267616 1 rotate no_reflect no_shear #
lump $-1 $-1 $24 $3 #
transform $-1 1 0 0 0 1 0 0 0 1 73.091830195013273 41.687125773902601 15.423485921267616 1 rotate no_reflect no_shear #
lump $-1 $-1 $25 $4 #
transform $-1 1 0 0 0 1 0 0 0 1 73.091830195013273 41.687125773902601 15.423485921267616 1 rotate no_reflect no_shear #
lump $-1 $-1 $26 $5 #
transform $-1 1 0 0 0 1 0 0 0 1 73.091830195013273 41.687125773902601 15.423485921267616 1 rotate no_reflect no_shear #
lump $-1 $-1 $27 $6 #
transform $-1 1 0 0 0 1 0 0 0 1 73.091830195013273 41.687125773902601 15.423485921267616 1 rotate no_reflect no_shear #
shell $-1 $-1 $-1 $28 $-1 $7 #
shell $-1 $-1 $-1 $29 $-1 $9 #
shell $-1 $-1 $-1 $30 $-1 $11 #
shell $-1 $-1 $-1 $31 $-1 $13 #
shell $-1 $-1 $-1 $32 $-1 $15 #
shell $-1 $-1 $-1 $33 $-1 $17 #
shell $-1 $-1 $-1 $34 $-1 $19 #
face $-1 $35 $36 $21 $-1 $37 reversed single #
face $-1 $38 $39 $22 $-1 $40 forward single #
face $-1 $41 $42 $23 $-1 $43 forward single #
face $-1 $44 $45 $24 $-1 $46 reversed single #
face $-1 $47 $48 $25 $-1 $49 forward single #
face $-1 $50 $51 $26 $-1 $52 reversed single #
face $-1 $53 $54 $27 $-1 $55 forward single #
face $-1 $56 $57 $21 $-1 $58 forward single #
loop $-1 $-1 $59 $28 #
plane-surface $-1 0 -41.687125773902601 0 0 1 0 0 0 1 forward_v I I I I #
face $-1 $60 $61 $22 $-1 $62 forward single #
loop $-1 $-1 $63 $29 #
plane-surface $-1 0 -41.687125773902601 0 0 1 0 0 0 1 forward_v I I I I #
face $-1 $64 $65 $23 $-1 $66 forward single #
loop $-1 $-1 $67 $30 #
plane-surface $-1 0 41.687125773902601 0 0 -1 0 0 0 -1 forward_v I I I I #
face $-1 $68 $69 $24 $-1 $70 reversed single #
loop $-1 $-1 $71 $31 #
plane-surface $-1 -183.41804037505304 -13.693412624778615 108.12575156122234 0 1 0 -0.75470958851134928 0 0.65605901945558964 forward_v I I I I #
face $-1 $72 $73 $25 $-1 $74 forward single #
loop $-1 $75 $76 $32 #
cone-surface $-1 -70.470577290172201 -8.09305555265545 12.753573261695299 0.75470958851134928 0 -0.65605901945558964 0.65605901945558964 0 0.75470958851134928 1 I I 0 1 1 forward I I I I #
face $-1 $77 $78 $26 $-1 $79 reversed single #
loop $-1 $-1 $80 $33 #
plane-surface $-1 -183.41804037505304 14.422702408748849 108.12575156122234 0 1 0 -0.75470958851134928 0 0.65605901945558964 forward_v I I I I #
face $-1 $81 $82 $27 $-1 $83 forward single #
loop $-1 $84 $85 $34 #
cone-surface $-1 -70.470577290172201 20.023059480872014 12.753573261695299 0.75470958851134928 0 -0.65605901945558964 0.65605901945558964 0 0.75470958851134928 1 I I 0 1 1 forward I I I I #
face $-1 $86 $87 $21 $-1 $88 reversed single #
loop $-1 $-1 $89 $35 #
plane-surface $-1 0 0 15.423485921267616 0 0 1 1 0 0 forward_v I I I I #
coedge $-1 $90 $91 $92 $93 reversed $36 $-1 #
face $-1 $94 $95 $22 $-1 $96 reversed single #
loop $-1 $-1 $97 $38 #
plane-surface $-1 0 0 15.423485921267616 0 0 1 1 0 0 forward_v I I I I #
coedge $-1 $98 $99 $100 $101 forward $39 $-1 #
face $-1 $102 $103 $23 $-1 $104 reversed single #
loop $-1 $-1 $105 $41 #
plane-surface $-1 0 0 15.423485921267616 0 0 1 1 0 0 forward_v I I I I #
coedge $-1 $106 $107 $108 $109 forward $42 $-1 #
face $-1 $110 $111 $24 $-1 $112 reversed single #
loop $-1 $-1 $113 $44 #
plane-surface $-1 -73.091830195013273 -8.09305555265545 12.22064266531261 -0.75470958851134928 0 0.65605901945558964 0.65605901945558964 0 0.75470958851134928 forward_v I I I I #
coedge $-1 $114 $115 $116 $117 reversed $45 $-1 #
face $-1 $-1 $118 $25 $-1 $119 forward single #
loop $-1 $120 $121 $47 #
cone-surface $-1 -68.864064138407542 -8.09305555265545 11.3570527203727 0.75470958851134928 0 -0.65605901945558964 0.32802950972779482 0 0.37735479425567464 1 I I -0.70710678118654746 0.70710678118654746 0.5 forward I I I I #
loop $-1 $-1 $122 $32 #
coedge $-1 $76 $76 $123 $124 reversed $48 $-1 #
face $-1 $125 $126 $26 $-1 $127 reversed single #
loop $-1 $-1 $128 $50 #
plane-surface $-1 -73.091830195013273 20.023059480872014 12.22064266531261 -0.75470958851134928 0 0.65605901945558964 0.65605901945558964 0 0.75470958851134928 forward_v I I I I #
coedge $-1 $129 $130 $131 $132 reversed $51 $-1 #
face $-1 $-1 $133 $27 $-1 $134 forward single #
loop $-1 $135 $136 $53 #
cone-surface $-1 -68.864064138407542 20.023059480872014 11.3570527203727 0.75470958851134928 0 -0.65605901945558964 0.32802950972779482 0 0.37735479425567464 1 I I -0.70710678118654746 0.70710678118654746 0.5 forward I I I I #
loop $-1 $-1 $137 $34 #
coedge $-1 $85 $85 $138 $139 reversed $54 $-1 #
face $-1 $140 $141 $21 $-1 $142 reversed single #
loop $-1 $-1 $143 $56 #
plane-surface $-1 0 0 -15.423485921267616 0 0 1 1 0 0 forward_v I I I I #
coedge $-1 $144 $145 $146 $147 forward $57 $-1 #
coedge $-1 $148 $59 $149 $150 reversed $36 $-1 #
coedge $-1 $59 $148 $151 $152 forward $36 $-1 #
coedge $-1 $153 $143 $59 $93 forward $87 $-1 #
edge $-1 $154 -73.091830195013273 $155 73.091830195013273 $59 $156 forward 7 unknown #
face $-1 $157 $158 $22 $-1 $159 reversed single #
loop $-1 $-1 $160 $60 #
plane-surface $-1 -73.091830195013273 0 0 1 0 0 0 0 -1 forward_v I I I I #
coedge $-1 $161 $162 $99 $163 forward $61 $-1 #
coedge $-1 $164 $63 $165 $166 reversed $39 $-1 #
coedge $-1 $63 $164 $97 $163 reversed $39 $-1 #
coedge $-1 $167 $168 $63 $101 reversed $169 $-1 #
edge $-1 $170 -15.423485921267616 $171 15.423485921267616 $100 $172 forward 7 unknown #
face $-1 $173 $174 $23 $-1 $175 reversed single #
loop $-1 $-1 $176 $64 #
plane-surface $-1 -69.25810523444477 55.25813651427773 0 0 -1 0 0 0 -1 forward_v I I I I #
coedge $-1 $177 $178 $106 $179 forward $65 $-1 #
coedge $-1 $180 $67 $105 $179 reversed $42 $-1 #
coedge $-1 $67 $180 $181 $182 reversed $42 $-1 #
coedge $-1 $183 $184 $67 $109 reversed $174 $-1 #
edge $-1 $185 -15.423485921267616 $186 15.423485921267616 $108 $187 forward 7 unknown #
face $-1 $188 $189 $24 $-1 $190 reversed single #
loop $-1 $-1 $191 $68 #
plane-surface $-1 -183.41804037505304 -2.4926984805322849 108.12575156122234 0 -1 0 0.75470958851134928 0 -0.65605901945558964 forward_v I I I I #
coedge $-1 $192 $193 $194 $195 reversed $69 $-1 #
coedge $-1 $115 $71 $196 $197 reversed $45 $-1 #
coedge $-1 $71 $114 $192 $198 reversed $45 $-1 #
coedge $-1 $194 $199 $71 $117 forward $200 $-1 #
edge $-1 $201 18.617189992513246 $202 21.401379087177432 $116 $203 forward 7 unknown #
loop $-1 $-1 $123 $72 #
plane-surface $-1 -73.091830195013273 -8.09305555265545 12.22064266531261 -0.75470958851134928 0 0.65605901945558964 0.65605901945558964 0 0.75470958851134928 forward_v I I I I #
loop $-1 $-1 $204 $47 #
coedge $-1 $121 $121 $122 $205 reversed $73 $-1 #
coedge $-1 $122 $122 $121 $205 forward $75 $-1 #
coedge $-1 $123 $123 $76 $124 forward $118 $-1 #
edge $-1 $206 0 $206 6.2831853071796004 $123 $207 forward 7 unknown #
face $-1 $208 $209 $26 $-1 $210 forward single #
loop $-1 $-1 $211 $77 #
plane-surface $-1 -183.41804037505304 25.623416552995181 108.12575156122234 0 -1 0 0.75470958851134928 0 -0.65605901945558964 forward_v I I I I #
coedge $-1 $212 $213 $214 $215 reversed $78 $-1 #
coedge $-1 $130 $80 $216 $217 reversed $51 $-1 #
coedge $-1 $80 $129 $212 $218 reversed $51 $-1 #
coedge $-1 $214 $219 $80 $132 forward $209 $-1 #
edge $-1 $220 18.617189992513246 $221 21.401379087177432 $131 $222 forward 7 unknown #
loop $-1 $-1 $138 $81 #
plane-surface $-1 -73.091830195013273 20.023059480872014 12.22064266531261 -0.75470958851134928 0 0.65605901945558964 0.65605901945558964 0 0.75470958851134928 forward_v I I I I #
loop $-1 $-1 $223 $53 #
coedge $-1 $136 $136 $137 $224 reversed $82 $-1 #
coedge $-1 $137 $137 $136 $224 forward $84 $-1 #
coedge $-1 $138 $138 $85 $139 forward $133 $-1 #
edge $-1 $225 0 $225 6.2831853071796004 $138 $226 forward 7 unknown #
face $-1 $227 $228 $21 $-1 $229 reversed single #
loop $-1 $-1 $230 $86 #
plane-surface $-1 -73.091830195013273 0 0 1 0 0 0 0 -1 forward_v I I I I #
coedge $-1 $92 $231 $232 $233 forward $87 $-1 #
coedge $-1 $234 $89 $235 $236 forward $57 $-1 #
coedge $-1 $89 $234 $148 $237 forward $57 $-1 #
coedge $-1 $149 $238 $89 $147 reversed $239 $-1 #
edge $-1 $240 -41.687125773902601 $241 41.687125773902601 $146 $242 forward 7 unknown #
coedge $-1 $91 $90 $145 $237 reversed $36 $-1 #
coedge $-1 $232 $146 $90 $150 forward $239 $-1 #
edge $-1 $240 -15.423485921267616 $154 15.423485921267616 $149 $243 forward 7 unknown #
coedge $-1 $244 $245 $91 $152 reversed $141 $-1 #
edge $-1 $246 -15.423485921267616 $155 15.423485921267616 $151 $247 forward 7 unknown #
coedge $-1 $231 $92 $245 $248 forward $87 $-1 #
vertex $-1 $150 $249 #
vertex $-1 $248 $250 #
straight-curve $-1 0 -41.687125773902601 -15.423485921267616 -1 0 0 I I #
face $-1 $251 $169 $22 $-1 $252 reversed single #
loop $-1 $-1 $253 $94 #
plane-surface $-1 -69.25810523444477 -55.25813651427773 0 0 1 0 0 0 1 forward_v I I I I #
coedge $-1 $254 $255 $164 $256 forward $95 $-1 #
coedge $-1 $257 $97 $255 $258 forward $61 $-1 #
coedge $-1 $97 $257 $167 $259 forward $61 $-1 #
edge $-1 $170 65.424380273876267 $260 73.091830195013273 $97 $261 forward 7 unknown #
coedge $-1 $99 $98 $160 $256 reversed $39 $-1 #
coedge $-1 $262 $263 $98 $166 forward $264 $-1 #
edge $-1 $265 -73.091830195013273 $171 -65.424380273876267 $165 $266 forward 7 unknown #
coedge $-1 $267 $100 $162 $259 reversed $169 $-1 #
coedge $-1 $100 $267 $262 $268 reversed $169 $-1 #
loop $-1 $-1 $267 $157 #
vertex $-1 $163 $269 #
vertex $-1 $268 $270 #
straight-curve $-1 -65.424380273876267 -41.687125773902601 0 0 0 -1 I I #
face $-1 $271 $272 $23 $-1 $273 reversed single #
loop $-1 $-1 $108 $102 #
plane-surface $-1 -65.424380273876267 48.472631144090165 0 -1 0 0 0 0 1 forward_v I I I I #
coedge $-1 $274 $275 $276 $277 forward $103 $-1 #
coedge $-1 $278 $105 $184 $279 forward $65 $-1 #
coedge $-1 $105 $278 $280 $281 forward $65 $-1 #
edge $-1 $282 -73.091830195013273 $186 -65.424380273876267 $105 $283 forward 7 unknown #
coedge $-1 $107 $106 $284 $285 reversed $42 $-1 #
coedge $-1 $286 $287 $107 $182 forward $272 $-1 #
edge $-1 $185 65.424380273876267 $288 73.091830195013273 $181 $289 forward 7 unknown #
coedge $-1 $276 $108 $287 $290 reversed $174 $-1 #
coedge $-1 $108 $276 $177 $279 reversed $174 $-1 #
vertex $-1 $182 $291 #
vertex $-1 $279 $292 #
straight-curve $-1 -65.424380273876267 41.687125773902601 0 0 0 1 I I #
face $-1 $-1 $200 $24 $-1 $293 forward single #
loop $-1 $-1 $294 $110 #
plane-surface $-1 -73.091830195013273 0 0 1 0 0 0 0 -1 forward_v I I I I #
coedge $-1 $295 $296 $297 $298 reversed $111 $-1 #
coedge $-1 $299 $113 $115 $198 forward $69 $-1 #
coedge $-1 $113 $299 $295 $300 forward $69 $-1 #
coedge $-1 $297 $116 $113 $195 forward $200 $-1 #
edge $-1 $202 -9.64688484845089 $301 1.55382929579544 $194 $302 forward 7 unknown #
coedge $-1 $303 $304 $114 $197 forward $189 $-1 #
edge $-1 $305 -41.842233115298562 $201 -38.639389859343552 $196 $306 forward 7 unknown #
edge $-1 $202 -4.2438088831924858 $305 0 $115 $307 forward 7 unknown #
coedge $-1 $116 $297 $303 $308 forward $200 $-1 #
loop $-1 $-1 $297 $188 #
vertex $-1 $197 $309 #
vertex $-1 $117 $310 #
straight-curve $-1 -91.709020187526519 -13.693412624778615 15.423485921267613 1 0 0 I I #
coedge $-1 $204 $204 $-1 $311 reversed $120 $-1 #
edge $-1 $312 0 $312 6.2831853071796004 $121 $313 forward 7 unknown #
vertex $-1 $124 $314 #
ellipse-curve $-1 -71.69973564768118 -8.09305555265545 13.822064293290111 -0.75470958851134928 0 0.65605901945558964 0.65605901945558964 0 0.75470958851134928 1 I I #
face $-1 $-1 $315 $26 $-1 $316 reversed single #
loop $-1 $-1 $131 $125 #
plane-surface $-1 0 0 15.423485921267616 0 0 1 1 0 0 forward_v I I I I #
coedge $-1 $317 $318 $319 $320 reversed $126 $-1 #
coedge $-1 $321 $128 $130 $218 forward $78 $-1 #
coedge $-1 $128 $321 $317 $322 forward $78 $-1 #
coedge $-1 $319 $131 $128 $215 forward $209 $-1 #
edge $-1 $221 4.411172668312842 $323 15.611886812559174 $214 $324 forward 7 unknown #
coedge $-1 $325 $326 $129 $217 forward $315 $-1 #
edge $-1 $327 -41.842233115298562 $220 -38.639389859343552 $216 $328 forward 7 unknown #
edge $-1 $221 -4.2438088831924858 $327 0 $130 $329 forward 7 unknown #
coedge $-1 $131 $319 $325 $330 forward $209 $-1 #
vertex $-1 $217 $331 #
vertex $-1 $132 $332 #
straight-curve $-1 -91.709020187526519 14.422702408748849 15.423485921267613 1 0 0 I I #
coedge $-1 $223 $223 $-1 $333 reversed $135 $-1 #
edge $-1 $334 0 $334 6.2831853071796004 $136 $335 forward 7 unknown #
vertex $-1 $139 $336 #
ellipse-curve $-1 -71.69973564768118 20.023059480872014 13.822064293290111 -0.75470958851134928 0 0.65605901945558964 0.65605901945558964 0 0.75470958851134928 1 I I #
face $-1 $-1 $239 $21 $-1 $337 reversed single #
loop $-1 $-1 $235 $140 #
plane-surface $-1 0 41.687125773902601 0 0 -1 0 0 0 -1 forward_v I I I I #
coedge $-1 $245 $244 $338 $339 forward $141 $-1 #
coedge $-1 $143 $153 $340 $341 forward $87 $-1 #
coedge $-1 $238 $149 $143 $233 reversed $239 $-1 #
edge $-1 $342 -41.687125773902601 $154 41.687125773902601 $232 $343 forward 7 unknown #
coedge $-1 $145 $144 $244 $344 forward $57 $-1 #
coedge $-1 $345 $338 $144 $236 reversed $228 $-1 #
edge $-1 $241 -73.091830195013273 $346 73.091830195013273 $235 $347 forward 7 unknown #
edge $-1 $246 -73.091830195013273 $240 73.091830195013273 $148 $348 forward 7 unknown #
coedge $-1 $146 $232 $345 $349 reversed $239 $-1 #
loop $-1 $-1 $149 $227 #
vertex $-1 $147 $350 #
vertex $-1 $147 $351 #
straight-curve $-1 73.091830195013273 0 15.423485921267616 0 1 0 I I #
straight-curve $-1 73.091830195013273 -41.687125773902601 0 0 0 -1 I I #
coedge $-1 $230 $151 $234 $344 reversed $141 $-1 #
coedge $-1 $151 $230 $153 $248 reversed $141 $-1 #
vertex $-1 $344 $352 #
straight-curve $-1 -73.091830195013273 -41.687125773902601 0 0 0 -1 I I #
edge $-1 $155 -41.687125773902601 $353 41.687125773902601 $245 $354 forward 7 unknown #
point $-1 73.091830195013273 -41.687125773902601 -15.423485921267616 #
point $-1 -73.091830195013273 -41.687125773902601 -15.423485921267616 #
face $-1 $-1 $264 $22 $-1 $355 reversed single #
plane-surface $-1 -65.424380273876267 -48.472631144090165 0 -1 0 0 0 0 1 forward_v I I I I #
coedge $-1 $356 $357 $358 $359 forward $158 $-1 #
coedge $-1 $358 $160 $263 $360 reversed $95 $-1 #
coedge $-1 $160 $358 $161 $258 reversed $95 $-1 #
edge $-1 $260 -15.423485921267616 $265 15.423485921267616 $160 $361 forward 7 unknown #
coedge $-1 $162 $161 $357 $362 forward $61 $-1 #
edge $-1 $260 41.687125773902601 $363 55.25813651427773 $255 $364 forward 7 unknown #
edge $-1 $365 -6.7855053701875647 $170 6.7855053701875647 $167 $366 forward 7 unknown #
vertex $-1 $258 $367 #
straight-curve $-1 0 -41.687125773902601 15.423485921267616 -1 0 0 I I #
coedge $-1 $368 $165 $168 $268 forward $264 $-1 #
coedge $-1 $165 $368 $254 $360 forward $264 $-1 #
loop $-1 $-1 $165 $251 #
vertex $-1 $256 $369 #
straight-curve $-1 0 -41.687125773902601 -15.423485921267616 1 0 0 I I #
coedge $-1 $168 $167 $370 $371 forward $169 $-1 #
edge $-1 $171 -6.7855053701875647 $372 6.7855053701875647 $168 $373 forward 7 unknown #
point $-1 -65.424380273876267 -41.687125773902601 15.423485921267616 #
point $-1 -65.424380273876267 -41.687125773902601 -15.423485921267616 #
face $-1 $-1 $374 $23 $-1 $375 reversed single #
loop $-1 $-1 $181 $173 #
plane-surface $-1 0 0 -15.423485921267616 0 0 1 1 0 0 forward_v I I I I #
coedge $-1 $376 $176 $377 $378 reversed $103 $-1 #
coedge $-1 $176 $376 $278 $379 reversed $103 $-1 #
coedge $-1 $184 $183 $176 $277 reversed $174 $-1 #
edge $-1 $380 -15.423485921267616 $381 15.423485921267616 $276 $382 forward 7 unknown #
coedge $-1 $178 $177 $275 $379 forward $65 $-1 #
edge $-1 $186 -6.7855053701875647 $380 6.7855053701875647 $184 $383 forward 7 unknown #
coedge $-1 $384 $284 $178 $281 reversed $374 $-1 #
edge $-1 $385 -55.25813651427773 $282 -41.687125773902601 $280 $386 forward 7 unknown #
vertex $-1 $285 $387 #
straight-curve $-1 0 41.687125773902601 15.423485921267616 1 0 0 I I #
coedge $-1 $280 $388 $180 $285 forward $374 $-1 #
edge $-1 $288 -15.423485921267616 $282 15.423485921267616 $284 $389 forward 7 unknown #
coedge $-1 $377 $181 $388 $390 forward $272 $-1 #
coedge $-1 $181 $377 $183 $290 forward $272 $-1 #
vertex $-1 $390 $391 #
straight-curve $-1 0 41.687125773902601 -15.423485921267616 -1 0 0 I I #
edge $-1 $381 -6.7855053701875647 $185 6.7855053701875647 $183 $392 forward 7 unknown #
point $-1 -65.424380273876267 41.687125773902601 -15.423485921267616 #
point $-1 -65.424380273876267 41.687125773902601 15.423485921267616 #
plane-surface $-1 0 0 15.423485921267616 0 0 1 1 0 0 forward_v I I I I #
coedge $-1 $304 $303 $296 $393 forward $189 $-1 #
coedge $-1 $296 $191 $193 $300 reversed $111 $-1 #
coedge $-1 $191 $295 $294 $393 reversed $111 $-1 #
coedge $-1 $199 $194 $191 $298 forward $200 $-1 #
edge $-1 $301 -21.401379087177432 $394 -18.617189992513246 $297 $395 forward 7 unknown #
coedge $-1 $193 $192 $304 $396 reversed $69 $-1 #
edge $-1 $397 0 $301 4.2438088831924858 $295 $398 forward 7 unknown #
vertex $-1 $195 $399 #
straight-curve $-1 -70.307641100349088 -4.046527776327725 15.423485921267615 0 1 0 I I #
coedge $-1 $294 $196 $199 $308 reversed $189 $-1 #
coedge $-1 $196 $294 $299 $396 forward $189 $-1 #
vertex $-1 $197 $400 #
straight-curve $-1 -73.091830195013273 -13.693412624778615 54.062875780611172 0 0 1 I I #
straight-curve $-1 -73.091830195013273 -13.693412624778615 12.22064266531261 -0.65605901945558964 0 -0.75470958851134928 I I #
edge $-1 $394 2.4926984805322849 $201 13.693412624778615 $303 $401 forward 7 unknown #
point $-1 -73.091830195013273 -13.693412624778615 15.423485921267616 #
point $-1 -70.307641100349088 -13.693412624778615 15.423485921267616 #
edge $-1 $402 1 $402 0 $204 $-1 forward 7 unknown #
vertex $-1 $205 $403 #
ellipse-curve $-1 -69.241418932663223 -8.09305555265545 11.685082230100495 -0.75470958851134928 0 0.65605901945558964 0.65605901945558964 0 0.75470958851134928 1 I I #
point $-1 -71.043676628225583 -8.09305555265545 14.576773881801454 #
loop $-1 $-1 $216 $208 #
plane-surface $-1 -73.091830195013273 0 0 1 0 0 0 0 -1 forward_v I I I I #
coedge $-1 $318 $211 $213 $322 reversed $126 $-1 #
coedge $-1 $211 $317 $404 $405 reversed $126 $-1 #
coedge $-1 $219 $214 $211 $320 forward $209 $-1 #
edge $-1 $323 -21.401379087177432 $406 -18.617189992513246 $319 $407 forward 7 unknown #
coedge $-1 $213 $212 $326 $408 reversed $78 $-1 #
edge $-1 $409 0 $323 4.2438088831924858 $317 $410 forward 7 unknown #
vertex $-1 $215 $411 #
straight-curve $-1 -70.307641100349088 10.011529740436007 15.423485921267615 0 1 0 I I #
coedge $-1 $404 $216 $219 $330 reversed $315 $-1 #
coedge $-1 $216 $404 $321 $408 forward $315 $-1 #
vertex $-1 $217 $412 #
straight-curve $-1 -73.091830195013273 14.422702408748849 54.062875780611172 0 0 1 I I #
straight-curve $-1 -73.091830195013273 14.422702408748849 12.22064266531261 -0.65605901945558964 0 -0.75470958851134928 I I #
edge $-1 $406 -25.623416552995181 $220 -14.422702408748849 $325 $413 forward 7 unknown #
point $-1 -73.091830195013273 14.422702408748849 15.423485921267616 #
point $-1 -70.307641100349088 14.422702408748849 15.423485921267616 #
edge $-1 $414 1 $414 0 $223 $-1 forward 7 unknown #
vertex $-1 $224 $415 #
ellipse-curve $-1 -69.241418932663223 20.023059480872014 11.685082230100495 -0.75470958851134928 0 0.65605901945558964 0.65605901945558964 0 0.75470958851134928 1 I I #
point $-1 -71.043676628225583 20.023059480872014 14.576773881801454 #
plane-surface $-1 73.091830195013273 0 0 -1 0 0 0 0 1 forward_v I I I I #
coedge $-1 $235 $340 $230 $339 reversed $228 $-1 #
edge $-1 $346 -15.423485921267616 $353 15.423485921267616 $338 $416 forward 7 unknown #
coedge $-1 $338 $345 $231 $341 reversed $228 $-1 #
edge $-1 $353 -73.091830195013273 $342 73.091830195013273 $340 $417 forward 7 unknown #
vertex $-1 $233 $418 #
straight-curve $-1 73.091830195013273 0 -15.423485921267616 0 -1 0 I I #
edge $-1 $346 -41.687125773902601 $246 41.687125773902601 $244 $419 forward 7 unknown #
coedge $-1 $340 $235 $238 $349 forward $228 $-1 #
vertex $-1 $236 $420 #
straight-curve $-1 0 41.687125773902601 15.423485921267616 -1 0 0 I I #
straight-curve $-1 0 -41.687125773902601 15.423485921267616 1 0 0 I I #
edge $-1 $241 -15.423485921267616 $342 15.423485921267616 $238 $421 forward 7 unknown #
point $-1 73.091830195013273 -41.687125773902601 15.423485921267616 #
point $-1 73.091830195013273 41.687125773902601 15.423485921267616 #
point $-1 -73.091830195013273 -41.687125773902601 15.423485921267616 #
vertex $-1 $341 $422 #
straight-curve $-1 -73.091830195013273 0 -15.423485921267616 0 1 0 I I #
plane-surface $-1 0 0 -15.423485921267616 0 0 1 1 0 0 forward_v I I I I #
coedge $-1 $370 $253 $368 $423 reversed $158 $-1 #
coedge $-1 $253 $370 $257 $362 reversed $158 $-1 #
coedge $-1 $255 $254 $253 $359 reversed $95 $-1 #
edge $-1 $363 -15.423485921267616 $424 15.423485921267616 $358 $425 forward 7 unknown #
edge $-1 $424 -55.25813651427773 $265 -41.687125773902601 $254 $426 forward 7 unknown #
straight-curve $-1 -73.091830195013273 -41.687125773902601 0 0 0 -1 I I #
edge $-1 $363 -3.8337249605685031 $365 3.8337249605685031 $357 $427 forward 7 unknown #
vertex $-1 $258 $428 #
straight-curve $-1 -73.091830195013273 0 15.423485921267616 0 -1 0 I I #
vertex $-1 $259 $429 #
straight-curve $-1 -65.424380273876267 -48.472631144090165 15.423485921267616 0 1 0 I I #
point $-1 -73.091830195013273 -41.687125773902601 15.423485921267616 #
coedge $-1 $263 $262 $356 $423 forward $264 $-1 #
point $-1 -73.091830195013273 -41.687125773902601 -15.423485921267616 #
coedge $-1 $357 $356 $267 $371 reversed $158 $-1 #
edge $-1 $365 -15.423485921267616 $372 15.423485921267616 $267 $430 forward 7 unknown #
vertex $-1 $371 $431 #
straight-curve $-1 -65.424380273876267 -48.472631144090165 -15.423485921267616 0 -1 0 I I #
loop $-1 $-1 $284 $271 #
plane-surface $-1 -73.091830195013273 0 0 1 0 0 0 0 -1 forward_v I I I I #
coedge $-1 $275 $274 $384 $432 reversed $103 $-1 #
coedge $-1 $287 $286 $274 $378 forward $272 $-1 #
edge $-1 $433 -3.8337249605685031 $381 3.8337249605685031 $274 $434 forward 7 unknown #
edge $-1 $380 -3.8337249605685031 $385 3.8337249605685031 $275 $435 forward 7 unknown #
vertex $-1 $279 $436 #
vertex $-1 $290 $437 #
straight-curve $-1 -65.424380273876267 55.25813651427773 0 0 0 -1 I I #
straight-curve $-1 -65.424380273876267 48.472631144090165 15.423485921267616 0 1 0 I I #
coedge $-1 $388 $280 $376 $432 forward $374 $-1 #
vertex $-1 $379 $438 #
straight-curve $-1 -73.091830195013273 0 15.423485921267616 0 -1 0 I I #
point $-1 -73.091830195013273 41.687125773902601 15.423485921267616 #
coedge $-1 $284 $384 $286 $390 reversed $374 $-1 #
straight-curve $-1 -73.091830195013273 41.687125773902601 0 0 0 1 I I #
edge $-1 $288 -6.7855053701875647 $433 6.7855053701875647 $388 $439 forward 7 unknown #
point $-1 -73.091830195013273 41.687125773902601 -15.423485921267616 #
straight-curve $-1 -65.424380273876267 48.472631144090165 -15.423485921267616 0 -1 0 I I #
edge $-1 $394 38.639389859343552 $397 41.842233115298562 $294 $440 forward 7 unknown #
vertex $-1 $308 $441 #
straight-curve $-1 -91.709020187526519 -2.4926984805322849 15.423485921267613 -1 0 0 I I #
edge $-1 $397 -1.55382929579544 $305 9.64688484845089 $304 $442 forward 7 unknown #
vertex $-1 $396 $443 #
straight-curve $-1 -73.091830195013273 -2.4926984805322849 12.22064266531261 0.65605901945558964 0 0.75470958851134928 I I #
point $-1 -70.307641100349088 -2.4926984805322849 15.423485921267616 #
point $-1 -73.091830195013273 -13.693412624778615 12.22064266531261 #
straight-curve $-1 -73.091830195013273 0 15.423485921267616 0 -1 0 I I #
vertex $-1 $311 $444 #
point $-1 -68.585359913207625 -8.09305555265545 12.439791818611845 #
coedge $-1 $326 $325 $318 $405 forward $315 $-1 #
edge $-1 $406 38.639389859343552 $409 41.842233115298562 $404 $445 forward 7 unknown #
vertex $-1 $330 $446 #
straight-curve $-1 -91.709020187526519 25.623416552995181 15.423485921267613 -1 0 0 I I #
edge $-1 $409 -15.611886812559174 $327 -4.411172668312842 $326 $447 forward 7 unknown #
vertex $-1 $408 $448 #
straight-curve $-1 -73.091830195013273 25.623416552995181 12.22064266531261 0.65605901945558964 0 0.75470958851134928 I I #
point $-1 -70.307641100349088 25.623416552995181 15.423485921267616 #
point $-1 -73.091830195013273 14.422702408748849 12.22064266531261 #
straight-curve $-1 -73.091830195013273 0 15.423485921267616 0 -1 0 I I #
vertex $-1 $333 $449 #
point $-1 -68.585359913207625 20.023059480872014 12.439791818611845 #
straight-curve $-1 -73.091830195013273 41.687125773902601 0 0 0 -1 I I #
straight-curve $-1 0 41.687125773902601 -15.423485921267616 1 0 0 I I #
point $-1 73.091830195013273 41.687125773902601 -15.423485921267616 #
straight-curve $-1 -73.091830195013273 0 15.423485921267616 0 -1 0 I I #
point $-1 -73.091830195013273 41.687125773902601 15.423485921267616 #
straight-curve $-1 73.091830195013273 41.687125773902601 0 0 0 -1 I I #
point $-1 -73.091830195013273 41.687125773902601 -15.423485921267616 #
edge $-1 $372 -3.8337249605685031 $424 3.8337249605685031 $356 $450 forward 7 unknown #
vertex $-1 $360 $451 #
straight-curve $-1 -73.091830195013273 -55.25813651427773 0 0 0 -1 I I #
straight-curve $-1 -73.091830195013273 0 -15.423485921267616 0 1 0 I I #
straight-curve $-1 -69.25810523444477 -55.25813651427773 15.423485921267616 1 0 0 I I #
point $-1 -73.091830195013273 -55.25813651427773 15.423485921267616 #
point $-1 -65.424380273876267 -55.25813651427773 15.423485921267616 #
straight-curve $-1 -65.424380273876267 -55.25813651427773 0 0 0 -1 I I #
point $-1 -65.424380273876267 -55.25813651427773 -15.423485921267616 #
edge $-1 $385 -15.423485921267616 $433 15.423485921267616 $376 $452 forward 7 unknown #
vertex $-1 $378 $453 #
straight-curve $-1 -69.25810523444477 55.25813651427773 -15.423485921267616 1 0 0 I I #
straight-curve $-1 -69.25810523444477 55.25813651427773 15.423485921267616 -1 0 0 I I #
point $-1 -65.424380273876267 55.25813651427773 15.423485921267616 #
point $-1 -65.424380273876267 55.25813651427773 -15.423485921267616 #
point $-1 -73.091830195013273 55.25813651427773 15.423485921267616 #
straight-curve $-1 -73.091830195013273 48.472631144090165 -15.423485921267616 0 1 0 I I #
straight-curve $-1 -73.091830195013273 -2.4926984805322849 54.062875780611172 0 0 -1 I I #
point $-1 -73.091830195013273 -2.4926984805322849 15.423485921267616 #
straight-curve $-1 -73.091830195013273 -4.046527776327725 12.220642665312607 0 -1 0 I I #
point $-1 -73.091830195013273 -2.4926984805322849 12.22064266531261 #
point $-1 -68.486709344151862 -8.09305555265545 11.029023210644905 #
straight-curve $-1 -73.091830195013273 25.623416552995181 54.062875780611172 0 0 -1 I I #
point $-1 -73.091830195013273 25.623416552995181 15.423485921267616 #
straight-curve $-1 -73.091830195013273 10.011529740436007 12.220642665312607 0 -1 0 I I #
point $-1 -73.091830195013273 25.623416552995181 12.22064266531261 #
point $-1 -68.486709344151862 20.023059480872014 11.029023210644905 #
straight-curve $-1 -69.25810523444477 -55.25813651427773 -15.423485921267616 -1 0 0 I I #
point $-1 -73.091830195013273 -55.25813651427773 -15.423485921267616 #
straight-curve $-1 -73.091830195013273 55.25813651427773 0 0 0 -1 I I #
point $-1 -73.091830195013273 55.25813651427773 -15.423485921267616 #
End-of-ACIS-data 