500 0 8 0           
7 Unknown 11 ACIS 5.0 NT 24 Thu Mar 25 19:34:54 1999 
-1 9.9999999999999995e-007 1e-010 
body $-1 $8 $-1 $9 #
body $-1 $10 $-1 $11 #
body $-1 $12 $-1 $13 #
body $-1 $14 $-1 $15 #
body $-1 $16 $-1 $17 #
body $-1 $18 $-1 $19 #
body $-1 $20 $-1 $21 #
body $-1 $22 $-1 $23 #
lump $-1 $-1 $24 $0 #
transform $-1 1 0 0 0 1 0 0 0 1 43.579210791344948 19.128596302642201 7.3313540045390813 1 rotate no_reflect no_shear #
lump $-1 $-1 $25 $1 #
transform $-1 1 0 0 0 1 0 0 0 1 43.579210791344948 19.128596302642201 7.3313540045390813 1 rotate no_reflect no_shear #
lump $-1 $-1 $26 $2 #
transform $-1 1 0 0 0 1 0 0 0 1 43.579210791344948 19.128596302642201 7.3313540045390813 1 rotate no_reflect no_shear #
lump $-1 $-1 $27 $3 #
transform $-1 1 0 0 0 1 0 0 0 1 43.579210791344948 19.128596302642201 7.3313540045390813 1 rotate no_reflect no_shear #
lump $-1 $-1 $28 $4 #
transform $-1 1 0 0 0 1 0 0 0 1 43.579210791344948 19.128596302642201 7.3313540045390813 1 rotate no_reflect no_shear #
lump $-1 $-1 $29 $5 #
transform $-1 1 0 0 0 1 0 0 0 1 43.579210791344948 19.128596302642201 7.3313540045390813 1 rotate no_reflect no_shear #
lump $-1 $-1 $30 $6 #
transform $-1 1 0 0 0 1 0 0 0 1 43.579210791344948 19.128596302642201 7.3313540045390813 1 rotate no_reflect no_shear #
lump $-1 $-1 $31 $7 #
transform $-1 1 0 0 0 1 0 0 0 1 43.579210791344948 19.128596302642201 7.3313540045390813 1 rotate no_reflect no_shear #
shell $-1 $-1 $-1 $32 $-1 $8 #
shell $-1 $-1 $-1 $33 $-1 $10 #
shell $-1 $-1 $-1 $34 $-1 $12 #
shell $-1 $-1 $-1 $35 $-1 $14 #
shell $-1 $-1 $-1 $36 $-1 $16 #
shell $-1 $-1 $-1 $37 $-1 $18 #
shell $-1 $-1 $-1 $38 $-1 $20 #
shell $-1 $-1 $-1 $39 $-1 $22 #
face $-1 $40 $41 $24 $-1 $42 forward single #
face $-1 $43 $44 $25 $-1 $45 forward single #
face $-1 $46 $47 $26 $-1 $48 reversed single #
face $-1 $49 $50 $27 $-1 $51 forward single #
face $-1 $52 $53 $28 $-1 $54 forward single #
face $-1 $55 $56 $29 $-1 $57 reversed single #
face $-1 $58 $59 $30 $-1 $60 forward single #
face $-1 $61 $62 $31 $-1 $63 forward single #
face $-1 $64 $65 $24 $-1 $66 reversed single #
loop $-1 $-1 $67 $32 #
plane-surface $-1 0 0 7.3313540045390813 0 0 1 1 0 0 forward_v I I I I #
face $-1 $68 $69 $25 $-1 $70 reversed single #
loop $-1 $-1 $71 $33 #
plane-surface $-1 -43.579210791344948 0 0 1 0 0 0 0 -1 forward_v I I I I #
face $-1 $72 $73 $26 $-1 $74 reversed single #
loop $-1 $-1 $75 $34 #
plane-surface $-1 19.417848183227083 53.706987949861904 89.467154106153032 1 0 0 0 -0.70710678939079041 -0.70710677298230451 forward_v I I I I #
face $-1 $76 $77 $27 $-1 $78 forward single #
loop $-1 $79 $80 $35 #
cone-surface $-1 26.321094642689332 15.11416726569459 3.316924908836111 0 -0.70710678939079041 -0.70710677298230451 1 0 0 1 I I 0 1 1 forward I I I I #
face $-1 $81 $82 $28 $-1 $83 forward single #
loop $-1 $84 $85 $36 #
cone-surface $-1 36.67596433188271 15.11416726569459 3.316924908836111 0 -0.70710678939079041 -0.70710677298230451 1 0 0 1 I I 0 1 1 forward I I I I #
face $-1 $86 $87 $29 $-1 $88 reversed single #
loop $-1 $-1 $89 $37 #
plane-surface $-1 -15.827368879206778 -95.359070126612778 45.919052409798908 -1 0 0 0 -0.87461971476443456 0.48480960649040278 forward_v I I I I #
face $-1 $90 $91 $30 $-1 $92 forward single #
loop $-1 $93 $94 $38 #
cone-surface $-1 -28.532912706277394 -16.428904024937097 4.5645610405341612 0 0.87461971476443456 -0.48480960649040278 1 0 0 1 I I 0 1 1 forward I I I I #
face $-1 $95 $96 $31 $-1 $97 forward single #
loop $-1 $98 $99 $39 #
cone-surface $-1 -20.909586410035025 -16.428904024937097 4.5645610405341612 0 0.87461971476443456 -0.48480960649040278 1 0 0 1 I I 0 1 1 forward I I I I #
face $-1 $100 $101 $24 $-1 $102 reversed single #
loop $-1 $-1 $103 $40 #
plane-surface $-1 0 0 -7.3313540045390813 0 0 1 1 0 0 forward_v I I I I #
coedge $-1 $104 $105 $106 $107 forward $41 $-1 #
face $-1 $108 $109 $25 $-1 $110 forward single #
loop $-1 $-1 $111 $43 #
plane-surface $-1 0 19.128596302642201 0 0 -1 0 0 0 -1 forward_v I I I I #
coedge $-1 $112 $113 $114 $115 forward $44 $-1 #
face $-1 $116 $117 $26 $-1 $118 forward single #
loop $-1 $-1 $119 $46 #
plane-surface $-1 31.498529487286021 -7.9233237038429252 27.836843882585939 0 0.70710678939079041 0.70710677298230451 1 0 0 forward_v I I I I #
coedge $-1 $120 $121 $122 $123 reversed $47 $-1 #
face $-1 $-1 $124 $27 $-1 $125 forward single #
loop $-1 $126 $127 $49 #
cone-surface $-1 26.321094642689332 14.019400136186725 2.2221578047324311 0 -0.70710678939079041 -0.70710677298230451 0.5 0 0 1 I I -0.70710678118654746 0.70710678118654746 0.5 forward I I I I #
loop $-1 $-1 $128 $35 #
coedge $-1 $80 $80 $129 $130 reversed $50 $-1 #
face $-1 $-1 $131 $28 $-1 $132 forward single #
loop $-1 $133 $134 $52 #
cone-surface $-1 36.67596433188271 14.019400136186725 2.2221578047324311 0 -0.70710678939079041 -0.70710677298230451 0.5 0 0 1 I I -0.70710678118654746 0.70710678118654746 0.5 forward I I I I #
loop $-1 $-1 $135 $36 #
coedge $-1 $85 $85 $136 $137 reversed $53 $-1 #
face $-1 $138 $139 $29 $-1 $140 reversed single #
loop $-1 $-1 $141 $55 #
plane-surface $-1 -24.72124955815621 -19.128596302642208 3.6638123399703915 0 -0.87461971476443456 0.48480960649040278 1 0 0 forward_v I I I I #
coedge $-1 $142 $143 $144 $145 reversed $56 $-1 #
face $-1 $-1 $146 $30 $-1 $147 forward single #
loop $-1 $148 $149 $58 #
cone-surface $-1 -28.532912706277394 -14.308377622771939 3.3891341055683863 0 0.87461971476443456 -0.48480960649040278 0.5 0 0 1 I I -0.70710678118654746 0.70710678118654746 0.5 forward I I I I #
loop $-1 $-1 $150 $38 #
coedge $-1 $94 $94 $151 $152 reversed $59 $-1 #
face $-1 $-1 $153 $31 $-1 $154 forward single #
loop $-1 $155 $156 $61 #
cone-surface $-1 -20.909586410035025 -14.308377622771939 3.3891341055683863 0 0.87461971476443456 -0.48480960649040278 0.5 0 0 1 I I -0.70710678118654746 0.70710678118654746 0.5 forward I I I I #
loop $-1 $-1 $157 $39 #
coedge $-1 $99 $99 $158 $159 reversed $62 $-1 #
face $-1 $160 $161 $24 $-1 $162 reversed single #
loop $-1 $-1 $163 $64 #
plane-surface $-1 0 -19.128596302642201 0 0 1 0 0 0 1 forward_v I I I I #
coedge $-1 $164 $165 $166 $167 forward $65 $-1 #
coedge $-1 $168 $67 $169 $170 forward $41 $-1 #
coedge $-1 $67 $168 $171 $172 forward $41 $-1 #
coedge $-1 $173 $174 $67 $107 reversed $175 $-1 #
edge $-1 $176 -19.128596302642201 $177 19.128596302642201 $106 $178 forward 7 unknown #
face $-1 $179 $180 $25 $-1 $181 reversed single #
loop $-1 $-1 $114 $68 #
plane-surface $-1 -46.841087187723438 0 4.6350124291409873 0 0 1 1 0 0 forward_v I I I I #
coedge $-1 $182 $183 $113 $184 forward $69 $-1 #
coedge $-1 $185 $71 $186 $187 reversed $44 $-1 #
coedge $-1 $71 $185 $111 $184 reversed $44 $-1 #
coedge $-1 $188 $189 $71 $115 reversed $109 $-1 #
edge $-1 $190 -19.128596302642201 $191 19.128596302642201 $114 $192 forward 7 unknown #
face $-1 $193 $194 $26 $-1 $195 reversed single #
loop $-1 $-1 $122 $72 #
plane-surface $-1 0 0 7.3313540045390813 0 0 1 1 0 0 forward_v I I I I #
coedge $-1 $196 $197 $198 $199 reversed $73 $-1 #
coedge $-1 $121 $75 $200 $201 reversed $47 $-1 #
coedge $-1 $75 $120 $196 $202 reversed $47 $-1 #
coedge $-1 $198 $203 $75 $123 forward $117 $-1 #
edge $-1 $204 7.7248976722887512 $205 14.271328276559021 $122 $206 forward 7 unknown #
loop $-1 $-1 $129 $76 #
plane-surface $-1 31.498529487286021 -7.9233237038429252 27.836843882585939 0 0.70710678939079041 0.70710677298230451 1 0 0 forward_v I I I I #
loop $-1 $-1 $207 $49 #
coedge $-1 $127 $127 $128 $208 reversed $77 $-1 #
coedge $-1 $128 $128 $127 $208 forward $79 $-1 #
coedge $-1 $129 $129 $80 $130 forward $124 $-1 #
edge $-1 $209 5.8294651990167239e-023 $209 6.2831853071796004 $129 $210 forward 7 unknown #
loop $-1 $-1 $136 $81 #
plane-surface $-1 31.498529487286021 -7.9233237038429252 27.836843882585939 0 0.70710678939079041 0.70710677298230451 1 0 0 forward_v I I I I #
loop $-1 $-1 $211 $52 #
coedge $-1 $134 $134 $135 $212 reversed $82 $-1 #
coedge $-1 $135 $135 $134 $212 forward $84 $-1 #
coedge $-1 $136 $136 $85 $137 forward $131 $-1 #
edge $-1 $213 5.8294651990167239e-023 $213 6.2831853071796004 $136 $214 forward 7 unknown #
face $-1 $215 $216 $29 $-1 $217 reversed single #
loop $-1 $-1 $218 $86 #
plane-surface $-1 -33.615130237105639 -95.359070126612778 45.919052409798908 1 0 0 0 0.87461971476443456 -0.48480960649040278 forward_v I I I I #
coedge $-1 $219 $220 $221 $222 reversed $87 $-1 #
coedge $-1 $143 $89 $223 $224 reversed $56 $-1 #
coedge $-1 $89 $142 $219 $225 reversed $56 $-1 #
coedge $-1 $221 $226 $89 $145 forward $227 $-1 #
edge $-1 $228 28.550938760664188 $229 30.583890226508508 $144 $230 forward 7 unknown #
loop $-1 $-1 $151 $90 #
plane-surface $-1 -24.72124955815621 -19.128596302642208 3.6638123399703915 0 -0.87461971476443456 0.48480960649040278 1 0 0 forward_v I I I I #
loop $-1 $-1 $231 $58 #
coedge $-1 $149 $149 $150 $232 reversed $91 $-1 #
coedge $-1 $150 $150 $149 $232 forward $93 $-1 #
coedge $-1 $151 $151 $94 $152 forward $146 $-1 #
edge $-1 $233 1.1143243728905352e-015 $233 6.2831853071796013 $151 $234 forward 7 unknown #
loop $-1 $-1 $158 $95 #
plane-surface $-1 -24.72124955815621 -19.128596302642208 3.6638123399703915 0 -0.87461971476443456 0.48480960649040278 1 0 0 forward_v I I I I #
loop $-1 $-1 $235 $61 #
coedge $-1 $156 $156 $157 $236 reversed $96 $-1 #
coedge $-1 $157 $157 $156 $236 forward $98 $-1 #
coedge $-1 $158 $158 $99 $159 forward $153 $-1 #
edge $-1 $237 1.1143243728905352e-015 $237 6.2831853071796013 $158 $238 forward 7 unknown #
face $-1 $239 $240 $24 $-1 $241 reversed single #
loop $-1 $-1 $242 $100 #
plane-surface $-1 -43.579210791344948 0 0 1 0 0 0 0 -1 forward_v I I I I #
coedge $-1 $243 $171 $242 $244 forward $101 $-1 #
coedge $-1 $245 $103 $243 $246 forward $65 $-1 #
coedge $-1 $103 $245 $247 $248 forward $65 $-1 #
coedge $-1 $174 $173 $103 $167 reversed $175 $-1 #
edge $-1 $249 -19.128596302642201 $250 19.128596302642201 $166 $251 forward 7 unknown #
coedge $-1 $105 $104 $252 $253 forward $41 $-1 #
coedge $-1 $254 $255 $104 $170 reversed $240 $-1 #
edge $-1 $177 -43.579210791344948 $256 43.579210791344948 $169 $257 forward 7 unknown #
coedge $-1 $163 $258 $105 $172 reversed $101 $-1 #
edge $-1 $259 -43.579210791344948 $176 43.579210791344948 $171 $260 forward 7 unknown #
coedge $-1 $166 $106 $258 $261 forward $175 $-1 #
coedge $-1 $106 $166 $254 $262 reversed $175 $-1 #
loop $-1 $-1 $173 $239 #
vertex $-1 $107 $263 #
vertex $-1 $107 $264 #
straight-curve $-1 43.579210791344948 0 7.3313540045390813 0 1 0 I I #
face $-1 $265 $266 $25 $-1 $267 reversed single #
loop $-1 $-1 $268 $108 #
plane-surface $-1 -46.841087187723438 0 0.38369075061542679 0 0 1 1 0 0 forward_v I I I I #
coedge $-1 $269 $111 $270 $271 reversed $69 $-1 #
coedge $-1 $111 $269 $188 $272 reversed $69 $-1 #
edge $-1 $190 -4.6350124291409873 $273 -0.38369075061542679 $111 $274 forward 7 unknown #
coedge $-1 $113 $112 $268 $275 forward $44 $-1 #
coedge $-1 $276 $277 $112 $187 forward $278 $-1 #
edge $-1 $279 0.38369075061542679 $191 4.6350124291409873 $186 $280 forward 7 unknown #
coedge $-1 $281 $114 $183 $272 forward $109 $-1 #
coedge $-1 $114 $281 $276 $282 forward $109 $-1 #
vertex $-1 $184 $283 #
vertex $-1 $282 $284 #
straight-curve $-1 -43.579210791344948 0 4.6350124291409873 0 -1 0 I I #
face $-1 $-1 $285 $26 $-1 $286 reversed single #
loop $-1 $-1 $287 $116 #
plane-surface $-1 43.579210791344948 0 0 -1 0 0 0 0 1 forward_v I I I I #
coedge $-1 $288 $119 $121 $202 forward $73 $-1 #
coedge $-1 $119 $288 $287 $289 reversed $73 $-1 #
coedge $-1 $290 $122 $119 $199 forward $117 $-1 #
edge $-1 $205 3.6685834395840722 $291 27.829946047701952 $198 $292 forward 7 unknown #
coedge $-1 $293 $294 $120 $201 forward $285 $-1 #
edge $-1 $295 -43.948653804718305 $204 -37.402223048537437 $200 $296 forward 7 unknown #
edge $-1 $205 28.999141552174063 $295 38.257192605284395 $121 $297 forward 7 unknown #
coedge $-1 $122 $290 $293 $298 forward $117 $-1 #
vertex $-1 $201 $299 #
vertex $-1 $123 $300 #
straight-curve $-1 19.417848183227083 26.853493974930952 7.3313540045390795 0 -1 0 I I #
coedge $-1 $207 $207 $-1 $301 reversed $126 $-1 #
edge $-1 $302 0 $302 6.2831853071796004 $127 $303 forward 7 unknown #
vertex $-1 $130 $304 #
ellipse-curve $-1 26.321094642689332 15.855381000507062 4.0581386264486428 0 0.70710678939079041 0.70710677298230451 1 0 0 1 I I #
coedge $-1 $211 $211 $-1 $305 reversed $133 $-1 #
edge $-1 $306 0 $306 6.2831853071796004 $134 $307 forward 7 unknown #
vertex $-1 $137 $308 #
ellipse-curve $-1 36.67596433188271 15.855381000507062 4.0581386264486428 0 0.70710678939079041 0.70710677298230451 1 0 0 1 I I #
face $-1 $-1 $227 $29 $-1 $309 forward single #
loop $-1 $-1 $310 $138 #
plane-surface $-1 0 -19.128596302642201 0 0 1 0 0 0 1 forward_v I I I I #
coedge $-1 $311 $312 $313 $314 reversed $139 $-1 #
coedge $-1 $315 $141 $143 $225 forward $87 $-1 #
coedge $-1 $141 $315 $311 $316 forward $87 $-1 #
coedge $-1 $313 $144 $141 $222 forward $227 $-1 #
edge $-1 $229 3.4667441001286736 $317 21.254505458027534 $221 $318 forward 7 unknown #
coedge $-1 $319 $320 $142 $224 forward $216 $-1 #
edge $-1 $321 -19.295713864929048 $228 -15.628172200360373 $223 $322 forward 7 unknown #
edge $-1 $229 -4.193298644721823 $321 -1.4708645604606407e-014 $143 $323 forward 7 unknown #
coedge $-1 $144 $313 $319 $324 forward $227 $-1 #
loop $-1 $-1 $313 $215 #
vertex $-1 $224 $325 #
vertex $-1 $145 $326 #
straight-curve $-1 -15.827368879206778 -47.679535063306389 7.3313540045390795 0 1 0 I I #
coedge $-1 $231 $231 $-1 $327 reversed $148 $-1 #
edge $-1 $328 0 $328 6.2831853071796004 $149 $329 forward 7 unknown #
vertex $-1 $152 $330 #
ellipse-curve $-1 -28.532912706277394 -18.112120569720044 5.4975831722547381 0 -0.87461971476443456 0.48480960649040278 1 0 0 1 I I #
coedge $-1 $235 $235 $-1 $331 reversed $155 $-1 #
edge $-1 $332 0 $332 6.2831853071796004 $156 $333 forward 7 unknown #
vertex $-1 $159 $334 #
ellipse-curve $-1 -20.909586410035025 -18.112120569720044 5.4975831722547381 0 -0.87461971476443456 0.48480960649040278 1 0 0 1 I I #
face $-1 $-1 $175 $24 $-1 $335 reversed single #
loop $-1 $-1 $254 $160 #
plane-surface $-1 0 19.128596302642201 0 0 -1 0 0 0 -1 forward_v I I I I #
coedge $-1 $252 $336 $163 $244 reversed $161 $-1 #
coedge $-1 $258 $163 $164 $246 reversed $101 $-1 #
edge $-1 $259 -7.3313540045390813 $337 7.3313540045390813 $242 $338 forward 7 unknown #
coedge $-1 $165 $164 $336 $339 forward $65 $-1 #
edge $-1 $250 -43.579210791344948 $337 43.579210791344948 $243 $340 forward 7 unknown #
coedge $-1 $255 $254 $165 $248 reversed $240 $-1 #
edge $-1 $341 -43.579210791344948 $249 43.579210791344948 $247 $342 forward 7 unknown #
vertex $-1 $167 $343 #
vertex $-1 $261 $344 #
straight-curve $-1 43.579210791344948 0 -7.3313540045390813 0 -1 0 I I #
coedge $-1 $345 $242 $168 $253 reversed $161 $-1 #
edge $-1 $256 -19.128596302642201 $259 19.128596302642201 $252 $346 forward 7 unknown #
coedge $-1 $247 $169 $174 $262 forward $240 $-1 #
coedge $-1 $169 $247 $345 $347 reversed $240 $-1 #
vertex $-1 $170 $348 #
straight-curve $-1 0 19.128596302642201 7.3313540045390813 -1 0 0 I I #
coedge $-1 $171 $243 $173 $261 reversed $101 $-1 #
vertex $-1 $253 $349 #
straight-curve $-1 0 -19.128596302642201 7.3313540045390813 1 0 0 I I #
edge $-1 $176 -7.3313540045390813 $250 7.3313540045390813 $173 $350 forward 7 unknown #
edge $-1 $177 -7.3313540045390813 $249 7.3313540045390813 $174 $351 forward 7 unknown #
point $-1 43.579210791344948 -19.128596302642201 7.3313540045390813 #
point $-1 43.579210791344948 19.128596302642201 7.3313540045390813 #
face $-1 $-1 $278 $25 $-1 $352 reversed single #
loop $-1 $-1 $353 $179 #
plane-surface $-1 -50.102963584101929 0 2.5093515898782073 1 0 0 0 0 -1 forward_v I I I I #
coedge $-1 $354 $270 $185 $275 reversed $180 $-1 #
coedge $-1 $183 $182 $353 $355 reversed $69 $-1 #
coedge $-1 $268 $356 $182 $271 forward $180 $-1 #
edge $-1 $357 -3.26187639637849 $273 3.26187639637849 $182 $358 forward 7 unknown #
edge $-1 $190 -3.26187639637849 $359 3.26187639637849 $183 $360 forward 7 unknown #
vertex $-1 $184 $361 #
straight-curve $-1 -43.579210791344948 19.128596302642201 0 0 0 -1 I I #
edge $-1 $279 -19.128596302642201 $273 19.128596302642201 $268 $362 forward 7 unknown #
coedge $-1 $363 $186 $189 $282 reversed $278 $-1 #
coedge $-1 $186 $363 $354 $364 reversed $278 $-1 #
loop $-1 $-1 $186 $265 #
vertex $-1 $187 $365 #
straight-curve $-1 -43.579210791344948 -19.128596302642201 0 0 0 1 I I #
coedge $-1 $189 $188 $366 $367 forward $109 $-1 #
edge $-1 $368 -3.26187639637849 $191 3.26187639637849 $276 $369 forward 7 unknown #
point $-1 -43.579210791344948 19.128596302642201 4.6350124291409873 #
point $-1 -43.579210791344948 -19.128596302642201 4.6350124291409873 #
loop $-1 $-1 $200 $193 #
plane-surface $-1 0 19.128596302642201 0 0 -1 0 0 0 -1 forward_v I I I I #
coedge $-1 $370 $371 $197 $289 forward $194 $-1 #
coedge $-1 $197 $196 $294 $372 reversed $73 $-1 #
edge $-1 $291 16.356012972120769 $373 25.614064025231102 $287 $374 forward 7 unknown #
coedge $-1 $203 $198 $371 $375 forward $117 $-1 #
vertex $-1 $375 $376 #
straight-curve $-1 15.74926474364301 12.582165698371929 7.3313540045390795 1 0 0 I I #
coedge $-1 $377 $200 $203 $298 reversed $285 $-1 #
coedge $-1 $200 $377 $288 $372 forward $285 $-1 #
vertex $-1 $201 $378 #
straight-curve $-1 19.417848183227083 19.128596302642201 44.733577053076516 0 0 1 I I #
straight-curve $-1 19.417848183227083 -7.9233237038429252 27.836843882585939 0 0.70710677298230451 -0.70710678939079041 I I #
edge $-1 $379 -43.579210791344948 $204 -19.417848183227083 $293 $380 forward 7 unknown #
point $-1 19.417848183227083 19.128596302642201 7.3313540045390813 #
point $-1 19.417848183227083 12.582165698371931 7.3313540045390795 #
edge $-1 $381 1 $381 0 $207 $-1 forward 7 unknown #
vertex $-1 $208 $382 #
ellipse-curve $-1 26.321094642689332 14.372953530882119 2.5757111912235833 0 0.70710678939079041 0.70710677298230451 1 0 0 1 I I #
point $-1 27.321094642689332 15.855381000507059 4.0581386264486392 #
edge $-1 $383 1 $383 0 $211 $-1 forward 7 unknown #
vertex $-1 $212 $384 #
ellipse-curve $-1 36.67596433188271 14.372953530882119 2.5757111912235833 0 0.70710678939079041 0.70710677298230451 1 0 0 1 I I #
point $-1 37.67596433188271 15.855381000507059 4.0581386264486392 #
plane-surface $-1 0 0 7.3313540045390813 0 0 1 1 0 0 forward_v I I I I #
coedge $-1 $320 $319 $312 $385 forward $216 $-1 #
coedge $-1 $312 $218 $220 $316 reversed $139 $-1 #
coedge $-1 $218 $311 $310 $385 reversed $139 $-1 #
coedge $-1 $226 $221 $218 $314 forward $227 $-1 #
edge $-1 $317 -30.583890226508508 $386 -28.550938760664188 $313 $387 forward 7 unknown #
coedge $-1 $220 $219 $320 $388 reversed $87 $-1 #
edge $-1 $389 1.4708645604606407e-014 $317 4.193298644721823 $311 $390 forward 7 unknown #
vertex $-1 $222 $391 #
straight-curve $-1 -12.360624779078105 -17.095644836797884 7.3313540045390813 -1 0 0 I I #
coedge $-1 $310 $223 $226 $324 reversed $216 $-1 #
coedge $-1 $223 $310 $315 $388 forward $216 $-1 #
vertex $-1 $224 $392 #
straight-curve $-1 -15.827368879206778 -19.128596302642201 22.959526204899454 0 0 1 I I #
straight-curve $-1 -15.827368879206778 -19.128596302642208 3.6638123399703915 0 -0.48480960649040278 -0.87461971476443456 I I #
edge $-1 $386 -33.615130237105639 $228 -15.827368879206778 $319 $393 forward 7 unknown #
point $-1 -15.827368879206778 -19.128596302642201 7.3313540045390813 #
point $-1 -15.827368879206778 -17.095644836797881 7.3313540045390813 #
edge $-1 $394 1 $394 0 $231 $-1 forward 7 unknown #
vertex $-1 $232 $395 #
ellipse-curve $-1 -28.532912706277394 -14.745687480154157 3.6315389088135879 0 -0.87461971476443456 0.48480960649040278 1 0 0 1 I I #
point $-1 -27.532912706277394 -18.112120569720037 5.4975831722547355 #
edge $-1 $396 1 $396 0 $235 $-1 forward 7 unknown #
vertex $-1 $236 $397 #
ellipse-curve $-1 -20.909586410035025 -14.745687480154157 3.6315389088135879 0 -0.87461971476443456 0.48480960649040278 1 0 0 1 I I #
point $-1 -19.909586410035025 -18.112120569720037 5.4975831722547355 #
plane-surface $-1 43.579210791344948 0 0 -1 0 0 0 0 1 forward_v I I I I #
coedge $-1 $242 $345 $245 $339 reversed $161 $-1 #
vertex $-1 $339 $398 #
straight-curve $-1 -43.579210791344948 -19.128596302642201 0 0 0 -1 I I #
edge $-1 $337 -19.128596302642201 $341 19.128596302642201 $336 $399 forward 7 unknown #
straight-curve $-1 0 -19.128596302642201 -7.3313540045390813 -1 0 0 I I #
vertex $-1 $248 $400 #
straight-curve $-1 0 19.128596302642201 -7.3313540045390813 1 0 0 I I #
point $-1 43.579210791344948 19.128596302642201 -7.3313540045390813 #
point $-1 43.579210791344948 -19.128596302642201 -7.3313540045390813 #
coedge $-1 $336 $252 $255 $347 forward $161 $-1 #
straight-curve $-1 -43.579210791344948 0 7.3313540045390813 0 -1 0 I I #
edge $-1 $256 -7.3313540045390813 $341 7.3313540045390813 $255 $401 forward 7 unknown #
point $-1 -43.579210791344948 19.128596302642201 7.3313540045390813 #
point $-1 -43.579210791344948 -19.128596302642201 7.3313540045390813 #
straight-curve $-1 43.579210791344948 -19.128596302642201 0 0 0 -1 I I #
straight-curve $-1 43.579210791344948 19.128596302642201 0 0 0 -1 I I #
plane-surface $-1 0 -19.128596302642201 0 0 1 0 0 0 1 forward_v I I I I #
coedge $-1 $402 $366 $269 $355 forward $266 $-1 #
coedge $-1 $356 $268 $277 $364 forward $180 $-1 #
edge $-1 $359 -2.12566083926278 $357 2.1256608392627805 $269 $403 forward 7 unknown #
coedge $-1 $270 $354 $402 $404 forward $180 $-1 #
vertex $-1 $271 $405 #
straight-curve $-1 -46.841087187723438 19.128596302642201 0.38369075061542679 1 0 0 I I #
vertex $-1 $272 $406 #
straight-curve $-1 -46.841087187723438 19.128596302642201 4.6350124291409873 -1 0 0 I I #
point $-1 -43.579210791344948 19.128596302642201 0.38369075061542679 #
straight-curve $-1 -43.579210791344948 0 0.38369075061542679 0 1 0 I I #
coedge $-1 $277 $276 $407 $408 forward $278 $-1 #
edge $-1 $279 -3.26187639637849 $409 3.26187639637849 $277 $410 forward 7 unknown #
point $-1 -43.579210791344948 -19.128596302642201 0.38369075061542679 #
coedge $-1 $353 $407 $281 $367 reversed $266 $-1 #
edge $-1 $359 -19.128596302642201 $368 19.128596302642201 $366 $411 forward 7 unknown #
vertex $-1 $367 $412 #
straight-curve $-1 -46.841087187723438 -19.128596302642201 4.6350124291409873 1 0 0 I I #
coedge $-1 $371 $287 $377 $413 reversed $194 $-1 #
coedge $-1 $287 $370 $290 $375 reversed $194 $-1 #
edge $-1 $373 -27.829946047701952 $295 -3.6685834395840722 $294 $414 forward 7 unknown #
vertex $-1 $289 $415 #
straight-curve $-1 43.579210791344948 1.0167181467989028 18.896801824489515 0 0.70710677298230462 -0.70710678939079052 I I #
edge $-1 $291 12.582165698371931 $379 19.128596302642201 $371 $416 forward 7 unknown #
point $-1 43.579210791344963 12.582165698371931 7.3313540045390795 #
coedge $-1 $294 $293 $370 $413 forward $285 $-1 #
point $-1 19.417848183227083 19.128596302642201 0.78492324835820781 #
vertex $-1 $375 $417 #
straight-curve $-1 0 19.128596302642201 7.3313540045390813 -1 0 0 I I #
vertex $-1 $301 $418 #
point $-1 27.321094642689332 14.372953530882119 2.5757111912235833 #
vertex $-1 $305 $419 #
point $-1 37.67596433188271 14.372953530882119 2.5757111912235833 #
edge $-1 $386 15.628172200360373 $389 19.295713864929048 $310 $420 forward 7 unknown #
vertex $-1 $324 $421 #
straight-curve $-1 -33.615130237105639 -47.679535063306389 7.3313540045390795 0 -1 0 I I #
edge $-1 $389 -21.254505458027534 $321 -3.4667441001286736 $320 $422 forward 7 unknown #
vertex $-1 $388 $423 #
straight-curve $-1 -33.615130237105639 -19.128596302642208 3.6638123399703915 0 0.48480960649040278 0.87461971476443456 I I #
point $-1 -33.615130237105639 -17.095644836797881 7.3313540045390813 #
point $-1 -15.827368879206778 -19.128596302642201 3.6638123399704043 #
straight-curve $-1 0 -19.128596302642201 7.3313540045390813 1 0 0 I I #
vertex $-1 $327 $424 #
point $-1 -27.532912706277394 -14.745687480154157 3.6315389088135879 #
vertex $-1 $331 $425 #
point $-1 -19.909586410035025 -14.745687480154157 3.6315389088135879 #
point $-1 -43.579210791344948 -19.128596302642201 -7.3313540045390813 #
straight-curve $-1 -43.579210791344948 0 -7.3313540045390813 0 1 0 I I #
point $-1 -43.579210791344948 19.128596302642201 -7.3313540045390813 #
straight-curve $-1 -43.579210791344948 19.128596302642201 0 0 0 -1 I I #
coedge $-1 $407 $353 $356 $404 reversed $266 $-1 #
straight-curve $-1 -50.102963584101929 19.128596302642201 2.5093515898782073 0 0 -1 I I #
edge $-1 $409 -19.128596302642201 $357 19.128596302642201 $402 $426 forward 7 unknown #
point $-1 -50.102963584101929 19.128596302642201 0.38369075061542679 #
point $-1 -50.102963584101929 19.128596302642201 4.6350124291409873 #
coedge $-1 $366 $402 $363 $408 reversed $266 $-1 #
edge $-1 $368 -2.12566083926278 $409 2.1256608392627805 $407 $427 forward 7 unknown #
vertex $-1 $404 $428 #
straight-curve $-1 -46.841087187723438 -19.128596302642201 0.38369075061542679 -1 0 0 I I #
straight-curve $-1 -50.102963584101929 0 4.6350124291409873 0 -1 0 I I #
point $-1 -50.102963584101929 -19.128596302642201 4.6350124291409873 #
edge $-1 $379 -7.3313540045390813 $373 -0.78492324835820781 $370 $429 forward 7 unknown #
straight-curve $-1 15.74926474364301 19.128596302642197 0.78492324835820959 -1 0 0 I I #
point $-1 43.579210791344963 19.128596302642201 0.78492324835820781 #
straight-curve $-1 43.579210791344948 0 7.3313540045390813 0 1 0 I I #
point $-1 43.579210791344948 19.128596302642201 7.3313540045390813 #
point $-1 26.321094642689332 13.665846741491331 1.8686044182412789 #
point $-1 36.67596433188271 13.665846741491331 1.8686044182412789 #
straight-curve $-1 -33.615130237105639 -19.128596302642201 22.959526204899454 0 0 -1 I I #
point $-1 -33.615130237105639 -19.128596302642201 7.3313540045390813 #
straight-curve $-1 -12.360624779078105 -19.128596302642201 3.6638123399704021 1 0 0 I I #
point $-1 -33.615130237105639 -19.128596302642201 3.6638123399704043 #
point $-1 -28.532912706277394 -13.871067765389721 3.1467293023231848 #
point $-1 -20.909586410035025 -13.871067765389721 3.1467293023231848 #
straight-curve $-1 -50.102963584101929 0 0.38369075061542679 0 1 0 I I #
straight-curve $-1 -50.102963584101929 -19.128596302642201 2.5093515898782073 0 0 -1 I I #
point $-1 -50.102963584101929 -19.128596302642201 0.38369075061542679 #
straight-curve $-1 43.579210791344948 19.128596302642201 0 0 0 -1 I I #
End-of-ACIS-data 