500 0 8 0           
7 Unknown 11 ACIS 5.0 NT 24 Fri Mar 26 15:26:01 1999 
-1 9.9999999999999995e-007 1e-010 
body $-1 $8 $-1 $9 #
body $-1 $10 $-1 $11 #
body $-1 $12 $-1 $13 #
body $-1 $14 $-1 $15 #
body $-1 $16 $-1 $17 #
body $-1 $18 $-1 $19 #
body $-1 $20 $-1 $21 #
body $-1 $22 $-1 $23 #
lump $-1 $-1 $24 $0 #
transform $-1 1 0 0 0 1 0 0 0 1 70.938444166386915 44.266870801689095 12.308451588095011 1 rotate no_reflect no_shear #
lump $-1 $-1 $25 $1 #
transform $-1 1 0 0 0 1 0 0 0 1 70.938444166386915 44.266870801689095 12.308451588095011 1 rotate no_reflect no_shear #
lump $-1 $-1 $26 $2 #
transform $-1 1 0 0 0 1 0 0 0 1 70.938444166386915 44.266870801689095 12.308451588095011 1 rotate no_reflect no_shear #
lump $-1 $-1 $27 $3 #
transform $-1 1 0 0 0 1 0 0 0 1 70.938444166386915 44.266870801689095 12.308451588095011 1 rotate no_reflect no_shear #
lump $-1 $-1 $28 $4 #
transform $-1 1 0 0 0 1 0 0 0 1 70.938444166386915 44.266870801689095 12.308451588095011 1 rotate no_reflect no_shear #
lump $-1 $-1 $29 $5 #
transform $-1 1 0 0 0 1 0 0 0 1 70.938444166386915 44.266870801689095 12.308451588095011 1 rotate no_reflect no_shear #
lump $-1 $-1 $30 $6 #
transform $-1 1 0 0 0 1 0 0 0 1 70.938444166386915 44.266870801689095 12.308451588095011 1 rotate no_reflect no_shear #
lump $-1 $-1 $31 $7 #
transform $-1 1 0 0 0 1 0 0 0 1 70.938444166386915 44.266870801689095 12.308451588095011 1 rotate no_reflect no_shear #
shell $-1 $-1 $-1 $32 $-1 $8 #
shell $-1 $-1 $-1 $33 $-1 $10 #
shell $-1 $-1 $-1 $34 $-1 $12 #
shell $-1 $-1 $-1 $35 $-1 $14 #
shell $-1 $-1 $-1 $36 $-1 $16 #
shell $-1 $-1 $-1 $37 $-1 $18 #
shell $-1 $-1 $-1 $38 $-1 $20 #
shell $-1 $-1 $-1 $39 $-1 $22 #
face $-1 $40 $41 $24 $-1 $42 reversed single #
face $-1 $43 $44 $25 $-1 $45 forward single #
face $-1 $46 $47 $26 $-1 $48 reversed single #
face $-1 $49 $50 $27 $-1 $51 forward single #
face $-1 $52 $53 $28 $-1 $54 forward single #
face $-1 $55 $56 $29 $-1 $57 reversed single #
face $-1 $58 $59 $30 $-1 $60 forward single #
face $-1 $61 $62 $31 $-1 $63 forward single #
face $-1 $64 $65 $24 $-1 $66 forward single #
loop $-1 $-1 $67 $32 #
plane-surface $-1 0 -44.266870801689095 0 0 1 0 0 0 1 forward_v I I I I #
face $-1 $68 $69 $25 $-1 $70 reversed single #
loop $-1 $-1 $71 $33 #
plane-surface $-1 0 -44.266870801689095 0 0 1 0 0 0 1 forward_v I I I I #
face $-1 $72 $73 $26 $-1 $74 reversed single #
loop $-1 $-1 $75 $34 #
plane-surface $-1 102.32611809267542 5.6458665584877821 198.23730579155233 0 -1 0 -0.80901700255871778 0 -0.5877852410284794 forward_v I I I I #
face $-1 $76 $77 $27 $-1 $78 forward single #
loop $-1 $79 $80 $35 #
cone-surface $-1 64.85850017597636 -4.8615377725627411 5.0004372508816646 -0.80901700255871778 0 -0.5877852410284794 0.8816778615427191 0 -1.2135255038380768 1 I I 0 1 1.5 forward I I I I #
face $-1 $81 $82 $28 $-1 $83 forward single #
loop $-1 $84 $85 $36 #
cone-surface $-1 64.85850017597636 1.4429048260675685 5.0004372508816646 -0.80901700255871778 0 -0.5877852410284794 0.8816778615427191 0 -1.2135255038380768 1 I I 0 1 1.5 forward I I I I #
face $-1 $86 $87 $29 $-1 $88 reversed single #
loop $-1 $-1 $89 $37 #
plane-surface $-1 -185.71925909772554 -9.0644995049829475 83.456490860213719 0 1 0 -0.80901700255871778 0 0.5877852410284794 forward_v I I I I #
face $-1 $90 $91 $30 $-1 $92 forward single #
loop $-1 $93 $94 $38 #
cone-surface $-1 -64.85850017597636 -4.8615377725627411 5.0004372508816664 0.80901700255871778 0 -0.5877852410284794 0.8816778615427191 0 1.2135255038380768 1 I I 0 1 1.5 forward I I I I #
face $-1 $95 $96 $31 $-1 $97 forward single #
loop $-1 $98 $99 $39 #
cone-surface $-1 -64.85850017597636 1.4429048260675685 5.0004372508816664 0.80901700255871778 0 -0.5877852410284794 0.8816778615427191 0 1.2135255038380768 1 I I 0 1 1.5 forward I I I I #
face $-1 $100 $101 $24 $-1 $102 reversed single #
loop $-1 $-1 $103 $40 #
plane-surface $-1 0 0 12.308451588095011 0 0 1 1 0 0 forward_v I I I I #
coedge $-1 $104 $105 $106 $107 reversed $41 $-1 #
face $-1 $108 $109 $25 $-1 $110 reversed single #
loop $-1 $-1 $111 $43 #
plane-surface $-1 0 0 -12.308451588095011 0 0 1 1 0 0 forward_v I I I I #
coedge $-1 $112 $113 $114 $115 forward $44 $-1 #
face $-1 $116 $117 $26 $-1 $118 reversed single #
loop $-1 $-1 $119 $46 #
plane-surface $-1 -12.454696838663182 -1.7093164732475827 114.8441647865022 0.80901700255871778 0 0.5877852410284794 0.5877852410284794 0 -0.80901700255871778 forward_v I I I I #
coedge $-1 $120 $121 $122 $123 reversed $47 $-1 #
face $-1 $-1 $124 $27 $-1 $125 forward single #
loop $-1 $126 $127 $49 #
cone-surface $-1 62.62008688776794 -4.8615377725627411 3.3741348493626759 -0.80901700255871778 0 -0.5877852410284794 0.44083893077135955 0 -0.60676275191903839 1 I I -0.70710678118654768 0.70710678118654735 0.75 forward I I I I #
loop $-1 $-1 $128 $35 #
coedge $-1 $80 $80 $129 $130 reversed $50 $-1 #
face $-1 $-1 $131 $28 $-1 $132 forward single #
loop $-1 $133 $134 $52 #
cone-surface $-1 62.62008688776794 1.4429048260675685 3.3741348493626759 -0.80901700255871778 0 -0.5877852410284794 0.44083893077135955 0 -0.60676275191903839 1 I I -0.70710678118654768 0.70710678118654735 0.75 forward I I I I #
loop $-1 $-1 $135 $36 #
coedge $-1 $85 $85 $136 $137 reversed $53 $-1 #
face $-1 $138 $139 $29 $-1 $140 reversed single #
loop $-1 $-1 $141 $55 #
plane-surface $-1 -70.938444166386944 -1.7093164732475827 0.063349855163593816 -0.80901700255871778 0 0.5877852410284794 0.5877852410284794 0 0.80901700255871778 forward_v I I I I #
coedge $-1 $142 $143 $144 $145 reversed $56 $-1 #
face $-1 $-1 $146 $30 $-1 $147 forward single #
loop $-1 $148 $149 $58 #
cone-surface $-1 -62.620086887767947 -4.8615377725627411 3.3741348493626777 0.80901700255871778 0 -0.5877852410284794 0.44083893077135955 0 0.60676275191903839 1 I I -0.70710678118654768 0.70710678118654735 0.75 forward I I I I #
loop $-1 $-1 $150 $38 #
coedge $-1 $94 $94 $151 $152 reversed $59 $-1 #
face $-1 $-1 $153 $31 $-1 $154 forward single #
loop $-1 $155 $156 $61 #
cone-surface $-1 -62.620086887767947 1.4429048260675685 3.3741348493626777 0.80901700255871778 0 -0.5877852410284794 0.44083893077135955 0 0.60676275191903839 1 I I -0.70710678118654768 0.70710678118654735 0.75 forward I I I I #
loop $-1 $-1 $157 $39 #
coedge $-1 $99 $99 $158 $159 reversed $62 $-1 #
face $-1 $160 $161 $24 $-1 $162 reversed single #
loop $-1 $-1 $163 $64 #
plane-surface $-1 0 0 -12.308451588095011 0 0 1 1 0 0 forward_v I I I I #
coedge $-1 $164 $165 $166 $167 forward $65 $-1 #
coedge $-1 $168 $67 $169 $170 reversed $41 $-1 #
coedge $-1 $67 $168 $171 $172 forward $41 $-1 #
coedge $-1 $173 $163 $67 $107 forward $101 $-1 #
edge $-1 $174 -70.938444166386915 $175 70.938444166386915 $67 $176 forward 7 unknown #
face $-1 $177 $178 $25 $-1 $179 reversed single #
loop $-1 $-1 $180 $68 #
plane-surface $-1 -48.187135179847274 -59.292527552804088 0 0 1 0 0 0 1 forward_v I I I I #
coedge $-1 $181 $182 $113 $183 forward $69 $-1 #
coedge $-1 $184 $71 $185 $186 reversed $44 $-1 #
coedge $-1 $71 $184 $111 $183 reversed $44 $-1 #
coedge $-1 $187 $188 $71 $115 reversed $178 $-1 #
edge $-1 $189 -12.308451588095011 $190 12.308451588095011 $114 $191 forward 7 unknown #
face $-1 $192 $193 $26 $-1 $194 forward single #
loop $-1 $-1 $195 $72 #
plane-surface $-1 102.32611809267542 -9.0644995049829475 198.23730579155233 0 1 0 0.80901700255871778 0 0.5877852410284794 forward_v I I I I #
coedge $-1 $196 $197 $198 $199 reversed $73 $-1 #
coedge $-1 $121 $75 $200 $201 reversed $47 $-1 #
coedge $-1 $75 $120 $196 $202 reversed $47 $-1 #
coedge $-1 $198 $203 $75 $123 forward $193 $-1 #
edge $-1 $204 -19.775385120049208 $205 -10.87879821180691 $122 $206 forward 7 unknown #
loop $-1 $-1 $129 $76 #
plane-surface $-1 -12.454696838663182 -1.7093164732475827 114.8441647865022 0.80901700255871778 0 0.5877852410284794 0.5877852410284794 0 -0.80901700255871778 forward_v I I I I #
loop $-1 $-1 $207 $49 #
coedge $-1 $127 $127 $128 $208 reversed $77 $-1 #
coedge $-1 $128 $128 $127 $208 forward $79 $-1 #
coedge $-1 $129 $129 $80 $130 forward $124 $-1 #
edge $-1 $209 0 $209 6.2831853071796004 $129 $210 forward 7 unknown #
loop $-1 $-1 $136 $81 #
plane-surface $-1 -12.454696838663182 -1.7093164732475827 114.8441647865022 0.80901700255871778 0 0.5877852410284794 0.5877852410284794 0 -0.80901700255871778 forward_v I I I I #
loop $-1 $-1 $211 $52 #
coedge $-1 $134 $134 $135 $212 reversed $82 $-1 #
coedge $-1 $135 $135 $134 $212 forward $84 $-1 #
coedge $-1 $136 $136 $85 $137 forward $131 $-1 #
edge $-1 $213 0 $213 6.2831853071796004 $136 $214 forward 7 unknown #
face $-1 $215 $216 $29 $-1 $217 reversed single #
loop $-1 $-1 $218 $86 #
plane-surface $-1 -185.71925909772554 5.6458665584877821 83.456490860213719 0 -1 0 0.80901700255871778 0 -0.5877852410284794 forward_v I I I I #
coedge $-1 $219 $220 $221 $222 reversed $87 $-1 #
coedge $-1 $143 $89 $223 $224 reversed $56 $-1 #
coedge $-1 $89 $142 $219 $225 reversed $56 $-1 #
coedge $-1 $221 $226 $89 $145 forward $227 $-1 #
edge $-1 $228 21.921185382475855 $229 30.81777229071816 $144 $230 forward 7 unknown #
loop $-1 $-1 $151 $90 #
plane-surface $-1 -70.938444166386944 -1.7093164732475827 0.063349855163593816 -0.80901700255871778 0 0.5877852410284794 0.5877852410284794 0 0.80901700255871778 forward_v I I I I #
loop $-1 $-1 $231 $58 #
coedge $-1 $149 $149 $150 $232 reversed $91 $-1 #
coedge $-1 $150 $150 $149 $232 forward $93 $-1 #
coedge $-1 $151 $151 $94 $152 forward $146 $-1 #
edge $-1 $233 0 $233 6.2831853071796004 $151 $234 forward 7 unknown #
loop $-1 $-1 $158 $95 #
plane-surface $-1 -70.938444166386944 -1.7093164732475827 0.063349855163593816 -0.80901700255871778 0 0.5877852410284794 0.5877852410284794 0 0.80901700255871778 forward_v I I I I #
loop $-1 $-1 $235 $61 #
coedge $-1 $156 $156 $157 $236 reversed $96 $-1 #
coedge $-1 $157 $157 $156 $236 forward $98 $-1 #
coedge $-1 $158 $158 $99 $159 forward $153 $-1 #
edge $-1 $237 0 $237 6.2831853071796004 $158 $238 forward 7 unknown #
face $-1 $239 $240 $24 $-1 $241 reversed single #
loop $-1 $-1 $242 $100 #
plane-surface $-1 -70.938444166386915 0 0 1 0 0 0 0 -1 forward_v I I I I #
coedge $-1 $106 $243 $244 $245 forward $101 $-1 #
coedge $-1 $246 $103 $247 $248 forward $65 $-1 #
coedge $-1 $103 $246 $168 $249 forward $65 $-1 #
coedge $-1 $169 $250 $103 $167 reversed $251 $-1 #
edge $-1 $252 -44.266870801689095 $253 44.266870801689095 $166 $254 forward 7 unknown #
coedge $-1 $105 $104 $165 $249 reversed $41 $-1 #
coedge $-1 $244 $166 $104 $170 forward $251 $-1 #
edge $-1 $252 -12.308451588095011 $174 12.308451588095011 $169 $255 forward 7 unknown #
coedge $-1 $256 $257 $105 $172 reversed $161 $-1 #
edge $-1 $258 -12.308451588095011 $175 12.308451588095011 $171 $259 forward 7 unknown #
coedge $-1 $243 $106 $257 $260 forward $101 $-1 #
vertex $-1 $170 $261 #
vertex $-1 $260 $262 #
straight-curve $-1 0 -44.266870801689095 -12.308451588095011 -1 0 0 I I #
face $-1 $263 $264 $25 $-1 $265 reversed single #
loop $-1 $-1 $114 $108 #
plane-surface $-1 -50.052729369497655 -51.779699177246592 0 1 0 0 0 0 -1 forward_v I I I I #
coedge $-1 $266 $267 $268 $269 forward $109 $-1 #
coedge $-1 $270 $111 $271 $272 forward $69 $-1 #
coedge $-1 $111 $270 $187 $273 forward $69 $-1 #
edge $-1 $189 -50.052729369497655 $274 -46.321540990196894 $111 $275 forward 7 unknown #
coedge $-1 $113 $112 $276 $277 forward $44 $-1 #
coedge $-1 $278 $279 $112 $186 forward $280 $-1 #
edge $-1 $281 46.321540990196894 $190 50.052729369497655 $185 $282 forward 7 unknown #
coedge $-1 $268 $114 $182 $273 reversed $178 $-1 #
coedge $-1 $114 $268 $278 $283 reversed $178 $-1 #
vertex $-1 $183 $284 #
vertex $-1 $283 $285 #
straight-curve $-1 -50.052729369497655 -44.266870801689095 0 0 0 1 I I #
face $-1 $-1 $286 $26 $-1 $287 reversed single #
loop $-1 $-1 $122 $116 #
plane-surface $-1 0 0 12.308451588095011 0 0 1 1 0 0 forward_v I I I I #
coedge $-1 $288 $289 $290 $291 reversed $117 $-1 #
coedge $-1 $292 $119 $121 $202 forward $73 $-1 #
coedge $-1 $119 $292 $288 $293 forward $73 $-1 #
coedge $-1 $290 $122 $119 $199 forward $193 $-1 #
edge $-1 $205 -6.5005247951115734 $294 8.2098412683591562 $198 $295 forward 7 unknown #
coedge $-1 $296 $297 $120 $201 forward $286 $-1 #
edge $-1 $298 -99.055303040612515 $204 -86.810201307681155 $200 $299 forward 7 unknown #
edge $-1 $205 126.74111035257908 $298 141.87688833277377 $121 $300 forward 7 unknown #
coedge $-1 $122 $290 $296 $301 forward $193 $-1 #
vertex $-1 $123 $302 #
vertex $-1 $123 $303 #
straight-curve $-1 51.163059046337708 5.6458665584877821 12.308451588095011 -1 0 0 I I #
coedge $-1 $207 $207 $-1 $304 reversed $126 $-1 #
edge $-1 $305 0 $305 6.2831853071796004 $127 $306 forward 7 unknown #
vertex $-1 $130 $307 #
ellipse-curve $-1 66.490150712265773 -4.8615377725627411 6.1859007216293147 0.80901700255871778 0 0.5877852410284794 0.8816778615427191 0 -1.2135255038380768 1 I I #
coedge $-1 $211 $211 $-1 $308 reversed $133 $-1 #
edge $-1 $309 0 $309 6.2831853071796004 $134 $310 forward 7 unknown #
vertex $-1 $137 $311 #
ellipse-curve $-1 66.490150712265773 1.4429048260675685 6.1859007216293147 0.80901700255871778 0 0.5877852410284794 0.8816778615427191 0 -1.2135255038380768 1 I I #
face $-1 $-1 $227 $29 $-1 $312 forward single #
loop $-1 $-1 $313 $138 #
plane-surface $-1 -70.938444166386915 0 0 1 0 0 0 0 -1 forward_v I I I I #
coedge $-1 $314 $315 $316 $317 reversed $139 $-1 #
coedge $-1 $318 $141 $143 $225 forward $87 $-1 #
coedge $-1 $141 $318 $314 $319 forward $87 $-1 #
coedge $-1 $316 $144 $141 $222 forward $227 $-1 #
edge $-1 $229 -8.2098412683591562 $320 6.5005247951115734 $221 $321 forward 7 unknown #
coedge $-1 $322 $323 $142 $224 forward $216 $-1 #
edge $-1 $324 -41.664895574943223 $228 -29.419793842011849 $223 $325 forward 7 unknown #
edge $-1 $229 -15.135777980194771 $324 -4.8355806911972601e-014 $143 $326 forward 7 unknown #
coedge $-1 $144 $316 $322 $327 forward $227 $-1 #
loop $-1 $-1 $316 $215 #
vertex $-1 $224 $328 #
vertex $-1 $145 $329 #
straight-curve $-1 -92.85962954886277 -9.0644995049829475 12.308451588095011 1 0 0 I I #
coedge $-1 $231 $231 $-1 $330 reversed $148 $-1 #
edge $-1 $331 0 $331 6.2831853071796004 $149 $332 forward 7 unknown #
vertex $-1 $152 $333 #
ellipse-curve $-1 -66.490150712265773 -4.8615377725627411 6.1859007216293147 -0.80901700255871778 0 0.5877852410284794 0.8816778615427191 0 1.2135255038380768 1 I I #
coedge $-1 $235 $235 $-1 $334 reversed $155 $-1 #
edge $-1 $335 0 $335 6.2831853071796004 $156 $336 forward 7 unknown #
vertex $-1 $159 $337 #
ellipse-curve $-1 -66.490150712265773 1.4429048260675685 6.1859007216293147 -0.80901700255871778 0 0.5877852410284794 0.8816778615427191 0 1.2135255038380768 1 I I #
face $-1 $-1 $251 $24 $-1 $338 reversed single #
loop $-1 $-1 $339 $160 #
plane-surface $-1 0 44.266870801689095 0 0 -1 0 0 0 -1 forward_v I I I I #
coedge $-1 $257 $256 $340 $341 forward $161 $-1 #
coedge $-1 $163 $173 $342 $343 forward $101 $-1 #
coedge $-1 $250 $169 $163 $245 reversed $251 $-1 #
edge $-1 $344 -44.266870801689095 $174 44.266870801689095 $244 $345 forward 7 unknown #
coedge $-1 $165 $164 $256 $346 forward $65 $-1 #
coedge $-1 $339 $340 $164 $248 reversed $240 $-1 #
edge $-1 $253 -70.938444166386915 $347 70.938444166386915 $247 $348 forward 7 unknown #
edge $-1 $258 -70.938444166386915 $252 70.938444166386915 $168 $349 forward 7 unknown #
coedge $-1 $166 $244 $339 $350 reversed $251 $-1 #
loop $-1 $-1 $169 $239 #
vertex $-1 $167 $351 #
vertex $-1 $167 $352 #
straight-curve $-1 70.938444166386915 0 12.308451588095011 0 1 0 I I #
straight-curve $-1 70.938444166386915 -44.266870801689095 0 0 0 -1 I I #
coedge $-1 $242 $171 $246 $346 reversed $161 $-1 #
coedge $-1 $171 $242 $173 $260 reversed $161 $-1 #
vertex $-1 $346 $353 #
straight-curve $-1 -70.938444166386915 -44.266870801689095 0 0 0 -1 I I #
edge $-1 $175 -44.266870801689095 $354 44.266870801689095 $257 $355 forward 7 unknown #
point $-1 70.938444166386915 -44.266870801689095 -12.308451588095011 #
point $-1 -70.938444166386915 -44.266870801689095 -12.308451588095011 #
face $-1 $-1 $280 $25 $-1 $356 forward single #
loop $-1 $-1 $357 $177 #
plane-surface $-1 -46.321540990196894 -51.779699177246592 0 -1 0 0 0 0 1 forward_v I I I I #
coedge $-1 $358 $180 $270 $359 reversed $109 $-1 #
coedge $-1 $180 $358 $360 $361 reversed $109 $-1 #
coedge $-1 $188 $187 $180 $269 reversed $178 $-1 #
edge $-1 $362 -12.308451588095011 $363 12.308451588095011 $268 $364 forward 7 unknown #
coedge $-1 $182 $181 $266 $359 forward $69 $-1 #
coedge $-1 $276 $357 $181 $272 reversed $264 $-1 #
edge $-1 $274 -7.5128283755574969 $365 7.5128283755574969 $271 $366 forward 7 unknown #
edge $-1 $363 -7.5128283755574969 $189 7.5128283755574969 $187 $367 forward 7 unknown #
vertex $-1 $272 $368 #
straight-curve $-1 0 -44.266870801689095 -12.308451588095011 1 0 0 I I #
coedge $-1 $369 $271 $184 $277 reversed $264 $-1 #
edge $-1 $281 -12.308451588095011 $274 12.308451588095011 $276 $370 forward 7 unknown #
coedge $-1 $360 $185 $188 $283 forward $280 $-1 #
coedge $-1 $185 $360 $369 $371 forward $280 $-1 #
loop $-1 $-1 $185 $263 #
vertex $-1 $186 $372 #
straight-curve $-1 0 -44.266870801689095 12.308451588095011 -1 0 0 I I #
edge $-1 $190 -7.5128283755574969 $362 7.5128283755574969 $188 $373 forward 7 unknown #
point $-1 -50.052729369497655 -44.266870801689095 -12.308451588095011 #
point $-1 -50.052729369497655 -44.266870801689095 12.308451588095011 #
loop $-1 $-1 $200 $192 #
plane-surface $-1 70.938444166386915 0 0 -1 0 0 0 0 1 forward_v I I I I #
coedge $-1 $289 $195 $197 $293 reversed $117 $-1 #
coedge $-1 $195 $288 $374 $375 reversed $117 $-1 #
coedge $-1 $203 $198 $195 $291 forward $193 $-1 #
edge $-1 $294 10.87879821180691 $376 19.775385120049208 $290 $377 forward 7 unknown #
coedge $-1 $197 $196 $297 $378 reversed $73 $-1 #
edge $-1 $379 -141.87688833277377 $294 -126.74111035257908 $288 $380 forward 7 unknown #
vertex $-1 $199 $381 #
straight-curve $-1 62.041857258144617 -0.85465823662379137 12.308451588095011 0 -1 0 I I #
coedge $-1 $374 $200 $203 $301 reversed $286 $-1 #
coedge $-1 $200 $374 $292 $378 forward $286 $-1 #
vertex $-1 $201 $382 #
straight-curve $-1 70.938444166386915 5.6458665584877821 99.118652895776165 0 0 1 I I #
straight-curve $-1 -12.454696838663182 5.6458665584877821 114.8441647865022 0.5877852410284794 0 -0.80901700255871778 I I #
edge $-1 $376 -9.0644995049829475 $204 5.6458665584877821 $296 $383 forward 7 unknown #
point $-1 70.938444166386915 5.6458665584877821 12.308451588095011 #
point $-1 62.041857258144617 5.6458665584877821 12.308451588095011 #
edge $-1 $384 1 $384 0 $207 $-1 forward 7 unknown #
vertex $-1 $208 $385 #
ellipse-curve $-1 63.226849639686975 -4.8615377725627411 3.8149737801340353 0.80901700255871778 0 0.5877852410284794 0.8816778615427191 0 -1.2135255038380768 1 I I #
point $-1 67.371828573808457 -4.8615377725627411 4.9723752177912175 #
edge $-1 $386 1 $386 0 $211 $-1 forward 7 unknown #
vertex $-1 $212 $387 #
ellipse-curve $-1 63.226849639686975 1.4429048260675685 3.8149737801340353 0.80901700255871778 0 0.5877852410284794 0.8816778615427191 0 -1.2135255038380768 1 I I #
point $-1 67.371828573808457 1.4429048260675685 4.9723752177912175 #
plane-surface $-1 0 0 12.308451588095011 0 0 1 1 0 0 forward_v I I I I #
coedge $-1 $323 $322 $315 $388 forward $216 $-1 #
coedge $-1 $315 $218 $220 $319 reversed $139 $-1 #
coedge $-1 $218 $314 $313 $388 reversed $139 $-1 #
coedge $-1 $226 $221 $218 $317 forward $227 $-1 #
edge $-1 $320 -30.81777229071816 $389 -21.921185382475855 $316 $390 forward 7 unknown #
coedge $-1 $220 $219 $323 $391 reversed $87 $-1 #
edge $-1 $392 4.8355806911972601e-014 $320 15.135777980194771 $314 $393 forward 7 unknown #
vertex $-1 $222 $394 #
straight-curve $-1 -62.04185725814461 -0.85465823662379137 12.308451588095011 0 1 0 I I #
coedge $-1 $313 $223 $226 $327 reversed $216 $-1 #
coedge $-1 $223 $313 $318 $391 forward $216 $-1 #
vertex $-1 $224 $395 #
straight-curve $-1 -70.938444166386915 -9.0644995049829475 41.72824543010686 0 0 1 I I #
straight-curve $-1 -70.938444166386944 -9.0644995049829475 0.063349855163593816 -0.5877852410284794 0 -0.80901700255871778 I I #
edge $-1 $389 -5.6458665584877821 $228 9.0644995049829475 $322 $396 forward 7 unknown #
point $-1 -70.938444166386915 -9.0644995049829475 12.308451588095011 #
point $-1 -62.04185725814461 -9.0644995049829475 12.308451588095011 #
edge $-1 $397 1 $397 0 $231 $-1 forward 7 unknown #
vertex $-1 $232 $398 #
ellipse-curve $-1 -63.226849639686982 -4.8615377725627411 3.8149737801340371 -0.80901700255871778 0 0.5877852410284794 0.8816778615427191 0 1.2135255038380768 1 I I #
point $-1 -65.608472850723032 -4.8615377725627411 7.3994262254673728 #
edge $-1 $399 1 $399 0 $235 $-1 forward 7 unknown #
vertex $-1 $236 $400 #
ellipse-curve $-1 -63.226849639686982 1.4429048260675685 3.8149737801340371 -0.80901700255871778 0 0.5877852410284794 0.8816778615427191 0 1.2135255038380768 1 I I #
point $-1 -65.608472850723032 1.4429048260675685 7.3994262254673728 #
plane-surface $-1 70.938444166386915 0 0 -1 0 0 0 0 1 forward_v I I I I #
coedge $-1 $342 $247 $250 $350 forward $240 $-1 #
coedge $-1 $247 $342 $242 $341 reversed $240 $-1 #
edge $-1 $347 -12.308451588095011 $354 12.308451588095011 $340 $401 forward 7 unknown #
coedge $-1 $340 $339 $243 $343 reversed $240 $-1 #
edge $-1 $354 -70.938444166386915 $344 70.938444166386915 $342 $402 forward 7 unknown #
vertex $-1 $245 $403 #
straight-curve $-1 70.938444166386915 0 -12.308451588095011 0 -1 0 I I #
edge $-1 $347 -44.266870801689095 $258 44.266870801689095 $256 $404 forward 7 unknown #
vertex $-1 $248 $405 #
straight-curve $-1 0 44.266870801689095 12.308451588095011 -1 0 0 I I #
straight-curve $-1 0 -44.266870801689095 12.308451588095011 1 0 0 I I #
edge $-1 $253 -12.308451588095011 $344 12.308451588095011 $250 $406 forward 7 unknown #
point $-1 70.938444166386915 -44.266870801689095 12.308451588095011 #
point $-1 70.938444166386915 44.266870801689095 12.308451588095011 #
point $-1 -70.938444166386915 -44.266870801689095 12.308451588095011 #
vertex $-1 $343 $407 #
straight-curve $-1 -70.938444166386915 0 -12.308451588095011 0 1 0 I I #
plane-surface $-1 0 0 12.308451588095011 0 0 1 1 0 0 forward_v I I I I #
coedge $-1 $271 $369 $358 $408 forward $264 $-1 #
coedge $-1 $267 $266 $357 $408 reversed $109 $-1 #
edge $-1 $365 -1.8655941896503805 $363 1.8655941896503805 $266 $409 forward 7 unknown #
coedge $-1 $279 $278 $267 $361 forward $280 $-1 #
edge $-1 $362 -1.8655941896503805 $410 1.8655941896503805 $267 $411 forward 7 unknown #
vertex $-1 $283 $412 #
vertex $-1 $273 $413 #
straight-curve $-1 -50.052729369497655 -59.292527552804088 0 0 0 -1 I I #
vertex $-1 $408 $414 #
straight-curve $-1 -46.321540990196894 -51.779699177246592 -12.308451588095011 0 -1 0 I I #
straight-curve $-1 -50.052729369497655 -51.779699177246592 -12.308451588095011 0 1 0 I I #
point $-1 -46.321540990196894 -44.266870801689095 -12.308451588095011 #
coedge $-1 $357 $276 $279 $371 reversed $264 $-1 #
straight-curve $-1 -46.321540990196894 -44.266870801689095 0 0 0 -1 I I #
edge $-1 $410 -7.5128283755574969 $281 7.5128283755574969 $369 $415 forward 7 unknown #
point $-1 -46.321540990196894 -44.266870801689095 12.308451588095011 #
straight-curve $-1 -50.052729369497655 -51.779699177246592 12.308451588095011 0 -1 0 I I #
coedge $-1 $297 $296 $289 $375 forward $286 $-1 #
edge $-1 $376 86.810201307681155 $379 99.055303040612515 $374 $416 forward 7 unknown #
vertex $-1 $301 $417 #
straight-curve $-1 51.163059046337708 -9.0644995049829475 12.308451588095011 1 0 0 I I #
edge $-1 $379 -8.2098412683591562 $298 6.5005247951115734 $297 $418 forward 7 unknown #
vertex $-1 $378 $419 #
straight-curve $-1 -12.454696838663182 -9.0644995049829475 114.8441647865022 -0.5877852410284794 0 0.80901700255871778 I I #
point $-1 62.041857258144617 -9.0644995049829475 12.308451588095011 #
point $-1 70.938444166386901 5.6458665584877821 0.063349855163650659 #
straight-curve $-1 70.938444166386915 0 12.308451588095011 0 1 0 I I #
vertex $-1 $304 $420 #
point $-1 64.108527501229702 -4.8615377725627411 2.6014482762959585 #
vertex $-1 $308 $421 #
point $-1 64.108527501229702 1.4429048260675685 2.6014482762959585 #
edge $-1 $389 29.419793842011849 $392 41.664895574943223 $313 $422 forward 7 unknown #
vertex $-1 $327 $423 #
straight-curve $-1 -92.85962954886277 5.6458665584877821 12.308451588095011 -1 0 0 I I #
edge $-1 $392 -6.5005247951115734 $324 8.2098412683591562 $323 $424 forward 7 unknown #
vertex $-1 $391 $425 #
straight-curve $-1 -70.938444166386944 5.6458665584877821 0.063349855163593816 0.5877852410284794 0 0.80901700255871778 I I #
point $-1 -62.04185725814461 5.6458665584877821 12.308451588095011 #
point $-1 -70.938444166386915 -9.0644995049829475 0.063349855163632937 #
straight-curve $-1 -70.938444166386915 0 12.308451588095011 0 -1 0 I I #
vertex $-1 $330 $426 #
point $-1 -62.345171778144262 -4.8615377725627411 5.0284992839721134 #
vertex $-1 $334 $427 #
point $-1 -62.345171778144262 1.4429048260675685 5.0284992839721134 #
straight-curve $-1 -70.938444166386915 44.266870801689095 0 0 0 -1 I I #
straight-curve $-1 0 44.266870801689095 -12.308451588095011 1 0 0 I I #
point $-1 70.938444166386915 44.266870801689095 -12.308451588095011 #
straight-curve $-1 -70.938444166386915 0 12.308451588095011 0 -1 0 I I #
point $-1 -70.938444166386915 44.266870801689095 12.308451588095011 #
straight-curve $-1 70.938444166386915 44.266870801689095 0 0 0 -1 I I #
point $-1 -70.938444166386915 44.266870801689095 -12.308451588095011 #
edge $-1 $410 -12.308451588095011 $365 12.308451588095011 $357 $428 forward 7 unknown #
straight-curve $-1 -48.187135179847274 -59.292527552804088 -12.308451588095011 -1 0 0 I I #
vertex $-1 $371 $429 #
straight-curve $-1 -48.187135179847274 -59.292527552804088 12.308451588095011 1 0 0 I I #
point $-1 -50.052729369497655 -59.292527552804088 12.308451588095011 #
point $-1 -50.052729369497655 -59.292527552804088 -12.308451588095011 #
point $-1 -46.321540990196894 -59.292527552804088 -12.308451588095011 #
straight-curve $-1 -46.321540990196894 -51.779699177246592 12.308451588095011 0 1 0 I I #
straight-curve $-1 70.938444166386915 -9.0644995049829475 99.118652895776165 0 0 -1 I I #
point $-1 70.938444166386915 -9.0644995049829475 12.308451588095011 #
straight-curve $-1 70.938444166386915 -0.85465823662379137 0.063349855163636448 0 1 0 I I #
point $-1 70.938444166386901 -9.0644995049829475 0.063349855163650659 #
point $-1 62.013324135848904 -4.8615377725627411 2.9332959185913166 #
point $-1 62.013324135848904 1.4429048260675685 2.9332959185913166 #
straight-curve $-1 -70.938444166386915 5.6458665584877821 41.72824543010686 0 0 -1 I I #
point $-1 -70.938444166386915 5.6458665584877821 12.308451588095011 #
straight-curve $-1 -70.938444166386915 -0.85465823662379137 0.063349855163626984 0 -1 0 I I #
point $-1 -70.938444166386915 5.6458665584877821 0.063349855163632937 #
point $-1 -62.013324135848912 -4.8615377725627411 2.9332959185913183 #
point $-1 -62.013324135848912 1.4429048260675685 2.9332959185913183 #
straight-curve $-1 -46.321540990196894 -59.292527552804088 0 0 0 -1 I I #
point $-1 -46.321540990196894 -59.292527552804088 12.308451588095011 #
End-of-ACIS-data 