500 0 21 0           
7 Unknown 11 ACIS 5.0 NT 24 Thu Mar 25 22:27:17 1999 
-1 9.9999999999999995e-007 1e-010 
body $-1 $21 $-1 $22 #
body $-1 $23 $-1 $24 #
body $-1 $25 $-1 $26 #
body $-1 $27 $-1 $28 #
body $-1 $29 $-1 $30 #
body $-1 $31 $-1 $32 #
body $-1 $33 $-1 $34 #
body $-1 $35 $-1 $36 #
body $-1 $37 $-1 $38 #
body $-1 $39 $-1 $40 #
body $-1 $41 $-1 $42 #
body $-1 $43 $-1 $44 #
body $-1 $45 $-1 $46 #
body $-1 $47 $-1 $48 #
body $-1 $49 $-1 $50 #
body $-1 $51 $-1 $52 #
body $-1 $53 $-1 $54 #
body $-1 $55 $-1 $56 #
body $-1 $57 $-1 $58 #
body $-1 $59 $-1 $60 #
body $-1 $61 $-1 $62 #
lump $-1 $-1 $63 $0 #
transform $-1 1 0 0 0 1 0 0 0 1 78.813440351573234 50.472640004439924 10.2789078650358 1 rotate no_reflect no_shear #
lump $-1 $-1 $64 $1 #
transform $-1 1 0 0 0 1 0 0 0 1 78.813440351573234 50.472640004439924 10.2789078650358 1 rotate no_reflect no_shear #
lump $-1 $-1 $65 $2 #
transform $-1 1 0 0 0 1 0 0 0 1 78.813440351573234 50.472640004439924 10.2789078650358 1 rotate no_reflect no_shear #
lump $-1 $-1 $66 $3 #
transform $-1 1 0 0 0 1 0 0 0 1 78.813440351573234 50.472640004439924 10.2789078650358 1 rotate no_reflect no_shear #
lump $-1 $-1 $67 $4 #
transform $-1 1 0 0 0 1 0 0 0 1 78.813440351573234 50.472640004439924 10.2789078650358 1 rotate no_reflect no_shear #
lump $-1 $-1 $68 $5 #
transform $-1 1 0 0 0 1 0 0 0 1 78.813440351573234 50.472640004439924 10.2789078650358 1 rotate no_reflect no_shear #
lump $-1 $-1 $69 $6 #
transform $-1 1 0 0 0 1 0 0 0 1 78.813440351573234 50.472640004439924 10.2789078650358 1 rotate no_reflect no_shear #
lump $-1 $-1 $70 $7 #
transform $-1 1 0 0 0 1 0 0 0 1 78.813440351573234 50.472640004439924 10.2789078650358 1 rotate no_reflect no_shear #
lump $-1 $-1 $71 $8 #
transform $-1 1 0 0 0 1 0 0 0 1 78.813440351573234 50.472640004439924 10.2789078650358 1 rotate no_reflect no_shear #
lump $-1 $-1 $72 $9 #
transform $-1 1 0 0 0 1 0 0 0 1 78.813440351573234 50.472640004439924 10.2789078650358 1 rotate no_reflect no_shear #
lump $-1 $-1 $73 $10 #
transform $-1 1 0 0 0 1 0 0 0 1 78.813440351573234 50.472640004439924 10.2789078650358 1 rotate no_reflect no_shear #
lump $-1 $-1 $74 $11 #
transform $-1 1 0 0 0 1 0 0 0 1 78.813440351573234 50.472640004439924 10.2789078650358 1 rotate no_reflect no_shear #
lump $-1 $-1 $75 $12 #
transform $-1 1 0 0 0 1 0 0 0 1 78.813440351573234 50.472640004439924 10.2789078650358 1 rotate no_reflect no_shear #
lump $-1 $-1 $76 $13 #
transform $-1 1 0 0 0 1 0 0 0 1 78.813440351573234 50.472640004439924 10.2789078650358 1 rotate no_reflect no_shear #
lump $-1 $-1 $77 $14 #
transform $-1 1 0 0 0 1 0 0 0 1 78.813440351573234 50.472640004439924 10.2789078650358 1 rotate no_reflect no_shear #
lump $-1 $-1 $78 $15 #
transform $-1 1 0 0 0 1 0 0 0 1 78.813440351573234 50.472640004439924 10.2789078650358 1 rotate no_reflect no_shear #
lump $-1 $-1 $79 $16 #
transform $-1 1 0 0 0 1 0 0 0 1 78.813440351573234 50.472640004439924 10.2789078650358 1 rotate no_reflect no_shear #
lump $-1 $-1 $80 $17 #
transform $-1 1 0 0 0 1 0 0 0 1 78.813440351573234 50.472640004439924 10.2789078650358 1 rotate no_reflect no_shear #
lump $-1 $-1 $81 $18 #
transform $-1 1 0 0 0 1 0 0 0 1 78.813440351573234 50.472640004439924 10.2789078650358 1 rotate no_reflect no_shear #
lump $-1 $-1 $82 $19 #
transform $-1 1 0 0 0 1 0 0 0 1 78.813440351573234 50.472640004439924 10.2789078650358 1 rotate no_reflect no_shear #
lump $-1 $-1 $83 $20 #
transform $-1 1 0 0 0 1 0 0 0 1 78.813440351573234 50.472640004439924 10.2789078650358 1 rotate no_reflect no_shear #
shell $-1 $-1 $-1 $84 $-1 $21 #
shell $-1 $-1 $-1 $85 $-1 $23 #
shell $-1 $-1 $-1 $86 $-1 $25 #
shell $-1 $-1 $-1 $87 $-1 $27 #
shell $-1 $-1 $-1 $88 $-1 $29 #
shell $-1 $-1 $-1 $89 $-1 $31 #
shell $-1 $-1 $-1 $90 $-1 $33 #
shell $-1 $-1 $-1 $91 $-1 $35 #
shell $-1 $-1 $-1 $92 $-1 $37 #
shell $-1 $-1 $-1 $93 $-1 $39 #
shell $-1 $-1 $-1 $94 $-1 $41 #
shell $-1 $-1 $-1 $95 $-1 $43 #
shell $-1 $-1 $-1 $96 $-1 $45 #
shell $-1 $-1 $-1 $97 $-1 $47 #
shell $-1 $-1 $-1 $98 $-1 $49 #
shell $-1 $-1 $-1 $99 $-1 $51 #
shell $-1 $-1 $-1 $100 $-1 $53 #
shell $-1 $-1 $-1 $101 $-1 $55 #
shell $-1 $-1 $-1 $102 $-1 $57 #
shell $-1 $-1 $-1 $103 $-1 $59 #
shell $-1 $-1 $-1 $104 $-1 $61 #
face $-1 $105 $106 $63 $-1 $107 forward single #
face $-1 $108 $109 $64 $-1 $110 forward single #
face $-1 $111 $112 $65 $-1 $113 reversed single #
face $-1 $114 $115 $66 $-1 $116 forward single #
face $-1 $117 $118 $67 $-1 $119 forward single #
face $-1 $120 $121 $68 $-1 $122 reversed single #
face $-1 $123 $124 $69 $-1 $125 forward single #
face $-1 $126 $127 $70 $-1 $128 forward single #
face $-1 $129 $130 $71 $-1 $131 forward single #
face $-1 $132 $133 $72 $-1 $134 reversed single #
face $-1 $135 $136 $73 $-1 $137 forward single #
face $-1 $138 $139 $74 $-1 $140 forward single #
face $-1 $141 $142 $75 $-1 $143 forward single #
face $-1 $144 $145 $76 $-1 $146 reversed single #
face $-1 $147 $148 $77 $-1 $149 forward single #
face $-1 $150 $151 $78 $-1 $152 forward single #
face $-1 $153 $154 $79 $-1 $155 forward single #
face $-1 $156 $157 $80 $-1 $158 reversed single #
face $-1 $159 $160 $81 $-1 $161 forward single #
face $-1 $162 $163 $82 $-1 $164 forward single #
face $-1 $165 $166 $83 $-1 $167 forward single #
face $-1 $168 $169 $63 $-1 $170 reversed single #
loop $-1 $-1 $171 $84 #
plane-surface $-1 0 0 10.2789078650358 0 0 1 1 0 0 forward_v I I I I #
face $-1 $172 $173 $64 $-1 $174 reversed single #
loop $-1 $-1 $175 $85 #
plane-surface $-1 -73.99075445924926 0 -4.4271422747788094 0 0 1 1 0 0 forward_v I I I I #
face $-1 $176 $177 $65 $-1 $178 reversed single #
loop $-1 $-1 $179 $86 #
plane-surface $-1 8.7946002238343937 -129.28608141191407 143.74891551537064 1 0 0 0 0.50000000669873634 -0.8660253999169214 forward_v I I I I #
face $-1 $180 $181 $66 $-1 $182 forward single #
loop $-1 $183 $184 $87 #
cone-surface $-1 19.343223913693237 -46.613675556603944 6.6338600815902886 0 0.50000000669873634 -0.8660253999169214 1.5 0 0 1 I I 0 1 1.5 forward I I I I #
face $-1 $185 $186 $67 $-1 $187 forward single #
loop $-1 $188 $189 $88 #
cone-surface $-1 35.166159448481508 -46.613675556603944 6.6338600815902886 0 0.50000000669873634 -0.8660253999169214 1.5 0 0 1 I I 0 1 1.5 forward I I I I #
face $-1 $190 $191 $68 $-1 $192 reversed single #
loop $-1 $-1 $193 $89 #
plane-surface $-1 -65.507859041386766 127.69092817976066 173.19394328321903 1 0 0 0 -0.83867057594974714 -0.54463902268945019 forward_v I I I I #
face $-1 $194 $195 $69 $-1 $196 forward single #
loop $-1 $197 $198 $90 #
cone-surface $-1 -61.372555584742678 47.41240919954361 6.0957210552711105 0 -0.83867057594974714 -0.54463902268945019 1 0 0 1 I I 0 1 1 forward I I I I #
face $-1 $199 $200 $70 $-1 $201 forward single #
loop $-1 $202 $203 $91 #
cone-surface $-1 -55.169600399776542 47.41240919954361 6.0957210552711105 0 -0.83867057594974714 -0.54463902268945019 1 0 0 1 I I 0 1 1 forward I I I I #
face $-1 $204 $205 $71 $-1 $206 forward single #
loop $-1 $207 $208 $92 #
cone-surface $-1 -48.966645214810406 47.41240919954361 6.0957210552711105 0 -0.83867057594974714 -0.54463902268945019 1 0 0 1 I I 0 1 1 forward I I I I #
face $-1 $209 $210 $72 $-1 $211 reversed single #
loop $-1 $-1 $212 $93 #
plane-surface $-1 -28.512481811762143 127.69092817976066 173.19394328321903 1 0 0 0 -0.83867057594974714 -0.54463902268945019 forward_v I I I I #
face $-1 $213 $214 $73 $-1 $215 forward single #
loop $-1 $216 $217 $94 #
cone-surface $-1 -24.377178355118048 47.41240919954361 6.0957210552711105 0 -0.83867057594974714 -0.54463902268945019 1 0 0 1 I I 0 1 1 forward I I I I #
face $-1 $218 $219 $74 $-1 $220 forward single #
loop $-1 $221 $222 $95 #
cone-surface $-1 -18.174223170151912 47.41240919954361 6.0957210552711105 0 -0.83867057594974714 -0.54463902268945019 1 0 0 1 I I 0 1 1 forward I I I I #
face $-1 $223 $224 $75 $-1 $225 forward single #
loop $-1 $226 $227 $96 #
cone-surface $-1 -11.971267985185776 47.41240919954361 6.0957210552711105 0 -0.83867057594974714 -0.54463902268945019 1 0 0 1 I I 0 1 1 forward I I I I #
face $-1 $228 $229 $76 $-1 $230 reversed single #
loop $-1 $-1 $231 $97 #
plane-surface $-1 8.4828954178624887 127.69092817976066 173.19394328321903 1 0 0 0 -0.83867057594974714 -0.54463902268945019 forward_v I I I I #
face $-1 $232 $233 $77 $-1 $234 forward single #
loop $-1 $235 $236 $98 #
cone-surface $-1 12.618198874506589 47.41240919954361 6.0957210552711105 0 -0.83867057594974714 -0.54463902268945019 1 0 0 1 I I 0 1 1 forward I I I I #
face $-1 $237 $238 $78 $-1 $239 forward single #
loop $-1 $240 $241 $99 #
cone-surface $-1 18.821154059472718 47.41240919954361 6.0957210552711105 0 -0.83867057594974714 -0.54463902268945019 1 0 0 1 I I 0 1 1 forward I I I I #
face $-1 $242 $243 $79 $-1 $244 forward single #
loop $-1 $245 $246 $100 #
cone-surface $-1 25.024109244438847 47.41240919954361 6.0957210552711105 0 -0.83867057594974714 -0.54463902268945019 1 0 0 1 I I 0 1 1 forward I I I I #
face $-1 $247 $248 $80 $-1 $249 reversed single #
loop $-1 $-1 $250 $101 #
plane-surface $-1 45.478272647487124 127.69092817976066 173.19394328321903 1 0 0 0 -0.83867057594974714 -0.54463902268945019 forward_v I I I I #
face $-1 $251 $252 $81 $-1 $253 forward single #
loop $-1 $254 $255 $102 #
cone-surface $-1 49.613576104131226 47.41240919954361 6.0957210552711105 0 -0.83867057594974714 -0.54463902268945019 1 0 0 1 I I 0 1 1 forward I I I I #
face $-1 $256 $257 $82 $-1 $258 forward single #
loop $-1 $259 $260 $103 #
cone-surface $-1 55.816531289097355 47.41240919954361 6.0957210552711105 0 -0.83867057594974714 -0.54463902268945019 1 0 0 1 I I 0 1 1 forward I I I I #
face $-1 $261 $262 $83 $-1 $263 forward single #
loop $-1 $264 $265 $104 #
cone-surface $-1 62.019486474063484 47.41240919954361 6.0957210552711105 0 -0.83867057594974714 -0.54463902268945019 1 0 0 1 I I 0 1 1 forward I I I I #
face $-1 $266 $267 $63 $-1 $268 reversed single #
loop $-1 $-1 $269 $105 #
plane-surface $-1 0 0 -10.2789078650358 0 0 1 1 0 0 forward_v I I I I #
coedge $-1 $270 $271 $272 $273 forward $106 $-1 #
face $-1 $274 $275 $64 $-1 $276 reversed single #
loop $-1 $-1 $277 $108 #
plane-surface $-1 -69.168068566925285 0 -7.3530250699073045 -1 0 0 0 0 1 forward_v I I I I #
coedge $-1 $278 $279 $280 $281 forward $109 $-1 #
face $-1 $282 $283 $65 $-1 $284 reversed single #
loop $-1 $-1 $285 $111 #
plane-surface $-1 27.25469168108738 -50.472640004439924 7.2400331167713716 0 -0.50000000669873634 0.8660253999169214 1 0 0 forward_v I I I I #
coedge $-1 $286 $287 $288 $289 reversed $112 $-1 #
face $-1 $-1 $290 $66 $-1 $291 forward single #
loop $-1 $292 $293 $114 #
cone-surface $-1 19.343223913693237 -45.011453787648371 3.8587306223393121 0 0.50000000669873634 -0.8660253999169214 0.75 0 0 1 I I -0.70710678118654757 0.70710678118654757 0.75 forward I I I I #
loop $-1 $-1 $294 $87 #
coedge $-1 $184 $184 $295 $296 reversed $115 $-1 #
face $-1 $-1 $297 $67 $-1 $298 forward single #
loop $-1 $299 $300 $117 #
cone-surface $-1 35.166159448481508 -45.011453787648371 3.8587306223393121 0 0.50000000669873634 -0.8660253999169214 0.75 0 0 1 I I -0.70710678118654757 0.70710678118654757 0.75 forward I I I I #
loop $-1 $-1 $301 $88 #
coedge $-1 $189 $189 $302 $303 reversed $118 $-1 #
face $-1 $304 $305 $68 $-1 $306 reversed single #
loop $-1 $-1 $307 $120 #
plane-surface $-1 -55.169600399776542 -4.5060986447092688 87.34419302747078 0 0.83867057594974714 0.54463902268945019 1 0 0 forward_v I I I I #
coedge $-1 $308 $309 $310 $311 reversed $121 $-1 #
face $-1 $-1 $312 $69 $-1 $313 forward single #
loop $-1 $314 $315 $123 #
cone-surface $-1 -61.372555584742678 46.398822558160944 5.4374902151720814 0 -0.83867057594974714 -0.54463902268945019 0.5 0 0 1 I I -0.70710678118654813 0.70710678118654691 0.5 forward I I I I #
loop $-1 $-1 $316 $90 #
coedge $-1 $198 $198 $317 $318 reversed $124 $-1 #
face $-1 $-1 $319 $70 $-1 $320 forward single #
loop $-1 $321 $322 $126 #
cone-surface $-1 -55.169600399776542 46.398822558160944 5.4374902151720814 0 -0.83867057594974714 -0.54463902268945019 0.5 0 0 1 I I -0.70710678118654813 0.70710678118654691 0.5 forward I I I I #
loop $-1 $-1 $323 $91 #
coedge $-1 $203 $203 $324 $325 reversed $127 $-1 #
face $-1 $-1 $326 $71 $-1 $327 forward single #
loop $-1 $328 $329 $129 #
cone-surface $-1 -48.966645214810406 46.398822558160944 5.4374902151720814 0 -0.83867057594974714 -0.54463902268945019 0.5 0 0 1 I I -0.70710678118654813 0.70710678118654691 0.5 forward I I I I #
loop $-1 $-1 $330 $92 #
coedge $-1 $208 $208 $331 $332 reversed $130 $-1 #
face $-1 $333 $334 $72 $-1 $335 reversed single #
loop $-1 $-1 $336 $132 #
plane-surface $-1 -18.174223170151912 -4.5060986447092688 87.34419302747078 0 0.83867057594974714 0.54463902268945019 1 0 0 forward_v I I I I #
coedge $-1 $337 $338 $339 $340 reversed $133 $-1 #
face $-1 $-1 $341 $73 $-1 $342 forward single #
loop $-1 $343 $344 $135 #
cone-surface $-1 -24.377178355118048 46.398822558160944 5.4374902151720814 0 -0.83867057594974714 -0.54463902268945019 0.5 0 0 1 I I -0.70710678118654813 0.70710678118654691 0.5 forward I I I I #
loop $-1 $-1 $345 $94 #
coedge $-1 $217 $217 $346 $347 reversed $136 $-1 #
face $-1 $-1 $348 $74 $-1 $349 forward single #
loop $-1 $350 $351 $138 #
cone-surface $-1 -18.174223170151912 46.398822558160944 5.4374902151720814 0 -0.83867057594974714 -0.54463902268945019 0.5 0 0 1 I I -0.70710678118654813 0.70710678118654691 0.5 forward I I I I #
loop $-1 $-1 $352 $95 #
coedge $-1 $222 $222 $353 $354 reversed $139 $-1 #
face $-1 $-1 $355 $75 $-1 $356 forward single #
loop $-1 $357 $358 $141 #
cone-surface $-1 -11.971267985185776 46.398822558160944 5.4374902151720814 0 -0.83867057594974714 -0.54463902268945019 0.5 0 0 1 I I -0.70710678118654813 0.70710678118654691 0.5 forward I I I I #
loop $-1 $-1 $359 $96 #
coedge $-1 $227 $227 $360 $361 reversed $142 $-1 #
face $-1 $362 $363 $76 $-1 $364 reversed single #
loop $-1 $-1 $365 $144 #
plane-surface $-1 18.821154059472718 -4.5060986447092688 87.34419302747078 0 0.83867057594974714 0.54463902268945019 1 0 0 forward_v I I I I #
coedge $-1 $366 $367 $368 $369 reversed $145 $-1 #
face $-1 $-1 $370 $77 $-1 $371 forward single #
loop $-1 $372 $373 $147 #
cone-surface $-1 12.618198874506589 46.398822558160944 5.4374902151720814 0 -0.83867057594974714 -0.54463902268945019 0.5 0 0 1 I I -0.70710678118654813 0.70710678118654691 0.5 forward I I I I #
loop $-1 $-1 $374 $98 #
coedge $-1 $236 $236 $375 $376 reversed $148 $-1 #
face $-1 $-1 $377 $78 $-1 $378 forward single #
loop $-1 $379 $380 $150 #
cone-surface $-1 18.821154059472718 46.398822558160944 5.4374902151720814 0 -0.83867057594974714 -0.54463902268945019 0.5 0 0 1 I I -0.70710678118654813 0.70710678118654691 0.5 forward I I I I #
loop $-1 $-1 $381 $99 #
coedge $-1 $241 $241 $382 $383 reversed $151 $-1 #
face $-1 $-1 $384 $79 $-1 $385 forward single #
loop $-1 $386 $387 $153 #
cone-surface $-1 25.024109244438847 46.398822558160944 5.4374902151720814 0 -0.83867057594974714 -0.54463902268945019 0.5 0 0 1 I I -0.70710678118654813 0.70710678118654691 0.5 forward I I I I #
loop $-1 $-1 $388 $100 #
coedge $-1 $246 $246 $389 $390 reversed $154 $-1 #
face $-1 $391 $392 $80 $-1 $393 reversed single #
loop $-1 $-1 $394 $156 #
plane-surface $-1 55.816531289097355 -4.5060986447092688 87.34419302747078 0 0.83867057594974714 0.54463902268945019 1 0 0 forward_v I I I I #
coedge $-1 $395 $396 $397 $398 reversed $157 $-1 #
face $-1 $-1 $399 $81 $-1 $400 forward single #
loop $-1 $401 $402 $159 #
cone-surface $-1 49.613576104131226 46.398822558160944 5.4374902151720814 0 -0.83867057594974714 -0.54463902268945019 0.5 0 0 1 I I -0.70710678118654813 0.70710678118654691 0.5 forward I I I I #
loop $-1 $-1 $403 $102 #
coedge $-1 $255 $255 $404 $405 reversed $160 $-1 #
face $-1 $-1 $406 $82 $-1 $407 forward single #
loop $-1 $408 $409 $162 #
cone-surface $-1 55.816531289097355 46.398822558160944 5.4374902151720814 0 -0.83867057594974714 -0.54463902268945019 0.5 0 0 1 I I -0.70710678118654813 0.70710678118654691 0.5 forward I I I I #
loop $-1 $-1 $410 $103 #
coedge $-1 $260 $260 $411 $412 reversed $163 $-1 #
face $-1 $-1 $413 $83 $-1 $414 forward single #
loop $-1 $415 $416 $165 #
cone-surface $-1 62.019486474063484 46.398822558160944 5.4374902151720814 0 -0.83867057594974714 -0.54463902268945019 0.5 0 0 1 I I -0.70710678118654813 0.70710678118654691 0.5 forward I I I I #
loop $-1 $-1 $417 $104 #
coedge $-1 $265 $265 $418 $419 reversed $166 $-1 #
face $-1 $420 $421 $63 $-1 $422 reversed single #
loop $-1 $-1 $423 $168 #
plane-surface $-1 0 -50.472640004439924 0 0 1 0 0 0 1 forward_v I I I I #
coedge $-1 $424 $425 $426 $427 forward $169 $-1 #
coedge $-1 $428 $171 $429 $430 forward $106 $-1 #
coedge $-1 $171 $428 $431 $432 forward $106 $-1 #
coedge $-1 $433 $434 $171 $273 reversed $435 $-1 #
edge $-1 $436 -50.472640004439924 $437 50.472640004439924 $272 $438 forward 7 unknown #
face $-1 $439 $440 $64 $-1 $441 reversed single #
loop $-1 $-1 $442 $172 #
plane-surface $-1 0 0 -10.2789078650358 0 0 1 1 0 0 forward_v I I I I #
coedge $-1 $443 $280 $444 $445 reversed $173 $-1 #
coedge $-1 $446 $175 $447 $448 reversed $109 $-1 #
coedge $-1 $175 $446 $449 $450 reversed $109 $-1 #
coedge $-1 $277 $451 $175 $281 reversed $173 $-1 #
edge $-1 $452 -50.472640004439924 $453 50.472640004439924 $280 $454 forward 7 unknown #
face $-1 $455 $456 $65 $-1 $457 forward single #
loop $-1 $-1 $458 $176 #
plane-surface $-1 45.714783138340366 -129.28608141191407 143.74891551537064 -1 0 0 0 -0.50000000669873634 0.8660253999169214 forward_v I I I I #
coedge $-1 $459 $460 $461 $462 reversed $177 $-1 #
coedge $-1 $287 $179 $463 $464 reversed $112 $-1 #
coedge $-1 $179 $286 $459 $465 reversed $112 $-1 #
coedge $-1 $461 $466 $179 $289 forward $467 $-1 #
edge $-1 $468 61.595549892649522 $469 64.634424640913949 $288 $470 forward 7 unknown #
loop $-1 $-1 $295 $180 #
plane-surface $-1 27.25469168108738 -50.472640004439924 7.2400331167713716 0 -0.50000000669873634 0.8660253999169214 1 0 0 forward_v I I I I #
loop $-1 $-1 $471 $114 #
coedge $-1 $293 $293 $294 $472 reversed $181 $-1 #
coedge $-1 $294 $294 $293 $472 forward $183 $-1 #
coedge $-1 $295 $295 $184 $296 forward $290 $-1 #
edge $-1 $473 -1.8188691646984485e-015 $473 6.2831853071795987 $295 $474 forward 7 unknown #
loop $-1 $-1 $302 $185 #
plane-surface $-1 27.25469168108738 -50.472640004439924 7.2400331167713716 0 -0.50000000669873634 0.8660253999169214 1 0 0 forward_v I I I I #
loop $-1 $-1 $475 $117 #
coedge $-1 $300 $300 $301 $476 reversed $186 $-1 #
coedge $-1 $301 $301 $300 $476 forward $188 $-1 #
coedge $-1 $302 $302 $189 $303 forward $297 $-1 #
edge $-1 $477 -1.8188691646984485e-015 $477 6.2831853071795987 $302 $478 forward 7 unknown #
face $-1 $479 $480 $68 $-1 $481 reversed single #
loop $-1 $-1 $482 $190 #
plane-surface $-1 -44.83134175816631 127.69092817976066 173.19394328321903 -1 0 0 0 0.83867057594974714 0.54463902268945019 forward_v I I I I #
coedge $-1 $483 $484 $485 $486 reversed $191 $-1 #
coedge $-1 $309 $193 $487 $488 reversed $121 $-1 #
coedge $-1 $193 $308 $483 $489 reversed $121 $-1 #
coedge $-1 $485 $490 $193 $311 forward $491 $-1 #
edge $-1 $492 13.372824085440406 $493 18.304782988417408 $310 $494 forward 7 unknown #
loop $-1 $-1 $317 $194 #
plane-surface $-1 -55.169600399776542 -4.5060986447092688 87.34419302747078 0 0.83867057594974714 0.54463902268945019 1 0 0 forward_v I I I I #
loop $-1 $-1 $495 $123 #
coedge $-1 $315 $315 $316 $496 reversed $195 $-1 #
coedge $-1 $316 $316 $315 $496 forward $197 $-1 #
coedge $-1 $317 $317 $198 $318 forward $312 $-1 #
edge $-1 $497 2.6886614714751797e-015 $497 6.2831853071796031 $317 $498 forward 7 unknown #
loop $-1 $-1 $324 $199 #
plane-surface $-1 -55.169600399776542 -4.5060986447092688 87.34419302747078 0 0.83867057594974714 0.54463902268945019 1 0 0 forward_v I I I I #
loop $-1 $-1 $499 $126 #
coedge $-1 $322 $322 $323 $500 reversed $200 $-1 #
coedge $-1 $323 $323 $322 $500 forward $202 $-1 #
coedge $-1 $324 $324 $203 $325 forward $319 $-1 #
edge $-1 $501 2.6886614714751797e-015 $501 6.2831853071796031 $324 $502 forward 7 unknown #
loop $-1 $-1 $331 $204 #
plane-surface $-1 -55.169600399776542 -4.5060986447092688 87.34419302747078 0 0.83867057594974714 0.54463902268945019 1 0 0 forward_v I I I I #
loop $-1 $-1 $503 $129 #
coedge $-1 $329 $329 $330 $504 reversed $205 $-1 #
coedge $-1 $330 $330 $329 $504 forward $207 $-1 #
coedge $-1 $331 $331 $208 $332 forward $326 $-1 #
edge $-1 $505 2.6886614714751797e-015 $505 6.2831853071796031 $331 $506 forward 7 unknown #
face $-1 $507 $508 $72 $-1 $509 forward single #
loop $-1 $-1 $510 $209 #
plane-surface $-1 -7.8359645285416821 127.69092817976066 173.19394328321903 -1 0 0 0 0.83867057594974714 0.54463902268945019 forward_v I I I I #
coedge $-1 $511 $512 $513 $514 reversed $210 $-1 #
coedge $-1 $338 $212 $515 $516 reversed $133 $-1 #
coedge $-1 $212 $337 $511 $517 reversed $133 $-1 #
coedge $-1 $513 $518 $212 $340 forward $508 $-1 #
edge $-1 $519 13.372824085440406 $520 18.304782988417408 $339 $521 forward 7 unknown #
loop $-1 $-1 $346 $213 #
plane-surface $-1 -18.174223170151912 -4.5060986447092688 87.34419302747078 0 0.83867057594974714 0.54463902268945019 1 0 0 forward_v I I I I #
loop $-1 $-1 $522 $135 #
coedge $-1 $344 $344 $345 $523 reversed $214 $-1 #
coedge $-1 $345 $345 $344 $523 forward $216 $-1 #
coedge $-1 $346 $346 $217 $347 forward $341 $-1 #
edge $-1 $524 2.6886614714751797e-015 $524 6.2831853071796031 $346 $525 forward 7 unknown #
loop $-1 $-1 $353 $218 #
plane-surface $-1 -18.174223170151912 -4.5060986447092688 87.34419302747078 0 0.83867057594974714 0.54463902268945019 1 0 0 forward_v I I I I #
loop $-1 $-1 $526 $138 #
coedge $-1 $351 $351 $352 $527 reversed $219 $-1 #
coedge $-1 $352 $352 $351 $527 forward $221 $-1 #
coedge $-1 $353 $353 $222 $354 forward $348 $-1 #
edge $-1 $528 2.6886614714751797e-015 $528 6.2831853071796031 $353 $529 forward 7 unknown #
loop $-1 $-1 $360 $223 #
plane-surface $-1 -18.174223170151912 -4.5060986447092688 87.34419302747078 0 0.83867057594974714 0.54463902268945019 1 0 0 forward_v I I I I #
loop $-1 $-1 $530 $141 #
coedge $-1 $358 $358 $359 $531 reversed $224 $-1 #
coedge $-1 $359 $359 $358 $531 forward $226 $-1 #
coedge $-1 $360 $360 $227 $361 forward $355 $-1 #
edge $-1 $532 2.6886614714751797e-015 $532 6.2831853071796031 $360 $533 forward 7 unknown #
face $-1 $534 $535 $76 $-1 $536 forward single #
loop $-1 $-1 $537 $228 #
plane-surface $-1 29.15941270108295 127.69092817976066 173.19394328321903 -1 0 0 0 0.83867057594974714 0.54463902268945019 forward_v I I I I #
coedge $-1 $538 $539 $540 $541 reversed $229 $-1 #
coedge $-1 $367 $231 $542 $543 reversed $145 $-1 #
coedge $-1 $231 $366 $538 $544 reversed $145 $-1 #
coedge $-1 $540 $545 $231 $369 forward $535 $-1 #
edge $-1 $546 13.372824085440406 $547 18.304782988417408 $368 $548 forward 7 unknown #
loop $-1 $-1 $375 $232 #
plane-surface $-1 18.821154059472718 -4.5060986447092688 87.34419302747078 0 0.83867057594974714 0.54463902268945019 1 0 0 forward_v I I I I #
loop $-1 $-1 $549 $147 #
coedge $-1 $373 $373 $374 $550 reversed $233 $-1 #
coedge $-1 $374 $374 $373 $550 forward $235 $-1 #
coedge $-1 $375 $375 $236 $376 forward $370 $-1 #
edge $-1 $551 2.6886614714751797e-015 $551 6.2831853071796031 $375 $552 forward 7 unknown #
loop $-1 $-1 $382 $237 #
plane-surface $-1 18.821154059472718 -4.5060986447092688 87.34419302747078 0 0.83867057594974714 0.54463902268945019 1 0 0 forward_v I I I I #
loop $-1 $-1 $553 $150 #
coedge $-1 $380 $380 $381 $554 reversed $238 $-1 #
coedge $-1 $381 $381 $380 $554 forward $240 $-1 #
coedge $-1 $382 $382 $241 $383 forward $377 $-1 #
edge $-1 $555 2.6886614714751797e-015 $555 6.2831853071796031 $382 $556 forward 7 unknown #
loop $-1 $-1 $389 $242 #
plane-surface $-1 18.821154059472718 -4.5060986447092688 87.34419302747078 0 0.83867057594974714 0.54463902268945019 1 0 0 forward_v I I I I #
loop $-1 $-1 $557 $153 #
coedge $-1 $387 $387 $388 $558 reversed $243 $-1 #
coedge $-1 $388 $388 $387 $558 forward $245 $-1 #
coedge $-1 $389 $389 $246 $390 forward $384 $-1 #
edge $-1 $559 2.6886614714751797e-015 $559 6.2831853071796031 $389 $560 forward 7 unknown #
face $-1 $561 $562 $80 $-1 $563 forward single #
loop $-1 $-1 $564 $247 #
plane-surface $-1 66.15478993070758 127.69092817976066 173.19394328321903 -1 0 0 0 0.83867057594974714 0.54463902268945019 forward_v I I I I #
coedge $-1 $565 $566 $567 $568 reversed $248 $-1 #
coedge $-1 $396 $250 $569 $570 reversed $157 $-1 #
coedge $-1 $250 $395 $565 $571 reversed $157 $-1 #
coedge $-1 $567 $572 $250 $398 forward $562 $-1 #
edge $-1 $573 13.372824085440406 $574 18.304782988417408 $397 $575 forward 7 unknown #
loop $-1 $-1 $404 $251 #
plane-surface $-1 55.816531289097355 -4.5060986447092688 87.34419302747078 0 0.83867057594974714 0.54463902268945019 1 0 0 forward_v I I I I #
loop $-1 $-1 $576 $159 #
coedge $-1 $402 $402 $403 $577 reversed $252 $-1 #
coedge $-1 $403 $403 $402 $577 forward $254 $-1 #
coedge $-1 $404 $404 $255 $405 forward $399 $-1 #
edge $-1 $578 2.6886614714751797e-015 $578 6.2831853071796031 $404 $579 forward 7 unknown #
loop $-1 $-1 $411 $256 #
plane-surface $-1 55.816531289097355 -4.5060986447092688 87.34419302747078 0 0.83867057594974714 0.54463902268945019 1 0 0 forward_v I I I I #
loop $-1 $-1 $580 $162 #
coedge $-1 $409 $409 $410 $581 reversed $257 $-1 #
coedge $-1 $410 $410 $409 $581 forward $259 $-1 #
coedge $-1 $411 $411 $260 $412 forward $406 $-1 #
edge $-1 $582 2.6886614714751797e-015 $582 6.2831853071796031 $411 $583 forward 7 unknown #
loop $-1 $-1 $418 $261 #
plane-surface $-1 55.816531289097355 -4.5060986447092688 87.34419302747078 0 0.83867057594974714 0.54463902268945019 1 0 0 forward_v I I I I #
loop $-1 $-1 $584 $165 #
coedge $-1 $416 $416 $417 $585 reversed $262 $-1 #
coedge $-1 $417 $417 $416 $585 forward $264 $-1 #
coedge $-1 $418 $418 $265 $419 forward $413 $-1 #
edge $-1 $586 2.6886614714751797e-015 $586 6.2831853071796031 $418 $587 forward 7 unknown #
face $-1 $588 $589 $63 $-1 $590 reversed single #
loop $-1 $-1 $591 $266 #
plane-surface $-1 -78.813440351573234 0 0 1 0 0 0 0 -1 forward_v I I I I #
coedge $-1 $592 $431 $593 $594 forward $267 $-1 #
coedge $-1 $595 $269 $592 $596 forward $169 $-1 #
coedge $-1 $269 $595 $597 $598 forward $169 $-1 #
coedge $-1 $434 $433 $269 $427 reversed $435 $-1 #
edge $-1 $599 -50.472640004439924 $600 50.472640004439924 $426 $601 forward 7 unknown #
coedge $-1 $271 $270 $602 $603 forward $106 $-1 #
coedge $-1 $604 $605 $270 $430 reversed $589 $-1 #
edge $-1 $437 -78.813440351573234 $606 78.813440351573234 $429 $607 forward 7 unknown #
coedge $-1 $423 $608 $271 $432 reversed $267 $-1 #
edge $-1 $609 -78.813440351573234 $436 78.813440351573234 $431 $610 forward 7 unknown #
coedge $-1 $426 $272 $608 $611 forward $435 $-1 #
coedge $-1 $272 $426 $604 $612 reversed $435 $-1 #
loop $-1 $-1 $433 $588 #
vertex $-1 $273 $613 #
vertex $-1 $273 $614 #
straight-curve $-1 78.813440351573234 0 10.2789078650358 0 1 0 I I #
face $-1 $615 $616 $64 $-1 $617 reversed single #
loop $-1 $-1 $444 $274 #
plane-surface $-1 0 -50.472640004439924 0 0 1 0 0 0 1 forward_v I I I I #
coedge $-1 $618 $619 $443 $620 forward $275 $-1 #
coedge $-1 $451 $277 $442 $620 reversed $173 $-1 #
coedge $-1 $449 $621 $277 $445 forward $440 $-1 #
edge $-1 $622 -6.6023953300821479 $452 -0.75062973982515713 $444 $623 forward 7 unknown #
coedge $-1 $279 $278 $624 $625 reversed $109 $-1 #
coedge $-1 $626 $627 $278 $448 forward $628 $-1 #
edge $-1 $629 -41.818063121948605 $453 -32.172691337300655 $447 $630 forward 7 unknown #
coedge $-1 $631 $444 $279 $450 forward $440 $-1 #
edge $-1 $452 32.172691337300655 $632 41.818063121948605 $449 $633 forward 7 unknown #
coedge $-1 $280 $443 $626 $634 reversed $173 $-1 #
vertex $-1 $450 $635 #
vertex $-1 $448 $636 #
straight-curve $-1 -69.168068566925285 0 -4.4271422747788094 0 1 0 I I #
face $-1 $-1 $467 $65 $-1 $637 reversed single #
loop $-1 $-1 $638 $282 #
plane-surface $-1 0 0 10.2789078650358 0 0 1 1 0 0 forward_v I I I I #
coedge $-1 $639 $640 $641 $642 reversed $283 $-1 #
coedge $-1 $643 $285 $287 $465 forward $177 $-1 #
coedge $-1 $285 $643 $639 $644 forward $177 $-1 #
coedge $-1 $641 $288 $285 $462 forward $467 $-1 #
edge $-1 $469 -4.8327456167092961 $645 32.087437297796676 $461 $646 forward 7 unknown #
coedge $-1 $647 $648 $286 $464 forward $456 $-1 #
edge $-1 $649 -19.433886069325979 $468 -14.17040070151711 $463 $650 forward 7 unknown #
edge $-1 $469 0 $649 6.0777494151023745 $287 $651 forward 7 unknown #
coedge $-1 $288 $641 $647 $652 reversed $467 $-1 #
loop $-1 $-1 $641 $455 #
vertex $-1 $652 $653 #
vertex $-1 $289 $654 #
straight-curve $-1 8.7946002238343937 -50.472640004439924 71.87445775768532 0 0 -1 I I #
coedge $-1 $471 $471 $-1 $655 reversed $292 $-1 #
edge $-1 $656 0 $656 6.2831853071796004 $293 $657 forward 7 unknown #
vertex $-1 $296 $658 #
ellipse-curve $-1 19.343223913693237 -47.840897320535476 8.7594704909035919 0 -0.50000000669873634 0.8660253999169214 1.5 0 0 1 I I #
coedge $-1 $475 $475 $-1 $659 reversed $299 $-1 #
edge $-1 $660 0 $660 6.2831853071796004 $300 $661 forward 7 unknown #
vertex $-1 $303 $662 #
ellipse-curve $-1 35.166159448481508 -47.840897320535476 8.7594704909035919 0 -0.50000000669873634 0.8660253999169214 1.5 0 0 1 I I #
face $-1 $-1 $491 $68 $-1 $663 forward single #
loop $-1 $-1 $664 $304 #
plane-surface $-1 0 50.472640004439924 0 0 -1 0 0 0 -1 forward_v I I I I #
coedge $-1 $665 $666 $667 $668 reversed $305 $-1 #
coedge $-1 $669 $307 $309 $489 forward $191 $-1 #
coedge $-1 $307 $669 $665 $670 forward $191 $-1 #
coedge $-1 $667 $310 $307 $486 forward $491 $-1 #
edge $-1 $493 -37.923058841498495 $671 -17.246541558278039 $485 $672 forward 7 unknown #
coedge $-1 $673 $674 $308 $488 forward $480 $-1 #
edge $-1 $675 -83.912614738594456 $492 -76.318063776573709 $487 $676 forward 7 unknown #
edge $-1 $493 91.889816302620233 $675 100.94528000887982 $309 $677 forward 7 unknown #
coedge $-1 $310 $667 $673 $678 forward $491 $-1 #
loop $-1 $-1 $667 $479 #
vertex $-1 $488 $679 #
vertex $-1 $311 $680 #
straight-curve $-1 -65.507859041386766 63.845464089880331 10.278907865035805 0 -1 0 I I #
coedge $-1 $495 $495 $-1 $681 reversed $314 $-1 #
edge $-1 $682 0 $682 6.2831853071796004 $315 $683 forward 7 unknown #
vertex $-1 $318 $684 #
ellipse-curve $-1 -61.372555584742678 48.006660552951423 6.4816323840254277 0 0.83867057594974714 0.54463902268945019 1 0 0 1 I I #
coedge $-1 $499 $499 $-1 $685 reversed $321 $-1 #
edge $-1 $686 0 $686 6.2831853071796004 $322 $687 forward 7 unknown #
vertex $-1 $325 $688 #
ellipse-curve $-1 -55.169600399776542 48.006660552951423 6.4816323840254277 0 0.83867057594974714 0.54463902268945019 1 0 0 1 I I #
coedge $-1 $503 $503 $-1 $689 reversed $328 $-1 #
edge $-1 $690 0 $690 6.2831853071796004 $329 $691 forward 7 unknown #
vertex $-1 $332 $692 #
ellipse-curve $-1 -48.966645214810406 48.006660552951423 6.4816323840254277 0 0.83867057594974714 0.54463902268945019 1 0 0 1 I I #
face $-1 $-1 $693 $72 $-1 $694 reversed single #
loop $-1 $-1 $339 $333 #
plane-surface $-1 0 0 10.2789078650358 0 0 1 1 0 0 forward_v I I I I #
coedge $-1 $695 $696 $697 $698 reversed $334 $-1 #
coedge $-1 $699 $336 $338 $517 forward $210 $-1 #
coedge $-1 $336 $699 $695 $700 forward $210 $-1 #
coedge $-1 $697 $339 $336 $514 forward $508 $-1 #
edge $-1 $520 -19.425370226686187 $701 1.2511470565342737 $513 $702 forward 7 unknown #
coedge $-1 $703 $704 $337 $516 forward $693 $-1 #
edge $-1 $705 -83.912614738594456 $519 -76.318063776573709 $515 $706 forward 7 unknown #
edge $-1 $520 91.889816302620233 $705 100.94528000887982 $338 $707 forward 7 unknown #
coedge $-1 $339 $697 $703 $708 forward $508 $-1 #
vertex $-1 $516 $709 #
vertex $-1 $340 $710 #
straight-curve $-1 -28.512481811762143 63.845464089880331 10.278907865035805 0 -1 0 I I #
coedge $-1 $522 $522 $-1 $711 reversed $343 $-1 #
edge $-1 $712 0 $712 6.2831853071796004 $344 $713 forward 7 unknown #
vertex $-1 $347 $714 #
ellipse-curve $-1 -24.377178355118048 48.006660552951423 6.4816323840254277 0 0.83867057594974714 0.54463902268945019 1 0 0 1 I I #
coedge $-1 $526 $526 $-1 $715 reversed $350 $-1 #
edge $-1 $716 0 $716 6.2831853071796004 $351 $717 forward 7 unknown #
vertex $-1 $354 $718 #
ellipse-curve $-1 -18.174223170151912 48.006660552951423 6.4816323840254277 0 0.83867057594974714 0.54463902268945019 1 0 0 1 I I #
coedge $-1 $530 $530 $-1 $719 reversed $357 $-1 #
edge $-1 $720 0 $720 6.2831853071796004 $358 $721 forward 7 unknown #
vertex $-1 $361 $722 #
ellipse-curve $-1 -11.971267985185776 48.006660552951423 6.4816323840254277 0 0.83867057594974714 0.54463902268945019 1 0 0 1 I I #
face $-1 $-1 $723 $76 $-1 $724 reversed single #
loop $-1 $-1 $368 $362 #
plane-surface $-1 0 0 10.2789078650358 0 0 1 1 0 0 forward_v I I I I #
coedge $-1 $725 $726 $727 $728 reversed $363 $-1 #
coedge $-1 $729 $365 $367 $544 forward $229 $-1 #
coedge $-1 $365 $729 $725 $730 forward $229 $-1 #
coedge $-1 $727 $368 $365 $541 forward $535 $-1 #
edge $-1 $547 -0.92768161187387044 $731 19.74883567134659 $540 $732 forward 7 unknown #
coedge $-1 $733 $734 $366 $543 forward $723 $-1 #
edge $-1 $735 -83.912614738594456 $546 -76.318063776573709 $542 $736 forward 7 unknown #
edge $-1 $547 91.889816302620233 $735 100.94528000887982 $367 $737 forward 7 unknown #
coedge $-1 $368 $727 $733 $738 forward $535 $-1 #
vertex $-1 $369 $739 #
vertex $-1 $369 $740 #
straight-curve $-1 8.4828954178624887 63.845464089880331 10.278907865035805 0 -1 0 I I #
coedge $-1 $549 $549 $-1 $741 reversed $372 $-1 #
edge $-1 $742 0 $742 6.2831853071796004 $373 $743 forward 7 unknown #
vertex $-1 $376 $744 #
ellipse-curve $-1 12.618198874506589 48.006660552951423 6.4816323840254277 0 0.83867057594974714 0.54463902268945019 1 0 0 1 I I #
coedge $-1 $553 $553 $-1 $745 reversed $379 $-1 #
edge $-1 $746 0 $746 6.2831853071796004 $380 $747 forward 7 unknown #
vertex $-1 $383 $748 #
ellipse-curve $-1 18.821154059472718 48.006660552951423 6.4816323840254277 0 0.83867057594974714 0.54463902268945019 1 0 0 1 I I #
coedge $-1 $557 $557 $-1 $749 reversed $386 $-1 #
edge $-1 $750 0 $750 6.2831853071796004 $387 $751 forward 7 unknown #
vertex $-1 $390 $752 #
ellipse-curve $-1 25.024109244438847 48.006660552951423 6.4816323840254277 0 0.83867057594974714 0.54463902268945019 1 0 0 1 I I #
face $-1 $-1 $753 $80 $-1 $754 reversed single #
loop $-1 $-1 $397 $391 #
plane-surface $-1 0 0 10.2789078650358 0 0 1 1 0 0 forward_v I I I I #
coedge $-1 $755 $756 $757 $758 reversed $392 $-1 #
coedge $-1 $759 $394 $396 $571 forward $248 $-1 #
coedge $-1 $394 $759 $755 $760 forward $248 $-1 #
coedge $-1 $757 $397 $394 $568 forward $562 $-1 #
edge $-1 $574 17.570007002938446 $761 38.246524286158902 $567 $762 forward 7 unknown #
coedge $-1 $763 $764 $395 $570 forward $753 $-1 #
edge $-1 $765 -83.912614738594456 $573 -76.318063776573709 $569 $766 forward 7 unknown #
edge $-1 $574 91.889816302620233 $765 100.94528000887982 $396 $767 forward 7 unknown #
coedge $-1 $397 $757 $763 $768 forward $562 $-1 #
vertex $-1 $398 $769 #
vertex $-1 $398 $770 #
straight-curve $-1 45.478272647487124 63.845464089880331 10.278907865035805 0 -1 0 I I #
coedge $-1 $576 $576 $-1 $771 reversed $401 $-1 #
edge $-1 $772 0 $772 6.2831853071796004 $402 $773 forward 7 unknown #
vertex $-1 $405 $774 #
ellipse-curve $-1 49.613576104131226 48.006660552951423 6.4816323840254277 0 0.83867057594974714 0.54463902268945019 1 0 0 1 I I #
coedge $-1 $580 $580 $-1 $775 reversed $408 $-1 #
edge $-1 $776 0 $776 6.2831853071796004 $409 $777 forward 7 unknown #
vertex $-1 $412 $778 #
ellipse-curve $-1 55.816531289097355 48.006660552951423 6.4816323840254277 0 0.83867057594974714 0.54463902268945019 1 0 0 1 I I #
coedge $-1 $584 $584 $-1 $779 reversed $415 $-1 #
edge $-1 $780 0 $780 6.2831853071796004 $416 $781 forward 7 unknown #
vertex $-1 $419 $782 #
ellipse-curve $-1 62.019486474063484 48.006660552951423 6.4816323840254277 0 0.83867057594974714 0.54463902268945019 1 0 0 1 I I #
face $-1 $-1 $435 $63 $-1 $783 reversed single #
loop $-1 $-1 $604 $420 #
plane-surface $-1 0 50.472640004439924 0 0 -1 0 0 0 -1 forward_v I I I I #
coedge $-1 $784 $602 $605 $785 forward $421 $-1 #
coedge $-1 $608 $423 $424 $596 reversed $267 $-1 #
coedge $-1 $602 $784 $423 $594 reversed $421 $-1 #
edge $-1 $609 -10.2789078650358 $786 10.2789078650358 $593 $787 forward 7 unknown #
coedge $-1 $425 $424 $784 $788 forward $169 $-1 #
edge $-1 $600 -78.813440351573234 $786 78.813440351573234 $592 $789 forward 7 unknown #
coedge $-1 $605 $604 $425 $598 reversed $589 $-1 #
edge $-1 $790 -78.813440351573234 $599 78.813440351573234 $597 $791 forward 7 unknown #
vertex $-1 $427 $792 #
vertex $-1 $611 $793 #
straight-curve $-1 78.813440351573234 0 -10.2789078650358 0 -1 0 I I #
coedge $-1 $591 $593 $428 $603 reversed $421 $-1 #
edge $-1 $606 -50.472640004439924 $609 50.472640004439924 $602 $794 forward 7 unknown #
coedge $-1 $597 $429 $434 $612 forward $589 $-1 #
coedge $-1 $429 $597 $591 $785 reversed $589 $-1 #
vertex $-1 $430 $795 #
straight-curve $-1 0 50.472640004439924 10.2789078650358 -1 0 0 I I #
coedge $-1 $431 $592 $433 $611 reversed $267 $-1 #
vertex $-1 $603 $796 #
straight-curve $-1 0 -50.472640004439924 10.2789078650358 1 0 0 I I #
edge $-1 $436 -10.2789078650358 $600 10.2789078650358 $433 $797 forward 7 unknown #
edge $-1 $437 -10.2789078650358 $599 10.2789078650358 $434 $798 forward 7 unknown #
point $-1 78.813440351573234 -50.472640004439924 10.2789078650358 #
point $-1 78.813440351573234 50.472640004439924 10.2789078650358 #
face $-1 $-1 $628 $64 $-1 $799 reversed single #
loop $-1 $-1 $624 $439 #
plane-surface $-1 -78.813440351573234 0 0 1 0 0 0 0 -1 forward_v I I I I #
coedge $-1 $800 $442 $621 $801 forward $275 $-1 #
coedge $-1 $442 $800 $802 $803 forward $275 $-1 #
edge $-1 $804 -50.472640004439924 $622 50.472640004439924 $442 $805 forward 7 unknown #
coedge $-1 $444 $631 $618 $801 reversed $440 $-1 #
vertex $-1 $801 $806 #
straight-curve $-1 -69.168068566925285 -50.472640004439924 -3.6765125349536523 0 0 1 I I #
coedge $-1 $807 $808 $446 $625 forward $616 $-1 #
edge $-1 $632 -50.472640004439924 $629 50.472640004439924 $624 $809 forward 7 unknown #
coedge $-1 $802 $447 $451 $634 forward $628 $-1 #
coedge $-1 $447 $802 $807 $810 reversed $628 $-1 #
loop $-1 $-1 $626 $615 #
vertex $-1 $810 $811 #
straight-curve $-1 -36.99537722962463 50.472640004439924 -4.4271422747788094 1 0 0 I I #
coedge $-1 $621 $449 $808 $812 forward $440 $-1 #
vertex $-1 $812 $813 #
straight-curve $-1 -36.99537722962463 -50.472640004439924 -4.4271422747788094 -1 0 0 I I #
edge $-1 $453 0.75062973982515713 $804 6.6023953300821479 $626 $814 forward 7 unknown #
point $-1 -69.168068566925285 -50.472640004439924 -4.4271422747788094 #
point $-1 -69.168068566925285 50.472640004439924 -4.4271422747788094 #
plane-surface $-1 0 -50.472640004439924 0 0 1 0 0 0 1 forward_v I I I I #
coedge $-1 $648 $647 $640 $815 forward $456 $-1 #
coedge $-1 $640 $458 $460 $644 reversed $283 $-1 #
coedge $-1 $458 $639 $638 $815 reversed $283 $-1 #
coedge $-1 $466 $461 $458 $642 forward $467 $-1 #
edge $-1 $645 -64.634424640913949 $816 -61.595549892649522 $641 $817 forward 7 unknown #
coedge $-1 $460 $459 $648 $818 reversed $177 $-1 #
edge $-1 $819 -6.0777494151023745 $645 0 $639 $820 forward 7 unknown #
vertex $-1 $462 $821 #
straight-curve $-1 13.62734584054369 -50.472640004439924 7.2400331167713716 1 0 0 I I #
coedge $-1 $638 $463 $466 $652 forward $456 $-1 #
coedge $-1 $463 $638 $643 $818 forward $456 $-1 #
vertex $-1 $464 $822 #
straight-curve $-1 8.7946002238343937 -64.643040705957034 10.278907865035805 0 -1 0 I I #
straight-curve $-1 8.7946002238343937 -50.472640004439924 7.2400331167713716 0 0.8660253999169214 0.50000000669873634 I I #
edge $-1 $468 8.7946002238343937 $816 45.714783138340366 $466 $823 forward 7 unknown #
point $-1 8.7946002238343937 -50.472640004439924 10.2789078650358 #
point $-1 8.7946002238343937 -50.472640004439924 7.2400331167713716 #
edge $-1 $824 1 $824 0 $471 $-1 forward 7 unknown #
vertex $-1 $472 $825 #
ellipse-curve $-1 19.343223913693237 -45.386453792672427 4.5082496722770031 0 -0.50000000669873634 0.8660253999169214 1.5 0 0 1 I I #
point $-1 20.843223913693237 -47.840897320535468 8.7594704909035741 #
edge $-1 $826 1 $826 0 $475 $-1 forward 7 unknown #
vertex $-1 $476 $827 #
ellipse-curve $-1 35.166159448481508 -45.386453792672427 4.5082496722770031 0 -0.50000000669873634 0.8660253999169214 1.5 0 0 1 I I #
point $-1 36.666159448481508 -47.840897320535468 8.7594704909035741 #
plane-surface $-1 0 0 10.2789078650358 0 0 1 1 0 0 forward_v I I I I #
coedge $-1 $674 $673 $666 $828 forward $480 $-1 #
coedge $-1 $666 $482 $484 $670 reversed $305 $-1 #
coedge $-1 $482 $665 $664 $828 reversed $305 $-1 #
coedge $-1 $490 $485 $482 $668 forward $491 $-1 #
edge $-1 $671 -18.304782988417408 $829 -13.372824085440406 $667 $830 forward 7 unknown #
coedge $-1 $484 $483 $674 $831 reversed $191 $-1 #
edge $-1 $832 -100.94528000887982 $671 -91.889816302620233 $665 $833 forward 7 unknown #
vertex $-1 $486 $834 #
straight-curve $-1 -27.584800199888271 45.54068110146293 10.278907865035805 1 0 0 I I #
coedge $-1 $664 $487 $490 $678 reversed $480 $-1 #
coedge $-1 $487 $664 $669 $831 forward $480 $-1 #
vertex $-1 $488 $835 #
straight-curve $-1 -65.507859041386766 50.472640004439924 86.596971641609514 0 0 1 I I #
straight-curve $-1 -65.507859041386766 -4.5060986447092688 87.34419302747078 0 0.54463902268945019 -0.83867057594974714 I I #
edge $-1 $829 44.83134175816631 $492 65.507859041386766 $673 $836 forward 7 unknown #
point $-1 -65.507859041386766 50.472640004439924 10.2789078650358 #
point $-1 -65.507859041386766 45.540681101462923 10.278907865035805 #
edge $-1 $837 1 $837 0 $495 $-1 forward 7 unknown #
vertex $-1 $496 $838 #
ellipse-curve $-1 -61.372555584742678 46.818157846135819 5.7098097265168057 0 0.83867057594974714 0.54463902268945019 1 0 0 1 I I #
point $-1 -60.372555584742678 48.006660552951409 6.4816323840254153 #
edge $-1 $839 1 $839 0 $499 $-1 forward 7 unknown #
vertex $-1 $500 $840 #
ellipse-curve $-1 -55.169600399776542 46.818157846135819 5.7098097265168057 0 0.83867057594974714 0.54463902268945019 1 0 0 1 I I #
point $-1 -54.169600399776542 48.006660552951409 6.4816323840254153 #
edge $-1 $841 1 $841 0 $503 $-1 forward 7 unknown #
vertex $-1 $504 $842 #
ellipse-curve $-1 -48.966645214810406 46.818157846135819 5.7098097265168057 0 0.83867057594974714 0.54463902268945019 1 0 0 1 I I #
point $-1 -47.966645214810406 48.006660552951409 6.4816323840254153 #
loop $-1 $-1 $515 $507 #
plane-surface $-1 0 50.472640004439924 0 0 -1 0 0 0 -1 forward_v I I I I #
coedge $-1 $696 $510 $512 $700 reversed $334 $-1 #
coedge $-1 $510 $695 $843 $844 reversed $334 $-1 #
coedge $-1 $518 $513 $510 $698 forward $508 $-1 #
edge $-1 $701 -18.304782988417408 $845 -13.372824085440406 $697 $846 forward 7 unknown #
coedge $-1 $512 $511 $704 $847 reversed $210 $-1 #
edge $-1 $848 -100.94528000887982 $701 -91.889816302620233 $695 $849 forward 7 unknown #
vertex $-1 $514 $850 #
straight-curve $-1 -9.0871115850759558 45.54068110146293 10.278907865035805 1 0 0 I I #
coedge $-1 $843 $515 $518 $708 reversed $693 $-1 #
coedge $-1 $515 $843 $699 $847 forward $693 $-1 #
vertex $-1 $516 $851 #
straight-curve $-1 -28.512481811762143 50.472640004439924 86.596971641609514 0 0 1 I I #
straight-curve $-1 -28.512481811762143 -4.5060986447092688 87.34419302747078 0 0.54463902268945019 -0.83867057594974714 I I #
edge $-1 $845 7.8359645285416821 $519 28.512481811762143 $703 $852 forward 7 unknown #
point $-1 -28.512481811762143 50.472640004439924 10.2789078650358 #
point $-1 -28.512481811762143 45.540681101462923 10.278907865035805 #
edge $-1 $853 1 $853 0 $522 $-1 forward 7 unknown #
vertex $-1 $523 $854 #
ellipse-curve $-1 -24.377178355118048 46.818157846135819 5.7098097265168057 0 0.83867057594974714 0.54463902268945019 1 0 0 1 I I #
point $-1 -23.377178355118048 48.006660552951409 6.4816323840254153 #
edge $-1 $855 1 $855 0 $526 $-1 forward 7 unknown #
vertex $-1 $527 $856 #
ellipse-curve $-1 -18.174223170151912 46.818157846135819 5.7098097265168057 0 0.83867057594974714 0.54463902268945019 1 0 0 1 I I #
point $-1 -17.174223170151912 48.006660552951409 6.4816323840254153 #
edge $-1 $857 1 $857 0 $530 $-1 forward 7 unknown #
vertex $-1 $531 $858 #
ellipse-curve $-1 -11.971267985185776 46.818157846135819 5.7098097265168057 0 0.83867057594974714 0.54463902268945019 1 0 0 1 I I #
point $-1 -10.971267985185776 48.006660552951409 6.4816323840254153 #
loop $-1 $-1 $542 $534 #
plane-surface $-1 0 50.472640004439924 0 0 -1 0 0 0 -1 forward_v I I I I #
coedge $-1 $726 $537 $539 $730 reversed $363 $-1 #
coedge $-1 $537 $725 $859 $860 reversed $363 $-1 #
coedge $-1 $545 $540 $537 $728 forward $535 $-1 #
edge $-1 $731 -18.304782988417408 $861 -13.372824085440406 $727 $862 forward 7 unknown #
coedge $-1 $539 $538 $734 $863 reversed $229 $-1 #
edge $-1 $864 -100.94528000887982 $731 -91.889816302620233 $725 $865 forward 7 unknown #
vertex $-1 $541 $866 #
straight-curve $-1 9.4105770297363591 45.54068110146293 10.278907865035805 1 0 0 I I #
coedge $-1 $859 $542 $545 $738 reversed $723 $-1 #
coedge $-1 $542 $859 $729 $863 forward $723 $-1 #
vertex $-1 $543 $867 #
straight-curve $-1 8.4828954178624887 50.472640004439924 86.596971641609514 0 0 1 I I #
straight-curve $-1 8.4828954178624887 -4.5060986447092688 87.34419302747078 0 0.54463902268945019 -0.83867057594974714 I I #
edge $-1 $861 -29.15941270108295 $546 -8.4828954178624887 $733 $868 forward 7 unknown #
point $-1 8.4828954178624887 50.472640004439924 10.2789078650358 #
point $-1 8.4828954178624887 45.540681101462923 10.278907865035805 #
edge $-1 $869 1 $869 0 $549 $-1 forward 7 unknown #
vertex $-1 $550 $870 #
ellipse-curve $-1 12.618198874506589 46.818157846135819 5.7098097265168057 0 0.83867057594974714 0.54463902268945019 1 0 0 1 I I #
point $-1 13.618198874506589 48.006660552951409 6.4816323840254153 #
edge $-1 $871 1 $871 0 $553 $-1 forward 7 unknown #
vertex $-1 $554 $872 #
ellipse-curve $-1 18.821154059472718 46.818157846135819 5.7098097265168057 0 0.83867057594974714 0.54463902268945019 1 0 0 1 I I #
point $-1 19.821154059472718 48.006660552951409 6.4816323840254153 #
edge $-1 $873 1 $873 0 $557 $-1 forward 7 unknown #
vertex $-1 $558 $874 #
ellipse-curve $-1 25.024109244438847 46.818157846135819 5.7098097265168057 0 0.83867057594974714 0.54463902268945019 1 0 0 1 I I #
point $-1 26.024109244438847 48.006660552951409 6.4816323840254153 #
loop $-1 $-1 $569 $561 #
plane-surface $-1 0 50.472640004439924 0 0 -1 0 0 0 -1 forward_v I I I I #
coedge $-1 $756 $564 $566 $760 reversed $392 $-1 #
coedge $-1 $564 $755 $875 $876 reversed $392 $-1 #
coedge $-1 $572 $567 $564 $758 forward $562 $-1 #
edge $-1 $761 -18.304782988417408 $877 -13.372824085440406 $757 $878 forward 7 unknown #
coedge $-1 $566 $565 $764 $879 reversed $248 $-1 #
edge $-1 $880 -100.94528000887982 $761 -91.889816302620233 $755 $881 forward 7 unknown #
vertex $-1 $568 $882 #
straight-curve $-1 27.908265644548678 45.54068110146293 10.278907865035805 1 0 0 I I #
coedge $-1 $875 $569 $572 $768 reversed $753 $-1 #
coedge $-1 $569 $875 $759 $879 forward $753 $-1 #
vertex $-1 $570 $883 #
straight-curve $-1 45.478272647487124 50.472640004439924 86.596971641609514 0 0 1 I I #
straight-curve $-1 45.478272647487124 -4.5060986447092688 87.34419302747078 0 0.54463902268945019 -0.83867057594974714 I I #
edge $-1 $877 -66.15478993070758 $573 -45.478272647487124 $763 $884 forward 7 unknown #
point $-1 45.478272647487124 50.472640004439924 10.2789078650358 #
point $-1 45.478272647487124 45.540681101462923 10.278907865035805 #
edge $-1 $885 1 $885 0 $576 $-1 forward 7 unknown #
vertex $-1 $577 $886 #
ellipse-curve $-1 49.613576104131226 46.818157846135819 5.7098097265168057 0 0.83867057594974714 0.54463902268945019 1 0 0 1 I I #
point $-1 50.613576104131226 48.006660552951409 6.4816323840254153 #
edge $-1 $887 1 $887 0 $580 $-1 forward 7 unknown #
vertex $-1 $581 $888 #
ellipse-curve $-1 55.816531289097355 46.818157846135819 5.7098097265168057 0 0.83867057594974714 0.54463902268945019 1 0 0 1 I I #
point $-1 56.816531289097355 48.006660552951409 6.4816323840254153 #
edge $-1 $889 1 $889 0 $584 $-1 forward 7 unknown #
vertex $-1 $585 $890 #
ellipse-curve $-1 62.019486474063484 46.818157846135819 5.7098097265168057 0 0.83867057594974714 0.54463902268945019 1 0 0 1 I I #
point $-1 63.019486474063484 48.006660552951409 6.4816323840254153 #
plane-surface $-1 78.813440351573234 0 0 -1 0 0 0 0 1 forward_v I I I I #
coedge $-1 $593 $591 $595 $788 reversed $421 $-1 #
edge $-1 $606 -10.2789078650358 $790 10.2789078650358 $605 $891 forward 7 unknown #
vertex $-1 $788 $892 #
straight-curve $-1 -78.813440351573234 -50.472640004439924 0 0 0 -1 I I #
edge $-1 $786 -50.472640004439924 $790 50.472640004439924 $784 $893 forward 7 unknown #
straight-curve $-1 0 -50.472640004439924 -10.2789078650358 -1 0 0 I I #
vertex $-1 $598 $894 #
straight-curve $-1 0 50.472640004439924 -10.2789078650358 1 0 0 I I #
point $-1 78.813440351573234 50.472640004439924 -10.2789078650358 #
point $-1 78.813440351573234 -50.472640004439924 -10.2789078650358 #
straight-curve $-1 -78.813440351573234 0 10.2789078650358 0 -1 0 I I #
point $-1 -78.813440351573234 50.472640004439924 10.2789078650358 #
point $-1 -78.813440351573234 -50.472640004439924 10.2789078650358 #
straight-curve $-1 78.813440351573234 -50.472640004439924 0 0 0 -1 I I #
straight-curve $-1 78.813440351573234 50.472640004439924 0 0 0 -1 I I #
plane-surface $-1 0 50.472640004439924 0 0 -1 0 0 0 -1 forward_v I I I I #
coedge $-1 $619 $618 $895 $896 forward $275 $-1 #
edge $-1 $622 69.168068566925285 $897 78.813440351573234 $621 $898 forward 7 unknown #
coedge $-1 $627 $626 $619 $803 reversed $628 $-1 #
edge $-1 $899 -78.813440351573234 $804 -69.168068566925285 $802 $900 forward 7 unknown #
vertex $-1 $634 $901 #
straight-curve $-1 -69.168068566925285 0 -10.2789078650358 0 -1 0 I I #
point $-1 -69.168068566925285 -50.472640004439924 -10.2789078650358 #
coedge $-1 $895 $624 $627 $810 forward $616 $-1 #
coedge $-1 $624 $895 $631 $812 reversed $616 $-1 #
straight-curve $-1 -78.813440351573234 0 -4.4271422747788094 0 1 0 I I #
edge $-1 $629 4.4271422747788094 $899 10.2789078650358 $627 $902 forward 7 unknown #
point $-1 -78.813440351573234 50.472640004439924 -4.4271422747788094 #
edge $-1 $632 4.4271422747788094 $897 10.2789078650358 $808 $903 forward 7 unknown #
point $-1 -78.813440351573234 -50.472640004439924 -4.4271422747788094 #
straight-curve $-1 -69.168068566925285 50.472640004439924 -3.6765125349536523 0 0 -1 I I #
edge $-1 $816 14.17040070151711 $819 19.433886069325979 $638 $904 forward 7 unknown #
vertex $-1 $642 $905 #
straight-curve $-1 45.714783138340366 -50.472640004439924 71.87445775768532 0 0 1 I I #
edge $-1 $819 -32.087437297796676 $649 4.8327456167092961 $648 $906 forward 7 unknown #
vertex $-1 $818 $907 #
straight-curve $-1 45.714783138340366 -50.472640004439924 7.2400331167713716 0 -0.8660253999169214 -0.50000000669873634 I I #
point $-1 45.714783138340366 -50.472640004439924 7.2400331167713716 #
point $-1 8.7946002238343937 -45.209154636631055 10.2789078650358 #
straight-curve $-1 0 -50.472640004439924 10.2789078650358 1 0 0 I I #
vertex $-1 $655 $908 #
point $-1 20.843223913693237 -45.386453792672427 4.5082496722770031 #
vertex $-1 $659 $909 #
point $-1 36.666159448481508 -45.386453792672427 4.5082496722770031 #
edge $-1 $829 76.318063776573709 $832 83.912614738594456 $664 $910 forward 7 unknown #
vertex $-1 $678 $911 #
straight-curve $-1 -44.83134175816631 63.845464089880331 10.278907865035805 0 1 0 I I #
edge $-1 $832 17.246541558278039 $675 37.923058841498495 $674 $912 forward 7 unknown #
vertex $-1 $831 $913 #
straight-curve $-1 -44.83134175816631 -4.5060986447092688 87.34419302747078 0 -0.54463902268945019 0.83867057594974714 I I #
point $-1 -44.83134175816631 45.540681101462923 10.278907865035805 #
point $-1 -65.507859041386766 50.472640004439924 2.6843569030150576 #
straight-curve $-1 0 50.472640004439924 10.2789078650358 -1 0 0 I I #
vertex $-1 $681 $914 #
point $-1 -60.372555584742678 46.818157846135819 5.7098097265168057 #
vertex $-1 $685 $915 #
point $-1 -54.169600399776542 46.818157846135819 5.7098097265168057 #
vertex $-1 $689 $916 #
point $-1 -47.966645214810406 46.818157846135819 5.7098097265168057 #
coedge $-1 $704 $703 $696 $844 forward $693 $-1 #
edge $-1 $845 76.318063776573709 $848 83.912614738594456 $843 $917 forward 7 unknown #
vertex $-1 $708 $918 #
straight-curve $-1 -7.8359645285416821 63.845464089880331 10.278907865035805 0 1 0 I I #
edge $-1 $848 -1.2511470565342737 $705 19.425370226686187 $704 $919 forward 7 unknown #
vertex $-1 $847 $920 #
straight-curve $-1 -7.8359645285416821 -4.5060986447092688 87.34419302747078 0 -0.54463902268945019 0.83867057594974714 I I #
point $-1 -7.8359645285416821 45.540681101462923 10.278907865035805 #
point $-1 -28.512481811762143 50.472640004439924 2.6843569030150576 #
straight-curve $-1 0 50.472640004439924 10.2789078650358 -1 0 0 I I #
vertex $-1 $711 $921 #
point $-1 -23.377178355118048 46.818157846135819 5.7098097265168057 #
vertex $-1 $715 $922 #
point $-1 -17.174223170151912 46.818157846135819 5.7098097265168057 #
vertex $-1 $719 $923 #
point $-1 -10.971267985185776 46.818157846135819 5.7098097265168057 #
coedge $-1 $734 $733 $726 $860 forward $723 $-1 #
edge $-1 $861 76.318063776573709 $864 83.912614738594456 $859 $924 forward 7 unknown #
vertex $-1 $738 $925 #
straight-curve $-1 29.15941270108295 63.845464089880331 10.278907865035805 0 1 0 I I #
edge $-1 $864 -19.74883567134659 $735 0.92768161187387044 $734 $926 forward 7 unknown #
vertex $-1 $863 $927 #
straight-curve $-1 29.15941270108295 -4.5060986447092688 87.34419302747078 0 -0.54463902268945019 0.83867057594974714 I I #
point $-1 29.15941270108295 45.540681101462923 10.278907865035805 #
point $-1 8.4828954178624887 50.472640004439924 2.6843569030150576 #
straight-curve $-1 0 50.472640004439924 10.2789078650358 -1 0 0 I I #
vertex $-1 $741 $928 #
point $-1 13.618198874506589 46.818157846135819 5.7098097265168057 #
vertex $-1 $745 $929 #
point $-1 19.821154059472718 46.818157846135819 5.7098097265168057 #
vertex $-1 $749 $930 #
point $-1 26.024109244438847 46.818157846135819 5.7098097265168057 #
coedge $-1 $764 $763 $756 $876 forward $753 $-1 #
edge $-1 $877 76.318063776573709 $880 83.912614738594456 $875 $931 forward 7 unknown #
vertex $-1 $768 $932 #
straight-curve $-1 66.15478993070758 63.845464089880331 10.278907865035805 0 1 0 I I #
edge $-1 $880 -38.246524286158902 $765 -17.570007002938446 $764 $933 forward 7 unknown #
vertex $-1 $879 $934 #
straight-curve $-1 66.15478993070758 -4.5060986447092688 87.34419302747078 0 -0.54463902268945019 0.83867057594974714 I I #
point $-1 66.15478993070758 45.540681101462923 10.278907865035805 #
point $-1 45.478272647487124 50.472640004439924 2.6843569030150576 #
straight-curve $-1 0 50.472640004439924 10.2789078650358 -1 0 0 I I #
vertex $-1 $771 $935 #
point $-1 50.613576104131226 46.818157846135819 5.7098097265168057 #
vertex $-1 $775 $936 #
point $-1 56.816531289097355 46.818157846135819 5.7098097265168057 #
vertex $-1 $779 $937 #
point $-1 63.019486474063484 46.818157846135819 5.7098097265168057 #
straight-curve $-1 -78.813440351573234 50.472640004439924 0 0 0 -1 I I #
point $-1 -78.813440351573234 -50.472640004439924 -10.2789078650358 #
straight-curve $-1 -78.813440351573234 0 -10.2789078650358 0 1 0 I I #
point $-1 -78.813440351573234 50.472640004439924 -10.2789078650358 #
coedge $-1 $808 $807 $800 $896 reversed $616 $-1 #
edge $-1 $897 -50.472640004439924 $899 50.472640004439924 $895 $938 forward 7 unknown #
vertex $-1 $896 $939 #
straight-curve $-1 0 -50.472640004439924 -10.2789078650358 -1 0 0 I I #
vertex $-1 $803 $940 #
straight-curve $-1 0 50.472640004439924 -10.2789078650358 1 0 0 I I #
point $-1 -69.168068566925285 50.472640004439924 -10.2789078650358 #
straight-curve $-1 -78.813440351573234 50.472640004439924 0 0 0 -1 I I #
straight-curve $-1 -78.813440351573234 -50.472640004439924 0 0 0 -1 I I #
straight-curve $-1 45.714783138340366 -64.643040705957034 10.278907865035805 0 1 0 I I #
point $-1 45.714783138340366 -50.472640004439924 10.2789078650358 #
straight-curve $-1 13.62734584054369 -45.209154636631055 10.2789078650358 -1 0 0 I I #
point $-1 45.714783138340366 -45.209154636631055 10.2789078650358 #
point $-1 19.343223913693237 -44.636453782624315 3.209211572401621 #
point $-1 35.166159448481508 -44.636453782624315 3.209211572401621 #
straight-curve $-1 -44.83134175816631 50.472640004439924 86.596971641609514 0 0 -1 I I #
point $-1 -44.83134175816631 50.472640004439924 10.2789078650358 #
straight-curve $-1 -27.584800199888271 50.472640004439924 2.6843569030150505 -1 0 0 I I #
point $-1 -44.83134175816631 50.472640004439924 2.6843569030150576 #
point $-1 -61.372555584742678 45.97948727018607 5.1651707038273571 #
point $-1 -55.169600399776542 45.97948727018607 5.1651707038273571 #
point $-1 -48.966645214810406 45.97948727018607 5.1651707038273571 #
straight-curve $-1 -7.8359645285416821 50.472640004439924 86.596971641609514 0 0 -1 I I #
point $-1 -7.8359645285416821 50.472640004439924 10.2789078650358 #
straight-curve $-1 -9.0871115850759558 50.472640004439924 2.6843569030150505 -1 0 0 I I #
point $-1 -7.8359645285416821 50.472640004439924 2.6843569030150576 #
point $-1 -24.377178355118048 45.97948727018607 5.1651707038273571 #
point $-1 -18.174223170151912 45.97948727018607 5.1651707038273571 #
point $-1 -11.971267985185776 45.97948727018607 5.1651707038273571 #
straight-curve $-1 29.15941270108295 50.472640004439924 86.596971641609514 0 0 -1 I I #
point $-1 29.15941270108295 50.472640004439924 10.2789078650358 #
straight-curve $-1 9.4105770297363591 50.472640004439924 2.6843569030150505 -1 0 0 I I #
point $-1 29.15941270108295 50.472640004439924 2.6843569030150576 #
point $-1 12.618198874506589 45.97948727018607 5.1651707038273571 #
point $-1 18.821154059472718 45.97948727018607 5.1651707038273571 #
point $-1 25.024109244438847 45.97948727018607 5.1651707038273571 #
straight-curve $-1 66.15478993070758 50.472640004439924 86.596971641609514 0 0 -1 I I #
point $-1 66.15478993070758 50.472640004439924 10.2789078650358 #
straight-curve $-1 27.908265644548678 50.472640004439924 2.6843569030150505 -1 0 0 I I #
point $-1 66.15478993070758 50.472640004439924 2.6843569030150576 #
point $-1 49.613576104131226 45.97948727018607 5.1651707038273571 #
point $-1 55.816531289097355 45.97948727018607 5.1651707038273571 #
point $-1 62.019486474063484 45.97948727018607 5.1651707038273571 #
straight-curve $-1 -78.813440351573234 0 -10.2789078650358 0 1 0 I I #
point $-1 -78.813440351573234 -50.472640004439924 -10.2789078650358 #
point $-1 -78.813440351573234 50.472640004439924 -10.2789078650358 #
End-of-ACIS-data 