500 0 21 0           
7 Unknown 11 ACIS 5.0 NT 24 Thu Mar 25 19:45:53 1999 
-1 9.9999999999999995e-007 1e-010 
body $-1 $21 $-1 $22 #
body $-1 $23 $-1 $24 #
body $-1 $25 $-1 $26 #
body $-1 $27 $-1 $28 #
body $-1 $29 $-1 $30 #
body $-1 $31 $-1 $32 #
body $-1 $33 $-1 $34 #
body $-1 $35 $-1 $36 #
body $-1 $37 $-1 $38 #
body $-1 $39 $-1 $40 #
body $-1 $41 $-1 $42 #
body $-1 $43 $-1 $44 #
body $-1 $45 $-1 $46 #
body $-1 $47 $-1 $48 #
body $-1 $49 $-1 $50 #
body $-1 $51 $-1 $52 #
body $-1 $53 $-1 $54 #
body $-1 $55 $-1 $56 #
body $-1 $57 $-1 $58 #
body $-1 $59 $-1 $60 #
body $-1 $61 $-1 $62 #
lump $-1 $-1 $63 $0 #
transform $-1 1 0 0 0 1 0 0 0 1 48.072756126590775 27.350870407458533 6.2712431549509171 1 rotate no_reflect no_shear #
lump $-1 $-1 $64 $1 #
transform $-1 1 0 0 0 1 0 0 0 1 48.072756126590775 2.4631763482838926 11.042486309901834 1 rotate no_reflect no_shear #
lump $-1 $-1 $65 $2 #
transform $-1 1 0 0 0 1 0 0 0 1 48.072756126590775 52.238564466633179 11.042486309901834 1 rotate no_reflect no_shear #
lump $-1 $-1 $66 $3 #
transform $-1 0.84804809178421925 0 0.52991927123019833 0 1 0 -0.52991927123019833 0 0.84804809178421925 -50.949359785260057 10.904110403049325 90.642032599875236 1 rotate no_reflect no_shear #
lump $-1 $-1 $67 $4 #
transform $-1 0.84804809178421925 0 0.52991927123019833 0 -1 0 0.52991927123019833 0 -0.84804809178421925 3.4121513663427727 9.076740515624218 9.7641902401948251 1 rotate no_reflect no_shear #
lump $-1 $-1 $68 $5 #
transform $-1 0.84804809178421925 0 0.52991927123019833 0 -1 0 0.52991927123019833 0 -0.84804809178421925 3.4121513663427727 10.904110403049325 9.7641902401948251 1 rotate no_reflect no_shear #
lump $-1 $-1 $69 $6 #
transform $-1 0.84804809178421925 0 0.52991927123019833 0 -1 0 0.52991927123019833 0 -0.84804809178421925 3.4121513663427727 12.731480290474432 9.7641902401948251 1 rotate no_reflect no_shear #
lump $-1 $-1 $70 $7 #
transform $-1 0.84804809178421925 0 0.52991927123019833 0 1 0 -0.52991927123019833 0 0.84804809178421925 -50.949359785260057 21.868617072655464 90.642032599875236 1 rotate no_reflect no_shear #
lump $-1 $-1 $71 $8 #
transform $-1 0.84804809178421925 0 0.52991927123019833 0 -1 0 0.52991927123019833 0 -0.84804809178421925 3.4121513663427727 20.041247185230358 9.7641902401948251 1 rotate no_reflect no_shear #
lump $-1 $-1 $72 $9 #
transform $-1 0.84804809178421925 0 0.52991927123019833 0 -1 0 0.52991927123019833 0 -0.84804809178421925 3.4121513663427727 21.868617072655464 9.7641902401948251 1 rotate no_reflect no_shear #
lump $-1 $-1 $73 $10 #
transform $-1 0.84804809178421925 0 0.52991927123019833 0 -1 0 0.52991927123019833 0 -0.84804809178421925 3.4121513663427727 23.695986960080571 9.7641902401948251 1 rotate no_reflect no_shear #
lump $-1 $-1 $74 $11 #
transform $-1 0.84804809178421925 0 0.52991927123019833 0 1 0 -0.52991927123019833 0 0.84804809178421925 -50.949359785260057 32.833123742261606 90.642032599875236 1 rotate no_reflect no_shear #
lump $-1 $-1 $75 $12 #
transform $-1 0.84804809178421925 0 0.52991927123019833 0 -1 0 0.52991927123019833 0 -0.84804809178421925 3.4121513663427727 31.005753854836499 9.7641902401948251 1 rotate no_reflect no_shear #
lump $-1 $-1 $76 $13 #
transform $-1 0.84804809178421925 0 0.52991927123019833 0 -1 0 0.52991927123019833 0 -0.84804809178421925 3.4121513663427727 32.833123742261606 9.7641902401948251 1 rotate no_reflect no_shear #
lump $-1 $-1 $77 $14 #
transform $-1 0.84804809178421925 0 0.52991927123019833 0 -1 0 0.52991927123019833 0 -0.84804809178421925 3.4121513663427727 34.660493629686712 9.7641902401948251 1 rotate no_reflect no_shear #
lump $-1 $-1 $78 $15 #
transform $-1 0.84804809178421925 0 0.52991927123019833 0 1 0 -0.52991927123019833 0 0.84804809178421925 -50.949359785260057 43.797630411867743 90.642032599875236 1 rotate no_reflect no_shear #
lump $-1 $-1 $79 $16 #
transform $-1 0.84804809178421925 0 0.52991927123019833 0 -1 0 0.52991927123019833 0 -0.84804809178421925 3.4121513663427727 41.970260524442637 9.7641902401948251 1 rotate no_reflect no_shear #
lump $-1 $-1 $80 $17 #
transform $-1 0.84804809178421925 0 0.52991927123019833 0 -1 0 0.52991927123019833 0 -0.84804809178421925 3.4121513663427727 43.797630411867743 9.7641902401948251 1 rotate no_reflect no_shear #
lump $-1 $-1 $81 $18 #
transform $-1 0.84804809178421925 0 0.52991927123019833 0 -1 0 0.52991927123019833 0 -0.84804809178421925 3.4121513663427727 45.62500029929285 9.7641902401948251 1 rotate no_reflect no_shear #
lump $-1 $-1 $82 $19 #
transform $-1 0.80901698891910034 0 -0.5877852598018023 0 1 0 0.5877852598018023 0 0.80901698891910034 74.875074330541821 16.599340303298042 143.67233164304275 1 rotate no_reflect no_shear #
lump $-1 $-1 $83 $20 #
transform $-1 0.80901698891910034 0 -0.5877852598018023 0 -1 0 -0.5877852598018023 0 -0.80901698891910034 91.524042616491926 16.599340303298042 7.5976462033785594 1 rotate no_reflect no_shear #
shell $-1 $-1 $-1 $84 $-1 $21 #
shell $-1 $-1 $-1 $85 $-1 $23 #
shell $-1 $-1 $-1 $86 $-1 $25 #
shell $-1 $-1 $-1 $87 $-1 $27 #
shell $-1 $-1 $-1 $88 $-1 $29 #
shell $-1 $-1 $-1 $89 $-1 $31 #
shell $-1 $-1 $-1 $90 $-1 $33 #
shell $-1 $-1 $-1 $91 $-1 $35 #
shell $-1 $-1 $-1 $92 $-1 $37 #
shell $-1 $-1 $-1 $93 $-1 $39 #
shell $-1 $-1 $-1 $94 $-1 $41 #
shell $-1 $-1 $-1 $95 $-1 $43 #
shell $-1 $-1 $-1 $96 $-1 $45 #
shell $-1 $-1 $-1 $97 $-1 $47 #
shell $-1 $-1 $-1 $98 $-1 $49 #
shell $-1 $-1 $-1 $99 $-1 $51 #
shell $-1 $-1 $-1 $100 $-1 $53 #
shell $-1 $-1 $-1 $101 $-1 $55 #
shell $-1 $-1 $-1 $102 $-1 $57 #
shell $-1 $-1 $-1 $103 $-1 $59 #
shell $-1 $-1 $-1 $104 $-1 $61 #
face $-1 $105 $106 $63 $-1 $107 forward single #
face $-1 $108 $109 $64 $-1 $110 forward single #
face $-1 $111 $112 $65 $-1 $113 forward single #
face $-1 $114 $115 $66 $-1 $116 forward single #
face $-1 $117 $118 $67 $-1 $119 forward single #
face $-1 $120 $121 $68 $-1 $122 forward single #
face $-1 $123 $124 $69 $-1 $125 forward single #
face $-1 $126 $127 $70 $-1 $128 forward single #
face $-1 $129 $130 $71 $-1 $131 forward single #
face $-1 $132 $133 $72 $-1 $134 forward single #
face $-1 $135 $136 $73 $-1 $137 forward single #
face $-1 $138 $139 $74 $-1 $140 forward single #
face $-1 $141 $142 $75 $-1 $143 forward single #
face $-1 $144 $145 $76 $-1 $146 forward single #
face $-1 $147 $148 $77 $-1 $149 forward single #
face $-1 $150 $151 $78 $-1 $152 forward single #
face $-1 $153 $154 $79 $-1 $155 forward single #
face $-1 $156 $157 $80 $-1 $158 forward single #
face $-1 $159 $160 $81 $-1 $161 forward single #
face $-1 $162 $163 $82 $-1 $164 forward single #
face $-1 $165 $166 $83 $-1 $167 forward single #
face $-1 $168 $169 $63 $-1 $170 reversed single #
loop $-1 $-1 $171 $84 #
plane-surface $-1 0 0 6.2712431549509171 0 0 1 1 0 0 forward_v I I I I #
face $-1 $172 $173 $64 $-1 $174 reversed single #
loop $-1 $-1 $175 $85 #
plane-surface $-1 0 0 1.5 0 0 1 1 0 0 forward_v I I I I #
face $-1 $176 $177 $65 $-1 $178 reversed single #
loop $-1 $-1 $179 $86 #
plane-surface $-1 0 0 1.5 0 0 1 1 0 0 forward_v I I I I #
face $-1 $180 $181 $66 $-1 $182 reversed single #
loop $-1 $-1 $183 $87 #
plane-surface $-1 0 0 96.14551225318155 0 0 1 1 0 0 forward_v I I I I #
face $-1 $184 $185 $67 $-1 $186 forward single #
loop $-1 $187 $188 $88 #
cone-surface $-1 0 0 -0.75 0 0 1 0.5 0 0 1 I I 0 1 0.5 forward I I I I #
face $-1 $189 $190 $68 $-1 $191 forward single #
loop $-1 $192 $193 $89 #
cone-surface $-1 0 0 -0.75 0 0 1 0.5 0 0 1 I I 0 1 0.5 forward I I I I #
face $-1 $194 $195 $69 $-1 $196 forward single #
loop $-1 $197 $198 $90 #
cone-surface $-1 0 0 -0.75 0 0 1 0.5 0 0 1 I I 0 1 0.5 forward I I I I #
face $-1 $199 $200 $70 $-1 $201 reversed single #
loop $-1 $-1 $202 $91 #
plane-surface $-1 0 0 96.14551225318155 0 0 1 1 0 0 forward_v I I I I #
face $-1 $203 $204 $71 $-1 $205 forward single #
loop $-1 $206 $207 $92 #
cone-surface $-1 0 0 -0.75 0 0 1 0.5 0 0 1 I I 0 1 0.5 forward I I I I #
face $-1 $208 $209 $72 $-1 $210 forward single #
loop $-1 $211 $212 $93 #
cone-surface $-1 0 0 -0.75 0 0 1 0.5 0 0 1 I I 0 1 0.5 forward I I I I #
face $-1 $213 $214 $73 $-1 $215 forward single #
loop $-1 $216 $217 $94 #
cone-surface $-1 0 0 -0.75 0 0 1 0.5 0 0 1 I I 0 1 0.5 forward I I I I #
face $-1 $218 $219 $74 $-1 $220 reversed single #
loop $-1 $-1 $221 $95 #
plane-surface $-1 0 0 96.14551225318155 0 0 1 1 0 0 forward_v I I I I #
face $-1 $222 $223 $75 $-1 $224 forward single #
loop $-1 $225 $226 $96 #
cone-surface $-1 0 0 -0.75 0 0 1 0.5 0 0 1 I I 0 1 0.5 forward I I I I #
face $-1 $227 $228 $76 $-1 $229 forward single #
loop $-1 $230 $231 $97 #
cone-surface $-1 0 0 -0.75 0 0 1 0.5 0 0 1 I I 0 1 0.5 forward I I I I #
face $-1 $232 $233 $77 $-1 $234 forward single #
loop $-1 $235 $236 $98 #
cone-surface $-1 0 0 -0.75 0 0 1 0.5 0 0 1 I I 0 1 0.5 forward I I I I #
face $-1 $237 $238 $78 $-1 $239 reversed single #
loop $-1 $-1 $240 $99 #
plane-surface $-1 0 0 96.14551225318155 0 0 1 1 0 0 forward_v I I I I #
face $-1 $241 $242 $79 $-1 $243 forward single #
loop $-1 $244 $245 $100 #
cone-surface $-1 0 0 -0.75 0 0 1 0.5 0 0 1 I I 0 1 0.5 forward I I I I #
face $-1 $246 $247 $80 $-1 $248 forward single #
loop $-1 $249 $250 $101 #
cone-surface $-1 0 0 -0.75 0 0 1 0.5 0 0 1 I I 0 1 0.5 forward I I I I #
face $-1 $251 $252 $81 $-1 $253 forward single #
loop $-1 $254 $255 $102 #
cone-surface $-1 0 0 -0.75 0 0 1 0.5 0 0 1 I I 0 1 0.5 forward I I I I #
face $-1 $256 $257 $82 $-1 $258 reversed single #
loop $-1 $-1 $259 $103 #
plane-surface $-1 0 0 96.14551225318155 0 0 1 1 0 0 forward_v I I I I #
face $-1 $260 $261 $83 $-1 $262 forward single #
loop $-1 $263 $264 $104 #
cone-surface $-1 0 0 -2.3276009399700923 0 0 1 1 0 0 1 I I 0 1 1 forward I I I I #
face $-1 $265 $266 $63 $-1 $267 reversed single #
loop $-1 $-1 $268 $105 #
plane-surface $-1 0 0 -6.2712431549509171 0 0 1 1 0 0 forward_v I I I I #
coedge $-1 $269 $270 $271 $272 forward $106 $-1 #
face $-1 $273 $274 $64 $-1 $275 reversed single #
loop $-1 $-1 $276 $108 #
plane-surface $-1 0 0 -1.5 0 0 1 1 0 0 forward_v I I I I #
coedge $-1 $277 $278 $279 $280 forward $109 $-1 #
face $-1 $281 $282 $65 $-1 $283 reversed single #
loop $-1 $-1 $284 $111 #
plane-surface $-1 0 0 -1.5 0 0 1 1 0 0 forward_v I I I I #
coedge $-1 $285 $286 $287 $288 forward $112 $-1 #
face $-1 $289 $290 $66 $-1 $291 reversed single #
loop $-1 $-1 $292 $114 #
plane-surface $-1 0 0 -96.14551225318155 0 0 1 1 0 0 forward_v I I I I #
coedge $-1 $293 $294 $295 $296 forward $115 $-1 #
face $-1 $-1 $297 $67 $-1 $298 forward single #
loop $-1 $-1 $299 $117 #
plane-surface $-1 0 0 -1.25 0 0 -1 -1 0 0 forward_v I I I I #
loop $-1 $-1 $300 $88 #
coedge $-1 $188 $188 $299 $301 reversed $118 $-1 #
face $-1 $-1 $302 $68 $-1 $303 forward single #
loop $-1 $-1 $304 $120 #
plane-surface $-1 0 0 -1.25 0 0 -1 -1 0 0 forward_v I I I I #
loop $-1 $-1 $305 $89 #
coedge $-1 $193 $193 $304 $306 reversed $121 $-1 #
face $-1 $-1 $307 $69 $-1 $308 forward single #
loop $-1 $-1 $309 $123 #
plane-surface $-1 0 0 -1.25 0 0 -1 -1 0 0 forward_v I I I I #
loop $-1 $-1 $310 $90 #
coedge $-1 $198 $198 $309 $311 reversed $124 $-1 #
face $-1 $312 $313 $70 $-1 $314 reversed single #
loop $-1 $-1 $315 $126 #
plane-surface $-1 0 0 -96.14551225318155 0 0 1 1 0 0 forward_v I I I I #
coedge $-1 $316 $317 $318 $319 forward $127 $-1 #
face $-1 $-1 $320 $71 $-1 $321 forward single #
loop $-1 $-1 $322 $129 #
plane-surface $-1 0 0 -1.25 0 0 -1 -1 0 0 forward_v I I I I #
loop $-1 $-1 $323 $92 #
coedge $-1 $207 $207 $322 $324 reversed $130 $-1 #
face $-1 $-1 $325 $72 $-1 $326 forward single #
loop $-1 $-1 $327 $132 #
plane-surface $-1 0 0 -1.25 0 0 -1 -1 0 0 forward_v I I I I #
loop $-1 $-1 $328 $93 #
coedge $-1 $212 $212 $327 $329 reversed $133 $-1 #
face $-1 $-1 $330 $73 $-1 $331 forward single #
loop $-1 $-1 $332 $135 #
plane-surface $-1 0 0 -1.25 0 0 -1 -1 0 0 forward_v I I I I #
loop $-1 $-1 $333 $94 #
coedge $-1 $217 $217 $332 $334 reversed $136 $-1 #
face $-1 $335 $336 $74 $-1 $337 reversed single #
loop $-1 $-1 $338 $138 #
plane-surface $-1 0 0 -96.14551225318155 0 0 1 1 0 0 forward_v I I I I #
coedge $-1 $339 $340 $341 $342 forward $139 $-1 #
face $-1 $-1 $343 $75 $-1 $344 forward single #
loop $-1 $-1 $345 $141 #
plane-surface $-1 0 0 -1.25 0 0 -1 -1 0 0 forward_v I I I I #
loop $-1 $-1 $346 $96 #
coedge $-1 $226 $226 $345 $347 reversed $142 $-1 #
face $-1 $-1 $348 $76 $-1 $349 forward single #
loop $-1 $-1 $350 $144 #
plane-surface $-1 0 0 -1.25 0 0 -1 -1 0 0 forward_v I I I I #
loop $-1 $-1 $351 $97 #
coedge $-1 $231 $231 $350 $352 reversed $145 $-1 #
face $-1 $-1 $353 $77 $-1 $354 forward single #
loop $-1 $-1 $355 $147 #
plane-surface $-1 0 0 -1.25 0 0 -1 -1 0 0 forward_v I I I I #
loop $-1 $-1 $356 $98 #
coedge $-1 $236 $236 $355 $357 reversed $148 $-1 #
face $-1 $358 $359 $78 $-1 $360 reversed single #
loop $-1 $-1 $361 $150 #
plane-surface $-1 0 0 -96.14551225318155 0 0 1 1 0 0 forward_v I I I I #
coedge $-1 $362 $363 $364 $365 forward $151 $-1 #
face $-1 $-1 $366 $79 $-1 $367 forward single #
loop $-1 $-1 $368 $153 #
plane-surface $-1 0 0 -1.25 0 0 -1 -1 0 0 forward_v I I I I #
loop $-1 $-1 $369 $100 #
coedge $-1 $245 $245 $368 $370 reversed $154 $-1 #
face $-1 $-1 $371 $80 $-1 $372 forward single #
loop $-1 $-1 $373 $156 #
plane-surface $-1 0 0 -1.25 0 0 -1 -1 0 0 forward_v I I I I #
loop $-1 $-1 $374 $101 #
coedge $-1 $250 $250 $373 $375 reversed $157 $-1 #
face $-1 $-1 $376 $81 $-1 $377 forward single #
loop $-1 $-1 $378 $159 #
plane-surface $-1 0 0 -1.25 0 0 -1 -1 0 0 forward_v I I I I #
loop $-1 $-1 $379 $102 #
coedge $-1 $255 $255 $378 $380 reversed $160 $-1 #
face $-1 $381 $382 $82 $-1 $383 reversed single #
loop $-1 $-1 $384 $162 #
plane-surface $-1 0 0 -96.14551225318155 0 0 1 1 0 0 forward_v I I I I #
coedge $-1 $385 $386 $387 $388 forward $163 $-1 #
face $-1 $-1 $389 $83 $-1 $390 forward single #
loop $-1 $-1 $391 $165 #
plane-surface $-1 0 0 -4.1552018799401846 0 0 -1 -1 0 0 forward_v I I I I #
loop $-1 $-1 $392 $104 #
coedge $-1 $264 $264 $391 $393 reversed $166 $-1 #
face $-1 $394 $395 $63 $-1 $396 reversed single #
loop $-1 $-1 $397 $168 #
plane-surface $-1 0 -27.350870407458533 0 0 1 0 0 0 1 forward_v I I I I #
coedge $-1 $398 $399 $400 $401 forward $169 $-1 #
coedge $-1 $402 $171 $403 $404 forward $106 $-1 #
coedge $-1 $171 $402 $405 $406 forward $106 $-1 #
coedge $-1 $407 $408 $171 $272 reversed $409 $-1 #
edge $-1 $410 -27.350870407458533 $411 27.350870407458533 $271 $412 forward 7 unknown #
face $-1 $413 $414 $64 $-1 $415 reversed single #
loop $-1 $-1 $416 $172 #
plane-surface $-1 0 -2.4631763482838926 0 0 1 0 0 0 1 forward_v I I I I #
coedge $-1 $417 $418 $419 $420 forward $173 $-1 #
coedge $-1 $421 $175 $422 $423 forward $109 $-1 #
coedge $-1 $175 $421 $424 $425 forward $109 $-1 #
coedge $-1 $426 $427 $175 $280 reversed $428 $-1 #
edge $-1 $429 -2.4631763482838926 $430 2.4631763482838926 $279 $431 forward 7 unknown #
face $-1 $432 $433 $65 $-1 $434 reversed single #
loop $-1 $-1 $435 $176 #
plane-surface $-1 0 -2.4631763482838913 0 0 1 0 0 0 1 forward_v I I I I #
coedge $-1 $436 $437 $438 $439 forward $177 $-1 #
coedge $-1 $440 $179 $441 $442 forward $112 $-1 #
coedge $-1 $179 $440 $443 $444 forward $112 $-1 #
coedge $-1 $445 $446 $179 $288 reversed $447 $-1 #
edge $-1 $448 -2.4631763482838913 $449 2.4631763482838913 $287 $450 forward 7 unknown #
face $-1 $451 $452 $66 $-1 $453 reversed single #
loop $-1 $-1 $454 $180 #
plane-surface $-1 0 -3.0456164790418452 0 0 1 0 0 0 1 forward_v I I I I #
coedge $-1 $455 $456 $457 $458 forward $181 $-1 #
coedge $-1 $459 $183 $460 $461 forward $115 $-1 #
coedge $-1 $183 $459 $462 $463 forward $115 $-1 #
coedge $-1 $464 $465 $183 $296 reversed $466 $-1 #
edge $-1 $467 -3.0456164790418452 $468 3.0456164790418452 $295 $469 forward 7 unknown #
loop $-1 $470 $471 $184 #
cone-surface $-1 0 0 0 0 0 1 0.25 0 0 1 I I -0.70710678118654746 0.70710678118654746 0.25 forward I I I I #
coedge $-1 $299 $299 $188 $301 forward $185 $-1 #
coedge $-1 $300 $300 $471 $472 forward $187 $-1 #
edge $-1 $473 0 $473 6.2831853071796004 $299 $474 forward 7 unknown #
loop $-1 $475 $476 $189 #
cone-surface $-1 0 0 0 0 0 1 0.25 0 0 1 I I -0.70710678118654746 0.70710678118654746 0.25 forward I I I I #
coedge $-1 $304 $304 $193 $306 forward $190 $-1 #
coedge $-1 $305 $305 $476 $477 forward $192 $-1 #
edge $-1 $478 0 $478 6.2831853071796004 $304 $479 forward 7 unknown #
loop $-1 $480 $481 $194 #
cone-surface $-1 0 0 0 0 0 1 0.25 0 0 1 I I -0.70710678118654746 0.70710678118654746 0.25 forward I I I I #
coedge $-1 $309 $309 $198 $311 forward $195 $-1 #
coedge $-1 $310 $310 $481 $482 forward $197 $-1 #
edge $-1 $483 0 $483 6.2831853071796004 $309 $484 forward 7 unknown #
face $-1 $485 $486 $70 $-1 $487 reversed single #
loop $-1 $-1 $488 $199 #
plane-surface $-1 0 -3.0456164790418452 0 0 1 0 0 0 1 forward_v I I I I #
coedge $-1 $489 $490 $491 $492 forward $200 $-1 #
coedge $-1 $493 $202 $494 $495 forward $127 $-1 #
coedge $-1 $202 $493 $496 $497 forward $127 $-1 #
coedge $-1 $498 $499 $202 $319 reversed $500 $-1 #
edge $-1 $501 -3.0456164790418452 $502 3.0456164790418452 $318 $503 forward 7 unknown #
loop $-1 $504 $505 $203 #
cone-surface $-1 0 0 0 0 0 1 0.25 0 0 1 I I -0.70710678118654746 0.70710678118654746 0.25 forward I I I I #
coedge $-1 $322 $322 $207 $324 forward $204 $-1 #
coedge $-1 $323 $323 $505 $506 forward $206 $-1 #
edge $-1 $507 0 $507 6.2831853071796004 $322 $508 forward 7 unknown #
loop $-1 $509 $510 $208 #
cone-surface $-1 0 0 0 0 0 1 0.25 0 0 1 I I -0.70710678118654746 0.70710678118654746 0.25 forward I I I I #
coedge $-1 $327 $327 $212 $329 forward $209 $-1 #
coedge $-1 $328 $328 $510 $511 forward $211 $-1 #
edge $-1 $512 0 $512 6.2831853071796004 $327 $513 forward 7 unknown #
loop $-1 $514 $515 $213 #
cone-surface $-1 0 0 0 0 0 1 0.25 0 0 1 I I -0.70710678118654746 0.70710678118654746 0.25 forward I I I I #
coedge $-1 $332 $332 $217 $334 forward $214 $-1 #
coedge $-1 $333 $333 $515 $516 forward $216 $-1 #
edge $-1 $517 0 $517 6.2831853071796004 $332 $518 forward 7 unknown #
face $-1 $519 $520 $74 $-1 $521 reversed single #
loop $-1 $-1 $522 $218 #
plane-surface $-1 0 -3.0456164790418452 0 0 1 0 0 0 1 forward_v I I I I #
coedge $-1 $523 $524 $525 $526 forward $219 $-1 #
coedge $-1 $527 $221 $528 $529 forward $139 $-1 #
coedge $-1 $221 $527 $530 $531 forward $139 $-1 #
coedge $-1 $532 $533 $221 $342 reversed $534 $-1 #
edge $-1 $535 -3.0456164790418452 $536 3.0456164790418452 $341 $537 forward 7 unknown #
loop $-1 $538 $539 $222 #
cone-surface $-1 0 0 0 0 0 1 0.25 0 0 1 I I -0.70710678118654746 0.70710678118654746 0.25 forward I I I I #
coedge $-1 $345 $345 $226 $347 forward $223 $-1 #
coedge $-1 $346 $346 $539 $540 forward $225 $-1 #
edge $-1 $541 0 $541 6.2831853071796004 $345 $542 forward 7 unknown #
loop $-1 $543 $544 $227 #
cone-surface $-1 0 0 0 0 0 1 0.25 0 0 1 I I -0.70710678118654746 0.70710678118654746 0.25 forward I I I I #
coedge $-1 $350 $350 $231 $352 forward $228 $-1 #
coedge $-1 $351 $351 $544 $545 forward $230 $-1 #
edge $-1 $546 0 $546 6.2831853071796004 $350 $547 forward 7 unknown #
loop $-1 $548 $549 $232 #
cone-surface $-1 0 0 0 0 0 1 0.25 0 0 1 I I -0.70710678118654746 0.70710678118654746 0.25 forward I I I I #
coedge $-1 $355 $355 $236 $357 forward $233 $-1 #
coedge $-1 $356 $356 $549 $550 forward $235 $-1 #
edge $-1 $551 0 $551 6.2831853071796004 $355 $552 forward 7 unknown #
face $-1 $553 $554 $78 $-1 $555 reversed single #
loop $-1 $-1 $556 $237 #
plane-surface $-1 0 -3.0456164790418452 0 0 1 0 0 0 1 forward_v I I I I #
coedge $-1 $557 $558 $559 $560 forward $238 $-1 #
coedge $-1 $561 $240 $562 $563 forward $151 $-1 #
coedge $-1 $240 $561 $564 $565 forward $151 $-1 #
coedge $-1 $566 $567 $240 $365 reversed $568 $-1 #
edge $-1 $569 -3.0456164790418452 $570 3.0456164790418452 $364 $571 forward 7 unknown #
loop $-1 $572 $573 $241 #
cone-surface $-1 0 0 0 0 0 1 0.25 0 0 1 I I -0.70710678118654746 0.70710678118654746 0.25 forward I I I I #
coedge $-1 $368 $368 $245 $370 forward $242 $-1 #
coedge $-1 $369 $369 $573 $574 forward $244 $-1 #
edge $-1 $575 0 $575 6.2831853071796004 $368 $576 forward 7 unknown #
loop $-1 $577 $578 $246 #
cone-surface $-1 0 0 0 0 0 1 0.25 0 0 1 I I -0.70710678118654746 0.70710678118654746 0.25 forward I I I I #
coedge $-1 $373 $373 $250 $375 forward $247 $-1 #
coedge $-1 $374 $374 $578 $579 forward $249 $-1 #
edge $-1 $580 0 $580 6.2831853071796004 $373 $581 forward 7 unknown #
loop $-1 $582 $583 $251 #
cone-surface $-1 0 0 0 0 0 1 0.25 0 0 1 I I -0.70710678118654746 0.70710678118654746 0.25 forward I I I I #
coedge $-1 $378 $378 $255 $380 forward $252 $-1 #
coedge $-1 $379 $379 $583 $584 forward $254 $-1 #
edge $-1 $585 0 $585 6.2831853071796004 $378 $586 forward 7 unknown #
face $-1 $587 $588 $82 $-1 $589 reversed single #
loop $-1 $-1 $590 $256 #
plane-surface $-1 0 -3.8824983221023333 0 0 1 0 0 0 1 forward_v I I I I #
coedge $-1 $591 $592 $593 $594 forward $257 $-1 #
coedge $-1 $595 $259 $596 $597 forward $163 $-1 #
coedge $-1 $259 $595 $598 $599 forward $163 $-1 #
coedge $-1 $600 $601 $259 $388 reversed $602 $-1 #
edge $-1 $603 -3.8824983221023333 $604 3.8824983221023333 $387 $605 forward 7 unknown #
loop $-1 $606 $607 $260 #
cone-surface $-1 0 0 0 0 0 1 0.5 0 0 1 I I -0.70710678118654746 0.70710678118654746 0.5 forward I I I I #
coedge $-1 $391 $391 $264 $393 forward $261 $-1 #
coedge $-1 $392 $392 $607 $608 forward $263 $-1 #
edge $-1 $609 0 $609 6.2831853071796004 $391 $610 forward 7 unknown #
face $-1 $611 $612 $63 $-1 $613 reversed single #
loop $-1 $-1 $614 $265 #
plane-surface $-1 -48.072756126590775 0 0 1 0 0 0 0 -1 forward_v I I I I #
coedge $-1 $615 $405 $616 $617 forward $266 $-1 #
coedge $-1 $618 $268 $615 $619 forward $169 $-1 #
coedge $-1 $268 $618 $620 $621 forward $169 $-1 #
coedge $-1 $408 $407 $268 $401 reversed $409 $-1 #
edge $-1 $622 -27.350870407458533 $623 27.350870407458533 $400 $624 forward 7 unknown #
coedge $-1 $270 $269 $625 $626 forward $106 $-1 #
coedge $-1 $627 $628 $269 $404 reversed $612 $-1 #
edge $-1 $411 -48.072756126590775 $629 48.072756126590775 $403 $630 forward 7 unknown #
coedge $-1 $397 $631 $270 $406 reversed $266 $-1 #
edge $-1 $632 -48.072756126590775 $410 48.072756126590775 $405 $633 forward 7 unknown #
coedge $-1 $400 $271 $631 $634 forward $409 $-1 #
coedge $-1 $271 $400 $627 $635 reversed $409 $-1 #
loop $-1 $-1 $407 $611 #
vertex $-1 $272 $636 #
vertex $-1 $272 $637 #
straight-curve $-1 48.072756126590775 0 6.2712431549509171 0 1 0 I I #
face $-1 $638 $639 $64 $-1 $640 reversed single #
loop $-1 $-1 $641 $273 #
plane-surface $-1 -48.072756126590775 0 0 1 0 0 0 0 -1 forward_v I I I I #
coedge $-1 $642 $424 $643 $644 forward $274 $-1 #
coedge $-1 $645 $276 $642 $646 forward $173 $-1 #
coedge $-1 $276 $645 $647 $648 forward $173 $-1 #
coedge $-1 $427 $426 $276 $420 reversed $428 $-1 #
edge $-1 $649 -2.4631763482838926 $650 2.4631763482838926 $419 $651 forward 7 unknown #
coedge $-1 $278 $277 $652 $653 forward $109 $-1 #
coedge $-1 $654 $655 $277 $423 reversed $639 $-1 #
edge $-1 $430 -48.072756126590775 $656 48.072756126590775 $422 $657 forward 7 unknown #
coedge $-1 $416 $658 $278 $425 reversed $274 $-1 #
edge $-1 $659 -48.072756126590775 $429 48.072756126590775 $424 $660 forward 7 unknown #
coedge $-1 $419 $279 $658 $661 forward $428 $-1 #
coedge $-1 $279 $419 $654 $662 reversed $428 $-1 #
loop $-1 $-1 $426 $638 #
vertex $-1 $280 $663 #
vertex $-1 $280 $664 #
straight-curve $-1 48.072756126590775 0 1.5 0 1 0 I I #
face $-1 $665 $666 $65 $-1 $667 reversed single #
loop $-1 $-1 $668 $281 #
plane-surface $-1 -48.072756126590775 0 0 1 0 0 0 0 -1 forward_v I I I I #
coedge $-1 $669 $443 $670 $671 forward $282 $-1 #
coedge $-1 $672 $284 $669 $673 forward $177 $-1 #
coedge $-1 $284 $672 $674 $675 forward $177 $-1 #
coedge $-1 $446 $445 $284 $439 reversed $447 $-1 #
edge $-1 $676 -2.4631763482838913 $677 2.4631763482838913 $438 $678 forward 7 unknown #
coedge $-1 $286 $285 $679 $680 forward $112 $-1 #
coedge $-1 $681 $682 $285 $442 reversed $666 $-1 #
edge $-1 $449 -48.072756126590775 $683 48.072756126590775 $441 $684 forward 7 unknown #
coedge $-1 $435 $685 $286 $444 reversed $282 $-1 #
edge $-1 $686 -48.072756126590775 $448 48.072756126590775 $443 $687 forward 7 unknown #
coedge $-1 $438 $287 $685 $688 forward $447 $-1 #
coedge $-1 $287 $438 $681 $689 reversed $447 $-1 #
loop $-1 $-1 $445 $665 #
vertex $-1 $288 $690 #
vertex $-1 $288 $691 #
straight-curve $-1 48.072756126590775 0 1.5 0 1 0 I I #
face $-1 $692 $693 $66 $-1 $694 reversed single #
loop $-1 $-1 $695 $289 #
plane-surface $-1 -192.2910245063631 0 0 1 0 0 0 0 -1 forward_v I I I I #
coedge $-1 $696 $462 $697 $698 forward $290 $-1 #
coedge $-1 $699 $292 $696 $700 forward $181 $-1 #
coedge $-1 $292 $699 $701 $702 forward $181 $-1 #
coedge $-1 $465 $464 $292 $458 reversed $466 $-1 #
edge $-1 $703 -3.0456164790418452 $704 3.0456164790418452 $457 $705 forward 7 unknown #
coedge $-1 $294 $293 $706 $707 forward $115 $-1 #
coedge $-1 $708 $709 $293 $461 reversed $693 $-1 #
edge $-1 $468 -192.2910245063631 $710 192.2910245063631 $460 $711 forward 7 unknown #
coedge $-1 $454 $712 $294 $463 reversed $290 $-1 #
edge $-1 $713 -192.2910245063631 $467 192.2910245063631 $462 $714 forward 7 unknown #
coedge $-1 $457 $295 $712 $715 forward $466 $-1 #
coedge $-1 $295 $457 $708 $716 reversed $466 $-1 #
loop $-1 $-1 $464 $692 #
vertex $-1 $296 $717 #
vertex $-1 $296 $718 #
straight-curve $-1 192.2910245063631 0 96.14551225318155 0 1 0 I I #
loop $-1 $-1 $719 $184 #
coedge $-1 $471 $471 $300 $472 reversed $297 $-1 #
edge $-1 $720 0 $720 6.2831853071796004 $471 $721 forward 7 unknown #
vertex $-1 $301 $722 #
ellipse-curve $-1 0 0 -1.25 0 0 -1 0.5 0 0 1 I I #
loop $-1 $-1 $723 $189 #
coedge $-1 $476 $476 $305 $477 reversed $302 $-1 #
edge $-1 $724 0 $724 6.2831853071796004 $476 $725 forward 7 unknown #
vertex $-1 $306 $726 #
ellipse-curve $-1 0 0 -1.25 0 0 -1 0.5 0 0 1 I I #
loop $-1 $-1 $727 $194 #
coedge $-1 $481 $481 $310 $482 reversed $307 $-1 #
edge $-1 $728 0 $728 6.2831853071796004 $481 $729 forward 7 unknown #
vertex $-1 $311 $730 #
ellipse-curve $-1 0 0 -1.25 0 0 -1 0.5 0 0 1 I I #
face $-1 $731 $732 $70 $-1 $733 reversed single #
loop $-1 $-1 $734 $312 #
plane-surface $-1 -192.2910245063631 0 0 1 0 0 0 0 -1 forward_v I I I I #
coedge $-1 $735 $496 $736 $737 forward $313 $-1 #
coedge $-1 $738 $315 $735 $739 forward $200 $-1 #
coedge $-1 $315 $738 $740 $741 forward $200 $-1 #
coedge $-1 $499 $498 $315 $492 reversed $500 $-1 #
edge $-1 $742 -3.0456164790418452 $743 3.0456164790418452 $491 $744 forward 7 unknown #
coedge $-1 $317 $316 $745 $746 forward $127 $-1 #
coedge $-1 $747 $748 $316 $495 reversed $732 $-1 #
edge $-1 $502 -192.2910245063631 $749 192.2910245063631 $494 $750 forward 7 unknown #
coedge $-1 $488 $751 $317 $497 reversed $313 $-1 #
edge $-1 $752 -192.2910245063631 $501 192.2910245063631 $496 $753 forward 7 unknown #
coedge $-1 $491 $318 $751 $754 forward $500 $-1 #
coedge $-1 $318 $491 $747 $755 reversed $500 $-1 #
loop $-1 $-1 $498 $731 #
vertex $-1 $319 $756 #
vertex $-1 $319 $757 #
straight-curve $-1 192.2910245063631 0 96.14551225318155 0 1 0 I I #
loop $-1 $-1 $758 $203 #
coedge $-1 $505 $505 $323 $506 reversed $320 $-1 #
edge $-1 $759 0 $759 6.2831853071796004 $505 $760 forward 7 unknown #
vertex $-1 $324 $761 #
ellipse-curve $-1 0 0 -1.25 0 0 -1 0.5 0 0 1 I I #
loop $-1 $-1 $762 $208 #
coedge $-1 $510 $510 $328 $511 reversed $325 $-1 #
edge $-1 $763 0 $763 6.2831853071796004 $510 $764 forward 7 unknown #
vertex $-1 $329 $765 #
ellipse-curve $-1 0 0 -1.25 0 0 -1 0.5 0 0 1 I I #
loop $-1 $-1 $766 $213 #
coedge $-1 $515 $515 $333 $516 reversed $330 $-1 #
edge $-1 $767 0 $767 6.2831853071796004 $515 $768 forward 7 unknown #
vertex $-1 $334 $769 #
ellipse-curve $-1 0 0 -1.25 0 0 -1 0.5 0 0 1 I I #
face $-1 $770 $771 $74 $-1 $772 reversed single #
loop $-1 $-1 $773 $335 #
plane-surface $-1 -192.2910245063631 0 0 1 0 0 0 0 -1 forward_v I I I I #
coedge $-1 $774 $530 $775 $776 forward $336 $-1 #
coedge $-1 $777 $338 $774 $778 forward $219 $-1 #
coedge $-1 $338 $777 $779 $780 forward $219 $-1 #
coedge $-1 $533 $532 $338 $526 reversed $534 $-1 #
edge $-1 $781 -3.0456164790418452 $782 3.0456164790418452 $525 $783 forward 7 unknown #
coedge $-1 $340 $339 $784 $785 forward $139 $-1 #
coedge $-1 $786 $787 $339 $529 reversed $771 $-1 #
edge $-1 $536 -192.2910245063631 $788 192.2910245063631 $528 $789 forward 7 unknown #
coedge $-1 $522 $790 $340 $531 reversed $336 $-1 #
edge $-1 $791 -192.2910245063631 $535 192.2910245063631 $530 $792 forward 7 unknown #
coedge $-1 $525 $341 $790 $793 forward $534 $-1 #
coedge $-1 $341 $525 $786 $794 reversed $534 $-1 #
loop $-1 $-1 $532 $770 #
vertex $-1 $342 $795 #
vertex $-1 $342 $796 #
straight-curve $-1 192.2910245063631 0 96.14551225318155 0 1 0 I I #
loop $-1 $-1 $797 $222 #
coedge $-1 $539 $539 $346 $540 reversed $343 $-1 #
edge $-1 $798 0 $798 6.2831853071796004 $539 $799 forward 7 unknown #
vertex $-1 $347 $800 #
ellipse-curve $-1 0 0 -1.25 0 0 -1 0.5 0 0 1 I I #
loop $-1 $-1 $801 $227 #
coedge $-1 $544 $544 $351 $545 reversed $348 $-1 #
edge $-1 $802 0 $802 6.2831853071796004 $544 $803 forward 7 unknown #
vertex $-1 $352 $804 #
ellipse-curve $-1 0 0 -1.25 0 0 -1 0.5 0 0 1 I I #
loop $-1 $-1 $805 $232 #
coedge $-1 $549 $549 $356 $550 reversed $353 $-1 #
edge $-1 $806 0 $806 6.2831853071796004 $549 $807 forward 7 unknown #
vertex $-1 $357 $808 #
ellipse-curve $-1 0 0 -1.25 0 0 -1 0.5 0 0 1 I I #
face $-1 $809 $810 $78 $-1 $811 reversed single #
loop $-1 $-1 $812 $358 #
plane-surface $-1 -192.2910245063631 0 0 1 0 0 0 0 -1 forward_v I I I I #
coedge $-1 $813 $564 $814 $815 forward $359 $-1 #
coedge $-1 $816 $361 $813 $817 forward $238 $-1 #
coedge $-1 $361 $816 $818 $819 forward $238 $-1 #
coedge $-1 $567 $566 $361 $560 reversed $568 $-1 #
edge $-1 $820 -3.0456164790418452 $821 3.0456164790418452 $559 $822 forward 7 unknown #
coedge $-1 $363 $362 $823 $824 forward $151 $-1 #
coedge $-1 $825 $826 $362 $563 reversed $810 $-1 #
edge $-1 $570 -192.2910245063631 $827 192.2910245063631 $562 $828 forward 7 unknown #
coedge $-1 $556 $829 $363 $565 reversed $359 $-1 #
edge $-1 $830 -192.2910245063631 $569 192.2910245063631 $564 $831 forward 7 unknown #
coedge $-1 $559 $364 $829 $832 forward $568 $-1 #
coedge $-1 $364 $559 $825 $833 reversed $568 $-1 #
loop $-1 $-1 $566 $809 #
vertex $-1 $365 $834 #
vertex $-1 $365 $835 #
straight-curve $-1 192.2910245063631 0 96.14551225318155 0 1 0 I I #
loop $-1 $-1 $836 $241 #
coedge $-1 $573 $573 $369 $574 reversed $366 $-1 #
edge $-1 $837 0 $837 6.2831853071796004 $573 $838 forward 7 unknown #
vertex $-1 $370 $839 #
ellipse-curve $-1 0 0 -1.25 0 0 -1 0.5 0 0 1 I I #
loop $-1 $-1 $840 $246 #
coedge $-1 $578 $578 $374 $579 reversed $371 $-1 #
edge $-1 $841 0 $841 6.2831853071796004 $578 $842 forward 7 unknown #
vertex $-1 $375 $843 #
ellipse-curve $-1 0 0 -1.25 0 0 -1 0.5 0 0 1 I I #
loop $-1 $-1 $844 $251 #
coedge $-1 $583 $583 $379 $584 reversed $376 $-1 #
edge $-1 $845 0 $845 6.2831853071796004 $583 $846 forward 7 unknown #
vertex $-1 $380 $847 #
ellipse-curve $-1 0 0 -1.25 0 0 -1 0.5 0 0 1 I I #
face $-1 $848 $849 $82 $-1 $850 reversed single #
loop $-1 $-1 $851 $381 #
plane-surface $-1 -192.2910245063631 0 0 1 0 0 0 0 -1 forward_v I I I I #
coedge $-1 $852 $598 $853 $854 forward $382 $-1 #
coedge $-1 $855 $384 $852 $856 forward $257 $-1 #
coedge $-1 $384 $855 $857 $858 forward $257 $-1 #
coedge $-1 $601 $600 $384 $594 reversed $602 $-1 #
edge $-1 $859 -3.8824983221023333 $860 3.8824983221023333 $593 $861 forward 7 unknown #
coedge $-1 $386 $385 $862 $863 forward $163 $-1 #
coedge $-1 $864 $865 $385 $597 reversed $849 $-1 #
edge $-1 $604 -192.2910245063631 $866 192.2910245063631 $596 $867 forward 7 unknown #
coedge $-1 $590 $868 $386 $599 reversed $382 $-1 #
edge $-1 $869 -192.2910245063631 $603 192.2910245063631 $598 $870 forward 7 unknown #
coedge $-1 $593 $387 $868 $871 forward $602 $-1 #
coedge $-1 $387 $593 $864 $872 reversed $602 $-1 #
loop $-1 $-1 $600 $848 #
vertex $-1 $388 $873 #
vertex $-1 $388 $874 #
straight-curve $-1 192.2910245063631 0 96.14551225318155 0 1 0 I I #
loop $-1 $-1 $875 $260 #
coedge $-1 $607 $607 $392 $608 reversed $389 $-1 #
edge $-1 $876 0 $876 6.2831853071796004 $607 $877 forward 7 unknown #
vertex $-1 $393 $878 #
ellipse-curve $-1 0 0 -4.1552018799401846 0 0 -1 1 0 0 1 I I #
face $-1 $-1 $409 $63 $-1 $879 reversed single #
loop $-1 $-1 $627 $394 #
plane-surface $-1 0 27.350870407458533 0 0 -1 0 0 0 -1 forward_v I I I I #
coedge $-1 $880 $625 $628 $881 forward $395 $-1 #
coedge $-1 $631 $397 $398 $619 reversed $266 $-1 #
coedge $-1 $625 $880 $397 $617 reversed $395 $-1 #
edge $-1 $632 -6.2712431549509171 $882 6.2712431549509171 $616 $883 forward 7 unknown #
coedge $-1 $399 $398 $880 $884 forward $169 $-1 #
edge $-1 $623 -48.072756126590775 $882 48.072756126590775 $615 $885 forward 7 unknown #
coedge $-1 $628 $627 $399 $621 reversed $612 $-1 #
edge $-1 $886 -48.072756126590775 $622 48.072756126590775 $620 $887 forward 7 unknown #
vertex $-1 $401 $888 #
vertex $-1 $634 $889 #
straight-curve $-1 48.072756126590775 0 -6.2712431549509171 0 -1 0 I I #
coedge $-1 $614 $616 $402 $626 reversed $395 $-1 #
edge $-1 $629 -27.350870407458533 $632 27.350870407458533 $625 $890 forward 7 unknown #
coedge $-1 $620 $403 $408 $635 forward $612 $-1 #
coedge $-1 $403 $620 $614 $881 reversed $612 $-1 #
vertex $-1 $404 $891 #
straight-curve $-1 0 27.350870407458533 6.2712431549509171 -1 0 0 I I #
coedge $-1 $405 $615 $407 $634 reversed $266 $-1 #
vertex $-1 $626 $892 #
straight-curve $-1 0 -27.350870407458533 6.2712431549509171 1 0 0 I I #
edge $-1 $410 -6.2712431549509171 $623 6.2712431549509171 $407 $893 forward 7 unknown #
edge $-1 $411 -6.2712431549509171 $622 6.2712431549509171 $408 $894 forward 7 unknown #
point $-1 48.072756126590775 -27.350870407458533 6.2712431549509171 #
point $-1 48.072756126590775 27.350870407458533 6.2712431549509171 #
face $-1 $-1 $428 $64 $-1 $895 reversed single #
loop $-1 $-1 $654 $413 #
plane-surface $-1 0 2.4631763482838926 0 0 -1 0 0 0 -1 forward_v I I I I #
coedge $-1 $896 $652 $655 $897 forward $414 $-1 #
coedge $-1 $658 $416 $417 $646 reversed $274 $-1 #
coedge $-1 $652 $896 $416 $644 reversed $414 $-1 #
edge $-1 $659 -1.5 $898 1.5 $643 $899 forward 7 unknown #
coedge $-1 $418 $417 $896 $900 forward $173 $-1 #
edge $-1 $650 -48.072756126590775 $898 48.072756126590775 $642 $901 forward 7 unknown #
coedge $-1 $655 $654 $418 $648 reversed $639 $-1 #
edge $-1 $902 -48.072756126590775 $649 48.072756126590775 $647 $903 forward 7 unknown #
vertex $-1 $420 $904 #
vertex $-1 $661 $905 #
straight-curve $-1 48.072756126590775 0 -1.5 0 -1 0 I I #
coedge $-1 $641 $643 $421 $653 reversed $414 $-1 #
edge $-1 $656 -2.4631763482838926 $659 2.4631763482838926 $652 $906 forward 7 unknown #
coedge $-1 $647 $422 $427 $662 forward $639 $-1 #
coedge $-1 $422 $647 $641 $897 reversed $639 $-1 #
vertex $-1 $423 $907 #
straight-curve $-1 0 2.4631763482838926 1.5 -1 0 0 I I #
coedge $-1 $424 $642 $426 $661 reversed $274 $-1 #
vertex $-1 $653 $908 #
straight-curve $-1 0 -2.4631763482838926 1.5 1 0 0 I I #
edge $-1 $429 -1.5 $650 1.5 $426 $909 forward 7 unknown #
edge $-1 $430 -1.5 $649 1.5 $427 $910 forward 7 unknown #
point $-1 48.072756126590775 -2.4631763482838926 1.5 #
point $-1 48.072756126590775 2.4631763482838926 1.5 #
face $-1 $-1 $447 $65 $-1 $911 reversed single #
loop $-1 $-1 $681 $432 #
plane-surface $-1 0 2.4631763482838913 0 0 -1 0 0 0 -1 forward_v I I I I #
coedge $-1 $912 $679 $682 $913 forward $433 $-1 #
coedge $-1 $685 $435 $436 $673 reversed $282 $-1 #
coedge $-1 $679 $912 $435 $671 reversed $433 $-1 #
edge $-1 $686 -1.5 $914 1.5 $670 $915 forward 7 unknown #
coedge $-1 $437 $436 $912 $916 forward $177 $-1 #
edge $-1 $677 -48.072756126590775 $914 48.072756126590775 $669 $917 forward 7 unknown #
coedge $-1 $682 $681 $437 $675 reversed $666 $-1 #
edge $-1 $918 -48.072756126590775 $676 48.072756126590775 $674 $919 forward 7 unknown #
vertex $-1 $439 $920 #
vertex $-1 $688 $921 #
straight-curve $-1 48.072756126590775 0 -1.5 0 -1 0 I I #
coedge $-1 $668 $670 $440 $680 reversed $433 $-1 #
edge $-1 $683 -2.4631763482838913 $686 2.4631763482838913 $679 $922 forward 7 unknown #
coedge $-1 $674 $441 $446 $689 forward $666 $-1 #
coedge $-1 $441 $674 $668 $913 reversed $666 $-1 #
vertex $-1 $442 $923 #
straight-curve $-1 0 2.4631763482838913 1.5 -1 0 0 I I #
coedge $-1 $443 $669 $445 $688 reversed $282 $-1 #
vertex $-1 $680 $924 #
straight-curve $-1 0 -2.4631763482838913 1.5 1 0 0 I I #
edge $-1 $448 -1.5 $677 1.5 $445 $925 forward 7 unknown #
edge $-1 $449 -1.5 $676 1.5 $446 $926 forward 7 unknown #
point $-1 48.072756126590775 -2.4631763482838913 1.5 #
point $-1 48.072756126590775 2.4631763482838913 1.5 #
face $-1 $-1 $466 $66 $-1 $927 reversed single #
loop $-1 $-1 $708 $451 #
plane-surface $-1 0 3.0456164790418452 0 0 -1 0 0 0 -1 forward_v I I I I #
coedge $-1 $928 $706 $709 $929 forward $452 $-1 #
coedge $-1 $712 $454 $455 $700 reversed $290 $-1 #
coedge $-1 $706 $928 $454 $698 reversed $452 $-1 #
edge $-1 $713 -96.14551225318155 $930 96.14551225318155 $697 $931 forward 7 unknown #
coedge $-1 $456 $455 $928 $932 forward $181 $-1 #
edge $-1 $704 -192.2910245063631 $930 192.2910245063631 $696 $933 forward 7 unknown #
coedge $-1 $709 $708 $456 $702 reversed $693 $-1 #
edge $-1 $934 -192.2910245063631 $703 192.2910245063631 $701 $935 forward 7 unknown #
vertex $-1 $458 $936 #
vertex $-1 $715 $937 #
straight-curve $-1 192.2910245063631 0 -96.14551225318155 0 -1 0 I I #
coedge $-1 $695 $697 $459 $707 reversed $452 $-1 #
edge $-1 $710 -3.0456164790418452 $713 3.0456164790418452 $706 $938 forward 7 unknown #
coedge $-1 $701 $460 $465 $716 forward $693 $-1 #
coedge $-1 $460 $701 $695 $929 reversed $693 $-1 #
vertex $-1 $461 $939 #
straight-curve $-1 0 3.0456164790418452 96.14551225318155 -1 0 0 I I #
coedge $-1 $462 $696 $464 $715 reversed $290 $-1 #
vertex $-1 $707 $940 #
straight-curve $-1 0 -3.0456164790418452 96.14551225318155 1 0 0 I I #
edge $-1 $467 -96.14551225318155 $704 96.14551225318155 $464 $941 forward 7 unknown #
edge $-1 $468 -96.14551225318155 $703 96.14551225318155 $465 $942 forward 7 unknown #
point $-1 192.2910245063631 -3.0456164790418452 96.14551225318155 #
point $-1 192.2910245063631 3.0456164790418452 96.14551225318155 #
coedge $-1 $719 $719 $-1 $943 reversed $470 $-1 #
vertex $-1 $472 $944 #
ellipse-curve $-1 0 0 -0.25 0 0 -1 0.5 0 0 1 I I #
point $-1 0.5 0 -1.25 #
coedge $-1 $723 $723 $-1 $945 reversed $475 $-1 #
vertex $-1 $477 $946 #
ellipse-curve $-1 0 0 -0.25 0 0 -1 0.5 0 0 1 I I #
point $-1 0.5 0 -1.25 #
coedge $-1 $727 $727 $-1 $947 reversed $480 $-1 #
vertex $-1 $482 $948 #
ellipse-curve $-1 0 0 -0.25 0 0 -1 0.5 0 0 1 I I #
point $-1 0.5 0 -1.25 #
face $-1 $-1 $500 $70 $-1 $949 reversed single #
loop $-1 $-1 $747 $485 #
plane-surface $-1 0 3.0456164790418452 0 0 -1 0 0 0 -1 forward_v I I I I #
coedge $-1 $950 $745 $748 $951 forward $486 $-1 #
coedge $-1 $751 $488 $489 $739 reversed $313 $-1 #
coedge $-1 $745 $950 $488 $737 reversed $486 $-1 #
edge $-1 $752 -96.14551225318155 $952 96.14551225318155 $736 $953 forward 7 unknown #
coedge $-1 $490 $489 $950 $954 forward $200 $-1 #
edge $-1 $743 -192.2910245063631 $952 192.2910245063631 $735 $955 forward 7 unknown #
coedge $-1 $748 $747 $490 $741 reversed $732 $-1 #
edge $-1 $956 -192.2910245063631 $742 192.2910245063631 $740 $957 forward 7 unknown #
vertex $-1 $492 $958 #
vertex $-1 $754 $959 #
straight-curve $-1 192.2910245063631 0 -96.14551225318155 0 -1 0 I I #
coedge $-1 $734 $736 $493 $746 reversed $486 $-1 #
edge $-1 $749 -3.0456164790418452 $752 3.0456164790418452 $745 $960 forward 7 unknown #
coedge $-1 $740 $494 $499 $755 forward $732 $-1 #
coedge $-1 $494 $740 $734 $951 reversed $732 $-1 #
vertex $-1 $495 $961 #
straight-curve $-1 0 3.0456164790418452 96.14551225318155 -1 0 0 I I #
coedge $-1 $496 $735 $498 $754 reversed $313 $-1 #
vertex $-1 $746 $962 #
straight-curve $-1 0 -3.0456164790418452 96.14551225318155 1 0 0 I I #
edge $-1 $501 -96.14551225318155 $743 96.14551225318155 $498 $963 forward 7 unknown #
edge $-1 $502 -96.14551225318155 $742 96.14551225318155 $499 $964 forward 7 unknown #
point $-1 192.2910245063631 -3.0456164790418452 96.14551225318155 #
point $-1 192.2910245063631 3.0456164790418452 96.14551225318155 #
coedge $-1 $758 $758 $-1 $965 reversed $504 $-1 #
vertex $-1 $506 $966 #
ellipse-curve $-1 0 0 -0.25 0 0 -1 0.5 0 0 1 I I #
point $-1 0.5 0 -1.25 #
coedge $-1 $762 $762 $-1 $967 reversed $509 $-1 #
vertex $-1 $511 $968 #
ellipse-curve $-1 0 0 -0.25 0 0 -1 0.5 0 0 1 I I #
point $-1 0.5 0 -1.25 #
coedge $-1 $766 $766 $-1 $969 reversed $514 $-1 #
vertex $-1 $516 $970 #
ellipse-curve $-1 0 0 -0.25 0 0 -1 0.5 0 0 1 I I #
point $-1 0.5 0 -1.25 #
face $-1 $-1 $534 $74 $-1 $971 reversed single #
loop $-1 $-1 $786 $519 #
plane-surface $-1 0 3.0456164790418452 0 0 -1 0 0 0 -1 forward_v I I I I #
coedge $-1 $972 $784 $787 $973 forward $520 $-1 #
coedge $-1 $790 $522 $523 $778 reversed $336 $-1 #
coedge $-1 $784 $972 $522 $776 reversed $520 $-1 #
edge $-1 $791 -96.14551225318155 $974 96.14551225318155 $775 $975 forward 7 unknown #
coedge $-1 $524 $523 $972 $976 forward $219 $-1 #
edge $-1 $782 -192.2910245063631 $974 192.2910245063631 $774 $977 forward 7 unknown #
coedge $-1 $787 $786 $524 $780 reversed $771 $-1 #
edge $-1 $978 -192.2910245063631 $781 192.2910245063631 $779 $979 forward 7 unknown #
vertex $-1 $526 $980 #
vertex $-1 $793 $981 #
straight-curve $-1 192.2910245063631 0 -96.14551225318155 0 -1 0 I I #
coedge $-1 $773 $775 $527 $785 reversed $520 $-1 #
edge $-1 $788 -3.0456164790418452 $791 3.0456164790418452 $784 $982 forward 7 unknown #
coedge $-1 $779 $528 $533 $794 forward $771 $-1 #
coedge $-1 $528 $779 $773 $973 reversed $771 $-1 #
vertex $-1 $529 $983 #
straight-curve $-1 0 3.0456164790418452 96.14551225318155 -1 0 0 I I #
coedge $-1 $530 $774 $532 $793 reversed $336 $-1 #
vertex $-1 $785 $984 #
straight-curve $-1 0 -3.0456164790418452 96.14551225318155 1 0 0 I I #
edge $-1 $535 -96.14551225318155 $782 96.14551225318155 $532 $985 forward 7 unknown #
edge $-1 $536 -96.14551225318155 $781 96.14551225318155 $533 $986 forward 7 unknown #
point $-1 192.2910245063631 -3.0456164790418452 96.14551225318155 #
point $-1 192.2910245063631 3.0456164790418452 96.14551225318155 #
coedge $-1 $797 $797 $-1 $987 reversed $538 $-1 #
vertex $-1 $540 $988 #
ellipse-curve $-1 0 0 -0.25 0 0 -1 0.5 0 0 1 I I #
point $-1 0.5 0 -1.25 #
coedge $-1 $801 $801 $-1 $989 reversed $543 $-1 #
vertex $-1 $545 $990 #
ellipse-curve $-1 0 0 -0.25 0 0 -1 0.5 0 0 1 I I #
point $-1 0.5 0 -1.25 #
coedge $-1 $805 $805 $-1 $991 reversed $548 $-1 #
vertex $-1 $550 $992 #
ellipse-curve $-1 0 0 -0.25 0 0 -1 0.5 0 0 1 I I #
point $-1 0.5 0 -1.25 #
face $-1 $-1 $568 $78 $-1 $993 reversed single #
loop $-1 $-1 $825 $553 #
plane-surface $-1 0 3.0456164790418452 0 0 -1 0 0 0 -1 forward_v I I I I #
coedge $-1 $994 $823 $826 $995 forward $554 $-1 #
coedge $-1 $829 $556 $557 $817 reversed $359 $-1 #
coedge $-1 $823 $994 $556 $815 reversed $554 $-1 #
edge $-1 $830 -96.14551225318155 $996 96.14551225318155 $814 $997 forward 7 unknown #
coedge $-1 $558 $557 $994 $998 forward $238 $-1 #
edge $-1 $821 -192.2910245063631 $996 192.2910245063631 $813 $999 forward 7 unknown #
coedge $-1 $826 $825 $558 $819 reversed $810 $-1 #
edge $-1 $1000 -192.2910245063631 $820 192.2910245063631 $818 $1001 forward 7 unknown #
vertex $-1 $560 $1002 #
vertex $-1 $832 $1003 #
straight-curve $-1 192.2910245063631 0 -96.14551225318155 0 -1 0 I I #
coedge $-1 $812 $814 $561 $824 reversed $554 $-1 #
edge $-1 $827 -3.0456164790418452 $830 3.0456164790418452 $823 $1004 forward 7 unknown #
coedge $-1 $818 $562 $567 $833 forward $810 $-1 #
coedge $-1 $562 $818 $812 $995 reversed $810 $-1 #
vertex $-1 $563 $1005 #
straight-curve $-1 0 3.0456164790418452 96.14551225318155 -1 0 0 I I #
coedge $-1 $564 $813 $566 $832 reversed $359 $-1 #
vertex $-1 $824 $1006 #
straight-curve $-1 0 -3.0456164790418452 96.14551225318155 1 0 0 I I #
edge $-1 $569 -96.14551225318155 $821 96.14551225318155 $566 $1007 forward 7 unknown #
edge $-1 $570 -96.14551225318155 $820 96.14551225318155 $567 $1008 forward 7 unknown #
point $-1 192.2910245063631 -3.0456164790418452 96.14551225318155 #
point $-1 192.2910245063631 3.0456164790418452 96.14551225318155 #
coedge $-1 $836 $836 $-1 $1009 reversed $572 $-1 #
vertex $-1 $574 $1010 #
ellipse-curve $-1 0 0 -0.25 0 0 -1 0.5 0 0 1 I I #
point $-1 0.5 0 -1.25 #
coedge $-1 $840 $840 $-1 $1011 reversed $577 $-1 #
vertex $-1 $579 $1012 #
ellipse-curve $-1 0 0 -0.25 0 0 -1 0.5 0 0 1 I I #
point $-1 0.5 0 -1.25 #
coedge $-1 $844 $844 $-1 $1013 reversed $582 $-1 #
vertex $-1 $584 $1014 #
ellipse-curve $-1 0 0 -0.25 0 0 -1 0.5 0 0 1 I I #
point $-1 0.5 0 -1.25 #
face $-1 $-1 $602 $82 $-1 $1015 reversed single #
loop $-1 $-1 $864 $587 #
plane-surface $-1 0 3.8824983221023333 0 0 -1 0 0 0 -1 forward_v I I I I #
coedge $-1 $1016 $862 $865 $1017 forward $588 $-1 #
coedge $-1 $868 $590 $591 $856 reversed $382 $-1 #
coedge $-1 $862 $1016 $590 $854 reversed $588 $-1 #
edge $-1 $869 -96.14551225318155 $1018 96.14551225318155 $853 $1019 forward 7 unknown #
coedge $-1 $592 $591 $1016 $1020 forward $257 $-1 #
edge $-1 $860 -192.2910245063631 $1018 192.2910245063631 $852 $1021 forward 7 unknown #
coedge $-1 $865 $864 $592 $858 reversed $849 $-1 #
edge $-1 $1022 -192.2910245063631 $859 192.2910245063631 $857 $1023 forward 7 unknown #
vertex $-1 $594 $1024 #
vertex $-1 $871 $1025 #
straight-curve $-1 192.2910245063631 0 -96.14551225318155 0 -1 0 I I #
coedge $-1 $851 $853 $595 $863 reversed $588 $-1 #
edge $-1 $866 -3.8824983221023333 $869 3.8824983221023333 $862 $1026 forward 7 unknown #
coedge $-1 $857 $596 $601 $872 forward $849 $-1 #
coedge $-1 $596 $857 $851 $1017 reversed $849 $-1 #
vertex $-1 $597 $1027 #
straight-curve $-1 0 3.8824983221023333 96.14551225318155 -1 0 0 I I #
coedge $-1 $598 $852 $600 $871 reversed $382 $-1 #
vertex $-1 $863 $1028 #
straight-curve $-1 0 -3.8824983221023333 96.14551225318155 1 0 0 I I #
edge $-1 $603 -96.14551225318155 $860 96.14551225318155 $600 $1029 forward 7 unknown #
edge $-1 $604 -96.14551225318155 $859 96.14551225318155 $601 $1030 forward 7 unknown #
point $-1 192.2910245063631 -3.8824983221023333 96.14551225318155 #
point $-1 192.2910245063631 3.8824983221023333 96.14551225318155 #
coedge $-1 $875 $875 $-1 $1031 reversed $606 $-1 #
vertex $-1 $608 $1032 #
ellipse-curve $-1 0 0 -0.5 0 0 -1 1 0 0 1 I I #
point $-1 1 0 -4.1552018799401846 #
plane-surface $-1 48.072756126590775 0 0 -1 0 0 0 0 1 forward_v I I I I #
coedge $-1 $616 $614 $618 $884 reversed $395 $-1 #
edge $-1 $629 -6.2712431549509171 $886 6.2712431549509171 $628 $1033 forward 7 unknown #
vertex $-1 $884 $1034 #
straight-curve $-1 -48.072756126590775 -27.350870407458533 0 0 0 -1 I I #
edge $-1 $882 -27.350870407458533 $886 27.350870407458533 $880 $1035 forward 7 unknown #
straight-curve $-1 0 -27.350870407458533 -6.2712431549509171 -1 0 0 I I #
vertex $-1 $621 $1036 #
straight-curve $-1 0 27.350870407458533 -6.2712431549509171 1 0 0 I I #
point $-1 48.072756126590775 27.350870407458533 -6.2712431549509171 #
point $-1 48.072756126590775 -27.350870407458533 -6.2712431549509171 #
straight-curve $-1 -48.072756126590775 0 6.2712431549509171 0 -1 0 I I #
point $-1 -48.072756126590775 27.350870407458533 6.2712431549509171 #
point $-1 -48.072756126590775 -27.350870407458533 6.2712431549509171 #
straight-curve $-1 48.072756126590775 -27.350870407458533 0 0 0 -1 I I #
straight-curve $-1 48.072756126590775 27.350870407458533 0 0 0 -1 I I #
plane-surface $-1 48.072756126590775 0 0 -1 0 0 0 0 1 forward_v I I I I #
coedge $-1 $643 $641 $645 $900 reversed $414 $-1 #
edge $-1 $656 -1.5 $902 1.5 $655 $1037 forward 7 unknown #
vertex $-1 $900 $1038 #
straight-curve $-1 -48.072756126590775 -2.4631763482838926 0 0 0 -1 I I #
edge $-1 $898 -2.4631763482838926 $902 2.4631763482838926 $896 $1039 forward 7 unknown #
straight-curve $-1 0 -2.4631763482838926 -1.5 -1 0 0 I I #
vertex $-1 $648 $1040 #
straight-curve $-1 0 2.4631763482838926 -1.5 1 0 0 I I #
point $-1 48.072756126590775 2.4631763482838926 -1.5 #
point $-1 48.072756126590775 -2.4631763482838926 -1.5 #
straight-curve $-1 -48.072756126590775 0 1.5 0 -1 0 I I #
point $-1 -48.072756126590775 2.4631763482838926 1.5 #
point $-1 -48.072756126590775 -2.4631763482838926 1.5 #
straight-curve $-1 48.072756126590775 -2.4631763482838926 0 0 0 -1 I I #
straight-curve $-1 48.072756126590775 2.4631763482838926 0 0 0 -1 I I #
plane-surface $-1 48.072756126590775 0 0 -1 0 0 0 0 1 forward_v I I I I #
coedge $-1 $670 $668 $672 $916 reversed $433 $-1 #
edge $-1 $683 -1.5 $918 1.5 $682 $1041 forward 7 unknown #
vertex $-1 $916 $1042 #
straight-curve $-1 -48.072756126590775 -2.4631763482838913 0 0 0 -1 I I #
edge $-1 $914 -2.4631763482838913 $918 2.4631763482838913 $912 $1043 forward 7 unknown #
straight-curve $-1 0 -2.4631763482838913 -1.5 -1 0 0 I I #
vertex $-1 $675 $1044 #
straight-curve $-1 0 2.4631763482838913 -1.5 1 0 0 I I #
point $-1 48.072756126590775 2.4631763482838913 -1.5 #
point $-1 48.072756126590775 -2.4631763482838913 -1.5 #
straight-curve $-1 -48.072756126590775 0 1.5 0 -1 0 I I #
point $-1 -48.072756126590775 2.4631763482838913 1.5 #
point $-1 -48.072756126590775 -2.4631763482838913 1.5 #
straight-curve $-1 48.072756126590775 -2.4631763482838913 0 0 0 -1 I I #
straight-curve $-1 48.072756126590775 2.4631763482838913 0 0 0 -1 I I #
plane-surface $-1 192.2910245063631 0 0 -1 0 0 0 0 1 forward_v I I I I #
coedge $-1 $697 $695 $699 $932 reversed $452 $-1 #
edge $-1 $710 -96.14551225318155 $934 96.14551225318155 $709 $1045 forward 7 unknown #
vertex $-1 $932 $1046 #
straight-curve $-1 -192.2910245063631 -3.0456164790418452 0 0 0 -1 I I #
edge $-1 $930 -3.0456164790418452 $934 3.0456164790418452 $928 $1047 forward 7 unknown #
straight-curve $-1 0 -3.0456164790418452 -96.14551225318155 -1 0 0 I I #
vertex $-1 $702 $1048 #
straight-curve $-1 0 3.0456164790418452 -96.14551225318155 1 0 0 I I #
point $-1 192.2910245063631 3.0456164790418452 -96.14551225318155 #
point $-1 192.2910245063631 -3.0456164790418452 -96.14551225318155 #
straight-curve $-1 -192.2910245063631 0 96.14551225318155 0 -1 0 I I #
point $-1 -192.2910245063631 3.0456164790418452 96.14551225318155 #
point $-1 -192.2910245063631 -3.0456164790418452 96.14551225318155 #
straight-curve $-1 192.2910245063631 -3.0456164790418452 0 0 0 -1 I I #
straight-curve $-1 192.2910245063631 3.0456164790418452 0 0 0 -1 I I #
edge $-1 $1049 1 $1049 0 $719 $-1 forward 7 unknown #
point $-1 0.5 0 -0.25 #
edge $-1 $1050 1 $1050 0 $723 $-1 forward 7 unknown #
point $-1 0.5 0 -0.25 #
edge $-1 $1051 1 $1051 0 $727 $-1 forward 7 unknown #
point $-1 0.5 0 -0.25 #
plane-surface $-1 192.2910245063631 0 0 -1 0 0 0 0 1 forward_v I I I I #
coedge $-1 $736 $734 $738 $954 reversed $486 $-1 #
edge $-1 $749 -96.14551225318155 $956 96.14551225318155 $748 $1052 forward 7 unknown #
vertex $-1 $954 $1053 #
straight-curve $-1 -192.2910245063631 -3.0456164790418452 0 0 0 -1 I I #
edge $-1 $952 -3.0456164790418452 $956 3.0456164790418452 $950 $1054 forward 7 unknown #
straight-curve $-1 0 -3.0456164790418452 -96.14551225318155 -1 0 0 I I #
vertex $-1 $741 $1055 #
straight-curve $-1 0 3.0456164790418452 -96.14551225318155 1 0 0 I I #
point $-1 192.2910245063631 3.0456164790418452 -96.14551225318155 #
point $-1 192.2910245063631 -3.0456164790418452 -96.14551225318155 #
straight-curve $-1 -192.2910245063631 0 96.14551225318155 0 -1 0 I I #
point $-1 -192.2910245063631 3.0456164790418452 96.14551225318155 #
point $-1 -192.2910245063631 -3.0456164790418452 96.14551225318155 #
straight-curve $-1 192.2910245063631 -3.0456164790418452 0 0 0 -1 I I #
straight-curve $-1 192.2910245063631 3.0456164790418452 0 0 0 -1 I I #
edge $-1 $1056 1 $1056 0 $758 $-1 forward 7 unknown #
point $-1 0.5 0 -0.25 #
edge $-1 $1057 1 $1057 0 $762 $-1 forward 7 unknown #
point $-1 0.5 0 -0.25 #
edge $-1 $1058 1 $1058 0 $766 $-1 forward 7 unknown #
point $-1 0.5 0 -0.25 #
plane-surface $-1 192.2910245063631 0 0 -1 0 0 0 0 1 forward_v I I I I #
coedge $-1 $775 $773 $777 $976 reversed $520 $-1 #
edge $-1 $788 -96.14551225318155 $978 96.14551225318155 $787 $1059 forward 7 unknown #
vertex $-1 $976 $1060 #
straight-curve $-1 -192.2910245063631 -3.0456164790418452 0 0 0 -1 I I #
edge $-1 $974 -3.0456164790418452 $978 3.0456164790418452 $972 $1061 forward 7 unknown #
straight-curve $-1 0 -3.0456164790418452 -96.14551225318155 -1 0 0 I I #
vertex $-1 $780 $1062 #
straight-curve $-1 0 3.0456164790418452 -96.14551225318155 1 0 0 I I #
point $-1 192.2910245063631 3.0456164790418452 -96.14551225318155 #
point $-1 192.2910245063631 -3.0456164790418452 -96.14551225318155 #
straight-curve $-1 -192.2910245063631 0 96.14551225318155 0 -1 0 I I #
point $-1 -192.2910245063631 3.0456164790418452 96.14551225318155 #
point $-1 -192.2910245063631 -3.0456164790418452 96.14551225318155 #
straight-curve $-1 192.2910245063631 -3.0456164790418452 0 0 0 -1 I I #
straight-curve $-1 192.2910245063631 3.0456164790418452 0 0 0 -1 I I #
edge $-1 $1063 1 $1063 0 $797 $-1 forward 7 unknown #
point $-1 0.5 0 -0.25 #
edge $-1 $1064 1 $1064 0 $801 $-1 forward 7 unknown #
point $-1 0.5 0 -0.25 #
edge $-1 $1065 1 $1065 0 $805 $-1 forward 7 unknown #
point $-1 0.5 0 -0.25 #
plane-surface $-1 192.2910245063631 0 0 -1 0 0 0 0 1 forward_v I I I I #
coedge $-1 $814 $812 $816 $998 reversed $554 $-1 #
edge $-1 $827 -96.14551225318155 $1000 96.14551225318155 $826 $1066 forward 7 unknown #
vertex $-1 $998 $1067 #
straight-curve $-1 -192.2910245063631 -3.0456164790418452 0 0 0 -1 I I #
edge $-1 $996 -3.0456164790418452 $1000 3.0456164790418452 $994 $1068 forward 7 unknown #
straight-curve $-1 0 -3.0456164790418452 -96.14551225318155 -1 0 0 I I #
vertex $-1 $819 $1069 #
straight-curve $-1 0 3.0456164790418452 -96.14551225318155 1 0 0 I I #
point $-1 192.2910245063631 3.0456164790418452 -96.14551225318155 #
point $-1 192.2910245063631 -3.0456164790418452 -96.14551225318155 #
straight-curve $-1 -192.2910245063631 0 96.14551225318155 0 -1 0 I I #
point $-1 -192.2910245063631 3.0456164790418452 96.14551225318155 #
point $-1 -192.2910245063631 -3.0456164790418452 96.14551225318155 #
straight-curve $-1 192.2910245063631 -3.0456164790418452 0 0 0 -1 I I #
straight-curve $-1 192.2910245063631 3.0456164790418452 0 0 0 -1 I I #
edge $-1 $1070 1 $1070 0 $836 $-1 forward 7 unknown #
point $-1 0.5 0 -0.25 #
edge $-1 $1071 1 $1071 0 $840 $-1 forward 7 unknown #
point $-1 0.5 0 -0.25 #
edge $-1 $1072 1 $1072 0 $844 $-1 forward 7 unknown #
point $-1 0.5 0 -0.25 #
plane-surface $-1 192.2910245063631 0 0 -1 0 0 0 0 1 forward_v I I I I #
coedge $-1 $853 $851 $855 $1020 reversed $588 $-1 #
edge $-1 $866 -96.14551225318155 $1022 96.14551225318155 $865 $1073 forward 7 unknown #
vertex $-1 $1020 $1074 #
straight-curve $-1 -192.2910245063631 -3.8824983221023333 0 0 0 -1 I I #
edge $-1 $1018 -3.8824983221023333 $1022 3.8824983221023333 $1016 $1075 forward 7 unknown #
straight-curve $-1 0 -3.8824983221023333 -96.14551225318155 -1 0 0 I I #
vertex $-1 $858 $1076 #
straight-curve $-1 0 3.8824983221023333 -96.14551225318155 1 0 0 I I #
point $-1 192.2910245063631 3.8824983221023333 -96.14551225318155 #
point $-1 192.2910245063631 -3.8824983221023333 -96.14551225318155 #
straight-curve $-1 -192.2910245063631 0 96.14551225318155 0 -1 0 I I #
point $-1 -192.2910245063631 3.8824983221023333 96.14551225318155 #
point $-1 -192.2910245063631 -3.8824983221023333 96.14551225318155 #
straight-curve $-1 192.2910245063631 -3.8824983221023333 0 0 0 -1 I I #
straight-curve $-1 192.2910245063631 3.8824983221023333 0 0 0 -1 I I #
edge $-1 $1077 1 $1077 0 $875 $-1 forward 7 unknown #
point $-1 1 0 -0.5 #
straight-curve $-1 -48.072756126590775 27.350870407458533 0 0 0 -1 I I #
point $-1 -48.072756126590775 -27.350870407458533 -6.2712431549509171 #
straight-curve $-1 -48.072756126590775 0 -6.2712431549509171 0 1 0 I I #
point $-1 -48.072756126590775 27.350870407458533 -6.2712431549509171 #
straight-curve $-1 -48.072756126590775 2.4631763482838926 0 0 0 -1 I I #
point $-1 -48.072756126590775 -2.4631763482838926 -1.5 #
straight-curve $-1 -48.072756126590775 0 -1.5 0 1 0 I I #
point $-1 -48.072756126590775 2.4631763482838926 -1.5 #
straight-curve $-1 -48.072756126590775 2.4631763482838913 0 0 0 -1 I I #
point $-1 -48.072756126590775 -2.4631763482838913 -1.5 #
straight-curve $-1 -48.072756126590775 0 -1.5 0 1 0 I I #
point $-1 -48.072756126590775 2.4631763482838913 -1.5 #
straight-curve $-1 -192.2910245063631 3.0456164790418452 0 0 0 -1 I I #
point $-1 -192.2910245063631 -3.0456164790418452 -96.14551225318155 #
straight-curve $-1 -192.2910245063631 0 -96.14551225318155 0 1 0 I I #
point $-1 -192.2910245063631 3.0456164790418452 -96.14551225318155 #
vertex $-1 $943 $1078 #
vertex $-1 $945 $1079 #
vertex $-1 $947 $1080 #
straight-curve $-1 -192.2910245063631 3.0456164790418452 0 0 0 -1 I I #
point $-1 -192.2910245063631 -3.0456164790418452 -96.14551225318155 #
straight-curve $-1 -192.2910245063631 0 -96.14551225318155 0 1 0 I I #
point $-1 -192.2910245063631 3.0456164790418452 -96.14551225318155 #
vertex $-1 $965 $1081 #
vertex $-1 $967 $1082 #
vertex $-1 $969 $1083 #
straight-curve $-1 -192.2910245063631 3.0456164790418452 0 0 0 -1 I I #
point $-1 -192.2910245063631 -3.0456164790418452 -96.14551225318155 #
straight-curve $-1 -192.2910245063631 0 -96.14551225318155 0 1 0 I I #
point $-1 -192.2910245063631 3.0456164790418452 -96.14551225318155 #
vertex $-1 $987 $1084 #
vertex $-1 $989 $1085 #
vertex $-1 $991 $1086 #
straight-curve $-1 -192.2910245063631 3.0456164790418452 0 0 0 -1 I I #
point $-1 -192.2910245063631 -3.0456164790418452 -96.14551225318155 #
straight-curve $-1 -192.2910245063631 0 -96.14551225318155 0 1 0 I I #
point $-1 -192.2910245063631 3.0456164790418452 -96.14551225318155 #
vertex $-1 $1009 $1087 #
vertex $-1 $1011 $1088 #
vertex $-1 $1013 $1089 #
straight-curve $-1 -192.2910245063631 3.8824983221023333 0 0 0 -1 I I #
point $-1 -192.2910245063631 -3.8824983221023333 -96.14551225318155 #
straight-curve $-1 -192.2910245063631 0 -96.14551225318155 0 1 0 I I #
point $-1 -192.2910245063631 3.8824983221023333 -96.14551225318155 #
vertex $-1 $1031 $1090 #
point $-1 0 0 0.25 #
point $-1 0 0 0.25 #
point $-1 0 0 0.25 #
point $-1 0 0 0.25 #
point $-1 0 0 0.25 #
point $-1 0 0 0.25 #
point $-1 0 0 0.25 #
point $-1 0 0 0.25 #
point $-1 0 0 0.25 #
point $-1 0 0 0.25 #
point $-1 0 0 0.25 #
point $-1 0 0 0.25 #
point $-1 0 0 0.5 #
End-of-ACIS-data 