500 0 7 0           
7 Unknown 11 ACIS 5.0 NT 24 Thu Mar 25 15:29:43 1999 
-1 9.9999999999999995e-007 1e-010 
body $-1 $7 $-1 $8 #
body $-1 $9 $-1 $10 #
body $-1 $11 $-1 $12 #
body $-1 $13 $-1 $14 #
body $-1 $15 $-1 $16 #
body $-1 $17 $-1 $18 #
body $-1 $19 $-1 $20 #
lump $-1 $-1 $21 $0 #
transform $-1 1 0 0 0 1 0 0 0 1 76.701559495834232 48.887734608433739 17.661471822284472 1 rotate no_reflect no_shear #
lump $-1 $-1 $22 $1 #
transform $-1 1 0 0 0 1 0 0 0 1 76.701559495834232 48.887734608433739 17.661471822284472 1 rotate no_reflect no_shear #
lump $-1 $-1 $23 $2 #
transform $-1 1 0 0 0 1 0 0 0 1 76.701559495834232 48.887734608433739 17.661471822284472 1 rotate no_reflect no_shear #
lump $-1 $-1 $24 $3 #
transform $-1 1 0 0 0 1 0 0 0 1 76.701559495834232 48.887734608433739 17.661471822284472 1 rotate no_reflect no_shear #
lump $-1 $-1 $25 $4 #
transform $-1 1 0 0 0 1 0 0 0 1 76.701559495834232 48.887734608433739 17.661471822284472 1 rotate no_reflect no_shear #
lump $-1 $-1 $26 $5 #
transform $-1 1 0 0 0 1 0 0 0 1 76.701559495834232 48.887734608433739 17.661471822284472 1 rotate no_reflect no_shear #
lump $-1 $-1 $27 $6 #
transform $-1 1 0 0 0 1 0 0 0 1 76.701559495834232 48.887734608433739 17.661471822284472 1 rotate no_reflect no_shear #
shell $-1 $-1 $-1 $28 $-1 $7 #
shell $-1 $-1 $-1 $29 $-1 $9 #
shell $-1 $-1 $-1 $30 $-1 $11 #
shell $-1 $-1 $-1 $31 $-1 $13 #
shell $-1 $-1 $-1 $32 $-1 $15 #
shell $-1 $-1 $-1 $33 $-1 $17 #
shell $-1 $-1 $-1 $34 $-1 $19 #
face $-1 $35 $36 $21 $-1 $37 forward single #
face $-1 $38 $39 $22 $-1 $40 forward single #
face $-1 $41 $42 $23 $-1 $43 reversed single #
face $-1 $44 $45 $24 $-1 $46 forward single #
face $-1 $47 $48 $25 $-1 $49 forward single #
face $-1 $50 $51 $26 $-1 $52 reversed single #
face $-1 $53 $54 $27 $-1 $55 forward single #
face $-1 $56 $57 $21 $-1 $58 reversed single #
loop $-1 $-1 $59 $28 #
plane-surface $-1 0 0 17.661471822284472 0 0 1 1 0 0 forward_v I I I I #
face $-1 $60 $61 $22 $-1 $62 forward single #
loop $-1 $-1 $63 $29 #
plane-surface $-1 0 -48.887734608433739 0 0 1 0 0 0 1 forward_v I I I I #
face $-1 $64 $65 $23 $-1 $66 reversed single #
loop $-1 $-1 $67 $30 #
plane-surface $-1 39.029497217890011 16.553322713069896 217.15642446364822 0 -1 0 -0.57357644374324357 0 -0.81915203911291934 forward_v I I I I #
face $-1 $68 $69 $24 $-1 $70 forward single #
loop $-1 $71 $72 $31 #
cone-surface $-1 66.002913653043308 8.4817641313941436 9.7394877394258259 -0.57357644374324357 0 -0.81915203911291934 0.81915203911291934 0 -0.57357644374324357 1 I I 0 1 1 forward I I I I #
face $-1 $73 $74 $25 $-1 $75 forward single #
loop $-1 $76 $77 $32 #
cone-surface $-1 66.002913653043308 13.324699280399592 9.7394877394258259 -0.57357644374324357 0 -0.81915203911291934 0.81915203911291934 0 -0.57357644374324357 1 I I 0 1 1 forward I I I I #
face $-1 $78 $79 $26 $-1 $80 reversed single #
loop $-1 $-1 $81 $33 #
plane-surface $-1 -177.34306200950368 9.6024719576238944 122.29454202783838 0 1 0 -0.6560590369687036 0 0.75470957328743171 forward_v I I I I #
face $-1 $82 $83 $27 $-1 $84 forward single #
loop $-1 $85 $86 $34 #
cone-surface $-1 -65.507526366160363 20.336588145464511 6.5855352040490587 0.6560590369687036 0 -0.75470957328743171 3.0188382931497268 0 2.6242361478748144 1 I I 0 1 4 forward I I I I #
face $-1 $87 $88 $21 $-1 $89 reversed single #
loop $-1 $-1 $90 $35 #
plane-surface $-1 0 0 -17.661471822284472 0 0 1 1 0 0 forward_v I I I I #
coedge $-1 $91 $92 $93 $94 forward $36 $-1 #
face $-1 $95 $96 $22 $-1 $97 reversed single #
loop $-1 $-1 $98 $38 #
plane-surface $-1 0 0 17.661471822284472 0 0 1 1 0 0 forward_v I I I I #
coedge $-1 $99 $100 $101 $102 forward $39 $-1 #
face $-1 $103 $104 $23 $-1 $105 reversed single #
loop $-1 $-1 $106 $41 #
plane-surface $-1 -48.958918232472811 10.903231705896872 91.495946735341192 0.57357644374324357 0 0.81915203911291934 0.81915203911291934 0 -0.57357644374324357 forward_v I I I I #
coedge $-1 $107 $108 $109 $110 reversed $42 $-1 #
face $-1 $-1 $111 $24 $-1 $112 forward single #
loop $-1 $113 $114 $44 #
cone-surface $-1 65.124440377209254 8.4817641313941436 8.4848979056637539 -0.57357644374324357 0 -0.81915203911291934 0.40957601955645967 0 -0.28678822187162178 1 I I -0.70710678118654746 0.70710678118654746 0.5 forward I I I I #
loop $-1 $-1 $115 $31 #
coedge $-1 $72 $72 $116 $117 reversed $45 $-1 #
face $-1 $-1 $118 $25 $-1 $119 forward single #
loop $-1 $120 $121 $47 #
cone-surface $-1 65.124440377209254 13.324699280399592 8.4848979056637539 -0.57357644374324357 0 -0.81915203911291934 0.40957601955645967 0 -0.28678822187162178 1 I I -0.70710678118654746 0.70710678118654746 0.5 forward I I I I #
loop $-1 $-1 $122 $32 #
coedge $-1 $77 $77 $123 $124 reversed $48 $-1 #
face $-1 $125 $126 $26 $-1 $127 reversed single #
loop $-1 $-1 $128 $50 #
plane-surface $-1 -76.701559495834218 20.336588145464511 6.519739552675162 -0.6560590369687036 0 0.75470957328743171 0.75470957328743171 0 0.6560590369687036 forward_v I I I I #
coedge $-1 $129 $130 $131 $132 reversed $51 $-1 #
face $-1 $-1 $133 $27 $-1 $134 forward single #
loop $-1 $135 $136 $53 #
cone-surface $-1 -59.409923428061944 20.336588145464511 -0.42895442595656164 0.6560590369687036 0 -0.75470957328743171 1.5094191465748634 0 1.3121180739374072 1 I I -0.70710678118654746 0.70710678118654746 2 forward I I I I #
loop $-1 $-1 $137 $34 #
coedge $-1 $86 $86 $138 $139 reversed $54 $-1 #
face $-1 $140 $141 $21 $-1 $142 reversed single #
loop $-1 $-1 $143 $56 #
plane-surface $-1 0 -48.887734608433739 0 0 1 0 0 0 1 forward_v I I I I #
coedge $-1 $144 $145 $146 $147 forward $57 $-1 #
coedge $-1 $148 $59 $149 $150 forward $36 $-1 #
coedge $-1 $59 $148 $151 $152 forward $36 $-1 #
coedge $-1 $153 $154 $59 $94 reversed $155 $-1 #
edge $-1 $156 -48.887734608433739 $157 48.887734608433739 $93 $158 forward 7 unknown #
face $-1 $159 $160 $22 $-1 $161 reversed single #
loop $-1 $-1 $162 $60 #
plane-surface $-1 -76.701559495834232 0 0 1 0 0 0 0 -1 forward_v I I I I #
coedge $-1 $163 $164 $100 $165 forward $61 $-1 #
coedge $-1 $166 $63 $167 $168 reversed $39 $-1 #
coedge $-1 $63 $166 $98 $165 reversed $39 $-1 #
coedge $-1 $169 $170 $63 $102 reversed $171 $-1 #
edge $-1 $172 -17.661471822284472 $173 17.661471822284472 $101 $174 forward 7 unknown #
face $-1 $175 $176 $23 $-1 $177 forward single #
loop $-1 $-1 $178 $64 #
plane-surface $-1 39.029497217890011 5.2531406987238469 217.15642446364822 0 1 0 0.57357644374324357 0 0.81915203911291934 forward_v I I I I #
coedge $-1 $179 $180 $181 $182 reversed $65 $-1 #
coedge $-1 $108 $67 $183 $184 reversed $42 $-1 #
coedge $-1 $67 $107 $179 $185 reversed $42 $-1 #
coedge $-1 $181 $186 $67 $110 forward $176 $-1 #
edge $-1 $187 -57.186810886889226 $188 -36.972889309232237 $109 $189 forward 7 unknown #
loop $-1 $-1 $116 $68 #
plane-surface $-1 -48.958918232472811 10.903231705896872 91.495946735341192 0.57357644374324357 0 0.81915203911291934 0.81915203911291934 0 -0.57357644374324357 forward_v I I I I #
loop $-1 $-1 $190 $44 #
coedge $-1 $114 $114 $115 $191 reversed $69 $-1 #
coedge $-1 $115 $115 $114 $191 forward $71 $-1 #
coedge $-1 $116 $116 $72 $117 forward $111 $-1 #
edge $-1 $192 0 $192 6.2831853071796004 $116 $193 forward 7 unknown #
loop $-1 $-1 $123 $73 #
plane-surface $-1 -48.958918232472811 10.903231705896872 91.495946735341192 0.57357644374324357 0 0.81915203911291934 0.81915203911291934 0 -0.57357644374324357 forward_v I I I I #
loop $-1 $-1 $194 $47 #
coedge $-1 $121 $121 $122 $195 reversed $74 $-1 #
coedge $-1 $122 $122 $121 $195 forward $76 $-1 #
coedge $-1 $123 $123 $77 $124 forward $118 $-1 #
edge $-1 $196 0 $196 6.2831853071796004 $123 $197 forward 7 unknown #
face $-1 $198 $199 $26 $-1 $200 reversed single #
loop $-1 $-1 $201 $78 #
plane-surface $-1 -177.34306200950368 31.070704333305127 122.29454202783838 0 -1 0 0.6560590369687036 0 -0.75470957328743171 forward_v I I I I #
coedge $-1 $202 $203 $204 $205 reversed $79 $-1 #
coedge $-1 $130 $81 $206 $207 reversed $51 $-1 #
coedge $-1 $81 $129 $202 $208 reversed $51 $-1 #
coedge $-1 $204 $209 $81 $132 forward $210 $-1 #
edge $-1 $211 11.96997150891761 $212 24.78706803994335 $131 $213 forward 7 unknown #
loop $-1 $-1 $138 $82 #
plane-surface $-1 -76.701559495834218 20.336588145464511 6.519739552675162 -0.6560590369687036 0 0.75470957328743171 0.75470957328743171 0 0.6560590369687036 forward_v I I I I #
loop $-1 $-1 $214 $53 #
coedge $-1 $136 $136 $137 $215 reversed $83 $-1 #
coedge $-1 $137 $137 $136 $215 forward $85 $-1 #
coedge $-1 $138 $138 $86 $139 forward $133 $-1 #
edge $-1 $216 0 $216 6.2831853071796004 $138 $217 forward 7 unknown #
face $-1 $218 $219 $21 $-1 $220 reversed single #
loop $-1 $-1 $221 $87 #
plane-surface $-1 -76.701559495834232 0 0 1 0 0 0 0 -1 forward_v I I I I #
coedge $-1 $222 $151 $223 $224 forward $88 $-1 #
coedge $-1 $225 $90 $222 $226 forward $57 $-1 #
coedge $-1 $90 $225 $227 $228 forward $57 $-1 #
coedge $-1 $154 $153 $90 $147 reversed $155 $-1 #
edge $-1 $229 -48.887734608433739 $230 48.887734608433739 $146 $231 forward 7 unknown #
coedge $-1 $92 $91 $232 $233 forward $36 $-1 #
coedge $-1 $234 $235 $91 $150 reversed $219 $-1 #
edge $-1 $157 -76.701559495834232 $236 76.701559495834232 $149 $237 forward 7 unknown #
coedge $-1 $143 $238 $92 $152 reversed $88 $-1 #
edge $-1 $239 -76.701559495834232 $156 76.701559495834232 $151 $240 forward 7 unknown #
coedge $-1 $146 $93 $238 $241 forward $155 $-1 #
coedge $-1 $93 $146 $234 $242 reversed $155 $-1 #
loop $-1 $-1 $153 $218 #
vertex $-1 $94 $243 #
vertex $-1 $94 $244 #
straight-curve $-1 76.701559495834232 0 17.661471822284472 0 1 0 I I #
face $-1 $245 $171 $22 $-1 $246 reversed single #
loop $-1 $-1 $247 $95 #
plane-surface $-1 -72.734236782496879 -61.167564566930672 0 0 1 0 0 0 1 forward_v I I I I #
coedge $-1 $248 $249 $166 $250 forward $96 $-1 #
coedge $-1 $251 $98 $249 $252 forward $61 $-1 #
coedge $-1 $98 $251 $169 $253 forward $61 $-1 #
edge $-1 $172 68.766914069159526 $254 76.701559495834232 $98 $255 forward 7 unknown #
coedge $-1 $100 $99 $162 $250 reversed $39 $-1 #
coedge $-1 $256 $257 $99 $168 forward $258 $-1 #
edge $-1 $259 -76.701559495834232 $173 -68.766914069159526 $167 $260 forward 7 unknown #
coedge $-1 $261 $101 $164 $253 reversed $171 $-1 #
coedge $-1 $101 $261 $256 $262 reversed $171 $-1 #
loop $-1 $-1 $261 $159 #
vertex $-1 $165 $263 #
vertex $-1 $262 $264 #
straight-curve $-1 -68.766914069159526 -48.887734608433739 0 0 0 -1 I I #
face $-1 $-1 $265 $23 $-1 $266 reversed single #
loop $-1 $-1 $109 $103 #
plane-surface $-1 0 0 17.661471822284472 0 0 1 1 0 0 forward_v I I I I #
coedge $-1 $267 $268 $269 $270 reversed $104 $-1 #
coedge $-1 $271 $106 $108 $185 forward $65 $-1 #
coedge $-1 $106 $271 $267 $272 forward $65 $-1 #
coedge $-1 $269 $109 $106 $182 forward $176 $-1 #
edge $-1 $188 -11.10170686012146 $273 0.19847515422458883 $181 $274 forward 7 unknown #
coedge $-1 $275 $276 $107 $184 forward $265 $-1 #
edge $-1 $277 -105.07068094684575 $187 -90.916740409539642 $183 $278 forward 7 unknown #
edge $-1 $188 128.72647703452074 $277 153.40311899166846 $108 $279 forward 7 unknown #
coedge $-1 $109 $269 $275 $280 forward $176 $-1 #
vertex $-1 $184 $281 #
vertex $-1 $110 $282 #
straight-curve $-1 19.514748608945006 16.553322713069896 17.661471822284469 -1 0 0 I I #
coedge $-1 $190 $190 $-1 $283 reversed $113 $-1 #
edge $-1 $284 0 $284 6.2831853071796004 $114 $285 forward 7 unknown #
vertex $-1 $117 $286 #
ellipse-curve $-1 66.59459870700573 8.4817641313941436 10.584501553631416 0.57357644374324357 0 0.81915203911291934 0.81915203911291934 0 -0.57357644374324357 1 I I #
coedge $-1 $194 $194 $-1 $287 reversed $120 $-1 #
edge $-1 $288 0 $288 6.2831853071796004 $121 $289 forward 7 unknown #
vertex $-1 $124 $290 #
ellipse-curve $-1 66.59459870700573 13.324699280399592 10.584501553631416 0.57357644374324357 0 0.81915203911291934 0.81915203911291934 0 -0.57357644374324357 1 I I #
face $-1 $-1 $210 $26 $-1 $291 forward single #
loop $-1 $-1 $292 $125 #
plane-surface $-1 -76.701559495834232 0 0 1 0 0 0 0 -1 forward_v I I I I #
coedge $-1 $293 $294 $295 $296 reversed $126 $-1 #
coedge $-1 $297 $128 $130 $208 forward $79 $-1 #
coedge $-1 $128 $297 $293 $298 forward $79 $-1 #
coedge $-1 $295 $131 $128 $205 forward $210 $-1 #
edge $-1 $212 -0.56582211510836089 $299 20.902410260572871 $204 $300 forward 7 unknown #
coedge $-1 $301 $302 $129 $207 forward $199 $-1 #
edge $-1 $303 -54.62753146124404 $211 -43.485799191634712 $206 $304 forward 7 unknown #
edge $-1 $212 -16.98281959667726 $303 1.888283279974768e-014 $130 $305 forward 7 unknown #
coedge $-1 $131 $295 $301 $306 forward $210 $-1 #
loop $-1 $-1 $295 $198 #
vertex $-1 $207 $307 #
vertex $-1 $132 $308 #
straight-curve $-1 -88.671531004751841 9.6024719576238944 17.661471822284469 1 0 0 I I #
coedge $-1 $214 $214 $-1 $309 reversed $135 $-1 #
edge $-1 $310 0 $310 6.2831853071796004 $136 $311 forward 7 unknown #
vertex $-1 $139 $312 #
ellipse-curve $-1 -70.293011230321369 20.336588145464511 12.090605687479808 -0.6560590369687036 0 0.75470957328743171 3.0188382931497268 0 2.6242361478748144 1 I I #
face $-1 $-1 $155 $21 $-1 $313 reversed single #
loop $-1 $-1 $234 $140 #
plane-surface $-1 0 48.887734608433739 0 0 -1 0 0 0 -1 forward_v I I I I #
coedge $-1 $314 $232 $235 $315 forward $141 $-1 #
coedge $-1 $238 $143 $144 $226 reversed $88 $-1 #
coedge $-1 $232 $314 $143 $224 reversed $141 $-1 #
edge $-1 $239 -17.661471822284472 $316 17.661471822284472 $223 $317 forward 7 unknown #
coedge $-1 $145 $144 $314 $318 forward $57 $-1 #
edge $-1 $230 -76.701559495834232 $316 76.701559495834232 $222 $319 forward 7 unknown #
coedge $-1 $235 $234 $145 $228 reversed $219 $-1 #
edge $-1 $320 -76.701559495834232 $229 76.701559495834232 $227 $321 forward 7 unknown #
vertex $-1 $147 $322 #
vertex $-1 $241 $323 #
straight-curve $-1 76.701559495834232 0 -17.661471822284472 0 -1 0 I I #
coedge $-1 $221 $223 $148 $233 reversed $141 $-1 #
edge $-1 $236 -48.887734608433739 $239 48.887734608433739 $232 $324 forward 7 unknown #
coedge $-1 $227 $149 $154 $242 forward $219 $-1 #
coedge $-1 $149 $227 $221 $315 reversed $219 $-1 #
vertex $-1 $150 $325 #
straight-curve $-1 0 48.887734608433739 17.661471822284472 -1 0 0 I I #
coedge $-1 $151 $222 $153 $241 reversed $88 $-1 #
vertex $-1 $233 $326 #
straight-curve $-1 0 -48.887734608433739 17.661471822284472 1 0 0 I I #
edge $-1 $156 -17.661471822284472 $230 17.661471822284472 $153 $327 forward 7 unknown #
edge $-1 $157 -17.661471822284472 $229 17.661471822284472 $154 $328 forward 7 unknown #
point $-1 76.701559495834232 -48.887734608433739 17.661471822284472 #
point $-1 76.701559495834232 48.887734608433739 17.661471822284472 #
face $-1 $-1 $258 $22 $-1 $329 reversed single #
plane-surface $-1 -68.766914069159526 -55.027649587682205 0 -1 0 0 0 0 1 forward_v I I I I #
coedge $-1 $330 $331 $332 $333 forward $160 $-1 #
coedge $-1 $332 $162 $257 $334 reversed $96 $-1 #
coedge $-1 $162 $332 $163 $252 reversed $96 $-1 #
edge $-1 $254 -17.661471822284472 $259 17.661471822284472 $162 $335 forward 7 unknown #
coedge $-1 $164 $163 $331 $336 forward $61 $-1 #
edge $-1 $254 48.887734608433739 $337 61.167564566930672 $249 $338 forward 7 unknown #
edge $-1 $339 -6.1399149792484664 $172 6.1399149792484664 $169 $340 forward 7 unknown #
vertex $-1 $252 $341 #
straight-curve $-1 0 -48.887734608433739 17.661471822284472 -1 0 0 I I #
coedge $-1 $342 $167 $170 $262 forward $258 $-1 #
coedge $-1 $167 $342 $248 $334 forward $258 $-1 #
loop $-1 $-1 $167 $245 #
vertex $-1 $250 $343 #
straight-curve $-1 0 -48.887734608433739 -17.661471822284472 1 0 0 I I #
coedge $-1 $170 $169 $344 $345 forward $171 $-1 #
edge $-1 $173 -6.1399149792484664 $346 6.1399149792484664 $170 $347 forward 7 unknown #
point $-1 -68.766914069159526 -48.887734608433739 17.661471822284472 #
point $-1 -68.766914069159526 -48.887734608433739 -17.661471822284472 #
loop $-1 $-1 $183 $175 #
plane-surface $-1 76.701559495834232 0 0 -1 0 0 0 0 1 forward_v I I I I #
coedge $-1 $268 $178 $180 $272 reversed $104 $-1 #
coedge $-1 $178 $267 $348 $349 reversed $104 $-1 #
coedge $-1 $186 $181 $178 $270 forward $176 $-1 #
edge $-1 $273 36.972889309232237 $350 57.186810886889226 $269 $351 forward 7 unknown #
coedge $-1 $180 $179 $276 $352 reversed $65 $-1 #
edge $-1 $353 -153.40311899166846 $273 -128.72647703452074 $267 $354 forward 7 unknown #
vertex $-1 $182 $355 #
straight-curve $-1 56.487637918177242 5.4516158529484358 17.661471822284476 0 -1 0 I I #
coedge $-1 $348 $183 $186 $280 reversed $265 $-1 #
coedge $-1 $183 $348 $271 $352 forward $265 $-1 #
vertex $-1 $184 $356 #
straight-curve $-1 76.701559495834232 16.553322713069896 108.57821223182411 0 0 1 I I #
straight-curve $-1 -48.958918232472811 16.553322713069896 91.495946735341192 0.81915203911291934 0 -0.57357644374324357 I I #
edge $-1 $350 5.2531406987238469 $187 16.553322713069896 $275 $357 forward 7 unknown #
point $-1 76.701559495834232 16.553322713069896 17.661471822284472 #
point $-1 56.487637918177242 16.553322713069896 17.661471822284469 #
edge $-1 $358 1 $358 0 $190 $-1 forward 7 unknown #
vertex $-1 $191 $359 #
ellipse-curve $-1 65.411228599080872 8.4817641313941436 8.894473925220213 0.57357644374324357 0 0.81915203911291934 0.81915203911291934 0 -0.57357644374324357 1 I I #
point $-1 67.413750746118666 8.4817641313941436 10.010925109888195 #
edge $-1 $360 1 $360 0 $194 $-1 forward 7 unknown #
vertex $-1 $195 $361 #
ellipse-curve $-1 65.411228599080872 13.324699280399592 8.894473925220213 0.57357644374324357 0 0.81915203911291934 0.81915203911291934 0 -0.57357644374324357 1 I I #
point $-1 67.413750746118666 13.324699280399592 10.010925109888195 #
plane-surface $-1 0 0 17.661471822284472 0 0 1 1 0 0 forward_v I I I I #
coedge $-1 $302 $301 $294 $362 forward $199 $-1 #
coedge $-1 $294 $201 $203 $298 reversed $126 $-1 #
coedge $-1 $201 $293 $292 $362 reversed $126 $-1 #
coedge $-1 $209 $204 $201 $296 forward $210 $-1 #
edge $-1 $299 -24.78706803994335 $363 -11.96997150891761 $295 $364 forward 7 unknown #
coedge $-1 $203 $202 $302 $365 reversed $79 $-1 #
edge $-1 $366 -1.888283279974768e-014 $299 16.98281959667726 $293 $367 forward 7 unknown #
vertex $-1 $205 $368 #
straight-curve $-1 -63.884462964808485 10.168294072732255 17.661471822284476 0 1 0 I I #
coedge $-1 $292 $206 $209 $306 reversed $199 $-1 #
coedge $-1 $206 $292 $297 $365 forward $199 $-1 #
vertex $-1 $207 $369 #
straight-curve $-1 -76.701559495834232 9.6024719576238944 61.147271013919188 0 0 1 I I #
straight-curve $-1 -76.701559495834218 9.6024719576238944 6.519739552675162 -0.75470957328743171 0 -0.6560590369687036 I I #
edge $-1 $363 -31.070704333305127 $211 -9.6024719576238944 $301 $370 forward 7 unknown #
point $-1 -76.701559495834232 9.6024719576238944 17.661471822284472 #
point $-1 -63.884462964808492 9.6024719576238944 17.661471822284472 #
edge $-1 $371 1 $371 0 $214 $-1 forward 7 unknown #
vertex $-1 $215 $372 #
ellipse-curve $-1 -60.72204150199935 20.336588145464511 1.0804647206183018 -0.6560590369687036 0 0.75470957328743171 3.0188382931497268 0 2.6242361478748144 1 I I #
point $-1 -67.274172937171642 20.336588145464511 14.71484183535463 #
plane-surface $-1 76.701559495834232 0 0 -1 0 0 0 0 1 forward_v I I I I #
coedge $-1 $223 $221 $225 $318 reversed $141 $-1 #
edge $-1 $236 -17.661471822284472 $320 17.661471822284472 $235 $373 forward 7 unknown #
vertex $-1 $318 $374 #
straight-curve $-1 -76.701559495834232 -48.887734608433739 0 0 0 -1 I I #
edge $-1 $316 -48.887734608433739 $320 48.887734608433739 $314 $375 forward 7 unknown #
straight-curve $-1 0 -48.887734608433739 -17.661471822284472 -1 0 0 I I #
vertex $-1 $228 $376 #
straight-curve $-1 0 48.887734608433739 -17.661471822284472 1 0 0 I I #
point $-1 76.701559495834232 48.887734608433739 -17.661471822284472 #
point $-1 76.701559495834232 -48.887734608433739 -17.661471822284472 #
straight-curve $-1 -76.701559495834232 0 17.661471822284472 0 -1 0 I I #
point $-1 -76.701559495834232 48.887734608433739 17.661471822284472 #
point $-1 -76.701559495834232 -48.887734608433739 17.661471822284472 #
straight-curve $-1 76.701559495834232 -48.887734608433739 0 0 0 -1 I I #
straight-curve $-1 76.701559495834232 48.887734608433739 0 0 0 -1 I I #
plane-surface $-1 0 0 -17.661471822284472 0 0 1 1 0 0 forward_v I I I I #
coedge $-1 $344 $247 $342 $377 reversed $160 $-1 #
coedge $-1 $247 $344 $251 $336 reversed $160 $-1 #
coedge $-1 $249 $248 $247 $333 reversed $96 $-1 #
edge $-1 $337 -17.661471822284472 $378 17.661471822284472 $332 $379 forward 7 unknown #
edge $-1 $378 -61.167564566930672 $259 -48.887734608433739 $248 $380 forward 7 unknown #
straight-curve $-1 -76.701559495834232 -48.887734608433739 0 0 0 -1 I I #
edge $-1 $337 -3.967322713337353 $339 3.967322713337353 $331 $381 forward 7 unknown #
vertex $-1 $252 $382 #
straight-curve $-1 -76.701559495834232 0 17.661471822284472 0 -1 0 I I #
vertex $-1 $253 $383 #
straight-curve $-1 -68.766914069159526 -55.027649587682205 17.661471822284472 0 1 0 I I #
point $-1 -76.701559495834232 -48.887734608433739 17.661471822284472 #
coedge $-1 $257 $256 $330 $377 forward $258 $-1 #
point $-1 -76.701559495834232 -48.887734608433739 -17.661471822284472 #
coedge $-1 $331 $330 $261 $345 reversed $160 $-1 #
edge $-1 $339 -17.661471822284472 $346 17.661471822284472 $261 $384 forward 7 unknown #
vertex $-1 $345 $385 #
straight-curve $-1 -68.766914069159526 -55.027649587682205 -17.661471822284472 0 -1 0 I I #
coedge $-1 $276 $275 $268 $349 forward $265 $-1 #
edge $-1 $350 90.916740409539642 $353 105.07068094684575 $348 $386 forward 7 unknown #
vertex $-1 $280 $387 #
straight-curve $-1 19.514748608945006 5.2531406987238469 17.661471822284469 1 0 0 I I #
edge $-1 $353 -0.19847515422458883 $277 11.10170686012146 $276 $388 forward 7 unknown #
vertex $-1 $352 $389 #
straight-curve $-1 -48.958918232472811 5.2531406987238469 91.495946735341192 -0.81915203911291934 0 0.57357644374324357 I I #
point $-1 56.487637918177242 5.2531406987238469 17.661471822284469 #
point $-1 76.701559495834232 16.553322713069896 3.5075312849783558 #
straight-curve $-1 76.701559495834232 0 17.661471822284472 0 1 0 I I #
vertex $-1 $283 $390 #
point $-1 66.230380638193793 8.4817641313941436 8.3208974814769707 #
vertex $-1 $287 $391 #
point $-1 66.230380638193793 13.324699280399592 8.3208974814769707 #
edge $-1 $363 43.485799191634712 $366 54.62753146124404 $292 $392 forward 7 unknown #
vertex $-1 $306 $393 #
straight-curve $-1 -88.671531004751841 31.070704333305127 17.661471822284469 -1 0 0 I I #
edge $-1 $366 -20.902410260572871 $303 0.56582211510836089 $302 $394 forward 7 unknown #
vertex $-1 $365 $395 #
straight-curve $-1 -76.701559495834218 31.070704333305127 6.519739552675162 0.75470957328743171 0 0.6560590369687036 I I #
point $-1 -63.884462964808492 31.070704333305127 17.661471822284472 #
point $-1 -76.701559495834232 9.6024719576238944 6.5197395526751496 #
straight-curve $-1 -76.701559495834232 0 17.661471822284472 0 -1 0 I I #
vertex $-1 $309 $396 #
point $-1 -57.703203208849622 20.336588145464511 3.7047008684931164 #
straight-curve $-1 -76.701559495834232 48.887734608433739 0 0 0 -1 I I #
point $-1 -76.701559495834232 -48.887734608433739 -17.661471822284472 #
straight-curve $-1 -76.701559495834232 0 -17.661471822284472 0 1 0 I I #
point $-1 -76.701559495834232 48.887734608433739 -17.661471822284472 #
edge $-1 $346 -3.967322713337353 $378 3.967322713337353 $330 $397 forward 7 unknown #
vertex $-1 $334 $398 #
straight-curve $-1 -76.701559495834232 -61.167564566930672 0 0 0 -1 I I #
straight-curve $-1 -76.701559495834232 0 -17.661471822284472 0 1 0 I I #
straight-curve $-1 -72.734236782496879 -61.167564566930672 17.661471822284472 1 0 0 I I #
point $-1 -76.701559495834232 -61.167564566930672 17.661471822284472 #
point $-1 -68.766914069159526 -61.167564566930672 17.661471822284472 #
straight-curve $-1 -68.766914069159526 -61.167564566930672 0 0 0 -1 I I #
point $-1 -68.766914069159526 -61.167564566930672 -17.661471822284472 #
straight-curve $-1 76.701559495834232 5.2531406987238469 108.57821223182411 0 0 -1 I I #
point $-1 76.701559495834232 5.2531406987238469 17.661471822284472 #
straight-curve $-1 76.701559495834246 5.4516158529484358 3.5075312849783415 0 1 0 I I #
point $-1 76.701559495834232 5.2531406987238469 3.5075312849783558 #
point $-1 64.837652155337636 8.4817641313941436 8.0753218861072948 #
point $-1 64.837652155337636 13.324699280399592 8.0753218861072948 #
straight-curve $-1 -76.701559495834232 31.070704333305127 61.147271013919188 0 0 -1 I I #
point $-1 -76.701559495834232 31.070704333305127 17.661471822284472 #
straight-curve $-1 -76.701559495834232 10.168294072732255 6.5197395526751585 0 -1 0 I I #
point $-1 -76.701559495834232 31.070704333305127 6.5197395526751496 #
point $-1 -58.097805354124539 20.336588145464511 -1.9383735725314251 #
straight-curve $-1 -72.734236782496879 -61.167564566930672 -17.661471822284472 -1 0 0 I I #
point $-1 -76.701559495834232 -61.167564566930672 -17.661471822284472 #
End-of-ACIS-data 