500 0 11 0           
7 Unknown 11 ACIS 5.0 NT 24 Fri Mar 26 03:32:58 1999 
-1 9.9999999999999995e-007 1e-010 
body $-1 $11 $-1 $12 #
body $-1 $13 $-1 $14 #
body $-1 $15 $-1 $16 #
body $-1 $17 $-1 $18 #
body $-1 $19 $-1 $20 #
body $-1 $21 $-1 $22 #
body $-1 $23 $-1 $24 #
body $-1 $25 $-1 $26 #
body $-1 $27 $-1 $28 #
body $-1 $29 $-1 $30 #
body $-1 $31 $-1 $32 #
lump $-1 $-1 $33 $0 #
transform $-1 1 0 0 0 1 0 0 0 1 54.669637134922333 25.74796924103444 7.8763624893187876 1 rotate no_reflect no_shear #
lump $-1 $-1 $34 $1 #
transform $-1 1 0 0 0 1 0 0 0 1 54.669637134922333 25.74796924103444 7.8763624893187876 1 rotate no_reflect no_shear #
lump $-1 $-1 $35 $2 #
transform $-1 1 0 0 0 1 0 0 0 1 54.669637134922333 25.74796924103444 7.8763624893187876 1 rotate no_reflect no_shear #
lump $-1 $-1 $36 $3 #
transform $-1 1 0 0 0 1 0 0 0 1 54.669637134922333 25.74796924103444 7.8763624893187876 1 rotate no_reflect no_shear #
lump $-1 $-1 $37 $4 #
transform $-1 1 0 0 0 1 0 0 0 1 54.669637134922333 25.74796924103444 7.8763624893187876 1 rotate no_reflect no_shear #
lump $-1 $-1 $38 $5 #
transform $-1 1 0 0 0 1 0 0 0 1 54.669637134922333 25.74796924103444 7.8763624893187876 1 rotate no_reflect no_shear #
lump $-1 $-1 $39 $6 #
transform $-1 1 0 0 0 1 0 0 0 1 54.669637134922333 25.74796924103444 7.8763624893187876 1 rotate no_reflect no_shear #
lump $-1 $-1 $40 $7 #
transform $-1 1 0 0 0 1 0 0 0 1 54.669637134922333 25.74796924103444 7.8763624893187876 1 rotate no_reflect no_shear #
lump $-1 $-1 $41 $8 #
transform $-1 1 0 0 0 1 0 0 0 1 54.669637134922333 25.74796924103444 7.8763624893187876 1 rotate no_reflect no_shear #
lump $-1 $-1 $42 $9 #
transform $-1 1 0 0 0 1 0 0 0 1 54.669637134922333 25.74796924103444 7.8763624893187876 1 rotate no_reflect no_shear #
lump $-1 $-1 $43 $10 #
transform $-1 1 0 0 0 1 0 0 0 1 54.669637134922333 25.74796924103444 7.8763624893187876 1 rotate no_reflect no_shear #
shell $-1 $-1 $-1 $44 $-1 $11 #
shell $-1 $-1 $-1 $45 $-1 $13 #
shell $-1 $-1 $-1 $46 $-1 $15 #
shell $-1 $-1 $-1 $47 $-1 $17 #
shell $-1 $-1 $-1 $48 $-1 $19 #
shell $-1 $-1 $-1 $49 $-1 $21 #
shell $-1 $-1 $-1 $50 $-1 $23 #
shell $-1 $-1 $-1 $51 $-1 $25 #
shell $-1 $-1 $-1 $52 $-1 $27 #
shell $-1 $-1 $-1 $53 $-1 $29 #
shell $-1 $-1 $-1 $54 $-1 $31 #
face $-1 $55 $56 $33 $-1 $57 forward single #
face $-1 $58 $59 $34 $-1 $60 forward single #
face $-1 $61 $62 $35 $-1 $63 reversed single #
face $-1 $64 $65 $36 $-1 $66 forward single #
face $-1 $67 $68 $37 $-1 $69 forward single #
face $-1 $70 $71 $38 $-1 $72 reversed single #
face $-1 $73 $74 $39 $-1 $75 forward single #
face $-1 $76 $77 $40 $-1 $78 forward single #
face $-1 $79 $80 $41 $-1 $81 reversed single #
face $-1 $82 $83 $42 $-1 $84 forward single #
face $-1 $85 $86 $43 $-1 $87 forward single #
face $-1 $88 $89 $33 $-1 $90 reversed single #
loop $-1 $-1 $91 $44 #
plane-surface $-1 0 0 7.8763624893187876 0 0 1 1 0 0 forward_v I I I I #
face $-1 $92 $93 $34 $-1 $94 reversed single #
loop $-1 $-1 $95 $45 #
plane-surface $-1 0 -22.925076790415282 7.3763624893187876 0 0 1 1 0 0 forward_v I I I I #
face $-1 $96 $97 $35 $-1 $98 reversed single #
loop $-1 $-1 $99 $46 #
plane-surface $-1 -38.055325766690807 -14.781768313828074 60.158842786955617 0.52991927123019833 0 0.84804809178421925 0.84804809178421925 0 -0.52991927123019833 forward_v I I I I #
face $-1 $100 $101 $36 $-1 $102 forward single #
loop $-1 $103 $104 $47 #
cone-surface $-1 48.869500554444059 -17.061946610671523 3.0108689913526505 -0.52991927123019833 0 -0.84804809178421925 1.2720721376763289 0 -0.79487890684529749 1 I I 0 1 1.5 forward I I I I #
face $-1 $105 $106 $37 $-1 $107 forward single #
loop $-1 $108 $109 $48 #
cone-surface $-1 48.869500554444059 -12.501590016984622 3.0108689913526505 -0.52991927123019833 0 -0.84804809178421925 1.2720721376763289 0 -0.79487890684529749 1 I I 0 1 1.5 forward I I I I #
face $-1 $110 $111 $38 $-1 $112 reversed single #
loop $-1 $-1 $113 $49 #
plane-surface $-1 19.885662771224055 2.8228924506191575 152.88380568856877 0 1 0 0.52991927123019833 0 0.84804809178421925 forward_v I I I I #
face $-1 $114 $115 $39 $-1 $116 forward single #
loop $-1 $117 $118 $50 #
cone-surface $-1 48.869500554444059 5.8631301797437594 3.0108689913526505 -0.52991927123019833 0 -0.84804809178421925 1.2720721376763289 0 -0.79487890684529749 1 I I 0 1 1.5 forward I I I I #
face $-1 $119 $120 $40 $-1 $121 forward single #
loop $-1 $122 $123 $51 #
cone-surface $-1 48.869500554444059 10.42348677343066 3.0108689913526505 -0.52991927123019833 0 -0.84804809178421925 1.2720721376763289 0 -0.79487890684529749 1 I I 0 1 1.5 forward I I I I #
face $-1 $124 $125 $41 $-1 $126 reversed single #
loop $-1 $-1 $127 $52 #
plane-surface $-1 -123.47907282997195 19.605492427877973 85.932756954868623 0 1 0 -0.62932039886446345 0 0.77714595512881146 forward_v I I I I #
face $-1 $128 $129 $42 $-1 $130 forward single #
loop $-1 $131 $132 $53 #
cone-surface $-1 -50.080246009024172 21.360485803065529 4.0243333294502381 0.62932039886446345 0 -0.77714595512881146 0.38857297756440573 0 0.31466019943223172 1 I I 0 1 0.5 forward I I I I #
face $-1 $133 $134 $43 $-1 $135 forward single #
loop $-1 $136 $137 $54 #
cone-surface $-1 -50.080246009024172 23.992975865846873 4.0243333294502381 0.62932039886446345 0 -0.77714595512881146 0.38857297756440573 0 0.31466019943223172 1 I I 0 1 0.5 forward I I I I #
face $-1 $138 $139 $33 $-1 $140 reversed single #
loop $-1 $-1 $141 $55 #
plane-surface $-1 0 0 -7.8763624893187876 0 0 1 1 0 0 forward_v I I I I #
coedge $-1 $142 $143 $144 $145 forward $56 $-1 #
face $-1 $146 $147 $34 $-1 $148 reversed single #
loop $-1 $-1 $149 $58 #
plane-surface $-1 0 -22.925076790415282 4.3763624893187876 0 0 1 1 0 0 forward_v I I I I #
coedge $-1 $150 $151 $152 $153 reversed $59 $-1 #
face $-1 $154 $155 $35 $-1 $156 forward single #
loop $-1 $-1 $157 $61 #
plane-surface $-1 19.885662771224055 -9.4613522878600236 152.88380568856877 0 -1 0 -0.52991927123019833 0 -0.84804809178421925 forward_v I I I I #
coedge $-1 $158 $159 $160 $161 reversed $62 $-1 #
face $-1 $-1 $162 $36 $-1 $163 forward single #
loop $-1 $164 $165 $64 #
cone-surface $-1 47.199677497306006 -17.061946610671523 0.33859354468736935 -0.52991927123019833 0 -0.84804809178421925 0.63603606883816444 0 -0.39743945342264875 1 I I -0.70710678118654757 0.70710678118654757 0.75 forward I I I I #
loop $-1 $-1 $166 $47 #
coedge $-1 $104 $104 $167 $168 reversed $65 $-1 #
face $-1 $-1 $169 $37 $-1 $170 forward single #
loop $-1 $171 $172 $67 #
cone-surface $-1 47.199677497306006 -12.501590016984622 0.33859354468736935 -0.52991927123019833 0 -0.84804809178421925 0.63603606883816444 0 -0.39743945342264875 1 I I -0.70710678118654757 0.70710678118654757 0.75 forward I I I I #
loop $-1 $-1 $173 $48 #
coedge $-1 $109 $109 $174 $175 reversed $68 $-1 #
face $-1 $176 $177 $38 $-1 $178 reversed single #
loop $-1 $-1 $179 $70 #
plane-surface $-1 -38.055325766690807 8.1433084765872081 60.158842786955617 0.52991927123019833 0 0.84804809178421925 0.84804809178421925 0 -0.52991927123019833 forward_v I I I I #
coedge $-1 $180 $181 $182 $183 reversed $71 $-1 #
face $-1 $-1 $184 $39 $-1 $185 forward single #
loop $-1 $186 $187 $73 #
cone-surface $-1 47.199677497306006 5.8631301797437594 0.33859354468736935 -0.52991927123019833 0 -0.84804809178421925 0.63603606883816444 0 -0.39743945342264875 1 I I -0.70710678118654757 0.70710678118654757 0.75 forward I I I I #
loop $-1 $-1 $188 $50 #
coedge $-1 $118 $118 $189 $190 reversed $74 $-1 #
face $-1 $-1 $191 $40 $-1 $192 forward single #
loop $-1 $193 $194 $76 #
cone-surface $-1 47.199677497306006 10.42348677343066 0.33859354468736935 -0.52991927123019833 0 -0.84804809178421925 0.63603606883816444 0 -0.39743945342264875 1 I I -0.70710678118654757 0.70710678118654757 0.75 forward I I I I #
loop $-1 $-1 $195 $51 #
coedge $-1 $123 $123 $196 $197 reversed $77 $-1 #
face $-1 $198 $199 $41 $-1 $200 reversed single #
loop $-1 $-1 $201 $79 #
plane-surface $-1 -54.66963713492234 22.676730834456208 0.96018221933911718 -0.62932039886446345 0 0.77714595512881146 0.77714595512881146 0 0.62932039886446345 forward_v I I I I #
coedge $-1 $202 $203 $204 $205 reversed $80 $-1 #
face $-1 $-1 $206 $42 $-1 $207 forward single #
loop $-1 $208 $209 $82 #
cone-surface $-1 -49.603910370349986 21.360485803065529 3.436107815789323 0.62932039886446345 0 -0.77714595512881146 0.19428648878220287 0 0.15733009971611586 1 I I -0.70710678118654746 0.70710678118654746 0.25 forward I I I I #
loop $-1 $-1 $210 $53 #
coedge $-1 $132 $132 $211 $212 reversed $83 $-1 #
face $-1 $-1 $213 $43 $-1 $214 forward single #
loop $-1 $215 $216 $85 #
cone-surface $-1 -49.603910370349986 23.992975865846873 3.436107815789323 0.62932039886446345 0 -0.77714595512881146 0.19428648878220287 0 0.15733009971611586 1 I I -0.70710678118654746 0.70710678118654746 0.25 forward I I I I #
loop $-1 $-1 $217 $54 #
coedge $-1 $137 $137 $218 $219 reversed $86 $-1 #
face $-1 $220 $221 $33 $-1 $222 reversed single #
loop $-1 $-1 $223 $88 #
plane-surface $-1 0 -25.74796924103444 0 0 1 0 0 0 1 forward_v I I I I #
coedge $-1 $224 $225 $226 $227 forward $89 $-1 #
coedge $-1 $228 $91 $229 $230 forward $56 $-1 #
coedge $-1 $91 $228 $231 $232 forward $56 $-1 #
coedge $-1 $233 $234 $91 $145 reversed $235 $-1 #
edge $-1 $236 -25.74796924103444 $237 25.74796924103444 $144 $238 forward 7 unknown #
face $-1 $239 $240 $34 $-1 $241 reversed single #
loop $-1 $-1 $242 $92 #
plane-surface $-1 0 -20.102184339796125 5.8763624893187876 0 -1 0 0 0 -1 forward_v I I I I #
coedge $-1 $243 $244 $245 $246 reversed $93 $-1 #
coedge $-1 $247 $95 $248 $249 forward $59 $-1 #
coedge $-1 $95 $247 $250 $251 reversed $59 $-1 #
coedge $-1 $252 $253 $95 $153 forward $254 $-1 #
edge $-1 $255 8.6396459445884837 $256 14.285430845826799 $152 $257 forward 7 unknown #
face $-1 $258 $259 $35 $-1 $260 reversed single #
loop $-1 $-1 $261 $96 #
plane-surface $-1 0 -20.102184339796125 5.8763624893187876 0 -1 0 0 0 -1 forward_v I I I I #
coedge $-1 $262 $263 $264 $265 reversed $97 $-1 #
coedge $-1 $266 $99 $261 $267 forward $62 $-1 #
coedge $-1 $99 $266 $262 $268 forward $62 $-1 #
coedge $-1 $264 $269 $99 $161 forward $259 $-1 #
edge $-1 $270 -12.711300182882088 $271 -2.0704681309459865 $160 $272 forward 7 unknown #
loop $-1 $-1 $167 $100 #
plane-surface $-1 -38.055325766690807 -14.781768313828074 60.158842786955617 0.52991927123019833 0 0.84804809178421925 0.84804809178421925 0 -0.52991927123019833 forward_v I I I I #
loop $-1 $-1 $273 $64 #
coedge $-1 $165 $165 $166 $274 reversed $101 $-1 #
coedge $-1 $166 $166 $165 $274 forward $103 $-1 #
coedge $-1 $167 $167 $104 $168 forward $162 $-1 #
edge $-1 $275 0 $275 6.2831853071796004 $167 $276 forward 7 unknown #
loop $-1 $-1 $174 $105 #
plane-surface $-1 -38.055325766690807 -14.781768313828074 60.158842786955617 0.52991927123019833 0 0.84804809178421925 0.84804809178421925 0 -0.52991927123019833 forward_v I I I I #
loop $-1 $-1 $277 $67 #
coedge $-1 $172 $172 $173 $278 reversed $106 $-1 #
coedge $-1 $173 $173 $172 $278 forward $108 $-1 #
coedge $-1 $174 $174 $109 $175 forward $169 $-1 #
edge $-1 $279 0 $279 6.2831853071796004 $174 $280 forward 7 unknown #
face $-1 $281 $282 $38 $-1 $283 forward single #
loop $-1 $-1 $284 $110 #
plane-surface $-1 19.885662771224055 13.463724502555259 152.88380568856877 0 -1 0 -0.52991927123019833 0 -0.84804809178421925 forward_v I I I I #
coedge $-1 $285 $286 $287 $288 reversed $111 $-1 #
coedge $-1 $181 $113 $289 $290 reversed $71 $-1 #
coedge $-1 $113 $180 $285 $291 reversed $71 $-1 #
coedge $-1 $287 $292 $113 $183 forward $293 $-1 #
edge $-1 $294 68.565540354965592 $295 74.22404859524363 $182 $296 forward 7 unknown #
loop $-1 $-1 $189 $114 #
plane-surface $-1 -38.055325766690807 8.1433084765872081 60.158842786955617 0.52991927123019833 0 0.84804809178421925 0.84804809178421925 0 -0.52991927123019833 forward_v I I I I #
loop $-1 $-1 $297 $73 #
coedge $-1 $187 $187 $188 $298 reversed $115 $-1 #
coedge $-1 $188 $188 $187 $298 forward $117 $-1 #
coedge $-1 $189 $189 $118 $190 forward $184 $-1 #
edge $-1 $299 0 $299 6.2831853071796004 $189 $300 forward 7 unknown #
loop $-1 $-1 $196 $119 #
plane-surface $-1 -38.055325766690807 8.1433084765872081 60.158842786955617 0.52991927123019833 0 0.84804809178421925 0.84804809178421925 0 -0.52991927123019833 forward_v I I I I #
loop $-1 $-1 $301 $76 #
coedge $-1 $194 $194 $195 $302 reversed $120 $-1 #
coedge $-1 $195 $195 $194 $302 forward $122 $-1 #
coedge $-1 $196 $196 $123 $197 forward $191 $-1 #
edge $-1 $303 0 $303 6.2831853071796004 $196 $304 forward 7 unknown #
face $-1 $305 $306 $41 $-1 $307 reversed single #
loop $-1 $-1 $308 $124 #
plane-surface $-1 0 25.74796924103444 0 0 -1 0 0 0 -1 forward_v I I I I #
coedge $-1 $309 $310 $311 $312 reversed $125 $-1 #
coedge $-1 $203 $127 $313 $314 reversed $80 $-1 #
coedge $-1 $127 $202 $309 $315 reversed $80 $-1 #
coedge $-1 $311 $316 $127 $205 forward $317 $-1 #
edge $-1 $318 7.0698992800636447 $319 15.610670453943825 $204 $320 forward 7 unknown #
loop $-1 $-1 $211 $128 #
plane-surface $-1 -54.66963713492234 22.676730834456208 0.96018221933911718 -0.62932039886446345 0 0.77714595512881146 0.77714595512881146 0 0.62932039886446345 forward_v I I I I #
loop $-1 $-1 $321 $82 #
coedge $-1 $209 $209 $210 $322 reversed $129 $-1 #
coedge $-1 $210 $210 $209 $322 forward $131 $-1 #
coedge $-1 $211 $211 $132 $212 forward $206 $-1 #
edge $-1 $323 0 $323 6.2831853071796004 $211 $324 forward 7 unknown #
loop $-1 $-1 $218 $133 #
plane-surface $-1 -54.66963713492234 22.676730834456208 0.96018221933911718 -0.62932039886446345 0 0.77714595512881146 0.77714595512881146 0 0.62932039886446345 forward_v I I I I #
loop $-1 $-1 $325 $85 #
coedge $-1 $216 $216 $217 $326 reversed $134 $-1 #
coedge $-1 $217 $217 $216 $326 forward $136 $-1 #
coedge $-1 $218 $218 $137 $219 forward $213 $-1 #
edge $-1 $327 0 $327 6.2831853071796004 $218 $328 forward 7 unknown #
face $-1 $329 $330 $33 $-1 $331 reversed single #
loop $-1 $-1 $332 $138 #
plane-surface $-1 -54.669637134922333 0 0 1 0 0 0 0 -1 forward_v I I I I #
coedge $-1 $333 $231 $334 $335 forward $139 $-1 #
coedge $-1 $336 $141 $333 $337 forward $89 $-1 #
coedge $-1 $141 $336 $338 $339 forward $89 $-1 #
coedge $-1 $234 $233 $141 $227 reversed $235 $-1 #
edge $-1 $340 -25.74796924103444 $341 25.74796924103444 $226 $342 forward 7 unknown #
coedge $-1 $143 $142 $343 $344 forward $56 $-1 #
coedge $-1 $345 $346 $142 $230 reversed $330 $-1 #
edge $-1 $237 -54.669637134922333 $347 54.669637134922333 $229 $348 forward 7 unknown #
coedge $-1 $223 $349 $143 $232 reversed $139 $-1 #
edge $-1 $350 -54.669637134922333 $236 54.669637134922333 $231 $351 forward 7 unknown #
coedge $-1 $226 $144 $349 $352 forward $235 $-1 #
coedge $-1 $144 $226 $345 $353 reversed $235 $-1 #
loop $-1 $-1 $233 $329 #
vertex $-1 $145 $354 #
vertex $-1 $145 $355 #
straight-curve $-1 54.669637134922333 0 7.8763624893187876 0 1 0 I I #
face $-1 $356 $357 $34 $-1 $358 reversed single #
loop $-1 $-1 $359 $146 #
plane-surface $-1 -54.669637134922333 0 0 1 0 0 0 0 -1 forward_v I I I I #
coedge $-1 $360 $248 $253 $361 reversed $147 $-1 #
coedge $-1 $362 $149 $363 $364 reversed $93 $-1 #
coedge $-1 $149 $362 $360 $365 forward $93 $-1 #
coedge $-1 $253 $252 $149 $246 forward $254 $-1 #
edge $-1 $366 -14.285430845826799 $367 -8.6396459445884837 $245 $368 forward 7 unknown #
coedge $-1 $151 $150 $359 $369 reversed $59 $-1 #
coedge $-1 $242 $370 $150 $249 reversed $147 $-1 #
edge $-1 $255 -54.669637134922333 $371 54.669637134922333 $248 $372 forward 7 unknown #
coedge $-1 $373 $374 $151 $251 forward $357 $-1 #
edge $-1 $256 -54.669637134922333 $375 54.669637134922333 $250 $376 forward 7 unknown #
coedge $-1 $245 $152 $374 $377 forward $254 $-1 #
coedge $-1 $152 $245 $242 $361 forward $254 $-1 #
loop $-1 $-1 $152 $356 #
vertex $-1 $153 $378 #
vertex $-1 $377 $379 #
straight-curve $-1 54.669637134922333 -11.462538395207641 7.3763624893187876 0 -1 0 I I #
face $-1 $-1 $380 $35 $-1 $381 forward single #
loop $-1 $-1 $269 $154 #
plane-surface $-1 54.669637134922333 0 0 -1 0 0 0 0 1 forward_v I I I I #
coedge $-1 $382 $383 $158 $267 reversed $155 $-1 #
coedge $-1 $263 $157 $159 $268 reversed $97 $-1 #
coedge $-1 $157 $262 $384 $385 reversed $97 $-1 #
coedge $-1 $386 $160 $157 $265 forward $259 $-1 #
edge $-1 $271 -74.22404859524363 $387 -68.565540354965592 $264 $388 forward 7 unknown #
coedge $-1 $159 $158 $389 $390 reversed $62 $-1 #
edge $-1 $270 -109.33927426984465 $391 -98.661217162878344 $261 $392 forward 7 unknown #
edge $-1 $393 98.661217162878344 $271 109.33927426984465 $262 $394 forward 7 unknown #
coedge $-1 $160 $386 $382 $395 forward $259 $-1 #
vertex $-1 $161 $396 #
vertex $-1 $161 $397 #
straight-curve $-1 54.66963713492234 -7.3908841569140371 2.2178542490407658 0 1 0 I I #
coedge $-1 $273 $273 $-1 $398 reversed $164 $-1 #
edge $-1 $399 0 $399 6.2831853071796004 $165 $400 forward 7 unknown #
vertex $-1 $168 $401 #
ellipse-curve $-1 50.141884158159471 -17.061946610671523 5.0471083691797816 0.52991927123019833 0 0.84804809178421925 1.2720721376763289 0 -0.79487890684529749 1 I I #
coedge $-1 $277 $277 $-1 $402 reversed $171 $-1 #
edge $-1 $403 0 $403 6.2831853071796004 $172 $404 forward 7 unknown #
vertex $-1 $175 $405 #
ellipse-curve $-1 50.141884158159471 -12.501590016984622 5.0471083691797816 0.52991927123019833 0 0.84804809178421925 1.2720721376763289 0 -0.79487890684529749 1 I I #
face $-1 $-1 $293 $38 $-1 $406 reversed single #
loop $-1 $-1 $407 $176 #
plane-surface $-1 0 0 7.8763624893187876 0 0 1 1 0 0 forward_v I I I I #
coedge $-1 $408 $409 $410 $411 reversed $177 $-1 #
coedge $-1 $412 $179 $181 $291 forward $111 $-1 #
coedge $-1 $179 $412 $408 $413 forward $111 $-1 #
coedge $-1 $410 $182 $179 $288 forward $293 $-1 #
edge $-1 $295 -1.2487617876744466 $414 9.3920702642616547 $287 $415 forward 7 unknown #
coedge $-1 $416 $417 $180 $290 forward $282 $-1 #
edge $-1 $418 35.671299795784606 $294 44.726805749310302 $289 $419 forward 7 unknown #
edge $-1 $295 -109.33927426984465 $418 -98.661217162878344 $181 $420 forward 7 unknown #
coedge $-1 $182 $410 $416 $421 reversed $293 $-1 #
loop $-1 $-1 $410 $281 #
vertex $-1 $421 $422 #
vertex $-1 $183 $423 #
straight-curve $-1 54.669637134922333 2.8228924506191575 76.441902844284385 0 0 -1 I I #
coedge $-1 $297 $297 $-1 $424 reversed $186 $-1 #
edge $-1 $425 0 $425 6.2831853071796004 $187 $426 forward 7 unknown #
vertex $-1 $190 $427 #
ellipse-curve $-1 50.141884158159471 5.8631301797437594 5.0471083691797816 0.52991927123019833 0 0.84804809178421925 1.2720721376763289 0 -0.79487890684529749 1 I I #
coedge $-1 $301 $301 $-1 $428 reversed $193 $-1 #
edge $-1 $429 0 $429 6.2831853071796004 $194 $430 forward 7 unknown #
vertex $-1 $197 $431 #
ellipse-curve $-1 50.141884158159471 10.42348677343066 5.0471083691797816 0.52991927123019833 0 0.84804809178421925 1.2720721376763289 0 -0.79487890684529749 1 I I #
face $-1 $-1 $317 $41 $-1 $432 forward single #
loop $-1 $-1 $433 $198 #
plane-surface $-1 -54.669637134922333 0 0 1 0 0 0 0 -1 forward_v I I I I #
coedge $-1 $434 $435 $310 $436 forward $199 $-1 #
coedge $-1 $437 $201 $203 $315 forward $125 $-1 #
coedge $-1 $201 $437 $308 $436 reversed $125 $-1 #
coedge $-1 $438 $204 $201 $312 forward $317 $-1 #
edge $-1 $319 8.2671270106498689 $439 14.409603823806339 $311 $440 forward 7 unknown #
coedge $-1 $441 $433 $202 $314 forward $306 $-1 #
edge $-1 $442 -42.006196258095187 $318 -35.090015988115525 $313 $443 forward 7 unknown #
edge $-1 $319 -10.989919097583877 $442 -9.1551213131864128e-015 $203 $444 forward 7 unknown #
coedge $-1 $204 $438 $441 $445 forward $317 $-1 #
loop $-1 $-1 $311 $305 #
vertex $-1 $314 $446 #
vertex $-1 $205 $447 #
straight-curve $-1 -61.739536414985977 19.605492427877973 7.8763624893187867 1 0 0 I I #
coedge $-1 $321 $321 $-1 $448 reversed $208 $-1 #
edge $-1 $449 0 $449 6.2831853071796004 $209 $450 forward 7 unknown #
vertex $-1 $212 $451 #
ellipse-curve $-1 -50.399251547982246 21.360485803065529 4.4182723543289546 -0.62932039886446345 0 0.77714595512881146 0.38857297756440573 0 0.31466019943223172 1 I I #
coedge $-1 $325 $325 $-1 $452 reversed $215 $-1 #
edge $-1 $453 0 $453 6.2831853071796004 $216 $454 forward 7 unknown #
vertex $-1 $219 $455 #
ellipse-curve $-1 -50.399251547982246 23.992975865846873 4.4182723543289546 -0.62932039886446345 0 0.77714595512881146 0.38857297756440573 0 0.31466019943223172 1 I I #
face $-1 $-1 $235 $33 $-1 $456 reversed single #
loop $-1 $-1 $345 $220 #
plane-surface $-1 0 25.74796924103444 0 0 -1 0 0 0 -1 forward_v I I I I #
coedge $-1 $457 $343 $346 $458 forward $221 $-1 #
coedge $-1 $349 $223 $224 $337 reversed $139 $-1 #
coedge $-1 $343 $457 $223 $335 reversed $221 $-1 #
edge $-1 $350 -7.8763624893187876 $459 7.8763624893187876 $334 $460 forward 7 unknown #
coedge $-1 $225 $224 $457 $461 forward $89 $-1 #
edge $-1 $341 -54.669637134922333 $459 54.669637134922333 $333 $462 forward 7 unknown #
coedge $-1 $346 $345 $225 $339 reversed $330 $-1 #
edge $-1 $463 -54.669637134922333 $340 54.669637134922333 $338 $464 forward 7 unknown #
vertex $-1 $227 $465 #
vertex $-1 $352 $466 #
straight-curve $-1 54.669637134922333 0 -7.8763624893187876 0 -1 0 I I #
coedge $-1 $332 $334 $228 $344 reversed $221 $-1 #
edge $-1 $347 -25.74796924103444 $350 25.74796924103444 $343 $467 forward 7 unknown #
coedge $-1 $338 $229 $234 $353 forward $330 $-1 #
coedge $-1 $229 $338 $332 $458 reversed $330 $-1 #
vertex $-1 $230 $468 #
straight-curve $-1 0 25.74796924103444 7.8763624893187876 -1 0 0 I I #
coedge $-1 $231 $333 $233 $352 reversed $139 $-1 #
vertex $-1 $344 $469 #
straight-curve $-1 0 -25.74796924103444 7.8763624893187876 1 0 0 I I #
edge $-1 $236 -7.8763624893187876 $341 7.8763624893187876 $233 $470 forward 7 unknown #
edge $-1 $237 -7.8763624893187876 $340 7.8763624893187876 $234 $471 forward 7 unknown #
point $-1 54.669637134922333 -25.74796924103444 7.8763624893187876 #
point $-1 54.669637134922333 25.74796924103444 7.8763624893187876 #
face $-1 $-1 $254 $34 $-1 $472 reversed single #
loop $-1 $-1 $250 $239 #
plane-surface $-1 0 -25.74796924103444 0 0 1 0 0 0 1 forward_v I I I I #
coedge $-1 $473 $474 $247 $369 forward $240 $-1 #
coedge $-1 $370 $242 $244 $365 reversed $147 $-1 #
edge $-1 $367 1.4381812446593938 $255 4.4381812446593933 $253 $475 forward 7 unknown #
coedge $-1 $244 $243 $476 $477 reversed $93 $-1 #
coedge $-1 $374 $373 $243 $364 forward $357 $-1 #
edge $-1 $478 -54.669637134922333 $366 54.669637134922333 $363 $479 forward 7 unknown #
edge $-1 $480 -54.669637134922333 $367 54.669637134922333 $360 $481 forward 7 unknown #
vertex $-1 $364 $482 #
vertex $-1 $246 $483 #
straight-curve $-1 54.669637134922333 -11.462538395207641 4.3763624893187876 0 1 0 I I #
edge $-1 $375 -14.285430845826799 $371 -8.6396459445884837 $359 $484 forward 7 unknown #
coedge $-1 $248 $360 $473 $485 reversed $147 $-1 #
vertex $-1 $369 $486 #
straight-curve $-1 0 -20.102184339796125 7.3763624893187876 -1 0 0 I I #
coedge $-1 $363 $250 $474 $487 forward $357 $-1 #
coedge $-1 $250 $363 $252 $377 reversed $357 $-1 #
vertex $-1 $487 $488 #
straight-curve $-1 0 -25.74796924103444 7.3763624893187876 -1 0 0 I I #
edge $-1 $256 -7.3763624893187876 $366 -4.3763624893187876 $252 $489 forward 7 unknown #
point $-1 54.669637134922333 -20.102184339796125 7.3763624893187876 #
point $-1 54.669637134922333 -25.74796924103444 7.3763624893187876 #
loop $-1 $-1 $490 $258 #
plane-surface $-1 0 0 7.8763624893187876 0 0 1 1 0 0 forward_v I I I I #
coedge $-1 $383 $261 $269 $395 reversed $155 $-1 #
coedge $-1 $261 $382 $490 $491 reversed $155 $-1 #
coedge $-1 $389 $492 $263 $385 forward $380 $-1 #
edge $-1 $387 -44.726805749310302 $393 -35.671299795784606 $384 $493 forward 7 unknown #
coedge $-1 $269 $264 $492 $494 reversed $259 $-1 #
vertex $-1 $265 $495 #
straight-curve $-1 54.669637134922333 -9.4613522878600236 76.441902844284385 0 0 1 I I #
coedge $-1 $490 $384 $266 $390 forward $380 $-1 #
edge $-1 $393 2.0704681309459865 $391 12.711300182882088 $389 $496 forward 7 unknown #
vertex $-1 $491 $497 #
straight-curve $-1 -38.055325766690807 -20.102184339796125 60.158842786955617 -0.84804809178421925 0 0.52991927123019833 I I #
vertex $-1 $390 $498 #
straight-curve $-1 -38.055325766690807 -9.4613522878600236 60.158842786955617 0.84804809178421925 0 -0.52991927123019833 I I #
edge $-1 $499 68.565540354965592 $270 74.22404859524363 $269 $500 forward 7 unknown #
point $-1 54.669637134922333 -20.102184339796125 2.2178542490407622 #
point $-1 54.669637134922333 -9.4613522878600236 2.2178542490407622 #
edge $-1 $501 1 $501 0 $273 $-1 forward 7 unknown #
vertex $-1 $274 $502 #
ellipse-curve $-1 47.597116950728655 -17.061946610671523 0.97462961352553379 0.52991927123019833 0 0.84804809178421925 1.2720721376763289 0 -0.79487890684529749 1 I I #
point $-1 51.413956295835796 -17.061946610671523 4.2522294623344701 #
edge $-1 $503 1 $503 0 $277 $-1 forward 7 unknown #
vertex $-1 $278 $504 #
ellipse-curve $-1 47.597116950728655 -12.501590016984622 0.97462961352553379 0.52991927123019833 0 0.84804809178421925 1.2720721376763289 0 -0.79487890684529749 1 I I #
point $-1 51.413956295835796 -12.501590016984622 4.2522294623344701 #
plane-surface $-1 54.669637134922333 0 0 -1 0 0 0 0 1 forward_v I I I I #
coedge $-1 $417 $416 $409 $505 forward $282 $-1 #
coedge $-1 $409 $284 $286 $413 reversed $177 $-1 #
coedge $-1 $284 $408 $407 $505 reversed $177 $-1 #
coedge $-1 $292 $287 $284 $411 forward $293 $-1 #
edge $-1 $414 -74.22404859524363 $506 -68.565540354965592 $410 $507 forward 7 unknown #
coedge $-1 $286 $285 $417 $508 reversed $111 $-1 #
edge $-1 $509 98.661217162878344 $414 109.33927426984465 $408 $510 forward 7 unknown #
vertex $-1 $288 $511 #
straight-curve $-1 54.66963713492234 4.0716542382936041 2.2178542490407658 0 1 0 I I #
coedge $-1 $407 $289 $292 $421 forward $282 $-1 #
coedge $-1 $289 $407 $412 $508 forward $282 $-1 #
vertex $-1 $290 $512 #
straight-curve $-1 9.9428313856120276 2.8228924506191575 7.8763624893187938 1 0 0 I I #
straight-curve $-1 -38.055325766690807 2.8228924506191575 60.158842786955617 -0.84804809178421925 0 0.52991927123019833 I I #
edge $-1 $294 2.8228924506191575 $506 13.463724502555259 $292 $513 forward 7 unknown #
point $-1 54.669637134922333 2.8228924506191575 7.8763624893187876 #
point $-1 54.669637134922333 2.8228924506191575 2.2178542490407622 #
edge $-1 $514 1 $514 0 $297 $-1 forward 7 unknown #
vertex $-1 $298 $515 #
ellipse-curve $-1 47.597116950728655 5.8631301797437594 0.97462961352553379 0.52991927123019833 0 0.84804809178421925 1.2720721376763289 0 -0.79487890684529749 1 I I #
point $-1 51.413956295835796 5.8631301797437594 4.2522294623344701 #
edge $-1 $516 1 $516 0 $301 $-1 forward 7 unknown #
vertex $-1 $302 $517 #
ellipse-curve $-1 47.597116950728655 10.42348677343066 0.97462961352553379 0.52991927123019833 0 0.84804809178421925 1.2720721376763289 0 -0.79487890684529749 1 I I #
point $-1 51.413956295835796 10.42348677343066 4.2522294623344701 #
plane-surface $-1 0 0 7.8763624893187876 0 0 1 1 0 0 forward_v I I I I #
coedge $-1 $313 $518 $437 $519 forward $306 $-1 #
coedge $-1 $435 $308 $518 $520 reversed $199 $-1 #
coedge $-1 $308 $434 $438 $521 reversed $199 $-1 #
edge $-1 $439 9.9510934576699714 $522 20.941012555253838 $308 $523 forward 7 unknown #
coedge $-1 $310 $309 $433 $519 reversed $125 $-1 #
coedge $-1 $316 $311 $435 $521 forward $317 $-1 #
vertex $-1 $521 $524 #
straight-curve $-1 -46.128865961042152 11.338365417228104 7.8763624893187867 0 1 0 I I #
coedge $-1 $518 $313 $316 $445 reversed $306 $-1 #
vertex $-1 $314 $525 #
straight-curve $-1 -54.669637134922333 19.605492427877973 42.966378477434311 0 0 1 I I #
straight-curve $-1 -54.66963713492234 19.605492427877973 0.96018221933911718 -0.77714595512881146 0 -0.62932039886446345 I I #
edge $-1 $526 -25.74796924103444 $318 -19.605492427877973 $441 $527 forward 7 unknown #
point $-1 -54.669637134922333 19.605492427877973 7.8763624893187876 #
point $-1 -46.128865961042152 19.605492427877973 7.8763624893187867 #
edge $-1 $528 1 $528 0 $321 $-1 forward 7 unknown #
vertex $-1 $322 $529 #
ellipse-curve $-1 -49.761240470066099 21.360485803065529 3.6303943045715257 -0.62932039886446345 0 0.77714595512881146 0.38857297756440573 0 0.31466019943223172 1 I I #
point $-1 -50.010678570417831 21.360485803065529 4.7329325537611826 #
edge $-1 $530 1 $530 0 $325 $-1 forward 7 unknown #
vertex $-1 $326 $531 #
ellipse-curve $-1 -49.761240470066099 23.992975865846873 3.6303943045715257 -0.62932039886446345 0 0.77714595512881146 0.38857297756440573 0 0.31466019943223172 1 I I #
point $-1 -50.010678570417831 23.992975865846873 4.7329325537611826 #
plane-surface $-1 54.669637134922333 0 0 -1 0 0 0 0 1 forward_v I I I I #
coedge $-1 $334 $332 $336 $461 reversed $221 $-1 #
edge $-1 $347 -7.8763624893187876 $463 7.8763624893187876 $346 $532 forward 7 unknown #
vertex $-1 $461 $533 #
straight-curve $-1 -54.669637134922333 -25.74796924103444 0 0 0 -1 I I #
edge $-1 $459 -25.74796924103444 $463 25.74796924103444 $457 $534 forward 7 unknown #
straight-curve $-1 0 -25.74796924103444 -7.8763624893187876 -1 0 0 I I #
vertex $-1 $339 $535 #
straight-curve $-1 0 25.74796924103444 -7.8763624893187876 1 0 0 I I #
point $-1 54.669637134922333 25.74796924103444 -7.8763624893187876 #
point $-1 54.669637134922333 -25.74796924103444 -7.8763624893187876 #
straight-curve $-1 -54.669637134922333 0 7.8763624893187876 0 -1 0 I I #
point $-1 -54.669637134922333 25.74796924103444 7.8763624893187876 #
point $-1 -54.669637134922333 -25.74796924103444 7.8763624893187876 #
straight-curve $-1 54.669637134922333 -25.74796924103444 0 0 0 -1 I I #
straight-curve $-1 54.669637134922333 25.74796924103444 0 0 0 -1 I I #
plane-surface $-1 54.669637134922333 0 0 -1 0 0 0 0 1 forward_v I I I I #
coedge $-1 $476 $359 $370 $485 forward $240 $-1 #
coedge $-1 $359 $476 $373 $487 reversed $240 $-1 #
straight-curve $-1 54.669637134922333 -20.102184339796125 2.9381812446593938 0 0 1 I I #
coedge $-1 $474 $473 $362 $477 forward $240 $-1 #
edge $-1 $480 8.6396459445884837 $478 14.285430845826799 $476 $536 forward 7 unknown #
vertex $-1 $364 $537 #
straight-curve $-1 0 -25.74796924103444 4.3763624893187876 1 0 0 I I #
vertex $-1 $477 $538 #
straight-curve $-1 0 -20.102184339796125 4.3763624893187876 1 0 0 I I #
point $-1 54.669637134922333 -25.74796924103444 4.3763624893187876 #
point $-1 54.669637134922333 -20.102184339796125 4.3763624893187876 #
straight-curve $-1 -54.669637134922333 -11.462538395207641 7.3763624893187876 0 1 0 I I #
edge $-1 $371 -4.4381812446593933 $480 -1.4381812446593938 $473 $539 forward 7 unknown #
point $-1 -54.669637134922333 -20.102184339796125 7.3763624893187876 #
edge $-1 $375 -7.3763624893187876 $478 -4.3763624893187876 $474 $540 forward 7 unknown #
point $-1 -54.669637134922333 -25.74796924103444 7.3763624893187876 #
straight-curve $-1 54.669637134922333 -25.74796924103444 0 0 0 -1 I I #
coedge $-1 $492 $389 $383 $491 forward $380 $-1 #
edge $-1 $391 35.671299795784606 $499 44.726805749310302 $490 $541 forward 7 unknown #
coedge $-1 $384 $490 $386 $494 forward $380 $-1 #
straight-curve $-1 9.9428313856120276 -9.4613522878600236 7.8763624893187938 -1 0 0 I I #
edge $-1 $499 -20.102184339796125 $387 -9.4613522878600236 $386 $542 forward 7 unknown #
point $-1 54.669637134922333 -9.4613522878600236 7.8763624893187876 #
straight-curve $-1 45.614131181396651 -7.3908841569140371 7.8763624893187867 0 -1 0 I I #
point $-1 45.614131181396637 -20.102184339796125 7.8763624893187867 #
point $-1 45.614131181396637 -9.4613522878600236 7.8763624893187867 #
vertex $-1 $494 $543 #
straight-curve $-1 54.669637134922333 -20.102184339796125 76.441902844284385 0 0 -1 I I #
vertex $-1 $398 $544 #
point $-1 48.86918908840498 -17.061946610671523 0.17975070668023629 #
vertex $-1 $402 $545 #
point $-1 48.86918908840498 -12.501590016984622 0.17975070668023629 #
edge $-1 $506 -44.726805749310302 $509 -35.671299795784606 $407 $546 forward 7 unknown #
vertex $-1 $505 $547 #
straight-curve $-1 54.669637134922333 13.463724502555259 76.441902844284385 0 0 1 I I #
edge $-1 $509 -9.3920702642616547 $418 1.2487617876744466 $417 $548 forward 7 unknown #
vertex $-1 $508 $549 #
straight-curve $-1 -38.055325766690807 13.463724502555259 60.158842786955617 0.84804809178421925 0 -0.52991927123019833 I I #
point $-1 54.669637134922333 13.463724502555259 2.2178542490407622 #
point $-1 45.614131181396637 2.8228924506191575 7.8763624893187867 #
straight-curve $-1 54.669637134922333 0 7.8763624893187876 0 1 0 I I #
vertex $-1 $424 $550 #
point $-1 48.86918908840498 5.8631301797437594 0.17975070668023629 #
vertex $-1 $428 $551 #
point $-1 48.86918908840498 10.42348677343066 0.17975070668023629 #
coedge $-1 $433 $441 $434 $520 forward $306 $-1 #
edge $-1 $522 -14.409603823806339 $442 -8.2671270106498689 $433 $552 forward 7 unknown #
edge $-1 $526 -7.8763624893187876 $522 -0.96018221933912296 $434 $553 forward 7 unknown #
edge $-1 $439 46.128865961042152 $526 54.669637134922333 $435 $554 forward 7 unknown #
vertex $-1 $436 $555 #
straight-curve $-1 -38.395413931305157 25.74796924103444 14.138788593237207 -0.77714595512881146 0 -0.62932039886446345 I I #
point $-1 -46.128865961042152 25.747969241034443 7.8763624893187867 #
point $-1 -54.669637134922333 19.605492427877973 0.96018221933912296 #
vertex $-1 $521 $556 #
straight-curve $-1 -54.669637134922333 0 7.8763624893187876 0 -1 0 I I #
vertex $-1 $448 $557 #
point $-1 -49.372667492501698 21.360485803065529 3.9450545040037577 #
vertex $-1 $452 $558 #
point $-1 -49.372667492501698 23.992975865846873 3.9450545040037577 #
straight-curve $-1 -54.669637134922333 25.74796924103444 0 0 0 -1 I I #
point $-1 -54.669637134922333 -25.74796924103444 -7.8763624893187876 #
straight-curve $-1 -54.669637134922333 0 -7.8763624893187876 0 1 0 I I #
point $-1 -54.669637134922333 25.74796924103444 -7.8763624893187876 #
straight-curve $-1 -54.669637134922333 -11.462538395207641 4.3763624893187876 0 -1 0 I I #
point $-1 -54.669637134922333 -25.74796924103444 4.3763624893187876 #
point $-1 -54.669637134922333 -20.102184339796125 4.3763624893187876 #
straight-curve $-1 -54.669637134922333 -20.102184339796125 2.9381812446593938 0 0 -1 I I #
straight-curve $-1 -54.669637134922333 -25.74796924103444 0 0 0 -1 I I #
straight-curve $-1 9.9428313856120276 -20.102184339796125 7.8763624893187938 1 0 0 I I #
straight-curve $-1 54.669637134922333 0 7.8763624893187876 0 1 0 I I #
point $-1 54.669637134922333 -20.102184339796125 7.8763624893187876 #
point $-1 46.802238043883357 -17.061946610671523 -0.29744252415079508 #
point $-1 46.802238043883357 -12.501590016984622 -0.29744252415079508 #
straight-curve $-1 9.9428313856120276 13.463724502555259 7.8763624893187938 -1 0 0 I I #
point $-1 54.669637134922333 13.463724502555259 7.8763624893187876 #
straight-curve $-1 45.614131181396651 4.0716542382936041 7.8763624893187867 0 -1 0 I I #
point $-1 45.614131181396637 13.463724502555259 7.8763624893187867 #
point $-1 46.802238043883357 5.8631301797437594 -0.29744252415079508 #
point $-1 46.802238043883357 10.42348677343066 -0.29744252415079508 #
straight-curve $-1 -54.669637134922333 11.338365417228104 0.96018221933912651 0 -1 0 I I #
straight-curve $-1 -54.669637134922333 25.74796924103444 0 0 0 -1 I I #
straight-curve $-1 0 25.74796924103444 7.8763624893187876 -1 0 0 I I #
point $-1 -54.669637134922333 25.747969241034443 0.96018221933912296 #
point $-1 -54.669637134922333 25.74796924103444 7.8763624893187876 #
point $-1 -49.446580270633874 21.360485803065529 3.2418213270071203 #
point $-1 -49.446580270633874 23.992975865846873 3.2418213270071203 #
End-of-ACIS-data 