500 0 17 0           
7 Unknown 11 ACIS 5.0 NT 24 Thu Mar 25 18:28:39 1999 
-1 9.9999999999999995e-007 1e-010 
body $-1 $17 $-1 $18 #
body $-1 $19 $-1 $20 #
body $-1 $21 $-1 $22 #
body $-1 $23 $-1 $24 #
body $-1 $25 $-1 $26 #
body $-1 $27 $-1 $28 #
body $-1 $29 $-1 $30 #
body $-1 $31 $-1 $32 #
body $-1 $33 $-1 $34 #
body $-1 $35 $-1 $36 #
body $-1 $37 $-1 $38 #
body $-1 $39 $-1 $40 #
body $-1 $41 $-1 $42 #
body $-1 $43 $-1 $44 #
body $-1 $45 $-1 $46 #
body $-1 $47 $-1 $48 #
body $-1 $49 $-1 $50 #
lump $-1 $-1 $51 $0 #
transform $-1 1 0 0 0 1 0 0 0 1 59.821161534470662 36.896805897517588 7.8164881685295606 1 rotate no_reflect no_shear #
lump $-1 $-1 $52 $1 #
transform $-1 1 0 0 0 1 0 0 0 1 59.821161534470662 36.896805897517588 7.8164881685295606 1 rotate no_reflect no_shear #
lump $-1 $-1 $53 $2 #
transform $-1 1 0 0 0 1 0 0 0 1 59.821161534470662 36.896805897517588 7.8164881685295606 1 rotate no_reflect no_shear #
lump $-1 $-1 $54 $3 #
transform $-1 1 0 0 0 1 0 0 0 1 59.821161534470662 36.896805897517588 7.8164881685295606 1 rotate no_reflect no_shear #
lump $-1 $-1 $55 $4 #
transform $-1 1 0 0 0 1 0 0 0 1 59.821161534470662 36.896805897517588 7.8164881685295606 1 rotate no_reflect no_shear #
lump $-1 $-1 $56 $5 #
transform $-1 1 0 0 0 1 0 0 0 1 59.821161534470662 36.896805897517588 7.8164881685295606 1 rotate no_reflect no_shear #
lump $-1 $-1 $57 $6 #
transform $-1 1 0 0 0 1 0 0 0 1 59.821161534470662 36.896805897517588 7.8164881685295606 1 rotate no_reflect no_shear #
lump $-1 $-1 $58 $7 #
transform $-1 1 0 0 0 1 0 0 0 1 59.821161534470662 36.896805897517588 7.8164881685295606 1 rotate no_reflect no_shear #
lump $-1 $-1 $59 $8 #
transform $-1 1 0 0 0 1 0 0 0 1 59.821161534470662 36.896805897517588 7.8164881685295606 1 rotate no_reflect no_shear #
lump $-1 $-1 $60 $9 #
transform $-1 1 0 0 0 1 0 0 0 1 59.821161534470662 36.896805897517588 7.8164881685295606 1 rotate no_reflect no_shear #
lump $-1 $-1 $61 $10 #
transform $-1 1 0 0 0 1 0 0 0 1 59.821161534470662 36.896805897517588 7.8164881685295606 1 rotate no_reflect no_shear #
lump $-1 $-1 $62 $11 #
transform $-1 1 0 0 0 1 0 0 0 1 59.821161534470662 36.896805897517588 7.8164881685295606 1 rotate no_reflect no_shear #
lump $-1 $-1 $63 $12 #
transform $-1 1 0 0 0 1 0 0 0 1 59.821161534470662 36.896805897517588 7.8164881685295606 1 rotate no_reflect no_shear #
lump $-1 $-1 $64 $13 #
transform $-1 1 0 0 0 1 0 0 0 1 59.821161534470662 36.896805897517588 7.8164881685295606 1 rotate no_reflect no_shear #
lump $-1 $-1 $65 $14 #
transform $-1 1 0 0 0 1 0 0 0 1 59.821161534470662 36.896805897517588 7.8164881685295606 1 rotate no_reflect no_shear #
lump $-1 $-1 $66 $15 #
transform $-1 1 0 0 0 1 0 0 0 1 59.821161534470662 36.896805897517588 7.8164881685295606 1 rotate no_reflect no_shear #
lump $-1 $-1 $67 $16 #
transform $-1 1 0 0 0 1 0 0 0 1 59.821161534470662 36.896805897517588 7.8164881685295606 1 rotate no_reflect no_shear #
shell $-1 $-1 $-1 $68 $-1 $17 #
shell $-1 $-1 $-1 $69 $-1 $19 #
shell $-1 $-1 $-1 $70 $-1 $21 #
shell $-1 $-1 $-1 $71 $-1 $23 #
shell $-1 $-1 $-1 $72 $-1 $25 #
shell $-1 $-1 $-1 $73 $-1 $27 #
shell $-1 $-1 $-1 $74 $-1 $29 #
shell $-1 $-1 $-1 $75 $-1 $31 #
shell $-1 $-1 $-1 $76 $-1 $33 #
shell $-1 $-1 $-1 $77 $-1 $35 #
shell $-1 $-1 $-1 $78 $-1 $37 #
shell $-1 $-1 $-1 $79 $-1 $39 #
shell $-1 $-1 $-1 $80 $-1 $41 #
shell $-1 $-1 $-1 $81 $-1 $43 #
shell $-1 $-1 $-1 $82 $-1 $45 #
shell $-1 $-1 $-1 $83 $-1 $47 #
shell $-1 $-1 $-1 $84 $-1 $49 #
face $-1 $85 $86 $51 $-1 $87 reversed single #
face $-1 $88 $89 $52 $-1 $90 forward single #
face $-1 $91 $92 $53 $-1 $93 forward single #
face $-1 $94 $95 $54 $-1 $96 reversed single #
face $-1 $97 $98 $55 $-1 $99 forward single #
face $-1 $100 $101 $56 $-1 $102 forward single #
face $-1 $103 $104 $57 $-1 $105 reversed single #
face $-1 $106 $107 $58 $-1 $108 forward single #
face $-1 $109 $110 $59 $-1 $111 forward single #
face $-1 $112 $113 $60 $-1 $114 reversed single #
face $-1 $115 $116 $61 $-1 $117 forward single #
face $-1 $118 $119 $62 $-1 $120 forward single #
face $-1 $121 $122 $63 $-1 $123 reversed single #
face $-1 $124 $125 $64 $-1 $126 forward single #
face $-1 $127 $128 $65 $-1 $129 forward single #
face $-1 $130 $131 $66 $-1 $132 reversed single #
face $-1 $133 $134 $67 $-1 $135 forward single #
face $-1 $136 $137 $51 $-1 $138 reversed single #
loop $-1 $-1 $139 $68 #
plane-surface $-1 59.821161534470662 0 0 -1 0 0 0 0 1 forward_v I I I I #
face $-1 $140 $141 $52 $-1 $142 reversed single #
loop $-1 $-1 $143 $69 #
plane-surface $-1 -59.821161534470662 0 0 1 0 0 0 0 -1 forward_v I I I I #
face $-1 $144 $145 $53 $-1 $146 reversed single #
loop $-1 $-1 $147 $70 #
plane-surface $-1 59.821161534470662 0 0 -1 0 0 0 0 1 forward_v I I I I #
face $-1 $148 $149 $54 $-1 $150 reversed single #
loop $-1 $-1 $151 $71 #
plane-surface $-1 -30.476636845509024 -125.80838018507768 80.51789408593919 -1 0 0 0 -0.74314483375859142 0.66913059716165679 forward_v I I I I #
face $-1 $152 $153 $55 $-1 $154 forward single #
loop $-1 $155 $156 $72 #
cone-surface $-1 -42.220621049852959 -30.643502341950704 1.4899448453473534 0 0.74314483375859142 -0.66913059716165679 2 0 0 1 I I 0 1 2 forward I I I I #
face $-1 $157 $158 $56 $-1 $159 forward single #
loop $-1 $160 $161 $73 #
cone-surface $-1 -35.174230527246593 -30.643502341950704 1.4899448453473534 0 0.74314483375859142 -0.66913059716165679 2 0 0 1 I I 0 1 2 forward I I I I #
face $-1 $162 $163 $57 $-1 $164 reversed single #
loop $-1 $-1 $165 $74 #
plane-surface $-1 -4.6783529864758329 -125.80838018507768 80.51789408593919 -1 0 0 0 -0.74314483375859142 0.66913059716165679 forward_v I I I I #
face $-1 $166 $167 $58 $-1 $168 forward single #
loop $-1 $169 $170 $75 #
cone-surface $-1 -16.422337190819775 -30.643502341950704 1.4899448453473534 0 0.74314483375859142 -0.66913059716165679 2 0 0 1 I I 0 1 2 forward I I I I #
face $-1 $171 $172 $59 $-1 $173 forward single #
loop $-1 $174 $175 $76 #
cone-surface $-1 -9.3759466682134089 -30.643502341950704 1.4899448453473534 0 0.74314483375859142 -0.66913059716165679 2 0 0 1 I I 0 1 2 forward I I I I #
face $-1 $176 $177 $60 $-1 $178 reversed single #
loop $-1 $-1 $179 $77 #
plane-surface $-1 21.119930872557358 -125.80838018507768 80.51789408593919 -1 0 0 0 -0.74314483375859142 0.66913059716165679 forward_v I I I I #
face $-1 $180 $181 $61 $-1 $182 forward single #
loop $-1 $183 $184 $78 #
cone-surface $-1 9.375946668213416 -30.643502341950704 1.4899448453473534 0 0.74314483375859142 -0.66913059716165679 2 0 0 1 I I 0 1 2 forward I I I I #
face $-1 $185 $186 $62 $-1 $187 forward single #
loop $-1 $188 $189 $79 #
cone-surface $-1 16.422337190819775 -30.643502341950704 1.4899448453473534 0 0.74314483375859142 -0.66913059716165679 2 0 0 1 I I 0 1 2 forward I I I I #
face $-1 $190 $191 $63 $-1 $192 reversed single #
loop $-1 $-1 $193 $80 #
plane-surface $-1 46.918214731590552 -125.80838018507768 80.51789408593919 -1 0 0 0 -0.74314483375859142 0.66913059716165679 forward_v I I I I #
face $-1 $194 $195 $64 $-1 $196 forward single #
loop $-1 $197 $198 $81 #
cone-surface $-1 35.174230527246607 -30.643502341950704 1.4899448453473534 0 0.74314483375859142 -0.66913059716165679 2 0 0 1 I I 0 1 2 forward I I I I #
face $-1 $199 $200 $65 $-1 $201 forward single #
loop $-1 $202 $203 $82 #
cone-surface $-1 42.220621049852966 -30.643502341950704 1.4899448453473534 0 0.74314483375859142 -0.66913059716165679 2 0 0 1 I I 0 1 2 forward I I I I #
face $-1 $204 $205 $66 $-1 $206 reversed single #
loop $-1 $-1 $207 $83 #
plane-surface $-1 -51.410576951120156 64.523444410538787 140.96581684166938 1 0 0 0 -0.68199836817093118 -0.7313536940579346 forward_v I I I I #
face $-1 $208 $209 $67 $-1 $210 forward single #
loop $-1 $211 $212 $84 #
cone-surface $-1 -35.433193403414684 33.730051900163645 4.7713996060959269 0 -0.68199836817093118 -0.7313536940579346 1 0 0 1 I I 0 1 1 forward I I I I #
face $-1 $213 $214 $51 $-1 $215 forward single #
loop $-1 $-1 $216 $85 #
plane-surface $-1 -59.821161534470662 0 0 1 0 0 0 0 -1 forward_v I I I I #
coedge $-1 $217 $218 $219 $220 reversed $86 $-1 #
face $-1 $221 $222 $52 $-1 $223 reversed single #
loop $-1 $-1 $224 $88 #
plane-surface $-1 0 0 -7.8164881685295606 0 0 1 1 0 0 forward_v I I I I #
coedge $-1 $225 $226 $227 $228 forward $89 $-1 #
face $-1 $229 $230 $53 $-1 $231 reversed single #
loop $-1 $-1 $232 $91 #
plane-surface $-1 0 0 -7.8164881685295606 0 0 1 1 0 0 forward_v I I I I #
coedge $-1 $233 $234 $235 $236 forward $92 $-1 #
face $-1 $237 $238 $54 $-1 $239 reversed single #
loop $-1 $-1 $240 $94 #
plane-surface $-1 -38.697425788549779 -36.896805897517595 0.46155500501060942 0 -0.74314483375859142 0.66913059716165679 1 0 0 forward_v I I I I #
coedge $-1 $241 $242 $243 $244 reversed $95 $-1 #
face $-1 $-1 $245 $55 $-1 $246 forward single #
loop $-1 $247 $248 $97 #
cone-surface $-1 -42.220621049852959 -26.958259653200827 -1.8282624932370384 0 0.74314483375859142 -0.66913059716165679 1 0 0 1 I I -0.70710678118654768 0.70710678118654735 1 forward I I I I #
loop $-1 $-1 $249 $72 #
coedge $-1 $156 $156 $250 $251 reversed $98 $-1 #
face $-1 $-1 $252 $56 $-1 $253 forward single #
loop $-1 $254 $255 $100 #
cone-surface $-1 -35.174230527246593 -26.958259653200827 -1.8282624932370384 0 0.74314483375859142 -0.66913059716165679 1 0 0 1 I I -0.70710678118654768 0.70710678118654735 1 forward I I I I #
loop $-1 $-1 $256 $73 #
coedge $-1 $161 $161 $257 $258 reversed $101 $-1 #
face $-1 $259 $260 $57 $-1 $261 reversed single #
loop $-1 $-1 $262 $103 #
plane-surface $-1 -12.899141929516588 -36.896805897517595 0.46155500501060942 0 -0.74314483375859142 0.66913059716165679 1 0 0 forward_v I I I I #
coedge $-1 $263 $264 $265 $266 reversed $104 $-1 #
face $-1 $-1 $267 $58 $-1 $268 forward single #
loop $-1 $269 $270 $106 #
cone-surface $-1 -16.422337190819775 -26.958259653200827 -1.8282624932370384 0 0.74314483375859142 -0.66913059716165679 1 0 0 1 I I -0.70710678118654768 0.70710678118654735 1 forward I I I I #
loop $-1 $-1 $271 $75 #
coedge $-1 $170 $170 $272 $273 reversed $107 $-1 #
face $-1 $-1 $274 $59 $-1 $275 forward single #
loop $-1 $276 $277 $109 #
cone-surface $-1 -9.3759466682134089 -26.958259653200827 -1.8282624932370384 0 0.74314483375859142 -0.66913059716165679 1 0 0 1 I I -0.70710678118654768 0.70710678118654735 1 forward I I I I #
loop $-1 $-1 $278 $76 #
coedge $-1 $175 $175 $279 $280 reversed $110 $-1 #
face $-1 $281 $282 $60 $-1 $283 reversed single #
loop $-1 $-1 $284 $112 #
plane-surface $-1 12.899141929516603 -36.896805897517595 0.46155500501060942 0 -0.74314483375859142 0.66913059716165679 1 0 0 forward_v I I I I #
coedge $-1 $285 $286 $287 $288 reversed $113 $-1 #
face $-1 $-1 $289 $61 $-1 $290 forward single #
loop $-1 $291 $292 $115 #
cone-surface $-1 9.375946668213416 -26.958259653200827 -1.8282624932370384 0 0.74314483375859142 -0.66913059716165679 1 0 0 1 I I -0.70710678118654768 0.70710678118654735 1 forward I I I I #
loop $-1 $-1 $293 $78 #
coedge $-1 $184 $184 $294 $295 reversed $116 $-1 #
face $-1 $-1 $296 $62 $-1 $297 forward single #
loop $-1 $298 $299 $118 #
cone-surface $-1 16.422337190819775 -26.958259653200827 -1.8282624932370384 0 0.74314483375859142 -0.66913059716165679 1 0 0 1 I I -0.70710678118654768 0.70710678118654735 1 forward I I I I #
loop $-1 $-1 $300 $79 #
coedge $-1 $189 $189 $301 $302 reversed $119 $-1 #
face $-1 $303 $304 $63 $-1 $305 reversed single #
loop $-1 $-1 $306 $121 #
plane-surface $-1 38.697425788549793 -36.896805897517595 0.46155500501060942 0 -0.74314483375859142 0.66913059716165679 1 0 0 forward_v I I I I #
coedge $-1 $307 $308 $309 $310 reversed $122 $-1 #
face $-1 $-1 $311 $64 $-1 $312 forward single #
loop $-1 $313 $314 $124 #
cone-surface $-1 35.174230527246607 -26.958259653200827 -1.8282624932370384 0 0.74314483375859142 -0.66913059716165679 1 0 0 1 I I -0.70710678118654768 0.70710678118654735 1 forward I I I I #
loop $-1 $-1 $315 $81 #
coedge $-1 $198 $198 $316 $317 reversed $125 $-1 #
face $-1 $-1 $318 $65 $-1 $319 forward single #
loop $-1 $320 $321 $127 #
cone-surface $-1 42.220621049852966 -26.958259653200827 -1.8282624932370384 0 0.74314483375859142 -0.66913059716165679 1 0 0 1 I I -0.70710678118654768 0.70710678118654735 1 forward I I I I #
loop $-1 $-1 $322 $82 #
coedge $-1 $203 $203 $323 $324 reversed $128 $-1 #
face $-1 $325 $326 $66 $-1 $327 reversed single #
loop $-1 $-1 $328 $130 #
plane-surface $-1 -35.433193403414684 -17.07242468665855 53.464961899526301 0 0.68199836817093118 0.7313536940579346 1 0 0 forward_v I I I I #
coedge $-1 $329 $330 $331 $332 reversed $131 $-1 #
face $-1 $-1 $333 $67 $-1 $334 forward single #
loop $-1 $335 $336 $133 #
cone-surface $-1 -35.433193403414684 32.730917110110319 3.6999587439615516 0 -0.68199836817093118 -0.7313536940579346 0.5 0 0 1 I I -0.70710678118654746 0.70710678118654746 0.5 forward I I I I #
loop $-1 $-1 $337 $84 #
coedge $-1 $212 $212 $338 $339 reversed $134 $-1 #
face $-1 $340 $341 $51 $-1 $342 reversed single #
loop $-1 $-1 $343 $136 #
plane-surface $-1 0 0 7.8164881685295606 0 0 1 1 0 0 forward_v I I I I #
coedge $-1 $344 $345 $346 $347 reversed $137 $-1 #
coedge $-1 $348 $139 $349 $350 reversed $86 $-1 #
coedge $-1 $139 $348 $351 $352 forward $86 $-1 #
coedge $-1 $353 $354 $139 $220 forward $341 $-1 #
edge $-1 $355 -36.896805897517588 $356 36.896805897517588 $139 $357 forward 7 unknown #
face $-1 $358 $359 $52 $-1 $360 reversed single #
loop $-1 $-1 $361 $140 #
plane-surface $-1 -62.825222072504495 -29.922779927454339 0 0 1 0 0 0 1 forward_v I I I I #
coedge $-1 $362 $363 $226 $364 forward $141 $-1 #
coedge $-1 $365 $143 $366 $367 reversed $89 $-1 #
coedge $-1 $143 $365 $224 $364 reversed $89 $-1 #
coedge $-1 $368 $369 $143 $228 reversed $370 $-1 #
edge $-1 $371 -7.8164881685295606 $372 7.8164881685295606 $227 $373 forward 7 unknown #
face $-1 $374 $375 $53 $-1 $376 reversed single #
loop $-1 $-1 $235 $144 #
plane-surface $-1 62.825222072504488 -29.922779927454339 0 0 1 0 0 0 1 forward_v I I I I #
coedge $-1 $377 $378 $234 $379 forward $145 $-1 #
coedge $-1 $380 $147 $381 $382 reversed $92 $-1 #
coedge $-1 $147 $380 $232 $379 reversed $92 $-1 #
coedge $-1 $383 $384 $147 $236 reversed $230 $-1 #
edge $-1 $385 -7.8164881685295606 $386 7.8164881685295606 $235 $387 forward 7 unknown #
face $-1 $388 $389 $54 $-1 $390 forward single #
loop $-1 $-1 $391 $148 #
plane-surface $-1 -46.918214731590538 -125.80838018507768 80.51789408593919 1 0 0 0 0.74314483375859142 -0.66913059716165679 forward_v I I I I #
coedge $-1 $392 $393 $394 $395 reversed $149 $-1 #
coedge $-1 $242 $151 $396 $397 reversed $95 $-1 #
coedge $-1 $151 $241 $392 $398 reversed $95 $-1 #
coedge $-1 $394 $399 $151 $244 forward $389 $-1 #
edge $-1 $400 26.007384195021253 $401 32.629795596172443 $243 $402 forward 7 unknown #
loop $-1 $-1 $250 $152 #
plane-surface $-1 -38.697425788549779 -36.896805897517595 0.46155500501060942 0 -0.74314483375859142 0.66913059716165679 1 0 0 forward_v I I I I #
loop $-1 $-1 $403 $97 #
coedge $-1 $248 $248 $249 $404 reversed $153 $-1 #
coedge $-1 $249 $249 $248 $404 forward $155 $-1 #
coedge $-1 $250 $250 $156 $251 forward $245 $-1 #
edge $-1 $405 0 $405 6.2831853071796004 $250 $406 forward 7 unknown #
loop $-1 $-1 $257 $157 #
plane-surface $-1 -38.697425788549779 -36.896805897517595 0.46155500501060942 0 -0.74314483375859142 0.66913059716165679 1 0 0 forward_v I I I I #
loop $-1 $-1 $407 $100 #
coedge $-1 $255 $255 $256 $408 reversed $158 $-1 #
coedge $-1 $256 $256 $255 $408 forward $160 $-1 #
coedge $-1 $257 $257 $161 $258 forward $252 $-1 #
edge $-1 $409 0 $409 6.2831853071796004 $257 $410 forward 7 unknown #
face $-1 $411 $412 $57 $-1 $413 reversed single #
loop $-1 $-1 $414 $162 #
plane-surface $-1 -21.119930872557344 -125.80838018507768 80.51789408593919 1 0 0 0 0.74314483375859142 -0.66913059716165679 forward_v I I I I #
coedge $-1 $415 $416 $417 $418 reversed $163 $-1 #
coedge $-1 $264 $165 $419 $420 reversed $104 $-1 #
coedge $-1 $165 $263 $415 $421 reversed $104 $-1 #
coedge $-1 $417 $422 $165 $266 forward $423 $-1 #
edge $-1 $424 26.007384195021253 $425 32.629795596172443 $265 $426 forward 7 unknown #
loop $-1 $-1 $272 $166 #
plane-surface $-1 -12.899141929516588 -36.896805897517595 0.46155500501060942 0 -0.74314483375859142 0.66913059716165679 1 0 0 forward_v I I I I #
loop $-1 $-1 $427 $106 #
coedge $-1 $270 $270 $271 $428 reversed $167 $-1 #
coedge $-1 $271 $271 $270 $428 forward $169 $-1 #
coedge $-1 $272 $272 $170 $273 forward $267 $-1 #
edge $-1 $429 0 $429 6.2831853071796004 $272 $430 forward 7 unknown #
loop $-1 $-1 $279 $171 #
plane-surface $-1 -12.899141929516588 -36.896805897517595 0.46155500501060942 0 -0.74314483375859142 0.66913059716165679 1 0 0 forward_v I I I I #
loop $-1 $-1 $431 $109 #
coedge $-1 $277 $277 $278 $432 reversed $172 $-1 #
coedge $-1 $278 $278 $277 $432 forward $174 $-1 #
coedge $-1 $279 $279 $175 $280 forward $274 $-1 #
edge $-1 $433 0 $433 6.2831853071796004 $279 $434 forward 7 unknown #
face $-1 $435 $436 $60 $-1 $437 reversed single #
loop $-1 $-1 $438 $176 #
plane-surface $-1 4.6783529864758471 -125.80838018507768 80.51789408593919 1 0 0 0 0.74314483375859142 -0.66913059716165679 forward_v I I I I #
coedge $-1 $439 $440 $441 $442 reversed $177 $-1 #
coedge $-1 $286 $179 $443 $444 reversed $113 $-1 #
coedge $-1 $179 $285 $439 $445 reversed $113 $-1 #
coedge $-1 $441 $446 $179 $288 forward $447 $-1 #
edge $-1 $448 26.007384195021253 $449 32.629795596172443 $287 $450 forward 7 unknown #
loop $-1 $-1 $294 $180 #
plane-surface $-1 12.899141929516603 -36.896805897517595 0.46155500501060942 0 -0.74314483375859142 0.66913059716165679 1 0 0 forward_v I I I I #
loop $-1 $-1 $451 $115 #
coedge $-1 $292 $292 $293 $452 reversed $181 $-1 #
coedge $-1 $293 $293 $292 $452 forward $183 $-1 #
coedge $-1 $294 $294 $184 $295 forward $289 $-1 #
edge $-1 $453 0 $453 6.2831853071796004 $294 $454 forward 7 unknown #
loop $-1 $-1 $301 $185 #
plane-surface $-1 12.899141929516603 -36.896805897517595 0.46155500501060942 0 -0.74314483375859142 0.66913059716165679 1 0 0 forward_v I I I I #
loop $-1 $-1 $455 $118 #
coedge $-1 $299 $299 $300 $456 reversed $186 $-1 #
coedge $-1 $300 $300 $299 $456 forward $188 $-1 #
coedge $-1 $301 $301 $189 $302 forward $296 $-1 #
edge $-1 $457 0 $457 6.2831853071796004 $301 $458 forward 7 unknown #
face $-1 $459 $460 $63 $-1 $461 reversed single #
loop $-1 $-1 $462 $190 #
plane-surface $-1 30.476636845509038 -125.80838018507768 80.51789408593919 1 0 0 0 0.74314483375859142 -0.66913059716165679 forward_v I I I I #
coedge $-1 $463 $464 $465 $466 reversed $191 $-1 #
coedge $-1 $308 $193 $467 $468 reversed $122 $-1 #
coedge $-1 $193 $307 $463 $469 reversed $122 $-1 #
coedge $-1 $465 $470 $193 $310 forward $471 $-1 #
edge $-1 $472 26.007384195021253 $473 32.629795596172443 $309 $474 forward 7 unknown #
loop $-1 $-1 $316 $194 #
plane-surface $-1 38.697425788549793 -36.896805897517595 0.46155500501060942 0 -0.74314483375859142 0.66913059716165679 1 0 0 forward_v I I I I #
loop $-1 $-1 $475 $124 #
coedge $-1 $314 $314 $315 $476 reversed $195 $-1 #
coedge $-1 $315 $315 $314 $476 forward $197 $-1 #
coedge $-1 $316 $316 $198 $317 forward $311 $-1 #
edge $-1 $477 0 $477 6.2831853071796004 $316 $478 forward 7 unknown #
loop $-1 $-1 $323 $199 #
plane-surface $-1 38.697425788549793 -36.896805897517595 0.46155500501060942 0 -0.74314483375859142 0.66913059716165679 1 0 0 forward_v I I I I #
loop $-1 $-1 $479 $127 #
coedge $-1 $321 $321 $322 $480 reversed $200 $-1 #
coedge $-1 $322 $322 $321 $480 forward $202 $-1 #
coedge $-1 $323 $323 $203 $324 forward $318 $-1 #
edge $-1 $481 0 $481 6.2831853071796004 $323 $482 forward 7 unknown #
face $-1 $483 $484 $66 $-1 $485 reversed single #
loop $-1 $-1 $486 $204 #
plane-surface $-1 -19.455809855709212 64.523444410538787 140.96581684166938 -1 0 0 0 0.68199836817093118 0.7313536940579346 forward_v I I I I #
coedge $-1 $487 $488 $489 $490 reversed $205 $-1 #
coedge $-1 $330 $207 $491 $492 reversed $131 $-1 #
coedge $-1 $207 $329 $487 $493 reversed $131 $-1 #
coedge $-1 $489 $494 $207 $332 forward $495 $-1 #
edge $-1 $496 -4.6350836922481946 $497 0.38215309052395696 $331 $498 forward 7 unknown #
loop $-1 $-1 $338 $208 #
plane-surface $-1 -35.433193403414684 -17.07242468665855 53.464961899526301 0 0.68199836817093118 0.7313536940579346 1 0 0 forward_v I I I I #
loop $-1 $-1 $499 $133 #
coedge $-1 $336 $336 $337 $500 reversed $209 $-1 #
coedge $-1 $337 $337 $336 $500 forward $211 $-1 #
coedge $-1 $338 $338 $212 $339 forward $333 $-1 #
edge $-1 $501 2.0722542487196603e-015 $501 6.2831853071796022 $338 $502 forward 7 unknown #
face $-1 $503 $504 $51 $-1 $505 reversed single #
loop $-1 $-1 $219 $213 #
plane-surface $-1 0 0 -7.8164881685295606 0 0 1 1 0 0 forward_v I I I I #
coedge $-1 $506 $507 $348 $508 forward $214 $-1 #
coedge $-1 $509 $216 $510 $511 reversed $137 $-1 #
coedge $-1 $216 $509 $512 $513 forward $137 $-1 #
coedge $-1 $354 $353 $216 $347 forward $341 $-1 #
edge $-1 $514 -36.896805897517588 $515 36.896805897517588 $216 $516 forward 7 unknown #
coedge $-1 $218 $217 $343 $508 reversed $86 $-1 #
coedge $-1 $517 $518 $217 $350 forward $519 $-1 #
edge $-1 $520 -7.8164881685295606 $355 7.8164881685295606 $217 $521 forward 7 unknown #
coedge $-1 $522 $523 $218 $352 reversed $504 $-1 #
edge $-1 $524 -7.8164881685295606 $356 7.8164881685295606 $218 $525 forward 7 unknown #
coedge $-1 $346 $219 $523 $526 forward $341 $-1 #
coedge $-1 $219 $346 $517 $527 forward $341 $-1 #
vertex $-1 $220 $528 #
vertex $-1 $352 $529 #
straight-curve $-1 59.821161534470662 0 -7.8164881685295606 0 -1 0 I I #
face $-1 $530 $370 $52 $-1 $531 reversed single #
loop $-1 $-1 $532 $221 #
plane-surface $-1 -65.829282610538328 -28.422779927454339 0 1 0 0 0 0 -1 forward_v I I I I #
coedge $-1 $533 $534 $535 $536 forward $222 $-1 #
coedge $-1 $537 $224 $533 $538 forward $141 $-1 #
coedge $-1 $224 $537 $368 $539 forward $141 $-1 #
edge $-1 $371 26.922779927454339 $540 29.922779927454339 $224 $541 forward 7 unknown #
coedge $-1 $226 $225 $542 $543 forward $89 $-1 #
coedge $-1 $544 $545 $225 $367 forward $546 $-1 #
edge $-1 $547 -29.922779927454339 $372 -26.922779927454339 $366 $548 forward 7 unknown #
coedge $-1 $549 $227 $363 $539 reversed $370 $-1 #
coedge $-1 $227 $549 $544 $550 reversed $370 $-1 #
loop $-1 $-1 $227 $358 #
vertex $-1 $364 $551 #
vertex $-1 $550 $552 #
straight-curve $-1 -59.821161534470662 -26.922779927454339 0 0 0 1 I I #
face $-1 $553 $554 $53 $-1 $555 reversed single #
loop $-1 $-1 $556 $229 #
plane-surface $-1 62.825222072504488 -26.922779927454339 0 0 -1 0 0 0 -1 forward_v I I I I #
coedge $-1 $557 $232 $558 $559 forward $145 $-1 #
coedge $-1 $232 $557 $383 $560 forward $145 $-1 #
edge $-1 $385 -29.922779927454339 $561 -26.922779927454339 $232 $562 forward 7 unknown #
coedge $-1 $234 $233 $563 $564 forward $92 $-1 #
coedge $-1 $565 $566 $233 $382 forward $567 $-1 #
edge $-1 $568 26.922779927454339 $386 29.922779927454339 $381 $569 forward 7 unknown #
coedge $-1 $570 $235 $378 $560 reversed $230 $-1 #
coedge $-1 $235 $570 $565 $571 reversed $230 $-1 #
vertex $-1 $379 $572 #
vertex $-1 $571 $573 #
straight-curve $-1 59.821161534470662 -29.922779927454339 0 0 0 1 I I #
face $-1 $-1 $574 $54 $-1 $575 reversed single #
loop $-1 $-1 $243 $237 #
plane-surface $-1 0 0 7.8164881685295606 0 0 1 1 0 0 forward_v I I I I #
coedge $-1 $576 $577 $578 $579 reversed $238 $-1 #
coedge $-1 $580 $240 $242 $398 forward $149 $-1 #
coedge $-1 $240 $580 $576 $581 forward $149 $-1 #
coedge $-1 $578 $243 $240 $395 forward $389 $-1 #
edge $-1 $401 11.127923951234134 $582 27.569501837315649 $394 $583 forward 7 unknown #
coedge $-1 $584 $585 $241 $397 forward $574 $-1 #
edge $-1 $586 -39.797392037958979 $400 -32.442458874440035 $396 $587 forward 7 unknown #
edge $-1 $401 -9.8970386786113096 $586 -1.0612360036877491e-014 $242 $588 forward 7 unknown #
coedge $-1 $243 $578 $584 $589 forward $389 $-1 #
vertex $-1 $244 $590 #
vertex $-1 $244 $591 #
straight-curve $-1 -30.476636845509024 -62.90419009253884 7.8164881685295597 0 1 0 I I #
coedge $-1 $403 $403 $-1 $592 reversed $247 $-1 #
edge $-1 $593 0 $593 6.2831853071796004 $248 $594 forward 7 unknown #
vertex $-1 $251 $595 #
ellipse-curve $-1 -42.220621049852959 -33.585600196941989 4.1390215867700881 0 -0.74314483375859142 0.66913059716165679 2 0 0 1 I I #
coedge $-1 $407 $407 $-1 $596 reversed $254 $-1 #
edge $-1 $597 0 $597 6.2831853071796004 $255 $598 forward 7 unknown #
vertex $-1 $258 $599 #
ellipse-curve $-1 -35.174230527246593 -33.585600196941989 4.1390215867700881 0 -0.74314483375859142 0.66913059716165679 2 0 0 1 I I #
face $-1 $-1 $423 $57 $-1 $600 forward single #
loop $-1 $-1 $601 $259 #
plane-surface $-1 0 -36.896805897517588 0 0 1 0 0 0 1 forward_v I I I I #
coedge $-1 $602 $603 $604 $605 reversed $260 $-1 #
coedge $-1 $606 $262 $264 $421 forward $163 $-1 #
coedge $-1 $262 $606 $602 $607 forward $163 $-1 #
coedge $-1 $604 $265 $262 $418 forward $423 $-1 #
edge $-1 $425 -1.7712179782824613 $608 14.67035990779905 $417 $609 forward 7 unknown #
coedge $-1 $610 $611 $263 $420 forward $412 $-1 #
edge $-1 $612 -39.797392037958979 $424 -32.442458874440035 $419 $613 forward 7 unknown #
edge $-1 $425 -9.8970386786113096 $612 -1.0612360036877491e-014 $264 $614 forward 7 unknown #
coedge $-1 $265 $604 $610 $615 forward $423 $-1 #
loop $-1 $-1 $604 $411 #
vertex $-1 $420 $616 #
vertex $-1 $266 $617 #
straight-curve $-1 -4.6783529864758329 -62.90419009253884 7.8164881685295597 0 1 0 I I #
coedge $-1 $427 $427 $-1 $618 reversed $269 $-1 #
edge $-1 $619 0 $619 6.2831853071796004 $270 $620 forward 7 unknown #
vertex $-1 $273 $621 #
ellipse-curve $-1 -16.422337190819775 -33.585600196941989 4.1390215867700881 0 -0.74314483375859142 0.66913059716165679 2 0 0 1 I I #
coedge $-1 $431 $431 $-1 $622 reversed $276 $-1 #
edge $-1 $623 0 $623 6.2831853071796004 $277 $624 forward 7 unknown #
vertex $-1 $280 $625 #
ellipse-curve $-1 -9.3759466682134089 -33.585600196941989 4.1390215867700881 0 -0.74314483375859142 0.66913059716165679 2 0 0 1 I I #
face $-1 $-1 $447 $60 $-1 $626 forward single #
loop $-1 $-1 $627 $281 #
plane-surface $-1 0 -36.896805897517588 0 0 1 0 0 0 1 forward_v I I I I #
coedge $-1 $628 $629 $630 $631 reversed $282 $-1 #
coedge $-1 $632 $284 $286 $445 forward $177 $-1 #
coedge $-1 $284 $632 $628 $633 forward $177 $-1 #
coedge $-1 $630 $287 $284 $442 forward $447 $-1 #
edge $-1 $449 -14.670359907799057 $634 1.7712179782824542 $441 $635 forward 7 unknown #
coedge $-1 $636 $637 $285 $444 forward $436 $-1 #
edge $-1 $638 -39.797392037958979 $448 -32.442458874440035 $443 $639 forward 7 unknown #
edge $-1 $449 -9.8970386786113096 $638 -1.0612360036877491e-014 $286 $640 forward 7 unknown #
coedge $-1 $287 $630 $636 $641 forward $447 $-1 #
loop $-1 $-1 $630 $435 #
vertex $-1 $444 $642 #
vertex $-1 $288 $643 #
straight-curve $-1 21.119930872557358 -62.90419009253884 7.8164881685295597 0 1 0 I I #
coedge $-1 $451 $451 $-1 $644 reversed $291 $-1 #
edge $-1 $645 0 $645 6.2831853071796004 $292 $646 forward 7 unknown #
vertex $-1 $295 $647 #
ellipse-curve $-1 9.375946668213416 -33.585600196941989 4.1390215867700881 0 -0.74314483375859142 0.66913059716165679 2 0 0 1 I I #
coedge $-1 $455 $455 $-1 $648 reversed $298 $-1 #
edge $-1 $649 0 $649 6.2831853071796004 $299 $650 forward 7 unknown #
vertex $-1 $302 $651 #
ellipse-curve $-1 16.422337190819775 -33.585600196941989 4.1390215867700881 0 -0.74314483375859142 0.66913059716165679 2 0 0 1 I I #
face $-1 $-1 $471 $63 $-1 $652 forward single #
loop $-1 $-1 $653 $303 #
plane-surface $-1 0 -36.896805897517588 0 0 1 0 0 0 1 forward_v I I I I #
coedge $-1 $654 $655 $656 $657 reversed $304 $-1 #
coedge $-1 $658 $306 $308 $469 forward $191 $-1 #
coedge $-1 $306 $658 $654 $659 forward $191 $-1 #
coedge $-1 $656 $309 $306 $466 forward $471 $-1 #
edge $-1 $473 -27.569501837315656 $660 -11.127923951234141 $465 $661 forward 7 unknown #
coedge $-1 $662 $663 $307 $468 forward $460 $-1 #
edge $-1 $664 -39.797392037958979 $472 -32.442458874440035 $467 $665 forward 7 unknown #
edge $-1 $473 -9.8970386786113096 $664 -1.0612360036877491e-014 $308 $666 forward 7 unknown #
coedge $-1 $309 $656 $662 $667 forward $471 $-1 #
loop $-1 $-1 $656 $459 #
vertex $-1 $468 $668 #
vertex $-1 $310 $669 #
straight-curve $-1 46.918214731590552 -62.90419009253884 7.8164881685295597 0 1 0 I I #
coedge $-1 $475 $475 $-1 $670 reversed $313 $-1 #
edge $-1 $671 0 $671 6.2831853071796004 $314 $672 forward 7 unknown #
vertex $-1 $317 $673 #
ellipse-curve $-1 35.174230527246607 -33.585600196941989 4.1390215867700881 0 -0.74314483375859142 0.66913059716165679 2 0 0 1 I I #
coedge $-1 $479 $479 $-1 $674 reversed $320 $-1 #
edge $-1 $675 0 $675 6.2831853071796004 $321 $676 forward 7 unknown #
vertex $-1 $324 $677 #
ellipse-curve $-1 42.220621049852966 -33.585600196941989 4.1390215867700881 0 -0.74314483375859142 0.66913059716165679 2 0 0 1 I I #
face $-1 $-1 $495 $66 $-1 $678 forward single #
loop $-1 $-1 $679 $325 #
plane-surface $-1 0 36.896805897517588 0 0 -1 0 0 0 -1 forward_v I I I I #
coedge $-1 $680 $681 $682 $683 reversed $326 $-1 #
coedge $-1 $684 $328 $330 $493 forward $205 $-1 #
coedge $-1 $328 $684 $680 $685 forward $205 $-1 #
coedge $-1 $682 $331 $328 $490 forward $495 $-1 #
edge $-1 $497 -33.693980249412817 $686 -1.7392131540018703 $489 $687 forward 7 unknown #
coedge $-1 $688 $689 $329 $492 forward $484 $-1 #
edge $-1 $690 -67.345069346961552 $496 -62.66642025230513 $491 $691 forward 7 unknown #
edge $-1 $497 66.933406092191319 $690 73.793611795035162 $330 $692 forward 7 unknown #
coedge $-1 $331 $682 $688 $693 forward $495 $-1 #
loop $-1 $-1 $682 $483 #
vertex $-1 $492 $694 #
vertex $-1 $332 $695 #
straight-curve $-1 -51.410576951120156 32.261722205269393 7.8164881685295597 0 -1 0 I I #
coedge $-1 $499 $499 $-1 $696 reversed $335 $-1 #
edge $-1 $697 0 $697 6.2831853071796004 $336 $698 forward 7 unknown #
vertex $-1 $339 $699 #
ellipse-curve $-1 -35.433193403414684 34.388187506131516 5.4771636212013464 0 0.68199836817093118 0.7313536940579346 1 0 0 1 I I #
face $-1 $-1 $519 $51 $-1 $700 reversed single #
loop $-1 $-1 $510 $340 #
plane-surface $-1 0 -36.896805897517588 0 0 1 0 0 0 1 forward_v I I I I #
coedge $-1 $701 $343 $518 $702 forward $214 $-1 #
coedge $-1 $343 $701 $522 $703 forward $214 $-1 #
edge $-1 $524 -36.896805897517588 $520 36.896805897517588 $348 $704 forward 7 unknown #
coedge $-1 $345 $344 $701 $705 reversed $137 $-1 #
coedge $-1 $523 $522 $344 $511 forward $504 $-1 #
edge $-1 $706 -7.8164881685295606 $514 7.8164881685295606 $344 $707 forward 7 unknown #
coedge $-1 $518 $517 $345 $513 reversed $519 $-1 #
edge $-1 $708 -7.8164881685295606 $515 7.8164881685295606 $512 $709 forward 7 unknown #
vertex $-1 $347 $710 #
vertex $-1 $527 $711 #
straight-curve $-1 -59.821161534470662 0 -7.8164881685295606 0 1 0 I I #
coedge $-1 $512 $349 $354 $527 reversed $519 $-1 #
coedge $-1 $349 $512 $506 $702 reversed $519 $-1 #
loop $-1 $-1 $349 $503 #
vertex $-1 $508 $712 #
straight-curve $-1 59.821161534470662 36.896805897517588 0 0 0 -1 I I #
coedge $-1 $510 $351 $507 $703 reversed $504 $-1 #
coedge $-1 $351 $510 $353 $526 reversed $504 $-1 #
vertex $-1 $508 $713 #
straight-curve $-1 59.821161534470662 -36.896805897517588 0 0 0 -1 I I #
edge $-1 $356 -59.821161534470662 $514 59.821161534470662 $523 $714 forward 7 unknown #
edge $-1 $515 -59.821161534470662 $355 59.821161534470662 $517 $715 forward 7 unknown #
point $-1 59.821161534470662 36.896805897517588 -7.8164881685295606 #
point $-1 59.821161534470662 -36.896805897517588 -7.8164881685295606 #
face $-1 $-1 $546 $52 $-1 $716 forward single #
plane-surface $-1 -62.825222072504495 -26.922779927454339 0 0 -1 0 0 0 -1 forward_v I I I I #
coedge $-1 $717 $718 $549 $719 forward $359 $-1 #
coedge $-1 $542 $361 $362 $538 reversed $222 $-1 #
coedge $-1 $361 $542 $545 $720 reversed $222 $-1 #
coedge $-1 $718 $717 $361 $536 reversed $359 $-1 #
edge $-1 $721 -7.8164881685295606 $722 7.8164881685295606 $535 $723 forward 7 unknown #
coedge $-1 $363 $362 $717 $724 forward $141 $-1 #
edge $-1 $540 -3.0040605380338334 $722 3.0040605380338334 $533 $725 forward 7 unknown #
edge $-1 $726 -3.0040605380338334 $371 3.0040605380338334 $368 $727 forward 7 unknown #
vertex $-1 $538 $728 #
straight-curve $-1 -59.821161534470662 0 -7.8164881685295606 0 -1 0 I I #
coedge $-1 $534 $533 $365 $543 reversed $222 $-1 #
edge $-1 $547 -7.8164881685295606 $540 7.8164881685295606 $542 $729 forward 7 unknown #
coedge $-1 $730 $366 $369 $550 forward $546 $-1 #
coedge $-1 $366 $730 $534 $720 forward $546 $-1 #
loop $-1 $-1 $366 $530 #
vertex $-1 $367 $731 #
straight-curve $-1 -59.821161534470662 0 7.8164881685295606 0 1 0 I I #
coedge $-1 $369 $368 $532 $719 reversed $370 $-1 #
edge $-1 $372 -3.0040605380338334 $732 3.0040605380338334 $369 $733 forward 7 unknown #
point $-1 -59.821161534470662 -26.922779927454339 -7.8164881685295606 #
point $-1 -59.821161534470662 -26.922779927454339 7.8164881685295606 #
face $-1 $-1 $567 $53 $-1 $734 forward single #
loop $-1 $-1 $735 $374 #
plane-surface $-1 65.829282610538314 -28.422779927454339 0 -1 0 0 0 0 1 forward_v I I I I #
coedge $-1 $558 $736 $737 $738 forward $375 $-1 #
coedge $-1 $378 $377 $739 $740 forward $145 $-1 #
coedge $-1 $563 $556 $377 $559 reversed $375 $-1 #
edge $-1 $561 -3.0040605380338334 $741 3.0040605380338263 $558 $742 forward 7 unknown #
edge $-1 $743 -3.0040605380338263 $385 3.0040605380338334 $383 $744 forward 7 unknown #
vertex $-1 $559 $745 #
straight-curve $-1 59.821161534470662 0 -7.8164881685295606 0 1 0 I I #
coedge $-1 $736 $558 $380 $564 reversed $375 $-1 #
edge $-1 $568 -7.8164881685295606 $561 7.8164881685295606 $563 $746 forward 7 unknown #
coedge $-1 $747 $381 $384 $571 forward $567 $-1 #
coedge $-1 $381 $747 $736 $748 forward $567 $-1 #
loop $-1 $-1 $381 $553 #
vertex $-1 $382 $749 #
straight-curve $-1 59.821161534470662 0 7.8164881685295606 0 -1 0 I I #
coedge $-1 $384 $383 $735 $750 reversed $230 $-1 #
edge $-1 $386 -3.0040605380338334 $751 3.0040605380338263 $384 $752 forward 7 unknown #
point $-1 59.821161534470654 -29.922779927454339 -7.8164881685295606 #
point $-1 59.821161534470654 -29.922779927454339 7.8164881685295606 #
loop $-1 $-1 $396 $388 #
plane-surface $-1 0 -36.896805897517588 0 0 1 0 0 0 1 forward_v I I I I #
coedge $-1 $577 $391 $393 $581 reversed $238 $-1 #
coedge $-1 $391 $576 $753 $754 reversed $238 $-1 #
coedge $-1 $399 $394 $391 $579 forward $389 $-1 #
edge $-1 $582 -32.629795596172443 $755 -26.007384195021253 $578 $756 forward 7 unknown #
coedge $-1 $393 $392 $585 $757 reversed $149 $-1 #
edge $-1 $758 1.0612360036877491e-014 $582 9.8970386786113096 $576 $759 forward 7 unknown #
vertex $-1 $395 $760 #
straight-curve $-1 -19.34871289427489 -30.274394496366394 7.8164881685295606 -1 0 0 I I #
coedge $-1 $753 $396 $399 $589 reversed $574 $-1 #
coedge $-1 $396 $753 $580 $757 forward $574 $-1 #
vertex $-1 $397 $761 #
straight-curve $-1 -30.476636845509024 -36.896805897517588 40.258947042969595 0 0 1 I I #
straight-curve $-1 -30.476636845509024 -36.896805897517595 0.46155500501060942 0 -0.66913059716165679 -0.74314483375859142 I I #
edge $-1 $755 -46.918214731590538 $400 -30.476636845509024 $584 $762 forward 7 unknown #
point $-1 -30.476636845509024 -36.896805897517588 7.8164881685295606 #
point $-1 -30.476636845509024 -30.274394496366394 7.8164881685295606 #
edge $-1 $763 1 $763 0 $403 $-1 forward 7 unknown #
vertex $-1 $404 $764 #
ellipse-curve $-1 -42.220621049852959 -27.701404486959419 -1.1591318960753818 0 -0.74314483375859142 0.66913059716165679 2 0 0 1 I I #
point $-1 -40.220621049852959 -33.585600196941989 4.1390215867700881 #
edge $-1 $765 1 $765 0 $407 $-1 forward 7 unknown #
vertex $-1 $408 $766 #
ellipse-curve $-1 -35.174230527246593 -27.701404486959419 -1.1591318960753818 0 -0.74314483375859142 0.66913059716165679 2 0 0 1 I I #
point $-1 -33.174230527246593 -33.585600196941989 4.1390215867700881 #
plane-surface $-1 0 0 7.8164881685295606 0 0 1 1 0 0 forward_v I I I I #
coedge $-1 $611 $610 $603 $767 forward $412 $-1 #
coedge $-1 $603 $414 $416 $607 reversed $260 $-1 #
coedge $-1 $414 $602 $601 $767 reversed $260 $-1 #
coedge $-1 $422 $417 $414 $605 forward $423 $-1 #
edge $-1 $608 -32.629795596172443 $768 -26.007384195021253 $604 $769 forward 7 unknown #
coedge $-1 $416 $415 $611 $770 reversed $163 $-1 #
edge $-1 $771 1.0612360036877491e-014 $608 9.8970386786113096 $602 $772 forward 7 unknown #
vertex $-1 $418 $773 #
straight-curve $-1 -6.4495709647582942 -30.274394496366394 7.8164881685295606 -1 0 0 I I #
coedge $-1 $601 $419 $422 $615 reversed $412 $-1 #
coedge $-1 $419 $601 $606 $770 forward $412 $-1 #
vertex $-1 $420 $774 #
straight-curve $-1 -4.6783529864758329 -36.896805897517588 40.258947042969595 0 0 1 I I #
straight-curve $-1 -4.6783529864758329 -36.896805897517595 0.46155500501060942 0 -0.66913059716165679 -0.74314483375859142 I I #
edge $-1 $768 -21.119930872557344 $424 -4.6783529864758329 $610 $775 forward 7 unknown #
point $-1 -4.6783529864758329 -36.896805897517588 7.8164881685295606 #
point $-1 -4.6783529864758329 -30.274394496366394 7.8164881685295606 #
edge $-1 $776 1 $776 0 $427 $-1 forward 7 unknown #
vertex $-1 $428 $777 #
ellipse-curve $-1 -16.422337190819775 -27.701404486959419 -1.1591318960753818 0 -0.74314483375859142 0.66913059716165679 2 0 0 1 I I #
point $-1 -14.422337190819775 -33.585600196941989 4.1390215867700881 #
edge $-1 $778 1 $778 0 $431 $-1 forward 7 unknown #
vertex $-1 $432 $779 #
ellipse-curve $-1 -9.3759466682134089 -27.701404486959419 -1.1591318960753818 0 -0.74314483375859142 0.66913059716165679 2 0 0 1 I I #
point $-1 -7.3759466682134089 -33.585600196941989 4.1390215867700881 #
plane-surface $-1 0 0 7.8164881685295606 0 0 1 1 0 0 forward_v I I I I #
coedge $-1 $637 $636 $629 $780 forward $436 $-1 #
coedge $-1 $629 $438 $440 $633 reversed $282 $-1 #
coedge $-1 $438 $628 $627 $780 reversed $282 $-1 #
coedge $-1 $446 $441 $438 $631 forward $447 $-1 #
edge $-1 $634 -32.629795596172443 $781 -26.007384195021253 $630 $782 forward 7 unknown #
coedge $-1 $440 $439 $637 $783 reversed $177 $-1 #
edge $-1 $784 1.0612360036877491e-014 $634 9.8970386786113096 $628 $785 forward 7 unknown #
vertex $-1 $442 $786 #
straight-curve $-1 6.4495709647583013 -30.274394496366394 7.8164881685295606 -1 0 0 I I #
coedge $-1 $627 $443 $446 $641 reversed $436 $-1 #
coedge $-1 $443 $627 $632 $783 forward $436 $-1 #
vertex $-1 $444 $787 #
straight-curve $-1 21.119930872557358 -36.896805897517588 40.258947042969595 0 0 1 I I #
straight-curve $-1 21.119930872557358 -36.896805897517595 0.46155500501060942 0 -0.66913059716165679 -0.74314483375859142 I I #
edge $-1 $781 4.6783529864758471 $448 21.119930872557358 $636 $788 forward 7 unknown #
point $-1 21.119930872557358 -36.896805897517588 7.8164881685295606 #
point $-1 21.119930872557358 -30.274394496366394 7.8164881685295606 #
edge $-1 $789 1 $789 0 $451 $-1 forward 7 unknown #
vertex $-1 $452 $790 #
ellipse-curve $-1 9.375946668213416 -27.701404486959419 -1.1591318960753818 0 -0.74314483375859142 0.66913059716165679 2 0 0 1 I I #
point $-1 11.375946668213416 -33.585600196941989 4.1390215867700881 #
edge $-1 $791 1 $791 0 $455 $-1 forward 7 unknown #
vertex $-1 $456 $792 #
ellipse-curve $-1 16.422337190819775 -27.701404486959419 -1.1591318960753818 0 -0.74314483375859142 0.66913059716165679 2 0 0 1 I I #
point $-1 18.422337190819775 -33.585600196941989 4.1390215867700881 #
plane-surface $-1 0 0 7.8164881685295606 0 0 1 1 0 0 forward_v I I I I #
coedge $-1 $663 $662 $655 $793 forward $460 $-1 #
coedge $-1 $655 $462 $464 $659 reversed $304 $-1 #
coedge $-1 $462 $654 $653 $793 reversed $304 $-1 #
coedge $-1 $470 $465 $462 $657 forward $471 $-1 #
edge $-1 $660 -32.629795596172443 $794 -26.007384195021253 $656 $795 forward 7 unknown #
coedge $-1 $464 $463 $663 $796 reversed $191 $-1 #
edge $-1 $797 1.0612360036877491e-014 $660 9.8970386786113096 $654 $798 forward 7 unknown #
vertex $-1 $466 $799 #
straight-curve $-1 19.348712894274897 -30.274394496366394 7.8164881685295606 -1 0 0 I I #
coedge $-1 $653 $467 $470 $667 reversed $460 $-1 #
coedge $-1 $467 $653 $658 $796 forward $460 $-1 #
vertex $-1 $468 $800 #
straight-curve $-1 46.918214731590552 -36.896805897517588 40.258947042969595 0 0 1 I I #
straight-curve $-1 46.918214731590552 -36.896805897517595 0.46155500501060942 0 -0.66913059716165679 -0.74314483375859142 I I #
edge $-1 $794 30.476636845509038 $472 46.918214731590552 $662 $801 forward 7 unknown #
point $-1 46.918214731590552 -36.896805897517588 7.8164881685295606 #
point $-1 46.918214731590552 -30.274394496366394 7.8164881685295606 #
edge $-1 $802 1 $802 0 $475 $-1 forward 7 unknown #
vertex $-1 $476 $803 #
ellipse-curve $-1 35.174230527246607 -27.701404486959419 -1.1591318960753818 0 -0.74314483375859142 0.66913059716165679 2 0 0 1 I I #
point $-1 37.174230527246607 -33.585600196941989 4.1390215867700881 #
edge $-1 $804 1 $804 0 $479 $-1 forward 7 unknown #
vertex $-1 $480 $805 #
ellipse-curve $-1 42.220621049852966 -27.701404486959419 -1.1591318960753818 0 -0.74314483375859142 0.66913059716165679 2 0 0 1 I I #
point $-1 44.220621049852966 -33.585600196941989 4.1390215867700881 #
plane-surface $-1 0 0 7.8164881685295606 0 0 1 1 0 0 forward_v I I I I #
coedge $-1 $689 $688 $681 $806 forward $484 $-1 #
coedge $-1 $681 $486 $488 $685 reversed $326 $-1 #
coedge $-1 $486 $680 $679 $806 reversed $326 $-1 #
coedge $-1 $494 $489 $486 $683 forward $495 $-1 #
edge $-1 $686 -0.38215309052395696 $807 4.6350836922481946 $682 $808 forward 7 unknown #
coedge $-1 $488 $487 $689 $809 reversed $205 $-1 #
edge $-1 $810 -73.793611795035162 $686 -66.933406092191319 $680 $811 forward 7 unknown #
vertex $-1 $490 $812 #
straight-curve $-1 -17.716596701707342 31.879569114745433 7.8164881685295597 1 0 0 I I #
coedge $-1 $679 $491 $494 $693 reversed $484 $-1 #
coedge $-1 $491 $679 $684 $809 forward $484 $-1 #
vertex $-1 $492 $813 #
straight-curve $-1 -51.410576951120156 36.896805897517588 70.48290842083469 0 0 1 I I #
straight-curve $-1 -51.410576951120156 -17.07242468665855 53.464961899526301 0 0.7313536940579346 -0.68199836817093118 I I #
edge $-1 $807 19.455809855709212 $496 51.410576951120156 $688 $814 forward 7 unknown #
point $-1 -51.410576951120156 36.896805897517588 7.8164881685295606 #
point $-1 -51.410576951120156 31.879569114745436 7.8164881685295597 #
edge $-1 $815 1 $815 0 $499 $-1 forward 7 unknown #
vertex $-1 $500 $816 #
ellipse-curve $-1 -35.433193403414684 33.071916294195788 4.0656355909905191 0 0.68199836817093118 0.7313536940579346 1 0 0 1 I I #
point $-1 -34.433193403414684 34.388187506131509 5.4771636212013357 #
plane-surface $-1 0 36.896805897517588 0 0 -1 0 0 0 -1 forward_v I I I I #
coedge $-1 $507 $506 $509 $705 forward $214 $-1 #
edge $-1 $520 -59.821161534470662 $708 59.821161534470662 $518 $817 forward 7 unknown #
edge $-1 $706 -59.821161534470662 $524 59.821161534470662 $522 $818 forward 7 unknown #
straight-curve $-1 59.821161534470662 0 7.8164881685295606 0 1 0 I I #
edge $-1 $708 -36.896805897517588 $706 36.896805897517588 $509 $819 forward 7 unknown #
vertex $-1 $705 $820 #
straight-curve $-1 -59.821161534470662 -36.896805897517588 0 0 0 -1 I I #
vertex $-1 $702 $821 #
straight-curve $-1 -59.821161534470662 36.896805897517588 0 0 0 -1 I I #
point $-1 -59.821161534470662 -36.896805897517588 -7.8164881685295606 #
point $-1 -59.821161534470662 36.896805897517588 -7.8164881685295606 #
point $-1 59.821161534470662 36.896805897517588 7.8164881685295606 #
point $-1 59.821161534470662 -36.896805897517588 7.8164881685295606 #
straight-curve $-1 0 -36.896805897517588 -7.8164881685295606 -1 0 0 I I #
straight-curve $-1 0 36.896805897517588 -7.8164881685295606 1 0 0 I I #
plane-surface $-1 0 0 7.8164881685295606 0 0 1 1 0 0 forward_v I I I I #
coedge $-1 $535 $532 $537 $724 reversed $359 $-1 #
coedge $-1 $532 $535 $730 $822 reversed $359 $-1 #
edge $-1 $732 -7.8164881685295606 $726 7.8164881685295606 $549 $823 forward 7 unknown #
edge $-1 $721 -3.0040605380338334 $547 3.0040605380338334 $534 $824 forward 7 unknown #
vertex $-1 $822 $825 #
vertex $-1 $724 $826 #
straight-curve $-1 -65.829282610538328 -29.922779927454339 0 0 0 -1 I I #
edge $-1 $722 -1.5 $726 1.5 $717 $827 forward 7 unknown #
straight-curve $-1 -62.825222072504495 -29.922779927454339 -7.8164881685295606 -1 0 0 I I #
vertex $-1 $539 $828 #
straight-curve $-1 -62.825222072504495 -26.922779927454339 -7.8164881685295606 1 0 0 I I #
point $-1 -59.821161534470662 -29.922779927454339 -7.8164881685295606 #
straight-curve $-1 -59.821161534470662 -29.922779927454339 0 0 0 -1 I I #
coedge $-1 $545 $544 $718 $822 forward $546 $-1 #
point $-1 -59.821161534470662 -29.922779927454339 7.8164881685295606 #
vertex $-1 $550 $829 #
straight-curve $-1 -62.825222072504495 -26.922779927454339 7.8164881685295606 -1 0 0 I I #
plane-surface $-1 0 0 7.8164881685295606 0 0 1 1 0 0 forward_v I I I I #
coedge $-1 $739 $830 $570 $750 forward $554 $-1 #
coedge $-1 $556 $563 $566 $748 reversed $375 $-1 #
coedge $-1 $830 $739 $556 $738 reversed $554 $-1 #
edge $-1 $831 -7.8164881685295606 $741 7.8164881685295606 $737 $832 forward 7 unknown #
coedge $-1 $737 $735 $557 $740 reversed $554 $-1 #
edge $-1 $741 -1.5 $743 1.5 $739 $833 forward 7 unknown #
vertex $-1 $740 $834 #
straight-curve $-1 62.825222072504488 -26.922779927454339 -7.8164881685295606 1 0 0 I I #
vertex $-1 $750 $835 #
straight-curve $-1 62.825222072504488 -29.922779927454339 -7.8164881685295606 -1 0 0 I I #
point $-1 59.821161534470654 -26.922779927454339 -7.8164881685295606 #
straight-curve $-1 59.821161534470662 -26.922779927454339 0 0 0 -1 I I #
coedge $-1 $566 $565 $830 $836 forward $567 $-1 #
edge $-1 $831 -3.0040605380338263 $568 3.0040605380338334 $736 $837 forward 7 unknown #
point $-1 59.821161534470654 -26.922779927454339 7.8164881685295606 #
edge $-1 $751 -7.8164881685295606 $743 7.8164881685295606 $735 $838 forward 7 unknown #
vertex $-1 $836 $839 #
straight-curve $-1 62.825222072504488 -29.922779927454339 7.8164881685295606 1 0 0 I I #
coedge $-1 $585 $584 $577 $754 forward $574 $-1 #
edge $-1 $755 32.442458874440035 $758 39.797392037958979 $753 $840 forward 7 unknown #
vertex $-1 $589 $841 #
straight-curve $-1 -46.918214731590538 -62.90419009253884 7.8164881685295597 0 -1 0 I I #
edge $-1 $758 -27.569501837315649 $586 -11.127923951234134 $585 $842 forward 7 unknown #
vertex $-1 $757 $843 #
straight-curve $-1 -46.918214731590538 -36.896805897517595 0.46155500501060942 0 0.66913059716165679 0.74314483375859142 I I #
point $-1 -46.918214731590538 -30.274394496366394 7.8164881685295606 #
point $-1 -30.476636845509024 -36.896805897517588 0.4615550050106173 #
straight-curve $-1 0 -36.896805897517588 7.8164881685295606 1 0 0 I I #
vertex $-1 $592 $844 #
point $-1 -40.220621049852959 -27.701404486959419 -1.1591318960753818 #
vertex $-1 $596 $845 #
point $-1 -33.174230527246593 -27.701404486959419 -1.1591318960753818 #
edge $-1 $768 32.442458874440035 $771 39.797392037958979 $601 $846 forward 7 unknown #
vertex $-1 $615 $847 #
straight-curve $-1 -21.119930872557344 -62.90419009253884 7.8164881685295597 0 -1 0 I I #
edge $-1 $771 -14.67035990779905 $612 1.7712179782824613 $611 $848 forward 7 unknown #
vertex $-1 $770 $849 #
straight-curve $-1 -21.119930872557344 -36.896805897517595 0.46155500501060942 0 0.66913059716165679 0.74314483375859142 I I #
point $-1 -21.119930872557344 -30.274394496366394 7.8164881685295606 #
point $-1 -4.6783529864758329 -36.896805897517588 0.4615550050106173 #
straight-curve $-1 0 -36.896805897517588 7.8164881685295606 1 0 0 I I #
vertex $-1 $618 $850 #
point $-1 -14.422337190819775 -27.701404486959419 -1.1591318960753818 #
vertex $-1 $622 $851 #
point $-1 -7.3759466682134089 -27.701404486959419 -1.1591318960753818 #
edge $-1 $781 32.442458874440035 $784 39.797392037958979 $627 $852 forward 7 unknown #
vertex $-1 $641 $853 #
straight-curve $-1 4.6783529864758471 -62.90419009253884 7.8164881685295597 0 -1 0 I I #
edge $-1 $784 -1.7712179782824542 $638 14.670359907799057 $637 $854 forward 7 unknown #
vertex $-1 $783 $855 #
straight-curve $-1 4.6783529864758471 -36.896805897517595 0.46155500501060942 0 0.66913059716165679 0.74314483375859142 I I #
point $-1 4.6783529864758471 -30.274394496366394 7.8164881685295606 #
point $-1 21.119930872557358 -36.896805897517588 0.4615550050106173 #
straight-curve $-1 0 -36.896805897517588 7.8164881685295606 1 0 0 I I #
vertex $-1 $644 $856 #
point $-1 11.375946668213416 -27.701404486959419 -1.1591318960753818 #
vertex $-1 $648 $857 #
point $-1 18.422337190819775 -27.701404486959419 -1.1591318960753818 #
edge $-1 $794 32.442458874440035 $797 39.797392037958979 $653 $858 forward 7 unknown #
vertex $-1 $667 $859 #
straight-curve $-1 30.476636845509038 -62.90419009253884 7.8164881685295597 0 -1 0 I I #
edge $-1 $797 11.127923951234141 $664 27.569501837315656 $663 $860 forward 7 unknown #
vertex $-1 $796 $861 #
straight-curve $-1 30.476636845509038 -36.896805897517595 0.46155500501060942 0 0.66913059716165679 0.74314483375859142 I I #
point $-1 30.476636845509038 -30.274394496366394 7.8164881685295606 #
point $-1 46.918214731590552 -36.896805897517588 0.4615550050106173 #
straight-curve $-1 0 -36.896805897517588 7.8164881685295606 1 0 0 I I #
vertex $-1 $670 $862 #
point $-1 37.174230527246607 -27.701404486959419 -1.1591318960753818 #
vertex $-1 $674 $863 #
point $-1 44.220621049852966 -27.701404486959419 -1.1591318960753818 #
edge $-1 $807 62.66642025230513 $810 67.345069346961552 $679 $864 forward 7 unknown #
vertex $-1 $693 $865 #
straight-curve $-1 -19.455809855709212 32.261722205269393 7.8164881685295597 0 1 0 I I #
edge $-1 $810 1.7392131540018703 $690 33.693980249412817 $689 $866 forward 7 unknown #
vertex $-1 $809 $867 #
straight-curve $-1 -19.455809855709212 -17.07242468665855 53.464961899526301 0 -0.7313536940579346 0.68199836817093118 I I #
point $-1 -19.455809855709212 31.879569114745436 7.8164881685295597 #
point $-1 -51.410576951120156 36.896805897517588 3.1378390738731383 #
straight-curve $-1 0 36.896805897517588 7.8164881685295606 -1 0 0 I I #
vertex $-1 $696 $868 #
point $-1 -34.433193403414684 33.071916294195788 4.0656355909905191 #
straight-curve $-1 0 36.896805897517588 7.8164881685295606 -1 0 0 I I #
straight-curve $-1 0 -36.896805897517588 7.8164881685295606 1 0 0 I I #
straight-curve $-1 -59.821161534470662 0 7.8164881685295606 0 -1 0 I I #
point $-1 -59.821161534470662 -36.896805897517588 7.8164881685295606 #
point $-1 -59.821161534470662 36.896805897517588 7.8164881685295606 #
edge $-1 $732 -1.5 $721 1.5 $718 $869 forward 7 unknown #
straight-curve $-1 -65.829282610538328 -26.922779927454339 0 0 0 -1 I I #
straight-curve $-1 -62.825222072504495 -29.922779927454339 7.8164881685295606 1 0 0 I I #
point $-1 -65.829282610538328 -29.922779927454339 7.8164881685295606 #
point $-1 -65.829282610538328 -29.922779927454339 -7.8164881685295606 #
straight-curve $-1 -65.829282610538328 -28.422779927454339 -7.8164881685295606 0 1 0 I I #
point $-1 -65.829282610538328 -26.922779927454339 -7.8164881685295606 #
point $-1 -65.829282610538328 -26.922779927454339 7.8164881685295606 #
coedge $-1 $735 $737 $747 $836 reversed $554 $-1 #
vertex $-1 $836 $870 #
straight-curve $-1 65.829282610538314 -26.922779927454339 0 0 0 -1 I I #
straight-curve $-1 65.829282610538314 -28.422779927454339 -7.8164881685295606 0 -1 0 I I #
point $-1 65.829282610538314 -26.922779927454339 -7.8164881685295606 #
point $-1 65.829282610538314 -29.922779927454339 -7.8164881685295606 #
edge $-1 $751 -1.5 $831 1.5 $830 $871 forward 7 unknown #
straight-curve $-1 62.825222072504488 -26.922779927454339 7.8164881685295606 -1 0 0 I I #
straight-curve $-1 65.829282610538314 -29.922779927454339 0 0 0 -1 I I #
point $-1 65.829282610538314 -29.922779927454339 7.8164881685295606 #
straight-curve $-1 -46.918214731590538 -36.896805897517588 40.258947042969595 0 0 -1 I I #
point $-1 -46.918214731590538 -36.896805897517588 7.8164881685295606 #
straight-curve $-1 -19.34871289427489 -36.896805897517588 0.46155500501062485 1 0 0 I I #
point $-1 -46.918214731590538 -36.896805897517588 0.4615550050106173 #
point $-1 -42.220621049852959 -26.215114819442235 -2.4973930903986949 #
point $-1 -35.174230527246593 -26.215114819442235 -2.4973930903986949 #
straight-curve $-1 -21.119930872557344 -36.896805897517588 40.258947042969595 0 0 -1 I I #
point $-1 -21.119930872557344 -36.896805897517588 7.8164881685295606 #
straight-curve $-1 -6.4495709647582942 -36.896805897517588 0.46155500501062485 1 0 0 I I #
point $-1 -21.119930872557344 -36.896805897517588 0.4615550050106173 #
point $-1 -16.422337190819775 -26.215114819442235 -2.4973930903986949 #
point $-1 -9.3759466682134089 -26.215114819442235 -2.4973930903986949 #
straight-curve $-1 4.6783529864758471 -36.896805897517588 40.258947042969595 0 0 -1 I I #
point $-1 4.6783529864758471 -36.896805897517588 7.8164881685295606 #
straight-curve $-1 6.4495709647583013 -36.896805897517588 0.46155500501062485 1 0 0 I I #
point $-1 4.6783529864758471 -36.896805897517588 0.4615550050106173 #
point $-1 9.375946668213416 -26.215114819442235 -2.4973930903986949 #
point $-1 16.422337190819775 -26.215114819442235 -2.4973930903986949 #
straight-curve $-1 30.476636845509038 -36.896805897517588 40.258947042969595 0 0 -1 I I #
point $-1 30.476636845509038 -36.896805897517588 7.8164881685295606 #
straight-curve $-1 19.348712894274897 -36.896805897517588 0.46155500501062485 1 0 0 I I #
point $-1 30.476636845509038 -36.896805897517588 0.4615550050106173 #
point $-1 35.174230527246607 -26.215114819442235 -2.4973930903986949 #
point $-1 42.220621049852966 -26.215114819442235 -2.4973930903986949 #
straight-curve $-1 -19.455809855709212 36.896805897517588 70.48290842083469 0 0 -1 I I #
point $-1 -19.455809855709212 36.896805897517588 7.8164881685295606 #
straight-curve $-1 -17.716596701707342 36.896805897517581 3.1378390738731454 -1 0 0 I I #
point $-1 -19.455809855709212 36.896805897517588 3.1378390738731383 #
point $-1 -35.433193403414684 32.38991792602485 3.334281896932584 #
straight-curve $-1 -65.829282610538328 -28.422779927454339 7.8164881685295606 0 -1 0 I I #
point $-1 65.829282610538314 -26.922779927454339 7.8164881685295606 #
straight-curve $-1 65.829282610538314 -28.422779927454339 7.8164881685295606 0 1 0 I I #
End-of-ACIS-data 