500 0 3 0           
7 Unknown 11 ACIS 5.0 NT 24 Fri Mar 26 16:54:03 1999 
-1 9.9999999999999995e-007 1e-010 
body $-1 $3 $-1 $4 #
body $-1 $5 $-1 $6 #
body $-1 $7 $-1 $8 #
lump $-1 $-1 $9 $0 #
transform $-1 1 0 0 0 1 0 0 0 1 68.146610919522686 46.389900179680694 12.433688141667767 1 rotate no_reflect no_shear #
lump $-1 $-1 $10 $1 #
transform $-1 1 0 0 0 1 0 0 0 1 68.146610919522686 46.389900179680694 12.433688141667767 1 rotate no_reflect no_shear #
lump $-1 $-1 $11 $2 #
transform $-1 1 0 0 0 1 0 0 0 1 68.146610919522686 46.389900179680694 12.433688141667767 1 rotate no_reflect no_shear #
shell $-1 $-1 $-1 $12 $-1 $3 #
shell $-1 $-1 $-1 $13 $-1 $5 #
shell $-1 $-1 $-1 $14 $-1 $7 #
face $-1 $15 $16 $9 $-1 $17 forward single #
face $-1 $18 $19 $10 $-1 $20 forward single #
face $-1 $21 $22 $11 $-1 $23 forward single #
face $-1 $24 $25 $9 $-1 $26 reversed single #
loop $-1 $-1 $27 $12 #
plane-surface $-1 0 0 12.433688141667767 0 0 1 1 0 0 forward_v I I I I #
face $-1 $28 $29 $10 $-1 $30 reversed single #
loop $-1 $-1 $31 $13 #
plane-surface $-1 0 -46.389900179680694 0 0 1 0 0 0 1 forward_v I I I I #
face $-1 $32 $33 $11 $-1 $34 reversed single #
loop $-1 $-1 $35 $14 #
plane-surface $-1 0 46.389900179680694 0 0 -1 0 0 0 -1 forward_v I I I I #
face $-1 $36 $37 $9 $-1 $38 reversed single #
loop $-1 $-1 $39 $15 #
plane-surface $-1 0 0 -12.433688141667767 0 0 1 1 0 0 forward_v I I I I #
coedge $-1 $40 $41 $42 $43 forward $16 $-1 #
face $-1 $44 $45 $10 $-1 $46 reversed single #
loop $-1 $-1 $47 $18 #
plane-surface $-1 0 0 -12.433688141667767 0 0 1 1 0 0 forward_v I I I I #
coedge $-1 $48 $49 $50 $51 forward $19 $-1 #
face $-1 $52 $53 $11 $-1 $54 reversed single #
loop $-1 $-1 $55 $21 #
plane-surface $-1 0 0 -12.433688141667767 0 0 1 1 0 0 forward_v I I I I #
coedge $-1 $56 $57 $58 $59 forward $22 $-1 #
face $-1 $60 $61 $9 $-1 $62 reversed single #
loop $-1 $-1 $63 $24 #
plane-surface $-1 0 -46.389900179680694 0 0 1 0 0 0 1 forward_v I I I I #
coedge $-1 $64 $65 $66 $67 forward $25 $-1 #
coedge $-1 $68 $27 $69 $70 forward $16 $-1 #
coedge $-1 $27 $68 $71 $72 forward $16 $-1 #
coedge $-1 $73 $74 $27 $43 reversed $75 $-1 #
edge $-1 $76 -46.389900179680694 $77 46.389900179680694 $42 $78 forward 7 unknown #
face $-1 $79 $80 $10 $-1 $81 reversed single #
loop $-1 $-1 $82 $28 #
plane-surface $-1 -45.111369908089202 -60.18549969893138 0 0 1 0 0 0 1 forward_v I I I I #
coedge $-1 $83 $84 $49 $85 forward $29 $-1 #
coedge $-1 $86 $31 $87 $88 reversed $19 $-1 #
coedge $-1 $31 $86 $47 $85 reversed $19 $-1 #
coedge $-1 $89 $90 $31 $51 reversed $80 $-1 #
edge $-1 $91 -12.433688141667767 $92 12.433688141667767 $50 $93 forward 7 unknown #
face $-1 $94 $95 $11 $-1 $96 reversed single #
loop $-1 $-1 $97 $32 #
plane-surface $-1 -46.943505179991249 53.287699939306037 0 1 0 0 0 0 -1 forward_v I I I I #
coedge $-1 $98 $99 $57 $100 forward $33 $-1 #
coedge $-1 $101 $35 $102 $103 reversed $22 $-1 #
coedge $-1 $35 $101 $55 $100 reversed $22 $-1 #
coedge $-1 $104 $105 $35 $59 reversed $106 $-1 #
edge $-1 $107 -12.433688141667767 $108 12.433688141667767 $58 $109 forward 7 unknown #
face $-1 $110 $111 $9 $-1 $112 reversed single #
loop $-1 $-1 $113 $36 #
plane-surface $-1 -68.146610919522686 0 0 1 0 0 0 0 -1 forward_v I I I I #
coedge $-1 $114 $71 $115 $116 forward $37 $-1 #
coedge $-1 $117 $39 $114 $118 forward $25 $-1 #
coedge $-1 $39 $117 $119 $120 forward $25 $-1 #
coedge $-1 $74 $73 $39 $67 reversed $75 $-1 #
edge $-1 $121 -46.389900179680694 $122 46.389900179680694 $66 $123 forward 7 unknown #
coedge $-1 $41 $40 $124 $125 forward $16 $-1 #
coedge $-1 $126 $127 $40 $70 reversed $111 $-1 #
edge $-1 $77 -68.146610919522686 $128 68.146610919522686 $69 $129 forward 7 unknown #
coedge $-1 $63 $130 $41 $72 reversed $37 $-1 #
edge $-1 $131 -68.146610919522686 $76 68.146610919522686 $71 $132 forward 7 unknown #
coedge $-1 $66 $42 $130 $133 forward $75 $-1 #
coedge $-1 $42 $66 $126 $134 reversed $75 $-1 #
loop $-1 $-1 $73 $110 #
vertex $-1 $43 $135 #
vertex $-1 $43 $136 #
straight-curve $-1 68.146610919522686 0 12.433688141667767 0 1 0 I I #
face $-1 $137 $138 $10 $-1 $139 reversed single #
loop $-1 $-1 $50 $44 #
plane-surface $-1 -46.943505179991249 -53.287699939306037 0 1 0 0 0 0 -1 forward_v I I I I #
coedge $-1 $140 $141 $142 $143 forward $45 $-1 #
coedge $-1 $144 $47 $145 $146 forward $29 $-1 #
coedge $-1 $47 $144 $89 $147 forward $29 $-1 #
edge $-1 $91 -46.943505179991249 $148 -43.279234636187155 $47 $149 forward 7 unknown #
coedge $-1 $49 $48 $150 $151 forward $19 $-1 #
coedge $-1 $152 $153 $48 $88 forward $154 $-1 #
edge $-1 $155 43.279234636187155 $92 46.943505179991249 $87 $156 forward 7 unknown #
coedge $-1 $142 $50 $84 $147 reversed $80 $-1 #
coedge $-1 $50 $142 $152 $157 reversed $80 $-1 #
vertex $-1 $85 $158 #
vertex $-1 $157 $159 #
straight-curve $-1 -46.943505179991249 -46.389900179680694 0 0 0 1 I I #
face $-1 $160 $106 $11 $-1 $161 reversed single #
loop $-1 $-1 $162 $52 #
plane-surface $-1 -45.111369908089202 60.18549969893138 0 0 -1 0 0 0 -1 forward_v I I I I #
coedge $-1 $163 $164 $165 $166 forward $53 $-1 #
coedge $-1 $167 $55 $163 $168 forward $33 $-1 #
coedge $-1 $55 $167 $104 $169 forward $33 $-1 #
edge $-1 $107 43.279234636187155 $170 46.943505179991249 $55 $171 forward 7 unknown #
coedge $-1 $57 $56 $172 $173 forward $22 $-1 #
coedge $-1 $174 $175 $56 $103 forward $176 $-1 #
edge $-1 $177 -46.943505179991249 $108 -43.279234636187155 $102 $178 forward 7 unknown #
coedge $-1 $179 $58 $99 $169 reversed $106 $-1 #
coedge $-1 $58 $179 $174 $180 reversed $106 $-1 #
loop $-1 $-1 $58 $94 #
vertex $-1 $100 $181 #
vertex $-1 $180 $182 #
straight-curve $-1 -43.279234636187155 46.389900179680694 0 0 0 1 I I #
face $-1 $-1 $75 $9 $-1 $183 reversed single #
loop $-1 $-1 $126 $60 #
plane-surface $-1 0 46.389900179680694 0 0 -1 0 0 0 -1 forward_v I I I I #
coedge $-1 $184 $124 $127 $185 forward $61 $-1 #
coedge $-1 $130 $63 $64 $118 reversed $37 $-1 #
coedge $-1 $124 $184 $63 $116 reversed $61 $-1 #
edge $-1 $131 -12.433688141667767 $186 12.433688141667767 $115 $187 forward 7 unknown #
coedge $-1 $65 $64 $184 $188 forward $25 $-1 #
edge $-1 $122 -68.146610919522686 $186 68.146610919522686 $114 $189 forward 7 unknown #
coedge $-1 $127 $126 $65 $120 reversed $111 $-1 #
edge $-1 $190 -68.146610919522686 $121 68.146610919522686 $119 $191 forward 7 unknown #
vertex $-1 $67 $192 #
vertex $-1 $133 $193 #
straight-curve $-1 68.146610919522686 0 -12.433688141667767 0 -1 0 I I #
coedge $-1 $113 $115 $68 $125 reversed $61 $-1 #
edge $-1 $128 -46.389900179680694 $131 46.389900179680694 $124 $194 forward 7 unknown #
coedge $-1 $119 $69 $74 $134 forward $111 $-1 #
coedge $-1 $69 $119 $113 $185 reversed $111 $-1 #
vertex $-1 $70 $195 #
straight-curve $-1 0 46.389900179680694 12.433688141667767 -1 0 0 I I #
coedge $-1 $71 $114 $73 $133 reversed $37 $-1 #
vertex $-1 $125 $196 #
straight-curve $-1 0 -46.389900179680694 12.433688141667767 1 0 0 I I #
edge $-1 $76 -12.433688141667767 $122 12.433688141667767 $73 $197 forward 7 unknown #
edge $-1 $77 -12.433688141667767 $121 12.433688141667767 $74 $198 forward 7 unknown #
point $-1 68.146610919522686 -46.389900179680694 12.433688141667767 #
point $-1 68.146610919522686 46.389900179680694 12.433688141667767 #
face $-1 $-1 $154 $10 $-1 $199 forward single #
loop $-1 $-1 $200 $79 #
plane-surface $-1 -43.279234636187155 -53.287699939306037 0 -1 0 0 0 0 1 forward_v I I I I #
coedge $-1 $201 $82 $144 $202 reversed $45 $-1 #
coedge $-1 $82 $201 $203 $204 reversed $45 $-1 #
coedge $-1 $90 $89 $82 $143 reversed $80 $-1 #
edge $-1 $205 -12.433688141667767 $206 12.433688141667767 $142 $207 forward 7 unknown #
coedge $-1 $84 $83 $140 $202 forward $29 $-1 #
coedge $-1 $150 $200 $83 $146 reversed $138 $-1 #
edge $-1 $148 -6.8977997596253431 $208 6.8977997596253431 $145 $209 forward 7 unknown #
edge $-1 $206 -6.8977997596253431 $91 6.8977997596253431 $89 $210 forward 7 unknown #
vertex $-1 $146 $211 #
straight-curve $-1 0 -46.389900179680694 -12.433688141667767 1 0 0 I I #
coedge $-1 $212 $145 $86 $151 reversed $138 $-1 #
edge $-1 $155 -12.433688141667767 $148 12.433688141667767 $150 $213 forward 7 unknown #
coedge $-1 $203 $87 $90 $157 forward $154 $-1 #
coedge $-1 $87 $203 $212 $214 forward $154 $-1 #
loop $-1 $-1 $87 $137 #
vertex $-1 $88 $215 #
straight-curve $-1 0 -46.389900179680694 12.433688141667767 -1 0 0 I I #
edge $-1 $92 -6.8977997596253431 $205 6.8977997596253431 $90 $216 forward 7 unknown #
point $-1 -46.943505179991249 -46.389900179680694 -12.433688141667767 #
point $-1 -46.943505179991249 -46.389900179680694 12.433688141667767 #
face $-1 $-1 $176 $11 $-1 $217 forward single #
plane-surface $-1 -43.279234636187155 53.287699939306037 0 -1 0 0 0 0 1 forward_v I I I I #
coedge $-1 $218 $219 $179 $220 forward $95 $-1 #
coedge $-1 $172 $97 $98 $168 reversed $53 $-1 #
coedge $-1 $97 $172 $175 $221 reversed $53 $-1 #
coedge $-1 $219 $218 $97 $166 reversed $95 $-1 #
edge $-1 $222 -12.433688141667767 $223 12.433688141667767 $165 $224 forward 7 unknown #
coedge $-1 $99 $98 $218 $225 forward $33 $-1 #
edge $-1 $170 -6.8977997596253431 $223 6.8977997596253431 $163 $226 forward 7 unknown #
edge $-1 $227 -6.8977997596253431 $107 6.8977997596253431 $104 $228 forward 7 unknown #
vertex $-1 $168 $229 #
straight-curve $-1 0 46.389900179680694 -12.433688141667767 -1 0 0 I I #
coedge $-1 $164 $163 $101 $173 reversed $53 $-1 #
edge $-1 $177 -12.433688141667767 $170 12.433688141667767 $172 $230 forward 7 unknown #
coedge $-1 $231 $102 $105 $180 forward $176 $-1 #
coedge $-1 $102 $231 $164 $221 forward $176 $-1 #
loop $-1 $-1 $102 $160 #
vertex $-1 $103 $232 #
straight-curve $-1 0 46.389900179680694 12.433688141667767 1 0 0 I I #
coedge $-1 $105 $104 $162 $220 reversed $106 $-1 #
edge $-1 $108 -6.8977997596253431 $233 6.8977997596253431 $105 $234 forward 7 unknown #
point $-1 -43.279234636187155 46.389900179680694 -12.433688141667767 #
point $-1 -43.279234636187155 46.389900179680694 12.433688141667767 #
plane-surface $-1 68.146610919522686 0 0 -1 0 0 0 0 1 forward_v I I I I #
coedge $-1 $115 $113 $117 $188 reversed $61 $-1 #
edge $-1 $128 -12.433688141667767 $190 12.433688141667767 $127 $235 forward 7 unknown #
vertex $-1 $188 $236 #
straight-curve $-1 -68.146610919522686 -46.389900179680694 0 0 0 -1 I I #
edge $-1 $186 -46.389900179680694 $190 46.389900179680694 $184 $237 forward 7 unknown #
straight-curve $-1 0 -46.389900179680694 -12.433688141667767 -1 0 0 I I #
vertex $-1 $120 $238 #
straight-curve $-1 0 46.389900179680694 -12.433688141667767 1 0 0 I I #
point $-1 68.146610919522686 46.389900179680694 -12.433688141667767 #
point $-1 68.146610919522686 -46.389900179680694 -12.433688141667767 #
straight-curve $-1 -68.146610919522686 0 12.433688141667767 0 -1 0 I I #
point $-1 -68.146610919522686 46.389900179680694 12.433688141667767 #
point $-1 -68.146610919522686 -46.389900179680694 12.433688141667767 #
straight-curve $-1 68.146610919522686 -46.389900179680694 0 0 0 -1 I I #
straight-curve $-1 68.146610919522686 46.389900179680694 0 0 0 -1 I I #
plane-surface $-1 0 0 12.433688141667767 0 0 1 1 0 0 forward_v I I I I #
coedge $-1 $145 $212 $201 $239 forward $138 $-1 #
coedge $-1 $141 $140 $200 $239 reversed $45 $-1 #
edge $-1 $208 -1.8321352719020467 $206 1.8321352719020467 $140 $240 forward 7 unknown #
coedge $-1 $153 $152 $141 $204 forward $154 $-1 #
edge $-1 $205 -1.8321352719020467 $241 1.8321352719020467 $141 $242 forward 7 unknown #
vertex $-1 $157 $243 #
vertex $-1 $147 $244 #
straight-curve $-1 -46.943505179991249 -60.18549969893138 0 0 0 -1 I I #
vertex $-1 $239 $245 #
straight-curve $-1 -43.279234636187155 -53.287699939306037 -12.433688141667767 0 -1 0 I I #
straight-curve $-1 -46.943505179991249 -53.287699939306037 -12.433688141667767 0 1 0 I I #
point $-1 -43.279234636187155 -46.389900179680694 -12.433688141667767 #
coedge $-1 $200 $150 $153 $214 reversed $138 $-1 #
straight-curve $-1 -43.279234636187155 -46.389900179680694 0 0 0 -1 I I #
edge $-1 $241 -6.8977997596253431 $155 6.8977997596253431 $212 $246 forward 7 unknown #
point $-1 -43.279234636187155 -46.389900179680694 12.433688141667767 #
straight-curve $-1 -46.943505179991249 -53.287699939306037 12.433688141667767 0 -1 0 I I #
plane-surface $-1 0 0 12.433688141667767 0 0 1 1 0 0 forward_v I I I I #
coedge $-1 $165 $162 $167 $225 reversed $95 $-1 #
coedge $-1 $162 $165 $231 $247 reversed $95 $-1 #
edge $-1 $233 -12.433688141667767 $227 12.433688141667767 $179 $248 forward 7 unknown #
edge $-1 $222 -6.8977997596253431 $177 6.8977997596253431 $164 $249 forward 7 unknown #
vertex $-1 $247 $250 #
vertex $-1 $225 $251 #
straight-curve $-1 -46.943505179991249 60.18549969893138 0 0 0 -1 I I #
edge $-1 $223 -1.8321352719020467 $227 1.8321352719020467 $218 $252 forward 7 unknown #
straight-curve $-1 -46.943505179991249 53.287699939306037 -12.433688141667767 0 1 0 I I #
vertex $-1 $169 $253 #
straight-curve $-1 -43.279234636187155 53.287699939306037 -12.433688141667767 0 -1 0 I I #
point $-1 -46.943505179991249 46.389900179680694 -12.433688141667767 #
straight-curve $-1 -46.943505179991249 46.389900179680694 0 0 0 -1 I I #
coedge $-1 $175 $174 $219 $247 forward $176 $-1 #
point $-1 -46.943505179991249 46.389900179680694 12.433688141667767 #
vertex $-1 $180 $254 #
straight-curve $-1 -43.279234636187155 53.287699939306037 12.433688141667767 0 1 0 I I #
straight-curve $-1 -68.146610919522686 46.389900179680694 0 0 0 -1 I I #
point $-1 -68.146610919522686 -46.389900179680694 -12.433688141667767 #
straight-curve $-1 -68.146610919522686 0 -12.433688141667767 0 1 0 I I #
point $-1 -68.146610919522686 46.389900179680694 -12.433688141667767 #
edge $-1 $241 -12.433688141667767 $208 12.433688141667767 $200 $255 forward 7 unknown #
straight-curve $-1 -45.111369908089202 -60.18549969893138 -12.433688141667767 -1 0 0 I I #
vertex $-1 $214 $256 #
straight-curve $-1 -45.111369908089202 -60.18549969893138 12.433688141667767 1 0 0 I I #
point $-1 -46.943505179991249 -60.18549969893138 12.433688141667767 #
point $-1 -46.943505179991249 -60.18549969893138 -12.433688141667767 #
point $-1 -43.279234636187155 -60.18549969893138 -12.433688141667767 #
straight-curve $-1 -43.279234636187155 -53.287699939306037 12.433688141667767 0 1 0 I I #
edge $-1 $233 -1.8321352719020467 $222 1.8321352719020467 $219 $257 forward 7 unknown #
straight-curve $-1 -43.279234636187155 60.18549969893138 0 0 0 -1 I I #
straight-curve $-1 -46.943505179991249 53.287699939306037 12.433688141667767 0 -1 0 I I #
point $-1 -46.943505179991249 60.18549969893138 12.433688141667767 #
point $-1 -46.943505179991249 60.18549969893138 -12.433688141667767 #
straight-curve $-1 -45.111369908089202 60.18549969893138 -12.433688141667767 1 0 0 I I #
point $-1 -43.279234636187155 60.18549969893138 -12.433688141667767 #
point $-1 -43.279234636187155 60.18549969893138 12.433688141667767 #
straight-curve $-1 -43.279234636187155 -60.18549969893138 0 0 0 -1 I I #
point $-1 -43.279234636187155 -60.18549969893138 12.433688141667767 #
straight-curve $-1 -45.111369908089202 60.18549969893138 12.433688141667767 -1 0 0 I I #
End-of-ACIS-data 