500 0 5 0           
7 Unknown 11 ACIS 5.0 NT 24 Fri Mar 26 15:13:03 1999 
-1 9.9999999999999995e-007 1e-010 
body $-1 $5 $-1 $6 #
body $-1 $7 $-1 $8 #
body $-1 $9 $-1 $10 #
body $-1 $11 $-1 $12 #
body $-1 $13 $-1 $14 #
lump $-1 $-1 $15 $0 #
transform $-1 1 0 0 0 1 0 0 0 1 54.281441694387645 35.91865301218364 13.094572631682512 1 rotate no_reflect no_shear #
lump $-1 $-1 $16 $1 #
transform $-1 1 0 0 0 1 0 0 0 1 54.281441694387645 35.91865301218364 13.094572631682512 1 rotate no_reflect no_shear #
lump $-1 $-1 $17 $2 #
transform $-1 1 0 0 0 1 0 0 0 1 54.281441694387645 35.91865301218364 13.094572631682512 1 rotate no_reflect no_shear #
lump $-1 $-1 $18 $3 #
transform $-1 1 0 0 0 1 0 0 0 1 54.281441694387645 35.91865301218364 13.094572631682512 1 rotate no_reflect no_shear #
lump $-1 $-1 $19 $4 #
transform $-1 1 0 0 0 1 0 0 0 1 54.281441694387645 35.91865301218364 13.094572631682512 1 rotate no_reflect no_shear #
shell $-1 $-1 $-1 $20 $-1 $5 #
shell $-1 $-1 $-1 $21 $-1 $7 #
shell $-1 $-1 $-1 $22 $-1 $9 #
shell $-1 $-1 $-1 $23 $-1 $11 #
shell $-1 $-1 $-1 $24 $-1 $13 #
face $-1 $25 $26 $15 $-1 $27 forward single #
face $-1 $28 $29 $16 $-1 $30 reversed single #
face $-1 $31 $32 $17 $-1 $33 forward single #
face $-1 $34 $35 $18 $-1 $36 reversed single #
face $-1 $37 $38 $19 $-1 $39 reversed single #
face $-1 $40 $41 $15 $-1 $42 reversed single #
loop $-1 $-1 $43 $20 #
plane-surface $-1 0 0 13.094572631682512 0 0 1 1 0 0 forward_v I I I I #
face $-1 $44 $45 $16 $-1 $46 forward single #
loop $-1 $-1 $47 $21 #
plane-surface $-1 -46.552666621744827 0 -1.8059791777916323 0 0 1 1 0 0 forward_v I I I I #
face $-1 $48 $49 $17 $-1 $50 forward single #
loop $-1 $-1 $51 $22 #
plane-surface $-1 17.13890764153475 20.076386186942376 153.06206754987454 0 1 0 0.51503808176128008 0 0.85716729658548041 forward_v I I I I #
face $-1 $52 $53 $18 $-1 $54 reversed single #
loop $-1 $55 $56 $23 #
cone-surface $-1 46.297635852787451 24.602748137011311 7.7742294169464472 -0.51503808176128008 0 -0.85716729658548041 1.2857509448782207 0 -0.77255712264192011 1 I I 0 1 1.5 forward I I I I #
face $-1 $57 $58 $19 $-1 $59 reversed single #
loop $-1 $60 $61 $24 #
cone-surface $-1 46.297635852787451 31.392291062114708 7.7742294169464472 -0.51503808176128008 0 -0.85716729658548041 1.2857509448782207 0 -0.77255712264192011 1 I I 0 1 1.5 forward I I I I #
face $-1 $62 $63 $15 $-1 $64 reversed single #
loop $-1 $-1 $65 $25 #
plane-surface $-1 0 0 -13.094572631682512 0 0 1 1 0 0 forward_v I I I I #
coedge $-1 $66 $67 $68 $69 forward $26 $-1 #
face $-1 $70 $71 $16 $-1 $72 forward single #
loop $-1 $-1 $73 $28 #
plane-surface $-1 -46.552666621744827 0 -8.4182847803290972 0 0 1 1 0 0 forward_v I I I I #
coedge $-1 $74 $75 $76 $77 reversed $29 $-1 #
face $-1 $78 $79 $17 $-1 $80 reversed single #
loop $-1 $-1 $81 $31 #
plane-surface $-1 -38.77511156949361 27.997519599563006 60.005514285993272 0.51503808176128008 0 0.85716729658548041 0.85716729658548041 0 -0.51503808176128008 forward_v I I I I #
coedge $-1 $82 $83 $84 $85 reversed $32 $-1 #
face $-1 $86 $87 $18 $-1 $88 forward single #
loop $-1 $89 $90 $34 #
cone-surface $-1 45.419369942054921 24.602748137011311 6.3125495081300738 -0.51503808176128008 0 -0.85716729658548041 0.64287547243911036 0 -0.38627856132096006 1 I I -0.70710678118654757 0.70710678118654757 0.75 forward I I I I #
loop $-1 $-1 $91 $23 #
coedge $-1 $56 $56 $92 $93 reversed $35 $-1 #
face $-1 $94 $95 $19 $-1 $96 reversed single #
loop $-1 $97 $98 $37 #
cone-surface $-1 45.419369942054921 31.392291062114708 6.3125495081300738 -0.51503808176128008 0 -0.85716729658548041 0.64287547243911036 0 -0.38627856132096006 1 I I -0.70710678118654757 0.70710678118654757 0.75 forward I I I I #
loop $-1 $-1 $99 $24 #
coedge $-1 $61 $61 $100 $101 reversed $38 $-1 #
face $-1 $102 $103 $15 $-1 $104 reversed single #
loop $-1 $-1 $105 $40 #
plane-surface $-1 0 -35.91865301218364 0 0 1 0 0 0 1 forward_v I I I I #
coedge $-1 $106 $107 $108 $109 forward $41 $-1 #
coedge $-1 $110 $43 $111 $112 forward $26 $-1 #
coedge $-1 $43 $110 $113 $114 forward $26 $-1 #
coedge $-1 $115 $116 $43 $69 reversed $117 $-1 #
edge $-1 $118 -35.91865301218364 $119 35.91865301218364 $68 $120 forward 7 unknown #
face $-1 $121 $122 $16 $-1 $123 reversed single #
loop $-1 $-1 $124 $44 #
plane-surface $-1 -38.823891549102008 0 -5.112131979060365 -1 0 0 0 0 1 forward_v I I I I #
coedge $-1 $125 $126 $127 $128 reversed $45 $-1 #
coedge $-1 $129 $47 $130 $131 reversed $29 $-1 #
coedge $-1 $47 $129 $132 $133 reversed $29 $-1 #
coedge $-1 $134 $124 $47 $77 forward $71 $-1 #
edge $-1 $135 -35.91865301218364 $136 35.91865301218364 $76 $137 forward 7 unknown #
face $-1 $138 $139 $17 $-1 $140 forward single #
loop $-1 $-1 $141 $48 #
plane-surface $-1 54.281441694387645 0 0 -1 0 0 0 0 1 forward_v I I I I #
coedge $-1 $142 $143 $141 $144 reversed $49 $-1 #
coedge $-1 $83 $51 $143 $145 forward $32 $-1 #
coedge $-1 $51 $82 $146 $147 reversed $32 $-1 #
coedge $-1 $148 $141 $51 $85 forward $79 $-1 #
edge $-1 $149 -72.43953869997236 $150 -63.43646114325476 $84 $151 forward 7 unknown #
face $-1 $152 $153 $18 $-1 $154 forward single #
loop $-1 $-1 $155 $52 #
plane-surface $-1 17.13890764153475 20.076386186942376 153.06206754987454 0 1 0 0.51503808176128008 0 0.85716729658548041 forward_v I I I I #
loop $-1 $-1 $156 $34 #
coedge $-1 $90 $90 $91 $157 forward $53 $-1 #
coedge $-1 $91 $91 $90 $157 reversed $55 $-1 #
coedge $-1 $92 $92 $56 $93 forward $153 $-1 #
edge $-1 $158 0 $158 6.2831853071796004 $92 $159 forward 7 unknown #
face $-1 $160 $161 $19 $-1 $162 reversed single #
loop $-1 $163 $164 $57 #
cone-surface $-1 46.297635852787451 24.602748137011311 7.7742294169464472 -0.51503808176128008 0 -0.85716729658548041 1.2857509448782207 0 -0.77255712264192011 1 I I 0 1 1.5 forward I I I I #
loop $-1 $-1 $165 $37 #
coedge $-1 $98 $98 $99 $166 forward $58 $-1 #
coedge $-1 $99 $99 $98 $166 reversed $60 $-1 #
coedge $-1 $100 $100 $61 $101 forward $167 $-1 #
edge $-1 $168 0 $168 6.2831853071796004 $100 $169 forward 7 unknown #
face $-1 $170 $171 $15 $-1 $172 reversed single #
loop $-1 $-1 $173 $62 #
plane-surface $-1 -54.281441694387645 0 0 1 0 0 0 0 -1 forward_v I I I I #
coedge $-1 $174 $113 $175 $176 forward $63 $-1 #
coedge $-1 $177 $65 $174 $178 forward $41 $-1 #
coedge $-1 $65 $177 $179 $180 forward $41 $-1 #
coedge $-1 $116 $115 $65 $109 reversed $117 $-1 #
edge $-1 $181 -35.91865301218364 $182 35.91865301218364 $108 $183 forward 7 unknown #
coedge $-1 $67 $66 $184 $185 forward $26 $-1 #
coedge $-1 $186 $187 $66 $112 reversed $171 $-1 #
edge $-1 $119 -54.281441694387645 $188 54.281441694387645 $111 $189 forward 7 unknown #
coedge $-1 $105 $190 $67 $114 reversed $63 $-1 #
edge $-1 $191 -54.281441694387645 $118 54.281441694387645 $113 $192 forward 7 unknown #
coedge $-1 $108 $68 $190 $193 forward $117 $-1 #
coedge $-1 $68 $108 $186 $194 reversed $117 $-1 #
loop $-1 $-1 $115 $170 #
vertex $-1 $69 $195 #
vertex $-1 $69 $196 #
straight-curve $-1 54.281441694387645 0 13.094572631682512 0 1 0 I I #
face $-1 $197 $198 $16 $-1 $123 reversed single #
loop $-1 $-1 $199 $70 #
plane-surface $-1 -54.281441694387645 0 0 1 0 0 0 0 -1 forward_v I I I I #
coedge $-1 $76 $127 $200 $201 reversed $71 $-1 #
coedge $-1 $202 $73 $203 $204 reversed $45 $-1 #
coedge $-1 $73 $202 $205 $206 reversed $45 $-1 #
coedge $-1 $124 $134 $73 $128 forward $71 $-1 #
edge $-1 $207 -35.91865301218364 $208 35.91865301218364 $127 $209 forward 7 unknown #
coedge $-1 $75 $74 $210 $211 reversed $29 $-1 #
coedge $-1 $200 $212 $74 $131 forward $213 $-1 #
edge $-1 $214 -31.005108383515232 $135 -15.547558238229595 $130 $215 forward 7 unknown #
coedge $-1 $216 $217 $75 $133 forward $218 $-1 #
edge $-1 $136 15.547558238229595 $219 31.005108383515232 $132 $220 forward 7 unknown #
coedge $-1 $127 $76 $217 $221 reversed $71 $-1 #
vertex $-1 $131 $222 #
vertex $-1 $133 $223 #
straight-curve $-1 -38.823891549102008 0 -1.8059791777916323 0 1 0 I I #
face $-1 $224 $225 $17 $-1 $226 reversed single #
loop $-1 $-1 $146 $78 #
plane-surface $-1 0 0 13.094572631682512 0 0 1 1 0 0 forward_v I I I I #
coedge $-1 $84 $227 $81 $144 forward $79 $-1 #
coedge $-1 $228 $81 $229 $230 reversed $49 $-1 #
coedge $-1 $81 $228 $82 $145 reversed $49 $-1 #
edge $-1 $231 -21.919893212402137 $149 -6.0776263871608727 $141 $232 forward 7 unknown #
edge $-1 $149 -108.56288338877526 $233 -91.082471987098543 $82 $234 forward 7 unknown #
coedge $-1 $235 $236 $83 $147 forward $139 $-1 #
edge $-1 $150 -45.711987873620274 $233 -30.728350889243028 $146 $237 forward 7 unknown #
coedge $-1 $238 $84 $236 $239 reversed $79 $-1 #
vertex $-1 $144 $240 #
vertex $-1 $147 $241 #
straight-curve $-1 54.281441694387645 20.076386186942376 76.531033774937271 0 0 1 I I #
face $-1 $242 $243 $18 $-1 $244 reversed single #
loop $-1 $245 $92 $86 #
plane-surface $-1 -38.77511156949361 27.997519599563006 60.005514285993272 0.51503808176128008 0 0.85716729658548041 0.85716729658548041 0 -0.51503808176128008 forward_v I I I I #
coedge $-1 $246 $247 $248 $249 reversed $87 $-1 #
coedge $-1 $156 $156 $-1 $250 forward $89 $-1 #
edge $-1 $251 0 $251 6.2831853071796004 $90 $252 forward 7 unknown #
vertex $-1 $93 $253 #
ellipse-curve $-1 46.789623202199024 24.602748137011311 8.5930338533237194 -0.51503808176128008 0 -0.85716729658548041 1.2857509448782207 0 -0.77255712264192011 1 I I #
face $-1 $254 $255 $19 $-1 $256 forward single #
loop $-1 $257 $258 $94 #
cone-surface $-1 45.419369942054921 24.602748137011311 6.3125495081300738 -0.51503808176128008 0 -0.85716729658548041 0.64287547243911036 0 -0.38627856132096006 1 I I -0.70710678118654757 0.70710678118654757 0.75 forward I I I I #
loop $-1 $-1 $259 $57 #
coedge $-1 $164 $164 $260 $261 reversed $95 $-1 #
coedge $-1 $165 $165 $-1 $262 forward $97 $-1 #
edge $-1 $263 0 $263 6.2831853071796004 $98 $264 forward 7 unknown #
loop $-1 $265 $100 $254 #
vertex $-1 $101 $266 #
ellipse-curve $-1 46.789623202199024 31.392291062114708 8.5930338533237194 -0.51503808176128008 0 -0.85716729658548041 1.2857509448782207 0 -0.77255712264192011 1 I I #
face $-1 $-1 $117 $15 $-1 $267 reversed single #
loop $-1 $-1 $186 $102 #
plane-surface $-1 0 35.91865301218364 0 0 -1 0 0 0 -1 forward_v I I I I #
coedge $-1 $268 $184 $187 $269 forward $103 $-1 #
coedge $-1 $190 $105 $106 $178 reversed $63 $-1 #
coedge $-1 $184 $268 $105 $176 reversed $103 $-1 #
edge $-1 $191 -13.094572631682512 $270 13.094572631682512 $175 $271 forward 7 unknown #
coedge $-1 $107 $106 $268 $272 forward $41 $-1 #
edge $-1 $182 -54.281441694387645 $270 54.281441694387645 $174 $273 forward 7 unknown #
coedge $-1 $187 $186 $107 $180 reversed $171 $-1 #
edge $-1 $274 -54.281441694387645 $181 54.281441694387645 $179 $275 forward 7 unknown #
vertex $-1 $109 $276 #
vertex $-1 $193 $277 #
straight-curve $-1 54.281441694387645 0 -13.094572631682512 0 -1 0 I I #
coedge $-1 $173 $175 $110 $185 reversed $103 $-1 #
edge $-1 $188 -35.91865301218364 $191 35.91865301218364 $184 $278 forward 7 unknown #
coedge $-1 $179 $111 $116 $194 forward $171 $-1 #
coedge $-1 $111 $179 $173 $269 reversed $171 $-1 #
vertex $-1 $112 $279 #
straight-curve $-1 0 35.91865301218364 13.094572631682512 -1 0 0 I I #
coedge $-1 $113 $174 $115 $193 reversed $63 $-1 #
vertex $-1 $185 $280 #
straight-curve $-1 0 -35.91865301218364 13.094572631682512 1 0 0 I I #
edge $-1 $118 -13.094572631682512 $182 13.094572631682512 $115 $281 forward 7 unknown #
edge $-1 $119 -13.094572631682512 $181 13.094572631682512 $116 $282 forward 7 unknown #
point $-1 54.281441694387645 -35.91865301218364 13.094572631682512 #
point $-1 54.281441694387645 35.91865301218364 13.094572631682512 #
face $-1 $283 $213 $16 $-1 $284 reversed single #
loop $-1 $-1 $210 $121 #
coedge $-1 $285 $286 $202 $287 forward $122 $-1 #
coedge $-1 $205 $130 $124 $201 forward $213 $-1 #
edge $-1 $135 -0.75008681173855019 $208 5.8622187907989147 $200 $288 forward 7 unknown #
coedge $-1 $126 $125 $199 $287 reversed $45 $-1 #
coedge $-1 $217 $289 $125 $204 forward $218 $-1 #
edge $-1 $290 -31.005108383515232 $207 -15.547558238229595 $203 $291 forward 7 unknown #
coedge $-1 $292 $200 $126 $206 forward $213 $-1 #
edge $-1 $208 15.547558238229595 $293 31.005108383515232 $205 $294 forward 7 unknown #
vertex $-1 $204 $295 #
vertex $-1 $206 $296 #
straight-curve $-1 -38.823891549102008 0 -8.4182847803290972 0 -1 0 I I #
coedge $-1 $297 $298 $129 $211 forward $198 $-1 #
edge $-1 $219 -35.91865301218364 $214 35.91865301218364 $210 $299 forward 7 unknown #
coedge $-1 $130 $300 $297 $301 forward $213 $-1 #
loop $-1 $-1 $130 $197 #
vertex $-1 $131 $302 #
straight-curve $-1 -23.276333310872413 -35.91865301218364 -1.8059791777916323 1 0 0 I I #
coedge $-1 $303 $132 $298 $304 reversed $218 $-1 #
coedge $-1 $132 $203 $134 $221 forward $218 $-1 #
loop $-1 $-1 $132 $305 #
vertex $-1 $211 $306 #
straight-curve $-1 -23.276333310872413 35.91865301218364 -1.8059791777916323 -1 0 0 I I #
edge $-1 $207 -5.8622187907989147 $136 0.75008681173855019 $217 $307 forward 7 unknown #
point $-1 -38.823891549102008 -35.91865301218364 -1.8059791777916323 #
point $-1 -38.823891549102008 35.91865301218364 -1.8059791777916323 #
face $-1 $308 $309 $17 $-1 $310 forward single #
loop $-1 $-1 $311 $138 #
plane-surface $-1 -46.552666621744827 0 -1.8059791777916323 0 0 1 1 0 0 forward_v I I I I #
coedge $-1 $141 $312 $313 $314 reversed $79 $-1 #
coedge $-1 $143 $142 $235 $315 reversed $49 $-1 #
coedge $-1 $313 $316 $142 $230 forward $317 $-1 #
edge $-1 $318 59.011530721208402 $231 76.491942122885121 $229 $319 forward 7 unknown #
vertex $-1 $314 $320 #
straight-curve $-1 54.281441694387638 13.998759799781503 4.0914950749649215 0 -1 0 I I #
vertex $-1 $315 $321 #
straight-curve $-1 -38.77511156949361 20.076386186942376 60.005514285993272 -0.85716729658548041 0 0.51503808176128008 I I #
coedge $-1 $322 $146 $228 $315 forward $139 $-1 #
coedge $-1 $146 $323 $148 $239 forward $139 $-1 #
straight-curve $-1 8.5694538207673752 20.076386186942376 13.09457263168251 -1 0 0 I I #
coedge $-1 $312 $148 $324 $325 forward $79 $-1 #
edge $-1 $326 -35.91865301218364 $150 20.076386186942376 $148 $327 forward 7 unknown #
point $-1 54.281441694387645 20.076386186942376 4.0914950749649179 #
point $-1 54.281441694387645 20.076386186942376 13.094572631682512 #
face $-1 $328 $329 $18 $-1 $330 forward single #
loop $-1 $-1 $331 $152 #
plane-surface $-1 54.281441694387645 0 0 -1 0 0 0 0 1 forward_v I I I I #
loop $-1 $-1 $332 $86 #
coedge $-1 $247 $155 $333 $334 forward $87 $-1 #
coedge $-1 $155 $246 $335 $336 reversed $87 $-1 #
coedge $-1 $337 $331 $155 $249 forward $243 $-1 #
edge $-1 $338 -72.43953869997236 $339 -63.43646114325476 $248 $340 forward 7 unknown #
edge $-1 $341 1 $341 0 $156 $-1 forward 7 unknown #
vertex $-1 $157 $342 #
ellipse-curve $-1 45.805648503375878 24.602748137011311 6.9554249805691839 0.51503808176128008 0 0.85716729658548041 1.2857509448782207 0 -0.77255712264192011 1 I I #
point $-1 48.075374147077241 24.602748137011311 7.8204767306817908 #
face $-1 $343 $167 $19 $-1 $344 forward single #
loop $-1 $-1 $345 $160 #
plane-surface $-1 17.13890764153475 20.076386186942376 153.06206754987454 0 1 0 0.51503808176128008 0 0.85716729658548041 forward_v I I I I #
loop $-1 $-1 $346 $94 #
coedge $-1 $258 $258 $259 $347 forward $161 $-1 #
coedge $-1 $259 $259 $258 $347 reversed $163 $-1 #
coedge $-1 $260 $260 $164 $261 forward $265 $-1 #
edge $-1 $348 0 $348 6.2831853071796004 $260 $349 forward 7 unknown #
edge $-1 $350 1 $350 0 $165 $-1 forward 7 unknown #
vertex $-1 $166 $351 #
ellipse-curve $-1 45.805648503375878 31.392291062114708 6.9554249805691839 0.51503808176128008 0 0.85716729658548041 1.2857509448782207 0 -0.77255712264192011 1 I I #
loop $-1 $352 $260 $254 #
point $-1 48.075374147077241 31.392291062114708 7.8204767306817908 #
plane-surface $-1 54.281441694387645 0 0 -1 0 0 0 0 1 forward_v I I I I #
coedge $-1 $175 $173 $177 $272 reversed $103 $-1 #
edge $-1 $188 -13.094572631682512 $274 13.094572631682512 $187 $353 forward 7 unknown #
vertex $-1 $272 $354 #
straight-curve $-1 -54.281441694387645 -35.91865301218364 0 0 0 -1 I I #
edge $-1 $270 -35.91865301218364 $274 35.91865301218364 $268 $355 forward 7 unknown #
straight-curve $-1 0 -35.91865301218364 -13.094572631682512 -1 0 0 I I #
vertex $-1 $180 $356 #
straight-curve $-1 0 35.91865301218364 -13.094572631682512 1 0 0 I I #
point $-1 54.281441694387645 35.91865301218364 -13.094572631682512 #
point $-1 54.281441694387645 -35.91865301218364 -13.094572631682512 #
straight-curve $-1 -54.281441694387645 0 13.094572631682512 0 -1 0 I I #
point $-1 -54.281441694387645 35.91865301218364 13.094572631682512 #
point $-1 -54.281441694387645 -35.91865301218364 13.094572631682512 #
straight-curve $-1 54.281441694387645 -35.91865301218364 0 0 0 -1 I I #
straight-curve $-1 54.281441694387645 35.91865301218364 0 0 0 -1 I I #
face $-1 $357 $358 $16 $-1 $359 forward single #
plane-surface $-1 0 -35.91865301218364 0 0 1 0 0 0 1 forward_v I I I I #
coedge $-1 $360 $199 $289 $361 forward $122 $-1 #
coedge $-1 $199 $360 $292 $362 reversed $122 $-1 #
edge $-1 $293 -35.91865301218364 $290 35.91865301218364 $199 $363 forward 7 unknown #
straight-curve $-1 -38.823891549102008 -35.91865301218364 -2.5560659895301825 0 0 -1 I I #
coedge $-1 $203 $364 $285 $361 reversed $218 $-1 #
vertex $-1 $361 $365 #
straight-curve $-1 -23.276333310872413 35.91865301218364 -8.4182847803290972 1 0 0 I I #
coedge $-1 $366 $205 $286 $362 forward $213 $-1 #
vertex $-1 $362 $367 #
straight-curve $-1 -23.276333310872413 -35.91865301218364 -8.4182847803290972 -1 0 0 I I #
point $-1 -38.823891549102008 35.91865301218364 -8.4182847803290972 #
point $-1 -38.823891549102008 -35.91865301218364 -8.4182847803290972 #
coedge $-1 $368 $210 $212 $301 reversed $198 $-1 #
coedge $-1 $210 $368 $216 $304 forward $198 $-1 #
straight-curve $-1 -54.281441694387645 0 -1.8059791777916323 0 -1 0 I I #
coedge $-1 $212 $369 $370 $371 reversed $213 $-1 #
edge $-1 $372 -13.094572631682512 $214 1.8059791777916323 $297 $373 forward 7 unknown #
point $-1 -54.281441694387645 -35.91865301218364 -1.8059791777916323 #
coedge $-1 $374 $216 $375 $376 reversed $218 $-1 #
edge $-1 $377 -13.094572631682512 $219 1.8059791777916323 $216 $378 forward 7 unknown #
face $-1 $379 $218 $16 $-1 $380 reversed single #
point $-1 -54.281441694387645 35.91865301218364 -1.8059791777916323 #
straight-curve $-1 -38.823891549102008 35.91865301218364 -2.5560659895301825 0 0 1 I I #
face $-1 $381 $382 $17 $-1 $383 forward single #
loop $-1 $-1 $384 $224 #
plane-surface $-1 -46.552666621744827 0 -8.4182847803290972 0 0 1 1 0 0 forward_v I I I I #
coedge $-1 $385 $386 $387 $388 reversed $225 $-1 #
coedge $-1 $227 $238 $389 $390 reversed $79 $-1 #
coedge $-1 $391 $229 $227 $314 forward $317 $-1 #
edge $-1 $231 -4.0914950749649224 $392 13.094572631682512 $227 $393 forward 7 unknown #
edge $-1 $233 6.0776263871608727 $318 21.919893212402137 $235 $394 forward 7 unknown #
coedge $-1 $229 $395 $322 $396 reversed $317 $-1 #
loop $-1 $-1 $229 $397 #
vertex $-1 $396 $398 #
straight-curve $-1 -11.284949545658831 35.91865301218364 43.48775821613053 0.85716729658548041 0 -0.51503808176128008 I I #
point $-1 54.281441694387645 35.91865301218364 4.0914950749649224 #
point $-1 39.297804710010404 20.076386186942376 13.09457263168251 #
coedge $-1 $399 $235 $316 $396 forward $139 $-1 #
coedge $-1 $236 $399 $400 $401 forward $139 $-1 #
coedge $-1 $400 $402 $238 $325 reversed $403 $-1 #
edge $-1 $326 -13.094572631682512 $404 13.094572631682512 $238 $405 forward 7 unknown #
vertex $-1 $239 $406 #
straight-curve $-1 54.281441694387645 0 13.094572631682512 0 1 0 I I #
face $-1 $407 $408 $18 $-1 $409 reversed single #
loop $-1 $-1 $335 $242 #
plane-surface $-1 0 0 13.094572631682512 0 0 1 1 0 0 forward_v I I I I #
coedge $-1 $248 $410 $332 $411 forward $243 $-1 #
coedge $-1 $412 $333 $331 $411 reversed $245 $-1 #
coedge $-1 $332 $413 $246 $334 reversed $245 $-1 #
edge $-1 $338 -108.56288338877526 $414 -91.082471987098543 $246 $415 forward 7 unknown #
coedge $-1 $416 $417 $247 $336 forward $329 $-1 #
edge $-1 $339 -45.711987873620274 $414 -30.728350889243028 $335 $418 forward 7 unknown #
coedge $-1 $419 $248 $417 $420 reversed $243 $-1 #
vertex $-1 $411 $421 #
vertex $-1 $336 $422 #
straight-curve $-1 54.281441694387645 20.076386186942376 76.531033774937271 0 0 1 I I #
vertex $-1 $250 $423 #
point $-1 47.091399448254101 24.602748137011311 6.1828678579272642 #
face $-1 $424 $425 $19 $-1 $426 reversed single #
plane-surface $-1 -38.77511156949361 27.997519599563006 60.005514285993272 0.51503808176128008 0 0.85716729658548041 0.85716729658548041 0 -0.51503808176128008 forward_v I I I I #
coedge $-1 $427 $428 $429 $430 reversed $255 $-1 #
coedge $-1 $346 $346 $-1 $431 forward $257 $-1 #
edge $-1 $432 0 $432 6.2831853071796004 $258 $433 forward 7 unknown #
vertex $-1 $261 $434 #
ellipse-curve $-1 46.789623202199024 24.602748137011311 8.5930338533237194 -0.51503808176128008 0 -0.85716729658548041 1.2857509448782207 0 -0.77255712264192011 1 I I #
vertex $-1 $262 $435 #
point $-1 47.091399448254101 31.392291062114708 6.1828678579272642 #
loop $-1 $-1 $436 $254 #
straight-curve $-1 -54.281441694387645 35.91865301218364 0 0 0 -1 I I #
point $-1 -54.281441694387645 -35.91865301218364 -13.094572631682512 #
straight-curve $-1 -54.281441694387645 0 -13.094572631682512 0 1 0 I I #
point $-1 -54.281441694387645 35.91865301218364 -13.094572631682512 #
face $-1 $305 $437 $16 $-1 $438 reversed single #
loop $-1 $-1 $439 $283 #
plane-surface $-1 0 0 13.094572631682512 0 0 1 1 0 0 forward_v I I I I #
coedge $-1 $286 $285 $440 $441 reversed $122 $-1 #
edge $-1 $290 8.4182847803290972 $442 13.094572631682512 $289 $378 forward 7 unknown #
edge $-1 $293 8.4182847803290972 $443 13.094572631682512 $286 $373 forward 7 unknown #
straight-curve $-1 -54.281441694387645 0 -8.4182847803290972 0 1 0 I I #
coedge $-1 $289 $374 $444 $445 reversed $218 $-1 #
point $-1 -54.281441694387645 35.91865301218364 -8.4182847803290972 #
coedge $-1 $369 $292 $446 $447 reversed $213 $-1 #
point $-1 -54.281441694387645 -35.91865301218364 -8.4182847803290972 #
coedge $-1 $298 $297 $448 $449 reversed $198 $-1 #
coedge $-1 $300 $366 $450 $451 reversed $213 $-1 #
coedge $-1 $439 $448 $300 $371 forward $358 $-1 #
edge $-1 $372 -54.281441694387645 $452 54.281441694387645 $300 $453 forward 7 unknown #
vertex $-1 $449 $454 #
straight-curve $-1 -54.281441694387645 -35.91865301218364 0 0 0 -1 I I #
coedge $-1 $364 $303 $455 $456 forward $218 $-1 #
coedge $-1 $448 $439 $303 $376 forward $358 $-1 #
edge $-1 $457 -54.281441694387645 $377 54.281441694387645 $303 $458 forward 7 unknown #
vertex $-1 $376 $459 #
straight-curve $-1 -54.281441694387645 35.91865301218364 0 0 0 -1 I I #
face $-1 $-1 $460 $16 $-1 $461 reversed single #
plane-surface $-1 0 35.91865301218364 0 0 -1 0 0 0 -1 forward_v I I I I #
face $-1 $462 $463 $17 $-1 $464 reversed single #
loop $-1 $-1 $465 $308 #
plane-surface $-1 -38.823891549102008 0 -5.112131979060365 -1 0 0 0 0 1 forward_v I I I I #
coedge $-1 $466 $467 $468 $469 reversed $309 $-1 #
coedge $-1 $470 $311 $471 $472 reversed $225 $-1 #
coedge $-1 $311 $470 $473 $474 reversed $225 $-1 #
coedge $-1 $475 $465 $311 $388 forward $382 $-1 #
edge $-1 $476 -35.91865301218364 $477 35.91865301218364 $387 $478 forward 7 unknown #
coedge $-1 $479 $480 $312 $390 forward $481 $-1 #
edge $-1 $392 -35.91865301218364 $404 35.91865301218364 $312 $482 forward 7 unknown #
coedge $-1 $483 $313 $480 $484 reversed $317 $-1 #
vertex $-1 $390 $485 #
straight-curve $-1 54.281441694387645 35.91865301218364 0 0 0 -1 I I #
straight-curve $-1 39.297804710010411 13.998759799781503 13.09457263168251 0 1 0 I I #
coedge $-1 $316 $473 $486 $487 reversed $317 $-1 #
edge $-1 $318 -39.297804710010404 $488 54.281441694387645 $316 $489 forward 7 unknown #
face $-1 $-1 $317 $17 $-1 $490 reversed single #
point $-1 39.297804710010404 35.91865301218364 13.09457263168251 #
coedge $-1 $323 $322 $491 $492 forward $139 $-1 #
coedge $-1 $493 $324 $323 $401 reversed $403 $-1 #
edge $-1 $494 -54.281441694387645 $326 54.281441694387645 $400 $495 forward 7 unknown #
coedge $-1 $324 $496 $479 $497 reversed $403 $-1 #
loop $-1 $-1 $471 $498 #
vertex $-1 $325 $499 #
straight-curve $-1 54.281441694387645 -35.91865301218364 0 0 0 -1 I I #
point $-1 54.281441694387645 -35.91865301218364 13.094572631682512 #
face $-1 $500 $501 $18 $-1 $502 forward single #
loop $-1 $-1 $503 $328 #
plane-surface $-1 -46.552666621744827 0 -1.8059791777916323 0 0 1 1 0 0 forward_v I I I I #
coedge $-1 $331 $504 $505 $506 reversed $243 $-1 #
edge $-1 $507 -21.919893212402137 $338 -6.0776263871608727 $331 $508 forward 7 unknown #
coedge $-1 $413 $332 $509 $510 reversed $245 $-1 #
coedge $-1 $333 $412 $416 $511 reversed $245 $-1 #
vertex $-1 $511 $512 #
straight-curve $-1 -38.77511156949361 20.076386186942376 60.005514285993272 -0.85716729658548041 0 0.51503808176128008 I I #
coedge $-1 $513 $335 $413 $511 forward $329 $-1 #
coedge $-1 $335 $514 $337 $420 forward $329 $-1 #
straight-curve $-1 8.5694538207673752 20.076386186942376 13.09457263168251 -1 0 0 I I #
coedge $-1 $504 $337 $515 $516 forward $243 $-1 #
edge $-1 $517 -35.91865301218364 $339 20.076386186942376 $337 $518 forward 7 unknown #
point $-1 54.281441694387645 20.076386186942376 4.0914950749649179 #
point $-1 54.281441694387645 20.076386186942376 13.094572631682512 #
point $-1 45.033091380733964 24.602748137011311 5.6696740356909636 #
face $-1 $519 $520 $19 $-1 $521 forward single #
loop $-1 $-1 $522 $343 #
plane-surface $-1 54.281441694387645 0 0 -1 0 0 0 0 1 forward_v I I I I #
coedge $-1 $428 $345 $523 $524 forward $255 $-1 #
coedge $-1 $345 $427 $525 $526 reversed $255 $-1 #
coedge $-1 $527 $522 $345 $430 forward $425 $-1 #
edge $-1 $528 -72.43953869997236 $529 -63.43646114325476 $429 $530 forward 7 unknown #
edge $-1 $531 1 $531 0 $346 $-1 forward 7 unknown #
vertex $-1 $347 $532 #
ellipse-curve $-1 45.805648503375878 24.602748137011311 6.9554249805691839 0.51503808176128008 0 0.85716729658548041 1.2857509448782207 0 -0.77255712264192011 1 I I #
point $-1 48.075374147077241 24.602748137011311 7.8204767306817908 #
point $-1 45.033091380733964 31.392291062114708 5.6696740356909636 #
coedge $-1 $533 $523 $522 $534 reversed $352 $-1 #
loop $-1 $-1 $535 $357 #
plane-surface $-1 0 0 -13.094572631682512 0 0 1 1 0 0 forward_v I I I I #
coedge $-1 $375 $370 $536 $537 forward $358 $-1 #
coedge $-1 $444 $446 $360 $441 forward $437 $-1 #
edge $-1 $443 -35.91865301218364 $442 35.91865301218364 $360 $538 forward 7 unknown #
vertex $-1 $445 $539 #
vertex $-1 $441 $540 #
coedge $-1 $535 $440 $364 $445 forward $437 $-1 #
edge $-1 $442 -54.281441694387645 $541 54.281441694387645 $364 $542 forward 7 unknown #
coedge $-1 $440 $535 $366 $447 forward $437 $-1 #
edge $-1 $543 -54.281441694387645 $443 54.281441694387645 $366 $544 forward 7 unknown #
coedge $-1 $370 $375 $368 $449 forward $358 $-1 #
edge $-1 $377 -35.91865301218364 $372 35.91865301218364 $368 $545 forward 7 unknown #
coedge $-1 $546 $536 $369 $451 forward $460 $-1 #
edge $-1 $452 -13.094572631682512 $543 13.094572631682512 $450 $547 forward 7 unknown #
vertex $-1 $537 $548 #
straight-curve $-1 0 -35.91865301218364 13.094572631682512 1 0 0 I I #
point $-1 -54.281441694387645 -35.91865301218364 13.094572631682512 #
coedge $-1 $536 $546 $374 $456 reversed $460 $-1 #
edge $-1 $457 -13.094572631682512 $541 13.094572631682512 $455 $549 forward 7 unknown #
vertex $-1 $537 $550 #
straight-curve $-1 0 35.91865301218364 13.094572631682512 -1 0 0 I I #
point $-1 -54.281441694387645 35.91865301218364 13.094572631682512 #
loop $-1 $-1 $450 $379 #
plane-surface $-1 54.281441694387645 0 0 -1 0 0 0 0 1 forward_v I I I I #
face $-1 $498 $551 $17 $-1 $464 reversed single #
loop $-1 $-1 $552 $381 #
plane-surface $-1 -54.281441694387645 0 0 1 0 0 0 0 -1 forward_v I I I I #
coedge $-1 $387 $468 $553 $554 reversed $382 $-1 #
coedge $-1 $555 $384 $556 $557 reversed $309 $-1 #
coedge $-1 $384 $555 $558 $559 reversed $309 $-1 #
coedge $-1 $465 $475 $384 $469 forward $382 $-1 #
edge $-1 $560 -35.91865301218364 $561 35.91865301218364 $468 $562 forward 7 unknown #
coedge $-1 $386 $385 $563 $564 reversed $225 $-1 #
coedge $-1 $553 $493 $385 $472 forward $403 $-1 #
edge $-1 $565 -31.005108383515232 $476 -15.547558238229595 $471 $566 forward 7 unknown #
coedge $-1 $395 $567 $386 $474 forward $317 $-1 #
edge $-1 $477 15.547558238229595 $568 31.005108383515232 $473 $569 forward 7 unknown #
coedge $-1 $468 $387 $567 $570 reversed $382 $-1 #
vertex $-1 $472 $571 #
vertex $-1 $474 $572 #
straight-curve $-1 -38.823891549102008 0 -1.8059791777916323 0 1 0 I I #
coedge $-1 $573 $389 $402 $497 forward $481 $-1 #
coedge $-1 $389 $573 $391 $484 forward $481 $-1 #
loop $-1 $-1 $389 $574 #
straight-curve $-1 54.281441694387645 0 -13.094572631682512 0 -1 0 I I #
coedge $-1 $556 $391 $575 $576 reversed $317 $-1 #
edge $-1 $577 -54.281441694387645 $392 54.281441694387645 $391 $578 forward 7 unknown #
point $-1 54.281441694387645 35.91865301218364 -13.094572631682512 #
coedge $-1 $563 $491 $395 $487 forward $551 $-1 #
edge $-1 $488 -13.094572631682512 $568 1.8059791777916323 $395 $579 forward 7 unknown #
vertex $-1 $396 $580 #
straight-curve $-1 0 35.91865301218364 13.094572631682512 -1 0 0 I I #
plane-surface $-1 0 35.91865301218364 0 0 -1 0 0 0 -1 forward_v I I I I #
coedge $-1 $486 $581 $399 $492 reversed $551 $-1 #
edge $-1 $488 -35.91865301218364 $494 35.91865301218364 $491 $582 forward 7 unknown #
coedge $-1 $471 $400 $581 $583 forward $403 $-1 #
vertex $-1 $492 $584 #
straight-curve $-1 0 -35.91865301218364 13.094572631682512 1 0 0 I I #
coedge $-1 $402 $558 $585 $586 forward $403 $-1 #
edge $-1 $404 -54.281441694387645 $587 54.281441694387645 $402 $588 forward 7 unknown #
face $-1 $574 $403 $17 $-1 $589 reversed single #
point $-1 54.281441694387645 -35.91865301218364 -13.094572631682512 #
face $-1 $590 $591 $18 $-1 $592 forward single #
loop $-1 $-1 $593 $407 #
plane-surface $-1 -46.552666621744827 0 -8.4182847803290972 0 0 1 1 0 0 forward_v I I I I #
coedge $-1 $594 $595 $596 $597 reversed $408 $-1 #
coedge $-1 $410 $419 $598 $599 reversed $243 $-1 #
coedge $-1 $600 $509 $410 $506 forward $601 $-1 #
edge $-1 $507 -4.0914950749649224 $602 13.094572631682512 $410 $603 forward 7 unknown #
vertex $-1 $506 $604 #
straight-curve $-1 54.281441694387638 13.998759799781503 4.0914950749649215 0 -1 0 I I #
coedge $-1 $505 $605 $412 $510 forward $601 $-1 #
edge $-1 $606 59.011530721208402 $507 76.491942122885121 $509 $607 forward 7 unknown #
edge $-1 $414 6.0776263871608727 $606 21.919893212402137 $416 $608 forward 7 unknown #
point $-1 39.297804710010404 20.076386186942376 13.09457263168251 #
coedge $-1 $609 $416 $605 $610 forward $329 $-1 #
coedge $-1 $417 $609 $611 $612 forward $329 $-1 #
coedge $-1 $611 $613 $419 $516 reversed $614 $-1 #
edge $-1 $517 -13.094572631682512 $615 13.094572631682512 $419 $616 forward 7 unknown #
vertex $-1 $420 $617 #
straight-curve $-1 54.281441694387645 0 13.094572631682512 0 1 0 I I #
face $-1 $618 $619 $19 $-1 $620 reversed single #
loop $-1 $-1 $525 $424 #
plane-surface $-1 0 0 13.094572631682512 0 0 1 1 0 0 forward_v I I I I #
coedge $-1 $429 $621 $436 $534 forward $425 $-1 #
coedge $-1 $436 $622 $427 $524 reversed $352 $-1 #
edge $-1 $528 -108.56288338877526 $623 -91.082471987098543 $427 $624 forward 7 unknown #
coedge $-1 $625 $626 $428 $526 forward $520 $-1 #
edge $-1 $529 -45.711987873620274 $623 -30.728350889243028 $525 $627 forward 7 unknown #
coedge $-1 $628 $429 $626 $629 reversed $425 $-1 #
vertex $-1 $534 $630 #
vertex $-1 $526 $631 #
straight-curve $-1 54.281441694387645 20.076386186942376 76.531033774937271 0 0 1 I I #
vertex $-1 $431 $632 #
point $-1 47.091399448254101 24.602748137011311 6.1828678579272642 #
coedge $-1 $622 $436 $633 $634 reversed $352 $-1 #
edge $-1 $635 -21.919893212402137 $528 -6.0776263871608727 $522 $636 forward 7 unknown #
coedge $-1 $446 $444 $546 $637 forward $437 $-1 #
coedge $-1 $450 $455 $439 $537 reversed $460 $-1 #
edge $-1 $452 -35.91865301218364 $457 35.91865301218364 $536 $638 forward 7 unknown #
straight-curve $-1 -54.281441694387645 0 -13.094572631682512 0 1 0 I I #
point $-1 -54.281441694387645 35.91865301218364 -13.094572631682512 #
point $-1 -54.281441694387645 -35.91865301218364 -13.094572631682512 #
vertex $-1 $637 $639 #
straight-curve $-1 0 35.91865301218364 -13.094572631682512 1 0 0 I I #
vertex $-1 $451 $640 #
straight-curve $-1 0 -35.91865301218364 -13.094572631682512 -1 0 0 I I #
straight-curve $-1 -54.281441694387645 0 13.094572631682512 0 -1 0 I I #
coedge $-1 $455 $450 $535 $637 reversed $460 $-1 #
straight-curve $-1 54.281441694387645 -35.91865301218364 0 0 0 -1 I I #
point $-1 54.281441694387645 -35.91865301218364 13.094572631682512 #
straight-curve $-1 54.281441694387645 35.91865301218364 0 0 0 -1 I I #
point $-1 54.281441694387645 35.91865301218364 13.094572631682512 #
loop $-1 $-1 $563 $462 #
coedge $-1 $575 $585 $555 $641 forward $463 $-1 #
coedge $-1 $558 $471 $465 $554 forward $403 $-1 #
edge $-1 $476 -0.75008681173855019 $561 5.8622187907989147 $553 $642 forward 7 unknown #
coedge $-1 $467 $466 $552 $641 reversed $309 $-1 #
coedge $-1 $567 $483 $466 $557 forward $317 $-1 #
edge $-1 $643 -31.005108383515232 $560 -15.547558238229595 $556 $644 forward 7 unknown #
coedge $-1 $496 $553 $467 $559 forward $403 $-1 #
edge $-1 $561 15.547558238229595 $645 31.005108383515232 $558 $646 forward 7 unknown #
vertex $-1 $557 $647 #
vertex $-1 $559 $648 #
straight-curve $-1 -38.823891549102008 0 -8.4182847803290972 0 -1 0 I I #
coedge $-1 $581 $486 $470 $564 forward $551 $-1 #
edge $-1 $568 -35.91865301218364 $565 35.91865301218364 $563 $649 forward 7 unknown #
vertex $-1 $472 $650 #
straight-curve $-1 -23.276333310872413 -35.91865301218364 -1.8059791777916323 1 0 0 I I #
coedge $-1 $473 $556 $475 $570 forward $317 $-1 #
vertex $-1 $564 $651 #
straight-curve $-1 -23.276333310872413 35.91865301218364 -1.8059791777916323 -1 0 0 I I #
edge $-1 $560 -5.8622187907989147 $477 0.75008681173855019 $567 $652 forward 7 unknown #
point $-1 -38.823891549102008 -35.91865301218364 -1.8059791777916323 #
point $-1 -38.823891549102008 35.91865301218364 -1.8059791777916323 #
coedge $-1 $480 $479 $653 $654 forward $481 $-1 #
face $-1 $397 $481 $17 $-1 $655 reversed single #
coedge $-1 $653 $552 $483 $576 forward $463 $-1 #
edge $-1 $643 8.4182847803290972 $577 13.094572631682512 $483 $579 forward 7 unknown #
vertex $-1 $484 $656 #
straight-curve $-1 0 35.91865301218364 -13.094572631682512 1 0 0 I I #
straight-curve $-1 -54.281441694387645 35.91865301218364 0 0 0 -1 I I #
point $-1 -54.281441694387645 35.91865301218364 13.094572631682512 #
coedge $-1 $491 $563 $493 $583 reversed $551 $-1 #
straight-curve $-1 -54.281441694387645 0 13.094572631682512 0 -1 0 I I #
edge $-1 $494 -13.094572631682512 $565 1.8059791777916323 $581 $657 forward 7 unknown #
point $-1 -54.281441694387645 -35.91865301218364 13.094572631682512 #
coedge $-1 $552 $653 $496 $586 reversed $463 $-1 #
edge $-1 $645 8.4182847803290972 $587 13.094572631682512 $585 $657 forward 7 unknown #
vertex $-1 $654 $658 #
straight-curve $-1 0 -35.91865301218364 -13.094572631682512 -1 0 0 I I #
plane-surface $-1 0 -35.91865301218364 0 0 1 0 0 0 1 forward_v I I I I #
face $-1 $659 $660 $18 $-1 $661 reversed single #
loop $-1 $-1 $662 $500 #
plane-surface $-1 -38.823891549102008 0 -5.112131979060365 -1 0 0 0 0 1 forward_v I I I I #
coedge $-1 $663 $664 $665 $666 reversed $501 $-1 #
coedge $-1 $667 $503 $668 $669 reversed $408 $-1 #
coedge $-1 $503 $667 $670 $671 reversed $408 $-1 #
coedge $-1 $672 $662 $503 $597 forward $591 $-1 #
edge $-1 $673 -35.91865301218364 $674 35.91865301218364 $596 $675 forward 7 unknown #
coedge $-1 $676 $677 $504 $599 forward $678 $-1 #
edge $-1 $602 -35.91865301218364 $615 35.91865301218364 $504 $679 forward 7 unknown #
coedge $-1 $680 $505 $677 $681 reversed $601 $-1 #
loop $-1 $-1 $509 $682 #
vertex $-1 $599 $683 #
straight-curve $-1 54.281441694387645 35.91865301218364 0 0 0 -1 I I #
point $-1 54.281441694387645 35.91865301218364 4.0914950749649224 #
coedge $-1 $509 $684 $513 $610 reversed $601 $-1 #
vertex $-1 $610 $685 #
straight-curve $-1 -11.284949545658831 35.91865301218364 43.48775821613053 0.85716729658548041 0 -0.51503808176128008 I I #
straight-curve $-1 39.297804710010411 13.998759799781503 13.09457263168251 0 1 0 I I #
coedge $-1 $514 $513 $686 $687 forward $329 $-1 #
edge $-1 $606 -39.297804710010404 $688 54.281441694387645 $605 $689 forward 7 unknown #
coedge $-1 $690 $515 $514 $612 reversed $614 $-1 #
edge $-1 $691 -54.281441694387645 $517 54.281441694387645 $611 $692 forward 7 unknown #
coedge $-1 $515 $693 $676 $694 reversed $614 $-1 #
loop $-1 $-1 $668 $695 #
vertex $-1 $516 $696 #
straight-curve $-1 54.281441694387645 -35.91865301218364 0 0 0 -1 I I #
point $-1 54.281441694387645 -35.91865301218364 13.094572631682512 #
face $-1 $697 $698 $19 $-1 $699 forward single #
loop $-1 $-1 $700 $519 #
plane-surface $-1 -46.552666621744827 0 -1.8059791777916323 0 0 1 1 0 0 forward_v I I I I #
coedge $-1 $522 $701 $702 $703 reversed $425 $-1 #
coedge $-1 $523 $533 $625 $704 reversed $352 $-1 #
vertex $-1 $704 $705 #
straight-curve $-1 -38.77511156949361 20.076386186942376 60.005514285993272 -0.85716729658548041 0 0.51503808176128008 I I #
coedge $-1 $706 $525 $622 $704 forward $520 $-1 #
coedge $-1 $525 $707 $527 $629 forward $520 $-1 #
straight-curve $-1 8.5694538207673752 20.076386186942376 13.09457263168251 -1 0 0 I I #
coedge $-1 $701 $527 $708 $709 forward $425 $-1 #
edge $-1 $710 -35.91865301218364 $529 20.076386186942376 $527 $711 forward 7 unknown #
point $-1 54.281441694387645 20.076386186942376 4.0914950749649179 #
point $-1 54.281441694387645 20.076386186942376 13.094572631682512 #
point $-1 45.033091380733964 24.602748137011311 5.6696740356909636 #
coedge $-1 $702 $712 $533 $634 forward $713 $-1 #
edge $-1 $714 59.011530721208402 $635 76.491942122885121 $633 $715 forward 7 unknown #
vertex $-1 $703 $716 #
straight-curve $-1 54.281441694387638 13.998759799781503 4.0914950749649215 0 -1 0 I I #
edge $-1 $541 -35.91865301218364 $543 35.91865301218364 $546 $717 forward 7 unknown #
straight-curve $-1 54.281441694387645 0 13.094572631682512 0 1 0 I I #
point $-1 54.281441694387645 35.91865301218364 -13.094572631682512 #
point $-1 54.281441694387645 -35.91865301218364 -13.094572631682512 #
edge $-1 $645 -35.91865301218364 $643 35.91865301218364 $552 $718 forward 7 unknown #
straight-curve $-1 -38.823891549102008 -35.91865301218364 -2.5560659895301825 0 0 -1 I I #
vertex $-1 $576 $719 #
straight-curve $-1 -23.276333310872413 35.91865301218364 -8.4182847803290972 1 0 0 I I #
vertex $-1 $586 $720 #
straight-curve $-1 -23.276333310872413 -35.91865301218364 -8.4182847803290972 -1 0 0 I I #
point $-1 -38.823891549102008 35.91865301218364 -8.4182847803290972 #
point $-1 -38.823891549102008 -35.91865301218364 -8.4182847803290972 #
straight-curve $-1 -54.281441694387645 0 -1.8059791777916323 0 -1 0 I I #
point $-1 -54.281441694387645 -35.91865301218364 -1.8059791777916323 #
point $-1 -54.281441694387645 35.91865301218364 -1.8059791777916323 #
straight-curve $-1 -38.823891549102008 35.91865301218364 -2.5560659895301825 0 0 1 I I #
coedge $-1 $585 $575 $573 $654 reversed $463 $-1 #
edge $-1 $587 -35.91865301218364 $577 35.91865301218364 $653 $721 forward 7 unknown #
plane-surface $-1 0 0 -13.094572631682512 0 0 1 1 0 0 forward_v I I I I #
point $-1 -54.281441694387645 35.91865301218364 -13.094572631682512 #
straight-curve $-1 -54.281441694387645 -35.91865301218364 0 0 0 -1 I I #
point $-1 -54.281441694387645 -35.91865301218364 -13.094572631682512 #
face $-1 $695 $722 $18 $-1 $661 reversed single #
loop $-1 $-1 $723 $590 #
plane-surface $-1 -54.281441694387645 0 0 1 0 0 0 0 -1 forward_v I I I I #
coedge $-1 $596 $665 $724 $725 reversed $591 $-1 #
coedge $-1 $726 $593 $727 $728 reversed $501 $-1 #
coedge $-1 $593 $726 $729 $730 reversed $501 $-1 #
coedge $-1 $662 $672 $593 $666 forward $591 $-1 #
edge $-1 $731 -35.91865301218364 $732 35.91865301218364 $665 $733 forward 7 unknown #
coedge $-1 $595 $594 $734 $735 reversed $408 $-1 #
coedge $-1 $724 $690 $594 $669 forward $614 $-1 #
edge $-1 $736 -31.005108383515232 $673 -15.547558238229595 $668 $737 forward 7 unknown #
coedge $-1 $684 $738 $595 $671 forward $601 $-1 #
edge $-1 $674 15.547558238229595 $739 31.005108383515232 $670 $740 forward 7 unknown #
coedge $-1 $665 $596 $738 $741 reversed $591 $-1 #
vertex $-1 $669 $742 #
vertex $-1 $671 $743 #
straight-curve $-1 -38.823891549102008 0 -1.8059791777916323 0 1 0 I I #
coedge $-1 $744 $598 $613 $694 forward $678 $-1 #
coedge $-1 $598 $744 $600 $681 forward $678 $-1 #
loop $-1 $-1 $598 $745 #
straight-curve $-1 54.281441694387645 0 -13.094572631682512 0 -1 0 I I #
coedge $-1 $727 $600 $746 $747 reversed $601 $-1 #
edge $-1 $748 -54.281441694387645 $602 54.281441694387645 $600 $749 forward 7 unknown #
face $-1 $-1 $601 $18 $-1 $750 reversed single #
point $-1 54.281441694387645 35.91865301218364 -13.094572631682512 #
coedge $-1 $605 $670 $751 $752 reversed $601 $-1 #
point $-1 39.297804710010404 35.91865301218364 13.09457263168251 #
coedge $-1 $751 $753 $609 $687 reversed $722 $-1 #
edge $-1 $688 -35.91865301218364 $691 35.91865301218364 $686 $754 forward 7 unknown #
vertex $-1 $610 $755 #
straight-curve $-1 0 35.91865301218364 13.094572631682512 -1 0 0 I I #
coedge $-1 $668 $611 $753 $756 forward $614 $-1 #
vertex $-1 $687 $757 #
straight-curve $-1 0 -35.91865301218364 13.094572631682512 1 0 0 I I #
coedge $-1 $613 $729 $758 $759 forward $614 $-1 #
edge $-1 $615 -54.281441694387645 $760 54.281441694387645 $613 $761 forward 7 unknown #
face $-1 $745 $614 $18 $-1 $762 reversed single #
point $-1 54.281441694387645 -35.91865301218364 -13.094572631682512 #
face $-1 $763 $764 $19 $-1 $765 forward single #
loop $-1 $-1 $766 $618 #
plane-surface $-1 -46.552666621744827 0 -8.4182847803290972 0 0 1 1 0 0 forward_v I I I I #
coedge $-1 $767 $768 $769 $770 reversed $619 $-1 #
coedge $-1 $621 $628 $771 $772 reversed $425 $-1 #
coedge $-1 $773 $633 $621 $703 forward $713 $-1 #
edge $-1 $635 -4.0914950749649224 $774 13.094572631682512 $621 $775 forward 7 unknown #
edge $-1 $623 6.0776263871608727 $714 21.919893212402137 $625 $776 forward 7 unknown #
point $-1 39.297804710010404 20.076386186942376 13.09457263168251 #
coedge $-1 $777 $625 $712 $778 forward $520 $-1 #
coedge $-1 $626 $777 $779 $780 forward $520 $-1 #
coedge $-1 $779 $781 $628 $709 reversed $782 $-1 #
edge $-1 $710 -13.094572631682512 $783 13.094572631682512 $628 $784 forward 7 unknown #
vertex $-1 $629 $785 #
straight-curve $-1 54.281441694387645 0 13.094572631682512 0 1 0 I I #
coedge $-1 $633 $786 $706 $778 reversed $713 $-1 #
loop $-1 $-1 $633 $787 #
vertex $-1 $778 $788 #
straight-curve $-1 -11.284949545658831 35.91865301218364 43.48775821613053 0.85716729658548041 0 -0.51503808176128008 I I #
point $-1 54.281441694387645 35.91865301218364 4.0914950749649224 #
straight-curve $-1 54.281441694387645 0 -13.094572631682512 0 -1 0 I I #
straight-curve $-1 -54.281441694387645 0 -8.4182847803290972 0 1 0 I I #
point $-1 -54.281441694387645 35.91865301218364 -8.4182847803290972 #
point $-1 -54.281441694387645 -35.91865301218364 -8.4182847803290972 #
straight-curve $-1 -54.281441694387645 0 -13.094572631682512 0 1 0 I I #
loop $-1 $-1 $734 $659 #
coedge $-1 $746 $758 $726 $789 forward $660 $-1 #
coedge $-1 $729 $668 $662 $725 forward $614 $-1 #
edge $-1 $673 -0.75008681173855019 $732 5.8622187907989147 $724 $790 forward 7 unknown #
coedge $-1 $664 $663 $723 $789 reversed $501 $-1 #
coedge $-1 $738 $680 $663 $728 forward $601 $-1 #
edge $-1 $791 -31.005108383515232 $731 -15.547558238229595 $727 $792 forward 7 unknown #
coedge $-1 $693 $724 $664 $730 forward $614 $-1 #
edge $-1 $732 15.547558238229595 $793 31.005108383515232 $729 $794 forward 7 unknown #
vertex $-1 $728 $795 #
vertex $-1 $730 $796 #
straight-curve $-1 -38.823891549102008 0 -8.4182847803290972 0 -1 0 I I #
coedge $-1 $753 $751 $667 $735 forward $722 $-1 #
edge $-1 $739 -35.91865301218364 $736 35.91865301218364 $734 $797 forward 7 unknown #
vertex $-1 $669 $798 #
straight-curve $-1 -23.276333310872413 -35.91865301218364 -1.8059791777916323 1 0 0 I I #
coedge $-1 $670 $727 $672 $741 forward $601 $-1 #
vertex $-1 $735 $799 #
straight-curve $-1 -23.276333310872413 35.91865301218364 -1.8059791777916323 -1 0 0 I I #
edge $-1 $731 -5.8622187907989147 $674 0.75008681173855019 $738 $800 forward 7 unknown #
point $-1 -38.823891549102008 -35.91865301218364 -1.8059791777916323 #
point $-1 -38.823891549102008 35.91865301218364 -1.8059791777916323 #
coedge $-1 $677 $676 $801 $802 forward $678 $-1 #
face $-1 $682 $678 $18 $-1 $803 reversed single #
coedge $-1 $801 $723 $680 $747 forward $660 $-1 #
edge $-1 $791 8.4182847803290972 $748 13.094572631682512 $680 $804 forward 7 unknown #
vertex $-1 $681 $805 #
straight-curve $-1 0 35.91865301218364 -13.094572631682512 1 0 0 I I #
plane-surface $-1 0 35.91865301218364 0 0 -1 0 0 0 -1 forward_v I I I I #
coedge $-1 $734 $686 $684 $752 forward $722 $-1 #
edge $-1 $688 -13.094572631682512 $739 1.8059791777916323 $684 $804 forward 7 unknown #
coedge $-1 $686 $734 $690 $756 reversed $722 $-1 #
straight-curve $-1 -54.281441694387645 0 13.094572631682512 0 -1 0 I I #
point $-1 -54.281441694387645 35.91865301218364 13.094572631682512 #
edge $-1 $691 -13.094572631682512 $736 1.8059791777916323 $753 $806 forward 7 unknown #
point $-1 -54.281441694387645 -35.91865301218364 13.094572631682512 #
coedge $-1 $723 $801 $693 $759 reversed $660 $-1 #
edge $-1 $793 8.4182847803290972 $760 13.094572631682512 $758 $806 forward 7 unknown #
vertex $-1 $802 $807 #
straight-curve $-1 0 -35.91865301218364 -13.094572631682512 -1 0 0 I I #
plane-surface $-1 0 -35.91865301218364 0 0 1 0 0 0 1 forward_v I I I I #
face $-1 $808 $809 $19 $-1 $810 reversed single #
loop $-1 $-1 $811 $697 #
plane-surface $-1 -38.823891549102008 0 -5.112131979060365 -1 0 0 0 0 1 forward_v I I I I #
coedge $-1 $812 $813 $814 $815 reversed $698 $-1 #
coedge $-1 $816 $700 $817 $818 reversed $619 $-1 #
coedge $-1 $700 $816 $819 $820 reversed $619 $-1 #
coedge $-1 $821 $811 $700 $770 forward $764 $-1 #
edge $-1 $822 -35.91865301218364 $823 35.91865301218364 $769 $824 forward 7 unknown #
coedge $-1 $825 $826 $701 $772 forward $827 $-1 #
edge $-1 $774 -35.91865301218364 $783 35.91865301218364 $701 $828 forward 7 unknown #
coedge $-1 $829 $702 $826 $830 reversed $713 $-1 #
vertex $-1 $772 $831 #
straight-curve $-1 54.281441694387645 35.91865301218364 0 0 0 -1 I I #
straight-curve $-1 39.297804710010411 13.998759799781503 13.09457263168251 0 1 0 I I #
coedge $-1 $707 $706 $832 $833 forward $520 $-1 #
edge $-1 $714 -39.297804710010404 $834 54.281441694387645 $712 $835 forward 7 unknown #
coedge $-1 $836 $708 $707 $780 reversed $782 $-1 #
edge $-1 $837 -54.281441694387645 $710 54.281441694387645 $779 $838 forward 7 unknown #
coedge $-1 $708 $839 $825 $840 reversed $782 $-1 #
loop $-1 $-1 $817 $841 #
vertex $-1 $709 $842 #
straight-curve $-1 54.281441694387645 -35.91865301218364 0 0 0 -1 I I #
point $-1 54.281441694387645 -35.91865301218364 13.094572631682512 #
coedge $-1 $712 $819 $843 $844 reversed $713 $-1 #
face $-1 $-1 $713 $19 $-1 $845 reversed single #
point $-1 39.297804710010404 35.91865301218364 13.09457263168251 #
edge $-1 $793 -35.91865301218364 $791 35.91865301218364 $723 $846 forward 7 unknown #
straight-curve $-1 -38.823891549102008 -35.91865301218364 -2.5560659895301825 0 0 -1 I I #
vertex $-1 $747 $847 #
straight-curve $-1 -23.276333310872413 35.91865301218364 -8.4182847803290972 1 0 0 I I #
vertex $-1 $759 $848 #
straight-curve $-1 -23.276333310872413 -35.91865301218364 -8.4182847803290972 -1 0 0 I I #
point $-1 -38.823891549102008 35.91865301218364 -8.4182847803290972 #
point $-1 -38.823891549102008 -35.91865301218364 -8.4182847803290972 #
straight-curve $-1 -54.281441694387645 0 -1.8059791777916323 0 -1 0 I I #
point $-1 -54.281441694387645 -35.91865301218364 -1.8059791777916323 #
point $-1 -54.281441694387645 35.91865301218364 -1.8059791777916323 #
straight-curve $-1 -38.823891549102008 35.91865301218364 -2.5560659895301825 0 0 1 I I #
coedge $-1 $758 $746 $744 $802 reversed $660 $-1 #
edge $-1 $760 -35.91865301218364 $748 35.91865301218364 $801 $849 forward 7 unknown #
plane-surface $-1 0 0 -13.094572631682512 0 0 1 1 0 0 forward_v I I I I #
straight-curve $-1 -54.281441694387645 35.91865301218364 0 0 0 -1 I I #
point $-1 -54.281441694387645 35.91865301218364 -13.094572631682512 #
straight-curve $-1 -54.281441694387645 -35.91865301218364 0 0 0 -1 I I #
point $-1 -54.281441694387645 -35.91865301218364 -13.094572631682512 #
face $-1 $841 $850 $19 $-1 $810 reversed single #
loop $-1 $-1 $851 $763 #
plane-surface $-1 -54.281441694387645 0 0 1 0 0 0 0 -1 forward_v I I I I #
coedge $-1 $769 $814 $852 $853 reversed $764 $-1 #
coedge $-1 $854 $766 $855 $856 reversed $698 $-1 #
coedge $-1 $766 $854 $857 $858 reversed $698 $-1 #
coedge $-1 $811 $821 $766 $815 forward $764 $-1 #
edge $-1 $859 -35.91865301218364 $860 35.91865301218364 $814 $861 forward 7 unknown #
coedge $-1 $768 $767 $862 $863 reversed $619 $-1 #
coedge $-1 $852 $836 $767 $818 forward $782 $-1 #
edge $-1 $864 -31.005108383515232 $822 -15.547558238229595 $817 $865 forward 7 unknown #
coedge $-1 $786 $866 $768 $820 forward $713 $-1 #
edge $-1 $823 15.547558238229595 $867 31.005108383515232 $819 $868 forward 7 unknown #
coedge $-1 $814 $769 $866 $869 reversed $764 $-1 #
vertex $-1 $818 $870 #
vertex $-1 $820 $871 #
straight-curve $-1 -38.823891549102008 0 -1.8059791777916323 0 1 0 I I #
coedge $-1 $872 $771 $781 $840 forward $827 $-1 #
coedge $-1 $771 $872 $773 $830 forward $827 $-1 #
loop $-1 $-1 $771 $873 #
straight-curve $-1 54.281441694387645 0 -13.094572631682512 0 -1 0 I I #
coedge $-1 $855 $773 $874 $875 reversed $713 $-1 #
edge $-1 $876 -54.281441694387645 $774 54.281441694387645 $773 $877 forward 7 unknown #
point $-1 54.281441694387645 35.91865301218364 -13.094572631682512 #
coedge $-1 $843 $878 $777 $833 reversed $850 $-1 #
edge $-1 $834 -35.91865301218364 $837 35.91865301218364 $832 $879 forward 7 unknown #
vertex $-1 $778 $880 #
straight-curve $-1 0 35.91865301218364 13.094572631682512 -1 0 0 I I #
coedge $-1 $817 $779 $878 $881 forward $782 $-1 #
vertex $-1 $833 $882 #
straight-curve $-1 0 -35.91865301218364 13.094572631682512 1 0 0 I I #
coedge $-1 $781 $857 $883 $884 forward $782 $-1 #
edge $-1 $783 -54.281441694387645 $885 54.281441694387645 $781 $886 forward 7 unknown #
face $-1 $873 $782 $19 $-1 $887 reversed single #
point $-1 54.281441694387645 -35.91865301218364 -13.094572631682512 #
coedge $-1 $862 $832 $786 $844 forward $850 $-1 #
edge $-1 $834 -13.094572631682512 $867 1.8059791777916323 $786 $888 forward 7 unknown #
plane-surface $-1 0 35.91865301218364 0 0 -1 0 0 0 -1 forward_v I I I I #
straight-curve $-1 -54.281441694387645 0 -8.4182847803290972 0 1 0 I I #
point $-1 -54.281441694387645 35.91865301218364 -8.4182847803290972 #
point $-1 -54.281441694387645 -35.91865301218364 -8.4182847803290972 #
straight-curve $-1 -54.281441694387645 0 -13.094572631682512 0 1 0 I I #
loop $-1 $-1 $862 $808 #
coedge $-1 $874 $883 $854 $889 forward $809 $-1 #
coedge $-1 $857 $817 $811 $853 forward $782 $-1 #
edge $-1 $822 -0.75008681173855019 $860 5.8622187907989147 $852 $890 forward 7 unknown #
coedge $-1 $813 $812 $851 $889 reversed $698 $-1 #
coedge $-1 $866 $829 $812 $856 forward $713 $-1 #
edge $-1 $891 -31.005108383515232 $859 -15.547558238229595 $855 $892 forward 7 unknown #
coedge $-1 $839 $852 $813 $858 forward $782 $-1 #
edge $-1 $860 15.547558238229595 $893 31.005108383515232 $857 $894 forward 7 unknown #
vertex $-1 $856 $895 #
vertex $-1 $858 $896 #
straight-curve $-1 -38.823891549102008 0 -8.4182847803290972 0 -1 0 I I #
coedge $-1 $878 $843 $816 $863 forward $850 $-1 #
edge $-1 $867 -35.91865301218364 $864 35.91865301218364 $862 $897 forward 7 unknown #
vertex $-1 $818 $898 #
straight-curve $-1 -23.276333310872413 -35.91865301218364 -1.8059791777916323 1 0 0 I I #
coedge $-1 $819 $855 $821 $869 forward $713 $-1 #
vertex $-1 $863 $899 #
straight-curve $-1 -23.276333310872413 35.91865301218364 -1.8059791777916323 -1 0 0 I I #
edge $-1 $859 -5.8622187907989147 $823 0.75008681173855019 $866 $900 forward 7 unknown #
point $-1 -38.823891549102008 -35.91865301218364 -1.8059791777916323 #
point $-1 -38.823891549102008 35.91865301218364 -1.8059791777916323 #
coedge $-1 $826 $825 $901 $902 forward $827 $-1 #
face $-1 $787 $827 $19 $-1 $903 reversed single #
coedge $-1 $901 $851 $829 $875 forward $809 $-1 #
edge $-1 $891 8.4182847803290972 $876 13.094572631682512 $829 $888 forward 7 unknown #
vertex $-1 $830 $904 #
straight-curve $-1 0 35.91865301218364 -13.094572631682512 1 0 0 I I #
coedge $-1 $832 $862 $836 $881 reversed $850 $-1 #
straight-curve $-1 -54.281441694387645 0 13.094572631682512 0 -1 0 I I #
point $-1 -54.281441694387645 35.91865301218364 13.094572631682512 #
edge $-1 $837 -13.094572631682512 $864 1.8059791777916323 $878 $905 forward 7 unknown #
point $-1 -54.281441694387645 -35.91865301218364 13.094572631682512 #
coedge $-1 $851 $901 $839 $884 reversed $809 $-1 #
edge $-1 $893 8.4182847803290972 $885 13.094572631682512 $883 $905 forward 7 unknown #
vertex $-1 $902 $906 #
straight-curve $-1 0 -35.91865301218364 -13.094572631682512 -1 0 0 I I #
plane-surface $-1 0 -35.91865301218364 0 0 1 0 0 0 1 forward_v I I I I #
straight-curve $-1 -54.281441694387645 35.91865301218364 0 0 0 -1 I I #
edge $-1 $893 -35.91865301218364 $891 35.91865301218364 $851 $907 forward 7 unknown #
straight-curve $-1 -38.823891549102008 -35.91865301218364 -2.5560659895301825 0 0 -1 I I #
vertex $-1 $875 $908 #
straight-curve $-1 -23.276333310872413 35.91865301218364 -8.4182847803290972 1 0 0 I I #
vertex $-1 $884 $909 #
straight-curve $-1 -23.276333310872413 -35.91865301218364 -8.4182847803290972 -1 0 0 I I #
point $-1 -38.823891549102008 35.91865301218364 -8.4182847803290972 #
point $-1 -38.823891549102008 -35.91865301218364 -8.4182847803290972 #
straight-curve $-1 -54.281441694387645 0 -1.8059791777916323 0 -1 0 I I #
point $-1 -54.281441694387645 -35.91865301218364 -1.8059791777916323 #
point $-1 -54.281441694387645 35.91865301218364 -1.8059791777916323 #
straight-curve $-1 -38.823891549102008 35.91865301218364 -2.5560659895301825 0 0 1 I I #
coedge $-1 $883 $874 $872 $902 reversed $809 $-1 #
edge $-1 $885 -35.91865301218364 $876 35.91865301218364 $901 $910 forward 7 unknown #
plane-surface $-1 0 0 -13.094572631682512 0 0 1 1 0 0 forward_v I I I I #
point $-1 -54.281441694387645 35.91865301218364 -13.094572631682512 #
straight-curve $-1 -54.281441694387645 -35.91865301218364 0 0 0 -1 I I #
point $-1 -54.281441694387645 -35.91865301218364 -13.094572631682512 #
straight-curve $-1 -54.281441694387645 0 -8.4182847803290972 0 1 0 I I #
point $-1 -54.281441694387645 35.91865301218364 -8.4182847803290972 #
point $-1 -54.281441694387645 -35.91865301218364 -8.4182847803290972 #
straight-curve $-1 -54.281441694387645 0 -13.094572631682512 0 1 0 I I #
End-of-ACIS-data 