500 0 13 0           
7 Unknown 11 ACIS 5.0 NT 24 Thu Mar 25 17:21:36 1999 
-1 9.9999999999999995e-007 1e-010 
body $-1 $13 $-1 $14 #
body $-1 $15 $-1 $16 #
body $-1 $17 $-1 $18 #
body $-1 $19 $-1 $20 #
body $-1 $21 $-1 $22 #
body $-1 $23 $-1 $24 #
body $-1 $25 $-1 $26 #
body $-1 $27 $-1 $28 #
body $-1 $29 $-1 $30 #
body $-1 $31 $-1 $32 #
body $-1 $33 $-1 $34 #
body $-1 $35 $-1 $36 #
body $-1 $37 $-1 $38 #
lump $-1 $-1 $39 $0 #
transform $-1 1 0 0 0 1 0 0 0 1 43.993041779839473 18.188901440851321 4 1 rotate no_reflect no_shear #
lump $-1 $-1 $40 $1 #
transform $-1 1 0 0 0 1 0 0 0 1 43.993041779839473 18.188901440851321 4 1 rotate no_reflect no_shear #
lump $-1 $-1 $41 $2 #
transform $-1 1 0 0 0 1 0 0 0 1 43.993041779839473 18.188901440851321 4 1 rotate no_reflect no_shear #
lump $-1 $-1 $42 $3 #
transform $-1 1 0 0 0 1 0 0 0 1 43.993041779839473 18.188901440851321 4 1 rotate no_reflect no_shear #
lump $-1 $-1 $43 $4 #
transform $-1 1 0 0 0 1 0 0 0 1 43.993041779839473 18.188901440851321 4 1 rotate no_reflect no_shear #
lump $-1 $-1 $44 $5 #
transform $-1 1 0 0 0 1 0 0 0 1 43.993041779839473 18.188901440851321 4 1 rotate no_reflect no_shear #
lump $-1 $-1 $45 $6 #
transform $-1 1 0 0 0 1 0 0 0 1 43.993041779839473 18.188901440851321 4 1 rotate no_reflect no_shear #
lump $-1 $-1 $46 $7 #
transform $-1 1 0 0 0 1 0 0 0 1 43.993041779839473 18.188901440851321 4 1 rotate no_reflect no_shear #
lump $-1 $-1 $47 $8 #
transform $-1 1 0 0 0 1 0 0 0 1 43.993041779839473 18.188901440851321 4 1 rotate no_reflect no_shear #
lump $-1 $-1 $48 $9 #
transform $-1 1 0 0 0 1 0 0 0 1 43.993041779839473 18.188901440851321 4 1 rotate no_reflect no_shear #
lump $-1 $-1 $49 $10 #
transform $-1 1 0 0 0 1 0 0 0 1 43.993041779839473 18.188901440851321 4 1 rotate no_reflect no_shear #
lump $-1 $-1 $50 $11 #
transform $-1 1 0 0 0 1 0 0 0 1 43.993041779839473 18.188901440851321 4 1 rotate no_reflect no_shear #
lump $-1 $-1 $51 $12 #
transform $-1 1 0 0 0 1 0 0 0 1 43.993041779839473 18.188901440851321 4 1 rotate no_reflect no_shear #
shell $-1 $-1 $-1 $52 $-1 $13 #
shell $-1 $-1 $-1 $53 $-1 $15 #
shell $-1 $-1 $-1 $54 $-1 $17 #
shell $-1 $-1 $-1 $55 $-1 $19 #
shell $-1 $-1 $-1 $56 $-1 $21 #
shell $-1 $-1 $-1 $57 $-1 $23 #
shell $-1 $-1 $-1 $58 $-1 $25 #
shell $-1 $-1 $-1 $59 $-1 $27 #
shell $-1 $-1 $-1 $60 $-1 $29 #
shell $-1 $-1 $-1 $61 $-1 $31 #
shell $-1 $-1 $-1 $62 $-1 $33 #
shell $-1 $-1 $-1 $63 $-1 $35 #
shell $-1 $-1 $-1 $64 $-1 $37 #
face $-1 $65 $66 $39 $-1 $67 forward single #
face $-1 $68 $69 $40 $-1 $70 forward single #
face $-1 $71 $72 $41 $-1 $73 reversed single #
face $-1 $74 $75 $42 $-1 $76 forward single #
face $-1 $77 $78 $43 $-1 $79 forward single #
face $-1 $80 $81 $44 $-1 $82 forward single #
face $-1 $83 $84 $45 $-1 $85 reversed single #
face $-1 $86 $87 $46 $-1 $88 forward single #
face $-1 $89 $90 $47 $-1 $91 forward single #
face $-1 $92 $93 $48 $-1 $94 forward single #
face $-1 $95 $96 $49 $-1 $97 reversed single #
face $-1 $98 $99 $50 $-1 $100 forward single #
face $-1 $101 $102 $51 $-1 $103 forward single #
face $-1 $104 $105 $39 $-1 $106 reversed single #
loop $-1 $-1 $107 $52 #
plane-surface $-1 0 0 4 0 0 1 1 0 0 forward_v I I I I #
face $-1 $108 $109 $40 $-1 $110 reversed single #
loop $-1 $-1 $111 $53 #
plane-surface $-1 0 -18.188901440851321 0 0 1 0 0 0 1 forward_v I I I I #
face $-1 $112 $113 $41 $-1 $114 reversed single #
loop $-1 $-1 $115 $54 #
plane-surface $-1 -95.709964763908459 -7.9803922810423984 71.922127131971905 0 1 0 -0.5877852598018023 0 0.80901698891910034 forward_v I I I I #
face $-1 $116 $117 $42 $-1 $118 forward single #
loop $-1 $119 $120 $55 #
cone-surface $-1 -41.455571474190734 -6.5899782475219713 1.9654368774084876 0.5877852598018023 0 -0.80901698891910034 0.20225424722977509 0 0.14694631495045057 1 I I 0 1 0.25 forward I I I I #
face $-1 $121 $122 $43 $-1 $123 forward single #
loop $-1 $124 $125 $56 #
cone-surface $-1 -41.455571474190734 -4.5043571972413297 1.9654368774084876 0.5877852598018023 0 -0.80901698891910034 0.20225424722977509 0 0.14694631495045057 1 I I 0 1 0.25 forward I I I I #
face $-1 $126 $127 $44 $-1 $128 forward single #
loop $-1 $129 $130 $57 #
cone-surface $-1 -41.455571474190734 -2.4187361469606898 1.9654368774084876 0.5877852598018023 0 -0.80901698891910034 0.20225424722977509 0 0.14694631495045057 1 I I 0 1 0.25 forward I I I I #
face $-1 $131 $132 $45 $-1 $133 reversed single #
loop $-1 $-1 $134 $58 #
plane-surface $-1 -95.709964763908459 8.4106955058277837 71.922127131971905 0 1 0 -0.5877852598018023 0 0.80901698891910034 forward_v I I I I #
face $-1 $135 $136 $46 $-1 $137 forward single #
loop $-1 $138 $139 $59 #
cone-surface $-1 -41.455571474190734 9.8011095393482073 1.9654368774084876 0.5877852598018023 0 -0.80901698891910034 0.20225424722977509 0 0.14694631495045057 1 I I 0 1 0.25 forward I I I I #
face $-1 $140 $141 $47 $-1 $142 forward single #
loop $-1 $143 $144 $60 #
cone-surface $-1 -41.455571474190734 11.886730589628851 1.9654368774084876 0.5877852598018023 0 -0.80901698891910034 0.20225424722977509 0 0.14694631495045057 1 I I 0 1 0.25 forward I I I I #
face $-1 $145 $146 $48 $-1 $147 forward single #
loop $-1 $148 $149 $61 #
cone-surface $-1 -41.455571474190734 13.972351639909494 1.9654368774084876 0.5877852598018023 0 -0.80901698891910034 0.20225424722977509 0 0.14694631495045057 1 I I 0 1 0.25 forward I I I I #
face $-1 $150 $151 $49 $-1 $152 reversed single #
loop $-1 $-1 $153 $62 #
plane-surface $-1 50.505264585663213 8.626817962493659 124.820720797153 0 -1 0 -0.74314483375859142 0 -0.66913059716165679 forward_v I I I I #
face $-1 $154 $155 $50 $-1 $156 forward single #
loop $-1 $157 $158 $63 #
cone-surface $-1 41.843442449217605 1.7543694856110186 1.7389561887389777 -0.74314483375859142 0 -0.66913059716165679 0.66913059716165679 0 -0.74314483375859142 1 I I 0 1 1 forward I I I I #
face $-1 $159 $160 $51 $-1 $161 forward single #
loop $-1 $162 $163 $64 #
cone-surface $-1 41.843442449217605 5.8778385717406003 1.7389561887389777 -0.74314483375859142 0 -0.66913059716165679 0.66913059716165679 0 -0.74314483375859142 1 I I 0 1 1 forward I I I I #
face $-1 $164 $165 $39 $-1 $166 reversed single #
loop $-1 $-1 $167 $65 #
plane-surface $-1 0 0 -4 0 0 1 1 0 0 forward_v I I I I #
coedge $-1 $168 $169 $170 $171 forward $66 $-1 #
face $-1 $172 $173 $40 $-1 $174 reversed single #
loop $-1 $-1 $175 $68 #
plane-surface $-1 0 0 -4 0 0 1 1 0 0 forward_v I I I I #
coedge $-1 $176 $177 $178 $179 forward $69 $-1 #
face $-1 $180 $181 $41 $-1 $182 reversed single #
loop $-1 $-1 $183 $71 #
plane-surface $-1 -43.993041779839487 -4.5043571972413314 0.73989074373608332 -0.5877852598018023 0 0.80901698891910034 0.80901698891910034 0 0.5877852598018023 forward_v I I I I #
coedge $-1 $184 $185 $186 $187 reversed $72 $-1 #
face $-1 $-1 $188 $42 $-1 $189 forward single #
loop $-1 $190 $191 $74 #
cone-surface $-1 -41.088205686814611 -6.5899782475219713 1.4598012593340499 0.5877852598018023 0 -0.80901698891910034 0.10112712361488754 0 0.073473157475225287 1 I I -0.70710678118654746 0.70710678118654746 0.125 forward I I I I #
loop $-1 $-1 $192 $55 #
coedge $-1 $120 $120 $193 $194 reversed $75 $-1 #
face $-1 $-1 $195 $43 $-1 $196 forward single #
loop $-1 $197 $198 $77 #
cone-surface $-1 -41.088205686814611 -4.5043571972413297 1.4598012593340499 0.5877852598018023 0 -0.80901698891910034 0.10112712361488754 0 0.073473157475225287 1 I I -0.70710678118654746 0.70710678118654746 0.125 forward I I I I #
loop $-1 $-1 $199 $56 #
coedge $-1 $125 $125 $200 $201 reversed $78 $-1 #
face $-1 $-1 $202 $44 $-1 $203 forward single #
loop $-1 $204 $205 $80 #
cone-surface $-1 -41.088205686814611 -2.4187361469606898 1.4598012593340499 0.5877852598018023 0 -0.80901698891910034 0.10112712361488754 0 0.073473157475225287 1 I I -0.70710678118654746 0.70710678118654746 0.125 forward I I I I #
loop $-1 $-1 $206 $57 #
coedge $-1 $130 $130 $207 $208 reversed $81 $-1 #
face $-1 $209 $210 $45 $-1 $211 reversed single #
loop $-1 $-1 $212 $83 #
plane-surface $-1 -43.993041779839487 11.886730589628851 0.73989074373608332 -0.5877852598018023 0 0.80901698891910034 0.80901698891910034 0 0.5877852598018023 forward_v I I I I #
coedge $-1 $213 $214 $215 $216 reversed $84 $-1 #
face $-1 $-1 $217 $46 $-1 $218 forward single #
loop $-1 $219 $220 $86 #
cone-surface $-1 -41.088205686814611 9.8011095393482073 1.4598012593340499 0.5877852598018023 0 -0.80901698891910034 0.10112712361488754 0 0.073473157475225287 1 I I -0.70710678118654746 0.70710678118654746 0.125 forward I I I I #
loop $-1 $-1 $221 $59 #
coedge $-1 $139 $139 $222 $223 reversed $87 $-1 #
face $-1 $-1 $224 $47 $-1 $225 forward single #
loop $-1 $226 $227 $89 #
cone-surface $-1 -41.088205686814611 11.886730589628851 1.4598012593340499 0.5877852598018023 0 -0.80901698891910034 0.10112712361488754 0 0.073473157475225287 1 I I -0.70710678118654746 0.70710678118654746 0.125 forward I I I I #
loop $-1 $-1 $228 $60 #
coedge $-1 $144 $144 $229 $230 reversed $90 $-1 #
face $-1 $-1 $231 $48 $-1 $232 forward single #
loop $-1 $233 $234 $92 #
cone-surface $-1 -41.088205686814611 13.972351639909494 1.4598012593340499 0.5877852598018023 0 -0.80901698891910034 0.10112712361488754 0 0.073473157475225287 1 I I -0.70710678118654746 0.70710678118654746 0.125 forward I I I I #
loop $-1 $-1 $235 $61 #
coedge $-1 $149 $149 $236 $237 reversed $93 $-1 #
face $-1 $238 $239 $49 $-1 $240 reversed single #
loop $-1 $-1 $241 $95 #
plane-surface $-1 -14.881138854363925 3.816104028675813 65.946540162949589 0.74314483375859142 0 0.66913059716165679 0.66913059716165679 0 -0.74314483375859142 forward_v I I I I #
coedge $-1 $242 $243 $244 $245 reversed $96 $-1 #
face $-1 $-1 $246 $50 $-1 $247 forward single #
loop $-1 $248 $249 $98 #
cone-surface $-1 40.87090406642946 1.7543694856110186 0.86327871743591089 -0.74314483375859142 0 -0.66913059716165679 0.3345652985808284 0 -0.37157241687929571 1 I I -0.70710678118654746 0.70710678118654746 0.5 forward I I I I #
loop $-1 $-1 $250 $63 #
coedge $-1 $158 $158 $251 $252 reversed $99 $-1 #
face $-1 $-1 $253 $51 $-1 $254 forward single #
loop $-1 $255 $256 $101 #
cone-surface $-1 40.87090406642946 5.8778385717406003 0.86327871743591089 -0.74314483375859142 0 -0.66913059716165679 0.3345652985808284 0 -0.37157241687929571 1 I I -0.70710678118654746 0.70710678118654746 0.5 forward I I I I #
loop $-1 $-1 $257 $64 #
coedge $-1 $163 $163 $258 $259 reversed $102 $-1 #
face $-1 $260 $261 $39 $-1 $262 reversed single #
loop $-1 $-1 $263 $104 #
plane-surface $-1 0 -18.188901440851321 0 0 1 0 0 0 1 forward_v I I I I #
coedge $-1 $264 $265 $266 $267 forward $105 $-1 #
coedge $-1 $268 $107 $269 $270 forward $66 $-1 #
coedge $-1 $107 $268 $271 $272 forward $66 $-1 #
coedge $-1 $273 $274 $107 $171 reversed $275 $-1 #
edge $-1 $276 -18.188901440851321 $277 18.188901440851321 $170 $278 forward 7 unknown #
face $-1 $279 $280 $40 $-1 $281 forward single #
loop $-1 $-1 $282 $108 #
plane-surface $-1 43.993041779839473 0 0 -1 0 0 0 0 1 forward_v I I I I #
coedge $-1 $283 $284 $285 $286 forward $109 $-1 #
coedge $-1 $285 $111 $282 $287 reversed $69 $-1 #
coedge $-1 $111 $285 $288 $289 reversed $69 $-1 #
coedge $-1 $290 $291 $111 $179 reversed $280 $-1 #
edge $-1 $292 -43.993041779839473 $293 43.993041779839473 $178 $294 forward 7 unknown #
face $-1 $295 $296 $41 $-1 $297 forward single #
loop $-1 $-1 $298 $112 #
plane-surface $-1 -95.709964763908459 -1.0283221134402645 71.922127131971905 0 -1 0 0.5877852598018023 0 -0.80901698891910034 forward_v I I I I #
coedge $-1 $299 $300 $301 $302 reversed $113 $-1 #
coedge $-1 $185 $115 $303 $304 reversed $72 $-1 #
coedge $-1 $115 $184 $299 $305 reversed $72 $-1 #
coedge $-1 $301 $306 $115 $187 forward $296 $-1 #
edge $-1 $307 3.8619406021147569 $308 8.3490959536104015 $186 $309 forward 7 unknown #
loop $-1 $-1 $193 $116 #
plane-surface $-1 -43.993041779839487 -4.5043571972413314 0.73989074373608332 -0.5877852598018023 0 0.80901698891910034 0.80901698891910034 0 0.5877852598018023 forward_v I I I I #
loop $-1 $-1 $310 $74 #
coedge $-1 $191 $191 $192 $311 reversed $117 $-1 #
coedge $-1 $192 $192 $191 $311 forward $119 $-1 #
coedge $-1 $193 $193 $120 $194 forward $188 $-1 #
edge $-1 $312 0 $312 6.2831853071796004 $193 $313 forward 7 unknown #
loop $-1 $-1 $200 $121 #
plane-surface $-1 -43.993041779839487 -4.5043571972413314 0.73989074373608332 -0.5877852598018023 0 0.80901698891910034 0.80901698891910034 0 0.5877852598018023 forward_v I I I I #
loop $-1 $-1 $314 $77 #
coedge $-1 $198 $198 $199 $315 reversed $122 $-1 #
coedge $-1 $199 $199 $198 $315 forward $124 $-1 #
coedge $-1 $200 $200 $125 $201 forward $195 $-1 #
edge $-1 $316 0 $316 6.2831853071796004 $200 $317 forward 7 unknown #
loop $-1 $-1 $207 $126 #
plane-surface $-1 -43.993041779839487 -4.5043571972413314 0.73989074373608332 -0.5877852598018023 0 0.80901698891910034 0.80901698891910034 0 0.5877852598018023 forward_v I I I I #
loop $-1 $-1 $318 $80 #
coedge $-1 $205 $205 $206 $319 reversed $127 $-1 #
coedge $-1 $206 $206 $205 $319 forward $129 $-1 #
coedge $-1 $207 $207 $130 $208 forward $202 $-1 #
edge $-1 $320 0 $320 6.2831853071796004 $207 $321 forward 7 unknown #
face $-1 $322 $323 $45 $-1 $324 forward single #
loop $-1 $-1 $325 $131 #
plane-surface $-1 -95.709964763908459 15.362765673429918 71.922127131971905 0 -1 0 0.5877852598018023 0 -0.80901698891910034 forward_v I I I I #
coedge $-1 $326 $327 $328 $329 reversed $132 $-1 #
coedge $-1 $214 $134 $330 $331 reversed $84 $-1 #
coedge $-1 $134 $213 $326 $332 reversed $84 $-1 #
coedge $-1 $328 $333 $134 $216 forward $323 $-1 #
edge $-1 $334 3.8619406021147569 $335 8.3490959536104015 $215 $336 forward 7 unknown #
loop $-1 $-1 $222 $135 #
plane-surface $-1 -43.993041779839487 11.886730589628851 0.73989074373608332 -0.5877852598018023 0 0.80901698891910034 0.80901698891910034 0 0.5877852598018023 forward_v I I I I #
loop $-1 $-1 $337 $86 #
coedge $-1 $220 $220 $221 $338 reversed $136 $-1 #
coedge $-1 $221 $221 $220 $338 forward $138 $-1 #
coedge $-1 $222 $222 $139 $223 forward $217 $-1 #
edge $-1 $339 0 $339 6.2831853071796004 $222 $340 forward 7 unknown #
loop $-1 $-1 $229 $140 #
plane-surface $-1 -43.993041779839487 11.886730589628851 0.73989074373608332 -0.5877852598018023 0 0.80901698891910034 0.80901698891910034 0 0.5877852598018023 forward_v I I I I #
loop $-1 $-1 $341 $89 #
coedge $-1 $227 $227 $228 $342 reversed $141 $-1 #
coedge $-1 $228 $228 $227 $342 forward $143 $-1 #
coedge $-1 $229 $229 $144 $230 forward $224 $-1 #
edge $-1 $343 0 $343 6.2831853071796004 $229 $344 forward 7 unknown #
loop $-1 $-1 $236 $145 #
plane-surface $-1 -43.993041779839487 11.886730589628851 0.73989074373608332 -0.5877852598018023 0 0.80901698891910034 0.80901698891910034 0 0.5877852598018023 forward_v I I I I #
loop $-1 $-1 $345 $92 #
coedge $-1 $234 $234 $235 $346 reversed $146 $-1 #
coedge $-1 $235 $235 $234 $346 forward $148 $-1 #
coedge $-1 $236 $236 $149 $237 forward $231 $-1 #
edge $-1 $347 0 $347 6.2831853071796004 $236 $348 forward 7 unknown #
face $-1 $349 $350 $49 $-1 $351 reversed single #
loop $-1 $-1 $352 $150 #
plane-surface $-1 50.505264585663213 -0.99460990514203296 124.820720797153 0 1 0 0.74314483375859142 0 0.66913059716165679 forward_v I I I I #
coedge $-1 $353 $354 $355 $356 reversed $151 $-1 #
coedge $-1 $243 $153 $357 $358 reversed $96 $-1 #
coedge $-1 $153 $242 $353 $359 reversed $96 $-1 #
coedge $-1 $355 $360 $153 $245 forward $361 $-1 #
edge $-1 $362 -18.740409487007867 $363 -15.643142757581792 $244 $364 forward 7 unknown #
loop $-1 $-1 $251 $154 #
plane-surface $-1 -14.881138854363925 3.816104028675813 65.946540162949589 0.74314483375859142 0 0.66913059716165679 0.66913059716165679 0 -0.74314483375859142 forward_v I I I I #
loop $-1 $-1 $365 $98 #
coedge $-1 $249 $249 $250 $366 reversed $155 $-1 #
coedge $-1 $250 $250 $249 $366 forward $157 $-1 #
coedge $-1 $251 $251 $158 $252 forward $246 $-1 #
edge $-1 $367 0 $367 6.2831853071796004 $251 $368 forward 7 unknown #
loop $-1 $-1 $258 $159 #
plane-surface $-1 -14.881138854363925 3.816104028675813 65.946540162949589 0.74314483375859142 0 0.66913059716165679 0.66913059716165679 0 -0.74314483375859142 forward_v I I I I #
loop $-1 $-1 $369 $101 #
coedge $-1 $256 $256 $257 $370 reversed $160 $-1 #
coedge $-1 $257 $257 $256 $370 forward $162 $-1 #
coedge $-1 $258 $258 $163 $259 forward $253 $-1 #
edge $-1 $371 0 $371 6.2831853071796004 $258 $372 forward 7 unknown #
face $-1 $373 $374 $39 $-1 $375 reversed single #
loop $-1 $-1 $376 $164 #
plane-surface $-1 -43.993041779839473 0 0 1 0 0 0 0 -1 forward_v I I I I #
coedge $-1 $271 $377 $273 $378 reversed $165 $-1 #
coedge $-1 $379 $167 $377 $380 forward $105 $-1 #
coedge $-1 $167 $379 $381 $382 forward $105 $-1 #
coedge $-1 $274 $273 $167 $267 reversed $275 $-1 #
edge $-1 $383 -18.188901440851321 $384 18.188901440851321 $266 $385 forward 7 unknown #
coedge $-1 $169 $168 $386 $387 forward $66 $-1 #
coedge $-1 $388 $389 $168 $270 reversed $374 $-1 #
edge $-1 $277 -43.993041779839473 $390 43.993041779839473 $269 $391 forward 7 unknown #
coedge $-1 $392 $263 $169 $272 reversed $165 $-1 #
edge $-1 $393 -43.993041779839473 $276 43.993041779839473 $271 $394 forward 7 unknown #
coedge $-1 $266 $170 $263 $378 forward $275 $-1 #
coedge $-1 $170 $266 $388 $395 reversed $275 $-1 #
loop $-1 $-1 $273 $373 #
vertex $-1 $171 $396 #
vertex $-1 $171 $397 #
straight-curve $-1 43.993041779839473 0 4 0 1 0 I I #
face $-1 $398 $399 $40 $-1 $400 reversed single #
loop $-1 $-1 $291 $172 #
plane-surface $-1 0 -19.986715094832462 -1 0 0 1 1 0 0 forward_v I I I I #
coedge $-1 $401 $402 $176 $287 forward $173 $-1 #
coedge $-1 $403 $175 $402 $404 forward $109 $-1 #
coedge $-1 $175 $403 $405 $406 forward $109 $-1 #
coedge $-1 $177 $176 $175 $286 reversed $69 $-1 #
edge $-1 $407 -43.993041779839473 $408 43.993041779839473 $175 $409 forward 7 unknown #
edge $-1 $408 -4 $293 -1 $282 $410 forward 7 unknown #
coedge $-1 $405 $411 $177 $289 forward $412 $-1 #
edge $-1 $292 1 $407 4 $288 $413 forward 7 unknown #
coedge $-1 $414 $178 $411 $415 forward $280 $-1 #
coedge $-1 $178 $414 $401 $416 forward $280 $-1 #
vertex $-1 $289 $417 #
vertex $-1 $416 $418 #
straight-curve $-1 0 -18.188901440851321 -1 1 0 0 I I #
face $-1 $-1 $419 $41 $-1 $420 reversed single #
loop $-1 $-1 $186 $180 #
plane-surface $-1 0 0 4 0 0 1 1 0 0 forward_v I I I I #
coedge $-1 $421 $422 $423 $424 reversed $181 $-1 #
coedge $-1 $425 $183 $185 $305 forward $113 $-1 #
coedge $-1 $183 $425 $421 $426 forward $113 $-1 #
coedge $-1 $423 $186 $183 $302 forward $296 $-1 #
edge $-1 $308 -5.7282136824217327 $427 1.2238564851804012 $301 $428 forward 7 unknown #
coedge $-1 $429 $430 $184 $304 forward $419 $-1 #
edge $-1 $431 -35.221172822249862 $307 -31.961063565985953 $303 $432 forward 7 unknown #
edge $-1 $308 -5.5464290774545919 $431 -1.756574927105486e-014 $185 $433 forward 7 unknown #
coedge $-1 $186 $423 $429 $434 forward $296 $-1 #
vertex $-1 $304 $435 #
vertex $-1 $187 $436 #
straight-curve $-1 -47.85498238195423 -7.9803922810423984 4 1 0 0 I I #
coedge $-1 $310 $310 $-1 $437 reversed $190 $-1 #
edge $-1 $438 0 $438 6.2831853071796004 $191 $439 forward 7 unknown #
vertex $-1 $194 $440 #
ellipse-curve $-1 -41.749464104091643 -6.5899782475219713 2.3699453718680519 -0.5877852598018023 0 0.80901698891910034 0.20225424722977509 0 0.14694631495045057 1 I I #
coedge $-1 $314 $314 $-1 $441 reversed $197 $-1 #
edge $-1 $442 0 $442 6.2831853071796004 $198 $443 forward 7 unknown #
vertex $-1 $201 $444 #
ellipse-curve $-1 -41.749464104091643 -4.5043571972413297 2.3699453718680519 -0.5877852598018023 0 0.80901698891910034 0.20225424722977509 0 0.14694631495045057 1 I I #
coedge $-1 $318 $318 $-1 $445 reversed $204 $-1 #
edge $-1 $446 0 $446 6.2831853071796004 $205 $447 forward 7 unknown #
vertex $-1 $208 $448 #
ellipse-curve $-1 -41.749464104091643 -2.4187361469606898 2.3699453718680519 -0.5877852598018023 0 0.80901698891910034 0.20225424722977509 0 0.14694631495045057 1 I I #
face $-1 $-1 $449 $45 $-1 $450 reversed single #
loop $-1 $-1 $215 $209 #
plane-surface $-1 0 0 4 0 0 1 1 0 0 forward_v I I I I #
coedge $-1 $451 $452 $453 $454 reversed $210 $-1 #
coedge $-1 $455 $212 $214 $332 forward $132 $-1 #
coedge $-1 $212 $455 $451 $456 forward $132 $-1 #
coedge $-1 $453 $215 $212 $329 forward $323 $-1 #
edge $-1 $335 2.4673302110133584 $457 9.4194003786154923 $328 $458 forward 7 unknown #
coedge $-1 $459 $460 $213 $331 forward $449 $-1 #
edge $-1 $461 -35.221172822249862 $334 -31.961063565985953 $330 $462 forward 7 unknown #
edge $-1 $335 -5.5464290774545919 $461 -1.756574927105486e-014 $214 $463 forward 7 unknown #
coedge $-1 $215 $453 $459 $464 forward $323 $-1 #
vertex $-1 $216 $465 #
vertex $-1 $216 $466 #
straight-curve $-1 -47.85498238195423 8.4106955058277837 4 1 0 0 I I #
coedge $-1 $337 $337 $-1 $467 reversed $219 $-1 #
edge $-1 $468 0 $468 6.2831853071796004 $220 $469 forward 7 unknown #
vertex $-1 $223 $470 #
ellipse-curve $-1 -41.749464104091643 9.8011095393482073 2.3699453718680519 -0.5877852598018023 0 0.80901698891910034 0.20225424722977509 0 0.14694631495045057 1 I I #
coedge $-1 $341 $341 $-1 $471 reversed $226 $-1 #
edge $-1 $472 0 $472 6.2831853071796004 $227 $473 forward 7 unknown #
vertex $-1 $230 $474 #
ellipse-curve $-1 -41.749464104091643 11.886730589628851 2.3699453718680519 -0.5877852598018023 0 0.80901698891910034 0.20225424722977509 0 0.14694631495045057 1 I I #
coedge $-1 $345 $345 $-1 $475 reversed $233 $-1 #
edge $-1 $476 0 $476 6.2831853071796004 $234 $477 forward 7 unknown #
vertex $-1 $237 $478 #
ellipse-curve $-1 -41.749464104091643 13.972351639909494 2.3699453718680519 -0.5877852598018023 0 0.80901698891910034 0.20225424722977509 0 0.14694631495045057 1 I I #
face $-1 $-1 $361 $49 $-1 $479 forward single #
loop $-1 $-1 $480 $238 #
plane-surface $-1 43.993041779839473 0 0 -1 0 0 0 0 1 forward_v I I I I #
coedge $-1 $481 $482 $483 $484 reversed $239 $-1 #
coedge $-1 $485 $241 $243 $359 forward $151 $-1 #
coedge $-1 $241 $485 $481 $486 forward $151 $-1 #
coedge $-1 $483 $244 $241 $356 forward $361 $-1 #
edge $-1 $363 -6.7187659481557525 $487 2.9026619194799395 $355 $488 forward 7 unknown #
coedge $-1 $489 $490 $242 $358 forward $350 $-1 #
edge $-1 $491 -61.85022367565405 $362 -58.410360398576501 $357 $492 forward 7 unknown #
edge $-1 $363 83.357291000253042 $491 87.986083559678931 $243 $493 forward 7 unknown #
coedge $-1 $244 $483 $489 $494 forward $361 $-1 #
loop $-1 $-1 $483 $349 #
vertex $-1 $358 $495 #
vertex $-1 $245 $496 #
straight-curve $-1 25.252632292831606 8.626817962493659 4 -1 0 0 I I #
coedge $-1 $365 $365 $-1 $497 reversed $248 $-1 #
edge $-1 $498 0 $498 6.2831853071796004 $249 $499 forward 7 unknown #
vertex $-1 $252 $500 #
ellipse-curve $-1 42.444408415126446 1.7543694856110186 2.2800683614612103 0.74314483375859142 0 0.66913059716165679 0.66913059716165679 0 -0.74314483375859142 1 I I #
coedge $-1 $369 $369 $-1 $501 reversed $255 $-1 #
edge $-1 $502 0 $502 6.2831853071796004 $256 $503 forward 7 unknown #
vertex $-1 $259 $504 #
ellipse-curve $-1 42.444408415126446 5.8778385717406003 2.2800683614612103 0.74314483375859142 0 0.66913059716165679 0.66913059716165679 0 -0.74314483375859142 1 I I #
face $-1 $-1 $275 $39 $-1 $505 reversed single #
loop $-1 $-1 $388 $260 #
plane-surface $-1 0 18.188901440851321 0 0 -1 0 0 0 -1 forward_v I I I I #
coedge $-1 $506 $386 $389 $507 forward $261 $-1 #
coedge $-1 $263 $392 $264 $380 reversed $165 $-1 #
edge $-1 $276 -4 $384 4 $273 $508 forward 7 unknown #
coedge $-1 $265 $264 $506 $509 forward $105 $-1 #
edge $-1 $384 -43.993041779839473 $510 43.993041779839473 $377 $511 forward 7 unknown #
coedge $-1 $389 $388 $265 $382 reversed $374 $-1 #
edge $-1 $512 -43.993041779839473 $383 43.993041779839473 $381 $513 forward 7 unknown #
vertex $-1 $267 $514 #
vertex $-1 $378 $515 #
straight-curve $-1 43.993041779839473 0 -4 0 -1 0 I I #
coedge $-1 $376 $516 $268 $387 reversed $261 $-1 #
edge $-1 $390 -18.188901440851321 $393 18.188901440851321 $386 $517 forward 7 unknown #
coedge $-1 $381 $269 $274 $395 forward $374 $-1 #
coedge $-1 $269 $381 $376 $507 reversed $374 $-1 #
vertex $-1 $270 $518 #
straight-curve $-1 0 18.188901440851321 4 -1 0 0 I I #
coedge $-1 $377 $271 $516 $519 forward $165 $-1 #
vertex $-1 $387 $520 #
straight-curve $-1 0 -18.188901440851321 4 1 0 0 I I #
edge $-1 $277 -4 $383 4 $274 $521 forward 7 unknown #
point $-1 43.993041779839473 -18.188901440851321 4 #
point $-1 43.993041779839473 18.188901440851321 4 #
face $-1 $-1 $412 $40 $-1 $522 reversed single #
loop $-1 $-1 $523 $279 #
plane-surface $-1 0 -21.784528748813603 -2.5 0 1 0 0 0 1 forward_v I I I I #
coedge $-1 $524 $282 $291 $416 reversed $173 $-1 #
coedge $-1 $282 $524 $283 $404 reversed $173 $-1 #
coedge $-1 $284 $283 $525 $526 forward $109 $-1 #
edge $-1 $408 18.188901440851321 $527 21.784528748813603 $402 $528 forward 7 unknown #
coedge $-1 $529 $288 $284 $406 reversed $412 $-1 #
edge $-1 $530 -21.784528748813603 $407 -18.188901440851321 $405 $531 forward 7 unknown #
vertex $-1 $289 $532 #
vertex $-1 $404 $533 #
straight-curve $-1 0 -18.188901440851321 -4 1 0 0 I I #
straight-curve $-1 43.993041779839473 -18.188901440851321 0 0 0 1 I I #
coedge $-1 $288 $529 $290 $415 reversed $412 $-1 #
loop $-1 $-1 $288 $398 #
straight-curve $-1 -43.993041779839473 -18.188901440851321 0 0 0 -1 I I #
coedge $-1 $291 $290 $534 $535 forward $280 $-1 #
edge $-1 $292 -1.7978136539811409 $536 1.7978136539811409 $411 $537 forward 7 unknown #
edge $-1 $538 -1.7978136539811409 $293 1.7978136539811409 $401 $539 forward 7 unknown #
point $-1 -43.993041779839473 -18.188901440851321 -1 #
point $-1 43.993041779839473 -18.188901440851321 -1 #
loop $-1 $-1 $303 $295 #
plane-surface $-1 -43.993041779839473 0 0 1 0 0 0 0 -1 forward_v I I I I #
coedge $-1 $422 $298 $300 $426 reversed $181 $-1 #
coedge $-1 $298 $421 $540 $541 reversed $181 $-1 #
coedge $-1 $306 $301 $298 $424 forward $296 $-1 #
edge $-1 $427 -8.3490959536104015 $542 -3.8619406021147569 $423 $543 forward 7 unknown #
coedge $-1 $300 $299 $430 $544 reversed $113 $-1 #
edge $-1 $545 1.756574927105486e-014 $427 5.5464290774545919 $421 $546 forward 7 unknown #
vertex $-1 $302 $547 #
straight-curve $-1 -39.505886428343828 -2.2521785986206657 3.9999999999999991 0 1 0 I I #
coedge $-1 $540 $303 $306 $434 reversed $419 $-1 #
coedge $-1 $303 $540 $425 $544 forward $419 $-1 #
vertex $-1 $304 $548 #
straight-curve $-1 -43.993041779839473 -7.9803922810423984 35.961063565985953 0 0 1 I I #
straight-curve $-1 -43.993041779839487 -7.9803922810423984 0.73989074373608332 -0.80901698891910034 0 -0.5877852598018023 I I #
edge $-1 $542 1.0283221134402645 $307 7.9803922810423984 $429 $549 forward 7 unknown #
point $-1 -43.993041779839473 -7.9803922810423984 4 #
point $-1 -39.505886428343828 -7.9803922810423984 4 #
edge $-1 $550 1 $550 0 $310 $-1 forward 7 unknown #
vertex $-1 $311 $551 #
ellipse-curve $-1 -41.161678844289838 -6.5899782475219713 1.5609283829489375 -0.5877852598018023 0 0.80901698891910034 0.20225424722977509 0 0.14694631495045057 1 I I #
point $-1 -41.547209856861862 -6.5899782475219713 2.5168916868184885 #
edge $-1 $552 1 $552 0 $314 $-1 forward 7 unknown #
vertex $-1 $315 $553 #
ellipse-curve $-1 -41.161678844289838 -4.5043571972413297 1.5609283829489375 -0.5877852598018023 0 0.80901698891910034 0.20225424722977509 0 0.14694631495045057 1 I I #
point $-1 -41.547209856861862 -4.5043571972413297 2.5168916868184885 #
edge $-1 $554 1 $554 0 $318 $-1 forward 7 unknown #
vertex $-1 $319 $555 #
ellipse-curve $-1 -41.161678844289838 -2.4187361469606898 1.5609283829489375 -0.5877852598018023 0 0.80901698891910034 0.20225424722977509 0 0.14694631495045057 1 I I #
point $-1 -41.547209856861862 -2.4187361469606898 2.5168916868184885 #
loop $-1 $-1 $330 $322 #
plane-surface $-1 -43.993041779839473 0 0 1 0 0 0 0 -1 forward_v I I I I #
coedge $-1 $452 $325 $327 $456 reversed $210 $-1 #
coedge $-1 $325 $451 $556 $557 reversed $210 $-1 #
coedge $-1 $333 $328 $325 $454 forward $323 $-1 #
edge $-1 $457 -8.3490959536104015 $558 -3.8619406021147569 $453 $559 forward 7 unknown #
coedge $-1 $327 $326 $460 $560 reversed $132 $-1 #
edge $-1 $561 1.756574927105486e-014 $457 5.5464290774545919 $451 $562 forward 7 unknown #
vertex $-1 $329 $563 #
straight-curve $-1 -39.505886428343828 5.9433652948144253 3.9999999999999991 0 1 0 I I #
coedge $-1 $556 $330 $333 $464 reversed $449 $-1 #
coedge $-1 $330 $556 $455 $560 forward $449 $-1 #
vertex $-1 $331 $564 #
straight-curve $-1 -43.993041779839473 8.4106955058277837 35.961063565985953 0 0 1 I I #
straight-curve $-1 -43.993041779839487 8.4106955058277837 0.73989074373608332 -0.80901698891910034 0 -0.5877852598018023 I I #
edge $-1 $558 -15.362765673429918 $334 -8.4106955058277837 $459 $565 forward 7 unknown #
point $-1 -43.993041779839473 8.4106955058277837 4 #
point $-1 -39.505886428343828 8.4106955058277837 4 #
edge $-1 $566 1 $566 0 $337 $-1 forward 7 unknown #
vertex $-1 $338 $567 #
ellipse-curve $-1 -41.161678844289838 9.8011095393482073 1.5609283829489375 -0.5877852598018023 0 0.80901698891910034 0.20225424722977509 0 0.14694631495045057 1 I I #
point $-1 -41.547209856861862 9.8011095393482073 2.5168916868184885 #
edge $-1 $568 1 $568 0 $341 $-1 forward 7 unknown #
vertex $-1 $342 $569 #
ellipse-curve $-1 -41.161678844289838 11.886730589628851 1.5609283829489375 -0.5877852598018023 0 0.80901698891910034 0.20225424722977509 0 0.14694631495045057 1 I I #
point $-1 -41.547209856861862 11.886730589628851 2.5168916868184885 #
edge $-1 $570 1 $570 0 $345 $-1 forward 7 unknown #
vertex $-1 $346 $571 #
ellipse-curve $-1 -41.161678844289838 13.972351639909494 1.5609283829489375 -0.5877852598018023 0 0.80901698891910034 0.20225424722977509 0 0.14694631495045057 1 I I #
point $-1 -41.547209856861862 13.972351639909494 2.5168916868184885 #
plane-surface $-1 0 0 4 0 0 1 1 0 0 forward_v I I I I #
coedge $-1 $490 $489 $482 $572 forward $350 $-1 #
coedge $-1 $482 $352 $354 $486 reversed $239 $-1 #
coedge $-1 $352 $481 $480 $572 reversed $239 $-1 #
coedge $-1 $360 $355 $352 $484 forward $361 $-1 #
edge $-1 $487 15.643142757581792 $573 18.740409487007867 $483 $574 forward 7 unknown #
coedge $-1 $354 $353 $490 $575 reversed $151 $-1 #
edge $-1 $576 -87.986083559678931 $487 -83.357291000253042 $481 $577 forward 7 unknown #
vertex $-1 $356 $578 #
straight-curve $-1 40.895775050413405 1.9080520143379065 4 0 -1 0 I I #
coedge $-1 $480 $357 $360 $494 reversed $350 $-1 #
coedge $-1 $357 $480 $485 $575 forward $350 $-1 #
vertex $-1 $358 $579 #
straight-curve $-1 43.993041779839473 8.626817962493659 62.410360398576501 0 0 1 I I #
straight-curve $-1 -14.881138854363925 8.626817962493659 65.946540162949589 0.66913059716165679 0 -0.74314483375859142 I I #
edge $-1 $573 -0.99460990514203296 $362 8.626817962493659 $489 $580 forward 7 unknown #
point $-1 43.993041779839473 8.626817962493659 4 #
point $-1 40.895775050413398 8.626817962493659 4 #
edge $-1 $581 1 $581 0 $365 $-1 forward 7 unknown #
vertex $-1 $366 $582 #
ellipse-curve $-1 41.242476483308756 1.7543694856110186 1.1978440160167394 0.74314483375859142 0 0.66913059716165679 0.66913059716165679 0 -0.74314483375859142 1 I I #
point $-1 43.113539012288108 1.7543694856110186 1.5369235277026245 #
edge $-1 $583 1 $583 0 $369 $-1 forward 7 unknown #
vertex $-1 $370 $584 #
ellipse-curve $-1 41.242476483308756 5.8778385717406003 1.1978440160167394 0.74314483375859142 0 0.66913059716165679 0.66913059716165679 0 -0.74314483375859142 1 I I #
point $-1 43.113539012288108 5.8778385717406003 1.5369235277026245 #
plane-surface $-1 43.993041779839473 0 0 -1 0 0 0 0 1 forward_v I I I I #
coedge $-1 $516 $376 $379 $509 reversed $261 $-1 #
edge $-1 $390 -4 $512 4 $389 $585 forward 7 unknown #
straight-curve $-1 43.993041779839473 -18.188901440851321 0 0 0 -1 I I #
edge $-1 $510 -18.188901440851321 $512 18.188901440851321 $506 $586 forward 7 unknown #
vertex $-1 $509 $587 #
straight-curve $-1 0 -18.188901440851321 -4 -1 0 0 I I #
vertex $-1 $382 $588 #
straight-curve $-1 0 18.188901440851321 -4 1 0 0 I I #
point $-1 43.993041779839473 18.188901440851321 -4 #
point $-1 43.993041779839473 -18.188901440851321 -4 #
coedge $-1 $386 $506 $392 $519 reversed $261 $-1 #
straight-curve $-1 -43.993041779839473 0 4 0 -1 0 I I #
point $-1 -43.993041779839473 18.188901440851321 4 #
edge $-1 $393 -4 $510 4 $516 $589 forward 7 unknown #
point $-1 -43.993041779839473 -18.188901440851321 4 #
straight-curve $-1 43.993041779839473 18.188901440851321 0 0 0 -1 I I #
plane-surface $-1 -43.993041779839473 0 0 1 0 0 0 0 -1 forward_v I I I I #
coedge $-1 $525 $534 $529 $590 forward $399 $-1 #
coedge $-1 $402 $401 $591 $592 forward $173 $-1 #
coedge $-1 $591 $523 $403 $526 reversed $399 $-1 #
edge $-1 $527 -43.993041779839473 $530 43.993041779839473 $525 $593 forward 7 unknown #
vertex $-1 $592 $594 #
straight-curve $-1 43.993041779839473 0 -4 0 -1 0 I I #
coedge $-1 $411 $405 $523 $590 reversed $412 $-1 #
vertex $-1 $406 $595 #
straight-curve $-1 -43.993041779839473 0 -4 0 1 0 I I #
point $-1 -43.993041779839473 -18.188901440851321 -4 #
point $-1 43.993041779839473 -18.188901440851321 -4 #
coedge $-1 $523 $591 $414 $535 reversed $399 $-1 #
edge $-1 $536 -43.993041779839473 $538 43.993041779839473 $534 $596 forward 7 unknown #
vertex $-1 $415 $597 #
straight-curve $-1 -43.993041779839473 -19.986715094832462 -1 0 -1 0 I I #
vertex $-1 $416 $598 #
straight-curve $-1 43.993041779839473 -19.986715094832462 -1 0 1 0 I I #
coedge $-1 $430 $429 $422 $541 forward $419 $-1 #
edge $-1 $542 31.961063565985953 $545 35.221172822249862 $540 $599 forward 7 unknown #
vertex $-1 $434 $600 #
straight-curve $-1 -47.85498238195423 -1.0283221134402645 4 -1 0 0 I I #
edge $-1 $545 -1.2238564851804012 $431 5.7282136824217327 $430 $601 forward 7 unknown #
vertex $-1 $544 $602 #
straight-curve $-1 -43.993041779839487 -1.0283221134402645 0.73989074373608332 0.80901698891910034 0 0.5877852598018023 I I #
point $-1 -39.505886428343828 -1.0283221134402645 4 #
point $-1 -43.993041779839473 -7.9803922810423984 0.73989074373609365 #
straight-curve $-1 -43.993041779839473 0 4 0 -1 0 I I #
vertex $-1 $437 $603 #
point $-1 -40.959424597060064 -6.5899782475219713 1.707874697899388 #
vertex $-1 $441 $604 #
point $-1 -40.959424597060064 -4.5043571972413297 1.707874697899388 #
vertex $-1 $445 $605 #
point $-1 -40.959424597060064 -2.4187361469606898 1.707874697899388 #
coedge $-1 $460 $459 $452 $557 forward $449 $-1 #
edge $-1 $558 31.961063565985953 $561 35.221172822249862 $556 $606 forward 7 unknown #
vertex $-1 $464 $607 #
straight-curve $-1 -47.85498238195423 15.362765673429918 4 -1 0 0 I I #
edge $-1 $561 -9.4194003786154923 $461 -2.4673302110133584 $460 $608 forward 7 unknown #
vertex $-1 $560 $609 #
straight-curve $-1 -43.993041779839487 15.362765673429918 0.73989074373608332 0.80901698891910034 0 0.5877852598018023 I I #
point $-1 -39.505886428343828 15.362765673429918 4 #
point $-1 -43.993041779839473 8.4106955058277837 0.73989074373609365 #
straight-curve $-1 -43.993041779839473 0 4 0 -1 0 I I #
vertex $-1 $467 $610 #
point $-1 -40.959424597060064 9.8011095393482073 1.707874697899388 #
vertex $-1 $471 $611 #
point $-1 -40.959424597060064 11.886730589628851 1.707874697899388 #
vertex $-1 $475 $612 #
point $-1 -40.959424597060064 13.972351639909494 1.707874697899388 #
edge $-1 $573 58.410360398576501 $576 61.85022367565405 $480 $613 forward 7 unknown #
vertex $-1 $494 $614 #
straight-curve $-1 25.252632292831606 -0.99460990514203296 4 1 0 0 I I #
edge $-1 $576 -2.9026619194799395 $491 6.7187659481557525 $490 $615 forward 7 unknown #
vertex $-1 $575 $616 #
straight-curve $-1 -14.881138854363925 -0.99460990514203296 65.946540162949589 -0.66913059716165679 0 0.74314483375859142 I I #
point $-1 40.895775050413398 -0.99460990514203296 4 #
point $-1 43.993041779839473 8.626817962493659 0.56013672292245076 #
straight-curve $-1 43.993041779839473 0 4 0 1 0 I I #
vertex $-1 $497 $617 #
point $-1 41.911607080470411 1.7543694856110186 0.45469918225814787 #
vertex $-1 $501 $618 #
point $-1 41.911607080470411 5.8778385717406003 0.45469918225814787 #
straight-curve $-1 -43.993041779839473 18.188901440851321 0 0 0 -1 I I #
straight-curve $-1 -43.993041779839473 0 -4 0 1 0 I I #
point $-1 -43.993041779839473 -18.188901440851321 -4 #
point $-1 -43.993041779839473 18.188901440851321 -4 #
straight-curve $-1 -43.993041779839473 -18.188901440851321 0 0 0 -1 I I #
edge $-1 $536 -1.5 $530 1.5 $529 $619 forward 7 unknown #
coedge $-1 $534 $525 $524 $592 reversed $399 $-1 #
edge $-1 $538 -1.5 $527 1.5 $524 $620 forward 7 unknown #
straight-curve $-1 0 -21.784528748813603 -4 -1 0 0 I I #
point $-1 43.993041779839473 -21.784528748813603 -4 #
point $-1 -43.993041779839473 -21.784528748813603 -4 #
straight-curve $-1 0 -21.784528748813603 -1 1 0 0 I I #
point $-1 -43.993041779839473 -21.784528748813603 -1 #
point $-1 43.993041779839473 -21.784528748813603 -1 #
straight-curve $-1 -43.993041779839473 -1.0283221134402645 35.961063565985953 0 0 -1 I I #
point $-1 -43.993041779839473 -1.0283221134402645 4 #
straight-curve $-1 -43.993041779839473 -2.2521785986206657 0.73989074373609309 0 -1 0 I I #
point $-1 -43.993041779839473 -1.0283221134402645 0.73989074373609365 #
point $-1 -41.014732529339383 -6.5899782475219713 1.3586741357191623 #
point $-1 -41.014732529339383 -4.5043571972413297 1.3586741357191623 #
point $-1 -41.014732529339383 -2.4187361469606898 1.3586741357191623 #
straight-curve $-1 -43.993041779839473 15.362765673429918 35.961063565985953 0 0 -1 I I #
point $-1 -43.993041779839473 15.362765673429918 4 #
straight-curve $-1 -43.993041779839473 5.9433652948144253 0.73989074373609309 0 -1 0 I I #
point $-1 -43.993041779839473 15.362765673429918 0.73989074373609365 #
point $-1 -41.014732529339383 9.8011095393482073 1.3586741357191623 #
point $-1 -41.014732529339383 11.886730589628851 1.3586741357191623 #
point $-1 -41.014732529339383 13.972351639909494 1.3586741357191623 #
straight-curve $-1 43.993041779839473 -0.99460990514203296 62.410360398576501 0 0 -1 I I #
point $-1 43.993041779839473 -0.99460990514203296 4 #
straight-curve $-1 43.993041779839473 1.9080520143379065 0.56013672292245076 0 1 0 I I #
point $-1 43.993041779839473 -0.99460990514203296 0.56013672292245076 #
point $-1 40.499331649550165 1.7543694856110186 0.5287134188550825 #
point $-1 40.499331649550165 5.8778385717406003 0.5287134188550825 #
straight-curve $-1 -43.993041779839473 -21.784528748813603 -2.5 0 0 -1 I I #
straight-curve $-1 43.993041779839473 -21.784528748813603 -2.5 0 0 -1 I I #
End-of-ACIS-data 