500 0 4 0           
7 Unknown 11 ACIS 5.0 NT 24 Thu Mar 25 18:43:53 1999 
-1 9.9999999999999995e-007 1e-010 
body $-1 $4 $-1 $5 #
body $-1 $6 $-1 $7 #
body $-1 $8 $-1 $9 #
body $-1 $10 $-1 $11 #
lump $-1 $-1 $12 $0 #
transform $-1 1 0 0 0 1 0 0 0 1 60.527970213934751 29.873666795672342 12.116672458505342 1 rotate no_reflect no_shear #
lump $-1 $-1 $13 $1 #
transform $-1 1 0 0 0 1 0 0 0 1 60.527970213934751 29.873666795672342 12.116672458505342 1 rotate no_reflect no_shear #
lump $-1 $-1 $14 $2 #
transform $-1 1 0 0 0 1 0 0 0 1 60.527970213934751 29.873666795672342 12.116672458505342 1 rotate no_reflect no_shear #
lump $-1 $-1 $15 $3 #
transform $-1 1 0 0 0 1 0 0 0 1 60.527970213934751 29.873666795672342 12.116672458505342 1 rotate no_reflect no_shear #
shell $-1 $-1 $-1 $16 $-1 $4 #
shell $-1 $-1 $-1 $17 $-1 $6 #
shell $-1 $-1 $-1 $18 $-1 $8 #
shell $-1 $-1 $-1 $19 $-1 $10 #
face $-1 $20 $21 $12 $-1 $22 forward single #
face $-1 $23 $24 $13 $-1 $25 forward single #
face $-1 $26 $27 $14 $-1 $28 reversed single #
face $-1 $29 $30 $15 $-1 $31 forward single #
face $-1 $32 $33 $12 $-1 $34 reversed single #
loop $-1 $-1 $35 $16 #
plane-surface $-1 0 0 12.116672458505342 0 0 1 1 0 0 forward_v I I I I #
face $-1 $36 $37 $13 $-1 $38 reversed single #
loop $-1 $-1 $39 $17 #
plane-surface $-1 0 -29.873666795672342 0 0 1 0 0 0 1 forward_v I I I I #
face $-1 $40 $41 $14 $-1 $42 reversed single #
loop $-1 $-1 $43 $18 #
plane-surface $-1 -139.94781391038359 -0.37596032037655647 94.840474283916507 0 1 0 -0.6560590369687036 0 0.75470957328743171 forward_v I I I I #
face $-1 $44 $45 $15 $-1 $46 forward single #
loop $-1 $47 $48 $19 #
cone-surface $-1 -54.399599707670241 6.1396945508217584 6.4633707916307461 0.6560590369687036 0 -0.75470957328743171 1.5094191465748634 0 1.3121180739374072 1 I I 0 1 2 forward I I I I #
face $-1 $49 $50 $12 $-1 $51 reversed single #
loop $-1 $-1 $52 $20 #
plane-surface $-1 0 0 -12.116672458505342 0 0 1 1 0 0 forward_v I I I I #
coedge $-1 $53 $54 $55 $56 forward $21 $-1 #
face $-1 $57 $58 $13 $-1 $59 reversed single #
loop $-1 $-1 $60 $23 #
plane-surface $-1 0 0 -12.116672458505342 0 0 1 1 0 0 forward_v I I I I #
coedge $-1 $61 $62 $63 $64 forward $24 $-1 #
face $-1 $65 $66 $14 $-1 $67 reversed single #
loop $-1 $-1 $68 $26 #
plane-surface $-1 -60.527970213934765 6.1396945508217584 3.4783971396903581 -0.6560590369687036 0 0.75470957328743171 0.75470957328743171 0 0.6560590369687036 forward_v I I I I #
coedge $-1 $69 $70 $71 $72 reversed $27 $-1 #
face $-1 $-1 $73 $15 $-1 $74 forward single #
loop $-1 $75 $76 $29 #
cone-surface $-1 -52.583769568177289 6.1396945508217584 4.3744972108762141 0.6560590369687036 0 -0.75470957328743171 0.75470957328743171 0 0.6560590369687036 1 I I -0.70710678118654746 0.70710678118654746 1 forward I I I I #
loop $-1 $-1 $77 $19 #
coedge $-1 $48 $48 $78 $79 reversed $30 $-1 #
face $-1 $80 $81 $12 $-1 $82 reversed single #
loop $-1 $-1 $83 $32 #
plane-surface $-1 0 -29.873666795672342 0 0 1 0 0 0 1 forward_v I I I I #
coedge $-1 $84 $85 $86 $87 forward $33 $-1 #
coedge $-1 $88 $35 $89 $90 forward $21 $-1 #
coedge $-1 $35 $88 $91 $92 forward $21 $-1 #
coedge $-1 $93 $94 $35 $56 reversed $95 $-1 #
edge $-1 $96 -29.873666795672342 $97 29.873666795672342 $55 $98 forward 7 unknown #
face $-1 $99 $100 $13 $-1 $101 reversed single #
loop $-1 $-1 $102 $36 #
plane-surface $-1 -56.420377820793753 -43.939382952436326 0 0 1 0 0 0 1 forward_v I I I I #
coedge $-1 $103 $104 $62 $105 forward $37 $-1 #
coedge $-1 $106 $39 $107 $108 reversed $24 $-1 #
coedge $-1 $39 $106 $60 $105 reversed $24 $-1 #
coedge $-1 $109 $110 $39 $64 reversed $100 $-1 #
edge $-1 $111 -12.116672458505342 $112 12.116672458505342 $63 $113 forward 7 unknown #
face $-1 $114 $115 $14 $-1 $116 reversed single #
loop $-1 $-1 $117 $40 #
plane-surface $-1 -139.94781391038359 12.655349422020073 94.840474283916507 0 -1 0 0.6560590369687036 0 -0.75470957328743171 forward_v I I I I #
coedge $-1 $118 $119 $120 $121 reversed $41 $-1 #
coedge $-1 $70 $43 $122 $123 reversed $27 $-1 #
coedge $-1 $43 $69 $118 $124 reversed $27 $-1 #
coedge $-1 $120 $125 $43 $72 forward $126 $-1 #
edge $-1 $127 9.445936741257043 $128 19.383135548737535 $71 $129 forward 7 unknown #
loop $-1 $-1 $78 $44 #
plane-surface $-1 -60.527970213934765 6.1396945508217584 3.4783971396903581 -0.6560590369687036 0 0.75470957328743171 0.75470957328743171 0 0.6560590369687036 forward_v I I I I #
loop $-1 $-1 $130 $29 #
coedge $-1 $76 $76 $77 $131 reversed $45 $-1 #
coedge $-1 $77 $77 $76 $131 forward $47 $-1 #
coedge $-1 $78 $78 $48 $79 forward $73 $-1 #
edge $-1 $132 0 $132 6.2831853071796004 $78 $133 forward 7 unknown #
face $-1 $134 $135 $12 $-1 $136 reversed single #
loop $-1 $-1 $137 $49 #
plane-surface $-1 -60.527970213934751 0 0 1 0 0 0 0 -1 forward_v I I I I #
coedge $-1 $138 $91 $139 $140 forward $50 $-1 #
coedge $-1 $141 $52 $138 $142 forward $33 $-1 #
coedge $-1 $52 $141 $143 $144 forward $33 $-1 #
coedge $-1 $94 $93 $52 $87 reversed $95 $-1 #
edge $-1 $145 -29.873666795672342 $146 29.873666795672342 $86 $147 forward 7 unknown #
coedge $-1 $54 $53 $148 $149 forward $21 $-1 #
coedge $-1 $150 $151 $53 $90 reversed $135 $-1 #
edge $-1 $97 -60.527970213934751 $152 60.527970213934751 $89 $153 forward 7 unknown #
coedge $-1 $83 $154 $54 $92 reversed $50 $-1 #
edge $-1 $155 -60.527970213934751 $96 60.527970213934751 $91 $156 forward 7 unknown #
coedge $-1 $86 $55 $154 $157 forward $95 $-1 #
coedge $-1 $55 $86 $150 $158 reversed $95 $-1 #
loop $-1 $-1 $93 $134 #
vertex $-1 $56 $159 #
vertex $-1 $56 $160 #
straight-curve $-1 60.527970213934751 0 12.116672458505342 0 1 0 I I #
face $-1 $161 $162 $13 $-1 $163 reversed single #
loop $-1 $-1 $63 $57 #
plane-surface $-1 -57.920377820793753 -36.906524874054334 0 1 0 0 0 0 -1 forward_v I I I I #
coedge $-1 $164 $165 $166 $167 forward $58 $-1 #
coedge $-1 $168 $60 $169 $170 forward $37 $-1 #
coedge $-1 $60 $168 $109 $171 forward $37 $-1 #
edge $-1 $111 -57.920377820793753 $172 -54.920377820793753 $60 $173 forward 7 unknown #
coedge $-1 $62 $61 $174 $175 forward $24 $-1 #
coedge $-1 $176 $177 $61 $108 forward $178 $-1 #
edge $-1 $179 54.920377820793753 $112 57.920377820793753 $107 $180 forward 7 unknown #
coedge $-1 $166 $63 $104 $171 reversed $100 $-1 #
coedge $-1 $63 $166 $176 $181 reversed $100 $-1 #
vertex $-1 $105 $182 #
vertex $-1 $181 $183 #
straight-curve $-1 -57.920377820793753 -29.873666795672342 0 0 0 1 I I #
face $-1 $-1 $126 $14 $-1 $184 forward single #
loop $-1 $-1 $185 $65 #
plane-surface $-1 -60.527970213934751 0 0 1 0 0 0 0 -1 forward_v I I I I #
coedge $-1 $186 $187 $188 $189 reversed $66 $-1 #
coedge $-1 $190 $68 $70 $124 forward $41 $-1 #
coedge $-1 $68 $190 $186 $191 forward $41 $-1 #
coedge $-1 $188 $71 $68 $121 forward $126 $-1 #
edge $-1 $128 -3.4458075957874357 $192 9.5855021466091941 $120 $193 forward 7 unknown #
coedge $-1 $194 $195 $69 $123 forward $115 $-1 #
edge $-1 $196 -43.941840002267881 $127 -35.303564683452912 $122 $197 forward 7 unknown #
edge $-1 $128 -13.166917658398267 $196 -1.888283279974768e-014 $70 $198 forward 7 unknown #
coedge $-1 $71 $188 $194 $199 forward $126 $-1 #
loop $-1 $-1 $188 $114 #
vertex $-1 $123 $200 #
vertex $-1 $72 $201 #
straight-curve $-1 -69.973906955191794 -0.37596032037655647 12.116672458505342 1 0 0 I I #
coedge $-1 $130 $130 $-1 $202 reversed $75 $-1 #
edge $-1 $203 0 $203 6.2831853071796004 $76 $204 forward 7 unknown #
vertex $-1 $79 $205 #
ellipse-curve $-1 -55.559370810194501 6.1396945508217584 7.7975347990978587 -0.6560590369687036 0 0.75470957328743171 1.5094191465748634 0 1.3121180739374072 1 I I #
face $-1 $-1 $95 $12 $-1 $206 reversed single #
loop $-1 $-1 $150 $80 #
plane-surface $-1 0 29.873666795672342 0 0 -1 0 0 0 -1 forward_v I I I I #
coedge $-1 $207 $148 $151 $208 forward $81 $-1 #
coedge $-1 $154 $83 $84 $142 reversed $50 $-1 #
coedge $-1 $148 $207 $83 $140 reversed $81 $-1 #
edge $-1 $155 -12.116672458505342 $209 12.116672458505342 $139 $210 forward 7 unknown #
coedge $-1 $85 $84 $207 $211 forward $33 $-1 #
edge $-1 $146 -60.527970213934751 $209 60.527970213934751 $138 $212 forward 7 unknown #
coedge $-1 $151 $150 $85 $144 reversed $135 $-1 #
edge $-1 $213 -60.527970213934751 $145 60.527970213934751 $143 $214 forward 7 unknown #
vertex $-1 $87 $215 #
vertex $-1 $157 $216 #
straight-curve $-1 60.527970213934751 0 -12.116672458505342 0 -1 0 I I #
coedge $-1 $137 $139 $88 $149 reversed $81 $-1 #
edge $-1 $152 -29.873666795672342 $155 29.873666795672342 $148 $217 forward 7 unknown #
coedge $-1 $143 $89 $94 $158 forward $135 $-1 #
coedge $-1 $89 $143 $137 $208 reversed $135 $-1 #
vertex $-1 $90 $218 #
straight-curve $-1 0 29.873666795672342 12.116672458505342 -1 0 0 I I #
coedge $-1 $91 $138 $93 $157 reversed $50 $-1 #
vertex $-1 $149 $219 #
straight-curve $-1 0 -29.873666795672342 12.116672458505342 1 0 0 I I #
edge $-1 $96 -12.116672458505342 $146 12.116672458505342 $93 $220 forward 7 unknown #
edge $-1 $97 -12.116672458505342 $145 12.116672458505342 $94 $221 forward 7 unknown #
point $-1 60.527970213934751 -29.873666795672342 12.116672458505342 #
point $-1 60.527970213934751 29.873666795672342 12.116672458505342 #
face $-1 $-1 $178 $13 $-1 $222 forward single #
loop $-1 $-1 $223 $99 #
plane-surface $-1 -54.920377820793753 -36.906524874054334 0 -1 0 0 0 0 1 forward_v I I I I #
coedge $-1 $224 $102 $168 $225 reversed $58 $-1 #
coedge $-1 $102 $224 $226 $227 reversed $58 $-1 #
coedge $-1 $110 $109 $102 $167 reversed $100 $-1 #
edge $-1 $228 -12.116672458505342 $229 12.116672458505342 $166 $230 forward 7 unknown #
coedge $-1 $104 $103 $164 $225 forward $37 $-1 #
coedge $-1 $174 $223 $103 $170 reversed $162 $-1 #
edge $-1 $172 -7.0328580783819916 $231 7.0328580783819916 $169 $232 forward 7 unknown #
edge $-1 $229 -7.0328580783819916 $111 7.0328580783819916 $109 $233 forward 7 unknown #
vertex $-1 $170 $234 #
straight-curve $-1 0 -29.873666795672342 -12.116672458505342 1 0 0 I I #
coedge $-1 $235 $169 $106 $175 reversed $162 $-1 #
edge $-1 $179 -12.116672458505342 $172 12.116672458505342 $174 $236 forward 7 unknown #
coedge $-1 $226 $107 $110 $181 forward $178 $-1 #
coedge $-1 $107 $226 $235 $237 forward $178 $-1 #
loop $-1 $-1 $107 $161 #
vertex $-1 $108 $238 #
straight-curve $-1 0 -29.873666795672342 12.116672458505342 -1 0 0 I I #
edge $-1 $112 -7.0328580783819916 $228 7.0328580783819916 $110 $239 forward 7 unknown #
point $-1 -57.920377820793753 -29.873666795672342 -12.116672458505342 #
point $-1 -57.920377820793753 -29.873666795672342 12.116672458505342 #
plane-surface $-1 0 0 12.116672458505342 0 0 1 1 0 0 forward_v I I I I #
coedge $-1 $195 $194 $187 $240 forward $115 $-1 #
coedge $-1 $187 $117 $119 $191 reversed $66 $-1 #
coedge $-1 $117 $186 $185 $240 reversed $66 $-1 #
coedge $-1 $125 $120 $117 $189 forward $126 $-1 #
edge $-1 $192 -19.383135548737535 $241 -9.445936741257043 $188 $242 forward 7 unknown #
coedge $-1 $119 $118 $195 $243 reversed $41 $-1 #
edge $-1 $244 1.888283279974768e-014 $192 13.166917658398267 $186 $245 forward 7 unknown #
vertex $-1 $121 $246 #
straight-curve $-1 -50.590771406454266 3.0698472754108792 12.116672458505343 0 1 0 I I #
coedge $-1 $185 $122 $125 $199 reversed $115 $-1 #
coedge $-1 $122 $185 $190 $243 forward $115 $-1 #
vertex $-1 $123 $247 #
straight-curve $-1 -60.527970213934751 -0.37596032037655647 47.420237141958253 0 0 1 I I #
straight-curve $-1 -60.527970213934765 -0.37596032037655647 3.4783971396903581 -0.75470957328743171 0 -0.6560590369687036 I I #
edge $-1 $241 -12.655349422020073 $127 0.37596032037655647 $194 $248 forward 7 unknown #
point $-1 -60.527970213934751 -0.37596032037655647 12.116672458505342 #
point $-1 -50.590771406454259 -0.37596032037655647 12.116672458505342 #
edge $-1 $249 1 $249 0 $130 $-1 forward 7 unknown #
vertex $-1 $131 $250 #
ellipse-curve $-1 -53.239828605145995 6.1396945508217584 5.1292067841636459 -0.6560590369687036 0 0.75470957328743171 1.5094191465748634 0 1.3121180739374072 1 I I #
point $-1 -54.04995166361963 6.1396945508217584 9.1096528730352535 #
plane-surface $-1 60.527970213934751 0 0 -1 0 0 0 0 1 forward_v I I I I #
coedge $-1 $139 $137 $141 $211 reversed $81 $-1 #
edge $-1 $152 -12.116672458505342 $213 12.116672458505342 $151 $251 forward 7 unknown #
vertex $-1 $211 $252 #
straight-curve $-1 -60.527970213934751 -29.873666795672342 0 0 0 -1 I I #
edge $-1 $209 -29.873666795672342 $213 29.873666795672342 $207 $253 forward 7 unknown #
straight-curve $-1 0 -29.873666795672342 -12.116672458505342 -1 0 0 I I #
vertex $-1 $144 $254 #
straight-curve $-1 0 29.873666795672342 -12.116672458505342 1 0 0 I I #
point $-1 60.527970213934751 29.873666795672342 -12.116672458505342 #
point $-1 60.527970213934751 -29.873666795672342 -12.116672458505342 #
straight-curve $-1 -60.527970213934751 0 12.116672458505342 0 -1 0 I I #
point $-1 -60.527970213934751 29.873666795672342 12.116672458505342 #
point $-1 -60.527970213934751 -29.873666795672342 12.116672458505342 #
straight-curve $-1 60.527970213934751 -29.873666795672342 0 0 0 -1 I I #
straight-curve $-1 60.527970213934751 29.873666795672342 0 0 0 -1 I I #
plane-surface $-1 0 0 12.116672458505342 0 0 1 1 0 0 forward_v I I I I #
coedge $-1 $169 $235 $224 $255 forward $162 $-1 #
coedge $-1 $165 $164 $223 $255 reversed $58 $-1 #
edge $-1 $231 -1.5 $229 1.5 $164 $256 forward 7 unknown #
coedge $-1 $177 $176 $165 $227 forward $178 $-1 #
edge $-1 $228 -1.5 $257 1.5 $165 $258 forward 7 unknown #
vertex $-1 $181 $259 #
vertex $-1 $171 $260 #
straight-curve $-1 -57.920377820793753 -43.939382952436326 0 0 0 -1 I I #
vertex $-1 $255 $261 #
straight-curve $-1 -54.920377820793753 -36.906524874054334 -12.116672458505342 0 -1 0 I I #
straight-curve $-1 -57.920377820793753 -36.906524874054334 -12.116672458505342 0 1 0 I I #
point $-1 -54.920377820793753 -29.873666795672342 -12.116672458505342 #
coedge $-1 $223 $174 $177 $237 reversed $162 $-1 #
straight-curve $-1 -54.920377820793753 -29.873666795672342 0 0 0 -1 I I #
edge $-1 $257 -7.0328580783819916 $179 7.0328580783819916 $235 $262 forward 7 unknown #
point $-1 -54.920377820793753 -29.873666795672342 12.116672458505342 #
straight-curve $-1 -57.920377820793753 -36.906524874054334 12.116672458505342 0 -1 0 I I #
edge $-1 $241 35.303564683452912 $244 43.941840002267881 $185 $263 forward 7 unknown #
vertex $-1 $199 $264 #
straight-curve $-1 -69.973906955191794 12.655349422020073 12.116672458505342 -1 0 0 I I #
edge $-1 $244 -9.5855021466091941 $196 3.4458075957874357 $195 $265 forward 7 unknown #
vertex $-1 $243 $266 #
straight-curve $-1 -60.527970213934765 12.655349422020073 3.4783971396903581 0.75470957328743171 0 0.6560590369687036 I I #
point $-1 -50.590771406454259 12.655349422020073 12.116672458505342 #
point $-1 -60.527970213934751 -0.37596032037655647 3.4783971396903706 #
straight-curve $-1 -60.527970213934751 0 12.116672458505342 0 -1 0 I I #
vertex $-1 $202 $267 #
point $-1 -51.730409458571131 6.1396945508217584 6.4413248581010532 #
straight-curve $-1 -60.527970213934751 29.873666795672342 0 0 0 -1 I I #
point $-1 -60.527970213934751 -29.873666795672342 -12.116672458505342 #
straight-curve $-1 -60.527970213934751 0 -12.116672458505342 0 1 0 I I #
point $-1 -60.527970213934751 29.873666795672342 -12.116672458505342 #
edge $-1 $257 -12.116672458505342 $231 12.116672458505342 $223 $268 forward 7 unknown #
straight-curve $-1 -56.420377820793753 -43.939382952436326 -12.116672458505342 -1 0 0 I I #
vertex $-1 $237 $269 #
straight-curve $-1 -56.420377820793753 -43.939382952436326 12.116672458505342 1 0 0 I I #
point $-1 -57.920377820793753 -43.939382952436326 12.116672458505342 #
point $-1 -57.920377820793753 -43.939382952436326 -12.116672458505342 #
point $-1 -54.920377820793753 -43.939382952436326 -12.116672458505342 #
straight-curve $-1 -54.920377820793753 -36.906524874054334 12.116672458505342 0 1 0 I I #
straight-curve $-1 -60.527970213934751 12.655349422020073 47.420237141958253 0 0 -1 I I #
point $-1 -60.527970213934751 12.655349422020073 12.116672458505342 #
straight-curve $-1 -60.527970213934751 3.0698472754108792 3.4783971396903732 0 -1 0 I I #
point $-1 -60.527970213934751 12.655349422020073 3.4783971396903706 #
point $-1 -51.927710531208582 6.1396945508217584 3.6197876375887823 #
straight-curve $-1 -54.920377820793753 -43.939382952436326 0 0 0 -1 I I #
point $-1 -54.920377820793753 -43.939382952436326 12.116672458505342 #
End-of-ACIS-data 