500 0 8 0           
7 Unknown 11 ACIS 5.0 NT 24 Fri Mar 26 02:34:50 1999 
-1 9.9999999999999995e-007 1e-010 
body $-1 $8 $-1 $9 #
body $-1 $10 $-1 $11 #
body $-1 $12 $-1 $13 #
body $-1 $14 $-1 $15 #
body $-1 $16 $-1 $17 #
body $-1 $18 $-1 $19 #
body $-1 $20 $-1 $21 #
body $-1 $22 $-1 $23 #
lump $-1 $-1 $24 $0 #
transform $-1 1 0 0 0 1 0 0 0 1 79.634998626667084 51.253957122638852 22.625133134089094 1 rotate no_reflect no_shear #
lump $-1 $-1 $25 $1 #
transform $-1 1 0 0 0 1 0 0 0 1 79.634998626667084 51.253957122638852 22.625133134089094 1 rotate no_reflect no_shear #
lump $-1 $-1 $26 $2 #
transform $-1 1 0 0 0 1 0 0 0 1 79.634998626667084 51.253957122638852 22.625133134089094 1 rotate no_reflect no_shear #
lump $-1 $-1 $27 $3 #
transform $-1 1 0 0 0 1 0 0 0 1 79.634998626667084 51.253957122638852 22.625133134089094 1 rotate no_reflect no_shear #
lump $-1 $-1 $28 $4 #
transform $-1 1 0 0 0 1 0 0 0 1 79.634998626667084 51.253957122638852 22.625133134089094 1 rotate no_reflect no_shear #
lump $-1 $-1 $29 $5 #
transform $-1 1 0 0 0 1 0 0 0 1 79.634998626667084 51.253957122638852 22.625133134089094 1 rotate no_reflect no_shear #
lump $-1 $-1 $30 $6 #
transform $-1 1 0 0 0 1 0 0 0 1 79.634998626667084 51.253957122638852 22.625133134089094 1 rotate no_reflect no_shear #
lump $-1 $-1 $31 $7 #
transform $-1 1 0 0 0 1 0 0 0 1 79.634998626667084 51.253957122638852 22.625133134089094 1 rotate no_reflect no_shear #
shell $-1 $-1 $-1 $32 $-1 $8 #
shell $-1 $-1 $-1 $33 $-1 $10 #
shell $-1 $-1 $-1 $34 $-1 $12 #
shell $-1 $-1 $-1 $35 $-1 $14 #
shell $-1 $-1 $-1 $36 $-1 $16 #
shell $-1 $-1 $-1 $37 $-1 $18 #
shell $-1 $-1 $-1 $38 $-1 $20 #
shell $-1 $-1 $-1 $39 $-1 $22 #
face $-1 $40 $41 $24 $-1 $42 forward single #
face $-1 $43 $44 $25 $-1 $45 forward single #
face $-1 $46 $47 $26 $-1 $48 reversed single #
face $-1 $49 $50 $27 $-1 $51 forward single #
face $-1 $52 $53 $28 $-1 $54 forward single #
face $-1 $55 $56 $29 $-1 $57 reversed single #
face $-1 $58 $59 $30 $-1 $60 forward single #
face $-1 $61 $62 $31 $-1 $63 forward single #
face $-1 $64 $65 $24 $-1 $66 reversed single #
loop $-1 $-1 $67 $32 #
plane-surface $-1 0 0 22.625133134089094 0 0 1 1 0 0 forward_v I I I I #
face $-1 $68 $69 $25 $-1 $70 reversed single #
loop $-1 $-1 $71 $33 #
plane-surface $-1 -71.094571887887156 0 -9.6424896753113636 0 0 1 1 0 0 forward_v I I I I #
face $-1 $72 $73 $26 $-1 $74 reversed single #
loop $-1 $-1 $75 $34 #
plane-surface $-1 -62.554145149107228 -173.2618547939436 116.44623945878602 1 0 0 0 0.7660444514056185 -0.64278759981090561 forward_v I I I I #
face $-1 $76 $77 $27 $-1 $78 forward single #
loop $-1 $79 $80 $35 #
cone-surface $-1 -53.731399564282889 -46.107322280801093 17.040731364817852 0 0.7660444514056185 -0.64278759981090561 2 0 0 1 I I 0 1 2 forward I I I I #
face $-1 $81 $82 $28 $-1 $83 forward single #
loop $-1 $84 $85 $36 #
cone-surface $-1 -40.497281187046369 -46.107322280801093 17.040731364817852 0 0.7660444514056185 -0.64278759981090561 2 0 0 1 I I 0 1 2 forward I I I I #
face $-1 $86 $87 $29 $-1 $88 reversed single #
loop $-1 $-1 $89 $37 #
plane-surface $-1 -62.554145149107228 107.3710386345994 194.97185839154398 1 0 0 0 -0.7660444514056185 -0.64278759981090561 forward_v I I I I #
face $-1 $90 $91 $30 $-1 $92 forward single #
loop $-1 $93 $94 $38 #
cone-surface $-1 -53.731399564282889 46.107322280801078 17.040731364817852 0 -0.7660444514056185 -0.64278759981090561 2 0 0 1 I I 0 1 2 forward I I I I #
face $-1 $95 $96 $31 $-1 $97 forward single #
loop $-1 $98 $99 $39 #
cone-surface $-1 -40.497281187046369 46.107322280801078 17.040731364817852 0 -0.7660444514056185 -0.64278759981090561 2 0 0 1 I I 0 1 2 forward I I I I #
face $-1 $100 $101 $24 $-1 $102 reversed single #
loop $-1 $-1 $103 $40 #
plane-surface $-1 0 0 -22.625133134089094 0 0 1 1 0 0 forward_v I I I I #
coedge $-1 $104 $105 $106 $107 forward $41 $-1 #
face $-1 $108 $109 $25 $-1 $110 reversed single #
loop $-1 $-1 $111 $43 #
plane-surface $-1 -62.554145149107228 0 -16.133811404700229 -1 0 0 0 0 1 forward_v I I I I #
coedge $-1 $112 $113 $114 $115 forward $44 $-1 #
face $-1 $116 $117 $26 $-1 $118 reversed single #
loop $-1 $-1 $119 $46 #
plane-surface $-1 -47.114340375664625 -51.253957122638866 14.06946020242583 0 -0.7660444514056185 0.64278759981090561 1 0 0 forward_v I I I I #
coedge $-1 $120 $121 $122 $123 reversed $47 $-1 #
face $-1 $-1 $124 $27 $-1 $125 forward single #
loop $-1 $126 $127 $49 #
cone-surface $-1 -53.731399564282889 -43.784173894295535 15.091378461567341 0 0.7660444514056185 -0.64278759981090561 1 0 0 1 I I -0.70710678118654746 0.70710678118654746 1 forward I I I I #
loop $-1 $-1 $128 $35 #
coedge $-1 $80 $80 $129 $130 reversed $50 $-1 #
face $-1 $-1 $131 $28 $-1 $132 forward single #
loop $-1 $133 $134 $52 #
cone-surface $-1 -40.497281187046369 -43.784173894295535 15.091378461567341 0 0.7660444514056185 -0.64278759981090561 1 0 0 1 I I -0.70710678118654746 0.70710678118654746 1 forward I I I I #
loop $-1 $-1 $135 $36 #
coedge $-1 $85 $85 $136 $137 reversed $53 $-1 #
face $-1 $138 $139 $29 $-1 $140 reversed single #
loop $-1 $-1 $141 $55 #
plane-surface $-1 -47.114340375664625 -14.636859036705332 92.595079135183781 0 0.7660444514056185 0.64278759981090561 1 0 0 forward_v I I I I #
coedge $-1 $142 $143 $144 $145 reversed $56 $-1 #
face $-1 $-1 $146 $30 $-1 $147 forward single #
loop $-1 $148 $149 $58 #
cone-surface $-1 -53.731399564282889 43.78417389429552 15.091378461567341 0 -0.7660444514056185 -0.64278759981090561 1 0 0 1 I I -0.70710678118654746 0.70710678118654746 1 forward I I I I #
loop $-1 $-1 $150 $38 #
coedge $-1 $94 $94 $151 $152 reversed $59 $-1 #
face $-1 $-1 $153 $31 $-1 $154 forward single #
loop $-1 $155 $156 $61 #
cone-surface $-1 -40.497281187046369 43.78417389429552 15.091378461567341 0 -0.7660444514056185 -0.64278759981090561 1 0 0 1 I I -0.70710678118654746 0.70710678118654746 1 forward I I I I #
loop $-1 $-1 $157 $39 #
coedge $-1 $99 $99 $158 $159 reversed $62 $-1 #
face $-1 $160 $161 $24 $-1 $162 reversed single #
loop $-1 $-1 $163 $64 #
plane-surface $-1 0 -51.253957122638852 0 0 1 0 0 0 1 forward_v I I I I #
coedge $-1 $164 $165 $166 $167 forward $65 $-1 #
coedge $-1 $168 $67 $169 $170 forward $41 $-1 #
coedge $-1 $67 $168 $171 $172 forward $41 $-1 #
coedge $-1 $173 $174 $67 $107 reversed $175 $-1 #
edge $-1 $176 -51.253957122638852 $177 51.253957122638852 $106 $178 forward 7 unknown #
face $-1 $179 $180 $25 $-1 $181 reversed single #
loop $-1 $-1 $182 $68 #
plane-surface $-1 0 0 -22.625133134089094 0 0 1 1 0 0 forward_v I I I I #
coedge $-1 $183 $114 $184 $185 reversed $69 $-1 #
coedge $-1 $186 $71 $187 $188 reversed $44 $-1 #
coedge $-1 $71 $186 $189 $190 reversed $44 $-1 #
coedge $-1 $111 $191 $71 $115 reversed $69 $-1 #
edge $-1 $192 -51.253957122638852 $193 51.253957122638852 $114 $194 forward 7 unknown #
face $-1 $195 $196 $26 $-1 $197 forward single #
loop $-1 $-1 $198 $72 #
plane-surface $-1 -31.674535602222019 -173.2618547939436 116.44623945878602 -1 0 0 0 -0.7660444514056185 0.64278759981090561 forward_v I I I I #
coedge $-1 $199 $200 $201 $202 reversed $73 $-1 #
coedge $-1 $121 $75 $203 $204 reversed $47 $-1 #
coedge $-1 $75 $120 $199 $205 reversed $47 $-1 #
coedge $-1 $201 $206 $75 $123 forward $207 $-1 #
edge $-1 $208 35.597986595303922 $209 44.153659526967161 $122 $210 forward 7 unknown #
loop $-1 $-1 $129 $76 #
plane-surface $-1 -47.114340375664625 -51.253957122638866 14.06946020242583 0 -0.7660444514056185 0.64278759981090561 1 0 0 forward_v I I I I #
loop $-1 $-1 $211 $49 #
coedge $-1 $127 $127 $128 $212 reversed $77 $-1 #
coedge $-1 $128 $128 $127 $212 forward $79 $-1 #
coedge $-1 $129 $129 $80 $130 forward $124 $-1 #
edge $-1 $213 -1.7986646032054033e-015 $213 6.2831853071795987 $129 $214 forward 7 unknown #
loop $-1 $-1 $136 $81 #
plane-surface $-1 -47.114340375664625 -51.253957122638866 14.06946020242583 0 -0.7660444514056185 0.64278759981090561 1 0 0 forward_v I I I I #
loop $-1 $-1 $215 $52 #
coedge $-1 $134 $134 $135 $216 reversed $82 $-1 #
coedge $-1 $135 $135 $134 $216 forward $84 $-1 #
coedge $-1 $136 $136 $85 $137 forward $131 $-1 #
edge $-1 $217 -1.7986646032054033e-015 $217 6.2831853071795987 $136 $218 forward 7 unknown #
face $-1 $219 $220 $29 $-1 $221 reversed single #
loop $-1 $-1 $222 $86 #
plane-surface $-1 -31.674535602222019 107.3710386345994 194.97185839154398 -1 0 0 0 0.7660444514056185 0.64278759981090561 forward_v I I I I #
coedge $-1 $223 $224 $225 $226 reversed $87 $-1 #
coedge $-1 $143 $89 $227 $228 reversed $56 $-1 #
coedge $-1 $89 $142 $223 $229 reversed $56 $-1 #
coedge $-1 $225 $230 $89 $145 forward $231 $-1 #
edge $-1 $232 2.4315621946608488 $233 9.6106240081364618 $144 $234 forward 7 unknown #
loop $-1 $-1 $151 $90 #
plane-surface $-1 -47.114340375664625 -14.636859036705332 92.595079135183781 0 0.7660444514056185 0.64278759981090561 1 0 0 forward_v I I I I #
loop $-1 $-1 $235 $58 #
coedge $-1 $149 $149 $150 $236 reversed $91 $-1 #
coedge $-1 $150 $150 $149 $236 forward $93 $-1 #
coedge $-1 $151 $151 $94 $152 forward $146 $-1 #
edge $-1 $237 8.7579260533283984e-016 $237 6.2831853071796013 $151 $238 forward 7 unknown #
loop $-1 $-1 $158 $95 #
plane-surface $-1 -47.114340375664625 -14.636859036705332 92.595079135183781 0 0.7660444514056185 0.64278759981090561 1 0 0 forward_v I I I I #
loop $-1 $-1 $239 $61 #
coedge $-1 $156 $156 $157 $240 reversed $96 $-1 #
coedge $-1 $157 $157 $156 $240 forward $98 $-1 #
coedge $-1 $158 $158 $99 $159 forward $153 $-1 #
edge $-1 $241 8.7579260533283984e-016 $241 6.2831853071796013 $158 $242 forward 7 unknown #
face $-1 $243 $244 $24 $-1 $245 reversed single #
loop $-1 $-1 $246 $100 #
plane-surface $-1 -79.634998626667084 0 0 1 0 0 0 0 -1 forward_v I I I I #
coedge $-1 $247 $171 $248 $249 forward $101 $-1 #
coedge $-1 $250 $103 $247 $251 forward $65 $-1 #
coedge $-1 $103 $250 $252 $253 forward $65 $-1 #
coedge $-1 $174 $173 $103 $167 reversed $175 $-1 #
edge $-1 $254 -51.253957122638852 $255 51.253957122638852 $166 $256 forward 7 unknown #
coedge $-1 $105 $104 $257 $258 forward $41 $-1 #
coedge $-1 $259 $260 $104 $170 reversed $244 $-1 #
edge $-1 $177 -79.634998626667084 $261 79.634998626667084 $169 $262 forward 7 unknown #
coedge $-1 $163 $263 $105 $172 reversed $101 $-1 #
edge $-1 $264 -79.634998626667084 $176 79.634998626667084 $171 $265 forward 7 unknown #
coedge $-1 $166 $106 $263 $266 forward $175 $-1 #
coedge $-1 $106 $166 $259 $267 reversed $175 $-1 #
loop $-1 $-1 $173 $243 #
vertex $-1 $107 $268 #
vertex $-1 $107 $269 #
straight-curve $-1 79.634998626667084 0 22.625133134089094 0 1 0 I I #
face $-1 $270 $271 $25 $-1 $272 reversed single #
loop $-1 $-1 $184 $108 #
plane-surface $-1 0 -51.253957122638852 0 0 1 0 0 0 1 forward_v I I I I #
coedge $-1 $273 $274 $183 $275 forward $109 $-1 #
coedge $-1 $191 $111 $182 $275 reversed $69 $-1 #
coedge $-1 $189 $276 $111 $185 forward $180 $-1 #
edge $-1 $277 -14.558227431738979 $192 -1.5755839729612493 $184 $278 forward 7 unknown #
coedge $-1 $113 $112 $279 $280 reversed $44 $-1 #
coedge $-1 $281 $282 $112 $188 forward $283 $-1 #
edge $-1 $284 -44.087712682723506 $193 -27.00685920516365 $187 $285 forward 7 unknown #
coedge $-1 $286 $184 $113 $190 forward $180 $-1 #
edge $-1 $192 27.00685920516365 $287 44.087712682723506 $189 $288 forward 7 unknown #
coedge $-1 $114 $183 $281 $289 reversed $69 $-1 #
vertex $-1 $190 $290 #
vertex $-1 $188 $291 #
straight-curve $-1 -62.554145149107228 0 -9.6424896753113636 0 1 0 I I #
face $-1 $-1 $207 $26 $-1 $292 reversed single #
loop $-1 $-1 $293 $116 #
plane-surface $-1 0 0 22.625133134089094 0 0 1 1 0 0 forward_v I I I I #
coedge $-1 $294 $295 $296 $297 reversed $117 $-1 #
coedge $-1 $298 $119 $121 $205 forward $73 $-1 #
coedge $-1 $119 $298 $294 $299 forward $73 $-1 #
coedge $-1 $296 $122 $119 $202 forward $207 $-1 #
edge $-1 $209 -38.996974961274915 $300 -8.117365414389706 $201 $301 forward 7 unknown #
coedge $-1 $302 $303 $120 $204 forward $196 $-1 #
edge $-1 $304 -42.556032087808561 $208 -35.376970274332947 $203 $305 forward 7 unknown #
edge $-1 $209 2.2742244199036027e-014 $304 11.168637689320013 $121 $306 forward 7 unknown #
coedge $-1 $122 $296 $302 $307 reversed $207 $-1 #
loop $-1 $-1 $296 $195 #
vertex $-1 $307 $308 #
vertex $-1 $123 $309 #
straight-curve $-1 -62.554145149107228 -51.253957122638852 58.223119729393012 0 0 -1 I I #
coedge $-1 $211 $211 $-1 $310 reversed $126 $-1 #
edge $-1 $311 0 $311 6.2831853071796004 $127 $312 forward 7 unknown #
vertex $-1 $130 $313 #
ellipse-curve $-1 -53.731399564282889 -47.664426215901045 18.347296668257467 0 -0.7660444514056185 0.64278759981090561 2 0 0 1 I I #
coedge $-1 $215 $215 $-1 $314 reversed $133 $-1 #
edge $-1 $315 0 $315 6.2831853071796004 $134 $316 forward 7 unknown #
vertex $-1 $137 $317 #
ellipse-curve $-1 -40.497281187046369 -47.664426215901045 18.347296668257467 0 -0.7660444514056185 0.64278759981090561 2 0 0 1 I I #
face $-1 $-1 $231 $29 $-1 $318 forward single #
loop $-1 $-1 $319 $138 #
plane-surface $-1 0 51.253957122638852 0 0 -1 0 0 0 -1 forward_v I I I I #
coedge $-1 $320 $321 $322 $323 reversed $139 $-1 #
coedge $-1 $324 $141 $143 $229 forward $87 $-1 #
coedge $-1 $141 $324 $320 $325 forward $87 $-1 #
coedge $-1 $322 $144 $141 $226 forward $231 $-1 #
edge $-1 $233 -38.996974961274915 $326 -8.117365414389706 $225 $327 forward 7 unknown #
coedge $-1 $328 $329 $142 $228 forward $220 $-1 #
edge $-1 $330 -83.416468993346143 $232 -74.86079606168289 $227 $331 forward 7 unknown #
edge $-1 $233 91.33927655595771 $330 102.50791424527772 $143 $332 forward 7 unknown #
coedge $-1 $144 $322 $328 $333 forward $231 $-1 #
loop $-1 $-1 $322 $219 #
vertex $-1 $228 $334 #
vertex $-1 $145 $335 #
straight-curve $-1 -62.554145149107228 53.685519317299701 22.625133134089097 0 -1 0 I I #
coedge $-1 $235 $235 $-1 $336 reversed $148 $-1 #
edge $-1 $337 0 $337 6.2831853071796004 $149 $338 forward 7 unknown #
vertex $-1 $152 $339 #
ellipse-curve $-1 -53.731399564282889 47.664426215901038 18.347296668257471 0 0.7660444514056185 0.64278759981090561 2 0 0 1 I I #
coedge $-1 $239 $239 $-1 $340 reversed $155 $-1 #
edge $-1 $341 0 $341 6.2831853071796004 $156 $342 forward 7 unknown #
vertex $-1 $159 $343 #
ellipse-curve $-1 -40.497281187046369 47.664426215901038 18.347296668257471 0 0.7660444514056185 0.64278759981090561 2 0 0 1 I I #
face $-1 $-1 $175 $24 $-1 $344 reversed single #
loop $-1 $-1 $259 $160 #
plane-surface $-1 0 51.253957122638852 0 0 -1 0 0 0 -1 forward_v I I I I #
coedge $-1 $345 $257 $260 $346 forward $161 $-1 #
coedge $-1 $263 $163 $164 $251 reversed $101 $-1 #
coedge $-1 $257 $345 $163 $249 reversed $161 $-1 #
edge $-1 $264 -22.625133134089094 $347 22.625133134089094 $248 $348 forward 7 unknown #
coedge $-1 $165 $164 $345 $349 forward $65 $-1 #
edge $-1 $255 -79.634998626667084 $347 79.634998626667084 $247 $350 forward 7 unknown #
coedge $-1 $260 $259 $165 $253 reversed $244 $-1 #
edge $-1 $351 -79.634998626667084 $254 79.634998626667084 $252 $352 forward 7 unknown #
vertex $-1 $167 $353 #
vertex $-1 $266 $354 #
straight-curve $-1 79.634998626667084 0 -22.625133134089094 0 -1 0 I I #
coedge $-1 $246 $248 $168 $258 reversed $161 $-1 #
edge $-1 $261 -51.253957122638852 $264 51.253957122638852 $257 $355 forward 7 unknown #
coedge $-1 $252 $169 $174 $267 forward $244 $-1 #
coedge $-1 $169 $252 $246 $346 reversed $244 $-1 #
vertex $-1 $170 $356 #
straight-curve $-1 0 51.253957122638852 22.625133134089094 -1 0 0 I I #
coedge $-1 $171 $247 $173 $266 reversed $101 $-1 #
vertex $-1 $258 $357 #
straight-curve $-1 0 -51.253957122638852 22.625133134089094 1 0 0 I I #
edge $-1 $176 -22.625133134089094 $255 22.625133134089094 $173 $358 forward 7 unknown #
edge $-1 $177 -22.625133134089094 $254 22.625133134089094 $174 $359 forward 7 unknown #
point $-1 79.634998626667084 -51.253957122638852 22.625133134089094 #
point $-1 79.634998626667084 51.253957122638852 22.625133134089094 #
face $-1 $-1 $283 $25 $-1 $360 reversed single #
loop $-1 $-1 $279 $179 #
plane-surface $-1 -79.634998626667084 0 0 1 0 0 0 0 -1 forward_v I I I I #
coedge $-1 $361 $182 $276 $362 forward $109 $-1 #
coedge $-1 $182 $361 $363 $364 forward $109 $-1 #
edge $-1 $365 -51.253957122638852 $277 51.253957122638852 $182 $366 forward 7 unknown #
coedge $-1 $184 $286 $273 $362 reversed $180 $-1 #
vertex $-1 $362 $367 #
straight-curve $-1 -62.554145149107228 -51.253957122638852 -8.0669057023501143 0 0 1 I I #
coedge $-1 $368 $369 $186 $280 forward $271 $-1 #
edge $-1 $287 -51.253957122638852 $284 51.253957122638852 $279 $370 forward 7 unknown #
coedge $-1 $363 $187 $191 $289 forward $283 $-1 #
coedge $-1 $187 $363 $368 $371 reversed $283 $-1 #
loop $-1 $-1 $281 $270 #
vertex $-1 $371 $372 #
straight-curve $-1 -35.547285943943578 51.253957122638852 -9.6424896753113636 1 0 0 I I #
coedge $-1 $276 $189 $369 $373 forward $180 $-1 #
vertex $-1 $373 $374 #
straight-curve $-1 -35.547285943943578 -51.253957122638852 -9.6424896753113636 -1 0 0 I I #
edge $-1 $193 1.5755839729612493 $365 14.558227431738979 $281 $375 forward 7 unknown #
point $-1 -62.554145149107228 -51.253957122638852 -9.6424896753113636 #
point $-1 -62.554145149107228 51.253957122638852 -9.6424896753113636 #
plane-surface $-1 0 -51.253957122638852 0 0 1 0 0 0 1 forward_v I I I I #
coedge $-1 $303 $302 $295 $376 forward $196 $-1 #
coedge $-1 $295 $198 $200 $299 reversed $117 $-1 #
coedge $-1 $198 $294 $293 $376 reversed $117 $-1 #
coedge $-1 $206 $201 $198 $297 forward $207 $-1 #
edge $-1 $300 -44.153659526967161 $377 -35.597986595303922 $296 $378 forward 7 unknown #
coedge $-1 $200 $199 $303 $379 reversed $73 $-1 #
edge $-1 $380 -11.168637689320013 $300 -2.2742244199036027e-014 $294 $381 forward 7 unknown #
vertex $-1 $202 $382 #
straight-curve $-1 -23.557170187832313 -51.253957122638852 14.069460202425848 1 0 0 I I #
coedge $-1 $293 $203 $206 $307 forward $196 $-1 #
coedge $-1 $203 $293 $298 $379 forward $196 $-1 #
vertex $-1 $204 $383 #
straight-curve $-1 -62.554145149107228 -86.630927396971799 22.625133134089097 0 -1 0 I I #
straight-curve $-1 -62.554145149107228 -51.253957122638866 14.06946020242583 0 0.64278759981090561 0.7660444514056185 I I #
edge $-1 $208 -62.554145149107228 $377 -31.674535602222019 $206 $384 forward 7 unknown #
point $-1 -62.554145149107228 -51.253957122638852 22.625133134089094 #
point $-1 -62.554145149107228 -51.253957122638852 14.069460202425848 #
edge $-1 $385 1 $385 0 $211 $-1 forward 7 unknown #
vertex $-1 $212 $386 #
ellipse-curve $-1 -53.731399564282889 -44.550218345701154 15.734166061378247 0 -0.7660444514056185 0.64278759981090561 2 0 0 1 I I #
point $-1 -51.731399564282889 -47.664426215901038 18.347296668257457 #
edge $-1 $387 1 $387 0 $215 $-1 forward 7 unknown #
vertex $-1 $216 $388 #
ellipse-curve $-1 -40.497281187046369 -44.550218345701154 15.734166061378247 0 -0.7660444514056185 0.64278759981090561 2 0 0 1 I I #
point $-1 -38.497281187046369 -47.664426215901038 18.347296668257457 #
plane-surface $-1 0 0 22.625133134089094 0 0 1 1 0 0 forward_v I I I I #
coedge $-1 $329 $328 $321 $389 forward $220 $-1 #
coedge $-1 $321 $222 $224 $325 reversed $139 $-1 #
coedge $-1 $222 $320 $319 $389 reversed $139 $-1 #
coedge $-1 $230 $225 $222 $323 forward $231 $-1 #
edge $-1 $326 -9.6106240081364618 $390 -2.4315621946608488 $322 $391 forward 7 unknown #
coedge $-1 $224 $223 $329 $392 reversed $87 $-1 #
edge $-1 $393 -102.50791424527772 $326 -91.33927655595771 $320 $394 forward 7 unknown #
vertex $-1 $226 $395 #
straight-curve $-1 -23.557170187832313 44.074895309163239 22.625133134089097 1 0 0 I I #
coedge $-1 $319 $227 $230 $333 reversed $220 $-1 #
coedge $-1 $227 $319 $324 $392 forward $220 $-1 #
vertex $-1 $228 $396 #
straight-curve $-1 -62.554145149107228 51.253957122638852 97.485929195771988 0 0 1 I I #
straight-curve $-1 -62.554145149107228 -14.636859036705332 92.595079135183781 0 0.64278759981090561 -0.7660444514056185 I I #
edge $-1 $390 31.674535602222019 $232 62.554145149107228 $328 $397 forward 7 unknown #
point $-1 -62.554145149107228 51.253957122638852 22.625133134089094 #
point $-1 -62.554145149107228 44.074895309163239 22.625133134089097 #
edge $-1 $398 1 $398 0 $235 $-1 forward 7 unknown #
vertex $-1 $236 $399 #
ellipse-curve $-1 -53.731399564282889 44.55021834570114 15.734166061378247 0 0.7660444514056185 0.64278759981090561 2 0 0 1 I I #
point $-1 -51.731399564282889 47.664426215901024 18.347296668257457 #
edge $-1 $400 1 $400 0 $239 $-1 forward 7 unknown #
vertex $-1 $240 $401 #
ellipse-curve $-1 -40.497281187046369 44.55021834570114 15.734166061378247 0 0.7660444514056185 0.64278759981090561 2 0 0 1 I I #
point $-1 -38.497281187046369 47.664426215901024 18.347296668257457 #
plane-surface $-1 79.634998626667084 0 0 -1 0 0 0 0 1 forward_v I I I I #
coedge $-1 $248 $246 $250 $349 reversed $161 $-1 #
edge $-1 $261 -22.625133134089094 $351 22.625133134089094 $260 $402 forward 7 unknown #
vertex $-1 $349 $403 #
straight-curve $-1 -79.634998626667084 -51.253957122638852 0 0 0 -1 I I #
edge $-1 $347 -51.253957122638852 $351 51.253957122638852 $345 $404 forward 7 unknown #
straight-curve $-1 0 -51.253957122638852 -22.625133134089094 -1 0 0 I I #
vertex $-1 $253 $405 #
straight-curve $-1 0 51.253957122638852 -22.625133134089094 1 0 0 I I #
point $-1 79.634998626667084 51.253957122638852 -22.625133134089094 #
point $-1 79.634998626667084 -51.253957122638852 -22.625133134089094 #
straight-curve $-1 -79.634998626667084 0 22.625133134089094 0 -1 0 I I #
point $-1 -79.634998626667084 51.253957122638852 22.625133134089094 #
point $-1 -79.634998626667084 -51.253957122638852 22.625133134089094 #
straight-curve $-1 79.634998626667084 -51.253957122638852 0 0 0 -1 I I #
straight-curve $-1 79.634998626667084 51.253957122638852 0 0 0 -1 I I #
plane-surface $-1 0 51.253957122638852 0 0 -1 0 0 0 -1 forward_v I I I I #
coedge $-1 $274 $273 $406 $407 forward $109 $-1 #
edge $-1 $277 62.554145149107228 $408 79.634998626667084 $276 $409 forward 7 unknown #
coedge $-1 $282 $281 $274 $364 reversed $283 $-1 #
edge $-1 $410 -79.634998626667084 $365 -62.554145149107228 $363 $411 forward 7 unknown #
vertex $-1 $289 $412 #
straight-curve $-1 -62.554145149107228 0 -22.625133134089094 0 -1 0 I I #
point $-1 -62.554145149107228 -51.253957122638852 -22.625133134089094 #
coedge $-1 $406 $279 $282 $371 forward $271 $-1 #
coedge $-1 $279 $406 $286 $373 reversed $271 $-1 #
straight-curve $-1 -79.634998626667084 0 -9.6424896753113636 0 1 0 I I #
edge $-1 $284 9.6424896753113636 $410 22.625133134089094 $282 $413 forward 7 unknown #
point $-1 -79.634998626667084 51.253957122638852 -9.6424896753113636 #
edge $-1 $287 9.6424896753113636 $408 22.625133134089094 $369 $414 forward 7 unknown #
point $-1 -79.634998626667084 -51.253957122638852 -9.6424896753113636 #
straight-curve $-1 -62.554145149107228 51.253957122638852 -8.0669057023501143 0 0 -1 I I #
edge $-1 $377 35.376970274332947 $380 42.556032087808561 $293 $415 forward 7 unknown #
vertex $-1 $297 $416 #
straight-curve $-1 -31.674535602222019 -51.253957122638852 58.223119729393012 0 0 1 I I #
edge $-1 $380 8.117365414389706 $304 38.996974961274915 $303 $417 forward 7 unknown #
vertex $-1 $379 $418 #
straight-curve $-1 -31.674535602222019 -51.253957122638866 14.06946020242583 0 -0.64278759981090561 -0.7660444514056185 I I #
point $-1 -31.674535602222019 -51.253957122638852 14.069460202425848 #
point $-1 -62.554145149107228 -44.074895309163239 22.625133134089094 #
straight-curve $-1 0 -51.253957122638852 22.625133134089094 1 0 0 I I #
vertex $-1 $310 $419 #
point $-1 -51.731399564282889 -44.550218345701154 15.734166061378247 #
vertex $-1 $314 $420 #
point $-1 -38.497281187046369 -44.550218345701154 15.734166061378247 #
edge $-1 $390 74.86079606168289 $393 83.416468993346143 $319 $421 forward 7 unknown #
vertex $-1 $333 $422 #
straight-curve $-1 -31.674535602222019 53.685519317299701 22.625133134089097 0 1 0 I I #
edge $-1 $393 8.117365414389706 $330 38.996974961274915 $329 $423 forward 7 unknown #
vertex $-1 $392 $424 #
straight-curve $-1 -31.674535602222019 -14.636859036705332 92.595079135183781 0 -0.64278759981090561 0.7660444514056185 I I #
point $-1 -31.674535602222019 44.074895309163239 22.625133134089097 #
point $-1 -62.554145149107228 51.253957122638852 14.069460202425844 #
straight-curve $-1 0 51.253957122638852 22.625133134089094 -1 0 0 I I #
vertex $-1 $336 $425 #
point $-1 -51.731399564282889 44.55021834570114 15.734166061378247 #
vertex $-1 $340 $426 #
point $-1 -38.497281187046369 44.55021834570114 15.734166061378247 #
straight-curve $-1 -79.634998626667084 51.253957122638852 0 0 0 -1 I I #
point $-1 -79.634998626667084 -51.253957122638852 -22.625133134089094 #
straight-curve $-1 -79.634998626667084 0 -22.625133134089094 0 1 0 I I #
point $-1 -79.634998626667084 51.253957122638852 -22.625133134089094 #
coedge $-1 $369 $368 $361 $407 reversed $271 $-1 #
edge $-1 $408 -51.253957122638852 $410 51.253957122638852 $406 $427 forward 7 unknown #
vertex $-1 $407 $428 #
straight-curve $-1 0 -51.253957122638852 -22.625133134089094 -1 0 0 I I #
vertex $-1 $364 $429 #
straight-curve $-1 0 51.253957122638852 -22.625133134089094 1 0 0 I I #
point $-1 -62.554145149107228 51.253957122638852 -22.625133134089094 #
straight-curve $-1 -79.634998626667084 51.253957122638852 0 0 0 -1 I I #
straight-curve $-1 -79.634998626667084 -51.253957122638852 0 0 0 -1 I I #
straight-curve $-1 -31.674535602222019 -86.630927396971799 22.625133134089097 0 1 0 I I #
point $-1 -31.674535602222019 -51.253957122638852 22.625133134089094 #
straight-curve $-1 -23.557170187832313 -44.074895309163232 22.625133134089094 -1 0 0 I I #
point $-1 -31.674535602222019 -44.074895309163239 22.625133134089094 #
point $-1 -53.731399564282889 -43.018129442889915 14.448590861756436 #
point $-1 -40.497281187046369 -43.018129442889915 14.448590861756436 #
straight-curve $-1 -31.674535602222019 51.253957122638852 97.485929195771988 0 0 -1 I I #
point $-1 -31.674535602222019 51.253957122638852 22.625133134089094 #
straight-curve $-1 -23.557170187832313 51.253957122638852 14.069460202425844 -1 0 0 I I #
point $-1 -31.674535602222019 51.253957122638852 14.069460202425844 #
point $-1 -53.731399564282889 43.018129442889901 14.448590861756436 #
point $-1 -40.497281187046369 43.018129442889901 14.448590861756436 #
straight-curve $-1 -79.634998626667084 0 -22.625133134089094 0 1 0 I I #
point $-1 -79.634998626667084 -51.253957122638852 -22.625133134089094 #
point $-1 -79.634998626667084 51.253957122638852 -22.625133134089094 #
End-of-ACIS-data 