500 0 9 0           
7 Unknown 11 ACIS 5.0 NT 24 Thu Mar 25 15:55:44 1999 
-1 9.9999999999999995e-007 1e-010 
body $-1 $9 $-1 $10 #
body $-1 $11 $-1 $12 #
body $-1 $13 $-1 $14 #
body $-1 $15 $-1 $16 #
body $-1 $17 $-1 $18 #
body $-1 $19 $-1 $20 #
body $-1 $21 $-1 $22 #
body $-1 $23 $-1 $24 #
body $-1 $25 $-1 $26 #
lump $-1 $-1 $27 $0 #
transform $-1 1 0 0 0 1 0 0 0 1 79.847407452620018 44.939905644130327 15.534557001232061 1 rotate no_reflect no_shear #
lump $-1 $-1 $28 $1 #
transform $-1 1 0 0 0 1 0 0 0 1 79.847407452620018 44.939905644130327 15.534557001232061 1 rotate no_reflect no_shear #
lump $-1 $-1 $29 $2 #
transform $-1 1 0 0 0 1 0 0 0 1 79.847407452620018 44.939905644130327 15.534557001232061 1 rotate no_reflect no_shear #
lump $-1 $-1 $30 $3 #
transform $-1 1 0 0 0 1 0 0 0 1 79.847407452620018 44.939905644130327 15.534557001232061 1 rotate no_reflect no_shear #
lump $-1 $-1 $31 $4 #
transform $-1 1 0 0 0 1 0 0 0 1 79.847407452620018 44.939905644130327 15.534557001232061 1 rotate no_reflect no_shear #
lump $-1 $-1 $32 $5 #
transform $-1 1 0 0 0 1 0 0 0 1 79.847407452620018 44.939905644130327 15.534557001232061 1 rotate no_reflect no_shear #
lump $-1 $-1 $33 $6 #
transform $-1 1 0 0 0 1 0 0 0 1 79.847407452620018 44.939905644130327 15.534557001232061 1 rotate no_reflect no_shear #
lump $-1 $-1 $34 $7 #
transform $-1 1 0 0 0 1 0 0 0 1 79.847407452620018 44.939905644130327 15.534557001232061 1 rotate no_reflect no_shear #
lump $-1 $-1 $35 $8 #
transform $-1 1 0 0 0 1 0 0 0 1 79.847407452620018 44.939905644130327 15.534557001232061 1 rotate no_reflect no_shear #
shell $-1 $-1 $-1 $36 $-1 $9 #
shell $-1 $-1 $-1 $37 $-1 $11 #
shell $-1 $-1 $-1 $38 $-1 $13 #
shell $-1 $-1 $-1 $39 $-1 $15 #
shell $-1 $-1 $-1 $40 $-1 $17 #
shell $-1 $-1 $-1 $41 $-1 $19 #
shell $-1 $-1 $-1 $42 $-1 $21 #
shell $-1 $-1 $-1 $43 $-1 $23 #
shell $-1 $-1 $-1 $44 $-1 $25 #
face $-1 $45 $46 $27 $-1 $47 forward single #
face $-1 $48 $49 $28 $-1 $50 forward single #
face $-1 $51 $52 $29 $-1 $53 reversed single #
face $-1 $54 $55 $30 $-1 $56 forward single #
face $-1 $57 $58 $31 $-1 $59 reversed single #
face $-1 $60 $61 $32 $-1 $62 forward single #
face $-1 $63 $64 $33 $-1 $65 reversed single #
face $-1 $66 $67 $34 $-1 $68 forward single #
face $-1 $69 $70 $35 $-1 $71 forward single #
face $-1 $72 $73 $27 $-1 $74 reversed single #
loop $-1 $-1 $75 $36 #
plane-surface $-1 0 0 15.534557001232061 0 0 1 1 0 0 forward_v I I I I #
face $-1 $76 $77 $28 $-1 $78 reversed single #
loop $-1 $-1 $79 $37 #
plane-surface $-1 -72.579826160319328 0 0.86976024417938724 0 0 1 1 0 0 forward_v I I I I #
face $-1 $80 $81 $29 $-1 $82 reversed single #
loop $-1 $-1 $83 $38 #
plane-surface $-1 -24.490384269806853 -153.85150881486291 122.79882541377535 1 0 0 0 0.68199836817093118 -0.7313536940579346 forward_v I I I I #
face $-1 $84 $85 $30 $-1 $86 forward single #
loop $-1 $87 $88 $39 #
cone-surface $-1 -8.6114014887530743 -38.920652156462168 9.7942613520133008 0 0.68199836817093118 -0.7313536940579346 1.5 0 0 1 I I 0 1 1.5 forward I I I I #
face $-1 $89 $90 $31 $-1 $91 reversed single #
loop $-1 $-1 $92 $40 #
plane-surface $-1 39.025546854408262 -153.85150881486291 122.79882541377535 -1 0 0 0 -0.68199836817093118 0.7313536940579346 forward_v I I I I #
face $-1 $93 $94 $32 $-1 $95 forward single #
loop $-1 $96 $97 $41 #
cone-surface $-1 23.146564073354483 -38.920652156462168 9.7942613520133008 0 0.68199836817093118 -0.7313536940579346 1.5 0 0 1 I I 0 1 1.5 forward I I I I #
face $-1 $98 $99 $33 $-1 $100 reversed single #
loop $-1 $-1 $101 $42 #
plane-surface $-1 -3.0751147571346138 129.91919545734578 163.70363787002995 1 0 0 0 -0.83867057594974714 -0.54463902268945019 forward_v I I I I #
face $-1 $102 $103 $34 $-1 $104 forward single #
loop $-1 $105 $106 $43 #
cone-surface $-1 7.6219521495303013 39.339898368274824 7.7960575336482307 0 -0.83867057594974714 -0.54463902268945019 1.5 0 0 1 I I 0 1 1.5 forward I I I I #
face $-1 $107 $108 $35 $-1 $109 forward single #
loop $-1 $110 $111 $44 #
cone-surface $-1 23.667552509527681 39.339898368274824 7.7960575336482307 0 -0.83867057594974714 -0.54463902268945019 1.5 0 0 1 I I 0 1 1.5 forward I I I I #
face $-1 $112 $113 $27 $-1 $114 reversed single #
loop $-1 $-1 $115 $45 #
plane-surface $-1 0 0 -15.534557001232061 0 0 1 1 0 0 forward_v I I I I #
coedge $-1 $116 $117 $118 $119 forward $46 $-1 #
face $-1 $120 $121 $28 $-1 $122 reversed single #
loop $-1 $-1 $123 $48 #
plane-surface $-1 -72.579826160319328 0 -4.4947749983433116 0 0 1 1 0 0 forward_v I I I I #
coedge $-1 $124 $125 $126 $127 forward $49 $-1 #
face $-1 $128 $129 $29 $-1 $130 reversed single #
loop $-1 $-1 $131 $51 #
plane-surface $-1 -8.6114014887530743 -44.939905644130306 6.0054326109299296 0 -0.68199836817093118 0.7313536940579346 1 0 0 forward_v I I I I #
coedge $-1 $132 $133 $134 $135 reversed $52 $-1 #
face $-1 $-1 $136 $30 $-1 $137 forward single #
loop $-1 $138 $139 $54 #
cone-surface $-1 -8.6114014887530743 -37.499267194141751 8.2700126274021368 0 0.68199836817093118 -0.7313536940579346 0.75 0 0 1 I I -0.70710678118654668 0.70710678118654835 0.75 forward I I I I #
loop $-1 $-1 $140 $39 #
coedge $-1 $88 $88 $141 $142 reversed $55 $-1 #
face $-1 $143 $144 $31 $-1 $145 reversed single #
loop $-1 $-1 $146 $57 #
plane-surface $-1 -8.6114014887530743 -44.939905644130306 6.0054326109299296 0 -0.68199836817093118 0.7313536940579346 1 0 0 forward_v I I I I #
coedge $-1 $147 $148 $149 $150 reversed $58 $-1 #
face $-1 $-1 $151 $32 $-1 $152 forward single #
loop $-1 $153 $154 $60 #
cone-surface $-1 23.146564073354483 -37.499267194141751 8.2700126274021368 0 0.68199836817093118 -0.7313536940579346 0.75 0 0 1 I I -0.70710678118654668 0.70710678118654835 0.75 forward I I I I #
loop $-1 $-1 $155 $41 #
coedge $-1 $97 $97 $156 $157 reversed $61 $-1 #
face $-1 $158 $159 $33 $-1 $160 reversed single #
loop $-1 $-1 $161 $63 #
plane-surface $-1 15.644752329528998 -4.0121469354201338 76.727609951467372 0 0.83867057594974714 0.54463902268945019 1 0 0 forward_v I I I I #
coedge $-1 $162 $163 $164 $165 reversed $64 $-1 #
face $-1 $-1 $166 $34 $-1 $167 forward single #
loop $-1 $168 $169 $66 #
cone-surface $-1 7.6219521495303013 37.717298471122866 6.742328873619746 0 -0.83867057594974714 -0.54463902268945019 0.75 0 0 1 I I -0.70710678118654757 0.70710678118654757 0.75 forward I I I I #
loop $-1 $-1 $170 $43 #
coedge $-1 $106 $106 $171 $172 reversed $67 $-1 #
face $-1 $-1 $173 $35 $-1 $174 forward single #
loop $-1 $175 $176 $69 #
cone-surface $-1 23.667552509527681 37.717298471122866 6.742328873619746 0 -0.83867057594974714 -0.54463902268945019 0.75 0 0 1 I I -0.70710678118654757 0.70710678118654757 0.75 forward I I I I #
loop $-1 $-1 $177 $44 #
coedge $-1 $111 $111 $178 $179 reversed $70 $-1 #
face $-1 $180 $181 $27 $-1 $182 reversed single #
loop $-1 $-1 $183 $72 #
plane-surface $-1 0 -44.939905644130327 0 0 1 0 0 0 1 forward_v I I I I #
coedge $-1 $184 $185 $186 $187 forward $73 $-1 #
coedge $-1 $188 $75 $189 $190 forward $46 $-1 #
coedge $-1 $75 $188 $191 $192 forward $46 $-1 #
coedge $-1 $193 $194 $75 $119 reversed $195 $-1 #
edge $-1 $196 -44.939905644130327 $197 44.939905644130327 $118 $198 forward 7 unknown #
face $-1 $199 $200 $28 $-1 $201 reversed single #
loop $-1 $-1 $202 $76 #
plane-surface $-1 -65.312244868018638 0 -1.8125073770819622 -1 0 0 0 0 1 forward_v I I I I #
coedge $-1 $203 $204 $205 $206 forward $77 $-1 #
coedge $-1 $207 $79 $208 $209 reversed $49 $-1 #
coedge $-1 $79 $207 $210 $211 reversed $49 $-1 #
coedge $-1 $202 $212 $79 $127 reversed $121 $-1 #
edge $-1 $213 -44.939905644130327 $214 44.939905644130327 $126 $215 forward 7 unknown #
face $-1 $216 $217 $29 $-1 $218 forward single #
loop $-1 $-1 $219 $80 #
plane-surface $-1 7.2675812923007044 -153.85150881486291 122.79882541377535 -1 0 0 0 -0.68199836817093118 0.7313536940579346 forward_v I I I I #
coedge $-1 $220 $221 $222 $223 reversed $81 $-1 #
coedge $-1 $133 $83 $224 $225 reversed $52 $-1 #
coedge $-1 $83 $132 $220 $226 reversed $52 $-1 #
coedge $-1 $222 $227 $83 $135 forward $228 $-1 #
edge $-1 $229 45.864855705655614 $230 55.393980095957765 $134 $231 forward 7 unknown #
loop $-1 $-1 $141 $84 #
plane-surface $-1 -8.6114014887530743 -44.939905644130306 6.0054326109299296 0 -0.68199836817093118 0.7313536940579346 1 0 0 forward_v I I I I #
loop $-1 $-1 $232 $54 #
coedge $-1 $139 $139 $140 $233 reversed $85 $-1 #
coedge $-1 $140 $140 $139 $233 forward $87 $-1 #
coedge $-1 $141 $141 $88 $142 forward $136 $-1 #
edge $-1 $234 -2.5504717751491971e-015 $234 6.2831853071795978 $141 $235 forward 7 unknown #
face $-1 $236 $237 $31 $-1 $238 forward single #
loop $-1 $-1 $239 $89 #
plane-surface $-1 0 -44.939905644130327 0 0 1 0 0 0 1 forward_v I I I I #
coedge $-1 $240 $241 $242 $243 reversed $90 $-1 #
coedge $-1 $148 $92 $244 $245 reversed $58 $-1 #
coedge $-1 $92 $147 $246 $247 reversed $58 $-1 #
coedge $-1 $248 $239 $92 $150 forward $144 $-1 #
edge $-1 $249 -55.393980095957765 $250 -45.864855705655614 $149 $251 forward 7 unknown #
loop $-1 $-1 $156 $93 #
plane-surface $-1 -8.6114014887530743 -44.939905644130306 6.0054326109299296 0 -0.68199836817093118 0.7313536940579346 1 0 0 forward_v I I I I #
loop $-1 $-1 $252 $60 #
coedge $-1 $154 $154 $155 $253 reversed $94 $-1 #
coedge $-1 $155 $155 $154 $253 forward $96 $-1 #
coedge $-1 $156 $156 $97 $157 forward $151 $-1 #
edge $-1 $254 -2.5504717751491971e-015 $254 6.2831853071795978 $156 $255 forward 7 unknown #
face $-1 $256 $257 $33 $-1 $258 reversed single #
loop $-1 $-1 $259 $98 #
plane-surface $-1 34.36461941619261 129.91919545734578 163.70363787002995 -1 0 0 0 0.83867057594974714 0.54463902268945019 forward_v I I I I #
coedge $-1 $260 $261 $262 $263 reversed $99 $-1 #
coedge $-1 $163 $101 $264 $265 reversed $64 $-1 #
coedge $-1 $101 $162 $260 $266 reversed $64 $-1 #
coedge $-1 $262 $267 $101 $165 forward $268 $-1 #
edge $-1 $269 20.019692084542562 $270 29.23251270587425 $164 $271 forward 7 unknown #
loop $-1 $-1 $171 $102 #
plane-surface $-1 15.644752329528998 -4.0121469354201338 76.727609951467372 0 0.83867057594974714 0.54463902268945019 1 0 0 forward_v I I I I #
loop $-1 $-1 $272 $66 #
coedge $-1 $169 $169 $170 $273 reversed $103 $-1 #
coedge $-1 $170 $170 $169 $273 forward $105 $-1 #
coedge $-1 $171 $171 $106 $172 forward $166 $-1 #
edge $-1 $274 -1.9746031397737168e-015 $274 6.2831853071795987 $171 $275 forward 7 unknown #
loop $-1 $-1 $178 $107 #
plane-surface $-1 15.644752329528998 -4.0121469354201338 76.727609951467372 0 0.83867057594974714 0.54463902268945019 1 0 0 forward_v I I I I #
loop $-1 $-1 $276 $69 #
coedge $-1 $176 $176 $177 $277 reversed $108 $-1 #
coedge $-1 $177 $177 $176 $277 forward $110 $-1 #
coedge $-1 $178 $178 $111 $179 forward $173 $-1 #
edge $-1 $278 -1.9746031397737168e-015 $278 6.2831853071795987 $178 $279 forward 7 unknown #
face $-1 $280 $281 $27 $-1 $282 reversed single #
loop $-1 $-1 $283 $112 #
plane-surface $-1 -79.847407452620018 0 0 1 0 0 0 0 -1 forward_v I I I I #
coedge $-1 $284 $191 $285 $286 forward $113 $-1 #
coedge $-1 $287 $115 $284 $288 forward $73 $-1 #
coedge $-1 $115 $287 $289 $290 forward $73 $-1 #
coedge $-1 $194 $193 $115 $187 reversed $195 $-1 #
edge $-1 $291 -44.939905644130327 $292 44.939905644130327 $186 $293 forward 7 unknown #
coedge $-1 $117 $116 $294 $295 forward $46 $-1 #
coedge $-1 $296 $297 $116 $190 reversed $281 $-1 #
edge $-1 $197 -79.847407452620018 $298 79.847407452620018 $189 $299 forward 7 unknown #
coedge $-1 $183 $300 $117 $192 reversed $113 $-1 #
edge $-1 $301 -79.847407452620018 $196 79.847407452620018 $191 $302 forward 7 unknown #
coedge $-1 $186 $118 $300 $303 forward $195 $-1 #
coedge $-1 $118 $186 $296 $304 reversed $195 $-1 #
loop $-1 $-1 $193 $280 #
vertex $-1 $119 $305 #
vertex $-1 $119 $306 #
straight-curve $-1 79.847407452620018 0 15.534557001232061 0 1 0 I I #
face $-1 $307 $308 $28 $-1 $309 reversed single #
loop $-1 $-1 $310 $120 #
plane-surface $-1 0 -44.939905644130327 0 0 1 0 0 0 1 forward_v I I I I #
coedge $-1 $205 $126 $311 $312 reversed $121 $-1 #
coedge $-1 $313 $123 $310 $314 reversed $77 $-1 #
coedge $-1 $123 $313 $315 $316 reversed $77 $-1 #
coedge $-1 $212 $202 $123 $206 reversed $121 $-1 #
edge $-1 $317 -44.939905644130327 $318 44.939905644130327 $205 $319 forward 7 unknown #
coedge $-1 $125 $124 $320 $321 reversed $49 $-1 #
coedge $-1 $322 $323 $124 $209 forward $324 $-1 #
edge $-1 $325 -43.557494372460354 $214 -29.022331787858974 $208 $326 forward 7 unknown #
coedge $-1 $327 $311 $125 $211 forward $200 $-1 #
edge $-1 $213 29.022331787858974 $328 43.557494372460354 $210 $329 forward 7 unknown #
coedge $-1 $126 $205 $322 $330 reversed $121 $-1 #
vertex $-1 $211 $331 #
vertex $-1 $209 $332 #
straight-curve $-1 -65.312244868018638 0 0.86976024417938724 0 1 0 I I #
face $-1 $-1 $228 $29 $-1 $333 reversed single #
loop $-1 $-1 $334 $128 #
plane-surface $-1 0 0 15.534557001232061 0 0 1 1 0 0 forward_v I I I I #
coedge $-1 $335 $336 $337 $338 reversed $129 $-1 #
coedge $-1 $339 $131 $133 $226 forward $81 $-1 #
coedge $-1 $131 $339 $335 $340 forward $81 $-1 #
coedge $-1 $337 $134 $131 $223 forward $228 $-1 #
edge $-1 $230 -20.184683525430316 $341 11.573282036677242 $222 $342 forward 7 unknown #
coedge $-1 $343 $344 $132 $225 forward $217 $-1 #
edge $-1 $345 -42.204583366253054 $229 -31.985848763301128 $224 $346 forward 7 unknown #
edge $-1 $230 -2.8915938760888084e-014 $345 13.97235658475039 $133 $347 forward 7 unknown #
coedge $-1 $134 $337 $343 $348 reversed $228 $-1 #
loop $-1 $-1 $337 $216 #
vertex $-1 $348 $349 #
vertex $-1 $135 $350 #
straight-curve $-1 -24.490384269806853 -44.939905644130327 61.399412706887674 0 0 -1 I I #
coedge $-1 $232 $232 $-1 $351 reversed $138 $-1 #
edge $-1 $352 0 $352 6.2831853071796004 $139 $353 forward 7 unknown #
vertex $-1 $142 $354 #
ellipse-curve $-1 -8.6114014887530743 -39.830538342654364 10.769994806080987 0 -0.68199836817093118 0.7313536940579346 1.5 0 0 1 I I #
face $-1 $-1 $355 $31 $-1 $356 forward single #
loop $-1 $-1 $357 $143 #
plane-surface $-1 7.2675812923007044 -153.85150881486291 122.79882541377535 -1 0 0 0 -0.68199836817093118 0.7313536940579346 forward_v I I I I #
coedge $-1 $149 $358 $241 $359 forward $144 $-1 #
coedge $-1 $244 $146 $360 $361 reversed $90 $-1 #
coedge $-1 $146 $244 $239 $359 reversed $90 $-1 #
coedge $-1 $357 $362 $146 $243 forward $237 $-1 #
edge $-1 $363 -13.97235658475039 $364 2.8915938760888084e-014 $242 $365 forward 7 unknown #
coedge $-1 $241 $240 $147 $245 forward $90 $-1 #
edge $-1 $366 -13.97235658475039 $249 2.8915938760888084e-014 $147 $367 forward 7 unknown #
coedge $-1 $360 $368 $148 $247 forward $355 $-1 #
edge $-1 $250 31.985848763301128 $366 42.204583366253054 $246 $369 forward 7 unknown #
coedge $-1 $358 $149 $368 $370 reversed $144 $-1 #
vertex $-1 $150 $371 #
vertex $-1 $247 $372 #
straight-curve $-1 39.025546854408262 -44.939905644130327 61.399412706887674 0 0 1 I I #
coedge $-1 $252 $252 $-1 $373 reversed $153 $-1 #
edge $-1 $374 0 $374 6.2831853071796004 $154 $375 forward 7 unknown #
vertex $-1 $157 $376 #
ellipse-curve $-1 23.146564073354483 -39.830538342654364 10.769994806080987 0 -0.68199836817093118 0.7313536940579346 1.5 0 0 1 I I #
face $-1 $-1 $268 $33 $-1 $377 forward single #
loop $-1 $-1 $378 $158 #
plane-surface $-1 0 44.939905644130327 0 0 -1 0 0 0 -1 forward_v I I I I #
coedge $-1 $379 $380 $381 $382 reversed $159 $-1 #
coedge $-1 $383 $161 $163 $266 forward $99 $-1 #
coedge $-1 $161 $383 $379 $384 forward $99 $-1 #
coedge $-1 $381 $164 $161 $263 forward $268 $-1 #
edge $-1 $270 -10.897490921899113 $385 26.542243251428111 $262 $386 forward 7 unknown #
coedge $-1 $387 $388 $162 $265 forward $257 $-1 #
edge $-1 $389 -80.503762082927693 $269 -66.317261933782916 $264 $390 forward 7 unknown #
edge $-1 $270 72.964349418050858 $389 89.879811288260584 $163 $391 forward 7 unknown #
coedge $-1 $164 $381 $387 $392 forward $268 $-1 #
loop $-1 $-1 $381 $256 #
vertex $-1 $265 $393 #
vertex $-1 $165 $394 #
straight-curve $-1 -3.0751147571346138 64.95959772867289 15.534557001232059 0 -1 0 I I #
coedge $-1 $272 $272 $-1 $395 reversed $168 $-1 #
edge $-1 $396 0 $396 6.2831853071796004 $169 $397 forward 7 unknown #
vertex $-1 $172 $398 #
ellipse-curve $-1 7.6219521495303013 40.333495333464505 8.4413069266596477 0 0.83867057594974714 0.54463902268945019 1.5 0 0 1 I I #
coedge $-1 $276 $276 $-1 $399 reversed $175 $-1 #
edge $-1 $400 0 $400 6.2831853071796004 $176 $401 forward 7 unknown #
vertex $-1 $179 $402 #
ellipse-curve $-1 23.667552509527681 40.333495333464505 8.4413069266596477 0 0.83867057594974714 0.54463902268945019 1.5 0 0 1 I I #
face $-1 $-1 $195 $27 $-1 $403 reversed single #
loop $-1 $-1 $296 $180 #
plane-surface $-1 0 44.939905644130327 0 0 -1 0 0 0 -1 forward_v I I I I #
coedge $-1 $404 $294 $297 $405 forward $181 $-1 #
coedge $-1 $300 $183 $184 $288 reversed $113 $-1 #
coedge $-1 $294 $404 $183 $286 reversed $181 $-1 #
edge $-1 $301 -15.534557001232061 $406 15.534557001232061 $285 $407 forward 7 unknown #
coedge $-1 $185 $184 $404 $408 forward $73 $-1 #
edge $-1 $292 -79.847407452620018 $406 79.847407452620018 $284 $409 forward 7 unknown #
coedge $-1 $297 $296 $185 $290 reversed $281 $-1 #
edge $-1 $410 -79.847407452620018 $291 79.847407452620018 $289 $411 forward 7 unknown #
vertex $-1 $187 $412 #
vertex $-1 $303 $413 #
straight-curve $-1 79.847407452620018 0 -15.534557001232061 0 -1 0 I I #
coedge $-1 $283 $285 $188 $295 reversed $181 $-1 #
edge $-1 $298 -44.939905644130327 $301 44.939905644130327 $294 $414 forward 7 unknown #
coedge $-1 $289 $189 $194 $304 forward $281 $-1 #
coedge $-1 $189 $289 $283 $405 reversed $281 $-1 #
vertex $-1 $190 $415 #
straight-curve $-1 0 44.939905644130327 15.534557001232061 -1 0 0 I I #
coedge $-1 $191 $284 $193 $303 reversed $113 $-1 #
vertex $-1 $295 $416 #
straight-curve $-1 0 -44.939905644130327 15.534557001232061 1 0 0 I I #
edge $-1 $196 -15.534557001232061 $292 15.534557001232061 $193 $417 forward 7 unknown #
edge $-1 $197 -15.534557001232061 $291 15.534557001232061 $194 $418 forward 7 unknown #
point $-1 79.847407452620018 -44.939905644130327 15.534557001232061 #
point $-1 79.847407452620018 44.939905644130327 15.534557001232061 #
face $-1 $-1 $324 $28 $-1 $419 reversed single #
loop $-1 $-1 $420 $199 #
plane-surface $-1 -79.847407452620018 0 0 1 0 0 0 0 -1 forward_v I I I I #
coedge $-1 $311 $327 $203 $314 forward $200 $-1 #
coedge $-1 $210 $310 $202 $312 forward $200 $-1 #
edge $-1 $318 -3.5885213098023305 $213 1.7760139327203683 $311 $421 forward 7 unknown #
coedge $-1 $204 $203 $420 $422 reversed $77 $-1 #
edge $-1 $423 -43.557494372460354 $318 -29.022331787858974 $310 $424 forward 7 unknown #
coedge $-1 $323 $322 $204 $316 forward $324 $-1 #
edge $-1 $317 29.022331787858974 $425 43.557494372460354 $315 $426 forward 7 unknown #
vertex $-1 $316 $427 #
vertex $-1 $314 $428 #
straight-curve $-1 -65.312244868018638 0 -4.4947749983433116 0 -1 0 I I #
coedge $-1 $429 $430 $207 $321 forward $308 $-1 #
edge $-1 $328 -44.939905644130327 $325 44.939905644130327 $320 $431 forward 7 unknown #
coedge $-1 $315 $208 $212 $330 forward $324 $-1 #
coedge $-1 $208 $315 $429 $432 reversed $324 $-1 #
loop $-1 $-1 $315 $307 #
vertex $-1 $432 $433 #
straight-curve $-1 -36.289913080159664 44.939905644130327 0.86976024417938724 1 0 0 I I #
coedge $-1 $310 $210 $430 $434 forward $200 $-1 #
vertex $-1 $434 $435 #
straight-curve $-1 -36.289913080159664 -44.939905644130327 0.86976024417938724 -1 0 0 I I #
edge $-1 $214 -1.7760139327203683 $317 3.5885213098023305 $322 $436 forward 7 unknown #
point $-1 -65.312244868018638 -44.939905644130327 0.86976024417938724 #
point $-1 -65.312244868018638 44.939905644130327 0.86976024417938724 #
plane-surface $-1 0 -44.939905644130327 0 0 1 0 0 0 1 forward_v I I I I #
coedge $-1 $344 $343 $336 $437 forward $217 $-1 #
coedge $-1 $336 $219 $221 $340 reversed $129 $-1 #
coedge $-1 $219 $335 $334 $437 reversed $129 $-1 #
coedge $-1 $227 $222 $219 $338 forward $228 $-1 #
edge $-1 $341 -55.393980095957765 $438 -45.864855705655614 $337 $439 forward 7 unknown #
coedge $-1 $221 $220 $344 $440 reversed $81 $-1 #
edge $-1 $441 -13.97235658475039 $341 2.8915938760888084e-014 $335 $442 forward 7 unknown #
vertex $-1 $223 $443 #
straight-curve $-1 -4.3057007443765372 -44.939905644130327 6.0054326109299145 1 0 0 I I #
coedge $-1 $334 $224 $227 $348 forward $217 $-1 #
coedge $-1 $224 $334 $339 $440 forward $217 $-1 #
vertex $-1 $225 $444 #
straight-curve $-1 -24.490384269806853 -76.925754407431455 15.534557001232059 0 -1 0 I I #
straight-curve $-1 -24.490384269806853 -44.939905644130306 6.0054326109299296 0 0.7313536940579346 0.68199836817093118 I I #
edge $-1 $229 -24.490384269806853 $438 7.2675812923007044 $227 $445 forward 7 unknown #
point $-1 -24.490384269806853 -44.939905644130327 15.534557001232061 #
point $-1 -24.490384269806853 -44.939905644130327 6.0054326109299101 #
edge $-1 $446 1 $446 0 $232 $-1 forward 7 unknown #
vertex $-1 $233 $447 #
ellipse-curve $-1 -8.6114014887530743 -38.010765970269951 8.8185278979455894 0 -0.68199836817093118 0.7313536940579346 1.5 0 0 1 I I #
point $-1 -7.1114014887530743 -39.830538342654393 10.769994806081012 #
loop $-1 $-1 $360 $236 #
plane-surface $-1 0 0 15.534557001232061 0 0 1 1 0 0 forward_v I I I I #
coedge $-1 $362 $242 $358 $448 reversed $237 $-1 #
coedge $-1 $239 $248 $357 $448 forward $144 $-1 #
edge $-1 $364 11.573282036677242 $249 43.331247598784799 $239 $449 forward 7 unknown #
coedge $-1 $450 $246 $240 $361 forward $355 $-1 #
edge $-1 $366 -43.331247598784799 $363 -11.573282036677242 $360 $451 forward 7 unknown #
coedge $-1 $242 $357 $450 $452 reversed $237 $-1 #
vertex $-1 $361 $453 #
vertex $-1 $359 $454 #
straight-curve $-1 7.2675812923007044 -44.939905644130306 6.0054326109299296 0 -0.7313536940579346 -0.68199836817093118 I I #
vertex $-1 $247 $455 #
straight-curve $-1 39.025546854408262 -44.939905644130306 6.0054326109299296 0 -0.7313536940579346 -0.68199836817093118 I I #
coedge $-1 $246 $450 $248 $370 forward $355 $-1 #
straight-curve $-1 39.025546854408262 -76.925754407431455 15.534557001232059 0 1 0 I I #
edge $-1 $456 7.2675812923007044 $250 39.025546854408262 $248 $457 forward 7 unknown #
point $-1 39.025546854408262 -44.939905644130327 6.0054326109299101 #
point $-1 39.025546854408262 -44.939905644130327 15.534557001232061 #
edge $-1 $458 1 $458 0 $252 $-1 forward 7 unknown #
vertex $-1 $253 $459 #
ellipse-curve $-1 23.146564073354483 -38.010765970269951 8.8185278979455894 0 -0.68199836817093118 0.7313536940579346 1.5 0 0 1 I I #
point $-1 24.646564073354483 -39.830538342654393 10.769994806081012 #
plane-surface $-1 0 0 15.534557001232061 0 0 1 1 0 0 forward_v I I I I #
coedge $-1 $388 $387 $380 $460 forward $257 $-1 #
coedge $-1 $380 $259 $261 $384 reversed $159 $-1 #
coedge $-1 $259 $379 $378 $460 reversed $159 $-1 #
coedge $-1 $267 $262 $259 $382 forward $268 $-1 #
edge $-1 $385 -29.23251270587425 $461 -20.019692084542562 $381 $462 forward 7 unknown #
coedge $-1 $261 $260 $388 $463 reversed $99 $-1 #
edge $-1 $464 -89.879811288260584 $385 -72.964349418050858 $379 $465 forward 7 unknown #
vertex $-1 $263 $466 #
straight-curve $-1 7.8223761647644992 35.727085022798647 15.534557001232059 1 0 0 I I #
coedge $-1 $378 $264 $267 $392 reversed $257 $-1 #
coedge $-1 $264 $378 $383 $463 forward $257 $-1 #
vertex $-1 $265 $467 #
straight-curve $-1 -3.0751147571346138 44.939905644130327 81.851818935014975 0 0 1 I I #
straight-curve $-1 -3.0751147571346138 -4.0121469354201338 76.727609951467372 0 0.54463902268945019 -0.83867057594974714 I I #
edge $-1 $461 -34.36461941619261 $269 3.0751147571346138 $387 $468 forward 7 unknown #
point $-1 -3.0751147571346138 44.939905644130327 15.534557001232061 #
point $-1 -3.0751147571346138 35.72708502279864 15.534557001232059 #
edge $-1 $469 1 $469 0 $272 $-1 forward 7 unknown #
vertex $-1 $273 $470 #
ellipse-curve $-1 7.6219521495303013 38.346301403085178 7.1508081406368333 0 0.83867057594974714 0.54463902268945019 1.5 0 0 1 I I #
point $-1 9.1219521495303013 40.333495333464469 8.4413069266596281 #
edge $-1 $471 1 $471 0 $276 $-1 forward 7 unknown #
vertex $-1 $277 $472 #
ellipse-curve $-1 23.667552509527681 38.346301403085178 7.1508081406368333 0 0.83867057594974714 0.54463902268945019 1.5 0 0 1 I I #
point $-1 25.167552509527681 40.333495333464469 8.4413069266596281 #
plane-surface $-1 79.847407452620018 0 0 -1 0 0 0 0 1 forward_v I I I I #
coedge $-1 $285 $283 $287 $408 reversed $181 $-1 #
edge $-1 $298 -15.534557001232061 $410 15.534557001232061 $297 $473 forward 7 unknown #
vertex $-1 $408 $474 #
straight-curve $-1 -79.847407452620018 -44.939905644130327 0 0 0 -1 I I #
edge $-1 $406 -44.939905644130327 $410 44.939905644130327 $404 $475 forward 7 unknown #
straight-curve $-1 0 -44.939905644130327 -15.534557001232061 -1 0 0 I I #
vertex $-1 $290 $476 #
straight-curve $-1 0 44.939905644130327 -15.534557001232061 1 0 0 I I #
point $-1 79.847407452620018 44.939905644130327 -15.534557001232061 #
point $-1 79.847407452620018 -44.939905644130327 -15.534557001232061 #
straight-curve $-1 -79.847407452620018 0 15.534557001232061 0 -1 0 I I #
point $-1 -79.847407452620018 44.939905644130327 15.534557001232061 #
point $-1 -79.847407452620018 -44.939905644130327 15.534557001232061 #
straight-curve $-1 79.847407452620018 -44.939905644130327 0 0 0 -1 I I #
straight-curve $-1 79.847407452620018 44.939905644130327 0 0 0 -1 I I #
plane-surface $-1 0 44.939905644130327 0 0 -1 0 0 0 -1 forward_v I I I I #
coedge $-1 $430 $429 $313 $422 forward $308 $-1 #
straight-curve $-1 -65.312244868018638 -44.939905644130327 -0.90625368854098109 0 0 1 I I #
edge $-1 $425 -44.939905644130327 $423 44.939905644130327 $420 $477 forward 7 unknown #
vertex $-1 $314 $478 #
straight-curve $-1 -36.289913080159664 -44.939905644130327 -4.4947749983433116 1 0 0 I I #
vertex $-1 $316 $479 #
straight-curve $-1 -36.289913080159664 44.939905644130327 -4.4947749983433116 -1 0 0 I I #
point $-1 -65.312244868018638 44.939905644130327 -4.4947749983433116 #
point $-1 -65.312244868018638 -44.939905644130327 -4.4947749983433116 #
coedge $-1 $420 $320 $323 $432 forward $308 $-1 #
coedge $-1 $320 $420 $327 $434 reversed $308 $-1 #
straight-curve $-1 -79.847407452620018 0 0.86976024417938724 0 1 0 I I #
edge $-1 $325 -0.86976024417938724 $425 4.4947749983433116 $323 $480 forward 7 unknown #
point $-1 -79.847407452620018 44.939905644130327 0.86976024417938724 #
edge $-1 $328 -0.86976024417938724 $423 4.4947749983433116 $430 $481 forward 7 unknown #
point $-1 -79.847407452620018 -44.939905644130327 0.86976024417938724 #
straight-curve $-1 -65.312244868018638 44.939905644130327 -0.90625368854098109 0 0 -1 I I #
edge $-1 $438 31.985848763301128 $441 42.204583366253054 $334 $482 forward 7 unknown #
vertex $-1 $437 $483 #
straight-curve $-1 7.2675812923007044 -44.939905644130327 61.399412706887674 0 0 1 I I #
edge $-1 $441 -11.573282036677242 $345 20.184683525430316 $344 $484 forward 7 unknown #
vertex $-1 $440 $485 #
straight-curve $-1 7.2675812923007044 -44.939905644130306 6.0054326109299296 0 -0.7313536940579346 -0.68199836817093118 I I #
point $-1 7.2675812923007044 -44.939905644130327 6.0054326109299101 #
point $-1 -24.490384269806853 -34.721171041178401 15.534557001232061 #
straight-curve $-1 0 -44.939905644130327 15.534557001232061 1 0 0 I I #
vertex $-1 $351 $486 #
point $-1 -7.1114014887530743 -38.010765970269951 8.8185278979455894 #
edge $-1 $456 45.864855705655614 $364 55.393980095957765 $358 $487 forward 7 unknown #
straight-curve $-1 -4.3057007443765372 -44.939905644130327 6.0054326109299145 1 0 0 I I #
coedge $-1 $368 $360 $362 $452 forward $355 $-1 #
straight-curve $-1 -4.3057007443765372 -34.721171041178401 15.534557001232061 -1 0 0 I I #
edge $-1 $363 -42.204583366253054 $456 -31.985848763301128 $450 $488 forward 7 unknown #
point $-1 7.2675812923007044 -34.721171041178401 15.534557001232061 #
point $-1 7.2675812923007044 -44.939905644130327 6.0054326109299101 #
point $-1 39.025546854408262 -34.721171041178401 15.534557001232061 #
vertex $-1 $370 $489 #
straight-curve $-1 0 -44.939905644130327 15.534557001232061 1 0 0 I I #
vertex $-1 $373 $490 #
point $-1 24.646564073354483 -38.010765970269951 8.8185278979455894 #
edge $-1 $461 66.317261933782916 $464 80.503762082927693 $378 $491 forward 7 unknown #
vertex $-1 $392 $492 #
straight-curve $-1 34.36461941619261 64.95959772867289 15.534557001232059 0 1 0 I I #
edge $-1 $464 -26.542243251428111 $389 10.897490921899113 $388 $493 forward 7 unknown #
vertex $-1 $463 $494 #
straight-curve $-1 34.36461941619261 -4.0121469354201338 76.727609951467372 0 -0.54463902268945019 0.83867057594974714 I I #
point $-1 34.36461941619261 35.72708502279864 15.534557001232059 #
point $-1 -3.0751147571346138 44.93990564413032 1.3480568520872822 #
straight-curve $-1 0 44.939905644130327 15.534557001232061 -1 0 0 I I #
vertex $-1 $395 $495 #
point $-1 9.1219521495303013 38.346301403085178 7.1508081406368333 #
vertex $-1 $399 $496 #
point $-1 25.167552509527681 38.346301403085178 7.1508081406368333 #
straight-curve $-1 -79.847407452620018 44.939905644130327 0 0 0 -1 I I #
point $-1 -79.847407452620018 -44.939905644130327 -15.534557001232061 #
straight-curve $-1 -79.847407452620018 0 -15.534557001232061 0 1 0 I I #
point $-1 -79.847407452620018 44.939905644130327 -15.534557001232061 #
straight-curve $-1 -79.847407452620018 0 -4.4947749983433116 0 -1 0 I I #
point $-1 -79.847407452620018 -44.939905644130327 -4.4947749983433116 #
point $-1 -79.847407452620018 44.939905644130327 -4.4947749983433116 #
straight-curve $-1 -79.847407452620018 44.939905644130327 0 0 0 -1 I I #
straight-curve $-1 -79.847407452620018 -44.939905644130327 0 0 0 -1 I I #
straight-curve $-1 7.2675812923007044 -76.925754407431455 15.534557001232059 0 1 0 I I #
point $-1 7.2675812923007044 -44.939905644130327 15.534557001232061 #
straight-curve $-1 -4.3057007443765372 -34.721171041178401 15.534557001232061 -1 0 0 I I #
point $-1 7.2675812923007044 -34.721171041178401 15.534557001232061 #
point $-1 -8.6114014887530743 -36.987768418013552 7.7214973568586842 #
straight-curve $-1 7.2675812923007044 -44.939905644130327 61.399412706887674 0 0 -1 I I #
straight-curve $-1 7.2675812923007044 -76.925754407431455 15.534557001232059 0 -1 0 I I #
point $-1 7.2675812923007044 -44.939905644130327 15.534557001232061 #
point $-1 23.146564073354483 -36.987768418013552 7.7214973568586842 #
straight-curve $-1 34.36461941619261 44.939905644130327 81.851818935014975 0 0 -1 I I #
point $-1 34.36461941619261 44.939905644130327 15.534557001232061 #
straight-curve $-1 7.8223761647644992 44.939905644130327 1.3480568520872751 -1 0 0 I I #
point $-1 34.36461941619261 44.93990564413032 1.3480568520872822 #
point $-1 7.6219521495303013 37.088295539160555 6.3338496066026586 #
point $-1 23.667552509527681 37.088295539160555 6.3338496066026586 #
End-of-ACIS-data 