500 0 6 0           
7 Unknown 11 ACIS 5.0 NT 24 Fri Mar 26 15:01:20 1999 
-1 9.9999999999999995e-007 1e-010 
body $-1 $6 $-1 $7 #
body $-1 $8 $-1 $9 #
body $-1 $10 $-1 $11 #
body $-1 $12 $-1 $13 #
body $-1 $14 $-1 $15 #
body $-1 $16 $-1 $17 #
lump $-1 $-1 $18 $0 #
transform $-1 1 0 0 0 1 0 0 0 1 45.22598956266976 21.888236118065191 10.377189564101661 1 rotate no_reflect no_shear #
lump $-1 $-1 $19 $1 #
transform $-1 1 0 0 0 1 0 0 0 1 45.22598956266976 21.888236118065191 10.377189564101661 1 rotate no_reflect no_shear #
lump $-1 $-1 $20 $2 #
transform $-1 1 0 0 0 1 0 0 0 1 45.22598956266976 21.888236118065191 10.377189564101661 1 rotate no_reflect no_shear #
lump $-1 $-1 $21 $3 #
transform $-1 1 0 0 0 1 0 0 0 1 45.22598956266976 21.888236118065191 10.377189564101661 1 rotate no_reflect no_shear #
lump $-1 $-1 $22 $4 #
transform $-1 1 0 0 0 1 0 0 0 1 45.22598956266976 21.888236118065191 10.377189564101661 1 rotate no_reflect no_shear #
lump $-1 $-1 $23 $5 #
transform $-1 1 0 0 0 1 0 0 0 1 45.22598956266976 21.888236118065191 10.377189564101661 1 rotate no_reflect no_shear #
shell $-1 $-1 $-1 $24 $-1 $6 #
shell $-1 $-1 $-1 $25 $-1 $8 #
shell $-1 $-1 $-1 $26 $-1 $10 #
shell $-1 $-1 $-1 $27 $-1 $12 #
shell $-1 $-1 $-1 $28 $-1 $14 #
shell $-1 $-1 $-1 $29 $-1 $16 #
face $-1 $30 $31 $18 $-1 $32 forward single #
face $-1 $33 $34 $19 $-1 $35 forward single #
face $-1 $36 $37 $20 $-1 $38 reversed single #
face $-1 $39 $40 $21 $-1 $41 forward single #
face $-1 $42 $43 $22 $-1 $44 reversed single #
face $-1 $45 $46 $23 $-1 $47 forward single #
face $-1 $48 $49 $18 $-1 $50 reversed single #
loop $-1 $-1 $51 $24 #
plane-surface $-1 0 0 10.377189564101661 0 0 1 1 0 0 forward_v I I I I #
face $-1 $52 $53 $19 $-1 $54 reversed single #
loop $-1 $-1 $55 $25 #
plane-surface $-1 -45.22598956266976 0 0 1 0 0 0 0 -1 forward_v I I I I #
face $-1 $56 $57 $20 $-1 $58 reversed single #
loop $-1 $-1 $59 $26 #
plane-surface $-1 -19.97330096035359 -73.769360634315532 75.818727038026609 -1 0 0 0 -0.57357644374324357 0.81915203911291934 forward_v I I I I #
face $-1 $60 $61 $21 $-1 $62 forward single #
loop $-1 $63 $64 $27 #
cone-surface $-1 -29.088847612081878 -12.99531276716831 2.1743178934736731 0 0.57357644374324357 -0.81915203911291934 3 0 0 1 I I 0 1 3 forward I I I I #
face $-1 $65 $66 $22 $-1 $67 reversed single #
loop $-1 $-1 $68 $28 #
plane-surface $-1 21.741890952886372 -73.769360634315532 75.818727038026609 -1 0 0 0 -0.57357644374324357 0.81915203911291934 forward_v I I I I #
face $-1 $69 $70 $23 $-1 $71 forward single #
loop $-1 $72 $73 $29 #
cone-surface $-1 12.626344301158085 -12.99531276716831 2.1743178934736731 0 0.57357644374324357 -0.81915203911291934 3 0 0 1 I I 0 1 3 forward I I I I #
face $-1 $74 $75 $18 $-1 $76 reversed single #
loop $-1 $-1 $77 $30 #
plane-surface $-1 0 0 -10.377189564101661 0 0 1 1 0 0 forward_v I I I I #
coedge $-1 $78 $79 $80 $81 forward $31 $-1 #
face $-1 $82 $83 $19 $-1 $84 forward single #
loop $-1 $-1 $85 $33 #
plane-surface $-1 0 21.888236118065191 0 0 -1 0 0 0 -1 forward_v I I I I #
coedge $-1 $86 $87 $88 $89 forward $34 $-1 #
face $-1 $90 $91 $20 $-1 $92 reversed single #
loop $-1 $-1 $93 $36 #
plane-surface $-1 -29.088847612081878 -21.888236118065187 1.7248038957055201 0 -0.57357644374324357 0.81915203911291934 1 0 0 forward_v I I I I #
coedge $-1 $94 $95 $96 $97 reversed $37 $-1 #
face $-1 $-1 $98 $21 $-1 $99 forward single #
loop $-1 $100 $101 $39 #
cone-surface $-1 -29.088847612081878 -9.4204683049309157 -2.9310890016256224 0 0.57357644374324357 -0.81915203911291934 1.5 0 0 1 I I -0.70710678118654757 0.70710678118654757 1.5 forward I I I I #
loop $-1 $-1 $102 $27 #
coedge $-1 $64 $64 $103 $104 reversed $40 $-1 #
face $-1 $105 $106 $22 $-1 $107 reversed single #
loop $-1 $-1 $108 $42 #
plane-surface $-1 12.626344301158085 -21.888236118065187 1.7248038957055201 0 -0.57357644374324357 0.81915203911291934 1 0 0 forward_v I I I I #
coedge $-1 $109 $110 $111 $112 reversed $43 $-1 #
face $-1 $-1 $113 $23 $-1 $114 forward single #
loop $-1 $115 $116 $45 #
cone-surface $-1 12.626344301158085 -9.4204683049309157 -2.9310890016256224 0 0.57357644374324357 -0.81915203911291934 1.5 0 0 1 I I -0.70710678118654757 0.70710678118654757 1.5 forward I I I I #
loop $-1 $-1 $117 $29 #
coedge $-1 $73 $73 $118 $119 reversed $46 $-1 #
face $-1 $120 $121 $18 $-1 $122 reversed single #
loop $-1 $-1 $123 $48 #
plane-surface $-1 0 -21.888236118065191 0 0 1 0 0 0 1 forward_v I I I I #
coedge $-1 $124 $125 $126 $127 forward $49 $-1 #
coedge $-1 $128 $51 $129 $130 forward $31 $-1 #
coedge $-1 $51 $128 $131 $132 forward $31 $-1 #
coedge $-1 $133 $134 $51 $81 reversed $135 $-1 #
edge $-1 $136 -21.888236118065191 $137 21.888236118065191 $80 $138 forward 7 unknown #
face $-1 $139 $140 $19 $-1 $141 reversed single #
loop $-1 $-1 $88 $52 #
plane-surface $-1 -48.736787212099557 0 -2.3846844111668268 0 0 1 1 0 0 forward_v I I I I #
coedge $-1 $142 $143 $87 $144 forward $53 $-1 #
coedge $-1 $145 $55 $146 $147 reversed $34 $-1 #
coedge $-1 $55 $145 $85 $144 reversed $34 $-1 #
coedge $-1 $148 $149 $55 $89 reversed $83 $-1 #
edge $-1 $150 -21.888236118065191 $151 21.888236118065191 $88 $152 forward 7 unknown #
face $-1 $153 $154 $20 $-1 $155 reversed single #
loop $-1 $-1 $156 $56 #
plane-surface $-1 -38.204394263810165 -73.769360634315532 75.818727038026609 1 0 0 0 0.57357644374324357 -0.81915203911291934 forward_v I I I I #
coedge $-1 $157 $158 $159 $160 reversed $57 $-1 #
coedge $-1 $95 $59 $161 $162 reversed $37 $-1 #
coedge $-1 $59 $94 $157 $163 reversed $37 $-1 #
coedge $-1 $159 $164 $59 $97 forward $165 $-1 #
edge $-1 $166 14.996444199092576 $167 27.353331307641284 $96 $168 forward 7 unknown #
loop $-1 $-1 $103 $60 #
plane-surface $-1 -29.088847612081878 -21.888236118065187 1.7248038957055201 0 -0.57357644374324357 0.81915203911291934 1 0 0 forward_v I I I I #
loop $-1 $-1 $169 $39 #
coedge $-1 $101 $101 $102 $170 reversed $61 $-1 #
coedge $-1 $102 $102 $101 $170 forward $63 $-1 #
coedge $-1 $103 $103 $64 $104 forward $98 $-1 #
edge $-1 $171 3.3962547958739457e-016 $171 6.2831853071796004 $103 $172 forward 7 unknown #
face $-1 $173 $174 $22 $-1 $175 reversed single #
loop $-1 $-1 $176 $65 #
plane-surface $-1 3.5107976494297972 -73.769360634315532 75.818727038026609 1 0 0 0 0.57357644374324357 -0.81915203911291934 forward_v I I I I #
coedge $-1 $177 $178 $179 $180 reversed $66 $-1 #
coedge $-1 $110 $68 $181 $182 reversed $43 $-1 #
coedge $-1 $68 $109 $177 $183 reversed $43 $-1 #
coedge $-1 $179 $184 $68 $112 forward $185 $-1 #
edge $-1 $186 14.996444199092576 $187 27.353331307641284 $111 $188 forward 7 unknown #
loop $-1 $-1 $118 $69 #
plane-surface $-1 12.626344301158085 -21.888236118065187 1.7248038957055201 0 -0.57357644374324357 0.81915203911291934 1 0 0 forward_v I I I I #
loop $-1 $-1 $189 $45 #
coedge $-1 $116 $116 $117 $190 reversed $70 $-1 #
coedge $-1 $117 $117 $116 $190 forward $72 $-1 #
coedge $-1 $118 $118 $73 $119 forward $113 $-1 #
edge $-1 $191 3.3962547958739457e-016 $191 6.2831853071796004 $118 $192 forward 7 unknown #
face $-1 $193 $194 $18 $-1 $195 reversed single #
loop $-1 $-1 $196 $74 #
plane-surface $-1 -45.22598956266976 0 0 1 0 0 0 0 -1 forward_v I I I I #
coedge $-1 $197 $131 $196 $198 forward $75 $-1 #
coedge $-1 $199 $77 $197 $200 forward $49 $-1 #
coedge $-1 $77 $199 $201 $202 forward $49 $-1 #
coedge $-1 $134 $133 $77 $127 reversed $135 $-1 #
edge $-1 $203 -21.888236118065191 $204 21.888236118065191 $126 $205 forward 7 unknown #
coedge $-1 $79 $78 $206 $207 forward $31 $-1 #
coedge $-1 $208 $209 $78 $130 reversed $194 $-1 #
edge $-1 $137 -45.22598956266976 $210 45.22598956266976 $129 $211 forward 7 unknown #
coedge $-1 $123 $212 $79 $132 reversed $75 $-1 #
edge $-1 $213 -45.22598956266976 $136 45.22598956266976 $131 $214 forward 7 unknown #
coedge $-1 $126 $80 $212 $215 forward $135 $-1 #
coedge $-1 $80 $126 $208 $216 reversed $135 $-1 #
loop $-1 $-1 $133 $193 #
vertex $-1 $81 $217 #
vertex $-1 $81 $218 #
straight-curve $-1 45.22598956266976 0 10.377189564101661 0 1 0 I I #
face $-1 $219 $220 $19 $-1 $221 reversed single #
loop $-1 $-1 $222 $82 #
plane-surface $-1 -48.736787212099557 0 -8.2650390480980942 0 0 1 1 0 0 forward_v I I I I #
coedge $-1 $223 $85 $224 $225 reversed $53 $-1 #
coedge $-1 $85 $223 $148 $226 reversed $53 $-1 #
edge $-1 $150 2.3846844111668268 $227 8.2650390480980942 $85 $228 forward 7 unknown #
coedge $-1 $87 $86 $222 $229 forward $34 $-1 #
coedge $-1 $230 $231 $86 $147 forward $232 $-1 #
edge $-1 $233 -8.2650390480980942 $151 -2.3846844111668268 $146 $234 forward 7 unknown #
coedge $-1 $235 $88 $143 $226 forward $83 $-1 #
coedge $-1 $88 $235 $230 $236 forward $83 $-1 #
vertex $-1 $144 $237 #
vertex $-1 $236 $238 #
straight-curve $-1 -45.22598956266976 0 -2.3846844111668268 0 -1 0 I I #
face $-1 $-1 $165 $20 $-1 $239 forward single #
loop $-1 $-1 $240 $90 #
plane-surface $-1 0 -21.888236118065191 0 0 1 0 0 0 1 forward_v I I I I #
coedge $-1 $241 $242 $243 $244 reversed $91 $-1 #
coedge $-1 $245 $93 $95 $163 forward $57 $-1 #
coedge $-1 $93 $245 $241 $246 forward $57 $-1 #
coedge $-1 $243 $96 $93 $160 forward $165 $-1 #
edge $-1 $167 5.4288771543126515 $247 23.659970457769226 $159 $248 forward 7 unknown #
coedge $-1 $249 $250 $94 $162 forward $154 $-1 #
edge $-1 $251 -36.184559623307784 $166 -27.532173954911642 $161 $252 forward 7 unknown #
edge $-1 $167 -15.084973873629485 $251 4.3111677576717944e-015 $95 $253 forward 7 unknown #
coedge $-1 $96 $243 $249 $254 forward $165 $-1 #
loop $-1 $-1 $243 $153 #
vertex $-1 $162 $255 #
vertex $-1 $97 $256 #
straight-curve $-1 -19.97330096035359 -36.884680317157766 10.377189564101663 0 1 0 I I #
coedge $-1 $169 $169 $-1 $257 reversed $100 $-1 #
edge $-1 $258 0 $258 6.2831853071796004 $101 $259 forward 7 unknown #
vertex $-1 $104 $260 #
ellipse-curve $-1 -29.088847612081878 -15.709792563790838 6.0509967299035878 0 -0.57357644374324357 0.81915203911291934 3 0 0 1 I I #
face $-1 $-1 $185 $22 $-1 $261 forward single #
loop $-1 $-1 $262 $105 #
plane-surface $-1 0 -21.888236118065191 0 0 1 0 0 0 1 forward_v I I I I #
coedge $-1 $263 $264 $265 $266 reversed $106 $-1 #
coedge $-1 $267 $108 $110 $183 forward $66 $-1 #
coedge $-1 $108 $267 $263 $268 forward $66 $-1 #
coedge $-1 $265 $111 $108 $180 forward $185 $-1 #
edge $-1 $187 -15.42871880230733 $269 2.8023745011492451 $179 $270 forward 7 unknown #
coedge $-1 $271 $272 $109 $182 forward $174 $-1 #
edge $-1 $273 -36.184559623307784 $186 -27.532173954911642 $181 $274 forward 7 unknown #
edge $-1 $187 -15.084973873629485 $273 4.3111677576717944e-015 $110 $275 forward 7 unknown #
coedge $-1 $111 $265 $271 $276 forward $185 $-1 #
loop $-1 $-1 $265 $173 #
vertex $-1 $182 $277 #
vertex $-1 $112 $278 #
straight-curve $-1 21.741890952886372 -36.884680317157766 10.377189564101663 0 1 0 I I #
coedge $-1 $189 $189 $-1 $279 reversed $115 $-1 #
edge $-1 $280 0 $280 6.2831853071796004 $116 $281 forward 7 unknown #
vertex $-1 $119 $282 #
ellipse-curve $-1 12.626344301158085 -15.709792563790838 6.0509967299035878 0 -0.57357644374324357 0.81915203911291934 3 0 0 1 I I #
face $-1 $-1 $135 $18 $-1 $283 reversed single #
loop $-1 $-1 $208 $120 #
plane-surface $-1 0 21.888236118065191 0 0 -1 0 0 0 -1 forward_v I I I I #
coedge $-1 $206 $284 $123 $198 reversed $121 $-1 #
coedge $-1 $212 $123 $124 $200 reversed $75 $-1 #
edge $-1 $213 -10.377189564101661 $285 10.377189564101661 $196 $286 forward 7 unknown #
coedge $-1 $125 $124 $284 $287 forward $49 $-1 #
edge $-1 $204 -45.22598956266976 $285 45.22598956266976 $197 $288 forward 7 unknown #
coedge $-1 $209 $208 $125 $202 reversed $194 $-1 #
edge $-1 $289 -45.22598956266976 $203 45.22598956266976 $201 $290 forward 7 unknown #
vertex $-1 $127 $291 #
vertex $-1 $215 $292 #
straight-curve $-1 45.22598956266976 0 -10.377189564101661 0 -1 0 I I #
coedge $-1 $293 $196 $128 $207 reversed $121 $-1 #
edge $-1 $210 -21.888236118065191 $213 21.888236118065191 $206 $294 forward 7 unknown #
coedge $-1 $201 $129 $134 $216 forward $194 $-1 #
coedge $-1 $129 $201 $293 $295 reversed $194 $-1 #
vertex $-1 $130 $296 #
straight-curve $-1 0 21.888236118065191 10.377189564101661 -1 0 0 I I #
coedge $-1 $131 $197 $133 $215 reversed $75 $-1 #
vertex $-1 $207 $297 #
straight-curve $-1 0 -21.888236118065191 10.377189564101661 1 0 0 I I #
edge $-1 $136 -10.377189564101661 $204 10.377189564101661 $133 $298 forward 7 unknown #
edge $-1 $137 -10.377189564101661 $203 10.377189564101661 $134 $299 forward 7 unknown #
point $-1 45.22598956266976 -21.888236118065191 10.377189564101661 #
point $-1 45.22598956266976 21.888236118065191 10.377189564101661 #
face $-1 $-1 $232 $19 $-1 $300 reversed single #
loop $-1 $-1 $301 $139 #
plane-surface $-1 -52.247584861529354 0 -5.3248617296324605 1 0 0 0 0 -1 forward_v I I I I #
coedge $-1 $302 $224 $145 $229 reversed $140 $-1 #
coedge $-1 $143 $142 $301 $303 reversed $53 $-1 #
coedge $-1 $222 $304 $142 $225 forward $140 $-1 #
edge $-1 $305 -3.5107976494297972 $227 3.5107976494297972 $142 $306 forward 7 unknown #
edge $-1 $150 -3.5107976494297972 $307 3.5107976494297972 $143 $308 forward 7 unknown #
vertex $-1 $144 $309 #
straight-curve $-1 -45.22598956266976 21.888236118065191 0 0 0 -1 I I #
edge $-1 $233 -21.888236118065191 $227 21.888236118065191 $222 $310 forward 7 unknown #
coedge $-1 $311 $146 $149 $236 reversed $232 $-1 #
coedge $-1 $146 $311 $302 $312 reversed $232 $-1 #
loop $-1 $-1 $146 $219 #
vertex $-1 $147 $313 #
straight-curve $-1 -45.22598956266976 -21.888236118065191 0 0 0 1 I I #
coedge $-1 $149 $148 $314 $315 forward $83 $-1 #
edge $-1 $316 -3.5107976494297972 $151 3.5107976494297972 $230 $317 forward 7 unknown #
point $-1 -45.22598956266976 21.888236118065191 -2.3846844111668268 #
point $-1 -45.22598956266976 -21.888236118065191 -2.3846844111668268 #
plane-surface $-1 0 0 10.377189564101661 0 0 1 1 0 0 forward_v I I I I #
coedge $-1 $250 $249 $242 $318 forward $154 $-1 #
coedge $-1 $242 $156 $158 $246 reversed $91 $-1 #
coedge $-1 $156 $241 $240 $318 reversed $91 $-1 #
coedge $-1 $164 $159 $156 $244 forward $165 $-1 #
edge $-1 $247 -27.353331307641284 $319 -14.996444199092576 $243 $320 forward 7 unknown #
coedge $-1 $158 $157 $250 $321 reversed $57 $-1 #
edge $-1 $322 -4.3111677576717944e-015 $247 15.084973873629485 $241 $323 forward 7 unknown #
vertex $-1 $160 $324 #
straight-curve $-1 -14.544423806040939 -9.5313490095164823 10.377189564101661 -1 0 0 I I #
coedge $-1 $240 $161 $164 $254 reversed $154 $-1 #
coedge $-1 $161 $240 $245 $321 forward $154 $-1 #
vertex $-1 $162 $325 #
straight-curve $-1 -19.97330096035359 -21.888236118065191 37.909363519013304 0 0 1 I I #
straight-curve $-1 -19.97330096035359 -21.888236118065187 1.7248038957055201 0 -0.81915203911291934 -0.57357644374324357 I I #
edge $-1 $319 -38.204394263810165 $166 -19.97330096035359 $249 $326 forward 7 unknown #
point $-1 -19.97330096035359 -21.888236118065191 10.377189564101661 #
point $-1 -19.97330096035359 -9.5313490095164806 10.377189564101661 #
edge $-1 $327 1 $327 0 $169 $-1 forward 7 unknown #
vertex $-1 $170 $328 #
ellipse-curve $-1 -29.088847612081878 -10.280832970545781 -1.7023609429562434 0 -0.57357644374324357 0.81915203911291934 3 0 0 1 I I #
point $-1 -26.088847612081878 -15.709792563790838 6.0509967299035896 #
plane-surface $-1 0 0 10.377189564101661 0 0 1 1 0 0 forward_v I I I I #
coedge $-1 $272 $271 $264 $329 forward $174 $-1 #
coedge $-1 $264 $176 $178 $268 reversed $106 $-1 #
coedge $-1 $176 $263 $262 $329 reversed $106 $-1 #
coedge $-1 $184 $179 $176 $266 forward $185 $-1 #
edge $-1 $269 -27.353331307641284 $330 -14.996444199092576 $265 $331 forward 7 unknown #
coedge $-1 $178 $177 $272 $332 reversed $66 $-1 #
edge $-1 $333 -4.3111677576717944e-015 $269 15.084973873629485 $263 $334 forward 7 unknown #
vertex $-1 $180 $335 #
straight-curve $-1 6.3131721505790424 -9.5313490095164823 10.377189564101661 -1 0 0 I I #
coedge $-1 $262 $181 $184 $276 reversed $174 $-1 #
coedge $-1 $181 $262 $267 $332 forward $174 $-1 #
vertex $-1 $182 $336 #
straight-curve $-1 21.741890952886372 -21.888236118065191 37.909363519013304 0 0 1 I I #
straight-curve $-1 21.741890952886372 -21.888236118065187 1.7248038957055201 0 -0.81915203911291934 -0.57357644374324357 I I #
edge $-1 $330 3.5107976494297972 $186 21.741890952886372 $271 $337 forward 7 unknown #
point $-1 21.741890952886372 -21.888236118065191 10.377189564101661 #
point $-1 21.741890952886372 -9.5313490095164806 10.377189564101661 #
edge $-1 $338 1 $338 0 $189 $-1 forward 7 unknown #
vertex $-1 $190 $339 #
ellipse-curve $-1 12.626344301158085 -10.280832970545781 -1.7023609429562434 0 -0.57357644374324357 0.81915203911291934 3 0 0 1 I I #
point $-1 15.626344301158085 -15.709792563790838 6.0509967299035896 #
plane-surface $-1 45.22598956266976 0 0 -1 0 0 0 0 1 forward_v I I I I #
coedge $-1 $196 $293 $199 $287 reversed $121 $-1 #
vertex $-1 $287 $340 #
straight-curve $-1 -45.22598956266976 -21.888236118065191 0 0 0 -1 I I #
edge $-1 $285 -21.888236118065191 $289 21.888236118065191 $284 $341 forward 7 unknown #
straight-curve $-1 0 -21.888236118065191 -10.377189564101661 -1 0 0 I I #
vertex $-1 $202 $342 #
straight-curve $-1 0 21.888236118065191 -10.377189564101661 1 0 0 I I #
point $-1 45.22598956266976 21.888236118065191 -10.377189564101661 #
point $-1 45.22598956266976 -21.888236118065191 -10.377189564101661 #
coedge $-1 $284 $206 $209 $295 forward $121 $-1 #
straight-curve $-1 -45.22598956266976 0 10.377189564101661 0 -1 0 I I #
edge $-1 $210 -10.377189564101661 $289 10.377189564101661 $209 $343 forward 7 unknown #
point $-1 -45.22598956266976 21.888236118065191 10.377189564101661 #
point $-1 -45.22598956266976 -21.888236118065191 10.377189564101661 #
straight-curve $-1 45.22598956266976 -21.888236118065191 0 0 0 -1 I I #
straight-curve $-1 45.22598956266976 21.888236118065191 0 0 0 -1 I I #
plane-surface $-1 0 -21.888236118065191 0 0 1 0 0 0 1 forward_v I I I I #
coedge $-1 $344 $314 $223 $303 forward $220 $-1 #
coedge $-1 $304 $222 $231 $312 forward $140 $-1 #
edge $-1 $307 -2.9401773184656337 $305 2.9401773184656337 $223 $345 forward 7 unknown #
coedge $-1 $224 $302 $344 $346 forward $140 $-1 #
vertex $-1 $225 $347 #
straight-curve $-1 -48.736787212099557 21.888236118065191 -8.2650390480980942 1 0 0 I I #
vertex $-1 $226 $348 #
straight-curve $-1 -48.736787212099557 21.888236118065191 -2.3846844111668268 -1 0 0 I I #
point $-1 -45.22598956266976 21.888236118065191 -8.2650390480980942 #
straight-curve $-1 -45.22598956266976 0 -8.2650390480980942 0 1 0 I I #
coedge $-1 $231 $230 $349 $350 forward $232 $-1 #
edge $-1 $233 -3.5107976494297972 $351 3.5107976494297972 $231 $352 forward 7 unknown #
point $-1 -45.22598956266976 -21.888236118065191 -8.2650390480980942 #
coedge $-1 $301 $349 $235 $315 reversed $220 $-1 #
edge $-1 $307 -21.888236118065191 $316 21.888236118065191 $314 $353 forward 7 unknown #
vertex $-1 $315 $354 #
straight-curve $-1 -48.736787212099557 -21.888236118065191 -2.3846844111668268 1 0 0 I I #
edge $-1 $319 27.532173954911642 $322 36.184559623307784 $240 $355 forward 7 unknown #
vertex $-1 $254 $356 #
straight-curve $-1 -38.204394263810165 -36.884680317157766 10.377189564101663 0 -1 0 I I #
edge $-1 $322 -23.659970457769226 $251 -5.4288771543126515 $250 $357 forward 7 unknown #
vertex $-1 $321 $358 #
straight-curve $-1 -38.204394263810165 -21.888236118065187 1.7248038957055201 0 0.81915203911291934 0.57357644374324357 I I #
point $-1 -38.204394263810165 -9.5313490095164806 10.377189564101661 #
point $-1 -19.97330096035359 -21.888236118065191 1.7248038957055176 #
straight-curve $-1 0 -21.888236118065191 10.377189564101661 1 0 0 I I #
vertex $-1 $257 $359 #
point $-1 -26.088847612081878 -10.280832970545781 -1.7023609429562434 #
edge $-1 $330 27.532173954911642 $333 36.184559623307784 $262 $360 forward 7 unknown #
vertex $-1 $276 $361 #
straight-curve $-1 3.5107976494297972 -36.884680317157766 10.377189564101663 0 -1 0 I I #
edge $-1 $333 -2.8023745011492451 $273 15.42871880230733 $272 $362 forward 7 unknown #
vertex $-1 $332 $363 #
straight-curve $-1 3.5107976494297972 -21.888236118065187 1.7248038957055201 0 0.81915203911291934 0.57357644374324357 I I #
point $-1 3.5107976494297972 -9.5313490095164806 10.377189564101661 #
point $-1 21.741890952886372 -21.888236118065191 1.7248038957055176 #
straight-curve $-1 0 -21.888236118065191 10.377189564101661 1 0 0 I I #
vertex $-1 $279 $364 #
point $-1 15.626344301158085 -10.280832970545781 -1.7023609429562434 #
point $-1 -45.22598956266976 -21.888236118065191 -10.377189564101661 #
straight-curve $-1 -45.22598956266976 0 -10.377189564101661 0 1 0 I I #
point $-1 -45.22598956266976 21.888236118065191 -10.377189564101661 #
straight-curve $-1 -45.22598956266976 21.888236118065191 0 0 0 -1 I I #
coedge $-1 $349 $301 $304 $346 reversed $220 $-1 #
straight-curve $-1 -52.247584861529354 21.888236118065191 -5.3248617296324605 0 0 -1 I I #
edge $-1 $351 -21.888236118065191 $305 21.888236118065191 $344 $365 forward 7 unknown #
point $-1 -52.247584861529354 21.888236118065191 -8.2650390480980942 #
point $-1 -52.247584861529354 21.888236118065191 -2.3846844111668268 #
coedge $-1 $314 $344 $311 $350 reversed $220 $-1 #
edge $-1 $316 -2.9401773184656337 $351 2.9401773184656337 $349 $366 forward 7 unknown #
vertex $-1 $346 $367 #
straight-curve $-1 -48.736787212099557 -21.888236118065191 -8.2650390480980942 -1 0 0 I I #
straight-curve $-1 -52.247584861529354 0 -2.3846844111668268 0 -1 0 I I #
point $-1 -52.247584861529354 -21.888236118065191 -2.3846844111668268 #
straight-curve $-1 -38.204394263810165 -21.888236118065191 37.909363519013304 0 0 -1 I I #
point $-1 -38.204394263810165 -21.888236118065191 10.377189564101661 #
straight-curve $-1 -14.544423806040939 -21.888236118065191 1.724803895705517 1 0 0 I I #
point $-1 -38.204394263810165 -21.888236118065191 1.7248038957055176 #
point $-1 -29.088847612081878 -8.5601036393160506 -4.1598170602950013 #
straight-curve $-1 3.5107976494297972 -21.888236118065191 37.909363519013304 0 0 -1 I I #
point $-1 3.5107976494297972 -21.888236118065191 10.377189564101661 #
straight-curve $-1 6.3131721505790424 -21.888236118065191 1.724803895705517 1 0 0 I I #
point $-1 3.5107976494297972 -21.888236118065191 1.7248038957055176 #
point $-1 12.626344301158085 -8.5601036393160506 -4.1598170602950013 #
straight-curve $-1 -52.247584861529354 0 -8.2650390480980942 0 1 0 I I #
straight-curve $-1 -52.247584861529354 -21.888236118065191 -5.3248617296324605 0 0 -1 I I #
point $-1 -52.247584861529354 -21.888236118065191 -8.2650390480980942 #
End-of-ACIS-data 