500 0 10 0           
7 Unknown 11 ACIS 5.0 NT 24 Thu Mar 25 17:39:49 1999 
-1 9.9999999999999995e-007 1e-010 
body $-1 $10 $-1 $11 #
body $-1 $12 $-1 $13 #
body $-1 $14 $-1 $15 #
body $-1 $16 $-1 $17 #
body $-1 $18 $-1 $19 #
body $-1 $20 $-1 $21 #
body $-1 $22 $-1 $23 #
body $-1 $24 $-1 $25 #
body $-1 $26 $-1 $27 #
body $-1 $28 $-1 $29 #
lump $-1 $-1 $30 $0 #
transform $-1 1 0 0 0 1 0 0 0 1 43.872188482314527 26.045890150043167 11.533495660575619 1 rotate no_reflect no_shear #
lump $-1 $-1 $31 $1 #
transform $-1 1 0 0 0 1 0 0 0 1 43.872188482314527 26.045890150043167 11.533495660575619 1 rotate no_reflect no_shear #
lump $-1 $-1 $32 $2 #
transform $-1 1 0 0 0 1 0 0 0 1 43.872188482314527 26.045890150043167 11.533495660575619 1 rotate no_reflect no_shear #
lump $-1 $-1 $33 $3 #
transform $-1 1 0 0 0 1 0 0 0 1 43.872188482314527 26.045890150043167 11.533495660575619 1 rotate no_reflect no_shear #
lump $-1 $-1 $34 $4 #
transform $-1 1 0 0 0 1 0 0 0 1 43.872188482314527 26.045890150043167 11.533495660575619 1 rotate no_reflect no_shear #
lump $-1 $-1 $35 $5 #
transform $-1 1 0 0 0 1 0 0 0 1 43.872188482314527 26.045890150043167 11.533495660575619 1 rotate no_reflect no_shear #
lump $-1 $-1 $36 $6 #
transform $-1 1 0 0 0 1 0 0 0 1 43.872188482314527 26.045890150043167 11.533495660575619 1 rotate no_reflect no_shear #
lump $-1 $-1 $37 $7 #
transform $-1 1 0 0 0 1 0 0 0 1 43.872188482314527 26.045890150043167 11.533495660575619 1 rotate no_reflect no_shear #
lump $-1 $-1 $38 $8 #
transform $-1 1 0 0 0 1 0 0 0 1 43.872188482314527 26.045890150043167 11.533495660575619 1 rotate no_reflect no_shear #
lump $-1 $-1 $39 $9 #
transform $-1 1 0 0 0 1 0 0 0 1 43.872188482314527 26.045890150043167 11.533495660575619 1 rotate no_reflect no_shear #
shell $-1 $-1 $-1 $40 $-1 $10 #
shell $-1 $-1 $-1 $41 $-1 $12 #
shell $-1 $-1 $-1 $42 $-1 $14 #
shell $-1 $-1 $-1 $43 $-1 $16 #
shell $-1 $-1 $-1 $44 $-1 $18 #
shell $-1 $-1 $-1 $45 $-1 $20 #
shell $-1 $-1 $-1 $46 $-1 $22 #
shell $-1 $-1 $-1 $47 $-1 $24 #
shell $-1 $-1 $-1 $48 $-1 $26 #
shell $-1 $-1 $-1 $49 $-1 $28 #
face $-1 $50 $51 $30 $-1 $52 forward single #
face $-1 $53 $54 $31 $-1 $55 forward single #
face $-1 $56 $57 $32 $-1 $58 reversed single #
face $-1 $59 $60 $33 $-1 $61 forward single #
face $-1 $62 $63 $34 $-1 $64 forward single #
face $-1 $65 $66 $35 $-1 $67 forward single #
face $-1 $68 $69 $36 $-1 $70 reversed single #
face $-1 $71 $72 $37 $-1 $73 forward single #
face $-1 $74 $75 $38 $-1 $76 forward single #
face $-1 $77 $78 $39 $-1 $79 forward single #
face $-1 $80 $81 $30 $-1 $82 reversed single #
loop $-1 $-1 $83 $40 #
plane-surface $-1 0 0 11.533495660575619 0 0 1 1 0 0 forward_v I I I I #
face $-1 $84 $85 $31 $-1 $86 reversed single #
loop $-1 $-1 $87 $41 #
plane-surface $-1 -43.872188482314527 0 0 1 0 0 0 0 -1 forward_v I I I I #
face $-1 $88 $89 $32 $-1 $90 reversed single #
loop $-1 $-1 $91 $42 #
plane-surface $-1 -12.909777934618214 44.297216318815813 108.09458169129056 1 0 0 0 -0.6560590369687036 -0.75470957328743171 forward_v I I I I #
face $-1 $92 $93 $33 $-1 $94 forward single #
loop $-1 $95 $96 $43 #
cone-surface $-1 -10.374431283437808 22.683218077598667 8.2853188570437357 0 -0.6560590369687036 -0.75470957328743171 1 0 0 1 I I 0 1 1 forward I I I I #
face $-1 $97 $98 $34 $-1 $99 forward single #
loop $-1 $100 $101 $44 #
cone-surface $-1 -6.5714113066671942 22.683218077598667 8.2853188570437357 0 -0.6560590369687036 -0.75470957328743171 1 0 0 1 I I 0 1 1 forward I I I I #
face $-1 $102 $103 $35 $-1 $104 forward single #
loop $-1 $105 $106 $45 #
cone-surface $-1 -2.7683913298965805 22.683218077598667 8.2853188570437357 0 -0.6560590369687036 -0.75470957328743171 1 0 0 1 I I 0 1 1 forward I I I I #
face $-1 $107 $108 $36 $-1 $109 reversed single #
loop $-1 $-1 $110 $46 #
plane-surface $-1 26.133959948991084 44.297216318815813 108.09458169129056 1 0 0 0 -0.6560590369687036 -0.75470957328743171 forward_v I I I I #
face $-1 $111 $112 $37 $-1 $113 forward single #
loop $-1 $114 $115 $47 #
cone-surface $-1 28.669306600171495 22.683218077598667 8.2853188570437357 0 -0.6560590369687036 -0.75470957328743171 1 0 0 1 I I 0 1 1 forward I I I I #
face $-1 $116 $117 $38 $-1 $118 forward single #
loop $-1 $119 $120 $48 #
cone-surface $-1 32.472326576942095 22.683218077598667 8.2853188570437357 0 -0.6560590369687036 -0.75470957328743171 1 0 0 1 I I 0 1 1 forward I I I I #
face $-1 $121 $122 $39 $-1 $123 forward single #
loop $-1 $124 $125 $49 #
cone-surface $-1 36.275346553712723 22.683218077598667 8.2853188570437357 0 -0.6560590369687036 -0.75470957328743171 1 0 0 1 I I 0 1 1 forward I I I I #
face $-1 $126 $127 $30 $-1 $128 reversed single #
loop $-1 $-1 $129 $50 #
plane-surface $-1 0 0 -11.533495660575619 0 0 1 1 0 0 forward_v I I I I #
coedge $-1 $130 $131 $132 $133 forward $51 $-1 #
face $-1 $134 $135 $31 $-1 $136 forward single #
loop $-1 $-1 $137 $53 #
plane-surface $-1 0 26.045890150043167 0 0 -1 0 0 0 -1 forward_v I I I I #
coedge $-1 $138 $139 $140 $141 forward $54 $-1 #
face $-1 $142 $143 $32 $-1 $144 reversed single #
loop $-1 $-1 $145 $56 #
plane-surface $-1 -6.5714113066671871 -13.268275132017621 41.873060393943817 0 0.6560590369687036 0.75470957328743171 1 0 0 forward_v I I I I #
coedge $-1 $146 $147 $148 $149 reversed $57 $-1 #
face $-1 $-1 $150 $33 $-1 $151 forward single #
loop $-1 $152 $153 $59 #
cone-surface $-1 -10.374431283437808 21.198761121227466 6.5776465090140075 0 -0.6560590369687036 -0.75470957328743171 0.5 0 0 1 I I -0.70710678118654746 0.70710678118654746 0.5 forward I I I I #
loop $-1 $-1 $154 $43 #
coedge $-1 $96 $96 $155 $156 reversed $60 $-1 #
face $-1 $-1 $157 $34 $-1 $158 forward single #
loop $-1 $159 $160 $62 #
cone-surface $-1 -6.5714113066671942 21.198761121227466 6.5776465090140075 0 -0.6560590369687036 -0.75470957328743171 0.5 0 0 1 I I -0.70710678118654746 0.70710678118654746 0.5 forward I I I I #
loop $-1 $-1 $161 $44 #
coedge $-1 $101 $101 $162 $163 reversed $63 $-1 #
face $-1 $-1 $164 $35 $-1 $165 forward single #
loop $-1 $166 $167 $65 #
cone-surface $-1 -2.7683913298965805 21.198761121227466 6.5776465090140075 0 -0.6560590369687036 -0.75470957328743171 0.5 0 0 1 I I -0.70710678118654746 0.70710678118654746 0.5 forward I I I I #
loop $-1 $-1 $168 $45 #
coedge $-1 $106 $106 $169 $170 reversed $66 $-1 #
face $-1 $171 $172 $36 $-1 $173 reversed single #
loop $-1 $-1 $174 $68 #
plane-surface $-1 32.472326576942109 -13.268275132017621 41.873060393943817 0 0.6560590369687036 0.75470957328743171 1 0 0 forward_v I I I I #
coedge $-1 $175 $176 $177 $178 reversed $69 $-1 #
face $-1 $-1 $179 $37 $-1 $180 forward single #
loop $-1 $181 $182 $71 #
cone-surface $-1 28.669306600171495 21.198761121227466 6.5776465090140075 0 -0.6560590369687036 -0.75470957328743171 0.5 0 0 1 I I -0.70710678118654746 0.70710678118654746 0.5 forward I I I I #
loop $-1 $-1 $183 $47 #
coedge $-1 $115 $115 $184 $185 reversed $72 $-1 #
face $-1 $-1 $186 $38 $-1 $187 forward single #
loop $-1 $188 $189 $74 #
cone-surface $-1 32.472326576942095 21.198761121227466 6.5776465090140075 0 -0.6560590369687036 -0.75470957328743171 0.5 0 0 1 I I -0.70710678118654746 0.70710678118654746 0.5 forward I I I I #
loop $-1 $-1 $190 $48 #
coedge $-1 $120 $120 $191 $192 reversed $75 $-1 #
face $-1 $-1 $193 $39 $-1 $194 forward single #
loop $-1 $195 $196 $77 #
cone-surface $-1 36.275346553712723 21.198761121227466 6.5776465090140075 0 -0.6560590369687036 -0.75470957328743171 0.5 0 0 1 I I -0.70710678118654746 0.70710678118654746 0.5 forward I I I I #
loop $-1 $-1 $197 $49 #
coedge $-1 $125 $125 $198 $199 reversed $78 $-1 #
face $-1 $200 $201 $30 $-1 $202 reversed single #
loop $-1 $-1 $203 $80 #
plane-surface $-1 0 -26.045890150043167 0 0 1 0 0 0 1 forward_v I I I I #
coedge $-1 $204 $205 $206 $207 forward $81 $-1 #
coedge $-1 $208 $83 $209 $210 forward $51 $-1 #
coedge $-1 $83 $208 $211 $212 forward $51 $-1 #
coedge $-1 $213 $214 $83 $133 reversed $215 $-1 #
edge $-1 $216 -26.045890150043167 $217 26.045890150043167 $132 $218 forward 7 unknown #
face $-1 $219 $220 $31 $-1 $221 reversed single #
loop $-1 $-1 $140 $84 #
plane-surface $-1 -48.700639081019759 0 3.5095033841197942 0 0 1 1 0 0 forward_v I I I I #
coedge $-1 $222 $223 $139 $224 forward $85 $-1 #
coedge $-1 $225 $87 $226 $227 reversed $54 $-1 #
coedge $-1 $87 $225 $137 $224 reversed $54 $-1 #
coedge $-1 $228 $229 $87 $141 reversed $135 $-1 #
edge $-1 $230 -26.045890150043167 $231 26.045890150043167 $140 $232 forward 7 unknown #
face $-1 $233 $234 $32 $-1 $235 forward single #
loop $-1 $-1 $236 $88 #
plane-surface $-1 -0.23304467871616019 44.297216318815813 108.09458169129056 -1 0 0 0 0.6560590369687036 0.75470957328743171 forward_v I I I I #
coedge $-1 $237 $238 $239 $240 reversed $89 $-1 #
coedge $-1 $147 $91 $241 $242 reversed $57 $-1 #
coedge $-1 $91 $146 $237 $243 reversed $57 $-1 #
coedge $-1 $239 $244 $91 $149 forward $234 $-1 #
edge $-1 $245 -3.8972819906352605 $246 0.51520727848003389 $148 $247 forward 7 unknown #
loop $-1 $-1 $155 $92 #
plane-surface $-1 -6.5714113066671871 -13.268275132017621 41.873060393943817 0 0.6560590369687036 0.75470957328743171 1 0 0 forward_v I I I I #
loop $-1 $-1 $248 $59 #
coedge $-1 $153 $153 $154 $249 reversed $93 $-1 #
coedge $-1 $154 $154 $153 $249 forward $95 $-1 #
coedge $-1 $155 $155 $96 $156 forward $150 $-1 #
edge $-1 $250 -1.0514313294016527e-015 $250 6.2831853071795996 $155 $251 forward 7 unknown #
loop $-1 $-1 $162 $97 #
plane-surface $-1 -6.5714113066671871 -13.268275132017621 41.873060393943817 0 0.6560590369687036 0.75470957328743171 1 0 0 forward_v I I I I #
loop $-1 $-1 $252 $62 #
coedge $-1 $160 $160 $161 $253 reversed $98 $-1 #
coedge $-1 $161 $161 $160 $253 forward $100 $-1 #
coedge $-1 $162 $162 $101 $163 forward $157 $-1 #
edge $-1 $254 -1.0514313294016527e-015 $254 6.2831853071795996 $162 $255 forward 7 unknown #
loop $-1 $-1 $169 $102 #
plane-surface $-1 -6.5714113066671871 -13.268275132017621 41.873060393943817 0 0.6560590369687036 0.75470957328743171 1 0 0 forward_v I I I I #
loop $-1 $-1 $256 $65 #
coedge $-1 $167 $167 $168 $257 reversed $103 $-1 #
coedge $-1 $168 $168 $167 $257 forward $105 $-1 #
coedge $-1 $169 $169 $106 $170 forward $164 $-1 #
edge $-1 $258 -1.0514313294016527e-015 $258 6.2831853071795996 $169 $259 forward 7 unknown #
face $-1 $260 $261 $36 $-1 $262 forward single #
loop $-1 $-1 $263 $107 #
plane-surface $-1 38.810693204893134 44.297216318815813 108.09458169129056 -1 0 0 0 0.6560590369687036 0.75470957328743171 forward_v I I I I #
coedge $-1 $264 $265 $266 $267 reversed $108 $-1 #
coedge $-1 $176 $110 $268 $269 reversed $69 $-1 #
coedge $-1 $110 $175 $264 $270 reversed $69 $-1 #
coedge $-1 $266 $271 $110 $178 forward $261 $-1 #
edge $-1 $272 -3.8972819906352605 $273 0.51520727848003389 $177 $274 forward 7 unknown #
loop $-1 $-1 $184 $111 #
plane-surface $-1 32.472326576942109 -13.268275132017621 41.873060393943817 0 0.6560590369687036 0.75470957328743171 1 0 0 forward_v I I I I #
loop $-1 $-1 $275 $71 #
coedge $-1 $182 $182 $183 $276 reversed $112 $-1 #
coedge $-1 $183 $183 $182 $276 forward $114 $-1 #
coedge $-1 $184 $184 $115 $185 forward $179 $-1 #
edge $-1 $277 -1.0514313294016527e-015 $277 6.2831853071795996 $184 $278 forward 7 unknown #
loop $-1 $-1 $191 $116 #
plane-surface $-1 32.472326576942109 -13.268275132017621 41.873060393943817 0 0.6560590369687036 0.75470957328743171 1 0 0 forward_v I I I I #
loop $-1 $-1 $279 $74 #
coedge $-1 $189 $189 $190 $280 reversed $117 $-1 #
coedge $-1 $190 $190 $189 $280 forward $119 $-1 #
coedge $-1 $191 $191 $120 $192 forward $186 $-1 #
edge $-1 $281 -1.0514313294016527e-015 $281 6.2831853071795996 $191 $282 forward 7 unknown #
loop $-1 $-1 $198 $121 #
plane-surface $-1 32.472326576942109 -13.268275132017621 41.873060393943817 0 0.6560590369687036 0.75470957328743171 1 0 0 forward_v I I I I #
loop $-1 $-1 $283 $77 #
coedge $-1 $196 $196 $197 $284 reversed $122 $-1 #
coedge $-1 $197 $197 $196 $284 forward $124 $-1 #
coedge $-1 $198 $198 $125 $199 forward $193 $-1 #
edge $-1 $285 -1.0514313294016527e-015 $285 6.2831853071795996 $198 $286 forward 7 unknown #
face $-1 $287 $288 $30 $-1 $289 reversed single #
loop $-1 $-1 $290 $126 #
plane-surface $-1 -43.872188482314527 0 0 1 0 0 0 0 -1 forward_v I I I I #
coedge $-1 $291 $211 $292 $293 forward $127 $-1 #
coedge $-1 $294 $129 $291 $295 forward $81 $-1 #
coedge $-1 $129 $294 $296 $297 forward $81 $-1 #
coedge $-1 $214 $213 $129 $207 reversed $215 $-1 #
edge $-1 $298 -26.045890150043167 $299 26.045890150043167 $206 $300 forward 7 unknown #
coedge $-1 $131 $130 $301 $302 forward $51 $-1 #
coedge $-1 $303 $304 $130 $210 reversed $288 $-1 #
edge $-1 $217 -43.872188482314527 $305 43.872188482314527 $209 $306 forward 7 unknown #
coedge $-1 $203 $307 $131 $212 reversed $127 $-1 #
edge $-1 $308 -43.872188482314527 $216 43.872188482314527 $211 $309 forward 7 unknown #
coedge $-1 $206 $132 $307 $310 forward $215 $-1 #
coedge $-1 $132 $206 $303 $311 reversed $215 $-1 #
loop $-1 $-1 $213 $287 #
vertex $-1 $133 $312 #
vertex $-1 $133 $313 #
straight-curve $-1 43.872188482314527 0 11.533495660575619 0 1 0 I I #
face $-1 $314 $315 $31 $-1 $316 reversed single #
loop $-1 $-1 $317 $134 #
plane-surface $-1 -48.700639081019759 0 0.3774695974767095 0 0 1 1 0 0 forward_v I I I I #
coedge $-1 $318 $137 $319 $320 reversed $85 $-1 #
coedge $-1 $137 $318 $228 $321 reversed $85 $-1 #
edge $-1 $230 -3.5095033841197942 $322 -0.3774695974767095 $137 $323 forward 7 unknown #
coedge $-1 $139 $138 $317 $324 forward $54 $-1 #
coedge $-1 $325 $326 $138 $227 forward $327 $-1 #
edge $-1 $328 0.3774695974767095 $231 3.5095033841197942 $226 $329 forward 7 unknown #
coedge $-1 $330 $140 $223 $321 forward $135 $-1 #
coedge $-1 $140 $330 $325 $331 forward $135 $-1 #
vertex $-1 $224 $332 #
vertex $-1 $331 $333 #
straight-curve $-1 -43.872188482314527 0 3.5095033841197942 0 -1 0 I I #
face $-1 $-1 $334 $32 $-1 $335 reversed single #
loop $-1 $-1 $148 $142 #
plane-surface $-1 0 0 11.533495660575619 0 0 1 1 0 0 forward_v I I I I #
coedge $-1 $336 $337 $338 $339 reversed $143 $-1 #
coedge $-1 $340 $145 $147 $243 forward $89 $-1 #
coedge $-1 $145 $340 $336 $341 forward $89 $-1 #
coedge $-1 $338 $148 $145 $240 forward $234 $-1 #
edge $-1 $246 -9.6240722812846204 $342 3.0526609746174334 $239 $343 forward 7 unknown #
coedge $-1 $344 $345 $146 $242 forward $334 $-1 #
edge $-1 $346 -46.349513669361372 $245 -42.513795185069661 $241 $347 forward 7 unknown #
edge $-1 $246 46.245174631769466 $346 52.091780300086313 $147 $348 forward 7 unknown #
coedge $-1 $148 $338 $344 $349 forward $234 $-1 #
vertex $-1 $242 $350 #
vertex $-1 $149 $351 #
straight-curve $-1 -12.909777934618214 22.148608159407907 11.533495660575618 0 -1 0 I I #
coedge $-1 $248 $248 $-1 $352 reversed $152 $-1 #
edge $-1 $353 0 $353 6.2831853071796004 $153 $354 forward 7 unknown #
vertex $-1 $156 $355 #
ellipse-curve $-1 -10.374431283437808 23.839645515485525 9.6156364184297587 0 0.6560590369687036 0.75470957328743171 1 0 0 1 I I #
coedge $-1 $252 $252 $-1 $356 reversed $159 $-1 #
edge $-1 $357 0 $357 6.2831853071796004 $160 $358 forward 7 unknown #
vertex $-1 $163 $359 #
ellipse-curve $-1 -6.5714113066671942 23.839645515485525 9.6156364184297587 0 0.6560590369687036 0.75470957328743171 1 0 0 1 I I #
coedge $-1 $256 $256 $-1 $360 reversed $166 $-1 #
edge $-1 $361 0 $361 6.2831853071796004 $167 $362 forward 7 unknown #
vertex $-1 $170 $363 #
ellipse-curve $-1 -2.7683913298965805 23.839645515485525 9.6156364184297587 0 0.6560590369687036 0.75470957328743171 1 0 0 1 I I #
face $-1 $-1 $364 $36 $-1 $365 reversed single #
loop $-1 $-1 $177 $171 #
plane-surface $-1 0 0 11.533495660575619 0 0 1 1 0 0 forward_v I I I I #
coedge $-1 $366 $367 $368 $369 reversed $172 $-1 #
coedge $-1 $370 $174 $176 $270 forward $108 $-1 #
coedge $-1 $174 $370 $366 $371 forward $108 $-1 #
coedge $-1 $368 $177 $174 $267 forward $261 $-1 #
edge $-1 $273 9.8977966605200294 $372 22.57452991642208 $266 $373 forward 7 unknown #
coedge $-1 $374 $375 $175 $269 forward $364 $-1 #
edge $-1 $376 -46.349513669361372 $272 -42.513795185069661 $268 $377 forward 7 unknown #
edge $-1 $273 46.245174631769466 $376 52.091780300086313 $176 $378 forward 7 unknown #
coedge $-1 $177 $368 $374 $379 forward $261 $-1 #
vertex $-1 $178 $380 #
vertex $-1 $178 $381 #
straight-curve $-1 26.133959948991084 22.148608159407907 11.533495660575618 0 -1 0 I I #
coedge $-1 $275 $275 $-1 $382 reversed $181 $-1 #
edge $-1 $383 0 $383 6.2831853071796004 $182 $384 forward 7 unknown #
vertex $-1 $185 $385 #
ellipse-curve $-1 28.669306600171495 23.839645515485525 9.6156364184297587 0 0.6560590369687036 0.75470957328743171 1 0 0 1 I I #
coedge $-1 $279 $279 $-1 $386 reversed $188 $-1 #
edge $-1 $387 0 $387 6.2831853071796004 $189 $388 forward 7 unknown #
vertex $-1 $192 $389 #
ellipse-curve $-1 32.472326576942095 23.839645515485525 9.6156364184297587 0 0.6560590369687036 0.75470957328743171 1 0 0 1 I I #
coedge $-1 $283 $283 $-1 $390 reversed $195 $-1 #
edge $-1 $391 0 $391 6.2831853071796004 $196 $392 forward 7 unknown #
vertex $-1 $199 $393 #
ellipse-curve $-1 36.275346553712723 23.839645515485525 9.6156364184297587 0 0.6560590369687036 0.75470957328743171 1 0 0 1 I I #
face $-1 $-1 $215 $30 $-1 $394 reversed single #
loop $-1 $-1 $303 $200 #
plane-surface $-1 0 26.045890150043167 0 0 -1 0 0 0 -1 forward_v I I I I #
coedge $-1 $395 $301 $304 $396 forward $201 $-1 #
coedge $-1 $307 $203 $204 $295 reversed $127 $-1 #
coedge $-1 $301 $395 $203 $293 reversed $201 $-1 #
edge $-1 $308 -11.533495660575619 $397 11.533495660575619 $292 $398 forward 7 unknown #
coedge $-1 $205 $204 $395 $399 forward $81 $-1 #
edge $-1 $299 -43.872188482314527 $397 43.872188482314527 $291 $400 forward 7 unknown #
coedge $-1 $304 $303 $205 $297 reversed $288 $-1 #
edge $-1 $401 -43.872188482314527 $298 43.872188482314527 $296 $402 forward 7 unknown #
vertex $-1 $207 $403 #
vertex $-1 $310 $404 #
straight-curve $-1 43.872188482314527 0 -11.533495660575619 0 -1 0 I I #
coedge $-1 $290 $292 $208 $302 reversed $201 $-1 #
edge $-1 $305 -26.045890150043167 $308 26.045890150043167 $301 $405 forward 7 unknown #
coedge $-1 $296 $209 $214 $311 forward $288 $-1 #
coedge $-1 $209 $296 $290 $396 reversed $288 $-1 #
vertex $-1 $210 $406 #
straight-curve $-1 0 26.045890150043167 11.533495660575619 -1 0 0 I I #
coedge $-1 $211 $291 $213 $310 reversed $127 $-1 #
vertex $-1 $302 $407 #
straight-curve $-1 0 -26.045890150043167 11.533495660575619 1 0 0 I I #
edge $-1 $216 -11.533495660575619 $299 11.533495660575619 $213 $408 forward 7 unknown #
edge $-1 $217 -11.533495660575619 $298 11.533495660575619 $214 $409 forward 7 unknown #
point $-1 43.872188482314527 -26.045890150043167 11.533495660575619 #
point $-1 43.872188482314527 26.045890150043167 11.533495660575619 #
face $-1 $-1 $327 $31 $-1 $410 reversed single #
loop $-1 $-1 $411 $219 #
plane-surface $-1 -53.52908967972499 0 1.9434864907982519 1 0 0 0 0 -1 forward_v I I I I #
coedge $-1 $412 $319 $225 $324 reversed $220 $-1 #
coedge $-1 $223 $222 $411 $413 reversed $85 $-1 #
coedge $-1 $317 $414 $222 $320 forward $220 $-1 #
edge $-1 $415 -4.8284505987052313 $322 4.8284505987052313 $222 $416 forward 7 unknown #
edge $-1 $230 -4.8284505987052313 $417 4.8284505987052313 $223 $418 forward 7 unknown #
vertex $-1 $224 $419 #
straight-curve $-1 -43.872188482314527 26.045890150043167 0 0 0 -1 I I #
edge $-1 $328 -26.045890150043167 $322 26.045890150043167 $317 $420 forward 7 unknown #
coedge $-1 $421 $226 $229 $331 reversed $327 $-1 #
coedge $-1 $226 $421 $412 $422 reversed $327 $-1 #
loop $-1 $-1 $226 $314 #
vertex $-1 $227 $423 #
straight-curve $-1 -43.872188482314527 -26.045890150043167 0 0 0 1 I I #
coedge $-1 $229 $228 $424 $425 forward $135 $-1 #
edge $-1 $426 -4.8284505987052313 $231 4.8284505987052313 $325 $427 forward 7 unknown #
point $-1 -43.872188482314527 26.045890150043167 3.5095033841197942 #
point $-1 -43.872188482314527 -26.045890150043167 3.5095033841197942 #
loop $-1 $-1 $241 $233 #
plane-surface $-1 0 26.045890150043167 0 0 -1 0 0 0 -1 forward_v I I I I #
coedge $-1 $337 $236 $238 $341 reversed $143 $-1 #
coedge $-1 $236 $336 $428 $429 reversed $143 $-1 #
coedge $-1 $244 $239 $236 $339 forward $234 $-1 #
edge $-1 $342 -0.51520727848003389 $430 3.8972819906352605 $338 $431 forward 7 unknown #
coedge $-1 $238 $237 $345 $432 reversed $89 $-1 #
edge $-1 $433 -52.091780300086313 $342 -46.245174631769466 $336 $434 forward 7 unknown #
vertex $-1 $240 $435 #
straight-curve $-1 -3.2857056533335935 21.63340088092788 11.533495660575621 1 0 0 I I #
coedge $-1 $428 $241 $244 $349 reversed $334 $-1 #
coedge $-1 $241 $428 $340 $432 forward $334 $-1 #
vertex $-1 $242 $436 #
straight-curve $-1 -12.909777934618214 26.045890150043167 54.047290845645279 0 0 1 I I #
straight-curve $-1 -12.909777934618214 -13.268275132017621 41.873060393943817 0 0.75470957328743171 -0.6560590369687036 I I #
edge $-1 $430 0.23304467871616019 $245 12.909777934618214 $344 $437 forward 7 unknown #
point $-1 -12.909777934618214 26.045890150043167 11.533495660575619 #
point $-1 -12.909777934618214 21.633400880927873 11.533495660575618 #
edge $-1 $438 1 $438 0 $248 $-1 forward 7 unknown #
vertex $-1 $249 $439 #
ellipse-curve $-1 -10.374431283437808 21.52679063971182 6.9550012956577234 0 0.6560590369687036 0.75470957328743171 1 0 0 1 I I #
point $-1 -9.3744312834378078 23.839645515485515 9.615636418429748 #
edge $-1 $440 1 $440 0 $252 $-1 forward 7 unknown #
vertex $-1 $253 $441 #
ellipse-curve $-1 -6.5714113066671942 21.52679063971182 6.9550012956577234 0 0.6560590369687036 0.75470957328743171 1 0 0 1 I I #
point $-1 -5.5714113066671942 23.839645515485515 9.615636418429748 #
edge $-1 $442 1 $442 0 $256 $-1 forward 7 unknown #
vertex $-1 $257 $443 #
ellipse-curve $-1 -2.7683913298965805 21.52679063971182 6.9550012956577234 0 0.6560590369687036 0.75470957328743171 1 0 0 1 I I #
point $-1 -1.7683913298965805 23.839645515485515 9.615636418429748 #
loop $-1 $-1 $268 $260 #
plane-surface $-1 0 26.045890150043167 0 0 -1 0 0 0 -1 forward_v I I I I #
coedge $-1 $367 $263 $265 $371 reversed $172 $-1 #
coedge $-1 $263 $366 $444 $445 reversed $172 $-1 #
coedge $-1 $271 $266 $263 $369 forward $261 $-1 #
edge $-1 $372 -0.51520727848003389 $446 3.8972819906352605 $368 $447 forward 7 unknown #
coedge $-1 $265 $264 $375 $448 reversed $108 $-1 #
edge $-1 $449 -52.091780300086313 $372 -46.245174631769466 $366 $450 forward 7 unknown #
vertex $-1 $267 $451 #
straight-curve $-1 16.236163288471054 21.63340088092788 11.533495660575621 1 0 0 I I #
coedge $-1 $444 $268 $271 $379 reversed $364 $-1 #
coedge $-1 $268 $444 $370 $448 forward $364 $-1 #
vertex $-1 $269 $452 #
straight-curve $-1 26.133959948991084 26.045890150043167 54.047290845645279 0 0 1 I I #
straight-curve $-1 26.133959948991084 -13.268275132017621 41.873060393943817 0 0.75470957328743171 -0.6560590369687036 I I #
edge $-1 $446 -38.810693204893134 $272 -26.133959948991084 $374 $453 forward 7 unknown #
point $-1 26.133959948991084 26.045890150043167 11.533495660575619 #
point $-1 26.133959948991084 21.633400880927873 11.533495660575618 #
edge $-1 $454 1 $454 0 $275 $-1 forward 7 unknown #
vertex $-1 $276 $455 #
ellipse-curve $-1 28.669306600171495 21.52679063971182 6.9550012956577234 0 0.6560590369687036 0.75470957328743171 1 0 0 1 I I #
point $-1 29.669306600171495 23.839645515485515 9.615636418429748 #
edge $-1 $456 1 $456 0 $279 $-1 forward 7 unknown #
vertex $-1 $280 $457 #
ellipse-curve $-1 32.472326576942095 21.52679063971182 6.9550012956577234 0 0.6560590369687036 0.75470957328743171 1 0 0 1 I I #
point $-1 33.472326576942095 23.839645515485515 9.615636418429748 #
edge $-1 $458 1 $458 0 $283 $-1 forward 7 unknown #
vertex $-1 $284 $459 #
ellipse-curve $-1 36.275346553712723 21.52679063971182 6.9550012956577234 0 0.6560590369687036 0.75470957328743171 1 0 0 1 I I #
point $-1 37.275346553712723 23.839645515485515 9.615636418429748 #
plane-surface $-1 43.872188482314527 0 0 -1 0 0 0 0 1 forward_v I I I I #
coedge $-1 $292 $290 $294 $399 reversed $201 $-1 #
edge $-1 $305 -11.533495660575619 $401 11.533495660575619 $304 $460 forward 7 unknown #
vertex $-1 $399 $461 #
straight-curve $-1 -43.872188482314527 -26.045890150043167 0 0 0 -1 I I #
edge $-1 $397 -26.045890150043167 $401 26.045890150043167 $395 $462 forward 7 unknown #
straight-curve $-1 0 -26.045890150043167 -11.533495660575619 -1 0 0 I I #
vertex $-1 $297 $463 #
straight-curve $-1 0 26.045890150043167 -11.533495660575619 1 0 0 I I #
point $-1 43.872188482314527 26.045890150043167 -11.533495660575619 #
point $-1 43.872188482314527 -26.045890150043167 -11.533495660575619 #
straight-curve $-1 -43.872188482314527 0 11.533495660575619 0 -1 0 I I #
point $-1 -43.872188482314527 26.045890150043167 11.533495660575619 #
point $-1 -43.872188482314527 -26.045890150043167 11.533495660575619 #
straight-curve $-1 43.872188482314527 -26.045890150043167 0 0 0 -1 I I #
straight-curve $-1 43.872188482314527 26.045890150043167 0 0 0 -1 I I #
plane-surface $-1 0 -26.045890150043167 0 0 1 0 0 0 1 forward_v I I I I #
coedge $-1 $464 $424 $318 $413 forward $315 $-1 #
coedge $-1 $414 $317 $326 $422 forward $220 $-1 #
edge $-1 $417 -1.5660168933215424 $415 1.5660168933215424 $318 $465 forward 7 unknown #
coedge $-1 $319 $412 $464 $466 forward $220 $-1 #
vertex $-1 $320 $467 #
straight-curve $-1 -48.700639081019759 26.045890150043167 0.3774695974767095 1 0 0 I I #
vertex $-1 $321 $468 #
straight-curve $-1 -48.700639081019759 26.045890150043167 3.5095033841197942 -1 0 0 I I #
point $-1 -43.872188482314527 26.045890150043167 0.3774695974767095 #
straight-curve $-1 -43.872188482314527 0 0.3774695974767095 0 1 0 I I #
coedge $-1 $326 $325 $469 $470 forward $327 $-1 #
edge $-1 $328 -4.8284505987052313 $471 4.8284505987052313 $326 $472 forward 7 unknown #
point $-1 -43.872188482314527 -26.045890150043167 0.3774695974767095 #
coedge $-1 $411 $469 $330 $425 reversed $315 $-1 #
edge $-1 $417 -26.045890150043167 $426 26.045890150043167 $424 $473 forward 7 unknown #
vertex $-1 $425 $474 #
straight-curve $-1 -48.700639081019759 -26.045890150043167 3.5095033841197942 1 0 0 I I #
coedge $-1 $345 $344 $337 $429 forward $334 $-1 #
edge $-1 $430 42.513795185069661 $433 46.349513669361372 $428 $475 forward 7 unknown #
vertex $-1 $349 $476 #
straight-curve $-1 -0.23304467871616019 22.148608159407907 11.533495660575618 0 1 0 I I #
edge $-1 $433 -3.0526609746174334 $346 9.6240722812846204 $345 $477 forward 7 unknown #
vertex $-1 $432 $478 #
straight-curve $-1 -0.23304467871616019 -13.268275132017621 41.873060393943817 0 -0.75470957328743171 0.6560590369687036 I I #
point $-1 -0.23304467871616019 21.633400880927873 11.533495660575618 #
point $-1 -12.909777934618214 26.045890150043164 7.6977771762839069 #
straight-curve $-1 0 26.045890150043167 11.533495660575619 -1 0 0 I I #
vertex $-1 $352 $479 #
point $-1 -9.3744312834378078 21.52679063971182 6.9550012956577234 #
vertex $-1 $356 $480 #
point $-1 -5.5714113066671942 21.52679063971182 6.9550012956577234 #
vertex $-1 $360 $481 #
point $-1 -1.7683913298965805 21.52679063971182 6.9550012956577234 #
coedge $-1 $375 $374 $367 $445 forward $364 $-1 #
edge $-1 $446 42.513795185069661 $449 46.349513669361372 $444 $482 forward 7 unknown #
vertex $-1 $379 $483 #
straight-curve $-1 38.810693204893134 22.148608159407907 11.533495660575618 0 1 0 I I #
edge $-1 $449 -22.57452991642208 $376 -9.8977966605200294 $375 $484 forward 7 unknown #
vertex $-1 $448 $485 #
straight-curve $-1 38.810693204893134 -13.268275132017621 41.873060393943817 0 -0.75470957328743171 0.6560590369687036 I I #
point $-1 38.810693204893134 21.633400880927873 11.533495660575618 #
point $-1 26.133959948991084 26.045890150043164 7.6977771762839069 #
straight-curve $-1 0 26.045890150043167 11.533495660575619 -1 0 0 I I #
vertex $-1 $382 $486 #
point $-1 29.669306600171495 21.52679063971182 6.9550012956577234 #
vertex $-1 $386 $487 #
point $-1 33.472326576942095 21.52679063971182 6.9550012956577234 #
vertex $-1 $390 $488 #
point $-1 37.275346553712723 21.52679063971182 6.9550012956577234 #
straight-curve $-1 -43.872188482314527 26.045890150043167 0 0 0 -1 I I #
point $-1 -43.872188482314527 -26.045890150043167 -11.533495660575619 #
straight-curve $-1 -43.872188482314527 0 -11.533495660575619 0 1 0 I I #
point $-1 -43.872188482314527 26.045890150043167 -11.533495660575619 #
coedge $-1 $469 $411 $414 $466 reversed $315 $-1 #
straight-curve $-1 -53.52908967972499 26.045890150043167 1.9434864907982519 0 0 -1 I I #
edge $-1 $471 -26.045890150043167 $415 26.045890150043167 $464 $489 forward 7 unknown #
point $-1 -53.52908967972499 26.045890150043167 0.3774695974767095 #
point $-1 -53.52908967972499 26.045890150043167 3.5095033841197942 #
coedge $-1 $424 $464 $421 $470 reversed $315 $-1 #
edge $-1 $426 -1.5660168933215424 $471 1.5660168933215424 $469 $490 forward 7 unknown #
vertex $-1 $466 $491 #
straight-curve $-1 -48.700639081019759 -26.045890150043167 0.3774695974767095 -1 0 0 I I #
straight-curve $-1 -53.52908967972499 0 3.5095033841197942 0 -1 0 I I #
point $-1 -53.52908967972499 -26.045890150043167 3.5095033841197942 #
straight-curve $-1 -0.23304467871616019 26.045890150043167 54.047290845645279 0 0 -1 I I #
point $-1 -0.23304467871616019 26.045890150043167 11.533495660575619 #
straight-curve $-1 -3.2857056533335935 26.045890150043167 7.6977771762839016 -1 0 0 I I #
point $-1 -0.23304467871616019 26.045890150043164 7.6977771762839069 #
point $-1 -10.374431283437808 20.870731602743113 6.2002917223702916 #
point $-1 -6.5714113066671942 20.870731602743113 6.2002917223702916 #
point $-1 -2.7683913298965805 20.870731602743113 6.2002917223702916 #
straight-curve $-1 38.810693204893134 26.045890150043167 54.047290845645279 0 0 -1 I I #
point $-1 38.810693204893134 26.045890150043167 11.533495660575619 #
straight-curve $-1 16.236163288471054 26.045890150043167 7.6977771762839016 -1 0 0 I I #
point $-1 38.810693204893134 26.045890150043164 7.6977771762839069 #
point $-1 28.669306600171495 20.870731602743113 6.2002917223702916 #
point $-1 32.472326576942095 20.870731602743113 6.2002917223702916 #
point $-1 36.275346553712723 20.870731602743113 6.2002917223702916 #
straight-curve $-1 -53.52908967972499 0 0.3774695974767095 0 1 0 I I #
straight-curve $-1 -53.52908967972499 -26.045890150043167 1.9434864907982519 0 0 -1 I I #
point $-1 -53.52908967972499 -26.045890150043167 0.3774695974767095 #
End-of-ACIS-data 