500 0 6 0           
7 Unknown 11 ACIS 5.0 NT 24 Thu Mar 25 17:31:08 1999 
-1 9.9999999999999995e-007 1e-010 
body $-1 $6 $-1 $7 #
body $-1 $8 $-1 $9 #
body $-1 $10 $-1 $11 #
body $-1 $12 $-1 $13 #
body $-1 $14 $-1 $15 #
body $-1 $16 $-1 $17 #
lump $-1 $-1 $18 $0 #
transform $-1 1 0 0 0 1 0 0 0 1 78.076113162633135 42.34891077118683 11.477773576365124 1 rotate no_reflect no_shear #
lump $-1 $-1 $19 $1 #
transform $-1 1 0 0 0 1 0 0 0 1 78.076113162633135 42.34891077118683 11.477773576365124 1 rotate no_reflect no_shear #
lump $-1 $-1 $20 $2 #
transform $-1 1 0 0 0 1 0 0 0 1 78.076113162633135 42.34891077118683 11.477773576365124 1 rotate no_reflect no_shear #
lump $-1 $-1 $21 $3 #
transform $-1 1 0 0 0 1 0 0 0 1 78.076113162633135 42.34891077118683 11.477773576365124 1 rotate no_reflect no_shear #
lump $-1 $-1 $22 $4 #
transform $-1 1 0 0 0 1 0 0 0 1 78.076113162633135 42.34891077118683 11.477773576365124 1 rotate no_reflect no_shear #
lump $-1 $-1 $23 $5 #
transform $-1 1 0 0 0 1 0 0 0 1 78.076113162633135 42.34891077118683 11.477773576365124 1 rotate no_reflect no_shear #
shell $-1 $-1 $-1 $24 $-1 $6 #
shell $-1 $-1 $-1 $25 $-1 $8 #
shell $-1 $-1 $-1 $26 $-1 $10 #
shell $-1 $-1 $-1 $27 $-1 $12 #
shell $-1 $-1 $-1 $28 $-1 $14 #
shell $-1 $-1 $-1 $29 $-1 $16 #
face $-1 $30 $31 $18 $-1 $32 forward single #
face $-1 $33 $34 $19 $-1 $35 forward single #
face $-1 $36 $37 $20 $-1 $38 reversed single #
face $-1 $39 $40 $21 $-1 $41 forward single #
face $-1 $42 $43 $22 $-1 $44 reversed single #
face $-1 $45 $46 $23 $-1 $47 forward single #
face $-1 $48 $49 $18 $-1 $50 reversed single #
loop $-1 $-1 $51 $24 #
plane-surface $-1 0 0 11.477773576365124 0 0 1 1 0 0 forward_v I I I I #
face $-1 $52 $53 $19 $-1 $54 reversed single #
loop $-1 $-1 $55 $25 #
plane-surface $-1 -73.88883977446875 0 -5.2657498934122735 0 0 1 1 0 0 forward_v I I I I #
face $-1 $56 $57 $20 $-1 $58 reversed single #
loop $-1 $-1 $59 $26 #
plane-surface $-1 70.369169144368527 -1.7763568394002505e-015 222.25975942227376 0 -1 0 -0.68199836817093118 0 -0.7313536940579346 forward_v I I I I #
face $-1 $60 $61 $21 $-1 $62 forward single #
loop $-1 $63 $64 $27 #
cone-surface $-1 69.254996582682665 -9.7425629192590293 2.7618648340901153 -0.68199836817093118 0 -0.7313536940579346 2.1940610821738038 0 -2.0459951045127935 1 I I 0 1 3 forward I I I I #
face $-1 $65 $66 $22 $-1 $67 reversed single #
loop $-1 $-1 $68 $28 #
plane-surface $-1 70.369169144368527 22.863784932668771 222.25975942227376 0 1 0 0.68199836817093118 0 0.7313536940579346 forward_v I I I I #
face $-1 $69 $70 $23 $-1 $71 forward single #
loop $-1 $72 $73 $29 #
cone-surface $-1 69.254996582682665 32.606347851927801 2.7618648340901153 -0.68199836817093118 0 -0.7313536940579346 2.1940610821738038 0 -2.0459951045127935 1 I I 0 1 3 forward I I I I #
face $-1 $74 $75 $18 $-1 $76 reversed single #
loop $-1 $-1 $77 $30 #
plane-surface $-1 0 0 -11.477773576365124 0 0 1 1 0 0 forward_v I I I I #
coedge $-1 $78 $79 $80 $81 forward $31 $-1 #
face $-1 $82 $83 $19 $-1 $84 reversed single #
loop $-1 $-1 $85 $33 #
plane-surface $-1 -73.88883977446875 0 -10.44022319962831 0 0 1 1 0 0 forward_v I I I I #
coedge $-1 $86 $87 $88 $89 forward $34 $-1 #
face $-1 $90 $91 $20 $-1 $92 reversed single #
loop $-1 $-1 $93 $36 #
plane-surface $-1 -36.126394395720993 -9.7425629192590293 108.05725186391962 0.68199836817093118 0 0.7313536940579346 0.7313536940579346 0 -0.68199836817093118 forward_v I I I I #
coedge $-1 $94 $95 $96 $97 reversed $37 $-1 #
face $-1 $-1 $98 $21 $-1 $99 forward single #
loop $-1 $100 $101 $39 #
cone-surface $-1 64.727732107671216 -9.7425629192590293 -2.0930318230042673 -0.68199836817093118 0 -0.7313536940579346 1.0970305410869019 0 -1.0229975522563968 1 I I -0.70710678118654757 0.70710678118654757 1.5 forward I I I I #
loop $-1 $-1 $102 $27 #
coedge $-1 $64 $64 $103 $104 reversed $40 $-1 #
face $-1 $105 $106 $22 $-1 $107 reversed single #
loop $-1 $-1 $108 $42 #
plane-surface $-1 -36.126394395720993 32.606347851927801 108.05725186391962 0.68199836817093118 0 0.7313536940579346 0.7313536940579346 0 -0.68199836817093118 forward_v I I I I #
coedge $-1 $109 $110 $111 $112 reversed $43 $-1 #
face $-1 $-1 $113 $23 $-1 $114 forward single #
loop $-1 $115 $116 $45 #
cone-surface $-1 64.727732107671216 32.606347851927801 -2.0930318230042673 -0.68199836817093118 0 -0.7313536940579346 1.0970305410869019 0 -1.0229975522563968 1 I I -0.70710678118654757 0.70710678118654757 1.5 forward I I I I #
loop $-1 $-1 $117 $29 #
coedge $-1 $73 $73 $118 $119 reversed $46 $-1 #
face $-1 $120 $121 $18 $-1 $122 reversed single #
loop $-1 $-1 $123 $48 #
plane-surface $-1 0 -42.34891077118683 0 0 1 0 0 0 1 forward_v I I I I #
coedge $-1 $124 $125 $126 $127 forward $49 $-1 #
coedge $-1 $128 $51 $129 $130 forward $31 $-1 #
coedge $-1 $51 $128 $131 $132 forward $31 $-1 #
coedge $-1 $133 $134 $51 $81 reversed $135 $-1 #
edge $-1 $136 -42.34891077118683 $137 42.34891077118683 $80 $138 forward 7 unknown #
face $-1 $139 $140 $19 $-1 $141 reversed single #
loop $-1 $-1 $142 $52 #
plane-surface $-1 -69.701566386304364 0 -7.8529865465202917 -1 0 0 0 0 1 forward_v I I I I #
coedge $-1 $143 $144 $145 $146 forward $53 $-1 #
coedge $-1 $147 $55 $148 $149 reversed $34 $-1 #
coedge $-1 $55 $147 $150 $151 reversed $34 $-1 #
coedge $-1 $142 $152 $55 $89 reversed $83 $-1 #
edge $-1 $153 -42.34891077118683 $154 42.34891077118683 $88 $155 forward 7 unknown #
face $-1 $156 $157 $20 $-1 $158 reversed single #
loop $-1 $-1 $159 $56 #
plane-surface $-1 70.369169144368527 -19.485125838518059 222.25975942227376 0 1 0 0.68199836817093118 0 0.7313536940579346 forward_v I I I I #
coedge $-1 $160 $161 $162 $163 reversed $57 $-1 #
coedge $-1 $95 $59 $164 $165 reversed $37 $-1 #
coedge $-1 $59 $94 $160 $166 reversed $37 $-1 #
coedge $-1 $162 $167 $59 $97 forward $168 $-1 #
edge $-1 $169 -42.891528590448871 $170 -32.257829276058047 $96 $171 forward 7 unknown #
loop $-1 $-1 $103 $60 #
plane-surface $-1 -36.126394395720993 -9.7425629192590293 108.05725186391962 0.68199836817093118 0 0.7313536940579346 0.7313536940579346 0 -0.68199836817093118 forward_v I I I I #
loop $-1 $-1 $172 $39 #
coedge $-1 $101 $101 $102 $173 reversed $61 $-1 #
coedge $-1 $102 $102 $101 $173 forward $63 $-1 #
coedge $-1 $103 $103 $64 $104 forward $98 $-1 #
edge $-1 $174 0 $174 6.2831853071796004 $103 $175 forward 7 unknown #
face $-1 $176 $177 $22 $-1 $178 forward single #
loop $-1 $-1 $111 $65 #
plane-surface $-1 78.076113162633135 0 0 -1 0 0 0 0 1 forward_v I I I I #
coedge $-1 $179 $180 $181 $182 reversed $66 $-1 #
coedge $-1 $110 $68 $183 $184 reversed $43 $-1 #
coedge $-1 $68 $109 $179 $185 reversed $43 $-1 #
coedge $-1 $181 $186 $68 $112 forward $106 $-1 #
edge $-1 $187 99.652106134771756 $188 109.56819138730675 $111 $189 forward 7 unknown #
loop $-1 $-1 $118 $69 #
plane-surface $-1 -36.126394395720993 32.606347851927801 108.05725186391962 0.68199836817093118 0 0.7313536940579346 0.7313536940579346 0 -0.68199836817093118 forward_v I I I I #
loop $-1 $-1 $190 $45 #
coedge $-1 $116 $116 $117 $191 reversed $70 $-1 #
coedge $-1 $117 $117 $116 $191 forward $72 $-1 #
coedge $-1 $118 $118 $73 $119 forward $113 $-1 #
edge $-1 $192 0 $192 6.2831853071796004 $118 $193 forward 7 unknown #
face $-1 $194 $195 $18 $-1 $196 reversed single #
loop $-1 $-1 $197 $74 #
plane-surface $-1 -78.076113162633135 0 0 1 0 0 0 0 -1 forward_v I I I I #
coedge $-1 $198 $131 $199 $200 forward $75 $-1 #
coedge $-1 $201 $77 $198 $202 forward $49 $-1 #
coedge $-1 $77 $201 $203 $204 forward $49 $-1 #
coedge $-1 $134 $133 $77 $127 reversed $135 $-1 #
edge $-1 $205 -42.34891077118683 $206 42.34891077118683 $126 $207 forward 7 unknown #
coedge $-1 $79 $78 $208 $209 forward $31 $-1 #
coedge $-1 $210 $211 $78 $130 reversed $195 $-1 #
edge $-1 $137 -78.076113162633135 $212 78.076113162633135 $129 $213 forward 7 unknown #
coedge $-1 $123 $214 $79 $132 reversed $75 $-1 #
edge $-1 $215 -78.076113162633135 $136 78.076113162633135 $131 $216 forward 7 unknown #
coedge $-1 $126 $80 $214 $217 forward $135 $-1 #
coedge $-1 $80 $126 $210 $218 reversed $135 $-1 #
loop $-1 $-1 $133 $194 #
vertex $-1 $81 $219 #
vertex $-1 $81 $220 #
straight-curve $-1 78.076113162633135 0 11.477773576365124 0 1 0 I I #
face $-1 $221 $222 $19 $-1 $223 reversed single #
loop $-1 $-1 $224 $82 #
plane-surface $-1 0 -42.34891077118683 0 0 1 0 0 0 1 forward_v I I I I #
coedge $-1 $145 $88 $225 $226 reversed $83 $-1 #
coedge $-1 $227 $85 $224 $228 reversed $53 $-1 #
coedge $-1 $85 $227 $229 $230 reversed $53 $-1 #
coedge $-1 $152 $142 $85 $146 reversed $83 $-1 #
edge $-1 $231 -42.34891077118683 $232 42.34891077118683 $145 $233 forward 7 unknown #
coedge $-1 $87 $86 $234 $235 reversed $34 $-1 #
coedge $-1 $236 $237 $86 $149 forward $238 $-1 #
edge $-1 $239 -41.13169327539876 $154 -32.757146499069989 $148 $240 forward 7 unknown #
coedge $-1 $241 $225 $87 $151 forward $140 $-1 #
edge $-1 $153 32.757146499069989 $242 41.13169327539876 $150 $243 forward 7 unknown #
coedge $-1 $88 $145 $236 $244 reversed $83 $-1 #
vertex $-1 $151 $245 #
vertex $-1 $149 $246 #
straight-curve $-1 -69.701566386304364 0 -5.2657498934122735 0 1 0 I I #
face $-1 $-1 $168 $20 $-1 $247 forward single #
loop $-1 $-1 $248 $90 #
plane-surface $-1 78.076113162633135 0 0 -1 0 0 0 0 1 forward_v I I I I #
coedge $-1 $249 $250 $251 $252 reversed $91 $-1 #
coedge $-1 $253 $93 $95 $166 forward $57 $-1 #
coedge $-1 $93 $253 $249 $254 forward $57 $-1 #
coedge $-1 $251 $96 $93 $163 forward $168 $-1 #
edge $-1 $170 -4.8712814596295129 $255 14.613844378888544 $162 $256 forward 7 unknown #
coedge $-1 $257 $258 $94 $165 forward $157 $-1 #
edge $-1 $259 -109.56819138730675 $169 -99.652106134771756 $164 $260 forward 7 unknown #
edge $-1 $170 141.61247708931248 $259 156.15222632526624 $95 $261 forward 7 unknown #
coedge $-1 $96 $251 $257 $262 forward $168 $-1 #
loop $-1 $-1 $251 $156 #
vertex $-1 $165 $263 #
vertex $-1 $97 $264 #
straight-curve $-1 35.184584572184264 -1.7763568394002505e-015 11.477773576365124 -1 0 0 I I #
coedge $-1 $172 $172 $-1 $265 reversed $100 $-1 #
edge $-1 $266 0 $266 6.2831853071796004 $101 $267 forward 7 unknown #
vertex $-1 $104 $268 #
ellipse-curve $-1 72.75926350543773 -9.7425629192590293 6.5197309500976139 0.68199836817093118 0 0.7313536940579346 2.1940610821738038 0 -2.0459951045127935 1 I I #
face $-1 $-1 $269 $22 $-1 $270 reversed single #
loop $-1 $-1 $183 $105 #
plane-surface $-1 0 0 11.477773576365124 0 0 1 1 0 0 forward_v I I I I #
coedge $-1 $271 $108 $110 $185 forward $66 $-1 #
coedge $-1 $108 $271 $272 $273 reversed $66 $-1 #
coedge $-1 $274 $111 $108 $182 forward $106 $-1 #
edge $-1 $188 6.5606110067048711 $275 26.04573684522293 $181 $276 forward 7 unknown #
coedge $-1 $277 $278 $109 $184 forward $177 $-1 #
edge $-1 $279 32.257829276058047 $187 42.891528590448871 $183 $280 forward 7 unknown #
edge $-1 $188 -156.15222632526624 $279 -141.61247708931248 $110 $281 forward 7 unknown #
coedge $-1 $111 $274 $277 $282 reversed $106 $-1 #
vertex $-1 $282 $283 #
vertex $-1 $112 $284 #
straight-curve $-1 78.076113162633135 22.863784932668771 111.12987971113688 0 0 -1 I I #
coedge $-1 $190 $190 $-1 $285 reversed $115 $-1 #
edge $-1 $286 0 $286 6.2831853071796004 $116 $287 forward 7 unknown #
vertex $-1 $119 $288 #
ellipse-curve $-1 72.75926350543773 32.606347851927801 6.5197309500976139 0.68199836817093118 0 0.7313536940579346 2.1940610821738038 0 -2.0459951045127935 1 I I #
face $-1 $-1 $135 $18 $-1 $289 reversed single #
loop $-1 $-1 $210 $120 #
plane-surface $-1 0 42.34891077118683 0 0 -1 0 0 0 -1 forward_v I I I I #
coedge $-1 $290 $208 $211 $291 forward $121 $-1 #
coedge $-1 $214 $123 $124 $202 reversed $75 $-1 #
coedge $-1 $208 $290 $123 $200 reversed $121 $-1 #
edge $-1 $215 -11.477773576365124 $292 11.477773576365124 $199 $293 forward 7 unknown #
coedge $-1 $125 $124 $290 $294 forward $49 $-1 #
edge $-1 $206 -78.076113162633135 $292 78.076113162633135 $198 $295 forward 7 unknown #
coedge $-1 $211 $210 $125 $204 reversed $195 $-1 #
edge $-1 $296 -78.076113162633135 $205 78.076113162633135 $203 $297 forward 7 unknown #
vertex $-1 $127 $298 #
vertex $-1 $217 $299 #
straight-curve $-1 78.076113162633135 0 -11.477773576365124 0 -1 0 I I #
coedge $-1 $197 $199 $128 $209 reversed $121 $-1 #
edge $-1 $212 -42.34891077118683 $215 42.34891077118683 $208 $300 forward 7 unknown #
coedge $-1 $203 $129 $134 $218 forward $195 $-1 #
coedge $-1 $129 $203 $197 $291 reversed $195 $-1 #
vertex $-1 $130 $301 #
straight-curve $-1 0 42.34891077118683 11.477773576365124 -1 0 0 I I #
coedge $-1 $131 $198 $133 $217 reversed $75 $-1 #
vertex $-1 $209 $302 #
straight-curve $-1 0 -42.34891077118683 11.477773576365124 1 0 0 I I #
edge $-1 $136 -11.477773576365124 $206 11.477773576365124 $133 $303 forward 7 unknown #
edge $-1 $137 -11.477773576365124 $205 11.477773576365124 $134 $304 forward 7 unknown #
point $-1 78.076113162633135 -42.34891077118683 11.477773576365124 #
point $-1 78.076113162633135 42.34891077118683 11.477773576365124 #
face $-1 $-1 $238 $19 $-1 $305 reversed single #
loop $-1 $-1 $306 $139 #
plane-surface $-1 -78.076113162633135 0 0 1 0 0 0 0 -1 forward_v I I I I #
coedge $-1 $225 $241 $143 $228 forward $140 $-1 #
coedge $-1 $150 $224 $142 $226 forward $140 $-1 #
edge $-1 $232 -6.5137299263681641 $153 -1.3392566201521277 $225 $307 forward 7 unknown #
coedge $-1 $144 $143 $306 $308 reversed $53 $-1 #
edge $-1 $309 -41.13169327539876 $232 -32.757146499069989 $224 $310 forward 7 unknown #
coedge $-1 $237 $236 $144 $230 forward $238 $-1 #
edge $-1 $231 32.757146499069989 $311 41.13169327539876 $229 $312 forward 7 unknown #
vertex $-1 $230 $313 #
vertex $-1 $228 $314 #
straight-curve $-1 -69.701566386304364 0 -10.44022319962831 0 -1 0 I I #
coedge $-1 $315 $316 $147 $235 forward $222 $-1 #
edge $-1 $242 -42.34891077118683 $239 42.34891077118683 $234 $317 forward 7 unknown #
coedge $-1 $229 $148 $152 $244 forward $238 $-1 #
coedge $-1 $148 $229 $315 $318 reversed $238 $-1 #
loop $-1 $-1 $229 $221 #
vertex $-1 $318 $319 #
straight-curve $-1 -36.944419887234375 42.34891077118683 -5.2657498934122735 1 0 0 I I #
coedge $-1 $224 $150 $316 $320 forward $140 $-1 #
vertex $-1 $320 $321 #
straight-curve $-1 -36.944419887234375 -42.34891077118683 -5.2657498934122735 -1 0 0 I I #
edge $-1 $154 1.3392566201521277 $231 6.5137299263681641 $236 $322 forward 7 unknown #
point $-1 -69.701566386304364 -42.34891077118683 -5.2657498934122735 #
point $-1 -69.701566386304364 42.34891077118683 -5.2657498934122735 #
plane-surface $-1 0 0 11.477773576365124 0 0 1 1 0 0 forward_v I I I I #
coedge $-1 $258 $257 $250 $323 forward $157 $-1 #
coedge $-1 $250 $159 $161 $254 reversed $91 $-1 #
coedge $-1 $159 $249 $248 $323 reversed $91 $-1 #
coedge $-1 $167 $162 $159 $252 forward $168 $-1 #
edge $-1 $255 32.257829276058047 $324 42.891528590448871 $251 $325 forward 7 unknown #
coedge $-1 $161 $160 $258 $326 reversed $57 $-1 #
edge $-1 $327 -156.15222632526624 $255 -141.61247708931248 $249 $328 forward 7 unknown #
vertex $-1 $163 $329 #
straight-curve $-1 67.44241384824231 -4.8712814596295146 11.477773576365124 0 -1 0 I I #
coedge $-1 $248 $164 $167 $262 reversed $157 $-1 #
coedge $-1 $164 $248 $253 $326 forward $157 $-1 #
vertex $-1 $165 $330 #
straight-curve $-1 78.076113162633135 -1.7763568394002505e-015 111.12987971113688 0 0 1 I I #
straight-curve $-1 -36.126394395720993 -1.7763568394002505e-015 108.05725186391962 0.7313536940579346 0 -0.68199836817093118 I I #
edge $-1 $324 -19.485125838518059 $169 -1.7763568394002505e-015 $257 $331 forward 7 unknown #
point $-1 78.076113162633135 -1.7763568394002505e-015 11.477773576365124 #
point $-1 67.44241384824231 -1.7763568394002505e-015 11.477773576365124 #
edge $-1 $332 1 $332 0 $172 $-1 forward 7 unknown #
vertex $-1 $173 $333 #
ellipse-curve $-1 65.750729659927615 -9.7425629192590293 -0.99600128191736537 0.68199836817093118 0 0.7313536940579346 2.1940610821738038 0 -2.0459951045127935 1 I I #
point $-1 74.953324587611519 -9.7425629192590293 4.4737358455848026 #
loop $-1 $-1 $272 $176 #
plane-surface $-1 0 42.34891077118683 0 0 -1 0 0 0 -1 forward_v I I I I #
coedge $-1 $180 $179 $278 $334 reversed $66 $-1 #
coedge $-1 $335 $336 $180 $273 forward $269 $-1 #
edge $-1 $275 -106.09420560799978 $337 -91.554456372046033 $272 $338 forward 7 unknown #
coedge $-1 $186 $181 $336 $339 reversed $106 $-1 #
vertex $-1 $182 $340 #
straight-curve $-1 78.076113162633135 16.3031739259639 1.5616883238301185 0 1 0 I I #
coedge $-1 $341 $183 $186 $282 forward $177 $-1 #
coedge $-1 $183 $341 $271 $334 forward $177 $-1 #
vertex $-1 $184 $342 #
straight-curve $-1 35.184584572184264 22.863784932668771 11.477773576365124 1 0 0 I I #
straight-curve $-1 -36.126394395720993 22.863784932668771 108.05725186391962 -0.7313536940579346 0 0.68199836817093118 I I #
edge $-1 $187 22.863784932668771 $343 42.34891077118683 $186 $344 forward 7 unknown #
point $-1 78.076113162633135 22.863784932668771 11.477773576365124 #
point $-1 78.076113162633135 22.863784932668771 1.5616883238301256 #
edge $-1 $345 1 $345 0 $190 $-1 forward 7 unknown #
vertex $-1 $191 $346 #
ellipse-curve $-1 65.750729659927615 32.606347851927801 -0.99600128191736537 0.68199836817093118 0 0.7313536940579346 2.1940610821738038 0 -2.0459951045127935 1 I I #
point $-1 74.953324587611519 32.606347851927801 4.4737358455848026 #
plane-surface $-1 78.076113162633135 0 0 -1 0 0 0 0 1 forward_v I I I I #
coedge $-1 $199 $197 $201 $294 reversed $121 $-1 #
edge $-1 $212 -11.477773576365124 $296 11.477773576365124 $211 $347 forward 7 unknown #
vertex $-1 $294 $348 #
straight-curve $-1 -78.076113162633135 -42.34891077118683 0 0 0 -1 I I #
edge $-1 $292 -42.34891077118683 $296 42.34891077118683 $290 $349 forward 7 unknown #
straight-curve $-1 0 -42.34891077118683 -11.477773576365124 -1 0 0 I I #
vertex $-1 $204 $350 #
straight-curve $-1 0 42.34891077118683 -11.477773576365124 1 0 0 I I #
point $-1 78.076113162633135 42.34891077118683 -11.477773576365124 #
point $-1 78.076113162633135 -42.34891077118683 -11.477773576365124 #
straight-curve $-1 -78.076113162633135 0 11.477773576365124 0 -1 0 I I #
point $-1 -78.076113162633135 42.34891077118683 11.477773576365124 #
point $-1 -78.076113162633135 -42.34891077118683 11.477773576365124 #
straight-curve $-1 78.076113162633135 -42.34891077118683 0 0 0 -1 I I #
straight-curve $-1 78.076113162633135 42.34891077118683 0 0 0 -1 I I #
plane-surface $-1 0 42.34891077118683 0 0 -1 0 0 0 -1 forward_v I I I I #
coedge $-1 $316 $315 $227 $308 forward $222 $-1 #
straight-curve $-1 -69.701566386304364 -42.34891077118683 -3.9264932732601459 0 0 1 I I #
edge $-1 $311 -42.34891077118683 $309 42.34891077118683 $306 $351 forward 7 unknown #
vertex $-1 $228 $352 #
straight-curve $-1 -36.944419887234375 -42.34891077118683 -10.44022319962831 1 0 0 I I #
vertex $-1 $230 $353 #
straight-curve $-1 -36.944419887234375 42.34891077118683 -10.44022319962831 -1 0 0 I I #
point $-1 -69.701566386304364 42.34891077118683 -10.44022319962831 #
point $-1 -69.701566386304364 -42.34891077118683 -10.44022319962831 #
coedge $-1 $306 $234 $237 $318 forward $222 $-1 #
coedge $-1 $234 $306 $241 $320 reversed $222 $-1 #
straight-curve $-1 -78.076113162633135 0 -5.2657498934122735 0 1 0 I I #
edge $-1 $239 5.2657498934122735 $311 10.44022319962831 $237 $354 forward 7 unknown #
point $-1 -78.076113162633135 42.34891077118683 -5.2657498934122735 #
edge $-1 $242 5.2657498934122735 $309 10.44022319962831 $316 $355 forward 7 unknown #
point $-1 -78.076113162633135 -42.34891077118683 -5.2657498934122735 #
straight-curve $-1 -69.701566386304364 42.34891077118683 -3.9264932732601459 0 0 -1 I I #
edge $-1 $324 99.652106134771756 $327 109.56819138730675 $248 $356 forward 7 unknown #
vertex $-1 $262 $357 #
straight-curve $-1 35.184584572184264 -19.485125838518059 11.477773576365124 1 0 0 I I #
edge $-1 $327 -14.613844378888544 $259 4.8712814596295129 $258 $358 forward 7 unknown #
vertex $-1 $326 $359 #
straight-curve $-1 -36.126394395720993 -19.485125838518059 108.05725186391962 -0.7313536940579346 0 0.68199836817093118 I I #
point $-1 67.44241384824231 -19.485125838518059 11.477773576365124 #
point $-1 78.076113162633135 -1.7763568394002505e-015 1.5616883238301256 #
straight-curve $-1 78.076113162633135 0 11.477773576365124 0 1 0 I I #
vertex $-1 $265 $360 #
point $-1 67.944790742101418 -9.7425629192590293 -3.0419963864301591 #
edge $-1 $337 -26.04573684522293 $279 -6.5606110067048711 $278 $361 forward 7 unknown #
coedge $-1 $336 $272 $341 $362 reversed $269 $-1 #
coedge $-1 $272 $335 $274 $339 forward $269 $-1 #
vertex $-1 $273 $363 #
straight-curve $-1 0.48372397308044768 42.34891077118683 73.917763420877236 -0.7313536940579346 0 0.68199836817093118 I I #
edge $-1 $343 -11.477773576365124 $275 -1.561688323830126 $274 $364 forward 7 unknown #
point $-1 78.076113162633135 42.34891077118683 1.561688323830126 #
coedge $-1 $278 $277 $335 $362 forward $177 $-1 #
point $-1 67.44241384824231 22.863784932668771 11.477773576365124 #
vertex $-1 $282 $365 #
straight-curve $-1 78.076113162633135 0 11.477773576365124 0 1 0 I I #
vertex $-1 $285 $366 #
point $-1 67.944790742101418 32.606347851927801 -3.0419963864301591 #
straight-curve $-1 -78.076113162633135 42.34891077118683 0 0 0 -1 I I #
point $-1 -78.076113162633135 -42.34891077118683 -11.477773576365124 #
straight-curve $-1 -78.076113162633135 0 -11.477773576365124 0 1 0 I I #
point $-1 -78.076113162633135 42.34891077118683 -11.477773576365124 #
straight-curve $-1 -78.076113162633135 0 -10.44022319962831 0 -1 0 I I #
point $-1 -78.076113162633135 -42.34891077118683 -10.44022319962831 #
point $-1 -78.076113162633135 42.34891077118683 -10.44022319962831 #
straight-curve $-1 -78.076113162633135 42.34891077118683 0 0 0 -1 I I #
straight-curve $-1 -78.076113162633135 -42.34891077118683 0 0 0 -1 I I #
straight-curve $-1 78.076113162633135 -19.485125838518059 111.12987971113688 0 0 -1 I I #
point $-1 78.076113162633135 -19.485125838518059 11.477773576365124 #
straight-curve $-1 78.076113162633135 -4.8712814596295146 1.5616883238301185 0 1 0 I I #
point $-1 78.076113162633135 -19.485125838518059 1.5616883238301256 #
point $-1 63.704734555414817 -9.7425629192590293 -3.1900623640911689 #
straight-curve $-1 67.44241384824231 16.3031739259639 11.477773576365124 0 -1 0 I I #
edge $-1 $343 -78.076113162633135 $337 -67.44241384824231 $335 $367 forward 7 unknown #
point $-1 67.44241384824231 42.34891077118683 11.477773576365124 #
straight-curve $-1 78.076113162633135 42.34891077118683 0 0 0 -1 I I #
point $-1 78.076113162633135 42.34891077118683 11.477773576365124 #
point $-1 63.704734555414817 32.606347851927801 -3.1900623640911689 #
straight-curve $-1 0 42.34891077118683 11.477773576365124 -1 0 0 I I #
End-of-ACIS-data 