500 0 5 0           
7 Unknown 11 ACIS 5.0 NT 24 Fri Mar 26 17:03:36 1999 
-1 9.9999999999999995e-007 1e-010 
body $-1 $5 $-1 $6 #
body $-1 $7 $-1 $8 #
body $-1 $9 $-1 $10 #
body $-1 $11 $-1 $12 #
body $-1 $13 $-1 $14 #
lump $-1 $-1 $15 $0 #
transform $-1 1 0 0 0 1 0 0 0 1 76.661275063325917 35.628881483104081 11.182425701118168 1 rotate no_reflect no_shear #
lump $-1 $-1 $16 $1 #
transform $-1 1 0 0 0 1 0 0 0 1 76.661275063325917 35.628881483104081 11.182425701118168 1 rotate no_reflect no_shear #
lump $-1 $-1 $17 $2 #
transform $-1 1 0 0 0 1 0 0 0 1 76.661275063325917 35.628881483104081 11.182425701118168 1 rotate no_reflect no_shear #
lump $-1 $-1 $18 $3 #
transform $-1 1 0 0 0 1 0 0 0 1 76.661275063325917 35.628881483104081 11.182425701118168 1 rotate no_reflect no_shear #
lump $-1 $-1 $19 $4 #
transform $-1 1 0 0 0 1 0 0 0 1 76.661275063325917 35.628881483104081 11.182425701118168 1 rotate no_reflect no_shear #
shell $-1 $-1 $-1 $20 $-1 $5 #
shell $-1 $-1 $-1 $21 $-1 $7 #
shell $-1 $-1 $-1 $22 $-1 $9 #
shell $-1 $-1 $-1 $23 $-1 $11 #
shell $-1 $-1 $-1 $24 $-1 $13 #
face $-1 $25 $26 $15 $-1 $27 forward single #
face $-1 $28 $29 $16 $-1 $30 forward single #
face $-1 $31 $32 $17 $-1 $33 reversed single #
face $-1 $34 $35 $18 $-1 $36 forward single #
face $-1 $37 $38 $19 $-1 $39 forward single #
face $-1 $40 $41 $15 $-1 $42 reversed single #
loop $-1 $-1 $43 $20 #
plane-surface $-1 0 0 11.182425701118168 0 0 1 1 0 0 forward_v I I I I #
face $-1 $44 $45 $16 $-1 $46 reversed single #
loop $-1 $-1 $47 $21 #
plane-surface $-1 -76.661275063325917 0 0 1 0 0 0 0 -1 forward_v I I I I #
face $-1 $48 $49 $17 $-1 $50 reversed single #
loop $-1 $-1 $51 $22 #
plane-surface $-1 121.74294262689511 26.635924325165895 216.62364186963183 0 1 0 0.83867057594974714 0 0.54463902268945019 forward_v I I I I #
face $-1 $52 $53 $18 $-1 $54 forward single #
loop $-1 $55 $56 $23 #
cone-surface $-1 73.744332708911969 29.205340656005376 7.3650069631457331 -0.83867057594974714 0 -0.54463902268945019 0.54463902268945019 0 -0.83867057594974714 1 I I 0 1 1 forward I I I I #
face $-1 $57 $58 $19 $-1 $59 forward single #
loop $-1 $60 $61 $24 #
cone-surface $-1 73.744332708911969 33.059465152264593 7.3650069631457331 -0.83867057594974714 0 -0.54463902268945019 0.54463902268945019 0 -0.83867057594974714 1 I I 0 1 1 forward I I I I #
face $-1 $62 $63 $15 $-1 $64 reversed single #
loop $-1 $-1 $65 $25 #
plane-surface $-1 0 0 -11.182425701118168 0 0 1 1 0 0 forward_v I I I I #
coedge $-1 $66 $67 $68 $69 forward $26 $-1 #
face $-1 $70 $71 $16 $-1 $72 reversed single #
loop $-1 $-1 $73 $28 #
plane-surface $-1 0 35.628881483104081 0 0 -1 0 0 0 -1 forward_v I I I I #
coedge $-1 $74 $75 $76 $77 forward $29 $-1 #
face $-1 $78 $79 $17 $-1 $80 reversed single #
loop $-1 $-1 $81 $31 #
plane-surface $-1 -6.8441687939079543 31.132402904134992 133.11819801239795 0.83867057594974714 0 0.54463902268945019 0.54463902268945019 0 -0.83867057594974714 forward_v I I I I #
coedge $-1 $82 $83 $84 $85 reversed $32 $-1 #
face $-1 $-1 $86 $18 $-1 $87 forward single #
loop $-1 $88 $89 $34 #
cone-surface $-1 72.567770058362754 29.205340656005376 6.6009382685902356 -0.83867057594974714 0 -0.54463902268945019 0.2723195113447251 0 -0.41933528797487357 1 I I -0.70710678118654746 0.70710678118654746 0.5 forward I I I I #
loop $-1 $-1 $90 $23 #
coedge $-1 $56 $56 $91 $92 reversed $35 $-1 #
face $-1 $-1 $93 $19 $-1 $94 forward single #
loop $-1 $95 $96 $37 #
cone-surface $-1 72.567770058362754 33.059465152264593 6.6009382685902356 -0.83867057594974714 0 -0.54463902268945019 0.2723195113447251 0 -0.41933528797487357 1 I I -0.70710678118654746 0.70710678118654746 0.5 forward I I I I #
loop $-1 $-1 $97 $24 #
coedge $-1 $61 $61 $98 $99 reversed $38 $-1 #
face $-1 $100 $101 $15 $-1 $102 reversed single #
loop $-1 $-1 $103 $40 #
plane-surface $-1 0 -35.628881483104081 0 0 1 0 0 0 1 forward_v I I I I #
coedge $-1 $104 $105 $106 $107 forward $41 $-1 #
coedge $-1 $108 $43 $109 $110 forward $26 $-1 #
coedge $-1 $43 $108 $111 $112 forward $26 $-1 #
coedge $-1 $113 $114 $43 $69 reversed $115 $-1 #
edge $-1 $116 -35.628881483104081 $117 35.628881483104081 $68 $118 forward 7 unknown #
face $-1 $119 $120 $16 $-1 $121 reversed single #
loop $-1 $-1 $76 $44 #
plane-surface $-1 -83.299626678496523 0 8.1824257011181682 0 0 1 1 0 0 forward_v I I I I #
coedge $-1 $122 $123 $74 $124 forward $45 $-1 #
coedge $-1 $125 $47 $73 $124 reversed $29 $-1 #
coedge $-1 $47 $125 $126 $127 reversed $29 $-1 #
coedge $-1 $128 $129 $47 $77 reversed $71 $-1 #
edge $-1 $130 -35.628881483104081 $131 35.628881483104081 $76 $132 forward 7 unknown #
face $-1 $133 $134 $17 $-1 $135 forward single #
loop $-1 $-1 $136 $48 #
plane-surface $-1 0 35.628881483104081 0 0 -1 0 0 0 -1 forward_v I I I I #
coedge $-1 $137 $138 $139 $140 reversed $49 $-1 #
coedge $-1 $83 $51 $141 $142 reversed $32 $-1 #
coedge $-1 $51 $82 $137 $143 reversed $32 $-1 #
coedge $-1 $139 $144 $51 $85 forward $145 $-1 #
edge $-1 $146 97.12939523369775 $147 103.780734343221 $84 $148 forward 7 unknown #
loop $-1 $-1 $91 $52 #
plane-surface $-1 -6.8441687939079543 31.132402904134992 133.11819801239795 0.83867057594974714 0 0.54463902268945019 0.54463902268945019 0 -0.83867057594974714 forward_v I I I I #
loop $-1 $-1 $149 $34 #
coedge $-1 $89 $89 $90 $150 reversed $53 $-1 #
coedge $-1 $90 $90 $89 $150 forward $55 $-1 #
coedge $-1 $91 $91 $56 $92 forward $86 $-1 #
edge $-1 $151 0 $151 6.2831853071796004 $91 $152 forward 7 unknown #
loop $-1 $-1 $98 $57 #
plane-surface $-1 -6.8441687939079543 31.132402904134992 133.11819801239795 0.83867057594974714 0 0.54463902268945019 0.54463902268945019 0 -0.83867057594974714 forward_v I I I I #
loop $-1 $-1 $153 $37 #
coedge $-1 $96 $96 $97 $154 reversed $58 $-1 #
coedge $-1 $97 $97 $96 $154 forward $60 $-1 #
coedge $-1 $98 $98 $61 $99 forward $93 $-1 #
edge $-1 $155 0 $155 6.2831853071796004 $98 $156 forward 7 unknown #
face $-1 $157 $158 $15 $-1 $159 reversed single #
loop $-1 $-1 $160 $62 #
plane-surface $-1 -76.661275063325917 0 0 1 0 0 0 0 -1 forward_v I I I I #
coedge $-1 $161 $111 $162 $163 forward $63 $-1 #
coedge $-1 $164 $65 $161 $165 forward $41 $-1 #
coedge $-1 $65 $164 $166 $167 forward $41 $-1 #
coedge $-1 $114 $113 $65 $107 reversed $115 $-1 #
edge $-1 $168 -35.628881483104081 $169 35.628881483104081 $106 $170 forward 7 unknown #
coedge $-1 $67 $66 $171 $172 forward $26 $-1 #
coedge $-1 $173 $174 $66 $110 reversed $158 $-1 #
edge $-1 $117 -76.661275063325917 $175 76.661275063325917 $109 $176 forward 7 unknown #
coedge $-1 $103 $177 $67 $112 reversed $63 $-1 #
edge $-1 $178 -76.661275063325917 $116 76.661275063325917 $111 $179 forward 7 unknown #
coedge $-1 $106 $68 $177 $180 forward $115 $-1 #
coedge $-1 $68 $106 $173 $181 reversed $115 $-1 #
loop $-1 $-1 $113 $157 #
vertex $-1 $69 $182 #
vertex $-1 $69 $183 #
straight-curve $-1 76.661275063325917 0 11.182425701118168 0 1 0 I I #
face $-1 $184 $185 $16 $-1 $186 forward single #
loop $-1 $-1 $187 $70 #
plane-surface $-1 -89.937978293667129 0 9.6824257011181682 1 0 0 0 0 -1 forward_v I I I I #
coedge $-1 $188 $73 $129 $189 reversed $45 $-1 #
coedge $-1 $73 $188 $190 $191 reversed $45 $-1 #
edge $-1 $192 -11.182425701118168 $131 -8.1824257011181682 $73 $193 forward 7 unknown #
coedge $-1 $75 $74 $194 $195 reversed $29 $-1 #
coedge $-1 $196 $197 $75 $127 forward $198 $-1 #
edge $-1 $130 8.1824257011181682 $199 11.182425701118168 $126 $200 forward 7 unknown #
coedge $-1 $201 $76 $197 $202 forward $71 $-1 #
coedge $-1 $76 $201 $122 $189 forward $71 $-1 #
vertex $-1 $127 $203 #
vertex $-1 $124 $204 #
straight-curve $-1 -76.661275063325917 0 8.1824257011181682 0 1 0 I I #
face $-1 $-1 $145 $17 $-1 $205 reversed single #
loop $-1 $-1 $141 $78 #
plane-surface $-1 0 0 11.182425701118168 0 0 1 1 0 0 forward_v I I I I #
coedge $-1 $206 $207 $138 $208 forward $79 $-1 #
coedge $-1 $209 $81 $83 $143 forward $49 $-1 #
coedge $-1 $81 $209 $136 $208 reversed $49 $-1 #
coedge $-1 $210 $84 $81 $140 forward $145 $-1 #
edge $-1 $147 11.069722873098399 $211 20.062680031036585 $139 $212 forward 7 unknown #
coedge $-1 $213 $214 $82 $142 forward $134 $-1 #
edge $-1 $215 11.470373766199131 $146 15.789803749878359 $141 $216 forward 7 unknown #
edge $-1 $147 -153.32255012665181 $215 -145.39173759994429 $83 $217 forward 7 unknown #
coedge $-1 $84 $210 $213 $218 reversed $145 $-1 #
loop $-1 $-1 $139 $133 #
vertex $-1 $218 $219 #
vertex $-1 $85 $220 #
straight-curve $-1 76.661275063325917 26.635924325165895 108.31182093481591 0 0 -1 I I #
coedge $-1 $149 $149 $-1 $221 reversed $88 $-1 #
edge $-1 $222 0 $222 6.2831853071796004 $89 $223 forward 7 unknown #
vertex $-1 $92 $224 #
ellipse-curve $-1 74.501560071486324 29.205340656005376 7.8567561463565152 0.83867057594974714 0 0.54463902268945019 0.54463902268945019 0 -0.83867057594974714 1 I I #
coedge $-1 $153 $153 $-1 $225 reversed $95 $-1 #
edge $-1 $226 0 $226 6.2831853071796004 $96 $227 forward 7 unknown #
vertex $-1 $99 $228 #
ellipse-curve $-1 74.501560071486324 33.059465152264593 7.8567561463565152 0.83867057594974714 0 0.54463902268945019 0.54463902268945019 0 -0.83867057594974714 1 I I #
face $-1 $-1 $115 $15 $-1 $229 reversed single #
loop $-1 $-1 $173 $100 #
plane-surface $-1 0 35.628881483104081 0 0 -1 0 0 0 -1 forward_v I I I I #
coedge $-1 $230 $171 $174 $231 forward $101 $-1 #
coedge $-1 $177 $103 $104 $165 reversed $63 $-1 #
coedge $-1 $171 $230 $103 $163 reversed $101 $-1 #
edge $-1 $178 -11.182425701118168 $232 11.182425701118168 $162 $233 forward 7 unknown #
coedge $-1 $105 $104 $230 $234 forward $41 $-1 #
edge $-1 $169 -76.661275063325917 $232 76.661275063325917 $161 $235 forward 7 unknown #
coedge $-1 $174 $173 $105 $167 reversed $158 $-1 #
edge $-1 $236 -76.661275063325917 $168 76.661275063325917 $166 $237 forward 7 unknown #
vertex $-1 $107 $238 #
vertex $-1 $180 $239 #
straight-curve $-1 76.661275063325917 0 -11.182425701118168 0 -1 0 I I #
coedge $-1 $160 $162 $108 $172 reversed $101 $-1 #
edge $-1 $175 -35.628881483104081 $178 35.628881483104081 $171 $240 forward 7 unknown #
coedge $-1 $166 $109 $114 $181 forward $158 $-1 #
coedge $-1 $109 $166 $160 $231 reversed $158 $-1 #
vertex $-1 $110 $241 #
straight-curve $-1 0 35.628881483104081 11.182425701118168 -1 0 0 I I #
coedge $-1 $111 $161 $113 $180 reversed $63 $-1 #
vertex $-1 $172 $242 #
straight-curve $-1 0 -35.628881483104081 11.182425701118168 1 0 0 I I #
edge $-1 $116 -11.182425701118168 $169 11.182425701118168 $113 $243 forward 7 unknown #
edge $-1 $117 -11.182425701118168 $168 11.182425701118168 $114 $244 forward 7 unknown #
point $-1 76.661275063325917 -35.628881483104081 11.182425701118168 #
point $-1 76.661275063325917 35.628881483104081 11.182425701118168 #
face $-1 $-1 $198 $16 $-1 $245 reversed single #
loop $-1 $-1 $194 $119 #
plane-surface $-1 0 0 11.182425701118168 0 0 1 1 0 0 forward_v I I I I #
coedge $-1 $246 $247 $188 $248 forward $120 $-1 #
coedge $-1 $123 $122 $187 $248 reversed $45 $-1 #
edge $-1 $249 -6.6383516151706061 $131 6.6383516151706061 $122 $250 forward 7 unknown #
coedge $-1 $251 $194 $123 $191 forward $185 $-1 #
edge $-1 $192 76.661275063325917 $252 89.937978293667129 $123 $253 forward 7 unknown #
vertex $-1 $191 $254 #
straight-curve $-1 -76.661275063325917 35.628881483104081 0 0 0 -1 I I #
coedge $-1 $190 $255 $125 $195 forward $185 $-1 #
edge $-1 $199 -35.628881483104081 $192 35.628881483104081 $194 $256 forward 7 unknown #
coedge $-1 $257 $126 $255 $258 reversed $198 $-1 #
coedge $-1 $126 $257 $128 $202 reversed $198 $-1 #
loop $-1 $-1 $126 $184 #
vertex $-1 $127 $259 #
straight-curve $-1 -76.661275063325917 -35.628881483104081 0 0 0 1 I I #
coedge $-1 $129 $128 $246 $260 forward $71 $-1 #
edge $-1 $130 -6.6383516151706061 $261 6.6383516151706061 $197 $262 forward 7 unknown #
point $-1 -76.661275063325917 -35.628881483104081 8.1824257011181682 #
point $-1 -76.661275063325917 35.628881483104081 8.1824257011181682 #
plane-surface $-1 76.661275063325917 0 0 -1 0 0 0 0 1 forward_v I I I I #
coedge $-1 $207 $136 $263 $264 reversed $79 $-1 #
coedge $-1 $136 $206 $210 $265 forward $79 $-1 #
edge $-1 $211 -95.637591526908849 $266 -87.706779000201323 $136 $267 forward 7 unknown #
coedge $-1 $138 $137 $214 $268 reversed $49 $-1 #
coedge $-1 $144 $139 $207 $265 reversed $145 $-1 #
vertex $-1 $208 $269 #
straight-curve $-1 76.661275063325917 15.566201452067496 4.5310865915949137 0 1 0 I I #
coedge $-1 $263 $141 $144 $218 forward $134 $-1 #
coedge $-1 $141 $263 $209 $268 forward $134 $-1 #
vertex $-1 $142 $270 #
straight-curve $-1 60.871471313447557 26.635924325165895 11.182425701118163 1 0 0 I I #
straight-curve $-1 -6.8441687939079543 26.635924325165895 133.11819801239795 -0.54463902268945019 0 0.83867057594974714 I I #
edge $-1 $146 26.635924325165895 $271 35.628881483104081 $144 $272 forward 7 unknown #
point $-1 76.661275063325917 26.635924325165895 11.182425701118168 #
point $-1 76.661275063325917 26.635924325165895 4.5310865915949137 #
edge $-1 $273 1 $273 0 $149 $-1 forward 7 unknown #
vertex $-1 $150 $274 #
ellipse-curve $-1 72.987105346337628 29.205340656005376 6.8732577799349608 0.83867057594974714 0 0.54463902268945019 0.54463902268945019 0 -0.83867057594974714 1 I I #
point $-1 75.046199094175748 29.205340656005376 7.0180855704067584 #
edge $-1 $275 1 $275 0 $153 $-1 forward 7 unknown #
vertex $-1 $154 $276 #
ellipse-curve $-1 72.987105346337628 33.059465152264593 6.8732577799349608 0.83867057594974714 0 0.54463902268945019 0.54463902268945019 0 -0.83867057594974714 1 I I #
point $-1 75.046199094175748 33.059465152264593 7.0180855704067584 #
plane-surface $-1 76.661275063325917 0 0 -1 0 0 0 0 1 forward_v I I I I #
coedge $-1 $162 $160 $164 $234 reversed $101 $-1 #
edge $-1 $175 -11.182425701118168 $236 11.182425701118168 $174 $277 forward 7 unknown #
vertex $-1 $234 $278 #
straight-curve $-1 -76.661275063325917 -35.628881483104081 0 0 0 -1 I I #
edge $-1 $232 -35.628881483104081 $236 35.628881483104081 $230 $279 forward 7 unknown #
straight-curve $-1 0 -35.628881483104081 -11.182425701118168 -1 0 0 I I #
vertex $-1 $167 $280 #
straight-curve $-1 0 35.628881483104081 -11.182425701118168 1 0 0 I I #
point $-1 76.661275063325917 35.628881483104081 -11.182425701118168 #
point $-1 76.661275063325917 -35.628881483104081 -11.182425701118168 #
straight-curve $-1 -76.661275063325917 0 11.182425701118168 0 -1 0 I I #
point $-1 -76.661275063325917 35.628881483104081 11.182425701118168 #
point $-1 -76.661275063325917 -35.628881483104081 11.182425701118168 #
straight-curve $-1 76.661275063325917 -35.628881483104081 0 0 0 -1 I I #
straight-curve $-1 76.661275063325917 35.628881483104081 0 0 0 -1 I I #
plane-surface $-1 0 -35.628881483104081 0 0 1 0 0 0 1 forward_v I I I I #
coedge $-1 $281 $187 $201 $260 reversed $120 $-1 #
coedge $-1 $187 $281 $251 $282 reversed $120 $-1 #
edge $-1 $252 -1.5 $249 1.5 $188 $283 forward 7 unknown #
vertex $-1 $189 $284 #
straight-curve $-1 -83.299626678496523 35.628881483104081 8.1824257011181682 1 0 0 I I #
coedge $-1 $255 $190 $247 $282 forward $185 $-1 #
vertex $-1 $191 $285 #
straight-curve $-1 0 35.628881483104081 11.182425701118168 -1 0 0 I I #
point $-1 -76.661275063325917 35.628881483104081 11.182425701118168 #
coedge $-1 $194 $251 $196 $258 forward $185 $-1 #
straight-curve $-1 -76.661275063325917 0 11.182425701118168 0 1 0 I I #
coedge $-1 $197 $196 $281 $286 forward $198 $-1 #
edge $-1 $287 -89.937978293667129 $199 -76.661275063325917 $196 $288 forward 7 unknown #
point $-1 -76.661275063325917 -35.628881483104081 11.182425701118168 #
edge $-1 $261 -35.628881483104081 $249 35.628881483104081 $246 $289 forward 7 unknown #
vertex $-1 $260 $290 #
straight-curve $-1 -83.299626678496523 -35.628881483104081 8.1824257011181682 -1 0 0 I I #
coedge $-1 $214 $213 $206 $264 forward $134 $-1 #
edge $-1 $271 -76.661275063325917 $266 -72.341845079646689 $206 $291 forward 7 unknown #
edge $-1 $271 -11.182425701118168 $211 -4.5310865915949003 $210 $292 forward 7 unknown #
vertex $-1 $208 $293 #
straight-curve $-1 24.573310681737446 35.628881483104081 84.739520559914197 -0.54463902268945019 0 0.83867057594974714 I I #
edge $-1 $266 -20.062680031036592 $215 -11.069722873098399 $214 $294 forward 7 unknown #
point $-1 76.661275063325917 35.628881483104081 4.5310865915949003 #
point $-1 72.341845079646689 26.635924325165895 11.182425701118163 #
vertex $-1 $218 $295 #
straight-curve $-1 76.661275063325917 0 11.182425701118168 0 1 0 I I #
vertex $-1 $221 $296 #
point $-1 73.531744369027081 29.205340656005376 6.0345872039852138 #
vertex $-1 $225 $297 #
point $-1 73.531744369027081 33.059465152264593 6.0345872039852138 #
straight-curve $-1 -76.661275063325917 35.628881483104081 0 0 0 -1 I I #
point $-1 -76.661275063325917 -35.628881483104081 -11.182425701118168 #
straight-curve $-1 -76.661275063325917 0 -11.182425701118168 0 1 0 I I #
point $-1 -76.661275063325917 35.628881483104081 -11.182425701118168 #
coedge $-1 $247 $246 $257 $286 reversed $120 $-1 #
edge $-1 $252 -35.628881483104081 $287 35.628881483104081 $247 $298 forward 7 unknown #
straight-curve $-1 -89.937978293667129 35.628881483104081 9.6824257011181682 0 0 -1 I I #
point $-1 -89.937978293667129 35.628881483104081 8.1824257011181682 #
point $-1 -89.937978293667129 35.628881483104081 11.182425701118168 #
edge $-1 $287 -1.5 $261 1.5 $281 $299 forward 7 unknown #
vertex $-1 $282 $300 #
straight-curve $-1 0 -35.628881483104081 11.182425701118168 1 0 0 I I #
straight-curve $-1 -89.937978293667129 0 8.1824257011181682 0 1 0 I I #
point $-1 -89.937978293667129 -35.628881483104081 8.1824257011181682 #
straight-curve $-1 0 35.628881483104081 11.182425701118168 -1 0 0 I I #
straight-curve $-1 76.661275063325917 35.628881483104081 0 0 0 -1 I I #
point $-1 72.341845079646689 35.628881483104088 11.182425701118163 #
straight-curve $-1 72.341845079646703 15.566201452067496 11.182425701118163 0 -1 0 I I #
point $-1 76.661275063325917 35.628881483104081 11.182425701118168 #
point $-1 72.14843477038788 29.205340656005376 6.3286187572455104 #
point $-1 72.14843477038788 33.059465152264593 6.3286187572455104 #
straight-curve $-1 -89.937978293667129 0 11.182425701118168 0 -1 0 I I #
straight-curve $-1 -89.937978293667129 -35.628881483104081 9.6824257011181682 0 0 -1 I I #
point $-1 -89.937978293667129 -35.628881483104081 11.182425701118168 #
End-of-ACIS-data 