500 0 9 0           
7 Unknown 11 ACIS 5.0 NT 24 Thu Mar 25 21:02:39 1999 
-1 9.9999999999999995e-007 1e-010 
body $-1 $9 $-1 $10 #
body $-1 $11 $-1 $12 #
body $-1 $13 $-1 $14 #
body $-1 $15 $-1 $16 #
body $-1 $17 $-1 $18 #
body $-1 $19 $-1 $20 #
body $-1 $21 $-1 $22 #
body $-1 $23 $-1 $24 #
body $-1 $25 $-1 $26 #
lump $-1 $-1 $27 $0 #
transform $-1 1 0 0 0 1 0 0 0 1 78.637653736991481 39.267468923307852 16.702965029028366 1 rotate no_reflect no_shear #
lump $-1 $-1 $28 $1 #
transform $-1 1 0 0 0 1 0 0 0 1 78.637653736991481 39.267468923307852 16.702965029028366 1 rotate no_reflect no_shear #
lump $-1 $-1 $29 $2 #
transform $-1 1 0 0 0 1 0 0 0 1 78.637653736991481 39.267468923307852 16.702965029028366 1 rotate no_reflect no_shear #
lump $-1 $-1 $30 $3 #
transform $-1 1 0 0 0 1 0 0 0 1 78.637653736991481 39.267468923307852 16.702965029028366 1 rotate no_reflect no_shear #
lump $-1 $-1 $31 $4 #
transform $-1 1 0 0 0 1 0 0 0 1 78.637653736991481 39.267468923307852 16.702965029028366 1 rotate no_reflect no_shear #
lump $-1 $-1 $32 $5 #
transform $-1 1 0 0 0 1 0 0 0 1 78.637653736991481 39.267468923307852 16.702965029028366 1 rotate no_reflect no_shear #
lump $-1 $-1 $33 $6 #
transform $-1 1 0 0 0 1 0 0 0 1 78.637653736991481 39.267468923307852 16.702965029028366 1 rotate no_reflect no_shear #
lump $-1 $-1 $34 $7 #
transform $-1 1 0 0 0 1 0 0 0 1 78.637653736991481 39.267468923307852 16.702965029028366 1 rotate no_reflect no_shear #
lump $-1 $-1 $35 $8 #
transform $-1 1 0 0 0 1 0 0 0 1 78.637653736991481 39.267468923307852 16.702965029028366 1 rotate no_reflect no_shear #
shell $-1 $-1 $-1 $36 $-1 $9 #
shell $-1 $-1 $-1 $37 $-1 $11 #
shell $-1 $-1 $-1 $38 $-1 $13 #
shell $-1 $-1 $-1 $39 $-1 $15 #
shell $-1 $-1 $-1 $40 $-1 $17 #
shell $-1 $-1 $-1 $41 $-1 $19 #
shell $-1 $-1 $-1 $42 $-1 $21 #
shell $-1 $-1 $-1 $43 $-1 $23 #
shell $-1 $-1 $-1 $44 $-1 $25 #
face $-1 $45 $46 $27 $-1 $47 forward single #
face $-1 $48 $49 $28 $-1 $50 reversed single #
face $-1 $51 $52 $29 $-1 $53 reversed single #
face $-1 $54 $55 $30 $-1 $56 forward single #
face $-1 $57 $58 $31 $-1 $59 forward single #
face $-1 $60 $61 $32 $-1 $62 reversed single #
face $-1 $63 $64 $33 $-1 $65 forward single #
face $-1 $66 $67 $34 $-1 $68 reversed single #
face $-1 $69 $70 $35 $-1 $71 forward single #
face $-1 $72 $73 $27 $-1 $74 reversed single #
loop $-1 $-1 $75 $36 #
plane-surface $-1 0 0 16.702965029028366 0 0 1 1 0 0 forward_v I I I I #
face $-1 $76 $77 $28 $-1 $78 reversed single #
loop $-1 $-1 $79 $37 #
plane-surface $-1 -70.948437898270427 -34.777492527278689 0 0 -1 0 0 0 -1 forward_v I I I I #
face $-1 $80 $81 $29 $-1 $82 reversed single #
loop $-1 $-1 $83 $38 #
plane-surface $-1 -63.259222059549387 109.26606135714033 169.12251939440571 1 0 0 0 -0.7660444514056185 -0.64278759981090561 forward_v I I I I #
face $-1 $84 $85 $30 $-1 $86 forward single #
loop $-1 $87 $88 $39 #
cone-surface $-1 -51.507657230579774 34.600096118373223 11.47918898215822 0 -0.7660444514056185 -0.64278759981090561 2.5 0 0 1 I I 0 1 2.5 forward I I I I #
face $-1 $89 $90 $31 $-1 $91 forward single #
loop $-1 $92 $93 $40 #
cone-surface $-1 -33.880309987125358 34.600096118373223 11.47918898215822 0 -0.7660444514056185 -0.64278759981090561 2.5 0 0 1 I I 0 1 2.5 forward I I I I #
face $-1 $94 $95 $32 $-1 $96 reversed single #
loop $-1 $-1 $97 $41 #
plane-surface $-1 -20.983253514631372 -159.7473455568651 110.27983191220108 -1 0 0 0 -0.7660444514056185 0.64278759981090561 forward_v I I I I #
face $-1 $98 $99 $33 $-1 $100 forward single #
loop $-1 $101 $102 $42 #
cone-surface $-1 -37.157167556579076 -34.501664436196343 11.591684630274727 0 0.7660444514056185 -0.64278759981090561 1.5 0 0 1 I I 0 1 1.5 forward I I I I #
face $-1 $103 $104 $34 $-1 $105 reversed single #
loop $-1 $-1 $106 $43 #
plane-surface $-1 68.709513275968874 -159.7473455568651 110.27983191220108 -1 0 0 0 -0.7660444514056185 0.64278759981090561 forward_v I I I I #
face $-1 $107 $108 $35 $-1 $109 forward single #
loop $-1 $110 $111 $44 #
cone-surface $-1 52.535599234021177 -34.501664436196343 11.591684630274727 0 0.7660444514056185 -0.64278759981090561 1.5 0 0 1 I I 0 1 1.5 forward I I I I #
face $-1 $112 $113 $27 $-1 $114 reversed single #
loop $-1 $-1 $115 $45 #
plane-surface $-1 0 0 -16.702965029028366 0 0 1 1 0 0 forward_v I I I I #
coedge $-1 $116 $117 $118 $119 forward $46 $-1 #
face $-1 $120 $121 $28 $-1 $122 forward single #
loop $-1 $-1 $123 $48 #
plane-surface $-1 -63.25922205954938 -37.022480725293271 0 -1 0 0 0 0 1 forward_v I I I I #
coedge $-1 $124 $125 $126 $127 forward $49 $-1 #
face $-1 $128 $129 $29 $-1 $130 reversed single #
loop $-1 $-1 $131 $51 #
plane-surface $-1 -42.693983608852569 -11.213815276416923 68.027901993682022 0 0.7660444514056185 0.64278759981090561 1 0 0 forward_v I I I I #
coedge $-1 $132 $133 $134 $135 reversed $52 $-1 #
face $-1 $-1 $136 $30 $-1 $137 forward single #
loop $-1 $138 $139 $54 #
cone-surface $-1 -51.507657230579774 32.682442574194319 9.8700866426401284 0 -0.7660444514056185 -0.64278759981090561 1.25 0 0 1 I I -0.70710678118654746 0.70710678118654746 1.25 forward I I I I #
loop $-1 $-1 $140 $39 #
coedge $-1 $88 $88 $141 $142 reversed $55 $-1 #
face $-1 $-1 $143 $31 $-1 $144 forward single #
loop $-1 $145 $146 $57 #
cone-surface $-1 -33.880309987125358 32.682442574194319 9.8700866426401284 0 -0.7660444514056185 -0.64278759981090561 1.25 0 0 1 I I -0.70710678118654746 0.70710678118654746 1.25 forward I I I I #
loop $-1 $-1 $147 $40 #
coedge $-1 $93 $93 $148 $149 reversed $58 $-1 #
face $-1 $150 $151 $32 $-1 $152 reversed single #
loop $-1 $-1 $153 $60 #
plane-surface $-1 -37.157167556579076 -39.267468923307845 9.1852145114773833 0 -0.7660444514056185 0.64278759981090561 1 0 0 forward_v I I I I #
coedge $-1 $154 $155 $156 $157 reversed $61 $-1 #
face $-1 $-1 $158 $33 $-1 $159 forward single #
loop $-1 $160 $161 $63 #
cone-surface $-1 -37.157167556579076 -32.315397371233182 9.7571887904384091 0 0.7660444514056185 -0.64278759981090561 0.75 0 0 1 I I -0.70710678118654757 0.70710678118654757 0.75 forward I I I I #
loop $-1 $-1 $162 $42 #
coedge $-1 $102 $102 $163 $164 reversed $64 $-1 #
face $-1 $165 $166 $34 $-1 $167 reversed single #
loop $-1 $-1 $168 $66 #
plane-surface $-1 52.535599234021177 -39.267468923307845 9.1852145114773833 0 -0.7660444514056185 0.64278759981090561 1 0 0 forward_v I I I I #
coedge $-1 $169 $170 $171 $172 reversed $67 $-1 #
face $-1 $-1 $173 $35 $-1 $174 forward single #
loop $-1 $175 $176 $69 #
cone-surface $-1 52.535599234021177 -32.315397371233182 9.7571887904384091 0 0.7660444514056185 -0.64278759981090561 0.75 0 0 1 I I -0.70710678118654757 0.70710678118654757 0.75 forward I I I I #
loop $-1 $-1 $177 $44 #
coedge $-1 $111 $111 $178 $179 reversed $70 $-1 #
face $-1 $180 $181 $27 $-1 $182 reversed single #
loop $-1 $-1 $183 $72 #
plane-surface $-1 0 -39.267468923307852 0 0 1 0 0 0 1 forward_v I I I I #
coedge $-1 $184 $185 $186 $187 forward $73 $-1 #
coedge $-1 $188 $75 $189 $190 forward $46 $-1 #
coedge $-1 $75 $188 $191 $192 forward $46 $-1 #
coedge $-1 $193 $194 $75 $119 reversed $195 $-1 #
edge $-1 $196 -39.267468923307852 $197 39.267468923307852 $118 $198 forward 7 unknown #
face $-1 $199 $200 $28 $-1 $201 reversed single #
loop $-1 $-1 $202 $76 #
plane-surface $-1 0 0 16.702965029028366 0 0 1 1 0 0 forward_v I I I I #
coedge $-1 $203 $204 $205 $206 reversed $77 $-1 #
coedge $-1 $207 $79 $208 $209 reversed $49 $-1 #
coedge $-1 $79 $207 $210 $211 reversed $49 $-1 #
coedge $-1 $204 $203 $79 $127 reversed $77 $-1 #
edge $-1 $212 -16.702965029028366 $213 16.702965029028366 $126 $214 forward 7 unknown #
face $-1 $215 $216 $29 $-1 $217 reversed single #
loop $-1 $-1 $218 $80 #
plane-surface $-1 -22.128745158155752 109.26606135714033 169.12251939440571 -1 0 0 0 0.7660444514056185 0.64278759981090561 forward_v I I I I #
coedge $-1 $219 $220 $221 $222 reversed $81 $-1 #
coedge $-1 $133 $83 $223 $224 reversed $52 $-1 #
coedge $-1 $83 $132 $219 $225 reversed $52 $-1 #
coedge $-1 $221 $226 $83 $135 forward $227 $-1 #
edge $-1 $228 15.365561755262313 $229 22.780111405287848 $134 $230 forward 7 unknown #
loop $-1 $-1 $141 $84 #
plane-surface $-1 -42.693983608852569 -11.213815276416923 68.027901993682022 0 0.7660444514056185 0.64278759981090561 1 0 0 forward_v I I I I #
loop $-1 $-1 $231 $54 #
coedge $-1 $139 $139 $140 $232 reversed $85 $-1 #
coedge $-1 $140 $140 $139 $232 forward $87 $-1 #
coedge $-1 $141 $141 $88 $142 forward $136 $-1 #
edge $-1 $233 3.7663514031778977e-017 $233 6.2831853071796004 $141 $234 forward 7 unknown #
loop $-1 $-1 $148 $89 #
plane-surface $-1 -42.693983608852569 -11.213815276416923 68.027901993682022 0 0.7660444514056185 0.64278759981090561 1 0 0 forward_v I I I I #
loop $-1 $-1 $235 $57 #
coedge $-1 $146 $146 $147 $236 reversed $90 $-1 #
coedge $-1 $147 $147 $146 $236 forward $92 $-1 #
coedge $-1 $148 $148 $93 $149 forward $143 $-1 #
edge $-1 $237 3.7663514031778977e-017 $237 6.2831853071796004 $148 $238 forward 7 unknown #
face $-1 $239 $240 $32 $-1 $241 forward single #
loop $-1 $-1 $242 $94 #
plane-surface $-1 -53.331081598526779 -159.7473455568651 110.27983191220108 1 0 0 0 0.7660444514056185 -0.64278759981090561 forward_v I I I I #
coedge $-1 $243 $244 $245 $246 reversed $95 $-1 #
coedge $-1 $155 $97 $247 $248 reversed $61 $-1 #
coedge $-1 $97 $154 $243 $249 reversed $61 $-1 #
coedge $-1 $245 $250 $97 $157 forward $240 $-1 #
edge $-1 $251 40.606203855124697 $252 46.914345376529823 $156 $253 forward 7 unknown #
loop $-1 $-1 $163 $98 #
plane-surface $-1 -37.157167556579076 -39.267468923307845 9.1852145114773833 0 -0.7660444514056185 0.64278759981090561 1 0 0 forward_v I I I I #
loop $-1 $-1 $254 $63 #
coedge $-1 $161 $161 $162 $255 reversed $99 $-1 #
coedge $-1 $162 $162 $161 $255 forward $101 $-1 #
coedge $-1 $163 $163 $102 $164 forward $158 $-1 #
edge $-1 $256 2.1376748641894066e-015 $256 6.2831853071796022 $163 $257 forward 7 unknown #
face $-1 $258 $259 $34 $-1 $260 reversed single #
loop $-1 $-1 $261 $103 #
plane-surface $-1 36.361685192073473 -159.7473455568651 110.27983191220108 1 0 0 0 0.7660444514056185 -0.64278759981090561 forward_v I I I I #
coedge $-1 $262 $263 $264 $265 reversed $104 $-1 #
coedge $-1 $170 $106 $266 $267 reversed $67 $-1 #
coedge $-1 $106 $169 $262 $268 reversed $67 $-1 #
coedge $-1 $264 $269 $106 $172 forward $270 $-1 #
edge $-1 $271 40.606203855124697 $272 46.914345376529823 $171 $273 forward 7 unknown #
loop $-1 $-1 $178 $107 #
plane-surface $-1 52.535599234021177 -39.267468923307845 9.1852145114773833 0 -0.7660444514056185 0.64278759981090561 1 0 0 forward_v I I I I #
loop $-1 $-1 $274 $69 #
coedge $-1 $176 $176 $177 $275 reversed $108 $-1 #
coedge $-1 $177 $177 $176 $275 forward $110 $-1 #
coedge $-1 $178 $178 $111 $179 forward $173 $-1 #
edge $-1 $276 2.1376748641894066e-015 $276 6.2831853071796022 $178 $277 forward 7 unknown #
face $-1 $278 $279 $27 $-1 $280 reversed single #
loop $-1 $-1 $281 $112 #
plane-surface $-1 -78.637653736991481 0 0 1 0 0 0 0 -1 forward_v I I I I #
coedge $-1 $282 $191 $283 $284 forward $113 $-1 #
coedge $-1 $285 $115 $282 $286 forward $73 $-1 #
coedge $-1 $115 $285 $287 $288 forward $73 $-1 #
coedge $-1 $194 $193 $115 $187 reversed $195 $-1 #
edge $-1 $289 -39.267468923307852 $290 39.267468923307852 $186 $291 forward 7 unknown #
coedge $-1 $117 $116 $292 $293 forward $46 $-1 #
coedge $-1 $294 $295 $116 $190 reversed $279 $-1 #
edge $-1 $197 -78.637653736991481 $296 78.637653736991481 $189 $297 forward 7 unknown #
coedge $-1 $183 $298 $117 $192 reversed $113 $-1 #
edge $-1 $299 -78.637653736991481 $196 78.637653736991481 $191 $300 forward 7 unknown #
coedge $-1 $186 $118 $298 $301 forward $195 $-1 #
coedge $-1 $118 $186 $294 $302 reversed $195 $-1 #
loop $-1 $-1 $193 $278 #
vertex $-1 $119 $303 #
vertex $-1 $119 $304 #
straight-curve $-1 78.637653736991481 0 16.702965029028366 0 1 0 I I #
face $-1 $305 $306 $28 $-1 $307 reversed single #
loop $-1 $-1 $308 $120 #
plane-surface $-1 -78.637653736991481 0 0 1 0 0 0 0 -1 forward_v I I I I #
coedge $-1 $210 $309 $204 $310 forward $121 $-1 #
coedge $-1 $126 $123 $311 $312 reversed $77 $-1 #
coedge $-1 $123 $126 $202 $310 reversed $77 $-1 #
coedge $-1 $313 $314 $123 $206 forward $315 $-1 #
edge $-1 $316 -16.702965029028366 $317 16.702965029028366 $205 $318 forward 7 unknown #
coedge $-1 $125 $124 $308 $319 reversed $49 $-1 #
coedge $-1 $311 $320 $124 $209 forward $306 $-1 #
edge $-1 $321 -43.163434787856268 $213 -27.785003110414166 $208 $322 forward 7 unknown #
coedge $-1 $323 $202 $125 $211 forward $121 $-1 #
edge $-1 $212 27.785003110414166 $324 43.163434787856268 $210 $325 forward 7 unknown #
vertex $-1 $211 $326 #
vertex $-1 $209 $327 #
straight-curve $-1 -63.25922205954938 -34.777492527278689 0 0 0 -1 I I #
face $-1 $-1 $227 $29 $-1 $328 forward single #
loop $-1 $-1 $329 $128 #
plane-surface $-1 0 39.267468923307852 0 0 -1 0 0 0 -1 forward_v I I I I #
coedge $-1 $330 $331 $332 $333 reversed $129 $-1 #
coedge $-1 $334 $131 $133 $225 forward $81 $-1 #
coedge $-1 $131 $334 $330 $335 forward $81 $-1 #
coedge $-1 $332 $134 $131 $222 forward $227 $-1 #
edge $-1 $229 -41.912230255123106 $336 -0.78175335372946719 $221 $337 forward 7 unknown #
coedge $-1 $338 $339 $132 $224 forward $216 $-1 #
edge $-1 $340 -76.694611082405928 $228 -67.858294668174494 $223 $341 forward 7 unknown #
edge $-1 $229 66.999946113410658 $340 78.534937846615762 $133 $342 forward 7 unknown #
coedge $-1 $134 $332 $338 $343 forward $227 $-1 #
loop $-1 $-1 $332 $215 #
vertex $-1 $224 $344 #
vertex $-1 $135 $345 #
straight-curve $-1 -63.259222059549387 54.633030678570165 16.702965029028363 0 -1 0 I I #
coedge $-1 $231 $231 $-1 $346 reversed $138 $-1 #
edge $-1 $347 0 $347 6.2831853071796004 $139 $348 forward 7 unknown #
vertex $-1 $142 $349 #
ellipse-curve $-1 -51.507657230579774 35.560194098295078 12.28480682191266 0 0.7660444514056185 0.64278759981090561 2.5 0 0 1 I I #
coedge $-1 $235 $235 $-1 $350 reversed $145 $-1 #
edge $-1 $351 0 $351 6.2831853071796004 $146 $352 forward 7 unknown #
vertex $-1 $149 $353 #
ellipse-curve $-1 -33.880309987125358 35.560194098295078 12.28480682191266 0 0.7660444514056185 0.64278759981090561 2.5 0 0 1 I I #
face $-1 $-1 $354 $32 $-1 $355 reversed single #
loop $-1 $-1 $156 $150 #
plane-surface $-1 0 0 16.702965029028366 0 0 1 1 0 0 forward_v I I I I #
coedge $-1 $356 $357 $358 $359 reversed $151 $-1 #
coedge $-1 $360 $153 $155 $249 forward $95 $-1 #
coedge $-1 $153 $360 $356 $361 forward $95 $-1 #
coedge $-1 $358 $156 $153 $246 forward $240 $-1 #
edge $-1 $252 2.4046697363418339 $362 34.752497820237238 $245 $363 forward 7 unknown #
coedge $-1 $364 $365 $154 $248 forward $354 $-1 #
edge $-1 $366 -45.954701444623161 $251 -38.436950927072175 $247 $367 forward 7 unknown #
edge $-1 $252 -9.8137262188331622 $366 1.1371122099518014e-014 $155 $368 forward 7 unknown #
coedge $-1 $156 $358 $364 $369 forward $240 $-1 #
vertex $-1 $157 $370 #
vertex $-1 $157 $371 #
straight-curve $-1 -20.983253514631372 -79.87367277843255 16.70296502902837 0 1 0 I I #
coedge $-1 $254 $254 $-1 $372 reversed $160 $-1 #
edge $-1 $373 0 $373 6.2831853071796004 $161 $374 forward 7 unknown #
vertex $-1 $164 $375 #
ellipse-curve $-1 -37.157167556579076 -36.113398162605293 12.944089770252869 0 -0.7660444514056185 0.64278759981090561 1.5 0 0 1 I I #
face $-1 $-1 $270 $34 $-1 $376 forward single #
loop $-1 $-1 $377 $165 #
plane-surface $-1 0 -39.267468923307852 0 0 1 0 0 0 1 forward_v I I I I #
coedge $-1 $378 $379 $380 $381 reversed $166 $-1 #
coedge $-1 $382 $168 $170 $268 forward $104 $-1 #
coedge $-1 $168 $382 $378 $383 forward $104 $-1 #
coedge $-1 $380 $171 $168 $265 forward $270 $-1 #
edge $-1 $272 -42.441713658958285 $384 -10.093885575062885 $264 $385 forward 7 unknown #
coedge $-1 $386 $387 $169 $267 forward $259 $-1 #
edge $-1 $388 -45.954701444623161 $271 -38.436950927072175 $266 $389 forward 7 unknown #
edge $-1 $272 -9.8137262188331622 $388 1.1371122099518014e-014 $170 $390 forward 7 unknown #
coedge $-1 $171 $380 $386 $391 forward $270 $-1 #
loop $-1 $-1 $380 $258 #
vertex $-1 $267 $392 #
vertex $-1 $172 $393 #
straight-curve $-1 68.709513275968874 -79.87367277843255 16.70296502902837 0 1 0 I I #
coedge $-1 $274 $274 $-1 $394 reversed $175 $-1 #
edge $-1 $395 0 $395 6.2831853071796004 $176 $396 forward 7 unknown #
vertex $-1 $179 $397 #
ellipse-curve $-1 52.535599234021177 -36.113398162605293 12.944089770252869 0 -0.7660444514056185 0.64278759981090561 1.5 0 0 1 I I #
face $-1 $-1 $195 $27 $-1 $398 reversed single #
loop $-1 $-1 $294 $180 #
plane-surface $-1 0 39.267468923307852 0 0 -1 0 0 0 -1 forward_v I I I I #
coedge $-1 $399 $292 $295 $400 forward $181 $-1 #
coedge $-1 $298 $183 $184 $286 reversed $113 $-1 #
coedge $-1 $292 $399 $183 $284 reversed $181 $-1 #
edge $-1 $299 -16.702965029028366 $401 16.702965029028366 $283 $402 forward 7 unknown #
coedge $-1 $185 $184 $399 $403 forward $73 $-1 #
edge $-1 $290 -78.637653736991481 $401 78.637653736991481 $282 $404 forward 7 unknown #
coedge $-1 $295 $294 $185 $288 reversed $279 $-1 #
edge $-1 $405 -78.637653736991481 $289 78.637653736991481 $287 $406 forward 7 unknown #
vertex $-1 $187 $407 #
vertex $-1 $301 $408 #
straight-curve $-1 78.637653736991481 0 -16.702965029028366 0 -1 0 I I #
coedge $-1 $281 $283 $188 $293 reversed $181 $-1 #
edge $-1 $296 -39.267468923307852 $299 39.267468923307852 $292 $409 forward 7 unknown #
coedge $-1 $287 $189 $194 $302 forward $279 $-1 #
coedge $-1 $189 $287 $281 $400 reversed $279 $-1 #
vertex $-1 $190 $410 #
straight-curve $-1 0 39.267468923307852 16.702965029028366 -1 0 0 I I #
coedge $-1 $191 $282 $193 $301 reversed $113 $-1 #
vertex $-1 $293 $411 #
straight-curve $-1 0 -39.267468923307852 16.702965029028366 1 0 0 I I #
edge $-1 $196 -16.702965029028366 $290 16.702965029028366 $193 $412 forward 7 unknown #
edge $-1 $197 -16.702965029028366 $289 16.702965029028366 $194 $413 forward 7 unknown #
point $-1 78.637653736991481 -39.267468923307852 16.702965029028366 #
point $-1 78.637653736991481 39.267468923307852 16.702965029028366 #
face $-1 $-1 $315 $28 $-1 $414 reversed single #
loop $-1 $-1 $311 $199 #
plane-surface $-1 0 0 -16.702965029028366 0 0 1 1 0 0 forward_v I I I I #
coedge $-1 $415 $416 $207 $319 forward $200 $-1 #
coedge $-1 $202 $323 $313 $417 forward $121 $-1 #
edge $-1 $317 -20.756228560661217 $212 -16.266252164632053 $202 $418 forward 7 unknown #
coedge $-1 $419 $208 $203 $312 forward $306 $-1 #
edge $-1 $213 16.266252164632053 $316 20.756228560661217 $311 $420 forward 7 unknown #
coedge $-1 $421 $205 $309 $417 reversed $315 $-1 #
coedge $-1 $205 $421 $419 $422 reversed $315 $-1 #
loop $-1 $-1 $205 $305 #
vertex $-1 $422 $423 #
vertex $-1 $206 $424 #
straight-curve $-1 -63.25922205954938 -39.267468923307852 0 0 0 1 I I #
edge $-1 $324 -16.702965029028366 $321 16.702965029028366 $308 $425 forward 7 unknown #
coedge $-1 $208 $419 $415 $426 forward $306 $-1 #
vertex $-1 $209 $427 #
straight-curve $-1 -35.474218949135214 -34.777492527278689 -16.702965029028366 1 0 0 I I #
coedge $-1 $309 $210 $416 $428 forward $121 $-1 #
vertex $-1 $428 $429 #
straight-curve $-1 -35.474218949135214 -34.777492527278689 16.702965029028366 -1 0 0 I I #
point $-1 -63.25922205954938 -34.777492527278689 16.702965029028366 #
point $-1 -63.25922205954938 -34.777492527278689 -16.702965029028366 #
plane-surface $-1 0 0 16.702965029028366 0 0 1 1 0 0 forward_v I I I I #
coedge $-1 $339 $338 $331 $430 forward $216 $-1 #
coedge $-1 $331 $218 $220 $335 reversed $129 $-1 #
coedge $-1 $218 $330 $329 $430 reversed $129 $-1 #
coedge $-1 $226 $221 $218 $333 forward $227 $-1 #
edge $-1 $336 -22.780111405287848 $431 -15.365561755262313 $332 $432 forward 7 unknown #
coedge $-1 $220 $219 $339 $433 reversed $81 $-1 #
edge $-1 $434 -78.534937846615762 $336 -66.999946113410658 $330 $435 forward 7 unknown #
vertex $-1 $222 $436 #
straight-curve $-1 -21.346991804426285 31.852919273282314 16.70296502902837 1 0 0 I I #
coedge $-1 $329 $223 $226 $343 reversed $216 $-1 #
coedge $-1 $223 $329 $334 $433 forward $216 $-1 #
vertex $-1 $224 $437 #
straight-curve $-1 -63.259222059549387 39.267468923307852 84.561259697202857 0 0 1 I I #
straight-curve $-1 -63.259222059549387 -11.213815276416923 68.027901993682022 0 0.64278759981090561 -0.7660444514056185 I I #
edge $-1 $431 22.128745158155752 $228 63.259222059549387 $338 $438 forward 7 unknown #
point $-1 -63.259222059549387 39.267468923307852 16.702965029028366 #
point $-1 -63.259222059549387 31.852919273282318 16.70296502902837 #
edge $-1 $439 1 $439 0 $231 $-1 forward 7 unknown #
vertex $-1 $232 $440 #
ellipse-curve $-1 -51.507657230579774 33.63999813845134 10.673571142403761 0 0.7660444514056185 0.64278759981090561 2.5 0 0 1 I I #
point $-1 -49.007657230579774 35.560194098295099 12.284806821912678 #
edge $-1 $441 1 $441 0 $235 $-1 forward 7 unknown #
vertex $-1 $236 $442 #
ellipse-curve $-1 -33.880309987125358 33.63999813845134 10.673571142403761 0 0.7660444514056185 0.64278759981090561 2.5 0 0 1 I I #
point $-1 -31.380309987125358 35.560194098295099 12.284806821912678 #
loop $-1 $-1 $247 $239 #
plane-surface $-1 0 -39.267468923307852 0 0 1 0 0 0 1 forward_v I I I I #
coedge $-1 $357 $242 $244 $361 reversed $151 $-1 #
coedge $-1 $242 $356 $443 $444 reversed $151 $-1 #
coedge $-1 $250 $245 $242 $359 forward $240 $-1 #
edge $-1 $362 -46.914345376529823 $445 -40.606203855124697 $358 $446 forward 7 unknown #
coedge $-1 $244 $243 $365 $447 reversed $95 $-1 #
edge $-1 $448 -1.1371122099518014e-014 $362 9.8137262188331622 $356 $449 forward 7 unknown #
vertex $-1 $246 $450 #
straight-curve $-1 -18.578583778289538 -32.959327401902726 16.702965029028366 -1 0 0 I I #
coedge $-1 $443 $247 $250 $369 reversed $354 $-1 #
coedge $-1 $247 $443 $360 $447 forward $354 $-1 #
vertex $-1 $248 $451 #
straight-curve $-1 -20.983253514631372 -39.267468923307852 55.139915956100538 0 0 1 I I #
straight-curve $-1 -20.983253514631372 -39.267468923307845 9.1852145114773833 0 -0.64278759981090561 -0.7660444514056185 I I #
edge $-1 $445 -53.331081598526779 $251 -20.983253514631372 $364 $452 forward 7 unknown #
point $-1 -20.983253514631372 -39.267468923307852 16.702965029028366 #
point $-1 -20.983253514631372 -32.959327401902726 16.702965029028366 #
edge $-1 $453 1 $453 0 $254 $-1 forward 7 unknown #
vertex $-1 $255 $454 #
ellipse-curve $-1 -37.157167556579076 -32.889930709787393 10.239279490296589 0 -0.7660444514056185 0.64278759981090561 1.5 0 0 1 I I #
point $-1 -35.657167556579076 -36.113398162605286 12.944089770252868 #
plane-surface $-1 0 0 16.702965029028366 0 0 1 1 0 0 forward_v I I I I #
coedge $-1 $387 $386 $379 $455 forward $259 $-1 #
coedge $-1 $379 $261 $263 $383 reversed $166 $-1 #
coedge $-1 $261 $378 $377 $455 reversed $166 $-1 #
coedge $-1 $269 $264 $261 $381 forward $270 $-1 #
edge $-1 $384 -46.914345376529823 $456 -40.606203855124697 $380 $457 forward 7 unknown #
coedge $-1 $263 $262 $387 $458 reversed $104 $-1 #
edge $-1 $459 -1.1371122099518014e-014 $384 9.8137262188331622 $378 $460 forward 7 unknown #
vertex $-1 $265 $461 #
straight-curve $-1 26.267799617010589 -32.959327401902726 16.702965029028366 -1 0 0 I I #
coedge $-1 $377 $266 $269 $391 reversed $259 $-1 #
coedge $-1 $266 $377 $382 $458 forward $259 $-1 #
vertex $-1 $267 $462 #
straight-curve $-1 68.709513275968874 -39.267468923307852 55.139915956100538 0 0 1 I I #
straight-curve $-1 68.709513275968874 -39.267468923307845 9.1852145114773833 0 -0.64278759981090561 -0.7660444514056185 I I #
edge $-1 $456 36.361685192073473 $271 68.709513275968874 $386 $463 forward 7 unknown #
point $-1 68.709513275968874 -39.267468923307852 16.702965029028366 #
point $-1 68.709513275968874 -32.959327401902726 16.702965029028366 #
edge $-1 $464 1 $464 0 $274 $-1 forward 7 unknown #
vertex $-1 $275 $465 #
ellipse-curve $-1 52.535599234021177 -32.889930709787393 10.239279490296589 0 -0.7660444514056185 0.64278759981090561 1.5 0 0 1 I I #
point $-1 54.035599234021177 -36.113398162605286 12.944089770252868 #
plane-surface $-1 78.637653736991481 0 0 -1 0 0 0 0 1 forward_v I I I I #
coedge $-1 $283 $281 $285 $403 reversed $181 $-1 #
edge $-1 $296 -16.702965029028366 $405 16.702965029028366 $295 $466 forward 7 unknown #
vertex $-1 $403 $467 #
straight-curve $-1 -78.637653736991481 -39.267468923307852 0 0 0 -1 I I #
edge $-1 $401 -39.267468923307852 $405 39.267468923307852 $399 $468 forward 7 unknown #
straight-curve $-1 0 -39.267468923307852 -16.702965029028366 -1 0 0 I I #
vertex $-1 $288 $469 #
straight-curve $-1 0 39.267468923307852 -16.702965029028366 1 0 0 I I #
point $-1 78.637653736991481 39.267468923307852 -16.702965029028366 #
point $-1 78.637653736991481 -39.267468923307852 -16.702965029028366 #
straight-curve $-1 -78.637653736991481 0 16.702965029028366 0 -1 0 I I #
point $-1 -78.637653736991481 39.267468923307852 16.702965029028366 #
point $-1 -78.637653736991481 -39.267468923307852 16.702965029028366 #
straight-curve $-1 78.637653736991481 -39.267468923307852 0 0 0 -1 I I #
straight-curve $-1 78.637653736991481 39.267468923307852 0 0 0 -1 I I #
plane-surface $-1 0 -39.267468923307852 0 0 1 0 0 0 1 forward_v I I I I #
coedge $-1 $470 $308 $320 $426 reversed $200 $-1 #
coedge $-1 $308 $470 $323 $428 reversed $200 $-1 #
edge $-1 $471 -78.637653736991481 $317 -63.25922205954938 $313 $472 forward 7 unknown #
straight-curve $-1 -63.25922205954938 -18.511240362646635 16.702965029028366 0 1 0 I I #
coedge $-1 $320 $311 $314 $422 forward $306 $-1 #
straight-curve $-1 -63.25922205954938 -18.511240362646635 -16.702965029028366 0 -1 0 I I #
coedge $-1 $314 $313 $470 $473 forward $315 $-1 #
edge $-1 $316 63.25922205954938 $474 78.637653736991481 $314 $475 forward 7 unknown #
point $-1 -63.25922205954938 -39.267468923307852 -16.702965029028366 #
point $-1 -63.25922205954938 -39.267468923307852 16.702965029028366 #
straight-curve $-1 -78.637653736991481 -34.777492527278689 0 0 0 -1 I I #
edge $-1 $474 -39.267468923307852 $321 -34.777492527278689 $415 $476 forward 7 unknown #
point $-1 -78.637653736991481 -34.777492527278689 -16.702965029028366 #
edge $-1 $324 34.777492527278689 $471 39.267468923307852 $416 $477 forward 7 unknown #
point $-1 -78.637653736991481 -34.777492527278689 16.702965029028366 #
edge $-1 $431 67.858294668174494 $434 76.694611082405928 $329 $478 forward 7 unknown #
vertex $-1 $343 $479 #
straight-curve $-1 -22.128745158155752 54.633030678570165 16.702965029028363 0 1 0 I I #
edge $-1 $434 0.78175335372946719 $340 41.912230255123106 $339 $480 forward 7 unknown #
vertex $-1 $433 $481 #
straight-curve $-1 -22.128745158155752 -11.213815276416923 68.027901993682022 0 -0.64278759981090561 0.7660444514056185 I I #
point $-1 -22.128745158155752 31.852919273282318 16.70296502902837 #
point $-1 -63.259222059549387 39.267468923307852 7.8666486147969295 #
straight-curve $-1 0 39.267468923307852 16.702965029028366 -1 0 0 I I #
vertex $-1 $346 $482 #
point $-1 -49.007657230579774 33.63999813845134 10.673571142403761 #
vertex $-1 $350 $483 #
point $-1 -31.380309987125358 33.63999813845134 10.673571142403761 #
coedge $-1 $365 $364 $357 $444 forward $354 $-1 #
edge $-1 $445 38.436950927072175 $448 45.954701444623161 $443 $484 forward 7 unknown #
vertex $-1 $369 $485 #
straight-curve $-1 -53.331081598526779 -79.87367277843255 16.70296502902837 0 -1 0 I I #
edge $-1 $448 -34.752497820237238 $366 -2.4046697363418339 $365 $486 forward 7 unknown #
vertex $-1 $447 $487 #
straight-curve $-1 -53.331081598526779 -39.267468923307845 9.1852145114773833 0 0.64278759981090561 0.7660444514056185 I I #
point $-1 -53.331081598526779 -32.959327401902726 16.702965029028366 #
point $-1 -20.983253514631372 -39.267468923307852 9.1852145114773744 #
straight-curve $-1 0 -39.267468923307852 16.702965029028366 1 0 0 I I #
vertex $-1 $372 $488 #
point $-1 -35.657167556579076 -32.889930709787393 10.239279490296589 #
edge $-1 $456 38.436950927072175 $459 45.954701444623161 $377 $489 forward 7 unknown #
vertex $-1 $391 $490 #
straight-curve $-1 36.361685192073473 -79.87367277843255 16.70296502902837 0 -1 0 I I #
edge $-1 $459 10.093885575062885 $388 42.441713658958285 $387 $491 forward 7 unknown #
vertex $-1 $458 $492 #
straight-curve $-1 36.361685192073473 -39.267468923307845 9.1852145114773833 0 0.64278759981090561 0.7660444514056185 I I #
point $-1 36.361685192073473 -32.959327401902726 16.702965029028366 #
point $-1 68.709513275968874 -39.267468923307852 9.1852145114773744 #
straight-curve $-1 0 -39.267468923307852 16.702965029028366 1 0 0 I I #
vertex $-1 $394 $493 #
point $-1 54.035599234021177 -32.889930709787393 10.239279490296589 #
straight-curve $-1 -78.637653736991481 39.267468923307852 0 0 0 -1 I I #
point $-1 -78.637653736991481 -39.267468923307852 -16.702965029028366 #
straight-curve $-1 -78.637653736991481 0 -16.702965029028366 0 1 0 I I #
point $-1 -78.637653736991481 39.267468923307852 -16.702965029028366 #
coedge $-1 $416 $415 $421 $473 reversed $200 $-1 #
vertex $-1 $428 $494 #
straight-curve $-1 0 -39.267468923307852 16.702965029028366 1 0 0 I I #
edge $-1 $471 -16.702965029028366 $474 16.702965029028366 $470 $495 forward 7 unknown #
vertex $-1 $426 $496 #
straight-curve $-1 0 -39.267468923307852 -16.702965029028366 -1 0 0 I I #
straight-curve $-1 -78.637653736991481 0 -16.702965029028366 0 1 0 I I #
straight-curve $-1 -78.637653736991481 0 16.702965029028366 0 -1 0 I I #
straight-curve $-1 -22.128745158155752 39.267468923307852 84.561259697202857 0 0 -1 I I #
point $-1 -22.128745158155752 39.267468923307852 16.702965029028366 #
straight-curve $-1 -21.346991804426285 39.267468923307845 7.8666486147969295 -1 0 0 I I #
point $-1 -22.128745158155752 39.267468923307852 7.8666486147969295 #
point $-1 -51.507657230579774 31.724887009937294 9.066602142876496 #
point $-1 -33.880309987125358 31.724887009937294 9.066602142876496 #
straight-curve $-1 -53.331081598526779 -39.267468923307852 55.139915956100538 0 0 -1 I I #
point $-1 -53.331081598526779 -39.267468923307852 16.702965029028366 #
straight-curve $-1 -18.578583778289538 -39.267468923307852 9.1852145114773727 1 0 0 I I #
point $-1 -53.331081598526779 -39.267468923307852 9.1852145114773744 #
point $-1 -37.157167556579076 -31.740864032678967 9.2750980905802294 #
straight-curve $-1 36.361685192073473 -39.267468923307852 55.139915956100538 0 0 -1 I I #
point $-1 36.361685192073473 -39.267468923307852 16.702965029028366 #
straight-curve $-1 26.267799617010589 -39.267468923307852 9.1852145114773727 1 0 0 I I #
point $-1 36.361685192073473 -39.267468923307852 9.1852145114773744 #
point $-1 52.535599234021177 -31.740864032678967 9.2750980905802294 #
point $-1 -78.637653736991481 -39.267468923307852 16.702965029028366 #
straight-curve $-1 -78.637653736991481 -39.267468923307852 0 0 0 -1 I I #
point $-1 -78.637653736991481 -39.267468923307852 -16.702965029028366 #
End-of-ACIS-data 