500 0 7 0           
7 Unknown 11 ACIS 5.0 NT 24 Thu Mar 25 23:08:20 1999 
-1 9.9999999999999995e-007 1e-010 
body $-1 $7 $-1 $8 #
body $-1 $9 $-1 $10 #
body $-1 $11 $-1 $12 #
body $-1 $13 $-1 $14 #
body $-1 $15 $-1 $16 #
body $-1 $17 $-1 $18 #
body $-1 $19 $-1 $20 #
lump $-1 $-1 $21 $0 #
transform $-1 1 0 0 0 1 0 0 0 1 61.111484115115815 33.042574935730933 7.9577677494987977 1 rotate no_reflect no_shear #
lump $-1 $-1 $22 $1 #
transform $-1 1 0 0 0 1 0 0 0 1 61.111484115115815 33.042574935730933 7.9577677494987977 1 rotate no_reflect no_shear #
lump $-1 $-1 $23 $2 #
transform $-1 1 0 0 0 1 0 0 0 1 61.111484115115815 33.042574935730933 7.9577677494987977 1 rotate no_reflect no_shear #
lump $-1 $-1 $24 $3 #
transform $-1 1 0 0 0 1 0 0 0 1 61.111484115115815 33.042574935730933 7.9577677494987977 1 rotate no_reflect no_shear #
lump $-1 $-1 $25 $4 #
transform $-1 1 0 0 0 1 0 0 0 1 61.111484115115815 33.042574935730933 7.9577677494987977 1 rotate no_reflect no_shear #
lump $-1 $-1 $26 $5 #
transform $-1 1 0 0 0 1 0 0 0 1 61.111484115115815 33.042574935730933 7.9577677494987977 1 rotate no_reflect no_shear #
lump $-1 $-1 $27 $6 #
transform $-1 1 0 0 0 1 0 0 0 1 61.111484115115815 33.042574935730933 7.9577677494987977 1 rotate no_reflect no_shear #
shell $-1 $-1 $-1 $28 $-1 $7 #
shell $-1 $-1 $-1 $29 $-1 $9 #
shell $-1 $-1 $-1 $30 $-1 $11 #
shell $-1 $-1 $-1 $31 $-1 $13 #
shell $-1 $-1 $-1 $32 $-1 $15 #
shell $-1 $-1 $-1 $33 $-1 $17 #
shell $-1 $-1 $-1 $34 $-1 $19 #
face $-1 $35 $36 $21 $-1 $37 forward single #
face $-1 $38 $39 $22 $-1 $40 forward single #
face $-1 $41 $42 $23 $-1 $43 forward single #
face $-1 $44 $45 $24 $-1 $46 reversed single #
face $-1 $47 $48 $25 $-1 $49 forward single #
face $-1 $50 $51 $26 $-1 $52 reversed single #
face $-1 $53 $54 $27 $-1 $55 forward single #
face $-1 $56 $57 $21 $-1 $58 reversed single #
loop $-1 $-1 $59 $28 #
plane-surface $-1 0 0 7.9577677494987977 0 0 1 1 0 0 forward_v I I I I #
face $-1 $60 $61 $22 $-1 $62 reversed single #
loop $-1 $-1 $63 $29 #
plane-surface $-1 0 -33.042574935730933 0 0 1 0 0 0 1 forward_v I I I I #
face $-1 $64 $65 $23 $-1 $66 reversed single #
loop $-1 $-1 $67 $30 #
plane-surface $-1 0 28.779259210862271 -3.4622980481568235 0 0 1 1 0 0 forward_v I I I I #
face $-1 $68 $69 $24 $-1 $70 reversed single #
loop $-1 $-1 $71 $31 #
plane-surface $-1 -165.87701683442575 0.89079544104660613 65.272294800095537 0 -1 0 0.85716730853699208 0 -0.51503806187062418 forward_v I I I I #
face $-1 $72 $73 $25 $-1 $74 forward single #
loop $-1 $75 $76 $32 #
cone-surface $-1 -58.761852932289131 -3.3577717838192562 4.7456935375479974 0.85716730853699208 0 -0.51503806187062418 0.51503806187062418 0 0.85716730853699208 1 I I 0 1 1 forward I I I I #
face $-1 $77 $78 $26 $-1 $79 reversed single #
loop $-1 $-1 $80 $33 #
plane-surface $-1 -165.87701683442575 24.515943485993606 65.272294800095537 0 -1 0 0.85716730853699208 0 -0.51503806187062418 forward_v I I I I #
face $-1 $81 $82 $27 $-1 $83 forward single #
loop $-1 $84 $85 $34 #
cone-surface $-1 -58.761852932289131 20.267376261127744 4.7456935375479974 0.85716730853699208 0 -0.51503806187062418 0.51503806187062418 0 0.85716730853699208 1 I I 0 1 1 forward I I I I #
face $-1 $86 $87 $21 $-1 $88 reversed single #
loop $-1 $-1 $89 $35 #
plane-surface $-1 0 0 -7.9577677494987977 0 0 1 1 0 0 forward_v I I I I #
coedge $-1 $90 $91 $92 $93 forward $36 $-1 #
face $-1 $94 $95 $22 $-1 $96 forward single #
loop $-1 $-1 $97 $38 #
plane-surface $-1 -61.111484115115815 0 0 1 0 0 0 0 -1 forward_v I I I I #
coedge $-1 $98 $99 $100 $101 forward $39 $-1 #
face $-1 $102 $103 $23 $-1 $104 reversed single #
loop $-1 $-1 $105 $41 #
plane-surface $-1 0 24.515943485993606 -5.7100328988278104 0 1 0 0 0 1 forward_v I I I I #
coedge $-1 $106 $107 $108 $109 reversed $42 $-1 #
face $-1 $110 $111 $24 $-1 $112 reversed single #
loop $-1 $-1 $113 $44 #
plane-surface $-1 -61.111484115115815 -3.3577717838192562 2.3228141267221645 -0.85716730853699208 0 0.51503806187062418 0.51503806187062418 0 0.85716730853699208 forward_v I I I I #
coedge $-1 $114 $115 $116 $117 reversed $45 $-1 #
face $-1 $-1 $118 $25 $-1 $119 forward single #
loop $-1 $120 $121 $47 #
cone-surface $-1 -57.676548897846466 -3.3577717838192562 4.093577106050196 0.85716730853699208 0 -0.51503806187062418 0.25751903093531209 0 0.42858365426849604 1 I I -0.70710678118654724 0.70710678118654791 0.5 forward I I I I #
loop $-1 $-1 $122 $32 #
coedge $-1 $76 $76 $123 $124 reversed $48 $-1 #
face $-1 $125 $126 $26 $-1 $127 reversed single #
loop $-1 $-1 $128 $50 #
plane-surface $-1 -61.111484115115815 20.267376261127744 2.3228141267221645 -0.85716730853699208 0 0.51503806187062418 0.51503806187062418 0 0.85716730853699208 forward_v I I I I #
coedge $-1 $129 $130 $131 $132 reversed $51 $-1 #
face $-1 $-1 $133 $27 $-1 $134 forward single #
loop $-1 $135 $136 $53 #
cone-surface $-1 -57.676548897846466 20.267376261127744 4.093577106050196 0.85716730853699208 0 -0.51503806187062418 0.25751903093531209 0 0.42858365426849604 1 I I -0.70710678118654724 0.70710678118654791 0.5 forward I I I I #
loop $-1 $-1 $137 $34 #
coedge $-1 $85 $85 $138 $139 reversed $54 $-1 #
face $-1 $140 $141 $21 $-1 $142 reversed single #
loop $-1 $-1 $143 $56 #
plane-surface $-1 0 -33.042574935730933 0 0 1 0 0 0 1 forward_v I I I I #
coedge $-1 $144 $145 $146 $147 forward $57 $-1 #
coedge $-1 $148 $59 $149 $150 forward $36 $-1 #
coedge $-1 $59 $148 $151 $152 forward $36 $-1 #
coedge $-1 $153 $154 $59 $93 reversed $155 $-1 #
edge $-1 $156 -33.042574935730933 $157 33.042574935730933 $92 $158 forward 7 unknown #
face $-1 $159 $160 $22 $-1 $161 reversed single #
loop $-1 $-1 $162 $60 #
plane-surface $-1 0 -38.1966861016462 1.2254655453641816 0 0 1 1 0 0 forward_v I I I I #
coedge $-1 $163 $164 $99 $165 forward $61 $-1 #
coedge $-1 $166 $63 $167 $168 reversed $39 $-1 #
coedge $-1 $63 $166 $97 $165 reversed $39 $-1 #
coedge $-1 $169 $162 $63 $101 reversed $95 $-1 #
edge $-1 $170 -61.111484115115815 $171 61.111484115115815 $100 $172 forward 7 unknown #
face $-1 $173 $174 $23 $-1 $175 reversed single #
loop $-1 $-1 $108 $64 #
plane-surface $-1 61.111484115115815 0 0 -1 0 0 0 0 1 forward_v I I I I #
coedge $-1 $176 $177 $178 $179 reversed $65 $-1 #
coedge $-1 $180 $67 $181 $182 reversed $42 $-1 #
coedge $-1 $67 $180 $177 $183 forward $42 $-1 #
coedge $-1 $184 $185 $67 $109 forward $103 $-1 #
edge $-1 $186 -18.652945330299804 $187 -10.126313880562471 $108 $188 forward 7 unknown #
face $-1 $189 $190 $24 $-1 $191 reversed single #
loop $-1 $-1 $192 $68 #
plane-surface $-1 -165.87701683442575 -7.6063390086851186 65.272294800095537 0 1 0 -0.85716730853699208 0 0.51503806187062418 forward_v I I I I #
coedge $-1 $193 $194 $195 $196 reversed $69 $-1 #
coedge $-1 $115 $71 $197 $198 reversed $45 $-1 #
coedge $-1 $71 $114 $193 $199 reversed $45 $-1 #
coedge $-1 $195 $200 $71 $117 forward $190 $-1 #
edge $-1 $201 24.678379650548969 $202 30.313333273325604 $116 $203 forward 7 unknown #
loop $-1 $-1 $123 $72 #
plane-surface $-1 -61.111484115115815 -3.3577717838192562 2.3228141267221645 -0.85716730853699208 0 0.51503806187062418 0.51503806187062418 0 0.85716730853699208 forward_v I I I I #
loop $-1 $-1 $204 $47 #
coedge $-1 $121 $121 $122 $205 reversed $73 $-1 #
coedge $-1 $122 $122 $121 $205 forward $75 $-1 #
coedge $-1 $123 $123 $76 $124 forward $118 $-1 #
edge $-1 $206 0 $206 6.2831853071796004 $123 $207 forward 7 unknown #
face $-1 $208 $209 $26 $-1 $210 forward single #
loop $-1 $-1 $211 $77 #
plane-surface $-1 -165.87701683442575 16.018809036261882 65.272294800095537 0 1 0 -0.85716730853699208 0 0.51503806187062418 forward_v I I I I #
coedge $-1 $212 $213 $214 $215 reversed $78 $-1 #
coedge $-1 $130 $80 $216 $217 reversed $51 $-1 #
coedge $-1 $80 $129 $212 $218 reversed $51 $-1 #
coedge $-1 $214 $219 $80 $132 forward $220 $-1 #
edge $-1 $221 24.678379650548969 $222 30.313333273325604 $131 $223 forward 7 unknown #
loop $-1 $-1 $138 $81 #
plane-surface $-1 -61.111484115115815 20.267376261127744 2.3228141267221645 -0.85716730853699208 0 0.51503806187062418 0.51503806187062418 0 0.85716730853699208 forward_v I I I I #
loop $-1 $-1 $224 $53 #
coedge $-1 $136 $136 $137 $225 reversed $82 $-1 #
coedge $-1 $137 $137 $136 $225 forward $84 $-1 #
coedge $-1 $138 $138 $85 $139 forward $133 $-1 #
edge $-1 $226 0 $226 6.2831853071796004 $138 $227 forward 7 unknown #
face $-1 $228 $229 $21 $-1 $230 reversed single #
loop $-1 $-1 $231 $86 #
plane-surface $-1 -61.111484115115815 0 0 1 0 0 0 0 -1 forward_v I I I I #
coedge $-1 $232 $151 $233 $234 forward $87 $-1 #
coedge $-1 $235 $89 $232 $236 forward $57 $-1 #
coedge $-1 $89 $235 $237 $238 forward $57 $-1 #
coedge $-1 $154 $153 $89 $147 reversed $155 $-1 #
edge $-1 $239 -33.042574935730933 $240 33.042574935730933 $146 $241 forward 7 unknown #
coedge $-1 $91 $90 $242 $243 forward $36 $-1 #
coedge $-1 $244 $245 $90 $150 reversed $229 $-1 #
edge $-1 $157 -61.111484115115815 $246 61.111484115115815 $149 $247 forward 7 unknown #
coedge $-1 $143 $248 $91 $152 reversed $87 $-1 #
edge $-1 $249 -61.111484115115815 $156 61.111484115115815 $151 $250 forward 7 unknown #
coedge $-1 $146 $92 $248 $251 forward $155 $-1 #
coedge $-1 $92 $146 $244 $252 reversed $155 $-1 #
loop $-1 $-1 $153 $228 #
vertex $-1 $93 $253 #
vertex $-1 $93 $254 #
straight-curve $-1 61.111484115115815 0 7.9577677494987977 0 1 0 I I #
face $-1 $255 $256 $22 $-1 $257 reversed single #
loop $-1 $-1 $258 $94 #
plane-surface $-1 0 -38.1966861016462 -1.7745344546358175 0 0 1 1 0 0 forward_v I I I I #
coedge $-1 $100 $259 $260 $261 forward $95 $-1 #
coedge $-1 $262 $97 $263 $264 reversed $61 $-1 #
coedge $-1 $97 $262 $169 $265 reversed $61 $-1 #
edge $-1 $170 -1.2254655453641816 $266 1.7745344546358175 $97 $267 forward 7 unknown #
coedge $-1 $99 $98 $268 $269 forward $39 $-1 #
coedge $-1 $260 $270 $98 $168 forward $271 $-1 #
edge $-1 $272 -1.7745344546358175 $171 1.2254655453641816 $167 $273 forward 7 unknown #
coedge $-1 $259 $100 $164 $265 forward $95 $-1 #
vertex $-1 $165 $274 #
vertex $-1 $261 $275 #
straight-curve $-1 0 -33.042574935730933 1.2254655453641816 1 0 0 I I #
face $-1 $276 $277 $23 $-1 $278 reversed single #
loop $-1 $-1 $279 $102 #
plane-surface $-1 0 0 -7.9577677494987977 0 0 1 1 0 0 forward_v I I I I #
coedge $-1 $280 $105 $279 $281 reversed $65 $-1 #
coedge $-1 $105 $280 $107 $183 reversed $65 $-1 #
coedge $-1 $282 $283 $105 $179 forward $277 $-1 #
edge $-1 $284 -5.1027513000848925 $285 -0.60728159874291832 $178 $286 forward 7 unknown #
coedge $-1 $107 $106 $282 $287 reversed $42 $-1 #
coedge $-1 $288 $289 $106 $182 forward $290 $-1 #
edge $-1 $291 -61.111484115115815 $186 61.111484115115815 $181 $292 forward 7 unknown #
edge $-1 $285 -61.111484115115815 $187 61.111484115115815 $177 $293 forward 7 unknown #
coedge $-1 $294 $108 $280 $295 forward $103 $-1 #
coedge $-1 $108 $294 $288 $296 reversed $103 $-1 #
vertex $-1 $296 $297 #
vertex $-1 $109 $298 #
straight-curve $-1 61.111484115115815 14.389629605431136 -3.4622980481568235 0 -1 0 I I #
face $-1 $-1 $299 $24 $-1 $300 forward single #
loop $-1 $-1 $116 $110 #
plane-surface $-1 -61.111484115115815 0 0 1 0 0 0 0 -1 forward_v I I I I #
coedge $-1 $301 $302 $303 $304 reversed $111 $-1 #
coedge $-1 $305 $113 $115 $199 forward $69 $-1 #
coedge $-1 $113 $305 $301 $306 forward $69 $-1 #
coedge $-1 $303 $116 $113 $196 forward $190 $-1 #
edge $-1 $202 -2.5696813329562342 $307 5.9274531167754905 $195 $308 forward 7 unknown #
coedge $-1 $309 $310 $114 $198 forward $299 $-1 #
edge $-1 $311 -25.212845907402112 $201 -21.827024302097058 $197 $312 forward 7 unknown #
edge $-1 $202 0 $311 6.5739250280022219 $115 $313 forward 7 unknown #
coedge $-1 $116 $303 $309 $314 reversed $190 $-1 #
vertex $-1 $314 $315 #
vertex $-1 $117 $316 #
straight-curve $-1 -61.111484115115815 0.89079544104660613 32.636147400047768 0 0 -1 I I #
coedge $-1 $204 $204 $-1 $317 reversed $120 $-1 #
edge $-1 $318 0 $318 6.2831853071796004 $121 $319 forward 7 unknown #
vertex $-1 $124 $320 #
ellipse-curve $-1 -59.418573312463288 -3.3577717838192562 5.1402909381104811 -0.85716730853699208 0 0.51503806187062418 0.51503806187062418 0 0.85716730853699208 1 I I #
face $-1 $-1 $220 $26 $-1 $321 reversed single #
loop $-1 $-1 $322 $125 #
plane-surface $-1 0 0 7.9577677494987977 0 0 1 1 0 0 forward_v I I I I #
coedge $-1 $323 $324 $325 $326 reversed $126 $-1 #
coedge $-1 $327 $128 $130 $218 forward $78 $-1 #
coedge $-1 $128 $327 $323 $328 forward $78 $-1 #
coedge $-1 $325 $131 $128 $215 forward $220 $-1 #
edge $-1 $222 -14.382255355429734 $329 -5.8851209056980096 $214 $330 forward 7 unknown #
coedge $-1 $331 $332 $129 $217 forward $209 $-1 #
edge $-1 $333 -25.212845907402112 $221 -21.827024302097058 $216 $334 forward 7 unknown #
edge $-1 $222 0 $333 6.5739250280022219 $130 $335 forward 7 unknown #
coedge $-1 $131 $325 $331 $336 reversed $220 $-1 #
loop $-1 $-1 $325 $208 #
vertex $-1 $336 $337 #
vertex $-1 $132 $338 #
straight-curve $-1 -61.111484115115815 24.515943485993606 32.636147400047768 0 0 -1 I I #
coedge $-1 $224 $224 $-1 $339 reversed $135 $-1 #
edge $-1 $340 0 $340 6.2831853071796004 $136 $341 forward 7 unknown #
vertex $-1 $139 $342 #
ellipse-curve $-1 -59.418573312463288 20.267376261127744 5.1402909381104811 -0.85716730853699208 0 0.51503806187062418 0.51503806187062418 0 0.85716730853699208 1 I I #
face $-1 $-1 $155 $21 $-1 $343 reversed single #
loop $-1 $-1 $244 $140 #
plane-surface $-1 0 33.042574935730933 0 0 -1 0 0 0 -1 forward_v I I I I #
coedge $-1 $344 $242 $245 $345 forward $141 $-1 #
coedge $-1 $248 $143 $144 $236 reversed $87 $-1 #
coedge $-1 $242 $344 $143 $234 reversed $141 $-1 #
edge $-1 $249 -7.9577677494987977 $346 7.9577677494987977 $233 $347 forward 7 unknown #
coedge $-1 $145 $144 $344 $348 forward $57 $-1 #
edge $-1 $240 -61.111484115115815 $346 61.111484115115815 $232 $349 forward 7 unknown #
coedge $-1 $245 $244 $145 $238 reversed $229 $-1 #
edge $-1 $350 -61.111484115115815 $239 61.111484115115815 $237 $351 forward 7 unknown #
vertex $-1 $147 $352 #
vertex $-1 $251 $353 #
straight-curve $-1 61.111484115115815 0 -7.9577677494987977 0 -1 0 I I #
coedge $-1 $231 $233 $148 $243 reversed $141 $-1 #
edge $-1 $246 -33.042574935730933 $249 33.042574935730933 $242 $354 forward 7 unknown #
coedge $-1 $237 $149 $154 $252 forward $229 $-1 #
coedge $-1 $149 $237 $231 $345 reversed $229 $-1 #
vertex $-1 $150 $355 #
straight-curve $-1 0 33.042574935730933 7.9577677494987977 -1 0 0 I I #
coedge $-1 $151 $232 $153 $251 reversed $87 $-1 #
vertex $-1 $243 $356 #
straight-curve $-1 0 -33.042574935730933 7.9577677494987977 1 0 0 I I #
edge $-1 $156 -7.9577677494987977 $240 7.9577677494987977 $153 $357 forward 7 unknown #
edge $-1 $157 -7.9577677494987977 $239 7.9577677494987977 $154 $358 forward 7 unknown #
point $-1 61.111484115115815 -33.042574935730933 7.9577677494987977 #
point $-1 61.111484115115815 33.042574935730933 7.9577677494987977 #
face $-1 $-1 $271 $22 $-1 $359 reversed single #
loop $-1 $-1 $360 $159 #
plane-surface $-1 0 -43.350797267561468 -0.27453445463581794 0 1 0 0 0 1 forward_v I I I I #
coedge $-1 $361 $268 $270 $362 forward $160 $-1 #
coedge $-1 $162 $169 $363 $364 forward $95 $-1 #
coedge $-1 $365 $167 $162 $261 reversed $271 $-1 #
edge $-1 $366 -5.1541111659152676 $171 5.1541111659152676 $260 $367 forward 7 unknown #
coedge $-1 $164 $163 $360 $368 reversed $61 $-1 #
coedge $-1 $268 $361 $163 $264 forward $160 $-1 #
edge $-1 $369 -5.1541111659152676 $266 5.1541111659152676 $163 $370 forward 7 unknown #
edge $-1 $170 -5.1541111659152676 $371 5.1541111659152676 $164 $372 forward 7 unknown #
vertex $-1 $165 $373 #
straight-curve $-1 -61.111484115115815 -33.042574935730933 0 0 0 -1 I I #
coedge $-1 $258 $263 $166 $269 reversed $160 $-1 #
edge $-1 $272 -61.111484115115815 $266 61.111484115115815 $268 $374 forward 7 unknown #
coedge $-1 $167 $365 $258 $362 reversed $271 $-1 #
loop $-1 $-1 $167 $255 #
vertex $-1 $168 $375 #
straight-curve $-1 61.111484115115815 -33.042574935730933 0 0 0 1 I I #
point $-1 -61.111484115115815 -33.042574935730933 1.2254655453641816 #
point $-1 61.111484115115815 -33.042574935730933 1.2254655453641816 #
face $-1 $-1 $290 $23 $-1 $376 reversed single #
loop $-1 $-1 $282 $173 #
plane-surface $-1 -61.111484115115815 0 0 1 0 0 0 0 -1 forward_v I I I I #
coedge $-1 $377 $378 $176 $281 forward $174 $-1 #
coedge $-1 $177 $176 $184 $295 reversed $65 $-1 #
edge $-1 $379 -61.111484115115815 $284 61.111484115115815 $279 $380 forward 7 unknown #
coedge $-1 $381 $178 $180 $287 forward $277 $-1 #
coedge $-1 $178 $381 $377 $382 reversed $277 $-1 #
vertex $-1 $382 $383 #
vertex $-1 $287 $384 #
straight-curve $-1 -61.111484115115815 24.515943485993606 -2.8550164494139052 0 0 1 I I #
edge $-1 $285 10.126313880562471 $291 18.652945330299804 $282 $385 forward 7 unknown #
coedge $-1 $386 $181 $185 $296 forward $290 $-1 #
coedge $-1 $181 $386 $381 $387 reversed $290 $-1 #
loop $-1 $-1 $181 $276 #
vertex $-1 $387 $388 #
straight-curve $-1 0 33.042574935730933 -3.4622980481568235 1 0 0 I I #
straight-curve $-1 0 24.515943485993606 -3.4622980481568235 1 0 0 I I #
coedge $-1 $185 $184 $378 $389 reversed $103 $-1 #
edge $-1 $187 0.60728159874291832 $379 5.1027513000848925 $184 $390 forward 7 unknown #
edge $-1 $186 3.4622980481568235 $391 7.9577677494987977 $185 $392 forward 7 unknown #
point $-1 61.111484115115815 33.04257493573094 -3.4622980481568235 #
point $-1 61.111484115115815 24.515943485993606 -3.4622980481568235 #
loop $-1 $-1 $197 $189 #
plane-surface $-1 0 0 7.9577677494987977 0 0 1 1 0 0 forward_v I I I I #
coedge $-1 $302 $192 $194 $306 reversed $111 $-1 #
coedge $-1 $192 $301 $393 $394 reversed $111 $-1 #
coedge $-1 $200 $195 $192 $304 forward $190 $-1 #
edge $-1 $307 -30.313333273325604 $395 -24.678379650548969 $303 $396 forward 7 unknown #
coedge $-1 $194 $193 $310 $397 reversed $69 $-1 #
edge $-1 $398 -6.5739250280022219 $307 0 $301 $399 forward 7 unknown #
vertex $-1 $196 $400 #
straight-curve $-1 -61.111484115115815 -1.6788858919096281 2.3228141267221627 0 -1 0 I I #
coedge $-1 $393 $197 $200 $314 forward $299 $-1 #
coedge $-1 $197 $393 $305 $397 forward $299 $-1 #
vertex $-1 $198 $401 #
straight-curve $-1 -82.938508417212873 0.89079544104660613 7.9577677494987995 -1 0 0 I I #
straight-curve $-1 -61.111484115115815 0.89079544104660613 2.3228141267221645 0.51503806187062418 0 0.85716730853699208 I I #
edge $-1 $201 -0.89079544104660613 $395 7.6063390086851186 $200 $402 forward 7 unknown #
point $-1 -61.111484115115815 0.89079544104660613 7.9577677494987977 #
point $-1 -61.111484115115815 0.89079544104660613 2.3228141267221645 #
edge $-1 $403 1 $403 0 $204 $-1 forward 7 unknown #
vertex $-1 $205 $404 #
ellipse-curve $-1 -58.105132552114959 -3.3577717838192562 4.3510961369855083 -0.85716730853699208 0 0.51503806187062418 0.51503806187062418 0 0.85716730853699208 1 I I #
point $-1 -58.903535250592668 -3.3577717838192562 5.9974582466474775 #
plane-surface $-1 -61.111484115115815 0 0 1 0 0 0 0 -1 forward_v I I I I #
coedge $-1 $332 $331 $324 $405 forward $209 $-1 #
coedge $-1 $324 $211 $213 $328 reversed $126 $-1 #
coedge $-1 $211 $323 $322 $405 reversed $126 $-1 #
coedge $-1 $219 $214 $211 $326 forward $220 $-1 #
edge $-1 $329 -30.313333273325604 $406 -24.678379650548969 $325 $407 forward 7 unknown #
coedge $-1 $213 $212 $332 $408 reversed $78 $-1 #
edge $-1 $409 -6.5739250280022219 $329 0 $323 $410 forward 7 unknown #
vertex $-1 $215 $411 #
straight-curve $-1 -61.111484115115815 10.133688130563872 2.3228141267221627 0 -1 0 I I #
coedge $-1 $322 $216 $219 $336 forward $209 $-1 #
coedge $-1 $216 $322 $327 $408 forward $209 $-1 #
vertex $-1 $217 $412 #
straight-curve $-1 -82.938508417212873 24.515943485993606 7.9577677494987995 -1 0 0 I I #
straight-curve $-1 -61.111484115115815 24.515943485993606 2.3228141267221645 0.51503806187062418 0 0.85716730853699208 I I #
edge $-1 $221 -24.515943485993606 $406 -16.018809036261882 $219 $413 forward 7 unknown #
point $-1 -61.111484115115815 24.515943485993606 7.9577677494987977 #
point $-1 -61.111484115115815 24.515943485993606 2.3228141267221645 #
edge $-1 $414 1 $414 0 $224 $-1 forward 7 unknown #
vertex $-1 $225 $415 #
ellipse-curve $-1 -58.105132552114959 20.267376261127744 4.3510961369855083 -0.85716730853699208 0 0.51503806187062418 0.51503806187062418 0 0.85716730853699208 1 I I #
point $-1 -58.903535250592668 20.267376261127744 5.9974582466474775 #
plane-surface $-1 61.111484115115815 0 0 -1 0 0 0 0 1 forward_v I I I I #
coedge $-1 $233 $231 $235 $348 reversed $141 $-1 #
edge $-1 $246 -7.9577677494987977 $350 7.9577677494987977 $245 $416 forward 7 unknown #
vertex $-1 $348 $417 #
straight-curve $-1 -61.111484115115815 -33.042574935730933 0 0 0 -1 I I #
edge $-1 $346 -33.042574935730933 $350 33.042574935730933 $344 $418 forward 7 unknown #
straight-curve $-1 0 -33.042574935730933 -7.9577677494987977 -1 0 0 I I #
vertex $-1 $238 $419 #
straight-curve $-1 0 33.042574935730933 -7.9577677494987977 1 0 0 I I #
point $-1 61.111484115115815 33.042574935730933 -7.9577677494987977 #
point $-1 61.111484115115815 -33.042574935730933 -7.9577677494987977 #
straight-curve $-1 -61.111484115115815 0 7.9577677494987977 0 -1 0 I I #
point $-1 -61.111484115115815 33.042574935730933 7.9577677494987977 #
point $-1 -61.111484115115815 -33.042574935730933 7.9577677494987977 #
straight-curve $-1 61.111484115115815 -33.042574935730933 0 0 0 -1 I I #
straight-curve $-1 61.111484115115815 33.042574935730933 0 0 0 -1 I I #
plane-surface $-1 61.111484115115815 0 0 -1 0 0 0 0 1 forward_v I I I I #
coedge $-1 $420 $363 $262 $368 forward $256 $-1 #
coedge $-1 $263 $258 $420 $421 forward $160 $-1 #
edge $-1 $272 -5.1541111659152676 $422 5.1541111659152676 $270 $423 forward 7 unknown #
coedge $-1 $360 $424 $259 $364 reversed $256 $-1 #
edge $-1 $371 -61.111484115115815 $366 61.111484115115815 $363 $425 forward 7 unknown #
coedge $-1 $270 $260 $424 $426 forward $271 $-1 #
vertex $-1 $261 $427 #
straight-curve $-1 61.111484115115815 -38.1966861016462 1.2254655453641816 0 1 0 I I #
edge $-1 $371 -1.4999999999999996 $369 1.4999999999999996 $262 $428 forward 7 unknown #
vertex $-1 $264 $429 #
straight-curve $-1 -61.111484115115815 -38.1966861016462 -1.7745344546358175 0 1 0 I I #
vertex $-1 $265 $430 #
straight-curve $-1 -61.111484115115815 -38.1966861016462 1.2254655453641816 0 -1 0 I I #
point $-1 -61.111484115115815 -33.042574935730933 -1.7745344546358175 #
straight-curve $-1 0 -33.042574935730933 -1.7745344546358175 -1 0 0 I I #
point $-1 61.111484115115815 -33.042574935730933 -1.7745344546358175 #
plane-surface $-1 0 33.042574935730933 0 0 -1 0 0 0 -1 forward_v I I I I #
coedge $-1 $431 $279 $283 $382 forward $174 $-1 #
coedge $-1 $279 $431 $294 $389 forward $174 $-1 #
vertex $-1 $281 $432 #
straight-curve $-1 0 24.515943485993606 -7.9577677494987977 -1 0 0 I I #
coedge $-1 $283 $282 $289 $387 forward $277 $-1 #
edge $-1 $284 24.515943485993606 $433 33.042574935730933 $283 $434 forward 7 unknown #
point $-1 -61.111484115115815 24.515943485993606 -7.9577677494987977 #
point $-1 -61.111484115115815 24.515943485993606 -3.4622980481568235 #
straight-curve $-1 -61.111484115115815 14.389629605431136 -3.4622980481568235 0 1 0 I I #
coedge $-1 $289 $288 $431 $435 reversed $290 $-1 #
edge $-1 $291 3.4622980481568235 $433 7.9577677494987977 $289 $436 forward 7 unknown #
point $-1 -61.111484115115815 33.04257493573094 -3.4622980481568235 #
edge $-1 $391 -33.042574935730933 $379 -24.515943485993606 $294 $437 forward 7 unknown #
straight-curve $-1 61.111484115115815 24.515943485993606 -2.8550164494139052 0 0 -1 I I #
vertex $-1 $389 $438 #
straight-curve $-1 61.111484115115815 33.042574935730933 0 0 0 -1 I I #
coedge $-1 $310 $309 $302 $394 forward $299 $-1 #
edge $-1 $395 21.827024302097058 $398 25.212845907402112 $393 $439 forward 7 unknown #
vertex $-1 $394 $440 #
straight-curve $-1 -61.111484115115815 -7.6063390086851186 32.636147400047768 0 0 1 I I #
edge $-1 $398 -5.9274531167754905 $311 2.5696813329562342 $310 $441 forward 7 unknown #
vertex $-1 $397 $442 #
straight-curve $-1 -61.111484115115815 -7.6063390086851186 2.3228141267221645 -0.51503806187062418 0 -0.85716730853699208 I I #
point $-1 -61.111484115115815 -7.6063390086851186 2.3228141267221645 #
point $-1 -57.725662509810761 0.89079544104660613 7.9577677494987977 #
straight-curve $-1 -61.111484115115815 0 7.9577677494987977 0 -1 0 I I #
vertex $-1 $317 $443 #
point $-1 -57.59009449024434 -3.3577717838192562 5.2082634455225003 #
edge $-1 $406 21.827024302097058 $409 25.212845907402112 $322 $444 forward 7 unknown #
vertex $-1 $326 $445 #
straight-curve $-1 -61.111484115115815 16.018809036261882 32.636147400047768 0 0 1 I I #
edge $-1 $409 5.8851209056980096 $333 14.382255355429734 $332 $446 forward 7 unknown #
vertex $-1 $408 $447 #
straight-curve $-1 -61.111484115115815 16.018809036261882 2.3228141267221645 -0.51503806187062418 0 -0.85716730853699208 I I #
point $-1 -61.111484115115815 16.018809036261882 2.3228141267221645 #
point $-1 -57.725662509810761 24.515943485993606 7.9577677494987977 #
straight-curve $-1 -61.111484115115815 0 7.9577677494987977 0 -1 0 I I #
vertex $-1 $339 $448 #
point $-1 -57.59009449024434 20.267376261127744 5.2082634455225003 #
straight-curve $-1 -61.111484115115815 33.042574935730933 0 0 0 -1 I I #
point $-1 -61.111484115115815 -33.042574935730933 -7.9577677494987977 #
straight-curve $-1 -61.111484115115815 0 -7.9577677494987977 0 1 0 I I #
point $-1 -61.111484115115815 33.042574935730933 -7.9577677494987977 #
coedge $-1 $424 $360 $361 $421 reversed $256 $-1 #
edge $-1 $422 -61.111484115115815 $369 61.111484115115815 $420 $449 forward 7 unknown #
vertex $-1 $426 $450 #
straight-curve $-1 61.111484115115815 -38.1966861016462 -1.7745344546358175 0 -1 0 I I #
coedge $-1 $363 $420 $365 $426 reversed $256 $-1 #
straight-curve $-1 0 -43.350797267561468 1.2254655453641816 1 0 0 I I #
edge $-1 $366 -1.4999999999999996 $422 1.4999999999999996 $365 $451 forward 7 unknown #
point $-1 61.111484115115815 -43.350797267561468 1.2254655453641816 #
straight-curve $-1 -61.111484115115815 -43.350797267561468 -0.27453445463581794 0 0 -1 I I #
point $-1 -61.111484115115815 -43.350797267561468 -1.7745344546358175 #
point $-1 -61.111484115115815 -43.350797267561468 1.2254655453641816 #
coedge $-1 $378 $377 $386 $435 forward $174 $-1 #
point $-1 61.111484115115815 24.515943485993606 -7.9577677494987977 #
vertex $-1 $435 $452 #
straight-curve $-1 -61.111484115115815 0 -7.9577677494987977 0 1 0 I I #
edge $-1 $433 -61.111484115115815 $391 61.111484115115815 $386 $453 forward 7 unknown #
straight-curve $-1 -61.111484115115815 33.042574935730933 0 0 0 -1 I I #
straight-curve $-1 61.111484115115815 0 -7.9577677494987977 0 -1 0 I I #
point $-1 61.111484115115815 33.042574935730933 -7.9577677494987977 #
straight-curve $-1 -82.938508417212873 -7.6063390086851186 7.9577677494987995 1 0 0 I I #
point $-1 -61.111484115115815 -7.6063390086851186 7.9577677494987977 #
straight-curve $-1 -57.725662509810761 -1.6788858919096281 7.9577677494987977 0 1 0 I I #
point $-1 -57.725662509810761 -7.6063390086851186 7.9577677494987977 #
point $-1 -57.247965243577973 -3.3577717838192562 3.8360580751148836 #
straight-curve $-1 -82.938508417212873 16.018809036261882 7.9577677494987995 1 0 0 I I #
point $-1 -61.111484115115815 16.018809036261882 7.9577677494987977 #
straight-curve $-1 -57.725662509810761 10.133688130563872 7.9577677494987977 0 1 0 I I #
point $-1 -57.725662509810761 16.018809036261882 7.9577677494987977 #
point $-1 -57.247965243577973 20.267376261127744 3.8360580751148836 #
straight-curve $-1 0 -43.350797267561468 -1.7745344546358175 -1 0 0 I I #
point $-1 61.111484115115815 -43.350797267561468 -1.7745344546358175 #
straight-curve $-1 61.111484115115815 -43.350797267561468 -0.27453445463581794 0 0 -1 I I #
point $-1 -61.111484115115815 33.042574935730933 -7.9577677494987977 #
straight-curve $-1 0 33.042574935730933 -7.9577677494987977 1 0 0 I I #
End-of-ACIS-data 