500 0 12 0           
7 Unknown 11 ACIS 5.0 NT 24 Fri Mar 26 00:06:58 1999 
-1 9.9999999999999995e-007 1e-010 
body $-1 $12 $-1 $13 #
body $-1 $14 $-1 $15 #
body $-1 $16 $-1 $17 #
body $-1 $18 $-1 $19 #
body $-1 $20 $-1 $21 #
body $-1 $22 $-1 $23 #
body $-1 $24 $-1 $25 #
body $-1 $26 $-1 $27 #
body $-1 $28 $-1 $29 #
body $-1 $30 $-1 $31 #
body $-1 $32 $-1 $33 #
body $-1 $34 $-1 $35 #
lump $-1 $-1 $36 $0 #
transform $-1 1 0 0 0 1 0 0 0 1 52.1317178868984 23.396667894563144 11.189372343373842 1 rotate no_reflect no_shear #
lump $-1 $-1 $37 $1 #
transform $-1 1 0 0 0 1 0 0 0 1 52.1317178868984 23.396667894563144 11.189372343373842 1 rotate no_reflect no_shear #
lump $-1 $-1 $38 $2 #
transform $-1 1 0 0 0 1 0 0 0 1 52.1317178868984 23.396667894563144 11.189372343373842 1 rotate no_reflect no_shear #
lump $-1 $-1 $39 $3 #
transform $-1 1 0 0 0 1 0 0 0 1 52.1317178868984 23.396667894563144 11.189372343373842 1 rotate no_reflect no_shear #
lump $-1 $-1 $40 $4 #
transform $-1 1 0 0 0 1 0 0 0 1 52.1317178868984 23.396667894563144 11.189372343373842 1 rotate no_reflect no_shear #
lump $-1 $-1 $41 $5 #
transform $-1 1 0 0 0 1 0 0 0 1 52.1317178868984 23.396667894563144 11.189372343373842 1 rotate no_reflect no_shear #
lump $-1 $-1 $42 $6 #
transform $-1 1 0 0 0 1 0 0 0 1 52.1317178868984 23.396667894563144 11.189372343373842 1 rotate no_reflect no_shear #
lump $-1 $-1 $43 $7 #
transform $-1 1 0 0 0 1 0 0 0 1 52.1317178868984 23.396667894563144 11.189372343373842 1 rotate no_reflect no_shear #
lump $-1 $-1 $44 $8 #
transform $-1 1 0 0 0 1 0 0 0 1 52.1317178868984 23.396667894563144 11.189372343373842 1 rotate no_reflect no_shear #
lump $-1 $-1 $45 $9 #
transform $-1 1 0 0 0 1 0 0 0 1 52.1317178868984 23.396667894563144 11.189372343373842 1 rotate no_reflect no_shear #
lump $-1 $-1 $46 $10 #
transform $-1 1 0 0 0 1 0 0 0 1 52.1317178868984 23.396667894563144 11.189372343373842 1 rotate no_reflect no_shear #
lump $-1 $-1 $47 $11 #
transform $-1 1 0 0 0 1 0 0 0 1 52.1317178868984 23.396667894563144 11.189372343373842 1 rotate no_reflect no_shear #
shell $-1 $-1 $-1 $48 $-1 $12 #
shell $-1 $-1 $-1 $49 $-1 $14 #
shell $-1 $-1 $-1 $50 $-1 $16 #
shell $-1 $-1 $-1 $51 $-1 $18 #
shell $-1 $-1 $-1 $52 $-1 $20 #
shell $-1 $-1 $-1 $53 $-1 $22 #
shell $-1 $-1 $-1 $54 $-1 $24 #
shell $-1 $-1 $-1 $55 $-1 $26 #
shell $-1 $-1 $-1 $56 $-1 $28 #
shell $-1 $-1 $-1 $57 $-1 $30 #
shell $-1 $-1 $-1 $58 $-1 $32 #
shell $-1 $-1 $-1 $59 $-1 $34 #
face $-1 $60 $61 $36 $-1 $62 reversed single #
face $-1 $63 $64 $37 $-1 $65 forward single #
face $-1 $66 $67 $38 $-1 $68 reversed single #
face $-1 $69 $70 $39 $-1 $71 forward single #
face $-1 $72 $73 $40 $-1 $74 forward single #
face $-1 $75 $76 $41 $-1 $77 reversed single #
face $-1 $78 $79 $42 $-1 $80 forward single #
face $-1 $81 $82 $43 $-1 $83 forward single #
face $-1 $84 $85 $44 $-1 $86 reversed single #
face $-1 $87 $88 $45 $-1 $89 forward single #
face $-1 $90 $91 $46 $-1 $92 forward single #
face $-1 $93 $94 $47 $-1 $95 forward single #
face $-1 $96 $97 $36 $-1 $98 forward single #
loop $-1 $-1 $99 $48 #
plane-surface $-1 0 -23.396667894563144 0 0 1 0 0 0 1 forward_v I I I I #
face $-1 $100 $101 $37 $-1 $102 forward single #
loop $-1 $-1 $103 $49 #
plane-surface $-1 0 -23.396667894563144 0 0 1 0 0 0 1 forward_v I I I I #
face $-1 $104 $105 $38 $-1 $106 reversed single #
loop $-1 $-1 $107 $50 #
plane-surface $-1 -123.2392109445225 -5.1843588431066223 78.691491060797105 0 1 0 -0.68199836817093118 0 0.7313536940579346 forward_v I I I I #
face $-1 $108 $109 $39 $-1 $110 forward single #
loop $-1 $111 $112 $51 #
cone-surface $-1 -47.087626652221161 -3.3055902548431213 6.4364854715909781 0.68199836817093118 0 -0.7313536940579346 0.3656768470289673 0 0.34099918408546559 1 I I 0 1 0.5 forward I I I I #
face $-1 $113 $114 $40 $-1 $115 forward single #
loop $-1 $116 $117 $52 #
cone-surface $-1 -47.087626652221161 -0.48743737244787155 6.4364854715909781 0.68199836817093118 0 -0.7313536940579346 0.3656768470289673 0 0.34099918408546559 1 I I 0 1 0.5 forward I I I I #
face $-1 $118 $119 $41 $-1 $120 reversed single #
loop $-1 $-1 $121 $53 #
plane-surface $-1 -123.2392109445225 6.2656866910997735 78.691491060797105 0 1 0 -0.68199836817093118 0 0.7313536940579346 forward_v I I I I #
face $-1 $122 $123 $42 $-1 $124 forward single #
loop $-1 $125 $126 $54 #
cone-surface $-1 -47.087626652221161 8.1444552793632745 6.4364854715909781 0.68199836817093118 0 -0.7313536940579346 0.3656768470289673 0 0.34099918408546559 1 I I 0 1 0.5 forward I I I I #
face $-1 $127 $128 $43 $-1 $129 forward single #
loop $-1 $130 $131 $55 #
cone-surface $-1 -47.087626652221161 10.962608161758524 6.4364854715909781 0.68199836817093118 0 -0.7313536940579346 0.3656768470289673 0 0.34099918408546559 1 I I 0 1 0.5 forward I I I I #
face $-1 $132 $133 $44 $-1 $134 reversed single #
loop $-1 $-1 $135 $56 #
plane-surface $-1 87.803288623034746 5.465623173183694 144.86757485388026 0 -1 0 -0.85716730853699208 0 -0.51503806187062418 forward_v I I I I #
face $-1 $136 $137 $45 $-1 $138 forward single #
loop $-1 $139 $140 $57 #
cone-surface $-1 48.881299387159324 0.10469142479336568 6.235531314714958 -0.85716730853699208 0 -0.51503806187062418 0.25751903093531209 0 -0.42858365426849604 1 I I 0 1 0.5 forward I I I I #
face $-1 $141 $142 $46 $-1 $143 forward single #
loop $-1 $144 $145 $58 #
cone-surface $-1 48.881299387159324 2.1150408304397388 6.235531314714958 -0.85716730853699208 0 -0.51503806187062418 0.25751903093531209 0 -0.42858365426849604 1 I I 0 1 0.5 forward I I I I #
face $-1 $146 $147 $47 $-1 $148 forward single #
loop $-1 $149 $150 $59 #
cone-surface $-1 48.881299387159324 4.1253902360861119 6.235531314714958 -0.85716730853699208 0 -0.51503806187062418 0.25751903093531209 0 -0.42858365426849604 1 I I 0 1 0.5 forward I I I I #
face $-1 $151 $152 $36 $-1 $153 reversed single #
loop $-1 $-1 $154 $60 #
plane-surface $-1 0 0 11.189372343373842 0 0 1 1 0 0 forward_v I I I I #
coedge $-1 $155 $156 $157 $158 reversed $61 $-1 #
face $-1 $159 $160 $37 $-1 $161 reversed single #
loop $-1 $-1 $162 $63 #
plane-surface $-1 0 0 11.189372343373842 0 0 1 1 0 0 forward_v I I I I #
coedge $-1 $163 $164 $165 $166 forward $64 $-1 #
face $-1 $167 $168 $38 $-1 $169 reversed single #
loop $-1 $-1 $170 $66 #
plane-surface $-1 -52.131717886898386 -1.8965138136454982 2.4380421524586069 -0.68199836817093118 0 0.7313536940579346 0.7313536940579346 0 0.68199836817093118 forward_v I I I I #
coedge $-1 $171 $172 $173 $174 reversed $67 $-1 #
face $-1 $-1 $175 $39 $-1 $176 forward single #
loop $-1 $177 $178 $69 #
cone-surface $-1 -46.565362055116481 -3.3055902548431213 5.8764252717512395 0.68199836817093118 0 -0.7313536940579346 0.18283842351448365 0 0.17049959204273279 1 I I -0.70710678118654746 0.70710678118654746 0.25 forward I I I I #
loop $-1 $-1 $179 $51 #
coedge $-1 $112 $112 $180 $181 reversed $70 $-1 #
face $-1 $-1 $182 $40 $-1 $183 forward single #
loop $-1 $184 $185 $72 #
cone-surface $-1 -46.565362055116481 -0.48743737244787155 5.8764252717512395 0.68199836817093118 0 -0.7313536940579346 0.18283842351448365 0 0.17049959204273279 1 I I -0.70710678118654746 0.70710678118654746 0.25 forward I I I I #
loop $-1 $-1 $186 $52 #
coedge $-1 $117 $117 $187 $188 reversed $73 $-1 #
face $-1 $189 $190 $41 $-1 $191 reversed single #
loop $-1 $-1 $192 $75 #
plane-surface $-1 -52.131717886898386 9.5535317205608976 2.4380421524586069 -0.68199836817093118 0 0.7313536940579346 0.7313536940579346 0 0.68199836817093118 forward_v I I I I #
coedge $-1 $193 $194 $195 $196 reversed $76 $-1 #
face $-1 $-1 $197 $42 $-1 $198 forward single #
loop $-1 $199 $200 $78 #
cone-surface $-1 -46.565362055116481 8.1444552793632745 5.8764252717512395 0.68199836817093118 0 -0.7313536940579346 0.18283842351448365 0 0.17049959204273279 1 I I -0.70710678118654746 0.70710678118654746 0.25 forward I I I I #
loop $-1 $-1 $201 $54 #
coedge $-1 $126 $126 $202 $203 reversed $79 $-1 #
face $-1 $-1 $204 $43 $-1 $205 forward single #
loop $-1 $206 $207 $81 #
cone-surface $-1 -46.565362055116481 10.962608161758524 5.8764252717512395 0.68199836817093118 0 -0.7313536940579346 0.18283842351448365 0 0.17049959204273279 1 I I -0.70710678118654746 0.70710678118654746 0.25 forward I I I I #
loop $-1 $-1 $208 $55 #
coedge $-1 $131 $131 $209 $210 reversed $82 $-1 #
face $-1 $211 $212 $44 $-1 $213 reversed single #
loop $-1 $-1 $214 $84 #
plane-surface $-1 -1.567919998010197 2.1150408304397388 91.167936968971645 0.85716730853699208 0 0.51503806187062418 0.51503806187062418 0 -0.85716730853699208 forward_v I I I I #
coedge $-1 $215 $216 $217 $218 reversed $85 $-1 #
face $-1 $-1 $219 $45 $-1 $220 forward single #
loop $-1 $221 $222 $87 #
cone-surface $-1 48.238423905756576 0.10469142479336568 5.8492527683119899 -0.85716730853699208 0 -0.51503806187062418 0.12875951546765604 0 -0.21429182713424802 1 I I -0.70710678118654746 0.70710678118654746 0.25 forward I I I I #
loop $-1 $-1 $223 $57 #
coedge $-1 $140 $140 $224 $225 reversed $88 $-1 #
face $-1 $-1 $226 $46 $-1 $227 forward single #
loop $-1 $228 $229 $90 #
cone-surface $-1 48.238423905756576 2.1150408304397388 5.8492527683119899 -0.85716730853699208 0 -0.51503806187062418 0.12875951546765604 0 -0.21429182713424802 1 I I -0.70710678118654746 0.70710678118654746 0.25 forward I I I I #
loop $-1 $-1 $230 $58 #
coedge $-1 $145 $145 $231 $232 reversed $91 $-1 #
face $-1 $-1 $233 $47 $-1 $234 forward single #
loop $-1 $235 $236 $93 #
cone-surface $-1 48.238423905756576 4.1253902360861119 5.8492527683119899 -0.85716730853699208 0 -0.51503806187062418 0.12875951546765604 0 -0.21429182713424802 1 I I -0.70710678118654746 0.70710678118654746 0.25 forward I I I I #
loop $-1 $-1 $237 $59 #
coedge $-1 $150 $150 $238 $239 reversed $94 $-1 #
face $-1 $240 $241 $36 $-1 $242 reversed single #
loop $-1 $-1 $243 $96 #
plane-surface $-1 0 0 -11.189372343373842 0 0 1 1 0 0 forward_v I I I I #
coedge $-1 $244 $245 $246 $247 forward $97 $-1 #
coedge $-1 $248 $99 $249 $250 reversed $61 $-1 #
coedge $-1 $99 $248 $251 $252 forward $61 $-1 #
coedge $-1 $253 $243 $99 $158 forward $152 $-1 #
edge $-1 $254 -52.1317178868984 $255 52.1317178868984 $99 $256 forward 7 unknown #
face $-1 $257 $258 $37 $-1 $259 reversed single #
loop $-1 $-1 $260 $100 #
plane-surface $-1 -52.1317178868984 0 0 1 0 0 0 0 -1 forward_v I I I I #
coedge $-1 $261 $262 $164 $263 forward $101 $-1 #
coedge $-1 $264 $103 $265 $266 reversed $64 $-1 #
coedge $-1 $103 $264 $162 $263 reversed $64 $-1 #
coedge $-1 $267 $268 $103 $166 reversed $269 $-1 #
edge $-1 $270 -11.189372343373842 $271 11.189372343373842 $165 $272 forward 7 unknown #
face $-1 $273 $274 $38 $-1 $275 reversed single #
loop $-1 $-1 $276 $104 #
plane-surface $-1 -123.2392109445225 1.3913312158156259 78.691491060797105 0 -1 0 0.68199836817093118 0 -0.7313536940579346 forward_v I I I I #
coedge $-1 $277 $278 $279 $280 reversed $105 $-1 #
coedge $-1 $172 $107 $281 $282 reversed $67 $-1 #
coedge $-1 $107 $171 $277 $283 reversed $67 $-1 #
coedge $-1 $279 $284 $107 $174 forward $285 $-1 #
edge $-1 $286 9.4878875853628486 $287 18.872540044593464 $173 $288 forward 7 unknown #
loop $-1 $-1 $180 $108 #
plane-surface $-1 -52.131717886898386 -1.8965138136454982 2.4380421524586069 -0.68199836817093118 0 0.7313536940579346 0.7313536940579346 0 0.68199836817093118 forward_v I I I I #
loop $-1 $-1 $289 $69 #
coedge $-1 $178 $178 $179 $290 reversed $109 $-1 #
coedge $-1 $179 $179 $178 $290 forward $111 $-1 #
coedge $-1 $180 $180 $112 $181 forward $175 $-1 #
edge $-1 $291 0 $291 6.2831853071796004 $180 $292 forward 7 unknown #
loop $-1 $-1 $187 $113 #
plane-surface $-1 -52.131717886898386 -1.8965138136454982 2.4380421524586069 -0.68199836817093118 0 0.7313536940579346 0.7313536940579346 0 0.68199836817093118 forward_v I I I I #
loop $-1 $-1 $293 $72 #
coedge $-1 $185 $185 $186 $294 reversed $114 $-1 #
coedge $-1 $186 $186 $185 $294 forward $116 $-1 #
coedge $-1 $187 $187 $117 $188 forward $182 $-1 #
edge $-1 $295 0 $295 6.2831853071796004 $187 $296 forward 7 unknown #
face $-1 $297 $298 $41 $-1 $299 forward single #
loop $-1 $-1 $300 $118 #
plane-surface $-1 -123.2392109445225 12.841376750022022 78.691491060797105 0 -1 0 0.68199836817093118 0 -0.7313536940579346 forward_v I I I I #
coedge $-1 $301 $302 $303 $304 reversed $119 $-1 #
coedge $-1 $194 $121 $305 $306 reversed $76 $-1 #
coedge $-1 $121 $193 $301 $307 reversed $76 $-1 #
coedge $-1 $303 $308 $121 $196 forward $298 $-1 #
edge $-1 $309 9.4878875853628486 $310 18.872540044593464 $195 $311 forward 7 unknown #
loop $-1 $-1 $202 $122 #
plane-surface $-1 -52.131717886898386 9.5535317205608976 2.4380421524586069 -0.68199836817093118 0 0.7313536940579346 0.7313536940579346 0 0.68199836817093118 forward_v I I I I #
loop $-1 $-1 $312 $78 #
coedge $-1 $200 $200 $201 $313 reversed $123 $-1 #
coedge $-1 $201 $201 $200 $313 forward $125 $-1 #
coedge $-1 $202 $202 $126 $203 forward $197 $-1 #
edge $-1 $314 0 $314 6.2831853071796004 $202 $315 forward 7 unknown #
loop $-1 $-1 $209 $127 #
plane-surface $-1 -52.131717886898386 9.5535317205608976 2.4380421524586069 -0.68199836817093118 0 0.7313536940579346 0.7313536940579346 0 0.68199836817093118 forward_v I I I I #
loop $-1 $-1 $316 $81 #
coedge $-1 $207 $207 $208 $317 reversed $128 $-1 #
coedge $-1 $208 $208 $207 $317 forward $130 $-1 #
coedge $-1 $209 $209 $131 $210 forward $204 $-1 #
edge $-1 $318 0 $318 6.2831853071796004 $209 $319 forward 7 unknown #
face $-1 $320 $321 $44 $-1 $322 forward single #
loop $-1 $-1 $323 $132 #
plane-surface $-1 87.803288623034746 -1.2355415123042164 144.86757485388026 0 1 0 0.85716730853699208 0 0.51503806187062418 forward_v I I I I #
coedge $-1 $324 $325 $326 $327 reversed $133 $-1 #
coedge $-1 $216 $135 $328 $329 reversed $85 $-1 #
coedge $-1 $135 $215 $324 $330 reversed $85 $-1 #
coedge $-1 $326 $331 $135 $218 forward $321 $-1 #
edge $-1 $332 -8.2300735753810272 $333 -2.5864038844398536 $217 $334 forward 7 unknown #
loop $-1 $-1 $224 $136 #
plane-surface $-1 -1.567919998010197 2.1150408304397388 91.167936968971645 0.85716730853699208 0 0.51503806187062418 0.51503806187062418 0 -0.85716730853699208 forward_v I I I I #
loop $-1 $-1 $335 $87 #
coedge $-1 $222 $222 $223 $336 reversed $137 $-1 #
coedge $-1 $223 $223 $222 $336 forward $139 $-1 #
coedge $-1 $224 $224 $140 $225 forward $219 $-1 #
edge $-1 $337 0 $337 6.2831853071796004 $224 $338 forward 7 unknown #
loop $-1 $-1 $231 $141 #
plane-surface $-1 -1.567919998010197 2.1150408304397388 91.167936968971645 0.85716730853699208 0 0.51503806187062418 0.51503806187062418 0 -0.85716730853699208 forward_v I I I I #
loop $-1 $-1 $339 $90 #
coedge $-1 $229 $229 $230 $340 reversed $142 $-1 #
coedge $-1 $230 $230 $229 $340 forward $144 $-1 #
coedge $-1 $231 $231 $145 $232 forward $226 $-1 #
edge $-1 $341 0 $341 6.2831853071796004 $231 $342 forward 7 unknown #
loop $-1 $-1 $238 $146 #
plane-surface $-1 -1.567919998010197 2.1150408304397388 91.167936968971645 0.85716730853699208 0 0.51503806187062418 0.51503806187062418 0 -0.85716730853699208 forward_v I I I I #
loop $-1 $-1 $343 $93 #
coedge $-1 $236 $236 $237 $344 reversed $147 $-1 #
coedge $-1 $237 $237 $236 $344 forward $149 $-1 #
coedge $-1 $238 $238 $150 $239 forward $233 $-1 #
edge $-1 $345 0 $345 6.2831853071796004 $238 $346 forward 7 unknown #
face $-1 $347 $348 $36 $-1 $349 reversed single #
loop $-1 $-1 $350 $151 #
plane-surface $-1 -52.1317178868984 0 0 1 0 0 0 0 -1 forward_v I I I I #
coedge $-1 $157 $351 $352 $353 forward $152 $-1 #
coedge $-1 $354 $154 $355 $356 forward $97 $-1 #
coedge $-1 $154 $354 $248 $357 forward $97 $-1 #
coedge $-1 $249 $358 $154 $247 reversed $359 $-1 #
edge $-1 $360 -23.396667894563144 $361 23.396667894563144 $246 $362 forward 7 unknown #
coedge $-1 $156 $155 $245 $357 reversed $61 $-1 #
coedge $-1 $352 $246 $155 $250 forward $359 $-1 #
edge $-1 $360 -11.189372343373842 $254 11.189372343373842 $249 $363 forward 7 unknown #
coedge $-1 $364 $365 $156 $252 reversed $241 $-1 #
edge $-1 $366 -11.189372343373842 $255 11.189372343373842 $251 $367 forward 7 unknown #
coedge $-1 $351 $157 $365 $368 forward $152 $-1 #
vertex $-1 $250 $369 #
vertex $-1 $368 $370 #
straight-curve $-1 0 -23.396667894563144 -11.189372343373842 -1 0 0 I I #
face $-1 $371 $269 $37 $-1 $372 reversed single #
loop $-1 $-1 $373 $159 #
plane-surface $-1 -49.243762296055571 -31.053685801478537 0 0 1 0 0 0 1 forward_v I I I I #
coedge $-1 $374 $375 $264 $376 forward $160 $-1 #
coedge $-1 $377 $162 $375 $378 forward $101 $-1 #
coedge $-1 $162 $377 $267 $379 forward $101 $-1 #
edge $-1 $270 46.355806705212743 $380 52.1317178868984 $162 $381 forward 7 unknown #
coedge $-1 $164 $163 $260 $376 reversed $64 $-1 #
coedge $-1 $382 $383 $163 $266 forward $384 $-1 #
edge $-1 $385 -52.1317178868984 $271 -46.355806705212743 $265 $386 forward 7 unknown #
coedge $-1 $387 $165 $262 $379 reversed $269 $-1 #
coedge $-1 $165 $387 $382 $388 reversed $269 $-1 #
loop $-1 $-1 $387 $257 #
vertex $-1 $263 $389 #
vertex $-1 $388 $390 #
straight-curve $-1 -46.355806705212743 -23.396667894563144 0 0 0 -1 I I #
face $-1 $-1 $285 $38 $-1 $391 forward single #
loop $-1 $-1 $392 $167 #
plane-surface $-1 -52.1317178868984 0 0 1 0 0 0 0 -1 forward_v I I I I #
coedge $-1 $393 $394 $395 $396 reversed $168 $-1 #
coedge $-1 $397 $170 $172 $283 forward $105 $-1 #
coedge $-1 $170 $397 $393 $398 forward $105 $-1 #
coedge $-1 $395 $173 $170 $280 forward $285 $-1 #
edge $-1 $287 -4.2361019362838732 $399 2.339588122638375 $279 $400 forward 7 unknown #
coedge $-1 $401 $402 $171 $282 forward $274 $-1 #
edge $-1 $403 -36.90770337793996 $286 -28.156373187024712 $281 $404 forward 7 unknown #
edge $-1 $287 -12.831893153037374 $403 1.9479204584885432e-014 $172 $405 forward 7 unknown #
coedge $-1 $173 $395 $401 $406 forward $285 $-1 #
loop $-1 $-1 $395 $273 #
vertex $-1 $282 $407 #
vertex $-1 $174 $408 #
straight-curve $-1 -61.619605472261249 -5.1843588431066223 11.18937234337384 1 0 0 I I #
coedge $-1 $289 $289 $-1 $409 reversed $177 $-1 #
edge $-1 $410 0 $410 6.2831853071796004 $178 $411 forward 7 unknown #
vertex $-1 $181 $412 #
ellipse-curve $-1 -47.439391657283096 -3.3055902548431213 6.8137072479162164 -0.68199836817093118 0 0.7313536940579346 0.3656768470289673 0 0.34099918408546559 1 I I #
coedge $-1 $293 $293 $-1 $413 reversed $184 $-1 #
edge $-1 $414 0 $414 6.2831853071796004 $185 $415 forward 7 unknown #
vertex $-1 $188 $416 #
ellipse-curve $-1 -47.439391657283096 -0.48743737244787155 6.8137072479162164 -0.68199836817093118 0 0.7313536940579346 0.3656768470289673 0 0.34099918408546559 1 I I #
face $-1 $-1 $417 $41 $-1 $418 reversed single #
loop $-1 $-1 $195 $189 #
plane-surface $-1 0 0 11.189372343373842 0 0 1 1 0 0 forward_v I I I I #
coedge $-1 $419 $420 $421 $422 reversed $190 $-1 #
coedge $-1 $423 $192 $194 $307 forward $119 $-1 #
coedge $-1 $192 $423 $419 $424 forward $119 $-1 #
coedge $-1 $421 $195 $192 $304 forward $298 $-1 #
edge $-1 $310 1.4889208308193247 $425 8.0646108897415729 $303 $426 forward 7 unknown #
coedge $-1 $427 $428 $193 $306 forward $417 $-1 #
edge $-1 $429 -36.90770337793996 $309 -28.156373187024712 $305 $430 forward 7 unknown #
edge $-1 $310 -12.831893153037374 $429 1.9479204584885432e-014 $194 $431 forward 7 unknown #
coedge $-1 $195 $421 $427 $432 forward $298 $-1 #
vertex $-1 $306 $433 #
vertex $-1 $196 $434 #
straight-curve $-1 -61.619605472261249 6.2656866910997735 11.18937234337384 1 0 0 I I #
coedge $-1 $312 $312 $-1 $435 reversed $199 $-1 #
edge $-1 $436 0 $436 6.2831853071796004 $200 $437 forward 7 unknown #
vertex $-1 $203 $438 #
ellipse-curve $-1 -47.439391657283096 8.1444552793632745 6.8137072479162164 -0.68199836817093118 0 0.7313536940579346 0.3656768470289673 0 0.34099918408546559 1 I I #
coedge $-1 $316 $316 $-1 $439 reversed $206 $-1 #
edge $-1 $440 0 $440 6.2831853071796004 $207 $441 forward 7 unknown #
vertex $-1 $210 $442 #
ellipse-curve $-1 -47.439391657283096 10.962608161758524 6.8137072479162164 -0.68199836817093118 0 0.7313536940579346 0.3656768470289673 0 0.34099918408546559 1 I I #
face $-1 $-1 $443 $44 $-1 $444 reversed single #
loop $-1 $-1 $217 $211 #
plane-surface $-1 0 0 11.189372343373842 0 0 1 1 0 0 forward_v I I I I #
coedge $-1 $445 $446 $447 $448 reversed $212 $-1 #
coedge $-1 $449 $214 $216 $330 forward $133 $-1 #
coedge $-1 $214 $449 $445 $450 forward $133 $-1 #
coedge $-1 $447 $217 $214 $327 forward $321 $-1 #
edge $-1 $333 -4.4081027579638246 $451 2.2930619275240858 $326 $452 forward 7 unknown #
coedge $-1 $453 $454 $215 $329 forward $443 $-1 #
edge $-1 $455 -70.637059079013397 $332 -61.244415083566288 $328 $456 forward 7 unknown #
edge $-1 $333 93.305663700712927 $455 104.26343577379679 $216 $457 forward 7 unknown #
coedge $-1 $217 $447 $453 $458 forward $321 $-1 #
vertex $-1 $218 $459 #
vertex $-1 $218 $460 #
straight-curve $-1 43.901644311517373 5.465623173183694 11.189372343373847 -1 0 0 I I #
coedge $-1 $335 $335 $-1 $461 reversed $221 $-1 #
edge $-1 $462 0 $462 6.2831853071796004 $222 $463 forward 7 unknown #
vertex $-1 $225 $464 #
ellipse-curve $-1 49.309883041427817 0.10469142479336568 6.4930503456502704 0.85716730853699208 0 0.51503806187062418 0.25751903093531209 0 -0.42858365426849604 1 I I #
coedge $-1 $339 $339 $-1 $465 reversed $228 $-1 #
edge $-1 $466 0 $466 6.2831853071796004 $229 $467 forward 7 unknown #
vertex $-1 $232 $468 #
ellipse-curve $-1 49.309883041427817 2.1150408304397388 6.4930503456502704 0.85716730853699208 0 0.51503806187062418 0.25751903093531209 0 -0.42858365426849604 1 I I #
coedge $-1 $343 $343 $-1 $469 reversed $235 $-1 #
edge $-1 $470 0 $470 6.2831853071796004 $236 $471 forward 7 unknown #
vertex $-1 $239 $472 #
ellipse-curve $-1 49.309883041427817 4.1253902360861119 6.4930503456502704 0.85716730853699208 0 0.51503806187062418 0.25751903093531209 0 -0.42858365426849604 1 I I #
face $-1 $-1 $359 $36 $-1 $473 reversed single #
loop $-1 $-1 $474 $240 #
plane-surface $-1 0 23.396667894563144 0 0 -1 0 0 0 -1 forward_v I I I I #
coedge $-1 $365 $364 $475 $476 forward $241 $-1 #
coedge $-1 $243 $253 $477 $478 forward $152 $-1 #
coedge $-1 $358 $249 $243 $353 reversed $359 $-1 #
edge $-1 $479 -23.396667894563144 $254 23.396667894563144 $352 $480 forward 7 unknown #
coedge $-1 $245 $244 $364 $481 forward $97 $-1 #
coedge $-1 $474 $475 $244 $356 reversed $348 $-1 #
edge $-1 $361 -52.1317178868984 $482 52.1317178868984 $355 $483 forward 7 unknown #
edge $-1 $366 -52.1317178868984 $360 52.1317178868984 $248 $484 forward 7 unknown #
coedge $-1 $246 $352 $474 $485 reversed $359 $-1 #
loop $-1 $-1 $249 $347 #
vertex $-1 $247 $486 #
vertex $-1 $247 $487 #
straight-curve $-1 52.1317178868984 0 11.189372343373842 0 1 0 I I #
straight-curve $-1 52.1317178868984 -23.396667894563144 0 0 0 -1 I I #
coedge $-1 $350 $251 $354 $481 reversed $241 $-1 #
coedge $-1 $251 $350 $253 $368 reversed $241 $-1 #
vertex $-1 $481 $488 #
straight-curve $-1 -52.1317178868984 -23.396667894563144 0 0 0 -1 I I #
edge $-1 $255 -23.396667894563144 $489 23.396667894563144 $365 $490 forward 7 unknown #
point $-1 52.1317178868984 -23.396667894563144 -11.189372343373842 #
point $-1 -52.1317178868984 -23.396667894563144 -11.189372343373842 #
face $-1 $-1 $384 $37 $-1 $491 reversed single #
plane-surface $-1 -46.355806705212743 -27.22517684802084 0 -1 0 0 0 0 1 forward_v I I I I #
coedge $-1 $492 $493 $494 $495 forward $258 $-1 #
coedge $-1 $494 $260 $383 $496 reversed $160 $-1 #
coedge $-1 $260 $494 $261 $378 reversed $160 $-1 #
edge $-1 $380 -11.189372343373842 $385 11.189372343373842 $260 $497 forward 7 unknown #
coedge $-1 $262 $261 $493 $498 forward $101 $-1 #
edge $-1 $380 23.396667894563144 $499 31.053685801478537 $375 $500 forward 7 unknown #
edge $-1 $501 -3.8285089534576962 $270 3.8285089534576962 $267 $502 forward 7 unknown #
vertex $-1 $378 $503 #
straight-curve $-1 0 -23.396667894563144 11.189372343373842 -1 0 0 I I #
coedge $-1 $504 $265 $268 $388 forward $384 $-1 #
coedge $-1 $265 $504 $374 $496 forward $384 $-1 #
loop $-1 $-1 $265 $371 #
vertex $-1 $376 $505 #
straight-curve $-1 0 -23.396667894563144 -11.189372343373842 1 0 0 I I #
coedge $-1 $268 $267 $506 $507 forward $269 $-1 #
edge $-1 $271 -3.8285089534576962 $508 3.8285089534576962 $268 $509 forward 7 unknown #
point $-1 -46.355806705212743 -23.396667894563144 11.189372343373842 #
point $-1 -46.355806705212743 -23.396667894563144 -11.189372343373842 #
plane-surface $-1 0 0 11.189372343373842 0 0 1 1 0 0 forward_v I I I I #
coedge $-1 $402 $401 $394 $510 forward $274 $-1 #
coedge $-1 $394 $276 $278 $398 reversed $168 $-1 #
coedge $-1 $276 $393 $392 $510 reversed $168 $-1 #
coedge $-1 $284 $279 $276 $396 forward $285 $-1 #
edge $-1 $399 -18.872540044593464 $511 -9.4878875853628486 $395 $512 forward 7 unknown #
coedge $-1 $278 $277 $402 $513 reversed $105 $-1 #
edge $-1 $514 -1.9479204584885432e-014 $399 12.831893153037374 $393 $515 forward 7 unknown #
vertex $-1 $280 $516 #
straight-curve $-1 -42.747065427667785 -0.9482569068227491 11.189372343373844 0 1 0 I I #
coedge $-1 $392 $281 $284 $406 reversed $274 $-1 #
coedge $-1 $281 $392 $397 $513 forward $274 $-1 #
vertex $-1 $282 $517 #
straight-curve $-1 -52.1317178868984 -5.1843588431066223 39.345745530398553 0 0 1 I I #
straight-curve $-1 -52.131717886898386 -5.1843588431066223 2.4380421524586069 -0.7313536940579346 0 -0.68199836817093118 I I #
edge $-1 $511 -1.3913312158156259 $286 5.1843588431066223 $401 $518 forward 7 unknown #
point $-1 -52.1317178868984 -5.1843588431066223 11.189372343373842 #
point $-1 -42.747065427667785 -5.1843588431066223 11.189372343373842 #
edge $-1 $519 1 $519 0 $289 $-1 forward 7 unknown #
vertex $-1 $290 $520 #
ellipse-curve $-1 -46.735861647159211 -3.3055902548431213 6.0592636952657228 -0.68199836817093118 0 0.7313536940579346 0.3656768470289673 0 0.34099918408546559 1 I I #
point $-1 -47.073714810254145 -3.3055902548431213 7.1547064320016984 #
edge $-1 $521 1 $521 0 $293 $-1 forward 7 unknown #
vertex $-1 $294 $522 #
ellipse-curve $-1 -46.735861647159211 -0.48743737244787155 6.0592636952657228 -0.68199836817093118 0 0.7313536940579346 0.3656768470289673 0 0.34099918408546559 1 I I #
point $-1 -47.073714810254145 -0.48743737244787155 7.1547064320016984 #
loop $-1 $-1 $305 $297 #
plane-surface $-1 -52.1317178868984 0 0 1 0 0 0 0 -1 forward_v I I I I #
coedge $-1 $420 $300 $302 $424 reversed $190 $-1 #
coedge $-1 $300 $419 $523 $524 reversed $190 $-1 #
coedge $-1 $308 $303 $300 $422 forward $298 $-1 #
edge $-1 $425 -18.872540044593464 $525 -9.4878875853628486 $421 $526 forward 7 unknown #
coedge $-1 $302 $301 $428 $527 reversed $119 $-1 #
edge $-1 $528 -1.9479204584885432e-014 $425 12.831893153037374 $419 $529 forward 7 unknown #
vertex $-1 $304 $530 #
straight-curve $-1 -42.747065427667785 4.7767658602804488 11.189372343373844 0 1 0 I I #
coedge $-1 $523 $305 $308 $432 reversed $417 $-1 #
coedge $-1 $305 $523 $423 $527 forward $417 $-1 #
vertex $-1 $306 $531 #
straight-curve $-1 -52.1317178868984 6.2656866910997735 39.345745530398553 0 0 1 I I #
straight-curve $-1 -52.131717886898386 6.2656866910997735 2.4380421524586069 -0.7313536940579346 0 -0.68199836817093118 I I #
edge $-1 $525 -12.841376750022022 $309 -6.2656866910997735 $427 $532 forward 7 unknown #
point $-1 -52.1317178868984 6.2656866910997735 11.189372343373842 #
point $-1 -42.747065427667785 6.2656866910997735 11.189372343373842 #
edge $-1 $533 1 $533 0 $312 $-1 forward 7 unknown #
vertex $-1 $313 $534 #
ellipse-curve $-1 -46.735861647159211 8.1444552793632745 6.0592636952657228 -0.68199836817093118 0 0.7313536940579346 0.3656768470289673 0 0.34099918408546559 1 I I #
point $-1 -47.073714810254145 8.1444552793632745 7.1547064320016984 #
edge $-1 $535 1 $535 0 $316 $-1 forward 7 unknown #
vertex $-1 $317 $536 #
ellipse-curve $-1 -46.735861647159211 10.962608161758524 6.0592636952657228 -0.68199836817093118 0 0.7313536940579346 0.3656768470289673 0 0.34099918408546559 1 I I #
point $-1 -47.073714810254145 10.962608161758524 7.1547064320016984 #
loop $-1 $-1 $328 $320 #
plane-surface $-1 52.1317178868984 0 0 -1 0 0 0 0 1 forward_v I I I I #
coedge $-1 $446 $323 $325 $450 reversed $212 $-1 #
coedge $-1 $323 $445 $537 $538 reversed $212 $-1 #
coedge $-1 $331 $326 $323 $448 forward $321 $-1 #
edge $-1 $451 2.5864038844398536 $539 8.2300735753810272 $447 $540 forward 7 unknown #
coedge $-1 $325 $324 $454 $541 reversed $133 $-1 #
edge $-1 $542 -104.26343577379679 $451 -93.305663700712927 $445 $543 forward 7 unknown #
vertex $-1 $327 $544 #
straight-curve $-1 46.488048195957234 1.0575204152198694 11.18937234337384 0 -1 0 I I #
coedge $-1 $537 $328 $331 $458 reversed $443 $-1 #
coedge $-1 $328 $537 $449 $541 forward $443 $-1 #
vertex $-1 $329 $545 #
straight-curve $-1 52.1317178868984 5.465623173183694 72.433787426940128 0 0 1 I I #
straight-curve $-1 -1.567919998010197 5.465623173183694 91.167936968971645 0.51503806187062418 0 -0.85716730853699208 I I #
edge $-1 $539 -1.2355415123042164 $332 5.465623173183694 $453 $546 forward 7 unknown #
point $-1 52.1317178868984 5.465623173183694 11.189372343373842 #
point $-1 46.488048195957226 5.465623173183694 11.189372343373847 #
edge $-1 $547 1 $547 0 $335 $-1 forward 7 unknown #
vertex $-1 $336 $548 #
ellipse-curve $-1 48.452715732890823 0.10469142479336568 5.9780122837796457 0.85716730853699208 0 0.51503806187062418 0.25751903093531209 0 -0.42858365426849604 1 I I #
point $-1 49.56740207236313 0.10469142479336568 6.0644666913817744 #
edge $-1 $549 1 $549 0 $339 $-1 forward 7 unknown #
vertex $-1 $340 $550 #
ellipse-curve $-1 48.452715732890823 2.1150408304397388 5.9780122837796457 0.85716730853699208 0 0.51503806187062418 0.25751903093531209 0 -0.42858365426849604 1 I I #
point $-1 49.56740207236313 2.1150408304397388 6.0644666913817744 #
edge $-1 $551 1 $551 0 $343 $-1 forward 7 unknown #
vertex $-1 $344 $552 #
ellipse-curve $-1 48.452715732890823 4.1253902360861119 5.9780122837796457 0.85716730853699208 0 0.51503806187062418 0.25751903093531209 0 -0.42858365426849604 1 I I #
point $-1 49.56740207236313 4.1253902360861119 6.0644666913817744 #
plane-surface $-1 52.1317178868984 0 0 -1 0 0 0 0 1 forward_v I I I I #
coedge $-1 $477 $355 $358 $485 forward $348 $-1 #
coedge $-1 $355 $477 $350 $476 reversed $348 $-1 #
edge $-1 $482 -11.189372343373842 $489 11.189372343373842 $475 $553 forward 7 unknown #
coedge $-1 $475 $474 $351 $478 reversed $348 $-1 #
edge $-1 $489 -52.1317178868984 $479 52.1317178868984 $477 $554 forward 7 unknown #
vertex $-1 $353 $555 #
straight-curve $-1 52.1317178868984 0 -11.189372343373842 0 -1 0 I I #
edge $-1 $482 -23.396667894563144 $366 23.396667894563144 $364 $556 forward 7 unknown #
vertex $-1 $356 $557 #
straight-curve $-1 0 23.396667894563144 11.189372343373842 -1 0 0 I I #
straight-curve $-1 0 -23.396667894563144 11.189372343373842 1 0 0 I I #
edge $-1 $361 -11.189372343373842 $479 11.189372343373842 $358 $558 forward 7 unknown #
point $-1 52.1317178868984 -23.396667894563144 11.189372343373842 #
point $-1 52.1317178868984 23.396667894563144 11.189372343373842 #
point $-1 -52.1317178868984 -23.396667894563144 11.189372343373842 #
vertex $-1 $478 $559 #
straight-curve $-1 -52.1317178868984 0 -11.189372343373842 0 1 0 I I #
plane-surface $-1 0 0 -11.189372343373842 0 0 1 1 0 0 forward_v I I I I #
coedge $-1 $506 $373 $504 $560 reversed $258 $-1 #
coedge $-1 $373 $506 $377 $498 reversed $258 $-1 #
coedge $-1 $375 $374 $373 $495 reversed $160 $-1 #
edge $-1 $499 -11.189372343373842 $561 11.189372343373842 $494 $562 forward 7 unknown #
edge $-1 $561 -31.053685801478537 $385 -23.396667894563144 $374 $563 forward 7 unknown #
straight-curve $-1 -52.1317178868984 -23.396667894563144 0 0 0 -1 I I #
edge $-1 $499 -2.8879555908428287 $501 2.8879555908428287 $493 $564 forward 7 unknown #
vertex $-1 $378 $565 #
straight-curve $-1 -52.1317178868984 0 11.189372343373842 0 -1 0 I I #
vertex $-1 $379 $566 #
straight-curve $-1 -46.355806705212743 -27.22517684802084 11.189372343373842 0 1 0 I I #
point $-1 -52.1317178868984 -23.396667894563144 11.189372343373842 #
coedge $-1 $383 $382 $492 $560 forward $384 $-1 #
point $-1 -52.1317178868984 -23.396667894563144 -11.189372343373842 #
coedge $-1 $493 $492 $387 $507 reversed $258 $-1 #
edge $-1 $501 -11.189372343373842 $508 11.189372343373842 $387 $567 forward 7 unknown #
vertex $-1 $507 $568 #
straight-curve $-1 -46.355806705212743 -27.22517684802084 -11.189372343373842 0 -1 0 I I #
edge $-1 $511 28.156373187024712 $514 36.90770337793996 $392 $569 forward 7 unknown #
vertex $-1 $406 $570 #
straight-curve $-1 -61.619605472261249 1.3913312158156259 11.18937234337384 -1 0 0 I I #
edge $-1 $514 -2.339588122638375 $403 4.2361019362838732 $402 $571 forward 7 unknown #
vertex $-1 $513 $572 #
straight-curve $-1 -52.131717886898386 1.3913312158156259 2.4380421524586069 0.7313536940579346 0 0.68199836817093118 I I #
point $-1 -42.747065427667785 1.3913312158156259 11.189372343373842 #
point $-1 -52.1317178868984 -5.1843588431066223 2.4380421524585936 #
straight-curve $-1 -52.1317178868984 0 11.189372343373842 0 -1 0 I I #
vertex $-1 $409 $573 #
point $-1 -46.370184800130247 -3.3055902548431213 6.4002628793511889 #
vertex $-1 $413 $574 #
point $-1 -46.370184800130247 -0.48743737244787155 6.4002628793511889 #
coedge $-1 $428 $427 $420 $524 forward $417 $-1 #
edge $-1 $525 28.156373187024712 $528 36.90770337793996 $523 $575 forward 7 unknown #
vertex $-1 $432 $576 #
straight-curve $-1 -61.619605472261249 12.841376750022022 11.18937234337384 -1 0 0 I I #
edge $-1 $528 -8.0646108897415729 $429 -1.4889208308193247 $428 $577 forward 7 unknown #
vertex $-1 $527 $578 #
straight-curve $-1 -52.131717886898386 12.841376750022022 2.4380421524586069 0.7313536940579346 0 0.68199836817093118 I I #
point $-1 -42.747065427667785 12.841376750022022 11.189372343373842 #
point $-1 -52.1317178868984 6.2656866910997735 2.4380421524585936 #
straight-curve $-1 -52.1317178868984 0 11.189372343373842 0 -1 0 I I #
vertex $-1 $435 $579 #
point $-1 -46.370184800130247 8.1444552793632745 6.4002628793511889 #
vertex $-1 $439 $580 #
point $-1 -46.370184800130247 10.962608161758524 6.4002628793511889 #
coedge $-1 $454 $453 $446 $538 forward $443 $-1 #
edge $-1 $539 61.244415083566288 $542 70.637059079013397 $537 $581 forward 7 unknown #
vertex $-1 $458 $582 #
straight-curve $-1 43.901644311517373 -1.2355415123042164 11.189372343373847 1 0 0 I I #
edge $-1 $542 -2.2930619275240858 $455 4.4081027579638246 $454 $583 forward 7 unknown #
vertex $-1 $541 $584 #
straight-curve $-1 -1.567919998010197 -1.2355415123042164 91.167936968971645 -0.51503806187062418 0 0.85716730853699208 I I #
point $-1 46.488048195957226 -1.2355415123042164 11.189372343373847 #
point $-1 52.1317178868984 5.465623173183694 1.7967283479267309 #
straight-curve $-1 52.1317178868984 0 11.189372343373842 0 1 0 I I #
vertex $-1 $461 $585 #
point $-1 48.710234763826136 0.10469142479336568 5.5494286295111497 #
vertex $-1 $465 $586 #
point $-1 48.710234763826136 2.1150408304397388 5.5494286295111497 #
vertex $-1 $469 $587 #
point $-1 48.710234763826136 4.1253902360861119 5.5494286295111497 #
straight-curve $-1 -52.1317178868984 23.396667894563144 0 0 0 -1 I I #
straight-curve $-1 0 23.396667894563144 -11.189372343373842 1 0 0 I I #
point $-1 52.1317178868984 23.396667894563144 -11.189372343373842 #
straight-curve $-1 -52.1317178868984 0 11.189372343373842 0 -1 0 I I #
point $-1 -52.1317178868984 23.396667894563144 11.189372343373842 #
straight-curve $-1 52.1317178868984 23.396667894563144 0 0 0 -1 I I #
point $-1 -52.1317178868984 23.396667894563144 -11.189372343373842 #
edge $-1 $508 -2.8879555908428287 $561 2.8879555908428287 $492 $588 forward 7 unknown #
vertex $-1 $496 $589 #
straight-curve $-1 -52.1317178868984 -31.053685801478537 0 0 0 -1 I I #
straight-curve $-1 -52.1317178868984 0 -11.189372343373842 0 1 0 I I #
straight-curve $-1 -49.243762296055571 -31.053685801478537 11.189372343373842 1 0 0 I I #
point $-1 -52.1317178868984 -31.053685801478537 11.189372343373842 #
point $-1 -46.355806705212743 -31.053685801478537 11.189372343373842 #
straight-curve $-1 -46.355806705212743 -31.053685801478537 0 0 0 -1 I I #
point $-1 -46.355806705212743 -31.053685801478537 -11.189372343373842 #
straight-curve $-1 -52.1317178868984 1.3913312158156259 39.345745530398553 0 0 -1 I I #
point $-1 -52.1317178868984 1.3913312158156259 11.189372343373842 #
straight-curve $-1 -52.1317178868984 -0.9482569068227491 2.4380421524585953 0 -1 0 I I #
point $-1 -52.1317178868984 1.3913312158156259 2.4380421524585936 #
point $-1 -46.39486246307375 -3.3055902548431213 5.6935868482367562 #
point $-1 -46.39486246307375 -0.48743737244787155 5.6935868482367562 #
straight-curve $-1 -52.1317178868984 12.841376750022022 39.345745530398553 0 0 -1 I I #
point $-1 -52.1317178868984 12.841376750022022 11.189372343373842 #
straight-curve $-1 -52.1317178868984 4.7767658602804488 2.4380421524585953 0 -1 0 I I #
point $-1 -52.1317178868984 12.841376750022022 2.4380421524585936 #
point $-1 -46.39486246307375 8.1444552793632745 5.6935868482367562 #
point $-1 -46.39486246307375 10.962608161758524 5.6935868482367562 #
straight-curve $-1 52.1317178868984 -1.2355415123042164 72.433787426940128 0 0 -1 I I #
point $-1 52.1317178868984 -1.2355415123042164 11.189372343373842 #
straight-curve $-1 52.1317178868984 1.0575204152198694 1.7967283479267238 0 1 0 I I #
point $-1 52.1317178868984 -1.2355415123042164 1.7967283479267309 #
point $-1 48.02413207862233 0.10469142479336568 5.7204932528443342 #
point $-1 48.02413207862233 2.1150408304397388 5.7204932528443342 #
point $-1 48.02413207862233 4.1253902360861119 5.7204932528443342 #
straight-curve $-1 -49.243762296055571 -31.053685801478537 -11.189372343373842 -1 0 0 I I #
point $-1 -52.1317178868984 -31.053685801478537 -11.189372343373842 #
End-of-ACIS-data 