500 0 16 0           
7 Unknown 11 ACIS 5.0 NT 24 Thu Mar 25 17:54:59 1999 
-1 9.9999999999999995e-007 1e-010 
body $-1 $16 $-1 $17 #
body $-1 $18 $-1 $19 #
body $-1 $20 $-1 $21 #
body $-1 $22 $-1 $23 #
body $-1 $24 $-1 $25 #
body $-1 $26 $-1 $27 #
body $-1 $28 $-1 $29 #
body $-1 $30 $-1 $31 #
body $-1 $32 $-1 $33 #
body $-1 $34 $-1 $35 #
body $-1 $36 $-1 $37 #
body $-1 $38 $-1 $39 #
body $-1 $40 $-1 $41 #
body $-1 $42 $-1 $43 #
body $-1 $44 $-1 $45 #
body $-1 $46 $-1 $47 #
lump $-1 $-1 $48 $0 #
transform $-1 1 0 0 0 1 0 0 0 1 60.319223609118929 24.147570653858409 11.18347861264574 1 rotate no_reflect no_shear #
lump $-1 $-1 $49 $1 #
transform $-1 1 0 0 0 1 0 0 0 1 60.319223609118929 4.3854751800407046 3.6032984186981225 1 rotate no_reflect no_shear #
lump $-1 $-1 $50 $2 #
transform $-1 1 0 0 0 1 0 0 0 1 60.319223609118929 42.390962906378405 20.866957225291479 1 rotate no_reflect no_shear #
lump $-1 $-1 $51 $3 #
transform $-1 0.69465836192734942 0 -0.71933980857756763 0 1 0 0.71933980857756763 0 0.69465836192734942 123.61597861721995 25.228887316207953 187.38659132533559 1 rotate no_reflect no_shear #
lump $-1 $-1 $52 $4 #
transform $-1 0.69465836192734942 0 -0.71933980857756763 0 -1 0 -0.71933980857756763 0 -0.69465836192734942 116.6081850933423 22.862572829012223 18.287382554323386 1 rotate no_reflect no_shear #
lump $-1 $-1 $53 $5 #
transform $-1 0.69465836192734942 0 -0.71933980857756763 0 -1 0 -0.71933980857756763 0 -0.69465836192734942 116.6081850933423 25.228887316207953 18.287382554323386 1 rotate no_reflect no_shear #
lump $-1 $-1 $54 $6 #
transform $-1 0.69465836192734942 0 -0.71933980857756763 0 -1 0 -0.71933980857756763 0 -0.69465836192734942 116.6081850933423 27.595201803403683 18.287382554323386 1 rotate no_reflect no_shear #
lump $-1 $-1 $55 $7 #
transform $-1 0.49999998660252726 0 0.86602541151947299 0 1 0 -0.86602541151947299 0 0.49999998660252726 -104.47596089724468 13.398433314430553 72.203242538204918 1 rotate no_reflect no_shear #
lump $-1 $-1 $56 $8 #
transform $-1 0.49999998660252726 0 0.86602541151947299 0 -1 0 0.86602541151947299 0 -0.49999998660252726 4.1086948133198051 12.152264139914248 16.500488902060727 1 rotate no_reflect no_shear #
lump $-1 $-1 $57 $9 #
transform $-1 0.49999998660252726 0 0.86602541151947299 0 -1 0 0.86602541151947299 0 -0.49999998660252726 4.1086948133198051 14.644602488946859 16.500488902060727 1 rotate no_reflect no_shear #
lump $-1 $-1 $58 $10 #
transform $-1 0.49999998660252726 0 0.86602541151947299 0 1 0 -0.86602541151947299 0 0.49999998660252726 -104.47596089724468 22.637044696083414 72.203242538204918 1 rotate no_reflect no_shear #
lump $-1 $-1 $59 $11 #
transform $-1 0.49999998660252726 0 0.86602541151947299 0 -1 0 0.86602541151947299 0 -0.49999998660252726 4.1086948133198051 21.390875521567111 16.500488902060727 1 rotate no_reflect no_shear #
lump $-1 $-1 $60 $12 #
transform $-1 0.49999998660252726 0 0.86602541151947299 0 -1 0 0.86602541151947299 0 -0.49999998660252726 4.1086948133198051 23.883213870599718 16.500488902060727 1 rotate no_reflect no_shear #
lump $-1 $-1 $61 $13 #
transform $-1 0.49999998660252726 0 0.86602541151947299 0 1 0 -0.86602541151947299 0 0.49999998660252726 -104.47596089724468 31.875656077736274 72.203242538204918 1 rotate no_reflect no_shear #
lump $-1 $-1 $62 $14 #
transform $-1 0.49999998660252726 0 0.86602541151947299 0 -1 0 0.86602541151947299 0 -0.49999998660252726 4.1086948133198051 30.62948690321997 16.500488902060727 1 rotate no_reflect no_shear #
lump $-1 $-1 $63 $15 #
transform $-1 0.49999998660252726 0 0.86602541151947299 0 -1 0 0.86602541151947299 0 -0.49999998660252726 4.1086948133198051 33.121825252252577 16.500488902060727 1 rotate no_reflect no_shear #
shell $-1 $-1 $-1 $64 $-1 $16 #
shell $-1 $-1 $-1 $65 $-1 $18 #
shell $-1 $-1 $-1 $66 $-1 $20 #
shell $-1 $-1 $-1 $67 $-1 $22 #
shell $-1 $-1 $-1 $68 $-1 $24 #
shell $-1 $-1 $-1 $69 $-1 $26 #
shell $-1 $-1 $-1 $70 $-1 $28 #
shell $-1 $-1 $-1 $71 $-1 $30 #
shell $-1 $-1 $-1 $72 $-1 $32 #
shell $-1 $-1 $-1 $73 $-1 $34 #
shell $-1 $-1 $-1 $74 $-1 $36 #
shell $-1 $-1 $-1 $75 $-1 $38 #
shell $-1 $-1 $-1 $76 $-1 $40 #
shell $-1 $-1 $-1 $77 $-1 $42 #
shell $-1 $-1 $-1 $78 $-1 $44 #
shell $-1 $-1 $-1 $79 $-1 $46 #
face $-1 $80 $81 $48 $-1 $82 forward single #
face $-1 $83 $84 $49 $-1 $85 forward single #
face $-1 $86 $87 $50 $-1 $88 forward single #
face $-1 $89 $90 $51 $-1 $91 forward single #
face $-1 $92 $93 $52 $-1 $94 forward single #
face $-1 $95 $96 $53 $-1 $97 forward single #
face $-1 $98 $99 $54 $-1 $100 forward single #
face $-1 $101 $102 $55 $-1 $103 forward single #
face $-1 $104 $105 $56 $-1 $106 forward single #
face $-1 $107 $108 $57 $-1 $109 forward single #
face $-1 $110 $111 $58 $-1 $112 forward single #
face $-1 $113 $114 $59 $-1 $115 forward single #
face $-1 $116 $117 $60 $-1 $118 forward single #
face $-1 $119 $120 $61 $-1 $121 forward single #
face $-1 $122 $123 $62 $-1 $124 forward single #
face $-1 $125 $126 $63 $-1 $127 forward single #
face $-1 $128 $129 $48 $-1 $130 reversed single #
loop $-1 $-1 $131 $64 #
plane-surface $-1 0 0 11.18347861264574 0 0 1 1 0 0 forward_v I I I I #
face $-1 $132 $133 $49 $-1 $134 reversed single #
loop $-1 $-1 $135 $65 #
plane-surface $-1 0 0 3.1032984186981225 0 0 1 1 0 0 forward_v I I I I #
face $-1 $136 $137 $50 $-1 $138 reversed single #
loop $-1 $-1 $139 $66 #
plane-surface $-1 0 0 1.5 0 0 1 1 0 0 forward_v I I I I #
face $-1 $140 $141 $51 $-1 $142 reversed single #
loop $-1 $-1 $143 $67 #
plane-surface $-1 0 0 120.63844721823784 0 0 1 1 0 0 forward_v I I I I #
face $-1 $144 $145 $52 $-1 $146 forward single #
loop $-1 $147 $148 $68 #
cone-surface $-1 0 0 -1.0593585009308146 0 0 1 0.5 0 0 1 I I 0 1 0.5 forward I I I I #
face $-1 $149 $150 $53 $-1 $151 forward single #
loop $-1 $152 $153 $69 #
cone-surface $-1 0 0 -1.0593585009308146 0 0 1 0.5 0 0 1 I I 0 1 0.5 forward I I I I #
face $-1 $154 $155 $54 $-1 $156 forward single #
loop $-1 $157 $158 $70 #
cone-surface $-1 0 0 -1.0593585009308146 0 0 1 0.5 0 0 1 I I 0 1 0.5 forward I I I I #
face $-1 $159 $160 $55 $-1 $161 reversed single #
loop $-1 $-1 $162 $71 #
plane-surface $-1 0 0 120.63844721823786 0 0 1 1 0 0 forward_v I I I I #
face $-1 $163 $164 $56 $-1 $165 forward single #
loop $-1 $166 $167 $72 #
cone-surface $-1 0 0 -0.75 0 0 1 0.5 0 0 1 I I 0 1 0.5 forward I I I I #
face $-1 $168 $169 $57 $-1 $170 forward single #
loop $-1 $171 $172 $73 #
cone-surface $-1 0 0 -0.75 0 0 1 0.5 0 0 1 I I 0 1 0.5 forward I I I I #
face $-1 $173 $174 $58 $-1 $175 reversed single #
loop $-1 $-1 $176 $74 #
plane-surface $-1 0 0 120.63844721823786 0 0 1 1 0 0 forward_v I I I I #
face $-1 $177 $178 $59 $-1 $179 forward single #
loop $-1 $180 $181 $75 #
cone-surface $-1 0 0 -0.75 0 0 1 0.5 0 0 1 I I 0 1 0.5 forward I I I I #
face $-1 $182 $183 $60 $-1 $184 forward single #
loop $-1 $185 $186 $76 #
cone-surface $-1 0 0 -0.75 0 0 1 0.5 0 0 1 I I 0 1 0.5 forward I I I I #
face $-1 $187 $188 $61 $-1 $189 reversed single #
loop $-1 $-1 $190 $77 #
plane-surface $-1 0 0 120.63844721823786 0 0 1 1 0 0 forward_v I I I I #
face $-1 $191 $192 $62 $-1 $193 forward single #
loop $-1 $194 $195 $78 #
cone-surface $-1 0 0 -0.75 0 0 1 0.5 0 0 1 I I 0 1 0.5 forward I I I I #
face $-1 $196 $197 $63 $-1 $198 forward single #
loop $-1 $199 $200 $79 #
cone-surface $-1 0 0 -0.75 0 0 1 0.5 0 0 1 I I 0 1 0.5 forward I I I I #
face $-1 $201 $202 $48 $-1 $203 reversed single #
loop $-1 $-1 $204 $80 #
plane-surface $-1 0 0 -11.18347861264574 0 0 1 1 0 0 forward_v I I I I #
coedge $-1 $205 $206 $207 $208 forward $81 $-1 #
face $-1 $209 $210 $49 $-1 $211 reversed single #
loop $-1 $-1 $212 $83 #
plane-surface $-1 0 0 -3.1032984186981225 0 0 1 1 0 0 forward_v I I I I #
coedge $-1 $213 $214 $215 $216 forward $84 $-1 #
face $-1 $217 $218 $50 $-1 $219 reversed single #
loop $-1 $-1 $220 $86 #
plane-surface $-1 0 0 -1.5 0 0 1 1 0 0 forward_v I I I I #
coedge $-1 $221 $222 $223 $224 forward $87 $-1 #
face $-1 $225 $226 $51 $-1 $227 reversed single #
loop $-1 $-1 $228 $89 #
plane-surface $-1 0 0 -120.63844721823784 0 0 1 1 0 0 forward_v I I I I #
coedge $-1 $229 $230 $231 $232 forward $90 $-1 #
face $-1 $-1 $233 $52 $-1 $234 forward single #
loop $-1 $-1 $235 $92 #
plane-surface $-1 0 0 -1.8687170018616293 0 0 -1 -1 0 0 forward_v I I I I #
loop $-1 $-1 $236 $68 #
coedge $-1 $148 $148 $235 $237 reversed $93 $-1 #
face $-1 $-1 $238 $53 $-1 $239 forward single #
loop $-1 $-1 $240 $95 #
plane-surface $-1 0 0 -1.8687170018616293 0 0 -1 -1 0 0 forward_v I I I I #
loop $-1 $-1 $241 $69 #
coedge $-1 $153 $153 $240 $242 reversed $96 $-1 #
face $-1 $-1 $243 $54 $-1 $244 forward single #
loop $-1 $-1 $245 $98 #
plane-surface $-1 0 0 -1.8687170018616293 0 0 -1 -1 0 0 forward_v I I I I #
loop $-1 $-1 $246 $70 #
coedge $-1 $158 $158 $245 $247 reversed $99 $-1 #
face $-1 $248 $249 $55 $-1 $250 reversed single #
loop $-1 $-1 $251 $101 #
plane-surface $-1 0 0 -120.63844721823786 0 0 1 1 0 0 forward_v I I I I #
coedge $-1 $252 $253 $254 $255 forward $102 $-1 #
face $-1 $-1 $256 $56 $-1 $257 forward single #
loop $-1 $-1 $258 $104 #
plane-surface $-1 0 0 -1.25 0 0 -1 -1 0 0 forward_v I I I I #
loop $-1 $-1 $259 $72 #
coedge $-1 $167 $167 $258 $260 reversed $105 $-1 #
face $-1 $-1 $261 $57 $-1 $262 forward single #
loop $-1 $-1 $263 $107 #
plane-surface $-1 0 0 -1.25 0 0 -1 -1 0 0 forward_v I I I I #
loop $-1 $-1 $264 $73 #
coedge $-1 $172 $172 $263 $265 reversed $108 $-1 #
face $-1 $266 $267 $58 $-1 $268 reversed single #
loop $-1 $-1 $269 $110 #
plane-surface $-1 0 0 -120.63844721823786 0 0 1 1 0 0 forward_v I I I I #
coedge $-1 $270 $271 $272 $273 forward $111 $-1 #
face $-1 $-1 $274 $59 $-1 $275 forward single #
loop $-1 $-1 $276 $113 #
plane-surface $-1 0 0 -1.25 0 0 -1 -1 0 0 forward_v I I I I #
loop $-1 $-1 $277 $75 #
coedge $-1 $181 $181 $276 $278 reversed $114 $-1 #
face $-1 $-1 $279 $60 $-1 $280 forward single #
loop $-1 $-1 $281 $116 #
plane-surface $-1 0 0 -1.25 0 0 -1 -1 0 0 forward_v I I I I #
loop $-1 $-1 $282 $76 #
coedge $-1 $186 $186 $281 $283 reversed $117 $-1 #
face $-1 $284 $285 $61 $-1 $286 reversed single #
loop $-1 $-1 $287 $119 #
plane-surface $-1 0 0 -120.63844721823786 0 0 1 1 0 0 forward_v I I I I #
coedge $-1 $288 $289 $290 $291 forward $120 $-1 #
face $-1 $-1 $292 $62 $-1 $293 forward single #
loop $-1 $-1 $294 $122 #
plane-surface $-1 0 0 -1.25 0 0 -1 -1 0 0 forward_v I I I I #
loop $-1 $-1 $295 $78 #
coedge $-1 $195 $195 $294 $296 reversed $123 $-1 #
face $-1 $-1 $297 $63 $-1 $298 forward single #
loop $-1 $-1 $299 $125 #
plane-surface $-1 0 0 -1.25 0 0 -1 -1 0 0 forward_v I I I I #
loop $-1 $-1 $300 $79 #
coedge $-1 $200 $200 $299 $301 reversed $126 $-1 #
face $-1 $302 $303 $48 $-1 $304 reversed single #
loop $-1 $-1 $305 $128 #
plane-surface $-1 0 -24.147570653858409 0 0 1 0 0 0 1 forward_v I I I I #
coedge $-1 $306 $307 $308 $309 forward $129 $-1 #
coedge $-1 $310 $131 $311 $312 forward $81 $-1 #
coedge $-1 $131 $310 $313 $314 forward $81 $-1 #
coedge $-1 $315 $316 $131 $208 reversed $317 $-1 #
edge $-1 $318 -24.147570653858409 $319 24.147570653858409 $207 $320 forward 7 unknown #
face $-1 $321 $322 $49 $-1 $323 reversed single #
loop $-1 $-1 $324 $132 #
plane-surface $-1 0 -4.3854751800407046 0 0 1 0 0 0 1 forward_v I I I I #
coedge $-1 $325 $326 $327 $328 forward $133 $-1 #
coedge $-1 $329 $135 $330 $331 forward $84 $-1 #
coedge $-1 $135 $329 $332 $333 forward $84 $-1 #
coedge $-1 $334 $335 $135 $216 reversed $336 $-1 #
edge $-1 $337 -4.3854751800407046 $338 4.3854751800407046 $215 $339 forward 7 unknown #
face $-1 $340 $341 $50 $-1 $342 reversed single #
loop $-1 $-1 $343 $136 #
plane-surface $-1 0 -5.9041784013384131 0 0 1 0 0 0 1 forward_v I I I I #
coedge $-1 $344 $345 $346 $347 forward $137 $-1 #
coedge $-1 $348 $139 $349 $350 forward $87 $-1 #
coedge $-1 $139 $348 $351 $352 forward $87 $-1 #
coedge $-1 $353 $354 $139 $224 reversed $355 $-1 #
edge $-1 $356 -5.9041784013384131 $357 5.9041784013384131 $223 $358 forward 7 unknown #
face $-1 $359 $360 $51 $-1 $361 reversed single #
loop $-1 $-1 $362 $140 #
plane-surface $-1 0 -3.9438574786595506 0 0 1 0 0 0 1 forward_v I I I I #
coedge $-1 $363 $364 $365 $366 forward $141 $-1 #
coedge $-1 $367 $143 $368 $369 forward $90 $-1 #
coedge $-1 $143 $367 $370 $371 forward $90 $-1 #
coedge $-1 $372 $373 $143 $232 reversed $374 $-1 #
edge $-1 $375 -3.9438574786595506 $376 3.9438574786595506 $231 $377 forward 7 unknown #
loop $-1 $378 $379 $144 #
cone-surface $-1 0 0 0 0 0 1 0.25 0 0 1 I I -0.70710678118654746 0.70710678118654746 0.25 forward I I I I #
coedge $-1 $235 $235 $148 $237 forward $145 $-1 #
coedge $-1 $236 $236 $379 $380 forward $147 $-1 #
edge $-1 $381 0 $381 6.2831853071796004 $235 $382 forward 7 unknown #
loop $-1 $383 $384 $149 #
cone-surface $-1 0 0 0 0 0 1 0.25 0 0 1 I I -0.70710678118654746 0.70710678118654746 0.25 forward I I I I #
coedge $-1 $240 $240 $153 $242 forward $150 $-1 #
coedge $-1 $241 $241 $384 $385 forward $152 $-1 #
edge $-1 $386 0 $386 6.2831853071796004 $240 $387 forward 7 unknown #
loop $-1 $388 $389 $154 #
cone-surface $-1 0 0 0 0 0 1 0.25 0 0 1 I I -0.70710678118654746 0.70710678118654746 0.25 forward I I I I #
coedge $-1 $245 $245 $158 $247 forward $155 $-1 #
coedge $-1 $246 $246 $389 $390 forward $157 $-1 #
edge $-1 $391 0 $391 6.2831853071796004 $245 $392 forward 7 unknown #
face $-1 $393 $394 $55 $-1 $395 reversed single #
loop $-1 $-1 $396 $159 #
plane-surface $-1 0 -2.9077280738713807 0 0 1 0 0 0 1 forward_v I I I I #
coedge $-1 $397 $398 $399 $400 forward $160 $-1 #
coedge $-1 $401 $162 $402 $403 forward $102 $-1 #
coedge $-1 $162 $401 $404 $405 forward $102 $-1 #
coedge $-1 $406 $407 $162 $255 reversed $408 $-1 #
edge $-1 $409 -2.9077280738713807 $410 2.9077280738713807 $254 $411 forward 7 unknown #
loop $-1 $412 $413 $163 #
cone-surface $-1 0 0 0 0 0 1 0.25 0 0 1 I I -0.70710678118654746 0.70710678118654746 0.25 forward I I I I #
coedge $-1 $258 $258 $167 $260 forward $164 $-1 #
coedge $-1 $259 $259 $413 $414 forward $166 $-1 #
edge $-1 $415 0 $415 6.2831853071796004 $258 $416 forward 7 unknown #
loop $-1 $417 $418 $168 #
cone-surface $-1 0 0 0 0 0 1 0.25 0 0 1 I I -0.70710678118654746 0.70710678118654746 0.25 forward I I I I #
coedge $-1 $263 $263 $172 $265 forward $169 $-1 #
coedge $-1 $264 $264 $418 $419 forward $171 $-1 #
edge $-1 $420 0 $420 6.2831853071796004 $263 $421 forward 7 unknown #
face $-1 $422 $423 $58 $-1 $424 reversed single #
loop $-1 $-1 $425 $173 #
plane-surface $-1 0 -2.9077280738713807 0 0 1 0 0 0 1 forward_v I I I I #
coedge $-1 $426 $427 $428 $429 forward $174 $-1 #
coedge $-1 $430 $176 $431 $432 forward $111 $-1 #
coedge $-1 $176 $430 $433 $434 forward $111 $-1 #
coedge $-1 $435 $436 $176 $273 reversed $437 $-1 #
edge $-1 $438 -2.9077280738713807 $439 2.9077280738713807 $272 $440 forward 7 unknown #
loop $-1 $441 $442 $177 #
cone-surface $-1 0 0 0 0 0 1 0.25 0 0 1 I I -0.70710678118654746 0.70710678118654746 0.25 forward I I I I #
coedge $-1 $276 $276 $181 $278 forward $178 $-1 #
coedge $-1 $277 $277 $442 $443 forward $180 $-1 #
edge $-1 $444 0 $444 6.2831853071796004 $276 $445 forward 7 unknown #
loop $-1 $446 $447 $182 #
cone-surface $-1 0 0 0 0 0 1 0.25 0 0 1 I I -0.70710678118654746 0.70710678118654746 0.25 forward I I I I #
coedge $-1 $281 $281 $186 $283 forward $183 $-1 #
coedge $-1 $282 $282 $447 $448 forward $185 $-1 #
edge $-1 $449 0 $449 6.2831853071796004 $281 $450 forward 7 unknown #
face $-1 $451 $452 $61 $-1 $453 reversed single #
loop $-1 $-1 $454 $187 #
plane-surface $-1 0 -2.9077280738713807 0 0 1 0 0 0 1 forward_v I I I I #
coedge $-1 $455 $456 $457 $458 forward $188 $-1 #
coedge $-1 $459 $190 $460 $461 forward $120 $-1 #
coedge $-1 $190 $459 $462 $463 forward $120 $-1 #
coedge $-1 $464 $465 $190 $291 reversed $466 $-1 #
edge $-1 $467 -2.9077280738713807 $468 2.9077280738713807 $290 $469 forward 7 unknown #
loop $-1 $470 $471 $191 #
cone-surface $-1 0 0 0 0 0 1 0.25 0 0 1 I I -0.70710678118654746 0.70710678118654746 0.25 forward I I I I #
coedge $-1 $294 $294 $195 $296 forward $192 $-1 #
coedge $-1 $295 $295 $471 $472 forward $194 $-1 #
edge $-1 $473 0 $473 6.2831853071796004 $294 $474 forward 7 unknown #
loop $-1 $475 $476 $196 #
cone-surface $-1 0 0 0 0 0 1 0.25 0 0 1 I I -0.70710678118654746 0.70710678118654746 0.25 forward I I I I #
coedge $-1 $299 $299 $200 $301 forward $197 $-1 #
coedge $-1 $300 $300 $476 $477 forward $199 $-1 #
edge $-1 $478 0 $478 6.2831853071796004 $299 $479 forward 7 unknown #
face $-1 $480 $481 $48 $-1 $482 reversed single #
loop $-1 $-1 $483 $201 #
plane-surface $-1 -60.319223609118929 0 0 1 0 0 0 0 -1 forward_v I I I I #
coedge $-1 $484 $313 $485 $486 forward $202 $-1 #
coedge $-1 $487 $204 $484 $488 forward $129 $-1 #
coedge $-1 $204 $487 $489 $490 forward $129 $-1 #
coedge $-1 $316 $315 $204 $309 reversed $317 $-1 #
edge $-1 $491 -24.147570653858409 $492 24.147570653858409 $308 $493 forward 7 unknown #
coedge $-1 $206 $205 $494 $495 forward $81 $-1 #
coedge $-1 $496 $497 $205 $312 reversed $481 $-1 #
edge $-1 $319 -60.319223609118929 $498 60.319223609118929 $311 $499 forward 7 unknown #
coedge $-1 $305 $500 $206 $314 reversed $202 $-1 #
edge $-1 $501 -60.319223609118929 $318 60.319223609118929 $313 $502 forward 7 unknown #
coedge $-1 $308 $207 $500 $503 forward $317 $-1 #
coedge $-1 $207 $308 $496 $504 reversed $317 $-1 #
loop $-1 $-1 $315 $480 #
vertex $-1 $208 $505 #
vertex $-1 $208 $506 #
straight-curve $-1 60.319223609118929 0 11.18347861264574 0 1 0 I I #
face $-1 $507 $508 $49 $-1 $509 reversed single #
loop $-1 $-1 $510 $209 #
plane-surface $-1 -60.319223609118929 0 0 1 0 0 0 0 -1 forward_v I I I I #
coedge $-1 $511 $332 $512 $513 forward $210 $-1 #
coedge $-1 $514 $212 $511 $515 forward $133 $-1 #
coedge $-1 $212 $514 $516 $517 forward $133 $-1 #
coedge $-1 $335 $334 $212 $328 reversed $336 $-1 #
edge $-1 $518 -4.3854751800407046 $519 4.3854751800407046 $327 $520 forward 7 unknown #
coedge $-1 $214 $213 $521 $522 forward $84 $-1 #
coedge $-1 $523 $524 $213 $331 reversed $508 $-1 #
edge $-1 $338 -60.319223609118929 $525 60.319223609118929 $330 $526 forward 7 unknown #
coedge $-1 $324 $527 $214 $333 reversed $210 $-1 #
edge $-1 $528 -60.319223609118929 $337 60.319223609118929 $332 $529 forward 7 unknown #
coedge $-1 $327 $215 $527 $530 forward $336 $-1 #
coedge $-1 $215 $327 $523 $531 reversed $336 $-1 #
loop $-1 $-1 $334 $507 #
vertex $-1 $216 $532 #
vertex $-1 $216 $533 #
straight-curve $-1 60.319223609118929 0 3.1032984186981225 0 1 0 I I #
face $-1 $534 $535 $50 $-1 $536 reversed single #
loop $-1 $-1 $537 $217 #
plane-surface $-1 -60.319223609118929 0 0 1 0 0 0 0 -1 forward_v I I I I #
coedge $-1 $538 $351 $539 $540 forward $218 $-1 #
coedge $-1 $541 $220 $538 $542 forward $137 $-1 #
coedge $-1 $220 $541 $543 $544 forward $137 $-1 #
coedge $-1 $354 $353 $220 $347 reversed $355 $-1 #
edge $-1 $545 -5.9041784013384131 $546 5.9041784013384131 $346 $547 forward 7 unknown #
coedge $-1 $222 $221 $548 $549 forward $87 $-1 #
coedge $-1 $550 $551 $221 $350 reversed $535 $-1 #
edge $-1 $357 -60.319223609118929 $552 60.319223609118929 $349 $553 forward 7 unknown #
coedge $-1 $343 $554 $222 $352 reversed $218 $-1 #
edge $-1 $555 -60.319223609118929 $356 60.319223609118929 $351 $556 forward 7 unknown #
coedge $-1 $346 $223 $554 $557 forward $355 $-1 #
coedge $-1 $223 $346 $550 $558 reversed $355 $-1 #
loop $-1 $-1 $353 $534 #
vertex $-1 $224 $559 #
vertex $-1 $224 $560 #
straight-curve $-1 60.319223609118929 0 1.5 0 1 0 I I #
face $-1 $561 $562 $51 $-1 $563 reversed single #
loop $-1 $-1 $564 $225 #
plane-surface $-1 -241.27689443647571 0 0 1 0 0 0 0 -1 forward_v I I I I #
coedge $-1 $565 $370 $566 $567 forward $226 $-1 #
coedge $-1 $568 $228 $565 $569 forward $141 $-1 #
coedge $-1 $228 $568 $570 $571 forward $141 $-1 #
coedge $-1 $373 $372 $228 $366 reversed $374 $-1 #
edge $-1 $572 -3.9438574786595506 $573 3.9438574786595506 $365 $574 forward 7 unknown #
coedge $-1 $230 $229 $575 $576 forward $90 $-1 #
coedge $-1 $577 $578 $229 $369 reversed $562 $-1 #
edge $-1 $376 -241.27689443647571 $579 241.27689443647571 $368 $580 forward 7 unknown #
coedge $-1 $362 $581 $230 $371 reversed $226 $-1 #
edge $-1 $582 -241.27689443647571 $375 241.27689443647571 $370 $583 forward 7 unknown #
coedge $-1 $365 $231 $581 $584 forward $374 $-1 #
coedge $-1 $231 $365 $577 $585 reversed $374 $-1 #
loop $-1 $-1 $372 $561 #
vertex $-1 $232 $586 #
vertex $-1 $232 $587 #
straight-curve $-1 241.27689443647571 0 120.63844721823784 0 1 0 I I #
loop $-1 $-1 $588 $144 #
coedge $-1 $379 $379 $236 $380 reversed $233 $-1 #
edge $-1 $589 0 $589 6.2831853071796004 $379 $590 forward 7 unknown #
vertex $-1 $237 $591 #
ellipse-curve $-1 0 0 -1.8687170018616293 0 0 -1 0.5 0 0 1 I I #
loop $-1 $-1 $592 $149 #
coedge $-1 $384 $384 $241 $385 reversed $238 $-1 #
edge $-1 $593 0 $593 6.2831853071796004 $384 $594 forward 7 unknown #
vertex $-1 $242 $595 #
ellipse-curve $-1 0 0 -1.8687170018616293 0 0 -1 0.5 0 0 1 I I #
loop $-1 $-1 $596 $154 #
coedge $-1 $389 $389 $246 $390 reversed $243 $-1 #
edge $-1 $597 0 $597 6.2831853071796004 $389 $598 forward 7 unknown #
vertex $-1 $247 $599 #
ellipse-curve $-1 0 0 -1.8687170018616293 0 0 -1 0.5 0 0 1 I I #
face $-1 $600 $601 $55 $-1 $602 reversed single #
loop $-1 $-1 $603 $248 #
plane-surface $-1 -241.27689443647571 0 0 1 0 0 0 0 -1 forward_v I I I I #
coedge $-1 $604 $404 $605 $606 forward $249 $-1 #
coedge $-1 $607 $251 $604 $608 forward $160 $-1 #
coedge $-1 $251 $607 $609 $610 forward $160 $-1 #
coedge $-1 $407 $406 $251 $400 reversed $408 $-1 #
edge $-1 $611 -2.9077280738713807 $612 2.9077280738713807 $399 $613 forward 7 unknown #
coedge $-1 $253 $252 $614 $615 forward $102 $-1 #
coedge $-1 $616 $617 $252 $403 reversed $601 $-1 #
edge $-1 $410 -241.27689443647571 $618 241.27689443647571 $402 $619 forward 7 unknown #
coedge $-1 $396 $620 $253 $405 reversed $249 $-1 #
edge $-1 $621 -241.27689443647571 $409 241.27689443647571 $404 $622 forward 7 unknown #
coedge $-1 $399 $254 $620 $623 forward $408 $-1 #
coedge $-1 $254 $399 $616 $624 reversed $408 $-1 #
loop $-1 $-1 $406 $600 #
vertex $-1 $255 $625 #
vertex $-1 $255 $626 #
straight-curve $-1 241.27689443647571 0 120.63844721823786 0 1 0 I I #
loop $-1 $-1 $627 $163 #
coedge $-1 $413 $413 $259 $414 reversed $256 $-1 #
edge $-1 $628 0 $628 6.2831853071796004 $413 $629 forward 7 unknown #
vertex $-1 $260 $630 #
ellipse-curve $-1 0 0 -1.25 0 0 -1 0.5 0 0 1 I I #
loop $-1 $-1 $631 $168 #
coedge $-1 $418 $418 $264 $419 reversed $261 $-1 #
edge $-1 $632 0 $632 6.2831853071796004 $418 $633 forward 7 unknown #
vertex $-1 $265 $634 #
ellipse-curve $-1 0 0 -1.25 0 0 -1 0.5 0 0 1 I I #
face $-1 $635 $636 $58 $-1 $637 reversed single #
loop $-1 $-1 $638 $266 #
plane-surface $-1 -241.27689443647571 0 0 1 0 0 0 0 -1 forward_v I I I I #
coedge $-1 $639 $433 $640 $641 forward $267 $-1 #
coedge $-1 $642 $269 $639 $643 forward $174 $-1 #
coedge $-1 $269 $642 $644 $645 forward $174 $-1 #
coedge $-1 $436 $435 $269 $429 reversed $437 $-1 #
edge $-1 $646 -2.9077280738713807 $647 2.9077280738713807 $428 $648 forward 7 unknown #
coedge $-1 $271 $270 $649 $650 forward $111 $-1 #
coedge $-1 $651 $652 $270 $432 reversed $636 $-1 #
edge $-1 $439 -241.27689443647571 $653 241.27689443647571 $431 $654 forward 7 unknown #
coedge $-1 $425 $655 $271 $434 reversed $267 $-1 #
edge $-1 $656 -241.27689443647571 $438 241.27689443647571 $433 $657 forward 7 unknown #
coedge $-1 $428 $272 $655 $658 forward $437 $-1 #
coedge $-1 $272 $428 $651 $659 reversed $437 $-1 #
loop $-1 $-1 $435 $635 #
vertex $-1 $273 $660 #
vertex $-1 $273 $661 #
straight-curve $-1 241.27689443647571 0 120.63844721823786 0 1 0 I I #
loop $-1 $-1 $662 $177 #
coedge $-1 $442 $442 $277 $443 reversed $274 $-1 #
edge $-1 $663 0 $663 6.2831853071796004 $442 $664 forward 7 unknown #
vertex $-1 $278 $665 #
ellipse-curve $-1 0 0 -1.25 0 0 -1 0.5 0 0 1 I I #
loop $-1 $-1 $666 $182 #
coedge $-1 $447 $447 $282 $448 reversed $279 $-1 #
edge $-1 $667 0 $667 6.2831853071796004 $447 $668 forward 7 unknown #
vertex $-1 $283 $669 #
ellipse-curve $-1 0 0 -1.25 0 0 -1 0.5 0 0 1 I I #
face $-1 $670 $671 $61 $-1 $672 reversed single #
loop $-1 $-1 $673 $284 #
plane-surface $-1 -241.27689443647571 0 0 1 0 0 0 0 -1 forward_v I I I I #
coedge $-1 $674 $462 $675 $676 forward $285 $-1 #
coedge $-1 $677 $287 $674 $678 forward $188 $-1 #
coedge $-1 $287 $677 $679 $680 forward $188 $-1 #
coedge $-1 $465 $464 $287 $458 reversed $466 $-1 #
edge $-1 $681 -2.9077280738713807 $682 2.9077280738713807 $457 $683 forward 7 unknown #
coedge $-1 $289 $288 $684 $685 forward $120 $-1 #
coedge $-1 $686 $687 $288 $461 reversed $671 $-1 #
edge $-1 $468 -241.27689443647571 $688 241.27689443647571 $460 $689 forward 7 unknown #
coedge $-1 $454 $690 $289 $463 reversed $285 $-1 #
edge $-1 $691 -241.27689443647571 $467 241.27689443647571 $462 $692 forward 7 unknown #
coedge $-1 $457 $290 $690 $693 forward $466 $-1 #
coedge $-1 $290 $457 $686 $694 reversed $466 $-1 #
loop $-1 $-1 $464 $670 #
vertex $-1 $291 $695 #
vertex $-1 $291 $696 #
straight-curve $-1 241.27689443647571 0 120.63844721823786 0 1 0 I I #
loop $-1 $-1 $697 $191 #
coedge $-1 $471 $471 $295 $472 reversed $292 $-1 #
edge $-1 $698 0 $698 6.2831853071796004 $471 $699 forward 7 unknown #
vertex $-1 $296 $700 #
ellipse-curve $-1 0 0 -1.25 0 0 -1 0.5 0 0 1 I I #
loop $-1 $-1 $701 $196 #
coedge $-1 $476 $476 $300 $477 reversed $297 $-1 #
edge $-1 $702 0 $702 6.2831853071796004 $476 $703 forward 7 unknown #
vertex $-1 $301 $704 #
ellipse-curve $-1 0 0 -1.25 0 0 -1 0.5 0 0 1 I I #
face $-1 $-1 $317 $48 $-1 $705 reversed single #
loop $-1 $-1 $496 $302 #
plane-surface $-1 0 24.147570653858409 0 0 -1 0 0 0 -1 forward_v I I I I #
coedge $-1 $706 $494 $497 $707 forward $303 $-1 #
coedge $-1 $500 $305 $306 $488 reversed $202 $-1 #
coedge $-1 $494 $706 $305 $486 reversed $303 $-1 #
edge $-1 $501 -11.18347861264574 $708 11.18347861264574 $485 $709 forward 7 unknown #
coedge $-1 $307 $306 $706 $710 forward $129 $-1 #
edge $-1 $492 -60.319223609118929 $708 60.319223609118929 $484 $711 forward 7 unknown #
coedge $-1 $497 $496 $307 $490 reversed $481 $-1 #
edge $-1 $712 -60.319223609118929 $491 60.319223609118929 $489 $713 forward 7 unknown #
vertex $-1 $309 $714 #
vertex $-1 $503 $715 #
straight-curve $-1 60.319223609118929 0 -11.18347861264574 0 -1 0 I I #
coedge $-1 $483 $485 $310 $495 reversed $303 $-1 #
edge $-1 $498 -24.147570653858409 $501 24.147570653858409 $494 $716 forward 7 unknown #
coedge $-1 $489 $311 $316 $504 forward $481 $-1 #
coedge $-1 $311 $489 $483 $707 reversed $481 $-1 #
vertex $-1 $312 $717 #
straight-curve $-1 0 24.147570653858409 11.18347861264574 -1 0 0 I I #
coedge $-1 $313 $484 $315 $503 reversed $202 $-1 #
vertex $-1 $495 $718 #
straight-curve $-1 0 -24.147570653858409 11.18347861264574 1 0 0 I I #
edge $-1 $318 -11.18347861264574 $492 11.18347861264574 $315 $719 forward 7 unknown #
edge $-1 $319 -11.18347861264574 $491 11.18347861264574 $316 $720 forward 7 unknown #
point $-1 60.319223609118929 -24.147570653858409 11.18347861264574 #
point $-1 60.319223609118929 24.147570653858409 11.18347861264574 #
face $-1 $-1 $336 $49 $-1 $721 reversed single #
loop $-1 $-1 $523 $321 #
plane-surface $-1 0 4.3854751800407046 0 0 -1 0 0 0 -1 forward_v I I I I #
coedge $-1 $722 $521 $524 $723 forward $322 $-1 #
coedge $-1 $527 $324 $325 $515 reversed $210 $-1 #
coedge $-1 $521 $722 $324 $513 reversed $322 $-1 #
edge $-1 $528 -3.1032984186981225 $724 3.1032984186981225 $512 $725 forward 7 unknown #
coedge $-1 $326 $325 $722 $726 forward $133 $-1 #
edge $-1 $519 -60.319223609118929 $724 60.319223609118929 $511 $727 forward 7 unknown #
coedge $-1 $524 $523 $326 $517 reversed $508 $-1 #
edge $-1 $728 -60.319223609118929 $518 60.319223609118929 $516 $729 forward 7 unknown #
vertex $-1 $328 $730 #
vertex $-1 $530 $731 #
straight-curve $-1 60.319223609118929 0 -3.1032984186981225 0 -1 0 I I #
coedge $-1 $510 $512 $329 $522 reversed $322 $-1 #
edge $-1 $525 -4.3854751800407046 $528 4.3854751800407046 $521 $732 forward 7 unknown #
coedge $-1 $516 $330 $335 $531 forward $508 $-1 #
coedge $-1 $330 $516 $510 $723 reversed $508 $-1 #
vertex $-1 $331 $733 #
straight-curve $-1 0 4.3854751800407046 3.1032984186981225 -1 0 0 I I #
coedge $-1 $332 $511 $334 $530 reversed $210 $-1 #
vertex $-1 $522 $734 #
straight-curve $-1 0 -4.3854751800407046 3.1032984186981225 1 0 0 I I #
edge $-1 $337 -3.1032984186981225 $519 3.1032984186981225 $334 $735 forward 7 unknown #
edge $-1 $338 -3.1032984186981225 $518 3.1032984186981225 $335 $736 forward 7 unknown #
point $-1 60.319223609118929 -4.3854751800407046 3.1032984186981225 #
point $-1 60.319223609118929 4.3854751800407046 3.1032984186981225 #
face $-1 $-1 $355 $50 $-1 $737 reversed single #
loop $-1 $-1 $550 $340 #
plane-surface $-1 0 5.9041784013384131 0 0 -1 0 0 0 -1 forward_v I I I I #
coedge $-1 $738 $548 $551 $739 forward $341 $-1 #
coedge $-1 $554 $343 $344 $542 reversed $218 $-1 #
coedge $-1 $548 $738 $343 $540 reversed $341 $-1 #
edge $-1 $555 -1.5 $740 1.5 $539 $741 forward 7 unknown #
coedge $-1 $345 $344 $738 $742 forward $137 $-1 #
edge $-1 $546 -60.319223609118929 $740 60.319223609118929 $538 $743 forward 7 unknown #
coedge $-1 $551 $550 $345 $544 reversed $535 $-1 #
edge $-1 $744 -60.319223609118929 $545 60.319223609118929 $543 $745 forward 7 unknown #
vertex $-1 $347 $746 #
vertex $-1 $557 $747 #
straight-curve $-1 60.319223609118929 0 -1.5 0 -1 0 I I #
coedge $-1 $537 $539 $348 $549 reversed $341 $-1 #
edge $-1 $552 -5.9041784013384131 $555 5.9041784013384131 $548 $748 forward 7 unknown #
coedge $-1 $543 $349 $354 $558 forward $535 $-1 #
coedge $-1 $349 $543 $537 $739 reversed $535 $-1 #
vertex $-1 $350 $749 #
straight-curve $-1 0 5.9041784013384131 1.5 -1 0 0 I I #
coedge $-1 $351 $538 $353 $557 reversed $218 $-1 #
vertex $-1 $549 $750 #
straight-curve $-1 0 -5.9041784013384131 1.5 1 0 0 I I #
edge $-1 $356 -1.5 $546 1.5 $353 $751 forward 7 unknown #
edge $-1 $357 -1.5 $545 1.5 $354 $752 forward 7 unknown #
point $-1 60.319223609118929 -5.9041784013384131 1.5 #
point $-1 60.319223609118929 5.9041784013384131 1.5 #
face $-1 $-1 $374 $51 $-1 $753 reversed single #
loop $-1 $-1 $577 $359 #
plane-surface $-1 0 3.9438574786595506 0 0 -1 0 0 0 -1 forward_v I I I I #
coedge $-1 $754 $575 $578 $755 forward $360 $-1 #
coedge $-1 $581 $362 $363 $569 reversed $226 $-1 #
coedge $-1 $575 $754 $362 $567 reversed $360 $-1 #
edge $-1 $582 -120.63844721823784 $756 120.63844721823784 $566 $757 forward 7 unknown #
coedge $-1 $364 $363 $754 $758 forward $141 $-1 #
edge $-1 $573 -241.27689443647571 $756 241.27689443647571 $565 $759 forward 7 unknown #
coedge $-1 $578 $577 $364 $571 reversed $562 $-1 #
edge $-1 $760 -241.27689443647571 $572 241.27689443647571 $570 $761 forward 7 unknown #
vertex $-1 $366 $762 #
vertex $-1 $584 $763 #
straight-curve $-1 241.27689443647571 0 -120.63844721823784 0 -1 0 I I #
coedge $-1 $564 $566 $367 $576 reversed $360 $-1 #
edge $-1 $579 -3.9438574786595506 $582 3.9438574786595506 $575 $764 forward 7 unknown #
coedge $-1 $570 $368 $373 $585 forward $562 $-1 #
coedge $-1 $368 $570 $564 $755 reversed $562 $-1 #
vertex $-1 $369 $765 #
straight-curve $-1 0 3.9438574786595506 120.63844721823784 -1 0 0 I I #
coedge $-1 $370 $565 $372 $584 reversed $226 $-1 #
vertex $-1 $576 $766 #
straight-curve $-1 0 -3.9438574786595506 120.63844721823784 1 0 0 I I #
edge $-1 $375 -120.63844721823784 $573 120.63844721823784 $372 $767 forward 7 unknown #
edge $-1 $376 -120.63844721823784 $572 120.63844721823784 $373 $768 forward 7 unknown #
point $-1 241.27689443647571 -3.9438574786595506 120.63844721823784 #
point $-1 241.27689443647571 3.9438574786595506 120.63844721823784 #
coedge $-1 $588 $588 $-1 $769 reversed $378 $-1 #
vertex $-1 $380 $770 #
ellipse-curve $-1 0 0 -0.25 0 0 -1 0.5 0 0 1 I I #
point $-1 0.5 0 -1.8687170018616293 #
coedge $-1 $592 $592 $-1 $771 reversed $383 $-1 #
vertex $-1 $385 $772 #
ellipse-curve $-1 0 0 -0.25 0 0 -1 0.5 0 0 1 I I #
point $-1 0.5 0 -1.8687170018616293 #
coedge $-1 $596 $596 $-1 $773 reversed $388 $-1 #
vertex $-1 $390 $774 #
ellipse-curve $-1 0 0 -0.25 0 0 -1 0.5 0 0 1 I I #
point $-1 0.5 0 -1.8687170018616293 #
face $-1 $-1 $408 $55 $-1 $775 reversed single #
loop $-1 $-1 $616 $393 #
plane-surface $-1 0 2.9077280738713807 0 0 -1 0 0 0 -1 forward_v I I I I #
coedge $-1 $776 $614 $617 $777 forward $394 $-1 #
coedge $-1 $620 $396 $397 $608 reversed $249 $-1 #
coedge $-1 $614 $776 $396 $606 reversed $394 $-1 #
edge $-1 $621 -120.63844721823786 $778 120.63844721823786 $605 $779 forward 7 unknown #
coedge $-1 $398 $397 $776 $780 forward $160 $-1 #
edge $-1 $612 -241.27689443647571 $778 241.27689443647571 $604 $781 forward 7 unknown #
coedge $-1 $617 $616 $398 $610 reversed $601 $-1 #
edge $-1 $782 -241.27689443647571 $611 241.27689443647571 $609 $783 forward 7 unknown #
vertex $-1 $400 $784 #
vertex $-1 $623 $785 #
straight-curve $-1 241.27689443647571 0 -120.63844721823786 0 -1 0 I I #
coedge $-1 $603 $605 $401 $615 reversed $394 $-1 #
edge $-1 $618 -2.9077280738713807 $621 2.9077280738713807 $614 $786 forward 7 unknown #
coedge $-1 $609 $402 $407 $624 forward $601 $-1 #
coedge $-1 $402 $609 $603 $777 reversed $601 $-1 #
vertex $-1 $403 $787 #
straight-curve $-1 0 2.9077280738713807 120.63844721823786 -1 0 0 I I #
coedge $-1 $404 $604 $406 $623 reversed $249 $-1 #
vertex $-1 $615 $788 #
straight-curve $-1 0 -2.9077280738713807 120.63844721823786 1 0 0 I I #
edge $-1 $409 -120.63844721823786 $612 120.63844721823786 $406 $789 forward 7 unknown #
edge $-1 $410 -120.63844721823786 $611 120.63844721823786 $407 $790 forward 7 unknown #
point $-1 241.27689443647571 -2.9077280738713807 120.63844721823786 #
point $-1 241.27689443647571 2.9077280738713807 120.63844721823786 #
coedge $-1 $627 $627 $-1 $791 reversed $412 $-1 #
vertex $-1 $414 $792 #
ellipse-curve $-1 0 0 -0.25 0 0 -1 0.5 0 0 1 I I #
point $-1 0.5 0 -1.25 #
coedge $-1 $631 $631 $-1 $793 reversed $417 $-1 #
vertex $-1 $419 $794 #
ellipse-curve $-1 0 0 -0.25 0 0 -1 0.5 0 0 1 I I #
point $-1 0.5 0 -1.25 #
face $-1 $-1 $437 $58 $-1 $795 reversed single #
loop $-1 $-1 $651 $422 #
plane-surface $-1 0 2.9077280738713807 0 0 -1 0 0 0 -1 forward_v I I I I #
coedge $-1 $796 $649 $652 $797 forward $423 $-1 #
coedge $-1 $655 $425 $426 $643 reversed $267 $-1 #
coedge $-1 $649 $796 $425 $641 reversed $423 $-1 #
edge $-1 $656 -120.63844721823786 $798 120.63844721823786 $640 $799 forward 7 unknown #
coedge $-1 $427 $426 $796 $800 forward $174 $-1 #
edge $-1 $647 -241.27689443647571 $798 241.27689443647571 $639 $801 forward 7 unknown #
coedge $-1 $652 $651 $427 $645 reversed $636 $-1 #
edge $-1 $802 -241.27689443647571 $646 241.27689443647571 $644 $803 forward 7 unknown #
vertex $-1 $429 $804 #
vertex $-1 $658 $805 #
straight-curve $-1 241.27689443647571 0 -120.63844721823786 0 -1 0 I I #
coedge $-1 $638 $640 $430 $650 reversed $423 $-1 #
edge $-1 $653 -2.9077280738713807 $656 2.9077280738713807 $649 $806 forward 7 unknown #
coedge $-1 $644 $431 $436 $659 forward $636 $-1 #
coedge $-1 $431 $644 $638 $797 reversed $636 $-1 #
vertex $-1 $432 $807 #
straight-curve $-1 0 2.9077280738713807 120.63844721823786 -1 0 0 I I #
coedge $-1 $433 $639 $435 $658 reversed $267 $-1 #
vertex $-1 $650 $808 #
straight-curve $-1 0 -2.9077280738713807 120.63844721823786 1 0 0 I I #
edge $-1 $438 -120.63844721823786 $647 120.63844721823786 $435 $809 forward 7 unknown #
edge $-1 $439 -120.63844721823786 $646 120.63844721823786 $436 $810 forward 7 unknown #
point $-1 241.27689443647571 -2.9077280738713807 120.63844721823786 #
point $-1 241.27689443647571 2.9077280738713807 120.63844721823786 #
coedge $-1 $662 $662 $-1 $811 reversed $441 $-1 #
vertex $-1 $443 $812 #
ellipse-curve $-1 0 0 -0.25 0 0 -1 0.5 0 0 1 I I #
point $-1 0.5 0 -1.25 #
coedge $-1 $666 $666 $-1 $813 reversed $446 $-1 #
vertex $-1 $448 $814 #
ellipse-curve $-1 0 0 -0.25 0 0 -1 0.5 0 0 1 I I #
point $-1 0.5 0 -1.25 #
face $-1 $-1 $466 $61 $-1 $815 reversed single #
loop $-1 $-1 $686 $451 #
plane-surface $-1 0 2.9077280738713807 0 0 -1 0 0 0 -1 forward_v I I I I #
coedge $-1 $816 $684 $687 $817 forward $452 $-1 #
coedge $-1 $690 $454 $455 $678 reversed $285 $-1 #
coedge $-1 $684 $816 $454 $676 reversed $452 $-1 #
edge $-1 $691 -120.63844721823786 $818 120.63844721823786 $675 $819 forward 7 unknown #
coedge $-1 $456 $455 $816 $820 forward $188 $-1 #
edge $-1 $682 -241.27689443647571 $818 241.27689443647571 $674 $821 forward 7 unknown #
coedge $-1 $687 $686 $456 $680 reversed $671 $-1 #
edge $-1 $822 -241.27689443647571 $681 241.27689443647571 $679 $823 forward 7 unknown #
vertex $-1 $458 $824 #
vertex $-1 $693 $825 #
straight-curve $-1 241.27689443647571 0 -120.63844721823786 0 -1 0 I I #
coedge $-1 $673 $675 $459 $685 reversed $452 $-1 #
edge $-1 $688 -2.9077280738713807 $691 2.9077280738713807 $684 $826 forward 7 unknown #
coedge $-1 $679 $460 $465 $694 forward $671 $-1 #
coedge $-1 $460 $679 $673 $817 reversed $671 $-1 #
vertex $-1 $461 $827 #
straight-curve $-1 0 2.9077280738713807 120.63844721823786 -1 0 0 I I #
coedge $-1 $462 $674 $464 $693 reversed $285 $-1 #
vertex $-1 $685 $828 #
straight-curve $-1 0 -2.9077280738713807 120.63844721823786 1 0 0 I I #
edge $-1 $467 -120.63844721823786 $682 120.63844721823786 $464 $829 forward 7 unknown #
edge $-1 $468 -120.63844721823786 $681 120.63844721823786 $465 $830 forward 7 unknown #
point $-1 241.27689443647571 -2.9077280738713807 120.63844721823786 #
point $-1 241.27689443647571 2.9077280738713807 120.63844721823786 #
coedge $-1 $697 $697 $-1 $831 reversed $470 $-1 #
vertex $-1 $472 $832 #
ellipse-curve $-1 0 0 -0.25 0 0 -1 0.5 0 0 1 I I #
point $-1 0.5 0 -1.25 #
coedge $-1 $701 $701 $-1 $833 reversed $475 $-1 #
vertex $-1 $477 $834 #
ellipse-curve $-1 0 0 -0.25 0 0 -1 0.5 0 0 1 I I #
point $-1 0.5 0 -1.25 #
plane-surface $-1 60.319223609118929 0 0 -1 0 0 0 0 1 forward_v I I I I #
coedge $-1 $485 $483 $487 $710 reversed $303 $-1 #
edge $-1 $498 -11.18347861264574 $712 11.18347861264574 $497 $835 forward 7 unknown #
vertex $-1 $710 $836 #
straight-curve $-1 -60.319223609118929 -24.147570653858409 0 0 0 -1 I I #
edge $-1 $708 -24.147570653858409 $712 24.147570653858409 $706 $837 forward 7 unknown #
straight-curve $-1 0 -24.147570653858409 -11.18347861264574 -1 0 0 I I #
vertex $-1 $490 $838 #
straight-curve $-1 0 24.147570653858409 -11.18347861264574 1 0 0 I I #
point $-1 60.319223609118929 24.147570653858409 -11.18347861264574 #
point $-1 60.319223609118929 -24.147570653858409 -11.18347861264574 #
straight-curve $-1 -60.319223609118929 0 11.18347861264574 0 -1 0 I I #
point $-1 -60.319223609118929 24.147570653858409 11.18347861264574 #
point $-1 -60.319223609118929 -24.147570653858409 11.18347861264574 #
straight-curve $-1 60.319223609118929 -24.147570653858409 0 0 0 -1 I I #
straight-curve $-1 60.319223609118929 24.147570653858409 0 0 0 -1 I I #
plane-surface $-1 60.319223609118929 0 0 -1 0 0 0 0 1 forward_v I I I I #
coedge $-1 $512 $510 $514 $726 reversed $322 $-1 #
edge $-1 $525 -3.1032984186981225 $728 3.1032984186981225 $524 $839 forward 7 unknown #
vertex $-1 $726 $840 #
straight-curve $-1 -60.319223609118929 -4.3854751800407046 0 0 0 -1 I I #
edge $-1 $724 -4.3854751800407046 $728 4.3854751800407046 $722 $841 forward 7 unknown #
straight-curve $-1 0 -4.3854751800407046 -3.1032984186981225 -1 0 0 I I #
vertex $-1 $517 $842 #
straight-curve $-1 0 4.3854751800407046 -3.1032984186981225 1 0 0 I I #
point $-1 60.319223609118929 4.3854751800407046 -3.1032984186981225 #
point $-1 60.319223609118929 -4.3854751800407046 -3.1032984186981225 #
straight-curve $-1 -60.319223609118929 0 3.1032984186981225 0 -1 0 I I #
point $-1 -60.319223609118929 4.3854751800407046 3.1032984186981225 #
point $-1 -60.319223609118929 -4.3854751800407046 3.1032984186981225 #
straight-curve $-1 60.319223609118929 -4.3854751800407046 0 0 0 -1 I I #
straight-curve $-1 60.319223609118929 4.3854751800407046 0 0 0 -1 I I #
plane-surface $-1 60.319223609118929 0 0 -1 0 0 0 0 1 forward_v I I I I #
coedge $-1 $539 $537 $541 $742 reversed $341 $-1 #
edge $-1 $552 -1.5 $744 1.5 $551 $843 forward 7 unknown #
vertex $-1 $742 $844 #
straight-curve $-1 -60.319223609118929 -5.9041784013384131 0 0 0 -1 I I #
edge $-1 $740 -5.9041784013384131 $744 5.9041784013384131 $738 $845 forward 7 unknown #
straight-curve $-1 0 -5.9041784013384131 -1.5 -1 0 0 I I #
vertex $-1 $544 $846 #
straight-curve $-1 0 5.9041784013384131 -1.5 1 0 0 I I #
point $-1 60.319223609118929 5.9041784013384131 -1.5 #
point $-1 60.319223609118929 -5.9041784013384131 -1.5 #
straight-curve $-1 -60.319223609118929 0 1.5 0 -1 0 I I #
point $-1 -60.319223609118929 5.9041784013384131 1.5 #
point $-1 -60.319223609118929 -5.9041784013384131 1.5 #
straight-curve $-1 60.319223609118929 -5.9041784013384131 0 0 0 -1 I I #
straight-curve $-1 60.319223609118929 5.9041784013384131 0 0 0 -1 I I #
plane-surface $-1 241.27689443647571 0 0 -1 0 0 0 0 1 forward_v I I I I #
coedge $-1 $566 $564 $568 $758 reversed $360 $-1 #
edge $-1 $579 -120.63844721823784 $760 120.63844721823784 $578 $847 forward 7 unknown #
vertex $-1 $758 $848 #
straight-curve $-1 -241.27689443647571 -3.9438574786595506 0 0 0 -1 I I #
edge $-1 $756 -3.9438574786595506 $760 3.9438574786595506 $754 $849 forward 7 unknown #
straight-curve $-1 0 -3.9438574786595506 -120.63844721823784 -1 0 0 I I #
vertex $-1 $571 $850 #
straight-curve $-1 0 3.9438574786595506 -120.63844721823784 1 0 0 I I #
point $-1 241.27689443647571 3.9438574786595506 -120.63844721823784 #
point $-1 241.27689443647571 -3.9438574786595506 -120.63844721823784 #
straight-curve $-1 -241.27689443647571 0 120.63844721823784 0 -1 0 I I #
point $-1 -241.27689443647571 3.9438574786595506 120.63844721823784 #
point $-1 -241.27689443647571 -3.9438574786595506 120.63844721823784 #
straight-curve $-1 241.27689443647571 -3.9438574786595506 0 0 0 -1 I I #
straight-curve $-1 241.27689443647571 3.9438574786595506 0 0 0 -1 I I #
edge $-1 $851 1 $851 0 $588 $-1 forward 7 unknown #
point $-1 0.5 0 -0.25 #
edge $-1 $852 1 $852 0 $592 $-1 forward 7 unknown #
point $-1 0.5 0 -0.25 #
edge $-1 $853 1 $853 0 $596 $-1 forward 7 unknown #
point $-1 0.5 0 -0.25 #
plane-surface $-1 241.27689443647571 0 0 -1 0 0 0 0 1 forward_v I I I I #
coedge $-1 $605 $603 $607 $780 reversed $394 $-1 #
edge $-1 $618 -120.63844721823786 $782 120.63844721823786 $617 $854 forward 7 unknown #
vertex $-1 $780 $855 #
straight-curve $-1 -241.27689443647571 -2.9077280738713807 0 0 0 -1 I I #
edge $-1 $778 -2.9077280738713807 $782 2.9077280738713807 $776 $856 forward 7 unknown #
straight-curve $-1 0 -2.9077280738713807 -120.63844721823786 -1 0 0 I I #
vertex $-1 $610 $857 #
straight-curve $-1 0 2.9077280738713807 -120.63844721823786 1 0 0 I I #
point $-1 241.27689443647571 2.9077280738713807 -120.63844721823786 #
point $-1 241.27689443647571 -2.9077280738713807 -120.63844721823786 #
straight-curve $-1 -241.27689443647571 0 120.63844721823786 0 -1 0 I I #
point $-1 -241.27689443647571 2.9077280738713807 120.63844721823786 #
point $-1 -241.27689443647571 -2.9077280738713807 120.63844721823786 #
straight-curve $-1 241.27689443647571 -2.9077280738713807 0 0 0 -1 I I #
straight-curve $-1 241.27689443647571 2.9077280738713807 0 0 0 -1 I I #
edge $-1 $858 1 $858 0 $627 $-1 forward 7 unknown #
point $-1 0.5 0 -0.25 #
edge $-1 $859 1 $859 0 $631 $-1 forward 7 unknown #
point $-1 0.5 0 -0.25 #
plane-surface $-1 241.27689443647571 0 0 -1 0 0 0 0 1 forward_v I I I I #
coedge $-1 $640 $638 $642 $800 reversed $423 $-1 #
edge $-1 $653 -120.63844721823786 $802 120.63844721823786 $652 $860 forward 7 unknown #
vertex $-1 $800 $861 #
straight-curve $-1 -241.27689443647571 -2.9077280738713807 0 0 0 -1 I I #
edge $-1 $798 -2.9077280738713807 $802 2.9077280738713807 $796 $862 forward 7 unknown #
straight-curve $-1 0 -2.9077280738713807 -120.63844721823786 -1 0 0 I I #
vertex $-1 $645 $863 #
straight-curve $-1 0 2.9077280738713807 -120.63844721823786 1 0 0 I I #
point $-1 241.27689443647571 2.9077280738713807 -120.63844721823786 #
point $-1 241.27689443647571 -2.9077280738713807 -120.63844721823786 #
straight-curve $-1 -241.27689443647571 0 120.63844721823786 0 -1 0 I I #
point $-1 -241.27689443647571 2.9077280738713807 120.63844721823786 #
point $-1 -241.27689443647571 -2.9077280738713807 120.63844721823786 #
straight-curve $-1 241.27689443647571 -2.9077280738713807 0 0 0 -1 I I #
straight-curve $-1 241.27689443647571 2.9077280738713807 0 0 0 -1 I I #
edge $-1 $864 1 $864 0 $662 $-1 forward 7 unknown #
point $-1 0.5 0 -0.25 #
edge $-1 $865 1 $865 0 $666 $-1 forward 7 unknown #
point $-1 0.5 0 -0.25 #
plane-surface $-1 241.27689443647571 0 0 -1 0 0 0 0 1 forward_v I I I I #
coedge $-1 $675 $673 $677 $820 reversed $452 $-1 #
edge $-1 $688 -120.63844721823786 $822 120.63844721823786 $687 $866 forward 7 unknown #
vertex $-1 $820 $867 #
straight-curve $-1 -241.27689443647571 -2.9077280738713807 0 0 0 -1 I I #
edge $-1 $818 -2.9077280738713807 $822 2.9077280738713807 $816 $868 forward 7 unknown #
straight-curve $-1 0 -2.9077280738713807 -120.63844721823786 -1 0 0 I I #
vertex $-1 $680 $869 #
straight-curve $-1 0 2.9077280738713807 -120.63844721823786 1 0 0 I I #
point $-1 241.27689443647571 2.9077280738713807 -120.63844721823786 #
point $-1 241.27689443647571 -2.9077280738713807 -120.63844721823786 #
straight-curve $-1 -241.27689443647571 0 120.63844721823786 0 -1 0 I I #
point $-1 -241.27689443647571 2.9077280738713807 120.63844721823786 #
point $-1 -241.27689443647571 -2.9077280738713807 120.63844721823786 #
straight-curve $-1 241.27689443647571 -2.9077280738713807 0 0 0 -1 I I #
straight-curve $-1 241.27689443647571 2.9077280738713807 0 0 0 -1 I I #
edge $-1 $870 1 $870 0 $697 $-1 forward 7 unknown #
point $-1 0.5 0 -0.25 #
edge $-1 $871 1 $871 0 $701 $-1 forward 7 unknown #
point $-1 0.5 0 -0.25 #
straight-curve $-1 -60.319223609118929 24.147570653858409 0 0 0 -1 I I #
point $-1 -60.319223609118929 -24.147570653858409 -11.18347861264574 #
straight-curve $-1 -60.319223609118929 0 -11.18347861264574 0 1 0 I I #
point $-1 -60.319223609118929 24.147570653858409 -11.18347861264574 #
straight-curve $-1 -60.319223609118929 4.3854751800407046 0 0 0 -1 I I #
point $-1 -60.319223609118929 -4.3854751800407046 -3.1032984186981225 #
straight-curve $-1 -60.319223609118929 0 -3.1032984186981225 0 1 0 I I #
point $-1 -60.319223609118929 4.3854751800407046 -3.1032984186981225 #
straight-curve $-1 -60.319223609118929 5.9041784013384131 0 0 0 -1 I I #
point $-1 -60.319223609118929 -5.9041784013384131 -1.5 #
straight-curve $-1 -60.319223609118929 0 -1.5 0 1 0 I I #
point $-1 -60.319223609118929 5.9041784013384131 -1.5 #
straight-curve $-1 -241.27689443647571 3.9438574786595506 0 0 0 -1 I I #
point $-1 -241.27689443647571 -3.9438574786595506 -120.63844721823784 #
straight-curve $-1 -241.27689443647571 0 -120.63844721823784 0 1 0 I I #
point $-1 -241.27689443647571 3.9438574786595506 -120.63844721823784 #
vertex $-1 $769 $872 #
vertex $-1 $771 $873 #
vertex $-1 $773 $874 #
straight-curve $-1 -241.27689443647571 2.9077280738713807 0 0 0 -1 I I #
point $-1 -241.27689443647571 -2.9077280738713807 -120.63844721823786 #
straight-curve $-1 -241.27689443647571 0 -120.63844721823786 0 1 0 I I #
point $-1 -241.27689443647571 2.9077280738713807 -120.63844721823786 #
vertex $-1 $791 $875 #
vertex $-1 $793 $876 #
straight-curve $-1 -241.27689443647571 2.9077280738713807 0 0 0 -1 I I #
point $-1 -241.27689443647571 -2.9077280738713807 -120.63844721823786 #
straight-curve $-1 -241.27689443647571 0 -120.63844721823786 0 1 0 I I #
point $-1 -241.27689443647571 2.9077280738713807 -120.63844721823786 #
vertex $-1 $811 $877 #
vertex $-1 $813 $878 #
straight-curve $-1 -241.27689443647571 2.9077280738713807 0 0 0 -1 I I #
point $-1 -241.27689443647571 -2.9077280738713807 -120.63844721823786 #
straight-curve $-1 -241.27689443647571 0 -120.63844721823786 0 1 0 I I #
point $-1 -241.27689443647571 2.9077280738713807 -120.63844721823786 #
vertex $-1 $831 $879 #
vertex $-1 $833 $880 #
point $-1 0 0 0.25 #
point $-1 0 0 0.25 #
point $-1 0 0 0.25 #
point $-1 0 0 0.25 #
point $-1 0 0 0.25 #
point $-1 0 0 0.25 #
point $-1 0 0 0.25 #
point $-1 0 0 0.25 #
point $-1 0 0 0.25 #
End-of-ACIS-data 