500 0 8 0           
7 Unknown 11 ACIS 5.0 NT 24 Thu Mar 25 15:57:29 1999 
-1 9.9999999999999995e-007 1e-010 
body $-1 $8 $-1 $9 #
body $-1 $10 $-1 $11 #
body $-1 $12 $-1 $13 #
body $-1 $14 $-1 $15 #
body $-1 $16 $-1 $17 #
body $-1 $18 $-1 $19 #
body $-1 $20 $-1 $21 #
body $-1 $22 $-1 $23 #
lump $-1 $-1 $24 $0 #
transform $-1 1 0 0 0 1 0 0 0 1 78.784142582476278 50.361549537767623 14.010461046828466 1 rotate no_reflect no_shear #
lump $-1 $-1 $25 $1 #
transform $-1 1 0 0 0 1 0 0 0 1 78.784142582476278 50.361549537767623 14.010461046828466 1 rotate no_reflect no_shear #
lump $-1 $-1 $26 $2 #
transform $-1 1 0 0 0 1 0 0 0 1 78.784142582476278 50.361549537767623 14.010461046828466 1 rotate no_reflect no_shear #
lump $-1 $-1 $27 $3 #
transform $-1 1 0 0 0 1 0 0 0 1 78.784142582476278 50.361549537767623 14.010461046828466 1 rotate no_reflect no_shear #
lump $-1 $-1 $28 $4 #
transform $-1 1 0 0 0 1 0 0 0 1 78.784142582476278 50.361549537767623 14.010461046828466 1 rotate no_reflect no_shear #
lump $-1 $-1 $29 $5 #
transform $-1 1 0 0 0 1 0 0 0 1 78.784142582476278 50.361549537767623 14.010461046828466 1 rotate no_reflect no_shear #
lump $-1 $-1 $30 $6 #
transform $-1 1 0 0 0 1 0 0 0 1 78.784142582476278 50.361549537767623 14.010461046828466 1 rotate no_reflect no_shear #
lump $-1 $-1 $31 $7 #
transform $-1 1 0 0 0 1 0 0 0 1 78.784142582476278 50.361549537767623 14.010461046828466 1 rotate no_reflect no_shear #
shell $-1 $-1 $-1 $32 $-1 $8 #
shell $-1 $-1 $-1 $33 $-1 $10 #
shell $-1 $-1 $-1 $34 $-1 $12 #
shell $-1 $-1 $-1 $35 $-1 $14 #
shell $-1 $-1 $-1 $36 $-1 $16 #
shell $-1 $-1 $-1 $37 $-1 $18 #
shell $-1 $-1 $-1 $38 $-1 $20 #
shell $-1 $-1 $-1 $39 $-1 $22 #
face $-1 $40 $41 $24 $-1 $42 forward single #
face $-1 $43 $44 $25 $-1 $45 reversed single #
face $-1 $46 $47 $26 $-1 $48 reversed single #
face $-1 $49 $50 $27 $-1 $51 forward single #
face $-1 $52 $53 $28 $-1 $54 forward single #
face $-1 $55 $56 $29 $-1 $57 forward single #
face $-1 $58 $59 $30 $-1 $60 reversed single #
face $-1 $61 $62 $31 $-1 $63 forward single #
face $-1 $64 $65 $24 $-1 $66 reversed single #
loop $-1 $-1 $67 $32 #
plane-surface $-1 0 0 14.010461046828466 0 0 1 1 0 0 forward_v I I I I #
face $-1 $68 $69 $25 $-1 $70 reversed single #
loop $-1 $-1 $71 $33 #
plane-surface $-1 -74.005653378635074 -44.138013547914632 0 1 0 0 0 0 -1 forward_v I I I I #
face $-1 $72 $73 $26 $-1 $74 reversed single #
loop $-1 $-1 $75 $34 #
plane-surface $-1 140.20585288317997 46.360836044973738 221.7580849326599 0 -1 0 -0.87461971476443456 0 -0.48480960649040278 forward_v I I I I #
face $-1 $76 $77 $27 $-1 $78 forward single #
loop $-1 $79 $80 $35 #
cone-surface $-1 75.320732605064279 28.046665318405921 9.8547265319511403 -0.87461971476443456 0 -0.48480960649040278 0.48480960649040278 0 -0.87461971476443456 1 I I 0 1 1 forward I I I I #
face $-1 $81 $82 $28 $-1 $83 forward single #
loop $-1 $84 $85 $36 #
cone-surface $-1 75.320732605064279 34.914479340868844 9.8547265319511403 -0.87461971476443456 0 -0.48480960649040278 0.48480960649040278 0 -0.87461971476443456 1 I I 0 1 1 forward I I I I #
face $-1 $86 $87 $29 $-1 $88 forward single #
loop $-1 $89 $90 $37 #
cone-surface $-1 75.320732605064279 41.782293363331767 9.8547265319511403 -0.87461971476443456 0 -0.48480960649040278 0.48480960649040278 0 -0.87461971476443456 1 I I 0 1 1 forward I I I I #
face $-1 $91 $92 $30 $-1 $93 reversed single #
loop $-1 $-1 $94 $38 #
plane-surface $-1 -78.784142582476235 -30.556615336839865 4.8464577067905736 -0.77714596973225614 0 0.62932038083071107 0.62932038083071107 0 0.77714596973225614 forward_v I I I I #
face $-1 $95 $96 $31 $-1 $97 forward single #
loop $-1 $98 $99 $39 #
cone-surface $-1 -73.086470828596276 -30.556615336839865 7.8192241484018599 0.77714596973225614 0 -0.62932038083071107 0.9439805712460666 0 1.1657189545983841 1 I I 0 1 1.5 forward I I I I #
face $-1 $100 $101 $24 $-1 $102 reversed single #
loop $-1 $-1 $103 $40 #
plane-surface $-1 0 0 -14.010461046828466 0 0 1 1 0 0 forward_v I I I I #
coedge $-1 $104 $105 $106 $107 forward $41 $-1 #
face $-1 $108 $109 $25 $-1 $110 reversed single #
loop $-1 $-1 $111 $43 #
plane-surface $-1 -70.065732320375218 -37.914477558061641 0 0 -1 0 0 0 -1 forward_v I I I I #
coedge $-1 $112 $113 $114 $115 forward $44 $-1 #
face $-1 $116 $117 $26 $-1 $118 reversed single #
loop $-1 $-1 $119 $46 #
plane-surface $-1 2.3935242562880887 34.914479340868859 145.36746660647168 0.87461971476443456 0 0.48480960649040278 0.48480960649040278 0 -0.87461971476443456 forward_v I I I I #
coedge $-1 $120 $121 $122 $123 reversed $47 $-1 #
face $-1 $-1 $124 $27 $-1 $125 forward single #
loop $-1 $126 $127 $49 #
cone-surface $-1 73.209134707021832 28.046665318405921 8.6842487474529424 -0.87461971476443456 0 -0.48480960649040278 0.24240480324520139 0 -0.43730985738221728 1 I I -0.70710678118654879 0.70710678118654635 0.5 forward I I I I #
loop $-1 $-1 $128 $35 #
coedge $-1 $80 $80 $129 $130 reversed $50 $-1 #
face $-1 $-1 $131 $28 $-1 $132 forward single #
loop $-1 $133 $134 $52 #
cone-surface $-1 73.209134707021832 34.914479340868844 8.6842487474529424 -0.87461971476443456 0 -0.48480960649040278 0.24240480324520139 0 -0.43730985738221728 1 I I -0.70710678118654879 0.70710678118654635 0.5 forward I I I I #
loop $-1 $-1 $135 $36 #
coedge $-1 $85 $85 $136 $137 reversed $53 $-1 #
face $-1 $-1 $138 $29 $-1 $139 forward single #
loop $-1 $140 $141 $55 #
cone-surface $-1 73.209134707021832 41.782293363331767 8.6842487474529424 -0.87461971476443456 0 -0.48480960649040278 0.24240480324520139 0 -0.43730985738221728 1 I I -0.70710678118654879 0.70710678118654635 0.5 forward I I I I #
loop $-1 $-1 $142 $37 #
coedge $-1 $90 $90 $143 $144 reversed $56 $-1 #
face $-1 $145 $146 $30 $-1 $147 forward single #
loop $-1 $-1 $148 $58 #
plane-surface $-1 -201.23770035604196 -23.198753115618086 104.00739093364059 0 -1 0 0.77714596973225614 0 -0.62932038083071107 forward_v I I I I #
coedge $-1 $149 $150 $151 $152 reversed $59 $-1 #
face $-1 $-1 $153 $31 $-1 $154 forward single #
loop $-1 $155 $156 $61 #
cone-surface $-1 -70.516371290110186 -30.556615336839865 5.7379986343711575 0.77714596973225614 0 -0.62932038083071107 0.4719902856230333 0 0.58285947729919207 1 I I -0.70710678118654757 0.70710678118654757 0.75 forward I I I I #
loop $-1 $-1 $157 $39 #
coedge $-1 $99 $99 $158 $159 reversed $62 $-1 #
face $-1 $160 $161 $24 $-1 $162 reversed single #
loop $-1 $-1 $163 $64 #
plane-surface $-1 0 -50.361549537767623 0 0 1 0 0 0 1 forward_v I I I I #
coedge $-1 $164 $165 $166 $167 forward $65 $-1 #
coedge $-1 $168 $67 $169 $170 forward $41 $-1 #
coedge $-1 $67 $168 $171 $172 forward $41 $-1 #
coedge $-1 $173 $174 $67 $107 reversed $175 $-1 #
edge $-1 $176 -50.361549537767623 $177 50.361549537767623 $106 $178 forward 7 unknown #
face $-1 $179 $180 $25 $-1 $181 forward single #
loop $-1 $-1 $182 $68 #
plane-surface $-1 -66.125811262115363 -44.138013547914632 0 -1 0 0 0 0 1 forward_v I I I I #
coedge $-1 $183 $184 $185 $186 forward $69 $-1 #
coedge $-1 $187 $71 $188 $189 reversed $44 $-1 #
coedge $-1 $71 $187 $190 $191 reversed $44 $-1 #
coedge $-1 $184 $183 $71 $115 reversed $69 $-1 #
edge $-1 $192 -14.010461046828466 $193 14.010461046828466 $114 $194 forward 7 unknown #
face $-1 $195 $196 $26 $-1 $197 reversed single #
loop $-1 $-1 $198 $72 #
plane-surface $-1 140.20585288317997 23.468122636763979 221.7580849326599 0 1 0 0.87461971476443456 0 0.48480960649040278 forward_v I I I I #
coedge $-1 $199 $200 $201 $202 reversed $73 $-1 #
coedge $-1 $121 $75 $203 $204 reversed $47 $-1 #
coedge $-1 $75 $120 $199 $205 reversed $47 $-1 #
coedge $-1 $201 $206 $75 $123 forward $207 $-1 #
edge $-1 $208 -8.681216140886292 $209 -5.102972267382782 $122 $210 forward 7 unknown #
loop $-1 $-1 $129 $76 #
plane-surface $-1 2.3935242562880887 34.914479340868859 145.36746660647168 0.87461971476443456 0 0.48480960649040278 0.48480960649040278 0 -0.87461971476443456 forward_v I I I I #
loop $-1 $-1 $211 $49 #
coedge $-1 $127 $127 $128 $212 reversed $77 $-1 #
coedge $-1 $128 $128 $127 $212 forward $79 $-1 #
coedge $-1 $129 $129 $80 $130 forward $124 $-1 #
edge $-1 $213 0 $213 6.2831853071796004 $129 $214 forward 7 unknown #
loop $-1 $-1 $136 $81 #
plane-surface $-1 2.3935242562880887 34.914479340868859 145.36746660647168 0.87461971476443456 0 0.48480960649040278 0.48480960649040278 0 -0.87461971476443456 forward_v I I I I #
loop $-1 $-1 $215 $52 #
coedge $-1 $134 $134 $135 $216 reversed $82 $-1 #
coedge $-1 $135 $135 $134 $216 forward $84 $-1 #
coedge $-1 $136 $136 $85 $137 forward $131 $-1 #
edge $-1 $217 0 $217 6.2831853071796004 $136 $218 forward 7 unknown #
loop $-1 $-1 $143 $86 #
plane-surface $-1 2.3935242562880887 34.914479340868859 145.36746660647168 0.87461971476443456 0 0.48480960649040278 0.48480960649040278 0 -0.87461971476443456 forward_v I I I I #
loop $-1 $-1 $219 $55 #
coedge $-1 $141 $141 $142 $220 reversed $87 $-1 #
coedge $-1 $142 $142 $141 $220 forward $89 $-1 #
coedge $-1 $143 $143 $90 $144 forward $138 $-1 #
edge $-1 $221 0 $221 6.2831853071796004 $143 $222 forward 7 unknown #
face $-1 $223 $224 $30 $-1 $225 forward single #
loop $-1 $-1 $226 $91 #
plane-surface $-1 -70.065732320375218 -37.914477558061641 0 0 -1 0 0 0 -1 forward_v I I I I #
coedge $-1 $227 $228 $229 $230 reversed $92 $-1 #
coedge $-1 $231 $94 $226 $232 reversed $59 $-1 #
coedge $-1 $94 $231 $227 $233 forward $59 $-1 #
coedge $-1 $229 $234 $94 $152 forward $224 $-1 #
edge $-1 $235 -22.636169889641714 $236 -7.9204454471981531 $151 $237 forward 7 unknown #
loop $-1 $-1 $158 $95 #
plane-surface $-1 -78.784142582476235 -30.556615336839865 4.8464577067905736 -0.77714596973225614 0 0.62932038083071107 0.62932038083071107 0 0.77714596973225614 forward_v I I I I #
loop $-1 $-1 $238 $61 #
coedge $-1 $156 $156 $157 $239 reversed $96 $-1 #
coedge $-1 $157 $157 $156 $239 forward $98 $-1 #
coedge $-1 $158 $158 $99 $159 forward $153 $-1 #
edge $-1 $240 0 $240 6.2831853071796004 $158 $241 forward 7 unknown #
face $-1 $242 $243 $24 $-1 $244 reversed single #
loop $-1 $-1 $245 $100 #
plane-surface $-1 -78.784142582476278 0 0 1 0 0 0 0 -1 forward_v I I I I #
coedge $-1 $246 $171 $247 $248 forward $101 $-1 #
coedge $-1 $249 $103 $246 $250 forward $65 $-1 #
coedge $-1 $103 $249 $251 $252 forward $65 $-1 #
coedge $-1 $174 $173 $103 $167 reversed $175 $-1 #
edge $-1 $253 -50.361549537767623 $254 50.361549537767623 $166 $255 forward 7 unknown #
coedge $-1 $105 $104 $256 $257 forward $41 $-1 #
coedge $-1 $258 $259 $104 $170 reversed $243 $-1 #
edge $-1 $177 -78.784142582476278 $260 78.784142582476278 $169 $261 forward 7 unknown #
coedge $-1 $163 $262 $105 $172 reversed $101 $-1 #
edge $-1 $263 -78.784142582476278 $176 78.784142582476278 $171 $264 forward 7 unknown #
coedge $-1 $166 $106 $262 $265 forward $175 $-1 #
coedge $-1 $106 $166 $258 $266 reversed $175 $-1 #
loop $-1 $-1 $173 $242 #
vertex $-1 $107 $267 #
vertex $-1 $107 $268 #
straight-curve $-1 78.784142582476278 0 14.010461046828466 0 1 0 I I #
face $-1 $269 $270 $25 $-1 $271 reversed single #
loop $-1 $-1 $272 $108 #
plane-surface $-1 0 0 14.010461046828466 0 0 1 1 0 0 forward_v I I I I #
coedge $-1 $273 $274 $275 $276 reversed $109 $-1 #
coedge $-1 $114 $111 $277 $278 reversed $69 $-1 #
coedge $-1 $111 $114 $279 $280 reversed $69 $-1 #
coedge $-1 $274 $273 $111 $186 reversed $109 $-1 #
edge $-1 $281 -14.010461046828466 $282 14.010461046828466 $185 $283 forward 7 unknown #
coedge $-1 $113 $112 $284 $285 reversed $44 $-1 #
coedge $-1 $277 $286 $112 $189 forward $270 $-1 #
edge $-1 $287 -28.292542763810307 $193 -15.845470784104325 $188 $288 forward 7 unknown #
coedge $-1 $289 $279 $113 $191 forward $180 $-1 #
edge $-1 $192 15.845470784104325 $290 28.292542763810307 $190 $291 forward 7 unknown #
vertex $-1 $191 $292 #
vertex $-1 $189 $293 #
straight-curve $-1 -74.005653378635074 -37.914477558061641 0 0 0 -1 I I #
face $-1 $-1 $207 $26 $-1 $294 forward single #
loop $-1 $-1 $295 $116 #
plane-surface $-1 78.784142582476278 0 0 -1 0 0 0 0 1 forward_v I I I I #
coedge $-1 $296 $297 $298 $299 reversed $117 $-1 #
coedge $-1 $300 $119 $121 $205 forward $73 $-1 #
coedge $-1 $119 $300 $296 $301 forward $73 $-1 #
coedge $-1 $298 $122 $119 $202 forward $207 $-1 #
edge $-1 $209 -28.903596374539308 $302 -6.0108829663295502 $201 $303 forward 7 unknown #
coedge $-1 $304 $305 $120 $204 forward $196 $-1 #
edge $-1 $306 -103.32390448675012 $208 -96.868581419501481 $203 $307 forward 7 unknown #
edge $-1 $209 150.18756534092333 $306 157.5682851649525 $121 $308 forward 7 unknown #
coedge $-1 $122 $298 $304 $309 forward $207 $-1 #
loop $-1 $-1 $298 $195 #
vertex $-1 $204 $310 #
vertex $-1 $123 $311 #
straight-curve $-1 70.102926441589986 46.360836044973738 14.010461046828468 -1 0 0 I I #
coedge $-1 $211 $211 $-1 $312 reversed $126 $-1 #
edge $-1 $313 0 $313 6.2831853071796004 $127 $314 forward 7 unknown #
vertex $-1 $130 $315 #
ellipse-curve $-1 76.995020645724523 28.046665318405921 10.782799513204147 0.87461971476443456 0 0.48480960649040278 0.48480960649040278 0 -0.87461971476443456 1 I I #
coedge $-1 $215 $215 $-1 $316 reversed $133 $-1 #
edge $-1 $317 0 $317 6.2831853071796004 $134 $318 forward 7 unknown #
vertex $-1 $137 $319 #
ellipse-curve $-1 76.995020645724523 34.914479340868844 10.782799513204147 0.87461971476443456 0 0.48480960649040278 0.48480960649040278 0 -0.87461971476443456 1 I I #
coedge $-1 $219 $219 $-1 $320 reversed $140 $-1 #
edge $-1 $321 0 $321 6.2831853071796004 $141 $322 forward 7 unknown #
vertex $-1 $144 $323 #
ellipse-curve $-1 76.995020645724523 41.782293363331767 10.782799513204147 0.87461971476443456 0 0.48480960649040278 0.48480960649040278 0 -0.87461971476443456 1 I I #
face $-1 $-1 $324 $30 $-1 $325 reversed single #
loop $-1 $-1 $234 $145 #
plane-surface $-1 0 0 14.010461046828466 0 0 1 1 0 0 forward_v I I I I #
coedge $-1 $326 $327 $149 $232 forward $146 $-1 #
coedge $-1 $228 $148 $150 $233 reversed $92 $-1 #
coedge $-1 $148 $227 $328 $329 reversed $92 $-1 #
coedge $-1 $330 $151 $148 $230 forward $224 $-1 #
edge $-1 $236 -29.255570980930941 $331 -21.8347075955447 $229 $332 forward 7 unknown #
coedge $-1 $150 $149 $333 $334 reversed $59 $-1 #
edge $-1 $335 -0.86013409603689794 $235 10.931734738070475 $226 $336 forward 7 unknown #
edge $-1 $337 -6.7553953981016379e-014 $236 11.791868834107305 $227 $338 forward 7 unknown #
coedge $-1 $151 $330 $326 $339 forward $224 $-1 #
vertex $-1 $152 $340 #
vertex $-1 $152 $341 #
straight-curve $-1 -71.363279197090037 -15.278307668419933 14.010461046828466 0 1 0 I I #
coedge $-1 $238 $238 $-1 $342 reversed $155 $-1 #
edge $-1 $343 0 $343 6.2831853071796004 $156 $344 forward 7 unknown #
vertex $-1 $159 $345 #
ellipse-curve $-1 -75.073710889783143 -30.556615336839865 9.4284593768095029 -0.77714596973225614 0 0.62932038083071107 0.9439805712460666 0 1.1657189545983841 1 I I #
face $-1 $-1 $175 $24 $-1 $346 reversed single #
loop $-1 $-1 $258 $160 #
plane-surface $-1 0 50.361549537767623 0 0 -1 0 0 0 -1 forward_v I I I I #
coedge $-1 $347 $256 $259 $348 forward $161 $-1 #
coedge $-1 $262 $163 $164 $250 reversed $101 $-1 #
coedge $-1 $256 $347 $163 $248 reversed $161 $-1 #
edge $-1 $263 -14.010461046828466 $349 14.010461046828466 $247 $350 forward 7 unknown #
coedge $-1 $165 $164 $347 $351 forward $65 $-1 #
edge $-1 $254 -78.784142582476278 $349 78.784142582476278 $246 $352 forward 7 unknown #
coedge $-1 $259 $258 $165 $252 reversed $243 $-1 #
edge $-1 $353 -78.784142582476278 $253 78.784142582476278 $251 $354 forward 7 unknown #
vertex $-1 $167 $355 #
vertex $-1 $265 $356 #
straight-curve $-1 78.784142582476278 0 -14.010461046828466 0 -1 0 I I #
coedge $-1 $245 $247 $168 $257 reversed $161 $-1 #
edge $-1 $260 -50.361549537767623 $263 50.361549537767623 $256 $357 forward 7 unknown #
coedge $-1 $251 $169 $174 $266 forward $243 $-1 #
coedge $-1 $169 $251 $245 $348 reversed $243 $-1 #
vertex $-1 $170 $358 #
straight-curve $-1 0 50.361549537767623 14.010461046828466 -1 0 0 I I #
coedge $-1 $171 $246 $173 $265 reversed $101 $-1 #
vertex $-1 $257 $359 #
straight-curve $-1 0 -50.361549537767623 14.010461046828466 1 0 0 I I #
edge $-1 $176 -14.010461046828466 $254 14.010461046828466 $173 $360 forward 7 unknown #
edge $-1 $177 -14.010461046828466 $253 14.010461046828466 $174 $361 forward 7 unknown #
point $-1 78.784142582476278 -50.361549537767623 14.010461046828466 #
point $-1 78.784142582476278 50.361549537767623 14.010461046828466 #
face $-1 $-1 $362 $25 $-1 $363 reversed single #
loop $-1 $-1 $364 $179 #
plane-surface $-1 0 0 -14.010461046828466 0 0 1 1 0 0 forward_v I I I I #
coedge $-1 $279 $289 $274 $365 forward $180 $-1 #
coedge $-1 $185 $182 $364 $366 reversed $109 $-1 #
coedge $-1 $182 $185 $272 $365 reversed $109 $-1 #
coedge $-1 $367 $368 $182 $276 forward $362 $-1 #
edge $-1 $369 -14.010461046828466 $370 14.010461046828466 $275 $371 forward 7 unknown #
coedge $-1 $364 $188 $183 $278 forward $270 $-1 #
edge $-1 $193 -38.972787218447465 $282 -31.092945101927754 $277 $372 forward 7 unknown #
coedge $-1 $190 $272 $184 $280 forward $180 $-1 #
edge $-1 $281 31.092945101927754 $192 38.972787218447465 $279 $373 forward 7 unknown #
vertex $-1 $280 $374 #
vertex $-1 $278 $375 #
straight-curve $-1 -66.125811262115363 -37.914477558061641 0 0 0 -1 I I #
coedge $-1 $368 $367 $187 $285 forward $362 $-1 #
edge $-1 $290 -14.010461046828466 $287 14.010461046828466 $284 $376 forward 7 unknown #
coedge $-1 $188 $364 $368 $377 forward $270 $-1 #
vertex $-1 $189 $378 #
straight-curve $-1 -74.005653378635074 -22.069006773957316 -14.010461046828466 0 1 0 I I #
coedge $-1 $272 $190 $367 $379 forward $180 $-1 #
vertex $-1 $379 $380 #
straight-curve $-1 -74.005653378635074 -22.069006773957316 14.010461046828466 0 -1 0 I I #
point $-1 -74.005653378635074 -37.914477558061641 14.010461046828466 #
point $-1 -74.005653378635074 -37.914477558061641 -14.010461046828466 #
plane-surface $-1 0 0 14.010461046828466 0 0 1 1 0 0 forward_v I I I I #
coedge $-1 $305 $304 $297 $381 forward $196 $-1 #
coedge $-1 $297 $198 $200 $301 reversed $117 $-1 #
coedge $-1 $198 $296 $295 $381 reversed $117 $-1 #
coedge $-1 $206 $201 $198 $299 forward $207 $-1 #
edge $-1 $302 5.102972267382782 $382 8.681216140886292 $298 $383 forward 7 unknown #
coedge $-1 $200 $199 $305 $384 reversed $73 $-1 #
edge $-1 $385 -157.5682851649525 $302 -150.18756534092333 $296 $386 forward 7 unknown #
vertex $-1 $202 $387 #
straight-curve $-1 75.205898708972782 17.457239670434429 14.010461046828468 0 -1 0 I I #
coedge $-1 $295 $203 $206 $309 reversed $196 $-1 #
coedge $-1 $203 $295 $300 $384 forward $196 $-1 #
vertex $-1 $204 $388 #
straight-curve $-1 78.784142582476278 46.360836044973738 110.87904246632995 0 0 1 I I #
straight-curve $-1 2.3935242562880887 46.360836044973738 145.36746660647168 0.48480960649040278 0 -0.87461971476443456 I I #
edge $-1 $382 23.468122636763979 $208 46.360836044973738 $304 $389 forward 7 unknown #
point $-1 78.784142582476278 46.360836044973738 14.010461046828466 #
point $-1 75.205898708972768 46.360836044973738 14.010461046828453 #
edge $-1 $390 1 $390 0 $211 $-1 forward 7 unknown #
vertex $-1 $212 $391 #
ellipse-curve $-1 73.64644456440405 28.046665318405921 8.926653550698143 0.87461971476443456 0 0.48480960649040278 0.48480960649040278 0 -0.87461971476443456 1 I I #
point $-1 77.479830252214924 28.046665318405921 9.9081797984397042 #
edge $-1 $392 1 $392 0 $215 $-1 forward 7 unknown #
vertex $-1 $216 $393 #
ellipse-curve $-1 73.64644456440405 34.914479340868844 8.926653550698143 0.87461971476443456 0 0.48480960649040278 0.48480960649040278 0 -0.87461971476443456 1 I I #
point $-1 77.479830252214924 34.914479340868844 9.9081797984397042 #
edge $-1 $394 1 $394 0 $219 $-1 forward 7 unknown #
vertex $-1 $220 $395 #
ellipse-curve $-1 73.64644456440405 41.782293363331767 8.926653550698143 0.87461971476443456 0 0.48480960649040278 0.48480960649040278 0 -0.87461971476443456 1 I I #
point $-1 77.479830252214924 41.782293363331767 9.9081797984397042 #
loop $-1 $-1 $396 $223 #
plane-surface $-1 -78.784142582476278 0 0 1 0 0 0 0 -1 forward_v I I I I #
coedge $-1 $327 $226 $234 $339 reversed $146 $-1 #
coedge $-1 $226 $326 $396 $397 reversed $146 $-1 #
coedge $-1 $333 $398 $228 $329 forward $324 $-1 #
edge $-1 $331 37.993234419991829 $337 47.157237760029773 $328 $399 forward 7 unknown #
coedge $-1 $234 $229 $398 $400 forward $224 $-1 #
vertex $-1 $400 $401 #
straight-curve $-1 -100.61885017802098 -23.198753115618086 14.010461046828468 -1 0 0 I I #
coedge $-1 $396 $328 $231 $334 forward $324 $-1 #
edge $-1 $337 7.9204454471981531 $335 22.636169889641714 $333 $402 forward 7 unknown #
vertex $-1 $397 $403 #
straight-curve $-1 -78.24284266559286 -37.914477558061641 5.5149074529548958 0.62932038083071107 0 0.77714596973225614 I I #
vertex $-1 $334 $404 #
straight-curve $-1 -78.784142582476235 -23.198753115618086 4.8464577067905736 0.62932038083071107 0 0.77714596973225614 I I #
edge $-1 $405 21.8347075955447 $235 29.255570980930941 $234 $406 forward 7 unknown #
point $-1 -71.363279197090037 -37.914477558061648 14.010461046828466 #
point $-1 -71.363279197090037 -23.198753115618086 14.010461046828466 #
edge $-1 $407 1 $407 0 $238 $-1 forward 7 unknown #
vertex $-1 $239 $408 #
ellipse-curve $-1 -71.099230767409381 -30.556615336839865 6.2099889199941911 -0.77714596973225614 0 0.62932038083071107 0.9439805712460666 0 1.1657189545983841 1 I I #
point $-1 -74.129730318537113 -30.556615336839865 10.59417833140791 #
plane-surface $-1 78.784142582476278 0 0 -1 0 0 0 0 1 forward_v I I I I #
coedge $-1 $247 $245 $249 $351 reversed $161 $-1 #
edge $-1 $260 -14.010461046828466 $353 14.010461046828466 $259 $409 forward 7 unknown #
vertex $-1 $351 $410 #
straight-curve $-1 -78.784142582476278 -50.361549537767623 0 0 0 -1 I I #
edge $-1 $349 -50.361549537767623 $353 50.361549537767623 $347 $411 forward 7 unknown #
straight-curve $-1 0 -50.361549537767623 -14.010461046828466 -1 0 0 I I #
vertex $-1 $252 $412 #
straight-curve $-1 0 50.361549537767623 -14.010461046828466 1 0 0 I I #
point $-1 78.784142582476278 50.361549537767623 -14.010461046828466 #
point $-1 78.784142582476278 -50.361549537767623 -14.010461046828466 #
straight-curve $-1 -78.784142582476278 0 14.010461046828466 0 -1 0 I I #
point $-1 -78.784142582476278 50.361549537767623 14.010461046828466 #
point $-1 -78.784142582476278 -50.361549537767623 14.010461046828466 #
straight-curve $-1 78.784142582476278 -50.361549537767623 0 0 0 -1 I I #
straight-curve $-1 78.784142582476278 50.361549537767623 0 0 0 -1 I I #
loop $-1 $-1 $275 $269 #
plane-surface $-1 0 -50.361549537767623 0 0 1 0 0 0 1 forward_v I I I I #
coedge $-1 $286 $277 $273 $366 forward $270 $-1 #
edge $-1 $370 -28.292542763810307 $281 -15.845470784104325 $272 $413 forward 7 unknown #
edge $-1 $282 15.845470784104325 $369 28.292542763810307 $364 $414 forward 7 unknown #
coedge $-1 $284 $275 $289 $379 reversed $362 $-1 #
coedge $-1 $275 $284 $286 $377 reversed $362 $-1 #
vertex $-1 $377 $415 #
vertex $-1 $276 $416 #
straight-curve $-1 -66.125811262115363 -50.361549537767623 0 0 0 1 I I #
straight-curve $-1 -35.032866160187609 -37.914477558061641 -14.010461046828466 1 0 0 I I #
straight-curve $-1 -35.032866160187609 -37.914477558061641 14.010461046828466 -1 0 0 I I #
point $-1 -66.125811262115363 -37.914477558061641 14.010461046828466 #
point $-1 -66.125811262115363 -37.914477558061641 -14.010461046828466 #
straight-curve $-1 -74.005653378635074 -50.361549537767623 0 0 0 -1 I I #
edge $-1 $369 66.125811262115363 $287 74.005653378635074 $368 $417 forward 7 unknown #
point $-1 -74.005653378635074 -50.361549537767623 -14.010461046828466 #
edge $-1 $290 -74.005653378635074 $370 -66.125811262115363 $367 $418 forward 7 unknown #
point $-1 -74.005653378635074 -50.361549537767623 14.010461046828466 #
edge $-1 $382 96.868581419501481 $385 103.32390448675012 $295 $419 forward 7 unknown #
vertex $-1 $309 $420 #
straight-curve $-1 70.102926441589986 23.468122636763979 14.010461046828468 1 0 0 I I #
edge $-1 $385 6.0108829663295502 $306 28.903596374539308 $305 $421 forward 7 unknown #
vertex $-1 $384 $422 #
straight-curve $-1 2.3935242562880887 23.468122636763979 145.36746660647168 -0.48480960649040278 0 0.87461971476443456 I I #
point $-1 75.205898708972768 23.468122636763979 14.010461046828453 #
point $-1 78.784142582476278 46.360836044973738 7.5551379795798255 #
straight-curve $-1 78.784142582476278 0 14.010461046828466 0 1 0 I I #
vertex $-1 $312 $423 #
point $-1 74.131254170894451 28.046665318405921 8.0520338359337078 #
vertex $-1 $316 $424 #
point $-1 74.131254170894451 34.914479340868844 8.0520338359337078 #
vertex $-1 $320 $425 #
point $-1 74.131254170894451 41.782293363331767 8.0520338359337078 #
coedge $-1 $398 $333 $327 $397 forward $324 $-1 #
edge $-1 $335 -47.157237760029773 $405 -37.993234419991829 $396 $426 forward 7 unknown #
coedge $-1 $328 $396 $330 $400 reversed $324 $-1 #
straight-curve $-1 -78.784142582476278 -23.198753115618086 52.003695466820297 0 0 -1 I I #
edge $-1 $331 23.198753115618086 $405 37.914477558061648 $398 $427 forward 7 unknown #
point $-1 -78.784142582476278 -23.198753115618086 14.010461046828466 #
straight-curve $-1 -78.784142582476278 -15.278307668419933 4.8464577067905079 0 -1 0 I I #
point $-1 -78.784142582476278 -37.914477558061648 4.8464577067905212 #
point $-1 -78.784142582476278 -23.198753115618086 4.8464577067905212 #
vertex $-1 $397 $428 #
straight-curve $-1 -100.61885017802098 -37.914477558061648 14.010461046828468 1 0 0 I I #
vertex $-1 $342 $429 #
point $-1 -70.155250196163308 -30.556615336839865 7.3757078745925746 #
straight-curve $-1 -78.784142582476278 50.361549537767623 0 0 0 -1 I I #
point $-1 -78.784142582476278 -50.361549537767623 -14.010461046828466 #
straight-curve $-1 -78.784142582476278 0 -14.010461046828466 0 1 0 I I #
point $-1 -78.784142582476278 50.361549537767623 -14.010461046828466 #
straight-curve $-1 -66.125811262115363 -22.069006773957316 14.010461046828466 0 1 0 I I #
straight-curve $-1 -66.125811262115363 -22.069006773957316 -14.010461046828466 0 -1 0 I I #
point $-1 -66.125811262115363 -50.361549537767623 -14.010461046828466 #
point $-1 -66.125811262115363 -50.361549537767623 14.010461046828466 #
straight-curve $-1 0 -50.361549537767623 -14.010461046828466 -1 0 0 I I #
straight-curve $-1 0 -50.361549537767623 14.010461046828466 1 0 0 I I #
straight-curve $-1 78.784142582476278 23.468122636763979 110.87904246632995 0 0 -1 I I #
point $-1 78.784142582476278 23.468122636763979 14.010461046828466 #
straight-curve $-1 78.784142582476278 17.457239670434429 7.5551379795798397 0 1 0 I I #
point $-1 78.784142582476278 23.468122636763979 7.5551379795798255 #
point $-1 72.771824849639614 28.046665318405921 8.4418439442077418 #
point $-1 72.771824849639614 34.914479340868844 8.4418439442077418 #
point $-1 72.771824849639614 41.782293363331767 8.4418439442077418 #
straight-curve $-1 -78.784142582476278 -37.914477558061648 52.003695466820297 0 0 1 I I #
straight-curve $-1 -78.784142582476278 0 14.010461046828466 0 -1 0 I I #
point $-1 -78.784142582476278 -37.914477558061648 14.010461046828466 #
point $-1 -69.933511812810991 -30.556615336839865 5.266008348748124 #
End-of-ACIS-data 