500 0 10 0           
7 Unknown 11 ACIS 5.0 NT 24 Fri Mar 26 14:54:51 1999 
-1 9.9999999999999995e-007 1e-010 
body $-1 $10 $-1 $11 #
body $-1 $12 $-1 $13 #
body $-1 $14 $-1 $15 #
body $-1 $16 $-1 $17 #
body $-1 $18 $-1 $19 #
body $-1 $20 $-1 $21 #
body $-1 $22 $-1 $23 #
body $-1 $24 $-1 $25 #
body $-1 $26 $-1 $27 #
body $-1 $28 $-1 $29 #
lump $-1 $-1 $30 $0 #
transform $-1 1 0 0 0 1 0 0 0 1 76.468398083437606 45.095048174245377 18.415933031368361 1 rotate no_reflect no_shear #
lump $-1 $-1 $31 $1 #
transform $-1 1 0 0 0 1 0 0 0 1 76.468398083437606 45.095048174245377 18.415933031368361 1 rotate no_reflect no_shear #
lump $-1 $-1 $32 $2 #
transform $-1 1 0 0 0 1 0 0 0 1 76.468398083437606 45.095048174245377 18.415933031368361 1 rotate no_reflect no_shear #
lump $-1 $-1 $33 $3 #
transform $-1 1 0 0 0 1 0 0 0 1 76.468398083437606 45.095048174245377 18.415933031368361 1 rotate no_reflect no_shear #
lump $-1 $-1 $34 $4 #
transform $-1 1 0 0 0 1 0 0 0 1 76.468398083437606 45.095048174245377 18.415933031368361 1 rotate no_reflect no_shear #
lump $-1 $-1 $35 $5 #
transform $-1 1 0 0 0 1 0 0 0 1 76.468398083437606 45.095048174245377 18.415933031368361 1 rotate no_reflect no_shear #
lump $-1 $-1 $36 $6 #
transform $-1 1 0 0 0 1 0 0 0 1 76.468398083437606 45.095048174245377 18.415933031368361 1 rotate no_reflect no_shear #
lump $-1 $-1 $37 $7 #
transform $-1 1 0 0 0 1 0 0 0 1 76.468398083437606 45.095048174245377 18.415933031368361 1 rotate no_reflect no_shear #
lump $-1 $-1 $38 $8 #
transform $-1 1 0 0 0 1 0 0 0 1 76.468398083437606 45.095048174245377 18.415933031368361 1 rotate no_reflect no_shear #
lump $-1 $-1 $39 $9 #
transform $-1 1 0 0 0 1 0 0 0 1 76.468398083437606 45.095048174245377 18.415933031368361 1 rotate no_reflect no_shear #
shell $-1 $-1 $-1 $40 $-1 $10 #
shell $-1 $-1 $-1 $41 $-1 $12 #
shell $-1 $-1 $-1 $42 $-1 $14 #
shell $-1 $-1 $-1 $43 $-1 $16 #
shell $-1 $-1 $-1 $44 $-1 $18 #
shell $-1 $-1 $-1 $45 $-1 $20 #
shell $-1 $-1 $-1 $46 $-1 $22 #
shell $-1 $-1 $-1 $47 $-1 $24 #
shell $-1 $-1 $-1 $48 $-1 $26 #
shell $-1 $-1 $-1 $49 $-1 $28 #
face $-1 $50 $51 $30 $-1 $52 forward single #
face $-1 $53 $54 $31 $-1 $55 forward single #
face $-1 $56 $57 $32 $-1 $58 reversed single #
face $-1 $59 $60 $33 $-1 $61 forward single #
face $-1 $62 $63 $34 $-1 $64 forward single #
face $-1 $65 $66 $35 $-1 $67 forward single #
face $-1 $68 $69 $36 $-1 $70 reversed single #
face $-1 $71 $72 $37 $-1 $73 forward single #
face $-1 $74 $75 $38 $-1 $76 forward single #
face $-1 $77 $78 $39 $-1 $79 forward single #
face $-1 $80 $81 $30 $-1 $82 reversed single #
loop $-1 $-1 $83 $40 #
plane-surface $-1 0 0 18.415933031368361 0 0 1 1 0 0 forward_v I I I I #
face $-1 $84 $85 $31 $-1 $86 reversed single #
loop $-1 $-1 $87 $41 #
plane-surface $-1 -76.468398083437606 0 0 1 0 0 0 0 -1 forward_v I I I I #
face $-1 $88 $89 $32 $-1 $90 reversed single #
loop $-1 $-1 $91 $42 #
plane-surface $-1 -15.433400991680671 129.73613769762483 160.10962367053656 1 0 0 0 -0.85716730853699208 -0.51503806187062418 forward_v I I I I #
face $-1 $92 $93 $33 $-1 $94 forward single #
loop $-1 $95 $96 $43 #
cone-surface $-1 -7.914878657841399 38.089704550958665 9.6117035432437454 0 -0.85716730853699208 -0.51503806187062418 2 0 0 1 I I 0 1 2 forward I I I I #
face $-1 $97 $98 $34 $-1 $99 forward single #
loop $-1 $100 $101 $44 #
cone-surface $-1 3.3629048429175157 38.089704550958665 9.6117035432437454 0 -0.85716730853699208 -0.51503806187062418 2 0 0 1 I I 0 1 2 forward I I I I #
face $-1 $102 $103 $35 $-1 $104 forward single #
loop $-1 $105 $106 $45 #
cone-surface $-1 14.64068834367643 38.089704550958665 9.6117035432437454 0 -0.85716730853699208 -0.51503806187062418 2 0 0 1 I I 0 1 2 forward I I I I #
face $-1 $107 $108 $36 $-1 $109 reversed single #
loop $-1 $-1 $110 $46 #
plane-surface $-1 22.159210677515702 -176.18747012087636 82.801621526808759 -1 0 0 0 -0.85716730853699208 0.51503806187062418 forward_v I I I I #
face $-1 $111 $112 $37 $-1 $113 forward single #
loop $-1 $114 $115 $47 #
cone-surface $-1 -7.914878657841399 -38.089704550958658 9.6117035432437525 0 0.85716730853699208 -0.51503806187062418 2 0 0 1 I I 0 1 2 forward I I I I #
face $-1 $116 $117 $38 $-1 $118 forward single #
loop $-1 $119 $120 $48 #
cone-surface $-1 3.3629048429175157 -38.089704550958658 9.6117035432437525 0 0.85716730853699208 -0.51503806187062418 2 0 0 1 I I 0 1 2 forward I I I I #
face $-1 $121 $122 $39 $-1 $123 forward single #
loop $-1 $124 $125 $49 #
cone-surface $-1 14.64068834367643 -38.089704550958658 9.6117035432437525 0 0.85716730853699208 -0.51503806187062418 2 0 0 1 I I 0 1 2 forward I I I I #
face $-1 $126 $127 $30 $-1 $128 reversed single #
loop $-1 $-1 $129 $50 #
plane-surface $-1 0 0 -18.415933031368361 0 0 1 1 0 0 forward_v I I I I #
coedge $-1 $130 $131 $132 $133 forward $51 $-1 #
face $-1 $134 $135 $31 $-1 $136 forward single #
loop $-1 $-1 $137 $53 #
plane-surface $-1 0 45.095048174245377 0 0 -1 0 0 0 -1 forward_v I I I I #
coedge $-1 $138 $139 $140 $141 forward $54 $-1 #
face $-1 $142 $143 $32 $-1 $144 reversed single #
loop $-1 $-1 $145 $56 #
plane-surface $-1 3.3629048429175157 -1.3562842490061655 81.341352584046447 0 0.85716730853699208 0.51503806187062418 1 0 0 forward_v I I I I #
coedge $-1 $146 $147 $148 $149 reversed $57 $-1 #
face $-1 $-1 $150 $33 $-1 $151 forward single #
loop $-1 $152 $153 $59 #
cone-surface $-1 -7.914878657841399 34.54815720968044 7.4837272887733732 0 -0.85716730853699208 -0.51503806187062418 1 0 0 1 I I -0.70710678118654746 0.70710678118654746 1 forward I I I I #
loop $-1 $-1 $154 $43 #
coedge $-1 $96 $96 $155 $156 reversed $60 $-1 #
face $-1 $-1 $157 $34 $-1 $158 forward single #
loop $-1 $159 $160 $62 #
cone-surface $-1 3.3629048429175157 34.54815720968044 7.4837272887733732 0 -0.85716730853699208 -0.51503806187062418 1 0 0 1 I I -0.70710678118654746 0.70710678118654746 1 forward I I I I #
loop $-1 $-1 $161 $44 #
coedge $-1 $101 $101 $162 $163 reversed $63 $-1 #
face $-1 $-1 $164 $35 $-1 $165 forward single #
loop $-1 $166 $167 $65 #
cone-surface $-1 14.64068834367643 34.54815720968044 7.4837272887733732 0 -0.85716730853699208 -0.51503806187062418 1 0 0 1 I I -0.70710678118654746 0.70710678118654746 1 forward I I I I #
loop $-1 $-1 $168 $45 #
coedge $-1 $106 $106 $169 $170 reversed $66 $-1 #
face $-1 $171 $172 $36 $-1 $173 reversed single #
loop $-1 $-1 $174 $68 #
plane-surface $-1 3.3629048429175157 -45.095048174245363 4.0333504403186424 0 -0.85716730853699208 0.51503806187062418 1 0 0 forward_v I I I I #
coedge $-1 $175 $176 $177 $178 reversed $69 $-1 #
face $-1 $-1 $179 $37 $-1 $180 forward single #
loop $-1 $181 $182 $71 #
cone-surface $-1 -7.914878657841399 -34.548157209680433 7.4837272887733803 0 0.85716730853699208 -0.51503806187062418 1 0 0 1 I I -0.70710678118654746 0.70710678118654746 1 forward I I I I #
loop $-1 $-1 $183 $47 #
coedge $-1 $115 $115 $184 $185 reversed $72 $-1 #
face $-1 $-1 $186 $38 $-1 $187 forward single #
loop $-1 $188 $189 $74 #
cone-surface $-1 3.3629048429175157 -34.548157209680433 7.4837272887733803 0 0.85716730853699208 -0.51503806187062418 1 0 0 1 I I -0.70710678118654746 0.70710678118654746 1 forward I I I I #
loop $-1 $-1 $190 $48 #
coedge $-1 $120 $120 $191 $192 reversed $75 $-1 #
face $-1 $-1 $193 $39 $-1 $194 forward single #
loop $-1 $195 $196 $77 #
cone-surface $-1 14.64068834367643 -34.548157209680433 7.4837272887733803 0 0.85716730853699208 -0.51503806187062418 1 0 0 1 I I -0.70710678118654746 0.70710678118654746 1 forward I I I I #
loop $-1 $-1 $197 $49 #
coedge $-1 $125 $125 $198 $199 reversed $78 $-1 #
face $-1 $200 $201 $30 $-1 $202 reversed single #
loop $-1 $-1 $203 $80 #
plane-surface $-1 0 -45.095048174245377 0 0 1 0 0 0 1 forward_v I I I I #
coedge $-1 $204 $205 $206 $207 forward $81 $-1 #
coedge $-1 $208 $83 $209 $210 forward $51 $-1 #
coedge $-1 $83 $208 $211 $212 forward $51 $-1 #
coedge $-1 $213 $214 $83 $133 reversed $215 $-1 #
edge $-1 $216 -45.095048174245377 $217 45.095048174245377 $132 $218 forward 7 unknown #
face $-1 $219 $220 $31 $-1 $221 reversed single #
loop $-1 $-1 $140 $84 #
plane-surface $-1 -85.306916264572692 0 -10.857908670907058 0 0 1 1 0 0 forward_v I I I I #
coedge $-1 $222 $223 $139 $224 forward $85 $-1 #
coedge $-1 $225 $87 $226 $227 reversed $54 $-1 #
coedge $-1 $87 $225 $137 $224 reversed $54 $-1 #
coedge $-1 $228 $229 $87 $141 reversed $135 $-1 #
edge $-1 $230 -45.095048174245377 $231 45.095048174245377 $140 $232 forward 7 unknown #
face $-1 $233 $234 $32 $-1 $235 forward single #
loop $-1 $-1 $236 $88 #
plane-surface $-1 22.159210677515702 129.73613769762483 160.10962367053656 -1 0 0 0 0.85716730853699208 0.51503806187062418 forward_v I I I I #
coedge $-1 $237 $238 $239 $240 reversed $89 $-1 #
coedge $-1 $147 $91 $241 $242 reversed $57 $-1 #
coedge $-1 $91 $146 $237 $243 reversed $57 $-1 #
coedge $-1 $239 $244 $91 $149 forward $234 $-1 #
edge $-1 $245 19.773020674567036 $246 28.414947855658028 $148 $247 forward 7 unknown #
loop $-1 $-1 $155 $92 #
plane-surface $-1 3.3629048429175157 -1.3562842490061655 81.341352584046447 0 0.85716730853699208 0.51503806187062418 1 0 0 forward_v I I I I #
loop $-1 $-1 $248 $59 #
coedge $-1 $153 $153 $154 $249 reversed $93 $-1 #
coedge $-1 $154 $154 $153 $249 forward $95 $-1 #
coedge $-1 $155 $155 $96 $156 forward $150 $-1 #
edge $-1 $250 -1.4702199255364637e-016 $250 6.2831853071796004 $155 $251 forward 7 unknown #
loop $-1 $-1 $162 $97 #
plane-surface $-1 3.3629048429175157 -1.3562842490061655 81.341352584046447 0 0.85716730853699208 0.51503806187062418 1 0 0 forward_v I I I I #
loop $-1 $-1 $252 $62 #
coedge $-1 $160 $160 $161 $253 reversed $98 $-1 #
coedge $-1 $161 $161 $160 $253 forward $100 $-1 #
coedge $-1 $162 $162 $101 $163 forward $157 $-1 #
edge $-1 $254 -1.4702199255364637e-016 $254 6.2831853071796004 $162 $255 forward 7 unknown #
loop $-1 $-1 $169 $102 #
plane-surface $-1 3.3629048429175157 -1.3562842490061655 81.341352584046447 0 0.85716730853699208 0.51503806187062418 1 0 0 forward_v I I I I #
loop $-1 $-1 $256 $65 #
coedge $-1 $167 $167 $168 $257 reversed $103 $-1 #
coedge $-1 $168 $168 $167 $257 forward $105 $-1 #
coedge $-1 $169 $169 $106 $170 forward $164 $-1 #
edge $-1 $258 -1.4702199255364637e-016 $258 6.2831853071796004 $169 $259 forward 7 unknown #
face $-1 $260 $261 $36 $-1 $262 reversed single #
loop $-1 $-1 $263 $107 #
plane-surface $-1 -15.433400991680671 -176.18747012087636 82.801621526808759 1 0 0 0 0.85716730853699208 -0.51503806187062418 forward_v I I I I #
coedge $-1 $264 $265 $266 $267 reversed $108 $-1 #
coedge $-1 $176 $110 $268 $269 reversed $69 $-1 #
coedge $-1 $110 $175 $264 $270 reversed $69 $-1 #
coedge $-1 $266 $271 $110 $178 forward $272 $-1 #
edge $-1 $273 42.9986868861928 $274 51.640614067283792 $177 $275 forward 7 unknown #
loop $-1 $-1 $184 $111 #
plane-surface $-1 3.3629048429175157 -45.095048174245363 4.0333504403186424 0 -0.85716730853699208 0.51503806187062418 1 0 0 forward_v I I I I #
loop $-1 $-1 $276 $71 #
coedge $-1 $182 $182 $183 $277 reversed $112 $-1 #
coedge $-1 $183 $183 $182 $277 forward $114 $-1 #
coedge $-1 $184 $184 $115 $185 forward $179 $-1 #
edge $-1 $278 1.2154872545493161e-015 $278 6.2831853071796013 $184 $279 forward 7 unknown #
loop $-1 $-1 $191 $116 #
plane-surface $-1 3.3629048429175157 -45.095048174245363 4.0333504403186424 0 -0.85716730853699208 0.51503806187062418 1 0 0 forward_v I I I I #
loop $-1 $-1 $280 $74 #
coedge $-1 $189 $189 $190 $281 reversed $117 $-1 #
coedge $-1 $190 $190 $189 $281 forward $119 $-1 #
coedge $-1 $191 $191 $120 $192 forward $186 $-1 #
edge $-1 $282 1.2154872545493161e-015 $282 6.2831853071796013 $191 $283 forward 7 unknown #
loop $-1 $-1 $198 $121 #
plane-surface $-1 3.3629048429175157 -45.095048174245363 4.0333504403186424 0 -0.85716730853699208 0.51503806187062418 1 0 0 forward_v I I I I #
loop $-1 $-1 $284 $77 #
coedge $-1 $196 $196 $197 $285 reversed $122 $-1 #
coedge $-1 $197 $197 $196 $285 forward $124 $-1 #
coedge $-1 $198 $198 $125 $199 forward $193 $-1 #
edge $-1 $286 1.2154872545493161e-015 $286 6.2831853071796013 $198 $287 forward 7 unknown #
face $-1 $288 $289 $30 $-1 $290 reversed single #
loop $-1 $-1 $291 $126 #
plane-surface $-1 -76.468398083437606 0 0 1 0 0 0 0 -1 forward_v I I I I #
coedge $-1 $292 $211 $291 $293 forward $127 $-1 #
coedge $-1 $294 $129 $292 $295 forward $81 $-1 #
coedge $-1 $129 $294 $296 $297 forward $81 $-1 #
coedge $-1 $214 $213 $129 $207 reversed $215 $-1 #
edge $-1 $298 -45.095048174245377 $299 45.095048174245377 $206 $300 forward 7 unknown #
coedge $-1 $131 $130 $301 $302 forward $51 $-1 #
coedge $-1 $303 $304 $130 $210 reversed $289 $-1 #
edge $-1 $217 -76.468398083437606 $305 76.468398083437606 $209 $306 forward 7 unknown #
coedge $-1 $203 $307 $131 $212 reversed $127 $-1 #
edge $-1 $308 -76.468398083437606 $216 76.468398083437606 $211 $309 forward 7 unknown #
coedge $-1 $206 $132 $307 $310 forward $215 $-1 #
coedge $-1 $132 $206 $303 $311 reversed $215 $-1 #
loop $-1 $-1 $213 $288 #
vertex $-1 $133 $312 #
vertex $-1 $133 $313 #
straight-curve $-1 76.468398083437606 0 18.415933031368361 0 1 0 I I #
face $-1 $314 $315 $31 $-1 $316 reversed single #
loop $-1 $-1 $317 $134 #
plane-surface $-1 -94.145434445707778 0 -14.63692085113771 1 0 0 0 0 -1 forward_v I I I I #
coedge $-1 $318 $137 $319 $320 reversed $85 $-1 #
coedge $-1 $137 $318 $228 $321 reversed $85 $-1 #
edge $-1 $230 10.857908670907058 $322 18.415933031368361 $137 $323 forward 7 unknown #
coedge $-1 $139 $138 $324 $325 reversed $54 $-1 #
coedge $-1 $326 $327 $138 $227 forward $328 $-1 #
edge $-1 $329 -18.415933031368361 $231 -10.857908670907058 $226 $330 forward 7 unknown #
coedge $-1 $331 $140 $223 $321 forward $135 $-1 #
coedge $-1 $140 $331 $326 $332 forward $135 $-1 #
vertex $-1 $224 $333 #
vertex $-1 $332 $334 #
straight-curve $-1 -76.468398083437606 0 -10.857908670907058 0 -1 0 I I #
face $-1 $-1 $335 $32 $-1 $336 reversed single #
loop $-1 $-1 $148 $142 #
plane-surface $-1 0 0 18.415933031368361 0 0 1 1 0 0 forward_v I I I I #
coedge $-1 $337 $338 $339 $340 reversed $143 $-1 #
coedge $-1 $341 $145 $147 $243 forward $89 $-1 #
coedge $-1 $145 $341 $337 $342 forward $89 $-1 #
coedge $-1 $339 $148 $145 $240 forward $234 $-1 #
edge $-1 $246 -17.114853413139429 $343 20.477758256056944 $239 $344 forward 7 unknown #
coedge $-1 $345 $346 $146 $242 forward $335 $-1 #
edge $-1 $347 -76.021461394949654 $245 -61.638878803899921 $241 $348 forward 7 unknown #
edge $-1 $246 73.410895312933505 $347 90.190096348490769 $147 $349 forward 7 unknown #
coedge $-1 $148 $339 $345 $350 forward $234 $-1 #
vertex $-1 $242 $351 #
vertex $-1 $149 $352 #
straight-curve $-1 -15.433400991680671 64.868068848812413 18.415933031368354 0 -1 0 I I #
coedge $-1 $248 $248 $-1 $353 reversed $152 $-1 #
edge $-1 $354 0 $354 6.2831853071796004 $153 $355 forward 7 unknown #
vertex $-1 $156 $356 #
ellipse-curve $-1 -7.914878657841399 40.774084583699882 11.224641735843486 0 0.85716730853699208 0.51503806187062418 2 0 0 1 I I #
coedge $-1 $252 $252 $-1 $357 reversed $159 $-1 #
edge $-1 $358 0 $358 6.2831853071796004 $160 $359 forward 7 unknown #
vertex $-1 $163 $360 #
ellipse-curve $-1 3.3629048429175157 40.774084583699882 11.224641735843486 0 0.85716730853699208 0.51503806187062418 2 0 0 1 I I #
coedge $-1 $256 $256 $-1 $361 reversed $166 $-1 #
edge $-1 $362 0 $362 6.2831853071796004 $167 $363 forward 7 unknown #
vertex $-1 $170 $364 #
ellipse-curve $-1 14.64068834367643 40.774084583699882 11.224641735843486 0 0.85716730853699208 0.51503806187062418 2 0 0 1 I I #
face $-1 $-1 $272 $36 $-1 $365 forward single #
loop $-1 $-1 $366 $171 #
plane-surface $-1 0 -45.095048174245377 0 0 1 0 0 0 1 forward_v I I I I #
coedge $-1 $367 $368 $369 $370 reversed $172 $-1 #
coedge $-1 $371 $174 $176 $270 forward $108 $-1 #
coedge $-1 $174 $371 $367 $372 forward $108 $-1 #
coedge $-1 $369 $177 $174 $267 forward $272 $-1 #
edge $-1 $274 -20.477758256056944 $373 17.114853413139429 $266 $374 forward 7 unknown #
coedge $-1 $375 $376 $175 $269 forward $261 $-1 #
edge $-1 $377 -37.367460323085758 $273 -22.984877732036018 $268 $378 forward 7 unknown #
edge $-1 $274 -16.779201035557254 $377 2.787470371894754e-014 $176 $379 forward 7 unknown #
coedge $-1 $177 $369 $375 $380 forward $272 $-1 #
loop $-1 $-1 $369 $260 #
vertex $-1 $269 $381 #
vertex $-1 $178 $382 #
straight-curve $-1 22.159210677515702 -88.093735060438178 18.415933031368361 0 1 0 I I #
coedge $-1 $276 $276 $-1 $383 reversed $181 $-1 #
edge $-1 $384 0 $384 6.2831853071796004 $182 $385 forward 7 unknown #
vertex $-1 $185 $386 #
ellipse-curve $-1 -7.914878657841399 -40.774084583699882 11.224641735843495 0 -0.85716730853699208 0.51503806187062418 2 0 0 1 I I #
coedge $-1 $280 $280 $-1 $387 reversed $188 $-1 #
edge $-1 $388 0 $388 6.2831853071796004 $189 $389 forward 7 unknown #
vertex $-1 $192 $390 #
ellipse-curve $-1 3.3629048429175157 -40.774084583699882 11.224641735843495 0 -0.85716730853699208 0.51503806187062418 2 0 0 1 I I #
coedge $-1 $284 $284 $-1 $391 reversed $195 $-1 #
edge $-1 $392 0 $392 6.2831853071796004 $196 $393 forward 7 unknown #
vertex $-1 $199 $394 #
ellipse-curve $-1 14.64068834367643 -40.774084583699882 11.224641735843495 0 -0.85716730853699208 0.51503806187062418 2 0 0 1 I I #
face $-1 $-1 $215 $30 $-1 $395 reversed single #
loop $-1 $-1 $303 $200 #
plane-surface $-1 0 45.095048174245377 0 0 -1 0 0 0 -1 forward_v I I I I #
coedge $-1 $301 $396 $203 $293 reversed $201 $-1 #
coedge $-1 $307 $203 $204 $295 reversed $127 $-1 #
edge $-1 $308 -18.415933031368361 $397 18.415933031368361 $291 $398 forward 7 unknown #
coedge $-1 $205 $204 $396 $399 forward $81 $-1 #
edge $-1 $299 -76.468398083437606 $397 76.468398083437606 $292 $400 forward 7 unknown #
coedge $-1 $304 $303 $205 $297 reversed $289 $-1 #
edge $-1 $401 -76.468398083437606 $298 76.468398083437606 $296 $402 forward 7 unknown #
vertex $-1 $207 $403 #
vertex $-1 $310 $404 #
straight-curve $-1 76.468398083437606 0 -18.415933031368361 0 -1 0 I I #
coedge $-1 $405 $291 $208 $302 reversed $201 $-1 #
edge $-1 $305 -45.095048174245377 $308 45.095048174245377 $301 $406 forward 7 unknown #
coedge $-1 $296 $209 $214 $311 forward $289 $-1 #
coedge $-1 $209 $296 $405 $407 reversed $289 $-1 #
vertex $-1 $210 $408 #
straight-curve $-1 0 45.095048174245377 18.415933031368361 -1 0 0 I I #
coedge $-1 $211 $292 $213 $310 reversed $127 $-1 #
vertex $-1 $302 $409 #
straight-curve $-1 0 -45.095048174245377 18.415933031368361 1 0 0 I I #
edge $-1 $216 -18.415933031368361 $299 18.415933031368361 $213 $410 forward 7 unknown #
edge $-1 $217 -18.415933031368361 $298 18.415933031368361 $214 $411 forward 7 unknown #
point $-1 76.468398083437606 -45.095048174245377 18.415933031368361 #
point $-1 76.468398083437606 45.095048174245377 18.415933031368361 #
face $-1 $-1 $328 $31 $-1 $412 reversed single #
loop $-1 $-1 $324 $219 #
plane-surface $-1 0 0 -18.415933031368361 0 0 1 1 0 0 forward_v I I I I #
coedge $-1 $413 $414 $318 $415 forward $220 $-1 #
coedge $-1 $223 $222 $317 $415 reversed $85 $-1 #
coedge $-1 $324 $416 $222 $320 forward $315 $-1 #
edge $-1 $417 -94.145434445707778 $322 -76.468398083437606 $222 $418 forward 7 unknown #
edge $-1 $230 -8.8385181811350861 $419 8.8385181811350861 $223 $420 forward 7 unknown #
vertex $-1 $224 $421 #
straight-curve $-1 -76.468398083437606 45.095048174245377 0 0 0 -1 I I #
coedge $-1 $422 $319 $225 $325 forward $315 $-1 #
edge $-1 $322 -45.095048174245377 $329 45.095048174245377 $324 $423 forward 7 unknown #
coedge $-1 $424 $226 $229 $332 reversed $328 $-1 #
coedge $-1 $226 $424 $422 $425 reversed $328 $-1 #
loop $-1 $-1 $226 $314 #
vertex $-1 $425 $426 #
straight-curve $-1 -76.468398083437606 -45.095048174245377 0 0 0 1 I I #
coedge $-1 $229 $228 $414 $427 forward $135 $-1 #
edge $-1 $428 -8.8385181811350861 $231 8.8385181811350861 $326 $429 forward 7 unknown #
point $-1 -76.468398083437606 45.095048174245377 -10.857908670907058 #
point $-1 -76.468398083437606 -45.095048174245377 -10.857908670907058 #
loop $-1 $-1 $241 $233 #
plane-surface $-1 0 45.095048174245377 0 0 -1 0 0 0 -1 forward_v I I I I #
coedge $-1 $338 $236 $238 $342 reversed $143 $-1 #
coedge $-1 $236 $337 $430 $431 reversed $143 $-1 #
coedge $-1 $244 $239 $236 $340 forward $234 $-1 #
edge $-1 $343 -28.414947855658028 $432 -19.773020674567036 $339 $433 forward 7 unknown #
coedge $-1 $238 $237 $346 $434 reversed $89 $-1 #
edge $-1 $435 -90.190096348490769 $343 -73.410895312933505 $337 $436 forward 7 unknown #
vertex $-1 $240 $437 #
straight-curve $-1 1.6814524214587578 36.453120993154386 18.415933031368361 1 0 0 I I #
coedge $-1 $430 $241 $244 $350 reversed $335 $-1 #
coedge $-1 $241 $430 $341 $434 forward $335 $-1 #
vertex $-1 $242 $438 #
straight-curve $-1 -15.433400991680671 45.095048174245377 80.054811835268282 0 0 1 I I #
straight-curve $-1 -15.433400991680671 -1.3562842490061655 81.341352584046447 0 0.51503806187062418 -0.85716730853699208 I I #
edge $-1 $432 -22.159210677515702 $245 15.433400991680671 $345 $439 forward 7 unknown #
point $-1 -15.433400991680671 45.095048174245377 18.415933031368361 #
point $-1 -15.433400991680671 36.453120993154386 18.415933031368361 #
edge $-1 $440 1 $440 0 $248 $-1 forward 7 unknown #
vertex $-1 $249 $441 #
ellipse-curve $-1 -7.914878657841399 35.405324518217434 7.9987653506439971 0 0.85716730853699208 0.51503806187062418 2 0 0 1 I I #
point $-1 -5.914878657841399 40.774084583699896 11.224641735843495 #
edge $-1 $442 1 $442 0 $252 $-1 forward 7 unknown #
vertex $-1 $253 $443 #
ellipse-curve $-1 3.3629048429175157 35.405324518217434 7.9987653506439971 0 0.85716730853699208 0.51503806187062418 2 0 0 1 I I #
point $-1 5.3629048429175157 40.774084583699896 11.224641735843495 #
edge $-1 $444 1 $444 0 $256 $-1 forward 7 unknown #
vertex $-1 $257 $445 #
ellipse-curve $-1 14.64068834367643 35.405324518217434 7.9987653506439971 0 0.85716730853699208 0.51503806187062418 2 0 0 1 I I #
point $-1 16.64068834367643 40.774084583699896 11.224641735843495 #
plane-surface $-1 0 0 18.415933031368361 0 0 1 1 0 0 forward_v I I I I #
coedge $-1 $376 $375 $368 $446 forward $261 $-1 #
coedge $-1 $368 $263 $265 $372 reversed $172 $-1 #
coedge $-1 $263 $367 $366 $446 reversed $172 $-1 #
coedge $-1 $271 $266 $263 $370 forward $272 $-1 #
edge $-1 $373 -51.640614067283792 $447 -42.9986868861928 $369 $448 forward 7 unknown #
coedge $-1 $265 $264 $376 $449 reversed $108 $-1 #
edge $-1 $450 -2.787470371894754e-014 $373 16.779201035557254 $367 $451 forward 7 unknown #
vertex $-1 $267 $452 #
straight-curve $-1 1.6814524214587578 -36.453120993154386 18.415933031368361 -1 0 0 I I #
coedge $-1 $366 $268 $271 $380 reversed $261 $-1 #
coedge $-1 $268 $366 $371 $449 forward $261 $-1 #
vertex $-1 $269 $453 #
straight-curve $-1 22.159210677515702 -45.095048174245377 41.40081076340438 0 0 1 I I #
straight-curve $-1 22.159210677515702 -45.095048174245363 4.0333504403186424 0 -0.51503806187062418 -0.85716730853699208 I I #
edge $-1 $447 -15.433400991680671 $273 22.159210677515702 $375 $454 forward 7 unknown #
point $-1 22.159210677515702 -45.095048174245377 18.415933031368361 #
point $-1 22.159210677515702 -36.453120993154386 18.415933031368361 #
edge $-1 $455 1 $455 0 $276 $-1 forward 7 unknown #
vertex $-1 $277 $456 #
ellipse-curve $-1 -7.914878657841399 -35.405324518217427 7.9987653506440042 0 -0.85716730853699208 0.51503806187062418 2 0 0 1 I I #
point $-1 -5.914878657841399 -40.774084583699889 11.224641735843502 #
edge $-1 $457 1 $457 0 $280 $-1 forward 7 unknown #
vertex $-1 $281 $458 #
ellipse-curve $-1 3.3629048429175157 -35.405324518217427 7.9987653506440042 0 -0.85716730853699208 0.51503806187062418 2 0 0 1 I I #
point $-1 5.3629048429175157 -40.774084583699889 11.224641735843502 #
edge $-1 $459 1 $459 0 $284 $-1 forward 7 unknown #
vertex $-1 $285 $460 #
ellipse-curve $-1 14.64068834367643 -35.405324518217427 7.9987653506440042 0 -0.85716730853699208 0.51503806187062418 2 0 0 1 I I #
point $-1 16.64068834367643 -40.774084583699889 11.224641735843502 #
plane-surface $-1 76.468398083437606 0 0 -1 0 0 0 0 1 forward_v I I I I #
coedge $-1 $291 $405 $294 $399 reversed $201 $-1 #
vertex $-1 $399 $461 #
straight-curve $-1 -76.468398083437606 -45.095048174245377 0 0 0 -1 I I #
edge $-1 $397 -45.095048174245377 $401 45.095048174245377 $396 $462 forward 7 unknown #
straight-curve $-1 0 -45.095048174245377 -18.415933031368361 -1 0 0 I I #
vertex $-1 $297 $463 #
straight-curve $-1 0 45.095048174245377 -18.415933031368361 1 0 0 I I #
point $-1 76.468398083437606 45.095048174245377 -18.415933031368361 #
point $-1 76.468398083437606 -45.095048174245377 -18.415933031368361 #
coedge $-1 $396 $301 $304 $407 forward $201 $-1 #
straight-curve $-1 -76.468398083437606 0 18.415933031368361 0 -1 0 I I #
edge $-1 $305 -18.415933031368361 $401 18.415933031368361 $304 $464 forward 7 unknown #
point $-1 -76.468398083437606 45.095048174245377 18.415933031368361 #
point $-1 -76.468398083437606 -45.095048174245377 18.415933031368361 #
straight-curve $-1 76.468398083437606 -45.095048174245377 0 0 0 -1 I I #
straight-curve $-1 76.468398083437606 45.095048174245377 0 0 0 -1 I I #
plane-surface $-1 0 -45.095048174245377 0 0 1 0 0 0 1 forward_v I I I I #
coedge $-1 $465 $317 $416 $466 reversed $220 $-1 #
coedge $-1 $317 $465 $331 $427 reversed $220 $-1 #
edge $-1 $419 -3.7790121802306516 $417 3.7790121802306516 $318 $467 forward 7 unknown #
coedge $-1 $319 $422 $413 $466 forward $315 $-1 #
vertex $-1 $320 $468 #
straight-curve $-1 0 45.095048174245377 -18.415933031368361 1 0 0 I I #
vertex $-1 $321 $469 #
straight-curve $-1 -85.306916264572692 45.095048174245377 -10.857908670907058 -1 0 0 I I #
point $-1 -76.468398083437606 45.095048174245377 -18.415933031368361 #
coedge $-1 $416 $324 $327 $425 forward $315 $-1 #
straight-curve $-1 -76.468398083437606 0 -18.415933031368361 0 -1 0 I I #
coedge $-1 $327 $326 $465 $470 forward $328 $-1 #
edge $-1 $329 -8.8385181811350861 $471 8.8385181811350861 $327 $472 forward 7 unknown #
point $-1 -76.468398083437606 -45.095048174245377 -18.415933031368361 #
edge $-1 $419 -45.095048174245377 $428 45.095048174245377 $414 $473 forward 7 unknown #
vertex $-1 $427 $474 #
straight-curve $-1 -85.306916264572692 -45.095048174245377 -10.857908670907058 1 0 0 I I #
coedge $-1 $346 $345 $338 $431 forward $335 $-1 #
edge $-1 $432 61.638878803899921 $435 76.021461394949654 $430 $475 forward 7 unknown #
vertex $-1 $350 $476 #
straight-curve $-1 22.159210677515702 64.868068848812413 18.415933031368354 0 1 0 I I #
edge $-1 $435 -20.477758256056944 $347 17.114853413139429 $346 $477 forward 7 unknown #
vertex $-1 $434 $478 #
straight-curve $-1 22.159210677515702 -1.3562842490061655 81.341352584046447 0 -0.51503806187062418 0.85716730853699208 I I #
point $-1 22.159210677515702 36.453120993154386 18.415933031368361 #
point $-1 -15.433400991680671 45.095048174245377 4.0333504403186282 #
straight-curve $-1 0 45.095048174245377 18.415933031368361 -1 0 0 I I #
vertex $-1 $353 $479 #
point $-1 -5.914878657841399 35.405324518217434 7.9987653506439971 #
vertex $-1 $357 $480 #
point $-1 5.3629048429175157 35.405324518217434 7.9987653506439971 #
vertex $-1 $361 $481 #
point $-1 16.64068834367643 35.405324518217434 7.9987653506439971 #
edge $-1 $447 22.984877732036018 $450 37.367460323085758 $366 $482 forward 7 unknown #
vertex $-1 $380 $483 #
straight-curve $-1 -15.433400991680671 -88.093735060438178 18.415933031368361 0 -1 0 I I #
edge $-1 $450 -17.114853413139429 $377 20.477758256056944 $376 $484 forward 7 unknown #
vertex $-1 $449 $485 #
straight-curve $-1 -15.433400991680671 -45.095048174245363 4.0333504403186424 0 0.51503806187062418 0.85716730853699208 I I #
point $-1 -15.433400991680671 -36.453120993154386 18.415933031368361 #
point $-1 22.159210677515702 -45.095048174245377 4.0333504403186184 #
straight-curve $-1 0 -45.095048174245377 18.415933031368361 1 0 0 I I #
vertex $-1 $383 $486 #
point $-1 -5.914878657841399 -35.405324518217427 7.9987653506440042 #
vertex $-1 $387 $487 #
point $-1 5.3629048429175157 -35.405324518217427 7.9987653506440042 #
vertex $-1 $391 $488 #
point $-1 16.64068834367643 -35.405324518217427 7.9987653506440042 #
point $-1 -76.468398083437606 -45.095048174245377 -18.415933031368361 #
straight-curve $-1 -76.468398083437606 0 -18.415933031368361 0 1 0 I I #
point $-1 -76.468398083437606 45.095048174245377 -18.415933031368361 #
straight-curve $-1 -76.468398083437606 45.095048174245377 0 0 0 -1 I I #
coedge $-1 $414 $413 $424 $470 reversed $220 $-1 #
edge $-1 $471 -45.095048174245377 $417 45.095048174245377 $413 $489 forward 7 unknown #
straight-curve $-1 -94.145434445707778 45.095048174245377 -14.63692085113771 0 0 -1 I I #
point $-1 -94.145434445707778 45.095048174245377 -18.415933031368361 #
point $-1 -94.145434445707778 45.095048174245377 -10.857908670907058 #
edge $-1 $428 -3.7790121802306516 $471 3.7790121802306516 $465 $490 forward 7 unknown #
vertex $-1 $466 $491 #
straight-curve $-1 -85.306916264572692 -45.095048174245377 -18.415933031368361 -1 0 0 I I #
straight-curve $-1 -94.145434445707778 0 -10.857908670907058 0 -1 0 I I #
point $-1 -94.145434445707778 -45.095048174245377 -10.857908670907058 #
straight-curve $-1 22.159210677515702 45.095048174245377 80.054811835268282 0 0 -1 I I #
point $-1 22.159210677515702 45.095048174245377 18.415933031368361 #
straight-curve $-1 1.6814524214587578 45.095048174245377 4.0333504403186069 -1 0 0 I I #
point $-1 22.159210677515702 45.095048174245377 4.0333504403186282 #
point $-1 -7.914878657841399 33.690989901143446 6.9686892269027494 #
point $-1 3.3629048429175157 33.690989901143446 6.9686892269027494 #
point $-1 14.64068834367643 33.690989901143446 6.9686892269027494 #
straight-curve $-1 -15.433400991680671 -45.095048174245377 41.40081076340438 0 0 -1 I I #
point $-1 -15.433400991680671 -45.095048174245377 18.415933031368361 #
straight-curve $-1 1.6814524214587578 -45.095048174245377 4.0333504403186149 1 0 0 I I #
point $-1 -15.433400991680671 -45.095048174245377 4.0333504403186184 #
point $-1 -7.914878657841399 -33.690989901143439 6.9686892269027565 #
point $-1 3.3629048429175157 -33.690989901143439 6.9686892269027565 #
point $-1 14.64068834367643 -33.690989901143439 6.9686892269027565 #
straight-curve $-1 -94.145434445707778 0 -18.415933031368361 0 1 0 I I #
straight-curve $-1 -94.145434445707778 -45.095048174245377 -14.63692085113771 0 0 -1 I I #
point $-1 -94.145434445707778 -45.095048174245377 -18.415933031368361 #
End-of-ACIS-data 