500 0 12 0           
7 Unknown 11 ACIS 5.0 NT 24 Fri Mar 26 19:38:49 1999 
-1 9.9999999999999995e-007 1e-010 
body $-1 $12 $-1 $13 #
body $-1 $14 $-1 $15 #
body $-1 $16 $-1 $17 #
body $-1 $18 $-1 $19 #
body $-1 $20 $-1 $21 #
body $-1 $22 $-1 $23 #
body $-1 $24 $-1 $25 #
body $-1 $26 $-1 $27 #
body $-1 $28 $-1 $29 #
body $-1 $30 $-1 $31 #
body $-1 $32 $-1 $33 #
body $-1 $34 $-1 $35 #
lump $-1 $-1 $36 $0 #
transform $-1 1 0 0 0 1 0 0 0 1 79.167455061494792 49.978155618932547 20.599993040978458 1 rotate no_reflect no_shear #
lump $-1 $-1 $37 $1 #
transform $-1 1 0 0 0 1 0 0 0 1 79.167455061494792 49.978155618932547 20.599993040978458 1 rotate no_reflect no_shear #
lump $-1 $-1 $38 $2 #
transform $-1 1 0 0 0 1 0 0 0 1 79.167455061494792 49.978155618932547 20.599993040978458 1 rotate no_reflect no_shear #
lump $-1 $-1 $39 $3 #
transform $-1 1 0 0 0 1 0 0 0 1 79.167455061494792 49.978155618932547 20.599993040978458 1 rotate no_reflect no_shear #
lump $-1 $-1 $40 $4 #
transform $-1 1 0 0 0 1 0 0 0 1 79.167455061494792 49.978155618932547 20.599993040978458 1 rotate no_reflect no_shear #
lump $-1 $-1 $41 $5 #
transform $-1 1 0 0 0 1 0 0 0 1 79.167455061494792 49.978155618932547 20.599993040978458 1 rotate no_reflect no_shear #
lump $-1 $-1 $42 $6 #
transform $-1 1 0 0 0 1 0 0 0 1 79.167455061494792 49.978155618932547 20.599993040978458 1 rotate no_reflect no_shear #
lump $-1 $-1 $43 $7 #
transform $-1 1 0 0 0 1 0 0 0 1 79.167455061494792 49.978155618932547 20.599993040978458 1 rotate no_reflect no_shear #
lump $-1 $-1 $44 $8 #
transform $-1 1 0 0 0 1 0 0 0 1 79.167455061494792 49.978155618932547 20.599993040978458 1 rotate no_reflect no_shear #
lump $-1 $-1 $45 $9 #
transform $-1 1 0 0 0 1 0 0 0 1 79.167455061494792 49.978155618932547 20.599993040978458 1 rotate no_reflect no_shear #
lump $-1 $-1 $46 $10 #
transform $-1 1 0 0 0 1 0 0 0 1 79.167455061494792 49.978155618932547 20.599993040978458 1 rotate no_reflect no_shear #
lump $-1 $-1 $47 $11 #
transform $-1 1 0 0 0 1 0 0 0 1 79.167455061494792 49.978155618932547 20.599993040978458 1 rotate no_reflect no_shear #
shell $-1 $-1 $-1 $48 $-1 $12 #
shell $-1 $-1 $-1 $49 $-1 $14 #
shell $-1 $-1 $-1 $50 $-1 $16 #
shell $-1 $-1 $-1 $51 $-1 $18 #
shell $-1 $-1 $-1 $52 $-1 $20 #
shell $-1 $-1 $-1 $53 $-1 $22 #
shell $-1 $-1 $-1 $54 $-1 $24 #
shell $-1 $-1 $-1 $55 $-1 $26 #
shell $-1 $-1 $-1 $56 $-1 $28 #
shell $-1 $-1 $-1 $57 $-1 $30 #
shell $-1 $-1 $-1 $58 $-1 $32 #
shell $-1 $-1 $-1 $59 $-1 $34 #
face $-1 $60 $61 $36 $-1 $62 reversed single #
face $-1 $63 $64 $37 $-1 $65 forward single #
face $-1 $66 $67 $38 $-1 $68 forward single #
face $-1 $69 $70 $39 $-1 $71 reversed single #
face $-1 $72 $73 $40 $-1 $74 forward single #
face $-1 $75 $76 $41 $-1 $77 forward single #
face $-1 $78 $79 $42 $-1 $80 reversed single #
face $-1 $81 $82 $43 $-1 $83 forward single #
face $-1 $84 $85 $44 $-1 $86 forward single #
face $-1 $87 $88 $45 $-1 $89 reversed single #
face $-1 $90 $91 $46 $-1 $92 forward single #
face $-1 $93 $94 $47 $-1 $95 forward single #
face $-1 $96 $97 $36 $-1 $98 forward single #
loop $-1 $-1 $99 $48 #
plane-surface $-1 79.167455061494792 0 0 -1 0 0 0 0 1 forward_v I I I I #
face $-1 $100 $101 $37 $-1 $102 forward single #
loop $-1 $-1 $103 $49 #
plane-surface $-1 -79.167455061494792 0 0 1 0 0 0 0 -1 forward_v I I I I #
face $-1 $104 $105 $38 $-1 $106 reversed single #
loop $-1 $-1 $107 $50 #
plane-surface $-1 79.167455061494792 0 0 -1 0 0 0 0 1 forward_v I I I I #
face $-1 $108 $109 $39 $-1 $110 reversed single #
loop $-1 $-1 $111 $51 #
plane-surface $-1 -54.265437544937356 91.258060885857432 195.51061332631707 1 0 0 0 -0.70710678939079041 -0.70710677298230451 forward_v I I I I #
face $-1 $112 $113 $40 $-1 $114 forward single #
loop $-1 $115 $116 $52 #
cone-surface $-1 -45.800868501714945 44.220372740258803 14.842210116565816 0 -0.70710678939079041 -0.70710677298230451 1.5 0 0 1 I I 0 1 1.5 forward I I I I #
face $-1 $117 $118 $41 $-1 $119 forward single #
loop $-1 $120 $121 $53 #
cone-surface $-1 -33.104014936881327 44.220372740258803 14.842210116565816 0 -0.70710678939079041 -0.70710677298230451 1.5 0 0 1 I I 0 1 1.5 forward I I I I #
face $-1 $122 $123 $42 $-1 $124 reversed single #
loop $-1 $-1 $125 $54 #
plane-surface $-1 -38.961207567338036 -181.24374643641823 102.12634711565796 -1 0 0 0 -0.82903758062907751 0.55919289150049634 forward_v I I I I #
face $-1 $126 $127 $43 $-1 $128 forward single #
loop $-1 $129 $130 $55 #
cone-surface $-1 -52.338023555188101 -46.397326756158499 16.273407198843657 0 0.82903758062907751 -0.55919289150049634 1.5 0 0 1 I I 0 1 1.5 forward I I I I #
face $-1 $131 $132 $44 $-1 $133 forward single #
loop $-1 $134 $135 $56 #
cone-surface $-1 -44.311933962478065 -46.397326756158499 16.273407198843657 0 0.82903758062907751 -0.55919289150049634 1.5 0 0 1 I I 0 1 1.5 forward I I I I #
face $-1 $136 $137 $45 $-1 $138 reversed single #
loop $-1 $-1 $139 $57 #
plane-surface $-1 21.812007179518655 -181.24374643641823 102.12634711565796 -1 0 0 0 -0.82903758062907751 0.55919289150049634 forward_v I I I I #
face $-1 $140 $141 $46 $-1 $142 forward single #
loop $-1 $143 $144 $58 #
cone-surface $-1 8.4351911916685935 -46.397326756158499 16.273407198843657 0 0.82903758062907751 -0.55919289150049634 1.5 0 0 1 I I 0 1 1.5 forward I I I I #
face $-1 $145 $146 $47 $-1 $147 forward single #
loop $-1 $148 $149 $59 #
cone-surface $-1 16.46128078437863 -46.397326756158499 16.273407198843657 0 0.82903758062907751 -0.55919289150049634 1.5 0 0 1 I I 0 1 1.5 forward I I I I #
face $-1 $150 $151 $36 $-1 $152 reversed single #
loop $-1 $-1 $153 $60 #
plane-surface $-1 0 0 20.599993040978458 0 0 1 1 0 0 forward_v I I I I #
coedge $-1 $154 $155 $156 $157 reversed $61 $-1 #
face $-1 $158 $159 $37 $-1 $160 reversed single #
loop $-1 $-1 $161 $63 #
plane-surface $-1 0 0 20.599993040978458 0 0 1 1 0 0 forward_v I I I I #
coedge $-1 $162 $163 $164 $165 forward $64 $-1 #
face $-1 $166 $167 $38 $-1 $168 reversed single #
loop $-1 $-1 $169 $66 #
plane-surface $-1 0 -49.978155618932547 0 0 1 0 0 0 1 forward_v I I I I #
coedge $-1 $170 $171 $172 $173 forward $67 $-1 #
face $-1 $174 $175 $39 $-1 $176 reversed single #
loop $-1 $-1 $177 $69 #
plane-surface $-1 -39.452441719298136 -20.701629059689097 83.550925978806688 0 0.70710678939079041 0.70710677298230451 1 0 0 forward_v I I I I #
coedge $-1 $178 $179 $180 $181 reversed $70 $-1 #
face $-1 $-1 $182 $40 $-1 $183 forward single #
loop $-1 $184 $185 $72 #
cone-surface $-1 -45.800868501714945 41.796686370330121 12.418523802879026 0 -0.70710678939079041 -0.70710677298230451 0.75 0 0 1 I I -0.70710678118654757 0.70710678118654757 0.75 forward I I I I #
loop $-1 $-1 $186 $52 #
coedge $-1 $116 $116 $187 $188 reversed $73 $-1 #
face $-1 $-1 $189 $41 $-1 $190 forward single #
loop $-1 $191 $192 $75 #
cone-surface $-1 -33.104014936881327 41.796686370330121 12.418523802879026 0 -0.70710678939079041 -0.70710677298230451 0.75 0 0 1 I I -0.70710678118654757 0.70710678118654757 0.75 forward I I I I #
loop $-1 $-1 $193 $53 #
coedge $-1 $121 $121 $194 $195 reversed $76 $-1 #
face $-1 $196 $197 $42 $-1 $198 reversed single #
loop $-1 $-1 $199 $78 #
plane-surface $-1 -48.324978758833083 -49.978155618932504 13.586590898512213 0 -0.82903758062907751 0.55919289150049634 1 0 0 forward_v I I I I #
coedge $-1 $200 $201 $202 $203 reversed $79 $-1 #
face $-1 $-1 $204 $43 $-1 $205 forward single #
loop $-1 $206 $207 $81 #
cone-surface $-1 -52.338023555188101 -44.560019372811766 15.034127759316601 0 0.82903758062907751 -0.55919289150049634 0.75 0 0 1 I I -0.70710678118654757 0.70710678118654757 0.75 forward I I I I #
loop $-1 $-1 $208 $55 #
coedge $-1 $130 $130 $209 $210 reversed $82 $-1 #
face $-1 $-1 $211 $44 $-1 $212 forward single #
loop $-1 $213 $214 $84 #
cone-surface $-1 -44.311933962478065 -44.560019372811766 15.034127759316601 0 0.82903758062907751 -0.55919289150049634 0.75 0 0 1 I I -0.70710678118654757 0.70710678118654757 0.75 forward I I I I #
loop $-1 $-1 $215 $56 #
coedge $-1 $135 $135 $216 $217 reversed $85 $-1 #
face $-1 $218 $219 $45 $-1 $220 reversed single #
loop $-1 $-1 $221 $87 #
plane-surface $-1 12.448235988023612 -49.978155618932504 13.586590898512213 0 -0.82903758062907751 0.55919289150049634 1 0 0 forward_v I I I I #
coedge $-1 $222 $223 $224 $225 reversed $88 $-1 #
face $-1 $-1 $226 $46 $-1 $227 forward single #
loop $-1 $228 $229 $90 #
cone-surface $-1 8.4351911916685935 -44.560019372811766 15.034127759316601 0 0.82903758062907751 -0.55919289150049634 0.75 0 0 1 I I -0.70710678118654757 0.70710678118654757 0.75 forward I I I I #
loop $-1 $-1 $230 $58 #
coedge $-1 $144 $144 $231 $232 reversed $91 $-1 #
face $-1 $-1 $233 $47 $-1 $234 forward single #
loop $-1 $235 $236 $93 #
cone-surface $-1 16.46128078437863 -44.560019372811766 15.034127759316601 0 0.82903758062907751 -0.55919289150049634 0.75 0 0 1 I I -0.70710678118654757 0.70710678118654757 0.75 forward I I I I #
loop $-1 $-1 $237 $59 #
coedge $-1 $149 $149 $238 $239 reversed $94 $-1 #
face $-1 $240 $241 $36 $-1 $242 reversed single #
loop $-1 $-1 $156 $96 #
plane-surface $-1 0 0 -20.599993040978458 0 0 1 1 0 0 forward_v I I I I #
coedge $-1 $243 $244 $245 $246 forward $97 $-1 #
coedge $-1 $245 $99 $247 $248 reversed $61 $-1 #
coedge $-1 $99 $245 $249 $250 forward $61 $-1 #
coedge $-1 $251 $252 $99 $157 forward $151 $-1 #
edge $-1 $253 -49.978155618932547 $254 49.978155618932547 $99 $255 forward 7 unknown #
face $-1 $256 $257 $37 $-1 $258 reversed single #
loop $-1 $-1 $259 $100 #
plane-surface $-1 -97.561695376132889 -45.623344626301126 0 1 0 0 0 0 -1 forward_v I I I I #
coedge $-1 $260 $261 $162 $262 forward $101 $-1 #
coedge $-1 $263 $103 $161 $262 reversed $64 $-1 #
coedge $-1 $103 $263 $264 $265 reversed $64 $-1 #
coedge $-1 $266 $267 $103 $165 reversed $257 $-1 #
edge $-1 $268 -20.599993040978458 $269 20.599993040978458 $164 $270 forward 7 unknown #
face $-1 $271 $272 $38 $-1 $273 reversed single #
loop $-1 $-1 $274 $104 #
plane-surface $-1 0 0 -20.599993040978458 0 0 1 1 0 0 forward_v I I I I #
coedge $-1 $275 $276 $277 $278 forward $105 $-1 #
coedge $-1 $277 $107 $274 $279 reversed $67 $-1 #
coedge $-1 $107 $277 $280 $281 reversed $67 $-1 #
coedge $-1 $282 $283 $107 $173 reversed $272 $-1 #
edge $-1 $284 -20.599993040978458 $285 20.599993040978458 $172 $286 forward 7 unknown #
face $-1 $287 $288 $39 $-1 $289 reversed single #
loop $-1 $-1 $290 $108 #
plane-surface $-1 -24.639445893658916 91.258060885857432 195.51061332631707 -1 0 0 0 0.70710678939079041 0.70710677298230451 forward_v I I I I #
coedge $-1 $291 $292 $293 $294 reversed $109 $-1 #
coedge $-1 $179 $111 $295 $296 reversed $70 $-1 #
coedge $-1 $111 $178 $291 $297 reversed $70 $-1 #
coedge $-1 $293 $298 $111 $181 forward $299 $-1 #
edge $-1 $300 -4.349125176003831 $301 3.3797280255724687 $180 $302 forward 7 unknown #
loop $-1 $-1 $187 $112 #
plane-surface $-1 -39.452441719298136 -20.701629059689097 83.550925978806688 0 0.70710678939079041 0.70710677298230451 1 0 0 forward_v I I I I #
loop $-1 $-1 $303 $72 #
coedge $-1 $185 $185 $186 $304 reversed $113 $-1 #
coedge $-1 $186 $186 $185 $304 forward $115 $-1 #
coedge $-1 $187 $187 $116 $188 forward $182 $-1 #
edge $-1 $305 1.674765308694244e-015 $305 6.2831853071796022 $187 $306 forward 7 unknown #
loop $-1 $-1 $194 $117 #
plane-surface $-1 -39.452441719298136 -20.701629059689097 83.550925978806688 0 0.70710678939079041 0.70710677298230451 1 0 0 forward_v I I I I #
loop $-1 $-1 $307 $75 #
coedge $-1 $192 $192 $193 $308 reversed $118 $-1 #
coedge $-1 $193 $193 $192 $308 forward $120 $-1 #
coedge $-1 $194 $194 $121 $195 forward $189 $-1 #
edge $-1 $309 1.674765308694244e-015 $309 6.2831853071796022 $194 $310 forward 7 unknown #
face $-1 $311 $312 $42 $-1 $313 forward single #
loop $-1 $-1 $314 $122 #
plane-surface $-1 -57.68874995032813 -181.24374643641823 102.12634711565796 1 0 0 0 0.82903758062907751 -0.55919289150049634 forward_v I I I I #
coedge $-1 $315 $316 $317 $318 reversed $123 $-1 #
coedge $-1 $201 $125 $319 $320 reversed $79 $-1 #
coedge $-1 $125 $200 $315 $321 reversed $79 $-1 #
coedge $-1 $317 $322 $125 $203 forward $312 $-1 #
edge $-1 $323 40.64371759927657 $324 45.374316929074858 $202 $325 forward 7 unknown #
loop $-1 $-1 $209 $126 #
plane-surface $-1 -48.324978758833083 -49.978155618932504 13.586590898512213 0 -0.82903758062907751 0.55919289150049634 1 0 0 forward_v I I I I #
loop $-1 $-1 $326 $81 #
coedge $-1 $207 $207 $208 $327 reversed $127 $-1 #
coedge $-1 $208 $208 $207 $327 forward $129 $-1 #
coedge $-1 $209 $209 $130 $210 forward $204 $-1 #
edge $-1 $328 1.1858540265793587e-015 $328 6.2831853071796013 $209 $329 forward 7 unknown #
loop $-1 $-1 $216 $131 #
plane-surface $-1 -48.324978758833083 -49.978155618932504 13.586590898512213 0 -0.82903758062907751 0.55919289150049634 1 0 0 forward_v I I I I #
loop $-1 $-1 $330 $84 #
coedge $-1 $214 $214 $215 $331 reversed $132 $-1 #
coedge $-1 $215 $215 $214 $331 forward $134 $-1 #
coedge $-1 $216 $216 $135 $217 forward $211 $-1 #
edge $-1 $332 1.1858540265793587e-015 $332 6.2831853071796013 $216 $333 forward 7 unknown #
face $-1 $334 $335 $45 $-1 $336 reversed single #
loop $-1 $-1 $337 $136 #
plane-surface $-1 3.0844647965285681 -181.24374643641823 102.12634711565796 1 0 0 0 0.82903758062907751 -0.55919289150049634 forward_v I I I I #
coedge $-1 $338 $339 $340 $341 reversed $137 $-1 #
coedge $-1 $223 $139 $342 $343 reversed $88 $-1 #
coedge $-1 $139 $222 $338 $344 reversed $88 $-1 #
coedge $-1 $340 $345 $139 $225 forward $346 $-1 #
edge $-1 $347 40.64371759927657 $348 45.374316929074858 $224 $349 forward 7 unknown #
loop $-1 $-1 $231 $140 #
plane-surface $-1 12.448235988023612 -49.978155618932504 13.586590898512213 0 -0.82903758062907751 0.55919289150049634 1 0 0 forward_v I I I I #
loop $-1 $-1 $350 $90 #
coedge $-1 $229 $229 $230 $351 reversed $141 $-1 #
coedge $-1 $230 $230 $229 $351 forward $143 $-1 #
coedge $-1 $231 $231 $144 $232 forward $226 $-1 #
edge $-1 $352 1.1858540265793587e-015 $352 6.2831853071796013 $231 $353 forward 7 unknown #
loop $-1 $-1 $238 $145 #
plane-surface $-1 12.448235988023612 -49.978155618932504 13.586590898512213 0 -0.82903758062907751 0.55919289150049634 1 0 0 forward_v I I I I #
loop $-1 $-1 $354 $93 #
coedge $-1 $236 $236 $237 $355 reversed $146 $-1 #
coedge $-1 $237 $237 $236 $355 forward $148 $-1 #
coedge $-1 $238 $238 $149 $239 forward $233 $-1 #
edge $-1 $356 1.1858540265793587e-015 $356 6.2831853071796013 $238 $357 forward 7 unknown #
face $-1 $358 $359 $36 $-1 $360 reversed single #
loop $-1 $-1 $361 $150 #
plane-surface $-1 0 -49.978155618932547 0 0 1 0 0 0 1 forward_v I I I I #
coedge $-1 $362 $153 $363 $364 forward $97 $-1 #
coedge $-1 $153 $362 $365 $366 forward $97 $-1 #
coedge $-1 $155 $154 $153 $246 reversed $61 $-1 #
edge $-1 $367 -49.978155618932547 $368 49.978155618932547 $245 $369 forward 7 unknown #
coedge $-1 $370 $363 $154 $248 forward $371 $-1 #
edge $-1 $368 -20.599993040978458 $253 20.599993040978458 $154 $372 forward 7 unknown #
coedge $-1 $365 $373 $155 $250 reversed $241 $-1 #
edge $-1 $367 -20.599993040978458 $254 20.599993040978458 $155 $374 forward 7 unknown #
coedge $-1 $375 $156 $373 $376 forward $151 $-1 #
coedge $-1 $156 $375 $370 $377 forward $151 $-1 #
vertex $-1 $157 $378 #
vertex $-1 $250 $379 #
straight-curve $-1 79.167455061494792 0 -20.599993040978458 0 -1 0 I I #
face $-1 $380 $381 $37 $-1 $382 reversed single #
loop $-1 $-1 $164 $158 #
plane-surface $-1 -88.36457521881384 -41.268533633669705 0 0 -1 0 0 0 -1 forward_v I I I I #
coedge $-1 $383 $384 $385 $386 forward $159 $-1 #
coedge $-1 $387 $161 $267 $388 forward $101 $-1 #
coedge $-1 $161 $387 $389 $390 forward $101 $-1 #
edge $-1 $391 -49.978155618932547 $269 -41.268533633669705 $161 $392 forward 7 unknown #
coedge $-1 $163 $162 $393 $394 reversed $64 $-1 #
coedge $-1 $395 $396 $163 $265 forward $381 $-1 #
edge $-1 $268 41.268533633669705 $397 49.978155618932547 $264 $398 forward 7 unknown #
coedge $-1 $385 $164 $396 $399 reversed $257 $-1 #
coedge $-1 $164 $385 $260 $388 reversed $257 $-1 #
vertex $-1 $265 $400 #
vertex $-1 $388 $401 #
straight-curve $-1 -79.167455061494792 -41.268533633669705 0 0 0 1 I I #
face $-1 $402 $403 $38 $-1 $404 reversed single #
loop $-1 $-1 $405 $166 #
plane-surface $-1 88.364575218813826 -41.268533633669705 0 0 -1 0 0 0 -1 forward_v I I I I #
coedge $-1 $406 $407 $170 $279 forward $167 $-1 #
coedge $-1 $408 $169 $407 $409 reversed $105 $-1 #
coedge $-1 $169 $408 $410 $411 reversed $105 $-1 #
coedge $-1 $171 $170 $169 $278 reversed $67 $-1 #
edge $-1 $412 -20.599993040978458 $413 20.599993040978458 $169 $414 forward 7 unknown #
edge $-1 $413 -49.978155618932547 $285 -41.268533633669705 $274 $415 forward 7 unknown #
coedge $-1 $410 $416 $171 $281 forward $417 $-1 #
edge $-1 $284 41.268533633669705 $412 49.978155618932547 $280 $418 forward 7 unknown #
coedge $-1 $405 $172 $416 $419 reversed $272 $-1 #
coedge $-1 $172 $405 $406 $420 reversed $272 $-1 #
vertex $-1 $281 $421 #
vertex $-1 $420 $422 #
straight-curve $-1 79.167455061494792 -41.268533633669705 0 0 0 -1 I I #
face $-1 $-1 $299 $39 $-1 $423 forward single #
loop $-1 $-1 $424 $174 #
plane-surface $-1 0 49.978155618932547 0 0 -1 0 0 0 -1 forward_v I I I I #
coedge $-1 $425 $426 $427 $428 reversed $175 $-1 #
coedge $-1 $429 $177 $179 $297 forward $109 $-1 #
coedge $-1 $177 $429 $425 $430 forward $109 $-1 #
coedge $-1 $427 $180 $177 $294 forward $299 $-1 #
edge $-1 $301 -34.539216685288288 $431 -4.913225034009848 $293 $432 forward 7 unknown #
coedge $-1 $433 $434 $178 $296 forward $288 $-1 #
edge $-1 $435 -84.884167003105219 $300 -77.155313622180074 $295 $436 forward 7 unknown #
edge $-1 $301 89.026062091786414 $435 99.956311237865123 $179 $437 forward 7 unknown #
coedge $-1 $180 $427 $433 $438 forward $299 $-1 #
loop $-1 $-1 $427 $287 #
vertex $-1 $296 $439 #
vertex $-1 $181 $440 #
straight-curve $-1 -54.265437544937356 45.629030442928716 20.599993040978461 0 -1 0 I I #
coedge $-1 $303 $303 $-1 $441 reversed $184 $-1 #
edge $-1 $442 0 $442 6.2831853071796004 $185 $443 forward 7 unknown #
vertex $-1 $188 $444 #
ellipse-curve $-1 -45.800868501714945 46.113729018144397 16.735566350515882 0 0.70710678939079041 0.70710677298230451 1.5 0 0 1 I I #
coedge $-1 $307 $307 $-1 $445 reversed $191 $-1 #
edge $-1 $446 0 $446 6.2831853071796004 $192 $447 forward 7 unknown #
vertex $-1 $195 $448 #
ellipse-curve $-1 -33.104014936881327 46.113729018144397 16.735566350515882 0 0.70710678939079041 0.70710677298230451 1.5 0 0 1 I I #
face $-1 $-1 $449 $42 $-1 $450 reversed single #
loop $-1 $-1 $202 $196 #
plane-surface $-1 0 0 20.599993040978458 0 0 1 1 0 0 forward_v I I I I #
coedge $-1 $451 $452 $453 $454 reversed $197 $-1 #
coedge $-1 $455 $199 $201 $321 forward $123 $-1 #
coedge $-1 $199 $455 $451 $456 forward $123 $-1 #
coedge $-1 $453 $202 $199 $318 forward $312 $-1 #
edge $-1 $324 14.798718187921494 $457 33.526260570911589 $317 $458 forward 7 unknown #
coedge $-1 $459 $460 $200 $320 forward $449 $-1 #
edge $-1 $461 -37.476582659316833 $323 -30.463180516850525 $319 $462 forward 7 unknown #
edge $-1 $324 -8.4596914619291947 $461 7.685582356959255e-014 $201 $463 forward 7 unknown #
coedge $-1 $202 $453 $459 $464 forward $312 $-1 #
vertex $-1 $203 $465 #
vertex $-1 $203 $466 #
straight-curve $-1 -38.961207567338036 -90.621873218209117 20.599993040978454 0 1 0 I I #
coedge $-1 $326 $326 $-1 $467 reversed $206 $-1 #
edge $-1 $468 0 $468 6.2831853071796004 $207 $469 forward 7 unknown #
vertex $-1 $210 $470 #
ellipse-curve $-1 -52.338023555188101 -47.612855954033392 17.093291969745319 0 -0.82903758062907751 0.55919289150049634 1.5 0 0 1 I I #
coedge $-1 $330 $330 $-1 $471 reversed $213 $-1 #
edge $-1 $472 0 $472 6.2831853071796004 $214 $473 forward 7 unknown #
vertex $-1 $217 $474 #
ellipse-curve $-1 -44.311933962478065 -47.612855954033392 17.093291969745319 0 -0.82903758062907751 0.55919289150049634 1.5 0 0 1 I I #
face $-1 $-1 $346 $45 $-1 $475 forward single #
loop $-1 $-1 $476 $218 #
plane-surface $-1 0 -49.978155618932547 0 0 1 0 0 0 1 forward_v I I I I #
coedge $-1 $477 $478 $479 $480 reversed $219 $-1 #
coedge $-1 $481 $221 $223 $344 forward $137 $-1 #
coedge $-1 $221 $481 $477 $482 forward $137 $-1 #
coedge $-1 $479 $224 $221 $341 forward $346 $-1 #
edge $-1 $348 -15.58788918550685 $483 3.1396531974832378 $340 $484 forward 7 unknown #
coedge $-1 $485 $486 $222 $343 forward $335 $-1 #
edge $-1 $487 -37.476582659316833 $347 -30.463180516850525 $342 $488 forward 7 unknown #
edge $-1 $348 -8.4596914619291947 $487 7.685582356959255e-014 $223 $489 forward 7 unknown #
coedge $-1 $224 $479 $485 $490 forward $346 $-1 #
loop $-1 $-1 $479 $334 #
vertex $-1 $343 $491 #
vertex $-1 $225 $492 #
straight-curve $-1 21.812007179518655 -90.621873218209117 20.599993040978454 0 1 0 I I #
coedge $-1 $350 $350 $-1 $493 reversed $228 $-1 #
edge $-1 $494 0 $494 6.2831853071796004 $229 $495 forward 7 unknown #
vertex $-1 $232 $496 #
ellipse-curve $-1 8.4351911916685935 -47.612855954033392 17.093291969745319 0 -0.82903758062907751 0.55919289150049634 1.5 0 0 1 I I #
coedge $-1 $354 $354 $-1 $497 reversed $235 $-1 #
edge $-1 $498 0 $498 6.2831853071796004 $236 $499 forward 7 unknown #
vertex $-1 $239 $500 #
ellipse-curve $-1 16.46128078437863 -47.612855954033392 17.093291969745319 0 -0.82903758062907751 0.55919289150049634 1.5 0 0 1 I I #
face $-1 $-1 $371 $36 $-1 $501 reversed single #
loop $-1 $-1 $502 $240 #
plane-surface $-1 -79.167455061494792 0 0 1 0 0 0 0 -1 forward_v I I I I #
coedge $-1 $373 $365 $503 $504 forward $241 $-1 #
coedge $-1 $244 $243 $502 $505 forward $97 $-1 #
coedge $-1 $247 $506 $243 $364 reversed $371 $-1 #
edge $-1 $368 -79.167455061494792 $507 79.167455061494792 $363 $508 forward 7 unknown #
coedge $-1 $361 $249 $244 $366 reversed $241 $-1 #
edge $-1 $509 -79.167455061494792 $367 79.167455061494792 $365 $510 forward 7 unknown #
vertex $-1 $246 $511 #
vertex $-1 $246 $512 #
straight-curve $-1 79.167455061494792 0 20.599993040978458 0 1 0 I I #
coedge $-1 $506 $247 $252 $377 reversed $371 $-1 #
loop $-1 $-1 $247 $358 #
straight-curve $-1 79.167455061494792 49.978155618932547 0 0 0 -1 I I #
coedge $-1 $249 $361 $251 $376 reversed $241 $-1 #
straight-curve $-1 79.167455061494792 -49.978155618932547 0 0 0 -1 I I #
coedge $-1 $252 $251 $513 $514 forward $151 $-1 #
edge $-1 $254 -79.167455061494792 $515 79.167455061494792 $373 $516 forward 7 unknown #
edge $-1 $517 -79.167455061494792 $253 79.167455061494792 $370 $518 forward 7 unknown #
point $-1 79.167455061494792 49.978155618932547 -20.599993040978458 #
point $-1 79.167455061494792 -49.978155618932547 -20.599993040978458 #
face $-1 $-1 $519 $37 $-1 $520 reversed single #
loop $-1 $-1 $264 $256 #
plane-surface $-1 0 0 -20.599993040978458 0 0 1 1 0 0 forward_v I I I I #
coedge $-1 $521 $259 $522 $523 reversed $159 $-1 #
coedge $-1 $259 $521 $387 $524 reversed $159 $-1 #
coedge $-1 $267 $266 $259 $386 reversed $257 $-1 #
edge $-1 $525 -20.599993040978458 $526 20.599993040978458 $385 $527 forward 7 unknown #
coedge $-1 $261 $260 $384 $524 forward $101 $-1 #
edge $-1 $269 -9.1971201573190484 $525 9.1971201573190484 $267 $528 forward 7 unknown #
coedge $-1 $529 $393 $261 $390 reversed $519 $-1 #
edge $-1 $530 -97.561695376132889 $391 -79.167455061494792 $389 $531 forward 7 unknown #
vertex $-1 $394 $532 #
straight-curve $-1 -79.167455061494792 0 20.599993040978458 0 1 0 I I #
coedge $-1 $389 $533 $263 $394 forward $519 $-1 #
edge $-1 $397 -20.599993040978458 $391 20.599993040978458 $393 $534 forward 7 unknown #
coedge $-1 $522 $264 $533 $535 forward $381 $-1 #
coedge $-1 $264 $522 $266 $399 forward $381 $-1 #
vertex $-1 $535 $536 #
straight-curve $-1 -79.167455061494792 0 -20.599993040978458 0 -1 0 I I #
edge $-1 $526 -9.1971201573190484 $268 9.1971201573190484 $266 $537 forward 7 unknown #
point $-1 -79.167455061494792 -41.268533633669705 -20.599993040978458 #
point $-1 -79.167455061494792 -41.268533633669705 20.599993040978458 #
face $-1 $-1 $417 $38 $-1 $538 forward single #
loop $-1 $-1 $539 $271 #
plane-surface $-1 97.561695376132874 -45.623344626301126 0 -1 0 0 0 0 1 forward_v I I I I #
coedge $-1 $283 $282 $540 $541 forward $272 $-1 #
coedge $-1 $542 $274 $283 $420 forward $167 $-1 #
coedge $-1 $274 $542 $275 $409 forward $167 $-1 #
coedge $-1 $276 $275 $539 $543 reversed $105 $-1 #
edge $-1 $544 -9.1971201573190484 $413 9.1971201573190342 $275 $545 forward 7 unknown #
coedge $-1 $546 $280 $276 $411 forward $417 $-1 #
edge $-1 $412 -9.1971201573190342 $547 9.1971201573190484 $276 $548 forward 7 unknown #
vertex $-1 $411 $549 #
vertex $-1 $279 $550 #
straight-curve $-1 79.167455061494792 -49.978155618932547 0 0 0 -1 I I #
straight-curve $-1 79.167455061494792 0 -20.599993040978458 0 1 0 I I #
coedge $-1 $280 $546 $282 $419 forward $417 $-1 #
loop $-1 $-1 $280 $402 #
straight-curve $-1 79.167455061494792 0 20.599993040978458 0 -1 0 I I #
edge $-1 $551 -9.1971201573190484 $284 9.1971201573190484 $282 $552 forward 7 unknown #
edge $-1 $285 -9.1971201573190484 $553 9.1971201573190484 $283 $554 forward 7 unknown #
point $-1 79.167455061494778 -41.268533633669705 20.599993040978458 #
point $-1 79.167455061494778 -41.268533633669705 -20.599993040978458 #
plane-surface $-1 0 0 20.599993040978458 0 0 1 1 0 0 forward_v I I I I #
coedge $-1 $434 $433 $426 $555 forward $288 $-1 #
coedge $-1 $426 $290 $292 $430 reversed $175 $-1 #
coedge $-1 $290 $425 $424 $555 reversed $175 $-1 #
coedge $-1 $298 $293 $290 $428 forward $299 $-1 #
edge $-1 $431 -3.3797280255724687 $556 4.349125176003831 $427 $557 forward 7 unknown #
coedge $-1 $292 $291 $434 $558 reversed $109 $-1 #
edge $-1 $559 -99.956311237865123 $431 -89.026062091786414 $425 $560 forward 7 unknown #
vertex $-1 $294 $561 #
straight-curve $-1 -19.726220859649068 42.249302417356247 20.599993040978461 1 0 0 I I #
coedge $-1 $424 $295 $298 $438 reversed $288 $-1 #
coedge $-1 $295 $424 $429 $558 forward $288 $-1 #
vertex $-1 $296 $562 #
straight-curve $-1 -54.265437544937356 49.978155618932547 97.755306663158535 0 0 1 I I #
straight-curve $-1 -54.265437544937356 -20.701629059689097 83.550925978806688 0 0.70710677298230451 -0.70710678939079041 I I #
edge $-1 $556 24.639445893658916 $300 54.265437544937356 $433 $563 forward 7 unknown #
point $-1 -54.265437544937356 49.978155618932547 20.599993040978458 #
point $-1 -54.265437544937356 42.249302417356247 20.599993040978461 #
edge $-1 $564 1 $564 0 $303 $-1 forward 7 unknown #
vertex $-1 $304 $565 #
ellipse-curve $-1 -45.800868501714945 42.327016462373216 12.948853882615754 0 0.70710678939079041 0.70710677298230451 1.5 0 0 1 I I #
point $-1 -44.300868501714945 46.113729018144397 16.735566350515878 #
edge $-1 $566 1 $566 0 $307 $-1 forward 7 unknown #
vertex $-1 $308 $567 #
ellipse-curve $-1 -33.104014936881327 42.327016462373216 12.948853882615754 0 0.70710678939079041 0.70710677298230451 1.5 0 0 1 I I #
point $-1 -31.604014936881327 46.113729018144397 16.735566350515878 #
loop $-1 $-1 $319 $311 #
plane-surface $-1 0 -49.978155618932547 0 0 1 0 0 0 1 forward_v I I I I #
coedge $-1 $452 $314 $316 $456 reversed $197 $-1 #
coedge $-1 $314 $451 $568 $569 reversed $197 $-1 #
coedge $-1 $322 $317 $314 $454 forward $312 $-1 #
edge $-1 $457 -45.374316929074858 $570 -40.64371759927657 $453 $571 forward 7 unknown #
coedge $-1 $316 $315 $460 $572 reversed $123 $-1 #
edge $-1 $573 -7.685582356959255e-014 $457 8.4596914619291947 $451 $574 forward 7 unknown #
vertex $-1 $318 $575 #
straight-curve $-1 -24.162489379416542 -45.247556289134259 20.599993040978458 -1 0 0 I I #
coedge $-1 $568 $319 $322 $464 reversed $449 $-1 #
coedge $-1 $319 $568 $455 $572 forward $449 $-1 #
vertex $-1 $320 $576 #
straight-curve $-1 -38.961207567338036 -49.978155618932547 51.063173557828982 0 0 1 I I #
straight-curve $-1 -38.961207567338036 -49.978155618932504 13.586590898512213 0 -0.55919289150049634 -0.82903758062907751 I I #
edge $-1 $570 -146.05332516914194 $323 -127.32578278615186 $459 $577 forward 7 unknown #
point $-1 -38.961207567338036 -49.978155618932547 20.599993040978458 #
point $-1 -38.961207567338036 -45.247556289134259 20.599993040978458 #
edge $-1 $578 1 $578 0 $326 $-1 forward 7 unknown #
vertex $-1 $327 $579 #
ellipse-curve $-1 -52.338023555188101 -45.181797558283577 15.453522427941973 0 -0.82903758062907751 0.55919289150049634 1.5 0 0 1 I I #
point $-1 -50.838023555188101 -47.612855954033421 17.093291969745341 #
edge $-1 $580 1 $580 0 $330 $-1 forward 7 unknown #
vertex $-1 $331 $581 #
ellipse-curve $-1 -44.311933962478065 -45.181797558283577 15.453522427941973 0 -0.82903758062907751 0.55919289150049634 1.5 0 0 1 I I #
point $-1 -42.811933962478065 -47.612855954033421 17.093291969745341 #
plane-surface $-1 0 0 20.599993040978458 0 0 1 1 0 0 forward_v I I I I #
coedge $-1 $486 $485 $478 $582 forward $335 $-1 #
coedge $-1 $478 $337 $339 $482 reversed $219 $-1 #
coedge $-1 $337 $477 $476 $582 reversed $219 $-1 #
coedge $-1 $345 $340 $337 $480 forward $346 $-1 #
edge $-1 $483 -45.374316929074858 $583 -40.64371759927657 $479 $584 forward 7 unknown #
coedge $-1 $339 $338 $486 $585 reversed $137 $-1 #
edge $-1 $586 -7.685582356959255e-014 $483 8.4596914619291947 $477 $587 forward 7 unknown #
vertex $-1 $341 $588 #
straight-curve $-1 6.2241179940118059 -45.247556289134259 20.599993040978458 -1 0 0 I I #
coedge $-1 $476 $342 $345 $490 reversed $335 $-1 #
coedge $-1 $342 $476 $481 $585 forward $335 $-1 #
vertex $-1 $343 $589 #
straight-curve $-1 21.812007179518655 -49.978155618932547 51.063173557828982 0 0 1 I I #
straight-curve $-1 21.812007179518655 -49.978155618932504 13.586590898512213 0 -0.55919289150049634 -0.82903758062907751 I I #
edge $-1 $583 -85.280110422285262 $347 -66.552568039295167 $485 $590 forward 7 unknown #
point $-1 21.812007179518659 -49.978155618932547 20.599993040978458 #
point $-1 21.812007179518655 -45.247556289134259 20.599993040978458 #
edge $-1 $591 1 $591 0 $350 $-1 forward 7 unknown #
vertex $-1 $351 $592 #
ellipse-curve $-1 8.4351911916685935 -45.181797558283577 15.453522427941973 0 -0.82903758062907751 0.55919289150049634 1.5 0 0 1 I I #
point $-1 9.9351911916685935 -47.612855954033421 17.093291969745341 #
edge $-1 $593 1 $593 0 $354 $-1 forward 7 unknown #
vertex $-1 $355 $594 #
ellipse-curve $-1 16.46128078437863 -45.181797558283577 15.453522427941973 0 -0.82903758062907751 0.55919289150049634 1.5 0 0 1 I I #
point $-1 17.96128078437863 -47.612855954033421 17.093291969745341 #
plane-surface $-1 0 49.978155618932547 0 0 -1 0 0 0 -1 forward_v I I I I #
coedge $-1 $595 $503 $362 $505 reversed $359 $-1 #
coedge $-1 $502 $513 $361 $504 reversed $359 $-1 #
edge $-1 $509 -20.599993040978458 $515 20.599993040978458 $503 $596 forward 7 unknown #
edge $-1 $507 -49.978155618932547 $509 49.978155618932547 $502 $597 forward 7 unknown #
coedge $-1 $363 $370 $595 $598 reversed $371 $-1 #
vertex $-1 $364 $599 #
straight-curve $-1 0 49.978155618932547 20.599993040978458 -1 0 0 I I #
vertex $-1 $505 $600 #
straight-curve $-1 0 -49.978155618932547 20.599993040978458 1 0 0 I I #
point $-1 79.167455061494792 -49.978155618932547 20.599993040978458 #
point $-1 79.167455061494792 49.978155618932547 20.599993040978458 #
coedge $-1 $503 $595 $375 $514 reversed $359 $-1 #
edge $-1 $515 -49.978155618932547 $517 49.978155618932547 $513 $601 forward 7 unknown #
vertex $-1 $514 $602 #
straight-curve $-1 0 -49.978155618932547 -20.599993040978458 -1 0 0 I I #
vertex $-1 $377 $603 #
straight-curve $-1 0 49.978155618932547 -20.599993040978458 1 0 0 I I #
loop $-1 $-1 $393 $380 #
plane-surface $-1 0 -49.978155618932547 0 0 1 0 0 0 1 forward_v I I I I #
coedge $-1 $384 $383 $529 $604 reversed $159 $-1 #
coedge $-1 $396 $395 $383 $523 forward $381 $-1 #
edge $-1 $605 -4.3548109926314211 $526 4.3548109926314211 $383 $606 forward 7 unknown #
edge $-1 $525 -4.3548109926314211 $530 4.3548109926314211 $384 $607 forward 7 unknown #
vertex $-1 $388 $608 #
vertex $-1 $399 $609 #
straight-curve $-1 -97.561695376132889 -41.268533633669705 0 0 0 -1 I I #
straight-curve $-1 -88.36457521881384 -41.268533633669705 20.599993040978458 -1 0 0 I I #
coedge $-1 $533 $389 $521 $604 forward $519 $-1 #
vertex $-1 $524 $610 #
straight-curve $-1 0 -49.978155618932547 20.599993040978458 1 0 0 I I #
point $-1 -79.167455061494792 -49.978155618932547 20.599993040978458 #
coedge $-1 $393 $529 $395 $535 reversed $519 $-1 #
straight-curve $-1 -79.167455061494792 -49.978155618932547 0 0 0 1 I I #
edge $-1 $397 -9.1971201573190484 $605 9.1971201573190484 $533 $611 forward 7 unknown #
point $-1 -79.167455061494792 -49.978155618932547 -20.599993040978458 #
straight-curve $-1 -88.36457521881384 -41.268533633669705 -20.599993040978458 1 0 0 I I #
plane-surface $-1 0 0 20.599993040978458 0 0 1 1 0 0 forward_v I I I I #
coedge $-1 $612 $613 $408 $543 forward $403 $-1 #
coedge $-1 $613 $612 $405 $541 reversed $403 $-1 #
edge $-1 $551 -20.599993040978458 $553 20.599993040978458 $540 $614 forward 7 unknown #
coedge $-1 $407 $406 $612 $615 forward $167 $-1 #
edge $-1 $547 -20.599993040978458 $544 20.599993040978458 $539 $616 forward 7 unknown #
vertex $-1 $543 $617 #
straight-curve $-1 88.364575218813826 -49.978155618932547 -20.599993040978458 -1 0 0 I I #
coedge $-1 $416 $410 $613 $618 forward $417 $-1 #
vertex $-1 $618 $619 #
straight-curve $-1 88.364575218813826 -49.978155618932547 20.599993040978458 1 0 0 I I #
point $-1 79.167455061494792 -49.978155618932547 20.599993040978458 #
point $-1 79.167455061494792 -49.978155618932547 -20.599993040978458 #
vertex $-1 $618 $620 #
straight-curve $-1 88.364575218813826 -41.268533633669705 20.599993040978458 -1 0 0 I I #
vertex $-1 $615 $621 #
straight-curve $-1 88.364575218813826 -41.268533633669705 -20.599993040978458 1 0 0 I I #
edge $-1 $556 77.155313622180074 $559 84.884167003105219 $424 $622 forward 7 unknown #
vertex $-1 $438 $623 #
straight-curve $-1 -24.639445893658916 45.629030442928716 20.599993040978461 0 1 0 I I #
edge $-1 $559 4.913225034009848 $435 34.539216685288288 $434 $624 forward 7 unknown #
vertex $-1 $558 $625 #
straight-curve $-1 -24.639445893658916 -20.701629059689097 83.550925978806688 0 -0.70710677298230451 0.70710678939079041 I I #
point $-1 -24.639445893658916 42.249302417356247 20.599993040978461 #
point $-1 -54.265437544937356 49.978155618932547 12.871139660053316 #
straight-curve $-1 0 49.978155618932547 20.599993040978458 -1 0 0 I I #
vertex $-1 $441 $626 #
point $-1 -44.300868501714945 42.327016462373216 12.948853882615754 #
vertex $-1 $445 $627 #
point $-1 -31.604014936881327 42.327016462373216 12.948853882615754 #
coedge $-1 $460 $459 $452 $569 forward $449 $-1 #
edge $-1 $570 30.463180516850525 $573 37.476582659316833 $568 $628 forward 7 unknown #
vertex $-1 $464 $629 #
straight-curve $-1 -57.68874995032813 -90.621873218209117 20.599993040978454 0 -1 0 I I #
edge $-1 $573 -33.526260570911589 $461 -14.798718187921494 $460 $630 forward 7 unknown #
vertex $-1 $572 $631 #
straight-curve $-1 -57.68874995032813 -49.978155618932504 13.586590898512213 0 0.55919289150049634 0.82903758062907751 I I #
point $-1 -57.68874995032813 -45.247556289134259 20.599993040978458 #
point $-1 -38.961207567338036 -49.978155618932547 13.586590898512149 #
straight-curve $-1 88.364575218813826 -49.978155618932547 20.599993040978458 1 0 0 I I #
vertex $-1 $467 $632 #
point $-1 -50.838023555188101 -45.181797558283577 15.453522427941973 #
vertex $-1 $471 $633 #
point $-1 -42.811933962478065 -45.181797558283577 15.453522427941973 #
edge $-1 $583 30.463180516850525 $586 37.476582659316833 $476 $634 forward 7 unknown #
vertex $-1 $490 $635 #
straight-curve $-1 3.0844647965285681 -90.621873218209117 20.599993040978454 0 -1 0 I I #
edge $-1 $586 -3.1396531974832378 $487 15.58788918550685 $486 $636 forward 7 unknown #
vertex $-1 $585 $637 #
straight-curve $-1 3.0844647965285681 -49.978155618932504 13.586590898512213 0 0.55919289150049634 0.82903758062907751 I I #
point $-1 3.0844647965285681 -45.247556289134259 20.599993040978458 #
point $-1 21.812007179518655 -49.978155618932547 13.586590898512149 #
straight-curve $-1 88.364575218813826 -49.978155618932547 20.599993040978458 1 0 0 I I #
vertex $-1 $493 $638 #
point $-1 9.9351911916685935 -45.181797558283577 15.453522427941973 #
vertex $-1 $497 $639 #
point $-1 17.96128078437863 -45.181797558283577 15.453522427941973 #
coedge $-1 $513 $502 $506 $598 forward $359 $-1 #
straight-curve $-1 -79.167455061494792 -49.978155618932547 0 0 0 -1 I I #
straight-curve $-1 -79.167455061494792 0 20.599993040978458 0 -1 0 I I #
edge $-1 $507 -20.599993040978458 $517 20.599993040978458 $506 $640 forward 7 unknown #
point $-1 -79.167455061494792 49.978155618932547 20.599993040978458 #
point $-1 -79.167455061494792 -49.978155618932547 20.599993040978458 #
straight-curve $-1 -79.167455061494792 0 -20.599993040978458 0 1 0 I I #
point $-1 -79.167455061494792 -49.978155618932547 -20.599993040978458 #
point $-1 -79.167455061494792 49.978155618932547 -20.599993040978458 #
edge $-1 $530 -20.599993040978458 $605 20.599993040978458 $521 $641 forward 7 unknown #
vertex $-1 $523 $642 #
straight-curve $-1 -97.561695376132889 -45.623344626301126 -20.599993040978458 0 1 0 I I #
straight-curve $-1 -97.561695376132889 -45.623344626301126 20.599993040978458 0 -1 0 I I #
point $-1 -97.561695376132889 -41.268533633669705 20.599993040978458 #
point $-1 -97.561695376132889 -41.268533633669705 -20.599993040978458 #
point $-1 -97.561695376132889 -49.978155618932547 20.599993040978458 #
straight-curve $-1 -88.36457521881384 -49.978155618932547 -20.599993040978458 -1 0 0 I I #
coedge $-1 $540 $539 $542 $615 reversed $403 $-1 #
coedge $-1 $539 $540 $546 $618 reversed $403 $-1 #
straight-curve $-1 97.561695376132874 -41.268533633669705 0 0 0 -1 I I #
edge $-1 $553 -4.3548109926314211 $544 4.3548109926314211 $612 $643 forward 7 unknown #
straight-curve $-1 97.561695376132874 -49.978155618932547 0 0 0 -1 I I #
point $-1 97.561695376132874 -49.978155618932547 -20.599993040978458 #
edge $-1 $547 -4.3548109926314211 $551 4.3548109926314211 $613 $644 forward 7 unknown #
point $-1 97.561695376132874 -49.978155618932547 20.599993040978458 #
point $-1 97.561695376132874 -41.268533633669705 20.599993040978458 #
point $-1 97.561695376132874 -41.268533633669705 -20.599993040978458 #
straight-curve $-1 -24.639445893658916 49.978155618932547 97.755306663158535 0 0 -1 I I #
point $-1 -24.639445893658916 49.978155618932547 20.599993040978458 #
straight-curve $-1 -19.726220859649068 49.978155618932547 12.871139660053323 -1 0 0 I I #
point $-1 -24.639445893658916 49.978155618932547 12.871139660053316 #
point $-1 -45.800868501714945 41.266356278287027 11.888193723142297 #
point $-1 -33.104014936881327 41.266356278287027 11.888193723142297 #
straight-curve $-1 -57.68874995032813 -49.978155618932547 51.063173557828982 0 0 -1 I I #
point $-1 -57.688749950328116 -49.978155618932547 20.599993040978458 #
straight-curve $-1 -24.162489379416542 -49.978155618932547 13.586590898512155 1 0 0 I I #
point $-1 -57.68874995032813 -49.978155618932547 13.586590898512149 #
point $-1 -52.338023555188101 -43.938241187339955 14.614733090691228 #
point $-1 -44.311933962478065 -43.938241187339955 14.614733090691228 #
straight-curve $-1 3.0844647965285681 -49.978155618932547 51.063173557828982 0 0 -1 I I #
point $-1 3.0844647965285645 -49.978155618932547 20.599993040978458 #
straight-curve $-1 6.2241179940118059 -49.978155618932547 13.586590898512155 1 0 0 I I #
point $-1 3.0844647965285681 -49.978155618932547 13.586590898512149 #
point $-1 8.4351911916685935 -43.938241187339955 14.614733090691228 #
point $-1 16.46128078437863 -43.938241187339955 14.614733090691228 #
straight-curve $-1 -79.167455061494792 49.978155618932547 0 0 0 -1 I I #
straight-curve $-1 -97.561695376132889 -49.978155618932547 0 0 0 -1 I I #
point $-1 -97.561695376132889 -49.978155618932547 -20.599993040978458 #
straight-curve $-1 97.561695376132874 -45.623344626301126 -20.599993040978458 0 -1 0 I I #
straight-curve $-1 97.561695376132874 -45.623344626301126 20.599993040978458 0 1 0 I I #
End-of-ACIS-data 