500 0 8 0           
7 Unknown 11 ACIS 5.0 NT 24 Thu Mar 25 18:25:58 1999 
-1 9.9999999999999995e-007 1e-010 
body $-1 $8 $-1 $9 #
body $-1 $10 $-1 $11 #
body $-1 $12 $-1 $13 #
body $-1 $14 $-1 $15 #
body $-1 $16 $-1 $17 #
body $-1 $18 $-1 $19 #
body $-1 $20 $-1 $21 #
body $-1 $22 $-1 $23 #
lump $-1 $-1 $24 $0 #
transform $-1 1 0 0 0 1 0 0 0 1 57.858211004974521 36.604098634425561 9.6516541578897499 1 rotate no_reflect no_shear #
lump $-1 $-1 $25 $1 #
transform $-1 1 0 0 0 1 0 0 0 1 57.858211004974521 36.604098634425561 9.6516541578897499 1 rotate no_reflect no_shear #
lump $-1 $-1 $26 $2 #
transform $-1 1 0 0 0 1 0 0 0 1 57.858211004974521 36.604098634425561 9.6516541578897499 1 rotate no_reflect no_shear #
lump $-1 $-1 $27 $3 #
transform $-1 1 0 0 0 1 0 0 0 1 57.858211004974521 36.604098634425561 9.6516541578897499 1 rotate no_reflect no_shear #
lump $-1 $-1 $28 $4 #
transform $-1 1 0 0 0 1 0 0 0 1 57.858211004974521 36.604098634425561 9.6516541578897499 1 rotate no_reflect no_shear #
lump $-1 $-1 $29 $5 #
transform $-1 1 0 0 0 1 0 0 0 1 57.858211004974521 36.604098634425561 9.6516541578897499 1 rotate no_reflect no_shear #
lump $-1 $-1 $30 $6 #
transform $-1 1 0 0 0 1 0 0 0 1 57.858211004974521 36.604098634425561 9.6516541578897499 1 rotate no_reflect no_shear #
lump $-1 $-1 $31 $7 #
transform $-1 1 0 0 0 1 0 0 0 1 57.858211004974521 36.604098634425561 9.6516541578897499 1 rotate no_reflect no_shear #
shell $-1 $-1 $-1 $32 $-1 $8 #
shell $-1 $-1 $-1 $33 $-1 $10 #
shell $-1 $-1 $-1 $34 $-1 $12 #
shell $-1 $-1 $-1 $35 $-1 $14 #
shell $-1 $-1 $-1 $36 $-1 $16 #
shell $-1 $-1 $-1 $37 $-1 $18 #
shell $-1 $-1 $-1 $38 $-1 $20 #
shell $-1 $-1 $-1 $39 $-1 $22 #
face $-1 $40 $41 $24 $-1 $42 forward single #
face $-1 $43 $44 $25 $-1 $45 forward single #
face $-1 $46 $47 $26 $-1 $48 reversed single #
face $-1 $49 $50 $27 $-1 $51 forward single #
face $-1 $52 $53 $28 $-1 $54 forward single #
face $-1 $55 $56 $29 $-1 $57 forward single #
face $-1 $58 $59 $30 $-1 $60 reversed single #
face $-1 $61 $62 $31 $-1 $63 forward single #
face $-1 $64 $65 $24 $-1 $66 reversed single #
loop $-1 $-1 $67 $32 #
plane-surface $-1 0 0 9.6516541578897499 0 0 1 1 0 0 forward_v I I I I #
face $-1 $68 $69 $25 $-1 $70 reversed single #
loop $-1 $-1 $71 $33 #
plane-surface $-1 0 -30.921911478275739 0.88605035396137133 0 0 1 1 0 0 forward_v I I I I #
face $-1 $72 $73 $26 $-1 $74 reversed single #
loop $-1 $-1 $75 $34 #
plane-surface $-1 55.002166105466031 15.127987133337321 169.49312174595079 0 1 0 0.69465837861970381 0 0.71933979245794832 forward_v I I I I #
face $-1 $76 $77 $27 $-1 $78 forward single #
loop $-1 $79 $80 $35 #
cone-surface $-1 55.247236476145702 17.613630553770051 7.0846498928394359 -0.69465837861970381 0 -0.71933979245794832 0.35966989622897416 0 -0.3473291893098519 1 I I 0 1 0.5 forward I I I I #
face $-1 $81 $82 $28 $-1 $83 forward single #
loop $-1 $84 $85 $36 #
cone-surface $-1 55.247236476145702 21.342095684419142 7.0846498928394359 -0.69465837861970381 0 -0.71933979245794832 0.35966989622897416 0 -0.3473291893098519 1 I I 0 1 0.5 forward I I I I #
face $-1 $86 $87 $29 $-1 $88 forward single #
loop $-1 $89 $90 $37 #
cone-surface $-1 55.247236476145702 25.070560815068234 7.0846498928394359 -0.69465837861970381 0 -0.71933979245794832 0.35966989622897416 0 -0.3473291893098519 1 I I 0 1 0.5 forward I I I I #
face $-1 $91 $92 $30 $-1 $93 reversed single #
loop $-1 $-1 $94 $38 #
plane-surface $-1 -159.06607501687711 11.381328345225434 56.589253576761052 0 1 0 -0.87461971476443456 0 0.48480960649040278 forward_v I I I I #
face $-1 $95 $96 $31 $-1 $97 forward single #
loop $-1 $98 $99 $39 #
cone-surface $-1 -53.36544322458009 19.533777488255808 3.9875348651917406 0.87461971476443456 0 -0.48480960649040278 0.96961921298080556 0 1.7492394295288691 1 I I 0 1 2 forward I I I I #
face $-1 $100 $101 $24 $-1 $102 reversed single #
loop $-1 $-1 $103 $40 #
plane-surface $-1 0 0 -9.6516541578897499 0 0 1 1 0 0 forward_v I I I I #
coedge $-1 $104 $105 $106 $107 forward $41 $-1 #
face $-1 $108 $109 $25 $-1 $110 reversed single #
loop $-1 $-1 $111 $43 #
plane-surface $-1 0 -30.921911478275739 -4.6277078229098176 0 0 1 1 0 0 forward_v I I I I #
coedge $-1 $112 $113 $114 $115 reversed $44 $-1 #
face $-1 $116 $117 $26 $-1 $118 reversed single #
loop $-1 $-1 $119 $46 #
plane-surface $-1 -25.381215987638583 21.342095684419135 86.253694753337683 0.69465837861970381 0 0.71933979245794832 0.71933979245794832 0 -0.69465837861970381 forward_v I I I I #
coedge $-1 $120 $121 $122 $123 reversed $47 $-1 #
face $-1 $-1 $124 $27 $-1 $125 forward single #
loop $-1 $126 $127 $49 #
cone-surface $-1 54.420444182021313 17.613630553770051 6.2284814285030041 -0.69465837861970381 0 -0.71933979245794832 0.17983494811448708 0 -0.17366459465492595 1 I I -0.70710678118654746 0.70710678118654746 0.25 forward I I I I #
loop $-1 $-1 $128 $35 #
coedge $-1 $80 $80 $129 $130 reversed $50 $-1 #
face $-1 $-1 $131 $28 $-1 $132 forward single #
loop $-1 $133 $134 $52 #
cone-surface $-1 54.420444182021313 21.342095684419142 6.2284814285030041 -0.69465837861970381 0 -0.71933979245794832 0.17983494811448708 0 -0.17366459465492595 1 I I -0.70710678118654746 0.70710678118654746 0.25 forward I I I I #
loop $-1 $-1 $135 $36 #
coedge $-1 $85 $85 $136 $137 reversed $53 $-1 #
face $-1 $-1 $138 $29 $-1 $139 forward single #
loop $-1 $140 $141 $55 #
cone-surface $-1 54.420444182021313 25.070560815068234 6.2284814285030041 -0.69465837861970381 0 -0.71933979245794832 0.17983494811448708 0 -0.17366459465492595 1 I I -0.70710678118654746 0.70710678118654746 0.25 forward I I I I #
loop $-1 $-1 $142 $37 #
coedge $-1 $90 $90 $143 $144 reversed $56 $-1 #
face $-1 $145 $146 $30 $-1 $147 reversed single #
loop $-1 $-1 $148 $58 #
plane-surface $-1 -57.858211004974535 19.533777488255808 0.48882055764027399 -0.87461971476443456 0 0.48480960649040278 0.48480960649040278 0 0.87461971476443456 forward_v I I I I #
coedge $-1 $149 $150 $151 $152 reversed $59 $-1 #
face $-1 $-1 $153 $31 $-1 $154 forward single #
loop $-1 $155 $156 $61 #
cone-surface $-1 -50.537576436012223 19.533777488255808 2.4200227661280724 0.87461971476443456 0 -0.48480960649040278 0.48480960649040278 0 0.87461971476443456 1 I I -0.70710678118654746 0.70710678118654746 1 forward I I I I #
loop $-1 $-1 $157 $39 #
coedge $-1 $99 $99 $158 $159 reversed $62 $-1 #
face $-1 $160 $161 $24 $-1 $162 reversed single #
loop $-1 $-1 $163 $64 #
plane-surface $-1 0 -36.604098634425561 0 0 1 0 0 0 1 forward_v I I I I #
coedge $-1 $164 $165 $166 $167 forward $65 $-1 #
coedge $-1 $168 $67 $169 $170 forward $41 $-1 #
coedge $-1 $67 $168 $171 $172 forward $41 $-1 #
coedge $-1 $173 $174 $67 $107 reversed $175 $-1 #
edge $-1 $176 -36.604098634425561 $177 36.604098634425561 $106 $178 forward 7 unknown #
face $-1 $179 $180 $25 $-1 $181 reversed single #
loop $-1 $-1 $182 $68 #
plane-surface $-1 0 -25.239724322125916 -1.8708287344742232 0 -1 0 0 0 -1 forward_v I I I I #
coedge $-1 $183 $184 $185 $186 reversed $69 $-1 #
coedge $-1 $187 $71 $188 $189 forward $44 $-1 #
coedge $-1 $71 $187 $190 $191 reversed $44 $-1 #
coedge $-1 $192 $193 $71 $115 forward $194 $-1 #
edge $-1 $195 9.7787685829880466 $196 21.143142895287692 $114 $197 forward 7 unknown #
face $-1 $198 $199 $26 $-1 $200 forward single #
loop $-1 $-1 $201 $72 #
plane-surface $-1 55.002166105466031 27.55620423550095 169.49312174595079 0 -1 0 -0.69465837861970381 0 -0.71933979245794832 forward_v I I I I #
coedge $-1 $202 $203 $204 $205 reversed $73 $-1 #
coedge $-1 $121 $75 $206 $207 reversed $47 $-1 #
coedge $-1 $75 $120 $202 $208 reversed $47 $-1 #
coedge $-1 $204 $209 $75 $123 forward $210 $-1 #
edge $-1 $211 75.094906715085642 $212 78.876248212742325 $122 $213 forward 7 unknown #
loop $-1 $-1 $129 $76 #
plane-surface $-1 -25.381215987638583 21.342095684419135 86.253694753337683 0.69465837861970381 0 0.71933979245794832 0.71933979245794832 0 -0.69465837861970381 forward_v I I I I #
loop $-1 $-1 $214 $49 #
coedge $-1 $127 $127 $128 $215 reversed $77 $-1 #
coedge $-1 $128 $128 $127 $215 forward $79 $-1 #
coedge $-1 $129 $129 $80 $130 forward $124 $-1 #
edge $-1 $216 0 $216 6.2831853071796004 $129 $217 forward 7 unknown #
loop $-1 $-1 $136 $81 #
plane-surface $-1 -25.381215987638583 21.342095684419135 86.253694753337683 0.69465837861970381 0 0.71933979245794832 0.71933979245794832 0 -0.69465837861970381 forward_v I I I I #
loop $-1 $-1 $218 $52 #
coedge $-1 $134 $134 $135 $219 reversed $82 $-1 #
coedge $-1 $135 $135 $134 $219 forward $84 $-1 #
coedge $-1 $136 $136 $85 $137 forward $131 $-1 #
edge $-1 $220 0 $220 6.2831853071796004 $136 $221 forward 7 unknown #
loop $-1 $-1 $143 $86 #
plane-surface $-1 -25.381215987638583 21.342095684419135 86.253694753337683 0.69465837861970381 0 0.71933979245794832 0.71933979245794832 0 -0.69465837861970381 forward_v I I I I #
loop $-1 $-1 $222 $55 #
coedge $-1 $141 $141 $142 $223 reversed $87 $-1 #
coedge $-1 $142 $142 $141 $223 forward $89 $-1 #
coedge $-1 $143 $143 $90 $144 forward $138 $-1 #
edge $-1 $224 0 $224 6.2831853071796004 $143 $225 forward 7 unknown #
face $-1 $226 $227 $30 $-1 $228 reversed single #
loop $-1 $-1 $229 $91 #
plane-surface $-1 -159.06607501687711 27.686226631286182 56.589253576761052 0 -1 0 0.87461971476443456 0 -0.48480960649040278 forward_v I I I I #
coedge $-1 $230 $231 $232 $233 reversed $92 $-1 #
coedge $-1 $150 $94 $234 $235 reversed $59 $-1 #
coedge $-1 $94 $149 $230 $236 reversed $59 $-1 #
coedge $-1 $232 $237 $94 $152 forward $238 $-1 #
edge $-1 $239 21.674826503464033 $240 26.753867916646016 $151 $241 forward 7 unknown #
loop $-1 $-1 $158 $95 #
plane-surface $-1 -57.858211004974535 19.533777488255808 0.48882055764027399 -0.87461971476443456 0 0.48480960649040278 0.48480960649040278 0 0.87461971476443456 forward_v I I I I #
loop $-1 $-1 $242 $61 #
coedge $-1 $156 $156 $157 $243 reversed $96 $-1 #
coedge $-1 $157 $157 $156 $243 forward $98 $-1 #
coedge $-1 $158 $158 $99 $159 forward $153 $-1 #
edge $-1 $244 0 $244 6.2831853071796004 $158 $245 forward 7 unknown #
face $-1 $246 $247 $24 $-1 $248 reversed single #
loop $-1 $-1 $249 $100 #
plane-surface $-1 -57.858211004974521 0 0 1 0 0 0 0 -1 forward_v I I I I #
coedge $-1 $250 $171 $251 $252 forward $101 $-1 #
coedge $-1 $253 $103 $250 $254 forward $65 $-1 #
coedge $-1 $103 $253 $255 $256 forward $65 $-1 #
coedge $-1 $174 $173 $103 $167 reversed $175 $-1 #
edge $-1 $257 -36.604098634425561 $258 36.604098634425561 $166 $259 forward 7 unknown #
coedge $-1 $105 $104 $260 $261 forward $41 $-1 #
coedge $-1 $262 $263 $104 $170 reversed $247 $-1 #
edge $-1 $177 -57.858211004974521 $264 57.858211004974521 $169 $265 forward 7 unknown #
coedge $-1 $163 $266 $105 $172 reversed $101 $-1 #
edge $-1 $267 -57.858211004974521 $176 57.858211004974521 $171 $268 forward 7 unknown #
coedge $-1 $166 $106 $266 $269 forward $175 $-1 #
coedge $-1 $106 $166 $262 $270 reversed $175 $-1 #
loop $-1 $-1 $173 $246 #
vertex $-1 $107 $271 #
vertex $-1 $107 $272 #
straight-curve $-1 57.858211004974521 0 9.6516541578897499 0 1 0 I I #
face $-1 $273 $274 $25 $-1 $275 reversed single #
loop $-1 $-1 $276 $108 #
plane-surface $-1 -57.858211004974521 0 0 1 0 0 0 0 -1 forward_v I I I I #
coedge $-1 $277 $188 $193 $278 reversed $109 $-1 #
coedge $-1 $279 $111 $280 $281 reversed $69 $-1 #
coedge $-1 $111 $279 $277 $282 forward $69 $-1 #
coedge $-1 $193 $192 $111 $186 forward $194 $-1 #
edge $-1 $283 -21.143142895287692 $284 -9.7787685829880466 $185 $285 forward 7 unknown #
coedge $-1 $113 $112 $276 $286 reversed $44 $-1 #
coedge $-1 $182 $287 $112 $189 reversed $109 $-1 #
edge $-1 $195 -57.858211004974521 $288 57.858211004974521 $188 $289 forward 7 unknown #
coedge $-1 $290 $291 $113 $191 forward $274 $-1 #
edge $-1 $196 -57.858211004974521 $292 57.858211004974521 $190 $293 forward 7 unknown #
coedge $-1 $185 $114 $291 $294 forward $194 $-1 #
coedge $-1 $114 $185 $182 $278 forward $194 $-1 #
loop $-1 $-1 $114 $273 #
vertex $-1 $115 $295 #
vertex $-1 $294 $296 #
straight-curve $-1 57.858211004974521 -15.460955739137869 0.88605035396137133 0 -1 0 I I #
face $-1 $-1 $210 $26 $-1 $297 reversed single #
loop $-1 $-1 $298 $116 #
plane-surface $-1 0 0 9.6516541578897499 0 0 1 1 0 0 forward_v I I I I #
coedge $-1 $299 $300 $301 $302 reversed $117 $-1 #
coedge $-1 $303 $119 $121 $208 forward $73 $-1 #
coedge $-1 $119 $303 $299 $304 forward $73 $-1 #
coedge $-1 $301 $122 $119 $205 forward $210 $-1 #
edge $-1 $212 4.4569392911277532 $305 16.885156393291382 $204 $306 forward 7 unknown #
coedge $-1 $307 $308 $120 $207 forward $199 $-1 #
edge $-1 $309 26.441434293522811 $211 30.357127952241505 $206 $310 forward 7 unknown #
edge $-1 $212 -115.71642200994904 $309 -110.27296719238782 $121 $311 forward 7 unknown #
coedge $-1 $122 $301 $307 $312 reversed $210 $-1 #
loop $-1 $-1 $301 $198 #
vertex $-1 $312 $313 #
vertex $-1 $123 $314 #
straight-curve $-1 57.858211004974521 15.127987133337321 84.746560872975394 0 0 -1 I I #
coedge $-1 $214 $214 $-1 $315 reversed $126 $-1 #
edge $-1 $316 0 $316 6.2831853071796004 $127 $317 forward 7 unknown #
vertex $-1 $130 $318 #
ellipse-curve $-1 55.900364175615181 17.613630553770051 7.7609834090614029 0.69465837861970381 0 0.71933979245794832 0.35966989622897416 0 -0.3473291893098519 1 I I #
coedge $-1 $218 $218 $-1 $319 reversed $133 $-1 #
edge $-1 $320 0 $320 6.2831853071796004 $134 $321 forward 7 unknown #
vertex $-1 $137 $322 #
ellipse-curve $-1 55.900364175615181 21.342095684419142 7.7609834090614029 0.69465837861970381 0 0.71933979245794832 0.35966989622897416 0 -0.3473291893098519 1 I I #
coedge $-1 $222 $222 $-1 $323 reversed $140 $-1 #
edge $-1 $324 0 $324 6.2831853071796004 $141 $325 forward 7 unknown #
vertex $-1 $144 $326 #
ellipse-curve $-1 55.900364175615181 25.070560815068234 7.7609834090614029 0.69465837861970381 0 0.71933979245794832 0.35966989622897416 0 -0.3473291893098519 1 I I #
face $-1 $-1 $238 $30 $-1 $327 forward single #
loop $-1 $-1 $328 $145 #
plane-surface $-1 -57.858211004974521 0 0 1 0 0 0 0 -1 forward_v I I I I #
coedge $-1 $329 $330 $331 $332 reversed $146 $-1 #
coedge $-1 $333 $148 $150 $236 forward $92 $-1 #
coedge $-1 $148 $333 $329 $334 forward $92 $-1 #
coedge $-1 $331 $151 $148 $233 forward $238 $-1 #
edge $-1 $240 1.6144396010975299 $335 17.919337887158278 $232 $336 forward 7 unknown #
coedge $-1 $337 $338 $149 $235 forward $227 $-1 #
edge $-1 $339 -27.805806230740227 $239 -18.642972630490775 $234 $340 forward 7 unknown #
edge $-1 $240 -10.476362978757397 $339 -2.9320188914700558e-014 $150 $341 forward 7 unknown #
coedge $-1 $151 $331 $337 $342 forward $238 $-1 #
loop $-1 $-1 $331 $226 #
vertex $-1 $235 $343 #
vertex $-1 $152 $344 #
straight-curve $-1 -79.533037508438554 11.381328345225434 9.6516541578897517 1 0 0 I I #
coedge $-1 $242 $242 $-1 $345 reversed $155 $-1 #
edge $-1 $346 0 $346 6.2831853071796004 $156 $347 forward 7 unknown #
vertex $-1 $159 $348 #
ellipse-curve $-1 -55.318690298383537 19.533777488255808 5.0702373577650146 -0.87461971476443456 0 0.48480960649040278 0.96961921298080556 0 1.7492394295288691 1 I I #
face $-1 $-1 $175 $24 $-1 $349 reversed single #
loop $-1 $-1 $262 $160 #
plane-surface $-1 0 36.604098634425561 0 0 -1 0 0 0 -1 forward_v I I I I #
coedge $-1 $350 $260 $263 $351 forward $161 $-1 #
coedge $-1 $266 $163 $164 $254 reversed $101 $-1 #
coedge $-1 $260 $350 $163 $252 reversed $161 $-1 #
edge $-1 $267 -9.6516541578897499 $352 9.6516541578897499 $251 $353 forward 7 unknown #
coedge $-1 $165 $164 $350 $354 forward $65 $-1 #
edge $-1 $258 -57.858211004974521 $352 57.858211004974521 $250 $355 forward 7 unknown #
coedge $-1 $263 $262 $165 $256 reversed $247 $-1 #
edge $-1 $356 -57.858211004974521 $257 57.858211004974521 $255 $357 forward 7 unknown #
vertex $-1 $167 $358 #
vertex $-1 $269 $359 #
straight-curve $-1 57.858211004974521 0 -9.6516541578897499 0 -1 0 I I #
coedge $-1 $249 $251 $168 $261 reversed $161 $-1 #
edge $-1 $264 -36.604098634425561 $267 36.604098634425561 $260 $360 forward 7 unknown #
coedge $-1 $255 $169 $174 $270 forward $247 $-1 #
coedge $-1 $169 $255 $249 $351 reversed $247 $-1 #
vertex $-1 $170 $361 #
straight-curve $-1 0 36.604098634425561 9.6516541578897499 -1 0 0 I I #
coedge $-1 $171 $250 $173 $269 reversed $101 $-1 #
vertex $-1 $261 $362 #
straight-curve $-1 0 -36.604098634425561 9.6516541578897499 1 0 0 I I #
edge $-1 $176 -9.6516541578897499 $258 9.6516541578897499 $173 $363 forward 7 unknown #
edge $-1 $177 -9.6516541578897499 $257 9.6516541578897499 $174 $364 forward 7 unknown #
point $-1 57.858211004974521 -36.604098634425561 9.6516541578897499 #
point $-1 57.858211004974521 36.604098634425561 9.6516541578897499 #
face $-1 $-1 $194 $25 $-1 $365 reversed single #
loop $-1 $-1 $190 $179 #
plane-surface $-1 0 -36.604098634425561 0 0 1 0 0 0 1 forward_v I I I I #
coedge $-1 $366 $367 $187 $286 forward $180 $-1 #
coedge $-1 $287 $182 $184 $282 reversed $109 $-1 #
edge $-1 $284 -3.6922934556727061 $195 1.8214647211984829 $193 $368 forward 7 unknown #
coedge $-1 $184 $183 $369 $370 reversed $69 $-1 #
coedge $-1 $291 $290 $183 $281 forward $274 $-1 #
edge $-1 $371 -57.858211004974521 $283 57.858211004974521 $280 $372 forward 7 unknown #
edge $-1 $373 -57.858211004974521 $284 57.858211004974521 $277 $374 forward 7 unknown #
vertex $-1 $281 $375 #
vertex $-1 $186 $376 #
straight-curve $-1 57.858211004974521 -15.460955739137869 -4.6277078229098176 0 1 0 I I #
edge $-1 $292 -21.143142895287692 $288 -9.7787685829880466 $276 $377 forward 7 unknown #
coedge $-1 $188 $277 $366 $378 reversed $109 $-1 #
vertex $-1 $286 $379 #
straight-curve $-1 0 -25.239724322125916 0.88605035396137133 -1 0 0 I I #
coedge $-1 $280 $190 $367 $380 forward $274 $-1 #
coedge $-1 $190 $280 $192 $294 reversed $274 $-1 #
vertex $-1 $380 $381 #
straight-curve $-1 0 -36.604098634425561 0.88605035396137133 -1 0 0 I I #
edge $-1 $196 -0.88605035396137133 $283 4.6277078229098176 $192 $382 forward 7 unknown #
point $-1 57.858211004974521 -25.239724322125916 0.88605035396137133 #
point $-1 57.858211004974521 -36.604098634425561 0.88605035396137133 #
plane-surface $-1 57.858211004974521 0 0 -1 0 0 0 0 1 forward_v I I I I #
coedge $-1 $308 $307 $300 $383 forward $199 $-1 #
coedge $-1 $300 $201 $203 $304 reversed $117 $-1 #
coedge $-1 $201 $299 $298 $383 reversed $117 $-1 #
coedge $-1 $209 $204 $201 $302 forward $210 $-1 #
edge $-1 $305 -78.876248212742325 $384 -75.094906715085642 $301 $385 forward 7 unknown #
coedge $-1 $203 $202 $308 $386 reversed $73 $-1 #
edge $-1 $387 110.27296719238782 $305 115.71642200994904 $299 $388 forward 7 unknown #
vertex $-1 $205 $389 #
straight-curve $-1 57.858211004974507 10.671047842209568 5.8703126602330826 0 1 0 I I #
coedge $-1 $298 $206 $209 $312 forward $199 $-1 #
coedge $-1 $206 $298 $303 $386 forward $199 $-1 #
vertex $-1 $207 $390 #
straight-curve $-1 27.501083052733016 15.127987133337321 9.6516541578897517 1 0 0 I I #
straight-curve $-1 -25.381215987638583 15.127987133337321 86.253694753337683 -0.71933979245794832 0 0.69465837861970381 I I #
edge $-1 $211 15.127987133337321 $384 27.55620423550095 $209 $391 forward 7 unknown #
point $-1 57.858211004974521 15.127987133337321 9.6516541578897499 #
point $-1 57.858211004974521 15.127987133337321 5.8703126602330684 #
edge $-1 $392 1 $392 0 $214 $-1 forward 7 unknown #
vertex $-1 $215 $393 #
ellipse-curve $-1 54.594108776676237 17.613630553770051 6.4083163766174911 0.69465837861970381 0 0.71933979245794832 0.35966989622897416 0 -0.3473291893098519 1 I I #
point $-1 56.260034071844139 17.613630553770051 7.4136542197515292 #
edge $-1 $394 1 $394 0 $218 $-1 forward 7 unknown #
vertex $-1 $219 $395 #
ellipse-curve $-1 54.594108776676237 21.342095684419142 6.4083163766174911 0.69465837861970381 0 0.71933979245794832 0.35966989622897416 0 -0.3473291893098519 1 I I #
point $-1 56.260034071844139 21.342095684419142 7.4136542197515292 #
edge $-1 $396 1 $396 0 $222 $-1 forward 7 unknown #
vertex $-1 $223 $397 #
ellipse-curve $-1 54.594108776676237 25.070560815068234 6.4083163766174911 0.69465837861970381 0 0.71933979245794832 0.35966989622897416 0 -0.3473291893098519 1 I I #
point $-1 56.260034071844139 25.070560815068234 7.4136542197515292 #
plane-surface $-1 0 0 9.6516541578897499 0 0 1 1 0 0 forward_v I I I I #
coedge $-1 $338 $337 $330 $398 forward $227 $-1 #
coedge $-1 $330 $229 $231 $334 reversed $146 $-1 #
coedge $-1 $229 $329 $328 $398 reversed $146 $-1 #
coedge $-1 $237 $232 $229 $332 forward $238 $-1 #
edge $-1 $335 -26.753867916646016 $399 -21.674826503464033 $331 $400 forward 7 unknown #
coedge $-1 $231 $230 $338 $401 reversed $92 $-1 #
edge $-1 $402 2.9320188914700558e-014 $335 10.476362978757397 $329 $403 forward 7 unknown #
vertex $-1 $233 $404 #
straight-curve $-1 -52.779169591792545 9.766888744127904 9.6516541578897499 0 1 0 I I #
coedge $-1 $328 $234 $237 $342 reversed $227 $-1 #
coedge $-1 $234 $328 $333 $401 forward $227 $-1 #
vertex $-1 $235 $405 #
straight-curve $-1 -57.858211004974521 11.381328345225434 28.294626788380526 0 0 1 I I #
straight-curve $-1 -57.858211004974535 11.381328345225434 0.48882055764027399 -0.48480960649040278 0 -0.87461971476443456 I I #
edge $-1 $399 -27.686226631286182 $239 -11.381328345225434 $337 $406 forward 7 unknown #
point $-1 -57.858211004974521 11.381328345225434 9.6516541578897499 #
point $-1 -52.779169591792538 11.381328345225434 9.6516541578897499 #
edge $-1 $407 1 $407 0 $242 $-1 forward 7 unknown #
vertex $-1 $243 $408 #
ellipse-curve $-1 -51.412196150776658 19.533777488255808 2.904832372618475 -0.87461971476443456 0 0.48480960649040278 0.96961921298080556 0 1.7492394295288691 1 I I #
point $-1 -54.349071085402713 19.533777488255808 6.8194767872938762 #
plane-surface $-1 57.858211004974521 0 0 -1 0 0 0 0 1 forward_v I I I I #
coedge $-1 $251 $249 $253 $354 reversed $161 $-1 #
edge $-1 $264 -9.6516541578897499 $356 9.6516541578897499 $263 $409 forward 7 unknown #
vertex $-1 $354 $410 #
straight-curve $-1 -57.858211004974521 -36.604098634425561 0 0 0 -1 I I #
edge $-1 $352 -36.604098634425561 $356 36.604098634425561 $350 $411 forward 7 unknown #
straight-curve $-1 0 -36.604098634425561 -9.6516541578897499 -1 0 0 I I #
vertex $-1 $256 $412 #
straight-curve $-1 0 36.604098634425561 -9.6516541578897499 1 0 0 I I #
point $-1 57.858211004974521 36.604098634425561 -9.6516541578897499 #
point $-1 57.858211004974521 -36.604098634425561 -9.6516541578897499 #
straight-curve $-1 -57.858211004974521 0 9.6516541578897499 0 -1 0 I I #
point $-1 -57.858211004974521 36.604098634425561 9.6516541578897499 #
point $-1 -57.858211004974521 -36.604098634425561 9.6516541578897499 #
straight-curve $-1 57.858211004974521 -36.604098634425561 0 0 0 -1 I I #
straight-curve $-1 57.858211004974521 36.604098634425561 0 0 0 -1 I I #
plane-surface $-1 57.858211004974521 0 0 -1 0 0 0 0 1 forward_v I I I I #
coedge $-1 $369 $276 $287 $378 forward $180 $-1 #
coedge $-1 $276 $369 $290 $380 reversed $180 $-1 #
straight-curve $-1 57.858211004974521 -25.239724322125916 -0.93541436723711158 0 0 1 I I #
coedge $-1 $367 $366 $279 $370 forward $180 $-1 #
edge $-1 $373 9.7787685829880466 $371 21.143142895287692 $369 $413 forward 7 unknown #
vertex $-1 $281 $414 #
straight-curve $-1 0 -36.604098634425561 -4.6277078229098176 1 0 0 I I #
vertex $-1 $370 $415 #
straight-curve $-1 0 -25.239724322125916 -4.6277078229098176 1 0 0 I I #
point $-1 57.858211004974521 -36.604098634425561 -4.6277078229098176 #
point $-1 57.858211004974521 -25.239724322125916 -4.6277078229098176 #
straight-curve $-1 -57.858211004974521 -15.460955739137869 0.88605035396137133 0 1 0 I I #
edge $-1 $288 -1.8214647211984829 $373 3.6922934556727061 $366 $416 forward 7 unknown #
point $-1 -57.858211004974521 -25.239724322125916 0.88605035396137133 #
edge $-1 $292 -0.88605035396137133 $371 4.6277078229098176 $367 $417 forward 7 unknown #
point $-1 -57.858211004974521 -36.604098634425561 0.88605035396137133 #
straight-curve $-1 57.858211004974521 -36.604098634425561 0 0 0 -1 I I #
edge $-1 $384 -30.357127952241505 $387 -26.441434293522811 $298 $418 forward 7 unknown #
vertex $-1 $383 $419 #
straight-curve $-1 57.858211004974521 27.55620423550095 84.746560872975394 0 0 1 I I #
edge $-1 $387 -16.885156393291382 $309 -4.4569392911277532 $308 $420 forward 7 unknown #
vertex $-1 $386 $421 #
straight-curve $-1 -25.381215987638583 27.55620423550095 86.253694753337683 0.71933979245794832 0 -0.69465837861970381 I I #
point $-1 57.858211004974521 27.55620423550095 5.8703126602330684 #
point $-1 53.942517346255826 15.127987133337321 9.6516541578897517 #
straight-curve $-1 57.858211004974521 0 9.6516541578897499 0 1 0 I I #
vertex $-1 $315 $422 #
point $-1 54.953778672905216 17.613630553770051 6.0609871873076395 #
vertex $-1 $319 $423 #
point $-1 54.953778672905216 21.342095684419142 6.0609871873076395 #
vertex $-1 $323 $424 #
point $-1 54.953778672905216 25.070560815068234 6.0609871873076395 #
edge $-1 $399 18.642972630490775 $402 27.805806230740227 $328 $425 forward 7 unknown #
vertex $-1 $342 $426 #
straight-curve $-1 -79.533037508438554 27.686226631286182 9.6516541578897517 -1 0 0 I I #
edge $-1 $402 -17.919337887158278 $339 -1.6144396010975299 $338 $427 forward 7 unknown #
vertex $-1 $401 $428 #
straight-curve $-1 -57.858211004974535 27.686226631286182 0.48882055764027399 0.48480960649040278 0 0.87461971476443456 I I #
point $-1 -52.779169591792538 27.686226631286182 9.6516541578897499 #
point $-1 -57.858211004974521 11.381328345225434 0.48882055764029964 #
straight-curve $-1 -57.858211004974521 0 9.6516541578897499 0 -1 0 I I #
vertex $-1 $345 $429 #
point $-1 -50.442576937795849 19.533777488255808 4.6540718021473442 #
straight-curve $-1 -57.858211004974521 36.604098634425561 0 0 0 -1 I I #
point $-1 -57.858211004974521 -36.604098634425561 -9.6516541578897499 #
straight-curve $-1 -57.858211004974521 0 -9.6516541578897499 0 1 0 I I #
point $-1 -57.858211004974521 36.604098634425561 -9.6516541578897499 #
straight-curve $-1 -57.858211004974521 -15.460955739137869 -4.6277078229098176 0 -1 0 I I #
point $-1 -57.858211004974521 -36.604098634425561 -4.6277078229098176 #
point $-1 -57.858211004974521 -25.239724322125916 -4.6277078229098176 #
straight-curve $-1 -57.858211004974521 -25.239724322125916 -0.93541436723711158 0 0 -1 I I #
straight-curve $-1 -57.858211004974521 -36.604098634425561 0 0 0 -1 I I #
straight-curve $-1 27.501083052733016 27.55620423550095 9.6516541578897517 -1 0 0 I I #
point $-1 57.858211004974521 27.55620423550095 9.6516541578897499 #
straight-curve $-1 53.942517346255833 10.671047842209568 9.6516541578897446 0 -1 0 I I #
point $-1 53.942517346255826 27.55620423550095 9.6516541578897517 #
point $-1 54.24677958736639 17.613630553770051 6.0486464803885172 #
point $-1 54.24677958736639 21.342095684419142 6.0486464803885172 #
point $-1 54.24677958736639 25.070560815068234 6.0486464803885172 #
straight-curve $-1 -57.858211004974521 27.686226631286182 28.294626788380526 0 0 -1 I I #
point $-1 -57.858211004974521 27.686226631286182 9.6516541578897499 #
straight-curve $-1 -57.858211004974521 9.766888744127904 0.48882055764030019 0 -1 0 I I #
point $-1 -57.858211004974521 27.686226631286182 0.48882055764029964 #
point $-1 -49.662956721247788 19.533777488255808 1.9352131596376696 #
End-of-ACIS-data 