500 0 9 0           
7 Unknown 11 ACIS 5.0 NT 24 Thu Mar 25 18:34:02 1999 
-1 9.9999999999999995e-007 1e-010 
body $-1 $9 $-1 $10 #
body $-1 $11 $-1 $12 #
body $-1 $13 $-1 $14 #
body $-1 $15 $-1 $16 #
body $-1 $17 $-1 $18 #
body $-1 $19 $-1 $20 #
body $-1 $21 $-1 $22 #
body $-1 $23 $-1 $24 #
body $-1 $25 $-1 $26 #
lump $-1 $-1 $27 $0 #
transform $-1 1 0 0 0 1 0 0 0 1 62.733848078859822 34.463698210625189 13.532210491589211 1 rotate no_reflect no_shear #
lump $-1 $-1 $28 $1 #
transform $-1 1 0 0 0 1 0 0 0 1 62.733848078859822 6.0447562842952607 3.8483810988456093 1 rotate no_reflect no_shear #
lump $-1 $-1 $29 $2 #
transform $-1 0.64278759981090561 0 -0.7660444514056185 0 1 0 0.7660444514056185 0 0.64278759981090561 140.93244936296225 35.161987990914007 191.41433231821622 1 rotate no_reflect no_shear #
lump $-1 $-1 $30 $3 #
transform $-1 0.64278759981090561 0 -0.7660444514056185 0 -1 0 -0.7660444514056185 0 -0.64278759981090561 119.39802425573019 31.537283386711664 20.134784731264162 1 rotate no_reflect no_shear #
lump $-1 $-1 $31 $4 #
transform $-1 0.64278759981090561 0 -0.7660444514056185 0 -1 0 -0.7660444514056185 0 -0.64278759981090561 119.39802425573019 35.161987990914007 20.134784731264162 1 rotate no_reflect no_shear #
lump $-1 $-1 $32 $5 #
transform $-1 0.64278759981090561 0 -0.7660444514056185 0 -1 0 -0.7660444514056185 0 -0.64278759981090561 119.39802425573019 38.786692595116349 20.134784731264162 1 rotate no_reflect no_shear #
lump $-1 $-1 $33 $6 #
transform $-1 0.64278759981090561 0 0.7660444514056185 0 1 0 -0.7660444514056185 0 0.64278759981090561 -96.113832472267177 20.234921877250258 101.03894260562623 1 rotate no_reflect no_shear #
lump $-1 $-1 $34 $7 #
transform $-1 0.64278759981090561 0 0.7660444514056185 0 -1 0 0.7660444514056185 0 -0.64278759981090561 5.7303645067947677 16.744032173538944 21.268534028564801 1 rotate no_reflect no_shear #
lump $-1 $-1 $35 $8 #
transform $-1 0.64278759981090561 0 0.7660444514056185 0 -1 0 0.7660444514056185 0 -0.64278759981090561 5.7303645067947677 23.725811580961576 21.268534028564801 1 rotate no_reflect no_shear #
shell $-1 $-1 $-1 $36 $-1 $9 #
shell $-1 $-1 $-1 $37 $-1 $11 #
shell $-1 $-1 $-1 $38 $-1 $13 #
shell $-1 $-1 $-1 $39 $-1 $15 #
shell $-1 $-1 $-1 $40 $-1 $17 #
shell $-1 $-1 $-1 $41 $-1 $19 #
shell $-1 $-1 $-1 $42 $-1 $21 #
shell $-1 $-1 $-1 $43 $-1 $23 #
shell $-1 $-1 $-1 $44 $-1 $25 #
face $-1 $45 $46 $27 $-1 $47 forward single #
face $-1 $48 $49 $28 $-1 $50 forward single #
face $-1 $51 $52 $29 $-1 $53 forward single #
face $-1 $54 $55 $30 $-1 $56 forward single #
face $-1 $57 $58 $31 $-1 $59 forward single #
face $-1 $60 $61 $32 $-1 $62 forward single #
face $-1 $63 $64 $33 $-1 $65 forward single #
face $-1 $66 $67 $34 $-1 $68 forward single #
face $-1 $69 $70 $35 $-1 $71 forward single #
face $-1 $72 $73 $27 $-1 $74 reversed single #
loop $-1 $-1 $75 $36 #
plane-surface $-1 0 0 13.532210491589211 0 0 1 1 0 0 forward_v I I I I #
face $-1 $76 $77 $28 $-1 $78 reversed single #
loop $-1 $-1 $79 $37 #
plane-surface $-1 0 0 3.8483810988456093 0 0 1 1 0 0 forward_v I I I I #
face $-1 $80 $81 $29 $-1 $82 reversed single #
loop $-1 $-1 $83 $38 #
plane-surface $-1 0 0 125.46769615771964 0 0 1 1 0 0 forward_v I I I I #
face $-1 $84 $85 $30 $-1 $86 forward single #
loop $-1 $87 $88 $39 #
cone-surface $-1 0 0 -0.625 0 0 1 0.25 0 0 1 I I 0 1 0.25 forward I I I I #
face $-1 $89 $90 $31 $-1 $91 forward single #
loop $-1 $92 $93 $40 #
cone-surface $-1 0 0 -0.625 0 0 1 0.25 0 0 1 I I 0 1 0.25 forward I I I I #
face $-1 $94 $95 $32 $-1 $96 forward single #
loop $-1 $97 $98 $41 #
cone-surface $-1 0 0 -0.625 0 0 1 0.25 0 0 1 I I 0 1 0.25 forward I I I I #
face $-1 $99 $100 $33 $-1 $101 reversed single #
loop $-1 $-1 $102 $42 #
plane-surface $-1 0 0 125.46769615771964 0 0 1 1 0 0 forward_v I I I I #
face $-1 $103 $104 $34 $-1 $105 forward single #
loop $-1 $106 $107 $43 #
cone-surface $-1 0 0 -2.412457655568101 0 0 1 2 0 0 1 I I 0 1 2 forward I I I I #
face $-1 $108 $109 $35 $-1 $110 forward single #
loop $-1 $111 $112 $44 #
cone-surface $-1 0 0 -2.412457655568101 0 0 1 2 0 0 1 I I 0 1 2 forward I I I I #
face $-1 $113 $114 $27 $-1 $115 reversed single #
loop $-1 $-1 $116 $45 #
plane-surface $-1 0 0 -13.532210491589211 0 0 1 1 0 0 forward_v I I I I #
coedge $-1 $117 $118 $119 $120 forward $46 $-1 #
face $-1 $121 $122 $28 $-1 $123 reversed single #
loop $-1 $-1 $124 $48 #
plane-surface $-1 0 0 -3.8483810988456093 0 0 1 1 0 0 forward_v I I I I #
coedge $-1 $125 $126 $127 $128 forward $49 $-1 #
face $-1 $129 $130 $29 $-1 $131 reversed single #
loop $-1 $-1 $132 $51 #
plane-surface $-1 0 0 -125.46769615771964 0 0 1 1 0 0 forward_v I I I I #
coedge $-1 $133 $134 $135 $136 forward $52 $-1 #
face $-1 $-1 $137 $30 $-1 $138 forward single #
loop $-1 $-1 $139 $54 #
plane-surface $-1 0 0 -1.125 0 0 -1 -1 0 0 forward_v I I I I #
loop $-1 $-1 $140 $39 #
coedge $-1 $88 $88 $139 $141 reversed $55 $-1 #
face $-1 $-1 $142 $31 $-1 $143 forward single #
loop $-1 $-1 $144 $57 #
plane-surface $-1 0 0 -1.125 0 0 -1 -1 0 0 forward_v I I I I #
loop $-1 $-1 $145 $40 #
coedge $-1 $93 $93 $144 $146 reversed $58 $-1 #
face $-1 $-1 $147 $32 $-1 $148 forward single #
loop $-1 $-1 $149 $60 #
plane-surface $-1 0 0 -1.125 0 0 -1 -1 0 0 forward_v I I I I #
loop $-1 $-1 $150 $41 #
coedge $-1 $98 $98 $149 $151 reversed $61 $-1 #
face $-1 $152 $153 $33 $-1 $154 reversed single #
loop $-1 $-1 $155 $63 #
plane-surface $-1 0 0 -125.46769615771964 0 0 1 1 0 0 forward_v I I I I #
coedge $-1 $156 $157 $158 $159 forward $64 $-1 #
face $-1 $-1 $160 $34 $-1 $161 forward single #
loop $-1 $-1 $162 $66 #
plane-surface $-1 0 0 -3.8249153111362038 0 0 -1 -1 0 0 forward_v I I I I #
loop $-1 $-1 $163 $43 #
coedge $-1 $107 $107 $162 $164 reversed $67 $-1 #
face $-1 $-1 $165 $35 $-1 $166 forward single #
loop $-1 $-1 $167 $69 #
plane-surface $-1 0 0 -3.8249153111362038 0 0 -1 -1 0 0 forward_v I I I I #
loop $-1 $-1 $168 $44 #
coedge $-1 $112 $112 $167 $169 reversed $70 $-1 #
face $-1 $170 $171 $27 $-1 $172 reversed single #
loop $-1 $-1 $173 $72 #
plane-surface $-1 0 -34.463698210625189 0 0 1 0 0 0 1 forward_v I I I I #
coedge $-1 $174 $175 $176 $177 forward $73 $-1 #
coedge $-1 $178 $75 $179 $180 forward $46 $-1 #
coedge $-1 $75 $178 $181 $182 forward $46 $-1 #
coedge $-1 $183 $184 $75 $120 reversed $185 $-1 #
edge $-1 $186 -34.463698210625189 $187 34.463698210625189 $119 $188 forward 7 unknown #
face $-1 $189 $190 $28 $-1 $191 reversed single #
loop $-1 $-1 $192 $76 #
plane-surface $-1 0 -6.0447562842952607 0 0 1 0 0 0 1 forward_v I I I I #
coedge $-1 $193 $194 $195 $196 forward $77 $-1 #
coedge $-1 $197 $79 $198 $199 forward $49 $-1 #
coedge $-1 $79 $197 $200 $201 forward $49 $-1 #
coedge $-1 $202 $203 $79 $128 reversed $204 $-1 #
edge $-1 $205 -6.0447562842952607 $206 6.0447562842952607 $127 $207 forward 7 unknown #
face $-1 $208 $209 $29 $-1 $210 reversed single #
loop $-1 $-1 $211 $80 #
plane-surface $-1 0 -6.0411743403372355 0 0 1 0 0 0 1 forward_v I I I I #
coedge $-1 $212 $213 $214 $215 forward $81 $-1 #
coedge $-1 $216 $83 $217 $218 forward $52 $-1 #
coedge $-1 $83 $216 $219 $220 forward $52 $-1 #
coedge $-1 $221 $222 $83 $136 reversed $223 $-1 #
edge $-1 $224 -6.0411743403372355 $225 6.0411743403372355 $135 $226 forward 7 unknown #
loop $-1 $227 $228 $84 #
cone-surface $-1 0 0 0 0 0 1 0.125 0 0 1 I I -0.70710678118654746 0.70710678118654746 0.125 forward I I I I #
coedge $-1 $139 $139 $88 $141 forward $85 $-1 #
coedge $-1 $140 $140 $228 $229 forward $87 $-1 #
edge $-1 $230 0 $230 6.2831853071796004 $139 $231 forward 7 unknown #
loop $-1 $232 $233 $89 #
cone-surface $-1 0 0 0 0 0 1 0.125 0 0 1 I I -0.70710678118654746 0.70710678118654746 0.125 forward I I I I #
coedge $-1 $144 $144 $93 $146 forward $90 $-1 #
coedge $-1 $145 $145 $233 $234 forward $92 $-1 #
edge $-1 $235 0 $235 6.2831853071796004 $144 $236 forward 7 unknown #
loop $-1 $237 $238 $94 #
cone-surface $-1 0 0 0 0 0 1 0.125 0 0 1 I I -0.70710678118654746 0.70710678118654746 0.125 forward I I I I #
coedge $-1 $149 $149 $98 $151 forward $95 $-1 #
coedge $-1 $150 $150 $238 $239 forward $97 $-1 #
edge $-1 $240 0 $240 6.2831853071796004 $149 $241 forward 7 unknown #
face $-1 $242 $243 $33 $-1 $244 reversed single #
loop $-1 $-1 $245 $99 #
plane-surface $-1 0 -8.1454093086597386 0 0 1 0 0 0 1 forward_v I I I I #
coedge $-1 $246 $247 $248 $249 forward $100 $-1 #
coedge $-1 $250 $102 $251 $252 forward $64 $-1 #
coedge $-1 $102 $250 $253 $254 forward $64 $-1 #
coedge $-1 $255 $256 $102 $159 reversed $257 $-1 #
edge $-1 $258 -8.1454093086597386 $259 8.1454093086597386 $158 $260 forward 7 unknown #
loop $-1 $261 $262 $103 #
cone-surface $-1 0 0 0 0 0 1 1 0 0 1 I I -0.70710678118654779 0.70710678118654713 1 forward I I I I #
coedge $-1 $162 $162 $107 $164 forward $104 $-1 #
coedge $-1 $163 $163 $262 $263 forward $106 $-1 #
edge $-1 $264 0 $264 6.2831853071796004 $162 $265 forward 7 unknown #
loop $-1 $266 $267 $108 #
cone-surface $-1 0 0 0 0 0 1 1 0 0 1 I I -0.70710678118654779 0.70710678118654713 1 forward I I I I #
coedge $-1 $167 $167 $112 $169 forward $109 $-1 #
coedge $-1 $168 $168 $267 $268 forward $111 $-1 #
edge $-1 $269 0 $269 6.2831853071796004 $167 $270 forward 7 unknown #
face $-1 $271 $272 $27 $-1 $273 reversed single #
loop $-1 $-1 $274 $113 #
plane-surface $-1 -62.733848078859822 0 0 1 0 0 0 0 -1 forward_v I I I I #
coedge $-1 $275 $181 $276 $277 forward $114 $-1 #
coedge $-1 $278 $116 $275 $279 forward $73 $-1 #
coedge $-1 $116 $278 $280 $281 forward $73 $-1 #
coedge $-1 $184 $183 $116 $177 reversed $185 $-1 #
edge $-1 $282 -34.463698210625189 $283 34.463698210625189 $176 $284 forward 7 unknown #
coedge $-1 $118 $117 $285 $286 forward $46 $-1 #
coedge $-1 $287 $288 $117 $180 reversed $272 $-1 #
edge $-1 $187 -62.733848078859822 $289 62.733848078859822 $179 $290 forward 7 unknown #
coedge $-1 $173 $291 $118 $182 reversed $114 $-1 #
edge $-1 $292 -62.733848078859822 $186 62.733848078859822 $181 $293 forward 7 unknown #
coedge $-1 $176 $119 $291 $294 forward $185 $-1 #
coedge $-1 $119 $176 $287 $295 reversed $185 $-1 #
loop $-1 $-1 $183 $271 #
vertex $-1 $120 $296 #
vertex $-1 $120 $297 #
straight-curve $-1 62.733848078859822 0 13.532210491589211 0 1 0 I I #
face $-1 $298 $299 $28 $-1 $300 reversed single #
loop $-1 $-1 $301 $121 #
plane-surface $-1 -62.733848078859822 0 0 1 0 0 0 0 -1 forward_v I I I I #
coedge $-1 $302 $200 $303 $304 forward $122 $-1 #
coedge $-1 $305 $124 $302 $306 forward $77 $-1 #
coedge $-1 $124 $305 $307 $308 forward $77 $-1 #
coedge $-1 $203 $202 $124 $196 reversed $204 $-1 #
edge $-1 $309 -6.0447562842952607 $310 6.0447562842952607 $195 $311 forward 7 unknown #
coedge $-1 $126 $125 $312 $313 forward $49 $-1 #
coedge $-1 $314 $315 $125 $199 reversed $299 $-1 #
edge $-1 $206 -62.733848078859822 $316 62.733848078859822 $198 $317 forward 7 unknown #
coedge $-1 $192 $318 $126 $201 reversed $122 $-1 #
edge $-1 $319 -62.733848078859822 $205 62.733848078859822 $200 $320 forward 7 unknown #
coedge $-1 $195 $127 $318 $321 forward $204 $-1 #
coedge $-1 $127 $195 $314 $322 reversed $204 $-1 #
loop $-1 $-1 $202 $298 #
vertex $-1 $128 $323 #
vertex $-1 $128 $324 #
straight-curve $-1 62.733848078859822 0 3.8483810988456093 0 1 0 I I #
face $-1 $325 $326 $29 $-1 $327 reversed single #
loop $-1 $-1 $328 $129 #
plane-surface $-1 -250.93539231543929 0 0 1 0 0 0 0 -1 forward_v I I I I #
coedge $-1 $329 $219 $330 $331 forward $130 $-1 #
coedge $-1 $332 $132 $329 $333 forward $81 $-1 #
coedge $-1 $132 $332 $334 $335 forward $81 $-1 #
coedge $-1 $222 $221 $132 $215 reversed $223 $-1 #
edge $-1 $336 -6.0411743403372355 $337 6.0411743403372355 $214 $338 forward 7 unknown #
coedge $-1 $134 $133 $339 $340 forward $52 $-1 #
coedge $-1 $341 $342 $133 $218 reversed $326 $-1 #
edge $-1 $225 -250.93539231543929 $343 250.93539231543929 $217 $344 forward 7 unknown #
coedge $-1 $211 $345 $134 $220 reversed $130 $-1 #
edge $-1 $346 -250.93539231543929 $224 250.93539231543929 $219 $347 forward 7 unknown #
coedge $-1 $214 $135 $345 $348 forward $223 $-1 #
coedge $-1 $135 $214 $341 $349 reversed $223 $-1 #
loop $-1 $-1 $221 $325 #
vertex $-1 $136 $350 #
vertex $-1 $136 $351 #
straight-curve $-1 250.93539231543929 0 125.46769615771964 0 1 0 I I #
loop $-1 $-1 $352 $84 #
coedge $-1 $228 $228 $140 $229 reversed $137 $-1 #
edge $-1 $353 0 $353 6.2831853071796004 $228 $354 forward 7 unknown #
vertex $-1 $141 $355 #
ellipse-curve $-1 0 0 -1.125 0 0 -1 0.25 0 0 1 I I #
loop $-1 $-1 $356 $89 #
coedge $-1 $233 $233 $145 $234 reversed $142 $-1 #
edge $-1 $357 0 $357 6.2831853071796004 $233 $358 forward 7 unknown #
vertex $-1 $146 $359 #
ellipse-curve $-1 0 0 -1.125 0 0 -1 0.25 0 0 1 I I #
loop $-1 $-1 $360 $94 #
coedge $-1 $238 $238 $150 $239 reversed $147 $-1 #
edge $-1 $361 0 $361 6.2831853071796004 $238 $362 forward 7 unknown #
vertex $-1 $151 $363 #
ellipse-curve $-1 0 0 -1.125 0 0 -1 0.25 0 0 1 I I #
face $-1 $364 $365 $33 $-1 $366 reversed single #
loop $-1 $-1 $367 $152 #
plane-surface $-1 -250.93539231543929 0 0 1 0 0 0 0 -1 forward_v I I I I #
coedge $-1 $368 $253 $369 $370 forward $153 $-1 #
coedge $-1 $371 $155 $368 $372 forward $100 $-1 #
coedge $-1 $155 $371 $373 $374 forward $100 $-1 #
coedge $-1 $256 $255 $155 $249 reversed $257 $-1 #
edge $-1 $375 -8.1454093086597386 $376 8.1454093086597386 $248 $377 forward 7 unknown #
coedge $-1 $157 $156 $378 $379 forward $64 $-1 #
coedge $-1 $380 $381 $156 $252 reversed $365 $-1 #
edge $-1 $259 -250.93539231543929 $382 250.93539231543929 $251 $383 forward 7 unknown #
coedge $-1 $245 $384 $157 $254 reversed $153 $-1 #
edge $-1 $385 -250.93539231543929 $258 250.93539231543929 $253 $386 forward 7 unknown #
coedge $-1 $248 $158 $384 $387 forward $257 $-1 #
coedge $-1 $158 $248 $380 $388 reversed $257 $-1 #
loop $-1 $-1 $255 $364 #
vertex $-1 $159 $389 #
vertex $-1 $159 $390 #
straight-curve $-1 250.93539231543929 0 125.46769615771964 0 1 0 I I #
loop $-1 $-1 $391 $103 #
coedge $-1 $262 $262 $163 $263 reversed $160 $-1 #
edge $-1 $392 0 $392 6.2831853071796004 $262 $393 forward 7 unknown #
vertex $-1 $164 $394 #
ellipse-curve $-1 0 0 -3.8249153111362038 0 0 -1 2 0 0 1 I I #
loop $-1 $-1 $395 $108 #
coedge $-1 $267 $267 $168 $268 reversed $165 $-1 #
edge $-1 $396 0 $396 6.2831853071796004 $267 $397 forward 7 unknown #
vertex $-1 $169 $398 #
ellipse-curve $-1 0 0 -3.8249153111362038 0 0 -1 2 0 0 1 I I #
face $-1 $-1 $185 $27 $-1 $399 reversed single #
loop $-1 $-1 $287 $170 #
plane-surface $-1 0 34.463698210625189 0 0 -1 0 0 0 -1 forward_v I I I I #
coedge $-1 $400 $285 $288 $401 forward $171 $-1 #
coedge $-1 $291 $173 $174 $279 reversed $114 $-1 #
coedge $-1 $285 $400 $173 $277 reversed $171 $-1 #
edge $-1 $292 -13.532210491589211 $402 13.532210491589211 $276 $403 forward 7 unknown #
coedge $-1 $175 $174 $400 $404 forward $73 $-1 #
edge $-1 $283 -62.733848078859822 $402 62.733848078859822 $275 $405 forward 7 unknown #
coedge $-1 $288 $287 $175 $281 reversed $272 $-1 #
edge $-1 $406 -62.733848078859822 $282 62.733848078859822 $280 $407 forward 7 unknown #
vertex $-1 $177 $408 #
vertex $-1 $294 $409 #
straight-curve $-1 62.733848078859822 0 -13.532210491589211 0 -1 0 I I #
coedge $-1 $274 $276 $178 $286 reversed $171 $-1 #
edge $-1 $289 -34.463698210625189 $292 34.463698210625189 $285 $410 forward 7 unknown #
coedge $-1 $280 $179 $184 $295 forward $272 $-1 #
coedge $-1 $179 $280 $274 $401 reversed $272 $-1 #
vertex $-1 $180 $411 #
straight-curve $-1 0 34.463698210625189 13.532210491589211 -1 0 0 I I #
coedge $-1 $181 $275 $183 $294 reversed $114 $-1 #
vertex $-1 $286 $412 #
straight-curve $-1 0 -34.463698210625189 13.532210491589211 1 0 0 I I #
edge $-1 $186 -13.532210491589211 $283 13.532210491589211 $183 $413 forward 7 unknown #
edge $-1 $187 -13.532210491589211 $282 13.532210491589211 $184 $414 forward 7 unknown #
point $-1 62.733848078859822 -34.463698210625189 13.532210491589211 #
point $-1 62.733848078859822 34.463698210625189 13.532210491589211 #
face $-1 $-1 $204 $28 $-1 $415 reversed single #
loop $-1 $-1 $314 $189 #
plane-surface $-1 0 6.0447562842952607 0 0 -1 0 0 0 -1 forward_v I I I I #
coedge $-1 $416 $312 $315 $417 forward $190 $-1 #
coedge $-1 $318 $192 $193 $306 reversed $122 $-1 #
coedge $-1 $312 $416 $192 $304 reversed $190 $-1 #
edge $-1 $319 -3.8483810988456093 $418 3.8483810988456093 $303 $419 forward 7 unknown #
coedge $-1 $194 $193 $416 $420 forward $77 $-1 #
edge $-1 $310 -62.733848078859822 $418 62.733848078859822 $302 $421 forward 7 unknown #
coedge $-1 $315 $314 $194 $308 reversed $299 $-1 #
edge $-1 $422 -62.733848078859822 $309 62.733848078859822 $307 $423 forward 7 unknown #
vertex $-1 $196 $424 #
vertex $-1 $321 $425 #
straight-curve $-1 62.733848078859822 0 -3.8483810988456093 0 -1 0 I I #
coedge $-1 $301 $303 $197 $313 reversed $190 $-1 #
edge $-1 $316 -6.0447562842952607 $319 6.0447562842952607 $312 $426 forward 7 unknown #
coedge $-1 $307 $198 $203 $322 forward $299 $-1 #
coedge $-1 $198 $307 $301 $417 reversed $299 $-1 #
vertex $-1 $199 $427 #
straight-curve $-1 0 6.0447562842952607 3.8483810988456093 -1 0 0 I I #
coedge $-1 $200 $302 $202 $321 reversed $122 $-1 #
vertex $-1 $313 $428 #
straight-curve $-1 0 -6.0447562842952607 3.8483810988456093 1 0 0 I I #
edge $-1 $205 -3.8483810988456093 $310 3.8483810988456093 $202 $429 forward 7 unknown #
edge $-1 $206 -3.8483810988456093 $309 3.8483810988456093 $203 $430 forward 7 unknown #
point $-1 62.733848078859822 -6.0447562842952607 3.8483810988456093 #
point $-1 62.733848078859822 6.0447562842952607 3.8483810988456093 #
face $-1 $-1 $223 $29 $-1 $431 reversed single #
loop $-1 $-1 $341 $208 #
plane-surface $-1 0 6.0411743403372355 0 0 -1 0 0 0 -1 forward_v I I I I #
coedge $-1 $432 $339 $342 $433 forward $209 $-1 #
coedge $-1 $345 $211 $212 $333 reversed $130 $-1 #
coedge $-1 $339 $432 $211 $331 reversed $209 $-1 #
edge $-1 $346 -125.46769615771964 $434 125.46769615771964 $330 $435 forward 7 unknown #
coedge $-1 $213 $212 $432 $436 forward $81 $-1 #
edge $-1 $337 -250.93539231543929 $434 250.93539231543929 $329 $437 forward 7 unknown #
coedge $-1 $342 $341 $213 $335 reversed $326 $-1 #
edge $-1 $438 -250.93539231543929 $336 250.93539231543929 $334 $439 forward 7 unknown #
vertex $-1 $215 $440 #
vertex $-1 $348 $441 #
straight-curve $-1 250.93539231543929 0 -125.46769615771964 0 -1 0 I I #
coedge $-1 $328 $330 $216 $340 reversed $209 $-1 #
edge $-1 $343 -6.0411743403372355 $346 6.0411743403372355 $339 $442 forward 7 unknown #
coedge $-1 $334 $217 $222 $349 forward $326 $-1 #
coedge $-1 $217 $334 $328 $433 reversed $326 $-1 #
vertex $-1 $218 $443 #
straight-curve $-1 0 6.0411743403372355 125.46769615771964 -1 0 0 I I #
coedge $-1 $219 $329 $221 $348 reversed $130 $-1 #
vertex $-1 $340 $444 #
straight-curve $-1 0 -6.0411743403372355 125.46769615771964 1 0 0 I I #
edge $-1 $224 -125.46769615771964 $337 125.46769615771964 $221 $445 forward 7 unknown #
edge $-1 $225 -125.46769615771964 $336 125.46769615771964 $222 $446 forward 7 unknown #
point $-1 250.93539231543929 -6.0411743403372355 125.46769615771964 #
point $-1 250.93539231543929 6.0411743403372355 125.46769615771964 #
coedge $-1 $352 $352 $-1 $447 reversed $227 $-1 #
vertex $-1 $229 $448 #
ellipse-curve $-1 0 0 -0.125 0 0 -1 0.25 0 0 1 I I #
point $-1 0.25 0 -1.125 #
coedge $-1 $356 $356 $-1 $449 reversed $232 $-1 #
vertex $-1 $234 $450 #
ellipse-curve $-1 0 0 -0.125 0 0 -1 0.25 0 0 1 I I #
point $-1 0.25 0 -1.125 #
coedge $-1 $360 $360 $-1 $451 reversed $237 $-1 #
vertex $-1 $239 $452 #
ellipse-curve $-1 0 0 -0.125 0 0 -1 0.25 0 0 1 I I #
point $-1 0.25 0 -1.125 #
face $-1 $-1 $257 $33 $-1 $453 reversed single #
loop $-1 $-1 $380 $242 #
plane-surface $-1 0 8.1454093086597386 0 0 -1 0 0 0 -1 forward_v I I I I #
coedge $-1 $454 $378 $381 $455 forward $243 $-1 #
coedge $-1 $384 $245 $246 $372 reversed $153 $-1 #
coedge $-1 $378 $454 $245 $370 reversed $243 $-1 #
edge $-1 $385 -125.46769615771964 $456 125.46769615771964 $369 $457 forward 7 unknown #
coedge $-1 $247 $246 $454 $458 forward $100 $-1 #
edge $-1 $376 -250.93539231543929 $456 250.93539231543929 $368 $459 forward 7 unknown #
coedge $-1 $381 $380 $247 $374 reversed $365 $-1 #
edge $-1 $460 -250.93539231543929 $375 250.93539231543929 $373 $461 forward 7 unknown #
vertex $-1 $249 $462 #
vertex $-1 $387 $463 #
straight-curve $-1 250.93539231543929 0 -125.46769615771964 0 -1 0 I I #
coedge $-1 $367 $369 $250 $379 reversed $243 $-1 #
edge $-1 $382 -8.1454093086597386 $385 8.1454093086597386 $378 $464 forward 7 unknown #
coedge $-1 $373 $251 $256 $388 forward $365 $-1 #
coedge $-1 $251 $373 $367 $455 reversed $365 $-1 #
vertex $-1 $252 $465 #
straight-curve $-1 0 8.1454093086597386 125.46769615771964 -1 0 0 I I #
coedge $-1 $253 $368 $255 $387 reversed $153 $-1 #
vertex $-1 $379 $466 #
straight-curve $-1 0 -8.1454093086597386 125.46769615771964 1 0 0 I I #
edge $-1 $258 -125.46769615771964 $376 125.46769615771964 $255 $467 forward 7 unknown #
edge $-1 $259 -125.46769615771964 $375 125.46769615771964 $256 $468 forward 7 unknown #
point $-1 250.93539231543929 -8.1454093086597386 125.46769615771964 #
point $-1 250.93539231543929 8.1454093086597386 125.46769615771964 #
coedge $-1 $391 $391 $-1 $469 reversed $261 $-1 #
vertex $-1 $263 $470 #
ellipse-curve $-1 0 0 -0.99999999999999911 0 0 -1 2 0 0 1 I I #
point $-1 2 0 -3.8249153111362038 #
coedge $-1 $395 $395 $-1 $471 reversed $266 $-1 #
vertex $-1 $268 $472 #
ellipse-curve $-1 0 0 -0.99999999999999911 0 0 -1 2 0 0 1 I I #
point $-1 2 0 -3.8249153111362038 #
plane-surface $-1 62.733848078859822 0 0 -1 0 0 0 0 1 forward_v I I I I #
coedge $-1 $276 $274 $278 $404 reversed $171 $-1 #
edge $-1 $289 -13.532210491589211 $406 13.532210491589211 $288 $473 forward 7 unknown #
vertex $-1 $404 $474 #
straight-curve $-1 -62.733848078859822 -34.463698210625189 0 0 0 -1 I I #
edge $-1 $402 -34.463698210625189 $406 34.463698210625189 $400 $475 forward 7 unknown #
straight-curve $-1 0 -34.463698210625189 -13.532210491589211 -1 0 0 I I #
vertex $-1 $281 $476 #
straight-curve $-1 0 34.463698210625189 -13.532210491589211 1 0 0 I I #
point $-1 62.733848078859822 34.463698210625189 -13.532210491589211 #
point $-1 62.733848078859822 -34.463698210625189 -13.532210491589211 #
straight-curve $-1 -62.733848078859822 0 13.532210491589211 0 -1 0 I I #
point $-1 -62.733848078859822 34.463698210625189 13.532210491589211 #
point $-1 -62.733848078859822 -34.463698210625189 13.532210491589211 #
straight-curve $-1 62.733848078859822 -34.463698210625189 0 0 0 -1 I I #
straight-curve $-1 62.733848078859822 34.463698210625189 0 0 0 -1 I I #
plane-surface $-1 62.733848078859822 0 0 -1 0 0 0 0 1 forward_v I I I I #
coedge $-1 $303 $301 $305 $420 reversed $190 $-1 #
edge $-1 $316 -3.8483810988456093 $422 3.8483810988456093 $315 $477 forward 7 unknown #
vertex $-1 $420 $478 #
straight-curve $-1 -62.733848078859822 -6.0447562842952607 0 0 0 -1 I I #
edge $-1 $418 -6.0447562842952607 $422 6.0447562842952607 $416 $479 forward 7 unknown #
straight-curve $-1 0 -6.0447562842952607 -3.8483810988456093 -1 0 0 I I #
vertex $-1 $308 $480 #
straight-curve $-1 0 6.0447562842952607 -3.8483810988456093 1 0 0 I I #
point $-1 62.733848078859822 6.0447562842952607 -3.8483810988456093 #
point $-1 62.733848078859822 -6.0447562842952607 -3.8483810988456093 #
straight-curve $-1 -62.733848078859822 0 3.8483810988456093 0 -1 0 I I #
point $-1 -62.733848078859822 6.0447562842952607 3.8483810988456093 #
point $-1 -62.733848078859822 -6.0447562842952607 3.8483810988456093 #
straight-curve $-1 62.733848078859822 -6.0447562842952607 0 0 0 -1 I I #
straight-curve $-1 62.733848078859822 6.0447562842952607 0 0 0 -1 I I #
plane-surface $-1 250.93539231543929 0 0 -1 0 0 0 0 1 forward_v I I I I #
coedge $-1 $330 $328 $332 $436 reversed $209 $-1 #
edge $-1 $343 -125.46769615771964 $438 125.46769615771964 $342 $481 forward 7 unknown #
vertex $-1 $436 $482 #
straight-curve $-1 -250.93539231543929 -6.0411743403372355 0 0 0 -1 I I #
edge $-1 $434 -6.0411743403372355 $438 6.0411743403372355 $432 $483 forward 7 unknown #
straight-curve $-1 0 -6.0411743403372355 -125.46769615771964 -1 0 0 I I #
vertex $-1 $335 $484 #
straight-curve $-1 0 6.0411743403372355 -125.46769615771964 1 0 0 I I #
point $-1 250.93539231543929 6.0411743403372355 -125.46769615771964 #
point $-1 250.93539231543929 -6.0411743403372355 -125.46769615771964 #
straight-curve $-1 -250.93539231543929 0 125.46769615771964 0 -1 0 I I #
point $-1 -250.93539231543929 6.0411743403372355 125.46769615771964 #
point $-1 -250.93539231543929 -6.0411743403372355 125.46769615771964 #
straight-curve $-1 250.93539231543929 -6.0411743403372355 0 0 0 -1 I I #
straight-curve $-1 250.93539231543929 6.0411743403372355 0 0 0 -1 I I #
edge $-1 $485 1 $485 0 $352 $-1 forward 7 unknown #
point $-1 0.25 0 -0.125 #
edge $-1 $486 1 $486 0 $356 $-1 forward 7 unknown #
point $-1 0.25 0 -0.125 #
edge $-1 $487 1 $487 0 $360 $-1 forward 7 unknown #
point $-1 0.25 0 -0.125 #
plane-surface $-1 250.93539231543929 0 0 -1 0 0 0 0 1 forward_v I I I I #
coedge $-1 $369 $367 $371 $458 reversed $243 $-1 #
edge $-1 $382 -125.46769615771964 $460 125.46769615771964 $381 $488 forward 7 unknown #
vertex $-1 $458 $489 #
straight-curve $-1 -250.93539231543929 -8.1454093086597386 0 0 0 -1 I I #
edge $-1 $456 -8.1454093086597386 $460 8.1454093086597386 $454 $490 forward 7 unknown #
straight-curve $-1 0 -8.1454093086597386 -125.46769615771964 -1 0 0 I I #
vertex $-1 $374 $491 #
straight-curve $-1 0 8.1454093086597386 -125.46769615771964 1 0 0 I I #
point $-1 250.93539231543929 8.1454093086597386 -125.46769615771964 #
point $-1 250.93539231543929 -8.1454093086597386 -125.46769615771964 #
straight-curve $-1 -250.93539231543929 0 125.46769615771964 0 -1 0 I I #
point $-1 -250.93539231543929 8.1454093086597386 125.46769615771964 #
point $-1 -250.93539231543929 -8.1454093086597386 125.46769615771964 #
straight-curve $-1 250.93539231543929 -8.1454093086597386 0 0 0 -1 I I #
straight-curve $-1 250.93539231543929 8.1454093086597386 0 0 0 -1 I I #
edge $-1 $492 1 $492 0 $391 $-1 forward 7 unknown #
point $-1 2 0 -0.99999999999999911 #
edge $-1 $493 1 $493 0 $395 $-1 forward 7 unknown #
point $-1 2 0 -0.99999999999999911 #
straight-curve $-1 -62.733848078859822 34.463698210625189 0 0 0 -1 I I #
point $-1 -62.733848078859822 -34.463698210625189 -13.532210491589211 #
straight-curve $-1 -62.733848078859822 0 -13.532210491589211 0 1 0 I I #
point $-1 -62.733848078859822 34.463698210625189 -13.532210491589211 #
straight-curve $-1 -62.733848078859822 6.0447562842952607 0 0 0 -1 I I #
point $-1 -62.733848078859822 -6.0447562842952607 -3.8483810988456093 #
straight-curve $-1 -62.733848078859822 0 -3.8483810988456093 0 1 0 I I #
point $-1 -62.733848078859822 6.0447562842952607 -3.8483810988456093 #
straight-curve $-1 -250.93539231543929 6.0411743403372355 0 0 0 -1 I I #
point $-1 -250.93539231543929 -6.0411743403372355 -125.46769615771964 #
straight-curve $-1 -250.93539231543929 0 -125.46769615771964 0 1 0 I I #
point $-1 -250.93539231543929 6.0411743403372355 -125.46769615771964 #
vertex $-1 $447 $494 #
vertex $-1 $449 $495 #
vertex $-1 $451 $496 #
straight-curve $-1 -250.93539231543929 8.1454093086597386 0 0 0 -1 I I #
point $-1 -250.93539231543929 -8.1454093086597386 -125.46769615771964 #
straight-curve $-1 -250.93539231543929 0 -125.46769615771964 0 1 0 I I #
point $-1 -250.93539231543929 8.1454093086597386 -125.46769615771964 #
vertex $-1 $469 $497 #
vertex $-1 $471 $498 #
point $-1 0 0 0.125 #
point $-1 0 0 0.125 #
point $-1 0 0 0.125 #
point $-1 0 0 0.99999999999999911 #
point $-1 0 0 0.99999999999999911 #
End-of-ACIS-data 