500 0 5 0           
7 Unknown 11 ACIS 5.0 NT 24 Fri Mar 26 02:11:57 1999 
-1 9.9999999999999995e-007 1e-010 
body $-1 $5 $-1 $6 #
body $-1 $7 $-1 $8 #
body $-1 $9 $-1 $10 #
body $-1 $11 $-1 $12 #
body $-1 $13 $-1 $14 #
lump $-1 $-1 $15 $0 #
transform $-1 1 0 0 0 1 0 0 0 1 65.351115451521338 43.794641064295675 18.26859497016283 1 rotate no_reflect no_shear #
lump $-1 $-1 $16 $1 #
transform $-1 1 0 0 0 1 0 0 0 1 65.351115451521338 43.794641064295675 18.26859497016283 1 rotate no_reflect no_shear #
lump $-1 $-1 $17 $2 #
transform $-1 1 0 0 0 1 0 0 0 1 65.351115451521338 43.794641064295675 18.26859497016283 1 rotate no_reflect no_shear #
lump $-1 $-1 $18 $3 #
transform $-1 1 0 0 0 1 0 0 0 1 65.351115451521338 43.794641064295675 18.26859497016283 1 rotate no_reflect no_shear #
lump $-1 $-1 $19 $4 #
transform $-1 1 0 0 0 1 0 0 0 1 65.351115451521338 43.794641064295675 18.26859497016283 1 rotate no_reflect no_shear #
shell $-1 $-1 $-1 $20 $-1 $5 #
shell $-1 $-1 $-1 $21 $-1 $7 #
shell $-1 $-1 $-1 $22 $-1 $9 #
shell $-1 $-1 $-1 $23 $-1 $11 #
shell $-1 $-1 $-1 $24 $-1 $13 #
face $-1 $25 $26 $15 $-1 $27 forward single #
face $-1 $28 $29 $16 $-1 $30 reversed single #
face $-1 $31 $32 $17 $-1 $33 forward single #
face $-1 $34 $35 $18 $-1 $36 reversed single #
face $-1 $37 $38 $19 $-1 $39 forward single #
face $-1 $40 $41 $15 $-1 $42 reversed single #
loop $-1 $-1 $43 $20 #
plane-surface $-1 0 0 18.26859497016283 0 0 1 1 0 0 forward_v I I I I #
face $-1 $44 $45 $16 $-1 $46 reversed single #
loop $-1 $-1 $47 $21 #
plane-surface $-1 -55.530364373768535 0 7.4947681650717186 0 0 1 1 0 0 forward_v I I I I #
face $-1 $48 $49 $17 $-1 $50 reversed single #
loop $-1 $-1 $51 $22 #
plane-surface $-1 65.351115451521338 0 0 -1 0 0 0 0 1 forward_v I I I I #
face $-1 $52 $53 $18 $-1 $54 reversed single #
loop $-1 $-1 $55 $23 #
plane-surface $-1 -25.876285822750603 -148.1780849807534 78.87291308024524 -1 0 0 0 -0.79863551827123203 0.60181501223851219 forward_v I I I I #
face $-1 $56 $57 $19 $-1 $58 forward single #
loop $-1 $59 $60 $24 #
cone-surface $-1 -35.792949559383167 -36.066510924286476 8.5439029347964563 0 0.79863551827123203 -0.60181501223851219 1 0 0 1 I I 0 1 1 forward I I I I #
face $-1 $61 $62 $15 $-1 $63 reversed single #
loop $-1 $-1 $64 $25 #
plane-surface $-1 0 0 -18.26859497016283 0 0 1 1 0 0 forward_v I I I I #
coedge $-1 $65 $66 $67 $68 forward $26 $-1 #
face $-1 $69 $70 $16 $-1 $71 reversed single #
loop $-1 $-1 $72 $28 #
plane-surface $-1 -45.709613296015732 0 12.881681567617274 -1 0 0 0 0 1 forward_v I I I I #
coedge $-1 $73 $74 $75 $76 forward $29 $-1 #
face $-1 $77 $78 $17 $-1 $79 reversed single #
loop $-1 $-1 $80 $31 #
plane-surface $-1 0 0 -18.26859497016283 0 0 1 1 0 0 forward_v I I I I #
coedge $-1 $81 $82 $83 $84 forward $32 $-1 #
face $-1 $85 $86 $18 $-1 $87 reversed single #
loop $-1 $-1 $88 $34 #
plane-surface $-1 -35.792949559383167 -43.794641064295675 0.21434838972976422 0 -0.79863551827123203 0.60181501223851219 1 0 0 forward_v I I I I #
coedge $-1 $89 $90 $91 $92 reversed $35 $-1 #
face $-1 $-1 $93 $19 $-1 $94 forward single #
loop $-1 $95 $96 $37 #
cone-surface $-1 -35.792949559383167 -34.741488147856003 7.54542668352736 0 0.79863551827123203 -0.60181501223851219 0.5 0 0 1 I I -0.70710678118654691 0.70710678118654813 0.5 forward I I I I #
loop $-1 $-1 $97 $24 #
coedge $-1 $60 $60 $98 $99 reversed $38 $-1 #
face $-1 $100 $101 $15 $-1 $102 reversed single #
loop $-1 $-1 $103 $40 #
plane-surface $-1 0 -43.794641064295675 0 0 1 0 0 0 1 forward_v I I I I #
coedge $-1 $104 $105 $106 $107 forward $41 $-1 #
coedge $-1 $108 $43 $109 $110 forward $26 $-1 #
coedge $-1 $43 $108 $111 $112 forward $26 $-1 #
coedge $-1 $113 $114 $43 $68 reversed $115 $-1 #
edge $-1 $116 -43.794641064295675 $117 43.794641064295675 $67 $118 forward 7 unknown #
face $-1 $119 $120 $16 $-1 $121 reversed single #
loop $-1 $-1 $122 $44 #
plane-surface $-1 0 43.794641064295675 0 0 -1 0 0 0 -1 forward_v I I I I #
coedge $-1 $75 $123 $124 $125 reversed $45 $-1 #
coedge $-1 $126 $47 $127 $128 reversed $29 $-1 #
coedge $-1 $47 $126 $129 $130 reversed $29 $-1 #
coedge $-1 $131 $72 $47 $76 reversed $45 $-1 #
edge $-1 $132 -43.794641064295675 $133 43.794641064295675 $75 $134 forward 7 unknown #
face $-1 $135 $136 $17 $-1 $137 reversed single #
loop $-1 $-1 $83 $48 #
plane-surface $-1 77.393301362216306 -16.53442060993234 0 0 1 0 0 0 1 forward_v I I I I #
coedge $-1 $138 $139 $82 $140 forward $49 $-1 #
coedge $-1 $141 $51 $142 $143 reversed $32 $-1 #
coedge $-1 $51 $141 $80 $140 reversed $32 $-1 #
coedge $-1 $144 $145 $51 $84 reversed $78 $-1 #
edge $-1 $146 -18.26859497016283 $147 18.26859497016283 $83 $148 forward 7 unknown #
face $-1 $149 $150 $18 $-1 $151 forward single #
loop $-1 $-1 $152 $52 #
plane-surface $-1 0 -43.794641064295675 0 0 1 0 0 0 1 forward_v I I I I #
coedge $-1 $153 $154 $155 $156 reversed $53 $-1 #
coedge $-1 $90 $55 $157 $158 reversed $35 $-1 #
coedge $-1 $55 $89 $153 $159 reversed $35 $-1 #
coedge $-1 $155 $160 $55 $92 forward $150 $-1 #
edge $-1 $161 30.294401426081023 $162 43.899251671509717 $91 $163 forward 7 unknown #
loop $-1 $-1 $98 $56 #
plane-surface $-1 -35.792949559383167 -43.794641064295675 0.21434838972976422 0 -0.79863551827123203 0.60181501223851219 1 0 0 forward_v I I I I #
loop $-1 $-1 $164 $37 #
coedge $-1 $96 $96 $97 $165 reversed $57 $-1 #
coedge $-1 $97 $97 $96 $165 forward $59 $-1 #
coedge $-1 $98 $98 $60 $99 forward $93 $-1 #
edge $-1 $166 0 $166 6.2831853071796004 $98 $167 forward 7 unknown #
face $-1 $168 $169 $15 $-1 $170 reversed single #
loop $-1 $-1 $171 $61 #
plane-surface $-1 -65.351115451521338 0 0 1 0 0 0 0 -1 forward_v I I I I #
coedge $-1 $172 $111 $173 $174 forward $62 $-1 #
coedge $-1 $175 $64 $172 $176 forward $41 $-1 #
coedge $-1 $64 $175 $177 $178 forward $41 $-1 #
coedge $-1 $114 $113 $64 $107 reversed $115 $-1 #
edge $-1 $179 -43.794641064295675 $180 43.794641064295675 $106 $181 forward 7 unknown #
coedge $-1 $66 $65 $182 $183 forward $26 $-1 #
coedge $-1 $184 $185 $65 $110 reversed $169 $-1 #
edge $-1 $117 -65.351115451521338 $186 65.351115451521338 $109 $187 forward 7 unknown #
coedge $-1 $103 $188 $66 $112 reversed $62 $-1 #
edge $-1 $189 -65.351115451521338 $116 65.351115451521338 $111 $190 forward 7 unknown #
coedge $-1 $106 $67 $188 $191 forward $115 $-1 #
coedge $-1 $67 $106 $184 $192 reversed $115 $-1 #
loop $-1 $-1 $113 $168 #
vertex $-1 $68 $193 #
vertex $-1 $68 $194 #
straight-curve $-1 65.351115451521338 0 18.26859497016283 0 1 0 I I #
face $-1 $195 $196 $16 $-1 $197 forward single #
loop $-1 $-1 $198 $69 #
plane-surface $-1 -65.351115451521338 0 0 1 0 0 0 0 -1 forward_v I I I I #
coedge $-1 $129 $199 $131 $200 forward $70 $-1 #
coedge $-1 $72 $131 $201 $202 reversed $45 $-1 #
coedge $-1 $203 $127 $72 $125 forward $204 $-1 #
edge $-1 $133 1.0539273812630814 $205 11.827754186354193 $124 $206 forward 7 unknown #
coedge $-1 $74 $73 $198 $207 reversed $29 $-1 #
coedge $-1 $124 $208 $73 $128 forward $204 $-1 #
edge $-1 $209 -37.58593326463707 $133 -17.944431109131465 $127 $210 forward 7 unknown #
coedge $-1 $211 $122 $74 $130 forward $70 $-1 #
edge $-1 $132 17.944431109131465 $212 37.58593326463707 $129 $213 forward 7 unknown #
coedge $-1 $123 $75 $122 $200 reversed $45 $-1 #
vertex $-1 $130 $214 #
vertex $-1 $128 $215 #
straight-curve $-1 -45.709613296015732 0 7.4947681650717186 0 -1 0 I I #
face $-1 $216 $217 $17 $-1 $218 reversed single #
loop $-1 $-1 $219 $77 #
plane-surface $-1 77.393301362216306 -7.2574511239700161 0 0 -1 0 0 0 -1 forward_v I I I I #
coedge $-1 $220 $80 $221 $222 forward $49 $-1 #
coedge $-1 $80 $220 $144 $223 forward $49 $-1 #
edge $-1 $146 -16.53442060993234 $224 -7.2574511239700161 $80 $225 forward 7 unknown #
coedge $-1 $82 $81 $226 $227 forward $32 $-1 #
coedge $-1 $228 $229 $81 $143 forward $230 $-1 #
edge $-1 $231 7.2574511239700161 $147 16.53442060993234 $142 $232 forward 7 unknown #
coedge $-1 $233 $83 $139 $223 reversed $78 $-1 #
coedge $-1 $83 $233 $228 $234 reversed $78 $-1 #
vertex $-1 $140 $235 #
vertex $-1 $234 $236 #
straight-curve $-1 65.351115451521338 -16.53442060993234 0 0 0 1 I I #
face $-1 $-1 $237 $18 $-1 $238 forward single #
loop $-1 $-1 $91 $85 #
plane-surface $-1 0 0 18.26859497016283 0 0 1 1 0 0 forward_v I I I I #
coedge $-1 $239 $240 $241 $242 forward $86 $-1 #
coedge $-1 $243 $88 $90 $159 forward $53 $-1 #
coedge $-1 $88 $243 $244 $245 forward $53 $-1 #
coedge $-1 $246 $91 $88 $156 forward $150 $-1 #
edge $-1 $162 7.9798110430590192 $247 27.813138516324148 $155 $248 forward 7 unknown #
coedge $-1 $240 $239 $89 $158 forward $86 $-1 #
edge $-1 $249 -39.222108150392856 $161 -21.16786156995979 $157 $250 forward 7 unknown #
edge $-1 $162 -22.606365691716576 $249 0 $90 $251 forward 7 unknown #
coedge $-1 $91 $246 $240 $252 forward $150 $-1 #
vertex $-1 $92 $253 #
vertex $-1 $92 $254 #
straight-curve $-1 -25.876285822750603 -74.089042490376698 18.26859497016283 0 1 0 I I #
coedge $-1 $164 $164 $-1 $255 reversed $95 $-1 #
edge $-1 $256 0 $256 6.2831853071796004 $96 $257 forward 7 unknown #
vertex $-1 $99 $258 #
ellipse-curve $-1 -35.792949559383167 -36.992215941581328 9.2414716799462955 0 -0.79863551827123203 0.60181501223851219 1 0 0 1 I I #
face $-1 $-1 $115 $15 $-1 $259 reversed single #
loop $-1 $-1 $184 $100 #
plane-surface $-1 0 43.794641064295675 0 0 -1 0 0 0 -1 forward_v I I I I #
coedge $-1 $260 $182 $185 $261 forward $101 $-1 #
coedge $-1 $188 $103 $104 $176 reversed $62 $-1 #
coedge $-1 $182 $260 $103 $174 reversed $101 $-1 #
edge $-1 $189 -18.26859497016283 $262 18.26859497016283 $173 $263 forward 7 unknown #
coedge $-1 $105 $104 $260 $264 forward $41 $-1 #
edge $-1 $180 -65.351115451521338 $262 65.351115451521338 $172 $265 forward 7 unknown #
coedge $-1 $185 $184 $105 $178 reversed $169 $-1 #
edge $-1 $266 -65.351115451521338 $179 65.351115451521338 $177 $267 forward 7 unknown #
vertex $-1 $107 $268 #
vertex $-1 $191 $269 #
straight-curve $-1 65.351115451521338 0 -18.26859497016283 0 -1 0 I I #
coedge $-1 $171 $173 $108 $183 reversed $101 $-1 #
edge $-1 $186 -43.794641064295675 $189 43.794641064295675 $182 $270 forward 7 unknown #
coedge $-1 $177 $109 $114 $192 forward $169 $-1 #
coedge $-1 $109 $177 $171 $261 reversed $169 $-1 #
vertex $-1 $110 $271 #
straight-curve $-1 0 43.794641064295675 18.26859497016283 -1 0 0 I I #
coedge $-1 $111 $172 $113 $191 reversed $62 $-1 #
vertex $-1 $183 $272 #
straight-curve $-1 0 -43.794641064295675 18.26859497016283 1 0 0 I I #
edge $-1 $116 -18.26859497016283 $180 18.26859497016283 $113 $273 forward 7 unknown #
edge $-1 $117 -18.26859497016283 $179 18.26859497016283 $114 $274 forward 7 unknown #
point $-1 65.351115451521338 -43.794641064295675 18.26859497016283 #
point $-1 65.351115451521338 43.794641064295675 18.26859497016283 #
face $-1 $-1 $204 $16 $-1 $275 reversed single #
loop $-1 $-1 $201 $119 #
plane-surface $-1 0 0 18.26859497016283 0 0 1 1 0 0 forward_v I I I I #
coedge $-1 $276 $277 $126 $207 forward $120 $-1 #
coedge $-1 $122 $211 $278 $279 reversed $70 $-1 #
edge $-1 $280 -11.827754186354193 $132 -1.0539273812630814 $122 $281 forward 7 unknown #
coedge $-1 $278 $282 $123 $202 forward $196 $-1 #
edge $-1 $205 -43.794641064295675 $280 43.794641064295675 $201 $283 forward 7 unknown #
coedge $-1 $208 $124 $282 $284 reversed $204 $-1 #
loop $-1 $-1 $124 $195 #
vertex $-1 $125 $285 #
straight-curve $-1 -45.709613296015732 -43.794641064295675 6.4408407838086372 0 0 1 I I #
edge $-1 $212 -43.794641064295675 $209 43.794641064295675 $198 $286 forward 7 unknown #
coedge $-1 $127 $203 $276 $287 forward $204 $-1 #
vertex $-1 $207 $288 #
straight-curve $-1 -27.765182186884267 -43.794641064295675 7.4947681650717186 1 0 0 I I #
coedge $-1 $199 $129 $277 $289 reversed $70 $-1 #
vertex $-1 $207 $290 #
straight-curve $-1 -27.765182186884267 43.794641064295675 7.4947681650717186 -1 0 0 I I #
point $-1 -45.709613296015732 43.794641064295675 7.4947681650717186 #
point $-1 -45.709613296015732 -43.794641064295675 7.4947681650717186 #
face $-1 $-1 $230 $17 $-1 $291 forward single #
loop $-1 $-1 $292 $135 #
plane-surface $-1 89.435487272911274 -11.895935866951177 0 -1 0 0 0 0 1 forward_v I I I I #
coedge $-1 $221 $293 $294 $295 forward $136 $-1 #
coedge $-1 $139 $138 $296 $297 forward $49 $-1 #
coedge $-1 $226 $219 $138 $222 reversed $136 $-1 #
edge $-1 $224 -12.042185910694968 $298 12.042185910694968 $221 $299 forward 7 unknown #
edge $-1 $300 -12.042185910694968 $146 12.042185910694968 $144 $301 forward 7 unknown #
vertex $-1 $222 $302 #
straight-curve $-1 65.351115451521338 0 -18.26859497016283 0 1 0 I I #
coedge $-1 $293 $221 $141 $227 reversed $136 $-1 #
edge $-1 $231 -18.26859497016283 $224 18.26859497016283 $226 $303 forward 7 unknown #
coedge $-1 $304 $142 $145 $234 forward $230 $-1 #
coedge $-1 $142 $304 $293 $305 forward $230 $-1 #
loop $-1 $-1 $142 $216 #
vertex $-1 $143 $306 #
straight-curve $-1 65.351115451521338 0 18.26859497016283 0 -1 0 I I #
coedge $-1 $145 $144 $292 $307 reversed $78 $-1 #
edge $-1 $147 -12.042185910694968 $308 12.042185910694968 $145 $309 forward 7 unknown #
point $-1 65.351115451521338 -16.53442060993234 -18.26859497016283 #
point $-1 65.351115451521338 -16.53442060993234 18.26859497016283 #
loop $-1 $-1 $244 $149 #
plane-surface $-1 -45.709613296015732 0 12.881681567617274 -1 0 0 0 0 1 forward_v I I I I #
coedge $-1 $157 $152 $243 $310 forward $86 $-1 #
coedge $-1 $152 $157 $160 $252 reversed $86 $-1 #
coedge $-1 $311 $244 $152 $242 reversed $237 $-1 #
edge $-1 $312 21.16786156995979 $313 39.222108150392856 $152 $314 forward 7 unknown #
coedge $-1 $154 $153 $239 $310 reversed $53 $-1 #
coedge $-1 $241 $311 $154 $245 reversed $237 $-1 #
edge $-1 $313 0 $247 22.606365691716576 $244 $315 forward 7 unknown #
coedge $-1 $160 $155 $311 $316 forward $150 $-1 #
vertex $-1 $316 $317 #
straight-curve $-1 -17.896474779691584 -30.189790818866982 18.26859497016283 -1 0 0 I I #
vertex $-1 $158 $318 #
straight-curve $-1 -25.876285822750603 -43.794641064295675 39.43645654012262 0 0 1 I I #
straight-curve $-1 -25.876285822750603 -43.794641064295675 0.21434838972976422 0 -0.60181501223851219 -0.79863551827123203 I I #
edge $-1 $312 -45.709613296015732 $161 -25.876285822750603 $240 $319 forward 7 unknown #
point $-1 -25.876285822750603 -43.794641064295675 18.26859497016283 #
point $-1 -25.876285822750603 -30.189790818866982 18.26859497016283 #
edge $-1 $320 1 $320 0 $164 $-1 forward 7 unknown #
vertex $-1 $165 $321 #
ellipse-curve $-1 -35.792949559383167 -35.140805906991623 7.8463341896466163 0 -0.79863551827123203 0.60181501223851219 1 0 0 1 I I #
point $-1 -34.792949559383167 -36.992215941581328 9.2414716799462955 #
plane-surface $-1 65.351115451521338 0 0 -1 0 0 0 0 1 forward_v I I I I #
coedge $-1 $173 $171 $175 $264 reversed $101 $-1 #
edge $-1 $186 -18.26859497016283 $266 18.26859497016283 $185 $322 forward 7 unknown #
vertex $-1 $264 $323 #
straight-curve $-1 -65.351115451521338 -43.794641064295675 0 0 0 -1 I I #
edge $-1 $262 -43.794641064295675 $266 43.794641064295675 $260 $324 forward 7 unknown #
straight-curve $-1 0 -43.794641064295675 -18.26859497016283 -1 0 0 I I #
vertex $-1 $178 $325 #
straight-curve $-1 0 43.794641064295675 -18.26859497016283 1 0 0 I I #
point $-1 65.351115451521338 43.794641064295675 -18.26859497016283 #
point $-1 65.351115451521338 -43.794641064295675 -18.26859497016283 #
straight-curve $-1 -65.351115451521338 0 18.26859497016283 0 -1 0 I I #
point $-1 -65.351115451521338 43.794641064295675 18.26859497016283 #
point $-1 -65.351115451521338 -43.794641064295675 18.26859497016283 #
straight-curve $-1 65.351115451521338 -43.794641064295675 0 0 0 -1 I I #
straight-curve $-1 65.351115451521338 43.794641064295675 0 0 0 -1 I I #
plane-surface $-1 0 -43.794641064295675 0 0 1 0 0 0 1 forward_v I I I I #
coedge $-1 $326 $198 $208 $287 reversed $120 $-1 #
coedge $-1 $198 $326 $211 $289 forward $120 $-1 #
coedge $-1 $327 $201 $199 $279 forward $196 $-1 #
edge $-1 $280 45.709613296015732 $328 65.351115451521338 $199 $329 forward 7 unknown #
vertex $-1 $279 $330 #
straight-curve $-1 -45.709613296015732 43.794641064295675 6.4408407838086372 0 0 -1 I I #
coedge $-1 $201 $327 $203 $284 forward $196 $-1 #
straight-curve $-1 -45.709613296015732 0 18.26859497016283 0 1 0 I I #
edge $-1 $331 -65.351115451521338 $205 -45.709613296015732 $203 $332 forward 7 unknown #
point $-1 -45.709613296015732 -43.794641064295675 18.26859497016283 #
straight-curve $-1 -65.351115451521338 0 7.4947681650717186 0 -1 0 I I #
edge $-1 $331 -18.26859497016283 $209 -7.4947681650717186 $276 $333 forward 7 unknown #
point $-1 -65.351115451521338 -43.794641064295675 7.4947681650717186 #
edge $-1 $328 -18.26859497016283 $212 -7.4947681650717186 $211 $334 forward 7 unknown #
point $-1 -65.351115451521338 43.794641064295675 7.4947681650717186 #
plane-surface $-1 0 0 18.26859497016283 0 0 1 1 0 0 forward_v I I I I #
coedge $-1 $296 $335 $233 $307 forward $217 $-1 #
coedge $-1 $219 $226 $229 $305 reversed $136 $-1 #
coedge $-1 $335 $296 $219 $295 reversed $217 $-1 #
edge $-1 $336 -18.26859497016283 $298 18.26859497016283 $294 $337 forward 7 unknown #
coedge $-1 $294 $292 $220 $297 reversed $217 $-1 #
edge $-1 $298 -4.6384847429811611 $300 4.6384847429811629 $296 $338 forward 7 unknown #
vertex $-1 $297 $339 #
straight-curve $-1 77.393301362216306 -7.2574511239700161 -18.26859497016283 1 0 0 I I #
vertex $-1 $307 $340 #
straight-curve $-1 77.393301362216306 -16.53442060993234 -18.26859497016283 -1 0 0 I I #
point $-1 65.351115451521338 -7.2574511239700161 -18.26859497016283 #
straight-curve $-1 65.351115451521338 -7.2574511239700161 0 0 0 -1 I I #
coedge $-1 $229 $228 $335 $341 forward $230 $-1 #
edge $-1 $336 -12.042185910694968 $231 12.042185910694968 $293 $342 forward 7 unknown #
point $-1 65.351115451521338 -7.2574511239700161 18.26859497016283 #
edge $-1 $308 -18.26859497016283 $300 18.26859497016283 $292 $343 forward 7 unknown #
vertex $-1 $341 $344 #
straight-curve $-1 77.393301362216306 -16.53442060993234 18.26859497016283 1 0 0 I I #
edge $-1 $313 -27.813138516324148 $249 -7.9798110430590192 $239 $345 forward 7 unknown #
coedge $-1 $244 $241 $246 $316 reversed $237 $-1 #
vertex $-1 $252 $346 #
vertex $-1 $242 $347 #
straight-curve $-1 -45.709613296015732 -43.794641064295675 39.43645654012262 0 0 -1 I I #
straight-curve $-1 -45.709613296015732 -43.794641064295675 0.21434838972976422 0 0.60181501223851219 0.79863551827123203 I I #
edge $-1 $247 30.189790818866978 $312 43.794641064295675 $246 $348 forward 7 unknown #
point $-1 -45.709613296015732 -30.189790818866978 18.26859497016283 #
point $-1 -25.876285822750603 -43.794641064295675 0.21434838972976422 #
straight-curve $-1 0 -43.794641064295675 18.26859497016283 1 0 0 I I #
vertex $-1 $255 $349 #
point $-1 -34.792949559383167 -35.140805906991623 7.8463341896466163 #
straight-curve $-1 -65.351115451521338 43.794641064295675 0 0 0 -1 I I #
point $-1 -65.351115451521338 -43.794641064295675 -18.26859497016283 #
straight-curve $-1 -65.351115451521338 0 -18.26859497016283 0 1 0 I I #
point $-1 -65.351115451521338 43.794641064295675 -18.26859497016283 #
coedge $-1 $277 $276 $327 $350 reversed $120 $-1 #
coedge $-1 $282 $278 $326 $350 forward $196 $-1 #
vertex $-1 $279 $351 #
straight-curve $-1 0 43.794641064295675 18.26859497016283 -1 0 0 I I #
point $-1 -45.709613296015732 43.794641064295675 18.26859497016283 #
vertex $-1 $350 $352 #
straight-curve $-1 0 -43.794641064295675 18.26859497016283 1 0 0 I I #
straight-curve $-1 -65.351115451521338 -43.794641064295675 0 0 0 -1 I I #
straight-curve $-1 -65.351115451521338 43.794641064295675 0 0 0 -1 I I #
coedge $-1 $292 $294 $304 $341 reversed $217 $-1 #
vertex $-1 $341 $353 #
straight-curve $-1 89.435487272911274 -7.2574511239700161 0 0 0 -1 I I #
straight-curve $-1 89.435487272911274 -11.895935866951177 -18.26859497016283 0 -1 0 I I #
point $-1 89.435487272911274 -7.2574511239700161 -18.26859497016283 #
point $-1 89.435487272911274 -16.53442060993234 -18.26859497016283 #
edge $-1 $308 -4.6384847429811629 $336 4.6384847429811611 $335 $354 forward 7 unknown #
straight-curve $-1 77.393301362216306 -7.2574511239700161 18.26859497016283 -1 0 0 I I #
straight-curve $-1 89.435487272911274 -16.53442060993234 0 0 0 -1 I I #
point $-1 89.435487272911274 -16.53442060993234 18.26859497016283 #
straight-curve $-1 -17.896474779691584 -43.794641064295675 0.21434838972976106 1 0 0 I I #
point $-1 -45.709613296015732 -43.794641064295675 18.26859497016283 #
point $-1 -45.709613296015732 -43.794641064295675 0.21434838972976422 #
straight-curve $-1 -45.709613296015732 0 18.26859497016283 0 -1 0 I I #
point $-1 -35.792949559383167 -34.342170388720383 7.2445191774081037 #
edge $-1 $328 -43.794641064295675 $331 43.794641064295675 $326 $355 forward 7 unknown #
point $-1 -65.351115451521338 43.794641064295675 18.26859497016283 #
point $-1 -65.351115451521338 -43.794641064295675 18.26859497016283 #
point $-1 89.435487272911274 -7.2574511239700161 18.26859497016283 #
straight-curve $-1 89.435487272911274 -11.895935866951177 18.26859497016283 0 1 0 I I #
straight-curve $-1 -65.351115451521338 0 18.26859497016283 0 -1 0 I I #
End-of-ACIS-data 