500 0 7 0           
7 Unknown 11 ACIS 5.0 NT 24 Fri Mar 26 18:33:32 1999 
-1 9.9999999999999995e-007 1e-010 
body $-1 $7 $-1 $8 #
body $-1 $9 $-1 $10 #
body $-1 $11 $-1 $12 #
body $-1 $13 $-1 $14 #
body $-1 $15 $-1 $16 #
body $-1 $17 $-1 $18 #
body $-1 $19 $-1 $20 #
lump $-1 $-1 $21 $0 #
transform $-1 1 0 0 0 1 0 0 0 1 76.175420392468027 36.01960344306346 16.997379016643841 1 rotate no_reflect no_shear #
lump $-1 $-1 $22 $1 #
transform $-1 1 0 0 0 1 0 0 0 1 76.175420392468027 36.01960344306346 16.997379016643841 1 rotate no_reflect no_shear #
lump $-1 $-1 $23 $2 #
transform $-1 1 0 0 0 1 0 0 0 1 76.175420392468027 36.01960344306346 16.997379016643841 1 rotate no_reflect no_shear #
lump $-1 $-1 $24 $3 #
transform $-1 1 0 0 0 1 0 0 0 1 76.175420392468027 36.01960344306346 16.997379016643841 1 rotate no_reflect no_shear #
lump $-1 $-1 $25 $4 #
transform $-1 1 0 0 0 1 0 0 0 1 76.175420392468027 36.01960344306346 16.997379016643841 1 rotate no_reflect no_shear #
lump $-1 $-1 $26 $5 #
transform $-1 1 0 0 0 1 0 0 0 1 76.175420392468027 36.01960344306346 16.997379016643841 1 rotate no_reflect no_shear #
lump $-1 $-1 $27 $6 #
transform $-1 1 0 0 0 1 0 0 0 1 76.175420392468027 36.01960344306346 16.997379016643841 1 rotate no_reflect no_shear #
shell $-1 $-1 $-1 $28 $-1 $7 #
shell $-1 $-1 $-1 $29 $-1 $9 #
shell $-1 $-1 $-1 $30 $-1 $11 #
shell $-1 $-1 $-1 $31 $-1 $13 #
shell $-1 $-1 $-1 $32 $-1 $15 #
shell $-1 $-1 $-1 $33 $-1 $17 #
shell $-1 $-1 $-1 $34 $-1 $19 #
face $-1 $35 $36 $21 $-1 $37 forward single #
face $-1 $38 $39 $22 $-1 $40 reversed single #
face $-1 $41 $42 $23 $-1 $43 reversed single #
face $-1 $44 $45 $24 $-1 $46 reversed single #
face $-1 $47 $48 $25 $-1 $49 forward single #
face $-1 $50 $51 $26 $-1 $52 forward single #
face $-1 $53 $54 $27 $-1 $55 forward single #
face $-1 $56 $57 $21 $-1 $58 reversed single #
loop $-1 $-1 $59 $28 #
plane-surface $-1 0 0 16.997379016643841 0 0 1 1 0 0 forward_v I I I I #
face $-1 $60 $61 $22 $-1 $62 reversed single #
loop $-1 $-1 $63 $29 #
plane-surface $-1 -73.986826935358067 -21.226701539204178 0 0 -1 0 0 0 -1 forward_v I I I I #
face $-1 $64 $65 $23 $-1 $66 reversed single #
loop $-1 $-1 $67 $30 #
plane-surface $-1 -73.986826935358067 21.226701539204182 0 0 1 0 0 0 1 forward_v I I I I #
face $-1 $68 $69 $24 $-1 $70 reversed single #
loop $-1 $-1 $71 $31 #
plane-surface $-1 91.204917532025405 21.226701539204178 215.14024699910635 0 -1 0 -0.75470958851134928 0 -0.65605901945558964 forward_v I I I I #
face $-1 $72 $73 $25 $-1 $74 forward single #
loop $-1 $75 $76 $32 #
cone-surface $-1 68.387905747814202 13.722014503875926 8.1766890828675134 -0.75470958851134928 0 -0.65605901945558964 0.32802950972779482 0 -0.37735479425567464 1 I I 0 1 0.5 forward I I I I #
face $-1 $77 $78 $26 $-1 $79 forward single #
loop $-1 $80 $81 $33 #
cone-surface $-1 68.387905747814202 16.53627214212402 8.1766890828675134 -0.75470958851134928 0 -0.65605901945558964 0.32802950972779482 0 -0.37735479425567464 1 I I 0 1 0.5 forward I I I I #
face $-1 $82 $83 $27 $-1 $84 forward single #
loop $-1 $85 $86 $34 #
cone-surface $-1 68.387905747814202 19.350529780372113 8.1766890828675134 -0.75470958851134928 0 -0.65605901945558964 0.32802950972779482 0 -0.37735479425567464 1 I I 0 1 0.5 forward I I I I #
face $-1 $87 $88 $21 $-1 $89 reversed single #
loop $-1 $-1 $90 $35 #
plane-surface $-1 0 0 -16.997379016643841 0 0 1 1 0 0 forward_v I I I I #
coedge $-1 $91 $92 $93 $94 forward $36 $-1 #
face $-1 $95 $96 $22 $-1 $97 forward single #
loop $-1 $-1 $98 $38 #
plane-surface $-1 -71.798233478248108 -28.623152491133819 0 -1 0 0 0 0 1 forward_v I I I I #
coedge $-1 $99 $100 $101 $102 forward $39 $-1 #
face $-1 $103 $104 $23 $-1 $105 reversed single #
loop $-1 $-1 $106 $41 #
plane-surface $-1 -71.798233478248108 28.623152491133823 0 -1 0 0 0 0 1 forward_v I I I I #
coedge $-1 $107 $108 $109 $110 reversed $42 $-1 #
face $-1 $111 $112 $24 $-1 $113 reversed single #
loop $-1 $-1 $114 $44 #
plane-surface $-1 -23.775722826131769 16.53627214212402 115.18910378050656 0.75470958851134928 0 0.65605901945558964 0.65605901945558964 0 -0.75470958851134928 forward_v I I I I #
coedge $-1 $115 $116 $117 $118 reversed $45 $-1 #
face $-1 $-1 $119 $25 $-1 $120 forward single #
loop $-1 $121 $122 $47 #
cone-surface $-1 67.708904354054795 13.722014503875926 7.5864421913745232 -0.75470958851134928 0 -0.65605901945558964 0.16401475486389741 0 -0.18867739712783732 1 I I -0.70710678118654746 0.70710678118654746 0.25 forward I I I I #
loop $-1 $-1 $123 $32 #
coedge $-1 $76 $76 $124 $125 reversed $48 $-1 #
face $-1 $-1 $126 $26 $-1 $127 forward single #
loop $-1 $128 $129 $50 #
cone-surface $-1 67.708904354054795 16.53627214212402 7.5864421913745232 -0.75470958851134928 0 -0.65605901945558964 0.16401475486389741 0 -0.18867739712783732 1 I I -0.70710678118654746 0.70710678118654746 0.25 forward I I I I #
loop $-1 $-1 $130 $33 #
coedge $-1 $81 $81 $131 $132 reversed $51 $-1 #
face $-1 $-1 $133 $27 $-1 $134 forward single #
loop $-1 $135 $136 $53 #
cone-surface $-1 67.708904354054795 19.350529780372113 7.5864421913745232 -0.75470958851134928 0 -0.65605901945558964 0.16401475486389741 0 -0.18867739712783732 1 I I -0.70710678118654746 0.70710678118654746 0.25 forward I I I I #
loop $-1 $-1 $137 $34 #
coedge $-1 $86 $86 $138 $139 reversed $54 $-1 #
face $-1 $140 $141 $21 $-1 $142 reversed single #
loop $-1 $-1 $143 $56 #
plane-surface $-1 0 -36.01960344306346 0 0 1 0 0 0 1 forward_v I I I I #
coedge $-1 $144 $145 $146 $147 forward $57 $-1 #
coedge $-1 $148 $59 $149 $150 forward $36 $-1 #
coedge $-1 $59 $148 $151 $152 forward $36 $-1 #
coedge $-1 $153 $154 $59 $94 reversed $155 $-1 #
edge $-1 $156 -36.01960344306346 $157 36.01960344306346 $93 $158 forward 7 unknown #
face $-1 $159 $160 $22 $-1 $161 reversed single #
loop $-1 $-1 $162 $60 #
plane-surface $-1 0 0 16.997379016643841 0 0 1 1 0 0 forward_v I I I I #
coedge $-1 $163 $164 $165 $166 reversed $61 $-1 #
coedge $-1 $167 $63 $168 $169 reversed $39 $-1 #
coedge $-1 $63 $167 $170 $171 reversed $39 $-1 #
coedge $-1 $164 $163 $63 $102 reversed $61 $-1 #
edge $-1 $172 -16.997379016643841 $173 16.997379016643841 $101 $174 forward 7 unknown #
face $-1 $175 $176 $23 $-1 $177 reversed single #
loop $-1 $-1 $178 $64 #
plane-surface $-1 0 0 -16.997379016643841 0 0 1 1 0 0 forward_v I I I I #
coedge $-1 $179 $180 $181 $182 forward $65 $-1 #
coedge $-1 $181 $67 $183 $184 reversed $42 $-1 #
coedge $-1 $67 $181 $185 $186 reversed $42 $-1 #
coedge $-1 $187 $188 $67 $110 forward $176 $-1 #
edge $-1 $189 -16.997379016643841 $190 16.997379016643841 $109 $191 forward 7 unknown #
face $-1 $192 $193 $24 $-1 $194 reversed single #
loop $-1 $-1 $195 $68 #
plane-surface $-1 91.204917532025405 11.845842745043861 215.14024699910635 0 1 0 0.75470958851134928 0 0.65605901945558964 forward_v I I I I #
coedge $-1 $196 $197 $198 $199 reversed $69 $-1 #
coedge $-1 $116 $71 $200 $201 reversed $45 $-1 #
coedge $-1 $71 $115 $196 $202 reversed $45 $-1 #
coedge $-1 $198 $203 $71 $118 forward $204 $-1 #
edge $-1 $205 -30.572961626455324 $206 -15.978580330410821 $117 $207 forward 7 unknown #
loop $-1 $-1 $124 $72 #
plane-surface $-1 -23.775722826131769 16.53627214212402 115.18910378050656 0.75470958851134928 0 0.65605901945558964 0.65605901945558964 0 -0.75470958851134928 forward_v I I I I #
loop $-1 $-1 $208 $47 #
coedge $-1 $122 $122 $123 $209 reversed $73 $-1 #
coedge $-1 $123 $123 $122 $209 forward $75 $-1 #
coedge $-1 $124 $124 $76 $125 forward $119 $-1 #
edge $-1 $210 0 $210 6.2831853071796004 $124 $211 forward 7 unknown #
loop $-1 $-1 $131 $77 #
plane-surface $-1 -23.775722826131769 16.53627214212402 115.18910378050656 0.75470958851134928 0 0.65605901945558964 0.65605901945558964 0 -0.75470958851134928 forward_v I I I I #
loop $-1 $-1 $212 $50 #
coedge $-1 $129 $129 $130 $213 reversed $78 $-1 #
coedge $-1 $130 $130 $129 $213 forward $80 $-1 #
coedge $-1 $131 $131 $81 $132 forward $126 $-1 #
edge $-1 $214 0 $214 6.2831853071796004 $131 $215 forward 7 unknown #
loop $-1 $-1 $138 $82 #
plane-surface $-1 -23.775722826131769 16.53627214212402 115.18910378050656 0.75470958851134928 0 0.65605901945558964 0.65605901945558964 0 -0.75470958851134928 forward_v I I I I #
loop $-1 $-1 $216 $53 #
coedge $-1 $136 $136 $137 $217 reversed $83 $-1 #
coedge $-1 $137 $137 $136 $217 forward $85 $-1 #
coedge $-1 $138 $138 $86 $139 forward $133 $-1 #
edge $-1 $218 0 $218 6.2831853071796004 $138 $219 forward 7 unknown #
face $-1 $220 $221 $21 $-1 $222 reversed single #
loop $-1 $-1 $223 $87 #
plane-surface $-1 -76.175420392468027 0 0 1 0 0 0 0 -1 forward_v I I I I #
coedge $-1 $224 $151 $225 $226 forward $88 $-1 #
coedge $-1 $227 $90 $224 $228 forward $57 $-1 #
coedge $-1 $90 $227 $229 $230 forward $57 $-1 #
coedge $-1 $154 $153 $90 $147 reversed $155 $-1 #
edge $-1 $231 -36.01960344306346 $232 36.01960344306346 $146 $233 forward 7 unknown #
coedge $-1 $92 $91 $234 $235 forward $36 $-1 #
coedge $-1 $236 $237 $91 $150 reversed $221 $-1 #
edge $-1 $157 -76.175420392468027 $238 76.175420392468027 $149 $239 forward 7 unknown #
coedge $-1 $143 $240 $92 $152 reversed $88 $-1 #
edge $-1 $241 -76.175420392468027 $156 76.175420392468027 $151 $242 forward 7 unknown #
coedge $-1 $146 $93 $240 $243 forward $155 $-1 #
coedge $-1 $93 $146 $236 $244 reversed $155 $-1 #
loop $-1 $-1 $153 $220 #
vertex $-1 $94 $245 #
vertex $-1 $94 $246 #
straight-curve $-1 76.175420392468027 0 16.997379016643841 0 1 0 I I #
face $-1 $247 $248 $22 $-1 $249 reversed single #
loop $-1 $-1 $250 $95 #
plane-surface $-1 -76.175420392468027 0 0 1 0 0 0 0 -1 forward_v I I I I #
coedge $-1 $170 $251 $164 $252 forward $96 $-1 #
coedge $-1 $101 $98 $253 $254 reversed $61 $-1 #
coedge $-1 $98 $101 $162 $252 reversed $61 $-1 #
coedge $-1 $255 $256 $98 $166 forward $257 $-1 #
edge $-1 $258 -16.997379016643841 $259 16.997379016643841 $165 $260 forward 7 unknown #
coedge $-1 $100 $99 $250 $261 reversed $39 $-1 #
coedge $-1 $253 $262 $99 $169 forward $248 $-1 #
edge $-1 $263 -39.182006924788993 $173 -34.804820010569074 $168 $264 forward 7 unknown #
coedge $-1 $265 $162 $100 $171 forward $96 $-1 #
edge $-1 $172 34.804820010569074 $266 39.182006924788993 $170 $267 forward 7 unknown #
vertex $-1 $171 $268 #
vertex $-1 $169 $269 #
straight-curve $-1 -71.798233478248108 -21.226701539204178 0 0 0 -1 I I #
face $-1 $270 $271 $23 $-1 $272 forward single #
loop $-1 $-1 $109 $103 #
plane-surface $-1 -76.175420392468027 0 0 1 0 0 0 0 -1 forward_v I I I I #
coedge $-1 $183 $273 $179 $274 forward $104 $-1 #
coedge $-1 $275 $106 $178 $274 reversed $65 $-1 #
coedge $-1 $106 $275 $276 $277 reversed $65 $-1 #
coedge $-1 $108 $107 $106 $182 reversed $42 $-1 #
edge $-1 $278 -16.997379016643841 $279 16.997379016643841 $106 $280 forward 7 unknown #
coedge $-1 $281 $178 $107 $184 forward $104 $-1 #
edge $-1 $279 34.804820010569074 $189 39.182006924788993 $183 $282 forward 7 unknown #
coedge $-1 $276 $283 $108 $186 forward $271 $-1 #
edge $-1 $190 -39.182006924788993 $278 -34.804820010569074 $185 $284 forward 7 unknown #
coedge $-1 $285 $109 $283 $286 reversed $176 $-1 #
coedge $-1 $109 $285 $281 $287 reversed $176 $-1 #
vertex $-1 $287 $288 #
vertex $-1 $110 $289 #
straight-curve $-1 -76.175420392468027 21.226701539204182 0 0 0 1 I I #
face $-1 $-1 $204 $24 $-1 $290 forward single #
loop $-1 $-1 $291 $111 #
plane-surface $-1 76.175420392468027 0 0 -1 0 0 0 0 1 forward_v I I I I #
coedge $-1 $292 $293 $294 $295 reversed $112 $-1 #
coedge $-1 $296 $114 $116 $202 forward $69 $-1 #
coedge $-1 $114 $296 $292 $297 forward $69 $-1 #
coedge $-1 $294 $117 $114 $199 forward $204 $-1 #
edge $-1 $206 -12.958565468142169 $298 -3.5777066739818508 $198 $299 forward 7 unknown #
coedge $-1 $300 $301 $115 $201 forward $193 $-1 #
edge $-1 $302 -107.36166007720379 $205 -90.572744482909343 $200 $303 forward 7 unknown #
edge $-1 $206 130.10530972257038 $302 152.35084078493608 $116 $304 forward 7 unknown #
coedge $-1 $117 $294 $300 $305 forward $204 $-1 #
loop $-1 $-1 $294 $192 #
vertex $-1 $201 $306 #
vertex $-1 $118 $307 #
straight-curve $-1 45.602458766012703 21.226701539204178 16.997379016643833 -1 0 0 I I #
coedge $-1 $208 $208 $-1 $308 reversed $121 $-1 #
edge $-1 $309 0 $309 6.2831853071796004 $122 $310 forward 7 unknown #
vertex $-1 $125 $311 #
ellipse-curve $-1 68.878229744445775 13.722014503875926 8.6029212194966078 0.75470958851134928 0 0.65605901945558964 0.32802950972779482 0 -0.37735479425567464 1 I I #
coedge $-1 $212 $212 $-1 $312 reversed $128 $-1 #
edge $-1 $313 0 $313 6.2831853071796004 $129 $314 forward 7 unknown #
vertex $-1 $132 $315 #
ellipse-curve $-1 68.878229744445775 16.53627214212402 8.6029212194966078 0.75470958851134928 0 0.65605901945558964 0.32802950972779482 0 -0.37735479425567464 1 I I #
coedge $-1 $216 $216 $-1 $316 reversed $135 $-1 #
edge $-1 $317 0 $317 6.2831853071796004 $136 $318 forward 7 unknown #
vertex $-1 $139 $319 #
ellipse-curve $-1 68.878229744445775 19.350529780372113 8.6029212194966078 0.75470958851134928 0 0.65605901945558964 0.32802950972779482 0 -0.37735479425567464 1 I I #
face $-1 $-1 $155 $21 $-1 $320 reversed single #
loop $-1 $-1 $236 $140 #
plane-surface $-1 0 36.01960344306346 0 0 -1 0 0 0 -1 forward_v I I I I #
coedge $-1 $321 $234 $237 $322 forward $141 $-1 #
coedge $-1 $240 $143 $144 $228 reversed $88 $-1 #
coedge $-1 $234 $321 $143 $226 reversed $141 $-1 #
edge $-1 $241 -16.997379016643841 $323 16.997379016643841 $225 $324 forward 7 unknown #
coedge $-1 $145 $144 $321 $325 forward $57 $-1 #
edge $-1 $232 -76.175420392468027 $323 76.175420392468027 $224 $326 forward 7 unknown #
coedge $-1 $237 $236 $145 $230 reversed $221 $-1 #
edge $-1 $327 -76.175420392468027 $231 76.175420392468027 $229 $328 forward 7 unknown #
vertex $-1 $147 $329 #
vertex $-1 $243 $330 #
straight-curve $-1 76.175420392468027 0 -16.997379016643841 0 -1 0 I I #
coedge $-1 $223 $225 $148 $235 reversed $141 $-1 #
edge $-1 $238 -36.01960344306346 $241 36.01960344306346 $234 $331 forward 7 unknown #
coedge $-1 $229 $149 $154 $244 forward $221 $-1 #
coedge $-1 $149 $229 $223 $322 reversed $221 $-1 #
vertex $-1 $150 $332 #
straight-curve $-1 0 36.01960344306346 16.997379016643841 -1 0 0 I I #
coedge $-1 $151 $224 $153 $243 reversed $88 $-1 #
vertex $-1 $235 $333 #
straight-curve $-1 0 -36.01960344306346 16.997379016643841 1 0 0 I I #
edge $-1 $156 -16.997379016643841 $232 16.997379016643841 $153 $334 forward 7 unknown #
edge $-1 $157 -16.997379016643841 $231 16.997379016643841 $154 $335 forward 7 unknown #
point $-1 76.175420392468027 -36.01960344306346 16.997379016643841 #
point $-1 76.175420392468027 36.01960344306346 16.997379016643841 #
face $-1 $-1 $257 $22 $-1 $336 reversed single #
loop $-1 $-1 $253 $159 #
plane-surface $-1 0 0 -16.997379016643841 0 0 1 1 0 0 forward_v I I I I #
coedge $-1 $337 $338 $167 $261 forward $160 $-1 #
coedge $-1 $162 $265 $255 $339 forward $96 $-1 #
edge $-1 $259 -21.708027197496548 $172 -6.9151252936372689 $162 $340 forward 7 unknown #
coedge $-1 $341 $168 $163 $254 forward $248 $-1 #
edge $-1 $173 6.9151252936372689 $258 21.708027197496548 $253 $342 forward 7 unknown #
coedge $-1 $343 $165 $251 $339 reversed $257 $-1 #
coedge $-1 $165 $343 $341 $344 reversed $257 $-1 #
loop $-1 $-1 $165 $247 #
vertex $-1 $344 $345 #
vertex $-1 $166 $346 #
straight-curve $-1 -71.798233478248108 -36.01960344306346 0 0 0 1 I I #
edge $-1 $266 -16.997379016643841 $263 16.997379016643841 $250 $347 forward 7 unknown #
coedge $-1 $168 $341 $337 $348 forward $248 $-1 #
vertex $-1 $169 $349 #
straight-curve $-1 -36.993413467679034 -21.226701539204178 -16.997379016643841 1 0 0 I I #
coedge $-1 $251 $170 $338 $350 forward $96 $-1 #
vertex $-1 $350 $351 #
straight-curve $-1 -36.993413467679034 -21.226701539204178 16.997379016643841 -1 0 0 I I #
point $-1 -71.798233478248108 -21.226701539204178 16.997379016643841 #
point $-1 -71.798233478248108 -21.226701539204178 -16.997379016643841 #
face $-1 $-1 $352 $23 $-1 $353 reversed single #
loop $-1 $-1 $276 $175 #
plane-surface $-1 0 0 16.997379016643841 0 0 1 1 0 0 forward_v I I I I #
coedge $-1 $178 $281 $354 $355 forward $104 $-1 #
edge $-1 $356 -21.708027197496548 $279 -6.9151252936372707 $178 $357 forward 7 unknown #
coedge $-1 $180 $179 $358 $359 reversed $65 $-1 #
coedge $-1 $360 $185 $180 $277 forward $271 $-1 #
edge $-1 $278 6.9151252936372707 $361 21.708027197496548 $276 $362 forward 7 unknown #
vertex $-1 $186 $363 #
vertex $-1 $184 $364 #
straight-curve $-1 -71.798233478248108 21.226701539204182 0 0 0 -1 I I #
coedge $-1 $273 $183 $188 $287 forward $104 $-1 #
straight-curve $-1 -36.993413467679034 21.226701539204182 -16.997379016643841 -1 0 0 I I #
coedge $-1 $185 $360 $187 $286 forward $271 $-1 #
straight-curve $-1 -36.993413467679034 21.226701539204182 16.997379016643841 1 0 0 I I #
coedge $-1 $188 $187 $365 $366 forward $176 $-1 #
edge $-1 $367 -36.01960344306346 $190 -21.226701539204182 $187 $368 forward 7 unknown #
edge $-1 $189 21.226701539204182 $369 36.01960344306346 $188 $370 forward 7 unknown #
point $-1 -76.175420392468027 21.226701539204182 -16.997379016643841 #
point $-1 -76.175420392468027 21.226701539204182 16.997379016643841 #
plane-surface $-1 0 0 16.997379016643841 0 0 1 1 0 0 forward_v I I I I #
coedge $-1 $301 $300 $293 $371 forward $193 $-1 #
coedge $-1 $293 $195 $197 $297 reversed $112 $-1 #
coedge $-1 $195 $292 $291 $371 reversed $112 $-1 #
coedge $-1 $203 $198 $195 $295 forward $204 $-1 #
edge $-1 $298 15.978580330410821 $372 30.572961626455324 $294 $373 forward 7 unknown #
coedge $-1 $197 $196 $301 $374 reversed $69 $-1 #
edge $-1 $375 -152.35084078493608 $298 -130.10530972257038 $292 $376 forward 7 unknown #
vertex $-1 $199 $377 #
straight-curve $-1 61.581039096423538 8.2681360710620098 16.997379016643819 0 -1 0 I I #
coedge $-1 $291 $200 $203 $305 reversed $193 $-1 #
coedge $-1 $200 $291 $296 $374 forward $193 $-1 #
vertex $-1 $201 $378 #
straight-curve $-1 76.175420392468027 21.226701539204178 107.57012349955318 0 0 1 I I #
straight-curve $-1 -23.775722826131769 21.226701539204178 115.18910378050656 0.65605901945558964 0 -0.75470958851134928 I I #
edge $-1 $372 11.845842745043861 $205 21.226701539204178 $300 $379 forward 7 unknown #
point $-1 76.175420392468027 21.226701539204178 16.997379016643841 #
point $-1 61.581039096423524 21.226701539204178 16.997379016643848 #
edge $-1 $380 1 $380 0 $208 $-1 forward 7 unknown #
vertex $-1 $209 $381 #
ellipse-curve $-1 67.897581751182628 13.722014503875926 7.7504569462384207 0.75470958851134928 0 0.65605901945558964 0.32802950972779482 0 -0.37735479425567464 1 I I #
point $-1 69.206259254173574 13.722014503875926 8.2255664252409311 #
edge $-1 $382 1 $382 0 $212 $-1 forward 7 unknown #
vertex $-1 $213 $383 #
ellipse-curve $-1 67.897581751182628 16.53627214212402 7.7504569462384207 0.75470958851134928 0 0.65605901945558964 0.32802950972779482 0 -0.37735479425567464 1 I I #
point $-1 69.206259254173574 16.53627214212402 8.2255664252409311 #
edge $-1 $384 1 $384 0 $216 $-1 forward 7 unknown #
vertex $-1 $217 $385 #
ellipse-curve $-1 67.897581751182628 19.350529780372113 7.7504569462384207 0.75470958851134928 0 0.65605901945558964 0.32802950972779482 0 -0.37735479425567464 1 I I #
point $-1 69.206259254173574 19.350529780372113 8.2255664252409311 #
plane-surface $-1 76.175420392468027 0 0 -1 0 0 0 0 1 forward_v I I I I #
coedge $-1 $225 $223 $227 $325 reversed $141 $-1 #
edge $-1 $238 -16.997379016643841 $327 16.997379016643841 $237 $386 forward 7 unknown #
vertex $-1 $325 $387 #
straight-curve $-1 -76.175420392468027 -36.01960344306346 0 0 0 -1 I I #
edge $-1 $323 -36.01960344306346 $327 36.01960344306346 $321 $388 forward 7 unknown #
straight-curve $-1 0 -36.01960344306346 -16.997379016643841 -1 0 0 I I #
vertex $-1 $230 $389 #
straight-curve $-1 0 36.01960344306346 -16.997379016643841 1 0 0 I I #
point $-1 76.175420392468027 36.01960344306346 -16.997379016643841 #
point $-1 76.175420392468027 -36.01960344306346 -16.997379016643841 #
straight-curve $-1 -76.175420392468027 0 16.997379016643841 0 -1 0 I I #
point $-1 -76.175420392468027 36.01960344306346 16.997379016643841 #
point $-1 -76.175420392468027 -36.01960344306346 16.997379016643841 #
straight-curve $-1 76.175420392468027 -36.01960344306346 0 0 0 -1 I I #
straight-curve $-1 76.175420392468027 36.01960344306346 0 0 0 -1 I I #
plane-surface $-1 0 -36.01960344306346 0 0 1 0 0 0 1 forward_v I I I I #
coedge $-1 $390 $250 $262 $348 reversed $160 $-1 #
coedge $-1 $250 $390 $265 $350 reversed $160 $-1 #
edge $-1 $391 -76.175420392468027 $259 -71.798233478248108 $255 $392 forward 7 unknown #
straight-curve $-1 -71.798233478248108 -14.31157624556691 16.997379016643841 0 1 0 I I #
coedge $-1 $262 $253 $256 $344 forward $248 $-1 #
straight-curve $-1 -71.798233478248108 -14.31157624556691 -16.997379016643841 0 -1 0 I I #
coedge $-1 $256 $255 $390 $393 forward $257 $-1 #
edge $-1 $258 71.798233478248108 $394 76.175420392468027 $256 $395 forward 7 unknown #
point $-1 -71.798233478248108 -36.01960344306346 -16.997379016643841 #
point $-1 -71.798233478248108 -36.01960344306346 16.997379016643841 #
straight-curve $-1 -76.175420392468027 -21.226701539204178 0 0 0 -1 I I #
edge $-1 $394 -36.01960344306346 $263 -21.226701539204178 $337 $396 forward 7 unknown #
point $-1 -76.175420392468027 -21.226701539204178 -16.997379016643841 #
edge $-1 $266 21.226701539204178 $391 36.01960344306346 $338 $397 forward 7 unknown #
point $-1 -76.175420392468027 -21.226701539204178 16.997379016643841 #
loop $-1 $-1 $358 $270 #
plane-surface $-1 0 36.01960344306346 0 0 -1 0 0 0 -1 forward_v I I I I #
coedge $-1 $365 $358 $273 $355 reversed $352 $-1 #
edge $-1 $369 -76.175420392468027 $356 -71.798233478248108 $354 $398 forward 7 unknown #
vertex $-1 $274 $399 #
straight-curve $-1 -71.798233478248108 14.311576245566911 -16.997379016643841 0 -1 0 I I #
coedge $-1 $354 $400 $275 $359 forward $352 $-1 #
edge $-1 $361 -16.997379016643841 $356 16.997379016643841 $358 $401 forward 7 unknown #
coedge $-1 $283 $276 $400 $402 forward $271 $-1 #
vertex $-1 $402 $403 #
straight-curve $-1 -71.798233478248108 14.311576245566911 16.997379016643841 0 1 0 I I #
point $-1 -71.798233478248108 21.226701539204182 16.997379016643841 #
point $-1 -71.798233478248108 21.226701539204182 -16.997379016643841 #
coedge $-1 $400 $354 $285 $366 reversed $352 $-1 #
edge $-1 $367 -16.997379016643841 $369 16.997379016643841 $365 $404 forward 7 unknown #
vertex $-1 $402 $405 #
straight-curve $-1 -76.175420392468027 0 16.997379016643841 0 -1 0 I I #
vertex $-1 $355 $406 #
straight-curve $-1 -76.175420392468027 0 -16.997379016643841 0 1 0 I I #
edge $-1 $372 90.572744482909343 $375 107.36166007720379 $291 $407 forward 7 unknown #
vertex $-1 $305 $408 #
straight-curve $-1 45.602458766012703 11.845842745043861 16.997379016643833 1 0 0 I I #
edge $-1 $375 3.5777066739818508 $302 12.958565468142169 $301 $409 forward 7 unknown #
vertex $-1 $374 $410 #
straight-curve $-1 -23.775722826131769 11.845842745043861 115.18910378050656 -0.65605901945558964 0 0.75470958851134928 I I #
point $-1 61.581039096423524 11.845842745043861 16.997379016643848 #
point $-1 76.175420392468027 21.226701539204178 0.2084634223493822 #
straight-curve $-1 76.175420392468027 0 16.997379016643841 0 1 0 I I #
vertex $-1 $308 $411 #
point $-1 68.225611260910426 13.722014503875926 7.3731021519827458 #
vertex $-1 $312 $412 #
point $-1 68.225611260910426 16.53627214212402 7.3731021519827458 #
vertex $-1 $316 $413 #
point $-1 68.225611260910426 19.350529780372113 7.3731021519827458 #
straight-curve $-1 -76.175420392468027 36.01960344306346 0 0 0 -1 I I #
point $-1 -76.175420392468027 -36.01960344306346 -16.997379016643841 #
straight-curve $-1 -76.175420392468027 0 -16.997379016643841 0 1 0 I I #
point $-1 -76.175420392468027 36.01960344306346 -16.997379016643841 #
coedge $-1 $338 $337 $343 $393 reversed $160 $-1 #
vertex $-1 $350 $414 #
straight-curve $-1 0 -36.01960344306346 16.997379016643841 1 0 0 I I #
edge $-1 $391 -16.997379016643841 $394 16.997379016643841 $390 $415 forward 7 unknown #
vertex $-1 $348 $416 #
straight-curve $-1 0 -36.01960344306346 -16.997379016643841 -1 0 0 I I #
straight-curve $-1 -76.175420392468027 0 -16.997379016643841 0 1 0 I I #
straight-curve $-1 -76.175420392468027 0 16.997379016643841 0 -1 0 I I #
straight-curve $-1 0 36.01960344306346 -16.997379016643841 1 0 0 I I #
point $-1 -71.798233478248108 36.01960344306346 -16.997379016643841 #
coedge $-1 $358 $365 $360 $402 reversed $352 $-1 #
straight-curve $-1 -71.798233478248108 36.01960344306346 0 0 0 -1 I I #
edge $-1 $361 71.798233478248108 $367 76.175420392468027 $400 $417 forward 7 unknown #
point $-1 -71.798233478248108 36.01960344306346 16.997379016643841 #
straight-curve $-1 -76.175420392468027 36.01960344306346 0 0 0 -1 I I #
point $-1 -76.175420392468027 36.01960344306346 16.997379016643841 #
point $-1 -76.175420392468027 36.01960344306346 -16.997379016643841 #
straight-curve $-1 76.175420392468027 11.845842745043861 107.57012349955318 0 0 -1 I I #
point $-1 76.175420392468027 11.845842745043861 16.997379016643841 #
straight-curve $-1 76.175420392468027 8.2681360710620098 0.2084634223493822 0 1 0 I I #
point $-1 76.175420392468027 11.845842745043861 0.2084634223493822 #
point $-1 67.520226956926962 13.722014503875926 7.4224274365106258 #
point $-1 67.520226956926962 16.53627214212402 7.4224274365106258 #
point $-1 67.520226956926962 19.350529780372113 7.4224274365106258 #
point $-1 -76.175420392468027 -36.01960344306346 16.997379016643841 #
straight-curve $-1 -76.175420392468027 -36.01960344306346 0 0 0 -1 I I #
point $-1 -76.175420392468027 -36.01960344306346 -16.997379016643841 #
straight-curve $-1 0 36.01960344306346 16.997379016643841 -1 0 0 I I #
End-of-ACIS-data 