500 0 7 0           
7 Unknown 11 ACIS 5.0 NT 24 Thu Mar 25 15:29:43 1999 
-1 9.9999999999999995e-007 1e-010 
body $-1 $7 $-1 $8 #
body $-1 $9 $-1 $10 #
body $-1 $11 $-1 $12 #
body $-1 $13 $-1 $14 #
body $-1 $15 $-1 $16 #
body $-1 $17 $-1 $18 #
body $-1 $19 $-1 $20 #
lump $-1 $-1 $21 $0 #
transform $-1 1 0 0 0 1 0 0 0 1 76.701559495834232 48.887734608433739 17.661471822284472 1 rotate no_reflect no_shear #
lump $-1 $-1 $22 $1 #
transform $-1 1 0 0 0 1 0 0 0 1 76.701559495834232 48.887734608433739 17.661471822284472 1 rotate no_reflect no_shear #
lump $-1 $-1 $23 $2 #
transform $-1 1 0 0 0 1 0 0 0 1 76.701559495834232 48.887734608433739 17.661471822284472 1 rotate no_reflect no_shear #
lump $-1 $-1 $24 $3 #
transform $-1 1 0 0 0 1 0 0 0 1 76.701559495834232 48.887734608433739 17.661471822284472 1 rotate no_reflect no_shear #
lump $-1 $-1 $25 $4 #
transform $-1 1 0 0 0 1 0 0 0 1 76.701559495834232 48.887734608433739 17.661471822284472 1 rotate no_reflect no_shear #
lump $-1 $-1 $26 $5 #
transform $-1 1 0 0 0 1 0 0 0 1 76.701559495834232 48.887734608433739 17.661471822284472 1 rotate no_reflect no_shear #
lump $-1 $-1 $27 $6 #
transform $-1 1 0 0 0 1 0 0 0 1 76.701559495834232 48.887734608433739 17.661471822284472 1 rotate no_reflect no_shear #
shell $-1 $-1 $-1 $28 $-1 $7 #
shell $-1 $-1 $-1 $29 $-1 $9 #
shell $-1 $-1 $-1 $30 $-1 $11 #
shell $-1 $-1 $-1 $31 $-1 $13 #
shell $-1 $-1 $-1 $32 $-1 $15 #
shell $-1 $-1 $-1 $33 $-1 $17 #
shell $-1 $-1 $-1 $34 $-1 $19 #
face $-1 $35 $36 $21 $-1 $37 reversed single #
face $-1 $38 $39 $22 $-1 $40 forward single #
face $-1 $41 $42 $23 $-1 $43 reversed single #
face $-1 $44 $45 $24 $-1 $46 forward single #
face $-1 $47 $48 $25 $-1 $49 forward single #
face $-1 $50 $51 $26 $-1 $52 reversed single #
face $-1 $53 $54 $27 $-1 $55 forward single #
face $-1 $56 $57 $21 $-1 $58 forward single #
loop $-1 $-1 $59 $28 #
plane-surface $-1 0 -48.887734608433739 0 0 1 0 0 0 1 forward_v I I I I #
face $-1 $60 $61 $22 $-1 $62 forward single #
loop $-1 $-1 $63 $29 #
plane-surface $-1 0 -48.887734608433739 0 0 1 0 0 0 1 forward_v I I I I #
face $-1 $64 $65 $23 $-1 $66 reversed single #
loop $-1 $-1 $67 $30 #
plane-surface $-1 39.029497217890011 16.553322713069896 217.15642446364822 0 -1 0 -0.57357644374324357 0 -0.81915203911291934 forward_v I I I I #
face $-1 $68 $69 $24 $-1 $70 forward single #
loop $-1 $71 $72 $31 #
cone-surface $-1 66.002913653043308 8.4817641313941436 9.7394877394258259 -0.57357644374324357 0 -0.81915203911291934 0.81915203911291934 0 -0.57357644374324357 1 I I 0 1 1 forward I I I I #
face $-1 $73 $74 $25 $-1 $75 forward single #
loop $-1 $76 $77 $32 #
cone-surface $-1 66.002913653043308 13.324699280399592 9.7394877394258259 -0.57357644374324357 0 -0.81915203911291934 0.81915203911291934 0 -0.57357644374324357 1 I I 0 1 1 forward I I I I #
face $-1 $78 $79 $26 $-1 $80 reversed single #
loop $-1 $-1 $81 $33 #
plane-surface $-1 -177.34306200950368 9.6024719576238944 122.29454202783838 0 1 0 -0.6560590369687036 0 0.75470957328743171 forward_v I I I I #
face $-1 $82 $83 $27 $-1 $84 forward single #
loop $-1 $85 $86 $34 #
cone-surface $-1 -65.507526366160363 20.336588145464511 6.5855352040490587 0.6560590369687036 0 -0.75470957328743171 3.0188382931497268 0 2.6242361478748144 1 I I 0 1 4 forward I I I I #
face $-1 $87 $88 $21 $-1 $89 reversed single #
loop $-1 $-1 $90 $35 #
plane-surface $-1 0 0 17.661471822284472 0 0 1 1 0 0 forward_v I I I I #
coedge $-1 $91 $92 $93 $94 reversed $36 $-1 #
face $-1 $95 $96 $22 $-1 $97 reversed single #
loop $-1 $-1 $98 $38 #
plane-surface $-1 0 0 17.661471822284472 0 0 1 1 0 0 forward_v I I I I #
coedge $-1 $99 $100 $101 $102 forward $39 $-1 #
face $-1 $103 $104 $23 $-1 $105 reversed single #
loop $-1 $-1 $106 $41 #
plane-surface $-1 -48.958918232472811 10.903231705896872 91.495946735341192 0.57357644374324357 0 0.81915203911291934 0.81915203911291934 0 -0.57357644374324357 forward_v I I I I #
coedge $-1 $107 $108 $109 $110 reversed $42 $-1 #
face $-1 $-1 $111 $24 $-1 $112 forward single #
loop $-1 $113 $114 $44 #
cone-surface $-1 65.124440377209254 8.4817641313941436 8.4848979056637539 -0.57357644374324357 0 -0.81915203911291934 0.40957601955645967 0 -0.28678822187162178 1 I I -0.70710678118654746 0.70710678118654746 0.5 forward I I I I #
loop $-1 $-1 $115 $31 #
coedge $-1 $72 $72 $116 $117 reversed $45 $-1 #
face $-1 $-1 $118 $25 $-1 $119 forward single #
loop $-1 $120 $121 $47 #
cone-surface $-1 65.124440377209254 13.324699280399592 8.4848979056637539 -0.57357644374324357 0 -0.81915203911291934 0.40957601955645967 0 -0.28678822187162178 1 I I -0.70710678118654746 0.70710678118654746 0.5 forward I I I I #
loop $-1 $-1 $122 $32 #
coedge $-1 $77 $77 $123 $124 reversed $48 $-1 #
face $-1 $125 $126 $26 $-1 $127 reversed single #
loop $-1 $-1 $128 $50 #
plane-surface $-1 -76.701559495834218 20.336588145464511 6.519739552675162 -0.6560590369687036 0 0.75470957328743171 0.75470957328743171 0 0.6560590369687036 forward_v I I I I #
coedge $-1 $129 $130 $131 $132 reversed $51 $-1 #
face $-1 $-1 $133 $27 $-1 $134 forward single #
loop $-1 $135 $136 $53 #
cone-surface $-1 -59.409923428061944 20.336588145464511 -0.42895442595656164 0.6560590369687036 0 -0.75470957328743171 1.5094191465748634 0 1.3121180739374072 1 I I -0.70710678118654746 0.70710678118654746 2 forward I I I I #
loop $-1 $-1 $137 $34 #
coedge $-1 $86 $86 $138 $139 reversed $54 $-1 #
face $-1 $140 $141 $21 $-1 $142 reversed single #
loop $-1 $-1 $143 $56 #
plane-surface $-1 0 0 -17.661471822284472 0 0 1 1 0 0 forward_v I I I I #
coedge $-1 $144 $145 $146 $147 forward $57 $-1 #
coedge $-1 $148 $59 $149 $150 reversed $36 $-1 #
coedge $-1 $59 $148 $151 $152 forward $36 $-1 #
coedge $-1 $153 $143 $59 $94 forward $88 $-1 #
edge $-1 $154 -76.701559495834232 $155 76.701559495834232 $59 $156 forward 7 unknown #
face $-1 $157 $158 $22 $-1 $159 reversed single #
loop $-1 $-1 $160 $60 #
plane-surface $-1 -76.701559495834232 0 0 1 0 0 0 0 -1 forward_v I I I I #
coedge $-1 $161 $162 $100 $163 forward $61 $-1 #
coedge $-1 $164 $63 $165 $166 reversed $39 $-1 #
coedge $-1 $63 $164 $98 $163 reversed $39 $-1 #
coedge $-1 $167 $168 $63 $102 reversed $169 $-1 #
edge $-1 $170 -17.661471822284472 $171 17.661471822284472 $101 $172 forward 7 unknown #
face $-1 $173 $174 $23 $-1 $175 forward single #
loop $-1 $-1 $176 $64 #
plane-surface $-1 39.029497217890011 5.2531406987238469 217.15642446364822 0 1 0 0.57357644374324357 0 0.81915203911291934 forward_v I I I I #
coedge $-1 $177 $178 $179 $180 reversed $65 $-1 #
coedge $-1 $108 $67 $181 $182 reversed $42 $-1 #
coedge $-1 $67 $107 $177 $183 reversed $42 $-1 #
coedge $-1 $179 $184 $67 $110 forward $174 $-1 #
edge $-1 $185 -57.186810886889226 $186 -36.972889309232237 $109 $187 forward 7 unknown #
loop $-1 $-1 $116 $68 #
plane-surface $-1 -48.958918232472811 10.903231705896872 91.495946735341192 0.57357644374324357 0 0.81915203911291934 0.81915203911291934 0 -0.57357644374324357 forward_v I I I I #
loop $-1 $-1 $188 $44 #
coedge $-1 $114 $114 $115 $189 reversed $69 $-1 #
coedge $-1 $115 $115 $114 $189 forward $71 $-1 #
coedge $-1 $116 $116 $72 $117 forward $111 $-1 #
edge $-1 $190 0 $190 6.2831853071796004 $116 $191 forward 7 unknown #
loop $-1 $-1 $123 $73 #
plane-surface $-1 -48.958918232472811 10.903231705896872 91.495946735341192 0.57357644374324357 0 0.81915203911291934 0.81915203911291934 0 -0.57357644374324357 forward_v I I I I #
loop $-1 $-1 $192 $47 #
coedge $-1 $121 $121 $122 $193 reversed $74 $-1 #
coedge $-1 $122 $122 $121 $193 forward $76 $-1 #
coedge $-1 $123 $123 $77 $124 forward $118 $-1 #
edge $-1 $194 0 $194 6.2831853071796004 $123 $195 forward 7 unknown #
face $-1 $196 $197 $26 $-1 $198 reversed single #
loop $-1 $-1 $199 $78 #
plane-surface $-1 -177.34306200950368 31.070704333305127 122.29454202783838 0 -1 0 0.6560590369687036 0 -0.75470957328743171 forward_v I I I I #
coedge $-1 $200 $201 $202 $203 reversed $79 $-1 #
coedge $-1 $130 $81 $204 $205 reversed $51 $-1 #
coedge $-1 $81 $129 $200 $206 reversed $51 $-1 #
coedge $-1 $202 $207 $81 $132 forward $208 $-1 #
edge $-1 $209 11.96997150891761 $210 24.78706803994335 $131 $211 forward 7 unknown #
loop $-1 $-1 $138 $82 #
plane-surface $-1 -76.701559495834218 20.336588145464511 6.519739552675162 -0.6560590369687036 0 0.75470957328743171 0.75470957328743171 0 0.6560590369687036 forward_v I I I I #
loop $-1 $-1 $212 $53 #
coedge $-1 $136 $136 $137 $213 reversed $83 $-1 #
coedge $-1 $137 $137 $136 $213 forward $85 $-1 #
coedge $-1 $138 $138 $86 $139 forward $133 $-1 #
edge $-1 $214 0 $214 6.2831853071796004 $138 $215 forward 7 unknown #
face $-1 $216 $217 $21 $-1 $218 reversed single #
loop $-1 $-1 $219 $87 #
plane-surface $-1 -76.701559495834232 0 0 1 0 0 0 0 -1 forward_v I I I I #
coedge $-1 $93 $220 $221 $222 forward $88 $-1 #
coedge $-1 $223 $90 $224 $225 forward $57 $-1 #
coedge $-1 $90 $223 $148 $226 forward $57 $-1 #
coedge $-1 $149 $227 $90 $147 reversed $228 $-1 #
edge $-1 $229 -48.887734608433739 $230 48.887734608433739 $146 $231 forward 7 unknown #
coedge $-1 $92 $91 $145 $226 reversed $36 $-1 #
coedge $-1 $221 $146 $91 $150 forward $228 $-1 #
edge $-1 $229 -17.661471822284472 $154 17.661471822284472 $149 $232 forward 7 unknown #
coedge $-1 $233 $234 $92 $152 reversed $141 $-1 #
edge $-1 $235 -17.661471822284472 $155 17.661471822284472 $151 $236 forward 7 unknown #
coedge $-1 $220 $93 $234 $237 forward $88 $-1 #
vertex $-1 $150 $238 #
vertex $-1 $237 $239 #
straight-curve $-1 0 -48.887734608433739 -17.661471822284472 -1 0 0 I I #
face $-1 $240 $169 $22 $-1 $241 reversed single #
loop $-1 $-1 $242 $95 #
plane-surface $-1 -72.734236782496879 -61.167564566930672 0 0 1 0 0 0 1 forward_v I I I I #
coedge $-1 $243 $244 $164 $245 forward $96 $-1 #
coedge $-1 $246 $98 $244 $247 forward $61 $-1 #
coedge $-1 $98 $246 $167 $248 forward $61 $-1 #
edge $-1 $170 68.766914069159526 $249 76.701559495834232 $98 $250 forward 7 unknown #
coedge $-1 $100 $99 $160 $245 reversed $39 $-1 #
coedge $-1 $251 $252 $99 $166 forward $253 $-1 #
edge $-1 $254 -76.701559495834232 $171 -68.766914069159526 $165 $255 forward 7 unknown #
coedge $-1 $256 $101 $162 $248 reversed $169 $-1 #
coedge $-1 $101 $256 $251 $257 reversed $169 $-1 #
loop $-1 $-1 $256 $157 #
vertex $-1 $163 $258 #
vertex $-1 $257 $259 #
straight-curve $-1 -68.766914069159526 -48.887734608433739 0 0 0 -1 I I #
face $-1 $-1 $260 $23 $-1 $261 reversed single #
loop $-1 $-1 $109 $103 #
plane-surface $-1 0 0 17.661471822284472 0 0 1 1 0 0 forward_v I I I I #
coedge $-1 $262 $263 $264 $265 reversed $104 $-1 #
coedge $-1 $266 $106 $108 $183 forward $65 $-1 #
coedge $-1 $106 $266 $262 $267 forward $65 $-1 #
coedge $-1 $264 $109 $106 $180 forward $174 $-1 #
edge $-1 $186 -11.10170686012146 $268 0.19847515422458883 $179 $269 forward 7 unknown #
coedge $-1 $270 $271 $107 $182 forward $260 $-1 #
edge $-1 $272 -105.07068094684575 $185 -90.916740409539642 $181 $273 forward 7 unknown #
edge $-1 $186 128.72647703452074 $272 153.40311899166846 $108 $274 forward 7 unknown #
coedge $-1 $109 $264 $270 $275 forward $174 $-1 #
vertex $-1 $182 $276 #
vertex $-1 $110 $277 #
straight-curve $-1 19.514748608945006 16.553322713069896 17.661471822284469 -1 0 0 I I #
coedge $-1 $188 $188 $-1 $278 reversed $113 $-1 #
edge $-1 $279 0 $279 6.2831853071796004 $114 $280 forward 7 unknown #
vertex $-1 $117 $281 #
ellipse-curve $-1 66.59459870700573 8.4817641313941436 10.584501553631416 0.57357644374324357 0 0.81915203911291934 0.81915203911291934 0 -0.57357644374324357 1 I I #
coedge $-1 $192 $192 $-1 $282 reversed $120 $-1 #
edge $-1 $283 0 $283 6.2831853071796004 $121 $284 forward 7 unknown #
vertex $-1 $124 $285 #
ellipse-curve $-1 66.59459870700573 13.324699280399592 10.584501553631416 0.57357644374324357 0 0.81915203911291934 0.81915203911291934 0 -0.57357644374324357 1 I I #
face $-1 $-1 $208 $26 $-1 $286 forward single #
loop $-1 $-1 $287 $125 #
plane-surface $-1 -76.701559495834232 0 0 1 0 0 0 0 -1 forward_v I I I I #
coedge $-1 $288 $289 $290 $291 reversed $126 $-1 #
coedge $-1 $292 $128 $130 $206 forward $79 $-1 #
coedge $-1 $128 $292 $288 $293 forward $79 $-1 #
coedge $-1 $290 $131 $128 $203 forward $208 $-1 #
edge $-1 $210 -0.56582211510836089 $294 20.902410260572871 $202 $295 forward 7 unknown #
coedge $-1 $296 $297 $129 $205 forward $197 $-1 #
edge $-1 $298 -54.62753146124404 $209 -43.485799191634712 $204 $299 forward 7 unknown #
edge $-1 $210 -16.98281959667726 $298 1.888283279974768e-014 $130 $300 forward 7 unknown #
coedge $-1 $131 $290 $296 $301 forward $208 $-1 #
loop $-1 $-1 $290 $196 #
vertex $-1 $205 $302 #
vertex $-1 $132 $303 #
straight-curve $-1 -88.671531004751841 9.6024719576238944 17.661471822284469 1 0 0 I I #
coedge $-1 $212 $212 $-1 $304 reversed $135 $-1 #
edge $-1 $305 0 $305 6.2831853071796004 $136 $306 forward 7 unknown #
vertex $-1 $139 $307 #
ellipse-curve $-1 -70.293011230321369 20.336588145464511 12.090605687479808 -0.6560590369687036 0 0.75470957328743171 3.0188382931497268 0 2.6242361478748144 1 I I #
face $-1 $-1 $228 $21 $-1 $308 reversed single #
loop $-1 $-1 $309 $140 #
plane-surface $-1 0 48.887734608433739 0 0 -1 0 0 0 -1 forward_v I I I I #
coedge $-1 $234 $233 $310 $311 forward $141 $-1 #
coedge $-1 $143 $153 $312 $313 forward $88 $-1 #
coedge $-1 $227 $149 $143 $222 reversed $228 $-1 #
edge $-1 $314 -48.887734608433739 $154 48.887734608433739 $221 $315 forward 7 unknown #
coedge $-1 $145 $144 $233 $316 forward $57 $-1 #
coedge $-1 $309 $310 $144 $225 reversed $217 $-1 #
edge $-1 $230 -76.701559495834232 $317 76.701559495834232 $224 $318 forward 7 unknown #
edge $-1 $235 -76.701559495834232 $229 76.701559495834232 $148 $319 forward 7 unknown #
coedge $-1 $146 $221 $309 $320 reversed $228 $-1 #
loop $-1 $-1 $149 $216 #
vertex $-1 $147 $321 #
vertex $-1 $147 $322 #
straight-curve $-1 76.701559495834232 0 17.661471822284472 0 1 0 I I #
straight-curve $-1 76.701559495834232 -48.887734608433739 0 0 0 -1 I I #
coedge $-1 $219 $151 $223 $316 reversed $141 $-1 #
coedge $-1 $151 $219 $153 $237 reversed $141 $-1 #
vertex $-1 $316 $323 #
straight-curve $-1 -76.701559495834232 -48.887734608433739 0 0 0 -1 I I #
edge $-1 $155 -48.887734608433739 $324 48.887734608433739 $234 $325 forward 7 unknown #
point $-1 76.701559495834232 -48.887734608433739 -17.661471822284472 #
point $-1 -76.701559495834232 -48.887734608433739 -17.661471822284472 #
face $-1 $-1 $253 $22 $-1 $326 reversed single #
plane-surface $-1 -68.766914069159526 -55.027649587682205 0 -1 0 0 0 0 1 forward_v I I I I #
coedge $-1 $327 $328 $329 $330 forward $158 $-1 #
coedge $-1 $329 $160 $252 $331 reversed $96 $-1 #
coedge $-1 $160 $329 $161 $247 reversed $96 $-1 #
edge $-1 $249 -17.661471822284472 $254 17.661471822284472 $160 $332 forward 7 unknown #
coedge $-1 $162 $161 $328 $333 forward $61 $-1 #
edge $-1 $249 48.887734608433739 $334 61.167564566930672 $244 $335 forward 7 unknown #
edge $-1 $336 -6.1399149792484664 $170 6.1399149792484664 $167 $337 forward 7 unknown #
vertex $-1 $247 $338 #
straight-curve $-1 0 -48.887734608433739 17.661471822284472 -1 0 0 I I #
coedge $-1 $339 $165 $168 $257 forward $253 $-1 #
coedge $-1 $165 $339 $243 $331 forward $253 $-1 #
loop $-1 $-1 $165 $240 #
vertex $-1 $245 $340 #
straight-curve $-1 0 -48.887734608433739 -17.661471822284472 1 0 0 I I #
coedge $-1 $168 $167 $341 $342 forward $169 $-1 #
edge $-1 $171 -6.1399149792484664 $343 6.1399149792484664 $168 $344 forward 7 unknown #
point $-1 -68.766914069159526 -48.887734608433739 17.661471822284472 #
point $-1 -68.766914069159526 -48.887734608433739 -17.661471822284472 #
loop $-1 $-1 $181 $173 #
plane-surface $-1 76.701559495834232 0 0 -1 0 0 0 0 1 forward_v I I I I #
coedge $-1 $263 $176 $178 $267 reversed $104 $-1 #
coedge $-1 $176 $262 $345 $346 reversed $104 $-1 #
coedge $-1 $184 $179 $176 $265 forward $174 $-1 #
edge $-1 $268 36.972889309232237 $347 57.186810886889226 $264 $348 forward 7 unknown #
coedge $-1 $178 $177 $271 $349 reversed $65 $-1 #
edge $-1 $350 -153.40311899166846 $268 -128.72647703452074 $262 $351 forward 7 unknown #
vertex $-1 $180 $352 #
straight-curve $-1 56.487637918177242 5.4516158529484358 17.661471822284476 0 -1 0 I I #
coedge $-1 $345 $181 $184 $275 reversed $260 $-1 #
coedge $-1 $181 $345 $266 $349 forward $260 $-1 #
vertex $-1 $182 $353 #
straight-curve $-1 76.701559495834232 16.553322713069896 108.57821223182411 0 0 1 I I #
straight-curve $-1 -48.958918232472811 16.553322713069896 91.495946735341192 0.81915203911291934 0 -0.57357644374324357 I I #
edge $-1 $347 5.2531406987238469 $185 16.553322713069896 $270 $354 forward 7 unknown #
point $-1 76.701559495834232 16.553322713069896 17.661471822284472 #
point $-1 56.487637918177242 16.553322713069896 17.661471822284469 #
edge $-1 $355 1 $355 0 $188 $-1 forward 7 unknown #
vertex $-1 $189 $356 #
ellipse-curve $-1 65.411228599080872 8.4817641313941436 8.894473925220213 0.57357644374324357 0 0.81915203911291934 0.81915203911291934 0 -0.57357644374324357 1 I I #
point $-1 67.413750746118666 8.4817641313941436 10.010925109888195 #
edge $-1 $357 1 $357 0 $192 $-1 forward 7 unknown #
vertex $-1 $193 $358 #
ellipse-curve $-1 65.411228599080872 13.324699280399592 8.894473925220213 0.57357644374324357 0 0.81915203911291934 0.81915203911291934 0 -0.57357644374324357 1 I I #
point $-1 67.413750746118666 13.324699280399592 10.010925109888195 #
plane-surface $-1 0 0 17.661471822284472 0 0 1 1 0 0 forward_v I I I I #
coedge $-1 $297 $296 $289 $359 forward $197 $-1 #
coedge $-1 $289 $199 $201 $293 reversed $126 $-1 #
coedge $-1 $199 $288 $287 $359 reversed $126 $-1 #
coedge $-1 $207 $202 $199 $291 forward $208 $-1 #
edge $-1 $294 -24.78706803994335 $360 -11.96997150891761 $290 $361 forward 7 unknown #
coedge $-1 $201 $200 $297 $362 reversed $79 $-1 #
edge $-1 $363 -1.888283279974768e-014 $294 16.98281959667726 $288 $364 forward 7 unknown #
vertex $-1 $203 $365 #
straight-curve $-1 -63.884462964808485 10.168294072732255 17.661471822284476 0 1 0 I I #
coedge $-1 $287 $204 $207 $301 reversed $197 $-1 #
coedge $-1 $204 $287 $292 $362 forward $197 $-1 #
vertex $-1 $205 $366 #
straight-curve $-1 -76.701559495834232 9.6024719576238944 61.147271013919188 0 0 1 I I #
straight-curve $-1 -76.701559495834218 9.6024719576238944 6.519739552675162 -0.75470957328743171 0 -0.6560590369687036 I I #
edge $-1 $360 -31.070704333305127 $209 -9.6024719576238944 $296 $367 forward 7 unknown #
point $-1 -76.701559495834232 9.6024719576238944 17.661471822284472 #
point $-1 -63.884462964808492 9.6024719576238944 17.661471822284472 #
edge $-1 $368 1 $368 0 $212 $-1 forward 7 unknown #
vertex $-1 $213 $369 #
ellipse-curve $-1 -60.72204150199935 20.336588145464511 1.0804647206183018 -0.6560590369687036 0 0.75470957328743171 3.0188382931497268 0 2.6242361478748144 1 I I #
point $-1 -67.274172937171642 20.336588145464511 14.71484183535463 #
plane-surface $-1 76.701559495834232 0 0 -1 0 0 0 0 1 forward_v I I I I #
coedge $-1 $312 $224 $227 $320 forward $217 $-1 #
coedge $-1 $224 $312 $219 $311 reversed $217 $-1 #
edge $-1 $317 -17.661471822284472 $324 17.661471822284472 $310 $370 forward 7 unknown #
coedge $-1 $310 $309 $220 $313 reversed $217 $-1 #
edge $-1 $324 -76.701559495834232 $314 76.701559495834232 $312 $371 forward 7 unknown #
vertex $-1 $222 $372 #
straight-curve $-1 76.701559495834232 0 -17.661471822284472 0 -1 0 I I #
edge $-1 $317 -48.887734608433739 $235 48.887734608433739 $233 $373 forward 7 unknown #
vertex $-1 $225 $374 #
straight-curve $-1 0 48.887734608433739 17.661471822284472 -1 0 0 I I #
straight-curve $-1 0 -48.887734608433739 17.661471822284472 1 0 0 I I #
edge $-1 $230 -17.661471822284472 $314 17.661471822284472 $227 $375 forward 7 unknown #
point $-1 76.701559495834232 -48.887734608433739 17.661471822284472 #
point $-1 76.701559495834232 48.887734608433739 17.661471822284472 #
point $-1 -76.701559495834232 -48.887734608433739 17.661471822284472 #
vertex $-1 $313 $376 #
straight-curve $-1 -76.701559495834232 0 -17.661471822284472 0 1 0 I I #
plane-surface $-1 0 0 -17.661471822284472 0 0 1 1 0 0 forward_v I I I I #
coedge $-1 $341 $242 $339 $377 reversed $158 $-1 #
coedge $-1 $242 $341 $246 $333 reversed $158 $-1 #
coedge $-1 $244 $243 $242 $330 reversed $96 $-1 #
edge $-1 $334 -17.661471822284472 $378 17.661471822284472 $329 $379 forward 7 unknown #
edge $-1 $378 -61.167564566930672 $254 -48.887734608433739 $243 $380 forward 7 unknown #
straight-curve $-1 -76.701559495834232 -48.887734608433739 0 0 0 -1 I I #
edge $-1 $334 -3.967322713337353 $336 3.967322713337353 $328 $381 forward 7 unknown #
vertex $-1 $247 $382 #
straight-curve $-1 -76.701559495834232 0 17.661471822284472 0 -1 0 I I #
vertex $-1 $248 $383 #
straight-curve $-1 -68.766914069159526 -55.027649587682205 17.661471822284472 0 1 0 I I #
point $-1 -76.701559495834232 -48.887734608433739 17.661471822284472 #
coedge $-1 $252 $251 $327 $377 forward $253 $-1 #
point $-1 -76.701559495834232 -48.887734608433739 -17.661471822284472 #
coedge $-1 $328 $327 $256 $342 reversed $158 $-1 #
edge $-1 $336 -17.661471822284472 $343 17.661471822284472 $256 $384 forward 7 unknown #
vertex $-1 $342 $385 #
straight-curve $-1 -68.766914069159526 -55.027649587682205 -17.661471822284472 0 -1 0 I I #
coedge $-1 $271 $270 $263 $346 forward $260 $-1 #
edge $-1 $347 90.916740409539642 $350 105.07068094684575 $345 $386 forward 7 unknown #
vertex $-1 $275 $387 #
straight-curve $-1 19.514748608945006 5.2531406987238469 17.661471822284469 1 0 0 I I #
edge $-1 $350 -0.19847515422458883 $272 11.10170686012146 $271 $388 forward 7 unknown #
vertex $-1 $349 $389 #
straight-curve $-1 -48.958918232472811 5.2531406987238469 91.495946735341192 -0.81915203911291934 0 0.57357644374324357 I I #
point $-1 56.487637918177242 5.2531406987238469 17.661471822284469 #
point $-1 76.701559495834232 16.553322713069896 3.5075312849783558 #
straight-curve $-1 76.701559495834232 0 17.661471822284472 0 1 0 I I #
vertex $-1 $278 $390 #
point $-1 66.230380638193793 8.4817641313941436 8.3208974814769707 #
vertex $-1 $282 $391 #
point $-1 66.230380638193793 13.324699280399592 8.3208974814769707 #
edge $-1 $360 43.485799191634712 $363 54.62753146124404 $287 $392 forward 7 unknown #
vertex $-1 $301 $393 #
straight-curve $-1 -88.671531004751841 31.070704333305127 17.661471822284469 -1 0 0 I I #
edge $-1 $363 -20.902410260572871 $298 0.56582211510836089 $297 $394 forward 7 unknown #
vertex $-1 $362 $395 #
straight-curve $-1 -76.701559495834218 31.070704333305127 6.519739552675162 0.75470957328743171 0 0.6560590369687036 I I #
point $-1 -63.884462964808492 31.070704333305127 17.661471822284472 #
point $-1 -76.701559495834232 9.6024719576238944 6.5197395526751496 #
straight-curve $-1 -76.701559495834232 0 17.661471822284472 0 -1 0 I I #
vertex $-1 $304 $396 #
point $-1 -57.703203208849622 20.336588145464511 3.7047008684931164 #
straight-curve $-1 -76.701559495834232 48.887734608433739 0 0 0 -1 I I #
straight-curve $-1 0 48.887734608433739 -17.661471822284472 1 0 0 I I #
point $-1 76.701559495834232 48.887734608433739 -17.661471822284472 #
straight-curve $-1 -76.701559495834232 0 17.661471822284472 0 -1 0 I I #
point $-1 -76.701559495834232 48.887734608433739 17.661471822284472 #
straight-curve $-1 76.701559495834232 48.887734608433739 0 0 0 -1 I I #
point $-1 -76.701559495834232 48.887734608433739 -17.661471822284472 #
edge $-1 $343 -3.967322713337353 $378 3.967322713337353 $327 $397 forward 7 unknown #
vertex $-1 $331 $398 #
straight-curve $-1 -76.701559495834232 -61.167564566930672 0 0 0 -1 I I #
straight-curve $-1 -76.701559495834232 0 -17.661471822284472 0 1 0 I I #
straight-curve $-1 -72.734236782496879 -61.167564566930672 17.661471822284472 1 0 0 I I #
point $-1 -76.701559495834232 -61.167564566930672 17.661471822284472 #
point $-1 -68.766914069159526 -61.167564566930672 17.661471822284472 #
straight-curve $-1 -68.766914069159526 -61.167564566930672 0 0 0 -1 I I #
point $-1 -68.766914069159526 -61.167564566930672 -17.661471822284472 #
straight-curve $-1 76.701559495834232 5.2531406987238469 108.57821223182411 0 0 -1 I I #
point $-1 76.701559495834232 5.2531406987238469 17.661471822284472 #
straight-curve $-1 76.701559495834246 5.4516158529484358 3.5075312849783415 0 1 0 I I #
point $-1 76.701559495834232 5.2531406987238469 3.5075312849783558 #
point $-1 64.837652155337636 8.4817641313941436 8.0753218861072948 #
point $-1 64.837652155337636 13.324699280399592 8.0753218861072948 #
straight-curve $-1 -76.701559495834232 31.070704333305127 61.147271013919188 0 0 -1 I I #
point $-1 -76.701559495834232 31.070704333305127 17.661471822284472 #
straight-curve $-1 -76.701559495834232 10.168294072732255 6.5197395526751585 0 -1 0 I I #
point $-1 -76.701559495834232 31.070704333305127 6.5197395526751496 #
point $-1 -58.097805354124539 20.336588145464511 -1.9383735725314251 #
straight-curve $-1 -72.734236782496879 -61.167564566930672 -17.661471822284472 -1 0 0 I I #
point $-1 -76.701559495834232 -61.167564566930672 -17.661471822284472 #
End-of-ACIS-data 