500 0 4 0           
7 Unknown 11 ACIS 5.0 NT 24 Thu Mar 25 17:23:16 1999 
-1 9.9999999999999995e-007 1e-010 
body $-1 $4 $-1 $5 #
body $-1 $6 $-1 $7 #
body $-1 $8 $-1 $9 #
body $-1 $10 $-1 $11 #
lump $-1 $-1 $12 $0 #
transform $-1 1 0 0 0 1 0 0 0 1 60.16663106173894 34.428305889504465 16.625340339982852 1 rotate no_reflect no_shear #
lump $-1 $-1 $13 $1 #
transform $-1 1 0 0 0 1 0 0 0 1 60.16663106173894 34.428305889504465 16.625340339982852 1 rotate no_reflect no_shear #
lump $-1 $-1 $14 $2 #
transform $-1 1 0 0 0 1 0 0 0 1 60.16663106173894 34.428305889504465 16.625340339982852 1 rotate no_reflect no_shear #
lump $-1 $-1 $15 $3 #
transform $-1 1 0 0 0 1 0 0 0 1 60.16663106173894 34.428305889504465 16.625340339982852 1 rotate no_reflect no_shear #
shell $-1 $-1 $-1 $16 $-1 $4 #
shell $-1 $-1 $-1 $17 $-1 $6 #
shell $-1 $-1 $-1 $18 $-1 $8 #
shell $-1 $-1 $-1 $19 $-1 $10 #
face $-1 $20 $21 $12 $-1 $22 forward single #
face $-1 $23 $24 $13 $-1 $25 forward single #
face $-1 $26 $27 $14 $-1 $28 reversed single #
face $-1 $29 $30 $15 $-1 $31 forward single #
face $-1 $32 $33 $12 $-1 $34 reversed single #
loop $-1 $-1 $35 $16 #
plane-surface $-1 0 0 16.625340339982852 0 0 1 1 0 0 forward_v I I I I #
face $-1 $36 $37 $13 $-1 $38 reversed single #
loop $-1 $-1 $39 $17 #
plane-surface $-1 0 -34.428305889504465 0 0 1 0 0 0 1 forward_v I I I I #
face $-1 $40 $41 $14 $-1 $42 reversed single #
loop $-1 $-1 $43 $18 #
plane-surface $-1 -19.967468454893783 59.029812397493764 139.93872397337489 1 0 0 0 -0.64278761758704617 -0.76604443648966558 forward_v I I I I #
face $-1 $44 $45 $15 $-1 $46 forward single #
loop $-1 $47 $48 $19 #
cone-surface $-1 -13.690065530891985 24.697205852154852 7.7868406063582576 0 -0.64278761758704617 -0.76604443648966558 2.5 0 0 1 I I 0 1 2.5 forward I I I I #
face $-1 $49 $50 $12 $-1 $51 reversed single #
loop $-1 $-1 $52 $20 #
plane-surface $-1 0 0 -16.625340339982852 0 0 1 1 0 0 forward_v I I I I #
coedge $-1 $53 $54 $55 $56 forward $21 $-1 #
face $-1 $57 $58 $13 $-1 $59 forward single #
loop $-1 $-1 $60 $23 #
plane-surface $-1 -60.16663106173894 0 0 1 0 0 0 0 -1 forward_v I I I I #
coedge $-1 $61 $62 $63 $64 forward $24 $-1 #
face $-1 $65 $66 $14 $-1 $67 reversed single #
loop $-1 $-1 $68 $26 #
plane-surface $-1 -13.690065530891985 -18.318918479334108 47.758097999032074 0 0.64278761758704617 0.76604443648966558 1 0 0 forward_v I I I I #
coedge $-1 $69 $70 $71 $72 reversed $27 $-1 #
face $-1 $-1 $73 $15 $-1 $74 forward single #
loop $-1 $75 $76 $29 #
cone-surface $-1 -13.690065530891985 21.984945972028292 4.5544952178696327 0 -0.64278761758704617 -0.76604443648966558 1.25 0 0 1 I I -0.70710678118654746 0.70710678118654746 1.25 forward I I I I #
loop $-1 $-1 $77 $19 #
coedge $-1 $48 $48 $78 $79 reversed $30 $-1 #
face $-1 $80 $81 $12 $-1 $82 reversed single #
loop $-1 $-1 $83 $32 #
plane-surface $-1 0 -34.428305889504465 0 0 1 0 0 0 1 forward_v I I I I #
coedge $-1 $84 $85 $86 $87 forward $33 $-1 #
coedge $-1 $88 $35 $89 $90 forward $21 $-1 #
coedge $-1 $35 $88 $91 $92 forward $21 $-1 #
coedge $-1 $93 $94 $35 $56 reversed $95 $-1 #
edge $-1 $96 -34.428305889504465 $97 34.428305889504465 $55 $98 forward 7 unknown #
face $-1 $99 $100 $13 $-1 $101 reversed single #
loop $-1 $-1 $102 $36 #
plane-surface $-1 0 -44.883152202432925 -1.0679080831425845 0 0 1 1 0 0 forward_v I I I I #
coedge $-1 $103 $104 $62 $105 forward $37 $-1 #
coedge $-1 $106 $39 $107 $108 reversed $24 $-1 #
coedge $-1 $39 $106 $60 $105 reversed $24 $-1 #
coedge $-1 $109 $102 $39 $64 reversed $58 $-1 #
edge $-1 $110 -60.16663106173894 $111 60.16663106173894 $63 $112 forward 7 unknown #
face $-1 $113 $114 $14 $-1 $115 forward single #
loop $-1 $-1 $116 $40 #
plane-surface $-1 -7.4126626068901871 59.029812397493764 139.93872397337489 -1 0 0 0 0.64278761758704617 0.76604443648966558 forward_v I I I I #
coedge $-1 $117 $118 $119 $120 reversed $41 $-1 #
coedge $-1 $70 $43 $121 $122 reversed $27 $-1 #
coedge $-1 $43 $69 $117 $123 reversed $27 $-1 #
coedge $-1 $119 $124 $43 $72 forward $114 $-1 #
edge $-1 $125 -4.9133996907575828 $126 10.731249667656112 $71 $127 forward 7 unknown #
loop $-1 $-1 $78 $44 #
plane-surface $-1 -13.690065530891985 -18.318918479334108 47.758097999032074 0 0.64278761758704617 0.76604443648966558 1 0 0 forward_v I I I I #
loop $-1 $-1 $128 $29 #
coedge $-1 $76 $76 $77 $129 reversed $45 $-1 #
coedge $-1 $77 $77 $76 $129 forward $47 $-1 #
coedge $-1 $78 $78 $48 $79 forward $73 $-1 #
edge $-1 $130 2.1282224619279907e-016 $130 6.2831853071796004 $78 $131 forward 7 unknown #
face $-1 $132 $133 $12 $-1 $134 reversed single #
loop $-1 $-1 $135 $49 #
plane-surface $-1 -60.16663106173894 0 0 1 0 0 0 0 -1 forward_v I I I I #
coedge $-1 $136 $91 $137 $138 forward $50 $-1 #
coedge $-1 $139 $52 $136 $140 forward $33 $-1 #
coedge $-1 $52 $139 $141 $142 forward $33 $-1 #
coedge $-1 $94 $93 $52 $87 reversed $95 $-1 #
edge $-1 $143 -34.428305889504465 $144 34.428305889504465 $86 $145 forward 7 unknown #
coedge $-1 $54 $53 $146 $147 forward $21 $-1 #
coedge $-1 $148 $149 $53 $90 reversed $133 $-1 #
edge $-1 $97 -60.16663106173894 $150 60.16663106173894 $89 $151 forward 7 unknown #
coedge $-1 $83 $152 $54 $92 reversed $50 $-1 #
edge $-1 $153 -60.16663106173894 $96 60.16663106173894 $91 $154 forward 7 unknown #
coedge $-1 $86 $55 $152 $155 forward $95 $-1 #
coedge $-1 $55 $86 $148 $156 reversed $95 $-1 #
loop $-1 $-1 $93 $132 #
vertex $-1 $56 $157 #
vertex $-1 $56 $158 #
straight-curve $-1 60.16663106173894 0 16.625340339982852 0 1 0 I I #
face $-1 $159 $160 $13 $-1 $161 reversed single #
loop $-1 $-1 $162 $57 #
plane-surface $-1 0 -44.883152202432925 -9.1970586876879281 0 0 1 1 0 0 forward_v I I I I #
coedge $-1 $63 $163 $164 $165 forward $58 $-1 #
coedge $-1 $166 $60 $167 $168 reversed $37 $-1 #
coedge $-1 $60 $166 $109 $169 reversed $37 $-1 #
edge $-1 $110 1.0679080831425845 $170 9.1970586876879281 $60 $171 forward 7 unknown #
coedge $-1 $62 $61 $172 $173 forward $24 $-1 #
coedge $-1 $164 $174 $61 $108 forward $175 $-1 #
edge $-1 $176 -9.1970586876879281 $111 -1.0679080831425845 $107 $177 forward 7 unknown #
coedge $-1 $163 $63 $104 $169 forward $58 $-1 #
vertex $-1 $105 $178 #
vertex $-1 $165 $179 #
straight-curve $-1 0 -34.428305889504465 -1.0679080831425845 1 0 0 I I #
face $-1 $-1 $180 $14 $-1 $181 reversed single #
loop $-1 $-1 $71 $65 #
plane-surface $-1 0 0 16.625340339982852 0 0 1 1 0 0 forward_v I I I I #
coedge $-1 $182 $183 $184 $185 reversed $66 $-1 #
coedge $-1 $186 $68 $70 $123 forward $41 $-1 #
coedge $-1 $68 $186 $182 $187 forward $41 $-1 #
coedge $-1 $184 $71 $68 $120 forward $114 $-1 #
edge $-1 $126 -13.122435689447791 $188 -0.56762984144419448 $119 $189 forward 7 unknown #
coedge $-1 $190 $191 $69 $122 forward $180 $-1 #
edge $-1 $192 -66.471441428200677 $125 -53.34402164670459 $121 $193 forward 7 unknown #
edge $-1 $126 48.433972290751584 $192 68.856611779008944 $70 $194 forward 7 unknown #
coedge $-1 $71 $184 $190 $195 forward $114 $-1 #
vertex $-1 $122 $196 #
vertex $-1 $72 $197 #
straight-curve $-1 -19.967468454893783 29.514906198746882 16.625340339982856 0 -1 0 I I #
coedge $-1 $128 $128 $-1 $198 reversed $75 $-1 #
edge $-1 $199 0 $199 6.2831853071796004 $76 $200 forward 7 unknown #
vertex $-1 $79 $201 #
ellipse-curve $-1 -13.690065530891985 26.605981210297617 10.061630449234817 0 0.64278761758704617 0.76604443648966558 2.5 0 0 1 I I #
face $-1 $-1 $95 $12 $-1 $202 reversed single #
loop $-1 $-1 $148 $80 #
plane-surface $-1 0 34.428305889504465 0 0 -1 0 0 0 -1 forward_v I I I I #
coedge $-1 $203 $146 $149 $204 forward $81 $-1 #
coedge $-1 $152 $83 $84 $140 reversed $50 $-1 #
coedge $-1 $146 $203 $83 $138 reversed $81 $-1 #
edge $-1 $153 -16.625340339982852 $205 16.625340339982852 $137 $206 forward 7 unknown #
coedge $-1 $85 $84 $203 $207 forward $33 $-1 #
edge $-1 $144 -60.16663106173894 $205 60.16663106173894 $136 $208 forward 7 unknown #
coedge $-1 $149 $148 $85 $142 reversed $133 $-1 #
edge $-1 $209 -60.16663106173894 $143 60.16663106173894 $141 $210 forward 7 unknown #
vertex $-1 $87 $211 #
vertex $-1 $155 $212 #
straight-curve $-1 60.16663106173894 0 -16.625340339982852 0 -1 0 I I #
coedge $-1 $135 $137 $88 $147 reversed $81 $-1 #
edge $-1 $150 -34.428305889504465 $153 34.428305889504465 $146 $213 forward 7 unknown #
coedge $-1 $141 $89 $94 $156 forward $133 $-1 #
coedge $-1 $89 $141 $135 $204 reversed $133 $-1 #
vertex $-1 $90 $214 #
straight-curve $-1 0 34.428305889504465 16.625340339982852 -1 0 0 I I #
coedge $-1 $91 $136 $93 $155 reversed $50 $-1 #
vertex $-1 $147 $215 #
straight-curve $-1 0 -34.428305889504465 16.625340339982852 1 0 0 I I #
edge $-1 $96 -16.625340339982852 $144 16.625340339982852 $93 $216 forward 7 unknown #
edge $-1 $97 -16.625340339982852 $143 16.625340339982852 $94 $217 forward 7 unknown #
point $-1 60.16663106173894 -34.428305889504465 16.625340339982852 #
point $-1 60.16663106173894 34.428305889504465 16.625340339982852 #
face $-1 $-1 $175 $13 $-1 $218 reversed single #
loop $-1 $-1 $219 $99 #
plane-surface $-1 0 -55.337998515361384 -5.1324833854152558 0 1 0 0 0 1 forward_v I I I I #
coedge $-1 $220 $172 $174 $221 forward $100 $-1 #
coedge $-1 $102 $109 $222 $223 forward $58 $-1 #
coedge $-1 $224 $107 $102 $165 reversed $175 $-1 #
edge $-1 $225 -10.45484631292846 $111 10.45484631292846 $164 $226 forward 7 unknown #
coedge $-1 $104 $103 $219 $227 reversed $37 $-1 #
coedge $-1 $172 $220 $103 $168 forward $100 $-1 #
edge $-1 $228 -10.45484631292846 $170 10.45484631292846 $103 $229 forward 7 unknown #
edge $-1 $110 -10.45484631292846 $230 10.45484631292846 $104 $231 forward 7 unknown #
vertex $-1 $105 $232 #
straight-curve $-1 -60.16663106173894 -34.428305889504465 0 0 0 -1 I I #
coedge $-1 $162 $167 $106 $173 reversed $100 $-1 #
edge $-1 $176 -60.16663106173894 $170 60.16663106173894 $172 $233 forward 7 unknown #
coedge $-1 $107 $224 $162 $221 reversed $175 $-1 #
loop $-1 $-1 $107 $159 #
vertex $-1 $108 $234 #
straight-curve $-1 60.16663106173894 -34.428305889504465 0 0 0 1 I I #
point $-1 -60.16663106173894 -34.428305889504465 -1.0679080831425845 #
point $-1 60.16663106173894 -34.428305889504465 -1.0679080831425845 #
loop $-1 $-1 $121 $113 #
plane-surface $-1 0 34.428305889504465 0 0 -1 0 0 0 -1 forward_v I I I I #
coedge $-1 $183 $116 $118 $187 reversed $66 $-1 #
coedge $-1 $116 $182 $235 $236 reversed $66 $-1 #
coedge $-1 $124 $119 $116 $185 forward $114 $-1 #
edge $-1 $188 -10.731249667656112 $237 4.9133996907575828 $184 $238 forward 7 unknown #
coedge $-1 $118 $117 $191 $239 reversed $41 $-1 #
edge $-1 $240 -68.856611779008944 $188 -48.433972290751584 $182 $241 forward 7 unknown #
vertex $-1 $120 $242 #
straight-curve $-1 -6.8450327654459926 18.78365653109077 16.625340339982852 1 0 0 I I #
coedge $-1 $235 $121 $124 $195 reversed $180 $-1 #
coedge $-1 $121 $235 $186 $239 forward $180 $-1 #
vertex $-1 $122 $243 #
straight-curve $-1 -19.967468454893783 34.428305889504465 69.969361986687446 0 0 1 I I #
straight-curve $-1 -19.967468454893783 -18.318918479334108 47.758097999032074 0 0.76604443648966558 -0.64278761758704617 I I #
edge $-1 $237 7.4126626068901871 $125 19.967468454893783 $190 $244 forward 7 unknown #
point $-1 -19.967468454893783 34.428305889504465 16.625340339982852 #
point $-1 -19.967468454893783 18.78365653109077 16.625340339982852 #
edge $-1 $245 1 $245 0 $128 $-1 forward 7 unknown #
vertex $-1 $129 $246 #
ellipse-curve $-1 -13.690065530891985 22.788430494012101 5.5120507634817146 0 0.64278761758704617 0.76604443648966558 2.5 0 0 1 I I #
point $-1 -11.190065530891985 26.605981210297603 10.0616304492348 #
plane-surface $-1 60.16663106173894 0 0 -1 0 0 0 0 1 forward_v I I I I #
coedge $-1 $137 $135 $139 $207 reversed $81 $-1 #
edge $-1 $150 -16.625340339982852 $209 16.625340339982852 $149 $247 forward 7 unknown #
vertex $-1 $207 $248 #
straight-curve $-1 -60.16663106173894 -34.428305889504465 0 0 0 -1 I I #
edge $-1 $205 -34.428305889504465 $209 34.428305889504465 $203 $249 forward 7 unknown #
straight-curve $-1 0 -34.428305889504465 -16.625340339982852 -1 0 0 I I #
vertex $-1 $142 $250 #
straight-curve $-1 0 34.428305889504465 -16.625340339982852 1 0 0 I I #
point $-1 60.16663106173894 34.428305889504465 -16.625340339982852 #
point $-1 60.16663106173894 -34.428305889504465 -16.625340339982852 #
straight-curve $-1 -60.16663106173894 0 16.625340339982852 0 -1 0 I I #
point $-1 -60.16663106173894 34.428305889504465 16.625340339982852 #
point $-1 -60.16663106173894 -34.428305889504465 16.625340339982852 #
straight-curve $-1 60.16663106173894 -34.428305889504465 0 0 0 -1 I I #
straight-curve $-1 60.16663106173894 34.428305889504465 0 0 0 -1 I I #
plane-surface $-1 60.16663106173894 0 0 -1 0 0 0 0 1 forward_v I I I I #
coedge $-1 $251 $222 $166 $227 forward $160 $-1 #
coedge $-1 $167 $162 $251 $252 forward $100 $-1 #
edge $-1 $176 -10.45484631292846 $253 10.45484631292846 $174 $254 forward 7 unknown #
coedge $-1 $219 $255 $163 $223 reversed $160 $-1 #
edge $-1 $230 -60.16663106173894 $225 60.16663106173894 $222 $256 forward 7 unknown #
coedge $-1 $174 $164 $255 $257 forward $175 $-1 #
vertex $-1 $165 $258 #
straight-curve $-1 60.16663106173894 -44.883152202432925 -1.0679080831425845 0 1 0 I I #
edge $-1 $230 -4.0645753022726714 $228 4.0645753022726723 $166 $259 forward 7 unknown #
vertex $-1 $168 $260 #
straight-curve $-1 -60.16663106173894 -44.883152202432925 -9.1970586876879281 0 1 0 I I #
vertex $-1 $169 $261 #
straight-curve $-1 -60.16663106173894 -44.883152202432925 -1.0679080831425845 0 -1 0 I I #
point $-1 -60.16663106173894 -34.428305889504465 -9.1970586876879281 #
straight-curve $-1 0 -34.428305889504465 -9.1970586876879281 -1 0 0 I I #
point $-1 60.16663106173894 -34.428305889504465 -9.1970586876879281 #
coedge $-1 $191 $190 $183 $236 forward $180 $-1 #
edge $-1 $237 53.34402164670459 $240 66.471441428200677 $235 $262 forward 7 unknown #
vertex $-1 $195 $263 #
straight-curve $-1 -7.4126626068901871 29.514906198746882 16.625340339982856 0 1 0 I I #
edge $-1 $240 0.56762984144419448 $192 13.122435689447791 $191 $264 forward 7 unknown #
vertex $-1 $239 $265 #
straight-curve $-1 -7.4126626068901871 -18.318918479334108 47.758097999032074 0 -0.76604443648966558 0.64278761758704617 I I #
point $-1 -7.4126626068901871 18.78365653109077 16.625340339982852 #
point $-1 -19.967468454893783 34.428305889504465 3.4979205584867756 #
straight-curve $-1 0 34.428305889504465 16.625340339982852 -1 0 0 I I #
vertex $-1 $198 $266 #
point $-1 -11.190065530891985 22.788430494012101 5.5120507634817146 #
straight-curve $-1 -60.16663106173894 34.428305889504465 0 0 0 -1 I I #
point $-1 -60.16663106173894 -34.428305889504465 -16.625340339982852 #
straight-curve $-1 -60.16663106173894 0 -16.625340339982852 0 1 0 I I #
point $-1 -60.16663106173894 34.428305889504465 -16.625340339982852 #
coedge $-1 $255 $219 $220 $252 reversed $160 $-1 #
edge $-1 $253 -60.16663106173894 $228 60.16663106173894 $251 $267 forward 7 unknown #
vertex $-1 $257 $268 #
straight-curve $-1 60.16663106173894 -44.883152202432925 -9.1970586876879281 0 -1 0 I I #
coedge $-1 $222 $251 $224 $257 reversed $160 $-1 #
straight-curve $-1 0 -55.337998515361384 -1.0679080831425845 1 0 0 I I #
edge $-1 $225 -4.0645753022726714 $253 4.0645753022726723 $224 $269 forward 7 unknown #
point $-1 60.16663106173894 -55.337998515361384 -1.0679080831425845 #
straight-curve $-1 -60.16663106173894 -55.337998515361384 -5.1324833854152558 0 0 -1 I I #
point $-1 -60.16663106173894 -55.337998515361384 -9.1970586876879281 #
point $-1 -60.16663106173894 -55.337998515361384 -1.0679080831425845 #
straight-curve $-1 -7.4126626068901871 34.428305889504465 69.969361986687446 0 0 -1 I I #
point $-1 -7.4126626068901871 34.428305889504465 16.625340339982852 #
straight-curve $-1 -6.8450327654459926 34.428305889504465 3.4979205584867792 -1 0 0 I I #
point $-1 -7.4126626068901871 34.428305889504465 3.4979205584867756 #
point $-1 -13.690065530891985 21.181461450044484 3.5969396722575508 #
straight-curve $-1 0 -55.337998515361384 -9.1970586876879281 -1 0 0 I I #
point $-1 60.16663106173894 -55.337998515361384 -9.1970586876879281 #
straight-curve $-1 60.16663106173894 -55.337998515361384 -5.1324833854152558 0 0 -1 I I #
End-of-ACIS-data 