500 0 7 0           
7 Unknown 11 ACIS 5.0 NT 24 Thu Mar 25 15:37:45 1999 
-1 9.9999999999999995e-007 1e-010 
body $-1 $7 $-1 $8 #
body $-1 $9 $-1 $10 #
body $-1 $11 $-1 $12 #
body $-1 $13 $-1 $14 #
body $-1 $15 $-1 $16 #
body $-1 $17 $-1 $18 #
body $-1 $19 $-1 $20 #
lump $-1 $-1 $21 $0 #
transform $-1 1 0 0 0 1 0 0 0 1 64.243903927732163 35.126222540619032 11.644063516226812 1 rotate no_reflect no_shear #
lump $-1 $-1 $22 $1 #
transform $-1 1 0 0 0 1 0 0 0 1 64.243903927732163 35.126222540619032 11.644063516226812 1 rotate no_reflect no_shear #
lump $-1 $-1 $23 $2 #
transform $-1 1 0 0 0 1 0 0 0 1 64.243903927732163 35.126222540619032 11.644063516226812 1 rotate no_reflect no_shear #
lump $-1 $-1 $24 $3 #
transform $-1 1 0 0 0 1 0 0 0 1 64.243903927732163 35.126222540619032 11.644063516226812 1 rotate no_reflect no_shear #
lump $-1 $-1 $25 $4 #
transform $-1 1 0 0 0 1 0 0 0 1 64.243903927732163 35.126222540619032 11.644063516226812 1 rotate no_reflect no_shear #
lump $-1 $-1 $26 $5 #
transform $-1 1 0 0 0 1 0 0 0 1 64.243903927732163 35.126222540619032 11.644063516226812 1 rotate no_reflect no_shear #
lump $-1 $-1 $27 $6 #
transform $-1 1 0 0 0 1 0 0 0 1 64.243903927732163 35.126222540619032 11.644063516226812 1 rotate no_reflect no_shear #
shell $-1 $-1 $-1 $28 $-1 $7 #
shell $-1 $-1 $-1 $29 $-1 $9 #
shell $-1 $-1 $-1 $30 $-1 $11 #
shell $-1 $-1 $-1 $31 $-1 $13 #
shell $-1 $-1 $-1 $32 $-1 $15 #
shell $-1 $-1 $-1 $33 $-1 $17 #
shell $-1 $-1 $-1 $34 $-1 $19 #
face $-1 $35 $36 $21 $-1 $37 forward single #
face $-1 $38 $39 $22 $-1 $40 reversed single #
face $-1 $41 $42 $23 $-1 $43 reversed single #
face $-1 $44 $45 $24 $-1 $46 forward single #
face $-1 $47 $48 $25 $-1 $49 forward single #
face $-1 $50 $51 $26 $-1 $52 reversed single #
face $-1 $53 $54 $27 $-1 $55 forward single #
face $-1 $56 $57 $21 $-1 $58 reversed single #
loop $-1 $-1 $59 $28 #
plane-surface $-1 0 0 11.644063516226812 0 0 1 1 0 0 forward_v I I I I #
face $-1 $60 $61 $22 $-1 $62 reversed single #
loop $-1 $-1 $63 $29 #
plane-surface $-1 -60.363837008109954 0 5.7977607068069599 0 0 1 1 0 0 forward_v I I I I #
face $-1 $64 $65 $23 $-1 $66 reversed single #
loop $-1 $-1 $67 $30 #
plane-surface $-1 53.975217021182715 -35.12622254061904 2.428579019452016 0 -0.64278761758704617 0.76604443648966558 1 0 0 forward_v I I I I #
face $-1 $68 $69 $24 $-1 $70 forward single #
loop $-1 $71 $72 $31 #
cone-surface $-1 49.574351204090092 -28.786713273560018 6.0254568191753073 0 0.64278761758704617 -0.76604443648966558 1.5 0 0 1 I I 0 1 1.5 forward I I I I #
face $-1 $73 $74 $25 $-1 $75 forward single #
loop $-1 $76 $77 $32 #
cone-surface $-1 58.376082838275337 -28.786713273560018 6.0254568191753073 0 0.64278761758704617 -0.76604443648966558 1.5 0 0 1 I I 0 1 1.5 forward I I I I #
face $-1 $78 $79 $26 $-1 $80 reversed single #
loop $-1 $-1 $81 $33 #
plane-surface $-1 9.5594150623785197 78.751169226396144 145.82397031144311 1 0 0 0 -0.71933980857756763 -0.69465836192734942 forward_v I I I I #
face $-1 $82 $83 $27 $-1 $84 forward single #
loop $-1 $85 $86 $34 #
cone-surface $-1 16.064826532050404 31.294093362707727 7.7542152311299279 0 -0.71933980857756763 -0.69465836192734942 1 0 0 1 I I 0 1 1 forward I I I I #
face $-1 $87 $88 $21 $-1 $89 reversed single #
loop $-1 $-1 $90 $35 #
plane-surface $-1 0 0 -11.644063516226812 0 0 1 1 0 0 forward_v I I I I #
coedge $-1 $91 $92 $93 $94 forward $36 $-1 #
face $-1 $95 $96 $22 $-1 $97 reversed single #
loop $-1 $-1 $98 $38 #
plane-surface $-1 -56.483770088487745 0 8.7209121115168848 -1 0 0 0 0 1 forward_v I I I I #
coedge $-1 $99 $100 $101 $102 forward $39 $-1 #
face $-1 $103 $104 $23 $-1 $105 reversed single #
loop $-1 $-1 $106 $41 #
plane-surface $-1 43.706530114633267 -117.7165944410151 100.85594938388361 1 0 0 0 0.64278761758704617 -0.76604443648966558 forward_v I I I I #
coedge $-1 $107 $108 $109 $110 reversed $42 $-1 #
face $-1 $-1 $111 $24 $-1 $112 forward single #
loop $-1 $113 $114 $44 #
cone-surface $-1 49.574351204090092 -27.45640655655961 4.4400590431439539 0 0.64278761758704617 -0.76604443648966558 0.75 0 0 1 I I -0.70710678118654757 0.70710678118654757 0.75 forward I I I I #
loop $-1 $-1 $115 $31 #
coedge $-1 $72 $72 $116 $117 reversed $45 $-1 #
face $-1 $-1 $118 $25 $-1 $119 forward single #
loop $-1 $120 $121 $47 #
cone-surface $-1 58.376082838275337 -27.45640655655961 4.4400590431439539 0 0.64278761758704617 -0.76604443648966558 0.75 0 0 1 I I -0.70710678118654757 0.70710678118654757 0.75 forward I I I I #
loop $-1 $-1 $122 $32 #
coedge $-1 $77 $77 $123 $124 reversed $48 $-1 #
face $-1 $125 $126 $26 $-1 $127 reversed single #
loop $-1 $-1 $128 $50 #
plane-surface $-1 16.064826532050404 -13.675225880904861 56.568840178930245 0 0.71933980857756763 0.69465836192734942 1 0 0 forward_v I I I I #
coedge $-1 $129 $130 $131 $132 reversed $51 $-1 #
face $-1 $-1 $133 $27 $-1 $134 forward single #
loop $-1 $135 $136 $53 #
cone-surface $-1 16.064826532050404 29.811342739182784 6.3223396321395988 0 -0.71933980857756763 -0.69465836192734942 0.5 0 0 1 I I -0.70710678118654746 0.70710678118654746 0.5 forward I I I I #
loop $-1 $-1 $137 $34 #
coedge $-1 $86 $86 $138 $139 reversed $54 $-1 #
face $-1 $140 $141 $21 $-1 $142 reversed single #
loop $-1 $-1 $143 $56 #
plane-surface $-1 0 -35.126222540619032 0 0 1 0 0 0 1 forward_v I I I I #
coedge $-1 $144 $145 $146 $147 forward $57 $-1 #
coedge $-1 $148 $59 $149 $150 forward $36 $-1 #
coedge $-1 $59 $148 $151 $152 forward $36 $-1 #
coedge $-1 $153 $154 $59 $94 reversed $155 $-1 #
edge $-1 $156 -35.126222540619032 $157 35.126222540619032 $93 $158 forward 7 unknown #
face $-1 $159 $160 $22 $-1 $161 reversed single #
loop $-1 $-1 $162 $60 #
plane-surface $-1 0 35.126222540619032 0 0 -1 0 0 0 -1 forward_v I I I I #
coedge $-1 $101 $163 $164 $165 reversed $61 $-1 #
coedge $-1 $166 $63 $167 $168 reversed $39 $-1 #
coedge $-1 $63 $166 $169 $170 reversed $39 $-1 #
coedge $-1 $171 $98 $63 $102 reversed $61 $-1 #
edge $-1 $172 -35.126222540619032 $173 35.126222540619032 $101 $174 forward 7 unknown #
face $-1 $175 $176 $23 $-1 $177 forward single #
loop $-1 $-1 $178 $64 #
plane-surface $-1 64.243903927732163 0 0 -1 0 0 0 0 1 forward_v I I I I #
coedge $-1 $179 $180 $181 $182 reversed $65 $-1 #
coedge $-1 $183 $67 $178 $184 reversed $42 $-1 #
coedge $-1 $67 $183 $179 $185 forward $42 $-1 #
coedge $-1 $181 $186 $67 $110 forward $176 $-1 #
edge $-1 $187 -37.256295417140805 $188 -16.71892160404191 $109 $189 forward 7 unknown #
loop $-1 $-1 $116 $68 #
plane-surface $-1 53.975217021182715 -35.12622254061904 2.428579019452016 0 -0.64278761758704617 0.76604443648966558 1 0 0 forward_v I I I I #
loop $-1 $-1 $190 $44 #
coedge $-1 $114 $114 $115 $191 reversed $69 $-1 #
coedge $-1 $115 $115 $114 $191 forward $71 $-1 #
coedge $-1 $116 $116 $72 $117 forward $111 $-1 #
edge $-1 $192 5.8386158202769635e-016 $192 6.2831853071796013 $116 $193 forward 7 unknown #
loop $-1 $-1 $123 $73 #
plane-surface $-1 53.975217021182715 -35.12622254061904 2.428579019452016 0 -0.64278761758704617 0.76604443648966558 1 0 0 forward_v I I I I #
loop $-1 $-1 $194 $47 #
coedge $-1 $121 $121 $122 $195 reversed $74 $-1 #
coedge $-1 $122 $122 $121 $195 forward $76 $-1 #
coedge $-1 $123 $123 $77 $124 forward $118 $-1 #
edge $-1 $196 5.8386158202769635e-016 $196 6.2831853071796013 $123 $197 forward 7 unknown #
face $-1 $198 $199 $26 $-1 $200 reversed single #
loop $-1 $-1 $201 $78 #
plane-surface $-1 22.570238001722288 78.751169226396144 145.82397031144311 -1 0 0 0 0.71933980857756763 0.69465836192734942 forward_v I I I I #
coedge $-1 $202 $203 $204 $205 reversed $79 $-1 #
coedge $-1 $130 $81 $206 $207 reversed $51 $-1 #
coedge $-1 $81 $129 $202 $208 reversed $51 $-1 #
coedge $-1 $204 $209 $81 $132 forward $210 $-1 #
edge $-1 $211 4.2493620725790393 $212 9.6674589899293082 $131 $213 forward 7 unknown #
loop $-1 $-1 $138 $82 #
plane-surface $-1 16.064826532050404 -13.675225880904861 56.568840178930245 0 0.71933980857756763 0.69465836192734942 1 0 0 forward_v I I I I #
loop $-1 $-1 $214 $53 #
coedge $-1 $136 $136 $137 $215 reversed $83 $-1 #
coedge $-1 $137 $137 $136 $215 forward $85 $-1 #
coedge $-1 $138 $138 $86 $139 forward $133 $-1 #
edge $-1 $216 3.5074445250725914e-016 $216 6.2831853071796004 $138 $217 forward 7 unknown #
face $-1 $218 $219 $21 $-1 $220 reversed single #
loop $-1 $-1 $221 $87 #
plane-surface $-1 -64.243903927732163 0 0 1 0 0 0 0 -1 forward_v I I I I #
coedge $-1 $222 $151 $223 $224 forward $88 $-1 #
coedge $-1 $225 $90 $222 $226 forward $57 $-1 #
coedge $-1 $90 $225 $227 $228 forward $57 $-1 #
coedge $-1 $154 $153 $90 $147 reversed $155 $-1 #
edge $-1 $229 -35.126222540619032 $230 35.126222540619032 $146 $231 forward 7 unknown #
coedge $-1 $92 $91 $232 $233 forward $36 $-1 #
coedge $-1 $234 $235 $91 $150 reversed $219 $-1 #
edge $-1 $157 -64.243903927732163 $236 64.243903927732163 $149 $237 forward 7 unknown #
coedge $-1 $143 $238 $92 $152 reversed $88 $-1 #
edge $-1 $239 -64.243903927732163 $156 64.243903927732163 $151 $240 forward 7 unknown #
coedge $-1 $146 $93 $238 $241 forward $155 $-1 #
coedge $-1 $93 $146 $234 $242 reversed $155 $-1 #
loop $-1 $-1 $153 $218 #
vertex $-1 $94 $243 #
vertex $-1 $94 $244 #
straight-curve $-1 64.243903927732163 0 11.644063516226812 0 1 0 I I #
face $-1 $245 $246 $22 $-1 $247 forward single #
loop $-1 $-1 $248 $95 #
plane-surface $-1 -64.243903927732163 0 0 1 0 0 0 0 -1 forward_v I I I I #
coedge $-1 $169 $249 $171 $250 forward $96 $-1 #
coedge $-1 $98 $171 $251 $252 reversed $61 $-1 #
coedge $-1 $253 $167 $98 $165 forward $254 $-1 #
edge $-1 $173 1.4373046510485175 $255 7.2836074604683674 $164 $256 forward 7 unknown #
coedge $-1 $100 $99 $248 $257 reversed $39 $-1 #
coedge $-1 $164 $258 $99 $168 forward $254 $-1 #
edge $-1 $259 -34.061985423677186 $173 -26.301851584432768 $167 $260 forward 7 unknown #
coedge $-1 $261 $162 $100 $170 forward $96 $-1 #
edge $-1 $172 26.301851584432768 $262 34.061985423677186 $169 $263 forward 7 unknown #
coedge $-1 $163 $101 $162 $250 reversed $61 $-1 #
vertex $-1 $170 $264 #
vertex $-1 $168 $265 #
straight-curve $-1 -56.483770088487745 0 5.7977607068069599 0 -1 0 I I #
face $-1 $-1 $266 $23 $-1 $267 reversed single #
loop $-1 $-1 $109 $103 #
plane-surface $-1 0 0 11.644063516226812 0 0 1 1 0 0 forward_v I I I I #
coedge $-1 $268 $269 $107 $184 forward $104 $-1 #
coedge $-1 $180 $106 $108 $185 reversed $65 $-1 #
coedge $-1 $106 $179 $270 $271 reversed $65 $-1 #
coedge $-1 $272 $109 $106 $182 forward $176 $-1 #
edge $-1 $188 -34.714661206386289 $273 -23.73207467988852 $181 $274 forward 7 unknown #
coedge $-1 $108 $107 $275 $276 reversed $42 $-1 #
edge $-1 $277 -12.673593415051819 $187 1.6631552164303849 $178 $278 forward 7 unknown #
edge $-1 $279 9.1539886837149753e-015 $188 14.336748631482212 $179 $280 forward 7 unknown #
coedge $-1 $109 $272 $268 $281 forward $176 $-1 #
vertex $-1 $110 $282 #
vertex $-1 $110 $283 #
straight-curve $-1 26.987608510591357 -24.143636014121263 11.644063516226812 -1 0 0 I I #
coedge $-1 $190 $190 $-1 $284 reversed $113 $-1 #
edge $-1 $285 0 $285 6.2831853071796004 $114 $286 forward 7 unknown #
vertex $-1 $117 $287 #
ellipse-curve $-1 49.574351204090092 -29.634929277370148 7.0363212678394174 0 -0.64278761758704617 0.76604443648966558 1.5 0 0 1 I I #
coedge $-1 $194 $194 $-1 $288 reversed $120 $-1 #
edge $-1 $289 0 $289 6.2831853071796004 $121 $290 forward 7 unknown #
vertex $-1 $124 $291 #
ellipse-curve $-1 58.376082838275337 -29.634929277370148 7.0363212678394174 0 -0.64278761758704617 0.76604443648966558 1.5 0 0 1 I I #
face $-1 $-1 $210 $26 $-1 $292 forward single #
loop $-1 $-1 $293 $125 #
plane-surface $-1 0 35.126222540619032 0 0 -1 0 0 0 -1 forward_v I I I I #
coedge $-1 $294 $295 $296 $297 reversed $126 $-1 #
coedge $-1 $298 $128 $130 $208 forward $79 $-1 #
coedge $-1 $128 $298 $294 $299 forward $79 $-1 #
coedge $-1 $296 $131 $128 $205 forward $210 $-1 #
edge $-1 $212 1.5270017963533178 $300 14.537824735697086 $204 $301 forward 7 unknown #
coedge $-1 $302 $303 $129 $207 forward $199 $-1 #
edge $-1 $304 -66.878525373635156 $211 -61.267921639494745 $206 $305 forward 7 unknown #
edge $-1 $212 62.452788135746729 $304 70.252445081238037 $130 $306 forward 7 unknown #
coedge $-1 $131 $296 $302 $307 forward $210 $-1 #
loop $-1 $-1 $296 $198 #
vertex $-1 $207 $308 #
vertex $-1 $132 $309 #
straight-curve $-1 9.5594150623785197 39.375584613198072 11.644063516226808 0 -1 0 I I #
coedge $-1 $214 $214 $-1 $310 reversed $135 $-1 #
edge $-1 $311 0 $311 6.2831853071796004 $136 $312 forward 7 unknown #
vertex $-1 $139 $313 #
ellipse-curve $-1 16.064826532050404 32.417174081943898 8.838761649156595 0 0.71933980857756763 0.69465836192734942 1 0 0 1 I I #
face $-1 $-1 $155 $21 $-1 $314 reversed single #
loop $-1 $-1 $234 $140 #
plane-surface $-1 0 35.126222540619032 0 0 -1 0 0 0 -1 forward_v I I I I #
coedge $-1 $315 $232 $235 $316 forward $141 $-1 #
coedge $-1 $238 $143 $144 $226 reversed $88 $-1 #
coedge $-1 $232 $315 $143 $224 reversed $141 $-1 #
edge $-1 $239 -11.644063516226812 $317 11.644063516226812 $223 $318 forward 7 unknown #
coedge $-1 $145 $144 $315 $319 forward $57 $-1 #
edge $-1 $230 -64.243903927732163 $317 64.243903927732163 $222 $320 forward 7 unknown #
coedge $-1 $235 $234 $145 $228 reversed $219 $-1 #
edge $-1 $321 -64.243903927732163 $229 64.243903927732163 $227 $322 forward 7 unknown #
vertex $-1 $147 $323 #
vertex $-1 $241 $324 #
straight-curve $-1 64.243903927732163 0 -11.644063516226812 0 -1 0 I I #
coedge $-1 $221 $223 $148 $233 reversed $141 $-1 #
edge $-1 $236 -35.126222540619032 $239 35.126222540619032 $232 $325 forward 7 unknown #
coedge $-1 $227 $149 $154 $242 forward $219 $-1 #
coedge $-1 $149 $227 $221 $316 reversed $219 $-1 #
vertex $-1 $150 $326 #
straight-curve $-1 0 35.126222540619032 11.644063516226812 -1 0 0 I I #
coedge $-1 $151 $222 $153 $241 reversed $88 $-1 #
vertex $-1 $233 $327 #
straight-curve $-1 0 -35.126222540619032 11.644063516226812 1 0 0 I I #
edge $-1 $156 -11.644063516226812 $230 11.644063516226812 $153 $328 forward 7 unknown #
edge $-1 $157 -11.644063516226812 $229 11.644063516226812 $154 $329 forward 7 unknown #
point $-1 64.243903927732163 -35.126222540619032 11.644063516226812 #
point $-1 64.243903927732163 35.126222540619032 11.644063516226812 #
face $-1 $-1 $254 $22 $-1 $330 reversed single #
loop $-1 $-1 $251 $159 #
plane-surface $-1 0 0 11.644063516226812 0 0 1 1 0 0 forward_v I I I I #
coedge $-1 $331 $332 $166 $257 forward $160 $-1 #
coedge $-1 $162 $261 $333 $334 reversed $96 $-1 #
edge $-1 $335 -7.2836074604683674 $172 -1.4373046510485175 $162 $336 forward 7 unknown #
coedge $-1 $333 $337 $163 $252 forward $246 $-1 #
edge $-1 $255 -35.126222540619032 $335 35.126222540619032 $251 $338 forward 7 unknown #
coedge $-1 $258 $164 $337 $339 reversed $254 $-1 #
loop $-1 $-1 $164 $245 #
vertex $-1 $165 $340 #
straight-curve $-1 -56.483770088487745 -35.126222540619032 4.3604560557584424 0 0 1 I I #
edge $-1 $262 -35.126222540619032 $259 35.126222540619032 $248 $341 forward 7 unknown #
coedge $-1 $167 $253 $331 $342 forward $254 $-1 #
vertex $-1 $257 $343 #
straight-curve $-1 -30.181918504054977 -35.126222540619032 5.7977607068069599 1 0 0 I I #
coedge $-1 $249 $169 $332 $344 reversed $96 $-1 #
vertex $-1 $257 $345 #
straight-curve $-1 -30.181918504054977 35.126222540619032 5.7977607068069599 -1 0 0 I I #
point $-1 -56.483770088487745 35.126222540619032 5.7977607068069599 #
point $-1 -56.483770088487745 -35.126222540619032 5.7977607068069599 #
loop $-1 $-1 $275 $175 #
plane-surface $-1 0 -35.126222540619032 0 0 1 0 0 0 1 forward_v I I I I #
coedge $-1 $269 $178 $186 $281 reversed $104 $-1 #
coedge $-1 $178 $268 $346 $347 forward $104 $-1 #
coedge $-1 $275 $348 $180 $271 forward $266 $-1 #
edge $-1 $273 38.783911175714991 $279 47.999395672489783 $270 $349 forward 7 unknown #
coedge $-1 $186 $181 $348 $350 forward $176 $-1 #
vertex $-1 $350 $351 #
straight-curve $-1 43.706530114633267 -58.858297220507552 11.644063516226808 0 -1 0 I I #
coedge $-1 $346 $270 $183 $276 forward $266 $-1 #
edge $-1 $279 16.71892160404191 $277 37.256295417140805 $275 $352 forward 7 unknown #
vertex $-1 $276 $353 #
straight-curve $-1 64.243903927732163 -25.417686814686526 10.575007936980057 0 0.76604443648966558 0.64278761758704617 I I #
vertex $-1 $276 $354 #
straight-curve $-1 43.706530114633267 -35.12622254061904 2.428579019452016 0 0.76604443648966558 0.64278761758704617 I I #
edge $-1 $355 -35.126222540619032 $187 -24.143636014121263 $268 $356 forward 7 unknown #
point $-1 64.243903927732163 -24.143636014121263 11.644063516226812 #
point $-1 43.706530114633267 -24.143636014121263 11.644063516226812 #
edge $-1 $357 1 $357 0 $190 $-1 forward 7 unknown #
vertex $-1 $191 $358 #
ellipse-curve $-1 49.574351204090092 -27.938497269749895 5.0145923705112034 0 -0.64278761758704617 0.76604443648966558 1.5 0 0 1 I I #
point $-1 51.074351204090092 -29.634929277370141 7.0363212678394103 #
edge $-1 $359 1 $359 0 $194 $-1 forward 7 unknown #
vertex $-1 $195 $360 #
ellipse-curve $-1 58.376082838275337 -27.938497269749895 5.0145923705112034 0 -0.64278761758704617 0.76604443648966558 1.5 0 0 1 I I #
point $-1 59.876082838275337 -29.634929277370141 7.0363212678394103 #
plane-surface $-1 0 0 11.644063516226812 0 0 1 1 0 0 forward_v I I I I #
coedge $-1 $303 $302 $295 $361 forward $199 $-1 #
coedge $-1 $295 $201 $203 $299 reversed $126 $-1 #
coedge $-1 $201 $294 $293 $361 reversed $126 $-1 #
coedge $-1 $209 $204 $201 $297 forward $210 $-1 #
edge $-1 $300 -9.6674589899293082 $362 -4.2493620725790393 $296 $363 forward 7 unknown #
coedge $-1 $203 $202 $303 $364 reversed $79 $-1 #
edge $-1 $365 -70.252445081238037 $300 -62.452788135746729 $294 $366 forward 7 unknown #
vertex $-1 $205 $367 #
straight-curve $-1 8.0324132660252019 29.708125623268756 11.644063516226812 1 0 0 I I #
coedge $-1 $293 $206 $209 $307 reversed $199 $-1 #
coedge $-1 $206 $293 $298 $364 forward $199 $-1 #
vertex $-1 $207 $368 #
straight-curve $-1 9.5594150623785197 35.126222540619032 72.911985155721553 0 0 1 I I #
straight-curve $-1 9.5594150623785197 -13.675225880904861 56.568840178930245 0 0.69465836192734942 -0.71933980857756763 I I #
edge $-1 $362 -22.570238001722288 $211 -9.5594150623785197 $302 $369 forward 7 unknown #
point $-1 9.5594150623785197 35.126222540619032 11.644063516226812 #
point $-1 9.5594150623785197 29.708125623268764 11.644063516226808 #
edge $-1 $370 1 $370 0 $214 $-1 forward 7 unknown #
vertex $-1 $215 $371 #
ellipse-curve $-1 16.064826532050404 30.171012643471567 6.6696688131032733 0 0.71933980857756763 0.69465836192734942 1 0 0 1 I I #
point $-1 17.064826532050404 32.417174081943884 8.8387616491565808 #
plane-surface $-1 64.243903927732163 0 0 -1 0 0 0 0 1 forward_v I I I I #
coedge $-1 $223 $221 $225 $319 reversed $141 $-1 #
edge $-1 $236 -11.644063516226812 $321 11.644063516226812 $235 $372 forward 7 unknown #
vertex $-1 $319 $373 #
straight-curve $-1 -64.243903927732163 -35.126222540619032 0 0 0 -1 I I #
edge $-1 $317 -35.126222540619032 $321 35.126222540619032 $315 $374 forward 7 unknown #
straight-curve $-1 0 -35.126222540619032 -11.644063516226812 -1 0 0 I I #
vertex $-1 $228 $375 #
straight-curve $-1 0 35.126222540619032 -11.644063516226812 1 0 0 I I #
point $-1 64.243903927732163 35.126222540619032 -11.644063516226812 #
point $-1 64.243903927732163 -35.126222540619032 -11.644063516226812 #
straight-curve $-1 -64.243903927732163 0 11.644063516226812 0 -1 0 I I #
point $-1 -64.243903927732163 35.126222540619032 11.644063516226812 #
point $-1 -64.243903927732163 -35.126222540619032 11.644063516226812 #
straight-curve $-1 64.243903927732163 -35.126222540619032 0 0 0 -1 I I #
straight-curve $-1 64.243903927732163 35.126222540619032 0 0 0 -1 I I #
plane-surface $-1 0 -35.126222540619032 0 0 1 0 0 0 1 forward_v I I I I #
coedge $-1 $376 $248 $258 $342 reversed $160 $-1 #
coedge $-1 $248 $376 $261 $344 forward $160 $-1 #
coedge $-1 $377 $251 $249 $334 forward $246 $-1 #
edge $-1 $335 56.483770088487745 $378 64.243903927732163 $249 $379 forward 7 unknown #
vertex $-1 $334 $380 #
straight-curve $-1 -56.483770088487745 35.126222540619032 4.3604560557584424 0 0 -1 I I #
coedge $-1 $251 $377 $253 $339 forward $246 $-1 #
straight-curve $-1 -56.483770088487745 0 11.644063516226812 0 1 0 I I #
edge $-1 $381 -64.243903927732163 $255 -56.483770088487745 $253 $382 forward 7 unknown #
point $-1 -56.483770088487745 -35.126222540619032 11.64406351622681 #
straight-curve $-1 -64.243903927732163 0 5.7977607068069599 0 -1 0 I I #
edge $-1 $381 -11.644063516226812 $259 -5.7977607068069599 $331 $383 forward 7 unknown #
point $-1 -64.243903927732163 -35.126222540619032 5.7977607068069599 #
edge $-1 $378 -11.644063516226812 $262 -5.7977607068069599 $261 $384 forward 7 unknown #
point $-1 -64.243903927732163 35.126222540619032 5.7977607068069599 #
coedge $-1 $348 $275 $269 $347 reversed $266 $-1 #
edge $-1 $355 -11.644063516226812 $277 -2.4285790194520218 $269 $385 forward 7 unknown #
coedge $-1 $270 $346 $272 $350 reversed $266 $-1 #
straight-curve $-1 43.706530114633267 -35.126222540619032 50.427974691941806 0 0 -1 I I #
edge $-1 $273 43.706530114633267 $355 64.243903927732163 $348 $386 forward 7 unknown #
point $-1 43.706530114633267 -35.126222540619032 11.644063516226812 #
straight-curve $-1 26.987608510591357 -35.126222540619032 2.4285790194520245 1 0 0 I I #
point $-1 64.243903927732163 -35.126222540619032 2.4285790194520218 #
point $-1 43.706530114633267 -35.126222540619032 2.4285790194520218 #
vertex $-1 $281 $387 #
straight-curve $-1 64.243903927732163 0 11.644063516226812 0 1 0 I I #
vertex $-1 $284 $388 #
point $-1 51.074351204090092 -27.938497269749895 5.0145923705112034 #
vertex $-1 $288 $389 #
point $-1 59.876082838275337 -27.938497269749895 5.0145923705112034 #
edge $-1 $362 61.267921639494745 $365 66.878525373635156 $293 $390 forward 7 unknown #
vertex $-1 $307 $391 #
straight-curve $-1 22.570238001722288 39.375584613198072 11.644063516226808 0 1 0 I I #
edge $-1 $365 -14.537824735697086 $304 -1.5270017963533178 $303 $392 forward 7 unknown #
vertex $-1 $364 $393 #
straight-curve $-1 22.570238001722288 -13.675225880904861 56.568840178930245 0 -0.69465836192734942 0.71933980857756763 I I #
point $-1 22.570238001722288 29.708125623268764 11.644063516226808 #
point $-1 9.5594150623785197 35.126222540619032 6.0334597820863962 #
straight-curve $-1 0 35.126222540619032 11.644063516226812 -1 0 0 I I #
vertex $-1 $310 $394 #
point $-1 17.064826532050404 30.171012643471567 6.6696688131032733 #
straight-curve $-1 -64.243903927732163 35.126222540619032 0 0 0 -1 I I #
point $-1 -64.243903927732163 -35.126222540619032 -11.644063516226812 #
straight-curve $-1 -64.243903927732163 0 -11.644063516226812 0 1 0 I I #
point $-1 -64.243903927732163 35.126222540619032 -11.644063516226812 #
coedge $-1 $332 $331 $377 $395 reversed $160 $-1 #
coedge $-1 $337 $333 $376 $395 forward $246 $-1 #
vertex $-1 $334 $396 #
straight-curve $-1 0 35.126222540619032 11.644063516226812 -1 0 0 I I #
point $-1 -56.483770088487745 35.126222540619032 11.64406351622681 #
vertex $-1 $395 $397 #
straight-curve $-1 0 -35.126222540619032 11.644063516226812 1 0 0 I I #
straight-curve $-1 -64.243903927732163 -35.126222540619032 0 0 0 -1 I I #
straight-curve $-1 -64.243903927732163 35.126222540619032 0 0 0 -1 I I #
straight-curve $-1 64.243903927732163 -35.126222540619032 0 0 0 -1 I I #
straight-curve $-1 0 -35.126222540619032 11.644063516226812 1 0 0 I I #
point $-1 64.243903927732163 -35.126222540619032 11.644063516226812 #
point $-1 49.574351204090092 -26.974315843369325 3.8655257157767049 #
point $-1 58.376082838275337 -26.974315843369325 3.8655257157767049 #
straight-curve $-1 22.570238001722288 35.126222540619032 72.911985155721553 0 0 -1 I I #
point $-1 22.570238001722288 35.126222540619032 11.644063516226812 #
straight-curve $-1 8.0324132660252019 35.126222540619025 6.0334597820863891 -1 0 0 I I #
point $-1 22.570238001722288 35.126222540619032 6.0334597820863962 #
point $-1 16.064826532050404 29.451672834894001 5.9750104511759243 #
edge $-1 $378 -35.126222540619032 $381 35.126222540619032 $376 $398 forward 7 unknown #
point $-1 -64.243903927732163 35.126222540619032 11.644063516226812 #
point $-1 -64.243903927732163 -35.126222540619032 11.644063516226812 #
straight-curve $-1 -64.243903927732163 0 11.644063516226812 0 -1 0 I I #
End-of-ACIS-data 