500 0 5 0           
7 Unknown 11 ACIS 5.0 NT 24 Fri Mar 26 20:33:04 1999 
-1 9.9999999999999995e-007 1e-010 
body $-1 $5 $-1 $6 #
body $-1 $7 $-1 $8 #
body $-1 $9 $-1 $10 #
body $-1 $11 $-1 $12 #
body $-1 $13 $-1 $14 #
lump $-1 $-1 $15 $0 #
transform $-1 1 0 0 0 1 0 0 0 1 45.959654530472733 20.529870645210831 4.1478897254093834 1 rotate no_reflect no_shear #
lump $-1 $-1 $16 $1 #
transform $-1 1 0 0 0 1 0 0 0 1 45.959654530472733 20.529870645210831 4.1478897254093834 1 rotate no_reflect no_shear #
lump $-1 $-1 $17 $2 #
transform $-1 1 0 0 0 1 0 0 0 1 45.959654530472733 20.529870645210831 4.1478897254093834 1 rotate no_reflect no_shear #
lump $-1 $-1 $18 $3 #
transform $-1 1 0 0 0 1 0 0 0 1 45.959654530472733 20.529870645210831 4.1478897254093834 1 rotate no_reflect no_shear #
lump $-1 $-1 $19 $4 #
transform $-1 1 0 0 0 1 0 0 0 1 45.959654530472733 20.529870645210831 4.1478897254093834 1 rotate no_reflect no_shear #
shell $-1 $-1 $-1 $20 $-1 $5 #
shell $-1 $-1 $-1 $21 $-1 $7 #
shell $-1 $-1 $-1 $22 $-1 $9 #
shell $-1 $-1 $-1 $23 $-1 $11 #
shell $-1 $-1 $-1 $24 $-1 $13 #
face $-1 $25 $26 $15 $-1 $27 forward single #
face $-1 $28 $29 $16 $-1 $30 forward single #
face $-1 $31 $32 $17 $-1 $33 forward single #
face $-1 $34 $35 $18 $-1 $36 reversed single #
face $-1 $37 $38 $19 $-1 $39 reversed single #
face $-1 $40 $41 $15 $-1 $42 reversed single #
loop $-1 $-1 $43 $20 #
plane-surface $-1 0 0 4.1478897254093834 0 0 1 1 0 0 forward_v I I I I #
face $-1 $44 $45 $16 $-1 $46 reversed single #
loop $-1 $-1 $47 $21 #
plane-surface $-1 0 -22.431249016278432 1.7685304592283517 0 0 1 1 0 0 forward_v I I I I #
face $-1 $48 $49 $17 $-1 $50 forward single #
loop $-1 $-1 $51 $22 #
plane-surface $-1 -101.27807634142843 12.910083002866099 74.053314223370393 0 1 0 -0.6018150307709319 0 0.79863550430605224 forward_v I I I I #
face $-1 $52 $53 $18 $-1 $54 reversed single #
loop $-1 $55 $56 $23 #
cone-surface $-1 -43.209944053689114 15.087165186393168 1.8324846783762934 0.6018150307709319 0 -0.79863550430605224 0.79863550430605224 0 0.6018150307709319 1 I I 0 1 1 forward I I I I #
face $-1 $57 $58 $19 $-1 $59 reversed single #
loop $-1 $60 $61 $24 #
cone-surface $-1 -43.209944053689114 18.352788461683769 1.8324846783762934 0.6018150307709319 0 -0.79863550430605224 0.79863550430605224 0 0.6018150307709319 1 I I 0 1 1 forward I I I I #
face $-1 $62 $63 $15 $-1 $64 reversed single #
loop $-1 $-1 $65 $25 #
plane-surface $-1 0 0 -4.1478897254093834 0 0 1 1 0 0 forward_v I I I I #
coedge $-1 $66 $67 $68 $69 forward $26 $-1 #
face $-1 $70 $71 $16 $-1 $72 reversed single #
loop $-1 $-1 $73 $28 #
plane-surface $-1 0 -22.431249016278432 -1.2314695407716487 0 0 1 1 0 0 forward_v I I I I #
coedge $-1 $74 $75 $76 $77 forward $29 $-1 #
face $-1 $78 $79 $17 $-1 $80 forward single #
loop $-1 $-1 $81 $31 #
plane-surface $-1 -45.959654530472733 16.719976824038465 0.64329047601833622 -0.6018150307709319 0 0.79863550430605224 0.79863550430605224 0 0.6018150307709319 forward_v I I I I #
coedge $-1 $82 $83 $84 $85 reversed $32 $-1 #
face $-1 $86 $87 $18 $-1 $88 forward single #
loop $-1 $89 $90 $34 #
cone-surface $-1 -42.484706158243945 15.087165186393168 0.87006150388570624 0.6018150307709319 0 -0.79863550430605224 0.39931775215302612 0 0.30090751538546595 1 I I -0.70710678118654746 0.70710678118654746 0.5 forward I I I I #
loop $-1 $-1 $91 $23 #
coedge $-1 $56 $56 $92 $93 reversed $35 $-1 #
face $-1 $94 $95 $19 $-1 $96 reversed single #
loop $-1 $97 $98 $37 #
cone-surface $-1 -42.484706158243945 18.352788461683769 0.87006150388570624 0.6018150307709319 0 -0.79863550430605224 0.39931775215302612 0 0.30090751538546595 1 I I -0.70710678118654746 0.70710678118654746 0.5 forward I I I I #
loop $-1 $-1 $99 $24 #
coedge $-1 $61 $61 $100 $101 reversed $38 $-1 #
face $-1 $102 $103 $15 $-1 $104 reversed single #
loop $-1 $-1 $105 $40 #
plane-surface $-1 0 -20.529870645210831 0 0 1 0 0 0 1 forward_v I I I I #
coedge $-1 $106 $107 $108 $109 forward $41 $-1 #
coedge $-1 $110 $43 $111 $112 forward $26 $-1 #
coedge $-1 $43 $110 $113 $114 forward $26 $-1 #
coedge $-1 $115 $116 $43 $69 reversed $117 $-1 #
edge $-1 $118 -20.529870645210831 $119 20.529870645210831 $68 $120 forward 7 unknown #
face $-1 $121 $122 $16 $-1 $123 reversed single #
loop $-1 $-1 $124 $44 #
plane-surface $-1 0 -24.332627387346033 0.2685304592283515 0 1 0 0 0 1 forward_v I I I I #
coedge $-1 $125 $126 $127 $128 forward $45 $-1 #
coedge $-1 $129 $47 $130 $131 reversed $29 $-1 #
coedge $-1 $47 $129 $132 $133 forward $29 $-1 #
coedge $-1 $134 $135 $47 $77 reversed $136 $-1 #
edge $-1 $137 -1.9013783710676009 $138 1.9013783710676009 $76 $139 forward 7 unknown #
face $-1 $140 $141 $17 $-1 $142 reversed single #
loop $-1 $-1 $143 $48 #
plane-surface $-1 0 0 4.1478897254093834 0 0 1 1 0 0 forward_v I I I I #
coedge $-1 $144 $145 $143 $146 reversed $49 $-1 #
coedge $-1 $83 $51 $145 $147 forward $32 $-1 #
coedge $-1 $51 $82 $148 $149 reversed $32 $-1 #
coedge $-1 $150 $143 $51 $85 forward $79 $-1 #
edge $-1 $151 -9.3301438336893128 $152 -4.6793836402414826 $84 $153 forward 7 unknown #
face $-1 $154 $155 $18 $-1 $156 forward single #
loop $-1 $-1 $157 $52 #
plane-surface $-1 -101.27807634142843 12.910083002866099 74.053314223370393 0 1 0 -0.6018150307709319 0 0.79863550430605224 forward_v I I I I #
loop $-1 $-1 $158 $34 #
coedge $-1 $90 $90 $91 $159 forward $53 $-1 #
coedge $-1 $91 $91 $90 $159 reversed $55 $-1 #
coedge $-1 $92 $92 $56 $93 forward $155 $-1 #
edge $-1 $160 0 $160 6.2831853071796004 $92 $161 forward 7 unknown #
face $-1 $162 $163 $19 $-1 $164 reversed single #
loop $-1 $165 $166 $57 #
cone-surface $-1 -43.209944053689114 15.087165186393168 1.8324846783762934 0.6018150307709319 0 -0.79863550430605224 0.79863550430605224 0 0.6018150307709319 1 I I 0 1 1 forward I I I I #
loop $-1 $-1 $167 $37 #
coedge $-1 $98 $98 $99 $168 forward $58 $-1 #
coedge $-1 $99 $99 $98 $168 reversed $60 $-1 #
coedge $-1 $100 $100 $61 $101 forward $169 $-1 #
edge $-1 $170 0 $170 6.2831853071796004 $100 $171 forward 7 unknown #
face $-1 $172 $173 $15 $-1 $174 reversed single #
loop $-1 $-1 $175 $62 #
plane-surface $-1 -45.959654530472733 0 0 1 0 0 0 0 -1 forward_v I I I I #
coedge $-1 $176 $113 $177 $178 forward $63 $-1 #
coedge $-1 $179 $65 $176 $180 forward $41 $-1 #
coedge $-1 $65 $179 $181 $182 forward $41 $-1 #
coedge $-1 $116 $115 $65 $109 reversed $117 $-1 #
edge $-1 $183 -20.529870645210831 $184 20.529870645210831 $108 $185 forward 7 unknown #
coedge $-1 $67 $66 $186 $187 forward $26 $-1 #
coedge $-1 $188 $189 $66 $112 reversed $173 $-1 #
edge $-1 $119 -45.959654530472733 $190 45.959654530472733 $111 $191 forward 7 unknown #
coedge $-1 $105 $192 $67 $114 reversed $63 $-1 #
edge $-1 $193 -45.959654530472733 $118 45.959654530472733 $113 $194 forward 7 unknown #
coedge $-1 $108 $68 $192 $195 forward $117 $-1 #
coedge $-1 $68 $108 $188 $196 reversed $117 $-1 #
loop $-1 $-1 $115 $172 #
vertex $-1 $69 $197 #
vertex $-1 $69 $198 #
straight-curve $-1 45.959654530472733 0 4.1478897254093834 0 1 0 I I #
face $-1 $199 $200 $16 $-1 $123 reversed single #
loop $-1 $-1 $201 $70 #
plane-surface $-1 0 -20.529870645210831 0 0 1 0 0 0 1 forward_v I I I I #
coedge $-1 $202 $132 $203 $204 forward $71 $-1 #
coedge $-1 $205 $73 $202 $206 forward $45 $-1 #
coedge $-1 $73 $205 $201 $207 reversed $45 $-1 #
coedge $-1 $208 $134 $73 $128 reversed $136 $-1 #
edge $-1 $209 -1.9013783710676009 $210 1.9013783710676009 $127 $211 forward 7 unknown #
coedge $-1 $75 $74 $212 $213 forward $29 $-1 #
coedge $-1 $214 $215 $74 $131 forward $200 $-1 #
edge $-1 $216 -45.959654530472733 $138 45.959654530472733 $130 $217 forward 7 unknown #
coedge $-1 $124 $218 $75 $133 reversed $71 $-1 #
edge $-1 $219 -45.959654530472733 $137 45.959654530472733 $132 $220 forward 7 unknown #
coedge $-1 $127 $76 $218 $221 forward $136 $-1 #
coedge $-1 $76 $222 $214 $223 forward $136 $-1 #
loop $-1 $-1 $135 $224 #
vertex $-1 $77 $225 #
vertex $-1 $77 $226 #
straight-curve $-1 45.959654530472733 -22.431249016278432 1.7685304592283517 0 1 0 I I #
face $-1 $227 $228 $17 $-1 $229 forward single #
loop $-1 $-1 $148 $78 #
plane-surface $-1 -45.959654530472733 0 0 1 0 0 0 0 -1 forward_v I I I I #
coedge $-1 $84 $230 $81 $146 forward $79 $-1 #
coedge $-1 $231 $81 $232 $233 reversed $49 $-1 #
coedge $-1 $81 $231 $82 $147 reversed $49 $-1 #
edge $-1 $234 -12.169882233191599 $151 -4.5500945908468662 $143 $235 forward 7 unknown #
edge $-1 $151 -5.8233827176127786 $236 0 $82 $237 forward 7 unknown #
coedge $-1 $238 $239 $83 $149 forward $141 $-1 #
edge $-1 $152 32.878767386275811 $236 36.38336663566686 $148 $240 forward 7 unknown #
coedge $-1 $241 $84 $239 $242 forward $79 $-1 #
vertex $-1 $146 $243 #
vertex $-1 $242 $244 #
straight-curve $-1 -50.639038170714215 12.910083002866099 4.1478897254093852 -1 0 0 I I #
face $-1 $245 $246 $18 $-1 $247 forward single #
loop $-1 $248 $92 $86 #
plane-surface $-1 -45.959654530472733 16.719976824038465 0.64329047601833622 -0.6018150307709319 0 0.79863550430605224 0.79863550430605224 0 0.6018150307709319 forward_v I I I I #
coedge $-1 $249 $250 $251 $252 reversed $87 $-1 #
coedge $-1 $158 $158 $-1 $253 forward $89 $-1 #
edge $-1 $254 0 $254 6.2831853071796004 $90 $255 forward 7 unknown #
vertex $-1 $93 $256 #
ellipse-curve $-1 -43.634274433748821 15.087165186393168 2.3955901007138594 0.6018150307709319 0 -0.79863550430605224 0.79863550430605224 0 0.6018150307709319 1 I I #
face $-1 $257 $258 $19 $-1 $259 forward single #
loop $-1 $260 $261 $94 #
cone-surface $-1 -42.484706158243945 15.087165186393168 0.87006150388570624 0.6018150307709319 0 -0.79863550430605224 0.39931775215302612 0 0.30090751538546595 1 I I -0.70710678118654746 0.70710678118654746 0.5 forward I I I I #
loop $-1 $-1 $262 $57 #
coedge $-1 $166 $166 $263 $264 reversed $95 $-1 #
coedge $-1 $167 $167 $-1 $265 forward $97 $-1 #
edge $-1 $266 0 $266 6.2831853071796004 $98 $267 forward 7 unknown #
loop $-1 $268 $100 $257 #
vertex $-1 $101 $269 #
ellipse-curve $-1 -43.634274433748821 18.352788461683769 2.3955901007138594 0.6018150307709319 0 -0.79863550430605224 0.79863550430605224 0 0.6018150307709319 1 I I #
face $-1 $-1 $117 $15 $-1 $270 reversed single #
loop $-1 $-1 $188 $102 #
plane-surface $-1 0 20.529870645210831 0 0 -1 0 0 0 -1 forward_v I I I I #
coedge $-1 $271 $186 $189 $272 forward $103 $-1 #
coedge $-1 $192 $105 $106 $180 reversed $63 $-1 #
coedge $-1 $186 $271 $105 $178 reversed $103 $-1 #
edge $-1 $193 -4.1478897254093834 $273 4.1478897254093834 $177 $274 forward 7 unknown #
coedge $-1 $107 $106 $271 $275 forward $41 $-1 #
edge $-1 $184 -45.959654530472733 $273 45.959654530472733 $176 $276 forward 7 unknown #
coedge $-1 $189 $188 $107 $182 reversed $173 $-1 #
edge $-1 $277 -45.959654530472733 $183 45.959654530472733 $181 $278 forward 7 unknown #
vertex $-1 $109 $279 #
vertex $-1 $195 $280 #
straight-curve $-1 45.959654530472733 0 -4.1478897254093834 0 -1 0 I I #
coedge $-1 $175 $177 $110 $187 reversed $103 $-1 #
edge $-1 $190 -20.529870645210831 $193 20.529870645210831 $186 $281 forward 7 unknown #
coedge $-1 $181 $111 $116 $196 forward $173 $-1 #
coedge $-1 $111 $181 $175 $272 reversed $173 $-1 #
vertex $-1 $112 $282 #
straight-curve $-1 0 20.529870645210831 4.1478897254093834 -1 0 0 I I #
coedge $-1 $113 $176 $115 $195 reversed $63 $-1 #
vertex $-1 $187 $283 #
straight-curve $-1 0 -20.529870645210831 4.1478897254093834 1 0 0 I I #
edge $-1 $118 -4.1478897254093834 $184 4.1478897254093834 $115 $284 forward 7 unknown #
edge $-1 $119 -4.1478897254093834 $183 4.1478897254093834 $116 $285 forward 7 unknown #
point $-1 45.959654530472733 -20.529870645210831 4.1478897254093834 #
point $-1 45.959654530472733 20.529870645210831 4.1478897254093834 #
face $-1 $286 $287 $16 $-1 $288 forward single #
loop $-1 $-1 $130 $121 #
coedge $-1 $289 $290 $126 $207 forward $122 $-1 #
coedge $-1 $218 $124 $125 $206 reversed $71 $-1 #
coedge $-1 $212 $291 $124 $204 reversed $292 $-1 #
edge $-1 $219 -1.5000000000000002 $293 1.5000000000000002 $203 $294 forward 7 unknown #
coedge $-1 $126 $125 $291 $295 forward $45 $-1 #
edge $-1 $210 -45.959654530472733 $293 45.959654530472733 $202 $296 forward 7 unknown #
edge $-1 $209 -45.959654530472733 $297 45.959654530472733 $201 $298 forward 7 unknown #
coedge $-1 $299 $127 $290 $300 forward $136 $-1 #
vertex $-1 $300 $301 #
vertex $-1 $221 $302 #
straight-curve $-1 45.959654530472733 -22.431249016278432 -1.2314695407716487 0 -1 0 I I #
coedge $-1 $303 $203 $129 $213 reversed $292 $-1 #
edge $-1 $216 -1.9013783710676009 $219 1.9013783710676009 $212 $304 forward 7 unknown #
coedge $-1 $305 $130 $135 $223 reversed $200 $-1 #
coedge $-1 $130 $305 $303 $306 forward $200 $-1 #
vertex $-1 $306 $307 #
straight-curve $-1 0 -20.529870645210831 1.7685304592283517 1 0 0 I I #
coedge $-1 $132 $202 $134 $221 reversed $71 $-1 #
vertex $-1 $213 $308 #
straight-curve $-1 0 -24.332627387346033 1.7685304592283517 1 0 0 I I #
edge $-1 $137 -1.5000000000000002 $210 1.5000000000000002 $134 $309 forward 7 unknown #
coedge $-1 $135 $310 $311 $312 reversed $136 $-1 #
edge $-1 $313 -4.1478897254093834 $138 -1.7685304592283517 $135 $314 forward 7 unknown #
face $-1 $-1 $136 $16 $-1 $315 reversed single #
point $-1 45.959654530472733 -24.332627387346033 1.7685304592283517 #
point $-1 45.959654530472733 -20.529870645210831 1.7685304592283517 #
face $-1 $316 $317 $17 $-1 $318 reversed single #
loop $-1 $-1 $319 $140 #
plane-surface $-1 0 -22.431249016278432 1.7685304592283517 0 0 1 1 0 0 forward_v I I I I #
coedge $-1 $143 $320 $321 $322 forward $79 $-1 #
coedge $-1 $145 $144 $238 $323 reversed $49 $-1 #
coedge $-1 $321 $324 $144 $233 forward $325 $-1 #
edge $-1 $326 -18.158934998028204 $234 -12.335552280415424 $232 $327 forward 7 unknown #
vertex $-1 $233 $328 #
straight-curve $-1 -41.308894337024903 8.3599884120192325 4.1478897254093834 0 -1 0 I I #
vertex $-1 $323 $329 #
straight-curve $-1 -45.959654530472733 12.910083002866099 0.64329047601833622 -0.79863550430605224 0 -0.6018150307709319 I I #
coedge $-1 $330 $148 $231 $323 forward $141 $-1 #
coedge $-1 $148 $331 $150 $242 reversed $141 $-1 #
straight-curve $-1 -45.959654530472733 12.910083002866099 37.026657111685196 0 0 -1 I I #
coedge $-1 $320 $150 $332 $333 forward $79 $-1 #
edge $-1 $152 -12.910083002866099 $334 20.529870645210831 $239 $335 forward 7 unknown #
point $-1 -41.308894337024903 12.910083002866099 4.1478897254093834 #
point $-1 -45.959654530472733 12.910083002866099 4.1478897254093834 #
face $-1 $336 $337 $18 $-1 $338 reversed single #
loop $-1 $-1 $339 $154 #
plane-surface $-1 0 0 4.1478897254093834 0 0 1 1 0 0 forward_v I I I I #
loop $-1 $-1 $340 $86 #
coedge $-1 $250 $157 $341 $342 forward $87 $-1 #
coedge $-1 $157 $249 $343 $344 reversed $87 $-1 #
coedge $-1 $345 $339 $157 $252 forward $246 $-1 #
edge $-1 $346 -9.3301438336893128 $347 -4.6793836402414826 $251 $348 forward 7 unknown #
edge $-1 $349 1 $349 0 $158 $-1 forward 7 unknown #
vertex $-1 $159 $350 #
ellipse-curve $-1 -42.785613673629413 15.087165186393168 1.2693792560387323 -0.6018150307709319 0 0.79863550430605224 0.79863550430605224 0 0.6018150307709319 1 I I #
point $-1 -42.835638929442759 15.087165186393168 2.9974051314847867 #
face $-1 $351 $169 $19 $-1 $352 forward single #
loop $-1 $-1 $353 $162 #
plane-surface $-1 -101.27807634142843 12.910083002866099 74.053314223370393 0 1 0 -0.6018150307709319 0 0.79863550430605224 forward_v I I I I #
loop $-1 $-1 $354 $94 #
coedge $-1 $261 $261 $262 $355 forward $163 $-1 #
coedge $-1 $262 $262 $261 $355 reversed $165 $-1 #
coedge $-1 $263 $263 $166 $264 forward $268 $-1 #
edge $-1 $356 0 $356 6.2831853071796004 $263 $357 forward 7 unknown #
edge $-1 $358 1 $358 0 $167 $-1 forward 7 unknown #
vertex $-1 $168 $359 #
ellipse-curve $-1 -42.785613673629413 18.352788461683769 1.2693792560387323 -0.6018150307709319 0 0.79863550430605224 0.79863550430605224 0 0.6018150307709319 1 I I #
loop $-1 $360 $263 $257 #
point $-1 -42.835638929442759 18.352788461683769 2.9974051314847867 #
plane-surface $-1 45.959654530472733 0 0 -1 0 0 0 0 1 forward_v I I I I #
coedge $-1 $177 $175 $179 $275 reversed $103 $-1 #
edge $-1 $190 -4.1478897254093834 $277 4.1478897254093834 $189 $361 forward 7 unknown #
vertex $-1 $275 $362 #
straight-curve $-1 -45.959654530472733 -20.529870645210831 0 0 0 -1 I I #
edge $-1 $273 -20.529870645210831 $277 20.529870645210831 $271 $363 forward 7 unknown #
straight-curve $-1 0 -20.529870645210831 -4.1478897254093834 -1 0 0 I I #
vertex $-1 $182 $364 #
straight-curve $-1 0 20.529870645210831 -4.1478897254093834 1 0 0 I I #
point $-1 45.959654530472733 20.529870645210831 -4.1478897254093834 #
point $-1 45.959654530472733 -20.529870645210831 -4.1478897254093834 #
straight-curve $-1 -45.959654530472733 0 4.1478897254093834 0 -1 0 I I #
point $-1 -45.959654530472733 20.529870645210831 4.1478897254093834 #
point $-1 -45.959654530472733 -20.529870645210831 4.1478897254093834 #
straight-curve $-1 45.959654530472733 -20.529870645210831 0 0 0 -1 I I #
straight-curve $-1 45.959654530472733 20.529870645210831 0 0 0 -1 I I #
face $-1 $365 $366 $16 $-1 $367 reversed single #
loop $-1 $-1 $311 $199 #
plane-surface $-1 0 0 4.1478897254093834 0 0 1 1 0 0 forward_v I I I I #
coedge $-1 $368 $201 $369 $370 forward $122 $-1 #
coedge $-1 $201 $368 $208 $300 reversed $122 $-1 #
coedge $-1 $203 $369 $205 $295 reversed $292 $-1 #
loop $-1 $-1 $371 $365 #
vertex $-1 $295 $372 #
straight-curve $-1 -45.959654530472733 -24.332627387346033 0.2685304592283515 0 0 -1 I I #
edge $-1 $293 -1.9013783710676009 $297 1.9013783710676009 $291 $373 forward 7 unknown #
straight-curve $-1 0 -24.332627387346033 -1.2314695407716487 -1 0 0 I I #
vertex $-1 $370 $374 #
straight-curve $-1 0 -20.529870645210831 -1.2314695407716487 -1 0 0 I I #
coedge $-1 $310 $208 $375 $376 reversed $136 $-1 #
edge $-1 $209 1.2314695407716487 $377 4.1478897254093834 $208 $314 forward 7 unknown #
point $-1 45.959654530472733 -20.529870645210831 -1.2314695407716487 #
point $-1 45.959654530472733 -24.332627387346033 -1.2314695407716487 #
coedge $-1 $378 $212 $215 $306 reversed $292 $-1 #
straight-curve $-1 -45.959654530472733 -22.431249016278432 1.7685304592283517 0 -1 0 I I #
coedge $-1 $215 $214 $379 $380 reversed $200 $-1 #
edge $-1 $381 -4.1478897254093834 $216 -1.7685304592283517 $303 $382 forward 7 unknown #
point $-1 -45.959654530472733 -20.529870645210831 1.7685304592283517 #
point $-1 -45.959654530472733 -24.332627387346033 1.7685304592283517 #
straight-curve $-1 45.959654530472733 -24.332627387346033 0.2685304592283515 0 0 -1 I I #
coedge $-1 $222 $299 $383 $384 reversed $136 $-1 #
coedge $-1 $385 $379 $222 $312 forward $287 $-1 #
edge $-1 $313 -20.529870645210831 $386 20.529870645210831 $222 $387 forward 7 unknown #
vertex $-1 $312 $388 #
straight-curve $-1 45.959654530472733 -20.529870645210831 0 0 0 -1 I I #
plane-surface $-1 45.959654530472733 0 0 -1 0 0 0 0 1 forward_v I I I I #
face $-1 $389 $390 $17 $-1 $391 reversed single #
loop $-1 $-1 $392 $227 #
plane-surface $-1 0 -22.431249016278432 -1.2314695407716487 0 0 1 1 0 0 forward_v I I I I #
coedge $-1 $393 $394 $395 $396 forward $228 $-1 #
coedge $-1 $230 $241 $397 $398 forward $79 $-1 #
coedge $-1 $399 $232 $230 $322 reversed $325 $-1 #
edge $-1 $400 -45.959654530472733 $234 41.308894337024903 $321 $401 forward 7 unknown #
edge $-1 $236 4.5500945908468662 $326 12.169882233191599 $238 $402 forward 7 unknown #
coedge $-1 $232 $403 $330 $404 reversed $325 $-1 #
loop $-1 $-1 $232 $405 #
vertex $-1 $404 $406 #
straight-curve $-1 -31.45728432066166 20.529870645210831 11.571610500624033 0.79863550430605224 0 0.6018150307709319 I I #
point $-1 -41.308894337024903 20.529870645210831 4.1478897254093834 #
point $-1 -45.959654530472733 12.910083002866099 0.64329047601833622 #
coedge $-1 $407 $238 $324 $404 forward $141 $-1 #
coedge $-1 $239 $408 $409 $410 reversed $141 $-1 #
coedge $-1 $409 $411 $241 $333 reversed $412 $-1 #
edge $-1 $334 -45.959654530472733 $413 45.959654530472733 $332 $414 forward 7 unknown #
vertex $-1 $242 $415 #
straight-curve $-1 -45.959654530472733 0 4.1478897254093834 0 -1 0 I I #
face $-1 $416 $417 $18 $-1 $418 forward single #
loop $-1 $-1 $343 $245 #
plane-surface $-1 -45.959654530472733 0 0 1 0 0 0 0 -1 forward_v I I I I #
coedge $-1 $251 $419 $340 $420 forward $246 $-1 #
coedge $-1 $421 $341 $339 $420 reversed $248 $-1 #
coedge $-1 $340 $422 $249 $342 reversed $248 $-1 #
edge $-1 $346 -5.8233827176127786 $423 0 $249 $424 forward 7 unknown #
coedge $-1 $425 $426 $250 $344 forward $337 $-1 #
edge $-1 $347 32.878767386275811 $423 36.38336663566686 $343 $427 forward 7 unknown #
coedge $-1 $428 $251 $426 $429 forward $246 $-1 #
vertex $-1 $420 $430 #
vertex $-1 $429 $431 #
straight-curve $-1 -50.639038170714215 12.910083002866099 4.1478897254093852 -1 0 0 I I #
vertex $-1 $253 $432 #
point $-1 -41.986978169323358 15.087165186393168 1.8711942868096643 #
face $-1 $433 $434 $19 $-1 $435 forward single #
plane-surface $-1 -45.959654530472733 16.719976824038465 0.64329047601833622 -0.6018150307709319 0 0.79863550430605224 0.79863550430605224 0 0.6018150307709319 forward_v I I I I #
coedge $-1 $436 $437 $438 $439 reversed $258 $-1 #
coedge $-1 $354 $354 $-1 $440 forward $260 $-1 #
edge $-1 $441 0 $441 6.2831853071796004 $261 $442 forward 7 unknown #
vertex $-1 $264 $443 #
ellipse-curve $-1 -43.634274433748821 15.087165186393168 2.3955901007138594 0.6018150307709319 0 -0.79863550430605224 0.79863550430605224 0 0.6018150307709319 1 I I #
vertex $-1 $265 $444 #
point $-1 -41.986978169323358 18.352788461683769 1.8711942868096643 #
loop $-1 $-1 $445 $257 #
straight-curve $-1 -45.959654530472733 20.529870645210831 0 0 0 -1 I I #
point $-1 -45.959654530472733 -20.529870645210831 -4.1478897254093834 #
straight-curve $-1 -45.959654530472733 0 -4.1478897254093834 0 1 0 I I #
point $-1 -45.959654530472733 20.529870645210831 -4.1478897254093834 #
face $-1 $446 $292 $16 $-1 $447 reversed single #
loop $-1 $-1 $375 $286 #
plane-surface $-1 0 0 -4.1478897254093834 0 0 1 1 0 0 forward_v I I I I #
coedge $-1 $290 $289 $448 $449 reversed $122 $-1 #
coedge $-1 $291 $450 $289 $370 reversed $292 $-1 #
edge $-1 $297 1.2314695407716487 $451 4.1478897254093834 $369 $382 forward 7 unknown #
coedge $-1 $450 $378 $452 $453 forward $292 $-1 #
point $-1 -45.959654530472733 -24.332627387346033 -1.2314695407716487 #
straight-curve $-1 -45.959654530472733 -22.431249016278432 -1.2314695407716487 0 1 0 I I #
point $-1 -45.959654530472733 -20.529870645210831 -1.2314695407716487 #
coedge $-1 $448 $454 $299 $376 forward $366 $-1 #
edge $-1 $455 -20.529870645210831 $377 20.529870645210831 $299 $456 forward 7 unknown #
vertex $-1 $300 $457 #
coedge $-1 $371 $303 $458 $459 reversed $292 $-1 #
coedge $-1 $311 $458 $305 $380 forward $287 $-1 #
edge $-1 $381 -45.959654530472733 $313 45.959654530472733 $305 $460 forward 7 unknown #
vertex $-1 $459 $461 #
straight-curve $-1 -45.959654530472733 -20.529870645210831 0 0 0 -1 I I #
coedge $-1 $462 $463 $310 $384 forward $464 $-1 #
edge $-1 $386 -4.1478897254093834 $455 4.1478897254093834 $310 $465 forward 7 unknown #
coedge $-1 $458 $311 $463 $466 forward $287 $-1 #
vertex $-1 $312 $467 #
straight-curve $-1 45.959654530472733 0 4.1478897254093834 0 1 0 I I #
point $-1 45.959654530472733 -20.529870645210831 4.1478897254093834 #
face $-1 $468 $469 $17 $-1 $470 reversed single #
loop $-1 $-1 $471 $316 #
plane-surface $-1 0 -24.332627387346033 0.2685304592283515 0 1 0 0 0 1 forward_v I I I I #
coedge $-1 $472 $473 $474 $475 forward $317 $-1 #
coedge $-1 $476 $319 $477 $478 reversed $228 $-1 #
coedge $-1 $319 $476 $479 $480 forward $228 $-1 #
coedge $-1 $481 $482 $319 $396 reversed $483 $-1 #
edge $-1 $484 -1.9013783710676009 $485 1.9013783710676009 $395 $486 forward 7 unknown #
coedge $-1 $482 $487 $320 $398 reversed $483 $-1 #
edge $-1 $413 -20.529870645210831 $400 20.529870645210831 $397 $488 forward 7 unknown #
coedge $-1 $403 $321 $487 $489 forward $325 $-1 #
vertex $-1 $398 $490 #
straight-curve $-1 0 20.529870645210831 4.1478897254093834 -1 0 0 I I #
straight-curve $-1 -45.959654530472733 8.3599884120192325 0.643290476018338 0 1 0 I I #
coedge $-1 $324 $399 $491 $492 reversed $325 $-1 #
edge $-1 $326 -0.64329047601833622 $493 4.1478897254093834 $324 $494 forward 7 unknown #
face $-1 $495 $325 $17 $-1 $496 reversed single #
point $-1 -45.959654530472733 20.529870645210831 0.64329047601833622 #
coedge $-1 $497 $330 $498 $499 reversed $141 $-1 #
coedge $-1 $331 $500 $476 $501 reversed $141 $-1 #
coedge $-1 $477 $332 $331 $410 forward $412 $-1 #
edge $-1 $334 -4.1478897254093834 $502 -1.7685304592283517 $331 $503 forward 7 unknown #
coedge $-1 $332 $477 $482 $504 reversed $412 $-1 #
loop $-1 $-1 $477 $468 #
vertex $-1 $398 $505 #
straight-curve $-1 0 -20.529870645210831 4.1478897254093834 1 0 0 I I #
point $-1 -45.959654530472733 -20.529870645210831 4.1478897254093834 #
face $-1 $506 $507 $18 $-1 $508 reversed single #
loop $-1 $-1 $509 $336 #
plane-surface $-1 0 -22.431249016278432 1.7685304592283517 0 0 1 1 0 0 forward_v I I I I #
coedge $-1 $339 $510 $511 $512 forward $246 $-1 #
edge $-1 $513 -12.169882233191599 $346 -4.5500945908468662 $339 $514 forward 7 unknown #
coedge $-1 $422 $340 $515 $516 reversed $248 $-1 #
coedge $-1 $341 $421 $425 $517 reversed $248 $-1 #
vertex $-1 $517 $518 #
straight-curve $-1 -45.959654530472733 12.910083002866099 0.64329047601833622 -0.79863550430605224 0 -0.6018150307709319 I I #
coedge $-1 $519 $343 $422 $517 forward $337 $-1 #
coedge $-1 $343 $520 $345 $429 reversed $337 $-1 #
straight-curve $-1 -45.959654530472733 12.910083002866099 37.026657111685196 0 0 -1 I I #
coedge $-1 $510 $345 $521 $522 forward $246 $-1 #
edge $-1 $347 -12.910083002866099 $523 20.529870645210831 $426 $524 forward 7 unknown #
point $-1 -41.308894337024903 12.910083002866099 4.1478897254093834 #
point $-1 -45.959654530472733 12.910083002866099 4.1478897254093834 #
point $-1 -42.183798642858477 15.087165186393168 0.47074375173268013 #
face $-1 $525 $526 $19 $-1 $527 reversed single #
loop $-1 $-1 $528 $351 #
plane-surface $-1 0 0 4.1478897254093834 0 0 1 1 0 0 forward_v I I I I #
coedge $-1 $437 $353 $529 $530 forward $258 $-1 #
coedge $-1 $353 $436 $531 $532 reversed $258 $-1 #
coedge $-1 $533 $528 $353 $439 forward $434 $-1 #
edge $-1 $534 -9.3301438336893128 $535 -4.6793836402414826 $438 $536 forward 7 unknown #
edge $-1 $537 1 $537 0 $354 $-1 forward 7 unknown #
vertex $-1 $355 $538 #
ellipse-curve $-1 -42.785613673629413 15.087165186393168 1.2693792560387323 -0.6018150307709319 0 0.79863550430605224 0.79863550430605224 0 0.6018150307709319 1 I I #
point $-1 -42.835638929442759 15.087165186393168 2.9974051314847867 #
point $-1 -42.183798642858477 18.352788461683769 0.47074375173268013 #
coedge $-1 $539 $529 $528 $540 reversed $360 $-1 #
face $-1 $224 $464 $16 $-1 $541 reversed single #
plane-surface $-1 -45.959654530472733 0 0 1 0 0 0 0 -1 forward_v I I I I #
coedge $-1 $542 $375 $368 $449 forward $366 $-1 #
edge $-1 $377 -45.959654530472733 $451 45.959654530472733 $368 $543 forward 7 unknown #
coedge $-1 $369 $371 $542 $544 reversed $292 $-1 #
vertex $-1 $544 $545 #
coedge $-1 $463 $462 $371 $453 reversed $464 $-1 #
edge $-1 $546 -4.1478897254093834 $547 4.1478897254093834 $452 $548 forward 7 unknown #
coedge $-1 $375 $542 $462 $549 forward $366 $-1 #
vertex $-1 $376 $550 #
straight-curve $-1 45.959654530472733 0 -4.1478897254093834 0 -1 0 I I #
point $-1 45.959654530472733 -20.529870645210831 -4.1478897254093834 #
coedge $-1 $379 $385 $378 $459 forward $287 $-1 #
edge $-1 $546 -20.529870645210831 $381 20.529870645210831 $378 $551 forward 7 unknown #
straight-curve $-1 0 -20.529870645210831 4.1478897254093834 1 0 0 I I #
point $-1 -45.959654530472733 -20.529870645210831 4.1478897254093834 #
coedge $-1 $452 $383 $454 $549 reversed $464 $-1 #
coedge $-1 $383 $452 $385 $466 reversed $464 $-1 #
loop $-1 $-1 $383 $446 #
straight-curve $-1 45.959654530472733 20.529870645210831 0 0 0 -1 I I #
edge $-1 $386 -45.959654530472733 $546 45.959654530472733 $463 $552 forward 7 unknown #
point $-1 45.959654530472733 20.529870645210831 4.1478897254093834 #
face $-1 $553 $412 $17 $-1 $470 reversed single #
loop $-1 $-1 $554 $389 #
plane-surface $-1 0 -20.529870645210831 0 0 1 0 0 0 1 forward_v I I I I #
coedge $-1 $555 $479 $500 $556 forward $390 $-1 #
coedge $-1 $557 $392 $555 $558 forward $317 $-1 #
coedge $-1 $392 $557 $554 $559 reversed $317 $-1 #
coedge $-1 $560 $481 $392 $475 reversed $483 $-1 #
edge $-1 $561 -1.9013783710676009 $562 1.9013783710676009 $474 $563 forward 7 unknown #
coedge $-1 $394 $393 $408 $501 forward $228 $-1 #
coedge $-1 $411 $409 $393 $478 forward $412 $-1 #
edge $-1 $502 -45.959654530472733 $485 45.959654530472733 $477 $564 forward 7 unknown #
coedge $-1 $471 $565 $394 $480 reversed $390 $-1 #
edge $-1 $566 -45.959654530472733 $484 45.959654530472733 $479 $567 forward 7 unknown #
coedge $-1 $474 $395 $565 $568 forward $483 $-1 #
coedge $-1 $395 $397 $411 $504 forward $483 $-1 #
loop $-1 $-1 $482 $495 #
vertex $-1 $396 $569 #
vertex $-1 $396 $570 #
straight-curve $-1 45.959654530472733 -22.431249016278432 1.7685304592283517 0 1 0 I I #
coedge $-1 $397 $571 $399 $489 reversed $483 $-1 #
straight-curve $-1 45.959654530472733 0 4.1478897254093834 0 1 0 I I #
edge $-1 $400 -4.1478897254093834 $572 4.1478897254093834 $487 $573 forward 7 unknown #
point $-1 45.959654530472733 20.529870645210831 4.1478897254093834 #
coedge $-1 $574 $498 $403 $492 forward $575 $-1 #
edge $-1 $493 -45.959654530472733 $572 45.959654530472733 $403 $576 forward 7 unknown #
vertex $-1 $492 $577 #
straight-curve $-1 -45.959654530472733 20.529870645210831 0 0 0 -1 I I #
face $-1 $-1 $483 $17 $-1 $578 reversed single #
plane-surface $-1 0 20.529870645210831 0 0 -1 0 0 0 -1 forward_v I I I I #
coedge $-1 $579 $407 $580 $581 reversed $141 $-1 #
coedge $-1 $491 $582 $407 $499 forward $575 $-1 #
edge $-1 $583 -20.529870645210831 $493 20.529870645210831 $407 $584 forward 7 unknown #
coedge $-1 $408 $579 $471 $556 reversed $141 $-1 #
edge $-1 $502 -1.9013783710676009 $566 1.9013783710676009 $408 $585 forward 7 unknown #
vertex $-1 $410 $586 #
straight-curve $-1 -45.959654530472733 -20.529870645210831 0 0 0 -1 I I #
edge $-1 $413 -4.1478897254093834 $485 -1.7685304592283517 $482 $587 forward 7 unknown #
point $-1 45.959654530472733 -20.529870645210831 4.1478897254093834 #
face $-1 $588 $589 $18 $-1 $590 reversed single #
loop $-1 $-1 $591 $416 #
plane-surface $-1 0 -22.431249016278432 -1.2314695407716487 0 0 1 1 0 0 forward_v I I I I #
coedge $-1 $592 $593 $594 $595 forward $417 $-1 #
coedge $-1 $419 $428 $596 $597 forward $246 $-1 #
coedge $-1 $598 $515 $419 $512 reversed $599 $-1 #
edge $-1 $600 -45.959654530472733 $513 41.308894337024903 $511 $601 forward 7 unknown #
vertex $-1 $516 $602 #
straight-curve $-1 -41.308894337024903 8.3599884120192325 4.1478897254093834 0 -1 0 I I #
coedge $-1 $511 $603 $421 $516 forward $599 $-1 #
edge $-1 $604 -18.158934998028204 $513 -12.335552280415424 $515 $605 forward 7 unknown #
edge $-1 $423 4.5500945908468662 $604 12.169882233191599 $425 $606 forward 7 unknown #
point $-1 -45.959654530472733 12.910083002866099 0.64329047601833622 #
coedge $-1 $607 $425 $603 $608 forward $337 $-1 #
coedge $-1 $426 $609 $610 $611 reversed $337 $-1 #
coedge $-1 $610 $612 $428 $522 reversed $613 $-1 #
edge $-1 $523 -45.959654530472733 $614 45.959654530472733 $521 $615 forward 7 unknown #
vertex $-1 $429 $616 #
straight-curve $-1 -45.959654530472733 0 4.1478897254093834 0 -1 0 I I #
face $-1 $617 $618 $19 $-1 $619 forward single #
loop $-1 $-1 $531 $433 #
plane-surface $-1 -45.959654530472733 0 0 1 0 0 0 0 -1 forward_v I I I I #
coedge $-1 $438 $620 $445 $540 forward $434 $-1 #
coedge $-1 $445 $621 $436 $530 reversed $360 $-1 #
edge $-1 $534 -5.8233827176127786 $622 0 $436 $623 forward 7 unknown #
coedge $-1 $624 $625 $437 $532 forward $526 $-1 #
edge $-1 $535 32.878767386275811 $622 36.38336663566686 $531 $626 forward 7 unknown #
coedge $-1 $627 $438 $625 $628 forward $434 $-1 #
vertex $-1 $540 $629 #
vertex $-1 $628 $630 #
straight-curve $-1 -50.639038170714215 12.910083002866099 4.1478897254093852 -1 0 0 I I #
vertex $-1 $440 $631 #
point $-1 -41.986978169323358 15.087165186393168 1.8711942868096643 #
coedge $-1 $621 $445 $632 $633 reversed $360 $-1 #
edge $-1 $634 -12.169882233191599 $534 -4.5500945908468662 $528 $635 forward 7 unknown #
plane-surface $-1 0 20.529870645210831 0 0 -1 0 0 0 -1 forward_v I I I I #
coedge $-1 $454 $448 $450 $544 forward $366 $-1 #
straight-curve $-1 0 -20.529870645210831 -4.1478897254093834 -1 0 0 I I #
edge $-1 $451 -20.529870645210831 $547 20.529870645210831 $450 $636 forward 7 unknown #
point $-1 -45.959654530472733 -20.529870645210831 -4.1478897254093834 #
vertex $-1 $466 $637 #
vertex $-1 $549 $638 #
straight-curve $-1 -45.959654530472733 20.529870645210831 0 0 0 -1 I I #
edge $-1 $547 -45.959654530472733 $455 45.959654530472733 $462 $639 forward 7 unknown #
point $-1 45.959654530472733 20.529870645210831 -4.1478897254093834 #
straight-curve $-1 -45.959654530472733 0 4.1478897254093834 0 -1 0 I I #
straight-curve $-1 0 20.529870645210831 4.1478897254093834 -1 0 0 I I #
face $-1 $405 $575 $17 $-1 $640 reversed single #
coedge $-1 $580 $641 $473 $559 forward $469 $-1 #
coedge $-1 $565 $471 $472 $558 reversed $390 $-1 #
edge $-1 $566 -1.5000000000000002 $642 1.5000000000000002 $500 $643 forward 7 unknown #
coedge $-1 $473 $472 $579 $644 forward $317 $-1 #
edge $-1 $562 -45.959654530472733 $642 45.959654530472733 $555 $645 forward 7 unknown #
edge $-1 $561 -45.959654530472733 $646 45.959654530472733 $554 $647 forward 7 unknown #
coedge $-1 $571 $474 $641 $648 forward $483 $-1 #
vertex $-1 $648 $649 #
vertex $-1 $568 $650 #
straight-curve $-1 45.959654530472733 -22.431249016278432 -1.2314695407716487 0 -1 0 I I #
straight-curve $-1 0 -20.529870645210831 1.7685304592283517 1 0 0 I I #
coedge $-1 $479 $555 $481 $568 reversed $390 $-1 #
vertex $-1 $501 $651 #
straight-curve $-1 0 -24.332627387346033 1.7685304592283517 1 0 0 I I #
edge $-1 $484 -1.5000000000000002 $562 1.5000000000000002 $481 $652 forward 7 unknown #
point $-1 45.959654530472733 -24.332627387346033 1.7685304592283517 #
point $-1 45.959654530472733 -20.529870645210831 1.7685304592283517 #
coedge $-1 $487 $560 $574 $653 reversed $483 $-1 #
vertex $-1 $653 $654 #
straight-curve $-1 45.959654530472733 20.529870645210831 0 0 0 -1 I I #
coedge $-1 $582 $491 $571 $653 forward $575 $-1 #
loop $-1 $-1 $574 $553 #
straight-curve $-1 0 20.529870645210831 -4.1478897254093834 1 0 0 I I #
point $-1 -45.959654530472733 20.529870645210831 -4.1478897254093834 #
plane-surface $-1 45.959654530472733 0 0 -1 0 0 0 0 1 forward_v I I I I #
coedge $-1 $500 $497 $557 $644 reversed $141 $-1 #
coedge $-1 $655 $554 $497 $581 forward $469 $-1 #
edge $-1 $646 1.2314695407716487 $583 4.1478897254093834 $497 $503 forward 7 unknown #
coedge $-1 $498 $574 $655 $656 forward $575 $-1 #
vertex $-1 $499 $657 #
straight-curve $-1 -45.959654530472733 0 -4.1478897254093834 0 1 0 I I #
straight-curve $-1 -45.959654530472733 -22.431249016278432 1.7685304592283517 0 -1 0 I I #
point $-1 -45.959654530472733 -20.529870645210831 1.7685304592283517 #
straight-curve $-1 45.959654530472733 -20.529870645210831 0 0 0 -1 I I #
face $-1 $658 $659 $18 $-1 $660 reversed single #
loop $-1 $-1 $661 $506 #
plane-surface $-1 0 -24.332627387346033 0.2685304592283515 0 1 0 0 0 1 forward_v I I I I #
coedge $-1 $662 $663 $664 $665 forward $507 $-1 #
coedge $-1 $666 $509 $667 $668 reversed $417 $-1 #
coedge $-1 $509 $666 $669 $670 forward $417 $-1 #
coedge $-1 $671 $672 $509 $595 reversed $673 $-1 #
edge $-1 $674 -1.9013783710676009 $675 1.9013783710676009 $594 $676 forward 7 unknown #
coedge $-1 $672 $677 $510 $597 reversed $673 $-1 #
edge $-1 $614 -20.529870645210831 $600 20.529870645210831 $596 $678 forward 7 unknown #
coedge $-1 $679 $511 $677 $680 forward $599 $-1 #
loop $-1 $-1 $515 $681 #
vertex $-1 $597 $682 #
straight-curve $-1 0 20.529870645210831 4.1478897254093834 -1 0 0 I I #
point $-1 -41.308894337024903 20.529870645210831 4.1478897254093834 #
coedge $-1 $515 $679 $519 $608 reversed $599 $-1 #
vertex $-1 $608 $683 #
straight-curve $-1 -31.45728432066166 20.529870645210831 11.571610500624033 0.79863550430605224 0 0.6018150307709319 I I #
straight-curve $-1 -45.959654530472733 8.3599884120192325 0.643290476018338 0 1 0 I I #
coedge $-1 $684 $519 $685 $686 reversed $337 $-1 #
edge $-1 $604 -0.64329047601833622 $687 4.1478897254093834 $603 $688 forward 7 unknown #
coedge $-1 $520 $689 $666 $690 reversed $337 $-1 #
coedge $-1 $667 $521 $520 $611 forward $613 $-1 #
edge $-1 $523 -4.1478897254093834 $691 -1.7685304592283517 $520 $692 forward 7 unknown #
coedge $-1 $521 $667 $672 $693 reversed $613 $-1 #
loop $-1 $-1 $667 $658 #
vertex $-1 $597 $694 #
straight-curve $-1 0 -20.529870645210831 4.1478897254093834 1 0 0 I I #
point $-1 -45.959654530472733 -20.529870645210831 4.1478897254093834 #
face $-1 $695 $696 $19 $-1 $697 reversed single #
loop $-1 $-1 $698 $525 #
plane-surface $-1 0 -22.431249016278432 1.7685304592283517 0 0 1 1 0 0 forward_v I I I I #
coedge $-1 $528 $699 $700 $701 forward $434 $-1 #
coedge $-1 $529 $539 $624 $702 reversed $360 $-1 #
vertex $-1 $702 $703 #
straight-curve $-1 -45.959654530472733 12.910083002866099 0.64329047601833622 -0.79863550430605224 0 -0.6018150307709319 I I #
coedge $-1 $704 $531 $621 $702 forward $526 $-1 #
coedge $-1 $531 $705 $533 $628 reversed $526 $-1 #
straight-curve $-1 -45.959654530472733 12.910083002866099 37.026657111685196 0 0 -1 I I #
coedge $-1 $699 $533 $706 $707 forward $434 $-1 #
edge $-1 $535 -12.910083002866099 $708 20.529870645210831 $625 $709 forward 7 unknown #
point $-1 -41.308894337024903 12.910083002866099 4.1478897254093834 #
point $-1 -45.959654530472733 12.910083002866099 4.1478897254093834 #
point $-1 -42.183798642858477 15.087165186393168 0.47074375173268013 #
coedge $-1 $700 $710 $539 $633 forward $711 $-1 #
edge $-1 $712 -18.158934998028204 $634 -12.335552280415424 $632 $713 forward 7 unknown #
vertex $-1 $633 $714 #
straight-curve $-1 -41.308894337024903 8.3599884120192325 4.1478897254093834 0 -1 0 I I #
straight-curve $-1 -45.959654530472733 0 -4.1478897254093834 0 1 0 I I #
point $-1 -45.959654530472733 20.529870645210831 4.1478897254093834 #
point $-1 -45.959654530472733 20.529870645210831 -4.1478897254093834 #
straight-curve $-1 0 20.529870645210831 -4.1478897254093834 1 0 0 I I #
plane-surface $-1 0 0 -4.1478897254093834 0 0 1 1 0 0 forward_v I I I I #
coedge $-1 $554 $655 $560 $648 reversed $469 $-1 #
vertex $-1 $644 $715 #
straight-curve $-1 -45.959654530472733 -24.332627387346033 0.2685304592283515 0 0 -1 I I #
edge $-1 $642 -1.9013783710676009 $646 1.9013783710676009 $579 $716 forward 7 unknown #
straight-curve $-1 0 -24.332627387346033 -1.2314695407716487 -1 0 0 I I #
vertex $-1 $581 $717 #
straight-curve $-1 0 -20.529870645210831 -1.2314695407716487 -1 0 0 I I #
edge $-1 $561 1.2314695407716487 $718 4.1478897254093834 $560 $587 forward 7 unknown #
point $-1 45.959654530472733 -20.529870645210831 -1.2314695407716487 #
point $-1 45.959654530472733 -24.332627387346033 -1.2314695407716487 #
point $-1 -45.959654530472733 -24.332627387346033 1.7685304592283517 #
straight-curve $-1 45.959654530472733 -24.332627387346033 0.2685304592283515 0 0 -1 I I #
edge $-1 $572 -20.529870645210831 $718 20.529870645210831 $571 $719 forward 7 unknown #
point $-1 45.959654530472733 20.529870645210831 -4.1478897254093834 #
coedge $-1 $641 $580 $582 $656 reversed $469 $-1 #
edge $-1 $718 -45.959654530472733 $583 45.959654530472733 $655 $720 forward 7 unknown #
point $-1 -45.959654530472733 -20.529870645210831 -4.1478897254093834 #
face $-1 $721 $613 $18 $-1 $660 reversed single #
loop $-1 $-1 $722 $588 #
plane-surface $-1 0 -20.529870645210831 0 0 1 0 0 0 1 forward_v I I I I #
coedge $-1 $723 $669 $689 $724 forward $589 $-1 #
coedge $-1 $725 $591 $723 $726 forward $507 $-1 #
coedge $-1 $591 $725 $722 $727 reversed $507 $-1 #
coedge $-1 $728 $671 $591 $665 reversed $673 $-1 #
edge $-1 $729 -1.9013783710676009 $730 1.9013783710676009 $664 $731 forward 7 unknown #
coedge $-1 $593 $592 $609 $690 forward $417 $-1 #
coedge $-1 $612 $610 $592 $668 forward $613 $-1 #
edge $-1 $691 -45.959654530472733 $675 45.959654530472733 $667 $732 forward 7 unknown #
coedge $-1 $661 $733 $593 $670 reversed $589 $-1 #
edge $-1 $734 -45.959654530472733 $674 45.959654530472733 $669 $735 forward 7 unknown #
coedge $-1 $664 $594 $733 $736 forward $673 $-1 #
coedge $-1 $594 $596 $612 $693 forward $673 $-1 #
loop $-1 $-1 $672 $737 #
vertex $-1 $595 $738 #
vertex $-1 $595 $739 #
straight-curve $-1 45.959654530472733 -22.431249016278432 1.7685304592283517 0 1 0 I I #
coedge $-1 $596 $740 $598 $680 reversed $673 $-1 #
straight-curve $-1 45.959654530472733 0 4.1478897254093834 0 1 0 I I #
coedge $-1 $603 $598 $741 $742 reversed $599 $-1 #
edge $-1 $600 -4.1478897254093834 $743 4.1478897254093834 $677 $744 forward 7 unknown #
face $-1 $737 $599 $18 $-1 $745 reversed single #
point $-1 45.959654530472733 20.529870645210831 4.1478897254093834 #
point $-1 -45.959654530472733 20.529870645210831 0.64329047601833622 #
coedge $-1 $746 $607 $747 $748 reversed $337 $-1 #
coedge $-1 $741 $749 $607 $686 forward $750 $-1 #
edge $-1 $751 -20.529870645210831 $687 20.529870645210831 $607 $752 forward 7 unknown #
vertex $-1 $742 $753 #
straight-curve $-1 -45.959654530472733 20.529870645210831 0 0 0 -1 I I #
coedge $-1 $609 $746 $661 $724 reversed $337 $-1 #
edge $-1 $691 -1.9013783710676009 $734 1.9013783710676009 $609 $754 forward 7 unknown #
vertex $-1 $611 $755 #
straight-curve $-1 -45.959654530472733 -20.529870645210831 0 0 0 -1 I I #
edge $-1 $614 -4.1478897254093834 $675 -1.7685304592283517 $672 $756 forward 7 unknown #
point $-1 45.959654530472733 -20.529870645210831 4.1478897254093834 #
face $-1 $757 $758 $19 $-1 $759 reversed single #
loop $-1 $-1 $760 $617 #
plane-surface $-1 0 -22.431249016278432 -1.2314695407716487 0 0 1 1 0 0 forward_v I I I I #
coedge $-1 $761 $762 $763 $764 forward $618 $-1 #
coedge $-1 $620 $627 $765 $766 forward $434 $-1 #
coedge $-1 $767 $632 $620 $701 reversed $711 $-1 #
edge $-1 $768 -45.959654530472733 $634 41.308894337024903 $700 $769 forward 7 unknown #
edge $-1 $622 4.5500945908468662 $712 12.169882233191599 $624 $770 forward 7 unknown #
point $-1 -45.959654530472733 12.910083002866099 0.64329047601833622 #
coedge $-1 $771 $624 $710 $772 forward $526 $-1 #
coedge $-1 $625 $773 $774 $775 reversed $526 $-1 #
coedge $-1 $774 $776 $627 $707 reversed $777 $-1 #
edge $-1 $708 -45.959654530472733 $778 45.959654530472733 $706 $779 forward 7 unknown #
vertex $-1 $628 $780 #
straight-curve $-1 -45.959654530472733 0 4.1478897254093834 0 -1 0 I I #
coedge $-1 $632 $781 $704 $772 reversed $711 $-1 #
loop $-1 $-1 $632 $782 #
vertex $-1 $772 $783 #
straight-curve $-1 -31.45728432066166 20.529870645210831 11.571610500624033 0.79863550430605224 0 0.6018150307709319 I I #
point $-1 -41.308894337024903 20.529870645210831 4.1478897254093834 #
point $-1 -45.959654530472733 -24.332627387346033 -1.2314695407716487 #
straight-curve $-1 -45.959654530472733 -22.431249016278432 -1.2314695407716487 0 1 0 I I #
point $-1 -45.959654530472733 -20.529870645210831 -1.2314695407716487 #
vertex $-1 $648 $784 #
straight-curve $-1 45.959654530472733 0 -4.1478897254093834 0 -1 0 I I #
straight-curve $-1 0 -20.529870645210831 -4.1478897254093834 -1 0 0 I I #
face $-1 $681 $750 $18 $-1 $785 reversed single #
coedge $-1 $747 $786 $663 $727 forward $659 $-1 #
coedge $-1 $733 $661 $662 $726 reversed $589 $-1 #
edge $-1 $734 -1.5000000000000002 $787 1.5000000000000002 $689 $788 forward 7 unknown #
coedge $-1 $663 $662 $746 $789 forward $507 $-1 #
edge $-1 $730 -45.959654530472733 $787 45.959654530472733 $723 $790 forward 7 unknown #
edge $-1 $729 -45.959654530472733 $791 45.959654530472733 $722 $792 forward 7 unknown #
coedge $-1 $740 $664 $786 $793 forward $673 $-1 #
vertex $-1 $793 $794 #
vertex $-1 $736 $795 #
straight-curve $-1 45.959654530472733 -22.431249016278432 -1.2314695407716487 0 -1 0 I I #
straight-curve $-1 0 -20.529870645210831 1.7685304592283517 1 0 0 I I #
coedge $-1 $669 $723 $671 $736 reversed $589 $-1 #
vertex $-1 $690 $796 #
straight-curve $-1 0 -24.332627387346033 1.7685304592283517 1 0 0 I I #
edge $-1 $674 -1.5000000000000002 $730 1.5000000000000002 $671 $797 forward 7 unknown #
face $-1 $-1 $673 $18 $-1 $798 reversed single #
point $-1 45.959654530472733 -24.332627387346033 1.7685304592283517 #
point $-1 45.959654530472733 -20.529870645210831 1.7685304592283517 #
coedge $-1 $677 $728 $799 $800 reversed $673 $-1 #
coedge $-1 $799 $685 $679 $742 forward $750 $-1 #
edge $-1 $687 -45.959654530472733 $743 45.959654530472733 $679 $801 forward 7 unknown #
vertex $-1 $800 $802 #
straight-curve $-1 45.959654530472733 20.529870645210831 0 0 0 -1 I I #
plane-surface $-1 0 20.529870645210831 0 0 -1 0 0 0 -1 forward_v I I I I #
coedge $-1 $689 $684 $725 $789 reversed $337 $-1 #
coedge $-1 $803 $722 $684 $748 forward $659 $-1 #
edge $-1 $791 1.2314695407716487 $751 4.1478897254093834 $684 $692 forward 7 unknown #
coedge $-1 $685 $799 $803 $804 forward $750 $-1 #
loop $-1 $-1 $799 $721 #
vertex $-1 $686 $805 #
straight-curve $-1 -45.959654530472733 0 -4.1478897254093834 0 1 0 I I #
point $-1 -45.959654530472733 20.529870645210831 -4.1478897254093834 #
straight-curve $-1 -45.959654530472733 -22.431249016278432 1.7685304592283517 0 -1 0 I I #
point $-1 -45.959654530472733 -20.529870645210831 1.7685304592283517 #
straight-curve $-1 45.959654530472733 -20.529870645210831 0 0 0 -1 I I #
face $-1 $806 $807 $19 $-1 $808 reversed single #
loop $-1 $-1 $809 $695 #
plane-surface $-1 0 -24.332627387346033 0.2685304592283515 0 1 0 0 0 1 forward_v I I I I #
coedge $-1 $810 $811 $812 $813 forward $696 $-1 #
coedge $-1 $814 $698 $815 $816 reversed $618 $-1 #
coedge $-1 $698 $814 $817 $818 forward $618 $-1 #
coedge $-1 $819 $820 $698 $764 reversed $821 $-1 #
edge $-1 $822 -1.9013783710676009 $823 1.9013783710676009 $763 $824 forward 7 unknown #
coedge $-1 $820 $825 $699 $766 reversed $821 $-1 #
edge $-1 $778 -20.529870645210831 $768 20.529870645210831 $765 $826 forward 7 unknown #
coedge $-1 $781 $700 $825 $827 forward $711 $-1 #
vertex $-1 $766 $828 #
straight-curve $-1 0 20.529870645210831 4.1478897254093834 -1 0 0 I I #
straight-curve $-1 -45.959654530472733 8.3599884120192325 0.643290476018338 0 1 0 I I #
coedge $-1 $829 $704 $830 $831 reversed $526 $-1 #
edge $-1 $712 -0.64329047601833622 $832 4.1478897254093834 $710 $833 forward 7 unknown #
coedge $-1 $705 $834 $814 $835 reversed $526 $-1 #
coedge $-1 $815 $706 $705 $775 forward $777 $-1 #
edge $-1 $708 -4.1478897254093834 $836 -1.7685304592283517 $705 $837 forward 7 unknown #
coedge $-1 $706 $815 $820 $838 reversed $777 $-1 #
loop $-1 $-1 $815 $806 #
vertex $-1 $766 $839 #
straight-curve $-1 0 -20.529870645210831 4.1478897254093834 1 0 0 I I #
point $-1 -45.959654530472733 -20.529870645210831 4.1478897254093834 #
coedge $-1 $710 $767 $840 $841 reversed $711 $-1 #
face $-1 $842 $711 $19 $-1 $843 reversed single #
point $-1 -45.959654530472733 20.529870645210831 0.64329047601833622 #
point $-1 45.959654530472733 -20.529870645210831 -4.1478897254093834 #
plane-surface $-1 0 0 -4.1478897254093834 0 0 1 1 0 0 forward_v I I I I #
coedge $-1 $722 $803 $728 $793 reversed $659 $-1 #
vertex $-1 $789 $844 #
straight-curve $-1 -45.959654530472733 -24.332627387346033 0.2685304592283515 0 0 -1 I I #
edge $-1 $787 -1.9013783710676009 $791 1.9013783710676009 $746 $845 forward 7 unknown #
straight-curve $-1 0 -24.332627387346033 -1.2314695407716487 -1 0 0 I I #
vertex $-1 $748 $846 #
straight-curve $-1 0 -20.529870645210831 -1.2314695407716487 -1 0 0 I I #
edge $-1 $729 1.2314695407716487 $847 4.1478897254093834 $728 $756 forward 7 unknown #
point $-1 45.959654530472733 -20.529870645210831 -1.2314695407716487 #
point $-1 45.959654530472733 -24.332627387346033 -1.2314695407716487 #
point $-1 -45.959654530472733 -24.332627387346033 1.7685304592283517 #
straight-curve $-1 45.959654530472733 -24.332627387346033 0.2685304592283515 0 0 -1 I I #
plane-surface $-1 45.959654530472733 0 0 -1 0 0 0 0 1 forward_v I I I I #
coedge $-1 $749 $741 $740 $800 forward $750 $-1 #
edge $-1 $743 -20.529870645210831 $847 20.529870645210831 $740 $848 forward 7 unknown #
straight-curve $-1 0 20.529870645210831 -4.1478897254093834 1 0 0 I I #
point $-1 45.959654530472733 20.529870645210831 -4.1478897254093834 #
coedge $-1 $786 $747 $749 $804 reversed $659 $-1 #
edge $-1 $847 -45.959654530472733 $751 45.959654530472733 $803 $849 forward 7 unknown #
point $-1 -45.959654530472733 -20.529870645210831 -4.1478897254093834 #
face $-1 $850 $777 $19 $-1 $808 reversed single #
loop $-1 $-1 $851 $757 #
plane-surface $-1 0 -20.529870645210831 0 0 1 0 0 0 1 forward_v I I I I #
coedge $-1 $852 $817 $834 $853 forward $758 $-1 #
coedge $-1 $854 $760 $852 $855 forward $696 $-1 #
coedge $-1 $760 $854 $851 $856 reversed $696 $-1 #
coedge $-1 $857 $819 $760 $813 reversed $821 $-1 #
edge $-1 $858 -1.9013783710676009 $859 1.9013783710676009 $812 $860 forward 7 unknown #
coedge $-1 $762 $761 $773 $835 forward $618 $-1 #
coedge $-1 $776 $774 $761 $816 forward $777 $-1 #
edge $-1 $836 -45.959654530472733 $823 45.959654530472733 $815 $861 forward 7 unknown #
coedge $-1 $809 $862 $762 $818 reversed $758 $-1 #
edge $-1 $863 -45.959654530472733 $822 45.959654530472733 $817 $864 forward 7 unknown #
coedge $-1 $812 $763 $862 $865 forward $821 $-1 #
coedge $-1 $763 $765 $776 $838 forward $821 $-1 #
loop $-1 $-1 $820 $842 #
vertex $-1 $764 $866 #
vertex $-1 $764 $867 #
straight-curve $-1 45.959654530472733 -22.431249016278432 1.7685304592283517 0 1 0 I I #
coedge $-1 $765 $868 $767 $827 reversed $821 $-1 #
straight-curve $-1 45.959654530472733 0 4.1478897254093834 0 1 0 I I #
edge $-1 $768 -4.1478897254093834 $869 4.1478897254093834 $825 $870 forward 7 unknown #
point $-1 45.959654530472733 20.529870645210831 4.1478897254093834 #
coedge $-1 $871 $771 $872 $873 reversed $526 $-1 #
coedge $-1 $840 $874 $771 $831 forward $875 $-1 #
edge $-1 $876 -20.529870645210831 $832 20.529870645210831 $771 $877 forward 7 unknown #
vertex $-1 $841 $878 #
straight-curve $-1 -45.959654530472733 20.529870645210831 0 0 0 -1 I I #
coedge $-1 $773 $871 $809 $853 reversed $526 $-1 #
edge $-1 $836 -1.9013783710676009 $863 1.9013783710676009 $773 $879 forward 7 unknown #
vertex $-1 $775 $880 #
straight-curve $-1 -45.959654530472733 -20.529870645210831 0 0 0 -1 I I #
edge $-1 $778 -4.1478897254093834 $823 -1.7685304592283517 $820 $881 forward 7 unknown #
point $-1 45.959654530472733 -20.529870645210831 4.1478897254093834 #
coedge $-1 $882 $830 $781 $841 forward $875 $-1 #
edge $-1 $832 -45.959654530472733 $869 45.959654530472733 $781 $883 forward 7 unknown #
face $-1 $-1 $821 $19 $-1 $884 reversed single #
plane-surface $-1 0 20.529870645210831 0 0 -1 0 0 0 -1 forward_v I I I I #
point $-1 -45.959654530472733 -24.332627387346033 -1.2314695407716487 #
straight-curve $-1 -45.959654530472733 -22.431249016278432 -1.2314695407716487 0 1 0 I I #
point $-1 -45.959654530472733 -20.529870645210831 -1.2314695407716487 #
vertex $-1 $793 $885 #
straight-curve $-1 45.959654530472733 0 -4.1478897254093834 0 -1 0 I I #
straight-curve $-1 0 -20.529870645210831 -4.1478897254093834 -1 0 0 I I #
face $-1 $782 $875 $19 $-1 $886 reversed single #
coedge $-1 $872 $887 $811 $856 forward $807 $-1 #
coedge $-1 $862 $809 $810 $855 reversed $758 $-1 #
edge $-1 $863 -1.5000000000000002 $888 1.5000000000000002 $834 $889 forward 7 unknown #
coedge $-1 $811 $810 $871 $890 forward $696 $-1 #
edge $-1 $859 -45.959654530472733 $888 45.959654530472733 $852 $891 forward 7 unknown #
edge $-1 $858 -45.959654530472733 $892 45.959654530472733 $851 $893 forward 7 unknown #
coedge $-1 $868 $812 $887 $894 forward $821 $-1 #
vertex $-1 $894 $895 #
vertex $-1 $865 $896 #
straight-curve $-1 45.959654530472733 -22.431249016278432 -1.2314695407716487 0 -1 0 I I #
straight-curve $-1 0 -20.529870645210831 1.7685304592283517 1 0 0 I I #
coedge $-1 $817 $852 $819 $865 reversed $758 $-1 #
vertex $-1 $835 $897 #
straight-curve $-1 0 -24.332627387346033 1.7685304592283517 1 0 0 I I #
edge $-1 $822 -1.5000000000000002 $859 1.5000000000000002 $819 $898 forward 7 unknown #
point $-1 45.959654530472733 -24.332627387346033 1.7685304592283517 #
point $-1 45.959654530472733 -20.529870645210831 1.7685304592283517 #
coedge $-1 $825 $857 $882 $899 reversed $821 $-1 #
vertex $-1 $899 $900 #
straight-curve $-1 45.959654530472733 20.529870645210831 0 0 0 -1 I I #
coedge $-1 $834 $829 $854 $890 reversed $526 $-1 #
coedge $-1 $901 $851 $829 $873 forward $807 $-1 #
edge $-1 $892 1.2314695407716487 $876 4.1478897254093834 $829 $837 forward 7 unknown #
coedge $-1 $830 $882 $901 $902 forward $875 $-1 #
loop $-1 $-1 $882 $850 #
vertex $-1 $831 $903 #
straight-curve $-1 -45.959654530472733 0 -4.1478897254093834 0 1 0 I I #
point $-1 -45.959654530472733 20.529870645210831 -4.1478897254093834 #
straight-curve $-1 -45.959654530472733 -22.431249016278432 1.7685304592283517 0 -1 0 I I #
point $-1 -45.959654530472733 -20.529870645210831 1.7685304592283517 #
straight-curve $-1 45.959654530472733 -20.529870645210831 0 0 0 -1 I I #
coedge $-1 $874 $840 $868 $899 forward $875 $-1 #
straight-curve $-1 0 20.529870645210831 -4.1478897254093834 1 0 0 I I #
plane-surface $-1 45.959654530472733 0 0 -1 0 0 0 0 1 forward_v I I I I #
point $-1 45.959654530472733 -20.529870645210831 -4.1478897254093834 #
plane-surface $-1 0 0 -4.1478897254093834 0 0 1 1 0 0 forward_v I I I I #
coedge $-1 $851 $901 $857 $894 reversed $807 $-1 #
vertex $-1 $890 $904 #
straight-curve $-1 -45.959654530472733 -24.332627387346033 0.2685304592283515 0 0 -1 I I #
edge $-1 $888 -1.9013783710676009 $892 1.9013783710676009 $871 $905 forward 7 unknown #
straight-curve $-1 0 -24.332627387346033 -1.2314695407716487 -1 0 0 I I #
vertex $-1 $873 $906 #
straight-curve $-1 0 -20.529870645210831 -1.2314695407716487 -1 0 0 I I #
edge $-1 $858 1.2314695407716487 $907 4.1478897254093834 $857 $881 forward 7 unknown #
point $-1 45.959654530472733 -20.529870645210831 -1.2314695407716487 #
point $-1 45.959654530472733 -24.332627387346033 -1.2314695407716487 #
point $-1 -45.959654530472733 -24.332627387346033 1.7685304592283517 #
straight-curve $-1 45.959654530472733 -24.332627387346033 0.2685304592283515 0 0 -1 I I #
edge $-1 $869 -20.529870645210831 $907 20.529870645210831 $868 $908 forward 7 unknown #
point $-1 45.959654530472733 20.529870645210831 -4.1478897254093834 #
coedge $-1 $887 $872 $874 $902 reversed $807 $-1 #
edge $-1 $907 -45.959654530472733 $876 45.959654530472733 $901 $909 forward 7 unknown #
point $-1 -45.959654530472733 -20.529870645210831 -4.1478897254093834 #
point $-1 -45.959654530472733 -24.332627387346033 -1.2314695407716487 #
straight-curve $-1 -45.959654530472733 -22.431249016278432 -1.2314695407716487 0 1 0 I I #
point $-1 -45.959654530472733 -20.529870645210831 -1.2314695407716487 #
vertex $-1 $894 $910 #
straight-curve $-1 45.959654530472733 0 -4.1478897254093834 0 -1 0 I I #
straight-curve $-1 0 -20.529870645210831 -4.1478897254093834 -1 0 0 I I #
point $-1 45.959654530472733 -20.529870645210831 -4.1478897254093834 #
End-of-ACIS-data 