500 0 12 0           
7 Unknown 11 ACIS 5.0 NT 24 Thu Mar 25 19:20:04 1999 
-1 9.9999999999999995e-007 1e-010 
body $-1 $12 $-1 $13 #
body $-1 $14 $-1 $15 #
body $-1 $16 $-1 $17 #
body $-1 $18 $-1 $19 #
body $-1 $20 $-1 $21 #
body $-1 $22 $-1 $23 #
body $-1 $24 $-1 $25 #
body $-1 $26 $-1 $27 #
body $-1 $28 $-1 $29 #
body $-1 $30 $-1 $31 #
body $-1 $32 $-1 $33 #
body $-1 $34 $-1 $35 #
lump $-1 $-1 $36 $0 #
transform $-1 1 0 0 0 1 0 0 0 1 42.762535477767265 27.022080358151598 7.18076303935573 1 rotate no_reflect no_shear #
lump $-1 $-1 $37 $1 #
transform $-1 1 0 0 0 1 0 0 0 1 42.762535477767265 27.022080358151598 7.18076303935573 1 rotate no_reflect no_shear #
lump $-1 $-1 $38 $2 #
transform $-1 1 0 0 0 1 0 0 0 1 42.762535477767265 27.022080358151598 7.18076303935573 1 rotate no_reflect no_shear #
lump $-1 $-1 $39 $3 #
transform $-1 1 0 0 0 1 0 0 0 1 42.762535477767265 27.022080358151598 7.18076303935573 1 rotate no_reflect no_shear #
lump $-1 $-1 $40 $4 #
transform $-1 1 0 0 0 1 0 0 0 1 42.762535477767265 27.022080358151598 7.18076303935573 1 rotate no_reflect no_shear #
lump $-1 $-1 $41 $5 #
transform $-1 1 0 0 0 1 0 0 0 1 42.762535477767265 27.022080358151598 7.18076303935573 1 rotate no_reflect no_shear #
lump $-1 $-1 $42 $6 #
transform $-1 1 0 0 0 1 0 0 0 1 42.762535477767265 27.022080358151598 7.18076303935573 1 rotate no_reflect no_shear #
lump $-1 $-1 $43 $7 #
transform $-1 1 0 0 0 1 0 0 0 1 42.762535477767265 27.022080358151598 7.18076303935573 1 rotate no_reflect no_shear #
lump $-1 $-1 $44 $8 #
transform $-1 1 0 0 0 1 0 0 0 1 42.762535477767265 27.022080358151598 7.18076303935573 1 rotate no_reflect no_shear #
lump $-1 $-1 $45 $9 #
transform $-1 1 0 0 0 1 0 0 0 1 42.762535477767265 27.022080358151598 7.18076303935573 1 rotate no_reflect no_shear #
lump $-1 $-1 $46 $10 #
transform $-1 1 0 0 0 1 0 0 0 1 42.762535477767265 27.022080358151598 7.18076303935573 1 rotate no_reflect no_shear #
lump $-1 $-1 $47 $11 #
transform $-1 1 0 0 0 1 0 0 0 1 42.762535477767265 27.022080358151598 7.18076303935573 1 rotate no_reflect no_shear #
shell $-1 $-1 $-1 $48 $-1 $12 #
shell $-1 $-1 $-1 $49 $-1 $14 #
shell $-1 $-1 $-1 $50 $-1 $16 #
shell $-1 $-1 $-1 $51 $-1 $18 #
shell $-1 $-1 $-1 $52 $-1 $20 #
shell $-1 $-1 $-1 $53 $-1 $22 #
shell $-1 $-1 $-1 $54 $-1 $24 #
shell $-1 $-1 $-1 $55 $-1 $26 #
shell $-1 $-1 $-1 $56 $-1 $28 #
shell $-1 $-1 $-1 $57 $-1 $30 #
shell $-1 $-1 $-1 $58 $-1 $32 #
shell $-1 $-1 $-1 $59 $-1 $34 #
face $-1 $60 $61 $36 $-1 $62 forward single #
face $-1 $63 $64 $37 $-1 $65 forward single #
face $-1 $66 $67 $38 $-1 $68 reversed single #
face $-1 $69 $70 $39 $-1 $71 forward single #
face $-1 $72 $73 $40 $-1 $74 reversed single #
face $-1 $75 $76 $41 $-1 $77 forward single #
face $-1 $78 $79 $42 $-1 $80 forward single #
face $-1 $81 $82 $43 $-1 $83 forward single #
face $-1 $84 $85 $44 $-1 $86 reversed single #
face $-1 $87 $88 $45 $-1 $89 forward single #
face $-1 $90 $91 $46 $-1 $92 forward single #
face $-1 $93 $94 $47 $-1 $95 forward single #
face $-1 $96 $97 $36 $-1 $98 reversed single #
loop $-1 $-1 $99 $48 #
plane-surface $-1 0 0 7.18076303935573 0 0 1 1 0 0 forward_v I I I I #
face $-1 $100 $101 $37 $-1 $102 reversed single #
loop $-1 $-1 $103 $49 #
plane-surface $-1 -42.762535477767265 0 0 1 0 0 0 0 -1 forward_v I I I I #
face $-1 $104 $105 $38 $-1 $106 reversed single #
loop $-1 $-1 $107 $50 #
plane-surface $-1 -16.099587600811091 -94.416756680050185 53.403957974119322 -1 0 0 0 -0.78801076186113728 0.61566146476048833 forward_v I I I I #
face $-1 $108 $109 $39 $-1 $110 forward single #
loop $-1 $111 $112 $51 #
cone-surface $-1 -25.986977629701133 -23.500816966456995 3.176857413579993 0 0.78801076186113728 -0.61566146476048833 2 0 0 1 I I 0 1 2 forward I I I I #
face $-1 $113 $114 $40 $-1 $115 reversed single #
loop $-1 $-1 $116 $52 #
plane-surface $-1 -19.258167144102863 47.55667212622879 101.71068401586786 1 0 0 0 -0.69465837861970381 -0.71933979245794832 forward_v I I I I #
face $-1 $117 $118 $41 $-1 $119 forward single #
loop $-1 $120 $121 $53 #
cone-surface $-1 -15.758732559113582 23.314335980068513 3.5052338260299241 0 -0.69465837861970381 -0.71933979245794832 1 0 0 1 I I 0 1 1 forward I I I I #
face $-1 $122 $123 $42 $-1 $124 forward single #
loop $-1 $125 $126 $54 #
cone-surface $-1 -10.509580681629657 23.314335980068513 3.5052338260299241 0 -0.69465837861970381 -0.71933979245794832 1 0 0 1 I I 0 1 1 forward I I I I #
face $-1 $127 $128 $43 $-1 $129 forward single #
loop $-1 $130 $131 $55 #
cone-surface $-1 -5.2604288041457323 23.314335980068513 3.5052338260299241 0 -0.69465837861970381 -0.71933979245794832 1 0 0 1 I I 0 1 1 forward I I I I #
face $-1 $132 $133 $44 $-1 $134 reversed single #
loop $-1 $-1 $135 $56 #
plane-surface $-1 8.6491620383325341 47.55667212622879 101.71068401586786 1 0 0 0 -0.69465837861970381 -0.71933979245794832 forward_v I I I I #
face $-1 $136 $137 $45 $-1 $138 forward single #
loop $-1 $139 $140 $57 #
cone-surface $-1 12.148596623321815 23.314335980068513 3.5052338260299241 0 -0.69465837861970381 -0.71933979245794832 1 0 0 1 I I 0 1 1 forward I I I I #
face $-1 $141 $142 $46 $-1 $143 forward single #
loop $-1 $144 $145 $58 #
cone-surface $-1 17.39774850080574 23.314335980068513 3.5052338260299241 0 -0.69465837861970381 -0.71933979245794832 1 0 0 1 I I 0 1 1 forward I I I I #
face $-1 $146 $147 $47 $-1 $148 forward single #
loop $-1 $149 $150 $59 #
cone-surface $-1 22.646900378289665 23.314335980068513 3.5052338260299241 0 -0.69465837861970381 -0.71933979245794832 1 0 0 1 I I 0 1 1 forward I I I I #
face $-1 $151 $152 $36 $-1 $153 reversed single #
loop $-1 $-1 $154 $60 #
plane-surface $-1 0 0 -7.18076303935573 0 0 1 1 0 0 forward_v I I I I #
coedge $-1 $155 $156 $157 $158 forward $61 $-1 #
face $-1 $159 $160 $37 $-1 $161 forward single #
loop $-1 $-1 $162 $63 #
plane-surface $-1 0 27.022080358151598 0 0 -1 0 0 0 -1 forward_v I I I I #
coedge $-1 $163 $164 $165 $166 forward $64 $-1 #
face $-1 $167 $168 $38 $-1 $169 reversed single #
loop $-1 $-1 $170 $66 #
plane-surface $-1 -25.986977629701133 -27.022080358151598 0.74946751589023819 0 -0.78801076186113728 0.61566146476048833 1 0 0 forward_v I I I I #
coedge $-1 $171 $172 $173 $174 reversed $67 $-1 #
face $-1 $-1 $175 $39 $-1 $176 forward single #
loop $-1 $177 $178 $69 #
cone-surface $-1 -25.986977629701133 -21.703882119621333 1.772938084776511 0 0.78801076186113728 -0.61566146476048833 1 0 0 1 I I -0.70710678118654746 0.70710678118654746 1 forward I I I I #
loop $-1 $-1 $179 $51 #
coedge $-1 $112 $112 $180 $181 reversed $70 $-1 #
face $-1 $182 $183 $40 $-1 $184 reversed single #
loop $-1 $-1 $185 $72 #
plane-surface $-1 -10.509580681629657 -11.854034995077953 40.189097224762342 0 0.69465837861970381 0.71933979245794832 1 0 0 forward_v I I I I #
coedge $-1 $186 $187 $188 $189 reversed $73 $-1 #
face $-1 $-1 $190 $41 $-1 $191 forward single #
loop $-1 $192 $193 $75 #
cone-surface $-1 -15.758732559113582 21.606755148942931 1.7369821522967737 0 -0.69465837861970381 -0.71933979245794832 0.5 0 0 1 I I -0.70710678118654746 0.70710678118654746 0.5 forward I I I I #
loop $-1 $-1 $194 $53 #
coedge $-1 $121 $121 $195 $196 reversed $76 $-1 #
face $-1 $-1 $197 $42 $-1 $198 forward single #
loop $-1 $199 $200 $78 #
cone-surface $-1 -10.509580681629657 21.606755148942931 1.7369821522967737 0 -0.69465837861970381 -0.71933979245794832 0.5 0 0 1 I I -0.70710678118654746 0.70710678118654746 0.5 forward I I I I #
loop $-1 $-1 $201 $54 #
coedge $-1 $126 $126 $202 $203 reversed $79 $-1 #
face $-1 $-1 $204 $43 $-1 $205 forward single #
loop $-1 $206 $207 $81 #
cone-surface $-1 -5.2604288041457323 21.606755148942931 1.7369821522967737 0 -0.69465837861970381 -0.71933979245794832 0.5 0 0 1 I I -0.70710678118654746 0.70710678118654746 0.5 forward I I I I #
loop $-1 $-1 $208 $55 #
coedge $-1 $131 $131 $209 $210 reversed $82 $-1 #
face $-1 $211 $212 $44 $-1 $213 reversed single #
loop $-1 $-1 $214 $84 #
plane-surface $-1 17.39774850080574 -11.854034995077953 40.189097224762342 0 0.69465837861970381 0.71933979245794832 1 0 0 forward_v I I I I #
coedge $-1 $215 $216 $217 $218 reversed $85 $-1 #
face $-1 $-1 $219 $45 $-1 $220 forward single #
loop $-1 $221 $222 $87 #
cone-surface $-1 12.148596623321815 21.606755148942931 1.7369821522967737 0 -0.69465837861970381 -0.71933979245794832 0.5 0 0 1 I I -0.70710678118654746 0.70710678118654746 0.5 forward I I I I #
loop $-1 $-1 $223 $57 #
coedge $-1 $140 $140 $224 $225 reversed $88 $-1 #
face $-1 $-1 $226 $46 $-1 $227 forward single #
loop $-1 $228 $229 $90 #
cone-surface $-1 17.39774850080574 21.606755148942931 1.7369821522967737 0 -0.69465837861970381 -0.71933979245794832 0.5 0 0 1 I I -0.70710678118654746 0.70710678118654746 0.5 forward I I I I #
loop $-1 $-1 $230 $58 #
coedge $-1 $145 $145 $231 $232 reversed $91 $-1 #
face $-1 $-1 $233 $47 $-1 $234 forward single #
loop $-1 $235 $236 $93 #
cone-surface $-1 22.646900378289665 21.606755148942931 1.7369821522967737 0 -0.69465837861970381 -0.71933979245794832 0.5 0 0 1 I I -0.70710678118654746 0.70710678118654746 0.5 forward I I I I #
loop $-1 $-1 $237 $59 #
coedge $-1 $150 $150 $238 $239 reversed $94 $-1 #
face $-1 $240 $241 $36 $-1 $242 reversed single #
loop $-1 $-1 $243 $96 #
plane-surface $-1 0 -27.022080358151598 0 0 1 0 0 0 1 forward_v I I I I #
coedge $-1 $244 $245 $246 $247 forward $97 $-1 #
coedge $-1 $248 $99 $249 $250 forward $61 $-1 #
coedge $-1 $99 $248 $251 $252 forward $61 $-1 #
coedge $-1 $253 $254 $99 $158 reversed $255 $-1 #
edge $-1 $256 -27.022080358151598 $257 27.022080358151598 $157 $258 forward 7 unknown #
face $-1 $259 $260 $37 $-1 $261 reversed single #
loop $-1 $-1 $165 $100 #
plane-surface $-1 -46.20661938735531 0 6.4678720936533232 0 0 1 1 0 0 forward_v I I I I #
coedge $-1 $262 $263 $164 $264 forward $101 $-1 #
coedge $-1 $265 $103 $266 $267 reversed $64 $-1 #
coedge $-1 $103 $265 $162 $264 reversed $64 $-1 #
coedge $-1 $268 $269 $103 $166 reversed $160 $-1 #
edge $-1 $270 -27.022080358151598 $271 27.022080358151598 $165 $272 forward 7 unknown #
face $-1 $273 $274 $38 $-1 $275 reversed single #
loop $-1 $-1 $276 $104 #
plane-surface $-1 -35.874367658591176 -94.416756680050185 53.403957974119322 1 0 0 0 0.78801076186113728 -0.61566146476048833 forward_v I I I I #
coedge $-1 $277 $278 $279 $280 reversed $105 $-1 #
coedge $-1 $172 $107 $281 $282 reversed $67 $-1 #
coedge $-1 $107 $171 $277 $283 reversed $67 $-1 #
coedge $-1 $279 $284 $107 $174 forward $285 $-1 #
edge $-1 $286 20.186297981873494 $287 25.210976595313646 $173 $288 forward 7 unknown #
loop $-1 $-1 $180 $108 #
plane-surface $-1 -25.986977629701133 -27.022080358151598 0.74946751589023819 0 -0.78801076186113728 0.61566146476048833 1 0 0 forward_v I I I I #
loop $-1 $-1 $289 $69 #
coedge $-1 $178 $178 $179 $290 reversed $109 $-1 #
coedge $-1 $179 $179 $178 $290 forward $111 $-1 #
coedge $-1 $180 $180 $112 $181 forward $175 $-1 #
edge $-1 $291 0 $291 6.2831853071796004 $180 $292 forward 7 unknown #
face $-1 $293 $294 $40 $-1 $295 forward single #
loop $-1 $-1 $296 $113 #
plane-surface $-1 -1.7609942191564514 47.55667212622879 101.71068401586786 -1 0 0 0 0.69465837861970381 0.71933979245794832 forward_v I I I I #
coedge $-1 $297 $298 $299 $300 reversed $114 $-1 #
coedge $-1 $187 $116 $301 $302 reversed $73 $-1 #
coedge $-1 $116 $186 $297 $303 reversed $73 $-1 #
coedge $-1 $299 $304 $116 $189 forward $294 $-1 #
edge $-1 $305 -3.2437442950372031 $306 1.4512411774975007 $188 $307 forward 7 unknown #
loop $-1 $-1 $195 $117 #
plane-surface $-1 -10.509580681629657 -11.854034995077953 40.189097224762342 0 0.69465837861970381 0.71933979245794832 1 0 0 forward_v I I I I #
loop $-1 $-1 $308 $75 #
coedge $-1 $193 $193 $194 $309 reversed $118 $-1 #
coedge $-1 $194 $194 $193 $309 forward $120 $-1 #
coedge $-1 $195 $195 $121 $196 forward $190 $-1 #
edge $-1 $310 0 $310 6.2831853071796004 $195 $311 forward 7 unknown #
loop $-1 $-1 $202 $122 #
plane-surface $-1 -10.509580681629657 -11.854034995077953 40.189097224762342 0 0.69465837861970381 0.71933979245794832 1 0 0 forward_v I I I I #
loop $-1 $-1 $312 $78 #
coedge $-1 $200 $200 $201 $313 reversed $123 $-1 #
coedge $-1 $201 $201 $200 $313 forward $125 $-1 #
coedge $-1 $202 $202 $126 $203 forward $197 $-1 #
edge $-1 $314 0 $314 6.2831853071796004 $202 $315 forward 7 unknown #
loop $-1 $-1 $209 $127 #
plane-surface $-1 -10.509580681629657 -11.854034995077953 40.189097224762342 0 0.69465837861970381 0.71933979245794832 1 0 0 forward_v I I I I #
loop $-1 $-1 $316 $81 #
coedge $-1 $207 $207 $208 $317 reversed $128 $-1 #
coedge $-1 $208 $208 $207 $317 forward $130 $-1 #
coedge $-1 $209 $209 $131 $210 forward $204 $-1 #
edge $-1 $318 0 $318 6.2831853071796004 $209 $319 forward 7 unknown #
face $-1 $320 $321 $44 $-1 $322 forward single #
loop $-1 $-1 $323 $132 #
plane-surface $-1 26.146334963278946 47.55667212622879 101.71068401586786 -1 0 0 0 0.69465837861970381 0.71933979245794832 forward_v I I I I #
coedge $-1 $324 $325 $326 $327 reversed $133 $-1 #
coedge $-1 $216 $135 $328 $329 reversed $85 $-1 #
coedge $-1 $135 $215 $324 $330 reversed $85 $-1 #
coedge $-1 $326 $331 $135 $218 forward $321 $-1 #
edge $-1 $332 -3.2437442950372031 $333 1.4512411774975007 $217 $334 forward 7 unknown #
loop $-1 $-1 $224 $136 #
plane-surface $-1 17.39774850080574 -11.854034995077953 40.189097224762342 0 0.69465837861970381 0.71933979245794832 1 0 0 forward_v I I I I #
loop $-1 $-1 $335 $87 #
coedge $-1 $222 $222 $223 $336 reversed $137 $-1 #
coedge $-1 $223 $223 $222 $336 forward $139 $-1 #
coedge $-1 $224 $224 $140 $225 forward $219 $-1 #
edge $-1 $337 0 $337 6.2831853071796004 $224 $338 forward 7 unknown #
loop $-1 $-1 $231 $141 #
plane-surface $-1 17.39774850080574 -11.854034995077953 40.189097224762342 0 0.69465837861970381 0.71933979245794832 1 0 0 forward_v I I I I #
loop $-1 $-1 $339 $90 #
coedge $-1 $229 $229 $230 $340 reversed $142 $-1 #
coedge $-1 $230 $230 $229 $340 forward $144 $-1 #
coedge $-1 $231 $231 $145 $232 forward $226 $-1 #
edge $-1 $341 0 $341 6.2831853071796004 $231 $342 forward 7 unknown #
loop $-1 $-1 $238 $146 #
plane-surface $-1 17.39774850080574 -11.854034995077953 40.189097224762342 0 0.69465837861970381 0.71933979245794832 1 0 0 forward_v I I I I #
loop $-1 $-1 $343 $93 #
coedge $-1 $236 $236 $237 $344 reversed $147 $-1 #
coedge $-1 $237 $237 $236 $344 forward $149 $-1 #
coedge $-1 $238 $238 $150 $239 forward $233 $-1 #
edge $-1 $345 0 $345 6.2831853071796004 $238 $346 forward 7 unknown #
face $-1 $347 $348 $36 $-1 $349 reversed single #
loop $-1 $-1 $350 $151 #
plane-surface $-1 -42.762535477767265 0 0 1 0 0 0 0 -1 forward_v I I I I #
coedge $-1 $351 $251 $350 $352 forward $152 $-1 #
coedge $-1 $353 $154 $351 $354 forward $97 $-1 #
coedge $-1 $154 $353 $355 $356 forward $97 $-1 #
coedge $-1 $254 $253 $154 $247 reversed $255 $-1 #
edge $-1 $357 -27.022080358151598 $358 27.022080358151598 $246 $359 forward 7 unknown #
coedge $-1 $156 $155 $360 $361 forward $61 $-1 #
coedge $-1 $362 $363 $155 $250 reversed $348 $-1 #
edge $-1 $257 -42.762535477767265 $364 42.762535477767265 $249 $365 forward 7 unknown #
coedge $-1 $243 $366 $156 $252 reversed $152 $-1 #
edge $-1 $367 -42.762535477767265 $256 42.762535477767265 $251 $368 forward 7 unknown #
coedge $-1 $246 $157 $366 $369 forward $255 $-1 #
coedge $-1 $157 $246 $362 $370 reversed $255 $-1 #
loop $-1 $-1 $253 $347 #
vertex $-1 $158 $371 #
vertex $-1 $158 $372 #
straight-curve $-1 42.762535477767265 0 7.18076303935573 0 1 0 I I #
face $-1 $373 $374 $37 $-1 $375 reversed single #
loop $-1 $-1 $376 $159 #
plane-surface $-1 -46.20661938735531 0 3.4678720936533232 0 0 1 1 0 0 forward_v I I I I #
coedge $-1 $377 $162 $378 $379 reversed $101 $-1 #
coedge $-1 $162 $377 $268 $380 reversed $101 $-1 #
edge $-1 $270 -6.4678720936533232 $381 -3.4678720936533232 $162 $382 forward 7 unknown #
coedge $-1 $164 $163 $376 $383 forward $64 $-1 #
coedge $-1 $384 $385 $163 $267 forward $386 $-1 #
edge $-1 $387 3.4678720936533232 $271 6.4678720936533232 $266 $388 forward 7 unknown #
coedge $-1 $389 $165 $263 $380 forward $160 $-1 #
coedge $-1 $165 $389 $384 $390 forward $160 $-1 #
vertex $-1 $264 $391 #
vertex $-1 $390 $392 #
straight-curve $-1 -42.762535477767265 0 6.4678720936533232 0 -1 0 I I #
face $-1 $-1 $285 $38 $-1 $393 forward single #
loop $-1 $-1 $394 $167 #
plane-surface $-1 0 -27.022080358151598 0 0 1 0 0 0 1 forward_v I I I I #
coedge $-1 $395 $396 $397 $398 reversed $168 $-1 #
coedge $-1 $399 $170 $172 $283 forward $105 $-1 #
coedge $-1 $170 $399 $395 $400 forward $105 $-1 #
coedge $-1 $397 $173 $170 $280 forward $285 $-1 #
edge $-1 $287 3.1060987859605245 $401 22.880878843740611 $279 $402 forward 7 unknown #
coedge $-1 $403 $404 $171 $282 forward $274 $-1 #
edge $-1 $405 -25.952511471169423 $286 -19.521215947703929 $281 $406 forward 7 unknown #
edge $-1 $287 -8.1614310803014263 $405 0 $172 $407 forward 7 unknown #
coedge $-1 $173 $397 $403 $408 forward $285 $-1 #
loop $-1 $-1 $397 $273 #
vertex $-1 $282 $409 #
vertex $-1 $174 $410 #
straight-curve $-1 -16.099587600811091 -47.208378340025092 7.1807630393557282 0 1 0 I I #
coedge $-1 $289 $289 $-1 $411 reversed $177 $-1 #
edge $-1 $412 0 $412 6.2831853071796004 $178 $413 forward 7 unknown #
vertex $-1 $181 $414 #
ellipse-curve $-1 -25.986977629701133 -24.509741051431522 3.9651152776229863 0 -0.78801076186113728 0.61566146476048833 2 0 0 1 I I #
face $-1 $-1 $415 $40 $-1 $416 reversed single #
loop $-1 $-1 $188 $182 #
plane-surface $-1 0 0 7.18076303935573 0 0 1 1 0 0 forward_v I I I I #
coedge $-1 $417 $418 $419 $420 reversed $183 $-1 #
coedge $-1 $421 $185 $187 $303 forward $114 $-1 #
coedge $-1 $185 $421 $417 $422 forward $114 $-1 #
coedge $-1 $419 $188 $185 $300 forward $294 $-1 #
edge $-1 $306 -14.003376803288035 $423 3.4937961216583773 $299 $424 forward 7 unknown #
coedge $-1 $425 $426 $186 $302 forward $415 $-1 #
edge $-1 $427 -48.208473840221458 $305 -43.674578968578196 $301 $428 forward 7 unknown #
edge $-1 $306 47.517362780529105 $427 54.044160716303196 $187 $429 forward 7 unknown #
coedge $-1 $188 $419 $425 $430 forward $294 $-1 #
vertex $-1 $189 $431 #
vertex $-1 $189 $432 #
straight-curve $-1 -19.258167144102863 23.778336063114395 7.1807630393557318 0 -1 0 I I #
coedge $-1 $308 $308 $-1 $433 reversed $192 $-1 #
edge $-1 $434 0 $434 6.2831853071796004 $193 $435 forward 7 unknown #
vertex $-1 $196 $436 #
ellipse-curve $-1 -15.758732559113582 24.674587621884246 4.9138156035341005 0 0.69465837861970381 0.71933979245794832 1 0 0 1 I I #
coedge $-1 $312 $312 $-1 $437 reversed $199 $-1 #
edge $-1 $438 0 $438 6.2831853071796004 $200 $439 forward 7 unknown #
vertex $-1 $203 $440 #
ellipse-curve $-1 -10.509580681629657 24.674587621884246 4.9138156035341005 0 0.69465837861970381 0.71933979245794832 1 0 0 1 I I #
coedge $-1 $316 $316 $-1 $441 reversed $206 $-1 #
edge $-1 $442 0 $442 6.2831853071796004 $207 $443 forward 7 unknown #
vertex $-1 $210 $444 #
ellipse-curve $-1 -5.2604288041457323 24.674587621884246 4.9138156035341005 0 0.69465837861970381 0.71933979245794832 1 0 0 1 I I #
face $-1 $-1 $445 $44 $-1 $446 reversed single #
loop $-1 $-1 $217 $211 #
plane-surface $-1 0 0 7.18076303935573 0 0 1 1 0 0 forward_v I I I I #
coedge $-1 $447 $448 $449 $450 reversed $212 $-1 #
coedge $-1 $451 $214 $216 $330 forward $133 $-1 #
coedge $-1 $214 $451 $447 $452 forward $133 $-1 #
coedge $-1 $449 $217 $214 $327 forward $321 $-1 #
edge $-1 $333 -0.049712212070335937 $453 17.447460712876076 $326 $454 forward 7 unknown #
coedge $-1 $455 $456 $215 $329 forward $445 $-1 #
edge $-1 $457 -48.208473840221458 $332 -43.674578968578196 $328 $458 forward 7 unknown #
edge $-1 $333 47.517362780529105 $457 54.044160716303196 $216 $459 forward 7 unknown #
coedge $-1 $217 $449 $455 $460 forward $321 $-1 #
vertex $-1 $218 $461 #
vertex $-1 $218 $462 #
straight-curve $-1 8.6491620383325341 23.778336063114395 7.1807630393557318 0 -1 0 I I #
coedge $-1 $335 $335 $-1 $463 reversed $221 $-1 #
edge $-1 $464 0 $464 6.2831853071796004 $222 $465 forward 7 unknown #
vertex $-1 $225 $466 #
ellipse-curve $-1 12.148596623321815 24.674587621884246 4.9138156035341005 0 0.69465837861970381 0.71933979245794832 1 0 0 1 I I #
coedge $-1 $339 $339 $-1 $467 reversed $228 $-1 #
edge $-1 $468 0 $468 6.2831853071796004 $229 $469 forward 7 unknown #
vertex $-1 $232 $470 #
ellipse-curve $-1 17.39774850080574 24.674587621884246 4.9138156035341005 0 0.69465837861970381 0.71933979245794832 1 0 0 1 I I #
coedge $-1 $343 $343 $-1 $471 reversed $235 $-1 #
edge $-1 $472 0 $472 6.2831853071796004 $236 $473 forward 7 unknown #
vertex $-1 $239 $474 #
ellipse-curve $-1 22.646900378289665 24.674587621884246 4.9138156035341005 0 0.69465837861970381 0.71933979245794832 1 0 0 1 I I #
face $-1 $-1 $255 $36 $-1 $475 reversed single #
loop $-1 $-1 $362 $240 #
plane-surface $-1 0 27.022080358151598 0 0 -1 0 0 0 -1 forward_v I I I I #
coedge $-1 $360 $476 $243 $352 reversed $241 $-1 #
coedge $-1 $366 $243 $244 $354 reversed $152 $-1 #
edge $-1 $367 -7.18076303935573 $477 7.18076303935573 $350 $478 forward 7 unknown #
coedge $-1 $245 $244 $476 $479 forward $97 $-1 #
edge $-1 $358 -42.762535477767265 $477 42.762535477767265 $351 $480 forward 7 unknown #
coedge $-1 $363 $362 $245 $356 reversed $348 $-1 #
edge $-1 $481 -42.762535477767265 $357 42.762535477767265 $355 $482 forward 7 unknown #
vertex $-1 $247 $483 #
vertex $-1 $369 $484 #
straight-curve $-1 42.762535477767265 0 -7.18076303935573 0 -1 0 I I #
coedge $-1 $485 $350 $248 $361 reversed $241 $-1 #
edge $-1 $364 -27.022080358151598 $367 27.022080358151598 $360 $486 forward 7 unknown #
coedge $-1 $355 $249 $254 $370 forward $348 $-1 #
coedge $-1 $249 $355 $485 $487 reversed $348 $-1 #
vertex $-1 $250 $488 #
straight-curve $-1 0 27.022080358151598 7.18076303935573 -1 0 0 I I #
coedge $-1 $251 $351 $253 $369 reversed $152 $-1 #
vertex $-1 $361 $489 #
straight-curve $-1 0 -27.022080358151598 7.18076303935573 1 0 0 I I #
edge $-1 $256 -7.18076303935573 $358 7.18076303935573 $253 $490 forward 7 unknown #
edge $-1 $257 -7.18076303935573 $357 7.18076303935573 $254 $491 forward 7 unknown #
point $-1 42.762535477767265 -27.022080358151598 7.18076303935573 #
point $-1 42.762535477767265 27.022080358151598 7.18076303935573 #
face $-1 $-1 $386 $37 $-1 $492 reversed single #
loop $-1 $-1 $493 $259 #
plane-surface $-1 -49.650703296943355 0 4.9678720936533232 1 0 0 0 0 -1 forward_v I I I I #
coedge $-1 $494 $378 $265 $383 reversed $260 $-1 #
coedge $-1 $263 $262 $493 $495 reversed $101 $-1 #
coedge $-1 $376 $496 $262 $379 forward $260 $-1 #
edge $-1 $497 -3.4440839095880449 $381 3.4440839095880449 $262 $498 forward 7 unknown #
edge $-1 $270 -3.4440839095880449 $499 3.4440839095880449 $263 $500 forward 7 unknown #
vertex $-1 $264 $501 #
straight-curve $-1 -42.762535477767265 27.022080358151598 0 0 0 -1 I I #
edge $-1 $387 -27.022080358151598 $381 27.022080358151598 $376 $502 forward 7 unknown #
coedge $-1 $503 $266 $269 $390 reversed $386 $-1 #
coedge $-1 $266 $503 $494 $504 reversed $386 $-1 #
loop $-1 $-1 $266 $373 #
vertex $-1 $267 $505 #
straight-curve $-1 -42.762535477767265 -27.022080358151598 0 0 0 1 I I #
coedge $-1 $269 $268 $506 $507 forward $160 $-1 #
edge $-1 $508 -3.4440839095880449 $271 3.4440839095880449 $384 $509 forward 7 unknown #
point $-1 -42.762535477767265 27.022080358151598 6.4678720936533232 #
point $-1 -42.762535477767265 -27.022080358151598 6.4678720936533232 #
plane-surface $-1 0 0 7.18076303935573 0 0 1 1 0 0 forward_v I I I I #
coedge $-1 $404 $403 $396 $510 forward $274 $-1 #
coedge $-1 $396 $276 $278 $400 reversed $168 $-1 #
coedge $-1 $276 $395 $394 $510 reversed $168 $-1 #
coedge $-1 $284 $279 $276 $398 forward $285 $-1 #
edge $-1 $401 -25.210976595313646 $511 -20.186297981873494 $397 $512 forward 7 unknown #
coedge $-1 $278 $277 $404 $513 reversed $105 $-1 #
edge $-1 $514 0 $401 8.1614310803014263 $395 $515 forward 7 unknown #
vertex $-1 $280 $516 #
straight-curve $-1 -12.993488814850567 -21.99740174471145 7.18076303935573 -1 0 0 I I #
coedge $-1 $394 $281 $284 $408 reversed $274 $-1 #
coedge $-1 $281 $394 $399 $513 forward $274 $-1 #
vertex $-1 $282 $517 #
straight-curve $-1 -16.099587600811091 -27.022080358151598 26.701978987059661 0 0 1 I I #
straight-curve $-1 -16.099587600811091 -27.022080358151598 0.74946751589023819 0 -0.61566146476048833 -0.78801076186113728 I I #
edge $-1 $511 -35.874367658591176 $286 -16.099587600811091 $403 $518 forward 7 unknown #
point $-1 -16.099587600811091 -27.022080358151598 7.18076303935573 #
point $-1 -16.099587600811091 -21.997401744711446 7.18076303935573 #
edge $-1 $519 1 $519 0 $289 $-1 forward 7 unknown #
vertex $-1 $290 $520 #
ellipse-curve $-1 -25.986977629701133 -22.491892881482471 2.3885995495369992 0 -0.78801076186113728 0.61566146476048833 2 0 0 1 I I #
point $-1 -23.986977629701133 -24.509741051431522 3.9651152776229863 #
loop $-1 $-1 $301 $293 #
plane-surface $-1 0 27.022080358151598 0 0 -1 0 0 0 -1 forward_v I I I I #
coedge $-1 $418 $296 $298 $422 reversed $183 $-1 #
coedge $-1 $296 $417 $521 $522 reversed $183 $-1 #
coedge $-1 $304 $299 $296 $420 forward $294 $-1 #
edge $-1 $423 -1.4512411774975007 $523 3.2437442950372031 $419 $524 forward 7 unknown #
coedge $-1 $298 $297 $426 $525 reversed $114 $-1 #
edge $-1 $526 -54.044160716303196 $423 -47.517362780529105 $417 $527 forward 7 unknown #
vertex $-1 $300 $528 #
straight-curve $-1 -5.2547903408148287 22.327094885616894 7.1807630393557318 1 0 0 I I #
coedge $-1 $521 $301 $304 $430 reversed $415 $-1 #
coedge $-1 $301 $521 $421 $525 forward $415 $-1 #
vertex $-1 $302 $529 #
straight-curve $-1 -19.258167144102863 27.022080358151598 50.855342007933928 0 0 1 I I #
straight-curve $-1 -19.258167144102863 -11.854034995077953 40.189097224762342 0 0.71933979245794832 -0.69465837861970381 I I #
edge $-1 $523 1.7609942191564514 $305 19.258167144102863 $425 $530 forward 7 unknown #
point $-1 -19.258167144102863 27.022080358151598 7.18076303935573 #
point $-1 -19.258167144102863 22.327094885616894 7.1807630393557318 #
edge $-1 $531 1 $531 0 $308 $-1 forward 7 unknown #
vertex $-1 $309 $532 #
ellipse-curve $-1 -15.758732559113582 21.954084338252784 2.0966520485257476 0 0.69465837861970381 0.71933979245794832 1 0 0 1 I I #
point $-1 -14.758732559113582 24.674587621884246 4.9138156035341005 #
edge $-1 $533 1 $533 0 $312 $-1 forward 7 unknown #
vertex $-1 $313 $534 #
ellipse-curve $-1 -10.509580681629657 21.954084338252784 2.0966520485257476 0 0.69465837861970381 0.71933979245794832 1 0 0 1 I I #
point $-1 -9.5095806816296573 24.674587621884246 4.9138156035341005 #
edge $-1 $535 1 $535 0 $316 $-1 forward 7 unknown #
vertex $-1 $317 $536 #
ellipse-curve $-1 -5.2604288041457323 21.954084338252784 2.0966520485257476 0 0.69465837861970381 0.71933979245794832 1 0 0 1 I I #
point $-1 -4.2604288041457323 24.674587621884246 4.9138156035341005 #
loop $-1 $-1 $328 $320 #
plane-surface $-1 0 27.022080358151598 0 0 -1 0 0 0 -1 forward_v I I I I #
coedge $-1 $448 $323 $325 $452 reversed $212 $-1 #
coedge $-1 $323 $447 $537 $538 reversed $212 $-1 #
coedge $-1 $331 $326 $323 $450 forward $321 $-1 #
edge $-1 $453 -1.4512411774975007 $539 3.2437442950372031 $449 $540 forward 7 unknown #
coedge $-1 $325 $324 $456 $541 reversed $133 $-1 #
edge $-1 $542 -54.044160716303196 $453 -47.517362780529105 $447 $543 forward 7 unknown #
vertex $-1 $327 $544 #
straight-curve $-1 8.69887425040287 22.327094885616894 7.1807630393557318 1 0 0 I I #
coedge $-1 $537 $328 $331 $460 reversed $445 $-1 #
coedge $-1 $328 $537 $451 $541 forward $445 $-1 #
vertex $-1 $329 $545 #
straight-curve $-1 8.6491620383325341 27.022080358151598 50.855342007933928 0 0 1 I I #
straight-curve $-1 8.6491620383325341 -11.854034995077953 40.189097224762342 0 0.71933979245794832 -0.69465837861970381 I I #
edge $-1 $539 -26.146334963278946 $332 -8.6491620383325341 $455 $546 forward 7 unknown #
point $-1 8.6491620383325341 27.022080358151598 7.18076303935573 #
point $-1 8.6491620383325341 22.327094885616894 7.1807630393557318 #
edge $-1 $547 1 $547 0 $335 $-1 forward 7 unknown #
vertex $-1 $336 $548 #
ellipse-curve $-1 12.148596623321815 21.954084338252784 2.0966520485257476 0 0.69465837861970381 0.71933979245794832 1 0 0 1 I I #
point $-1 13.148596623321815 24.674587621884246 4.9138156035341005 #
edge $-1 $549 1 $549 0 $339 $-1 forward 7 unknown #
vertex $-1 $340 $550 #
ellipse-curve $-1 17.39774850080574 21.954084338252784 2.0966520485257476 0 0.69465837861970381 0.71933979245794832 1 0 0 1 I I #
point $-1 18.39774850080574 24.674587621884246 4.9138156035341005 #
edge $-1 $551 1 $551 0 $343 $-1 forward 7 unknown #
vertex $-1 $344 $552 #
ellipse-curve $-1 22.646900378289665 21.954084338252784 2.0966520485257476 0 0.69465837861970381 0.71933979245794832 1 0 0 1 I I #
point $-1 23.646900378289665 24.674587621884246 4.9138156035341005 #
plane-surface $-1 42.762535477767265 0 0 -1 0 0 0 0 1 forward_v I I I I #
coedge $-1 $350 $485 $353 $479 reversed $241 $-1 #
vertex $-1 $479 $553 #
straight-curve $-1 -42.762535477767265 -27.022080358151598 0 0 0 -1 I I #
edge $-1 $477 -27.022080358151598 $481 27.022080358151598 $476 $554 forward 7 unknown #
straight-curve $-1 0 -27.022080358151598 -7.18076303935573 -1 0 0 I I #
vertex $-1 $356 $555 #
straight-curve $-1 0 27.022080358151598 -7.18076303935573 1 0 0 I I #
point $-1 42.762535477767265 27.022080358151598 -7.18076303935573 #
point $-1 42.762535477767265 -27.022080358151598 -7.18076303935573 #
coedge $-1 $476 $360 $363 $487 forward $241 $-1 #
straight-curve $-1 -42.762535477767265 0 7.18076303935573 0 -1 0 I I #
edge $-1 $364 -7.18076303935573 $481 7.18076303935573 $363 $556 forward 7 unknown #
point $-1 -42.762535477767265 27.022080358151598 7.18076303935573 #
point $-1 -42.762535477767265 -27.022080358151598 7.18076303935573 #
straight-curve $-1 42.762535477767265 -27.022080358151598 0 0 0 -1 I I #
straight-curve $-1 42.762535477767265 27.022080358151598 0 0 0 -1 I I #
plane-surface $-1 0 -27.022080358151598 0 0 1 0 0 0 1 forward_v I I I I #
coedge $-1 $557 $506 $377 $495 forward $374 $-1 #
coedge $-1 $496 $376 $385 $504 forward $260 $-1 #
edge $-1 $499 -1.5 $497 1.5 $377 $558 forward 7 unknown #
coedge $-1 $378 $494 $557 $559 forward $260 $-1 #
vertex $-1 $379 $560 #
straight-curve $-1 -46.20661938735531 27.022080358151598 3.4678720936533232 1 0 0 I I #
vertex $-1 $380 $561 #
straight-curve $-1 -46.20661938735531 27.022080358151598 6.4678720936533232 -1 0 0 I I #
point $-1 -42.762535477767265 27.022080358151598 3.4678720936533232 #
straight-curve $-1 -42.762535477767265 0 3.4678720936533232 0 1 0 I I #
coedge $-1 $385 $384 $562 $563 forward $386 $-1 #
edge $-1 $387 -3.4440839095880449 $564 3.4440839095880449 $385 $565 forward 7 unknown #
point $-1 -42.762535477767265 -27.022080358151598 3.4678720936533232 #
coedge $-1 $493 $562 $389 $507 reversed $374 $-1 #
edge $-1 $499 -27.022080358151598 $508 27.022080358151598 $506 $566 forward 7 unknown #
vertex $-1 $507 $567 #
straight-curve $-1 -46.20661938735531 -27.022080358151598 6.4678720936533232 1 0 0 I I #
edge $-1 $511 19.521215947703929 $514 25.952511471169423 $394 $568 forward 7 unknown #
vertex $-1 $408 $569 #
straight-curve $-1 -35.874367658591176 -47.208378340025092 7.1807630393557282 0 -1 0 I I #
edge $-1 $514 -22.880878843740611 $405 -3.1060987859605245 $404 $570 forward 7 unknown #
vertex $-1 $513 $571 #
straight-curve $-1 -35.874367658591176 -27.022080358151598 0.74946751589023819 0 0.61566146476048833 0.78801076186113728 I I #
point $-1 -35.874367658591176 -21.997401744711446 7.18076303935573 #
point $-1 -16.099587600811091 -27.022080358151598 0.74946751589023819 #
straight-curve $-1 0 -27.022080358151598 7.18076303935573 1 0 0 I I #
vertex $-1 $411 $572 #
point $-1 -23.986977629701133 -22.491892881482471 2.3885995495369992 #
coedge $-1 $426 $425 $418 $522 forward $415 $-1 #
edge $-1 $523 43.674578968578196 $526 48.208473840221458 $521 $573 forward 7 unknown #
vertex $-1 $430 $574 #
straight-curve $-1 -1.7609942191564514 23.778336063114395 7.1807630393557318 0 1 0 I I #
edge $-1 $526 -3.4937961216583773 $427 14.003376803288035 $426 $575 forward 7 unknown #
vertex $-1 $525 $576 #
straight-curve $-1 -1.7609942191564514 -11.854034995077953 40.189097224762342 0 -0.71933979245794832 0.69465837861970381 I I #
point $-1 -1.7609942191564514 22.327094885616894 7.1807630393557318 #
point $-1 -19.258167144102863 27.022080358151598 2.6468681677124692 #
straight-curve $-1 0 27.022080358151598 7.18076303935573 -1 0 0 I I #
vertex $-1 $433 $577 #
point $-1 -14.758732559113582 21.954084338252784 2.0966520485257476 #
vertex $-1 $437 $578 #
point $-1 -9.5095806816296573 21.954084338252784 2.0966520485257476 #
vertex $-1 $441 $579 #
point $-1 -4.2604288041457323 21.954084338252784 2.0966520485257476 #
coedge $-1 $456 $455 $448 $538 forward $445 $-1 #
edge $-1 $539 43.674578968578196 $542 48.208473840221458 $537 $580 forward 7 unknown #
vertex $-1 $460 $581 #
straight-curve $-1 26.146334963278946 23.778336063114395 7.1807630393557318 0 1 0 I I #
edge $-1 $542 -17.447460712876076 $457 0.049712212070335937 $456 $582 forward 7 unknown #
vertex $-1 $541 $583 #
straight-curve $-1 26.146334963278946 -11.854034995077953 40.189097224762342 0 -0.71933979245794832 0.69465837861970381 I I #
point $-1 26.146334963278946 22.327094885616894 7.1807630393557318 #
point $-1 8.6491620383325341 27.022080358151598 2.6468681677124692 #
straight-curve $-1 0 27.022080358151598 7.18076303935573 -1 0 0 I I #
vertex $-1 $463 $584 #
point $-1 13.148596623321815 21.954084338252784 2.0966520485257476 #
vertex $-1 $467 $585 #
point $-1 18.39774850080574 21.954084338252784 2.0966520485257476 #
vertex $-1 $471 $586 #
point $-1 23.646900378289665 21.954084338252784 2.0966520485257476 #
point $-1 -42.762535477767265 -27.022080358151598 -7.18076303935573 #
straight-curve $-1 -42.762535477767265 0 -7.18076303935573 0 1 0 I I #
point $-1 -42.762535477767265 27.022080358151598 -7.18076303935573 #
straight-curve $-1 -42.762535477767265 27.022080358151598 0 0 0 -1 I I #
coedge $-1 $562 $493 $496 $559 reversed $374 $-1 #
straight-curve $-1 -49.650703296943355 27.022080358151598 4.9678720936533232 0 0 -1 I I #
edge $-1 $564 -27.022080358151598 $497 27.022080358151598 $557 $587 forward 7 unknown #
point $-1 -49.650703296943355 27.022080358151598 3.4678720936533232 #
point $-1 -49.650703296943355 27.022080358151598 6.4678720936533232 #
coedge $-1 $506 $557 $503 $563 reversed $374 $-1 #
edge $-1 $508 -1.5 $564 1.5 $562 $588 forward 7 unknown #
vertex $-1 $559 $589 #
straight-curve $-1 -46.20661938735531 -27.022080358151598 3.4678720936533232 -1 0 0 I I #
straight-curve $-1 -49.650703296943355 0 6.4678720936533232 0 -1 0 I I #
point $-1 -49.650703296943355 -27.022080358151598 6.4678720936533232 #
straight-curve $-1 -35.874367658591176 -27.022080358151598 26.701978987059661 0 0 -1 I I #
point $-1 -35.874367658591176 -27.022080358151598 7.18076303935573 #
straight-curve $-1 -12.993488814850567 -27.022080358151598 0.74946751589023919 1 0 0 I I #
point $-1 -35.874367658591176 -27.022080358151598 0.74946751589023819 #
point $-1 -25.986977629701133 -20.915871357760196 1.1572766200160227 #
straight-curve $-1 -1.7609942191564514 27.022080358151598 50.855342007933928 0 0 -1 I I #
point $-1 -1.7609942191564514 27.022080358151598 7.18076303935573 #
straight-curve $-1 -5.2547903408148287 27.022080358151594 2.6468681677124657 -1 0 0 I I #
point $-1 -1.7609942191564514 27.022080358151598 2.6468681677124692 #
point $-1 -15.758732559113582 21.259425959633077 1.3773122560677995 #
point $-1 -10.509580681629657 21.259425959633077 1.3773122560677995 #
point $-1 -5.2604288041457323 21.259425959633077 1.3773122560677995 #
straight-curve $-1 26.146334963278946 27.022080358151598 50.855342007933928 0 0 -1 I I #
point $-1 26.146334963278946 27.022080358151598 7.18076303935573 #
straight-curve $-1 8.69887425040287 27.022080358151594 2.6468681677124657 -1 0 0 I I #
point $-1 26.146334963278946 27.022080358151598 2.6468681677124692 #
point $-1 12.148596623321815 21.259425959633077 1.3773122560677995 #
point $-1 17.39774850080574 21.259425959633077 1.3773122560677995 #
point $-1 22.646900378289665 21.259425959633077 1.3773122560677995 #
straight-curve $-1 -49.650703296943355 0 3.4678720936533232 0 1 0 I I #
straight-curve $-1 -49.650703296943355 -27.022080358151598 4.9678720936533232 0 0 -1 I I #
point $-1 -49.650703296943355 -27.022080358151598 3.4678720936533232 #
End-of-ACIS-data 