500 0 11 0           
7 Unknown 11 ACIS 5.0 NT 24 Fri Mar 26 16:49:36 1999 
-1 9.9999999999999995e-007 1e-010 
body $-1 $11 $-1 $12 #
body $-1 $13 $-1 $14 #
body $-1 $15 $-1 $16 #
body $-1 $17 $-1 $18 #
body $-1 $19 $-1 $20 #
body $-1 $21 $-1 $22 #
body $-1 $23 $-1 $24 #
body $-1 $25 $-1 $26 #
body $-1 $27 $-1 $28 #
body $-1 $29 $-1 $30 #
body $-1 $31 $-1 $32 #
lump $-1 $-1 $33 $0 #
transform $-1 1 0 0 0 1 0 0 0 1 59.946897793511766 36.533634025329583 14.307176280295167 1 rotate no_reflect no_shear #
lump $-1 $-1 $34 $1 #
transform $-1 1 0 0 0 1 0 0 0 1 59.946897793511766 36.533634025329583 14.307176280295167 1 rotate no_reflect no_shear #
lump $-1 $-1 $35 $2 #
transform $-1 1 0 0 0 1 0 0 0 1 59.946897793511766 36.533634025329583 14.307176280295167 1 rotate no_reflect no_shear #
lump $-1 $-1 $36 $3 #
transform $-1 1 0 0 0 1 0 0 0 1 59.946897793511766 36.533634025329583 14.307176280295167 1 rotate no_reflect no_shear #
lump $-1 $-1 $37 $4 #
transform $-1 1 0 0 0 1 0 0 0 1 59.946897793511766 36.533634025329583 14.307176280295167 1 rotate no_reflect no_shear #
lump $-1 $-1 $38 $5 #
transform $-1 1 0 0 0 1 0 0 0 1 59.946897793511766 36.533634025329583 14.307176280295167 1 rotate no_reflect no_shear #
lump $-1 $-1 $39 $6 #
transform $-1 1 0 0 0 1 0 0 0 1 59.946897793511766 36.533634025329583 14.307176280295167 1 rotate no_reflect no_shear #
lump $-1 $-1 $40 $7 #
transform $-1 1 0 0 0 1 0 0 0 1 59.946897793511766 36.533634025329583 14.307176280295167 1 rotate no_reflect no_shear #
lump $-1 $-1 $41 $8 #
transform $-1 1 0 0 0 1 0 0 0 1 59.946897793511766 36.533634025329583 14.307176280295167 1 rotate no_reflect no_shear #
lump $-1 $-1 $42 $9 #
transform $-1 1 0 0 0 1 0 0 0 1 59.946897793511766 36.533634025329583 14.307176280295167 1 rotate no_reflect no_shear #
lump $-1 $-1 $43 $10 #
transform $-1 1 0 0 0 1 0 0 0 1 59.946897793511766 36.533634025329583 14.307176280295167 1 rotate no_reflect no_shear #
shell $-1 $-1 $-1 $44 $-1 $11 #
shell $-1 $-1 $-1 $45 $-1 $13 #
shell $-1 $-1 $-1 $46 $-1 $15 #
shell $-1 $-1 $-1 $47 $-1 $17 #
shell $-1 $-1 $-1 $48 $-1 $19 #
shell $-1 $-1 $-1 $49 $-1 $21 #
shell $-1 $-1 $-1 $50 $-1 $23 #
shell $-1 $-1 $-1 $51 $-1 $25 #
shell $-1 $-1 $-1 $52 $-1 $27 #
shell $-1 $-1 $-1 $53 $-1 $29 #
shell $-1 $-1 $-1 $54 $-1 $31 #
face $-1 $55 $56 $33 $-1 $57 forward single #
face $-1 $58 $59 $34 $-1 $60 reversed single #
face $-1 $61 $62 $35 $-1 $63 reversed single #
face $-1 $64 $65 $36 $-1 $66 forward single #
face $-1 $67 $68 $37 $-1 $69 forward single #
face $-1 $70 $71 $38 $-1 $72 reversed single #
face $-1 $73 $74 $39 $-1 $75 forward single #
face $-1 $76 $77 $40 $-1 $78 forward single #
face $-1 $79 $80 $41 $-1 $81 reversed single #
face $-1 $82 $83 $42 $-1 $84 forward single #
face $-1 $85 $86 $43 $-1 $87 forward single #
face $-1 $88 $89 $33 $-1 $90 reversed single #
loop $-1 $-1 $91 $44 #
plane-surface $-1 0 0 14.307176280295167 0 0 1 1 0 0 forward_v I I I I #
face $-1 $92 $93 $34 $-1 $94 reversed single #
loop $-1 $-1 $95 $45 #
plane-surface $-1 -47.521063094342502 -29.651937686986859 0 1 0 0 0 0 -1 forward_v I I I I #
face $-1 $96 $97 $35 $-1 $98 reversed single #
loop $-1 $-1 $99 $46 #
plane-surface $-1 -133.7608897926757 -13.584755691855953 105.51665003505069 0 1 0 -0.61566148304635926 0 0.78801074757464917 forward_v I I I I #
face $-1 $100 $101 $36 $-1 $102 forward single #
loop $-1 $103 $104 $47 #
cone-surface $-1 -56.943277299603096 -9.9044622653655594 11.505658908368957 0.61566148304635926 0 -0.78801074757464917 0.78801074757464917 0 0.61566148304635926 1 I I 0 1 1 forward I I I I #
face $-1 $105 $106 $37 $-1 $107 forward single #
loop $-1 $108 $109 $48 #
cone-surface $-1 -56.943277299603096 -4.3840221256299685 11.505658908368957 0.61566148304635926 0 -0.78801074757464917 0.78801074757464917 0 0.61566148304635926 1 I I 0 1 1 forward I I I I #
face $-1 $110 $111 $38 $-1 $112 reversed single #
loop $-1 $-1 $113 $49 #
plane-surface $-1 24.694342699358614 6.8816963383427243 167.3537446421077 0 -1 0 -0.54463904215088732 0 -0.83867056331134215 forward_v I I I I #
face $-1 $114 $115 $39 $-1 $116 forward single #
loop $-1 $117 $118 $50 #
cone-surface $-1 49.733159577677483 0.82843334802637258 7.3574932719639063 -0.54463904215088732 0 -0.83867056331134215 0.41933528165567108 0 -0.27231952107544366 1 I I 0 1 0.5 forward I I I I #
face $-1 $119 $120 $40 $-1 $121 forward single #
loop $-1 $122 $123 $51 #
cone-surface $-1 49.733159577677483 4.4603911422161815 7.3574932719639063 -0.54463904215088732 0 -0.83867056331134215 0.41933528165567108 0 -0.27231952107544366 1 I I 0 1 0.5 forward I I I I #
face $-1 $124 $125 $41 $-1 $126 reversed single #
loop $-1 $-1 $127 $52 #
plane-surface $-1 24.694342699358614 15.356264524785619 167.3537446421077 0 -1 0 -0.54463904215088732 0 -0.83867056331134215 forward_v I I I I #
face $-1 $128 $129 $42 $-1 $130 forward single #
loop $-1 $131 $132 $53 #
cone-surface $-1 49.733159577677483 9.3030015344692671 7.3574932719639063 -0.54463904215088732 0 -0.83867056331134215 0.41933528165567108 0 -0.27231952107544366 1 I I 0 1 0.5 forward I I I I #
face $-1 $133 $134 $43 $-1 $135 forward single #
loop $-1 $136 $137 $54 #
cone-surface $-1 49.733159577677483 12.934959328659076 7.3574932719639063 -0.54463904215088732 0 -0.83867056331134215 0.41933528165567108 0 -0.27231952107544366 1 I I 0 1 0.5 forward I I I I #
face $-1 $138 $139 $33 $-1 $140 reversed single #
loop $-1 $-1 $141 $55 #
plane-surface $-1 0 0 -14.307176280295167 0 0 1 1 0 0 forward_v I I I I #
coedge $-1 $142 $143 $144 $145 forward $56 $-1 #
face $-1 $146 $147 $34 $-1 $148 reversed single #
loop $-1 $-1 $149 $58 #
plane-surface $-1 -45.535558693592165 -22.770241348644134 0 0 -1 0 0 0 -1 forward_v I I I I #
coedge $-1 $150 $151 $152 $153 forward $59 $-1 #
face $-1 $154 $155 $35 $-1 $156 reversed single #
loop $-1 $-1 $157 $61 #
plane-surface $-1 -59.946897793511752 -7.144242195497764 11.039050544958101 -0.61566148304635926 0 0.78801074757464917 0.78801074757464917 0 0.61566148304635926 forward_v I I I I #
coedge $-1 $158 $159 $160 $161 reversed $62 $-1 #
face $-1 $-1 $162 $36 $-1 $163 forward single #
loop $-1 $164 $165 $64 #
cone-surface $-1 -55.723331115882416 -9.9044622653655594 9.9441990303239542 0.61566148304635926 0 -0.78801074757464917 0.39400537378732459 0 0.30783074152317963 1 I I -0.70710678118654746 0.70710678118654746 0.5 forward I I I I #
loop $-1 $-1 $166 $47 #
coedge $-1 $104 $104 $167 $168 reversed $65 $-1 #
face $-1 $-1 $169 $37 $-1 $170 forward single #
loop $-1 $171 $172 $67 #
cone-surface $-1 -55.723331115882416 -4.3840221256299685 9.9441990303239542 0.61566148304635926 0 -0.78801074757464917 0.39400537378732459 0 0.30783074152317963 1 I I -0.70710678118654746 0.70710678118654746 0.5 forward I I I I #
loop $-1 $-1 $173 $48 #
coedge $-1 $109 $109 $174 $175 reversed $68 $-1 #
face $-1 $176 $177 $38 $-1 $178 reversed single #
loop $-1 $-1 $179 $70 #
plane-surface $-1 -40.604499288992159 2.6444122451212806 66.80234755960376 0.54463904215088732 0 0.83867056331134215 0.83867056331134215 0 -0.54463904215088732 forward_v I I I I #
coedge $-1 $180 $181 $182 $183 reversed $71 $-1 #
face $-1 $-1 $184 $39 $-1 $185 forward single #
loop $-1 $186 $187 $73 #
cone-surface $-1 49.241223384212773 0.82843334802637258 6.5999779773259064 -0.54463904215088732 0 -0.83867056331134215 0.20966764082783554 0 -0.13615976053772183 1 I I -0.70710678118654746 0.70710678118654746 0.25 forward I I I I #
loop $-1 $-1 $188 $50 #
coedge $-1 $118 $118 $189 $190 reversed $74 $-1 #
face $-1 $-1 $191 $40 $-1 $192 forward single #
loop $-1 $193 $194 $76 #
cone-surface $-1 49.241223384212773 4.4603911422161815 6.5999779773259064 -0.54463904215088732 0 -0.83867056331134215 0.20966764082783554 0 -0.13615976053772183 1 I I -0.70710678118654746 0.70710678118654746 0.25 forward I I I I #
loop $-1 $-1 $195 $51 #
coedge $-1 $123 $123 $196 $197 reversed $77 $-1 #
face $-1 $198 $199 $41 $-1 $200 reversed single #
loop $-1 $-1 $201 $79 #
plane-surface $-1 -40.604499288992159 2.6444122451212806 66.80234755960376 0.54463904215088732 0 0.83867056331134215 0.83867056331134215 0 -0.54463904215088732 forward_v I I I I #
coedge $-1 $202 $203 $204 $205 reversed $80 $-1 #
face $-1 $-1 $206 $42 $-1 $207 forward single #
loop $-1 $208 $209 $82 #
cone-surface $-1 49.241223384212773 9.3030015344692671 6.5999779773259064 -0.54463904215088732 0 -0.83867056331134215 0.20966764082783554 0 -0.13615976053772183 1 I I -0.70710678118654746 0.70710678118654746 0.25 forward I I I I #
loop $-1 $-1 $210 $53 #
coedge $-1 $132 $132 $211 $212 reversed $83 $-1 #
face $-1 $-1 $213 $43 $-1 $214 forward single #
loop $-1 $215 $216 $85 #
cone-surface $-1 49.241223384212773 12.934959328659076 6.5999779773259064 -0.54463904215088732 0 -0.83867056331134215 0.20966764082783554 0 -0.13615976053772183 1 I I -0.70710678118654746 0.70710678118654746 0.25 forward I I I I #
loop $-1 $-1 $217 $54 #
coedge $-1 $137 $137 $218 $219 reversed $86 $-1 #
face $-1 $220 $221 $33 $-1 $222 reversed single #
loop $-1 $-1 $223 $88 #
plane-surface $-1 0 -36.533634025329583 0 0 1 0 0 0 1 forward_v I I I I #
coedge $-1 $224 $225 $226 $227 forward $89 $-1 #
coedge $-1 $228 $91 $229 $230 forward $56 $-1 #
coedge $-1 $91 $228 $231 $232 forward $56 $-1 #
coedge $-1 $233 $234 $91 $145 reversed $235 $-1 #
edge $-1 $236 -36.533634025329583 $237 36.533634025329583 $144 $238 forward 7 unknown #
face $-1 $239 $240 $34 $-1 $241 forward single #
loop $-1 $-1 $242 $92 #
plane-surface $-1 -43.550054292841828 -29.651937686986859 0 -1 0 0 0 0 1 forward_v I I I I #
coedge $-1 $243 $244 $245 $246 forward $93 $-1 #
coedge $-1 $247 $95 $248 $249 reversed $59 $-1 #
coedge $-1 $95 $247 $250 $251 reversed $59 $-1 #
coedge $-1 $244 $243 $95 $153 reversed $93 $-1 #
edge $-1 $252 -14.307176280295167 $253 14.307176280295167 $152 $254 forward 7 unknown #
face $-1 $255 $256 $35 $-1 $257 reversed single #
loop $-1 $-1 $258 $96 #
plane-surface $-1 -133.7608897926757 -0.70372869913957459 105.51665003505069 0 -1 0 0.61566148304635926 0 -0.78801074757464917 forward_v I I I I #
coedge $-1 $259 $260 $261 $262 reversed $97 $-1 #
coedge $-1 $159 $99 $263 $264 reversed $62 $-1 #
coedge $-1 $99 $158 $259 $265 reversed $62 $-1 #
coedge $-1 $261 $266 $99 $161 forward $267 $-1 #
edge $-1 $268 6.9335471028260827 $269 11.116557206248451 $160 $270 forward 7 unknown #
loop $-1 $-1 $167 $100 #
plane-surface $-1 -59.946897793511752 -7.144242195497764 11.039050544958101 -0.61566148304635926 0 0.78801074757464917 0.78801074757464917 0 0.61566148304635926 forward_v I I I I #
loop $-1 $-1 $271 $64 #
coedge $-1 $165 $165 $166 $272 reversed $101 $-1 #
coedge $-1 $166 $166 $165 $272 forward $103 $-1 #
coedge $-1 $167 $167 $104 $168 forward $162 $-1 #
edge $-1 $273 0 $273 6.2831853071796004 $167 $274 forward 7 unknown #
loop $-1 $-1 $174 $105 #
plane-surface $-1 -59.946897793511752 -7.144242195497764 11.039050544958101 -0.61566148304635926 0 0.78801074757464917 0.78801074757464917 0 0.61566148304635926 forward_v I I I I #
loop $-1 $-1 $275 $67 #
coedge $-1 $172 $172 $173 $276 reversed $106 $-1 #
coedge $-1 $173 $173 $172 $276 forward $108 $-1 #
coedge $-1 $174 $174 $109 $175 forward $169 $-1 #
edge $-1 $277 0 $277 6.2831853071796004 $174 $278 forward 7 unknown #
face $-1 $279 $280 $38 $-1 $281 forward single #
loop $-1 $-1 $282 $110 #
plane-surface $-1 24.694342699358614 -1.5928718481001631 167.3537446421077 0 1 0 0.54463904215088732 0 0.83867056331134215 forward_v I I I I #
coedge $-1 $283 $284 $285 $286 reversed $111 $-1 #
coedge $-1 $181 $113 $287 $288 reversed $71 $-1 #
coedge $-1 $113 $180 $283 $289 reversed $71 $-1 #
coedge $-1 $285 $290 $113 $183 forward $280 $-1 #
edge $-1 $291 -47.599726443832459 $292 -27.883802878017924 $182 $293 forward 7 unknown #
loop $-1 $-1 $189 $114 #
plane-surface $-1 -40.604499288992159 2.6444122451212806 66.80234755960376 0.54463904215088732 0 0.83867056331134215 0.83867056331134215 0 -0.54463904215088732 forward_v I I I I #
loop $-1 $-1 $294 $73 #
coedge $-1 $187 $187 $188 $295 reversed $115 $-1 #
coedge $-1 $188 $188 $187 $295 forward $117 $-1 #
coedge $-1 $189 $189 $118 $190 forward $184 $-1 #
edge $-1 $296 0 $296 6.2831853071796004 $189 $297 forward 7 unknown #
loop $-1 $-1 $196 $119 #
plane-surface $-1 -40.604499288992159 2.6444122451212806 66.80234755960376 0.54463904215088732 0 0.83867056331134215 0.83867056331134215 0 -0.54463904215088732 forward_v I I I I #
loop $-1 $-1 $298 $76 #
coedge $-1 $194 $194 $195 $299 reversed $120 $-1 #
coedge $-1 $195 $195 $194 $299 forward $122 $-1 #
coedge $-1 $196 $196 $123 $197 forward $191 $-1 #
edge $-1 $300 0 $300 6.2831853071796004 $196 $301 forward 7 unknown #
face $-1 $302 $303 $41 $-1 $304 forward single #
loop $-1 $-1 $305 $124 #
plane-surface $-1 59.946897793511766 0 0 -1 0 0 0 0 1 forward_v I I I I #
coedge $-1 $306 $307 $308 $309 reversed $125 $-1 #
coedge $-1 $203 $127 $310 $311 reversed $80 $-1 #
coedge $-1 $127 $202 $312 $313 reversed $80 $-1 #
coedge $-1 $314 $305 $127 $205 forward $199 $-1 #
edge $-1 $315 -82.173366749800863 $316 -69.369696040758683 $204 $317 forward 7 unknown #
loop $-1 $-1 $211 $128 #
plane-surface $-1 -40.604499288992159 2.6444122451212806 66.80234755960376 0.54463904215088732 0 0.83867056331134215 0.83867056331134215 0 -0.54463904215088732 forward_v I I I I #
loop $-1 $-1 $318 $82 #
coedge $-1 $209 $209 $210 $319 reversed $129 $-1 #
coedge $-1 $210 $210 $209 $319 forward $131 $-1 #
coedge $-1 $211 $211 $132 $212 forward $206 $-1 #
edge $-1 $320 0 $320 6.2831853071796004 $211 $321 forward 7 unknown #
loop $-1 $-1 $218 $133 #
plane-surface $-1 -40.604499288992159 2.6444122451212806 66.80234755960376 0.54463904215088732 0 0.83867056331134215 0.83867056331134215 0 -0.54463904215088732 forward_v I I I I #
loop $-1 $-1 $322 $85 #
coedge $-1 $216 $216 $217 $323 reversed $134 $-1 #
coedge $-1 $217 $217 $216 $323 forward $136 $-1 #
coedge $-1 $218 $218 $137 $219 forward $213 $-1 #
edge $-1 $324 0 $324 6.2831853071796004 $218 $325 forward 7 unknown #
face $-1 $326 $327 $33 $-1 $328 reversed single #
loop $-1 $-1 $329 $138 #
plane-surface $-1 -59.946897793511766 0 0 1 0 0 0 0 -1 forward_v I I I I #
coedge $-1 $330 $231 $331 $332 forward $139 $-1 #
coedge $-1 $333 $141 $330 $334 forward $89 $-1 #
coedge $-1 $141 $333 $335 $336 forward $89 $-1 #
coedge $-1 $234 $233 $141 $227 reversed $235 $-1 #
edge $-1 $337 -36.533634025329583 $338 36.533634025329583 $226 $339 forward 7 unknown #
coedge $-1 $143 $142 $340 $341 forward $56 $-1 #
coedge $-1 $342 $343 $142 $230 reversed $327 $-1 #
edge $-1 $237 -59.946897793511766 $344 59.946897793511766 $229 $345 forward 7 unknown #
coedge $-1 $223 $346 $143 $232 reversed $139 $-1 #
edge $-1 $347 -59.946897793511766 $236 59.946897793511766 $231 $348 forward 7 unknown #
coedge $-1 $226 $144 $346 $349 forward $235 $-1 #
coedge $-1 $144 $226 $342 $350 reversed $235 $-1 #
loop $-1 $-1 $233 $326 #
vertex $-1 $145 $351 #
vertex $-1 $145 $352 #
straight-curve $-1 59.946897793511766 0 14.307176280295167 0 1 0 I I #
face $-1 $353 $354 $34 $-1 $355 reversed single #
loop $-1 $-1 $356 $146 #
plane-surface $-1 0 0 14.307176280295167 0 0 1 1 0 0 forward_v I I I I #
coedge $-1 $357 $358 $359 $360 reversed $147 $-1 #
coedge $-1 $152 $149 $361 $362 reversed $93 $-1 #
coedge $-1 $149 $152 $363 $364 reversed $93 $-1 #
coedge $-1 $358 $357 $149 $246 reversed $147 $-1 #
edge $-1 $365 -14.307176280295167 $366 14.307176280295167 $245 $367 forward 7 unknown #
coedge $-1 $151 $150 $368 $369 reversed $59 $-1 #
coedge $-1 $361 $370 $150 $249 forward $354 $-1 #
edge $-1 $371 -21.707665181836155 $253 -7.944272505150705 $248 $372 forward 7 unknown #
coedge $-1 $373 $363 $151 $251 forward $240 $-1 #
edge $-1 $252 7.944272505150705 $374 21.707665181836155 $250 $375 forward 7 unknown #
vertex $-1 $251 $376 #
vertex $-1 $249 $377 #
straight-curve $-1 -47.521063094342502 -22.770241348644134 0 0 0 -1 I I #
face $-1 $-1 $267 $35 $-1 $378 forward single #
loop $-1 $-1 $379 $154 #
plane-surface $-1 -59.946897793511766 0 0 1 0 0 0 0 -1 forward_v I I I I #
coedge $-1 $380 $381 $382 $383 reversed $155 $-1 #
coedge $-1 $384 $157 $159 $265 forward $97 $-1 #
coedge $-1 $157 $384 $380 $385 forward $97 $-1 #
coedge $-1 $382 $160 $157 $262 forward $267 $-1 #
edge $-1 $269 -10.012634594107071 $386 2.8683923986093074 $261 $387 forward 7 unknown #
coedge $-1 $388 $389 $158 $264 forward $256 $-1 #
edge $-1 $390 -41.71927447256725 $268 -38.451148737230177 $263 $391 forward 7 unknown #
edge $-1 $269 -5.3083160557097511 $390 1.7760113164789269e-014 $159 $392 forward 7 unknown #
coedge $-1 $160 $382 $388 $393 forward $267 $-1 #
loop $-1 $-1 $382 $255 #
vertex $-1 $264 $394 #
vertex $-1 $161 $395 #
straight-curve $-1 -66.880444896337849 -13.584755691855953 14.307176280295167 1 0 0 I I #
coedge $-1 $271 $271 $-1 $396 reversed $164 $-1 #
edge $-1 $397 0 $397 6.2831853071796004 $165 $398 forward 7 unknown #
vertex $-1 $168 $399 #
ellipse-curve $-1 -57.855392741800586 -9.9044622653655594 12.673113412626623 -0.61566148304635926 0 0.78801074757464917 0.78801074757464917 0 0.61566148304635926 1 I I #
coedge $-1 $275 $275 $-1 $400 reversed $171 $-1 #
edge $-1 $401 0 $401 6.2831853071796004 $172 $402 forward 7 unknown #
vertex $-1 $175 $403 #
ellipse-curve $-1 -57.855392741800586 -4.3840221256299685 12.673113412626623 -0.61566148304635926 0 0.78801074757464917 0.78801074757464917 0 0.61566148304635926 1 I I #
face $-1 $-1 $404 $38 $-1 $405 reversed single #
loop $-1 $-1 $182 $176 #
plane-surface $-1 0 0 14.307176280295167 0 0 1 1 0 0 forward_v I I I I #
coedge $-1 $406 $407 $408 $409 reversed $177 $-1 #
coedge $-1 $410 $179 $181 $289 forward $111 $-1 #
coedge $-1 $179 $410 $406 $411 forward $111 $-1 #
coedge $-1 $408 $182 $179 $286 forward $280 $-1 #
edge $-1 $292 -5.559490215782084 $412 2.9150779706608034 $285 $413 forward 7 unknown #
coedge $-1 $414 $415 $180 $288 forward $404 $-1 #
edge $-1 $416 -82.173366749800863 $291 -69.369696040758683 $287 $417 forward 7 unknown #
edge $-1 $292 96.385251912890368 $416 119.89379558702352 $181 $418 forward 7 unknown #
coedge $-1 $182 $408 $414 $419 forward $280 $-1 #
vertex $-1 $288 $420 #
vertex $-1 $183 $421 #
straight-curve $-1 12.347171349679307 6.8816963383427243 14.307176280295167 -1 0 0 I I #
coedge $-1 $294 $294 $-1 $422 reversed $186 $-1 #
edge $-1 $423 0 $423 6.2831853071796004 $187 $424 forward 7 unknown #
vertex $-1 $190 $425 #
ellipse-curve $-1 50.088936010604485 0.82843334802637258 7.9053409257740901 0.54463904215088732 0 0.83867056331134215 0.41933528165567108 0 -0.27231952107544366 1 I I #
coedge $-1 $298 $298 $-1 $426 reversed $193 $-1 #
edge $-1 $427 0 $427 6.2831853071796004 $194 $428 forward 7 unknown #
vertex $-1 $197 $429 #
ellipse-curve $-1 50.088936010604485 4.4603911422161815 7.9053409257740901 0.54463904215088732 0 0.83867056331134215 0.41933528165567108 0 -0.27231952107544366 1 I I #
face $-1 $-1 $430 $41 $-1 $431 forward single #
loop $-1 $-1 $432 $198 #
plane-surface $-1 24.694342699358614 6.8816963383427243 167.3537446421077 0 -1 0 -0.54463904215088732 0 -0.83867056331134215 forward_v I I I I #
coedge $-1 $204 $433 $307 $434 forward $199 $-1 #
coedge $-1 $310 $201 $435 $436 reversed $125 $-1 #
coedge $-1 $201 $310 $305 $434 reversed $125 $-1 #
coedge $-1 $437 $432 $201 $309 forward $303 $-1 #
edge $-1 $438 96.385251912890368 $439 119.89379558702352 $308 $440 forward 7 unknown #
coedge $-1 $307 $306 $202 $311 forward $125 $-1 #
edge $-1 $441 96.385251912890368 $315 119.89379558702352 $202 $442 forward 7 unknown #
coedge $-1 $435 $443 $203 $313 forward $430 $-1 #
edge $-1 $316 -47.599726443832459 $441 -27.883802878017924 $312 $444 forward 7 unknown #
coedge $-1 $433 $204 $443 $445 reversed $199 $-1 #
vertex $-1 $205 $446 #
vertex $-1 $205 $447 #
straight-curve $-1 59.946897793511766 15.356264524785619 83.67687232105385 0 0 1 I I #
coedge $-1 $318 $318 $-1 $448 reversed $208 $-1 #
edge $-1 $449 0 $449 6.2831853071796004 $209 $450 forward 7 unknown #
vertex $-1 $212 $451 #
ellipse-curve $-1 50.088936010604485 9.3030015344692671 7.9053409257740901 0.54463904215088732 0 0.83867056331134215 0.41933528165567108 0 -0.27231952107544366 1 I I #
coedge $-1 $322 $322 $-1 $452 reversed $215 $-1 #
edge $-1 $453 0 $453 6.2831853071796004 $216 $454 forward 7 unknown #
vertex $-1 $219 $455 #
ellipse-curve $-1 50.088936010604485 12.934959328659076 7.9053409257740901 0.54463904215088732 0 0.83867056331134215 0.41933528165567108 0 -0.27231952107544366 1 I I #
face $-1 $-1 $235 $33 $-1 $456 reversed single #
loop $-1 $-1 $342 $220 #
plane-surface $-1 0 36.533634025329583 0 0 -1 0 0 0 -1 forward_v I I I I #
coedge $-1 $457 $340 $343 $458 forward $221 $-1 #
coedge $-1 $346 $223 $224 $334 reversed $139 $-1 #
coedge $-1 $340 $457 $223 $332 reversed $221 $-1 #
edge $-1 $347 -14.307176280295167 $459 14.307176280295167 $331 $460 forward 7 unknown #
coedge $-1 $225 $224 $457 $461 forward $89 $-1 #
edge $-1 $338 -59.946897793511766 $459 59.946897793511766 $330 $462 forward 7 unknown #
coedge $-1 $343 $342 $225 $336 reversed $327 $-1 #
edge $-1 $463 -59.946897793511766 $337 59.946897793511766 $335 $464 forward 7 unknown #
vertex $-1 $227 $465 #
vertex $-1 $349 $466 #
straight-curve $-1 59.946897793511766 0 -14.307176280295167 0 -1 0 I I #
coedge $-1 $329 $331 $228 $341 reversed $221 $-1 #
edge $-1 $344 -36.533634025329583 $347 36.533634025329583 $340 $467 forward 7 unknown #
coedge $-1 $335 $229 $234 $350 forward $327 $-1 #
coedge $-1 $229 $335 $329 $458 reversed $327 $-1 #
vertex $-1 $230 $468 #
straight-curve $-1 0 36.533634025329583 14.307176280295167 -1 0 0 I I #
coedge $-1 $231 $330 $233 $349 reversed $139 $-1 #
vertex $-1 $341 $469 #
straight-curve $-1 0 -36.533634025329583 14.307176280295167 1 0 0 I I #
edge $-1 $236 -14.307176280295167 $338 14.307176280295167 $233 $470 forward 7 unknown #
edge $-1 $237 -14.307176280295167 $337 14.307176280295167 $234 $471 forward 7 unknown #
point $-1 59.946897793511766 -36.533634025329583 14.307176280295167 #
point $-1 59.946897793511766 36.533634025329583 14.307176280295167 #
face $-1 $-1 $472 $34 $-1 $473 reversed single #
loop $-1 $-1 $474 $239 #
plane-surface $-1 0 0 -14.307176280295167 0 0 1 1 0 0 forward_v I I I I #
coedge $-1 $363 $373 $358 $475 forward $240 $-1 #
coedge $-1 $245 $242 $474 $476 reversed $147 $-1 #
coedge $-1 $242 $245 $356 $475 reversed $147 $-1 #
coedge $-1 $477 $478 $242 $360 forward $472 $-1 #
edge $-1 $479 -14.307176280295167 $480 14.307176280295167 $359 $481 forward 7 unknown #
coedge $-1 $474 $248 $243 $362 forward $354 $-1 #
edge $-1 $253 -24.753283747546419 $366 -20.782274946045746 $361 $482 forward 7 unknown #
coedge $-1 $250 $356 $244 $364 forward $240 $-1 #
edge $-1 $365 20.782274946045746 $252 24.753283747546419 $363 $483 forward 7 unknown #
vertex $-1 $364 $484 #
vertex $-1 $362 $485 #
straight-curve $-1 -43.550054292841828 -22.770241348644134 0 0 0 -1 I I #
coedge $-1 $478 $477 $247 $369 forward $472 $-1 #
edge $-1 $374 -14.307176280295167 $371 14.307176280295167 $368 $486 forward 7 unknown #
coedge $-1 $248 $474 $478 $487 forward $354 $-1 #
vertex $-1 $249 $488 #
straight-curve $-1 -47.521063094342502 -14.825968843493429 -14.307176280295167 0 1 0 I I #
coedge $-1 $356 $250 $477 $489 forward $240 $-1 #
vertex $-1 $489 $490 #
straight-curve $-1 -47.521063094342502 -14.825968843493429 14.307176280295167 0 -1 0 I I #
point $-1 -47.521063094342502 -22.770241348644134 14.307176280295167 #
point $-1 -47.521063094342502 -22.770241348644134 -14.307176280295167 #
plane-surface $-1 0 0 14.307176280295167 0 0 1 1 0 0 forward_v I I I I #
coedge $-1 $389 $388 $381 $491 forward $256 $-1 #
coedge $-1 $381 $258 $260 $385 reversed $155 $-1 #
coedge $-1 $258 $380 $379 $491 reversed $155 $-1 #
coedge $-1 $266 $261 $258 $383 forward $267 $-1 #
edge $-1 $386 -11.116557206248451 $492 -6.9335471028260827 $382 $493 forward 7 unknown #
coedge $-1 $260 $259 $389 $494 reversed $97 $-1 #
edge $-1 $495 -1.7760113164789269e-014 $386 5.3083160557097511 $380 $496 forward 7 unknown #
vertex $-1 $262 $497 #
straight-curve $-1 -55.763887690089398 -3.572121097748882 14.307176280295167 0 1 0 I I #
coedge $-1 $379 $263 $266 $393 reversed $256 $-1 #
coedge $-1 $263 $379 $384 $494 forward $256 $-1 #
vertex $-1 $264 $498 #
straight-curve $-1 -59.946897793511766 -13.584755691855953 52.758325017525344 0 0 1 I I #
straight-curve $-1 -59.946897793511752 -13.584755691855953 11.039050544958101 -0.78801074757464917 0 -0.61566148304635926 I I #
edge $-1 $492 0.70372869913957459 $268 13.584755691855953 $388 $499 forward 7 unknown #
point $-1 -59.946897793511766 -13.584755691855953 14.307176280295167 #
point $-1 -55.763887690089398 -13.584755691855953 14.307176280295167 #
edge $-1 $500 1 $500 0 $271 $-1 forward 7 unknown #
vertex $-1 $272 $501 #
ellipse-curve $-1 -56.031161857405593 -9.9044622653655594 10.338204404111279 -0.61566148304635926 0 0.78801074757464917 0.78801074757464917 0 0.61566148304635926 1 I I #
point $-1 -57.067381994225947 -9.9044622653655594 13.288774895672995 #
edge $-1 $502 1 $502 0 $275 $-1 forward 7 unknown #
vertex $-1 $276 $503 #
ellipse-curve $-1 -56.031161857405593 -4.3840221256299685 10.338204404111279 -0.61566148304635926 0 0.78801074757464917 0.78801074757464917 0 0.61566148304635926 1 I I #
point $-1 -57.067381994225947 -4.3840221256299685 13.288774895672995 #
loop $-1 $-1 $287 $279 #
plane-surface $-1 59.946897793511766 0 0 -1 0 0 0 0 1 forward_v I I I I #
coedge $-1 $407 $282 $284 $411 reversed $177 $-1 #
coedge $-1 $282 $406 $504 $505 reversed $177 $-1 #
coedge $-1 $290 $285 $282 $409 forward $280 $-1 #
edge $-1 $412 27.883802878017924 $506 47.599726443832459 $408 $507 forward 7 unknown #
coedge $-1 $284 $283 $415 $508 reversed $111 $-1 #
edge $-1 $509 -119.89379558702352 $412 -96.385251912890368 $406 $510 forward 7 unknown #
vertex $-1 $286 $511 #
straight-curve $-1 40.230974227697224 1.3222061225606403 14.30717628029516 0 -1 0 I I #
coedge $-1 $504 $287 $290 $419 reversed $404 $-1 #
coedge $-1 $287 $504 $410 $508 forward $404 $-1 #
vertex $-1 $288 $512 #
straight-curve $-1 59.946897793511766 6.8816963383427243 83.67687232105385 0 0 1 I I #
straight-curve $-1 -40.604499288992159 6.8816963383427243 66.80234755960376 0.83867056331134215 0 -0.54463904215088732 I I #
edge $-1 $506 -1.5928718481001631 $291 6.8816963383427243 $414 $513 forward 7 unknown #
point $-1 59.946897793511766 6.8816963383427243 14.307176280295167 #
point $-1 40.230974227697232 6.8816963383427243 14.307176280295167 #
edge $-1 $514 1 $514 0 $294 $-1 forward 7 unknown #
vertex $-1 $295 $515 #
ellipse-curve $-1 49.377383144750496 0.82843334802637258 6.8096456181537421 0.54463904215088732 0 0.83867056331134215 0.41933528165567108 0 -0.27231952107544366 1 I I #
point $-1 50.508271292260147 0.82843334802637258 7.633021404698626 #
edge $-1 $516 1 $516 0 $298 $-1 forward 7 unknown #
vertex $-1 $299 $517 #
ellipse-curve $-1 49.377383144750496 4.4603911422161815 6.8096456181537421 0.54463904215088732 0 0.83867056331134215 0.41933528165567108 0 -0.27231952107544366 1 I I #
point $-1 50.508271292260147 4.4603911422161815 7.633021404698626 #
loop $-1 $-1 $435 $302 #
plane-surface $-1 0 0 14.307176280295167 0 0 1 1 0 0 forward_v I I I I #
coedge $-1 $308 $437 $518 $519 reversed $303 $-1 #
coedge $-1 $305 $314 $437 $520 forward $199 $-1 #
edge $-1 $439 5.559490215782084 $315 14.034058402224979 $305 $521 forward 7 unknown #
coedge $-1 $518 $312 $306 $436 forward $430 $-1 #
edge $-1 $441 -14.034058402224979 $438 -5.559490215782084 $435 $522 forward 7 unknown #
coedge $-1 $432 $308 $433 $520 reversed $303 $-1 #
vertex $-1 $436 $523 #
vertex $-1 $434 $524 #
straight-curve $-1 -40.604499288992159 6.8816963383427243 66.80234755960376 0.83867056331134215 0 -0.54463904215088732 I I #
vertex $-1 $313 $525 #
straight-curve $-1 -40.604499288992159 15.356264524785619 66.80234755960376 0.83867056331134215 0 -0.54463904215088732 I I #
coedge $-1 $312 $518 $314 $445 forward $430 $-1 #
straight-curve $-1 12.347171349679307 15.356264524785619 14.307176280295167 -1 0 0 I I #
edge $-1 $526 6.8816963383427243 $316 15.356264524785619 $314 $527 forward 7 unknown #
point $-1 59.946897793511766 15.356264524785619 1.5035055712529868 #
point $-1 59.946897793511766 15.356264524785619 14.307176280295167 #
edge $-1 $528 1 $528 0 $318 $-1 forward 7 unknown #
vertex $-1 $319 $529 #
ellipse-curve $-1 49.377383144750496 9.3030015344692671 6.8096456181537421 0.54463904215088732 0 0.83867056331134215 0.41933528165567108 0 -0.27231952107544366 1 I I #
point $-1 50.508271292260147 9.3030015344692671 7.633021404698626 #
edge $-1 $530 1 $530 0 $322 $-1 forward 7 unknown #
vertex $-1 $323 $531 #
ellipse-curve $-1 49.377383144750496 12.934959328659076 6.8096456181537421 0.54463904215088732 0 0.83867056331134215 0.41933528165567108 0 -0.27231952107544366 1 I I #
point $-1 50.508271292260147 12.934959328659076 7.633021404698626 #
plane-surface $-1 59.946897793511766 0 0 -1 0 0 0 0 1 forward_v I I I I #
coedge $-1 $331 $329 $333 $461 reversed $221 $-1 #
edge $-1 $344 -14.307176280295167 $463 14.307176280295167 $343 $532 forward 7 unknown #
vertex $-1 $461 $533 #
straight-curve $-1 -59.946897793511766 -36.533634025329583 0 0 0 -1 I I #
edge $-1 $459 -36.533634025329583 $463 36.533634025329583 $457 $534 forward 7 unknown #
straight-curve $-1 0 -36.533634025329583 -14.307176280295167 -1 0 0 I I #
vertex $-1 $336 $535 #
straight-curve $-1 0 36.533634025329583 -14.307176280295167 1 0 0 I I #
point $-1 59.946897793511766 36.533634025329583 -14.307176280295167 #
point $-1 59.946897793511766 -36.533634025329583 -14.307176280295167 #
straight-curve $-1 -59.946897793511766 0 14.307176280295167 0 -1 0 I I #
point $-1 -59.946897793511766 36.533634025329583 14.307176280295167 #
point $-1 -59.946897793511766 -36.533634025329583 14.307176280295167 #
straight-curve $-1 59.946897793511766 -36.533634025329583 0 0 0 -1 I I #
straight-curve $-1 59.946897793511766 36.533634025329583 0 0 0 -1 I I #
loop $-1 $-1 $359 $353 #
plane-surface $-1 0 -36.533634025329583 0 0 1 0 0 0 1 forward_v I I I I #
coedge $-1 $370 $361 $357 $476 forward $354 $-1 #
edge $-1 $480 -21.707665181836155 $365 -7.944272505150705 $356 $536 forward 7 unknown #
edge $-1 $366 7.944272505150705 $479 21.707665181836155 $474 $537 forward 7 unknown #
coedge $-1 $368 $359 $373 $489 reversed $472 $-1 #
coedge $-1 $359 $368 $370 $487 reversed $472 $-1 #
vertex $-1 $487 $538 #
vertex $-1 $360 $539 #
straight-curve $-1 -43.550054292841828 -36.533634025329583 0 0 0 1 I I #
straight-curve $-1 -22.767779346796083 -22.770241348644134 -14.307176280295167 1 0 0 I I #
straight-curve $-1 -22.767779346796083 -22.770241348644134 14.307176280295167 -1 0 0 I I #
point $-1 -43.550054292841828 -22.770241348644134 14.307176280295167 #
point $-1 -43.550054292841828 -22.770241348644134 -14.307176280295167 #
straight-curve $-1 -47.521063094342502 -36.533634025329583 0 0 0 -1 I I #
edge $-1 $479 43.550054292841828 $371 47.521063094342502 $478 $540 forward 7 unknown #
point $-1 -47.521063094342502 -36.533634025329583 -14.307176280295167 #
edge $-1 $374 -47.521063094342502 $480 -43.550054292841828 $477 $541 forward 7 unknown #
point $-1 -47.521063094342502 -36.533634025329583 14.307176280295167 #
edge $-1 $492 38.451148737230177 $495 41.71927447256725 $379 $542 forward 7 unknown #
vertex $-1 $393 $543 #
straight-curve $-1 -66.880444896337849 -0.70372869913957459 14.307176280295167 -1 0 0 I I #
edge $-1 $495 -2.8683923986093074 $390 10.012634594107071 $389 $544 forward 7 unknown #
vertex $-1 $494 $545 #
straight-curve $-1 -59.946897793511752 -0.70372869913957459 11.039050544958101 0.78801074757464917 0 0.61566148304635926 I I #
point $-1 -55.763887690089398 -0.70372869913957459 14.307176280295167 #
point $-1 -59.946897793511766 -13.584755691855953 11.039050544958091 #
straight-curve $-1 -59.946897793511766 0 14.307176280295167 0 -1 0 I I #
vertex $-1 $396 $546 #
point $-1 -55.243151109830947 -9.9044622653655594 10.953865887157638 #
vertex $-1 $400 $547 #
point $-1 -55.243151109830947 -4.3840221256299685 10.953865887157638 #
coedge $-1 $415 $414 $407 $505 forward $404 $-1 #
edge $-1 $506 69.369696040758683 $509 82.173366749800863 $504 $548 forward 7 unknown #
vertex $-1 $419 $549 #
straight-curve $-1 12.347171349679307 -1.5928718481001631 14.307176280295167 1 0 0 I I #
edge $-1 $509 -2.9150779706608034 $416 5.559490215782084 $415 $550 forward 7 unknown #
vertex $-1 $508 $551 #
straight-curve $-1 -40.604499288992159 -1.5928718481001631 66.80234755960376 -0.83867056331134215 0 0.54463904215088732 I I #
point $-1 40.230974227697232 -1.5928718481001631 14.307176280295167 #
point $-1 59.946897793511766 6.8816963383427243 1.5035055712529868 #
straight-curve $-1 59.946897793511766 0 14.307176280295167 0 1 0 I I #
vertex $-1 $422 $552 #
point $-1 49.796718426406166 0.82843334802637258 6.5373260970782985 #
vertex $-1 $426 $553 #
point $-1 49.796718426406166 4.4603911422161815 6.5373260970782985 #
coedge $-1 $443 $435 $432 $519 forward $430 $-1 #
edge $-1 $438 27.883802878017924 $526 47.599726443832459 $518 $554 forward 7 unknown #
edge $-1 $526 69.369696040758683 $439 82.173366749800863 $433 $555 forward 7 unknown #
straight-curve $-1 59.946897793511766 1.3222061225606403 1.5035055712529939 0 1 0 I I #
straight-curve $-1 40.230974227697224 1.3222061225606403 14.30717628029516 0 -1 0 I I #
point $-1 40.230974227697232 6.8816963383427243 14.307176280295167 #
point $-1 59.946897793511766 6.8816963383427243 1.5035055712529868 #
point $-1 40.230974227697232 15.356264524785619 14.307176280295167 #
vertex $-1 $445 $556 #
straight-curve $-1 59.946897793511766 0 14.307176280295167 0 1 0 I I #
vertex $-1 $448 $557 #
point $-1 49.796718426406166 9.3030015344692671 6.5373260970782985 #
vertex $-1 $452 $558 #
point $-1 49.796718426406166 12.934959328659076 6.5373260970782985 #
straight-curve $-1 -59.946897793511766 36.533634025329583 0 0 0 -1 I I #
point $-1 -59.946897793511766 -36.533634025329583 -14.307176280295167 #
straight-curve $-1 -59.946897793511766 0 -14.307176280295167 0 1 0 I I #
point $-1 -59.946897793511766 36.533634025329583 -14.307176280295167 #
straight-curve $-1 -43.550054292841828 -14.825968843493429 14.307176280295167 0 1 0 I I #
straight-curve $-1 -43.550054292841828 -14.825968843493429 -14.307176280295167 0 -1 0 I I #
point $-1 -43.550054292841828 -36.533634025329583 -14.307176280295167 #
point $-1 -43.550054292841828 -36.533634025329583 14.307176280295167 #
straight-curve $-1 0 -36.533634025329583 -14.307176280295167 -1 0 0 I I #
straight-curve $-1 0 -36.533634025329583 14.307176280295167 1 0 0 I I #
straight-curve $-1 -59.946897793511766 -0.70372869913957459 52.758325017525344 0 0 -1 I I #
point $-1 -59.946897793511766 -0.70372869913957459 14.307176280295167 #
straight-curve $-1 -59.946897793511766 -3.572121097748882 11.039050544958087 0 -1 0 I I #
point $-1 -59.946897793511766 -0.70372869913957459 11.039050544958091 #
point $-1 -55.41550037435924 -9.9044622653655594 9.5501936565366297 #
point $-1 -55.41550037435924 -4.3840221256299685 9.5501936565366297 #
straight-curve $-1 59.946897793511766 -1.5928718481001631 83.67687232105385 0 0 -1 I I #
point $-1 59.946897793511766 -1.5928718481001631 14.307176280295167 #
straight-curve $-1 59.946897793511766 1.3222061225606403 1.5035055712529939 0 1 0 I I #
point $-1 59.946897793511766 -1.5928718481001631 1.5035055712529868 #
point $-1 49.105063623675051 0.82843334802637258 6.3903103364980707 #
point $-1 49.105063623675051 4.4603911422161815 6.3903103364980707 #
straight-curve $-1 12.347171349679307 6.8816963383427243 14.307176280295167 1 0 0 I I #
straight-curve $-1 59.946897793511766 6.8816963383427243 83.67687232105385 0 0 -1 I I #
point $-1 59.946897793511766 6.8816963383427243 14.307176280295167 #
point $-1 49.105063623675051 9.3030015344692671 6.3903103364980707 #
point $-1 49.105063623675051 12.934959328659076 6.3903103364980707 #
End-of-ACIS-data 