500 0 3 0           
7 Unknown 11 ACIS 5.0 NT 24 Fri Mar 26 17:25:09 1999 
-1 9.9999999999999995e-007 1e-010 
body $-1 $3 $-1 $4 #
body $-1 $5 $-1 $6 #
body $-1 $7 $-1 $8 #
lump $-1 $-1 $9 $0 #
transform $-1 1 0 0 0 1 0 0 0 1 78.4850611896115 47.212715265615778 22.29661434912477 1 rotate no_reflect no_shear #
lump $-1 $-1 $10 $1 #
transform $-1 1 0 0 0 1 0 0 0 1 78.4850611896115 47.212715265615778 22.29661434912477 1 rotate no_reflect no_shear #
lump $-1 $-1 $11 $2 #
transform $-1 1 0 0 0 1 0 0 0 1 78.4850611896115 47.212715265615778 22.29661434912477 1 rotate no_reflect no_shear #
shell $-1 $-1 $-1 $12 $-1 $3 #
shell $-1 $-1 $-1 $13 $-1 $5 #
shell $-1 $-1 $-1 $14 $-1 $7 #
face $-1 $15 $16 $9 $-1 $17 forward single #
face $-1 $18 $19 $10 $-1 $20 reversed single #
face $-1 $21 $22 $11 $-1 $23 forward single #
face $-1 $24 $25 $9 $-1 $26 reversed single #
loop $-1 $-1 $27 $12 #
plane-surface $-1 0 0 22.29661434912477 0 0 1 1 0 0 forward_v I I I I #
face $-1 $28 $29 $10 $-1 $30 reversed single #
loop $-1 $-1 $31 $13 #
plane-surface $-1 -38.858573962833148 -71.190336606167222 0 0 1 0 0 0 1 forward_v I I I I #
face $-1 $32 $33 $11 $-1 $34 forward single #
loop $-1 $-1 $35 $14 #
plane-surface $-1 -72.864126016084924 25.600071523478711 0 0 1 0 0 0 1 forward_v I I I I #
face $-1 $36 $37 $9 $-1 $38 reversed single #
loop $-1 $-1 $39 $15 #
plane-surface $-1 0 0 -22.29661434912477 0 0 1 1 0 0 forward_v I I I I #
coedge $-1 $40 $41 $42 $43 forward $16 $-1 #
face $-1 $44 $45 $10 $-1 $46 reversed single #
loop $-1 $-1 $47 $18 #
plane-surface $-1 -43.825315434304343 -59.201525935891503 0 1 0 0 0 0 -1 forward_v I I I I #
coedge $-1 $48 $49 $50 $51 forward $19 $-1 #
face $-1 $52 $53 $11 $-1 $54 forward single #
loop $-1 $-1 $55 $21 #
plane-surface $-1 -67.243190842558349 36.406393394547244 0 -1 0 0 0 0 1 forward_v I I I I #
coedge $-1 $56 $57 $58 $59 reversed $22 $-1 #
face $-1 $60 $61 $9 $-1 $62 reversed single #
loop $-1 $-1 $63 $24 #
plane-surface $-1 0 -47.212715265615778 0 0 1 0 0 0 1 forward_v I I I I #
coedge $-1 $64 $65 $66 $67 forward $25 $-1 #
coedge $-1 $68 $27 $69 $70 forward $16 $-1 #
coedge $-1 $27 $68 $71 $72 forward $16 $-1 #
coedge $-1 $73 $74 $27 $43 reversed $75 $-1 #
edge $-1 $76 -47.212715265615778 $77 47.212715265615778 $42 $78 forward 7 unknown #
face $-1 $79 $80 $10 $-1 $81 reversed single #
loop $-1 $-1 $82 $28 #
plane-surface $-1 -33.891832491361953 -59.201525935891503 0 -1 0 0 0 0 1 forward_v I I I I #
coedge $-1 $83 $84 $85 $86 reversed $29 $-1 #
coedge $-1 $87 $31 $88 $89 reversed $19 $-1 #
coedge $-1 $31 $87 $90 $91 reversed $19 $-1 #
coedge $-1 $84 $83 $31 $51 reversed $29 $-1 #
edge $-1 $92 -22.29661434912477 $93 22.29661434912477 $50 $94 forward 7 unknown #
face $-1 $95 $96 $11 $-1 $97 reversed single #
loop $-1 $-1 $98 $32 #
plane-surface $-1 0 0 22.29661434912477 0 0 1 1 0 0 forward_v I I I I #
coedge $-1 $99 $100 $101 $102 reversed $33 $-1 #
coedge $-1 $101 $35 $103 $104 reversed $22 $-1 #
coedge $-1 $35 $101 $105 $106 reversed $22 $-1 #
coedge $-1 $107 $108 $35 $59 forward $96 $-1 #
edge $-1 $109 -22.29661434912477 $110 22.29661434912477 $58 $111 forward 7 unknown #
face $-1 $112 $113 $9 $-1 $114 reversed single #
loop $-1 $-1 $115 $36 #
plane-surface $-1 -78.4850611896115 0 0 1 0 0 0 0 -1 forward_v I I I I #
coedge $-1 $116 $71 $117 $118 forward $37 $-1 #
coedge $-1 $119 $39 $116 $120 forward $25 $-1 #
coedge $-1 $39 $119 $121 $122 forward $25 $-1 #
coedge $-1 $74 $73 $39 $67 reversed $75 $-1 #
edge $-1 $123 -47.212715265615778 $124 47.212715265615778 $66 $125 forward 7 unknown #
coedge $-1 $41 $40 $126 $127 forward $16 $-1 #
coedge $-1 $128 $129 $40 $70 reversed $113 $-1 #
edge $-1 $77 -78.4850611896115 $130 78.4850611896115 $69 $131 forward 7 unknown #
coedge $-1 $63 $132 $41 $72 reversed $37 $-1 #
edge $-1 $133 -78.4850611896115 $76 78.4850611896115 $71 $134 forward 7 unknown #
coedge $-1 $66 $42 $132 $135 forward $75 $-1 #
coedge $-1 $42 $66 $128 $136 reversed $75 $-1 #
loop $-1 $-1 $73 $112 #
vertex $-1 $43 $137 #
vertex $-1 $43 $138 #
straight-curve $-1 78.4850611896115 0 22.29661434912477 0 1 0 I I #
face $-1 $139 $140 $10 $-1 $81 reversed single #
loop $-1 $-1 $85 $44 #
plane-surface $-1 0 -47.212715265615778 0 0 1 0 0 0 1 forward_v I I I I #
coedge $-1 $141 $142 $87 $143 forward $45 $-1 #
coedge $-1 $50 $47 $144 $145 reversed $29 $-1 #
coedge $-1 $47 $50 $146 $147 reversed $29 $-1 #
coedge $-1 $148 $149 $47 $86 forward $80 $-1 #
edge $-1 $150 -22.29661434912477 $151 22.29661434912477 $85 $152 forward 7 unknown #
coedge $-1 $49 $48 $82 $143 reversed $19 $-1 #
coedge $-1 $144 $153 $48 $89 forward $154 $-1 #
edge $-1 $155 -4.9667414714711953 $93 4.9667414714711953 $48 $156 forward 7 unknown #
coedge $-1 $157 $146 $49 $91 forward $158 $-1 #
edge $-1 $92 -4.9667414714711953 $159 4.9667414714711953 $49 $160 forward 7 unknown #
vertex $-1 $147 $161 #
vertex $-1 $145 $162 #
straight-curve $-1 -43.825315434304343 -71.190336606167222 0 0 0 -1 I I #
face $-1 $163 $164 $11 $-1 $165 reversed single #
loop $-1 $-1 $58 $52 #
plane-surface $-1 -78.4850611896115 0 0 1 0 0 0 0 -1 forward_v I I I I #
coedge $-1 $103 $166 $99 $167 forward $53 $-1 #
coedge $-1 $168 $55 $98 $167 reversed $33 $-1 #
coedge $-1 $55 $168 $169 $170 reversed $33 $-1 #
coedge $-1 $57 $56 $55 $102 forward $22 $-1 #
edge $-1 $171 -22.29661434912477 $172 22.29661434912477 $55 $173 forward 7 unknown #
coedge $-1 $174 $98 $56 $104 forward $53 $-1 #
edge $-1 $171 30.811127834515887 $109 42.052998181569038 $103 $175 forward 7 unknown #
coedge $-1 $169 $176 $57 $106 forward $177 $-1 #
edge $-1 $110 -42.052998181569038 $172 -30.811127834515887 $105 $178 forward 7 unknown #
coedge $-1 $179 $58 $176 $180 reversed $96 $-1 #
coedge $-1 $58 $179 $174 $181 reversed $96 $-1 #
vertex $-1 $181 $182 #
vertex $-1 $59 $183 #
straight-curve $-1 -78.4850611896115 25.600071523478711 0 0 0 -1 I I #
face $-1 $-1 $75 $9 $-1 $184 reversed single #
loop $-1 $-1 $128 $60 #
plane-surface $-1 0 47.212715265615778 0 0 -1 0 0 0 -1 forward_v I I I I #
coedge $-1 $185 $126 $129 $186 forward $61 $-1 #
coedge $-1 $132 $63 $64 $120 reversed $37 $-1 #
coedge $-1 $126 $185 $63 $118 reversed $61 $-1 #
edge $-1 $133 -22.29661434912477 $187 22.29661434912477 $117 $188 forward 7 unknown #
coedge $-1 $65 $64 $185 $189 forward $25 $-1 #
edge $-1 $124 -78.4850611896115 $187 78.4850611896115 $116 $190 forward 7 unknown #
coedge $-1 $129 $128 $65 $122 reversed $113 $-1 #
edge $-1 $191 -78.4850611896115 $123 78.4850611896115 $121 $192 forward 7 unknown #
vertex $-1 $67 $193 #
vertex $-1 $135 $194 #
straight-curve $-1 78.4850611896115 0 -22.29661434912477 0 -1 0 I I #
coedge $-1 $115 $117 $68 $127 reversed $61 $-1 #
edge $-1 $130 -47.212715265615778 $133 47.212715265615778 $126 $195 forward 7 unknown #
coedge $-1 $121 $69 $74 $136 forward $113 $-1 #
coedge $-1 $69 $121 $115 $186 reversed $113 $-1 #
vertex $-1 $70 $196 #
straight-curve $-1 0 47.212715265615778 22.29661434912477 -1 0 0 I I #
coedge $-1 $71 $116 $73 $135 reversed $37 $-1 #
vertex $-1 $127 $197 #
straight-curve $-1 0 -47.212715265615778 22.29661434912477 1 0 0 I I #
edge $-1 $76 -22.29661434912477 $124 22.29661434912477 $73 $198 forward 7 unknown #
edge $-1 $77 -22.29661434912477 $123 22.29661434912477 $74 $199 forward 7 unknown #
point $-1 78.4850611896115 -47.212715265615778 22.29661434912477 #
point $-1 78.4850611896115 47.212715265615778 22.29661434912477 #
face $-1 $200 $158 $10 $-1 $201 forward single #
loop $-1 $-1 $202 $79 #
coedge $-1 $203 $82 $153 $204 reversed $45 $-1 #
coedge $-1 $82 $203 $157 $205 reversed $45 $-1 #
edge $-1 $159 -22.29661434912477 $155 22.29661434912477 $82 $206 forward 7 unknown #
coedge $-1 $207 $88 $83 $145 forward $154 $-1 #
edge $-1 $93 -11.988810670275718 $150 11.988810670275726 $83 $208 forward 7 unknown #
coedge $-1 $90 $209 $84 $147 forward $158 $-1 #
edge $-1 $151 -11.988810670275726 $92 11.988810670275718 $84 $210 forward 7 unknown #
coedge $-1 $211 $85 $209 $212 reversed $80 $-1 #
coedge $-1 $85 $211 $207 $213 reversed $80 $-1 #
vertex $-1 $213 $214 #
vertex $-1 $147 $215 #
straight-curve $-1 -43.825315434304343 -47.212715265615778 0 0 0 1 I I #
coedge $-1 $88 $216 $141 $204 forward $154 $-1 #
loop $-1 $-1 $217 $200 #
vertex $-1 $143 $218 #
straight-curve $-1 -38.858573962833148 -71.190336606167222 -22.29661434912477 -1 0 0 I I #
coedge $-1 $219 $90 $142 $205 forward $158 $-1 #
loop $-1 $-1 $220 $139 #
vertex $-1 $205 $221 #
straight-curve $-1 -38.858573962833148 -71.190336606167222 22.29661434912477 1 0 0 I I #
point $-1 -43.825315434304343 -71.190336606167222 22.29661434912477 #
point $-1 -43.825315434304343 -71.190336606167222 -22.29661434912477 #
face $-1 $222 $223 $11 $-1 $224 reversed single #
loop $-1 $-1 $225 $95 #
plane-surface $-1 -38.858573962833148 -71.190336606167222 0 0 1 0 0 0 1 forward_v I I I I #
coedge $-1 $98 $226 $227 $228 forward $53 $-1 #
edge $-1 $229 -29.009518568342155 $171 -7.3968748262050887 $98 $230 forward 7 unknown #
coedge $-1 $100 $99 $231 $232 reversed $33 $-1 #
coedge $-1 $233 $105 $100 $170 forward $177 $-1 #
edge $-1 $172 7.3968748262050887 $234 29.009518568342155 $169 $235 forward 7 unknown #
vertex $-1 $104 $236 #
vertex $-1 $106 $237 #
straight-curve $-1 -67.243190842558349 25.600071523478711 0 0 0 -1 I I #
coedge $-1 $238 $103 $108 $181 forward $53 $-1 #
straight-curve $-1 -36.432063008042462 25.600071523478711 22.29661434912477 -1 0 0 I I #
coedge $-1 $105 $239 $107 $180 forward $177 $-1 #
loop $-1 $-1 $169 $240 #
straight-curve $-1 -36.432063008042462 25.600071523478711 -22.29661434912477 1 0 0 I I #
coedge $-1 $108 $107 $241 $242 reversed $96 $-1 #
edge $-1 $243 -47.212715265615778 $110 25.600071523478711 $107 $244 forward 7 unknown #
edge $-1 $109 -25.600071523478711 $245 47.212715265615778 $108 $246 forward 7 unknown #
point $-1 -78.4850611896115 25.600071523478711 22.29661434912477 #
point $-1 -78.4850611896115 25.600071523478711 -22.29661434912477 #
plane-surface $-1 78.4850611896115 0 0 -1 0 0 0 0 1 forward_v I I I I #
coedge $-1 $117 $115 $119 $189 reversed $61 $-1 #
edge $-1 $130 -22.29661434912477 $191 22.29661434912477 $129 $247 forward 7 unknown #
vertex $-1 $189 $248 #
straight-curve $-1 -78.4850611896115 -47.212715265615778 0 0 0 -1 I I #
edge $-1 $187 -47.212715265615778 $191 47.212715265615778 $185 $249 forward 7 unknown #
straight-curve $-1 0 -47.212715265615778 -22.29661434912477 -1 0 0 I I #
vertex $-1 $122 $250 #
straight-curve $-1 0 47.212715265615778 -22.29661434912477 1 0 0 I I #
point $-1 78.4850611896115 47.212715265615778 -22.29661434912477 #
point $-1 78.4850611896115 -47.212715265615778 -22.29661434912477 #
straight-curve $-1 -78.4850611896115 0 22.29661434912477 0 -1 0 I I #
point $-1 -78.4850611896115 47.212715265615778 22.29661434912477 #
point $-1 -78.4850611896115 -47.212715265615778 22.29661434912477 #
straight-curve $-1 78.4850611896115 -47.212715265615778 0 0 0 -1 I I #
straight-curve $-1 78.4850611896115 47.212715265615778 0 0 0 -1 I I #
face $-1 $251 $154 $10 $-1 $252 reversed single #
plane-surface $-1 0 0 22.29661434912477 0 0 1 1 0 0 forward_v I I I I #
coedge $-1 $253 $254 $203 $255 forward $140 $-1 #
coedge $-1 $142 $141 $202 $255 reversed $45 $-1 #
edge $-1 $256 -11.988810670275726 $155 11.988810670275718 $141 $257 forward 7 unknown #
edge $-1 $159 -11.988810670275718 $258 11.988810670275726 $142 $259 forward 7 unknown #
straight-curve $-1 -33.891832491361953 -71.190336606167222 0 0 0 -1 I I #
coedge $-1 $260 $144 $149 $213 forward $154 $-1 #
straight-curve $-1 -43.825315434304343 -59.201525935891503 -22.29661434912477 0 1 0 I I #
coedge $-1 $146 $261 $148 $212 forward $158 $-1 #
straight-curve $-1 -43.825315434304343 -59.201525935891503 22.29661434912477 0 -1 0 I I #
coedge $-1 $149 $148 $262 $263 forward $80 $-1 #
edge $-1 $264 -78.4850611896115 $151 -43.825315434304343 $148 $265 forward 7 unknown #
edge $-1 $150 43.825315434304343 $266 78.4850611896115 $149 $267 forward 7 unknown #
point $-1 -43.825315434304343 -47.212715265615778 -22.29661434912477 #
point $-1 -43.825315434304343 -47.212715265615778 22.29661434912477 #
coedge $-1 $153 $217 $253 $268 forward $154 $-1 #
coedge $-1 $216 $269 $270 $271 forward $154 $-1 #
point $-1 -33.891832491361953 -71.190336606167222 -22.29661434912477 #
coedge $-1 $220 $157 $254 $272 forward $158 $-1 #
coedge $-1 $273 $219 $274 $275 forward $158 $-1 #
point $-1 -33.891832491361953 -71.190336606167222 22.29661434912477 #
face $-1 $276 $277 $11 $-1 $278 reversed single #
loop $-1 $-1 $279 $163 #
plane-surface $-1 -43.825315434304343 -59.201525935891503 0 1 0 0 0 0 -1 forward_v I I I I #
coedge $-1 $280 $281 $282 $283 forward $164 $-1 #
coedge $-1 $166 $284 $285 $286 forward $53 $-1 #
coedge $-1 $287 $231 $166 $228 reversed $288 $-1 #
edge $-1 $289 -78.4850611896115 $229 67.243190842558349 $227 $290 forward 7 unknown #
vertex $-1 $232 $291 #
straight-curve $-1 -67.243190842558349 18.203196697273622 22.29661434912477 0 -1 0 I I #
coedge $-1 $227 $292 $168 $232 forward $288 $-1 #
edge $-1 $234 -22.29661434912477 $229 22.29661434912477 $231 $293 forward 7 unknown #
coedge $-1 $294 $169 $292 $295 forward $177 $-1 #
vertex $-1 $295 $296 #
straight-curve $-1 -67.243190842558349 18.203196697273622 -22.29661434912477 0 1 0 I I #
point $-1 -67.243190842558349 25.600071523478711 22.29661434912477 #
point $-1 -67.243190842558349 25.600071523478711 -22.29661434912477 #
coedge $-1 $297 $174 $298 $299 forward $53 $-1 #
coedge $-1 $176 $300 $301 $302 forward $177 $-1 #
face $-1 $303 $177 $11 $-1 $304 reversed single #
coedge $-1 $301 $298 $179 $242 forward $305 $-1 #
edge $-1 $245 -22.29661434912477 $243 22.29661434912477 $179 $306 forward 7 unknown #
vertex $-1 $180 $307 #
straight-curve $-1 -78.4850611896115 0 -22.29661434912477 0 1 0 I I #
vertex $-1 $181 $308 #
straight-curve $-1 -78.4850611896115 0 22.29661434912477 0 -1 0 I I #
straight-curve $-1 -78.4850611896115 47.212715265615778 0 0 0 -1 I I #
point $-1 -78.4850611896115 -47.212715265615778 -22.29661434912477 #
straight-curve $-1 -78.4850611896115 0 -22.29661434912477 0 1 0 I I #
point $-1 -78.4850611896115 47.212715265615778 -22.29661434912477 #
face $-1 $309 $310 $10 $-1 $311 reversed single #
plane-surface $-1 0 0 -22.29661434912477 0 0 1 1 0 0 forward_v I I I I #
coedge $-1 $312 $202 $216 $268 reversed $140 $-1 #
coedge $-1 $202 $312 $219 $272 reversed $140 $-1 #
edge $-1 $258 -22.29661434912477 $256 22.29661434912477 $202 $313 forward 7 unknown #
vertex $-1 $204 $314 #
straight-curve $-1 -33.891832491361953 -59.201525935891503 -22.29661434912477 0 -1 0 I I #
vertex $-1 $272 $315 #
straight-curve $-1 -33.891832491361953 -59.201525935891503 22.29661434912477 0 1 0 I I #
coedge $-1 $269 $207 $316 $317 forward $154 $-1 #
coedge $-1 $209 $273 $318 $319 forward $158 $-1 #
coedge $-1 $318 $316 $211 $263 reversed $310 $-1 #
edge $-1 $264 -22.29661434912477 $266 22.29661434912477 $262 $320 forward 7 unknown #
vertex $-1 $319 $321 #
straight-curve $-1 0 -47.212715265615778 22.29661434912477 1 0 0 I I #
vertex $-1 $317 $322 #
straight-curve $-1 0 -47.212715265615778 -22.29661434912477 -1 0 0 I I #
edge $-1 $323 -78.4850611896115 $256 33.891832491361953 $253 $267 forward 7 unknown #
coedge $-1 $217 $260 $324 $325 forward $154 $-1 #
coedge $-1 $326 $327 $217 $271 reversed $328 $-1 #
edge $-1 $329 -47.212715265615778 $323 47.212715265615778 $270 $330 forward 7 unknown #
edge $-1 $258 -33.891832491361953 $331 78.4850611896115 $254 $265 forward 7 unknown #
coedge $-1 $261 $220 $332 $333 forward $158 $-1 #
coedge $-1 $327 $326 $220 $275 reversed $328 $-1 #
edge $-1 $331 -47.212715265615778 $334 47.212715265615778 $274 $335 forward 7 unknown #
face $-1 $336 $305 $11 $-1 $337 reversed single #
loop $-1 $-1 $338 $222 #
plane-surface $-1 -33.891832491361953 -59.201525935891503 0 -1 0 0 0 0 1 forward_v I I I I #
coedge $-1 $339 $340 $341 $342 reversed $223 $-1 #
coedge $-1 $343 $225 $344 $345 reversed $164 $-1 #
coedge $-1 $225 $343 $346 $347 reversed $164 $-1 #
coedge $-1 $340 $339 $225 $283 reversed $223 $-1 #
edge $-1 $348 -22.29661434912477 $349 22.29661434912477 $282 $350 forward 7 unknown #
coedge $-1 $226 $351 $352 $353 forward $53 $-1 #
coedge $-1 $354 $355 $226 $286 reversed $356 $-1 #
edge $-1 $357 -47.212715265615778 $289 47.212715265615778 $285 $358 forward 7 unknown #
coedge $-1 $292 $227 $355 $359 forward $288 $-1 #
loop $-1 $-1 $231 $303 #
vertex $-1 $286 $360 #
straight-curve $-1 0 47.212715265615778 22.29661434912477 -1 0 0 I I #
point $-1 -67.243190842558349 47.212715265615778 22.29661434912477 #
coedge $-1 $231 $287 $233 $295 reversed $288 $-1 #
straight-curve $-1 -67.243190842558349 47.212715265615778 0 0 0 1 I I #
coedge $-1 $361 $233 $362 $363 forward $177 $-1 #
edge $-1 $234 -67.243190842558349 $364 78.4850611896115 $292 $365 forward 7 unknown #
point $-1 -67.243190842558349 47.212715265615778 -22.29661434912477 #
coedge $-1 $346 $238 $340 $366 forward $53 $-1 #
coedge $-1 $241 $341 $238 $299 reversed $305 $-1 #
edge $-1 $245 -78.4850611896115 $367 -43.825315434304343 $298 $368 forward 7 unknown #
coedge $-1 $239 $344 $339 $369 forward $177 $-1 #
coedge $-1 $341 $241 $239 $302 reversed $305 $-1 #
edge $-1 $370 43.825315434304343 $243 78.4850611896115 $301 $371 forward 7 unknown #
face $-1 $372 $288 $11 $-1 $373 reversed single #
plane-surface $-1 0 0 -22.29661434912477 0 0 1 1 0 0 forward_v I I I I #
loop $-1 $-1 $341 $276 #
straight-curve $-1 -78.4850611896115 -47.212715265615778 0 0 0 -1 I I #
point $-1 -78.4850611896115 -47.212715265615778 -22.29661434912477 #
point $-1 -78.4850611896115 -47.212715265615778 22.29661434912477 #
face $-1 $374 $375 $10 $-1 $376 reversed single #
loop $-1 $-1 $377 $251 #
plane-surface $-1 -78.4850611896115 0 0 1 0 0 0 0 -1 forward_v I I I I #
coedge $-1 $254 $253 $327 $378 reversed $140 $-1 #
straight-curve $-1 -33.891832491361953 -47.212715265615778 0 0 0 -1 I I #
point $-1 -33.891832491361953 -47.212715265615778 -22.29661434912477 #
point $-1 -33.891832491361953 -47.212715265615778 22.29661434912477 #
coedge $-1 $262 $377 $260 $317 reversed $310 $-1 #
edge $-1 $266 -47.212715265615778 $379 47.212715265615778 $316 $380 forward 7 unknown #
coedge $-1 $377 $262 $261 $319 reversed $310 $-1 #
edge $-1 $381 -47.212715265615778 $264 47.212715265615778 $318 $382 forward 7 unknown #
straight-curve $-1 -78.4850611896115 -47.212715265615778 0 0 0 -1 I I #
point $-1 -78.4850611896115 -47.212715265615778 22.29661434912477 #
point $-1 -78.4850611896115 -47.212715265615778 -22.29661434912477 #
vertex $-1 $378 $383 #
coedge $-1 $384 $385 $269 $325 reversed $375 $-1 #
edge $-1 $379 -78.4850611896115 $329 78.4850611896115 $324 $386 forward 7 unknown #
coedge $-1 $274 $270 $385 $387 reversed $328 $-1 #
coedge $-1 $270 $274 $312 $378 forward $328 $-1 #
loop $-1 $-1 $327 $374 #
vertex $-1 $271 $388 #
straight-curve $-1 78.4850611896115 0 -22.29661434912477 0 -1 0 I I #
vertex $-1 $275 $389 #
coedge $-1 $385 $384 $273 $333 reversed $375 $-1 #
edge $-1 $334 -78.4850611896115 $381 78.4850611896115 $332 $390 forward 7 unknown #
vertex $-1 $275 $391 #
straight-curve $-1 78.4850611896115 0 22.29661434912477 0 1 0 I I #
face $-1 $240 $392 $11 $-1 $337 reversed single #
plane-surface $-1 0 -47.212715265615778 0 0 1 0 0 0 1 forward_v I I I I #
coedge $-1 $393 $394 $343 $395 forward $277 $-1 #
coedge $-1 $282 $279 $300 $369 reversed $223 $-1 #
coedge $-1 $279 $282 $297 $366 reversed $223 $-1 #
coedge $-1 $298 $301 $279 $342 forward $305 $-1 #
edge $-1 $370 -22.29661434912477 $367 22.29661434912477 $341 $396 forward 7 unknown #
coedge $-1 $281 $280 $338 $395 reversed $164 $-1 #
coedge $-1 $300 $397 $280 $345 forward $177 $-1 #
edge $-1 $398 -4.9667414714711953 $349 4.9667414714711953 $280 $399 forward 7 unknown #
coedge $-1 $351 $297 $281 $347 forward $53 $-1 #
edge $-1 $348 -4.9667414714711953 $400 4.9667414714711953 $281 $401 forward 7 unknown #
vertex $-1 $366 $402 #
vertex $-1 $369 $403 #
straight-curve $-1 -43.825315434304343 -71.190336606167222 0 0 0 -1 I I #
coedge $-1 $284 $346 $394 $404 forward $53 $-1 #
coedge $-1 $405 $406 $284 $353 reversed $392 $-1 #
edge $-1 $407 -33.891832491361953 $357 78.4850611896115 $352 $368 forward 7 unknown #
coedge $-1 $362 $285 $406 $408 forward $356 $-1 #
coedge $-1 $285 $362 $287 $359 reversed $356 $-1 #
loop $-1 $-1 $354 $372 #
vertex $-1 $286 $409 #
straight-curve $-1 78.4850611896115 0 22.29661434912477 0 1 0 I I #
edge $-1 $289 -22.29661434912477 $364 22.29661434912477 $355 $410 forward 7 unknown #
point $-1 78.4850611896115 47.212715265615778 22.29661434912477 #
coedge $-1 $397 $294 $411 $412 forward $177 $-1 #
coedge $-1 $355 $354 $294 $363 reversed $356 $-1 #
edge $-1 $364 -47.212715265615778 $413 47.212715265615778 $362 $414 forward 7 unknown #
vertex $-1 $363 $415 #
straight-curve $-1 0 47.212715265615778 -22.29661434912477 1 0 0 I I #
edge $-1 $367 -11.988810670275726 $348 11.988810670275718 $340 $416 forward 7 unknown #
vertex $-1 $366 $417 #
straight-curve $-1 0 -47.212715265615778 22.29661434912477 1 0 0 I I #
edge $-1 $349 -11.988810670275718 $370 11.988810670275726 $339 $418 forward 7 unknown #
vertex $-1 $302 $419 #
straight-curve $-1 0 -47.212715265615778 -22.29661434912477 -1 0 0 I I #
face $-1 $-1 $356 $11 $-1 $420 reversed single #
plane-surface $-1 0 47.212715265615778 0 0 -1 0 0 0 -1 forward_v I I I I #
face $-1 $-1 $328 $10 $-1 $421 reversed single #
loop $-1 $-1 $385 $309 #
plane-surface $-1 0 47.212715265615778 0 0 -1 0 0 0 -1 forward_v I I I I #
coedge $-1 $316 $318 $384 $422 forward $310 $-1 #
edge $-1 $331 -22.29661434912477 $323 22.29661434912477 $327 $423 forward 7 unknown #
vertex $-1 $325 $424 #
straight-curve $-1 -78.4850611896115 0 -22.29661434912477 0 1 0 I I #
vertex $-1 $333 $425 #
straight-curve $-1 -78.4850611896115 0 22.29661434912477 0 -1 0 I I #
point $-1 78.4850611896115 -47.212715265615778 -22.29661434912477 #
coedge $-1 $332 $324 $377 $422 reversed $375 $-1 #
coedge $-1 $324 $332 $326 $387 forward $375 $-1 #
straight-curve $-1 0 47.212715265615778 -22.29661434912477 1 0 0 I I #
edge $-1 $334 -22.29661434912477 $329 22.29661434912477 $326 $426 forward 7 unknown #
point $-1 78.4850611896115 47.212715265615778 -22.29661434912477 #
point $-1 78.4850611896115 -47.212715265615778 22.29661434912477 #
straight-curve $-1 0 47.212715265615778 22.29661434912477 -1 0 0 I I #
point $-1 78.4850611896115 47.212715265615778 22.29661434912477 #
loop $-1 $-1 $405 $336 #
coedge $-1 $427 $338 $397 $428 reversed $277 $-1 #
coedge $-1 $338 $427 $351 $404 reversed $277 $-1 #
edge $-1 $400 -22.29661434912477 $398 22.29661434912477 $338 $429 forward 7 unknown #
straight-curve $-1 -43.825315434304343 -47.212715265615778 0 0 0 1 I I #
coedge $-1 $344 $361 $393 $428 forward $177 $-1 #
vertex $-1 $395 $430 #
straight-curve $-1 -38.858573962833148 -71.190336606167222 -22.29661434912477 -1 0 0 I I #
vertex $-1 $404 $431 #
straight-curve $-1 -38.858573962833148 -71.190336606167222 22.29661434912477 1 0 0 I I #
point $-1 -43.825315434304343 -71.190336606167222 22.29661434912477 #
point $-1 -43.825315434304343 -71.190336606167222 -22.29661434912477 #
edge $-1 $400 -11.988810670275718 $407 11.988810670275726 $394 $432 forward 7 unknown #
coedge $-1 $411 $352 $427 $433 forward $392 $-1 #
coedge $-1 $352 $411 $354 $408 reversed $392 $-1 #
vertex $-1 $353 $434 #
edge $-1 $357 -22.29661434912477 $413 22.29661434912477 $354 $435 forward 7 unknown #
point $-1 78.4850611896115 -47.212715265615778 22.29661434912477 #
straight-curve $-1 78.4850611896115 47.212715265615778 0 0 0 -1 I I #
coedge $-1 $406 $405 $361 $412 reversed $392 $-1 #
edge $-1 $413 -78.4850611896115 $436 33.891832491361953 $411 $371 forward 7 unknown #
vertex $-1 $408 $437 #
straight-curve $-1 78.4850611896115 0 -22.29661434912477 0 -1 0 I I #
point $-1 78.4850611896115 47.212715265615778 -22.29661434912477 #
straight-curve $-1 -43.825315434304343 -59.201525935891503 22.29661434912477 0 -1 0 I I #
point $-1 -43.825315434304343 -47.212715265615778 22.29661434912477 #
straight-curve $-1 -43.825315434304343 -59.201525935891503 -22.29661434912477 0 1 0 I I #
point $-1 -43.825315434304343 -47.212715265615778 -22.29661434912477 #
plane-surface $-1 78.4850611896115 0 0 -1 0 0 0 0 1 forward_v I I I I #
plane-surface $-1 78.4850611896115 0 0 -1 0 0 0 0 1 forward_v I I I I #
edge $-1 $381 -22.29661434912477 $379 22.29661434912477 $384 $438 forward 7 unknown #
straight-curve $-1 78.4850611896115 -47.212715265615778 0 0 0 -1 I I #
point $-1 -78.4850611896115 47.212715265615778 -22.29661434912477 #
point $-1 -78.4850611896115 47.212715265615778 22.29661434912477 #
straight-curve $-1 78.4850611896115 47.212715265615778 0 0 0 -1 I I #
coedge $-1 $394 $393 $405 $433 reversed $277 $-1 #
edge $-1 $436 -11.988810670275726 $398 11.988810670275718 $393 $439 forward 7 unknown #
straight-curve $-1 -33.891832491361953 -71.190336606167222 0 0 0 -1 I I #
point $-1 -33.891832491361953 -71.190336606167222 -22.29661434912477 #
point $-1 -33.891832491361953 -71.190336606167222 22.29661434912477 #
straight-curve $-1 -33.891832491361953 -59.201525935891503 22.29661434912477 0 1 0 I I #
edge $-1 $407 -22.29661434912477 $436 22.29661434912477 $405 $440 forward 7 unknown #
point $-1 -33.891832491361953 -47.212715265615778 22.29661434912477 #
straight-curve $-1 78.4850611896115 -47.212715265615778 0 0 0 -1 I I #
vertex $-1 $428 $441 #
point $-1 78.4850611896115 -47.212715265615778 -22.29661434912477 #
straight-curve $-1 -78.4850611896115 47.212715265615778 0 0 0 -1 I I #
straight-curve $-1 -33.891832491361953 -59.201525935891503 -22.29661434912477 0 -1 0 I I #
straight-curve $-1 -33.891832491361953 -47.212715265615778 0 0 0 -1 I I #
point $-1 -33.891832491361953 -47.212715265615778 -22.29661434912477 #
End-of-ACIS-data 