500 0 11 0           
7 Unknown 11 ACIS 5.0 NT 24 Thu Mar 25 18:39:16 1999 
-1 9.9999999999999995e-007 1e-010 
body $-1 $11 $-1 $12 #
body $-1 $13 $-1 $14 #
body $-1 $15 $-1 $16 #
body $-1 $17 $-1 $18 #
body $-1 $19 $-1 $20 #
body $-1 $21 $-1 $22 #
body $-1 $23 $-1 $24 #
body $-1 $25 $-1 $26 #
body $-1 $27 $-1 $28 #
body $-1 $29 $-1 $30 #
body $-1 $31 $-1 $32 #
lump $-1 $-1 $33 $0 #
transform $-1 1 0 0 0 1 0 0 0 1 71.60252693258461 45.618722273934836 14.513288742236432 1 rotate no_reflect no_shear #
lump $-1 $-1 $34 $1 #
transform $-1 1 0 0 0 1 0 0 0 1 71.60252693258461 45.618722273934836 14.513288742236432 1 rotate no_reflect no_shear #
lump $-1 $-1 $35 $2 #
transform $-1 1 0 0 0 1 0 0 0 1 71.60252693258461 45.618722273934836 14.513288742236432 1 rotate no_reflect no_shear #
lump $-1 $-1 $36 $3 #
transform $-1 1 0 0 0 1 0 0 0 1 71.60252693258461 45.618722273934836 14.513288742236432 1 rotate no_reflect no_shear #
lump $-1 $-1 $37 $4 #
transform $-1 1 0 0 0 1 0 0 0 1 71.60252693258461 45.618722273934836 14.513288742236432 1 rotate no_reflect no_shear #
lump $-1 $-1 $38 $5 #
transform $-1 1 0 0 0 1 0 0 0 1 71.60252693258461 45.618722273934836 14.513288742236432 1 rotate no_reflect no_shear #
lump $-1 $-1 $39 $6 #
transform $-1 1 0 0 0 1 0 0 0 1 71.60252693258461 45.618722273934836 14.513288742236432 1 rotate no_reflect no_shear #
lump $-1 $-1 $40 $7 #
transform $-1 1 0 0 0 1 0 0 0 1 71.60252693258461 45.618722273934836 14.513288742236432 1 rotate no_reflect no_shear #
lump $-1 $-1 $41 $8 #
transform $-1 1 0 0 0 1 0 0 0 1 71.60252693258461 45.618722273934836 14.513288742236432 1 rotate no_reflect no_shear #
lump $-1 $-1 $42 $9 #
transform $-1 1 0 0 0 1 0 0 0 1 71.60252693258461 45.618722273934836 14.513288742236432 1 rotate no_reflect no_shear #
lump $-1 $-1 $43 $10 #
transform $-1 1 0 0 0 1 0 0 0 1 71.60252693258461 45.618722273934836 14.513288742236432 1 rotate no_reflect no_shear #
shell $-1 $-1 $-1 $44 $-1 $11 #
shell $-1 $-1 $-1 $45 $-1 $13 #
shell $-1 $-1 $-1 $46 $-1 $15 #
shell $-1 $-1 $-1 $47 $-1 $17 #
shell $-1 $-1 $-1 $48 $-1 $19 #
shell $-1 $-1 $-1 $49 $-1 $21 #
shell $-1 $-1 $-1 $50 $-1 $23 #
shell $-1 $-1 $-1 $51 $-1 $25 #
shell $-1 $-1 $-1 $52 $-1 $27 #
shell $-1 $-1 $-1 $53 $-1 $29 #
shell $-1 $-1 $-1 $54 $-1 $31 #
face $-1 $55 $56 $33 $-1 $57 forward single #
face $-1 $58 $59 $34 $-1 $60 reversed single #
face $-1 $61 $62 $35 $-1 $63 reversed single #
face $-1 $64 $65 $36 $-1 $66 reversed single #
face $-1 $67 $68 $37 $-1 $69 forward single #
face $-1 $70 $71 $38 $-1 $72 reversed single #
face $-1 $73 $74 $39 $-1 $75 forward single #
face $-1 $76 $77 $40 $-1 $78 forward single #
face $-1 $79 $80 $41 $-1 $81 reversed single #
face $-1 $82 $83 $42 $-1 $84 forward single #
face $-1 $85 $86 $43 $-1 $87 forward single #
face $-1 $88 $89 $33 $-1 $90 reversed single #
loop $-1 $-1 $91 $44 #
plane-surface $-1 0 0 14.513288742236432 0 0 1 1 0 0 forward_v I I I I #
face $-1 $92 $93 $34 $-1 $94 reversed single #
loop $-1 $-1 $95 $45 #
plane-surface $-1 -45.575949448111743 -37.421356175873399 0 1 0 0 0 0 -1 forward_v I I I I #
face $-1 $96 $97 $35 $-1 $98 reversed single #
loop $-1 $-1 $99 $46 #
plane-surface $-1 -44.075949448111743 29.223990077811962 0 0 1 0 0 0 1 forward_v I I I I #
face $-1 $100 $101 $36 $-1 $102 reversed single #
loop $-1 $-1 $103 $47 #
plane-surface $-1 -149.59759030087662 -2.209059614767142 127.67279835844326 0 1 0 -0.54463904215088732 0 0.83867056331134215 forward_v I I I I #
face $-1 $104 $105 $37 $-1 $106 forward single #
loop $-1 $107 $108 $48 #
cone-surface $-1 -64.673036067576064 3.9676773179495655 8.6024308791247872 0.54463904215088732 0 -0.83867056331134215 2.0966764082783556 0 1.3615976053772183 1 I I 0 1 2.5 forward I I I I #
face $-1 $109 $110 $38 $-1 $111 reversed single #
loop $-1 $-1 $112 $49 #
plane-surface $-1 96.283817307507107 -4.5730087065221419 208.99218208095837 0 -1 0 -0.78801076186113728 0 -0.61566146476048833 forward_v I I I I #
face $-1 $113 $114 $39 $-1 $115 forward single #
loop $-1 $116 $117 $50 #
cone-surface $-1 68.387981474365006 -10.247191253155478 10.728998593788361 -0.78801076186113728 0 -0.61566146476048833 0.30783073238024417 0 -0.39400538093056864 1 I I 0 1 0.5 forward I I I I #
face $-1 $118 $119 $40 $-1 $120 forward single #
loop $-1 $121 $122 $51 #
cone-surface $-1 68.387981474365006 -6.8426817251754741 10.728998593788361 -0.78801076186113728 0 -0.61566146476048833 0.30783073238024417 0 -0.39400538093056864 1 I I 0 1 0.5 forward I I I I #
face $-1 $123 $124 $41 $-1 $125 reversed single #
loop $-1 $-1 $126 $52 #
plane-surface $-1 96.283817307507107 24.65098137128982 208.99218208095837 0 -1 0 -0.78801076186113728 0 -0.61566146476048833 forward_v I I I I #
face $-1 $127 $128 $42 $-1 $129 forward single #
loop $-1 $130 $131 $53 #
cone-surface $-1 68.387981474365006 18.976798824656484 10.728998593788361 -0.78801076186113728 0 -0.61566146476048833 0.30783073238024417 0 -0.39400538093056864 1 I I 0 1 0.5 forward I I I I #
face $-1 $132 $133 $43 $-1 $134 forward single #
loop $-1 $135 $136 $54 #
cone-surface $-1 68.387981474365006 22.381308352636481 10.728998593788361 -0.78801076186113728 0 -0.61566146476048833 0.30783073238024417 0 -0.39400538093056864 1 I I 0 1 0.5 forward I I I I #
face $-1 $137 $138 $33 $-1 $139 reversed single #
loop $-1 $-1 $140 $55 #
plane-surface $-1 0 0 -14.513288742236432 0 0 1 1 0 0 forward_v I I I I #
coedge $-1 $141 $142 $143 $144 forward $56 $-1 #
face $-1 $145 $146 $34 $-1 $147 reversed single #
loop $-1 $-1 $148 $58 #
plane-surface $-1 -44.075949448111743 -29.223990077811962 0 0 -1 0 0 0 -1 forward_v I I I I #
coedge $-1 $149 $150 $151 $152 forward $59 $-1 #
face $-1 $153 $154 $35 $-1 $155 reversed single #
loop $-1 $-1 $156 $61 #
plane-surface $-1 -45.575949448111743 37.421356175873399 0 1 0 0 0 0 -1 forward_v I I I I #
coedge $-1 $157 $158 $159 $160 forward $62 $-1 #
face $-1 $161 $162 $36 $-1 $163 reversed single #
loop $-1 $-1 $164 $64 #
plane-surface $-1 -71.60252693258461 3.9676773179495655 7.5709351643106686 -0.54463904215088732 0 0.83867056331134215 0.83867056331134215 0 0.54463904215088732 forward_v I I I I #
coedge $-1 $165 $166 $167 $168 reversed $65 $-1 #
face $-1 $-1 $169 $37 $-1 $170 forward single #
loop $-1 $171 $172 $67 #
cone-surface $-1 -62.407889820842534 3.9676773179495655 5.1144116008368332 0.54463904215088732 0 -0.83867056331134215 1.0483382041391778 0 0.68079880268860915 1 I I -0.70710678118654724 0.70710678118654768 1.25 forward I I I I #
loop $-1 $-1 $173 $48 #
coedge $-1 $108 $108 $174 $175 reversed $68 $-1 #
face $-1 $176 $177 $38 $-1 $178 reversed single #
loop $-1 $-1 $179 $70 #
plane-surface $-1 -16.563306291150084 -8.5449364891654795 120.82634885722366 0.78801076186113728 0 0.61566146476048833 0.61566146476048833 0 -0.78801076186113728 forward_v I I I I #
coedge $-1 $180 $181 $182 $183 reversed $71 $-1 #
face $-1 $-1 $184 $39 $-1 $185 forward single #
loop $-1 $186 $187 $73 #
cone-surface $-1 67.528918196377319 -10.247191253155478 10.057824820985184 -0.78801076186113728 0 -0.61566146476048833 0.15391536619012208 0 -0.19700269046528432 1 I I -0.70710678118654746 0.70710678118654746 0.25 forward I I I I #
loop $-1 $-1 $188 $50 #
coedge $-1 $117 $117 $189 $190 reversed $74 $-1 #
face $-1 $-1 $191 $40 $-1 $192 forward single #
loop $-1 $193 $194 $76 #
cone-surface $-1 67.528918196377319 -6.8426817251754741 10.057824820985184 -0.78801076186113728 0 -0.61566146476048833 0.15391536619012208 0 -0.19700269046528432 1 I I -0.70710678118654746 0.70710678118654746 0.25 forward I I I I #
loop $-1 $-1 $195 $51 #
coedge $-1 $122 $122 $196 $197 reversed $77 $-1 #
face $-1 $198 $199 $41 $-1 $200 reversed single #
loop $-1 $-1 $201 $79 #
plane-surface $-1 -16.563306291150084 20.679053588646482 120.82634885722366 0.78801076186113728 0 0.61566146476048833 0.61566146476048833 0 -0.78801076186113728 forward_v I I I I #
coedge $-1 $202 $203 $204 $205 reversed $80 $-1 #
face $-1 $-1 $206 $42 $-1 $207 forward single #
loop $-1 $208 $209 $82 #
cone-surface $-1 67.528918196377319 18.976798824656484 10.057824820985184 -0.78801076186113728 0 -0.61566146476048833 0.15391536619012208 0 -0.19700269046528432 1 I I -0.70710678118654746 0.70710678118654746 0.25 forward I I I I #
loop $-1 $-1 $210 $53 #
coedge $-1 $131 $131 $211 $212 reversed $83 $-1 #
face $-1 $-1 $213 $43 $-1 $214 forward single #
loop $-1 $215 $216 $85 #
cone-surface $-1 67.528918196377319 22.381308352636481 10.057824820985184 -0.78801076186113728 0 -0.61566146476048833 0.15391536619012208 0 -0.19700269046528432 1 I I -0.70710678118654746 0.70710678118654746 0.25 forward I I I I #
loop $-1 $-1 $217 $54 #
coedge $-1 $136 $136 $218 $219 reversed $86 $-1 #
face $-1 $220 $221 $33 $-1 $222 reversed single #
loop $-1 $-1 $223 $88 #
plane-surface $-1 0 -45.618722273934836 0 0 1 0 0 0 1 forward_v I I I I #
coedge $-1 $224 $225 $226 $227 forward $89 $-1 #
coedge $-1 $228 $91 $229 $230 forward $56 $-1 #
coedge $-1 $91 $228 $231 $232 forward $56 $-1 #
coedge $-1 $233 $234 $91 $144 reversed $235 $-1 #
edge $-1 $236 -45.618722273934836 $237 45.618722273934836 $143 $238 forward 7 unknown #
face $-1 $239 $240 $34 $-1 $241 forward single #
loop $-1 $-1 $242 $92 #
plane-surface $-1 -42.575949448111743 -37.421356175873399 0 -1 0 0 0 0 1 forward_v I I I I #
coedge $-1 $243 $244 $245 $246 forward $93 $-1 #
coedge $-1 $247 $95 $248 $249 reversed $59 $-1 #
coedge $-1 $95 $247 $250 $251 reversed $59 $-1 #
coedge $-1 $244 $243 $95 $152 reversed $93 $-1 #
edge $-1 $252 -14.513288742236432 $253 14.513288742236432 $151 $254 forward 7 unknown #
face $-1 $255 $256 $35 $-1 $257 reversed single #
loop $-1 $-1 $258 $96 #
plane-surface $-1 -42.575949448111743 37.421356175873399 0 -1 0 0 0 0 1 forward_v I I I I #
coedge $-1 $259 $260 $261 $262 reversed $97 $-1 #
coedge $-1 $263 $99 $264 $265 reversed $62 $-1 #
coedge $-1 $99 $263 $266 $267 reversed $62 $-1 #
coedge $-1 $260 $259 $99 $160 reversed $97 $-1 #
edge $-1 $268 -14.513288742236432 $269 14.513288742236432 $159 $270 forward 7 unknown #
face $-1 $271 $272 $36 $-1 $273 reversed single #
loop $-1 $-1 $274 $100 #
plane-surface $-1 -149.59759030087662 10.144414250666273 127.67279835844326 0 -1 0 0.54463904215088732 0 -0.83867056331134215 forward_v I I I I #
coedge $-1 $275 $276 $277 $278 reversed $101 $-1 #
coedge $-1 $166 $103 $279 $280 reversed $65 $-1 #
coedge $-1 $103 $165 $275 $281 reversed $65 $-1 #
coedge $-1 $277 $282 $103 $168 forward $283 $-1 #
edge $-1 $284 3.1962682178536994 $285 13.886555059780989 $167 $286 forward 7 unknown #
loop $-1 $-1 $174 $104 #
plane-surface $-1 -71.60252693258461 3.9676773179495655 7.5709351643106686 -0.54463904215088732 0 0.83867056331134215 0.83867056331134215 0 0.54463904215088732 forward_v I I I I #
loop $-1 $-1 $287 $67 #
coedge $-1 $172 $172 $173 $288 reversed $105 $-1 #
coedge $-1 $173 $173 $172 $288 forward $107 $-1 #
coedge $-1 $174 $174 $108 $175 forward $169 $-1 #
edge $-1 $289 0 $289 6.2831853071796004 $174 $290 forward 7 unknown #
face $-1 $291 $292 $38 $-1 $293 forward single #
loop $-1 $-1 $294 $109 #
plane-surface $-1 96.283817307507107 -12.516864271808817 208.99218208095837 0 1 0 0.78801076186113728 0 0.61566146476048833 forward_v I I I I #
coedge $-1 $295 $296 $297 $298 reversed $110 $-1 #
coedge $-1 $181 $112 $299 $300 reversed $71 $-1 #
coedge $-1 $112 $180 $295 $301 reversed $71 $-1 #
coedge $-1 $297 $302 $112 $183 forward $292 $-1 #
edge $-1 $303 -23.460618278831056 $304 -18.355648537436657 $182 $305 forward 7 unknown #
loop $-1 $-1 $189 $113 #
plane-surface $-1 -16.563306291150084 -8.5449364891654795 120.82634885722366 0.78801076186113728 0 0.61566146476048833 0.61566146476048833 0 -0.78801076186113728 forward_v I I I I #
loop $-1 $-1 $306 $73 #
coedge $-1 $187 $187 $188 $307 reversed $114 $-1 #
coedge $-1 $188 $188 $187 $307 forward $116 $-1 #
coedge $-1 $189 $189 $117 $190 forward $184 $-1 #
edge $-1 $308 0 $308 6.2831853071796004 $189 $309 forward 7 unknown #
loop $-1 $-1 $196 $118 #
plane-surface $-1 -16.563306291150084 -8.5449364891654795 120.82634885722366 0.78801076186113728 0 0.61566146476048833 0.61566146476048833 0 -0.78801076186113728 forward_v I I I I #
loop $-1 $-1 $310 $76 #
coedge $-1 $194 $194 $195 $311 reversed $119 $-1 #
coedge $-1 $195 $195 $194 $311 forward $121 $-1 #
coedge $-1 $196 $196 $122 $197 forward $191 $-1 #
edge $-1 $312 0 $312 6.2831853071796004 $196 $313 forward 7 unknown #
face $-1 $314 $315 $41 $-1 $316 reversed single #
loop $-1 $-1 $317 $123 #
plane-surface $-1 96.283817307507107 16.707125806003145 208.99218208095837 0 1 0 0.78801076186113728 0 0.61566146476048833 forward_v I I I I #
coedge $-1 $318 $319 $320 $321 reversed $124 $-1 #
coedge $-1 $203 $126 $322 $323 reversed $80 $-1 #
coedge $-1 $126 $202 $318 $324 reversed $80 $-1 #
coedge $-1 $320 $325 $126 $205 forward $326 $-1 #
edge $-1 $327 -23.460618278831056 $328 -18.355648537436657 $204 $329 forward 7 unknown #
loop $-1 $-1 $211 $127 #
plane-surface $-1 -16.563306291150084 20.679053588646482 120.82634885722366 0.78801076186113728 0 0.61566146476048833 0.61566146476048833 0 -0.78801076186113728 forward_v I I I I #
loop $-1 $-1 $330 $82 #
coedge $-1 $209 $209 $210 $331 reversed $128 $-1 #
coedge $-1 $210 $210 $209 $331 forward $130 $-1 #
coedge $-1 $211 $211 $131 $212 forward $206 $-1 #
edge $-1 $332 0 $332 6.2831853071796004 $211 $333 forward 7 unknown #
loop $-1 $-1 $218 $132 #
plane-surface $-1 -16.563306291150084 20.679053588646482 120.82634885722366 0.78801076186113728 0 0.61566146476048833 0.61566146476048833 0 -0.78801076186113728 forward_v I I I I #
loop $-1 $-1 $334 $85 #
coedge $-1 $216 $216 $217 $335 reversed $133 $-1 #
coedge $-1 $217 $217 $216 $335 forward $135 $-1 #
coedge $-1 $218 $218 $136 $219 forward $213 $-1 #
edge $-1 $336 0 $336 6.2831853071796004 $218 $337 forward 7 unknown #
face $-1 $338 $339 $33 $-1 $340 reversed single #
loop $-1 $-1 $341 $137 #
plane-surface $-1 -71.60252693258461 0 0 1 0 0 0 0 -1 forward_v I I I I #
coedge $-1 $342 $231 $343 $344 forward $138 $-1 #
coedge $-1 $345 $140 $342 $346 forward $89 $-1 #
coedge $-1 $140 $345 $347 $348 forward $89 $-1 #
coedge $-1 $234 $233 $140 $227 reversed $235 $-1 #
edge $-1 $349 -45.618722273934836 $350 45.618722273934836 $226 $351 forward 7 unknown #
coedge $-1 $142 $141 $352 $353 forward $56 $-1 #
coedge $-1 $354 $355 $141 $230 reversed $339 $-1 #
edge $-1 $237 -71.60252693258461 $356 71.60252693258461 $229 $357 forward 7 unknown #
coedge $-1 $223 $358 $142 $232 reversed $138 $-1 #
edge $-1 $359 -71.60252693258461 $236 71.60252693258461 $231 $360 forward 7 unknown #
coedge $-1 $226 $143 $358 $361 forward $235 $-1 #
coedge $-1 $143 $226 $354 $362 reversed $235 $-1 #
loop $-1 $-1 $233 $338 #
vertex $-1 $144 $363 #
vertex $-1 $144 $364 #
straight-curve $-1 71.60252693258461 0 14.513288742236432 0 1 0 I I #
face $-1 $365 $366 $34 $-1 $367 reversed single #
loop $-1 $-1 $368 $145 #
plane-surface $-1 0 0 14.513288742236432 0 0 1 1 0 0 forward_v I I I I #
coedge $-1 $369 $370 $371 $372 reversed $146 $-1 #
coedge $-1 $151 $148 $373 $374 reversed $93 $-1 #
coedge $-1 $148 $151 $375 $376 reversed $93 $-1 #
coedge $-1 $370 $369 $148 $246 reversed $146 $-1 #
edge $-1 $377 -14.513288742236432 $378 14.513288742236432 $245 $379 forward 7 unknown #
coedge $-1 $150 $149 $380 $381 reversed $59 $-1 #
coedge $-1 $373 $382 $149 $249 forward $366 $-1 #
edge $-1 $383 -26.908044185998136 $253 -10.513311989875262 $248 $384 forward 7 unknown #
coedge $-1 $385 $375 $150 $251 forward $240 $-1 #
edge $-1 $252 10.513311989875262 $386 26.908044185998136 $250 $387 forward 7 unknown #
vertex $-1 $251 $388 #
vertex $-1 $249 $389 #
straight-curve $-1 -45.575949448111743 -29.223990077811962 0 0 0 -1 I I #
face $-1 $390 $391 $35 $-1 $392 forward single #
loop $-1 $-1 $393 $153 #
plane-surface $-1 0 0 -14.513288742236432 0 0 1 1 0 0 forward_v I I I I #
coedge $-1 $394 $395 $263 $396 forward $154 $-1 #
coedge $-1 $159 $156 $397 $398 reversed $97 $-1 #
coedge $-1 $156 $159 $399 $400 reversed $97 $-1 #
coedge $-1 $401 $402 $156 $262 forward $403 $-1 #
edge $-1 $404 -14.513288742236432 $405 14.513288742236432 $261 $406 forward 7 unknown #
coedge $-1 $158 $157 $258 $396 reversed $62 $-1 #
coedge $-1 $397 $393 $157 $265 forward $256 $-1 #
edge $-1 $407 20.537974724055871 $269 23.537974724055871 $264 $408 forward 7 unknown #
coedge $-1 $409 $399 $158 $267 forward $391 $-1 #
edge $-1 $268 -23.537974724055871 $410 -20.537974724055871 $266 $411 forward 7 unknown #
vertex $-1 $267 $412 #
vertex $-1 $265 $413 #
straight-curve $-1 -45.575949448111743 29.223990077811962 0 0 0 -1 I I #
face $-1 $-1 $283 $36 $-1 $414 forward single #
loop $-1 $-1 $415 $161 #
plane-surface $-1 -71.60252693258461 0 0 1 0 0 0 0 -1 forward_v I I I I #
coedge $-1 $416 $417 $418 $419 reversed $162 $-1 #
coedge $-1 $420 $164 $166 $281 forward $101 $-1 #
coedge $-1 $164 $420 $416 $421 forward $101 $-1 #
coedge $-1 $418 $167 $164 $278 forward $283 $-1 #
edge $-1 $285 -4.1928982737419247 $422 8.1605755916914902 $277 $423 forward 7 unknown #
coedge $-1 $424 $425 $165 $280 forward $272 $-1 #
edge $-1 $426 -56.265464014910961 $284 -49.323110436985196 $279 $427 forward 7 unknown #
edge $-1 $285 -12.746705690633261 $426 0 $166 $428 forward 7 unknown #
coedge $-1 $167 $418 $424 $429 forward $283 $-1 #
loop $-1 $-1 $418 $271 #
vertex $-1 $280 $430 #
vertex $-1 $168 $431 #
straight-curve $-1 -74.798795150438309 -2.209059614767142 14.513288742236433 1 0 0 I I #
coedge $-1 $287 $287 $-1 $432 reversed $171 $-1 #
edge $-1 $433 0 $433 6.2831853071796004 $172 $434 forward 7 unknown #
vertex $-1 $175 $435 #
ellipse-curve $-1 -66.257383511620972 3.9676773179495655 11.042111953273547 -0.54463904215088732 0 0.83867056331134215 2.0966764082783556 0 1.3615976053772183 1 I I #
face $-1 $-1 $436 $38 $-1 $437 reversed single #
loop $-1 $-1 $182 $176 #
plane-surface $-1 0 0 14.513288742236432 0 0 1 1 0 0 forward_v I I I I #
coedge $-1 $438 $439 $440 $441 reversed $177 $-1 #
coedge $-1 $442 $179 $181 $301 forward $110 $-1 #
coedge $-1 $179 $442 $438 $443 forward $110 $-1 #
coedge $-1 $440 $182 $179 $298 forward $292 $-1 #
edge $-1 $304 0.30054046193940209 $444 8.2443960272260775 $297 $445 forward 7 unknown #
coedge $-1 $446 $447 $180 $300 forward $436 $-1 #
edge $-1 $448 -96.516865781912699 $303 -89.98280229824276 $299 $449 forward 7 unknown #
edge $-1 $304 134.91320837280855 $448 143.20505386516919 $181 $450 forward 7 unknown #
coedge $-1 $182 $440 $446 $451 forward $292 $-1 #
vertex $-1 $183 $452 #
vertex $-1 $183 $453 #
straight-curve $-1 48.141908653753553 -4.5730087065221419 14.513288742236426 -1 0 0 I I #
coedge $-1 $306 $306 $-1 $454 reversed $186 $-1 #
edge $-1 $455 0 $455 6.2831853071796004 $187 $456 forward 7 unknown #
vertex $-1 $190 $457 #
ellipse-curve $-1 69.050042061887424 -10.247191253155478 11.246257000401426 0.78801076186113728 0 0.61566146476048833 0.30783073238024417 0 -0.39400538093056864 1 I I #
coedge $-1 $310 $310 $-1 $458 reversed $193 $-1 #
edge $-1 $459 0 $459 6.2831853071796004 $194 $460 forward 7 unknown #
vertex $-1 $197 $461 #
ellipse-curve $-1 69.050042061887424 -6.8426817251754741 11.246257000401426 0.78801076186113728 0 0.61566146476048833 0.30783073238024417 0 -0.39400538093056864 1 I I #
face $-1 $-1 $326 $41 $-1 $462 forward single #
loop $-1 $-1 $463 $198 #
plane-surface $-1 71.60252693258461 0 0 -1 0 0 0 0 1 forward_v I I I I #
coedge $-1 $464 $465 $466 $467 reversed $199 $-1 #
coedge $-1 $468 $201 $203 $324 forward $124 $-1 #
coedge $-1 $201 $468 $464 $469 forward $124 $-1 #
coedge $-1 $466 $204 $201 $321 forward $326 $-1 #
edge $-1 $328 -14.311454576966579 $470 -6.3675990116799035 $320 $471 forward 7 unknown #
coedge $-1 $472 $473 $202 $323 forward $315 $-1 #
edge $-1 $474 -96.516865781912699 $327 -89.98280229824276 $322 $475 forward 7 unknown #
edge $-1 $328 134.91320837280855 $474 143.20505386516919 $203 $476 forward 7 unknown #
coedge $-1 $204 $466 $472 $477 forward $326 $-1 #
loop $-1 $-1 $466 $314 #
vertex $-1 $323 $478 #
vertex $-1 $205 $479 #
straight-curve $-1 48.141908653753553 24.65098137128982 14.513288742236426 -1 0 0 I I #
coedge $-1 $330 $330 $-1 $480 reversed $208 $-1 #
edge $-1 $481 0 $481 6.2831853071796004 $209 $482 forward 7 unknown #
vertex $-1 $212 $483 #
ellipse-curve $-1 69.050042061887424 18.976798824656484 11.246257000401426 0.78801076186113728 0 0.61566146476048833 0.30783073238024417 0 -0.39400538093056864 1 I I #
coedge $-1 $334 $334 $-1 $484 reversed $215 $-1 #
edge $-1 $485 0 $485 6.2831853071796004 $216 $486 forward 7 unknown #
vertex $-1 $219 $487 #
ellipse-curve $-1 69.050042061887424 22.381308352636481 11.246257000401426 0.78801076186113728 0 0.61566146476048833 0.30783073238024417 0 -0.39400538093056864 1 I I #
face $-1 $-1 $235 $33 $-1 $488 reversed single #
loop $-1 $-1 $354 $220 #
plane-surface $-1 0 45.618722273934836 0 0 -1 0 0 0 -1 forward_v I I I I #
coedge $-1 $489 $352 $355 $490 forward $221 $-1 #
coedge $-1 $358 $223 $224 $346 reversed $138 $-1 #
coedge $-1 $352 $489 $223 $344 reversed $221 $-1 #
edge $-1 $359 -14.513288742236432 $491 14.513288742236432 $343 $492 forward 7 unknown #
coedge $-1 $225 $224 $489 $493 forward $89 $-1 #
edge $-1 $350 -71.60252693258461 $491 71.60252693258461 $342 $494 forward 7 unknown #
coedge $-1 $355 $354 $225 $348 reversed $339 $-1 #
edge $-1 $495 -71.60252693258461 $349 71.60252693258461 $347 $496 forward 7 unknown #
vertex $-1 $227 $497 #
vertex $-1 $361 $498 #
straight-curve $-1 71.60252693258461 0 -14.513288742236432 0 -1 0 I I #
coedge $-1 $341 $343 $228 $353 reversed $221 $-1 #
edge $-1 $356 -45.618722273934836 $359 45.618722273934836 $352 $499 forward 7 unknown #
coedge $-1 $347 $229 $234 $362 forward $339 $-1 #
coedge $-1 $229 $347 $341 $490 reversed $339 $-1 #
vertex $-1 $230 $500 #
straight-curve $-1 0 45.618722273934836 14.513288742236432 -1 0 0 I I #
coedge $-1 $231 $342 $233 $361 reversed $138 $-1 #
vertex $-1 $353 $501 #
straight-curve $-1 0 -45.618722273934836 14.513288742236432 1 0 0 I I #
edge $-1 $236 -14.513288742236432 $350 14.513288742236432 $233 $502 forward 7 unknown #
edge $-1 $237 -14.513288742236432 $349 14.513288742236432 $234 $503 forward 7 unknown #
point $-1 71.60252693258461 -45.618722273934836 14.513288742236432 #
point $-1 71.60252693258461 45.618722273934836 14.513288742236432 #
face $-1 $-1 $504 $34 $-1 $505 reversed single #
loop $-1 $-1 $506 $239 #
plane-surface $-1 0 0 -14.513288742236432 0 0 1 1 0 0 forward_v I I I I #
coedge $-1 $375 $385 $370 $507 forward $240 $-1 #
coedge $-1 $245 $242 $506 $508 reversed $146 $-1 #
coedge $-1 $242 $245 $368 $507 reversed $146 $-1 #
coedge $-1 $509 $510 $242 $372 forward $504 $-1 #
edge $-1 $511 -14.513288742236432 $512 14.513288742236432 $371 $513 forward 7 unknown #
coedge $-1 $506 $248 $243 $374 forward $366 $-1 #
edge $-1 $253 -23.537974724055871 $378 -20.537974724055871 $373 $514 forward 7 unknown #
coedge $-1 $250 $368 $244 $376 forward $240 $-1 #
edge $-1 $377 20.537974724055871 $252 23.537974724055871 $375 $515 forward 7 unknown #
vertex $-1 $376 $516 #
vertex $-1 $374 $517 #
straight-curve $-1 -42.575949448111743 -29.223990077811962 0 0 0 -1 I I #
coedge $-1 $510 $509 $247 $381 forward $504 $-1 #
edge $-1 $386 -14.513288742236432 $383 14.513288742236432 $380 $518 forward 7 unknown #
coedge $-1 $248 $506 $510 $519 forward $366 $-1 #
vertex $-1 $249 $520 #
straight-curve $-1 -45.575949448111743 -18.710678087936699 -14.513288742236432 0 1 0 I I #
coedge $-1 $368 $250 $509 $521 forward $240 $-1 #
vertex $-1 $521 $522 #
straight-curve $-1 -45.575949448111743 -18.710678087936699 14.513288742236432 0 -1 0 I I #
point $-1 -45.575949448111743 -29.223990077811962 14.513288742236432 #
point $-1 -45.575949448111743 -29.223990077811962 -14.513288742236432 #
face $-1 $-1 $403 $35 $-1 $523 reversed single #
loop $-1 $-1 $409 $255 #
plane-surface $-1 0 0 14.513288742236432 0 0 1 1 0 0 forward_v I I I I #
coedge $-1 $264 $524 $394 $525 forward $256 $-1 #
coedge $-1 $526 $258 $393 $525 reversed $154 $-1 #
coedge $-1 $258 $526 $409 $527 reversed $154 $-1 #
edge $-1 $410 -14.513288742236432 $407 14.513288742236432 $258 $528 forward 7 unknown #
coedge $-1 $524 $264 $259 $398 forward $256 $-1 #
edge $-1 $269 10.513311989875262 $404 26.908044185998136 $397 $529 forward 7 unknown #
coedge $-1 $266 $530 $260 $400 forward $391 $-1 #
edge $-1 $405 -26.908044185998136 $268 -10.513311989875262 $399 $531 forward 7 unknown #
coedge $-1 $532 $261 $530 $533 reversed $403 $-1 #
coedge $-1 $261 $532 $524 $534 reversed $403 $-1 #
loop $-1 $-1 $532 $390 #
vertex $-1 $534 $535 #
vertex $-1 $262 $536 #
straight-curve $-1 -45.575949448111743 45.618722273934836 0 0 0 1 I I #
vertex $-1 $265 $537 #
straight-curve $-1 -22.037974724055871 29.223990077811962 -14.513288742236432 -1 0 0 I I #
coedge $-1 $530 $266 $395 $527 forward $391 $-1 #
vertex $-1 $267 $538 #
straight-curve $-1 -22.037974724055871 29.223990077811962 14.513288742236432 1 0 0 I I #
point $-1 -45.575949448111743 29.223990077811962 14.513288742236432 #
point $-1 -45.575949448111743 29.223990077811962 -14.513288742236432 #
plane-surface $-1 0 0 14.513288742236432 0 0 1 1 0 0 forward_v I I I I #
coedge $-1 $425 $424 $417 $539 forward $272 $-1 #
coedge $-1 $417 $274 $276 $421 reversed $162 $-1 #
coedge $-1 $274 $416 $415 $539 reversed $162 $-1 #
coedge $-1 $282 $277 $274 $419 forward $283 $-1 #
edge $-1 $422 -13.886555059780989 $540 -3.1962682178536994 $418 $541 forward 7 unknown #
coedge $-1 $276 $275 $425 $542 reversed $101 $-1 #
edge $-1 $543 0 $422 12.746705690633261 $416 $544 forward 7 unknown #
vertex $-1 $278 $545 #
straight-curve $-1 -60.912240090657328 1.9838386589747827 14.513288742236432 0 1 0 I I #
coedge $-1 $415 $279 $282 $429 reversed $272 $-1 #
coedge $-1 $279 $415 $420 $542 forward $272 $-1 #
vertex $-1 $280 $546 #
straight-curve $-1 -71.60252693258461 -2.209059614767142 63.83639917922163 0 0 1 I I #
straight-curve $-1 -71.60252693258461 -2.209059614767142 7.5709351643106686 -0.83867056331134215 0 -0.54463904215088732 I I #
edge $-1 $540 -10.144414250666273 $284 2.209059614767142 $424 $547 forward 7 unknown #
point $-1 -71.60252693258461 -2.209059614767142 14.513288742236432 #
point $-1 -60.91224009065732 -2.209059614767142 14.513288742236432 #
edge $-1 $548 1 $548 0 $287 $-1 forward 7 unknown #
vertex $-1 $288 $549 #
ellipse-curve $-1 -63.088688623531141 3.9676773179495655 6.1627498049760119 -0.54463904215088732 0 0.83867056331134215 2.0966764082783556 0 1.3615976053772183 1 I I #
point $-1 -64.160707103342631 3.9676773179495655 12.403709558650782 #
loop $-1 $-1 $299 $291 #
plane-surface $-1 71.60252693258461 0 0 -1 0 0 0 0 1 forward_v I I I I #
coedge $-1 $439 $294 $296 $443 reversed $177 $-1 #
coedge $-1 $294 $438 $550 $551 reversed $177 $-1 #
coedge $-1 $302 $297 $294 $441 forward $292 $-1 #
edge $-1 $444 18.355648537436657 $552 23.460618278831056 $440 $553 forward 7 unknown #
coedge $-1 $296 $295 $447 $554 reversed $110 $-1 #
edge $-1 $555 -143.20505386516919 $444 -134.91320837280855 $438 $556 forward 7 unknown #
vertex $-1 $298 $557 #
straight-curve $-1 66.497557191190225 -4.2724682445827398 14.513288742236426 0 -1 0 I I #
coedge $-1 $550 $299 $302 $451 reversed $436 $-1 #
coedge $-1 $299 $550 $442 $554 forward $436 $-1 #
vertex $-1 $300 $558 #
straight-curve $-1 71.60252693258461 -4.5730087065221419 104.49609104047919 0 0 1 I I #
straight-curve $-1 -16.563306291150084 -4.5730087065221419 120.82634885722366 0.61566146476048833 0 -0.78801076186113728 I I #
edge $-1 $552 -12.516864271808817 $303 -4.5730087065221419 $446 $559 forward 7 unknown #
point $-1 71.60252693258461 -4.5730087065221419 14.513288742236432 #
point $-1 66.497557191190211 -4.5730087065221419 14.513288742236426 #
edge $-1 $560 1 $560 0 $306 $-1 forward 7 unknown #
vertex $-1 $307 $561 #
ellipse-curve $-1 67.725920886842601 -10.247191253155478 10.211740187175305 0.78801076186113728 0 0.61566146476048833 0.30783073238024417 0 -0.39400538093056864 1 I I #
point $-1 69.357872794267649 -10.247191253155478 10.85225161947085 #
edge $-1 $562 1 $562 0 $310 $-1 forward 7 unknown #
vertex $-1 $311 $563 #
ellipse-curve $-1 67.725920886842601 -6.8426817251754741 10.211740187175305 0.78801076186113728 0 0.61566146476048833 0.30783073238024417 0 -0.39400538093056864 1 I I #
point $-1 69.357872794267649 -6.8426817251754741 10.85225161947085 #
plane-surface $-1 0 0 14.513288742236432 0 0 1 1 0 0 forward_v I I I I #
coedge $-1 $473 $472 $465 $564 forward $315 $-1 #
coedge $-1 $465 $317 $319 $469 reversed $199 $-1 #
coedge $-1 $317 $464 $463 $564 reversed $199 $-1 #
coedge $-1 $325 $320 $317 $467 forward $326 $-1 #
edge $-1 $470 18.355648537436657 $565 23.460618278831056 $466 $566 forward 7 unknown #
coedge $-1 $319 $318 $473 $567 reversed $124 $-1 #
edge $-1 $568 -143.20505386516919 $470 -134.91320837280855 $464 $569 forward 7 unknown #
vertex $-1 $321 $570 #
straight-curve $-1 66.497557191190225 10.339526794323241 14.513288742236426 0 -1 0 I I #
coedge $-1 $463 $322 $325 $477 reversed $315 $-1 #
coedge $-1 $322 $463 $468 $567 forward $315 $-1 #
vertex $-1 $323 $571 #
straight-curve $-1 71.60252693258461 24.65098137128982 104.49609104047919 0 0 1 I I #
straight-curve $-1 -16.563306291150084 24.65098137128982 120.82634885722366 0.61566146476048833 0 -0.78801076186113728 I I #
edge $-1 $565 16.707125806003145 $327 24.65098137128982 $472 $572 forward 7 unknown #
point $-1 71.60252693258461 24.65098137128982 14.513288742236432 #
point $-1 66.497557191190211 24.65098137128982 14.513288742236426 #
edge $-1 $573 1 $573 0 $330 $-1 forward 7 unknown #
vertex $-1 $331 $574 #
ellipse-curve $-1 67.725920886842601 18.976798824656484 10.211740187175305 0.78801076186113728 0 0.61566146476048833 0.30783073238024417 0 -0.39400538093056864 1 I I #
point $-1 69.357872794267649 18.976798824656484 10.85225161947085 #
edge $-1 $575 1 $575 0 $334 $-1 forward 7 unknown #
vertex $-1 $335 $576 #
ellipse-curve $-1 67.725920886842601 22.381308352636481 10.211740187175305 0.78801076186113728 0 0.61566146476048833 0.30783073238024417 0 -0.39400538093056864 1 I I #
point $-1 69.357872794267649 22.381308352636481 10.85225161947085 #
plane-surface $-1 71.60252693258461 0 0 -1 0 0 0 0 1 forward_v I I I I #
coedge $-1 $343 $341 $345 $493 reversed $221 $-1 #
edge $-1 $356 -14.513288742236432 $495 14.513288742236432 $355 $577 forward 7 unknown #
vertex $-1 $493 $578 #
straight-curve $-1 -71.60252693258461 -45.618722273934836 0 0 0 -1 I I #
edge $-1 $491 -45.618722273934836 $495 45.618722273934836 $489 $579 forward 7 unknown #
straight-curve $-1 0 -45.618722273934836 -14.513288742236432 -1 0 0 I I #
vertex $-1 $348 $580 #
straight-curve $-1 0 45.618722273934836 -14.513288742236432 1 0 0 I I #
point $-1 71.60252693258461 45.618722273934836 -14.513288742236432 #
point $-1 71.60252693258461 -45.618722273934836 -14.513288742236432 #
straight-curve $-1 -71.60252693258461 0 14.513288742236432 0 -1 0 I I #
point $-1 -71.60252693258461 45.618722273934836 14.513288742236432 #
point $-1 -71.60252693258461 -45.618722273934836 14.513288742236432 #
straight-curve $-1 71.60252693258461 -45.618722273934836 0 0 0 -1 I I #
straight-curve $-1 71.60252693258461 45.618722273934836 0 0 0 -1 I I #
loop $-1 $-1 $371 $365 #
plane-surface $-1 0 -45.618722273934836 0 0 1 0 0 0 1 forward_v I I I I #
coedge $-1 $382 $373 $369 $508 forward $366 $-1 #
edge $-1 $512 -26.908044185998136 $377 -10.513311989875262 $368 $581 forward 7 unknown #
edge $-1 $378 10.513311989875262 $511 26.908044185998136 $506 $582 forward 7 unknown #
coedge $-1 $380 $371 $385 $521 reversed $504 $-1 #
coedge $-1 $371 $380 $382 $519 reversed $504 $-1 #
vertex $-1 $519 $583 #
vertex $-1 $372 $584 #
straight-curve $-1 -42.575949448111743 -45.618722273934836 0 0 0 1 I I #
straight-curve $-1 -22.037974724055871 -29.223990077811962 -14.513288742236432 1 0 0 I I #
straight-curve $-1 -22.037974724055871 -29.223990077811962 14.513288742236432 -1 0 0 I I #
point $-1 -42.575949448111743 -29.223990077811962 14.513288742236432 #
point $-1 -42.575949448111743 -29.223990077811962 -14.513288742236432 #
straight-curve $-1 -45.575949448111743 -45.618722273934836 0 0 0 -1 I I #
edge $-1 $511 42.575949448111743 $383 45.575949448111743 $510 $585 forward 7 unknown #
point $-1 -45.575949448111743 -45.618722273934836 -14.513288742236432 #
edge $-1 $386 -45.575949448111743 $512 -42.575949448111743 $509 $586 forward 7 unknown #
point $-1 -45.575949448111743 -45.618722273934836 14.513288742236432 #
plane-surface $-1 0 45.618722273934836 0 0 -1 0 0 0 -1 forward_v I I I I #
coedge $-1 $393 $397 $402 $534 forward $256 $-1 #
edge $-1 $587 -26.908044185998136 $407 -10.513311989875262 $393 $588 forward 7 unknown #
coedge $-1 $395 $394 $532 $589 reversed $154 $-1 #
edge $-1 $410 10.513311989875262 $590 26.908044185998136 $409 $591 forward 7 unknown #
straight-curve $-1 -42.575949448111743 29.223990077811962 0 0 0 -1 I I #
straight-curve $-1 -45.575949448111743 18.710678087936699 -14.513288742236432 0 1 0 I I #
coedge $-1 $399 $409 $401 $533 forward $391 $-1 #
straight-curve $-1 -45.575949448111743 18.710678087936699 14.513288742236432 0 -1 0 I I #
coedge $-1 $402 $401 $526 $589 forward $403 $-1 #
edge $-1 $590 42.575949448111743 $405 45.575949448111743 $401 $592 forward 7 unknown #
edge $-1 $404 -45.575949448111743 $587 -42.575949448111743 $402 $593 forward 7 unknown #
point $-1 -45.575949448111743 45.618722273934836 -14.513288742236432 #
point $-1 -45.575949448111743 45.618722273934836 14.513288742236432 #
point $-1 -42.575949448111743 29.223990077811962 -14.513288742236432 #
point $-1 -42.575949448111743 29.223990077811962 14.513288742236432 #
edge $-1 $540 49.323110436985196 $543 56.265464014910961 $415 $594 forward 7 unknown #
vertex $-1 $429 $595 #
straight-curve $-1 -74.798795150438309 10.144414250666273 14.513288742236433 -1 0 0 I I #
edge $-1 $543 -8.1605755916914902 $426 4.1928982737419247 $425 $596 forward 7 unknown #
vertex $-1 $542 $597 #
straight-curve $-1 -71.60252693258461 10.144414250666273 7.5709351643106686 0.83867056331134215 0 0.54463904215088732 I I #
point $-1 -60.91224009065732 10.144414250666273 14.513288742236432 #
point $-1 -71.60252693258461 -2.209059614767142 7.5709351643106686 #
straight-curve $-1 -71.60252693258461 0 14.513288742236432 0 -1 0 I I #
vertex $-1 $432 $598 #
point $-1 -60.992012215252785 3.9676773179495655 7.5243474103532302 #
coedge $-1 $447 $446 $439 $551 forward $436 $-1 #
edge $-1 $552 89.98280229824276 $555 96.516865781912699 $550 $599 forward 7 unknown #
vertex $-1 $451 $600 #
straight-curve $-1 48.141908653753553 -12.516864271808817 14.513288742236426 1 0 0 I I #
edge $-1 $555 -8.2443960272260775 $448 -0.30054046193940209 $447 $601 forward 7 unknown #
vertex $-1 $554 $602 #
straight-curve $-1 -16.563306291150084 -12.516864271808817 120.82634885722366 -0.61566146476048833 0 0.78801076186113728 I I #
point $-1 66.497557191190211 -12.516864271808817 14.513288742236426 #
point $-1 71.60252693258461 -4.5730087065221419 7.9792252585664869 #
straight-curve $-1 71.60252693258461 0 14.513288742236432 0 1 0 I I #
vertex $-1 $454 $603 #
point $-1 68.033751619222841 -10.247191253155478 9.8177348062447365 #
vertex $-1 $458 $604 #
point $-1 68.033751619222841 -6.8426817251754741 9.8177348062447365 #
edge $-1 $565 89.98280229824276 $568 96.516865781912699 $463 $605 forward 7 unknown #
vertex $-1 $477 $606 #
straight-curve $-1 48.141908653753553 16.707125806003145 14.513288742236426 1 0 0 I I #
edge $-1 $568 6.3675990116799035 $474 14.311454576966579 $473 $607 forward 7 unknown #
vertex $-1 $567 $608 #
straight-curve $-1 -16.563306291150084 16.707125806003145 120.82634885722366 -0.61566146476048833 0 0.78801076186113728 I I #
point $-1 66.497557191190211 16.707125806003145 14.513288742236426 #
point $-1 71.60252693258461 24.65098137128982 7.9792252585664869 #
straight-curve $-1 71.60252693258461 0 14.513288742236432 0 1 0 I I #
vertex $-1 $480 $609 #
point $-1 68.033751619222841 18.976798824656484 9.8177348062447365 #
vertex $-1 $484 $610 #
point $-1 68.033751619222841 22.381308352636481 9.8177348062447365 #
straight-curve $-1 -71.60252693258461 45.618722273934836 0 0 0 -1 I I #
point $-1 -71.60252693258461 -45.618722273934836 -14.513288742236432 #
straight-curve $-1 -71.60252693258461 0 -14.513288742236432 0 1 0 I I #
point $-1 -71.60252693258461 45.618722273934836 -14.513288742236432 #
straight-curve $-1 -42.575949448111743 -18.710678087936699 14.513288742236432 0 1 0 I I #
straight-curve $-1 -42.575949448111743 -18.710678087936699 -14.513288742236432 0 -1 0 I I #
point $-1 -42.575949448111743 -45.618722273934836 -14.513288742236432 #
point $-1 -42.575949448111743 -45.618722273934836 14.513288742236432 #
straight-curve $-1 0 -45.618722273934836 -14.513288742236432 -1 0 0 I I #
straight-curve $-1 0 -45.618722273934836 14.513288742236432 1 0 0 I I #
vertex $-1 $589 $611 #
straight-curve $-1 -42.575949448111743 18.710678087936699 -14.513288742236432 0 -1 0 I I #
edge $-1 $590 -14.513288742236432 $587 14.513288742236432 $532 $612 forward 7 unknown #
vertex $-1 $533 $613 #
straight-curve $-1 -42.575949448111743 18.710678087936699 14.513288742236432 0 1 0 I I #
straight-curve $-1 0 45.618722273934836 14.513288742236432 -1 0 0 I I #
straight-curve $-1 0 45.618722273934836 -14.513288742236432 1 0 0 I I #
straight-curve $-1 -71.60252693258461 10.144414250666273 63.83639917922163 0 0 -1 I I #
point $-1 -71.60252693258461 10.144414250666273 14.513288742236432 #
straight-curve $-1 -71.60252693258461 1.9838386589747827 7.5709351643106704 0 -1 0 I I #
point $-1 -71.60252693258461 10.144414250666273 7.5709351643106686 #
point $-1 -61.727091018153928 3.9676773179495655 4.0660733966976546 #
straight-curve $-1 71.60252693258461 -12.516864271808817 104.49609104047919 0 0 -1 I I #
point $-1 71.60252693258461 -12.516864271808817 14.513288742236432 #
straight-curve $-1 71.60252693258461 -4.2724682445827398 7.9792252585665011 0 1 0 I I #
point $-1 71.60252693258461 -12.516864271808817 7.9792252585664869 #
point $-1 67.331915505912036 -10.247191253155478 9.9039094547950626 #
point $-1 67.331915505912036 -6.8426817251754741 9.9039094547950626 #
straight-curve $-1 71.60252693258461 16.707125806003145 104.49609104047919 0 0 -1 I I #
point $-1 71.60252693258461 16.707125806003145 14.513288742236432 #
straight-curve $-1 71.60252693258461 10.339526794323241 7.9792252585665011 0 1 0 I I #
point $-1 71.60252693258461 16.707125806003145 7.9792252585664869 #
point $-1 67.331915505912036 18.976798824656484 9.9039094547950626 #
point $-1 67.331915505912036 22.381308352636481 9.9039094547950626 #
point $-1 -42.575949448111743 45.618722273934836 -14.513288742236432 #
straight-curve $-1 -42.575949448111743 45.618722273934836 0 0 0 -1 I I #
point $-1 -42.575949448111743 45.618722273934836 14.513288742236432 #
End-of-ACIS-data 