500 0 18 0           
7 Unknown 11 ACIS 5.0 NT 24 Thu Mar 25 16:10:48 1999 
-1 9.9999999999999995e-007 1e-010 
body $-1 $18 $-1 $19 #
body $-1 $20 $-1 $21 #
body $-1 $22 $-1 $23 #
body $-1 $24 $-1 $25 #
body $-1 $26 $-1 $27 #
body $-1 $28 $-1 $29 #
body $-1 $30 $-1 $31 #
body $-1 $32 $-1 $33 #
body $-1 $34 $-1 $35 #
body $-1 $36 $-1 $37 #
body $-1 $38 $-1 $39 #
body $-1 $40 $-1 $41 #
body $-1 $42 $-1 $43 #
body $-1 $44 $-1 $45 #
body $-1 $46 $-1 $47 #
body $-1 $48 $-1 $49 #
body $-1 $50 $-1 $51 #
body $-1 $52 $-1 $53 #
lump $-1 $-1 $54 $0 #
transform $-1 1 0 0 0 1 0 0 0 1 68.028199102755821 41.503492093975076 20.618370464313031 1 rotate no_reflect no_shear #
lump $-1 $-1 $55 $1 #
transform $-1 1 0 0 0 1 0 0 0 1 68.028199102755821 13.363305347031634 38.462979557620528 1 rotate no_reflect no_shear #
lump $-1 $-1 $56 $2 #
transform $-1 1 0 0 0 1 0 0 0 1 68.028199102755821 69.643678840918511 38.462979557620528 1 rotate no_reflect no_shear #
lump $-1 $-1 $57 $3 #
transform $-1 0.83867056331134215 0 0.54463904215088732 0 1 0 -0.54463904215088732 0 0.83867056331134215 -74.101626397149573 29.655817221598586 143.87521384618418 1 rotate no_reflect no_shear #
lump $-1 $-1 $58 $4 #
transform $-1 0.83867056331134215 0 0.54463904215088732 0 -1 0 0.54463904215088732 0 -0.83867056331134215 9.6486936861074284 27.898293305077395 34.241440924261553 1 rotate no_reflect no_shear #
lump $-1 $-1 $59 $5 #
transform $-1 0.83867056331134215 0 0.54463904215088732 0 -1 0 0.54463904215088732 0 -0.83867056331134215 9.6486936861074284 29.655817221598586 34.241440924261553 1 rotate no_reflect no_shear #
lump $-1 $-1 $60 $6 #
transform $-1 0.83867056331134215 0 0.54463904215088732 0 -1 0 0.54463904215088732 0 -0.83867056331134215 9.6486936861074284 31.413341138119776 34.241440924261553 1 rotate no_reflect no_shear #
lump $-1 $-1 $61 $7 #
transform $-1 0.83867056331134215 0 0.54463904215088732 0 1 0 -0.54463904215088732 0 0.83867056331134215 -74.101626397149573 39.507071488206456 143.87521384618418 1 rotate no_reflect no_shear #
lump $-1 $-1 $62 $8 #
transform $-1 0.83867056331134215 0 0.54463904215088732 0 -1 0 0.54463904215088732 0 -0.83867056331134215 9.6486936861074284 37.74954757168527 34.241440924261553 1 rotate no_reflect no_shear #
lump $-1 $-1 $63 $9 #
transform $-1 0.83867056331134215 0 0.54463904215088732 0 -1 0 0.54463904215088732 0 -0.83867056331134215 9.6486936861074284 39.507071488206456 34.241440924261553 1 rotate no_reflect no_shear #
lump $-1 $-1 $64 $10 #
transform $-1 0.83867056331134215 0 0.54463904215088732 0 -1 0 0.54463904215088732 0 -0.83867056331134215 9.6486936861074284 41.26459540472765 34.241440924261553 1 rotate no_reflect no_shear #
lump $-1 $-1 $65 $11 #
transform $-1 0.83867056331134215 0 0.54463904215088732 0 1 0 -0.54463904215088732 0 0.83867056331134215 -74.101626397149573 49.358325754814331 143.87521384618418 1 rotate no_reflect no_shear #
lump $-1 $-1 $66 $12 #
transform $-1 0.83867056331134215 0 0.54463904215088732 0 -1 0 0.54463904215088732 0 -0.83867056331134215 9.6486936861074284 47.600801838293144 34.241440924261553 1 rotate no_reflect no_shear #
lump $-1 $-1 $67 $13 #
transform $-1 0.83867056331134215 0 0.54463904215088732 0 -1 0 0.54463904215088732 0 -0.83867056331134215 9.6486936861074284 49.358325754814331 34.241440924261553 1 rotate no_reflect no_shear #
lump $-1 $-1 $68 $14 #
transform $-1 0.83867056331134215 0 0.54463904215088732 0 -1 0 0.54463904215088732 0 -0.83867056331134215 9.6486936861074284 51.115849671335525 34.241440924261553 1 rotate no_reflect no_shear #
lump $-1 $-1 $69 $15 #
transform $-1 0.8660253999169214 0 -0.50000000669873634 0 1 0 0.50000000669873634 0 0.8660253999169214 86.256301552489276 52.206810692376507 208.89122985407354 1 rotate no_reflect no_shear #
lump $-1 $-1 $70 $16 #
transform $-1 0.8660253999169214 0 -0.50000000669873634 0 -1 0 -0.50000000669873634 0 -0.8660253999169214 119.7304973630725 50.460998063157774 31.161458475770324 1 rotate no_reflect no_shear #
lump $-1 $-1 $71 $17 #
transform $-1 0.8660253999169214 0 -0.50000000669873634 0 -1 0 -0.50000000669873634 0 -0.8660253999169214 119.7304973630725 53.95262332159524 31.161458475770324 1 rotate no_reflect no_shear #
shell $-1 $-1 $-1 $72 $-1 $18 #
shell $-1 $-1 $-1 $73 $-1 $20 #
shell $-1 $-1 $-1 $74 $-1 $22 #
shell $-1 $-1 $-1 $75 $-1 $24 #
shell $-1 $-1 $-1 $76 $-1 $26 #
shell $-1 $-1 $-1 $77 $-1 $28 #
shell $-1 $-1 $-1 $78 $-1 $30 #
shell $-1 $-1 $-1 $79 $-1 $32 #
shell $-1 $-1 $-1 $80 $-1 $34 #
shell $-1 $-1 $-1 $81 $-1 $36 #
shell $-1 $-1 $-1 $82 $-1 $38 #
shell $-1 $-1 $-1 $83 $-1 $40 #
shell $-1 $-1 $-1 $84 $-1 $42 #
shell $-1 $-1 $-1 $85 $-1 $44 #
shell $-1 $-1 $-1 $86 $-1 $46 #
shell $-1 $-1 $-1 $87 $-1 $48 #
shell $-1 $-1 $-1 $88 $-1 $50 #
shell $-1 $-1 $-1 $89 $-1 $52 #
face $-1 $90 $91 $54 $-1 $92 forward single #
face $-1 $93 $94 $55 $-1 $95 forward single #
face $-1 $96 $97 $56 $-1 $98 forward single #
face $-1 $99 $100 $57 $-1 $101 forward single #
face $-1 $102 $103 $58 $-1 $104 forward single #
face $-1 $105 $106 $59 $-1 $107 forward single #
face $-1 $108 $109 $60 $-1 $110 forward single #
face $-1 $111 $112 $61 $-1 $113 forward single #
face $-1 $114 $115 $62 $-1 $116 forward single #
face $-1 $117 $118 $63 $-1 $119 forward single #
face $-1 $120 $121 $64 $-1 $122 forward single #
face $-1 $123 $124 $65 $-1 $125 forward single #
face $-1 $126 $127 $66 $-1 $128 forward single #
face $-1 $129 $130 $67 $-1 $131 forward single #
face $-1 $132 $133 $68 $-1 $134 forward single #
face $-1 $135 $136 $69 $-1 $137 forward single #
face $-1 $138 $139 $70 $-1 $140 forward single #
face $-1 $141 $142 $71 $-1 $143 forward single #
face $-1 $144 $145 $54 $-1 $146 reversed single #
loop $-1 $-1 $147 $72 #
plane-surface $-1 0 0 20.618370464313031 0 0 1 1 0 0 forward_v I I I I #
face $-1 $148 $149 $55 $-1 $150 reversed single #
loop $-1 $-1 $151 $73 #
plane-surface $-1 0 0 2.7737613710055307 0 0 1 1 0 0 forward_v I I I I #
face $-1 $152 $153 $56 $-1 $154 reversed single #
loop $-1 $-1 $155 $74 #
plane-surface $-1 0 0 2.7737613710055307 0 0 1 1 0 0 forward_v I I I I #
face $-1 $156 $157 $57 $-1 $158 reversed single #
loop $-1 $-1 $159 $75 #
plane-surface $-1 0 0 136.05639820551164 0 0 1 1 0 0 forward_v I I I I #
face $-1 $160 $161 $58 $-1 $162 forward single #
loop $-1 $163 $164 $76 #
cone-surface $-1 0 0 -0.87695699942014826 0 0 1 0.5 0 0 1 I I 0 1 0.5 forward I I I I #
face $-1 $165 $166 $59 $-1 $167 forward single #
loop $-1 $168 $169 $77 #
cone-surface $-1 0 0 -0.87695699942014826 0 0 1 0.5 0 0 1 I I 0 1 0.5 forward I I I I #
face $-1 $170 $171 $60 $-1 $172 forward single #
loop $-1 $173 $174 $78 #
cone-surface $-1 0 0 -0.87695699942014826 0 0 1 0.5 0 0 1 I I 0 1 0.5 forward I I I I #
face $-1 $175 $176 $61 $-1 $177 reversed single #
loop $-1 $-1 $178 $79 #
plane-surface $-1 0 0 136.05639820551164 0 0 1 1 0 0 forward_v I I I I #
face $-1 $179 $180 $62 $-1 $181 forward single #
loop $-1 $182 $183 $80 #
cone-surface $-1 0 0 -0.87695699942014826 0 0 1 0.5 0 0 1 I I 0 1 0.5 forward I I I I #
face $-1 $184 $185 $63 $-1 $186 forward single #
loop $-1 $187 $188 $81 #
cone-surface $-1 0 0 -0.87695699942014826 0 0 1 0.5 0 0 1 I I 0 1 0.5 forward I I I I #
face $-1 $189 $190 $64 $-1 $191 forward single #
loop $-1 $192 $193 $82 #
cone-surface $-1 0 0 -0.87695699942014826 0 0 1 0.5 0 0 1 I I 0 1 0.5 forward I I I I #
face $-1 $194 $195 $65 $-1 $196 reversed single #
loop $-1 $-1 $197 $83 #
plane-surface $-1 0 0 136.05639820551164 0 0 1 1 0 0 forward_v I I I I #
face $-1 $198 $199 $66 $-1 $200 forward single #
loop $-1 $201 $202 $84 #
cone-surface $-1 0 0 -0.87695699942014826 0 0 1 0.5 0 0 1 I I 0 1 0.5 forward I I I I #
face $-1 $203 $204 $67 $-1 $205 forward single #
loop $-1 $206 $207 $85 #
cone-surface $-1 0 0 -0.87695699942014826 0 0 1 0.5 0 0 1 I I 0 1 0.5 forward I I I I #
face $-1 $208 $209 $68 $-1 $210 forward single #
loop $-1 $211 $212 $86 #
cone-surface $-1 0 0 -0.87695699942014826 0 0 1 0.5 0 0 1 I I 0 1 0.5 forward I I I I #
face $-1 $213 $214 $69 $-1 $215 reversed single #
loop $-1 $-1 $216 $87 #
plane-surface $-1 0 0 136.05639820551164 0 0 1 1 0 0 forward_v I I I I #
face $-1 $217 $218 $70 $-1 $219 forward single #
loop $-1 $220 $221 $88 #
cone-surface $-1 0 0 -0.625 0 0 1 0.25 0 0 1 I I 0 1 0.25 forward I I I I #
face $-1 $222 $223 $71 $-1 $224 forward single #
loop $-1 $225 $226 $89 #
cone-surface $-1 0 0 -0.625 0 0 1 0.25 0 0 1 I I 0 1 0.25 forward I I I I #
face $-1 $227 $228 $54 $-1 $229 reversed single #
loop $-1 $-1 $230 $90 #
plane-surface $-1 0 0 -20.618370464313031 0 0 1 1 0 0 forward_v I I I I #
coedge $-1 $231 $232 $233 $234 forward $91 $-1 #
face $-1 $235 $236 $55 $-1 $237 reversed single #
loop $-1 $-1 $238 $93 #
plane-surface $-1 0 0 -2.7737613710055307 0 0 1 1 0 0 forward_v I I I I #
coedge $-1 $239 $240 $241 $242 forward $94 $-1 #
face $-1 $243 $244 $56 $-1 $245 reversed single #
loop $-1 $-1 $246 $96 #
plane-surface $-1 0 0 -2.7737613710055307 0 0 1 1 0 0 forward_v I I I I #
coedge $-1 $247 $248 $249 $250 forward $97 $-1 #
face $-1 $251 $252 $57 $-1 $253 reversed single #
loop $-1 $-1 $254 $99 #
plane-surface $-1 0 0 -136.05639820551164 0 0 1 1 0 0 forward_v I I I I #
coedge $-1 $255 $256 $257 $258 forward $100 $-1 #
face $-1 $-1 $259 $58 $-1 $260 forward single #
loop $-1 $-1 $261 $102 #
plane-surface $-1 0 0 -1.5039139988402965 0 0 -1 -1 0 0 forward_v I I I I #
loop $-1 $-1 $262 $76 #
coedge $-1 $164 $164 $261 $263 reversed $103 $-1 #
face $-1 $-1 $264 $59 $-1 $265 forward single #
loop $-1 $-1 $266 $105 #
plane-surface $-1 0 0 -1.5039139988402965 0 0 -1 -1 0 0 forward_v I I I I #
loop $-1 $-1 $267 $77 #
coedge $-1 $169 $169 $266 $268 reversed $106 $-1 #
face $-1 $-1 $269 $60 $-1 $270 forward single #
loop $-1 $-1 $271 $108 #
plane-surface $-1 0 0 -1.5039139988402965 0 0 -1 -1 0 0 forward_v I I I I #
loop $-1 $-1 $272 $78 #
coedge $-1 $174 $174 $271 $273 reversed $109 $-1 #
face $-1 $274 $275 $61 $-1 $276 reversed single #
loop $-1 $-1 $277 $111 #
plane-surface $-1 0 0 -136.05639820551164 0 0 1 1 0 0 forward_v I I I I #
coedge $-1 $278 $279 $280 $281 forward $112 $-1 #
face $-1 $-1 $282 $62 $-1 $283 forward single #
loop $-1 $-1 $284 $114 #
plane-surface $-1 0 0 -1.5039139988402965 0 0 -1 -1 0 0 forward_v I I I I #
loop $-1 $-1 $285 $80 #
coedge $-1 $183 $183 $284 $286 reversed $115 $-1 #
face $-1 $-1 $287 $63 $-1 $288 forward single #
loop $-1 $-1 $289 $117 #
plane-surface $-1 0 0 -1.5039139988402965 0 0 -1 -1 0 0 forward_v I I I I #
loop $-1 $-1 $290 $81 #
coedge $-1 $188 $188 $289 $291 reversed $118 $-1 #
face $-1 $-1 $292 $64 $-1 $293 forward single #
loop $-1 $-1 $294 $120 #
plane-surface $-1 0 0 -1.5039139988402965 0 0 -1 -1 0 0 forward_v I I I I #
loop $-1 $-1 $295 $82 #
coedge $-1 $193 $193 $294 $296 reversed $121 $-1 #
face $-1 $297 $298 $65 $-1 $299 reversed single #
loop $-1 $-1 $300 $123 #
plane-surface $-1 0 0 -136.05639820551164 0 0 1 1 0 0 forward_v I I I I #
coedge $-1 $301 $302 $303 $304 forward $124 $-1 #
face $-1 $-1 $305 $66 $-1 $306 forward single #
loop $-1 $-1 $307 $126 #
plane-surface $-1 0 0 -1.5039139988402965 0 0 -1 -1 0 0 forward_v I I I I #
loop $-1 $-1 $308 $84 #
coedge $-1 $202 $202 $307 $309 reversed $127 $-1 #
face $-1 $-1 $310 $67 $-1 $311 forward single #
loop $-1 $-1 $312 $129 #
plane-surface $-1 0 0 -1.5039139988402965 0 0 -1 -1 0 0 forward_v I I I I #
loop $-1 $-1 $313 $85 #
coedge $-1 $207 $207 $312 $314 reversed $130 $-1 #
face $-1 $-1 $315 $68 $-1 $316 forward single #
loop $-1 $-1 $317 $132 #
plane-surface $-1 0 0 -1.5039139988402965 0 0 -1 -1 0 0 forward_v I I I I #
loop $-1 $-1 $318 $86 #
coedge $-1 $212 $212 $317 $319 reversed $133 $-1 #
face $-1 $320 $321 $69 $-1 $322 reversed single #
loop $-1 $-1 $323 $135 #
plane-surface $-1 0 0 -136.05639820551164 0 0 1 1 0 0 forward_v I I I I #
coedge $-1 $324 $325 $326 $327 forward $136 $-1 #
face $-1 $-1 $328 $70 $-1 $329 forward single #
loop $-1 $-1 $330 $138 #
plane-surface $-1 0 0 -1.125 0 0 -1 -1 0 0 forward_v I I I I #
loop $-1 $-1 $331 $88 #
coedge $-1 $221 $221 $330 $332 reversed $139 $-1 #
face $-1 $-1 $333 $71 $-1 $334 forward single #
loop $-1 $-1 $335 $141 #
plane-surface $-1 0 0 -1.125 0 0 -1 -1 0 0 forward_v I I I I #
loop $-1 $-1 $336 $89 #
coedge $-1 $226 $226 $335 $337 reversed $142 $-1 #
face $-1 $338 $339 $54 $-1 $340 reversed single #
loop $-1 $-1 $341 $144 #
plane-surface $-1 0 -41.503492093975076 0 0 1 0 0 0 1 forward_v I I I I #
coedge $-1 $342 $343 $344 $345 forward $145 $-1 #
coedge $-1 $346 $147 $347 $348 forward $91 $-1 #
coedge $-1 $147 $346 $349 $350 forward $91 $-1 #
coedge $-1 $351 $352 $147 $234 reversed $353 $-1 #
edge $-1 $354 -41.503492093975076 $355 41.503492093975076 $233 $356 forward 7 unknown #
face $-1 $357 $358 $55 $-1 $359 reversed single #
loop $-1 $-1 $360 $148 #
plane-surface $-1 0 -13.363305347031634 0 0 1 0 0 0 1 forward_v I I I I #
coedge $-1 $361 $362 $363 $364 forward $149 $-1 #
coedge $-1 $365 $151 $366 $367 forward $94 $-1 #
coedge $-1 $151 $365 $368 $369 forward $94 $-1 #
coedge $-1 $370 $371 $151 $242 reversed $372 $-1 #
edge $-1 $373 -13.363305347031634 $374 13.363305347031634 $241 $375 forward 7 unknown #
face $-1 $376 $377 $56 $-1 $378 reversed single #
loop $-1 $-1 $379 $152 #
plane-surface $-1 0 -13.363305347031634 0 0 1 0 0 0 1 forward_v I I I I #
coedge $-1 $380 $381 $382 $383 forward $153 $-1 #
coedge $-1 $384 $155 $385 $386 forward $97 $-1 #
coedge $-1 $155 $384 $387 $388 forward $97 $-1 #
coedge $-1 $389 $390 $155 $250 reversed $391 $-1 #
edge $-1 $392 -13.363305347031634 $393 13.363305347031634 $249 $394 forward 7 unknown #
face $-1 $395 $396 $57 $-1 $397 reversed single #
loop $-1 $-1 $398 $156 #
plane-surface $-1 0 -2.9292065275353174 0 0 1 0 0 0 1 forward_v I I I I #
coedge $-1 $399 $400 $401 $402 forward $157 $-1 #
coedge $-1 $403 $159 $404 $405 forward $100 $-1 #
coedge $-1 $159 $403 $406 $407 forward $100 $-1 #
coedge $-1 $408 $409 $159 $258 reversed $410 $-1 #
edge $-1 $411 -2.9292065275353174 $412 2.9292065275353174 $257 $413 forward 7 unknown #
loop $-1 $414 $415 $160 #
cone-surface $-1 0 0 0 0 0 1 0.25 0 0 1 I I -0.70710678118654746 0.70710678118654746 0.25 forward I I I I #
coedge $-1 $261 $261 $164 $263 forward $161 $-1 #
coedge $-1 $262 $262 $415 $416 forward $163 $-1 #
edge $-1 $417 0 $417 6.2831853071796004 $261 $418 forward 7 unknown #
loop $-1 $419 $420 $165 #
cone-surface $-1 0 0 0 0 0 1 0.25 0 0 1 I I -0.70710678118654746 0.70710678118654746 0.25 forward I I I I #
coedge $-1 $266 $266 $169 $268 forward $166 $-1 #
coedge $-1 $267 $267 $420 $421 forward $168 $-1 #
edge $-1 $422 0 $422 6.2831853071796004 $266 $423 forward 7 unknown #
loop $-1 $424 $425 $170 #
cone-surface $-1 0 0 0 0 0 1 0.25 0 0 1 I I -0.70710678118654746 0.70710678118654746 0.25 forward I I I I #
coedge $-1 $271 $271 $174 $273 forward $171 $-1 #
coedge $-1 $272 $272 $425 $426 forward $173 $-1 #
edge $-1 $427 0 $427 6.2831853071796004 $271 $428 forward 7 unknown #
face $-1 $429 $430 $61 $-1 $431 reversed single #
loop $-1 $-1 $432 $175 #
plane-surface $-1 0 -2.9292065275353174 0 0 1 0 0 0 1 forward_v I I I I #
coedge $-1 $433 $434 $435 $436 forward $176 $-1 #
coedge $-1 $437 $178 $438 $439 forward $112 $-1 #
coedge $-1 $178 $437 $440 $441 forward $112 $-1 #
coedge $-1 $442 $443 $178 $281 reversed $444 $-1 #
edge $-1 $445 -2.9292065275353174 $446 2.9292065275353174 $280 $447 forward 7 unknown #
loop $-1 $448 $449 $179 #
cone-surface $-1 0 0 0 0 0 1 0.25 0 0 1 I I -0.70710678118654746 0.70710678118654746 0.25 forward I I I I #
coedge $-1 $284 $284 $183 $286 forward $180 $-1 #
coedge $-1 $285 $285 $449 $450 forward $182 $-1 #
edge $-1 $451 0 $451 6.2831853071796004 $284 $452 forward 7 unknown #
loop $-1 $453 $454 $184 #
cone-surface $-1 0 0 0 0 0 1 0.25 0 0 1 I I -0.70710678118654746 0.70710678118654746 0.25 forward I I I I #
coedge $-1 $289 $289 $188 $291 forward $185 $-1 #
coedge $-1 $290 $290 $454 $455 forward $187 $-1 #
edge $-1 $456 0 $456 6.2831853071796004 $289 $457 forward 7 unknown #
loop $-1 $458 $459 $189 #
cone-surface $-1 0 0 0 0 0 1 0.25 0 0 1 I I -0.70710678118654746 0.70710678118654746 0.25 forward I I I I #
coedge $-1 $294 $294 $193 $296 forward $190 $-1 #
coedge $-1 $295 $295 $459 $460 forward $192 $-1 #
edge $-1 $461 0 $461 6.2831853071796004 $294 $462 forward 7 unknown #
face $-1 $463 $464 $65 $-1 $465 reversed single #
loop $-1 $-1 $466 $194 #
plane-surface $-1 0 -2.9292065275353174 0 0 1 0 0 0 1 forward_v I I I I #
coedge $-1 $467 $468 $469 $470 forward $195 $-1 #
coedge $-1 $471 $197 $472 $473 forward $124 $-1 #
coedge $-1 $197 $471 $474 $475 forward $124 $-1 #
coedge $-1 $476 $477 $197 $304 reversed $478 $-1 #
edge $-1 $479 -2.9292065275353174 $480 2.9292065275353174 $303 $481 forward 7 unknown #
loop $-1 $482 $483 $198 #
cone-surface $-1 0 0 0 0 0 1 0.25 0 0 1 I I -0.70710678118654746 0.70710678118654746 0.25 forward I I I I #
coedge $-1 $307 $307 $202 $309 forward $199 $-1 #
coedge $-1 $308 $308 $483 $484 forward $201 $-1 #
edge $-1 $485 0 $485 6.2831853071796004 $307 $486 forward 7 unknown #
loop $-1 $487 $488 $203 #
cone-surface $-1 0 0 0 0 0 1 0.25 0 0 1 I I -0.70710678118654746 0.70710678118654746 0.25 forward I I I I #
coedge $-1 $312 $312 $207 $314 forward $204 $-1 #
coedge $-1 $313 $313 $488 $489 forward $206 $-1 #
edge $-1 $490 0 $490 6.2831853071796004 $312 $491 forward 7 unknown #
loop $-1 $492 $493 $208 #
cone-surface $-1 0 0 0 0 0 1 0.25 0 0 1 I I -0.70710678118654746 0.70710678118654746 0.25 forward I I I I #
coedge $-1 $317 $317 $212 $319 forward $209 $-1 #
coedge $-1 $318 $318 $493 $494 forward $211 $-1 #
edge $-1 $495 0 $495 6.2831853071796004 $317 $496 forward 7 unknown #
face $-1 $497 $498 $69 $-1 $499 reversed single #
loop $-1 $-1 $500 $213 #
plane-surface $-1 0 -4.0735628015103771 0 0 1 0 0 0 1 forward_v I I I I #
coedge $-1 $501 $502 $503 $504 forward $214 $-1 #
coedge $-1 $505 $216 $506 $507 forward $136 $-1 #
coedge $-1 $216 $505 $508 $509 forward $136 $-1 #
coedge $-1 $510 $511 $216 $327 reversed $512 $-1 #
edge $-1 $513 -4.0735628015103771 $514 4.0735628015103771 $326 $515 forward 7 unknown #
loop $-1 $516 $517 $217 #
cone-surface $-1 0 0 0 0 0 1 0.125 0 0 1 I I -0.70710678118654746 0.70710678118654746 0.125 forward I I I I #
coedge $-1 $330 $330 $221 $332 forward $218 $-1 #
coedge $-1 $331 $331 $517 $518 forward $220 $-1 #
edge $-1 $519 0 $519 6.2831853071796004 $330 $520 forward 7 unknown #
loop $-1 $521 $522 $222 #
cone-surface $-1 0 0 0 0 0 1 0.125 0 0 1 I I -0.70710678118654746 0.70710678118654746 0.125 forward I I I I #
coedge $-1 $335 $335 $226 $337 forward $223 $-1 #
coedge $-1 $336 $336 $522 $523 forward $225 $-1 #
edge $-1 $524 0 $524 6.2831853071796004 $335 $525 forward 7 unknown #
face $-1 $526 $527 $54 $-1 $528 reversed single #
loop $-1 $-1 $529 $227 #
plane-surface $-1 -68.028199102755821 0 0 1 0 0 0 0 -1 forward_v I I I I #
coedge $-1 $530 $349 $531 $532 forward $228 $-1 #
coedge $-1 $533 $230 $530 $534 forward $145 $-1 #
coedge $-1 $230 $533 $535 $536 forward $145 $-1 #
coedge $-1 $352 $351 $230 $345 reversed $353 $-1 #
edge $-1 $537 -41.503492093975076 $538 41.503492093975076 $344 $539 forward 7 unknown #
coedge $-1 $232 $231 $540 $541 forward $91 $-1 #
coedge $-1 $542 $543 $231 $348 reversed $527 $-1 #
edge $-1 $355 -68.028199102755821 $544 68.028199102755821 $347 $545 forward 7 unknown #
coedge $-1 $341 $546 $232 $350 reversed $228 $-1 #
edge $-1 $547 -68.028199102755821 $354 68.028199102755821 $349 $548 forward 7 unknown #
coedge $-1 $344 $233 $546 $549 forward $353 $-1 #
coedge $-1 $233 $344 $542 $550 reversed $353 $-1 #
loop $-1 $-1 $351 $526 #
vertex $-1 $234 $551 #
vertex $-1 $234 $552 #
straight-curve $-1 68.028199102755821 0 20.618370464313031 0 1 0 I I #
face $-1 $553 $554 $55 $-1 $555 reversed single #
loop $-1 $-1 $556 $235 #
plane-surface $-1 -68.028199102755821 0 0 1 0 0 0 0 -1 forward_v I I I I #
coedge $-1 $557 $368 $558 $559 forward $236 $-1 #
coedge $-1 $560 $238 $557 $561 forward $149 $-1 #
coedge $-1 $238 $560 $562 $563 forward $149 $-1 #
coedge $-1 $371 $370 $238 $364 reversed $372 $-1 #
edge $-1 $564 -13.363305347031634 $565 13.363305347031634 $363 $566 forward 7 unknown #
coedge $-1 $240 $239 $567 $568 forward $94 $-1 #
coedge $-1 $569 $570 $239 $367 reversed $554 $-1 #
edge $-1 $374 -68.028199102755821 $571 68.028199102755821 $366 $572 forward 7 unknown #
coedge $-1 $360 $573 $240 $369 reversed $236 $-1 #
edge $-1 $574 -68.028199102755821 $373 68.028199102755821 $368 $575 forward 7 unknown #
coedge $-1 $363 $241 $573 $576 forward $372 $-1 #
coedge $-1 $241 $363 $569 $577 reversed $372 $-1 #
loop $-1 $-1 $370 $553 #
vertex $-1 $242 $578 #
vertex $-1 $242 $579 #
straight-curve $-1 68.028199102755821 0 2.7737613710055307 0 1 0 I I #
face $-1 $580 $581 $56 $-1 $582 reversed single #
loop $-1 $-1 $583 $243 #
plane-surface $-1 -68.028199102755821 0 0 1 0 0 0 0 -1 forward_v I I I I #
coedge $-1 $584 $387 $585 $586 forward $244 $-1 #
coedge $-1 $587 $246 $584 $588 forward $153 $-1 #
coedge $-1 $246 $587 $589 $590 forward $153 $-1 #
coedge $-1 $390 $389 $246 $383 reversed $391 $-1 #
edge $-1 $591 -13.363305347031634 $592 13.363305347031634 $382 $593 forward 7 unknown #
coedge $-1 $248 $247 $594 $595 forward $97 $-1 #
coedge $-1 $596 $597 $247 $386 reversed $581 $-1 #
edge $-1 $393 -68.028199102755821 $598 68.028199102755821 $385 $599 forward 7 unknown #
coedge $-1 $379 $600 $248 $388 reversed $244 $-1 #
edge $-1 $601 -68.028199102755821 $392 68.028199102755821 $387 $602 forward 7 unknown #
coedge $-1 $382 $249 $600 $603 forward $391 $-1 #
coedge $-1 $249 $382 $596 $604 reversed $391 $-1 #
loop $-1 $-1 $389 $580 #
vertex $-1 $250 $605 #
vertex $-1 $250 $606 #
straight-curve $-1 68.028199102755821 0 2.7737613710055307 0 1 0 I I #
face $-1 $607 $608 $57 $-1 $609 reversed single #
loop $-1 $-1 $610 $251 #
plane-surface $-1 -272.11279641102328 0 0 1 0 0 0 0 -1 forward_v I I I I #
coedge $-1 $611 $406 $612 $613 forward $252 $-1 #
coedge $-1 $614 $254 $611 $615 forward $157 $-1 #
coedge $-1 $254 $614 $616 $617 forward $157 $-1 #
coedge $-1 $409 $408 $254 $402 reversed $410 $-1 #
edge $-1 $618 -2.9292065275353174 $619 2.9292065275353174 $401 $620 forward 7 unknown #
coedge $-1 $256 $255 $621 $622 forward $100 $-1 #
coedge $-1 $623 $624 $255 $405 reversed $608 $-1 #
edge $-1 $412 -272.11279641102328 $625 272.11279641102328 $404 $626 forward 7 unknown #
coedge $-1 $398 $627 $256 $407 reversed $252 $-1 #
edge $-1 $628 -272.11279641102328 $411 272.11279641102328 $406 $629 forward 7 unknown #
coedge $-1 $401 $257 $627 $630 forward $410 $-1 #
coedge $-1 $257 $401 $623 $631 reversed $410 $-1 #
loop $-1 $-1 $408 $607 #
vertex $-1 $258 $632 #
vertex $-1 $258 $633 #
straight-curve $-1 272.11279641102328 0 136.05639820551164 0 1 0 I I #
loop $-1 $-1 $634 $160 #
coedge $-1 $415 $415 $262 $416 reversed $259 $-1 #
edge $-1 $635 0 $635 6.2831853071796004 $415 $636 forward 7 unknown #
vertex $-1 $263 $637 #
ellipse-curve $-1 0 0 -1.5039139988402965 0 0 -1 0.5 0 0 1 I I #
loop $-1 $-1 $638 $165 #
coedge $-1 $420 $420 $267 $421 reversed $264 $-1 #
edge $-1 $639 0 $639 6.2831853071796004 $420 $640 forward 7 unknown #
vertex $-1 $268 $641 #
ellipse-curve $-1 0 0 -1.5039139988402965 0 0 -1 0.5 0 0 1 I I #
loop $-1 $-1 $642 $170 #
coedge $-1 $425 $425 $272 $426 reversed $269 $-1 #
edge $-1 $643 0 $643 6.2831853071796004 $425 $644 forward 7 unknown #
vertex $-1 $273 $645 #
ellipse-curve $-1 0 0 -1.5039139988402965 0 0 -1 0.5 0 0 1 I I #
face $-1 $646 $647 $61 $-1 $648 reversed single #
loop $-1 $-1 $649 $274 #
plane-surface $-1 -272.11279641102328 0 0 1 0 0 0 0 -1 forward_v I I I I #
coedge $-1 $650 $440 $651 $652 forward $275 $-1 #
coedge $-1 $653 $277 $650 $654 forward $176 $-1 #
coedge $-1 $277 $653 $655 $656 forward $176 $-1 #
coedge $-1 $443 $442 $277 $436 reversed $444 $-1 #
edge $-1 $657 -2.9292065275353174 $658 2.9292065275353174 $435 $659 forward 7 unknown #
coedge $-1 $279 $278 $660 $661 forward $112 $-1 #
coedge $-1 $662 $663 $278 $439 reversed $647 $-1 #
edge $-1 $446 -272.11279641102328 $664 272.11279641102328 $438 $665 forward 7 unknown #
coedge $-1 $432 $666 $279 $441 reversed $275 $-1 #
edge $-1 $667 -272.11279641102328 $445 272.11279641102328 $440 $668 forward 7 unknown #
coedge $-1 $435 $280 $666 $669 forward $444 $-1 #
coedge $-1 $280 $435 $662 $670 reversed $444 $-1 #
loop $-1 $-1 $442 $646 #
vertex $-1 $281 $671 #
vertex $-1 $281 $672 #
straight-curve $-1 272.11279641102328 0 136.05639820551164 0 1 0 I I #
loop $-1 $-1 $673 $179 #
coedge $-1 $449 $449 $285 $450 reversed $282 $-1 #
edge $-1 $674 0 $674 6.2831853071796004 $449 $675 forward 7 unknown #
vertex $-1 $286 $676 #
ellipse-curve $-1 0 0 -1.5039139988402965 0 0 -1 0.5 0 0 1 I I #
loop $-1 $-1 $677 $184 #
coedge $-1 $454 $454 $290 $455 reversed $287 $-1 #
edge $-1 $678 0 $678 6.2831853071796004 $454 $679 forward 7 unknown #
vertex $-1 $291 $680 #
ellipse-curve $-1 0 0 -1.5039139988402965 0 0 -1 0.5 0 0 1 I I #
loop $-1 $-1 $681 $189 #
coedge $-1 $459 $459 $295 $460 reversed $292 $-1 #
edge $-1 $682 0 $682 6.2831853071796004 $459 $683 forward 7 unknown #
vertex $-1 $296 $684 #
ellipse-curve $-1 0 0 -1.5039139988402965 0 0 -1 0.5 0 0 1 I I #
face $-1 $685 $686 $65 $-1 $687 reversed single #
loop $-1 $-1 $688 $297 #
plane-surface $-1 -272.11279641102328 0 0 1 0 0 0 0 -1 forward_v I I I I #
coedge $-1 $689 $474 $690 $691 forward $298 $-1 #
coedge $-1 $692 $300 $689 $693 forward $195 $-1 #
coedge $-1 $300 $692 $694 $695 forward $195 $-1 #
coedge $-1 $477 $476 $300 $470 reversed $478 $-1 #
edge $-1 $696 -2.9292065275353174 $697 2.9292065275353174 $469 $698 forward 7 unknown #
coedge $-1 $302 $301 $699 $700 forward $124 $-1 #
coedge $-1 $701 $702 $301 $473 reversed $686 $-1 #
edge $-1 $480 -272.11279641102328 $703 272.11279641102328 $472 $704 forward 7 unknown #
coedge $-1 $466 $705 $302 $475 reversed $298 $-1 #
edge $-1 $706 -272.11279641102328 $479 272.11279641102328 $474 $707 forward 7 unknown #
coedge $-1 $469 $303 $705 $708 forward $478 $-1 #
coedge $-1 $303 $469 $701 $709 reversed $478 $-1 #
loop $-1 $-1 $476 $685 #
vertex $-1 $304 $710 #
vertex $-1 $304 $711 #
straight-curve $-1 272.11279641102328 0 136.05639820551164 0 1 0 I I #
loop $-1 $-1 $712 $198 #
coedge $-1 $483 $483 $308 $484 reversed $305 $-1 #
edge $-1 $713 0 $713 6.2831853071796004 $483 $714 forward 7 unknown #
vertex $-1 $309 $715 #
ellipse-curve $-1 0 0 -1.5039139988402965 0 0 -1 0.5 0 0 1 I I #
loop $-1 $-1 $716 $203 #
coedge $-1 $488 $488 $313 $489 reversed $310 $-1 #
edge $-1 $717 0 $717 6.2831853071796004 $488 $718 forward 7 unknown #
vertex $-1 $314 $719 #
ellipse-curve $-1 0 0 -1.5039139988402965 0 0 -1 0.5 0 0 1 I I #
loop $-1 $-1 $720 $208 #
coedge $-1 $493 $493 $318 $494 reversed $315 $-1 #
edge $-1 $721 0 $721 6.2831853071796004 $493 $722 forward 7 unknown #
vertex $-1 $319 $723 #
ellipse-curve $-1 0 0 -1.5039139988402965 0 0 -1 0.5 0 0 1 I I #
face $-1 $724 $725 $69 $-1 $726 reversed single #
loop $-1 $-1 $727 $320 #
plane-surface $-1 -272.11279641102328 0 0 1 0 0 0 0 -1 forward_v I I I I #
coedge $-1 $728 $508 $729 $730 forward $321 $-1 #
coedge $-1 $731 $323 $728 $732 forward $214 $-1 #
coedge $-1 $323 $731 $733 $734 forward $214 $-1 #
coedge $-1 $511 $510 $323 $504 reversed $512 $-1 #
edge $-1 $735 -4.0735628015103771 $736 4.0735628015103771 $503 $737 forward 7 unknown #
coedge $-1 $325 $324 $738 $739 forward $136 $-1 #
coedge $-1 $740 $741 $324 $507 reversed $725 $-1 #
edge $-1 $514 -272.11279641102328 $742 272.11279641102328 $506 $743 forward 7 unknown #
coedge $-1 $500 $744 $325 $509 reversed $321 $-1 #
edge $-1 $745 -272.11279641102328 $513 272.11279641102328 $508 $746 forward 7 unknown #
coedge $-1 $503 $326 $744 $747 forward $512 $-1 #
coedge $-1 $326 $503 $740 $748 reversed $512 $-1 #
loop $-1 $-1 $510 $724 #
vertex $-1 $327 $749 #
vertex $-1 $327 $750 #
straight-curve $-1 272.11279641102328 0 136.05639820551164 0 1 0 I I #
loop $-1 $-1 $751 $217 #
coedge $-1 $517 $517 $331 $518 reversed $328 $-1 #
edge $-1 $752 0 $752 6.2831853071796004 $517 $753 forward 7 unknown #
vertex $-1 $332 $754 #
ellipse-curve $-1 0 0 -1.125 0 0 -1 0.25 0 0 1 I I #
loop $-1 $-1 $755 $222 #
coedge $-1 $522 $522 $336 $523 reversed $333 $-1 #
edge $-1 $756 0 $756 6.2831853071796004 $522 $757 forward 7 unknown #
vertex $-1 $337 $758 #
ellipse-curve $-1 0 0 -1.125 0 0 -1 0.25 0 0 1 I I #
face $-1 $-1 $353 $54 $-1 $759 reversed single #
loop $-1 $-1 $542 $338 #
plane-surface $-1 0 41.503492093975076 0 0 -1 0 0 0 -1 forward_v I I I I #
coedge $-1 $760 $540 $543 $761 forward $339 $-1 #
coedge $-1 $546 $341 $342 $534 reversed $228 $-1 #
coedge $-1 $540 $760 $341 $532 reversed $339 $-1 #
edge $-1 $547 -20.618370464313031 $762 20.618370464313031 $531 $763 forward 7 unknown #
coedge $-1 $343 $342 $760 $764 forward $145 $-1 #
edge $-1 $538 -68.028199102755821 $762 68.028199102755821 $530 $765 forward 7 unknown #
coedge $-1 $543 $542 $343 $536 reversed $527 $-1 #
edge $-1 $766 -68.028199102755821 $537 68.028199102755821 $535 $767 forward 7 unknown #
vertex $-1 $345 $768 #
vertex $-1 $549 $769 #
straight-curve $-1 68.028199102755821 0 -20.618370464313031 0 -1 0 I I #
coedge $-1 $529 $531 $346 $541 reversed $339 $-1 #
edge $-1 $544 -41.503492093975076 $547 41.503492093975076 $540 $770 forward 7 unknown #
coedge $-1 $535 $347 $352 $550 forward $527 $-1 #
coedge $-1 $347 $535 $529 $761 reversed $527 $-1 #
vertex $-1 $348 $771 #
straight-curve $-1 0 41.503492093975076 20.618370464313031 -1 0 0 I I #
coedge $-1 $349 $530 $351 $549 reversed $228 $-1 #
vertex $-1 $541 $772 #
straight-curve $-1 0 -41.503492093975076 20.618370464313031 1 0 0 I I #
edge $-1 $354 -20.618370464313031 $538 20.618370464313031 $351 $773 forward 7 unknown #
edge $-1 $355 -20.618370464313031 $537 20.618370464313031 $352 $774 forward 7 unknown #
point $-1 68.028199102755821 -41.503492093975076 20.618370464313031 #
point $-1 68.028199102755821 41.503492093975076 20.618370464313031 #
face $-1 $-1 $372 $55 $-1 $775 reversed single #
loop $-1 $-1 $569 $357 #
plane-surface $-1 0 13.363305347031634 0 0 -1 0 0 0 -1 forward_v I I I I #
coedge $-1 $776 $567 $570 $777 forward $358 $-1 #
coedge $-1 $573 $360 $361 $561 reversed $236 $-1 #
coedge $-1 $567 $776 $360 $559 reversed $358 $-1 #
edge $-1 $574 -2.7737613710055307 $778 2.7737613710055307 $558 $779 forward 7 unknown #
coedge $-1 $362 $361 $776 $780 forward $149 $-1 #
edge $-1 $565 -68.028199102755821 $778 68.028199102755821 $557 $781 forward 7 unknown #
coedge $-1 $570 $569 $362 $563 reversed $554 $-1 #
edge $-1 $782 -68.028199102755821 $564 68.028199102755821 $562 $783 forward 7 unknown #
vertex $-1 $364 $784 #
vertex $-1 $576 $785 #
straight-curve $-1 68.028199102755821 0 -2.7737613710055307 0 -1 0 I I #
coedge $-1 $556 $558 $365 $568 reversed $358 $-1 #
edge $-1 $571 -13.363305347031634 $574 13.363305347031634 $567 $786 forward 7 unknown #
coedge $-1 $562 $366 $371 $577 forward $554 $-1 #
coedge $-1 $366 $562 $556 $777 reversed $554 $-1 #
vertex $-1 $367 $787 #
straight-curve $-1 0 13.363305347031634 2.7737613710055307 -1 0 0 I I #
coedge $-1 $368 $557 $370 $576 reversed $236 $-1 #
vertex $-1 $568 $788 #
straight-curve $-1 0 -13.363305347031634 2.7737613710055307 1 0 0 I I #
edge $-1 $373 -2.7737613710055307 $565 2.7737613710055307 $370 $789 forward 7 unknown #
edge $-1 $374 -2.7737613710055307 $564 2.7737613710055307 $371 $790 forward 7 unknown #
point $-1 68.028199102755821 -13.363305347031634 2.7737613710055307 #
point $-1 68.028199102755821 13.363305347031634 2.7737613710055307 #
face $-1 $-1 $391 $56 $-1 $791 reversed single #
loop $-1 $-1 $596 $376 #
plane-surface $-1 0 13.363305347031634 0 0 -1 0 0 0 -1 forward_v I I I I #
coedge $-1 $792 $594 $597 $793 forward $377 $-1 #
coedge $-1 $600 $379 $380 $588 reversed $244 $-1 #
coedge $-1 $594 $792 $379 $586 reversed $377 $-1 #
edge $-1 $601 -2.7737613710055307 $794 2.7737613710055307 $585 $795 forward 7 unknown #
coedge $-1 $381 $380 $792 $796 forward $153 $-1 #
edge $-1 $592 -68.028199102755821 $794 68.028199102755821 $584 $797 forward 7 unknown #
coedge $-1 $597 $596 $381 $590 reversed $581 $-1 #
edge $-1 $798 -68.028199102755821 $591 68.028199102755821 $589 $799 forward 7 unknown #
vertex $-1 $383 $800 #
vertex $-1 $603 $801 #
straight-curve $-1 68.028199102755821 0 -2.7737613710055307 0 -1 0 I I #
coedge $-1 $583 $585 $384 $595 reversed $377 $-1 #
edge $-1 $598 -13.363305347031634 $601 13.363305347031634 $594 $802 forward 7 unknown #
coedge $-1 $589 $385 $390 $604 forward $581 $-1 #
coedge $-1 $385 $589 $583 $793 reversed $581 $-1 #
vertex $-1 $386 $803 #
straight-curve $-1 0 13.363305347031634 2.7737613710055307 -1 0 0 I I #
coedge $-1 $387 $584 $389 $603 reversed $244 $-1 #
vertex $-1 $595 $804 #
straight-curve $-1 0 -13.363305347031634 2.7737613710055307 1 0 0 I I #
edge $-1 $392 -2.7737613710055307 $592 2.7737613710055307 $389 $805 forward 7 unknown #
edge $-1 $393 -2.7737613710055307 $591 2.7737613710055307 $390 $806 forward 7 unknown #
point $-1 68.028199102755821 -13.363305347031634 2.7737613710055307 #
point $-1 68.028199102755821 13.363305347031634 2.7737613710055307 #
face $-1 $-1 $410 $57 $-1 $807 reversed single #
loop $-1 $-1 $623 $395 #
plane-surface $-1 0 2.9292065275353174 0 0 -1 0 0 0 -1 forward_v I I I I #
coedge $-1 $808 $621 $624 $809 forward $396 $-1 #
coedge $-1 $627 $398 $399 $615 reversed $252 $-1 #
coedge $-1 $621 $808 $398 $613 reversed $396 $-1 #
edge $-1 $628 -136.05639820551164 $810 136.05639820551164 $612 $811 forward 7 unknown #
coedge $-1 $400 $399 $808 $812 forward $157 $-1 #
edge $-1 $619 -272.11279641102328 $810 272.11279641102328 $611 $813 forward 7 unknown #
coedge $-1 $624 $623 $400 $617 reversed $608 $-1 #
edge $-1 $814 -272.11279641102328 $618 272.11279641102328 $616 $815 forward 7 unknown #
vertex $-1 $402 $816 #
vertex $-1 $630 $817 #
straight-curve $-1 272.11279641102328 0 -136.05639820551164 0 -1 0 I I #
coedge $-1 $610 $612 $403 $622 reversed $396 $-1 #
edge $-1 $625 -2.9292065275353174 $628 2.9292065275353174 $621 $818 forward 7 unknown #
coedge $-1 $616 $404 $409 $631 forward $608 $-1 #
coedge $-1 $404 $616 $610 $809 reversed $608 $-1 #
vertex $-1 $405 $819 #
straight-curve $-1 0 2.9292065275353174 136.05639820551164 -1 0 0 I I #
coedge $-1 $406 $611 $408 $630 reversed $252 $-1 #
vertex $-1 $622 $820 #
straight-curve $-1 0 -2.9292065275353174 136.05639820551164 1 0 0 I I #
edge $-1 $411 -136.05639820551164 $619 136.05639820551164 $408 $821 forward 7 unknown #
edge $-1 $412 -136.05639820551164 $618 136.05639820551164 $409 $822 forward 7 unknown #
point $-1 272.11279641102328 -2.9292065275353174 136.05639820551164 #
point $-1 272.11279641102328 2.9292065275353174 136.05639820551164 #
coedge $-1 $634 $634 $-1 $823 reversed $414 $-1 #
vertex $-1 $416 $824 #
ellipse-curve $-1 0 0 -0.25 0 0 -1 0.5 0 0 1 I I #
point $-1 0.5 0 -1.5039139988402965 #
coedge $-1 $638 $638 $-1 $825 reversed $419 $-1 #
vertex $-1 $421 $826 #
ellipse-curve $-1 0 0 -0.25 0 0 -1 0.5 0 0 1 I I #
point $-1 0.5 0 -1.5039139988402965 #
coedge $-1 $642 $642 $-1 $827 reversed $424 $-1 #
vertex $-1 $426 $828 #
ellipse-curve $-1 0 0 -0.25 0 0 -1 0.5 0 0 1 I I #
point $-1 0.5 0 -1.5039139988402965 #
face $-1 $-1 $444 $61 $-1 $829 reversed single #
loop $-1 $-1 $662 $429 #
plane-surface $-1 0 2.9292065275353174 0 0 -1 0 0 0 -1 forward_v I I I I #
coedge $-1 $830 $660 $663 $831 forward $430 $-1 #
coedge $-1 $666 $432 $433 $654 reversed $275 $-1 #
coedge $-1 $660 $830 $432 $652 reversed $430 $-1 #
edge $-1 $667 -136.05639820551164 $832 136.05639820551164 $651 $833 forward 7 unknown #
coedge $-1 $434 $433 $830 $834 forward $176 $-1 #
edge $-1 $658 -272.11279641102328 $832 272.11279641102328 $650 $835 forward 7 unknown #
coedge $-1 $663 $662 $434 $656 reversed $647 $-1 #
edge $-1 $836 -272.11279641102328 $657 272.11279641102328 $655 $837 forward 7 unknown #
vertex $-1 $436 $838 #
vertex $-1 $669 $839 #
straight-curve $-1 272.11279641102328 0 -136.05639820551164 0 -1 0 I I #
coedge $-1 $649 $651 $437 $661 reversed $430 $-1 #
edge $-1 $664 -2.9292065275353174 $667 2.9292065275353174 $660 $840 forward 7 unknown #
coedge $-1 $655 $438 $443 $670 forward $647 $-1 #
coedge $-1 $438 $655 $649 $831 reversed $647 $-1 #
vertex $-1 $439 $841 #
straight-curve $-1 0 2.9292065275353174 136.05639820551164 -1 0 0 I I #
coedge $-1 $440 $650 $442 $669 reversed $275 $-1 #
vertex $-1 $661 $842 #
straight-curve $-1 0 -2.9292065275353174 136.05639820551164 1 0 0 I I #
edge $-1 $445 -136.05639820551164 $658 136.05639820551164 $442 $843 forward 7 unknown #
edge $-1 $446 -136.05639820551164 $657 136.05639820551164 $443 $844 forward 7 unknown #
point $-1 272.11279641102328 -2.9292065275353174 136.05639820551164 #
point $-1 272.11279641102328 2.9292065275353174 136.05639820551164 #
coedge $-1 $673 $673 $-1 $845 reversed $448 $-1 #
vertex $-1 $450 $846 #
ellipse-curve $-1 0 0 -0.25 0 0 -1 0.5 0 0 1 I I #
point $-1 0.5 0 -1.5039139988402965 #
coedge $-1 $677 $677 $-1 $847 reversed $453 $-1 #
vertex $-1 $455 $848 #
ellipse-curve $-1 0 0 -0.25 0 0 -1 0.5 0 0 1 I I #
point $-1 0.5 0 -1.5039139988402965 #
coedge $-1 $681 $681 $-1 $849 reversed $458 $-1 #
vertex $-1 $460 $850 #
ellipse-curve $-1 0 0 -0.25 0 0 -1 0.5 0 0 1 I I #
point $-1 0.5 0 -1.5039139988402965 #
face $-1 $-1 $478 $65 $-1 $851 reversed single #
loop $-1 $-1 $701 $463 #
plane-surface $-1 0 2.9292065275353174 0 0 -1 0 0 0 -1 forward_v I I I I #
coedge $-1 $852 $699 $702 $853 forward $464 $-1 #
coedge $-1 $705 $466 $467 $693 reversed $298 $-1 #
coedge $-1 $699 $852 $466 $691 reversed $464 $-1 #
edge $-1 $706 -136.05639820551164 $854 136.05639820551164 $690 $855 forward 7 unknown #
coedge $-1 $468 $467 $852 $856 forward $195 $-1 #
edge $-1 $697 -272.11279641102328 $854 272.11279641102328 $689 $857 forward 7 unknown #
coedge $-1 $702 $701 $468 $695 reversed $686 $-1 #
edge $-1 $858 -272.11279641102328 $696 272.11279641102328 $694 $859 forward 7 unknown #
vertex $-1 $470 $860 #
vertex $-1 $708 $861 #
straight-curve $-1 272.11279641102328 0 -136.05639820551164 0 -1 0 I I #
coedge $-1 $688 $690 $471 $700 reversed $464 $-1 #
edge $-1 $703 -2.9292065275353174 $706 2.9292065275353174 $699 $862 forward 7 unknown #
coedge $-1 $694 $472 $477 $709 forward $686 $-1 #
coedge $-1 $472 $694 $688 $853 reversed $686 $-1 #
vertex $-1 $473 $863 #
straight-curve $-1 0 2.9292065275353174 136.05639820551164 -1 0 0 I I #
coedge $-1 $474 $689 $476 $708 reversed $298 $-1 #
vertex $-1 $700 $864 #
straight-curve $-1 0 -2.9292065275353174 136.05639820551164 1 0 0 I I #
edge $-1 $479 -136.05639820551164 $697 136.05639820551164 $476 $865 forward 7 unknown #
edge $-1 $480 -136.05639820551164 $696 136.05639820551164 $477 $866 forward 7 unknown #
point $-1 272.11279641102328 -2.9292065275353174 136.05639820551164 #
point $-1 272.11279641102328 2.9292065275353174 136.05639820551164 #
coedge $-1 $712 $712 $-1 $867 reversed $482 $-1 #
vertex $-1 $484 $868 #
ellipse-curve $-1 0 0 -0.25 0 0 -1 0.5 0 0 1 I I #
point $-1 0.5 0 -1.5039139988402965 #
coedge $-1 $716 $716 $-1 $869 reversed $487 $-1 #
vertex $-1 $489 $870 #
ellipse-curve $-1 0 0 -0.25 0 0 -1 0.5 0 0 1 I I #
point $-1 0.5 0 -1.5039139988402965 #
coedge $-1 $720 $720 $-1 $871 reversed $492 $-1 #
vertex $-1 $494 $872 #
ellipse-curve $-1 0 0 -0.25 0 0 -1 0.5 0 0 1 I I #
point $-1 0.5 0 -1.5039139988402965 #
face $-1 $-1 $512 $69 $-1 $873 reversed single #
loop $-1 $-1 $740 $497 #
plane-surface $-1 0 4.0735628015103771 0 0 -1 0 0 0 -1 forward_v I I I I #
coedge $-1 $874 $738 $741 $875 forward $498 $-1 #
coedge $-1 $744 $500 $501 $732 reversed $321 $-1 #
coedge $-1 $738 $874 $500 $730 reversed $498 $-1 #
edge $-1 $745 -136.05639820551164 $876 136.05639820551164 $729 $877 forward 7 unknown #
coedge $-1 $502 $501 $874 $878 forward $214 $-1 #
edge $-1 $736 -272.11279641102328 $876 272.11279641102328 $728 $879 forward 7 unknown #
coedge $-1 $741 $740 $502 $734 reversed $725 $-1 #
edge $-1 $880 -272.11279641102328 $735 272.11279641102328 $733 $881 forward 7 unknown #
vertex $-1 $504 $882 #
vertex $-1 $747 $883 #
straight-curve $-1 272.11279641102328 0 -136.05639820551164 0 -1 0 I I #
coedge $-1 $727 $729 $505 $739 reversed $498 $-1 #
edge $-1 $742 -4.0735628015103771 $745 4.0735628015103771 $738 $884 forward 7 unknown #
coedge $-1 $733 $506 $511 $748 forward $725 $-1 #
coedge $-1 $506 $733 $727 $875 reversed $725 $-1 #
vertex $-1 $507 $885 #
straight-curve $-1 0 4.0735628015103771 136.05639820551164 -1 0 0 I I #
coedge $-1 $508 $728 $510 $747 reversed $321 $-1 #
vertex $-1 $739 $886 #
straight-curve $-1 0 -4.0735628015103771 136.05639820551164 1 0 0 I I #
edge $-1 $513 -136.05639820551164 $736 136.05639820551164 $510 $887 forward 7 unknown #
edge $-1 $514 -136.05639820551164 $735 136.05639820551164 $511 $888 forward 7 unknown #
point $-1 272.11279641102328 -4.0735628015103771 136.05639820551164 #
point $-1 272.11279641102328 4.0735628015103771 136.05639820551164 #
coedge $-1 $751 $751 $-1 $889 reversed $516 $-1 #
vertex $-1 $518 $890 #
ellipse-curve $-1 0 0 -0.125 0 0 -1 0.25 0 0 1 I I #
point $-1 0.25 0 -1.125 #
coedge $-1 $755 $755 $-1 $891 reversed $521 $-1 #
vertex $-1 $523 $892 #
ellipse-curve $-1 0 0 -0.125 0 0 -1 0.25 0 0 1 I I #
point $-1 0.25 0 -1.125 #
plane-surface $-1 68.028199102755821 0 0 -1 0 0 0 0 1 forward_v I I I I #
coedge $-1 $531 $529 $533 $764 reversed $339 $-1 #
edge $-1 $544 -20.618370464313031 $766 20.618370464313031 $543 $893 forward 7 unknown #
vertex $-1 $764 $894 #
straight-curve $-1 -68.028199102755821 -41.503492093975076 0 0 0 -1 I I #
edge $-1 $762 -41.503492093975076 $766 41.503492093975076 $760 $895 forward 7 unknown #
straight-curve $-1 0 -41.503492093975076 -20.618370464313031 -1 0 0 I I #
vertex $-1 $536 $896 #
straight-curve $-1 0 41.503492093975076 -20.618370464313031 1 0 0 I I #
point $-1 68.028199102755821 41.503492093975076 -20.618370464313031 #
point $-1 68.028199102755821 -41.503492093975076 -20.618370464313031 #
straight-curve $-1 -68.028199102755821 0 20.618370464313031 0 -1 0 I I #
point $-1 -68.028199102755821 41.503492093975076 20.618370464313031 #
point $-1 -68.028199102755821 -41.503492093975076 20.618370464313031 #
straight-curve $-1 68.028199102755821 -41.503492093975076 0 0 0 -1 I I #
straight-curve $-1 68.028199102755821 41.503492093975076 0 0 0 -1 I I #
plane-surface $-1 68.028199102755821 0 0 -1 0 0 0 0 1 forward_v I I I I #
coedge $-1 $558 $556 $560 $780 reversed $358 $-1 #
edge $-1 $571 -2.7737613710055307 $782 2.7737613710055307 $570 $897 forward 7 unknown #
vertex $-1 $780 $898 #
straight-curve $-1 -68.028199102755821 -13.363305347031634 0 0 0 -1 I I #
edge $-1 $778 -13.363305347031634 $782 13.363305347031634 $776 $899 forward 7 unknown #
straight-curve $-1 0 -13.363305347031634 -2.7737613710055307 -1 0 0 I I #
vertex $-1 $563 $900 #
straight-curve $-1 0 13.363305347031634 -2.7737613710055307 1 0 0 I I #
point $-1 68.028199102755821 13.363305347031634 -2.7737613710055307 #
point $-1 68.028199102755821 -13.363305347031634 -2.7737613710055307 #
straight-curve $-1 -68.028199102755821 0 2.7737613710055307 0 -1 0 I I #
point $-1 -68.028199102755821 13.363305347031634 2.7737613710055307 #
point $-1 -68.028199102755821 -13.363305347031634 2.7737613710055307 #
straight-curve $-1 68.028199102755821 -13.363305347031634 0 0 0 -1 I I #
straight-curve $-1 68.028199102755821 13.363305347031634 0 0 0 -1 I I #
plane-surface $-1 68.028199102755821 0 0 -1 0 0 0 0 1 forward_v I I I I #
coedge $-1 $585 $583 $587 $796 reversed $377 $-1 #
edge $-1 $598 -2.7737613710055307 $798 2.7737613710055307 $597 $901 forward 7 unknown #
vertex $-1 $796 $902 #
straight-curve $-1 -68.028199102755821 -13.363305347031634 0 0 0 -1 I I #
edge $-1 $794 -13.363305347031634 $798 13.363305347031634 $792 $903 forward 7 unknown #
straight-curve $-1 0 -13.363305347031634 -2.7737613710055307 -1 0 0 I I #
vertex $-1 $590 $904 #
straight-curve $-1 0 13.363305347031634 -2.7737613710055307 1 0 0 I I #
point $-1 68.028199102755821 13.363305347031634 -2.7737613710055307 #
point $-1 68.028199102755821 -13.363305347031634 -2.7737613710055307 #
straight-curve $-1 -68.028199102755821 0 2.7737613710055307 0 -1 0 I I #
point $-1 -68.028199102755821 13.363305347031634 2.7737613710055307 #
point $-1 -68.028199102755821 -13.363305347031634 2.7737613710055307 #
straight-curve $-1 68.028199102755821 -13.363305347031634 0 0 0 -1 I I #
straight-curve $-1 68.028199102755821 13.363305347031634 0 0 0 -1 I I #
plane-surface $-1 272.11279641102328 0 0 -1 0 0 0 0 1 forward_v I I I I #
coedge $-1 $612 $610 $614 $812 reversed $396 $-1 #
edge $-1 $625 -136.05639820551164 $814 136.05639820551164 $624 $905 forward 7 unknown #
vertex $-1 $812 $906 #
straight-curve $-1 -272.11279641102328 -2.9292065275353174 0 0 0 -1 I I #
edge $-1 $810 -2.9292065275353174 $814 2.9292065275353174 $808 $907 forward 7 unknown #
straight-curve $-1 0 -2.9292065275353174 -136.05639820551164 -1 0 0 I I #
vertex $-1 $617 $908 #
straight-curve $-1 0 2.9292065275353174 -136.05639820551164 1 0 0 I I #
point $-1 272.11279641102328 2.9292065275353174 -136.05639820551164 #
point $-1 272.11279641102328 -2.9292065275353174 -136.05639820551164 #
straight-curve $-1 -272.11279641102328 0 136.05639820551164 0 -1 0 I I #
point $-1 -272.11279641102328 2.9292065275353174 136.05639820551164 #
point $-1 -272.11279641102328 -2.9292065275353174 136.05639820551164 #
straight-curve $-1 272.11279641102328 -2.9292065275353174 0 0 0 -1 I I #
straight-curve $-1 272.11279641102328 2.9292065275353174 0 0 0 -1 I I #
edge $-1 $909 1 $909 0 $634 $-1 forward 7 unknown #
point $-1 0.5 0 -0.25 #
edge $-1 $910 1 $910 0 $638 $-1 forward 7 unknown #
point $-1 0.5 0 -0.25 #
edge $-1 $911 1 $911 0 $642 $-1 forward 7 unknown #
point $-1 0.5 0 -0.25 #
plane-surface $-1 272.11279641102328 0 0 -1 0 0 0 0 1 forward_v I I I I #
coedge $-1 $651 $649 $653 $834 reversed $430 $-1 #
edge $-1 $664 -136.05639820551164 $836 136.05639820551164 $663 $912 forward 7 unknown #
vertex $-1 $834 $913 #
straight-curve $-1 -272.11279641102328 -2.9292065275353174 0 0 0 -1 I I #
edge $-1 $832 -2.9292065275353174 $836 2.9292065275353174 $830 $914 forward 7 unknown #
straight-curve $-1 0 -2.9292065275353174 -136.05639820551164 -1 0 0 I I #
vertex $-1 $656 $915 #
straight-curve $-1 0 2.9292065275353174 -136.05639820551164 1 0 0 I I #
point $-1 272.11279641102328 2.9292065275353174 -136.05639820551164 #
point $-1 272.11279641102328 -2.9292065275353174 -136.05639820551164 #
straight-curve $-1 -272.11279641102328 0 136.05639820551164 0 -1 0 I I #
point $-1 -272.11279641102328 2.9292065275353174 136.05639820551164 #
point $-1 -272.11279641102328 -2.9292065275353174 136.05639820551164 #
straight-curve $-1 272.11279641102328 -2.9292065275353174 0 0 0 -1 I I #
straight-curve $-1 272.11279641102328 2.9292065275353174 0 0 0 -1 I I #
edge $-1 $916 1 $916 0 $673 $-1 forward 7 unknown #
point $-1 0.5 0 -0.25 #
edge $-1 $917 1 $917 0 $677 $-1 forward 7 unknown #
point $-1 0.5 0 -0.25 #
edge $-1 $918 1 $918 0 $681 $-1 forward 7 unknown #
point $-1 0.5 0 -0.25 #
plane-surface $-1 272.11279641102328 0 0 -1 0 0 0 0 1 forward_v I I I I #
coedge $-1 $690 $688 $692 $856 reversed $464 $-1 #
edge $-1 $703 -136.05639820551164 $858 136.05639820551164 $702 $919 forward 7 unknown #
vertex $-1 $856 $920 #
straight-curve $-1 -272.11279641102328 -2.9292065275353174 0 0 0 -1 I I #
edge $-1 $854 -2.9292065275353174 $858 2.9292065275353174 $852 $921 forward 7 unknown #
straight-curve $-1 0 -2.9292065275353174 -136.05639820551164 -1 0 0 I I #
vertex $-1 $695 $922 #
straight-curve $-1 0 2.9292065275353174 -136.05639820551164 1 0 0 I I #
point $-1 272.11279641102328 2.9292065275353174 -136.05639820551164 #
point $-1 272.11279641102328 -2.9292065275353174 -136.05639820551164 #
straight-curve $-1 -272.11279641102328 0 136.05639820551164 0 -1 0 I I #
point $-1 -272.11279641102328 2.9292065275353174 136.05639820551164 #
point $-1 -272.11279641102328 -2.9292065275353174 136.05639820551164 #
straight-curve $-1 272.11279641102328 -2.9292065275353174 0 0 0 -1 I I #
straight-curve $-1 272.11279641102328 2.9292065275353174 0 0 0 -1 I I #
edge $-1 $923 1 $923 0 $712 $-1 forward 7 unknown #
point $-1 0.5 0 -0.25 #
edge $-1 $924 1 $924 0 $716 $-1 forward 7 unknown #
point $-1 0.5 0 -0.25 #
edge $-1 $925 1 $925 0 $720 $-1 forward 7 unknown #
point $-1 0.5 0 -0.25 #
plane-surface $-1 272.11279641102328 0 0 -1 0 0 0 0 1 forward_v I I I I #
coedge $-1 $729 $727 $731 $878 reversed $498 $-1 #
edge $-1 $742 -136.05639820551164 $880 136.05639820551164 $741 $926 forward 7 unknown #
vertex $-1 $878 $927 #
straight-curve $-1 -272.11279641102328 -4.0735628015103771 0 0 0 -1 I I #
edge $-1 $876 -4.0735628015103771 $880 4.0735628015103771 $874 $928 forward 7 unknown #
straight-curve $-1 0 -4.0735628015103771 -136.05639820551164 -1 0 0 I I #
vertex $-1 $734 $929 #
straight-curve $-1 0 4.0735628015103771 -136.05639820551164 1 0 0 I I #
point $-1 272.11279641102328 4.0735628015103771 -136.05639820551164 #
point $-1 272.11279641102328 -4.0735628015103771 -136.05639820551164 #
straight-curve $-1 -272.11279641102328 0 136.05639820551164 0 -1 0 I I #
point $-1 -272.11279641102328 4.0735628015103771 136.05639820551164 #
point $-1 -272.11279641102328 -4.0735628015103771 136.05639820551164 #
straight-curve $-1 272.11279641102328 -4.0735628015103771 0 0 0 -1 I I #
straight-curve $-1 272.11279641102328 4.0735628015103771 0 0 0 -1 I I #
edge $-1 $930 1 $930 0 $751 $-1 forward 7 unknown #
point $-1 0.25 0 -0.125 #
edge $-1 $931 1 $931 0 $755 $-1 forward 7 unknown #
point $-1 0.25 0 -0.125 #
straight-curve $-1 -68.028199102755821 41.503492093975076 0 0 0 -1 I I #
point $-1 -68.028199102755821 -41.503492093975076 -20.618370464313031 #
straight-curve $-1 -68.028199102755821 0 -20.618370464313031 0 1 0 I I #
point $-1 -68.028199102755821 41.503492093975076 -20.618370464313031 #
straight-curve $-1 -68.028199102755821 13.363305347031634 0 0 0 -1 I I #
point $-1 -68.028199102755821 -13.363305347031634 -2.7737613710055307 #
straight-curve $-1 -68.028199102755821 0 -2.7737613710055307 0 1 0 I I #
point $-1 -68.028199102755821 13.363305347031634 -2.7737613710055307 #
straight-curve $-1 -68.028199102755821 13.363305347031634 0 0 0 -1 I I #
point $-1 -68.028199102755821 -13.363305347031634 -2.7737613710055307 #
straight-curve $-1 -68.028199102755821 0 -2.7737613710055307 0 1 0 I I #
point $-1 -68.028199102755821 13.363305347031634 -2.7737613710055307 #
straight-curve $-1 -272.11279641102328 2.9292065275353174 0 0 0 -1 I I #
point $-1 -272.11279641102328 -2.9292065275353174 -136.05639820551164 #
straight-curve $-1 -272.11279641102328 0 -136.05639820551164 0 1 0 I I #
point $-1 -272.11279641102328 2.9292065275353174 -136.05639820551164 #
vertex $-1 $823 $932 #
vertex $-1 $825 $933 #
vertex $-1 $827 $934 #
straight-curve $-1 -272.11279641102328 2.9292065275353174 0 0 0 -1 I I #
point $-1 -272.11279641102328 -2.9292065275353174 -136.05639820551164 #
straight-curve $-1 -272.11279641102328 0 -136.05639820551164 0 1 0 I I #
point $-1 -272.11279641102328 2.9292065275353174 -136.05639820551164 #
vertex $-1 $845 $935 #
vertex $-1 $847 $936 #
vertex $-1 $849 $937 #
straight-curve $-1 -272.11279641102328 2.9292065275353174 0 0 0 -1 I I #
point $-1 -272.11279641102328 -2.9292065275353174 -136.05639820551164 #
straight-curve $-1 -272.11279641102328 0 -136.05639820551164 0 1 0 I I #
point $-1 -272.11279641102328 2.9292065275353174 -136.05639820551164 #
vertex $-1 $867 $938 #
vertex $-1 $869 $939 #
vertex $-1 $871 $940 #
straight-curve $-1 -272.11279641102328 4.0735628015103771 0 0 0 -1 I I #
point $-1 -272.11279641102328 -4.0735628015103771 -136.05639820551164 #
straight-curve $-1 -272.11279641102328 0 -136.05639820551164 0 1 0 I I #
point $-1 -272.11279641102328 4.0735628015103771 -136.05639820551164 #
vertex $-1 $889 $941 #
vertex $-1 $891 $942 #
point $-1 0 0 0.25 #
point $-1 0 0 0.25 #
point $-1 0 0 0.25 #
point $-1 0 0 0.25 #
point $-1 0 0 0.25 #
point $-1 0 0 0.25 #
point $-1 0 0 0.25 #
point $-1 0 0 0.25 #
point $-1 0 0 0.25 #
point $-1 0 0 0.125 #
point $-1 0 0 0.125 #
End-of-ACIS-data 