500 0 8 0           
7 Unknown 11 ACIS 5.0 NT 24 Thu Mar 25 19:30:17 1999 
-1 9.9999999999999995e-007 1e-010 
body $-1 $8 $-1 $9 #
body $-1 $10 $-1 $11 #
body $-1 $12 $-1 $13 #
body $-1 $14 $-1 $15 #
body $-1 $16 $-1 $17 #
body $-1 $18 $-1 $19 #
body $-1 $20 $-1 $21 #
body $-1 $22 $-1 $23 #
lump $-1 $-1 $24 $0 #
transform $-1 1 0 0 0 1 0 0 0 1 45.998718222602008 22.960473510093504 10.716522650043215 1 rotate no_reflect no_shear #
lump $-1 $-1 $25 $1 #
transform $-1 1 0 0 0 1 0 0 0 1 45.998718222602008 22.960473510093504 10.716522650043215 1 rotate no_reflect no_shear #
lump $-1 $-1 $26 $2 #
transform $-1 1 0 0 0 1 0 0 0 1 45.998718222602008 22.960473510093504 10.716522650043215 1 rotate no_reflect no_shear #
lump $-1 $-1 $27 $3 #
transform $-1 1 0 0 0 1 0 0 0 1 45.998718222602008 22.960473510093504 10.716522650043215 1 rotate no_reflect no_shear #
lump $-1 $-1 $28 $4 #
transform $-1 1 0 0 0 1 0 0 0 1 45.998718222602008 22.960473510093504 10.716522650043215 1 rotate no_reflect no_shear #
lump $-1 $-1 $29 $5 #
transform $-1 1 0 0 0 1 0 0 0 1 45.998718222602008 22.960473510093504 10.716522650043215 1 rotate no_reflect no_shear #
lump $-1 $-1 $30 $6 #
transform $-1 1 0 0 0 1 0 0 0 1 45.998718222602008 22.960473510093504 10.716522650043215 1 rotate no_reflect no_shear #
lump $-1 $-1 $31 $7 #
transform $-1 1 0 0 0 1 0 0 0 1 45.998718222602008 22.960473510093504 10.716522650043215 1 rotate no_reflect no_shear #
shell $-1 $-1 $-1 $32 $-1 $8 #
shell $-1 $-1 $-1 $33 $-1 $10 #
shell $-1 $-1 $-1 $34 $-1 $12 #
shell $-1 $-1 $-1 $35 $-1 $14 #
shell $-1 $-1 $-1 $36 $-1 $16 #
shell $-1 $-1 $-1 $37 $-1 $18 #
shell $-1 $-1 $-1 $38 $-1 $20 #
shell $-1 $-1 $-1 $39 $-1 $22 #
face $-1 $40 $41 $24 $-1 $42 forward single #
face $-1 $43 $44 $25 $-1 $45 reversed single #
face $-1 $46 $47 $26 $-1 $48 reversed single #
face $-1 $49 $50 $27 $-1 $51 reversed single #
face $-1 $52 $53 $28 $-1 $54 forward single #
face $-1 $55 $56 $29 $-1 $57 forward single #
face $-1 $58 $59 $30 $-1 $60 reversed single #
face $-1 $61 $62 $31 $-1 $63 forward single #
face $-1 $64 $65 $24 $-1 $66 reversed single #
loop $-1 $-1 $67 $32 #
plane-surface $-1 0 0 10.716522650043215 0 0 1 1 0 0 forward_v I I I I #
face $-1 $68 $69 $25 $-1 $70 reversed single #
loop $-1 $-1 $71 $33 #
plane-surface $-1 -40.228926990950271 0 4.7433048890074385 0 0 1 1 0 0 forward_v I I I I #
face $-1 $72 $73 $26 $-1 $74 reversed single #
loop $-1 $-1 $75 $34 #
plane-surface $-1 40.228926990950271 0 4.7433048890074385 0 0 1 1 0 0 forward_v I I I I #
face $-1 $76 $77 $27 $-1 $78 reversed single #
loop $-1 $-1 $79 $35 #
plane-surface $-1 19.204655707938052 -88.012485427045021 70.481859424474138 1 0 0 0 0.70710678939079041 -0.70710677298230451 forward_v I I I I #
face $-1 $80 $81 $28 $-1 $82 forward single #
loop $-1 $83 $84 $36 #
cone-surface $-1 23.563078579755327 -18.385228083512132 6.1412772069530819 0 0.70710678939079041 -0.70710677298230451 1.5 0 0 1 I I 0 1 1.5 forward I I I I #
face $-1 $85 $86 $29 $-1 $87 forward single #
loop $-1 $88 $89 $37 #
cone-surface $-1 30.100712887481251 -18.385228083512132 6.1412772069530819 0 0.70710678939079041 -0.70710677298230451 1.5 0 0 1 I I 0 1 1.5 forward I I I I #
face $-1 $90 $91 $30 $-1 $92 reversed single #
loop $-1 $-1 $93 $38 #
plane-surface $-1 -17.223277971500597 50.392860856159288 105.82031741882702 1 0 0 0 -0.66913061440640931 -0.74314481823134659 forward_v I I I I #
face $-1 $94 $95 $31 $-1 $96 forward single #
loop $-1 $97 $98 $39 #
cone-surface $-1 -13.16194381247368 20.153413542513714 8.0648054823445783 0 -0.66913061440640931 -0.74314481823134659 1 0 0 1 I I 0 1 1 forward I I I I #
face $-1 $99 $100 $24 $-1 $101 reversed single #
loop $-1 $-1 $102 $40 #
plane-surface $-1 0 0 -10.716522650043215 0 0 1 1 0 0 forward_v I I I I #
coedge $-1 $103 $104 $105 $106 forward $41 $-1 #
face $-1 $107 $108 $25 $-1 $109 reversed single #
loop $-1 $-1 $110 $43 #
plane-surface $-1 -34.459135759298533 0 7.7299137695253268 -1 0 0 0 0 1 forward_v I I I I #
coedge $-1 $111 $112 $113 $114 forward $44 $-1 #
face $-1 $115 $116 $26 $-1 $117 forward single #
loop $-1 $-1 $118 $46 #
plane-surface $-1 34.459135759298533 0 7.7299137695253268 1 0 0 0 0 -1 forward_v I I I I #
coedge $-1 $119 $120 $121 $122 reversed $47 $-1 #
face $-1 $123 $124 $27 $-1 $125 forward single #
loop $-1 $-1 $126 $49 #
plane-surface $-1 26.831895733618296 -22.960473510093522 5.4298490170612723 0 -0.70710678939079041 0.70710677298230451 1 0 0 forward_v I I I I #
coedge $-1 $127 $128 $129 $130 reversed $50 $-1 #
face $-1 $-1 $131 $28 $-1 $132 forward single #
loop $-1 $133 $134 $52 #
cone-surface $-1 23.563078579755327 -15.922989320039743 3.679038500617196 0 0.70710678939079041 -0.70710677298230451 0.75 0 0 1 I I -0.70710678118654757 0.70710678118654757 0.75 forward I I I I #
loop $-1 $-1 $135 $36 #
coedge $-1 $84 $84 $136 $137 reversed $53 $-1 #
face $-1 $-1 $138 $29 $-1 $139 forward single #
loop $-1 $140 $141 $55 #
cone-surface $-1 30.100712887481251 -15.922989320039743 3.679038500617196 0 0.70710678939079041 -0.70710677298230451 0.75 0 0 1 I I -0.70710678118654757 0.70710678118654757 0.75 forward I I I I #
loop $-1 $-1 $142 $37 #
coedge $-1 $89 $89 $143 $144 reversed $56 $-1 #
face $-1 $145 $146 $30 $-1 $147 reversed single #
loop $-1 $-1 $148 $58 #
plane-surface $-1 -13.16194381247368 -11.165440316234665 37.452899234006011 0 0.66913061440640931 0.74314481823134659 1 0 0 forward_v I I I I #
coedge $-1 $149 $150 $151 $152 reversed $59 $-1 #
face $-1 $-1 $153 $31 $-1 $154 forward single #
loop $-1 $155 $156 $61 #
cone-surface $-1 -13.16194381247368 19.227868286553484 7.0368833604198233 0 -0.66913061440640931 -0.74314481823134659 0.5 0 0 1 I I -0.70710678118654746 0.70710678118654746 0.5 forward I I I I #
loop $-1 $-1 $157 $39 #
coedge $-1 $98 $98 $158 $159 reversed $62 $-1 #
face $-1 $160 $161 $24 $-1 $162 reversed single #
loop $-1 $-1 $163 $64 #
plane-surface $-1 0 -22.960473510093504 0 0 1 0 0 0 1 forward_v I I I I #
coedge $-1 $164 $165 $166 $167 forward $65 $-1 #
coedge $-1 $168 $67 $169 $170 forward $41 $-1 #
coedge $-1 $67 $168 $171 $172 forward $41 $-1 #
coedge $-1 $173 $174 $67 $106 reversed $175 $-1 #
edge $-1 $176 -22.960473510093504 $177 22.960473510093504 $105 $178 forward 7 unknown #
face $-1 $179 $180 $25 $-1 $181 reversed single #
loop $-1 $-1 $182 $68 #
plane-surface $-1 0 22.960473510093504 0 0 -1 0 0 0 -1 forward_v I I I I #
coedge $-1 $113 $183 $184 $185 reversed $69 $-1 #
coedge $-1 $186 $71 $187 $188 reversed $44 $-1 #
coedge $-1 $71 $186 $189 $190 reversed $44 $-1 #
coedge $-1 $191 $110 $71 $114 reversed $69 $-1 #
edge $-1 $192 -22.960473510093504 $193 22.960473510093504 $113 $194 forward 7 unknown #
face $-1 $195 $196 $26 $-1 $197 reversed single #
loop $-1 $-1 $198 $72 #
plane-surface $-1 0 0 10.716522650043215 0 0 1 1 0 0 forward_v I I I I #
coedge $-1 $199 $200 $201 $202 reversed $73 $-1 #
coedge $-1 $203 $75 $204 $205 reversed $47 $-1 #
coedge $-1 $75 $203 $206 $207 reversed $47 $-1 #
coedge $-1 $208 $209 $75 $122 forward $210 $-1 #
edge $-1 $211 -22.960473510093504 $212 22.960473510093504 $121 $213 forward 7 unknown #
face $-1 $214 $215 $27 $-1 $216 reversed single #
loop $-1 $-1 $217 $76 #
plane-surface $-1 0 0 10.716522650043215 0 0 1 1 0 0 forward_v I I I I #
coedge $-1 $218 $219 $220 $221 reversed $77 $-1 #
coedge $-1 $128 $79 $222 $223 reversed $50 $-1 #
coedge $-1 $79 $127 $218 $224 reversed $50 $-1 #
coedge $-1 $220 $225 $79 $130 forward $215 $-1 #
edge $-1 $226 24.524407062193852 $227 29.811080695175779 $129 $228 forward 7 unknown #
loop $-1 $-1 $136 $80 #
plane-surface $-1 26.831895733618296 -22.960473510093522 5.4298490170612723 0 -0.70710678939079041 0.70710677298230451 1 0 0 forward_v I I I I #
loop $-1 $-1 $229 $52 #
coedge $-1 $134 $134 $135 $230 reversed $81 $-1 #
coedge $-1 $135 $135 $134 $230 forward $83 $-1 #
coedge $-1 $136 $136 $84 $137 forward $131 $-1 #
edge $-1 $231 -1.5545240530711266e-022 $231 6.2831853071796004 $136 $232 forward 7 unknown #
loop $-1 $-1 $143 $85 #
plane-surface $-1 26.831895733618296 -22.960473510093522 5.4298490170612723 0 -0.70710678939079041 0.70710677298230451 1 0 0 forward_v I I I I #
loop $-1 $-1 $233 $55 #
coedge $-1 $141 $141 $142 $234 reversed $86 $-1 #
coedge $-1 $142 $142 $141 $234 forward $88 $-1 #
coedge $-1 $143 $143 $89 $144 forward $138 $-1 #
edge $-1 $235 -1.5545240530711266e-022 $235 6.2831853071796004 $143 $236 forward 7 unknown #
face $-1 $237 $238 $30 $-1 $239 reversed single #
loop $-1 $-1 $240 $90 #
plane-surface $-1 -9.1006096534467638 50.392860856159288 105.82031741882702 -1 0 0 0 0.66913061440640931 0.74314481823134659 forward_v I I I I #
coedge $-1 $241 $242 $243 $244 reversed $91 $-1 #
coedge $-1 $150 $93 $245 $246 reversed $59 $-1 #
coedge $-1 $93 $149 $241 $247 reversed $59 $-1 #
coedge $-1 $243 $248 $93 $152 forward $249 $-1 #
edge $-1 $250 2.2359569179861403 $251 6.668116955631664 $151 $252 forward 7 unknown #
loop $-1 $-1 $158 $94 #
plane-surface $-1 -13.16194381247368 -11.165440316234665 37.452899234006011 0 0.66913061440640931 0.74314481823134659 1 0 0 forward_v I I I I #
loop $-1 $-1 $253 $61 #
coedge $-1 $156 $156 $157 $254 reversed $95 $-1 #
coedge $-1 $157 $157 $156 $254 forward $97 $-1 #
coedge $-1 $158 $158 $98 $159 forward $153 $-1 #
edge $-1 $255 1.1886147433529169e-015 $255 6.2831853071796013 $158 $256 forward 7 unknown #
face $-1 $257 $258 $24 $-1 $259 reversed single #
loop $-1 $-1 $260 $99 #
plane-surface $-1 -45.998718222602008 0 0 1 0 0 0 0 -1 forward_v I I I I #
coedge $-1 $261 $171 $262 $263 forward $100 $-1 #
coedge $-1 $264 $102 $261 $265 forward $65 $-1 #
coedge $-1 $102 $264 $266 $267 forward $65 $-1 #
coedge $-1 $174 $173 $102 $167 reversed $175 $-1 #
edge $-1 $268 -22.960473510093504 $269 22.960473510093504 $166 $270 forward 7 unknown #
coedge $-1 $104 $103 $271 $272 forward $41 $-1 #
coedge $-1 $273 $274 $103 $170 reversed $258 $-1 #
edge $-1 $177 -45.998718222602008 $275 45.998718222602008 $169 $276 forward 7 unknown #
coedge $-1 $163 $277 $104 $172 reversed $100 $-1 #
edge $-1 $278 -45.998718222602008 $176 45.998718222602008 $171 $279 forward 7 unknown #
coedge $-1 $166 $105 $277 $280 forward $175 $-1 #
coedge $-1 $105 $166 $273 $281 reversed $175 $-1 #
loop $-1 $-1 $173 $257 #
vertex $-1 $106 $282 #
vertex $-1 $106 $283 #
straight-curve $-1 45.998718222602008 0 10.716522650043215 0 1 0 I I #
face $-1 $284 $285 $25 $-1 $286 forward single #
loop $-1 $-1 $287 $107 #
plane-surface $-1 -45.998718222602008 0 0 1 0 0 0 0 -1 forward_v I I I I #
coedge $-1 $189 $288 $191 $289 forward $108 $-1 #
coedge $-1 $110 $191 $290 $291 reversed $69 $-1 #
coedge $-1 $292 $187 $110 $185 forward $293 $-1 #
edge $-1 $193 0.8783480042447751 $294 6.8515657652805517 $184 $295 forward 7 unknown #
coedge $-1 $112 $111 $287 $296 reversed $44 $-1 #
coedge $-1 $184 $297 $111 $188 forward $293 $-1 #
edge $-1 $298 -25.884254727126873 $193 -14.344672263823398 $187 $299 forward 7 unknown #
coedge $-1 $300 $182 $112 $190 forward $108 $-1 #
edge $-1 $192 14.344672263823398 $301 25.884254727126873 $189 $302 forward 7 unknown #
coedge $-1 $183 $113 $182 $289 reversed $69 $-1 #
vertex $-1 $190 $303 #
vertex $-1 $188 $304 #
straight-curve $-1 -34.459135759298533 0 4.7433048890074385 0 -1 0 I I #
face $-1 $305 $306 $26 $-1 $307 reversed single #
loop $-1 $-1 $308 $115 #
plane-surface $-1 0 -22.960473510093504 0 0 1 0 0 0 1 forward_v I I I I #
coedge $-1 $309 $310 $200 $311 forward $116 $-1 #
coedge $-1 $312 $118 $203 $313 reversed $73 $-1 #
coedge $-1 $118 $312 $198 $311 reversed $73 $-1 #
coedge $-1 $314 $206 $118 $202 forward $306 $-1 #
edge $-1 $315 0.8783480042447751 $316 6.8515657652805517 $201 $317 forward 7 unknown #
coedge $-1 $120 $119 $199 $313 forward $47 $-1 #
coedge $-1 $318 $308 $119 $205 forward $196 $-1 #
edge $-1 $319 14.344672263823398 $211 25.884254727126873 $204 $320 forward 7 unknown #
coedge $-1 $201 $321 $120 $207 forward $306 $-1 #
edge $-1 $212 -25.884254727126873 $315 -14.344672263823398 $206 $322 forward 7 unknown #
coedge $-1 $323 $121 $321 $324 reversed $210 $-1 #
coedge $-1 $121 $323 $318 $325 forward $210 $-1 #
loop $-1 $-1 $121 $305 #
vertex $-1 $205 $326 #
vertex $-1 $122 $327 #
straight-curve $-1 45.998718222602008 0 4.7433048890074385 0 1 0 I I #
face $-1 $-1 $328 $27 $-1 $329 forward single #
loop $-1 $-1 $129 $123 #
plane-surface $-1 0 -22.960473510093504 0 0 1 0 0 0 1 forward_v I I I I #
coedge $-1 $222 $330 $331 $332 forward $124 $-1 #
coedge $-1 $331 $126 $128 $224 forward $77 $-1 #
coedge $-1 $126 $331 $333 $334 reversed $77 $-1 #
coedge $-1 $335 $129 $126 $221 forward $215 $-1 #
edge $-1 $227 5.7887078411289039 $336 21.043187892489385 $220 $337 forward 7 unknown #
coedge $-1 $338 $217 $127 $223 forward $124 $-1 #
edge $-1 $339 -26.332442713733126 $226 -21.045769203429007 $222 $340 forward 7 unknown #
edge $-1 $227 2.5121479338940405e-014 $339 7.4764854648570003 $128 $341 forward 7 unknown #
coedge $-1 $129 $335 $338 $342 reversed $215 $-1 #
vertex $-1 $342 $343 #
vertex $-1 $130 $344 #
straight-curve $-1 19.204655707938052 -22.9604735100935 35.240929712237069 0 0 -1 I I #
coedge $-1 $229 $229 $-1 $345 reversed $133 $-1 #
edge $-1 $346 0 $346 6.2831853071796004 $134 $347 forward 7 unknown #
vertex $-1 $137 $348 #
ellipse-curve $-1 23.563078579755327 -20.317136754941444 8.0731858335522535 0 -0.70710678939079041 0.70710677298230451 1.5 0 0 1 I I #
coedge $-1 $233 $233 $-1 $349 reversed $140 $-1 #
edge $-1 $350 0 $350 6.2831853071796004 $141 $351 forward 7 unknown #
vertex $-1 $144 $352 #
ellipse-curve $-1 30.100712887481251 -20.317136754941444 8.0731858335522535 0 -0.70710678939079041 0.70710677298230451 1.5 0 0 1 I I #
face $-1 $-1 $249 $30 $-1 $353 forward single #
loop $-1 $-1 $354 $145 #
plane-surface $-1 0 22.960473510093504 0 0 -1 0 0 0 -1 forward_v I I I I #
coedge $-1 $355 $356 $357 $358 reversed $146 $-1 #
coedge $-1 $359 $148 $150 $247 forward $91 $-1 #
coedge $-1 $148 $359 $355 $360 forward $91 $-1 #
coedge $-1 $357 $151 $148 $244 forward $249 $-1 #
edge $-1 $251 -10.642306065263757 $361 -2.5196377472099236 $243 $362 forward 7 unknown #
coedge $-1 $363 $364 $149 $246 forward $238 $-1 #
edge $-1 $365 -46.184370969149398 $250 -42.193636059370291 $245 $366 forward 7 unknown #
edge $-1 $251 39.956887352525086 $365 45.920947020187008 $150 $367 forward 7 unknown #
coedge $-1 $151 $357 $363 $368 forward $249 $-1 #
loop $-1 $-1 $357 $237 #
vertex $-1 $246 $369 #
vertex $-1 $152 $370 #
straight-curve $-1 -17.223277971500597 25.196430428079644 10.716522650043217 0 -1 0 I I #
coedge $-1 $253 $253 $-1 $371 reversed $155 $-1 #
edge $-1 $372 0 $372 6.2831853071796004 $156 $373 forward 7 unknown #
vertex $-1 $159 $374 #
ellipse-curve $-1 -13.16194381247368 20.744393491270742 8.7211551951536617 0 0.66913061440640931 0.74314481823134659 1 0 0 1 I I #
face $-1 $-1 $175 $24 $-1 $375 reversed single #
loop $-1 $-1 $273 $160 #
plane-surface $-1 0 22.960473510093504 0 0 -1 0 0 0 -1 forward_v I I I I #
coedge $-1 $376 $271 $274 $377 forward $161 $-1 #
coedge $-1 $277 $163 $164 $265 reversed $100 $-1 #
coedge $-1 $271 $376 $163 $263 reversed $161 $-1 #
edge $-1 $278 -10.716522650043215 $378 10.716522650043215 $262 $379 forward 7 unknown #
coedge $-1 $165 $164 $376 $380 forward $65 $-1 #
edge $-1 $269 -45.998718222602008 $378 45.998718222602008 $261 $381 forward 7 unknown #
coedge $-1 $274 $273 $165 $267 reversed $258 $-1 #
edge $-1 $382 -45.998718222602008 $268 45.998718222602008 $266 $383 forward 7 unknown #
vertex $-1 $167 $384 #
vertex $-1 $280 $385 #
straight-curve $-1 45.998718222602008 0 -10.716522650043215 0 -1 0 I I #
coedge $-1 $260 $262 $168 $272 reversed $161 $-1 #
edge $-1 $275 -22.960473510093504 $278 22.960473510093504 $271 $386 forward 7 unknown #
coedge $-1 $266 $169 $174 $281 forward $258 $-1 #
coedge $-1 $169 $266 $260 $377 reversed $258 $-1 #
vertex $-1 $170 $387 #
straight-curve $-1 0 22.960473510093504 10.716522650043215 -1 0 0 I I #
coedge $-1 $171 $261 $173 $280 reversed $100 $-1 #
vertex $-1 $272 $388 #
straight-curve $-1 0 -22.960473510093504 10.716522650043215 1 0 0 I I #
edge $-1 $176 -10.716522650043215 $269 10.716522650043215 $173 $389 forward 7 unknown #
edge $-1 $177 -10.716522650043215 $268 10.716522650043215 $174 $390 forward 7 unknown #
point $-1 45.998718222602008 -22.960473510093504 10.716522650043215 #
point $-1 45.998718222602008 22.960473510093504 10.716522650043215 #
face $-1 $-1 $293 $25 $-1 $391 reversed single #
loop $-1 $-1 $290 $179 #
plane-surface $-1 0 0 10.716522650043215 0 0 1 1 0 0 forward_v I I I I #
coedge $-1 $392 $393 $186 $296 forward $180 $-1 #
coedge $-1 $182 $300 $394 $395 reversed $108 $-1 #
edge $-1 $396 -6.8515657652805517 $192 -0.8783480042447751 $182 $397 forward 7 unknown #
coedge $-1 $394 $398 $183 $291 forward $285 $-1 #
edge $-1 $294 -22.960473510093504 $396 22.960473510093504 $290 $399 forward 7 unknown #
coedge $-1 $297 $184 $398 $400 reversed $293 $-1 #
loop $-1 $-1 $184 $284 #
vertex $-1 $185 $401 #
straight-curve $-1 -34.459135759298533 -22.960473510093504 3.8649568847626634 0 0 1 I I #
edge $-1 $301 -22.960473510093504 $298 22.960473510093504 $287 $402 forward 7 unknown #
coedge $-1 $187 $292 $392 $403 forward $293 $-1 #
vertex $-1 $296 $404 #
straight-curve $-1 -20.114463495475135 -22.960473510093504 4.7433048890074385 1 0 0 I I #
coedge $-1 $288 $189 $393 $405 reversed $108 $-1 #
vertex $-1 $296 $406 #
straight-curve $-1 -20.114463495475135 22.960473510093504 4.7433048890074385 -1 0 0 I I #
point $-1 -34.459135759298533 22.960473510093504 4.7433048890074385 #
point $-1 -34.459135759298533 -22.960473510093504 4.7433048890074385 #
face $-1 $-1 $210 $26 $-1 $407 reversed single #
loop $-1 $-1 $201 $195 #
plane-surface $-1 0 22.960473510093504 0 0 -1 0 0 0 -1 forward_v I I I I #
coedge $-1 $204 $408 $312 $409 forward $196 $-1 #
coedge $-1 $410 $198 $408 $411 forward $116 $-1 #
coedge $-1 $198 $410 $314 $412 forward $116 $-1 #
edge $-1 $316 -22.960473510093504 $413 22.960473510093504 $198 $414 forward 7 unknown #
coedge $-1 $200 $199 $308 $409 reversed $73 $-1 #
edge $-1 $319 -22.960473510093504 $315 22.960473510093504 $199 $415 forward 7 unknown #
coedge $-1 $321 $201 $310 $412 reversed $306 $-1 #
vertex $-1 $207 $416 #
vertex $-1 $202 $417 #
straight-curve $-1 34.459135759298533 22.960473510093504 3.8649568847626634 0 0 1 I I #
coedge $-1 $408 $204 $209 $325 reversed $196 $-1 #
vertex $-1 $205 $418 #
straight-curve $-1 20.114463495475135 -22.960473510093504 4.7433048890074385 1 0 0 I I #
coedge $-1 $206 $314 $208 $324 forward $306 $-1 #
straight-curve $-1 20.114463495475135 22.960473510093504 4.7433048890074385 -1 0 0 I I #
coedge $-1 $209 $208 $410 $419 reversed $210 $-1 #
edge $-1 $420 -10.716522650043215 $212 -4.7433048890074385 $208 $421 forward 7 unknown #
edge $-1 $422 -10.716522650043215 $211 -4.7433048890074385 $209 $423 forward 7 unknown #
point $-1 45.998718222602008 -22.960473510093504 4.7433048890074385 #
point $-1 45.998718222602008 22.960473510093504 4.7433048890074385 #
loop $-1 $-1 $333 $214 #
plane-surface $-1 34.459135759298533 0 7.7299137695253268 1 0 0 0 0 -1 forward_v I I I I #
coedge $-1 $217 $338 $424 $425 forward $124 $-1 #
coedge $-1 $219 $218 $217 $332 reversed $77 $-1 #
edge $-1 $426 -21.043187892489385 $339 -5.7887078411289039 $217 $427 forward 7 unknown #
coedge $-1 $424 $428 $219 $334 forward $328 $-1 #
edge $-1 $336 -8.9309488661868244 $426 -1.4544634013298507 $333 $429 forward 7 unknown #
coedge $-1 $225 $220 $428 $430 forward $215 $-1 #
vertex $-1 $430 $431 #
straight-curve $-1 13.415947866809148 -22.960473510093504 5.4298490170612919 1 0 0 I I #
coedge $-1 $330 $222 $225 $342 forward $124 $-1 #
vertex $-1 $223 $432 #
straight-curve $-1 19.204655707938052 -44.006242713522511 10.716522650043217 0 -1 0 I I #
straight-curve $-1 19.204655707938052 -22.960473510093522 5.4298490170612723 0 0.70710677298230451 0.70710678939079041 I I #
edge $-1 $226 19.204655707938052 $433 34.459135759298533 $225 $434 forward 7 unknown #
point $-1 19.204655707938052 -22.960473510093504 10.716522650043215 #
point $-1 19.204655707938052 -22.960473510093504 5.4298490170612901 #
edge $-1 $435 1 $435 0 $229 $-1 forward 7 unknown #
vertex $-1 $230 $436 #
ellipse-curve $-1 23.563078579755327 -16.453319412082838 4.2093685803539245 0 -0.70710678939079041 0.70710677298230451 1.5 0 0 1 I I #
point $-1 25.063078579755327 -20.31713675494143 8.0731858335522393 #
edge $-1 $437 1 $437 0 $233 $-1 forward 7 unknown #
vertex $-1 $234 $438 #
ellipse-curve $-1 30.100712887481251 -16.453319412082838 4.2093685803539245 0 -0.70710678939079041 0.70710677298230451 1.5 0 0 1 I I #
point $-1 31.600712887481251 -20.31713675494143 8.0731858335522393 #
plane-surface $-1 0 0 10.716522650043215 0 0 1 1 0 0 forward_v I I I I #
coedge $-1 $364 $363 $356 $439 forward $238 $-1 #
coedge $-1 $356 $240 $242 $360 reversed $146 $-1 #
coedge $-1 $240 $355 $354 $439 reversed $146 $-1 #
coedge $-1 $248 $243 $240 $358 forward $249 $-1 #
edge $-1 $361 -6.668116955631664 $440 -2.2359569179861403 $357 $441 forward 7 unknown #
coedge $-1 $242 $241 $364 $442 reversed $91 $-1 #
edge $-1 $443 -45.920947020187008 $361 -39.956887352525086 $355 $444 forward 7 unknown #
vertex $-1 $244 $445 #
straight-curve $-1 -6.5809719062368401 18.528313472447991 10.71652265004321 1 0 0 I I #
coedge $-1 $354 $245 $248 $368 reversed $238 $-1 #
coedge $-1 $245 $354 $359 $442 forward $238 $-1 #
vertex $-1 $246 $446 #
straight-curve $-1 -17.223277971500597 22.960473510093504 52.910158709413508 0 0 1 I I #
straight-curve $-1 -17.223277971500597 -11.165440316234665 37.452899234006011 0 0.74314481823134659 -0.66913061440640931 I I #
edge $-1 $440 9.1006096534467638 $250 17.223277971500597 $363 $447 forward 7 unknown #
point $-1 -17.223277971500597 22.960473510093504 10.716522650043215 #
point $-1 -17.223277971500597 18.52831347244798 10.716522650043213 #
edge $-1 $448 1 $448 0 $253 $-1 forward 7 unknown #
vertex $-1 $254 $449 #
ellipse-curve $-1 -13.16194381247368 19.562433593756687 7.4084557695354967 0 0.66913061440640931 0.74314481823134659 1 0 0 1 I I #
point $-1 -12.16194381247368 20.744393491270742 8.7211551951536599 #
plane-surface $-1 45.998718222602008 0 0 -1 0 0 0 0 1 forward_v I I I I #
coedge $-1 $262 $260 $264 $380 reversed $161 $-1 #
edge $-1 $275 -10.716522650043215 $382 10.716522650043215 $274 $450 forward 7 unknown #
vertex $-1 $380 $451 #
straight-curve $-1 -45.998718222602008 -22.960473510093504 0 0 0 -1 I I #
edge $-1 $378 -22.960473510093504 $382 22.960473510093504 $376 $452 forward 7 unknown #
straight-curve $-1 0 -22.960473510093504 -10.716522650043215 -1 0 0 I I #
vertex $-1 $267 $453 #
straight-curve $-1 0 22.960473510093504 -10.716522650043215 1 0 0 I I #
point $-1 45.998718222602008 22.960473510093504 -10.716522650043215 #
point $-1 45.998718222602008 -22.960473510093504 -10.716522650043215 #
straight-curve $-1 -45.998718222602008 0 10.716522650043215 0 -1 0 I I #
point $-1 -45.998718222602008 22.960473510093504 10.716522650043215 #
point $-1 -45.998718222602008 -22.960473510093504 10.716522650043215 #
straight-curve $-1 45.998718222602008 -22.960473510093504 0 0 0 -1 I I #
straight-curve $-1 45.998718222602008 22.960473510093504 0 0 0 -1 I I #
plane-surface $-1 0 -22.960473510093504 0 0 1 0 0 0 1 forward_v I I I I #
coedge $-1 $454 $287 $297 $403 reversed $180 $-1 #
coedge $-1 $287 $454 $300 $405 forward $180 $-1 #
coedge $-1 $455 $290 $288 $395 forward $285 $-1 #
edge $-1 $396 34.459135759298533 $456 45.998718222602008 $288 $457 forward 7 unknown #
vertex $-1 $395 $458 #
straight-curve $-1 -34.459135759298533 22.960473510093504 3.8649568847626634 0 0 -1 I I #
coedge $-1 $290 $455 $292 $400 forward $285 $-1 #
straight-curve $-1 -34.459135759298533 0 10.716522650043215 0 1 0 I I #
edge $-1 $459 -45.998718222602008 $294 -34.459135759298533 $292 $460 forward 7 unknown #
point $-1 -34.459135759298533 -22.960473510093504 10.716522650043215 #
straight-curve $-1 -45.998718222602008 0 4.7433048890074385 0 -1 0 I I #
edge $-1 $459 -10.716522650043215 $298 -4.7433048890074385 $392 $461 forward 7 unknown #
point $-1 -45.998718222602008 -22.960473510093504 4.7433048890074385 #
edge $-1 $456 -10.716522650043215 $301 -4.7433048890074385 $300 $462 forward 7 unknown #
point $-1 -45.998718222602008 22.960473510093504 4.7433048890074385 #
plane-surface $-1 45.998718222602008 0 0 -1 0 0 0 0 1 forward_v I I I I #
coedge $-1 $308 $318 $309 $411 reversed $196 $-1 #
edge $-1 $413 -6.8515657652805517 $319 -0.8783480042447751 $308 $463 forward 7 unknown #
coedge $-1 $310 $309 $323 $419 forward $116 $-1 #
edge $-1 $413 34.459135759298533 $422 45.998718222602008 $408 $464 forward 7 unknown #
edge $-1 $420 -45.998718222602008 $316 -34.459135759298533 $314 $465 forward 7 unknown #
vertex $-1 $411 $466 #
straight-curve $-1 34.459135759298533 0 10.716522650043215 0 -1 0 I I #
straight-curve $-1 34.459135759298533 0 4.7433048890074385 0 1 0 I I #
point $-1 34.459135759298533 22.960473510093504 4.7433048890074385 #
point $-1 34.459135759298533 22.960473510093504 10.716522650043215 #
point $-1 34.459135759298533 -22.960473510093504 4.7433048890074385 #
edge $-1 $422 -22.960473510093504 $420 22.960473510093504 $323 $467 forward 7 unknown #
vertex $-1 $419 $468 #
straight-curve $-1 45.998718222602008 22.960473510093504 0 0 0 -1 I I #
vertex $-1 $419 $469 #
straight-curve $-1 45.998718222602008 -22.960473510093504 0 0 0 -1 I I #
coedge $-1 $428 $333 $330 $425 reversed $328 $-1 #
edge $-1 $433 -22.960473510093504 $426 -17.673799999789384 $330 $470 forward 7 unknown #
vertex $-1 $334 $471 #
straight-curve $-1 13.415947866809148 -17.673799999789384 10.716522650043215 -1 0 0 I I #
coedge $-1 $333 $424 $335 $430 reversed $328 $-1 #
straight-curve $-1 34.459135759298533 -16.645339077654167 11.744983596043975 0 0.70710677298230462 0.70710678939079052 I I #
edge $-1 $336 1.5648921322986267 $433 6.8515657652805517 $335 $472 forward 7 unknown #
point $-1 34.459135759298533 -22.960473510093504 5.4298490170612901 #
point $-1 19.204655707938052 -17.673799999789384 10.716522650043215 #
vertex $-1 $425 $473 #
straight-curve $-1 0 -22.960473510093504 10.716522650043215 1 0 0 I I #
vertex $-1 $345 $474 #
point $-1 25.063078579755327 -16.453319412082838 4.2093685803539245 #
vertex $-1 $349 $475 #
point $-1 31.600712887481251 -16.453319412082838 4.2093685803539245 #
edge $-1 $440 42.193636059370291 $443 46.184370969149398 $354 $476 forward 7 unknown #
vertex $-1 $368 $477 #
straight-curve $-1 -9.1006096534467638 25.196430428079644 10.716522650043217 0 1 0 I I #
edge $-1 $443 2.5196377472099236 $365 10.642306065263757 $364 $478 forward 7 unknown #
vertex $-1 $442 $479 #
straight-curve $-1 -9.1006096534467638 -11.165440316234665 37.452899234006011 0 -0.74314481823134659 0.66913061440640931 I I #
point $-1 -9.1006096534467638 18.52831347244798 10.716522650043213 #
point $-1 -17.223277971500597 22.960473510093507 6.72578774026411 #
straight-curve $-1 0 22.960473510093504 10.716522650043215 -1 0 0 I I #
vertex $-1 $371 $480 #
point $-1 -12.16194381247368 19.562433593756687 7.4084557695354967 #
straight-curve $-1 -45.998718222602008 22.960473510093504 0 0 0 -1 I I #
point $-1 -45.998718222602008 -22.960473510093504 -10.716522650043215 #
straight-curve $-1 -45.998718222602008 0 -10.716522650043215 0 1 0 I I #
point $-1 -45.998718222602008 22.960473510093504 -10.716522650043215 #
coedge $-1 $393 $392 $455 $481 reversed $180 $-1 #
coedge $-1 $398 $394 $454 $481 forward $285 $-1 #
vertex $-1 $395 $482 #
straight-curve $-1 0 22.960473510093504 10.716522650043215 -1 0 0 I I #
point $-1 -34.459135759298533 22.960473510093504 10.716522650043215 #
vertex $-1 $481 $483 #
straight-curve $-1 0 -22.960473510093504 10.716522650043215 1 0 0 I I #
straight-curve $-1 -45.998718222602008 -22.960473510093504 0 0 0 -1 I I #
straight-curve $-1 -45.998718222602008 22.960473510093504 0 0 0 -1 I I #
straight-curve $-1 34.459135759298533 -22.960473510093504 3.8649568847626634 0 0 -1 I I #
straight-curve $-1 0 -22.960473510093504 10.716522650043215 1 0 0 I I #
straight-curve $-1 0 22.960473510093504 10.716522650043215 -1 0 0 I I #
point $-1 34.459135759298533 -22.960473510093504 10.716522650043215 #
straight-curve $-1 45.998718222602008 0 10.716522650043215 0 1 0 I I #
point $-1 45.998718222602008 22.960473510093504 10.716522650043215 #
point $-1 45.998718222602008 -22.960473510093504 10.716522650043215 #
straight-curve $-1 34.459135759298533 0 10.716522650043215 0 1 0 I I #
point $-1 34.459135759298533 -17.673799999789384 10.716522650043215 #
straight-curve $-1 34.459135759298533 -22.960473510093504 3.8649568847626634 0 0 1 I I #
point $-1 34.459135759298533 -22.960473510093504 10.716522650043215 #
point $-1 23.563078579755327 -15.392659227996651 3.1487084208804674 #
point $-1 30.100712887481251 -15.392659227996651 3.1487084208804674 #
straight-curve $-1 -9.1006096534467638 22.960473510093504 52.910158709413508 0 0 -1 I I #
point $-1 -9.1006096534467638 22.960473510093504 10.716522650043215 #
straight-curve $-1 -6.5809719062368401 22.960473510093504 6.7257877402641082 -1 0 0 I I #
point $-1 -9.1006096534467638 22.960473510093507 6.72578774026411 #
point $-1 -13.16194381247368 18.893302979350281 6.66531095130415 #
edge $-1 $456 -22.960473510093504 $459 22.960473510093504 $454 $484 forward 7 unknown #
point $-1 -45.998718222602008 22.960473510093504 10.716522650043215 #
point $-1 -45.998718222602008 -22.960473510093504 10.716522650043215 #
straight-curve $-1 -45.998718222602008 0 10.716522650043215 0 -1 0 I I #
End-of-ACIS-data 