500 0 12 0           
7 Unknown 11 ACIS 5.0 NT 24 Fri Mar 26 17:06:12 1999 
-1 9.9999999999999995e-007 1e-010 
body $-1 $12 $-1 $13 #
body $-1 $14 $-1 $15 #
body $-1 $16 $-1 $17 #
body $-1 $18 $-1 $19 #
body $-1 $20 $-1 $21 #
body $-1 $22 $-1 $23 #
body $-1 $24 $-1 $25 #
body $-1 $26 $-1 $27 #
body $-1 $28 $-1 $29 #
body $-1 $30 $-1 $31 #
body $-1 $32 $-1 $33 #
body $-1 $34 $-1 $35 #
lump $-1 $-1 $36 $0 #
transform $-1 1 0 0 0 1 0 0 0 1 79.6691793572802 40.833645612900369 10.093949586472112 1 rotate no_reflect no_shear #
lump $-1 $-1 $37 $1 #
transform $-1 1 0 0 0 1 0 0 0 1 79.6691793572802 40.833645612900369 10.093949586472112 1 rotate no_reflect no_shear #
lump $-1 $-1 $38 $2 #
transform $-1 1 0 0 0 1 0 0 0 1 79.6691793572802 40.833645612900369 10.093949586472112 1 rotate no_reflect no_shear #
lump $-1 $-1 $39 $3 #
transform $-1 1 0 0 0 1 0 0 0 1 79.6691793572802 40.833645612900369 10.093949586472112 1 rotate no_reflect no_shear #
lump $-1 $-1 $40 $4 #
transform $-1 1 0 0 0 1 0 0 0 1 79.6691793572802 40.833645612900369 10.093949586472112 1 rotate no_reflect no_shear #
lump $-1 $-1 $41 $5 #
transform $-1 1 0 0 0 1 0 0 0 1 79.6691793572802 40.833645612900369 10.093949586472112 1 rotate no_reflect no_shear #
lump $-1 $-1 $42 $6 #
transform $-1 1 0 0 0 1 0 0 0 1 79.6691793572802 40.833645612900369 10.093949586472112 1 rotate no_reflect no_shear #
lump $-1 $-1 $43 $7 #
transform $-1 1 0 0 0 1 0 0 0 1 79.6691793572802 40.833645612900369 10.093949586472112 1 rotate no_reflect no_shear #
lump $-1 $-1 $44 $8 #
transform $-1 1 0 0 0 1 0 0 0 1 79.6691793572802 40.833645612900369 10.093949586472112 1 rotate no_reflect no_shear #
lump $-1 $-1 $45 $9 #
transform $-1 1 0 0 0 1 0 0 0 1 79.6691793572802 40.833645612900369 10.093949586472112 1 rotate no_reflect no_shear #
lump $-1 $-1 $46 $10 #
transform $-1 1 0 0 0 1 0 0 0 1 79.6691793572802 40.833645612900369 10.093949586472112 1 rotate no_reflect no_shear #
lump $-1 $-1 $47 $11 #
transform $-1 1 0 0 0 1 0 0 0 1 79.6691793572802 40.833645612900369 10.093949586472112 1 rotate no_reflect no_shear #
shell $-1 $-1 $-1 $48 $-1 $12 #
shell $-1 $-1 $-1 $49 $-1 $14 #
shell $-1 $-1 $-1 $50 $-1 $16 #
shell $-1 $-1 $-1 $51 $-1 $18 #
shell $-1 $-1 $-1 $52 $-1 $20 #
shell $-1 $-1 $-1 $53 $-1 $22 #
shell $-1 $-1 $-1 $54 $-1 $24 #
shell $-1 $-1 $-1 $55 $-1 $26 #
shell $-1 $-1 $-1 $56 $-1 $28 #
shell $-1 $-1 $-1 $57 $-1 $30 #
shell $-1 $-1 $-1 $58 $-1 $32 #
shell $-1 $-1 $-1 $59 $-1 $34 #
face $-1 $60 $61 $36 $-1 $62 forward single #
face $-1 $63 $64 $37 $-1 $65 forward single #
face $-1 $66 $67 $38 $-1 $68 reversed single #
face $-1 $69 $70 $39 $-1 $71 forward single #
face $-1 $72 $73 $40 $-1 $74 forward single #
face $-1 $75 $76 $41 $-1 $77 forward single #
face $-1 $78 $79 $42 $-1 $80 reversed single #
face $-1 $81 $82 $43 $-1 $83 forward single #
face $-1 $84 $85 $44 $-1 $86 forward single #
face $-1 $87 $88 $45 $-1 $89 reversed single #
face $-1 $90 $91 $46 $-1 $92 forward single #
face $-1 $93 $94 $47 $-1 $95 forward single #
face $-1 $96 $97 $36 $-1 $98 reversed single #
loop $-1 $-1 $99 $48 #
plane-surface $-1 0 0 10.093949586472112 0 0 1 1 0 0 forward_v I I I I #
face $-1 $100 $101 $37 $-1 $102 reversed single #
loop $-1 $-1 $103 $49 #
plane-surface $-1 -79.6691793572802 0 0 1 0 0 0 0 -1 forward_v I I I I #
face $-1 $104 $105 $38 $-1 $106 reversed single #
loop $-1 $-1 $107 $50 #
plane-surface $-1 51.682360973779467 68.420158145654426 180.15945266632818 1 0 0 0 -0.5877852598018023 -0.80901698891910034 forward_v I I I I #
face $-1 $108 $109 $39 $-1 $110 forward single #
loop $-1 $111 $112 $51 #
cone-surface $-1 56.512287394002271 35.57372886453927 5.9153676157257529 0 -0.5877852598018023 -0.80901698891910034 1.5 0 0 1 I I 0 1 1.5 forward I I I I #
face $-1 $113 $114 $40 $-1 $115 forward single #
loop $-1 $116 $117 $52 #
cone-surface $-1 63.757177024336499 35.57372886453927 5.9153676157257529 0 -0.5877852598018023 -0.80901698891910034 1.5 0 0 1 I I 0 1 1.5 forward I I I I #
face $-1 $118 $119 $41 $-1 $120 forward single #
loop $-1 $121 $122 $53 #
cone-surface $-1 71.002066654670728 35.57372886453927 5.9153676157257529 0 -0.5877852598018023 -0.80901698891910034 1.5 0 0 1 I I 0 1 1.5 forward I I I I #
face $-1 $123 $124 $42 $-1 $125 reversed single #
loop $-1 $-1 $126 $54 #
plane-surface $-1 0.17974401891200387 -178.82471328951493 85.332732664979076 -1 0 0 0 -0.86602541151947299 0.49999998660252726 forward_v I I I I #
face $-1 $127 $128 $43 $-1 $129 forward single #
loop $-1 $130 $131 $55 #
cone-surface $-1 -24.98516133931475 -38.732978581409029 7.4043308529178304 0 0.86602541151947299 -0.49999998660252726 0.5 0 0 1 I I 0 1 0.5 forward I I I I #
face $-1 $132 $133 $44 $-1 $134 forward single #
loop $-1 $135 $136 $56 #
cone-surface $-1 -9.8862181243787006 -38.732978581409029 7.4043308529178304 0 0.86602541151947299 -0.49999998660252726 0.5 0 0 1 I I 0 1 0.5 forward I I I I #
face $-1 $137 $138 $45 $-1 $139 reversed single #
loop $-1 $-1 $140 $57 #
plane-surface $-1 43.384578841021252 -178.82471328951493 85.332732664979076 -1 0 0 0 -0.86602541151947299 0.49999998660252726 forward_v I I I I #
face $-1 $141 $142 $46 $-1 $143 forward single #
loop $-1 $144 $145 $58 #
cone-surface $-1 18.219673482794491 -38.732978581409029 7.4043308529178304 0 0.86602541151947299 -0.49999998660252726 0.5 0 0 1 I I 0 1 0.5 forward I I I I #
face $-1 $146 $147 $47 $-1 $148 forward single #
loop $-1 $149 $150 $59 #
cone-surface $-1 33.318616697730548 -38.732978581409029 7.4043308529178304 0 0.86602541151947299 -0.49999998660252726 0.5 0 0 1 I I 0 1 0.5 forward I I I I #
face $-1 $151 $152 $36 $-1 $153 reversed single #
loop $-1 $-1 $154 $60 #
plane-surface $-1 0 0 -10.093949586472112 0 0 1 1 0 0 forward_v I I I I #
coedge $-1 $155 $156 $157 $158 forward $61 $-1 #
face $-1 $159 $160 $37 $-1 $161 reversed single #
loop $-1 $-1 $162 $63 #
plane-surface $-1 0 0 -10.093949586472112 0 0 1 1 0 0 forward_v I I I I #
coedge $-1 $163 $164 $165 $166 forward $64 $-1 #
face $-1 $167 $168 $38 $-1 $169 reversed single #
loop $-1 $-1 $170 $66 #
plane-surface $-1 63.757177024336499 -25.236580427776232 51.252013479763036 0 0.5877852598018023 0.80901698891910034 1 0 0 forward_v I I I I #
coedge $-1 $171 $172 $173 $174 reversed $67 $-1 #
face $-1 $-1 $175 $39 $-1 $176 forward single #
loop $-1 $177 $178 $69 #
cone-surface $-1 56.512287394002271 34.58347923238378 4.5524059518779456 0 -0.5877852598018023 -0.80901698891910034 0.75 0 0 1 I I -0.70710678118654757 0.70710678118654757 0.75 forward I I I I #
loop $-1 $-1 $179 $51 #
coedge $-1 $112 $112 $180 $181 reversed $70 $-1 #
face $-1 $-1 $182 $40 $-1 $183 forward single #
loop $-1 $184 $185 $72 #
cone-surface $-1 63.757177024336499 34.58347923238378 4.5524059518779456 0 -0.5877852598018023 -0.80901698891910034 0.75 0 0 1 I I -0.70710678118654757 0.70710678118654757 0.75 forward I I I I #
loop $-1 $-1 $186 $52 #
coedge $-1 $117 $117 $187 $188 reversed $73 $-1 #
face $-1 $-1 $189 $41 $-1 $190 forward single #
loop $-1 $191 $192 $75 #
cone-surface $-1 71.002066654670728 34.58347923238378 4.5524059518779456 0 -0.5877852598018023 -0.80901698891910034 0.75 0 0 1 I I -0.70710678118654757 0.70710678118654757 0.75 forward I I I I #
loop $-1 $-1 $193 $53 #
coedge $-1 $122 $122 $194 $195 reversed $76 $-1 #
face $-1 $196 $197 $42 $-1 $198 reversed single #
loop $-1 $-1 $199 $78 #
plane-surface $-1 -17.435689731846722 -40.833645612900369 5.6635554424301944 0 -0.86602541151947299 0.49999998660252726 1 0 0 forward_v I I I I #
coedge $-1 $200 $201 $202 $203 reversed $79 $-1 #
face $-1 $-1 $204 $43 $-1 $205 forward single #
loop $-1 $206 $207 $81 #
cone-surface $-1 -24.98516133931475 -37.694749777184846 6.804909194733872 0 0.86602541151947299 -0.49999998660252726 0.25 0 0 1 I I -0.70710678118654746 0.70710678118654746 0.25 forward I I I I #
loop $-1 $-1 $208 $55 #
coedge $-1 $131 $131 $209 $210 reversed $82 $-1 #
face $-1 $-1 $211 $44 $-1 $212 forward single #
loop $-1 $213 $214 $84 #
cone-surface $-1 -9.8862181243787006 -37.694749777184846 6.804909194733872 0 0.86602541151947299 -0.49999998660252726 0.25 0 0 1 I I -0.70710678118654746 0.70710678118654746 0.25 forward I I I I #
loop $-1 $-1 $215 $56 #
coedge $-1 $136 $136 $216 $217 reversed $85 $-1 #
face $-1 $218 $219 $45 $-1 $220 reversed single #
loop $-1 $-1 $221 $87 #
plane-surface $-1 25.769145090262526 -40.833645612900369 5.6635554424301944 0 -0.86602541151947299 0.49999998660252726 1 0 0 forward_v I I I I #
coedge $-1 $222 $223 $224 $225 reversed $88 $-1 #
face $-1 $-1 $226 $46 $-1 $227 forward single #
loop $-1 $228 $229 $90 #
cone-surface $-1 18.219673482794491 -37.694749777184846 6.804909194733872 0 0.86602541151947299 -0.49999998660252726 0.25 0 0 1 I I -0.70710678118654746 0.70710678118654746 0.25 forward I I I I #
loop $-1 $-1 $230 $58 #
coedge $-1 $145 $145 $231 $232 reversed $91 $-1 #
face $-1 $-1 $233 $47 $-1 $234 forward single #
loop $-1 $235 $236 $93 #
cone-surface $-1 33.318616697730548 -37.694749777184846 6.804909194733872 0 0.86602541151947299 -0.49999998660252726 0.25 0 0 1 I I -0.70710678118654746 0.70710678118654746 0.25 forward I I I I #
loop $-1 $-1 $237 $59 #
coedge $-1 $150 $150 $238 $239 reversed $94 $-1 #
face $-1 $240 $241 $36 $-1 $242 reversed single #
loop $-1 $-1 $243 $96 #
plane-surface $-1 0 -40.833645612900369 0 0 1 0 0 0 1 forward_v I I I I #
coedge $-1 $244 $245 $246 $247 forward $97 $-1 #
coedge $-1 $248 $99 $249 $250 forward $61 $-1 #
coedge $-1 $99 $248 $251 $252 forward $61 $-1 #
coedge $-1 $253 $254 $99 $158 reversed $255 $-1 #
edge $-1 $256 -40.833645612900369 $257 40.833645612900369 $157 $258 forward 7 unknown #
face $-1 $259 $260 $37 $-1 $261 reversed single #
loop $-1 $-1 $262 $100 #
plane-surface $-1 -83.835907036488095 -23.645746439956145 0 0 1 0 0 0 1 forward_v I I I I #
coedge $-1 $263 $264 $164 $265 forward $101 $-1 #
coedge $-1 $266 $103 $267 $268 reversed $64 $-1 #
coedge $-1 $103 $266 $162 $265 reversed $64 $-1 #
coedge $-1 $269 $270 $103 $166 reversed $271 $-1 #
edge $-1 $272 -10.093949586472112 $273 10.093949586472112 $165 $274 forward 7 unknown #
face $-1 $275 $276 $38 $-1 $277 forward single #
loop $-1 $-1 $278 $104 #
plane-surface $-1 75.831993074893532 68.420158145654426 180.15945266632818 -1 0 0 0 0.5877852598018023 0.80901698891910034 forward_v I I I I #
coedge $-1 $279 $280 $281 $282 reversed $105 $-1 #
coedge $-1 $172 $107 $283 $284 reversed $67 $-1 #
coedge $-1 $107 $171 $279 $285 reversed $67 $-1 #
coedge $-1 $281 $286 $107 $174 forward $276 $-1 #
edge $-1 $287 -6.6235665400731563 $288 2.7974455820408934 $173 $289 forward 7 unknown #
loop $-1 $-1 $180 $108 #
plane-surface $-1 63.757177024336499 -25.236580427776232 51.252013479763036 0 0.5877852598018023 0.80901698891910034 1 0 0 forward_v I I I I #
loop $-1 $-1 $290 $69 #
coedge $-1 $178 $178 $179 $291 reversed $109 $-1 #
coedge $-1 $179 $179 $178 $291 forward $111 $-1 #
coedge $-1 $180 $180 $112 $181 forward $175 $-1 #
edge $-1 $292 7.1916330123724494e-016 $292 6.2831853071796013 $180 $293 forward 7 unknown #
loop $-1 $-1 $187 $113 #
plane-surface $-1 63.757177024336499 -25.236580427776232 51.252013479763036 0 0.5877852598018023 0.80901698891910034 1 0 0 forward_v I I I I #
loop $-1 $-1 $294 $72 #
coedge $-1 $185 $185 $186 $295 reversed $114 $-1 #
coedge $-1 $186 $186 $185 $295 forward $116 $-1 #
coedge $-1 $187 $187 $117 $188 forward $182 $-1 #
edge $-1 $296 7.1916330123724494e-016 $296 6.2831853071796013 $187 $297 forward 7 unknown #
loop $-1 $-1 $194 $118 #
plane-surface $-1 63.757177024336499 -25.236580427776232 51.252013479763036 0 0.5877852598018023 0.80901698891910034 1 0 0 forward_v I I I I #
loop $-1 $-1 $298 $75 #
coedge $-1 $192 $192 $193 $299 reversed $119 $-1 #
coedge $-1 $193 $193 $192 $299 forward $121 $-1 #
coedge $-1 $194 $194 $122 $195 forward $189 $-1 #
edge $-1 $300 7.1916330123724494e-016 $300 6.2831853071796013 $194 $301 forward 7 unknown #
face $-1 $302 $303 $42 $-1 $304 forward single #
loop $-1 $-1 $305 $123 #
plane-surface $-1 -35.051123482605448 -178.82471328951493 85.332732664979076 1 0 0 0 0.86602541151947299 -0.49999998660252726 forward_v I I I I #
coedge $-1 $306 $307 $308 $309 reversed $124 $-1 #
coedge $-1 $201 $126 $310 $311 reversed $79 $-1 #
coedge $-1 $126 $200 $306 $312 reversed $79 $-1 #
coedge $-1 $308 $313 $126 $203 forward $303 $-1 #
edge $-1 $314 48.578711031857097 $315 51.136600192151171 $202 $316 forward 7 unknown #
loop $-1 $-1 $209 $127 #
plane-surface $-1 -17.435689731846722 -40.833645612900369 5.6635554424301944 0 -0.86602541151947299 0.49999998660252726 1 0 0 forward_v I I I I #
loop $-1 $-1 $317 $81 #
coedge $-1 $207 $207 $208 $318 reversed $128 $-1 #
coedge $-1 $208 $208 $207 $318 forward $130 $-1 #
coedge $-1 $209 $209 $131 $210 forward $204 $-1 #
edge $-1 $319 7.6918508142351619e-015 $319 6.2831853071796084 $209 $320 forward 7 unknown #
loop $-1 $-1 $216 $132 #
plane-surface $-1 -17.435689731846722 -40.833645612900369 5.6635554424301944 0 -0.86602541151947299 0.49999998660252726 1 0 0 forward_v I I I I #
loop $-1 $-1 $321 $84 #
coedge $-1 $214 $214 $215 $322 reversed $133 $-1 #
coedge $-1 $215 $215 $214 $322 forward $135 $-1 #
coedge $-1 $216 $216 $136 $217 forward $211 $-1 #
edge $-1 $323 7.6918508142351619e-015 $323 6.2831853071796084 $216 $324 forward 7 unknown #
face $-1 $325 $326 $45 $-1 $327 reversed single #
loop $-1 $-1 $328 $137 #
plane-surface $-1 8.1537113395038006 -178.82471328951493 85.332732664979076 1 0 0 0 0.86602541151947299 -0.49999998660252726 forward_v I I I I #
coedge $-1 $329 $330 $331 $332 reversed $138 $-1 #
coedge $-1 $223 $140 $333 $334 reversed $88 $-1 #
coedge $-1 $140 $222 $329 $335 reversed $88 $-1 #
coedge $-1 $331 $336 $140 $225 forward $337 $-1 #
edge $-1 $338 48.578711031857097 $339 51.136600192151171 $224 $340 forward 7 unknown #
loop $-1 $-1 $231 $141 #
plane-surface $-1 25.769145090262526 -40.833645612900369 5.6635554424301944 0 -0.86602541151947299 0.49999998660252726 1 0 0 forward_v I I I I #
loop $-1 $-1 $341 $90 #
coedge $-1 $229 $229 $230 $342 reversed $142 $-1 #
coedge $-1 $230 $230 $229 $342 forward $144 $-1 #
coedge $-1 $231 $231 $145 $232 forward $226 $-1 #
edge $-1 $343 7.6918508142351619e-015 $343 6.2831853071796084 $231 $344 forward 7 unknown #
loop $-1 $-1 $238 $146 #
plane-surface $-1 25.769145090262526 -40.833645612900369 5.6635554424301944 0 -0.86602541151947299 0.49999998660252726 1 0 0 forward_v I I I I #
loop $-1 $-1 $345 $93 #
coedge $-1 $236 $236 $237 $346 reversed $147 $-1 #
coedge $-1 $237 $237 $236 $346 forward $149 $-1 #
coedge $-1 $238 $238 $150 $239 forward $233 $-1 #
edge $-1 $347 7.6918508142351619e-015 $347 6.2831853071796084 $238 $348 forward 7 unknown #
face $-1 $349 $350 $36 $-1 $351 reversed single #
loop $-1 $-1 $352 $151 #
plane-surface $-1 -79.6691793572802 0 0 1 0 0 0 0 -1 forward_v I I I I #
coedge $-1 $353 $251 $354 $355 forward $152 $-1 #
coedge $-1 $356 $154 $353 $357 forward $97 $-1 #
coedge $-1 $154 $356 $358 $359 forward $97 $-1 #
coedge $-1 $254 $253 $154 $247 reversed $255 $-1 #
edge $-1 $360 -40.833645612900369 $361 40.833645612900369 $246 $362 forward 7 unknown #
coedge $-1 $156 $155 $363 $364 forward $61 $-1 #
coedge $-1 $365 $366 $155 $250 reversed $350 $-1 #
edge $-1 $257 -79.6691793572802 $367 79.6691793572802 $249 $368 forward 7 unknown #
coedge $-1 $243 $369 $156 $252 reversed $152 $-1 #
edge $-1 $370 -79.6691793572802 $256 79.6691793572802 $251 $371 forward 7 unknown #
coedge $-1 $246 $157 $369 $372 forward $255 $-1 #
coedge $-1 $157 $246 $365 $373 reversed $255 $-1 #
loop $-1 $-1 $253 $349 #
vertex $-1 $158 $374 #
vertex $-1 $158 $375 #
straight-curve $-1 79.6691793572802 0 10.093949586472112 0 1 0 I I #
face $-1 $376 $271 $37 $-1 $377 reversed single #
loop $-1 $-1 $378 $159 #
plane-surface $-1 -88.00263471569599 -22.145746439956145 0 1 0 0 0 0 -1 forward_v I I I I #
coedge $-1 $379 $380 $381 $382 forward $160 $-1 #
coedge $-1 $383 $162 $379 $384 forward $101 $-1 #
coedge $-1 $162 $383 $269 $385 forward $101 $-1 #
edge $-1 $272 20.645746439956145 $386 23.645746439956145 $162 $387 forward 7 unknown #
coedge $-1 $164 $163 $388 $389 forward $64 $-1 #
coedge $-1 $390 $391 $163 $268 forward $392 $-1 #
edge $-1 $393 -23.645746439956145 $273 -20.645746439956145 $267 $394 forward 7 unknown #
coedge $-1 $395 $165 $264 $385 reversed $271 $-1 #
coedge $-1 $165 $395 $390 $396 reversed $271 $-1 #
loop $-1 $-1 $165 $259 #
vertex $-1 $265 $397 #
vertex $-1 $396 $398 #
straight-curve $-1 -79.6691793572802 -20.645746439956145 0 0 0 1 I I #
face $-1 $-1 $399 $38 $-1 $400 reversed single #
loop $-1 $-1 $173 $167 #
plane-surface $-1 0 0 10.093949586472112 0 0 1 1 0 0 forward_v I I I I #
coedge $-1 $401 $402 $403 $404 reversed $168 $-1 #
coedge $-1 $405 $170 $172 $285 forward $105 $-1 #
coedge $-1 $170 $405 $401 $406 forward $105 $-1 #
coedge $-1 $403 $173 $170 $282 forward $276 $-1 #
edge $-1 $288 19.803772461611217 $407 43.953404562725282 $281 $408 forward 7 unknown #
coedge $-1 $409 $410 $171 $284 forward $399 $-1 #
edge $-1 $411 -86.830542843867804 $287 -79.985776746691982 $283 $412 forward 7 unknown #
edge $-1 $288 70.02227974748665 $411 81.667291225800767 $172 $413 forward 7 unknown #
coedge $-1 $173 $403 $409 $414 forward $276 $-1 #
vertex $-1 $284 $415 #
vertex $-1 $174 $416 #
straight-curve $-1 51.682360973779467 34.210079072827213 10.093949586472107 0 -1 0 I I #
coedge $-1 $290 $290 $-1 $417 reversed $177 $-1 #
edge $-1 $418 0 $418 6.2831853071796004 $178 $419 forward 7 unknown #
vertex $-1 $181 $420 #
ellipse-curve $-1 56.512287394002271 36.123139551843366 6.6715665378841784 0 0.5877852598018023 0.80901698891910034 1.5 0 0 1 I I #
coedge $-1 $294 $294 $-1 $421 reversed $184 $-1 #
edge $-1 $422 0 $422 6.2831853071796004 $185 $423 forward 7 unknown #
vertex $-1 $188 $424 #
ellipse-curve $-1 63.757177024336499 36.123139551843366 6.6715665378841784 0 0.5877852598018023 0.80901698891910034 1.5 0 0 1 I I #
coedge $-1 $298 $298 $-1 $425 reversed $191 $-1 #
edge $-1 $426 0 $426 6.2831853071796004 $192 $427 forward 7 unknown #
vertex $-1 $195 $428 #
ellipse-curve $-1 71.002066654670728 36.123139551843366 6.6715665378841784 0 0.5877852598018023 0.80901698891910034 1.5 0 0 1 I I #
face $-1 $-1 $429 $42 $-1 $430 reversed single #
loop $-1 $-1 $202 $196 #
plane-surface $-1 0 0 10.093949586472112 0 0 1 1 0 0 forward_v I I I I #
coedge $-1 $431 $432 $433 $434 reversed $197 $-1 #
coedge $-1 $435 $199 $201 $312 forward $124 $-1 #
coedge $-1 $199 $435 $431 $436 forward $124 $-1 #
coedge $-1 $433 $202 $199 $309 forward $303 $-1 #
edge $-1 $315 -8.8975888848353648 $437 26.333278616682087 $308 $438 forward 7 unknown #
coedge $-1 $439 $440 $200 $311 forward $429 $-1 #
edge $-1 $441 -37.002810890059344 $314 -32.572416746017424 $310 $442 forward 7 unknown #
edge $-1 $315 -5.1157784576651517 $441 0 $201 $443 forward 7 unknown #
coedge $-1 $202 $433 $439 $444 forward $303 $-1 #
vertex $-1 $203 $445 #
vertex $-1 $203 $446 #
straight-curve $-1 0.17974401891200387 -89.412356644757466 10.093949586472114 0 1 0 I I #
coedge $-1 $317 $317 $-1 $447 reversed $206 $-1 #
edge $-1 $448 0 $448 6.2831853071796004 $207 $449 forward 7 unknown #
vertex $-1 $210 $450 #
ellipse-curve $-1 -24.98516133931475 -39.554701032753336 7.8787525144511532 0 -0.86602541151947299 0.49999998660252726 0.5 0 0 1 I I #
coedge $-1 $321 $321 $-1 $451 reversed $213 $-1 #
edge $-1 $452 0 $452 6.2831853071796004 $214 $453 forward 7 unknown #
vertex $-1 $217 $454 #
ellipse-curve $-1 -9.8862181243787006 -39.554701032753336 7.8787525144511532 0 -0.86602541151947299 0.49999998660252726 0.5 0 0 1 I I #
face $-1 $-1 $337 $45 $-1 $455 forward single #
loop $-1 $-1 $456 $218 #
plane-surface $-1 0 -40.833645612900369 0 0 1 0 0 0 1 forward_v I I I I #
coedge $-1 $457 $458 $459 $460 reversed $219 $-1 #
coedge $-1 $461 $221 $223 $335 forward $138 $-1 #
coedge $-1 $221 $461 $457 $462 forward $138 $-1 #
coedge $-1 $459 $224 $221 $332 forward $337 $-1 #
edge $-1 $339 -30.500006295889989 $463 4.7308612056274626 $331 $464 forward 7 unknown #
coedge $-1 $465 $466 $222 $334 forward $326 $-1 #
edge $-1 $467 -37.002810890059344 $338 -32.572416746017424 $333 $468 forward 7 unknown #
edge $-1 $339 -5.1157784576651517 $467 0 $223 $469 forward 7 unknown #
coedge $-1 $224 $459 $465 $470 forward $337 $-1 #
loop $-1 $-1 $459 $325 #
vertex $-1 $334 $471 #
vertex $-1 $225 $472 #
straight-curve $-1 43.384578841021252 -89.412356644757466 10.093949586472114 0 1 0 I I #
coedge $-1 $341 $341 $-1 $473 reversed $228 $-1 #
edge $-1 $474 0 $474 6.2831853071796004 $229 $475 forward 7 unknown #
vertex $-1 $232 $476 #
ellipse-curve $-1 18.219673482794491 -39.554701032753336 7.8787525144511532 0 -0.86602541151947299 0.49999998660252726 0.5 0 0 1 I I #
coedge $-1 $345 $345 $-1 $477 reversed $235 $-1 #
edge $-1 $478 0 $478 6.2831853071796004 $236 $479 forward 7 unknown #
vertex $-1 $239 $480 #
ellipse-curve $-1 33.318616697730548 -39.554701032753336 7.8787525144511532 0 -0.86602541151947299 0.49999998660252726 0.5 0 0 1 I I #
face $-1 $-1 $255 $36 $-1 $481 reversed single #
loop $-1 $-1 $365 $240 #
plane-surface $-1 0 40.833645612900369 0 0 -1 0 0 0 -1 forward_v I I I I #
coedge $-1 $482 $363 $366 $483 forward $241 $-1 #
coedge $-1 $369 $243 $244 $357 reversed $152 $-1 #
coedge $-1 $363 $482 $243 $355 reversed $241 $-1 #
edge $-1 $370 -10.093949586472112 $484 10.093949586472112 $354 $485 forward 7 unknown #
coedge $-1 $245 $244 $482 $486 forward $97 $-1 #
edge $-1 $361 -79.6691793572802 $484 79.6691793572802 $353 $487 forward 7 unknown #
coedge $-1 $366 $365 $245 $359 reversed $350 $-1 #
edge $-1 $488 -79.6691793572802 $360 79.6691793572802 $358 $489 forward 7 unknown #
vertex $-1 $247 $490 #
vertex $-1 $372 $491 #
straight-curve $-1 79.6691793572802 0 -10.093949586472112 0 -1 0 I I #
coedge $-1 $352 $354 $248 $364 reversed $241 $-1 #
edge $-1 $367 -40.833645612900369 $370 40.833645612900369 $363 $492 forward 7 unknown #
coedge $-1 $358 $249 $254 $373 forward $350 $-1 #
coedge $-1 $249 $358 $352 $483 reversed $350 $-1 #
vertex $-1 $250 $493 #
straight-curve $-1 0 40.833645612900369 10.093949586472112 -1 0 0 I I #
coedge $-1 $251 $353 $253 $372 reversed $152 $-1 #
vertex $-1 $364 $494 #
straight-curve $-1 0 -40.833645612900369 10.093949586472112 1 0 0 I I #
edge $-1 $256 -10.093949586472112 $361 10.093949586472112 $253 $495 forward 7 unknown #
edge $-1 $257 -10.093949586472112 $360 10.093949586472112 $254 $496 forward 7 unknown #
point $-1 79.6691793572802 -40.833645612900369 10.093949586472112 #
point $-1 79.6691793572802 40.833645612900369 10.093949586472112 #
face $-1 $-1 $392 $37 $-1 $497 forward single #
plane-surface $-1 -83.835907036488095 -20.645746439956145 0 0 -1 0 0 0 -1 forward_v I I I I #
coedge $-1 $498 $499 $395 $500 forward $260 $-1 #
coedge $-1 $388 $262 $263 $384 reversed $160 $-1 #
coedge $-1 $262 $388 $391 $501 reversed $160 $-1 #
coedge $-1 $499 $498 $262 $382 reversed $260 $-1 #
edge $-1 $502 -10.093949586472112 $503 10.093949586472112 $381 $504 forward 7 unknown #
coedge $-1 $264 $263 $498 $505 forward $101 $-1 #
edge $-1 $386 -4.1667276792078951 $503 4.1667276792078951 $379 $506 forward 7 unknown #
edge $-1 $507 -4.1667276792078951 $272 4.1667276792078951 $269 $508 forward 7 unknown #
vertex $-1 $384 $509 #
straight-curve $-1 -79.6691793572802 0 -10.093949586472112 0 -1 0 I I #
coedge $-1 $380 $379 $266 $389 reversed $160 $-1 #
edge $-1 $393 -10.093949586472112 $386 10.093949586472112 $388 $510 forward 7 unknown #
coedge $-1 $511 $267 $270 $396 forward $392 $-1 #
coedge $-1 $267 $511 $380 $501 forward $392 $-1 #
loop $-1 $-1 $267 $376 #
vertex $-1 $268 $512 #
straight-curve $-1 -79.6691793572802 0 10.093949586472112 0 1 0 I I #
coedge $-1 $270 $269 $378 $500 reversed $271 $-1 #
edge $-1 $273 -4.1667276792078951 $513 4.1667276792078951 $270 $514 forward 7 unknown #
point $-1 -79.6691793572802 -20.645746439956145 -10.093949586472112 #
point $-1 -79.6691793572802 -20.645746439956145 10.093949586472112 #
loop $-1 $-1 $283 $275 #
plane-surface $-1 0 40.833645612900369 0 0 -1 0 0 0 -1 forward_v I I I I #
coedge $-1 $402 $278 $280 $406 reversed $168 $-1 #
coedge $-1 $278 $401 $515 $516 reversed $168 $-1 #
coedge $-1 $286 $281 $278 $404 forward $276 $-1 #
edge $-1 $407 -2.7974455820408934 $517 6.6235665400731563 $403 $518 forward 7 unknown #
coedge $-1 $280 $279 $410 $519 reversed $105 $-1 #
edge $-1 $520 -81.667291225800767 $407 -70.02227974748665 $401 $521 forward 7 unknown #
vertex $-1 $282 $522 #
straight-curve $-1 31.87858851216825 31.412633490786323 10.093949586472114 1 0 0 I I #
coedge $-1 $515 $283 $286 $414 reversed $399 $-1 #
coedge $-1 $283 $515 $405 $519 forward $399 $-1 #
vertex $-1 $284 $523 #
straight-curve $-1 51.682360973779467 40.833645612900369 90.079726333164089 0 0 1 I I #
straight-curve $-1 51.682360973779467 -25.236580427776232 51.252013479763036 0 0.80901698891910034 -0.5877852598018023 I I #
edge $-1 $517 -75.831993074893532 $287 -51.682360973779467 $409 $524 forward 7 unknown #
point $-1 51.682360973779467 40.833645612900369 10.093949586472112 #
point $-1 51.682360973779467 31.41263349078632 10.093949586472114 #
edge $-1 $525 1 $525 0 $290 $-1 forward 7 unknown #
vertex $-1 $291 $526 #
ellipse-curve $-1 56.512287394002271 35.024318177235131 5.1591686935672705 0 0.5877852598018023 0.80901698891910034 1.5 0 0 1 I I #
point $-1 58.012287394002271 36.123139551843408 6.6715665378842353 #
edge $-1 $527 1 $527 0 $294 $-1 forward 7 unknown #
vertex $-1 $295 $528 #
ellipse-curve $-1 63.757177024336499 35.024318177235131 5.1591686935672705 0 0.5877852598018023 0.80901698891910034 1.5 0 0 1 I I #
point $-1 65.257177024336499 36.123139551843408 6.6715665378842353 #
edge $-1 $529 1 $529 0 $298 $-1 forward 7 unknown #
vertex $-1 $299 $530 #
ellipse-curve $-1 71.002066654670728 35.024318177235131 5.1591686935672705 0 0.5877852598018023 0.80901698891910034 1.5 0 0 1 I I #
point $-1 72.502066654670728 36.123139551843408 6.6715665378842353 #
loop $-1 $-1 $310 $302 #
plane-surface $-1 0 -40.833645612900369 0 0 1 0 0 0 1 forward_v I I I I #
coedge $-1 $432 $305 $307 $436 reversed $197 $-1 #
coedge $-1 $305 $431 $531 $532 reversed $197 $-1 #
coedge $-1 $313 $308 $305 $434 forward $303 $-1 #
edge $-1 $437 -51.136600192151171 $533 -48.578711031857097 $433 $534 forward 7 unknown #
coedge $-1 $307 $306 $440 $535 reversed $124 $-1 #
edge $-1 $536 0 $437 5.1157784576651517 $431 $537 forward 7 unknown #
vertex $-1 $309 $538 #
straight-curve $-1 -8.7178448659233609 -38.275756452606302 10.093949586472112 -1 0 0 I I #
coedge $-1 $531 $310 $313 $444 reversed $429 $-1 #
coedge $-1 $310 $531 $435 $535 forward $429 $-1 #
vertex $-1 $311 $539 #
straight-curve $-1 0.17974401891200387 -40.833645612900369 42.666366332489538 0 0 1 I I #
straight-curve $-1 0.17974401891200387 -40.833645612900369 5.6635554424301944 0 -0.49999998660252726 -0.86602541151947299 I I #
edge $-1 $533 -35.051123482605448 $314 0.17974401891200387 $439 $540 forward 7 unknown #
point $-1 0.17974401891200387 -40.833645612900369 10.093949586472112 #
point $-1 0.17974401891200387 -38.275756452606295 10.093949586472112 #
edge $-1 $541 1 $541 0 $317 $-1 forward 7 unknown #
vertex $-1 $318 $542 #
ellipse-curve $-1 -24.98516133931475 -37.911256130064714 6.9299091913845041 0 -0.86602541151947299 0.49999998660252726 0.5 0 0 1 I I #
point $-1 -24.48516133931475 -39.554701032753336 7.8787525144511577 #
edge $-1 $543 1 $543 0 $321 $-1 forward 7 unknown #
vertex $-1 $322 $544 #
ellipse-curve $-1 -9.8862181243787006 -37.911256130064714 6.9299091913845041 0 -0.86602541151947299 0.49999998660252726 0.5 0 0 1 I I #
point $-1 -9.3862181243787006 -39.554701032753336 7.8787525144511577 #
plane-surface $-1 0 0 10.093949586472112 0 0 1 1 0 0 forward_v I I I I #
coedge $-1 $466 $465 $458 $545 forward $326 $-1 #
coedge $-1 $458 $328 $330 $462 reversed $219 $-1 #
coedge $-1 $328 $457 $456 $545 reversed $219 $-1 #
coedge $-1 $336 $331 $328 $460 forward $337 $-1 #
edge $-1 $463 -51.136600192151171 $546 -48.578711031857097 $459 $547 forward 7 unknown #
coedge $-1 $330 $329 $466 $548 reversed $138 $-1 #
edge $-1 $549 0 $463 5.1157784576651517 $457 $550 forward 7 unknown #
vertex $-1 $332 $551 #
straight-curve $-1 12.884572545131263 -38.275756452606302 10.093949586472112 -1 0 0 I I #
coedge $-1 $456 $333 $336 $470 reversed $326 $-1 #
coedge $-1 $333 $456 $461 $548 forward $326 $-1 #
vertex $-1 $334 $552 #
straight-curve $-1 43.384578841021252 -40.833645612900369 42.666366332489538 0 0 1 I I #
straight-curve $-1 43.384578841021252 -40.833645612900369 5.6635554424301944 0 -0.49999998660252726 -0.86602541151947299 I I #
edge $-1 $546 8.1537113395038006 $338 43.384578841021252 $465 $553 forward 7 unknown #
point $-1 43.384578841021252 -40.833645612900369 10.093949586472112 #
point $-1 43.384578841021252 -38.275756452606295 10.093949586472112 #
edge $-1 $554 1 $554 0 $341 $-1 forward 7 unknown #
vertex $-1 $342 $555 #
ellipse-curve $-1 18.219673482794491 -37.911256130064714 6.9299091913845041 0 -0.86602541151947299 0.49999998660252726 0.5 0 0 1 I I #
point $-1 18.719673482794491 -39.554701032753336 7.8787525144511577 #
edge $-1 $556 1 $556 0 $345 $-1 forward 7 unknown #
vertex $-1 $346 $557 #
ellipse-curve $-1 33.318616697730548 -37.911256130064714 6.9299091913845041 0 -0.86602541151947299 0.49999998660252726 0.5 0 0 1 I I #
point $-1 33.818616697730548 -39.554701032753336 7.8787525144511577 #
plane-surface $-1 79.6691793572802 0 0 -1 0 0 0 0 1 forward_v I I I I #
coedge $-1 $354 $352 $356 $486 reversed $241 $-1 #
edge $-1 $367 -10.093949586472112 $488 10.093949586472112 $366 $558 forward 7 unknown #
vertex $-1 $486 $559 #
straight-curve $-1 -79.6691793572802 -40.833645612900369 0 0 0 -1 I I #
edge $-1 $484 -40.833645612900369 $488 40.833645612900369 $482 $560 forward 7 unknown #
straight-curve $-1 0 -40.833645612900369 -10.093949586472112 -1 0 0 I I #
vertex $-1 $359 $561 #
straight-curve $-1 0 40.833645612900369 -10.093949586472112 1 0 0 I I #
point $-1 79.6691793572802 40.833645612900369 -10.093949586472112 #
point $-1 79.6691793572802 -40.833645612900369 -10.093949586472112 #
straight-curve $-1 -79.6691793572802 0 10.093949586472112 0 -1 0 I I #
point $-1 -79.6691793572802 40.833645612900369 10.093949586472112 #
point $-1 -79.6691793572802 -40.833645612900369 10.093949586472112 #
straight-curve $-1 79.6691793572802 -40.833645612900369 0 0 0 -1 I I #
straight-curve $-1 79.6691793572802 40.833645612900369 0 0 0 -1 I I #
plane-surface $-1 0 0 10.093949586472112 0 0 1 1 0 0 forward_v I I I I #
coedge $-1 $381 $378 $383 $505 reversed $260 $-1 #
coedge $-1 $378 $381 $511 $562 reversed $260 $-1 #
edge $-1 $513 -10.093949586472112 $507 10.093949586472112 $395 $563 forward 7 unknown #
edge $-1 $502 -4.1667276792078951 $393 4.1667276792078951 $380 $564 forward 7 unknown #
vertex $-1 $562 $565 #
vertex $-1 $505 $566 #
straight-curve $-1 -88.00263471569599 -23.645746439956145 0 0 0 -1 I I #
edge $-1 $503 -1.5 $507 1.5 $498 $567 forward 7 unknown #
straight-curve $-1 -83.835907036488095 -23.645746439956145 -10.093949586472112 -1 0 0 I I #
vertex $-1 $385 $568 #
straight-curve $-1 -83.835907036488095 -20.645746439956145 -10.093949586472112 1 0 0 I I #
point $-1 -79.6691793572802 -23.645746439956145 -10.093949586472112 #
straight-curve $-1 -79.6691793572802 -23.645746439956145 0 0 0 -1 I I #
coedge $-1 $391 $390 $499 $562 forward $392 $-1 #
point $-1 -79.6691793572802 -23.645746439956145 10.093949586472112 #
vertex $-1 $396 $569 #
straight-curve $-1 -83.835907036488095 -20.645746439956145 10.093949586472112 -1 0 0 I I #
coedge $-1 $410 $409 $402 $516 forward $399 $-1 #
edge $-1 $517 79.985776746691982 $520 86.830542843867804 $515 $570 forward 7 unknown #
vertex $-1 $414 $571 #
straight-curve $-1 75.831993074893532 34.210079072827213 10.093949586472107 0 1 0 I I #
edge $-1 $520 -43.953404562725282 $411 -19.803772461611217 $410 $572 forward 7 unknown #
vertex $-1 $519 $573 #
straight-curve $-1 75.831993074893532 -25.236580427776232 51.252013479763036 0 -0.80901698891910034 0.5877852598018023 I I #
point $-1 75.831993074893532 31.41263349078632 10.093949586472114 #
point $-1 51.682360973779467 40.833645612900369 3.2491834892962856 #
straight-curve $-1 0 40.833645612900369 10.093949586472112 -1 0 0 I I #
vertex $-1 $417 $574 #
point $-1 58.012287394002271 35.024318177235131 5.1591686935672705 #
vertex $-1 $421 $575 #
point $-1 65.257177024336499 35.024318177235131 5.1591686935672705 #
vertex $-1 $425 $576 #
point $-1 72.502066654670728 35.024318177235131 5.1591686935672705 #
coedge $-1 $440 $439 $432 $532 forward $429 $-1 #
edge $-1 $533 32.572416746017424 $536 37.002810890059344 $531 $577 forward 7 unknown #
vertex $-1 $444 $578 #
straight-curve $-1 -35.051123482605448 -89.412356644757466 10.093949586472114 0 -1 0 I I #
edge $-1 $536 -26.333278616682087 $441 8.8975888848353648 $440 $579 forward 7 unknown #
vertex $-1 $535 $580 #
straight-curve $-1 -35.051123482605448 -40.833645612900369 5.6635554424301944 0 0.49999998660252726 0.86602541151947299 I I #
point $-1 -35.051123482605448 -38.275756452606295 10.093949586472112 #
point $-1 0.17974401891200387 -40.833645612900369 5.6635554424301944 #
straight-curve $-1 0 -40.833645612900369 10.093949586472112 1 0 0 I I #
vertex $-1 $447 $581 #
point $-1 -24.48516133931475 -37.911256130064714 6.9299091913845041 #
vertex $-1 $451 $582 #
point $-1 -9.3862181243787006 -37.911256130064714 6.9299091913845041 #
edge $-1 $546 32.572416746017424 $549 37.002810890059344 $456 $583 forward 7 unknown #
vertex $-1 $470 $584 #
straight-curve $-1 8.1537113395038006 -89.412356644757466 10.093949586472114 0 -1 0 I I #
edge $-1 $549 -4.7308612056274626 $467 30.500006295889989 $466 $585 forward 7 unknown #
vertex $-1 $548 $586 #
straight-curve $-1 8.1537113395038006 -40.833645612900369 5.6635554424301944 0 0.49999998660252726 0.86602541151947299 I I #
point $-1 8.1537113395038006 -38.275756452606295 10.093949586472112 #
point $-1 43.384578841021252 -40.833645612900369 5.6635554424301944 #
straight-curve $-1 0 -40.833645612900369 10.093949586472112 1 0 0 I I #
vertex $-1 $473 $587 #
point $-1 18.719673482794491 -37.911256130064714 6.9299091913845041 #
vertex $-1 $477 $588 #
point $-1 33.818616697730548 -37.911256130064714 6.9299091913845041 #
straight-curve $-1 -79.6691793572802 40.833645612900369 0 0 0 -1 I I #
point $-1 -79.6691793572802 -40.833645612900369 -10.093949586472112 #
straight-curve $-1 -79.6691793572802 0 -10.093949586472112 0 1 0 I I #
point $-1 -79.6691793572802 40.833645612900369 -10.093949586472112 #
edge $-1 $513 -1.5 $502 1.5 $499 $589 forward 7 unknown #
straight-curve $-1 -88.00263471569599 -20.645746439956145 0 0 0 -1 I I #
straight-curve $-1 -83.835907036488095 -23.645746439956145 10.093949586472112 1 0 0 I I #
point $-1 -88.00263471569599 -23.645746439956145 10.093949586472112 #
point $-1 -88.00263471569599 -23.645746439956145 -10.093949586472112 #
straight-curve $-1 -88.00263471569599 -22.145746439956145 -10.093949586472112 0 1 0 I I #
point $-1 -88.00263471569599 -20.645746439956145 -10.093949586472112 #
point $-1 -88.00263471569599 -20.645746439956145 10.093949586472112 #
straight-curve $-1 75.831993074893532 40.833645612900369 90.079726333164089 0 0 -1 I I #
point $-1 75.831993074893532 40.833645612900369 10.093949586472112 #
straight-curve $-1 31.87858851216825 40.833645612900369 3.2491834892962821 -1 0 0 I I #
point $-1 75.831993074893532 40.833645612900369 3.2491834892962856 #
point $-1 56.512287394002271 34.14264028753243 3.9456432101886203 #
point $-1 63.757177024336499 34.14264028753243 3.9456432101886203 #
point $-1 71.002066654670728 34.14264028753243 3.9456432101886203 #
straight-curve $-1 -35.051123482605448 -40.833645612900369 42.666366332489538 0 0 -1 I I #
point $-1 -35.051123482605448 -40.833645612900369 10.093949586472112 #
straight-curve $-1 -8.7178448659233609 -40.833645612900369 5.663555442430189 1 0 0 I I #
point $-1 -35.051123482605448 -40.833645612900369 5.6635554424301944 #
point $-1 -24.98516133931475 -37.478243424304978 6.6799091980832399 #
point $-1 -9.8862181243787006 -37.478243424304978 6.6799091980832399 #
straight-curve $-1 8.1537113395038006 -40.833645612900369 42.666366332489538 0 0 -1 I I #
point $-1 8.1537113395038006 -40.833645612900369 10.093949586472112 #
straight-curve $-1 12.884572545131263 -40.833645612900369 5.663555442430189 1 0 0 I I #
point $-1 8.1537113395038006 -40.833645612900369 5.6635554424301944 #
point $-1 18.219673482794491 -37.478243424304978 6.6799091980832399 #
point $-1 33.318616697730548 -37.478243424304978 6.6799091980832399 #
straight-curve $-1 -88.00263471569599 -22.145746439956145 10.093949586472112 0 -1 0 I I #
End-of-ACIS-data 