500 0 8 0           
7 Unknown 11 ACIS 5.0 NT 24 Thu Mar 25 20:34:47 1999 
-1 9.9999999999999995e-007 1e-010 
body $-1 $8 $-1 $9 #
body $-1 $10 $-1 $11 #
body $-1 $12 $-1 $13 #
body $-1 $14 $-1 $15 #
body $-1 $16 $-1 $17 #
body $-1 $18 $-1 $19 #
body $-1 $20 $-1 $21 #
body $-1 $22 $-1 $23 #
lump $-1 $-1 $24 $0 #
transform $-1 1 0 0 0 1 0 0 0 1 75.682241279335912 49.249005337771777 18.527407571586625 1 rotate no_reflect no_shear #
lump $-1 $-1 $25 $1 #
transform $-1 1 0 0 0 1 0 0 0 1 75.682241279335912 49.249005337771777 18.527407571586625 1 rotate no_reflect no_shear #
lump $-1 $-1 $26 $2 #
transform $-1 1 0 0 0 1 0 0 0 1 75.682241279335912 49.249005337771777 18.527407571586625 1 rotate no_reflect no_shear #
lump $-1 $-1 $27 $3 #
transform $-1 1 0 0 0 1 0 0 0 1 75.682241279335912 49.249005337771777 18.527407571586625 1 rotate no_reflect no_shear #
lump $-1 $-1 $28 $4 #
transform $-1 1 0 0 0 1 0 0 0 1 75.682241279335912 49.249005337771777 18.527407571586625 1 rotate no_reflect no_shear #
lump $-1 $-1 $29 $5 #
transform $-1 1 0 0 0 1 0 0 0 1 75.682241279335912 49.249005337771777 18.527407571586625 1 rotate no_reflect no_shear #
lump $-1 $-1 $30 $6 #
transform $-1 1 0 0 0 1 0 0 0 1 75.682241279335912 49.249005337771777 18.527407571586625 1 rotate no_reflect no_shear #
lump $-1 $-1 $31 $7 #
transform $-1 1 0 0 0 1 0 0 0 1 75.682241279335912 49.249005337771777 18.527407571586625 1 rotate no_reflect no_shear #
shell $-1 $-1 $-1 $32 $-1 $8 #
shell $-1 $-1 $-1 $33 $-1 $10 #
shell $-1 $-1 $-1 $34 $-1 $12 #
shell $-1 $-1 $-1 $35 $-1 $14 #
shell $-1 $-1 $-1 $36 $-1 $16 #
shell $-1 $-1 $-1 $37 $-1 $18 #
shell $-1 $-1 $-1 $38 $-1 $20 #
shell $-1 $-1 $-1 $39 $-1 $22 #
face $-1 $40 $41 $24 $-1 $42 forward single #
face $-1 $43 $44 $25 $-1 $45 forward single #
face $-1 $46 $47 $26 $-1 $48 reversed single #
face $-1 $49 $50 $27 $-1 $51 forward single #
face $-1 $52 $53 $28 $-1 $54 forward single #
face $-1 $55 $56 $29 $-1 $57 reversed single #
face $-1 $58 $59 $30 $-1 $60 forward single #
face $-1 $61 $62 $31 $-1 $63 forward single #
face $-1 $64 $65 $24 $-1 $66 reversed single #
loop $-1 $-1 $67 $32 #
plane-surface $-1 0 0 18.527407571586625 0 0 1 1 0 0 forward_v I I I I #
face $-1 $68 $69 $25 $-1 $70 reversed single #
loop $-1 $-1 $71 $33 #
plane-surface $-1 0 -41.728433923940067 -10.526219773035709 0 0 1 1 0 0 forward_v I I I I #
face $-1 $72 $73 $26 $-1 $74 reversed single #
loop $-1 $-1 $75 $34 #
plane-surface $-1 -205.42692740224714 -0.38381821643788783 87.035513467122058 0 1 0 -0.85716730853699208 0 0.51503806187062418 forward_v I I I I #
face $-1 $76 $77 $27 $-1 $78 forward single #
loop $-1 $79 $80 $35 #
cone-surface $-1 -70.28963337178385 4.2262869285739058 12.267968809694302 0.85716730853699208 0 -0.51503806187062418 0.77255709280593621 0 1.2857509628054882 1 I I 0 1 1.5 forward I I I I #
face $-1 $81 $82 $28 $-1 $83 forward single #
loop $-1 $84 $85 $36 #
cone-surface $-1 -70.28963337178385 11.1414446460916 12.267968809694302 0.85716730853699208 0 -0.51503806187062418 0.77255709280593621 0 1.2857509628054882 1 I I 0 1 1.5 forward I I I I #
face $-1 $86 $87 $29 $-1 $88 reversed single #
loop $-1 $-1 $89 $37 #
plane-surface $-1 -29.46436222885194 42.741855497348283 121.83013904443915 0.71933980857756763 0 0.69465836192734942 0.69465836192734942 0 -0.71933980857756763 forward_v I I I I #
face $-1 $90 $91 $30 $-1 $92 forward single #
loop $-1 $93 $94 $38 #
cone-surface $-1 71.005957367294016 39.95307699430964 13.823408469278583 -0.71933980857756763 0 -0.69465836192734942 1.0419875428910241 0 -1.0790097128663514 1 I I 0 1 1.5 forward I I I I #
face $-1 $95 $96 $31 $-1 $97 forward single #
loop $-1 $98 $99 $39 #
cone-surface $-1 71.005957367294016 45.530634000386925 13.823408469278583 -0.71933980857756763 0 -0.69465836192734942 1.0419875428910241 0 -1.0790097128663514 1 I I 0 1 1.5 forward I I I I #
face $-1 $100 $101 $24 $-1 $102 reversed single #
loop $-1 $-1 $103 $40 #
plane-surface $-1 0 0 -18.527407571586625 0 0 1 1 0 0 forward_v I I I I #
coedge $-1 $104 $105 $106 $107 forward $41 $-1 #
face $-1 $108 $109 $25 $-1 $110 reversed single #
loop $-1 $-1 $111 $43 #
plane-surface $-1 0 -41.728433923940067 -17.81335388055529 0 0 1 1 0 0 forward_v I I I I #
coedge $-1 $112 $113 $114 $115 reversed $44 $-1 #
face $-1 $116 $117 $26 $-1 $118 reversed single #
loop $-1 $-1 $119 $46 #
plane-surface $-1 -75.682241279335926 7.6838657873327563 9.0770437340538308 -0.85716730853699208 0 0.51503806187062418 0.51503806187062418 0 0.85716730853699208 forward_v I I I I #
coedge $-1 $120 $121 $122 $123 reversed $47 $-1 #
face $-1 $-1 $124 $27 $-1 $125 forward single #
loop $-1 $126 $127 $49 #
cone-surface $-1 -67.093325617724986 4.2262869285739058 10.347433420165412 0.85716730853699208 0 -0.51503806187062418 0.3862785464029681 0 0.64287548140274409 1 I I -0.70710678118654757 0.70710678118654757 0.75 forward I I I I #
loop $-1 $-1 $128 $35 #
coedge $-1 $80 $80 $129 $130 reversed $50 $-1 #
face $-1 $-1 $131 $28 $-1 $132 forward single #
loop $-1 $133 $134 $52 #
cone-surface $-1 -67.093325617724986 11.1414446460916 10.347433420165412 0.85716730853699208 0 -0.51503806187062418 0.3862785464029681 0 0.64287548140274409 1 I I -0.70710678118654757 0.70710678118654757 0.75 forward I I I I #
loop $-1 $-1 $135 $36 #
coedge $-1 $85 $85 $136 $137 reversed $53 $-1 #
face $-1 $138 $139 $29 $-1 $140 forward single #
loop $-1 $-1 $141 $55 #
plane-surface $-1 79.418135680345628 36.234705656924788 226.97674255262697 0 1 0 0.71933980857756763 0 0.69465836192734942 forward_v I I I I #
coedge $-1 $142 $143 $144 $145 reversed $56 $-1 #
face $-1 $-1 $146 $30 $-1 $147 forward single #
loop $-1 $148 $149 $58 #
cone-surface $-1 68.4843274416843 39.95307699430964 11.38829881369757 -0.71933980857756763 0 -0.69465836192734942 0.52099377144551207 0 -0.53950485643317569 1 I I -0.70710678118654757 0.70710678118654757 0.75 forward I I I I #
loop $-1 $-1 $150 $38 #
coedge $-1 $94 $94 $151 $152 reversed $59 $-1 #
face $-1 $-1 $153 $31 $-1 $154 forward single #
loop $-1 $155 $156 $61 #
cone-surface $-1 68.4843274416843 45.530634000386925 11.38829881369757 -0.71933980857756763 0 -0.69465836192734942 0.52099377144551207 0 -0.53950485643317569 1 I I -0.70710678118654757 0.70710678118654757 0.75 forward I I I I #
loop $-1 $-1 $157 $39 #
coedge $-1 $99 $99 $158 $159 reversed $62 $-1 #
face $-1 $160 $161 $24 $-1 $162 reversed single #
loop $-1 $-1 $163 $64 #
plane-surface $-1 0 -49.249005337771777 0 0 1 0 0 0 1 forward_v I I I I #
coedge $-1 $164 $165 $166 $167 forward $65 $-1 #
coedge $-1 $168 $67 $169 $170 forward $41 $-1 #
coedge $-1 $67 $168 $171 $172 forward $41 $-1 #
coedge $-1 $173 $174 $67 $107 reversed $175 $-1 #
edge $-1 $176 -49.249005337771777 $177 49.249005337771777 $106 $178 forward 7 unknown #
face $-1 $179 $180 $25 $-1 $181 reversed single #
loop $-1 $-1 $182 $68 #
plane-surface $-1 0 -34.207862510108356 -14.1697868267955 0 -1 0 0 0 -1 forward_v I I I I #
coedge $-1 $183 $184 $185 $186 reversed $69 $-1 #
coedge $-1 $187 $71 $188 $189 forward $44 $-1 #
coedge $-1 $71 $187 $190 $191 reversed $44 $-1 #
coedge $-1 $192 $193 $71 $115 forward $194 $-1 #
edge $-1 $195 13.343645548138323 $196 28.384788375801744 $114 $197 forward 7 unknown #
face $-1 $198 $199 $26 $-1 $200 reversed single #
loop $-1 $-1 $201 $72 #
plane-surface $-1 -205.42692740224714 15.7515497911034 87.035513467122058 0 -1 0 0.85716730853699208 0 -0.51503806187062418 forward_v I I I I #
coedge $-1 $202 $203 $204 $205 reversed $73 $-1 #
coedge $-1 $121 $75 $206 $207 reversed $47 $-1 #
coedge $-1 $75 $120 $202 $208 reversed $47 $-1 #
coedge $-1 $204 $209 $75 $123 forward $210 $-1 #
edge $-1 $211 27.03122242178766 $212 32.709573691579536 $122 $213 forward 7 unknown #
loop $-1 $-1 $129 $76 #
plane-surface $-1 -75.682241279335926 7.6838657873327563 9.0770437340538308 -0.85716730853699208 0 0.51503806187062418 0.51503806187062418 0 0.85716730853699208 forward_v I I I I #
loop $-1 $-1 $214 $49 #
coedge $-1 $127 $127 $128 $215 reversed $77 $-1 #
coedge $-1 $128 $128 $127 $215 forward $79 $-1 #
coedge $-1 $129 $129 $80 $130 forward $124 $-1 #
edge $-1 $216 0 $216 6.2831853071796004 $129 $217 forward 7 unknown #
loop $-1 $-1 $136 $81 #
plane-surface $-1 -75.682241279335926 7.6838657873327563 9.0770437340538308 -0.85716730853699208 0 0.51503806187062418 0.51503806187062418 0 0.85716730853699208 forward_v I I I I #
loop $-1 $-1 $218 $52 #
coedge $-1 $134 $134 $135 $219 reversed $82 $-1 #
coedge $-1 $135 $135 $134 $219 forward $84 $-1 #
coedge $-1 $136 $136 $85 $137 forward $131 $-1 #
edge $-1 $220 0 $220 6.2831853071796004 $136 $221 forward 7 unknown #
face $-1 $222 $223 $29 $-1 $224 reversed single #
loop $-1 $-1 $144 $86 #
plane-surface $-1 0 0 18.527407571586625 0 0 1 1 0 0 forward_v I I I I #
coedge $-1 $225 $226 $227 $228 reversed $87 $-1 #
coedge $-1 $229 $89 $230 $231 reversed $56 $-1 #
coedge $-1 $89 $229 $225 $232 forward $56 $-1 #
coedge $-1 $227 $233 $89 $145 forward $139 $-1 #
edge $-1 $234 -27.878077589097636 $235 -14.863777908250647 $144 $236 forward 7 unknown #
loop $-1 $-1 $151 $90 #
plane-surface $-1 -29.46436222885194 42.741855497348283 121.83013904443915 0.71933980857756763 0 0.69465836192734942 0.69465836192734942 0 -0.71933980857756763 forward_v I I I I #
loop $-1 $-1 $237 $58 #
coedge $-1 $149 $149 $150 $238 reversed $91 $-1 #
coedge $-1 $150 $150 $149 $238 forward $93 $-1 #
coedge $-1 $151 $151 $94 $152 forward $146 $-1 #
edge $-1 $239 0 $239 6.2831853071796004 $151 $240 forward 7 unknown #
loop $-1 $-1 $158 $95 #
plane-surface $-1 -29.46436222885194 42.741855497348283 121.83013904443915 0.71933980857756763 0 0.69465836192734942 0.69465836192734942 0 -0.71933980857756763 forward_v I I I I #
loop $-1 $-1 $241 $61 #
coedge $-1 $156 $156 $157 $242 reversed $96 $-1 #
coedge $-1 $157 $157 $156 $242 forward $98 $-1 #
coedge $-1 $158 $158 $99 $159 forward $153 $-1 #
edge $-1 $243 0 $243 6.2831853071796004 $158 $244 forward 7 unknown #
face $-1 $245 $246 $24 $-1 $247 reversed single #
loop $-1 $-1 $248 $100 #
plane-surface $-1 -75.682241279335912 0 0 1 0 0 0 0 -1 forward_v I I I I #
coedge $-1 $249 $171 $250 $251 forward $101 $-1 #
coedge $-1 $252 $103 $249 $253 forward $65 $-1 #
coedge $-1 $103 $252 $254 $255 forward $65 $-1 #
coedge $-1 $174 $173 $103 $167 reversed $175 $-1 #
edge $-1 $256 -49.249005337771777 $257 49.249005337771777 $166 $258 forward 7 unknown #
coedge $-1 $105 $104 $259 $260 forward $41 $-1 #
coedge $-1 $261 $262 $104 $170 reversed $246 $-1 #
edge $-1 $177 -75.682241279335912 $263 75.682241279335912 $169 $264 forward 7 unknown #
coedge $-1 $163 $265 $105 $172 reversed $101 $-1 #
edge $-1 $266 -75.682241279335912 $176 75.682241279335912 $171 $267 forward 7 unknown #
coedge $-1 $166 $106 $265 $268 forward $175 $-1 #
coedge $-1 $106 $166 $261 $269 reversed $175 $-1 #
loop $-1 $-1 $173 $245 #
vertex $-1 $107 $270 #
vertex $-1 $107 $271 #
straight-curve $-1 75.682241279335912 0 18.527407571586625 0 1 0 I I #
face $-1 $272 $273 $25 $-1 $274 reversed single #
loop $-1 $-1 $275 $108 #
plane-surface $-1 -75.682241279335912 0 0 1 0 0 0 0 -1 forward_v I I I I #
coedge $-1 $276 $188 $193 $277 reversed $109 $-1 #
coedge $-1 $278 $111 $279 $280 reversed $69 $-1 #
coedge $-1 $111 $278 $276 $281 forward $69 $-1 #
coedge $-1 $193 $192 $111 $186 forward $194 $-1 #
edge $-1 $282 -28.384788375801744 $283 -13.343645548138323 $185 $284 forward 7 unknown #
coedge $-1 $113 $112 $275 $285 reversed $44 $-1 #
coedge $-1 $182 $286 $112 $189 reversed $109 $-1 #
edge $-1 $195 -75.682241279335912 $287 75.682241279335912 $188 $288 forward 7 unknown #
coedge $-1 $289 $290 $113 $191 forward $273 $-1 #
edge $-1 $196 -75.682241279335912 $291 75.682241279335912 $190 $292 forward 7 unknown #
coedge $-1 $185 $114 $290 $293 forward $194 $-1 #
coedge $-1 $114 $185 $182 $277 forward $194 $-1 #
loop $-1 $-1 $114 $272 #
vertex $-1 $115 $294 #
vertex $-1 $293 $295 #
straight-curve $-1 75.682241279335912 -20.864216961970033 -10.526219773035709 0 -1 0 I I #
face $-1 $-1 $210 $26 $-1 $296 forward single #
loop $-1 $-1 $297 $116 #
plane-surface $-1 -75.682241279335912 0 0 1 0 0 0 0 -1 forward_v I I I I #
coedge $-1 $298 $299 $300 $301 reversed $117 $-1 #
coedge $-1 $302 $119 $121 $208 forward $73 $-1 #
coedge $-1 $119 $302 $298 $303 forward $73 $-1 #
coedge $-1 $300 $122 $119 $205 forward $210 $-1 #
edge $-1 $212 -4.225751110104266 $304 11.909616897437022 $204 $305 forward 7 unknown #
coedge $-1 $306 $307 $120 $207 forward $199 $-1 #
edge $-1 $308 -34.440712999507177 $211 -24.990349161974404 $206 $309 forward 7 unknown #
edge $-1 $212 -11.025109967927522 $308 -2.7113386213432547e-014 $121 $310 forward 7 unknown #
coedge $-1 $122 $300 $306 $311 forward $210 $-1 #
loop $-1 $-1 $300 $198 #
vertex $-1 $207 $312 #
vertex $-1 $123 $313 #
straight-curve $-1 -102.71346370112357 -0.38381821643788783 18.527407571586622 1 0 0 I I #
coedge $-1 $214 $214 $-1 $314 reversed $126 $-1 #
edge $-1 $315 0 $315 6.2831853071796004 $127 $316 forward 7 unknown #
vertex $-1 $130 $317 #
ellipse-curve $-1 -72.843065644439974 4.2262869285739058 13.802225652820233 -0.85716730853699208 0 0.51503806187062418 0.77255709280593621 0 1.2857509628054882 1 I I #
coedge $-1 $218 $218 $-1 $318 reversed $133 $-1 #
edge $-1 $319 0 $319 6.2831853071796004 $134 $320 forward 7 unknown #
vertex $-1 $137 $321 #
ellipse-curve $-1 -72.843065644439974 11.1414446460916 13.802225652820233 -0.85716730853699208 0 0.51503806187062418 0.77255709280593621 0 1.2857509628054882 1 I I #
face $-1 $-1 $322 $29 $-1 $323 reversed single #
loop $-1 $-1 $324 $138 #
plane-surface $-1 75.682241279335912 0 0 -1 0 0 0 0 1 forward_v I I I I #
coedge $-1 $226 $141 $143 $232 reversed $87 $-1 #
coedge $-1 $141 $225 $325 $326 reversed $87 $-1 #
coedge $-1 $327 $144 $141 $228 forward $139 $-1 #
edge $-1 $235 30.584855753432372 $328 35.973173439163098 $227 $329 forward 7 unknown #
coedge $-1 $143 $142 $324 $330 reversed $56 $-1 #
coedge $-1 $331 $332 $142 $231 forward $322 $-1 #
edge $-1 $333 -97.312015308505067 $234 -89.55522725116316 $230 $334 forward 7 unknown #
edge $-1 $335 -151.36448255867191 $235 -143.60769450133 $225 $336 forward 7 unknown #
coedge $-1 $144 $327 $331 $337 forward $139 $-1 #
vertex $-1 $231 $338 #
vertex $-1 $145 $339 #
straight-curve $-1 70.293923593605186 21.370927748674141 18.527407571586636 0 -1 0 I I #
coedge $-1 $237 $237 $-1 $340 reversed $148 $-1 #
edge $-1 $341 0 $341 6.2831853071796004 $149 $342 forward 7 unknown #
vertex $-1 $152 $343 #
ellipse-curve $-1 72.988082436470549 39.95307699430964 15.737524353414074 0.71933980857756763 0 0.69465836192734942 1.0419875428910241 0 -1.0790097128663514 1 I I #
coedge $-1 $241 $241 $-1 $344 reversed $155 $-1 #
edge $-1 $345 0 $345 6.2831853071796004 $156 $346 forward 7 unknown #
vertex $-1 $159 $347 #
ellipse-curve $-1 72.988082436470549 45.530634000386925 15.737524353414074 0.71933980857756763 0 0.69465836192734942 1.0419875428910241 0 -1.0790097128663514 1 I I #
face $-1 $-1 $175 $24 $-1 $348 reversed single #
loop $-1 $-1 $261 $160 #
plane-surface $-1 0 49.249005337771777 0 0 -1 0 0 0 -1 forward_v I I I I #
coedge $-1 $349 $259 $262 $350 forward $161 $-1 #
coedge $-1 $265 $163 $164 $253 reversed $101 $-1 #
coedge $-1 $259 $349 $163 $251 reversed $161 $-1 #
edge $-1 $266 -18.527407571586625 $351 18.527407571586625 $250 $352 forward 7 unknown #
coedge $-1 $165 $164 $349 $353 forward $65 $-1 #
edge $-1 $257 -75.682241279335912 $351 75.682241279335912 $249 $354 forward 7 unknown #
coedge $-1 $262 $261 $165 $255 reversed $246 $-1 #
edge $-1 $355 -75.682241279335912 $256 75.682241279335912 $254 $356 forward 7 unknown #
vertex $-1 $167 $357 #
vertex $-1 $268 $358 #
straight-curve $-1 75.682241279335912 0 -18.527407571586625 0 -1 0 I I #
coedge $-1 $248 $250 $168 $260 reversed $161 $-1 #
edge $-1 $263 -49.249005337771777 $266 49.249005337771777 $259 $359 forward 7 unknown #
coedge $-1 $254 $169 $174 $269 forward $246 $-1 #
coedge $-1 $169 $254 $248 $350 reversed $246 $-1 #
vertex $-1 $170 $360 #
straight-curve $-1 0 49.249005337771777 18.527407571586625 -1 0 0 I I #
coedge $-1 $171 $249 $173 $268 reversed $101 $-1 #
vertex $-1 $260 $361 #
straight-curve $-1 0 -49.249005337771777 18.527407571586625 1 0 0 I I #
edge $-1 $176 -18.527407571586625 $257 18.527407571586625 $173 $362 forward 7 unknown #
edge $-1 $177 -18.527407571586625 $256 18.527407571586625 $174 $363 forward 7 unknown #
point $-1 75.682241279335912 -49.249005337771777 18.527407571586625 #
point $-1 75.682241279335912 49.249005337771777 18.527407571586625 #
face $-1 $-1 $194 $25 $-1 $364 reversed single #
loop $-1 $-1 $190 $179 #
plane-surface $-1 0 -49.249005337771777 0 0 1 0 0 0 1 forward_v I I I I #
coedge $-1 $365 $366 $187 $285 forward $180 $-1 #
coedge $-1 $286 $182 $184 $281 reversed $109 $-1 #
edge $-1 $283 -10.728460467157539 $195 -3.4413263596379595 $193 $367 forward 7 unknown #
coedge $-1 $184 $183 $368 $369 reversed $69 $-1 #
coedge $-1 $290 $289 $183 $280 forward $273 $-1 #
edge $-1 $370 -75.682241279335912 $282 75.682241279335912 $279 $371 forward 7 unknown #
edge $-1 $372 -75.682241279335912 $283 75.682241279335912 $276 $373 forward 7 unknown #
vertex $-1 $280 $374 #
vertex $-1 $186 $375 #
straight-curve $-1 75.682241279335912 -20.864216961970033 -17.81335388055529 0 1 0 I I #
edge $-1 $291 -28.384788375801744 $287 -13.343645548138323 $275 $376 forward 7 unknown #
coedge $-1 $188 $276 $365 $377 reversed $109 $-1 #
vertex $-1 $285 $378 #
straight-curve $-1 0 -34.207862510108356 -10.526219773035709 -1 0 0 I I #
coedge $-1 $279 $190 $366 $379 forward $273 $-1 #
coedge $-1 $190 $279 $192 $293 reversed $273 $-1 #
vertex $-1 $379 $380 #
straight-curve $-1 0 -49.249005337771777 -10.526219773035709 -1 0 0 I I #
edge $-1 $196 10.526219773035709 $282 17.81335388055529 $192 $381 forward 7 unknown #
point $-1 75.682241279335912 -34.207862510108356 -10.526219773035709 #
point $-1 75.682241279335912 -49.249005337771777 -10.526219773035709 #
plane-surface $-1 0 0 18.527407571586625 0 0 1 1 0 0 forward_v I I I I #
coedge $-1 $307 $306 $299 $382 forward $199 $-1 #
coedge $-1 $299 $201 $203 $303 reversed $117 $-1 #
coedge $-1 $201 $298 $297 $382 reversed $117 $-1 #
coedge $-1 $209 $204 $201 $301 forward $210 $-1 #
edge $-1 $304 -32.709573691579536 $383 -27.03122242178766 $300 $384 forward 7 unknown #
coedge $-1 $203 $202 $307 $385 reversed $73 $-1 #
edge $-1 $386 2.7113386213432547e-014 $304 11.025109967927522 $298 $387 forward 7 unknown #
vertex $-1 $205 $388 #
straight-curve $-1 -70.003890009544037 3.8419328936663781 18.527407571586625 0 1 0 I I #
coedge $-1 $297 $206 $209 $311 reversed $199 $-1 #
coedge $-1 $206 $297 $302 $385 forward $199 $-1 #
vertex $-1 $207 $389 #
straight-curve $-1 -75.682241279335912 -0.38381821643788783 43.517756733561029 0 0 1 I I #
straight-curve $-1 -75.682241279335926 -0.38381821643788783 9.0770437340538308 -0.51503806187062418 0 -0.85716730853699208 I I #
edge $-1 $383 -15.7515497911034 $211 0.38381821643788783 $306 $390 forward 7 unknown #
point $-1 -75.682241279335912 -0.38381821643788783 18.527407571586625 #
point $-1 -70.003890009544037 -0.38381821643788783 18.527407571586625 #
edge $-1 $391 1 $391 0 $214 $-1 forward 7 unknown #
vertex $-1 $215 $392 #
ellipse-curve $-1 -67.736201099127726 4.2262869285739058 10.73371196656838 -0.85716730853699208 0 0.51503806187062418 0.77255709280593621 0 1.2857509628054882 1 I I #
point $-1 -72.07050855163402 4.2262869285739058 15.087976615625713 #
edge $-1 $393 1 $393 0 $218 $-1 forward 7 unknown #
vertex $-1 $219 $394 #
ellipse-curve $-1 -67.736201099127726 11.1414446460916 10.73371196656838 -0.85716730853699208 0 0.51503806187062418 0.77255709280593621 0 1.2857509628054882 1 I I #
point $-1 -72.07050855163402 11.1414446460916 15.087976615625713 #
loop $-1 $-1 $230 $222 #
plane-surface $-1 0 49.249005337771777 0 0 -1 0 0 0 -1 forward_v I I I I #
coedge $-1 $395 $325 $229 $330 forward $223 $-1 #
coedge $-1 $324 $396 $226 $326 forward $223 $-1 #
edge $-1 $328 94.960963704726865 $335 100.54073014107195 $325 $397 forward 7 unknown #
coedge $-1 $233 $227 $396 $398 forward $139 $-1 #
vertex $-1 $398 $399 #
straight-curve $-1 39.709067840172814 36.234705656924788 18.527407571586622 1 0 0 I I #
edge $-1 $335 14.863777908250647 $333 27.878077589097636 $324 $400 forward 7 unknown #
coedge $-1 $332 $230 $233 $337 reversed $322 $-1 #
coedge $-1 $230 $331 $395 $401 forward $322 $-1 #
vertex $-1 $231 $402 #
straight-curve $-1 8.0836361292806487 49.249005337771777 82.94804759955889 -0.69465836192734942 0 0.71933980857756763 I I #
vertex $-1 $330 $403 #
straight-curve $-1 -29.46436222885194 36.234705656924788 121.83013904443915 -0.69465836192734942 0 0.71933980857756763 I I #
edge $-1 $404 -75.682241279335912 $234 -70.293923593605186 $331 $405 forward 7 unknown #
point $-1 70.293923593605186 49.249005337771777 18.527407571586622 #
point $-1 70.293923593605186 36.234705656924788 18.527407571586622 #
edge $-1 $406 1 $406 0 $237 $-1 forward 7 unknown #
vertex $-1 $238 $407 #
ellipse-curve $-1 69.023832298117469 39.95307699430964 11.909292585143083 0.71933980857756763 0 0.69465836192734942 1.0419875428910241 0 -1.0790097128663514 1 I I #
point $-1 74.030069979361585 39.95307699430964 14.658514640547734 #
edge $-1 $408 1 $408 0 $241 $-1 forward 7 unknown #
vertex $-1 $242 $409 #
ellipse-curve $-1 69.023832298117469 45.530634000386925 11.909292585143083 0.71933980857756763 0 0.69465836192734942 1.0419875428910241 0 -1.0790097128663514 1 I I #
point $-1 74.030069979361585 45.530634000386925 14.658514640547734 #
plane-surface $-1 75.682241279335912 0 0 -1 0 0 0 0 1 forward_v I I I I #
coedge $-1 $250 $248 $252 $353 reversed $161 $-1 #
edge $-1 $263 -18.527407571586625 $355 18.527407571586625 $262 $410 forward 7 unknown #
vertex $-1 $353 $411 #
straight-curve $-1 -75.682241279335912 -49.249005337771777 0 0 0 -1 I I #
edge $-1 $351 -49.249005337771777 $355 49.249005337771777 $349 $412 forward 7 unknown #
straight-curve $-1 0 -49.249005337771777 -18.527407571586625 -1 0 0 I I #
vertex $-1 $255 $413 #
straight-curve $-1 0 49.249005337771777 -18.527407571586625 1 0 0 I I #
point $-1 75.682241279335912 49.249005337771777 -18.527407571586625 #
point $-1 75.682241279335912 -49.249005337771777 -18.527407571586625 #
straight-curve $-1 -75.682241279335912 0 18.527407571586625 0 -1 0 I I #
point $-1 -75.682241279335912 49.249005337771777 18.527407571586625 #
point $-1 -75.682241279335912 -49.249005337771777 18.527407571586625 #
straight-curve $-1 75.682241279335912 -49.249005337771777 0 0 0 -1 I I #
straight-curve $-1 75.682241279335912 49.249005337771777 0 0 0 -1 I I #
plane-surface $-1 75.682241279335912 0 0 -1 0 0 0 0 1 forward_v I I I I #
coedge $-1 $368 $275 $286 $377 forward $180 $-1 #
coedge $-1 $275 $368 $289 $379 reversed $180 $-1 #
straight-curve $-1 75.682241279335912 -34.207862510108356 -7.0848934133977499 0 0 1 I I #
coedge $-1 $366 $365 $278 $369 forward $180 $-1 #
edge $-1 $372 13.343645548138323 $370 28.384788375801744 $368 $414 forward 7 unknown #
vertex $-1 $280 $415 #
straight-curve $-1 0 -49.249005337771777 -17.81335388055529 1 0 0 I I #
vertex $-1 $369 $416 #
straight-curve $-1 0 -34.207862510108356 -17.81335388055529 1 0 0 I I #
point $-1 75.682241279335912 -49.249005337771777 -17.81335388055529 #
point $-1 75.682241279335912 -34.207862510108356 -17.81335388055529 #
straight-curve $-1 -75.682241279335912 -20.864216961970033 -10.526219773035709 0 1 0 I I #
edge $-1 $287 3.4413263596379595 $372 10.728460467157539 $365 $417 forward 7 unknown #
point $-1 -75.682241279335912 -34.207862510108356 -10.526219773035709 #
edge $-1 $291 10.526219773035709 $370 17.81335388055529 $366 $418 forward 7 unknown #
point $-1 -75.682241279335912 -49.249005337771777 -10.526219773035709 #
straight-curve $-1 75.682241279335912 -49.249005337771777 0 0 0 -1 I I #
edge $-1 $383 24.990349161974404 $386 34.440712999507177 $297 $419 forward 7 unknown #
vertex $-1 $311 $420 #
straight-curve $-1 -102.71346370112357 15.7515497911034 18.527407571586622 -1 0 0 I I #
edge $-1 $386 -11.909616897437022 $308 4.225751110104266 $307 $421 forward 7 unknown #
vertex $-1 $385 $422 #
straight-curve $-1 -75.682241279335926 15.7515497911034 9.0770437340538308 0.51503806187062418 0 0.85716730853699208 I I #
point $-1 -70.003890009544037 15.7515497911034 18.527407571586625 #
point $-1 -75.682241279335912 -0.38381821643788783 9.0770437340538539 #
straight-curve $-1 -75.682241279335912 0 18.527407571586625 0 -1 0 I I #
vertex $-1 $314 $423 #
point $-1 -66.9636440063218 4.2262869285739058 12.019462929373869 #
vertex $-1 $318 $424 #
point $-1 -66.9636440063218 11.1414446460916 12.019462929373869 #
coedge $-1 $396 $324 $332 $401 reversed $223 $-1 #
coedge $-1 $325 $395 $327 $398 reversed $223 $-1 #
straight-curve $-1 75.682241279335912 36.234705656924788 113.48837127631349 0 0 -1 I I #
edge $-1 $328 36.234705656924788 $404 49.249005337771777 $396 $425 forward 7 unknown #
point $-1 75.682241279335912 36.234705656924788 18.527407571586625 #
straight-curve $-1 75.682241279335912 21.370927748674141 12.94764113524154 0 1 0 I I #
edge $-1 $404 -18.527407571586625 $333 -12.94764113524154 $395 $426 forward 7 unknown #
point $-1 75.682241279335926 49.249005337771777 12.94764113524154 #
point $-1 75.682241279335926 36.234705656924788 12.94764113524154 #
vertex $-1 $398 $427 #
straight-curve $-1 0 49.249005337771777 18.527407571586625 -1 0 0 I I #
vertex $-1 $340 $428 #
point $-1 70.065819841008505 39.95307699430964 10.830282872276731 #
vertex $-1 $344 $429 #
point $-1 70.065819841008505 45.530634000386925 10.830282872276731 #
straight-curve $-1 -75.682241279335912 49.249005337771777 0 0 0 -1 I I #
point $-1 -75.682241279335912 -49.249005337771777 -18.527407571586625 #
straight-curve $-1 -75.682241279335912 0 -18.527407571586625 0 1 0 I I #
point $-1 -75.682241279335912 49.249005337771777 -18.527407571586625 #
straight-curve $-1 -75.682241279335912 -20.864216961970033 -17.81335388055529 0 -1 0 I I #
point $-1 -75.682241279335912 -49.249005337771777 -17.81335388055529 #
point $-1 -75.682241279335912 -34.207862510108356 -17.81335388055529 #
straight-curve $-1 -75.682241279335912 -34.207862510108356 -7.0848934133977499 0 0 -1 I I #
straight-curve $-1 -75.682241279335912 -49.249005337771777 0 0 0 -1 I I #
straight-curve $-1 -75.682241279335912 15.7515497911034 43.517756733561029 0 0 -1 I I #
point $-1 -75.682241279335912 15.7515497911034 18.527407571586625 #
straight-curve $-1 -75.682241279335912 3.8419328936663781 9.0770437340538574 0 -1 0 I I #
point $-1 -75.682241279335912 15.7515497911034 9.0770437340538539 #
point $-1 -66.450450136322246 4.2262869285739058 9.9611548737624442 #
point $-1 -66.450450136322246 11.1414446460916 9.9611548737624442 #
straight-curve $-1 75.682241279335912 0 18.527407571586625 0 1 0 I I #
straight-curve $-1 75.682241279335912 49.249005337771777 0 0 0 -1 I I #
point $-1 75.682241279335912 49.249005337771777 18.527407571586625 #
point $-1 67.944822585251131 39.95307699430964 10.867305042252058 #
point $-1 67.944822585251131 45.530634000386925 10.867305042252058 #
End-of-ACIS-data 