500 0 8 0           
7 Unknown 11 ACIS 5.0 NT 24 Thu Mar 25 16:04:32 1999 
-1 9.9999999999999995e-007 1e-010 
body $-1 $8 $-1 $9 #
body $-1 $10 $-1 $11 #
body $-1 $12 $-1 $13 #
body $-1 $14 $-1 $15 #
body $-1 $16 $-1 $17 #
body $-1 $18 $-1 $19 #
body $-1 $20 $-1 $21 #
body $-1 $22 $-1 $23 #
lump $-1 $-1 $24 $0 #
transform $-1 1 0 0 0 1 0 0 0 1 67.891476180303357 32.093832166205175 15.890594918097358 1 rotate no_reflect no_shear #
lump $-1 $-1 $25 $1 #
transform $-1 1 0 0 0 1 0 0 0 1 67.891476180303357 32.093832166205175 15.890594918097358 1 rotate no_reflect no_shear #
lump $-1 $-1 $26 $2 #
transform $-1 1 0 0 0 1 0 0 0 1 67.891476180303357 32.093832166205175 15.890594918097358 1 rotate no_reflect no_shear #
lump $-1 $-1 $27 $3 #
transform $-1 1 0 0 0 1 0 0 0 1 67.891476180303357 32.093832166205175 15.890594918097358 1 rotate no_reflect no_shear #
lump $-1 $-1 $28 $4 #
transform $-1 1 0 0 0 1 0 0 0 1 67.891476180303357 32.093832166205175 15.890594918097358 1 rotate no_reflect no_shear #
lump $-1 $-1 $29 $5 #
transform $-1 1 0 0 0 1 0 0 0 1 67.891476180303357 32.093832166205175 15.890594918097358 1 rotate no_reflect no_shear #
lump $-1 $-1 $30 $6 #
transform $-1 1 0 0 0 1 0 0 0 1 67.891476180303357 32.093832166205175 15.890594918097358 1 rotate no_reflect no_shear #
lump $-1 $-1 $31 $7 #
transform $-1 1 0 0 0 1 0 0 0 1 67.891476180303357 32.093832166205175 15.890594918097358 1 rotate no_reflect no_shear #
shell $-1 $-1 $-1 $32 $-1 $8 #
shell $-1 $-1 $-1 $33 $-1 $10 #
shell $-1 $-1 $-1 $34 $-1 $12 #
shell $-1 $-1 $-1 $35 $-1 $14 #
shell $-1 $-1 $-1 $36 $-1 $16 #
shell $-1 $-1 $-1 $37 $-1 $18 #
shell $-1 $-1 $-1 $38 $-1 $20 #
shell $-1 $-1 $-1 $39 $-1 $22 #
face $-1 $40 $41 $24 $-1 $42 forward single #
face $-1 $43 $44 $25 $-1 $45 forward single #
face $-1 $46 $47 $26 $-1 $48 reversed single #
face $-1 $49 $50 $27 $-1 $51 forward single #
face $-1 $52 $53 $28 $-1 $54 forward single #
face $-1 $55 $56 $29 $-1 $57 reversed single #
face $-1 $58 $59 $30 $-1 $60 forward single #
face $-1 $61 $62 $31 $-1 $63 forward single #
face $-1 $64 $65 $24 $-1 $66 reversed single #
loop $-1 $-1 $67 $32 #
plane-surface $-1 0 0 15.890594918097358 0 0 1 1 0 0 forward_v I I I I #
face $-1 $68 $69 $25 $-1 $70 reversed single #
loop $-1 $-1 $71 $33 #
plane-surface $-1 0 -26.373508970053077 8.8179456272904133 0 0 1 1 0 0 forward_v I I I I #
face $-1 $72 $73 $26 $-1 $74 reversed single #
loop $-1 $-1 $75 $34 #
plane-surface $-1 24.695005694480727 -15.273357685577544 191.21985244184586 0 1 0 0.52991927123019833 0 0.84804809178421925 forward_v I I I I #
face $-1 $76 $77 $27 $-1 $78 forward single #
loop $-1 $79 $80 $35 #
cone-surface $-1 57.647582090330886 -11.11770453813471 8.6879115854370657 -0.52991927123019833 0 -0.84804809178421925 1.6960961835684385 0 -1.0598385424603967 1 I I 0 1 2 forward I I I I #
face $-1 $81 $82 $28 $-1 $83 forward single #
loop $-1 $84 $85 $36 #
cone-surface $-1 57.647582090330886 -4.884224816970459 8.6879115854370657 -0.52991927123019833 0 -0.84804809178421925 1.6960961835684385 0 -1.0598385424603967 1 I I 0 1 2 forward I I I I #
face $-1 $86 $87 $29 $-1 $88 reversed single #
loop $-1 $-1 $89 $37 #
plane-surface $-1 -139.8454793407208 -15.273357685577544 119.2658492814284 0 1 0 -0.52991927123019833 0 0.84804809178421925 forward_v I I I I #
face $-1 $90 $91 $30 $-1 $92 forward single #
loop $-1 $93 $94 $38 #
cone-surface $-1 -57.647582090330893 -11.11770453813471 8.6879115854370728 0.52991927123019833 0 -0.84804809178421925 1.6960961835684385 0 1.0598385424603967 1 I I 0 1 2 forward I I I I #
face $-1 $95 $96 $31 $-1 $97 forward single #
loop $-1 $98 $99 $39 #
cone-surface $-1 -57.647582090330893 -4.884224816970459 8.6879115854370728 0.52991927123019833 0 -0.84804809178421925 1.6960961835684385 0 1.0598385424603967 1 I I 0 1 2 forward I I I I #
face $-1 $100 $101 $24 $-1 $102 reversed single #
loop $-1 $-1 $103 $40 #
plane-surface $-1 0 0 -15.890594918097358 0 0 1 1 0 0 forward_v I I I I #
coedge $-1 $104 $105 $106 $107 forward $41 $-1 #
face $-1 $108 $109 $25 $-1 $110 reversed single #
loop $-1 $-1 $111 $43 #
plane-surface $-1 0 -26.373508970053077 -0.66248407496750428 0 0 1 1 0 0 forward_v I I I I #
coedge $-1 $112 $113 $114 $115 reversed $44 $-1 #
face $-1 $116 $117 $26 $-1 $118 reversed single #
loop $-1 $-1 $119 $46 #
plane-surface $-1 -47.258997465936716 -8.0009646775525844 76.069378795605786 0.52991927123019833 0 0.84804809178421925 0.84804809178421925 0 -0.52991927123019833 forward_v I I I I #
coedge $-1 $120 $121 $122 $123 reversed $47 $-1 #
face $-1 $-1 $124 $27 $-1 $125 forward single #
loop $-1 $126 $127 $49 #
cone-surface $-1 56.295913558877018 -11.11770453813471 6.5247898024470654 -0.52991927123019833 0 -0.84804809178421925 0.84804809178421925 0 -0.52991927123019833 1 I I -0.70710678118654746 0.70710678118654746 1 forward I I I I #
loop $-1 $-1 $128 $35 #
coedge $-1 $80 $80 $129 $130 reversed $50 $-1 #
face $-1 $-1 $131 $28 $-1 $132 forward single #
loop $-1 $133 $134 $52 #
cone-surface $-1 56.295913558877018 -4.884224816970459 6.5247898024470654 -0.52991927123019833 0 -0.84804809178421925 0.84804809178421925 0 -0.52991927123019833 1 I I -0.70710678118654746 0.70710678118654746 1 forward I I I I #
loop $-1 $-1 $135 $36 #
coedge $-1 $85 $85 $136 $137 reversed $53 $-1 #
face $-1 $138 $139 $29 $-1 $140 reversed single #
loop $-1 $-1 $141 $55 #
plane-surface $-1 -67.891476180303357 -8.0009646775525844 4.1153756351883288 -0.52991927123019833 0 0.84804809178421925 0.84804809178421925 0 0.52991927123019833 forward_v I I I I #
coedge $-1 $142 $143 $144 $145 reversed $56 $-1 #
face $-1 $-1 $146 $30 $-1 $147 forward single #
loop $-1 $148 $149 $58 #
cone-surface $-1 -56.295913558877025 -11.11770453813471 6.5247898024470725 0.52991927123019833 0 -0.84804809178421925 0.84804809178421925 0 0.52991927123019833 1 I I -0.70710678118654746 0.70710678118654746 1 forward I I I I #
loop $-1 $-1 $150 $38 #
coedge $-1 $94 $94 $151 $152 reversed $59 $-1 #
face $-1 $-1 $153 $31 $-1 $154 forward single #
loop $-1 $155 $156 $61 #
cone-surface $-1 -56.295913558877025 -4.884224816970459 6.5247898024470725 0.52991927123019833 0 -0.84804809178421925 0.84804809178421925 0 0.52991927123019833 1 I I -0.70710678118654746 0.70710678118654746 1 forward I I I I #
loop $-1 $-1 $157 $39 #
coedge $-1 $99 $99 $158 $159 reversed $62 $-1 #
face $-1 $160 $161 $24 $-1 $162 reversed single #
loop $-1 $-1 $163 $64 #
plane-surface $-1 0 -32.093832166205175 0 0 1 0 0 0 1 forward_v I I I I #
coedge $-1 $164 $165 $166 $167 forward $65 $-1 #
coedge $-1 $168 $67 $169 $170 forward $41 $-1 #
coedge $-1 $67 $168 $171 $172 forward $41 $-1 #
coedge $-1 $173 $174 $67 $107 reversed $175 $-1 #
edge $-1 $176 -32.093832166205175 $177 32.093832166205175 $106 $178 forward 7 unknown #
face $-1 $179 $180 $25 $-1 $181 reversed single #
loop $-1 $-1 $182 $68 #
plane-surface $-1 0 -20.653185773900979 4.0777307761614541 0 -1 0 0 0 -1 forward_v I I I I #
coedge $-1 $183 $184 $185 $186 reversed $69 $-1 #
coedge $-1 $187 $71 $188 $189 forward $44 $-1 #
coedge $-1 $71 $187 $190 $191 reversed $44 $-1 #
coedge $-1 $192 $193 $71 $115 forward $194 $-1 #
edge $-1 $195 7.4664312888744409 $196 18.907077681178635 $114 $197 forward 7 unknown #
face $-1 $198 $199 $26 $-1 $200 forward single #
loop $-1 $-1 $201 $72 #
plane-surface $-1 24.695005694480727 -0.72857166952762498 191.21985244184586 0 -1 0 -0.52991927123019833 0 -0.84804809178421925 forward_v I I I I #
coedge $-1 $202 $203 $204 $205 reversed $73 $-1 #
coedge $-1 $121 $75 $206 $207 reversed $47 $-1 #
coedge $-1 $75 $120 $202 $208 reversed $47 $-1 #
coedge $-1 $204 $209 $75 $123 forward $210 $-1 #
edge $-1 $211 79.719331302825566 $212 91.494550585734586 $122 $213 forward 7 unknown #
loop $-1 $-1 $129 $76 #
plane-surface $-1 -47.258997465936716 -8.0009646775525844 76.069378795605786 0.52991927123019833 0 0.84804809178421925 0.84804809178421925 0 -0.52991927123019833 forward_v I I I I #
loop $-1 $-1 $214 $49 #
coedge $-1 $127 $127 $128 $215 reversed $77 $-1 #
coedge $-1 $128 $128 $127 $215 forward $79 $-1 #
coedge $-1 $129 $129 $80 $130 forward $124 $-1 #
edge $-1 $216 0 $216 6.2831853071796004 $129 $217 forward 7 unknown #
loop $-1 $-1 $136 $81 #
plane-surface $-1 -47.258997465936716 -8.0009646775525844 76.069378795605786 0.52991927123019833 0 0.84804809178421925 0.84804809178421925 0 -0.52991927123019833 forward_v I I I I #
loop $-1 $-1 $218 $52 #
coedge $-1 $134 $134 $135 $219 reversed $82 $-1 #
coedge $-1 $135 $135 $134 $219 forward $84 $-1 #
coedge $-1 $136 $136 $85 $137 forward $131 $-1 #
edge $-1 $220 0 $220 6.2831853071796004 $136 $221 forward 7 unknown #
face $-1 $222 $223 $29 $-1 $224 reversed single #
loop $-1 $-1 $225 $86 #
plane-surface $-1 -139.8454793407208 -0.72857166952762498 119.2658492814284 0 -1 0 0.52991927123019833 0 -0.84804809178421925 forward_v I I I I #
coedge $-1 $226 $227 $228 $229 reversed $87 $-1 #
coedge $-1 $143 $89 $230 $231 reversed $56 $-1 #
coedge $-1 $89 $142 $226 $232 reversed $56 $-1 #
coedge $-1 $228 $233 $89 $145 forward $234 $-1 #
edge $-1 $235 2.031263490057043 $236 20.875553149554676 $144 $237 forward 7 unknown #
loop $-1 $-1 $151 $90 #
plane-surface $-1 -67.891476180303357 -8.0009646775525844 4.1153756351883288 -0.52991927123019833 0 0.84804809178421925 0.84804809178421925 0 0.52991927123019833 forward_v I I I I #
loop $-1 $-1 $238 $58 #
coedge $-1 $149 $149 $150 $239 reversed $91 $-1 #
coedge $-1 $150 $150 $149 $239 forward $93 $-1 #
coedge $-1 $151 $151 $94 $152 forward $146 $-1 #
edge $-1 $240 0 $240 6.2831853071796004 $151 $241 forward 7 unknown #
loop $-1 $-1 $158 $95 #
plane-surface $-1 -67.891476180303357 -8.0009646775525844 4.1153756351883288 -0.52991927123019833 0 0.84804809178421925 0.84804809178421925 0 0.52991927123019833 forward_v I I I I #
loop $-1 $-1 $242 $61 #
coedge $-1 $156 $156 $157 $243 reversed $96 $-1 #
coedge $-1 $157 $157 $156 $243 forward $98 $-1 #
coedge $-1 $158 $158 $99 $159 forward $153 $-1 #
edge $-1 $244 0 $244 6.2831853071796004 $158 $245 forward 7 unknown #
face $-1 $246 $247 $24 $-1 $248 reversed single #
loop $-1 $-1 $249 $100 #
plane-surface $-1 -67.891476180303357 0 0 1 0 0 0 0 -1 forward_v I I I I #
coedge $-1 $250 $171 $251 $252 forward $101 $-1 #
coedge $-1 $253 $103 $250 $254 forward $65 $-1 #
coedge $-1 $103 $253 $255 $256 forward $65 $-1 #
coedge $-1 $174 $173 $103 $167 reversed $175 $-1 #
edge $-1 $257 -32.093832166205175 $258 32.093832166205175 $166 $259 forward 7 unknown #
coedge $-1 $105 $104 $260 $261 forward $41 $-1 #
coedge $-1 $262 $263 $104 $170 reversed $247 $-1 #
edge $-1 $177 -67.891476180303357 $264 67.891476180303357 $169 $265 forward 7 unknown #
coedge $-1 $163 $266 $105 $172 reversed $101 $-1 #
edge $-1 $267 -67.891476180303357 $176 67.891476180303357 $171 $268 forward 7 unknown #
coedge $-1 $166 $106 $266 $269 forward $175 $-1 #
coedge $-1 $106 $166 $262 $270 reversed $175 $-1 #
loop $-1 $-1 $173 $246 #
vertex $-1 $107 $271 #
vertex $-1 $107 $272 #
straight-curve $-1 67.891476180303357 0 15.890594918097358 0 1 0 I I #
face $-1 $273 $274 $25 $-1 $275 reversed single #
loop $-1 $-1 $276 $108 #
plane-surface $-1 -67.891476180303357 0 0 1 0 0 0 0 -1 forward_v I I I I #
coedge $-1 $277 $188 $193 $278 reversed $109 $-1 #
coedge $-1 $279 $111 $280 $281 reversed $69 $-1 #
coedge $-1 $111 $279 $277 $282 forward $69 $-1 #
coedge $-1 $193 $192 $111 $186 forward $194 $-1 #
edge $-1 $283 -18.907077681178635 $284 -7.4664312888744409 $185 $285 forward 7 unknown #
coedge $-1 $113 $112 $276 $286 reversed $44 $-1 #
coedge $-1 $182 $287 $112 $189 reversed $109 $-1 #
edge $-1 $195 -67.891476180303357 $288 67.891476180303357 $188 $289 forward 7 unknown #
coedge $-1 $290 $291 $113 $191 forward $274 $-1 #
edge $-1 $196 -67.891476180303357 $292 67.891476180303357 $190 $293 forward 7 unknown #
coedge $-1 $185 $114 $291 $294 forward $194 $-1 #
coedge $-1 $114 $185 $182 $278 forward $194 $-1 #
loop $-1 $-1 $114 $273 #
vertex $-1 $115 $295 #
vertex $-1 $294 $296 #
straight-curve $-1 67.891476180303357 -13.186754485026539 8.8179456272904133 0 -1 0 I I #
face $-1 $-1 $210 $26 $-1 $297 reversed single #
loop $-1 $-1 $298 $116 #
plane-surface $-1 0 0 15.890594918097358 0 0 1 1 0 0 forward_v I I I I #
coedge $-1 $299 $300 $301 $302 reversed $117 $-1 #
coedge $-1 $303 $119 $121 $208 forward $73 $-1 #
coedge $-1 $119 $303 $299 $304 forward $73 $-1 #
coedge $-1 $301 $122 $119 $205 forward $210 $-1 #
edge $-1 $212 -11.272875346801252 $305 3.2719106692486672 $204 $306 forward 7 unknown #
coedge $-1 $307 $308 $120 $207 forward $199 $-1 #
edge $-1 $309 36.699683673565374 $211 55.543973333062993 $206 $310 forward 7 unknown #
edge $-1 $212 -135.78295236060671 $309 -113.56217285286574 $121 $311 forward 7 unknown #
coedge $-1 $122 $301 $307 $312 reversed $210 $-1 #
loop $-1 $-1 $301 $198 #
vertex $-1 $312 $313 #
vertex $-1 $123 $314 #
straight-curve $-1 67.891476180303357 -15.273357685577544 95.609926220922929 0 0 -1 I I #
coedge $-1 $214 $214 $-1 $315 reversed $126 $-1 #
edge $-1 $316 0 $316 6.2831853071796004 $127 $317 forward 7 unknown #
vertex $-1 $130 $318 #
ellipse-curve $-1 58.469331350554555 -11.11770453813471 10.00298527664285 0.52991927123019833 0 0.84804809178421925 1.6960961835684385 0 -1.0598385424603967 1 I I #
coedge $-1 $218 $218 $-1 $319 reversed $133 $-1 #
edge $-1 $320 0 $320 6.2831853071796004 $134 $321 forward 7 unknown #
vertex $-1 $137 $322 #
ellipse-curve $-1 58.469331350554555 -4.884224816970459 10.00298527664285 0.52991927123019833 0 0.84804809178421925 1.6960961835684385 0 -1.0598385424603967 1 I I #
face $-1 $-1 $234 $29 $-1 $323 forward single #
loop $-1 $-1 $324 $138 #
plane-surface $-1 -67.891476180303357 0 0 1 0 0 0 0 -1 forward_v I I I I #
coedge $-1 $325 $326 $327 $328 reversed $139 $-1 #
coedge $-1 $329 $141 $143 $232 forward $87 $-1 #
coedge $-1 $141 $329 $325 $330 forward $87 $-1 #
coedge $-1 $327 $144 $141 $229 forward $234 $-1 #
edge $-1 $236 -11.272875346801252 $331 3.2719106692486672 $228 $332 forward 7 unknown #
coedge $-1 $333 $334 $142 $231 forward $223 $-1 #
edge $-1 $335 -55.517549005525872 $235 -43.742329722616844 $230 $336 forward 7 unknown #
edge $-1 $236 -22.220779507740993 $335 0 $143 $337 forward 7 unknown #
coedge $-1 $144 $327 $333 $338 forward $234 $-1 #
loop $-1 $-1 $327 $222 #
vertex $-1 $231 $339 #
vertex $-1 $145 $340 #
straight-curve $-1 -69.9227396703604 -15.273357685577544 15.890594918097356 1 0 0 I I #
coedge $-1 $238 $238 $-1 $341 reversed $148 $-1 #
edge $-1 $342 0 $342 6.2831853071796004 $149 $343 forward 7 unknown #
vertex $-1 $152 $344 #
ellipse-curve $-1 -58.469331350554548 -11.11770453813471 10.002985276642839 -0.52991927123019833 0 0.84804809178421925 1.6960961835684385 0 1.0598385424603967 1 I I #
coedge $-1 $242 $242 $-1 $345 reversed $155 $-1 #
edge $-1 $346 0 $346 6.2831853071796004 $156 $347 forward 7 unknown #
vertex $-1 $159 $348 #
ellipse-curve $-1 -58.469331350554548 -4.884224816970459 10.002985276642839 -0.52991927123019833 0 0.84804809178421925 1.6960961835684385 0 1.0598385424603967 1 I I #
face $-1 $-1 $175 $24 $-1 $349 reversed single #
loop $-1 $-1 $262 $160 #
plane-surface $-1 0 32.093832166205175 0 0 -1 0 0 0 -1 forward_v I I I I #
coedge $-1 $350 $260 $263 $351 forward $161 $-1 #
coedge $-1 $266 $163 $164 $254 reversed $101 $-1 #
coedge $-1 $260 $350 $163 $252 reversed $161 $-1 #
edge $-1 $267 -15.890594918097358 $352 15.890594918097358 $251 $353 forward 7 unknown #
coedge $-1 $165 $164 $350 $354 forward $65 $-1 #
edge $-1 $258 -67.891476180303357 $352 67.891476180303357 $250 $355 forward 7 unknown #
coedge $-1 $263 $262 $165 $256 reversed $247 $-1 #
edge $-1 $356 -67.891476180303357 $257 67.891476180303357 $255 $357 forward 7 unknown #
vertex $-1 $167 $358 #
vertex $-1 $269 $359 #
straight-curve $-1 67.891476180303357 0 -15.890594918097358 0 -1 0 I I #
coedge $-1 $249 $251 $168 $261 reversed $161 $-1 #
edge $-1 $264 -32.093832166205175 $267 32.093832166205175 $260 $360 forward 7 unknown #
coedge $-1 $255 $169 $174 $270 forward $247 $-1 #
coedge $-1 $169 $255 $249 $351 reversed $247 $-1 #
vertex $-1 $170 $361 #
straight-curve $-1 0 32.093832166205175 15.890594918097358 -1 0 0 I I #
coedge $-1 $171 $250 $173 $269 reversed $101 $-1 #
vertex $-1 $261 $362 #
straight-curve $-1 0 -32.093832166205175 15.890594918097358 1 0 0 I I #
edge $-1 $176 -15.890594918097358 $258 15.890594918097358 $173 $363 forward 7 unknown #
edge $-1 $177 -15.890594918097358 $257 15.890594918097358 $174 $364 forward 7 unknown #
point $-1 67.891476180303357 -32.093832166205175 15.890594918097358 #
point $-1 67.891476180303357 32.093832166205175 15.890594918097358 #
face $-1 $-1 $194 $25 $-1 $365 reversed single #
loop $-1 $-1 $190 $179 #
plane-surface $-1 0 -32.093832166205175 0 0 1 0 0 0 1 forward_v I I I I #
coedge $-1 $366 $367 $187 $286 forward $180 $-1 #
coedge $-1 $287 $182 $184 $282 reversed $109 $-1 #
edge $-1 $284 -2.7013494630482313 $195 6.7790802392096863 $193 $368 forward 7 unknown #
coedge $-1 $184 $183 $369 $370 reversed $69 $-1 #
coedge $-1 $291 $290 $183 $281 forward $274 $-1 #
edge $-1 $371 -67.891476180303357 $283 67.891476180303357 $280 $372 forward 7 unknown #
edge $-1 $373 -67.891476180303357 $284 67.891476180303357 $277 $374 forward 7 unknown #
vertex $-1 $281 $375 #
vertex $-1 $186 $376 #
straight-curve $-1 67.891476180303357 -13.186754485026539 -0.66248407496750428 0 1 0 I I #
edge $-1 $292 -18.907077681178635 $288 -7.4664312888744409 $276 $377 forward 7 unknown #
coedge $-1 $188 $277 $366 $378 reversed $109 $-1 #
vertex $-1 $286 $379 #
straight-curve $-1 0 -20.653185773900979 8.8179456272904133 -1 0 0 I I #
coedge $-1 $280 $190 $367 $380 forward $274 $-1 #
coedge $-1 $190 $280 $192 $294 reversed $274 $-1 #
vertex $-1 $380 $381 #
straight-curve $-1 0 -32.093832166205175 8.8179456272904133 -1 0 0 I I #
edge $-1 $196 -8.8179456272904133 $283 0.66248407496750428 $192 $382 forward 7 unknown #
point $-1 67.891476180303357 -20.653185773900979 8.8179456272904133 #
point $-1 67.891476180303357 -32.093832166205175 8.8179456272904133 #
plane-surface $-1 67.891476180303357 0 0 -1 0 0 0 0 1 forward_v I I I I #
coedge $-1 $308 $307 $300 $383 forward $199 $-1 #
coedge $-1 $300 $201 $203 $304 reversed $117 $-1 #
coedge $-1 $201 $299 $298 $383 reversed $117 $-1 #
coedge $-1 $209 $204 $201 $302 forward $210 $-1 #
edge $-1 $305 -91.494550585734586 $384 -79.719331302825566 $301 $385 forward 7 unknown #
coedge $-1 $203 $202 $308 $386 reversed $73 $-1 #
edge $-1 $387 113.56217285286574 $305 135.78295236060671 $299 $388 forward 7 unknown #
vertex $-1 $205 $389 #
straight-curve $-1 67.891476180303371 -4.0004823387762922 4.1153756351883288 0 1 0 I I #
coedge $-1 $298 $206 $209 $312 forward $199 $-1 #
coedge $-1 $206 $298 $303 $386 forward $199 $-1 #
vertex $-1 $207 $390 #
straight-curve $-1 12.347502847240364 -15.273357685577544 15.890594918097364 1 0 0 I I #
straight-curve $-1 -47.258997465936716 -15.273357685577544 76.069378795605786 -0.84804809178421925 0 0.52991927123019833 I I #
edge $-1 $211 -15.273357685577544 $384 -0.72857166952762498 $209 $391 forward 7 unknown #
point $-1 67.891476180303357 -15.273357685577544 15.890594918097358 #
point $-1 67.891476180303357 -15.273357685577544 4.115375635188343 #
edge $-1 $392 1 $392 0 $214 $-1 forward 7 unknown #
vertex $-1 $215 $393 #
ellipse-curve $-1 56.825832830107217 -11.11770453813471 7.3728378942312851 0.52991927123019833 0 0.84804809178421925 1.6960961835684385 0 -1.0598385424603967 1 I I #
point $-1 60.165427534122983 -11.11770453813471 8.9431467341824469 #
edge $-1 $394 1 $394 0 $218 $-1 forward 7 unknown #
vertex $-1 $219 $395 #
ellipse-curve $-1 56.825832830107217 -4.884224816970459 7.3728378942312851 0.52991927123019833 0 0.84804809178421925 1.6960961835684385 0 -1.0598385424603967 1 I I #
point $-1 60.165427534122983 -4.884224816970459 8.9431467341824469 #
plane-surface $-1 0 0 15.890594918097358 0 0 1 1 0 0 forward_v I I I I #
coedge $-1 $334 $333 $326 $396 forward $223 $-1 #
coedge $-1 $326 $225 $227 $330 reversed $139 $-1 #
coedge $-1 $225 $325 $324 $396 reversed $139 $-1 #
coedge $-1 $233 $228 $225 $328 forward $234 $-1 #
edge $-1 $331 -20.875553149554676 $397 -2.031263490057043 $327 $398 forward 7 unknown #
coedge $-1 $227 $226 $334 $399 reversed $87 $-1 #
edge $-1 $400 0 $331 22.220779507740993 $325 $401 forward 7 unknown #
vertex $-1 $229 $402 #
straight-curve $-1 -49.047186520805724 -4.0004823387762922 15.890594918097356 0 1 0 I I #
coedge $-1 $324 $230 $233 $338 reversed $223 $-1 #
coedge $-1 $230 $324 $329 $399 forward $223 $-1 #
vertex $-1 $231 $403 #
straight-curve $-1 -67.891476180303357 -15.273357685577544 59.632924640714201 0 0 1 I I #
straight-curve $-1 -67.891476180303357 -15.273357685577544 4.1153756351883288 -0.84804809178421925 0 -0.52991927123019833 I I #
edge $-1 $397 0.72857166952762498 $235 15.273357685577544 $333 $404 forward 7 unknown #
point $-1 -67.891476180303357 -15.273357685577544 15.890594918097358 #
point $-1 -49.047186520805724 -15.273357685577544 15.890594918097358 #
edge $-1 $405 1 $405 0 $238 $-1 forward 7 unknown #
vertex $-1 $239 $406 #
ellipse-curve $-1 -56.825832830107224 -11.11770453813471 7.3728378942312922 -0.52991927123019833 0 0.84804809178421925 1.6960961835684385 0 1.0598385424603967 1 I I #
point $-1 -56.773235166986119 -11.11770453813471 11.062823819103247 #
edge $-1 $407 1 $407 0 $242 $-1 forward 7 unknown #
vertex $-1 $243 $408 #
ellipse-curve $-1 -56.825832830107224 -4.884224816970459 7.3728378942312922 -0.52991927123019833 0 0.84804809178421925 1.6960961835684385 0 1.0598385424603967 1 I I #
point $-1 -56.773235166986119 -4.884224816970459 11.062823819103247 #
plane-surface $-1 67.891476180303357 0 0 -1 0 0 0 0 1 forward_v I I I I #
coedge $-1 $251 $249 $253 $354 reversed $161 $-1 #
edge $-1 $264 -15.890594918097358 $356 15.890594918097358 $263 $409 forward 7 unknown #
vertex $-1 $354 $410 #
straight-curve $-1 -67.891476180303357 -32.093832166205175 0 0 0 -1 I I #
edge $-1 $352 -32.093832166205175 $356 32.093832166205175 $350 $411 forward 7 unknown #
straight-curve $-1 0 -32.093832166205175 -15.890594918097358 -1 0 0 I I #
vertex $-1 $256 $412 #
straight-curve $-1 0 32.093832166205175 -15.890594918097358 1 0 0 I I #
point $-1 67.891476180303357 32.093832166205175 -15.890594918097358 #
point $-1 67.891476180303357 -32.093832166205175 -15.890594918097358 #
straight-curve $-1 -67.891476180303357 0 15.890594918097358 0 -1 0 I I #
point $-1 -67.891476180303357 32.093832166205175 15.890594918097358 #
point $-1 -67.891476180303357 -32.093832166205175 15.890594918097358 #
straight-curve $-1 67.891476180303357 -32.093832166205175 0 0 0 -1 I I #
straight-curve $-1 67.891476180303357 32.093832166205175 0 0 0 -1 I I #
plane-surface $-1 67.891476180303357 0 0 -1 0 0 0 0 1 forward_v I I I I #
coedge $-1 $369 $276 $287 $378 forward $180 $-1 #
coedge $-1 $276 $369 $290 $380 reversed $180 $-1 #
straight-curve $-1 67.891476180303357 -20.653185773900979 2.038865388080727 0 0 1 I I #
coedge $-1 $367 $366 $279 $370 forward $180 $-1 #
edge $-1 $373 7.4664312888744409 $371 18.907077681178635 $369 $413 forward 7 unknown #
vertex $-1 $281 $414 #
straight-curve $-1 0 -32.093832166205175 -0.66248407496750428 1 0 0 I I #
vertex $-1 $370 $415 #
straight-curve $-1 0 -20.653185773900979 -0.66248407496750428 1 0 0 I I #
point $-1 67.891476180303357 -32.093832166205175 -0.66248407496750428 #
point $-1 67.891476180303357 -20.653185773900979 -0.66248407496750428 #
straight-curve $-1 -67.891476180303357 -13.186754485026539 8.8179456272904133 0 1 0 I I #
edge $-1 $288 -6.7790802392096863 $373 2.7013494630482313 $366 $416 forward 7 unknown #
point $-1 -67.891476180303357 -20.653185773900979 8.8179456272904133 #
edge $-1 $292 -8.8179456272904133 $371 0.66248407496750428 $367 $417 forward 7 unknown #
point $-1 -67.891476180303357 -32.093832166205175 8.8179456272904133 #
straight-curve $-1 67.891476180303357 -32.093832166205175 0 0 0 -1 I I #
edge $-1 $384 -55.543973333062993 $387 -36.699683673565374 $298 $418 forward 7 unknown #
vertex $-1 $383 $419 #
straight-curve $-1 67.891476180303357 -0.72857166952762498 95.609926220922929 0 0 1 I I #
edge $-1 $387 -3.2719106692486672 $309 11.272875346801252 $308 $420 forward 7 unknown #
vertex $-1 $386 $421 #
straight-curve $-1 -47.258997465936716 -0.72857166952762498 76.069378795605786 0.84804809178421925 0 -0.52991927123019833 I I #
point $-1 67.891476180303357 -0.72857166952762498 4.115375635188343 #
point $-1 49.047186520805738 -15.273357685577544 15.890594918097356 #
straight-curve $-1 67.891476180303357 0 15.890594918097358 0 1 0 I I #
vertex $-1 $315 $422 #
point $-1 58.521929013675653 -11.11770453813471 6.3129993517708876 #
vertex $-1 $319 $423 #
point $-1 58.521929013675653 -4.884224816970459 6.3129993517708876 #
edge $-1 $397 43.742329722616844 $400 55.517549005525872 $324 $424 forward 7 unknown #
vertex $-1 $338 $425 #
straight-curve $-1 -69.9227396703604 -0.72857166952762498 15.890594918097356 -1 0 0 I I #
edge $-1 $400 -3.2719106692486672 $335 11.272875346801252 $334 $426 forward 7 unknown #
vertex $-1 $399 $427 #
straight-curve $-1 -67.891476180303357 -0.72857166952762498 4.1153756351883288 0.84804809178421925 0 0.52991927123019833 I I #
point $-1 -49.047186520805724 -0.72857166952762498 15.890594918097358 #
point $-1 -67.891476180303357 -15.273357685577544 4.1153756351883288 #
straight-curve $-1 -67.891476180303357 0 15.890594918097358 0 -1 0 I I #
vertex $-1 $341 $428 #
point $-1 -55.129736646538788 -11.11770453813471 8.432676436691688 #
vertex $-1 $345 $429 #
point $-1 -55.129736646538788 -4.884224816970459 8.432676436691688 #
straight-curve $-1 -67.891476180303357 32.093832166205175 0 0 0 -1 I I #
point $-1 -67.891476180303357 -32.093832166205175 -15.890594918097358 #
straight-curve $-1 -67.891476180303357 0 -15.890594918097358 0 1 0 I I #
point $-1 -67.891476180303357 32.093832166205175 -15.890594918097358 #
straight-curve $-1 -67.891476180303357 -13.186754485026539 -0.66248407496750428 0 -1 0 I I #
point $-1 -67.891476180303357 -32.093832166205175 -0.66248407496750428 #
point $-1 -67.891476180303357 -20.653185773900979 -0.66248407496750428 #
straight-curve $-1 -67.891476180303357 -20.653185773900979 2.038865388080727 0 0 -1 I I #
straight-curve $-1 -67.891476180303357 -32.093832166205175 0 0 0 -1 I I #
straight-curve $-1 12.347502847240364 -0.72857166952762498 15.890594918097364 -1 0 0 I I #
point $-1 67.891476180303357 -0.72857166952762498 15.890594918097358 #
straight-curve $-1 49.047186520805766 -4.0004823387762922 15.890594918097356 0 -1 0 I I #
point $-1 49.047186520805738 -0.72857166952762498 15.890594918097356 #
point $-1 55.765994287646819 -11.11770453813471 5.6767417106628457 #
point $-1 55.765994287646819 -4.884224816970459 5.6767417106628457 #
straight-curve $-1 -67.891476180303357 -0.72857166952762498 59.632924640714201 0 0 -1 I I #
point $-1 -67.891476180303357 -0.72857166952762498 15.890594918097358 #
straight-curve $-1 -67.891476180303357 -4.0004823387762922 4.1153756351883262 0 -1 0 I I #
point $-1 -67.891476180303357 -0.72857166952762498 4.1153756351883288 #
point $-1 -55.765994287646826 -11.11770453813471 5.6767417106628528 #
point $-1 -55.765994287646826 -4.884224816970459 5.6767417106628528 #
End-of-ACIS-data 