500 0 6 0           
7 Unknown 11 ACIS 5.0 NT 24 Fri Mar 26 16:47:29 1999 
-1 9.9999999999999995e-007 1e-010 
body $-1 $6 $-1 $7 #
body $-1 $8 $-1 $9 #
body $-1 $10 $-1 $11 #
body $-1 $12 $-1 $13 #
body $-1 $14 $-1 $15 #
body $-1 $16 $-1 $17 #
lump $-1 $-1 $18 $0 #
transform $-1 1 0 0 0 1 0 0 0 1 60.84414197210608 26.717424614748108 7.9444527496833777 1 rotate no_reflect no_shear #
lump $-1 $-1 $19 $1 #
transform $-1 1 0 0 0 1 0 0 0 1 60.84414197210608 26.717424614748108 7.9444527496833777 1 rotate no_reflect no_shear #
lump $-1 $-1 $20 $2 #
transform $-1 1 0 0 0 1 0 0 0 1 60.84414197210608 26.717424614748108 7.9444527496833777 1 rotate no_reflect no_shear #
lump $-1 $-1 $21 $3 #
transform $-1 1 0 0 0 1 0 0 0 1 60.84414197210608 26.717424614748108 7.9444527496833777 1 rotate no_reflect no_shear #
lump $-1 $-1 $22 $4 #
transform $-1 1 0 0 0 1 0 0 0 1 60.84414197210608 26.717424614748108 7.9444527496833777 1 rotate no_reflect no_shear #
lump $-1 $-1 $23 $5 #
transform $-1 1 0 0 0 1 0 0 0 1 60.84414197210608 26.717424614748108 7.9444527496833777 1 rotate no_reflect no_shear #
shell $-1 $-1 $-1 $24 $-1 $6 #
shell $-1 $-1 $-1 $25 $-1 $8 #
shell $-1 $-1 $-1 $26 $-1 $10 #
shell $-1 $-1 $-1 $27 $-1 $12 #
shell $-1 $-1 $-1 $28 $-1 $14 #
shell $-1 $-1 $-1 $29 $-1 $16 #
face $-1 $30 $31 $18 $-1 $32 forward single #
face $-1 $33 $34 $19 $-1 $35 reversed single #
face $-1 $36 $37 $20 $-1 $38 reversed single #
face $-1 $39 $40 $21 $-1 $41 forward single #
face $-1 $42 $43 $22 $-1 $44 reversed single #
face $-1 $45 $46 $23 $-1 $47 forward single #
face $-1 $48 $49 $18 $-1 $50 reversed single #
loop $-1 $-1 $51 $24 #
plane-surface $-1 0 0 7.9444527496833777 0 0 1 1 0 0 forward_v I I I I #
face $-1 $52 $53 $19 $-1 $54 reversed single #
loop $-1 $-1 $55 $25 #
plane-surface $-1 -54.390843514927276 -24.025186878933059 0 1 0 0 0 0 -1 forward_v I I I I #
face $-1 $56 $57 $20 $-1 $58 reversed single #
loop $-1 $-1 $59 $26 #
plane-surface $-1 -148.37936885066836 -0.48371539699406085 85.434300909771792 0 1 0 -0.71933980857756763 0 0.69465836192734942 forward_v I I I I #
face $-1 $60 $61 $21 $-1 $62 forward single #
loop $-1 $63 $64 $27 #
cone-surface $-1 -56.450886912898817 3.5020754261167149 3.4644632482027111 0.71933980857756763 0 -0.69465836192734942 1.0419875428910241 0 1.0790097128663514 1 I I 0 1 1.5 forward I I I I #
face $-1 $65 $66 $22 $-1 $67 reversed single #
loop $-1 $-1 $68 $28 #
plane-surface $-1 84.794891596259191 8.586278915270892 175.02033762140044 0 -1 0 -0.79863551827123203 0 -0.60181501223851219 forward_v I I I I #
face $-1 $69 $70 $23 $-1 $71 forward single #
loop $-1 $72 $73 $29 #
cone-surface $-1 59.007758842200701 3.2373051589643431 5.838389603549607 -0.79863551827123203 0 -0.60181501223851219 0.3009075061192561 0 -0.39931775913561601 1 I I 0 1 0.5 forward I I I I #
face $-1 $74 $75 $18 $-1 $76 reversed single #
loop $-1 $-1 $77 $30 #
plane-surface $-1 0 0 -7.9444527496833777 0 0 1 1 0 0 forward_v I I I I #
coedge $-1 $78 $79 $80 $81 forward $31 $-1 #
face $-1 $82 $83 $19 $-1 $84 reversed single #
loop $-1 $-1 $85 $33 #
plane-surface $-1 -52.523738312130661 -21.332949143118011 0 0 -1 0 0 0 -1 forward_v I I I I #
coedge $-1 $86 $87 $88 $89 forward $34 $-1 #
face $-1 $90 $91 $20 $-1 $92 reversed single #
loop $-1 $-1 $93 $36 #
plane-surface $-1 -60.844141972106087 3.5020754261167113 0.90251691933519851 -0.71933980857756763 0 0.69465836192734942 0.69465836192734942 0 0.71933980857756763 forward_v I I I I #
coedge $-1 $94 $95 $96 $97 reversed $37 $-1 #
face $-1 $-1 $98 $21 $-1 $99 forward single #
loop $-1 $100 $101 $39 #
cone-surface $-1 -54.918286108694303 3.5020754261167149 1.9844478904506255 0.71933980857756763 0 -0.69465836192734942 0.52099377144551207 0 0.53950485643317569 1 I I -0.70710678118654757 0.70710678118654757 0.75 forward I I I I #
loop $-1 $-1 $102 $27 #
coedge $-1 $64 $64 $103 $104 reversed $40 $-1 #
face $-1 $105 $106 $22 $-1 $107 reversed single #
loop $-1 $-1 $108 $42 #
plane-surface $-1 -12.389694119063535 3.2373051589643431 101.78650153023085 0.79863551827123203 0 0.60181501223851219 0.60181501223851219 0 -0.79863551827123203 forward_v I I I I #
coedge $-1 $109 $110 $111 $112 reversed $43 $-1 #
face $-1 $-1 $113 $23 $-1 $114 forward single #
loop $-1 $115 $116 $45 #
cone-surface $-1 58.231107919329737 3.2373051589643431 5.2531411717438212 -0.79863551827123203 0 -0.60181501223851219 0.15045375305962805 0 -0.19965887956780801 1 I I -0.70710678118654746 0.70710678118654746 0.25 forward I I I I #
loop $-1 $-1 $117 $29 #
coedge $-1 $73 $73 $118 $119 reversed $46 $-1 #
face $-1 $120 $121 $18 $-1 $122 reversed single #
loop $-1 $-1 $123 $48 #
plane-surface $-1 0 -26.717424614748108 0 0 1 0 0 0 1 forward_v I I I I #
coedge $-1 $124 $125 $126 $127 forward $49 $-1 #
coedge $-1 $128 $51 $129 $130 forward $31 $-1 #
coedge $-1 $51 $128 $131 $132 forward $31 $-1 #
coedge $-1 $133 $134 $51 $81 reversed $135 $-1 #
edge $-1 $136 -26.717424614748108 $137 26.717424614748108 $80 $138 forward 7 unknown #
face $-1 $139 $140 $19 $-1 $141 forward single #
loop $-1 $-1 $142 $52 #
plane-surface $-1 -50.656633109334045 -24.025186878933059 0 -1 0 0 0 0 1 forward_v I I I I #
coedge $-1 $143 $144 $145 $146 forward $53 $-1 #
coedge $-1 $147 $55 $148 $149 reversed $34 $-1 #
coedge $-1 $55 $147 $150 $151 reversed $34 $-1 #
coedge $-1 $144 $143 $55 $89 reversed $53 $-1 #
edge $-1 $152 -7.9444527496833777 $153 7.9444527496833777 $88 $154 forward 7 unknown #
face $-1 $155 $156 $20 $-1 $157 reversed single #
loop $-1 $-1 $158 $56 #
plane-surface $-1 -148.37936885066836 7.4878662492274835 85.434300909771792 0 -1 0 0.71933980857756763 0 -0.69465836192734942 forward_v I I I I #
coedge $-1 $159 $160 $161 $162 reversed $57 $-1 #
coedge $-1 $95 $59 $163 $164 reversed $37 $-1 #
coedge $-1 $59 $94 $159 $165 reversed $37 $-1 #
coedge $-1 $161 $166 $59 $97 forward $167 $-1 #
edge $-1 $168 13.345542453228099 $169 20.145860676099936 $96 $170 forward 7 unknown #
loop $-1 $-1 $103 $60 #
plane-surface $-1 -60.844141972106087 3.5020754261167113 0.90251691933519851 -0.71933980857756763 0 0.69465836192734942 0.69465836192734942 0 0.71933980857756763 forward_v I I I I #
loop $-1 $-1 $171 $39 #
coedge $-1 $101 $101 $102 $172 reversed $61 $-1 #
coedge $-1 $102 $102 $101 $172 forward $63 $-1 #
coedge $-1 $103 $103 $64 $104 forward $98 $-1 #
edge $-1 $173 0 $173 6.2831853071796004 $103 $174 forward 7 unknown #
face $-1 $175 $176 $22 $-1 $177 forward single #
loop $-1 $-1 $178 $65 #
plane-surface $-1 84.794891596259191 -2.1116685973422058 175.02033762140044 0 1 0 0.79863551827123203 0 0.60181501223851219 forward_v I I I I #
coedge $-1 $179 $180 $181 $182 reversed $66 $-1 #
coedge $-1 $110 $68 $183 $184 reversed $43 $-1 #
coedge $-1 $68 $109 $179 $185 reversed $43 $-1 #
coedge $-1 $181 $186 $68 $112 forward $176 $-1 #
edge $-1 $187 -18.446696173976484 $188 -15.927914000772049 $111 $189 forward 7 unknown #
loop $-1 $-1 $118 $69 #
plane-surface $-1 -12.389694119063535 3.2373051589643431 101.78650153023085 0.79863551827123203 0 0.60181501223851219 0.60181501223851219 0 -0.79863551827123203 forward_v I I I I #
loop $-1 $-1 $190 $45 #
coedge $-1 $116 $116 $117 $191 reversed $70 $-1 #
coedge $-1 $117 $117 $116 $191 forward $72 $-1 #
coedge $-1 $118 $118 $73 $119 forward $113 $-1 #
edge $-1 $192 0 $192 6.2831853071796004 $118 $193 forward 7 unknown #
face $-1 $194 $195 $18 $-1 $196 reversed single #
loop $-1 $-1 $197 $74 #
plane-surface $-1 -60.84414197210608 0 0 1 0 0 0 0 -1 forward_v I I I I #
coedge $-1 $198 $131 $199 $200 forward $75 $-1 #
coedge $-1 $201 $77 $198 $202 forward $49 $-1 #
coedge $-1 $77 $201 $203 $204 forward $49 $-1 #
coedge $-1 $134 $133 $77 $127 reversed $135 $-1 #
edge $-1 $205 -26.717424614748108 $206 26.717424614748108 $126 $207 forward 7 unknown #
coedge $-1 $79 $78 $208 $209 forward $31 $-1 #
coedge $-1 $210 $211 $78 $130 reversed $195 $-1 #
edge $-1 $137 -60.84414197210608 $212 60.84414197210608 $129 $213 forward 7 unknown #
coedge $-1 $123 $214 $79 $132 reversed $75 $-1 #
edge $-1 $215 -60.84414197210608 $136 60.84414197210608 $131 $216 forward 7 unknown #
coedge $-1 $126 $80 $214 $217 forward $135 $-1 #
coedge $-1 $80 $126 $210 $218 reversed $135 $-1 #
loop $-1 $-1 $133 $194 #
vertex $-1 $81 $219 #
vertex $-1 $81 $220 #
straight-curve $-1 60.84414197210608 0 7.9444527496833777 0 1 0 I I #
face $-1 $221 $222 $19 $-1 $223 reversed single #
loop $-1 $-1 $224 $82 #
plane-surface $-1 0 0 7.9444527496833777 0 0 1 1 0 0 forward_v I I I I #
coedge $-1 $225 $226 $227 $228 reversed $83 $-1 #
coedge $-1 $88 $85 $229 $230 reversed $53 $-1 #
coedge $-1 $85 $88 $231 $232 reversed $53 $-1 #
coedge $-1 $226 $225 $85 $146 reversed $83 $-1 #
edge $-1 $233 -7.9444527496833777 $234 7.9444527496833777 $145 $235 forward 7 unknown #
coedge $-1 $87 $86 $236 $237 reversed $34 $-1 #
coedge $-1 $229 $238 $86 $149 forward $222 $-1 #
edge $-1 $239 -14.704831175281578 $153 -9.3203557036514812 $148 $240 forward 7 unknown #
coedge $-1 $241 $231 $87 $151 forward $140 $-1 #
edge $-1 $152 9.3203557036514812 $242 14.704831175281578 $150 $243 forward 7 unknown #
vertex $-1 $151 $244 #
vertex $-1 $149 $245 #
straight-curve $-1 -54.390843514927276 -21.332949143118011 0 0 0 -1 I I #
face $-1 $-1 $167 $20 $-1 $246 forward single #
loop $-1 $-1 $247 $90 #
plane-surface $-1 -60.84414197210608 0 0 1 0 0 0 0 -1 forward_v I I I I #
coedge $-1 $248 $249 $250 $251 reversed $91 $-1 #
coedge $-1 $252 $93 $95 $165 forward $57 $-1 #
coedge $-1 $93 $252 $248 $253 forward $57 $-1 #
coedge $-1 $250 $96 $93 $162 forward $167 $-1 #
edge $-1 $169 -2.2347531100524165 $254 5.7368285361691278 $161 $255 forward 7 unknown #
coedge $-1 $256 $257 $94 $164 forward $156 $-1 #
edge $-1 $258 -41.814633535550691 $168 -34.772697705202518 $163 $259 forward 7 unknown #
edge $-1 $169 -9.7894426895030335 $258 -1.0206786807905858e-014 $95 $260 forward 7 unknown #
coedge $-1 $96 $250 $256 $261 forward $167 $-1 #
loop $-1 $-1 $250 $155 #
vertex $-1 $164 $262 #
vertex $-1 $97 $263 #
straight-curve $-1 -74.189684425334178 -0.48371539699406085 7.9444527496833786 1 0 0 I I #
coedge $-1 $171 $171 $-1 $264 reversed $100 $-1 #
edge $-1 $265 0 $265 6.2831853071796004 $101 $266 forward 7 unknown #
vertex $-1 $104 $267 #
ellipse-curve $-1 -57.443982860670161 3.5020754261167149 4.4234848345092921 -0.71933980857756763 0 0.69465836192734942 1.0419875428910241 0 1.0790097128663514 1 I I #
face $-1 $-1 $268 $22 $-1 $269 reversed single #
loop $-1 $-1 $111 $105 #
plane-surface $-1 0 0 7.9444527496833777 0 0 1 1 0 0 forward_v I I I I #
coedge $-1 $270 $271 $272 $273 reversed $106 $-1 #
coedge $-1 $274 $108 $110 $185 forward $66 $-1 #
coedge $-1 $108 $274 $270 $275 forward $66 $-1 #
coedge $-1 $272 $111 $108 $182 forward $176 $-1 #
edge $-1 $188 -6.9676263357887205 $276 3.7303211768243774 $181 $277 forward 7 unknown #
coedge $-1 $278 $279 $109 $184 forward $268 $-1 #
edge $-1 $280 -82.908252995792139 $187 -79.565716061016843 $183 $281 forward 7 unknown #
edge $-1 $188 117.50297430257403 $280 121.6882839442122 $110 $282 forward 7 unknown #
coedge $-1 $111 $272 $278 $283 forward $176 $-1 #
vertex $-1 $184 $284 #
vertex $-1 $112 $285 #
straight-curve $-1 42.397445798129596 8.586278915270892 7.9444527496833786 -1 0 0 I I #
coedge $-1 $190 $190 $-1 $286 reversed $115 $-1 #
edge $-1 $287 0 $287 6.2831853071796004 $116 $288 forward 7 unknown #
vertex $-1 $119 $289 #
ellipse-curve $-1 59.584750885503844 3.2373051589643431 6.2731842822957571 0.79863551827123203 0 0.60181501223851219 0.3009075061192561 0 -0.39931775913561601 1 I I #
face $-1 $-1 $135 $18 $-1 $290 reversed single #
loop $-1 $-1 $210 $120 #
plane-surface $-1 0 26.717424614748108 0 0 -1 0 0 0 -1 forward_v I I I I #
coedge $-1 $291 $208 $211 $292 forward $121 $-1 #
coedge $-1 $214 $123 $124 $202 reversed $75 $-1 #
coedge $-1 $208 $291 $123 $200 reversed $121 $-1 #
edge $-1 $215 -7.9444527496833777 $293 7.9444527496833777 $199 $294 forward 7 unknown #
coedge $-1 $125 $124 $291 $295 forward $49 $-1 #
edge $-1 $206 -60.84414197210608 $293 60.84414197210608 $198 $296 forward 7 unknown #
coedge $-1 $211 $210 $125 $204 reversed $195 $-1 #
edge $-1 $297 -60.84414197210608 $205 60.84414197210608 $203 $298 forward 7 unknown #
vertex $-1 $127 $299 #
vertex $-1 $217 $300 #
straight-curve $-1 60.84414197210608 0 -7.9444527496833777 0 -1 0 I I #
coedge $-1 $197 $199 $128 $209 reversed $121 $-1 #
edge $-1 $212 -26.717424614748108 $215 26.717424614748108 $208 $301 forward 7 unknown #
coedge $-1 $203 $129 $134 $218 forward $195 $-1 #
coedge $-1 $129 $203 $197 $292 reversed $195 $-1 #
vertex $-1 $130 $302 #
straight-curve $-1 0 26.717424614748108 7.9444527496833777 -1 0 0 I I #
coedge $-1 $131 $198 $133 $217 reversed $75 $-1 #
vertex $-1 $209 $303 #
straight-curve $-1 0 -26.717424614748108 7.9444527496833777 1 0 0 I I #
edge $-1 $136 -7.9444527496833777 $206 7.9444527496833777 $133 $304 forward 7 unknown #
edge $-1 $137 -7.9444527496833777 $205 7.9444527496833777 $134 $305 forward 7 unknown #
point $-1 60.84414197210608 -26.717424614748108 7.9444527496833777 #
point $-1 60.84414197210608 26.717424614748108 7.9444527496833777 #
face $-1 $-1 $306 $19 $-1 $307 reversed single #
loop $-1 $-1 $308 $139 #
plane-surface $-1 0 0 -7.9444527496833777 0 0 1 1 0 0 forward_v I I I I #
coedge $-1 $231 $241 $226 $309 forward $140 $-1 #
coedge $-1 $145 $142 $308 $310 reversed $83 $-1 #
coedge $-1 $142 $145 $224 $309 reversed $83 $-1 #
coedge $-1 $311 $312 $142 $228 forward $306 $-1 #
edge $-1 $313 -7.9444527496833777 $314 7.9444527496833777 $227 $315 forward 7 unknown #
coedge $-1 $308 $148 $143 $230 forward $222 $-1 #
edge $-1 $153 -28.128974358861946 $234 -24.394763953268715 $229 $316 forward 7 unknown #
coedge $-1 $150 $224 $144 $232 forward $140 $-1 #
edge $-1 $233 24.394763953268715 $152 28.128974358861946 $231 $317 forward 7 unknown #
vertex $-1 $232 $318 #
vertex $-1 $230 $319 #
straight-curve $-1 -50.656633109334045 -21.332949143118011 0 0 0 -1 I I #
coedge $-1 $312 $311 $147 $237 forward $306 $-1 #
edge $-1 $242 -7.9444527496833777 $239 7.9444527496833777 $236 $320 forward 7 unknown #
coedge $-1 $148 $308 $312 $321 forward $222 $-1 #
vertex $-1 $149 $322 #
straight-curve $-1 -54.390843514927276 -12.01259343946653 -7.9444527496833777 0 1 0 I I #
coedge $-1 $224 $150 $311 $323 forward $140 $-1 #
vertex $-1 $323 $324 #
straight-curve $-1 -54.390843514927276 -12.01259343946653 7.9444527496833777 0 -1 0 I I #
point $-1 -54.390843514927276 -21.332949143118011 7.9444527496833777 #
point $-1 -54.390843514927276 -21.332949143118011 -7.9444527496833777 #
plane-surface $-1 0 0 7.9444527496833777 0 0 1 1 0 0 forward_v I I I I #
coedge $-1 $257 $256 $249 $325 forward $156 $-1 #
coedge $-1 $249 $158 $160 $253 reversed $91 $-1 #
coedge $-1 $158 $248 $247 $325 reversed $91 $-1 #
coedge $-1 $166 $161 $158 $251 forward $167 $-1 #
edge $-1 $254 -20.145860676099936 $326 -13.345542453228099 $250 $327 forward 7 unknown #
coedge $-1 $160 $159 $257 $328 reversed $57 $-1 #
edge $-1 $329 1.0206786807905858e-014 $254 9.7894426895030335 $248 $330 forward 7 unknown #
vertex $-1 $162 $331 #
straight-curve $-1 -54.043823749234249 1.7510377130583556 7.9444527496833786 0 1 0 I I #
coedge $-1 $247 $163 $166 $261 reversed $156 $-1 #
coedge $-1 $163 $247 $252 $328 forward $156 $-1 #
vertex $-1 $164 $332 #
straight-curve $-1 -60.84414197210608 -0.48371539699406085 42.717150454885896 0 0 1 I I #
straight-curve $-1 -60.844141972106087 -0.48371539699406085 0.90251691933519851 -0.69465836192734942 0 -0.71933980857756763 I I #
edge $-1 $326 -7.4878662492274835 $168 0.48371539699406085 $256 $333 forward 7 unknown #
point $-1 -60.84414197210608 -0.48371539699406085 7.9444527496833777 #
point $-1 -54.043823749234242 -0.48371539699406085 7.9444527496833786 #
edge $-1 $334 1 $334 0 $171 $-1 forward 7 unknown #
vertex $-1 $172 $335 #
ellipse-curve $-1 -55.457790965127479 3.5020754261167149 2.5054416618961377 -0.71933980857756763 0 0.69465836192734942 1.0419875428910241 0 1.0790097128663514 1 I I #
point $-1 -56.401995317779132 3.5020754261167149 5.5024945473756368 #
loop $-1 $-1 $183 $175 #
plane-surface $-1 60.84414197210608 0 0 -1 0 0 0 0 1 forward_v I I I I #
coedge $-1 $271 $178 $180 $275 reversed $106 $-1 #
coedge $-1 $178 $270 $336 $337 reversed $106 $-1 #
coedge $-1 $186 $181 $178 $273 forward $176 $-1 #
edge $-1 $276 15.927914000772049 $338 18.446696173976484 $272 $339 forward 7 unknown #
coedge $-1 $180 $179 $279 $340 reversed $66 $-1 #
edge $-1 $341 -121.6882839442122 $276 -117.50297430257403 $270 $342 forward 7 unknown #
vertex $-1 $182 $343 #
straight-curve $-1 58.32535979890163 1.6186525794821716 7.9444527496833786 0 -1 0 I I #
coedge $-1 $336 $183 $186 $283 reversed $268 $-1 #
coedge $-1 $183 $336 $274 $340 forward $268 $-1 #
vertex $-1 $184 $344 #
straight-curve $-1 60.84414197210608 8.586278915270892 87.510168810700222 0 0 1 I I #
straight-curve $-1 -12.389694119063535 8.586278915270892 101.78650153023085 0.60181501223851219 0 -0.79863551827123203 I I #
edge $-1 $338 -2.1116685973422058 $187 8.586278915270892 $278 $345 forward 7 unknown #
point $-1 60.84414197210608 8.586278915270892 7.9444527496833777 #
point $-1 58.325359798901644 8.586278915270892 7.9444527496833786 #
edge $-1 $346 1 $346 0 $190 $-1 forward 7 unknown #
vertex $-1 $191 $347 #
ellipse-curve $-1 58.430766798897544 3.2373051589643431 5.4035949248034489 0.79863551827123203 0 0.60181501223851219 0.3009075061192561 0 -0.39931775913561601 1 I I #
point $-1 59.88565839162311 3.2373051589643431 5.8738665231601486 #
plane-surface $-1 60.84414197210608 0 0 -1 0 0 0 0 1 forward_v I I I I #
coedge $-1 $199 $197 $201 $295 reversed $121 $-1 #
edge $-1 $212 -7.9444527496833777 $297 7.9444527496833777 $211 $348 forward 7 unknown #
vertex $-1 $295 $349 #
straight-curve $-1 -60.84414197210608 -26.717424614748108 0 0 0 -1 I I #
edge $-1 $293 -26.717424614748108 $297 26.717424614748108 $291 $350 forward 7 unknown #
straight-curve $-1 0 -26.717424614748108 -7.9444527496833777 -1 0 0 I I #
vertex $-1 $204 $351 #
straight-curve $-1 0 26.717424614748108 -7.9444527496833777 1 0 0 I I #
point $-1 60.84414197210608 26.717424614748108 -7.9444527496833777 #
point $-1 60.84414197210608 -26.717424614748108 -7.9444527496833777 #
straight-curve $-1 -60.84414197210608 0 7.9444527496833777 0 -1 0 I I #
point $-1 -60.84414197210608 26.717424614748108 7.9444527496833777 #
point $-1 -60.84414197210608 -26.717424614748108 7.9444527496833777 #
straight-curve $-1 60.84414197210608 -26.717424614748108 0 0 0 -1 I I #
straight-curve $-1 60.84414197210608 26.717424614748108 0 0 0 -1 I I #
loop $-1 $-1 $227 $221 #
plane-surface $-1 0 -26.717424614748108 0 0 1 0 0 0 1 forward_v I I I I #
coedge $-1 $238 $229 $225 $310 forward $222 $-1 #
edge $-1 $314 -14.704831175281578 $233 -9.3203557036514812 $224 $352 forward 7 unknown #
edge $-1 $234 9.3203557036514812 $313 14.704831175281578 $308 $353 forward 7 unknown #
coedge $-1 $236 $227 $241 $323 reversed $306 $-1 #
coedge $-1 $227 $236 $238 $321 reversed $306 $-1 #
vertex $-1 $321 $354 #
vertex $-1 $228 $355 #
straight-curve $-1 -50.656633109334045 -26.717424614748108 0 0 0 1 I I #
straight-curve $-1 -26.26186915606533 -21.332949143118011 -7.9444527496833777 1 0 0 I I #
straight-curve $-1 -26.26186915606533 -21.332949143118011 7.9444527496833777 -1 0 0 I I #
point $-1 -50.656633109334045 -21.332949143118011 7.9444527496833777 #
point $-1 -50.656633109334045 -21.332949143118011 -7.9444527496833777 #
straight-curve $-1 -54.390843514927276 -26.717424614748108 0 0 0 -1 I I #
edge $-1 $313 50.656633109334045 $239 54.390843514927276 $312 $356 forward 7 unknown #
point $-1 -54.390843514927276 -26.717424614748108 -7.9444527496833777 #
edge $-1 $242 -54.390843514927276 $314 -50.656633109334045 $311 $357 forward 7 unknown #
point $-1 -54.390843514927276 -26.717424614748108 7.9444527496833777 #
edge $-1 $326 34.772697705202518 $329 41.814633535550691 $247 $358 forward 7 unknown #
vertex $-1 $261 $359 #
straight-curve $-1 -74.189684425334178 7.4878662492274835 7.9444527496833786 -1 0 0 I I #
edge $-1 $329 -5.7368285361691278 $258 2.2347531100524165 $257 $360 forward 7 unknown #
vertex $-1 $328 $361 #
straight-curve $-1 -60.844141972106087 7.4878662492274835 0.90251691933519851 0.69465836192734942 0 0.71933980857756763 I I #
point $-1 -54.043823749234242 7.4878662492274835 7.9444527496833786 #
point $-1 -60.84414197210608 -0.48371539699406085 0.90251691933520584 #
straight-curve $-1 -60.84414197210608 0 7.9444527496833777 0 -1 0 I I #
vertex $-1 $264 $362 #
point $-1 -54.415803422236458 3.5020754261167149 3.5844513747624891 #
coedge $-1 $279 $278 $271 $337 forward $268 $-1 #
edge $-1 $338 79.565716061016843 $341 82.908252995792139 $336 $363 forward 7 unknown #
vertex $-1 $283 $364 #
straight-curve $-1 42.397445798129596 -2.1116685973422058 7.9444527496833786 1 0 0 I I #
edge $-1 $341 -3.7303211768243774 $280 6.9676263357887205 $279 $365 forward 7 unknown #
vertex $-1 $340 $366 #
straight-curve $-1 -12.389694119063535 -2.1116685973422058 101.78650153023085 -0.60181501223851219 0 0.79863551827123203 I I #
point $-1 58.325359798901644 -2.1116685973422058 7.9444527496833786 #
point $-1 60.844141972106087 8.586278915270892 4.6019158149080823 #
straight-curve $-1 60.84414197210608 0 7.9444527496833777 0 1 0 I I #
vertex $-1 $286 $367 #
point $-1 58.731674305016803 3.2373051589643431 5.0042771656678333 #
straight-curve $-1 -60.84414197210608 26.717424614748108 0 0 0 -1 I I #
point $-1 -60.84414197210608 -26.717424614748108 -7.9444527496833777 #
straight-curve $-1 -60.84414197210608 0 -7.9444527496833777 0 1 0 I I #
point $-1 -60.84414197210608 26.717424614748108 -7.9444527496833777 #
straight-curve $-1 -50.656633109334045 -12.01259343946653 7.9444527496833777 0 1 0 I I #
straight-curve $-1 -50.656633109334045 -12.01259343946653 -7.9444527496833777 0 -1 0 I I #
point $-1 -50.656633109334045 -26.717424614748108 -7.9444527496833777 #
point $-1 -50.656633109334045 -26.717424614748108 7.9444527496833777 #
straight-curve $-1 0 -26.717424614748108 -7.9444527496833777 -1 0 0 I I #
straight-curve $-1 0 -26.717424614748108 7.9444527496833777 1 0 0 I I #
straight-curve $-1 -60.84414197210608 7.4878662492274835 42.717150454885896 0 0 -1 I I #
point $-1 -60.84414197210608 7.4878662492274835 7.9444527496833777 #
straight-curve $-1 -60.84414197210608 1.7510377130583556 0.90251691933520839 0 -1 0 I I #
point $-1 -60.84414197210608 7.4878662492274835 0.90251691933520584 #
point $-1 -54.378781252261128 3.5020754261167149 1.4634541190051134 #
straight-curve $-1 60.84414197210608 -2.1116685973422058 87.510168810700222 0 0 -1 I I #
point $-1 60.84414197210608 -2.1116685973422058 7.9444527496833777 #
straight-curve $-1 60.844141972106073 1.6186525794821716 4.6019158149081036 0 1 0 I I #
point $-1 60.844141972106087 -2.1116685973422058 4.6019158149080823 #
point $-1 58.031449039761931 3.2373051589643431 5.1026874186841935 #
End-of-ACIS-data 