500 0 7 0           
7 Unknown 11 ACIS 5.0 NT 24 Thu Mar 25 22:08:10 1999 
-1 9.9999999999999995e-007 1e-010 
body $-1 $7 $-1 $8 #
body $-1 $9 $-1 $10 #
body $-1 $11 $-1 $12 #
body $-1 $13 $-1 $14 #
body $-1 $15 $-1 $16 #
body $-1 $17 $-1 $18 #
body $-1 $19 $-1 $20 #
lump $-1 $-1 $21 $0 #
transform $-1 1 0 0 0 1 0 0 0 1 69.617603076265766 31.148709225150828 10.461867259940638 1 rotate no_reflect no_shear #
lump $-1 $-1 $22 $1 #
transform $-1 1 0 0 0 1 0 0 0 1 69.617603076265766 31.148709225150828 10.461867259940638 1 rotate no_reflect no_shear #
lump $-1 $-1 $23 $2 #
transform $-1 1 0 0 0 1 0 0 0 1 69.617603076265766 31.148709225150828 10.461867259940638 1 rotate no_reflect no_shear #
lump $-1 $-1 $24 $3 #
transform $-1 1 0 0 0 1 0 0 0 1 69.617603076265766 31.148709225150828 10.461867259940638 1 rotate no_reflect no_shear #
lump $-1 $-1 $25 $4 #
transform $-1 1 0 0 0 1 0 0 0 1 69.617603076265766 31.148709225150828 10.461867259940638 1 rotate no_reflect no_shear #
lump $-1 $-1 $26 $5 #
transform $-1 1 0 0 0 1 0 0 0 1 69.617603076265766 31.148709225150828 10.461867259940638 1 rotate no_reflect no_shear #
lump $-1 $-1 $27 $6 #
transform $-1 1 0 0 0 1 0 0 0 1 69.617603076265766 31.148709225150828 10.461867259940638 1 rotate no_reflect no_shear #
shell $-1 $-1 $-1 $28 $-1 $7 #
shell $-1 $-1 $-1 $29 $-1 $9 #
shell $-1 $-1 $-1 $30 $-1 $11 #
shell $-1 $-1 $-1 $31 $-1 $13 #
shell $-1 $-1 $-1 $32 $-1 $15 #
shell $-1 $-1 $-1 $33 $-1 $17 #
shell $-1 $-1 $-1 $34 $-1 $19 #
face $-1 $35 $36 $21 $-1 $37 forward single #
face $-1 $38 $39 $22 $-1 $40 reversed single #
face $-1 $41 $42 $23 $-1 $43 forward single #
face $-1 $44 $45 $24 $-1 $46 forward single #
face $-1 $47 $48 $25 $-1 $49 reversed single #
face $-1 $50 $51 $26 $-1 $52 forward single #
face $-1 $53 $54 $27 $-1 $55 forward single #
face $-1 $56 $57 $21 $-1 $58 reversed single #
loop $-1 $-1 $59 $28 #
plane-surface $-1 0 0 10.461867259940638 0 0 1 1 0 0 forward_v I I I I #
face $-1 $60 $61 $22 $-1 $62 reversed single #
loop $-1 $-1 $63 $29 #
plane-surface $-1 21.822972923971967 49.460832958287554 155.63174747394399 1 0 0 0 -0.51503808176128008 -0.85716729658548041 forward_v I I I I #
face $-1 $64 $65 $23 $-1 $66 forward single #
loop $-1 $67 $68 $30 #
cone-surface $-1 32.308060367306567 24.311022772907577 4.624723786175748 0 -0.51503808176128008 -0.85716729658548041 2.5 0 0 1 I I 0 1 2.5 forward I I I I #
face $-1 $69 $70 $24 $-1 $71 forward single #
loop $-1 $72 $73 $31 #
cone-surface $-1 48.035691532308476 24.311022772907577 4.624723786175748 0 -0.51503808176128008 -0.85716729658548041 2.5 0 0 1 I I 0 1 2.5 forward I I I I #
face $-1 $74 $75 $25 $-1 $76 reversed single #
loop $-1 $-1 $77 $32 #
plane-surface $-1 -33.161154479029392 -104.93212819908676 118.25008331218099 -1 0 0 0 -0.52991927123019833 0.84804809178421925 forward_v I I I I #
face $-1 $78 $79 $26 $-1 $80 forward single #
loop $-1 $81 $82 $33 #
cone-surface $-1 -59.201474905626803 -22.16427153531286 4.1154185790266489 0 0.52991927123019833 -0.84804809178421925 2 0 0 1 I I 0 1 2 forward I I I I #
face $-1 $83 $84 $27 $-1 $85 forward single #
loop $-1 $86 $87 $34 #
cone-surface $-1 -43.577282649668355 -22.16427153531286 4.1154185790266489 0 0.52991927123019833 -0.84804809178421925 2 0 0 1 I I 0 1 2 forward I I I I #
face $-1 $88 $89 $21 $-1 $90 reversed single #
loop $-1 $-1 $91 $35 #
plane-surface $-1 0 0 -10.461867259940638 0 0 1 1 0 0 forward_v I I I I #
coedge $-1 $92 $93 $94 $95 forward $36 $-1 #
face $-1 $96 $97 $22 $-1 $98 reversed single #
loop $-1 $-1 $99 $38 #
plane-surface $-1 40.171875949807543 -22.250600532148667 36.283882226656488 0 0.51503808176128008 0.85716729658548041 1 0 0 forward_v I I I I #
coedge $-1 $100 $101 $102 $103 reversed $39 $-1 #
face $-1 $-1 $104 $23 $-1 $105 forward single #
loop $-1 $106 $107 $41 #
cone-surface $-1 32.308060367306567 22.041669135116837 0.84788515698265066 0 -0.51503808176128008 -0.85716729658548041 1.25 0 0 1 I I -0.70710678118654746 0.70710678118654746 1.25 forward I I I I #
loop $-1 $-1 $108 $30 #
coedge $-1 $68 $68 $109 $110 reversed $42 $-1 #
face $-1 $-1 $111 $24 $-1 $112 forward single #
loop $-1 $113 $114 $44 #
cone-surface $-1 48.035691532308476 22.041669135116837 0.84788515698265066 0 -0.51503808176128008 -0.85716729658548041 1.25 0 0 1 I I -0.70710678118654746 0.70710678118654746 1.25 forward I I I I #
loop $-1 $-1 $115 $31 #
coedge $-1 $73 $73 $116 $117 reversed $45 $-1 #
face $-1 $118 $119 $25 $-1 $120 forward single #
loop $-1 $-1 $121 $47 #
plane-surface $-1 -51.389378777647579 -31.148709225150824 0.17193242534423803 0 -0.52991927123019833 0.84804809178421925 1 0 0 forward_v I I I I #
coedge $-1 $122 $123 $124 $125 reversed $48 $-1 #
face $-1 $-1 $126 $26 $-1 $127 forward single #
loop $-1 $128 $129 $50 #
cone-surface $-1 -59.201474905626803 -20.88358343177212 2.0658892236266322 0 0.52991927123019833 -0.84804809178421925 1 0 0 1 I I -0.70710678118654746 0.70710678118654746 1 forward I I I I #
loop $-1 $-1 $130 $33 #
coedge $-1 $82 $82 $131 $132 reversed $51 $-1 #
face $-1 $-1 $133 $27 $-1 $134 forward single #
loop $-1 $135 $136 $53 #
cone-surface $-1 -43.577282649668355 -20.88358343177212 2.0658892236266322 0 0.52991927123019833 -0.84804809178421925 1 0 0 1 I I -0.70710678118654746 0.70710678118654746 1 forward I I I I #
loop $-1 $-1 $137 $34 #
coedge $-1 $87 $87 $138 $139 reversed $54 $-1 #
face $-1 $140 $141 $21 $-1 $142 reversed single #
loop $-1 $-1 $143 $56 #
plane-surface $-1 0 -31.148709225150828 0 0 1 0 0 0 1 forward_v I I I I #
coedge $-1 $144 $145 $146 $147 forward $57 $-1 #
coedge $-1 $148 $59 $149 $150 forward $36 $-1 #
coedge $-1 $59 $148 $151 $152 forward $36 $-1 #
coedge $-1 $153 $154 $59 $95 reversed $155 $-1 #
edge $-1 $156 -31.148709225150828 $157 31.148709225150828 $94 $158 forward 7 unknown #
face $-1 $159 $160 $22 $-1 $161 reversed single #
loop $-1 $-1 $162 $60 #
plane-surface $-1 58.520778975643118 49.460832958287554 155.63174747394399 -1 0 0 0 0.51503808176128008 0.85716729658548041 forward_v I I I I #
coedge $-1 $163 $164 $165 $166 reversed $61 $-1 #
coedge $-1 $101 $63 $167 $168 reversed $39 $-1 #
coedge $-1 $63 $100 $163 $169 reversed $39 $-1 #
coedge $-1 $165 $170 $63 $103 forward $171 $-1 #
edge $-1 $172 -6.4182927460070509 $173 4.0059680873011558 $102 $174 forward 7 unknown #
loop $-1 $-1 $109 $64 #
plane-surface $-1 40.171875949807543 -22.250600532148667 36.283882226656488 0 0.51503808176128008 0.85716729658548041 1 0 0 forward_v I I I I #
loop $-1 $-1 $175 $41 #
coedge $-1 $107 $107 $108 $176 reversed $65 $-1 #
coedge $-1 $108 $108 $107 $176 forward $67 $-1 #
coedge $-1 $109 $109 $68 $110 forward $104 $-1 #
edge $-1 $177 5.4893485145294112e-016 $177 6.2831853071796013 $109 $178 forward 7 unknown #
loop $-1 $-1 $116 $69 #
plane-surface $-1 40.171875949807543 -22.250600532148667 36.283882226656488 0 0.51503808176128008 0.85716729658548041 1 0 0 forward_v I I I I #
loop $-1 $-1 $179 $44 #
coedge $-1 $114 $114 $115 $180 reversed $70 $-1 #
coedge $-1 $115 $115 $114 $180 forward $72 $-1 #
coedge $-1 $116 $116 $73 $117 forward $111 $-1 #
edge $-1 $181 5.4893485145294112e-016 $181 6.2831853071796013 $116 $182 forward 7 unknown #
face $-1 $183 $184 $25 $-1 $185 reversed single #
loop $-1 $-1 $124 $74 #
plane-surface $-1 0 0 10.461867259940638 0 0 1 1 0 0 forward_v I I I I #
coedge $-1 $186 $187 $188 $189 reversed $75 $-1 #
coedge $-1 $123 $77 $190 $191 reversed $48 $-1 #
coedge $-1 $77 $122 $186 $192 reversed $48 $-1 #
coedge $-1 $188 $193 $77 $125 forward $119 $-1 #
edge $-1 $194 21.317354874392553 $195 37.784692589447438 $124 $196 forward 7 unknown #
loop $-1 $-1 $131 $78 #
plane-surface $-1 -51.389378777647579 -31.148709225150824 0.17193242534423803 0 -0.52991927123019833 0.84804809178421925 1 0 0 forward_v I I I I #
loop $-1 $-1 $197 $50 #
coedge $-1 $129 $129 $130 $198 reversed $79 $-1 #
coedge $-1 $130 $130 $129 $198 forward $81 $-1 #
coedge $-1 $131 $131 $82 $132 forward $126 $-1 #
edge $-1 $199 5.1709940071163889e-016 $199 6.2831853071796013 $131 $200 forward 7 unknown #
loop $-1 $-1 $138 $83 #
plane-surface $-1 -51.389378777647579 -31.148709225150824 0.17193242534423803 0 -0.52991927123019833 0.84804809178421925 1 0 0 forward_v I I I I #
loop $-1 $-1 $201 $53 #
coedge $-1 $136 $136 $137 $202 reversed $84 $-1 #
coedge $-1 $137 $137 $136 $202 forward $86 $-1 #
coedge $-1 $138 $138 $87 $139 forward $133 $-1 #
edge $-1 $203 5.1709940071163889e-016 $203 6.2831853071796013 $138 $204 forward 7 unknown #
face $-1 $205 $206 $21 $-1 $207 reversed single #
loop $-1 $-1 $208 $88 #
plane-surface $-1 -69.617603076265766 0 0 1 0 0 0 0 -1 forward_v I I I I #
coedge $-1 $209 $151 $210 $211 forward $89 $-1 #
coedge $-1 $212 $91 $209 $213 forward $57 $-1 #
coedge $-1 $91 $212 $214 $215 forward $57 $-1 #
coedge $-1 $154 $153 $91 $147 reversed $155 $-1 #
edge $-1 $216 -31.148709225150828 $217 31.148709225150828 $146 $218 forward 7 unknown #
coedge $-1 $93 $92 $219 $220 forward $36 $-1 #
coedge $-1 $221 $222 $92 $150 reversed $206 $-1 #
edge $-1 $157 -69.617603076265766 $223 69.617603076265766 $149 $224 forward 7 unknown #
coedge $-1 $143 $225 $93 $152 reversed $89 $-1 #
edge $-1 $226 -69.617603076265766 $156 69.617603076265766 $151 $227 forward 7 unknown #
coedge $-1 $146 $94 $225 $228 forward $155 $-1 #
coedge $-1 $94 $146 $221 $229 reversed $155 $-1 #
loop $-1 $-1 $153 $205 #
vertex $-1 $95 $230 #
vertex $-1 $95 $231 #
straight-curve $-1 69.617603076265766 0 10.461867259940638 0 1 0 I I #
face $-1 $-1 $171 $22 $-1 $232 forward single #
loop $-1 $-1 $233 $96 #
plane-surface $-1 0 31.148709225150828 0 0 -1 0 0 0 -1 forward_v I I I I #
coedge $-1 $234 $235 $236 $237 reversed $97 $-1 #
coedge $-1 $238 $99 $101 $169 forward $61 $-1 #
coedge $-1 $99 $238 $234 $239 forward $61 $-1 #
coedge $-1 $236 $102 $99 $166 forward $171 $-1 #
edge $-1 $173 1.737034949068196 $240 38.434841000739347 $165 $241 forward 7 unknown #
coedge $-1 $242 $243 $100 $168 forward $160 $-1 #
edge $-1 $244 -73.617534407638644 $172 -67.354006477031362 $167 $245 forward 7 unknown #
edge $-1 $173 50.136127562474762 $244 62.297418450301649 $101 $246 forward 7 unknown #
coedge $-1 $102 $236 $242 $247 forward $171 $-1 #
loop $-1 $-1 $236 $159 #
vertex $-1 $168 $248 #
vertex $-1 $103 $249 #
straight-curve $-1 21.822972923971967 24.730416479143777 10.461867259940632 0 -1 0 I I #
coedge $-1 $175 $175 $-1 $250 reversed $106 $-1 #
edge $-1 $251 0 $251 6.2831853071796004 $107 $252 forward 7 unknown #
vertex $-1 $110 $253 #
ellipse-curve $-1 32.308060367306567 25.936578808496719 7.3301032946369968 0 0.51503808176128008 0.85716729658548041 2.5 0 0 1 I I #
coedge $-1 $179 $179 $-1 $254 reversed $113 $-1 #
edge $-1 $255 0 $255 6.2831853071796004 $114 $256 forward 7 unknown #
vertex $-1 $117 $257 #
ellipse-curve $-1 48.035691532308476 25.936578808496719 7.3301032946369968 0 0.51503808176128008 0.85716729658548041 2.5 0 0 1 I I #
face $-1 $-1 $258 $25 $-1 $259 reversed single #
loop $-1 $-1 $260 $118 #
plane-surface $-1 -69.617603076265766 0 0 1 0 0 0 0 -1 forward_v I I I I #
coedge $-1 $261 $121 $123 $192 forward $75 $-1 #
coedge $-1 $121 $261 $260 $262 reversed $75 $-1 #
coedge $-1 $263 $124 $121 $189 forward $119 $-1 #
edge $-1 $195 7.4664650902056025 $264 43.922913687441977 $188 $265 forward 7 unknown #
coedge $-1 $266 $267 $122 $191 forward $258 $-1 #
edge $-1 $268 -58.953109230746257 $194 -48.663174396149856 $190 $269 forward 7 unknown #
edge $-1 $195 -19.417929094574152 $268 4.1895292081871576e-015 $123 $270 forward 7 unknown #
coedge $-1 $124 $263 $266 $271 forward $119 $-1 #
vertex $-1 $191 $272 #
vertex $-1 $125 $273 #
straight-curve $-1 -33.161154479029392 -52.466064099543381 10.461867259940639 0 1 0 I I #
coedge $-1 $197 $197 $-1 $274 reversed $128 $-1 #
edge $-1 $275 0 $275 6.2831853071796004 $129 $276 forward 7 unknown #
vertex $-1 $132 $277 #
ellipse-curve $-1 -59.201474905626803 -22.915040367623394 5.3168998426424317 0 -0.52991927123019833 0.84804809178421925 2 0 0 1 I I #
coedge $-1 $201 $201 $-1 $278 reversed $135 $-1 #
edge $-1 $279 0 $279 6.2831853071796004 $136 $280 forward 7 unknown #
vertex $-1 $139 $281 #
ellipse-curve $-1 -43.577282649668355 -22.915040367623394 5.3168998426424317 0 -0.52991927123019833 0.84804809178421925 2 0 0 1 I I #
face $-1 $-1 $155 $21 $-1 $282 reversed single #
loop $-1 $-1 $221 $140 #
plane-surface $-1 0 31.148709225150828 0 0 -1 0 0 0 -1 forward_v I I I I #
coedge $-1 $283 $219 $222 $284 forward $141 $-1 #
coedge $-1 $225 $143 $144 $213 reversed $89 $-1 #
coedge $-1 $219 $283 $143 $211 reversed $141 $-1 #
edge $-1 $226 -10.461867259940638 $285 10.461867259940638 $210 $286 forward 7 unknown #
coedge $-1 $145 $144 $283 $287 forward $57 $-1 #
edge $-1 $217 -69.617603076265766 $285 69.617603076265766 $209 $288 forward 7 unknown #
coedge $-1 $222 $221 $145 $215 reversed $206 $-1 #
edge $-1 $289 -69.617603076265766 $216 69.617603076265766 $214 $290 forward 7 unknown #
vertex $-1 $147 $291 #
vertex $-1 $228 $292 #
straight-curve $-1 69.617603076265766 0 -10.461867259940638 0 -1 0 I I #
coedge $-1 $208 $210 $148 $220 reversed $141 $-1 #
edge $-1 $223 -31.148709225150828 $226 31.148709225150828 $219 $293 forward 7 unknown #
coedge $-1 $214 $149 $154 $229 forward $206 $-1 #
coedge $-1 $149 $214 $208 $284 reversed $206 $-1 #
vertex $-1 $150 $294 #
straight-curve $-1 0 31.148709225150828 10.461867259940638 -1 0 0 I I #
coedge $-1 $151 $209 $153 $228 reversed $89 $-1 #
vertex $-1 $220 $295 #
straight-curve $-1 0 -31.148709225150828 10.461867259940638 1 0 0 I I #
edge $-1 $156 -10.461867259940638 $217 10.461867259940638 $153 $296 forward 7 unknown #
edge $-1 $157 -10.461867259940638 $216 10.461867259940638 $154 $297 forward 7 unknown #
point $-1 69.617603076265766 -31.148709225150828 10.461867259940638 #
point $-1 69.617603076265766 31.148709225150828 10.461867259940638 #
plane-surface $-1 0 0 10.461867259940638 0 0 1 1 0 0 forward_v I I I I #
coedge $-1 $243 $242 $235 $298 forward $160 $-1 #
coedge $-1 $235 $162 $164 $239 reversed $97 $-1 #
coedge $-1 $162 $234 $233 $298 reversed $97 $-1 #
coedge $-1 $170 $165 $162 $237 forward $171 $-1 #
edge $-1 $240 -4.0059680873011558 $299 6.4182927460070509 $236 $300 forward 7 unknown #
coedge $-1 $164 $163 $243 $301 reversed $61 $-1 #
edge $-1 $302 -62.297418450301649 $240 -50.136127562474762 $234 $303 forward 7 unknown #
vertex $-1 $166 $304 #
straight-curve $-1 20.085937974903771 20.724448391842628 10.461867259940639 1 0 0 I I #
coedge $-1 $233 $167 $170 $247 reversed $160 $-1 #
coedge $-1 $167 $233 $238 $301 forward $160 $-1 #
vertex $-1 $168 $305 #
straight-curve $-1 21.822972923971967 31.148709225150828 77.815873736971994 0 0 1 I I #
straight-curve $-1 21.822972923971967 -22.250600532148667 36.283882226656488 0 0.85716729658548041 -0.51503808176128008 I I #
edge $-1 $299 -58.520778975643118 $172 -21.822972923971967 $242 $306 forward 7 unknown #
point $-1 21.822972923971967 31.148709225150828 10.461867259940638 #
point $-1 21.822972923971967 20.724448391842621 10.461867259940639 #
edge $-1 $307 1 $307 0 $175 $-1 forward 7 unknown #
vertex $-1 $176 $308 #
ellipse-curve $-1 32.308060367306567 22.685466737318439 1.9193442777145011 0 0.51503808176128008 0.85716729658548041 2.5 0 0 1 I I #
point $-1 34.808060367306567 25.936578808496719 7.3301032946369942 #
edge $-1 $309 1 $309 0 $179 $-1 forward 7 unknown #
vertex $-1 $180 $310 #
ellipse-curve $-1 48.035691532308476 22.685466737318439 1.9193442777145011 0 0.51503808176128008 0.85716729658548041 2.5 0 0 1 I I #
point $-1 50.535691532308476 25.936578808496719 7.3301032946369942 #
loop $-1 $-1 $190 $183 #
plane-surface $-1 0 -31.148709225150828 0 0 1 0 0 0 1 forward_v I I I I #
coedge $-1 $311 $312 $187 $262 forward $184 $-1 #
coedge $-1 $187 $186 $267 $313 reversed $75 $-1 #
edge $-1 $264 -6.2556825373784513 $314 13.162246557195704 $260 $315 forward 7 unknown #
coedge $-1 $193 $188 $312 $316 forward $119 $-1 #
vertex $-1 $316 $317 #
straight-curve $-1 -25.694689388823789 -14.681371510095943 10.461867259940638 -1 0 0 I I #
coedge $-1 $318 $190 $193 $271 reversed $258 $-1 #
coedge $-1 $190 $318 $261 $313 forward $258 $-1 #
vertex $-1 $191 $319 #
straight-curve $-1 -33.161154479029392 -31.148709225150824 59.125041656090495 0 0 1 I I #
straight-curve $-1 -33.161154479029392 -31.148709225150824 0.17193242534423803 0 -0.84804809178421925 -0.52991927123019833 I I #
edge $-1 $320 -69.617603076265766 $194 -33.161154479029392 $266 $321 forward 7 unknown #
point $-1 -33.161154479029392 -31.148709225150828 10.461867259940638 #
point $-1 -33.161154479029392 -14.681371510095943 10.461867259940638 #
edge $-1 $322 1 $322 0 $197 $-1 forward 7 unknown #
vertex $-1 $198 $323 #
ellipse-curve $-1 -59.201474905626803 -21.413502703002319 2.9139373154108514 0 -0.52991927123019833 0.84804809178421925 2 0 0 1 I I #
point $-1 -57.201474905626803 -22.915040367623401 5.316899842642445 #
edge $-1 $324 1 $324 0 $201 $-1 forward 7 unknown #
vertex $-1 $202 $325 #
ellipse-curve $-1 -43.577282649668355 -21.413502703002319 2.9139373154108514 0 -0.52991927123019833 0.84804809178421925 2 0 0 1 I I #
point $-1 -41.577282649668355 -22.915040367623401 5.316899842642445 #
plane-surface $-1 69.617603076265766 0 0 -1 0 0 0 0 1 forward_v I I I I #
coedge $-1 $210 $208 $212 $287 reversed $141 $-1 #
edge $-1 $223 -10.461867259940638 $289 10.461867259940638 $222 $326 forward 7 unknown #
vertex $-1 $287 $327 #
straight-curve $-1 -69.617603076265766 -31.148709225150828 0 0 0 -1 I I #
edge $-1 $285 -31.148709225150828 $289 31.148709225150828 $283 $328 forward 7 unknown #
straight-curve $-1 0 -31.148709225150828 -10.461867259940638 -1 0 0 I I #
vertex $-1 $215 $329 #
straight-curve $-1 0 31.148709225150828 -10.461867259940638 1 0 0 I I #
point $-1 69.617603076265766 31.148709225150828 -10.461867259940638 #
point $-1 69.617603076265766 -31.148709225150828 -10.461867259940638 #
straight-curve $-1 -69.617603076265766 0 10.461867259940638 0 -1 0 I I #
point $-1 -69.617603076265766 31.148709225150828 10.461867259940638 #
point $-1 -69.617603076265766 -31.148709225150828 10.461867259940638 #
straight-curve $-1 69.617603076265766 -31.148709225150828 0 0 0 -1 I I #
straight-curve $-1 69.617603076265766 31.148709225150828 0 0 0 -1 I I #
edge $-1 $299 67.354006477031362 $302 73.617534407638644 $233 $330 forward 7 unknown #
vertex $-1 $247 $331 #
straight-curve $-1 58.520778975643118 24.730416479143777 10.461867259940632 0 1 0 I I #
edge $-1 $302 -38.434841000739347 $244 -1.737034949068196 $243 $332 forward 7 unknown #
vertex $-1 $301 $333 #
straight-curve $-1 58.520778975643118 -22.250600532148667 36.283882226656488 0 -0.85716729658548041 0.51503808176128008 I I #
point $-1 58.520778975643118 20.724448391842621 10.461867259940639 #
point $-1 21.822972923971967 31.148709225150824 4.1983393293333506 #
straight-curve $-1 0 31.148709225150828 10.461867259940638 -1 0 0 I I #
vertex $-1 $250 $334 #
point $-1 34.808060367306567 22.685466737318439 1.9193442777145011 #
vertex $-1 $254 $335 #
point $-1 50.535691532308476 22.685466737318439 1.9193442777145011 #
coedge $-1 $312 $260 $318 $336 reversed $184 $-1 #
coedge $-1 $260 $311 $263 $316 reversed $184 $-1 #
edge $-1 $314 -43.922913687441977 $268 -7.4664650902056025 $267 $337 forward 7 unknown #
vertex $-1 $262 $338 #
straight-curve $-1 -69.617603076265766 -19.986491148727602 7.146860528685572 0 -0.84804809178421925 -0.52991927123019833 I I #
edge $-1 $264 14.681371510095943 $320 31.148709225150828 $312 $339 forward 7 unknown #
point $-1 -69.617603076265766 -14.681371510095943 10.461867259940638 #
coedge $-1 $267 $266 $311 $336 forward $258 $-1 #
point $-1 -33.161154479029392 -31.148709225150828 0.17193242534423581 #
vertex $-1 $316 $340 #
straight-curve $-1 0 -31.148709225150828 10.461867259940638 1 0 0 I I #
vertex $-1 $274 $341 #
point $-1 -57.201474905626803 -21.413502703002319 2.9139373154108514 #
vertex $-1 $278 $342 #
point $-1 -41.577282649668355 -21.413502703002319 2.9139373154108514 #
straight-curve $-1 -69.617603076265766 31.148709225150828 0 0 0 -1 I I #
point $-1 -69.617603076265766 -31.148709225150828 -10.461867259940638 #
straight-curve $-1 -69.617603076265766 0 -10.461867259940638 0 1 0 I I #
point $-1 -69.617603076265766 31.148709225150828 -10.461867259940638 #
straight-curve $-1 58.520778975643118 31.148709225150828 77.815873736971994 0 0 -1 I I #
point $-1 58.520778975643118 31.148709225150828 10.461867259940638 #
straight-curve $-1 20.085937974903771 31.148709225150824 4.1983393293333506 -1 0 0 I I #
point $-1 58.520778975643118 31.148709225150824 4.1983393293333506 #
point $-1 32.308060367306567 21.397871532915236 -0.2235739637491998 #
point $-1 48.035691532308476 21.397871532915236 -0.2235739637491998 #
edge $-1 $320 -10.461867259940638 $314 -0.17193242534423581 $311 $343 forward 7 unknown #
straight-curve $-1 -25.694689388823789 -31.148709225150828 0.17193242534423386 1 0 0 I I #
point $-1 -69.617603076265766 -31.148709225150828 0.17193242534423581 #
straight-curve $-1 -69.617603076265766 0 10.461867259940638 0 -1 0 I I #
point $-1 -69.617603076265766 -31.148709225150828 10.461867259940638 #
point $-1 -59.201474905626803 -20.353664160541921 1.2178411318424129 #
point $-1 -43.577282649668355 -20.353664160541921 1.2178411318424129 #
straight-curve $-1 -69.617603076265766 -31.148709225150828 0 0 0 -1 I I #
End-of-ACIS-data 