500 0 10 0           
7 Unknown 11 ACIS 5.0 NT 24 Fri Mar 26 19:38:30 1999 
-1 9.9999999999999995e-007 1e-010 
body $-1 $10 $-1 $11 #
body $-1 $12 $-1 $13 #
body $-1 $14 $-1 $15 #
body $-1 $16 $-1 $17 #
body $-1 $18 $-1 $19 #
body $-1 $20 $-1 $21 #
body $-1 $22 $-1 $23 #
body $-1 $24 $-1 $25 #
body $-1 $26 $-1 $27 #
body $-1 $28 $-1 $29 #
lump $-1 $-1 $30 $0 #
transform $-1 1 0 0 0 1 0 0 0 1 54.651326029236735 23.856979194219683 7.1513419306456063 1 rotate no_reflect no_shear #
lump $-1 $-1 $31 $1 #
transform $-1 1 0 0 0 1 0 0 0 1 54.651326029236735 23.856979194219683 7.1513419306456063 1 rotate no_reflect no_shear #
lump $-1 $-1 $32 $2 #
transform $-1 1 0 0 0 1 0 0 0 1 54.651326029236735 23.856979194219683 7.1513419306456063 1 rotate no_reflect no_shear #
lump $-1 $-1 $33 $3 #
transform $-1 1 0 0 0 1 0 0 0 1 54.651326029236735 23.856979194219683 7.1513419306456063 1 rotate no_reflect no_shear #
lump $-1 $-1 $34 $4 #
transform $-1 1 0 0 0 1 0 0 0 1 54.651326029236735 23.856979194219683 7.1513419306456063 1 rotate no_reflect no_shear #
lump $-1 $-1 $35 $5 #
transform $-1 1 0 0 0 1 0 0 0 1 54.651326029236735 23.856979194219683 7.1513419306456063 1 rotate no_reflect no_shear #
lump $-1 $-1 $36 $6 #
transform $-1 1 0 0 0 1 0 0 0 1 54.651326029236735 23.856979194219683 7.1513419306456063 1 rotate no_reflect no_shear #
lump $-1 $-1 $37 $7 #
transform $-1 1 0 0 0 1 0 0 0 1 54.651326029236735 23.856979194219683 7.1513419306456063 1 rotate no_reflect no_shear #
lump $-1 $-1 $38 $8 #
transform $-1 1 0 0 0 1 0 0 0 1 54.651326029236735 23.856979194219683 7.1513419306456063 1 rotate no_reflect no_shear #
lump $-1 $-1 $39 $9 #
transform $-1 1 0 0 0 1 0 0 0 1 54.651326029236735 23.856979194219683 7.1513419306456063 1 rotate no_reflect no_shear #
shell $-1 $-1 $-1 $40 $-1 $10 #
shell $-1 $-1 $-1 $41 $-1 $12 #
shell $-1 $-1 $-1 $42 $-1 $14 #
shell $-1 $-1 $-1 $43 $-1 $16 #
shell $-1 $-1 $-1 $44 $-1 $18 #
shell $-1 $-1 $-1 $45 $-1 $20 #
shell $-1 $-1 $-1 $46 $-1 $22 #
shell $-1 $-1 $-1 $47 $-1 $24 #
shell $-1 $-1 $-1 $48 $-1 $26 #
shell $-1 $-1 $-1 $49 $-1 $28 #
face $-1 $50 $51 $30 $-1 $52 forward single #
face $-1 $53 $54 $31 $-1 $55 reversed single #
face $-1 $56 $57 $32 $-1 $58 reversed single #
face $-1 $59 $60 $33 $-1 $61 reversed single #
face $-1 $62 $63 $34 $-1 $64 forward single #
face $-1 $65 $66 $35 $-1 $67 forward single #
face $-1 $68 $69 $36 $-1 $70 forward single #
face $-1 $71 $72 $37 $-1 $73 reversed single #
face $-1 $74 $75 $38 $-1 $76 forward single #
face $-1 $77 $78 $39 $-1 $79 forward single #
face $-1 $80 $81 $30 $-1 $82 reversed single #
loop $-1 $-1 $83 $40 #
plane-surface $-1 0 0 7.1513419306456063 0 0 1 1 0 0 forward_v I I I I #
face $-1 $84 $85 $31 $-1 $86 reversed single #
loop $-1 $-1 $87 $41 #
plane-surface $-1 -44.762210650369042 -21.147657936658153 0 1 0 0 0 0 -1 forward_v I I I I #
face $-1 $88 $89 $32 $-1 $90 reversed single #
loop $-1 $-1 $91 $42 #
plane-surface $-1 -43.262210650369042 18.438336679096626 0 0 1 0 0 0 1 forward_v I I I I #
face $-1 $92 $93 $33 $-1 $94 reversed single #
loop $-1 $-1 $95 $43 #
plane-surface $-1 -114.18181775091543 9.6290944690196092 94.109399564222088 0 1 0 -0.54463904215088732 0 0.83867056331134215 forward_v I I I I #
face $-1 $96 $97 $34 $-1 $98 forward single #
loop $-1 $99 $100 $44 #
cone-surface $-1 -50.493119524594505 11.390942911035012 3.977992923884619 0.54463904215088732 0 -0.83867056331134215 0.41933528165567108 0 0.27231952107544366 1 I I 0 1 0.5 forward I I I I #
face $-1 $101 $102 $35 $-1 $103 forward single #
loop $-1 $104 $105 $45 #
cone-surface $-1 -50.493119524594505 14.033715574058114 3.977992923884619 0.54463904215088732 0 -0.83867056331134215 0.41933528165567108 0 0.27231952107544366 1 I I 0 1 0.5 forward I I I I #
face $-1 $106 $107 $36 $-1 $108 forward single #
loop $-1 $109 $110 $46 #
cone-surface $-1 -50.493119524594505 16.676488237081216 3.977992923884619 0.54463904215088732 0 -0.83867056331134215 0.41933528165567108 0 0.27231952107544366 1 I I 0 1 0.5 forward I I I I #
face $-1 $111 $112 $37 $-1 $113 reversed single #
loop $-1 $-1 $114 $47 #
plane-surface $-1 14.643779829743529 -6.0280983855318615 153.29101318719827 0 -1 0 -0.50000000669873634 0 -0.8660253999169214 forward_v I I I I #
face $-1 $115 $116 $38 $-1 $117 forward single #
loop $-1 $118 $119 $48 #
cone-surface $-1 51.618411594352146 -10.66864596288489 5.0687084241402491 -0.50000000669873634 0 -0.8660253999169214 0.4330126999584607 0 -0.25000000334936817 1 I I 0 1 0.5 forward I I I I #
face $-1 $120 $121 $39 $-1 $122 forward single #
loop $-1 $123 $124 $49 #
cone-surface $-1 51.618411594352146 -7.8843174164730723 5.0687084241402491 -0.50000000669873634 0 -0.8660253999169214 0.4330126999584607 0 -0.25000000334936817 1 I I 0 1 0.5 forward I I I I #
face $-1 $125 $126 $30 $-1 $127 reversed single #
loop $-1 $-1 $128 $50 #
plane-surface $-1 0 0 -7.1513419306456063 0 0 1 1 0 0 forward_v I I I I #
coedge $-1 $129 $130 $131 $132 forward $51 $-1 #
face $-1 $133 $134 $31 $-1 $135 reversed single #
loop $-1 $-1 $136 $53 #
plane-surface $-1 -43.262210650369042 -18.438336679096622 0 0 -1 0 0 0 -1 forward_v I I I I #
coedge $-1 $137 $138 $139 $140 forward $54 $-1 #
face $-1 $141 $142 $32 $-1 $143 reversed single #
loop $-1 $-1 $144 $56 #
plane-surface $-1 -44.762210650369042 21.147657936658156 0 1 0 0 0 0 -1 forward_v I I I I #
coedge $-1 $145 $146 $147 $148 forward $57 $-1 #
face $-1 $149 $150 $33 $-1 $151 reversed single #
loop $-1 $-1 $152 $59 #
plane-surface $-1 -54.651326029236728 14.033715574058114 2.4404827909185087 -0.54463904215088732 0 0.83867056331134215 0.83867056331134215 0 0.54463904215088732 forward_v I I I I #
coedge $-1 $153 $154 $155 $156 reversed $60 $-1 #
face $-1 $-1 $157 $34 $-1 $158 forward single #
loop $-1 $159 $160 $62 #
cone-surface $-1 -49.825796661217517 11.390942911035012 2.950405846159355 0.54463904215088732 0 -0.83867056331134215 0.20966764082783554 0 0.13615976053772183 1 I I -0.70710678118654746 0.70710678118654746 0.25 forward I I I I #
loop $-1 $-1 $161 $44 #
coedge $-1 $100 $100 $162 $163 reversed $63 $-1 #
face $-1 $-1 $164 $35 $-1 $165 forward single #
loop $-1 $166 $167 $65 #
cone-surface $-1 -49.825796661217517 14.033715574058114 2.950405846159355 0.54463904215088732 0 -0.83867056331134215 0.20966764082783554 0 0.13615976053772183 1 I I -0.70710678118654746 0.70710678118654746 0.25 forward I I I I #
loop $-1 $-1 $168 $45 #
coedge $-1 $105 $105 $169 $170 reversed $66 $-1 #
face $-1 $-1 $171 $36 $-1 $172 forward single #
loop $-1 $173 $174 $68 #
cone-surface $-1 -49.825796661217517 16.676488237081216 2.950405846159355 0.54463904215088732 0 -0.83867056331134215 0.20966764082783554 0 0.13615976053772183 1 I I -0.70710678118654746 0.70710678118654746 0.25 forward I I I I #
loop $-1 $-1 $175 $46 #
coedge $-1 $110 $110 $176 $177 reversed $69 $-1 #
face $-1 $178 $179 $37 $-1 $180 reversed single #
loop $-1 $-1 $181 $71 #
plane-surface $-1 -40.007546931682853 -9.276481689678981 58.632140226278679 0.50000000669873634 0 0.8660253999169214 0.8660253999169214 0 -0.50000000669873634 forward_v I I I I #
coedge $-1 $182 $183 $184 $185 reversed $72 $-1 #
face $-1 $-1 $186 $38 $-1 $187 forward single #
loop $-1 $188 $189 $74 #
cone-surface $-1 51.206255303543266 -10.66864596288489 4.3548328005523098 -0.50000000669873634 0 -0.8660253999169214 0.21650634997923035 0 -0.12500000167468409 1 I I -0.70710678118654746 0.70710678118654746 0.25 forward I I I I #
loop $-1 $-1 $190 $48 #
coedge $-1 $119 $119 $191 $192 reversed $75 $-1 #
face $-1 $-1 $193 $39 $-1 $194 forward single #
loop $-1 $195 $196 $77 #
cone-surface $-1 51.206255303543266 -7.8843174164730723 4.3548328005523098 -0.50000000669873634 0 -0.8660253999169214 0.21650634997923035 0 -0.12500000167468409 1 I I -0.70710678118654746 0.70710678118654746 0.25 forward I I I I #
loop $-1 $-1 $197 $49 #
coedge $-1 $124 $124 $198 $199 reversed $78 $-1 #
face $-1 $200 $201 $30 $-1 $202 reversed single #
loop $-1 $-1 $203 $80 #
plane-surface $-1 0 -23.856979194219683 0 0 1 0 0 0 1 forward_v I I I I #
coedge $-1 $204 $205 $206 $207 forward $81 $-1 #
coedge $-1 $208 $83 $209 $210 forward $51 $-1 #
coedge $-1 $83 $208 $211 $212 forward $51 $-1 #
coedge $-1 $213 $214 $83 $132 reversed $215 $-1 #
edge $-1 $216 -23.856979194219683 $217 23.856979194219683 $131 $218 forward 7 unknown #
face $-1 $219 $220 $31 $-1 $221 forward single #
loop $-1 $-1 $222 $84 #
plane-surface $-1 -41.762210650369042 -21.147657936658153 0 -1 0 0 0 0 1 forward_v I I I I #
coedge $-1 $223 $224 $225 $226 forward $85 $-1 #
coedge $-1 $227 $87 $228 $229 reversed $54 $-1 #
coedge $-1 $87 $227 $230 $231 reversed $54 $-1 #
coedge $-1 $224 $223 $87 $140 reversed $85 $-1 #
edge $-1 $232 -7.1513419306456063 $233 7.1513419306456063 $139 $234 forward 7 unknown #
face $-1 $235 $236 $32 $-1 $237 reversed single #
loop $-1 $-1 $238 $88 #
plane-surface $-1 -41.762210650369042 21.147657936658156 0 -1 0 0 0 0 1 forward_v I I I I #
coedge $-1 $239 $240 $241 $242 reversed $89 $-1 #
coedge $-1 $243 $91 $244 $245 reversed $57 $-1 #
coedge $-1 $91 $243 $246 $247 reversed $57 $-1 #
coedge $-1 $240 $239 $91 $148 reversed $89 $-1 #
edge $-1 $248 -7.1513419306456063 $249 7.1513419306456063 $147 $250 forward 7 unknown #
face $-1 $251 $252 $33 $-1 $253 reversed single #
loop $-1 $-1 $254 $92 #
plane-surface $-1 -114.18181775091543 18.438336679096619 94.109399564222088 0 -1 0 0.54463904215088732 0 -0.83867056331134215 forward_v I I I I #
coedge $-1 $255 $256 $257 $258 reversed $93 $-1 #
coedge $-1 $154 $95 $259 $260 reversed $60 $-1 #
coedge $-1 $95 $153 $255 $261 reversed $60 $-1 #
coedge $-1 $257 $262 $95 $156 forward $263 $-1 #
edge $-1 $264 2.4395828462209792 $265 9.6936696498268873 $155 $266 forward 7 unknown #
loop $-1 $-1 $162 $96 #
plane-surface $-1 -54.651326029236728 14.033715574058114 2.4404827909185087 -0.54463904215088732 0 0.83867056331134215 0.83867056331134215 0 0.54463904215088732 forward_v I I I I #
loop $-1 $-1 $267 $62 #
coedge $-1 $160 $160 $161 $268 reversed $97 $-1 #
coedge $-1 $161 $161 $160 $268 forward $99 $-1 #
coedge $-1 $162 $162 $100 $163 forward $157 $-1 #
edge $-1 $269 0 $269 6.2831853071796004 $162 $270 forward 7 unknown #
loop $-1 $-1 $169 $101 #
plane-surface $-1 -54.651326029236728 14.033715574058114 2.4404827909185087 -0.54463904215088732 0 0.83867056331134215 0.83867056331134215 0 0.54463904215088732 forward_v I I I I #
loop $-1 $-1 $271 $65 #
coedge $-1 $167 $167 $168 $272 reversed $102 $-1 #
coedge $-1 $168 $168 $167 $272 forward $104 $-1 #
coedge $-1 $169 $169 $105 $170 forward $164 $-1 #
edge $-1 $273 0 $273 6.2831853071796004 $169 $274 forward 7 unknown #
loop $-1 $-1 $176 $106 #
plane-surface $-1 -54.651326029236728 14.033715574058114 2.4404827909185087 -0.54463904215088732 0 0.83867056331134215 0.83867056331134215 0 0.54463904215088732 forward_v I I I I #
loop $-1 $-1 $275 $68 #
coedge $-1 $174 $174 $175 $276 reversed $107 $-1 #
coedge $-1 $175 $175 $174 $276 forward $109 $-1 #
coedge $-1 $176 $176 $110 $177 forward $171 $-1 #
edge $-1 $277 0 $277 6.2831853071796004 $176 $278 forward 7 unknown #
face $-1 $279 $280 $37 $-1 $281 forward single #
loop $-1 $-1 $282 $111 #
plane-surface $-1 14.643779829743529 -12.5248649938261 153.29101318719827 0 1 0 0.50000000669873634 0 0.8660253999169214 forward_v I I I I #
coedge $-1 $283 $284 $285 $286 reversed $112 $-1 #
coedge $-1 $183 $114 $287 $288 reversed $72 $-1 #
coedge $-1 $114 $182 $283 $289 reversed $72 $-1 #
coedge $-1 $285 $290 $114 $185 forward $280 $-1 #
edge $-1 $291 -47.329436114364967 $292 -41.837919822864151 $184 $293 forward 7 unknown #
loop $-1 $-1 $191 $115 #
plane-surface $-1 -40.007546931682853 -9.276481689678981 58.632140226278679 0.50000000669873634 0 0.8660253999169214 0.8660253999169214 0 -0.50000000669873634 forward_v I I I I #
loop $-1 $-1 $294 $74 #
coedge $-1 $189 $189 $190 $295 reversed $116 $-1 #
coedge $-1 $190 $190 $189 $295 forward $118 $-1 #
coedge $-1 $191 $191 $119 $192 forward $186 $-1 #
edge $-1 $296 0 $296 6.2831853071796004 $191 $297 forward 7 unknown #
loop $-1 $-1 $198 $120 #
plane-surface $-1 -40.007546931682853 -9.276481689678981 58.632140226278679 0.50000000669873634 0 0.8660253999169214 0.8660253999169214 0 -0.50000000669873634 forward_v I I I I #
loop $-1 $-1 $298 $77 #
coedge $-1 $196 $196 $197 $299 reversed $121 $-1 #
coedge $-1 $197 $197 $196 $299 forward $123 $-1 #
coedge $-1 $198 $198 $124 $199 forward $193 $-1 #
edge $-1 $300 0 $300 6.2831853071796004 $198 $301 forward 7 unknown #
face $-1 $302 $303 $30 $-1 $304 reversed single #
loop $-1 $-1 $305 $125 #
plane-surface $-1 -54.651326029236735 0 0 1 0 0 0 0 -1 forward_v I I I I #
coedge $-1 $306 $211 $307 $308 forward $126 $-1 #
coedge $-1 $309 $128 $306 $310 forward $81 $-1 #
coedge $-1 $128 $309 $311 $312 forward $81 $-1 #
coedge $-1 $214 $213 $128 $207 reversed $215 $-1 #
edge $-1 $313 -23.856979194219683 $314 23.856979194219683 $206 $315 forward 7 unknown #
coedge $-1 $130 $129 $316 $317 forward $51 $-1 #
coedge $-1 $318 $319 $129 $210 reversed $303 $-1 #
edge $-1 $217 -54.651326029236735 $320 54.651326029236735 $209 $321 forward 7 unknown #
coedge $-1 $203 $322 $130 $212 reversed $126 $-1 #
edge $-1 $323 -54.651326029236735 $216 54.651326029236735 $211 $324 forward 7 unknown #
coedge $-1 $206 $131 $322 $325 forward $215 $-1 #
coedge $-1 $131 $206 $318 $326 reversed $215 $-1 #
loop $-1 $-1 $213 $302 #
vertex $-1 $132 $327 #
vertex $-1 $132 $328 #
straight-curve $-1 54.651326029236735 0 7.1513419306456063 0 1 0 I I #
face $-1 $329 $330 $31 $-1 $331 reversed single #
loop $-1 $-1 $332 $133 #
plane-surface $-1 0 0 7.1513419306456063 0 0 1 1 0 0 forward_v I I I I #
coedge $-1 $333 $334 $335 $336 reversed $134 $-1 #
coedge $-1 $139 $136 $337 $338 reversed $85 $-1 #
coedge $-1 $136 $139 $339 $340 reversed $85 $-1 #
coedge $-1 $334 $333 $136 $226 reversed $134 $-1 #
edge $-1 $341 -7.1513419306456063 $342 7.1513419306456063 $225 $343 forward 7 unknown #
coedge $-1 $138 $137 $344 $345 reversed $54 $-1 #
coedge $-1 $337 $346 $137 $229 forward $330 $-1 #
edge $-1 $347 -13.283150225890607 $233 -7.8645077107675458 $228 $348 forward 7 unknown #
coedge $-1 $349 $339 $138 $231 forward $220 $-1 #
edge $-1 $232 7.8645077107675458 $350 13.283150225890607 $230 $351 forward 7 unknown #
vertex $-1 $231 $352 #
vertex $-1 $229 $353 #
straight-curve $-1 -44.762210650369042 -18.438336679096622 0 0 0 -1 I I #
face $-1 $354 $355 $32 $-1 $356 forward single #
loop $-1 $-1 $357 $141 #
plane-surface $-1 0 0 -7.1513419306456063 0 0 1 1 0 0 forward_v I I I I #
coedge $-1 $358 $359 $243 $360 forward $142 $-1 #
coedge $-1 $147 $144 $361 $362 reversed $89 $-1 #
coedge $-1 $144 $147 $363 $364 reversed $89 $-1 #
coedge $-1 $365 $366 $144 $242 forward $367 $-1 #
edge $-1 $368 -7.1513419306456063 $369 7.1513419306456063 $241 $370 forward 7 unknown #
coedge $-1 $146 $145 $238 $360 reversed $57 $-1 #
coedge $-1 $361 $357 $145 $245 forward $236 $-1 #
edge $-1 $371 20.131105325184521 $249 23.131105325184521 $244 $372 forward 7 unknown #
coedge $-1 $373 $363 $146 $247 forward $355 $-1 #
edge $-1 $248 -23.131105325184521 $374 -20.131105325184521 $246 $375 forward 7 unknown #
vertex $-1 $247 $376 #
vertex $-1 $245 $377 #
straight-curve $-1 -44.762210650369042 18.438336679096626 0 0 0 -1 I I #
face $-1 $-1 $263 $33 $-1 $378 forward single #
loop $-1 $-1 $379 $149 #
plane-surface $-1 -54.651326029236735 0 0 1 0 0 0 0 -1 forward_v I I I I #
coedge $-1 $380 $381 $382 $383 reversed $150 $-1 #
coedge $-1 $384 $152 $154 $261 forward $93 $-1 #
coedge $-1 $152 $384 $380 $385 forward $93 $-1 #
coedge $-1 $382 $155 $152 $258 forward $263 $-1 #
edge $-1 $265 2.6122366819905523 $386 11.421478892067562 $257 $387 forward 7 unknown #
coedge $-1 $388 $389 $153 $260 forward $252 $-1 #
edge $-1 $390 -44.614216991192542 $264 -39.903357851465437 $259 $391 forward 7 unknown #
edge $-1 $265 -8.649506875458254 $390 8.3777959833898778e-015 $154 $392 forward 7 unknown #
coedge $-1 $155 $382 $388 $393 forward $263 $-1 #
loop $-1 $-1 $382 $251 #
vertex $-1 $260 $394 #
vertex $-1 $156 $395 #
straight-curve $-1 -57.090908875457714 9.6290944690196092 7.1513419306456072 1 0 0 I I #
coedge $-1 $267 $267 $-1 $396 reversed $159 $-1 #
edge $-1 $397 0 $397 6.2831853071796004 $160 $398 forward 7 unknown #
vertex $-1 $163 $399 #
ellipse-curve $-1 -51.024282627433777 11.390942911035012 4.7959123607820571 -0.54463904215088732 0 0.83867056331134215 0.41933528165567108 0 0.27231952107544366 1 I I #
coedge $-1 $271 $271 $-1 $400 reversed $166 $-1 #
edge $-1 $401 0 $401 6.2831853071796004 $167 $402 forward 7 unknown #
vertex $-1 $170 $403 #
ellipse-curve $-1 -51.024282627433777 14.033715574058114 4.7959123607820571 -0.54463904215088732 0 0.83867056331134215 0.41933528165567108 0 0.27231952107544366 1 I I #
coedge $-1 $275 $275 $-1 $404 reversed $173 $-1 #
edge $-1 $405 0 $405 6.2831853071796004 $174 $406 forward 7 unknown #
vertex $-1 $177 $407 #
ellipse-curve $-1 -51.024282627433777 16.676488237081216 4.7959123607820571 -0.54463904215088732 0 0.83867056331134215 0.41933528165567108 0 0.27231952107544366 1 I I #
face $-1 $-1 $408 $37 $-1 $409 reversed single #
loop $-1 $-1 $184 $178 #
plane-surface $-1 0 0 7.1513419306456063 0 0 1 1 0 0 forward_v I I I I #
coedge $-1 $410 $411 $412 $413 reversed $179 $-1 #
coedge $-1 $414 $181 $183 $289 forward $112 $-1 #
coedge $-1 $181 $414 $410 $415 forward $112 $-1 #
coedge $-1 $412 $184 $181 $286 forward $280 $-1 #
edge $-1 $292 1.389857540692371 $416 7.8866241489866091 $285 $417 forward 7 unknown #
coedge $-1 $418 $419 $182 $288 forward $408 $-1 #
edge $-1 $420 -72.664693128746833 $291 -69.494164662953537 $287 $421 forward 7 unknown #
edge $-1 $292 102.96159521184097 $420 109.30265205847346 $183 $422 forward 7 unknown #
coedge $-1 $184 $412 $418 $423 forward $280 $-1 #
vertex $-1 $185 $424 #
vertex $-1 $185 $425 #
straight-curve $-1 7.3218899148717647 -6.0280983855318615 7.1513419306456001 -1 0 0 I I #
coedge $-1 $294 $294 $-1 $426 reversed $188 $-1 #
edge $-1 $427 0 $427 6.2831853071796004 $189 $428 forward 7 unknown #
vertex $-1 $192 $429 #
ellipse-curve $-1 51.905567883486334 -10.66864596288489 5.566077697748951 0.50000000669873634 0 0.8660253999169214 0.4330126999584607 0 -0.25000000334936817 1 I I #
coedge $-1 $298 $298 $-1 $430 reversed $195 $-1 #
edge $-1 $431 0 $431 6.2831853071796004 $196 $432 forward 7 unknown #
vertex $-1 $199 $433 #
ellipse-curve $-1 51.905567883486334 -7.8843174164730723 5.566077697748951 0.50000000669873634 0 0.8660253999169214 0.4330126999584607 0 -0.25000000334936817 1 I I #
face $-1 $-1 $215 $30 $-1 $434 reversed single #
loop $-1 $-1 $318 $200 #
plane-surface $-1 0 23.856979194219683 0 0 -1 0 0 0 -1 forward_v I I I I #
coedge $-1 $435 $316 $319 $436 forward $201 $-1 #
coedge $-1 $322 $203 $204 $310 reversed $126 $-1 #
coedge $-1 $316 $435 $203 $308 reversed $201 $-1 #
edge $-1 $323 -7.1513419306456063 $437 7.1513419306456063 $307 $438 forward 7 unknown #
coedge $-1 $205 $204 $435 $439 forward $81 $-1 #
edge $-1 $314 -54.651326029236735 $437 54.651326029236735 $306 $440 forward 7 unknown #
coedge $-1 $319 $318 $205 $312 reversed $303 $-1 #
edge $-1 $441 -54.651326029236735 $313 54.651326029236735 $311 $442 forward 7 unknown #
vertex $-1 $207 $443 #
vertex $-1 $325 $444 #
straight-curve $-1 54.651326029236735 0 -7.1513419306456063 0 -1 0 I I #
coedge $-1 $305 $307 $208 $317 reversed $201 $-1 #
edge $-1 $320 -23.856979194219683 $323 23.856979194219683 $316 $445 forward 7 unknown #
coedge $-1 $311 $209 $214 $326 forward $303 $-1 #
coedge $-1 $209 $311 $305 $436 reversed $303 $-1 #
vertex $-1 $210 $446 #
straight-curve $-1 0 23.856979194219683 7.1513419306456063 -1 0 0 I I #
coedge $-1 $211 $306 $213 $325 reversed $126 $-1 #
vertex $-1 $317 $447 #
straight-curve $-1 0 -23.856979194219683 7.1513419306456063 1 0 0 I I #
edge $-1 $216 -7.1513419306456063 $314 7.1513419306456063 $213 $448 forward 7 unknown #
edge $-1 $217 -7.1513419306456063 $313 7.1513419306456063 $214 $449 forward 7 unknown #
point $-1 54.651326029236735 -23.856979194219683 7.1513419306456063 #
point $-1 54.651326029236735 23.856979194219683 7.1513419306456063 #
face $-1 $-1 $450 $31 $-1 $451 reversed single #
loop $-1 $-1 $452 $219 #
plane-surface $-1 0 0 -7.1513419306456063 0 0 1 1 0 0 forward_v I I I I #
coedge $-1 $339 $349 $334 $453 forward $220 $-1 #
coedge $-1 $225 $222 $452 $454 reversed $134 $-1 #
coedge $-1 $222 $225 $332 $453 reversed $134 $-1 #
coedge $-1 $455 $456 $222 $336 forward $450 $-1 #
edge $-1 $457 -7.1513419306456063 $458 7.1513419306456063 $335 $459 forward 7 unknown #
coedge $-1 $452 $228 $223 $338 forward $330 $-1 #
edge $-1 $233 -23.131105325184521 $342 -20.131105325184521 $337 $460 forward 7 unknown #
coedge $-1 $230 $332 $224 $340 forward $220 $-1 #
edge $-1 $341 20.131105325184521 $232 23.131105325184521 $339 $461 forward 7 unknown #
vertex $-1 $340 $462 #
vertex $-1 $338 $463 #
straight-curve $-1 -41.762210650369042 -18.438336679096622 0 0 0 -1 I I #
coedge $-1 $456 $455 $227 $345 forward $450 $-1 #
edge $-1 $350 -7.1513419306456063 $347 7.1513419306456063 $344 $464 forward 7 unknown #
coedge $-1 $228 $452 $456 $465 forward $330 $-1 #
vertex $-1 $229 $466 #
straight-curve $-1 -44.762210650369042 -10.573828968329076 -7.1513419306456063 0 1 0 I I #
coedge $-1 $332 $230 $455 $467 forward $220 $-1 #
vertex $-1 $467 $468 #
straight-curve $-1 -44.762210650369042 -10.573828968329076 7.1513419306456063 0 -1 0 I I #
point $-1 -44.762210650369042 -18.438336679096622 7.1513419306456063 #
point $-1 -44.762210650369042 -18.438336679096622 -7.1513419306456063 #
face $-1 $-1 $367 $32 $-1 $469 reversed single #
loop $-1 $-1 $373 $235 #
plane-surface $-1 0 0 7.1513419306456063 0 0 1 1 0 0 forward_v I I I I #
coedge $-1 $244 $470 $358 $471 forward $236 $-1 #
coedge $-1 $472 $238 $357 $471 reversed $142 $-1 #
coedge $-1 $238 $472 $373 $473 reversed $142 $-1 #
edge $-1 $374 -7.1513419306456063 $371 7.1513419306456063 $238 $474 forward 7 unknown #
coedge $-1 $470 $244 $239 $362 forward $236 $-1 #
edge $-1 $249 7.8645077107675476 $368 13.283150225890608 $361 $475 forward 7 unknown #
coedge $-1 $246 $476 $240 $364 forward $355 $-1 #
edge $-1 $369 -13.283150225890608 $248 -7.8645077107675476 $363 $477 forward 7 unknown #
coedge $-1 $478 $241 $476 $479 reversed $367 $-1 #
coedge $-1 $241 $478 $470 $480 reversed $367 $-1 #
loop $-1 $-1 $478 $354 #
vertex $-1 $480 $481 #
vertex $-1 $242 $482 #
straight-curve $-1 -44.762210650369042 23.856979194219683 0 0 0 1 I I #
vertex $-1 $245 $483 #
straight-curve $-1 -21.631105325184521 18.438336679096626 -7.1513419306456063 -1 0 0 I I #
coedge $-1 $476 $246 $359 $473 forward $355 $-1 #
vertex $-1 $247 $484 #
straight-curve $-1 -21.631105325184521 18.438336679096626 7.1513419306456063 1 0 0 I I #
point $-1 -44.762210650369042 18.438336679096626 7.1513419306456063 #
point $-1 -44.762210650369042 18.438336679096626 -7.1513419306456063 #
plane-surface $-1 0 0 7.1513419306456063 0 0 1 1 0 0 forward_v I I I I #
coedge $-1 $389 $388 $381 $485 forward $252 $-1 #
coedge $-1 $381 $254 $256 $385 reversed $150 $-1 #
coedge $-1 $254 $380 $379 $485 reversed $150 $-1 #
coedge $-1 $262 $257 $254 $383 forward $263 $-1 #
edge $-1 $386 -9.6936696498268873 $486 -2.4395828462209792 $382 $487 forward 7 unknown #
coedge $-1 $256 $255 $389 $488 reversed $93 $-1 #
edge $-1 $489 -8.3777959833898778e-015 $386 8.649506875458254 $380 $490 forward 7 unknown #
vertex $-1 $258 $491 #
straight-curve $-1 -47.397239225630827 7.0168577870290569 7.1513419306456054 0 1 0 I I #
coedge $-1 $379 $259 $262 $393 reversed $252 $-1 #
coedge $-1 $259 $379 $384 $488 forward $252 $-1 #
vertex $-1 $260 $492 #
straight-curve $-1 -54.651326029236735 9.6290944690196092 47.054699782111044 0 0 1 I I #
straight-curve $-1 -54.651326029236728 9.6290944690196092 2.4404827909185087 -0.83867056331134215 0 -0.54463904215088732 I I #
edge $-1 $486 -18.438336679096619 $264 -9.6290944690196092 $388 $493 forward 7 unknown #
point $-1 -54.651326029236735 9.6290944690196092 7.1513419306456063 #
point $-1 -47.397239225630827 9.6290944690196092 7.1513419306456063 #
edge $-1 $494 1 $494 0 $267 $-1 forward 7 unknown #
vertex $-1 $268 $495 #
ellipse-curve $-1 -49.961956421755239 11.390942911035012 3.1600734869871907 -0.54463904215088732 0 0.83867056331134215 0.41933528165567108 0 0.27231952107544366 1 I I #
point $-1 -50.6049473457781 11.390942911035012 5.0682318818574927 #
edge $-1 $496 1 $496 0 $271 $-1 forward 7 unknown #
vertex $-1 $272 $497 #
ellipse-curve $-1 -49.961956421755239 14.033715574058114 3.1600734869871907 -0.54463904215088732 0 0.83867056331134215 0.41933528165567108 0 0.27231952107544366 1 I I #
point $-1 -50.6049473457781 14.033715574058114 5.0682318818574927 #
edge $-1 $498 1 $498 0 $275 $-1 forward 7 unknown #
vertex $-1 $276 $499 #
ellipse-curve $-1 -49.961956421755239 16.676488237081216 3.1600734869871907 -0.54463904215088732 0 0.83867056331134215 0.41933528165567108 0 0.27231952107544366 1 I I #
point $-1 -50.6049473457781 16.676488237081216 5.0682318818574927 #
loop $-1 $-1 $287 $279 #
plane-surface $-1 54.651326029236735 0 0 -1 0 0 0 0 1 forward_v I I I I #
coedge $-1 $411 $282 $284 $415 reversed $179 $-1 #
coedge $-1 $282 $410 $500 $501 reversed $179 $-1 #
coedge $-1 $290 $285 $282 $413 forward $280 $-1 #
edge $-1 $416 41.837919822864151 $502 47.329436114364967 $412 $503 forward 7 unknown #
coedge $-1 $284 $283 $419 $504 reversed $112 $-1 #
edge $-1 $505 -109.30265205847346 $416 -102.96159521184097 $410 $506 forward 7 unknown #
vertex $-1 $286 $507 #
straight-curve $-1 49.159809737735912 -4.6382408448394905 7.1513419306456143 0 -1 0 I I #
coedge $-1 $500 $287 $290 $423 reversed $408 $-1 #
coedge $-1 $287 $500 $414 $504 forward $408 $-1 #
vertex $-1 $288 $508 #
straight-curve $-1 54.651326029236735 -6.0280983855318615 76.645506593599137 0 0 1 I I #
straight-curve $-1 -40.007546931682853 -6.0280983855318615 58.632140226278679 0.8660253999169214 0 -0.50000000669873634 I I #
edge $-1 $502 -12.5248649938261 $291 -6.0280983855318615 $418 $509 forward 7 unknown #
point $-1 54.651326029236735 -6.0280983855318615 7.1513419306456063 #
point $-1 49.159809737735912 -6.0280983855318615 7.1513419306456072 #
edge $-1 $510 1 $510 0 $294 $-1 forward 7 unknown #
vertex $-1 $295 $511 #
ellipse-curve $-1 51.331255305217951 -10.66864596288489 4.5713391505315402 0.50000000669873634 0 0.8660253999169214 0.4330126999584607 0 -0.25000000334936817 1 I I #
point $-1 52.338580583444802 -10.66864596288489 5.3160776943995902 #
edge $-1 $512 1 $512 0 $298 $-1 forward 7 unknown #
vertex $-1 $299 $513 #
ellipse-curve $-1 51.331255305217951 -7.8843174164730723 4.5713391505315402 0.50000000669873634 0 0.8660253999169214 0.4330126999584607 0 -0.25000000334936817 1 I I #
point $-1 52.338580583444802 -7.8843174164730723 5.3160776943995902 #
plane-surface $-1 54.651326029236735 0 0 -1 0 0 0 0 1 forward_v I I I I #
coedge $-1 $307 $305 $309 $439 reversed $201 $-1 #
edge $-1 $320 -7.1513419306456063 $441 7.1513419306456063 $319 $514 forward 7 unknown #
vertex $-1 $439 $515 #
straight-curve $-1 -54.651326029236735 -23.856979194219683 0 0 0 -1 I I #
edge $-1 $437 -23.856979194219683 $441 23.856979194219683 $435 $516 forward 7 unknown #
straight-curve $-1 0 -23.856979194219683 -7.1513419306456063 -1 0 0 I I #
vertex $-1 $312 $517 #
straight-curve $-1 0 23.856979194219683 -7.1513419306456063 1 0 0 I I #
point $-1 54.651326029236735 23.856979194219683 -7.1513419306456063 #
point $-1 54.651326029236735 -23.856979194219683 -7.1513419306456063 #
straight-curve $-1 -54.651326029236735 0 7.1513419306456063 0 -1 0 I I #
point $-1 -54.651326029236735 23.856979194219683 7.1513419306456063 #
point $-1 -54.651326029236735 -23.856979194219683 7.1513419306456063 #
straight-curve $-1 54.651326029236735 -23.856979194219683 0 0 0 -1 I I #
straight-curve $-1 54.651326029236735 23.856979194219683 0 0 0 -1 I I #
loop $-1 $-1 $335 $329 #
plane-surface $-1 0 -23.856979194219683 0 0 1 0 0 0 1 forward_v I I I I #
coedge $-1 $346 $337 $333 $454 forward $330 $-1 #
edge $-1 $458 -13.283150225890607 $341 -7.8645077107675458 $332 $518 forward 7 unknown #
edge $-1 $342 7.8645077107675458 $457 13.283150225890607 $452 $519 forward 7 unknown #
coedge $-1 $344 $335 $349 $467 reversed $450 $-1 #
coedge $-1 $335 $344 $346 $465 reversed $450 $-1 #
vertex $-1 $465 $520 #
vertex $-1 $336 $521 #
straight-curve $-1 -41.762210650369042 -23.856979194219683 0 0 0 1 I I #
straight-curve $-1 -21.631105325184521 -18.438336679096622 -7.1513419306456063 1 0 0 I I #
straight-curve $-1 -21.631105325184521 -18.438336679096622 7.1513419306456063 -1 0 0 I I #
point $-1 -41.762210650369042 -18.438336679096622 7.1513419306456063 #
point $-1 -41.762210650369042 -18.438336679096622 -7.1513419306456063 #
straight-curve $-1 -44.762210650369042 -23.856979194219683 0 0 0 -1 I I #
edge $-1 $457 41.762210650369042 $347 44.762210650369042 $456 $522 forward 7 unknown #
point $-1 -44.762210650369042 -23.856979194219683 -7.1513419306456063 #
edge $-1 $350 -44.762210650369042 $458 -41.762210650369042 $455 $523 forward 7 unknown #
point $-1 -44.762210650369042 -23.856979194219683 7.1513419306456063 #
plane-surface $-1 0 23.856979194219683 0 0 -1 0 0 0 -1 forward_v I I I I #
coedge $-1 $357 $361 $366 $480 forward $236 $-1 #
edge $-1 $524 -13.283150225890608 $371 -7.8645077107675476 $357 $525 forward 7 unknown #
coedge $-1 $359 $358 $478 $526 reversed $142 $-1 #
edge $-1 $374 7.8645077107675476 $527 13.283150225890608 $373 $528 forward 7 unknown #
straight-curve $-1 -41.762210650369042 18.438336679096626 0 0 0 -1 I I #
straight-curve $-1 -44.762210650369042 10.573828968329078 -7.1513419306456063 0 1 0 I I #
coedge $-1 $363 $373 $365 $479 forward $355 $-1 #
straight-curve $-1 -44.762210650369042 10.573828968329078 7.1513419306456063 0 -1 0 I I #
coedge $-1 $366 $365 $472 $526 forward $367 $-1 #
edge $-1 $527 41.762210650369042 $369 44.762210650369042 $365 $529 forward 7 unknown #
edge $-1 $368 -44.762210650369042 $524 -41.762210650369042 $366 $530 forward 7 unknown #
point $-1 -44.762210650369042 23.856979194219686 -7.1513419306456063 #
point $-1 -44.762210650369042 23.856979194219686 7.1513419306456063 #
point $-1 -41.762210650369042 18.438336679096626 -7.1513419306456063 #
point $-1 -41.762210650369042 18.438336679096626 7.1513419306456063 #
edge $-1 $486 39.903357851465437 $489 44.614216991192542 $379 $531 forward 7 unknown #
vertex $-1 $393 $532 #
straight-curve $-1 -57.090908875457714 18.438336679096619 7.1513419306456072 -1 0 0 I I #
edge $-1 $489 -11.421478892067562 $390 -2.6122366819905523 $389 $533 forward 7 unknown #
vertex $-1 $488 $534 #
straight-curve $-1 -54.651326029236728 18.438336679096619 2.4404827909185087 0.83867056331134215 0 0.54463904215088732 I I #
point $-1 -47.397239225630827 18.438336679096619 7.1513419306456063 #
point $-1 -54.651326029236735 9.6290944690196092 2.4404827909185043 #
straight-curve $-1 -54.651326029236735 0 7.1513419306456063 0 -1 0 I I #
vertex $-1 $396 $535 #
point $-1 -49.54262114009957 11.390942911035012 3.4323930080626344 #
vertex $-1 $400 $536 #
point $-1 -49.54262114009957 14.033715574058114 3.4323930080626344 #
vertex $-1 $404 $537 #
point $-1 -49.54262114009957 16.676488237081216 3.4323930080626344 #
coedge $-1 $419 $418 $411 $501 forward $408 $-1 #
edge $-1 $502 69.494164662953537 $505 72.664693128746833 $500 $538 forward 7 unknown #
vertex $-1 $423 $539 #
straight-curve $-1 7.3218899148717647 -12.5248649938261 7.1513419306456001 1 0 0 I I #
edge $-1 $505 -7.8866241489866091 $420 -1.389857540692371 $419 $540 forward 7 unknown #
vertex $-1 $504 $541 #
straight-curve $-1 -40.007546931682853 -12.5248649938261 58.632140226278679 -0.8660253999169214 0 0.50000000669873634 I I #
point $-1 49.159809737735912 -12.5248649938261 7.1513419306456072 #
point $-1 54.651326029236728 -6.0280983855318615 3.9808134648523037 #
straight-curve $-1 54.651326029236735 0 7.1513419306456063 0 1 0 I I #
vertex $-1 $426 $542 #
point $-1 51.764268005176412 -10.66864596288489 4.3213391471821723 #
vertex $-1 $430 $543 #
point $-1 51.764268005176412 -7.8843174164730723 4.3213391471821723 #
straight-curve $-1 -54.651326029236735 23.856979194219683 0 0 0 -1 I I #
point $-1 -54.651326029236735 -23.856979194219683 -7.1513419306456063 #
straight-curve $-1 -54.651326029236735 0 -7.1513419306456063 0 1 0 I I #
point $-1 -54.651326029236735 23.856979194219683 -7.1513419306456063 #
straight-curve $-1 -41.762210650369042 -10.573828968329076 7.1513419306456063 0 1 0 I I #
straight-curve $-1 -41.762210650369042 -10.573828968329076 -7.1513419306456063 0 -1 0 I I #
point $-1 -41.762210650369042 -23.856979194219683 -7.1513419306456063 #
point $-1 -41.762210650369042 -23.856979194219683 7.1513419306456063 #
straight-curve $-1 0 -23.856979194219683 -7.1513419306456063 -1 0 0 I I #
straight-curve $-1 0 -23.856979194219683 7.1513419306456063 1 0 0 I I #
vertex $-1 $526 $544 #
straight-curve $-1 -41.762210650369042 10.573828968329078 -7.1513419306456063 0 -1 0 I I #
edge $-1 $527 -7.1513419306456063 $524 7.1513419306456063 $478 $545 forward 7 unknown #
vertex $-1 $479 $546 #
straight-curve $-1 -41.762210650369042 10.573828968329078 7.1513419306456063 0 1 0 I I #
straight-curve $-1 0 23.856979194219683 7.1513419306456063 -1 0 0 I I #
straight-curve $-1 0 23.856979194219683 -7.1513419306456063 1 0 0 I I #
straight-curve $-1 -54.651326029236735 18.438336679096619 47.054699782111044 0 0 -1 I I #
point $-1 -54.651326029236735 18.438336679096619 7.1513419306456063 #
straight-curve $-1 -54.651326029236735 7.0168577870290569 2.4404827909185021 0 -1 0 I I #
point $-1 -54.651326029236735 18.438336679096619 2.4404827909185043 #
point $-1 -49.689636900679794 11.390942911035012 2.7407382053315192 #
point $-1 -49.689636900679794 14.033715574058114 2.7407382053315192 #
point $-1 -49.689636900679794 16.676488237081216 2.7407382053315192 #
straight-curve $-1 54.651326029236735 -12.5248649938261 76.645506593599137 0 0 -1 I I #
point $-1 54.651326029236735 -12.5248649938261 7.1513419306456063 #
straight-curve $-1 54.651326029236735 -4.6382408448394905 3.9808134648523037 0 1 0 I I #
point $-1 54.651326029236728 -12.5248649938261 3.9808134648523037 #
point $-1 51.08125530186858 -10.66864596288489 4.1383264505730795 #
point $-1 51.08125530186858 -7.8843174164730723 4.1383264505730795 #
point $-1 -41.762210650369042 23.856979194219686 -7.1513419306456063 #
straight-curve $-1 -41.762210650369042 23.856979194219683 0 0 0 -1 I I #
point $-1 -41.762210650369042 23.856979194219686 7.1513419306456063 #
End-of-ACIS-data 