500 0 15 0           
7 Unknown 11 ACIS 5.0 NT 24 Fri Mar 26 15:13:33 1999 
-1 9.9999999999999995e-007 1e-010 
body $-1 $15 $-1 $16 #
body $-1 $17 $-1 $18 #
body $-1 $19 $-1 $20 #
body $-1 $21 $-1 $22 #
body $-1 $23 $-1 $24 #
body $-1 $25 $-1 $26 #
body $-1 $27 $-1 $28 #
body $-1 $29 $-1 $30 #
body $-1 $31 $-1 $32 #
body $-1 $33 $-1 $34 #
body $-1 $35 $-1 $36 #
body $-1 $37 $-1 $38 #
body $-1 $39 $-1 $40 #
body $-1 $41 $-1 $42 #
body $-1 $43 $-1 $44 #
lump $-1 $-1 $45 $0 #
transform $-1 1 0 0 0 1 0 0 0 1 45.031891842402416 27.076168813484902 10.620581149508919 1 rotate no_reflect no_shear #
lump $-1 $-1 $46 $1 #
transform $-1 1 0 0 0 1 0 0 0 1 45.031891842402416 27.076168813484902 10.620581149508919 1 rotate no_reflect no_shear #
lump $-1 $-1 $47 $2 #
transform $-1 1 0 0 0 1 0 0 0 1 45.031891842402416 27.076168813484902 10.620581149508919 1 rotate no_reflect no_shear #
lump $-1 $-1 $48 $3 #
transform $-1 1 0 0 0 1 0 0 0 1 45.031891842402416 27.076168813484902 10.620581149508919 1 rotate no_reflect no_shear #
lump $-1 $-1 $49 $4 #
transform $-1 1 0 0 0 1 0 0 0 1 45.031891842402416 27.076168813484902 10.620581149508919 1 rotate no_reflect no_shear #
lump $-1 $-1 $50 $5 #
transform $-1 1 0 0 0 1 0 0 0 1 45.031891842402416 27.076168813484902 10.620581149508919 1 rotate no_reflect no_shear #
lump $-1 $-1 $51 $6 #
transform $-1 1 0 0 0 1 0 0 0 1 45.031891842402416 27.076168813484902 10.620581149508919 1 rotate no_reflect no_shear #
lump $-1 $-1 $52 $7 #
transform $-1 1 0 0 0 1 0 0 0 1 45.031891842402416 27.076168813484902 10.620581149508919 1 rotate no_reflect no_shear #
lump $-1 $-1 $53 $8 #
transform $-1 1 0 0 0 1 0 0 0 1 45.031891842402416 27.076168813484902 10.620581149508919 1 rotate no_reflect no_shear #
lump $-1 $-1 $54 $9 #
transform $-1 1 0 0 0 1 0 0 0 1 45.031891842402416 27.076168813484902 10.620581149508919 1 rotate no_reflect no_shear #
lump $-1 $-1 $55 $10 #
transform $-1 1 0 0 0 1 0 0 0 1 45.031891842402416 27.076168813484902 10.620581149508919 1 rotate no_reflect no_shear #
lump $-1 $-1 $56 $11 #
transform $-1 1 0 0 0 1 0 0 0 1 45.031891842402416 27.076168813484902 10.620581149508919 1 rotate no_reflect no_shear #
lump $-1 $-1 $57 $12 #
transform $-1 1 0 0 0 1 0 0 0 1 45.031891842402416 27.076168813484902 10.620581149508919 1 rotate no_reflect no_shear #
lump $-1 $-1 $58 $13 #
transform $-1 1 0 0 0 1 0 0 0 1 45.031891842402416 27.076168813484902 10.620581149508919 1 rotate no_reflect no_shear #
lump $-1 $-1 $59 $14 #
transform $-1 1 0 0 0 1 0 0 0 1 45.031891842402416 27.076168813484902 10.620581149508919 1 rotate no_reflect no_shear #
shell $-1 $-1 $-1 $60 $-1 $15 #
shell $-1 $-1 $-1 $61 $-1 $17 #
shell $-1 $-1 $-1 $62 $-1 $19 #
shell $-1 $-1 $-1 $63 $-1 $21 #
shell $-1 $-1 $-1 $64 $-1 $23 #
shell $-1 $-1 $-1 $65 $-1 $25 #
shell $-1 $-1 $-1 $66 $-1 $27 #
shell $-1 $-1 $-1 $67 $-1 $29 #
shell $-1 $-1 $-1 $68 $-1 $31 #
shell $-1 $-1 $-1 $69 $-1 $33 #
shell $-1 $-1 $-1 $70 $-1 $35 #
shell $-1 $-1 $-1 $71 $-1 $37 #
shell $-1 $-1 $-1 $72 $-1 $39 #
shell $-1 $-1 $-1 $73 $-1 $41 #
shell $-1 $-1 $-1 $74 $-1 $43 #
face $-1 $75 $76 $45 $-1 $77 forward single #
face $-1 $78 $79 $46 $-1 $80 forward single #
face $-1 $81 $82 $47 $-1 $83 forward single #
face $-1 $84 $85 $48 $-1 $86 reversed single #
face $-1 $87 $88 $49 $-1 $89 forward single #
face $-1 $90 $91 $50 $-1 $92 forward single #
face $-1 $93 $94 $51 $-1 $95 reversed single #
face $-1 $96 $97 $52 $-1 $98 forward single #
face $-1 $99 $100 $53 $-1 $101 forward single #
face $-1 $102 $103 $54 $-1 $104 reversed single #
face $-1 $105 $106 $55 $-1 $107 forward single #
face $-1 $108 $109 $56 $-1 $110 forward single #
face $-1 $111 $112 $57 $-1 $113 reversed single #
face $-1 $114 $115 $58 $-1 $116 forward single #
face $-1 $117 $118 $59 $-1 $119 forward single #
face $-1 $120 $121 $45 $-1 $122 reversed single #
loop $-1 $-1 $123 $60 #
plane-surface $-1 0 0 10.620581149508919 0 0 1 1 0 0 forward_v I I I I #
face $-1 $124 $125 $46 $-1 $126 reversed single #
loop $-1 $-1 $127 $61 #
plane-surface $-1 0 -20.326072692068266 8.4233546963898451 0 0 1 1 0 0 forward_v I I I I #
face $-1 $128 $129 $47 $-1 $130 reversed single #
loop $-1 $-1 $131 $62 #
plane-surface $-1 0 20.326072692068262 8.4233546963898451 0 0 1 1 0 0 forward_v I I I I #
face $-1 $132 $133 $48 $-1 $134 reversed single #
loop $-1 $-1 $135 $63 #
plane-surface $-1 -120.56573717755111 -7.0742343426466938 55.901169069831781 0 -1 0 0.83867057594974714 0 -0.54463902268945019 forward_v I I I I #
face $-1 $136 $137 $49 $-1 $138 forward single #
loop $-1 $139 $140 $64 #
cone-surface $-1 -43.012756865700737 -11.718335934078791 8.2188201328897552 0.83867057594974714 0 -0.54463902268945019 0.2723195113447251 0 0.41933528797487357 1 I I 0 1 0.5 forward I I I I #
face $-1 $141 $142 $50 $-1 $143 forward single #
loop $-1 $144 $145 $65 #
cone-surface $-1 -43.012756865700737 -8.9318749792195327 8.2188201328897552 0.83867057594974714 0 -0.54463902268945019 0.2723195113447251 0 0.41933528797487357 1 I I 0 1 0.5 forward I I I I #
face $-1 $146 $147 $51 $-1 $148 reversed single #
loop $-1 $-1 $149 $66 #
plane-surface $-1 -120.56573717755111 7.0742343426466974 55.901169069831781 0 1 0 -0.83867057594974714 0 0.54463902268945019 forward_v I I I I #
face $-1 $150 $151 $52 $-1 $152 forward single #
loop $-1 $153 $154 $67 #
cone-surface $-1 -43.012756865700737 8.9318749792195327 8.2188201328897552 0.83867057594974714 0 -0.54463902268945019 0.2723195113447251 0 0.41933528797487357 1 I I 0 1 0.5 forward I I I I #
face $-1 $155 $156 $53 $-1 $157 forward single #
loop $-1 $158 $159 $68 #
cone-surface $-1 -43.012756865700737 11.718335934078791 8.2188201328897552 0.83867057594974714 0 -0.54463902268945019 0.2723195113447251 0 0.41933528797487357 1 I I 0 1 0.5 forward I I I I #
face $-1 $160 $161 $54 $-1 $162 reversed single #
loop $-1 $-1 $163 $69 #
plane-surface $-1 71.513486051744962 -7.0742343426466938 131.43501440498051 0 -1 0 -0.83867057594974714 0 -0.54463902268945019 forward_v I I I I #
face $-1 $164 $165 $55 $-1 $166 forward single #
loop $-1 $167 $168 $70 #
cone-surface $-1 43.012756865700737 -11.718335934078791 8.2188201328897694 -0.83867057594974714 0 -0.54463902268945019 0.2723195113447251 0 -0.41933528797487357 1 I I 0 1 0.5 forward I I I I #
face $-1 $169 $170 $56 $-1 $171 forward single #
loop $-1 $172 $173 $71 #
cone-surface $-1 43.012756865700737 -8.9318749792195327 8.2188201328897694 -0.83867057594974714 0 -0.54463902268945019 0.2723195113447251 0 -0.41933528797487357 1 I I 0 1 0.5 forward I I I I #
face $-1 $174 $175 $57 $-1 $176 reversed single #
loop $-1 $-1 $177 $72 #
plane-surface $-1 -4.0203592834037494 10.325105456649165 82.382763279174355 0.83867057594974714 0 0.54463902268945019 0.54463902268945019 0 -0.83867057594974714 forward_v I I I I #
face $-1 $178 $179 $58 $-1 $180 forward single #
loop $-1 $181 $182 $73 #
cone-surface $-1 43.012756865700737 8.9318749792195327 8.2188201328897694 -0.83867057594974714 0 -0.54463902268945019 0.2723195113447251 0 -0.41933528797487357 1 I I 0 1 0.5 forward I I I I #
face $-1 $183 $184 $59 $-1 $185 forward single #
loop $-1 $186 $187 $74 #
cone-surface $-1 43.012756865700737 11.718335934078791 8.2188201328897694 -0.83867057594974714 0 -0.54463902268945019 0.2723195113447251 0 -0.41933528797487357 1 I I 0 1 0.5 forward I I I I #
face $-1 $188 $189 $45 $-1 $190 reversed single #
loop $-1 $-1 $191 $75 #
plane-surface $-1 0 0 -10.620581149508919 0 0 1 1 0 0 forward_v I I I I #
coedge $-1 $192 $193 $194 $195 forward $76 $-1 #
face $-1 $196 $197 $46 $-1 $198 reversed single #
loop $-1 $-1 $199 $78 #
plane-surface $-1 0 -20.326072692068266 4.0669295430926393 0 0 1 1 0 0 forward_v I I I I #
coedge $-1 $200 $201 $202 $203 reversed $79 $-1 #
face $-1 $204 $205 $47 $-1 $206 reversed single #
loop $-1 $-1 $207 $81 #
plane-surface $-1 0 20.326072692068262 4.0669295430926393 0 0 1 1 0 0 forward_v I I I I #
coedge $-1 $208 $209 $210 $211 reversed $82 $-1 #
face $-1 $212 $213 $48 $-1 $214 forward single #
loop $-1 $-1 $215 $84 #
plane-surface $-1 -45.031891842402402 -10.325105456649162 6.8489179440256294 -0.83867057594974714 0 0.54463902268945019 0.54463902268945019 0 0.83867057594974714 forward_v I I I I #
coedge $-1 $216 $217 $218 $219 reversed $85 $-1 #
face $-1 $-1 $220 $49 $-1 $221 forward single #
loop $-1 $222 $223 $87 #
cone-surface $-1 -42.008627567920271 -11.718335934078791 7.5667309633398681 0.83867057594974714 0 -0.54463902268945019 0.13615975567236255 0 0.20966764398743679 1 I I -0.70710678118654746 0.70710678118654746 0.25 forward I I I I #
loop $-1 $-1 $224 $64 #
coedge $-1 $140 $140 $225 $226 reversed $88 $-1 #
face $-1 $-1 $227 $50 $-1 $228 forward single #
loop $-1 $229 $230 $90 #
cone-surface $-1 -42.008627567920271 -8.9318749792195327 7.5667309633398681 0.83867057594974714 0 -0.54463902268945019 0.13615975567236255 0 0.20966764398743679 1 I I -0.70710678118654746 0.70710678118654746 0.25 forward I I I I #
loop $-1 $-1 $231 $65 #
coedge $-1 $145 $145 $232 $233 reversed $91 $-1 #
face $-1 $234 $235 $51 $-1 $236 forward single #
loop $-1 $-1 $237 $93 #
plane-surface $-1 -45.031891842402402 10.325105456649165 6.8489179440256294 -0.83867057594974714 0 0.54463902268945019 0.54463902268945019 0 0.83867057594974714 forward_v I I I I #
coedge $-1 $238 $239 $240 $241 reversed $94 $-1 #
face $-1 $-1 $242 $52 $-1 $243 forward single #
loop $-1 $244 $245 $96 #
cone-surface $-1 -42.008627567920271 8.9318749792195327 7.5667309633398681 0.83867057594974714 0 -0.54463902268945019 0.13615975567236255 0 0.20966764398743679 1 I I -0.70710678118654746 0.70710678118654746 0.25 forward I I I I #
loop $-1 $-1 $246 $67 #
coedge $-1 $154 $154 $247 $248 reversed $97 $-1 #
face $-1 $-1 $249 $53 $-1 $250 forward single #
loop $-1 $251 $252 $99 #
cone-surface $-1 -42.008627567920271 11.718335934078791 7.5667309633398681 0.83867057594974714 0 -0.54463902268945019 0.13615975567236255 0 0.20966764398743679 1 I I -0.70710678118654746 0.70710678118654746 0.25 forward I I I I #
loop $-1 $-1 $253 $68 #
coedge $-1 $159 $159 $254 $255 reversed $100 $-1 #
face $-1 $256 $257 $54 $-1 $258 reversed single #
loop $-1 $-1 $259 $102 #
plane-surface $-1 -4.0203592834037494 -10.325105456649162 82.382763279174355 0.83867057594974714 0 0.54463902268945019 0.54463902268945019 0 -0.83867057594974714 forward_v I I I I #
coedge $-1 $260 $261 $262 $263 reversed $103 $-1 #
face $-1 $-1 $264 $55 $-1 $265 forward single #
loop $-1 $266 $267 $105 #
cone-surface $-1 42.008627567920271 -11.718335934078791 7.5667309633398823 -0.83867057594974714 0 -0.54463902268945019 0.13615975567236255 0 -0.20966764398743679 1 I I -0.70710678118654746 0.70710678118654746 0.25 forward I I I I #
loop $-1 $-1 $268 $70 #
coedge $-1 $168 $168 $269 $270 reversed $106 $-1 #
face $-1 $-1 $271 $56 $-1 $272 forward single #
loop $-1 $273 $274 $108 #
cone-surface $-1 42.008627567920271 -8.9318749792195327 7.5667309633398823 -0.83867057594974714 0 -0.54463902268945019 0.13615975567236255 0 -0.20966764398743679 1 I I -0.70710678118654746 0.70710678118654746 0.25 forward I I I I #
loop $-1 $-1 $275 $71 #
coedge $-1 $173 $173 $276 $277 reversed $109 $-1 #
face $-1 $278 $279 $57 $-1 $280 forward single #
loop $-1 $-1 $281 $111 #
plane-surface $-1 71.513486051744962 7.0742343426466974 131.43501440498051 0 1 0 0.83867057594974714 0 0.54463902268945019 forward_v I I I I #
coedge $-1 $282 $283 $284 $285 reversed $112 $-1 #
face $-1 $-1 $286 $58 $-1 $287 forward single #
loop $-1 $288 $289 $114 #
cone-surface $-1 42.008627567920271 8.9318749792195327 7.5667309633398823 -0.83867057594974714 0 -0.54463902268945019 0.13615975567236255 0 -0.20966764398743679 1 I I -0.70710678118654746 0.70710678118654746 0.25 forward I I I I #
loop $-1 $-1 $290 $73 #
coedge $-1 $182 $182 $291 $292 reversed $115 $-1 #
face $-1 $-1 $293 $59 $-1 $294 forward single #
loop $-1 $295 $296 $117 #
cone-surface $-1 42.008627567920271 11.718335934078791 7.5667309633398823 -0.83867057594974714 0 -0.54463902268945019 0.13615975567236255 0 -0.20966764398743679 1 I I -0.70710678118654746 0.70710678118654746 0.25 forward I I I I #
loop $-1 $-1 $297 $74 #
coedge $-1 $187 $187 $298 $299 reversed $118 $-1 #
face $-1 $300 $301 $45 $-1 $302 reversed single #
loop $-1 $-1 $303 $120 #
plane-surface $-1 0 -27.076168813484902 0 0 1 0 0 0 1 forward_v I I I I #
coedge $-1 $304 $305 $306 $307 forward $121 $-1 #
coedge $-1 $308 $123 $309 $310 forward $76 $-1 #
coedge $-1 $123 $308 $311 $312 forward $76 $-1 #
coedge $-1 $313 $314 $123 $195 reversed $315 $-1 #
edge $-1 $316 -27.076168813484902 $317 27.076168813484902 $194 $318 forward 7 unknown #
face $-1 $319 $320 $46 $-1 $321 reversed single #
loop $-1 $-1 $322 $124 #
plane-surface $-1 0 -13.57597657065163 6.2451421197412422 0 -1 0 0 0 -1 forward_v I I I I #
coedge $-1 $323 $324 $325 $326 reversed $125 $-1 #
coedge $-1 $327 $127 $328 $329 forward $79 $-1 #
coedge $-1 $127 $327 $330 $331 reversed $79 $-1 #
coedge $-1 $332 $333 $127 $203 forward $334 $-1 #
edge $-1 $335 3.4129402246174969 $336 16.913132467450769 $202 $337 forward 7 unknown #
face $-1 $338 $339 $47 $-1 $340 reversed single #
loop $-1 $-1 $341 $128 #
plane-surface $-1 0 13.575976570651626 6.2451421197412422 0 1 0 0 0 1 forward_v I I I I #
coedge $-1 $342 $343 $344 $345 reversed $129 $-1 #
coedge $-1 $346 $131 $347 $348 reversed $82 $-1 #
coedge $-1 $131 $346 $341 $349 forward $82 $-1 #
coedge $-1 $350 $351 $131 $211 forward $339 $-1 #
edge $-1 $352 -16.913132467450765 $353 -3.4129402246174951 $210 $354 forward 7 unknown #
face $-1 $355 $356 $48 $-1 $357 reversed single #
loop $-1 $-1 $358 $132 #
plane-surface $-1 0 0 10.620581149508919 0 0 1 1 0 0 forward_v I I I I #
coedge $-1 $359 $360 $361 $362 reversed $133 $-1 #
coedge $-1 $217 $135 $363 $364 reversed $85 $-1 #
coedge $-1 $135 $216 $359 $365 reversed $85 $-1 #
coedge $-1 $361 $366 $135 $219 forward $356 $-1 #
edge $-1 $367 17.330003385406972 $368 21.101666590890282 $218 $369 forward 7 unknown #
loop $-1 $-1 $225 $136 #
plane-surface $-1 -45.031891842402402 -10.325105456649162 6.8489179440256294 -0.83867057594974714 0 0.54463902268945019 0.54463902268945019 0 0.83867057594974714 forward_v I I I I #
loop $-1 $-1 $370 $87 #
coedge $-1 $223 $223 $224 $371 reversed $137 $-1 #
coedge $-1 $224 $224 $223 $371 forward $139 $-1 #
coedge $-1 $225 $225 $140 $226 forward $220 $-1 #
edge $-1 $372 0 $372 6.2831853071796004 $225 $373 forward 7 unknown #
loop $-1 $-1 $232 $141 #
plane-surface $-1 -45.031891842402402 -10.325105456649162 6.8489179440256294 -0.83867057594974714 0 0.54463902268945019 0.54463902268945019 0 0.83867057594974714 forward_v I I I I #
loop $-1 $-1 $374 $90 #
coedge $-1 $230 $230 $231 $375 reversed $142 $-1 #
coedge $-1 $231 $231 $230 $375 forward $144 $-1 #
coedge $-1 $232 $232 $145 $233 forward $227 $-1 #
edge $-1 $376 0 $376 6.2831853071796004 $232 $377 forward 7 unknown #
face $-1 $378 $379 $51 $-1 $380 forward single #
loop $-1 $-1 $240 $146 #
plane-surface $-1 0 0 10.620581149508919 0 0 1 1 0 0 forward_v I I I I #
coedge $-1 $381 $382 $383 $384 reversed $147 $-1 #
coedge $-1 $239 $149 $385 $386 reversed $94 $-1 #
coedge $-1 $149 $238 $381 $387 reversed $94 $-1 #
coedge $-1 $383 $388 $149 $241 forward $235 $-1 #
edge $-1 $389 15.250976746373141 $390 17.700323392190455 $240 $391 forward 7 unknown #
loop $-1 $-1 $247 $150 #
plane-surface $-1 -45.031891842402402 10.325105456649165 6.8489179440256294 -0.83867057594974714 0 0.54463902268945019 0.54463902268945019 0 0.83867057594974714 forward_v I I I I #
loop $-1 $-1 $392 $96 #
coedge $-1 $245 $245 $246 $393 reversed $151 $-1 #
coedge $-1 $246 $246 $245 $393 forward $153 $-1 #
coedge $-1 $247 $247 $154 $248 forward $242 $-1 #
edge $-1 $394 0 $394 6.2831853071796004 $247 $395 forward 7 unknown #
loop $-1 $-1 $254 $155 #
plane-surface $-1 -45.031891842402402 10.325105456649165 6.8489179440256294 -0.83867057594974714 0 0.54463902268945019 0.54463902268945019 0 0.83867057594974714 forward_v I I I I #
loop $-1 $-1 $396 $99 #
coedge $-1 $252 $252 $253 $397 reversed $156 $-1 #
coedge $-1 $253 $253 $252 $397 forward $158 $-1 #
coedge $-1 $254 $254 $159 $255 forward $249 $-1 #
edge $-1 $398 0 $398 6.2831853071796004 $254 $399 forward 7 unknown #
face $-1 $400 $401 $54 $-1 $402 forward single #
loop $-1 $-1 $403 $160 #
plane-surface $-1 45.031891842402416 0 0 -1 0 0 0 0 1 forward_v I I I I #
coedge $-1 $404 $405 $406 $407 reversed $161 $-1 #
coedge $-1 $261 $163 $408 $409 reversed $103 $-1 #
coedge $-1 $163 $260 $404 $410 reversed $103 $-1 #
coedge $-1 $406 $411 $163 $263 forward $412 $-1 #
edge $-1 $413 -9.2751488165299349 $414 -6.8258021707126275 $262 $415 forward 7 unknown #
loop $-1 $-1 $269 $164 #
plane-surface $-1 -4.0203592834037494 -10.325105456649162 82.382763279174355 0.83867057594974714 0 0.54463902268945019 0.54463902268945019 0 -0.83867057594974714 forward_v I I I I #
loop $-1 $-1 $416 $105 #
coedge $-1 $267 $267 $268 $417 reversed $165 $-1 #
coedge $-1 $268 $268 $267 $417 forward $167 $-1 #
coedge $-1 $269 $269 $168 $270 forward $264 $-1 #
edge $-1 $418 0 $418 6.2831853071796004 $269 $419 forward 7 unknown #
loop $-1 $-1 $276 $169 #
plane-surface $-1 -4.0203592834037494 -10.325105456649162 82.382763279174355 0.83867057594974714 0 0.54463902268945019 0.54463902268945019 0 -0.83867057594974714 forward_v I I I I #
loop $-1 $-1 $420 $108 #
coedge $-1 $274 $274 $275 $421 reversed $170 $-1 #
coedge $-1 $275 $275 $274 $421 forward $172 $-1 #
coedge $-1 $276 $276 $173 $277 forward $271 $-1 #
edge $-1 $422 0 $422 6.2831853071796004 $276 $423 forward 7 unknown #
face $-1 $424 $425 $57 $-1 $426 reversed single #
loop $-1 $-1 $427 $174 #
plane-surface $-1 0 0 10.620581149508919 0 0 1 1 0 0 forward_v I I I I #
coedge $-1 $428 $429 $430 $431 reversed $175 $-1 #
coedge $-1 $432 $177 $433 $434 forward $112 $-1 #
coedge $-1 $177 $432 $428 $435 forward $112 $-1 #
coedge $-1 $430 $427 $177 $285 forward $279 $-1 #
edge $-1 $436 -8.4134238423270507 $437 -1.9116816143221147 $284 $438 forward 7 unknown #
loop $-1 $-1 $291 $178 #
plane-surface $-1 -4.0203592834037494 10.325105456649165 82.382763279174355 0.83867057594974714 0 0.54463902268945019 0.54463902268945019 0 -0.83867057594974714 forward_v I I I I #
loop $-1 $-1 $439 $114 #
coedge $-1 $289 $289 $290 $440 reversed $179 $-1 #
coedge $-1 $290 $290 $289 $440 forward $181 $-1 #
coedge $-1 $291 $291 $182 $292 forward $286 $-1 #
edge $-1 $441 0 $441 6.2831853071796004 $291 $442 forward 7 unknown #
loop $-1 $-1 $298 $183 #
plane-surface $-1 -4.0203592834037494 10.325105456649165 82.382763279174355 0.83867057594974714 0 0.54463902268945019 0.54463902268945019 0 -0.83867057594974714 forward_v I I I I #
loop $-1 $-1 $443 $117 #
coedge $-1 $296 $296 $297 $444 reversed $184 $-1 #
coedge $-1 $297 $297 $296 $444 forward $186 $-1 #
coedge $-1 $298 $298 $187 $299 forward $293 $-1 #
edge $-1 $445 0 $445 6.2831853071796004 $298 $446 forward 7 unknown #
face $-1 $447 $448 $45 $-1 $449 reversed single #
loop $-1 $-1 $450 $188 #
plane-surface $-1 -45.031891842402416 0 0 1 0 0 0 0 -1 forward_v I I I I #
coedge $-1 $451 $311 $452 $453 forward $189 $-1 #
coedge $-1 $454 $191 $451 $455 forward $121 $-1 #
coedge $-1 $191 $454 $456 $457 forward $121 $-1 #
coedge $-1 $314 $313 $191 $307 reversed $315 $-1 #
edge $-1 $458 -27.076168813484902 $459 27.076168813484902 $306 $460 forward 7 unknown #
coedge $-1 $193 $192 $461 $462 forward $76 $-1 #
coedge $-1 $463 $464 $192 $310 reversed $448 $-1 #
edge $-1 $317 -45.031891842402416 $465 45.031891842402416 $309 $466 forward 7 unknown #
coedge $-1 $303 $467 $193 $312 reversed $189 $-1 #
edge $-1 $468 -45.031891842402416 $316 45.031891842402416 $311 $469 forward 7 unknown #
coedge $-1 $306 $194 $467 $470 forward $315 $-1 #
coedge $-1 $194 $306 $463 $471 reversed $315 $-1 #
loop $-1 $-1 $313 $447 #
vertex $-1 $195 $472 #
vertex $-1 $195 $473 #
straight-curve $-1 45.031891842402416 0 10.620581149508919 0 1 0 I I #
face $-1 $474 $475 $46 $-1 $476 reversed single #
loop $-1 $-1 $477 $196 #
plane-surface $-1 -45.031891842402416 0 0 1 0 0 0 0 -1 forward_v I I I I #
coedge $-1 $478 $328 $333 $479 reversed $197 $-1 #
coedge $-1 $480 $199 $481 $482 reversed $125 $-1 #
coedge $-1 $199 $480 $478 $483 forward $125 $-1 #
coedge $-1 $333 $332 $199 $326 forward $334 $-1 #
edge $-1 $484 -16.913132467450769 $485 -3.4129402246174969 $325 $486 forward 7 unknown #
coedge $-1 $201 $200 $477 $487 reversed $79 $-1 #
coedge $-1 $322 $488 $200 $329 reversed $197 $-1 #
edge $-1 $335 -45.031891842402416 $489 45.031891842402416 $328 $490 forward 7 unknown #
coedge $-1 $491 $492 $201 $331 forward $475 $-1 #
edge $-1 $336 -45.031891842402416 $493 45.031891842402416 $330 $494 forward 7 unknown #
coedge $-1 $325 $202 $492 $495 forward $334 $-1 #
coedge $-1 $202 $325 $322 $479 forward $334 $-1 #
loop $-1 $-1 $202 $474 #
vertex $-1 $203 $496 #
vertex $-1 $495 $497 #
straight-curve $-1 45.031891842402416 -10.163036346034133 8.4233546963898451 0 -1 0 I I #
face $-1 $498 $499 $47 $-1 $500 reversed single #
loop $-1 $-1 $210 $204 #
plane-surface $-1 45.031891842402416 0 0 -1 0 0 0 0 1 forward_v I I I I #
coedge $-1 $501 $502 $209 $349 reversed $205 $-1 #
coedge $-1 $503 $207 $504 $505 forward $129 $-1 #
coedge $-1 $207 $503 $506 $507 reversed $129 $-1 #
coedge $-1 $351 $350 $207 $345 forward $339 $-1 #
edge $-1 $508 3.4129402246174951 $509 16.913132467450765 $344 $510 forward 7 unknown #
coedge $-1 $209 $208 $511 $512 reversed $82 $-1 #
coedge $-1 $513 $514 $208 $348 forward $515 $-1 #
edge $-1 $516 -45.031891842402416 $352 45.031891842402416 $347 $517 forward 7 unknown #
edge $-1 $518 -45.031891842402416 $353 45.031891842402416 $341 $519 forward 7 unknown #
coedge $-1 $344 $210 $502 $520 forward $339 $-1 #
coedge $-1 $210 $344 $513 $521 reversed $339 $-1 #
vertex $-1 $521 $522 #
vertex $-1 $211 $523 #
straight-curve $-1 45.031891842402416 10.163036346034131 8.4233546963898451 0 -1 0 I I #
face $-1 $-1 $524 $48 $-1 $525 forward single #
loop $-1 $-1 $526 $212 #
plane-surface $-1 -45.031891842402416 0 0 1 0 0 0 0 -1 forward_v I I I I #
coedge $-1 $527 $528 $529 $530 forward $213 $-1 #
coedge $-1 $531 $215 $217 $365 forward $133 $-1 #
coedge $-1 $215 $531 $532 $533 forward $133 $-1 #
coedge $-1 $526 $218 $215 $362 forward $356 $-1 #
edge $-1 $368 1.9116816143221129 $534 8.4134238423270489 $361 $535 forward 7 unknown #
coedge $-1 $528 $527 $216 $364 forward $213 $-1 #
edge $-1 $536 -17.700323392190455 $367 -15.250976746373141 $363 $537 forward 7 unknown #
edge $-1 $368 -2.636201369357039e-014 $536 4.4971927162367571 $217 $538 forward 7 unknown #
coedge $-1 $218 $526 $528 $539 reversed $356 $-1 #
vertex $-1 $539 $540 #
vertex $-1 $219 $541 #
straight-curve $-1 -45.031891842402416 -7.0742343426466938 27.95058453491589 0 0 -1 I I #
coedge $-1 $370 $370 $-1 $542 reversed $222 $-1 #
edge $-1 $543 0 $543 6.2831853071796004 $223 $544 forward 7 unknown #
vertex $-1 $226 $545 #
ellipse-curve $-1 -43.807218519493752 -11.718335934078791 8.7347495467672722 -0.83867057594974714 0 0.54463902268945019 0.2723195113447251 0 0.41933528797487357 1 I I #
coedge $-1 $374 $374 $-1 $546 reversed $229 $-1 #
edge $-1 $547 0 $547 6.2831853071796004 $230 $548 forward 7 unknown #
vertex $-1 $233 $549 #
ellipse-curve $-1 -43.807218519493752 -8.9318749792195327 8.7347495467672722 -0.83867057594974714 0 0.54463902268945019 0.2723195113447251 0 0.41933528797487357 1 I I #
face $-1 $-1 $550 $51 $-1 $551 reversed single #
loop $-1 $-1 $552 $234 #
plane-surface $-1 0 13.575976570651626 6.2451421197412422 0 1 0 0 0 1 forward_v I I I I #
coedge $-1 $553 $237 $239 $387 forward $147 $-1 #
coedge $-1 $237 $553 $552 $554 reversed $147 $-1 #
coedge $-1 $555 $240 $237 $384 forward $235 $-1 #
edge $-1 $390 1.9116816143221147 $556 8.4134238423270507 $383 $557 forward 7 unknown #
coedge $-1 $558 $559 $238 $386 forward $550 $-1 #
edge $-1 $560 -21.101666590890282 $389 -17.330003385406972 $385 $561 forward 7 unknown #
edge $-1 $390 -4.4971927162367571 $560 2.636201369357039e-014 $239 $562 forward 7 unknown #
coedge $-1 $240 $555 $558 $563 forward $235 $-1 #
vertex $-1 $386 $564 #
vertex $-1 $241 $565 #
straight-curve $-1 -60.282868588775557 7.0742343426466974 10.620581149508919 1 0 0 I I #
coedge $-1 $392 $392 $-1 $566 reversed $244 $-1 #
edge $-1 $567 0 $567 6.2831853071796004 $245 $568 forward 7 unknown #
vertex $-1 $248 $569 #
ellipse-curve $-1 -43.807218519493752 8.9318749792195327 8.7347495467672722 -0.83867057594974714 0 0.54463902268945019 0.2723195113447251 0 0.41933528797487357 1 I I #
coedge $-1 $396 $396 $-1 $570 reversed $251 $-1 #
edge $-1 $571 0 $571 6.2831853071796004 $252 $572 forward 7 unknown #
vertex $-1 $255 $573 #
ellipse-curve $-1 -43.807218519493752 11.718335934078791 8.7347495467672722 -0.83867057594974714 0 0.54463902268945019 0.2723195113447251 0 0.41933528797487357 1 I I #
face $-1 $-1 $412 $54 $-1 $574 forward single #
loop $-1 $-1 $575 $256 #
plane-surface $-1 0 -13.57597657065163 6.2451421197412422 0 -1 0 0 0 -1 forward_v I I I I #
coedge $-1 $576 $577 $578 $579 forward $257 $-1 #
coedge $-1 $580 $259 $261 $410 forward $161 $-1 #
coedge $-1 $259 $580 $575 $581 reversed $161 $-1 #
coedge $-1 $582 $262 $259 $407 forward $412 $-1 #
edge $-1 $414 1.9116816143221129 $583 8.4134238423270489 $406 $584 forward 7 unknown #
coedge $-1 $577 $576 $260 $409 forward $257 $-1 #
edge $-1 $585 -58.868589258464624 $413 -55.096926052981331 $408 $586 forward 7 unknown #
edge $-1 $414 85.566590968568093 $585 90.063783684804861 $261 $587 forward 7 unknown #
coedge $-1 $262 $582 $577 $588 forward $412 $-1 #
loop $-1 $-1 $582 $400 #
vertex $-1 $409 $589 #
vertex $-1 $263 $590 #
straight-curve $-1 35.756743025872481 -7.0742343426466938 10.620581149508922 -1 0 0 I I #
coedge $-1 $416 $416 $-1 $591 reversed $266 $-1 #
edge $-1 $592 0 $592 6.2831853071796004 $267 $593 forward 7 unknown #
vertex $-1 $270 $594 #
ellipse-curve $-1 43.807218519493752 -11.718335934078791 8.7347495467672829 0.83867057594974714 0 0.54463902268945019 0.2723195113447251 0 -0.41933528797487357 1 I I #
coedge $-1 $420 $420 $-1 $595 reversed $273 $-1 #
edge $-1 $596 0 $596 6.2831853071796004 $274 $597 forward 7 unknown #
vertex $-1 $277 $598 #
ellipse-curve $-1 43.807218519493752 -8.9318749792195327 8.7347495467672829 0.83867057594974714 0 0.54463902268945019 0.2723195113447251 0 -0.41933528797487357 1 I I #
face $-1 $-1 $599 $57 $-1 $600 forward single #
loop $-1 $-1 $601 $278 #
plane-surface $-1 45.031891842402416 0 0 -1 0 0 0 0 1 forward_v I I I I #
coedge $-1 $284 $602 $603 $604 forward $279 $-1 #
coedge $-1 $429 $281 $283 $435 reversed $175 $-1 #
coedge $-1 $281 $428 $605 $606 reversed $175 $-1 #
coedge $-1 $602 $284 $281 $431 forward $279 $-1 #
edge $-1 $437 6.8258021707126275 $607 9.2751488165299349 $430 $608 forward 7 unknown #
coedge $-1 $283 $282 $609 $610 reversed $112 $-1 #
coedge $-1 $603 $611 $282 $434 reversed $599 $-1 #
edge $-1 $436 85.566590968568093 $612 90.063783684804861 $433 $613 forward 7 unknown #
edge $-1 $614 -90.063783684804861 $437 -85.566590968568093 $428 $615 forward 7 unknown #
vertex $-1 $604 $616 #
vertex $-1 $285 $617 #
straight-curve $-1 42.582545196585109 5.1625527283245827 10.620581149508922 0 -1 0 I I #
coedge $-1 $439 $439 $-1 $618 reversed $288 $-1 #
edge $-1 $619 0 $619 6.2831853071796004 $289 $620 forward 7 unknown #
vertex $-1 $292 $621 #
ellipse-curve $-1 43.807218519493752 8.9318749792195327 8.7347495467672829 0.83867057594974714 0 0.54463902268945019 0.2723195113447251 0 -0.41933528797487357 1 I I #
coedge $-1 $443 $443 $-1 $622 reversed $295 $-1 #
edge $-1 $623 0 $623 6.2831853071796004 $296 $624 forward 7 unknown #
vertex $-1 $299 $625 #
ellipse-curve $-1 43.807218519493752 11.718335934078791 8.7347495467672829 0.83867057594974714 0 0.54463902268945019 0.2723195113447251 0 -0.41933528797487357 1 I I #
face $-1 $-1 $315 $45 $-1 $626 reversed single #
loop $-1 $-1 $463 $300 #
plane-surface $-1 0 27.076168813484902 0 0 -1 0 0 0 -1 forward_v I I I I #
coedge $-1 $627 $461 $464 $628 forward $301 $-1 #
coedge $-1 $467 $303 $304 $455 reversed $189 $-1 #
coedge $-1 $461 $627 $303 $453 reversed $301 $-1 #
edge $-1 $468 -10.620581149508919 $629 10.620581149508919 $452 $630 forward 7 unknown #
coedge $-1 $305 $304 $627 $631 forward $121 $-1 #
edge $-1 $459 -45.031891842402416 $629 45.031891842402416 $451 $632 forward 7 unknown #
coedge $-1 $464 $463 $305 $457 reversed $448 $-1 #
edge $-1 $633 -45.031891842402416 $458 45.031891842402416 $456 $634 forward 7 unknown #
vertex $-1 $307 $635 #
vertex $-1 $470 $636 #
straight-curve $-1 45.031891842402416 0 -10.620581149508919 0 -1 0 I I #
coedge $-1 $450 $452 $308 $462 reversed $301 $-1 #
edge $-1 $465 -27.076168813484902 $468 27.076168813484902 $461 $637 forward 7 unknown #
coedge $-1 $456 $309 $314 $471 forward $448 $-1 #
coedge $-1 $309 $456 $450 $628 reversed $448 $-1 #
vertex $-1 $310 $638 #
straight-curve $-1 0 27.076168813484902 10.620581149508919 -1 0 0 I I #
coedge $-1 $311 $451 $313 $470 reversed $189 $-1 #
vertex $-1 $462 $639 #
straight-curve $-1 0 -27.076168813484902 10.620581149508919 1 0 0 I I #
edge $-1 $316 -10.620581149508919 $459 10.620581149508919 $313 $640 forward 7 unknown #
edge $-1 $317 -10.620581149508919 $458 10.620581149508919 $314 $641 forward 7 unknown #
point $-1 45.031891842402416 -27.076168813484902 10.620581149508919 #
point $-1 45.031891842402416 27.076168813484902 10.620581149508919 #
face $-1 $-1 $334 $46 $-1 $642 reversed single #
loop $-1 $-1 $330 $319 #
plane-surface $-1 0 -27.076168813484902 0 0 1 0 0 0 1 forward_v I I I I #
coedge $-1 $643 $644 $327 $487 forward $320 $-1 #
coedge $-1 $488 $322 $324 $483 reversed $197 $-1 #
edge $-1 $485 0.94435848322201821 $335 5.300783636519224 $333 $645 forward 7 unknown #
coedge $-1 $324 $323 $646 $647 reversed $125 $-1 #
coedge $-1 $492 $491 $323 $482 forward $475 $-1 #
edge $-1 $648 -45.031891842402416 $484 45.031891842402416 $481 $649 forward 7 unknown #
edge $-1 $650 -45.031891842402416 $485 45.031891842402416 $478 $651 forward 7 unknown #
vertex $-1 $482 $652 #
vertex $-1 $326 $653 #
straight-curve $-1 45.031891842402416 -10.163036346034133 4.0669295430926393 0 1 0 I I #
edge $-1 $493 -16.913132467450769 $489 -3.4129402246174969 $477 $654 forward 7 unknown #
coedge $-1 $328 $478 $643 $655 reversed $197 $-1 #
vertex $-1 $487 $656 #
straight-curve $-1 0 -13.57597657065163 8.4233546963898451 -1 0 0 I I #
coedge $-1 $481 $330 $644 $657 forward $475 $-1 #
coedge $-1 $330 $481 $332 $495 reversed $475 $-1 #
vertex $-1 $657 $658 #
straight-curve $-1 0 -27.076168813484902 8.4233546963898451 -1 0 0 I I #
edge $-1 $336 -8.4233546963898451 $484 -4.0669295430926393 $332 $659 forward 7 unknown #
point $-1 45.031891842402416 -13.57597657065163 8.4233546963898451 #
point $-1 45.031891842402416 -27.076168813484902 8.4233546963898451 #
face $-1 $-1 $515 $47 $-1 $660 reversed single #
loop $-1 $-1 $511 $338 #
plane-surface $-1 -45.031891842402416 0 0 1 0 0 0 0 -1 forward_v I I I I #
coedge $-1 $504 $341 $661 $662 reversed $205 $-1 #
coedge $-1 $341 $504 $350 $520 reversed $205 $-1 #
coedge $-1 $343 $342 $663 $664 reversed $129 $-1 #
coedge $-1 $502 $501 $342 $505 reversed $205 $-1 #
edge $-1 $508 -45.031891842402416 $665 45.031891842402416 $504 $666 forward 7 unknown #
coedge $-1 $514 $513 $343 $507 forward $515 $-1 #
edge $-1 $509 -45.031891842402416 $667 45.031891842402416 $506 $668 forward 7 unknown #
vertex $-1 $345 $669 #
vertex $-1 $507 $670 #
straight-curve $-1 45.031891842402416 10.163036346034131 4.0669295430926393 0 1 0 I I #
coedge $-1 $671 $661 $346 $512 forward $499 $-1 #
edge $-1 $518 3.4129402246174951 $516 16.913132467450765 $511 $672 forward 7 unknown #
coedge $-1 $506 $347 $351 $521 forward $515 $-1 #
coedge $-1 $347 $506 $671 $673 reversed $515 $-1 #
loop $-1 $-1 $347 $498 #
vertex $-1 $673 $674 #
straight-curve $-1 0 27.076168813484902 8.4233546963898451 1 0 0 I I #
vertex $-1 $512 $675 #
straight-curve $-1 0 13.575976570651626 8.4233546963898451 1 0 0 I I #
edge $-1 $353 -5.300783636519224 $508 -0.94435848322201821 $350 $676 forward 7 unknown #
edge $-1 $352 -8.4233546963898451 $509 -4.0669295430926393 $351 $677 forward 7 unknown #
point $-1 45.031891842402416 27.076168813484898 8.4233546963898451 #
point $-1 45.031891842402416 13.575976570651626 8.4233546963898451 #
loop $-1 $-1 $532 $355 #
plane-surface $-1 0 -13.57597657065163 6.2451421197412422 0 -1 0 0 0 -1 forward_v I I I I #
coedge $-1 $366 $361 $678 $679 forward $356 $-1 #
coedge $-1 $363 $358 $531 $680 forward $213 $-1 #
coedge $-1 $358 $363 $366 $539 forward $213 $-1 #
coedge $-1 $678 $532 $358 $530 reversed $524 $-1 #
edge $-1 $681 15.250976746373141 $682 17.700323392190455 $358 $683 forward 7 unknown #
coedge $-1 $360 $359 $527 $680 reversed $133 $-1 #
coedge $-1 $529 $678 $360 $533 reversed $524 $-1 #
edge $-1 $682 -4.4971927162367571 $534 2.636201369357039e-014 $532 $684 forward 7 unknown #
vertex $-1 $679 $685 #
straight-curve $-1 -45.031891842402416 -5.1625527283245809 6.8489179440256045 0 -1 0 I I #
vertex $-1 $364 $686 #
straight-curve $-1 -60.282868588775557 -7.0742343426466938 10.620581149508919 -1 0 0 I I #
straight-curve $-1 -45.031891842402402 -7.0742343426466938 6.8489179440256294 0.54463902268945019 0 0.83867057594974714 I I #
edge $-1 $367 7.0742343426466938 $681 13.57597657065163 $366 $687 forward 7 unknown #
point $-1 -45.031891842402416 -7.0742343426466938 10.620581149508919 #
point $-1 -45.031891842402416 -7.0742343426466938 6.8489179440256072 #
edge $-1 $688 1 $688 0 $370 $-1 forward 7 unknown #
vertex $-1 $371 $689 #
ellipse-curve $-1 -42.218295211907709 -11.718335934078791 7.7028907190122302 -0.83867057594974714 0 0.54463902268945019 0.2723195113447251 0 0.41933528797487357 1 I I #
point $-1 -43.53489900814904 -11.718335934078791 9.1540848347421537 #
edge $-1 $690 1 $690 0 $374 $-1 forward 7 unknown #
vertex $-1 $375 $691 #
ellipse-curve $-1 -42.218295211907709 -8.9318749792195327 7.7028907190122302 -0.83867057594974714 0 0.54463902268945019 0.2723195113447251 0 0.41933528797487357 1 I I #
point $-1 -43.53489900814904 -8.9318749792195327 9.1540848347421537 #
loop $-1 $-1 $385 $378 #
plane-surface $-1 -45.031891842402416 0 0 1 0 0 0 0 -1 forward_v I I I I #
coedge $-1 $692 $693 $382 $554 forward $379 $-1 #
coedge $-1 $382 $381 $559 $694 reversed $147 $-1 #
edge $-1 $556 7.5126855560662165 $695 12.009878272302998 $552 $696 forward 7 unknown #
coedge $-1 $388 $383 $693 $697 forward $235 $-1 #
vertex $-1 $384 $698 #
straight-curve $-1 -42.582545196585102 5.1625527283245827 10.620581149508919 0 1 0 I I #
coedge $-1 $699 $385 $388 $563 reversed $550 $-1 #
coedge $-1 $385 $699 $553 $694 forward $550 $-1 #
vertex $-1 $386 $700 #
straight-curve $-1 -45.031891842402416 7.0742343426466974 27.95058453491589 0 0 1 I I #
straight-curve $-1 -45.031891842402402 7.0742343426466974 6.8489179440256294 -0.54463902268945019 0 -0.83867057594974714 I I #
edge $-1 $701 -13.575976570651633 $389 -7.0742343426466974 $558 $702 forward 7 unknown #
point $-1 -45.031891842402416 7.0742343426466974 10.620581149508919 #
point $-1 -42.582545196585102 7.0742343426466974 10.620581149508919 #
edge $-1 $703 1 $703 0 $392 $-1 forward 7 unknown #
vertex $-1 $393 $704 #
ellipse-curve $-1 -42.218295211907709 8.9318749792195327 7.7028907190122302 -0.83867057594974714 0 0.54463902268945019 0.2723195113447251 0 0.41933528797487357 1 I I #
point $-1 -43.53489900814904 8.9318749792195327 9.1540848347421537 #
edge $-1 $705 1 $705 0 $396 $-1 forward 7 unknown #
vertex $-1 $397 $706 #
ellipse-curve $-1 -42.218295211907709 11.718335934078791 7.7028907190122302 -0.83867057594974714 0 0.54463902268945019 0.2723195113447251 0 0.41933528797487357 1 I I #
point $-1 -43.53489900814904 11.718335934078791 9.1540848347421537 #
plane-surface $-1 0 0 10.620581149508919 0 0 1 1 0 0 forward_v I I I I #
coedge $-1 $578 $707 $405 $581 forward $401 $-1 #
coedge $-1 $408 $403 $580 $708 forward $257 $-1 #
coedge $-1 $403 $408 $411 $588 reversed $257 $-1 #
coedge $-1 $707 $575 $403 $579 reversed $401 $-1 #
edge $-1 $709 55.096926052981331 $710 58.868589258464624 $403 $711 forward 7 unknown #
coedge $-1 $405 $404 $576 $708 reversed $161 $-1 #
edge $-1 $583 52.544577398468647 $710 57.041770114705407 $575 $712 forward 7 unknown #
coedge $-1 $411 $406 $707 $713 forward $412 $-1 #
vertex $-1 $407 $714 #
straight-curve $-1 42.582545196585109 -5.1625527283245809 10.620581149508922 0 -1 0 I I #
vertex $-1 $409 $715 #
straight-curve $-1 45.031891842402416 -7.0742343426466938 65.717507202490253 0 0 1 I I #
straight-curve $-1 -4.0203592834037494 -7.0742343426466938 82.382763279174355 0.54463902268945019 0 -0.83867057594974714 I I #
edge $-1 $709 -13.57597657065163 $413 -7.0742343426466938 $577 $716 forward 7 unknown #
point $-1 45.031891842402416 -7.0742343426466938 10.620581149508919 #
point $-1 42.582545196585109 -7.0742343426466938 10.620581149508922 #
edge $-1 $717 1 $717 0 $416 $-1 forward 7 unknown #
vertex $-1 $417 $718 #
ellipse-curve $-1 42.218295211907709 -11.718335934078791 7.7028907190122444 0.83867057594974714 0 0.54463902268945019 0.2723195113447251 0 -0.41933528797487357 1 I I #
point $-1 44.079538030838485 -11.718335934078791 8.3154142587924191 #
edge $-1 $719 1 $719 0 $420 $-1 forward 7 unknown #
vertex $-1 $421 $720 #
ellipse-curve $-1 42.218295211907709 -8.9318749792195327 7.7028907190122444 0.83867057594974714 0 0.54463902268945019 0.2723195113447251 0 -0.41933528797487357 1 I I #
point $-1 44.079538030838485 -8.9318749792195327 8.3154142587924191 #
loop $-1 $-1 $433 $424 #
plane-surface $-1 0 13.575976570651626 6.2451421197412422 0 1 0 0 0 1 forward_v I I I I #
coedge $-1 $721 $609 $611 $722 forward $425 $-1 #
coedge $-1 $427 $430 $721 $723 forward $279 $-1 #
coedge $-1 $611 $433 $427 $604 reversed $599 $-1 #
edge $-1 $724 -9.2751488165299349 $436 -6.8258021707126275 $427 $725 forward 7 unknown #
coedge $-1 $609 $721 $429 $606 forward $425 $-1 #
edge $-1 $607 55.096926052981331 $614 58.868589258464624 $605 $726 forward 7 unknown #
vertex $-1 $723 $727 #
straight-curve $-1 35.756743025872481 7.0742343426466974 10.620581149508922 1 0 0 I I #
coedge $-1 $601 $605 $432 $610 forward $425 $-1 #
edge $-1 $614 1.9116816143221147 $612 8.4134238423270507 $609 $728 forward 7 unknown #
coedge $-1 $433 $603 $601 $722 reversed $599 $-1 #
vertex $-1 $722 $729 #
straight-curve $-1 -4.0203592834037494 13.575976570651633 82.382763279174355 0.54463902268945019 0 -0.83867057594974714 I I #
vertex $-1 $610 $730 #
straight-curve $-1 -4.0203592834037494 7.0742343426466974 82.382763279174355 -0.54463902268945019 0 0.83867057594974714 I I #
point $-1 42.582545196585109 13.575976570651633 10.620581149508922 #
point $-1 42.582545196585109 7.0742343426466974 10.620581149508922 #
edge $-1 $731 1 $731 0 $439 $-1 forward 7 unknown #
vertex $-1 $440 $732 #
ellipse-curve $-1 42.218295211907709 8.9318749792195327 7.7028907190122444 0.83867057594974714 0 0.54463902268945019 0.2723195113447251 0 -0.41933528797487357 1 I I #
point $-1 44.079538030838485 8.9318749792195327 8.3154142587924191 #
edge $-1 $733 1 $733 0 $443 $-1 forward 7 unknown #
vertex $-1 $444 $734 #
ellipse-curve $-1 42.218295211907709 11.718335934078791 7.7028907190122444 0.83867057594974714 0 0.54463902268945019 0.2723195113447251 0 -0.41933528797487357 1 I I #
point $-1 44.079538030838485 11.718335934078791 8.3154142587924191 #
plane-surface $-1 45.031891842402416 0 0 -1 0 0 0 0 1 forward_v I I I I #
coedge $-1 $452 $450 $454 $631 reversed $301 $-1 #
edge $-1 $465 -10.620581149508919 $633 10.620581149508919 $464 $735 forward 7 unknown #
vertex $-1 $631 $736 #
straight-curve $-1 -45.031891842402416 -27.076168813484902 0 0 0 -1 I I #
edge $-1 $629 -27.076168813484902 $633 27.076168813484902 $627 $737 forward 7 unknown #
straight-curve $-1 0 -27.076168813484902 -10.620581149508919 -1 0 0 I I #
vertex $-1 $457 $738 #
straight-curve $-1 0 27.076168813484902 -10.620581149508919 1 0 0 I I #
point $-1 45.031891842402416 27.076168813484902 -10.620581149508919 #
point $-1 45.031891842402416 -27.076168813484902 -10.620581149508919 #
straight-curve $-1 -45.031891842402416 0 10.620581149508919 0 -1 0 I I #
point $-1 -45.031891842402416 27.076168813484902 10.620581149508919 #
point $-1 -45.031891842402416 -27.076168813484902 10.620581149508919 #
straight-curve $-1 45.031891842402416 -27.076168813484902 0 0 0 -1 I I #
straight-curve $-1 45.031891842402416 27.076168813484902 0 0 0 -1 I I #
plane-surface $-1 45.031891842402416 0 0 -1 0 0 0 0 1 forward_v I I I I #
coedge $-1 $646 $477 $488 $655 forward $320 $-1 #
coedge $-1 $477 $646 $491 $657 reversed $320 $-1 #
straight-curve $-1 45.031891842402416 -13.57597657065163 3.1225710598706211 0 0 1 I I #
coedge $-1 $644 $643 $480 $647 forward $320 $-1 #
edge $-1 $650 3.4129402246174969 $648 16.913132467450769 $646 $739 forward 7 unknown #
vertex $-1 $482 $740 #
straight-curve $-1 0 -27.076168813484902 4.0669295430926393 1 0 0 I I #
vertex $-1 $647 $741 #
straight-curve $-1 0 -13.57597657065163 4.0669295430926393 1 0 0 I I #
point $-1 45.031891842402416 -27.076168813484902 4.0669295430926393 #
point $-1 45.031891842402416 -13.57597657065163 4.0669295430926393 #
straight-curve $-1 -45.031891842402416 -10.163036346034133 8.4233546963898451 0 1 0 I I #
edge $-1 $489 -5.300783636519224 $650 -0.94435848322201821 $643 $742 forward 7 unknown #
point $-1 -45.031891842402416 -13.57597657065163 8.4233546963898451 #
edge $-1 $493 -8.4233546963898451 $648 -4.0669295430926393 $644 $743 forward 7 unknown #
point $-1 -45.031891842402416 -27.076168813484902 8.4233546963898451 #
straight-curve $-1 45.031891842402416 -27.076168813484902 0 0 0 -1 I I #
plane-surface $-1 0 27.076168813484902 0 0 -1 0 0 0 -1 forward_v I I I I #
coedge $-1 $511 $663 $501 $662 forward $499 $-1 #
edge $-1 $665 0.94435848322201821 $518 5.300783636519224 $661 $744 forward 7 unknown #
coedge $-1 $661 $671 $503 $664 forward $499 $-1 #
edge $-1 $667 -16.913132467450765 $665 -3.4129402246174951 $663 $745 forward 7 unknown #
vertex $-1 $664 $746 #
straight-curve $-1 0 13.575976570651626 4.0669295430926393 -1 0 0 I I #
vertex $-1 $507 $747 #
straight-curve $-1 0 27.076168813484902 4.0669295430926393 -1 0 0 I I #
point $-1 45.031891842402416 13.575976570651626 4.0669295430926393 #
point $-1 45.031891842402416 27.076168813484898 4.0669295430926393 #
coedge $-1 $663 $511 $514 $673 forward $499 $-1 #
straight-curve $-1 -45.031891842402416 10.163036346034131 8.4233546963898451 0 1 0 I I #
edge $-1 $516 -8.4233546963898451 $667 -4.0669295430926393 $514 $748 forward 7 unknown #
point $-1 -45.031891842402416 27.076168813484898 8.4233546963898451 #
point $-1 -45.031891842402416 13.575976570651626 8.4233546963898451 #
straight-curve $-1 45.031891842402416 13.575976570651626 3.1225710598706211 0 0 -1 I I #
straight-curve $-1 45.031891842402416 27.076168813484902 0 0 0 -1 I I #
coedge $-1 $532 $529 $526 $679 reversed $524 $-1 #
edge $-1 $534 -21.101666590890282 $681 -17.330003385406972 $526 $749 forward 7 unknown #
edge $-1 $682 -8.4134238423270489 $536 -1.9116816143221129 $527 $750 forward 7 unknown #
vertex $-1 $679 $751 #
vertex $-1 $530 $752 #
straight-curve $-1 -60.282868588775557 -13.57597657065163 10.620581149508919 1 0 0 I I #
straight-curve $-1 -45.031891842402402 -13.57597657065163 6.8489179440256294 -0.54463902268945019 0 -0.83867057594974714 I I #
point $-1 -45.031891842402416 -13.57597657065163 6.8489179440256072 #
point $-1 -42.582545196585102 -7.0742343426466938 10.620581149508919 #
straight-curve $-1 -45.031891842402416 0 10.620581149508919 0 -1 0 I I #
vertex $-1 $542 $753 #
point $-1 -41.945975700562983 -11.718335934078791 8.1222260069871037 #
vertex $-1 $546 $754 #
point $-1 -41.945975700562983 -8.9318749792195327 8.1222260069871037 #
coedge $-1 $693 $552 $699 $755 reversed $379 $-1 #
coedge $-1 $552 $692 $555 $697 reversed $379 $-1 #
edge $-1 $695 -8.4134238423270435 $560 -1.9116816143221147 $559 $756 forward 7 unknown #
vertex $-1 $554 $757 #
straight-curve $-1 -38.490843477556048 13.575976570651626 16.921249471744318 -0.54463902268945019 0 -0.83867057594974714 I I #
edge $-1 $556 -17.700323392190455 $701 -15.250976746373141 $555 $758 forward 7 unknown #
point $-1 -42.582545196585102 13.575976570651633 10.620581149508919 #
coedge $-1 $559 $558 $692 $755 forward $550 $-1 #
point $-1 -45.031891842402416 7.0742343426466974 6.8489179440256072 #
vertex $-1 $563 $759 #
straight-curve $-1 -45.031891842402416 0 10.620581149508919 0 -1 0 I I #
vertex $-1 $566 $760 #
point $-1 -41.945975700562983 8.9318749792195327 8.1222260069871037 #
vertex $-1 $570 $761 #
point $-1 -41.945975700562983 11.718335934078791 8.1222260069871037 #
coedge $-1 $575 $578 $582 $713 reversed $401 $-1 #
edge $-1 $710 -8.4134238423270489 $585 -1.9116816143221129 $576 $762 forward 7 unknown #
vertex $-1 $588 $763 #
vertex $-1 $581 $764 #
straight-curve $-1 45.031891842402416 -13.57597657065163 65.717507202490253 0 0 -1 I I #
straight-curve $-1 13.964717914652978 -13.57597657065163 54.688172139318688 0.54463902268945019 0 -0.83867057594974714 I I #
edge $-1 $583 6.8258021707126275 $709 9.2751488165299349 $582 $765 forward 7 unknown #
point $-1 42.582545196585109 -13.57597657065163 10.620581149508922 #
point $-1 45.031891842402416 -7.0742343426466938 6.8489179440256294 #
straight-curve $-1 45.031891842402416 0 10.620581149508919 0 1 0 I I #
vertex $-1 $591 $766 #
point $-1 42.490614723252435 -11.718335934078791 7.2835554310373709 #
vertex $-1 $595 $767 #
point $-1 42.490614723252435 -8.9318749792195327 7.2835554310373709 #
coedge $-1 $605 $601 $602 $723 reversed $425 $-1 #
edge $-1 $612 -58.868589258464624 $724 -55.096926052981331 $601 $768 forward 7 unknown #
edge $-1 $607 7.0742343426466974 $724 13.575976570651633 $721 $769 forward 7 unknown #
vertex $-1 $604 $770 #
straight-curve $-1 35.756743025872481 13.575976570651633 10.620581149508922 -1 0 0 I I #
straight-curve $-1 45.031891842402416 7.0742343426466974 65.717507202490253 0 0 -1 I I #
point $-1 45.031891842402416 7.0742343426466974 10.620581149508919 #
straight-curve $-1 45.031891842402416 5.1625527283245827 6.8489179440256223 0 1 0 I I #
point $-1 45.031891842402416 13.575976570651633 6.8489179440256294 #
point $-1 45.031891842402416 7.0742343426466974 6.8489179440256294 #
vertex $-1 $618 $771 #
point $-1 42.490614723252435 8.9318749792195327 7.2835554310373709 #
vertex $-1 $622 $772 #
point $-1 42.490614723252435 11.718335934078791 7.2835554310373709 #
straight-curve $-1 -45.031891842402416 27.076168813484902 0 0 0 -1 I I #
point $-1 -45.031891842402416 -27.076168813484902 -10.620581149508919 #
straight-curve $-1 -45.031891842402416 0 -10.620581149508919 0 1 0 I I #
point $-1 -45.031891842402416 27.076168813484902 -10.620581149508919 #
straight-curve $-1 -45.031891842402416 -10.163036346034133 4.0669295430926393 0 -1 0 I I #
point $-1 -45.031891842402416 -27.076168813484902 4.0669295430926393 #
point $-1 -45.031891842402416 -13.57597657065163 4.0669295430926393 #
straight-curve $-1 -45.031891842402416 -13.57597657065163 3.1225710598706211 0 0 -1 I I #
straight-curve $-1 -45.031891842402416 -27.076168813484902 0 0 0 -1 I I #
straight-curve $-1 -45.031891842402416 13.575976570651626 3.1225710598706211 0 0 1 I I #
straight-curve $-1 -45.031891842402416 10.163036346034131 4.0669295430926393 0 -1 0 I I #
point $-1 -45.031891842402416 13.575976570651626 4.0669295430926393 #
point $-1 -45.031891842402416 27.076168813484898 4.0669295430926393 #
straight-curve $-1 -45.031891842402416 27.076168813484902 0 0 0 -1 I I #
straight-curve $-1 -45.031891842402416 -13.57597657065163 27.95058453491589 0 0 1 I I #
straight-curve $-1 -42.582545196585102 -5.1625527283245809 10.620581149508919 0 1 0 I I #
point $-1 -45.031891842402416 -13.57597657065163 10.620581149508919 #
point $-1 -42.582545196585102 -13.57597657065163 10.620581149508919 #
point $-1 -41.798959923932834 -11.718335934078791 7.4305712076675059 #
point $-1 -41.798959923932834 -8.9318749792195327 7.4305712076675059 #
edge $-1 $701 17.330003385406972 $695 21.101666590890282 $699 $773 forward 7 unknown #
straight-curve $-1 -45.031891842402416 5.1625527283245827 6.8489179440256045 0 -1 0 I I #
point $-1 -45.031891842402416 13.575976570651626 6.8489179440256072 #
straight-curve $-1 -60.282868588775557 13.575976570651633 10.620581149508919 -1 0 0 I I #
point $-1 -45.031891842402416 13.575976570651633 10.620581149508919 #
point $-1 -41.798959923932834 8.9318749792195327 7.4305712076675059 #
point $-1 -41.798959923932834 11.718335934078791 7.4305712076675059 #
straight-curve $-1 45.031891842402416 -5.1625527283245809 6.8489179440256223 0 1 0 I I #
point $-1 45.031891842402416 -13.57597657065163 10.620581149508919 #
point $-1 45.031891842402416 -13.57597657065163 6.8489179440256311 #
straight-curve $-1 35.756743025872481 -13.57597657065163 10.620581149508922 1 0 0 I I #
point $-1 41.798959923932834 -11.718335934078791 7.4305712076675201 #
point $-1 41.798959923932834 -8.9318749792195327 7.4305712076675201 #
straight-curve $-1 45.031891842402416 13.575976570651633 65.717507202490253 0 0 1 I I #
straight-curve $-1 45.031891842402416 0 10.620581149508919 0 1 0 I I #
point $-1 45.031891842402416 13.575976570651633 10.620581149508919 #
point $-1 41.798959923932834 8.9318749792195327 7.4305712076675201 #
point $-1 41.798959923932834 11.718335934078791 7.4305712076675201 #
straight-curve $-1 -45.031891842402416 13.575976570651633 27.95058453491589 0 0 -1 I I #
End-of-ACIS-data 