500 0 9 0           
7 Unknown 11 ACIS 5.0 NT 24 Fri Mar 26 15:37:38 1999 
-1 9.9999999999999995e-007 1e-010 
body $-1 $9 $-1 $10 #
body $-1 $11 $-1 $12 #
body $-1 $13 $-1 $14 #
body $-1 $15 $-1 $16 #
body $-1 $17 $-1 $18 #
body $-1 $19 $-1 $20 #
body $-1 $21 $-1 $22 #
body $-1 $23 $-1 $24 #
body $-1 $25 $-1 $26 #
lump $-1 $-1 $27 $0 #
transform $-1 1 0 0 0 1 0 0 0 1 75.08041627246925 52.422247860593295 25.786844010480085 1 rotate no_reflect no_shear #
lump $-1 $-1 $28 $1 #
transform $-1 1 0 0 0 1 0 0 0 1 75.08041627246925 52.422247860593295 25.786844010480085 1 rotate no_reflect no_shear #
lump $-1 $-1 $29 $2 #
transform $-1 1 0 0 0 1 0 0 0 1 75.08041627246925 52.422247860593295 25.786844010480085 1 rotate no_reflect no_shear #
lump $-1 $-1 $30 $3 #
transform $-1 1 0 0 0 1 0 0 0 1 75.08041627246925 52.422247860593295 25.786844010480085 1 rotate no_reflect no_shear #
lump $-1 $-1 $31 $4 #
transform $-1 1 0 0 0 1 0 0 0 1 75.08041627246925 52.422247860593295 25.786844010480085 1 rotate no_reflect no_shear #
lump $-1 $-1 $32 $5 #
transform $-1 1 0 0 0 1 0 0 0 1 75.08041627246925 52.422247860593295 25.786844010480085 1 rotate no_reflect no_shear #
lump $-1 $-1 $33 $6 #
transform $-1 1 0 0 0 1 0 0 0 1 75.08041627246925 52.422247860593295 25.786844010480085 1 rotate no_reflect no_shear #
lump $-1 $-1 $34 $7 #
transform $-1 1 0 0 0 1 0 0 0 1 75.08041627246925 52.422247860593295 25.786844010480085 1 rotate no_reflect no_shear #
lump $-1 $-1 $35 $8 #
transform $-1 1 0 0 0 1 0 0 0 1 75.08041627246925 52.422247860593295 25.786844010480085 1 rotate no_reflect no_shear #
shell $-1 $-1 $-1 $36 $-1 $9 #
shell $-1 $-1 $-1 $37 $-1 $11 #
shell $-1 $-1 $-1 $38 $-1 $13 #
shell $-1 $-1 $-1 $39 $-1 $15 #
shell $-1 $-1 $-1 $40 $-1 $17 #
shell $-1 $-1 $-1 $41 $-1 $19 #
shell $-1 $-1 $-1 $42 $-1 $21 #
shell $-1 $-1 $-1 $43 $-1 $23 #
shell $-1 $-1 $-1 $44 $-1 $25 #
face $-1 $45 $46 $27 $-1 $47 forward single #
face $-1 $48 $49 $28 $-1 $50 forward single #
face $-1 $51 $52 $29 $-1 $53 forward single #
face $-1 $54 $55 $30 $-1 $56 reversed single #
face $-1 $57 $58 $31 $-1 $59 forward single #
face $-1 $60 $61 $32 $-1 $62 forward single #
face $-1 $63 $64 $33 $-1 $65 reversed single #
face $-1 $66 $67 $34 $-1 $68 forward single #
face $-1 $69 $70 $35 $-1 $71 forward single #
face $-1 $72 $73 $27 $-1 $74 reversed single #
loop $-1 $-1 $75 $36 #
plane-surface $-1 0 0 25.786844010480085 0 0 1 1 0 0 forward_v I I I I #
face $-1 $76 $77 $28 $-1 $78 reversed single #
loop $-1 $-1 $79 $37 #
plane-surface $-1 0 -52.422247860593295 0 0 1 0 0 0 1 forward_v I I I I #
face $-1 $80 $81 $29 $-1 $82 reversed single #
loop $-1 $-1 $83 $38 #
plane-surface $-1 0 52.422247860593295 0 0 -1 0 0 0 -1 forward_v I I I I #
face $-1 $84 $85 $30 $-1 $86 reversed single #
loop $-1 $-1 $87 $39 #
plane-surface $-1 -198.08497044517497 17.850337493591738 88.995932249092817 0 1 0 -0.81915205242281985 0 0.57357642473473569 forward_v I I I I #
face $-1 $88 $89 $31 $-1 $90 forward single #
loop $-1 $91 $92 $40 #
cone-surface $-1 -65.546711621641862 20.06681438845073 13.270097758349007 0.81915205242281985 0 -0.57357642473473569 0.57357642473473569 0 0.81915205242281985 1 I I 0 1 1 forward I I I I #
face $-1 $93 $94 $32 $-1 $95 forward single #
loop $-1 $96 $97 $41 #
cone-surface $-1 -65.546711621641862 23.391529730739244 13.270097758349007 0.81915205242281985 0 -0.57357642473473569 0.57357642473473569 0 0.81915205242281985 1 I I 0 1 1 forward I I I I #
face $-1 $98 $99 $33 $-1 $100 reversed single #
loop $-1 $-1 $101 $42 #
plane-surface $-1 111.95625697885782 25.60800662559825 212.00048642179854 0 -1 0 -0.81915205242281985 0 -0.57357642473473569 forward_v I I I I #
face $-1 $102 $103 $34 $-1 $104 forward single #
loop $-1 $105 $106 $43 #
cone-surface $-1 65.546711621641862 20.06681438845073 13.270097758349014 -0.81915205242281985 0 -0.57357642473473569 0.57357642473473569 0 -0.81915205242281985 1 I I 0 1 1 forward I I I I #
face $-1 $107 $108 $35 $-1 $109 forward single #
loop $-1 $110 $111 $44 #
cone-surface $-1 65.546711621641862 23.391529730739244 13.270097758349014 -0.81915205242281985 0 -0.57357642473473569 0.57357642473473569 0 -0.81915205242281985 1 I I 0 1 1 forward I I I I #
face $-1 $112 $113 $27 $-1 $114 reversed single #
loop $-1 $-1 $115 $45 #
plane-surface $-1 0 0 -25.786844010480085 0 0 1 1 0 0 forward_v I I I I #
coedge $-1 $116 $117 $118 $119 forward $46 $-1 #
face $-1 $120 $121 $28 $-1 $122 reversed single #
loop $-1 $-1 $123 $48 #
plane-surface $-1 0 0 -25.786844010480085 0 0 1 1 0 0 forward_v I I I I #
coedge $-1 $124 $125 $126 $127 forward $49 $-1 #
face $-1 $128 $129 $29 $-1 $130 reversed single #
loop $-1 $-1 $131 $51 #
plane-surface $-1 0 0 -25.786844010480085 0 0 1 1 0 0 forward_v I I I I #
coedge $-1 $132 $133 $134 $135 forward $52 $-1 #
face $-1 $136 $137 $30 $-1 $138 reversed single #
loop $-1 $-1 $139 $54 #
plane-surface $-1 -75.080416272469236 21.729172059594994 2.8672187827756517 -0.81915205242281985 0 0.57357642473473569 0.57357642473473569 0 0.81915205242281985 forward_v I I I I #
coedge $-1 $140 $141 $142 $143 reversed $55 $-1 #
face $-1 $-1 $144 $31 $-1 $145 forward single #
loop $-1 $146 $147 $57 #
cone-surface $-1 -63.627677881105377 20.06681438845073 11.926375907702781 0.81915205242281985 0 -0.57357642473473569 0.28678821236736785 0 0.40957602621140993 1 I I -0.70710678118654746 0.70710678118654746 0.5 forward I I I I #
loop $-1 $-1 $148 $40 #
coedge $-1 $92 $92 $149 $150 reversed $58 $-1 #
face $-1 $-1 $151 $32 $-1 $152 forward single #
loop $-1 $153 $154 $60 #
cone-surface $-1 -63.627677881105377 23.391529730739244 11.926375907702781 0.81915205242281985 0 -0.57357642473473569 0.28678821236736785 0 0.40957602621140993 1 I I -0.70710678118654746 0.70710678118654746 0.5 forward I I I I #
loop $-1 $-1 $155 $41 #
coedge $-1 $97 $97 $156 $157 reversed $61 $-1 #
face $-1 $158 $159 $33 $-1 $160 reversed single #
loop $-1 $-1 $161 $63 #
plane-surface $-1 -11.048297193847915 21.729172059594994 125.87177295548138 0.81915205242281985 0 0.57357642473473569 0.57357642473473569 0 -0.81915205242281985 forward_v I I I I #
coedge $-1 $162 $163 $164 $165 reversed $64 $-1 #
face $-1 $-1 $166 $34 $-1 $167 forward single #
loop $-1 $168 $169 $66 #
cone-surface $-1 63.62767788110537 20.06681438845073 11.926375907702788 -0.81915205242281985 0 -0.57357642473473569 0.28678821236736785 0 -0.40957602621140993 1 I I -0.70710678118654746 0.70710678118654746 0.5 forward I I I I #
loop $-1 $-1 $170 $43 #
coedge $-1 $106 $106 $171 $172 reversed $67 $-1 #
face $-1 $-1 $173 $35 $-1 $174 forward single #
loop $-1 $175 $176 $69 #
cone-surface $-1 63.62767788110537 23.391529730739244 11.926375907702788 -0.81915205242281985 0 -0.57357642473473569 0.28678821236736785 0 -0.40957602621140993 1 I I -0.70710678118654746 0.70710678118654746 0.5 forward I I I I #
loop $-1 $-1 $177 $44 #
coedge $-1 $111 $111 $178 $179 reversed $70 $-1 #
face $-1 $180 $181 $27 $-1 $182 reversed single #
loop $-1 $-1 $183 $72 #
plane-surface $-1 0 -52.422247860593295 0 0 1 0 0 0 1 forward_v I I I I #
coedge $-1 $184 $185 $186 $187 forward $73 $-1 #
coedge $-1 $188 $75 $189 $190 forward $46 $-1 #
coedge $-1 $75 $188 $191 $192 forward $46 $-1 #
coedge $-1 $193 $194 $75 $119 reversed $195 $-1 #
edge $-1 $196 -52.422247860593295 $197 52.422247860593295 $118 $198 forward 7 unknown #
face $-1 $199 $200 $28 $-1 $201 reversed single #
loop $-1 $-1 $202 $76 #
plane-surface $-1 -65.465615653534641 -79.23648909558834 0 0 1 0 0 0 1 forward_v I I I I #
coedge $-1 $203 $204 $125 $205 forward $77 $-1 #
coedge $-1 $206 $79 $207 $208 reversed $49 $-1 #
coedge $-1 $79 $206 $123 $205 reversed $49 $-1 #
coedge $-1 $209 $210 $79 $127 reversed $200 $-1 #
edge $-1 $211 -25.786844010480085 $212 25.786844010480085 $126 $213 forward 7 unknown #
face $-1 $214 $215 $29 $-1 $216 reversed single #
loop $-1 $-1 $217 $80 #
plane-surface $-1 -71.982328175205296 65.829368478090799 0 1 0 0 0 0 -1 forward_v I I I I #
coedge $-1 $218 $219 $133 $220 forward $81 $-1 #
coedge $-1 $221 $83 $222 $223 reversed $52 $-1 #
coedge $-1 $83 $221 $131 $220 reversed $52 $-1 #
coedge $-1 $224 $225 $83 $135 reversed $226 $-1 #
edge $-1 $227 -25.786844010480085 $228 25.786844010480085 $134 $229 forward 7 unknown #
face $-1 $230 $231 $30 $-1 $232 reversed single #
loop $-1 $-1 $233 $84 #
plane-surface $-1 -198.08497044517497 25.60800662559825 88.995932249092817 0 -1 0 0.81915205242281985 0 -0.57357642473473569 forward_v I I I I #
coedge $-1 $234 $235 $236 $237 reversed $85 $-1 #
coedge $-1 $141 $87 $238 $239 reversed $55 $-1 #
coedge $-1 $87 $140 $234 $240 reversed $55 $-1 #
coedge $-1 $236 $241 $87 $143 forward $242 $-1 #
edge $-1 $243 23.962068950118237 $244 40.010562823122839 $142 $245 forward 7 unknown #
loop $-1 $-1 $149 $88 #
plane-surface $-1 -75.080416272469236 21.729172059594994 2.8672187827756517 -0.81915205242281985 0 0.57357642473473569 0.57357642473473569 0 0.81915205242281985 forward_v I I I I #
loop $-1 $-1 $246 $57 #
coedge $-1 $147 $147 $148 $247 reversed $89 $-1 #
coedge $-1 $148 $148 $147 $247 forward $91 $-1 #
coedge $-1 $149 $149 $92 $150 forward $144 $-1 #
edge $-1 $248 0 $248 6.2831853071796004 $149 $249 forward 7 unknown #
loop $-1 $-1 $156 $93 #
plane-surface $-1 -75.080416272469236 21.729172059594994 2.8672187827756517 -0.81915205242281985 0 0.57357642473473569 0.57357642473473569 0 0.81915205242281985 forward_v I I I I #
loop $-1 $-1 $250 $60 #
coedge $-1 $154 $154 $155 $251 reversed $94 $-1 #
coedge $-1 $155 $155 $154 $251 forward $96 $-1 #
coedge $-1 $156 $156 $97 $157 forward $151 $-1 #
edge $-1 $252 0 $252 6.2831853071796004 $156 $253 forward 7 unknown #
face $-1 $254 $255 $33 $-1 $256 forward single #
loop $-1 $-1 $257 $98 #
plane-surface $-1 111.95625697885782 17.850337493591738 212.00048642179854 0 1 0 0.81915205242281985 0 0.57357642473473569 forward_v I I I I #
coedge $-1 $258 $259 $260 $261 reversed $99 $-1 #
coedge $-1 $163 $101 $262 $263 reversed $64 $-1 #
coedge $-1 $101 $162 $258 $264 reversed $64 $-1 #
coedge $-1 $260 $265 $101 $165 forward $255 $-1 #
edge $-1 $266 -19.102287783040339 $267 -3.0537939100357363 $164 $268 forward 7 unknown #
loop $-1 $-1 $171 $102 #
plane-surface $-1 -11.048297193847915 21.729172059594994 125.87177295548138 0.81915205242281985 0 0.57357642473473569 0.57357642473473569 0 -0.81915205242281985 forward_v I I I I #
loop $-1 $-1 $269 $66 #
coedge $-1 $169 $169 $170 $270 reversed $103 $-1 #
coedge $-1 $170 $170 $169 $270 forward $105 $-1 #
coedge $-1 $171 $171 $106 $172 forward $166 $-1 #
edge $-1 $271 0 $271 6.2831853071796004 $171 $272 forward 7 unknown #
loop $-1 $-1 $178 $107 #
plane-surface $-1 -11.048297193847915 21.729172059594994 125.87177295548138 0.81915205242281985 0 0.57357642473473569 0.57357642473473569 0 -0.81915205242281985 forward_v I I I I #
loop $-1 $-1 $273 $69 #
coedge $-1 $176 $176 $177 $274 reversed $108 $-1 #
coedge $-1 $177 $177 $176 $274 forward $110 $-1 #
coedge $-1 $178 $178 $111 $179 forward $173 $-1 #
edge $-1 $275 0 $275 6.2831853071796004 $178 $276 forward 7 unknown #
face $-1 $277 $278 $27 $-1 $279 reversed single #
loop $-1 $-1 $280 $112 #
plane-surface $-1 -75.08041627246925 0 0 1 0 0 0 0 -1 forward_v I I I I #
coedge $-1 $281 $191 $282 $283 forward $113 $-1 #
coedge $-1 $284 $115 $281 $285 forward $73 $-1 #
coedge $-1 $115 $284 $286 $287 forward $73 $-1 #
coedge $-1 $194 $193 $115 $187 reversed $195 $-1 #
edge $-1 $288 -52.422247860593295 $289 52.422247860593295 $186 $290 forward 7 unknown #
coedge $-1 $117 $116 $291 $292 forward $46 $-1 #
coedge $-1 $293 $294 $116 $190 reversed $278 $-1 #
edge $-1 $197 -75.08041627246925 $295 75.08041627246925 $189 $296 forward 7 unknown #
coedge $-1 $183 $297 $117 $192 reversed $113 $-1 #
edge $-1 $298 -75.08041627246925 $196 75.08041627246925 $191 $299 forward 7 unknown #
coedge $-1 $186 $118 $297 $300 forward $195 $-1 #
coedge $-1 $118 $186 $293 $301 reversed $195 $-1 #
loop $-1 $-1 $193 $277 #
vertex $-1 $119 $302 #
vertex $-1 $119 $303 #
straight-curve $-1 75.08041627246925 0 25.786844010480085 0 1 0 I I #
face $-1 $304 $305 $28 $-1 $306 reversed single #
loop $-1 $-1 $126 $120 #
plane-surface $-1 -71.982328175205296 -65.829368478090814 0 1 0 0 0 0 -1 forward_v I I I I #
coedge $-1 $307 $308 $309 $310 forward $121 $-1 #
coedge $-1 $311 $123 $312 $313 forward $77 $-1 #
coedge $-1 $123 $311 $209 $314 forward $77 $-1 #
edge $-1 $211 -71.982328175205296 $315 -58.948903131863986 $123 $316 forward 7 unknown #
coedge $-1 $125 $124 $317 $318 forward $49 $-1 #
coedge $-1 $319 $320 $124 $208 forward $321 $-1 #
edge $-1 $322 58.948903131863986 $212 71.982328175205296 $207 $323 forward 7 unknown #
coedge $-1 $309 $126 $204 $314 reversed $200 $-1 #
coedge $-1 $126 $309 $319 $324 reversed $200 $-1 #
vertex $-1 $205 $325 #
vertex $-1 $324 $326 #
straight-curve $-1 -71.982328175205296 -52.422247860593295 0 0 0 1 I I #
face $-1 $327 $226 $29 $-1 $328 reversed single #
loop $-1 $-1 $329 $128 #
plane-surface $-1 -65.465615653534641 79.236489095588325 0 0 -1 0 0 0 -1 forward_v I I I I #
coedge $-1 $330 $331 $332 $333 forward $129 $-1 #
coedge $-1 $334 $131 $330 $335 forward $81 $-1 #
coedge $-1 $131 $334 $224 $336 forward $81 $-1 #
edge $-1 $227 58.948903131863986 $337 71.982328175205296 $131 $338 forward 7 unknown #
coedge $-1 $133 $132 $339 $340 forward $52 $-1 #
coedge $-1 $341 $342 $132 $223 forward $343 $-1 #
edge $-1 $344 -71.982328175205296 $228 -58.948903131863986 $222 $345 forward 7 unknown #
coedge $-1 $346 $134 $219 $336 reversed $226 $-1 #
coedge $-1 $134 $346 $341 $347 reversed $226 $-1 #
loop $-1 $-1 $134 $214 #
vertex $-1 $220 $348 #
vertex $-1 $347 $349 #
straight-curve $-1 -58.948903131863986 52.422247860593295 0 0 0 1 I I #
face $-1 $-1 $242 $30 $-1 $350 forward single #
loop $-1 $-1 $351 $136 #
plane-surface $-1 -75.08041627246925 0 0 1 0 0 0 0 -1 forward_v I I I I #
coedge $-1 $352 $353 $354 $355 reversed $137 $-1 #
coedge $-1 $356 $139 $141 $240 forward $85 $-1 #
coedge $-1 $139 $356 $352 $357 forward $85 $-1 #
coedge $-1 $354 $142 $139 $237 forward $242 $-1 #
edge $-1 $244 6.9857514637942408 $358 14.743420595800753 $236 $359 forward 7 unknown #
coedge $-1 $360 $361 $140 $239 forward $231 $-1 #
edge $-1 $362 -41.630747341770778 $243 -18.711122114066324 $238 $363 forward 7 unknown #
edge $-1 $244 -27.979695784091213 $362 2.4884734274515653e-014 $141 $364 forward 7 unknown #
coedge $-1 $142 $354 $360 $365 forward $242 $-1 #
loop $-1 $-1 $354 $230 #
vertex $-1 $239 $366 #
vertex $-1 $143 $367 #
straight-curve $-1 -99.042485222587487 17.850337493591738 25.786844010480085 1 0 0 I I #
coedge $-1 $246 $246 $-1 $368 reversed $146 $-1 #
edge $-1 $369 0 $369 6.2831853071796004 $147 $370 forward 7 unknown #
vertex $-1 $150 $371 #
ellipse-curve $-1 -67.056169335966942 20.06681438845073 14.327031396627866 -0.81915205242281985 0 0.57357642473473569 0.57357642473473569 0 0.81915205242281985 1 I I #
coedge $-1 $250 $250 $-1 $372 reversed $153 $-1 #
edge $-1 $373 0 $373 6.2831853071796004 $154 $374 forward 7 unknown #
vertex $-1 $157 $375 #
ellipse-curve $-1 -67.056169335966942 23.391529730739244 14.327031396627866 -0.81915205242281985 0 0.57357642473473569 0.57357642473473569 0 0.81915205242281985 1 I I #
face $-1 $-1 $376 $33 $-1 $377 reversed single #
loop $-1 $-1 $164 $158 #
plane-surface $-1 0 0 25.786844010480085 0 0 1 1 0 0 forward_v I I I I #
coedge $-1 $378 $379 $380 $381 reversed $159 $-1 #
coedge $-1 $382 $161 $163 $264 forward $99 $-1 #
coedge $-1 $161 $382 $378 $383 forward $99 $-1 #
coedge $-1 $380 $164 $161 $261 forward $255 $-1 #
edge $-1 $267 -14.743420595800753 $384 -6.9857514637942408 $260 $385 forward 7 unknown #
coedge $-1 $386 $387 $162 $263 forward $376 $-1 #
edge $-1 $388 -103.13302442812363 $266 -80.21339920041919 $262 $389 forward 7 unknown #
edge $-1 $267 122.18113676084729 $388 150.16083254493853 $163 $390 forward 7 unknown #
coedge $-1 $164 $380 $386 $391 forward $255 $-1 #
vertex $-1 $165 $392 #
vertex $-1 $165 $393 #
straight-curve $-1 55.978128489428912 25.60800662559825 25.786844010480081 -1 0 0 I I #
coedge $-1 $269 $269 $-1 $394 reversed $168 $-1 #
edge $-1 $395 0 $395 6.2831853071796004 $169 $396 forward 7 unknown #
vertex $-1 $172 $397 #
ellipse-curve $-1 67.056169335966942 20.06681438845073 14.327031396627874 0.81915205242281985 0 0.57357642473473569 0.57357642473473569 0 -0.81915205242281985 1 I I #
coedge $-1 $273 $273 $-1 $398 reversed $175 $-1 #
edge $-1 $399 0 $399 6.2831853071796004 $176 $400 forward 7 unknown #
vertex $-1 $179 $401 #
ellipse-curve $-1 67.056169335966942 23.391529730739244 14.327031396627874 0.81915205242281985 0 0.57357642473473569 0.57357642473473569 0 -0.81915205242281985 1 I I #
face $-1 $-1 $195 $27 $-1 $402 reversed single #
loop $-1 $-1 $293 $180 #
plane-surface $-1 0 52.422247860593295 0 0 -1 0 0 0 -1 forward_v I I I I #
coedge $-1 $403 $291 $294 $404 forward $181 $-1 #
coedge $-1 $297 $183 $184 $285 reversed $113 $-1 #
coedge $-1 $291 $403 $183 $283 reversed $181 $-1 #
edge $-1 $298 -25.786844010480085 $405 25.786844010480085 $282 $406 forward 7 unknown #
coedge $-1 $185 $184 $403 $407 forward $73 $-1 #
edge $-1 $289 -75.08041627246925 $405 75.08041627246925 $281 $408 forward 7 unknown #
coedge $-1 $294 $293 $185 $287 reversed $278 $-1 #
edge $-1 $409 -75.08041627246925 $288 75.08041627246925 $286 $410 forward 7 unknown #
vertex $-1 $187 $411 #
vertex $-1 $300 $412 #
straight-curve $-1 75.08041627246925 0 -25.786844010480085 0 -1 0 I I #
coedge $-1 $280 $282 $188 $292 reversed $181 $-1 #
edge $-1 $295 -52.422247860593295 $298 52.422247860593295 $291 $413 forward 7 unknown #
coedge $-1 $286 $189 $194 $301 forward $278 $-1 #
coedge $-1 $189 $286 $280 $404 reversed $278 $-1 #
vertex $-1 $190 $414 #
straight-curve $-1 0 52.422247860593295 25.786844010480085 -1 0 0 I I #
coedge $-1 $191 $281 $193 $300 reversed $113 $-1 #
vertex $-1 $292 $415 #
straight-curve $-1 0 -52.422247860593295 25.786844010480085 1 0 0 I I #
edge $-1 $196 -25.786844010480085 $289 25.786844010480085 $193 $416 forward 7 unknown #
edge $-1 $197 -25.786844010480085 $288 25.786844010480085 $194 $417 forward 7 unknown #
point $-1 75.08041627246925 -52.422247860593295 25.786844010480085 #
point $-1 75.08041627246925 52.422247860593295 25.786844010480085 #
face $-1 $-1 $321 $28 $-1 $418 forward single #
loop $-1 $-1 $419 $199 #
plane-surface $-1 -58.948903131863986 -65.829368478090814 0 -1 0 0 0 0 1 forward_v I I I I #
coedge $-1 $420 $202 $311 $421 reversed $121 $-1 #
coedge $-1 $202 $420 $422 $423 reversed $121 $-1 #
coedge $-1 $210 $209 $202 $310 reversed $200 $-1 #
edge $-1 $424 -25.786844010480085 $425 25.786844010480085 $309 $426 forward 7 unknown #
coedge $-1 $204 $203 $307 $421 forward $77 $-1 #
coedge $-1 $317 $419 $203 $313 reversed $305 $-1 #
edge $-1 $315 -13.407120617497526 $427 13.407120617497526 $312 $428 forward 7 unknown #
edge $-1 $425 -13.407120617497526 $211 13.407120617497526 $209 $429 forward 7 unknown #
vertex $-1 $313 $430 #
straight-curve $-1 0 -52.422247860593295 -25.786844010480085 1 0 0 I I #
coedge $-1 $431 $312 $206 $318 reversed $305 $-1 #
edge $-1 $322 -25.786844010480085 $315 25.786844010480085 $317 $432 forward 7 unknown #
coedge $-1 $422 $207 $210 $324 forward $321 $-1 #
coedge $-1 $207 $422 $431 $433 forward $321 $-1 #
loop $-1 $-1 $207 $304 #
vertex $-1 $208 $434 #
straight-curve $-1 0 -52.422247860593295 25.786844010480085 -1 0 0 I I #
edge $-1 $212 -13.407120617497526 $424 13.407120617497526 $210 $435 forward 7 unknown #
point $-1 -71.982328175205296 -52.422247860593288 -25.786844010480085 #
point $-1 -71.982328175205296 -52.422247860593288 25.786844010480085 #
face $-1 $-1 $343 $29 $-1 $436 forward single #
plane-surface $-1 -58.948903131863986 65.829368478090799 0 -1 0 0 0 0 1 forward_v I I I I #
coedge $-1 $437 $438 $346 $439 forward $215 $-1 #
coedge $-1 $339 $217 $218 $335 reversed $129 $-1 #
coedge $-1 $217 $339 $342 $440 reversed $129 $-1 #
coedge $-1 $438 $437 $217 $333 reversed $215 $-1 #
edge $-1 $441 -25.786844010480085 $442 25.786844010480085 $332 $443 forward 7 unknown #
coedge $-1 $219 $218 $437 $444 forward $81 $-1 #
edge $-1 $337 -13.407120617497519 $442 13.407120617497526 $330 $445 forward 7 unknown #
edge $-1 $446 -13.407120617497526 $227 13.407120617497519 $224 $447 forward 7 unknown #
vertex $-1 $335 $448 #
straight-curve $-1 0 52.422247860593295 -25.786844010480085 -1 0 0 I I #
coedge $-1 $331 $330 $221 $340 reversed $129 $-1 #
edge $-1 $344 -25.786844010480085 $337 25.786844010480085 $339 $449 forward 7 unknown #
coedge $-1 $450 $222 $225 $347 forward $343 $-1 #
coedge $-1 $222 $450 $331 $440 forward $343 $-1 #
loop $-1 $-1 $222 $327 #
vertex $-1 $223 $451 #
straight-curve $-1 0 52.422247860593295 25.786844010480085 1 0 0 I I #
coedge $-1 $225 $224 $329 $439 reversed $226 $-1 #
edge $-1 $228 -13.407120617497519 $452 13.407120617497526 $225 $453 forward 7 unknown #
point $-1 -58.948903131863986 52.422247860593281 -25.786844010480085 #
point $-1 -58.948903131863986 52.422247860593281 25.786844010480085 #
plane-surface $-1 0 0 25.786844010480085 0 0 1 1 0 0 forward_v I I I I #
coedge $-1 $361 $360 $353 $454 forward $231 $-1 #
coedge $-1 $353 $233 $235 $357 reversed $137 $-1 #
coedge $-1 $233 $352 $351 $454 reversed $137 $-1 #
coedge $-1 $241 $236 $233 $355 forward $242 $-1 #
edge $-1 $358 -40.010562823122839 $455 -23.962068950118237 $354 $456 forward 7 unknown #
coedge $-1 $235 $234 $361 $457 reversed $85 $-1 #
edge $-1 $458 -2.4884734274515653e-014 $358 27.979695784091213 $352 $459 forward 7 unknown #
vertex $-1 $237 $460 #
straight-curve $-1 -59.031922399464648 10.864586029797497 25.786844010480085 0 1 0 I I #
coedge $-1 $351 $238 $241 $365 reversed $231 $-1 #
coedge $-1 $238 $351 $356 $457 forward $231 $-1 #
vertex $-1 $239 $461 #
straight-curve $-1 -75.08041627246925 17.850337493591738 44.497966124546409 0 0 1 I I #
straight-curve $-1 -75.080416272469236 17.850337493591738 2.8672187827756517 -0.57357642473473569 0 -0.81915205242281985 I I #
edge $-1 $455 -25.60800662559825 $243 -17.850337493591738 $360 $462 forward 7 unknown #
point $-1 -75.08041627246925 17.850337493591738 25.786844010480085 #
point $-1 -59.031922399464648 17.850337493591738 25.786844010480085 #
edge $-1 $463 1 $463 0 $246 $-1 forward 7 unknown #
vertex $-1 $247 $464 #
ellipse-curve $-1 -64.037253907316781 20.06681438845073 12.213164120070148 -0.81915205242281985 0 0.57357642473473569 0.57357642473473569 0 0.81915205242281985 1 I I #
point $-1 -66.482592911232217 20.06681438845073 15.146183449050685 #
edge $-1 $465 1 $465 0 $250 $-1 forward 7 unknown #
vertex $-1 $251 $466 #
ellipse-curve $-1 -64.037253907316781 23.391529730739244 12.213164120070148 -0.81915205242281985 0 0.57357642473473569 0.57357642473473569 0 0.81915205242281985 1 I I #
point $-1 -66.482592911232217 23.391529730739244 15.146183449050685 #
loop $-1 $-1 $262 $254 #
plane-surface $-1 75.08041627246925 0 0 -1 0 0 0 0 1 forward_v I I I I #
coedge $-1 $379 $257 $259 $383 reversed $159 $-1 #
coedge $-1 $257 $378 $467 $468 reversed $159 $-1 #
coedge $-1 $265 $260 $257 $381 forward $255 $-1 #
edge $-1 $384 3.0537939100357363 $469 19.102287783040339 $380 $470 forward 7 unknown #
coedge $-1 $259 $258 $387 $471 reversed $99 $-1 #
edge $-1 $472 -150.16083254493853 $384 -122.18113676084729 $378 $473 forward 7 unknown #
vertex $-1 $261 $474 #
straight-curve $-1 59.031922399464662 10.864586029797497 25.786844010480088 0 -1 0 I I #
coedge $-1 $467 $262 $265 $391 reversed $376 $-1 #
coedge $-1 $262 $467 $382 $471 forward $376 $-1 #
vertex $-1 $263 $475 #
straight-curve $-1 75.08041627246925 25.60800662559825 106.00024321089927 0 0 1 I I #
straight-curve $-1 -11.048297193847915 25.60800662559825 125.87177295548138 0.57357642473473569 0 -0.81915205242281985 I I #
edge $-1 $469 17.850337493591738 $266 25.60800662559825 $386 $476 forward 7 unknown #
point $-1 75.08041627246925 25.60800662559825 25.786844010480085 #
point $-1 59.031922399464648 25.60800662559825 25.786844010480081 #
edge $-1 $477 1 $477 0 $269 $-1 forward 7 unknown #
vertex $-1 $270 $478 #
ellipse-curve $-1 64.037253907316781 20.06681438845073 12.213164120070156 0.81915205242281985 0 0.57357642473473569 0.57357642473473569 0 -0.81915205242281985 1 I I #
point $-1 67.629745760701681 20.06681438845073 13.507879344205053 #
edge $-1 $479 1 $479 0 $273 $-1 forward 7 unknown #
vertex $-1 $274 $480 #
ellipse-curve $-1 64.037253907316781 23.391529730739244 12.213164120070156 0.81915205242281985 0 0.57357642473473569 0.57357642473473569 0 -0.81915205242281985 1 I I #
point $-1 67.629745760701681 23.391529730739244 13.507879344205053 #
plane-surface $-1 75.08041627246925 0 0 -1 0 0 0 0 1 forward_v I I I I #
coedge $-1 $282 $280 $284 $407 reversed $181 $-1 #
edge $-1 $295 -25.786844010480085 $409 25.786844010480085 $294 $481 forward 7 unknown #
vertex $-1 $407 $482 #
straight-curve $-1 -75.08041627246925 -52.422247860593295 0 0 0 -1 I I #
edge $-1 $405 -52.422247860593295 $409 52.422247860593295 $403 $483 forward 7 unknown #
straight-curve $-1 0 -52.422247860593295 -25.786844010480085 -1 0 0 I I #
vertex $-1 $287 $484 #
straight-curve $-1 0 52.422247860593295 -25.786844010480085 1 0 0 I I #
point $-1 75.08041627246925 52.422247860593295 -25.786844010480085 #
point $-1 75.08041627246925 -52.422247860593295 -25.786844010480085 #
straight-curve $-1 -75.08041627246925 0 25.786844010480085 0 -1 0 I I #
point $-1 -75.08041627246925 52.422247860593295 25.786844010480085 #
point $-1 -75.08041627246925 -52.422247860593295 25.786844010480085 #
straight-curve $-1 75.08041627246925 -52.422247860593295 0 0 0 -1 I I #
straight-curve $-1 75.08041627246925 52.422247860593295 0 0 0 -1 I I #
plane-surface $-1 0 0 25.786844010480085 0 0 1 1 0 0 forward_v I I I I #
coedge $-1 $312 $431 $420 $485 forward $305 $-1 #
coedge $-1 $308 $307 $419 $485 reversed $121 $-1 #
edge $-1 $427 -6.5167125216706552 $425 6.5167125216706552 $307 $486 forward 7 unknown #
coedge $-1 $320 $319 $308 $423 forward $321 $-1 #
edge $-1 $424 -6.5167125216706552 $487 6.5167125216706552 $308 $488 forward 7 unknown #
vertex $-1 $324 $489 #
vertex $-1 $314 $490 #
straight-curve $-1 -71.982328175205296 -79.23648909558834 0 0 0 -1 I I #
vertex $-1 $485 $491 #
straight-curve $-1 -58.948903131863986 -65.829368478090814 -25.786844010480085 0 -1 0 I I #
straight-curve $-1 -71.982328175205296 -65.829368478090814 -25.786844010480085 0 1 0 I I #
point $-1 -58.948903131863986 -52.422247860593288 -25.786844010480085 #
coedge $-1 $419 $317 $320 $433 reversed $305 $-1 #
straight-curve $-1 -58.948903131863986 -52.422247860593295 0 0 0 -1 I I #
edge $-1 $487 -13.407120617497526 $322 13.407120617497526 $431 $492 forward 7 unknown #
point $-1 -58.948903131863986 -52.422247860593288 25.786844010480085 #
straight-curve $-1 -71.982328175205296 -65.829368478090814 25.786844010480085 0 -1 0 I I #
plane-surface $-1 0 0 25.786844010480085 0 0 1 1 0 0 forward_v I I I I #
coedge $-1 $332 $329 $334 $444 reversed $215 $-1 #
coedge $-1 $329 $332 $450 $493 reversed $215 $-1 #
edge $-1 $452 -25.786844010480085 $446 25.786844010480085 $346 $494 forward 7 unknown #
edge $-1 $441 -13.407120617497526 $344 13.407120617497519 $331 $495 forward 7 unknown #
vertex $-1 $493 $496 #
vertex $-1 $444 $497 #
straight-curve $-1 -71.982328175205296 79.236489095588325 0 0 0 -1 I I #
edge $-1 $442 -6.5167125216706552 $446 6.5167125216706552 $437 $498 forward 7 unknown #
straight-curve $-1 -71.982328175205296 65.829368478090799 -25.786844010480085 0 1 0 I I #
vertex $-1 $336 $499 #
straight-curve $-1 -58.948903131863986 65.829368478090799 -25.786844010480085 0 -1 0 I I #
point $-1 -71.982328175205296 52.422247860593281 -25.786844010480085 #
straight-curve $-1 -71.982328175205296 52.422247860593295 0 0 0 -1 I I #
coedge $-1 $342 $341 $438 $493 forward $343 $-1 #
point $-1 -71.982328175205296 52.422247860593281 25.786844010480085 #
vertex $-1 $347 $500 #
straight-curve $-1 -58.948903131863986 65.829368478090799 25.786844010480085 0 1 0 I I #
edge $-1 $455 18.711122114066324 $458 41.630747341770778 $351 $501 forward 7 unknown #
vertex $-1 $365 $502 #
straight-curve $-1 -99.042485222587487 25.60800662559825 25.786844010480085 -1 0 0 I I #
edge $-1 $458 -14.743420595800753 $362 -6.9857514637942408 $361 $503 forward 7 unknown #
vertex $-1 $457 $504 #
straight-curve $-1 -75.080416272469236 25.60800662559825 2.8672187827756517 0.57357642473473569 0 0.81915205242281985 I I #
point $-1 -59.031922399464648 25.60800662559825 25.786844010480085 #
point $-1 -75.08041627246925 17.850337493591738 2.8672187827756312 #
straight-curve $-1 -75.08041627246925 0 25.786844010480085 0 -1 0 I I #
vertex $-1 $368 $505 #
point $-1 -63.46367748258205 20.06681438845073 13.032316172492969 #
vertex $-1 $372 $506 #
point $-1 -63.46367748258205 23.391529730739244 13.032316172492969 #
coedge $-1 $387 $386 $379 $468 forward $376 $-1 #
edge $-1 $469 80.21339920041919 $472 103.13302442812363 $467 $507 forward 7 unknown #
vertex $-1 $391 $508 #
straight-curve $-1 55.978128489428912 17.850337493591738 25.786844010480081 1 0 0 I I #
edge $-1 $472 6.9857514637942408 $388 14.743420595800753 $387 $509 forward 7 unknown #
vertex $-1 $471 $510 #
straight-curve $-1 -11.048297193847915 17.850337493591738 125.87177295548138 -0.57357642473473569 0 0.81915205242281985 I I #
point $-1 59.031922399464648 17.850337493591738 25.786844010480081 #
point $-1 75.08041627246925 25.60800662559825 2.8672187827756375 #
straight-curve $-1 75.08041627246925 0 25.786844010480085 0 1 0 I I #
vertex $-1 $394 $511 #
point $-1 64.61083033205152 20.06681438845073 11.394012067647335 #
vertex $-1 $398 $512 #
point $-1 64.61083033205152 23.391529730739244 11.394012067647335 #
straight-curve $-1 -75.08041627246925 52.422247860593295 0 0 0 -1 I I #
point $-1 -75.08041627246925 -52.422247860593295 -25.786844010480085 #
straight-curve $-1 -75.08041627246925 0 -25.786844010480085 0 1 0 I I #
point $-1 -75.08041627246925 52.422247860593295 -25.786844010480085 #
edge $-1 $487 -25.786844010480085 $427 25.786844010480085 $419 $513 forward 7 unknown #
straight-curve $-1 -65.465615653534641 -79.23648909558834 -25.786844010480085 -1 0 0 I I #
vertex $-1 $433 $514 #
straight-curve $-1 -65.465615653534641 -79.23648909558834 25.786844010480085 1 0 0 I I #
point $-1 -71.982328175205296 -79.23648909558834 25.786844010480085 #
point $-1 -71.982328175205296 -79.23648909558834 -25.786844010480085 #
point $-1 -58.948903131863986 -79.23648909558834 -25.786844010480085 #
straight-curve $-1 -58.948903131863986 -65.829368478090814 25.786844010480085 0 1 0 I I #
edge $-1 $452 -6.5167125216706552 $441 6.5167125216706552 $438 $515 forward 7 unknown #
straight-curve $-1 -58.948903131863986 79.236489095588325 0 0 0 -1 I I #
straight-curve $-1 -71.982328175205296 65.829368478090799 25.786844010480085 0 -1 0 I I #
point $-1 -71.982328175205296 79.236489095588325 25.786844010480085 #
point $-1 -71.982328175205296 79.236489095588325 -25.786844010480085 #
straight-curve $-1 -65.465615653534641 79.236489095588325 -25.786844010480085 1 0 0 I I #
point $-1 -58.948903131863986 79.236489095588325 -25.786844010480085 #
point $-1 -58.948903131863986 79.236489095588325 25.786844010480085 #
straight-curve $-1 -75.08041627246925 25.60800662559825 44.497966124546409 0 0 -1 I I #
point $-1 -75.08041627246925 25.60800662559825 25.786844010480085 #
straight-curve $-1 -75.08041627246925 10.864586029797497 2.8672187827756495 0 -1 0 I I #
point $-1 -75.08041627246925 25.60800662559825 2.8672187827756312 #
point $-1 -63.218101854893966 20.06681438845073 11.639587695335413 #
point $-1 -63.218101854893966 23.391529730739244 11.639587695335413 #
straight-curve $-1 75.08041627246925 17.850337493591738 106.00024321089927 0 0 -1 I I #
point $-1 75.08041627246925 17.850337493591738 25.786844010480085 #
straight-curve $-1 75.08041627246925 10.864586029797497 2.8672187827756233 0 1 0 I I #
point $-1 75.08041627246925 17.850337493591738 2.8672187827756375 #
point $-1 63.218101854893959 20.06681438845073 11.63958769533542 #
point $-1 63.218101854893959 23.391529730739244 11.63958769533542 #
straight-curve $-1 -58.948903131863986 -79.23648909558834 0 0 0 -1 I I #
point $-1 -58.948903131863986 -79.23648909558834 25.786844010480085 #
straight-curve $-1 -65.465615653534641 79.236489095588325 25.786844010480085 -1 0 0 I I #
End-of-ACIS-data 