500 0 7 0           
7 Unknown 11 ACIS 5.0 NT 24 Fri Mar 26 20:29:34 1999 
-1 9.9999999999999995e-007 1e-010 
body $-1 $7 $-1 $8 #
body $-1 $9 $-1 $10 #
body $-1 $11 $-1 $12 #
body $-1 $13 $-1 $14 #
body $-1 $15 $-1 $16 #
body $-1 $17 $-1 $18 #
body $-1 $19 $-1 $20 #
lump $-1 $-1 $21 $0 #
transform $-1 1 0 0 0 1 0 0 0 1 60.425428022095403 27.664913743848171 8.0534474540984693 1 rotate no_reflect no_shear #
lump $-1 $-1 $22 $1 #
transform $-1 1 0 0 0 1 0 0 0 1 60.425428022095403 27.664913743848171 8.0534474540984693 1 rotate no_reflect no_shear #
lump $-1 $-1 $23 $2 #
transform $-1 1 0 0 0 1 0 0 0 1 60.425428022095403 27.664913743848171 8.0534474540984693 1 rotate no_reflect no_shear #
lump $-1 $-1 $24 $3 #
transform $-1 1 0 0 0 1 0 0 0 1 60.425428022095403 27.664913743848171 8.0534474540984693 1 rotate no_reflect no_shear #
lump $-1 $-1 $25 $4 #
transform $-1 1 0 0 0 1 0 0 0 1 60.425428022095403 27.664913743848171 8.0534474540984693 1 rotate no_reflect no_shear #
lump $-1 $-1 $26 $5 #
transform $-1 1 0 0 0 1 0 0 0 1 60.425428022095403 27.664913743848171 8.0534474540984693 1 rotate no_reflect no_shear #
lump $-1 $-1 $27 $6 #
transform $-1 1 0 0 0 1 0 0 0 1 60.425428022095403 27.664913743848171 8.0534474540984693 1 rotate no_reflect no_shear #
shell $-1 $-1 $-1 $28 $-1 $7 #
shell $-1 $-1 $-1 $29 $-1 $9 #
shell $-1 $-1 $-1 $30 $-1 $11 #
shell $-1 $-1 $-1 $31 $-1 $13 #
shell $-1 $-1 $-1 $32 $-1 $15 #
shell $-1 $-1 $-1 $33 $-1 $17 #
shell $-1 $-1 $-1 $34 $-1 $19 #
face $-1 $35 $36 $21 $-1 $37 forward single #
face $-1 $38 $39 $22 $-1 $40 forward single #
face $-1 $41 $42 $23 $-1 $43 reversed single #
face $-1 $44 $45 $24 $-1 $46 forward single #
face $-1 $47 $48 $25 $-1 $49 forward single #
face $-1 $50 $51 $26 $-1 $52 reversed single #
face $-1 $53 $54 $27 $-1 $55 forward single #
face $-1 $56 $57 $21 $-1 $58 reversed single #
loop $-1 $-1 $59 $28 #
plane-surface $-1 0 0 8.0534474540984693 0 0 1 1 0 0 forward_v I I I I #
face $-1 $60 $61 $22 $-1 $62 reversed single #
loop $-1 $-1 $63 $29 #
plane-surface $-1 0 -24.072191865713886 6.2806102738042204 0 0 1 1 0 0 forward_v I I I I #
face $-1 $64 $65 $23 $-1 $66 reversed single #
loop $-1 $-1 $67 $30 #
plane-surface $-1 -151.63272785845095 21.556173884221149 82.856343520072897 0 1 0 -0.75470958851134928 0 0.65605901945558964 forward_v I I I I #
face $-1 $68 $69 $24 $-1 $70 forward single #
loop $-1 $71 $72 $31 #
cone-surface $-1 -57.874920992610988 23.301528129828871 5.2887096471623174 0.75470958851134928 0 -0.65605901945558964 0.32802950972779482 0 0.37735479425567464 1 I I 0 1 0.5 forward I I I I #
face $-1 $73 $74 $25 $-1 $75 forward single #
loop $-1 $76 $77 $32 #
cone-surface $-1 -57.874920992610988 25.919559498240449 5.2887096471623174 0.75470958851134928 0 -0.65605901945558964 0.32802950972779482 0 0.37735479425567464 1 I I 0 1 0.5 forward I I I I #
face $-1 $78 $79 $26 $-1 $80 reversed single #
loop $-1 $-1 $81 $33 #
plane-surface $-1 39.596871865264887 -8.6361197582856057 172.60533883012425 0 -1 0 -0.61566148304635926 0 -0.78801074757464917 forward_v I I I I #
face $-1 $82 $83 $27 $-1 $84 forward single #
loop $-1 $85 $86 $34 #
cone-surface $-1 55.628861319368951 -14.557794872932604 3.5362675383330675 -0.61566148304635926 0 -0.78801074757464917 1.1820161213619738 0 -0.92349222456953894 1 I I 0 1 1.5 forward I I I I #
face $-1 $87 $88 $21 $-1 $89 reversed single #
loop $-1 $-1 $90 $35 #
plane-surface $-1 0 0 -8.0534474540984693 0 0 1 1 0 0 forward_v I I I I #
coedge $-1 $91 $92 $93 $94 forward $36 $-1 #
face $-1 $95 $96 $22 $-1 $97 reversed single #
loop $-1 $-1 $98 $38 #
plane-surface $-1 0 -24.072191865713886 2.8020970801076475 0 0 1 1 0 0 forward_v I I I I #
coedge $-1 $99 $100 $101 $102 reversed $39 $-1 #
face $-1 $103 $104 $23 $-1 $105 forward single #
loop $-1 $-1 $106 $41 #
plane-surface $-1 -60.425428022095403 24.61054381403466 3.5710494033524611 -0.75470958851134928 0 0.65605901945558964 0.65605901945558964 0 0.75470958851134928 forward_v I I I I #
coedge $-1 $107 $108 $109 $110 reversed $42 $-1 #
face $-1 $-1 $111 $24 $-1 $112 forward single #
loop $-1 $113 $114 $44 #
cone-surface $-1 -57.083981105850533 23.301528129828871 4.601156110735273 0.75470958851134928 0 -0.65605901945558964 0.16401475486389741 0 0.18867739712783732 1 I I -0.70710678118654746 0.70710678118654746 0.25 forward I I I I #
loop $-1 $-1 $115 $31 #
coedge $-1 $72 $72 $116 $117 reversed $45 $-1 #
face $-1 $-1 $118 $25 $-1 $119 forward single #
loop $-1 $120 $121 $47 #
cone-surface $-1 -57.083981105850533 25.919559498240449 4.601156110735273 0.75470958851134928 0 -0.65605901945558964 0.16401475486389741 0 0.18867739712783732 1 I I -0.70710678118654746 0.70710678118654746 0.25 forward I I I I #
loop $-1 $-1 $122 $32 #
coedge $-1 $77 $77 $123 $124 reversed $48 $-1 #
face $-1 $125 $126 $26 $-1 $127 reversed single #
loop $-1 $-1 $128 $50 #
plane-surface $-1 -34.806345394323699 -14.557794872932604 77.373565413705151 0.61566148304635926 0 0.78801074757464917 0.78801074757464917 0 -0.61566148304635926 forward_v I I I I #
coedge $-1 $129 $130 $131 $132 reversed $51 $-1 #
face $-1 $-1 $133 $27 $-1 $134 forward single #
loop $-1 $135 $136 $53 #
cone-surface $-1 53.623583645970868 -14.557794872932604 0.96962921187763662 -0.61566148304635926 0 -0.78801074757464917 0.59100806068098688 0 -0.46174611228476947 1 I I -0.70710678118654757 0.70710678118654757 0.75 forward I I I I #
loop $-1 $-1 $137 $34 #
coedge $-1 $86 $86 $138 $139 reversed $54 $-1 #
face $-1 $140 $141 $21 $-1 $142 reversed single #
loop $-1 $-1 $143 $56 #
plane-surface $-1 0 -27.664913743848171 0 0 1 0 0 0 1 forward_v I I I I #
coedge $-1 $144 $145 $146 $147 forward $57 $-1 #
coedge $-1 $148 $59 $149 $150 forward $36 $-1 #
coedge $-1 $59 $148 $151 $152 forward $36 $-1 #
coedge $-1 $153 $154 $59 $94 reversed $155 $-1 #
edge $-1 $156 -27.664913743848171 $157 27.664913743848171 $93 $158 forward 7 unknown #
face $-1 $159 $160 $22 $-1 $161 reversed single #
loop $-1 $-1 $162 $60 #
plane-surface $-1 0 -20.479469987579602 4.5413536769559339 0 -1 0 0 0 -1 forward_v I I I I #
coedge $-1 $163 $164 $165 $166 reversed $61 $-1 #
coedge $-1 $167 $63 $168 $169 forward $39 $-1 #
coedge $-1 $63 $167 $170 $171 reversed $39 $-1 #
coedge $-1 $172 $173 $63 $102 forward $174 $-1 #
edge $-1 $175 8.4433740547226588 $176 15.628817810991228 $101 $177 forward 7 unknown #
face $-1 $178 $179 $23 $-1 $180 reversed single #
loop $-1 $-1 $109 $64 #
plane-surface $-1 0 0 8.0534474540984693 0 0 1 1 0 0 forward_v I I I I #
coedge $-1 $181 $182 $183 $184 reversed $65 $-1 #
coedge $-1 $108 $67 $185 $186 reversed $42 $-1 #
coedge $-1 $67 $107 $181 $187 reversed $42 $-1 #
coedge $-1 $183 $188 $67 $110 forward $104 $-1 #
edge $-1 $189 15.390935907130071 $190 19.287424986833678 $109 $191 forward 7 unknown #
loop $-1 $-1 $116 $68 #
plane-surface $-1 -60.425428022095403 24.61054381403466 3.5710494033524611 -0.75470958851134928 0 0.65605901945558964 0.65605901945558964 0 0.75470958851134928 forward_v I I I I #
loop $-1 $-1 $192 $44 #
coedge $-1 $114 $114 $115 $193 reversed $69 $-1 #
coedge $-1 $115 $115 $114 $193 forward $71 $-1 #
coedge $-1 $116 $116 $72 $117 forward $111 $-1 #
edge $-1 $194 0 $194 6.2831853071796004 $116 $195 forward 7 unknown #
loop $-1 $-1 $123 $73 #
plane-surface $-1 -60.425428022095403 24.61054381403466 3.5710494033524611 -0.75470958851134928 0 0.65605901945558964 0.65605901945558964 0 0.75470958851134928 forward_v I I I I #
loop $-1 $-1 $196 $47 #
coedge $-1 $121 $121 $122 $197 reversed $74 $-1 #
coedge $-1 $122 $122 $121 $197 forward $76 $-1 #
coedge $-1 $123 $123 $77 $124 forward $118 $-1 #
edge $-1 $198 0 $198 6.2831853071796004 $123 $199 forward 7 unknown #
face $-1 $200 $201 $26 $-1 $202 forward single #
loop $-1 $-1 $203 $78 #
plane-surface $-1 60.425428022095403 0 0 -1 0 0 0 0 1 forward_v I I I I #
coedge $-1 $204 $205 $206 $207 reversed $79 $-1 #
coedge $-1 $130 $81 $208 $209 reversed $51 $-1 #
coedge $-1 $81 $129 $204 $210 reversed $51 $-1 #
coedge $-1 $206 $211 $81 $132 forward $212 $-1 #
edge $-1 $213 -40.626992089462959 $214 -34.120921806236723 $131 $215 forward 7 unknown #
loop $-1 $-1 $138 $82 #
plane-surface $-1 -34.806345394323699 -14.557794872932604 77.373565413705151 0.61566148304635926 0 0.78801074757464917 0.78801074757464917 0 -0.61566148304635926 forward_v I I I I #
loop $-1 $-1 $216 $53 #
coedge $-1 $136 $136 $137 $217 reversed $83 $-1 #
coedge $-1 $137 $137 $136 $217 forward $85 $-1 #
coedge $-1 $138 $138 $86 $139 forward $133 $-1 #
edge $-1 $218 0 $218 6.2831853071796004 $138 $219 forward 7 unknown #
face $-1 $220 $221 $21 $-1 $222 reversed single #
loop $-1 $-1 $223 $87 #
plane-surface $-1 -60.425428022095403 0 0 1 0 0 0 0 -1 forward_v I I I I #
coedge $-1 $224 $151 $225 $226 forward $88 $-1 #
coedge $-1 $227 $90 $224 $228 forward $57 $-1 #
coedge $-1 $90 $227 $229 $230 forward $57 $-1 #
coedge $-1 $154 $153 $90 $147 reversed $155 $-1 #
edge $-1 $231 -27.664913743848171 $232 27.664913743848171 $146 $233 forward 7 unknown #
coedge $-1 $92 $91 $234 $235 forward $36 $-1 #
coedge $-1 $236 $237 $91 $150 reversed $221 $-1 #
edge $-1 $157 -60.425428022095403 $238 60.425428022095403 $149 $239 forward 7 unknown #
coedge $-1 $143 $240 $92 $152 reversed $88 $-1 #
edge $-1 $241 -60.425428022095403 $156 60.425428022095403 $151 $242 forward 7 unknown #
coedge $-1 $146 $93 $240 $243 forward $155 $-1 #
coedge $-1 $93 $146 $236 $244 reversed $155 $-1 #
loop $-1 $-1 $153 $220 #
vertex $-1 $94 $245 #
vertex $-1 $94 $246 #
straight-curve $-1 60.425428022095403 0 8.0534474540984693 0 1 0 I I #
face $-1 $247 $248 $22 $-1 $249 reversed single #
loop $-1 $-1 $250 $95 #
plane-surface $-1 -60.425428022095403 0 0 1 0 0 0 0 -1 forward_v I I I I #
coedge $-1 $251 $168 $173 $252 reversed $96 $-1 #
coedge $-1 $253 $98 $254 $255 reversed $61 $-1 #
coedge $-1 $98 $253 $251 $256 forward $61 $-1 #
coedge $-1 $173 $172 $98 $166 forward $174 $-1 #
edge $-1 $257 -15.628817810991228 $258 -8.4433740547226588 $165 $259 forward 7 unknown #
coedge $-1 $100 $99 $250 $260 reversed $39 $-1 #
coedge $-1 $162 $261 $99 $169 reversed $96 $-1 #
edge $-1 $175 -60.425428022095403 $262 60.425428022095403 $168 $263 forward 7 unknown #
coedge $-1 $264 $265 $100 $171 forward $248 $-1 #
edge $-1 $176 -60.425428022095403 $266 60.425428022095403 $170 $267 forward 7 unknown #
coedge $-1 $165 $101 $265 $268 forward $174 $-1 #
coedge $-1 $101 $165 $162 $252 forward $174 $-1 #
loop $-1 $-1 $101 $247 #
vertex $-1 $102 $269 #
vertex $-1 $268 $270 #
straight-curve $-1 60.425428022095403 -12.036095932856943 6.2806102738042204 0 -1 0 I I #
face $-1 $-1 $271 $23 $-1 $272 reversed single #
loop $-1 $-1 $273 $103 #
plane-surface $-1 0 27.664913743848171 0 0 -1 0 0 0 -1 forward_v I I I I #
coedge $-1 $274 $106 $108 $187 forward $65 $-1 #
coedge $-1 $106 $274 $273 $275 reversed $65 $-1 #
coedge $-1 $276 $109 $106 $184 forward $104 $-1 #
edge $-1 $190 9.250901977203819 $277 15.359641836830841 $183 $278 forward 7 unknown #
coedge $-1 $279 $280 $107 $186 forward $271 $-1 #
edge $-1 $281 -37.857122356683988 $189 -33.374724305937981 $185 $282 forward 7 unknown #
edge $-1 $190 -5.9392355933723566 $281 0 $108 $283 forward 7 unknown #
coedge $-1 $109 $276 $279 $284 forward $104 $-1 #
vertex $-1 $186 $285 #
vertex $-1 $110 $286 #
straight-curve $-1 -75.816363929225474 21.556173884221149 8.0534474540984675 1 0 0 I I #
coedge $-1 $192 $192 $-1 $287 reversed $113 $-1 #
edge $-1 $288 0 $288 6.2831853071796004 $114 $289 forward 7 unknown #
vertex $-1 $117 $290 #
ellipse-curve $-1 -58.477183482243603 23.301528129828871 5.8122484287254634 -0.75470958851134928 0 0.65605901945558964 0.32802950972779482 0 0.37735479425567464 1 I I #
coedge $-1 $196 $196 $-1 $291 reversed $120 $-1 #
edge $-1 $292 0 $292 6.2831853071796004 $121 $293 forward 7 unknown #
vertex $-1 $124 $294 #
ellipse-curve $-1 -58.477183482243603 25.919559498240449 5.8122484287254634 -0.75470958851134928 0 0.65605901945558964 0.32802950972779482 0 0.37735479425567464 1 I I #
face $-1 $-1 $212 $26 $-1 $295 forward single #
loop $-1 $-1 $296 $125 #
plane-surface $-1 0 -20.479469987579602 4.5413536769559339 0 -1 0 0 0 -1 forward_v I I I I #
coedge $-1 $297 $298 $299 $300 forward $126 $-1 #
coedge $-1 $301 $128 $130 $210 forward $79 $-1 #
coedge $-1 $128 $301 $296 $302 reversed $79 $-1 #
coedge $-1 $303 $131 $128 $207 forward $212 $-1 #
edge $-1 $214 1.3572223218193038 $304 13.2005725511133 $206 $305 forward 7 unknown #
coedge $-1 $298 $297 $129 $209 forward $126 $-1 #
edge $-1 $306 -83.332321260945562 $213 -78.249221960963652 $208 $307 forward 7 unknown #
edge $-1 $214 112.59453428303371 $306 120.85085604419081 $130 $308 forward 7 unknown #
coedge $-1 $131 $303 $298 $309 forward $212 $-1 #
loop $-1 $-1 $303 $200 #
vertex $-1 $209 $310 #
vertex $-1 $132 $311 #
straight-curve $-1 19.798435932632444 -8.6361197582856057 8.0534474540984746 -1 0 0 I I #
coedge $-1 $216 $216 $-1 $312 reversed $135 $-1 #
edge $-1 $313 0 $313 6.2831853071796004 $136 $314 forward 7 unknown #
vertex $-1 $139 $315 #
ellipse-curve $-1 57.172392880482278 -14.557794872932604 5.5118978041075284 0.61566148304635926 0 0.78801074757464917 1.1820161213619738 0 -0.92349222456953894 1 I I #
face $-1 $-1 $155 $21 $-1 $316 reversed single #
loop $-1 $-1 $236 $140 #
plane-surface $-1 0 27.664913743848171 0 0 -1 0 0 0 -1 forward_v I I I I #
coedge $-1 $317 $234 $237 $318 forward $141 $-1 #
coedge $-1 $240 $143 $144 $228 reversed $88 $-1 #
coedge $-1 $234 $317 $143 $226 reversed $141 $-1 #
edge $-1 $241 -8.0534474540984693 $319 8.0534474540984693 $225 $320 forward 7 unknown #
coedge $-1 $145 $144 $317 $321 forward $57 $-1 #
edge $-1 $232 -60.425428022095403 $319 60.425428022095403 $224 $322 forward 7 unknown #
coedge $-1 $237 $236 $145 $230 reversed $221 $-1 #
edge $-1 $323 -60.425428022095403 $231 60.425428022095403 $229 $324 forward 7 unknown #
vertex $-1 $147 $325 #
vertex $-1 $243 $326 #
straight-curve $-1 60.425428022095403 0 -8.0534474540984693 0 -1 0 I I #
coedge $-1 $223 $225 $148 $235 reversed $141 $-1 #
edge $-1 $238 -27.664913743848171 $241 27.664913743848171 $234 $327 forward 7 unknown #
coedge $-1 $229 $149 $154 $244 forward $221 $-1 #
coedge $-1 $149 $229 $223 $318 reversed $221 $-1 #
vertex $-1 $150 $328 #
straight-curve $-1 0 27.664913743848171 8.0534474540984693 -1 0 0 I I #
coedge $-1 $151 $224 $153 $243 reversed $88 $-1 #
vertex $-1 $235 $329 #
straight-curve $-1 0 -27.664913743848171 8.0534474540984693 1 0 0 I I #
edge $-1 $156 -8.0534474540984693 $232 8.0534474540984693 $153 $330 forward 7 unknown #
edge $-1 $157 -8.0534474540984693 $231 8.0534474540984693 $154 $331 forward 7 unknown #
point $-1 60.425428022095403 -27.664913743848171 8.0534474540984693 #
point $-1 60.425428022095403 27.664913743848171 8.0534474540984693 #
face $-1 $-1 $174 $22 $-1 $332 reversed single #
loop $-1 $-1 $170 $159 #
plane-surface $-1 0 -27.664913743848171 0 0 1 0 0 0 1 forward_v I I I I #
coedge $-1 $333 $334 $167 $260 forward $160 $-1 #
coedge $-1 $261 $162 $164 $256 reversed $96 $-1 #
edge $-1 $258 0.53142024162968049 $175 4.0099334353262535 $173 $335 forward 7 unknown #
coedge $-1 $164 $163 $336 $337 reversed $61 $-1 #
coedge $-1 $265 $264 $163 $255 forward $248 $-1 #
edge $-1 $338 -60.425428022095403 $257 60.425428022095403 $254 $339 forward 7 unknown #
edge $-1 $340 -60.425428022095403 $258 60.425428022095403 $251 $341 forward 7 unknown #
vertex $-1 $255 $342 #
vertex $-1 $166 $343 #
straight-curve $-1 60.425428022095403 -12.036095932856943 2.8020970801076475 0 1 0 I I #
edge $-1 $266 -15.628817810991228 $262 -8.4433740547226588 $250 $344 forward 7 unknown #
coedge $-1 $168 $251 $333 $345 reversed $96 $-1 #
vertex $-1 $260 $346 #
straight-curve $-1 0 -20.479469987579602 6.2806102738042204 -1 0 0 I I #
coedge $-1 $254 $170 $334 $347 forward $248 $-1 #
coedge $-1 $170 $254 $172 $268 reversed $248 $-1 #
vertex $-1 $347 $348 #
straight-curve $-1 0 -27.664913743848171 6.2806102738042204 -1 0 0 I I #
edge $-1 $176 -6.2806102738042204 $257 -2.8020970801076475 $172 $349 forward 7 unknown #
point $-1 60.425428022095403 -20.479469987579602 6.2806102738042204 #
point $-1 60.425428022095403 -27.664913743848171 6.2806102738042204 #
loop $-1 $-1 $185 $178 #
plane-surface $-1 -60.425428022095403 0 0 1 0 0 0 0 -1 forward_v I I I I #
coedge $-1 $350 $351 $182 $275 forward $179 $-1 #
coedge $-1 $182 $181 $280 $352 reversed $65 $-1 #
edge $-1 $277 12.534535322928839 $353 18.473770916301195 $273 $354 forward 7 unknown #
coedge $-1 $188 $183 $351 $355 forward $104 $-1 #
vertex $-1 $355 $356 #
straight-curve $-1 -56.528938942391797 12.30527190701733 8.0534474540984675 0 1 0 I I #
coedge $-1 $357 $185 $188 $284 reversed $271 $-1 #
coedge $-1 $185 $357 $274 $352 forward $271 $-1 #
vertex $-1 $186 $358 #
straight-curve $-1 -60.425428022095403 21.556173884221149 41.428171760036449 0 0 1 I I #
straight-curve $-1 -60.425428022095403 21.556173884221149 3.5710494033524611 -0.65605901945558964 0 -0.75470958851134928 I I #
edge $-1 $359 -27.664913743848171 $189 -21.556173884221149 $279 $360 forward 7 unknown #
point $-1 -60.425428022095403 21.556173884221149 8.0534474540984693 #
point $-1 -56.528938942391797 21.556173884221149 8.0534474540984693 #
edge $-1 $361 1 $361 0 $192 $-1 forward 7 unknown #
vertex $-1 $193 $362 #
ellipse-curve $-1 -57.272658502978373 23.301528129828871 4.7651708655991705 -0.75470958851134928 0 0.65605901945558964 0.32802950972779482 0 0.37735479425567464 1 I I #
point $-1 -58.149153972515805 23.301528129828871 6.1896032229811384 #
edge $-1 $363 1 $363 0 $196 $-1 forward 7 unknown #
vertex $-1 $197 $364 #
ellipse-curve $-1 -57.272658502978373 25.919559498240449 4.7651708655991705 -0.75470958851134928 0 0.65605901945558964 0.32802950972779482 0 0.37735479425567464 1 I I #
point $-1 -58.149153972515805 25.919559498240449 6.1896032229811384 #
plane-surface $-1 0 0 8.0534474540984693 0 0 1 1 0 0 forward_v I I I I #
coedge $-1 $299 $365 $205 $302 forward $201 $-1 #
coedge $-1 $208 $203 $301 $366 forward $126 $-1 #
coedge $-1 $203 $208 $211 $309 reversed $126 $-1 #
coedge $-1 $365 $296 $203 $300 reversed $201 $-1 #
edge $-1 $367 78.249221960963652 $368 83.332321260945548 $203 $369 forward 7 unknown #
coedge $-1 $205 $204 $297 $366 reversed $79 $-1 #
edge $-1 $304 76.460653410075736 $368 84.716975171232832 $296 $370 forward 7 unknown #
coedge $-1 $211 $206 $365 $371 forward $212 $-1 #
vertex $-1 $207 $372 #
straight-curve $-1 53.919357738869174 -7.2788974364663019 8.0534474540984604 0 -1 0 I I #
vertex $-1 $209 $373 #
straight-curve $-1 60.425428022095403 -8.6361197582856057 86.302669415062127 0 0 1 I I #
straight-curve $-1 -34.806345394323699 -8.6361197582856057 77.373565413705151 0.78801074757464917 0 -0.61566148304635926 I I #
edge $-1 $367 -20.479469987579602 $213 -8.6361197582856057 $298 $374 forward 7 unknown #
point $-1 60.425428022095403 -8.6361197582856057 8.0534474540984693 #
point $-1 53.919357738869166 -8.6361197582856057 8.0534474540984746 #
edge $-1 $375 1 $375 0 $216 $-1 forward 7 unknown #
vertex $-1 $217 $376 #
ellipse-curve $-1 54.085329758255639 -14.557794872932604 1.5606372725586235 0.61566148304635926 0 0.78801074757464917 1.1820161213619738 0 -0.92349222456953894 1 I I #
point $-1 58.354409001844239 -14.557794872932604 4.588405579537973 #
plane-surface $-1 60.425428022095403 0 0 -1 0 0 0 0 1 forward_v I I I I #
coedge $-1 $225 $223 $227 $321 reversed $141 $-1 #
edge $-1 $238 -8.0534474540984693 $323 8.0534474540984693 $237 $377 forward 7 unknown #
vertex $-1 $321 $378 #
straight-curve $-1 -60.425428022095403 -27.664913743848171 0 0 0 -1 I I #
edge $-1 $319 -27.664913743848171 $323 27.664913743848171 $317 $379 forward 7 unknown #
straight-curve $-1 0 -27.664913743848171 -8.0534474540984693 -1 0 0 I I #
vertex $-1 $230 $380 #
straight-curve $-1 0 27.664913743848171 -8.0534474540984693 1 0 0 I I #
point $-1 60.425428022095403 27.664913743848171 -8.0534474540984693 #
point $-1 60.425428022095403 -27.664913743848171 -8.0534474540984693 #
straight-curve $-1 -60.425428022095403 0 8.0534474540984693 0 -1 0 I I #
point $-1 -60.425428022095403 27.664913743848171 8.0534474540984693 #
point $-1 -60.425428022095403 -27.664913743848171 8.0534474540984693 #
straight-curve $-1 60.425428022095403 -27.664913743848171 0 0 0 -1 I I #
straight-curve $-1 60.425428022095403 27.664913743848171 0 0 0 -1 I I #
plane-surface $-1 60.425428022095403 0 0 -1 0 0 0 0 1 forward_v I I I I #
coedge $-1 $336 $250 $261 $345 forward $160 $-1 #
coedge $-1 $250 $336 $264 $347 reversed $160 $-1 #
straight-curve $-1 60.425428022095403 -20.479469987579602 2.270676838477967 0 0 1 I I #
coedge $-1 $334 $333 $253 $337 forward $160 $-1 #
edge $-1 $340 8.4433740547226588 $338 15.628817810991228 $336 $381 forward 7 unknown #
vertex $-1 $255 $382 #
straight-curve $-1 0 -27.664913743848171 2.8020970801076475 1 0 0 I I #
vertex $-1 $337 $383 #
straight-curve $-1 0 -20.479469987579602 2.8020970801076475 1 0 0 I I #
point $-1 60.425428022095403 -27.664913743848171 2.8020970801076475 #
point $-1 60.425428022095403 -20.479469987579602 2.8020970801076475 #
straight-curve $-1 -60.425428022095403 -12.036095932856943 6.2806102738042204 0 1 0 I I #
edge $-1 $262 -4.0099334353262535 $340 -0.53142024162968049 $333 $384 forward 7 unknown #
point $-1 -60.425428022095403 -20.479469987579602 6.2806102738042204 #
edge $-1 $266 -6.2806102738042204 $338 -2.8020970801076475 $334 $385 forward 7 unknown #
point $-1 -60.425428022095403 -27.664913743848171 6.2806102738042204 #
straight-curve $-1 60.425428022095403 -27.664913743848171 0 0 0 -1 I I #
coedge $-1 $351 $273 $357 $386 reversed $179 $-1 #
coedge $-1 $273 $350 $276 $355 reversed $179 $-1 #
edge $-1 $353 -15.359641836830841 $281 -9.250901977203819 $280 $387 forward 7 unknown #
vertex $-1 $275 $388 #
straight-curve $-1 -48.305543989099647 27.664913743848171 17.513381449847063 -0.65605901945558975 0 -0.75470958851134939 I I #
edge $-1 $277 56.528938942391797 $359 60.425428022095403 $351 $389 forward 7 unknown #
point $-1 -56.528938942391797 27.664913743848171 8.0534474540984693 #
coedge $-1 $280 $279 $350 $386 forward $271 $-1 #
point $-1 -60.425428022095403 21.556173884221149 3.5710494033524611 #
vertex $-1 $355 $390 #
straight-curve $-1 -60.425428022095403 0 8.0534474540984693 0 -1 0 I I #
vertex $-1 $287 $391 #
point $-1 -56.944628993250575 23.301528129828871 5.1425256598548454 #
vertex $-1 $291 $392 #
point $-1 -56.944628993250575 25.919559498240449 5.1425256598548454 #
coedge $-1 $296 $299 $303 $371 reversed $201 $-1 #
edge $-1 $368 -13.2005725511133 $306 -1.3572223218193038 $297 $393 forward 7 unknown #
vertex $-1 $309 $394 #
vertex $-1 $302 $395 #
straight-curve $-1 60.425428022095403 -20.479469987579602 86.302669415062127 0 0 -1 I I #
straight-curve $-1 -6.3324589148507719 -20.479469987579602 55.127326727239371 0.78801074757464917 0 -0.61566148304635926 I I #
edge $-1 $304 34.120921806236723 $367 40.626992089462959 $303 $396 forward 7 unknown #
point $-1 53.919357738869166 -20.479469987579602 8.0534474540984746 #
point $-1 60.425428022095403 -8.6361197582856057 2.9703481541165644 #
straight-curve $-1 60.425428022095403 0 8.0534474540984693 0 1 0 I I #
vertex $-1 $312 $397 #
point $-1 55.267345879617608 -14.557794872932604 0.63714504798908456 #
straight-curve $-1 -60.425428022095403 27.664913743848171 0 0 0 -1 I I #
point $-1 -60.425428022095403 -27.664913743848171 -8.0534474540984693 #
straight-curve $-1 -60.425428022095403 0 -8.0534474540984693 0 1 0 I I #
point $-1 -60.425428022095403 27.664913743848171 -8.0534474540984693 #
straight-curve $-1 -60.425428022095403 -12.036095932856943 2.8020970801076475 0 -1 0 I I #
point $-1 -60.425428022095403 -27.664913743848171 2.8020970801076475 #
point $-1 -60.425428022095403 -20.479469987579602 2.8020970801076475 #
straight-curve $-1 -60.425428022095403 -20.479469987579602 2.270676838477967 0 0 -1 I I #
straight-curve $-1 -60.425428022095403 -27.664913743848171 0 0 0 -1 I I #
edge $-1 $359 -8.0534474540984693 $353 -3.5710494033524611 $350 $398 forward 7 unknown #
straight-curve $-1 -60.425428022095403 12.30527190701733 3.5710494033524576 0 -1 0 I I #
point $-1 -60.425428022095403 27.664913743848171 3.5710494033524611 #
straight-curve $-1 0 27.664913743848171 8.0534474540984693 -1 0 0 I I #
point $-1 -60.425428022095403 27.664913743848171 8.0534474540984693 #
point $-1 -56.895303708722693 23.301528129828871 4.4371413558713755 #
point $-1 -56.895303708722693 25.919559498240449 4.4371413558713755 #
straight-curve $-1 60.42542802209541 -7.2788974364663019 2.9703481541165715 0 1 0 I I #
point $-1 60.425428022095403 -20.479469987579602 8.0534474540984693 #
point $-1 60.425428022095403 -20.479469987579602 2.9703481541165715 #
straight-curve $-1 19.798435932632444 -20.479469987579602 8.0534474540984746 1 0 0 I I #
point $-1 53.161837533686096 -14.557794872932604 0.37862115119664974 #
straight-curve $-1 -60.425428022095403 27.664913743848171 0 0 0 -1 I I #
End-of-ACIS-data 