500 0 10 0           
7 Unknown 11 ACIS 5.0 NT 24 Thu Mar 25 16:19:49 1999 
-1 9.9999999999999995e-007 1e-010 
body $-1 $10 $-1 $11 #
body $-1 $12 $-1 $13 #
body $-1 $14 $-1 $15 #
body $-1 $16 $-1 $17 #
body $-1 $18 $-1 $19 #
body $-1 $20 $-1 $21 #
body $-1 $22 $-1 $23 #
body $-1 $24 $-1 $25 #
body $-1 $26 $-1 $27 #
body $-1 $28 $-1 $29 #
lump $-1 $-1 $30 $0 #
transform $-1 1 0 0 0 1 0 0 0 1 77.178868984038814 42.092597181309273 19.716734148299366 1 rotate no_reflect no_shear #
lump $-1 $-1 $31 $1 #
transform $-1 1 0 0 0 1 0 0 0 1 77.178868984038814 42.092597181309273 19.716734148299366 1 rotate no_reflect no_shear #
lump $-1 $-1 $32 $2 #
transform $-1 1 0 0 0 1 0 0 0 1 77.178868984038814 42.092597181309273 19.716734148299366 1 rotate no_reflect no_shear #
lump $-1 $-1 $33 $3 #
transform $-1 1 0 0 0 1 0 0 0 1 77.178868984038814 42.092597181309273 19.716734148299366 1 rotate no_reflect no_shear #
lump $-1 $-1 $34 $4 #
transform $-1 1 0 0 0 1 0 0 0 1 77.178868984038814 42.092597181309273 19.716734148299366 1 rotate no_reflect no_shear #
lump $-1 $-1 $35 $5 #
transform $-1 1 0 0 0 1 0 0 0 1 77.178868984038814 42.092597181309273 19.716734148299366 1 rotate no_reflect no_shear #
lump $-1 $-1 $36 $6 #
transform $-1 1 0 0 0 1 0 0 0 1 77.178868984038814 42.092597181309273 19.716734148299366 1 rotate no_reflect no_shear #
lump $-1 $-1 $37 $7 #
transform $-1 1 0 0 0 1 0 0 0 1 77.178868984038814 42.092597181309273 19.716734148299366 1 rotate no_reflect no_shear #
lump $-1 $-1 $38 $8 #
transform $-1 1 0 0 0 1 0 0 0 1 77.178868984038814 42.092597181309273 19.716734148299366 1 rotate no_reflect no_shear #
lump $-1 $-1 $39 $9 #
transform $-1 1 0 0 0 1 0 0 0 1 77.178868984038814 42.092597181309273 19.716734148299366 1 rotate no_reflect no_shear #
shell $-1 $-1 $-1 $40 $-1 $10 #
shell $-1 $-1 $-1 $41 $-1 $12 #
shell $-1 $-1 $-1 $42 $-1 $14 #
shell $-1 $-1 $-1 $43 $-1 $16 #
shell $-1 $-1 $-1 $44 $-1 $18 #
shell $-1 $-1 $-1 $45 $-1 $20 #
shell $-1 $-1 $-1 $46 $-1 $22 #
shell $-1 $-1 $-1 $47 $-1 $24 #
shell $-1 $-1 $-1 $48 $-1 $26 #
shell $-1 $-1 $-1 $49 $-1 $28 #
face $-1 $50 $51 $30 $-1 $52 forward single #
face $-1 $53 $54 $31 $-1 $55 forward single #
face $-1 $56 $57 $32 $-1 $58 forward single #
face $-1 $59 $60 $33 $-1 $61 reversed single #
face $-1 $62 $63 $34 $-1 $64 forward single #
face $-1 $65 $66 $35 $-1 $67 forward single #
face $-1 $68 $69 $36 $-1 $70 reversed single #
face $-1 $71 $72 $37 $-1 $73 forward single #
face $-1 $74 $75 $38 $-1 $76 forward single #
face $-1 $77 $78 $39 $-1 $79 forward single #
face $-1 $80 $81 $30 $-1 $82 reversed single #
loop $-1 $-1 $83 $40 #
plane-surface $-1 0 0 19.716734148299366 0 0 1 1 0 0 forward_v I I I I #
face $-1 $84 $85 $31 $-1 $86 reversed single #
loop $-1 $-1 $87 $41 #
plane-surface $-1 -69.205316272187346 0 -8.3355807614234294 0 0 1 1 0 0 forward_v I I I I #
face $-1 $88 $89 $32 $-1 $90 reversed single #
loop $-1 $-1 $91 $42 #
plane-surface $-1 69.205316272187332 0 -8.3355807614234294 0 0 1 1 0 0 forward_v I I I I #
face $-1 $92 $93 $33 $-1 $94 reversed single #
loop $-1 $-1 $95 $43 #
plane-surface $-1 61.231763560335878 131.04442464453984 165.45487797788334 -1 0 0 0 0.85716730853699208 0.51503806187062418 forward_v I I I I #
face $-1 $96 $97 $34 $-1 $98 forward single #
loop $-1 $99 $100 $44 #
cone-surface $-1 46.002641857636391 39.747730536482464 16.415572529864331 0 -0.85716730853699208 -0.51503806187062418 1 0 0 1 I I 0 1 1 forward I I I I #
face $-1 $101 $102 $35 $-1 $103 forward single #
loop $-1 $104 $105 $45 #
cone-surface $-1 55.140114879256089 39.747730536482464 16.415572529864331 0 -0.85716730853699208 -0.51503806187062418 1 0 0 1 I I 0 1 1 forward I I I I #
face $-1 $106 $107 $36 $-1 $108 reversed single #
loop $-1 $-1 $109 $46 #
plane-surface $-1 39.217330936083044 -151.24000169354156 115.95306723835358 1 0 0 0 0.70710678939079041 -0.70710677298230451 forward_v I I I I #
face $-1 $110 $111 $37 $-1 $112 forward single #
loop $-1 $113 $114 $47 #
cone-surface $-1 43.620217460933617 -34.416139981555617 12.040276827076013 0 0.70710678939079041 -0.70710677298230451 1.5 0 0 1 I I 0 1 1.5 forward I I I I #
face $-1 $115 $116 $38 $-1 $117 forward single #
loop $-1 $118 $119 $48 #
cone-surface $-1 50.224547248209461 -34.416139981555617 12.040276827076013 0 0.70710678939079041 -0.70710677298230451 1.5 0 0 1 I I 0 1 1.5 forward I I I I #
face $-1 $120 $121 $39 $-1 $122 forward single #
loop $-1 $123 $124 $49 #
cone-surface $-1 56.828877035485306 -34.416139981555617 12.040276827076013 0 0.70710678939079041 -0.70710677298230451 1.5 0 0 1 I I 0 1 1.5 forward I I I I #
face $-1 $125 $126 $30 $-1 $127 reversed single #
loop $-1 $-1 $128 $50 #
plane-surface $-1 0 0 -19.716734148299366 0 0 1 1 0 0 forward_v I I I I #
coedge $-1 $129 $130 $131 $132 forward $51 $-1 #
face $-1 $133 $134 $31 $-1 $135 reversed single #
loop $-1 $-1 $136 $53 #
plane-surface $-1 -61.231763560335878 0 -14.026157454861398 -1 0 0 0 0 1 forward_v I I I I #
coedge $-1 $137 $138 $139 $140 forward $54 $-1 #
face $-1 $141 $142 $32 $-1 $143 reversed single #
loop $-1 $-1 $144 $56 #
plane-surface $-1 61.231763560335864 0 -14.026157454861398 1 0 0 0 0 -1 forward_v I I I I #
coedge $-1 $145 $146 $147 $148 reversed $57 $-1 #
face $-1 $149 $150 $33 $-1 $151 reversed single #
loop $-1 $-1 $152 $59 #
plane-surface $-1 50.571378368446233 -1.2659821614155362 85.954767780070981 0 0.85716730853699208 0.51503806187062418 1 0 0 forward_v I I I I #
coedge $-1 $153 $154 $155 $156 reversed $60 $-1 #
face $-1 $-1 $157 $34 $-1 $158 forward single #
loop $-1 $159 $160 $62 #
cone-surface $-1 46.002641857636391 38.753657648880306 15.818273299842829 0 -0.85716730853699208 -0.51503806187062418 0.5 0 0 1 I I -0.70710678118654746 0.70710678118654746 0.5 forward I I I I #
loop $-1 $-1 $161 $44 #
coedge $-1 $100 $100 $162 $163 reversed $63 $-1 #
face $-1 $-1 $164 $35 $-1 $165 forward single #
loop $-1 $166 $167 $65 #
cone-surface $-1 55.140114879256089 38.753657648880306 15.818273299842829 0 -0.85716730853699208 -0.51503806187062418 0.5 0 0 1 I I -0.70710678118654746 0.70710678118654746 0.5 forward I I I I #
loop $-1 $-1 $168 $45 #
coedge $-1 $105 $105 $169 $170 reversed $66 $-1 #
face $-1 $171 $172 $36 $-1 $173 reversed single #
loop $-1 $-1 $174 $68 #
plane-surface $-1 50.224547248209461 -42.092597181309273 6.8056652588980739 0 -0.70710678939079041 0.70710677298230451 1 0 0 forward_v I I I I #
coedge $-1 $175 $176 $177 $178 reversed $69 $-1 #
face $-1 $-1 $179 $37 $-1 $180 forward single #
loop $-1 $181 $182 $71 #
cone-surface $-1 43.620217460933617 -32.664886984658168 10.289023870816568 0 0.70710678939079041 -0.70710677298230451 0.75 0 0 1 I I -0.70710678118654757 0.70710678118654757 0.75 forward I I I I #
loop $-1 $-1 $183 $47 #
coedge $-1 $114 $114 $184 $185 reversed $72 $-1 #
face $-1 $-1 $186 $38 $-1 $187 forward single #
loop $-1 $188 $189 $74 #
cone-surface $-1 50.224547248209461 -32.664886984658168 10.289023870816568 0 0.70710678939079041 -0.70710677298230451 0.75 0 0 1 I I -0.70710678118654757 0.70710678118654757 0.75 forward I I I I #
loop $-1 $-1 $190 $48 #
coedge $-1 $119 $119 $191 $192 reversed $75 $-1 #
face $-1 $-1 $193 $39 $-1 $194 forward single #
loop $-1 $195 $196 $77 #
cone-surface $-1 56.828877035485306 -32.664886984658168 10.289023870816568 0 0.70710678939079041 -0.70710677298230451 0.75 0 0 1 I I -0.70710678118654757 0.70710678118654757 0.75 forward I I I I #
loop $-1 $-1 $197 $49 #
coedge $-1 $124 $124 $198 $199 reversed $78 $-1 #
face $-1 $200 $201 $30 $-1 $202 reversed single #
loop $-1 $-1 $203 $80 #
plane-surface $-1 0 -42.092597181309273 0 0 1 0 0 0 1 forward_v I I I I #
coedge $-1 $204 $205 $206 $207 forward $81 $-1 #
coedge $-1 $208 $83 $209 $210 forward $51 $-1 #
coedge $-1 $83 $208 $211 $212 forward $51 $-1 #
coedge $-1 $213 $214 $83 $132 reversed $215 $-1 #
edge $-1 $216 -42.092597181309273 $217 42.092597181309273 $131 $218 forward 7 unknown #
face $-1 $219 $220 $31 $-1 $221 reversed single #
loop $-1 $-1 $222 $84 #
plane-surface $-1 0 0 -19.716734148299366 0 0 1 1 0 0 forward_v I I I I #
coedge $-1 $223 $139 $224 $225 reversed $85 $-1 #
coedge $-1 $226 $87 $227 $228 reversed $54 $-1 #
coedge $-1 $87 $226 $229 $230 reversed $54 $-1 #
coedge $-1 $136 $231 $87 $140 reversed $85 $-1 #
edge $-1 $232 -42.092597181309273 $233 42.092597181309273 $139 $234 forward 7 unknown #
face $-1 $235 $236 $32 $-1 $237 reversed single #
loop $-1 $-1 $238 $88 #
plane-surface $-1 0 -42.092597181309273 0 0 1 0 0 0 1 forward_v I I I I #
coedge $-1 $239 $240 $241 $242 reversed $89 $-1 #
coedge $-1 $243 $91 $244 $245 reversed $57 $-1 #
coedge $-1 $91 $243 $238 $246 reversed $57 $-1 #
coedge $-1 $247 $248 $91 $148 forward $249 $-1 #
edge $-1 $250 -42.092597181309273 $251 42.092597181309273 $147 $252 forward 7 unknown #
face $-1 $253 $254 $33 $-1 $255 reversed single #
loop $-1 $-1 $256 $92 #
plane-surface $-1 39.910993176556588 131.04442464453984 165.45487797788334 1 0 0 0 -0.85716730853699208 -0.51503806187062418 forward_v I I I I #
coedge $-1 $257 $258 $259 $260 reversed $93 $-1 #
coedge $-1 $154 $95 $261 $262 reversed $60 $-1 #
coedge $-1 $95 $153 $257 $263 reversed $60 $-1 #
coedge $-1 $259 $264 $95 $156 forward $254 $-1 #
edge $-1 $265 63.010704840642305 $266 68.933467679339913 $155 $267 forward 7 unknown #
loop $-1 $-1 $162 $96 #
plane-surface $-1 50.571378368446233 -1.2659821614155362 85.954767780070981 0 0.85716730853699208 0.51503806187062418 1 0 0 forward_v I I I I #
loop $-1 $-1 $268 $62 #
coedge $-1 $160 $160 $161 $269 reversed $97 $-1 #
coedge $-1 $161 $161 $160 $269 forward $99 $-1 #
coedge $-1 $162 $162 $100 $163 forward $157 $-1 #
edge $-1 $270 -2.4571820518453964e-015 $270 6.2831853071795978 $162 $271 forward 7 unknown #
loop $-1 $-1 $169 $101 #
plane-surface $-1 50.571378368446233 -1.2659821614155362 85.954767780070981 0 0.85716730853699208 0.51503806187062418 1 0 0 forward_v I I I I #
loop $-1 $-1 $272 $65 #
coedge $-1 $167 $167 $168 $273 reversed $102 $-1 #
coedge $-1 $168 $168 $167 $273 forward $104 $-1 #
coedge $-1 $169 $169 $105 $170 forward $164 $-1 #
edge $-1 $274 -2.4571820518453964e-015 $274 6.2831853071795978 $169 $275 forward 7 unknown #
face $-1 $276 $277 $36 $-1 $278 forward single #
loop $-1 $-1 $279 $106 #
plane-surface $-1 61.231763560335878 -151.24000169354156 115.95306723835358 -1 0 0 0 -0.70710678939079041 0.70710677298230451 forward_v I I I I #
coedge $-1 $280 $281 $282 $283 reversed $107 $-1 #
coedge $-1 $176 $109 $284 $285 reversed $69 $-1 #
coedge $-1 $109 $175 $280 $286 reversed $69 $-1 #
coedge $-1 $282 $287 $109 $178 forward $288 $-1 #
edge $-1 $289 38.259799470877425 $290 51.170868360278718 $177 $291 forward 7 unknown #
loop $-1 $-1 $184 $110 #
plane-surface $-1 50.224547248209461 -42.092597181309273 6.8056652588980739 0 -0.70710678939079041 0.70710677298230451 1 0 0 forward_v I I I I #
loop $-1 $-1 $292 $71 #
coedge $-1 $182 $182 $183 $293 reversed $111 $-1 #
coedge $-1 $183 $183 $182 $293 forward $113 $-1 #
coedge $-1 $184 $184 $114 $185 forward $179 $-1 #
edge $-1 $294 -4.186913116283204e-015 $294 6.283185307179596 $184 $295 forward 7 unknown #
loop $-1 $-1 $191 $115 #
plane-surface $-1 50.224547248209461 -42.092597181309273 6.8056652588980739 0 -0.70710678939079041 0.70710677298230451 1 0 0 forward_v I I I I #
loop $-1 $-1 $296 $74 #
coedge $-1 $189 $189 $190 $297 reversed $116 $-1 #
coedge $-1 $190 $190 $189 $297 forward $118 $-1 #
coedge $-1 $191 $191 $119 $192 forward $186 $-1 #
edge $-1 $298 -4.186913116283204e-015 $298 6.283185307179596 $191 $299 forward 7 unknown #
loop $-1 $-1 $198 $120 #
plane-surface $-1 50.224547248209461 -42.092597181309273 6.8056652588980739 0 -0.70710678939079041 0.70710677298230451 1 0 0 forward_v I I I I #
loop $-1 $-1 $300 $77 #
coedge $-1 $196 $196 $197 $301 reversed $121 $-1 #
coedge $-1 $197 $197 $196 $301 forward $123 $-1 #
coedge $-1 $198 $198 $124 $199 forward $193 $-1 #
edge $-1 $302 -4.186913116283204e-015 $302 6.283185307179596 $198 $303 forward 7 unknown #
face $-1 $304 $305 $30 $-1 $306 reversed single #
loop $-1 $-1 $307 $125 #
plane-surface $-1 -77.178868984038814 0 0 1 0 0 0 0 -1 forward_v I I I I #
coedge $-1 $308 $211 $309 $310 forward $126 $-1 #
coedge $-1 $311 $128 $308 $312 forward $81 $-1 #
coedge $-1 $128 $311 $313 $314 forward $81 $-1 #
coedge $-1 $214 $213 $128 $207 reversed $215 $-1 #
edge $-1 $315 -42.092597181309273 $316 42.092597181309273 $206 $317 forward 7 unknown #
coedge $-1 $130 $129 $318 $319 forward $51 $-1 #
coedge $-1 $320 $321 $129 $210 reversed $305 $-1 #
edge $-1 $217 -77.178868984038814 $322 77.178868984038814 $209 $323 forward 7 unknown #
coedge $-1 $203 $324 $130 $212 reversed $126 $-1 #
edge $-1 $325 -77.178868984038814 $216 77.178868984038814 $211 $326 forward 7 unknown #
coedge $-1 $206 $131 $324 $327 forward $215 $-1 #
coedge $-1 $131 $206 $320 $328 reversed $215 $-1 #
loop $-1 $-1 $213 $304 #
vertex $-1 $132 $329 #
vertex $-1 $132 $330 #
straight-curve $-1 77.178868984038814 0 19.716734148299366 0 1 0 I I #
face $-1 $331 $332 $31 $-1 $333 reversed single #
loop $-1 $-1 $224 $133 #
plane-surface $-1 0 -42.092597181309273 0 0 1 0 0 0 1 forward_v I I I I #
coedge $-1 $334 $335 $223 $336 forward $134 $-1 #
coedge $-1 $231 $136 $222 $336 reversed $85 $-1 #
coedge $-1 $229 $337 $136 $225 forward $220 $-1 #
edge $-1 $338 -12.703655420868667 $232 -1.3225020339927305 $224 $339 forward 7 unknown #
coedge $-1 $138 $137 $340 $341 reversed $54 $-1 #
coedge $-1 $342 $343 $137 $228 forward $344 $-1 #
edge $-1 $345 -42.576210847945141 $233 -26.629105424242205 $227 $346 forward 7 unknown #
coedge $-1 $347 $224 $138 $230 forward $220 $-1 #
edge $-1 $232 26.629105424242205 $348 42.576210847945141 $229 $349 forward 7 unknown #
coedge $-1 $139 $223 $342 $350 reversed $85 $-1 #
vertex $-1 $230 $351 #
vertex $-1 $228 $352 #
straight-curve $-1 -61.231763560335878 0 -8.3355807614234294 0 1 0 I I #
face $-1 $353 $354 $32 $-1 $355 reversed single #
loop $-1 $-1 $356 $141 #
plane-surface $-1 0 0 -19.716734148299366 0 0 1 1 0 0 forward_v I I I I #
coedge $-1 $357 $358 $146 $246 forward $142 $-1 #
coedge $-1 $359 $144 $356 $360 reversed $89 $-1 #
coedge $-1 $144 $359 $243 $361 reversed $89 $-1 #
coedge $-1 $244 $362 $144 $242 forward $354 $-1 #
edge $-1 $363 -12.703655420868667 $364 -1.3225020339927305 $241 $365 forward 7 unknown #
coedge $-1 $146 $145 $240 $361 forward $57 $-1 #
coedge $-1 $366 $241 $145 $245 forward $354 $-1 #
edge $-1 $364 26.629105424242198 $250 42.576210847945134 $244 $367 forward 7 unknown #
edge $-1 $251 -42.576210847945134 $368 -26.629105424242198 $238 $369 forward 7 unknown #
coedge $-1 $370 $147 $358 $371 forward $249 $-1 #
coedge $-1 $147 $370 $366 $372 reversed $249 $-1 #
loop $-1 $-1 $147 $353 #
vertex $-1 $372 $373 #
vertex $-1 $371 $374 #
straight-curve $-1 77.178868984038814 0 -8.3355807614234294 0 -1 0 I I #
face $-1 $-1 $375 $33 $-1 $376 forward single #
loop $-1 $-1 $155 $149 #
plane-surface $-1 0 42.092597181309273 0 0 -1 0 0 0 -1 forward_v I I I I #
coedge $-1 $377 $378 $379 $380 reversed $150 $-1 #
coedge $-1 $381 $152 $154 $263 forward $93 $-1 #
coedge $-1 $152 $381 $377 $382 forward $93 $-1 #
coedge $-1 $379 $155 $152 $260 forward $254 $-1 #
edge $-1 $266 -35.946074376112762 $383 -14.625303992333471 $259 $384 forward 7 unknown #
coedge $-1 $385 $386 $153 $262 forward $375 $-1 #
edge $-1 $387 -26.988369963946909 $265 -23.429615140960649 $261 $388 forward 7 unknown #
edge $-1 $266 -84.185194362618475 $387 -77.275501494365542 $154 $389 forward 7 unknown #
coedge $-1 $155 $379 $385 $390 reversed $254 $-1 #
vertex $-1 $390 $391 #
vertex $-1 $156 $392 #
straight-curve $-1 61.231763560335878 42.092597181309273 82.727438988941671 0 0 -1 I I #
coedge $-1 $268 $268 $-1 $393 reversed $159 $-1 #
edge $-1 $394 0 $394 6.2831853071796004 $160 $395 forward 7 unknown #
vertex $-1 $163 $396 #
ellipse-curve $-1 46.002641857636391 40.313219769816151 16.755352728950538 0 0.85716730853699208 0.51503806187062418 1 0 0 1 I I #
coedge $-1 $272 $272 $-1 $397 reversed $166 $-1 #
edge $-1 $398 0 $398 6.2831853071796004 $167 $399 forward 7 unknown #
vertex $-1 $170 $400 #
ellipse-curve $-1 55.140114879256089 40.313219769816151 16.755352728950538 0 0.85716730853699208 0.51503806187062418 1 0 0 1 I I #
face $-1 $-1 $288 $36 $-1 $401 reversed single #
loop $-1 $-1 $402 $171 #
plane-surface $-1 0 0 19.716734148299366 0 0 1 1 0 0 forward_v I I I I #
coedge $-1 $403 $404 $405 $406 reversed $172 $-1 #
coedge $-1 $407 $174 $176 $286 forward $107 $-1 #
coedge $-1 $174 $407 $403 $408 forward $107 $-1 #
coedge $-1 $405 $177 $174 $283 forward $288 $-1 #
edge $-1 $290 14.105057311978314 $409 36.119489936231147 $282 $410 forward 7 unknown #
coedge $-1 $411 $412 $175 $285 forward $277 $-1 #
edge $-1 $413 -46.438472255260116 $289 -33.527403665461506 $284 $414 forward 7 unknown #
edge $-1 $290 0 $413 18.25900851627356 $176 $415 forward 7 unknown #
coedge $-1 $177 $405 $411 $416 reversed $288 $-1 #
loop $-1 $-1 $405 $276 #
vertex $-1 $416 $417 #
vertex $-1 $178 $418 #
straight-curve $-1 39.217330936083044 -42.092597181309273 57.976533619176791 0 0 -1 I I #
coedge $-1 $292 $292 $-1 $419 reversed $181 $-1 #
edge $-1 $420 0 $420 6.2831853071796004 $182 $421 forward 7 unknown #
vertex $-1 $185 $422 #
ellipse-curve $-1 43.620217460933617 -35.637062886409964 13.261199703598722 0 -0.70710678939079041 0.70710677298230451 1.5 0 0 1 I I #
coedge $-1 $296 $296 $-1 $423 reversed $188 $-1 #
edge $-1 $424 0 $424 6.2831853071796004 $189 $425 forward 7 unknown #
vertex $-1 $192 $426 #
ellipse-curve $-1 50.224547248209461 -35.637062886409964 13.261199703598722 0 -0.70710678939079041 0.70710677298230451 1.5 0 0 1 I I #
coedge $-1 $300 $300 $-1 $427 reversed $195 $-1 #
edge $-1 $428 0 $428 6.2831853071796004 $196 $429 forward 7 unknown #
vertex $-1 $199 $430 #
ellipse-curve $-1 56.828877035485306 -35.637062886409964 13.261199703598722 0 -0.70710678939079041 0.70710677298230451 1.5 0 0 1 I I #
face $-1 $-1 $215 $30 $-1 $431 reversed single #
loop $-1 $-1 $320 $200 #
plane-surface $-1 0 42.092597181309273 0 0 -1 0 0 0 -1 forward_v I I I I #
coedge $-1 $432 $318 $321 $433 forward $201 $-1 #
coedge $-1 $324 $203 $204 $312 reversed $126 $-1 #
coedge $-1 $318 $432 $203 $310 reversed $201 $-1 #
edge $-1 $325 -19.716734148299366 $434 19.716734148299366 $309 $435 forward 7 unknown #
coedge $-1 $205 $204 $432 $436 forward $81 $-1 #
edge $-1 $316 -77.178868984038814 $434 77.178868984038814 $308 $437 forward 7 unknown #
coedge $-1 $321 $320 $205 $314 reversed $305 $-1 #
edge $-1 $438 -77.178868984038814 $315 77.178868984038814 $313 $439 forward 7 unknown #
vertex $-1 $207 $440 #
vertex $-1 $327 $441 #
straight-curve $-1 77.178868984038814 0 -19.716734148299366 0 -1 0 I I #
coedge $-1 $307 $309 $208 $319 reversed $201 $-1 #
edge $-1 $322 -42.092597181309273 $325 42.092597181309273 $318 $442 forward 7 unknown #
coedge $-1 $313 $209 $214 $328 forward $305 $-1 #
coedge $-1 $209 $313 $307 $433 reversed $305 $-1 #
vertex $-1 $210 $443 #
straight-curve $-1 0 42.092597181309273 19.716734148299366 -1 0 0 I I #
coedge $-1 $211 $308 $213 $327 reversed $126 $-1 #
vertex $-1 $319 $444 #
straight-curve $-1 0 -42.092597181309273 19.716734148299366 1 0 0 I I #
edge $-1 $216 -19.716734148299366 $316 19.716734148299366 $213 $445 forward 7 unknown #
edge $-1 $217 -19.716734148299366 $315 19.716734148299366 $214 $446 forward 7 unknown #
point $-1 77.178868984038814 -42.092597181309273 19.716734148299366 #
point $-1 77.178868984038814 42.092597181309273 19.716734148299366 #
face $-1 $-1 $344 $31 $-1 $447 reversed single #
loop $-1 $-1 $340 $219 #
plane-surface $-1 -77.178868984038814 0 0 1 0 0 0 0 -1 forward_v I I I I #
coedge $-1 $448 $222 $337 $449 forward $134 $-1 #
coedge $-1 $222 $448 $450 $451 forward $134 $-1 #
edge $-1 $452 -42.092597181309273 $338 42.092597181309273 $222 $453 forward 7 unknown #
coedge $-1 $224 $347 $334 $449 reversed $220 $-1 #
vertex $-1 $449 $454 #
straight-curve $-1 -61.231763560335878 -42.092597181309273 -7.0130787274306989 0 0 1 I I #
coedge $-1 $455 $456 $226 $341 forward $332 $-1 #
edge $-1 $348 -42.092597181309273 $345 42.092597181309273 $340 $457 forward 7 unknown #
coedge $-1 $450 $227 $231 $350 forward $344 $-1 #
coedge $-1 $227 $450 $455 $458 reversed $344 $-1 #
loop $-1 $-1 $342 $331 #
vertex $-1 $458 $459 #
straight-curve $-1 -34.602658136093673 42.092597181309273 -8.3355807614234294 1 0 0 I I #
coedge $-1 $337 $229 $456 $460 forward $220 $-1 #
vertex $-1 $460 $461 #
straight-curve $-1 -34.602658136093673 -42.092597181309273 -8.3355807614234294 -1 0 0 I I #
edge $-1 $233 1.3225020339927305 $452 12.703655420868667 $342 $462 forward 7 unknown #
point $-1 -61.231763560335878 -42.092597181309273 -8.3355807614234294 #
point $-1 -61.231763560335878 42.092597181309273 -8.3355807614234294 #
face $-1 $-1 $249 $32 $-1 $463 reversed single #
loop $-1 $-1 $244 $235 #
plane-surface $-1 0 42.092597181309273 0 0 -1 0 0 0 -1 forward_v I I I I #
coedge $-1 $464 $465 $239 $360 forward $236 $-1 #
coedge $-1 $466 $238 $359 $467 forward $142 $-1 #
coedge $-1 $238 $466 $247 $371 reversed $142 $-1 #
coedge $-1 $240 $239 $357 $467 reversed $89 $-1 #
edge $-1 $468 -42.092597181309273 $363 42.092597181309273 $356 $469 forward 7 unknown #
edge $-1 $364 -42.092597181309273 $368 42.092597181309273 $240 $470 forward 7 unknown #
coedge $-1 $241 $366 $464 $471 reversed $354 $-1 #
vertex $-1 $471 $472 #
vertex $-1 $245 $473 #
straight-curve $-1 61.231763560335864 42.092597181309273 -7.0130787274306989 0 0 1 I I #
coedge $-1 $362 $244 $248 $372 forward $354 $-1 #
straight-curve $-1 34.602658136093666 42.092597181309273 -8.3355807614234294 1 0 0 I I #
vertex $-1 $246 $474 #
straight-curve $-1 34.602658136093666 -42.092597181309273 -8.3355807614234294 -1 0 0 I I #
coedge $-1 $248 $247 $475 $476 reversed $249 $-1 #
edge $-1 $251 8.3355807614234294 $477 19.716734148299366 $247 $478 forward 7 unknown #
edge $-1 $250 8.3355807614234294 $479 19.716734148299366 $248 $480 forward 7 unknown #
point $-1 77.1788689840388 42.092597181309273 -8.3355807614234294 #
point $-1 77.1788689840388 -42.092597181309273 -8.3355807614234294 #
loop $-1 $-1 $261 $253 #
plane-surface $-1 0 0 19.716734148299366 0 0 1 1 0 0 forward_v I I I I #
coedge $-1 $378 $256 $258 $382 reversed $150 $-1 #
coedge $-1 $256 $377 $481 $482 reversed $150 $-1 #
coedge $-1 $264 $259 $256 $380 forward $254 $-1 #
edge $-1 $383 -68.933467679339913 $483 -63.010704840642305 $379 $484 forward 7 unknown #
coedge $-1 $258 $257 $386 $485 reversed $93 $-1 #
edge $-1 $486 77.275501494365542 $383 84.185194362618475 $377 $487 forward 7 unknown #
vertex $-1 $260 $488 #
straight-curve $-1 25.285689184223116 42.092597181309273 13.793971309601751 -1 0 0 I I #
coedge $-1 $481 $261 $264 $390 forward $375 $-1 #
coedge $-1 $261 $481 $381 $485 forward $375 $-1 #
vertex $-1 $262 $489 #
straight-curve $-1 61.231763560335878 65.522212322269922 19.716734148299366 0 1 0 I I #
straight-curve $-1 61.231763560335878 -1.2659821614155362 85.954767780070981 0 -0.51503806187062418 0.85716730853699208 I I #
edge $-1 $265 -61.231763560335878 $483 -39.910993176556588 $264 $490 forward 7 unknown #
point $-1 61.231763560335878 42.092597181309273 19.716734148299366 #
point $-1 61.231763560335878 42.092597181309273 13.793971309601758 #
edge $-1 $491 1 $491 0 $268 $-1 forward 7 unknown #
vertex $-1 $269 $492 #
ellipse-curve $-1 46.002641857636391 39.1822413031488 16.075792330778143 0 0.85716730853699208 0.51503806187062418 1 0 0 1 I I #
point $-1 47.002641857636391 40.313219769816122 16.755352728950523 #
edge $-1 $493 1 $493 0 $272 $-1 forward 7 unknown #
vertex $-1 $273 $494 #
ellipse-curve $-1 55.140114879256089 39.1822413031488 16.075792330778143 0 0.85716730853699208 0.51503806187062418 1 0 0 1 I I #
point $-1 56.140114879256089 40.313219769816122 16.755352728950523 #
plane-surface $-1 0 -42.092597181309273 0 0 1 0 0 0 1 forward_v I I I I #
coedge $-1 $412 $411 $404 $495 forward $277 $-1 #
coedge $-1 $404 $279 $281 $408 reversed $172 $-1 #
coedge $-1 $279 $403 $402 $495 reversed $172 $-1 #
coedge $-1 $287 $282 $279 $406 forward $288 $-1 #
edge $-1 $409 -51.170868360278718 $496 -38.259799470877425 $405 $497 forward 7 unknown #
coedge $-1 $281 $280 $412 $498 reversed $107 $-1 #
edge $-1 $499 -18.25900851627356 $409 0 $403 $500 forward 7 unknown #
vertex $-1 $283 $501 #
straight-curve $-1 25.112273624104731 -42.092597181309273 6.8056652588980739 1 0 0 I I #
coedge $-1 $402 $284 $287 $416 forward $277 $-1 #
coedge $-1 $284 $402 $407 $498 forward $277 $-1 #
vertex $-1 $285 $502 #
straight-curve $-1 39.217330936083044 -75.620000846770779 19.716734148299366 0 -1 0 I I #
straight-curve $-1 39.217330936083044 -42.092597181309273 6.8056652588980739 0 0.70710677298230451 0.70710678939079041 I I #
edge $-1 $289 39.217330936083044 $496 61.231763560335878 $287 $503 forward 7 unknown #
point $-1 39.217330936083044 -42.092597181309273 19.716734148299366 #
point $-1 39.217330936083044 -42.092597181309273 6.8056652588980739 #
edge $-1 $504 1 $504 0 $292 $-1 forward 7 unknown #
vertex $-1 $293 $505 #
ellipse-curve $-1 43.620217460933617 -33.195217076701262 10.819353950553296 0 -0.70710678939079041 0.70710677298230451 1.5 0 0 1 I I #
point $-1 45.120217460933617 -35.637062886409979 13.261199703598727 #
edge $-1 $506 1 $506 0 $296 $-1 forward 7 unknown #
vertex $-1 $297 $507 #
ellipse-curve $-1 50.224547248209461 -33.195217076701262 10.819353950553296 0 -0.70710678939079041 0.70710677298230451 1.5 0 0 1 I I #
point $-1 51.724547248209461 -35.637062886409979 13.261199703598727 #
edge $-1 $508 1 $508 0 $300 $-1 forward 7 unknown #
vertex $-1 $301 $509 #
ellipse-curve $-1 56.828877035485306 -33.195217076701262 10.819353950553296 0 -0.70710678939079041 0.70710677298230451 1.5 0 0 1 I I #
point $-1 58.328877035485306 -35.637062886409979 13.261199703598727 #
plane-surface $-1 77.178868984038814 0 0 -1 0 0 0 0 1 forward_v I I I I #
coedge $-1 $309 $307 $311 $436 reversed $201 $-1 #
edge $-1 $322 -19.716734148299366 $438 19.716734148299366 $321 $510 forward 7 unknown #
vertex $-1 $436 $511 #
straight-curve $-1 -77.178868984038814 -42.092597181309273 0 0 0 -1 I I #
edge $-1 $434 -42.092597181309273 $438 42.092597181309273 $432 $512 forward 7 unknown #
straight-curve $-1 0 -42.092597181309273 -19.716734148299366 -1 0 0 I I #
vertex $-1 $314 $513 #
straight-curve $-1 0 42.092597181309273 -19.716734148299366 1 0 0 I I #
point $-1 77.178868984038814 42.092597181309273 -19.716734148299366 #
point $-1 77.178868984038814 -42.092597181309273 -19.716734148299366 #
straight-curve $-1 -77.178868984038814 0 19.716734148299366 0 -1 0 I I #
point $-1 -77.178868984038814 42.092597181309273 19.716734148299366 #
point $-1 -77.178868984038814 -42.092597181309273 19.716734148299366 #
straight-curve $-1 77.178868984038814 -42.092597181309273 0 0 0 -1 I I #
straight-curve $-1 77.178868984038814 42.092597181309273 0 0 0 -1 I I #
plane-surface $-1 0 42.092597181309273 0 0 -1 0 0 0 -1 forward_v I I I I #
coedge $-1 $335 $334 $514 $515 forward $134 $-1 #
edge $-1 $338 61.231763560335878 $516 77.178868984038814 $337 $517 forward 7 unknown #
coedge $-1 $343 $342 $335 $451 reversed $344 $-1 #
edge $-1 $518 -77.178868984038814 $452 -61.231763560335878 $450 $519 forward 7 unknown #
vertex $-1 $350 $520 #
straight-curve $-1 -61.231763560335878 0 -19.716734148299366 0 -1 0 I I #
point $-1 -61.231763560335878 -42.092597181309273 -19.716734148299366 #
coedge $-1 $514 $340 $343 $458 forward $332 $-1 #
coedge $-1 $340 $514 $347 $460 reversed $332 $-1 #
straight-curve $-1 -77.178868984038814 0 -8.3355807614234294 0 1 0 I I #
edge $-1 $345 8.3355807614234294 $518 19.716734148299366 $343 $521 forward 7 unknown #
point $-1 -77.178868984038814 42.092597181309273 -8.3355807614234294 #
edge $-1 $348 8.3355807614234294 $516 19.716734148299366 $456 $522 forward 7 unknown #
point $-1 -77.178868984038814 -42.092597181309273 -8.3355807614234294 #
straight-curve $-1 -61.231763560335878 42.092597181309273 -7.0130787274306989 0 0 -1 I I #
plane-surface $-1 77.178868984038814 0 0 -1 0 0 0 0 1 forward_v I I I I #
coedge $-1 $475 $356 $362 $471 forward $236 $-1 #
coedge $-1 $356 $475 $466 $523 forward $236 $-1 #
coedge $-1 $358 $357 $465 $523 reversed $142 $-1 #
edge $-1 $368 1.3225020339927305 $468 12.703655420868667 $357 $524 forward 7 unknown #
vertex $-1 $360 $525 #
straight-curve $-1 61.231763560335864 0 -19.716734148299366 0 1 0 I I #
straight-curve $-1 61.231763560335864 0 -8.3355807614234294 0 -1 0 I I #
edge $-1 $363 61.231763560335864 $479 77.178868984038814 $362 $526 forward 7 unknown #
point $-1 61.231763560335864 42.092597181309273 -19.716734148299366 #
point $-1 61.231763560335864 42.092597181309273 -8.3355807614234294 #
point $-1 61.231763560335864 -42.092597181309273 -8.3355807614234294 #
coedge $-1 $465 $464 $370 $476 forward $236 $-1 #
edge $-1 $479 -42.092597181309273 $477 42.092597181309273 $370 $527 forward 7 unknown #
vertex $-1 $371 $528 #
straight-curve $-1 77.178868984038814 -42.092597181309273 0 0 0 -1 I I #
vertex $-1 $476 $529 #
straight-curve $-1 77.178868984038814 42.092597181309273 0 0 0 -1 I I #
coedge $-1 $386 $385 $378 $482 forward $375 $-1 #
edge $-1 $483 23.429615140960649 $486 26.988369963946909 $481 $530 forward 7 unknown #
vertex $-1 $482 $531 #
straight-curve $-1 39.910993176556588 42.092597181309273 82.727438988941671 0 0 1 I I #
edge $-1 $486 14.625303992333471 $387 35.946074376112762 $386 $532 forward 7 unknown #
vertex $-1 $485 $533 #
straight-curve $-1 39.910993176556588 -1.2659821614155362 85.954767780070981 0 0.51503806187062418 -0.85716730853699208 I I #
point $-1 39.910993176556588 42.092597181309273 13.793971309601758 #
point $-1 61.231763560335878 38.533842358323014 19.716734148299366 #
straight-curve $-1 0 42.092597181309273 19.716734148299366 -1 0 0 I I #
vertex $-1 $393 $534 #
point $-1 47.002641857636391 39.1822413031488 16.075792330778143 #
vertex $-1 $397 $535 #
point $-1 56.140114879256089 39.1822413031488 16.075792330778143 #
edge $-1 $496 33.527403665461506 $499 46.438472255260116 $402 $536 forward 7 unknown #
vertex $-1 $406 $537 #
straight-curve $-1 61.231763560335878 -42.092597181309273 57.976533619176791 0 0 1 I I #
edge $-1 $499 -36.119489936231147 $413 -14.105057311978314 $412 $538 forward 7 unknown #
vertex $-1 $498 $539 #
straight-curve $-1 61.231763560335878 -42.092597181309273 6.8056652588980739 0 -0.70710677298230451 -0.70710678939079041 I I #
point $-1 61.231763560335878 -42.092597181309273 6.8056652588980739 #
point $-1 39.217330936083044 -29.181528591510663 19.716734148299366 #
straight-curve $-1 0 -42.092597181309273 19.716734148299366 1 0 0 I I #
vertex $-1 $419 $540 #
point $-1 45.120217460933617 -33.195217076701262 10.819353950553296 #
vertex $-1 $423 $541 #
point $-1 51.724547248209461 -33.195217076701262 10.819353950553296 #
vertex $-1 $427 $542 #
point $-1 58.328877035485306 -33.195217076701262 10.819353950553296 #
straight-curve $-1 -77.178868984038814 42.092597181309273 0 0 0 -1 I I #
point $-1 -77.178868984038814 -42.092597181309273 -19.716734148299366 #
straight-curve $-1 -77.178868984038814 0 -19.716734148299366 0 1 0 I I #
point $-1 -77.178868984038814 42.092597181309273 -19.716734148299366 #
coedge $-1 $456 $455 $448 $515 reversed $332 $-1 #
edge $-1 $516 -42.092597181309273 $518 42.092597181309273 $514 $543 forward 7 unknown #
vertex $-1 $515 $544 #
straight-curve $-1 0 -42.092597181309273 -19.716734148299366 -1 0 0 I I #
vertex $-1 $451 $545 #
straight-curve $-1 0 42.092597181309273 -19.716734148299366 1 0 0 I I #
point $-1 -61.231763560335878 42.092597181309273 -19.716734148299366 #
straight-curve $-1 -77.178868984038814 42.092597181309273 0 0 0 -1 I I #
straight-curve $-1 -77.178868984038814 -42.092597181309273 0 0 0 -1 I I #
edge $-1 $477 -77.178868984038814 $468 -61.231763560335864 $466 $546 forward 7 unknown #
straight-curve $-1 61.231763560335864 -42.092597181309273 -7.0130787274306989 0 0 -1 I I #
point $-1 61.231763560335864 -42.092597181309273 -19.716734148299366 #
straight-curve $-1 0 42.092597181309273 -19.716734148299366 1 0 0 I I #
straight-curve $-1 77.178868984038814 0 -19.716734148299366 0 -1 0 I I #
point $-1 77.178868984038814 -42.092597181309273 -19.716734148299366 #
point $-1 77.178868984038814 42.092597181309273 -19.716734148299366 #
straight-curve $-1 39.910993176556588 65.522212322269922 19.716734148299366 0 -1 0 I I #
point $-1 39.910993176556588 42.092597181309273 19.716734148299366 #
straight-curve $-1 25.285689184223116 38.533842358323007 19.716734148299366 1 0 0 I I #
point $-1 39.910993176556588 38.533842358323014 19.716734148299366 #
point $-1 46.002641857636391 38.325073994611813 15.560754268907518 #
point $-1 55.140114879256089 38.325073994611813 15.560754268907518 #
straight-curve $-1 61.231763560335878 -75.620000846770779 19.716734148299366 0 1 0 I I #
point $-1 61.231763560335878 -42.092597181309273 19.716734148299366 #
straight-curve $-1 25.112273624104731 -29.181528591510666 19.716734148299366 -1 0 0 I I #
point $-1 61.231763560335878 -29.181528591510663 19.716734148299366 #
point $-1 43.620217460933617 -32.134556892615073 9.758693791079839 #
point $-1 50.224547248209461 -32.134556892615073 9.758693791079839 #
point $-1 56.828877035485306 -32.134556892615073 9.758693791079839 #
straight-curve $-1 -77.178868984038814 0 -19.716734148299366 0 1 0 I I #
point $-1 -77.178868984038814 -42.092597181309273 -19.716734148299366 #
point $-1 -77.178868984038814 42.092597181309273 -19.716734148299366 #
straight-curve $-1 0 -42.092597181309273 -19.716734148299366 -1 0 0 I I #
End-of-ACIS-data 