500 0 6 0           
7 Unknown 11 ACIS 5.0 NT 24 Thu Mar 25 18:57:22 1999 
-1 9.9999999999999995e-007 1e-010 
body $-1 $6 $-1 $7 #
body $-1 $8 $-1 $9 #
body $-1 $10 $-1 $11 #
body $-1 $12 $-1 $13 #
body $-1 $14 $-1 $15 #
body $-1 $16 $-1 $17 #
lump $-1 $-1 $18 $0 #
transform $-1 1 0 0 0 1 0 0 0 1 59.441511276589253 26.202192594010057 10.65871961192904 1 rotate no_reflect no_shear #
lump $-1 $-1 $19 $1 #
transform $-1 1 0 0 0 1 0 0 0 1 59.441511276589253 26.202192594010057 10.65871961192904 1 rotate no_reflect no_shear #
lump $-1 $-1 $20 $2 #
transform $-1 1 0 0 0 1 0 0 0 1 59.441511276589253 26.202192594010057 10.65871961192904 1 rotate no_reflect no_shear #
lump $-1 $-1 $21 $3 #
transform $-1 1 0 0 0 1 0 0 0 1 59.441511276589253 26.202192594010057 10.65871961192904 1 rotate no_reflect no_shear #
lump $-1 $-1 $22 $4 #
transform $-1 1 0 0 0 1 0 0 0 1 59.441511276589253 26.202192594010057 10.65871961192904 1 rotate no_reflect no_shear #
lump $-1 $-1 $23 $5 #
transform $-1 1 0 0 0 1 0 0 0 1 59.441511276589253 26.202192594010057 10.65871961192904 1 rotate no_reflect no_shear #
shell $-1 $-1 $-1 $24 $-1 $6 #
shell $-1 $-1 $-1 $25 $-1 $8 #
shell $-1 $-1 $-1 $26 $-1 $10 #
shell $-1 $-1 $-1 $27 $-1 $12 #
shell $-1 $-1 $-1 $28 $-1 $14 #
shell $-1 $-1 $-1 $29 $-1 $16 #
face $-1 $30 $31 $18 $-1 $32 forward single #
face $-1 $33 $34 $19 $-1 $35 forward single #
face $-1 $36 $37 $20 $-1 $38 reversed single #
face $-1 $39 $40 $21 $-1 $41 forward single #
face $-1 $42 $43 $22 $-1 $44 reversed single #
face $-1 $45 $46 $23 $-1 $47 forward single #
face $-1 $48 $49 $18 $-1 $50 reversed single #
loop $-1 $-1 $51 $24 #
plane-surface $-1 0 0 10.65871961192904 0 0 1 1 0 0 forward_v I I I I #
face $-1 $52 $53 $19 $-1 $54 reversed single #
loop $-1 $-1 $55 $25 #
plane-surface $-1 -59.441511276589253 0 0 1 0 0 0 0 -1 forward_v I I I I #
face $-1 $56 $57 $20 $-1 $58 reversed single #
loop $-1 $-1 $59 $26 #
plane-surface $-1 -51.49131716890264 99.25062190082383 108.3570089802197 1 0 0 0 -0.84804810408105047 -0.52991925155115449 forward_v I I I I #
face $-1 $60 $61 $21 $-1 $62 forward single #
loop $-1 $63 $64 $27 #
cone-surface $-1 -38.851705109213874 21.881940784031485 4.9902019946822911 0 -0.84804810408105047 -0.52991925155115449 1.5 0 0 1 I I 0 1 1.5 forward I I I I #
face $-1 $65 $66 $22 $-1 $67 reversed single #
loop $-1 $-1 $68 $28 #
plane-surface $-1 -27.754702849995621 -102.61872743251475 94.60488521407909 -1 0 0 0 -0.64278761758704617 0.76604443648966558 forward_v I I I I #
face $-1 $69 $70 $23 $-1 $71 forward single #
loop $-1 $72 $73 $29 #
cone-surface $-1 -38.116547430875613 -21.086975717013562 6.0595643178338081 0 0.64278761758704617 -0.76604443648966558 2 0 0 1 I I 0 1 2 forward I I I I #
face $-1 $74 $75 $18 $-1 $76 reversed single #
loop $-1 $-1 $77 $30 #
plane-surface $-1 0 0 -10.65871961192904 0 0 1 1 0 0 forward_v I I I I #
coedge $-1 $78 $79 $80 $81 forward $31 $-1 #
face $-1 $82 $83 $19 $-1 $84 reversed single #
loop $-1 $-1 $85 $33 #
plane-surface $-1 0 26.202192594010057 0 0 -1 0 0 0 -1 forward_v I I I I #
coedge $-1 $86 $87 $88 $89 forward $34 $-1 #
face $-1 $90 $91 $20 $-1 $92 reversed single #
loop $-1 $-1 $93 $36 #
plane-surface $-1 -38.851705109213874 -1.5678999828239597 45.358606646700331 0 0.84804810408105047 0.52991925155115449 1 0 0 forward_v I I I I #
coedge $-1 $94 $95 $96 $97 reversed $37 $-1 #
face $-1 $-1 $98 $21 $-1 $99 forward single #
loop $-1 $100 $101 $39 #
cone-surface $-1 -38.851705109213874 19.969251583803334 3.7950211735032973 0 -0.84804810408105047 -0.52991925155115449 0.75 0 0 1 I I -0.70710678118654757 0.70710678118654757 0.75 forward I I I I #
loop $-1 $-1 $102 $27 #
coedge $-1 $64 $64 $103 $104 reversed $40 $-1 #
face $-1 $105 $106 $22 $-1 $107 reversed single #
loop $-1 $-1 $108 $42 #
plane-surface $-1 -38.116547430875613 -26.202192594010057 3.5352071941412504 0 -0.64278761758704617 0.76604443648966558 1 0 0 forward_v I I I I #
coedge $-1 $109 $110 $111 $112 reversed $43 $-1 #
face $-1 $-1 $113 $23 $-1 $114 forward single #
loop $-1 $115 $116 $45 #
cone-surface $-1 -38.116547430875613 -19.573706891418226 4.2561207961427989 0 0.64278761758704617 -0.76604443648966558 1 0 0 1 I I -0.70710678118654746 0.70710678118654746 1 forward I I I I #
loop $-1 $-1 $117 $29 #
coedge $-1 $73 $73 $118 $119 reversed $46 $-1 #
face $-1 $120 $121 $18 $-1 $122 reversed single #
loop $-1 $-1 $123 $48 #
plane-surface $-1 0 -26.202192594010057 0 0 1 0 0 0 1 forward_v I I I I #
coedge $-1 $124 $125 $126 $127 forward $49 $-1 #
coedge $-1 $128 $51 $129 $130 forward $31 $-1 #
coedge $-1 $51 $128 $131 $132 forward $31 $-1 #
coedge $-1 $133 $134 $51 $81 reversed $135 $-1 #
edge $-1 $136 -26.202192594010057 $137 26.202192594010057 $80 $138 forward 7 unknown #
face $-1 $139 $140 $19 $-1 $141 reversed single #
loop $-1 $-1 $88 $52 #
plane-surface $-1 -63.41660833043256 0 5.7296269797210027 0 0 1 1 0 0 forward_v I I I I #
coedge $-1 $142 $143 $86 $144 forward $53 $-1 #
coedge $-1 $145 $55 $85 $144 reversed $34 $-1 #
coedge $-1 $55 $145 $146 $147 reversed $34 $-1 #
coedge $-1 $148 $149 $55 $89 reversed $83 $-1 #
edge $-1 $150 -26.202192594010057 $151 26.202192594010057 $88 $152 forward 7 unknown #
face $-1 $153 $154 $20 $-1 $155 forward single #
loop $-1 $-1 $156 $56 #
plane-surface $-1 -26.212093049525109 99.25062190082383 108.3570089802197 -1 0 0 0 0.84804810408105047 0.52991925155115449 forward_v I I I I #
coedge $-1 $157 $158 $159 $160 reversed $57 $-1 #
coedge $-1 $95 $59 $161 $162 reversed $37 $-1 #
coedge $-1 $59 $94 $157 $163 reversed $37 $-1 #
coedge $-1 $159 $164 $59 $97 forward $154 $-1 #
edge $-1 $165 23.423118356401858 $166 29.510315732024264 $96 $167 forward 7 unknown #
loop $-1 $-1 $103 $60 #
plane-surface $-1 -38.851705109213874 -1.5678999828239597 45.358606646700331 0 0.84804810408105047 0.52991925155115449 1 0 0 forward_v I I I I #
loop $-1 $-1 $168 $39 #
coedge $-1 $101 $101 $102 $169 reversed $61 $-1 #
coedge $-1 $102 $102 $101 $169 forward $63 $-1 #
coedge $-1 $103 $103 $64 $104 forward $98 $-1 #
edge $-1 $170 5.2491818063572354e-019 $170 6.2831853071796004 $103 $171 forward 7 unknown #
face $-1 $172 $173 $22 $-1 $174 reversed single #
loop $-1 $-1 $175 $65 #
plane-surface $-1 -48.478392011755602 -102.61872743251475 94.60488521407909 1 0 0 0 0.64278761758704617 -0.76604443648966558 forward_v I I I I #
coedge $-1 $176 $177 $178 $179 reversed $66 $-1 #
coedge $-1 $110 $68 $180 $181 reversed $43 $-1 #
coedge $-1 $68 $109 $176 $182 reversed $43 $-1 #
coedge $-1 $178 $183 $68 $112 forward $184 $-1 #
edge $-1 $185 25.107171122247316 $186 33.596642460223748 $111 $187 forward 7 unknown #
loop $-1 $-1 $118 $69 #
plane-surface $-1 -38.116547430875613 -26.202192594010057 3.5352071941412504 0 -0.64278761758704617 0.76604443648966558 1 0 0 forward_v I I I I #
loop $-1 $-1 $188 $45 #
coedge $-1 $116 $116 $117 $189 reversed $70 $-1 #
coedge $-1 $117 $117 $116 $189 forward $72 $-1 #
coedge $-1 $118 $118 $73 $119 forward $113 $-1 #
edge $-1 $190 1.3301390387049939e-016 $190 6.2831853071796004 $118 $191 forward 7 unknown #
face $-1 $192 $193 $18 $-1 $194 reversed single #
loop $-1 $-1 $195 $74 #
plane-surface $-1 -59.441511276589253 0 0 1 0 0 0 0 -1 forward_v I I I I #
coedge $-1 $196 $131 $197 $198 forward $75 $-1 #
coedge $-1 $199 $77 $196 $200 forward $49 $-1 #
coedge $-1 $77 $199 $201 $202 forward $49 $-1 #
coedge $-1 $134 $133 $77 $127 reversed $135 $-1 #
edge $-1 $203 -26.202192594010057 $204 26.202192594010057 $126 $205 forward 7 unknown #
coedge $-1 $79 $78 $206 $207 forward $31 $-1 #
coedge $-1 $208 $209 $78 $130 reversed $193 $-1 #
edge $-1 $137 -59.441511276589253 $210 59.441511276589253 $129 $211 forward 7 unknown #
coedge $-1 $123 $212 $79 $132 reversed $75 $-1 #
edge $-1 $213 -59.441511276589253 $136 59.441511276589253 $131 $214 forward 7 unknown #
coedge $-1 $126 $80 $212 $215 forward $135 $-1 #
coedge $-1 $80 $126 $208 $216 reversed $135 $-1 #
loop $-1 $-1 $133 $192 #
vertex $-1 $81 $217 #
vertex $-1 $81 $218 #
straight-curve $-1 59.441511276589253 0 10.65871961192904 0 1 0 I I #
face $-1 $219 $220 $19 $-1 $221 forward single #
loop $-1 $-1 $222 $82 #
plane-surface $-1 -67.391705384275866 0 8.1941732958250206 1 0 0 0 0 -1 forward_v I I I I #
coedge $-1 $223 $85 $149 $224 reversed $53 $-1 #
coedge $-1 $85 $223 $225 $226 reversed $53 $-1 #
edge $-1 $227 -10.65871961192904 $151 -5.7296269797210027 $85 $228 forward 7 unknown #
coedge $-1 $87 $86 $229 $230 reversed $34 $-1 #
coedge $-1 $231 $232 $87 $147 forward $233 $-1 #
edge $-1 $150 5.7296269797210027 $234 10.65871961192904 $146 $235 forward 7 unknown #
coedge $-1 $236 $88 $232 $237 forward $83 $-1 #
coedge $-1 $88 $236 $142 $224 forward $83 $-1 #
vertex $-1 $147 $238 #
vertex $-1 $144 $239 #
straight-curve $-1 -59.441511276589253 0 5.7296269797210027 0 1 0 I I #
face $-1 $-1 $240 $20 $-1 $241 reversed single #
loop $-1 $-1 $96 $90 #
plane-surface $-1 0 0 10.65871961192904 0 0 1 1 0 0 forward_v I I I I #
coedge $-1 $242 $243 $244 $245 reversed $91 $-1 #
coedge $-1 $246 $93 $95 $163 forward $57 $-1 #
coedge $-1 $93 $246 $242 $247 forward $57 $-1 #
coedge $-1 $244 $96 $93 $160 forward $154 $-1 #
edge $-1 $166 -32.065464614295706 $248 -6.7862404949181716 $159 $249 forward 7 unknown #
coedge $-1 $250 $251 $94 $162 forward $240 $-1 #
edge $-1 $252 -53.26133734764305 $165 -43.519784878180815 $161 $253 forward 7 unknown #
edge $-1 $166 40.917357008152592 $252 52.4043851880201 $95 $254 forward 7 unknown #
coedge $-1 $96 $244 $250 $255 forward $154 $-1 #
vertex $-1 $162 $256 #
vertex $-1 $97 $257 #
straight-curve $-1 -51.49131716890264 49.625310950411915 10.658719611929044 0 -1 0 I I #
coedge $-1 $168 $168 $-1 $258 reversed $100 $-1 #
edge $-1 $259 0 $259 6.2831853071796004 $101 $260 forward 7 unknown #
vertex $-1 $104 $261 #
ellipse-curve $-1 -38.851705109213874 23.158593906198856 5.787943377197923 0 0.84804810408105047 0.52991925155115449 1.5 0 0 1 I I #
face $-1 $-1 $184 $22 $-1 $262 forward single #
loop $-1 $-1 $263 $105 #
plane-surface $-1 0 -26.202192594010057 0 0 1 0 0 0 1 forward_v I I I I #
coedge $-1 $264 $265 $266 $267 reversed $106 $-1 #
coedge $-1 $268 $108 $110 $182 forward $66 $-1 #
coedge $-1 $108 $268 $264 $269 forward $66 $-1 #
coedge $-1 $266 $111 $108 $179 forward $184 $-1 #
edge $-1 $186 8.696429134557814 $270 29.420118296317796 $178 $271 forward 7 unknown #
coedge $-1 $272 $273 $109 $181 forward $173 $-1 #
edge $-1 $274 -43.767235412898295 $185 -36.643722995110508 $180 $275 forward 7 unknown #
edge $-1 $186 -11.082217863076874 $274 0 $110 $276 forward 7 unknown #
coedge $-1 $111 $266 $272 $277 forward $184 $-1 #
loop $-1 $-1 $266 $172 #
vertex $-1 $181 $278 #
vertex $-1 $112 $279 #
straight-curve $-1 -27.754702849995621 -51.309363716257373 10.658719611929044 0 1 0 I I #
coedge $-1 $188 $188 $-1 $280 reversed $115 $-1 #
edge $-1 $281 0 $281 6.2831853071796004 $116 $282 forward 7 unknown #
vertex $-1 $119 $283 #
ellipse-curve $-1 -38.116547430875613 -21.957456925021845 7.0969634030351436 0 -0.64278761758704617 0.76604443648966558 2 0 0 1 I I #
face $-1 $-1 $135 $18 $-1 $284 reversed single #
loop $-1 $-1 $208 $120 #
plane-surface $-1 0 26.202192594010057 0 0 -1 0 0 0 -1 forward_v I I I I #
coedge $-1 $285 $206 $209 $286 forward $121 $-1 #
coedge $-1 $212 $123 $124 $200 reversed $75 $-1 #
coedge $-1 $206 $285 $123 $198 reversed $121 $-1 #
edge $-1 $213 -10.65871961192904 $287 10.65871961192904 $197 $288 forward 7 unknown #
coedge $-1 $125 $124 $285 $289 forward $49 $-1 #
edge $-1 $204 -59.441511276589253 $287 59.441511276589253 $196 $290 forward 7 unknown #
coedge $-1 $209 $208 $125 $202 reversed $193 $-1 #
edge $-1 $291 -59.441511276589253 $203 59.441511276589253 $201 $292 forward 7 unknown #
vertex $-1 $127 $293 #
vertex $-1 $215 $294 #
straight-curve $-1 59.441511276589253 0 -10.65871961192904 0 -1 0 I I #
coedge $-1 $195 $197 $128 $207 reversed $121 $-1 #
edge $-1 $210 -26.202192594010057 $213 26.202192594010057 $206 $295 forward 7 unknown #
coedge $-1 $201 $129 $134 $216 forward $193 $-1 #
coedge $-1 $129 $201 $195 $286 reversed $193 $-1 #
vertex $-1 $130 $296 #
straight-curve $-1 0 26.202192594010057 10.65871961192904 -1 0 0 I I #
coedge $-1 $131 $196 $133 $215 reversed $75 $-1 #
vertex $-1 $207 $297 #
straight-curve $-1 0 -26.202192594010057 10.65871961192904 1 0 0 I I #
edge $-1 $136 -10.65871961192904 $204 10.65871961192904 $133 $298 forward 7 unknown #
edge $-1 $137 -10.65871961192904 $203 10.65871961192904 $134 $299 forward 7 unknown #
point $-1 59.441511276589253 -26.202192594010057 10.65871961192904 #
point $-1 59.441511276589253 26.202192594010057 10.65871961192904 #
face $-1 $-1 $233 $19 $-1 $300 reversed single #
loop $-1 $-1 $229 $139 #
plane-surface $-1 0 0 10.65871961192904 0 0 1 1 0 0 forward_v I I I I #
coedge $-1 $301 $302 $223 $303 forward $140 $-1 #
coedge $-1 $143 $142 $222 $303 reversed $53 $-1 #
edge $-1 $304 -3.9750970538433066 $151 3.9750970538433066 $142 $305 forward 7 unknown #
coedge $-1 $306 $229 $143 $226 forward $220 $-1 #
edge $-1 $227 59.441511276589253 $307 67.391705384275866 $143 $308 forward 7 unknown #
vertex $-1 $226 $309 #
straight-curve $-1 -59.441511276589253 26.202192594010057 0 0 0 -1 I I #
coedge $-1 $225 $310 $145 $230 forward $220 $-1 #
edge $-1 $234 -26.202192594010057 $227 26.202192594010057 $229 $311 forward 7 unknown #
coedge $-1 $312 $146 $310 $313 reversed $233 $-1 #
coedge $-1 $146 $312 $148 $237 reversed $233 $-1 #
loop $-1 $-1 $146 $219 #
vertex $-1 $147 $314 #
straight-curve $-1 -59.441511276589253 -26.202192594010057 0 0 0 1 I I #
coedge $-1 $149 $148 $301 $315 forward $83 $-1 #
edge $-1 $150 -3.9750970538433066 $316 3.9750970538433066 $232 $317 forward 7 unknown #
point $-1 -59.441511276589253 -26.202192594010057 5.7296269797210027 #
point $-1 -59.441511276589253 26.202192594010057 5.7296269797210027 #
loop $-1 $-1 $161 $153 #
plane-surface $-1 0 26.202192594010057 0 0 -1 0 0 0 -1 forward_v I I I I #
coedge $-1 $243 $156 $158 $247 reversed $91 $-1 #
coedge $-1 $156 $242 $318 $319 reversed $91 $-1 #
coedge $-1 $164 $159 $156 $245 forward $154 $-1 #
edge $-1 $248 -29.510315732024264 $320 -23.423118356401858 $244 $321 forward 7 unknown #
coedge $-1 $158 $157 $251 $322 reversed $57 $-1 #
edge $-1 $323 -52.4043851880201 $248 -40.917357008152592 $242 $324 forward 7 unknown #
vertex $-1 $160 $325 #
straight-curve $-1 -19.425852554606937 20.114995218387648 10.65871961192904 1 0 0 I I #
coedge $-1 $318 $161 $164 $255 reversed $240 $-1 #
coedge $-1 $161 $318 $246 $322 forward $240 $-1 #
vertex $-1 $162 $326 #
straight-curve $-1 -51.49131716890264 26.202192594010057 54.178504490109852 0 0 1 I I #
straight-curve $-1 -51.49131716890264 -1.5678999828239597 45.358606646700331 0 0.52991925155115449 -0.84804810408105047 I I #
edge $-1 $320 26.212093049525109 $165 51.49131716890264 $250 $327 forward 7 unknown #
point $-1 -51.49131716890264 26.202192594010057 10.65871961192904 #
point $-1 -51.49131716890264 20.114995218387651 10.658719611929037 #
edge $-1 $328 1 $328 0 $168 $-1 forward 7 unknown #
vertex $-1 $169 $329 #
ellipse-curve $-1 -38.851705109213874 20.605287661864121 4.1924606121666628 0 0.84804810408105047 0.52991925155115449 1.5 0 0 1 I I #
point $-1 -37.351705109213874 23.158593906198849 5.7879433771979185 #
plane-surface $-1 0 0 10.65871961192904 0 0 1 1 0 0 forward_v I I I I #
coedge $-1 $273 $272 $265 $330 forward $173 $-1 #
coedge $-1 $265 $175 $177 $269 reversed $106 $-1 #
coedge $-1 $175 $264 $263 $330 reversed $106 $-1 #
coedge $-1 $183 $178 $175 $267 forward $184 $-1 #
edge $-1 $270 -33.596642460223748 $331 -25.107171122247316 $266 $332 forward 7 unknown #
coedge $-1 $177 $176 $273 $333 reversed $66 $-1 #
edge $-1 $334 0 $270 11.082217863076874 $264 $335 forward 7 unknown #
vertex $-1 $179 $336 #
straight-curve $-1 -19.058273715437807 -17.712721256033628 10.65871961192904 -1 0 0 I I #
coedge $-1 $263 $180 $183 $277 reversed $173 $-1 #
coedge $-1 $180 $263 $268 $333 forward $173 $-1 #
vertex $-1 $181 $337 #
straight-curve $-1 -27.754702849995621 -26.202192594010057 47.302442607039545 0 0 1 I I #
straight-curve $-1 -27.754702849995621 -26.202192594010057 3.5352071941412504 0 -0.76604443648966558 -0.64278761758704617 I I #
edge $-1 $331 -48.478392011755602 $185 -27.754702849995621 $272 $338 forward 7 unknown #
point $-1 -27.754702849995621 -26.202192594010057 10.65871961192904 #
point $-1 -27.754702849995621 -17.712721256033628 10.65871961192904 #
edge $-1 $339 1 $339 0 $188 $-1 forward 7 unknown #
vertex $-1 $189 $340 #
ellipse-curve $-1 -38.116547430875613 -20.216494509005273 5.0221652326324646 0 -0.64278761758704617 0.76604443648966558 2 0 0 1 I I #
point $-1 -36.116547430875613 -21.957456925021852 7.0969634030351525 #
plane-surface $-1 59.441511276589253 0 0 -1 0 0 0 0 1 forward_v I I I I #
coedge $-1 $197 $195 $199 $289 reversed $121 $-1 #
edge $-1 $210 -10.65871961192904 $291 10.65871961192904 $209 $341 forward 7 unknown #
vertex $-1 $289 $342 #
straight-curve $-1 -59.441511276589253 -26.202192594010057 0 0 0 -1 I I #
edge $-1 $287 -26.202192594010057 $291 26.202192594010057 $285 $343 forward 7 unknown #
straight-curve $-1 0 -26.202192594010057 -10.65871961192904 -1 0 0 I I #
vertex $-1 $202 $344 #
straight-curve $-1 0 26.202192594010057 -10.65871961192904 1 0 0 I I #
point $-1 59.441511276589253 26.202192594010057 -10.65871961192904 #
point $-1 59.441511276589253 -26.202192594010057 -10.65871961192904 #
straight-curve $-1 -59.441511276589253 0 10.65871961192904 0 -1 0 I I #
point $-1 -59.441511276589253 26.202192594010057 10.65871961192904 #
point $-1 -59.441511276589253 -26.202192594010057 10.65871961192904 #
straight-curve $-1 59.441511276589253 -26.202192594010057 0 0 0 -1 I I #
straight-curve $-1 59.441511276589253 26.202192594010057 0 0 0 -1 I I #
plane-surface $-1 0 -26.202192594010057 0 0 1 0 0 0 1 forward_v I I I I #
coedge $-1 $345 $222 $236 $315 reversed $140 $-1 #
coedge $-1 $222 $345 $306 $346 reversed $140 $-1 #
edge $-1 $307 -2.464546316104018 $304 2.464546316104018 $223 $347 forward 7 unknown #
vertex $-1 $224 $348 #
straight-curve $-1 -63.41660833043256 26.202192594010057 5.7296269797210027 1 0 0 I I #
coedge $-1 $310 $225 $302 $346 forward $220 $-1 #
vertex $-1 $226 $349 #
straight-curve $-1 0 26.202192594010057 10.65871961192904 -1 0 0 I I #
point $-1 -59.441511276589253 26.202192594010057 10.65871961192904 #
coedge $-1 $229 $306 $231 $313 forward $220 $-1 #
straight-curve $-1 -59.441511276589253 0 10.65871961192904 0 1 0 I I #
coedge $-1 $232 $231 $345 $350 forward $233 $-1 #
edge $-1 $351 -67.391705384275866 $234 -59.441511276589253 $231 $352 forward 7 unknown #
point $-1 -59.441511276589253 -26.202192594010057 10.65871961192904 #
edge $-1 $316 -26.202192594010057 $304 26.202192594010057 $301 $353 forward 7 unknown #
vertex $-1 $315 $354 #
straight-curve $-1 -63.41660833043256 -26.202192594010057 5.7296269797210027 -1 0 0 I I #
coedge $-1 $251 $250 $243 $319 forward $240 $-1 #
edge $-1 $320 43.519784878180815 $323 53.26133734764305 $318 $355 forward 7 unknown #
vertex $-1 $255 $356 #
straight-curve $-1 -26.212093049525109 49.625310950411915 10.658719611929044 0 1 0 I I #
edge $-1 $323 6.7862404949181716 $252 32.065464614295706 $251 $357 forward 7 unknown #
vertex $-1 $322 $358 #
straight-curve $-1 -26.212093049525109 -1.5678999828239597 45.358606646700331 0 -0.52991925155115449 0.84804810408105047 I I #
point $-1 -26.212093049525109 20.114995218387651 10.658719611929037 #
point $-1 -51.49131716890264 26.202192594010057 0.91716714246680198 #
straight-curve $-1 0 26.202192594010057 10.65871961192904 -1 0 0 I I #
vertex $-1 $258 $359 #
point $-1 -37.351705109213874 20.605287661864121 4.1924606121666628 #
edge $-1 $331 36.643722995110508 $334 43.767235412898295 $263 $360 forward 7 unknown #
vertex $-1 $277 $361 #
straight-curve $-1 -48.478392011755602 -51.309363716257373 10.658719611929044 0 -1 0 I I #
edge $-1 $334 -29.420118296317796 $274 -8.696429134557814 $273 $362 forward 7 unknown #
vertex $-1 $333 $363 #
straight-curve $-1 -48.478392011755602 -26.202192594010057 3.5352071941412504 0 0.76604443648966558 0.64278761758704617 I I #
point $-1 -48.478392011755602 -17.712721256033628 10.65871961192904 #
point $-1 -27.754702849995621 -26.202192594010057 3.5352071941412504 #
straight-curve $-1 0 -26.202192594010057 10.65871961192904 1 0 0 I I #
vertex $-1 $280 $364 #
point $-1 -36.116547430875613 -20.216494509005273 5.0221652326324646 #
straight-curve $-1 -59.441511276589253 26.202192594010057 0 0 0 -1 I I #
point $-1 -59.441511276589253 -26.202192594010057 -10.65871961192904 #
straight-curve $-1 -59.441511276589253 0 -10.65871961192904 0 1 0 I I #
point $-1 -59.441511276589253 26.202192594010057 -10.65871961192904 #
coedge $-1 $302 $301 $312 $350 reversed $140 $-1 #
edge $-1 $307 -26.202192594010057 $351 26.202192594010057 $302 $365 forward 7 unknown #
straight-curve $-1 -67.391705384275866 26.202192594010057 8.1941732958250206 0 0 -1 I I #
point $-1 -67.391705384275866 26.202192594010057 5.7296269797210027 #
point $-1 -67.391705384275866 26.202192594010057 10.658719611929039 #
edge $-1 $351 -2.464546316104018 $316 2.464546316104018 $345 $366 forward 7 unknown #
vertex $-1 $346 $367 #
straight-curve $-1 0 -26.202192594010057 10.65871961192904 1 0 0 I I #
straight-curve $-1 -67.391705384275866 0 5.7296269797210027 0 1 0 I I #
point $-1 -67.391705384275866 -26.202192594010057 5.7296269797210027 #
straight-curve $-1 -26.212093049525109 26.202192594010057 54.178504490109852 0 0 -1 I I #
point $-1 -26.212093049525109 26.202192594010057 10.65871961192904 #
straight-curve $-1 -19.425852554606937 26.202192594010057 0.91716714246680198 -1 0 0 I I #
point $-1 -26.212093049525109 26.202192594010057 0.91716714246680198 #
point $-1 -38.851705109213874 19.333215505742547 3.3975817348399313 #
straight-curve $-1 -48.478392011755602 -26.202192594010057 47.302442607039545 0 0 -1 I I #
point $-1 -48.478392011755602 -26.202192594010057 10.65871961192904 #
straight-curve $-1 -19.058273715437807 -26.202192594010057 3.5352071941412508 1 0 0 I I #
point $-1 -48.478392011755602 -26.202192594010057 3.5352071941412504 #
point $-1 -38.116547430875613 -18.930919273831179 3.4900763596531332 #
straight-curve $-1 -67.391705384275866 0 10.658719611929039 0 -1 0 I I #
straight-curve $-1 -67.391705384275866 -26.202192594010057 8.1941732958250206 0 0 -1 I I #
point $-1 -67.391705384275866 -26.202192594010057 10.658719611929039 #
End-of-ACIS-data 