500 0 12 0           
7 Unknown 11 ACIS 5.0 NT 24 Fri Mar 26 02:19:46 1999 
-1 9.9999999999999995e-007 1e-010 
body $-1 $12 $-1 $13 #
body $-1 $14 $-1 $15 #
body $-1 $16 $-1 $17 #
body $-1 $18 $-1 $19 #
body $-1 $20 $-1 $21 #
body $-1 $22 $-1 $23 #
body $-1 $24 $-1 $25 #
body $-1 $26 $-1 $27 #
body $-1 $28 $-1 $29 #
body $-1 $30 $-1 $31 #
body $-1 $32 $-1 $33 #
body $-1 $34 $-1 $35 #
lump $-1 $-1 $36 $0 #
transform $-1 1 0 0 0 1 0 0 0 1 61.257972960600604 42.735320764823186 12.502366966267024 1 rotate no_reflect no_shear #
lump $-1 $-1 $37 $1 #
transform $-1 1 0 0 0 1 0 0 0 1 61.257972960600604 42.735320764823186 12.502366966267024 1 rotate no_reflect no_shear #
lump $-1 $-1 $38 $2 #
transform $-1 1 0 0 0 1 0 0 0 1 61.257972960600604 42.735320764823186 12.502366966267024 1 rotate no_reflect no_shear #
lump $-1 $-1 $39 $3 #
transform $-1 1 0 0 0 1 0 0 0 1 61.257972960600604 42.735320764823186 12.502366966267024 1 rotate no_reflect no_shear #
lump $-1 $-1 $40 $4 #
transform $-1 1 0 0 0 1 0 0 0 1 61.257972960600604 42.735320764823186 12.502366966267024 1 rotate no_reflect no_shear #
lump $-1 $-1 $41 $5 #
transform $-1 1 0 0 0 1 0 0 0 1 61.257972960600604 42.735320764823186 12.502366966267024 1 rotate no_reflect no_shear #
lump $-1 $-1 $42 $6 #
transform $-1 1 0 0 0 1 0 0 0 1 61.257972960600604 42.735320764823186 12.502366966267024 1 rotate no_reflect no_shear #
lump $-1 $-1 $43 $7 #
transform $-1 1 0 0 0 1 0 0 0 1 61.257972960600604 42.735320764823186 12.502366966267024 1 rotate no_reflect no_shear #
lump $-1 $-1 $44 $8 #
transform $-1 1 0 0 0 1 0 0 0 1 61.257972960600604 42.735320764823186 12.502366966267024 1 rotate no_reflect no_shear #
lump $-1 $-1 $45 $9 #
transform $-1 1 0 0 0 1 0 0 0 1 61.257972960600604 42.735320764823186 12.502366966267024 1 rotate no_reflect no_shear #
lump $-1 $-1 $46 $10 #
transform $-1 1 0 0 0 1 0 0 0 1 61.257972960600604 42.735320764823186 12.502366966267024 1 rotate no_reflect no_shear #
lump $-1 $-1 $47 $11 #
transform $-1 1 0 0 0 1 0 0 0 1 61.257972960600604 42.735320764823186 12.502366966267024 1 rotate no_reflect no_shear #
shell $-1 $-1 $-1 $48 $-1 $12 #
shell $-1 $-1 $-1 $49 $-1 $14 #
shell $-1 $-1 $-1 $50 $-1 $16 #
shell $-1 $-1 $-1 $51 $-1 $18 #
shell $-1 $-1 $-1 $52 $-1 $20 #
shell $-1 $-1 $-1 $53 $-1 $22 #
shell $-1 $-1 $-1 $54 $-1 $24 #
shell $-1 $-1 $-1 $55 $-1 $26 #
shell $-1 $-1 $-1 $56 $-1 $28 #
shell $-1 $-1 $-1 $57 $-1 $30 #
shell $-1 $-1 $-1 $58 $-1 $32 #
shell $-1 $-1 $-1 $59 $-1 $34 #
face $-1 $60 $61 $36 $-1 $62 forward single #
face $-1 $63 $64 $37 $-1 $65 forward single #
face $-1 $66 $67 $38 $-1 $68 reversed single #
face $-1 $69 $70 $39 $-1 $71 forward single #
face $-1 $72 $73 $40 $-1 $74 forward single #
face $-1 $75 $76 $41 $-1 $77 forward single #
face $-1 $78 $79 $42 $-1 $80 reversed single #
face $-1 $81 $82 $43 $-1 $83 forward single #
face $-1 $84 $85 $44 $-1 $86 forward single #
face $-1 $87 $88 $45 $-1 $89 reversed single #
face $-1 $90 $91 $46 $-1 $92 forward single #
face $-1 $93 $94 $47 $-1 $95 forward single #
face $-1 $96 $97 $36 $-1 $98 reversed single #
loop $-1 $-1 $99 $48 #
plane-surface $-1 0 0 12.502366966267024 0 0 1 1 0 0 forward_v I I I I #
face $-1 $100 $101 $37 $-1 $102 reversed single #
loop $-1 $-1 $103 $49 #
plane-surface $-1 0 -34.563209474200377 1.5039051903090046 0 0 1 1 0 0 forward_v I I I I #
face $-1 $104 $105 $38 $-1 $106 reversed single #
loop $-1 $-1 $107 $50 #
plane-surface $-1 34.153558400011882 -4.9082737894353627 178.94019696178046 0 1 0 0.5877852598018023 0 0.80901698891910034 forward_v I I I I #
face $-1 $108 $109 $39 $-1 $110 forward single #
loop $-1 $111 $112 $51 #
cone-surface $-1 57.252599797837469 -0.92667475571013114 9.0880913288034773 -0.5877852598018023 0 -0.80901698891910034 0.80901698891910034 0 -0.5877852598018023 1 I I 0 1 1 forward I I I I #
face $-1 $113 $114 $40 $-1 $115 forward single #
loop $-1 $116 $117 $52 #
cone-surface $-1 57.252599797837469 5.0457237948777163 9.0880913288034773 -0.5877852598018023 0 -0.80901698891910034 0.80901698891910034 0 -0.5877852598018023 1 I I 0 1 1 forward I I I I #
face $-1 $118 $119 $41 $-1 $120 forward single #
loop $-1 $121 $122 $53 #
cone-surface $-1 57.252599797837469 11.018122345465564 9.0880913288034773 -0.5877852598018023 0 -0.80901698891910034 0.80901698891910034 0 -0.5877852598018023 1 I I 0 1 1 forward I I I I #
face $-1 $123 $124 $42 $-1 $125 reversed single #
loop $-1 $-1 $126 $54 #
plane-surface $-1 -141.63566645497366 -1.2198947939791225 101.4585376017538 0 1 0 -0.6560590369687036 0 0.75470957328743171 forward_v I I I I #
face $-1 $127 $128 $43 $-1 $129 forward single #
loop $-1 $130 $131 $55 #
cone-surface $-1 -58.161977654089419 0.88036766960362201 9.5079487240891893 0.6560590369687036 0 -0.75470957328743171 0.75470957328743171 0 0.6560590369687036 1 I I 0 1 1 forward I I I I #
face $-1 $132 $133 $44 $-1 $134 forward single #
loop $-1 $135 $136 $56 #
cone-surface $-1 -58.161977654089419 4.0307613649777352 9.5079487240891893 0.6560590369687036 0 -0.75470957328743171 0.75470957328743171 0 0.6560590369687036 1 I I 0 1 1 forward I I I I #
face $-1 $137 $138 $45 $-1 $139 reversed single #
loop $-1 $-1 $140 $57 #
plane-surface $-1 -141.63566645497366 10.213198752685138 101.4585376017538 0 1 0 -0.6560590369687036 0 0.75470957328743171 forward_v I I I I #
face $-1 $141 $142 $46 $-1 $143 forward single #
loop $-1 $144 $145 $58 #
cone-surface $-1 -58.161977654089419 12.313461216267882 9.5079487240891893 0.6560590369687036 0 -0.75470957328743171 0.75470957328743171 0 0.6560590369687036 1 I I 0 1 1 forward I I I I #
face $-1 $146 $147 $47 $-1 $148 forward single #
loop $-1 $149 $150 $59 #
cone-surface $-1 -58.161977654089419 15.463854911641995 9.5079487240891893 0.6560590369687036 0 -0.75470957328743171 0.75470957328743171 0 0.6560590369687036 1 I I 0 1 1 forward I I I I #
face $-1 $151 $152 $36 $-1 $153 reversed single #
loop $-1 $-1 $154 $60 #
plane-surface $-1 0 0 -12.502366966267024 0 0 1 1 0 0 forward_v I I I I #
coedge $-1 $155 $156 $157 $158 forward $61 $-1 #
face $-1 $159 $160 $37 $-1 $161 reversed single #
loop $-1 $-1 $162 $63 #
plane-surface $-1 0 -34.563209474200377 -2.5858152773758531 0 0 1 1 0 0 forward_v I I I I #
coedge $-1 $163 $164 $165 $166 reversed $64 $-1 #
face $-1 $167 $168 $38 $-1 $169 reversed single #
loop $-1 $-1 $170 $66 #
plane-surface $-1 -37.859508703144932 5.0457237948777163 79.822715298034922 0.5877852598018023 0 0.80901698891910034 0.80901698891910034 0 -0.5877852598018023 forward_v I I I I #
coedge $-1 $171 $172 $173 $174 reversed $67 $-1 #
face $-1 $-1 $175 $39 $-1 $176 forward single #
loop $-1 $177 $178 $69 #
cone-surface $-1 56.182820579533377 -0.92667475571013114 7.6156665825748338 -0.5877852598018023 0 -0.80901698891910034 0.40450849445955017 0 -0.29389262990090115 1 I I -0.70710678118654746 0.70710678118654746 0.5 forward I I I I #
loop $-1 $-1 $179 $51 #
coedge $-1 $112 $112 $180 $181 reversed $70 $-1 #
face $-1 $-1 $182 $40 $-1 $183 forward single #
loop $-1 $184 $185 $72 #
cone-surface $-1 56.182820579533377 5.0457237948777163 7.6156665825748338 -0.5877852598018023 0 -0.80901698891910034 0.40450849445955017 0 -0.29389262990090115 1 I I -0.70710678118654746 0.70710678118654746 0.5 forward I I I I #
loop $-1 $-1 $186 $52 #
coedge $-1 $117 $117 $187 $188 reversed $73 $-1 #
face $-1 $-1 $189 $41 $-1 $190 forward single #
loop $-1 $191 $192 $75 #
cone-surface $-1 56.182820579533377 11.018122345465564 7.6156665825748338 -0.5877852598018023 0 -0.80901698891910034 0.40450849445955017 0 -0.29389262990090115 1 I I -0.70710678118654746 0.70710678118654746 0.5 forward I I I I #
loop $-1 $-1 $193 $53 #
coedge $-1 $122 $122 $194 $195 reversed $76 $-1 #
face $-1 $196 $197 $42 $-1 $198 reversed single #
loop $-1 $-1 $199 $78 #
plane-surface $-1 -61.257972960600611 2.455564517290675 8.994580334657968 -0.6560590369687036 0 0.75470957328743171 0.75470957328743171 0 0.6560590369687036 forward_v I I I I #
coedge $-1 $200 $201 $202 $203 reversed $79 $-1 #
face $-1 $-1 $204 $43 $-1 $205 forward single #
loop $-1 $206 $207 $81 #
cone-surface $-1 -56.755576246154831 0.88036766960362201 7.8900690110721587 0.6560590369687036 0 -0.75470957328743171 0.37735478664371586 0 0.3280295184843518 1 I I -0.70710678118654746 0.70710678118654746 0.5 forward I I I I #
loop $-1 $-1 $208 $55 #
coedge $-1 $131 $131 $209 $210 reversed $82 $-1 #
face $-1 $-1 $211 $44 $-1 $212 forward single #
loop $-1 $213 $214 $84 #
cone-surface $-1 -56.755576246154831 4.0307613649777352 7.8900690110721587 0.6560590369687036 0 -0.75470957328743171 0.37735478664371586 0 0.3280295184843518 1 I I -0.70710678118654746 0.70710678118654746 0.5 forward I I I I #
loop $-1 $-1 $215 $56 #
coedge $-1 $136 $136 $216 $217 reversed $85 $-1 #
face $-1 $218 $219 $45 $-1 $220 reversed single #
loop $-1 $-1 $221 $87 #
plane-surface $-1 -61.257972960600611 13.888658063954935 8.994580334657968 -0.6560590369687036 0 0.75470957328743171 0.75470957328743171 0 0.6560590369687036 forward_v I I I I #
coedge $-1 $222 $223 $224 $225 reversed $88 $-1 #
face $-1 $-1 $226 $46 $-1 $227 forward single #
loop $-1 $228 $229 $90 #
cone-surface $-1 -56.755576246154831 12.313461216267882 7.8900690110721587 0.6560590369687036 0 -0.75470957328743171 0.37735478664371586 0 0.3280295184843518 1 I I -0.70710678118654746 0.70710678118654746 0.5 forward I I I I #
loop $-1 $-1 $230 $58 #
coedge $-1 $145 $145 $231 $232 reversed $91 $-1 #
face $-1 $-1 $233 $47 $-1 $234 forward single #
loop $-1 $235 $236 $93 #
cone-surface $-1 -56.755576246154831 15.463854911641995 7.8900690110721587 0.6560590369687036 0 -0.75470957328743171 0.37735478664371586 0 0.3280295184843518 1 I I -0.70710678118654746 0.70710678118654746 0.5 forward I I I I #
loop $-1 $-1 $237 $59 #
coedge $-1 $150 $150 $238 $239 reversed $94 $-1 #
face $-1 $240 $241 $36 $-1 $242 reversed single #
loop $-1 $-1 $243 $96 #
plane-surface $-1 0 -42.735320764823186 0 0 1 0 0 0 1 forward_v I I I I #
coedge $-1 $244 $245 $246 $247 forward $97 $-1 #
coedge $-1 $248 $99 $249 $250 forward $61 $-1 #
coedge $-1 $99 $248 $251 $252 forward $61 $-1 #
coedge $-1 $253 $254 $99 $158 reversed $255 $-1 #
edge $-1 $256 -42.735320764823186 $257 42.735320764823186 $157 $258 forward 7 unknown #
face $-1 $259 $260 $37 $-1 $261 reversed single #
loop $-1 $-1 $262 $100 #
plane-surface $-1 0 -26.391098183577569 -0.54095504353342427 0 -1 0 0 0 -1 forward_v I I I I #
coedge $-1 $263 $264 $265 $266 reversed $101 $-1 #
coedge $-1 $267 $103 $268 $269 forward $64 $-1 #
coedge $-1 $103 $267 $270 $271 reversed $64 $-1 #
coedge $-1 $272 $273 $103 $166 forward $274 $-1 #
edge $-1 $275 9.10949344647738 $276 25.453716027722997 $165 $277 forward 7 unknown #
face $-1 $278 $279 $38 $-1 $280 forward single #
loop $-1 $-1 $281 $104 #
plane-surface $-1 34.153558400011882 14.999721379190795 178.94019696178046 0 -1 0 -0.5877852598018023 0 -0.80901698891910034 forward_v I I I I #
coedge $-1 $282 $283 $284 $285 reversed $105 $-1 #
coedge $-1 $172 $107 $286 $287 reversed $67 $-1 #
coedge $-1 $107 $171 $282 $288 reversed $67 $-1 #
coedge $-1 $284 $289 $107 $174 forward $290 $-1 #
edge $-1 $291 76.96773151462321 $292 81.660450286012122 $173 $293 forward 7 unknown #
loop $-1 $-1 $180 $108 #
plane-surface $-1 -37.859508703144932 5.0457237948777163 79.822715298034922 0.5877852598018023 0 0.80901698891910034 0.80901698891910034 0 -0.5877852598018023 forward_v I I I I #
loop $-1 $-1 $294 $69 #
coedge $-1 $178 $178 $179 $295 reversed $109 $-1 #
coedge $-1 $179 $179 $178 $295 forward $111 $-1 #
coedge $-1 $180 $180 $112 $181 forward $175 $-1 #
edge $-1 $296 0 $296 6.2831853071796004 $180 $297 forward 7 unknown #
loop $-1 $-1 $187 $113 #
plane-surface $-1 -37.859508703144932 5.0457237948777163 79.822715298034922 0.5877852598018023 0 0.80901698891910034 0.80901698891910034 0 -0.5877852598018023 forward_v I I I I #
loop $-1 $-1 $298 $72 #
coedge $-1 $185 $185 $186 $299 reversed $114 $-1 #
coedge $-1 $186 $186 $185 $299 forward $116 $-1 #
coedge $-1 $187 $187 $117 $188 forward $182 $-1 #
edge $-1 $300 0 $300 6.2831853071796004 $187 $301 forward 7 unknown #
loop $-1 $-1 $194 $118 #
plane-surface $-1 -37.859508703144932 5.0457237948777163 79.822715298034922 0.5877852598018023 0 0.80901698891910034 0.80901698891910034 0 -0.5877852598018023 forward_v I I I I #
loop $-1 $-1 $302 $75 #
coedge $-1 $192 $192 $193 $303 reversed $119 $-1 #
coedge $-1 $193 $193 $192 $303 forward $121 $-1 #
coedge $-1 $194 $194 $122 $195 forward $189 $-1 #
edge $-1 $304 0 $304 6.2831853071796004 $194 $305 forward 7 unknown #
face $-1 $306 $307 $42 $-1 $308 reversed single #
loop $-1 $-1 $309 $123 #
plane-surface $-1 -141.63566645497366 6.1310238285604726 101.4585376017538 0 -1 0 0.6560590369687036 0 -0.75470957328743171 forward_v I I I I #
coedge $-1 $310 $311 $312 $313 reversed $124 $-1 #
coedge $-1 $201 $126 $314 $315 reversed $79 $-1 #
coedge $-1 $126 $200 $310 $316 reversed $79 $-1 #
coedge $-1 $312 $317 $126 $203 forward $318 $-1 #
edge $-1 $319 9.5598602668862256 $320 13.595107101008125 $202 $321 forward 7 unknown #
loop $-1 $-1 $209 $127 #
plane-surface $-1 -61.257972960600611 2.455564517290675 8.994580334657968 -0.6560590369687036 0 0.75470957328743171 0.75470957328743171 0 0.6560590369687036 forward_v I I I I #
loop $-1 $-1 $322 $81 #
coedge $-1 $207 $207 $208 $323 reversed $128 $-1 #
coedge $-1 $208 $208 $207 $323 forward $130 $-1 #
coedge $-1 $209 $209 $131 $210 forward $204 $-1 #
edge $-1 $324 0 $324 6.2831853071796004 $209 $325 forward 7 unknown #
loop $-1 $-1 $216 $132 #
plane-surface $-1 -61.257972960600611 2.455564517290675 8.994580334657968 -0.6560590369687036 0 0.75470957328743171 0.75470957328743171 0 0.6560590369687036 forward_v I I I I #
loop $-1 $-1 $326 $84 #
coedge $-1 $214 $214 $215 $327 reversed $133 $-1 #
coedge $-1 $215 $215 $214 $327 forward $135 $-1 #
coedge $-1 $216 $216 $136 $217 forward $211 $-1 #
edge $-1 $328 0 $328 6.2831853071796004 $216 $329 forward 7 unknown #
face $-1 $330 $331 $45 $-1 $332 forward single #
loop $-1 $-1 $333 $137 #
plane-surface $-1 -141.63566645497366 17.564117375224733 101.4585376017538 0 -1 0 0.6560590369687036 0 -0.75470957328743171 forward_v I I I I #
coedge $-1 $334 $335 $336 $337 reversed $138 $-1 #
coedge $-1 $223 $140 $338 $339 reversed $88 $-1 #
coedge $-1 $140 $222 $334 $340 reversed $88 $-1 #
coedge $-1 $336 $341 $140 $225 forward $331 $-1 #
edge $-1 $342 9.5598602668862256 $343 13.595107101008125 $224 $344 forward 7 unknown #
loop $-1 $-1 $231 $141 #
plane-surface $-1 -61.257972960600611 13.888658063954935 8.994580334657968 -0.6560590369687036 0 0.75470957328743171 0.75470957328743171 0 0.6560590369687036 forward_v I I I I #
loop $-1 $-1 $345 $90 #
coedge $-1 $229 $229 $230 $346 reversed $142 $-1 #
coedge $-1 $230 $230 $229 $346 forward $144 $-1 #
coedge $-1 $231 $231 $145 $232 forward $226 $-1 #
edge $-1 $347 0 $347 6.2831853071796004 $231 $348 forward 7 unknown #
loop $-1 $-1 $238 $146 #
plane-surface $-1 -61.257972960600611 13.888658063954935 8.994580334657968 -0.6560590369687036 0 0.75470957328743171 0.75470957328743171 0 0.6560590369687036 forward_v I I I I #
loop $-1 $-1 $349 $93 #
coedge $-1 $236 $236 $237 $350 reversed $147 $-1 #
coedge $-1 $237 $237 $236 $350 forward $149 $-1 #
coedge $-1 $238 $238 $150 $239 forward $233 $-1 #
edge $-1 $351 0 $351 6.2831853071796004 $238 $352 forward 7 unknown #
face $-1 $353 $354 $36 $-1 $355 reversed single #
loop $-1 $-1 $356 $151 #
plane-surface $-1 -61.257972960600604 0 0 1 0 0 0 0 -1 forward_v I I I I #
coedge $-1 $357 $251 $358 $359 forward $152 $-1 #
coedge $-1 $360 $154 $357 $361 forward $97 $-1 #
coedge $-1 $154 $360 $362 $363 forward $97 $-1 #
coedge $-1 $254 $253 $154 $247 reversed $255 $-1 #
edge $-1 $364 -42.735320764823186 $365 42.735320764823186 $246 $366 forward 7 unknown #
coedge $-1 $156 $155 $367 $368 forward $61 $-1 #
coedge $-1 $369 $370 $155 $250 reversed $354 $-1 #
edge $-1 $257 -61.257972960600604 $371 61.257972960600604 $249 $372 forward 7 unknown #
coedge $-1 $243 $373 $156 $252 reversed $152 $-1 #
edge $-1 $374 -61.257972960600604 $256 61.257972960600604 $251 $375 forward 7 unknown #
coedge $-1 $246 $157 $373 $376 forward $255 $-1 #
coedge $-1 $157 $246 $369 $377 reversed $255 $-1 #
loop $-1 $-1 $253 $353 #
vertex $-1 $158 $378 #
vertex $-1 $158 $379 #
straight-curve $-1 61.257972960600604 0 12.502366966267024 0 1 0 I I #
face $-1 $380 $381 $37 $-1 $382 reversed single #
loop $-1 $-1 $383 $159 #
plane-surface $-1 -61.257972960600604 0 0 1 0 0 0 0 -1 forward_v I I I I #
coedge $-1 $384 $268 $273 $385 reversed $160 $-1 #
coedge $-1 $386 $162 $387 $388 reversed $101 $-1 #
coedge $-1 $162 $386 $384 $389 forward $101 $-1 #
coedge $-1 $273 $272 $162 $266 forward $274 $-1 #
edge $-1 $390 -25.453716027722997 $391 -9.10949344647738 $265 $392 forward 7 unknown #
coedge $-1 $164 $163 $383 $393 reversed $64 $-1 #
coedge $-1 $262 $394 $163 $269 reversed $160 $-1 #
edge $-1 $275 -61.257972960600604 $395 61.257972960600604 $268 $396 forward 7 unknown #
coedge $-1 $397 $398 $164 $271 forward $381 $-1 #
edge $-1 $276 -61.257972960600604 $399 61.257972960600604 $270 $400 forward 7 unknown #
coedge $-1 $265 $165 $398 $401 forward $274 $-1 #
coedge $-1 $165 $265 $262 $385 forward $274 $-1 #
loop $-1 $-1 $165 $380 #
vertex $-1 $166 $402 #
vertex $-1 $401 $403 #
straight-curve $-1 61.257972960600604 -17.281604737100189 1.5039051903090046 0 -1 0 I I #
face $-1 $-1 $290 $38 $-1 $404 reversed single #
loop $-1 $-1 $405 $167 #
plane-surface $-1 0 0 12.502366966267024 0 0 1 1 0 0 forward_v I I I I #
coedge $-1 $406 $407 $408 $409 reversed $168 $-1 #
coedge $-1 $410 $170 $172 $288 forward $105 $-1 #
coedge $-1 $170 $410 $406 $411 forward $105 $-1 #
coedge $-1 $408 $173 $170 $285 forward $290 $-1 #
edge $-1 $292 -7.4311356868742209 $412 12.476859481751937 $284 $413 forward 7 unknown #
coedge $-1 $414 $415 $171 $287 forward $279 $-1 #
edge $-1 $416 37.722220611874761 $291 44.181193760594667 $286 $417 forward 7 unknown #
edge $-1 $292 -122.51594592120119 $416 -114.53221599069688 $172 $418 forward 7 unknown #
coedge $-1 $173 $408 $414 $419 reversed $290 $-1 #
loop $-1 $-1 $408 $278 #
vertex $-1 $419 $420 #
vertex $-1 $174 $421 #
straight-curve $-1 61.257972960600604 -4.9082737894353627 89.470098480890229 0 0 -1 I I #
coedge $-1 $294 $294 $-1 $422 reversed $177 $-1 #
edge $-1 $423 0 $423 6.2831853071796004 $178 $424 forward 7 unknown #
vertex $-1 $181 $425 #
ellipse-curve $-1 58.028486386240651 -0.92667475571013114 10.156007580572563 0.5877852598018023 0 0.80901698891910034 0.80901698891910034 0 -0.5877852598018023 1 I I #
coedge $-1 $298 $298 $-1 $426 reversed $184 $-1 #
edge $-1 $427 0 $427 6.2831853071796004 $185 $428 forward 7 unknown #
vertex $-1 $188 $429 #
ellipse-curve $-1 58.028486386240651 5.0457237948777163 10.156007580572563 0.5877852598018023 0 0.80901698891910034 0.80901698891910034 0 -0.5877852598018023 1 I I #
coedge $-1 $302 $302 $-1 $430 reversed $191 $-1 #
edge $-1 $431 0 $431 6.2831853071796004 $192 $432 forward 7 unknown #
vertex $-1 $195 $433 #
ellipse-curve $-1 58.028486386240651 11.018122345465564 10.156007580572563 0.5877852598018023 0 0.80901698891910034 0.80901698891910034 0 -0.5877852598018023 1 I I #
face $-1 $-1 $318 $42 $-1 $434 forward single #
loop $-1 $-1 $435 $196 #
plane-surface $-1 -61.257972960600604 0 0 1 0 0 0 0 -1 forward_v I I I I #
coedge $-1 $436 $437 $438 $439 reversed $197 $-1 #
coedge $-1 $440 $199 $201 $316 forward $124 $-1 #
coedge $-1 $199 $440 $436 $441 forward $124 $-1 #
coedge $-1 $438 $202 $199 $313 forward $318 $-1 #
edge $-1 $320 -2.44767705262446 $442 4.903241569915135 $312 $443 forward 7 unknown #
coedge $-1 $444 $445 $200 $315 forward $307 $-1 #
edge $-1 $446 -41.734688466218927 $319 -38.226901834609876 $314 $447 forward 7 unknown #
edge $-1 $320 -5.3467545357147337 $446 -8.85871892118899e-015 $201 $448 forward 7 unknown #
coedge $-1 $202 $438 $444 $449 forward $318 $-1 #
loop $-1 $-1 $438 $306 #
vertex $-1 $315 $450 #
vertex $-1 $203 $451 #
straight-curve $-1 -70.81783322748683 -1.2198947939791225 12.502366966267026 1 0 0 I I #
coedge $-1 $322 $322 $-1 $452 reversed $206 $-1 #
edge $-1 $453 0 $453 6.2831853071796004 $207 $454 forward 7 unknown #
vertex $-1 $210 $455 #
ellipse-curve $-1 -59.240349543539651 0.88036766960362201 10.7484736504625 -0.6560590369687036 0 0.75470957328743171 0.75470957328743171 0 0.6560590369687036 1 I I #
coedge $-1 $326 $326 $-1 $456 reversed $213 $-1 #
edge $-1 $457 0 $457 6.2831853071796004 $214 $458 forward 7 unknown #
vertex $-1 $217 $459 #
ellipse-curve $-1 -59.240349543539651 4.0307613649777352 10.7484736504625 -0.6560590369687036 0 0.75470957328743171 0.75470957328743171 0 0.6560590369687036 1 I I #
face $-1 $-1 $460 $45 $-1 $461 reversed single #
loop $-1 $-1 $224 $218 #
plane-surface $-1 0 0 12.502366966267024 0 0 1 1 0 0 forward_v I I I I #
coedge $-1 $462 $463 $464 $465 reversed $219 $-1 #
coedge $-1 $466 $221 $223 $340 forward $138 $-1 #
coedge $-1 $221 $466 $462 $467 forward $138 $-1 #
coedge $-1 $464 $224 $221 $337 forward $331 $-1 #
edge $-1 $343 3.26886972070767 $468 10.619788343247265 $336 $469 forward 7 unknown #
coedge $-1 $470 $471 $222 $339 forward $460 $-1 #
edge $-1 $472 -41.734688466218927 $342 -38.226901834609876 $338 $473 forward 7 unknown #
edge $-1 $343 -5.3467545357147337 $472 -8.85871892118899e-015 $223 $474 forward 7 unknown #
coedge $-1 $224 $464 $470 $475 forward $331 $-1 #
vertex $-1 $225 $476 #
vertex $-1 $225 $477 #
straight-curve $-1 -70.81783322748683 10.213198752685138 12.502366966267026 1 0 0 I I #
coedge $-1 $345 $345 $-1 $478 reversed $228 $-1 #
edge $-1 $479 0 $479 6.2831853071796004 $229 $480 forward 7 unknown #
vertex $-1 $232 $481 #
ellipse-curve $-1 -59.240349543539651 12.313461216267882 10.7484736504625 -0.6560590369687036 0 0.75470957328743171 0.75470957328743171 0 0.6560590369687036 1 I I #
coedge $-1 $349 $349 $-1 $482 reversed $235 $-1 #
edge $-1 $483 0 $483 6.2831853071796004 $236 $484 forward 7 unknown #
vertex $-1 $239 $485 #
ellipse-curve $-1 -59.240349543539651 15.463854911641995 10.7484736504625 -0.6560590369687036 0 0.75470957328743171 0.75470957328743171 0 0.6560590369687036 1 I I #
face $-1 $-1 $255 $36 $-1 $486 reversed single #
loop $-1 $-1 $369 $240 #
plane-surface $-1 0 42.735320764823186 0 0 -1 0 0 0 -1 forward_v I I I I #
coedge $-1 $487 $367 $370 $488 forward $241 $-1 #
coedge $-1 $373 $243 $244 $361 reversed $152 $-1 #
coedge $-1 $367 $487 $243 $359 reversed $241 $-1 #
edge $-1 $374 -12.502366966267024 $489 12.502366966267024 $358 $490 forward 7 unknown #
coedge $-1 $245 $244 $487 $491 forward $97 $-1 #
edge $-1 $365 -61.257972960600604 $489 61.257972960600604 $357 $492 forward 7 unknown #
coedge $-1 $370 $369 $245 $363 reversed $354 $-1 #
edge $-1 $493 -61.257972960600604 $364 61.257972960600604 $362 $494 forward 7 unknown #
vertex $-1 $247 $495 #
vertex $-1 $376 $496 #
straight-curve $-1 61.257972960600604 0 -12.502366966267024 0 -1 0 I I #
coedge $-1 $356 $358 $248 $368 reversed $241 $-1 #
edge $-1 $371 -42.735320764823186 $374 42.735320764823186 $367 $497 forward 7 unknown #
coedge $-1 $362 $249 $254 $377 forward $354 $-1 #
coedge $-1 $249 $362 $356 $488 reversed $354 $-1 #
vertex $-1 $250 $498 #
straight-curve $-1 0 42.735320764823186 12.502366966267024 -1 0 0 I I #
coedge $-1 $251 $357 $253 $376 reversed $152 $-1 #
vertex $-1 $368 $499 #
straight-curve $-1 0 -42.735320764823186 12.502366966267024 1 0 0 I I #
edge $-1 $256 -12.502366966267024 $365 12.502366966267024 $253 $500 forward 7 unknown #
edge $-1 $257 -12.502366966267024 $364 12.502366966267024 $254 $501 forward 7 unknown #
point $-1 61.257972960600604 -42.735320764823186 12.502366966267024 #
point $-1 61.257972960600604 42.735320764823186 12.502366966267024 #
face $-1 $-1 $274 $37 $-1 $502 reversed single #
loop $-1 $-1 $270 $259 #
plane-surface $-1 0 -42.735320764823186 0 0 1 0 0 0 1 forward_v I I I I #
coedge $-1 $503 $504 $267 $393 forward $260 $-1 #
coedge $-1 $394 $262 $264 $389 reversed $160 $-1 #
edge $-1 $391 -2.315337755609141 $275 1.7743827120757167 $273 $505 forward 7 unknown #
coedge $-1 $264 $263 $506 $507 reversed $101 $-1 #
coedge $-1 $398 $397 $263 $388 forward $381 $-1 #
edge $-1 $508 -61.257972960600604 $390 61.257972960600604 $387 $509 forward 7 unknown #
edge $-1 $510 -61.257972960600604 $391 61.257972960600604 $384 $511 forward 7 unknown #
vertex $-1 $388 $512 #
vertex $-1 $266 $513 #
straight-curve $-1 61.257972960600604 -17.281604737100189 -2.5858152773758531 0 1 0 I I #
edge $-1 $399 -25.453716027722997 $395 -9.10949344647738 $383 $514 forward 7 unknown #
coedge $-1 $268 $384 $503 $515 reversed $160 $-1 #
vertex $-1 $393 $516 #
straight-curve $-1 0 -26.391098183577569 1.5039051903090046 -1 0 0 I I #
coedge $-1 $387 $270 $504 $517 forward $381 $-1 #
coedge $-1 $270 $387 $272 $401 reversed $381 $-1 #
vertex $-1 $517 $518 #
straight-curve $-1 0 -42.735320764823186 1.5039051903090046 -1 0 0 I I #
edge $-1 $276 -1.5039051903090046 $390 2.5858152773758531 $272 $519 forward 7 unknown #
point $-1 61.257972960600604 -26.391098183577569 1.5039051903090046 #
point $-1 61.257972960600604 -42.735320764823186 1.5039051903090046 #
plane-surface $-1 61.257972960600604 0 0 -1 0 0 0 0 1 forward_v I I I I #
coedge $-1 $415 $414 $407 $520 forward $279 $-1 #
coedge $-1 $407 $281 $283 $411 reversed $168 $-1 #
coedge $-1 $281 $406 $405 $520 reversed $168 $-1 #
coedge $-1 $289 $284 $281 $409 forward $290 $-1 #
edge $-1 $412 -81.660450286012122 $521 -76.96773151462321 $408 $522 forward 7 unknown #
coedge $-1 $283 $282 $415 $523 reversed $105 $-1 #
edge $-1 $524 114.53221599069688 $412 122.51594592120119 $406 $525 forward 7 unknown #
vertex $-1 $285 $526 #
straight-curve $-1 61.257972960600597 2.5228618974388581 7.8096481948781147 0 1 0 I I #
coedge $-1 $405 $286 $289 $419 forward $279 $-1 #
coedge $-1 $286 $405 $410 $523 forward $279 $-1 #
vertex $-1 $287 $527 #
straight-curve $-1 17.076779200005941 -4.9082737894353627 12.502366966267019 1 0 0 I I #
straight-curve $-1 -37.859508703144932 -4.9082737894353627 79.822715298034922 -0.80901698891910034 0 0.5877852598018023 I I #
edge $-1 $291 -4.9082737894353627 $521 14.999721379190795 $289 $528 forward 7 unknown #
point $-1 61.257972960600604 -4.9082737894353627 12.502366966267024 #
point $-1 61.257972960600604 -4.9082737894353627 7.8096481948781076 #
edge $-1 $529 1 $529 0 $294 $-1 forward 7 unknown #
vertex $-1 $295 $530 #
ellipse-curve $-1 56.47671320943428 -0.92667475571013114 8.0201750770343843 0.5877852598018023 0 0.80901698891910034 0.80901698891910034 0 -0.5877852598018023 1 I I #
point $-1 58.837503375159763 -0.92667475571013114 9.5682223207707668 #
edge $-1 $531 1 $531 0 $298 $-1 forward 7 unknown #
vertex $-1 $299 $532 #
ellipse-curve $-1 56.47671320943428 5.0457237948777163 8.0201750770343843 0.5877852598018023 0 0.80901698891910034 0.80901698891910034 0 -0.5877852598018023 1 I I #
point $-1 58.837503375159763 5.0457237948777163 9.5682223207707668 #
edge $-1 $533 1 $533 0 $302 $-1 forward 7 unknown #
vertex $-1 $303 $534 #
ellipse-curve $-1 56.47671320943428 11.018122345465564 8.0201750770343843 0.5877852598018023 0 0.80901698891910034 0.80901698891910034 0 -0.5877852598018023 1 I I #
point $-1 58.837503375159763 11.018122345465564 9.5682223207707668 #
plane-surface $-1 0 0 12.502366966267024 0 0 1 1 0 0 forward_v I I I I #
coedge $-1 $445 $444 $437 $535 forward $307 $-1 #
coedge $-1 $437 $309 $311 $441 reversed $197 $-1 #
coedge $-1 $309 $436 $435 $535 reversed $197 $-1 #
coedge $-1 $317 $312 $309 $439 forward $318 $-1 #
edge $-1 $442 -13.595107101008125 $536 -9.5598602668862256 $438 $537 forward 7 unknown #
coedge $-1 $311 $310 $445 $538 reversed $124 $-1 #
edge $-1 $539 8.85871892118899e-015 $442 5.3467545357147337 $436 $540 forward 7 unknown #
vertex $-1 $313 $541 #
straight-curve $-1 -57.222726126478712 1.2277822586453375 12.502366966267026 0 1 0 I I #
coedge $-1 $435 $314 $317 $449 reversed $307 $-1 #
coedge $-1 $314 $435 $440 $538 forward $307 $-1 #
vertex $-1 $315 $542 #
straight-curve $-1 -61.257972960600604 -1.2198947939791225 50.729268800876902 0 0 1 I I #
straight-curve $-1 -61.257972960600611 -1.2198947939791225 8.994580334657968 -0.75470957328743171 0 -0.6560590369687036 I I #
edge $-1 $536 -6.1310238285604726 $319 1.2198947939791225 $444 $543 forward 7 unknown #
point $-1 -61.257972960600604 -1.2198947939791225 12.502366966267024 #
point $-1 -57.222726126478705 -1.2198947939791225 12.502366966267024 #
edge $-1 $544 1 $544 0 $322 $-1 forward 7 unknown #
vertex $-1 $323 $545 #
ellipse-curve $-1 -57.083605764639181 0.88036766960362201 8.2674237977158747 -0.6560590369687036 0 0.75470957328743171 0.75470957328743171 0 0.6560590369687036 1 I I #
point $-1 -58.485639970252222 0.88036766960362201 11.404532687431209 #
edge $-1 $546 1 $546 0 $326 $-1 forward 7 unknown #
vertex $-1 $327 $547 #
ellipse-curve $-1 -57.083605764639181 4.0307613649777352 8.2674237977158747 -0.6560590369687036 0 0.75470957328743171 0.75470957328743171 0 0.6560590369687036 1 I I #
point $-1 -58.485639970252222 4.0307613649777352 11.404532687431209 #
loop $-1 $-1 $338 $330 #
plane-surface $-1 -61.257972960600604 0 0 1 0 0 0 0 -1 forward_v I I I I #
coedge $-1 $463 $333 $335 $467 reversed $219 $-1 #
coedge $-1 $333 $462 $548 $549 reversed $219 $-1 #
coedge $-1 $341 $336 $333 $465 forward $331 $-1 #
edge $-1 $468 -13.595107101008125 $550 -9.5598602668862256 $464 $551 forward 7 unknown #
coedge $-1 $335 $334 $471 $552 reversed $138 $-1 #
edge $-1 $553 8.85871892118899e-015 $468 5.3467545357147337 $462 $554 forward 7 unknown #
vertex $-1 $337 $555 #
straight-curve $-1 -57.222726126478712 6.9443290319774675 12.502366966267026 0 1 0 I I #
coedge $-1 $548 $338 $341 $475 reversed $460 $-1 #
coedge $-1 $338 $548 $466 $552 forward $460 $-1 #
vertex $-1 $339 $556 #
straight-curve $-1 -61.257972960600604 10.213198752685138 50.729268800876902 0 0 1 I I #
straight-curve $-1 -61.257972960600611 10.213198752685138 8.994580334657968 -0.75470957328743171 0 -0.6560590369687036 I I #
edge $-1 $550 -17.564117375224733 $342 -10.213198752685138 $470 $557 forward 7 unknown #
point $-1 -61.257972960600604 10.213198752685138 12.502366966267024 #
point $-1 -57.222726126478705 10.213198752685138 12.502366966267024 #
edge $-1 $558 1 $558 0 $345 $-1 forward 7 unknown #
vertex $-1 $346 $559 #
ellipse-curve $-1 -57.083605764639181 12.313461216267882 8.2674237977158747 -0.6560590369687036 0 0.75470957328743171 0.75470957328743171 0 0.6560590369687036 1 I I #
point $-1 -58.485639970252222 12.313461216267882 11.404532687431209 #
edge $-1 $560 1 $560 0 $349 $-1 forward 7 unknown #
vertex $-1 $350 $561 #
ellipse-curve $-1 -57.083605764639181 15.463854911641995 8.2674237977158747 -0.6560590369687036 0 0.75470957328743171 0.75470957328743171 0 0.6560590369687036 1 I I #
point $-1 -58.485639970252222 15.463854911641995 11.404532687431209 #
plane-surface $-1 61.257972960600604 0 0 -1 0 0 0 0 1 forward_v I I I I #
coedge $-1 $358 $356 $360 $491 reversed $241 $-1 #
edge $-1 $371 -12.502366966267024 $493 12.502366966267024 $370 $562 forward 7 unknown #
vertex $-1 $491 $563 #
straight-curve $-1 -61.257972960600604 -42.735320764823186 0 0 0 -1 I I #
edge $-1 $489 -42.735320764823186 $493 42.735320764823186 $487 $564 forward 7 unknown #
straight-curve $-1 0 -42.735320764823186 -12.502366966267024 -1 0 0 I I #
vertex $-1 $363 $565 #
straight-curve $-1 0 42.735320764823186 -12.502366966267024 1 0 0 I I #
point $-1 61.257972960600604 42.735320764823186 -12.502366966267024 #
point $-1 61.257972960600604 -42.735320764823186 -12.502366966267024 #
straight-curve $-1 -61.257972960600604 0 12.502366966267024 0 -1 0 I I #
point $-1 -61.257972960600604 42.735320764823186 12.502366966267024 #
point $-1 -61.257972960600604 -42.735320764823186 12.502366966267024 #
straight-curve $-1 61.257972960600604 -42.735320764823186 0 0 0 -1 I I #
straight-curve $-1 61.257972960600604 42.735320764823186 0 0 0 -1 I I #
plane-surface $-1 61.257972960600604 0 0 -1 0 0 0 0 1 forward_v I I I I #
coedge $-1 $506 $383 $394 $515 forward $260 $-1 #
coedge $-1 $383 $506 $397 $517 reversed $260 $-1 #
straight-curve $-1 61.257972960600604 -26.391098183577569 -0.27047752176671214 0 0 1 I I #
coedge $-1 $504 $503 $386 $507 forward $260 $-1 #
edge $-1 $510 9.10949344647738 $508 25.453716027722997 $506 $566 forward 7 unknown #
vertex $-1 $388 $567 #
straight-curve $-1 0 -42.735320764823186 -2.5858152773758531 1 0 0 I I #
vertex $-1 $507 $568 #
straight-curve $-1 0 -26.391098183577569 -2.5858152773758531 1 0 0 I I #
point $-1 61.257972960600604 -42.735320764823186 -2.5858152773758531 #
point $-1 61.257972960600604 -26.391098183577569 -2.5858152773758531 #
straight-curve $-1 -61.257972960600604 -17.281604737100189 1.5039051903090046 0 1 0 I I #
edge $-1 $395 -1.7743827120757167 $510 2.315337755609141 $503 $569 forward 7 unknown #
point $-1 -61.257972960600604 -26.391098183577569 1.5039051903090046 #
edge $-1 $399 -1.5039051903090046 $508 2.5858152773758531 $504 $570 forward 7 unknown #
point $-1 -61.257972960600604 -42.735320764823186 1.5039051903090046 #
straight-curve $-1 61.257972960600604 -42.735320764823186 0 0 0 -1 I I #
edge $-1 $521 -44.181193760594667 $524 -37.722220611874761 $405 $571 forward 7 unknown #
vertex $-1 $520 $572 #
straight-curve $-1 61.257972960600604 14.999721379190795 89.470098480890229 0 0 1 I I #
edge $-1 $524 -12.476859481751937 $416 7.4311356868742209 $415 $573 forward 7 unknown #
vertex $-1 $523 $574 #
straight-curve $-1 -37.859508703144932 14.999721379190795 79.822715298034922 0.80901698891910034 0 -0.5877852598018023 I I #
point $-1 61.257972960600604 14.999721379190795 7.8096481948781076 #
point $-1 54.798999811880698 -4.9082737894353627 12.502366966267019 #
straight-curve $-1 61.257972960600604 0 12.502366966267024 0 1 0 I I #
vertex $-1 $422 $575 #
point $-1 57.285730198353377 -0.92667475571013114 7.4323898172325817 #
vertex $-1 $426 $576 #
point $-1 57.285730198353377 5.0457237948777163 7.4323898172325817 #
vertex $-1 $430 $577 #
point $-1 57.285730198353377 11.018122345465564 7.4323898172325817 #
edge $-1 $536 38.226901834609876 $539 41.734688466218927 $435 $578 forward 7 unknown #
vertex $-1 $449 $579 #
straight-curve $-1 -70.81783322748683 6.1310238285604726 12.502366966267026 -1 0 0 I I #
edge $-1 $539 -4.903241569915135 $446 2.44767705262446 $445 $580 forward 7 unknown #
vertex $-1 $538 $581 #
straight-curve $-1 -61.257972960600611 6.1310238285604726 8.994580334657968 0.75470957328743171 0 0.6560590369687036 I I #
point $-1 -57.222726126478705 6.1310238285604726 12.502366966267024 #
point $-1 -61.257972960600604 -1.2198947939791225 8.9945803346579734 #
straight-curve $-1 -61.257972960600604 0 12.502366966267024 0 -1 0 I I #
vertex $-1 $452 $582 #
point $-1 -56.328896191351753 0.88036766960362201 8.9234828346845774 #
vertex $-1 $456 $583 #
point $-1 -56.328896191351753 4.0307613649777352 8.9234828346845774 #
coedge $-1 $471 $470 $463 $549 forward $460 $-1 #
edge $-1 $550 38.226901834609876 $553 41.734688466218927 $548 $584 forward 7 unknown #
vertex $-1 $475 $585 #
straight-curve $-1 -70.81783322748683 17.564117375224733 12.502366966267026 -1 0 0 I I #
edge $-1 $553 -10.619788343247265 $472 -3.26886972070767 $471 $586 forward 7 unknown #
vertex $-1 $552 $587 #
straight-curve $-1 -61.257972960600611 17.564117375224733 8.994580334657968 0.75470957328743171 0 0.6560590369687036 I I #
point $-1 -57.222726126478705 17.564117375224733 12.502366966267024 #
point $-1 -61.257972960600604 10.213198752685138 8.9945803346579734 #
straight-curve $-1 -61.257972960600604 0 12.502366966267024 0 -1 0 I I #
vertex $-1 $478 $588 #
point $-1 -56.328896191351753 12.313461216267882 8.9234828346845774 #
vertex $-1 $482 $589 #
point $-1 -56.328896191351753 15.463854911641995 8.9234828346845774 #
straight-curve $-1 -61.257972960600604 42.735320764823186 0 0 0 -1 I I #
point $-1 -61.257972960600604 -42.735320764823186 -12.502366966267024 #
straight-curve $-1 -61.257972960600604 0 -12.502366966267024 0 1 0 I I #
point $-1 -61.257972960600604 42.735320764823186 -12.502366966267024 #
straight-curve $-1 -61.257972960600604 -17.281604737100189 -2.5858152773758531 0 -1 0 I I #
point $-1 -61.257972960600604 -42.735320764823186 -2.5858152773758531 #
point $-1 -61.257972960600604 -26.391098183577569 -2.5858152773758531 #
straight-curve $-1 -61.257972960600604 -26.391098183577569 -0.27047752176671214 0 0 -1 I I #
straight-curve $-1 -61.257972960600604 -42.735320764823186 0 0 0 -1 I I #
straight-curve $-1 17.076779200005941 14.999721379190795 12.502366966267019 -1 0 0 I I #
point $-1 61.257972960600604 14.999721379190795 12.502366966267024 #
straight-curve $-1 54.798999811880691 2.5228618974388581 12.502366966267026 0 -1 0 I I #
point $-1 54.798999811880698 14.999721379190795 12.502366966267019 #
point $-1 55.888927949632475 -0.92667475571013114 7.2111580881152832 #
point $-1 55.888927949632475 5.0457237948777163 7.2111580881152832 #
point $-1 55.888927949632475 11.018122345465564 7.2111580881152832 #
straight-curve $-1 -61.257972960600604 6.1310238285604726 50.729268800876902 0 0 -1 I I #
point $-1 -61.257972960600604 6.1310238285604726 12.502366966267024 #
straight-curve $-1 -61.257972960600604 1.2277822586453375 8.9945803346579787 0 -1 0 I I #
point $-1 -61.257972960600604 6.1310238285604726 8.9945803346579734 #
point $-1 -56.427546727670482 0.88036766960362201 7.5127142244284428 #
point $-1 -56.427546727670482 4.0307613649777352 7.5127142244284428 #
straight-curve $-1 -61.257972960600604 17.564117375224733 50.729268800876902 0 0 -1 I I #
point $-1 -61.257972960600604 17.564117375224733 12.502366966267024 #
straight-curve $-1 -61.257972960600604 6.9443290319774675 8.9945803346579787 0 -1 0 I I #
point $-1 -61.257972960600604 17.564117375224733 8.9945803346579734 #
point $-1 -56.427546727670482 12.313461216267882 7.5127142244284428 #
point $-1 -56.427546727670482 15.463854911641995 7.5127142244284428 #
End-of-ACIS-data 