500 0 5 0           
7 Unknown 11 ACIS 5.0 NT 24 Fri Mar 26 18:30:06 1999 
-1 9.9999999999999995e-007 1e-010 
body $-1 $5 $-1 $6 #
body $-1 $7 $-1 $8 #
body $-1 $9 $-1 $10 #
body $-1 $11 $-1 $12 #
body $-1 $13 $-1 $14 #
lump $-1 $-1 $15 $0 #
transform $-1 1 0 0 0 1 0 0 0 1 47.456282235175635 30.10585297557968 6.6700170983464533 1 rotate no_reflect no_shear #
lump $-1 $-1 $16 $1 #
transform $-1 1 0 0 0 1 0 0 0 1 47.456282235175635 30.10585297557968 6.6700170983464533 1 rotate no_reflect no_shear #
lump $-1 $-1 $17 $2 #
transform $-1 1 0 0 0 1 0 0 0 1 47.456282235175635 30.10585297557968 6.6700170983464533 1 rotate no_reflect no_shear #
lump $-1 $-1 $18 $3 #
transform $-1 1 0 0 0 1 0 0 0 1 47.456282235175635 30.10585297557968 6.6700170983464533 1 rotate no_reflect no_shear #
lump $-1 $-1 $19 $4 #
transform $-1 1 0 0 0 1 0 0 0 1 47.456282235175635 30.10585297557968 6.6700170983464533 1 rotate no_reflect no_shear #
shell $-1 $-1 $-1 $20 $-1 $5 #
shell $-1 $-1 $-1 $21 $-1 $7 #
shell $-1 $-1 $-1 $22 $-1 $9 #
shell $-1 $-1 $-1 $23 $-1 $11 #
shell $-1 $-1 $-1 $24 $-1 $13 #
face $-1 $25 $26 $15 $-1 $27 forward single #
face $-1 $28 $29 $16 $-1 $30 reversed single #
face $-1 $31 $32 $17 $-1 $33 forward single #
face $-1 $34 $35 $18 $-1 $36 reversed single #
face $-1 $37 $38 $19 $-1 $39 reversed single #
face $-1 $40 $41 $15 $-1 $42 reversed single #
loop $-1 $-1 $43 $20 #
plane-surface $-1 0 0 6.6700170983464533 0 0 1 1 0 0 forward_v I I I I #
face $-1 $44 $45 $16 $-1 $46 forward single #
loop $-1 $-1 $47 $21 #
plane-surface $-1 0 -26.1134730919166 -3.392921078989187 0 0 1 1 0 0 forward_v I I I I #
face $-1 $48 $49 $17 $-1 $50 forward single #
loop $-1 $-1 $51 $22 #
plane-surface $-1 37.890293766187469 46.93174771292054 113.99039088102182 1 0 0 0 -0.6560590369687036 -0.75470957328743171 forward_v I I I I #
face $-1 $52 $53 $18 $-1 $54 reversed single #
loop $-1 $55 $56 $23 #
cone-surface $-1 40.62343332875551 27.158803013944521 3.8963636248266296 0 -0.6560590369687036 -0.75470957328743171 1 0 0 1 I I 0 1 1 forward I I I I #
face $-1 $57 $58 $19 $-1 $59 reversed single #
loop $-1 $60 $61 $24 #
cone-surface $-1 44.72314267260758 27.158803013944521 3.8963636248266296 0 -0.6560590369687036 -0.75470957328743171 1 0 0 1 I I 0 1 1 forward I I I I #
face $-1 $62 $63 $15 $-1 $64 reversed single #
loop $-1 $-1 $65 $25 #
plane-surface $-1 0 0 -6.6700170983464533 0 0 1 1 0 0 forward_v I I I I #
coedge $-1 $66 $67 $68 $69 forward $26 $-1 #
face $-1 $70 $71 $16 $-1 $72 reversed single #
loop $-1 $-1 $73 $28 #
plane-surface $-1 0 -22.121093208253519 -5.0314690886678202 0 -1 0 0 0 -1 forward_v I I I I #
coedge $-1 $74 $75 $76 $77 reversed $29 $-1 #
face $-1 $78 $79 $17 $-1 $80 forward single #
loop $-1 $-1 $81 $31 #
plane-surface $-1 42.673288000681552 -15.336497929728111 42.358969849987162 0 0.6560590369687036 0.75470957328743171 1 0 0 forward_v I I I I #
coedge $-1 $82 $83 $84 $85 reversed $32 $-1 #
face $-1 $86 $87 $18 $-1 $88 forward single #
loop $-1 $89 $90 $34 #
cone-surface $-1 40.62343332875551 26.077177558604596 2.6520958991229149 0 -0.6560590369687036 -0.75470957328743171 0.5 0 0 1 I I -0.70710678118654746 0.70710678118654746 0.5 forward I I I I #
loop $-1 $-1 $91 $23 #
coedge $-1 $56 $56 $92 $93 reversed $35 $-1 #
face $-1 $94 $95 $19 $-1 $96 reversed single #
loop $-1 $97 $98 $37 #
cone-surface $-1 44.72314267260758 26.077177558604596 2.6520958991229149 0 -0.6560590369687036 -0.75470957328743171 0.5 0 0 1 I I -0.70710678118654746 0.70710678118654746 0.5 forward I I I I #
loop $-1 $-1 $99 $24 #
coedge $-1 $61 $61 $100 $101 reversed $38 $-1 #
face $-1 $102 $103 $15 $-1 $104 reversed single #
loop $-1 $-1 $105 $40 #
plane-surface $-1 0 -30.10585297557968 0 0 1 0 0 0 1 forward_v I I I I #
coedge $-1 $106 $107 $108 $109 forward $41 $-1 #
coedge $-1 $110 $43 $111 $112 forward $26 $-1 #
coedge $-1 $43 $110 $113 $114 forward $26 $-1 #
coedge $-1 $115 $116 $43 $69 reversed $117 $-1 #
edge $-1 $118 -30.10585297557968 $119 30.10585297557968 $68 $120 forward 7 unknown #
face $-1 $121 $122 $16 $-1 $123 reversed single #
loop $-1 $-1 $124 $44 #
plane-surface $-1 0 -30.10585297557968 0 0 1 0 0 0 1 forward_v I I I I #
coedge $-1 $125 $126 $127 $128 reversed $45 $-1 #
coedge $-1 $129 $47 $124 $130 reversed $29 $-1 #
coedge $-1 $47 $129 $125 $131 reversed $29 $-1 #
coedge $-1 $127 $132 $47 $77 forward $133 $-1 #
edge $-1 $134 -17.049116429621378 $135 -9.0643566622952196 $76 $136 forward 7 unknown #
face $-1 $137 $138 $17 $-1 $139 reversed single #
loop $-1 $-1 $140 $48 #
plane-surface $-1 0 0 6.6700170983464533 0 0 1 1 0 0 forward_v I I I I #
coedge $-1 $141 $142 $140 $143 reversed $49 $-1 #
coedge $-1 $83 $51 $142 $144 forward $32 $-1 #
coedge $-1 $51 $82 $145 $146 reversed $32 $-1 #
coedge $-1 $147 $140 $51 $85 forward $79 $-1 #
edge $-1 $148 2.253071069560221 $149 6.6399791191194097 $84 $150 forward 7 unknown #
face $-1 $151 $152 $18 $-1 $153 forward single #
loop $-1 $-1 $154 $52 #
plane-surface $-1 37.890293766187469 46.93174771292054 113.99039088102182 1 0 0 0 -0.6560590369687036 -0.75470957328743171 forward_v I I I I #
loop $-1 $-1 $155 $34 #
coedge $-1 $90 $90 $91 $156 forward $53 $-1 #
coedge $-1 $91 $91 $90 $156 reversed $55 $-1 #
coedge $-1 $92 $92 $56 $93 forward $152 $-1 #
edge $-1 $157 2.3307899147393968e-015 $157 6.2831853071796031 $92 $158 forward 7 unknown #
face $-1 $159 $160 $19 $-1 $161 reversed single #
loop $-1 $162 $163 $57 #
cone-surface $-1 40.62343332875551 27.158803013944521 3.8963636248266296 0 -0.6560590369687036 -0.75470957328743171 1 0 0 1 I I 0 1 1 forward I I I I #
loop $-1 $-1 $164 $37 #
coedge $-1 $98 $98 $99 $165 forward $58 $-1 #
coedge $-1 $99 $99 $98 $165 reversed $60 $-1 #
coedge $-1 $100 $100 $61 $101 forward $166 $-1 #
edge $-1 $167 2.3307899147393968e-015 $167 6.2831853071796031 $100 $168 forward 7 unknown #
face $-1 $169 $170 $15 $-1 $171 reversed single #
loop $-1 $-1 $172 $62 #
plane-surface $-1 -47.456282235175635 0 0 1 0 0 0 0 -1 forward_v I I I I #
coedge $-1 $173 $113 $174 $175 forward $63 $-1 #
coedge $-1 $176 $65 $173 $177 forward $41 $-1 #
coedge $-1 $65 $176 $178 $179 forward $41 $-1 #
coedge $-1 $116 $115 $65 $109 reversed $117 $-1 #
edge $-1 $180 -30.10585297557968 $181 30.10585297557968 $108 $182 forward 7 unknown #
coedge $-1 $67 $66 $183 $184 forward $26 $-1 #
coedge $-1 $185 $186 $66 $112 reversed $170 $-1 #
edge $-1 $119 -47.456282235175635 $187 47.456282235175635 $111 $188 forward 7 unknown #
coedge $-1 $105 $189 $67 $114 reversed $63 $-1 #
edge $-1 $190 -47.456282235175635 $118 47.456282235175635 $113 $191 forward 7 unknown #
coedge $-1 $108 $68 $189 $192 forward $117 $-1 #
coedge $-1 $68 $108 $185 $193 reversed $117 $-1 #
loop $-1 $-1 $115 $169 #
vertex $-1 $69 $194 #
vertex $-1 $69 $195 #
straight-curve $-1 47.456282235175635 0 6.6700170983464533 0 1 0 I I #
face $-1 $196 $197 $16 $-1 $198 forward single #
loop $-1 $-1 $199 $70 #
plane-surface $-1 0 0 -6.6700170983464533 0 0 1 1 0 0 forward_v I I I I #
coedge $-1 $200 $201 $74 $130 forward $71 $-1 #
coedge $-1 $202 $73 $75 $131 forward $45 $-1 #
coedge $-1 $73 $202 $199 $203 reversed $45 $-1 #
coedge $-1 $204 $76 $73 $128 forward $133 $-1 #
edge $-1 $135 0.87718653465527696 $205 4.1542825540125428 $127 $206 forward 7 unknown #
coedge $-1 $75 $74 $207 $208 reversed $29 $-1 #
edge $-1 $209 -47.456282235175635 $134 47.456282235175635 $124 $210 forward 7 unknown #
edge $-1 $135 -47.456282235175635 $211 47.456282235175635 $125 $212 forward 7 unknown #
coedge $-1 $76 $213 $200 $214 forward $133 $-1 #
loop $-1 $-1 $127 $215 #
vertex $-1 $130 $216 #
vertex $-1 $77 $217 #
straight-curve $-1 47.456282235175635 -13.0567365459583 -3.392921078989187 0 1 0 I I #
face $-1 $218 $219 $17 $-1 $220 reversed single #
loop $-1 $-1 $145 $78 #
plane-surface $-1 0 30.10585297557968 0 0 -1 0 0 0 -1 forward_v I I I I #
coedge $-1 $84 $221 $81 $143 forward $79 $-1 #
coedge $-1 $222 $81 $223 $224 reversed $49 $-1 #
coedge $-1 $81 $222 $82 $144 reversed $49 $-1 #
edge $-1 $225 -26.119638234834859 $148 -16.553649765846693 $140 $226 forward 7 unknown #
edge $-1 $148 54.398995731451528 $227 60.21170595115936 $82 $228 forward 7 unknown #
coedge $-1 $229 $230 $83 $146 forward $138 $-1 #
edge $-1 $149 50.325178342164456 $227 54.13865941108412 $145 $231 forward 7 unknown #
coedge $-1 $232 $84 $230 $233 forward $79 $-1 #
vertex $-1 $143 $234 #
vertex $-1 $233 $235 #
straight-curve $-1 37.890293766187469 23.46587385646027 6.670017098346456 0 1 0 I I #
face $-1 $236 $237 $18 $-1 $238 forward single #
loop $-1 $239 $92 $86 #
plane-surface $-1 42.673288000681552 -15.336497929728111 42.358969849987162 0 0.6560590369687036 0.75470957328743171 1 0 0 forward_v I I I I #
coedge $-1 $240 $241 $242 $243 reversed $87 $-1 #
coedge $-1 $155 $155 $-1 $244 forward $89 $-1 #
edge $-1 $245 0 $245 6.2831853071796004 $90 $246 forward 7 unknown #
vertex $-1 $93 $247 #
ellipse-curve $-1 40.62343332875551 27.912398950800092 4.7632765638866257 0 -0.6560590369687036 -0.75470957328743171 1 0 0 1 I I #
face $-1 $248 $249 $19 $-1 $250 forward single #
loop $-1 $251 $252 $94 #
cone-surface $-1 40.62343332875551 26.077177558604596 2.6520958991229149 0 -0.6560590369687036 -0.75470957328743171 0.5 0 0 1 I I -0.70710678118654746 0.70710678118654746 0.5 forward I I I I #
loop $-1 $-1 $253 $57 #
coedge $-1 $163 $163 $254 $255 reversed $95 $-1 #
coedge $-1 $164 $164 $-1 $256 forward $97 $-1 #
edge $-1 $257 0 $257 6.2831853071796004 $98 $258 forward 7 unknown #
loop $-1 $259 $100 $248 #
vertex $-1 $101 $260 #
ellipse-curve $-1 44.72314267260758 27.912398950800092 4.7632765638866257 0 -0.6560590369687036 -0.75470957328743171 1 0 0 1 I I #
face $-1 $-1 $117 $15 $-1 $261 reversed single #
loop $-1 $-1 $185 $102 #
plane-surface $-1 0 30.10585297557968 0 0 -1 0 0 0 -1 forward_v I I I I #
coedge $-1 $262 $183 $186 $263 forward $103 $-1 #
coedge $-1 $189 $105 $106 $177 reversed $63 $-1 #
coedge $-1 $183 $262 $105 $175 reversed $103 $-1 #
edge $-1 $190 -6.6700170983464533 $264 6.6700170983464533 $174 $265 forward 7 unknown #
coedge $-1 $107 $106 $262 $266 forward $41 $-1 #
edge $-1 $181 -47.456282235175635 $264 47.456282235175635 $173 $267 forward 7 unknown #
coedge $-1 $186 $185 $107 $179 reversed $170 $-1 #
edge $-1 $268 -47.456282235175635 $180 47.456282235175635 $178 $269 forward 7 unknown #
vertex $-1 $109 $270 #
vertex $-1 $192 $271 #
straight-curve $-1 47.456282235175635 0 -6.6700170983464533 0 -1 0 I I #
coedge $-1 $172 $174 $110 $184 reversed $103 $-1 #
edge $-1 $187 -30.10585297557968 $190 30.10585297557968 $183 $272 forward 7 unknown #
coedge $-1 $178 $111 $116 $193 forward $170 $-1 #
coedge $-1 $111 $178 $172 $263 reversed $170 $-1 #
vertex $-1 $112 $273 #
straight-curve $-1 0 30.10585297557968 6.6700170983464533 -1 0 0 I I #
coedge $-1 $113 $173 $115 $192 reversed $63 $-1 #
vertex $-1 $184 $274 #
straight-curve $-1 0 -30.10585297557968 6.6700170983464533 1 0 0 I I #
edge $-1 $118 -6.6700170983464533 $181 6.6700170983464533 $115 $275 forward 7 unknown #
edge $-1 $119 -6.6700170983464533 $180 6.6700170983464533 $116 $276 forward 7 unknown #
point $-1 47.456282235175635 -30.10585297557968 6.6700170983464533 #
point $-1 47.456282235175635 30.10585297557968 6.6700170983464533 #
face $-1 $277 $278 $16 $-1 $279 reversed single #
loop $-1 $-1 $280 $121 #
plane-surface $-1 0 0 6.6700170983464533 0 0 1 1 0 0 forward_v I I I I #
coedge $-1 $281 $282 $126 $203 forward $122 $-1 #
coedge $-1 $283 $124 $132 $214 reversed $71 $-1 #
coedge $-1 $124 $283 $284 $285 forward $71 $-1 #
coedge $-1 $126 $125 $286 $287 reversed $45 $-1 #
edge $-1 $205 -47.456282235175635 $288 47.456282235175635 $199 $289 forward 7 unknown #
coedge $-1 $290 $127 $282 $291 reversed $133 $-1 #
vertex $-1 $203 $292 #
straight-curve $-1 47.456282235175635 -22.121093208253519 -2.5157345443339101 0 0 -1 I I #
coedge $-1 $284 $286 $129 $208 forward $278 $-1 #
edge $-1 $211 9.0643566622952196 $209 17.049116429621378 $207 $293 forward 7 unknown #
vertex $-1 $130 $294 #
straight-curve $-1 0 -30.10585297557968 -3.392921078989187 1 0 0 I I #
vertex $-1 $208 $295 #
straight-curve $-1 0 -22.121093208253519 -3.392921078989187 -1 0 0 I I #
coedge $-1 $132 $290 $280 $296 reversed $133 $-1 #
edge $-1 $297 -6.6700170983464533 $134 3.392921078989187 $132 $298 forward 7 unknown #
face $-1 $-1 $133 $16 $-1 $299 reversed single #
point $-1 47.456282235175635 -30.10585297557968 -3.392921078989187 #
point $-1 47.456282235175635 -22.121093208253519 -3.392921078989187 #
face $-1 $300 $301 $17 $-1 $302 forward single #
loop $-1 $-1 $303 $137 #
plane-surface $-1 0 -26.1134730919166 -3.392921078989187 0 0 1 1 0 0 forward_v I I I I #
coedge $-1 $140 $304 $305 $306 forward $79 $-1 #
coedge $-1 $142 $141 $229 $307 reversed $49 $-1 #
coedge $-1 $305 $308 $141 $224 forward $309 $-1 #
edge $-1 $310 -40.529412563640555 $225 -34.716702343932724 $223 $311 forward 7 unknown #
vertex $-1 $224 $312 #
straight-curve $-1 21.336644000340776 25.718944926020491 6.6700170983464524 -1 0 0 I I #
vertex $-1 $307 $313 #
straight-curve $-1 37.890293766187469 -15.336497929728111 42.358969849987162 0 0.75470957328743171 -0.6560590369687036 I I #
coedge $-1 $314 $145 $222 $307 forward $138 $-1 #
coedge $-1 $145 $315 $147 $233 reversed $138 $-1 #
straight-curve $-1 37.890293766187469 30.10585297557968 56.995195440510912 0 0 -1 I I #
coedge $-1 $304 $147 $316 $317 forward $79 $-1 #
edge $-1 $149 -37.890293766187469 $318 47.456282235175635 $230 $319 forward 7 unknown #
point $-1 37.890293766187469 25.718944926020491 6.670017098346456 #
point $-1 37.890293766187469 30.10585297557968 6.6700170983464533 #
face $-1 $320 $321 $18 $-1 $322 reversed single #
loop $-1 $-1 $323 $151 #
plane-surface $-1 0 0 6.6700170983464533 0 0 1 1 0 0 forward_v I I I I #
loop $-1 $-1 $324 $86 #
coedge $-1 $241 $154 $325 $326 forward $87 $-1 #
coedge $-1 $154 $240 $327 $328 reversed $87 $-1 #
coedge $-1 $329 $323 $154 $243 forward $237 $-1 #
edge $-1 $330 2.253071069560221 $331 6.6399791191194097 $242 $332 forward 7 unknown #
edge $-1 $333 1 $333 0 $155 $-1 forward 7 unknown #
vertex $-1 $156 $334 #
ellipse-curve $-1 40.62343332875551 26.405207077088949 3.0294506857666308 0 0.6560590369687036 0.75470957328743171 1 0 0 1 I I #
point $-1 41.62343332875551 27.912398950800092 4.7632765638866292 #
face $-1 $335 $166 $19 $-1 $336 forward single #
loop $-1 $-1 $337 $159 #
plane-surface $-1 37.890293766187469 46.93174771292054 113.99039088102182 1 0 0 0 -0.6560590369687036 -0.75470957328743171 forward_v I I I I #
loop $-1 $-1 $338 $94 #
coedge $-1 $252 $252 $253 $339 forward $160 $-1 #
coedge $-1 $253 $253 $252 $339 reversed $162 $-1 #
coedge $-1 $254 $254 $163 $255 forward $259 $-1 #
edge $-1 $340 2.3307899147393968e-015 $340 6.2831853071796031 $254 $341 forward 7 unknown #
edge $-1 $342 1 $342 0 $164 $-1 forward 7 unknown #
vertex $-1 $165 $343 #
ellipse-curve $-1 44.72314267260758 26.405207077088949 3.0294506857666308 0 0.6560590369687036 0.75470957328743171 1 0 0 1 I I #
loop $-1 $344 $254 $248 #
point $-1 45.72314267260758 27.912398950800092 4.7632765638866292 #
plane-surface $-1 47.456282235175635 0 0 -1 0 0 0 0 1 forward_v I I I I #
coedge $-1 $174 $172 $176 $266 reversed $103 $-1 #
edge $-1 $187 -6.6700170983464533 $268 6.6700170983464533 $186 $345 forward 7 unknown #
vertex $-1 $266 $346 #
straight-curve $-1 -47.456282235175635 -30.10585297557968 0 0 0 -1 I I #
edge $-1 $264 -30.10585297557968 $268 30.10585297557968 $262 $347 forward 7 unknown #
straight-curve $-1 0 -30.10585297557968 -6.6700170983464533 -1 0 0 I I #
vertex $-1 $179 $348 #
straight-curve $-1 0 30.10585297557968 -6.6700170983464533 1 0 0 I I #
point $-1 47.456282235175635 30.10585297557968 -6.6700170983464533 #
point $-1 47.456282235175635 -30.10585297557968 -6.6700170983464533 #
straight-curve $-1 -47.456282235175635 0 6.6700170983464533 0 -1 0 I I #
point $-1 -47.456282235175635 30.10585297557968 6.6700170983464533 #
point $-1 -47.456282235175635 -30.10585297557968 6.6700170983464533 #
straight-curve $-1 47.456282235175635 -30.10585297557968 0 0 0 -1 I I #
straight-curve $-1 47.456282235175635 30.10585297557968 0 0 0 -1 I I #
face $-1 $215 $349 $16 $-1 $350 reversed single #
loop $-1 $-1 $207 $196 #
plane-surface $-1 -47.456282235175635 0 0 1 0 0 0 0 -1 forward_v I I I I #
coedge $-1 $351 $352 $213 $296 forward $197 $-1 #
coedge $-1 $353 $199 $354 $355 forward $122 $-1 #
coedge $-1 $199 $353 $204 $291 forward $122 $-1 #
coedge $-1 $201 $200 $352 $356 reversed $71 $-1 #
coedge $-1 $357 $207 $201 $285 reversed $278 $-1 #
edge $-1 $358 -6.6700170983464533 $209 3.392921078989187 $284 $359 forward 7 unknown #
coedge $-1 $207 $354 $202 $287 forward $278 $-1 #
edge $-1 $288 -4.1542825540125428 $211 -0.87718653465527696 $286 $360 forward 7 unknown #
vertex $-1 $355 $361 #
straight-curve $-1 0 -22.121093208253519 -6.6700170983464533 -1 0 0 I I #
coedge $-1 $213 $204 $362 $363 reversed $133 $-1 #
edge $-1 $364 -30.10585297557968 $205 22.121093208253519 $204 $365 forward 7 unknown #
point $-1 47.456282235175635 -22.121093208253519 -6.6700170983464533 #
straight-curve $-1 -47.456282235175635 -13.0567365459583 -3.392921078989187 0 -1 0 I I #
point $-1 -47.456282235175635 -30.10585297557968 -3.392921078989187 #
point $-1 -47.456282235175635 -22.121093208253519 -3.392921078989187 #
edge $-1 $297 -30.10585297557968 $366 30.10585297557968 $213 $367 forward 7 unknown #
vertex $-1 $296 $368 #
straight-curve $-1 47.456282235175635 -30.10585297557968 0 0 0 -1 I I #
plane-surface $-1 47.456282235175635 0 0 -1 0 0 0 0 1 forward_v I I I I #
face $-1 $369 $370 $17 $-1 $371 reversed single #
loop $-1 $-1 $372 $218 #
plane-surface $-1 0 -22.121093208253519 -5.0314690886678202 0 -1 0 0 0 -1 forward_v I I I I #
coedge $-1 $373 $374 $375 $376 reversed $219 $-1 #
coedge $-1 $221 $232 $377 $378 forward $79 $-1 #
coedge $-1 $379 $223 $221 $306 reversed $309 $-1 #
edge $-1 $380 -30.10585297557968 $225 25.718944926020491 $305 $381 forward 7 unknown #
edge $-1 $227 16.553649765846693 $310 26.119638234834859 $229 $382 forward 7 unknown #
coedge $-1 $223 $383 $314 $384 reversed $309 $-1 #
loop $-1 $-1 $223 $385 #
vertex $-1 $384 $386 #
straight-curve $-1 47.456282235175635 -0.48208268591575454 29.44622340483609 0 -0.75470957328743171 0.6560590369687036 I I #
point $-1 47.456282235175635 25.718944926020491 6.670017098346456 #
point $-1 37.890293766187469 30.10585297557968 2.8565360294267919 #
coedge $-1 $387 $229 $308 $384 forward $138 $-1 #
coedge $-1 $230 $387 $388 $389 reversed $138 $-1 #
coedge $-1 $388 $390 $232 $317 reversed $391 $-1 #
edge $-1 $318 -30.10585297557968 $392 30.10585297557968 $316 $393 forward 7 unknown #
vertex $-1 $233 $394 #
straight-curve $-1 0 30.10585297557968 6.6700170983464533 -1 0 0 I I #
face $-1 $395 $396 $18 $-1 $397 reversed single #
loop $-1 $-1 $327 $236 #
plane-surface $-1 0 30.10585297557968 0 0 -1 0 0 0 -1 forward_v I I I I #
coedge $-1 $242 $398 $324 $399 forward $237 $-1 #
coedge $-1 $400 $325 $323 $399 reversed $239 $-1 #
coedge $-1 $324 $401 $240 $326 reversed $239 $-1 #
edge $-1 $330 54.398995731451528 $402 60.21170595115936 $240 $403 forward 7 unknown #
coedge $-1 $404 $405 $241 $328 forward $321 $-1 #
edge $-1 $331 50.325178342164456 $402 54.13865941108412 $327 $406 forward 7 unknown #
coedge $-1 $407 $242 $405 $408 forward $237 $-1 #
vertex $-1 $399 $409 #
vertex $-1 $408 $410 #
straight-curve $-1 37.890293766187469 23.46587385646027 6.670017098346456 0 1 0 I I #
vertex $-1 $244 $411 #
point $-1 41.62343332875551 26.405207077088949 3.0294506857666308 #
face $-1 $412 $413 $19 $-1 $414 forward single #
plane-surface $-1 42.673288000681552 -15.336497929728111 42.358969849987162 0 0.6560590369687036 0.75470957328743171 1 0 0 forward_v I I I I #
coedge $-1 $415 $416 $417 $418 reversed $249 $-1 #
coedge $-1 $338 $338 $-1 $419 forward $251 $-1 #
edge $-1 $420 0 $420 6.2831853071796004 $252 $421 forward 7 unknown #
vertex $-1 $255 $422 #
ellipse-curve $-1 40.62343332875551 27.912398950800092 4.7632765638866257 0 -0.6560590369687036 -0.75470957328743171 1 0 0 1 I I #
vertex $-1 $256 $423 #
point $-1 45.72314267260758 26.405207077088949 3.0294506857666308 #
loop $-1 $-1 $424 $248 #
straight-curve $-1 -47.456282235175635 30.10585297557968 0 0 0 -1 I I #
point $-1 -47.456282235175635 -30.10585297557968 -6.6700170983464533 #
straight-curve $-1 -47.456282235175635 0 -6.6700170983464533 0 1 0 I I #
point $-1 -47.456282235175635 30.10585297557968 -6.6700170983464533 #
loop $-1 $-1 $362 $277 #
plane-surface $-1 0 30.10585297557968 0 0 -1 0 0 0 -1 forward_v I I I I #
coedge $-1 $425 $280 $426 $427 forward $197 $-1 #
coedge $-1 $280 $425 $283 $356 forward $197 $-1 #
coedge $-1 $282 $281 $428 $429 forward $122 $-1 #
coedge $-1 $286 $430 $281 $355 reversed $278 $-1 #
edge $-1 $288 -22.121093208253519 $431 30.10585297557968 $354 $432 forward 7 unknown #
edge $-1 $358 -47.456282235175635 $297 47.456282235175635 $283 $433 forward 7 unknown #
coedge $-1 $430 $284 $425 $434 reversed $278 $-1 #
vertex $-1 $434 $435 #
straight-curve $-1 -47.456282235175635 -30.10585297557968 0 0 0 -1 I I #
straight-curve $-1 -47.456282235175635 -22.121093208253519 -2.5157345443339101 0 0 1 I I #
point $-1 -47.456282235175635 -22.121093208253519 -6.6700170983464533 #
coedge $-1 $428 $426 $290 $363 forward $349 $-1 #
edge $-1 $366 -6.6700170983464533 $364 6.6700170983464533 $290 $436 forward 7 unknown #
vertex $-1 $291 $437 #
straight-curve $-1 47.456282235175635 0 -6.6700170983464533 0 -1 0 I I #
vertex $-1 $296 $438 #
straight-curve $-1 47.456282235175635 0 6.6700170983464533 0 1 0 I I #
point $-1 47.456282235175635 -30.10585297557968 6.6700170983464533 #
face $-1 $439 $440 $17 $-1 $441 reversed single #
loop $-1 $-1 $442 $300 #
plane-surface $-1 0 -30.10585297557968 0 0 1 0 0 0 1 forward_v I I I I #
coedge $-1 $443 $444 $445 $446 reversed $301 $-1 #
coedge $-1 $447 $303 $442 $448 reversed $219 $-1 #
coedge $-1 $303 $447 $443 $449 reversed $219 $-1 #
coedge $-1 $445 $379 $303 $376 forward $309 $-1 #
edge $-1 $450 -17.049116429621378 $451 -9.0643566622952196 $375 $452 forward 7 unknown #
coedge $-1 $453 $454 $304 $378 reversed $370 $-1 #
edge $-1 $392 -47.456282235175635 $380 47.456282235175635 $377 $455 forward 7 unknown #
coedge $-1 $375 $305 $454 $456 forward $309 $-1 #
vertex $-1 $306 $457 #
straight-curve $-1 47.456282235175635 0 6.6700170983464533 0 1 0 I I #
straight-curve $-1 21.336644000340776 30.10585297557968 2.8565360294267954 1 0 0 I I #
coedge $-1 $308 $445 $458 $459 reversed $309 $-1 #
edge $-1 $310 -2.8565360294267919 $460 6.6700170983464533 $308 $461 forward 7 unknown #
face $-1 $-1 $309 $17 $-1 $462 reversed single #
point $-1 47.456282235175635 30.10585297557968 2.8565360294267919 #
coedge $-1 $315 $314 $463 $464 reversed $138 $-1 #
coedge $-1 $465 $316 $315 $389 forward $391 $-1 #
edge $-1 $318 -6.6700170983464533 $466 6.6700170983464533 $315 $467 forward 7 unknown #
coedge $-1 $316 $468 $453 $469 reversed $391 $-1 #
loop $-1 $-1 $468 $439 #
vertex $-1 $317 $470 #
straight-curve $-1 -47.456282235175635 0 6.6700170983464533 0 -1 0 I I #
point $-1 -47.456282235175635 30.10585297557968 6.6700170983464533 #
face $-1 $471 $472 $18 $-1 $473 forward single #
loop $-1 $-1 $474 $320 #
plane-surface $-1 0 -26.1134730919166 -3.392921078989187 0 0 1 1 0 0 forward_v I I I I #
coedge $-1 $323 $475 $476 $477 forward $237 $-1 #
edge $-1 $478 -26.119638234834859 $330 -16.553649765846693 $323 $479 forward 7 unknown #
coedge $-1 $401 $324 $480 $481 reversed $239 $-1 #
coedge $-1 $325 $400 $404 $482 reversed $239 $-1 #
vertex $-1 $482 $483 #
straight-curve $-1 37.890293766187469 -15.336497929728111 42.358969849987162 0 0.75470957328743171 -0.6560590369687036 I I #
coedge $-1 $484 $327 $401 $482 forward $321 $-1 #
coedge $-1 $327 $485 $329 $408 reversed $321 $-1 #
straight-curve $-1 37.890293766187469 30.10585297557968 56.995195440510912 0 0 -1 I I #
coedge $-1 $475 $329 $486 $487 forward $237 $-1 #
edge $-1 $331 -37.890293766187469 $488 47.456282235175635 $405 $489 forward 7 unknown #
point $-1 37.890293766187469 25.718944926020491 6.670017098346456 #
point $-1 37.890293766187469 30.10585297557968 6.6700170983464533 #
point $-1 40.62343332875551 25.749148040120243 2.274741112479199 #
face $-1 $490 $491 $19 $-1 $492 reversed single #
loop $-1 $-1 $493 $335 #
plane-surface $-1 0 0 6.6700170983464533 0 0 1 1 0 0 forward_v I I I I #
coedge $-1 $416 $337 $494 $495 forward $249 $-1 #
coedge $-1 $337 $415 $496 $497 reversed $249 $-1 #
coedge $-1 $498 $493 $337 $418 forward $413 $-1 #
edge $-1 $499 2.253071069560221 $500 6.6399791191194097 $417 $501 forward 7 unknown #
edge $-1 $502 1 $502 0 $338 $-1 forward 7 unknown #
vertex $-1 $339 $503 #
ellipse-curve $-1 40.62343332875551 26.405207077088949 3.0294506857666308 0 0.6560590369687036 0.75470957328743171 1 0 0 1 I I #
point $-1 41.62343332875551 27.912398950800092 4.7632765638866292 #
point $-1 44.72314267260758 25.749148040120243 2.274741112479199 #
coedge $-1 $504 $494 $493 $505 reversed $344 $-1 #
coedge $-1 $352 $351 $357 $434 forward $197 $-1 #
coedge $-1 $362 $506 $351 $427 reversed $349 $-1 #
edge $-1 $366 -47.456282235175635 $507 47.456282235175635 $426 $508 forward 7 unknown #
coedge $-1 $506 $362 $353 $429 reversed $349 $-1 #
edge $-1 $431 -47.456282235175635 $364 47.456282235175635 $428 $509 forward 7 unknown #
coedge $-1 $354 $357 $506 $510 forward $278 $-1 #
vertex $-1 $429 $511 #
straight-curve $-1 -47.456282235175635 0 -6.6700170983464533 0 1 0 I I #
straight-curve $-1 0 -30.10585297557968 6.6700170983464533 1 0 0 I I #
edge $-1 $507 -30.10585297557968 $358 30.10585297557968 $357 $512 forward 7 unknown #
point $-1 -47.456282235175635 -30.10585297557968 6.6700170983464533 #
straight-curve $-1 47.456282235175635 30.10585297557968 0 0 0 -1 I I #
point $-1 47.456282235175635 30.10585297557968 -6.6700170983464533 #
point $-1 47.456282235175635 30.10585297557968 6.6700170983464533 #
face $-1 $385 $391 $17 $-1 $513 reversed single #
loop $-1 $-1 $514 $369 #
plane-surface $-1 0 0 -6.6700170983464533 0 0 1 1 0 0 forward_v I I I I #
coedge $-1 $454 $453 $373 $448 forward $370 $-1 #
coedge $-1 $515 $372 $374 $449 forward $301 $-1 #
coedge $-1 $372 $515 $514 $516 reversed $301 $-1 #
coedge $-1 $383 $375 $372 $446 forward $309 $-1 #
edge $-1 $451 0.87718653465527696 $517 4.1542825540125428 $445 $518 forward 7 unknown #
coedge $-1 $374 $373 $468 $519 reversed $219 $-1 #
edge $-1 $520 -47.456282235175635 $450 47.456282235175635 $442 $521 forward 7 unknown #
edge $-1 $451 -47.456282235175635 $522 47.456282235175635 $443 $523 forward 7 unknown #
vertex $-1 $448 $524 #
vertex $-1 $376 $525 #
straight-curve $-1 47.456282235175635 -13.0567365459583 -3.392921078989187 0 1 0 I I #
coedge $-1 $442 $377 $390 $469 forward $370 $-1 #
coedge $-1 $377 $442 $379 $456 reversed $370 $-1 #
straight-curve $-1 0 -30.10585297557968 6.6700170983464533 1 0 0 I I #
edge $-1 $380 -6.6700170983464533 $450 3.392921078989187 $379 $526 forward 7 unknown #
point $-1 47.456282235175635 -30.10585297557968 6.6700170983464533 #
coedge $-1 $514 $463 $383 $459 forward $440 $-1 #
edge $-1 $460 -30.10585297557968 $517 22.121093208253519 $383 $527 forward 7 unknown #
vertex $-1 $459 $528 #
straight-curve $-1 47.456282235175635 30.10585297557968 0 0 0 -1 I I #
plane-surface $-1 47.456282235175635 0 0 -1 0 0 0 0 1 forward_v I I I I #
coedge $-1 $458 $529 $387 $464 forward $440 $-1 #
edge $-1 $466 -47.456282235175635 $460 47.456282235175635 $387 $530 forward 7 unknown #
coedge $-1 $531 $388 $529 $532 reversed $391 $-1 #
vertex $-1 $464 $533 #
straight-curve $-1 -47.456282235175635 30.10585297557968 0 0 0 -1 I I #
coedge $-1 $390 $531 $447 $519 forward $391 $-1 #
edge $-1 $392 -6.6700170983464533 $520 3.392921078989187 $390 $534 forward 7 unknown #
point $-1 -47.456282235175635 -30.10585297557968 6.6700170983464533 #
face $-1 $535 $536 $18 $-1 $537 reversed single #
loop $-1 $-1 $538 $395 #
plane-surface $-1 0 -22.121093208253519 -5.0314690886678202 0 -1 0 0 0 -1 forward_v I I I I #
coedge $-1 $539 $540 $541 $542 reversed $396 $-1 #
coedge $-1 $398 $407 $543 $544 forward $237 $-1 #
coedge $-1 $545 $480 $398 $477 reversed $546 $-1 #
edge $-1 $547 -30.10585297557968 $478 25.718944926020491 $476 $548 forward 7 unknown #
vertex $-1 $481 $549 #
straight-curve $-1 21.336644000340776 25.718944926020491 6.6700170983464524 -1 0 0 I I #
coedge $-1 $476 $550 $400 $481 forward $546 $-1 #
edge $-1 $551 -40.529412563640555 $478 -34.716702343932724 $480 $552 forward 7 unknown #
edge $-1 $402 16.553649765846693 $551 26.119638234834859 $404 $553 forward 7 unknown #
point $-1 37.890293766187469 30.10585297557968 2.8565360294267919 #
coedge $-1 $554 $404 $550 $555 forward $321 $-1 #
coedge $-1 $405 $554 $556 $557 reversed $321 $-1 #
coedge $-1 $556 $558 $407 $487 reversed $559 $-1 #
edge $-1 $488 -30.10585297557968 $560 30.10585297557968 $486 $561 forward 7 unknown #
vertex $-1 $408 $562 #
straight-curve $-1 0 30.10585297557968 6.6700170983464533 -1 0 0 I I #
face $-1 $563 $564 $19 $-1 $565 reversed single #
loop $-1 $-1 $496 $412 #
plane-surface $-1 0 30.10585297557968 0 0 -1 0 0 0 -1 forward_v I I I I #
coedge $-1 $417 $566 $424 $505 forward $413 $-1 #
coedge $-1 $424 $567 $415 $495 reversed $344 $-1 #
edge $-1 $499 54.398995731451528 $568 60.21170595115936 $415 $569 forward 7 unknown #
coedge $-1 $570 $571 $416 $497 forward $491 $-1 #
edge $-1 $500 50.325178342164456 $568 54.13865941108412 $496 $572 forward 7 unknown #
coedge $-1 $573 $417 $571 $574 forward $413 $-1 #
vertex $-1 $505 $575 #
vertex $-1 $574 $576 #
straight-curve $-1 37.890293766187469 23.46587385646027 6.670017098346456 0 1 0 I I #
vertex $-1 $419 $577 #
point $-1 41.62343332875551 26.405207077088949 3.0294506857666308 #
coedge $-1 $567 $424 $578 $579 reversed $344 $-1 #
edge $-1 $580 -26.119638234834859 $499 -16.553649765846693 $493 $581 forward 7 unknown #
coedge $-1 $426 $428 $430 $510 reversed $349 $-1 #
vertex $-1 $427 $582 #
straight-curve $-1 0 30.10585297557968 6.6700170983464533 -1 0 0 I I #
straight-curve $-1 0 30.10585297557968 -6.6700170983464533 1 0 0 I I #
edge $-1 $507 -6.6700170983464533 $431 6.6700170983464533 $506 $583 forward 7 unknown #
point $-1 -47.456282235175635 30.10585297557968 -6.6700170983464533 #
straight-curve $-1 -47.456282235175635 0 6.6700170983464533 0 -1 0 I I #
plane-surface $-1 -47.456282235175635 0 0 1 0 0 0 0 -1 forward_v I I I I #
coedge $-1 $529 $458 $444 $516 forward $440 $-1 #
coedge $-1 $444 $443 $531 $584 reversed $301 $-1 #
edge $-1 $517 -47.456282235175635 $585 47.456282235175635 $514 $586 forward 7 unknown #
vertex $-1 $516 $587 #
straight-curve $-1 47.456282235175635 -22.121093208253519 -2.5157345443339101 0 0 -1 I I #
edge $-1 $522 9.0643566622952196 $520 17.049116429621378 $468 $588 forward 7 unknown #
vertex $-1 $448 $589 #
straight-curve $-1 0 -30.10585297557968 -3.392921078989187 1 0 0 I I #
vertex $-1 $519 $590 #
straight-curve $-1 0 -22.121093208253519 -3.392921078989187 -1 0 0 I I #
point $-1 47.456282235175635 -30.10585297557968 -3.392921078989187 #
point $-1 47.456282235175635 -22.121093208253519 -3.392921078989187 #
straight-curve $-1 47.456282235175635 -30.10585297557968 0 0 0 -1 I I #
straight-curve $-1 47.456282235175635 0 -6.6700170983464533 0 -1 0 I I #
point $-1 47.456282235175635 30.10585297557968 -6.6700170983464533 #
coedge $-1 $463 $514 $465 $532 forward $440 $-1 #
straight-curve $-1 0 30.10585297557968 -6.6700170983464533 1 0 0 I I #
coedge $-1 $468 $465 $515 $584 forward $391 $-1 #
edge $-1 $585 -22.121093208253519 $466 30.10585297557968 $465 $591 forward 7 unknown #
point $-1 -47.456282235175635 30.10585297557968 -6.6700170983464533 #
straight-curve $-1 -47.456282235175635 -30.10585297557968 0 0 0 -1 I I #
face $-1 $592 $593 $18 $-1 $594 reversed single #
loop $-1 $-1 $595 $471 #
plane-surface $-1 0 -30.10585297557968 0 0 1 0 0 0 1 forward_v I I I I #
coedge $-1 $596 $597 $598 $599 reversed $472 $-1 #
coedge $-1 $600 $474 $595 $601 reversed $396 $-1 #
coedge $-1 $474 $600 $596 $602 reversed $396 $-1 #
coedge $-1 $598 $545 $474 $542 forward $546 $-1 #
edge $-1 $603 -17.049116429621378 $604 -9.0643566622952196 $541 $605 forward 7 unknown #
coedge $-1 $606 $607 $475 $544 reversed $536 $-1 #
edge $-1 $560 -47.456282235175635 $547 47.456282235175635 $543 $608 forward 7 unknown #
coedge $-1 $541 $476 $607 $609 forward $546 $-1 #
loop $-1 $-1 $480 $610 #
vertex $-1 $477 $611 #
straight-curve $-1 47.456282235175635 0 6.6700170983464533 0 1 0 I I #
point $-1 47.456282235175635 25.718944926020491 6.670017098346456 #
coedge $-1 $480 $612 $484 $555 reversed $546 $-1 #
vertex $-1 $555 $613 #
straight-curve $-1 47.456282235175635 -0.48208268591575454 29.44622340483609 0 -0.75470957328743171 0.6560590369687036 I I #
straight-curve $-1 21.336644000340776 30.10585297557968 2.8565360294267954 1 0 0 I I #
coedge $-1 $485 $484 $614 $615 reversed $321 $-1 #
edge $-1 $551 -2.8565360294267919 $616 6.6700170983464533 $550 $617 forward 7 unknown #
coedge $-1 $618 $486 $485 $557 forward $559 $-1 #
edge $-1 $488 -6.6700170983464533 $619 6.6700170983464533 $485 $620 forward 7 unknown #
coedge $-1 $486 $621 $606 $622 reversed $559 $-1 #
loop $-1 $-1 $621 $592 #
vertex $-1 $487 $623 #
straight-curve $-1 -47.456282235175635 0 6.6700170983464533 0 -1 0 I I #
point $-1 -47.456282235175635 30.10585297557968 6.6700170983464533 #
face $-1 $624 $625 $19 $-1 $626 forward single #
loop $-1 $-1 $627 $490 #
plane-surface $-1 0 -26.1134730919166 -3.392921078989187 0 0 1 1 0 0 forward_v I I I I #
coedge $-1 $493 $628 $629 $630 forward $413 $-1 #
coedge $-1 $494 $504 $570 $631 reversed $344 $-1 #
vertex $-1 $631 $632 #
straight-curve $-1 37.890293766187469 -15.336497929728111 42.358969849987162 0 0.75470957328743171 -0.6560590369687036 I I #
coedge $-1 $633 $496 $567 $631 forward $491 $-1 #
coedge $-1 $496 $634 $498 $574 reversed $491 $-1 #
straight-curve $-1 37.890293766187469 30.10585297557968 56.995195440510912 0 0 -1 I I #
coedge $-1 $628 $498 $635 $636 forward $413 $-1 #
edge $-1 $500 -37.890293766187469 $637 47.456282235175635 $571 $638 forward 7 unknown #
point $-1 37.890293766187469 25.718944926020491 6.670017098346456 #
point $-1 37.890293766187469 30.10585297557968 6.6700170983464533 #
point $-1 40.62343332875551 25.749148040120243 2.274741112479199 #
coedge $-1 $629 $639 $504 $579 forward $640 $-1 #
edge $-1 $641 -40.529412563640555 $580 -34.716702343932724 $578 $642 forward 7 unknown #
vertex $-1 $579 $643 #
straight-curve $-1 21.336644000340776 25.718944926020491 6.6700170983464524 -1 0 0 I I #
point $-1 -47.456282235175635 30.10585297557968 6.6700170983464533 #
straight-curve $-1 -47.456282235175635 30.10585297557968 0 0 0 -1 I I #
edge $-1 $585 -4.1542825540125428 $522 -0.87718653465527696 $531 $644 forward 7 unknown #
vertex $-1 $532 $645 #
straight-curve $-1 0 -22.121093208253519 -6.6700170983464533 -1 0 0 I I #
point $-1 47.456282235175635 -22.121093208253519 -6.6700170983464533 #
straight-curve $-1 -47.456282235175635 -13.0567365459583 -3.392921078989187 0 -1 0 I I #
point $-1 -47.456282235175635 -30.10585297557968 -3.392921078989187 #
point $-1 -47.456282235175635 -22.121093208253519 -3.392921078989187 #
straight-curve $-1 -47.456282235175635 0 -6.6700170983464533 0 1 0 I I #
face $-1 $610 $559 $18 $-1 $646 reversed single #
loop $-1 $-1 $647 $535 #
plane-surface $-1 0 0 -6.6700170983464533 0 0 1 1 0 0 forward_v I I I I #
coedge $-1 $607 $606 $539 $601 forward $536 $-1 #
coedge $-1 $648 $538 $540 $602 forward $472 $-1 #
coedge $-1 $538 $648 $647 $649 reversed $472 $-1 #
coedge $-1 $612 $541 $538 $599 forward $546 $-1 #
edge $-1 $604 0.87718653465527696 $650 4.1542825540125428 $598 $651 forward 7 unknown #
coedge $-1 $540 $539 $621 $652 reversed $396 $-1 #
edge $-1 $653 -47.456282235175635 $603 47.456282235175635 $595 $654 forward 7 unknown #
edge $-1 $604 -47.456282235175635 $655 47.456282235175635 $596 $656 forward 7 unknown #
vertex $-1 $601 $657 #
vertex $-1 $542 $658 #
straight-curve $-1 47.456282235175635 -13.0567365459583 -3.392921078989187 0 1 0 I I #
coedge $-1 $595 $543 $558 $622 forward $536 $-1 #
coedge $-1 $543 $595 $545 $609 reversed $536 $-1 #
straight-curve $-1 0 -30.10585297557968 6.6700170983464533 1 0 0 I I #
edge $-1 $547 -6.6700170983464533 $603 3.392921078989187 $545 $659 forward 7 unknown #
face $-1 $-1 $546 $18 $-1 $660 reversed single #
point $-1 47.456282235175635 -30.10585297557968 6.6700170983464533 #
coedge $-1 $550 $598 $661 $662 reversed $546 $-1 #
point $-1 47.456282235175635 30.10585297557968 2.8565360294267919 #
coedge $-1 $661 $663 $554 $615 forward $593 $-1 #
edge $-1 $619 -47.456282235175635 $616 47.456282235175635 $554 $664 forward 7 unknown #
vertex $-1 $662 $665 #
straight-curve $-1 47.456282235175635 30.10585297557968 0 0 0 -1 I I #
coedge $-1 $666 $556 $663 $667 reversed $559 $-1 #
vertex $-1 $615 $668 #
straight-curve $-1 -47.456282235175635 30.10585297557968 0 0 0 -1 I I #
coedge $-1 $558 $666 $600 $652 forward $559 $-1 #
edge $-1 $560 -6.6700170983464533 $653 3.392921078989187 $558 $669 forward 7 unknown #
point $-1 -47.456282235175635 -30.10585297557968 6.6700170983464533 #
face $-1 $670 $671 $19 $-1 $672 reversed single #
loop $-1 $-1 $673 $563 #
plane-surface $-1 0 -22.121093208253519 -5.0314690886678202 0 -1 0 0 0 -1 forward_v I I I I #
coedge $-1 $674 $675 $676 $677 reversed $564 $-1 #
coedge $-1 $566 $573 $678 $679 forward $413 $-1 #
coedge $-1 $680 $578 $566 $630 reversed $640 $-1 #
edge $-1 $681 -30.10585297557968 $580 25.718944926020491 $629 $682 forward 7 unknown #
edge $-1 $568 16.553649765846693 $641 26.119638234834859 $570 $683 forward 7 unknown #
point $-1 37.890293766187469 30.10585297557968 2.8565360294267919 #
coedge $-1 $684 $570 $639 $685 forward $491 $-1 #
coedge $-1 $571 $684 $686 $687 reversed $491 $-1 #
coedge $-1 $686 $688 $573 $636 reversed $689 $-1 #
edge $-1 $637 -30.10585297557968 $690 30.10585297557968 $635 $691 forward 7 unknown #
vertex $-1 $574 $692 #
straight-curve $-1 0 30.10585297557968 6.6700170983464533 -1 0 0 I I #
coedge $-1 $578 $693 $633 $685 reversed $640 $-1 #
loop $-1 $-1 $578 $694 #
vertex $-1 $685 $695 #
straight-curve $-1 47.456282235175635 -0.48208268591575454 29.44622340483609 0 -0.75470957328743171 0.6560590369687036 I I #
point $-1 47.456282235175635 25.718944926020491 6.670017098346456 #
straight-curve $-1 -47.456282235175635 -22.121093208253519 -2.5157345443339101 0 0 1 I I #
point $-1 -47.456282235175635 -22.121093208253519 -6.6700170983464533 #
plane-surface $-1 -47.456282235175635 0 0 1 0 0 0 0 -1 forward_v I I I I #
coedge $-1 $663 $661 $597 $649 forward $593 $-1 #
coedge $-1 $597 $596 $666 $696 reversed $472 $-1 #
edge $-1 $650 -47.456282235175635 $697 47.456282235175635 $647 $698 forward 7 unknown #
vertex $-1 $649 $699 #
straight-curve $-1 47.456282235175635 -22.121093208253519 -2.5157345443339101 0 0 -1 I I #
edge $-1 $655 9.0643566622952196 $653 17.049116429621378 $621 $700 forward 7 unknown #
vertex $-1 $601 $701 #
straight-curve $-1 0 -30.10585297557968 -3.392921078989187 1 0 0 I I #
vertex $-1 $652 $702 #
straight-curve $-1 0 -22.121093208253519 -3.392921078989187 -1 0 0 I I #
point $-1 47.456282235175635 -30.10585297557968 -3.392921078989187 #
point $-1 47.456282235175635 -22.121093208253519 -3.392921078989187 #
straight-curve $-1 47.456282235175635 -30.10585297557968 0 0 0 -1 I I #
plane-surface $-1 47.456282235175635 0 0 -1 0 0 0 0 1 forward_v I I I I #
coedge $-1 $647 $614 $612 $662 forward $593 $-1 #
edge $-1 $616 -30.10585297557968 $650 22.121093208253519 $612 $703 forward 7 unknown #
coedge $-1 $614 $647 $618 $667 forward $593 $-1 #
straight-curve $-1 0 30.10585297557968 -6.6700170983464533 1 0 0 I I #
point $-1 47.456282235175635 30.10585297557968 -6.6700170983464533 #
coedge $-1 $621 $618 $648 $696 forward $559 $-1 #
edge $-1 $697 -22.121093208253519 $619 30.10585297557968 $618 $704 forward 7 unknown #
point $-1 -47.456282235175635 30.10585297557968 -6.6700170983464533 #
straight-curve $-1 -47.456282235175635 -30.10585297557968 0 0 0 -1 I I #
face $-1 $705 $706 $19 $-1 $707 reversed single #
loop $-1 $-1 $708 $624 #
plane-surface $-1 0 -30.10585297557968 0 0 1 0 0 0 1 forward_v I I I I #
coedge $-1 $709 $710 $711 $712 reversed $625 $-1 #
coedge $-1 $713 $627 $708 $714 reversed $564 $-1 #
coedge $-1 $627 $713 $709 $715 reversed $564 $-1 #
coedge $-1 $711 $680 $627 $677 forward $640 $-1 #
edge $-1 $716 -17.049116429621378 $717 -9.0643566622952196 $676 $718 forward 7 unknown #
coedge $-1 $719 $720 $628 $679 reversed $671 $-1 #
edge $-1 $690 -47.456282235175635 $681 47.456282235175635 $678 $721 forward 7 unknown #
coedge $-1 $676 $629 $720 $722 forward $640 $-1 #
vertex $-1 $630 $723 #
straight-curve $-1 47.456282235175635 0 6.6700170983464533 0 1 0 I I #
straight-curve $-1 21.336644000340776 30.10585297557968 2.8565360294267954 1 0 0 I I #
coedge $-1 $634 $633 $724 $725 reversed $491 $-1 #
edge $-1 $641 -2.8565360294267919 $726 6.6700170983464533 $639 $727 forward 7 unknown #
coedge $-1 $728 $635 $634 $687 forward $689 $-1 #
edge $-1 $637 -6.6700170983464533 $729 6.6700170983464533 $634 $730 forward 7 unknown #
coedge $-1 $635 $731 $719 $732 reversed $689 $-1 #
loop $-1 $-1 $731 $705 #
vertex $-1 $636 $733 #
straight-curve $-1 -47.456282235175635 0 6.6700170983464533 0 -1 0 I I #
point $-1 -47.456282235175635 30.10585297557968 6.6700170983464533 #
coedge $-1 $639 $711 $734 $735 reversed $640 $-1 #
face $-1 $-1 $640 $19 $-1 $736 reversed single #
point $-1 47.456282235175635 30.10585297557968 2.8565360294267919 #
edge $-1 $697 -4.1542825540125428 $655 -0.87718653465527696 $666 $737 forward 7 unknown #
vertex $-1 $667 $738 #
straight-curve $-1 0 -22.121093208253519 -6.6700170983464533 -1 0 0 I I #
point $-1 47.456282235175635 -22.121093208253519 -6.6700170983464533 #
straight-curve $-1 -47.456282235175635 -13.0567365459583 -3.392921078989187 0 -1 0 I I #
point $-1 -47.456282235175635 -30.10585297557968 -3.392921078989187 #
point $-1 -47.456282235175635 -22.121093208253519 -3.392921078989187 #
straight-curve $-1 47.456282235175635 0 -6.6700170983464533 0 -1 0 I I #
straight-curve $-1 -47.456282235175635 0 -6.6700170983464533 0 1 0 I I #
face $-1 $694 $689 $19 $-1 $739 reversed single #
loop $-1 $-1 $740 $670 #
plane-surface $-1 0 0 -6.6700170983464533 0 0 1 1 0 0 forward_v I I I I #
coedge $-1 $720 $719 $674 $714 forward $671 $-1 #
coedge $-1 $741 $673 $675 $715 forward $625 $-1 #
coedge $-1 $673 $741 $740 $742 reversed $625 $-1 #
coedge $-1 $693 $676 $673 $712 forward $640 $-1 #
edge $-1 $717 0.87718653465527696 $743 4.1542825540125428 $711 $744 forward 7 unknown #
coedge $-1 $675 $674 $731 $745 reversed $564 $-1 #
edge $-1 $746 -47.456282235175635 $716 47.456282235175635 $708 $747 forward 7 unknown #
edge $-1 $717 -47.456282235175635 $748 47.456282235175635 $709 $749 forward 7 unknown #
vertex $-1 $714 $750 #
vertex $-1 $677 $751 #
straight-curve $-1 47.456282235175635 -13.0567365459583 -3.392921078989187 0 1 0 I I #
coedge $-1 $708 $678 $688 $732 forward $671 $-1 #
coedge $-1 $678 $708 $680 $722 reversed $671 $-1 #
straight-curve $-1 0 -30.10585297557968 6.6700170983464533 1 0 0 I I #
edge $-1 $681 -6.6700170983464533 $716 3.392921078989187 $680 $752 forward 7 unknown #
point $-1 47.456282235175635 -30.10585297557968 6.6700170983464533 #
coedge $-1 $734 $753 $684 $725 forward $706 $-1 #
edge $-1 $729 -47.456282235175635 $726 47.456282235175635 $684 $754 forward 7 unknown #
vertex $-1 $735 $755 #
straight-curve $-1 47.456282235175635 30.10585297557968 0 0 0 -1 I I #
coedge $-1 $756 $686 $753 $757 reversed $689 $-1 #
vertex $-1 $725 $758 #
straight-curve $-1 -47.456282235175635 30.10585297557968 0 0 0 -1 I I #
coedge $-1 $688 $756 $713 $745 forward $689 $-1 #
edge $-1 $690 -6.6700170983464533 $746 3.392921078989187 $688 $759 forward 7 unknown #
point $-1 -47.456282235175635 -30.10585297557968 6.6700170983464533 #
coedge $-1 $740 $724 $693 $735 forward $706 $-1 #
edge $-1 $726 -30.10585297557968 $743 22.121093208253519 $693 $760 forward 7 unknown #
plane-surface $-1 47.456282235175635 0 0 -1 0 0 0 0 1 forward_v I I I I #
straight-curve $-1 -47.456282235175635 -22.121093208253519 -2.5157345443339101 0 0 1 I I #
point $-1 -47.456282235175635 -22.121093208253519 -6.6700170983464533 #
plane-surface $-1 -47.456282235175635 0 0 1 0 0 0 0 -1 forward_v I I I I #
coedge $-1 $753 $734 $710 $742 forward $706 $-1 #
coedge $-1 $710 $709 $756 $761 reversed $625 $-1 #
edge $-1 $743 -47.456282235175635 $762 47.456282235175635 $740 $763 forward 7 unknown #
vertex $-1 $742 $764 #
straight-curve $-1 47.456282235175635 -22.121093208253519 -2.5157345443339101 0 0 -1 I I #
edge $-1 $748 9.0643566622952196 $746 17.049116429621378 $731 $765 forward 7 unknown #
vertex $-1 $714 $766 #
straight-curve $-1 0 -30.10585297557968 -3.392921078989187 1 0 0 I I #
vertex $-1 $745 $767 #
straight-curve $-1 0 -22.121093208253519 -3.392921078989187 -1 0 0 I I #
point $-1 47.456282235175635 -30.10585297557968 -3.392921078989187 #
point $-1 47.456282235175635 -22.121093208253519 -3.392921078989187 #
straight-curve $-1 47.456282235175635 -30.10585297557968 0 0 0 -1 I I #
coedge $-1 $724 $740 $728 $757 forward $706 $-1 #
straight-curve $-1 0 30.10585297557968 -6.6700170983464533 1 0 0 I I #
point $-1 47.456282235175635 30.10585297557968 -6.6700170983464533 #
coedge $-1 $731 $728 $741 $761 forward $689 $-1 #
edge $-1 $762 -22.121093208253519 $729 30.10585297557968 $728 $768 forward 7 unknown #
point $-1 -47.456282235175635 30.10585297557968 -6.6700170983464533 #
straight-curve $-1 -47.456282235175635 -30.10585297557968 0 0 0 -1 I I #
straight-curve $-1 47.456282235175635 0 -6.6700170983464533 0 -1 0 I I #
edge $-1 $762 -4.1542825540125428 $748 -0.87718653465527696 $756 $769 forward 7 unknown #
vertex $-1 $757 $770 #
straight-curve $-1 0 -22.121093208253519 -6.6700170983464533 -1 0 0 I I #
point $-1 47.456282235175635 -22.121093208253519 -6.6700170983464533 #
straight-curve $-1 -47.456282235175635 -13.0567365459583 -3.392921078989187 0 -1 0 I I #
point $-1 -47.456282235175635 -30.10585297557968 -3.392921078989187 #
point $-1 -47.456282235175635 -22.121093208253519 -3.392921078989187 #
straight-curve $-1 -47.456282235175635 0 -6.6700170983464533 0 1 0 I I #
straight-curve $-1 -47.456282235175635 -22.121093208253519 -2.5157345443339101 0 0 1 I I #
point $-1 -47.456282235175635 -22.121093208253519 -6.6700170983464533 #
End-of-ACIS-data 