500 0 7 0           
7 Unknown 11 ACIS 5.0 NT 24 Fri Mar 26 02:39:51 1999 
-1 9.9999999999999995e-007 1e-010 
body $-1 $7 $-1 $8 #
body $-1 $9 $-1 $10 #
body $-1 $11 $-1 $12 #
body $-1 $13 $-1 $14 #
body $-1 $15 $-1 $16 #
body $-1 $17 $-1 $18 #
body $-1 $19 $-1 $20 #
lump $-1 $-1 $21 $0 #
transform $-1 1 0 0 0 1 0 0 0 1 67.283547471541496 41.444669343908735 10.265103532862165 1 rotate no_reflect no_shear #
lump $-1 $-1 $22 $1 #
transform $-1 1 0 0 0 1 0 0 0 1 67.283547471541496 41.444669343908735 10.265103532862165 1 rotate no_reflect no_shear #
lump $-1 $-1 $23 $2 #
transform $-1 1 0 0 0 1 0 0 0 1 67.283547471541496 41.444669343908735 10.265103532862165 1 rotate no_reflect no_shear #
lump $-1 $-1 $24 $3 #
transform $-1 1 0 0 0 1 0 0 0 1 67.283547471541496 41.444669343908735 10.265103532862165 1 rotate no_reflect no_shear #
lump $-1 $-1 $25 $4 #
transform $-1 1 0 0 0 1 0 0 0 1 67.283547471541496 41.444669343908735 10.265103532862165 1 rotate no_reflect no_shear #
lump $-1 $-1 $26 $5 #
transform $-1 1 0 0 0 1 0 0 0 1 67.283547471541496 41.444669343908735 10.265103532862165 1 rotate no_reflect no_shear #
lump $-1 $-1 $27 $6 #
transform $-1 1 0 0 0 1 0 0 0 1 67.283547471541496 41.444669343908735 10.265103532862165 1 rotate no_reflect no_shear #
shell $-1 $-1 $-1 $28 $-1 $7 #
shell $-1 $-1 $-1 $29 $-1 $9 #
shell $-1 $-1 $-1 $30 $-1 $11 #
shell $-1 $-1 $-1 $31 $-1 $13 #
shell $-1 $-1 $-1 $32 $-1 $15 #
shell $-1 $-1 $-1 $33 $-1 $17 #
shell $-1 $-1 $-1 $34 $-1 $19 #
face $-1 $35 $36 $21 $-1 $37 forward single #
face $-1 $38 $39 $22 $-1 $40 forward single #
face $-1 $41 $42 $23 $-1 $43 forward single #
face $-1 $44 $45 $24 $-1 $46 reversed single #
face $-1 $47 $48 $25 $-1 $49 forward single #
face $-1 $50 $51 $26 $-1 $52 reversed single #
face $-1 $53 $54 $27 $-1 $55 forward single #
face $-1 $56 $57 $21 $-1 $58 reversed single #
loop $-1 $-1 $59 $28 #
plane-surface $-1 0 0 10.265103532862165 0 0 1 1 0 0 forward_v I I I I #
face $-1 $60 $61 $22 $-1 $62 reversed single #
loop $-1 $-1 $63 $29 #
plane-surface $-1 -67.283547471541496 0 0 1 0 0 0 0 -1 forward_v I I I I #
face $-1 $64 $65 $23 $-1 $66 reversed single #
loop $-1 $-1 $67 $30 #
plane-surface $-1 67.283547471541496 0 0 -1 0 0 0 0 1 forward_v I I I I #
face $-1 $68 $69 $24 $-1 $70 reversed single #
loop $-1 $-1 $71 $31 #
plane-surface $-1 -14.757591022717062 -146.02294483750353 85.261622617100954 -1 0 0 0 -0.77714596973225614 0.62932038083071107 forward_v I I I I #
face $-1 $72 $73 $25 $-1 $74 forward single #
loop $-1 $75 $76 $32 #
cone-surface $-1 -24.225078053603305 -35.033471650717651 3.4056487153792734 0 0.77714596973225614 -0.62932038083071107 3 0 0 1 I I 0 1 3 forward I I I I #
face $-1 $77 $78 $26 $-1 $79 reversed single #
loop $-1 $-1 $80 $33 #
plane-surface $-1 33.69256508448953 -146.02294483750353 85.261622617100954 -1 0 0 0 -0.77714596973225614 0.62932038083071107 forward_v I I I I #
face $-1 $81 $82 $27 $-1 $83 forward single #
loop $-1 $84 $85 $34 #
cone-surface $-1 24.225078053603298 -35.033471650717651 3.4056487153792734 0 0.77714596973225614 -0.62932038083071107 3 0 0 1 I I 0 1 3 forward I I I I #
face $-1 $86 $87 $21 $-1 $88 reversed single #
loop $-1 $-1 $89 $35 #
plane-surface $-1 0 0 -10.265103532862165 0 0 1 1 0 0 forward_v I I I I #
coedge $-1 $90 $91 $92 $93 forward $36 $-1 #
face $-1 $94 $95 $22 $-1 $96 forward single #
loop $-1 $-1 $97 $38 #
plane-surface $-1 0 41.444669343908735 0 0 -1 0 0 0 -1 forward_v I I I I #
coedge $-1 $98 $99 $100 $101 forward $39 $-1 #
face $-1 $102 $103 $23 $-1 $104 forward single #
loop $-1 $-1 $105 $41 #
plane-surface $-1 0 -41.444669343908735 0 0 1 0 0 0 1 forward_v I I I I #
coedge $-1 $106 $107 $108 $109 forward $42 $-1 #
face $-1 $110 $111 $24 $-1 $112 reversed single #
loop $-1 $-1 $113 $44 #
plane-surface $-1 -24.225078053603298 -41.444669343908714 0.57580718023751842 0 -0.77714596973225614 0.62932038083071107 1 0 0 forward_v I I I I #
coedge $-1 $114 $115 $116 $117 reversed $45 $-1 #
face $-1 $-1 $118 $25 $-1 $119 forward single #
loop $-1 $120 $121 $47 #
cone-surface $-1 -24.225078053603305 -31.379673637073665 0.44686150296263349 0 0.77714596973225614 -0.62932038083071107 1.5 0 0 1 I I -0.70710678118654757 0.70710678118654757 1.5 forward I I I I #
loop $-1 $-1 $122 $32 #
coedge $-1 $76 $76 $123 $124 reversed $48 $-1 #
face $-1 $125 $126 $26 $-1 $127 reversed single #
loop $-1 $-1 $128 $50 #
plane-surface $-1 24.225078053603298 -41.444669343908714 0.57580718023751842 0 -0.77714596973225614 0.62932038083071107 1 0 0 forward_v I I I I #
coedge $-1 $129 $130 $131 $132 reversed $51 $-1 #
face $-1 $-1 $133 $27 $-1 $134 forward single #
loop $-1 $135 $136 $53 #
cone-surface $-1 24.225078053603298 -31.379673637073665 0.44686150296263349 0 0.77714596973225614 -0.62932038083071107 1.5 0 0 1 I I -0.70710678118654757 0.70710678118654757 1.5 forward I I I I #
loop $-1 $-1 $137 $34 #
coedge $-1 $85 $85 $138 $139 reversed $54 $-1 #
face $-1 $140 $141 $21 $-1 $142 reversed single #
loop $-1 $-1 $143 $56 #
plane-surface $-1 0 -41.444669343908735 0 0 1 0 0 0 1 forward_v I I I I #
coedge $-1 $144 $145 $146 $147 forward $57 $-1 #
coedge $-1 $148 $59 $149 $150 forward $36 $-1 #
coedge $-1 $59 $148 $151 $152 forward $36 $-1 #
coedge $-1 $153 $154 $59 $93 reversed $155 $-1 #
edge $-1 $156 -41.444669343908735 $157 41.444669343908735 $92 $158 forward 7 unknown #
face $-1 $159 $160 $22 $-1 $161 reversed single #
loop $-1 $-1 $100 $60 #
plane-surface $-1 -72.85888305502472 0 -5.987148893504779 0 0 1 1 0 0 forward_v I I I I #
coedge $-1 $162 $163 $99 $164 forward $61 $-1 #
coedge $-1 $165 $63 $166 $167 reversed $39 $-1 #
coedge $-1 $63 $165 $97 $164 reversed $39 $-1 #
coedge $-1 $168 $169 $63 $101 reversed $95 $-1 #
edge $-1 $170 -41.444669343908735 $171 41.444669343908735 $100 $172 forward 7 unknown #
face $-1 $173 $174 $23 $-1 $175 reversed single #
loop $-1 $-1 $176 $64 #
plane-surface $-1 72.85888305502472 0 -5.987148893504779 0 0 1 1 0 0 forward_v I I I I #
coedge $-1 $177 $178 $107 $179 forward $65 $-1 #
coedge $-1 $180 $67 $181 $182 reversed $42 $-1 #
coedge $-1 $67 $180 $105 $179 reversed $42 $-1 #
coedge $-1 $183 $184 $67 $109 reversed $103 $-1 #
edge $-1 $185 -41.444669343908735 $186 41.444669343908735 $108 $187 forward 7 unknown #
face $-1 $188 $189 $24 $-1 $190 forward single #
loop $-1 $-1 $191 $68 #
plane-surface $-1 -33.69256508448953 -146.02294483750353 85.261622617100954 1 0 0 0 0.77714596973225614 -0.62932038083071107 forward_v I I I I #
coedge $-1 $192 $193 $194 $195 reversed $69 $-1 #
coedge $-1 $115 $71 $196 $197 reversed $45 $-1 #
coedge $-1 $71 $114 $192 $198 reversed $45 $-1 #
coedge $-1 $194 $199 $71 $117 forward $189 $-1 #
edge $-1 $200 31.56680307484303 $201 39.413040343134028 $116 $202 forward 7 unknown #
loop $-1 $-1 $123 $72 #
plane-surface $-1 -24.225078053603298 -41.444669343908714 0.57580718023751842 0 -0.77714596973225614 0.62932038083071107 1 0 0 forward_v I I I I #
loop $-1 $-1 $203 $47 #
coedge $-1 $121 $121 $122 $204 reversed $73 $-1 #
coedge $-1 $122 $122 $121 $204 forward $75 $-1 #
coedge $-1 $123 $123 $76 $124 forward $118 $-1 #
edge $-1 $205 -3.3012457501171581e-016 $205 6.2831853071796004 $123 $206 forward 7 unknown #
face $-1 $207 $208 $26 $-1 $209 reversed single #
loop $-1 $-1 $210 $77 #
plane-surface $-1 14.757591022717062 -146.02294483750353 85.261622617100954 1 0 0 0 0.77714596973225614 -0.62932038083071107 forward_v I I I I #
coedge $-1 $211 $212 $213 $214 reversed $78 $-1 #
coedge $-1 $130 $80 $215 $216 reversed $51 $-1 #
coedge $-1 $80 $129 $211 $217 reversed $51 $-1 #
coedge $-1 $213 $218 $80 $132 forward $219 $-1 #
edge $-1 $220 31.56680307484303 $221 39.413040343134028 $131 $222 forward 7 unknown #
loop $-1 $-1 $138 $81 #
plane-surface $-1 24.225078053603298 -41.444669343908714 0.57580718023751842 0 -0.77714596973225614 0.62932038083071107 1 0 0 forward_v I I I I #
loop $-1 $-1 $223 $53 #
coedge $-1 $136 $136 $137 $224 reversed $82 $-1 #
coedge $-1 $137 $137 $136 $224 forward $84 $-1 #
coedge $-1 $138 $138 $85 $139 forward $133 $-1 #
edge $-1 $225 -3.3012457501171581e-016 $225 6.2831853071796004 $138 $226 forward 7 unknown #
face $-1 $227 $228 $21 $-1 $229 reversed single #
loop $-1 $-1 $230 $86 #
plane-surface $-1 -67.283547471541496 0 0 1 0 0 0 0 -1 forward_v I I I I #
coedge $-1 $231 $151 $232 $233 forward $87 $-1 #
coedge $-1 $234 $89 $231 $235 forward $57 $-1 #
coedge $-1 $89 $234 $236 $237 forward $57 $-1 #
coedge $-1 $154 $153 $89 $147 reversed $155 $-1 #
edge $-1 $238 -41.444669343908735 $239 41.444669343908735 $146 $240 forward 7 unknown #
coedge $-1 $91 $90 $241 $242 forward $36 $-1 #
coedge $-1 $243 $244 $90 $150 reversed $228 $-1 #
edge $-1 $157 -67.283547471541496 $245 67.283547471541496 $149 $246 forward 7 unknown #
coedge $-1 $143 $247 $91 $152 reversed $87 $-1 #
edge $-1 $248 -67.283547471541496 $156 67.283547471541496 $151 $249 forward 7 unknown #
coedge $-1 $146 $92 $247 $250 forward $155 $-1 #
coedge $-1 $92 $146 $243 $251 reversed $155 $-1 #
loop $-1 $-1 $153 $227 #
vertex $-1 $93 $252 #
vertex $-1 $93 $253 #
straight-curve $-1 67.283547471541496 0 10.265103532862165 0 1 0 I I #
face $-1 $254 $255 $22 $-1 $256 reversed single #
loop $-1 $-1 $257 $94 #
plane-surface $-1 -72.85888305502472 0 -9.7275976120834624 0 0 1 1 0 0 forward_v I I I I #
coedge $-1 $258 $97 $259 $260 reversed $61 $-1 #
coedge $-1 $97 $258 $168 $261 reversed $61 $-1 #
edge $-1 $170 5.987148893504779 $262 9.7275976120834624 $97 $263 forward 7 unknown #
coedge $-1 $99 $98 $257 $264 forward $39 $-1 #
coedge $-1 $265 $266 $98 $167 forward $267 $-1 #
edge $-1 $268 -9.7275976120834624 $171 -5.987148893504779 $166 $269 forward 7 unknown #
coedge $-1 $270 $100 $163 $261 forward $95 $-1 #
coedge $-1 $100 $270 $265 $271 forward $95 $-1 #
vertex $-1 $164 $272 #
vertex $-1 $271 $273 #
straight-curve $-1 -67.283547471541496 0 -5.987148893504779 0 -1 0 I I #
face $-1 $274 $275 $23 $-1 $276 reversed single #
loop $-1 $-1 $277 $102 #
plane-surface $-1 72.85888305502472 0 -9.7275976120834624 0 0 1 1 0 0 forward_v I I I I #
coedge $-1 $184 $183 $278 $279 forward $103 $-1 #
coedge $-1 $280 $105 $281 $282 reversed $65 $-1 #
coedge $-1 $105 $280 $183 $283 reversed $65 $-1 #
edge $-1 $185 5.987148893504779 $284 9.7275976120834624 $105 $285 forward 7 unknown #
coedge $-1 $107 $106 $286 $287 forward $42 $-1 #
coedge $-1 $288 $289 $106 $182 forward $290 $-1 #
edge $-1 $291 -9.7275976120834624 $186 -5.987148893504779 $181 $292 forward 7 unknown #
coedge $-1 $176 $108 $178 $283 forward $103 $-1 #
coedge $-1 $108 $176 $288 $293 forward $103 $-1 #
vertex $-1 $179 $294 #
vertex $-1 $293 $295 #
straight-curve $-1 67.283547471541496 0 -5.987148893504779 0 1 0 I I #
face $-1 $-1 $296 $24 $-1 $297 reversed single #
loop $-1 $-1 $116 $110 #
plane-surface $-1 0 0 10.265103532862165 0 0 1 1 0 0 forward_v I I I I #
coedge $-1 $298 $299 $300 $301 reversed $111 $-1 #
coedge $-1 $302 $113 $115 $198 forward $69 $-1 #
coedge $-1 $113 $302 $298 $303 forward $69 $-1 #
coedge $-1 $300 $116 $113 $195 forward $189 $-1 #
edge $-1 $201 2.6450519959154128 $304 21.580026057687881 $194 $305 forward 7 unknown #
coedge $-1 $306 $307 $114 $197 forward $296 $-1 #
edge $-1 $308 -42.055004128312987 $200 -32.365707775688314 $196 $309 forward 7 unknown #
edge $-1 $201 -12.467794635752689 $308 3.3863257525417323e-014 $115 $310 forward 7 unknown #
coedge $-1 $116 $300 $306 $311 forward $189 $-1 #
vertex $-1 $197 $312 #
vertex $-1 $117 $313 #
straight-curve $-1 -14.757591022717062 -73.011472418751765 10.265103532862163 0 1 0 I I #
coedge $-1 $203 $203 $-1 $314 reversed $120 $-1 #
edge $-1 $315 0 $315 6.2831853071796004 $121 $316 forward 7 unknown #
vertex $-1 $124 $317 #
ellipse-curve $-1 -24.225078053603305 -37.521550709763233 5.4204553565498301 0 -0.77714596973225614 0.62932038083071107 3 0 0 1 I I #
face $-1 $-1 $219 $26 $-1 $318 forward single #
loop $-1 $-1 $319 $125 #
plane-surface $-1 0 -41.444669343908735 0 0 1 0 0 0 1 forward_v I I I I #
coedge $-1 $320 $321 $322 $323 reversed $126 $-1 #
coedge $-1 $324 $128 $130 $217 forward $78 $-1 #
coedge $-1 $128 $324 $320 $325 forward $78 $-1 #
coedge $-1 $322 $131 $128 $214 forward $219 $-1 #
edge $-1 $221 -21.580026057687881 $326 -2.6450519959154128 $213 $327 forward 7 unknown #
coedge $-1 $328 $329 $129 $216 forward $208 $-1 #
edge $-1 $330 -42.055004128312987 $220 -32.365707775688314 $215 $331 forward 7 unknown #
edge $-1 $221 -12.467794635752689 $330 3.3863257525417323e-014 $130 $332 forward 7 unknown #
coedge $-1 $131 $322 $328 $333 forward $219 $-1 #
loop $-1 $-1 $322 $207 #
vertex $-1 $216 $334 #
vertex $-1 $132 $335 #
straight-curve $-1 33.69256508448953 -73.011472418751765 10.265103532862163 0 1 0 I I #
coedge $-1 $223 $223 $-1 $336 reversed $135 $-1 #
edge $-1 $337 0 $337 6.2831853071796004 $136 $338 forward 7 unknown #
vertex $-1 $139 $339 #
ellipse-curve $-1 24.225078053603298 -37.521550709763233 5.4204553565498301 0 -0.77714596973225614 0.62932038083071107 3 0 0 1 I I #
face $-1 $-1 $155 $21 $-1 $340 reversed single #
loop $-1 $-1 $243 $140 #
plane-surface $-1 0 41.444669343908735 0 0 -1 0 0 0 -1 forward_v I I I I #
coedge $-1 $341 $241 $244 $342 forward $141 $-1 #
coedge $-1 $247 $143 $144 $235 reversed $87 $-1 #
coedge $-1 $241 $341 $143 $233 reversed $141 $-1 #
edge $-1 $248 -10.265103532862165 $343 10.265103532862165 $232 $344 forward 7 unknown #
coedge $-1 $145 $144 $341 $345 forward $57 $-1 #
edge $-1 $239 -67.283547471541496 $343 67.283547471541496 $231 $346 forward 7 unknown #
coedge $-1 $244 $243 $145 $237 reversed $228 $-1 #
edge $-1 $347 -67.283547471541496 $238 67.283547471541496 $236 $348 forward 7 unknown #
vertex $-1 $147 $349 #
vertex $-1 $250 $350 #
straight-curve $-1 67.283547471541496 0 -10.265103532862165 0 -1 0 I I #
coedge $-1 $230 $232 $148 $242 reversed $141 $-1 #
edge $-1 $245 -41.444669343908735 $248 41.444669343908735 $241 $351 forward 7 unknown #
coedge $-1 $236 $149 $154 $251 forward $228 $-1 #
coedge $-1 $149 $236 $230 $342 reversed $228 $-1 #
vertex $-1 $150 $352 #
straight-curve $-1 0 41.444669343908735 10.265103532862165 -1 0 0 I I #
coedge $-1 $151 $231 $153 $250 reversed $87 $-1 #
vertex $-1 $242 $353 #
straight-curve $-1 0 -41.444669343908735 10.265103532862165 1 0 0 I I #
edge $-1 $156 -10.265103532862165 $239 10.265103532862165 $153 $354 forward 7 unknown #
edge $-1 $157 -10.265103532862165 $238 10.265103532862165 $154 $355 forward 7 unknown #
point $-1 67.283547471541496 -41.444669343908735 10.265103532862165 #
point $-1 67.283547471541496 41.444669343908735 10.265103532862165 #
face $-1 $-1 $267 $22 $-1 $356 reversed single #
loop $-1 $-1 $357 $159 #
plane-surface $-1 -78.434218638507943 0 -7.8573732527941207 1 0 0 0 0 -1 forward_v I I I I #
coedge $-1 $358 $259 $165 $264 reversed $160 $-1 #
coedge $-1 $163 $162 $357 $359 reversed $61 $-1 #
coedge $-1 $257 $360 $162 $260 forward $160 $-1 #
edge $-1 $361 -5.5753355834832234 $262 5.5753355834832234 $162 $362 forward 7 unknown #
edge $-1 $170 -5.5753355834832234 $363 5.5753355834832234 $163 $364 forward 7 unknown #
vertex $-1 $164 $365 #
straight-curve $-1 -67.283547471541496 41.444669343908735 0 0 0 -1 I I #
edge $-1 $268 -41.444669343908735 $262 41.444669343908735 $257 $366 forward 7 unknown #
coedge $-1 $367 $166 $169 $271 reversed $267 $-1 #
coedge $-1 $166 $367 $358 $368 reversed $267 $-1 #
loop $-1 $-1 $166 $254 #
vertex $-1 $167 $369 #
straight-curve $-1 -67.283547471541496 -41.444669343908735 0 0 0 1 I I #
coedge $-1 $169 $168 $370 $371 forward $95 $-1 #
edge $-1 $372 -5.5753355834832234 $171 5.5753355834832234 $265 $373 forward 7 unknown #
point $-1 -67.283547471541496 41.444669343908735 -5.987148893504779 #
point $-1 -67.283547471541496 -41.444669343908735 -5.987148893504779 #
face $-1 $-1 $290 $23 $-1 $374 reversed single #
loop $-1 $-1 $375 $173 #
plane-surface $-1 78.434218638507943 0 -7.8573732527941207 -1 0 0 0 0 1 forward_v I I I I #
coedge $-1 $281 $376 $377 $378 forward $174 $-1 #
coedge $-1 $375 $379 $176 $279 reversed $275 $-1 #
edge $-1 $380 -41.444669343908735 $381 41.444669343908735 $278 $382 forward 7 unknown #
coedge $-1 $178 $177 $375 $383 reversed $65 $-1 #
coedge $-1 $286 $277 $177 $282 forward $174 $-1 #
edge $-1 $384 -5.5753355834832234 $284 5.5753355834832234 $177 $385 forward 7 unknown #
edge $-1 $185 -5.5753355834832234 $380 5.5753355834832234 $178 $386 forward 7 unknown #
vertex $-1 $179 $387 #
straight-curve $-1 67.283547471541496 -41.444669343908735 0 0 0 -1 I I #
coedge $-1 $376 $281 $180 $287 reversed $174 $-1 #
edge $-1 $291 -41.444669343908735 $284 41.444669343908735 $286 $388 forward 7 unknown #
coedge $-1 $389 $181 $184 $293 reversed $290 $-1 #
coedge $-1 $181 $389 $376 $390 reversed $290 $-1 #
loop $-1 $-1 $181 $274 #
vertex $-1 $182 $391 #
straight-curve $-1 67.283547471541496 41.444669343908735 0 0 0 1 I I #
edge $-1 $381 -5.5753355834832234 $186 5.5753355834832234 $288 $392 forward 7 unknown #
point $-1 67.283547471541496 -41.444669343908735 -5.987148893504779 #
point $-1 67.283547471541496 41.444669343908735 -5.987148893504779 #
loop $-1 $-1 $196 $188 #
plane-surface $-1 0 -41.444669343908735 0 0 1 0 0 0 1 forward_v I I I I #
coedge $-1 $299 $191 $193 $303 reversed $111 $-1 #
coedge $-1 $191 $298 $393 $394 reversed $111 $-1 #
coedge $-1 $199 $194 $191 $301 forward $189 $-1 #
edge $-1 $304 -39.413040343134028 $395 -31.56680307484303 $300 $396 forward 7 unknown #
coedge $-1 $193 $192 $307 $397 reversed $69 $-1 #
edge $-1 $398 -3.3863257525417323e-014 $304 12.467794635752689 $298 $399 forward 7 unknown #
vertex $-1 $195 $400 #
straight-curve $-1 -12.112539026801649 -33.59843207561773 10.265103532862165 -1 0 0 I I #
coedge $-1 $393 $196 $199 $311 reversed $296 $-1 #
coedge $-1 $196 $393 $302 $397 forward $296 $-1 #
vertex $-1 $197 $401 #
straight-curve $-1 -14.757591022717062 -41.444669343908735 42.630811308550477 0 0 1 I I #
straight-curve $-1 -14.757591022717062 -41.444669343908714 0.57580718023751842 0 -0.62932038083071107 -0.77714596973225614 I I #
edge $-1 $395 -33.69256508448953 $200 -14.757591022717062 $306 $402 forward 7 unknown #
point $-1 -14.757591022717062 -41.444669343908735 10.265103532862165 #
point $-1 -14.757591022717062 -33.598432075617737 10.265103532862165 #
edge $-1 $403 1 $403 0 $203 $-1 forward 7 unknown #
vertex $-1 $204 $404 #
ellipse-curve $-1 -24.225078053603305 -32.545392591672048 1.3908420742087002 0 -0.77714596973225614 0.62932038083071107 3 0 0 1 I I #
point $-1 -21.225078053603305 -37.521550709763254 5.4204553565498461 #
plane-surface $-1 0 0 10.265103532862165 0 0 1 1 0 0 forward_v I I I I #
coedge $-1 $329 $328 $321 $405 forward $208 $-1 #
coedge $-1 $321 $210 $212 $325 reversed $126 $-1 #
coedge $-1 $210 $320 $319 $405 reversed $126 $-1 #
coedge $-1 $218 $213 $210 $323 forward $219 $-1 #
edge $-1 $326 -39.413040343134028 $406 -31.56680307484303 $322 $407 forward 7 unknown #
coedge $-1 $212 $211 $329 $408 reversed $78 $-1 #
edge $-1 $409 -3.3863257525417323e-014 $326 12.467794635752689 $320 $410 forward 7 unknown #
vertex $-1 $214 $411 #
straight-curve $-1 12.112539026801649 -33.59843207561773 10.265103532862165 -1 0 0 I I #
coedge $-1 $319 $215 $218 $333 reversed $208 $-1 #
coedge $-1 $215 $319 $324 $408 forward $208 $-1 #
vertex $-1 $216 $412 #
straight-curve $-1 33.69256508448953 -41.444669343908735 42.630811308550477 0 0 1 I I #
straight-curve $-1 33.69256508448953 -41.444669343908714 0.57580718023751842 0 -0.62932038083071107 -0.77714596973225614 I I #
edge $-1 $406 14.757591022717062 $220 33.69256508448953 $328 $413 forward 7 unknown #
point $-1 33.69256508448953 -41.444669343908735 10.265103532862165 #
point $-1 33.69256508448953 -33.598432075617737 10.265103532862165 #
edge $-1 $414 1 $414 0 $223 $-1 forward 7 unknown #
vertex $-1 $224 $415 #
ellipse-curve $-1 24.225078053603298 -32.545392591672048 1.3908420742087002 0 -0.77714596973225614 0.62932038083071107 3 0 0 1 I I #
point $-1 27.225078053603298 -37.521550709763254 5.4204553565498461 #
plane-surface $-1 67.283547471541496 0 0 -1 0 0 0 0 1 forward_v I I I I #
coedge $-1 $232 $230 $234 $345 reversed $141 $-1 #
edge $-1 $245 -10.265103532862165 $347 10.265103532862165 $244 $416 forward 7 unknown #
vertex $-1 $345 $417 #
straight-curve $-1 -67.283547471541496 -41.444669343908735 0 0 0 -1 I I #
edge $-1 $343 -41.444669343908735 $347 41.444669343908735 $341 $418 forward 7 unknown #
straight-curve $-1 0 -41.444669343908735 -10.265103532862165 -1 0 0 I I #
vertex $-1 $237 $419 #
straight-curve $-1 0 41.444669343908735 -10.265103532862165 1 0 0 I I #
point $-1 67.283547471541496 41.444669343908735 -10.265103532862165 #
point $-1 67.283547471541496 -41.444669343908735 -10.265103532862165 #
straight-curve $-1 -67.283547471541496 0 10.265103532862165 0 -1 0 I I #
point $-1 -67.283547471541496 41.444669343908735 10.265103532862165 #
point $-1 -67.283547471541496 -41.444669343908735 10.265103532862165 #
straight-curve $-1 67.283547471541496 -41.444669343908735 0 0 0 -1 I I #
straight-curve $-1 67.283547471541496 41.444669343908735 0 0 0 -1 I I #
plane-surface $-1 0 -41.444669343908735 0 0 1 0 0 0 1 forward_v I I I I #
coedge $-1 $420 $370 $258 $359 forward $255 $-1 #
coedge $-1 $360 $257 $266 $368 forward $160 $-1 #
edge $-1 $363 -1.8702243592893417 $361 1.8702243592893417 $258 $421 forward 7 unknown #
coedge $-1 $259 $358 $420 $422 forward $160 $-1 #
vertex $-1 $260 $423 #
straight-curve $-1 -72.85888305502472 41.444669343908735 -9.7275976120834624 1 0 0 I I #
vertex $-1 $261 $424 #
straight-curve $-1 -72.85888305502472 41.444669343908735 -5.987148893504779 -1 0 0 I I #
point $-1 -67.283547471541496 41.444669343908735 -9.7275976120834624 #
straight-curve $-1 -67.283547471541496 0 -9.7275976120834624 0 1 0 I I #
coedge $-1 $266 $265 $425 $426 forward $267 $-1 #
edge $-1 $268 -5.5753355834832234 $427 5.5753355834832234 $266 $428 forward 7 unknown #
point $-1 -67.283547471541496 -41.444669343908735 -9.7275976120834624 #
coedge $-1 $357 $425 $270 $371 reversed $255 $-1 #
edge $-1 $363 -41.444669343908735 $372 41.444669343908735 $370 $429 forward 7 unknown #
vertex $-1 $371 $430 #
straight-curve $-1 -72.85888305502472 -41.444669343908735 -5.987148893504779 1 0 0 I I #
plane-surface $-1 0 41.444669343908735 0 0 -1 0 0 0 -1 forward_v I I I I #
coedge $-1 $377 $278 $280 $383 forward $275 $-1 #
coedge $-1 $277 $286 $289 $390 forward $174 $-1 #
coedge $-1 $379 $375 $277 $378 reversed $275 $-1 #
edge $-1 $431 -41.444669343908735 $384 41.444669343908735 $377 $432 forward 7 unknown #
coedge $-1 $278 $377 $389 $433 reversed $275 $-1 #
vertex $-1 $279 $434 #
vertex $-1 $279 $435 #
straight-curve $-1 78.434218638507943 0 -5.987148893504779 0 1 0 I I #
edge $-1 $380 -1.8702243592893417 $384 1.8702243592893417 $375 $436 forward 7 unknown #
vertex $-1 $383 $437 #
straight-curve $-1 72.85888305502472 -41.444669343908735 -9.7275976120834624 -1 0 0 I I #
straight-curve $-1 72.85888305502472 -41.444669343908735 -5.987148893504779 1 0 0 I I #
point $-1 67.283547471541496 -41.444669343908735 -9.7275976120834624 #
straight-curve $-1 67.283547471541496 0 -9.7275976120834624 0 -1 0 I I #
coedge $-1 $289 $288 $379 $433 forward $290 $-1 #
edge $-1 $291 -5.5753355834832234 $431 5.5753355834832234 $289 $438 forward 7 unknown #
point $-1 67.283547471541496 41.444669343908735 -9.7275976120834624 #
straight-curve $-1 72.85888305502472 41.444669343908735 -5.987148893504779 -1 0 0 I I #
coedge $-1 $307 $306 $299 $394 forward $296 $-1 #
edge $-1 $395 32.365707775688314 $398 42.055004128312987 $393 $439 forward 7 unknown #
vertex $-1 $311 $440 #
straight-curve $-1 -33.69256508448953 -73.011472418751765 10.265103532862163 0 -1 0 I I #
edge $-1 $398 -21.580026057687881 $308 -2.6450519959154128 $307 $441 forward 7 unknown #
vertex $-1 $397 $442 #
straight-curve $-1 -33.69256508448953 -41.444669343908714 0.57580718023751842 0 0.62932038083071107 0.77714596973225614 I I #
point $-1 -33.69256508448953 -33.598432075617737 10.265103532862165 #
point $-1 -14.757591022717062 -41.444669343908735 0.57580718023749211 #
straight-curve $-1 0 -41.444669343908735 10.265103532862165 1 0 0 I I #
vertex $-1 $314 $443 #
point $-1 -21.225078053603305 -32.545392591672048 1.3908420742087002 #
edge $-1 $406 32.365707775688314 $409 42.055004128312987 $319 $444 forward 7 unknown #
vertex $-1 $333 $445 #
straight-curve $-1 14.757591022717062 -73.011472418751765 10.265103532862163 0 -1 0 I I #
edge $-1 $409 2.6450519959154128 $330 21.580026057687881 $329 $446 forward 7 unknown #
vertex $-1 $408 $447 #
straight-curve $-1 14.757591022717062 -41.444669343908714 0.57580718023751842 0 0.62932038083071107 0.77714596973225614 I I #
point $-1 14.757591022717062 -33.598432075617737 10.265103532862165 #
point $-1 33.69256508448953 -41.444669343908735 0.57580718023749211 #
straight-curve $-1 0 -41.444669343908735 10.265103532862165 1 0 0 I I #
vertex $-1 $336 $448 #
point $-1 27.225078053603298 -32.545392591672048 1.3908420742087002 #
straight-curve $-1 -67.283547471541496 41.444669343908735 0 0 0 -1 I I #
point $-1 -67.283547471541496 -41.444669343908735 -10.265103532862165 #
straight-curve $-1 -67.283547471541496 0 -10.265103532862165 0 1 0 I I #
point $-1 -67.283547471541496 41.444669343908735 -10.265103532862165 #
coedge $-1 $425 $357 $360 $422 reversed $255 $-1 #
straight-curve $-1 -78.434218638507943 41.444669343908735 -7.8573732527941207 0 0 -1 I I #
edge $-1 $427 -41.444669343908735 $361 41.444669343908735 $420 $449 forward 7 unknown #
point $-1 -78.434218638507943 41.444669343908735 -9.7275976120834624 #
point $-1 -78.434218638507943 41.444669343908735 -5.987148893504779 #
coedge $-1 $370 $420 $367 $426 reversed $255 $-1 #
edge $-1 $372 -1.8702243592893417 $427 1.8702243592893417 $425 $450 forward 7 unknown #
vertex $-1 $422 $451 #
straight-curve $-1 -72.85888305502472 -41.444669343908735 -9.7275976120834624 -1 0 0 I I #
straight-curve $-1 -78.434218638507943 0 -5.987148893504779 0 -1 0 I I #
point $-1 -78.434218638507943 -41.444669343908735 -5.987148893504779 #
vertex $-1 $378 $452 #
straight-curve $-1 78.434218638507943 0 -9.7275976120834624 0 -1 0 I I #
edge $-1 $381 -1.8702243592893417 $431 1.8702243592893417 $379 $453 forward 7 unknown #
point $-1 78.434218638507943 -41.444669343908735 -5.987148893504779 #
point $-1 78.434218638507943 41.444669343908735 -5.987148893504779 #
straight-curve $-1 78.434218638507943 -41.444669343908735 -7.8573732527941207 0 0 -1 I I #
point $-1 78.434218638507943 -41.444669343908735 -9.7275976120834624 #
straight-curve $-1 72.85888305502472 41.444669343908735 -9.7275976120834624 1 0 0 I I #
straight-curve $-1 -33.69256508448953 -41.444669343908735 42.630811308550477 0 0 -1 I I #
point $-1 -33.69256508448953 -41.444669343908735 10.265103532862165 #
straight-curve $-1 -12.112539026801649 -41.444669343908735 0.57580718023749811 1 0 0 I I #
point $-1 -33.69256508448953 -41.444669343908735 0.57580718023749211 #
point $-1 -24.225078053603305 -30.213954682475283 -0.49711906828343311 #
straight-curve $-1 14.757591022717062 -41.444669343908735 42.630811308550477 0 0 -1 I I #
point $-1 14.757591022717062 -41.444669343908735 10.265103532862165 #
straight-curve $-1 12.112539026801649 -41.444669343908735 0.57580718023749811 1 0 0 I I #
point $-1 14.757591022717062 -41.444669343908735 0.57580718023749211 #
point $-1 24.225078053603298 -30.213954682475283 -0.49711906828343311 #
straight-curve $-1 -78.434218638507943 0 -9.7275976120834624 0 1 0 I I #
straight-curve $-1 -78.434218638507943 -41.444669343908735 -7.8573732527941207 0 0 -1 I I #
point $-1 -78.434218638507943 -41.444669343908735 -9.7275976120834624 #
point $-1 78.434218638507943 41.444669343908735 -9.7275976120834624 #
straight-curve $-1 78.434218638507943 41.444669343908735 -7.8573732527941207 0 0 -1 I I #
End-of-ACIS-data 