500 0 7 0           
7 Unknown 11 ACIS 5.0 NT 24 Thu Mar 25 17:28:46 1999 
-1 9.9999999999999995e-007 1e-010 
body $-1 $7 $-1 $8 #
body $-1 $9 $-1 $10 #
body $-1 $11 $-1 $12 #
body $-1 $13 $-1 $14 #
body $-1 $15 $-1 $16 #
body $-1 $17 $-1 $18 #
body $-1 $19 $-1 $20 #
lump $-1 $-1 $21 $0 #
transform $-1 1 0 0 0 1 0 0 0 1 55.189672536393317 32.234258644413437 7.1710822417162445 1 rotate no_reflect no_shear #
lump $-1 $-1 $22 $1 #
transform $-1 1 0 0 0 1 0 0 0 1 55.189672536393317 32.234258644413437 7.1710822417162445 1 rotate no_reflect no_shear #
lump $-1 $-1 $23 $2 #
transform $-1 1 0 0 0 1 0 0 0 1 55.189672536393317 32.234258644413437 7.1710822417162445 1 rotate no_reflect no_shear #
lump $-1 $-1 $24 $3 #
transform $-1 1 0 0 0 1 0 0 0 1 55.189672536393317 32.234258644413437 7.1710822417162445 1 rotate no_reflect no_shear #
lump $-1 $-1 $25 $4 #
transform $-1 1 0 0 0 1 0 0 0 1 55.189672536393317 32.234258644413437 7.1710822417162445 1 rotate no_reflect no_shear #
lump $-1 $-1 $26 $5 #
transform $-1 1 0 0 0 1 0 0 0 1 55.189672536393317 32.234258644413437 7.1710822417162445 1 rotate no_reflect no_shear #
lump $-1 $-1 $27 $6 #
transform $-1 1 0 0 0 1 0 0 0 1 55.189672536393317 32.234258644413437 7.1710822417162445 1 rotate no_reflect no_shear #
shell $-1 $-1 $-1 $28 $-1 $7 #
shell $-1 $-1 $-1 $29 $-1 $9 #
shell $-1 $-1 $-1 $30 $-1 $11 #
shell $-1 $-1 $-1 $31 $-1 $13 #
shell $-1 $-1 $-1 $32 $-1 $15 #
shell $-1 $-1 $-1 $33 $-1 $17 #
shell $-1 $-1 $-1 $34 $-1 $19 #
face $-1 $35 $36 $21 $-1 $37 forward single #
face $-1 $38 $39 $22 $-1 $40 reversed single #
face $-1 $41 $42 $23 $-1 $43 reversed single #
face $-1 $44 $45 $24 $-1 $46 forward single #
face $-1 $47 $48 $25 $-1 $49 reversed single #
face $-1 $50 $51 $26 $-1 $52 forward single #
face $-1 $53 $54 $27 $-1 $55 forward single #
face $-1 $56 $57 $21 $-1 $58 reversed single #
loop $-1 $-1 $59 $28 #
plane-surface $-1 0 0 7.1710822417162445 0 0 1 1 0 0 forward_v I I I I #
face $-1 $60 $61 $22 $-1 $62 reversed single #
loop $-1 $-1 $63 $29 #
plane-surface $-1 -50.609649573273003 -26.51350445826003 0 0 1 0 0 0 1 forward_v I I I I #
face $-1 $64 $65 $23 $-1 $66 reversed single #
loop $-1 $-1 $67 $30 #
plane-surface $-1 26.981901603543662 55.994618300578118 127.87413994658624 1 0 0 0 -0.6560590369687036 -0.75470957328743171 forward_v I I I I #
face $-1 $68 $69 $24 $-1 $70 forward single #
loop $-1 $71 $72 $31 #
cone-surface $-1 41.08578706996849 28.385780215719365 3.5355406063292731 0 -0.6560590369687036 -0.75470957328743171 1 0 0 1 I I 0 1 1 forward I I I I #
face $-1 $73 $74 $25 $-1 $75 reversed single #
loop $-1 $-1 $76 $32 #
plane-surface $-1 42.372381451344154 -32.23425864441343 0.54533269214491042 0 -0.64278761758704617 0.76604443648966558 1 0 0 forward_v I I I I #
face $-1 $77 $78 $26 $-1 $79 forward single #
loop $-1 $80 $81 $33 #
cone-surface $-1 36.879256700608806 -26.824432369521734 2.1162261121615136 0 0.64278761758704617 -0.76604443648966558 2 0 0 1 I I 0 1 2 forward I I I I #
face $-1 $82 $83 $27 $-1 $84 forward single #
loop $-1 $85 $86 $34 #
cone-surface $-1 47.865506202079516 -26.824432369521734 2.1162261121615136 0 0.64278761758704617 -0.76604443648966558 2 0 0 1 I I 0 1 2 forward I I I I #
face $-1 $87 $88 $21 $-1 $89 reversed single #
loop $-1 $-1 $90 $35 #
plane-surface $-1 0 0 -7.1710822417162445 0 0 1 1 0 0 forward_v I I I I #
coedge $-1 $91 $92 $93 $94 forward $36 $-1 #
face $-1 $95 $96 $22 $-1 $97 reversed single #
loop $-1 $-1 $98 $38 #
plane-surface $-1 -50.609649573273003 -23.51350445826003 0 0 -1 0 0 0 -1 forward_v I I I I #
coedge $-1 $99 $100 $101 $102 reversed $39 $-1 #
face $-1 $103 $104 $23 $-1 $105 forward single #
loop $-1 $-1 $106 $41 #
plane-surface $-1 41.08578706996849 -16.420748529110504 44.56979152695726 0 0.6560590369687036 0.75470957328743171 1 0 0 forward_v I I I I #
coedge $-1 $107 $108 $109 $110 reversed $42 $-1 #
face $-1 $-1 $111 $24 $-1 $112 forward single #
loop $-1 $113 $114 $44 #
cone-surface $-1 41.08578706996849 27.025629498278192 1.9708662253320783 0 -0.6560590369687036 -0.75470957328743171 0.5 0 0 1 I I -0.70710678118654746 0.70710678118654746 0.5 forward I I I I #
loop $-1 $-1 $115 $31 #
coedge $-1 $72 $72 $116 $117 reversed $45 $-1 #
face $-1 $118 $119 $25 $-1 $120 reversed single #
loop $-1 $-1 $121 $47 #
plane-surface $-1 29.555090366294991 -103.18473489456841 85.1008158885261 1 0 0 0 0.64278761758704617 -0.76604443648966558 forward_v I I I I #
coedge $-1 $122 $123 $124 $125 reversed $48 $-1 #
face $-1 $-1 $126 $26 $-1 $127 forward single #
loop $-1 $128 $129 $50 #
cone-surface $-1 36.879256700608806 -24.719948809015104 -0.39179967909721736 0 0.64278761758704617 -0.76604443648966558 1 0 0 1 I I -0.70710678118654746 0.70710678118654746 1 forward I I I I #
loop $-1 $-1 $130 $33 #
coedge $-1 $81 $81 $131 $132 reversed $51 $-1 #
face $-1 $-1 $133 $27 $-1 $134 forward single #
loop $-1 $135 $136 $53 #
cone-surface $-1 47.865506202079516 -24.719948809015104 -0.39179967909721736 0 0.64278761758704617 -0.76604443648966558 1 0 0 1 I I -0.70710678118654746 0.70710678118654746 1 forward I I I I #
loop $-1 $-1 $137 $34 #
coedge $-1 $86 $86 $138 $139 reversed $54 $-1 #
face $-1 $140 $141 $21 $-1 $142 reversed single #
loop $-1 $-1 $143 $56 #
plane-surface $-1 0 -32.234258644413437 0 0 1 0 0 0 1 forward_v I I I I #
coedge $-1 $144 $145 $146 $147 forward $57 $-1 #
coedge $-1 $148 $59 $149 $150 forward $36 $-1 #
coedge $-1 $59 $148 $151 $152 forward $36 $-1 #
coedge $-1 $153 $154 $59 $94 reversed $155 $-1 #
edge $-1 $156 -32.234258644413437 $157 32.234258644413437 $93 $158 forward 7 unknown #
face $-1 $159 $160 $22 $-1 $161 reversed single #
loop $-1 $-1 $162 $60 #
plane-surface $-1 -46.02962661015269 -25.01350445826003 0 -1 0 0 0 0 1 forward_v I I I I #
coedge $-1 $163 $164 $165 $166 forward $61 $-1 #
coedge $-1 $167 $63 $168 $169 reversed $39 $-1 #
coedge $-1 $63 $167 $170 $171 reversed $39 $-1 #
coedge $-1 $172 $173 $63 $102 forward $174 $-1 #
edge $-1 $175 -7.1710822417162445 $176 7.1710822417162445 $101 $177 forward 7 unknown #
face $-1 $178 $179 $23 $-1 $180 reversed single #
loop $-1 $-1 $109 $64 #
plane-surface $-1 0 0 7.1710822417162445 0 0 1 1 0 0 forward_v I I I I #
coedge $-1 $181 $182 $183 $184 reversed $65 $-1 #
coedge $-1 $108 $67 $185 $186 reversed $42 $-1 #
coedge $-1 $67 $107 $181 $187 reversed $42 $-1 #
coedge $-1 $183 $188 $67 $110 forward $104 $-1 #
edge $-1 $189 -4.2369494941243779 $190 1.3957649653501072 $109 $191 forward 7 unknown #
loop $-1 $-1 $116 $68 #
plane-surface $-1 41.08578706996849 -16.420748529110504 44.56979152695726 0 0.6560590369687036 0.75470957328743171 1 0 0 forward_v I I I I #
loop $-1 $-1 $192 $44 #
coedge $-1 $114 $114 $115 $193 reversed $69 $-1 #
coedge $-1 $115 $115 $114 $193 forward $71 $-1 #
coedge $-1 $116 $116 $72 $117 forward $111 $-1 #
edge $-1 $194 -4.6873385071680391e-016 $194 6.2831853071795996 $116 $195 forward 7 unknown #
face $-1 $196 $197 $25 $-1 $198 forward single #
loop $-1 $-1 $199 $73 #
plane-surface $-1 55.189672536393317 0 0 -1 0 0 0 0 1 forward_v I I I I #
coedge $-1 $200 $201 $202 $203 reversed $74 $-1 #
coedge $-1 $204 $76 $199 $205 reversed $48 $-1 #
coedge $-1 $76 $204 $200 $206 forward $48 $-1 #
coedge $-1 $202 $207 $76 $125 forward $197 $-1 #
edge $-1 $208 -34.00348181072124 $209 -8.3688996406229137 $124 $210 forward 7 unknown #
loop $-1 $-1 $131 $77 #
plane-surface $-1 42.372381451344154 -32.23425864441343 0.54533269214491042 0 -0.64278761758704617 0.76604443648966558 1 0 0 forward_v I I I I #
loop $-1 $-1 $211 $50 #
coedge $-1 $129 $129 $130 $212 reversed $78 $-1 #
coedge $-1 $130 $130 $129 $212 forward $80 $-1 #
coedge $-1 $131 $131 $81 $132 forward $126 $-1 #
edge $-1 $213 3.5196199713088507e-016 $213 6.2831853071796004 $131 $214 forward 7 unknown #
loop $-1 $-1 $138 $82 #
plane-surface $-1 42.372381451344154 -32.23425864441343 0.54533269214491042 0 -0.64278761758704617 0.76604443648966558 1 0 0 forward_v I I I I #
loop $-1 $-1 $215 $53 #
coedge $-1 $136 $136 $137 $216 reversed $83 $-1 #
coedge $-1 $137 $137 $136 $216 forward $85 $-1 #
coedge $-1 $138 $138 $86 $139 forward $133 $-1 #
edge $-1 $217 3.5196199713088507e-016 $217 6.2831853071796004 $138 $218 forward 7 unknown #
face $-1 $219 $220 $21 $-1 $221 reversed single #
loop $-1 $-1 $222 $87 #
plane-surface $-1 -55.189672536393317 0 0 1 0 0 0 0 -1 forward_v I I I I #
coedge $-1 $223 $151 $224 $225 forward $88 $-1 #
coedge $-1 $226 $90 $223 $227 forward $57 $-1 #
coedge $-1 $90 $226 $228 $229 forward $57 $-1 #
coedge $-1 $154 $153 $90 $147 reversed $155 $-1 #
edge $-1 $230 -32.234258644413437 $231 32.234258644413437 $146 $232 forward 7 unknown #
coedge $-1 $92 $91 $233 $234 forward $36 $-1 #
coedge $-1 $235 $236 $91 $150 reversed $220 $-1 #
edge $-1 $157 -55.189672536393317 $237 55.189672536393317 $149 $238 forward 7 unknown #
coedge $-1 $143 $239 $92 $152 reversed $88 $-1 #
edge $-1 $240 -55.189672536393317 $156 55.189672536393317 $151 $241 forward 7 unknown #
coedge $-1 $146 $93 $239 $242 forward $155 $-1 #
coedge $-1 $93 $146 $235 $243 reversed $155 $-1 #
loop $-1 $-1 $153 $219 #
vertex $-1 $94 $244 #
vertex $-1 $94 $245 #
straight-curve $-1 55.189672536393317 0 7.1710822417162445 0 1 0 I I #
face $-1 $246 $247 $22 $-1 $248 forward single #
loop $-1 $-1 $249 $95 #
plane-surface $-1 0 0 -7.1710822417162445 0 0 1 1 0 0 forward_v I I I I #
coedge $-1 $250 $251 $167 $252 forward $96 $-1 #
coedge $-1 $253 $98 $249 $254 reversed $61 $-1 #
coedge $-1 $98 $253 $255 $256 reversed $61 $-1 #
coedge $-1 $251 $250 $98 $166 reversed $96 $-1 #
edge $-1 $257 -7.1710822417162445 $258 7.1710822417162445 $165 $259 forward 7 unknown #
coedge $-1 $100 $99 $162 $252 reversed $39 $-1 #
coedge $-1 $260 $261 $99 $169 forward $160 $-1 #
edge $-1 $262 20.724801823516188 $175 29.884847749756815 $168 $263 forward 7 unknown #
coedge $-1 $264 $265 $100 $171 forward $247 $-1 #
edge $-1 $176 -29.884847749756815 $266 -20.724801823516188 $170 $267 forward 7 unknown #
coedge $-1 $268 $101 $265 $269 reversed $174 $-1 #
coedge $-1 $101 $268 $260 $270 reversed $174 $-1 #
loop $-1 $-1 $268 $246 #
vertex $-1 $270 $271 #
vertex $-1 $102 $272 #
straight-curve $-1 -55.189672536393317 -26.51350445826003 0 0 0 1 I I #
face $-1 $-1 $273 $23 $-1 $274 reversed single #
loop $-1 $-1 $275 $103 #
plane-surface $-1 55.189672536393317 0 0 -1 0 0 0 0 1 forward_v I I I I #
coedge $-1 $276 $106 $108 $187 forward $65 $-1 #
coedge $-1 $106 $276 $275 $277 reversed $65 $-1 #
coedge $-1 $278 $109 $106 $184 forward $104 $-1 #
edge $-1 $190 6.4390080685594171 $279 34.646779001409072 $183 $280 forward 7 unknown #
coedge $-1 $281 $282 $107 $186 forward $273 $-1 #
edge $-1 $283 -61.662431813643835 $189 -56.765987731576878 $185 $284 forward 7 unknown #
edge $-1 $190 57.00509737361498 $283 64.468517288826874 $108 $285 forward 7 unknown #
coedge $-1 $109 $278 $281 $286 forward $104 $-1 #
vertex $-1 $186 $287 #
vertex $-1 $110 $288 #
straight-curve $-1 26.981901603543662 27.997309150289059 7.1710822417162419 0 -1 0 I I #
coedge $-1 $192 $192 $-1 $289 reversed $113 $-1 #
edge $-1 $290 0 $290 6.2831853071796004 $114 $291 forward 7 unknown #
vertex $-1 $117 $292 #
ellipse-curve $-1 41.08578706996849 29.417901414676198 4.7228602006827645 0 0.6560590369687036 0.75470957328743171 1 0 0 1 I I #
face $-1 $-1 $293 $25 $-1 $294 reversed single #
loop $-1 $-1 $124 $118 #
plane-surface $-1 0 0 7.1710822417162445 0 0 1 1 0 0 forward_v I I I I #
coedge $-1 $295 $296 $122 $205 forward $119 $-1 #
coedge $-1 $201 $121 $123 $206 reversed $74 $-1 #
coedge $-1 $121 $200 $297 $298 reversed $74 $-1 #
coedge $-1 $299 $124 $121 $203 forward $197 $-1 #
edge $-1 $209 -27.254369466815017 $300 -19.358108802870767 $202 $301 forward 7 unknown #
coedge $-1 $123 $122 $302 $303 reversed $48 $-1 #
edge $-1 $304 -12.171170698472839 $208 -1.8633343800887474 $199 $305 forward 7 unknown #
edge $-1 $306 -9.2967162063127932e-015 $209 10.307836318384084 $200 $307 forward 7 unknown #
coedge $-1 $124 $299 $295 $308 forward $197 $-1 #
vertex $-1 $205 $309 #
vertex $-1 $125 $310 #
straight-curve $-1 21.186190725672077 -24.337997980469183 7.1710822417162454 -1 0 0 I I #
coedge $-1 $211 $211 $-1 $311 reversed $128 $-1 #
edge $-1 $312 0 $312 6.2831853071796004 $129 $313 forward 7 unknown #
vertex $-1 $132 $314 #
ellipse-curve $-1 36.879256700608806 -28.286128312441313 3.8582074669305735 0 -0.64278761758704617 0.76604443648966558 2 0 0 1 I I #
coedge $-1 $215 $215 $-1 $315 reversed $135 $-1 #
edge $-1 $316 0 $316 6.2831853071796004 $136 $317 forward 7 unknown #
vertex $-1 $139 $318 #
ellipse-curve $-1 47.865506202079516 -28.286128312441313 3.8582074669305735 0 -0.64278761758704617 0.76604443648966558 2 0 0 1 I I #
face $-1 $-1 $155 $21 $-1 $319 reversed single #
loop $-1 $-1 $235 $140 #
plane-surface $-1 0 32.234258644413437 0 0 -1 0 0 0 -1 forward_v I I I I #
coedge $-1 $320 $233 $236 $321 forward $141 $-1 #
coedge $-1 $239 $143 $144 $227 reversed $88 $-1 #
coedge $-1 $233 $320 $143 $225 reversed $141 $-1 #
edge $-1 $240 -7.1710822417162445 $322 7.1710822417162445 $224 $323 forward 7 unknown #
coedge $-1 $145 $144 $320 $324 forward $57 $-1 #
edge $-1 $231 -55.189672536393317 $322 55.189672536393317 $223 $325 forward 7 unknown #
coedge $-1 $236 $235 $145 $229 reversed $220 $-1 #
edge $-1 $326 -55.189672536393317 $230 55.189672536393317 $228 $327 forward 7 unknown #
vertex $-1 $147 $328 #
vertex $-1 $242 $329 #
straight-curve $-1 55.189672536393317 0 -7.1710822417162445 0 -1 0 I I #
coedge $-1 $222 $224 $148 $234 reversed $141 $-1 #
edge $-1 $237 -32.234258644413437 $240 32.234258644413437 $233 $330 forward 7 unknown #
coedge $-1 $228 $149 $154 $243 forward $220 $-1 #
coedge $-1 $149 $228 $222 $321 reversed $220 $-1 #
vertex $-1 $150 $331 #
straight-curve $-1 0 32.234258644413437 7.1710822417162445 -1 0 0 I I #
coedge $-1 $151 $223 $153 $242 reversed $88 $-1 #
vertex $-1 $234 $332 #
straight-curve $-1 0 -32.234258644413437 7.1710822417162445 1 0 0 I I #
edge $-1 $156 -7.1710822417162445 $231 7.1710822417162445 $153 $333 forward 7 unknown #
edge $-1 $157 -7.1710822417162445 $230 7.1710822417162445 $154 $334 forward 7 unknown #
point $-1 55.189672536393317 -32.234258644413437 7.1710822417162445 #
point $-1 55.189672536393317 32.234258644413437 7.1710822417162445 #
face $-1 $-1 $174 $22 $-1 $335 reversed single #
loop $-1 $-1 $255 $159 #
plane-surface $-1 0 0 7.1710822417162445 0 0 1 1 0 0 forward_v I I I I #
coedge $-1 $261 $260 $163 $254 forward $160 $-1 #
coedge $-1 $165 $162 $261 $336 reversed $96 $-1 #
coedge $-1 $162 $165 $264 $337 reversed $96 $-1 #
edge $-1 $266 -7.1710822417162445 $262 7.1710822417162445 $162 $338 forward 7 unknown #
coedge $-1 $164 $163 $268 $339 reversed $61 $-1 #
edge $-1 $340 -29.884847749756815 $258 -20.724801823516188 $249 $341 forward 7 unknown #
coedge $-1 $265 $264 $164 $256 forward $247 $-1 #
edge $-1 $257 20.724801823516188 $342 29.884847749756815 $255 $343 forward 7 unknown #
vertex $-1 $256 $344 #
vertex $-1 $254 $345 #
straight-curve $-1 -46.02962661015269 -23.51350445826003 0 0 0 -1 I I #
coedge $-1 $249 $168 $173 $270 forward $160 $-1 #
coedge $-1 $168 $249 $250 $336 forward $160 $-1 #
vertex $-1 $169 $346 #
straight-curve $-1 -25.304824786636502 -26.51350445826003 -7.1710822417162445 -1 0 0 I I #
coedge $-1 $255 $170 $251 $337 forward $247 $-1 #
coedge $-1 $170 $255 $172 $269 forward $247 $-1 #
vertex $-1 $171 $347 #
straight-curve $-1 -25.304824786636502 -26.51350445826003 7.1710822417162445 1 0 0 I I #
coedge $-1 $173 $172 $253 $339 forward $174 $-1 #
edge $-1 $342 23.51350445826003 $176 26.51350445826003 $172 $348 forward 7 unknown #
edge $-1 $175 -26.51350445826003 $340 -23.51350445826003 $173 $349 forward 7 unknown #
point $-1 -55.189672536393317 -26.51350445826003 -7.1710822417162445 #
point $-1 -55.189672536393317 -26.51350445826003 7.1710822417162445 #
loop $-1 $-1 $185 $178 #
plane-surface $-1 0 32.234258644413437 0 0 -1 0 0 0 -1 forward_v I I I I #
coedge $-1 $350 $351 $182 $277 forward $179 $-1 #
coedge $-1 $182 $181 $282 $352 reversed $65 $-1 #
edge $-1 $279 36.188442062346645 $353 43.651861977558539 $275 $354 forward 7 unknown #
coedge $-1 $188 $183 $351 $355 forward $104 $-1 #
vertex $-1 $355 $356 #
straight-curve $-1 20.542893534984245 26.601544184938945 7.1710822417162525 1 0 0 I I #
coedge $-1 $357 $185 $188 $286 reversed $273 $-1 #
coedge $-1 $185 $357 $276 $352 forward $273 $-1 #
vertex $-1 $186 $358 #
straight-curve $-1 26.981901603543662 32.234258644413437 63.93706997329312 0 0 1 I I #
straight-curve $-1 26.981901603543662 -16.420748529110504 44.56979152695726 0 0.75470957328743171 -0.6560590369687036 I I #
edge $-1 $359 -55.189672536393317 $189 -26.981901603543662 $281 $360 forward 7 unknown #
point $-1 26.981901603543662 32.234258644413437 7.1710822417162445 #
point $-1 26.981901603543662 26.601544184938952 7.1710822417162419 #
edge $-1 $361 1 $361 0 $192 $-1 forward 7 unknown #
vertex $-1 $193 $362 #
ellipse-curve $-1 41.08578706996849 27.353659016762546 2.3482210119757942 0 0.6560590369687036 0.75470957328743171 1 0 0 1 I I #
point $-1 42.08578706996849 29.417901414676187 4.7228602006827529 #
loop $-1 $-1 $302 $196 #
plane-surface $-1 0 -32.234258644413437 0 0 1 0 0 0 1 forward_v I I I I #
coedge $-1 $296 $199 $207 $308 reversed $119 $-1 #
coedge $-1 $199 $295 $363 $364 forward $119 $-1 #
coedge $-1 $302 $365 $201 $298 forward $293 $-1 #
edge $-1 $300 35.379325702546808 $306 42.005075252118147 $297 $366 forward 7 unknown #
coedge $-1 $207 $202 $365 $367 forward $197 $-1 #
vertex $-1 $367 $368 #
straight-curve $-1 29.555090366294991 -51.592367447284204 7.1710822417162419 0 -1 0 I I #
coedge $-1 $363 $297 $204 $303 forward $293 $-1 #
edge $-1 $306 8.3688996406229137 $304 34.00348181072124 $302 $369 forward 7 unknown #
vertex $-1 $205 $370 #
straight-curve $-1 55.189672536393317 -22.910601045282281 8.3688105086615252 0 0.76604443648966558 0.64278761758704617 I I #
vertex $-1 $303 $371 #
straight-curve $-1 29.555090366294991 -32.23425864441343 0.54533269214491042 0 0.76604443648966558 0.64278761758704617 I I #
edge $-1 $372 -32.234258644413437 $208 -24.337997980469186 $295 $373 forward 7 unknown #
point $-1 55.189672536393317 -24.337997980469186 7.1710822417162445 #
point $-1 29.555090366294991 -24.337997980469186 7.1710822417162445 #
edge $-1 $374 1 $374 0 $211 $-1 forward 7 unknown #
vertex $-1 $212 $375 #
ellipse-curve $-1 36.879256700608806 -25.362736426602151 0.37424475739244822 0 -0.64278761758704617 0.76604443648966558 2 0 0 1 I I #
point $-1 38.879256700608806 -28.286128312441317 3.8582074669305788 #
edge $-1 $376 1 $376 0 $215 $-1 forward 7 unknown #
vertex $-1 $216 $377 #
ellipse-curve $-1 47.865506202079516 -25.362736426602151 0.37424475739244822 0 -0.64278761758704617 0.76604443648966558 2 0 0 1 I I #
point $-1 49.865506202079516 -28.286128312441317 3.8582074669305788 #
plane-surface $-1 55.189672536393317 0 0 -1 0 0 0 0 1 forward_v I I I I #
coedge $-1 $224 $222 $226 $324 reversed $141 $-1 #
edge $-1 $237 -7.1710822417162445 $326 7.1710822417162445 $236 $378 forward 7 unknown #
vertex $-1 $324 $379 #
straight-curve $-1 -55.189672536393317 -32.234258644413437 0 0 0 -1 I I #
edge $-1 $322 -32.234258644413437 $326 32.234258644413437 $320 $380 forward 7 unknown #
straight-curve $-1 0 -32.234258644413437 -7.1710822417162445 -1 0 0 I I #
vertex $-1 $229 $381 #
straight-curve $-1 0 32.234258644413437 -7.1710822417162445 1 0 0 I I #
point $-1 55.189672536393317 32.234258644413437 -7.1710822417162445 #
point $-1 55.189672536393317 -32.234258644413437 -7.1710822417162445 #
straight-curve $-1 -55.189672536393317 0 7.1710822417162445 0 -1 0 I I #
point $-1 -55.189672536393317 32.234258644413437 7.1710822417162445 #
point $-1 -55.189672536393317 -32.234258644413437 7.1710822417162445 #
straight-curve $-1 55.189672536393317 -32.234258644413437 0 0 0 -1 I I #
straight-curve $-1 55.189672536393317 32.234258644413437 0 0 0 -1 I I #
plane-surface $-1 -55.189672536393317 0 0 1 0 0 0 0 -1 forward_v I I I I #
edge $-1 $258 11.006752229130015 $262 14.006752229130015 $261 $382 forward 7 unknown #
edge $-1 $266 -14.006752229130015 $257 -11.006752229130015 $264 $383 forward 7 unknown #
straight-curve $-1 -46.02962661015269 -26.51350445826003 0 0 0 -1 I I #
edge $-1 $342 -7.1710822417162445 $340 7.1710822417162445 $268 $384 forward 7 unknown #
vertex $-1 $339 $385 #
straight-curve $-1 -25.304824786636502 -23.51350445826003 -7.1710822417162445 1 0 0 I I #
vertex $-1 $269 $386 #
straight-curve $-1 -25.304824786636502 -23.51350445826003 7.1710822417162445 -1 0 0 I I #
point $-1 -46.02962661015269 -23.51350445826003 7.1710822417162445 #
point $-1 -46.02962661015269 -23.51350445826003 -7.1710822417162445 #
point $-1 -46.02962661015269 -26.51350445826003 -7.1710822417162445 #
point $-1 -46.02962661015269 -26.51350445826003 7.1710822417162445 #
straight-curve $-1 -55.189672536393317 0 7.1710822417162445 0 -1 0 I I #
straight-curve $-1 -55.189672536393317 0 -7.1710822417162445 0 1 0 I I #
coedge $-1 $351 $275 $357 $387 reversed $179 $-1 #
coedge $-1 $275 $350 $278 $355 reversed $179 $-1 #
edge $-1 $353 -34.646779001409072 $283 -6.4390080685594171 $282 $388 forward 7 unknown #
vertex $-1 $277 $389 #
straight-curve $-1 55.189672536393317 -0.71021948187162742 30.912836690537105 0 0.75470957328743171 -0.6560590369687036 I I #
edge $-1 $279 26.601544184938952 $359 32.234258644413437 $351 $390 forward 7 unknown #
point $-1 55.189672536393317 26.601544184938952 7.1710822417162419 #
coedge $-1 $282 $281 $350 $387 forward $273 $-1 #
point $-1 26.981901603543662 32.234258644413437 2.2746381596492853 #
vertex $-1 $355 $391 #
straight-curve $-1 0 32.234258644413437 7.1710822417162445 -1 0 0 I I #
vertex $-1 $289 $392 #
point $-1 42.08578706996849 27.353659016762546 2.3482210119757942 #
coedge $-1 $365 $302 $296 $364 reversed $293 $-1 #
edge $-1 $372 -7.1710822417162445 $304 -0.54533269214490443 $296 $393 forward 7 unknown #
coedge $-1 $297 $363 $299 $367 reversed $293 $-1 #
straight-curve $-1 29.555090366294991 -32.234258644413437 42.55040794426305 0 0 -1 I I #
edge $-1 $300 29.555090366294991 $372 55.189672536393317 $365 $394 forward 7 unknown #
point $-1 29.555090366294991 -32.234258644413437 7.1710822417162445 #
straight-curve $-1 21.186190725672077 -32.234258644413437 0.54533269214490154 1 0 0 I I #
point $-1 55.189672536393317 -32.234258644413437 0.54533269214490443 #
point $-1 29.555090366294991 -32.234258644413437 0.54533269214490443 #
vertex $-1 $308 $395 #
straight-curve $-1 55.189672536393317 0 7.1710822417162445 0 1 0 I I #
vertex $-1 $311 $396 #
point $-1 38.879256700608806 -25.362736426602151 0.37424475739244822 #
vertex $-1 $315 $397 #
point $-1 49.865506202079516 -25.362736426602151 0.37424475739244822 #
straight-curve $-1 -55.189672536393317 32.234258644413437 0 0 0 -1 I I #
point $-1 -55.189672536393317 -32.234258644413437 -7.1710822417162445 #
straight-curve $-1 -55.189672536393317 0 -7.1710822417162445 0 1 0 I I #
point $-1 -55.189672536393317 32.234258644413437 -7.1710822417162445 #
straight-curve $-1 -46.02962661015269 -12.506752229130015 -7.1710822417162445 0 -1 0 I I #
straight-curve $-1 -46.02962661015269 -12.506752229130015 7.1710822417162445 0 1 0 I I #
straight-curve $-1 -55.189672536393317 -23.51350445826003 0 0 0 -1 I I #
point $-1 -55.189672536393317 -23.51350445826003 -7.1710822417162445 #
point $-1 -55.189672536393317 -23.51350445826003 7.1710822417162445 #
edge $-1 $359 -7.1710822417162445 $353 -2.2746381596492853 $350 $398 forward 7 unknown #
straight-curve $-1 20.542893534984245 32.234258644413437 2.2746381596492817 -1 0 0 I I #
point $-1 55.189672536393317 32.234258644413437 2.2746381596492853 #
straight-curve $-1 55.189672536393317 0 7.1710822417162445 0 1 0 I I #
point $-1 55.189672536393317 32.234258644413437 7.1710822417162445 #
point $-1 41.08578706996849 26.697599979793839 1.5935114386883624 #
straight-curve $-1 55.189672536393317 -32.234258644413437 0 0 0 -1 I I #
straight-curve $-1 0 -32.234258644413437 7.1710822417162445 1 0 0 I I #
point $-1 55.189672536393317 -32.234258644413437 7.1710822417162445 #
point $-1 36.879256700608806 -24.077161191428058 -1.157844115586883 #
point $-1 47.865506202079516 -24.077161191428058 -1.157844115586883 #
straight-curve $-1 55.189672536393317 32.234258644413437 0 0 0 -1 I I #
End-of-ACIS-data 