500 0 15 0           
7 Unknown 11 ACIS 5.0 NT 24 Fri Mar 26 20:08:06 1999 
-1 9.9999999999999995e-007 1e-010 
body $-1 $15 $-1 $16 #
body $-1 $17 $-1 $18 #
body $-1 $19 $-1 $20 #
body $-1 $21 $-1 $22 #
body $-1 $23 $-1 $24 #
body $-1 $25 $-1 $26 #
body $-1 $27 $-1 $28 #
body $-1 $29 $-1 $30 #
body $-1 $31 $-1 $32 #
body $-1 $33 $-1 $34 #
body $-1 $35 $-1 $36 #
body $-1 $37 $-1 $38 #
body $-1 $39 $-1 $40 #
body $-1 $41 $-1 $42 #
body $-1 $43 $-1 $44 #
lump $-1 $-1 $45 $0 #
transform $-1 1 0 0 0 1 0 0 0 1 54.336375011444446 34.087464777756679 14.088244018456674 1 rotate no_reflect no_shear #
lump $-1 $-1 $46 $1 #
transform $-1 1 0 0 0 1 0 0 0 1 54.336375011444446 34.087464777756679 14.088244018456674 1 rotate no_reflect no_shear #
lump $-1 $-1 $47 $2 #
transform $-1 1 0 0 0 1 0 0 0 1 54.336375011444446 34.087464777756679 14.088244018456674 1 rotate no_reflect no_shear #
lump $-1 $-1 $48 $3 #
transform $-1 1 0 0 0 1 0 0 0 1 54.336375011444446 34.087464777756679 14.088244018456674 1 rotate no_reflect no_shear #
lump $-1 $-1 $49 $4 #
transform $-1 1 0 0 0 1 0 0 0 1 54.336375011444446 34.087464777756679 14.088244018456674 1 rotate no_reflect no_shear #
lump $-1 $-1 $50 $5 #
transform $-1 1 0 0 0 1 0 0 0 1 54.336375011444446 34.087464777756679 14.088244018456674 1 rotate no_reflect no_shear #
lump $-1 $-1 $51 $6 #
transform $-1 1 0 0 0 1 0 0 0 1 54.336375011444446 34.087464777756679 14.088244018456674 1 rotate no_reflect no_shear #
lump $-1 $-1 $52 $7 #
transform $-1 1 0 0 0 1 0 0 0 1 54.336375011444446 34.087464777756679 14.088244018456674 1 rotate no_reflect no_shear #
lump $-1 $-1 $53 $8 #
transform $-1 1 0 0 0 1 0 0 0 1 54.336375011444446 34.087464777756679 14.088244018456674 1 rotate no_reflect no_shear #
lump $-1 $-1 $54 $9 #
transform $-1 1 0 0 0 1 0 0 0 1 54.336375011444446 34.087464777756679 14.088244018456674 1 rotate no_reflect no_shear #
lump $-1 $-1 $55 $10 #
transform $-1 1 0 0 0 1 0 0 0 1 54.336375011444446 34.087464777756679 14.088244018456674 1 rotate no_reflect no_shear #
lump $-1 $-1 $56 $11 #
transform $-1 1 0 0 0 1 0 0 0 1 54.336375011444446 34.087464777756679 14.088244018456674 1 rotate no_reflect no_shear #
lump $-1 $-1 $57 $12 #
transform $-1 1 0 0 0 1 0 0 0 1 54.336375011444446 34.087464777756679 14.088244018456674 1 rotate no_reflect no_shear #
lump $-1 $-1 $58 $13 #
transform $-1 1 0 0 0 1 0 0 0 1 54.336375011444446 34.087464777756679 14.088244018456674 1 rotate no_reflect no_shear #
lump $-1 $-1 $59 $14 #
transform $-1 1 0 0 0 1 0 0 0 1 54.336375011444446 34.087464777756679 14.088244018456674 1 rotate no_reflect no_shear #
shell $-1 $-1 $-1 $60 $-1 $15 #
shell $-1 $-1 $-1 $61 $-1 $17 #
shell $-1 $-1 $-1 $62 $-1 $19 #
shell $-1 $-1 $-1 $63 $-1 $21 #
shell $-1 $-1 $-1 $64 $-1 $23 #
shell $-1 $-1 $-1 $65 $-1 $25 #
shell $-1 $-1 $-1 $66 $-1 $27 #
shell $-1 $-1 $-1 $67 $-1 $29 #
shell $-1 $-1 $-1 $68 $-1 $31 #
shell $-1 $-1 $-1 $69 $-1 $33 #
shell $-1 $-1 $-1 $70 $-1 $35 #
shell $-1 $-1 $-1 $71 $-1 $37 #
shell $-1 $-1 $-1 $72 $-1 $39 #
shell $-1 $-1 $-1 $73 $-1 $41 #
shell $-1 $-1 $-1 $74 $-1 $43 #
face $-1 $75 $76 $45 $-1 $77 forward single #
face $-1 $78 $79 $46 $-1 $80 forward single #
face $-1 $81 $82 $47 $-1 $83 forward single #
face $-1 $84 $85 $48 $-1 $86 reversed single #
face $-1 $87 $88 $49 $-1 $89 forward single #
face $-1 $90 $91 $50 $-1 $92 forward single #
face $-1 $93 $94 $51 $-1 $95 reversed single #
face $-1 $96 $97 $52 $-1 $98 forward single #
face $-1 $99 $100 $53 $-1 $101 forward single #
face $-1 $102 $103 $54 $-1 $104 reversed single #
face $-1 $105 $106 $55 $-1 $107 forward single #
face $-1 $108 $109 $56 $-1 $110 forward single #
face $-1 $111 $112 $57 $-1 $113 reversed single #
face $-1 $114 $115 $58 $-1 $116 forward single #
face $-1 $117 $118 $59 $-1 $119 forward single #
face $-1 $120 $121 $45 $-1 $122 reversed single #
loop $-1 $-1 $123 $60 #
plane-surface $-1 0 0 14.088244018456674 0 0 1 1 0 0 forward_v I I I I #
face $-1 $124 $125 $46 $-1 $126 reversed single #
loop $-1 $-1 $127 $61 #
plane-surface $-1 0 -34.087464777756679 0 0 1 0 0 0 1 forward_v I I I I #
face $-1 $128 $129 $47 $-1 $130 reversed single #
loop $-1 $-1 $131 $62 #
plane-surface $-1 0 34.087464777756679 0 0 -1 0 0 0 -1 forward_v I I I I #
face $-1 $132 $133 $48 $-1 $134 reversed single #
loop $-1 $-1 $135 $63 #
plane-surface $-1 40.9417175422236 0 156.17395709598836 0 -1 0 -0.64278761758704617 0 -0.76604443648966558 forward_v I I I I #
face $-1 $136 $137 $49 $-1 $138 forward single #
loop $-1 $139 $140 $64 #
cone-surface $-1 47.193900457505158 -5.0595257196044905 7.8910453216622818 -0.64278761758704617 0 -0.76604443648966558 0.38302221824483279 0 -0.32139380879352308 1 I I 0 1 0.5 forward I I I I #
face $-1 $141 $142 $50 $-1 $143 forward single #
loop $-1 $144 $145 $65 #
cone-surface $-1 47.193900457505158 -2.0238102878417976 7.8910453216622818 -0.64278761758704617 0 -0.76604443648966558 0.38302221824483279 0 -0.32139380879352308 1 I I 0 1 0.5 forward I I I I #
face $-1 $146 $147 $51 $-1 $148 reversed single #
loop $-1 $-1 $149 $66 #
plane-surface $-1 40.9417175422236 7.0833360074462881 156.17395709598836 0 -1 0 -0.64278761758704617 0 -0.76604443648966558 forward_v I I I I #
face $-1 $150 $151 $52 $-1 $152 forward single #
loop $-1 $153 $154 $67 #
cone-surface $-1 47.193900457505158 2.0238102878417976 7.8910453216622818 -0.64278761758704617 0 -0.76604443648966558 0.38302221824483279 0 -0.32139380879352308 1 I I 0 1 0.5 forward I I I I #
face $-1 $155 $156 $53 $-1 $157 forward single #
loop $-1 $158 $159 $68 #
cone-surface $-1 47.193900457505158 5.0595257196044869 7.8910453216622818 -0.64278761758704617 0 -0.76604443648966558 0.38302221824483279 0 -0.32139380879352308 1 I I 0 1 0.5 forward I I I I #
face $-1 $160 $161 $54 $-1 $162 reversed single #
loop $-1 $-1 $163 $69 #
plane-surface $-1 -124.18987309528983 -7.0833360074462846 86.320459012142976 0 1 0 -0.64278761758704617 0 0.76604443648966558 forward_v I I I I #
face $-1 $164 $165 $55 $-1 $166 forward single #
loop $-1 $167 $168 $70 #
cone-surface $-1 -47.193900457505165 -5.0595257196044905 7.8910453216622818 0.64278761758704617 0 -0.76604443648966558 0.38302221824483279 0 0.32139380879352308 1 I I 0 1 0.5 forward I I I I #
face $-1 $169 $170 $56 $-1 $171 forward single #
loop $-1 $172 $173 $71 #
cone-surface $-1 -47.193900457505165 -2.0238102878417976 7.8910453216622818 0.64278761758704617 0 -0.76604443648966558 0.38302221824483279 0 0.32139380879352308 1 I I 0 1 0.5 forward I I I I #
face $-1 $174 $175 $57 $-1 $176 reversed single #
loop $-1 $-1 $177 $72 #
plane-surface $-1 -54.33637501144446 -3.5416680037231423 3.0723034590767639 -0.64278761758704617 0 0.76604443648966558 0.76604443648966558 0 0.64278761758704617 forward_v I I I I #
face $-1 $178 $179 $58 $-1 $180 forward single #
loop $-1 $181 $182 $73 #
cone-surface $-1 -47.193900457505165 2.0238102878417976 7.8910453216622818 0.64278761758704617 0 -0.76604443648966558 0.38302221824483279 0 0.32139380879352308 1 I I 0 1 0.5 forward I I I I #
face $-1 $183 $184 $59 $-1 $185 forward single #
loop $-1 $186 $187 $74 #
cone-surface $-1 -47.193900457505165 5.0595257196044869 7.8910453216622818 0.64278761758704617 0 -0.76604443648966558 0.38302221824483279 0 0.32139380879352308 1 I I 0 1 0.5 forward I I I I #
face $-1 $188 $189 $45 $-1 $190 reversed single #
loop $-1 $-1 $191 $75 #
plane-surface $-1 0 0 -14.088244018456674 0 0 1 1 0 0 forward_v I I I I #
coedge $-1 $192 $193 $194 $195 forward $76 $-1 #
face $-1 $196 $197 $46 $-1 $198 reversed single #
loop $-1 $-1 $199 $78 #
plane-surface $-1 0 0 -14.088244018456674 0 0 1 1 0 0 forward_v I I I I #
coedge $-1 $200 $201 $202 $203 forward $79 $-1 #
face $-1 $204 $205 $47 $-1 $206 forward single #
loop $-1 $-1 $207 $81 #
plane-surface $-1 -54.336375011444446 0 0 1 0 0 0 0 -1 forward_v I I I I #
coedge $-1 $208 $209 $210 $211 forward $82 $-1 #
face $-1 $212 $213 $48 $-1 $214 reversed single #
loop $-1 $-1 $215 $84 #
plane-surface $-1 -28.911780541621766 -3.5416680037231423 72.925801542922144 0.64278761758704617 0 0.76604443648966558 0.76604443648966558 0 -0.64278761758704617 forward_v I I I I #
coedge $-1 $216 $217 $218 $219 reversed $85 $-1 #
face $-1 $-1 $220 $49 $-1 $221 forward single #
loop $-1 $222 $223 $87 #
cone-surface $-1 46.454872230406039 -5.0595257196044905 7.010305795435432 -0.64278761758704617 0 -0.76604443648966558 0.1915111091224164 0 -0.16069690439676154 1 I I -0.70710678118654746 0.70710678118654746 0.25 forward I I I I #
loop $-1 $-1 $224 $64 #
coedge $-1 $140 $140 $225 $226 reversed $88 $-1 #
face $-1 $-1 $227 $50 $-1 $228 forward single #
loop $-1 $229 $230 $90 #
cone-surface $-1 46.454872230406039 -2.0238102878417976 7.010305795435432 -0.64278761758704617 0 -0.76604443648966558 0.1915111091224164 0 -0.16069690439676154 1 I I -0.70710678118654746 0.70710678118654746 0.25 forward I I I I #
loop $-1 $-1 $231 $65 #
coedge $-1 $145 $145 $232 $233 reversed $91 $-1 #
face $-1 $234 $235 $51 $-1 $236 forward single #
loop $-1 $-1 $237 $93 #
plane-surface $-1 -28.911780541621766 -3.5416680037231423 72.925801542922144 0.64278761758704617 0 0.76604443648966558 0.76604443648966558 0 -0.64278761758704617 forward_v I I I I #
coedge $-1 $238 $239 $240 $241 reversed $94 $-1 #
face $-1 $-1 $242 $52 $-1 $243 forward single #
loop $-1 $244 $245 $96 #
cone-surface $-1 46.454872230406039 2.0238102878417976 7.010305795435432 -0.64278761758704617 0 -0.76604443648966558 0.1915111091224164 0 -0.16069690439676154 1 I I -0.70710678118654746 0.70710678118654746 0.25 forward I I I I #
loop $-1 $-1 $246 $67 #
coedge $-1 $154 $154 $247 $248 reversed $97 $-1 #
face $-1 $-1 $249 $53 $-1 $250 forward single #
loop $-1 $251 $252 $99 #
cone-surface $-1 46.454872230406039 5.0595257196044869 7.010305795435432 -0.64278761758704617 0 -0.76604443648966558 0.1915111091224164 0 -0.16069690439676154 1 I I -0.70710678118654746 0.70710678118654746 0.25 forward I I I I #
loop $-1 $-1 $253 $68 #
coedge $-1 $159 $159 $254 $255 reversed $100 $-1 #
face $-1 $256 $257 $54 $-1 $258 reversed single #
loop $-1 $-1 $259 $102 #
plane-surface $-1 -54.33637501144446 -3.5416680037231423 3.0723034590767639 -0.64278761758704617 0 0.76604443648966558 0.76604443648966558 0 0.64278761758704617 forward_v I I I I #
coedge $-1 $260 $261 $262 $263 reversed $103 $-1 #
face $-1 $-1 $264 $55 $-1 $265 forward single #
loop $-1 $266 $267 $105 #
cone-surface $-1 -46.454872230406046 -5.0595257196044905 7.010305795435432 0.64278761758704617 0 -0.76604443648966558 0.1915111091224164 0 0.16069690439676154 1 I I -0.70710678118654746 0.70710678118654746 0.25 forward I I I I #
loop $-1 $-1 $268 $70 #
coedge $-1 $168 $168 $269 $270 reversed $106 $-1 #
face $-1 $-1 $271 $56 $-1 $272 forward single #
loop $-1 $273 $274 $108 #
cone-surface $-1 -46.454872230406046 -2.0238102878417976 7.010305795435432 0.64278761758704617 0 -0.76604443648966558 0.1915111091224164 0 0.16069690439676154 1 I I -0.70710678118654746 0.70710678118654746 0.25 forward I I I I #
loop $-1 $-1 $275 $71 #
coedge $-1 $173 $173 $276 $277 reversed $109 $-1 #
face $-1 $278 $279 $57 $-1 $280 reversed single #
loop $-1 $-1 $281 $111 #
plane-surface $-1 -124.18987309528983 7.0833360074462881 86.320459012142976 0 -1 0 0.64278761758704617 0 -0.76604443648966558 forward_v I I I I #
coedge $-1 $282 $283 $284 $285 reversed $112 $-1 #
face $-1 $-1 $286 $58 $-1 $287 forward single #
loop $-1 $288 $289 $114 #
cone-surface $-1 -46.454872230406046 2.0238102878417976 7.010305795435432 0.64278761758704617 0 -0.76604443648966558 0.1915111091224164 0 0.16069690439676154 1 I I -0.70710678118654746 0.70710678118654746 0.25 forward I I I I #
loop $-1 $-1 $290 $73 #
coedge $-1 $182 $182 $291 $292 reversed $115 $-1 #
face $-1 $-1 $293 $59 $-1 $294 forward single #
loop $-1 $295 $296 $117 #
cone-surface $-1 -46.454872230406046 5.0595257196044869 7.010305795435432 0.64278761758704617 0 -0.76604443648966558 0.1915111091224164 0 0.16069690439676154 1 I I -0.70710678118654746 0.70710678118654746 0.25 forward I I I I #
loop $-1 $-1 $297 $74 #
coedge $-1 $187 $187 $298 $299 reversed $118 $-1 #
face $-1 $300 $301 $45 $-1 $302 reversed single #
loop $-1 $-1 $303 $120 #
plane-surface $-1 0 -34.087464777756679 0 0 1 0 0 0 1 forward_v I I I I #
coedge $-1 $304 $305 $306 $307 forward $121 $-1 #
coedge $-1 $308 $123 $309 $310 forward $76 $-1 #
coedge $-1 $123 $308 $311 $312 forward $76 $-1 #
coedge $-1 $313 $314 $123 $195 reversed $315 $-1 #
edge $-1 $316 -34.087464777756679 $317 34.087464777756679 $194 $318 forward 7 unknown #
face $-1 $319 $320 $46 $-1 $321 forward single #
loop $-1 $-1 $322 $124 #
plane-surface $-1 54.336375011444446 0 0 -1 0 0 0 0 1 forward_v I I I I #
coedge $-1 $323 $324 $325 $326 forward $125 $-1 #
coedge $-1 $325 $127 $322 $327 reversed $79 $-1 #
coedge $-1 $127 $325 $328 $329 reversed $79 $-1 #
coedge $-1 $330 $331 $127 $203 reversed $320 $-1 #
edge $-1 $332 -54.336375011444446 $333 54.336375011444446 $202 $334 forward 7 unknown #
face $-1 $335 $336 $47 $-1 $337 reversed single #
loop $-1 $-1 $338 $128 #
plane-surface $-1 0 40.351653480625558 -9.0090465976480552 0 0 1 1 0 0 forward_v I I I I #
coedge $-1 $339 $340 $208 $341 forward $129 $-1 #
coedge $-1 $342 $131 $207 $341 reversed $82 $-1 #
coedge $-1 $131 $342 $343 $344 reversed $82 $-1 #
coedge $-1 $338 $345 $131 $211 reversed $205 $-1 #
edge $-1 $346 -54.336375011444446 $347 54.336375011444446 $210 $348 forward 7 unknown #
face $-1 $349 $350 $48 $-1 $351 forward single #
loop $-1 $-1 $352 $132 #
plane-surface $-1 40.9417175422236 -7.0833360074462846 156.17395709598836 0 1 0 0.64278761758704617 0 0.76604443648966558 forward_v I I I I #
coedge $-1 $353 $354 $355 $356 reversed $133 $-1 #
coedge $-1 $217 $135 $357 $358 reversed $85 $-1 #
coedge $-1 $135 $216 $353 $359 reversed $85 $-1 #
coedge $-1 $355 $360 $135 $219 forward $350 $-1 #
edge $-1 $361 -33.865516240332646 $362 -20.737229777858808 $218 $363 forward 7 unknown #
loop $-1 $-1 $225 $136 #
plane-surface $-1 -28.911780541621766 -3.5416680037231423 72.925801542922144 0.64278761758704617 0 0.76604443648966558 0.76604443648966558 0 -0.64278761758704617 forward_v I I I I #
loop $-1 $-1 $364 $87 #
coedge $-1 $223 $223 $224 $365 reversed $137 $-1 #
coedge $-1 $224 $224 $223 $365 forward $139 $-1 #
coedge $-1 $225 $225 $140 $226 forward $220 $-1 #
edge $-1 $366 0 $366 6.2831853071796004 $225 $367 forward 7 unknown #
loop $-1 $-1 $232 $141 #
plane-surface $-1 -28.911780541621766 -3.5416680037231423 72.925801542922144 0.64278761758704617 0 0.76604443648966558 0.76604443648966558 0 -0.64278761758704617 forward_v I I I I #
loop $-1 $-1 $368 $90 #
coedge $-1 $230 $230 $231 $369 reversed $142 $-1 #
coedge $-1 $231 $231 $230 $369 forward $144 $-1 #
coedge $-1 $232 $232 $145 $233 forward $227 $-1 #
edge $-1 $370 0 $370 6.2831853071796004 $232 $371 forward 7 unknown #
face $-1 $372 $373 $51 $-1 $374 forward single #
loop $-1 $-1 $375 $146 #
plane-surface $-1 0 0 14.088244018456674 0 0 1 1 0 0 forward_v I I I I #
coedge $-1 $376 $377 $378 $379 reversed $147 $-1 #
coedge $-1 $239 $149 $380 $381 reversed $94 $-1 #
coedge $-1 $149 $238 $375 $382 reversed $94 $-1 #
coedge $-1 $383 $384 $149 $241 forward $385 $-1 #
edge $-1 $386 -75.0146750889174 $387 -63.998734529537501 $240 $388 forward 7 unknown #
loop $-1 $-1 $247 $150 #
plane-surface $-1 -28.911780541621766 -3.5416680037231423 72.925801542922144 0.64278761758704617 0 0.76604443648966558 0.76604443648966558 0 -0.64278761758704617 forward_v I I I I #
loop $-1 $-1 $389 $96 #
coedge $-1 $245 $245 $246 $390 reversed $151 $-1 #
coedge $-1 $246 $246 $245 $390 forward $153 $-1 #
coedge $-1 $247 $247 $154 $248 forward $242 $-1 #
edge $-1 $391 0 $391 6.2831853071796004 $247 $392 forward 7 unknown #
loop $-1 $-1 $254 $155 #
plane-surface $-1 -28.911780541621766 -3.5416680037231423 72.925801542922144 0.64278761758704617 0 0.76604443648966558 0.76604443648966558 0 -0.64278761758704617 forward_v I I I I #
loop $-1 $-1 $393 $99 #
coedge $-1 $252 $252 $253 $394 reversed $156 $-1 #
coedge $-1 $253 $253 $252 $394 forward $158 $-1 #
coedge $-1 $254 $254 $159 $255 forward $249 $-1 #
edge $-1 $395 0 $395 6.2831853071796004 $254 $396 forward 7 unknown #
face $-1 $397 $398 $54 $-1 $399 reversed single #
loop $-1 $-1 $400 $160 #
plane-surface $-1 -124.18987309528983 0 86.320459012142976 0 -1 0 0.64278761758704617 0 -0.76604443648966558 forward_v I I I I #
coedge $-1 $401 $402 $403 $404 reversed $161 $-1 #
coedge $-1 $261 $163 $405 $406 reversed $103 $-1 #
coedge $-1 $163 $260 $401 $407 reversed $103 $-1 #
coedge $-1 $403 $408 $163 $263 forward $409 $-1 #
edge $-1 $410 7.7585615362004674 $411 20.886847998674298 $262 $412 forward 7 unknown #
loop $-1 $-1 $269 $164 #
plane-surface $-1 -54.33637501144446 -3.5416680037231423 3.0723034590767639 -0.64278761758704617 0 0.76604443648966558 0.76604443648966558 0 0.64278761758704617 forward_v I I I I #
loop $-1 $-1 $413 $105 #
coedge $-1 $267 $267 $268 $414 reversed $165 $-1 #
coedge $-1 $268 $268 $267 $414 forward $167 $-1 #
coedge $-1 $269 $269 $168 $270 forward $264 $-1 #
edge $-1 $415 0 $415 6.2831853071796004 $269 $416 forward 7 unknown #
loop $-1 $-1 $276 $169 #
plane-surface $-1 -54.33637501144446 -3.5416680037231423 3.0723034590767639 -0.64278761758704617 0 0.76604443648966558 0.76604443648966558 0 0.64278761758704617 forward_v I I I I #
loop $-1 $-1 $417 $108 #
coedge $-1 $274 $274 $275 $418 reversed $170 $-1 #
coedge $-1 $275 $275 $274 $418 forward $172 $-1 #
coedge $-1 $276 $276 $173 $277 forward $271 $-1 #
edge $-1 $419 0 $419 6.2831853071796004 $276 $420 forward 7 unknown #
face $-1 $421 $422 $57 $-1 $423 forward single #
loop $-1 $-1 $424 $174 #
plane-surface $-1 -54.336375011444446 0 0 1 0 0 0 0 -1 forward_v I I I I #
coedge $-1 $425 $426 $427 $428 reversed $175 $-1 #
coedge $-1 $429 $177 $430 $431 reversed $112 $-1 #
coedge $-1 $177 $429 $432 $433 reversed $112 $-1 #
coedge $-1 $434 $435 $177 $285 forward $422 $-1 #
edge $-1 $436 1.8593432412625586e-014 $437 17.137760992865008 $284 $438 forward 7 unknown #
loop $-1 $-1 $291 $178 #
plane-surface $-1 -54.33637501144446 -3.5416680037231423 3.0723034590767639 -0.64278761758704617 0 0.76604443648966558 0.76604443648966558 0 0.64278761758704617 forward_v I I I I #
loop $-1 $-1 $439 $114 #
coedge $-1 $289 $289 $290 $440 reversed $179 $-1 #
coedge $-1 $290 $290 $289 $440 forward $181 $-1 #
coedge $-1 $291 $291 $182 $292 forward $286 $-1 #
edge $-1 $441 0 $441 6.2831853071796004 $291 $442 forward 7 unknown #
loop $-1 $-1 $298 $183 #
plane-surface $-1 -54.33637501144446 -3.5416680037231423 3.0723034590767639 -0.64278761758704617 0 0.76604443648966558 0.76604443648966558 0 0.64278761758704617 forward_v I I I I #
loop $-1 $-1 $443 $117 #
coedge $-1 $296 $296 $297 $444 reversed $184 $-1 #
coedge $-1 $297 $297 $296 $444 forward $186 $-1 #
coedge $-1 $298 $298 $187 $299 forward $293 $-1 #
edge $-1 $445 0 $445 6.2831853071796004 $298 $446 forward 7 unknown #
face $-1 $447 $448 $45 $-1 $449 reversed single #
loop $-1 $-1 $450 $188 #
plane-surface $-1 -54.336375011444446 0 0 1 0 0 0 0 -1 forward_v I I I I #
coedge $-1 $311 $451 $313 $452 reversed $189 $-1 #
coedge $-1 $453 $191 $451 $454 forward $121 $-1 #
coedge $-1 $191 $453 $455 $456 forward $121 $-1 #
coedge $-1 $314 $313 $191 $307 reversed $315 $-1 #
edge $-1 $457 -34.087464777756679 $458 34.087464777756679 $306 $459 forward 7 unknown #
coedge $-1 $193 $192 $460 $461 forward $76 $-1 #
coedge $-1 $462 $463 $192 $310 reversed $448 $-1 #
edge $-1 $317 -54.336375011444446 $464 54.336375011444446 $309 $465 forward 7 unknown #
coedge $-1 $466 $303 $193 $312 reversed $189 $-1 #
edge $-1 $467 -54.336375011444446 $316 54.336375011444446 $311 $468 forward 7 unknown #
coedge $-1 $306 $194 $303 $452 forward $315 $-1 #
coedge $-1 $194 $306 $462 $469 reversed $315 $-1 #
loop $-1 $-1 $313 $447 #
vertex $-1 $195 $470 #
vertex $-1 $195 $471 #
straight-curve $-1 54.336375011444446 0 14.088244018456674 0 1 0 I I #
face $-1 $472 $473 $46 $-1 $474 reversed single #
loop $-1 $-1 $331 $196 #
plane-surface $-1 0 -40.351653480625558 -9.0090465976480552 0 0 1 1 0 0 forward_v I I I I #
coedge $-1 $475 $476 $200 $327 forward $197 $-1 #
coedge $-1 $477 $199 $476 $478 forward $125 $-1 #
coedge $-1 $199 $477 $479 $480 forward $125 $-1 #
coedge $-1 $201 $200 $199 $326 reversed $79 $-1 #
edge $-1 $481 -54.336375011444446 $482 54.336375011444446 $199 $483 forward 7 unknown #
edge $-1 $482 -14.088244018456674 $333 -9.0090465976480552 $322 $484 forward 7 unknown #
coedge $-1 $479 $485 $201 $329 forward $486 $-1 #
edge $-1 $332 9.0090465976480552 $481 14.088244018456674 $328 $487 forward 7 unknown #
coedge $-1 $488 $202 $485 $489 forward $320 $-1 #
coedge $-1 $202 $488 $475 $490 forward $320 $-1 #
vertex $-1 $329 $491 #
vertex $-1 $490 $492 #
straight-curve $-1 0 -34.087464777756679 -9.0090465976480552 1 0 0 I I #
face $-1 $493 $494 $47 $-1 $495 reversed single #
loop $-1 $-1 $496 $204 #
plane-surface $-1 0 46.615842183494436 -11.548645308052365 0 -1 0 0 0 -1 forward_v I I I I #
coedge $-1 $497 $210 $498 $499 forward $205 $-1 #
coedge $-1 $500 $207 $345 $501 reversed $129 $-1 #
coedge $-1 $207 $500 $502 $503 reversed $129 $-1 #
edge $-1 $504 -14.088244018456674 $347 -9.0090465976480552 $207 $505 forward 7 unknown #
coedge $-1 $209 $208 $506 $507 reversed $82 $-1 #
coedge $-1 $508 $498 $209 $344 forward $509 $-1 #
edge $-1 $346 9.0090465976480552 $510 14.088244018456674 $343 $511 forward 7 unknown #
coedge $-1 $210 $497 $339 $501 forward $205 $-1 #
vertex $-1 $344 $512 #
vertex $-1 $501 $513 #
straight-curve $-1 0 34.087464777756679 -9.0090465976480552 -1 0 0 I I #
face $-1 $-1 $514 $48 $-1 $515 reversed single #
loop $-1 $-1 $218 $212 #
plane-surface $-1 0 0 14.088244018456674 0 0 1 1 0 0 forward_v I I I I #
coedge $-1 $516 $517 $518 $519 reversed $213 $-1 #
coedge $-1 $520 $215 $217 $359 forward $133 $-1 #
coedge $-1 $215 $520 $516 $521 forward $133 $-1 #
coedge $-1 $518 $218 $215 $356 forward $350 $-1 #
edge $-1 $362 -1.7708340018615711 $522 5.3125020055847134 $355 $523 forward 7 unknown #
coedge $-1 $524 $525 $216 $358 forward $514 $-1 #
edge $-1 $526 -75.0146750889174 $361 -63.998734529537501 $357 $527 forward 7 unknown #
edge $-1 $362 91.534989030023894 $526 108.67275002288889 $217 $528 forward 7 unknown #
coedge $-1 $218 $518 $524 $529 forward $350 $-1 #
vertex $-1 $358 $530 #
vertex $-1 $219 $531 #
straight-curve $-1 20.4708587711118 0 14.088244018456678 -1 0 0 I I #
coedge $-1 $364 $364 $-1 $532 reversed $222 $-1 #
edge $-1 $533 0 $533 6.2831853071796004 $223 $534 forward 7 unknown #
vertex $-1 $226 $535 #
ellipse-curve $-1 47.772231780207534 -5.0595257196044905 8.5802737387667385 0.64278761758704617 0 0.76604443648966558 0.38302221824483279 0 -0.32139380879352308 1 I I #
coedge $-1 $368 $368 $-1 $536 reversed $229 $-1 #
edge $-1 $537 0 $537 6.2831853071796004 $230 $538 forward 7 unknown #
vertex $-1 $233 $539 #
ellipse-curve $-1 47.772231780207534 -2.0238102878417976 8.5802737387667385 0.64278761758704617 0 0.76604443648966558 0.38302221824483279 0 -0.32139380879352308 1 I I #
face $-1 $-1 $385 $51 $-1 $540 reversed single #
loop $-1 $-1 $541 $234 #
plane-surface $-1 40.9417175422236 0 156.17395709598836 0 -1 0 -0.64278761758704617 0 -0.76604443648966558 forward_v I I I I #
coedge $-1 $542 $543 $239 $382 forward $235 $-1 #
coedge $-1 $380 $237 $542 $544 reversed $147 $-1 #
coedge $-1 $237 $380 $384 $545 reversed $147 $-1 #
coedge $-1 $546 $541 $237 $379 forward $373 $-1 #
edge $-1 $547 91.534989030023894 $548 108.67275002288889 $378 $549 forward 7 unknown #
coedge $-1 $377 $376 $238 $381 forward $147 $-1 #
edge $-1 $550 91.534989030023894 $386 108.67275002288889 $238 $551 forward 7 unknown #
edge $-1 $387 -33.865516240332646 $550 -20.737229777858808 $375 $552 forward 7 unknown #
coedge $-1 $553 $240 $543 $554 reversed $385 $-1 #
coedge $-1 $240 $553 $377 $545 forward $385 $-1 #
loop $-1 $-1 $240 $372 #
vertex $-1 $241 $555 #
vertex $-1 $241 $556 #
straight-curve $-1 54.336375011444446 7.0833360074462881 78.086978547994178 0 0 1 I I #
coedge $-1 $389 $389 $-1 $557 reversed $244 $-1 #
edge $-1 $558 0 $558 6.2831853071796004 $245 $559 forward 7 unknown #
vertex $-1 $248 $560 #
ellipse-curve $-1 47.772231780207534 2.0238102878417976 8.5802737387667385 0.64278761758704617 0 0.76604443648966558 0.38302221824483279 0 -0.32139380879352308 1 I I #
coedge $-1 $393 $393 $-1 $561 reversed $251 $-1 #
edge $-1 $562 0 $562 6.2831853071796004 $252 $563 forward 7 unknown #
vertex $-1 $255 $564 #
ellipse-curve $-1 47.772231780207534 5.0595257196044869 8.5802737387667385 0.64278761758704617 0 0.76604443648966558 0.38302221824483279 0 -0.32139380879352308 1 I I #
face $-1 $-1 $409 $54 $-1 $565 forward single #
loop $-1 $-1 $566 $256 #
plane-surface $-1 -54.336375011444446 0 0 1 0 0 0 0 -1 forward_v I I I I #
coedge $-1 $567 $568 $569 $570 reversed $257 $-1 #
coedge $-1 $571 $259 $261 $407 forward $161 $-1 #
coedge $-1 $259 $571 $567 $572 forward $161 $-1 #
coedge $-1 $569 $262 $259 $404 forward $409 $-1 #
edge $-1 $411 -5.3125020055847134 $573 1.7708340018615711 $403 $574 forward 7 unknown #
coedge $-1 $575 $576 $260 $406 forward $398 $-1 #
edge $-1 $577 -40.08792604699471 $410 -29.071985487614814 $405 $578 forward 7 unknown #
edge $-1 $411 -17.137760992865008 $577 -1.8593432412625586e-014 $261 $579 forward 7 unknown #
coedge $-1 $262 $569 $575 $580 forward $409 $-1 #
loop $-1 $-1 $569 $397 #
vertex $-1 $406 $581 #
vertex $-1 $263 $582 #
straight-curve $-1 -62.094936547644913 -7.0833360074462846 14.08824401845667 1 0 0 I I #
coedge $-1 $413 $413 $-1 $583 reversed $266 $-1 #
edge $-1 $584 0 $584 6.2831853071796004 $267 $585 forward 7 unknown #
vertex $-1 $270 $586 #
ellipse-curve $-1 -47.772231780207527 -5.0595257196044905 8.5802737387667243 -0.64278761758704617 0 0.76604443648966558 0.38302221824483279 0 0.32139380879352308 1 I I #
coedge $-1 $417 $417 $-1 $587 reversed $273 $-1 #
edge $-1 $588 0 $588 6.2831853071796004 $274 $589 forward 7 unknown #
vertex $-1 $277 $590 #
ellipse-curve $-1 -47.772231780207527 -2.0238102878417976 8.5802737387667243 -0.64278761758704617 0 0.76604443648966558 0.38302221824483279 0 0.32139380879352308 1 I I #
face $-1 $-1 $591 $57 $-1 $592 forward single #
loop $-1 $-1 $434 $278 #
plane-surface $-1 -124.18987309528983 0 86.320459012142976 0 -1 0 0.64278761758704617 0 -0.76604443648966558 forward_v I I I I #
coedge $-1 $430 $593 $426 $594 forward $279 $-1 #
coedge $-1 $426 $281 $429 $595 reversed $175 $-1 #
coedge $-1 $281 $425 $424 $594 reversed $175 $-1 #
coedge $-1 $596 $432 $281 $428 forward $591 $-1 #
edge $-1 $597 -20.886847998674298 $598 -7.7585615362004674 $427 $599 forward 7 unknown #
coedge $-1 $283 $282 $425 $595 forward $112 $-1 #
coedge $-1 $600 $424 $282 $431 forward $279 $-1 #
edge $-1 $601 -8.8541700093078592 $436 -1.7708340018615711 $430 $602 forward 7 unknown #
coedge $-1 $427 $603 $283 $433 forward $591 $-1 #
edge $-1 $437 1.7708340018615711 $597 8.8541700093078592 $432 $604 forward 7 unknown #
coedge $-1 $435 $284 $603 $605 reversed $422 $-1 #
coedge $-1 $284 $434 $600 $606 reversed $422 $-1 #
vertex $-1 $431 $607 #
vertex $-1 $433 $608 #
straight-curve $-1 -54.33637501144446 0 3.0723034590767639 0.76604443648966558 0 0.64278761758704617 I I #
coedge $-1 $439 $439 $-1 $609 reversed $288 $-1 #
edge $-1 $610 0 $610 6.2831853071796004 $289 $611 forward 7 unknown #
vertex $-1 $292 $612 #
ellipse-curve $-1 -47.772231780207527 2.0238102878417976 8.5802737387667243 -0.64278761758704617 0 0.76604443648966558 0.38302221824483279 0 0.32139380879352308 1 I I #
coedge $-1 $443 $443 $-1 $613 reversed $295 $-1 #
edge $-1 $614 0 $614 6.2831853071796004 $296 $615 forward 7 unknown #
vertex $-1 $299 $616 #
ellipse-curve $-1 -47.772231780207527 5.0595257196044869 8.5802737387667243 -0.64278761758704617 0 0.76604443648966558 0.38302221824483279 0 0.32139380879352308 1 I I #
face $-1 $-1 $315 $45 $-1 $617 reversed single #
loop $-1 $-1 $463 $300 #
plane-surface $-1 0 34.087464777756679 0 0 -1 0 0 0 -1 forward_v I I I I #
coedge $-1 $618 $460 $463 $619 forward $301 $-1 #
coedge $-1 $303 $466 $304 $454 reversed $189 $-1 #
edge $-1 $316 -14.088244018456674 $458 14.088244018456674 $313 $620 forward 7 unknown #
coedge $-1 $305 $304 $618 $621 forward $121 $-1 #
edge $-1 $458 -54.336375011444446 $622 54.336375011444446 $451 $623 forward 7 unknown #
coedge $-1 $463 $462 $305 $456 reversed $448 $-1 #
edge $-1 $624 -54.336375011444446 $457 54.336375011444446 $455 $625 forward 7 unknown #
vertex $-1 $307 $626 #
vertex $-1 $452 $627 #
straight-curve $-1 54.336375011444446 0 -14.088244018456674 0 -1 0 I I #
coedge $-1 $450 $628 $308 $461 reversed $301 $-1 #
edge $-1 $464 -34.087464777756679 $467 34.087464777756679 $460 $629 forward 7 unknown #
coedge $-1 $455 $309 $314 $469 forward $448 $-1 #
coedge $-1 $309 $455 $450 $619 reversed $448 $-1 #
vertex $-1 $310 $630 #
straight-curve $-1 0 34.087464777756679 14.088244018456674 -1 0 0 I I #
coedge $-1 $451 $311 $628 $631 forward $189 $-1 #
vertex $-1 $461 $632 #
straight-curve $-1 0 -34.087464777756679 14.088244018456674 1 0 0 I I #
edge $-1 $317 -14.088244018456674 $457 14.088244018456674 $314 $633 forward 7 unknown #
point $-1 54.336375011444446 -34.087464777756679 14.088244018456674 #
point $-1 54.336375011444446 34.087464777756679 14.088244018456674 #
face $-1 $-1 $486 $46 $-1 $634 reversed single #
loop $-1 $-1 $635 $319 #
plane-surface $-1 0 -46.615842183494436 -11.548645308052365 0 1 0 0 0 1 forward_v I I I I #
coedge $-1 $636 $322 $331 $490 reversed $197 $-1 #
coedge $-1 $322 $636 $323 $478 reversed $197 $-1 #
coedge $-1 $324 $323 $637 $638 forward $125 $-1 #
edge $-1 $482 34.087464777756679 $639 46.615842183494436 $476 $640 forward 7 unknown #
coedge $-1 $641 $328 $324 $480 reversed $486 $-1 #
edge $-1 $642 -46.615842183494436 $481 -34.087464777756679 $479 $643 forward 7 unknown #
vertex $-1 $329 $644 #
vertex $-1 $478 $645 #
straight-curve $-1 0 -34.087464777756679 -14.088244018456674 1 0 0 I I #
straight-curve $-1 54.336375011444446 -34.087464777756679 0 0 0 1 I I #
coedge $-1 $328 $641 $330 $489 reversed $486 $-1 #
loop $-1 $-1 $328 $472 #
straight-curve $-1 -54.336375011444446 -34.087464777756679 0 0 0 -1 I I #
coedge $-1 $331 $330 $646 $647 forward $320 $-1 #
edge $-1 $332 -6.2641887028688785 $648 6.2641887028688785 $485 $649 forward 7 unknown #
edge $-1 $650 -6.2641887028688785 $333 6.2641887028688785 $475 $651 forward 7 unknown #
point $-1 -54.336375011444446 -34.087464777756679 -9.0090465976480552 #
point $-1 54.336375011444446 -34.087464777756679 -9.0090465976480552 #
face $-1 $-1 $509 $47 $-1 $652 reversed single #
loop $-1 $-1 $506 $335 #
plane-surface $-1 0 0 -14.088244018456674 0 0 1 1 0 0 forward_v I I I I #
coedge $-1 $653 $654 $655 $656 forward $336 $-1 #
coedge $-1 $345 $338 $654 $657 forward $205 $-1 #
coedge $-1 $343 $655 $338 $499 reversed $509 $-1 #
edge $-1 $346 -6.2641887028688785 $658 6.2641887028688785 $498 $659 forward 7 unknown #
coedge $-1 $340 $339 $660 $661 forward $129 $-1 #
edge $-1 $662 -6.2641887028688785 $347 6.2641887028688785 $339 $663 forward 7 unknown #
coedge $-1 $664 $506 $340 $503 forward $494 $-1 #
edge $-1 $504 -6.2641887028688785 $665 6.2641887028688785 $340 $666 forward 7 unknown #
vertex $-1 $503 $667 #
straight-curve $-1 -54.336375011444446 34.087464777756679 0 0 0 1 I I #
coedge $-1 $502 $668 $342 $507 forward $494 $-1 #
edge $-1 $510 -54.336375011444446 $504 54.336375011444446 $506 $669 forward 7 unknown #
coedge $-1 $655 $343 $668 $670 reversed $509 $-1 #
loop $-1 $-1 $343 $493 #
vertex $-1 $344 $671 #
straight-curve $-1 54.336375011444446 34.087464777756679 0 0 0 -1 I I #
point $-1 54.336375011444446 34.087464777756679 -9.0090465976480552 #
point $-1 -54.336375011444446 34.087464777756679 -9.0090465976480552 #
loop $-1 $-1 $357 $349 #
plane-surface $-1 54.336375011444446 0 0 -1 0 0 0 0 1 forward_v I I I I #
coedge $-1 $517 $352 $354 $521 reversed $213 $-1 #
coedge $-1 $352 $516 $672 $673 reversed $213 $-1 #
coedge $-1 $360 $355 $352 $519 forward $350 $-1 #
edge $-1 $522 20.737229777858808 $674 33.865516240332646 $518 $675 forward 7 unknown #
coedge $-1 $354 $353 $525 $676 reversed $133 $-1 #
edge $-1 $677 -108.67275002288889 $522 -91.534989030023894 $516 $678 forward 7 unknown #
vertex $-1 $356 $679 #
straight-curve $-1 41.208088548970608 -1.7708340018615711 14.088244018456678 0 -1 0 I I #
coedge $-1 $672 $357 $360 $529 reversed $514 $-1 #
coedge $-1 $357 $672 $520 $676 forward $514 $-1 #
vertex $-1 $358 $680 #
straight-curve $-1 54.336375011444446 0 78.086978547994178 0 0 1 I I #
straight-curve $-1 -28.911780541621766 0 72.925801542922144 0.76604443648966558 0 -0.64278761758704617 I I #
edge $-1 $674 -7.0833360074462846 $361 0 $524 $681 forward 7 unknown #
point $-1 54.336375011444446 0 14.088244018456674 #
point $-1 41.208088548970608 0 14.088244018456678 #
edge $-1 $682 1 $682 0 $364 $-1 forward 7 unknown #
vertex $-1 $365 $683 #
ellipse-curve $-1 46.615569134802797 -5.0595257196044905 7.2018169045578482 0.64278761758704617 0 0.76604443648966558 0.38302221824483279 0 -0.32139380879352308 1 I I #
point $-1 48.155253998452345 -5.0595257196044905 8.2588799299731921 #
edge $-1 $684 1 $684 0 $368 $-1 forward 7 unknown #
vertex $-1 $369 $685 #
ellipse-curve $-1 46.615569134802797 -2.0238102878417976 7.2018169045578482 0.64278761758704617 0 0.76604443648966558 0.38302221824483279 0 -0.32139380879352308 1 I I #
point $-1 48.155253998452345 -2.0238102878417976 8.2588799299731921 #
plane-surface $-1 54.336375011444446 0 0 -1 0 0 0 0 1 forward_v I I I I #
coedge $-1 $378 $546 $686 $687 reversed $373 $-1 #
coedge $-1 $686 $375 $376 $544 forward $235 $-1 #
coedge $-1 $375 $686 $383 $554 forward $235 $-1 #
edge $-1 $550 -8.8541700093078592 $547 -1.7708340018615711 $542 $688 forward 7 unknown #
edge $-1 $548 1.7708340018615711 $386 8.8541700093078592 $384 $689 forward 7 unknown #
coedge $-1 $541 $378 $553 $690 reversed $373 $-1 #
vertex $-1 $544 $691 #
vertex $-1 $545 $692 #
straight-curve $-1 -28.911780541621766 0 72.925801542922144 0.76604443648966558 0 -0.64278761758704617 I I #
vertex $-1 $382 $693 #
straight-curve $-1 -28.911780541621766 7.0833360074462881 72.925801542922144 0.76604443648966558 0 -0.64278761758704617 I I #
straight-curve $-1 20.4708587711118 7.0833360074462881 14.088244018456678 -1 0 0 I I #
coedge $-1 $384 $383 $546 $690 forward $385 $-1 #
edge $-1 $694 0 $387 7.0833360074462881 $383 $695 forward 7 unknown #
point $-1 54.336375011444446 7.0833360074462881 3.0723034590767782 #
point $-1 54.336375011444446 7.0833360074462881 14.088244018456674 #
edge $-1 $696 1 $696 0 $389 $-1 forward 7 unknown #
vertex $-1 $390 $697 #
ellipse-curve $-1 46.615569134802797 2.0238102878417976 7.2018169045578482 0.64278761758704617 0 0.76604443648966558 0.38302221824483279 0 -0.32139380879352308 1 I I #
point $-1 48.155253998452345 2.0238102878417976 8.2588799299731921 #
edge $-1 $698 1 $698 0 $393 $-1 forward 7 unknown #
vertex $-1 $394 $699 #
ellipse-curve $-1 46.615569134802797 5.0595257196044869 7.2018169045578482 0.64278761758704617 0 0.76604443648966558 0.38302221824483279 0 -0.32139380879352308 1 I I #
point $-1 48.155253998452345 5.0595257196044869 8.2588799299731921 #
plane-surface $-1 0 0 14.088244018456674 0 0 1 1 0 0 forward_v I I I I #
coedge $-1 $576 $575 $568 $700 forward $398 $-1 #
coedge $-1 $568 $400 $402 $572 reversed $257 $-1 #
coedge $-1 $400 $567 $566 $700 reversed $257 $-1 #
coedge $-1 $408 $403 $400 $570 forward $409 $-1 #
edge $-1 $573 -20.886847998674298 $701 -7.7585615362004674 $569 $702 forward 7 unknown #
coedge $-1 $402 $401 $576 $703 reversed $161 $-1 #
edge $-1 $704 1.8593432412625586e-014 $573 17.137760992865008 $567 $705 forward 7 unknown #
vertex $-1 $404 $706 #
straight-curve $-1 -41.208088548970615 -1.7708340018615711 14.088244018456674 0 1 0 I I #
coedge $-1 $566 $405 $408 $580 reversed $398 $-1 #
coedge $-1 $405 $566 $571 $703 forward $398 $-1 #
vertex $-1 $406 $707 #
straight-curve $-1 -54.336375011444446 -7.0833360074462846 43.160229506071488 0 0 1 I I #
straight-curve $-1 -54.33637501144446 -7.0833360074462846 3.0723034590767639 -0.76604443648966558 0 -0.64278761758704617 I I #
edge $-1 $701 0 $410 7.0833360074462846 $575 $708 forward 7 unknown #
point $-1 -54.336375011444446 -7.0833360074462846 14.088244018456674 #
point $-1 -41.208088548970615 -7.0833360074462846 14.088244018456674 #
edge $-1 $709 1 $709 0 $413 $-1 forward 7 unknown #
vertex $-1 $414 $710 #
ellipse-curve $-1 -46.615569134802804 -5.0595257196044905 7.2018169045578482 -0.64278761758704617 0 0.76604443648966558 0.38302221824483279 0 0.32139380879352308 1 I I #
point $-1 -47.389209561962687 -5.0595257196044905 8.9016675475602387 #
edge $-1 $711 1 $711 0 $417 $-1 forward 7 unknown #
vertex $-1 $418 $712 #
ellipse-curve $-1 -46.615569134802804 -2.0238102878417976 7.2018169045578482 -0.64278761758704617 0 0.76604443648966558 0.38302221824483279 0 0.32139380879352308 1 I I #
point $-1 -47.389209561962687 -2.0238102878417976 8.9016675475602387 #
loop $-1 $-1 $427 $421 #
plane-surface $-1 0 0 14.088244018456674 0 0 1 1 0 0 forward_v I I I I #
coedge $-1 $424 $600 $596 $713 reversed $279 $-1 #
edge $-1 $598 29.071985487614814 $601 40.08792604699471 $424 $714 forward 7 unknown #
edge $-1 $601 1.8593432412625586e-014 $597 17.137760992865008 $425 $715 forward 7 unknown #
coedge $-1 $603 $427 $593 $713 forward $591 $-1 #
vertex $-1 $428 $716 #
vertex $-1 $713 $717 #
straight-curve $-1 -62.094936547644913 7.0833360074462881 14.08824401845667 -1 0 0 I I #
coedge $-1 $593 $430 $435 $606 forward $279 $-1 #
vertex $-1 $594 $718 #
straight-curve $-1 -54.336375011444446 -1.7708340018615711 3.0723034590767755 0 -1 0 I I #
coedge $-1 $432 $596 $434 $605 forward $591 $-1 #
straight-curve $-1 -41.208088548970615 -1.7708340018615711 14.088244018456674 0 1 0 I I #
edge $-1 $719 7.7585615362004674 $437 20.886847998674298 $603 $720 forward 7 unknown #
edge $-1 $436 -40.08792604699471 $719 -29.071985487614814 $600 $721 forward 7 unknown #
point $-1 -54.336375011444446 0 3.0723034590767759 #
point $-1 -41.208088548970615 0 14.088244018456674 #
edge $-1 $722 1 $722 0 $439 $-1 forward 7 unknown #
vertex $-1 $440 $723 #
ellipse-curve $-1 -46.615569134802804 2.0238102878417976 7.2018169045578482 -0.64278761758704617 0 0.76604443648966558 0.38302221824483279 0 0.32139380879352308 1 I I #
point $-1 -47.389209561962687 2.0238102878417976 8.9016675475602387 #
edge $-1 $724 1 $724 0 $443 $-1 forward 7 unknown #
vertex $-1 $444 $725 #
ellipse-curve $-1 -46.615569134802804 5.0595257196044869 7.2018169045578482 -0.64278761758704617 0 0.76604443648966558 0.38302221824483279 0 0.32139380879352308 1 I I #
point $-1 -47.389209561962687 5.0595257196044869 8.9016675475602387 #
plane-surface $-1 54.336375011444446 0 0 -1 0 0 0 0 1 forward_v I I I I #
coedge $-1 $628 $450 $453 $621 reversed $301 $-1 #
edge $-1 $464 -14.088244018456674 $624 14.088244018456674 $463 $726 forward 7 unknown #
straight-curve $-1 54.336375011444446 -34.087464777756679 0 0 0 -1 I I #
edge $-1 $622 -34.087464777756679 $624 34.087464777756679 $618 $727 forward 7 unknown #
vertex $-1 $621 $728 #
straight-curve $-1 0 -34.087464777756679 -14.088244018456674 -1 0 0 I I #
vertex $-1 $456 $729 #
straight-curve $-1 0 34.087464777756679 -14.088244018456674 1 0 0 I I #
point $-1 54.336375011444446 34.087464777756679 -14.088244018456674 #
point $-1 54.336375011444446 -34.087464777756679 -14.088244018456674 #
coedge $-1 $460 $618 $466 $631 reversed $301 $-1 #
straight-curve $-1 -54.336375011444446 0 14.088244018456674 0 -1 0 I I #
point $-1 -54.336375011444446 34.087464777756679 14.088244018456674 #
edge $-1 $467 -14.088244018456674 $622 14.088244018456674 $628 $730 forward 7 unknown #
point $-1 -54.336375011444446 -34.087464777756679 14.088244018456674 #
straight-curve $-1 54.336375011444446 34.087464777756679 0 0 0 -1 I I #
plane-surface $-1 -54.336375011444446 0 0 1 0 0 0 0 -1 forward_v I I I I #
coedge $-1 $637 $646 $641 $731 forward $473 $-1 #
coedge $-1 $476 $475 $732 $733 forward $197 $-1 #
coedge $-1 $732 $635 $477 $638 reversed $473 $-1 #
edge $-1 $639 -54.336375011444446 $642 54.336375011444446 $637 $734 forward 7 unknown #
vertex $-1 $733 $735 #
straight-curve $-1 54.336375011444446 0 -14.088244018456674 0 -1 0 I I #
coedge $-1 $485 $479 $635 $731 reversed $486 $-1 #
vertex $-1 $480 $736 #
straight-curve $-1 -54.336375011444446 0 -14.088244018456674 0 1 0 I I #
point $-1 -54.336375011444446 -34.087464777756679 -14.088244018456674 #
point $-1 54.336375011444446 -34.087464777756679 -14.088244018456674 #
coedge $-1 $635 $732 $488 $647 reversed $473 $-1 #
edge $-1 $648 -54.336375011444446 $650 54.336375011444446 $646 $737 forward 7 unknown #
vertex $-1 $489 $738 #
straight-curve $-1 -54.336375011444446 -40.351653480625558 -9.0090465976480552 0 -1 0 I I #
vertex $-1 $490 $739 #
straight-curve $-1 54.336375011444446 -40.351653480625558 -9.0090465976480552 0 1 0 I I #
plane-surface $-1 54.336375011444446 0 0 -1 0 0 0 0 1 forward_v I I I I #
coedge $-1 $660 $496 $664 $740 reversed $336 $-1 #
coedge $-1 $496 $660 $497 $657 reversed $336 $-1 #
coedge $-1 $498 $508 $496 $656 reversed $509 $-1 #
edge $-1 $658 -2.5395987104043094 $741 2.5395987104043094 $655 $742 forward 7 unknown #
edge $-1 $658 -54.336375011444446 $662 54.336375011444446 $654 $743 forward 7 unknown #
vertex $-1 $499 $744 #
straight-curve $-1 54.336375011444446 40.351653480625558 -9.0090465976480552 0 1 0 I I #
coedge $-1 $654 $653 $500 $661 reversed $336 $-1 #
edge $-1 $662 -2.5395987104043094 $665 2.5395987104043094 $660 $745 forward 7 unknown #
vertex $-1 $657 $746 #
straight-curve $-1 -54.336375011444446 40.351653480625558 -9.0090465976480552 0 -1 0 I I #
coedge $-1 $668 $502 $653 $740 forward $494 $-1 #
vertex $-1 $740 $747 #
straight-curve $-1 -54.336375011444446 40.351653480625558 -14.088244018456674 0 1 0 I I #
point $-1 -54.336375011444446 34.087464777756679 -14.088244018456674 #
coedge $-1 $506 $664 $508 $670 forward $494 $-1 #
straight-curve $-1 0 34.087464777756679 -14.088244018456674 -1 0 0 I I #
edge $-1 $741 -46.615842183494436 $510 -34.087464777756679 $508 $748 forward 7 unknown #
point $-1 54.336375011444446 34.087464777756679 -14.088244018456674 #
coedge $-1 $525 $524 $517 $673 forward $514 $-1 #
edge $-1 $674 63.998734529537501 $677 75.0146750889174 $672 $749 forward 7 unknown #
vertex $-1 $529 $750 #
straight-curve $-1 20.4708587711118 -7.0833360074462846 14.088244018456678 1 0 0 I I #
edge $-1 $677 -5.3125020055847134 $526 1.7708340018615711 $525 $751 forward 7 unknown #
vertex $-1 $676 $752 #
straight-curve $-1 -28.911780541621766 -7.0833360074462846 72.925801542922144 -0.76604443648966558 0 0.64278761758704617 I I #
point $-1 41.208088548970608 -7.0833360074462846 14.088244018456678 #
point $-1 54.336375011444446 0 3.0723034590767782 #
straight-curve $-1 54.336375011444446 0 14.088244018456674 0 1 0 I I #
vertex $-1 $532 $753 #
point $-1 46.998591353047637 -5.0595257196044905 6.8804230957643249 #
vertex $-1 $536 $754 #
point $-1 46.998591353047637 -2.0238102878417976 6.8804230957643249 #
coedge $-1 $543 $542 $541 $687 forward $235 $-1 #
edge $-1 $547 20.737229777858808 $694 33.865516240332646 $686 $755 forward 7 unknown #
straight-curve $-1 41.208088548970608 -1.7708340018615711 14.088244018456678 0 -1 0 I I #
straight-curve $-1 54.336375011444439 -1.7708340018615711 3.0723034590767853 0 1 0 I I #
edge $-1 $694 63.998734529537501 $548 75.0146750889174 $553 $756 forward 7 unknown #
point $-1 41.208088548970608 0 14.088244018456678 #
point $-1 54.336375011444446 0 3.0723034590767782 #
point $-1 41.208088548970608 7.0833360074462881 14.088244018456678 #
vertex $-1 $554 $757 #
straight-curve $-1 54.336375011444446 0 14.088244018456674 0 1 0 I I #
vertex $-1 $557 $758 #
point $-1 46.998591353047637 2.0238102878417976 6.8804230957643249 #
vertex $-1 $561 $759 #
point $-1 46.998591353047637 5.0595257196044869 6.8804230957643249 #
edge $-1 $701 29.071985487614814 $704 40.08792604699471 $566 $760 forward 7 unknown #
vertex $-1 $580 $761 #
straight-curve $-1 -62.094936547644913 0 14.08824401845667 -1 0 0 I I #
edge $-1 $704 -1.7708340018615711 $577 5.3125020055847134 $576 $762 forward 7 unknown #
vertex $-1 $703 $763 #
straight-curve $-1 -54.33637501144446 0 3.0723034590767639 0.76604443648966558 0 0.64278761758704617 I I #
point $-1 -41.208088548970615 0 14.088244018456674 #
point $-1 -54.336375011444446 -7.0833360074462846 3.0723034590767759 #
straight-curve $-1 -54.336375011444446 0 14.088244018456674 0 -1 0 I I #
vertex $-1 $583 $764 #
point $-1 -46.232546916557972 -5.0595257196044905 7.5232107133513715 #
vertex $-1 $587 $765 #
point $-1 -46.232546916557972 -2.0238102878417976 7.5232107133513715 #
edge $-1 $598 -7.0833360074462881 $719 0 $593 $766 forward 7 unknown #
straight-curve $-1 -54.336375011444446 7.0833360074462881 43.160229506071488 0 0 -1 I I #
straight-curve $-1 -54.33637501144446 7.0833360074462881 3.0723034590767639 0.76604443648966558 0 0.64278761758704617 I I #
point $-1 -41.208088548970615 7.0833360074462881 14.088244018456674 #
point $-1 -54.336375011444446 7.0833360074462881 14.088244018456674 #
point $-1 -54.336375011444446 7.0833360074462881 3.0723034590767759 #
vertex $-1 $606 $767 #
straight-curve $-1 -62.094936547644913 0 14.08824401845667 1 0 0 I I #
straight-curve $-1 -54.336375011444446 0 43.160229506071488 0 0 1 I I #
vertex $-1 $609 $768 #
point $-1 -46.232546916557972 2.0238102878417976 7.5232107133513715 #
vertex $-1 $613 $769 #
point $-1 -46.232546916557972 5.0595257196044869 7.5232107133513715 #
straight-curve $-1 -54.336375011444446 34.087464777756679 0 0 0 -1 I I #
straight-curve $-1 -54.336375011444446 0 -14.088244018456674 0 1 0 I I #
point $-1 -54.336375011444446 -34.087464777756679 -14.088244018456674 #
point $-1 -54.336375011444446 34.087464777756679 -14.088244018456674 #
straight-curve $-1 -54.336375011444446 -34.087464777756679 0 0 0 -1 I I #
edge $-1 $648 -2.5395987104043094 $642 2.5395987104043094 $641 $770 forward 7 unknown #
coedge $-1 $646 $637 $636 $733 reversed $473 $-1 #
edge $-1 $650 -2.5395987104043094 $639 2.5395987104043094 $636 $771 forward 7 unknown #
straight-curve $-1 0 -46.615842183494436 -14.088244018456674 -1 0 0 I I #
point $-1 54.336375011444446 -46.615842183494436 -14.088244018456674 #
point $-1 -54.336375011444446 -46.615842183494436 -14.088244018456674 #
straight-curve $-1 0 -46.615842183494436 -9.0090465976480552 1 0 0 I I #
point $-1 -54.336375011444446 -46.615842183494436 -9.0090465976480552 #
point $-1 54.336375011444446 -46.615842183494436 -9.0090465976480552 #
edge $-1 $665 -54.336375011444446 $741 54.336375011444446 $653 $772 forward 7 unknown #
vertex $-1 $670 $773 #
straight-curve $-1 54.336375011444446 46.615842183494436 -11.548645308052365 0 0 -1 I I #
straight-curve $-1 0 46.615842183494436 -9.0090465976480552 -1 0 0 I I #
point $-1 54.336375011444446 46.615842183494436 -9.0090465976480552 #
straight-curve $-1 -54.336375011444446 46.615842183494436 -11.548645308052365 0 0 -1 I I #
point $-1 -54.336375011444446 46.615842183494436 -9.0090465976480552 #
point $-1 -54.336375011444446 46.615842183494436 -14.088244018456674 #
straight-curve $-1 54.336375011444446 0 -14.088244018456674 0 -1 0 I I #
straight-curve $-1 54.336375011444446 -7.0833360074462846 78.086978547994178 0 0 -1 I I #
point $-1 54.336375011444446 -7.0833360074462846 14.088244018456674 #
straight-curve $-1 54.336375011444439 -1.7708340018615711 3.0723034590767853 0 1 0 I I #
point $-1 54.336375011444446 -7.0833360074462846 3.0723034590767782 #
point $-1 46.294175326009281 -5.0595257196044905 6.8187946863130158 #
point $-1 46.294175326009281 -2.0238102878417976 6.8187946863130158 #
straight-curve $-1 20.4708587711118 0 14.088244018456678 1 0 0 I I #
straight-curve $-1 54.336375011444446 0 78.086978547994178 0 0 -1 I I #
point $-1 54.336375011444446 0 14.088244018456674 #
point $-1 46.294175326009281 2.0238102878417976 6.8187946863130158 #
point $-1 46.294175326009281 5.0595257196044869 6.8187946863130158 #
straight-curve $-1 -54.336375011444446 0 43.160229506071488 0 0 -1 I I #
point $-1 -54.336375011444446 0 14.088244018456674 #
straight-curve $-1 -54.336375011444446 -1.7708340018615711 3.0723034590767755 0 -1 0 I I #
point $-1 -54.336375011444446 0 3.0723034590767759 #
point $-1 -46.294175326009288 -5.0595257196044905 6.8187946863130158 #
point $-1 -46.294175326009288 -2.0238102878417976 6.8187946863130158 #
straight-curve $-1 -54.336375011444446 0 14.088244018456674 0 -1 0 I I #
point $-1 -54.336375011444446 0 14.088244018456674 #
point $-1 -46.294175326009288 2.0238102878417976 6.8187946863130158 #
point $-1 -46.294175326009288 5.0595257196044869 6.8187946863130158 #
straight-curve $-1 -54.336375011444446 -46.615842183494436 -11.548645308052365 0 0 -1 I I #
straight-curve $-1 54.336375011444446 -46.615842183494436 -11.548645308052365 0 0 -1 I I #
straight-curve $-1 0 46.615842183494436 -14.088244018456674 1 0 0 I I #
point $-1 54.336375011444446 46.615842183494436 -14.088244018456674 #
End-of-ACIS-data 