500 0 5 0           
7 Unknown 11 ACIS 5.0 NT 24 Thu Mar 25 17:17:22 1999 
-1 9.9999999999999995e-007 1e-010 
body $-1 $5 $-1 $6 #
body $-1 $7 $-1 $8 #
body $-1 $9 $-1 $10 #
body $-1 $11 $-1 $12 #
body $-1 $13 $-1 $14 #
lump $-1 $-1 $15 $0 #
transform $-1 1 0 0 0 1 0 0 0 1 77.004303109836115 33.322861915226667 10.998059708499719 1 rotate no_reflect no_shear #
lump $-1 $-1 $16 $1 #
transform $-1 1 0 0 0 1 0 0 0 1 77.004303109836115 33.322861915226667 10.998059708499719 1 rotate no_reflect no_shear #
lump $-1 $-1 $17 $2 #
transform $-1 1 0 0 0 1 0 0 0 1 77.004303109836115 33.322861915226667 10.998059708499719 1 rotate no_reflect no_shear #
lump $-1 $-1 $18 $3 #
transform $-1 1 0 0 0 1 0 0 0 1 77.004303109836115 33.322861915226667 10.998059708499719 1 rotate no_reflect no_shear #
lump $-1 $-1 $19 $4 #
transform $-1 1 0 0 0 1 0 0 0 1 77.004303109836115 33.322861915226667 10.998059708499719 1 rotate no_reflect no_shear #
shell $-1 $-1 $-1 $20 $-1 $5 #
shell $-1 $-1 $-1 $21 $-1 $7 #
shell $-1 $-1 $-1 $22 $-1 $9 #
shell $-1 $-1 $-1 $23 $-1 $11 #
shell $-1 $-1 $-1 $24 $-1 $13 #
face $-1 $25 $26 $15 $-1 $27 forward single #
face $-1 $28 $29 $16 $-1 $30 forward single #
face $-1 $31 $32 $17 $-1 $33 forward single #
face $-1 $34 $35 $18 $-1 $36 reversed single #
face $-1 $37 $38 $19 $-1 $39 reversed single #
face $-1 $40 $41 $15 $-1 $42 reversed single #
loop $-1 $-1 $43 $20 #
plane-surface $-1 0 0 10.998059708499719 0 0 1 1 0 0 forward_v I I I I #
face $-1 $44 $45 $16 $-1 $46 forward single #
loop $-1 $-1 $47 $21 #
plane-surface $-1 -69.765077928364477 0 7.5101103424061701 0 0 1 1 0 0 forward_v I I I I #
face $-1 $48 $49 $17 $-1 $50 forward single #
loop $-1 $-1 $51 $22 #
plane-surface $-1 -2.2307689998512217 -149.55463374248194 101.64480782607174 -1 0 0 0 -0.75470958851134928 0.65605901945558964 forward_v I I I I #
face $-1 $52 $53 $18 $-1 $54 reversed single #
loop $-1 $55 $56 $23 #
cone-surface $-1 -18.298067726208544 -27.875351987459535 4.9930194861948323 0 0.75470958851134928 -0.65605901945558964 2 0 0 1 I I 0 1 2 forward I I I I #
face $-1 $57 $58 $19 $-1 $59 reversed single #
loop $-1 $60 $61 $24 #
cone-surface $-1 -8.6576884903941504 -27.875351987459535 4.9930194861948323 0 0.75470958851134928 -0.65605901945558964 2 0 0 1 I I 0 1 2 forward I I I I #
face $-1 $62 $63 $15 $-1 $64 reversed single #
loop $-1 $-1 $65 $25 #
plane-surface $-1 0 0 -10.998059708499719 0 0 1 1 0 0 forward_v I I I I #
coedge $-1 $66 $67 $68 $69 forward $26 $-1 #
face $-1 $70 $71 $16 $-1 $72 forward single #
loop $-1 $-1 $73 $28 #
plane-surface $-1 -62.525852746892838 0 9.2540850254529463 -1 0 0 0 0 1 forward_v I I I I #
coedge $-1 $74 $75 $76 $77 reversed $29 $-1 #
face $-1 $78 $79 $17 $-1 $80 forward single #
loop $-1 $-1 $81 $31 #
plane-surface $-1 -13.477878108301347 -33.322861915226682 0.60607264187154897 0 -0.75470958851134928 0.65605901945558964 1 0 0 forward_v I I I I #
coedge $-1 $82 $83 $84 $85 reversed $32 $-1 #
face $-1 $86 $87 $18 $-1 $88 forward single #
loop $-1 $89 $90 $34 #
cone-surface $-1 -18.298067726208544 -26.189940624218529 3.5279137777484451 0 0.75470958851134928 -0.65605901945558964 1 0 0 1 I I -0.70710678118654735 0.70710678118654768 1 forward I I I I #
loop $-1 $-1 $91 $23 #
coedge $-1 $56 $56 $92 $93 reversed $35 $-1 #
face $-1 $94 $95 $19 $-1 $96 reversed single #
loop $-1 $97 $98 $37 #
cone-surface $-1 -8.6576884903941504 -26.189940624218529 3.5279137777484451 0 0.75470958851134928 -0.65605901945558964 1 0 0 1 I I -0.70710678118654735 0.70710678118654768 1 forward I I I I #
loop $-1 $-1 $99 $24 #
coedge $-1 $61 $61 $100 $101 reversed $38 $-1 #
face $-1 $102 $103 $15 $-1 $104 reversed single #
loop $-1 $-1 $105 $40 #
plane-surface $-1 0 -33.322861915226667 0 0 1 0 0 0 1 forward_v I I I I #
coedge $-1 $106 $107 $108 $109 forward $41 $-1 #
coedge $-1 $110 $43 $111 $112 forward $26 $-1 #
coedge $-1 $43 $110 $113 $114 forward $26 $-1 #
coedge $-1 $115 $116 $43 $69 reversed $117 $-1 #
edge $-1 $118 -33.322861915226667 $119 33.322861915226667 $68 $120 forward 7 unknown #
face $-1 $121 $122 $16 $-1 $123 reversed single #
loop $-1 $-1 $124 $44 #
plane-surface $-1 0 0 10.998059708499719 0 0 1 1 0 0 forward_v I I I I #
coedge $-1 $125 $76 $126 $127 reversed $45 $-1 #
coedge $-1 $128 $47 $129 $130 reversed $29 $-1 #
coedge $-1 $47 $128 $131 $132 reversed $29 $-1 #
coedge $-1 $73 $133 $47 $77 forward $45 $-1 #
edge $-1 $134 -33.322861915226667 $135 33.322861915226667 $76 $136 forward 7 unknown #
face $-1 $137 $138 $17 $-1 $139 forward single #
loop $-1 $-1 $140 $48 #
plane-surface $-1 -24.724987216751472 -149.55463374248194 101.64480782607174 1 0 0 0 0.75470958851134928 -0.65605901945558964 forward_v I I I I #
coedge $-1 $141 $142 $143 $144 reversed $49 $-1 #
coedge $-1 $83 $51 $142 $145 forward $32 $-1 #
coedge $-1 $51 $82 $146 $147 reversed $32 $-1 #
coedge $-1 $148 $143 $51 $85 forward $138 $-1 #
edge $-1 $149 -50.48807126208925 $150 -41.454454956014303 $84 $151 forward 7 unknown #
face $-1 $152 $153 $18 $-1 $154 forward single #
loop $-1 $-1 $155 $52 #
plane-surface $-1 -2.2307689998512217 -149.55463374248194 101.64480782607174 -1 0 0 0 -0.75470958851134928 0.65605901945558964 forward_v I I I I #
loop $-1 $-1 $156 $34 #
coedge $-1 $90 $90 $91 $157 forward $53 $-1 #
coedge $-1 $91 $91 $90 $157 reversed $55 $-1 #
coedge $-1 $92 $92 $56 $93 forward $153 $-1 #
edge $-1 $158 -1.4460093049776591e-016 $158 6.2831853071796004 $92 $159 forward 7 unknown #
face $-1 $160 $161 $19 $-1 $162 reversed single #
loop $-1 $163 $164 $57 #
cone-surface $-1 -18.298067726208544 -27.875351987459535 4.9930194861948323 0 0.75470958851134928 -0.65605901945558964 2 0 0 1 I I 0 1 2 forward I I I I #
loop $-1 $-1 $165 $37 #
coedge $-1 $98 $98 $99 $166 forward $58 $-1 #
coedge $-1 $99 $99 $98 $166 reversed $60 $-1 #
coedge $-1 $100 $100 $61 $101 forward $167 $-1 #
edge $-1 $168 -1.4460093049776591e-016 $168 6.2831853071796004 $100 $169 forward 7 unknown #
face $-1 $170 $171 $15 $-1 $172 reversed single #
loop $-1 $-1 $173 $62 #
plane-surface $-1 -77.004303109836115 0 0 1 0 0 0 0 -1 forward_v I I I I #
coedge $-1 $174 $113 $175 $176 forward $63 $-1 #
coedge $-1 $177 $65 $174 $178 forward $41 $-1 #
coedge $-1 $65 $177 $179 $180 forward $41 $-1 #
coedge $-1 $116 $115 $65 $109 reversed $117 $-1 #
edge $-1 $181 -33.322861915226667 $182 33.322861915226667 $108 $183 forward 7 unknown #
coedge $-1 $67 $66 $184 $185 forward $26 $-1 #
coedge $-1 $186 $187 $66 $112 reversed $171 $-1 #
edge $-1 $119 -77.004303109836115 $188 77.004303109836115 $111 $189 forward 7 unknown #
coedge $-1 $105 $190 $67 $114 reversed $63 $-1 #
edge $-1 $191 -77.004303109836115 $118 77.004303109836115 $113 $192 forward 7 unknown #
coedge $-1 $108 $68 $190 $193 forward $117 $-1 #
coedge $-1 $68 $108 $186 $194 reversed $117 $-1 #
loop $-1 $-1 $115 $170 #
vertex $-1 $69 $195 #
vertex $-1 $69 $196 #
straight-curve $-1 77.004303109836115 0 10.998059708499719 0 1 0 I I #
face $-1 $197 $198 $16 $-1 $199 reversed single #
loop $-1 $-1 $126 $70 #
plane-surface $-1 0 -33.322861915226667 0 0 1 0 0 0 1 forward_v I I I I #
coedge $-1 $200 $201 $125 $202 forward $71 $-1 #
coedge $-1 $133 $73 $124 $202 reversed $45 $-1 #
coedge $-1 $131 $203 $73 $127 forward $122 $-1 #
edge $-1 $204 -6.3710171957732493 $135 -2.883067829679697 $126 $205 forward 7 unknown #
coedge $-1 $75 $74 $206 $207 reversed $29 $-1 #
coedge $-1 $208 $209 $74 $130 forward $210 $-1 #
edge $-1 $211 -42.121764145653877 $134 -27.643313782710599 $129 $212 forward 7 unknown #
coedge $-1 $213 $126 $75 $132 forward $122 $-1 #
edge $-1 $135 27.643313782710599 $214 42.121764145653877 $131 $215 forward 7 unknown #
coedge $-1 $76 $125 $208 $216 reversed $45 $-1 #
vertex $-1 $130 $217 #
vertex $-1 $132 $218 #
straight-curve $-1 -62.525852746892838 0 7.5101103424061701 0 -1 0 I I #
face $-1 $219 $220 $17 $-1 $221 forward single #
loop $-1 $-1 $222 $78 #
plane-surface $-1 0 0 10.998059708499719 0 0 1 1 0 0 forward_v I I I I #
coedge $-1 $223 $224 $222 $225 reversed $79 $-1 #
coedge $-1 $226 $81 $224 $227 reversed $49 $-1 #
coedge $-1 $81 $226 $82 $145 reversed $49 $-1 #
coedge $-1 $84 $222 $81 $144 forward $138 $-1 #
edge $-1 $228 -17.986048162600799 $149 4.5081700542994518 $143 $229 forward 7 unknown #
edge $-1 $149 -13.769517738771777 $230 -2.1640230052520235e-014 $82 $231 forward 7 unknown #
coedge $-1 $232 $233 $83 $147 forward $234 $-1 #
edge $-1 $150 39.824344204536153 $230 50.216331271164307 $146 $235 forward 7 unknown #
coedge $-1 $236 $84 $233 $237 forward $138 $-1 #
vertex $-1 $144 $238 #
vertex $-1 $237 $239 #
straight-curve $-1 -2.2307689998512217 -74.77731687124097 10.998059708499717 0 -1 0 I I #
face $-1 $240 $241 $18 $-1 $242 forward single #
loop $-1 $243 $92 $86 #
plane-surface $-1 -13.477878108301347 -33.322861915226682 0.60607264187154897 0 -0.75470958851134928 0.65605901945558964 1 0 0 forward_v I I I I #
coedge $-1 $244 $245 $246 $247 reversed $87 $-1 #
coedge $-1 $156 $156 $-1 $248 forward $89 $-1 #
edge $-1 $249 0 $249 6.2831853071796004 $90 $250 forward 7 unknown #
vertex $-1 $93 $251 #
ellipse-curve $-1 -18.298067726208544 -28.806053762189197 5.8020661751856384 0 0.75470958851134928 -0.65605901945558964 2 0 0 1 I I #
face $-1 $252 $253 $19 $-1 $254 forward single #
loop $-1 $255 $256 $94 #
cone-surface $-1 -18.298067726208544 -26.189940624218529 3.5279137777484451 0 0.75470958851134928 -0.65605901945558964 1 0 0 1 I I -0.70710678118654735 0.70710678118654768 1 forward I I I I #
loop $-1 $-1 $257 $57 #
coedge $-1 $164 $164 $258 $259 reversed $95 $-1 #
coedge $-1 $165 $165 $-1 $260 forward $97 $-1 #
edge $-1 $261 0 $261 6.2831853071796004 $98 $262 forward 7 unknown #
loop $-1 $263 $100 $252 #
vertex $-1 $101 $264 #
ellipse-curve $-1 -8.6576884903941504 -28.806053762189197 5.8020661751856384 0 0.75470958851134928 -0.65605901945558964 2 0 0 1 I I #
face $-1 $-1 $117 $15 $-1 $265 reversed single #
loop $-1 $-1 $186 $102 #
plane-surface $-1 0 33.322861915226667 0 0 -1 0 0 0 -1 forward_v I I I I #
coedge $-1 $266 $184 $187 $267 forward $103 $-1 #
coedge $-1 $190 $105 $106 $178 reversed $63 $-1 #
coedge $-1 $184 $266 $105 $176 reversed $103 $-1 #
edge $-1 $191 -10.998059708499719 $268 10.998059708499719 $175 $269 forward 7 unknown #
coedge $-1 $107 $106 $266 $270 forward $41 $-1 #
edge $-1 $182 -77.004303109836115 $268 77.004303109836115 $174 $271 forward 7 unknown #
coedge $-1 $187 $186 $107 $180 reversed $171 $-1 #
edge $-1 $272 -77.004303109836115 $181 77.004303109836115 $179 $273 forward 7 unknown #
vertex $-1 $109 $274 #
vertex $-1 $193 $275 #
straight-curve $-1 77.004303109836115 0 -10.998059708499719 0 -1 0 I I #
coedge $-1 $173 $175 $110 $185 reversed $103 $-1 #
edge $-1 $188 -33.322861915226667 $191 33.322861915226667 $184 $276 forward 7 unknown #
coedge $-1 $179 $111 $116 $194 forward $171 $-1 #
coedge $-1 $111 $179 $173 $267 reversed $171 $-1 #
vertex $-1 $112 $277 #
straight-curve $-1 0 33.322861915226667 10.998059708499719 -1 0 0 I I #
coedge $-1 $113 $174 $115 $193 reversed $63 $-1 #
vertex $-1 $185 $278 #
straight-curve $-1 0 -33.322861915226667 10.998059708499719 1 0 0 I I #
edge $-1 $118 -10.998059708499719 $182 10.998059708499719 $115 $279 forward 7 unknown #
edge $-1 $119 -10.998059708499719 $181 10.998059708499719 $116 $280 forward 7 unknown #
point $-1 77.004303109836115 -33.322861915226667 10.998059708499719 #
point $-1 77.004303109836115 33.322861915226667 10.998059708499719 #
face $-1 $281 $282 $16 $-1 $283 reversed single #
loop $-1 $-1 $284 $121 #
plane-surface $-1 0 0 -10.998059708499719 0 0 1 1 0 0 forward_v I I I I #
coedge $-1 $285 $124 $203 $286 forward $71 $-1 #
coedge $-1 $124 $285 $287 $288 forward $71 $-1 #
edge $-1 $289 -33.322861915226667 $204 33.322861915226667 $124 $290 forward 7 unknown #
coedge $-1 $126 $291 $200 $286 reversed $122 $-1 #
vertex $-1 $286 $292 #
straight-curve $-1 -62.525852746892838 -33.322861915226667 4.6270425127264732 0 0 -1 I I #
coedge $-1 $293 $294 $128 $207 forward $282 $-1 #
edge $-1 $214 -33.322861915226667 $211 33.322861915226667 $206 $295 forward 7 unknown #
coedge $-1 $287 $129 $133 $216 forward $210 $-1 #
coedge $-1 $129 $296 $293 $297 reversed $210 $-1 #
loop $-1 $-1 $208 $281 #
vertex $-1 $297 $298 #
straight-curve $-1 -34.882538964182238 33.322861915226667 7.5101103424061701 1 0 0 I I #
coedge $-1 $299 $131 $294 $300 forward $122 $-1 #
vertex $-1 $300 $301 #
straight-curve $-1 -34.882538964182238 -33.322861915226667 7.5101103424061701 -1 0 0 I I #
edge $-1 $134 2.883067829679697 $289 6.3710171957732493 $208 $302 forward 7 unknown #
point $-1 -62.525852746892838 33.322861915226667 7.5101103424061701 #
point $-1 -62.525852746892838 -33.322861915226667 7.5101103424061701 #
face $-1 $303 $304 $17 $-1 $305 forward single #
loop $-1 $-1 $306 $137 #
plane-surface $-1 -69.765077928364477 0 7.5101103424061701 0 0 1 1 0 0 forward_v I I I I #
coedge $-1 $143 $307 $140 $225 forward $138 $-1 #
coedge $-1 $224 $140 $308 $309 reversed $79 $-1 #
coedge $-1 $140 $223 $141 $227 forward $79 $-1 #
edge $-1 $310 41.454454956014303 $228 50.48807126208925 $222 $311 forward 7 unknown #
coedge $-1 $142 $141 $232 $312 reversed $49 $-1 #
edge $-1 $313 2.1640230052520235e-014 $228 13.769517738771777 $224 $314 forward 7 unknown #
vertex $-1 $144 $315 #
straight-curve $-1 -6.7389390541506735 -24.289245609151724 10.998059708499719 1 0 0 I I #
vertex $-1 $312 $316 #
straight-curve $-1 -2.2307689998512217 -33.322861915226682 0.60607264187154897 0 -0.65605901945558964 -0.75470958851134928 I I #
coedge $-1 $308 $146 $226 $312 forward $234 $-1 #
coedge $-1 $146 $317 $148 $237 reversed $234 $-1 #
loop $-1 $-1 $308 $303 #
straight-curve $-1 -2.2307689998512217 -33.322861915226667 50.82240391303587 0 0 -1 I I #
coedge $-1 $318 $148 $319 $320 forward $138 $-1 #
edge $-1 $150 -2.2307689998512217 $321 77.004303109836115 $233 $322 forward 7 unknown #
point $-1 -2.2307689998512217 -24.289245609151724 10.998059708499719 #
point $-1 -2.2307689998512217 -33.322861915226667 10.998059708499719 #
face $-1 $323 $324 $18 $-1 $325 forward single #
loop $-1 $-1 $326 $152 #
plane-surface $-1 -24.724987216751472 -149.55463374248194 101.64480782607174 1 0 0 0 0.75470958851134928 -0.65605901945558964 forward_v I I I I #
loop $-1 $-1 $327 $86 #
coedge $-1 $245 $155 $328 $329 forward $87 $-1 #
coedge $-1 $155 $244 $330 $331 reversed $87 $-1 #
coedge $-1 $332 $333 $155 $247 forward $324 $-1 #
edge $-1 $334 -50.48807126208925 $335 -41.454454956014303 $246 $336 forward 7 unknown #
edge $-1 $337 1 $337 0 $156 $-1 forward 7 unknown #
vertex $-1 $157 $338 #
ellipse-curve $-1 -18.298067726208544 -26.944650212729879 4.183972797204035 0 -0.75470958851134928 0.65605901945558964 2 0 0 1 I I #
point $-1 -16.298067726208544 -28.806053762189187 5.8020661751856295 #
face $-1 $339 $167 $19 $-1 $340 forward single #
loop $-1 $-1 $341 $160 #
plane-surface $-1 -2.2307689998512217 -149.55463374248194 101.64480782607174 -1 0 0 0 -0.75470958851134928 0.65605901945558964 forward_v I I I I #
loop $-1 $-1 $342 $94 #
coedge $-1 $256 $256 $257 $343 forward $161 $-1 #
coedge $-1 $257 $257 $256 $343 reversed $163 $-1 #
coedge $-1 $258 $258 $164 $259 forward $263 $-1 #
edge $-1 $344 -1.4460093049776591e-016 $344 6.2831853071796004 $258 $345 forward 7 unknown #
edge $-1 $346 1 $346 0 $165 $-1 forward 7 unknown #
vertex $-1 $166 $347 #
ellipse-curve $-1 -8.6576884903941504 -26.944650212729879 4.183972797204035 0 -0.75470958851134928 0.65605901945558964 2 0 0 1 I I #
loop $-1 $348 $258 $252 #
point $-1 -6.6576884903941504 -28.806053762189187 5.8020661751856295 #
plane-surface $-1 77.004303109836115 0 0 -1 0 0 0 0 1 forward_v I I I I #
coedge $-1 $175 $173 $177 $270 reversed $103 $-1 #
edge $-1 $188 -10.998059708499719 $272 10.998059708499719 $187 $349 forward 7 unknown #
vertex $-1 $270 $350 #
straight-curve $-1 -77.004303109836115 -33.322861915226667 0 0 0 -1 I I #
edge $-1 $268 -33.322861915226667 $272 33.322861915226667 $266 $351 forward 7 unknown #
straight-curve $-1 0 -33.322861915226667 -10.998059708499719 -1 0 0 I I #
vertex $-1 $180 $352 #
straight-curve $-1 0 33.322861915226667 -10.998059708499719 1 0 0 I I #
point $-1 77.004303109836115 33.322861915226667 -10.998059708499719 #
point $-1 77.004303109836115 -33.322861915226667 -10.998059708499719 #
straight-curve $-1 -77.004303109836115 0 10.998059708499719 0 -1 0 I I #
point $-1 -77.004303109836115 33.322861915226667 10.998059708499719 #
point $-1 -77.004303109836115 -33.322861915226667 10.998059708499719 #
straight-curve $-1 77.004303109836115 -33.322861915226667 0 0 0 -1 I I #
straight-curve $-1 77.004303109836115 33.322861915226667 0 0 0 -1 I I #
face $-1 $353 $210 $16 $-1 $354 reversed single #
loop $-1 $-1 $206 $197 #
plane-surface $-1 -77.004303109836115 0 0 1 0 0 0 0 -1 forward_v I I I I #
coedge $-1 $355 $356 $357 $358 forward $198 $-1 #
coedge $-1 $201 $200 $359 $360 forward $71 $-1 #
edge $-1 $204 -62.525852746892838 $361 77.004303109836115 $203 $362 forward 7 unknown #
coedge $-1 $363 $208 $201 $288 reversed $210 $-1 #
edge $-1 $364 -77.004303109836115 $289 62.525852746892838 $287 $365 forward 7 unknown #
vertex $-1 $202 $366 #
straight-curve $-1 -62.525852746892838 0 10.998059708499719 0 -1 0 I I #
coedge $-1 $203 $299 $367 $368 reversed $122 $-1 #
point $-1 -62.525852746892838 -33.322861915226667 10.998059708499722 #
coedge $-1 $369 $206 $209 $297 forward $282 $-1 #
coedge $-1 $206 $369 $213 $300 reversed $282 $-1 #
straight-curve $-1 -77.004303109836115 0 7.5101103424061701 0 1 0 I I #
coedge $-1 $209 $363 $356 $370 reversed $210 $-1 #
edge $-1 $211 -7.5101103424061701 $371 10.998059708499719 $209 $372 forward 7 unknown #
point $-1 -77.004303109836115 33.322861915226667 7.5101103424061701 #
coedge $-1 $291 $213 $355 $373 reversed $122 $-1 #
edge $-1 $214 -7.5101103424061701 $374 10.998059708499719 $294 $375 forward 7 unknown #
point $-1 -77.004303109836115 -33.322861915226667 7.5101103424061701 #
straight-curve $-1 -62.525852746892838 33.322861915226667 4.6270425127264732 0 0 1 I I #
face $-1 $376 $234 $17 $-1 $377 reversed single #
loop $-1 $-1 $378 $219 #
plane-surface $-1 -62.525852746892838 0 9.2540850254529463 -1 0 0 0 0 1 forward_v I I I I #
coedge $-1 $379 $380 $381 $382 reversed $220 $-1 #
coedge $-1 $222 $383 $384 $385 forward $138 $-1 #
coedge $-1 $384 $232 $223 $309 forward $234 $-1 #
edge $-1 $313 -50.216331271164307 $310 -39.824344204536153 $308 $386 forward 7 unknown #
vertex $-1 $309 $387 #
straight-curve $-1 -24.724987216751472 -74.77731687124097 10.998059708499717 0 1 0 I I #
edge $-1 $230 -4.5081700542994518 $313 17.986048162600799 $232 $388 forward 7 unknown #
vertex $-1 $312 $389 #
straight-curve $-1 -24.724987216751472 -33.322861915226682 0.60607264187154897 0 0.65605901945558964 0.75470958851134928 I I #
point $-1 -24.724987216751472 -24.289245609151724 10.998059708499719 #
point $-1 -2.2307689998512217 -33.322861915226667 0.60607264187156529 #
coedge $-1 $233 $390 $391 $392 reversed $234 $-1 #
coedge $-1 $383 $236 $393 $394 forward $138 $-1 #
coedge $-1 $391 $395 $236 $320 reversed $396 $-1 #
edge $-1 $321 -33.322861915226667 $397 33.322861915226667 $319 $398 forward 7 unknown #
vertex $-1 $320 $399 #
straight-curve $-1 0 -33.322861915226667 10.998059708499719 1 0 0 I I #
face $-1 $400 $401 $18 $-1 $402 forward single #
loop $-1 $-1 $403 $240 #
plane-surface $-1 0 0 10.998059708499719 0 0 1 1 0 0 forward_v I I I I #
coedge $-1 $404 $405 $403 $406 reversed $241 $-1 #
coedge $-1 $407 $328 $333 $408 reversed $243 $-1 #
coedge $-1 $327 $409 $244 $329 reversed $243 $-1 #
edge $-1 $334 -13.769517738771777 $410 -2.1640230052520235e-014 $244 $411 forward 7 unknown #
coedge $-1 $412 $413 $245 $331 forward $414 $-1 #
edge $-1 $335 39.824344204536153 $410 50.216331271164307 $330 $415 forward 7 unknown #
coedge $-1 $416 $246 $413 $417 forward $324 $-1 #
coedge $-1 $246 $403 $327 $408 forward $324 $-1 #
vertex $-1 $408 $418 #
vertex $-1 $417 $419 #
straight-curve $-1 -2.2307689998512217 -74.77731687124097 10.998059708499717 0 -1 0 I I #
vertex $-1 $248 $420 #
point $-1 -16.298067726208544 -26.944650212729879 4.183972797204035 #
face $-1 $421 $422 $19 $-1 $423 forward single #
plane-surface $-1 -13.477878108301347 -33.322861915226682 0.60607264187154897 0 -0.75470958851134928 0.65605901945558964 1 0 0 forward_v I I I I #
coedge $-1 $424 $425 $426 $427 reversed $253 $-1 #
coedge $-1 $342 $342 $-1 $428 forward $255 $-1 #
edge $-1 $429 0 $429 6.2831853071796004 $256 $430 forward 7 unknown #
vertex $-1 $259 $431 #
ellipse-curve $-1 -18.298067726208544 -28.806053762189197 5.8020661751856384 0 0.75470958851134928 -0.65605901945558964 2 0 0 1 I I #
vertex $-1 $260 $432 #
point $-1 -6.6576884903941504 -26.944650212729879 4.183972797204035 #
loop $-1 $-1 $433 $252 #
straight-curve $-1 -77.004303109836115 33.322861915226667 0 0 0 -1 I I #
point $-1 -77.004303109836115 -33.322861915226667 -10.998059708499719 #
straight-curve $-1 -77.004303109836115 0 -10.998059708499719 0 1 0 I I #
point $-1 -77.004303109836115 33.322861915226667 -10.998059708499719 #
face $-1 $-1 $434 $16 $-1 $435 reversed single #
plane-surface $-1 0 33.322861915226667 0 0 -1 0 0 0 -1 forward_v I I I I #
coedge $-1 $436 $284 $299 $373 forward $198 $-1 #
coedge $-1 $284 $436 $296 $370 forward $198 $-1 #
coedge $-1 $437 $367 $284 $358 reversed $434 $-1 #
edge $-1 $438 -33.322861915226667 $439 33.322861915226667 $357 $440 forward 7 unknown #
coedge $-1 $367 $437 $285 $360 reversed $434 $-1 #
edge $-1 $361 -33.322861915226667 $364 33.322861915226667 $359 $441 forward 7 unknown #
vertex $-1 $360 $442 #
straight-curve $-1 0 -33.322861915226667 10.998059708499719 1 0 0 I I #
coedge $-1 $296 $287 $437 $443 forward $210 $-1 #
vertex $-1 $360 $444 #
straight-curve $-1 0 33.322861915226667 10.998059708499719 -1 0 0 I I #
point $-1 -62.525852746892838 33.322861915226667 10.998059708499722 #
coedge $-1 $357 $359 $291 $368 forward $434 $-1 #
edge $-1 $361 -10.998059708499719 $439 10.998059708499719 $367 $445 forward 7 unknown #
coedge $-1 $294 $293 $436 $446 reversed $282 $-1 #
edge $-1 $371 -77.004303109836115 $438 77.004303109836115 $296 $447 forward 7 unknown #
vertex $-1 $370 $448 #
straight-curve $-1 -77.004303109836115 33.322861915226667 0 0 0 -1 I I #
edge $-1 $439 -77.004303109836115 $374 77.004303109836115 $299 $449 forward 7 unknown #
vertex $-1 $446 $450 #
straight-curve $-1 -77.004303109836115 -33.322861915226667 0 0 0 -1 I I #
face $-1 $451 $452 $17 $-1 $453 reversed single #
plane-surface $-1 0 -33.322861915226667 0 0 1 0 0 0 1 forward_v I I I I #
coedge $-1 $454 $381 $455 $456 reversed $304 $-1 #
coedge $-1 $457 $306 $458 $459 reversed $220 $-1 #
coedge $-1 $306 $457 $460 $461 reversed $220 $-1 #
coedge $-1 $378 $462 $306 $382 forward $304 $-1 #
edge $-1 $463 -33.322861915226667 $464 33.322861915226667 $381 $465 forward 7 unknown #
coedge $-1 $307 $318 $454 $466 forward $138 $-1 #
coedge $-1 $455 $308 $307 $385 reversed $234 $-1 #
edge $-1 $467 -62.525852746892838 $310 -24.724987216751472 $384 $322 forward 7 unknown #
straight-curve $-1 -24.724987216751472 -33.322861915226667 50.82240391303587 0 0 1 I I #
point $-1 -24.724987216751472 -33.322861915226667 10.998059708499719 #
straight-curve $-1 -6.7389390541506735 -33.322861915226667 0.60607264187156407 -1 0 0 I I #
point $-1 -24.724987216751472 -33.322861915226667 0.60607264187156529 #
coedge $-1 $317 $468 $469 $470 reversed $234 $-1 #
coedge $-1 $471 $319 $317 $392 forward $396 $-1 #
edge $-1 $321 -10.998059708499719 $472 10.998059708499719 $391 $473 forward 7 unknown #
coedge $-1 $474 $475 $318 $394 reversed $476 $-1 #
edge $-1 $397 -77.004303109836115 $477 62.525852746892838 $393 $478 forward 7 unknown #
coedge $-1 $319 $471 $474 $479 reversed $396 $-1 #
loop $-1 $-1 $391 $480 #
vertex $-1 $320 $481 #
straight-curve $-1 77.004303109836115 0 10.998059708499719 0 1 0 I I #
point $-1 77.004303109836115 -33.322861915226667 10.998059708499719 #
face $-1 $482 $483 $18 $-1 $484 forward single #
loop $-1 $-1 $485 $323 #
plane-surface $-1 -69.765077928364477 0 7.5101103424061701 0 0 1 1 0 0 forward_v I I I I #
coedge $-1 $333 $486 $326 $406 forward $324 $-1 #
coedge $-1 $405 $326 $487 $488 reversed $241 $-1 #
coedge $-1 $326 $404 $407 $489 forward $241 $-1 #
edge $-1 $490 41.454454956014303 $491 50.48807126208925 $403 $492 forward 7 unknown #
coedge $-1 $409 $327 $405 $489 reversed $243 $-1 #
edge $-1 $491 -17.986048162600799 $334 4.5081700542994518 $333 $493 forward 7 unknown #
coedge $-1 $328 $407 $412 $494 reversed $243 $-1 #
vertex $-1 $494 $495 #
straight-curve $-1 -2.2307689998512217 -33.322861915226682 0.60607264187154897 0 -0.65605901945558964 -0.75470958851134928 I I #
coedge $-1 $487 $330 $409 $494 forward $414 $-1 #
coedge $-1 $330 $496 $332 $417 reversed $414 $-1 #
loop $-1 $-1 $487 $482 #
straight-curve $-1 -2.2307689998512217 -33.322861915226667 50.82240391303587 0 0 -1 I I #
coedge $-1 $497 $332 $498 $499 forward $324 $-1 #
edge $-1 $335 -2.2307689998512217 $500 77.004303109836115 $413 $501 forward 7 unknown #
point $-1 -2.2307689998512217 -24.289245609151724 10.998059708499719 #
point $-1 -2.2307689998512217 -33.322861915226667 10.998059708499719 #
point $-1 -18.298067726208544 -25.435231035707179 2.8718547582928551 #
face $-1 $502 $503 $19 $-1 $504 forward single #
loop $-1 $-1 $505 $339 #
plane-surface $-1 -24.724987216751472 -149.55463374248194 101.64480782607174 1 0 0 0 0.75470958851134928 -0.65605901945558964 forward_v I I I I #
coedge $-1 $425 $341 $506 $507 forward $253 $-1 #
coedge $-1 $341 $424 $508 $509 reversed $253 $-1 #
coedge $-1 $510 $511 $341 $427 forward $503 $-1 #
edge $-1 $512 -50.48807126208925 $513 -41.454454956014303 $426 $514 forward 7 unknown #
edge $-1 $515 1 $515 0 $342 $-1 forward 7 unknown #
vertex $-1 $343 $516 #
ellipse-curve $-1 -18.298067726208544 -26.944650212729879 4.183972797204035 0 -0.75470958851134928 0.65605901945558964 2 0 0 1 I I #
point $-1 -16.298067726208544 -28.806053762189187 5.8020661751856295 #
point $-1 -8.6576884903941504 -25.435231035707179 2.8718547582928551 #
coedge $-1 $517 $506 $511 $518 reversed $348 $-1 #
loop $-1 $-1 $367 $353 #
plane-surface $-1 77.004303109836115 0 0 -1 0 0 0 0 1 forward_v I I I I #
coedge $-1 $356 $355 $369 $446 forward $198 $-1 #
coedge $-1 $359 $357 $363 $443 reversed $434 $-1 #
vertex $-1 $358 $519 #
vertex $-1 $368 $520 #
straight-curve $-1 77.004303109836115 0 -10.998059708499719 0 -1 0 I I #
straight-curve $-1 77.004303109836115 0 10.998059708499719 0 1 0 I I #
point $-1 77.004303109836115 -33.322861915226667 10.998059708499719 #
edge $-1 $364 -10.998059708499719 $438 10.998059708499719 $437 $521 forward 7 unknown #
point $-1 77.004303109836115 33.322861915226667 10.998059708499719 #
straight-curve $-1 77.004303109836115 -33.322861915226667 0 0 0 -1 I I #
edge $-1 $374 -33.322861915226667 $371 33.322861915226667 $369 $522 forward 7 unknown #
straight-curve $-1 0 33.322861915226667 -10.998059708499719 1 0 0 I I #
point $-1 -77.004303109836115 33.322861915226667 -10.998059708499719 #
straight-curve $-1 0 -33.322861915226667 -10.998059708499719 -1 0 0 I I #
point $-1 -77.004303109836115 -33.322861915226667 -10.998059708499719 #
face $-1 $523 $524 $17 $-1 $525 reversed single #
loop $-1 $-1 $526 $376 #
plane-surface $-1 0 0 -10.998059708499719 0 0 1 1 0 0 forward_v I I I I #
coedge $-1 $462 $378 $383 $466 reversed $304 $-1 #
coedge $-1 $460 $384 $378 $456 forward $234 $-1 #
edge $-1 $467 -6.3710171957732493 $464 -2.883067829679697 $455 $527 forward 7 unknown #
coedge $-1 $380 $379 $528 $529 reversed $220 $-1 #
coedge $-1 $475 $530 $379 $459 forward $476 $-1 #
edge $-1 $531 -42.121764145653877 $463 -27.643313782710599 $458 $532 forward 7 unknown #
coedge $-1 $468 $455 $380 $461 forward $234 $-1 #
edge $-1 $464 27.643313782710599 $533 42.121764145653877 $460 $534 forward 7 unknown #
coedge $-1 $381 $454 $475 $535 reversed $304 $-1 #
vertex $-1 $459 $536 #
vertex $-1 $461 $537 #
straight-curve $-1 -62.525852746892838 0 7.5101103424061701 0 -1 0 I I #
edge $-1 $477 -33.322861915226667 $467 33.322861915226667 $383 $538 forward 7 unknown #
vertex $-1 $385 $539 #
coedge $-1 $390 $460 $540 $541 forward $234 $-1 #
coedge $-1 $542 $526 $390 $470 forward $452 $-1 #
edge $-1 $472 -77.004303109836115 $543 77.004303109836115 $390 $544 forward 7 unknown #
coedge $-1 $395 $391 $526 $545 reversed $396 $-1 #
vertex $-1 $392 $546 #
straight-curve $-1 77.004303109836115 -33.322861915226667 0 0 0 -1 I I #
coedge $-1 $547 $393 $395 $479 forward $476 $-1 #
coedge $-1 $393 $458 $462 $535 forward $476 $-1 #
loop $-1 $-1 $475 $523 #
vertex $-1 $466 $548 #
straight-curve $-1 0 33.322861915226667 10.998059708499719 -1 0 0 I I #
edge $-1 $397 -10.998059708499719 $549 10.998059708499719 $395 $550 forward 7 unknown #
face $-1 $-1 $396 $17 $-1 $551 reversed single #
point $-1 77.004303109836115 33.322861915226667 10.998059708499719 #
face $-1 $552 $414 $18 $-1 $553 reversed single #
loop $-1 $-1 $554 $400 #
plane-surface $-1 -62.525852746892838 0 9.2540850254529463 -1 0 0 0 0 1 forward_v I I I I #
coedge $-1 $555 $556 $557 $558 reversed $401 $-1 #
coedge $-1 $403 $559 $560 $561 forward $324 $-1 #
coedge $-1 $560 $412 $404 $488 forward $414 $-1 #
edge $-1 $562 -50.216331271164307 $490 -39.824344204536153 $487 $563 forward 7 unknown #
edge $-1 $562 2.1640230052520235e-014 $491 13.769517738771777 $405 $564 forward 7 unknown #
vertex $-1 $488 $565 #
vertex $-1 $408 $566 #
straight-curve $-1 -24.724987216751472 -74.77731687124097 10.998059708499717 0 1 0 I I #
straight-curve $-1 -6.7389390541506735 -24.289245609151724 10.998059708499719 1 0 0 I I #
edge $-1 $410 -4.5081700542994518 $562 17.986048162600799 $412 $567 forward 7 unknown #
point $-1 -2.2307689998512217 -33.322861915226667 0.60607264187156529 #
coedge $-1 $413 $568 $569 $570 reversed $414 $-1 #
coedge $-1 $559 $416 $571 $572 forward $324 $-1 #
coedge $-1 $569 $573 $416 $499 reversed $574 $-1 #
edge $-1 $500 -33.322861915226667 $575 33.322861915226667 $498 $576 forward 7 unknown #
vertex $-1 $499 $577 #
straight-curve $-1 0 -33.322861915226667 10.998059708499719 1 0 0 I I #
face $-1 $578 $579 $19 $-1 $580 forward single #
loop $-1 $-1 $581 $421 #
plane-surface $-1 0 0 10.998059708499719 0 0 1 1 0 0 forward_v I I I I #
coedge $-1 $582 $583 $581 $584 reversed $422 $-1 #
coedge $-1 $433 $585 $424 $507 reversed $348 $-1 #
edge $-1 $512 -13.769517738771777 $586 -2.1640230052520235e-014 $424 $587 forward 7 unknown #
coedge $-1 $588 $589 $425 $509 forward $590 $-1 #
edge $-1 $513 39.824344204536153 $586 50.216331271164307 $508 $591 forward 7 unknown #
coedge $-1 $592 $426 $589 $593 forward $503 $-1 #
coedge $-1 $426 $581 $433 $518 forward $503 $-1 #
vertex $-1 $518 $594 #
vertex $-1 $593 $595 #
straight-curve $-1 -2.2307689998512217 -74.77731687124097 10.998059708499717 0 -1 0 I I #
vertex $-1 $428 $596 #
point $-1 -16.298067726208544 -26.944650212729879 4.183972797204035 #
coedge $-1 $585 $433 $583 $597 reversed $348 $-1 #
edge $-1 $598 -17.986048162600799 $512 4.5081700542994518 $511 $599 forward 7 unknown #
point $-1 77.004303109836115 33.322861915226667 -10.998059708499719 #
point $-1 77.004303109836115 -33.322861915226667 -10.998059708499719 #
straight-curve $-1 77.004303109836115 33.322861915226667 0 0 0 -1 I I #
straight-curve $-1 -77.004303109836115 0 -10.998059708499719 0 1 0 I I #
face $-1 $480 $476 $17 $-1 $600 reversed single #
loop $-1 $-1 $528 $451 #
plane-surface $-1 -77.004303109836115 0 0 1 0 0 0 0 -1 forward_v I I I I #
coedge $-1 $469 $601 $471 $545 forward $452 $-1 #
straight-curve $-1 -62.525852746892838 -33.322861915226667 4.6270425127264732 0 0 -1 I I #
coedge $-1 $602 $540 $457 $529 forward $524 $-1 #
edge $-1 $533 -33.322861915226667 $531 33.322861915226667 $528 $603 forward 7 unknown #
coedge $-1 $458 $547 $602 $604 reversed $476 $-1 #
vertex $-1 $604 $605 #
straight-curve $-1 -34.882538964182238 33.322861915226667 7.5101103424061701 1 0 0 I I #
vertex $-1 $541 $606 #
straight-curve $-1 -34.882538964182238 -33.322861915226667 7.5101103424061701 -1 0 0 I I #
edge $-1 $463 2.883067829679697 $477 6.3710171957732493 $475 $607 forward 7 unknown #
point $-1 -62.525852746892838 33.322861915226667 7.5101103424061701 #
point $-1 -62.525852746892838 -33.322861915226667 7.5101103424061701 #
straight-curve $-1 -62.525852746892838 0 10.998059708499719 0 -1 0 I I #
point $-1 -62.525852746892838 -33.322861915226667 10.998059708499722 #
coedge $-1 $528 $608 $468 $541 reversed $524 $-1 #
edge $-1 $533 -7.5101103424061701 $543 10.998059708499719 $540 $609 forward 7 unknown #
coedge $-1 $601 $469 $608 $610 forward $452 $-1 #
vertex $-1 $610 $611 #
straight-curve $-1 0 -33.322861915226667 -10.998059708499719 -1 0 0 I I #
edge $-1 $549 -33.322861915226667 $472 33.322861915226667 $471 $612 forward 7 unknown #
point $-1 77.004303109836115 -33.322861915226667 -10.998059708499719 #
coedge $-1 $530 $474 $601 $613 reversed $476 $-1 #
point $-1 -62.525852746892838 33.322861915226667 10.998059708499722 #
vertex $-1 $545 $614 #
straight-curve $-1 77.004303109836115 33.322861915226667 0 0 0 -1 I I #
plane-surface $-1 77.004303109836115 0 0 -1 0 0 0 0 1 forward_v I I I I #
face $-1 $615 $616 $18 $-1 $617 reversed single #
plane-surface $-1 0 -33.322861915226667 0 0 1 0 0 0 1 forward_v I I I I #
coedge $-1 $618 $557 $619 $620 reversed $483 $-1 #
coedge $-1 $621 $485 $622 $623 reversed $401 $-1 #
coedge $-1 $485 $621 $624 $625 reversed $401 $-1 #
coedge $-1 $554 $626 $485 $558 forward $483 $-1 #
edge $-1 $627 -33.322861915226667 $628 33.322861915226667 $557 $629 forward 7 unknown #
coedge $-1 $486 $497 $618 $630 forward $324 $-1 #
coedge $-1 $619 $487 $486 $561 reversed $414 $-1 #
edge $-1 $631 -62.525852746892838 $490 -24.724987216751472 $560 $501 forward 7 unknown #
vertex $-1 $494 $632 #
straight-curve $-1 -24.724987216751472 -33.322861915226667 50.82240391303587 0 0 1 I I #
straight-curve $-1 -24.724987216751472 -33.322861915226682 0.60607264187154897 0 0.65605901945558964 0.75470958851134928 I I #
point $-1 -24.724987216751472 -33.322861915226667 10.998059708499719 #
point $-1 -24.724987216751472 -24.289245609151724 10.998059708499719 #
straight-curve $-1 -6.7389390541506735 -33.322861915226667 0.60607264187156407 -1 0 0 I I #
coedge $-1 $496 $633 $634 $635 reversed $414 $-1 #
coedge $-1 $636 $498 $496 $570 forward $574 $-1 #
edge $-1 $500 -10.998059708499719 $637 10.998059708499719 $569 $638 forward 7 unknown #
coedge $-1 $639 $640 $497 $572 reversed $641 $-1 #
edge $-1 $575 -77.004303109836115 $642 62.525852746892838 $571 $643 forward 7 unknown #
coedge $-1 $498 $636 $639 $644 reversed $574 $-1 #
loop $-1 $-1 $569 $645 #
vertex $-1 $499 $646 #
straight-curve $-1 77.004303109836115 0 10.998059708499719 0 1 0 I I #
point $-1 77.004303109836115 -33.322861915226667 10.998059708499719 #
face $-1 $647 $648 $19 $-1 $649 forward single #
loop $-1 $-1 $650 $502 #
plane-surface $-1 -69.765077928364477 0 7.5101103424061701 0 0 1 1 0 0 forward_v I I I I #
coedge $-1 $511 $651 $505 $584 forward $503 $-1 #
coedge $-1 $583 $505 $652 $653 reversed $422 $-1 #
coedge $-1 $505 $582 $517 $597 forward $422 $-1 #
edge $-1 $654 41.454454956014303 $598 50.48807126208925 $581 $655 forward 7 unknown #
coedge $-1 $506 $517 $588 $656 reversed $348 $-1 #
vertex $-1 $656 $657 #
straight-curve $-1 -2.2307689998512217 -33.322861915226682 0.60607264187154897 0 -0.65605901945558964 -0.75470958851134928 I I #
coedge $-1 $652 $508 $585 $656 forward $590 $-1 #
coedge $-1 $508 $658 $510 $593 reversed $590 $-1 #
loop $-1 $-1 $652 $647 #
straight-curve $-1 -2.2307689998512217 -33.322861915226667 50.82240391303587 0 0 -1 I I #
coedge $-1 $659 $510 $660 $661 forward $503 $-1 #
edge $-1 $513 -2.2307689998512217 $662 77.004303109836115 $589 $663 forward 7 unknown #
point $-1 -2.2307689998512217 -24.289245609151724 10.998059708499719 #
point $-1 -2.2307689998512217 -33.322861915226667 10.998059708499719 #
point $-1 -18.298067726208544 -25.435231035707179 2.8718547582928551 #
edge $-1 $664 2.1640230052520235e-014 $598 13.769517738771777 $583 $665 forward 7 unknown #
vertex $-1 $518 $666 #
straight-curve $-1 -6.7389390541506735 -24.289245609151724 10.998059708499719 1 0 0 I I #
plane-surface $-1 0 33.322861915226667 0 0 -1 0 0 0 -1 forward_v I I I I #
coedge $-1 $526 $542 $547 $613 forward $452 $-1 #
coedge $-1 $608 $528 $530 $604 forward $524 $-1 #
straight-curve $-1 -77.004303109836115 0 7.5101103424061701 0 1 0 I I #
edge $-1 $531 -7.5101103424061701 $667 10.998059708499719 $530 $668 forward 7 unknown #
point $-1 -77.004303109836115 33.322861915226667 7.5101103424061701 #
point $-1 -77.004303109836115 -33.322861915226667 7.5101103424061701 #
straight-curve $-1 -62.525852746892838 33.322861915226667 4.6270425127264732 0 0 1 I I #
coedge $-1 $540 $602 $542 $610 reversed $524 $-1 #
straight-curve $-1 -77.004303109836115 -33.322861915226667 0 0 0 -1 I I #
edge $-1 $543 -33.322861915226667 $667 33.322861915226667 $608 $669 forward 7 unknown #
point $-1 -77.004303109836115 -33.322861915226667 -10.998059708499719 #
straight-curve $-1 77.004303109836115 0 -10.998059708499719 0 -1 0 I I #
edge $-1 $667 -77.004303109836115 $549 77.004303109836115 $547 $670 forward 7 unknown #
point $-1 77.004303109836115 33.322861915226667 -10.998059708499719 #
face $-1 $671 $672 $18 $-1 $673 reversed single #
loop $-1 $-1 $674 $552 #
plane-surface $-1 0 0 -10.998059708499719 0 0 1 1 0 0 forward_v I I I I #
coedge $-1 $626 $554 $559 $630 reversed $483 $-1 #
coedge $-1 $624 $560 $554 $620 forward $414 $-1 #
edge $-1 $631 -6.3710171957732493 $628 -2.883067829679697 $619 $675 forward 7 unknown #
coedge $-1 $556 $555 $676 $677 reversed $401 $-1 #
coedge $-1 $640 $678 $555 $623 forward $641 $-1 #
edge $-1 $679 -42.121764145653877 $627 -27.643313782710599 $622 $680 forward 7 unknown #
coedge $-1 $633 $619 $556 $625 forward $414 $-1 #
edge $-1 $628 27.643313782710599 $681 42.121764145653877 $624 $682 forward 7 unknown #
coedge $-1 $557 $618 $640 $683 reversed $483 $-1 #
vertex $-1 $623 $684 #
vertex $-1 $625 $685 #
straight-curve $-1 -62.525852746892838 0 7.5101103424061701 0 -1 0 I I #
edge $-1 $642 -33.322861915226667 $631 33.322861915226667 $559 $686 forward 7 unknown #
vertex $-1 $561 $687 #
point $-1 -24.724987216751472 -33.322861915226667 0.60607264187156529 #
coedge $-1 $568 $624 $688 $689 forward $414 $-1 #
coedge $-1 $690 $674 $568 $635 forward $616 $-1 #
edge $-1 $637 -77.004303109836115 $691 77.004303109836115 $568 $692 forward 7 unknown #
coedge $-1 $573 $569 $674 $693 reversed $574 $-1 #
vertex $-1 $570 $694 #
straight-curve $-1 77.004303109836115 -33.322861915226667 0 0 0 -1 I I #
coedge $-1 $695 $571 $573 $644 forward $641 $-1 #
coedge $-1 $571 $622 $626 $683 forward $641 $-1 #
loop $-1 $-1 $640 $671 #
vertex $-1 $630 $696 #
straight-curve $-1 0 33.322861915226667 10.998059708499719 -1 0 0 I I #
edge $-1 $575 -10.998059708499719 $697 10.998059708499719 $573 $698 forward 7 unknown #
face $-1 $-1 $574 $18 $-1 $699 reversed single #
point $-1 77.004303109836115 33.322861915226667 10.998059708499719 #
face $-1 $700 $590 $19 $-1 $701 reversed single #
loop $-1 $-1 $702 $578 #
plane-surface $-1 -62.525852746892838 0 9.2540850254529463 -1 0 0 0 0 1 forward_v I I I I #
coedge $-1 $703 $704 $705 $706 reversed $579 $-1 #
coedge $-1 $581 $707 $708 $709 forward $503 $-1 #
coedge $-1 $708 $588 $582 $653 forward $590 $-1 #
edge $-1 $664 -50.216331271164307 $654 -39.824344204536153 $652 $710 forward 7 unknown #
vertex $-1 $653 $711 #
straight-curve $-1 -24.724987216751472 -74.77731687124097 10.998059708499717 0 1 0 I I #
edge $-1 $586 -4.5081700542994518 $664 17.986048162600799 $588 $712 forward 7 unknown #
point $-1 -2.2307689998512217 -33.322861915226667 0.60607264187156529 #
coedge $-1 $589 $713 $714 $715 reversed $590 $-1 #
coedge $-1 $707 $592 $716 $717 forward $503 $-1 #
coedge $-1 $714 $718 $592 $661 reversed $719 $-1 #
edge $-1 $662 -33.322861915226667 $720 33.322861915226667 $660 $721 forward 7 unknown #
vertex $-1 $661 $722 #
straight-curve $-1 0 -33.322861915226667 10.998059708499719 1 0 0 I I #
vertex $-1 $656 $723 #
straight-curve $-1 -24.724987216751472 -33.322861915226682 0.60607264187154897 0 0.65605901945558964 0.75470958851134928 I I #
point $-1 -24.724987216751472 -24.289245609151724 10.998059708499719 #
vertex $-1 $613 $724 #
straight-curve $-1 -77.004303109836115 33.322861915226667 0 0 0 -1 I I #
straight-curve $-1 -77.004303109836115 0 -10.998059708499719 0 1 0 I I #
straight-curve $-1 0 33.322861915226667 -10.998059708499719 1 0 0 I I #
face $-1 $645 $641 $18 $-1 $725 reversed single #
loop $-1 $-1 $676 $615 #
plane-surface $-1 -77.004303109836115 0 0 1 0 0 0 0 -1 forward_v I I I I #
coedge $-1 $634 $726 $636 $693 forward $616 $-1 #
straight-curve $-1 -62.525852746892838 -33.322861915226667 4.6270425127264732 0 0 -1 I I #
coedge $-1 $727 $688 $621 $677 forward $672 $-1 #
edge $-1 $681 -33.322861915226667 $679 33.322861915226667 $676 $728 forward 7 unknown #
coedge $-1 $622 $695 $727 $729 reversed $641 $-1 #
vertex $-1 $729 $730 #
straight-curve $-1 -34.882538964182238 33.322861915226667 7.5101103424061701 1 0 0 I I #
vertex $-1 $689 $731 #
straight-curve $-1 -34.882538964182238 -33.322861915226667 7.5101103424061701 -1 0 0 I I #
edge $-1 $627 2.883067829679697 $642 6.3710171957732493 $640 $732 forward 7 unknown #
point $-1 -62.525852746892838 33.322861915226667 7.5101103424061701 #
point $-1 -62.525852746892838 -33.322861915226667 7.5101103424061701 #
straight-curve $-1 -62.525852746892838 0 10.998059708499719 0 -1 0 I I #
point $-1 -62.525852746892838 -33.322861915226667 10.998059708499722 #
coedge $-1 $676 $733 $633 $689 reversed $672 $-1 #
edge $-1 $681 -7.5101103424061701 $691 10.998059708499719 $688 $734 forward 7 unknown #
coedge $-1 $726 $634 $733 $735 forward $616 $-1 #
vertex $-1 $735 $736 #
straight-curve $-1 0 -33.322861915226667 -10.998059708499719 -1 0 0 I I #
edge $-1 $697 -33.322861915226667 $637 33.322861915226667 $636 $737 forward 7 unknown #
point $-1 77.004303109836115 -33.322861915226667 -10.998059708499719 #
coedge $-1 $678 $639 $726 $738 reversed $641 $-1 #
point $-1 -62.525852746892838 33.322861915226667 10.998059708499722 #
vertex $-1 $693 $739 #
straight-curve $-1 77.004303109836115 33.322861915226667 0 0 0 -1 I I #
plane-surface $-1 77.004303109836115 0 0 -1 0 0 0 0 1 forward_v I I I I #
face $-1 $740 $741 $19 $-1 $742 reversed single #
plane-surface $-1 0 -33.322861915226667 0 0 1 0 0 0 1 forward_v I I I I #
coedge $-1 $743 $705 $744 $745 reversed $648 $-1 #
coedge $-1 $746 $650 $747 $748 reversed $579 $-1 #
coedge $-1 $650 $746 $749 $750 reversed $579 $-1 #
coedge $-1 $702 $751 $650 $706 forward $648 $-1 #
edge $-1 $752 -33.322861915226667 $753 33.322861915226667 $705 $754 forward 7 unknown #
coedge $-1 $651 $659 $743 $755 forward $503 $-1 #
coedge $-1 $744 $652 $651 $709 reversed $590 $-1 #
edge $-1 $756 -62.525852746892838 $654 -24.724987216751472 $708 $663 forward 7 unknown #
straight-curve $-1 -24.724987216751472 -33.322861915226667 50.82240391303587 0 0 1 I I #
point $-1 -24.724987216751472 -33.322861915226667 10.998059708499719 #
straight-curve $-1 -6.7389390541506735 -33.322861915226667 0.60607264187156407 -1 0 0 I I #
coedge $-1 $658 $757 $758 $759 reversed $590 $-1 #
coedge $-1 $760 $660 $658 $715 forward $719 $-1 #
edge $-1 $662 -10.998059708499719 $761 10.998059708499719 $714 $762 forward 7 unknown #
coedge $-1 $763 $764 $659 $717 reversed $765 $-1 #
edge $-1 $720 -77.004303109836115 $766 62.525852746892838 $716 $767 forward 7 unknown #
coedge $-1 $660 $760 $763 $768 reversed $719 $-1 #
loop $-1 $-1 $714 $769 #
vertex $-1 $661 $770 #
straight-curve $-1 77.004303109836115 0 10.998059708499719 0 1 0 I I #
point $-1 77.004303109836115 -33.322861915226667 10.998059708499719 #
point $-1 -24.724987216751472 -33.322861915226667 0.60607264187156529 #
point $-1 -77.004303109836115 33.322861915226667 -10.998059708499719 #
plane-surface $-1 0 33.322861915226667 0 0 -1 0 0 0 -1 forward_v I I I I #
coedge $-1 $674 $690 $695 $738 forward $616 $-1 #
coedge $-1 $733 $676 $678 $729 forward $672 $-1 #
straight-curve $-1 -77.004303109836115 0 7.5101103424061701 0 1 0 I I #
edge $-1 $679 -7.5101103424061701 $771 10.998059708499719 $678 $772 forward 7 unknown #
point $-1 -77.004303109836115 33.322861915226667 7.5101103424061701 #
point $-1 -77.004303109836115 -33.322861915226667 7.5101103424061701 #
straight-curve $-1 -62.525852746892838 33.322861915226667 4.6270425127264732 0 0 1 I I #
coedge $-1 $688 $727 $690 $735 reversed $672 $-1 #
straight-curve $-1 -77.004303109836115 -33.322861915226667 0 0 0 -1 I I #
edge $-1 $691 -33.322861915226667 $771 33.322861915226667 $733 $773 forward 7 unknown #
point $-1 -77.004303109836115 -33.322861915226667 -10.998059708499719 #
straight-curve $-1 77.004303109836115 0 -10.998059708499719 0 -1 0 I I #
edge $-1 $771 -77.004303109836115 $697 77.004303109836115 $695 $774 forward 7 unknown #
point $-1 77.004303109836115 33.322861915226667 -10.998059708499719 #
face $-1 $775 $776 $19 $-1 $777 reversed single #
loop $-1 $-1 $778 $700 #
plane-surface $-1 0 0 -10.998059708499719 0 0 1 1 0 0 forward_v I I I I #
coedge $-1 $751 $702 $707 $755 reversed $648 $-1 #
coedge $-1 $749 $708 $702 $745 forward $590 $-1 #
edge $-1 $756 -6.3710171957732493 $753 -2.883067829679697 $744 $779 forward 7 unknown #
coedge $-1 $704 $703 $780 $781 reversed $579 $-1 #
coedge $-1 $764 $782 $703 $748 forward $765 $-1 #
edge $-1 $783 -42.121764145653877 $752 -27.643313782710599 $747 $784 forward 7 unknown #
coedge $-1 $757 $744 $704 $750 forward $590 $-1 #
edge $-1 $753 27.643313782710599 $785 42.121764145653877 $749 $786 forward 7 unknown #
coedge $-1 $705 $743 $764 $787 reversed $648 $-1 #
vertex $-1 $748 $788 #
vertex $-1 $750 $789 #
straight-curve $-1 -62.525852746892838 0 7.5101103424061701 0 -1 0 I I #
edge $-1 $766 -33.322861915226667 $756 33.322861915226667 $707 $790 forward 7 unknown #
vertex $-1 $709 $791 #
coedge $-1 $713 $749 $792 $793 forward $590 $-1 #
coedge $-1 $794 $778 $713 $759 forward $741 $-1 #
edge $-1 $761 -77.004303109836115 $795 77.004303109836115 $713 $796 forward 7 unknown #
coedge $-1 $718 $714 $778 $797 reversed $719 $-1 #
vertex $-1 $715 $798 #
straight-curve $-1 77.004303109836115 -33.322861915226667 0 0 0 -1 I I #
coedge $-1 $799 $716 $718 $768 forward $765 $-1 #
coedge $-1 $716 $747 $751 $787 forward $765 $-1 #
loop $-1 $-1 $764 $775 #
vertex $-1 $755 $800 #
straight-curve $-1 0 33.322861915226667 10.998059708499719 -1 0 0 I I #
edge $-1 $720 -10.998059708499719 $801 10.998059708499719 $718 $802 forward 7 unknown #
face $-1 $-1 $719 $19 $-1 $803 reversed single #
point $-1 77.004303109836115 33.322861915226667 10.998059708499719 #
vertex $-1 $738 $804 #
straight-curve $-1 -77.004303109836115 33.322861915226667 0 0 0 -1 I I #
straight-curve $-1 -77.004303109836115 0 -10.998059708499719 0 1 0 I I #
straight-curve $-1 0 33.322861915226667 -10.998059708499719 1 0 0 I I #
face $-1 $769 $765 $19 $-1 $805 reversed single #
loop $-1 $-1 $780 $740 #
plane-surface $-1 -77.004303109836115 0 0 1 0 0 0 0 -1 forward_v I I I I #
coedge $-1 $758 $806 $760 $797 forward $741 $-1 #
straight-curve $-1 -62.525852746892838 -33.322861915226667 4.6270425127264732 0 0 -1 I I #
coedge $-1 $807 $792 $746 $781 forward $776 $-1 #
edge $-1 $785 -33.322861915226667 $783 33.322861915226667 $780 $808 forward 7 unknown #
coedge $-1 $747 $799 $807 $809 reversed $765 $-1 #
vertex $-1 $809 $810 #
straight-curve $-1 -34.882538964182238 33.322861915226667 7.5101103424061701 1 0 0 I I #
vertex $-1 $793 $811 #
straight-curve $-1 -34.882538964182238 -33.322861915226667 7.5101103424061701 -1 0 0 I I #
edge $-1 $752 2.883067829679697 $766 6.3710171957732493 $764 $812 forward 7 unknown #
point $-1 -62.525852746892838 33.322861915226667 7.5101103424061701 #
point $-1 -62.525852746892838 -33.322861915226667 7.5101103424061701 #
straight-curve $-1 -62.525852746892838 0 10.998059708499719 0 -1 0 I I #
point $-1 -62.525852746892838 -33.322861915226667 10.998059708499722 #
coedge $-1 $780 $813 $757 $793 reversed $776 $-1 #
edge $-1 $785 -7.5101103424061701 $795 10.998059708499719 $792 $814 forward 7 unknown #
coedge $-1 $806 $758 $813 $815 forward $741 $-1 #
vertex $-1 $815 $816 #
straight-curve $-1 0 -33.322861915226667 -10.998059708499719 -1 0 0 I I #
edge $-1 $801 -33.322861915226667 $761 33.322861915226667 $760 $817 forward 7 unknown #
point $-1 77.004303109836115 -33.322861915226667 -10.998059708499719 #
coedge $-1 $782 $763 $806 $818 reversed $765 $-1 #
point $-1 -62.525852746892838 33.322861915226667 10.998059708499722 #
vertex $-1 $797 $819 #
straight-curve $-1 77.004303109836115 33.322861915226667 0 0 0 -1 I I #
plane-surface $-1 77.004303109836115 0 0 -1 0 0 0 0 1 forward_v I I I I #
point $-1 -77.004303109836115 33.322861915226667 -10.998059708499719 #
plane-surface $-1 0 33.322861915226667 0 0 -1 0 0 0 -1 forward_v I I I I #
coedge $-1 $778 $794 $799 $818 forward $741 $-1 #
coedge $-1 $813 $780 $782 $809 forward $776 $-1 #
straight-curve $-1 -77.004303109836115 0 7.5101103424061701 0 1 0 I I #
edge $-1 $783 -7.5101103424061701 $820 10.998059708499719 $782 $821 forward 7 unknown #
point $-1 -77.004303109836115 33.322861915226667 7.5101103424061701 #
point $-1 -77.004303109836115 -33.322861915226667 7.5101103424061701 #
straight-curve $-1 -62.525852746892838 33.322861915226667 4.6270425127264732 0 0 1 I I #
coedge $-1 $792 $807 $794 $815 reversed $776 $-1 #
straight-curve $-1 -77.004303109836115 -33.322861915226667 0 0 0 -1 I I #
edge $-1 $795 -33.322861915226667 $820 33.322861915226667 $813 $822 forward 7 unknown #
point $-1 -77.004303109836115 -33.322861915226667 -10.998059708499719 #
straight-curve $-1 77.004303109836115 0 -10.998059708499719 0 -1 0 I I #
edge $-1 $820 -77.004303109836115 $801 77.004303109836115 $799 $823 forward 7 unknown #
point $-1 77.004303109836115 33.322861915226667 -10.998059708499719 #
vertex $-1 $818 $824 #
straight-curve $-1 -77.004303109836115 33.322861915226667 0 0 0 -1 I I #
straight-curve $-1 -77.004303109836115 0 -10.998059708499719 0 1 0 I I #
straight-curve $-1 0 33.322861915226667 -10.998059708499719 1 0 0 I I #
point $-1 -77.004303109836115 33.322861915226667 -10.998059708499719 #
End-of-ACIS-data 