500 0 8 0           
7 Unknown 11 ACIS 5.0 NT 24 Fri Mar 26 18:57:11 1999 
-1 9.9999999999999995e-007 1e-010 
body $-1 $8 $-1 $9 #
body $-1 $10 $-1 $11 #
body $-1 $12 $-1 $13 #
body $-1 $14 $-1 $15 #
body $-1 $16 $-1 $17 #
body $-1 $18 $-1 $19 #
body $-1 $20 $-1 $21 #
body $-1 $22 $-1 $23 #
lump $-1 $-1 $24 $0 #
transform $-1 1 0 0 0 1 0 0 0 1 70.418408764915924 31.709452233232657 11.751958280439284 1 rotate no_reflect no_shear #
lump $-1 $-1 $25 $1 #
transform $-1 1 0 0 0 1 0 0 0 1 70.418408764915924 31.709452233232657 11.751958280439284 1 rotate no_reflect no_shear #
lump $-1 $-1 $26 $2 #
transform $-1 1 0 0 0 1 0 0 0 1 70.418408764915924 31.709452233232657 11.751958280439284 1 rotate no_reflect no_shear #
lump $-1 $-1 $27 $3 #
transform $-1 1 0 0 0 1 0 0 0 1 70.418408764915924 31.709452233232657 11.751958280439284 1 rotate no_reflect no_shear #
lump $-1 $-1 $28 $4 #
transform $-1 1 0 0 0 1 0 0 0 1 70.418408764915924 31.709452233232657 11.751958280439284 1 rotate no_reflect no_shear #
lump $-1 $-1 $29 $5 #
transform $-1 1 0 0 0 1 0 0 0 1 70.418408764915924 31.709452233232657 11.751958280439284 1 rotate no_reflect no_shear #
lump $-1 $-1 $30 $6 #
transform $-1 1 0 0 0 1 0 0 0 1 70.418408764915924 31.709452233232657 11.751958280439284 1 rotate no_reflect no_shear #
lump $-1 $-1 $31 $7 #
transform $-1 1 0 0 0 1 0 0 0 1 70.418408764915924 31.709452233232657 11.751958280439284 1 rotate no_reflect no_shear #
shell $-1 $-1 $-1 $32 $-1 $8 #
shell $-1 $-1 $-1 $33 $-1 $10 #
shell $-1 $-1 $-1 $34 $-1 $12 #
shell $-1 $-1 $-1 $35 $-1 $14 #
shell $-1 $-1 $-1 $36 $-1 $16 #
shell $-1 $-1 $-1 $37 $-1 $18 #
shell $-1 $-1 $-1 $38 $-1 $20 #
shell $-1 $-1 $-1 $39 $-1 $22 #
face $-1 $40 $41 $24 $-1 $42 forward single #
face $-1 $43 $44 $25 $-1 $45 forward single #
face $-1 $46 $47 $26 $-1 $48 reversed single #
face $-1 $49 $50 $27 $-1 $51 forward single #
face $-1 $52 $53 $28 $-1 $54 forward single #
face $-1 $55 $56 $29 $-1 $57 forward single #
face $-1 $58 $59 $30 $-1 $60 reversed single #
face $-1 $61 $62 $31 $-1 $63 forward single #
face $-1 $64 $65 $24 $-1 $66 reversed single #
loop $-1 $-1 $67 $32 #
plane-surface $-1 0 0 11.751958280439284 0 0 1 1 0 0 forward_v I I I I #
face $-1 $68 $69 $25 $-1 $70 reversed single #
loop $-1 $-1 $71 $33 #
plane-surface $-1 -70.418408764915924 0 0 1 0 0 0 0 -1 forward_v I I I I #
face $-1 $72 $73 $26 $-1 $74 reversed single #
loop $-1 $-1 $75 $34 #
plane-surface $-1 -57.31624670445288 91.459392940873229 145.74386065443142 1 0 0 0 -0.73135370988377701 -0.68199835119979291 forward_v I I I I #
face $-1 $76 $77 $27 $-1 $78 forward single #
loop $-1 $79 $80 $35 #
cone-surface $-1 -50.507292167201143 26.466052026877339 6.3120397954392438 0 -0.73135370988377701 -0.68199835119979291 2.5 0 0 1 I I 0 1 2.5 forward I I I I #
face $-1 $81 $82 $28 $-1 $83 forward single #
loop $-1 $84 $85 $36 #
cone-surface $-1 -40.293860361323532 26.466052026877339 6.3120397954392438 0 -0.73135370988377701 -0.68199835119979291 2.5 0 0 1 I I 0 1 2.5 forward I I I I #
face $-1 $86 $87 $29 $-1 $88 forward single #
loop $-1 $89 $90 $37 #
cone-surface $-1 -30.08042855544592 26.466052026877339 6.3120397954392438 0 -0.73135370988377701 -0.68199835119979291 2.5 0 0 1 I I 0 1 2.5 forward I I I I #
face $-1 $91 $92 $30 $-1 $93 reversed single #
loop $-1 $-1 $94 $38 #
plane-surface $-1 56.964110136594556 -31.709452233232639 4.8459358220773794 0 -0.66913061440640931 0.74314481823134659 1 0 0 forward_v I I I I #
face $-1 $95 $96 $31 $-1 $97 forward single #
loop $-1 $98 $99 $39 #
cone-surface $-1 56.964110136594556 -26.038617867255834 6.2599991631808649 0 0.66913061440640931 -0.74314481823134659 2 0 0 1 I I 0 1 2 forward I I I I #
face $-1 $100 $101 $24 $-1 $102 reversed single #
loop $-1 $-1 $103 $40 #
plane-surface $-1 0 0 -11.751958280439284 0 0 1 1 0 0 forward_v I I I I #
coedge $-1 $104 $105 $106 $107 forward $41 $-1 #
face $-1 $108 $109 $25 $-1 $110 reversed single #
loop $-1 $-1 $111 $43 #
plane-surface $-1 0 0 -11.751958280439284 0 0 1 1 0 0 forward_v I I I I #
coedge $-1 $112 $113 $114 $115 forward $44 $-1 #
face $-1 $116 $117 $26 $-1 $118 reversed single #
loop $-1 $-1 $119 $46 #
plane-surface $-1 -40.293860361323539 -11.542136047793846 49.69338331086 0 0.73135370988377701 0.68199835119979291 1 0 0 forward_v I I I I #
coedge $-1 $120 $121 $122 $123 reversed $47 $-1 #
face $-1 $-1 $124 $27 $-1 $125 forward single #
loop $-1 $126 $127 $49 #
cone-surface $-1 -50.507292167201143 24.243778638267511 4.2397363853862213 0 -0.73135370988377701 -0.68199835119979291 1.25 0 0 1 I I -0.70710678118654746 0.70710678118654746 1.25 forward I I I I #
loop $-1 $-1 $128 $35 #
coedge $-1 $80 $80 $129 $130 reversed $50 $-1 #
face $-1 $-1 $131 $28 $-1 $132 forward single #
loop $-1 $133 $134 $52 #
cone-surface $-1 -40.293860361323532 24.243778638267511 4.2397363853862213 0 -0.73135370988377701 -0.68199835119979291 1.25 0 0 1 I I -0.70710678118654746 0.70710678118654746 1.25 forward I I I I #
loop $-1 $-1 $135 $36 #
coedge $-1 $85 $85 $136 $137 reversed $53 $-1 #
face $-1 $-1 $138 $29 $-1 $139 forward single #
loop $-1 $140 $141 $55 #
cone-surface $-1 -30.08042855544592 24.243778638267511 4.2397363853862213 0 -0.73135370988377701 -0.68199835119979291 1.25 0 0 1 I I -0.70710678118654746 0.70710678118654746 1.25 forward I I I I #
loop $-1 $-1 $142 $37 #
coedge $-1 $90 $90 $143 $144 reversed $56 $-1 #
face $-1 $145 $146 $30 $-1 $147 reversed single #
loop $-1 $-1 $148 $58 #
plane-surface $-1 43.509811508273195 -125.94767847801239 109.50808698556561 1 0 0 0 0.66913061440640931 -0.74314481823134659 forward_v I I I I #
coedge $-1 $149 $150 $151 $152 reversed $59 $-1 #
face $-1 $-1 $153 $31 $-1 $154 forward single #
loop $-1 $155 $156 $61 #
cone-surface $-1 56.964110136594556 -23.53361028833131 3.4779064568720468 0 0.66913061440640931 -0.74314481823134659 1 0 0 1 I I -0.70710678118654746 0.70710678118654746 1 forward I I I I #
loop $-1 $-1 $157 $39 #
coedge $-1 $99 $99 $158 $159 reversed $62 $-1 #
face $-1 $160 $161 $24 $-1 $162 reversed single #
loop $-1 $-1 $163 $64 #
plane-surface $-1 0 -31.709452233232657 0 0 1 0 0 0 1 forward_v I I I I #
coedge $-1 $164 $165 $166 $167 forward $65 $-1 #
coedge $-1 $168 $67 $169 $170 forward $41 $-1 #
coedge $-1 $67 $168 $171 $172 forward $41 $-1 #
coedge $-1 $173 $174 $67 $107 reversed $175 $-1 #
edge $-1 $176 -31.709452233232657 $177 31.709452233232657 $106 $178 forward 7 unknown #
face $-1 $179 $180 $25 $-1 $181 reversed single #
loop $-1 $-1 $182 $68 #
plane-surface $-1 -76.969489795147453 -11.289729832234748 0 0 1 0 0 0 1 forward_v I I I I #
coedge $-1 $183 $184 $113 $185 forward $69 $-1 #
coedge $-1 $186 $71 $187 $188 reversed $44 $-1 #
coedge $-1 $71 $186 $111 $185 reversed $44 $-1 #
coedge $-1 $189 $190 $71 $115 reversed $191 $-1 #
edge $-1 $192 -11.751958280439284 $193 11.751958280439284 $114 $194 forward 7 unknown #
face $-1 $195 $196 $26 $-1 $197 forward single #
loop $-1 $-1 $198 $72 #
plane-surface $-1 -23.271474018194194 91.459392940873229 145.74386065443142 -1 0 0 0 0.73135370988377701 0.68199835119979291 forward_v I I I I #
coedge $-1 $199 $200 $201 $202 reversed $73 $-1 #
coedge $-1 $121 $75 $203 $204 reversed $47 $-1 #
coedge $-1 $75 $120 $199 $205 reversed $47 $-1 #
coedge $-1 $201 $206 $75 $123 forward $196 $-1 #
edge $-1 $207 14.020244237203958 $208 21.890882147404341 $122 $209 forward 7 unknown #
loop $-1 $-1 $129 $76 #
plane-surface $-1 -40.293860361323539 -11.542136047793846 49.69338331086 0 0.73135370988377701 0.68199835119979291 1 0 0 forward_v I I I I #
loop $-1 $-1 $210 $49 #
coedge $-1 $127 $127 $128 $211 reversed $77 $-1 #
coedge $-1 $128 $128 $127 $211 forward $79 $-1 #
coedge $-1 $129 $129 $80 $130 forward $124 $-1 #
edge $-1 $212 2.8055273266991274e-016 $212 6.2831853071796004 $129 $213 forward 7 unknown #
loop $-1 $-1 $136 $81 #
plane-surface $-1 -40.293860361323539 -11.542136047793846 49.69338331086 0 0.73135370988377701 0.68199835119979291 1 0 0 forward_v I I I I #
loop $-1 $-1 $214 $52 #
coedge $-1 $134 $134 $135 $215 reversed $82 $-1 #
coedge $-1 $135 $135 $134 $215 forward $84 $-1 #
coedge $-1 $136 $136 $85 $137 forward $131 $-1 #
edge $-1 $216 2.8055273266991274e-016 $216 6.2831853071796004 $136 $217 forward 7 unknown #
loop $-1 $-1 $143 $86 #
plane-surface $-1 -40.293860361323539 -11.542136047793846 49.69338331086 0 0.73135370988377701 0.68199835119979291 1 0 0 forward_v I I I I #
loop $-1 $-1 $218 $55 #
coedge $-1 $141 $141 $142 $219 reversed $87 $-1 #
coedge $-1 $142 $142 $141 $219 forward $89 $-1 #
coedge $-1 $143 $143 $90 $144 forward $138 $-1 #
edge $-1 $220 2.8055273266991274e-016 $220 6.2831853071796004 $143 $221 forward 7 unknown #
face $-1 $222 $223 $30 $-1 $224 forward single #
loop $-1 $-1 $225 $91 #
plane-surface $-1 0 -31.709452233232657 0 0 1 0 0 0 1 forward_v I I I I #
coedge $-1 $226 $227 $228 $229 reversed $92 $-1 #
coedge $-1 $230 $94 $231 $232 reversed $59 $-1 #
coedge $-1 $94 $230 $226 $233 forward $59 $-1 #
coedge $-1 $228 $234 $94 $152 forward $223 $-1 #
edge $-1 $235 -41.936353696618632 $236 -15.027756439975917 $151 $237 forward 7 unknown #
loop $-1 $-1 $158 $95 #
plane-surface $-1 56.964110136594556 -31.709452233232639 4.8459358220773794 0 -0.66913061440640931 0.74314481823134659 1 0 0 forward_v I I I I #
loop $-1 $-1 $238 $61 #
coedge $-1 $156 $156 $157 $239 reversed $96 $-1 #
coedge $-1 $157 $157 $156 $239 forward $98 $-1 #
coedge $-1 $158 $158 $99 $159 forward $153 $-1 #
edge $-1 $240 1.3884952034978006e-015 $240 6.2831853071796022 $158 $241 forward 7 unknown #
face $-1 $242 $243 $24 $-1 $244 reversed single #
loop $-1 $-1 $245 $100 #
plane-surface $-1 -70.418408764915924 0 0 1 0 0 0 0 -1 forward_v I I I I #
coedge $-1 $246 $171 $247 $248 forward $101 $-1 #
coedge $-1 $249 $103 $246 $250 forward $65 $-1 #
coedge $-1 $103 $249 $251 $252 forward $65 $-1 #
coedge $-1 $174 $173 $103 $167 reversed $175 $-1 #
edge $-1 $253 -31.709452233232657 $254 31.709452233232657 $166 $255 forward 7 unknown #
coedge $-1 $105 $104 $256 $257 forward $41 $-1 #
coedge $-1 $258 $259 $104 $170 reversed $243 $-1 #
edge $-1 $177 -70.418408764915924 $260 70.418408764915924 $169 $261 forward 7 unknown #
coedge $-1 $163 $262 $105 $172 reversed $101 $-1 #
edge $-1 $263 -70.418408764915924 $176 70.418408764915924 $171 $264 forward 7 unknown #
coedge $-1 $166 $106 $262 $265 forward $175 $-1 #
coedge $-1 $106 $166 $258 $266 reversed $175 $-1 #
loop $-1 $-1 $173 $242 #
vertex $-1 $107 $267 #
vertex $-1 $107 $268 #
straight-curve $-1 70.418408764915924 0 11.751958280439284 0 1 0 I I #
face $-1 $269 $191 $25 $-1 $270 reversed single #
loop $-1 $-1 $271 $108 #
plane-surface $-1 -83.520570825378982 -9.7476327522944182 0 1 0 0 0 0 -1 forward_v I I I I #
coedge $-1 $272 $273 $274 $275 forward $109 $-1 #
coedge $-1 $276 $111 $272 $277 forward $69 $-1 #
coedge $-1 $111 $276 $189 $278 forward $69 $-1 #
edge $-1 $192 8.2055356723540882 $279 11.289729832234748 $111 $280 forward 7 unknown #
coedge $-1 $113 $112 $281 $282 forward $44 $-1 #
coedge $-1 $283 $284 $112 $188 forward $285 $-1 #
edge $-1 $286 -11.289729832234748 $193 -8.2055356723540882 $187 $287 forward 7 unknown #
coedge $-1 $288 $114 $184 $278 reversed $191 $-1 #
coedge $-1 $114 $288 $283 $289 reversed $191 $-1 #
loop $-1 $-1 $114 $179 #
vertex $-1 $185 $290 #
vertex $-1 $289 $291 #
straight-curve $-1 -70.418408764915924 -8.2055356723540882 0 0 0 1 I I #
face $-1 $-1 $292 $26 $-1 $293 reversed single #
loop $-1 $-1 $122 $116 #
plane-surface $-1 0 0 11.751958280439284 0 0 1 1 0 0 forward_v I I I I #
coedge $-1 $294 $295 $296 $297 reversed $117 $-1 #
coedge $-1 $298 $119 $121 $205 forward $73 $-1 #
coedge $-1 $119 $298 $294 $299 forward $73 $-1 #
coedge $-1 $296 $122 $119 $202 forward $196 $-1 #
edge $-1 $208 -37.16931652379111 $300 -3.1245438375324248 $201 $301 forward 7 unknown #
coedge $-1 $302 $303 $120 $204 forward $292 $-1 #
edge $-1 $304 -69.560198074669927 $207 -61.119972046776425 $203 $305 forward 7 unknown #
edge $-1 $208 51.878351771060508 $304 63.418904466465271 $121 $306 forward 7 unknown #
coedge $-1 $122 $296 $302 $307 forward $196 $-1 #
vertex $-1 $204 $308 #
vertex $-1 $123 $309 #
straight-curve $-1 -57.31624670445288 45.729696470436615 11.751958280439283 0 -1 0 I I #
coedge $-1 $210 $210 $-1 $310 reversed $126 $-1 #
edge $-1 $311 0 $311 6.2831853071796004 $127 $312 forward 7 unknown #
vertex $-1 $130 $313 #
ellipse-curve $-1 -50.507292167201143 27.77413327813246 7.5318452664925388 0 0.73135370988377701 0.68199835119979291 2.5 0 0 1 I I #
coedge $-1 $214 $214 $-1 $314 reversed $133 $-1 #
edge $-1 $315 0 $315 6.2831853071796004 $134 $316 forward 7 unknown #
vertex $-1 $137 $317 #
ellipse-curve $-1 -40.293860361323532 27.77413327813246 7.5318452664925388 0 0.73135370988377701 0.68199835119979291 2.5 0 0 1 I I #
coedge $-1 $218 $218 $-1 $318 reversed $140 $-1 #
edge $-1 $319 0 $319 6.2831853071796004 $141 $320 forward 7 unknown #
vertex $-1 $144 $321 #
ellipse-curve $-1 -30.08042855544592 27.77413327813246 7.5318452664925388 0 0.73135370988377701 0.68199835119979291 2.5 0 0 1 I I #
face $-1 $-1 $322 $30 $-1 $323 reversed single #
loop $-1 $-1 $228 $145 #
plane-surface $-1 0 0 11.751958280439284 0 0 1 1 0 0 forward_v I I I I #
coedge $-1 $324 $325 $227 $326 forward $146 $-1 #
coedge $-1 $227 $148 $150 $233 reversed $92 $-1 #
coedge $-1 $148 $226 $225 $326 reversed $92 $-1 #
coedge $-1 $327 $151 $148 $229 forward $223 $-1 #
edge $-1 $236 -38.934301808690989 $328 -31.264387005773539 $228 $329 forward 7 unknown #
coedge $-1 $150 $149 $324 $330 reversed $59 $-1 #
coedge $-1 $331 $332 $149 $232 forward $322 $-1 #
edge $-1 $333 -10.161075551040309 $235 0.15981294169186655 $231 $334 forward 7 unknown #
edge $-1 $335 -2.3898436495477339e-014 $236 10.320888492732152 $226 $336 forward 7 unknown #
coedge $-1 $151 $327 $331 $337 forward $223 $-1 #
vertex $-1 $232 $338 #
vertex $-1 $152 $339 #
straight-curve $-1 28.482055068297278 -24.039537430315203 11.751958280439284 -1 0 0 I I #
coedge $-1 $238 $238 $-1 $340 reversed $155 $-1 #
edge $-1 $341 0 $341 6.2831853071796004 $156 $342 forward 7 unknown #
vertex $-1 $159 $343 #
ellipse-curve $-1 56.964110136594556 -27.874494831773934 8.2989470512583221 0 -0.66913061440640931 0.74314481823134659 2 0 0 1 I I #
face $-1 $-1 $175 $24 $-1 $344 reversed single #
loop $-1 $-1 $258 $160 #
plane-surface $-1 0 31.709452233232657 0 0 -1 0 0 0 -1 forward_v I I I I #
coedge $-1 $345 $256 $259 $346 forward $161 $-1 #
coedge $-1 $262 $163 $164 $250 reversed $101 $-1 #
coedge $-1 $256 $345 $163 $248 reversed $161 $-1 #
edge $-1 $263 -11.751958280439284 $347 11.751958280439284 $247 $348 forward 7 unknown #
coedge $-1 $165 $164 $345 $349 forward $65 $-1 #
edge $-1 $254 -70.418408764915924 $347 70.418408764915924 $246 $350 forward 7 unknown #
coedge $-1 $259 $258 $165 $252 reversed $243 $-1 #
edge $-1 $351 -70.418408764915924 $253 70.418408764915924 $251 $352 forward 7 unknown #
vertex $-1 $167 $353 #
vertex $-1 $265 $354 #
straight-curve $-1 70.418408764915924 0 -11.751958280439284 0 -1 0 I I #
coedge $-1 $245 $247 $168 $257 reversed $161 $-1 #
edge $-1 $260 -31.709452233232657 $263 31.709452233232657 $256 $355 forward 7 unknown #
coedge $-1 $251 $169 $174 $266 forward $243 $-1 #
coedge $-1 $169 $251 $245 $346 reversed $243 $-1 #
vertex $-1 $170 $356 #
straight-curve $-1 0 31.709452233232657 11.751958280439284 -1 0 0 I I #
coedge $-1 $171 $246 $173 $265 reversed $101 $-1 #
vertex $-1 $257 $357 #
straight-curve $-1 0 -31.709452233232657 11.751958280439284 1 0 0 I I #
edge $-1 $176 -11.751958280439284 $254 11.751958280439284 $173 $358 forward 7 unknown #
edge $-1 $177 -11.751958280439284 $253 11.751958280439284 $174 $359 forward 7 unknown #
point $-1 70.418408764915924 -31.709452233232657 11.751958280439284 #
point $-1 70.418408764915924 31.709452233232657 11.751958280439284 #
face $-1 $-1 $285 $25 $-1 $360 forward single #
plane-surface $-1 -76.969489795147453 -8.2055356723540882 0 0 -1 0 0 0 -1 forward_v I I I I #
coedge $-1 $361 $362 $288 $363 forward $180 $-1 #
coedge $-1 $281 $182 $183 $277 reversed $109 $-1 #
coedge $-1 $182 $281 $284 $364 reversed $109 $-1 #
coedge $-1 $362 $361 $182 $275 reversed $180 $-1 #
edge $-1 $365 -11.751958280439284 $366 11.751958280439284 $274 $367 forward 7 unknown #
coedge $-1 $184 $183 $361 $368 forward $69 $-1 #
edge $-1 $279 -6.5510810302315292 $366 6.5510810302315292 $272 $369 forward 7 unknown #
edge $-1 $370 -6.5510810302315292 $192 6.5510810302315292 $189 $371 forward 7 unknown #
vertex $-1 $277 $372 #
straight-curve $-1 -70.418408764915924 0 -11.751958280439284 0 -1 0 I I #
coedge $-1 $273 $272 $186 $282 reversed $109 $-1 #
edge $-1 $286 -11.751958280439284 $279 11.751958280439284 $281 $373 forward 7 unknown #
coedge $-1 $374 $187 $190 $289 forward $285 $-1 #
coedge $-1 $187 $374 $273 $364 forward $285 $-1 #
loop $-1 $-1 $187 $269 #
vertex $-1 $188 $375 #
straight-curve $-1 -70.418408764915924 0 11.751958280439284 0 1 0 I I #
coedge $-1 $190 $189 $271 $363 reversed $191 $-1 #
edge $-1 $193 -6.5510810302315292 $376 6.5510810302315292 $190 $377 forward 7 unknown #
point $-1 -70.418408764915924 -8.2055356723540882 -11.751958280439284 #
point $-1 -70.418408764915924 -8.2055356723540882 11.751958280439284 #
loop $-1 $-1 $203 $195 #
plane-surface $-1 0 31.709452233232657 0 0 -1 0 0 0 -1 forward_v I I I I #
coedge $-1 $295 $198 $200 $299 reversed $117 $-1 #
coedge $-1 $198 $294 $378 $379 reversed $117 $-1 #
coedge $-1 $206 $201 $198 $297 forward $196 $-1 #
edge $-1 $300 -21.890882147404341 $380 -14.020244237203958 $296 $381 forward 7 unknown #
coedge $-1 $200 $199 $303 $382 reversed $73 $-1 #
edge $-1 $383 -63.418904466465271 $300 -51.878351771060508 $294 $384 forward 7 unknown #
vertex $-1 $202 $385 #
straight-curve $-1 -20.146930180661769 23.838814323032274 11.751958280439283 1 0 0 I I #
coedge $-1 $378 $203 $206 $307 reversed $292 $-1 #
coedge $-1 $203 $378 $298 $382 forward $292 $-1 #
vertex $-1 $204 $386 #
straight-curve $-1 -57.31624670445288 31.709452233232657 72.871930327215708 0 0 1 I I #
straight-curve $-1 -57.31624670445288 -11.542136047793846 49.69338331086 0 0.68199835119979291 -0.73135370988377701 I I #
edge $-1 $380 23.271474018194194 $207 57.31624670445288 $302 $387 forward 7 unknown #
point $-1 -57.31624670445288 31.709452233232657 11.751958280439284 #
point $-1 -57.31624670445288 23.838814323032274 11.751958280439283 #
edge $-1 $388 1 $388 0 $210 $-1 forward 7 unknown #
vertex $-1 $211 $389 #
ellipse-curve $-1 -50.507292167201143 25.157970775622232 5.0922343243859629 0 0.73135370988377701 0.68199835119979291 2.5 0 0 1 I I #
point $-1 -48.007292167201143 27.774133278132446 7.5318452664925246 #
edge $-1 $390 1 $390 0 $214 $-1 forward 7 unknown #
vertex $-1 $215 $391 #
ellipse-curve $-1 -40.293860361323532 25.157970775622232 5.0922343243859629 0 0.73135370988377701 0.68199835119979291 2.5 0 0 1 I I #
point $-1 -37.793860361323532 27.774133278132446 7.5318452664925246 #
edge $-1 $392 1 $392 0 $218 $-1 forward 7 unknown #
vertex $-1 $219 $393 #
ellipse-curve $-1 -30.08042855544592 25.157970775622232 5.0922343243859629 0 0.73135370988377701 0.68199835119979291 2.5 0 0 1 I I #
point $-1 -27.58042855544592 27.774133278132446 7.5318452664925246 #
loop $-1 $-1 $231 $222 #
plane-surface $-1 70.418408764915924 0 0 -1 0 0 0 0 1 forward_v I I I I #
coedge $-1 $394 $225 $230 $330 forward $146 $-1 #
coedge $-1 $225 $394 $327 $395 reversed $146 $-1 #
edge $-1 $328 43.002085212343523 $335 49.908107670705441 $225 $396 forward 7 unknown #
coedge $-1 $234 $228 $325 $395 forward $223 $-1 #
vertex $-1 $395 $397 #
straight-curve $-1 43.509811508273195 -62.973839239006196 11.751958280439283 0 -1 0 I I #
edge $-1 $335 15.027756439975917 $333 41.936353696618632 $324 $398 forward 7 unknown #
coedge $-1 $332 $231 $234 $337 reversed $322 $-1 #
coedge $-1 $231 $331 $394 $399 forward $322 $-1 #
vertex $-1 $330 $400 #
straight-curve $-1 70.418408764915924 -24.158301589819825 11.645022548574909 0 0.74314481823134659 0.66913061440640931 I I #
vertex $-1 $330 $401 #
straight-curve $-1 43.509811508273195 -31.709452233232639 4.8459358220773794 0 0.74314481823134659 0.66913061440640931 I I #
edge $-1 $402 -31.709452233232657 $235 -24.039537430315207 $331 $403 forward 7 unknown #
point $-1 70.41840876491591 -24.039537430315207 11.751958280439284 #
point $-1 43.509811508273195 -24.039537430315207 11.751958280439284 #
edge $-1 $404 1 $404 0 $238 $-1 forward 7 unknown #
vertex $-1 $239 $405 #
ellipse-curve $-1 56.964110136594556 -24.20274090273772 4.2210512751033935 0 -0.66913061440640931 0.74314481823134659 2 0 0 1 I I #
point $-1 58.964110136594556 -27.874494831773944 8.2989470512583381 #
plane-surface $-1 70.418408764915924 0 0 -1 0 0 0 0 1 forward_v I I I I #
coedge $-1 $247 $245 $249 $349 reversed $161 $-1 #
edge $-1 $260 -11.751958280439284 $351 11.751958280439284 $259 $406 forward 7 unknown #
vertex $-1 $349 $407 #
straight-curve $-1 -70.418408764915924 -31.709452233232657 0 0 0 -1 I I #
edge $-1 $347 -31.709452233232657 $351 31.709452233232657 $345 $408 forward 7 unknown #
straight-curve $-1 0 -31.709452233232657 -11.751958280439284 -1 0 0 I I #
vertex $-1 $252 $409 #
straight-curve $-1 0 31.709452233232657 -11.751958280439284 1 0 0 I I #
point $-1 70.418408764915924 31.709452233232657 -11.751958280439284 #
point $-1 70.418408764915924 -31.709452233232657 -11.751958280439284 #
straight-curve $-1 -70.418408764915924 0 11.751958280439284 0 -1 0 I I #
point $-1 -70.418408764915924 31.709452233232657 11.751958280439284 #
point $-1 -70.418408764915924 -31.709452233232657 11.751958280439284 #
straight-curve $-1 70.418408764915924 -31.709452233232657 0 0 0 -1 I I #
straight-curve $-1 70.418408764915924 31.709452233232657 0 0 0 -1 I I #
plane-surface $-1 0 0 11.751958280439284 0 0 1 1 0 0 forward_v I I I I #
coedge $-1 $274 $271 $276 $368 reversed $180 $-1 #
coedge $-1 $271 $274 $374 $410 reversed $180 $-1 #
edge $-1 $376 -11.751958280439284 $370 11.751958280439284 $288 $411 forward 7 unknown #
edge $-1 $365 -6.5510810302315292 $286 6.5510810302315292 $273 $412 forward 7 unknown #
vertex $-1 $410 $413 #
vertex $-1 $368 $414 #
straight-curve $-1 -83.520570825378982 -11.289729832234748 0 0 0 -1 I I #
edge $-1 $366 -1.54209707994033 $370 1.54209707994033 $361 $415 forward 7 unknown #
straight-curve $-1 -76.969489795147453 -11.289729832234748 -11.751958280439284 -1 0 0 I I #
vertex $-1 $278 $416 #
straight-curve $-1 -76.969489795147453 -8.2055356723540882 -11.751958280439284 1 0 0 I I #
point $-1 -70.418408764915924 -11.289729832234748 -11.751958280439284 #
straight-curve $-1 -70.418408764915924 -11.289729832234748 0 0 0 -1 I I #
coedge $-1 $284 $283 $362 $410 forward $285 $-1 #
point $-1 -70.418408764915924 -11.289729832234748 11.751958280439284 #
vertex $-1 $289 $417 #
straight-curve $-1 -76.969489795147453 -8.2055356723540882 11.751958280439284 -1 0 0 I I #
coedge $-1 $303 $302 $295 $379 forward $292 $-1 #
edge $-1 $380 61.119972046776425 $383 69.560198074669927 $378 $418 forward 7 unknown #
vertex $-1 $307 $419 #
straight-curve $-1 -23.271474018194194 45.729696470436615 11.751958280439283 0 1 0 I I #
edge $-1 $383 3.1245438375324248 $304 37.16931652379111 $303 $420 forward 7 unknown #
vertex $-1 $382 $421 #
straight-curve $-1 -23.271474018194194 -11.542136047793846 49.69338331086 0 -0.68199835119979291 0.73135370988377701 I I #
point $-1 -23.271474018194194 23.838814323032274 11.751958280439283 #
point $-1 -57.31624670445288 31.709452233232653 3.3117322525457809 #
straight-curve $-1 0 31.709452233232657 11.751958280439284 -1 0 0 I I #
vertex $-1 $310 $422 #
point $-1 -48.007292167201143 25.157970775622232 5.0922343243859629 #
vertex $-1 $314 $423 #
point $-1 -37.793860361323532 25.157970775622232 5.0922343243859629 #
vertex $-1 $318 $424 #
point $-1 -27.58042855544592 25.157970775622232 5.0922343243859629 #
coedge $-1 $325 $324 $332 $399 reversed $146 $-1 #
edge $-1 $328 43.509811508273195 $402 70.418408764915924 $325 $425 forward 7 unknown #
straight-curve $-1 43.509811508273195 -31.709452233232653 54.754043492782806 0 0 -1 I I #
point $-1 43.509811508273195 -31.709452233232657 11.751958280439284 #
straight-curve $-1 28.482055068297278 -31.709452233232657 4.8459358220773598 1 0 0 I I #
edge $-1 $402 -11.751958280439284 $333 -4.8459358220773634 $332 $426 forward 7 unknown #
point $-1 70.41840876491591 -31.709452233232657 4.8459358220773634 #
point $-1 43.509811508273195 -31.709452233232657 4.8459358220773634 #
vertex $-1 $337 $427 #
straight-curve $-1 70.418408764915924 0 11.751958280439284 0 1 0 I I #
vertex $-1 $340 $428 #
point $-1 58.964110136594556 -24.20274090273772 4.2210512751033935 #
straight-curve $-1 -70.418408764915924 31.709452233232657 0 0 0 -1 I I #
point $-1 -70.418408764915924 -31.709452233232657 -11.751958280439284 #
straight-curve $-1 -70.418408764915924 0 -11.751958280439284 0 1 0 I I #
point $-1 -70.418408764915924 31.709452233232657 -11.751958280439284 #
edge $-1 $376 -1.54209707994033 $365 1.54209707994033 $362 $429 forward 7 unknown #
straight-curve $-1 -83.520570825378982 -8.2055356723540882 0 0 0 -1 I I #
straight-curve $-1 -76.969489795147453 -11.289729832234748 11.751958280439284 1 0 0 I I #
point $-1 -83.520570825378982 -11.289729832234748 11.751958280439284 #
point $-1 -83.520570825378982 -11.289729832234748 -11.751958280439284 #
straight-curve $-1 -83.520570825378982 -9.7476327522944182 -11.751958280439284 0 1 0 I I #
point $-1 -83.520570825378982 -8.2055356723540882 -11.751958280439284 #
point $-1 -83.520570825378982 -8.2055356723540882 11.751958280439284 #
straight-curve $-1 -23.271474018194194 31.709452233232657 72.871930327215708 0 0 -1 I I #
point $-1 -23.271474018194194 31.709452233232657 11.751958280439284 #
straight-curve $-1 -20.146930180661769 31.709452233232657 3.3117322525457844 -1 0 0 I I #
point $-1 -23.271474018194194 31.709452233232653 3.3117322525457809 #
point $-1 -50.507292167201143 23.329586500912789 3.3872384463864802 #
point $-1 -40.293860361323532 23.329586500912789 3.3872384463864802 #
point $-1 -30.08042855544592 23.329586500912789 3.3872384463864802 #
straight-curve $-1 0 -31.709452233232657 11.751958280439284 1 0 0 I I #
straight-curve $-1 70.418408764915924 -31.709452233232657 0 0 0 -1 I I #
point $-1 70.418408764915924 -31.709452233232657 11.751958280439284 #
point $-1 56.964110136594556 -22.864479673924901 2.7347616386407001 #
straight-curve $-1 -83.520570825378982 -9.7476327522944182 11.751958280439284 0 -1 0 I I #
End-of-ACIS-data 