500 0 13 0           
7 Unknown 11 ACIS 5.0 NT 24 Fri Mar 26 01:36:29 1999 
-1 9.9999999999999995e-007 1e-010 
body $-1 $13 $-1 $14 #
body $-1 $15 $-1 $16 #
body $-1 $17 $-1 $18 #
body $-1 $19 $-1 $20 #
body $-1 $21 $-1 $22 #
body $-1 $23 $-1 $24 #
body $-1 $25 $-1 $26 #
body $-1 $27 $-1 $28 #
body $-1 $29 $-1 $30 #
body $-1 $31 $-1 $32 #
body $-1 $33 $-1 $34 #
body $-1 $35 $-1 $36 #
body $-1 $37 $-1 $38 #
lump $-1 $-1 $39 $0 #
transform $-1 1 0 0 0 1 0 0 0 1 76.337778862880342 44.934149480877664 20.74249860020165 1 rotate no_reflect no_shear #
lump $-1 $-1 $40 $1 #
transform $-1 1 0 0 0 1 0 0 0 1 76.337778862880342 44.934149480877664 20.74249860020165 1 rotate no_reflect no_shear #
lump $-1 $-1 $41 $2 #
transform $-1 1 0 0 0 1 0 0 0 1 76.337778862880342 44.934149480877664 20.74249860020165 1 rotate no_reflect no_shear #
lump $-1 $-1 $42 $3 #
transform $-1 1 0 0 0 1 0 0 0 1 76.337778862880342 44.934149480877664 20.74249860020165 1 rotate no_reflect no_shear #
lump $-1 $-1 $43 $4 #
transform $-1 1 0 0 0 1 0 0 0 1 76.337778862880342 44.934149480877664 20.74249860020165 1 rotate no_reflect no_shear #
lump $-1 $-1 $44 $5 #
transform $-1 1 0 0 0 1 0 0 0 1 76.337778862880342 44.934149480877664 20.74249860020165 1 rotate no_reflect no_shear #
lump $-1 $-1 $45 $6 #
transform $-1 1 0 0 0 1 0 0 0 1 76.337778862880342 44.934149480877664 20.74249860020165 1 rotate no_reflect no_shear #
lump $-1 $-1 $46 $7 #
transform $-1 1 0 0 0 1 0 0 0 1 76.337778862880342 44.934149480877664 20.74249860020165 1 rotate no_reflect no_shear #
lump $-1 $-1 $47 $8 #
transform $-1 1 0 0 0 1 0 0 0 1 76.337778862880342 44.934149480877664 20.74249860020165 1 rotate no_reflect no_shear #
lump $-1 $-1 $48 $9 #
transform $-1 1 0 0 0 1 0 0 0 1 76.337778862880342 44.934149480877664 20.74249860020165 1 rotate no_reflect no_shear #
lump $-1 $-1 $49 $10 #
transform $-1 1 0 0 0 1 0 0 0 1 76.337778862880342 44.934149480877664 20.74249860020165 1 rotate no_reflect no_shear #
lump $-1 $-1 $50 $11 #
transform $-1 1 0 0 0 1 0 0 0 1 76.337778862880342 44.934149480877664 20.74249860020165 1 rotate no_reflect no_shear #
lump $-1 $-1 $51 $12 #
transform $-1 1 0 0 0 1 0 0 0 1 76.337778862880342 44.934149480877664 20.74249860020165 1 rotate no_reflect no_shear #
shell $-1 $-1 $-1 $52 $-1 $13 #
shell $-1 $-1 $-1 $53 $-1 $15 #
shell $-1 $-1 $-1 $54 $-1 $17 #
shell $-1 $-1 $-1 $55 $-1 $19 #
shell $-1 $-1 $-1 $56 $-1 $21 #
shell $-1 $-1 $-1 $57 $-1 $23 #
shell $-1 $-1 $-1 $58 $-1 $25 #
shell $-1 $-1 $-1 $59 $-1 $27 #
shell $-1 $-1 $-1 $60 $-1 $29 #
shell $-1 $-1 $-1 $61 $-1 $31 #
shell $-1 $-1 $-1 $62 $-1 $33 #
shell $-1 $-1 $-1 $63 $-1 $35 #
shell $-1 $-1 $-1 $64 $-1 $37 #
face $-1 $65 $66 $39 $-1 $67 forward single #
face $-1 $68 $69 $40 $-1 $70 reversed single #
face $-1 $71 $72 $41 $-1 $73 forward single #
face $-1 $74 $75 $42 $-1 $76 forward single #
face $-1 $77 $78 $43 $-1 $79 reversed single #
face $-1 $80 $81 $44 $-1 $82 forward single #
face $-1 $83 $84 $45 $-1 $85 forward single #
face $-1 $86 $87 $46 $-1 $88 reversed single #
face $-1 $89 $90 $47 $-1 $91 forward single #
face $-1 $92 $93 $48 $-1 $94 forward single #
face $-1 $95 $96 $49 $-1 $97 reversed single #
face $-1 $98 $99 $50 $-1 $100 forward single #
face $-1 $101 $102 $51 $-1 $103 forward single #
face $-1 $104 $105 $39 $-1 $106 reversed single #
loop $-1 $-1 $107 $52 #
plane-surface $-1 0 0 20.74249860020165 0 0 1 1 0 0 forward_v I I I I #
face $-1 $108 $109 $40 $-1 $110 reversed single #
loop $-1 $-1 $111 $53 #
plane-surface $-1 -52.704215707980488 107.02939171685691 168.8243889202144 -1 0 0 0 0.77714596973225614 0.62932038083071107 forward_v I I I I #
face $-1 $112 $113 $41 $-1 $114 forward single #
loop $-1 $115 $116 $54 #
cone-surface $-1 -69.585332247194671 36.594108130114314 10.918031043684767 0 -0.77714596973225614 -0.62932038083071107 2 0 0 1 I I 0 1 2 forward I I I I #
face $-1 $117 $118 $42 $-1 $119 forward single #
loop $-1 $120 $121 $55 #
cone-surface $-1 -59.456662323666166 36.594108130114314 10.918031043684767 0 -0.77714596973225614 -0.62932038083071107 2 0 0 1 I I 0 1 2 forward I I I I #
face $-1 $122 $123 $43 $-1 $124 reversed single #
loop $-1 $-1 $125 $56 #
plane-surface $-1 -9.6902175176935526 107.02939171685691 168.8243889202144 -1 0 0 0 0.77714596973225614 0.62932038083071107 forward_v I I I I #
face $-1 $126 $127 $44 $-1 $128 forward single #
loop $-1 $129 $130 $57 #
cone-surface $-1 -26.57133405690773 36.594108130114314 10.918031043684767 0 -0.77714596973225614 -0.62932038083071107 2 0 0 1 I I 0 1 2 forward I I I I #
face $-1 $131 $132 $45 $-1 $133 forward single #
loop $-1 $134 $135 $58 #
cone-surface $-1 -16.442664133379225 36.594108130114314 10.918031043684767 0 -0.77714596973225614 -0.62932038083071107 2 0 0 1 I I 0 1 2 forward I I I I #
face $-1 $136 $137 $46 $-1 $138 reversed single #
loop $-1 $-1 $139 $59 #
plane-surface $-1 33.323780672593379 107.02939171685691 168.8243889202144 -1 0 0 0 0.77714596973225614 0.62932038083071107 forward_v I I I I #
face $-1 $140 $141 $47 $-1 $142 forward single #
loop $-1 $143 $144 $60 #
cone-surface $-1 16.442664133379211 36.594108130114314 10.918031043684767 0 -0.77714596973225614 -0.62932038083071107 2 0 0 1 I I 0 1 2 forward I I I I #
face $-1 $145 $146 $48 $-1 $147 forward single #
loop $-1 $148 $149 $61 #
cone-surface $-1 26.571334056907716 36.594108130114314 10.918031043684767 0 -0.77714596973225614 -0.62932038083071107 2 0 0 1 I I 0 1 2 forward I I I I #
face $-1 $150 $151 $49 $-1 $152 reversed single #
loop $-1 $-1 $153 $62 #
plane-surface $-1 64.520997285430397 -11.621802646342431 72.742548788697476 0 0.77714596973225614 0.62932038083071107 1 0 0 forward_v I I I I #
face $-1 $154 $155 $50 $-1 $156 forward single #
loop $-1 $157 $158 $63 #
cone-surface $-1 59.456662323666151 36.594108130114314 10.918031043684767 0 -0.77714596973225614 -0.62932038083071107 2 0 0 1 I I 0 1 2 forward I I I I #
face $-1 $159 $160 $51 $-1 $161 forward single #
loop $-1 $162 $163 $64 #
cone-surface $-1 69.585332247194671 36.594108130114314 10.918031043684767 0 -0.77714596973225614 -0.62932038083071107 2 0 0 1 I I 0 1 2 forward I I I I #
face $-1 $164 $165 $39 $-1 $166 reversed single #
loop $-1 $-1 $167 $65 #
plane-surface $-1 0 0 -20.74249860020165 0 0 1 1 0 0 forward_v I I I I #
coedge $-1 $168 $169 $170 $171 forward $66 $-1 #
face $-1 $172 $173 $40 $-1 $174 reversed single #
loop $-1 $-1 $175 $68 #
plane-surface $-1 -64.520997285430411 -11.621802646342431 72.742548788697476 0 0.77714596973225614 0.62932038083071107 1 0 0 forward_v I I I I #
coedge $-1 $176 $177 $178 $179 reversed $69 $-1 #
face $-1 $-1 $180 $41 $-1 $181 forward single #
loop $-1 $182 $183 $71 #
cone-surface $-1 -69.585332247194671 34.700492255319759 9.3846111845000735 0 -0.77714596973225614 -0.62932038083071107 1 0 0 1 I I -0.70710678118654746 0.70710678118654746 1 forward I I I I #
loop $-1 $-1 $184 $54 #
coedge $-1 $116 $116 $185 $186 reversed $72 $-1 #
face $-1 $-1 $187 $42 $-1 $188 forward single #
loop $-1 $189 $190 $74 #
cone-surface $-1 -59.456662323666166 34.700492255319759 9.3846111845000735 0 -0.77714596973225614 -0.62932038083071107 1 0 0 1 I I -0.70710678118654746 0.70710678118654746 1 forward I I I I #
loop $-1 $-1 $191 $55 #
coedge $-1 $121 $121 $192 $193 reversed $75 $-1 #
face $-1 $194 $195 $43 $-1 $196 reversed single #
loop $-1 $-1 $197 $77 #
plane-surface $-1 -21.506999095143478 -11.621802646342431 72.742548788697476 0 0.77714596973225614 0.62932038083071107 1 0 0 forward_v I I I I #
coedge $-1 $198 $199 $200 $201 reversed $78 $-1 #
face $-1 $-1 $202 $44 $-1 $203 forward single #
loop $-1 $204 $205 $80 #
cone-surface $-1 -26.57133405690773 34.700492255319759 9.3846111845000735 0 -0.77714596973225614 -0.62932038083071107 1 0 0 1 I I -0.70710678118654746 0.70710678118654746 1 forward I I I I #
loop $-1 $-1 $206 $57 #
coedge $-1 $130 $130 $207 $208 reversed $81 $-1 #
face $-1 $-1 $209 $45 $-1 $210 forward single #
loop $-1 $211 $212 $83 #
cone-surface $-1 -16.442664133379225 34.700492255319759 9.3846111845000735 0 -0.77714596973225614 -0.62932038083071107 1 0 0 1 I I -0.70710678118654746 0.70710678118654746 1 forward I I I I #
loop $-1 $-1 $213 $58 #
coedge $-1 $135 $135 $214 $215 reversed $84 $-1 #
face $-1 $216 $217 $46 $-1 $218 reversed single #
loop $-1 $-1 $219 $86 #
plane-surface $-1 21.506999095143456 -11.621802646342431 72.742548788697476 0 0.77714596973225614 0.62932038083071107 1 0 0 forward_v I I I I #
coedge $-1 $220 $221 $222 $223 reversed $87 $-1 #
face $-1 $-1 $224 $47 $-1 $225 forward single #
loop $-1 $226 $227 $89 #
cone-surface $-1 16.442664133379211 34.700492255319759 9.3846111845000735 0 -0.77714596973225614 -0.62932038083071107 1 0 0 1 I I -0.70710678118654746 0.70710678118654746 1 forward I I I I #
loop $-1 $-1 $228 $60 #
coedge $-1 $144 $144 $229 $230 reversed $90 $-1 #
face $-1 $-1 $231 $48 $-1 $232 forward single #
loop $-1 $233 $234 $92 #
cone-surface $-1 26.571334056907716 34.700492255319759 9.3846111845000735 0 -0.77714596973225614 -0.62932038083071107 1 0 0 1 I I -0.70710678118654746 0.70710678118654746 1 forward I I I I #
loop $-1 $-1 $235 $61 #
coedge $-1 $149 $149 $236 $237 reversed $93 $-1 #
face $-1 $238 $239 $49 $-1 $240 forward single #
loop $-1 $-1 $241 $95 #
plane-surface $-1 52.704215707980474 107.02939171685691 168.8243889202144 1 0 0 0 -0.77714596973225614 -0.62932038083071107 forward_v I I I I #
coedge $-1 $242 $243 $244 $245 reversed $96 $-1 #
face $-1 $-1 $246 $50 $-1 $247 forward single #
loop $-1 $248 $249 $98 #
cone-surface $-1 59.456662323666151 34.700492255319759 9.3846111845000735 0 -0.77714596973225614 -0.62932038083071107 1 0 0 1 I I -0.70710678118654746 0.70710678118654746 1 forward I I I I #
loop $-1 $-1 $250 $63 #
coedge $-1 $158 $158 $251 $252 reversed $99 $-1 #
face $-1 $-1 $253 $51 $-1 $254 forward single #
loop $-1 $255 $256 $101 #
cone-surface $-1 69.585332247194671 34.700492255319759 9.3846111845000735 0 -0.77714596973225614 -0.62932038083071107 1 0 0 1 I I -0.70710678118654746 0.70710678118654746 1 forward I I I I #
loop $-1 $-1 $257 $64 #
coedge $-1 $163 $163 $258 $259 reversed $102 $-1 #
face $-1 $260 $261 $39 $-1 $262 reversed single #
loop $-1 $-1 $263 $104 #
plane-surface $-1 0 -44.934149480877664 0 0 1 0 0 0 1 forward_v I I I I #
coedge $-1 $264 $265 $266 $267 forward $105 $-1 #
coedge $-1 $268 $107 $269 $270 forward $66 $-1 #
coedge $-1 $107 $268 $271 $272 forward $66 $-1 #
coedge $-1 $273 $274 $107 $171 reversed $275 $-1 #
edge $-1 $276 -44.934149480877664 $277 44.934149480877664 $170 $278 forward 7 unknown #
face $-1 $279 $280 $40 $-1 $281 forward single #
loop $-1 $-1 $178 $108 #
plane-surface $-1 0 44.934149480877664 0 0 -1 0 0 0 -1 forward_v I I I I #
coedge $-1 $282 $283 $284 $285 reversed $109 $-1 #
coedge $-1 $177 $111 $286 $287 reversed $69 $-1 #
coedge $-1 $111 $176 $282 $288 reversed $69 $-1 #
coedge $-1 $284 $289 $111 $179 forward $173 $-1 #
edge $-1 $290 63.669695859905552 $291 81.51043201623142 $178 $292 forward 7 unknown #
loop $-1 $-1 $185 $112 #
plane-surface $-1 -64.520997285430411 -11.621802646342431 72.742548788697476 0 0.77714596973225614 0.62932038083071107 1 0 0 forward_v I I I I #
loop $-1 $-1 $293 $71 #
coedge $-1 $183 $183 $184 $294 reversed $113 $-1 #
coedge $-1 $184 $184 $183 $294 forward $115 $-1 #
coedge $-1 $185 $185 $116 $186 forward $180 $-1 #
edge $-1 $295 3.0012944576203126e-016 $295 6.2831853071796004 $185 $296 forward 7 unknown #
loop $-1 $-1 $192 $117 #
plane-surface $-1 -64.520997285430411 -11.621802646342431 72.742548788697476 0 0.77714596973225614 0.62932038083071107 1 0 0 forward_v I I I I #
loop $-1 $-1 $297 $74 #
coedge $-1 $190 $190 $191 $298 reversed $118 $-1 #
coedge $-1 $191 $191 $190 $298 forward $120 $-1 #
coedge $-1 $192 $192 $121 $193 forward $187 $-1 #
edge $-1 $299 3.0012944576203126e-016 $299 6.2831853071796004 $192 $300 forward 7 unknown #
face $-1 $301 $302 $43 $-1 $303 forward single #
loop $-1 $-1 $304 $122 #
plane-surface $-1 -33.323780672593401 107.02939171685691 168.8243889202144 1 0 0 0 -0.77714596973225614 -0.62932038083071107 forward_v I I I I #
coedge $-1 $305 $306 $307 $308 reversed $123 $-1 #
coedge $-1 $199 $125 $309 $310 reversed $78 $-1 #
coedge $-1 $125 $198 $305 $311 reversed $78 $-1 #
coedge $-1 $307 $312 $125 $201 forward $313 $-1 #
edge $-1 $314 63.669695859905552 $315 81.51043201623142 $200 $316 forward 7 unknown #
loop $-1 $-1 $207 $126 #
plane-surface $-1 -21.506999095143478 -11.621802646342431 72.742548788697476 0 0.77714596973225614 0.62932038083071107 1 0 0 forward_v I I I I #
loop $-1 $-1 $317 $80 #
coedge $-1 $205 $205 $206 $318 reversed $127 $-1 #
coedge $-1 $206 $206 $205 $318 forward $129 $-1 #
coedge $-1 $207 $207 $130 $208 forward $202 $-1 #
edge $-1 $319 3.0012944576203126e-016 $319 6.2831853071796004 $207 $320 forward 7 unknown #
loop $-1 $-1 $214 $131 #
plane-surface $-1 -21.506999095143478 -11.621802646342431 72.742548788697476 0 0.77714596973225614 0.62932038083071107 1 0 0 forward_v I I I I #
loop $-1 $-1 $321 $83 #
coedge $-1 $212 $212 $213 $322 reversed $132 $-1 #
coedge $-1 $213 $213 $212 $322 forward $134 $-1 #
coedge $-1 $214 $214 $135 $215 forward $209 $-1 #
edge $-1 $323 3.0012944576203126e-016 $323 6.2831853071796004 $214 $324 forward 7 unknown #
face $-1 $325 $326 $46 $-1 $327 forward single #
loop $-1 $-1 $328 $136 #
plane-surface $-1 9.6902175176935312 107.02939171685691 168.8243889202144 1 0 0 0 -0.77714596973225614 -0.62932038083071107 forward_v I I I I #
coedge $-1 $329 $330 $331 $332 reversed $137 $-1 #
coedge $-1 $221 $139 $333 $334 reversed $87 $-1 #
coedge $-1 $139 $220 $329 $335 reversed $87 $-1 #
coedge $-1 $331 $336 $139 $223 forward $337 $-1 #
edge $-1 $338 63.669695859905552 $339 81.51043201623142 $222 $340 forward 7 unknown #
loop $-1 $-1 $229 $140 #
plane-surface $-1 21.506999095143456 -11.621802646342431 72.742548788697476 0 0.77714596973225614 0.62932038083071107 1 0 0 forward_v I I I I #
loop $-1 $-1 $341 $89 #
coedge $-1 $227 $227 $228 $342 reversed $141 $-1 #
coedge $-1 $228 $228 $227 $342 forward $143 $-1 #
coedge $-1 $229 $229 $144 $230 forward $224 $-1 #
edge $-1 $343 3.0012944576203126e-016 $343 6.2831853071796004 $229 $344 forward 7 unknown #
loop $-1 $-1 $236 $145 #
plane-surface $-1 21.506999095143456 -11.621802646342431 72.742548788697476 0 0.77714596973225614 0.62932038083071107 1 0 0 forward_v I I I I #
loop $-1 $-1 $345 $92 #
coedge $-1 $234 $234 $235 $346 reversed $146 $-1 #
coedge $-1 $235 $235 $234 $346 forward $148 $-1 #
coedge $-1 $236 $236 $149 $237 forward $231 $-1 #
edge $-1 $347 3.0012944576203126e-016 $347 6.2831853071796004 $236 $348 forward 7 unknown #
face $-1 $349 $350 $49 $-1 $351 reversed single #
loop $-1 $-1 $352 $150 #
plane-surface $-1 0 0 20.74249860020165 0 0 1 1 0 0 forward_v I I I I #
coedge $-1 $353 $354 $355 $356 reversed $151 $-1 #
coedge $-1 $357 $153 $358 $359 reversed $96 $-1 #
coedge $-1 $153 $357 $353 $360 forward $96 $-1 #
coedge $-1 $355 $361 $153 $245 forward $362 $-1 #
edge $-1 $363 -44.077280220165129 $364 -20.443717065265275 $244 $365 forward 7 unknown #
loop $-1 $-1 $251 $154 #
plane-surface $-1 64.520997285430397 -11.621802646342431 72.742548788697476 0 0.77714596973225614 0.62932038083071107 1 0 0 forward_v I I I I #
loop $-1 $-1 $366 $98 #
coedge $-1 $249 $249 $250 $367 reversed $155 $-1 #
coedge $-1 $250 $250 $249 $367 forward $157 $-1 #
coedge $-1 $251 $251 $158 $252 forward $246 $-1 #
edge $-1 $368 3.0012944576203126e-016 $368 6.2831853071796004 $251 $369 forward 7 unknown #
loop $-1 $-1 $258 $159 #
plane-surface $-1 64.520997285430397 -11.621802646342431 72.742548788697476 0 0.77714596973225614 0.62932038083071107 1 0 0 forward_v I I I I #
loop $-1 $-1 $370 $101 #
coedge $-1 $256 $256 $257 $371 reversed $160 $-1 #
coedge $-1 $257 $257 $256 $371 forward $162 $-1 #
coedge $-1 $258 $258 $163 $259 forward $253 $-1 #
edge $-1 $372 3.0012944576203126e-016 $372 6.2831853071796004 $258 $373 forward 7 unknown #
face $-1 $374 $375 $39 $-1 $376 reversed single #
loop $-1 $-1 $377 $164 #
plane-surface $-1 -76.337778862880342 0 0 1 0 0 0 0 -1 forward_v I I I I #
coedge $-1 $378 $271 $379 $380 forward $165 $-1 #
coedge $-1 $381 $167 $378 $382 forward $105 $-1 #
coedge $-1 $167 $381 $383 $384 forward $105 $-1 #
coedge $-1 $274 $273 $167 $267 reversed $275 $-1 #
edge $-1 $385 -44.934149480877664 $386 44.934149480877664 $266 $387 forward 7 unknown #
coedge $-1 $169 $168 $388 $389 forward $66 $-1 #
coedge $-1 $390 $391 $168 $270 reversed $375 $-1 #
edge $-1 $277 -76.337778862880342 $392 76.337778862880342 $269 $393 forward 7 unknown #
coedge $-1 $263 $394 $169 $272 reversed $165 $-1 #
edge $-1 $395 -76.337778862880342 $276 76.337778862880342 $271 $396 forward 7 unknown #
coedge $-1 $266 $170 $394 $397 forward $275 $-1 #
coedge $-1 $170 $266 $390 $398 reversed $275 $-1 #
loop $-1 $-1 $273 $374 #
vertex $-1 $171 $399 #
vertex $-1 $171 $400 #
straight-curve $-1 76.337778862880342 0 20.74249860020165 0 1 0 I I #
face $-1 $-1 $401 $40 $-1 $402 reversed single #
loop $-1 $-1 $286 $172 #
plane-surface $-1 0 0 20.74249860020165 0 0 1 1 0 0 forward_v I I I I #
coedge $-1 $403 $175 $177 $288 forward $109 $-1 #
coedge $-1 $175 $403 $404 $405 reversed $109 $-1 #
coedge $-1 $406 $178 $175 $285 forward $173 $-1 #
edge $-1 $291 20.443717065265282 $407 44.077280220165136 $284 $408 forward 7 unknown #
coedge $-1 $409 $410 $176 $287 forward $280 $-1 #
edge $-1 $411 -23.027689268952983 $290 -8.5805463775507889 $286 $412 forward 7 unknown #
edge $-1 $291 -89.868298961755386 $411 -66.911561294477266 $177 $413 forward 7 unknown #
coedge $-1 $178 $406 $409 $414 reversed $173 $-1 #
vertex $-1 $414 $415 #
vertex $-1 $179 $416 #
straight-curve $-1 -52.704215707980488 44.934149480877664 84.412194460107202 0 0 -1 I I #
coedge $-1 $293 $293 $-1 $417 reversed $182 $-1 #
edge $-1 $418 0 $418 6.2831853071796004 $183 $419 forward 7 unknown #
vertex $-1 $186 $420 #
ellipse-curve $-1 -69.585332247194671 37.710578035176567 11.822130522038714 0 0.77714596973225614 0.62932038083071107 2 0 0 1 I I #
coedge $-1 $297 $297 $-1 $421 reversed $189 $-1 #
edge $-1 $422 0 $422 6.2831853071796004 $190 $423 forward 7 unknown #
vertex $-1 $193 $424 #
ellipse-curve $-1 -59.456662323666166 37.710578035176567 11.822130522038714 0 0.77714596973225614 0.62932038083071107 2 0 0 1 I I #
face $-1 $-1 $313 $43 $-1 $425 reversed single #
loop $-1 $-1 $426 $194 #
plane-surface $-1 0 0 20.74249860020165 0 0 1 1 0 0 forward_v I I I I #
coedge $-1 $427 $428 $429 $430 reversed $195 $-1 #
coedge $-1 $431 $197 $199 $311 forward $123 $-1 #
coedge $-1 $197 $431 $427 $432 forward $123 $-1 #
coedge $-1 $429 $200 $197 $308 forward $313 $-1 #
edge $-1 $315 -1.0632820298781862 $433 22.570281125021662 $307 $434 forward 7 unknown #
coedge $-1 $435 $436 $198 $310 forward $302 $-1 #
edge $-1 $437 -23.027689268952983 $314 -8.5805463775507889 $309 $438 forward 7 unknown #
edge $-1 $315 -89.868298961755386 $437 -66.911561294477266 $199 $439 forward 7 unknown #
coedge $-1 $200 $429 $435 $440 reversed $313 $-1 #
loop $-1 $-1 $429 $301 #
vertex $-1 $440 $441 #
vertex $-1 $201 $442 #
straight-curve $-1 -9.6902175176935526 44.934149480877664 84.412194460107202 0 0 -1 I I #
coedge $-1 $317 $317 $-1 $443 reversed $204 $-1 #
edge $-1 $444 0 $444 6.2831853071796004 $205 $445 forward 7 unknown #
vertex $-1 $208 $446 #
ellipse-curve $-1 -26.57133405690773 37.710578035176567 11.822130522038714 0 0.77714596973225614 0.62932038083071107 2 0 0 1 I I #
coedge $-1 $321 $321 $-1 $447 reversed $211 $-1 #
edge $-1 $448 0 $448 6.2831853071796004 $212 $449 forward 7 unknown #
vertex $-1 $215 $450 #
ellipse-curve $-1 -16.442664133379225 37.710578035176567 11.822130522038714 0 0.77714596973225614 0.62932038083071107 2 0 0 1 I I #
face $-1 $-1 $337 $46 $-1 $451 reversed single #
loop $-1 $-1 $452 $216 #
plane-surface $-1 0 0 20.74249860020165 0 0 1 1 0 0 forward_v I I I I #
coedge $-1 $453 $454 $455 $456 reversed $217 $-1 #
coedge $-1 $457 $219 $221 $335 forward $137 $-1 #
coedge $-1 $219 $457 $453 $458 forward $137 $-1 #
coedge $-1 $455 $222 $219 $332 forward $337 $-1 #
edge $-1 $339 -22.570281125021651 $459 1.0632820298781969 $331 $460 forward 7 unknown #
coedge $-1 $461 $462 $220 $334 forward $326 $-1 #
edge $-1 $463 -23.027689268952983 $338 -8.5805463775507889 $333 $464 forward 7 unknown #
edge $-1 $339 -89.868298961755386 $463 -66.911561294477266 $221 $465 forward 7 unknown #
coedge $-1 $222 $455 $461 $466 reversed $337 $-1 #
loop $-1 $-1 $455 $325 #
vertex $-1 $466 $467 #
vertex $-1 $223 $468 #
straight-curve $-1 33.323780672593379 44.934149480877664 84.412194460107202 0 0 -1 I I #
coedge $-1 $341 $341 $-1 $469 reversed $226 $-1 #
edge $-1 $470 0 $470 6.2831853071796004 $227 $471 forward 7 unknown #
vertex $-1 $230 $472 #
ellipse-curve $-1 16.442664133379211 37.710578035176567 11.822130522038714 0 0.77714596973225614 0.62932038083071107 2 0 0 1 I I #
coedge $-1 $345 $345 $-1 $473 reversed $233 $-1 #
edge $-1 $474 0 $474 6.2831853071796004 $234 $475 forward 7 unknown #
vertex $-1 $237 $476 #
ellipse-curve $-1 26.571334056907716 37.710578035176567 11.822130522038714 0 0.77714596973225614 0.62932038083071107 2 0 0 1 I I #
face $-1 $-1 $362 $49 $-1 $477 reversed single #
loop $-1 $-1 $358 $238 #
plane-surface $-1 76.337778862880342 0 0 -1 0 0 0 0 1 forward_v I I I I #
coedge $-1 $478 $479 $354 $480 forward $239 $-1 #
coedge $-1 $354 $241 $243 $360 reversed $151 $-1 #
coedge $-1 $241 $353 $352 $480 reversed $151 $-1 #
coedge $-1 $481 $244 $241 $356 forward $362 $-1 #
edge $-1 $364 -81.51043201623142 $482 -63.669695859905552 $355 $483 forward 7 unknown #
coedge $-1 $243 $242 $478 $484 reversed $96 $-1 #
coedge $-1 $485 $486 $242 $359 forward $350 $-1 #
edge $-1 $487 34.988853351215347 $363 57.94559101849346 $358 $488 forward 7 unknown #
edge $-1 $489 66.911561294477266 $364 89.868298961755386 $353 $490 forward 7 unknown #
coedge $-1 $244 $481 $485 $491 forward $362 $-1 #
loop $-1 $-1 $355 $349 #
vertex $-1 $359 $492 #
vertex $-1 $245 $493 #
straight-curve $-1 32.260498642715199 44.934149480877664 2.9017624438757821 -1 0 0 I I #
coedge $-1 $366 $366 $-1 $494 reversed $248 $-1 #
edge $-1 $495 0 $495 6.2831853071796004 $249 $496 forward 7 unknown #
vertex $-1 $252 $497 #
ellipse-curve $-1 59.456662323666151 37.710578035176567 11.822130522038714 0 0.77714596973225614 0.62932038083071107 2 0 0 1 I I #
coedge $-1 $370 $370 $-1 $498 reversed $255 $-1 #
edge $-1 $499 0 $499 6.2831853071796004 $256 $500 forward 7 unknown #
vertex $-1 $259 $501 #
ellipse-curve $-1 69.585332247194671 37.710578035176567 11.822130522038714 0 0.77714596973225614 0.62932038083071107 2 0 0 1 I I #
face $-1 $-1 $275 $39 $-1 $502 reversed single #
loop $-1 $-1 $390 $260 #
plane-surface $-1 0 44.934149480877664 0 0 -1 0 0 0 -1 forward_v I I I I #
coedge $-1 $503 $388 $391 $504 forward $261 $-1 #
coedge $-1 $394 $263 $264 $382 reversed $165 $-1 #
coedge $-1 $388 $503 $263 $380 reversed $261 $-1 #
edge $-1 $395 -20.74249860020165 $505 20.74249860020165 $379 $506 forward 7 unknown #
coedge $-1 $265 $264 $503 $507 forward $105 $-1 #
edge $-1 $386 -76.337778862880342 $505 76.337778862880342 $378 $508 forward 7 unknown #
coedge $-1 $391 $390 $265 $384 reversed $375 $-1 #
edge $-1 $509 -76.337778862880342 $385 76.337778862880342 $383 $510 forward 7 unknown #
vertex $-1 $267 $511 #
vertex $-1 $397 $512 #
straight-curve $-1 76.337778862880342 0 -20.74249860020165 0 -1 0 I I #
coedge $-1 $377 $379 $268 $389 reversed $261 $-1 #
edge $-1 $392 -44.934149480877664 $395 44.934149480877664 $388 $513 forward 7 unknown #
coedge $-1 $383 $269 $274 $398 forward $375 $-1 #
coedge $-1 $269 $383 $377 $504 reversed $375 $-1 #
vertex $-1 $270 $514 #
straight-curve $-1 0 44.934149480877664 20.74249860020165 -1 0 0 I I #
coedge $-1 $271 $378 $273 $397 reversed $165 $-1 #
vertex $-1 $389 $515 #
straight-curve $-1 0 -44.934149480877664 20.74249860020165 1 0 0 I I #
edge $-1 $276 -20.74249860020165 $386 20.74249860020165 $273 $516 forward 7 unknown #
edge $-1 $277 -20.74249860020165 $385 20.74249860020165 $274 $517 forward 7 unknown #
point $-1 76.337778862880342 -44.934149480877664 20.74249860020165 #
point $-1 76.337778862880342 44.934149480877664 20.74249860020165 #
loop $-1 $-1 $404 $279 #
plane-surface $-1 -76.337778862880342 0 0 1 0 0 0 0 -1 forward_v I I I I #
coedge $-1 $283 $282 $410 $518 reversed $109 $-1 #
coedge $-1 $519 $520 $283 $405 forward $401 $-1 #
edge $-1 $407 -57.94559101849346 $521 -34.988853351215347 $404 $522 forward 7 unknown #
coedge $-1 $289 $284 $520 $523 reversed $173 $-1 #
vertex $-1 $285 $524 #
straight-curve $-1 -32.260498642715206 44.934149480877664 2.9017624438757821 -1 0 0 I I #
coedge $-1 $525 $286 $289 $414 forward $280 $-1 #
coedge $-1 $286 $525 $403 $518 forward $280 $-1 #
vertex $-1 $287 $526 #
straight-curve $-1 -52.704215707980488 53.514695858428453 20.742498600201657 0 1 0 I I #
straight-curve $-1 -52.704215707980488 -11.621802646342431 72.742548788697476 0 -0.62932038083071107 0.77714596973225614 I I #
edge $-1 $290 52.704215707980488 $527 76.337778862880342 $289 $528 forward 7 unknown #
point $-1 -52.704215707980488 44.934149480877664 20.74249860020165 #
point $-1 -52.704215707980488 44.934149480877664 2.9017624438757821 #
edge $-1 $529 1 $529 0 $293 $-1 forward 7 unknown #
vertex $-1 $294 $530 #
ellipse-curve $-1 -69.585332247194671 35.477638225052011 10.013931565330784 0 0.77714596973225614 0.62932038083071107 2 0 0 1 I I #
point $-1 -67.585332247194671 37.71057803517661 11.822130522038748 #
edge $-1 $531 1 $531 0 $297 $-1 forward 7 unknown #
vertex $-1 $298 $532 #
ellipse-curve $-1 -59.456662323666166 35.477638225052011 10.013931565330784 0 0.77714596973225614 0.62932038083071107 2 0 0 1 I I #
point $-1 -57.456662323666166 37.71057803517661 11.822130522038748 #
plane-surface $-1 0 44.934149480877664 0 0 -1 0 0 0 -1 forward_v I I I I #
coedge $-1 $436 $435 $428 $533 forward $302 $-1 #
coedge $-1 $428 $304 $306 $432 reversed $195 $-1 #
coedge $-1 $304 $427 $426 $533 reversed $195 $-1 #
coedge $-1 $312 $307 $304 $430 forward $313 $-1 #
edge $-1 $433 -81.51043201623142 $534 -63.669695859905552 $429 $535 forward 7 unknown #
coedge $-1 $306 $305 $436 $536 reversed $123 $-1 #
edge $-1 $537 66.911561294477266 $433 89.868298961755386 $427 $538 forward 7 unknown #
vertex $-1 $308 $539 #
straight-curve $-1 -10.753499547571739 44.934149480877664 2.9017624438757821 -1 0 0 I I #
coedge $-1 $426 $309 $312 $440 forward $302 $-1 #
coedge $-1 $309 $426 $431 $536 forward $302 $-1 #
vertex $-1 $310 $540 #
straight-curve $-1 -9.6902175176935526 53.514695858428453 20.742498600201657 0 1 0 I I #
straight-curve $-1 -9.6902175176935526 -11.621802646342431 72.742548788697476 0 -0.62932038083071107 0.77714596973225614 I I #
edge $-1 $314 9.6902175176935526 $534 33.323780672593401 $312 $541 forward 7 unknown #
point $-1 -9.6902175176935526 44.934149480877664 20.74249860020165 #
point $-1 -9.6902175176935526 44.934149480877664 2.9017624438757821 #
edge $-1 $542 1 $542 0 $317 $-1 forward 7 unknown #
vertex $-1 $318 $543 #
ellipse-curve $-1 -26.57133405690773 35.477638225052011 10.013931565330784 0 0.77714596973225614 0.62932038083071107 2 0 0 1 I I #
point $-1 -24.57133405690773 37.71057803517661 11.822130522038748 #
edge $-1 $544 1 $544 0 $321 $-1 forward 7 unknown #
vertex $-1 $322 $545 #
ellipse-curve $-1 -16.442664133379225 35.477638225052011 10.013931565330784 0 0.77714596973225614 0.62932038083071107 2 0 0 1 I I #
point $-1 -14.442664133379225 37.71057803517661 11.822130522038748 #
plane-surface $-1 0 44.934149480877664 0 0 -1 0 0 0 -1 forward_v I I I I #
coedge $-1 $462 $461 $454 $546 forward $326 $-1 #
coedge $-1 $454 $328 $330 $458 reversed $217 $-1 #
coedge $-1 $328 $453 $452 $546 reversed $217 $-1 #
coedge $-1 $336 $331 $328 $456 forward $337 $-1 #
edge $-1 $459 -81.51043201623142 $547 -63.669695859905552 $455 $548 forward 7 unknown #
coedge $-1 $330 $329 $462 $549 reversed $137 $-1 #
edge $-1 $550 66.911561294477266 $459 89.868298961755386 $453 $551 forward 7 unknown #
vertex $-1 $332 $552 #
straight-curve $-1 10.753499547571728 44.934149480877664 2.9017624438757821 -1 0 0 I I #
coedge $-1 $452 $333 $336 $466 forward $326 $-1 #
coedge $-1 $333 $452 $457 $549 forward $326 $-1 #
vertex $-1 $334 $553 #
straight-curve $-1 33.323780672593379 53.514695858428453 20.742498600201657 0 1 0 I I #
straight-curve $-1 33.323780672593379 -11.621802646342431 72.742548788697476 0 -0.62932038083071107 0.77714596973225614 I I #
edge $-1 $338 -33.323780672593379 $547 -9.6902175176935312 $336 $554 forward 7 unknown #
point $-1 33.323780672593379 44.934149480877664 20.74249860020165 #
point $-1 33.323780672593379 44.934149480877664 2.9017624438757821 #
edge $-1 $555 1 $555 0 $341 $-1 forward 7 unknown #
vertex $-1 $342 $556 #
ellipse-curve $-1 16.442664133379211 35.477638225052011 10.013931565330784 0 0.77714596973225614 0.62932038083071107 2 0 0 1 I I #
point $-1 18.442664133379211 37.71057803517661 11.822130522038748 #
edge $-1 $557 1 $557 0 $345 $-1 forward 7 unknown #
vertex $-1 $346 $558 #
ellipse-curve $-1 26.571334056907716 35.477638225052011 10.013931565330784 0 0.77714596973225614 0.62932038083071107 2 0 0 1 I I #
point $-1 28.571334056907716 37.71057803517661 11.822130522038748 #
plane-surface $-1 0 44.934149480877664 0 0 -1 0 0 0 -1 forward_v I I I I #
coedge $-1 $559 $352 $357 $484 forward $239 $-1 #
coedge $-1 $352 $559 $481 $560 forward $239 $-1 #
edge $-1 $482 8.5805463775507889 $489 23.027689268952983 $352 $561 forward 7 unknown #
coedge $-1 $361 $355 $479 $560 reversed $362 $-1 #
vertex $-1 $356 $562 #
straight-curve $-1 52.704215707980474 44.934149480877664 84.412194460107202 0 0 1 I I #
edge $-1 $489 20.443717065265275 $487 44.077280220165129 $478 $563 forward 7 unknown #
coedge $-1 $486 $358 $361 $491 reversed $350 $-1 #
coedge $-1 $358 $485 $559 $564 reversed $350 $-1 #
vertex $-1 $564 $565 #
straight-curve $-1 76.337778862880342 8.4678080736587269 47.933944967651598 0 0.62932038083071107 -0.77714596973225614 I I #
vertex $-1 $484 $566 #
straight-curve $-1 52.704215707980474 -11.621802646342431 72.742548788697476 0 0.62932038083071107 -0.77714596973225614 I I #
edge $-1 $567 -20.74249860020165 $363 -2.9017624438757821 $485 $568 forward 7 unknown #
point $-1 76.337778862880327 44.934149480877664 2.9017624438757821 #
point $-1 52.704215707980474 44.934149480877664 2.9017624438757821 #
edge $-1 $569 1 $569 0 $366 $-1 forward 7 unknown #
vertex $-1 $367 $570 #
ellipse-curve $-1 59.456662323666151 35.477638225052011 10.013931565330784 0 0.77714596973225614 0.62932038083071107 2 0 0 1 I I #
point $-1 61.456662323666151 37.71057803517661 11.822130522038748 #
edge $-1 $571 1 $571 0 $370 $-1 forward 7 unknown #
vertex $-1 $371 $572 #
ellipse-curve $-1 69.585332247194671 35.477638225052011 10.013931565330784 0 0.77714596973225614 0.62932038083071107 2 0 0 1 I I #
point $-1 71.585332247194671 37.71057803517661 11.822130522038748 #
plane-surface $-1 76.337778862880342 0 0 -1 0 0 0 0 1 forward_v I I I I #
coedge $-1 $379 $377 $381 $507 reversed $261 $-1 #
edge $-1 $392 -20.74249860020165 $509 20.74249860020165 $391 $573 forward 7 unknown #
vertex $-1 $507 $574 #
straight-curve $-1 -76.337778862880342 -44.934149480877664 0 0 0 -1 I I #
edge $-1 $505 -44.934149480877664 $509 44.934149480877664 $503 $575 forward 7 unknown #
straight-curve $-1 0 -44.934149480877664 -20.74249860020165 -1 0 0 I I #
vertex $-1 $384 $576 #
straight-curve $-1 0 44.934149480877664 -20.74249860020165 1 0 0 I I #
point $-1 76.337778862880342 44.934149480877664 -20.74249860020165 #
point $-1 76.337778862880342 -44.934149480877664 -20.74249860020165 #
straight-curve $-1 -76.337778862880342 0 20.74249860020165 0 -1 0 I I #
point $-1 -76.337778862880342 44.934149480877664 20.74249860020165 #
point $-1 -76.337778862880342 -44.934149480877664 20.74249860020165 #
straight-curve $-1 76.337778862880342 -44.934149480877664 0 0 0 -1 I I #
straight-curve $-1 76.337778862880342 44.934149480877664 0 0 0 -1 I I #
edge $-1 $521 -44.077280220165136 $411 -20.443717065265282 $410 $577 forward 7 unknown #
coedge $-1 $520 $404 $525 $578 reversed $401 $-1 #
coedge $-1 $404 $519 $406 $523 forward $401 $-1 #
vertex $-1 $405 $579 #
straight-curve $-1 -76.337778862880342 8.4678080736587269 47.933944967651598 0 -0.62932038083071107 0.77714596973225614 I I #
edge $-1 $527 -20.74249860020165 $407 -2.9017624438757861 $406 $580 forward 7 unknown #
point $-1 -76.337778862880342 44.934149480877664 2.9017624438757861 #
coedge $-1 $410 $409 $519 $578 forward $280 $-1 #
point $-1 -52.704215707980488 30.48700658947547 20.742498600201642 #
vertex $-1 $414 $581 #
straight-curve $-1 0 44.934149480877664 20.74249860020165 -1 0 0 I I #
vertex $-1 $417 $582 #
point $-1 -67.585332247194671 35.477638225052011 10.013931565330784 #
vertex $-1 $421 $583 #
point $-1 -57.456662323666166 35.477638225052011 10.013931565330784 #
edge $-1 $534 8.5805463775507889 $537 23.027689268952983 $426 $584 forward 7 unknown #
vertex $-1 $533 $585 #
straight-curve $-1 -33.323780672593401 44.934149480877664 84.412194460107202 0 0 1 I I #
edge $-1 $537 -22.570281125021662 $437 1.0632820298781862 $436 $586 forward 7 unknown #
vertex $-1 $536 $587 #
straight-curve $-1 -33.323780672593401 -11.621802646342431 72.742548788697476 0 0.62932038083071107 -0.77714596973225614 I I #
point $-1 -33.323780672593401 44.934149480877664 2.9017624438757821 #
point $-1 -9.6902175176935526 30.48700658947547 20.742498600201642 #
straight-curve $-1 0 44.934149480877664 20.74249860020165 -1 0 0 I I #
vertex $-1 $443 $588 #
point $-1 -24.57133405690773 35.477638225052011 10.013931565330784 #
vertex $-1 $447 $589 #
point $-1 -14.442664133379225 35.477638225052011 10.013931565330784 #
edge $-1 $547 8.5805463775507889 $550 23.027689268952983 $452 $590 forward 7 unknown #
vertex $-1 $456 $591 #
straight-curve $-1 9.6902175176935312 44.934149480877664 84.412194460107202 0 0 1 I I #
edge $-1 $550 -1.0632820298781969 $463 22.570281125021651 $462 $592 forward 7 unknown #
vertex $-1 $549 $593 #
straight-curve $-1 9.6902175176935312 -11.621802646342431 72.742548788697476 0 0.62932038083071107 -0.77714596973225614 I I #
point $-1 9.6902175176935312 44.934149480877664 2.9017624438757821 #
point $-1 33.323780672593379 30.48700658947547 20.742498600201642 #
straight-curve $-1 0 44.934149480877664 20.74249860020165 -1 0 0 I I #
vertex $-1 $469 $594 #
point $-1 18.442664133379211 35.477638225052011 10.013931565330784 #
vertex $-1 $473 $595 #
point $-1 28.571334056907716 35.477638225052011 10.013931565330784 #
coedge $-1 $479 $478 $486 $564 forward $239 $-1 #
edge $-1 $567 -76.337778862880342 $482 -52.704215707980474 $481 $596 forward 7 unknown #
straight-curve $-1 52.704215707980474 53.514695858428453 20.742498600201657 0 -1 0 I I #
point $-1 52.704215707980474 44.934149480877664 20.74249860020165 #
straight-curve $-1 32.260498642715199 30.487006589475463 20.742498600201657 1 0 0 I I #
edge $-1 $487 30.48700658947547 $567 44.934149480877664 $486 $597 forward 7 unknown #
point $-1 76.337778862880327 30.48700658947547 20.742498600201642 #
point $-1 52.704215707980474 30.48700658947547 20.742498600201642 #
vertex $-1 $564 $598 #
straight-curve $-1 76.337778862880342 44.934149480877664 0 0 0 -1 I I #
vertex $-1 $494 $599 #
point $-1 61.456662323666151 35.477638225052011 10.013931565330784 #
vertex $-1 $498 $600 #
point $-1 71.585332247194671 35.477638225052011 10.013931565330784 #
straight-curve $-1 -76.337778862880342 44.934149480877664 0 0 0 -1 I I #
point $-1 -76.337778862880342 -44.934149480877664 -20.74249860020165 #
straight-curve $-1 -76.337778862880342 0 -20.74249860020165 0 1 0 I I #
point $-1 -76.337778862880342 44.934149480877664 -20.74249860020165 #
straight-curve $-1 -32.260498642715206 30.487006589475463 20.742498600201657 1 0 0 I I #
edge $-1 $527 -44.934149480877664 $521 -30.48700658947547 $519 $601 forward 7 unknown #
point $-1 -76.337778862880342 30.48700658947547 20.742498600201642 #
straight-curve $-1 -76.337778862880342 44.934149480877664 0 0 0 -1 I I #
point $-1 -76.337778862880342 44.934149480877664 20.74249860020165 #
point $-1 -69.585332247194671 33.923346285587506 8.7552908036693626 #
point $-1 -59.456662323666166 33.923346285587506 8.7552908036693626 #
straight-curve $-1 -33.323780672593401 53.514695858428453 20.742498600201657 0 -1 0 I I #
point $-1 -33.323780672593401 44.934149480877664 20.74249860020165 #
straight-curve $-1 -10.753499547571739 30.487006589475463 20.742498600201657 1 0 0 I I #
point $-1 -33.323780672593401 30.48700658947547 20.742498600201642 #
point $-1 -26.57133405690773 33.923346285587506 8.7552908036693626 #
point $-1 -16.442664133379225 33.923346285587506 8.7552908036693626 #
straight-curve $-1 9.6902175176935312 53.514695858428453 20.742498600201657 0 -1 0 I I #
point $-1 9.6902175176935312 44.934149480877664 20.74249860020165 #
straight-curve $-1 10.753499547571728 30.487006589475463 20.742498600201657 1 0 0 I I #
point $-1 9.6902175176935312 30.48700658947547 20.742498600201642 #
point $-1 16.442664133379211 33.923346285587506 8.7552908036693626 #
point $-1 26.571334056907716 33.923346285587506 8.7552908036693626 #
straight-curve $-1 0 44.934149480877664 20.74249860020165 -1 0 0 I I #
straight-curve $-1 76.337778862880342 0 20.74249860020165 0 1 0 I I #
point $-1 76.337778862880342 44.934149480877664 20.74249860020165 #
point $-1 59.456662323666151 33.923346285587506 8.7552908036693626 #
point $-1 69.585332247194671 33.923346285587506 8.7552908036693626 #
straight-curve $-1 -76.337778862880342 0 20.74249860020165 0 -1 0 I I #
End-of-ACIS-data 