500 0 15 0           
7 Unknown 11 ACIS 5.0 NT 24 Fri Mar 26 16:30:20 1999 
-1 9.9999999999999995e-007 1e-010 
body $-1 $15 $-1 $16 #
body $-1 $17 $-1 $18 #
body $-1 $19 $-1 $20 #
body $-1 $21 $-1 $22 #
body $-1 $23 $-1 $24 #
body $-1 $25 $-1 $26 #
body $-1 $27 $-1 $28 #
body $-1 $29 $-1 $30 #
body $-1 $31 $-1 $32 #
body $-1 $33 $-1 $34 #
body $-1 $35 $-1 $36 #
body $-1 $37 $-1 $38 #
body $-1 $39 $-1 $40 #
body $-1 $41 $-1 $42 #
body $-1 $43 $-1 $44 #
lump $-1 $-1 $45 $0 #
transform $-1 1 0 0 0 1 0 0 0 1 40.152592547379989 20.687156815847317 6.6835672536272606 1 rotate no_reflect no_shear #
lump $-1 $-1 $46 $1 #
transform $-1 1 0 0 0 1 0 0 0 1 40.152592547379989 20.687156815847317 6.6835672536272606 1 rotate no_reflect no_shear #
lump $-1 $-1 $47 $2 #
transform $-1 1 0 0 0 1 0 0 0 1 40.152592547379989 20.687156815847317 6.6835672536272606 1 rotate no_reflect no_shear #
lump $-1 $-1 $48 $3 #
transform $-1 1 0 0 0 1 0 0 0 1 40.152592547379989 20.687156815847317 6.6835672536272606 1 rotate no_reflect no_shear #
lump $-1 $-1 $49 $4 #
transform $-1 1 0 0 0 1 0 0 0 1 40.152592547379989 20.687156815847317 6.6835672536272606 1 rotate no_reflect no_shear #
lump $-1 $-1 $50 $5 #
transform $-1 1 0 0 0 1 0 0 0 1 40.152592547379989 20.687156815847317 6.6835672536272606 1 rotate no_reflect no_shear #
lump $-1 $-1 $51 $6 #
transform $-1 1 0 0 0 1 0 0 0 1 40.152592547379989 20.687156815847317 6.6835672536272606 1 rotate no_reflect no_shear #
lump $-1 $-1 $52 $7 #
transform $-1 1 0 0 0 1 0 0 0 1 40.152592547379989 20.687156815847317 6.6835672536272606 1 rotate no_reflect no_shear #
lump $-1 $-1 $53 $8 #
transform $-1 1 0 0 0 1 0 0 0 1 40.152592547379989 20.687156815847317 6.6835672536272606 1 rotate no_reflect no_shear #
lump $-1 $-1 $54 $9 #
transform $-1 1 0 0 0 1 0 0 0 1 40.152592547379989 20.687156815847317 6.6835672536272606 1 rotate no_reflect no_shear #
lump $-1 $-1 $55 $10 #
transform $-1 1 0 0 0 1 0 0 0 1 40.152592547379989 20.687156815847317 6.6835672536272606 1 rotate no_reflect no_shear #
lump $-1 $-1 $56 $11 #
transform $-1 1 0 0 0 1 0 0 0 1 40.152592547379989 20.687156815847317 6.6835672536272606 1 rotate no_reflect no_shear #
lump $-1 $-1 $57 $12 #
transform $-1 1 0 0 0 1 0 0 0 1 40.152592547379989 20.687156815847317 6.6835672536272606 1 rotate no_reflect no_shear #
lump $-1 $-1 $58 $13 #
transform $-1 1 0 0 0 1 0 0 0 1 40.152592547379989 20.687156815847317 6.6835672536272606 1 rotate no_reflect no_shear #
lump $-1 $-1 $59 $14 #
transform $-1 1 0 0 0 1 0 0 0 1 40.152592547379989 20.687156815847317 6.6835672536272606 1 rotate no_reflect no_shear #
shell $-1 $-1 $-1 $60 $-1 $15 #
shell $-1 $-1 $-1 $61 $-1 $17 #
shell $-1 $-1 $-1 $62 $-1 $19 #
shell $-1 $-1 $-1 $63 $-1 $21 #
shell $-1 $-1 $-1 $64 $-1 $23 #
shell $-1 $-1 $-1 $65 $-1 $25 #
shell $-1 $-1 $-1 $66 $-1 $27 #
shell $-1 $-1 $-1 $67 $-1 $29 #
shell $-1 $-1 $-1 $68 $-1 $31 #
shell $-1 $-1 $-1 $69 $-1 $33 #
shell $-1 $-1 $-1 $70 $-1 $35 #
shell $-1 $-1 $-1 $71 $-1 $37 #
shell $-1 $-1 $-1 $72 $-1 $39 #
shell $-1 $-1 $-1 $73 $-1 $41 #
shell $-1 $-1 $-1 $74 $-1 $43 #
face $-1 $75 $76 $45 $-1 $77 forward single #
face $-1 $78 $79 $46 $-1 $80 forward single #
face $-1 $81 $82 $47 $-1 $83 forward single #
face $-1 $84 $85 $48 $-1 $86 reversed single #
face $-1 $87 $88 $49 $-1 $89 forward single #
face $-1 $90 $91 $50 $-1 $92 forward single #
face $-1 $93 $94 $51 $-1 $95 reversed single #
face $-1 $96 $97 $52 $-1 $98 forward single #
face $-1 $99 $100 $53 $-1 $101 forward single #
face $-1 $102 $103 $54 $-1 $104 reversed single #
face $-1 $105 $106 $55 $-1 $107 forward single #
face $-1 $108 $109 $56 $-1 $110 reversed single #
face $-1 $111 $112 $57 $-1 $113 forward single #
face $-1 $114 $115 $58 $-1 $116 reversed single #
face $-1 $117 $118 $59 $-1 $119 forward single #
face $-1 $120 $121 $45 $-1 $122 reversed single #
loop $-1 $-1 $123 $60 #
plane-surface $-1 0 0 6.6835672536272606 0 0 1 1 0 0 forward_v I I I I #
face $-1 $124 $125 $46 $-1 $126 reversed single #
loop $-1 $-1 $127 $61 #
plane-surface $-1 0 -16.603672028322613 -3.6835672536272606 0 0 1 1 0 0 forward_v I I I I #
face $-1 $128 $129 $47 $-1 $130 reversed single #
loop $-1 $-1 $131 $62 #
plane-surface $-1 0 16.603672028322613 -3.6835672536272606 0 0 1 1 0 0 forward_v I I I I #
face $-1 $132 $133 $48 $-1 $134 reversed single #
loop $-1 $-1 $135 $63 #
plane-surface $-1 -103.43394263530143 -6.2778104989880994 51.132795881420407 0 -1 0 0.78801076186113728 0 -0.61566146476048833 forward_v I I I I #
face $-1 $136 $137 $49 $-1 $138 forward single #
loop $-1 $139 $140 $64 #
cone-surface $-1 -37.808662657387814 -10.736651028852249 3.8799468934925581 0.78801076186113728 0 -0.61566146476048833 0.30783073238024417 0 0.39400538093056864 1 I I 0 1 0.5 forward I I I I #
face $-1 $141 $142 $50 $-1 $143 forward single #
loop $-1 $144 $145 $65 #
cone-surface $-1 -37.808662657387814 -8.0613467109337584 3.8799468934925581 0.78801076186113728 0 -0.61566146476048833 0.30783073238024417 0 0.39400538093056864 1 I I 0 1 0.5 forward I I I I #
face $-1 $146 $147 $51 $-1 $148 reversed single #
loop $-1 $-1 $149 $66 #
plane-surface $-1 -103.43394263530143 12.520187240797911 51.132795881420407 0 -1 0 0.78801076186113728 0 -0.61566146476048833 forward_v I I I I #
face $-1 $150 $151 $52 $-1 $152 forward single #
loop $-1 $153 $154 $67 #
cone-surface $-1 -37.808662657387814 8.061346710933762 3.8799468934925581 0.78801076186113728 0 -0.61566146476048833 0.30783073238024417 0 0.39400538093056864 1 I I 0 1 0.5 forward I I I I #
face $-1 $155 $156 $53 $-1 $157 forward single #
loop $-1 $158 $159 $68 #
cone-surface $-1 -37.808662657387814 10.736651028852251 3.8799468934925581 0.78801076186113728 0 -0.61566146476048833 0.30783073238024417 0 0.39400538093056864 1 I I 0 1 0.5 forward I I I I #
face $-1 $160 $161 $54 $-1 $162 reversed single #
loop $-1 $-1 $163 $69 #
plane-surface $-1 40.1525938650665 -4.8558893872083519 114.98940771011715 0 -1 0 -0.70710678939079041 0 -0.70710677298230451 forward_v I I I I #
face $-1 $164 $165 $55 $-1 $166 forward single #
loop $-1 $167 $168 $70 #
cone-surface $-1 36.494294955398388 -7.691108388611104 3.0252696244120636 -0.70710678939079041 0 -0.70710677298230451 0.70710677298230451 0 -0.70710678939079041 1 I I 0 1 1 forward I I I I #
face $-1 $169 $170 $56 $-1 $171 reversed single #
loop $-1 $-1 $172 $71 #
plane-surface $-1 40.1525938650665 2.8352190014027521 114.98940771011715 0 -1 0 -0.70710678939079041 0 -0.70710677298230451 forward_v I I I I #
face $-1 $173 $174 $57 $-1 $175 forward single #
loop $-1 $176 $177 $72 #
cone-surface $-1 36.494294955398388 0 3.0252696244120636 -0.70710678939079041 0 -0.70710677298230451 0.70710677298230451 0 -0.70710678939079041 1 I I 0 1 1 forward I I I I #
face $-1 $178 $179 $58 $-1 $180 reversed single #
loop $-1 $-1 $181 $73 #
plane-surface $-1 40.1525938650665 10.526327390013858 114.98940771011715 0 -1 0 -0.70710678939079041 0 -0.70710677298230451 forward_v I I I I #
face $-1 $182 $183 $59 $-1 $184 forward single #
loop $-1 $185 $186 $74 #
cone-surface $-1 36.494294955398388 7.6911083886111058 3.0252696244120636 -0.70710678939079041 0 -0.70710677298230451 0.70710677298230451 0 -0.70710678939079041 1 I I 0 1 1 forward I I I I #
face $-1 $187 $188 $45 $-1 $189 reversed single #
loop $-1 $-1 $190 $75 #
plane-surface $-1 0 0 -6.6835672536272606 0 0 1 1 0 0 forward_v I I I I #
coedge $-1 $191 $192 $193 $194 forward $76 $-1 #
face $-1 $195 $196 $46 $-1 $197 reversed single #
loop $-1 $-1 $198 $78 #
plane-surface $-1 0 -12.52018724079791 -5.1835672536272606 0 -1 0 0 0 -1 forward_v I I I I #
coedge $-1 $199 $200 $201 $202 reversed $79 $-1 #
face $-1 $203 $204 $47 $-1 $205 reversed single #
loop $-1 $-1 $206 $81 #
plane-surface $-1 0 12.52018724079791 -5.1835672536272606 0 1 0 0 0 1 forward_v I I I I #
coedge $-1 $207 $208 $209 $210 reversed $82 $-1 #
face $-1 $211 $212 $48 $-1 $213 reversed single #
loop $-1 $-1 $214 $84 #
plane-surface $-1 -40.152592547379982 -9.3989988698930045 1.6919879981183428 -0.78801076186113728 0 0.61566146476048833 0.61566146476048833 0 0.78801076186113728 forward_v I I I I #
coedge $-1 $215 $216 $217 $218 reversed $85 $-1 #
face $-1 $-1 $219 $49 $-1 $220 forward single #
loop $-1 $221 $222 $87 #
cone-surface $-1 -37.217654585991959 -10.736651028852249 3.4182007949221918 0.78801076186113728 0 -0.61566146476048833 0.15391536619012208 0 0.19700269046528432 1 I I -0.70710678118654746 0.70710678118654746 0.25 forward I I I I #
loop $-1 $-1 $223 $64 #
coedge $-1 $140 $140 $224 $225 reversed $88 $-1 #
face $-1 $-1 $226 $50 $-1 $227 forward single #
loop $-1 $228 $229 $90 #
cone-surface $-1 -37.217654585991959 -8.0613467109337584 3.4182007949221918 0.78801076186113728 0 -0.61566146476048833 0.15391536619012208 0 0.19700269046528432 1 I I -0.70710678118654746 0.70710678118654746 0.25 forward I I I I #
loop $-1 $-1 $230 $65 #
coedge $-1 $145 $145 $231 $232 reversed $91 $-1 #
face $-1 $233 $234 $51 $-1 $235 reversed single #
loop $-1 $-1 $236 $93 #
plane-surface $-1 -40.152592547379982 9.3989988698930063 1.6919879981183428 -0.78801076186113728 0 0.61566146476048833 0.61566146476048833 0 0.78801076186113728 forward_v I I I I #
coedge $-1 $237 $238 $239 $240 reversed $94 $-1 #
face $-1 $-1 $241 $52 $-1 $242 forward single #
loop $-1 $243 $244 $96 #
cone-surface $-1 -37.217654585991959 8.061346710933762 3.4182007949221918 0.78801076186113728 0 -0.61566146476048833 0.15391536619012208 0 0.19700269046528432 1 I I -0.70710678118654746 0.70710678118654746 0.25 forward I I I I #
loop $-1 $-1 $245 $67 #
coedge $-1 $154 $154 $246 $247 reversed $97 $-1 #
face $-1 $-1 $248 $53 $-1 $249 forward single #
loop $-1 $250 $251 $99 #
cone-surface $-1 -37.217654585991959 10.736651028852251 3.4182007949221918 0.78801076186113728 0 -0.61566146476048833 0.15391536619012208 0 0.19700269046528432 1 I I -0.70710678118654746 0.70710678118654746 0.25 forward I I I I #
loop $-1 $-1 $252 $68 #
coedge $-1 $159 $159 $253 $254 reversed $100 $-1 #
face $-1 $255 $256 $54 $-1 $257 reversed single #
loop $-1 $-1 $258 $102 #
plane-surface $-1 -16.631747738722382 -7.691108388611104 58.205067424014764 0.70710678939079041 0 0.70710677298230451 0.70710677298230451 0 -0.70710678939079041 forward_v I I I I #
coedge $-1 $259 $260 $261 $262 reversed $103 $-1 #
face $-1 $-1 $263 $55 $-1 $264 forward single #
loop $-1 $265 $266 $105 #
cone-surface $-1 35.113864624359699 -7.691108388611104 1.6448393254064007 -0.70710678939079041 0 -0.70710677298230451 0.35355338649115226 0 -0.35355339469539521 1 I I -0.70710678118654746 0.70710678118654746 0.5 forward I I I I #
loop $-1 $-1 $267 $70 #
coedge $-1 $168 $168 $268 $269 reversed $106 $-1 #
face $-1 $270 $271 $56 $-1 $272 reversed single #
loop $-1 $-1 $273 $108 #
plane-surface $-1 -16.631747738722382 0 58.205067424014764 0.70710678939079041 0 0.70710677298230451 0.70710677298230451 0 -0.70710678939079041 forward_v I I I I #
coedge $-1 $274 $275 $276 $277 reversed $109 $-1 #
face $-1 $-1 $278 $57 $-1 $279 forward single #
loop $-1 $280 $281 $111 #
cone-surface $-1 35.113864624359699 0 1.6448393254064007 -0.70710678939079041 0 -0.70710677298230451 0.35355338649115226 0 -0.35355339469539521 1 I I -0.70710678118654746 0.70710678118654746 0.5 forward I I I I #
loop $-1 $-1 $282 $72 #
coedge $-1 $177 $177 $283 $284 reversed $112 $-1 #
face $-1 $285 $286 $58 $-1 $287 reversed single #
loop $-1 $-1 $288 $114 #
plane-surface $-1 -16.631747738722382 7.6911083886111058 58.205067424014764 0.70710678939079041 0 0.70710677298230451 0.70710677298230451 0 -0.70710678939079041 forward_v I I I I #
coedge $-1 $289 $290 $291 $292 reversed $115 $-1 #
face $-1 $-1 $293 $59 $-1 $294 forward single #
loop $-1 $295 $296 $117 #
cone-surface $-1 35.113864624359699 7.6911083886111058 1.6448393254064007 -0.70710678939079041 0 -0.70710677298230451 0.35355338649115226 0 -0.35355339469539521 1 I I -0.70710678118654746 0.70710678118654746 0.5 forward I I I I #
loop $-1 $-1 $297 $74 #
coedge $-1 $186 $186 $298 $299 reversed $118 $-1 #
face $-1 $300 $301 $45 $-1 $302 reversed single #
loop $-1 $-1 $303 $120 #
plane-surface $-1 0 -20.687156815847317 0 0 1 0 0 0 1 forward_v I I I I #
coedge $-1 $304 $305 $306 $307 forward $121 $-1 #
coedge $-1 $308 $123 $309 $310 forward $76 $-1 #
coedge $-1 $123 $308 $311 $312 forward $76 $-1 #
coedge $-1 $313 $314 $123 $194 reversed $315 $-1 #
edge $-1 $316 -20.687156815847317 $317 20.687156815847317 $193 $318 forward 7 unknown #
face $-1 $319 $320 $46 $-1 $321 reversed single #
loop $-1 $-1 $322 $124 #
plane-surface $-1 0 0 -6.6835672536272606 0 0 1 1 0 0 forward_v I I I I #
coedge $-1 $323 $324 $325 $326 reversed $125 $-1 #
coedge $-1 $327 $127 $324 $328 forward $79 $-1 #
coedge $-1 $127 $327 $329 $330 reversed $79 $-1 #
coedge $-1 $331 $325 $127 $202 forward $320 $-1 #
edge $-1 $332 4.218351226636603 $333 12.38532080168601 $201 $334 forward 7 unknown #
face $-1 $335 $336 $47 $-1 $337 reversed single #
loop $-1 $-1 $209 $128 #
plane-surface $-1 40.152592547379989 0 0 -1 0 0 0 0 1 forward_v I I I I #
coedge $-1 $338 $339 $340 $341 reversed $129 $-1 #
coedge $-1 $342 $131 $343 $344 reversed $82 $-1 #
coedge $-1 $131 $342 $339 $345 forward $82 $-1 #
coedge $-1 $346 $347 $131 $210 forward $204 $-1 #
edge $-1 $348 -12.38532080168601 $349 -4.218351226636603 $209 $350 forward 7 unknown #
face $-1 $351 $352 $48 $-1 $353 reversed single #
loop $-1 $-1 $354 $132 #
plane-surface $-1 -103.43394263530143 -12.52018724079791 51.132795881420407 0 1 0 -0.78801076186113728 0 0.61566146476048833 forward_v I I I I #
coedge $-1 $355 $356 $357 $358 reversed $133 $-1 #
coedge $-1 $216 $135 $359 $360 reversed $85 $-1 #
coedge $-1 $135 $215 $355 $361 reversed $85 $-1 #
coedge $-1 $357 $362 $135 $218 forward $352 $-1 #
edge $-1 $363 18.882830687082944 $364 23.874409942591871 $217 $365 forward 7 unknown #
loop $-1 $-1 $224 $136 #
plane-surface $-1 -40.152592547379982 -9.3989988698930045 1.6919879981183428 -0.78801076186113728 0 0.61566146476048833 0.61566146476048833 0 0.78801076186113728 forward_v I I I I #
loop $-1 $-1 $366 $87 #
coedge $-1 $222 $222 $223 $367 reversed $137 $-1 #
coedge $-1 $223 $223 $222 $367 forward $139 $-1 #
coedge $-1 $224 $224 $140 $225 forward $219 $-1 #
edge $-1 $368 0 $368 6.2831853071796004 $224 $369 forward 7 unknown #
loop $-1 $-1 $231 $141 #
plane-surface $-1 -40.152592547379982 -9.3989988698930045 1.6919879981183428 -0.78801076186113728 0 0.61566146476048833 0.61566146476048833 0 0.78801076186113728 forward_v I I I I #
loop $-1 $-1 $370 $90 #
coedge $-1 $229 $229 $230 $371 reversed $142 $-1 #
coedge $-1 $230 $230 $229 $371 forward $144 $-1 #
coedge $-1 $231 $231 $145 $232 forward $226 $-1 #
edge $-1 $372 0 $372 6.2831853071796004 $231 $373 forward 7 unknown #
face $-1 $374 $375 $51 $-1 $376 forward single #
loop $-1 $-1 $377 $146 #
plane-surface $-1 -103.43394263530143 6.2778104989881012 51.132795881420407 0 1 0 -0.78801076186113728 0 0.61566146476048833 forward_v I I I I #
coedge $-1 $378 $379 $380 $381 reversed $147 $-1 #
coedge $-1 $238 $149 $382 $383 reversed $94 $-1 #
coedge $-1 $149 $237 $378 $384 reversed $94 $-1 #
coedge $-1 $380 $385 $149 $240 forward $386 $-1 #
edge $-1 $387 18.882830687082944 $388 23.874409942591871 $239 $389 forward 7 unknown #
loop $-1 $-1 $246 $150 #
plane-surface $-1 -40.152592547379982 9.3989988698930063 1.6919879981183428 -0.78801076186113728 0 0.61566146476048833 0.61566146476048833 0 0.78801076186113728 forward_v I I I I #
loop $-1 $-1 $390 $96 #
coedge $-1 $244 $244 $245 $391 reversed $151 $-1 #
coedge $-1 $245 $245 $244 $391 forward $153 $-1 #
coedge $-1 $246 $246 $154 $247 forward $241 $-1 #
edge $-1 $392 0 $392 6.2831853071796004 $246 $393 forward 7 unknown #
loop $-1 $-1 $253 $155 #
plane-surface $-1 -40.152592547379982 9.3989988698930063 1.6919879981183428 -0.78801076186113728 0 0.61566146476048833 0.61566146476048833 0 0.78801076186113728 forward_v I I I I #
loop $-1 $-1 $394 $99 #
coedge $-1 $251 $251 $252 $395 reversed $156 $-1 #
coedge $-1 $252 $252 $251 $395 forward $158 $-1 #
coedge $-1 $253 $253 $159 $254 forward $248 $-1 #
edge $-1 $396 0 $396 6.2831853071796004 $253 $397 forward 7 unknown #
face $-1 $398 $399 $54 $-1 $400 forward single #
loop $-1 $-1 $401 $160 #
plane-surface $-1 40.1525938650665 -10.526327390013856 114.98940771011715 0 1 0 0.70710678939079041 0 0.70710677298230451 forward_v I I I I #
coedge $-1 $402 $403 $404 $405 reversed $161 $-1 #
coedge $-1 $260 $163 $406 $407 reversed $103 $-1 #
coedge $-1 $163 $259 $402 $408 reversed $103 $-1 #
coedge $-1 $404 $409 $163 $262 forward $399 $-1 #
edge $-1 $410 -20.076295614846739 $411 -14.81345430357015 $261 $412 forward 7 unknown #
loop $-1 $-1 $268 $164 #
plane-surface $-1 -16.631747738722382 -7.691108388611104 58.205067424014764 0.70710678939079041 0 0.70710677298230451 0.70710677298230451 0 -0.70710678939079041 forward_v I I I I #
loop $-1 $-1 $413 $105 #
coedge $-1 $266 $266 $267 $414 reversed $165 $-1 #
coedge $-1 $267 $267 $266 $414 forward $167 $-1 #
coedge $-1 $268 $268 $168 $269 forward $263 $-1 #
edge $-1 $415 0 $415 6.2831853071796004 $268 $416 forward 7 unknown #
face $-1 $417 $418 $56 $-1 $419 reversed single #
loop $-1 $-1 $420 $169 #
plane-surface $-1 40.1525938650665 -2.8352190014027521 114.98940771011715 0 1 0 0.70710678939079041 0 0.70710677298230451 forward_v I I I I #
coedge $-1 $421 $422 $423 $424 reversed $170 $-1 #
coedge $-1 $275 $172 $425 $426 reversed $109 $-1 #
coedge $-1 $172 $274 $421 $427 reversed $109 $-1 #
coedge $-1 $423 $428 $172 $277 forward $429 $-1 #
edge $-1 $430 -20.076295614846739 $431 -14.81345430357015 $276 $432 forward 7 unknown #
loop $-1 $-1 $283 $173 #
plane-surface $-1 -16.631747738722382 0 58.205067424014764 0.70710678939079041 0 0.70710677298230451 0.70710677298230451 0 -0.70710678939079041 forward_v I I I I #
loop $-1 $-1 $433 $111 #
coedge $-1 $281 $281 $282 $434 reversed $174 $-1 #
coedge $-1 $282 $282 $281 $434 forward $176 $-1 #
coedge $-1 $283 $283 $177 $284 forward $278 $-1 #
edge $-1 $435 0 $435 6.2831853071796004 $283 $436 forward 7 unknown #
face $-1 $437 $438 $58 $-1 $439 reversed single #
loop $-1 $-1 $440 $178 #
plane-surface $-1 40.1525938650665 4.8558893872083537 114.98940771011715 0 1 0 0.70710678939079041 0 0.70710677298230451 forward_v I I I I #
coedge $-1 $441 $442 $443 $444 reversed $179 $-1 #
coedge $-1 $290 $181 $445 $446 reversed $115 $-1 #
coedge $-1 $181 $289 $441 $447 reversed $115 $-1 #
coedge $-1 $443 $448 $181 $292 forward $449 $-1 #
edge $-1 $450 -20.076295614846739 $451 -14.81345430357015 $291 $452 forward 7 unknown #
loop $-1 $-1 $298 $182 #
plane-surface $-1 -16.631747738722382 7.6911083886111058 58.205067424014764 0.70710678939079041 0 0.70710677298230451 0.70710677298230451 0 -0.70710678939079041 forward_v I I I I #
loop $-1 $-1 $453 $117 #
coedge $-1 $296 $296 $297 $454 reversed $183 $-1 #
coedge $-1 $297 $297 $296 $454 forward $185 $-1 #
coedge $-1 $298 $298 $186 $299 forward $293 $-1 #
edge $-1 $455 0 $455 6.2831853071796004 $298 $456 forward 7 unknown #
face $-1 $457 $458 $45 $-1 $459 reversed single #
loop $-1 $-1 $460 $187 #
plane-surface $-1 -40.152592547379989 0 0 1 0 0 0 0 -1 forward_v I I I I #
coedge $-1 $461 $311 $462 $463 forward $188 $-1 #
coedge $-1 $464 $190 $461 $465 forward $121 $-1 #
coedge $-1 $190 $464 $466 $467 forward $121 $-1 #
coedge $-1 $314 $313 $190 $307 reversed $315 $-1 #
edge $-1 $468 -20.687156815847317 $469 20.687156815847317 $306 $470 forward 7 unknown #
coedge $-1 $192 $191 $471 $472 forward $76 $-1 #
coedge $-1 $473 $474 $191 $310 reversed $458 $-1 #
edge $-1 $317 -40.152592547379989 $475 40.152592547379989 $309 $476 forward 7 unknown #
coedge $-1 $303 $477 $192 $312 reversed $188 $-1 #
edge $-1 $478 -40.152592547379989 $316 40.152592547379989 $311 $479 forward 7 unknown #
coedge $-1 $306 $193 $477 $480 forward $315 $-1 #
coedge $-1 $193 $306 $473 $481 reversed $315 $-1 #
loop $-1 $-1 $313 $457 #
vertex $-1 $194 $482 #
vertex $-1 $194 $483 #
straight-curve $-1 40.152592547379989 0 6.6835672536272606 0 1 0 I I #
face $-1 $484 $485 $46 $-1 $486 reversed single #
loop $-1 $-1 $325 $195 #
plane-surface $-1 40.152592547379989 0 0 -1 0 0 0 0 1 forward_v I I I I #
coedge $-1 $487 $488 $323 $489 forward $196 $-1 #
coedge $-1 $490 $198 $322 $489 reversed $125 $-1 #
coedge $-1 $198 $490 $199 $328 reversed $125 $-1 #
coedge $-1 $201 $491 $198 $326 forward $320 $-1 #
edge $-1 $492 -4.0917836268136298 $332 -1.0917836268136303 $325 $493 forward 7 unknown #
coedge $-1 $200 $199 $494 $495 reversed $79 $-1 #
edge $-1 $332 -40.152592547379989 $496 40.152592547379989 $324 $497 forward 7 unknown #
coedge $-1 $498 $499 $200 $330 forward $485 $-1 #
edge $-1 $333 -40.152592547379989 $500 40.152592547379989 $329 $501 forward 7 unknown #
coedge $-1 $491 $201 $499 $502 forward $320 $-1 #
vertex $-1 $202 $503 #
vertex $-1 $502 $504 #
straight-curve $-1 40.152592547379989 -8.3018360141613066 -3.6835672536272606 0 -1 0 I I #
face $-1 $505 $506 $47 $-1 $507 reversed single #
loop $-1 $-1 $508 $203 #
plane-surface $-1 0 0 -6.6835672536272606 0 0 1 1 0 0 forward_v I I I I #
coedge $-1 $509 $206 $508 $510 reversed $129 $-1 #
coedge $-1 $206 $509 $208 $345 reversed $129 $-1 #
coedge $-1 $511 $512 $206 $341 forward $506 $-1 #
edge $-1 $513 -4.0917836268136298 $514 -1.0917836268136303 $340 $515 forward 7 unknown #
coedge $-1 $208 $207 $511 $516 reversed $82 $-1 #
coedge $-1 $517 $518 $207 $344 forward $519 $-1 #
edge $-1 $520 -40.152592547379989 $348 40.152592547379989 $343 $521 forward 7 unknown #
edge $-1 $514 -40.152592547379989 $349 40.152592547379989 $339 $522 forward 7 unknown #
coedge $-1 $523 $209 $509 $524 forward $204 $-1 #
coedge $-1 $209 $523 $517 $525 reversed $204 $-1 #
vertex $-1 $525 $526 #
vertex $-1 $210 $527 #
straight-curve $-1 40.152592547379989 8.3018360141613066 -3.6835672536272606 0 -1 0 I I #
face $-1 $-1 $528 $48 $-1 $529 forward single #
loop $-1 $-1 $217 $211 #
plane-surface $-1 -40.152592547379989 0 0 1 0 0 0 0 -1 forward_v I I I I #
coedge $-1 $530 $531 $532 $533 reversed $212 $-1 #
coedge $-1 $534 $214 $216 $361 forward $133 $-1 #
coedge $-1 $214 $534 $530 $535 forward $133 $-1 #
coedge $-1 $532 $217 $214 $358 forward $352 $-1 #
edge $-1 $364 1.5783110640415972 $536 7.8206878058514073 $357 $537 forward 7 unknown #
coedge $-1 $538 $539 $215 $360 forward $528 $-1 #
edge $-1 $540 -15.464227788393956 $363 -11.564378770270729 $359 $541 forward 7 unknown #
edge $-1 $364 -1.1548452884789174e-014 $540 6.3344049308663246 $216 $542 forward 7 unknown #
coedge $-1 $217 $532 $538 $543 reversed $352 $-1 #
vertex $-1 $543 $544 #
vertex $-1 $218 $545 #
straight-curve $-1 -40.152592547379989 -6.2778104989880994 25.566397940710203 0 0 -1 I I #
coedge $-1 $366 $366 $-1 $546 reversed $221 $-1 #
edge $-1 $547 0 $547 6.2831853071796004 $222 $548 forward 7 unknown #
vertex $-1 $225 $549 #
ellipse-curve $-1 -38.202668038318372 -10.736651028852249 4.1877776258727968 -0.78801076186113728 0 0.61566146476048833 0.30783073238024417 0 0.39400538093056864 1 I I #
coedge $-1 $370 $370 $-1 $550 reversed $228 $-1 #
edge $-1 $551 0 $551 6.2831853071796004 $229 $552 forward 7 unknown #
vertex $-1 $232 $553 #
ellipse-curve $-1 -38.202668038318372 -8.0613467109337584 4.1877776258727968 -0.78801076186113728 0 0.61566146476048833 0.30783073238024417 0 0.39400538093056864 1 I I #
face $-1 $-1 $386 $51 $-1 $554 reversed single #
loop $-1 $-1 $555 $233 #
plane-surface $-1 0 0 6.6835672536272606 0 0 1 1 0 0 forward_v I I I I #
coedge $-1 $556 $557 $558 $559 reversed $234 $-1 #
coedge $-1 $560 $236 $238 $384 forward $147 $-1 #
coedge $-1 $236 $560 $556 $561 forward $147 $-1 #
coedge $-1 $558 $239 $236 $381 forward $386 $-1 #
edge $-1 $388 -7.8206878058514082 $562 -1.578311064041598 $380 $563 forward 7 unknown #
coedge $-1 $564 $565 $237 $383 forward $375 $-1 #
edge $-1 $566 -15.464227788393956 $387 -11.564378770270729 $382 $567 forward 7 unknown #
edge $-1 $388 -1.1548452884789174e-014 $566 6.3344049308663246 $238 $568 forward 7 unknown #
coedge $-1 $239 $558 $564 $569 reversed $386 $-1 #
loop $-1 $-1 $558 $374 #
vertex $-1 $569 $570 #
vertex $-1 $240 $571 #
straight-curve $-1 -40.152592547379989 12.520187240797911 25.566397940710203 0 0 -1 I I #
coedge $-1 $390 $390 $-1 $572 reversed $243 $-1 #
edge $-1 $573 0 $573 6.2831853071796004 $244 $574 forward 7 unknown #
vertex $-1 $247 $575 #
ellipse-curve $-1 -38.202668038318372 8.061346710933762 4.1877776258727968 -0.78801076186113728 0 0.61566146476048833 0.30783073238024417 0 0.39400538093056864 1 I I #
coedge $-1 $394 $394 $-1 $576 reversed $250 $-1 #
edge $-1 $577 0 $577 6.2831853071796004 $251 $578 forward 7 unknown #
vertex $-1 $254 $579 #
ellipse-curve $-1 -38.202668038318372 10.736651028852251 4.1877776258727968 -0.78801076186113728 0 0.61566146476048833 0.30783073238024417 0 0.39400538093056864 1 I I #
face $-1 $-1 $580 $54 $-1 $581 reversed single #
loop $-1 $-1 $261 $255 #
plane-surface $-1 0 0 6.6835672536272606 0 0 1 1 0 0 forward_v I I I I #
coedge $-1 $582 $583 $584 $585 reversed $256 $-1 #
coedge $-1 $586 $258 $260 $408 forward $161 $-1 #
coedge $-1 $258 $586 $582 $587 forward $161 $-1 #
coedge $-1 $584 $261 $258 $405 forward $399 $-1 #
edge $-1 $411 1.0103351929027999 $588 6.6807731957083041 $404 $589 forward 7 unknown #
coedge $-1 $590 $591 $259 $407 forward $580 $-1 #
edge $-1 $592 -56.07397803483267 $410 -50.811136601431315 $406 $593 forward 7 unknown #
edge $-1 $411 72.862403449379954 $592 80.305185094759963 $260 $594 forward 7 unknown #
coedge $-1 $261 $584 $590 $595 forward $399 $-1 #
vertex $-1 $262 $596 #
vertex $-1 $262 $597 #
straight-curve $-1 20.07629693253325 -4.8558893872083519 6.6835672536272597 -1 0 0 I I #
coedge $-1 $413 $413 $-1 $598 reversed $265 $-1 #
edge $-1 $599 0 $599 6.2831853071796004 $266 $600 forward 7 unknown #
vertex $-1 $269 $601 #
ellipse-curve $-1 37.521171891741695 -7.691108388611104 4.0521465369265854 0.70710678939079041 0 0.70710677298230451 0.70710677298230451 0 -0.70710678939079041 1 I I #
face $-1 $-1 $429 $56 $-1 $602 forward single #
loop $-1 $-1 $603 $270 #
plane-surface $-1 40.152592547379989 0 0 -1 0 0 0 0 1 forward_v I I I I #
coedge $-1 $604 $605 $606 $607 reversed $271 $-1 #
coedge $-1 $608 $273 $275 $427 forward $170 $-1 #
coedge $-1 $273 $608 $604 $609 forward $170 $-1 #
coedge $-1 $606 $276 $273 $424 forward $429 $-1 #
edge $-1 $431 -2.8352190014027521 $610 2.8352190014027521 $423 $611 forward 7 unknown #
coedge $-1 $612 $613 $274 $426 forward $418 $-1 #
edge $-1 $614 -56.07397803483267 $430 -50.811136601431315 $425 $615 forward 7 unknown #
edge $-1 $431 72.862403449379954 $614 80.305185094759963 $275 $616 forward 7 unknown #
coedge $-1 $276 $606 $612 $617 forward $429 $-1 #
loop $-1 $-1 $606 $417 #
vertex $-1 $426 $618 #
vertex $-1 $277 $619 #
straight-curve $-1 20.07629693253325 2.8352190014027521 6.6835672536272597 -1 0 0 I I #
coedge $-1 $433 $433 $-1 $620 reversed $280 $-1 #
edge $-1 $621 0 $621 6.2831853071796004 $281 $622 forward 7 unknown #
vertex $-1 $284 $623 #
ellipse-curve $-1 37.521171891741695 0 4.0521465369265854 0.70710678939079041 0 0.70710677298230451 0.70710677298230451 0 -0.70710678939079041 1 I I #
face $-1 $-1 $449 $58 $-1 $624 forward single #
loop $-1 $-1 $625 $285 #
plane-surface $-1 40.152592547379989 0 0 -1 0 0 0 0 1 forward_v I I I I #
coedge $-1 $626 $627 $628 $629 reversed $286 $-1 #
coedge $-1 $630 $288 $290 $447 forward $179 $-1 #
coedge $-1 $288 $630 $626 $631 forward $179 $-1 #
coedge $-1 $628 $291 $288 $444 forward $449 $-1 #
edge $-1 $451 -6.680773195708305 $632 -1.0103351929028008 $443 $633 forward 7 unknown #
coedge $-1 $634 $635 $289 $446 forward $438 $-1 #
edge $-1 $636 -56.07397803483267 $450 -50.811136601431315 $445 $637 forward 7 unknown #
edge $-1 $451 72.862403449379954 $636 80.305185094759963 $290 $638 forward 7 unknown #
coedge $-1 $291 $628 $634 $639 forward $449 $-1 #
loop $-1 $-1 $628 $437 #
vertex $-1 $446 $640 #
vertex $-1 $292 $641 #
straight-curve $-1 20.07629693253325 10.526327390013858 6.6835672536272597 -1 0 0 I I #
coedge $-1 $453 $453 $-1 $642 reversed $295 $-1 #
edge $-1 $643 0 $643 6.2831853071796004 $296 $644 forward 7 unknown #
vertex $-1 $299 $645 #
ellipse-curve $-1 37.521171891741695 7.6911083886111058 4.0521465369265854 0.70710678939079041 0 0.70710677298230451 0.70710677298230451 0 -0.70710678939079041 1 I I #
face $-1 $-1 $315 $45 $-1 $646 reversed single #
loop $-1 $-1 $473 $300 #
plane-surface $-1 0 20.687156815847317 0 0 -1 0 0 0 -1 forward_v I I I I #
coedge $-1 $647 $471 $474 $648 forward $301 $-1 #
coedge $-1 $477 $303 $304 $465 reversed $188 $-1 #
coedge $-1 $471 $647 $303 $463 reversed $301 $-1 #
edge $-1 $478 -6.6835672536272606 $649 6.6835672536272606 $462 $650 forward 7 unknown #
coedge $-1 $305 $304 $647 $651 forward $121 $-1 #
edge $-1 $469 -40.152592547379989 $649 40.152592547379989 $461 $652 forward 7 unknown #
coedge $-1 $474 $473 $305 $467 reversed $458 $-1 #
edge $-1 $653 -40.152592547379989 $468 40.152592547379989 $466 $654 forward 7 unknown #
vertex $-1 $307 $655 #
vertex $-1 $480 $656 #
straight-curve $-1 40.152592547379989 0 -6.6835672536272606 0 -1 0 I I #
coedge $-1 $460 $462 $308 $472 reversed $301 $-1 #
edge $-1 $475 -20.687156815847317 $478 20.687156815847317 $471 $657 forward 7 unknown #
coedge $-1 $466 $309 $314 $481 forward $458 $-1 #
coedge $-1 $309 $466 $460 $648 reversed $458 $-1 #
vertex $-1 $310 $658 #
straight-curve $-1 0 20.687156815847317 6.6835672536272606 -1 0 0 I I #
coedge $-1 $311 $461 $313 $480 reversed $188 $-1 #
vertex $-1 $472 $659 #
straight-curve $-1 0 -20.687156815847317 6.6835672536272606 1 0 0 I I #
edge $-1 $316 -6.6835672536272606 $469 6.6835672536272606 $313 $660 forward 7 unknown #
edge $-1 $317 -6.6835672536272606 $468 6.6835672536272606 $314 $661 forward 7 unknown #
point $-1 40.152592547379989 -20.687156815847317 6.6835672536272606 #
point $-1 40.152592547379989 20.687156815847317 6.6835672536272606 #
face $-1 $-1 $662 $46 $-1 $663 reversed single #
loop $-1 $-1 $329 $319 #
plane-surface $-1 0 -20.687156815847317 0 0 1 0 0 0 1 forward_v I I I I #
coedge $-1 $664 $322 $491 $665 forward $196 $-1 #
coedge $-1 $322 $664 $666 $667 forward $196 $-1 #
edge $-1 $668 -40.152592547379989 $492 40.152592547379989 $322 $669 forward 7 unknown #
coedge $-1 $324 $323 $670 $671 reversed $125 $-1 #
coedge $-1 $325 $331 $487 $665 reversed $320 $-1 #
vertex $-1 $665 $672 #
straight-curve $-1 40.152592547379989 -12.52018724079791 -2.5917836268136303 0 0 1 I I #
coedge $-1 $670 $673 $327 $495 forward $662 $-1 #
edge $-1 $500 -12.38532080168601 $496 -4.218351226636603 $494 $674 forward 7 unknown #
vertex $-1 $495 $675 #
straight-curve $-1 0 -12.52018724079791 -3.6835672536272606 -1 0 0 I I #
coedge $-1 $676 $329 $673 $677 forward $485 $-1 #
coedge $-1 $329 $676 $331 $502 reversed $485 $-1 #
vertex $-1 $677 $678 #
straight-curve $-1 0 -20.687156815847317 -3.6835672536272606 -1 0 0 I I #
edge $-1 $333 3.6835672536272606 $679 6.6835672536272606 $331 $680 forward 7 unknown #
point $-1 40.152592547379989 -12.52018724079791 -3.6835672536272606 #
point $-1 40.152592547379989 -20.687156815847317 -3.6835672536272606 #
face $-1 $-1 $519 $47 $-1 $681 reversed single #
loop $-1 $-1 $511 $335 #
plane-surface $-1 -40.152592547379989 0 0 1 0 0 0 0 -1 forward_v I I I I #
coedge $-1 $682 $683 $338 $510 forward $336 $-1 #
coedge $-1 $339 $338 $346 $524 reversed $129 $-1 #
edge $-1 $684 -40.152592547379989 $513 40.152592547379989 $508 $685 forward 7 unknown #
coedge $-1 $686 $340 $342 $516 forward $506 $-1 #
coedge $-1 $340 $686 $682 $687 reversed $506 $-1 #
vertex $-1 $687 $688 #
vertex $-1 $516 $689 #
straight-curve $-1 -40.152592547379989 12.52018724079791 -2.5917836268136303 0 0 1 I I #
edge $-1 $514 4.218351226636603 $520 12.38532080168601 $511 $690 forward 7 unknown #
coedge $-1 $691 $343 $347 $525 forward $519 $-1 #
coedge $-1 $343 $691 $686 $692 reversed $519 $-1 #
loop $-1 $-1 $343 $505 #
vertex $-1 $692 $693 #
straight-curve $-1 0 20.687156815847317 -3.6835672536272606 1 0 0 I I #
straight-curve $-1 0 12.52018724079791 -3.6835672536272606 1 0 0 I I #
coedge $-1 $347 $346 $683 $694 reversed $204 $-1 #
edge $-1 $349 1.0917836268136303 $684 4.0917836268136298 $346 $695 forward 7 unknown #
edge $-1 $348 3.6835672536272606 $696 6.6835672536272606 $347 $697 forward 7 unknown #
point $-1 40.152592547379989 20.687156815847317 -3.6835672536272606 #
point $-1 40.152592547379989 12.52018724079791 -3.6835672536272606 #
loop $-1 $-1 $359 $351 #
plane-surface $-1 0 0 6.6835672536272606 0 0 1 1 0 0 forward_v I I I I #
coedge $-1 $531 $354 $356 $535 reversed $212 $-1 #
coedge $-1 $354 $530 $698 $699 reversed $212 $-1 #
coedge $-1 $362 $357 $354 $533 forward $352 $-1 #
edge $-1 $536 -23.874409942591871 $700 -18.882830687082944 $532 $701 forward 7 unknown #
coedge $-1 $356 $355 $539 $702 reversed $133 $-1 #
edge $-1 $703 -6.3344049308663246 $536 1.1548452884789174e-014 $530 $704 forward 7 unknown #
vertex $-1 $358 $705 #
straight-curve $-1 -40.152592547379989 -4.6994994349465022 1.6919879981183321 0 -1 0 I I #
coedge $-1 $698 $359 $362 $543 forward $528 $-1 #
coedge $-1 $359 $698 $534 $702 forward $528 $-1 #
vertex $-1 $360 $706 #
straight-curve $-1 -51.716971317650717 -6.2778104989880994 6.6835672536272597 -1 0 0 I I #
straight-curve $-1 -40.152592547379982 -6.2778104989880994 1.6919879981183428 0.61566146476048833 0 0.78801076186113728 I I #
edge $-1 $363 6.2778104989880994 $700 12.52018724079791 $362 $707 forward 7 unknown #
point $-1 -40.152592547379989 -6.2778104989880994 6.6835672536272606 #
point $-1 -40.152592547379989 -6.2778104989880994 1.6919879981183337 #
edge $-1 $708 1 $708 0 $366 $-1 forward 7 unknown #
vertex $-1 $367 $709 #
ellipse-curve $-1 -37.414657276457241 -10.736651028852249 3.572116161112314 -0.78801076186113728 0 0.61566146476048833 0.30783073238024417 0 0.39400538093056864 1 I I #
point $-1 -37.894837305938132 -10.736651028852249 4.5817830068033709 #
edge $-1 $710 1 $710 0 $370 $-1 forward 7 unknown #
vertex $-1 $371 $711 #
ellipse-curve $-1 -37.414657276457241 -8.0613467109337584 3.572116161112314 -0.78801076186113728 0 0.61566146476048833 0.30783073238024417 0 0.39400538093056864 1 I I #
point $-1 -37.894837305938132 -8.0613467109337584 4.5817830068033709 #
plane-surface $-1 -40.152592547379989 0 0 1 0 0 0 0 -1 forward_v I I I I #
coedge $-1 $565 $564 $557 $712 forward $375 $-1 #
coedge $-1 $557 $377 $379 $561 reversed $234 $-1 #
coedge $-1 $377 $556 $555 $712 reversed $234 $-1 #
coedge $-1 $385 $380 $377 $559 forward $386 $-1 #
edge $-1 $562 -23.874409942591871 $713 -18.882830687082944 $558 $714 forward 7 unknown #
coedge $-1 $379 $378 $565 $715 reversed $147 $-1 #
edge $-1 $716 -6.3344049308663246 $562 1.1548452884789174e-014 $556 $717 forward 7 unknown #
vertex $-1 $381 $718 #
straight-curve $-1 -40.152592547379989 4.6994994349465031 1.6919879981183321 0 -1 0 I I #
coedge $-1 $555 $382 $385 $569 forward $375 $-1 #
coedge $-1 $382 $555 $560 $715 forward $375 $-1 #
vertex $-1 $383 $719 #
straight-curve $-1 -51.716971317650717 12.520187240797911 6.6835672536272597 -1 0 0 I I #
straight-curve $-1 -40.152592547379982 12.520187240797911 1.6919879981183428 0.61566146476048833 0 0.78801076186113728 I I #
edge $-1 $387 -12.520187240797911 $713 -6.2778104989881012 $385 $720 forward 7 unknown #
point $-1 -40.152592547379989 12.520187240797911 6.6835672536272606 #
point $-1 -40.152592547379989 12.520187240797911 1.6919879981183337 #
edge $-1 $721 1 $721 0 $390 $-1 forward 7 unknown #
vertex $-1 $391 $722 #
ellipse-curve $-1 -37.414657276457241 8.061346710933762 3.572116161112314 -0.78801076186113728 0 0.61566146476048833 0.30783073238024417 0 0.39400538093056864 1 I I #
point $-1 -37.894837305938132 8.061346710933762 4.5817830068033709 #
edge $-1 $723 1 $723 0 $394 $-1 forward 7 unknown #
vertex $-1 $395 $724 #
ellipse-curve $-1 -37.414657276457241 10.736651028852251 3.572116161112314 -0.78801076186113728 0 0.61566146476048833 0.30783073238024417 0 0.39400538093056864 1 I I #
point $-1 -37.894837305938132 10.736651028852251 4.5817830068033709 #
loop $-1 $-1 $406 $398 #
plane-surface $-1 40.152592547379989 0 0 -1 0 0 0 0 1 forward_v I I I I #
coedge $-1 $583 $401 $403 $587 reversed $256 $-1 #
coedge $-1 $401 $582 $725 $726 reversed $256 $-1 #
coedge $-1 $409 $404 $401 $585 forward $399 $-1 #
edge $-1 $588 14.81345430357015 $727 20.076295614846739 $584 $728 forward 7 unknown #
coedge $-1 $403 $402 $591 $729 reversed $161 $-1 #
edge $-1 $730 -80.305185094759963 $588 -72.862403449379954 $582 $731 forward 7 unknown #
vertex $-1 $405 $732 #
straight-curve $-1 34.889751236103407 -3.845554194305552 6.6835672536272526 0 -1 0 I I #
coedge $-1 $725 $406 $409 $595 reversed $580 $-1 #
coedge $-1 $406 $725 $586 $729 forward $580 $-1 #
vertex $-1 $407 $733 #
straight-curve $-1 40.152592547379989 -4.8558893872083519 57.494703855058575 0 0 1 I I #
straight-curve $-1 -16.631747738722382 -4.8558893872083519 58.205067424014764 0.70710677298230451 0 -0.70710678939079041 I I #
edge $-1 $727 -10.526327390013856 $410 -4.8558893872083519 $590 $734 forward 7 unknown #
point $-1 40.152592547379989 -4.8558893872083519 6.6835672536272606 #
point $-1 34.8897512361034 -4.8558893872083519 6.6835672536272668 #
edge $-1 $735 1 $735 0 $413 $-1 forward 7 unknown #
vertex $-1 $414 $736 #
ellipse-curve $-1 35.467418019055096 -7.691108388611104 1.9983927118975529 0.70710678939079041 0 0.70710677298230451 0.70710677298230451 0 -0.70710678939079041 1 I I #
point $-1 38.228278664723987 -7.691108388611104 3.3450397475357834 #
plane-surface $-1 0 0 6.6835672536272606 0 0 1 1 0 0 forward_v I I I I #
coedge $-1 $613 $612 $605 $737 forward $418 $-1 #
coedge $-1 $605 $420 $422 $609 reversed $271 $-1 #
coedge $-1 $420 $604 $603 $737 reversed $271 $-1 #
coedge $-1 $428 $423 $420 $607 forward $429 $-1 #
edge $-1 $610 14.81345430357015 $738 20.076295614846739 $606 $739 forward 7 unknown #
coedge $-1 $422 $421 $613 $740 reversed $170 $-1 #
edge $-1 $741 -80.305185094759963 $610 -72.862403449379954 $604 $742 forward 7 unknown #
vertex $-1 $424 $743 #
straight-curve $-1 34.889751236103407 0 6.6835672536272526 0 -1 0 I I #
coedge $-1 $603 $425 $428 $617 reversed $418 $-1 #
coedge $-1 $425 $603 $608 $740 forward $418 $-1 #
vertex $-1 $426 $744 #
straight-curve $-1 40.152592547379989 2.8352190014027521 57.494703855058575 0 0 1 I I #
straight-curve $-1 -16.631747738722382 2.8352190014027521 58.205067424014764 0.70710677298230451 0 -0.70710678939079041 I I #
edge $-1 $738 -2.8352190014027521 $430 2.8352190014027521 $612 $745 forward 7 unknown #
point $-1 40.152592547379989 2.8352190014027521 6.6835672536272606 #
point $-1 34.8897512361034 2.8352190014027521 6.6835672536272668 #
edge $-1 $746 1 $746 0 $433 $-1 forward 7 unknown #
vertex $-1 $434 $747 #
ellipse-curve $-1 35.467418019055096 0 1.9983927118975529 0.70710678939079041 0 0.70710677298230451 0.70710677298230451 0 -0.70710678939079041 1 I I #
point $-1 38.228278664723987 0 3.3450397475357834 #
plane-surface $-1 0 0 6.6835672536272606 0 0 1 1 0 0 forward_v I I I I #
coedge $-1 $635 $634 $627 $748 forward $438 $-1 #
coedge $-1 $627 $440 $442 $631 reversed $286 $-1 #
coedge $-1 $440 $626 $625 $748 reversed $286 $-1 #
coedge $-1 $448 $443 $440 $629 forward $449 $-1 #
edge $-1 $632 14.81345430357015 $749 20.076295614846739 $628 $750 forward 7 unknown #
coedge $-1 $442 $441 $635 $751 reversed $179 $-1 #
edge $-1 $752 -80.305185094759963 $632 -72.862403449379954 $626 $753 forward 7 unknown #
vertex $-1 $444 $754 #
straight-curve $-1 34.889751236103407 3.8455541943055529 6.6835672536272526 0 -1 0 I I #
coedge $-1 $625 $445 $448 $639 reversed $438 $-1 #
coedge $-1 $445 $625 $630 $751 forward $438 $-1 #
vertex $-1 $446 $755 #
straight-curve $-1 40.152592547379989 10.526327390013858 57.494703855058575 0 0 1 I I #
straight-curve $-1 -16.631747738722382 10.526327390013858 58.205067424014764 0.70710677298230451 0 -0.70710678939079041 I I #
edge $-1 $749 4.8558893872083537 $450 10.526327390013858 $634 $756 forward 7 unknown #
point $-1 40.152592547379989 10.526327390013858 6.6835672536272606 #
point $-1 34.8897512361034 10.526327390013858 6.6835672536272668 #
edge $-1 $757 1 $757 0 $453 $-1 forward 7 unknown #
vertex $-1 $454 $758 #
ellipse-curve $-1 35.467418019055096 7.6911083886111058 1.9983927118975529 0.70710678939079041 0 0.70710677298230451 0.70710677298230451 0 -0.70710678939079041 1 I I #
point $-1 38.228278664723987 7.6911083886111058 3.3450397475357834 #
plane-surface $-1 40.152592547379989 0 0 -1 0 0 0 0 1 forward_v I I I I #
coedge $-1 $462 $460 $464 $651 reversed $301 $-1 #
edge $-1 $475 -6.6835672536272606 $653 6.6835672536272606 $474 $759 forward 7 unknown #
vertex $-1 $651 $760 #
straight-curve $-1 -40.152592547379989 -20.687156815847317 0 0 0 -1 I I #
edge $-1 $649 -20.687156815847317 $653 20.687156815847317 $647 $761 forward 7 unknown #
straight-curve $-1 0 -20.687156815847317 -6.6835672536272606 -1 0 0 I I #
vertex $-1 $467 $762 #
straight-curve $-1 0 20.687156815847317 -6.6835672536272606 1 0 0 I I #
point $-1 40.152592547379989 20.687156815847317 -6.6835672536272606 #
point $-1 40.152592547379989 -20.687156815847317 -6.6835672536272606 #
straight-curve $-1 -40.152592547379989 0 6.6835672536272606 0 -1 0 I I #
point $-1 -40.152592547379989 20.687156815847317 6.6835672536272606 #
point $-1 -40.152592547379989 -20.687156815847317 6.6835672536272606 #
straight-curve $-1 40.152592547379989 -20.687156815847317 0 0 0 -1 I I #
straight-curve $-1 40.152592547379989 20.687156815847317 0 0 0 -1 I I #
loop $-1 $-1 $670 $484 #
plane-surface $-1 -40.152592547379989 0 0 1 0 0 0 0 -1 forward_v I I I I #
coedge $-1 $488 $487 $676 $763 forward $196 $-1 #
edge $-1 $492 12.52018724079791 $679 20.687156815847317 $491 $764 forward 7 unknown #
coedge $-1 $673 $670 $488 $667 reversed $662 $-1 #
edge $-1 $765 -20.687156815847317 $668 -12.52018724079791 $666 $766 forward 7 unknown #
vertex $-1 $671 $767 #
straight-curve $-1 0 -12.52018724079791 -6.6835672536272606 1 0 0 I I #
coedge $-1 $666 $494 $490 $671 forward $662 $-1 #
edge $-1 $496 1.0917836268136303 $668 4.0917836268136298 $670 $768 forward 7 unknown #
point $-1 40.152592547379989 -12.52018724079791 -6.6835672536272606 #
coedge $-1 $494 $666 $498 $677 reversed $662 $-1 #
straight-curve $-1 -40.152592547379989 -8.3018360141613066 -3.6835672536272606 0 1 0 I I #
point $-1 -40.152592547379989 -12.52018724079791 -3.6835672536272606 #
coedge $-1 $499 $498 $664 $763 reversed $485 $-1 #
edge $-1 $500 3.6835672536272606 $765 6.6835672536272606 $673 $769 forward 7 unknown #
point $-1 -40.152592547379989 -20.687156815847317 -3.6835672536272606 #
vertex $-1 $502 $770 #
straight-curve $-1 40.152592547379989 -20.687156815847317 0 0 0 -1 I I #
plane-surface $-1 0 20.687156815847317 0 0 -1 0 0 0 -1 forward_v I I I I #
coedge $-1 $771 $508 $512 $687 forward $336 $-1 #
coedge $-1 $508 $771 $523 $694 forward $336 $-1 #
vertex $-1 $510 $772 #
straight-curve $-1 0 12.52018724079791 -6.6835672536272606 -1 0 0 I I #
coedge $-1 $512 $511 $518 $692 forward $506 $-1 #
edge $-1 $513 12.52018724079791 $773 20.687156815847317 $512 $774 forward 7 unknown #
point $-1 -40.152592547379989 12.52018724079791 -6.6835672536272606 #
point $-1 -40.152592547379989 12.52018724079791 -3.6835672536272606 #
straight-curve $-1 -40.152592547379989 8.3018360141613066 -3.6835672536272606 0 1 0 I I #
coedge $-1 $518 $517 $771 $775 reversed $519 $-1 #
edge $-1 $520 3.6835672536272606 $773 6.6835672536272606 $518 $776 forward 7 unknown #
point $-1 -40.152592547379989 20.687156815847317 -3.6835672536272606 #
edge $-1 $696 -20.687156815847317 $684 -12.52018724079791 $523 $777 forward 7 unknown #
straight-curve $-1 40.152592547379989 12.52018724079791 -2.5917836268136303 0 0 -1 I I #
vertex $-1 $694 $778 #
straight-curve $-1 40.152592547379989 20.687156815847317 0 0 0 -1 I I #
coedge $-1 $539 $538 $531 $699 forward $528 $-1 #
edge $-1 $700 11.564378770270729 $703 15.464227788393956 $698 $779 forward 7 unknown #
vertex $-1 $699 $780 #
straight-curve $-1 -40.152592547379989 -12.52018724079791 25.566397940710203 0 0 1 I I #
edge $-1 $703 -7.8206878058514073 $540 -1.5783110640415972 $539 $781 forward 7 unknown #
vertex $-1 $702 $782 #
straight-curve $-1 -40.152592547379982 -12.52018724079791 1.6919879981183428 -0.61566146476048833 0 -0.78801076186113728 I I #
point $-1 -40.152592547379989 -12.52018724079791 1.6919879981183337 #
point $-1 -36.252743529256762 -6.2778104989880994 6.6835672536272606 #
straight-curve $-1 -40.152592547379989 0 6.6835672536272606 0 -1 0 I I #
vertex $-1 $546 $783 #
point $-1 -37.106826544077002 -10.736651028852249 3.9661215420428824 #
vertex $-1 $550 $784 #
point $-1 -37.106826544077002 -8.0613467109337584 3.9661215420428824 #
edge $-1 $713 11.564378770270729 $716 15.464227788393956 $555 $785 forward 7 unknown #
vertex $-1 $712 $786 #
straight-curve $-1 -40.152592547379989 6.2778104989881012 25.566397940710203 0 0 1 I I #
edge $-1 $716 1.578311064041598 $566 7.8206878058514082 $565 $787 forward 7 unknown #
vertex $-1 $715 $788 #
straight-curve $-1 -40.152592547379982 6.2778104989881012 1.6919879981183428 -0.61566146476048833 0 -0.78801076186113728 I I #
point $-1 -40.152592547379989 6.2778104989881012 1.6919879981183337 #
point $-1 -36.252743529256762 12.520187240797911 6.6835672536272606 #
straight-curve $-1 -40.152592547379989 0 6.6835672536272606 0 -1 0 I I #
vertex $-1 $572 $789 #
point $-1 -37.106826544077002 8.061346710933762 3.9661215420428824 #
vertex $-1 $576 $790 #
point $-1 -37.106826544077002 10.736651028852251 3.9661215420428824 #
coedge $-1 $591 $590 $583 $726 forward $580 $-1 #
edge $-1 $727 50.811136601431315 $730 56.07397803483267 $725 $791 forward 7 unknown #
vertex $-1 $595 $792 #
straight-curve $-1 20.07629693253325 -10.526327390013856 6.6835672536272597 1 0 0 I I #
edge $-1 $730 -6.6807731957083041 $592 -1.0103351929027999 $591 $793 forward 7 unknown #
vertex $-1 $729 $794 #
straight-curve $-1 -16.631747738722382 -10.526327390013856 58.205067424014764 -0.70710677298230451 0 0.70710678939079041 I I #
point $-1 34.8897512361034 -10.526327390013856 6.6835672536272668 #
point $-1 40.152592547379982 -4.8558893872083519 1.4207258202259041 #
straight-curve $-1 40.152592547379989 0 6.6835672536272606 0 1 0 I I #
vertex $-1 $598 $795 #
point $-1 36.174524792037403 -7.691108388611104 1.2912859225067626 #
edge $-1 $738 50.811136601431315 $741 56.07397803483267 $603 $796 forward 7 unknown #
vertex $-1 $617 $797 #
straight-curve $-1 20.07629693253325 -2.8352190014027521 6.6835672536272597 1 0 0 I I #
edge $-1 $741 -2.8352190014027521 $614 2.8352190014027521 $613 $798 forward 7 unknown #
vertex $-1 $740 $799 #
straight-curve $-1 -16.631747738722382 -2.8352190014027521 58.205067424014764 -0.70710677298230451 0 0.70710678939079041 I I #
point $-1 34.8897512361034 -2.8352190014027521 6.6835672536272668 #
point $-1 40.152592547379982 2.8352190014027521 1.4207258202259041 #
straight-curve $-1 40.152592547379989 0 6.6835672536272606 0 1 0 I I #
vertex $-1 $620 $800 #
point $-1 36.174524792037403 0 1.2912859225067626 #
edge $-1 $749 50.811136601431315 $752 56.07397803483267 $625 $801 forward 7 unknown #
vertex $-1 $639 $802 #
straight-curve $-1 20.07629693253325 4.8558893872083537 6.6835672536272597 1 0 0 I I #
edge $-1 $752 1.0103351929028008 $636 6.680773195708305 $635 $803 forward 7 unknown #
vertex $-1 $751 $804 #
straight-curve $-1 -16.631747738722382 4.8558893872083537 58.205067424014764 -0.70710677298230451 0 0.70710678939079041 I I #
point $-1 34.8897512361034 4.8558893872083537 6.6835672536272668 #
point $-1 40.152592547379982 10.526327390013858 1.4207258202259041 #
straight-curve $-1 40.152592547379989 0 6.6835672536272606 0 1 0 I I #
vertex $-1 $642 $805 #
point $-1 36.174524792037403 7.6911083886111058 1.2912859225067626 #
straight-curve $-1 -40.152592547379989 20.687156815847317 0 0 0 -1 I I #
point $-1 -40.152592547379989 -20.687156815847317 -6.6835672536272606 #
straight-curve $-1 -40.152592547379989 0 -6.6835672536272606 0 1 0 I I #
point $-1 -40.152592547379989 20.687156815847317 -6.6835672536272606 #
edge $-1 $679 -40.152592547379989 $765 40.152592547379989 $676 $806 forward 7 unknown #
straight-curve $-1 40.152592547379989 0 -6.6835672536272606 0 -1 0 I I #
vertex $-1 $667 $807 #
straight-curve $-1 -40.152592547379989 0 -6.6835672536272606 0 1 0 I I #
point $-1 -40.152592547379989 -12.52018724079791 -6.6835672536272606 #
straight-curve $-1 -40.152592547379989 -12.52018724079791 -2.5917836268136303 0 0 -1 I I #
straight-curve $-1 -40.152592547379989 -20.687156815847317 0 0 0 -1 I I #
point $-1 40.152592547379989 -20.687156815847317 -6.6835672536272606 #
coedge $-1 $683 $682 $691 $775 forward $336 $-1 #
point $-1 40.152592547379989 12.52018724079791 -6.6835672536272606 #
vertex $-1 $775 $808 #
straight-curve $-1 -40.152592547379989 0 -6.6835672536272606 0 1 0 I I #
edge $-1 $773 -40.152592547379989 $696 40.152592547379989 $691 $809 forward 7 unknown #
straight-curve $-1 -40.152592547379989 20.687156815847317 0 0 0 -1 I I #
straight-curve $-1 40.152592547379989 0 -6.6835672536272606 0 -1 0 I I #
point $-1 40.152592547379989 20.687156815847317 -6.6835672536272606 #
straight-curve $-1 -51.716971317650717 -12.52018724079791 6.6835672536272597 1 0 0 I I #
point $-1 -40.152592547379989 -12.52018724079791 6.6835672536272606 #
straight-curve $-1 -36.252743529256762 -4.6994994349465022 6.6835672536272606 0 1 0 I I #
point $-1 -36.252743529256762 -12.52018724079791 6.6835672536272606 #
point $-1 -37.020651895526676 -10.736651028852249 3.2642854287320695 #
point $-1 -37.020651895526676 -8.0613467109337584 3.2642854287320695 #
straight-curve $-1 -51.716971317650717 6.2778104989881012 6.6835672536272597 1 0 0 I I #
point $-1 -40.152592547379989 6.2778104989881012 6.6835672536272606 #
straight-curve $-1 -36.252743529256762 4.6994994349465031 6.6835672536272606 0 1 0 I I #
point $-1 -36.252743529256762 6.2778104989881012 6.6835672536272606 #
point $-1 -37.020651895526676 8.061346710933762 3.2642854287320695 #
point $-1 -37.020651895526676 10.736651028852251 3.2642854287320695 #
straight-curve $-1 40.152592547379989 -10.526327390013856 57.494703855058575 0 0 -1 I I #
point $-1 40.152592547379989 -10.526327390013856 6.6835672536272606 #
straight-curve $-1 40.152592547379982 -3.845554194305552 1.4207258202259005 0 1 0 I I #
point $-1 40.152592547379982 -10.526327390013856 1.4207258202259041 #
point $-1 34.760311229664303 -7.691108388611104 1.2912859389152485 #
straight-curve $-1 40.152592547379989 -2.8352190014027521 57.494703855058575 0 0 -1 I I #
point $-1 40.152592547379989 -2.8352190014027521 6.6835672536272606 #
straight-curve $-1 40.152592547379982 0 1.4207258202259005 0 1 0 I I #
point $-1 40.152592547379982 -2.8352190014027521 1.4207258202259041 #
point $-1 34.760311229664303 0 1.2912859389152485 #
straight-curve $-1 40.152592547379989 4.8558893872083537 57.494703855058575 0 0 -1 I I #
point $-1 40.152592547379989 4.8558893872083537 6.6835672536272606 #
straight-curve $-1 40.152592547379982 3.8455541943055529 1.4207258202259005 0 1 0 I I #
point $-1 40.152592547379982 4.8558893872083537 1.4207258202259041 #
point $-1 34.760311229664303 7.6911083886111058 1.2912859389152485 #
straight-curve $-1 0 -20.687156815847317 -6.6835672536272606 -1 0 0 I I #
point $-1 -40.152592547379989 -20.687156815847317 -6.6835672536272606 #
point $-1 -40.152592547379989 20.687156815847317 -6.6835672536272606 #
straight-curve $-1 0 20.687156815847317 -6.6835672536272606 1 0 0 I I #
End-of-ACIS-data 