500 0 10 0           
7 Unknown 11 ACIS 5.0 NT 24 Thu Mar 25 22:54:10 1999 
-1 9.9999999999999995e-007 1e-010 
body $-1 $10 $-1 $11 #
body $-1 $12 $-1 $13 #
body $-1 $14 $-1 $15 #
body $-1 $16 $-1 $17 #
body $-1 $18 $-1 $19 #
body $-1 $20 $-1 $21 #
body $-1 $22 $-1 $23 #
body $-1 $24 $-1 $25 #
body $-1 $26 $-1 $27 #
body $-1 $28 $-1 $29 #
lump $-1 $-1 $30 $0 #
transform $-1 1 0 0 0 1 0 0 0 1 44.399548326059758 30.942286013359098 15.390970879767284 1 rotate no_reflect no_shear #
lump $-1 $-1 $31 $1 #
transform $-1 1 0 0 0 1 0 0 0 1 44.399548326059758 30.942286013359098 15.390970879767284 1 rotate no_reflect no_shear #
lump $-1 $-1 $32 $2 #
transform $-1 1 0 0 0 1 0 0 0 1 44.399548326059758 30.942286013359098 15.390970879767284 1 rotate no_reflect no_shear #
lump $-1 $-1 $33 $3 #
transform $-1 1 0 0 0 1 0 0 0 1 44.399548326059758 30.942286013359098 15.390970879767284 1 rotate no_reflect no_shear #
lump $-1 $-1 $34 $4 #
transform $-1 1 0 0 0 1 0 0 0 1 44.399548326059758 30.942286013359098 15.390970879767284 1 rotate no_reflect no_shear #
lump $-1 $-1 $35 $5 #
transform $-1 1 0 0 0 1 0 0 0 1 44.399548326059758 30.942286013359098 15.390970879767284 1 rotate no_reflect no_shear #
lump $-1 $-1 $36 $6 #
transform $-1 1 0 0 0 1 0 0 0 1 44.399548326059758 30.942286013359098 15.390970879767284 1 rotate no_reflect no_shear #
lump $-1 $-1 $37 $7 #
transform $-1 1 0 0 0 1 0 0 0 1 44.399548326059758 30.942286013359098 15.390970879767284 1 rotate no_reflect no_shear #
lump $-1 $-1 $38 $8 #
transform $-1 1 0 0 0 1 0 0 0 1 44.399548326059758 30.942286013359098 15.390970879767284 1 rotate no_reflect no_shear #
lump $-1 $-1 $39 $9 #
transform $-1 1 0 0 0 1 0 0 0 1 44.399548326059758 30.942286013359098 15.390970879767284 1 rotate no_reflect no_shear #
shell $-1 $-1 $-1 $40 $-1 $10 #
shell $-1 $-1 $-1 $41 $-1 $12 #
shell $-1 $-1 $-1 $42 $-1 $14 #
shell $-1 $-1 $-1 $43 $-1 $16 #
shell $-1 $-1 $-1 $44 $-1 $18 #
shell $-1 $-1 $-1 $45 $-1 $20 #
shell $-1 $-1 $-1 $46 $-1 $22 #
shell $-1 $-1 $-1 $47 $-1 $24 #
shell $-1 $-1 $-1 $48 $-1 $26 #
shell $-1 $-1 $-1 $49 $-1 $28 #
face $-1 $50 $51 $30 $-1 $52 forward single #
face $-1 $53 $54 $31 $-1 $55 reversed single #
face $-1 $56 $57 $32 $-1 $58 reversed single #
face $-1 $59 $60 $33 $-1 $61 forward single #
face $-1 $62 $63 $34 $-1 $64 forward single #
face $-1 $65 $66 $35 $-1 $67 reversed single #
face $-1 $68 $69 $36 $-1 $70 forward single #
face $-1 $71 $72 $37 $-1 $73 forward single #
face $-1 $74 $75 $38 $-1 $76 reversed single #
face $-1 $77 $78 $39 $-1 $79 forward single #
face $-1 $80 $81 $30 $-1 $82 reversed single #
loop $-1 $-1 $83 $40 #
plane-surface $-1 0 0 15.390970879767284 0 0 1 1 0 0 forward_v I I I I #
face $-1 $84 $85 $31 $-1 $86 reversed single #
loop $-1 $-1 $87 $41 #
plane-surface $-1 0 -23.044825492500696 6.2458210389245767 0 0 1 1 0 0 forward_v I I I I #
face $-1 $88 $89 $32 $-1 $90 reversed single #
loop $-1 $-1 $91 $42 #
plane-surface $-1 31.272772467688583 0.04276984083756652 127.70111302958171 0 -1 0 -0.62932039886446345 0 -0.77714595512881146 forward_v I I I I #
face $-1 $92 $93 $33 $-1 $94 forward single #
loop $-1 $95 $96 $43 #
cone-surface $-1 36.113394238791258 -4.3044600139670024 8.461224927196259 -0.62932039886446345 0 -0.77714595512881146 0.38857297756440573 0 -0.31466019943223172 1 I I 0 1 0.5 forward I I I I #
face $-1 $97 $98 $34 $-1 $99 forward single #
loop $-1 $100 $101 $44 #
cone-surface $-1 36.113394238791258 -1.69612210108426 8.461224927196259 -0.62932039886446345 0 -0.77714595512881146 0.38857297756440573 0 -0.31466019943223172 1 I I 0 1 0.5 forward I I I I #
face $-1 $102 $103 $35 $-1 $104 reversed single #
loop $-1 $-1 $105 $45 #
plane-surface $-1 31.272772467688583 23.087595333338257 127.70111302958171 0 -1 0 -0.62932039886446345 0 -0.77714595512881146 forward_v I I I I #
face $-1 $106 $107 $36 $-1 $108 forward single #
loop $-1 $109 $110 $46 #
cone-surface $-1 36.113394238791258 18.740365478533693 8.461224927196259 -0.62932039886446345 0 -0.77714595512881146 0.38857297756440573 0 -0.31466019943223172 1 I I 0 1 0.5 forward I I I I #
face $-1 $111 $112 $37 $-1 $113 forward single #
loop $-1 $114 $115 $47 #
cone-surface $-1 36.113394238791258 21.348703391416432 8.461224927196259 -0.62932039886446345 0 -0.77714595512881146 0.38857297756440573 0 -0.31466019943223172 1 I I 0 1 0.5 forward I I I I #
face $-1 $116 $117 $38 $-1 $118 reversed single #
loop $-1 $-1 $119 $48 #
plane-surface $-1 -94.055373653898883 20.507037383736257 77.951431505190115 0 1 0 -0.55919291073839883 0 0.82903756765294845 forward_v I I I I #
face $-1 $120 $121 $39 $-1 $122 forward single #
loop $-1 $123 $124 $49 #
cone-surface $-1 -35.341191248693356 25.724661698547681 8.5846708571788408 0.55919291073839883 0 -0.82903756765294845 1.2435563514794228 0 0.83878936610759824 1 I I 0 1 1.5 forward I I I I #
face $-1 $125 $126 $30 $-1 $127 reversed single #
loop $-1 $-1 $128 $50 #
plane-surface $-1 0 0 -15.390970879767284 0 0 1 1 0 0 forward_v I I I I #
coedge $-1 $129 $130 $131 $132 forward $51 $-1 #
face $-1 $133 $134 $31 $-1 $135 reversed single #
loop $-1 $-1 $136 $53 #
plane-surface $-1 0 -15.147364971642293 10.818395959345931 0 -1 0 0 0 -1 forward_v I I I I #
coedge $-1 $137 $138 $139 $140 reversed $54 $-1 #
face $-1 $141 $142 $32 $-1 $143 reversed single #
loop $-1 $-1 $144 $56 #
plane-surface $-1 -24.61031045622731 -3.000291057525633 58.691254247294637 0.62932039886446345 0 0.77714595512881146 0.77714595512881146 0 -0.62932039886446345 forward_v I I I I #
coedge $-1 $145 $146 $147 $148 reversed $57 $-1 #
face $-1 $-1 $149 $33 $-1 $150 forward single #
loop $-1 $151 $152 $59 #
cone-surface $-1 35.439141588785603 -4.3044600139670024 7.6285922640372981 -0.62932039886446345 0 -0.77714595512881146 0.19428648878220287 0 -0.15733009971611586 1 I I -0.70710678118654746 0.70710678118654746 0.25 forward I I I I #
loop $-1 $-1 $153 $43 #
coedge $-1 $96 $96 $154 $155 reversed $60 $-1 #
face $-1 $-1 $156 $34 $-1 $157 forward single #
loop $-1 $158 $159 $62 #
cone-surface $-1 35.439141588785603 -1.69612210108426 7.6285922640372981 -0.62932039886446345 0 -0.77714595512881146 0.19428648878220287 0 -0.15733009971611586 1 I I -0.70710678118654746 0.70710678118654746 0.25 forward I I I I #
loop $-1 $-1 $160 $44 #
coedge $-1 $101 $101 $161 $162 reversed $63 $-1 #
face $-1 $163 $164 $35 $-1 $165 reversed single #
loop $-1 $-1 $166 $65 #
plane-surface $-1 -24.61031045622731 20.044534434975059 58.691254247294637 0.62932039886446345 0 0.77714595512881146 0.77714595512881146 0 -0.62932039886446345 forward_v I I I I #
coedge $-1 $167 $168 $169 $170 reversed $66 $-1 #
face $-1 $-1 $171 $36 $-1 $172 forward single #
loop $-1 $173 $174 $68 #
cone-surface $-1 35.439141588785603 18.740365478533693 7.6285922640372981 -0.62932039886446345 0 -0.77714595512881146 0.19428648878220287 0 -0.15733009971611586 1 I I -0.70710678118654746 0.70710678118654746 0.25 forward I I I I #
loop $-1 $-1 $175 $46 #
coedge $-1 $110 $110 $176 $177 reversed $69 $-1 #
face $-1 $-1 $178 $37 $-1 $179 forward single #
loop $-1 $180 $181 $71 #
cone-surface $-1 35.439141588785603 21.348703391416432 7.6285922640372981 -0.62932039886446345 0 -0.77714595512881146 0.19428648878220287 0 -0.15733009971611586 1 I I -0.70710678118654746 0.70710678118654746 0.25 forward I I I I #
loop $-1 $-1 $182 $47 #
coedge $-1 $115 $115 $183 $184 reversed $72 $-1 #
face $-1 $185 $186 $38 $-1 $187 forward single #
loop $-1 $-1 $188 $74 #
plane-surface $-1 -44.399548326059765 25.724661698547681 4.3336444069378786 -0.55919291073839883 0 0.82903756765294845 0.82903756765294845 0 0.55919291073839883 forward_v I I I I #
coedge $-1 $189 $190 $191 $192 reversed $75 $-1 #
face $-1 $-1 $193 $39 $-1 $194 forward single #
loop $-1 $195 $196 $77 #
cone-surface $-1 -34.060019655638264 25.724661698547681 6.6852558952653922 0.55919291073839883 0 -0.82903756765294845 0.62177817573971139 0 0.41939468305379912 1 I I -0.70710678118654757 0.70710678118654757 0.75 forward I I I I #
loop $-1 $-1 $197 $49 #
coedge $-1 $124 $124 $198 $199 reversed $78 $-1 #
face $-1 $200 $201 $30 $-1 $202 reversed single #
loop $-1 $-1 $203 $80 #
plane-surface $-1 0 -30.942286013359098 0 0 1 0 0 0 1 forward_v I I I I #
coedge $-1 $204 $205 $206 $207 forward $81 $-1 #
coedge $-1 $208 $83 $209 $210 forward $51 $-1 #
coedge $-1 $83 $208 $211 $212 forward $51 $-1 #
coedge $-1 $213 $214 $83 $132 reversed $215 $-1 #
edge $-1 $216 -30.942286013359098 $217 30.942286013359098 $131 $218 forward 7 unknown #
face $-1 $219 $220 $31 $-1 $221 reversed single #
loop $-1 $-1 $222 $84 #
plane-surface $-1 -44.399548326059758 0 0 1 0 0 0 0 -1 forward_v I I I I #
coedge $-1 $223 $224 $225 $226 reversed $85 $-1 #
coedge $-1 $227 $87 $228 $229 reversed $54 $-1 #
coedge $-1 $87 $227 $223 $230 forward $54 $-1 #
coedge $-1 $225 $231 $87 $140 forward $232 $-1 #
edge $-1 $233 -19.419873267108748 $234 -3.6249522253919455 $139 $235 forward 7 unknown #
face $-1 $236 $237 $32 $-1 $238 reversed single #
loop $-1 $-1 $239 $88 #
plane-surface $-1 31.272772467688583 -6.0433519558888324 127.70111302958171 0 1 0 0.62932039886446345 0 0.77714595512881146 forward_v I I I I #
coedge $-1 $240 $241 $242 $243 reversed $89 $-1 #
coedge $-1 $146 $91 $244 $245 reversed $57 $-1 #
coedge $-1 $91 $145 $240 $246 reversed $57 $-1 #
coedge $-1 $242 $247 $91 $148 forward $248 $-1 #
edge $-1 $249 -28.763162092215467 $250 -13.22469901825751 $147 $251 forward 7 unknown #
loop $-1 $-1 $154 $92 #
plane-surface $-1 -24.61031045622731 -3.000291057525633 58.691254247294637 0.62932039886446345 0 0.77714595512881146 0.77714595512881146 0 -0.62932039886446345 forward_v I I I I #
loop $-1 $-1 $252 $59 #
coedge $-1 $152 $152 $153 $253 reversed $93 $-1 #
coedge $-1 $153 $153 $152 $253 forward $95 $-1 #
coedge $-1 $154 $154 $96 $155 forward $149 $-1 #
edge $-1 $254 0 $254 6.2831853071796004 $154 $255 forward 7 unknown #
loop $-1 $-1 $161 $97 #
plane-surface $-1 -24.61031045622731 -3.000291057525633 58.691254247294637 0.62932039886446345 0 0.77714595512881146 0.77714595512881146 0 -0.62932039886446345 forward_v I I I I #
loop $-1 $-1 $256 $62 #
coedge $-1 $159 $159 $160 $257 reversed $98 $-1 #
coedge $-1 $160 $160 $159 $257 forward $100 $-1 #
coedge $-1 $161 $161 $101 $162 forward $156 $-1 #
edge $-1 $258 0 $258 6.2831853071796004 $161 $259 forward 7 unknown #
face $-1 $260 $261 $35 $-1 $262 reversed single #
loop $-1 $-1 $263 $102 #
plane-surface $-1 31.272772467688583 17.001473536611861 127.70111302958171 0 1 0 0.62932039886446345 0 0.77714595512881146 forward_v I I I I #
coedge $-1 $264 $265 $266 $267 reversed $103 $-1 #
coedge $-1 $168 $105 $268 $269 reversed $66 $-1 #
coedge $-1 $105 $167 $264 $270 reversed $66 $-1 #
coedge $-1 $266 $271 $105 $170 forward $272 $-1 #
edge $-1 $273 -28.763162092215467 $274 -13.22469901825751 $169 $275 forward 7 unknown #
loop $-1 $-1 $176 $106 #
plane-surface $-1 -24.61031045622731 20.044534434975059 58.691254247294637 0.62932039886446345 0 0.77714595512881146 0.77714595512881146 0 -0.62932039886446345 forward_v I I I I #
loop $-1 $-1 $276 $68 #
coedge $-1 $174 $174 $175 $277 reversed $107 $-1 #
coedge $-1 $175 $175 $174 $277 forward $109 $-1 #
coedge $-1 $176 $176 $110 $177 forward $171 $-1 #
edge $-1 $278 0 $278 6.2831853071796004 $176 $279 forward 7 unknown #
loop $-1 $-1 $183 $111 #
plane-surface $-1 -24.61031045622731 20.044534434975059 58.691254247294637 0.62932039886446345 0 0.77714595512881146 0.77714595512881146 0 -0.62932039886446345 forward_v I I I I #
loop $-1 $-1 $280 $71 #
coedge $-1 $181 $181 $182 $281 reversed $112 $-1 #
coedge $-1 $182 $182 $181 $281 forward $114 $-1 #
coedge $-1 $183 $183 $115 $184 forward $178 $-1 #
edge $-1 $282 0 $282 6.2831853071796004 $183 $283 forward 7 unknown #
face $-1 $284 $285 $38 $-1 $286 reversed single #
loop $-1 $-1 $191 $116 #
plane-surface $-1 0 0 15.390970879767284 0 0 1 1 0 0 forward_v I I I I #
coedge $-1 $287 $288 $289 $290 reversed $117 $-1 #
coedge $-1 $190 $119 $291 $292 reversed $75 $-1 #
coedge $-1 $119 $189 $287 $293 reversed $75 $-1 #
coedge $-1 $289 $294 $119 $192 forward $186 $-1 #
edge $-1 $295 2.6281385008896834 $296 19.021298835619881 $191 $297 forward 7 unknown #
loop $-1 $-1 $198 $120 #
plane-surface $-1 -44.399548326059765 25.724661698547681 4.3336444069378786 -0.55919291073839883 0 0.82903756765294845 0.82903756765294845 0 0.55919291073839883 forward_v I I I I #
loop $-1 $-1 $298 $77 #
coedge $-1 $196 $196 $197 $299 reversed $121 $-1 #
coedge $-1 $197 $197 $196 $299 forward $123 $-1 #
coedge $-1 $198 $198 $124 $199 forward $193 $-1 #
edge $-1 $300 0 $300 6.2831853071796004 $198 $301 forward 7 unknown #
face $-1 $302 $303 $30 $-1 $304 reversed single #
loop $-1 $-1 $305 $125 #
plane-surface $-1 -44.399548326059758 0 0 1 0 0 0 0 -1 forward_v I I I I #
coedge $-1 $306 $211 $307 $308 forward $126 $-1 #
coedge $-1 $309 $128 $306 $310 forward $81 $-1 #
coedge $-1 $128 $309 $311 $312 forward $81 $-1 #
coedge $-1 $214 $213 $128 $207 reversed $215 $-1 #
edge $-1 $313 -30.942286013359098 $314 30.942286013359098 $206 $315 forward 7 unknown #
coedge $-1 $130 $129 $316 $317 forward $51 $-1 #
coedge $-1 $318 $319 $129 $210 reversed $303 $-1 #
edge $-1 $217 -44.399548326059758 $320 44.399548326059758 $209 $321 forward 7 unknown #
coedge $-1 $203 $322 $130 $212 reversed $126 $-1 #
edge $-1 $323 -44.399548326059758 $216 44.399548326059758 $211 $324 forward 7 unknown #
coedge $-1 $206 $131 $322 $325 forward $215 $-1 #
coedge $-1 $131 $206 $318 $326 reversed $215 $-1 #
loop $-1 $-1 $213 $302 #
vertex $-1 $132 $327 #
vertex $-1 $132 $328 #
straight-curve $-1 44.399548326059758 0 15.390970879767284 0 1 0 I I #
face $-1 $329 $330 $31 $-1 $331 forward single #
loop $-1 $-1 $228 $133 #
plane-surface $-1 0 -30.942286013359098 0 0 1 0 0 0 1 forward_v I I I I #
coedge $-1 $332 $333 $334 $335 forward $134 $-1 #
coedge $-1 $334 $136 $138 $230 reversed $85 $-1 #
coedge $-1 $136 $334 $336 $337 reversed $85 $-1 #
coedge $-1 $338 $139 $136 $226 forward $232 $-1 #
edge $-1 $234 0.83662305925161107 $339 9.9817729000943203 $225 $340 forward 7 unknown #
coedge $-1 $138 $137 $332 $341 reversed $54 $-1 #
coedge $-1 $342 $343 $137 $229 forward $220 $-1 #
edge $-1 $344 -44.399548326059758 $233 44.399548326059758 $228 $345 forward 7 unknown #
edge $-1 $346 -44.399548326059758 $234 44.399548326059758 $223 $347 forward 7 unknown #
coedge $-1 $139 $338 $342 $348 forward $232 $-1 #
loop $-1 $-1 $225 $329 #
vertex $-1 $229 $349 #
vertex $-1 $140 $350 #
straight-curve $-1 44.399548326059758 -11.522412746250348 6.2458210389245767 0 1 0 I I #
face $-1 $-1 $248 $32 $-1 $351 forward single #
loop $-1 $-1 $352 $141 #
plane-surface $-1 44.399548326059758 0 0 -1 0 0 0 0 1 forward_v I I I I #
coedge $-1 $353 $354 $355 $356 reversed $142 $-1 #
coedge $-1 $357 $144 $146 $246 forward $89 $-1 #
coedge $-1 $144 $357 $353 $358 forward $89 $-1 #
coedge $-1 $355 $147 $144 $243 forward $248 $-1 #
edge $-1 $250 -1.542915369600383 $359 4.543206427126016 $242 $360 forward 7 unknown #
coedge $-1 $361 $362 $145 $245 forward $237 $-1 #
edge $-1 $363 -61.042385191412109 $249 -48.459585635023572 $244 $364 forward 7 unknown #
edge $-1 $250 68.804830489616663 $363 88.799096652119516 $146 $365 forward 7 unknown #
coedge $-1 $147 $355 $361 $366 forward $248 $-1 #
loop $-1 $-1 $355 $236 #
vertex $-1 $245 $367 #
vertex $-1 $148 $368 #
straight-curve $-1 15.636386233844291 0.04276984083756652 15.390970879767281 -1 0 0 I I #
coedge $-1 $252 $252 $-1 $369 reversed $151 $-1 #
edge $-1 $370 0 $370 6.2831853071796004 $152 $371 forward 7 unknown #
vertex $-1 $155 $372 #
ellipse-curve $-1 36.630316789080787 -4.3044600139670024 9.0995711015730034 0.62932039886446345 0 0.77714595512881146 0.38857297756440573 0 -0.31466019943223172 1 I I #
coedge $-1 $256 $256 $-1 $373 reversed $158 $-1 #
edge $-1 $374 0 $374 6.2831853071796004 $159 $375 forward 7 unknown #
vertex $-1 $162 $376 #
ellipse-curve $-1 36.630316789080787 -1.69612210108426 9.0995711015730034 0.62932039886446345 0 0.77714595512881146 0.38857297756440573 0 -0.31466019943223172 1 I I #
face $-1 $-1 $272 $35 $-1 $377 forward single #
loop $-1 $-1 $378 $163 #
plane-surface $-1 44.399548326059758 0 0 -1 0 0 0 0 1 forward_v I I I I #
coedge $-1 $379 $380 $381 $382 reversed $164 $-1 #
coedge $-1 $383 $166 $168 $270 forward $103 $-1 #
coedge $-1 $166 $383 $379 $384 forward $103 $-1 #
coedge $-1 $381 $169 $166 $267 forward $272 $-1 #
edge $-1 $274 -13.065328115850727 $385 -6.9792063191243319 $266 $386 forward 7 unknown #
coedge $-1 $387 $388 $167 $269 forward $261 $-1 #
edge $-1 $389 -61.042385191412109 $273 -48.459585635023572 $268 $390 forward 7 unknown #
edge $-1 $274 68.804830489616663 $389 88.799096652119516 $168 $391 forward 7 unknown #
coedge $-1 $169 $381 $387 $392 forward $272 $-1 #
loop $-1 $-1 $381 $260 #
vertex $-1 $269 $393 #
vertex $-1 $170 $394 #
straight-curve $-1 15.636386233844291 23.087595333338257 15.390970879767281 -1 0 0 I I #
coedge $-1 $276 $276 $-1 $395 reversed $173 $-1 #
edge $-1 $396 0 $396 6.2831853071796004 $174 $397 forward 7 unknown #
vertex $-1 $177 $398 #
ellipse-curve $-1 36.630316789080787 18.740365478533693 9.0995711015730034 0.62932039886446345 0 0.77714595512881146 0.38857297756440573 0 -0.31466019943223172 1 I I #
coedge $-1 $280 $280 $-1 $399 reversed $180 $-1 #
edge $-1 $400 0 $400 6.2831853071796004 $181 $401 forward 7 unknown #
vertex $-1 $184 $402 #
ellipse-curve $-1 36.630316789080787 21.348703391416432 9.0995711015730034 0.62932039886446345 0 0.77714595512881146 0.38857297756440573 0 -0.31466019943223172 1 I I #
face $-1 $-1 $403 $38 $-1 $404 reversed single #
loop $-1 $-1 $405 $185 #
plane-surface $-1 0 30.942286013359098 0 0 -1 0 0 0 -1 forward_v I I I I #
coedge $-1 $406 $188 $190 $293 forward $117 $-1 #
coedge $-1 $188 $406 $405 $407 reversed $117 $-1 #
coedge $-1 $408 $191 $188 $290 forward $186 $-1 #
edge $-1 $296 7.6447065344624168 $409 18.079955164085263 $289 $410 forward 7 unknown #
coedge $-1 $411 $412 $189 $292 forward $403 $-1 #
edge $-1 $413 -34.642071345657172 $295 -23.584744872827773 $291 $414 forward 7 unknown #
edge $-1 $296 -19.773724345375751 $413 -8.3739815925159718e-015 $190 $415 forward 7 unknown #
coedge $-1 $191 $408 $411 $416 forward $186 $-1 #
vertex $-1 $292 $417 #
vertex $-1 $192 $418 #
straight-curve $-1 -47.027686826949441 20.507037383736257 15.390970879767284 1 0 0 I I #
coedge $-1 $298 $298 $-1 $419 reversed $195 $-1 #
edge $-1 $420 0 $420 6.2831853071796004 $196 $421 forward 7 unknown #
vertex $-1 $199 $422 #
ellipse-curve $-1 -36.202968158694652 25.724661698547681 9.8623076433525867 -0.55919291073839883 0 0.82903756765294845 1.2435563514794228 0 0.83878936610759824 1 I I #
face $-1 $-1 $215 $30 $-1 $423 reversed single #
loop $-1 $-1 $318 $200 #
plane-surface $-1 0 30.942286013359098 0 0 -1 0 0 0 -1 forward_v I I I I #
coedge $-1 $424 $316 $319 $425 forward $201 $-1 #
coedge $-1 $322 $203 $204 $310 reversed $126 $-1 #
coedge $-1 $316 $424 $203 $308 reversed $201 $-1 #
edge $-1 $323 -15.390970879767284 $426 15.390970879767284 $307 $427 forward 7 unknown #
coedge $-1 $205 $204 $424 $428 forward $81 $-1 #
edge $-1 $314 -44.399548326059758 $426 44.399548326059758 $306 $429 forward 7 unknown #
coedge $-1 $319 $318 $205 $312 reversed $303 $-1 #
edge $-1 $430 -44.399548326059758 $313 44.399548326059758 $311 $431 forward 7 unknown #
vertex $-1 $207 $432 #
vertex $-1 $325 $433 #
straight-curve $-1 44.399548326059758 0 -15.390970879767284 0 -1 0 I I #
coedge $-1 $305 $307 $208 $317 reversed $201 $-1 #
edge $-1 $320 -30.942286013359098 $323 30.942286013359098 $316 $434 forward 7 unknown #
coedge $-1 $311 $209 $214 $326 forward $303 $-1 #
coedge $-1 $209 $311 $305 $425 reversed $303 $-1 #
vertex $-1 $210 $435 #
straight-curve $-1 0 30.942286013359098 15.390970879767284 -1 0 0 I I #
coedge $-1 $211 $306 $213 $325 reversed $126 $-1 #
vertex $-1 $317 $436 #
straight-curve $-1 0 -30.942286013359098 15.390970879767284 1 0 0 I I #
edge $-1 $216 -15.390970879767284 $314 15.390970879767284 $213 $437 forward 7 unknown #
edge $-1 $217 -15.390970879767284 $313 15.390970879767284 $214 $438 forward 7 unknown #
point $-1 44.399548326059758 -30.942286013359098 15.390970879767284 #
point $-1 44.399548326059758 30.942286013359098 15.390970879767284 #
face $-1 $-1 $232 $31 $-1 $439 reversed single #
loop $-1 $-1 $336 $219 #
plane-surface $-1 0 0 15.390970879767284 0 0 1 1 0 0 forward_v I I I I #
coedge $-1 $440 $222 $227 $341 forward $134 $-1 #
coedge $-1 $222 $440 $441 $442 reversed $134 $-1 #
coedge $-1 $224 $223 $222 $335 reversed $85 $-1 #
edge $-1 $443 -9.9817729000943203 $346 -0.83662305925161107 $222 $444 forward 7 unknown #
coedge $-1 $441 $445 $224 $337 forward $330 $-1 #
edge $-1 $339 -44.399548326059758 $443 44.399548326059758 $336 $446 forward 7 unknown #
coedge $-1 $231 $225 $445 $447 reversed $232 $-1 #
vertex $-1 $226 $448 #
straight-curve $-1 44.399548326059758 -15.147364971642293 5.4091979796729657 0 0 1 I I #
edge $-1 $346 3.6249522253919455 $344 19.419873267108748 $332 $449 forward 7 unknown #
coedge $-1 $450 $228 $231 $348 reversed $220 $-1 #
coedge $-1 $228 $450 $440 $451 forward $220 $-1 #
vertex $-1 $229 $452 #
straight-curve $-1 0 -30.942286013359098 6.2458210389245767 1 0 0 I I #
vertex $-1 $341 $453 #
straight-curve $-1 0 -15.147364971642293 6.2458210389245767 1 0 0 I I #
edge $-1 $454 -15.390970879767284 $233 -6.2458210389245767 $231 $455 forward 7 unknown #
point $-1 44.399548326059758 -30.942286013359098 6.2458210389245767 #
point $-1 44.399548326059758 -15.147364971642293 6.2458210389245767 #
plane-surface $-1 0 0 15.390970879767284 0 0 1 1 0 0 forward_v I I I I #
coedge $-1 $362 $361 $354 $456 forward $237 $-1 #
coedge $-1 $354 $239 $241 $358 reversed $142 $-1 #
coedge $-1 $239 $353 $352 $456 reversed $142 $-1 #
coedge $-1 $247 $242 $239 $356 forward $248 $-1 #
edge $-1 $359 13.22469901825751 $457 28.763162092215467 $355 $458 forward 7 unknown #
coedge $-1 $241 $240 $362 $459 reversed $89 $-1 #
edge $-1 $460 -88.799096652119516 $359 -68.804830489616663 $353 $461 forward 7 unknown #
vertex $-1 $243 $462 #
straight-curve $-1 28.861085252101798 -1.5001455287628165 15.390970879767281 0 -1 0 I I #
coedge $-1 $352 $244 $247 $366 reversed $237 $-1 #
coedge $-1 $244 $352 $357 $459 forward $237 $-1 #
vertex $-1 $245 $463 #
straight-curve $-1 44.399548326059758 0.04276984083756652 63.850556514790853 0 0 1 I I #
straight-curve $-1 -24.61031045622731 0.04276984083756652 58.691254247294637 0.77714595512881146 0 -0.62932039886446345 I I #
edge $-1 $457 -6.0433519558888324 $249 0.04276984083756652 $361 $464 forward 7 unknown #
point $-1 44.399548326059758 0.04276984083756652 15.390970879767284 #
point $-1 28.861085252101802 0.04276984083756652 15.390970879767281 #
edge $-1 $465 1 $465 0 $252 $-1 forward 7 unknown #
vertex $-1 $253 $466 #
ellipse-curve $-1 35.596471688501715 -4.3044600139670024 7.8228787528195012 0.62932039886446345 0 0.77714595512881146 0.38857297756440573 0 -0.31466019943223172 1 I I #
point $-1 37.018889766645202 -4.3044600139670024 8.7849109021407834 #
edge $-1 $467 1 $467 0 $256 $-1 forward 7 unknown #
vertex $-1 $257 $468 #
ellipse-curve $-1 35.596471688501715 -1.69612210108426 7.8228787528195012 0.62932039886446345 0 0.77714595512881146 0.38857297756440573 0 -0.31466019943223172 1 I I #
point $-1 37.018889766645202 -1.69612210108426 8.7849109021407834 #
plane-surface $-1 0 0 15.390970879767284 0 0 1 1 0 0 forward_v I I I I #
coedge $-1 $388 $387 $380 $469 forward $261 $-1 #
coedge $-1 $380 $263 $265 $384 reversed $164 $-1 #
coedge $-1 $263 $379 $378 $469 reversed $164 $-1 #
coedge $-1 $271 $266 $263 $382 forward $272 $-1 #
edge $-1 $385 13.22469901825751 $470 28.763162092215467 $381 $471 forward 7 unknown #
coedge $-1 $265 $264 $388 $472 reversed $103 $-1 #
edge $-1 $473 -88.799096652119516 $385 -68.804830489616663 $379 $474 forward 7 unknown #
vertex $-1 $267 $475 #
straight-curve $-1 28.861085252101798 10.02226721748753 15.390970879767281 0 -1 0 I I #
coedge $-1 $378 $268 $271 $392 reversed $261 $-1 #
coedge $-1 $268 $378 $383 $472 forward $261 $-1 #
vertex $-1 $269 $476 #
straight-curve $-1 44.399548326059758 23.087595333338257 63.850556514790853 0 0 1 I I #
straight-curve $-1 -24.61031045622731 23.087595333338257 58.691254247294637 0.77714595512881146 0 -0.62932039886446345 I I #
edge $-1 $470 17.001473536611861 $273 23.087595333338257 $387 $477 forward 7 unknown #
point $-1 44.399548326059758 23.087595333338257 15.390970879767284 #
point $-1 28.861085252101802 23.087595333338257 15.390970879767281 #
edge $-1 $478 1 $478 0 $276 $-1 forward 7 unknown #
vertex $-1 $277 $479 #
ellipse-curve $-1 35.596471688501715 18.740365478533693 7.8228787528195012 0.62932039886446345 0 0.77714595512881146 0.38857297756440573 0 -0.31466019943223172 1 I I #
point $-1 37.018889766645202 18.740365478533693 8.7849109021407834 #
edge $-1 $480 1 $480 0 $280 $-1 forward 7 unknown #
vertex $-1 $281 $481 #
ellipse-curve $-1 35.596471688501715 21.348703391416432 7.8228787528195012 0.62932039886446345 0 0.77714595512881146 0.38857297756440573 0 -0.31466019943223172 1 I I #
point $-1 37.018889766645202 21.348703391416432 8.7849109021407834 #
loop $-1 $-1 $291 $284 #
plane-surface $-1 -44.399548326059758 0 0 1 0 0 0 0 -1 forward_v I I I I #
coedge $-1 $482 $483 $288 $407 forward $285 $-1 #
coedge $-1 $288 $287 $412 $484 reversed $117 $-1 #
edge $-1 $409 -2.5809491858230764 $485 17.192775159552667 $405 $486 forward 7 unknown #
coedge $-1 $294 $289 $483 $487 forward $186 $-1 #
vertex $-1 $487 $488 #
straight-curve $-1 -28.006387991329564 12.862330849273841 15.390970879767284 0 1 0 I I #
coedge $-1 $489 $291 $294 $416 reversed $403 $-1 #
coedge $-1 $291 $489 $406 $484 forward $403 $-1 #
vertex $-1 $292 $490 #
straight-curve $-1 -44.399548326059758 20.507037383736257 38.975715752595057 0 0 1 I I #
straight-curve $-1 -44.399548326059765 20.507037383736257 4.3336444069378786 -0.82903756765294845 0 -0.55919291073839883 I I #
edge $-1 $491 -30.942286013359098 $295 -20.507037383736257 $411 $492 forward 7 unknown #
point $-1 -44.399548326059758 20.507037383736257 15.390970879767284 #
point $-1 -28.006387991329561 20.507037383736257 15.390970879767284 #
edge $-1 $493 1 $493 0 $298 $-1 forward 7 unknown #
vertex $-1 $299 $494 #
ellipse-curve $-1 -34.479414338692067 25.724661698547681 7.3070340710051038 -0.55919291073839883 0 0.82903756765294845 1.2435563514794228 0 0.83878936610759824 1 I I #
point $-1 -34.959411807215226 25.724661698547681 10.701097009460174 #
plane-surface $-1 44.399548326059758 0 0 -1 0 0 0 0 1 forward_v I I I I #
coedge $-1 $307 $305 $309 $428 reversed $201 $-1 #
edge $-1 $320 -15.390970879767284 $430 15.390970879767284 $319 $495 forward 7 unknown #
vertex $-1 $428 $496 #
straight-curve $-1 -44.399548326059758 -30.942286013359098 0 0 0 -1 I I #
edge $-1 $426 -30.942286013359098 $430 30.942286013359098 $424 $497 forward 7 unknown #
straight-curve $-1 0 -30.942286013359098 -15.390970879767284 -1 0 0 I I #
vertex $-1 $312 $498 #
straight-curve $-1 0 30.942286013359098 -15.390970879767284 1 0 0 I I #
point $-1 44.399548326059758 30.942286013359098 -15.390970879767284 #
point $-1 44.399548326059758 -30.942286013359098 -15.390970879767284 #
straight-curve $-1 -44.399548326059758 0 15.390970879767284 0 -1 0 I I #
point $-1 -44.399548326059758 30.942286013359098 15.390970879767284 #
point $-1 -44.399548326059758 -30.942286013359098 15.390970879767284 #
straight-curve $-1 44.399548326059758 -30.942286013359098 0 0 0 -1 I I #
straight-curve $-1 44.399548326059758 30.942286013359098 0 0 0 -1 I I #
plane-surface $-1 44.399548326059758 0 0 -1 0 0 0 0 1 forward_v I I I I #
coedge $-1 $333 $332 $343 $451 reversed $134 $-1 #
coedge $-1 $499 $336 $333 $442 forward $330 $-1 #
edge $-1 $443 15.147364971642293 $500 30.942286013359098 $333 $501 forward 7 unknown #
vertex $-1 $442 $502 #
straight-curve $-1 -44.399548326059758 -15.147364971642293 5.4091979796729657 0 0 -1 I I #
coedge $-1 $336 $499 $338 $447 forward $330 $-1 #
straight-curve $-1 0 -15.147364971642293 15.390970879767284 -1 0 0 I I #
edge $-1 $454 -30.942286013359098 $339 -15.147364971642293 $338 $503 forward 7 unknown #
point $-1 44.399548326059758 -15.147364971642293 15.390970879767286 #
straight-curve $-1 -44.399548326059758 -11.522412746250348 6.2458210389245767 0 -1 0 I I #
coedge $-1 $343 $342 $499 $504 reversed $220 $-1 #
edge $-1 $500 -15.390970879767284 $344 -6.2458210389245767 $440 $505 forward 7 unknown #
point $-1 -44.399548326059758 -30.942286013359098 6.2458210389245767 #
point $-1 -44.399548326059758 -15.147364971642293 6.2458210389245767 #
vertex $-1 $447 $506 #
straight-curve $-1 44.399548326059758 -30.942286013359098 0 0 0 -1 I I #
edge $-1 $457 48.459585635023572 $460 61.042385191412109 $352 $507 forward 7 unknown #
vertex $-1 $366 $508 #
straight-curve $-1 15.636386233844291 -6.0433519558888324 15.390970879767281 1 0 0 I I #
edge $-1 $460 -4.543206427126016 $363 1.542915369600383 $362 $509 forward 7 unknown #
vertex $-1 $459 $510 #
straight-curve $-1 -24.61031045622731 -6.0433519558888324 58.691254247294637 -0.77714595512881146 0 0.62932039886446345 I I #
point $-1 28.861085252101802 -6.0433519558888324 15.390970879767281 #
point $-1 44.399548326059758 0.04276984083756652 2.808171323378744 #
straight-curve $-1 44.399548326059758 0 15.390970879767284 0 1 0 I I #
vertex $-1 $369 $511 #
point $-1 35.985044666066123 -4.3044600139670024 7.5082185533872696 #
vertex $-1 $373 $512 #
point $-1 35.985044666066123 -1.69612210108426 7.5082185533872696 #
edge $-1 $470 48.459585635023572 $473 61.042385191412109 $378 $513 forward 7 unknown #
vertex $-1 $392 $514 #
straight-curve $-1 15.636386233844291 17.001473536611861 15.390970879767281 1 0 0 I I #
edge $-1 $473 6.9792063191243319 $389 13.065328115850727 $388 $515 forward 7 unknown #
vertex $-1 $472 $516 #
straight-curve $-1 -24.61031045622731 17.001473536611861 58.691254247294637 -0.77714595512881146 0 0.62932039886446345 I I #
point $-1 28.861085252101802 17.001473536611861 15.390970879767281 #
point $-1 44.399548326059758 23.087595333338257 2.808171323378744 #
straight-curve $-1 44.399548326059758 0 15.390970879767284 0 1 0 I I #
vertex $-1 $395 $517 #
point $-1 35.985044666066123 18.740365478533693 7.5082185533872696 #
vertex $-1 $399 $518 #
point $-1 35.985044666066123 21.348703391416432 7.5082185533872696 #
coedge $-1 $483 $405 $489 $519 reversed $285 $-1 #
coedge $-1 $405 $482 $408 $487 reversed $285 $-1 #
edge $-1 $485 -18.079955164085263 $413 -7.6447065344624168 $412 $520 forward 7 unknown #
vertex $-1 $407 $521 #
straight-curve $-1 -30.146091826580182 30.942286013359098 13.947722392078978 -0.82903756765294845 0 -0.55919291073839883 I I #
edge $-1 $409 28.006387991329561 $491 44.399548326059758 $483 $522 forward 7 unknown #
point $-1 -28.006387991329561 30.942286013359105 15.390970879767284 #
coedge $-1 $412 $411 $482 $519 forward $403 $-1 #
point $-1 -44.399548326059758 20.507037383736257 4.333644406937883 #
vertex $-1 $487 $523 #
straight-curve $-1 -44.399548326059758 0 15.390970879767284 0 -1 0 I I #
vertex $-1 $419 $524 #
point $-1 -33.23585798721264 25.724661698547681 8.1458234371127016 #
straight-curve $-1 -44.399548326059758 30.942286013359098 0 0 0 -1 I I #
point $-1 -44.399548326059758 -30.942286013359098 -15.390970879767284 #
straight-curve $-1 -44.399548326059758 0 -15.390970879767284 0 1 0 I I #
point $-1 -44.399548326059758 30.942286013359098 -15.390970879767284 #
coedge $-1 $445 $441 $450 $504 forward $330 $-1 #
vertex $-1 $442 $525 #
straight-curve $-1 -44.399548326059758 0 15.390970879767284 0 -1 0 I I #
point $-1 -44.399548326059758 -15.147364971642293 15.390970879767286 #
straight-curve $-1 44.399548326059758 0 15.390970879767284 0 1 0 I I #
edge $-1 $500 -44.399548326059758 $454 44.399548326059758 $450 $526 forward 7 unknown #
straight-curve $-1 -44.399548326059758 -30.942286013359098 0 0 0 -1 I I #
point $-1 44.399548326059758 -30.942286013359098 15.390970879767284 #
straight-curve $-1 44.399548326059758 -6.0433519558888324 63.850556514790853 0 0 -1 I I #
point $-1 44.399548326059758 -6.0433519558888324 15.390970879767284 #
straight-curve $-1 44.399548326059758 -1.5001455287628165 2.8081713233787404 0 1 0 I I #
point $-1 44.399548326059758 -6.0433519558888324 2.808171323378744 #
point $-1 35.28181148906949 -4.3044600139670024 7.434305775255095 #
point $-1 35.28181148906949 -1.69612210108426 7.434305775255095 #
straight-curve $-1 44.399548326059758 17.001473536611861 63.850556514790853 0 0 -1 I I #
point $-1 44.399548326059758 17.001473536611861 15.390970879767284 #
straight-curve $-1 44.399548326059758 10.02226721748753 2.8081713233787404 0 1 0 I I #
point $-1 44.399548326059758 17.001473536611861 2.808171323378744 #
point $-1 35.28181148906949 18.740365478533693 7.434305775255095 #
point $-1 35.28181148906949 21.348703391416432 7.434305775255095 #
edge $-1 $491 -15.390970879767284 $485 -4.333644406937883 $482 $527 forward 7 unknown #
straight-curve $-1 -44.399548326059758 12.862330849273841 4.3336444069378803 0 -1 0 I I #
point $-1 -44.399548326059758 30.942286013359105 4.333644406937883 #
straight-curve $-1 0 30.942286013359098 15.390970879767284 -1 0 0 I I #
point $-1 -44.399548326059758 30.942286013359098 15.390970879767284 #
point $-1 -33.640624972584462 25.724661698547681 6.0634777195256806 #
point $-1 -44.399548326059758 -30.942286013359098 15.390970879767284 #
straight-curve $-1 0 -30.942286013359098 15.390970879767284 1 0 0 I I #
straight-curve $-1 -44.399548326059758 30.942286013359098 0 0 0 -1 I I #
End-of-ACIS-data 