500 0 14 0           
7 Unknown 11 ACIS 5.0 NT 24 Fri Mar 26 16:58:05 1999 
-1 9.9999999999999995e-007 1e-010 
body $-1 $14 $-1 $15 #
body $-1 $16 $-1 $17 #
body $-1 $18 $-1 $19 #
body $-1 $20 $-1 $21 #
body $-1 $22 $-1 $23 #
body $-1 $24 $-1 $25 #
body $-1 $26 $-1 $27 #
body $-1 $28 $-1 $29 #
body $-1 $30 $-1 $31 #
body $-1 $32 $-1 $33 #
body $-1 $34 $-1 $35 #
body $-1 $36 $-1 $37 #
body $-1 $38 $-1 $39 #
body $-1 $40 $-1 $41 #
lump $-1 $-1 $42 $0 #
transform $-1 1 0 0 0 1 0 0 0 1 63.412579729606009 34.397071775140972 11.976462665956781 1 rotate no_reflect no_shear #
lump $-1 $-1 $43 $1 #
transform $-1 1 0 0 0 1 0 0 0 1 63.412579729606009 34.397071775140972 11.976462665956781 1 rotate no_reflect no_shear #
lump $-1 $-1 $44 $2 #
transform $-1 1 0 0 0 1 0 0 0 1 63.412579729606009 34.397071775140972 11.976462665956781 1 rotate no_reflect no_shear #
lump $-1 $-1 $45 $3 #
transform $-1 1 0 0 0 1 0 0 0 1 63.412579729606009 34.397071775140972 11.976462665956781 1 rotate no_reflect no_shear #
lump $-1 $-1 $46 $4 #
transform $-1 1 0 0 0 1 0 0 0 1 63.412579729606009 34.397071775140972 11.976462665956781 1 rotate no_reflect no_shear #
lump $-1 $-1 $47 $5 #
transform $-1 1 0 0 0 1 0 0 0 1 63.412579729606009 34.397071775140972 11.976462665956781 1 rotate no_reflect no_shear #
lump $-1 $-1 $48 $6 #
transform $-1 1 0 0 0 1 0 0 0 1 63.412579729606009 34.397071775140972 11.976462665956781 1 rotate no_reflect no_shear #
lump $-1 $-1 $49 $7 #
transform $-1 1 0 0 0 1 0 0 0 1 63.412579729606009 34.397071775140972 11.976462665956781 1 rotate no_reflect no_shear #
lump $-1 $-1 $50 $8 #
transform $-1 1 0 0 0 1 0 0 0 1 63.412579729606009 34.397071775140972 11.976462665956781 1 rotate no_reflect no_shear #
lump $-1 $-1 $51 $9 #
transform $-1 1 0 0 0 1 0 0 0 1 63.412579729606009 34.397071775140972 11.976462665956781 1 rotate no_reflect no_shear #
lump $-1 $-1 $52 $10 #
transform $-1 1 0 0 0 1 0 0 0 1 63.412579729606009 34.397071775140972 11.976462665956781 1 rotate no_reflect no_shear #
lump $-1 $-1 $53 $11 #
transform $-1 1 0 0 0 1 0 0 0 1 63.412579729606009 34.397071775140972 11.976462665956781 1 rotate no_reflect no_shear #
lump $-1 $-1 $54 $12 #
transform $-1 1 0 0 0 1 0 0 0 1 63.412579729606009 34.397071775140972 11.976462665956781 1 rotate no_reflect no_shear #
lump $-1 $-1 $55 $13 #
transform $-1 1 0 0 0 1 0 0 0 1 63.412579729606009 34.397071775140972 11.976462665956781 1 rotate no_reflect no_shear #
shell $-1 $-1 $-1 $56 $-1 $14 #
shell $-1 $-1 $-1 $57 $-1 $16 #
shell $-1 $-1 $-1 $58 $-1 $18 #
shell $-1 $-1 $-1 $59 $-1 $20 #
shell $-1 $-1 $-1 $60 $-1 $22 #
shell $-1 $-1 $-1 $61 $-1 $24 #
shell $-1 $-1 $-1 $62 $-1 $26 #
shell $-1 $-1 $-1 $63 $-1 $28 #
shell $-1 $-1 $-1 $64 $-1 $30 #
shell $-1 $-1 $-1 $65 $-1 $32 #
shell $-1 $-1 $-1 $66 $-1 $34 #
shell $-1 $-1 $-1 $67 $-1 $36 #
shell $-1 $-1 $-1 $68 $-1 $38 #
shell $-1 $-1 $-1 $69 $-1 $40 #
face $-1 $70 $71 $42 $-1 $72 forward single #
face $-1 $73 $74 $43 $-1 $75 forward single #
face $-1 $76 $77 $44 $-1 $78 reversed single #
face $-1 $79 $80 $45 $-1 $81 forward single #
face $-1 $82 $83 $46 $-1 $84 forward single #
face $-1 $85 $86 $47 $-1 $87 reversed single #
face $-1 $88 $89 $48 $-1 $90 forward single #
face $-1 $91 $92 $49 $-1 $93 forward single #
face $-1 $94 $95 $50 $-1 $96 reversed single #
face $-1 $97 $98 $51 $-1 $99 forward single #
face $-1 $100 $101 $52 $-1 $102 forward single #
face $-1 $103 $104 $53 $-1 $105 reversed single #
face $-1 $106 $107 $54 $-1 $108 forward single #
face $-1 $109 $110 $55 $-1 $111 forward single #
face $-1 $112 $113 $42 $-1 $114 reversed single #
loop $-1 $-1 $115 $56 #
plane-surface $-1 0 0 11.976462665956781 0 0 1 1 0 0 forward_v I I I I #
face $-1 $116 $117 $43 $-1 $118 reversed single #
loop $-1 $-1 $119 $57 #
plane-surface $-1 0 -27.967501926586255 -6.2929518421677635 0 0 1 1 0 0 forward_v I I I I #
face $-1 $120 $121 $44 $-1 $122 reversed single #
loop $-1 $-1 $123 $58 #
plane-surface $-1 72.799447088264074 6.4295698485547224 185.52792499781384 0 -1 0 -0.74314483375859142 0 -0.66913059716165679 forward_v I I I I #
face $-1 $124 $125 $45 $-1 $126 forward single #
loop $-1 $127 $128 $59 #
cone-surface $-1 59.781396869042474 -0.34870623270046508 8.1806969420758477 -0.74314483375859142 0 -0.66913059716165679 0.66913059716165679 0 -0.74314483375859142 1 I I 0 1 1 forward I I I I #
face $-1 $129 $130 $46 $-1 $131 forward single #
loop $-1 $132 $133 $60 #
cone-surface $-1 59.781396869042474 3.7182594160526463 8.1806969420758477 -0.74314483375859142 0 -0.66913059716165679 0.66913059716165679 0 -0.74314483375859142 1 I I 0 1 1 forward I I I I #
face $-1 $134 $135 $47 $-1 $136 reversed single #
loop $-1 $-1 $137 $61 #
plane-surface $-1 72.799447088264074 24.907485261383719 185.52792499781384 0 1 0 0.74314483375859142 0 0.66913059716165679 forward_v I I I I #
face $-1 $138 $139 $48 $-1 $140 forward single #
loop $-1 $141 $142 $62 #
cone-surface $-1 59.781396869042474 27.618795693885787 8.1806969420758477 -0.74314483375859142 0 -0.66913059716165679 0.66913059716165679 0 -0.74314483375859142 1 I I 0 1 1 forward I I I I #
face $-1 $143 $144 $49 $-1 $145 forward single #
loop $-1 $146 $147 $63 #
cone-surface $-1 59.781396869042474 31.685761342638898 8.1806969420758477 -0.74314483375859142 0 -0.66913059716165679 0.66913059716165679 0 -0.74314483375859142 1 I I 0 1 1 forward I I I I #
face $-1 $148 $149 $50 $-1 $150 reversed single #
loop $-1 $-1 $151 $64 #
plane-surface $-1 -157.66204177232896 -3.0600166652025411 91.278462955090845 0 1 0 -0.74314483375859142 0 0.66913059716165679 forward_v I I I I #
face $-1 $152 $153 $51 $-1 $154 forward single #
loop $-1 $155 $156 $65 #
cone-surface $-1 -59.781396869042474 -0.34870623270046508 8.1806969420758406 0.74314483375859142 0 -0.66913059716165679 0.66913059716165679 0 0.74314483375859142 1 I I 0 1 1 forward I I I I #
face $-1 $157 $158 $52 $-1 $159 forward single #
loop $-1 $160 $161 $66 #
cone-surface $-1 -59.781396869042474 3.7182594160526463 8.1806969420758406 0.74314483375859142 0 -0.66913059716165679 0.66913059716165679 0 0.74314483375859142 1 I I 0 1 1 forward I I I I #
face $-1 $162 $163 $53 $-1 $164 reversed single #
loop $-1 $-1 $165 $67 #
plane-surface $-1 -157.66204177232896 24.907485261383719 91.278462955090845 0 1 0 -0.74314483375859142 0 0.66913059716165679 forward_v I I I I #
face $-1 $166 $167 $54 $-1 $168 forward single #
loop $-1 $169 $170 $68 #
cone-surface $-1 -59.781396869042474 27.618795693885787 8.1806969420758406 0.74314483375859142 0 -0.66913059716165679 0.66913059716165679 0 0.74314483375859142 1 I I 0 1 1 forward I I I I #
face $-1 $171 $172 $55 $-1 $173 forward single #
loop $-1 $174 $175 $69 #
cone-surface $-1 -59.781396869042474 31.685761342638898 8.1806969420758406 0.74314483375859142 0 -0.66913059716165679 0.66913059716165679 0 0.74314483375859142 1 I I 0 1 1 forward I I I I #
face $-1 $176 $177 $42 $-1 $178 reversed single #
loop $-1 $-1 $179 $70 #
plane-surface $-1 0 0 -11.976462665956781 0 0 1 1 0 0 forward_v I I I I #
coedge $-1 $180 $181 $182 $183 forward $71 $-1 #
face $-1 $184 $185 $43 $-1 $186 reversed single #
loop $-1 $-1 $187 $73 #
plane-surface $-1 0 -21.537932078031538 -9.1347072540622722 0 -1 0 0 0 -1 forward_v I I I I #
coedge $-1 $188 $189 $190 $191 reversed $74 $-1 #
face $-1 $192 $193 $44 $-1 $194 reversed single #
loop $-1 $-1 $195 $76 #
plane-surface $-1 -21.450014954458894 1.6847765916760906 100.66533031374895 0.74314483375859142 0 0.66913059716165679 0.66913059716165679 0 -0.74314483375859142 forward_v I I I I #
coedge $-1 $196 $197 $198 $199 reversed $77 $-1 #
face $-1 $-1 $200 $45 $-1 $201 forward single #
loop $-1 $202 $203 $79 #
cone-surface $-1 58.282032370241936 -0.34870623270046508 6.8306631170794887 -0.74314483375859142 0 -0.66913059716165679 0.3345652985808284 0 -0.37157241687929571 1 I I -0.70710678118654746 0.70710678118654746 0.5 forward I I I I #
loop $-1 $-1 $204 $59 #
coedge $-1 $128 $128 $205 $206 reversed $80 $-1 #
face $-1 $-1 $207 $46 $-1 $208 forward single #
loop $-1 $209 $210 $82 #
cone-surface $-1 58.282032370241936 3.7182594160526463 6.8306631170794887 -0.74314483375859142 0 -0.66913059716165679 0.3345652985808284 0 -0.37157241687929571 1 I I -0.70710678118654746 0.70710678118654746 0.5 forward I I I I #
loop $-1 $-1 $211 $60 #
coedge $-1 $133 $133 $212 $213 reversed $83 $-1 #
face $-1 $214 $215 $47 $-1 $216 reversed single #
loop $-1 $-1 $217 $85 #
plane-surface $-1 -21.450014954458894 29.652278518262349 100.66533031374895 0.74314483375859142 0 0.66913059716165679 0.66913059716165679 0 -0.74314483375859142 forward_v I I I I #
coedge $-1 $218 $219 $220 $221 reversed $86 $-1 #
face $-1 $-1 $222 $48 $-1 $223 forward single #
loop $-1 $224 $225 $88 #
cone-surface $-1 58.282032370241936 27.618795693885787 6.8306631170794887 -0.74314483375859142 0 -0.66913059716165679 0.3345652985808284 0 -0.37157241687929571 1 I I -0.70710678118654746 0.70710678118654746 0.5 forward I I I I #
loop $-1 $-1 $226 $62 #
coedge $-1 $142 $142 $227 $228 reversed $89 $-1 #
face $-1 $-1 $229 $49 $-1 $230 forward single #
loop $-1 $231 $232 $91 #
cone-surface $-1 58.282032370241936 31.685761342638898 6.8306631170794887 -0.74314483375859142 0 -0.66913059716165679 0.3345652985808284 0 -0.37157241687929571 1 I I -0.70710678118654746 0.70710678118654746 0.5 forward I I I I #
loop $-1 $-1 $233 $63 #
coedge $-1 $147 $147 $234 $235 reversed $92 $-1 #
face $-1 $236 $237 $50 $-1 $238 reversed single #
loop $-1 $-1 $239 $94 #
plane-surface $-1 -63.412579729605994 1.6847765916760906 6.4158682710259569 -0.74314483375859142 0 0.66913059716165679 0.66913059716165679 0 0.74314483375859142 forward_v I I I I #
coedge $-1 $240 $241 $242 $243 reversed $95 $-1 #
face $-1 $-1 $244 $51 $-1 $245 forward single #
loop $-1 $246 $247 $97 #
cone-surface $-1 -58.282032370241936 -0.34870623270046508 6.8306631170794816 0.74314483375859142 0 -0.66913059716165679 0.3345652985808284 0 0.37157241687929571 1 I I -0.70710678118654746 0.70710678118654746 0.5 forward I I I I #
loop $-1 $-1 $248 $65 #
coedge $-1 $156 $156 $249 $250 reversed $98 $-1 #
face $-1 $-1 $251 $52 $-1 $252 forward single #
loop $-1 $253 $254 $100 #
cone-surface $-1 -58.282032370241936 3.7182594160526463 6.8306631170794816 0.74314483375859142 0 -0.66913059716165679 0.3345652985808284 0 0.37157241687929571 1 I I -0.70710678118654746 0.70710678118654746 0.5 forward I I I I #
loop $-1 $-1 $255 $66 #
coedge $-1 $161 $161 $256 $257 reversed $101 $-1 #
face $-1 $258 $259 $53 $-1 $260 forward single #
loop $-1 $-1 $261 $103 #
plane-surface $-1 -63.412579729605994 29.652278518262349 6.4158682710259569 -0.74314483375859142 0 0.66913059716165679 0.66913059716165679 0 0.74314483375859142 forward_v I I I I #
coedge $-1 $262 $263 $264 $265 reversed $104 $-1 #
face $-1 $-1 $266 $54 $-1 $267 forward single #
loop $-1 $268 $269 $106 #
cone-surface $-1 -58.282032370241936 27.618795693885787 6.8306631170794816 0.74314483375859142 0 -0.66913059716165679 0.3345652985808284 0 0.37157241687929571 1 I I -0.70710678118654746 0.70710678118654746 0.5 forward I I I I #
loop $-1 $-1 $270 $68 #
coedge $-1 $170 $170 $271 $272 reversed $107 $-1 #
face $-1 $-1 $273 $55 $-1 $274 forward single #
loop $-1 $275 $276 $109 #
cone-surface $-1 -58.282032370241936 31.685761342638898 6.8306631170794816 0.74314483375859142 0 -0.66913059716165679 0.3345652985808284 0 0.37157241687929571 1 I I -0.70710678118654746 0.70710678118654746 0.5 forward I I I I #
loop $-1 $-1 $277 $69 #
coedge $-1 $175 $175 $278 $279 reversed $110 $-1 #
face $-1 $280 $281 $42 $-1 $282 reversed single #
loop $-1 $-1 $283 $112 #
plane-surface $-1 0 -34.397071775140972 0 0 1 0 0 0 1 forward_v I I I I #
coedge $-1 $284 $285 $286 $287 forward $113 $-1 #
coedge $-1 $288 $115 $289 $290 forward $71 $-1 #
coedge $-1 $115 $288 $291 $292 forward $71 $-1 #
coedge $-1 $293 $294 $115 $183 reversed $295 $-1 #
edge $-1 $296 -34.397071775140972 $297 34.397071775140972 $182 $298 forward 7 unknown #
face $-1 $299 $300 $43 $-1 $301 reversed single #
loop $-1 $-1 $302 $116 #
plane-surface $-1 0 0 -11.976462665956781 0 0 1 1 0 0 forward_v I I I I #
coedge $-1 $303 $304 $305 $306 reversed $117 $-1 #
coedge $-1 $307 $119 $304 $308 forward $74 $-1 #
coedge $-1 $119 $307 $309 $310 reversed $74 $-1 #
coedge $-1 $311 $305 $119 $191 forward $300 $-1 #
edge $-1 $312 7.5541811147384106 $313 20.413320811847846 $190 $314 forward 7 unknown #
face $-1 $315 $316 $44 $-1 $317 reversed single #
loop $-1 $-1 $318 $120 #
plane-surface $-1 72.799447088264074 -3.0600166652025411 185.52792499781384 0 1 0 0.74314483375859142 0 0.66913059716165679 forward_v I I I I #
coedge $-1 $319 $320 $321 $322 reversed $121 $-1 #
coedge $-1 $197 $123 $323 $324 reversed $77 $-1 #
coedge $-1 $123 $196 $319 $325 reversed $77 $-1 #
coedge $-1 $321 $326 $123 $199 forward $327 $-1 #
edge $-1 $328 -27.012856185473971 $329 -22.006074628189403 $198 $330 forward 7 unknown #
loop $-1 $-1 $205 $124 #
plane-surface $-1 -21.450014954458894 1.6847765916760906 100.66533031374895 0.74314483375859142 0 0.66913059716165679 0.66913059716165679 0 -0.74314483375859142 forward_v I I I I #
loop $-1 $-1 $331 $79 #
coedge $-1 $203 $203 $204 $332 reversed $125 $-1 #
coedge $-1 $204 $204 $203 $332 forward $127 $-1 #
coedge $-1 $205 $205 $128 $206 forward $200 $-1 #
edge $-1 $333 0 $333 6.2831853071796004 $205 $334 forward 7 unknown #
loop $-1 $-1 $212 $129 #
plane-surface $-1 -21.450014954458894 1.6847765916760906 100.66533031374895 0.74314483375859142 0 0.66913059716165679 0.66913059716165679 0 -0.74314483375859142 forward_v I I I I #
loop $-1 $-1 $335 $82 #
coedge $-1 $210 $210 $211 $336 reversed $130 $-1 #
coedge $-1 $211 $211 $210 $336 forward $132 $-1 #
coedge $-1 $212 $212 $133 $213 forward $207 $-1 #
edge $-1 $337 0 $337 6.2831853071796004 $212 $338 forward 7 unknown #
face $-1 $339 $340 $47 $-1 $341 forward single #
loop $-1 $-1 $220 $134 #
plane-surface $-1 63.412579729606009 0 0 -1 0 0 0 0 1 forward_v I I I I #
coedge $-1 $342 $343 $344 $345 reversed $135 $-1 #
coedge $-1 $219 $137 $346 $347 reversed $86 $-1 #
coedge $-1 $137 $218 $342 $348 reversed $86 $-1 #
coedge $-1 $344 $349 $137 $221 forward $215 $-1 #
edge $-1 $350 80.787499832950147 $351 86.348094227880949 $220 $352 forward 7 unknown #
loop $-1 $-1 $227 $138 #
plane-surface $-1 -21.450014954458894 29.652278518262349 100.66533031374895 0.74314483375859142 0 0.66913059716165679 0.66913059716165679 0 -0.74314483375859142 forward_v I I I I #
loop $-1 $-1 $353 $88 #
coedge $-1 $225 $225 $226 $354 reversed $139 $-1 #
coedge $-1 $226 $226 $225 $354 forward $141 $-1 #
coedge $-1 $227 $227 $142 $228 forward $222 $-1 #
edge $-1 $355 0 $355 6.2831853071796004 $227 $356 forward 7 unknown #
loop $-1 $-1 $234 $143 #
plane-surface $-1 -21.450014954458894 29.652278518262349 100.66533031374895 0.74314483375859142 0 0.66913059716165679 0.66913059716165679 0 -0.74314483375859142 forward_v I I I I #
loop $-1 $-1 $357 $91 #
coedge $-1 $232 $232 $233 $358 reversed $144 $-1 #
coedge $-1 $233 $233 $232 $358 forward $146 $-1 #
coedge $-1 $234 $234 $147 $235 forward $229 $-1 #
edge $-1 $359 0 $359 6.2831853071796004 $234 $360 forward 7 unknown #
face $-1 $361 $362 $50 $-1 $363 reversed single #
loop $-1 $-1 $364 $148 #
plane-surface $-1 -157.66204177232896 6.4295698485547224 91.278462955090845 0 -1 0 0.74314483375859142 0 -0.66913059716165679 forward_v I I I I #
coedge $-1 $365 $366 $367 $368 reversed $149 $-1 #
coedge $-1 $241 $151 $369 $370 reversed $95 $-1 #
coedge $-1 $151 $240 $365 $371 reversed $95 $-1 #
coedge $-1 $367 $372 $151 $243 forward $373 $-1 #
edge $-1 $374 15.418441156558472 $375 20.425222713843056 $242 $376 forward 7 unknown #
loop $-1 $-1 $249 $152 #
plane-surface $-1 -63.412579729605994 1.6847765916760906 6.4158682710259569 -0.74314483375859142 0 0.66913059716165679 0.66913059716165679 0 0.74314483375859142 forward_v I I I I #
loop $-1 $-1 $377 $97 #
coedge $-1 $247 $247 $248 $378 reversed $153 $-1 #
coedge $-1 $248 $248 $247 $378 forward $155 $-1 #
coedge $-1 $249 $249 $156 $250 forward $244 $-1 #
edge $-1 $379 0 $379 6.2831853071796004 $249 $380 forward 7 unknown #
loop $-1 $-1 $256 $157 #
plane-surface $-1 -63.412579729605994 1.6847765916760906 6.4158682710259569 -0.74314483375859142 0 0.66913059716165679 0.66913059716165679 0 0.74314483375859142 forward_v I I I I #
loop $-1 $-1 $381 $100 #
coedge $-1 $254 $254 $255 $382 reversed $158 $-1 #
coedge $-1 $255 $255 $254 $382 forward $160 $-1 #
coedge $-1 $256 $256 $161 $257 forward $251 $-1 #
edge $-1 $383 0 $383 6.2831853071796004 $256 $384 forward 7 unknown #
face $-1 $385 $386 $53 $-1 $387 reversed single #
loop $-1 $-1 $264 $162 #
plane-surface $-1 0 0 11.976462665956781 0 0 1 1 0 0 forward_v I I I I #
coedge $-1 $388 $389 $390 $391 reversed $163 $-1 #
coedge $-1 $263 $165 $392 $393 reversed $104 $-1 #
coedge $-1 $165 $262 $388 $394 reversed $104 $-1 #
coedge $-1 $390 $395 $165 $265 forward $259 $-1 #
edge $-1 $396 15.418441156558472 $397 20.425222713843056 $264 $398 forward 7 unknown #
loop $-1 $-1 $271 $166 #
plane-surface $-1 -63.412579729605994 29.652278518262349 6.4158682710259569 -0.74314483375859142 0 0.66913059716165679 0.66913059716165679 0 0.74314483375859142 forward_v I I I I #
loop $-1 $-1 $399 $106 #
coedge $-1 $269 $269 $270 $400 reversed $167 $-1 #
coedge $-1 $270 $270 $269 $400 forward $169 $-1 #
coedge $-1 $271 $271 $170 $272 forward $266 $-1 #
edge $-1 $401 0 $401 6.2831853071796004 $271 $402 forward 7 unknown #
loop $-1 $-1 $278 $171 #
plane-surface $-1 -63.412579729605994 29.652278518262349 6.4158682710259569 -0.74314483375859142 0 0.66913059716165679 0.66913059716165679 0 0.74314483375859142 forward_v I I I I #
loop $-1 $-1 $403 $109 #
coedge $-1 $276 $276 $277 $404 reversed $172 $-1 #
coedge $-1 $277 $277 $276 $404 forward $174 $-1 #
coedge $-1 $278 $278 $175 $279 forward $273 $-1 #
edge $-1 $405 0 $405 6.2831853071796004 $278 $406 forward 7 unknown #
face $-1 $407 $408 $42 $-1 $409 reversed single #
loop $-1 $-1 $410 $176 #
plane-surface $-1 -63.412579729606009 0 0 1 0 0 0 0 -1 forward_v I I I I #
coedge $-1 $411 $291 $412 $413 forward $177 $-1 #
coedge $-1 $414 $179 $411 $415 forward $113 $-1 #
coedge $-1 $179 $414 $416 $417 forward $113 $-1 #
coedge $-1 $294 $293 $179 $287 reversed $295 $-1 #
edge $-1 $418 -34.397071775140972 $419 34.397071775140972 $286 $420 forward 7 unknown #
coedge $-1 $181 $180 $421 $422 forward $71 $-1 #
coedge $-1 $423 $424 $180 $290 reversed $408 $-1 #
edge $-1 $297 -63.412579729606009 $425 63.412579729606009 $289 $426 forward 7 unknown #
coedge $-1 $283 $427 $181 $292 reversed $177 $-1 #
edge $-1 $428 -63.412579729606009 $296 63.412579729606009 $291 $429 forward 7 unknown #
coedge $-1 $286 $182 $427 $430 forward $295 $-1 #
coedge $-1 $182 $286 $423 $431 reversed $295 $-1 #
loop $-1 $-1 $293 $407 #
vertex $-1 $183 $432 #
vertex $-1 $183 $433 #
straight-curve $-1 63.412579729606009 0 11.976462665956781 0 1 0 I I #
face $-1 $434 $435 $43 $-1 $436 reversed single #
loop $-1 $-1 $305 $184 #
plane-surface $-1 63.412579729606009 0 0 -1 0 0 0 0 1 forward_v I I I I #
coedge $-1 $437 $438 $303 $439 forward $185 $-1 #
coedge $-1 $440 $187 $302 $439 reversed $117 $-1 #
coedge $-1 $187 $440 $188 $308 reversed $117 $-1 #
coedge $-1 $190 $441 $187 $306 forward $300 $-1 #
edge $-1 $442 -7.4091090389256449 $312 -1.7255982151366274 $305 $443 forward 7 unknown #
coedge $-1 $189 $188 $444 $445 reversed $74 $-1 #
edge $-1 $312 -63.412579729606009 $446 63.412579729606009 $304 $447 forward 7 unknown #
coedge $-1 $448 $449 $189 $310 forward $435 $-1 #
edge $-1 $313 -63.412579729606009 $450 63.412579729606009 $309 $451 forward 7 unknown #
coedge $-1 $441 $190 $449 $452 forward $300 $-1 #
vertex $-1 $191 $453 #
vertex $-1 $452 $454 #
straight-curve $-1 63.412579729606009 -13.983750963293128 -6.2929518421677635 0 -1 0 I I #
face $-1 $-1 $327 $44 $-1 $455 forward single #
loop $-1 $-1 $456 $192 #
plane-surface $-1 63.412579729606009 0 0 -1 0 0 0 0 1 forward_v I I I I #
coedge $-1 $457 $458 $459 $460 reversed $193 $-1 #
coedge $-1 $461 $195 $197 $325 forward $121 $-1 #
coedge $-1 $195 $461 $457 $462 forward $121 $-1 #
coedge $-1 $459 $198 $195 $322 forward $327 $-1 #
edge $-1 $329 -5.587181552716677 $463 3.9024049610405864 $321 $464 forward 7 unknown #
coedge $-1 $465 $466 $196 $324 forward $316 $-1 #
edge $-1 $467 -86.348094227880949 $328 -80.787499832950147 $323 $468 forward 7 unknown #
edge $-1 $329 119.34264172870843 $467 126.82515945921205 $197 $469 forward 7 unknown #
coedge $-1 $198 $459 $465 $470 forward $327 $-1 #
loop $-1 $-1 $459 $315 #
vertex $-1 $324 $471 #
vertex $-1 $199 $472 #
straight-curve $-1 36.399723544132037 6.4295698485547224 11.976462665956774 -1 0 0 I I #
coedge $-1 $331 $331 $-1 $473 reversed $202 $-1 #
edge $-1 $474 0 $474 6.2831853071796004 $203 $475 forward 7 unknown #
vertex $-1 $206 $476 #
ellipse-curve $-1 60.909188950963724 -0.34870623270046508 9.1961654684913832 0.74314483375859142 0 0.66913059716165679 0.66913059716165679 0 -0.74314483375859142 1 I I #
coedge $-1 $335 $335 $-1 $477 reversed $209 $-1 #
edge $-1 $478 0 $478 6.2831853071796004 $210 $479 forward 7 unknown #
vertex $-1 $213 $480 #
ellipse-curve $-1 60.909188950963724 3.7182594160526463 9.1961654684913832 0.74314483375859142 0 0.66913059716165679 0.66913059716165679 0 -0.74314483375859142 1 I I #
face $-1 $-1 $481 $47 $-1 $482 reversed single #
loop $-1 $-1 $346 $214 #
plane-surface $-1 0 0 11.976462665956781 0 0 1 1 0 0 forward_v I I I I #
coedge $-1 $483 $217 $219 $348 forward $135 $-1 #
coedge $-1 $217 $483 $484 $485 reversed $135 $-1 #
coedge $-1 $486 $220 $217 $345 forward $215 $-1 #
edge $-1 $351 10.081346002252545 $487 19.570932516009798 $344 $488 forward 7 unknown #
coedge $-1 $489 $490 $218 $347 forward $340 $-1 #
edge $-1 $491 22.006074628189403 $350 27.012856185473971 $346 $492 forward 7 unknown #
edge $-1 $351 -126.82515945921205 $491 -119.34264172870843 $219 $493 forward 7 unknown #
coedge $-1 $220 $486 $489 $494 reversed $215 $-1 #
vertex $-1 $494 $495 #
vertex $-1 $221 $496 #
straight-curve $-1 63.412579729606009 24.907485261383719 92.76396249890692 0 0 -1 I I #
coedge $-1 $353 $353 $-1 $497 reversed $224 $-1 #
edge $-1 $498 0 $498 6.2831853071796004 $225 $499 forward 7 unknown #
vertex $-1 $228 $500 #
ellipse-curve $-1 60.909188950963724 27.618795693885787 9.1961654684913832 0.74314483375859142 0 0.66913059716165679 0.66913059716165679 0 -0.74314483375859142 1 I I #
coedge $-1 $357 $357 $-1 $501 reversed $231 $-1 #
edge $-1 $502 0 $502 6.2831853071796004 $232 $503 forward 7 unknown #
vertex $-1 $235 $504 #
ellipse-curve $-1 60.909188950963724 31.685761342638898 9.1961654684913832 0.74314483375859142 0 0.66913059716165679 0.66913059716165679 0 -0.74314483375859142 1 I I #
face $-1 $-1 $373 $50 $-1 $505 forward single #
loop $-1 $-1 $506 $236 #
plane-surface $-1 -63.412579729606009 0 0 1 0 0 0 0 -1 forward_v I I I I #
coedge $-1 $507 $508 $509 $510 reversed $237 $-1 #
coedge $-1 $511 $239 $241 $371 forward $149 $-1 #
coedge $-1 $239 $511 $507 $512 forward $149 $-1 #
coedge $-1 $509 $242 $239 $368 forward $373 $-1 #
edge $-1 $375 -3.9024049610405864 $513 5.587181552716677 $367 $514 forward 7 unknown #
coedge $-1 $515 $516 $240 $370 forward $362 $-1 #
edge $-1 $517 -39.22336320651948 $374 -33.662768811588641 $369 $518 forward 7 unknown #
edge $-1 $375 -7.4825177305036163 $517 2.1389731374768986e-014 $241 $519 forward 7 unknown #
coedge $-1 $242 $509 $515 $520 forward $373 $-1 #
loop $-1 $-1 $509 $361 #
vertex $-1 $370 $521 #
vertex $-1 $243 $522 #
straight-curve $-1 -78.831020886164481 -3.0600166652025411 11.976462665956781 1 0 0 I I #
coedge $-1 $377 $377 $-1 $523 reversed $246 $-1 #
edge $-1 $524 0 $524 6.2831853071796004 $247 $525 forward 7 unknown #
vertex $-1 $250 $526 #
ellipse-curve $-1 -60.90918895096371 -0.34870623270046508 9.1961654684913654 -0.74314483375859142 0 0.66913059716165679 0.66913059716165679 0 0.74314483375859142 1 I I #
coedge $-1 $381 $381 $-1 $527 reversed $253 $-1 #
edge $-1 $528 0 $528 6.2831853071796004 $254 $529 forward 7 unknown #
vertex $-1 $257 $530 #
ellipse-curve $-1 -60.90918895096371 3.7182594160526463 9.1961654684913654 -0.74314483375859142 0 0.66913059716165679 0.66913059716165679 0 0.74314483375859142 1 I I #
face $-1 $-1 $531 $53 $-1 $532 reversed single #
loop $-1 $-1 $533 $258 #
plane-surface $-1 0 34.397071775140972 0 0 -1 0 0 0 -1 forward_v I I I I #
coedge $-1 $534 $261 $263 $394 forward $163 $-1 #
coedge $-1 $261 $534 $533 $535 reversed $163 $-1 #
coedge $-1 $536 $264 $261 $391 forward $259 $-1 #
edge $-1 $397 10.081346002252545 $537 19.570932516009805 $390 $538 forward 7 unknown #
coedge $-1 $539 $540 $262 $393 forward $531 $-1 #
edge $-1 $541 -39.22336320651948 $396 -33.662768811588641 $392 $542 forward 7 unknown #
edge $-1 $397 -7.4825177305036163 $541 2.1389731374768986e-014 $263 $543 forward 7 unknown #
coedge $-1 $264 $536 $539 $544 forward $259 $-1 #
vertex $-1 $393 $545 #
vertex $-1 $265 $546 #
straight-curve $-1 -78.831020886164481 24.907485261383719 11.976462665956781 1 0 0 I I #
coedge $-1 $399 $399 $-1 $547 reversed $268 $-1 #
edge $-1 $548 0 $548 6.2831853071796004 $269 $549 forward 7 unknown #
vertex $-1 $272 $550 #
ellipse-curve $-1 -60.90918895096371 27.618795693885787 9.1961654684913654 -0.74314483375859142 0 0.66913059716165679 0.66913059716165679 0 0.74314483375859142 1 I I #
coedge $-1 $403 $403 $-1 $551 reversed $275 $-1 #
edge $-1 $552 0 $552 6.2831853071796004 $276 $553 forward 7 unknown #
vertex $-1 $279 $554 #
ellipse-curve $-1 -60.90918895096371 31.685761342638898 9.1961654684913654 -0.74314483375859142 0 0.66913059716165679 0.66913059716165679 0 0.74314483375859142 1 I I #
face $-1 $-1 $295 $42 $-1 $555 reversed single #
loop $-1 $-1 $423 $280 #
plane-surface $-1 0 34.397071775140972 0 0 -1 0 0 0 -1 forward_v I I I I #
coedge $-1 $556 $421 $424 $557 forward $281 $-1 #
coedge $-1 $427 $283 $284 $415 reversed $177 $-1 #
coedge $-1 $421 $556 $283 $413 reversed $281 $-1 #
edge $-1 $428 -11.976462665956781 $558 11.976462665956781 $412 $559 forward 7 unknown #
coedge $-1 $285 $284 $556 $560 forward $113 $-1 #
edge $-1 $419 -63.412579729606009 $558 63.412579729606009 $411 $561 forward 7 unknown #
coedge $-1 $424 $423 $285 $417 reversed $408 $-1 #
edge $-1 $562 -63.412579729606009 $418 63.412579729606009 $416 $563 forward 7 unknown #
vertex $-1 $287 $564 #
vertex $-1 $430 $565 #
straight-curve $-1 63.412579729606009 0 -11.976462665956781 0 -1 0 I I #
coedge $-1 $410 $412 $288 $422 reversed $281 $-1 #
edge $-1 $425 -34.397071775140972 $428 34.397071775140972 $421 $566 forward 7 unknown #
coedge $-1 $416 $289 $294 $431 forward $408 $-1 #
coedge $-1 $289 $416 $410 $557 reversed $408 $-1 #
vertex $-1 $290 $567 #
straight-curve $-1 0 34.397071775140972 11.976462665956781 -1 0 0 I I #
coedge $-1 $291 $411 $293 $430 reversed $177 $-1 #
vertex $-1 $422 $568 #
straight-curve $-1 0 -34.397071775140972 11.976462665956781 1 0 0 I I #
edge $-1 $296 -11.976462665956781 $419 11.976462665956781 $293 $569 forward 7 unknown #
edge $-1 $297 -11.976462665956781 $418 11.976462665956781 $294 $570 forward 7 unknown #
point $-1 63.412579729606009 -34.397071775140972 11.976462665956781 #
point $-1 63.412579729606009 34.397071775140972 11.976462665956781 #
face $-1 $-1 $571 $43 $-1 $572 reversed single #
loop $-1 $-1 $309 $299 #
plane-surface $-1 0 -34.397071775140972 0 0 1 0 0 0 1 forward_v I I I I #
coedge $-1 $573 $302 $441 $574 forward $185 $-1 #
coedge $-1 $302 $573 $575 $576 forward $185 $-1 #
edge $-1 $577 -63.412579729606009 $442 63.412579729606009 $302 $578 forward 7 unknown #
coedge $-1 $304 $303 $579 $580 reversed $117 $-1 #
coedge $-1 $305 $311 $437 $574 reversed $300 $-1 #
vertex $-1 $574 $581 #
straight-curve $-1 63.412579729606009 -21.537932078031538 -4.5673536270311361 0 0 1 I I #
coedge $-1 $579 $582 $307 $445 forward $571 $-1 #
edge $-1 $450 -20.413320811847846 $446 -7.5541811147384106 $444 $583 forward 7 unknown #
vertex $-1 $445 $584 #
straight-curve $-1 0 -21.537932078031538 -6.2929518421677635 -1 0 0 I I #
coedge $-1 $585 $309 $582 $586 forward $435 $-1 #
coedge $-1 $309 $585 $311 $452 reversed $435 $-1 #
vertex $-1 $586 $587 #
straight-curve $-1 0 -34.397071775140972 -6.2929518421677635 -1 0 0 I I #
edge $-1 $313 6.2929518421677635 $588 11.976462665956781 $311 $589 forward 7 unknown #
point $-1 63.412579729606009 -21.537932078031538 -6.2929518421677635 #
point $-1 63.412579729606009 -34.397071775140972 -6.2929518421677635 #
plane-surface $-1 0 0 11.976462665956781 0 0 1 1 0 0 forward_v I I I I #
coedge $-1 $466 $465 $458 $590 forward $316 $-1 #
coedge $-1 $458 $318 $320 $462 reversed $193 $-1 #
coedge $-1 $318 $457 $456 $590 reversed $193 $-1 #
coedge $-1 $326 $321 $318 $460 forward $327 $-1 #
edge $-1 $463 22.006074628189403 $591 27.012856185473971 $459 $592 forward 7 unknown #
coedge $-1 $320 $319 $466 $593 reversed $121 $-1 #
edge $-1 $594 -126.82515945921205 $463 -119.34264172870843 $457 $595 forward 7 unknown #
vertex $-1 $322 $596 #
straight-curve $-1 58.40579817232144 0.84238829583804531 11.976462665956781 0 -1 0 I I #
coedge $-1 $456 $323 $326 $470 reversed $316 $-1 #
coedge $-1 $323 $456 $461 $593 forward $316 $-1 #
vertex $-1 $324 $597 #
straight-curve $-1 63.412579729606009 6.4295698485547224 92.76396249890692 0 0 1 I I #
straight-curve $-1 -21.450014954458894 6.4295698485547224 100.66533031374895 0.66913059716165679 0 -0.74314483375859142 I I #
edge $-1 $591 -3.0600166652025411 $328 6.4295698485547224 $465 $598 forward 7 unknown #
point $-1 63.412579729606009 6.4295698485547224 11.976462665956781 #
point $-1 58.40579817232144 6.4295698485547224 11.976462665956788 #
edge $-1 $599 1 $599 0 $331 $-1 forward 7 unknown #
vertex $-1 $332 $600 #
ellipse-curve $-1 58.653604787121232 -0.34870623270046508 7.1652284156603168 0.74314483375859142 0 0.66913059716165679 0.66913059716165679 0 -0.74314483375859142 1 I I #
point $-1 61.578319548125378 -0.34870623270046508 8.4530206347327876 #
edge $-1 $601 1 $601 0 $335 $-1 forward 7 unknown #
vertex $-1 $336 $602 #
ellipse-curve $-1 58.653604787121232 3.7182594160526463 7.1652284156603168 0.74314483375859142 0 0.66913059716165679 0.66913059716165679 0 -0.74314483375859142 1 I I #
point $-1 61.578319548125378 3.7182594160526463 8.4530206347327876 #
loop $-1 $-1 $484 $339 #
plane-surface $-1 0 34.397071775140972 0 0 -1 0 0 0 -1 forward_v I I I I #
coedge $-1 $343 $342 $490 $603 reversed $135 $-1 #
coedge $-1 $604 $605 $343 $485 forward $481 $-1 #
edge $-1 $487 -82.244268720777939 $606 -74.761750990274322 $484 $607 forward 7 unknown #
coedge $-1 $349 $344 $605 $608 reversed $215 $-1 #
vertex $-1 $345 $609 #
straight-curve $-1 63.412579729606016 14.826139259131175 6.415868271025964 0 1 0 I I #
coedge $-1 $610 $346 $349 $494 forward $340 $-1 #
coedge $-1 $346 $610 $483 $603 forward $340 $-1 #
vertex $-1 $347 $611 #
straight-curve $-1 36.399723544132037 24.907485261383719 11.976462665956774 1 0 0 I I #
straight-curve $-1 -21.450014954458894 24.907485261383719 100.66533031374895 -0.66913059716165679 0 0.74314483375859142 I I #
edge $-1 $350 24.907485261383719 $612 34.397071775140972 $349 $613 forward 7 unknown #
point $-1 63.412579729606009 24.907485261383719 11.976462665956781 #
point $-1 63.412579729606009 24.907485261383719 6.4158682710259711 #
edge $-1 $614 1 $614 0 $353 $-1 forward 7 unknown #
vertex $-1 $354 $615 #
ellipse-curve $-1 58.653604787121232 27.618795693885787 7.1652284156603168 0.74314483375859142 0 0.66913059716165679 0.66913059716165679 0 -0.74314483375859142 1 I I #
point $-1 61.578319548125378 27.618795693885787 8.4530206347327876 #
edge $-1 $616 1 $616 0 $357 $-1 forward 7 unknown #
vertex $-1 $358 $617 #
ellipse-curve $-1 58.653604787121232 31.685761342638898 7.1652284156603168 0.74314483375859142 0 0.66913059716165679 0.66913059716165679 0 -0.74314483375859142 1 I I #
point $-1 61.578319548125378 31.685761342638898 8.4530206347327876 #
plane-surface $-1 0 0 11.976462665956781 0 0 1 1 0 0 forward_v I I I I #
coedge $-1 $516 $515 $508 $618 forward $362 $-1 #
coedge $-1 $508 $364 $366 $512 reversed $237 $-1 #
coedge $-1 $364 $507 $506 $618 reversed $237 $-1 #
coedge $-1 $372 $367 $364 $510 forward $373 $-1 #
edge $-1 $513 -20.425222713843056 $619 -15.418441156558472 $509 $620 forward 7 unknown #
coedge $-1 $366 $365 $516 $621 reversed $149 $-1 #
edge $-1 $622 -2.1389731374768986e-014 $513 7.4825177305036163 $507 $623 forward 7 unknown #
vertex $-1 $368 $624 #
straight-curve $-1 -58.405798172321418 0.84238829583804531 11.976462665956783 0 1 0 I I #
coedge $-1 $506 $369 $372 $520 reversed $362 $-1 #
coedge $-1 $369 $506 $511 $621 forward $362 $-1 #
vertex $-1 $370 $625 #
straight-curve $-1 -63.412579729606009 -3.0600166652025411 45.639231477545422 0 0 1 I I #
straight-curve $-1 -63.412579729605994 -3.0600166652025411 6.4158682710259569 -0.66913059716165679 0 -0.74314483375859142 I I #
edge $-1 $619 -6.4295698485547224 $374 3.0600166652025411 $515 $626 forward 7 unknown #
point $-1 -63.412579729606009 -3.0600166652025411 11.976462665956781 #
point $-1 -58.405798172321425 -3.0600166652025411 11.976462665956781 #
edge $-1 $627 1 $627 0 $377 $-1 forward 7 unknown #
vertex $-1 $378 $628 #
ellipse-curve $-1 -58.653604787121232 -0.34870623270046508 7.1652284156603097 -0.74314483375859142 0 0.66913059716165679 0.66913059716165679 0 0.74314483375859142 1 I I #
point $-1 -60.24005835380207 -0.34870623270046508 9.9393103022499627 #
edge $-1 $629 1 $629 0 $381 $-1 forward 7 unknown #
vertex $-1 $382 $630 #
ellipse-curve $-1 -58.653604787121232 3.7182594160526463 7.1652284156603097 -0.74314483375859142 0 0.66913059716165679 0.66913059716165679 0 0.74314483375859142 1 I I #
point $-1 -60.24005835380207 3.7182594160526463 9.9393103022499627 #
loop $-1 $-1 $392 $385 #
plane-surface $-1 -63.412579729606009 0 0 1 0 0 0 0 -1 forward_v I I I I #
coedge $-1 $631 $632 $389 $535 forward $386 $-1 #
coedge $-1 $389 $388 $540 $633 reversed $163 $-1 #
edge $-1 $537 11.349171260668296 $634 18.831688991171937 $533 $635 forward 7 unknown #
coedge $-1 $395 $390 $632 $636 forward $259 $-1 #
vertex $-1 $636 $637 #
straight-curve $-1 -58.405798172321418 14.826139259131175 11.976462665956783 0 1 0 I I #
coedge $-1 $638 $392 $395 $544 reversed $531 $-1 #
coedge $-1 $392 $638 $534 $633 forward $531 $-1 #
vertex $-1 $393 $639 #
straight-curve $-1 -63.412579729606009 24.907485261383719 45.639231477545422 0 0 1 I I #
straight-curve $-1 -63.412579729605994 24.907485261383719 6.4158682710259569 -0.66913059716165679 0 -0.74314483375859142 I I #
edge $-1 $640 -34.397071775140972 $396 -24.907485261383719 $539 $641 forward 7 unknown #
point $-1 -63.412579729606009 24.907485261383719 11.976462665956781 #
point $-1 -58.405798172321425 24.907485261383719 11.976462665956781 #
edge $-1 $642 1 $642 0 $399 $-1 forward 7 unknown #
vertex $-1 $400 $643 #
ellipse-curve $-1 -58.653604787121232 27.618795693885787 7.1652284156603097 -0.74314483375859142 0 0.66913059716165679 0.66913059716165679 0 0.74314483375859142 1 I I #
point $-1 -60.24005835380207 27.618795693885787 9.9393103022499627 #
edge $-1 $644 1 $644 0 $403 $-1 forward 7 unknown #
vertex $-1 $404 $645 #
ellipse-curve $-1 -58.653604787121232 31.685761342638898 7.1652284156603097 -0.74314483375859142 0 0.66913059716165679 0.66913059716165679 0 0.74314483375859142 1 I I #
point $-1 -60.24005835380207 31.685761342638898 9.9393103022499627 #
plane-surface $-1 63.412579729606009 0 0 -1 0 0 0 0 1 forward_v I I I I #
coedge $-1 $412 $410 $414 $560 reversed $281 $-1 #
edge $-1 $425 -11.976462665956781 $562 11.976462665956781 $424 $646 forward 7 unknown #
vertex $-1 $560 $647 #
straight-curve $-1 -63.412579729606009 -34.397071775140972 0 0 0 -1 I I #
edge $-1 $558 -34.397071775140972 $562 34.397071775140972 $556 $648 forward 7 unknown #
straight-curve $-1 0 -34.397071775140972 -11.976462665956781 -1 0 0 I I #
vertex $-1 $417 $649 #
straight-curve $-1 0 34.397071775140972 -11.976462665956781 1 0 0 I I #
point $-1 63.412579729606009 34.397071775140972 -11.976462665956781 #
point $-1 63.412579729606009 -34.397071775140972 -11.976462665956781 #
straight-curve $-1 -63.412579729606009 0 11.976462665956781 0 -1 0 I I #
point $-1 -63.412579729606009 34.397071775140972 11.976462665956781 #
point $-1 -63.412579729606009 -34.397071775140972 11.976462665956781 #
straight-curve $-1 63.412579729606009 -34.397071775140972 0 0 0 -1 I I #
straight-curve $-1 63.412579729606009 34.397071775140972 0 0 0 -1 I I #
loop $-1 $-1 $579 $434 #
plane-surface $-1 -63.412579729606009 0 0 1 0 0 0 0 -1 forward_v I I I I #
coedge $-1 $438 $437 $585 $650 forward $185 $-1 #
edge $-1 $442 21.537932078031538 $588 34.397071775140972 $441 $651 forward 7 unknown #
coedge $-1 $582 $579 $438 $576 reversed $571 $-1 #
edge $-1 $652 -34.397071775140972 $577 -21.537932078031538 $575 $653 forward 7 unknown #
vertex $-1 $580 $654 #
straight-curve $-1 0 -21.537932078031538 -11.976462665956781 1 0 0 I I #
coedge $-1 $575 $444 $440 $580 forward $571 $-1 #
edge $-1 $446 1.7255982151366274 $577 7.4091090389256449 $579 $655 forward 7 unknown #
point $-1 63.412579729606009 -21.537932078031538 -11.976462665956781 #
coedge $-1 $444 $575 $448 $586 reversed $571 $-1 #
straight-curve $-1 -63.412579729606009 -13.983750963293128 -6.2929518421677635 0 1 0 I I #
point $-1 -63.412579729606009 -21.537932078031538 -6.2929518421677635 #
coedge $-1 $449 $448 $573 $650 reversed $435 $-1 #
edge $-1 $450 6.2929518421677635 $652 11.976462665956781 $582 $656 forward 7 unknown #
point $-1 -63.412579729606009 -34.397071775140972 -6.2929518421677635 #
vertex $-1 $452 $657 #
straight-curve $-1 63.412579729606009 -34.397071775140972 0 0 0 -1 I I #
edge $-1 $591 80.787499832950147 $594 86.348094227880949 $456 $658 forward 7 unknown #
vertex $-1 $470 $659 #
straight-curve $-1 36.399723544132037 -3.0600166652025411 11.976462665956774 1 0 0 I I #
edge $-1 $594 -3.9024049610405864 $467 5.587181552716677 $466 $660 forward 7 unknown #
vertex $-1 $593 $661 #
straight-curve $-1 -21.450014954458894 -3.0600166652025411 100.66533031374895 -0.66913059716165679 0 0.74314483375859142 I I #
point $-1 58.40579817232144 -3.0600166652025411 11.976462665956788 #
point $-1 63.412579729606009 6.4295698485547224 6.4158682710259711 #
straight-curve $-1 63.412579729606009 0 11.976462665956781 0 1 0 I I #
vertex $-1 $473 $662 #
point $-1 59.322735384282886 -0.34870623270046508 6.4220835819017257 #
vertex $-1 $477 $663 #
point $-1 59.322735384282886 3.7182594160526463 6.4220835819017257 #
edge $-1 $606 -19.570932516009805 $491 -10.081346002252545 $490 $664 forward 7 unknown #
coedge $-1 $605 $484 $610 $665 reversed $481 $-1 #
coedge $-1 $484 $604 $486 $608 forward $481 $-1 #
vertex $-1 $485 $666 #
straight-curve $-1 8.3804230873480918 34.397071775140972 67.535271677125408 -0.66913059716165679 0 0.74314483375859142 I I #
edge $-1 $612 -11.976462665956781 $487 -6.415868271025964 $486 $667 forward 7 unknown #
point $-1 63.412579729606009 34.397071775140972 6.415868271025964 #
coedge $-1 $490 $489 $604 $665 forward $340 $-1 #
point $-1 58.40579817232144 24.907485261383719 11.976462665956788 #
vertex $-1 $494 $668 #
straight-curve $-1 63.412579729606009 0 11.976462665956781 0 1 0 I I #
vertex $-1 $497 $669 #
point $-1 59.322735384282886 27.618795693885787 6.4220835819017257 #
vertex $-1 $501 $670 #
point $-1 59.322735384282886 31.685761342638898 6.4220835819017257 #
edge $-1 $619 33.662768811588641 $622 39.22336320651948 $506 $671 forward 7 unknown #
vertex $-1 $520 $672 #
straight-curve $-1 -78.831020886164481 6.4295698485547224 11.976462665956781 -1 0 0 I I #
edge $-1 $622 -5.587181552716677 $517 3.9024049610405864 $516 $673 forward 7 unknown #
vertex $-1 $621 $674 #
straight-curve $-1 -63.412579729605994 6.4295698485547224 6.4158682710259569 0.66913059716165679 0 0.74314483375859142 I I #
point $-1 -58.405798172321425 6.4295698485547224 11.976462665956781 #
point $-1 -63.412579729606009 -3.0600166652025411 6.4158682710259409 #
straight-curve $-1 -63.412579729606009 0 11.976462665956781 0 -1 0 I I #
vertex $-1 $523 $675 #
point $-1 -57.984474189959577 -0.34870623270046508 7.9083732494189016 #
vertex $-1 $527 $676 #
point $-1 -57.984474189959577 3.7182594160526463 7.9083732494189016 #
coedge $-1 $632 $533 $638 $677 reversed $386 $-1 #
coedge $-1 $533 $631 $536 $636 reversed $386 $-1 #
edge $-1 $634 -19.570932516009805 $541 -10.081346002252545 $540 $678 forward 7 unknown #
vertex $-1 $535 $679 #
straight-curve $-1 -50.811720429380529 34.397071775140972 20.410540655763903 -0.66913059716165679 0 -0.74314483375859142 I I #
edge $-1 $537 58.405798172321425 $640 63.412579729606009 $632 $680 forward 7 unknown #
point $-1 -58.405798172321425 34.397071775140979 11.976462665956781 #
coedge $-1 $540 $539 $631 $677 forward $531 $-1 #
point $-1 -63.412579729606009 24.907485261383719 6.4158682710259409 #
vertex $-1 $636 $681 #
straight-curve $-1 -63.412579729606009 0 11.976462665956781 0 -1 0 I I #
vertex $-1 $547 $682 #
point $-1 -57.984474189959577 27.618795693885787 7.9083732494189016 #
vertex $-1 $551 $683 #
point $-1 -57.984474189959577 31.685761342638898 7.9083732494189016 #
straight-curve $-1 -63.412579729606009 34.397071775140972 0 0 0 -1 I I #
point $-1 -63.412579729606009 -34.397071775140972 -11.976462665956781 #
straight-curve $-1 -63.412579729606009 0 -11.976462665956781 0 1 0 I I #
point $-1 -63.412579729606009 34.397071775140972 -11.976462665956781 #
edge $-1 $588 -63.412579729606009 $652 63.412579729606009 $585 $684 forward 7 unknown #
straight-curve $-1 63.412579729606009 0 -11.976462665956781 0 -1 0 I I #
vertex $-1 $576 $685 #
straight-curve $-1 -63.412579729606009 0 -11.976462665956781 0 1 0 I I #
point $-1 -63.412579729606009 -21.537932078031538 -11.976462665956781 #
straight-curve $-1 -63.412579729606009 -21.537932078031538 -4.5673536270311361 0 0 -1 I I #
straight-curve $-1 -63.412579729606009 -34.397071775140972 0 0 0 -1 I I #
point $-1 63.412579729606009 -34.397071775140972 -11.976462665956781 #
straight-curve $-1 63.412579729606009 -3.0600166652025411 92.76396249890692 0 0 -1 I I #
point $-1 63.412579729606009 -3.0600166652025411 11.976462665956781 #
straight-curve $-1 63.412579729606016 0.84238829583804531 6.415868271025964 0 1 0 I I #
point $-1 63.412579729606009 -3.0600166652025411 6.4158682710259711 #
point $-1 57.91045995336264 -0.34870623270046508 6.4960978184986606 #
point $-1 57.91045995336264 3.7182594160526463 6.4960978184986606 #
straight-curve $-1 58.40579817232144 14.826139259131175 11.976462665956781 0 -1 0 I I #
edge $-1 $612 -63.412579729606009 $606 -58.40579817232144 $604 $686 forward 7 unknown #
point $-1 58.40579817232144 34.397071775140979 11.976462665956788 #
straight-curve $-1 63.412579729606009 34.397071775140972 0 0 0 -1 I I #
point $-1 63.412579729606009 34.397071775140972 11.976462665956781 #
point $-1 57.91045995336264 27.618795693885787 6.4960978184986606 #
point $-1 57.91045995336264 31.685761342638898 6.4960978184986606 #
straight-curve $-1 -63.412579729606009 6.4295698485547224 45.639231477545422 0 0 -1 I I #
point $-1 -63.412579729606009 6.4295698485547224 11.976462665956781 #
straight-curve $-1 -63.412579729606009 0.84238829583804531 6.4158682710259409 0 -1 0 I I #
point $-1 -63.412579729606009 6.4295698485547224 6.4158682710259409 #
point $-1 -57.91045995336264 -0.34870623270046508 6.4960978184986535 #
point $-1 -57.91045995336264 3.7182594160526463 6.4960978184986535 #
edge $-1 $640 -11.976462665956781 $634 -6.4158682710259409 $631 $687 forward 7 unknown #
straight-curve $-1 -63.412579729606009 14.826139259131175 6.4158682710259409 0 -1 0 I I #
point $-1 -63.412579729606009 34.397071775140979 6.4158682710259409 #
straight-curve $-1 0 34.397071775140972 11.976462665956781 -1 0 0 I I #
point $-1 -63.412579729606009 34.397071775140972 11.976462665956781 #
point $-1 -57.91045995336264 27.618795693885787 6.4960978184986535 #
point $-1 -57.91045995336264 31.685761342638898 6.4960978184986535 #
straight-curve $-1 0 -34.397071775140972 -11.976462665956781 -1 0 0 I I #
point $-1 -63.412579729606009 -34.397071775140972 -11.976462665956781 #
straight-curve $-1 0 34.397071775140972 11.976462665956781 -1 0 0 I I #
straight-curve $-1 -63.412579729606009 34.397071775140972 0 0 0 -1 I I #
End-of-ACIS-data 