500 0 8 0           
7 Unknown 11 ACIS 5.0 NT 24 Fri Mar 26 16:23:22 1999 
-1 9.9999999999999995e-007 1e-010 
body $-1 $8 $-1 $9 #
body $-1 $10 $-1 $11 #
body $-1 $12 $-1 $13 #
body $-1 $14 $-1 $15 #
body $-1 $16 $-1 $17 #
body $-1 $18 $-1 $19 #
body $-1 $20 $-1 $21 #
body $-1 $22 $-1 $23 #
lump $-1 $-1 $24 $0 #
transform $-1 1 0 0 0 1 0 0 0 1 72.145756401257358 39.050346579833985 15.887330858966852 1 rotate no_reflect no_shear #
lump $-1 $-1 $25 $1 #
transform $-1 1 0 0 0 1 0 0 0 1 72.145756401257358 39.050346579833985 15.887330858966852 1 rotate no_reflect no_shear #
lump $-1 $-1 $26 $2 #
transform $-1 1 0 0 0 1 0 0 0 1 72.145756401257358 39.050346579833985 15.887330858966852 1 rotate no_reflect no_shear #
lump $-1 $-1 $27 $3 #
transform $-1 1 0 0 0 1 0 0 0 1 72.145756401257358 39.050346579833985 15.887330858966852 1 rotate no_reflect no_shear #
lump $-1 $-1 $28 $4 #
transform $-1 1 0 0 0 1 0 0 0 1 72.145756401257358 39.050346579833985 15.887330858966852 1 rotate no_reflect no_shear #
lump $-1 $-1 $29 $5 #
transform $-1 1 0 0 0 1 0 0 0 1 72.145756401257358 39.050346579833985 15.887330858966852 1 rotate no_reflect no_shear #
lump $-1 $-1 $30 $6 #
transform $-1 1 0 0 0 1 0 0 0 1 72.145756401257358 39.050346579833985 15.887330858966852 1 rotate no_reflect no_shear #
lump $-1 $-1 $31 $7 #
transform $-1 1 0 0 0 1 0 0 0 1 72.145756401257358 39.050346579833985 15.887330858966852 1 rotate no_reflect no_shear #
shell $-1 $-1 $-1 $32 $-1 $8 #
shell $-1 $-1 $-1 $33 $-1 $10 #
shell $-1 $-1 $-1 $34 $-1 $12 #
shell $-1 $-1 $-1 $35 $-1 $14 #
shell $-1 $-1 $-1 $36 $-1 $16 #
shell $-1 $-1 $-1 $37 $-1 $18 #
shell $-1 $-1 $-1 $38 $-1 $20 #
shell $-1 $-1 $-1 $39 $-1 $22 #
face $-1 $40 $41 $24 $-1 $42 forward single #
face $-1 $43 $44 $25 $-1 $45 reversed single #
face $-1 $46 $47 $26 $-1 $48 reversed single #
face $-1 $49 $50 $27 $-1 $51 forward single #
face $-1 $52 $53 $28 $-1 $54 forward single #
face $-1 $55 $56 $29 $-1 $57 reversed single #
face $-1 $58 $59 $30 $-1 $60 forward single #
face $-1 $61 $62 $31 $-1 $63 forward single #
face $-1 $64 $65 $24 $-1 $66 reversed single #
loop $-1 $-1 $67 $32 #
plane-surface $-1 0 0 15.887330858966852 0 0 1 1 0 0 forward_v I I I I #
face $-1 $68 $69 $25 $-1 $70 reversed single #
loop $-1 $-1 $71 $33 #
plane-surface $-1 -45.920406906956515 -33.631204060696589 0 1 0 0 0 0 -1 forward_v I I I I #
face $-1 $72 $73 $26 $-1 $74 reversed single #
loop $-1 $-1 $75 $34 #
plane-surface $-1 -191.76884308036372 24.937495782526003 88.327075419801531 0 1 0 -0.82903758062907751 0 0.55919289150049634 forward_v I I I I #
face $-1 $76 $77 $27 $-1 $78 forward single #
loop $-1 $79 $80 $35 #
cone-surface $-1 -68.870682336480769 28.969738867471136 11.430788283220551 0.82903758062907751 0 -0.55919289150049634 0.55919289150049634 0 0.82903758062907751 1 I I 0 1 1 forward I I I I #
face $-1 $81 $82 $28 $-1 $83 forward single #
loop $-1 $84 $85 $36 #
cone-surface $-1 -68.870682336480769 35.018103494888834 11.430788283220551 0.82903758062907751 0 -0.55919289150049634 0.55919289150049634 0 0.82903758062907751 1 I I 0 1 1 forward I I I I #
face $-1 $86 $87 $29 $-1 $88 reversed single #
loop $-1 $-1 $89 $37 #
plane-surface $-1 111.08205481734461 24.937495782526003 207.95016209890787 0 1 0 0.82903758062907751 0 0.55919289150049634 forward_v I I I I #
face $-1 $90 $91 $30 $-1 $92 forward single #
loop $-1 $93 $94 $38 #
cone-surface $-1 68.870682336480741 28.969738867471136 11.430788283220554 -0.82903758062907751 0 -0.55919289150049634 0.55919289150049634 0 -0.82903758062907751 1 I I 0 1 1 forward I I I I #
face $-1 $95 $96 $31 $-1 $97 forward single #
loop $-1 $98 $99 $39 #
cone-surface $-1 68.870682336480741 35.018103494888834 11.430788283220554 -0.82903758062907751 0 -0.55919289150049634 0.55919289150049634 0 -0.82903758062907751 1 I I 0 1 1 forward I I I I #
face $-1 $100 $101 $24 $-1 $102 reversed single #
loop $-1 $-1 $103 $40 #
plane-surface $-1 0 0 -15.887330858966852 0 0 1 1 0 0 forward_v I I I I #
coedge $-1 $104 $105 $106 $107 forward $41 $-1 #
face $-1 $108 $109 $25 $-1 $110 reversed single #
loop $-1 $-1 $111 $43 #
plane-surface $-1 -43.744996055644933 -28.212061541559198 0 0 -1 0 0 0 -1 forward_v I I I I #
coedge $-1 $112 $113 $114 $115 forward $44 $-1 #
face $-1 $116 $117 $26 $-1 $118 forward single #
loop $-1 $-1 $119 $46 #
plane-surface $-1 -72.145756401257358 31.993921181179985 7.6402871567824349 -0.82903758062907751 0 0.55919289150049634 0.55919289150049634 0 0.82903758062907751 forward_v I I I I #
coedge $-1 $120 $121 $122 $123 reversed $47 $-1 #
face $-1 $-1 $124 $27 $-1 $125 forward single #
loop $-1 $126 $127 $49 #
cone-surface $-1 -67.962440002711048 28.969738867471136 10.818171112816209 0.82903758062907751 0 -0.55919289150049634 0.27959644575024817 0 0.41451879031453875 1 I I -0.70710678118654746 0.70710678118654746 0.5 forward I I I I #
loop $-1 $-1 $128 $35 #
coedge $-1 $80 $80 $129 $130 reversed $50 $-1 #
face $-1 $-1 $131 $28 $-1 $132 forward single #
loop $-1 $133 $134 $52 #
cone-surface $-1 -67.962440002711048 35.018103494888834 10.818171112816209 0.82903758062907751 0 -0.55919289150049634 0.27959644575024817 0 0.41451879031453875 1 I I -0.70710678118654746 0.70710678118654746 0.5 forward I I I I #
loop $-1 $-1 $135 $36 #
coedge $-1 $85 $85 $136 $137 reversed $53 $-1 #
face $-1 $138 $139 $29 $-1 $140 reversed single #
loop $-1 $-1 $141 $55 #
plane-surface $-1 -8.541031861761752 31.993921181179985 127.26337383588877 0.82903758062907751 0 0.55919289150049634 0.55919289150049634 0 -0.82903758062907751 forward_v I I I I #
coedge $-1 $142 $143 $144 $145 reversed $56 $-1 #
face $-1 $-1 $146 $30 $-1 $147 forward single #
loop $-1 $148 $149 $58 #
cone-surface $-1 67.96244000271102 28.969738867471136 10.818171112816213 -0.82903758062907751 0 -0.55919289150049634 0.27959644575024817 0 -0.41451879031453875 1 I I -0.70710678118654746 0.70710678118654746 0.5 forward I I I I #
loop $-1 $-1 $150 $38 #
coedge $-1 $94 $94 $151 $152 reversed $59 $-1 #
face $-1 $-1 $153 $31 $-1 $154 forward single #
loop $-1 $155 $156 $61 #
cone-surface $-1 67.96244000271102 35.018103494888834 10.818171112816213 -0.82903758062907751 0 -0.55919289150049634 0.27959644575024817 0 -0.41451879031453875 1 I I -0.70710678118654746 0.70710678118654746 0.5 forward I I I I #
loop $-1 $-1 $157 $39 #
coedge $-1 $99 $99 $158 $159 reversed $62 $-1 #
face $-1 $160 $161 $24 $-1 $162 reversed single #
loop $-1 $-1 $163 $64 #
plane-surface $-1 0 -39.050346579833985 0 0 1 0 0 0 1 forward_v I I I I #
coedge $-1 $164 $165 $166 $167 forward $65 $-1 #
coedge $-1 $168 $67 $169 $170 forward $41 $-1 #
coedge $-1 $67 $168 $171 $172 forward $41 $-1 #
coedge $-1 $173 $174 $67 $107 reversed $175 $-1 #
edge $-1 $176 -39.050346579833985 $177 39.050346579833985 $106 $178 forward 7 unknown #
face $-1 $179 $180 $25 $-1 $181 forward single #
loop $-1 $-1 $182 $68 #
plane-surface $-1 -41.56958520433335 -33.631204060696589 0 -1 0 0 0 0 1 forward_v I I I I #
coedge $-1 $183 $184 $185 $186 forward $69 $-1 #
coedge $-1 $187 $71 $188 $189 reversed $44 $-1 #
coedge $-1 $71 $187 $190 $191 reversed $44 $-1 #
coedge $-1 $184 $183 $71 $115 reversed $69 $-1 #
edge $-1 $192 -15.887330858966852 $193 15.887330858966852 $114 $194 forward 7 unknown #
face $-1 $195 $196 $26 $-1 $197 reversed single #
loop $-1 $-1 $122 $72 #
plane-surface $-1 0 0 15.887330858966852 0 0 1 1 0 0 forward_v I I I I #
coedge $-1 $198 $199 $200 $201 reversed $73 $-1 #
coedge $-1 $121 $75 $202 $203 reversed $47 $-1 #
coedge $-1 $75 $120 $198 $204 reversed $47 $-1 #
coedge $-1 $200 $205 $75 $123 forward $117 $-1 #
edge $-1 $206 23.738665138924503 $207 29.301366181567332 $122 $208 forward 7 unknown #
loop $-1 $-1 $129 $76 #
plane-surface $-1 -72.145756401257358 31.993921181179985 7.6402871567824349 -0.82903758062907751 0 0.55919289150049634 0.55919289150049634 0 0.82903758062907751 forward_v I I I I #
loop $-1 $-1 $209 $49 #
coedge $-1 $127 $127 $128 $210 reversed $77 $-1 #
coedge $-1 $128 $128 $127 $210 forward $79 $-1 #
coedge $-1 $129 $129 $80 $130 forward $124 $-1 #
edge $-1 $211 0 $211 6.2831853071796004 $129 $212 forward 7 unknown #
loop $-1 $-1 $136 $81 #
plane-surface $-1 -72.145756401257358 31.993921181179985 7.6402871567824349 -0.82903758062907751 0 0.55919289150049634 0.55919289150049634 0 0.82903758062907751 forward_v I I I I #
loop $-1 $-1 $213 $52 #
coedge $-1 $134 $134 $135 $214 reversed $82 $-1 #
coedge $-1 $135 $135 $134 $214 forward $84 $-1 #
coedge $-1 $136 $136 $85 $137 forward $131 $-1 #
edge $-1 $215 0 $215 6.2831853071796004 $136 $216 forward 7 unknown #
face $-1 $217 $218 $29 $-1 $219 forward single #
loop $-1 $-1 $144 $86 #
plane-surface $-1 72.145756401257358 0 0 -1 0 0 0 0 1 forward_v I I I I #
coedge $-1 $220 $221 $222 $223 reversed $87 $-1 #
coedge $-1 $143 $89 $224 $225 reversed $56 $-1 #
coedge $-1 $89 $142 $220 $226 reversed $56 $-1 #
coedge $-1 $222 $227 $89 $145 forward $139 $-1 #
edge $-1 $228 88.087750190487085 $229 96.334793892671556 $144 $230 forward 7 unknown #
loop $-1 $-1 $151 $90 #
plane-surface $-1 -8.541031861761752 31.993921181179985 127.26337383588877 0.82903758062907751 0 0.55919289150049634 0.55919289150049634 0 -0.82903758062907751 forward_v I I I I #
loop $-1 $-1 $231 $58 #
coedge $-1 $149 $149 $150 $232 reversed $91 $-1 #
coedge $-1 $150 $150 $149 $232 forward $93 $-1 #
coedge $-1 $151 $151 $94 $152 forward $146 $-1 #
edge $-1 $233 0 $233 6.2831853071796004 $151 $234 forward 7 unknown #
loop $-1 $-1 $158 $95 #
plane-surface $-1 -8.541031861761752 31.993921181179985 127.26337383588877 0.82903758062907751 0 0.55919289150049634 0.55919289150049634 0 -0.82903758062907751 forward_v I I I I #
loop $-1 $-1 $235 $61 #
coedge $-1 $156 $156 $157 $236 reversed $96 $-1 #
coedge $-1 $157 $157 $156 $236 forward $98 $-1 #
coedge $-1 $158 $158 $99 $159 forward $153 $-1 #
edge $-1 $237 0 $237 6.2831853071796004 $158 $238 forward 7 unknown #
face $-1 $239 $240 $24 $-1 $241 reversed single #
loop $-1 $-1 $242 $100 #
plane-surface $-1 -72.145756401257358 0 0 1 0 0 0 0 -1 forward_v I I I I #
coedge $-1 $243 $171 $244 $245 forward $101 $-1 #
coedge $-1 $246 $103 $243 $247 forward $65 $-1 #
coedge $-1 $103 $246 $248 $249 forward $65 $-1 #
coedge $-1 $174 $173 $103 $167 reversed $175 $-1 #
edge $-1 $250 -39.050346579833985 $251 39.050346579833985 $166 $252 forward 7 unknown #
coedge $-1 $105 $104 $253 $254 forward $41 $-1 #
coedge $-1 $255 $256 $104 $170 reversed $240 $-1 #
edge $-1 $177 -72.145756401257358 $257 72.145756401257358 $169 $258 forward 7 unknown #
coedge $-1 $163 $259 $105 $172 reversed $101 $-1 #
edge $-1 $260 -72.145756401257358 $176 72.145756401257358 $171 $261 forward 7 unknown #
coedge $-1 $166 $106 $259 $262 forward $175 $-1 #
coedge $-1 $106 $166 $255 $263 reversed $175 $-1 #
loop $-1 $-1 $173 $239 #
vertex $-1 $107 $264 #
vertex $-1 $107 $265 #
straight-curve $-1 72.145756401257358 0 15.887330858966852 0 1 0 I I #
face $-1 $266 $267 $25 $-1 $268 reversed single #
loop $-1 $-1 $269 $108 #
plane-surface $-1 0 0 15.887330858966852 0 0 1 1 0 0 forward_v I I I I #
coedge $-1 $270 $271 $272 $273 reversed $109 $-1 #
coedge $-1 $114 $111 $274 $275 reversed $69 $-1 #
coedge $-1 $111 $114 $276 $277 reversed $69 $-1 #
coedge $-1 $271 $270 $111 $186 reversed $109 $-1 #
edge $-1 $278 -15.887330858966852 $279 15.887330858966852 $185 $280 forward 7 unknown #
coedge $-1 $113 $112 $281 $282 reversed $44 $-1 #
coedge $-1 $274 $283 $112 $189 forward $267 $-1 #
edge $-1 $284 -22.23474454948569 $193 -11.396459511210903 $188 $285 forward 7 unknown #
coedge $-1 $286 $276 $113 $191 forward $180 $-1 #
edge $-1 $192 11.396459511210903 $287 22.23474454948569 $190 $288 forward 7 unknown #
vertex $-1 $191 $289 #
vertex $-1 $189 $290 #
straight-curve $-1 -45.920406906956515 -28.212061541559198 0 0 0 -1 I I #
face $-1 $-1 $291 $26 $-1 $292 reversed single #
loop $-1 $-1 $293 $116 #
plane-surface $-1 0 39.050346579833985 0 0 -1 0 0 0 -1 forward_v I I I I #
coedge $-1 $294 $119 $121 $204 forward $73 $-1 #
coedge $-1 $119 $294 $293 $295 reversed $73 $-1 #
coedge $-1 $296 $122 $119 $201 forward $117 $-1 #
edge $-1 $207 8.9405351919360108 $297 23.053385989243978 $200 $298 forward 7 unknown #
coedge $-1 $299 $300 $120 $203 forward $291 $-1 #
edge $-1 $301 -36.523250553118331 $206 -28.276206850933914 $202 $302 forward 7 unknown #
edge $-1 $207 -9.9477320387895087 $301 0 $121 $303 forward 7 unknown #
coedge $-1 $122 $296 $299 $304 forward $117 $-1 #
vertex $-1 $203 $305 #
vertex $-1 $123 $306 #
straight-curve $-1 -95.884421540181862 24.937495782526003 15.887330858966855 1 0 0 I I #
coedge $-1 $209 $209 $-1 $307 reversed $126 $-1 #
edge $-1 $308 0 $308 6.2831853071796004 $127 $309 forward 7 unknown #
vertex $-1 $130 $310 #
ellipse-curve $-1 -69.364405879935944 28.969738867471136 11.763809007874642 -0.82903758062907751 0 0.55919289150049634 0.55919289150049634 0 0.82903758062907751 1 I I #
coedge $-1 $213 $213 $-1 $311 reversed $133 $-1 #
edge $-1 $312 0 $312 6.2831853071796004 $134 $313 forward 7 unknown #
vertex $-1 $137 $314 #
ellipse-curve $-1 -69.364405879935944 35.018103494888834 11.763809007874642 -0.82903758062907751 0 0.55919289150049634 0.55919289150049634 0 0.82903758062907751 1 I I #
face $-1 $-1 $315 $29 $-1 $316 reversed single #
loop $-1 $-1 $224 $138 #
plane-surface $-1 0 0 15.887330858966852 0 0 1 1 0 0 forward_v I I I I #
coedge $-1 $317 $141 $143 $226 forward $87 $-1 #
coedge $-1 $141 $317 $318 $319 reversed $87 $-1 #
coedge $-1 $320 $144 $141 $223 forward $139 $-1 #
edge $-1 $229 8.9405351919360108 $321 23.053385989243992 $222 $322 forward 7 unknown #
coedge $-1 $323 $324 $142 $225 forward $218 $-1 #
edge $-1 $325 11.042027949942181 $228 16.604728992585052 $224 $326 forward 7 unknown #
edge $-1 $229 -144.29151280251477 $325 -134.34378076372516 $143 $327 forward 7 unknown #
coedge $-1 $144 $320 $323 $328 reversed $139 $-1 #
vertex $-1 $328 $329 #
vertex $-1 $145 $330 #
straight-curve $-1 72.145756401257358 24.937495782526003 103.97508104945393 0 0 -1 I I #
coedge $-1 $231 $231 $-1 $331 reversed $148 $-1 #
edge $-1 $332 0 $332 6.2831853071796004 $149 $333 forward 7 unknown #
vertex $-1 $152 $334 #
ellipse-curve $-1 69.364405879935902 28.969738867471136 11.763809007874638 0.82903758062907751 0 0.55919289150049634 0.55919289150049634 0 -0.82903758062907751 1 I I #
coedge $-1 $235 $235 $-1 $335 reversed $155 $-1 #
edge $-1 $336 0 $336 6.2831853071796004 $156 $337 forward 7 unknown #
vertex $-1 $159 $338 #
ellipse-curve $-1 69.364405879935902 35.018103494888834 11.763809007874638 0.82903758062907751 0 0.55919289150049634 0.55919289150049634 0 -0.82903758062907751 1 I I #
face $-1 $-1 $175 $24 $-1 $339 reversed single #
loop $-1 $-1 $255 $160 #
plane-surface $-1 0 39.050346579833985 0 0 -1 0 0 0 -1 forward_v I I I I #
coedge $-1 $340 $253 $256 $341 forward $161 $-1 #
coedge $-1 $259 $163 $164 $247 reversed $101 $-1 #
coedge $-1 $253 $340 $163 $245 reversed $161 $-1 #
edge $-1 $260 -15.887330858966852 $342 15.887330858966852 $244 $343 forward 7 unknown #
coedge $-1 $165 $164 $340 $344 forward $65 $-1 #
edge $-1 $251 -72.145756401257358 $342 72.145756401257358 $243 $345 forward 7 unknown #
coedge $-1 $256 $255 $165 $249 reversed $240 $-1 #
edge $-1 $346 -72.145756401257358 $250 72.145756401257358 $248 $347 forward 7 unknown #
vertex $-1 $167 $348 #
vertex $-1 $262 $349 #
straight-curve $-1 72.145756401257358 0 -15.887330858966852 0 -1 0 I I #
coedge $-1 $242 $244 $168 $254 reversed $161 $-1 #
edge $-1 $257 -39.050346579833985 $260 39.050346579833985 $253 $350 forward 7 unknown #
coedge $-1 $248 $169 $174 $263 forward $240 $-1 #
coedge $-1 $169 $248 $242 $341 reversed $240 $-1 #
vertex $-1 $170 $351 #
straight-curve $-1 0 39.050346579833985 15.887330858966852 -1 0 0 I I #
coedge $-1 $171 $243 $173 $262 reversed $101 $-1 #
vertex $-1 $254 $352 #
straight-curve $-1 0 -39.050346579833985 15.887330858966852 1 0 0 I I #
edge $-1 $176 -15.887330858966852 $251 15.887330858966852 $173 $353 forward 7 unknown #
edge $-1 $177 -15.887330858966852 $250 15.887330858966852 $174 $354 forward 7 unknown #
point $-1 72.145756401257358 -39.050346579833985 15.887330858966852 #
point $-1 72.145756401257358 39.050346579833985 15.887330858966852 #
face $-1 $-1 $355 $25 $-1 $356 reversed single #
loop $-1 $-1 $357 $179 #
plane-surface $-1 0 0 -15.887330858966852 0 0 1 1 0 0 forward_v I I I I #
coedge $-1 $276 $286 $271 $358 forward $180 $-1 #
coedge $-1 $185 $182 $357 $359 reversed $109 $-1 #
coedge $-1 $182 $185 $269 $358 reversed $109 $-1 #
coedge $-1 $360 $361 $182 $273 forward $355 $-1 #
edge $-1 $362 -15.887330858966852 $363 15.887330858966852 $272 $364 forward 7 unknown #
coedge $-1 $357 $188 $183 $275 forward $267 $-1 #
edge $-1 $193 -24.047908879134049 $279 -19.697087176510884 $274 $365 forward 7 unknown #
coedge $-1 $190 $269 $184 $277 forward $180 $-1 #
edge $-1 $278 19.697087176510884 $192 24.047908879134049 $276 $366 forward 7 unknown #
vertex $-1 $277 $367 #
vertex $-1 $275 $368 #
straight-curve $-1 -41.56958520433335 -28.212061541559198 0 0 0 -1 I I #
coedge $-1 $361 $360 $187 $282 forward $355 $-1 #
edge $-1 $287 -15.887330858966852 $284 15.887330858966852 $281 $369 forward 7 unknown #
coedge $-1 $188 $357 $361 $370 forward $267 $-1 #
vertex $-1 $189 $371 #
straight-curve $-1 -45.920406906956515 -16.815602030348295 -15.887330858966852 0 1 0 I I #
coedge $-1 $269 $190 $360 $372 forward $180 $-1 #
vertex $-1 $372 $373 #
straight-curve $-1 -45.920406906956515 -16.815602030348295 15.887330858966852 0 -1 0 I I #
point $-1 -45.920406906956515 -28.212061541559198 15.887330858966852 #
point $-1 -45.920406906956515 -28.212061541559198 -15.887330858966852 #
loop $-1 $-1 $202 $195 #
plane-surface $-1 -72.145756401257358 0 0 1 0 0 0 0 -1 forward_v I I I I #
coedge $-1 $374 $375 $199 $295 forward $196 $-1 #
coedge $-1 $199 $198 $300 $376 reversed $73 $-1 #
edge $-1 $297 7.0569224370801038 $377 17.004654475869611 $293 $378 forward 7 unknown #
coedge $-1 $205 $200 $375 $379 forward $117 $-1 #
vertex $-1 $379 $380 #
straight-curve $-1 -66.58305535861453 15.996960590589993 15.887330858966854 0 1 0 I I #
coedge $-1 $381 $202 $205 $304 reversed $291 $-1 #
coedge $-1 $202 $381 $294 $376 forward $291 $-1 #
vertex $-1 $203 $382 #
straight-curve $-1 -72.145756401257358 24.937495782526003 44.163537709900766 0 0 1 I I #
straight-curve $-1 -72.145756401257358 24.937495782526003 7.6402871567824349 -0.55919289150049634 0 -0.82903758062907751 I I #
edge $-1 $383 -39.050346579833985 $206 -24.937495782526003 $299 $384 forward 7 unknown #
point $-1 -72.145756401257358 24.937495782526003 15.887330858966852 #
point $-1 -66.58305535861453 24.937495782526003 15.887330858966852 #
edge $-1 $385 1 $385 0 $209 $-1 forward 7 unknown #
vertex $-1 $210 $386 #
ellipse-curve $-1 -68.376958793025594 28.969738867471136 11.097767558566458 -0.82903758062907751 0 0.55919289150049634 0.55919289150049634 0 0.82903758062907751 1 I I #
point $-1 -68.805212988435443 28.969738867471136 12.592846588503724 #
edge $-1 $387 1 $387 0 $213 $-1 forward 7 unknown #
vertex $-1 $214 $388 #
ellipse-curve $-1 -68.376958793025594 35.018103494888834 11.097767558566458 -0.82903758062907751 0 0.55919289150049634 0.55919289150049634 0 0.82903758062907751 1 I I #
point $-1 -68.805212988435443 35.018103494888834 12.592846588503724 #
loop $-1 $-1 $318 $217 #
plane-surface $-1 0 39.050346579833985 0 0 -1 0 0 0 -1 forward_v I I I I #
coedge $-1 $221 $220 $324 $389 reversed $87 $-1 #
coedge $-1 $390 $391 $221 $319 forward $315 $-1 #
edge $-1 $321 -89.15041087712703 $392 -79.20267883833742 $318 $393 forward 7 unknown #
coedge $-1 $227 $222 $391 $394 reversed $139 $-1 #
vertex $-1 $223 $395 #
straight-curve $-1 72.145756401257358 15.996960590589993 7.6402871567823709 0 1 0 I I #
coedge $-1 $396 $224 $227 $328 forward $218 $-1 #
coedge $-1 $224 $396 $317 $389 forward $218 $-1 #
vertex $-1 $225 $397 #
straight-curve $-1 55.541027408672306 24.937495782526003 15.887330858966848 1 0 0 I I #
straight-curve $-1 -8.541031861761752 24.937495782526003 127.26337383588877 -0.55919289150049634 0 0.82903758062907751 I I #
edge $-1 $228 24.937495782526003 $398 39.050346579833985 $227 $399 forward 7 unknown #
point $-1 72.145756401257358 24.937495782526003 15.887330858966852 #
point $-1 72.145756401257358 24.937495782526003 7.640287156782378 #
edge $-1 $400 1 $400 0 $231 $-1 forward 7 unknown #
vertex $-1 $232 $401 #
ellipse-curve $-1 68.376958793025565 28.969738867471136 11.097767558566462 0.82903758062907751 0 0.55919289150049634 0.55919289150049634 0 -0.82903758062907751 1 I I #
point $-1 69.923598771436417 28.969738867471136 10.934771427245572 #
edge $-1 $402 1 $402 0 $235 $-1 forward 7 unknown #
vertex $-1 $236 $403 #
ellipse-curve $-1 68.376958793025565 35.018103494888834 11.097767558566462 0.82903758062907751 0 0.55919289150049634 0.55919289150049634 0 -0.82903758062907751 1 I I #
point $-1 69.923598771436417 35.018103494888834 10.934771427245572 #
plane-surface $-1 72.145756401257358 0 0 -1 0 0 0 0 1 forward_v I I I I #
coedge $-1 $244 $242 $246 $344 reversed $161 $-1 #
edge $-1 $257 -15.887330858966852 $346 15.887330858966852 $256 $404 forward 7 unknown #
vertex $-1 $344 $405 #
straight-curve $-1 -72.145756401257358 -39.050346579833985 0 0 0 -1 I I #
edge $-1 $342 -39.050346579833985 $346 39.050346579833985 $340 $406 forward 7 unknown #
straight-curve $-1 0 -39.050346579833985 -15.887330858966852 -1 0 0 I I #
vertex $-1 $249 $407 #
straight-curve $-1 0 39.050346579833985 -15.887330858966852 1 0 0 I I #
point $-1 72.145756401257358 39.050346579833985 -15.887330858966852 #
point $-1 72.145756401257358 -39.050346579833985 -15.887330858966852 #
straight-curve $-1 -72.145756401257358 0 15.887330858966852 0 -1 0 I I #
point $-1 -72.145756401257358 39.050346579833985 15.887330858966852 #
point $-1 -72.145756401257358 -39.050346579833985 15.887330858966852 #
straight-curve $-1 72.145756401257358 -39.050346579833985 0 0 0 -1 I I #
straight-curve $-1 72.145756401257358 39.050346579833985 0 0 0 -1 I I #
loop $-1 $-1 $272 $266 #
plane-surface $-1 0 -39.050346579833985 0 0 1 0 0 0 1 forward_v I I I I #
coedge $-1 $283 $274 $270 $359 forward $267 $-1 #
edge $-1 $363 -22.23474454948569 $278 -11.396459511210903 $269 $408 forward 7 unknown #
edge $-1 $279 11.396459511210903 $362 22.23474454948569 $357 $409 forward 7 unknown #
coedge $-1 $281 $272 $286 $372 reversed $355 $-1 #
coedge $-1 $272 $281 $283 $370 reversed $355 $-1 #
vertex $-1 $370 $410 #
vertex $-1 $273 $411 #
straight-curve $-1 -41.56958520433335 -39.050346579833985 0 0 0 1 I I #
straight-curve $-1 -21.872498027822466 -28.212061541559198 -15.887330858966852 1 0 0 I I #
straight-curve $-1 -21.872498027822466 -28.212061541559198 15.887330858966852 -1 0 0 I I #
point $-1 -41.56958520433335 -28.212061541559198 15.887330858966852 #
point $-1 -41.56958520433335 -28.212061541559198 -15.887330858966852 #
straight-curve $-1 -45.920406906956515 -39.050346579833985 0 0 0 -1 I I #
edge $-1 $362 41.56958520433335 $284 45.920406906956515 $361 $412 forward 7 unknown #
point $-1 -45.920406906956515 -39.050346579833985 -15.887330858966852 #
edge $-1 $287 -45.920406906956515 $363 -41.56958520433335 $360 $413 forward 7 unknown #
point $-1 -45.920406906956515 -39.050346579833985 15.887330858966852 #
coedge $-1 $375 $293 $381 $414 reversed $196 $-1 #
coedge $-1 $293 $374 $296 $379 reversed $196 $-1 #
edge $-1 $377 -23.053385989243978 $301 -8.9405351919360108 $300 $415 forward 7 unknown #
vertex $-1 $295 $416 #
straight-curve $-1 -62.636874495928978 39.050346579833985 21.737784762890794 -0.55919289150049634 0 -0.82903758062907751 I I #
edge $-1 $297 66.58305535861453 $383 72.145756401257358 $375 $417 forward 7 unknown #
point $-1 -66.58305535861453 39.05034657983397 15.887330858966852 #
coedge $-1 $300 $299 $374 $414 forward $291 $-1 #
point $-1 -72.145756401257358 24.937495782526003 7.6402871567824349 #
vertex $-1 $379 $418 #
straight-curve $-1 -72.145756401257358 0 15.887330858966852 0 -1 0 I I #
vertex $-1 $307 $419 #
point $-1 -67.817765901525092 28.969738867471136 11.926805139195535 #
vertex $-1 $311 $420 #
point $-1 -67.817765901525092 35.018103494888834 11.926805139195535 #
edge $-1 $392 -23.053385989243978 $325 -8.9405351919360108 $324 $421 forward 7 unknown #
coedge $-1 $391 $318 $396 $422 reversed $315 $-1 #
coedge $-1 $318 $390 $320 $394 forward $315 $-1 #
vertex $-1 $319 $423 #
straight-curve $-1 22.293480364419406 39.050346579833985 81.549328102443951 -0.55919289150049634 0 0.82903758062907751 I I #
edge $-1 $398 -15.887330858966852 $321 -7.6402871567823656 $320 $424 forward 7 unknown #
point $-1 72.145756401257358 39.050346579833985 7.6402871567823656 #
coedge $-1 $324 $323 $390 $422 forward $218 $-1 #
point $-1 66.583055358614487 24.937495782526003 15.887330858966862 #
vertex $-1 $328 $425 #
straight-curve $-1 72.145756401257358 0 15.887330858966852 0 1 0 I I #
vertex $-1 $331 $426 #
point $-1 68.936151684526052 28.969738867471136 10.268729977937383 #
vertex $-1 $335 $427 #
point $-1 68.936151684526052 35.018103494888834 10.268729977937383 #
straight-curve $-1 -72.145756401257358 39.050346579833985 0 0 0 -1 I I #
point $-1 -72.145756401257358 -39.050346579833985 -15.887330858966852 #
straight-curve $-1 -72.145756401257358 0 -15.887330858966852 0 1 0 I I #
point $-1 -72.145756401257358 39.050346579833985 -15.887330858966852 #
straight-curve $-1 -41.56958520433335 -16.815602030348295 15.887330858966852 0 1 0 I I #
straight-curve $-1 -41.56958520433335 -16.815602030348295 -15.887330858966852 0 -1 0 I I #
point $-1 -41.56958520433335 -39.050346579833985 -15.887330858966852 #
point $-1 -41.56958520433335 -39.050346579833985 15.887330858966852 #
straight-curve $-1 0 -39.050346579833985 -15.887330858966852 -1 0 0 I I #
straight-curve $-1 0 -39.050346579833985 15.887330858966852 1 0 0 I I #
edge $-1 $383 -15.887330858966852 $377 -7.6402871567824349 $374 $428 forward 7 unknown #
straight-curve $-1 -72.145756401257358 15.996960590589993 7.6402871567824446 0 -1 0 I I #
point $-1 -72.145756401257358 39.05034657983397 7.6402871567824349 #
straight-curve $-1 0 39.050346579833985 15.887330858966852 -1 0 0 I I #
point $-1 -72.145756401257358 39.050346579833985 15.887330858966852 #
point $-1 -67.547921212396503 28.969738867471136 10.53857466706596 #
point $-1 -67.547921212396503 35.018103494888834 10.53857466706596 #
straight-curve $-1 66.583055358614502 15.996960590589993 15.887330858966848 0 -1 0 I I #
edge $-1 $398 -72.145756401257358 $392 -66.583055358614487 $390 $429 forward 7 unknown #
point $-1 66.583055358614487 39.05034657983397 15.887330858966862 #
straight-curve $-1 72.145756401257358 39.050346579833985 0 0 0 -1 I I #
point $-1 72.145756401257358 39.050346579833985 15.887330858966852 #
point $-1 67.547921212396474 28.969738867471136 10.538574667065964 #
point $-1 67.547921212396474 35.018103494888834 10.538574667065964 #
straight-curve $-1 -72.145756401257358 39.050346579833985 0 0 0 -1 I I #
straight-curve $-1 0 39.050346579833985 15.887330858966852 -1 0 0 I I #
End-of-ACIS-data 