500 0 9 0           
7 Unknown 11 ACIS 5.0 NT 24 Fri Mar 26 19:47:43 1999 
-1 9.9999999999999995e-007 1e-010 
body $-1 $9 $-1 $10 #
body $-1 $11 $-1 $12 #
body $-1 $13 $-1 $14 #
body $-1 $15 $-1 $16 #
body $-1 $17 $-1 $18 #
body $-1 $19 $-1 $20 #
body $-1 $21 $-1 $22 #
body $-1 $23 $-1 $24 #
body $-1 $25 $-1 $26 #
lump $-1 $-1 $27 $0 #
transform $-1 1 0 0 0 1 0 0 0 1 68.925443281350141 34.663816412173752 8.9912017716100703 1 rotate no_reflect no_shear #
lump $-1 $-1 $28 $1 #
transform $-1 1 0 0 0 1 0 0 0 1 68.925443281350141 34.663816412173752 8.9912017716100703 1 rotate no_reflect no_shear #
lump $-1 $-1 $29 $2 #
transform $-1 1 0 0 0 1 0 0 0 1 68.925443281350141 34.663816412173752 8.9912017716100703 1 rotate no_reflect no_shear #
lump $-1 $-1 $30 $3 #
transform $-1 1 0 0 0 1 0 0 0 1 68.925443281350141 34.663816412173752 8.9912017716100703 1 rotate no_reflect no_shear #
lump $-1 $-1 $31 $4 #
transform $-1 1 0 0 0 1 0 0 0 1 68.925443281350141 34.663816412173752 8.9912017716100703 1 rotate no_reflect no_shear #
lump $-1 $-1 $32 $5 #
transform $-1 1 0 0 0 1 0 0 0 1 68.925443281350141 34.663816412173752 8.9912017716100703 1 rotate no_reflect no_shear #
lump $-1 $-1 $33 $6 #
transform $-1 1 0 0 0 1 0 0 0 1 68.925443281350141 34.663816412173752 8.9912017716100703 1 rotate no_reflect no_shear #
lump $-1 $-1 $34 $7 #
transform $-1 1 0 0 0 1 0 0 0 1 68.925443281350141 34.663816412173752 8.9912017716100703 1 rotate no_reflect no_shear #
lump $-1 $-1 $35 $8 #
transform $-1 1 0 0 0 1 0 0 0 1 68.925443281350141 34.663816412173752 8.9912017716100703 1 rotate no_reflect no_shear #
shell $-1 $-1 $-1 $36 $-1 $9 #
shell $-1 $-1 $-1 $37 $-1 $11 #
shell $-1 $-1 $-1 $38 $-1 $13 #
shell $-1 $-1 $-1 $39 $-1 $15 #
shell $-1 $-1 $-1 $40 $-1 $17 #
shell $-1 $-1 $-1 $41 $-1 $19 #
shell $-1 $-1 $-1 $42 $-1 $21 #
shell $-1 $-1 $-1 $43 $-1 $23 #
shell $-1 $-1 $-1 $44 $-1 $25 #
face $-1 $45 $46 $27 $-1 $47 forward single #
face $-1 $48 $49 $28 $-1 $50 forward single #
face $-1 $51 $52 $29 $-1 $53 reversed single #
face $-1 $54 $55 $30 $-1 $56 forward single #
face $-1 $57 $58 $31 $-1 $59 forward single #
face $-1 $60 $61 $32 $-1 $62 forward single #
face $-1 $63 $64 $33 $-1 $65 reversed single #
face $-1 $66 $67 $34 $-1 $68 forward single #
face $-1 $69 $70 $35 $-1 $71 forward single #
face $-1 $72 $73 $27 $-1 $74 reversed single #
loop $-1 $-1 $75 $36 #
plane-surface $-1 0 0 8.9912017716100703 0 0 1 1 0 0 forward_v I I I I #
face $-1 $76 $77 $28 $-1 $78 reversed single #
loop $-1 $-1 $79 $37 #
plane-surface $-1 -63.515904722254852 0 8.0223088882797828 0 0 1 1 0 0 forward_v I I I I #
face $-1 $80 $81 $29 $-1 $82 reversed single #
loop $-1 $-1 $83 $38 #
plane-surface $-1 -41.132959274538408 85.666426910372564 145.89543308227772 1 0 0 0 -0.71933980857756763 -0.69465836192734942 forward_v I I I I #
face $-1 $84 $85 $30 $-1 $86 forward single #
loop $-1 $87 $88 $39 #
cone-surface $-1 -35.748286847710887 28.322975574642566 2.5736876685091747 0 -0.71933980857756763 -0.69465836192734942 2 0 0 1 I I 0 1 2 forward I I I I #
face $-1 $89 $90 $31 $-1 $91 forward single #
loop $-1 $92 $93 $40 #
cone-surface $-1 -27.671278207469612 28.322975574642566 2.5736876685091747 0 -0.71933980857756763 -0.69465836192734942 2 0 0 1 I I 0 1 2 forward I I I I #
face $-1 $94 $95 $32 $-1 $96 forward single #
loop $-1 $97 $98 $41 #
cone-surface $-1 -19.594269567228338 28.322975574642566 2.5736876685091747 0 -0.71933980857756763 -0.69465836192734942 2 0 0 1 I I 0 1 2 forward I I I I #
face $-1 $99 $100 $33 $-1 $101 reversed single #
loop $-1 $-1 $102 $42 #
plane-surface $-1 57.84257987458443 -34.66381641217373 0.98442427864463866 0 -0.82903758062907751 0.55919289150049634 1 0 0 forward_v I I I I #
face $-1 $103 $104 $34 $-1 $105 forward single #
loop $-1 $106 $107 $43 #
cone-surface $-1 53.092781271684828 -30.548184540427677 4.0331729556169824 0 0.82903758062907751 -0.55919289150049634 2 0 0 1 I I 0 1 2 forward I I I I #
face $-1 $108 $109 $35 $-1 $110 forward single #
loop $-1 $111 $112 $44 #
cone-surface $-1 62.592378477484004 -30.548184540427677 4.0331729556169824 0 0.82903758062907751 -0.55919289150049634 2 0 0 1 I I 0 1 2 forward I I I I #
face $-1 $113 $114 $27 $-1 $115 reversed single #
loop $-1 $-1 $116 $45 #
plane-surface $-1 0 0 -8.9912017716100703 0 0 1 1 0 0 forward_v I I I I #
coedge $-1 $117 $118 $119 $120 forward $46 $-1 #
face $-1 $121 $122 $28 $-1 $123 reversed single #
loop $-1 $-1 $124 $48 #
plane-surface $-1 -63.515904722254852 0 5.0223088882797828 0 0 1 1 0 0 forward_v I I I I #
coedge $-1 $125 $126 $127 $128 forward $49 $-1 #
face $-1 $129 $130 $29 $-1 $131 reversed single #
loop $-1 $-1 $132 $51 #
plane-surface $-1 -27.671278207469612 -13.49520344188825 50.136162032399483 0 0.71933980857756763 0.69465836192734942 1 0 0 forward_v I I I I #
coedge $-1 $133 $134 $135 $136 reversed $52 $-1 #
face $-1 $-1 $137 $30 $-1 $138 forward single #
loop $-1 $139 $140 $54 #
cone-surface $-1 -35.748286847710887 25.475692195239709 -0.17590186441277034 0 -0.71933980857756763 -0.69465836192734942 1 0 0 1 I I -0.70710678118654746 0.70710678118654746 1 forward I I I I #
loop $-1 $-1 $141 $39 #
coedge $-1 $88 $88 $142 $143 reversed $55 $-1 #
face $-1 $-1 $144 $31 $-1 $145 forward single #
loop $-1 $146 $147 $57 #
cone-surface $-1 -27.671278207469612 25.475692195239709 -0.17590186441277034 0 -0.71933980857756763 -0.69465836192734942 1 0 0 1 I I -0.70710678118654746 0.70710678118654746 1 forward I I I I #
loop $-1 $-1 $148 $40 #
coedge $-1 $93 $93 $149 $150 reversed $58 $-1 #
face $-1 $-1 $151 $32 $-1 $152 forward single #
loop $-1 $153 $154 $60 #
cone-surface $-1 -19.594269567228338 25.475692195239709 -0.17590186441277034 0 -0.71933980857756763 -0.69465836192734942 1 0 0 1 I I -0.70710678118654746 0.70710678118654746 1 forward I I I I #
loop $-1 $-1 $155 $41 #
coedge $-1 $98 $98 $156 $157 reversed $61 $-1 #
face $-1 $158 $159 $33 $-1 $160 reversed single #
loop $-1 $-1 $161 $63 #
plane-surface $-1 46.759716467818713 -148.94738189568818 78.06966013154792 1 0 0 0 0.82903758062907751 -0.55919289150049634 forward_v I I I I #
coedge $-1 $162 $163 $164 $165 reversed $64 $-1 #
face $-1 $-1 $166 $34 $-1 $167 forward single #
loop $-1 $168 $169 $66 #
cone-surface $-1 53.092781271684828 -28.303834809683849 2.519339994606117 0 0.82903758062907751 -0.55919289150049634 1 0 0 1 I I -0.70710678118654746 0.70710678118654746 1 forward I I I I #
loop $-1 $-1 $170 $43 #
coedge $-1 $107 $107 $171 $172 reversed $67 $-1 #
face $-1 $-1 $173 $35 $-1 $174 forward single #
loop $-1 $175 $176 $69 #
cone-surface $-1 62.592378477484004 -28.303834809683849 2.519339994606117 0 0.82903758062907751 -0.55919289150049634 1 0 0 1 I I -0.70710678118654746 0.70710678118654746 1 forward I I I I #
loop $-1 $-1 $177 $44 #
coedge $-1 $112 $112 $178 $179 reversed $70 $-1 #
face $-1 $180 $181 $27 $-1 $182 reversed single #
loop $-1 $-1 $183 $72 #
plane-surface $-1 0 -34.663816412173752 0 0 1 0 0 0 1 forward_v I I I I #
coedge $-1 $184 $185 $186 $187 forward $73 $-1 #
coedge $-1 $188 $75 $189 $190 forward $46 $-1 #
coedge $-1 $75 $188 $191 $192 forward $46 $-1 #
coedge $-1 $193 $194 $75 $120 reversed $195 $-1 #
edge $-1 $196 -34.663816412173752 $197 34.663816412173752 $119 $198 forward 7 unknown #
face $-1 $199 $200 $28 $-1 $201 reversed single #
loop $-1 $-1 $202 $76 #
plane-surface $-1 -58.106366163159564 0 6.5223088882797828 -1 0 0 0 0 1 forward_v I I I I #
coedge $-1 $203 $204 $205 $206 forward $77 $-1 #
coedge $-1 $207 $79 $208 $209 reversed $49 $-1 #
coedge $-1 $79 $207 $210 $211 reversed $49 $-1 #
coedge $-1 $202 $212 $79 $128 reversed $122 $-1 #
edge $-1 $213 -34.663816412173752 $214 34.663816412173752 $127 $215 forward 7 unknown #
face $-1 $216 $217 $29 $-1 $218 forward single #
loop $-1 $-1 $219 $80 #
plane-surface $-1 -14.209597140400819 85.666426910372564 145.89543308227772 -1 0 0 0 0.71933980857756763 0.69465836192734942 forward_v I I I I #
coedge $-1 $220 $221 $222 $223 reversed $81 $-1 #
coedge $-1 $134 $83 $224 $225 reversed $52 $-1 #
coedge $-1 $83 $133 $220 $226 reversed $52 $-1 #
coedge $-1 $222 $227 $83 $136 forward $217 $-1 #
edge $-1 $228 8.1693970430125304 $229 16.595191576424362 $135 $230 forward 7 unknown #
loop $-1 $-1 $142 $84 #
plane-surface $-1 -27.671278207469612 -13.49520344188825 50.136162032399483 0 0.71933980857756763 0.69465836192734942 1 0 0 forward_v I I I I #
loop $-1 $-1 $231 $54 #
coedge $-1 $140 $140 $141 $232 reversed $85 $-1 #
coedge $-1 $141 $141 $140 $232 forward $87 $-1 #
coedge $-1 $142 $142 $88 $143 forward $137 $-1 #
edge $-1 $233 -5.3866633002194473e-016 $233 6.2831853071795996 $142 $234 forward 7 unknown #
loop $-1 $-1 $149 $89 #
plane-surface $-1 -27.671278207469612 -13.49520344188825 50.136162032399483 0 0.71933980857756763 0.69465836192734942 1 0 0 forward_v I I I I #
loop $-1 $-1 $235 $57 #
coedge $-1 $147 $147 $148 $236 reversed $90 $-1 #
coedge $-1 $148 $148 $147 $236 forward $92 $-1 #
coedge $-1 $149 $149 $93 $150 forward $144 $-1 #
edge $-1 $237 -5.3866633002194473e-016 $237 6.2831853071795996 $149 $238 forward 7 unknown #
loop $-1 $-1 $156 $94 #
plane-surface $-1 -27.671278207469612 -13.49520344188825 50.136162032399483 0 0.71933980857756763 0.69465836192734942 1 0 0 forward_v I I I I #
loop $-1 $-1 $239 $60 #
coedge $-1 $154 $154 $155 $240 reversed $95 $-1 #
coedge $-1 $155 $155 $154 $240 forward $97 $-1 #
coedge $-1 $156 $156 $98 $157 forward $151 $-1 #
edge $-1 $241 -5.3866633002194473e-016 $241 6.2831853071795996 $156 $242 forward 7 unknown #
face $-1 $243 $244 $33 $-1 $245 forward single #
loop $-1 $-1 $246 $99 #
plane-surface $-1 0 -34.663816412173752 0 0 1 0 0 0 1 forward_v I I I I #
coedge $-1 $247 $248 $249 $250 reversed $100 $-1 #
coedge $-1 $251 $102 $252 $253 reversed $64 $-1 #
coedge $-1 $102 $251 $247 $254 forward $64 $-1 #
coedge $-1 $249 $255 $102 $165 forward $244 $-1 #
edge $-1 $256 -40.004153344057926 $257 -17.838426530526498 $164 $258 forward 7 unknown #
loop $-1 $-1 $171 $103 #
plane-surface $-1 57.84257987458443 -34.66381641217373 0.98442427864463866 0 -0.82903758062907751 0.55919289150049634 1 0 0 forward_v I I I I #
loop $-1 $-1 $259 $66 #
coedge $-1 $169 $169 $170 $260 reversed $104 $-1 #
coedge $-1 $170 $170 $169 $260 forward $106 $-1 #
coedge $-1 $171 $171 $107 $172 forward $166 $-1 #
edge $-1 $261 3.3352144497544491e-016 $261 6.2831853071796004 $171 $262 forward 7 unknown #
loop $-1 $-1 $178 $108 #
plane-surface $-1 57.84257987458443 -34.66381641217373 0.98442427864463866 0 -0.82903758062907751 0.55919289150049634 1 0 0 forward_v I I I I #
loop $-1 $-1 $263 $69 #
coedge $-1 $176 $176 $177 $264 reversed $109 $-1 #
coedge $-1 $177 $177 $176 $264 forward $111 $-1 #
coedge $-1 $178 $178 $112 $179 forward $173 $-1 #
edge $-1 $265 3.3352144497544491e-016 $265 6.2831853071796004 $178 $266 forward 7 unknown #
face $-1 $267 $268 $27 $-1 $269 reversed single #
loop $-1 $-1 $270 $113 #
plane-surface $-1 -68.925443281350141 0 0 1 0 0 0 0 -1 forward_v I I I I #
coedge $-1 $271 $191 $272 $273 forward $114 $-1 #
coedge $-1 $274 $116 $271 $275 forward $73 $-1 #
coedge $-1 $116 $274 $276 $277 forward $73 $-1 #
coedge $-1 $194 $193 $116 $187 reversed $195 $-1 #
edge $-1 $278 -34.663816412173752 $279 34.663816412173752 $186 $280 forward 7 unknown #
coedge $-1 $118 $117 $281 $282 forward $46 $-1 #
coedge $-1 $283 $284 $117 $190 reversed $268 $-1 #
edge $-1 $197 -68.925443281350141 $285 68.925443281350141 $189 $286 forward 7 unknown #
coedge $-1 $183 $287 $118 $192 reversed $114 $-1 #
edge $-1 $288 -68.925443281350141 $196 68.925443281350141 $191 $289 forward 7 unknown #
coedge $-1 $186 $119 $287 $290 forward $195 $-1 #
coedge $-1 $119 $186 $283 $291 reversed $195 $-1 #
loop $-1 $-1 $193 $267 #
vertex $-1 $120 $292 #
vertex $-1 $120 $293 #
straight-curve $-1 68.925443281350141 0 8.9912017716100703 0 1 0 I I #
face $-1 $294 $295 $28 $-1 $296 reversed single #
loop $-1 $-1 $297 $121 #
plane-surface $-1 0 -34.663816412173752 0 0 1 0 0 0 1 forward_v I I I I #
coedge $-1 $205 $127 $298 $299 reversed $122 $-1 #
coedge $-1 $300 $124 $297 $301 reversed $77 $-1 #
coedge $-1 $124 $300 $302 $303 reversed $77 $-1 #
coedge $-1 $212 $202 $124 $206 reversed $122 $-1 #
edge $-1 $304 -34.663816412173752 $305 34.663816412173752 $205 $306 forward 7 unknown #
coedge $-1 $126 $125 $307 $308 reversed $49 $-1 #
coedge $-1 $309 $310 $125 $209 forward $311 $-1 #
edge $-1 $312 -37.167490920222718 $214 -26.348413802032137 $208 $313 forward 7 unknown #
coedge $-1 $314 $298 $126 $211 forward $200 $-1 #
edge $-1 $213 26.348413802032137 $315 37.167490920222718 $210 $316 forward 7 unknown #
coedge $-1 $127 $205 $309 $317 reversed $122 $-1 #
vertex $-1 $211 $318 #
vertex $-1 $209 $319 #
straight-curve $-1 -58.106366163159564 0 8.0223088882797828 0 1 0 I I #
face $-1 $-1 $320 $29 $-1 $321 reversed single #
loop $-1 $-1 $135 $129 #
plane-surface $-1 0 0 8.9912017716100703 0 0 1 1 0 0 forward_v I I I I #
coedge $-1 $322 $323 $324 $325 reversed $130 $-1 #
coedge $-1 $326 $132 $134 $226 forward $81 $-1 #
coedge $-1 $132 $326 $322 $327 forward $81 $-1 #
coedge $-1 $324 $135 $132 $223 forward $217 $-1 #
edge $-1 $229 -27.297320170803602 $328 -0.37395803666601246 $222 $329 forward 7 unknown #
coedge $-1 $330 $331 $133 $225 forward $320 $-1 #
edge $-1 $332 -72.681680633741422 $228 -63.956514769528788 $224 $333 forward 7 unknown #
edge $-1 $229 57.198225053261012 $332 69.327632824347532 $134 $334 forward 7 unknown #
coedge $-1 $135 $324 $330 $335 forward $217 $-1 #
vertex $-1 $225 $336 #
vertex $-1 $136 $337 #
straight-curve $-1 -41.132959274538408 42.833213455186282 8.991201771610065 0 -1 0 I I #
coedge $-1 $231 $231 $-1 $338 reversed $139 $-1 #
edge $-1 $339 0 $339 6.2831853071796004 $140 $340 forward 7 unknown #
vertex $-1 $143 $341 #
ellipse-curve $-1 -35.748286847710887 30.450919145467836 4.6286188395037513 0 0.71933980857756763 0.69465836192734942 2 0 0 1 I I #
coedge $-1 $235 $235 $-1 $342 reversed $146 $-1 #
edge $-1 $343 0 $343 6.2831853071796004 $147 $344 forward 7 unknown #
vertex $-1 $150 $345 #
ellipse-curve $-1 -27.671278207469612 30.450919145467836 4.6286188395037513 0 0.71933980857756763 0.69465836192734942 2 0 0 1 I I #
coedge $-1 $239 $239 $-1 $346 reversed $153 $-1 #
edge $-1 $347 0 $347 6.2831853071796004 $154 $348 forward 7 unknown #
vertex $-1 $157 $349 #
ellipse-curve $-1 -19.594269567228338 30.450919145467836 4.6286188395037513 0 0.71933980857756763 0.69465836192734942 2 0 0 1 I I #
face $-1 $-1 $350 $33 $-1 $351 reversed single #
loop $-1 $-1 $249 $158 #
plane-surface $-1 0 0 8.9912017716100703 0 0 1 1 0 0 forward_v I I I I #
coedge $-1 $352 $353 $248 $354 forward $159 $-1 #
coedge $-1 $248 $161 $163 $254 reversed $100 $-1 #
coedge $-1 $161 $247 $246 $354 reversed $100 $-1 #
coedge $-1 $355 $164 $161 $250 forward $244 $-1 #
edge $-1 $257 -45.210513978933008 $356 -39.809874535670339 $249 $357 forward 7 unknown #
coedge $-1 $163 $162 $352 $358 reversed $64 $-1 #
coedge $-1 $359 $360 $162 $253 forward $350 $-1 #
edge $-1 $361 -9.2838175038428936 $256 0.37410112379022664 $252 $362 forward 7 unknown #
edge $-1 $363 -3.8151786801708093e-014 $257 9.657918627633082 $247 $364 forward 7 unknown #
coedge $-1 $164 $355 $359 $365 forward $244 $-1 #
vertex $-1 $253 $366 #
vertex $-1 $165 $367 #
straight-curve $-1 28.921289937292215 -29.263176968911086 8.9912017716100703 -1 0 0 I I #
coedge $-1 $259 $259 $-1 $368 reversed $168 $-1 #
edge $-1 $369 0 $369 6.2831853071796004 $169 $370 forward 7 unknown #
vertex $-1 $172 $371 #
ellipse-curve $-1 53.092781271684828 -31.963496690542414 4.9878130251273438 0 -0.82903758062907751 0.55919289150049634 2 0 0 1 I I #
coedge $-1 $263 $263 $-1 $372 reversed $175 $-1 #
edge $-1 $373 0 $373 6.2831853071796004 $176 $374 forward 7 unknown #
vertex $-1 $179 $375 #
ellipse-curve $-1 62.592378477484004 -31.963496690542414 4.9878130251273438 0 -0.82903758062907751 0.55919289150049634 2 0 0 1 I I #
face $-1 $-1 $195 $27 $-1 $376 reversed single #
loop $-1 $-1 $283 $180 #
plane-surface $-1 0 34.663816412173752 0 0 -1 0 0 0 -1 forward_v I I I I #
coedge $-1 $377 $281 $284 $378 forward $181 $-1 #
coedge $-1 $287 $183 $184 $275 reversed $114 $-1 #
coedge $-1 $281 $377 $183 $273 reversed $181 $-1 #
edge $-1 $288 -8.9912017716100703 $379 8.9912017716100703 $272 $380 forward 7 unknown #
coedge $-1 $185 $184 $377 $381 forward $73 $-1 #
edge $-1 $279 -68.925443281350141 $379 68.925443281350141 $271 $382 forward 7 unknown #
coedge $-1 $284 $283 $185 $277 reversed $268 $-1 #
edge $-1 $383 -68.925443281350141 $278 68.925443281350141 $276 $384 forward 7 unknown #
vertex $-1 $187 $385 #
vertex $-1 $290 $386 #
straight-curve $-1 68.925443281350141 0 -8.9912017716100703 0 -1 0 I I #
coedge $-1 $270 $272 $188 $282 reversed $181 $-1 #
edge $-1 $285 -34.663816412173752 $288 34.663816412173752 $281 $387 forward 7 unknown #
coedge $-1 $276 $189 $194 $291 forward $268 $-1 #
coedge $-1 $189 $276 $270 $378 reversed $268 $-1 #
vertex $-1 $190 $388 #
straight-curve $-1 0 34.663816412173752 8.9912017716100703 -1 0 0 I I #
coedge $-1 $191 $271 $193 $290 reversed $114 $-1 #
vertex $-1 $282 $389 #
straight-curve $-1 0 -34.663816412173752 8.9912017716100703 1 0 0 I I #
edge $-1 $196 -8.9912017716100703 $279 8.9912017716100703 $193 $390 forward 7 unknown #
edge $-1 $197 -8.9912017716100703 $278 8.9912017716100703 $194 $391 forward 7 unknown #
point $-1 68.925443281350141 -34.663816412173752 8.9912017716100703 #
point $-1 68.925443281350141 34.663816412173752 8.9912017716100703 #
face $-1 $-1 $311 $28 $-1 $392 reversed single #
loop $-1 $-1 $393 $199 #
plane-surface $-1 -68.925443281350141 0 0 1 0 0 0 0 -1 forward_v I I I I #
coedge $-1 $298 $314 $203 $301 forward $200 $-1 #
coedge $-1 $210 $297 $202 $299 forward $200 $-1 #
edge $-1 $305 1.7611544441398914 $213 4.7611544441398914 $298 $394 forward 7 unknown #
coedge $-1 $204 $203 $393 $395 reversed $77 $-1 #
edge $-1 $396 -37.167490920222718 $305 -26.348413802032137 $297 $397 forward 7 unknown #
coedge $-1 $310 $309 $204 $303 forward $311 $-1 #
edge $-1 $304 26.348413802032137 $398 37.167490920222718 $302 $399 forward 7 unknown #
vertex $-1 $303 $400 #
vertex $-1 $301 $401 #
straight-curve $-1 -58.106366163159564 0 5.0223088882797828 0 -1 0 I I #
coedge $-1 $402 $403 $207 $308 forward $295 $-1 #
edge $-1 $315 -34.663816412173752 $312 34.663816412173752 $307 $404 forward 7 unknown #
coedge $-1 $302 $208 $212 $317 forward $311 $-1 #
coedge $-1 $208 $302 $402 $405 reversed $311 $-1 #
loop $-1 $-1 $302 $294 #
vertex $-1 $405 $406 #
straight-curve $-1 -31.757952361127426 34.663816412173752 8.0223088882797828 1 0 0 I I #
coedge $-1 $297 $210 $403 $407 forward $200 $-1 #
vertex $-1 $407 $408 #
straight-curve $-1 -31.757952361127426 -34.663816412173752 8.0223088882797828 -1 0 0 I I #
edge $-1 $214 -4.7611544441398914 $304 -1.7611544441398914 $309 $409 forward 7 unknown #
point $-1 -58.106366163159564 -34.663816412173752 8.0223088882797828 #
point $-1 -58.106366163159564 34.663816412173752 8.0223088882797828 #
loop $-1 $-1 $224 $216 #
plane-surface $-1 0 34.663816412173752 0 0 -1 0 0 0 -1 forward_v I I I I #
coedge $-1 $323 $219 $221 $327 reversed $130 $-1 #
coedge $-1 $219 $322 $410 $411 reversed $130 $-1 #
coedge $-1 $227 $222 $219 $325 forward $217 $-1 #
edge $-1 $328 -16.595191576424362 $412 -8.1693970430125304 $324 $413 forward 7 unknown #
coedge $-1 $221 $220 $331 $414 reversed $81 $-1 #
edge $-1 $415 -69.327632824347532 $328 -57.198225053261012 $322 $416 forward 7 unknown #
vertex $-1 $223 $417 #
straight-curve $-1 -13.835639103734806 26.23802187876192 8.9912017716100756 1 0 0 I I #
coedge $-1 $410 $224 $227 $335 reversed $320 $-1 #
coedge $-1 $224 $410 $326 $414 forward $320 $-1 #
vertex $-1 $225 $418 #
straight-curve $-1 -41.132959274538408 34.663816412173752 72.94771654113886 0 0 1 I I #
straight-curve $-1 -41.132959274538408 -13.49520344188825 50.136162032399483 0 0.69465836192734942 -0.71933980857756763 I I #
edge $-1 $412 14.209597140400819 $228 41.132959274538408 $330 $419 forward 7 unknown #
point $-1 -41.132959274538408 34.663816412173752 8.9912017716100703 #
point $-1 -41.132959274538408 26.23802187876192 8.9912017716100721 #
edge $-1 $420 1 $420 0 $231 $-1 forward 7 unknown #
vertex $-1 $232 $421 #
ellipse-curve $-1 -35.748286847710887 26.195032003817278 0.51875649751457908 0 0.71933980857756763 0.69465836192734942 2 0 0 1 I I #
point $-1 -33.748286847710887 30.450919145467854 4.62861883950377 #
edge $-1 $422 1 $422 0 $235 $-1 forward 7 unknown #
vertex $-1 $236 $423 #
ellipse-curve $-1 -27.671278207469612 26.195032003817278 0.51875649751457908 0 0.71933980857756763 0.69465836192734942 2 0 0 1 I I #
point $-1 -25.671278207469612 30.450919145467854 4.62861883950377 #
edge $-1 $424 1 $424 0 $239 $-1 forward 7 unknown #
vertex $-1 $240 $425 #
ellipse-curve $-1 -19.594269567228338 26.195032003817278 0.51875649751457908 0 0.71933980857756763 0.69465836192734942 2 0 0 1 I I #
point $-1 -17.594269567228338 30.450919145467854 4.62861883950377 #
loop $-1 $-1 $252 $243 #
plane-surface $-1 68.925443281350141 0 0 -1 0 0 0 0 1 forward_v I I I I #
coedge $-1 $426 $246 $251 $358 forward $159 $-1 #
coedge $-1 $246 $426 $355 $427 reversed $159 $-1 #
edge $-1 $356 30.043628294163888 $363 38.05040578712935 $246 $428 forward 7 unknown #
coedge $-1 $255 $249 $353 $427 forward $244 $-1 #
vertex $-1 $427 $429 #
straight-curve $-1 46.759716467818713 -74.473690947844091 8.9912017716100721 0 -1 0 I I #
edge $-1 $363 17.838426530526498 $361 40.004153344057926 $352 $430 forward 7 unknown #
coedge $-1 $360 $252 $255 $365 reversed $350 $-1 #
coedge $-1 $252 $359 $426 $431 forward $350 $-1 #
vertex $-1 $358 $432 #
straight-curve $-1 68.925443281350141 -29.472371658036927 8.6810578810324035 0 0.55919289150049634 0.82903758062907751 I I #
vertex $-1 $358 $433 #
straight-curve $-1 46.759716467818713 -34.66381641217373 0.98442427864463866 0 0.55919289150049634 0.82903758062907751 I I #
edge $-1 $434 -34.663816412173752 $256 -29.263176968911083 $359 $435 forward 7 unknown #
point $-1 68.925443281350141 -29.263176968911083 8.9912017716100703 #
point $-1 46.759716467818713 -29.263176968911083 8.9912017716100703 #
edge $-1 $436 1 $436 0 $259 $-1 forward 7 unknown #
vertex $-1 $260 $437 #
ellipse-curve $-1 53.092781271684828 -29.132872390312926 3.0785328861066135 0 -0.82903758062907751 0.55919289150049634 2 0 0 1 I I #
point $-1 55.092781271684828 -31.963496690542424 4.9878130251273518 #
edge $-1 $438 1 $438 0 $263 $-1 forward 7 unknown #
vertex $-1 $264 $439 #
ellipse-curve $-1 62.592378477484004 -29.132872390312926 3.0785328861066135 0 -0.82903758062907751 0.55919289150049634 2 0 0 1 I I #
point $-1 64.592378477484004 -31.963496690542424 4.9878130251273518 #
plane-surface $-1 68.925443281350141 0 0 -1 0 0 0 0 1 forward_v I I I I #
coedge $-1 $272 $270 $274 $381 reversed $181 $-1 #
edge $-1 $285 -8.9912017716100703 $383 8.9912017716100703 $284 $440 forward 7 unknown #
vertex $-1 $381 $441 #
straight-curve $-1 -68.925443281350141 -34.663816412173752 0 0 0 -1 I I #
edge $-1 $379 -34.663816412173752 $383 34.663816412173752 $377 $442 forward 7 unknown #
straight-curve $-1 0 -34.663816412173752 -8.9912017716100703 -1 0 0 I I #
vertex $-1 $277 $443 #
straight-curve $-1 0 34.663816412173752 -8.9912017716100703 1 0 0 I I #
point $-1 68.925443281350141 34.663816412173752 -8.9912017716100703 #
point $-1 68.925443281350141 -34.663816412173752 -8.9912017716100703 #
straight-curve $-1 -68.925443281350141 0 8.9912017716100703 0 -1 0 I I #
point $-1 -68.925443281350141 34.663816412173752 8.9912017716100703 #
point $-1 -68.925443281350141 -34.663816412173752 8.9912017716100703 #
straight-curve $-1 68.925443281350141 -34.663816412173752 0 0 0 -1 I I #
straight-curve $-1 68.925443281350141 34.663816412173752 0 0 0 -1 I I #
plane-surface $-1 0 34.663816412173752 0 0 -1 0 0 0 -1 forward_v I I I I #
coedge $-1 $403 $402 $300 $395 forward $295 $-1 #
straight-curve $-1 -58.106366163159564 -34.663816412173752 3.2611544441398914 0 0 1 I I #
edge $-1 $398 -34.663816412173752 $396 34.663816412173752 $393 $444 forward 7 unknown #
vertex $-1 $301 $445 #
straight-curve $-1 -31.757952361127426 -34.663816412173752 5.0223088882797828 1 0 0 I I #
vertex $-1 $303 $446 #
straight-curve $-1 -31.757952361127426 34.663816412173752 5.0223088882797828 -1 0 0 I I #
point $-1 -58.106366163159564 34.663816412173752 5.0223088882797828 #
point $-1 -58.106366163159564 -34.663816412173752 5.0223088882797828 #
coedge $-1 $393 $307 $310 $405 forward $295 $-1 #
coedge $-1 $307 $393 $314 $407 reversed $295 $-1 #
straight-curve $-1 -68.925443281350141 0 8.0223088882797828 0 1 0 I I #
edge $-1 $312 -8.0223088882797828 $398 -5.0223088882797828 $310 $447 forward 7 unknown #
point $-1 -68.925443281350141 34.663816412173752 8.0223088882797828 #
edge $-1 $315 -8.0223088882797828 $396 -5.0223088882797828 $403 $448 forward 7 unknown #
point $-1 -68.925443281350141 -34.663816412173752 8.0223088882797828 #
straight-curve $-1 -58.106366163159564 34.663816412173752 3.2611544441398914 0 0 -1 I I #
coedge $-1 $331 $330 $323 $411 forward $320 $-1 #
edge $-1 $412 63.956514769528788 $415 72.681680633741422 $410 $449 forward 7 unknown #
vertex $-1 $335 $450 #
straight-curve $-1 -14.209597140400819 42.833213455186282 8.991201771610065 0 1 0 I I #
edge $-1 $415 0.37395803666601246 $332 27.297320170803602 $331 $451 forward 7 unknown #
vertex $-1 $414 $452 #
straight-curve $-1 -14.209597140400819 -13.49520344188825 50.136162032399483 0 -0.69465836192734942 0.71933980857756763 I I #
point $-1 -14.209597140400819 26.23802187876192 8.9912017716100721 #
point $-1 -41.132959274538408 34.663816412173745 0.26603590739743765 #
straight-curve $-1 0 34.663816412173752 8.9912017716100703 -1 0 0 I I #
vertex $-1 $338 $453 #
point $-1 -33.748286847710887 26.195032003817278 0.51875649751457908 #
vertex $-1 $342 $454 #
point $-1 -25.671278207469612 26.195032003817278 0.51875649751457908 #
vertex $-1 $346 $455 #
point $-1 -17.594269567228338 26.195032003817278 0.51875649751457908 #
coedge $-1 $353 $352 $360 $431 reversed $159 $-1 #
edge $-1 $356 46.759716467818713 $434 68.925443281350141 $353 $456 forward 7 unknown #
straight-curve $-1 46.759716467818713 -34.663816412173752 39.03483006577396 0 0 -1 I I #
point $-1 46.759716467818713 -34.663816412173752 8.9912017716100703 #
straight-curve $-1 28.921289937292215 -34.663816412173752 0.98442427864461624 1 0 0 I I #
edge $-1 $434 -8.9912017716100703 $361 -0.98442427864460702 $360 $457 forward 7 unknown #
point $-1 68.925443281350141 -34.663816412173752 0.98442427864460702 #
point $-1 46.759716467818713 -34.663816412173752 0.98442427864460702 #
vertex $-1 $365 $458 #
straight-curve $-1 68.925443281350141 0 8.9912017716100703 0 1 0 I I #
vertex $-1 $368 $459 #
point $-1 55.092781271684828 -29.132872390312926 3.0785328861066135 #
vertex $-1 $372 $460 #
point $-1 64.592378477484004 -29.132872390312926 3.0785328861066135 #
straight-curve $-1 -68.925443281350141 34.663816412173752 0 0 0 -1 I I #
point $-1 -68.925443281350141 -34.663816412173752 -8.9912017716100703 #
straight-curve $-1 -68.925443281350141 0 -8.9912017716100703 0 1 0 I I #
point $-1 -68.925443281350141 34.663816412173752 -8.9912017716100703 #
straight-curve $-1 -68.925443281350141 0 5.0223088882797828 0 -1 0 I I #
point $-1 -68.925443281350141 -34.663816412173752 5.0223088882797828 #
point $-1 -68.925443281350141 34.663816412173752 5.0223088882797828 #
straight-curve $-1 -68.925443281350141 34.663816412173752 0 0 0 -1 I I #
straight-curve $-1 -68.925443281350141 -34.663816412173752 0 0 0 -1 I I #
straight-curve $-1 -14.209597140400819 34.663816412173752 72.94771654113886 0 0 -1 I I #
point $-1 -14.209597140400819 34.663816412173752 8.9912017716100703 #
straight-curve $-1 -13.835639103734806 34.663816412173752 0.26603590739743055 -1 0 0 I I #
point $-1 -14.209597140400819 34.663816412173745 0.26603590739743765 #
point $-1 -35.748286847710887 24.75635238666214 -0.87056022634011976 #
point $-1 -27.671278207469612 24.75635238666214 -0.87056022634011976 #
point $-1 -19.594269567228338 24.75635238666214 -0.87056022634011976 #
straight-curve $-1 0 -34.663816412173752 8.9912017716100703 1 0 0 I I #
straight-curve $-1 68.925443281350141 -34.663816412173752 0 0 0 -1 I I #
point $-1 68.925443281350141 -34.663816412173752 8.9912017716100703 #
point $-1 53.092781271684828 -27.474797229054772 1.9601471031056206 #
point $-1 62.592378477484004 -27.474797229054772 1.9601471031056206 #
End-of-ACIS-data 