500 0 9 0           
7 Unknown 11 ACIS 5.0 NT 24 Fri Mar 26 15:56:32 1999 
-1 9.9999999999999995e-007 1e-010 
body $-1 $9 $-1 $10 #
body $-1 $11 $-1 $12 #
body $-1 $13 $-1 $14 #
body $-1 $15 $-1 $16 #
body $-1 $17 $-1 $18 #
body $-1 $19 $-1 $20 #
body $-1 $21 $-1 $22 #
body $-1 $23 $-1 $24 #
body $-1 $25 $-1 $26 #
lump $-1 $-1 $27 $0 #
transform $-1 1 0 0 0 1 0 0 0 1 53.541673024689473 24.698092219860879 6.8363523305671627 1 rotate no_reflect no_shear #
lump $-1 $-1 $28 $1 #
transform $-1 1 0 0 0 1 0 0 0 1 53.541673024689473 24.698092219860879 6.8363523305671627 1 rotate no_reflect no_shear #
lump $-1 $-1 $29 $2 #
transform $-1 1 0 0 0 1 0 0 0 1 53.541673024689473 24.698092219860879 6.8363523305671627 1 rotate no_reflect no_shear #
lump $-1 $-1 $30 $3 #
transform $-1 1 0 0 0 1 0 0 0 1 53.541673024689473 24.698092219860879 6.8363523305671627 1 rotate no_reflect no_shear #
lump $-1 $-1 $31 $4 #
transform $-1 1 0 0 0 1 0 0 0 1 53.541673024689473 24.698092219860879 6.8363523305671627 1 rotate no_reflect no_shear #
lump $-1 $-1 $32 $5 #
transform $-1 1 0 0 0 1 0 0 0 1 53.541673024689473 24.698092219860879 6.8363523305671627 1 rotate no_reflect no_shear #
lump $-1 $-1 $33 $6 #
transform $-1 1 0 0 0 1 0 0 0 1 53.541673024689473 24.698092219860879 6.8363523305671627 1 rotate no_reflect no_shear #
lump $-1 $-1 $34 $7 #
transform $-1 1 0 0 0 1 0 0 0 1 53.541673024689473 24.698092219860879 6.8363523305671627 1 rotate no_reflect no_shear #
lump $-1 $-1 $35 $8 #
transform $-1 1 0 0 0 1 0 0 0 1 53.541673024689473 24.698092219860879 6.8363523305671627 1 rotate no_reflect no_shear #
shell $-1 $-1 $-1 $36 $-1 $9 #
shell $-1 $-1 $-1 $37 $-1 $11 #
shell $-1 $-1 $-1 $38 $-1 $13 #
shell $-1 $-1 $-1 $39 $-1 $15 #
shell $-1 $-1 $-1 $40 $-1 $17 #
shell $-1 $-1 $-1 $41 $-1 $19 #
shell $-1 $-1 $-1 $42 $-1 $21 #
shell $-1 $-1 $-1 $43 $-1 $23 #
shell $-1 $-1 $-1 $44 $-1 $25 #
face $-1 $45 $46 $27 $-1 $47 forward single #
face $-1 $48 $49 $28 $-1 $50 reversed single #
face $-1 $51 $52 $29 $-1 $53 reversed single #
face $-1 $54 $55 $30 $-1 $56 forward single #
face $-1 $57 $58 $31 $-1 $59 forward single #
face $-1 $60 $61 $32 $-1 $62 reversed single #
face $-1 $63 $64 $33 $-1 $65 forward single #
face $-1 $66 $67 $34 $-1 $68 forward single #
face $-1 $69 $70 $35 $-1 $71 forward single #
face $-1 $72 $73 $27 $-1 $74 reversed single #
loop $-1 $-1 $75 $36 #
plane-surface $-1 0 0 6.8363523305671627 0 0 1 1 0 0 forward_v I I I I #
face $-1 $76 $77 $28 $-1 $78 reversed single #
loop $-1 $-1 $79 $37 #
plane-surface $-1 -52.041673024689473 -19.719987595083563 0 0 -1 0 0 0 -1 forward_v I I I I #
face $-1 $80 $81 $29 $-1 $82 reversed single #
loop $-1 $-1 $83 $38 #
plane-surface $-1 -146.278571853985 -9.9460540153593548 56.156882076443566 0 -1 0 0.86602541151947299 0 -0.49999998660252726 forward_v I I I I #
face $-1 $84 $85 $30 $-1 $86 forward single #
loop $-1 $87 $88 $39 #
cone-surface $-1 -51.029276502662505 -16.927435143733788 3.9787722424284495 0.86602541151947299 0 -0.49999998660252726 0.49999998660252726 0 0.86602541151947299 1 I I 0 1 1 forward I I I I #
face $-1 $89 $90 $31 $-1 $91 forward single #
loop $-1 $92 $93 $40 #
cone-surface $-1 -51.029276502662505 -12.738606466709129 3.9787722424284495 0.86602541151947299 0 -0.49999998660252726 0.49999998660252726 0 0.86602541151947299 1 I I 0 1 1 forward I I I I #
face $-1 $94 $95 $32 $-1 $96 reversed single #
loop $-1 $-1 $97 $41 #
plane-surface $-1 32.465478147525545 15.215905771322028 153.25288003105075 0 1 0 0.6018150307709319 0 0.79863550430605224 forward_v I I I I #
face $-1 $98 $99 $33 $-1 $100 forward single #
loop $-1 $101 $102 $42 #
cone-surface $-1 50.886321590325672 17.112343061029801 4.6628337923126386 -0.6018150307709319 0 -0.79863550430605224 0.19965887607651306 0 -0.15045375769273298 1 I I 0 1 0.25 forward I I I I #
face $-1 $103 $104 $34 $-1 $105 forward single #
loop $-1 $106 $107 $43 #
cone-surface $-1 50.886321590325672 19.956998995591452 4.6628337923126386 -0.6018150307709319 0 -0.79863550430605224 0.19965887607651306 0 -0.15045375769273298 1 I I 0 1 0.25 forward I I I I #
face $-1 $108 $109 $35 $-1 $110 forward single #
loop $-1 $111 $112 $44 #
cone-surface $-1 50.886321590325672 22.801654930153102 4.6628337923126386 -0.6018150307709319 0 -0.79863550430605224 0.19965887607651306 0 -0.15045375769273298 1 I I 0 1 0.25 forward I I I I #
face $-1 $113 $114 $27 $-1 $115 reversed single #
loop $-1 $-1 $116 $45 #
plane-surface $-1 0 0 -6.8363523305671627 0 0 1 1 0 0 forward_v I I I I #
coedge $-1 $117 $118 $119 $120 forward $46 $-1 #
face $-1 $121 $122 $28 $-1 $123 forward single #
loop $-1 $-1 $124 $48 #
plane-surface $-1 -50.541673024689473 -22.209039907472221 0 -1 0 0 0 0 1 forward_v I I I I #
coedge $-1 $125 $126 $127 $128 forward $49 $-1 #
face $-1 $129 $130 $29 $-1 $131 reversed single #
loop $-1 $-1 $132 $51 #
plane-surface $-1 -53.541673024689459 -14.833020805221459 2.6152104864003007 -0.86602541151947299 0 0.49999998660252726 0.49999998660252726 0 0.86602541151947299 forward_v I I I I #
coedge $-1 $133 $134 $135 $136 reversed $52 $-1 #
face $-1 $-1 $137 $30 $-1 $138 forward single #
loop $-1 $139 $140 $54 #
cone-surface $-1 -49.302405921350228 -16.927435143733788 2.981763083071904 0.86602541151947299 0 -0.49999998660252726 0.24999999330126363 0 0.43301270575973649 1 I I -0.70710678118654746 0.70710678118654746 0.5 forward I I I I #
loop $-1 $-1 $141 $39 #
coedge $-1 $88 $88 $142 $143 reversed $55 $-1 #
face $-1 $-1 $144 $31 $-1 $145 forward single #
loop $-1 $146 $147 $57 #
cone-surface $-1 -49.302405921350228 -12.738606466709129 2.981763083071904 0.86602541151947299 0 -0.49999998660252726 0.24999999330126363 0 0.43301270575973649 1 I I -0.70710678118654746 0.70710678118654746 0.5 forward I I I I #
loop $-1 $-1 $148 $40 #
coedge $-1 $93 $93 $149 $150 reversed $58 $-1 #
face $-1 $151 $152 $32 $-1 $153 reversed single #
loop $-1 $-1 $154 $60 #
plane-surface $-1 -31.978889050235793 19.956998995591452 67.732317956125485 0.6018150307709319 0 0.79863550430605224 0.79863550430605224 0 -0.6018150307709319 forward_v I I I I #
coedge $-1 $155 $156 $157 $158 reversed $61 $-1 #
face $-1 $-1 $159 $33 $-1 $160 forward single #
loop $-1 $161 $162 $63 #
cone-surface $-1 50.510187196093838 17.112343061029801 4.1636866021213557 -0.6018150307709319 0 -0.79863550430605224 0.099829438038256529 0 -0.075226878846366488 1 I I -0.70710678118654746 0.70710678118654746 0.125 forward I I I I #
loop $-1 $-1 $163 $42 #
coedge $-1 $102 $102 $164 $165 reversed $64 $-1 #
face $-1 $-1 $166 $34 $-1 $167 forward single #
loop $-1 $168 $169 $66 #
cone-surface $-1 50.510187196093838 19.956998995591452 4.1636866021213557 -0.6018150307709319 0 -0.79863550430605224 0.099829438038256529 0 -0.075226878846366488 1 I I -0.70710678118654746 0.70710678118654746 0.125 forward I I I I #
loop $-1 $-1 $170 $43 #
coedge $-1 $107 $107 $171 $172 reversed $67 $-1 #
face $-1 $-1 $173 $35 $-1 $174 forward single #
loop $-1 $175 $176 $69 #
cone-surface $-1 50.510187196093838 22.801654930153102 4.1636866021213557 -0.6018150307709319 0 -0.79863550430605224 0.099829438038256529 0 -0.075226878846366488 1 I I -0.70710678118654746 0.70710678118654746 0.125 forward I I I I #
loop $-1 $-1 $177 $44 #
coedge $-1 $112 $112 $178 $179 reversed $70 $-1 #
face $-1 $180 $181 $27 $-1 $182 reversed single #
loop $-1 $-1 $183 $72 #
plane-surface $-1 0 -24.698092219860879 0 0 1 0 0 0 1 forward_v I I I I #
coedge $-1 $184 $185 $186 $187 forward $73 $-1 #
coedge $-1 $188 $75 $189 $190 forward $46 $-1 #
coedge $-1 $75 $188 $191 $192 forward $46 $-1 #
coedge $-1 $193 $194 $75 $120 reversed $195 $-1 #
edge $-1 $196 -24.698092219860879 $197 24.698092219860879 $119 $198 forward 7 unknown #
face $-1 $199 $200 $28 $-1 $201 reversed single #
loop $-1 $-1 $202 $76 #
plane-surface $-1 0 0 6.8363523305671627 0 0 1 1 0 0 forward_v I I I I #
coedge $-1 $203 $204 $205 $206 reversed $77 $-1 #
coedge $-1 $207 $79 $208 $209 reversed $49 $-1 #
coedge $-1 $79 $207 $210 $211 reversed $49 $-1 #
coedge $-1 $204 $203 $79 $128 reversed $77 $-1 #
edge $-1 $212 -6.8363523305671627 $213 6.8363523305671627 $127 $214 forward 7 unknown #
face $-1 $215 $216 $29 $-1 $217 forward single #
loop $-1 $-1 $135 $80 #
plane-surface $-1 -53.541673024689473 0 0 1 0 0 0 0 -1 forward_v I I I I #
coedge $-1 $218 $219 $220 $221 reversed $81 $-1 #
coedge $-1 $134 $83 $222 $223 reversed $52 $-1 #
coedge $-1 $83 $133 $218 $224 reversed $52 $-1 #
coedge $-1 $220 $225 $83 $136 forward $130 $-1 #
edge $-1 $226 21.24208870765462 $227 25.463230551821507 $135 $228 forward 7 unknown #
loop $-1 $-1 $142 $84 #
plane-surface $-1 -53.541673024689459 -14.833020805221459 2.6152104864003007 -0.86602541151947299 0 0.49999998660252726 0.49999998660252726 0 0.86602541151947299 forward_v I I I I #
loop $-1 $-1 $229 $54 #
coedge $-1 $140 $140 $141 $230 reversed $85 $-1 #
coedge $-1 $141 $141 $140 $230 forward $87 $-1 #
coedge $-1 $142 $142 $88 $143 forward $137 $-1 #
edge $-1 $231 0 $231 6.2831853071796004 $142 $232 forward 7 unknown #
loop $-1 $-1 $149 $89 #
plane-surface $-1 -53.541673024689459 -14.833020805221459 2.6152104864003007 -0.86602541151947299 0 0.49999998660252726 0.49999998660252726 0 0.86602541151947299 forward_v I I I I #
loop $-1 $-1 $233 $57 #
coedge $-1 $147 $147 $148 $234 reversed $90 $-1 #
coedge $-1 $148 $148 $147 $234 forward $92 $-1 #
coedge $-1 $149 $149 $93 $150 forward $144 $-1 #
edge $-1 $235 0 $235 6.2831853071796004 $149 $236 forward 7 unknown #
face $-1 $237 $238 $32 $-1 $239 reversed single #
loop $-1 $-1 $157 $94 #
plane-surface $-1 53.541673024689473 0 0 -1 0 0 0 0 1 forward_v I I I I #
coedge $-1 $240 $241 $242 $243 reversed $95 $-1 #
coedge $-1 $156 $97 $244 $245 reversed $61 $-1 #
coedge $-1 $97 $155 $240 $246 reversed $61 $-1 #
coedge $-1 $242 $247 $97 $158 forward $152 $-1 #
edge $-1 $248 69.790087684958209 $249 73.338489257161228 $157 $250 forward 7 unknown #
loop $-1 $-1 $164 $98 #
plane-surface $-1 -31.978889050235793 19.956998995591452 67.732317956125485 0.6018150307709319 0 0.79863550430605224 0.79863550430605224 0 -0.6018150307709319 forward_v I I I I #
loop $-1 $-1 $251 $63 #
coedge $-1 $162 $162 $163 $252 reversed $99 $-1 #
coedge $-1 $163 $163 $162 $252 forward $101 $-1 #
coedge $-1 $164 $164 $102 $165 forward $159 $-1 #
edge $-1 $253 0 $253 6.2831853071796004 $164 $254 forward 7 unknown #
loop $-1 $-1 $171 $103 #
plane-surface $-1 -31.978889050235793 19.956998995591452 67.732317956125485 0.6018150307709319 0 0.79863550430605224 0.79863550430605224 0 -0.6018150307709319 forward_v I I I I #
loop $-1 $-1 $255 $66 #
coedge $-1 $169 $169 $170 $256 reversed $104 $-1 #
coedge $-1 $170 $170 $169 $256 forward $106 $-1 #
coedge $-1 $171 $171 $107 $172 forward $166 $-1 #
edge $-1 $257 0 $257 6.2831853071796004 $171 $258 forward 7 unknown #
loop $-1 $-1 $178 $108 #
plane-surface $-1 -31.978889050235793 19.956998995591452 67.732317956125485 0.6018150307709319 0 0.79863550430605224 0.79863550430605224 0 -0.6018150307709319 forward_v I I I I #
loop $-1 $-1 $259 $69 #
coedge $-1 $176 $176 $177 $260 reversed $109 $-1 #
coedge $-1 $177 $177 $176 $260 forward $111 $-1 #
coedge $-1 $178 $178 $112 $179 forward $173 $-1 #
edge $-1 $261 0 $261 6.2831853071796004 $178 $262 forward 7 unknown #
face $-1 $263 $264 $27 $-1 $265 reversed single #
loop $-1 $-1 $266 $113 #
plane-surface $-1 -53.541673024689473 0 0 1 0 0 0 0 -1 forward_v I I I I #
coedge $-1 $267 $191 $268 $269 forward $114 $-1 #
coedge $-1 $270 $116 $267 $271 forward $73 $-1 #
coedge $-1 $116 $270 $272 $273 forward $73 $-1 #
coedge $-1 $194 $193 $116 $187 reversed $195 $-1 #
edge $-1 $274 -24.698092219860879 $275 24.698092219860879 $186 $276 forward 7 unknown #
coedge $-1 $118 $117 $277 $278 forward $46 $-1 #
coedge $-1 $279 $280 $117 $190 reversed $264 $-1 #
edge $-1 $197 -53.541673024689473 $281 53.541673024689473 $189 $282 forward 7 unknown #
coedge $-1 $183 $283 $118 $192 reversed $114 $-1 #
edge $-1 $284 -53.541673024689473 $196 53.541673024689473 $191 $285 forward 7 unknown #
coedge $-1 $186 $119 $283 $286 forward $195 $-1 #
coedge $-1 $119 $186 $279 $287 reversed $195 $-1 #
loop $-1 $-1 $193 $263 #
vertex $-1 $120 $288 #
vertex $-1 $120 $289 #
straight-curve $-1 53.541673024689473 0 6.8363523305671627 0 1 0 I I #
face $-1 $290 $291 $28 $-1 $292 reversed single #
loop $-1 $-1 $293 $121 #
plane-surface $-1 -53.541673024689473 0 0 1 0 0 0 0 -1 forward_v I I I I #
coedge $-1 $210 $294 $204 $295 forward $122 $-1 #
coedge $-1 $127 $124 $296 $297 reversed $77 $-1 #
coedge $-1 $124 $127 $202 $295 reversed $77 $-1 #
coedge $-1 $298 $299 $124 $206 forward $300 $-1 #
edge $-1 $301 -6.8363523305671627 $302 6.8363523305671627 $205 $303 forward 7 unknown #
coedge $-1 $126 $125 $293 $304 reversed $49 $-1 #
coedge $-1 $296 $305 $125 $209 forward $291 $-1 #
edge $-1 $306 -27.520836512344736 $213 -24.520836512344736 $208 $307 forward 7 unknown #
coedge $-1 $308 $202 $126 $211 forward $122 $-1 #
edge $-1 $212 24.520836512344736 $309 27.520836512344736 $210 $310 forward 7 unknown #
vertex $-1 $211 $311 #
vertex $-1 $209 $312 #
straight-curve $-1 -50.541673024689473 -19.719987595083563 0 0 0 -1 I I #
face $-1 $-1 $313 $29 $-1 $314 forward single #
loop $-1 $-1 $315 $129 #
plane-surface $-1 -52.041673024689473 -19.719987595083563 0 0 -1 0 0 0 -1 forward_v I I I I #
coedge $-1 $316 $132 $134 $224 forward $81 $-1 #
coedge $-1 $132 $316 $315 $317 reversed $81 $-1 #
coedge $-1 $318 $135 $132 $221 forward $130 $-1 #
edge $-1 $227 2.5295436127486255 $319 12.303477192472833 $220 $320 forward 7 unknown #
coedge $-1 $321 $322 $133 $223 forward $313 $-1 #
edge $-1 $323 -22.034690195251898 $226 -19.597612902303027 $222 $324 forward 7 unknown #
edge $-1 $227 -2.8258016906358157e-014 $323 4.8741547165004251 $134 $325 forward 7 unknown #
coedge $-1 $135 $318 $321 $326 reversed $130 $-1 #
vertex $-1 $326 $327 #
vertex $-1 $136 $328 #
straight-curve $-1 -53.541673024689473 -9.9460540153593548 28.078441038221783 0 0 -1 I I #
coedge $-1 $229 $229 $-1 $329 reversed $139 $-1 #
edge $-1 $330 0 $330 6.2831853071796004 $140 $331 forward 7 unknown #
vertex $-1 $143 $332 #
ellipse-curve $-1 -52.32313437821503 -16.927435143733788 4.7257814084837255 -0.86602541151947299 0 0.49999998660252726 0.49999998660252726 0 0.86602541151947299 1 I I #
coedge $-1 $233 $233 $-1 $333 reversed $146 $-1 #
edge $-1 $334 0 $334 6.2831853071796004 $147 $335 forward 7 unknown #
vertex $-1 $150 $336 #
ellipse-curve $-1 -52.32313437821503 -12.738606466709129 4.7257814084837255 -0.86602541151947299 0 0.49999998660252726 0.49999998660252726 0 0.86602541151947299 1 I I #
face $-1 $-1 $337 $32 $-1 $338 forward single #
loop $-1 $-1 $339 $151 #
plane-surface $-1 0 24.698092219860879 0 0 -1 0 0 0 -1 forward_v I I I I #
coedge $-1 $340 $154 $156 $246 forward $95 $-1 #
coedge $-1 $154 $340 $339 $341 reversed $95 $-1 #
coedge $-1 $342 $157 $154 $243 forward $152 $-1 #
edge $-1 $249 5.2374062735263021 $343 14.719592722065153 $242 $344 forward 7 unknown #
coedge $-1 $345 $346 $155 $245 forward $337 $-1 #
edge $-1 $347 32.600046112970048 $248 37.308933950926701 $244 $348 forward 7 unknown #
edge $-1 $249 -107.08334604937896 $347 -101.18717963482882 $156 $349 forward 7 unknown #
coedge $-1 $157 $342 $345 $350 reversed $152 $-1 #
vertex $-1 $350 $351 #
vertex $-1 $158 $352 #
straight-curve $-1 53.541673024689473 15.215905771322028 76.626440015525375 0 0 -1 I I #
coedge $-1 $251 $251 $-1 $353 reversed $161 $-1 #
edge $-1 $354 0 $354 6.2831853071796004 $162 $355 forward 7 unknown #
vertex $-1 $165 $356 #
ellipse-curve $-1 51.187229105711133 17.112343061029801 5.0621515444656593 0.6018150307709319 0 0.79863550430605224 0.19965887607651306 0 -0.15045375769273298 1 I I #
coedge $-1 $255 $255 $-1 $357 reversed $168 $-1 #
edge $-1 $358 0 $358 6.2831853071796004 $169 $359 forward 7 unknown #
vertex $-1 $172 $360 #
ellipse-curve $-1 51.187229105711133 19.956998995591452 5.0621515444656593 0.6018150307709319 0 0.79863550430605224 0.19965887607651306 0 -0.15045375769273298 1 I I #
coedge $-1 $259 $259 $-1 $361 reversed $175 $-1 #
edge $-1 $362 0 $362 6.2831853071796004 $176 $363 forward 7 unknown #
vertex $-1 $179 $364 #
ellipse-curve $-1 51.187229105711133 22.801654930153102 5.0621515444656593 0.6018150307709319 0 0.79863550430605224 0.19965887607651306 0 -0.15045375769273298 1 I I #
face $-1 $-1 $195 $27 $-1 $365 reversed single #
loop $-1 $-1 $279 $180 #
plane-surface $-1 0 24.698092219860879 0 0 -1 0 0 0 -1 forward_v I I I I #
coedge $-1 $366 $277 $280 $367 forward $181 $-1 #
coedge $-1 $283 $183 $184 $271 reversed $114 $-1 #
coedge $-1 $277 $366 $183 $269 reversed $181 $-1 #
edge $-1 $284 -6.8363523305671627 $368 6.8363523305671627 $268 $369 forward 7 unknown #
coedge $-1 $185 $184 $366 $370 forward $73 $-1 #
edge $-1 $275 -53.541673024689473 $368 53.541673024689473 $267 $371 forward 7 unknown #
coedge $-1 $280 $279 $185 $273 reversed $264 $-1 #
edge $-1 $372 -53.541673024689473 $274 53.541673024689473 $272 $373 forward 7 unknown #
vertex $-1 $187 $374 #
vertex $-1 $286 $375 #
straight-curve $-1 53.541673024689473 0 -6.8363523305671627 0 -1 0 I I #
coedge $-1 $266 $268 $188 $278 reversed $181 $-1 #
edge $-1 $281 -24.698092219860879 $284 24.698092219860879 $277 $376 forward 7 unknown #
coedge $-1 $272 $189 $194 $287 forward $264 $-1 #
coedge $-1 $189 $272 $266 $367 reversed $264 $-1 #
vertex $-1 $190 $377 #
straight-curve $-1 0 24.698092219860879 6.8363523305671627 -1 0 0 I I #
coedge $-1 $191 $267 $193 $286 reversed $114 $-1 #
vertex $-1 $278 $378 #
straight-curve $-1 0 -24.698092219860879 6.8363523305671627 1 0 0 I I #
edge $-1 $196 -6.8363523305671627 $275 6.8363523305671627 $193 $379 forward 7 unknown #
edge $-1 $197 -6.8363523305671627 $274 6.8363523305671627 $194 $380 forward 7 unknown #
point $-1 53.541673024689473 -24.698092219860879 6.8363523305671627 #
point $-1 53.541673024689473 24.698092219860879 6.8363523305671627 #
face $-1 $-1 $300 $28 $-1 $381 reversed single #
loop $-1 $-1 $296 $199 #
plane-surface $-1 0 0 -6.8363523305671627 0 0 1 1 0 0 forward_v I I I I #
coedge $-1 $382 $383 $207 $304 forward $200 $-1 #
coedge $-1 $202 $308 $298 $384 forward $122 $-1 #
edge $-1 $302 -13.593572266124768 $212 -8.6154676413474522 $202 $385 forward 7 unknown #
coedge $-1 $386 $208 $203 $297 forward $291 $-1 #
edge $-1 $213 8.6154676413474522 $301 13.593572266124768 $296 $387 forward 7 unknown #
coedge $-1 $388 $205 $294 $384 reversed $300 $-1 #
coedge $-1 $205 $388 $386 $389 reversed $300 $-1 #
loop $-1 $-1 $205 $290 #
vertex $-1 $389 $390 #
vertex $-1 $206 $391 #
straight-curve $-1 -50.541673024689473 -24.698092219860879 0 0 0 1 I I #
edge $-1 $309 -6.8363523305671627 $306 6.8363523305671627 $293 $392 forward 7 unknown #
coedge $-1 $208 $386 $382 $393 forward $291 $-1 #
vertex $-1 $209 $394 #
straight-curve $-1 -26.020836512344736 -19.719987595083563 -6.8363523305671627 1 0 0 I I #
coedge $-1 $294 $210 $383 $395 forward $122 $-1 #
vertex $-1 $395 $396 #
straight-curve $-1 -26.020836512344736 -19.719987595083563 6.8363523305671627 -1 0 0 I I #
point $-1 -50.541673024689473 -19.719987595083563 6.8363523305671627 #
point $-1 -50.541673024689473 -19.719987595083563 -6.8363523305671627 #
loop $-1 $-1 $222 $215 #
plane-surface $-1 0 0 6.8363523305671627 0 0 1 1 0 0 forward_v I I I I #
coedge $-1 $397 $398 $219 $317 forward $216 $-1 #
coedge $-1 $219 $218 $322 $399 reversed $81 $-1 #
edge $-1 $319 0.75741937889551092 $400 5.6315740953959654 $315 $401 forward 7 unknown #
coedge $-1 $225 $220 $398 $402 forward $130 $-1 #
vertex $-1 $402 $403 #
straight-curve $-1 -53.541673024689473 -7.4165104026107294 2.6152104864002772 0 -1 0 I I #
coedge $-1 $404 $222 $225 $326 forward $313 $-1 #
coedge $-1 $222 $404 $316 $399 forward $313 $-1 #
vertex $-1 $223 $405 #
straight-curve $-1 -73.1392859269925 -9.9460540153593548 6.8363523305671627 -1 0 0 I I #
straight-curve $-1 -53.541673024689459 -9.9460540153593548 2.6152104864003007 0.49999998660252726 0 0.86602541151947299 I I #
edge $-1 $226 9.9460540153593548 $406 19.719987595083563 $225 $407 forward 7 unknown #
point $-1 -53.541673024689473 -9.9460540153593548 6.8363523305671627 #
point $-1 -53.541673024689473 -9.9460540153593548 2.6152104864002763 #
edge $-1 $408 1 $408 0 $229 $-1 forward 7 unknown #
vertex $-1 $230 $409 #
ellipse-curve $-1 -49.735418627109965 -16.927435143733788 3.2317630763731677 -0.86602541151947299 0 0.49999998660252726 0.49999998660252726 0 0.86602541151947299 1 I I #
point $-1 -51.823134391612513 -16.927435143733788 5.5918068200032049 #
edge $-1 $410 1 $410 0 $233 $-1 forward 7 unknown #
vertex $-1 $234 $411 #
ellipse-curve $-1 -49.735418627109965 -12.738606466709129 3.2317630763731677 -0.86602541151947299 0 0.49999998660252726 0.49999998660252726 0 0.86602541151947299 1 I I #
point $-1 -51.823134391612513 -12.738606466709129 5.5918068200032049 #
loop $-1 $-1 $244 $237 #
plane-surface $-1 0 0 6.8363523305671627 0 0 1 1 0 0 forward_v I I I I #
coedge $-1 $412 $413 $241 $341 forward $238 $-1 #
coedge $-1 $241 $240 $346 $414 reversed $95 $-1 #
edge $-1 $343 -73.932444450011687 $415 -68.03627803546155 $339 $416 forward 7 unknown #
coedge $-1 $247 $242 $413 $417 reversed $152 $-1 #
vertex $-1 $341 $418 #
straight-curve $-1 53.541673024689466 9.9784994977957258 3.2879507583641505 0 1 0 I I #
coedge $-1 $419 $244 $247 $350 forward $337 $-1 #
coedge $-1 $244 $419 $340 $414 forward $337 $-1 #
vertex $-1 $245 $420 #
straight-curve $-1 16.232739073762772 15.215905771322028 6.8363523305671663 1 0 0 I I #
straight-curve $-1 -31.978889050235793 15.215905771322028 67.732317956125485 -0.79863550430605224 0 0.6018150307709319 I I #
edge $-1 $248 15.215905771322028 $421 24.698092219860879 $247 $422 forward 7 unknown #
point $-1 53.541673024689473 15.215905771322028 6.8363523305671627 #
point $-1 53.541673024689473 15.215905771322028 3.287950758364147 #
edge $-1 $423 1 $423 0 $251 $-1 forward 7 unknown #
vertex $-1 $252 $424 #
ellipse-curve $-1 50.585414074940203 17.112343061029801 4.2635160401596126 0.6018150307709319 0 0.79863550430605224 0.19965887607651306 0 -0.15045375769273298 1 I I #
point $-1 51.386887981787652 17.112343061029801 4.9116977867729315 #
edge $-1 $425 1 $425 0 $255 $-1 forward 7 unknown #
vertex $-1 $256 $426 #
ellipse-curve $-1 50.585414074940203 19.956998995591452 4.2635160401596126 0.6018150307709319 0 0.79863550430605224 0.19965887607651306 0 -0.15045375769273298 1 I I #
point $-1 51.386887981787652 19.956998995591452 4.9116977867729315 #
edge $-1 $427 1 $427 0 $259 $-1 forward 7 unknown #
vertex $-1 $260 $428 #
ellipse-curve $-1 50.585414074940203 22.801654930153102 4.2635160401596126 0.6018150307709319 0 0.79863550430605224 0.19965887607651306 0 -0.15045375769273298 1 I I #
point $-1 51.386887981787652 22.801654930153102 4.9116977867729315 #
plane-surface $-1 53.541673024689473 0 0 -1 0 0 0 0 1 forward_v I I I I #
coedge $-1 $268 $266 $270 $370 reversed $181 $-1 #
edge $-1 $281 -6.8363523305671627 $372 6.8363523305671627 $280 $429 forward 7 unknown #
vertex $-1 $370 $430 #
straight-curve $-1 -53.541673024689473 -24.698092219860879 0 0 0 -1 I I #
edge $-1 $368 -24.698092219860879 $372 24.698092219860879 $366 $431 forward 7 unknown #
straight-curve $-1 0 -24.698092219860879 -6.8363523305671627 -1 0 0 I I #
vertex $-1 $273 $432 #
straight-curve $-1 0 24.698092219860879 -6.8363523305671627 1 0 0 I I #
point $-1 53.541673024689473 24.698092219860879 -6.8363523305671627 #
point $-1 53.541673024689473 -24.698092219860879 -6.8363523305671627 #
straight-curve $-1 -53.541673024689473 0 6.8363523305671627 0 -1 0 I I #
point $-1 -53.541673024689473 24.698092219860879 6.8363523305671627 #
point $-1 -53.541673024689473 -24.698092219860879 6.8363523305671627 #
straight-curve $-1 53.541673024689473 -24.698092219860879 0 0 0 -1 I I #
straight-curve $-1 53.541673024689473 24.698092219860879 0 0 0 -1 I I #
plane-surface $-1 0 -24.698092219860879 0 0 1 0 0 0 1 forward_v I I I I #
coedge $-1 $433 $293 $305 $393 reversed $200 $-1 #
coedge $-1 $293 $433 $308 $395 reversed $200 $-1 #
edge $-1 $434 -53.541673024689473 $302 -50.541673024689473 $298 $435 forward 7 unknown #
straight-curve $-1 -50.541673024689473 -11.10451995373611 6.8363523305671627 0 1 0 I I #
coedge $-1 $305 $296 $299 $389 forward $291 $-1 #
straight-curve $-1 -50.541673024689473 -11.10451995373611 -6.8363523305671627 0 -1 0 I I #
coedge $-1 $299 $298 $433 $436 forward $300 $-1 #
edge $-1 $301 50.541673024689473 $437 53.541673024689473 $299 $438 forward 7 unknown #
point $-1 -50.541673024689473 -24.698092219860879 -6.8363523305671627 #
point $-1 -50.541673024689473 -24.698092219860879 6.8363523305671627 #
straight-curve $-1 -53.541673024689473 -19.719987595083563 0 0 0 -1 I I #
edge $-1 $437 -24.698092219860879 $306 -19.719987595083563 $382 $439 forward 7 unknown #
point $-1 -53.541673024689473 -19.719987595083563 -6.8363523305671627 #
edge $-1 $309 19.719987595083563 $434 24.698092219860879 $383 $440 forward 7 unknown #
point $-1 -53.541673024689473 -19.719987595083563 6.8363523305671627 #
coedge $-1 $398 $315 $404 $441 reversed $216 $-1 #
coedge $-1 $315 $397 $318 $402 reversed $216 $-1 #
edge $-1 $400 -12.303477192472833 $323 -2.5295436127486255 $322 $442 forward 7 unknown #
vertex $-1 $317 $443 #
straight-curve $-1 -53.920382703989723 -19.719987595083563 1.959266057099468 0.49999998660252726 0 0.86602541151947299 I I #
edge $-1 $319 2.6152104864002763 $406 6.8363523305671627 $318 $444 forward 7 unknown #
point $-1 -53.541673024689473 -19.719987595083563 2.6152104864002763 #
coedge $-1 $322 $321 $397 $441 forward $313 $-1 #
point $-1 -51.104595731740602 -9.9460540153593548 6.8363523305671627 #
vertex $-1 $402 $445 #
straight-curve $-1 -53.541673024689473 0 6.8363523305671627 0 -1 0 I I #
vertex $-1 $329 $446 #
point $-1 -49.23541864050744 -16.927435143733788 4.0977884878926405 #
vertex $-1 $333 $447 #
point $-1 -49.23541864050744 -12.738606466709129 4.0977884878926405 #
coedge $-1 $413 $339 $419 $448 reversed $238 $-1 #
coedge $-1 $339 $412 $342 $417 forward $238 $-1 #
edge $-1 $415 -14.719592722065149 $347 -5.2374062735263021 $346 $449 forward 7 unknown #
vertex $-1 $341 $450 #
straight-curve $-1 -5.5034020332247948 24.698092219860879 47.781607090018134 -0.79863550430605224 0 0.6018150307709319 I I #
edge $-1 $421 -6.8363523305671627 $343 -3.2879507583641492 $342 $451 forward 7 unknown #
point $-1 53.541673024689473 24.698092219860879 3.2879507583641492 #
coedge $-1 $346 $345 $412 $448 forward $337 $-1 #
point $-1 48.832785186732821 15.215905771322028 6.8363523305671592 #
vertex $-1 $350 $452 #
straight-curve $-1 53.541673024689473 0 6.8363523305671627 0 1 0 I I #
vertex $-1 $353 $453 #
point $-1 50.785072951016716 17.112343061029801 4.1130622824668794 #
vertex $-1 $357 $454 #
point $-1 50.785072951016716 19.956998995591452 4.1130622824668794 #
vertex $-1 $361 $455 #
point $-1 50.785072951016716 22.801654930153102 4.1130622824668794 #
straight-curve $-1 -53.541673024689473 24.698092219860879 0 0 0 -1 I I #
point $-1 -53.541673024689473 -24.698092219860879 -6.8363523305671627 #
straight-curve $-1 -53.541673024689473 0 -6.8363523305671627 0 1 0 I I #
point $-1 -53.541673024689473 24.698092219860879 -6.8363523305671627 #
coedge $-1 $383 $382 $388 $436 reversed $200 $-1 #
vertex $-1 $395 $456 #
straight-curve $-1 0 -24.698092219860879 6.8363523305671627 1 0 0 I I #
edge $-1 $434 -6.8363523305671627 $437 6.8363523305671627 $433 $457 forward 7 unknown #
vertex $-1 $393 $458 #
straight-curve $-1 0 -24.698092219860879 -6.8363523305671627 -1 0 0 I I #
straight-curve $-1 -53.541673024689473 0 -6.8363523305671627 0 1 0 I I #
straight-curve $-1 -53.541673024689473 0 6.8363523305671627 0 -1 0 I I #
edge $-1 $406 -27.520836512344736 $400 -25.083759219395866 $404 $459 forward 7 unknown #
straight-curve $-1 -51.104595731740602 -7.4165104026107294 6.8363523305671627 0 1 0 I I #
point $-1 -51.104595731740602 -19.719987595083563 6.8363523305671627 #
straight-curve $-1 -53.541673024689473 -19.719987595083563 0 0 0 1 I I #
point $-1 -53.541673024689473 -19.719987595083563 6.8363523305671627 #
point $-1 -48.869393215590492 -16.927435143733788 2.7317630897706402 #
point $-1 -48.869393215590492 -12.738606466709129 2.7317630897706402 #
edge $-1 $421 -53.541673024689473 $415 -48.832785186732821 $412 $460 forward 7 unknown #
straight-curve $-1 48.832785186732821 9.9784994977957258 6.8363523305671663 0 -1 0 I I #
point $-1 48.832785186732821 24.698092219860875 6.8363523305671592 #
straight-curve $-1 53.541673024689473 24.698092219860879 0 0 0 -1 I I #
point $-1 53.541673024689473 24.698092219860879 6.8363523305671627 #
point $-1 50.434960317247473 17.112343061029801 4.0638571640830987 #
point $-1 50.434960317247473 19.956998995591452 4.0638571640830987 #
point $-1 50.434960317247473 22.801654930153102 4.0638571640830987 #
point $-1 -53.541673024689473 -24.698092219860879 6.8363523305671627 #
straight-curve $-1 -53.541673024689473 -24.698092219860879 0 0 0 -1 I I #
point $-1 -53.541673024689473 -24.698092219860879 -6.8363523305671627 #
straight-curve $-1 -26.020836512344736 -19.719987595083563 6.8363523305671627 1 0 0 I I #
straight-curve $-1 0 24.698092219860879 6.8363523305671627 -1 0 0 I I #
End-of-ACIS-data 