500 0 6 0           
7 Unknown 11 ACIS 5.0 NT 24 Fri Mar 26 00:31:29 1999 
-1 9.9999999999999995e-007 1e-010 
body $-1 $6 $-1 $7 #
body $-1 $8 $-1 $9 #
body $-1 $10 $-1 $11 #
body $-1 $12 $-1 $13 #
body $-1 $14 $-1 $15 #
body $-1 $16 $-1 $17 #
lump $-1 $-1 $18 $0 #
transform $-1 1 0 0 0 1 0 0 0 1 77.834406567583244 47.048638586448284 13.071156239749545 1 rotate no_reflect no_shear #
lump $-1 $-1 $19 $1 #
transform $-1 1 0 0 0 1 0 0 0 1 77.834406567583244 47.048638586448284 13.071156239749545 1 rotate no_reflect no_shear #
lump $-1 $-1 $20 $2 #
transform $-1 1 0 0 0 1 0 0 0 1 77.834406567583244 47.048638586448284 13.071156239749545 1 rotate no_reflect no_shear #
lump $-1 $-1 $21 $3 #
transform $-1 1 0 0 0 1 0 0 0 1 77.834406567583244 47.048638586448284 13.071156239749545 1 rotate no_reflect no_shear #
lump $-1 $-1 $22 $4 #
transform $-1 1 0 0 0 1 0 0 0 1 77.834406567583244 47.048638586448284 13.071156239749545 1 rotate no_reflect no_shear #
lump $-1 $-1 $23 $5 #
transform $-1 1 0 0 0 1 0 0 0 1 77.834406567583244 47.048638586448284 13.071156239749545 1 rotate no_reflect no_shear #
shell $-1 $-1 $-1 $24 $-1 $6 #
shell $-1 $-1 $-1 $25 $-1 $8 #
shell $-1 $-1 $-1 $26 $-1 $10 #
shell $-1 $-1 $-1 $27 $-1 $12 #
shell $-1 $-1 $-1 $28 $-1 $14 #
shell $-1 $-1 $-1 $29 $-1 $16 #
face $-1 $30 $31 $18 $-1 $32 forward single #
face $-1 $33 $34 $19 $-1 $35 forward single #
face $-1 $36 $37 $20 $-1 $38 forward single #
face $-1 $39 $40 $21 $-1 $41 reversed single #
face $-1 $42 $43 $22 $-1 $44 forward single #
face $-1 $45 $46 $23 $-1 $47 forward single #
face $-1 $48 $49 $18 $-1 $50 reversed single #
loop $-1 $-1 $51 $24 #
plane-surface $-1 0 0 13.071156239749545 0 0 1 1 0 0 forward_v I I I I #
face $-1 $52 $53 $19 $-1 $54 forward single #
loop $-1 $-1 $55 $25 #
plane-surface $-1 0 -47.048638586448284 0 0 1 0 0 0 1 forward_v I I I I #
face $-1 $56 $57 $20 $-1 $58 reversed single #
loop $-1 $-1 $59 $26 #
plane-surface $-1 0 47.048638586448284 0 0 -1 0 0 0 -1 forward_v I I I I #
face $-1 $60 $61 $21 $-1 $62 reversed single #
loop $-1 $-1 $63 $27 #
plane-surface $-1 39.605945101423927 -21.80932047662052 226.6963572427386 0 -1 0 -0.57357644374324357 0 -0.81915203911291934 forward_v I I I I #
face $-1 $64 $65 $22 $-1 $66 forward single #
loop $-1 $67 $68 $28 #
cone-surface $-1 74.666493239218397 -27.834669177586264 10.199460205757656 -0.57357644374324357 0 -0.81915203911291934 0.81915203911291934 0 -0.57357644374324357 1 I I 0 1 1 forward I I I I #
face $-1 $69 $70 $23 $-1 $71 forward single #
loop $-1 $72 $73 $29 #
cone-surface $-1 74.666493239218397 -24.219459957006816 10.199460205757656 -0.57357644374324357 0 -0.81915203911291934 0.81915203911291934 0 -0.57357644374324357 1 I I 0 1 1 forward I I I I #
face $-1 $74 $75 $18 $-1 $76 reversed single #
loop $-1 $-1 $77 $30 #
plane-surface $-1 0 0 -13.071156239749545 0 0 1 1 0 0 forward_v I I I I #
coedge $-1 $78 $79 $80 $81 forward $31 $-1 #
face $-1 $82 $83 $19 $-1 $84 reversed single #
loop $-1 $-1 $85 $33 #
plane-surface $-1 0 0 13.071156239749545 0 0 1 1 0 0 forward_v I I I I #
coedge $-1 $86 $87 $88 $89 forward $34 $-1 #
face $-1 $90 $91 $20 $-1 $92 reversed single #
loop $-1 $-1 $93 $36 #
plane-surface $-1 77.834406567583244 0 0 -1 0 0 0 0 1 forward_v I I I I #
coedge $-1 $94 $95 $96 $97 forward $37 $-1 #
face $-1 $98 $99 $21 $-1 $100 reversed single #
loop $-1 $-1 $101 $39 #
plane-surface $-1 -49.68201913837639 -26.027064567296541 99.179931536778966 0.57357644374324357 0 0.81915203911291934 0.81915203911291934 0 -0.57357644374324357 forward_v I I I I #
coedge $-1 $102 $103 $104 $105 reversed $40 $-1 #
face $-1 $-1 $106 $22 $-1 $107 forward single #
loop $-1 $108 $109 $42 #
cone-surface $-1 73.481967821216699 -27.834669177586264 8.5077826235947462 -0.57357644374324357 0 -0.81915203911291934 0.40957601955645967 0 -0.28678822187162178 1 I I -0.70710678118654746 0.70710678118654746 0.5 forward I I I I #
loop $-1 $-1 $110 $28 #
coedge $-1 $68 $68 $111 $112 reversed $43 $-1 #
face $-1 $-1 $113 $23 $-1 $114 forward single #
loop $-1 $115 $116 $45 #
cone-surface $-1 73.481967821216699 -24.219459957006816 8.5077826235947462 -0.57357644374324357 0 -0.81915203911291934 0.40957601955645967 0 -0.28678822187162178 1 I I -0.70710678118654746 0.70710678118654746 0.5 forward I I I I #
loop $-1 $-1 $117 $29 #
coedge $-1 $73 $73 $118 $119 reversed $46 $-1 #
face $-1 $120 $121 $18 $-1 $122 reversed single #
loop $-1 $-1 $123 $48 #
plane-surface $-1 0 -47.048638586448284 0 0 1 0 0 0 1 forward_v I I I I #
coedge $-1 $124 $125 $126 $127 forward $49 $-1 #
coedge $-1 $128 $51 $129 $130 forward $31 $-1 #
coedge $-1 $51 $128 $131 $132 forward $31 $-1 #
coedge $-1 $133 $134 $51 $81 reversed $135 $-1 #
edge $-1 $136 -47.048638586448284 $137 47.048638586448284 $80 $138 forward 7 unknown #
face $-1 $139 $140 $19 $-1 $141 reversed single #
loop $-1 $-1 $142 $52 #
plane-surface $-1 -77.834406567583244 0 0 1 0 0 0 0 -1 forward_v I I I I #
coedge $-1 $143 $144 $145 $146 forward $53 $-1 #
coedge $-1 $145 $55 $142 $147 reversed $34 $-1 #
coedge $-1 $55 $145 $148 $149 reversed $34 $-1 #
coedge $-1 $150 $151 $55 $89 reversed $140 $-1 #
edge $-1 $152 -77.834406567583244 $153 77.834406567583244 $88 $154 forward 7 unknown #
face $-1 $155 $156 $20 $-1 $157 reversed single #
loop $-1 $-1 $158 $56 #
plane-surface $-1 0 51.362646709676987 7.2166409284359609 0 0 1 1 0 0 forward_v I I I I #
coedge $-1 $159 $160 $94 $161 forward $57 $-1 #
coedge $-1 $162 $59 $93 $161 reversed $37 $-1 #
coedge $-1 $59 $162 $163 $164 reversed $37 $-1 #
coedge $-1 $165 $158 $59 $97 reversed $91 $-1 #
edge $-1 $166 -77.834406567583244 $167 77.834406567583244 $96 $168 forward 7 unknown #
face $-1 $169 $170 $21 $-1 $171 forward single #
loop $-1 $-1 $172 $60 #
plane-surface $-1 39.605945101423927 -30.244808657972563 226.6963572427386 0 1 0 0.57357644374324357 0 0.81915203911291934 forward_v I I I I #
coedge $-1 $173 $174 $175 $176 reversed $61 $-1 #
coedge $-1 $103 $63 $177 $178 reversed $40 $-1 #
coedge $-1 $63 $102 $173 $179 reversed $40 $-1 #
coedge $-1 $175 $180 $63 $105 forward $170 $-1 #
edge $-1 $181 -58.03143401687128 $182 -53.491081752401733 $104 $183 forward 7 unknown #
loop $-1 $-1 $111 $64 #
plane-surface $-1 -49.68201913837639 -26.027064567296541 99.179931536778966 0.57357644374324357 0 0.81915203911291934 0.81915203911291934 0 -0.57357644374324357 forward_v I I I I #
loop $-1 $-1 $184 $42 #
coedge $-1 $109 $109 $110 $185 reversed $65 $-1 #
coedge $-1 $110 $110 $109 $185 forward $67 $-1 #
coedge $-1 $111 $111 $68 $112 forward $106 $-1 #
edge $-1 $186 0 $186 6.2831853071796004 $111 $187 forward 7 unknown #
loop $-1 $-1 $118 $69 #
plane-surface $-1 -49.68201913837639 -26.027064567296541 99.179931536778966 0.57357644374324357 0 0.81915203911291934 0.81915203911291934 0 -0.57357644374324357 forward_v I I I I #
loop $-1 $-1 $188 $45 #
coedge $-1 $116 $116 $117 $189 reversed $70 $-1 #
coedge $-1 $117 $117 $116 $189 forward $72 $-1 #
coedge $-1 $118 $118 $73 $119 forward $113 $-1 #
edge $-1 $190 0 $190 6.2831853071796004 $118 $191 forward 7 unknown #
face $-1 $192 $193 $18 $-1 $194 reversed single #
loop $-1 $-1 $195 $74 #
plane-surface $-1 -77.834406567583244 0 0 1 0 0 0 0 -1 forward_v I I I I #
coedge $-1 $196 $131 $197 $198 forward $75 $-1 #
coedge $-1 $199 $77 $196 $200 forward $49 $-1 #
coedge $-1 $77 $199 $201 $202 forward $49 $-1 #
coedge $-1 $134 $133 $77 $127 reversed $135 $-1 #
edge $-1 $203 -47.048638586448284 $204 47.048638586448284 $126 $205 forward 7 unknown #
coedge $-1 $79 $78 $206 $207 forward $31 $-1 #
coedge $-1 $208 $209 $78 $130 reversed $193 $-1 #
edge $-1 $137 -77.834406567583244 $210 77.834406567583244 $129 $211 forward 7 unknown #
coedge $-1 $123 $212 $79 $132 reversed $75 $-1 #
edge $-1 $213 -77.834406567583244 $136 77.834406567583244 $131 $214 forward 7 unknown #
coedge $-1 $126 $80 $212 $215 forward $135 $-1 #
coedge $-1 $80 $126 $208 $216 reversed $135 $-1 #
loop $-1 $-1 $133 $192 #
vertex $-1 $81 $217 #
vertex $-1 $81 $218 #
straight-curve $-1 77.834406567583244 0 13.071156239749545 0 1 0 I I #
face $-1 $219 $220 $19 $-1 $221 reversed single #
loop $-1 $-1 $150 $82 #
plane-surface $-1 0 -51.36264670967698 7.2166409284359609 0 0 1 1 0 0 forward_v I I I I #
coedge $-1 $222 $223 $86 $147 forward $83 $-1 #
coedge $-1 $224 $85 $223 $225 forward $53 $-1 #
coedge $-1 $85 $224 $226 $227 forward $53 $-1 #
coedge $-1 $87 $86 $85 $146 reversed $34 $-1 #
edge $-1 $228 -77.834406567583244 $229 77.834406567583244 $85 $230 forward 7 unknown #
edge $-1 $229 -13.071156239749545 $153 -7.2166409284359609 $142 $231 forward 7 unknown #
coedge $-1 $226 $232 $87 $149 forward $233 $-1 #
edge $-1 $152 7.2166409284359609 $228 13.071156239749545 $148 $234 forward 7 unknown #
coedge $-1 $235 $88 $232 $236 forward $140 $-1 #
coedge $-1 $88 $235 $222 $237 forward $140 $-1 #
vertex $-1 $149 $238 #
vertex $-1 $147 $239 #
straight-curve $-1 0 -47.048638586448284 7.2166409284359609 -1 0 0 I I #
face $-1 $240 $241 $20 $-1 $242 forward single #
loop $-1 $-1 $243 $90 #
plane-surface $-1 0 55.676654832905683 10.143898584092753 0 -1 0 0 0 -1 forward_v I I I I #
coedge $-1 $96 $244 $159 $245 forward $91 $-1 #
coedge $-1 $246 $93 $158 $245 reversed $57 $-1 #
coedge $-1 $93 $246 $247 $248 reversed $57 $-1 #
edge $-1 $249 -13.071156239749545 $167 -7.2166409284359609 $93 $250 forward 7 unknown #
coedge $-1 $95 $94 $251 $252 reversed $37 $-1 #
coedge $-1 $253 $254 $95 $164 forward $255 $-1 #
edge $-1 $166 7.2166409284359609 $256 13.071156239749545 $163 $257 forward 7 unknown #
coedge $-1 $244 $96 $254 $258 forward $91 $-1 #
vertex $-1 $164 $259 #
vertex $-1 $161 $260 #
straight-curve $-1 0 47.048638586448284 7.2166409284359609 1 0 0 I I #
face $-1 $-1 $261 $21 $-1 $262 reversed single #
loop $-1 $-1 $104 $98 #
plane-surface $-1 0 0 13.071156239749545 0 0 1 1 0 0 forward_v I I I I #
coedge $-1 $263 $264 $265 $266 reversed $99 $-1 #
coedge $-1 $267 $101 $103 $179 forward $61 $-1 #
coedge $-1 $101 $267 $263 $268 forward $61 $-1 #
coedge $-1 $265 $104 $101 $176 forward $170 $-1 #
edge $-1 $182 8.7957881929722497 $269 17.231276374324292 $175 $270 forward 7 unknown #
coedge $-1 $271 $272 $102 $178 forward $261 $-1 #
edge $-1 $273 -103.45621132439065 $181 -100.27702238161976 $177 $274 forward 7 unknown #
edge $-1 $182 150.12606643165293 $273 155.66881313516649 $103 $275 forward 7 unknown #
coedge $-1 $104 $265 $271 $276 forward $170 $-1 #
vertex $-1 $178 $277 #
vertex $-1 $105 $278 #
straight-curve $-1 19.802972550711964 -21.80932047662052 13.071156239749541 -1 0 0 I I #
coedge $-1 $184 $184 $-1 $279 reversed $108 $-1 #
edge $-1 $280 0 $280 6.2831853071796004 $109 $281 forward 7 unknown #
vertex $-1 $112 $282 #
ellipse-curve $-1 75.564230435348463 -27.834669177586264 11.481561768364108 0.57357644374324357 0 0.81915203911291934 0.81915203911291934 0 -0.57357644374324357 1 I I #
coedge $-1 $188 $188 $-1 $283 reversed $115 $-1 #
edge $-1 $284 0 $284 6.2831853071796004 $116 $285 forward 7 unknown #
vertex $-1 $119 $286 #
ellipse-curve $-1 75.564230435348463 -24.219459957006816 11.481561768364108 0.57357644374324357 0 0.81915203911291934 0.81915203911291934 0 -0.57357644374324357 1 I I #
face $-1 $-1 $135 $18 $-1 $287 reversed single #
loop $-1 $-1 $208 $120 #
plane-surface $-1 0 47.048638586448284 0 0 -1 0 0 0 -1 forward_v I I I I #
coedge $-1 $288 $206 $209 $289 forward $121 $-1 #
coedge $-1 $212 $123 $124 $200 reversed $75 $-1 #
coedge $-1 $206 $288 $123 $198 reversed $121 $-1 #
edge $-1 $213 -13.071156239749545 $290 13.071156239749545 $197 $291 forward 7 unknown #
coedge $-1 $125 $124 $288 $292 forward $49 $-1 #
edge $-1 $204 -77.834406567583244 $290 77.834406567583244 $196 $293 forward 7 unknown #
coedge $-1 $209 $208 $125 $202 reversed $193 $-1 #
edge $-1 $294 -77.834406567583244 $203 77.834406567583244 $201 $295 forward 7 unknown #
vertex $-1 $127 $296 #
vertex $-1 $215 $297 #
straight-curve $-1 77.834406567583244 0 -13.071156239749545 0 -1 0 I I #
coedge $-1 $195 $197 $128 $207 reversed $121 $-1 #
edge $-1 $210 -47.048638586448284 $213 47.048638586448284 $206 $298 forward 7 unknown #
coedge $-1 $201 $129 $134 $216 forward $193 $-1 #
coedge $-1 $129 $201 $195 $289 reversed $193 $-1 #
vertex $-1 $130 $299 #
straight-curve $-1 0 47.048638586448284 13.071156239749545 -1 0 0 I I #
coedge $-1 $131 $196 $133 $215 reversed $75 $-1 #
vertex $-1 $207 $300 #
straight-curve $-1 0 -47.048638586448284 13.071156239749545 1 0 0 I I #
edge $-1 $136 -13.071156239749545 $204 13.071156239749545 $133 $301 forward 7 unknown #
edge $-1 $137 -13.071156239749545 $203 13.071156239749545 $134 $302 forward 7 unknown #
point $-1 77.834406567583244 -47.048638586448284 13.071156239749545 #
point $-1 77.834406567583244 47.048638586448284 13.071156239749545 #
face $-1 $-1 $233 $19 $-1 $303 reversed single #
loop $-1 $-1 $304 $139 #
plane-surface $-1 0 -55.676654832905676 10.143898584092753 0 1 0 0 0 1 forward_v I I I I #
coedge $-1 $305 $142 $151 $237 reversed $83 $-1 #
coedge $-1 $142 $305 $143 $225 reversed $83 $-1 #
coedge $-1 $144 $143 $306 $307 forward $53 $-1 #
edge $-1 $229 47.048638586448284 $308 55.676654832905676 $223 $309 forward 7 unknown #
coedge $-1 $310 $148 $144 $227 reversed $233 $-1 #
edge $-1 $311 -55.676654832905676 $228 -47.048638586448284 $226 $312 forward 7 unknown #
vertex $-1 $149 $313 #
vertex $-1 $225 $314 #
straight-curve $-1 0 -47.048638586448284 13.071156239749545 -1 0 0 I I #
straight-curve $-1 -77.834406567583244 -47.048638586448284 0 0 0 -1 I I #
coedge $-1 $148 $310 $150 $236 reversed $233 $-1 #
loop $-1 $-1 $148 $219 #
straight-curve $-1 77.834406567583244 -47.048638586448284 0 0 0 1 I I #
coedge $-1 $151 $150 $315 $316 forward $140 $-1 #
edge $-1 $152 -4.314008123228696 $317 4.314008123228696 $232 $318 forward 7 unknown #
edge $-1 $319 -4.314008123228696 $153 4.314008123228696 $222 $320 forward 7 unknown #
point $-1 77.834406567583244 -47.048638586448284 7.2166409284359609 #
point $-1 -77.834406567583244 -47.048638586448284 7.2166409284359609 #
face $-1 $-1 $255 $20 $-1 $321 reversed single #
loop $-1 $-1 $251 $155 #
plane-surface $-1 0 0 13.071156239749545 0 0 1 1 0 0 forward_v I I I I #
coedge $-1 $322 $323 $246 $324 forward $156 $-1 #
coedge $-1 $158 $165 $322 $325 forward $91 $-1 #
edge $-1 $326 -4.314008123228696 $167 4.314008123228696 $159 $327 forward 7 unknown #
coedge $-1 $160 $159 $243 $324 reversed $57 $-1 #
coedge $-1 $328 $251 $160 $248 forward $241 $-1 #
edge $-1 $249 47.048638586448284 $329 55.676654832905683 $160 $330 forward 7 unknown #
vertex $-1 $248 $331 #
straight-curve $-1 77.834406567583244 47.048638586448284 0 0 0 -1 I I #
coedge $-1 $247 $332 $162 $252 forward $241 $-1 #
edge $-1 $256 -77.834406567583244 $249 77.834406567583244 $251 $333 forward 7 unknown #
coedge $-1 $334 $163 $332 $335 reversed $255 $-1 #
coedge $-1 $163 $334 $165 $258 reversed $255 $-1 #
loop $-1 $-1 $163 $240 #
vertex $-1 $164 $336 #
straight-curve $-1 -77.834406567583244 47.048638586448284 0 0 0 1 I I #
edge $-1 $166 -4.314008123228696 $337 4.314008123228696 $254 $338 forward 7 unknown #
point $-1 -77.834406567583244 47.048638586448291 7.2166409284359609 #
point $-1 77.834406567583244 47.048638586448291 7.2166409284359609 #
loop $-1 $-1 $177 $169 #
plane-surface $-1 77.834406567583244 0 0 -1 0 0 0 0 1 forward_v I I I I #
coedge $-1 $264 $172 $174 $268 reversed $99 $-1 #
coedge $-1 $172 $263 $339 $340 reversed $99 $-1 #
coedge $-1 $180 $175 $172 $266 forward $170 $-1 #
edge $-1 $269 53.491081752401733 $341 58.03143401687128 $265 $342 forward 7 unknown #
coedge $-1 $174 $173 $272 $343 reversed $61 $-1 #
edge $-1 $344 -155.66881313516649 $269 -150.12606643165293 $263 $345 forward 7 unknown #
vertex $-1 $176 $346 #
straight-curve $-1 73.294054303113683 -13.013532283648271 13.071156239749548 0 -1 0 I I #
coedge $-1 $339 $177 $180 $276 reversed $261 $-1 #
coedge $-1 $177 $339 $267 $343 forward $261 $-1 #
vertex $-1 $178 $347 #
straight-curve $-1 77.834406567583244 -21.80932047662052 113.3481786213693 0 0 1 I I #
straight-curve $-1 -49.68201913837639 -21.80932047662052 99.179931536778966 0.81915203911291934 0 -0.57357644374324357 I I #
edge $-1 $341 -30.244808657972563 $181 -21.80932047662052 $271 $348 forward 7 unknown #
point $-1 77.834406567583244 -21.80932047662052 13.071156239749545 #
point $-1 73.294054303113697 -21.80932047662052 13.071156239749541 #
edge $-1 $349 1 $349 0 $184 $-1 forward 7 unknown #
vertex $-1 $185 $350 #
ellipse-curve $-1 73.768756043088317 -27.834669177586264 8.9173586431512053 0.57357644374324357 0 0.81915203911291934 0.81915203911291934 0 -0.57357644374324357 1 I I #
point $-1 76.383382474461385 -27.834669177586264 10.907985324620865 #
edge $-1 $351 1 $351 0 $188 $-1 forward 7 unknown #
vertex $-1 $189 $352 #
ellipse-curve $-1 73.768756043088317 -24.219459957006816 8.9173586431512053 0.57357644374324357 0 0.81915203911291934 0.81915203911291934 0 -0.57357644374324357 1 I I #
point $-1 76.383382474461385 -24.219459957006816 10.907985324620865 #
plane-surface $-1 77.834406567583244 0 0 -1 0 0 0 0 1 forward_v I I I I #
coedge $-1 $197 $195 $199 $292 reversed $121 $-1 #
edge $-1 $210 -13.071156239749545 $294 13.071156239749545 $209 $353 forward 7 unknown #
vertex $-1 $292 $354 #
straight-curve $-1 -77.834406567583244 -47.048638586448284 0 0 0 -1 I I #
edge $-1 $290 -47.048638586448284 $294 47.048638586448284 $288 $355 forward 7 unknown #
straight-curve $-1 0 -47.048638586448284 -13.071156239749545 -1 0 0 I I #
vertex $-1 $202 $356 #
straight-curve $-1 0 47.048638586448284 -13.071156239749545 1 0 0 I I #
point $-1 77.834406567583244 47.048638586448284 -13.071156239749545 #
point $-1 77.834406567583244 -47.048638586448284 -13.071156239749545 #
straight-curve $-1 -77.834406567583244 0 13.071156239749545 0 -1 0 I I #
point $-1 -77.834406567583244 47.048638586448284 13.071156239749545 #
point $-1 -77.834406567583244 -47.048638586448284 13.071156239749545 #
straight-curve $-1 77.834406567583244 -47.048638586448284 0 0 0 -1 I I #
straight-curve $-1 77.834406567583244 47.048638586448284 0 0 0 -1 I I #
plane-surface $-1 77.834406567583244 0 0 -1 0 0 0 0 1 forward_v I I I I #
coedge $-1 $315 $306 $305 $357 forward $220 $-1 #
coedge $-1 $223 $222 $304 $357 reversed $83 $-1 #
coedge $-1 $304 $358 $224 $307 reversed $220 $-1 #
edge $-1 $308 -77.834406567583244 $311 77.834406567583244 $306 $359 forward 7 unknown #
vertex $-1 $225 $360 #
straight-curve $-1 -77.834406567583244 0 13.071156239749545 0 -1 0 I I #
coedge $-1 $232 $226 $358 $361 forward $233 $-1 #
vertex $-1 $227 $362 #
straight-curve $-1 77.834406567583244 0 13.071156239749545 0 1 0 I I #
point $-1 77.834406567583244 -47.048638586448284 13.071156239749545 #
point $-1 -77.834406567583244 -47.048638586448284 13.071156239749545 #
coedge $-1 $358 $304 $235 $316 reversed $220 $-1 #
edge $-1 $317 -77.834406567583244 $319 77.834406567583244 $315 $363 forward 7 unknown #
vertex $-1 $361 $364 #
straight-curve $-1 77.834406567583244 -51.36264670967698 7.2166409284359609 0 -1 0 I I #
vertex $-1 $237 $365 #
straight-curve $-1 -77.834406567583244 -51.36264670967698 7.2166409284359609 0 1 0 I I #
plane-surface $-1 -77.834406567583244 0 0 1 0 0 0 0 -1 forward_v I I I I #
coedge $-1 $366 $243 $244 $325 reversed $156 $-1 #
coedge $-1 $243 $366 $328 $367 reversed $156 $-1 #
edge $-1 $329 -2.927257655656792 $326 2.927257655656792 $246 $368 forward 7 unknown #
edge $-1 $337 -77.834406567583244 $326 77.834406567583244 $322 $369 forward 7 unknown #
vertex $-1 $245 $370 #
straight-curve $-1 77.834406567583244 51.362646709676987 7.2166409284359609 0 -1 0 I I #
coedge $-1 $332 $247 $323 $367 forward $241 $-1 #
vertex $-1 $248 $371 #
straight-curve $-1 77.834406567583244 0 13.071156239749545 0 1 0 I I #
point $-1 77.834406567583244 47.048638586448284 13.071156239749545 #
coedge $-1 $251 $328 $253 $335 forward $241 $-1 #
straight-curve $-1 0 47.048638586448284 13.071156239749545 1 0 0 I I #
coedge $-1 $254 $253 $366 $372 forward $255 $-1 #
edge $-1 $373 -55.676654832905683 $256 -47.048638586448284 $253 $374 forward 7 unknown #
point $-1 -77.834406567583244 47.048638586448284 13.071156239749545 #
vertex $-1 $325 $375 #
straight-curve $-1 -77.834406567583244 51.362646709676987 7.2166409284359609 0 1 0 I I #
coedge $-1 $272 $271 $264 $340 forward $261 $-1 #
edge $-1 $341 100.27702238161976 $344 103.45621132439065 $339 $376 forward 7 unknown #
vertex $-1 $276 $377 #
straight-curve $-1 19.802972550711964 -30.244808657972563 13.071156239749541 1 0 0 I I #
edge $-1 $344 -17.231276374324292 $273 -8.7957881929722497 $272 $378 forward 7 unknown #
vertex $-1 $343 $379 #
straight-curve $-1 -49.68201913837639 -30.244808657972563 99.179931536778966 -0.81915203911291934 0 0.57357644374324357 I I #
point $-1 73.294054303113697 -30.244808657972563 13.071156239749541 #
point $-1 77.834406567583244 -21.80932047662052 9.891967296978649 #
straight-curve $-1 77.834406567583244 0 13.071156239749545 0 1 0 I I #
vertex $-1 $279 $380 #
point $-1 74.587908082201238 -27.834669177586264 8.3437821994079631 #
vertex $-1 $283 $381 #
point $-1 74.587908082201238 -24.219459957006816 8.3437821994079631 #
straight-curve $-1 -77.834406567583244 47.048638586448284 0 0 0 -1 I I #
point $-1 -77.834406567583244 -47.048638586448284 -13.071156239749545 #
straight-curve $-1 -77.834406567583244 0 -13.071156239749545 0 1 0 I I #
point $-1 -77.834406567583244 47.048638586448284 -13.071156239749545 #
edge $-1 $308 -2.927257655656792 $319 2.927257655656792 $305 $382 forward 7 unknown #
coedge $-1 $306 $315 $310 $361 reversed $220 $-1 #
straight-curve $-1 0 -55.676654832905676 13.071156239749545 1 0 0 I I #
point $-1 -77.834406567583244 -55.676654832905676 13.071156239749545 #
edge $-1 $311 -2.927257655656792 $317 2.927257655656792 $310 $383 forward 7 unknown #
point $-1 77.834406567583244 -55.676654832905676 13.071156239749545 #
straight-curve $-1 0 -55.676654832905676 7.2166409284359609 -1 0 0 I I #
point $-1 77.834406567583244 -55.676654832905676 7.2166409284359609 #
point $-1 -77.834406567583244 -55.676654832905676 7.2166409284359609 #
coedge $-1 $323 $322 $334 $372 reversed $156 $-1 #
edge $-1 $329 -77.834406567583244 $373 77.834406567583244 $323 $384 forward 7 unknown #
straight-curve $-1 77.834406567583244 55.676654832905683 10.143898584092753 0 0 -1 I I #
straight-curve $-1 0 55.676654832905683 7.2166409284359609 1 0 0 I I #
point $-1 77.834406567583244 55.676654832905683 7.2166409284359609 #
point $-1 77.834406567583244 55.676654832905683 13.071156239749545 #
edge $-1 $373 -2.927257655656792 $337 2.927257655656792 $366 $385 forward 7 unknown #
vertex $-1 $367 $386 #
straight-curve $-1 -77.834406567583244 0 13.071156239749545 0 -1 0 I I #
point $-1 -77.834406567583244 55.676654832905683 7.2166409284359609 #
straight-curve $-1 77.834406567583244 -30.244808657972563 113.3481786213693 0 0 -1 I I #
point $-1 77.834406567583244 -30.244808657972563 13.071156239749545 #
straight-curve $-1 77.834406567583244 -13.013532283648271 9.891967296978649 0 1 0 I I #
point $-1 77.834406567583244 -30.244808657972563 9.891967296978649 #
point $-1 73.195179599345082 -27.834669177586264 8.0982066040382872 #
point $-1 73.195179599345082 -24.219459957006816 8.0982066040382872 #
straight-curve $-1 -77.834406567583244 -55.676654832905676 10.143898584092753 0 0 -1 I I #
straight-curve $-1 77.834406567583244 -55.676654832905676 10.143898584092753 0 0 -1 I I #
straight-curve $-1 0 55.676654832905683 13.071156239749545 -1 0 0 I I #
straight-curve $-1 -77.834406567583244 55.676654832905683 10.143898584092753 0 0 -1 I I #
point $-1 -77.834406567583244 55.676654832905683 13.071156239749545 #
End-of-ACIS-data 