500 0 8 0           
7 Unknown 11 ACIS 5.0 NT 24 Fri Mar 26 02:57:12 1999 
-1 9.9999999999999995e-007 1e-010 
body $-1 $8 $-1 $9 #
body $-1 $10 $-1 $11 #
body $-1 $12 $-1 $13 #
body $-1 $14 $-1 $15 #
body $-1 $16 $-1 $17 #
body $-1 $18 $-1 $19 #
body $-1 $20 $-1 $21 #
body $-1 $22 $-1 $23 #
lump $-1 $-1 $24 $0 #
transform $-1 1 0 0 0 1 0 0 0 1 41.919003875850706 23.363828726593031 10.518250662567128 1 rotate no_reflect no_shear #
lump $-1 $-1 $25 $1 #
transform $-1 1 0 0 0 1 0 0 0 1 41.919003875850706 23.363828726593031 10.518250662567128 1 rotate no_reflect no_shear #
lump $-1 $-1 $26 $2 #
transform $-1 1 0 0 0 1 0 0 0 1 41.919003875850706 23.363828726593031 10.518250662567128 1 rotate no_reflect no_shear #
lump $-1 $-1 $27 $3 #
transform $-1 1 0 0 0 1 0 0 0 1 41.919003875850706 23.363828726593031 10.518250662567128 1 rotate no_reflect no_shear #
lump $-1 $-1 $28 $4 #
transform $-1 1 0 0 0 1 0 0 0 1 41.919003875850706 23.363828726593031 10.518250662567128 1 rotate no_reflect no_shear #
lump $-1 $-1 $29 $5 #
transform $-1 1 0 0 0 1 0 0 0 1 41.919003875850706 23.363828726593031 10.518250662567128 1 rotate no_reflect no_shear #
lump $-1 $-1 $30 $6 #
transform $-1 1 0 0 0 1 0 0 0 1 41.919003875850706 23.363828726593031 10.518250662567128 1 rotate no_reflect no_shear #
lump $-1 $-1 $31 $7 #
transform $-1 1 0 0 0 1 0 0 0 1 41.919003875850706 23.363828726593031 10.518250662567128 1 rotate no_reflect no_shear #
shell $-1 $-1 $-1 $32 $-1 $8 #
shell $-1 $-1 $-1 $33 $-1 $10 #
shell $-1 $-1 $-1 $34 $-1 $12 #
shell $-1 $-1 $-1 $35 $-1 $14 #
shell $-1 $-1 $-1 $36 $-1 $16 #
shell $-1 $-1 $-1 $37 $-1 $18 #
shell $-1 $-1 $-1 $38 $-1 $20 #
shell $-1 $-1 $-1 $39 $-1 $22 #
face $-1 $40 $41 $24 $-1 $42 forward single #
face $-1 $43 $44 $25 $-1 $45 forward single #
face $-1 $46 $47 $26 $-1 $48 reversed single #
face $-1 $49 $50 $27 $-1 $51 forward single #
face $-1 $52 $53 $28 $-1 $54 forward single #
face $-1 $55 $56 $29 $-1 $57 reversed single #
face $-1 $58 $59 $30 $-1 $60 forward single #
face $-1 $61 $62 $31 $-1 $63 forward single #
face $-1 $64 $65 $24 $-1 $66 reversed single #
loop $-1 $-1 $67 $32 #
plane-surface $-1 0 0 10.518250662567128 0 0 1 1 0 0 forward_v I I I I #
face $-1 $68 $69 $25 $-1 $70 reversed single #
loop $-1 $-1 $71 $33 #
plane-surface $-1 0 -17.868793096016464 -5.699828060695423 0 0 1 1 0 0 forward_v I I I I #
face $-1 $72 $73 $26 $-1 $74 reversed single #
loop $-1 $-1 $75 $34 #
plane-surface $-1 -107.98425623718887 -12.373757465439898 57.985934513922061 0 1 0 -0.78801076186113728 0 0.61566146476048833 forward_v I I I I #
face $-1 $76 $77 $27 $-1 $78 forward single #
loop $-1 $79 $80 $35 #
cone-surface $-1 -39.117505997228008 -9.538315651540481 7.5214366264068797 0.78801076186113728 0 -0.61566146476048833 0.61566146476048833 0 0.78801076186113728 1 I I 0 1 1 forward I I I I #
face $-1 $81 $82 $28 $-1 $83 forward single #
loop $-1 $84 $85 $36 #
cone-surface $-1 -39.117505997228008 -5.2851529306913569 7.5214366264068797 0.78801076186113728 0 -0.61566146476048833 0.61566146476048833 0 0.78801076186113728 1 I I 0 1 1 forward I I I I #
face $-1 $86 $87 $29 $-1 $88 reversed single #
loop $-1 $-1 $89 $37 #
plane-surface $-1 31.585397737242829 15.800675990983873 119.27833957208189 0 -1 0 -0.64278761758704617 0 -0.76604443648966558 forward_v I I I I #
face $-1 $90 $91 $30 $-1 $92 forward single #
loop $-1 $93 $94 $38 #
cone-surface $-1 35.831437546301871 8.5417408635147822 5.2289178024017557 -0.64278761758704617 0 -0.76604443648966558 0.76604443648966558 0 -0.64278761758704617 1 I I 0 1 1 forward I I I I #
face $-1 $95 $96 $31 $-1 $97 forward single #
loop $-1 $98 $99 $39 #
cone-surface $-1 35.831437546301871 12.897101939996244 5.2289178024017557 -0.64278761758704617 0 -0.76604443648966558 0.76604443648966558 0 -0.64278761758704617 1 I I 0 1 1 forward I I I I #
face $-1 $100 $101 $24 $-1 $102 reversed single #
loop $-1 $-1 $103 $40 #
plane-surface $-1 0 0 -10.518250662567128 0 0 1 1 0 0 forward_v I I I I #
coedge $-1 $104 $105 $106 $107 forward $41 $-1 #
face $-1 $108 $109 $25 $-1 $110 reversed single #
loop $-1 $-1 $111 $43 #
plane-surface $-1 0 -12.373757465439898 -8.1090393616312753 0 -1 0 0 0 -1 forward_v I I I I #
coedge $-1 $112 $113 $114 $115 reversed $44 $-1 #
face $-1 $116 $117 $26 $-1 $118 reversed single #
loop $-1 $-1 $119 $46 #
plane-surface $-1 -41.919003875850706 -7.4117342911159199 6.3701038589083936 -0.78801076186113728 0 0.61566146476048833 0.61566146476048833 0 0.78801076186113728 forward_v I I I I #
coedge $-1 $120 $121 $122 $123 reversed $47 $-1 #
face $-1 $-1 $124 $27 $-1 $125 forward single #
loop $-1 $126 $127 $49 #
cone-surface $-1 -37.542446430061858 -9.538315651540481 6.2908652596957548 0.78801076186113728 0 -0.61566146476048833 0.30783073238024417 0 0.39400538093056864 1 I I -0.70710678118654746 0.70710678118654746 0.5 forward I I I I #
loop $-1 $-1 $128 $35 #
coedge $-1 $80 $80 $129 $130 reversed $50 $-1 #
face $-1 $-1 $131 $28 $-1 $132 forward single #
loop $-1 $133 $134 $52 #
cone-surface $-1 -37.542446430061858 -5.2851529306913569 6.2908652596957548 0.78801076186113728 0 -0.61566146476048833 0.30783073238024417 0 0.39400538093056864 1 I I -0.70710678118654746 0.70710678118654746 0.5 forward I I I I #
loop $-1 $-1 $135 $36 #
coedge $-1 $85 $85 $136 $137 reversed $53 $-1 #
face $-1 $138 $139 $29 $-1 $140 reversed single #
loop $-1 $-1 $141 $55 #
plane-surface $-1 -22.304635528717633 10.719421401755508 55.054700167513573 0.64278761758704617 0 0.76604443648966558 0.76604443648966558 0 -0.64278761758704617 forward_v I I I I #
coedge $-1 $142 $143 $144 $145 reversed $56 $-1 #
face $-1 $-1 $146 $30 $-1 $147 forward single #
loop $-1 $148 $149 $58 #
cone-surface $-1 34.996060816630688 8.5417408635147822 4.2333546044985564 -0.64278761758704617 0 -0.76604443648966558 0.38302221824483279 0 -0.32139380879352308 1 I I -0.70710678118654813 0.70710678118654691 0.5 forward I I I I #
loop $-1 $-1 $150 $38 #
coedge $-1 $94 $94 $151 $152 reversed $59 $-1 #
face $-1 $-1 $153 $31 $-1 $154 forward single #
loop $-1 $155 $156 $61 #
cone-surface $-1 34.996060816630688 12.897101939996244 4.2333546044985564 -0.64278761758704617 0 -0.76604443648966558 0.38302221824483279 0 -0.32139380879352308 1 I I -0.70710678118654813 0.70710678118654691 0.5 forward I I I I #
loop $-1 $-1 $157 $39 #
coedge $-1 $99 $99 $158 $159 reversed $62 $-1 #
face $-1 $160 $161 $24 $-1 $162 reversed single #
loop $-1 $-1 $163 $64 #
plane-surface $-1 0 -23.363828726593031 0 0 1 0 0 0 1 forward_v I I I I #
coedge $-1 $164 $165 $166 $167 forward $65 $-1 #
coedge $-1 $168 $67 $169 $170 forward $41 $-1 #
coedge $-1 $67 $168 $171 $172 forward $41 $-1 #
coedge $-1 $173 $174 $67 $107 reversed $175 $-1 #
edge $-1 $176 -23.363828726593031 $177 23.363828726593031 $106 $178 forward 7 unknown #
face $-1 $179 $180 $25 $-1 $181 reversed single #
loop $-1 $-1 $182 $68 #
plane-surface $-1 0 0 -10.518250662567128 0 0 1 1 0 0 forward_v I I I I #
coedge $-1 $183 $184 $185 $186 reversed $69 $-1 #
coedge $-1 $187 $71 $184 $188 forward $44 $-1 #
coedge $-1 $71 $187 $189 $190 reversed $44 $-1 #
coedge $-1 $191 $185 $71 $115 forward $180 $-1 #
edge $-1 $192 3.4393609174316655 $193 14.429432178584799 $114 $194 forward 7 unknown #
face $-1 $195 $196 $26 $-1 $197 forward single #
loop $-1 $-1 $198 $72 #
plane-surface $-1 -107.98425623718887 -2.449711116791943 57.985934513922061 0 -1 0 0.78801076186113728 0 -0.61566146476048833 forward_v I I I I #
coedge $-1 $199 $200 $201 $202 reversed $73 $-1 #
coedge $-1 $121 $75 $203 $204 reversed $47 $-1 #
coedge $-1 $75 $120 $199 $205 reversed $47 $-1 #
coedge $-1 $201 $206 $75 $123 forward $196 $-1 #
edge $-1 $207 12.073124242743731 $208 15.314011627517942 $122 $209 forward 7 unknown #
loop $-1 $-1 $129 $76 #
plane-surface $-1 -41.919003875850706 -7.4117342911159199 6.3701038589083936 -0.78801076186113728 0 0.61566146476048833 0.61566146476048833 0 0.78801076186113728 forward_v I I I I #
loop $-1 $-1 $210 $49 #
coedge $-1 $127 $127 $128 $211 reversed $77 $-1 #
coedge $-1 $128 $128 $127 $211 forward $79 $-1 #
coedge $-1 $129 $129 $80 $130 forward $124 $-1 #
edge $-1 $212 0 $212 6.2831853071796004 $129 $213 forward 7 unknown #
loop $-1 $-1 $136 $81 #
plane-surface $-1 -41.919003875850706 -7.4117342911159199 6.3701038589083936 -0.78801076186113728 0 0.61566146476048833 0.61566146476048833 0 0.78801076186113728 forward_v I I I I #
loop $-1 $-1 $214 $52 #
coedge $-1 $134 $134 $135 $215 reversed $82 $-1 #
coedge $-1 $135 $135 $134 $215 forward $84 $-1 #
coedge $-1 $136 $136 $85 $137 forward $131 $-1 #
edge $-1 $216 0 $216 6.2831853071796004 $136 $217 forward 7 unknown #
face $-1 $218 $219 $29 $-1 $220 reversed single #
loop $-1 $-1 $221 $86 #
plane-surface $-1 31.585397737242829 5.6381668125271425 119.27833957208189 0 1 0 0.64278761758704617 0 0.76604443648966558 forward_v I I I I #
coedge $-1 $222 $223 $224 $225 reversed $87 $-1 #
coedge $-1 $143 $89 $226 $227 reversed $56 $-1 #
coedge $-1 $89 $142 $222 $228 reversed $56 $-1 #
coedge $-1 $224 $229 $89 $145 forward $230 $-1 #
edge $-1 $231 -26.126305007229291 $232 -14.979138189886925 $144 $233 forward 7 unknown #
loop $-1 $-1 $151 $90 #
plane-surface $-1 -22.304635528717633 10.719421401755508 55.054700167513573 0.64278761758704617 0 0.76604443648966558 0.76604443648966558 0 -0.64278761758704617 forward_v I I I I #
loop $-1 $-1 $234 $58 #
coedge $-1 $149 $149 $150 $235 reversed $91 $-1 #
coedge $-1 $150 $150 $149 $235 forward $93 $-1 #
coedge $-1 $151 $151 $94 $152 forward $146 $-1 #
edge $-1 $236 0 $236 6.2831853071796004 $151 $237 forward 7 unknown #
loop $-1 $-1 $158 $95 #
plane-surface $-1 -22.304635528717633 10.719421401755508 55.054700167513573 0.64278761758704617 0 0.76604443648966558 0.76604443648966558 0 -0.64278761758704617 forward_v I I I I #
loop $-1 $-1 $238 $61 #
coedge $-1 $156 $156 $157 $239 reversed $96 $-1 #
coedge $-1 $157 $157 $156 $239 forward $98 $-1 #
coedge $-1 $158 $158 $99 $159 forward $153 $-1 #
edge $-1 $240 0 $240 6.2831853071796004 $158 $241 forward 7 unknown #
face $-1 $242 $243 $24 $-1 $244 reversed single #
loop $-1 $-1 $245 $100 #
plane-surface $-1 -41.919003875850706 0 0 1 0 0 0 0 -1 forward_v I I I I #
coedge $-1 $246 $171 $247 $248 forward $101 $-1 #
coedge $-1 $249 $103 $246 $250 forward $65 $-1 #
coedge $-1 $103 $249 $251 $252 forward $65 $-1 #
coedge $-1 $174 $173 $103 $167 reversed $175 $-1 #
edge $-1 $253 -23.363828726593031 $254 23.363828726593031 $166 $255 forward 7 unknown #
coedge $-1 $105 $104 $256 $257 forward $41 $-1 #
coedge $-1 $258 $259 $104 $170 reversed $243 $-1 #
edge $-1 $177 -41.919003875850706 $260 41.919003875850706 $169 $261 forward 7 unknown #
coedge $-1 $163 $262 $105 $172 reversed $101 $-1 #
edge $-1 $263 -41.919003875850706 $176 41.919003875850706 $171 $264 forward 7 unknown #
coedge $-1 $166 $106 $262 $265 forward $175 $-1 #
coedge $-1 $106 $166 $258 $266 reversed $175 $-1 #
loop $-1 $-1 $173 $242 #
vertex $-1 $107 $267 #
vertex $-1 $107 $268 #
straight-curve $-1 41.919003875850706 0 10.518250662567128 0 1 0 I I #
face $-1 $269 $270 $25 $-1 $271 reversed single #
loop $-1 $-1 $185 $108 #
plane-surface $-1 41.919003875850706 0 0 -1 0 0 0 0 1 forward_v I I I I #
coedge $-1 $272 $273 $183 $274 forward $109 $-1 #
coedge $-1 $275 $111 $182 $274 reversed $69 $-1 #
coedge $-1 $111 $275 $112 $188 reversed $69 $-1 #
coedge $-1 $114 $276 $111 $186 forward $180 $-1 #
edge $-1 $277 -6.463730981751489 $192 -1.6453083798797854 $185 $278 forward 7 unknown #
coedge $-1 $113 $112 $279 $280 reversed $44 $-1 #
edge $-1 $192 -41.919003875850706 $281 41.919003875850706 $184 $282 forward 7 unknown #
coedge $-1 $283 $284 $113 $190 forward $270 $-1 #
edge $-1 $193 -41.919003875850706 $285 41.919003875850706 $189 $286 forward 7 unknown #
coedge $-1 $276 $114 $284 $287 forward $180 $-1 #
vertex $-1 $115 $288 #
vertex $-1 $287 $289 #
straight-curve $-1 41.919003875850706 -8.9343965480082321 -5.699828060695423 0 -1 0 I I #
face $-1 $-1 $290 $26 $-1 $291 reversed single #
loop $-1 $-1 $122 $116 #
plane-surface $-1 0 0 10.518250662567128 0 0 1 1 0 0 forward_v I I I I #
coedge $-1 $292 $293 $294 $295 reversed $117 $-1 #
coedge $-1 $296 $119 $121 $205 forward $73 $-1 #
coedge $-1 $119 $296 $292 $297 forward $73 $-1 #
coedge $-1 $294 $122 $119 $202 forward $196 $-1 #
edge $-1 $208 -8.6678903198819377 $298 1.256156028766017 $201 $299 forward 7 unknown #
coedge $-1 $300 $301 $120 $204 forward $290 $-1 #
edge $-1 $302 -22.622863398052637 $207 -18.474716594393904 $203 $303 forward 7 unknown #
edge $-1 $208 -5.2640737974968399 $302 0 $121 $304 forward 7 unknown #
coedge $-1 $122 $294 $300 $305 forward $196 $-1 #
vertex $-1 $204 $306 #
vertex $-1 $123 $307 #
straight-curve $-1 -53.992128118594437 -12.373757465439898 10.518250662567127 1 0 0 I I #
coedge $-1 $210 $210 $-1 $308 reversed $126 $-1 #
edge $-1 $309 0 $309 6.2831853071796004 $127 $310 forward 7 unknown #
vertex $-1 $130 $311 #
ellipse-curve $-1 -40.2985601834636 -9.538315651540481 8.4441772607377636 -0.78801076186113728 0 0.61566146476048833 0.61566146476048833 0 0.78801076186113728 1 I I #
coedge $-1 $214 $214 $-1 $312 reversed $133 $-1 #
edge $-1 $313 0 $313 6.2831853071796004 $134 $314 forward 7 unknown #
vertex $-1 $137 $315 #
ellipse-curve $-1 -40.2985601834636 -5.2851529306913569 8.4441772607377636 -0.78801076186113728 0 0.61566146476048833 0.61566146476048833 0 0.78801076186113728 1 I I #
face $-1 $-1 $230 $29 $-1 $316 forward single #
loop $-1 $-1 $317 $138 #
plane-surface $-1 41.919003875850706 0 0 -1 0 0 0 0 1 forward_v I I I I #
coedge $-1 $318 $319 $320 $321 reversed $139 $-1 #
coedge $-1 $322 $141 $143 $228 forward $87 $-1 #
coedge $-1 $141 $322 $318 $323 forward $87 $-1 #
coedge $-1 $320 $144 $141 $225 forward $230 $-1 #
edge $-1 $232 -10.440965290106119 $324 -0.27845611164938866 $224 $325 forward 7 unknown #
coedge $-1 $326 $327 $142 $227 forward $219 $-1 #
edge $-1 $328 -58.474502884487841 $231 -49.120919123473819 $226 $329 forward 7 unknown #
edge $-1 $232 69.286414807011013 $328 83.838007751701412 $143 $330 forward 7 unknown #
coedge $-1 $144 $320 $326 $331 forward $230 $-1 #
loop $-1 $-1 $320 $218 #
vertex $-1 $227 $332 #
vertex $-1 $145 $333 #
straight-curve $-1 15.792698868621414 15.800675990983873 10.518250662567127 -1 0 0 I I #
coedge $-1 $234 $234 $-1 $334 reversed $148 $-1 #
edge $-1 $335 0 $335 6.2831853071796004 $149 $336 forward 7 unknown #
vertex $-1 $152 $337 #
ellipse-curve $-1 36.345420467179522 8.5417408635147822 5.8414587820601165 0.64278761758704617 0 0.76604443648966558 0.76604443648966558 0 -0.64278761758704617 1 I I #
coedge $-1 $238 $238 $-1 $338 reversed $155 $-1 #
edge $-1 $339 0 $339 6.2831853071796004 $156 $340 forward 7 unknown #
vertex $-1 $159 $341 #
ellipse-curve $-1 36.345420467179522 12.897101939996244 5.8414587820601165 0.64278761758704617 0 0.76604443648966558 0.76604443648966558 0 -0.64278761758704617 1 I I #
face $-1 $-1 $175 $24 $-1 $342 reversed single #
loop $-1 $-1 $258 $160 #
plane-surface $-1 0 23.363828726593031 0 0 -1 0 0 0 -1 forward_v I I I I #
coedge $-1 $343 $256 $259 $344 forward $161 $-1 #
coedge $-1 $262 $163 $164 $250 reversed $101 $-1 #
coedge $-1 $256 $343 $163 $248 reversed $161 $-1 #
edge $-1 $263 -10.518250662567128 $345 10.518250662567128 $247 $346 forward 7 unknown #
coedge $-1 $165 $164 $343 $347 forward $65 $-1 #
edge $-1 $254 -41.919003875850706 $345 41.919003875850706 $246 $348 forward 7 unknown #
coedge $-1 $259 $258 $165 $252 reversed $243 $-1 #
edge $-1 $349 -41.919003875850706 $253 41.919003875850706 $251 $350 forward 7 unknown #
vertex $-1 $167 $351 #
vertex $-1 $265 $352 #
straight-curve $-1 41.919003875850706 0 -10.518250662567128 0 -1 0 I I #
coedge $-1 $245 $247 $168 $257 reversed $161 $-1 #
edge $-1 $260 -23.363828726593031 $263 23.363828726593031 $256 $353 forward 7 unknown #
coedge $-1 $251 $169 $174 $266 forward $243 $-1 #
coedge $-1 $169 $251 $245 $344 reversed $243 $-1 #
vertex $-1 $170 $354 #
straight-curve $-1 0 23.363828726593031 10.518250662567128 -1 0 0 I I #
coedge $-1 $171 $246 $173 $265 reversed $101 $-1 #
vertex $-1 $257 $355 #
straight-curve $-1 0 -23.363828726593031 10.518250662567128 1 0 0 I I #
edge $-1 $176 -10.518250662567128 $254 10.518250662567128 $173 $356 forward 7 unknown #
edge $-1 $177 -10.518250662567128 $253 10.518250662567128 $174 $357 forward 7 unknown #
point $-1 41.919003875850706 -23.363828726593031 10.518250662567128 #
point $-1 41.919003875850706 23.363828726593031 10.518250662567128 #
face $-1 $-1 $358 $25 $-1 $359 reversed single #
loop $-1 $-1 $189 $179 #
plane-surface $-1 0 -23.363828726593031 0 0 1 0 0 0 1 forward_v I I I I #
coedge $-1 $360 $182 $276 $361 forward $109 $-1 #
coedge $-1 $182 $360 $362 $363 forward $109 $-1 #
edge $-1 $364 -41.919003875850706 $277 41.919003875850706 $182 $365 forward 7 unknown #
coedge $-1 $184 $183 $366 $367 reversed $69 $-1 #
coedge $-1 $185 $191 $272 $361 reversed $180 $-1 #
vertex $-1 $361 $368 #
straight-curve $-1 41.919003875850706 -12.373757465439898 -4.0545196808156376 0 0 1 I I #
coedge $-1 $366 $369 $187 $280 forward $358 $-1 #
edge $-1 $285 -14.429432178584799 $281 -3.4393609174316655 $279 $370 forward 7 unknown #
vertex $-1 $280 $371 #
straight-curve $-1 0 -12.373757465439898 -5.699828060695423 -1 0 0 I I #
coedge $-1 $372 $189 $369 $373 forward $270 $-1 #
coedge $-1 $189 $372 $191 $287 reversed $270 $-1 #
vertex $-1 $373 $374 #
straight-curve $-1 0 -23.363828726593031 -5.699828060695423 -1 0 0 I I #
edge $-1 $193 5.699828060695423 $375 10.518250662567128 $191 $376 forward 7 unknown #
point $-1 41.919003875850706 -12.373757465439898 -5.699828060695423 #
point $-1 41.919003875850706 -23.363828726593031 -5.699828060695423 #
loop $-1 $-1 $203 $195 #
plane-surface $-1 -41.919003875850706 0 0 1 0 0 0 0 -1 forward_v I I I I #
coedge $-1 $293 $198 $200 $297 reversed $117 $-1 #
coedge $-1 $198 $292 $377 $378 reversed $117 $-1 #
coedge $-1 $206 $201 $198 $295 forward $196 $-1 #
edge $-1 $298 -15.314011627517942 $379 -12.073124242743731 $294 $380 forward 7 unknown #
coedge $-1 $200 $199 $301 $381 reversed $73 $-1 #
edge $-1 $382 0 $298 5.2640737974968399 $292 $383 forward 7 unknown #
vertex $-1 $202 $384 #
straight-curve $-1 -38.678116491076494 -3.7058671455579599 10.518250662567127 0 1 0 I I #
coedge $-1 $377 $203 $206 $305 reversed $290 $-1 #
coedge $-1 $203 $377 $296 $381 forward $290 $-1 #
vertex $-1 $204 $385 #
straight-curve $-1 -41.919003875850706 -12.373757465439898 28.99296725696103 0 0 1 I I #
straight-curve $-1 -41.919003875850706 -12.373757465439898 6.3701038589083936 -0.61566146476048833 0 -0.78801076186113728 I I #
edge $-1 $379 2.449711116791943 $207 12.373757465439898 $300 $386 forward 7 unknown #
point $-1 -41.919003875850706 -12.373757465439898 10.518250662567128 #
point $-1 -38.678116491076494 -12.373757465439898 10.518250662567128 #
edge $-1 $387 1 $387 0 $210 $-1 forward 7 unknown #
vertex $-1 $211 $388 #
ellipse-curve $-1 -37.936451810992423 -9.538315651540481 6.5986959920759993 -0.78801076186113728 0 0.61566146476048833 0.61566146476048833 0 0.78801076186113728 1 I I #
point $-1 -39.682898718703107 -9.538315651540481 9.2321880225988977 #
edge $-1 $389 1 $389 0 $214 $-1 forward 7 unknown #
vertex $-1 $215 $390 #
ellipse-curve $-1 -37.936451810992423 -5.2851529306913569 6.5986959920759993 -0.78801076186113728 0 0.61566146476048833 0.61566146476048833 0 0.78801076186113728 1 I I #
point $-1 -39.682898718703107 -5.2851529306913569 9.2321880225988977 #
plane-surface $-1 0 0 10.518250662567128 0 0 1 1 0 0 forward_v I I I I #
coedge $-1 $327 $326 $319 $391 forward $219 $-1 #
coedge $-1 $319 $221 $223 $323 reversed $139 $-1 #
coedge $-1 $221 $318 $317 $391 reversed $139 $-1 #
coedge $-1 $229 $224 $221 $321 forward $230 $-1 #
edge $-1 $324 14.979138189886925 $392 26.126305007229291 $320 $393 forward 7 unknown #
coedge $-1 $223 $222 $327 $394 reversed $87 $-1 #
edge $-1 $395 -83.838007751701412 $324 -69.286414807011013 $318 $396 forward 7 unknown #
vertex $-1 $225 $397 #
straight-curve $-1 30.771837058508332 5.3597107008777538 10.518250662567134 0 -1 0 I I #
coedge $-1 $317 $226 $229 $331 reversed $219 $-1 #
coedge $-1 $226 $317 $322 $394 forward $219 $-1 #
vertex $-1 $227 $398 #
straight-curve $-1 41.919003875850706 15.800675990983873 59.639169786040945 0 0 1 I I #
straight-curve $-1 -22.304635528717633 15.800675990983873 55.054700167513573 0.76604443648966558 0 -0.64278761758704617 I I #
edge $-1 $392 5.6381668125271425 $231 15.800675990983873 $326 $399 forward 7 unknown #
point $-1 41.919003875850706 15.800675990983873 10.518250662567128 #
point $-1 30.771837058508339 15.800675990983873 10.518250662567127 #
edge $-1 $400 1 $400 0 $234 $-1 forward 7 unknown #
vertex $-1 $235 $401 #
ellipse-curve $-1 35.317454625424212 8.5417408635147822 4.6163768227433888 0.64278761758704617 0 0.76604443648966558 0.76604443648966558 0 -0.64278761758704617 1 I I #
point $-1 37.111464903669187 8.5417408635147822 5.198671164473077 #
edge $-1 $402 1 $402 0 $238 $-1 forward 7 unknown #
vertex $-1 $239 $403 #
ellipse-curve $-1 35.317454625424212 12.897101939996244 4.6163768227433888 0.64278761758704617 0 0.76604443648966558 0.76604443648966558 0 -0.64278761758704617 1 I I #
point $-1 37.111464903669187 12.897101939996244 5.198671164473077 #
plane-surface $-1 41.919003875850706 0 0 -1 0 0 0 0 1 forward_v I I I I #
coedge $-1 $247 $245 $249 $347 reversed $161 $-1 #
edge $-1 $260 -10.518250662567128 $349 10.518250662567128 $259 $404 forward 7 unknown #
vertex $-1 $347 $405 #
straight-curve $-1 -41.919003875850706 -23.363828726593031 0 0 0 -1 I I #
edge $-1 $345 -23.363828726593031 $349 23.363828726593031 $343 $406 forward 7 unknown #
straight-curve $-1 0 -23.363828726593031 -10.518250662567128 -1 0 0 I I #
vertex $-1 $252 $407 #
straight-curve $-1 0 23.363828726593031 -10.518250662567128 1 0 0 I I #
point $-1 41.919003875850706 23.363828726593031 -10.518250662567128 #
point $-1 41.919003875850706 -23.363828726593031 -10.518250662567128 #
straight-curve $-1 -41.919003875850706 0 10.518250662567128 0 -1 0 I I #
point $-1 -41.919003875850706 23.363828726593031 10.518250662567128 #
point $-1 -41.919003875850706 -23.363828726593031 10.518250662567128 #
straight-curve $-1 41.919003875850706 -23.363828726593031 0 0 0 -1 I I #
straight-curve $-1 41.919003875850706 23.363828726593031 0 0 0 -1 I I #
loop $-1 $-1 $366 $269 #
plane-surface $-1 -41.919003875850706 0 0 1 0 0 0 0 -1 forward_v I I I I #
coedge $-1 $273 $272 $372 $408 forward $109 $-1 #
edge $-1 $277 12.373757465439898 $375 23.363828726593031 $276 $409 forward 7 unknown #
coedge $-1 $369 $366 $273 $363 reversed $358 $-1 #
edge $-1 $410 -23.363828726593031 $364 -12.373757465439898 $362 $411 forward 7 unknown #
vertex $-1 $367 $412 #
straight-curve $-1 0 -12.373757465439898 -10.518250662567128 1 0 0 I I #
coedge $-1 $362 $279 $275 $367 forward $358 $-1 #
edge $-1 $281 1.6453083798797854 $364 6.463730981751489 $366 $413 forward 7 unknown #
point $-1 41.919003875850706 -12.373757465439898 -10.518250662567127 #
coedge $-1 $279 $362 $283 $373 reversed $358 $-1 #
straight-curve $-1 -41.919003875850706 -8.9343965480082321 -5.699828060695423 0 1 0 I I #
point $-1 -41.919003875850706 -12.373757465439898 -5.699828060695423 #
coedge $-1 $284 $283 $360 $408 reversed $270 $-1 #
edge $-1 $285 5.699828060695423 $410 10.518250662567128 $369 $414 forward 7 unknown #
point $-1 -41.919003875850706 -23.363828726593031 -5.699828060695423 #
vertex $-1 $287 $415 #
straight-curve $-1 41.919003875850706 -23.363828726593031 0 0 0 -1 I I #
coedge $-1 $301 $300 $293 $378 forward $290 $-1 #
edge $-1 $379 18.474716594393904 $382 22.622863398052637 $377 $416 forward 7 unknown #
vertex $-1 $305 $417 #
straight-curve $-1 -53.992128118594437 -2.449711116791943 10.518250662567127 -1 0 0 I I #
edge $-1 $382 -1.256156028766017 $302 8.6678903198819377 $301 $418 forward 7 unknown #
vertex $-1 $381 $419 #
straight-curve $-1 -41.919003875850706 -2.449711116791943 6.3701038589083936 0.61566146476048833 0 0.78801076186113728 I I #
point $-1 -38.678116491076494 -2.449711116791943 10.518250662567128 #
point $-1 -41.919003875850706 -12.373757465439898 6.3701038589083936 #
straight-curve $-1 -41.919003875850706 0 10.518250662567128 0 -1 0 I I #
vertex $-1 $308 $420 #
point $-1 -37.320790346231938 -9.538315651540481 7.386706753937136 #
vertex $-1 $312 $421 #
point $-1 -37.320790346231938 -5.2851529306913569 7.386706753937136 #
edge $-1 $392 49.120919123473819 $395 58.474502884487841 $317 $422 forward 7 unknown #
vertex $-1 $331 $423 #
straight-curve $-1 15.792698868621414 5.6381668125271425 10.518250662567127 1 0 0 I I #
edge $-1 $395 0.27845611164938866 $328 10.440965290106119 $327 $424 forward 7 unknown #
vertex $-1 $394 $425 #
straight-curve $-1 -22.304635528717633 5.6381668125271425 55.054700167513573 -0.76604443648966558 0 0.64278761758704617 I I #
point $-1 30.771837058508339 5.6381668125271425 10.518250662567127 #
point $-1 41.919003875850699 15.800675990983873 1.1646669015531046 #
straight-curve $-1 41.919003875850706 0 10.518250662567128 0 1 0 I I #
vertex $-1 $334 $426 #
point $-1 36.083499061913876 8.5417408635147822 3.9735892051563422 #
vertex $-1 $338 $427 #
point $-1 36.083499061913876 12.897101939996244 3.9735892051563422 #
straight-curve $-1 -41.919003875850706 23.363828726593031 0 0 0 -1 I I #
point $-1 -41.919003875850706 -23.363828726593031 -10.518250662567128 #
straight-curve $-1 -41.919003875850706 0 -10.518250662567128 0 1 0 I I #
point $-1 -41.919003875850706 23.363828726593031 -10.518250662567128 #
edge $-1 $375 -41.919003875850706 $410 41.919003875850706 $372 $428 forward 7 unknown #
straight-curve $-1 41.919003875850706 0 -10.518250662567128 0 -1 0 I I #
vertex $-1 $363 $429 #
straight-curve $-1 -41.919003875850706 0 -10.518250662567128 0 1 0 I I #
point $-1 -41.919003875850706 -12.373757465439898 -10.518250662567127 #
straight-curve $-1 -41.919003875850706 -12.373757465439898 -4.0545196808156376 0 0 -1 I I #
straight-curve $-1 -41.919003875850706 -23.363828726593031 0 0 0 -1 I I #
point $-1 41.919003875850706 -23.363828726593031 -10.518250662567128 #
straight-curve $-1 -41.919003875850706 -2.449711116791943 28.99296725696103 0 0 -1 I I #
point $-1 -41.919003875850706 -2.449711116791943 10.518250662567128 #
straight-curve $-1 -41.919003875850706 -3.7058671455579599 6.3701038589083971 0 -1 0 I I #
point $-1 -41.919003875850706 -2.449711116791943 6.3701038589083936 #
point $-1 -37.148441049131293 -9.538315651540481 5.9830345273155103 #
point $-1 -37.148441049131293 -5.2851529306913569 5.9830345273155103 #
straight-curve $-1 41.919003875850706 5.6381668125271425 59.639169786040945 0 0 -1 I I #
point $-1 41.919003875850706 5.6381668125271425 10.518250662567128 #
straight-curve $-1 41.919003875850706 5.3597107008777538 1.1646669015531046 0 1 0 I I #
point $-1 41.919003875850699 5.6381668125271425 1.1646669015531046 #
point $-1 34.674667007837165 8.5417408635147822 3.8503323862537244 #
point $-1 34.674667007837165 12.897101939996244 3.8503323862537244 #
straight-curve $-1 0 -23.363828726593031 -10.518250662567128 -1 0 0 I I #
point $-1 -41.919003875850706 -23.363828726593031 -10.518250662567128 #
End-of-ACIS-data 