500 0 6 0           
7 Unknown 11 ACIS 5.0 NT 24 Fri Mar 26 01:21:01 1999 
-1 9.9999999999999995e-007 1e-010 
body $-1 $6 $-1 $7 #
body $-1 $8 $-1 $9 #
body $-1 $10 $-1 $11 #
body $-1 $12 $-1 $13 #
body $-1 $14 $-1 $15 #
body $-1 $16 $-1 $17 #
lump $-1 $-1 $18 $0 #
transform $-1 1 0 0 0 1 0 0 0 1 55.803704947050385 29.016496013911691 12.932606313863618 1 rotate no_reflect no_shear #
lump $-1 $-1 $19 $1 #
transform $-1 1 0 0 0 1 0 0 0 1 55.803704947050385 29.016496013911691 12.932606313863618 1 rotate no_reflect no_shear #
lump $-1 $-1 $20 $2 #
transform $-1 1 0 0 0 1 0 0 0 1 55.803704947050385 29.016496013911691 12.932606313863618 1 rotate no_reflect no_shear #
lump $-1 $-1 $21 $3 #
transform $-1 1 0 0 0 1 0 0 0 1 55.803704947050385 29.016496013911691 12.932606313863618 1 rotate no_reflect no_shear #
lump $-1 $-1 $22 $4 #
transform $-1 1 0 0 0 1 0 0 0 1 55.803704947050385 29.016496013911691 12.932606313863618 1 rotate no_reflect no_shear #
lump $-1 $-1 $23 $5 #
transform $-1 1 0 0 0 1 0 0 0 1 55.803704947050385 29.016496013911691 12.932606313863618 1 rotate no_reflect no_shear #
shell $-1 $-1 $-1 $24 $-1 $6 #
shell $-1 $-1 $-1 $25 $-1 $8 #
shell $-1 $-1 $-1 $26 $-1 $10 #
shell $-1 $-1 $-1 $27 $-1 $12 #
shell $-1 $-1 $-1 $28 $-1 $14 #
shell $-1 $-1 $-1 $29 $-1 $16 #
face $-1 $30 $31 $18 $-1 $32 reversed single #
face $-1 $33 $34 $19 $-1 $35 forward single #
face $-1 $36 $37 $20 $-1 $38 reversed single #
face $-1 $39 $40 $21 $-1 $41 forward single #
face $-1 $42 $43 $22 $-1 $44 reversed single #
face $-1 $45 $46 $23 $-1 $47 forward single #
face $-1 $48 $49 $18 $-1 $50 forward single #
loop $-1 $-1 $51 $24 #
plane-surface $-1 -55.803704947050385 0 0 1 0 0 0 0 -1 forward_v I I I I #
face $-1 $52 $53 $19 $-1 $54 reversed single #
loop $-1 $-1 $55 $25 #
plane-surface $-1 -55.803704947050385 0 0 1 0 0 0 0 -1 forward_v I I I I #
face $-1 $56 $57 $20 $-1 $58 reversed single #
loop $-1 $-1 $59 $26 #
plane-surface $-1 85.920371774370153 -4.866328509269735 156.90350399978891 0 -1 0 -0.82903758062907751 0 -0.55919289150049634 forward_v I I I I #
face $-1 $60 $61 $21 $-1 $62 forward single #
loop $-1 $63 $64 $27 #
cone-surface $-1 51.236227733894552 -8.1684418109480426 6.8633838138125487 -0.82903758062907751 0 -0.55919289150049634 0.55919289150049634 0 -0.82903758062907751 1 I I 0 1 1 forward I I I I #
face $-1 $65 $66 $22 $-1 $67 reversed single #
loop $-1 $-1 $68 $28 #
plane-surface $-1 85.920371774370153 11.470555112626347 156.90350399978891 0 -1 0 -0.82903758062907751 0 -0.55919289150049634 forward_v I I I I #
face $-1 $69 $70 $23 $-1 $71 forward single #
loop $-1 $72 $73 $29 #
cone-surface $-1 51.236227733894552 8.168441810948039 6.8633838138125487 -0.82903758062907751 0 -0.55919289150049634 0.55919289150049634 0 -0.82903758062907751 1 I I 0 1 1 forward I I I I #
face $-1 $74 $75 $18 $-1 $76 reversed single #
loop $-1 $-1 $77 $30 #
plane-surface $-1 0 0 12.932606313863618 0 0 1 1 0 0 forward_v I I I I #
coedge $-1 $78 $79 $80 $81 reversed $31 $-1 #
face $-1 $82 $83 $19 $-1 $84 reversed single #
loop $-1 $-1 $85 $33 #
plane-surface $-1 0 0 -12.932606313863618 0 0 1 1 0 0 forward_v I I I I #
coedge $-1 $86 $87 $88 $89 forward $34 $-1 #
face $-1 $90 $91 $20 $-1 $92 reversed single #
loop $-1 $-1 $93 $36 #
plane-surface $-1 -6.60636530451292 -8.1684418109480426 94.493433748225598 0.82903758062907751 0 0.55919289150049634 0.55919289150049634 0 -0.82903758062907751 forward_v I I I I #
coedge $-1 $94 $95 $96 $97 reversed $37 $-1 #
face $-1 $-1 $98 $21 $-1 $99 forward single #
loop $-1 $100 $101 $39 #
cone-surface $-1 49.952531340316334 -8.1684418109480426 5.9975196902717709 -0.82903758062907751 0 -0.55919289150049634 0.27959644575024817 0 -0.41451879031453875 1 I I -0.70710678118654746 0.70710678118654746 0.5 forward I I I I #
loop $-1 $-1 $102 $27 #
coedge $-1 $64 $64 $103 $104 reversed $40 $-1 #
face $-1 $105 $106 $22 $-1 $107 reversed single #
loop $-1 $-1 $108 $42 #
plane-surface $-1 -6.60636530451292 8.168441810948039 94.493433748225598 0.82903758062907751 0 0.55919289150049634 0.55919289150049634 0 -0.82903758062907751 forward_v I I I I #
coedge $-1 $109 $110 $111 $112 reversed $43 $-1 #
face $-1 $-1 $113 $23 $-1 $114 forward single #
loop $-1 $115 $116 $45 #
cone-surface $-1 49.952531340316334 8.168441810948039 5.9975196902717709 -0.82903758062907751 0 -0.55919289150049634 0.27959644575024817 0 -0.41451879031453875 1 I I -0.70710678118654746 0.70710678118654746 0.5 forward I I I I #
loop $-1 $-1 $117 $29 #
coedge $-1 $73 $73 $118 $119 reversed $46 $-1 #
face $-1 $120 $121 $18 $-1 $122 reversed single #
loop $-1 $-1 $123 $48 #
plane-surface $-1 0 0 -12.932606313863618 0 0 1 1 0 0 forward_v I I I I #
coedge $-1 $124 $125 $126 $127 forward $49 $-1 #
coedge $-1 $128 $51 $129 $130 reversed $31 $-1 #
coedge $-1 $51 $128 $131 $132 forward $31 $-1 #
coedge $-1 $133 $134 $51 $81 forward $75 $-1 #
edge $-1 $135 -29.016496013911691 $136 29.016496013911691 $51 $137 forward 7 unknown #
face $-1 $138 $139 $19 $-1 $140 reversed single #
loop $-1 $-1 $141 $52 #
plane-surface $-1 -62.460431229939708 -10.069079895697403 0 0 1 0 0 0 1 forward_v I I I I #
coedge $-1 $142 $143 $87 $144 forward $53 $-1 #
coedge $-1 $145 $55 $146 $147 reversed $34 $-1 #
coedge $-1 $55 $145 $85 $144 reversed $34 $-1 #
coedge $-1 $148 $149 $55 $89 reversed $150 $-1 #
edge $-1 $151 -12.932606313863618 $152 12.932606313863618 $88 $153 forward 7 unknown #
face $-1 $154 $155 $20 $-1 $156 forward single #
loop $-1 $-1 $157 $56 #
plane-surface $-1 85.920371774370153 -11.47055511262635 156.90350399978891 0 1 0 0.82903758062907751 0 0.55919289150049634 forward_v I I I I #
coedge $-1 $158 $159 $160 $161 reversed $57 $-1 #
coedge $-1 $95 $59 $162 $163 reversed $37 $-1 #
coedge $-1 $59 $94 $158 $164 reversed $37 $-1 #
coedge $-1 $160 $165 $59 $97 forward $155 $-1 #
edge $-1 $166 -12.843519059865308 $167 -5.4469198400809802 $96 $168 forward 7 unknown #
loop $-1 $-1 $103 $60 #
plane-surface $-1 -6.60636530451292 -8.1684418109480426 94.493433748225598 0.82903758062907751 0 0.55919289150049634 0.55919289150049634 0 -0.82903758062907751 forward_v I I I I #
loop $-1 $-1 $169 $39 #
coedge $-1 $101 $101 $102 $170 reversed $61 $-1 #
coedge $-1 $102 $102 $101 $170 forward $63 $-1 #
coedge $-1 $103 $103 $64 $104 forward $98 $-1 #
edge $-1 $171 0 $171 6.2831853071796004 $103 $172 forward 7 unknown #
face $-1 $173 $174 $22 $-1 $175 reversed single #
loop $-1 $-1 $176 $65 #
plane-surface $-1 85.920371774370153 4.8663285092697315 156.90350399978891 0 1 0 0.82903758062907751 0 0.55919289150049634 forward_v I I I I #
coedge $-1 $177 $178 $179 $180 reversed $66 $-1 #
coedge $-1 $110 $68 $181 $182 reversed $43 $-1 #
coedge $-1 $68 $109 $177 $183 reversed $43 $-1 #
coedge $-1 $179 $184 $68 $112 forward $185 $-1 #
edge $-1 $186 -12.843519059865308 $187 -5.4469198400809802 $111 $188 forward 7 unknown #
loop $-1 $-1 $118 $69 #
plane-surface $-1 -6.60636530451292 8.168441810948039 94.493433748225598 0.82903758062907751 0 0.55919289150049634 0.55919289150049634 0 -0.82903758062907751 forward_v I I I I #
loop $-1 $-1 $189 $45 #
coedge $-1 $116 $116 $117 $190 reversed $70 $-1 #
coedge $-1 $117 $117 $116 $190 forward $72 $-1 #
coedge $-1 $118 $118 $73 $119 forward $113 $-1 #
edge $-1 $191 0 $191 6.2831853071796004 $118 $192 forward 7 unknown #
face $-1 $193 $194 $18 $-1 $195 reversed single #
loop $-1 $-1 $129 $74 #
plane-surface $-1 0 -29.016496013911691 0 0 1 0 0 0 1 forward_v I I I I #
coedge $-1 $134 $133 $196 $197 forward $75 $-1 #
coedge $-1 $198 $77 $199 $200 forward $49 $-1 #
coedge $-1 $77 $198 $201 $202 forward $49 $-1 #
coedge $-1 $203 $204 $77 $127 reversed $205 $-1 #
edge $-1 $206 -29.016496013911691 $207 29.016496013911691 $126 $208 forward 7 unknown #
coedge $-1 $79 $78 $198 $209 reversed $31 $-1 #
coedge $-1 $210 $201 $78 $130 forward $121 $-1 #
edge $-1 $211 -12.932606313863618 $135 12.932606313863618 $78 $212 forward 7 unknown #
coedge $-1 $199 $213 $79 $132 reversed $194 $-1 #
edge $-1 $214 -12.932606313863618 $136 12.932606313863618 $131 $215 forward 7 unknown #
coedge $-1 $123 $80 $213 $216 forward $75 $-1 #
coedge $-1 $80 $123 $210 $217 forward $75 $-1 #
vertex $-1 $81 $218 #
vertex $-1 $216 $219 #
straight-curve $-1 -55.803704947050385 0 -12.932606313863618 0 1 0 I I #
face $-1 $220 $150 $19 $-1 $221 reversed single #
loop $-1 $-1 $222 $82 #
plane-surface $-1 -69.117157512829024 -6.8601816409409295 0 1 0 0 0 0 -1 forward_v I I I I #
coedge $-1 $223 $224 $225 $226 forward $83 $-1 #
coedge $-1 $227 $85 $223 $228 forward $53 $-1 #
coedge $-1 $85 $227 $148 $229 forward $53 $-1 #
edge $-1 $151 3.6512833861844562 $230 10.069079895697403 $85 $231 forward 7 unknown #
coedge $-1 $87 $86 $232 $233 forward $34 $-1 #
coedge $-1 $234 $235 $86 $147 forward $236 $-1 #
edge $-1 $237 -10.069079895697403 $152 -3.6512833861844562 $146 $238 forward 7 unknown #
coedge $-1 $239 $88 $143 $229 reversed $150 $-1 #
coedge $-1 $88 $239 $234 $240 reversed $150 $-1 #
loop $-1 $-1 $88 $138 #
vertex $-1 $144 $241 #
vertex $-1 $240 $242 #
straight-curve $-1 -55.803704947050385 -3.6512833861844562 0 0 0 1 I I #
face $-1 $-1 $243 $20 $-1 $244 reversed single #
loop $-1 $-1 $96 $90 #
plane-surface $-1 0 0 12.932606313863618 0 0 1 1 0 0 forward_v I I I I #
coedge $-1 $245 $246 $247 $248 reversed $91 $-1 #
coedge $-1 $249 $93 $95 $164 forward $57 $-1 #
coedge $-1 $93 $249 $245 $250 forward $57 $-1 #
coedge $-1 $247 $96 $93 $161 forward $155 $-1 #
edge $-1 $167 0.78210760379571376 $251 7.3863342071523288 $160 $252 forward 7 unknown #
coedge $-1 $253 $254 $94 $163 forward $243 $-1 #
edge $-1 $255 -76.485055330551916 $166 -65.519145686030839 $162 $256 forward 7 unknown #
edge $-1 $167 98.380132988028421 $255 111.60740989410075 $95 $257 forward 7 unknown #
coedge $-1 $96 $247 $253 $258 forward $155 $-1 #
vertex $-1 $97 $259 #
vertex $-1 $97 $260 #
straight-curve $-1 42.960185887185077 -4.866328509269735 12.932606313863616 -1 0 0 I I #
coedge $-1 $169 $169 $-1 $261 reversed $100 $-1 #
edge $-1 $262 0 $262 6.2831853071796004 $101 $263 forward 7 unknown #
vertex $-1 $104 $264 #
ellipse-curve $-1 52.105405337158224 -8.1684418109480426 7.449651491603074 0.82903758062907751 0 0.55919289150049634 0.55919289150049634 0 -0.82903758062907751 1 I I #
face $-1 $-1 $185 $22 $-1 $265 forward single #
loop $-1 $-1 $266 $105 #
plane-surface $-1 55.803704947050385 0 0 -1 0 0 0 0 1 forward_v I I I I #
coedge $-1 $267 $268 $269 $270 reversed $106 $-1 #
coedge $-1 $271 $108 $110 $183 forward $66 $-1 #
coedge $-1 $108 $271 $267 $272 forward $66 $-1 #
coedge $-1 $269 $111 $108 $180 forward $185 $-1 #
edge $-1 $187 -7.386334207152327 $273 -0.78210760379571198 $179 $274 forward 7 unknown #
coedge $-1 $275 $276 $109 $182 forward $174 $-1 #
edge $-1 $277 -76.485055330551916 $186 -65.519145686030839 $181 $278 forward 7 unknown #
edge $-1 $187 98.380132988028421 $277 111.60740989410075 $110 $279 forward 7 unknown #
coedge $-1 $111 $269 $275 $280 forward $185 $-1 #
loop $-1 $-1 $269 $173 #
vertex $-1 $182 $281 #
vertex $-1 $112 $282 #
straight-curve $-1 42.960185887185077 11.470555112626347 12.932606313863616 -1 0 0 I I #
coedge $-1 $189 $189 $-1 $283 reversed $115 $-1 #
edge $-1 $284 0 $284 6.2831853071796004 $116 $285 forward 7 unknown #
vertex $-1 $119 $286 #
ellipse-curve $-1 52.105405337158224 8.168441810948039 7.449651491603074 0.82903758062907751 0 0.55919289150049634 0.55919289150049634 0 -0.82903758062907751 1 I I #
face $-1 $-1 $205 $18 $-1 $287 reversed single #
loop $-1 $-1 $288 $120 #
plane-surface $-1 0 29.016496013911691 0 0 -1 0 0 0 -1 forward_v I I I I #
coedge $-1 $204 $203 $123 $197 reversed $205 $-1 #
edge $-1 $289 -29.016496013911691 $290 29.016496013911691 $196 $291 forward 7 unknown #
coedge $-1 $125 $124 $128 $209 forward $49 $-1 #
coedge $-1 $288 $131 $124 $200 reversed $194 $-1 #
edge $-1 $207 -55.803704947050385 $214 55.803704947050385 $199 $292 forward 7 unknown #
coedge $-1 $129 $293 $125 $202 reversed $121 $-1 #
edge $-1 $211 -55.803704947050385 $206 55.803704947050385 $201 $294 forward 7 unknown #
coedge $-1 $196 $126 $293 $295 forward $205 $-1 #
coedge $-1 $126 $196 $288 $296 reversed $205 $-1 #
loop $-1 $-1 $203 $193 #
vertex $-1 $127 $297 #
vertex $-1 $127 $298 #
straight-curve $-1 55.803704947050385 0 12.932606313863618 0 1 0 I I #
edge $-1 $214 -29.016496013911691 $211 29.016496013911691 $128 $299 forward 7 unknown #
coedge $-1 $293 $129 $134 $217 reversed $121 $-1 #
vertex $-1 $209 $300 #
straight-curve $-1 -55.803704947050385 -29.016496013911691 0 0 0 -1 I I #
coedge $-1 $131 $288 $133 $216 reversed $194 $-1 #
vertex $-1 $200 $301 #
straight-curve $-1 -55.803704947050385 29.016496013911691 0 0 0 -1 I I #
edge $-1 $136 -55.803704947050385 $289 55.803704947050385 $213 $302 forward 7 unknown #
edge $-1 $290 -55.803704947050385 $135 55.803704947050385 $210 $303 forward 7 unknown #
point $-1 -55.803704947050385 -29.016496013911691 -12.932606313863618 #
point $-1 -55.803704947050385 29.016496013911691 -12.932606313863618 #
face $-1 $-1 $236 $19 $-1 $304 forward single #
plane-surface $-1 -62.460431229939708 -3.6512833861844562 0 0 -1 0 0 0 -1 forward_v I I I I #
coedge $-1 $305 $306 $239 $307 forward $139 $-1 #
coedge $-1 $232 $141 $142 $228 reversed $83 $-1 #
coedge $-1 $141 $232 $235 $308 reversed $83 $-1 #
coedge $-1 $306 $305 $141 $226 reversed $139 $-1 #
edge $-1 $309 -12.932606313863618 $310 12.932606313863618 $225 $311 forward 7 unknown #
coedge $-1 $143 $142 $305 $312 forward $53 $-1 #
edge $-1 $230 -6.6567262828893234 $310 6.6567262828893163 $223 $313 forward 7 unknown #
edge $-1 $314 -6.6567262828893163 $151 6.6567262828893234 $148 $315 forward 7 unknown #
vertex $-1 $228 $316 #
straight-curve $-1 -55.803704947050385 0 -12.932606313863618 0 -1 0 I I #
coedge $-1 $224 $223 $145 $233 reversed $83 $-1 #
edge $-1 $237 -12.932606313863618 $230 12.932606313863618 $232 $317 forward 7 unknown #
coedge $-1 $318 $146 $149 $240 forward $236 $-1 #
coedge $-1 $146 $318 $224 $308 forward $236 $-1 #
loop $-1 $-1 $146 $220 #
vertex $-1 $147 $319 #
straight-curve $-1 -55.803704947050385 0 12.932606313863618 0 1 0 I I #
coedge $-1 $149 $148 $222 $307 reversed $150 $-1 #
edge $-1 $152 -6.6567262828893234 $320 6.6567262828893163 $149 $321 forward 7 unknown #
point $-1 -55.803704947050385 -3.6512833861844562 -12.932606313863618 #
point $-1 -55.803704947050385 -3.6512833861844562 12.932606313863618 #
loop $-1 $-1 $162 $154 #
plane-surface $-1 55.803704947050385 0 0 -1 0 0 0 0 1 forward_v I I I I #
coedge $-1 $246 $157 $159 $250 reversed $91 $-1 #
coedge $-1 $157 $245 $322 $323 reversed $91 $-1 #
coedge $-1 $165 $160 $157 $248 forward $155 $-1 #
edge $-1 $251 5.4469198400809802 $324 12.843519059865308 $247 $325 forward 7 unknown #
coedge $-1 $159 $158 $254 $326 reversed $57 $-1 #
edge $-1 $327 -111.60740989410075 $251 -98.380132988028421 $245 $328 forward 7 unknown #
vertex $-1 $161 $329 #
straight-curve $-1 48.407105727266071 -4.0842209054740213 12.932606313863623 0 -1 0 I I #
coedge $-1 $322 $162 $165 $258 reversed $243 $-1 #
coedge $-1 $162 $322 $249 $326 forward $243 $-1 #
vertex $-1 $163 $330 #
straight-curve $-1 55.803704947050385 -4.866328509269735 78.451751999894455 0 0 1 I I #
straight-curve $-1 -6.60636530451292 -4.866328509269735 94.493433748225598 0.55919289150049634 0 -0.82903758062907751 I I #
edge $-1 $324 -11.47055511262635 $166 -4.866328509269735 $253 $331 forward 7 unknown #
point $-1 55.803704947050385 -4.866328509269735 12.932606313863618 #
point $-1 48.407105727266057 -4.866328509269735 12.932606313863616 #
edge $-1 $332 1 $332 0 $169 $-1 forward 7 unknown #
vertex $-1 $170 $333 #
ellipse-curve $-1 50.367050130630872 -8.1684418109480426 6.2771161360220189 0.82903758062907751 0 0.55919289150049634 0.55919289150049634 0 -0.82903758062907751 1 I I #
point $-1 52.664598228658726 -8.1684418109480426 6.6206139109740008 #
plane-surface $-1 0 0 12.932606313863618 0 0 1 1 0 0 forward_v I I I I #
coedge $-1 $276 $275 $268 $334 forward $174 $-1 #
coedge $-1 $268 $176 $178 $272 reversed $106 $-1 #
coedge $-1 $176 $267 $266 $334 reversed $106 $-1 #
coedge $-1 $184 $179 $176 $270 forward $185 $-1 #
edge $-1 $273 5.4469198400809802 $335 12.843519059865308 $269 $336 forward 7 unknown #
coedge $-1 $178 $177 $276 $337 reversed $66 $-1 #
edge $-1 $338 -111.60740989410075 $273 -98.380132988028421 $267 $339 forward 7 unknown #
vertex $-1 $180 $340 #
straight-curve $-1 48.407105727266071 4.0842209054740195 12.932606313863623 0 -1 0 I I #
coedge $-1 $266 $181 $184 $280 reversed $174 $-1 #
coedge $-1 $181 $266 $271 $337 forward $174 $-1 #
vertex $-1 $182 $341 #
straight-curve $-1 55.803704947050385 11.470555112626347 78.451751999894455 0 0 1 I I #
straight-curve $-1 -6.60636530451292 11.470555112626347 94.493433748225598 0.55919289150049634 0 -0.82903758062907751 I I #
edge $-1 $335 4.8663285092697315 $186 11.470555112626347 $275 $342 forward 7 unknown #
point $-1 55.803704947050385 11.470555112626347 12.932606313863618 #
point $-1 48.407105727266057 11.470555112626347 12.932606313863616 #
edge $-1 $343 1 $343 0 $189 $-1 forward 7 unknown #
vertex $-1 $190 $344 #
ellipse-curve $-1 50.367050130630872 8.168441810948039 6.2771161360220189 0.82903758062907751 0 0.55919289150049634 0.55919289150049634 0 -0.82903758062907751 1 I I #
point $-1 52.664598228658726 8.168441810948039 6.6206139109740008 #
plane-surface $-1 55.803704947050385 0 0 -1 0 0 0 0 1 forward_v I I I I #
coedge $-1 $213 $199 $204 $296 forward $194 $-1 #
vertex $-1 $197 $345 #
vertex $-1 $295 $346 #
straight-curve $-1 55.803704947050385 0 -12.932606313863618 0 -1 0 I I #
straight-curve $-1 0 29.016496013911691 12.932606313863618 -1 0 0 I I #
coedge $-1 $201 $210 $203 $295 reversed $121 $-1 #
straight-curve $-1 0 -29.016496013911691 12.932606313863618 1 0 0 I I #
edge $-1 $206 -12.932606313863618 $290 12.932606313863618 $203 $347 forward 7 unknown #
edge $-1 $207 -12.932606313863618 $289 12.932606313863618 $204 $348 forward 7 unknown #
point $-1 55.803704947050385 -29.016496013911691 12.932606313863618 #
point $-1 55.803704947050385 29.016496013911691 12.932606313863618 #
straight-curve $-1 -55.803704947050385 0 12.932606313863618 0 -1 0 I I #
point $-1 -55.803704947050385 -29.016496013911691 12.932606313863618 #
point $-1 -55.803704947050385 29.016496013911691 12.932606313863618 #
straight-curve $-1 0 29.016496013911691 -12.932606313863618 1 0 0 I I #
straight-curve $-1 0 -29.016496013911691 -12.932606313863618 -1 0 0 I I #
plane-surface $-1 0 0 12.932606313863618 0 0 1 1 0 0 forward_v I I I I #
coedge $-1 $225 $222 $227 $312 reversed $139 $-1 #
coedge $-1 $222 $225 $318 $349 reversed $139 $-1 #
edge $-1 $320 -12.932606313863618 $314 12.932606313863618 $239 $350 forward 7 unknown #
edge $-1 $309 -6.6567262828893163 $237 6.6567262828893234 $224 $351 forward 7 unknown #
vertex $-1 $349 $352 #
vertex $-1 $312 $353 #
straight-curve $-1 -69.117157512829024 -10.069079895697403 0 0 0 -1 I I #
edge $-1 $310 -3.2088982547564733 $314 3.2088982547564733 $305 $354 forward 7 unknown #
straight-curve $-1 -62.460431229939708 -10.069079895697403 -12.932606313863618 -1 0 0 I I #
vertex $-1 $229 $355 #
straight-curve $-1 -62.460431229939708 -3.6512833861844562 -12.932606313863618 1 0 0 I I #
point $-1 -55.803704947050385 -10.069079895697403 -12.932606313863618 #
straight-curve $-1 -55.803704947050385 -10.069079895697403 0 0 0 -1 I I #
coedge $-1 $235 $234 $306 $349 forward $236 $-1 #
point $-1 -55.803704947050385 -10.069079895697403 12.932606313863618 #
vertex $-1 $240 $356 #
straight-curve $-1 -62.460431229939708 -3.6512833861844562 12.932606313863618 -1 0 0 I I #
coedge $-1 $254 $253 $246 $323 forward $243 $-1 #
edge $-1 $324 65.519145686030839 $327 76.485055330551916 $322 $357 forward 7 unknown #
vertex $-1 $258 $358 #
straight-curve $-1 42.960185887185077 -11.47055511262635 12.932606313863616 1 0 0 I I #
edge $-1 $327 -7.3863342071523288 $255 -0.78210760379571376 $254 $359 forward 7 unknown #
vertex $-1 $326 $360 #
straight-curve $-1 -6.60636530451292 -11.47055511262635 94.493433748225598 -0.55919289150049634 0 0.82903758062907751 I I #
point $-1 48.407105727266057 -11.47055511262635 12.932606313863616 #
point $-1 55.803704947050385 -4.866328509269735 1.9666966693425394 #
straight-curve $-1 55.803704947050385 0 12.932606313863618 0 1 0 I I #
vertex $-1 $261 $361 #
point $-1 50.926243022131366 -8.1684418109480426 5.4480785553929412 #
edge $-1 $335 65.519145686030839 $338 76.485055330551916 $266 $362 forward 7 unknown #
vertex $-1 $280 $363 #
straight-curve $-1 42.960185887185077 4.8663285092697315 12.932606313863616 1 0 0 I I #
edge $-1 $338 0.78210760379571198 $277 7.386334207152327 $276 $364 forward 7 unknown #
vertex $-1 $337 $365 #
straight-curve $-1 -6.60636530451292 4.8663285092697315 94.493433748225598 -0.55919289150049634 0 0.82903758062907751 I I #
point $-1 48.407105727266057 4.8663285092697315 12.932606313863616 #
point $-1 55.803704947050385 11.470555112626347 1.9666966693425394 #
straight-curve $-1 55.803704947050385 0 12.932606313863618 0 1 0 I I #
vertex $-1 $283 $366 #
point $-1 50.926243022131366 8.168441810948039 5.4480785553929412 #
point $-1 55.803704947050385 29.016496013911691 -12.932606313863618 #
point $-1 55.803704947050385 -29.016496013911691 -12.932606313863618 #
straight-curve $-1 55.803704947050385 -29.016496013911691 0 0 0 -1 I I #
straight-curve $-1 55.803704947050385 29.016496013911691 0 0 0 -1 I I #
edge $-1 $320 -3.2088982547564733 $309 3.2088982547564733 $306 $367 forward 7 unknown #
straight-curve $-1 -69.117157512829024 -3.6512833861844562 0 0 0 -1 I I #
straight-curve $-1 -62.460431229939708 -10.069079895697403 12.932606313863618 1 0 0 I I #
point $-1 -69.117157512829024 -10.069079895697403 12.932606313863618 #
point $-1 -69.117157512829024 -10.069079895697403 -12.932606313863618 #
straight-curve $-1 -69.117157512829024 -6.8601816409409295 -12.932606313863618 0 1 0 I I #
point $-1 -69.117157512829024 -3.6512833861844562 -12.932606313863618 #
point $-1 -69.117157512829024 -3.6512833861844562 12.932606313863618 #
straight-curve $-1 55.803704947050385 -11.47055511262635 78.451751999894455 0 0 -1 I I #
point $-1 55.803704947050385 -11.47055511262635 12.932606313863618 #
straight-curve $-1 55.803704947050392 -4.0842209054740213 1.9666966693425394 0 1 0 I I #
point $-1 55.803704947050385 -11.47055511262635 1.9666966693425394 #
point $-1 49.538012550001795 -8.1684418109480426 5.7179232445215229 #
straight-curve $-1 55.803704947050385 4.8663285092697315 78.451751999894455 0 0 -1 I I #
point $-1 55.803704947050385 4.8663285092697315 12.932606313863618 #
straight-curve $-1 55.803704947050392 4.0842209054740195 1.9666966693425394 0 1 0 I I #
point $-1 55.803704947050385 4.8663285092697315 1.9666966693425394 #
point $-1 49.538012550001795 8.168441810948039 5.7179232445215229 #
straight-curve $-1 -69.117157512829024 -6.8601816409409295 12.932606313863618 0 -1 0 I I #
End-of-ACIS-data 