500 0 5 0           
7 Unknown 11 ACIS 5.0 NT 24 Thu Mar 25 21:00:03 1999 
-1 9.9999999999999995e-007 1e-010 
body $-1 $5 $-1 $6 #
body $-1 $7 $-1 $8 #
body $-1 $9 $-1 $10 #
body $-1 $11 $-1 $12 #
body $-1 $13 $-1 $14 #
lump $-1 $-1 $15 $0 #
transform $-1 1 0 0 0 1 0 0 0 1 74.205145420697647 41.863505271093864 10.154202923477884 1 rotate no_reflect no_shear #
lump $-1 $-1 $16 $1 #
transform $-1 1 0 0 0 1 0 0 0 1 74.205145420697647 41.863505271093864 10.154202923477884 1 rotate no_reflect no_shear #
lump $-1 $-1 $17 $2 #
transform $-1 1 0 0 0 1 0 0 0 1 74.205145420697647 41.863505271093864 10.154202923477884 1 rotate no_reflect no_shear #
lump $-1 $-1 $18 $3 #
transform $-1 1 0 0 0 1 0 0 0 1 74.205145420697647 41.863505271093864 10.154202923477884 1 rotate no_reflect no_shear #
lump $-1 $-1 $19 $4 #
transform $-1 1 0 0 0 1 0 0 0 1 74.205145420697647 41.863505271093864 10.154202923477884 1 rotate no_reflect no_shear #
shell $-1 $-1 $-1 $20 $-1 $5 #
shell $-1 $-1 $-1 $21 $-1 $7 #
shell $-1 $-1 $-1 $22 $-1 $9 #
shell $-1 $-1 $-1 $23 $-1 $11 #
shell $-1 $-1 $-1 $24 $-1 $13 #
face $-1 $25 $26 $15 $-1 $27 forward single #
face $-1 $28 $29 $16 $-1 $30 reversed single #
face $-1 $31 $32 $17 $-1 $33 forward single #
face $-1 $34 $35 $18 $-1 $36 reversed single #
face $-1 $37 $38 $19 $-1 $39 reversed single #
face $-1 $40 $41 $15 $-1 $42 reversed single #
loop $-1 $-1 $43 $20 #
plane-surface $-1 0 0 10.154202923477884 0 0 1 1 0 0 forward_v I I I I #
face $-1 $44 $45 $16 $-1 $46 forward single #
loop $-1 $-1 $47 $21 #
plane-surface $-1 -69.6390544457538 0 1.1336747503627489 0 0 1 1 0 0 forward_v I I I I #
face $-1 $48 $49 $17 $-1 $50 forward single #
loop $-1 $-1 $51 $22 #
plane-surface $-1 70.542169614586953 36.764847027661176 209.88572183834094 0 -1 0 -0.69465837861970381 0 -0.71933979245794832 forward_v I I I I #
face $-1 $52 $53 $18 $-1 $54 reversed single #
loop $-1 $55 $56 $23 #
cone-surface $-1 67.760128394935307 23.797634985077373 3.8461599121211689 -0.69465837861970381 0 -0.71933979245794832 1.4386795849158966 0 -1.3893167572394076 1 I I 0 1 2 forward I I I I #
face $-1 $57 $58 $19 $-1 $59 reversed single #
loop $-1 $60 $61 $24 #
cone-surface $-1 67.760128394935307 31.577962210627653 3.8461599121211689 -0.69465837861970381 0 -0.71933979245794832 1.4386795849158966 0 -1.3893167572394076 1 I I 0 1 2 forward I I I I #
face $-1 $62 $63 $15 $-1 $64 reversed single #
loop $-1 $-1 $65 $25 #
plane-surface $-1 0 0 -10.154202923477884 0 0 1 1 0 0 forward_v I I I I #
coedge $-1 $66 $67 $68 $69 forward $26 $-1 #
face $-1 $70 $71 $16 $-1 $72 forward single #
loop $-1 $-1 $73 $28 #
plane-surface $-1 -69.6390544457538 0 -1.8663252496372511 0 0 1 1 0 0 forward_v I I I I #
coedge $-1 $74 $75 $76 $77 reversed $29 $-1 #
face $-1 $78 $79 $17 $-1 $80 forward single #
loop $-1 $-1 $81 $31 #
plane-surface $-1 -32.552282391775378 27.687798597852513 103.1282940258679 0.69465837861970381 0 0.71933979245794832 0.71933979245794832 0 -0.69465837861970381 forward_v I I I I #
coedge $-1 $82 $83 $84 $85 reversed $32 $-1 #
face $-1 $86 $87 $18 $-1 $88 forward single #
loop $-1 $89 $90 $34 #
cone-surface $-1 65.860423122870941 23.797634985077373 1.8789575602926742 -0.69465837861970381 0 -0.71933979245794832 0.71933979245794832 0 -0.69465837861970381 1 I I -0.70710678118654746 0.70710678118654746 1 forward I I I I #
loop $-1 $-1 $91 $23 #
coedge $-1 $56 $56 $92 $93 reversed $35 $-1 #
face $-1 $94 $95 $19 $-1 $96 reversed single #
loop $-1 $97 $98 $37 #
cone-surface $-1 65.860423122870941 31.577962210627653 1.8789575602926742 -0.69465837861970381 0 -0.71933979245794832 0.71933979245794832 0 -0.69465837861970381 1 I I -0.70710678118654746 0.70710678118654746 1 forward I I I I #
loop $-1 $-1 $99 $24 #
coedge $-1 $61 $61 $100 $101 reversed $38 $-1 #
face $-1 $102 $103 $15 $-1 $104 reversed single #
loop $-1 $-1 $105 $40 #
plane-surface $-1 0 -41.863505271093864 0 0 1 0 0 0 1 forward_v I I I I #
coedge $-1 $106 $107 $108 $109 forward $41 $-1 #
coedge $-1 $110 $43 $111 $112 forward $26 $-1 #
coedge $-1 $43 $110 $113 $114 forward $26 $-1 #
coedge $-1 $115 $116 $43 $69 reversed $117 $-1 #
edge $-1 $118 -41.863505271093864 $119 41.863505271093864 $68 $120 forward 7 unknown #
face $-1 $121 $122 $16 $-1 $123 reversed single #
loop $-1 $-1 $124 $44 #
plane-surface $-1 -65.072963470809952 0 -0.3663252496372511 -1 0 0 0 0 1 forward_v I I I I #
coedge $-1 $125 $126 $127 $128 reversed $45 $-1 #
coedge $-1 $129 $47 $130 $131 reversed $29 $-1 #
coedge $-1 $47 $129 $132 $133 reversed $29 $-1 #
coedge $-1 $134 $124 $47 $77 forward $71 $-1 #
edge $-1 $135 -41.863505271093864 $136 41.863505271093864 $76 $137 forward 7 unknown #
face $-1 $138 $139 $17 $-1 $140 forward single #
loop $-1 $-1 $141 $48 #
plane-surface $-1 70.542169614586953 18.610750168043847 209.88572183834094 0 1 0 0.69465837861970381 0 0.71933979245794832 forward_v I I I I #
coedge $-1 $142 $143 $144 $145 reversed $49 $-1 #
coedge $-1 $83 $51 $143 $146 forward $32 $-1 #
coedge $-1 $51 $82 $147 $148 reversed $32 $-1 #
coedge $-1 $149 $144 $51 $85 forward $139 $-1 #
edge $-1 $150 28.454120348768782 $151 38.934060613404171 $84 $152 forward 7 unknown #
face $-1 $153 $154 $18 $-1 $155 forward single #
loop $-1 $-1 $156 $52 #
plane-surface $-1 70.542169614586953 36.764847027661176 209.88572183834094 0 -1 0 -0.69465837861970381 0 -0.71933979245794832 forward_v I I I I #
loop $-1 $-1 $157 $34 #
coedge $-1 $90 $90 $91 $158 forward $53 $-1 #
coedge $-1 $91 $91 $90 $158 reversed $55 $-1 #
coedge $-1 $92 $92 $56 $93 forward $154 $-1 #
edge $-1 $159 0 $159 6.2831853071796004 $92 $160 forward 7 unknown #
face $-1 $161 $162 $19 $-1 $163 reversed single #
loop $-1 $164 $165 $57 #
cone-surface $-1 67.760128394935307 23.797634985077373 3.8461599121211689 -0.69465837861970381 0 -0.71933979245794832 1.4386795849158966 0 -1.3893167572394076 1 I I 0 1 2 forward I I I I #
loop $-1 $-1 $166 $37 #
coedge $-1 $98 $98 $99 $167 forward $58 $-1 #
coedge $-1 $99 $99 $98 $167 reversed $60 $-1 #
coedge $-1 $100 $100 $61 $101 forward $168 $-1 #
edge $-1 $169 0 $169 6.2831853071796004 $100 $170 forward 7 unknown #
face $-1 $171 $172 $15 $-1 $173 reversed single #
loop $-1 $-1 $174 $62 #
plane-surface $-1 -74.205145420697647 0 0 1 0 0 0 0 -1 forward_v I I I I #
coedge $-1 $175 $113 $176 $177 forward $63 $-1 #
coedge $-1 $178 $65 $175 $179 forward $41 $-1 #
coedge $-1 $65 $178 $180 $181 forward $41 $-1 #
coedge $-1 $116 $115 $65 $109 reversed $117 $-1 #
edge $-1 $182 -41.863505271093864 $183 41.863505271093864 $108 $184 forward 7 unknown #
coedge $-1 $67 $66 $185 $186 forward $26 $-1 #
coedge $-1 $187 $188 $66 $112 reversed $172 $-1 #
edge $-1 $119 -74.205145420697647 $189 74.205145420697647 $111 $190 forward 7 unknown #
coedge $-1 $105 $191 $67 $114 reversed $63 $-1 #
edge $-1 $192 -74.205145420697647 $118 74.205145420697647 $113 $193 forward 7 unknown #
coedge $-1 $108 $68 $191 $194 forward $117 $-1 #
coedge $-1 $68 $108 $187 $195 reversed $117 $-1 #
loop $-1 $-1 $115 $171 #
vertex $-1 $69 $196 #
vertex $-1 $69 $197 #
straight-curve $-1 74.205145420697647 0 10.154202923477884 0 1 0 I I #
face $-1 $198 $199 $16 $-1 $123 reversed single #
loop $-1 $-1 $200 $70 #
plane-surface $-1 -74.205145420697647 0 0 1 0 0 0 0 -1 forward_v I I I I #
coedge $-1 $76 $127 $201 $202 reversed $71 $-1 #
coedge $-1 $203 $73 $204 $205 reversed $45 $-1 #
coedge $-1 $73 $203 $206 $207 reversed $45 $-1 #
coedge $-1 $124 $134 $73 $128 forward $71 $-1 #
edge $-1 $208 -41.863505271093864 $209 41.863505271093864 $127 $210 forward 7 unknown #
coedge $-1 $75 $74 $211 $212 reversed $29 $-1 #
coedge $-1 $201 $213 $74 $131 forward $214 $-1 #
edge $-1 $215 -39.385618197820747 $135 -30.253436247933053 $130 $216 forward 7 unknown #
coedge $-1 $217 $218 $75 $133 forward $219 $-1 #
edge $-1 $136 30.253436247933053 $220 39.385618197820747 $132 $221 forward 7 unknown #
coedge $-1 $127 $76 $218 $222 reversed $71 $-1 #
vertex $-1 $131 $223 #
vertex $-1 $133 $224 #
straight-curve $-1 -65.072963470809952 0 1.1336747503627489 0 1 0 I I #
face $-1 $225 $226 $17 $-1 $227 reversed single #
loop $-1 $-1 $228 $78 #
plane-surface $-1 0 0 10.154202923477884 0 0 1 1 0 0 forward_v I I I I #
coedge $-1 $229 $230 $228 $231 reversed $79 $-1 #
coedge $-1 $232 $81 $230 $233 reversed $49 $-1 #
coedge $-1 $81 $232 $82 $146 reversed $49 $-1 #
coedge $-1 $84 $228 $81 $145 forward $139 $-1 #
edge $-1 $234 4.7668508691175902 $150 22.920947728734919 $144 $235 forward 7 unknown #
edge $-1 $150 133.84145928986112 $236 148.41029084139524 $82 $237 forward 7 unknown #
coedge $-1 $238 $239 $83 $148 forward $240 $-1 #
edge $-1 $151 94.788657995692589 $236 104.90901889966489 $147 $241 forward 7 unknown #
coedge $-1 $242 $84 $239 $243 forward $139 $-1 #
vertex $-1 $145 $244 #
vertex $-1 $243 $245 #
straight-curve $-1 35.271084807293477 36.764847027661176 10.154202923477882 1 0 0 I I #
face $-1 $246 $247 $18 $-1 $248 forward single #
loop $-1 $249 $92 $86 #
plane-surface $-1 -32.552282391775378 27.687798597852513 103.1282940258679 0.69465837861970381 0 0.71933979245794832 0.71933979245794832 0 -0.69465837861970381 forward_v I I I I #
coedge $-1 $250 $251 $252 $253 reversed $87 $-1 #
coedge $-1 $157 $157 $-1 $254 forward $89 $-1 #
edge $-1 $255 0 $255 6.2831853071796004 $90 $256 forward 7 unknown #
vertex $-1 $93 $257 #
ellipse-curve $-1 68.965175288379967 23.797634985077373 5.094022471491721 -0.69465837861970381 0 -0.71933979245794832 1.4386795849158966 0 -1.3893167572394076 1 I I #
face $-1 $258 $259 $19 $-1 $260 forward single #
loop $-1 $261 $262 $94 #
cone-surface $-1 65.860423122870941 23.797634985077373 1.8789575602926742 -0.69465837861970381 0 -0.71933979245794832 0.71933979245794832 0 -0.69465837861970381 1 I I -0.70710678118654746 0.70710678118654746 1 forward I I I I #
loop $-1 $-1 $263 $57 #
coedge $-1 $165 $165 $264 $265 reversed $95 $-1 #
coedge $-1 $166 $166 $-1 $266 forward $97 $-1 #
edge $-1 $267 0 $267 6.2831853071796004 $98 $268 forward 7 unknown #
loop $-1 $269 $100 $258 #
vertex $-1 $101 $270 #
ellipse-curve $-1 68.965175288379967 31.577962210627653 5.094022471491721 -0.69465837861970381 0 -0.71933979245794832 1.4386795849158966 0 -1.3893167572394076 1 I I #
face $-1 $-1 $117 $15 $-1 $271 reversed single #
loop $-1 $-1 $187 $102 #
plane-surface $-1 0 41.863505271093864 0 0 -1 0 0 0 -1 forward_v I I I I #
coedge $-1 $272 $185 $188 $273 forward $103 $-1 #
coedge $-1 $191 $105 $106 $179 reversed $63 $-1 #
coedge $-1 $185 $272 $105 $177 reversed $103 $-1 #
edge $-1 $192 -10.154202923477884 $274 10.154202923477884 $176 $275 forward 7 unknown #
coedge $-1 $107 $106 $272 $276 forward $41 $-1 #
edge $-1 $183 -74.205145420697647 $274 74.205145420697647 $175 $277 forward 7 unknown #
coedge $-1 $188 $187 $107 $181 reversed $172 $-1 #
edge $-1 $278 -74.205145420697647 $182 74.205145420697647 $180 $279 forward 7 unknown #
vertex $-1 $109 $280 #
vertex $-1 $194 $281 #
straight-curve $-1 74.205145420697647 0 -10.154202923477884 0 -1 0 I I #
coedge $-1 $174 $176 $110 $186 reversed $103 $-1 #
edge $-1 $189 -41.863505271093864 $192 41.863505271093864 $185 $282 forward 7 unknown #
coedge $-1 $180 $111 $116 $195 forward $172 $-1 #
coedge $-1 $111 $180 $174 $273 reversed $172 $-1 #
vertex $-1 $112 $283 #
straight-curve $-1 0 41.863505271093864 10.154202923477884 -1 0 0 I I #
coedge $-1 $113 $175 $115 $194 reversed $63 $-1 #
vertex $-1 $186 $284 #
straight-curve $-1 0 -41.863505271093864 10.154202923477884 1 0 0 I I #
edge $-1 $118 -10.154202923477884 $183 10.154202923477884 $115 $285 forward 7 unknown #
edge $-1 $119 -10.154202923477884 $182 10.154202923477884 $116 $286 forward 7 unknown #
point $-1 74.205145420697647 -41.863505271093864 10.154202923477884 #
point $-1 74.205145420697647 41.863505271093864 10.154202923477884 #
face $-1 $287 $214 $16 $-1 $288 reversed single #
loop $-1 $-1 $211 $121 #
coedge $-1 $289 $290 $203 $291 forward $122 $-1 #
coedge $-1 $206 $130 $124 $202 forward $214 $-1 #
edge $-1 $135 -1.3168373751813744 $209 1.6831626248186256 $201 $292 forward 7 unknown #
coedge $-1 $126 $125 $200 $291 reversed $45 $-1 #
coedge $-1 $218 $293 $125 $205 forward $219 $-1 #
edge $-1 $294 -39.385618197820747 $208 -30.253436247933053 $204 $295 forward 7 unknown #
coedge $-1 $296 $201 $126 $207 forward $214 $-1 #
edge $-1 $209 30.253436247933053 $297 39.385618197820747 $206 $298 forward 7 unknown #
vertex $-1 $205 $299 #
vertex $-1 $207 $300 #
straight-curve $-1 -65.072963470809952 0 -1.8663252496372511 0 -1 0 I I #
coedge $-1 $301 $302 $129 $212 forward $199 $-1 #
edge $-1 $220 -41.863505271093864 $215 41.863505271093864 $211 $303 forward 7 unknown #
coedge $-1 $130 $304 $301 $305 forward $214 $-1 #
loop $-1 $-1 $130 $198 #
vertex $-1 $131 $306 #
straight-curve $-1 -34.8195272228769 -41.863505271093864 1.1336747503627489 1 0 0 I I #
coedge $-1 $307 $132 $302 $308 reversed $219 $-1 #
coedge $-1 $132 $204 $134 $222 forward $219 $-1 #
loop $-1 $-1 $132 $309 #
vertex $-1 $212 $310 #
straight-curve $-1 -34.8195272228769 41.863505271093864 1.1336747503627489 -1 0 0 I I #
edge $-1 $208 -1.6831626248186256 $136 1.3168373751813744 $218 $311 forward 7 unknown #
point $-1 -65.072963470809952 -41.863505271093864 1.1336747503627489 #
point $-1 -65.072963470809952 41.863505271093864 1.1336747503627489 #
face $-1 $312 $313 $17 $-1 $314 forward single #
loop $-1 $-1 $315 $138 #
plane-surface $-1 -69.6390544457538 0 1.1336747503627489 0 0 1 1 0 0 forward_v I I I I #
coedge $-1 $144 $316 $141 $231 forward $139 $-1 #
coedge $-1 $230 $141 $317 $318 reversed $79 $-1 #
coedge $-1 $141 $229 $142 $233 forward $79 $-1 #
edge $-1 $319 -38.934060613404171 $234 -28.454120348768782 $228 $320 forward 7 unknown #
coedge $-1 $143 $142 $238 $321 reversed $49 $-1 #
edge $-1 $322 -148.41029084139524 $234 -133.84145928986112 $230 $323 forward 7 unknown #
vertex $-1 $145 $324 #
straight-curve $-1 63.725205156062252 13.843899298926257 10.154202923477882 0 1 0 I I #
vertex $-1 $321 $325 #
straight-curve $-1 -32.552282391775378 36.764847027661176 103.1282940258679 0.71933979245794832 0 -0.69465837861970381 I I #
coedge $-1 $317 $147 $232 $321 forward $240 $-1 #
coedge $-1 $147 $326 $149 $243 reversed $240 $-1 #
loop $-1 $-1 $317 $327 #
straight-curve $-1 74.205145420697647 36.764847027661176 104.94286091917047 0 0 -1 I I #
coedge $-1 $328 $149 $329 $330 forward $139 $-1 #
edge $-1 $151 36.764847027661176 $331 41.863505271093864 $239 $332 forward 7 unknown #
point $-1 63.725205156062259 36.764847027661176 10.154202923477882 #
point $-1 74.205145420697647 36.764847027661176 10.154202923477884 #
face $-1 $333 $334 $18 $-1 $335 forward single #
loop $-1 $-1 $336 $153 #
plane-surface $-1 70.542169614586953 18.610750168043847 209.88572183834094 0 1 0 0.69465837861970381 0 0.71933979245794832 forward_v I I I I #
loop $-1 $-1 $337 $86 #
coedge $-1 $251 $156 $338 $339 forward $87 $-1 #
coedge $-1 $156 $250 $340 $341 reversed $87 $-1 #
coedge $-1 $342 $343 $156 $253 forward $334 $-1 #
edge $-1 $344 28.454120348768782 $345 38.934060613404171 $252 $346 forward 7 unknown #
edge $-1 $347 1 $347 0 $157 $-1 forward 7 unknown #
vertex $-1 $158 $348 #
ellipse-curve $-1 66.555081501490648 23.797634985077373 2.5982973527506226 0.69465837861970381 0 0.71933979245794832 1.4386795849158966 0 -1.3893167572394076 1 I I #
point $-1 70.40385487329587 23.797634985077373 3.7047057142523072 #
face $-1 $349 $168 $19 $-1 $350 forward single #
loop $-1 $-1 $351 $161 #
plane-surface $-1 70.542169614586953 36.764847027661176 209.88572183834094 0 -1 0 -0.69465837861970381 0 -0.71933979245794832 forward_v I I I I #
loop $-1 $-1 $352 $94 #
coedge $-1 $262 $262 $263 $353 forward $162 $-1 #
coedge $-1 $263 $263 $262 $353 reversed $164 $-1 #
coedge $-1 $264 $264 $165 $265 forward $269 $-1 #
edge $-1 $354 0 $354 6.2831853071796004 $264 $355 forward 7 unknown #
edge $-1 $356 1 $356 0 $166 $-1 forward 7 unknown #
vertex $-1 $167 $357 #
ellipse-curve $-1 66.555081501490648 31.577962210627653 2.5982973527506226 0.69465837861970381 0 0.71933979245794832 1.4386795849158966 0 -1.3893167572394076 1 I I #
loop $-1 $358 $264 $258 #
point $-1 70.40385487329587 31.577962210627653 3.7047057142523072 #
plane-surface $-1 74.205145420697647 0 0 -1 0 0 0 0 1 forward_v I I I I #
coedge $-1 $176 $174 $178 $276 reversed $103 $-1 #
edge $-1 $189 -10.154202923477884 $278 10.154202923477884 $188 $359 forward 7 unknown #
vertex $-1 $276 $360 #
straight-curve $-1 -74.205145420697647 -41.863505271093864 0 0 0 -1 I I #
edge $-1 $274 -41.863505271093864 $278 41.863505271093864 $272 $361 forward 7 unknown #
straight-curve $-1 0 -41.863505271093864 -10.154202923477884 -1 0 0 I I #
vertex $-1 $181 $362 #
straight-curve $-1 0 41.863505271093864 -10.154202923477884 1 0 0 I I #
point $-1 74.205145420697647 41.863505271093864 -10.154202923477884 #
point $-1 74.205145420697647 -41.863505271093864 -10.154202923477884 #
straight-curve $-1 -74.205145420697647 0 10.154202923477884 0 -1 0 I I #
point $-1 -74.205145420697647 41.863505271093864 10.154202923477884 #
point $-1 -74.205145420697647 -41.863505271093864 10.154202923477884 #
straight-curve $-1 74.205145420697647 -41.863505271093864 0 0 0 -1 I I #
straight-curve $-1 74.205145420697647 41.863505271093864 0 0 0 -1 I I #
face $-1 $363 $364 $16 $-1 $365 forward single #
plane-surface $-1 0 -41.863505271093864 0 0 1 0 0 0 1 forward_v I I I I #
coedge $-1 $366 $200 $293 $367 forward $122 $-1 #
coedge $-1 $200 $366 $296 $368 reversed $122 $-1 #
edge $-1 $297 -41.863505271093864 $294 41.863505271093864 $200 $369 forward 7 unknown #
straight-curve $-1 -65.072963470809952 -41.863505271093864 -0.18316262481862555 0 0 -1 I I #
coedge $-1 $204 $370 $289 $367 reversed $219 $-1 #
vertex $-1 $367 $371 #
straight-curve $-1 -34.8195272228769 41.863505271093864 -1.8663252496372511 1 0 0 I I #
coedge $-1 $372 $206 $290 $368 forward $214 $-1 #
vertex $-1 $368 $373 #
straight-curve $-1 -34.8195272228769 -41.863505271093864 -1.8663252496372511 -1 0 0 I I #
point $-1 -65.072963470809952 41.863505271093864 -1.8663252496372511 #
point $-1 -65.072963470809952 -41.863505271093864 -1.8663252496372511 #
coedge $-1 $374 $211 $213 $305 reversed $199 $-1 #
coedge $-1 $211 $374 $217 $308 forward $199 $-1 #
straight-curve $-1 -74.205145420697647 0 1.1336747503627489 0 -1 0 I I #
coedge $-1 $213 $375 $376 $377 reversed $214 $-1 #
edge $-1 $378 -10.154202923477884 $215 -1.1336747503627489 $301 $379 forward 7 unknown #
point $-1 -74.205145420697647 -41.863505271093864 1.1336747503627489 #
coedge $-1 $380 $217 $381 $382 reversed $219 $-1 #
edge $-1 $383 -10.154202923477884 $220 -1.1336747503627489 $217 $384 forward 7 unknown #
face $-1 $385 $219 $16 $-1 $386 reversed single #
point $-1 -74.205145420697647 41.863505271093864 1.1336747503627489 #
straight-curve $-1 -65.072963470809952 41.863505271093864 -0.18316262481862555 0 0 1 I I #
face $-1 $387 $388 $17 $-1 $389 forward single #
loop $-1 $-1 $390 $225 #
plane-surface $-1 -69.6390544457538 0 -1.8663252496372511 0 0 1 1 0 0 forward_v I I I I #
coedge $-1 $391 $392 $393 $394 reversed $226 $-1 #
coedge $-1 $228 $395 $396 $397 forward $139 $-1 #
coedge $-1 $396 $238 $229 $318 forward $240 $-1 #
edge $-1 $322 -104.90901889966489 $319 -94.788657995692589 $317 $398 forward 7 unknown #
vertex $-1 $318 $399 #
straight-curve $-1 35.271084807293477 18.610750168043847 10.154202923477882 -1 0 0 I I #
edge $-1 $236 -22.920947728734919 $322 -4.7668508691175902 $238 $400 forward 7 unknown #
vertex $-1 $321 $401 #
straight-curve $-1 -32.552282391775378 18.610750168043847 103.1282940258679 -0.71933979245794832 0 0.69465837861970381 I I #
point $-1 63.725205156062259 18.610750168043847 10.154202923477882 #
point $-1 74.205145420697647 36.764847027661176 0.033842019505584631 #
coedge $-1 $239 $402 $403 $404 reversed $240 $-1 #
face $-1 $-1 $240 $17 $-1 $405 reversed single #
coedge $-1 $395 $242 $406 $407 forward $139 $-1 #
coedge $-1 $403 $408 $242 $330 reversed $409 $-1 #
edge $-1 $331 -74.205145420697647 $410 74.205145420697647 $329 $411 forward 7 unknown #
vertex $-1 $243 $412 #
straight-curve $-1 74.205145420697647 0 10.154202923477884 0 1 0 I I #
face $-1 $413 $414 $18 $-1 $415 reversed single #
loop $-1 $-1 $416 $246 #
plane-surface $-1 0 0 10.154202923477884 0 0 1 1 0 0 forward_v I I I I #
coedge $-1 $417 $418 $416 $419 reversed $247 $-1 #
coedge $-1 $420 $338 $343 $421 reversed $249 $-1 #
coedge $-1 $337 $422 $250 $339 reversed $249 $-1 #
edge $-1 $344 133.84145928986112 $423 148.41029084139524 $250 $424 forward 7 unknown #
coedge $-1 $425 $426 $251 $341 forward $427 $-1 #
edge $-1 $345 94.788657995692589 $423 104.90901889966489 $340 $428 forward 7 unknown #
coedge $-1 $429 $252 $426 $430 forward $334 $-1 #
coedge $-1 $252 $416 $337 $421 forward $334 $-1 #
vertex $-1 $421 $431 #
vertex $-1 $430 $432 #
straight-curve $-1 35.271084807293477 36.764847027661176 10.154202923477882 1 0 0 I I #
vertex $-1 $254 $433 #
point $-1 67.993761086406536 23.797634985077373 1.208980595511215 #
face $-1 $434 $435 $19 $-1 $436 forward single #
plane-surface $-1 -32.552282391775378 27.687798597852513 103.1282940258679 0.69465837861970381 0 0.71933979245794832 0.71933979245794832 0 -0.69465837861970381 forward_v I I I I #
coedge $-1 $437 $438 $439 $440 reversed $259 $-1 #
coedge $-1 $352 $352 $-1 $441 forward $261 $-1 #
edge $-1 $442 0 $442 6.2831853071796004 $262 $443 forward 7 unknown #
vertex $-1 $265 $444 #
ellipse-curve $-1 68.965175288379967 23.797634985077373 5.094022471491721 -0.69465837861970381 0 -0.71933979245794832 1.4386795849158966 0 -1.3893167572394076 1 I I #
vertex $-1 $266 $445 #
point $-1 67.993761086406536 31.577962210627653 1.208980595511215 #
loop $-1 $-1 $446 $258 #
straight-curve $-1 -74.205145420697647 41.863505271093864 0 0 0 -1 I I #
point $-1 -74.205145420697647 -41.863505271093864 -10.154202923477884 #
straight-curve $-1 -74.205145420697647 0 -10.154202923477884 0 1 0 I I #
point $-1 -74.205145420697647 41.863505271093864 -10.154202923477884 #
face $-1 $309 $447 $16 $-1 $448 reversed single #
loop $-1 $-1 $449 $287 #
plane-surface $-1 0 0 10.154202923477884 0 0 1 1 0 0 forward_v I I I I #
coedge $-1 $290 $289 $450 $451 reversed $122 $-1 #
edge $-1 $294 1.8663252496372511 $452 10.154202923477884 $293 $384 forward 7 unknown #
edge $-1 $297 1.8663252496372511 $453 10.154202923477884 $290 $379 forward 7 unknown #
straight-curve $-1 -74.205145420697647 0 -1.8663252496372511 0 1 0 I I #
coedge $-1 $293 $380 $454 $455 reversed $219 $-1 #
point $-1 -74.205145420697647 41.863505271093864 -1.8663252496372511 #
coedge $-1 $375 $296 $456 $457 reversed $214 $-1 #
point $-1 -74.205145420697647 -41.863505271093864 -1.8663252496372511 #
coedge $-1 $302 $301 $458 $459 reversed $199 $-1 #
coedge $-1 $304 $372 $460 $461 reversed $214 $-1 #
coedge $-1 $449 $458 $304 $377 forward $364 $-1 #
edge $-1 $378 -74.205145420697647 $462 74.205145420697647 $304 $463 forward 7 unknown #
vertex $-1 $459 $464 #
straight-curve $-1 -74.205145420697647 -41.863505271093864 0 0 0 -1 I I #
coedge $-1 $370 $307 $465 $466 forward $219 $-1 #
coedge $-1 $458 $449 $307 $382 forward $364 $-1 #
edge $-1 $467 -74.205145420697647 $383 74.205145420697647 $307 $468 forward 7 unknown #
vertex $-1 $382 $469 #
straight-curve $-1 -74.205145420697647 41.863505271093864 0 0 0 -1 I I #
face $-1 $-1 $470 $16 $-1 $471 reversed single #
plane-surface $-1 0 41.863505271093864 0 0 -1 0 0 0 -1 forward_v I I I I #
face $-1 $472 $473 $17 $-1 $474 reversed single #
loop $-1 $-1 $475 $312 #
plane-surface $-1 -65.072963470809952 0 -0.3663252496372511 -1 0 0 0 0 1 forward_v I I I I #
coedge $-1 $476 $477 $478 $479 reversed $313 $-1 #
coedge $-1 $480 $315 $481 $482 reversed $226 $-1 #
coedge $-1 $315 $480 $483 $484 reversed $226 $-1 #
coedge $-1 $485 $475 $315 $394 forward $388 $-1 #
edge $-1 $486 -41.863505271093864 $487 41.863505271093864 $393 $488 forward 7 unknown #
coedge $-1 $316 $328 $489 $490 forward $139 $-1 #
coedge $-1 $491 $317 $316 $397 reversed $240 $-1 #
edge $-1 $492 -41.863505271093864 $319 18.610750168043847 $396 $332 forward 7 unknown #
straight-curve $-1 74.205145420697647 18.610750168043847 104.94286091917047 0 0 1 I I #
point $-1 74.205145420697647 18.610750168043847 10.154202923477884 #
straight-curve $-1 74.205145420697647 13.843899298926257 0.033842019505591736 0 -1 0 I I #
point $-1 74.205145420697647 18.610750168043847 0.033842019505584631 #
coedge $-1 $326 $491 $493 $494 reversed $240 $-1 #
coedge $-1 $495 $329 $326 $404 forward $409 $-1 #
edge $-1 $331 -10.154202923477884 $496 10.154202923477884 $326 $497 forward 7 unknown #
plane-surface $-1 74.205145420697647 0 0 -1 0 0 0 0 1 forward_v I I I I #
coedge $-1 $498 $499 $328 $407 reversed $500 $-1 #
edge $-1 $410 -41.863505271093864 $501 41.863505271093864 $406 $502 forward 7 unknown #
coedge $-1 $329 $483 $498 $503 reversed $409 $-1 #
loop $-1 $-1 $483 $504 #
vertex $-1 $330 $505 #
straight-curve $-1 0 41.863505271093864 10.154202923477884 -1 0 0 I I #
point $-1 74.205145420697647 41.863505271093864 10.154202923477884 #
face $-1 $506 $507 $18 $-1 $508 forward single #
loop $-1 $-1 $509 $333 #
plane-surface $-1 -69.6390544457538 0 1.1336747503627489 0 0 1 1 0 0 forward_v I I I I #
coedge $-1 $343 $510 $336 $419 forward $334 $-1 #
coedge $-1 $418 $336 $511 $512 reversed $247 $-1 #
coedge $-1 $336 $417 $420 $513 forward $247 $-1 #
edge $-1 $514 -38.934060613404171 $515 -28.454120348768782 $416 $516 forward 7 unknown #
coedge $-1 $422 $337 $418 $513 reversed $249 $-1 #
edge $-1 $515 4.7668508691175902 $344 22.920947728734919 $343 $517 forward 7 unknown #
coedge $-1 $338 $420 $425 $518 reversed $249 $-1 #
vertex $-1 $518 $519 #
straight-curve $-1 -32.552282391775378 36.764847027661176 103.1282940258679 0.71933979245794832 0 -0.69465837861970381 I I #
coedge $-1 $511 $340 $422 $518 forward $427 $-1 #
coedge $-1 $340 $520 $342 $430 reversed $427 $-1 #
loop $-1 $-1 $511 $521 #
straight-curve $-1 74.205145420697647 36.764847027661176 104.94286091917047 0 0 -1 I I #
coedge $-1 $522 $342 $523 $524 forward $334 $-1 #
edge $-1 $345 36.764847027661176 $525 41.863505271093864 $426 $526 forward 7 unknown #
point $-1 63.725205156062259 36.764847027661176 10.154202923477882 #
point $-1 74.205145420697647 36.764847027661176 10.154202923477884 #
point $-1 65.165764744251234 23.797634985077373 1.1596177678347259 #
face $-1 $527 $528 $19 $-1 $529 forward single #
loop $-1 $-1 $530 $349 #
plane-surface $-1 70.542169614586953 18.610750168043847 209.88572183834094 0 1 0 0.69465837861970381 0 0.71933979245794832 forward_v I I I I #
coedge $-1 $438 $351 $531 $532 forward $259 $-1 #
coedge $-1 $351 $437 $533 $534 reversed $259 $-1 #
coedge $-1 $535 $536 $351 $440 forward $528 $-1 #
edge $-1 $537 28.454120348768782 $538 38.934060613404171 $439 $539 forward 7 unknown #
edge $-1 $540 1 $540 0 $352 $-1 forward 7 unknown #
vertex $-1 $353 $541 #
ellipse-curve $-1 66.555081501490648 23.797634985077373 2.5982973527506226 0.69465837861970381 0 0.71933979245794832 1.4386795849158966 0 -1.3893167572394076 1 I I #
point $-1 70.40385487329587 23.797634985077373 3.7047057142523072 #
point $-1 65.165764744251234 31.577962210627653 1.1596177678347259 #
coedge $-1 $542 $531 $536 $543 reversed $358 $-1 #
loop $-1 $-1 $544 $363 #
plane-surface $-1 0 0 -10.154202923477884 0 0 1 1 0 0 forward_v I I I I #
coedge $-1 $381 $376 $545 $546 forward $364 $-1 #
coedge $-1 $454 $456 $366 $451 forward $447 $-1 #
edge $-1 $453 -41.863505271093864 $452 41.863505271093864 $366 $547 forward 7 unknown #
vertex $-1 $455 $548 #
vertex $-1 $451 $549 #
coedge $-1 $544 $450 $370 $455 forward $447 $-1 #
edge $-1 $452 -74.205145420697647 $550 74.205145420697647 $370 $551 forward 7 unknown #
coedge $-1 $450 $544 $372 $457 forward $447 $-1 #
edge $-1 $552 -74.205145420697647 $453 74.205145420697647 $372 $553 forward 7 unknown #
coedge $-1 $376 $381 $374 $459 forward $364 $-1 #
edge $-1 $383 -41.863505271093864 $378 41.863505271093864 $374 $554 forward 7 unknown #
coedge $-1 $555 $545 $375 $461 forward $470 $-1 #
edge $-1 $462 -10.154202923477884 $552 10.154202923477884 $460 $556 forward 7 unknown #
vertex $-1 $546 $557 #
straight-curve $-1 0 -41.863505271093864 10.154202923477884 1 0 0 I I #
point $-1 -74.205145420697647 -41.863505271093864 10.154202923477884 #
coedge $-1 $545 $555 $380 $466 reversed $470 $-1 #
edge $-1 $467 -10.154202923477884 $550 10.154202923477884 $465 $558 forward 7 unknown #
vertex $-1 $546 $559 #
straight-curve $-1 0 41.863505271093864 10.154202923477884 -1 0 0 I I #
point $-1 -74.205145420697647 41.863505271093864 10.154202923477884 #
loop $-1 $-1 $460 $385 #
plane-surface $-1 74.205145420697647 0 0 -1 0 0 0 0 1 forward_v I I I I #
face $-1 $560 $500 $17 $-1 $474 reversed single #
loop $-1 $-1 $561 $387 #
plane-surface $-1 -74.205145420697647 0 0 1 0 0 0 0 -1 forward_v I I I I #
coedge $-1 $393 $478 $562 $563 reversed $388 $-1 #
coedge $-1 $564 $390 $565 $566 reversed $313 $-1 #
coedge $-1 $390 $564 $567 $568 reversed $313 $-1 #
coedge $-1 $475 $485 $390 $479 forward $388 $-1 #
edge $-1 $569 -41.863505271093864 $570 41.863505271093864 $478 $571 forward 7 unknown #
coedge $-1 $392 $391 $572 $573 reversed $226 $-1 #
coedge $-1 $562 $574 $391 $482 forward $575 $-1 #
edge $-1 $576 -39.385618197820747 $486 -30.253436247933053 $481 $577 forward 7 unknown #
coedge $-1 $408 $578 $392 $484 forward $409 $-1 #
edge $-1 $487 30.253436247933053 $579 39.385618197820747 $483 $580 forward 7 unknown #
coedge $-1 $478 $393 $578 $581 reversed $388 $-1 #
vertex $-1 $482 $582 #
vertex $-1 $484 $583 #
straight-curve $-1 -65.072963470809952 0 1.1336747503627489 0 1 0 I I #
coedge $-1 $574 $584 $395 $490 reversed $575 $-1 #
edge $-1 $501 -74.205145420697647 $492 74.205145420697647 $489 $585 forward 7 unknown #
coedge $-1 $402 $396 $584 $586 forward $240 $-1 #
vertex $-1 $397 $587 #
coedge $-1 $588 $589 $402 $494 forward $590 $-1 #
edge $-1 $496 -41.863505271093864 $591 41.863505271093864 $402 $592 forward 7 unknown #
coedge $-1 $593 $403 $589 $594 reversed $409 $-1 #
vertex $-1 $494 $595 #
straight-curve $-1 74.205145420697647 41.863505271093864 0 0 0 -1 I I #
coedge $-1 $572 $406 $408 $503 forward $500 $-1 #
coedge $-1 $406 $572 $574 $596 reversed $500 $-1 #
loop $-1 $-1 $572 $472 #
vertex $-1 $407 $597 #
straight-curve $-1 -74.205145420697647 0 10.154202923477884 0 -1 0 I I #
edge $-1 $410 -10.154202923477884 $579 -1.1336747503627489 $408 $598 forward 7 unknown #
face $-1 $327 $409 $17 $-1 $599 reversed single #
point $-1 -74.205145420697647 41.863505271093864 10.154202923477884 #
face $-1 $600 $601 $18 $-1 $602 forward single #
loop $-1 $-1 $603 $413 #
plane-surface $-1 -69.6390544457538 0 -1.8663252496372511 0 0 1 1 0 0 forward_v I I I I #
coedge $-1 $604 $605 $606 $607 reversed $414 $-1 #
coedge $-1 $416 $608 $609 $610 forward $334 $-1 #
coedge $-1 $609 $425 $417 $512 forward $427 $-1 #
edge $-1 $611 -104.90901889966489 $514 -94.788657995692589 $511 $612 forward 7 unknown #
edge $-1 $611 -148.41029084139524 $515 -133.84145928986112 $418 $613 forward 7 unknown #
vertex $-1 $512 $614 #
vertex $-1 $421 $615 #
straight-curve $-1 35.271084807293477 18.610750168043847 10.154202923477882 -1 0 0 I I #
straight-curve $-1 63.725205156062252 13.843899298926257 10.154202923477882 0 1 0 I I #
edge $-1 $423 -22.920947728734919 $611 -4.7668508691175902 $425 $616 forward 7 unknown #
point $-1 74.205145420697647 36.764847027661176 0.033842019505584631 #
coedge $-1 $426 $617 $618 $619 reversed $427 $-1 #
face $-1 $-1 $427 $18 $-1 $620 reversed single #
coedge $-1 $608 $429 $621 $622 forward $334 $-1 #
coedge $-1 $618 $623 $429 $524 reversed $624 $-1 #
edge $-1 $525 -74.205145420697647 $625 74.205145420697647 $523 $626 forward 7 unknown #
vertex $-1 $430 $627 #
straight-curve $-1 74.205145420697647 0 10.154202923477884 0 1 0 I I #
face $-1 $628 $629 $19 $-1 $630 reversed single #
loop $-1 $-1 $631 $434 #
plane-surface $-1 0 0 10.154202923477884 0 0 1 1 0 0 forward_v I I I I #
coedge $-1 $632 $633 $631 $634 reversed $435 $-1 #
coedge $-1 $446 $635 $437 $532 reversed $358 $-1 #
edge $-1 $537 133.84145928986112 $636 148.41029084139524 $437 $637 forward 7 unknown #
coedge $-1 $638 $639 $438 $534 forward $640 $-1 #
edge $-1 $538 94.788657995692589 $636 104.90901889966489 $533 $641 forward 7 unknown #
coedge $-1 $642 $439 $639 $643 forward $528 $-1 #
coedge $-1 $439 $631 $446 $543 forward $528 $-1 #
vertex $-1 $543 $644 #
vertex $-1 $643 $645 #
straight-curve $-1 35.271084807293477 36.764847027661176 10.154202923477882 1 0 0 I I #
vertex $-1 $441 $646 #
point $-1 67.993761086406536 23.797634985077373 1.208980595511215 #
coedge $-1 $635 $446 $633 $647 reversed $358 $-1 #
edge $-1 $648 4.7668508691175902 $537 22.920947728734919 $536 $649 forward 7 unknown #
coedge $-1 $456 $454 $555 $650 forward $447 $-1 #
coedge $-1 $460 $465 $449 $546 reversed $470 $-1 #
edge $-1 $462 -41.863505271093864 $467 41.863505271093864 $545 $651 forward 7 unknown #
straight-curve $-1 -74.205145420697647 0 -10.154202923477884 0 1 0 I I #
point $-1 -74.205145420697647 41.863505271093864 -10.154202923477884 #
point $-1 -74.205145420697647 -41.863505271093864 -10.154202923477884 #
vertex $-1 $650 $652 #
straight-curve $-1 0 41.863505271093864 -10.154202923477884 1 0 0 I I #
vertex $-1 $461 $653 #
straight-curve $-1 0 -41.863505271093864 -10.154202923477884 -1 0 0 I I #
straight-curve $-1 -74.205145420697647 0 10.154202923477884 0 -1 0 I I #
coedge $-1 $465 $460 $544 $650 reversed $470 $-1 #
straight-curve $-1 74.205145420697647 -41.863505271093864 0 0 0 -1 I I #
point $-1 74.205145420697647 -41.863505271093864 10.154202923477884 #
straight-curve $-1 74.205145420697647 41.863505271093864 0 0 0 -1 I I #
point $-1 74.205145420697647 41.863505271093864 10.154202923477884 #
face $-1 $654 $575 $17 $-1 $655 reversed single #
coedge $-1 $656 $657 $564 $658 forward $473 $-1 #
coedge $-1 $567 $481 $475 $563 forward $575 $-1 #
edge $-1 $486 -1.3168373751813744 $570 1.6831626248186256 $562 $659 forward 7 unknown #
coedge $-1 $477 $476 $561 $658 reversed $313 $-1 #
coedge $-1 $578 $593 $476 $566 forward $409 $-1 #
edge $-1 $660 -39.385618197820747 $569 -30.253436247933053 $565 $661 forward 7 unknown #
coedge $-1 $662 $562 $477 $568 forward $575 $-1 #
edge $-1 $570 30.253436247933053 $663 39.385618197820747 $567 $664 forward 7 unknown #
vertex $-1 $566 $665 #
vertex $-1 $568 $666 #
straight-curve $-1 -65.072963470809952 0 -1.8663252496372511 0 -1 0 I I #
coedge $-1 $499 $498 $480 $573 forward $500 $-1 #
edge $-1 $579 -41.863505271093864 $576 41.863505271093864 $572 $667 forward 7 unknown #
coedge $-1 $481 $489 $499 $596 forward $575 $-1 #
loop $-1 $-1 $481 $560 #
vertex $-1 $482 $668 #
straight-curve $-1 -34.8195272228769 -41.863505271093864 1.1336747503627489 1 0 0 I I #
coedge $-1 $483 $565 $485 $581 forward $409 $-1 #
vertex $-1 $573 $669 #
straight-curve $-1 -34.8195272228769 41.863505271093864 1.1336747503627489 -1 0 0 I I #
edge $-1 $569 -1.6831626248186256 $487 1.3168373751813744 $578 $670 forward 7 unknown #
point $-1 -65.072963470809952 -41.863505271093864 1.1336747503627489 #
point $-1 -65.072963470809952 41.863505271093864 1.1336747503627489 #
coedge $-1 $489 $671 $491 $586 reversed $575 $-1 #
straight-curve $-1 0 -41.863505271093864 10.154202923477884 1 0 0 I I #
edge $-1 $492 -10.154202923477884 $591 10.154202923477884 $491 $672 forward 7 unknown #
point $-1 74.205145420697647 -41.863505271093864 10.154202923477884 #
coedge $-1 $673 $493 $671 $674 forward $590 $-1 #
coedge $-1 $493 $673 $495 $594 forward $590 $-1 #
loop $-1 $-1 $493 $654 #
vertex $-1 $586 $675 #
straight-curve $-1 74.205145420697647 0 -10.154202923477884 0 -1 0 I I #
coedge $-1 $565 $495 $656 $676 reversed $409 $-1 #
edge $-1 $677 -74.205145420697647 $496 74.205145420697647 $495 $678 forward 7 unknown #
point $-1 74.205145420697647 41.863505271093864 -10.154202923477884 #
edge $-1 $501 -10.154202923477884 $576 -1.1336747503627489 $499 $679 forward 7 unknown #
point $-1 -74.205145420697647 -41.863505271093864 10.154202923477884 #
straight-curve $-1 -74.205145420697647 41.863505271093864 0 0 0 -1 I I #
plane-surface $-1 0 41.863505271093864 0 0 -1 0 0 0 -1 forward_v I I I I #
face $-1 $680 $681 $18 $-1 $682 reversed single #
loop $-1 $-1 $683 $506 #
plane-surface $-1 -65.072963470809952 0 -0.3663252496372511 -1 0 0 0 0 1 forward_v I I I I #
coedge $-1 $684 $685 $686 $687 reversed $507 $-1 #
coedge $-1 $688 $509 $689 $690 reversed $414 $-1 #
coedge $-1 $509 $688 $691 $692 reversed $414 $-1 #
coedge $-1 $693 $683 $509 $607 forward $601 $-1 #
edge $-1 $694 -41.863505271093864 $695 41.863505271093864 $606 $696 forward 7 unknown #
coedge $-1 $510 $522 $697 $698 forward $334 $-1 #
coedge $-1 $699 $511 $510 $610 reversed $427 $-1 #
edge $-1 $700 -41.863505271093864 $514 18.610750168043847 $609 $526 forward 7 unknown #
vertex $-1 $518 $701 #
straight-curve $-1 74.205145420697647 18.610750168043847 104.94286091917047 0 0 1 I I #
straight-curve $-1 -32.552282391775378 18.610750168043847 103.1282940258679 -0.71933979245794832 0 0.69465837861970381 I I #
point $-1 74.205145420697647 18.610750168043847 10.154202923477884 #
point $-1 63.725205156062259 18.610750168043847 10.154202923477882 #
straight-curve $-1 74.205145420697647 13.843899298926257 0.033842019505591736 0 -1 0 I I #
coedge $-1 $520 $699 $702 $703 reversed $427 $-1 #
coedge $-1 $704 $523 $520 $619 forward $624 $-1 #
edge $-1 $525 -10.154202923477884 $705 10.154202923477884 $520 $706 forward 7 unknown #
plane-surface $-1 74.205145420697647 0 0 -1 0 0 0 0 1 forward_v I I I I #
coedge $-1 $707 $708 $522 $622 reversed $709 $-1 #
edge $-1 $625 -41.863505271093864 $710 41.863505271093864 $621 $711 forward 7 unknown #
coedge $-1 $523 $691 $707 $712 reversed $624 $-1 #
loop $-1 $-1 $691 $713 #
vertex $-1 $524 $714 #
straight-curve $-1 0 41.863505271093864 10.154202923477884 -1 0 0 I I #
point $-1 74.205145420697647 41.863505271093864 10.154202923477884 #
face $-1 $715 $716 $19 $-1 $717 forward single #
loop $-1 $-1 $718 $527 #
plane-surface $-1 -69.6390544457538 0 1.1336747503627489 0 0 1 1 0 0 forward_v I I I I #
coedge $-1 $536 $719 $530 $634 forward $528 $-1 #
coedge $-1 $633 $530 $720 $721 reversed $435 $-1 #
coedge $-1 $530 $632 $542 $647 forward $435 $-1 #
edge $-1 $722 -38.934060613404171 $648 -28.454120348768782 $631 $723 forward 7 unknown #
coedge $-1 $531 $542 $638 $724 reversed $358 $-1 #
vertex $-1 $724 $725 #
straight-curve $-1 -32.552282391775378 36.764847027661176 103.1282940258679 0.71933979245794832 0 -0.69465837861970381 I I #
coedge $-1 $720 $533 $635 $724 forward $640 $-1 #
coedge $-1 $533 $726 $535 $643 reversed $640 $-1 #
loop $-1 $-1 $720 $727 #
straight-curve $-1 74.205145420697647 36.764847027661176 104.94286091917047 0 0 -1 I I #
coedge $-1 $728 $535 $729 $730 forward $528 $-1 #
edge $-1 $538 36.764847027661176 $731 41.863505271093864 $639 $732 forward 7 unknown #
point $-1 63.725205156062259 36.764847027661176 10.154202923477882 #
point $-1 74.205145420697647 36.764847027661176 10.154202923477884 #
point $-1 65.165764744251234 23.797634985077373 1.1596177678347259 #
edge $-1 $733 -148.41029084139524 $648 -133.84145928986112 $633 $734 forward 7 unknown #
vertex $-1 $543 $735 #
straight-curve $-1 63.725205156062252 13.843899298926257 10.154202923477882 0 1 0 I I #
edge $-1 $550 -41.863505271093864 $552 41.863505271093864 $555 $736 forward 7 unknown #
straight-curve $-1 74.205145420697647 0 10.154202923477884 0 1 0 I I #
point $-1 74.205145420697647 41.863505271093864 -10.154202923477884 #
point $-1 74.205145420697647 -41.863505271093864 -10.154202923477884 #
face $-1 $504 $590 $17 $-1 $737 reversed single #
plane-surface $-1 0 -41.863505271093864 0 0 1 0 0 0 1 forward_v I I I I #
coedge $-1 $738 $561 $593 $676 forward $473 $-1 #
coedge $-1 $561 $738 $662 $739 reversed $473 $-1 #
edge $-1 $663 -41.863505271093864 $660 41.863505271093864 $561 $740 forward 7 unknown #
straight-curve $-1 -65.072963470809952 -41.863505271093864 -0.18316262481862555 0 0 -1 I I #
vertex $-1 $676 $741 #
straight-curve $-1 -34.8195272228769 41.863505271093864 -1.8663252496372511 1 0 0 I I #
coedge $-1 $671 $567 $657 $739 forward $575 $-1 #
vertex $-1 $739 $742 #
straight-curve $-1 -34.8195272228769 -41.863505271093864 -1.8663252496372511 -1 0 0 I I #
point $-1 -65.072963470809952 41.863505271093864 -1.8663252496372511 #
point $-1 -65.072963470809952 -41.863505271093864 -1.8663252496372511 #
straight-curve $-1 -74.205145420697647 0 1.1336747503627489 0 -1 0 I I #
point $-1 -74.205145420697647 -41.863505271093864 1.1336747503627489 #
point $-1 -74.205145420697647 41.863505271093864 1.1336747503627489 #
straight-curve $-1 -65.072963470809952 41.863505271093864 -0.18316262481862555 0 0 1 I I #
coedge $-1 $584 $662 $588 $674 reversed $575 $-1 #
straight-curve $-1 74.205145420697647 -41.863505271093864 0 0 0 -1 I I #
coedge $-1 $589 $588 $738 $743 forward $590 $-1 #
edge $-1 $591 -74.205145420697647 $744 74.205145420697647 $671 $745 forward 7 unknown #
point $-1 74.205145420697647 -41.863505271093864 -10.154202923477884 #
edge $-1 $660 1.8663252496372511 $677 10.154202923477884 $593 $598 forward 7 unknown #
vertex $-1 $594 $746 #
straight-curve $-1 0 41.863505271093864 -10.154202923477884 1 0 0 I I #
straight-curve $-1 -74.205145420697647 -41.863505271093864 0 0 0 -1 I I #
face $-1 $747 $709 $18 $-1 $682 reversed single #
loop $-1 $-1 $748 $600 #
plane-surface $-1 -74.205145420697647 0 0 1 0 0 0 0 -1 forward_v I I I I #
coedge $-1 $606 $686 $749 $750 reversed $601 $-1 #
coedge $-1 $751 $603 $752 $753 reversed $507 $-1 #
coedge $-1 $603 $751 $754 $755 reversed $507 $-1 #
coedge $-1 $683 $693 $603 $687 forward $601 $-1 #
edge $-1 $756 -41.863505271093864 $757 41.863505271093864 $686 $758 forward 7 unknown #
coedge $-1 $605 $604 $759 $760 reversed $414 $-1 #
coedge $-1 $749 $761 $604 $690 forward $762 $-1 #
edge $-1 $763 -39.385618197820747 $694 -30.253436247933053 $689 $764 forward 7 unknown #
coedge $-1 $623 $765 $605 $692 forward $624 $-1 #
edge $-1 $695 30.253436247933053 $766 39.385618197820747 $691 $767 forward 7 unknown #
coedge $-1 $686 $606 $765 $768 reversed $601 $-1 #
vertex $-1 $690 $769 #
vertex $-1 $692 $770 #
straight-curve $-1 -65.072963470809952 0 1.1336747503627489 0 1 0 I I #
coedge $-1 $761 $771 $608 $698 reversed $762 $-1 #
edge $-1 $710 -74.205145420697647 $700 74.205145420697647 $697 $772 forward 7 unknown #
coedge $-1 $617 $609 $771 $773 forward $427 $-1 #
vertex $-1 $610 $774 #
point $-1 74.205145420697647 18.610750168043847 0.033842019505584631 #
coedge $-1 $775 $776 $617 $703 forward $777 $-1 #
edge $-1 $705 -41.863505271093864 $778 41.863505271093864 $617 $779 forward 7 unknown #
coedge $-1 $780 $618 $776 $781 reversed $624 $-1 #
vertex $-1 $703 $782 #
straight-curve $-1 74.205145420697647 41.863505271093864 0 0 0 -1 I I #
coedge $-1 $759 $621 $623 $712 forward $709 $-1 #
coedge $-1 $621 $759 $761 $783 reversed $709 $-1 #
loop $-1 $-1 $759 $680 #
vertex $-1 $622 $784 #
straight-curve $-1 -74.205145420697647 0 10.154202923477884 0 -1 0 I I #
edge $-1 $625 -10.154202923477884 $766 -1.1336747503627489 $623 $785 forward 7 unknown #
face $-1 $521 $624 $18 $-1 $786 reversed single #
point $-1 -74.205145420697647 41.863505271093864 10.154202923477884 #
face $-1 $787 $788 $19 $-1 $789 forward single #
loop $-1 $-1 $790 $628 #
plane-surface $-1 -69.6390544457538 0 -1.8663252496372511 0 0 1 1 0 0 forward_v I I I I #
coedge $-1 $791 $792 $793 $794 reversed $629 $-1 #
coedge $-1 $631 $795 $796 $797 forward $528 $-1 #
coedge $-1 $796 $638 $632 $721 forward $640 $-1 #
edge $-1 $733 -104.90901889966489 $722 -94.788657995692589 $720 $798 forward 7 unknown #
vertex $-1 $721 $799 #
straight-curve $-1 35.271084807293477 18.610750168043847 10.154202923477882 -1 0 0 I I #
edge $-1 $636 -22.920947728734919 $733 -4.7668508691175902 $638 $800 forward 7 unknown #
point $-1 74.205145420697647 36.764847027661176 0.033842019505584631 #
coedge $-1 $639 $801 $802 $803 reversed $640 $-1 #
face $-1 $-1 $640 $19 $-1 $804 reversed single #
coedge $-1 $795 $642 $805 $806 forward $528 $-1 #
coedge $-1 $802 $807 $642 $730 reversed $808 $-1 #
edge $-1 $731 -74.205145420697647 $809 74.205145420697647 $729 $810 forward 7 unknown #
vertex $-1 $643 $811 #
straight-curve $-1 74.205145420697647 0 10.154202923477884 0 1 0 I I #
vertex $-1 $724 $812 #
straight-curve $-1 -32.552282391775378 18.610750168043847 103.1282940258679 -0.71933979245794832 0 0.69465837861970381 I I #
point $-1 63.725205156062259 18.610750168043847 10.154202923477882 #
straight-curve $-1 74.205145420697647 0 -10.154202923477884 0 -1 0 I I #
plane-surface $-1 0 0 -10.154202923477884 0 0 1 1 0 0 forward_v I I I I #
coedge $-1 $657 $656 $673 $743 reversed $473 $-1 #
edge $-1 $663 1.8663252496372511 $744 10.154202923477884 $657 $679 forward 7 unknown #
straight-curve $-1 -74.205145420697647 0 -1.8663252496372511 0 1 0 I I #
point $-1 -74.205145420697647 41.863505271093864 -1.8663252496372511 #
point $-1 -74.205145420697647 -41.863505271093864 -1.8663252496372511 #
edge $-1 $744 -41.863505271093864 $677 41.863505271093864 $738 $813 forward 7 unknown #
vertex $-1 $743 $814 #
straight-curve $-1 0 -41.863505271093864 -10.154202923477884 -1 0 0 I I #
point $-1 -74.205145420697647 41.863505271093864 -10.154202923477884 #
face $-1 $815 $762 $18 $-1 $816 reversed single #
coedge $-1 $817 $818 $751 $819 forward $681 $-1 #
coedge $-1 $754 $689 $683 $750 forward $762 $-1 #
edge $-1 $694 -1.3168373751813744 $757 1.6831626248186256 $749 $820 forward 7 unknown #
coedge $-1 $685 $684 $748 $819 reversed $507 $-1 #
coedge $-1 $765 $780 $684 $753 forward $624 $-1 #
edge $-1 $821 -39.385618197820747 $756 -30.253436247933053 $752 $822 forward 7 unknown #
coedge $-1 $823 $749 $685 $755 forward $762 $-1 #
edge $-1 $757 30.253436247933053 $824 39.385618197820747 $754 $825 forward 7 unknown #
vertex $-1 $753 $826 #
vertex $-1 $755 $827 #
straight-curve $-1 -65.072963470809952 0 -1.8663252496372511 0 -1 0 I I #
coedge $-1 $708 $707 $688 $760 forward $709 $-1 #
edge $-1 $766 -41.863505271093864 $763 41.863505271093864 $759 $828 forward 7 unknown #
coedge $-1 $689 $697 $708 $783 forward $762 $-1 #
loop $-1 $-1 $689 $747 #
vertex $-1 $690 $829 #
straight-curve $-1 -34.8195272228769 -41.863505271093864 1.1336747503627489 1 0 0 I I #
coedge $-1 $691 $752 $693 $768 forward $624 $-1 #
vertex $-1 $760 $830 #
straight-curve $-1 -34.8195272228769 41.863505271093864 1.1336747503627489 -1 0 0 I I #
edge $-1 $756 -1.6831626248186256 $695 1.3168373751813744 $765 $831 forward 7 unknown #
point $-1 -65.072963470809952 -41.863505271093864 1.1336747503627489 #
point $-1 -65.072963470809952 41.863505271093864 1.1336747503627489 #
coedge $-1 $697 $832 $699 $773 reversed $762 $-1 #
straight-curve $-1 0 -41.863505271093864 10.154202923477884 1 0 0 I I #
edge $-1 $700 -10.154202923477884 $778 10.154202923477884 $699 $833 forward 7 unknown #
point $-1 74.205145420697647 -41.863505271093864 10.154202923477884 #
coedge $-1 $834 $702 $832 $835 forward $777 $-1 #
coedge $-1 $702 $834 $704 $781 forward $777 $-1 #
loop $-1 $-1 $702 $815 #
vertex $-1 $773 $836 #
straight-curve $-1 74.205145420697647 0 -10.154202923477884 0 -1 0 I I #
coedge $-1 $752 $704 $817 $837 reversed $624 $-1 #
edge $-1 $838 -74.205145420697647 $705 74.205145420697647 $704 $839 forward 7 unknown #
point $-1 74.205145420697647 41.863505271093864 -10.154202923477884 #
edge $-1 $710 -10.154202923477884 $763 -1.1336747503627489 $708 $840 forward 7 unknown #
point $-1 -74.205145420697647 -41.863505271093864 10.154202923477884 #
straight-curve $-1 -74.205145420697647 41.863505271093864 0 0 0 -1 I I #
plane-surface $-1 0 41.863505271093864 0 0 -1 0 0 0 -1 forward_v I I I I #
face $-1 $841 $842 $19 $-1 $843 reversed single #
loop $-1 $-1 $844 $715 #
plane-surface $-1 -65.072963470809952 0 -0.3663252496372511 -1 0 0 0 0 1 forward_v I I I I #
coedge $-1 $845 $846 $847 $848 reversed $716 $-1 #
coedge $-1 $849 $718 $850 $851 reversed $629 $-1 #
coedge $-1 $718 $849 $852 $853 reversed $629 $-1 #
coedge $-1 $854 $844 $718 $794 forward $788 $-1 #
edge $-1 $855 -41.863505271093864 $856 41.863505271093864 $793 $857 forward 7 unknown #
coedge $-1 $719 $728 $858 $859 forward $528 $-1 #
coedge $-1 $860 $720 $719 $797 reversed $640 $-1 #
edge $-1 $861 -41.863505271093864 $722 18.610750168043847 $796 $732 forward 7 unknown #
straight-curve $-1 74.205145420697647 18.610750168043847 104.94286091917047 0 0 1 I I #
point $-1 74.205145420697647 18.610750168043847 10.154202923477884 #
straight-curve $-1 74.205145420697647 13.843899298926257 0.033842019505591736 0 -1 0 I I #
coedge $-1 $726 $860 $862 $863 reversed $640 $-1 #
coedge $-1 $864 $729 $726 $803 forward $808 $-1 #
edge $-1 $731 -10.154202923477884 $865 10.154202923477884 $726 $866 forward 7 unknown #
plane-surface $-1 74.205145420697647 0 0 -1 0 0 0 0 1 forward_v I I I I #
coedge $-1 $867 $868 $728 $806 reversed $869 $-1 #
edge $-1 $809 -41.863505271093864 $870 41.863505271093864 $805 $871 forward 7 unknown #
coedge $-1 $729 $852 $867 $872 reversed $808 $-1 #
loop $-1 $-1 $852 $873 #
vertex $-1 $730 $874 #
straight-curve $-1 0 41.863505271093864 10.154202923477884 -1 0 0 I I #
point $-1 74.205145420697647 41.863505271093864 10.154202923477884 #
point $-1 74.205145420697647 18.610750168043847 0.033842019505584631 #
straight-curve $-1 -74.205145420697647 0 -10.154202923477884 0 1 0 I I #
point $-1 -74.205145420697647 -41.863505271093864 -10.154202923477884 #
face $-1 $713 $777 $18 $-1 $875 reversed single #
plane-surface $-1 0 -41.863505271093864 0 0 1 0 0 0 1 forward_v I I I I #
coedge $-1 $876 $748 $780 $837 forward $681 $-1 #
coedge $-1 $748 $876 $823 $877 reversed $681 $-1 #
edge $-1 $824 -41.863505271093864 $821 41.863505271093864 $748 $878 forward 7 unknown #
straight-curve $-1 -65.072963470809952 -41.863505271093864 -0.18316262481862555 0 0 -1 I I #
vertex $-1 $837 $879 #
straight-curve $-1 -34.8195272228769 41.863505271093864 -1.8663252496372511 1 0 0 I I #
coedge $-1 $832 $754 $818 $877 forward $762 $-1 #
vertex $-1 $877 $880 #
straight-curve $-1 -34.8195272228769 -41.863505271093864 -1.8663252496372511 -1 0 0 I I #
point $-1 -65.072963470809952 41.863505271093864 -1.8663252496372511 #
point $-1 -65.072963470809952 -41.863505271093864 -1.8663252496372511 #
straight-curve $-1 -74.205145420697647 0 1.1336747503627489 0 -1 0 I I #
point $-1 -74.205145420697647 -41.863505271093864 1.1336747503627489 #
point $-1 -74.205145420697647 41.863505271093864 1.1336747503627489 #
straight-curve $-1 -65.072963470809952 41.863505271093864 -0.18316262481862555 0 0 1 I I #
coedge $-1 $771 $823 $775 $835 reversed $762 $-1 #
straight-curve $-1 74.205145420697647 -41.863505271093864 0 0 0 -1 I I #
coedge $-1 $776 $775 $876 $881 forward $777 $-1 #
edge $-1 $778 -74.205145420697647 $882 74.205145420697647 $832 $883 forward 7 unknown #
point $-1 74.205145420697647 -41.863505271093864 -10.154202923477884 #
edge $-1 $821 1.8663252496372511 $838 10.154202923477884 $780 $785 forward 7 unknown #
vertex $-1 $781 $884 #
straight-curve $-1 0 41.863505271093864 -10.154202923477884 1 0 0 I I #
straight-curve $-1 -74.205145420697647 -41.863505271093864 0 0 0 -1 I I #
face $-1 $885 $869 $19 $-1 $843 reversed single #
loop $-1 $-1 $886 $787 #
plane-surface $-1 -74.205145420697647 0 0 1 0 0 0 0 -1 forward_v I I I I #
coedge $-1 $793 $847 $887 $888 reversed $788 $-1 #
coedge $-1 $889 $790 $890 $891 reversed $716 $-1 #
coedge $-1 $790 $889 $892 $893 reversed $716 $-1 #
coedge $-1 $844 $854 $790 $848 forward $788 $-1 #
edge $-1 $894 -41.863505271093864 $895 41.863505271093864 $847 $896 forward 7 unknown #
coedge $-1 $792 $791 $897 $898 reversed $629 $-1 #
coedge $-1 $887 $899 $791 $851 forward $900 $-1 #
edge $-1 $901 -39.385618197820747 $855 -30.253436247933053 $850 $902 forward 7 unknown #
coedge $-1 $807 $903 $792 $853 forward $808 $-1 #
edge $-1 $856 30.253436247933053 $904 39.385618197820747 $852 $905 forward 7 unknown #
coedge $-1 $847 $793 $903 $906 reversed $788 $-1 #
vertex $-1 $851 $907 #
vertex $-1 $853 $908 #
straight-curve $-1 -65.072963470809952 0 1.1336747503627489 0 1 0 I I #
coedge $-1 $899 $909 $795 $859 reversed $900 $-1 #
edge $-1 $870 -74.205145420697647 $861 74.205145420697647 $858 $910 forward 7 unknown #
coedge $-1 $801 $796 $909 $911 forward $640 $-1 #
vertex $-1 $797 $912 #
coedge $-1 $913 $914 $801 $863 forward $915 $-1 #
edge $-1 $865 -41.863505271093864 $916 41.863505271093864 $801 $917 forward 7 unknown #
coedge $-1 $918 $802 $914 $919 reversed $808 $-1 #
vertex $-1 $863 $920 #
straight-curve $-1 74.205145420697647 41.863505271093864 0 0 0 -1 I I #
coedge $-1 $897 $805 $807 $872 forward $869 $-1 #
coedge $-1 $805 $897 $899 $921 reversed $869 $-1 #
loop $-1 $-1 $897 $841 #
vertex $-1 $806 $922 #
straight-curve $-1 -74.205145420697647 0 10.154202923477884 0 -1 0 I I #
edge $-1 $809 -10.154202923477884 $904 -1.1336747503627489 $807 $923 forward 7 unknown #
face $-1 $727 $808 $19 $-1 $924 reversed single #
point $-1 -74.205145420697647 41.863505271093864 10.154202923477884 #
plane-surface $-1 0 0 -10.154202923477884 0 0 1 1 0 0 forward_v I I I I #
coedge $-1 $818 $817 $834 $881 reversed $681 $-1 #
edge $-1 $824 1.8663252496372511 $882 10.154202923477884 $818 $840 forward 7 unknown #
straight-curve $-1 -74.205145420697647 0 -1.8663252496372511 0 1 0 I I #
point $-1 -74.205145420697647 41.863505271093864 -1.8663252496372511 #
point $-1 -74.205145420697647 -41.863505271093864 -1.8663252496372511 #
edge $-1 $882 -41.863505271093864 $838 41.863505271093864 $876 $925 forward 7 unknown #
vertex $-1 $881 $926 #
straight-curve $-1 0 -41.863505271093864 -10.154202923477884 -1 0 0 I I #
point $-1 -74.205145420697647 41.863505271093864 -10.154202923477884 #
face $-1 $927 $900 $19 $-1 $928 reversed single #
coedge $-1 $929 $930 $889 $931 forward $842 $-1 #
coedge $-1 $892 $850 $844 $888 forward $900 $-1 #
edge $-1 $855 -1.3168373751813744 $895 1.6831626248186256 $887 $932 forward 7 unknown #
coedge $-1 $846 $845 $886 $931 reversed $716 $-1 #
coedge $-1 $903 $918 $845 $891 forward $808 $-1 #
edge $-1 $933 -39.385618197820747 $894 -30.253436247933053 $890 $934 forward 7 unknown #
coedge $-1 $935 $887 $846 $893 forward $900 $-1 #
edge $-1 $895 30.253436247933053 $936 39.385618197820747 $892 $937 forward 7 unknown #
vertex $-1 $891 $938 #
vertex $-1 $893 $939 #
straight-curve $-1 -65.072963470809952 0 -1.8663252496372511 0 -1 0 I I #
coedge $-1 $868 $867 $849 $898 forward $869 $-1 #
edge $-1 $904 -41.863505271093864 $901 41.863505271093864 $897 $940 forward 7 unknown #
coedge $-1 $850 $858 $868 $921 forward $900 $-1 #
loop $-1 $-1 $850 $885 #
vertex $-1 $851 $941 #
straight-curve $-1 -34.8195272228769 -41.863505271093864 1.1336747503627489 1 0 0 I I #
coedge $-1 $852 $890 $854 $906 forward $808 $-1 #
vertex $-1 $898 $942 #
straight-curve $-1 -34.8195272228769 41.863505271093864 1.1336747503627489 -1 0 0 I I #
edge $-1 $894 -1.6831626248186256 $856 1.3168373751813744 $903 $943 forward 7 unknown #
point $-1 -65.072963470809952 -41.863505271093864 1.1336747503627489 #
point $-1 -65.072963470809952 41.863505271093864 1.1336747503627489 #
coedge $-1 $858 $944 $860 $911 reversed $900 $-1 #
straight-curve $-1 0 -41.863505271093864 10.154202923477884 1 0 0 I I #
edge $-1 $861 -10.154202923477884 $916 10.154202923477884 $860 $945 forward 7 unknown #
point $-1 74.205145420697647 -41.863505271093864 10.154202923477884 #
coedge $-1 $946 $862 $944 $947 forward $915 $-1 #
coedge $-1 $862 $946 $864 $919 forward $915 $-1 #
loop $-1 $-1 $862 $927 #
vertex $-1 $911 $948 #
straight-curve $-1 74.205145420697647 0 -10.154202923477884 0 -1 0 I I #
coedge $-1 $890 $864 $929 $949 reversed $808 $-1 #
edge $-1 $950 -74.205145420697647 $865 74.205145420697647 $864 $951 forward 7 unknown #
point $-1 74.205145420697647 41.863505271093864 -10.154202923477884 #
edge $-1 $870 -10.154202923477884 $901 -1.1336747503627489 $868 $952 forward 7 unknown #
point $-1 -74.205145420697647 -41.863505271093864 10.154202923477884 #
straight-curve $-1 -74.205145420697647 41.863505271093864 0 0 0 -1 I I #
plane-surface $-1 0 41.863505271093864 0 0 -1 0 0 0 -1 forward_v I I I I #
straight-curve $-1 -74.205145420697647 0 -10.154202923477884 0 1 0 I I #
point $-1 -74.205145420697647 -41.863505271093864 -10.154202923477884 #
face $-1 $873 $915 $19 $-1 $953 reversed single #
plane-surface $-1 0 -41.863505271093864 0 0 1 0 0 0 1 forward_v I I I I #
coedge $-1 $954 $886 $918 $949 forward $842 $-1 #
coedge $-1 $886 $954 $935 $955 reversed $842 $-1 #
edge $-1 $936 -41.863505271093864 $933 41.863505271093864 $886 $956 forward 7 unknown #
straight-curve $-1 -65.072963470809952 -41.863505271093864 -0.18316262481862555 0 0 -1 I I #
vertex $-1 $949 $957 #
straight-curve $-1 -34.8195272228769 41.863505271093864 -1.8663252496372511 1 0 0 I I #
coedge $-1 $944 $892 $930 $955 forward $900 $-1 #
vertex $-1 $955 $958 #
straight-curve $-1 -34.8195272228769 -41.863505271093864 -1.8663252496372511 -1 0 0 I I #
point $-1 -65.072963470809952 41.863505271093864 -1.8663252496372511 #
point $-1 -65.072963470809952 -41.863505271093864 -1.8663252496372511 #
straight-curve $-1 -74.205145420697647 0 1.1336747503627489 0 -1 0 I I #
point $-1 -74.205145420697647 -41.863505271093864 1.1336747503627489 #
point $-1 -74.205145420697647 41.863505271093864 1.1336747503627489 #
straight-curve $-1 -65.072963470809952 41.863505271093864 -0.18316262481862555 0 0 1 I I #
coedge $-1 $909 $935 $913 $947 reversed $900 $-1 #
straight-curve $-1 74.205145420697647 -41.863505271093864 0 0 0 -1 I I #
coedge $-1 $914 $913 $954 $959 forward $915 $-1 #
edge $-1 $916 -74.205145420697647 $960 74.205145420697647 $944 $961 forward 7 unknown #
point $-1 74.205145420697647 -41.863505271093864 -10.154202923477884 #
edge $-1 $933 1.8663252496372511 $950 10.154202923477884 $918 $923 forward 7 unknown #
vertex $-1 $919 $962 #
straight-curve $-1 0 41.863505271093864 -10.154202923477884 1 0 0 I I #
straight-curve $-1 -74.205145420697647 -41.863505271093864 0 0 0 -1 I I #
plane-surface $-1 0 0 -10.154202923477884 0 0 1 1 0 0 forward_v I I I I #
coedge $-1 $930 $929 $946 $959 reversed $842 $-1 #
edge $-1 $936 1.8663252496372511 $960 10.154202923477884 $930 $952 forward 7 unknown #
straight-curve $-1 -74.205145420697647 0 -1.8663252496372511 0 1 0 I I #
point $-1 -74.205145420697647 41.863505271093864 -1.8663252496372511 #
point $-1 -74.205145420697647 -41.863505271093864 -1.8663252496372511 #
edge $-1 $960 -41.863505271093864 $950 41.863505271093864 $954 $963 forward 7 unknown #
vertex $-1 $959 $964 #
straight-curve $-1 0 -41.863505271093864 -10.154202923477884 -1 0 0 I I #
point $-1 -74.205145420697647 41.863505271093864 -10.154202923477884 #
straight-curve $-1 -74.205145420697647 0 -10.154202923477884 0 1 0 I I #
point $-1 -74.205145420697647 -41.863505271093864 -10.154202923477884 #
End-of-ACIS-data 