500 0 7 0           
7 Unknown 11 ACIS 5.0 NT 24 Fri Mar 26 19:31:20 1999 
-1 9.9999999999999995e-007 1e-010 
body $-1 $7 $-1 $8 #
body $-1 $9 $-1 $10 #
body $-1 $11 $-1 $12 #
body $-1 $13 $-1 $14 #
body $-1 $15 $-1 $16 #
body $-1 $17 $-1 $18 #
body $-1 $19 $-1 $20 #
lump $-1 $-1 $21 $0 #
transform $-1 1 0 0 0 1 0 0 0 1 44.129764702291936 24.98145751638183 8.4355399240091185 1 rotate no_reflect no_shear #
lump $-1 $-1 $22 $1 #
transform $-1 1 0 0 0 1 0 0 0 1 44.129764702291936 24.98145751638183 8.4355399240091185 1 rotate no_reflect no_shear #
lump $-1 $-1 $23 $2 #
transform $-1 1 0 0 0 1 0 0 0 1 44.129764702291936 24.98145751638183 8.4355399240091185 1 rotate no_reflect no_shear #
lump $-1 $-1 $24 $3 #
transform $-1 1 0 0 0 1 0 0 0 1 44.129764702291936 24.98145751638183 8.4355399240091185 1 rotate no_reflect no_shear #
lump $-1 $-1 $25 $4 #
transform $-1 1 0 0 0 1 0 0 0 1 44.129764702291936 24.98145751638183 8.4355399240091185 1 rotate no_reflect no_shear #
lump $-1 $-1 $26 $5 #
transform $-1 1 0 0 0 1 0 0 0 1 44.129764702291936 24.98145751638183 8.4355399240091185 1 rotate no_reflect no_shear #
lump $-1 $-1 $27 $6 #
transform $-1 1 0 0 0 1 0 0 0 1 44.129764702291936 24.98145751638183 8.4355399240091185 1 rotate no_reflect no_shear #
shell $-1 $-1 $-1 $28 $-1 $7 #
shell $-1 $-1 $-1 $29 $-1 $9 #
shell $-1 $-1 $-1 $30 $-1 $11 #
shell $-1 $-1 $-1 $31 $-1 $13 #
shell $-1 $-1 $-1 $32 $-1 $15 #
shell $-1 $-1 $-1 $33 $-1 $17 #
shell $-1 $-1 $-1 $34 $-1 $19 #
face $-1 $35 $36 $21 $-1 $37 forward single #
face $-1 $38 $39 $22 $-1 $40 forward single #
face $-1 $41 $42 $23 $-1 $43 forward single #
face $-1 $44 $45 $24 $-1 $46 reversed single #
face $-1 $47 $48 $25 $-1 $49 forward single #
face $-1 $50 $51 $26 $-1 $52 forward single #
face $-1 $53 $54 $27 $-1 $55 forward single #
face $-1 $56 $57 $21 $-1 $58 reversed single #
loop $-1 $-1 $59 $28 #
plane-surface $-1 0 0 8.4355399240091185 0 0 1 1 0 0 forward_v I I I I #
face $-1 $60 $61 $22 $-1 $62 reversed single #
loop $-1 $-1 $63 $29 #
plane-surface $-1 0 -24.98145751638183 0 0 1 0 0 0 1 forward_v I I I I #
face $-1 $64 $65 $23 $-1 $66 reversed single #
loop $-1 $-1 $67 $30 #
plane-surface $-1 0 24.98145751638183 0 0 -1 0 0 0 -1 forward_v I I I I #
face $-1 $68 $69 $24 $-1 $70 reversed single #
loop $-1 $-1 $71 $31 #
plane-surface $-1 59.341232557606034 -8.9835369774654659 124.45477541214798 0 -1 0 -0.78801076186113728 0 -0.61566146476048833 forward_v I I I I #
face $-1 $72 $73 $25 $-1 $74 forward single #
loop $-1 $75 $76 $32 #
cone-surface $-1 40.487779339216189 -16.385788758159098 4.0574092800634647 -0.78801076186113728 0 -0.61566146476048833 0.30783073238024417 0 -0.39400538093056864 1 I I 0 1 0.5 forward I I I I #
face $-1 $77 $78 $26 $-1 $79 forward single #
loop $-1 $80 $81 $33 #
cone-surface $-1 40.487779339216189 -13.609944340398986 4.0574092800634647 -0.78801076186113728 0 -0.61566146476048833 0.30783073238024417 0 -0.39400538093056864 1 I I 0 1 0.5 forward I I I I #
face $-1 $82 $83 $27 $-1 $84 forward single #
loop $-1 $85 $86 $34 #
cone-surface $-1 40.487779339216189 -10.834099922638874 4.0574092800634647 -0.78801076186113728 0 -0.61566146476048833 0.30783073238024417 0 -0.39400538093056864 1 I I 0 1 0.5 forward I I I I #
face $-1 $87 $88 $21 $-1 $89 reversed single #
loop $-1 $-1 $90 $35 #
plane-surface $-1 0 0 -8.4355399240091185 0 0 1 1 0 0 forward_v I I I I #
coedge $-1 $91 $92 $93 $94 forward $36 $-1 #
face $-1 $95 $96 $22 $-1 $97 forward single #
loop $-1 $-1 $98 $38 #
plane-surface $-1 -44.129764702291936 0 0 1 0 0 0 0 -1 forward_v I I I I #
coedge $-1 $99 $100 $101 $102 forward $39 $-1 #
face $-1 $103 $104 $23 $-1 $105 forward single #
loop $-1 $-1 $106 $41 #
plane-surface $-1 44.129764702291936 0 0 -1 0 0 0 0 1 forward_v I I I I #
coedge $-1 $107 $108 $109 $110 forward $42 $-1 #
face $-1 $111 $112 $24 $-1 $113 reversed single #
loop $-1 $-1 $114 $44 #
plane-surface $-1 -10.208226450005554 -13.609944340398986 70.116784259850476 0.78801076186113728 0 0.61566146476048833 0.61566146476048833 0 -0.78801076186113728 forward_v I I I I #
coedge $-1 $115 $116 $117 $118 reversed $45 $-1 #
face $-1 $-1 $119 $25 $-1 $120 forward single #
loop $-1 $121 $122 $47 #
cone-surface $-1 39.722452715394098 -16.385788758159098 3.4594706058127986 -0.78801076186113728 0 -0.61566146476048833 0.15391536619012208 0 -0.19700269046528432 1 I I -0.70710678118654746 0.70710678118654746 0.25 forward I I I I #
loop $-1 $-1 $123 $32 #
coedge $-1 $76 $76 $124 $125 reversed $48 $-1 #
face $-1 $-1 $126 $26 $-1 $127 forward single #
loop $-1 $128 $129 $50 #
cone-surface $-1 39.722452715394098 -13.609944340398986 3.4594706058127986 -0.78801076186113728 0 -0.61566146476048833 0.15391536619012208 0 -0.19700269046528432 1 I I -0.70710678118654746 0.70710678118654746 0.25 forward I I I I #
loop $-1 $-1 $130 $33 #
coedge $-1 $81 $81 $131 $132 reversed $51 $-1 #
face $-1 $-1 $133 $27 $-1 $134 forward single #
loop $-1 $135 $136 $53 #
cone-surface $-1 39.722452715394098 -10.834099922638874 3.4594706058127986 -0.78801076186113728 0 -0.61566146476048833 0.15391536619012208 0 -0.19700269046528432 1 I I -0.70710678118654746 0.70710678118654746 0.25 forward I I I I #
loop $-1 $-1 $137 $34 #
coedge $-1 $86 $86 $138 $139 reversed $54 $-1 #
face $-1 $140 $141 $21 $-1 $142 reversed single #
loop $-1 $-1 $143 $56 #
plane-surface $-1 0 -24.98145751638183 0 0 1 0 0 0 1 forward_v I I I I #
coedge $-1 $144 $145 $146 $147 forward $57 $-1 #
coedge $-1 $148 $59 $149 $150 forward $36 $-1 #
coedge $-1 $59 $148 $151 $152 forward $36 $-1 #
coedge $-1 $153 $154 $59 $94 reversed $155 $-1 #
edge $-1 $156 -24.98145751638183 $157 24.98145751638183 $93 $158 forward 7 unknown #
face $-1 $159 $160 $22 $-1 $161 reversed single #
loop $-1 $-1 $162 $60 #
plane-surface $-1 0 -28.354010422906491 7.3287371340798009 0 0 1 1 0 0 forward_v I I I I #
coedge $-1 $163 $164 $100 $165 forward $61 $-1 #
coedge $-1 $166 $63 $167 $168 reversed $39 $-1 #
coedge $-1 $63 $166 $98 $165 reversed $39 $-1 #
coedge $-1 $169 $162 $63 $102 reversed $96 $-1 #
edge $-1 $170 -44.129764702291936 $171 44.129764702291936 $101 $172 forward 7 unknown #
face $-1 $173 $174 $23 $-1 $175 reversed single #
loop $-1 $-1 $176 $64 #
plane-surface $-1 0 28.354010422906491 7.3287371340798009 0 0 1 1 0 0 forward_v I I I I #
coedge $-1 $177 $178 $108 $179 forward $65 $-1 #
coedge $-1 $180 $67 $181 $182 reversed $42 $-1 #
coedge $-1 $67 $180 $106 $179 reversed $42 $-1 #
coedge $-1 $176 $183 $67 $110 reversed $104 $-1 #
edge $-1 $184 -44.129764702291936 $185 44.129764702291936 $109 $186 forward 7 unknown #
face $-1 $187 $188 $24 $-1 $189 forward single #
loop $-1 $-1 $190 $68 #
plane-surface $-1 59.341232557606034 -18.236351703332506 124.45477541214798 0 1 0 0.78801076186113728 0 0.61566146476048833 forward_v I I I I #
coedge $-1 $191 $192 $193 $194 reversed $69 $-1 #
coedge $-1 $116 $71 $195 $196 reversed $45 $-1 #
coedge $-1 $71 $115 $191 $197 reversed $45 $-1 #
coedge $-1 $193 $198 $71 $118 forward $188 $-1 #
edge $-1 $199 -14.459148423488919 $200 -8.3118255640510554 $117 $201 forward 7 unknown #
loop $-1 $-1 $124 $72 #
plane-surface $-1 -10.208226450005554 -13.609944340398986 70.116784259850476 0.78801076186113728 0 0.61566146476048833 0.61566146476048833 0 -0.78801076186113728 forward_v I I I I #
loop $-1 $-1 $202 $47 #
coedge $-1 $122 $122 $123 $203 reversed $73 $-1 #
coedge $-1 $123 $123 $122 $203 forward $75 $-1 #
coedge $-1 $124 $124 $76 $125 forward $119 $-1 #
edge $-1 $204 0 $204 6.2831853071796004 $124 $205 forward 7 unknown #
loop $-1 $-1 $131 $77 #
plane-surface $-1 -10.208226450005554 -13.609944340398986 70.116784259850476 0.78801076186113728 0 0.61566146476048833 0.61566146476048833 0 -0.78801076186113728 forward_v I I I I #
loop $-1 $-1 $206 $50 #
coedge $-1 $129 $129 $130 $207 reversed $78 $-1 #
coedge $-1 $130 $130 $129 $207 forward $80 $-1 #
coedge $-1 $131 $131 $81 $132 forward $126 $-1 #
edge $-1 $208 0 $208 6.2831853071796004 $131 $209 forward 7 unknown #
loop $-1 $-1 $138 $82 #
plane-surface $-1 -10.208226450005554 -13.609944340398986 70.116784259850476 0.78801076186113728 0 0.61566146476048833 0.61566146476048833 0 -0.78801076186113728 forward_v I I I I #
loop $-1 $-1 $210 $53 #
coedge $-1 $136 $136 $137 $211 reversed $83 $-1 #
coedge $-1 $137 $137 $136 $211 forward $85 $-1 #
coedge $-1 $138 $138 $86 $139 forward $133 $-1 #
edge $-1 $212 0 $212 6.2831853071796004 $138 $213 forward 7 unknown #
face $-1 $214 $215 $21 $-1 $216 reversed single #
loop $-1 $-1 $217 $87 #
plane-surface $-1 -44.129764702291936 0 0 1 0 0 0 0 -1 forward_v I I I I #
coedge $-1 $218 $151 $219 $220 forward $88 $-1 #
coedge $-1 $221 $90 $218 $222 forward $57 $-1 #
coedge $-1 $90 $221 $223 $224 forward $57 $-1 #
coedge $-1 $154 $153 $90 $147 reversed $155 $-1 #
edge $-1 $225 -24.98145751638183 $226 24.98145751638183 $146 $227 forward 7 unknown #
coedge $-1 $92 $91 $228 $229 forward $36 $-1 #
coedge $-1 $230 $231 $91 $150 reversed $215 $-1 #
edge $-1 $157 -44.129764702291936 $232 44.129764702291936 $149 $233 forward 7 unknown #
coedge $-1 $143 $234 $92 $152 reversed $88 $-1 #
edge $-1 $235 -44.129764702291936 $156 44.129764702291936 $151 $236 forward 7 unknown #
coedge $-1 $146 $93 $234 $237 forward $155 $-1 #
coedge $-1 $93 $146 $230 $238 reversed $155 $-1 #
loop $-1 $-1 $153 $214 #
vertex $-1 $94 $239 #
vertex $-1 $94 $240 #
straight-curve $-1 44.129764702291936 0 8.4355399240091185 0 1 0 I I #
face $-1 $241 $242 $22 $-1 $243 reversed single #
loop $-1 $-1 $244 $95 #
plane-surface $-1 0 -28.354010422906491 3.8451091198060938 0 0 1 1 0 0 forward_v I I I I #
coedge $-1 $101 $245 $246 $247 forward $96 $-1 #
coedge $-1 $248 $98 $249 $250 reversed $61 $-1 #
coedge $-1 $98 $248 $169 $251 reversed $61 $-1 #
edge $-1 $170 -7.3287371340798009 $252 -3.8451091198060938 $98 $253 forward 7 unknown #
coedge $-1 $100 $99 $254 $255 forward $39 $-1 #
coedge $-1 $246 $256 $99 $168 forward $257 $-1 #
edge $-1 $258 3.8451091198060938 $171 7.3287371340798009 $167 $259 forward 7 unknown #
coedge $-1 $245 $101 $164 $251 forward $96 $-1 #
vertex $-1 $165 $260 #
vertex $-1 $247 $261 #
straight-curve $-1 0 -24.98145751638183 7.3287371340798009 1 0 0 I I #
face $-1 $262 $263 $23 $-1 $264 reversed single #
loop $-1 $-1 $265 $103 #
plane-surface $-1 0 28.354010422906491 3.8451091198060938 0 0 1 1 0 0 forward_v I I I I #
coedge $-1 $266 $109 $178 $267 forward $104 $-1 #
coedge $-1 $268 $106 $265 $269 reversed $65 $-1 #
coedge $-1 $106 $268 $176 $267 reversed $65 $-1 #
edge $-1 $184 -7.3287371340798009 $270 -3.8451091198060938 $106 $271 forward 7 unknown #
coedge $-1 $108 $107 $272 $273 forward $42 $-1 #
coedge $-1 $274 $275 $107 $182 forward $276 $-1 #
edge $-1 $277 3.8451091198060938 $185 7.3287371340798009 $181 $278 forward 7 unknown #
coedge $-1 $109 $266 $274 $279 forward $104 $-1 #
vertex $-1 $179 $280 #
vertex $-1 $279 $281 #
straight-curve $-1 0 24.98145751638183 7.3287371340798009 -1 0 0 I I #
face $-1 $-1 $282 $24 $-1 $283 reversed single #
loop $-1 $-1 $117 $111 #
plane-surface $-1 0 0 8.4355399240091185 0 0 1 1 0 0 forward_v I I I I #
coedge $-1 $284 $285 $286 $287 reversed $112 $-1 #
coedge $-1 $288 $114 $116 $197 forward $69 $-1 #
coedge $-1 $114 $288 $284 $289 forward $69 $-1 #
coedge $-1 $286 $117 $114 $194 forward $188 $-1 #
edge $-1 $200 2.1785648072659729 $290 11.431379533133013 $193 $291 forward 7 unknown #
coedge $-1 $292 $293 $115 $196 forward $282 $-1 #
edge $-1 $294 -61.660062453835089 $199 -53.79184778206487 $195 $295 forward 7 unknown #
edge $-1 $200 78.274621770598088 $294 88.259529404583859 $116 $296 forward 7 unknown #
coedge $-1 $117 $286 $292 $297 forward $188 $-1 #
vertex $-1 $196 $298 #
vertex $-1 $118 $299 #
straight-curve $-1 29.670616278803017 -8.9835369774654659 8.4355399240091202 -1 0 0 I I #
coedge $-1 $202 $202 $-1 $300 reversed $121 $-1 #
edge $-1 $301 0 $301 6.2831853071796004 $122 $302 forward 7 unknown #
vertex $-1 $125 $303 #
ellipse-curve $-1 41.056103272572997 -16.385788758159098 4.5014325881240138 0.78801076186113728 0 0.61566146476048833 0.30783073238024417 0 -0.39400538093056864 1 I I #
coedge $-1 $206 $206 $-1 $304 reversed $128 $-1 #
edge $-1 $305 0 $305 6.2831853071796004 $129 $306 forward 7 unknown #
vertex $-1 $132 $307 #
ellipse-curve $-1 41.056103272572997 -13.609944340398986 4.5014325881240138 0.78801076186113728 0 0.61566146476048833 0.30783073238024417 0 -0.39400538093056864 1 I I #
coedge $-1 $210 $210 $-1 $308 reversed $135 $-1 #
edge $-1 $309 0 $309 6.2831853071796004 $136 $310 forward 7 unknown #
vertex $-1 $139 $311 #
ellipse-curve $-1 41.056103272572997 -10.834099922638874 4.5014325881240138 0.78801076186113728 0 0.61566146476048833 0.30783073238024417 0 -0.39400538093056864 1 I I #
face $-1 $-1 $155 $21 $-1 $312 reversed single #
loop $-1 $-1 $231 $140 #
plane-surface $-1 0 24.98145751638183 0 0 -1 0 0 0 -1 forward_v I I I I #
coedge $-1 $313 $228 $231 $314 forward $141 $-1 #
coedge $-1 $234 $143 $144 $222 reversed $88 $-1 #
coedge $-1 $228 $313 $143 $220 reversed $141 $-1 #
edge $-1 $235 -8.4355399240091185 $315 8.4355399240091185 $219 $316 forward 7 unknown #
coedge $-1 $145 $144 $313 $317 forward $57 $-1 #
edge $-1 $226 -44.129764702291936 $315 44.129764702291936 $218 $318 forward 7 unknown #
coedge $-1 $231 $230 $145 $224 reversed $215 $-1 #
edge $-1 $319 -44.129764702291936 $225 44.129764702291936 $223 $320 forward 7 unknown #
vertex $-1 $147 $321 #
vertex $-1 $237 $322 #
straight-curve $-1 44.129764702291936 0 -8.4355399240091185 0 -1 0 I I #
coedge $-1 $217 $219 $148 $229 reversed $141 $-1 #
edge $-1 $232 -24.98145751638183 $235 24.98145751638183 $228 $323 forward 7 unknown #
coedge $-1 $223 $149 $154 $238 forward $215 $-1 #
coedge $-1 $149 $223 $217 $314 reversed $215 $-1 #
vertex $-1 $150 $324 #
straight-curve $-1 0 24.98145751638183 8.4355399240091185 -1 0 0 I I #
coedge $-1 $151 $218 $153 $237 reversed $88 $-1 #
vertex $-1 $229 $325 #
straight-curve $-1 0 -24.98145751638183 8.4355399240091185 1 0 0 I I #
edge $-1 $156 -8.4355399240091185 $226 8.4355399240091185 $153 $326 forward 7 unknown #
edge $-1 $157 -8.4355399240091185 $225 8.4355399240091185 $154 $327 forward 7 unknown #
point $-1 44.129764702291936 -24.98145751638183 8.4355399240091185 #
point $-1 44.129764702291936 24.98145751638183 8.4355399240091185 #
face $-1 $-1 $257 $22 $-1 $328 reversed single #
loop $-1 $-1 $329 $159 #
plane-surface $-1 0 -31.726563329431151 5.5869231269429473 0 1 0 0 0 1 forward_v I I I I #
coedge $-1 $330 $254 $256 $331 forward $160 $-1 #
coedge $-1 $162 $169 $332 $333 forward $96 $-1 #
coedge $-1 $334 $167 $162 $247 reversed $257 $-1 #
edge $-1 $335 -3.3725529065246604 $171 3.3725529065246604 $246 $336 forward 7 unknown #
coedge $-1 $164 $163 $329 $337 reversed $61 $-1 #
coedge $-1 $254 $330 $163 $250 forward $160 $-1 #
edge $-1 $338 -3.3725529065246604 $252 3.3725529065246604 $163 $339 forward 7 unknown #
edge $-1 $170 -3.3725529065246604 $340 3.3725529065246604 $164 $341 forward 7 unknown #
vertex $-1 $165 $342 #
straight-curve $-1 -44.129764702291936 -24.98145751638183 0 0 0 -1 I I #
coedge $-1 $244 $249 $166 $255 reversed $160 $-1 #
edge $-1 $258 -44.129764702291936 $252 44.129764702291936 $254 $343 forward 7 unknown #
coedge $-1 $167 $334 $244 $331 reversed $257 $-1 #
loop $-1 $-1 $167 $241 #
vertex $-1 $168 $344 #
straight-curve $-1 44.129764702291936 -24.98145751638183 0 0 0 1 I I #
point $-1 -44.129764702291936 -24.98145751638183 7.3287371340798009 #
point $-1 44.129764702291936 -24.98145751638183 7.3287371340798009 #
face $-1 $-1 $276 $23 $-1 $345 reversed single #
loop $-1 $-1 $346 $173 #
plane-surface $-1 0 31.726563329431151 5.5869231269429473 0 -1 0 0 0 -1 forward_v I I I I #
coedge $-1 $272 $347 $177 $269 forward $174 $-1 #
coedge $-1 $183 $176 $348 $349 forward $104 $-1 #
edge $-1 $184 -3.3725529065246604 $350 3.3725529065246604 $178 $351 forward 7 unknown #
coedge $-1 $178 $177 $346 $352 reversed $65 $-1 #
edge $-1 $353 -3.3725529065246604 $270 3.3725529065246604 $177 $354 forward 7 unknown #
vertex $-1 $179 $355 #
straight-curve $-1 44.129764702291936 24.98145751638183 0 0 0 -1 I I #
coedge $-1 $356 $265 $180 $273 reversed $174 $-1 #
edge $-1 $277 -44.129764702291936 $270 44.129764702291936 $272 $357 forward 7 unknown #
coedge $-1 $358 $181 $183 $279 reversed $276 $-1 #
coedge $-1 $181 $358 $356 $359 reversed $276 $-1 #
loop $-1 $-1 $181 $262 #
vertex $-1 $182 $360 #
straight-curve $-1 -44.129764702291936 24.98145751638183 0 0 0 1 I I #
edge $-1 $361 -3.3725529065246604 $185 3.3725529065246604 $274 $362 forward 7 unknown #
point $-1 44.129764702291936 24.98145751638183 7.3287371340798009 #
point $-1 -44.129764702291936 24.98145751638183 7.3287371340798009 #
loop $-1 $-1 $195 $187 #
plane-surface $-1 44.129764702291936 0 0 -1 0 0 0 0 1 forward_v I I I I #
coedge $-1 $285 $190 $192 $289 reversed $112 $-1 #
coedge $-1 $190 $284 $363 $364 reversed $112 $-1 #
coedge $-1 $198 $193 $190 $287 forward $188 $-1 #
edge $-1 $290 8.3118255640510554 $365 14.459148423488919 $286 $366 forward 7 unknown #
coedge $-1 $192 $191 $293 $367 reversed $69 $-1 #
edge $-1 $368 -88.259529404583859 $290 -78.274621770598088 $284 $369 forward 7 unknown #
vertex $-1 $194 $370 #
straight-curve $-1 37.982441842854072 -6.804972170199493 8.4355399240091202 0 -1 0 I I #
coedge $-1 $363 $195 $198 $297 reversed $282 $-1 #
coedge $-1 $195 $363 $288 $367 forward $282 $-1 #
vertex $-1 $196 $371 #
straight-curve $-1 44.129764702291936 -8.9835369774654659 62.227387706073991 0 0 1 I I #
straight-curve $-1 -10.208226450005554 -8.9835369774654659 70.116784259850476 0.61566146476048833 0 -0.78801076186113728 I I #
edge $-1 $365 -18.236351703332506 $199 -8.9835369774654659 $292 $372 forward 7 unknown #
point $-1 44.129764702291936 -8.9835369774654659 8.4355399240091185 #
point $-1 37.982441842854072 -8.9835369774654659 8.4355399240091131 #
edge $-1 $373 1 $373 0 $202 $-1 forward 7 unknown #
vertex $-1 $203 $374 #
ellipse-curve $-1 39.919455405859381 -16.385788758159098 3.6133859720029209 0.78801076186113728 0 0.61566146476048833 0.30783073238024417 0 -0.39400538093056864 1 I I #
point $-1 41.363934004953236 -16.385788758159098 4.1074272071934406 #
edge $-1 $375 1 $375 0 $206 $-1 forward 7 unknown #
vertex $-1 $207 $376 #
ellipse-curve $-1 39.919455405859381 -13.609944340398986 3.6133859720029209 0.78801076186113728 0 0.61566146476048833 0.30783073238024417 0 -0.39400538093056864 1 I I #
point $-1 41.363934004953236 -13.609944340398986 4.1074272071934406 #
edge $-1 $377 1 $377 0 $210 $-1 forward 7 unknown #
vertex $-1 $211 $378 #
ellipse-curve $-1 39.919455405859381 -10.834099922638874 3.6133859720029209 0.78801076186113728 0 0.61566146476048833 0.30783073238024417 0 -0.39400538093056864 1 I I #
point $-1 41.363934004953236 -10.834099922638874 4.1074272071934406 #
plane-surface $-1 44.129764702291936 0 0 -1 0 0 0 0 1 forward_v I I I I #
coedge $-1 $219 $217 $221 $317 reversed $141 $-1 #
edge $-1 $232 -8.4355399240091185 $319 8.4355399240091185 $231 $379 forward 7 unknown #
vertex $-1 $317 $380 #
straight-curve $-1 -44.129764702291936 -24.98145751638183 0 0 0 -1 I I #
edge $-1 $315 -24.98145751638183 $319 24.98145751638183 $313 $381 forward 7 unknown #
straight-curve $-1 0 -24.98145751638183 -8.4355399240091185 -1 0 0 I I #
vertex $-1 $224 $382 #
straight-curve $-1 0 24.98145751638183 -8.4355399240091185 1 0 0 I I #
point $-1 44.129764702291936 24.98145751638183 -8.4355399240091185 #
point $-1 44.129764702291936 -24.98145751638183 -8.4355399240091185 #
straight-curve $-1 -44.129764702291936 0 8.4355399240091185 0 -1 0 I I #
point $-1 -44.129764702291936 24.98145751638183 8.4355399240091185 #
point $-1 -44.129764702291936 -24.98145751638183 8.4355399240091185 #
straight-curve $-1 44.129764702291936 -24.98145751638183 0 0 0 -1 I I #
straight-curve $-1 44.129764702291936 24.98145751638183 0 0 0 -1 I I #
plane-surface $-1 44.129764702291936 0 0 -1 0 0 0 0 1 forward_v I I I I #
coedge $-1 $383 $332 $248 $337 forward $242 $-1 #
coedge $-1 $249 $244 $383 $384 forward $160 $-1 #
edge $-1 $258 -3.3725529065246604 $385 3.3725529065246604 $256 $386 forward 7 unknown #
coedge $-1 $329 $387 $245 $333 reversed $242 $-1 #
edge $-1 $340 -44.129764702291936 $335 44.129764702291936 $332 $388 forward 7 unknown #
coedge $-1 $256 $246 $387 $389 forward $257 $-1 #
vertex $-1 $247 $390 #
straight-curve $-1 44.129764702291936 -28.354010422906491 7.3287371340798009 0 1 0 I I #
edge $-1 $340 -1.7418140071368535 $338 1.7418140071368535 $248 $391 forward 7 unknown #
vertex $-1 $250 $392 #
straight-curve $-1 -44.129764702291936 -28.354010422906491 3.8451091198060938 0 1 0 I I #
vertex $-1 $251 $393 #
straight-curve $-1 -44.129764702291936 -28.354010422906491 7.3287371340798009 0 -1 0 I I #
point $-1 -44.129764702291936 -24.98145751638183 3.8451091198060938 #
straight-curve $-1 0 -24.98145751638183 3.8451091198060938 -1 0 0 I I #
point $-1 44.129764702291936 -24.98145751638183 3.8451091198060938 #
plane-surface $-1 -44.129764702291936 0 0 1 0 0 0 0 -1 forward_v I I I I #
coedge $-1 $394 $348 $268 $352 forward $263 $-1 #
coedge $-1 $265 $356 $394 $395 forward $174 $-1 #
coedge $-1 $346 $396 $266 $349 reversed $263 $-1 #
edge $-1 $350 -44.129764702291936 $361 44.129764702291936 $348 $397 forward 7 unknown #
vertex $-1 $267 $398 #
straight-curve $-1 44.129764702291936 28.354010422906491 7.3287371340798009 0 1 0 I I #
edge $-1 $350 -1.7418140071368535 $353 1.7418140071368535 $268 $399 forward 7 unknown #
vertex $-1 $269 $400 #
straight-curve $-1 44.129764702291936 28.354010422906491 3.8451091198060938 0 -1 0 I I #
point $-1 44.129764702291936 24.98145751638183 3.8451091198060938 #
coedge $-1 $347 $272 $275 $359 forward $174 $-1 #
straight-curve $-1 0 24.98145751638183 3.8451091198060938 1 0 0 I I #
coedge $-1 $275 $274 $396 $401 forward $276 $-1 #
edge $-1 $277 -3.3725529065246604 $402 3.3725529065246604 $275 $403 forward 7 unknown #
point $-1 -44.129764702291936 24.98145751638183 3.8451091198060938 #
vertex $-1 $349 $404 #
straight-curve $-1 -44.129764702291936 28.354010422906491 7.3287371340798009 0 -1 0 I I #
coedge $-1 $293 $292 $285 $364 forward $282 $-1 #
edge $-1 $365 53.79184778206487 $368 61.660062453835089 $363 $405 forward 7 unknown #
vertex $-1 $297 $406 #
straight-curve $-1 29.670616278803017 -18.236351703332506 8.4355399240091202 1 0 0 I I #
edge $-1 $368 -11.431379533133013 $294 -2.1785648072659729 $293 $407 forward 7 unknown #
vertex $-1 $367 $408 #
straight-curve $-1 -10.208226450005554 -18.236351703332506 70.116784259850476 -0.61566146476048833 0 0.78801076186113728 I I #
point $-1 37.982441842854072 -18.236351703332506 8.4355399240091131 #
point $-1 44.129764702291936 -8.9835369774654659 0.56732525223890207 #
straight-curve $-1 44.129764702291936 0 8.4355399240091185 0 1 0 I I #
vertex $-1 $300 $409 #
point $-1 40.227286138239627 -16.385788758159098 3.2193805910723521 #
vertex $-1 $304 $410 #
point $-1 40.227286138239627 -13.609944340398986 3.2193805910723521 #
vertex $-1 $308 $411 #
point $-1 40.227286138239627 -10.834099922638874 3.2193805910723521 #
straight-curve $-1 -44.129764702291936 24.98145751638183 0 0 0 -1 I I #
point $-1 -44.129764702291936 -24.98145751638183 -8.4355399240091185 #
straight-curve $-1 -44.129764702291936 0 -8.4355399240091185 0 1 0 I I #
point $-1 -44.129764702291936 24.98145751638183 -8.4355399240091185 #
coedge $-1 $387 $329 $330 $384 reversed $242 $-1 #
edge $-1 $385 -44.129764702291936 $338 44.129764702291936 $383 $412 forward 7 unknown #
vertex $-1 $389 $413 #
straight-curve $-1 44.129764702291936 -28.354010422906491 3.8451091198060938 0 -1 0 I I #
coedge $-1 $332 $383 $334 $389 reversed $242 $-1 #
straight-curve $-1 0 -31.726563329431151 7.3287371340798009 1 0 0 I I #
edge $-1 $335 -1.7418140071368535 $385 1.7418140071368535 $334 $414 forward 7 unknown #
point $-1 44.129764702291936 -31.726563329431151 7.3287371340798009 #
straight-curve $-1 -44.129764702291936 -31.726563329431151 5.5869231269429473 0 0 -1 I I #
point $-1 -44.129764702291936 -31.726563329431151 3.8451091198060938 #
point $-1 -44.129764702291936 -31.726563329431151 7.3287371340798009 #
coedge $-1 $396 $346 $347 $395 reversed $263 $-1 #
edge $-1 $402 -44.129764702291936 $353 44.129764702291936 $394 $415 forward 7 unknown #
coedge $-1 $348 $394 $358 $401 reversed $263 $-1 #
straight-curve $-1 0 31.726563329431151 7.3287371340798009 -1 0 0 I I #
point $-1 44.129764702291936 31.726563329431151 7.3287371340798009 #
straight-curve $-1 44.129764702291936 31.726563329431151 5.5869231269429473 0 0 -1 I I #
point $-1 44.129764702291936 31.726563329431151 3.8451091198060938 #
edge $-1 $361 -1.7418140071368535 $402 1.7418140071368535 $396 $416 forward 7 unknown #
vertex $-1 $395 $417 #
straight-curve $-1 -44.129764702291936 28.354010422906491 3.8451091198060938 0 1 0 I I #
point $-1 -44.129764702291936 31.726563329431151 7.3287371340798009 #
straight-curve $-1 44.129764702291936 -18.236351703332506 62.227387706073991 0 0 -1 I I #
point $-1 44.129764702291936 -18.236351703332506 8.4355399240091185 #
straight-curve $-1 44.129764702291936 -6.804972170199493 0.56732525223889496 0 1 0 I I #
point $-1 44.129764702291936 -18.236351703332506 0.56732525223890207 #
point $-1 39.525450024928816 -16.385788758159098 3.3055552396226764 #
point $-1 39.525450024928816 -13.609944340398986 3.3055552396226764 #
point $-1 39.525450024928816 -10.834099922638874 3.3055552396226764 #
straight-curve $-1 0 -31.726563329431151 3.8451091198060938 -1 0 0 I I #
point $-1 44.129764702291936 -31.726563329431151 3.8451091198060938 #
straight-curve $-1 44.129764702291936 -31.726563329431151 5.5869231269429473 0 0 -1 I I #
straight-curve $-1 0 31.726563329431151 3.8451091198060938 1 0 0 I I #
straight-curve $-1 -44.129764702291936 31.726563329431151 5.5869231269429473 0 0 -1 I I #
point $-1 -44.129764702291936 31.726563329431151 3.8451091198060938 #
End-of-ACIS-data 