500 0 5 0           
7 Unknown 11 ACIS 5.0 NT 24 Fri Mar 26 15:36:35 1999 
-1 9.9999999999999995e-007 1e-010 
body $-1 $5 $-1 $6 #
body $-1 $7 $-1 $8 #
body $-1 $9 $-1 $10 #
body $-1 $11 $-1 $12 #
body $-1 $13 $-1 $14 #
lump $-1 $-1 $15 $0 #
transform $-1 1 0 0 0 1 0 0 0 1 56.550798059022796 35.557951676066111 16.693908670428499 1 rotate no_reflect no_shear #
lump $-1 $-1 $16 $1 #
transform $-1 1 0 0 0 1 0 0 0 1 56.550798059022796 35.557951676066111 16.693908670428499 1 rotate no_reflect no_shear #
lump $-1 $-1 $17 $2 #
transform $-1 1 0 0 0 1 0 0 0 1 56.550798059022796 35.557951676066111 16.693908670428499 1 rotate no_reflect no_shear #
lump $-1 $-1 $18 $3 #
transform $-1 1 0 0 0 1 0 0 0 1 56.550798059022796 35.557951676066111 16.693908670428499 1 rotate no_reflect no_shear #
lump $-1 $-1 $19 $4 #
transform $-1 1 0 0 0 1 0 0 0 1 56.550798059022796 35.557951676066111 16.693908670428499 1 rotate no_reflect no_shear #
shell $-1 $-1 $-1 $20 $-1 $5 #
shell $-1 $-1 $-1 $21 $-1 $7 #
shell $-1 $-1 $-1 $22 $-1 $9 #
shell $-1 $-1 $-1 $23 $-1 $11 #
shell $-1 $-1 $-1 $24 $-1 $13 #
face $-1 $25 $26 $15 $-1 $27 forward single #
face $-1 $28 $29 $16 $-1 $30 reversed single #
face $-1 $31 $32 $17 $-1 $33 forward single #
face $-1 $34 $35 $18 $-1 $36 forward single #
face $-1 $37 $38 $19 $-1 $39 forward single #
face $-1 $40 $41 $15 $-1 $42 reversed single #
loop $-1 $-1 $43 $20 #
plane-surface $-1 0 0 16.693908670428499 0 0 1 1 0 0 forward_v I I I I #
face $-1 $44 $45 $16 $-1 $46 reversed single #
loop $-1 $-1 $47 $21 #
plane-surface $-1 59.34230906966485 26.450940290956638 173.43505696497982 0 1 0 0.71933980857756763 0 0.69465836192734942 forward_v I I I I #
face $-1 $48 $49 $17 $-1 $50 forward single #
loop $-1 $51 $52 $22 #
cone-surface $-1 54.449973790840168 28.272342567978534 14.557783317631046 -0.71933980857756763 0 -0.69465836192734942 0.34732918096367471 0 -0.35966990428878381 1 I I 0 1 0.5 forward I I I I #
face $-1 $53 $54 $18 $-1 $55 forward single #
loop $-1 $56 $57 $23 #
cone-surface $-1 54.449973790840168 31.004445983511374 14.557783317631046 -0.71933980857756763 0 -0.69465836192734942 0.34732918096367471 0 -0.35966990428878381 1 I I 0 1 0.5 forward I I I I #
face $-1 $58 $59 $19 $-1 $60 forward single #
loop $-1 $61 $62 $24 #
cone-surface $-1 54.449973790840168 33.736549399044222 14.557783317631046 -0.71933980857756763 0 -0.69465836192734942 0.34732918096367471 0 -0.35966990428878381 1 I I 0 1 0.5 forward I I I I #
face $-1 $63 $64 $15 $-1 $65 reversed single #
loop $-1 $-1 $66 $25 #
plane-surface $-1 0 0 -16.693908670428499 0 0 1 1 0 0 forward_v I I I I #
coedge $-1 $67 $68 $69 $70 forward $26 $-1 #
face $-1 $71 $72 $16 $-1 $73 forward single #
loop $-1 $-1 $74 $28 #
plane-surface $-1 -22.016171431707434 31.004445983511374 94.868087474249606 0.71933980857756763 0 0.69465836192734942 0.69465836192734942 0 -0.71933980857756763 forward_v I I I I #
coedge $-1 $75 $76 $77 $78 reversed $29 $-1 #
face $-1 $-1 $79 $17 $-1 $80 forward single #
loop $-1 $81 $82 $31 #
cone-surface $-1 53.706836736481847 28.272342567978534 13.840144223127346 -0.71933980857756763 0 -0.69465836192734942 0.17366459048183736 0 -0.17983495214439191 1 I I -0.70710678118654746 0.70710678118654746 0.25 forward I I I I #
loop $-1 $-1 $83 $22 #
coedge $-1 $52 $52 $84 $85 reversed $32 $-1 #
face $-1 $-1 $86 $18 $-1 $87 forward single #
loop $-1 $88 $89 $34 #
cone-surface $-1 53.706836736481847 31.004445983511374 13.840144223127346 -0.71933980857756763 0 -0.69465836192734942 0.17366459048183736 0 -0.17983495214439191 1 I I -0.70710678118654746 0.70710678118654746 0.25 forward I I I I #
loop $-1 $-1 $90 $23 #
coedge $-1 $57 $57 $91 $92 reversed $35 $-1 #
face $-1 $-1 $93 $19 $-1 $94 forward single #
loop $-1 $95 $96 $37 #
cone-surface $-1 53.706836736481847 33.736549399044222 13.840144223127346 -0.71933980857756763 0 -0.69465836192734942 0.17366459048183736 0 -0.17983495214439191 1 I I -0.70710678118654746 0.70710678118654746 0.25 forward I I I I #
loop $-1 $-1 $97 $24 #
coedge $-1 $62 $62 $98 $99 reversed $38 $-1 #
face $-1 $100 $101 $15 $-1 $102 reversed single #
loop $-1 $-1 $103 $40 #
plane-surface $-1 0 -35.557951676066111 0 0 1 0 0 0 1 forward_v I I I I #
coedge $-1 $104 $105 $106 $107 forward $41 $-1 #
coedge $-1 $108 $43 $109 $110 forward $26 $-1 #
coedge $-1 $43 $108 $111 $112 forward $26 $-1 #
coedge $-1 $113 $114 $43 $70 reversed $115 $-1 #
edge $-1 $116 -35.557951676066111 $117 35.557951676066111 $69 $118 forward 7 unknown #
face $-1 $119 $120 $16 $-1 $121 reversed single #
loop $-1 $-1 $122 $44 #
plane-surface $-1 0 0 16.693908670428499 0 0 1 1 0 0 forward_v I I I I #
coedge $-1 $123 $124 $125 $126 reversed $45 $-1 #
coedge $-1 $76 $47 $127 $128 reversed $29 $-1 #
coedge $-1 $47 $75 $123 $129 reversed $29 $-1 #
coedge $-1 $125 $130 $47 $78 forward $120 $-1 #
edge $-1 $131 70.023619812061412 $132 73.207921509612603 $77 $133 forward 7 unknown #
loop $-1 $-1 $84 $48 #
plane-surface $-1 -22.016171431707434 31.004445983511374 94.868087474249606 0.71933980857756763 0 0.69465836192734942 0.69465836192734942 0 -0.71933980857756763 forward_v I I I I #
loop $-1 $-1 $134 $31 #
coedge $-1 $82 $82 $83 $135 reversed $49 $-1 #
coedge $-1 $83 $83 $82 $135 forward $51 $-1 #
coedge $-1 $84 $84 $52 $85 forward $79 $-1 #
edge $-1 $136 0 $136 6.2831853071796004 $84 $137 forward 7 unknown #
loop $-1 $-1 $91 $53 #
plane-surface $-1 -22.016171431707434 31.004445983511374 94.868087474249606 0.71933980857756763 0 0.69465836192734942 0.69465836192734942 0 -0.71933980857756763 forward_v I I I I #
loop $-1 $-1 $138 $34 #
coedge $-1 $89 $89 $90 $139 reversed $54 $-1 #
coedge $-1 $90 $90 $89 $139 forward $56 $-1 #
coedge $-1 $91 $91 $57 $92 forward $86 $-1 #
edge $-1 $140 0 $140 6.2831853071796004 $91 $141 forward 7 unknown #
loop $-1 $-1 $98 $58 #
plane-surface $-1 -22.016171431707434 31.004445983511374 94.868087474249606 0.71933980857756763 0 0.69465836192734942 0.69465836192734942 0 -0.71933980857756763 forward_v I I I I #
loop $-1 $-1 $142 $37 #
coedge $-1 $96 $96 $97 $143 reversed $59 $-1 #
coedge $-1 $97 $97 $96 $143 forward $61 $-1 #
coedge $-1 $98 $98 $62 $99 forward $93 $-1 #
edge $-1 $144 0 $144 6.2831853071796004 $98 $145 forward 7 unknown #
face $-1 $146 $147 $15 $-1 $148 reversed single #
loop $-1 $-1 $149 $63 #
plane-surface $-1 -56.550798059022796 0 0 1 0 0 0 0 -1 forward_v I I I I #
coedge $-1 $150 $111 $151 $152 forward $64 $-1 #
coedge $-1 $153 $66 $150 $154 forward $41 $-1 #
coedge $-1 $66 $153 $155 $156 forward $41 $-1 #
coedge $-1 $114 $113 $66 $107 reversed $115 $-1 #
edge $-1 $157 -35.557951676066111 $158 35.557951676066111 $106 $159 forward 7 unknown #
coedge $-1 $68 $67 $160 $161 forward $26 $-1 #
coedge $-1 $162 $163 $67 $110 reversed $147 $-1 #
edge $-1 $117 -56.550798059022796 $164 56.550798059022796 $109 $165 forward 7 unknown #
coedge $-1 $103 $166 $68 $112 reversed $64 $-1 #
edge $-1 $167 -56.550798059022796 $116 56.550798059022796 $111 $168 forward 7 unknown #
coedge $-1 $106 $69 $166 $169 forward $115 $-1 #
coedge $-1 $69 $106 $162 $170 reversed $115 $-1 #
loop $-1 $-1 $113 $146 #
vertex $-1 $70 $171 #
vertex $-1 $70 $172 #
straight-curve $-1 56.550798059022796 0 16.693908670428499 0 1 0 I I #
face $-1 $-1 $173 $16 $-1 $174 reversed single #
loop $-1 $-1 $77 $71 #
plane-surface $-1 56.550798059022796 0 0 -1 0 0 0 0 1 forward_v I I I I #
coedge $-1 $127 $175 $176 $177 forward $72 $-1 #
coedge $-1 $176 $74 $76 $129 forward $45 $-1 #
coedge $-1 $74 $176 $178 $179 reversed $45 $-1 #
coedge $-1 $180 $77 $74 $126 forward $120 $-1 #
edge $-1 $132 10.94871729920095 $181 20.055728684310424 $125 $182 forward 7 unknown #
coedge $-1 $183 $122 $75 $128 forward $72 $-1 #
edge $-1 $184 23.804599192252965 $131 26.879643524190371 $127 $185 forward 7 unknown #
edge $-1 $132 -113.10159611804562 $184 -108.6748958859983 $76 $186 forward 7 unknown #
coedge $-1 $77 $180 $183 $187 reversed $120 $-1 #
vertex $-1 $187 $188 #
vertex $-1 $78 $189 #
straight-curve $-1 56.550798059022796 26.450940290956638 86.717528482489911 0 0 -1 I I #
coedge $-1 $134 $134 $-1 $190 reversed $81 $-1 #
edge $-1 $191 0 $191 6.2831853071796004 $82 $192 forward 7 unknown #
vertex $-1 $85 $193 #
ellipse-curve $-1 55.013275893054093 28.272342567978534 15.101757821652901 0.71933980857756763 0 0.69465836192734942 0.34732918096367471 0 -0.35966990428878381 1 I I #
coedge $-1 $138 $138 $-1 $194 reversed $88 $-1 #
edge $-1 $195 0 $195 6.2831853071796004 $89 $196 forward 7 unknown #
vertex $-1 $92 $197 #
ellipse-curve $-1 55.013275893054093 31.004445983511374 15.101757821652901 0.71933980857756763 0 0.69465836192734942 0.34732918096367471 0 -0.35966990428878381 1 I I #
coedge $-1 $142 $142 $-1 $198 reversed $95 $-1 #
edge $-1 $199 0 $199 6.2831853071796004 $96 $200 forward 7 unknown #
vertex $-1 $99 $201 #
ellipse-curve $-1 55.013275893054093 33.736549399044222 15.101757821652901 0.71933980857756763 0 0.69465836192734942 0.34732918096367471 0 -0.35966990428878381 1 I I #
face $-1 $-1 $115 $15 $-1 $202 reversed single #
loop $-1 $-1 $162 $100 #
plane-surface $-1 0 35.557951676066111 0 0 -1 0 0 0 -1 forward_v I I I I #
coedge $-1 $203 $160 $163 $204 forward $101 $-1 #
coedge $-1 $166 $103 $104 $154 reversed $64 $-1 #
coedge $-1 $160 $203 $103 $152 reversed $101 $-1 #
edge $-1 $167 -16.693908670428499 $205 16.693908670428499 $151 $206 forward 7 unknown #
coedge $-1 $105 $104 $203 $207 forward $41 $-1 #
edge $-1 $158 -56.550798059022796 $205 56.550798059022796 $150 $208 forward 7 unknown #
coedge $-1 $163 $162 $105 $156 reversed $147 $-1 #
edge $-1 $209 -56.550798059022796 $157 56.550798059022796 $155 $210 forward 7 unknown #
vertex $-1 $107 $211 #
vertex $-1 $169 $212 #
straight-curve $-1 56.550798059022796 0 -16.693908670428499 0 -1 0 I I #
coedge $-1 $149 $151 $108 $161 reversed $101 $-1 #
edge $-1 $164 -35.557951676066111 $167 35.557951676066111 $160 $213 forward 7 unknown #
coedge $-1 $155 $109 $114 $170 forward $147 $-1 #
coedge $-1 $109 $155 $149 $204 reversed $147 $-1 #
vertex $-1 $110 $214 #
straight-curve $-1 0 35.557951676066111 16.693908670428499 -1 0 0 I I #
coedge $-1 $111 $150 $113 $169 reversed $64 $-1 #
vertex $-1 $161 $215 #
straight-curve $-1 0 -35.557951676066111 16.693908670428499 1 0 0 I I #
edge $-1 $116 -16.693908670428499 $158 16.693908670428499 $113 $216 forward 7 unknown #
edge $-1 $117 -16.693908670428499 $157 16.693908670428499 $114 $217 forward 7 unknown #
point $-1 56.550798059022796 -35.557951676066111 16.693908670428499 #
point $-1 56.550798059022796 35.557951676066111 16.693908670428499 #
loop $-1 $-1 $178 $119 #
plane-surface $-1 0 35.557951676066111 0 0 -1 0 0 0 -1 forward_v I I I I #
coedge $-1 $122 $183 $218 $219 forward $72 $-1 #
coedge $-1 $124 $123 $122 $177 reversed $45 $-1 #
edge $-1 $220 -20.055728684310424 $184 -10.94871729920095 $122 $221 forward 7 unknown #
coedge $-1 $218 $222 $124 $179 forward $173 $-1 #
edge $-1 $181 -71.333541384791488 $220 -66.906841152744192 $178 $223 forward 7 unknown #
coedge $-1 $130 $125 $222 $224 reversed $120 $-1 #
vertex $-1 $126 $225 #
straight-curve $-1 56.550798059022796 15.502222991755687 13.509606972877307 0 1 0 I I #
coedge $-1 $175 $127 $130 $187 forward $72 $-1 #
vertex $-1 $128 $226 #
straight-curve $-1 29.671154534832425 26.450940290956638 16.693908670428499 1 0 0 I I #
straight-curve $-1 -22.016171431707434 26.450940290956638 94.868087474249606 -0.69465836192734942 0 0.71933980857756763 I I #
edge $-1 $131 26.450940290956638 $227 35.557951676066111 $130 $228 forward 7 unknown #
point $-1 56.550798059022796 26.450940290956638 16.693908670428499 #
point $-1 56.550798059022796 26.450940290956638 13.509606972877307 #
edge $-1 $229 1 $229 0 $134 $-1 forward 7 unknown #
vertex $-1 $135 $230 #
ellipse-curve $-1 53.886671688626237 28.272342567978534 14.013808813609185 0.71933980857756763 0 0.69465836192734942 0.34732918096367471 0 -0.35966990428878381 1 I I #
point $-1 55.360605074017776 28.272342567978534 14.742087917364122 #
edge $-1 $231 1 $231 0 $138 $-1 forward 7 unknown #
vertex $-1 $139 $232 #
ellipse-curve $-1 53.886671688626237 31.004445983511374 14.013808813609185 0.71933980857756763 0 0.69465836192734942 0.34732918096367471 0 -0.35966990428878381 1 I I #
point $-1 55.360605074017776 31.004445983511374 14.742087917364122 #
edge $-1 $233 1 $233 0 $142 $-1 forward 7 unknown #
vertex $-1 $143 $234 #
ellipse-curve $-1 53.886671688626237 33.736549399044222 14.013808813609185 0.71933980857756763 0 0.69465836192734942 0.34732918096367471 0 -0.35966990428878381 1 I I #
point $-1 55.360605074017776 33.736549399044222 14.742087917364122 #
plane-surface $-1 56.550798059022796 0 0 -1 0 0 0 0 1 forward_v I I I I #
coedge $-1 $151 $149 $153 $207 reversed $101 $-1 #
edge $-1 $164 -16.693908670428499 $209 16.693908670428499 $163 $235 forward 7 unknown #
vertex $-1 $207 $236 #
straight-curve $-1 -56.550798059022796 -35.557951676066111 0 0 0 -1 I I #
edge $-1 $205 -35.557951676066111 $209 35.557951676066111 $203 $237 forward 7 unknown #
straight-curve $-1 0 -35.557951676066111 -16.693908670428499 -1 0 0 I I #
vertex $-1 $156 $238 #
straight-curve $-1 0 35.557951676066111 -16.693908670428499 1 0 0 I I #
point $-1 56.550798059022796 35.557951676066111 -16.693908670428499 #
point $-1 56.550798059022796 -35.557951676066111 -16.693908670428499 #
straight-curve $-1 -56.550798059022796 0 16.693908670428499 0 -1 0 I I #
point $-1 -56.550798059022796 35.557951676066111 16.693908670428499 #
point $-1 -56.550798059022796 -35.557951676066111 16.693908670428499 #
straight-curve $-1 56.550798059022796 -35.557951676066111 0 0 0 -1 I I #
straight-curve $-1 56.550798059022796 35.557951676066111 0 0 0 -1 I I #
coedge $-1 $222 $178 $175 $219 reversed $173 $-1 #
edge $-1 $227 -56.550798059022796 $220 -53.47575372708539 $218 $239 forward 7 unknown #
vertex $-1 $179 $240 #
straight-curve $-1 53.475753727085376 15.502222991755687 16.693908670428506 0 -1 0 I I #
coedge $-1 $178 $218 $180 $224 forward $173 $-1 #
straight-curve $-1 6.9983570501867476 35.557951676066111 64.82266297777322 -0.69465836192734942 0 0.71933980857756763 I I #
edge $-1 $227 -16.693908670428499 $181 -13.509606972877299 $180 $241 forward 7 unknown #
point $-1 56.550798059022796 35.557951676066111 13.509606972877299 #
point $-1 53.47575372708539 26.450940290956638 16.693908670428499 #
vertex $-1 $187 $242 #
straight-curve $-1 56.550798059022796 0 16.693908670428499 0 1 0 I I #
vertex $-1 $190 $243 #
point $-1 54.234000869589913 28.272342567978534 13.6541389093204 #
vertex $-1 $194 $244 #
point $-1 54.234000869589913 31.004445983511374 13.6541389093204 #
vertex $-1 $198 $245 #
point $-1 54.234000869589913 33.736549399044222 13.6541389093204 #
straight-curve $-1 -56.550798059022796 35.557951676066111 0 0 0 -1 I I #
point $-1 -56.550798059022796 -35.557951676066111 -16.693908670428499 #
straight-curve $-1 -56.550798059022796 0 -16.693908670428499 0 1 0 I I #
point $-1 -56.550798059022796 35.557951676066111 -16.693908670428499 #
straight-curve $-1 0 35.557951676066111 16.693908670428499 -1 0 0 I I #
point $-1 53.47575372708539 35.557951676066111 16.693908670428499 #
straight-curve $-1 56.550798059022796 35.557951676066111 0 0 0 -1 I I #
point $-1 56.550798059022796 35.557951676066111 16.693908670428499 #
point $-1 53.527001784337457 28.272342567978534 13.666479632645508 #
point $-1 53.527001784337457 31.004445983511374 13.666479632645508 #
point $-1 53.527001784337457 33.736549399044222 13.666479632645508 #
End-of-ACIS-data 