500 0 5 0           
7 Unknown 11 ACIS 5.0 NT 24 Fri Mar 26 19:21:21 1999 
-1 9.9999999999999995e-007 1e-010 
body $-1 $5 $-1 $6 #
body $-1 $7 $-1 $8 #
body $-1 $9 $-1 $10 #
body $-1 $11 $-1 $12 #
body $-1 $13 $-1 $14 #
lump $-1 $-1 $15 $0 #
transform $-1 1 0 0 0 1 0 0 0 1 43.776970732749412 29.742474985400367 12.878481684022308 1 rotate no_reflect no_shear #
lump $-1 $-1 $16 $1 #
transform $-1 1 0 0 0 1 0 0 0 1 43.776970732749412 29.742474985400367 12.878481684022308 1 rotate no_reflect no_shear #
lump $-1 $-1 $17 $2 #
transform $-1 1 0 0 0 1 0 0 0 1 43.776970732749412 29.742474985400367 12.878481684022308 1 rotate no_reflect no_shear #
lump $-1 $-1 $18 $3 #
transform $-1 1 0 0 0 1 0 0 0 1 43.776970732749412 29.742474985400367 12.878481684022308 1 rotate no_reflect no_shear #
lump $-1 $-1 $19 $4 #
transform $-1 1 0 0 0 1 0 0 0 1 43.776970732749412 29.742474985400367 12.878481684022308 1 rotate no_reflect no_shear #
shell $-1 $-1 $-1 $20 $-1 $5 #
shell $-1 $-1 $-1 $21 $-1 $7 #
shell $-1 $-1 $-1 $22 $-1 $9 #
shell $-1 $-1 $-1 $23 $-1 $11 #
shell $-1 $-1 $-1 $24 $-1 $13 #
face $-1 $25 $26 $15 $-1 $27 forward single #
face $-1 $28 $29 $16 $-1 $30 reversed single #
face $-1 $31 $32 $17 $-1 $33 reversed single #
face $-1 $34 $35 $18 $-1 $36 forward single #
face $-1 $37 $38 $19 $-1 $39 forward single #
face $-1 $40 $41 $15 $-1 $42 reversed single #
loop $-1 $-1 $43 $20 #
plane-surface $-1 0 0 12.878481684022308 0 0 1 1 0 0 forward_v I I I I #
face $-1 $44 $45 $16 $-1 $46 reversed single #
loop $-1 $-1 $47 $21 #
plane-surface $-1 0 -22.144614918061006 5.6131267439354549 0 0 1 1 0 0 forward_v I I I I #
face $-1 $48 $49 $17 $-1 $50 reversed single #
loop $-1 $-1 $51 $22 #
plane-surface $-1 -39.115559636413238 31.234135301773886 114.74085344885685 1 0 0 0 -0.57357644374324357 -0.81915203911291934 forward_v I I I I #
face $-1 $52 $53 $18 $-1 $54 forward single #
loop $-1 $55 $56 $23 #
cone-surface $-1 -35.401686715075023 25.868518150983768 9.4130435959750578 0 -0.57357644374324357 -0.81915203911291934 1.5 0 0 1 I I 0 1 1.5 forward I I I I #
face $-1 $57 $58 $19 $-1 $59 forward single #
loop $-1 $60 $61 $24 #
cone-surface $-1 -29.830877333067708 25.868518150983768 9.4130435959750578 0 -0.57357644374324357 -0.81915203911291934 1.5 0 0 1 I I 0 1 1.5 forward I I I I #
face $-1 $62 $63 $15 $-1 $64 reversed single #
loop $-1 $-1 $65 $25 #
plane-surface $-1 0 0 -12.878481684022308 0 0 1 1 0 0 forward_v I I I I #
coedge $-1 $66 $67 $68 $69 forward $26 $-1 #
face $-1 $70 $71 $16 $-1 $72 reversed single #
loop $-1 $-1 $73 $28 #
plane-surface $-1 0 -14.546754850721644 9.2458042139788823 0 -1 0 0 0 -1 forward_v I I I I #
coedge $-1 $74 $75 $76 $77 reversed $29 $-1 #
face $-1 $78 $79 $17 $-1 $80 reversed single #
loop $-1 $-1 $81 $31 #
plane-surface $-1 -32.616282024071367 -18.984743079711041 43.020863765020309 0 0.57357644374324357 0.81915203911291934 1 0 0 forward_v I I I I #
coedge $-1 $82 $83 $84 $85 reversed $32 $-1 #
face $-1 $-1 $86 $18 $-1 $87 forward single #
loop $-1 $88 $89 $34 #
cone-surface $-1 -35.401686715075023 24.40409698600055 7.3216334683424407 0 -0.57357644374324357 -0.81915203911291934 0.75 0 0 1 I I -0.70710678118654757 0.70710678118654757 0.75 forward I I I I #
loop $-1 $-1 $90 $23 #
coedge $-1 $56 $56 $91 $92 reversed $35 $-1 #
face $-1 $-1 $93 $19 $-1 $94 forward single #
loop $-1 $95 $96 $37 #
cone-surface $-1 -29.830877333067708 24.40409698600055 7.3216334683424407 0 -0.57357644374324357 -0.81915203911291934 0.75 0 0 1 I I -0.70710678118654757 0.70710678118654757 0.75 forward I I I I #
loop $-1 $-1 $97 $24 #
coedge $-1 $61 $61 $98 $99 reversed $38 $-1 #
face $-1 $100 $101 $15 $-1 $102 reversed single #
loop $-1 $-1 $103 $40 #
plane-surface $-1 0 -29.742474985400367 0 0 1 0 0 0 1 forward_v I I I I #
coedge $-1 $104 $105 $106 $107 forward $41 $-1 #
coedge $-1 $108 $43 $109 $110 forward $26 $-1 #
coedge $-1 $43 $108 $111 $112 forward $26 $-1 #
coedge $-1 $113 $114 $43 $69 reversed $115 $-1 #
edge $-1 $116 -29.742474985400367 $117 29.742474985400367 $68 $118 forward 7 unknown #
face $-1 $119 $120 $16 $-1 $121 reversed single #
loop $-1 $-1 $122 $44 #
plane-surface $-1 -43.776970732749412 0 0 1 0 0 0 0 -1 forward_v I I I I #
coedge $-1 $123 $124 $125 $126 reversed $45 $-1 #
coedge $-1 $127 $47 $128 $129 reversed $29 $-1 #
coedge $-1 $47 $127 $123 $130 forward $29 $-1 #
coedge $-1 $125 $131 $47 $77 forward $132 $-1 #
edge $-1 $133 -18.670167526369866 $134 -3.4744473916911414 $76 $135 forward 7 unknown #
face $-1 $136 $137 $17 $-1 $138 forward single #
loop $-1 $-1 $139 $48 #
plane-surface $-1 -26.117004411729496 31.234135301773886 114.74085344885685 -1 0 0 0 0.57357644374324357 0.81915203911291934 forward_v I I I I #
coedge $-1 $140 $141 $142 $143 reversed $49 $-1 #
coedge $-1 $83 $51 $144 $145 reversed $32 $-1 #
coedge $-1 $51 $82 $140 $146 reversed $32 $-1 #
coedge $-1 $142 $147 $51 $85 forward $137 $-1 #
edge $-1 $148 -14.125407334513424 $149 -8.4459713300318082 $84 $150 forward 7 unknown #
loop $-1 $-1 $91 $52 #
plane-surface $-1 -32.616282024071367 -18.984743079711041 43.020863765020309 0 0.57357644374324357 0.81915203911291934 1 0 0 forward_v I I I I #
loop $-1 $-1 $151 $34 #
coedge $-1 $89 $89 $90 $152 reversed $53 $-1 #
coedge $-1 $90 $90 $89 $152 forward $55 $-1 #
coedge $-1 $91 $91 $56 $92 forward $86 $-1 #
edge $-1 $153 -5.8163985123294931e-016 $153 6.2831853071795996 $91 $154 forward 7 unknown #
loop $-1 $-1 $98 $57 #
plane-surface $-1 -32.616282024071367 -18.984743079711041 43.020863765020309 0 0.57357644374324357 0.81915203911291934 1 0 0 forward_v I I I I #
loop $-1 $-1 $155 $37 #
coedge $-1 $96 $96 $97 $156 reversed $58 $-1 #
coedge $-1 $97 $97 $96 $156 forward $60 $-1 #
coedge $-1 $98 $98 $61 $99 forward $93 $-1 #
edge $-1 $157 -5.8163985123294931e-016 $157 6.2831853071795996 $98 $158 forward 7 unknown #
face $-1 $159 $160 $15 $-1 $161 reversed single #
loop $-1 $-1 $162 $62 #
plane-surface $-1 -43.776970732749412 0 0 1 0 0 0 0 -1 forward_v I I I I #
coedge $-1 $163 $111 $164 $165 forward $63 $-1 #
coedge $-1 $166 $65 $163 $167 forward $41 $-1 #
coedge $-1 $65 $166 $168 $169 forward $41 $-1 #
coedge $-1 $114 $113 $65 $107 reversed $115 $-1 #
edge $-1 $170 -29.742474985400367 $171 29.742474985400367 $106 $172 forward 7 unknown #
coedge $-1 $67 $66 $173 $174 forward $26 $-1 #
coedge $-1 $175 $176 $66 $110 reversed $160 $-1 #
edge $-1 $117 -43.776970732749412 $177 43.776970732749412 $109 $178 forward 7 unknown #
coedge $-1 $103 $179 $67 $112 reversed $63 $-1 #
edge $-1 $180 -43.776970732749412 $116 43.776970732749412 $111 $181 forward 7 unknown #
coedge $-1 $106 $68 $179 $182 forward $115 $-1 #
coedge $-1 $68 $106 $175 $183 reversed $115 $-1 #
loop $-1 $-1 $113 $159 #
vertex $-1 $69 $184 #
vertex $-1 $69 $185 #
straight-curve $-1 43.776970732749412 0 12.878481684022308 0 1 0 I I #
face $-1 $186 $187 $16 $-1 $188 forward single #
loop $-1 $-1 $128 $70 #
plane-surface $-1 0 -29.742474985400367 0 0 1 0 0 0 1 forward_v I I I I #
coedge $-1 $189 $190 $191 $192 forward $71 $-1 #
coedge $-1 $191 $73 $75 $130 reversed $45 $-1 #
coedge $-1 $73 $191 $193 $194 reversed $45 $-1 #
coedge $-1 $195 $76 $73 $126 forward $132 $-1 #
edge $-1 $134 0.9902246369460137 $196 8.2555795770328686 $125 $197 forward 7 unknown #
coedge $-1 $75 $74 $189 $198 reversed $29 $-1 #
coedge $-1 $199 $200 $74 $129 forward $120 $-1 #
edge $-1 $201 -43.776970732749412 $133 43.776970732749412 $128 $202 forward 7 unknown #
edge $-1 $203 -43.776970732749412 $134 43.776970732749412 $123 $204 forward 7 unknown #
coedge $-1 $76 $195 $199 $205 forward $132 $-1 #
loop $-1 $-1 $125 $186 #
vertex $-1 $129 $206 #
vertex $-1 $77 $207 #
straight-curve $-1 43.776970732749412 -11.072307459030503 5.6131267439354549 0 1 0 I I #
face $-1 $-1 $208 $17 $-1 $209 reversed single #
loop $-1 $-1 $84 $78 #
plane-surface $-1 0 0 12.878481684022308 0 0 1 1 0 0 forward_v I I I I #
coedge $-1 $210 $211 $212 $213 reversed $79 $-1 #
coedge $-1 $214 $81 $83 $146 forward $49 $-1 #
coedge $-1 $81 $214 $210 $215 forward $49 $-1 #
coedge $-1 $212 $84 $81 $143 forward $137 $-1 #
edge $-1 $149 -22.807418624377554 $216 -9.8088633996938128 $142 $217 forward 7 unknown #
coedge $-1 $218 $219 $82 $145 forward $208 $-1 #
edge $-1 $220 -48.468729019904757 $148 -44.491945040406122 $144 $221 forward 7 unknown #
edge $-1 $149 52.551638774222354 $220 59.484949970800727 $83 $222 forward 7 unknown #
coedge $-1 $84 $212 $218 $223 forward $137 $-1 #
vertex $-1 $145 $224 #
vertex $-1 $85 $225 #
straight-curve $-1 -39.115559636413238 15.617067650886943 12.878481684022312 0 -1 0 I I #
coedge $-1 $151 $151 $-1 $226 reversed $88 $-1 #
edge $-1 $227 0 $227 6.2831853071796004 $89 $228 forward 7 unknown #
vertex $-1 $92 $229 #
ellipse-curve $-1 -35.401686715075023 26.902756983159556 10.890089694272989 0 0.57357644374324357 0.81915203911291934 1.5 0 0 1 I I #
coedge $-1 $155 $155 $-1 $230 reversed $95 $-1 #
edge $-1 $231 0 $231 6.2831853071796004 $96 $232 forward 7 unknown #
vertex $-1 $99 $233 #
ellipse-curve $-1 -29.830877333067708 26.902756983159556 10.890089694272989 0 0.57357644374324357 0.81915203911291934 1.5 0 0 1 I I #
face $-1 $-1 $115 $15 $-1 $234 reversed single #
loop $-1 $-1 $175 $100 #
plane-surface $-1 0 29.742474985400367 0 0 -1 0 0 0 -1 forward_v I I I I #
coedge $-1 $235 $173 $176 $236 forward $101 $-1 #
coedge $-1 $179 $103 $104 $167 reversed $63 $-1 #
coedge $-1 $173 $235 $103 $165 reversed $101 $-1 #
edge $-1 $180 -12.878481684022308 $237 12.878481684022308 $164 $238 forward 7 unknown #
coedge $-1 $105 $104 $235 $239 forward $41 $-1 #
edge $-1 $171 -43.776970732749412 $237 43.776970732749412 $163 $240 forward 7 unknown #
coedge $-1 $176 $175 $105 $169 reversed $160 $-1 #
edge $-1 $241 -43.776970732749412 $170 43.776970732749412 $168 $242 forward 7 unknown #
vertex $-1 $107 $243 #
vertex $-1 $182 $244 #
straight-curve $-1 43.776970732749412 0 -12.878481684022308 0 -1 0 I I #
coedge $-1 $162 $164 $108 $174 reversed $101 $-1 #
edge $-1 $177 -29.742474985400367 $180 29.742474985400367 $173 $245 forward 7 unknown #
coedge $-1 $168 $109 $114 $183 forward $160 $-1 #
coedge $-1 $109 $168 $162 $236 reversed $160 $-1 #
vertex $-1 $110 $246 #
straight-curve $-1 0 29.742474985400367 12.878481684022308 -1 0 0 I I #
coedge $-1 $111 $163 $113 $182 reversed $63 $-1 #
vertex $-1 $174 $247 #
straight-curve $-1 0 -29.742474985400367 12.878481684022308 1 0 0 I I #
edge $-1 $116 -12.878481684022308 $171 12.878481684022308 $113 $248 forward 7 unknown #
edge $-1 $117 -12.878481684022308 $170 12.878481684022308 $114 $249 forward 7 unknown #
point $-1 43.776970732749412 -29.742474985400367 12.878481684022308 #
point $-1 43.776970732749412 29.742474985400367 12.878481684022308 #
face $-1 $-1 $132 $16 $-1 $250 reversed single #
loop $-1 $-1 $193 $119 #
plane-surface $-1 0 0 12.878481684022308 0 0 1 1 0 0 forward_v I I I I #
coedge $-1 $251 $122 $127 $198 forward $71 $-1 #
coedge $-1 $122 $251 $252 $253 reversed $71 $-1 #
coedge $-1 $124 $123 $122 $192 reversed $45 $-1 #
edge $-1 $254 -8.2555795770328686 $203 -0.9902246369460137 $122 $255 forward 7 unknown #
coedge $-1 $252 $256 $124 $194 forward $187 $-1 #
edge $-1 $196 -43.776970732749412 $254 43.776970732749412 $193 $257 forward 7 unknown #
coedge $-1 $131 $125 $256 $258 reversed $132 $-1 #
vertex $-1 $126 $259 #
straight-curve $-1 43.776970732749412 -14.546754850721644 4.6229021069894412 0 0 1 I I #
edge $-1 $203 3.4744473916911414 $201 18.670167526369866 $189 $260 forward 7 unknown #
coedge $-1 $261 $128 $131 $205 reversed $120 $-1 #
coedge $-1 $128 $261 $251 $262 forward $120 $-1 #
vertex $-1 $129 $263 #
straight-curve $-1 0 -29.742474985400367 5.6131267439354549 1 0 0 I I #
vertex $-1 $198 $264 #
straight-curve $-1 0 -14.546754850721644 5.6131267439354549 1 0 0 I I #
edge $-1 $265 -12.878481684022308 $133 -5.6131267439354549 $131 $266 forward 7 unknown #
point $-1 43.776970732749412 -29.742474985400367 5.6131267439354549 #
point $-1 43.776970732749412 -14.546754850721644 5.6131267439354549 #
loop $-1 $-1 $144 $136 #
plane-surface $-1 0 29.742474985400367 0 0 -1 0 0 0 -1 forward_v I I I I #
coedge $-1 $211 $139 $141 $215 reversed $79 $-1 #
coedge $-1 $139 $210 $267 $268 reversed $79 $-1 #
coedge $-1 $147 $142 $139 $213 forward $137 $-1 #
edge $-1 $216 8.4459713300318082 $269 14.125407334513424 $212 $270 forward 7 unknown #
coedge $-1 $141 $140 $219 $271 reversed $49 $-1 #
edge $-1 $272 -59.484949970800727 $216 -52.551638774222354 $210 $273 forward 7 unknown #
vertex $-1 $143 $274 #
straight-curve $-1 -16.308141012035684 24.063038980918748 12.878481684022308 1 0 0 I I #
coedge $-1 $267 $144 $147 $223 reversed $208 $-1 #
coedge $-1 $144 $267 $214 $271 forward $208 $-1 #
vertex $-1 $145 $275 #
straight-curve $-1 -39.115559636413238 29.742474985400367 57.370426724428427 0 0 1 I I #
straight-curve $-1 -39.115559636413238 -18.984743079711041 43.020863765020309 0 0.81915203911291934 -0.57357644374324357 I I #
edge $-1 $269 26.117004411729496 $148 39.115559636413238 $218 $276 forward 7 unknown #
point $-1 -39.115559636413238 29.742474985400367 12.878481684022308 #
point $-1 -39.115559636413238 24.063038980918751 12.878481684022308 #
edge $-1 $277 1 $277 0 $151 $-1 forward 7 unknown #
vertex $-1 $152 $278 #
ellipse-curve $-1 -35.401686715075023 24.834279318807983 7.9359974976771301 0 0.57357644374324357 0.81915203911291934 1.5 0 0 1 I I #
point $-1 -33.901686715075023 26.902756983159552 10.890089694272985 #
edge $-1 $279 1 $279 0 $155 $-1 forward 7 unknown #
vertex $-1 $156 $280 #
ellipse-curve $-1 -29.830877333067708 24.834279318807983 7.9359974976771301 0 0.57357644374324357 0.81915203911291934 1.5 0 0 1 I I #
point $-1 -28.330877333067708 26.902756983159552 10.890089694272985 #
plane-surface $-1 43.776970732749412 0 0 -1 0 0 0 0 1 forward_v I I I I #
coedge $-1 $164 $162 $166 $239 reversed $101 $-1 #
edge $-1 $177 -12.878481684022308 $241 12.878481684022308 $176 $281 forward 7 unknown #
vertex $-1 $239 $282 #
straight-curve $-1 -43.776970732749412 -29.742474985400367 0 0 0 -1 I I #
edge $-1 $237 -29.742474985400367 $241 29.742474985400367 $235 $283 forward 7 unknown #
straight-curve $-1 0 -29.742474985400367 -12.878481684022308 -1 0 0 I I #
vertex $-1 $169 $284 #
straight-curve $-1 0 29.742474985400367 -12.878481684022308 1 0 0 I I #
point $-1 43.776970732749412 29.742474985400367 -12.878481684022308 #
point $-1 43.776970732749412 -29.742474985400367 -12.878481684022308 #
straight-curve $-1 -43.776970732749412 0 12.878481684022308 0 -1 0 I I #
point $-1 -43.776970732749412 29.742474985400367 12.878481684022308 #
point $-1 -43.776970732749412 -29.742474985400367 12.878481684022308 #
straight-curve $-1 43.776970732749412 -29.742474985400367 0 0 0 -1 I I #
straight-curve $-1 43.776970732749412 29.742474985400367 0 0 0 -1 I I #
plane-surface $-1 43.776970732749412 0 0 -1 0 0 0 0 1 forward_v I I I I #
coedge $-1 $190 $189 $200 $262 reversed $71 $-1 #
coedge $-1 $285 $193 $190 $253 forward $187 $-1 #
edge $-1 $254 14.546754850721644 $286 29.742474985400367 $190 $287 forward 7 unknown #
vertex $-1 $253 $288 #
straight-curve $-1 -43.776970732749412 -14.546754850721644 4.6229021069894412 0 0 -1 I I #
coedge $-1 $193 $285 $195 $258 forward $187 $-1 #
straight-curve $-1 0 -14.546754850721644 12.878481684022308 -1 0 0 I I #
edge $-1 $265 -29.742474985400367 $196 -14.546754850721644 $195 $289 forward 7 unknown #
point $-1 43.776970732749412 -14.546754850721644 12.87848168402231 #
straight-curve $-1 -43.776970732749412 -11.072307459030503 5.6131267439354549 0 -1 0 I I #
coedge $-1 $200 $199 $285 $290 reversed $120 $-1 #
edge $-1 $286 -12.878481684022308 $201 -5.6131267439354549 $251 $291 forward 7 unknown #
point $-1 -43.776970732749412 -29.742474985400367 5.6131267439354549 #
point $-1 -43.776970732749412 -14.546754850721644 5.6131267439354549 #
vertex $-1 $258 $292 #
straight-curve $-1 43.776970732749412 -29.742474985400367 0 0 0 -1 I I #
coedge $-1 $219 $218 $211 $268 forward $208 $-1 #
edge $-1 $269 44.491945040406122 $272 48.468729019904757 $267 $293 forward 7 unknown #
vertex $-1 $223 $294 #
straight-curve $-1 -26.117004411729496 15.617067650886943 12.878481684022312 0 1 0 I I #
edge $-1 $272 9.8088633996938128 $220 22.807418624377554 $219 $295 forward 7 unknown #
vertex $-1 $271 $296 #
straight-curve $-1 -26.117004411729496 -18.984743079711041 43.020863765020309 0 -0.81915203911291934 0.57357644374324357 I I #
point $-1 -26.117004411729496 24.063038980918751 12.878481684022308 #
point $-1 -39.115559636413238 29.742474985400367 8.90169770452367 #
straight-curve $-1 0 29.742474985400367 12.878481684022308 -1 0 0 I I #
vertex $-1 $226 $297 #
point $-1 -33.901686715075023 24.834279318807983 7.9359974976771301 #
vertex $-1 $230 $298 #
point $-1 -28.330877333067708 24.834279318807983 7.9359974976771301 #
straight-curve $-1 -43.776970732749412 29.742474985400367 0 0 0 -1 I I #
point $-1 -43.776970732749412 -29.742474985400367 -12.878481684022308 #
straight-curve $-1 -43.776970732749412 0 -12.878481684022308 0 1 0 I I #
point $-1 -43.776970732749412 29.742474985400367 -12.878481684022308 #
coedge $-1 $256 $252 $261 $290 forward $187 $-1 #
vertex $-1 $253 $299 #
straight-curve $-1 -43.776970732749412 0 12.878481684022308 0 -1 0 I I #
point $-1 -43.776970732749412 -14.546754850721644 12.87848168402231 #
straight-curve $-1 43.776970732749412 0 12.878481684022308 0 1 0 I I #
edge $-1 $286 -43.776970732749412 $265 43.776970732749412 $261 $300 forward 7 unknown #
straight-curve $-1 -43.776970732749412 -29.742474985400367 0 0 0 -1 I I #
point $-1 43.776970732749412 -29.742474985400367 12.878481684022308 #
straight-curve $-1 -26.117004411729496 29.742474985400367 57.370426724428427 0 0 -1 I I #
point $-1 -26.117004411729496 29.742474985400367 12.878481684022308 #
straight-curve $-1 -16.308141012035684 29.742474985400371 8.9016977045236683 -1 0 0 I I #
point $-1 -26.117004411729496 29.742474985400367 8.90169770452367 #
point $-1 -35.401686715075023 23.973914653193116 6.7072694390077512 #
point $-1 -29.830877333067708 23.973914653193116 6.7072694390077512 #
point $-1 -43.776970732749412 -29.742474985400367 12.878481684022308 #
straight-curve $-1 0 -29.742474985400367 12.878481684022308 1 0 0 I I #
End-of-ACIS-data 