500 0 5 0           
7 Unknown 11 ACIS 5.0 NT 24 Fri Mar 26 19:05:44 1999 
-1 9.9999999999999995e-007 1e-010 
body $-1 $5 $-1 $6 #
body $-1 $7 $-1 $8 #
body $-1 $9 $-1 $10 #
body $-1 $11 $-1 $12 #
body $-1 $13 $-1 $14 #
lump $-1 $-1 $15 $0 #
transform $-1 1 0 0 0 1 0 0 0 1 70.842005676442767 29.634646321224668 14.794532148701116 1 rotate no_reflect no_shear #
lump $-1 $-1 $16 $1 #
transform $-1 1 0 0 0 1 0 0 0 1 70.842005676442767 29.634646321224668 14.794532148701116 1 rotate no_reflect no_shear #
lump $-1 $-1 $17 $2 #
transform $-1 1 0 0 0 1 0 0 0 1 70.842005676442767 29.634646321224668 14.794532148701116 1 rotate no_reflect no_shear #
lump $-1 $-1 $18 $3 #
transform $-1 1 0 0 0 1 0 0 0 1 70.842005676442767 29.634646321224668 14.794532148701116 1 rotate no_reflect no_shear #
lump $-1 $-1 $19 $4 #
transform $-1 1 0 0 0 1 0 0 0 1 70.842005676442767 29.634646321224668 14.794532148701116 1 rotate no_reflect no_shear #
shell $-1 $-1 $-1 $20 $-1 $5 #
shell $-1 $-1 $-1 $21 $-1 $7 #
shell $-1 $-1 $-1 $22 $-1 $9 #
shell $-1 $-1 $-1 $23 $-1 $11 #
shell $-1 $-1 $-1 $24 $-1 $13 #
face $-1 $25 $26 $15 $-1 $27 forward single #
face $-1 $28 $29 $16 $-1 $30 reversed single #
face $-1 $31 $32 $17 $-1 $33 forward single #
face $-1 $34 $35 $18 $-1 $36 reversed single #
face $-1 $37 $38 $19 $-1 $39 reversed single #
face $-1 $40 $41 $15 $-1 $42 reversed single #
loop $-1 $-1 $43 $20 #
plane-surface $-1 0 0 14.794532148701116 0 0 1 1 0 0 forward_v I I I I #
face $-1 $44 $45 $16 $-1 $46 forward single #
loop $-1 $-1 $47 $21 #
plane-surface $-1 0 -22.272390105048807 -9.3778018350328729 0 0 1 1 0 0 forward_v I I I I #
face $-1 $48 $49 $17 $-1 $50 forward single #
loop $-1 $-1 $51 $22 #
plane-surface $-1 -154.1217790992601 7.7796491515407205 117.13363448447237 0 1 0 -0.5877852598018023 0 0.80901698891910034 forward_v I I I I #
face $-1 $52 $53 $18 $-1 $54 reversed single #
loop $-1 $55 $56 $23 #
cone-surface $-1 -61.87423510829808 11.18993659905907 7.9457732706011441 0.5877852598018023 0 -0.80901698891910034 1.2135254833786506 0 0.88167788970270344 1 I I 0 1 1.5 forward I I I I #
face $-1 $57 $58 $19 $-1 $59 reversed single #
loop $-1 $60 $61 $24 #
cone-surface $-1 -61.87423510829808 16.305367770336598 7.9457732706011441 0.5877852598018023 0 -0.80901698891910034 1.2135254833786506 0 0.88167788970270344 1 I I 0 1 1.5 forward I I I I #
face $-1 $62 $63 $15 $-1 $64 reversed single #
loop $-1 $-1 $65 $25 #
plane-surface $-1 0 0 -14.794532148701116 0 0 1 1 0 0 forward_v I I I I #
coedge $-1 $66 $67 $68 $69 forward $26 $-1 #
face $-1 $70 $71 $16 $-1 $72 reversed single #
loop $-1 $-1 $73 $28 #
plane-surface $-1 0 -14.910133888872945 -12.086166991866994 0 -1 0 0 0 -1 forward_v I I I I #
coedge $-1 $74 $75 $76 $77 reversed $29 $-1 #
face $-1 $78 $79 $17 $-1 $80 forward single #
loop $-1 $-1 $81 $31 #
plane-surface $-1 -70.842005676442767 13.747652184697838 2.5088622417812871 -0.5877852598018023 0 0.80901698891910034 0.80901698891910034 0 0.5877852598018023 forward_v I I I I #
coedge $-1 $82 $83 $84 $85 reversed $32 $-1 #
face $-1 $86 $87 $18 $-1 $88 forward single #
loop $-1 $89 $90 $34 #
cone-surface $-1 -60.920512400648086 11.18993659905907 6.6330866042717709 0.5877852598018023 0 -0.80901698891910034 0.60676274168932531 0 0.44083894485135172 1 I I -0.70710678118654757 0.70710678118654757 0.75 forward I I I I #
loop $-1 $-1 $91 $23 #
coedge $-1 $56 $56 $92 $93 reversed $35 $-1 #
face $-1 $94 $95 $19 $-1 $96 reversed single #
loop $-1 $97 $98 $37 #
cone-surface $-1 -60.920512400648086 16.305367770336598 6.6330866042717709 0.5877852598018023 0 -0.80901698891910034 0.60676274168932531 0 0.44083894485135172 1 I I -0.70710678118654757 0.70710678118654757 0.75 forward I I I I #
loop $-1 $-1 $99 $24 #
coedge $-1 $61 $61 $100 $101 reversed $38 $-1 #
face $-1 $102 $103 $15 $-1 $104 reversed single #
loop $-1 $-1 $105 $40 #
plane-surface $-1 0 -29.634646321224668 0 0 1 0 0 0 1 forward_v I I I I #
coedge $-1 $106 $107 $108 $109 forward $41 $-1 #
coedge $-1 $110 $43 $111 $112 forward $26 $-1 #
coedge $-1 $43 $110 $113 $114 forward $26 $-1 #
coedge $-1 $115 $116 $43 $69 reversed $117 $-1 #
edge $-1 $118 -29.634646321224668 $119 29.634646321224668 $68 $120 forward 7 unknown #
face $-1 $121 $122 $16 $-1 $123 reversed single #
loop $-1 $-1 $124 $44 #
plane-surface $-1 0 -29.634646321224668 0 0 1 0 0 0 1 forward_v I I I I #
coedge $-1 $125 $126 $127 $128 reversed $45 $-1 #
coedge $-1 $129 $47 $124 $130 reversed $29 $-1 #
coedge $-1 $47 $129 $125 $131 reversed $29 $-1 #
coedge $-1 $127 $132 $47 $77 forward $133 $-1 #
edge $-1 $134 -18.498451268700265 $135 -3.7739388363485418 $76 $136 forward 7 unknown #
face $-1 $137 $138 $17 $-1 $139 forward single #
loop $-1 $-1 $140 $48 #
plane-surface $-1 -154.1217790992601 19.715655217854955 117.13363448447237 0 -1 0 0.5877852598018023 0 -0.80901698891910034 forward_v I I I I #
coedge $-1 $141 $142 $143 $144 reversed $49 $-1 #
coedge $-1 $83 $51 $142 $145 forward $32 $-1 #
coedge $-1 $51 $82 $146 $147 reversed $32 $-1 #
coedge $-1 $148 $143 $51 $85 forward $138 $-1 #
edge $-1 $149 -23.128657483879323 $150 -6.2188838731872806 $84 $151 forward 7 unknown #
face $-1 $152 $153 $18 $-1 $154 forward single #
loop $-1 $-1 $155 $52 #
plane-surface $-1 -154.1217790992601 7.7796491515407205 117.13363448447237 0 1 0 -0.5877852598018023 0 0.80901698891910034 forward_v I I I I #
loop $-1 $-1 $156 $34 #
coedge $-1 $90 $90 $91 $157 forward $53 $-1 #
coedge $-1 $91 $91 $90 $157 reversed $55 $-1 #
coedge $-1 $92 $92 $56 $93 forward $153 $-1 #
edge $-1 $158 0 $158 6.2831853071796004 $92 $159 forward 7 unknown #
face $-1 $160 $161 $19 $-1 $162 reversed single #
loop $-1 $163 $164 $57 #
cone-surface $-1 -61.87423510829808 11.18993659905907 7.9457732706011441 0.5877852598018023 0 -0.80901698891910034 1.2135254833786506 0 0.88167788970270344 1 I I 0 1 1.5 forward I I I I #
loop $-1 $-1 $165 $37 #
coedge $-1 $98 $98 $99 $166 forward $58 $-1 #
coedge $-1 $99 $99 $98 $166 reversed $60 $-1 #
coedge $-1 $100 $100 $61 $101 forward $167 $-1 #
edge $-1 $168 0 $168 6.2831853071796004 $100 $169 forward 7 unknown #
face $-1 $170 $171 $15 $-1 $172 reversed single #
loop $-1 $-1 $173 $62 #
plane-surface $-1 -70.842005676442767 0 0 1 0 0 0 0 -1 forward_v I I I I #
coedge $-1 $174 $113 $175 $176 forward $63 $-1 #
coedge $-1 $177 $65 $174 $178 forward $41 $-1 #
coedge $-1 $65 $177 $179 $180 forward $41 $-1 #
coedge $-1 $116 $115 $65 $109 reversed $117 $-1 #
edge $-1 $181 -29.634646321224668 $182 29.634646321224668 $108 $183 forward 7 unknown #
coedge $-1 $67 $66 $184 $185 forward $26 $-1 #
coedge $-1 $186 $187 $66 $112 reversed $171 $-1 #
edge $-1 $119 -70.842005676442767 $188 70.842005676442767 $111 $189 forward 7 unknown #
coedge $-1 $105 $190 $67 $114 reversed $63 $-1 #
edge $-1 $191 -70.842005676442767 $118 70.842005676442767 $113 $192 forward 7 unknown #
coedge $-1 $108 $68 $190 $193 forward $117 $-1 #
coedge $-1 $68 $108 $186 $194 reversed $117 $-1 #
loop $-1 $-1 $115 $170 #
vertex $-1 $69 $195 #
vertex $-1 $69 $196 #
straight-curve $-1 70.842005676442767 0 14.794532148701116 0 1 0 I I #
face $-1 $197 $198 $16 $-1 $199 forward single #
loop $-1 $-1 $200 $70 #
plane-surface $-1 0 0 -14.794532148701116 0 0 1 1 0 0 forward_v I I I I #
coedge $-1 $201 $202 $74 $130 forward $71 $-1 #
coedge $-1 $203 $73 $75 $131 forward $45 $-1 #
coedge $-1 $73 $203 $200 $204 reversed $45 $-1 #
coedge $-1 $205 $76 $73 $128 forward $133 $-1 #
edge $-1 $135 3.3347183390993758 $206 8.7514486527676176 $127 $207 forward 7 unknown #
coedge $-1 $75 $74 $208 $209 reversed $29 $-1 #
edge $-1 $210 -70.842005676442767 $134 70.842005676442767 $124 $211 forward 7 unknown #
edge $-1 $135 -70.842005676442767 $212 70.842005676442767 $125 $213 forward 7 unknown #
coedge $-1 $76 $214 $201 $215 forward $133 $-1 #
loop $-1 $-1 $127 $216 #
vertex $-1 $130 $217 #
vertex $-1 $77 $218 #
straight-curve $-1 70.842005676442767 -11.136195052524403 -9.3778018350328729 0 1 0 I I #
face $-1 $219 $220 $17 $-1 $221 reversed single #
loop $-1 $-1 $222 $78 #
plane-surface $-1 0 0 14.794532148701116 0 0 1 1 0 0 forward_v I I I I #
coedge $-1 $223 $224 $222 $225 reversed $79 $-1 #
coedge $-1 $226 $81 $224 $227 reversed $49 $-1 #
coedge $-1 $81 $226 $82 $145 reversed $49 $-1 #
coedge $-1 $84 $222 $81 $144 forward $138 $-1 #
edge $-1 $228 -12.841829125506036 $149 -0.90582305919180151 $143 $229 forward 7 unknown #
edge $-1 $149 -20.901629807903795 $230 0 $82 $231 forward 7 unknown #
coedge $-1 $232 $233 $83 $147 forward $234 $-1 #
edge $-1 $150 43.772285093535068 $230 56.057955000454896 $146 $235 forward 7 unknown #
coedge $-1 $236 $84 $233 $237 forward $138 $-1 #
vertex $-1 $144 $238 #
vertex $-1 $237 $239 #
straight-curve $-1 -77.060889549630048 7.7796491515407205 14.794532148701116 -1 0 0 I I #
face $-1 $240 $241 $18 $-1 $242 forward single #
loop $-1 $243 $92 $86 #
plane-surface $-1 -70.842005676442767 13.747652184697838 2.5088622417812871 -0.5877852598018023 0 0.80901698891910034 0.80901698891910034 0 0.5877852598018023 forward_v I I I I #
coedge $-1 $244 $245 $246 $247 reversed $87 $-1 #
coedge $-1 $156 $156 $-1 $248 forward $89 $-1 #
edge $-1 $249 0 $249 6.2831853071796004 $90 $250 forward 7 unknown #
vertex $-1 $93 $251 #
ellipse-curve $-1 -62.387118871096739 11.18993659905907 8.6516971952412067 0.5877852598018023 0 -0.80901698891910034 1.2135254833786506 0 0.88167788970270344 1 I I #
face $-1 $252 $253 $19 $-1 $254 forward single #
loop $-1 $255 $256 $94 #
cone-surface $-1 -60.920512400648086 11.18993659905907 6.6330866042717709 0.5877852598018023 0 -0.80901698891910034 0.60676274168932531 0 0.44083894485135172 1 I I -0.70710678118654757 0.70710678118654757 0.75 forward I I I I #
loop $-1 $-1 $257 $57 #
coedge $-1 $164 $164 $258 $259 reversed $95 $-1 #
coedge $-1 $165 $165 $-1 $260 forward $97 $-1 #
edge $-1 $261 0 $261 6.2831853071796004 $98 $262 forward 7 unknown #
loop $-1 $263 $100 $252 #
vertex $-1 $101 $264 #
ellipse-curve $-1 -62.387118871096739 16.305367770336598 8.6516971952412067 0.5877852598018023 0 -0.80901698891910034 1.2135254833786506 0 0.88167788970270344 1 I I #
face $-1 $-1 $117 $15 $-1 $265 reversed single #
loop $-1 $-1 $186 $102 #
plane-surface $-1 0 29.634646321224668 0 0 -1 0 0 0 -1 forward_v I I I I #
coedge $-1 $266 $184 $187 $267 forward $103 $-1 #
coedge $-1 $190 $105 $106 $178 reversed $63 $-1 #
coedge $-1 $184 $266 $105 $176 reversed $103 $-1 #
edge $-1 $191 -14.794532148701116 $268 14.794532148701116 $175 $269 forward 7 unknown #
coedge $-1 $107 $106 $266 $270 forward $41 $-1 #
edge $-1 $182 -70.842005676442767 $268 70.842005676442767 $174 $271 forward 7 unknown #
coedge $-1 $187 $186 $107 $180 reversed $171 $-1 #
edge $-1 $272 -70.842005676442767 $181 70.842005676442767 $179 $273 forward 7 unknown #
vertex $-1 $109 $274 #
vertex $-1 $193 $275 #
straight-curve $-1 70.842005676442767 0 -14.794532148701116 0 -1 0 I I #
coedge $-1 $173 $175 $110 $185 reversed $103 $-1 #
edge $-1 $188 -29.634646321224668 $191 29.634646321224668 $184 $276 forward 7 unknown #
coedge $-1 $179 $111 $116 $194 forward $171 $-1 #
coedge $-1 $111 $179 $173 $267 reversed $171 $-1 #
vertex $-1 $112 $277 #
straight-curve $-1 0 29.634646321224668 14.794532148701116 -1 0 0 I I #
coedge $-1 $113 $174 $115 $193 reversed $63 $-1 #
vertex $-1 $185 $278 #
straight-curve $-1 0 -29.634646321224668 14.794532148701116 1 0 0 I I #
edge $-1 $118 -14.794532148701116 $182 14.794532148701116 $115 $279 forward 7 unknown #
edge $-1 $119 -14.794532148701116 $181 14.794532148701116 $116 $280 forward 7 unknown #
point $-1 70.842005676442767 -29.634646321224668 14.794532148701116 #
point $-1 70.842005676442767 29.634646321224668 14.794532148701116 #
face $-1 $281 $282 $16 $-1 $283 reversed single #
loop $-1 $-1 $284 $121 #
plane-surface $-1 0 0 14.794532148701116 0 0 1 1 0 0 forward_v I I I I #
coedge $-1 $285 $286 $126 $204 forward $122 $-1 #
coedge $-1 $287 $124 $132 $215 reversed $71 $-1 #
coedge $-1 $124 $287 $288 $289 forward $71 $-1 #
coedge $-1 $126 $125 $290 $291 reversed $45 $-1 #
edge $-1 $206 -70.842005676442767 $292 70.842005676442767 $200 $293 forward 7 unknown #
coedge $-1 $294 $127 $286 $295 reversed $133 $-1 #
vertex $-1 $204 $296 #
straight-curve $-1 70.842005676442767 -14.910133888872945 -6.0430834959334971 0 0 -1 I I #
coedge $-1 $288 $290 $129 $209 forward $282 $-1 #
edge $-1 $212 3.7739388363485418 $210 18.498451268700265 $208 $297 forward 7 unknown #
vertex $-1 $130 $298 #
straight-curve $-1 0 -29.634646321224668 -9.3778018350328729 1 0 0 I I #
vertex $-1 $209 $299 #
straight-curve $-1 0 -14.910133888872945 -9.3778018350328729 -1 0 0 I I #
coedge $-1 $132 $294 $284 $300 reversed $133 $-1 #
edge $-1 $301 -14.794532148701116 $134 9.3778018350328729 $132 $302 forward 7 unknown #
face $-1 $-1 $133 $16 $-1 $303 reversed single #
point $-1 70.842005676442767 -29.634646321224668 -9.3778018350328729 #
point $-1 70.842005676442767 -14.910133888872945 -9.3778018350328729 #
face $-1 $304 $305 $17 $-1 $306 forward single #
loop $-1 $-1 $307 $137 #
plane-surface $-1 0 -22.272390105048807 -9.3778018350328729 0 0 1 1 0 0 forward_v I I I I #
coedge $-1 $143 $308 $140 $225 forward $138 $-1 #
coedge $-1 $224 $140 $309 $310 reversed $79 $-1 #
coedge $-1 $140 $223 $141 $227 forward $79 $-1 #
edge $-1 $311 6.2188838731872806 $228 23.128657483879323 $222 $312 forward 7 unknown #
coedge $-1 $142 $141 $232 $313 reversed $49 $-1 #
edge $-1 $314 0 $228 20.901629807903795 $224 $315 forward 7 unknown #
vertex $-1 $144 $316 #
straight-curve $-1 -53.932232065750718 6.8738260923489189 14.794532148701116 0 -1 0 I I #
vertex $-1 $313 $317 #
straight-curve $-1 -70.842005676442767 7.7796491515407205 2.5088622417812871 -0.80901698891910034 0 -0.5877852598018023 I I #
coedge $-1 $309 $146 $226 $313 forward $234 $-1 #
coedge $-1 $146 $318 $148 $237 reversed $234 $-1 #
loop $-1 $-1 $309 $319 #
straight-curve $-1 -70.842005676442767 7.7796491515407205 58.566817242236183 0 0 -1 I I #
coedge $-1 $320 $148 $321 $322 forward $138 $-1 #
edge $-1 $150 -7.7796491515407205 $323 29.634646321224668 $233 $324 forward 7 unknown #
point $-1 -53.932232065750725 7.7796491515407205 14.794532148701116 #
point $-1 -70.842005676442767 7.7796491515407205 14.794532148701116 #
face $-1 $325 $326 $18 $-1 $327 forward single #
loop $-1 $-1 $328 $152 #
plane-surface $-1 -154.1217790992601 19.715655217854955 117.13363448447237 0 -1 0 0.5877852598018023 0 -0.80901698891910034 forward_v I I I I #
loop $-1 $-1 $329 $86 #
coedge $-1 $245 $155 $330 $331 forward $87 $-1 #
coedge $-1 $155 $244 $332 $333 reversed $87 $-1 #
coedge $-1 $334 $335 $155 $247 forward $326 $-1 #
edge $-1 $336 -23.128657483879323 $337 -6.2188838731872806 $246 $338 forward 7 unknown #
edge $-1 $339 1 $339 0 $156 $-1 forward 7 unknown #
vertex $-1 $157 $340 #
ellipse-curve $-1 -61.361351345499436 11.18993659905907 7.2398493459610958 -0.5877852598018023 0 0.80901698891910034 1.2135254833786506 0 0.88167788970270344 1 I I #
point $-1 -61.173593387718078 11.18993659905907 9.533375084943895 #
face $-1 $341 $167 $19 $-1 $342 forward single #
loop $-1 $-1 $343 $160 #
plane-surface $-1 -154.1217790992601 7.7796491515407205 117.13363448447237 0 1 0 -0.5877852598018023 0 0.80901698891910034 forward_v I I I I #
loop $-1 $-1 $344 $94 #
coedge $-1 $256 $256 $257 $345 forward $161 $-1 #
coedge $-1 $257 $257 $256 $345 reversed $163 $-1 #
coedge $-1 $258 $258 $164 $259 forward $263 $-1 #
edge $-1 $346 0 $346 6.2831853071796004 $258 $347 forward 7 unknown #
edge $-1 $348 1 $348 0 $165 $-1 forward 7 unknown #
vertex $-1 $166 $349 #
ellipse-curve $-1 -61.361351345499436 16.305367770336598 7.2398493459610958 -0.5877852598018023 0 0.80901698891910034 1.2135254833786506 0 0.88167788970270344 1 I I #
loop $-1 $350 $258 $252 #
point $-1 -61.173593387718078 16.305367770336598 9.533375084943895 #
plane-surface $-1 70.842005676442767 0 0 -1 0 0 0 0 1 forward_v I I I I #
coedge $-1 $175 $173 $177 $270 reversed $103 $-1 #
edge $-1 $188 -14.794532148701116 $272 14.794532148701116 $187 $351 forward 7 unknown #
vertex $-1 $270 $352 #
straight-curve $-1 -70.842005676442767 -29.634646321224668 0 0 0 -1 I I #
edge $-1 $268 -29.634646321224668 $272 29.634646321224668 $266 $353 forward 7 unknown #
straight-curve $-1 0 -29.634646321224668 -14.794532148701116 -1 0 0 I I #
vertex $-1 $180 $354 #
straight-curve $-1 0 29.634646321224668 -14.794532148701116 1 0 0 I I #
point $-1 70.842005676442767 29.634646321224668 -14.794532148701116 #
point $-1 70.842005676442767 -29.634646321224668 -14.794532148701116 #
straight-curve $-1 -70.842005676442767 0 14.794532148701116 0 -1 0 I I #
point $-1 -70.842005676442767 29.634646321224668 14.794532148701116 #
point $-1 -70.842005676442767 -29.634646321224668 14.794532148701116 #
straight-curve $-1 70.842005676442767 -29.634646321224668 0 0 0 -1 I I #
straight-curve $-1 70.842005676442767 29.634646321224668 0 0 0 -1 I I #
face $-1 $216 $355 $16 $-1 $356 reversed single #
loop $-1 $-1 $208 $197 #
plane-surface $-1 -70.842005676442767 0 0 1 0 0 0 0 -1 forward_v I I I I #
coedge $-1 $357 $358 $214 $300 forward $198 $-1 #
coedge $-1 $359 $200 $360 $361 forward $122 $-1 #
coedge $-1 $200 $359 $205 $295 forward $122 $-1 #
coedge $-1 $202 $201 $358 $362 reversed $71 $-1 #
coedge $-1 $363 $208 $202 $289 reversed $282 $-1 #
edge $-1 $364 -14.794532148701116 $210 9.3778018350328729 $288 $365 forward 7 unknown #
coedge $-1 $208 $360 $203 $291 forward $282 $-1 #
edge $-1 $292 -8.7514486527676176 $212 -3.3347183390993758 $290 $366 forward 7 unknown #
vertex $-1 $361 $367 #
straight-curve $-1 0 -14.910133888872945 -14.794532148701116 -1 0 0 I I #
coedge $-1 $214 $205 $368 $369 reversed $133 $-1 #
edge $-1 $370 -29.634646321224668 $206 14.910133888872945 $205 $371 forward 7 unknown #
point $-1 70.842005676442767 -14.910133888872945 -14.794532148701116 #
straight-curve $-1 -70.842005676442767 -11.136195052524403 -9.3778018350328729 0 -1 0 I I #
point $-1 -70.842005676442767 -29.634646321224668 -9.3778018350328729 #
point $-1 -70.842005676442767 -14.910133888872945 -9.3778018350328729 #
edge $-1 $301 -29.634646321224668 $372 29.634646321224668 $214 $373 forward 7 unknown #
vertex $-1 $300 $374 #
straight-curve $-1 70.842005676442767 -29.634646321224668 0 0 0 -1 I I #
plane-surface $-1 70.842005676442767 0 0 -1 0 0 0 0 1 forward_v I I I I #
face $-1 $375 $376 $17 $-1 $377 reversed single #
loop $-1 $-1 $378 $219 #
plane-surface $-1 0 -14.910133888872945 -12.086166991866994 0 -1 0 0 0 -1 forward_v I I I I #
coedge $-1 $379 $380 $381 $382 reversed $220 $-1 #
coedge $-1 $222 $383 $384 $385 forward $138 $-1 #
coedge $-1 $384 $232 $223 $310 forward $234 $-1 #
edge $-1 $314 -56.057955000454896 $311 -43.772285093535068 $309 $386 forward 7 unknown #
vertex $-1 $310 $387 #
straight-curve $-1 -77.060889549630048 19.715655217854955 14.794532148701116 1 0 0 I I #
edge $-1 $230 0.90582305919180151 $314 12.841829125506036 $232 $388 forward 7 unknown #
vertex $-1 $313 $389 #
straight-curve $-1 -70.842005676442767 19.715655217854955 2.5088622417812871 0.80901698891910034 0 0.5877852598018023 I I #
point $-1 -53.932232065750725 19.715655217854955 14.794532148701116 #
point $-1 -70.842005676442767 7.7796491515407205 2.5088622417812871 #
coedge $-1 $233 $390 $391 $392 reversed $234 $-1 #
face $-1 $393 $234 $17 $-1 $394 reversed single #
coedge $-1 $383 $236 $395 $396 forward $138 $-1 #
coedge $-1 $391 $397 $236 $322 reversed $376 $-1 #
edge $-1 $323 -70.842005676442767 $398 70.842005676442767 $321 $399 forward 7 unknown #
vertex $-1 $237 $400 #
straight-curve $-1 -70.842005676442767 0 14.794532148701116 0 -1 0 I I #
face $-1 $401 $402 $18 $-1 $403 reversed single #
loop $-1 $-1 $404 $240 #
plane-surface $-1 0 0 14.794532148701116 0 0 1 1 0 0 forward_v I I I I #
coedge $-1 $405 $406 $404 $407 reversed $241 $-1 #
coedge $-1 $408 $330 $335 $409 reversed $243 $-1 #
coedge $-1 $329 $410 $244 $331 reversed $243 $-1 #
edge $-1 $336 -20.901629807903795 $411 0 $244 $412 forward 7 unknown #
coedge $-1 $413 $414 $245 $333 forward $415 $-1 #
edge $-1 $337 43.772285093535068 $411 56.057955000454896 $332 $416 forward 7 unknown #
coedge $-1 $417 $246 $414 $418 forward $326 $-1 #
coedge $-1 $246 $404 $329 $409 forward $326 $-1 #
vertex $-1 $409 $419 #
vertex $-1 $418 $420 #
straight-curve $-1 -77.060889549630048 7.7796491515407205 14.794532148701116 -1 0 0 I I #
vertex $-1 $248 $421 #
point $-1 -60.14782586212079 11.18993659905907 8.1215272356638 #
face $-1 $422 $423 $19 $-1 $424 forward single #
plane-surface $-1 -70.842005676442767 13.747652184697838 2.5088622417812871 -0.5877852598018023 0 0.80901698891910034 0.80901698891910034 0 0.5877852598018023 forward_v I I I I #
coedge $-1 $425 $426 $427 $428 reversed $253 $-1 #
coedge $-1 $344 $344 $-1 $429 forward $255 $-1 #
edge $-1 $430 0 $430 6.2831853071796004 $256 $431 forward 7 unknown #
vertex $-1 $259 $432 #
ellipse-curve $-1 -62.387118871096739 11.18993659905907 8.6516971952412067 0.5877852598018023 0 -0.80901698891910034 1.2135254833786506 0 0.88167788970270344 1 I I #
vertex $-1 $260 $433 #
point $-1 -60.14782586212079 16.305367770336598 8.1215272356638 #
loop $-1 $-1 $434 $252 #
straight-curve $-1 -70.842005676442767 29.634646321224668 0 0 0 -1 I I #
point $-1 -70.842005676442767 -29.634646321224668 -14.794532148701116 #
straight-curve $-1 -70.842005676442767 0 -14.794532148701116 0 1 0 I I #
point $-1 -70.842005676442767 29.634646321224668 -14.794532148701116 #
loop $-1 $-1 $368 $281 #
plane-surface $-1 0 29.634646321224668 0 0 -1 0 0 0 -1 forward_v I I I I #
coedge $-1 $435 $284 $436 $437 forward $198 $-1 #
coedge $-1 $284 $435 $287 $362 forward $198 $-1 #
coedge $-1 $286 $285 $438 $439 forward $122 $-1 #
coedge $-1 $290 $440 $285 $361 reversed $282 $-1 #
edge $-1 $292 -14.910133888872945 $441 29.634646321224668 $360 $442 forward 7 unknown #
edge $-1 $364 -70.842005676442767 $301 70.842005676442767 $287 $443 forward 7 unknown #
coedge $-1 $440 $288 $435 $444 reversed $282 $-1 #
vertex $-1 $444 $445 #
straight-curve $-1 -70.842005676442767 -29.634646321224668 0 0 0 -1 I I #
straight-curve $-1 -70.842005676442767 -14.910133888872945 -6.0430834959334971 0 0 1 I I #
point $-1 -70.842005676442767 -14.910133888872945 -14.794532148701116 #
coedge $-1 $438 $436 $294 $369 forward $355 $-1 #
edge $-1 $372 -14.794532148701116 $370 14.794532148701116 $294 $446 forward 7 unknown #
vertex $-1 $295 $447 #
straight-curve $-1 70.842005676442767 0 -14.794532148701116 0 -1 0 I I #
vertex $-1 $300 $448 #
straight-curve $-1 70.842005676442767 0 14.794532148701116 0 1 0 I I #
point $-1 70.842005676442767 -29.634646321224668 14.794532148701116 #
face $-1 $319 $449 $17 $-1 $450 reversed single #
loop $-1 $-1 $451 $304 #
plane-surface $-1 0 -29.634646321224668 0 0 1 0 0 0 1 forward_v I I I I #
coedge $-1 $452 $453 $454 $455 reversed $305 $-1 #
coedge $-1 $456 $307 $451 $457 reversed $220 $-1 #
coedge $-1 $307 $456 $452 $458 reversed $220 $-1 #
coedge $-1 $454 $459 $307 $382 forward $460 $-1 #
edge $-1 $461 -18.498451268700265 $462 -3.7739388363485418 $381 $463 forward 7 unknown #
coedge $-1 $308 $320 $464 $465 forward $138 $-1 #
coedge $-1 $466 $309 $308 $385 reversed $234 $-1 #
edge $-1 $467 -29.634646321224668 $311 -19.715655217854955 $384 $324 forward 7 unknown #
straight-curve $-1 -70.842005676442767 19.715655217854955 58.566817242236183 0 0 1 I I #
point $-1 -70.842005676442767 19.715655217854955 14.794532148701116 #
straight-curve $-1 -70.842005676442767 6.8738260923489189 2.5088622417812902 0 1 0 I I #
point $-1 -70.842005676442767 19.715655217854955 2.5088622417812871 #
coedge $-1 $318 $468 $456 $469 forward $234 $-1 #
coedge $-1 $451 $321 $318 $392 forward $376 $-1 #
edge $-1 $323 -14.794532148701116 $470 9.3778018350328729 $318 $471 forward 7 unknown #
face $-1 $472 $473 $17 $-1 $474 reversed single #
plane-surface $-1 -70.842005676442767 0 0 1 0 0 0 0 -1 forward_v I I I I #
coedge $-1 $459 $475 $320 $396 reversed $460 $-1 #
edge $-1 $398 -29.634646321224668 $476 29.634646321224668 $395 $477 forward 7 unknown #
coedge $-1 $321 $451 $459 $478 reversed $376 $-1 #
vertex $-1 $396 $479 #
straight-curve $-1 0 -29.634646321224668 14.794532148701116 1 0 0 I I #
point $-1 -70.842005676442767 -29.634646321224668 14.794532148701116 #
face $-1 $480 $481 $18 $-1 $482 forward single #
loop $-1 $-1 $483 $325 #
plane-surface $-1 0 -22.272390105048807 -9.3778018350328729 0 0 1 1 0 0 forward_v I I I I #
coedge $-1 $335 $484 $328 $407 forward $326 $-1 #
coedge $-1 $406 $328 $485 $486 reversed $241 $-1 #
coedge $-1 $328 $405 $408 $487 forward $241 $-1 #
edge $-1 $488 6.2188838731872806 $489 23.128657483879323 $404 $490 forward 7 unknown #
coedge $-1 $410 $329 $406 $487 reversed $243 $-1 #
edge $-1 $489 -12.841829125506036 $336 -0.90582305919180151 $335 $491 forward 7 unknown #
coedge $-1 $330 $408 $413 $492 reversed $243 $-1 #
vertex $-1 $492 $493 #
straight-curve $-1 -70.842005676442767 7.7796491515407205 2.5088622417812871 -0.80901698891910034 0 -0.5877852598018023 I I #
coedge $-1 $485 $332 $410 $492 forward $415 $-1 #
coedge $-1 $332 $494 $334 $418 reversed $415 $-1 #
loop $-1 $-1 $485 $495 #
straight-curve $-1 -70.842005676442767 7.7796491515407205 58.566817242236183 0 0 -1 I I #
coedge $-1 $496 $334 $497 $498 forward $326 $-1 #
edge $-1 $337 -7.7796491515407205 $499 29.634646321224668 $414 $500 forward 7 unknown #
point $-1 -53.932232065750725 7.7796491515407205 14.794532148701116 #
point $-1 -70.842005676442767 7.7796491515407205 14.794532148701116 #
point $-1 -60.479673455796735 11.18993659905907 6.026323862582446 #
face $-1 $501 $502 $19 $-1 $503 forward single #
loop $-1 $-1 $504 $341 #
plane-surface $-1 -154.1217790992601 19.715655217854955 117.13363448447237 0 -1 0 0.5877852598018023 0 -0.80901698891910034 forward_v I I I I #
coedge $-1 $426 $343 $505 $506 forward $253 $-1 #
coedge $-1 $343 $425 $507 $508 reversed $253 $-1 #
coedge $-1 $509 $510 $343 $428 forward $502 $-1 #
edge $-1 $511 -23.128657483879323 $512 -6.2188838731872806 $427 $513 forward 7 unknown #
edge $-1 $514 1 $514 0 $344 $-1 forward 7 unknown #
vertex $-1 $345 $515 #
ellipse-curve $-1 -61.361351345499436 11.18993659905907 7.2398493459610958 -0.5877852598018023 0 0.80901698891910034 1.2135254833786506 0 0.88167788970270344 1 I I #
point $-1 -61.173593387718078 11.18993659905907 9.533375084943895 #
point $-1 -60.479673455796735 16.305367770336598 6.026323862582446 #
coedge $-1 $516 $505 $510 $517 reversed $350 $-1 #
coedge $-1 $358 $357 $363 $444 forward $198 $-1 #
coedge $-1 $368 $518 $357 $437 reversed $355 $-1 #
edge $-1 $372 -70.842005676442767 $519 70.842005676442767 $436 $520 forward 7 unknown #
coedge $-1 $518 $368 $359 $439 reversed $355 $-1 #
edge $-1 $441 -70.842005676442767 $370 70.842005676442767 $438 $521 forward 7 unknown #
coedge $-1 $360 $363 $518 $522 forward $282 $-1 #
vertex $-1 $439 $523 #
straight-curve $-1 -70.842005676442767 0 -14.794532148701116 0 1 0 I I #
straight-curve $-1 0 -29.634646321224668 14.794532148701116 1 0 0 I I #
edge $-1 $519 -29.634646321224668 $364 29.634646321224668 $363 $524 forward 7 unknown #
point $-1 -70.842005676442767 -29.634646321224668 14.794532148701116 #
straight-curve $-1 70.842005676442767 29.634646321224668 0 0 0 -1 I I #
point $-1 70.842005676442767 29.634646321224668 -14.794532148701116 #
point $-1 70.842005676442767 29.634646321224668 14.794532148701116 #
loop $-1 $-1 $525 $375 #
plane-surface $-1 0 0 -14.794532148701116 0 0 1 1 0 0 forward_v I I I I #
coedge $-1 $397 $391 $379 $457 forward $376 $-1 #
coedge $-1 $526 $378 $380 $458 forward $305 $-1 #
coedge $-1 $378 $526 $525 $527 reversed $305 $-1 #
coedge $-1 $528 $381 $378 $455 forward $460 $-1 #
edge $-1 $462 3.3347183390993758 $529 8.7514486527676176 $454 $530 forward 7 unknown #
coedge $-1 $380 $379 $390 $469 reversed $220 $-1 #
edge $-1 $470 -70.842005676442767 $461 70.842005676442767 $451 $531 forward 7 unknown #
edge $-1 $462 -70.842005676442767 $532 70.842005676442767 $452 $533 forward 7 unknown #
coedge $-1 $381 $395 $397 $478 forward $460 $-1 #
loop $-1 $-1 $454 $472 #
vertex $-1 $457 $534 #
vertex $-1 $382 $535 #
straight-curve $-1 70.842005676442767 -11.136195052524403 -9.3778018350328729 0 1 0 I I #
coedge $-1 $536 $537 $383 $465 reversed $473 $-1 #
edge $-1 $476 -70.842005676442767 $467 70.842005676442767 $464 $538 forward 7 unknown #
coedge $-1 $539 $384 $537 $540 forward $234 $-1 #
vertex $-1 $465 $541 #
coedge $-1 $390 $539 $526 $542 forward $234 $-1 #
edge $-1 $532 3.7739388363485418 $470 18.498451268700265 $390 $543 forward 7 unknown #
vertex $-1 $457 $544 #
straight-curve $-1 -70.842005676442767 -29.634646321224668 0 0 0 -1 I I #
face $-1 $-1 $460 $17 $-1 $545 reversed single #
loop $-1 $-1 $536 $393 #
plane-surface $-1 0 29.634646321224668 0 0 -1 0 0 0 -1 forward_v I I I I #
coedge $-1 $395 $528 $536 $546 reversed $460 $-1 #
vertex $-1 $396 $547 #
straight-curve $-1 70.842005676442767 0 14.794532148701116 0 1 0 I I #
edge $-1 $398 -14.794532148701116 $461 9.3778018350328729 $459 $548 forward 7 unknown #
point $-1 70.842005676442767 -29.634646321224668 14.794532148701116 #
face $-1 $549 $550 $18 $-1 $551 reversed single #
loop $-1 $-1 $552 $401 #
plane-surface $-1 0 -14.910133888872945 -12.086166991866994 0 -1 0 0 0 -1 forward_v I I I I #
coedge $-1 $553 $554 $555 $556 reversed $402 $-1 #
coedge $-1 $404 $557 $558 $559 forward $326 $-1 #
coedge $-1 $558 $413 $405 $486 forward $415 $-1 #
edge $-1 $560 -56.057955000454896 $488 -43.772285093535068 $485 $561 forward 7 unknown #
edge $-1 $560 0 $489 20.901629807903795 $406 $562 forward 7 unknown #
vertex $-1 $486 $563 #
vertex $-1 $409 $564 #
straight-curve $-1 -77.060889549630048 19.715655217854955 14.794532148701116 1 0 0 I I #
straight-curve $-1 -53.932232065750718 6.8738260923489189 14.794532148701116 0 -1 0 I I #
edge $-1 $411 0.90582305919180151 $560 12.841829125506036 $413 $565 forward 7 unknown #
point $-1 -70.842005676442767 7.7796491515407205 2.5088622417812871 #
coedge $-1 $414 $566 $567 $568 reversed $415 $-1 #
face $-1 $569 $415 $18 $-1 $570 reversed single #
coedge $-1 $557 $417 $571 $572 forward $326 $-1 #
coedge $-1 $567 $573 $417 $498 reversed $550 $-1 #
edge $-1 $499 -70.842005676442767 $574 70.842005676442767 $497 $575 forward 7 unknown #
vertex $-1 $418 $576 #
straight-curve $-1 -70.842005676442767 0 14.794532148701116 0 -1 0 I I #
face $-1 $577 $578 $19 $-1 $579 reversed single #
loop $-1 $-1 $580 $422 #
plane-surface $-1 0 0 14.794532148701116 0 0 1 1 0 0 forward_v I I I I #
coedge $-1 $581 $582 $580 $583 reversed $423 $-1 #
coedge $-1 $434 $584 $425 $506 reversed $350 $-1 #
edge $-1 $511 -20.901629807903795 $585 0 $425 $586 forward 7 unknown #
coedge $-1 $587 $588 $426 $508 forward $589 $-1 #
edge $-1 $512 43.772285093535068 $585 56.057955000454896 $507 $590 forward 7 unknown #
coedge $-1 $591 $427 $588 $592 forward $502 $-1 #
coedge $-1 $427 $580 $434 $517 forward $502 $-1 #
vertex $-1 $517 $593 #
vertex $-1 $592 $594 #
straight-curve $-1 -77.060889549630048 7.7796491515407205 14.794532148701116 -1 0 0 I I #
vertex $-1 $429 $595 #
point $-1 -60.14782586212079 11.18993659905907 8.1215272356638 #
coedge $-1 $584 $434 $582 $596 reversed $350 $-1 #
edge $-1 $597 -12.841829125506036 $511 -0.90582305919180151 $510 $598 forward 7 unknown #
coedge $-1 $436 $438 $440 $522 reversed $355 $-1 #
vertex $-1 $437 $599 #
straight-curve $-1 0 29.634646321224668 14.794532148701116 -1 0 0 I I #
straight-curve $-1 0 29.634646321224668 -14.794532148701116 1 0 0 I I #
edge $-1 $519 -14.794532148701116 $441 14.794532148701116 $518 $600 forward 7 unknown #
point $-1 -70.842005676442767 29.634646321224668 -14.794532148701116 #
straight-curve $-1 -70.842005676442767 0 14.794532148701116 0 -1 0 I I #
coedge $-1 $601 $602 $453 $527 forward $449 $-1 #
coedge $-1 $453 $452 $468 $542 reversed $305 $-1 #
edge $-1 $529 -70.842005676442767 $603 70.842005676442767 $525 $604 forward 7 unknown #
coedge $-1 $475 $454 $602 $605 reversed $460 $-1 #
vertex $-1 $527 $606 #
straight-curve $-1 70.842005676442767 -14.910133888872945 -6.0430834959334971 0 0 -1 I I #
straight-curve $-1 0 -29.634646321224668 -9.3778018350328729 1 0 0 I I #
vertex $-1 $469 $607 #
straight-curve $-1 0 -14.910133888872945 -9.3778018350328729 -1 0 0 I I #
point $-1 70.842005676442767 -29.634646321224668 -9.3778018350328729 #
point $-1 70.842005676442767 -14.910133888872945 -9.3778018350328729 #
coedge $-1 $608 $464 $475 $546 forward $473 $-1 #
coedge $-1 $464 $608 $466 $540 reversed $473 $-1 #
straight-curve $-1 0 29.634646321224668 14.794532148701116 -1 0 0 I I #
coedge $-1 $468 $466 $601 $609 reversed $234 $-1 #
edge $-1 $467 -14.794532148701116 $610 14.794532148701116 $537 $611 forward 7 unknown #
point $-1 -70.842005676442767 29.634646321224668 14.794532148701116 #
edge $-1 $603 -8.7514486527676176 $532 -3.3347183390993758 $468 $612 forward 7 unknown #
straight-curve $-1 -70.842005676442767 -11.136195052524403 -9.3778018350328729 0 -1 0 I I #
point $-1 -70.842005676442767 -29.634646321224668 -9.3778018350328729 #
plane-surface $-1 70.842005676442767 0 0 -1 0 0 0 0 1 forward_v I I I I #
edge $-1 $476 -14.794532148701116 $613 14.794532148701116 $475 $614 forward 7 unknown #
point $-1 70.842005676442767 29.634646321224668 14.794532148701116 #
straight-curve $-1 70.842005676442767 -29.634646321224668 0 0 0 -1 I I #
face $-1 $495 $615 $18 $-1 $616 reversed single #
loop $-1 $-1 $617 $480 #
plane-surface $-1 0 -29.634646321224668 0 0 1 0 0 0 1 forward_v I I I I #
coedge $-1 $618 $619 $620 $621 reversed $481 $-1 #
coedge $-1 $622 $483 $617 $623 reversed $402 $-1 #
coedge $-1 $483 $622 $618 $624 reversed $402 $-1 #
coedge $-1 $620 $625 $483 $556 forward $626 $-1 #
edge $-1 $627 -18.498451268700265 $628 -3.7739388363485418 $555 $629 forward 7 unknown #
coedge $-1 $484 $496 $630 $631 forward $326 $-1 #
coedge $-1 $632 $485 $484 $559 reversed $415 $-1 #
edge $-1 $633 -29.634646321224668 $488 -19.715655217854955 $558 $500 forward 7 unknown #
vertex $-1 $492 $634 #
straight-curve $-1 -70.842005676442767 19.715655217854955 58.566817242236183 0 0 1 I I #
straight-curve $-1 -70.842005676442767 19.715655217854955 2.5088622417812871 0.80901698891910034 0 0.5877852598018023 I I #
point $-1 -70.842005676442767 19.715655217854955 14.794532148701116 #
point $-1 -53.932232065750725 19.715655217854955 14.794532148701116 #
straight-curve $-1 -70.842005676442767 6.8738260923489189 2.5088622417812902 0 1 0 I I #
coedge $-1 $494 $635 $622 $636 forward $415 $-1 #
coedge $-1 $617 $497 $494 $568 forward $550 $-1 #
edge $-1 $499 -14.794532148701116 $637 9.3778018350328729 $494 $638 forward 7 unknown #
face $-1 $639 $640 $18 $-1 $641 reversed single #
plane-surface $-1 -70.842005676442767 0 0 1 0 0 0 0 -1 forward_v I I I I #
coedge $-1 $625 $642 $496 $572 reversed $626 $-1 #
edge $-1 $574 -29.634646321224668 $643 29.634646321224668 $571 $644 forward 7 unknown #
coedge $-1 $497 $617 $625 $645 reversed $550 $-1 #
vertex $-1 $572 $646 #
straight-curve $-1 0 -29.634646321224668 14.794532148701116 1 0 0 I I #
point $-1 -70.842005676442767 -29.634646321224668 14.794532148701116 #
face $-1 $647 $648 $19 $-1 $649 forward single #
loop $-1 $-1 $650 $501 #
plane-surface $-1 0 -22.272390105048807 -9.3778018350328729 0 0 1 1 0 0 forward_v I I I I #
coedge $-1 $510 $651 $504 $583 forward $502 $-1 #
coedge $-1 $582 $504 $652 $653 reversed $423 $-1 #
coedge $-1 $504 $581 $516 $596 forward $423 $-1 #
edge $-1 $654 6.2188838731872806 $597 23.128657483879323 $580 $655 forward 7 unknown #
coedge $-1 $505 $516 $587 $656 reversed $350 $-1 #
vertex $-1 $656 $657 #
straight-curve $-1 -70.842005676442767 7.7796491515407205 2.5088622417812871 -0.80901698891910034 0 -0.5877852598018023 I I #
coedge $-1 $652 $507 $584 $656 forward $589 $-1 #
coedge $-1 $507 $658 $509 $592 reversed $589 $-1 #
loop $-1 $-1 $652 $659 #
straight-curve $-1 -70.842005676442767 7.7796491515407205 58.566817242236183 0 0 -1 I I #
coedge $-1 $660 $509 $661 $662 forward $502 $-1 #
edge $-1 $512 -7.7796491515407205 $663 29.634646321224668 $588 $664 forward 7 unknown #
point $-1 -53.932232065750725 7.7796491515407205 14.794532148701116 #
point $-1 -70.842005676442767 7.7796491515407205 14.794532148701116 #
point $-1 -60.479673455796735 11.18993659905907 6.026323862582446 #
edge $-1 $665 0 $597 20.901629807903795 $582 $666 forward 7 unknown #
vertex $-1 $517 $667 #
straight-curve $-1 -53.932232065750718 6.8738260923489189 14.794532148701116 0 -1 0 I I #
point $-1 -70.842005676442767 29.634646321224668 14.794532148701116 #
straight-curve $-1 -70.842005676442767 29.634646321224668 0 0 0 -1 I I #
coedge $-1 $668 $525 $539 $609 forward $449 $-1 #
coedge $-1 $525 $668 $528 $605 forward $449 $-1 #
vertex $-1 $609 $669 #
straight-curve $-1 0 -14.910133888872945 -14.794532148701116 -1 0 0 I I #
edge $-1 $613 -29.634646321224668 $529 14.910133888872945 $528 $670 forward 7 unknown #
point $-1 70.842005676442767 -14.910133888872945 -14.794532148701116 #
point $-1 -70.842005676442767 -14.910133888872945 -9.3778018350328729 #
coedge $-1 $537 $536 $668 $671 reversed $473 $-1 #
edge $-1 $603 -14.910133888872945 $610 29.634646321224668 $539 $672 forward 7 unknown #
vertex $-1 $671 $673 #
straight-curve $-1 -70.842005676442767 29.634646321224668 0 0 0 -1 I I #
straight-curve $-1 -70.842005676442767 -14.910133888872945 -6.0430834959334971 0 0 1 I I #
vertex $-1 $605 $674 #
straight-curve $-1 70.842005676442767 29.634646321224668 0 0 0 -1 I I #
loop $-1 $-1 $675 $549 #
plane-surface $-1 0 0 -14.794532148701116 0 0 1 1 0 0 forward_v I I I I #
coedge $-1 $573 $567 $553 $623 forward $550 $-1 #
coedge $-1 $676 $552 $554 $624 forward $481 $-1 #
coedge $-1 $552 $676 $675 $677 reversed $481 $-1 #
coedge $-1 $678 $555 $552 $621 forward $626 $-1 #
edge $-1 $628 3.3347183390993758 $679 8.7514486527676176 $620 $680 forward 7 unknown #
coedge $-1 $554 $553 $566 $636 reversed $402 $-1 #
edge $-1 $637 -70.842005676442767 $627 70.842005676442767 $617 $681 forward 7 unknown #
edge $-1 $628 -70.842005676442767 $682 70.842005676442767 $618 $683 forward 7 unknown #
coedge $-1 $555 $571 $573 $645 forward $626 $-1 #
loop $-1 $-1 $620 $639 #
vertex $-1 $623 $684 #
vertex $-1 $556 $685 #
straight-curve $-1 70.842005676442767 -11.136195052524403 -9.3778018350328729 0 1 0 I I #
coedge $-1 $686 $687 $557 $631 reversed $640 $-1 #
edge $-1 $643 -70.842005676442767 $633 70.842005676442767 $630 $688 forward 7 unknown #
coedge $-1 $689 $558 $687 $690 forward $415 $-1 #
vertex $-1 $631 $691 #
point $-1 -70.842005676442767 19.715655217854955 2.5088622417812871 #
coedge $-1 $566 $689 $676 $692 forward $415 $-1 #
edge $-1 $682 3.7739388363485418 $637 18.498451268700265 $566 $693 forward 7 unknown #
vertex $-1 $623 $694 #
straight-curve $-1 -70.842005676442767 -29.634646321224668 0 0 0 -1 I I #
face $-1 $-1 $626 $18 $-1 $695 reversed single #
loop $-1 $-1 $686 $569 #
plane-surface $-1 0 29.634646321224668 0 0 -1 0 0 0 -1 forward_v I I I I #
coedge $-1 $571 $678 $686 $696 reversed $626 $-1 #
vertex $-1 $572 $697 #
straight-curve $-1 70.842005676442767 0 14.794532148701116 0 1 0 I I #
edge $-1 $574 -14.794532148701116 $627 9.3778018350328729 $625 $698 forward 7 unknown #
point $-1 70.842005676442767 -29.634646321224668 14.794532148701116 #
face $-1 $699 $700 $19 $-1 $701 reversed single #
loop $-1 $-1 $702 $577 #
plane-surface $-1 0 -14.910133888872945 -12.086166991866994 0 -1 0 0 0 -1 forward_v I I I I #
coedge $-1 $703 $704 $705 $706 reversed $578 $-1 #
coedge $-1 $580 $707 $708 $709 forward $502 $-1 #
coedge $-1 $708 $587 $581 $653 forward $589 $-1 #
edge $-1 $665 -56.057955000454896 $654 -43.772285093535068 $652 $710 forward 7 unknown #
vertex $-1 $653 $711 #
straight-curve $-1 -77.060889549630048 19.715655217854955 14.794532148701116 1 0 0 I I #
edge $-1 $585 0.90582305919180151 $665 12.841829125506036 $587 $712 forward 7 unknown #
point $-1 -70.842005676442767 7.7796491515407205 2.5088622417812871 #
coedge $-1 $588 $713 $714 $715 reversed $589 $-1 #
face $-1 $716 $589 $19 $-1 $717 reversed single #
coedge $-1 $707 $591 $718 $719 forward $502 $-1 #
coedge $-1 $714 $720 $591 $662 reversed $700 $-1 #
edge $-1 $663 -70.842005676442767 $721 70.842005676442767 $661 $722 forward 7 unknown #
vertex $-1 $592 $723 #
straight-curve $-1 -70.842005676442767 0 14.794532148701116 0 -1 0 I I #
vertex $-1 $656 $724 #
straight-curve $-1 -70.842005676442767 19.715655217854955 2.5088622417812871 0.80901698891910034 0 0.5877852598018023 I I #
point $-1 -53.932232065750725 19.715655217854955 14.794532148701116 #
coedge $-1 $602 $601 $608 $671 forward $449 $-1 #
point $-1 -70.842005676442767 -14.910133888872945 -14.794532148701116 #
straight-curve $-1 70.842005676442767 0 -14.794532148701116 0 -1 0 I I #
edge $-1 $610 -70.842005676442767 $613 70.842005676442767 $608 $725 forward 7 unknown #
straight-curve $-1 -70.842005676442767 0 -14.794532148701116 0 1 0 I I #
point $-1 -70.842005676442767 29.634646321224668 -14.794532148701116 #
point $-1 70.842005676442767 29.634646321224668 -14.794532148701116 #
coedge $-1 $726 $727 $619 $677 forward $615 $-1 #
coedge $-1 $619 $618 $635 $692 reversed $481 $-1 #
edge $-1 $679 -70.842005676442767 $728 70.842005676442767 $675 $729 forward 7 unknown #
coedge $-1 $642 $620 $727 $730 reversed $626 $-1 #
vertex $-1 $677 $731 #
straight-curve $-1 70.842005676442767 -14.910133888872945 -6.0430834959334971 0 0 -1 I I #
straight-curve $-1 0 -29.634646321224668 -9.3778018350328729 1 0 0 I I #
vertex $-1 $636 $732 #
straight-curve $-1 0 -14.910133888872945 -9.3778018350328729 -1 0 0 I I #
point $-1 70.842005676442767 -29.634646321224668 -9.3778018350328729 #
point $-1 70.842005676442767 -14.910133888872945 -9.3778018350328729 #
coedge $-1 $733 $630 $642 $696 forward $640 $-1 #
coedge $-1 $630 $733 $632 $690 reversed $640 $-1 #
straight-curve $-1 0 29.634646321224668 14.794532148701116 -1 0 0 I I #
coedge $-1 $635 $632 $726 $734 reversed $415 $-1 #
edge $-1 $633 -14.794532148701116 $735 14.794532148701116 $687 $736 forward 7 unknown #
point $-1 -70.842005676442767 29.634646321224668 14.794532148701116 #
edge $-1 $728 -8.7514486527676176 $682 -3.3347183390993758 $635 $737 forward 7 unknown #
straight-curve $-1 -70.842005676442767 -11.136195052524403 -9.3778018350328729 0 -1 0 I I #
point $-1 -70.842005676442767 -29.634646321224668 -9.3778018350328729 #
plane-surface $-1 70.842005676442767 0 0 -1 0 0 0 0 1 forward_v I I I I #
edge $-1 $643 -14.794532148701116 $738 14.794532148701116 $642 $739 forward 7 unknown #
point $-1 70.842005676442767 29.634646321224668 14.794532148701116 #
straight-curve $-1 70.842005676442767 -29.634646321224668 0 0 0 -1 I I #
face $-1 $659 $740 $19 $-1 $741 reversed single #
loop $-1 $-1 $742 $647 #
plane-surface $-1 0 -29.634646321224668 0 0 1 0 0 0 1 forward_v I I I I #
coedge $-1 $743 $744 $745 $746 reversed $648 $-1 #
coedge $-1 $747 $650 $742 $748 reversed $578 $-1 #
coedge $-1 $650 $747 $743 $749 reversed $578 $-1 #
coedge $-1 $745 $750 $650 $706 forward $751 $-1 #
edge $-1 $752 -18.498451268700265 $753 -3.7739388363485418 $705 $754 forward 7 unknown #
coedge $-1 $651 $660 $755 $756 forward $502 $-1 #
coedge $-1 $757 $652 $651 $709 reversed $589 $-1 #
edge $-1 $758 -29.634646321224668 $654 -19.715655217854955 $708 $664 forward 7 unknown #
straight-curve $-1 -70.842005676442767 19.715655217854955 58.566817242236183 0 0 1 I I #
point $-1 -70.842005676442767 19.715655217854955 14.794532148701116 #
straight-curve $-1 -70.842005676442767 6.8738260923489189 2.5088622417812902 0 1 0 I I #
coedge $-1 $658 $759 $747 $760 forward $589 $-1 #
coedge $-1 $742 $661 $658 $715 forward $700 $-1 #
edge $-1 $663 -14.794532148701116 $761 9.3778018350328729 $658 $762 forward 7 unknown #
face $-1 $763 $764 $19 $-1 $765 reversed single #
plane-surface $-1 -70.842005676442767 0 0 1 0 0 0 0 -1 forward_v I I I I #
coedge $-1 $750 $766 $660 $719 reversed $751 $-1 #
edge $-1 $721 -29.634646321224668 $767 29.634646321224668 $718 $768 forward 7 unknown #
coedge $-1 $661 $742 $750 $769 reversed $700 $-1 #
vertex $-1 $719 $770 #
straight-curve $-1 0 -29.634646321224668 14.794532148701116 1 0 0 I I #
point $-1 -70.842005676442767 -29.634646321224668 14.794532148701116 #
point $-1 -70.842005676442767 19.715655217854955 2.5088622417812871 #
straight-curve $-1 0 29.634646321224668 -14.794532148701116 1 0 0 I I #
coedge $-1 $771 $675 $689 $734 forward $615 $-1 #
coedge $-1 $675 $771 $678 $730 forward $615 $-1 #
vertex $-1 $734 $772 #
straight-curve $-1 0 -14.910133888872945 -14.794532148701116 -1 0 0 I I #
edge $-1 $738 -29.634646321224668 $679 14.910133888872945 $678 $773 forward 7 unknown #
point $-1 70.842005676442767 -14.910133888872945 -14.794532148701116 #
point $-1 -70.842005676442767 -14.910133888872945 -9.3778018350328729 #
coedge $-1 $687 $686 $771 $774 reversed $640 $-1 #
edge $-1 $728 -14.910133888872945 $735 29.634646321224668 $689 $775 forward 7 unknown #
vertex $-1 $774 $776 #
straight-curve $-1 -70.842005676442767 29.634646321224668 0 0 0 -1 I I #
straight-curve $-1 -70.842005676442767 -14.910133888872945 -6.0430834959334971 0 0 1 I I #
vertex $-1 $730 $777 #
straight-curve $-1 70.842005676442767 29.634646321224668 0 0 0 -1 I I #
loop $-1 $-1 $778 $699 #
plane-surface $-1 0 0 -14.794532148701116 0 0 1 1 0 0 forward_v I I I I #
coedge $-1 $720 $714 $703 $748 forward $700 $-1 #
coedge $-1 $779 $702 $704 $749 forward $648 $-1 #
coedge $-1 $702 $779 $778 $780 reversed $648 $-1 #
coedge $-1 $781 $705 $702 $746 forward $751 $-1 #
edge $-1 $753 3.3347183390993758 $782 8.7514486527676176 $745 $783 forward 7 unknown #
coedge $-1 $704 $703 $713 $760 reversed $578 $-1 #
edge $-1 $761 -70.842005676442767 $752 70.842005676442767 $742 $784 forward 7 unknown #
edge $-1 $753 -70.842005676442767 $785 70.842005676442767 $743 $786 forward 7 unknown #
coedge $-1 $705 $718 $720 $769 forward $751 $-1 #
loop $-1 $-1 $745 $763 #
vertex $-1 $748 $787 #
vertex $-1 $706 $788 #
straight-curve $-1 70.842005676442767 -11.136195052524403 -9.3778018350328729 0 1 0 I I #
coedge $-1 $789 $790 $707 $756 reversed $764 $-1 #
edge $-1 $767 -70.842005676442767 $758 70.842005676442767 $755 $791 forward 7 unknown #
coedge $-1 $792 $708 $790 $793 forward $589 $-1 #
vertex $-1 $756 $794 #
coedge $-1 $713 $792 $779 $795 forward $589 $-1 #
edge $-1 $785 3.7739388363485418 $761 18.498451268700265 $713 $796 forward 7 unknown #
vertex $-1 $748 $797 #
straight-curve $-1 -70.842005676442767 -29.634646321224668 0 0 0 -1 I I #
face $-1 $-1 $751 $19 $-1 $798 reversed single #
loop $-1 $-1 $789 $716 #
plane-surface $-1 0 29.634646321224668 0 0 -1 0 0 0 -1 forward_v I I I I #
coedge $-1 $718 $781 $789 $799 reversed $751 $-1 #
vertex $-1 $719 $800 #
straight-curve $-1 70.842005676442767 0 14.794532148701116 0 1 0 I I #
edge $-1 $721 -14.794532148701116 $752 9.3778018350328729 $750 $801 forward 7 unknown #
point $-1 70.842005676442767 -29.634646321224668 14.794532148701116 #
coedge $-1 $727 $726 $733 $774 forward $615 $-1 #
point $-1 -70.842005676442767 -14.910133888872945 -14.794532148701116 #
straight-curve $-1 70.842005676442767 0 -14.794532148701116 0 -1 0 I I #
edge $-1 $735 -70.842005676442767 $738 70.842005676442767 $733 $802 forward 7 unknown #
straight-curve $-1 -70.842005676442767 0 -14.794532148701116 0 1 0 I I #
point $-1 -70.842005676442767 29.634646321224668 -14.794532148701116 #
point $-1 70.842005676442767 29.634646321224668 -14.794532148701116 #
coedge $-1 $803 $804 $744 $780 forward $740 $-1 #
coedge $-1 $744 $743 $759 $795 reversed $648 $-1 #
edge $-1 $782 -70.842005676442767 $805 70.842005676442767 $778 $806 forward 7 unknown #
coedge $-1 $766 $745 $804 $807 reversed $751 $-1 #
vertex $-1 $780 $808 #
straight-curve $-1 70.842005676442767 -14.910133888872945 -6.0430834959334971 0 0 -1 I I #
straight-curve $-1 0 -29.634646321224668 -9.3778018350328729 1 0 0 I I #
vertex $-1 $760 $809 #
straight-curve $-1 0 -14.910133888872945 -9.3778018350328729 -1 0 0 I I #
point $-1 70.842005676442767 -29.634646321224668 -9.3778018350328729 #
point $-1 70.842005676442767 -14.910133888872945 -9.3778018350328729 #
coedge $-1 $810 $755 $766 $799 forward $764 $-1 #
coedge $-1 $755 $810 $757 $793 reversed $764 $-1 #
straight-curve $-1 0 29.634646321224668 14.794532148701116 -1 0 0 I I #
coedge $-1 $759 $757 $803 $811 reversed $589 $-1 #
edge $-1 $758 -14.794532148701116 $812 14.794532148701116 $790 $813 forward 7 unknown #
point $-1 -70.842005676442767 29.634646321224668 14.794532148701116 #
edge $-1 $805 -8.7514486527676176 $785 -3.3347183390993758 $759 $814 forward 7 unknown #
straight-curve $-1 -70.842005676442767 -11.136195052524403 -9.3778018350328729 0 -1 0 I I #
point $-1 -70.842005676442767 -29.634646321224668 -9.3778018350328729 #
plane-surface $-1 70.842005676442767 0 0 -1 0 0 0 0 1 forward_v I I I I #
edge $-1 $767 -14.794532148701116 $815 14.794532148701116 $766 $816 forward 7 unknown #
point $-1 70.842005676442767 29.634646321224668 14.794532148701116 #
straight-curve $-1 70.842005676442767 -29.634646321224668 0 0 0 -1 I I #
straight-curve $-1 0 29.634646321224668 -14.794532148701116 1 0 0 I I #
coedge $-1 $817 $778 $792 $811 forward $740 $-1 #
coedge $-1 $778 $817 $781 $807 forward $740 $-1 #
vertex $-1 $811 $818 #
straight-curve $-1 0 -14.910133888872945 -14.794532148701116 -1 0 0 I I #
edge $-1 $815 -29.634646321224668 $782 14.910133888872945 $781 $819 forward 7 unknown #
point $-1 70.842005676442767 -14.910133888872945 -14.794532148701116 #
point $-1 -70.842005676442767 -14.910133888872945 -9.3778018350328729 #
coedge $-1 $790 $789 $817 $820 reversed $764 $-1 #
edge $-1 $805 -14.910133888872945 $812 29.634646321224668 $792 $821 forward 7 unknown #
vertex $-1 $820 $822 #
straight-curve $-1 -70.842005676442767 29.634646321224668 0 0 0 -1 I I #
straight-curve $-1 -70.842005676442767 -14.910133888872945 -6.0430834959334971 0 0 1 I I #
vertex $-1 $807 $823 #
straight-curve $-1 70.842005676442767 29.634646321224668 0 0 0 -1 I I #
coedge $-1 $804 $803 $810 $820 forward $740 $-1 #
point $-1 -70.842005676442767 -14.910133888872945 -14.794532148701116 #
straight-curve $-1 70.842005676442767 0 -14.794532148701116 0 -1 0 I I #
edge $-1 $812 -70.842005676442767 $815 70.842005676442767 $810 $824 forward 7 unknown #
straight-curve $-1 -70.842005676442767 0 -14.794532148701116 0 1 0 I I #
point $-1 -70.842005676442767 29.634646321224668 -14.794532148701116 #
point $-1 70.842005676442767 29.634646321224668 -14.794532148701116 #
straight-curve $-1 0 29.634646321224668 -14.794532148701116 1 0 0 I I #
End-of-ACIS-data 