500 0 9 0           
7 Unknown 11 ACIS 5.0 NT 24 Fri Mar 26 15:48:56 1999 
-1 9.9999999999999995e-007 1e-010 
body $-1 $9 $-1 $10 #
body $-1 $11 $-1 $12 #
body $-1 $13 $-1 $14 #
body $-1 $15 $-1 $16 #
body $-1 $17 $-1 $18 #
body $-1 $19 $-1 $20 #
body $-1 $21 $-1 $22 #
body $-1 $23 $-1 $24 #
body $-1 $25 $-1 $26 #
lump $-1 $-1 $27 $0 #
transform $-1 1 0 0 0 1 0 0 0 1 69.023102511673329 34.113847414953952 10.790311861409567 1 rotate no_reflect no_shear #
lump $-1 $-1 $28 $1 #
transform $-1 1 0 0 0 1 0 0 0 1 69.023102511673329 34.113847414953952 10.790311861409567 1 rotate no_reflect no_shear #
lump $-1 $-1 $29 $2 #
transform $-1 1 0 0 0 1 0 0 0 1 69.023102511673329 34.113847414953952 10.790311861409567 1 rotate no_reflect no_shear #
lump $-1 $-1 $30 $3 #
transform $-1 1 0 0 0 1 0 0 0 1 69.023102511673329 34.113847414953952 10.790311861409567 1 rotate no_reflect no_shear #
lump $-1 $-1 $31 $4 #
transform $-1 1 0 0 0 1 0 0 0 1 69.023102511673329 34.113847414953952 10.790311861409567 1 rotate no_reflect no_shear #
lump $-1 $-1 $32 $5 #
transform $-1 1 0 0 0 1 0 0 0 1 69.023102511673329 34.113847414953952 10.790311861409567 1 rotate no_reflect no_shear #
lump $-1 $-1 $33 $6 #
transform $-1 1 0 0 0 1 0 0 0 1 69.023102511673329 34.113847414953952 10.790311861409567 1 rotate no_reflect no_shear #
lump $-1 $-1 $34 $7 #
transform $-1 1 0 0 0 1 0 0 0 1 69.023102511673329 34.113847414953952 10.790311861409567 1 rotate no_reflect no_shear #
lump $-1 $-1 $35 $8 #
transform $-1 1 0 0 0 1 0 0 0 1 69.023102511673329 34.113847414953952 10.790311861409567 1 rotate no_reflect no_shear #
shell $-1 $-1 $-1 $36 $-1 $9 #
shell $-1 $-1 $-1 $37 $-1 $11 #
shell $-1 $-1 $-1 $38 $-1 $13 #
shell $-1 $-1 $-1 $39 $-1 $15 #
shell $-1 $-1 $-1 $40 $-1 $17 #
shell $-1 $-1 $-1 $41 $-1 $19 #
shell $-1 $-1 $-1 $42 $-1 $21 #
shell $-1 $-1 $-1 $43 $-1 $23 #
shell $-1 $-1 $-1 $44 $-1 $25 #
face $-1 $45 $46 $27 $-1 $47 reversed single #
face $-1 $48 $49 $28 $-1 $50 forward single #
face $-1 $51 $52 $29 $-1 $53 forward single #
face $-1 $54 $55 $30 $-1 $56 reversed single #
face $-1 $57 $58 $31 $-1 $59 forward single #
face $-1 $60 $61 $32 $-1 $62 forward single #
face $-1 $63 $64 $33 $-1 $65 reversed single #
face $-1 $66 $67 $34 $-1 $68 forward single #
face $-1 $69 $70 $35 $-1 $71 forward single #
face $-1 $72 $73 $27 $-1 $74 forward single #
loop $-1 $-1 $75 $36 #
plane-surface $-1 0 -34.113847414953952 0 0 1 0 0 0 1 forward_v I I I I #
face $-1 $76 $77 $28 $-1 $78 forward single #
loop $-1 $-1 $79 $37 #
plane-surface $-1 0 -34.113847414953952 0 0 1 0 0 0 1 forward_v I I I I #
face $-1 $80 $81 $29 $-1 $82 forward single #
loop $-1 $-1 $83 $38 #
plane-surface $-1 0 34.113847414953952 0 0 -1 0 0 0 -1 forward_v I I I I #
face $-1 $84 $85 $30 $-1 $86 reversed single #
loop $-1 $-1 $87 $39 #
plane-surface $-1 99.563307621552752 16.830901941542361 198.95930525784183 0 -1 0 -0.80901700255871778 0 -0.5877852410284794 forward_v I I I I #
face $-1 $88 $89 $31 $-1 $90 forward single #
loop $-1 $91 $92 $40 #
cone-surface $-1 66.832656858587768 8.5344623777257738 8.1001392314343423 -0.80901700255871778 0 -0.5877852410284794 0.5877852410284794 0 -0.80901700255871778 1 I I 0 1 1 forward I I I I #
face $-1 $93 $94 $32 $-1 $95 forward single #
loop $-1 $96 $97 $41 #
cone-surface $-1 66.832656858587768 13.512326116015728 8.1001392314343423 -0.80901700255871778 0 -0.5877852410284794 0.5877852410284794 0 -0.80901700255871778 1 I I 0 1 1 forward I I I I #
face $-1 $98 $99 $33 $-1 $100 reversed single #
loop $-1 $-1 $101 $42 #
plane-surface $-1 -161.39404449541846 -16.888341507948574 103.28159716735786 0 1 0 -0.66913061440640931 0 0.74314481823134659 forward_v I I I I #
face $-1 $102 $103 $34 $-1 $104 forward single #
loop $-1 $105 $106 $43 #
cone-surface $-1 -62.82864150352075 -14.752585829990789 5.0892937061256251 0.66913061440640931 0 -0.74314481823134659 0.3715724091156733 0 0.33456530720320465 1 I I 0 1 0.5 forward I I I I #
face $-1 $107 $108 $35 $-1 $109 forward single #
loop $-1 $110 $111 $44 #
cone-surface $-1 -62.82864150352075 -11.548952313054116 5.0892937061256251 0.66913061440640931 0 -0.74314481823134659 0.3715724091156733 0 0.33456530720320465 1 I I 0 1 0.5 forward I I I I #
face $-1 $112 $113 $27 $-1 $114 reversed single #
loop $-1 $-1 $115 $45 #
plane-surface $-1 0 0 10.790311861409567 0 0 1 1 0 0 forward_v I I I I #
coedge $-1 $116 $117 $118 $119 reversed $46 $-1 #
face $-1 $120 $121 $28 $-1 $122 reversed single #
loop $-1 $-1 $123 $48 #
plane-surface $-1 0 0 10.790311861409567 0 0 1 1 0 0 forward_v I I I I #
coedge $-1 $124 $125 $126 $127 forward $49 $-1 #
face $-1 $128 $129 $29 $-1 $130 reversed single #
loop $-1 $-1 $131 $51 #
plane-surface $-1 0 0 10.790311861409567 0 0 1 1 0 0 forward_v I I I I #
coedge $-1 $132 $133 $134 $135 forward $52 $-1 #
face $-1 $136 $137 $30 $-1 $138 reversed single #
loop $-1 $-1 $139 $54 #
plane-surface $-1 -12.118419381041377 11.023394246870751 117.81778336512714 0.80901700255871778 0 0.5877852410284794 0.5877852410284794 0 -0.80901700255871778 forward_v I I I I #
coedge $-1 $140 $141 $142 $143 reversed $55 $-1 #
face $-1 $-1 $144 $31 $-1 $145 forward single #
loop $-1 $146 $147 $57 #
cone-surface $-1 65.928459932787263 8.5344623777257738 7.4432017303831337 -0.80901700255871778 0 -0.5877852410284794 0.2938926205142397 0 -0.40450850127935889 1 I I -0.70710678118654746 0.70710678118654746 0.5 forward I I I I #
loop $-1 $-1 $148 $40 #
coedge $-1 $92 $92 $149 $150 reversed $58 $-1 #
face $-1 $-1 $151 $32 $-1 $152 forward single #
loop $-1 $153 $154 $60 #
cone-surface $-1 65.928459932787263 13.512326116015728 7.4432017303831337 -0.80901700255871778 0 -0.5877852410284794 0.2938926205142397 0 -0.40450850127935889 1 I I -0.70710678118654746 0.70710678118654746 0.5 forward I I I I #
loop $-1 $-1 $155 $41 #
coedge $-1 $97 $97 $156 $157 reversed $61 $-1 #
face $-1 $158 $159 $33 $-1 $160 reversed single #
loop $-1 $-1 $161 $63 #
plane-surface $-1 -69.023102511673358 -13.150769071522454 0.69327522775570571 -0.66913061440640931 0 0.74314481823134659 0.74314481823134659 0 0.66913061440640931 forward_v I I I I #
coedge $-1 $162 $163 $164 $165 reversed $64 $-1 #
face $-1 $-1 $166 $34 $-1 $167 forward single #
loop $-1 $168 $169 $66 #
cone-surface $-1 -62.073845343674265 -14.752585829990789 4.2510076631107925 0.66913061440640931 0 -0.74314481823134659 0.18578620455783665 0 0.16728265360160233 1 I I -0.70710678118654746 0.70710678118654746 0.25 forward I I I I #
loop $-1 $-1 $170 $43 #
coedge $-1 $106 $106 $171 $172 reversed $67 $-1 #
face $-1 $-1 $173 $35 $-1 $174 forward single #
loop $-1 $175 $176 $69 #
cone-surface $-1 -62.073845343674265 -11.548952313054116 4.2510076631107925 0.66913061440640931 0 -0.74314481823134659 0.18578620455783665 0 0.16728265360160233 1 I I -0.70710678118654746 0.70710678118654746 0.25 forward I I I I #
loop $-1 $-1 $177 $44 #
coedge $-1 $111 $111 $178 $179 reversed $70 $-1 #
face $-1 $180 $181 $27 $-1 $182 reversed single #
loop $-1 $-1 $183 $72 #
plane-surface $-1 0 0 -10.790311861409567 0 0 1 1 0 0 forward_v I I I I #
coedge $-1 $184 $185 $186 $187 forward $73 $-1 #
coedge $-1 $188 $75 $189 $190 reversed $46 $-1 #
coedge $-1 $75 $188 $191 $192 forward $46 $-1 #
coedge $-1 $193 $183 $75 $119 forward $113 $-1 #
edge $-1 $194 -69.023102511673329 $195 69.023102511673329 $75 $196 forward 7 unknown #
face $-1 $197 $198 $28 $-1 $199 reversed single #
loop $-1 $-1 $200 $76 #
plane-surface $-1 -69.023102511673329 0 0 1 0 0 0 0 -1 forward_v I I I I #
coedge $-1 $201 $202 $125 $203 forward $77 $-1 #
coedge $-1 $204 $79 $205 $206 reversed $49 $-1 #
coedge $-1 $79 $204 $123 $203 reversed $49 $-1 #
coedge $-1 $207 $208 $79 $127 reversed $209 $-1 #
edge $-1 $210 -10.790311861409567 $211 10.790311861409567 $126 $212 forward 7 unknown #
face $-1 $213 $214 $29 $-1 $215 reversed single #
loop $-1 $-1 $216 $80 #
plane-surface $-1 -66.27779189748793 47.182984097628136 0 0 -1 0 0 0 -1 forward_v I I I I #
coedge $-1 $217 $218 $132 $219 forward $81 $-1 #
coedge $-1 $220 $83 $131 $219 reversed $52 $-1 #
coedge $-1 $83 $220 $221 $222 reversed $52 $-1 #
coedge $-1 $223 $224 $83 $135 reversed $214 $-1 #
edge $-1 $225 -10.790311861409567 $226 10.790311861409567 $134 $227 forward 7 unknown #
face $-1 $228 $229 $30 $-1 $230 forward single #
loop $-1 $-1 $231 $84 #
plane-surface $-1 99.563307621552752 5.2158865521991409 198.95930525784183 0 1 0 0.80901700255871778 0 0.5877852410284794 forward_v I I I I #
coedge $-1 $232 $233 $234 $235 reversed $85 $-1 #
coedge $-1 $141 $87 $236 $237 reversed $55 $-1 #
coedge $-1 $87 $140 $232 $238 reversed $55 $-1 #
coedge $-1 $234 $239 $87 $143 forward $229 $-1 #
edge $-1 $240 -19.241448700896953 $241 -15.859934243768194 $142 $242 forward 7 unknown #
loop $-1 $-1 $149 $88 #
plane-surface $-1 -12.118419381041377 11.023394246870751 117.81778336512714 0.80901700255871778 0 0.5877852410284794 0.5877852410284794 0 -0.80901700255871778 forward_v I I I I #
loop $-1 $-1 $243 $57 #
coedge $-1 $147 $147 $148 $244 reversed $89 $-1 #
coedge $-1 $148 $148 $147 $244 forward $91 $-1 #
coedge $-1 $149 $149 $92 $150 forward $144 $-1 #
edge $-1 $245 0 $245 6.2831853071796004 $149 $246 forward 7 unknown #
loop $-1 $-1 $156 $93 #
plane-surface $-1 -12.118419381041377 11.023394246870751 117.81778336512714 0.80901700255871778 0 0.5877852410284794 0.5877852410284794 0 -0.80901700255871778 forward_v I I I I #
loop $-1 $-1 $247 $60 #
coedge $-1 $154 $154 $155 $248 reversed $94 $-1 #
coedge $-1 $155 $155 $154 $248 forward $96 $-1 #
coedge $-1 $156 $156 $97 $157 forward $151 $-1 #
edge $-1 $249 0 $249 6.2831853071796004 $156 $250 forward 7 unknown #
face $-1 $251 $252 $33 $-1 $253 reversed single #
loop $-1 $-1 $254 $98 #
plane-surface $-1 -161.39404449541846 -9.4131966350963356 103.28159716735786 0 -1 0 0.66913061440640931 0 -0.74314481823134659 forward_v I I I I #
coedge $-1 $255 $256 $257 $258 reversed $99 $-1 #
coedge $-1 $163 $101 $259 $260 reversed $64 $-1 #
coedge $-1 $101 $162 $255 $261 reversed $64 $-1 #
coedge $-1 $257 $262 $101 $165 forward $263 $-1 #
edge $-1 $264 11.673919736035899 $265 22.887814739851251 $164 $266 forward 7 unknown #
loop $-1 $-1 $171 $102 #
plane-surface $-1 -69.023102511673358 -13.150769071522454 0.69327522775570571 -0.66913061440640931 0 0.74314481823134659 0.74314481823134659 0 0.66913061440640931 forward_v I I I I #
loop $-1 $-1 $267 $66 #
coedge $-1 $169 $169 $170 $268 reversed $103 $-1 #
coedge $-1 $170 $170 $169 $268 forward $105 $-1 #
coedge $-1 $171 $171 $106 $172 forward $166 $-1 #
edge $-1 $269 0 $269 6.2831853071796004 $171 $270 forward 7 unknown #
loop $-1 $-1 $178 $107 #
plane-surface $-1 -69.023102511673358 -13.150769071522454 0.69327522775570571 -0.66913061440640931 0 0.74314481823134659 0.74314481823134659 0 0.66913061440640931 forward_v I I I I #
loop $-1 $-1 $271 $69 #
coedge $-1 $176 $176 $177 $272 reversed $108 $-1 #
coedge $-1 $177 $177 $176 $272 forward $110 $-1 #
coedge $-1 $178 $178 $111 $179 forward $173 $-1 #
edge $-1 $273 0 $273 6.2831853071796004 $178 $274 forward 7 unknown #
face $-1 $275 $276 $27 $-1 $277 reversed single #
loop $-1 $-1 $278 $112 #
plane-surface $-1 -69.023102511673329 0 0 1 0 0 0 0 -1 forward_v I I I I #
coedge $-1 $118 $279 $280 $281 forward $113 $-1 #
coedge $-1 $282 $115 $283 $284 forward $73 $-1 #
coedge $-1 $115 $282 $188 $285 forward $73 $-1 #
coedge $-1 $189 $286 $115 $187 reversed $287 $-1 #
edge $-1 $288 -34.113847414953952 $289 34.113847414953952 $186 $290 forward 7 unknown #
coedge $-1 $117 $116 $185 $285 reversed $46 $-1 #
coedge $-1 $280 $186 $116 $190 forward $287 $-1 #
edge $-1 $288 -10.790311861409567 $194 10.790311861409567 $189 $291 forward 7 unknown #
coedge $-1 $292 $293 $117 $192 reversed $181 $-1 #
edge $-1 $294 -10.790311861409567 $195 10.790311861409567 $191 $295 forward 7 unknown #
coedge $-1 $279 $118 $293 $296 forward $113 $-1 #
vertex $-1 $190 $297 #
vertex $-1 $296 $298 #
straight-curve $-1 0 -34.113847414953952 -10.790311861409567 -1 0 0 I I #
face $-1 $299 $209 $28 $-1 $300 reversed single #
loop $-1 $-1 $301 $120 #
plane-surface $-1 -66.27779189748793 -47.182984097628136 0 0 1 0 0 0 1 forward_v I I I I #
coedge $-1 $302 $303 $204 $304 forward $121 $-1 #
coedge $-1 $305 $123 $303 $306 forward $77 $-1 #
coedge $-1 $123 $305 $207 $307 forward $77 $-1 #
edge $-1 $210 63.532481283302523 $308 69.023102511673329 $123 $309 forward 7 unknown #
coedge $-1 $125 $124 $200 $304 reversed $49 $-1 #
coedge $-1 $310 $311 $124 $206 forward $312 $-1 #
edge $-1 $313 -69.023102511673329 $211 -63.532481283302523 $205 $314 forward 7 unknown #
coedge $-1 $315 $126 $202 $307 reversed $209 $-1 #
coedge $-1 $126 $315 $310 $316 reversed $209 $-1 #
loop $-1 $-1 $315 $197 #
vertex $-1 $203 $317 #
vertex $-1 $316 $318 #
straight-curve $-1 -63.532481283302523 -34.113847414953952 0 0 0 -1 I I #
face $-1 $319 $320 $29 $-1 $321 reversed single #
loop $-1 $-1 $134 $128 #
plane-surface $-1 -63.532481283302523 40.648415756291044 0 -1 0 0 0 0 1 forward_v I I I I #
coedge $-1 $322 $323 $324 $325 forward $129 $-1 #
coedge $-1 $326 $131 $224 $327 forward $81 $-1 #
coedge $-1 $131 $326 $328 $329 forward $81 $-1 #
edge $-1 $330 -69.023102511673329 $226 -63.532481283302523 $131 $331 forward 7 unknown #
coedge $-1 $133 $132 $332 $333 reversed $52 $-1 #
coedge $-1 $334 $335 $133 $222 forward $320 $-1 #
edge $-1 $225 63.532481283302523 $336 69.023102511673329 $221 $337 forward 7 unknown #
coedge $-1 $324 $134 $335 $338 reversed $214 $-1 #
coedge $-1 $134 $324 $217 $327 reversed $214 $-1 #
vertex $-1 $222 $339 #
vertex $-1 $327 $340 #
straight-curve $-1 -63.532481283302523 34.113847414953952 0 0 0 1 I I #
face $-1 $-1 $341 $30 $-1 $342 reversed single #
loop $-1 $-1 $142 $136 #
plane-surface $-1 0 0 10.790311861409567 0 0 1 1 0 0 forward_v I I I I #
coedge $-1 $343 $344 $345 $346 reversed $137 $-1 #
coedge $-1 $347 $139 $141 $238 forward $85 $-1 #
coedge $-1 $139 $347 $343 $348 forward $85 $-1 #
coedge $-1 $345 $142 $139 $235 forward $229 $-1 #
edge $-1 $241 -11.319204818106986 $349 0.29581057123623467 $234 $350 forward 7 unknown #
coedge $-1 $351 $352 $140 $237 forward $341 $-1 #
edge $-1 $353 -93.343596266387905 $240 -88.689340767511354 $236 $354 forward 7 unknown #
edge $-1 $241 132.29322890027842 $353 138.04620502334666 $141 $355 forward 7 unknown #
coedge $-1 $142 $345 $351 $356 forward $229 $-1 #
vertex $-1 $143 $357 #
vertex $-1 $143 $358 #
straight-curve $-1 49.781653810776376 16.830901941542361 10.790311861409563 -1 0 0 I I #
coedge $-1 $243 $243 $-1 $359 reversed $146 $-1 #
edge $-1 $360 0 $360 6.2831853071796004 $147 $361 forward 7 unknown #
vertex $-1 $150 $362 #
ellipse-curve $-1 67.332345283108936 8.5344623777257738 8.4631841119713176 0.80901700255871778 0 0.5877852410284794 0.5877852410284794 0 -0.80901700255871778 1 I I #
coedge $-1 $247 $247 $-1 $363 reversed $153 $-1 #
edge $-1 $364 0 $364 6.2831853071796004 $154 $365 forward 7 unknown #
vertex $-1 $157 $366 #
ellipse-curve $-1 67.332345283108936 13.512326116015728 8.4631841119713176 0.80901700255871778 0 0.5877852410284794 0.5877852410284794 0 -0.80901700255871778 1 I I #
face $-1 $-1 $263 $33 $-1 $367 forward single #
loop $-1 $-1 $368 $158 #
plane-surface $-1 -69.023102511673329 0 0 1 0 0 0 0 -1 forward_v I I I I #
coedge $-1 $369 $370 $371 $372 reversed $159 $-1 #
coedge $-1 $373 $161 $163 $261 forward $99 $-1 #
coedge $-1 $161 $373 $369 $374 forward $99 $-1 #
coedge $-1 $371 $164 $161 $258 forward $263 $-1 #
edge $-1 $265 -10.312956972187347 $375 -2.8378120993351086 $257 $376 forward 7 unknown #
coedge $-1 $377 $378 $162 $260 forward $252 $-1 #
edge $-1 $379 -50.947523355923195 $264 -40.850486722269366 $259 $380 forward 7 unknown #
edge $-1 $265 -15.089784290636619 $379 -3.8282071445639473e-014 $163 $381 forward 7 unknown #
coedge $-1 $164 $371 $377 $382 forward $263 $-1 #
loop $-1 $-1 $371 $251 #
vertex $-1 $260 $383 #
vertex $-1 $165 $384 #
straight-curve $-1 -80.697022247709228 -16.888341507948574 10.79031186140957 1 0 0 I I #
coedge $-1 $267 $267 $-1 $385 reversed $168 $-1 #
edge $-1 $386 0 $386 6.2831853071796004 $169 $387 forward 7 unknown #
vertex $-1 $172 $388 #
ellipse-curve $-1 -63.416155009765653 -14.752585829990789 5.7417935445826487 -0.66913061440640931 0 0.74314481823134659 0.3715724091156733 0 0.33456530720320465 1 I I #
coedge $-1 $271 $271 $-1 $389 reversed $175 $-1 #
edge $-1 $390 0 $390 6.2831853071796004 $176 $391 forward 7 unknown #
vertex $-1 $179 $392 #
ellipse-curve $-1 -63.416155009765653 -11.548952313054116 5.7417935445826487 -0.66913061440640931 0 0.74314481823134659 0.3715724091156733 0 0.33456530720320465 1 I I #
face $-1 $-1 $287 $27 $-1 $393 reversed single #
loop $-1 $-1 $283 $180 #
plane-surface $-1 0 34.113847414953952 0 0 -1 0 0 0 -1 forward_v I I I I #
coedge $-1 $293 $292 $394 $395 forward $181 $-1 #
coedge $-1 $183 $193 $396 $397 forward $113 $-1 #
coedge $-1 $286 $189 $183 $281 reversed $287 $-1 #
edge $-1 $398 -34.113847414953952 $194 34.113847414953952 $280 $399 forward 7 unknown #
coedge $-1 $185 $184 $292 $400 forward $73 $-1 #
coedge $-1 $401 $394 $184 $284 reversed $276 $-1 #
edge $-1 $289 -69.023102511673329 $402 69.023102511673329 $283 $403 forward 7 unknown #
edge $-1 $294 -69.023102511673329 $288 69.023102511673329 $188 $404 forward 7 unknown #
coedge $-1 $186 $280 $401 $405 reversed $287 $-1 #
loop $-1 $-1 $189 $275 #
vertex $-1 $187 $406 #
vertex $-1 $187 $407 #
straight-curve $-1 69.023102511673329 0 10.790311861409567 0 1 0 I I #
straight-curve $-1 69.023102511673329 -34.113847414953952 0 0 0 -1 I I #
coedge $-1 $278 $191 $282 $400 reversed $181 $-1 #
coedge $-1 $191 $278 $193 $296 reversed $181 $-1 #
vertex $-1 $400 $408 #
straight-curve $-1 -69.023102511673329 -34.113847414953952 0 0 0 -1 I I #
edge $-1 $195 -34.113847414953952 $409 34.113847414953952 $293 $410 forward 7 unknown #
point $-1 69.023102511673329 -34.113847414953952 -10.790311861409567 #
point $-1 -69.023102511673329 -34.113847414953952 -10.790311861409567 #
face $-1 $-1 $312 $28 $-1 $411 reversed single #
plane-surface $-1 -63.532481283302523 -40.648415756291044 0 -1 0 0 0 0 1 forward_v I I I I #
coedge $-1 $412 $413 $414 $415 forward $198 $-1 #
coedge $-1 $414 $200 $311 $416 reversed $121 $-1 #
coedge $-1 $200 $414 $201 $306 reversed $121 $-1 #
edge $-1 $308 -10.790311861409567 $313 10.790311861409567 $200 $417 forward 7 unknown #
coedge $-1 $202 $201 $413 $418 forward $77 $-1 #
edge $-1 $308 34.113847414953952 $419 47.182984097628136 $303 $420 forward 7 unknown #
edge $-1 $421 -6.5345683413370921 $210 6.5345683413370921 $207 $422 forward 7 unknown #
vertex $-1 $306 $423 #
straight-curve $-1 0 -34.113847414953952 10.790311861409567 -1 0 0 I I #
coedge $-1 $424 $205 $208 $316 forward $312 $-1 #
coedge $-1 $205 $424 $302 $416 forward $312 $-1 #
loop $-1 $-1 $205 $299 #
vertex $-1 $304 $425 #
straight-curve $-1 0 -34.113847414953952 -10.790311861409567 1 0 0 I I #
coedge $-1 $208 $207 $426 $427 forward $209 $-1 #
edge $-1 $211 -6.5345683413370921 $428 6.5345683413370921 $208 $429 forward 7 unknown #
point $-1 -63.532481283302523 -34.113847414953952 10.790311861409567 #
point $-1 -63.532481283302523 -34.113847414953952 -10.790311861409567 #
face $-1 $-1 $430 $29 $-1 $431 reversed single #
loop $-1 $-1 $221 $213 #
plane-surface $-1 0 0 -10.790311861409567 0 0 1 1 0 0 forward_v I I I I #
coedge $-1 $432 $216 $433 $434 reversed $129 $-1 #
coedge $-1 $216 $432 $326 $435 reversed $129 $-1 #
coedge $-1 $224 $223 $216 $325 reversed $214 $-1 #
edge $-1 $436 -10.790311861409567 $437 10.790311861409567 $324 $438 forward 7 unknown #
coedge $-1 $218 $217 $323 $435 forward $81 $-1 #
edge $-1 $226 -6.5345683413370921 $436 6.5345683413370921 $224 $439 forward 7 unknown #
coedge $-1 $440 $332 $218 $329 reversed $430 $-1 #
edge $-1 $441 -47.182984097628136 $330 -34.113847414953952 $328 $442 forward 7 unknown #
vertex $-1 $333 $443 #
straight-curve $-1 0 34.113847414953952 10.790311861409567 1 0 0 I I #
coedge $-1 $328 $444 $220 $333 forward $430 $-1 #
edge $-1 $336 -10.790311861409567 $330 10.790311861409567 $332 $445 forward 7 unknown #
coedge $-1 $433 $221 $444 $446 forward $320 $-1 #
coedge $-1 $221 $433 $223 $338 forward $320 $-1 #
vertex $-1 $446 $447 #
straight-curve $-1 0 34.113847414953952 -10.790311861409567 -1 0 0 I I #
edge $-1 $437 -6.5345683413370921 $225 6.5345683413370921 $223 $448 forward 7 unknown #
point $-1 -63.532481283302523 34.113847414953952 -10.790311861409567 #
point $-1 -63.532481283302523 34.113847414953952 10.790311861409567 #
loop $-1 $-1 $236 $228 #
plane-surface $-1 69.023102511673329 0 0 -1 0 0 0 0 1 forward_v I I I I #
coedge $-1 $344 $231 $233 $348 reversed $137 $-1 #
coedge $-1 $231 $343 $449 $450 reversed $137 $-1 #
coedge $-1 $239 $234 $231 $346 forward $229 $-1 #
edge $-1 $349 15.859934243768194 $451 19.241448700896953 $345 $452 forward 7 unknown #
coedge $-1 $233 $232 $352 $453 reversed $85 $-1 #
edge $-1 $454 -138.04620502334666 $349 -132.29322890027842 $343 $455 forward 7 unknown #
vertex $-1 $235 $456 #
straight-curve $-1 65.64158805454457 5.5116971234353755 10.790311861409563 0 -1 0 I I #
coedge $-1 $449 $236 $239 $356 reversed $341 $-1 #
coedge $-1 $236 $449 $347 $453 forward $341 $-1 #
vertex $-1 $237 $457 #
straight-curve $-1 69.023102511673329 16.830901941542361 99.479652628920917 0 0 1 I I #
straight-curve $-1 -12.118419381041377 16.830901941542361 117.81778336512714 0.5877852410284794 0 -0.80901700255871778 I I #
edge $-1 $451 5.2158865521991409 $240 16.830901941542361 $351 $458 forward 7 unknown #
point $-1 69.023102511673329 16.830901941542361 10.790311861409567 #
point $-1 65.64158805454457 16.830901941542361 10.790311861409563 #
edge $-1 $459 1 $459 0 $243 $-1 forward 7 unknown #
vertex $-1 $244 $460 #
ellipse-curve $-1 66.332968434066615 8.5344623777257738 7.7370943508973733 0.80901700255871778 0 0.5877852410284794 0.5877852410284794 0 -0.80901700255871778 1 I I #
point $-1 67.920130524137406 8.5344623777257738 7.6541671094125947 #
edge $-1 $461 1 $461 0 $247 $-1 forward 7 unknown #
vertex $-1 $248 $462 #
ellipse-curve $-1 66.332968434066615 13.512326116015728 7.7370943508973733 0.80901700255871778 0 0.5877852410284794 0.5877852410284794 0 -0.80901700255871778 1 I I #
point $-1 67.920130524137406 13.512326116015728 7.6541671094125947 #
plane-surface $-1 0 0 10.790311861409567 0 0 1 1 0 0 forward_v I I I I #
coedge $-1 $378 $377 $370 $463 forward $252 $-1 #
coedge $-1 $370 $254 $256 $374 reversed $159 $-1 #
coedge $-1 $254 $369 $368 $463 reversed $159 $-1 #
coedge $-1 $262 $257 $254 $372 forward $263 $-1 #
edge $-1 $375 -22.887814739851251 $464 -11.673919736035899 $371 $465 forward 7 unknown #
coedge $-1 $256 $255 $378 $466 reversed $99 $-1 #
edge $-1 $467 3.8282071445639473e-014 $375 15.089784290636619 $369 $468 forward 7 unknown #
vertex $-1 $258 $469 #
straight-curve $-1 -57.809207507857984 -6.5753845357612271 10.790311861409567 0 1 0 I I #
coedge $-1 $368 $259 $262 $382 reversed $252 $-1 #
coedge $-1 $259 $368 $373 $466 forward $252 $-1 #
vertex $-1 $260 $470 #
straight-curve $-1 -69.023102511673329 -16.888341507948574 51.640798583678929 0 0 1 I I #
straight-curve $-1 -69.023102511673358 -16.888341507948574 0.69327522775570571 -0.74314481823134659 0 -0.66913061440640931 I I #
edge $-1 $464 9.4131966350963356 $264 16.888341507948574 $377 $471 forward 7 unknown #
point $-1 -69.023102511673329 -16.888341507948574 10.790311861409567 #
point $-1 -57.809207507857977 -16.888341507948574 10.790311861409567 #
edge $-1 $472 1 $472 0 $267 $-1 forward 7 unknown #
vertex $-1 $268 $473 #
ellipse-curve $-1 -62.241127997275868 -14.752585829990789 4.4367938676686292 -0.66913061440640931 0 0.74314481823134659 0.3715724091156733 0 0.33456530720320465 1 I I #
point $-1 -63.044582600649953 -14.752585829990789 6.0763588517858267 #
edge $-1 $474 1 $474 0 $271 $-1 forward 7 unknown #
vertex $-1 $272 $475 #
ellipse-curve $-1 -62.241127997275868 -11.548952313054116 4.4367938676686292 -0.66913061440640931 0 0.74314481823134659 0.3715724091156733 0 0.33456530720320465 1 I I #
point $-1 -63.044582600649953 -11.548952313054116 6.0763588517858267 #
plane-surface $-1 69.023102511673329 0 0 -1 0 0 0 0 1 forward_v I I I I #
coedge $-1 $283 $396 $278 $395 reversed $276 $-1 #
edge $-1 $402 -10.790311861409567 $409 10.790311861409567 $394 $476 forward 7 unknown #
coedge $-1 $394 $401 $279 $397 reversed $276 $-1 #
edge $-1 $409 -69.023102511673329 $398 69.023102511673329 $396 $477 forward 7 unknown #
vertex $-1 $281 $478 #
straight-curve $-1 69.023102511673329 0 -10.790311861409567 0 -1 0 I I #
edge $-1 $402 -34.113847414953952 $294 34.113847414953952 $292 $479 forward 7 unknown #
coedge $-1 $396 $283 $286 $405 forward $276 $-1 #
vertex $-1 $284 $480 #
straight-curve $-1 0 34.113847414953952 10.790311861409567 -1 0 0 I I #
straight-curve $-1 0 -34.113847414953952 10.790311861409567 1 0 0 I I #
edge $-1 $289 -10.790311861409567 $398 10.790311861409567 $286 $481 forward 7 unknown #
point $-1 69.023102511673329 -34.113847414953952 10.790311861409567 #
point $-1 69.023102511673329 34.113847414953952 10.790311861409567 #
point $-1 -69.023102511673329 -34.113847414953952 10.790311861409567 #
vertex $-1 $397 $482 #
straight-curve $-1 -69.023102511673329 0 -10.790311861409567 0 1 0 I I #
plane-surface $-1 0 0 -10.790311861409567 0 0 1 1 0 0 forward_v I I I I #
coedge $-1 $426 $301 $424 $483 reversed $198 $-1 #
coedge $-1 $301 $426 $305 $418 reversed $198 $-1 #
coedge $-1 $303 $302 $301 $415 reversed $121 $-1 #
edge $-1 $419 -10.790311861409567 $484 10.790311861409567 $414 $485 forward 7 unknown #
edge $-1 $484 -47.182984097628136 $313 -34.113847414953952 $302 $486 forward 7 unknown #
straight-curve $-1 -69.023102511673329 -34.113847414953952 0 0 0 -1 I I #
edge $-1 $419 -2.7453106141853993 $421 2.7453106141854065 $413 $487 forward 7 unknown #
vertex $-1 $306 $488 #
straight-curve $-1 -69.023102511673329 0 10.790311861409567 0 -1 0 I I #
vertex $-1 $307 $489 #
straight-curve $-1 -63.532481283302523 -40.648415756291044 10.790311861409567 0 1 0 I I #
point $-1 -69.023102511673329 -34.113847414953952 10.790311861409567 #
coedge $-1 $311 $310 $412 $483 forward $312 $-1 #
point $-1 -69.023102511673329 -34.113847414953952 -10.790311861409567 #
coedge $-1 $413 $412 $315 $427 reversed $198 $-1 #
edge $-1 $421 -10.790311861409567 $428 10.790311861409567 $315 $490 forward 7 unknown #
vertex $-1 $427 $491 #
straight-curve $-1 -63.532481283302523 -40.648415756291044 -10.790311861409567 0 -1 0 I I #
loop $-1 $-1 $332 $319 #
plane-surface $-1 -69.023102511673329 0 0 1 0 0 0 0 -1 forward_v I I I I #
coedge $-1 $323 $322 $440 $492 reversed $129 $-1 #
coedge $-1 $335 $334 $322 $434 forward $320 $-1 #
edge $-1 $493 -2.7453106141853993 $437 2.7453106141854065 $322 $494 forward 7 unknown #
edge $-1 $436 -2.7453106141854065 $441 2.7453106141853993 $323 $495 forward 7 unknown #
vertex $-1 $327 $496 #
vertex $-1 $338 $497 #
straight-curve $-1 -63.532481283302523 47.182984097628136 0 0 0 -1 I I #
straight-curve $-1 -63.532481283302523 40.648415756291044 10.790311861409567 0 1 0 I I #
coedge $-1 $444 $328 $432 $492 forward $430 $-1 #
vertex $-1 $435 $498 #
straight-curve $-1 -69.023102511673329 0 10.790311861409567 0 -1 0 I I #
point $-1 -69.023102511673329 34.113847414953952 10.790311861409567 #
coedge $-1 $332 $440 $334 $446 reversed $430 $-1 #
straight-curve $-1 -69.023102511673329 34.113847414953952 0 0 0 1 I I #
edge $-1 $336 -6.5345683413370921 $493 6.5345683413370921 $444 $499 forward 7 unknown #
point $-1 -69.023102511673329 34.113847414953952 -10.790311861409567 #
straight-curve $-1 -63.532481283302523 40.648415756291044 -10.790311861409567 0 -1 0 I I #
coedge $-1 $352 $351 $344 $450 forward $341 $-1 #
edge $-1 $451 88.689340767511354 $454 93.343596266387905 $449 $500 forward 7 unknown #
vertex $-1 $356 $501 #
straight-curve $-1 49.781653810776376 5.2158865521991409 10.790311861409563 1 0 0 I I #
edge $-1 $454 -0.29581057123623467 $353 11.319204818106986 $352 $502 forward 7 unknown #
vertex $-1 $453 $503 #
straight-curve $-1 -12.118419381041377 5.2158865521991409 117.81778336512714 -0.5877852410284794 0 0.80901700255871778 I I #
point $-1 65.64158805454457 5.2158865521991409 10.790311861409563 #
point $-1 69.023102511673315 16.830901941542361 6.1360563625330116 #
straight-curve $-1 69.023102511673329 0 10.790311861409567 0 1 0 I I #
vertex $-1 $359 $504 #
point $-1 66.920753675095099 8.5344623777257738 6.9280773483386557 #
vertex $-1 $363 $505 #
point $-1 66.920753675095099 13.512326116015728 6.9280773483386557 #
edge $-1 $464 40.850486722269366 $467 50.947523355923195 $368 $506 forward 7 unknown #
vertex $-1 $382 $507 #
straight-curve $-1 -80.697022247709228 -9.4131966350963356 10.79031186140957 -1 0 0 I I #
edge $-1 $467 2.8378120993351086 $379 10.312956972187347 $378 $508 forward 7 unknown #
vertex $-1 $466 $509 #
straight-curve $-1 -69.023102511673358 -9.4131966350963356 0.69327522775570571 0.74314481823134659 0 0.66913061440640931 I I #
point $-1 -57.809207507857977 -9.4131966350963356 10.790311861409567 #
point $-1 -69.023102511673329 -16.888341507948574 0.69327522775573136 #
straight-curve $-1 -69.023102511673329 0 10.790311861409567 0 -1 0 I I #
vertex $-1 $385 $510 #
point $-1 -61.869555588160196 -14.752585829990789 4.7713591748718338 #
vertex $-1 $389 $511 #
point $-1 -61.869555588160196 -11.548952313054116 4.7713591748718338 #
straight-curve $-1 -69.023102511673329 34.113847414953952 0 0 0 -1 I I #
straight-curve $-1 0 34.113847414953952 -10.790311861409567 1 0 0 I I #
point $-1 69.023102511673329 34.113847414953952 -10.790311861409567 #
straight-curve $-1 -69.023102511673329 0 10.790311861409567 0 -1 0 I I #
point $-1 -69.023102511673329 34.113847414953952 10.790311861409567 #
straight-curve $-1 69.023102511673329 34.113847414953952 0 0 0 -1 I I #
point $-1 -69.023102511673329 34.113847414953952 -10.790311861409567 #
edge $-1 $428 -2.7453106141854065 $484 2.7453106141853993 $412 $512 forward 7 unknown #
vertex $-1 $416 $513 #
straight-curve $-1 -69.023102511673329 -47.182984097628136 0 0 0 -1 I I #
straight-curve $-1 -69.023102511673329 0 -10.790311861409567 0 1 0 I I #
straight-curve $-1 -66.27779189748793 -47.182984097628136 10.790311861409567 1 0 0 I I #
point $-1 -69.023102511673329 -47.182984097628136 10.790311861409567 #
point $-1 -63.532481283302523 -47.182984097628136 10.790311861409567 #
straight-curve $-1 -63.532481283302523 -47.182984097628136 0 0 0 -1 I I #
point $-1 -63.532481283302523 -47.182984097628136 -10.790311861409567 #
edge $-1 $441 -10.790311861409567 $493 10.790311861409567 $432 $514 forward 7 unknown #
vertex $-1 $434 $515 #
straight-curve $-1 -66.27779189748793 47.182984097628136 -10.790311861409567 1 0 0 I I #
straight-curve $-1 -66.27779189748793 47.182984097628136 10.790311861409567 -1 0 0 I I #
point $-1 -63.532481283302523 47.182984097628136 10.790311861409567 #
point $-1 -63.532481283302523 47.182984097628136 -10.790311861409567 #
point $-1 -69.023102511673329 47.182984097628136 10.790311861409567 #
straight-curve $-1 -69.023102511673329 40.648415756291044 -10.790311861409567 0 1 0 I I #
straight-curve $-1 69.023102511673329 5.2158865521991409 99.479652628920917 0 0 -1 I I #
point $-1 69.023102511673329 5.2158865521991409 10.790311861409567 #
straight-curve $-1 69.023102511673329 5.5116971234353755 6.1360563625330045 0 1 0 I I #
point $-1 69.023102511673315 5.2158865521991409 6.1360563625330116 #
point $-1 65.523951431507911 8.5344623777257738 7.1493091098688941 #
point $-1 65.523951431507911 13.512326116015728 7.1493091098688941 #
straight-curve $-1 -69.023102511673329 -9.4131966350963356 51.640798583678929 0 0 -1 I I #
point $-1 -69.023102511673329 -9.4131966350963356 10.790311861409567 #
straight-curve $-1 -69.023102511673329 -6.5753845357612271 0.69327522775573158 0 -1 0 I I #
point $-1 -69.023102511673329 -9.4131966350963356 0.69327522775573136 #
point $-1 -61.906562690072661 -14.752585829990789 4.0652214585529558 #
point $-1 -61.906562690072661 -11.548952313054116 4.0652214585529558 #
straight-curve $-1 -66.27779189748793 -47.182984097628136 -10.790311861409567 -1 0 0 I I #
point $-1 -69.023102511673329 -47.182984097628136 -10.790311861409567 #
straight-curve $-1 -69.023102511673329 47.182984097628136 0 0 0 -1 I I #
point $-1 -69.023102511673329 47.182984097628136 -10.790311861409567 #
End-of-ACIS-data 