500 0 8 0           
7 Unknown 11 ACIS 5.0 NT 24 Thu Mar 25 20:44:16 1999 
-1 9.9999999999999995e-007 1e-010 
body $-1 $8 $-1 $9 #
body $-1 $10 $-1 $11 #
body $-1 $12 $-1 $13 #
body $-1 $14 $-1 $15 #
body $-1 $16 $-1 $17 #
body $-1 $18 $-1 $19 #
body $-1 $20 $-1 $21 #
body $-1 $22 $-1 $23 #
lump $-1 $-1 $24 $0 #
transform $-1 1 0 0 0 1 0 0 0 1 66.366771446882538 44.83377501875708 21.432561274187833 1 rotate no_reflect no_shear #
lump $-1 $-1 $25 $1 #
transform $-1 1 0 0 0 1 0 0 0 1 66.366771446882538 44.83377501875708 21.432561274187833 1 rotate no_reflect no_shear #
lump $-1 $-1 $26 $2 #
transform $-1 1 0 0 0 1 0 0 0 1 66.366771446882538 44.83377501875708 21.432561274187833 1 rotate no_reflect no_shear #
lump $-1 $-1 $27 $3 #
transform $-1 1 0 0 0 1 0 0 0 1 66.366771446882538 44.83377501875708 21.432561274187833 1 rotate no_reflect no_shear #
lump $-1 $-1 $28 $4 #
transform $-1 1 0 0 0 1 0 0 0 1 66.366771446882538 44.83377501875708 21.432561274187833 1 rotate no_reflect no_shear #
lump $-1 $-1 $29 $5 #
transform $-1 1 0 0 0 1 0 0 0 1 66.366771446882538 44.83377501875708 21.432561274187833 1 rotate no_reflect no_shear #
lump $-1 $-1 $30 $6 #
transform $-1 1 0 0 0 1 0 0 0 1 66.366771446882538 44.83377501875708 21.432561274187833 1 rotate no_reflect no_shear #
lump $-1 $-1 $31 $7 #
transform $-1 1 0 0 0 1 0 0 0 1 66.366771446882538 44.83377501875708 21.432561274187833 1 rotate no_reflect no_shear #
shell $-1 $-1 $-1 $32 $-1 $8 #
shell $-1 $-1 $-1 $33 $-1 $10 #
shell $-1 $-1 $-1 $34 $-1 $12 #
shell $-1 $-1 $-1 $35 $-1 $14 #
shell $-1 $-1 $-1 $36 $-1 $16 #
shell $-1 $-1 $-1 $37 $-1 $18 #
shell $-1 $-1 $-1 $38 $-1 $20 #
shell $-1 $-1 $-1 $39 $-1 $22 #
face $-1 $40 $41 $24 $-1 $42 forward single #
face $-1 $43 $44 $25 $-1 $45 forward single #
face $-1 $46 $47 $26 $-1 $48 reversed single #
face $-1 $49 $50 $27 $-1 $51 forward single #
face $-1 $52 $53 $28 $-1 $54 forward single #
face $-1 $55 $56 $29 $-1 $57 reversed single #
face $-1 $58 $59 $30 $-1 $60 forward single #
face $-1 $61 $62 $31 $-1 $63 forward single #
face $-1 $64 $65 $24 $-1 $66 reversed single #
loop $-1 $-1 $67 $32 #
plane-surface $-1 0 0 21.432561274187833 0 0 1 1 0 0 forward_v I I I I #
face $-1 $68 $69 $25 $-1 $70 reversed single #
loop $-1 $-1 $71 $33 #
plane-surface $-1 -66.366771446882538 0 0 1 0 0 0 0 -1 forward_v I I I I #
face $-1 $72 $73 $26 $-1 $74 reversed single #
loop $-1 $-1 $75 $34 #
plane-surface $-1 -32.160404449674623 96.876219116471987 168.91272857893816 1 0 0 0 -0.79863551827123203 -0.60181501223851219 forward_v I I I I #
face $-1 $76 $77 $27 $-1 $78 forward single #
loop $-1 $79 $80 $35 #
cone-surface $-1 -24.428972816495261 42.905615947116836 19.11256226998194 0 -0.79863551827123203 -0.60181501223851219 1 0 0 1 I I 0 1 1 forward I I I I #
face $-1 $81 $82 $28 $-1 $83 forward single #
loop $-1 $84 $85 $36 #
cone-surface $-1 -12.831825366726214 42.905615947116836 19.11256226998194 0 -0.79863551827123203 -0.60181501223851219 1 0 0 1 I I 0 1 1 forward I I I I #
face $-1 $86 $87 $29 $-1 $88 reversed single #
loop $-1 $-1 $89 $37 #
plane-surface $-1 -5.100393733546845 -150.83949683969598 97.301038282616389 -1 0 0 0 -0.79863551827123203 0.60181501223851219 forward_v I I I I #
face $-1 $90 $91 $30 $-1 $92 forward single #
loop $-1 $93 $94 $38 #
cone-surface $-1 -24.428972816495261 -42.905615947116843 19.112562269981925 0 0.79863551827123203 -0.60181501223851219 1 0 0 1 I I 0 1 1 forward I I I I #
face $-1 $95 $96 $31 $-1 $97 forward single #
loop $-1 $98 $99 $39 #
cone-surface $-1 -12.831825366726214 -42.905615947116843 19.112562269981925 0 0.79863551827123203 -0.60181501223851219 1 0 0 1 I I 0 1 1 forward I I I I #
face $-1 $100 $101 $24 $-1 $102 reversed single #
loop $-1 $-1 $103 $40 #
plane-surface $-1 0 0 -21.432561274187833 0 0 1 1 0 0 forward_v I I I I #
coedge $-1 $104 $105 $106 $107 forward $41 $-1 #
face $-1 $108 $109 $25 $-1 $110 forward single #
loop $-1 $-1 $111 $43 #
plane-surface $-1 0 44.83377501875708 0 0 -1 0 0 0 -1 forward_v I I I I #
coedge $-1 $112 $113 $114 $115 forward $44 $-1 #
face $-1 $116 $117 $26 $-1 $118 reversed single #
loop $-1 $-1 $119 $46 #
plane-surface $-1 -18.630399091610734 -9.1295027044668871 89.031689837865841 0 0.79863551827123203 0.60181501223851219 1 0 0 forward_v I I I I #
coedge $-1 $120 $121 $122 $123 reversed $47 $-1 #
face $-1 $-1 $124 $27 $-1 $125 forward single #
loop $-1 $126 $127 $49 #
cone-surface $-1 -24.428972816495261 42.089980145817123 18.497936625978653 0 -0.79863551827123203 -0.60181501223851219 0.5 0 0 1 I I -0.70710678118654746 0.70710678118654746 0.5 forward I I I I #
loop $-1 $-1 $128 $35 #
coedge $-1 $80 $80 $129 $130 reversed $50 $-1 #
face $-1 $-1 $131 $28 $-1 $132 forward single #
loop $-1 $133 $134 $52 #
cone-surface $-1 -12.831825366726214 42.089980145817123 18.497936625978653 0 -0.79863551827123203 -0.60181501223851219 0.5 0 0 1 I I -0.70710678118654746 0.70710678118654746 0.5 forward I I I I #
loop $-1 $-1 $135 $36 #
coedge $-1 $85 $85 $136 $137 reversed $53 $-1 #
face $-1 $138 $139 $29 $-1 $140 reversed single #
loop $-1 $-1 $141 $55 #
plane-surface $-1 -18.630399091610734 -44.833775018757109 17.419999541544072 0 -0.79863551827123203 0.60181501223851219 1 0 0 forward_v I I I I #
coedge $-1 $142 $143 $144 $145 reversed $56 $-1 #
face $-1 $-1 $146 $30 $-1 $147 forward single #
loop $-1 $148 $149 $58 #
cone-surface $-1 -24.428972816495261 -42.08998014581713 18.497936625978639 0 0.79863551827123203 -0.60181501223851219 0.5 0 0 1 I I -0.70710678118654746 0.70710678118654746 0.5 forward I I I I #
loop $-1 $-1 $150 $38 #
coedge $-1 $94 $94 $151 $152 reversed $59 $-1 #
face $-1 $-1 $153 $31 $-1 $154 forward single #
loop $-1 $155 $156 $61 #
cone-surface $-1 -12.831825366726214 -42.08998014581713 18.497936625978639 0 0.79863551827123203 -0.60181501223851219 0.5 0 0 1 I I -0.70710678118654746 0.70710678118654746 0.5 forward I I I I #
loop $-1 $-1 $157 $39 #
coedge $-1 $99 $99 $158 $159 reversed $62 $-1 #
face $-1 $160 $161 $24 $-1 $162 reversed single #
loop $-1 $-1 $163 $64 #
plane-surface $-1 0 -44.83377501875708 0 0 1 0 0 0 1 forward_v I I I I #
coedge $-1 $164 $165 $166 $167 forward $65 $-1 #
coedge $-1 $168 $67 $169 $170 forward $41 $-1 #
coedge $-1 $67 $168 $171 $172 forward $41 $-1 #
coedge $-1 $173 $174 $67 $107 reversed $175 $-1 #
edge $-1 $176 -44.83377501875708 $177 44.83377501875708 $106 $178 forward 7 unknown #
face $-1 $179 $180 $25 $-1 $181 reversed single #
loop $-1 $-1 $114 $68 #
plane-surface $-1 -79.52259127912707 0 -6.3153374664760156 0 0 1 1 0 0 forward_v I I I I #
coedge $-1 $182 $183 $113 $184 forward $69 $-1 #
coedge $-1 $185 $71 $186 $187 reversed $44 $-1 #
coedge $-1 $71 $185 $111 $184 reversed $44 $-1 #
coedge $-1 $188 $189 $71 $115 reversed $109 $-1 #
edge $-1 $190 -44.83377501875708 $191 44.83377501875708 $114 $192 forward 7 unknown #
face $-1 $193 $194 $26 $-1 $195 forward single #
loop $-1 $-1 $196 $72 #
plane-surface $-1 -5.100393733546845 96.876219116471987 168.91272857893816 -1 0 0 0 0.79863551827123203 0.60181501223851219 forward_v I I I I #
coedge $-1 $197 $198 $199 $200 reversed $73 $-1 #
coedge $-1 $121 $75 $201 $202 reversed $47 $-1 #
coedge $-1 $75 $120 $197 $203 reversed $47 $-1 #
coedge $-1 $199 $204 $75 $123 forward $194 $-1 #
edge $-1 $205 3.6043345394789128 $206 6.6280165984311736 $122 $207 forward 7 unknown #
loop $-1 $-1 $129 $76 #
plane-surface $-1 -18.630399091610734 -9.1295027044668871 89.031689837865841 0 0.79863551827123203 0.60181501223851219 1 0 0 forward_v I I I I #
loop $-1 $-1 $208 $49 #
coedge $-1 $127 $127 $128 $209 reversed $77 $-1 #
coedge $-1 $128 $128 $127 $209 forward $79 $-1 #
coedge $-1 $129 $129 $80 $130 forward $124 $-1 #
edge $-1 $210 -4.316488566109119e-015 $210 6.283185307179596 $129 $211 forward 7 unknown #
loop $-1 $-1 $136 $81 #
plane-surface $-1 -18.630399091610734 -9.1295027044668871 89.031689837865841 0 0.79863551827123203 0.60181501223851219 1 0 0 forward_v I I I I #
loop $-1 $-1 $212 $52 #
coedge $-1 $134 $134 $135 $213 reversed $82 $-1 #
coedge $-1 $135 $135 $134 $213 forward $84 $-1 #
coedge $-1 $136 $136 $85 $137 forward $131 $-1 #
edge $-1 $214 -4.316488566109119e-015 $214 6.283185307179596 $136 $215 forward 7 unknown #
face $-1 $216 $217 $29 $-1 $218 reversed single #
loop $-1 $-1 $219 $86 #
plane-surface $-1 -32.160404449674623 -150.83949683969598 97.301038282616389 1 0 0 0 0.79863551827123203 -0.60181501223851219 forward_v I I I I #
coedge $-1 $220 $221 $222 $223 reversed $87 $-1 #
coedge $-1 $143 $89 $224 $225 reversed $56 $-1 #
coedge $-1 $89 $142 $220 $226 reversed $56 $-1 #
coedge $-1 $222 $227 $89 $145 forward $228 $-1 #
edge $-1 $229 30.585973401090911 $230 33.609655460043172 $144 $231 forward 7 unknown #
loop $-1 $-1 $151 $90 #
plane-surface $-1 -18.630399091610734 -44.833775018757109 17.419999541544072 0 -0.79863551827123203 0.60181501223851219 1 0 0 forward_v I I I I #
loop $-1 $-1 $232 $58 #
coedge $-1 $149 $149 $150 $233 reversed $91 $-1 #
coedge $-1 $150 $150 $149 $233 forward $93 $-1 #
coedge $-1 $151 $151 $94 $152 forward $146 $-1 #
edge $-1 $234 4.0335713934611979e-017 $234 6.2831853071796004 $151 $235 forward 7 unknown #
loop $-1 $-1 $158 $95 #
plane-surface $-1 -18.630399091610734 -44.833775018757109 17.419999541544072 0 -0.79863551827123203 0.60181501223851219 1 0 0 forward_v I I I I #
loop $-1 $-1 $236 $61 #
coedge $-1 $156 $156 $157 $237 reversed $96 $-1 #
coedge $-1 $157 $157 $156 $237 forward $98 $-1 #
coedge $-1 $158 $158 $99 $159 forward $153 $-1 #
edge $-1 $238 4.0335713934611979e-017 $238 6.2831853071796004 $158 $239 forward 7 unknown #
face $-1 $240 $241 $24 $-1 $242 reversed single #
loop $-1 $-1 $243 $100 #
plane-surface $-1 -66.366771446882538 0 0 1 0 0 0 0 -1 forward_v I I I I #
coedge $-1 $244 $171 $243 $245 forward $101 $-1 #
coedge $-1 $246 $103 $244 $247 forward $65 $-1 #
coedge $-1 $103 $246 $248 $249 forward $65 $-1 #
coedge $-1 $174 $173 $103 $167 reversed $175 $-1 #
edge $-1 $250 -44.83377501875708 $251 44.83377501875708 $166 $252 forward 7 unknown #
coedge $-1 $105 $104 $253 $254 forward $41 $-1 #
coedge $-1 $255 $256 $104 $170 reversed $241 $-1 #
edge $-1 $177 -66.366771446882538 $257 66.366771446882538 $169 $258 forward 7 unknown #
coedge $-1 $163 $259 $105 $172 reversed $101 $-1 #
edge $-1 $260 -66.366771446882538 $176 66.366771446882538 $171 $261 forward 7 unknown #
coedge $-1 $166 $106 $259 $262 forward $175 $-1 #
coedge $-1 $106 $166 $255 $263 reversed $175 $-1 #
loop $-1 $-1 $173 $240 #
vertex $-1 $107 $264 #
vertex $-1 $107 $265 #
straight-curve $-1 66.366771446882538 0 21.432561274187833 0 1 0 I I #
face $-1 $266 $267 $25 $-1 $268 reversed single #
loop $-1 $-1 $269 $108 #
plane-surface $-1 -79.52259127912707 0 -11.821073153885564 0 0 1 1 0 0 forward_v I I I I #
coedge $-1 $270 $111 $271 $272 reversed $69 $-1 #
coedge $-1 $111 $270 $188 $273 reversed $69 $-1 #
edge $-1 $190 6.3153374664760156 $274 11.821073153885564 $111 $275 forward 7 unknown #
coedge $-1 $113 $112 $269 $276 forward $44 $-1 #
coedge $-1 $277 $278 $112 $187 forward $279 $-1 #
edge $-1 $280 -11.821073153885564 $191 -6.3153374664760156 $186 $281 forward 7 unknown #
coedge $-1 $282 $114 $183 $273 forward $109 $-1 #
coedge $-1 $114 $282 $277 $283 forward $109 $-1 #
vertex $-1 $184 $284 #
vertex $-1 $283 $285 #
straight-curve $-1 -66.366771446882538 0 -6.3153374664760156 0 -1 0 I I #
face $-1 $-1 $286 $26 $-1 $287 reversed single #
loop $-1 $-1 $122 $116 #
plane-surface $-1 0 0 21.432561274187833 0 0 1 1 0 0 forward_v I I I I #
coedge $-1 $288 $289 $290 $291 reversed $117 $-1 #
coedge $-1 $292 $119 $121 $203 forward $73 $-1 #
coedge $-1 $119 $292 $288 $293 forward $73 $-1 #
coedge $-1 $290 $122 $119 $200 forward $194 $-1 #
edge $-1 $206 -22.845204903869256 $294 4.2148058122585219 $199 $295 forward 7 unknown #
coedge $-1 $296 $297 $120 $202 forward $286 $-1 #
edge $-1 $298 -67.036364747924949 $205 -63.023803015281246 $201 $299 forward 7 unknown #
edge $-1 $206 84.643278463255172 $298 89.667550037514104 $121 $300 forward 7 unknown #
coedge $-1 $122 $290 $296 $301 forward $194 $-1 #
vertex $-1 $202 $302 #
vertex $-1 $123 $303 #
straight-curve $-1 -32.160404449674623 48.438109558235993 21.432561274187833 0 -1 0 I I #
coedge $-1 $208 $208 $-1 $304 reversed $126 $-1 #
edge $-1 $305 0 $305 6.2831853071796004 $127 $306 forward 7 unknown #
vertex $-1 $130 $307 #
ellipse-curve $-1 -24.428972816495261 43.32193398928095 19.426280407865981 0 0.79863551827123203 0.60181501223851219 1 0 0 1 I I #
coedge $-1 $212 $212 $-1 $308 reversed $133 $-1 #
edge $-1 $309 0 $309 6.2831853071796004 $134 $310 forward 7 unknown #
vertex $-1 $137 $311 #
ellipse-curve $-1 -12.831825366726214 43.32193398928095 19.426280407865981 0 0.79863551827123203 0.60181501223851219 1 0 0 1 I I #
face $-1 $-1 $228 $29 $-1 $312 forward single #
loop $-1 $-1 $313 $138 #
plane-surface $-1 0 -44.83377501875708 0 0 1 0 0 0 1 forward_v I I I I #
coedge $-1 $314 $315 $316 $317 reversed $139 $-1 #
coedge $-1 $318 $141 $143 $226 forward $87 $-1 #
coedge $-1 $141 $318 $314 $319 forward $87 $-1 #
coedge $-1 $316 $144 $141 $223 forward $228 $-1 #
edge $-1 $230 -4.2148058122585219 $320 22.845204903869256 $222 $321 forward 7 unknown #
coedge $-1 $322 $323 $142 $225 forward $217 $-1 #
edge $-1 $324 -31.230519599764083 $229 -27.217957867120361 $224 $325 forward 7 unknown #
edge $-1 $230 -5.0242715742590045 $324 -4.8315168040217494e-014 $143 $326 forward 7 unknown #
coedge $-1 $144 $316 $322 $327 forward $228 $-1 #
loop $-1 $-1 $316 $216 #
vertex $-1 $225 $328 #
vertex $-1 $145 $329 #
straight-curve $-1 -5.100393733546845 -75.419748419847991 21.432561274187833 0 1 0 I I #
coedge $-1 $232 $232 $-1 $330 reversed $148 $-1 #
edge $-1 $331 0 $331 6.2831853071796004 $149 $332 forward 7 unknown #
vertex $-1 $152 $333 #
ellipse-curve $-1 -24.428972816495261 -43.32193398928095 19.426280407865967 0 -0.79863551827123203 0.60181501223851219 1 0 0 1 I I #
coedge $-1 $236 $236 $-1 $334 reversed $155 $-1 #
edge $-1 $335 0 $335 6.2831853071796004 $156 $336 forward 7 unknown #
vertex $-1 $159 $337 #
ellipse-curve $-1 -12.831825366726214 -43.32193398928095 19.426280407865967 0 -0.79863551827123203 0.60181501223851219 1 0 0 1 I I #
face $-1 $-1 $175 $24 $-1 $338 reversed single #
loop $-1 $-1 $255 $160 #
plane-surface $-1 0 44.83377501875708 0 0 -1 0 0 0 -1 forward_v I I I I #
coedge $-1 $253 $339 $163 $245 reversed $161 $-1 #
coedge $-1 $259 $163 $164 $247 reversed $101 $-1 #
edge $-1 $260 -21.432561274187833 $340 21.432561274187833 $243 $341 forward 7 unknown #
coedge $-1 $165 $164 $339 $342 forward $65 $-1 #
edge $-1 $251 -66.366771446882538 $340 66.366771446882538 $244 $343 forward 7 unknown #
coedge $-1 $256 $255 $165 $249 reversed $241 $-1 #
edge $-1 $344 -66.366771446882538 $250 66.366771446882538 $248 $345 forward 7 unknown #
vertex $-1 $167 $346 #
vertex $-1 $262 $347 #
straight-curve $-1 66.366771446882538 0 -21.432561274187833 0 -1 0 I I #
coedge $-1 $348 $243 $168 $254 reversed $161 $-1 #
edge $-1 $257 -44.83377501875708 $260 44.83377501875708 $253 $349 forward 7 unknown #
coedge $-1 $248 $169 $174 $263 forward $241 $-1 #
coedge $-1 $169 $248 $348 $350 reversed $241 $-1 #
vertex $-1 $170 $351 #
straight-curve $-1 0 44.83377501875708 21.432561274187833 -1 0 0 I I #
coedge $-1 $171 $244 $173 $262 reversed $101 $-1 #
vertex $-1 $254 $352 #
straight-curve $-1 0 -44.83377501875708 21.432561274187833 1 0 0 I I #
edge $-1 $176 -21.432561274187833 $251 21.432561274187833 $173 $353 forward 7 unknown #
edge $-1 $177 -21.432561274187833 $250 21.432561274187833 $174 $354 forward 7 unknown #
point $-1 66.366771446882538 -44.83377501875708 21.432561274187833 #
point $-1 66.366771446882538 44.83377501875708 21.432561274187833 #
face $-1 $-1 $279 $25 $-1 $355 reversed single #
loop $-1 $-1 $356 $179 #
plane-surface $-1 -92.678411111371602 0 -9.0682053101807902 1 0 0 0 0 -1 forward_v I I I I #
coedge $-1 $357 $271 $185 $276 reversed $180 $-1 #
coedge $-1 $183 $182 $356 $358 reversed $69 $-1 #
coedge $-1 $269 $359 $182 $272 forward $180 $-1 #
edge $-1 $360 -13.155819832244532 $274 13.155819832244532 $182 $361 forward 7 unknown #
edge $-1 $190 -13.155819832244532 $362 13.155819832244532 $183 $363 forward 7 unknown #
vertex $-1 $184 $364 #
straight-curve $-1 -66.366771446882538 44.83377501875708 0 0 0 -1 I I #
edge $-1 $280 -44.83377501875708 $274 44.83377501875708 $269 $365 forward 7 unknown #
coedge $-1 $366 $186 $189 $283 reversed $279 $-1 #
coedge $-1 $186 $366 $357 $367 reversed $279 $-1 #
loop $-1 $-1 $186 $266 #
vertex $-1 $187 $368 #
straight-curve $-1 -66.366771446882538 -44.83377501875708 0 0 0 1 I I #
coedge $-1 $189 $188 $369 $370 forward $109 $-1 #
edge $-1 $371 -13.155819832244532 $191 13.155819832244532 $277 $372 forward 7 unknown #
point $-1 -66.366771446882538 44.83377501875708 -6.3153374664760156 #
point $-1 -66.366771446882538 -44.83377501875708 -6.3153374664760156 #
loop $-1 $-1 $201 $193 #
plane-surface $-1 0 44.83377501875708 0 0 -1 0 0 0 -1 forward_v I I I I #
coedge $-1 $289 $196 $198 $293 reversed $117 $-1 #
coedge $-1 $196 $288 $373 $374 reversed $117 $-1 #
coedge $-1 $204 $199 $196 $291 forward $194 $-1 #
edge $-1 $294 -6.6280165984311736 $375 -3.6043345394789128 $290 $376 forward 7 unknown #
coedge $-1 $198 $197 $297 $377 reversed $73 $-1 #
edge $-1 $378 -89.667550037514104 $294 -84.643278463255172 $288 $379 forward 7 unknown #
vertex $-1 $200 $380 #
straight-curve $-1 -9.3151995458053669 41.81009295980482 21.432561274187833 1 0 0 I I #
coedge $-1 $373 $201 $204 $301 reversed $286 $-1 #
coedge $-1 $201 $373 $292 $377 forward $286 $-1 #
vertex $-1 $202 $381 #
straight-curve $-1 -32.160404449674623 44.83377501875708 84.456364289469079 0 0 1 I I #
straight-curve $-1 -32.160404449674623 -9.1295027044668871 89.031689837865841 0 0.60181501223851219 -0.79863551827123203 I I #
edge $-1 $375 5.100393733546845 $205 32.160404449674623 $296 $382 forward 7 unknown #
point $-1 -32.160404449674623 44.83377501875708 21.432561274187833 #
point $-1 -32.160404449674623 41.81009295980482 21.432561274187833 #
edge $-1 $383 1 $383 0 $208 $-1 forward 7 unknown #
vertex $-1 $209 $384 #
ellipse-curve $-1 -24.428972816495261 42.489297904952736 18.798844132097908 0 0.79863551827123203 0.60181501223851219 1 0 0 1 I I #
point $-1 -23.428972816495261 43.321933989280929 19.426280407865971 #
edge $-1 $385 1 $385 0 $212 $-1 forward 7 unknown #
vertex $-1 $213 $386 #
ellipse-curve $-1 -12.831825366726214 42.489297904952736 18.798844132097908 0 0.79863551827123203 0.60181501223851219 1 0 0 1 I I #
point $-1 -11.831825366726214 43.321933989280929 19.426280407865971 #
plane-surface $-1 0 0 21.432561274187833 0 0 1 1 0 0 forward_v I I I I #
coedge $-1 $323 $322 $315 $387 forward $217 $-1 #
coedge $-1 $315 $219 $221 $319 reversed $139 $-1 #
coedge $-1 $219 $314 $313 $387 reversed $139 $-1 #
coedge $-1 $227 $222 $219 $317 forward $228 $-1 #
edge $-1 $320 -33.609655460043172 $388 -30.585973401090911 $316 $389 forward 7 unknown #
coedge $-1 $221 $220 $323 $390 reversed $87 $-1 #
edge $-1 $391 4.8315168040217494e-014 $320 5.0242715742590045 $314 $392 forward 7 unknown #
vertex $-1 $223 $393 #
straight-curve $-1 -9.3151995458053669 -41.81009295980482 21.432561274187833 -1 0 0 I I #
coedge $-1 $313 $224 $227 $327 reversed $217 $-1 #
coedge $-1 $224 $313 $318 $390 forward $217 $-1 #
vertex $-1 $225 $394 #
straight-curve $-1 -5.100393733546845 -44.83377501875708 48.650519141308195 0 0 1 I I #
straight-curve $-1 -5.100393733546845 -44.833775018757109 17.419999541544072 0 -0.60181501223851219 -0.79863551827123203 I I #
edge $-1 $388 -32.160404449674623 $229 -5.100393733546845 $322 $395 forward 7 unknown #
point $-1 -5.100393733546845 -44.83377501875708 21.432561274187833 #
point $-1 -5.100393733546845 -41.81009295980482 21.432561274187833 #
edge $-1 $396 1 $396 0 $232 $-1 forward 7 unknown #
vertex $-1 $233 $397 #
ellipse-curve $-1 -24.428972816495261 -42.489297904952743 18.798844132097894 0 -0.79863551827123203 0.60181501223851219 1 0 0 1 I I #
point $-1 -23.428972816495261 -43.321933989280936 19.426280407865956 #
edge $-1 $398 1 $398 0 $236 $-1 forward 7 unknown #
vertex $-1 $237 $399 #
ellipse-curve $-1 -12.831825366726214 -42.489297904952743 18.798844132097894 0 -0.79863551827123203 0.60181501223851219 1 0 0 1 I I #
point $-1 -11.831825366726214 -43.321933989280936 19.426280407865956 #
plane-surface $-1 66.366771446882538 0 0 -1 0 0 0 0 1 forward_v I I I I #
coedge $-1 $243 $348 $246 $342 reversed $161 $-1 #
vertex $-1 $342 $400 #
straight-curve $-1 -66.366771446882538 -44.83377501875708 0 0 0 -1 I I #
edge $-1 $340 -44.83377501875708 $344 44.83377501875708 $339 $401 forward 7 unknown #
straight-curve $-1 0 -44.83377501875708 -21.432561274187833 -1 0 0 I I #
vertex $-1 $249 $402 #
straight-curve $-1 0 44.83377501875708 -21.432561274187833 1 0 0 I I #
point $-1 66.366771446882538 44.83377501875708 -21.432561274187833 #
point $-1 66.366771446882538 -44.83377501875708 -21.432561274187833 #
coedge $-1 $339 $253 $256 $350 forward $161 $-1 #
straight-curve $-1 -66.366771446882538 0 21.432561274187833 0 -1 0 I I #
edge $-1 $257 -21.432561274187833 $344 21.432561274187833 $256 $403 forward 7 unknown #
point $-1 -66.366771446882538 44.83377501875708 21.432561274187833 #
point $-1 -66.366771446882538 -44.83377501875708 21.432561274187833 #
straight-curve $-1 66.366771446882538 -44.83377501875708 0 0 0 -1 I I #
straight-curve $-1 66.366771446882538 44.83377501875708 0 0 0 -1 I I #
plane-surface $-1 0 -44.83377501875708 0 0 1 0 0 0 1 forward_v I I I I #
coedge $-1 $404 $369 $270 $358 forward $267 $-1 #
coedge $-1 $359 $269 $278 $367 forward $180 $-1 #
edge $-1 $362 -2.7528678437047747 $360 2.7528678437047738 $270 $405 forward 7 unknown #
coedge $-1 $271 $357 $404 $406 forward $180 $-1 #
vertex $-1 $272 $407 #
straight-curve $-1 -79.52259127912707 44.83377501875708 -11.821073153885564 1 0 0 I I #
vertex $-1 $273 $408 #
straight-curve $-1 -79.52259127912707 44.83377501875708 -6.3153374664760156 -1 0 0 I I #
point $-1 -66.366771446882538 44.83377501875708 -11.821073153885564 #
straight-curve $-1 -66.366771446882538 0 -11.821073153885564 0 1 0 I I #
coedge $-1 $278 $277 $409 $410 forward $279 $-1 #
edge $-1 $280 -13.155819832244532 $411 13.155819832244532 $278 $412 forward 7 unknown #
point $-1 -66.366771446882538 -44.83377501875708 -11.821073153885564 #
coedge $-1 $356 $409 $282 $370 reversed $267 $-1 #
edge $-1 $362 -44.83377501875708 $371 44.83377501875708 $369 $413 forward 7 unknown #
vertex $-1 $370 $414 #
straight-curve $-1 -79.52259127912707 -44.83377501875708 -6.3153374664760156 1 0 0 I I #
coedge $-1 $297 $296 $289 $374 forward $286 $-1 #
edge $-1 $375 63.023803015281246 $378 67.036364747924949 $373 $415 forward 7 unknown #
vertex $-1 $301 $416 #
straight-curve $-1 -5.100393733546845 48.438109558235993 21.432561274187833 0 1 0 I I #
edge $-1 $378 -4.2148058122585219 $298 22.845204903869256 $297 $417 forward 7 unknown #
vertex $-1 $377 $418 #
straight-curve $-1 -5.100393733546845 -9.1295027044668871 89.031689837865841 0 -0.60181501223851219 0.79863551827123203 I I #
point $-1 -5.100393733546845 41.81009295980482 21.432561274187833 #
point $-1 -32.160404449674623 44.833775018757073 17.419999541544129 #
straight-curve $-1 0 44.83377501875708 21.432561274187833 -1 0 0 I I #
vertex $-1 $304 $419 #
point $-1 -23.428972816495261 42.489297904952736 18.798844132097908 #
vertex $-1 $308 $420 #
point $-1 -11.831825366726214 42.489297904952736 18.798844132097908 #
edge $-1 $388 27.217957867120361 $391 31.230519599764083 $313 $421 forward 7 unknown #
vertex $-1 $327 $422 #
straight-curve $-1 -32.160404449674623 -75.419748419847991 21.432561274187833 0 -1 0 I I #
edge $-1 $391 -22.845204903869256 $324 4.2148058122585219 $323 $423 forward 7 unknown #
vertex $-1 $390 $424 #
straight-curve $-1 -32.160404449674623 -44.833775018757109 17.419999541544072 0 0.60181501223851219 0.79863551827123203 I I #
point $-1 -32.160404449674623 -41.81009295980482 21.432561274187833 #
point $-1 -5.100393733546845 -44.83377501875708 17.419999541544112 #
straight-curve $-1 0 -44.83377501875708 21.432561274187833 1 0 0 I I #
vertex $-1 $330 $425 #
point $-1 -23.428972816495261 -42.489297904952743 18.798844132097894 #
vertex $-1 $334 $426 #
point $-1 -11.831825366726214 -42.489297904952743 18.798844132097894 #
point $-1 -66.366771446882538 -44.83377501875708 -21.432561274187833 #
straight-curve $-1 -66.366771446882538 0 -21.432561274187833 0 1 0 I I #
point $-1 -66.366771446882538 44.83377501875708 -21.432561274187833 #
straight-curve $-1 -66.366771446882538 44.83377501875708 0 0 0 -1 I I #
coedge $-1 $409 $356 $359 $406 reversed $267 $-1 #
straight-curve $-1 -92.678411111371602 44.83377501875708 -9.0682053101807902 0 0 -1 I I #
edge $-1 $411 -44.83377501875708 $360 44.83377501875708 $404 $427 forward 7 unknown #
point $-1 -92.678411111371602 44.83377501875708 -11.821073153885564 #
point $-1 -92.678411111371602 44.83377501875708 -6.3153374664760156 #
coedge $-1 $369 $404 $366 $410 reversed $267 $-1 #
edge $-1 $371 -2.7528678437047747 $411 2.7528678437047738 $409 $428 forward 7 unknown #
vertex $-1 $406 $429 #
straight-curve $-1 -79.52259127912707 -44.83377501875708 -11.821073153885564 -1 0 0 I I #
straight-curve $-1 -92.678411111371602 0 -6.3153374664760156 0 -1 0 I I #
point $-1 -92.678411111371602 -44.83377501875708 -6.3153374664760156 #
straight-curve $-1 -5.100393733546845 44.83377501875708 84.456364289469079 0 0 -1 I I #
point $-1 -5.100393733546845 44.83377501875708 21.432561274187833 #
straight-curve $-1 -9.3151995458053669 44.83377501875708 17.419999541544119 -1 0 0 I I #
point $-1 -5.100393733546845 44.833775018757073 17.419999541544129 #
point $-1 -24.428972816495261 41.69066238668151 18.197029119859398 #
point $-1 -12.831825366726214 41.69066238668151 18.197029119859398 #
straight-curve $-1 -32.160404449674623 -44.83377501875708 48.650519141308195 0 0 -1 I I #
point $-1 -32.160404449674623 -44.83377501875708 21.432561274187833 #
straight-curve $-1 -9.3151995458053669 -44.83377501875708 17.419999541544104 1 0 0 I I #
point $-1 -32.160404449674623 -44.83377501875708 17.419999541544112 #
point $-1 -24.428972816495261 -41.690662386681517 18.197029119859383 #
point $-1 -12.831825366726214 -41.690662386681517 18.197029119859383 #
straight-curve $-1 -92.678411111371602 0 -11.821073153885564 0 1 0 I I #
straight-curve $-1 -92.678411111371602 -44.83377501875708 -9.0682053101807902 0 0 -1 I I #
point $-1 -92.678411111371602 -44.83377501875708 -11.821073153885564 #
End-of-ACIS-data 