500 0 18 0           
7 Unknown 11 ACIS 5.0 NT 24 Fri Mar 26 19:22:04 1999 
-1 9.9999999999999995e-007 1e-010 
body $-1 $18 $-1 $19 #
body $-1 $20 $-1 $21 #
body $-1 $22 $-1 $23 #
body $-1 $24 $-1 $25 #
body $-1 $26 $-1 $27 #
body $-1 $28 $-1 $29 #
body $-1 $30 $-1 $31 #
body $-1 $32 $-1 $33 #
body $-1 $34 $-1 $35 #
body $-1 $36 $-1 $37 #
body $-1 $38 $-1 $39 #
body $-1 $40 $-1 $41 #
body $-1 $42 $-1 $43 #
body $-1 $44 $-1 $45 #
body $-1 $46 $-1 $47 #
body $-1 $48 $-1 $49 #
body $-1 $50 $-1 $51 #
body $-1 $52 $-1 $53 #
lump $-1 $-1 $54 $0 #
transform $-1 1 0 0 0 1 0 0 0 1 62.018494216742454 34.522688400358255 6.9276111038201735 1 rotate no_reflect no_shear #
lump $-1 $-1 $55 $1 #
transform $-1 1 0 0 0 1 0 0 0 1 62.018494216742454 34.522688400358255 6.9276111038201735 1 rotate no_reflect no_shear #
lump $-1 $-1 $56 $2 #
transform $-1 1 0 0 0 1 0 0 0 1 62.018494216742454 34.522688400358255 6.9276111038201735 1 rotate no_reflect no_shear #
lump $-1 $-1 $57 $3 #
transform $-1 1 0 0 0 1 0 0 0 1 62.018494216742454 34.522688400358255 6.9276111038201735 1 rotate no_reflect no_shear #
lump $-1 $-1 $58 $4 #
transform $-1 1 0 0 0 1 0 0 0 1 62.018494216742454 34.522688400358255 6.9276111038201735 1 rotate no_reflect no_shear #
lump $-1 $-1 $59 $5 #
transform $-1 1 0 0 0 1 0 0 0 1 62.018494216742454 34.522688400358255 6.9276111038201735 1 rotate no_reflect no_shear #
lump $-1 $-1 $60 $6 #
transform $-1 1 0 0 0 1 0 0 0 1 62.018494216742454 34.522688400358255 6.9276111038201735 1 rotate no_reflect no_shear #
lump $-1 $-1 $61 $7 #
transform $-1 1 0 0 0 1 0 0 0 1 62.018494216742454 34.522688400358255 6.9276111038201735 1 rotate no_reflect no_shear #
lump $-1 $-1 $62 $8 #
transform $-1 1 0 0 0 1 0 0 0 1 62.018494216742454 34.522688400358255 6.9276111038201735 1 rotate no_reflect no_shear #
lump $-1 $-1 $63 $9 #
transform $-1 1 0 0 0 1 0 0 0 1 62.018494216742454 34.522688400358255 6.9276111038201735 1 rotate no_reflect no_shear #
lump $-1 $-1 $64 $10 #
transform $-1 1 0 0 0 1 0 0 0 1 62.018494216742454 34.522688400358255 6.9276111038201735 1 rotate no_reflect no_shear #
lump $-1 $-1 $65 $11 #
transform $-1 1 0 0 0 1 0 0 0 1 62.018494216742454 34.522688400358255 6.9276111038201735 1 rotate no_reflect no_shear #
lump $-1 $-1 $66 $12 #
transform $-1 1 0 0 0 1 0 0 0 1 62.018494216742454 34.522688400358255 6.9276111038201735 1 rotate no_reflect no_shear #
lump $-1 $-1 $67 $13 #
transform $-1 1 0 0 0 1 0 0 0 1 62.018494216742454 34.522688400358255 6.9276111038201735 1 rotate no_reflect no_shear #
lump $-1 $-1 $68 $14 #
transform $-1 1 0 0 0 1 0 0 0 1 62.018494216742454 34.522688400358255 6.9276111038201735 1 rotate no_reflect no_shear #
lump $-1 $-1 $69 $15 #
transform $-1 1 0 0 0 1 0 0 0 1 62.018494216742454 34.522688400358255 6.9276111038201735 1 rotate no_reflect no_shear #
lump $-1 $-1 $70 $16 #
transform $-1 1 0 0 0 1 0 0 0 1 62.018494216742454 34.522688400358255 6.9276111038201735 1 rotate no_reflect no_shear #
lump $-1 $-1 $71 $17 #
transform $-1 1 0 0 0 1 0 0 0 1 62.018494216742454 34.522688400358255 6.9276111038201735 1 rotate no_reflect no_shear #
shell $-1 $-1 $-1 $72 $-1 $18 #
shell $-1 $-1 $-1 $73 $-1 $20 #
shell $-1 $-1 $-1 $74 $-1 $22 #
shell $-1 $-1 $-1 $75 $-1 $24 #
shell $-1 $-1 $-1 $76 $-1 $26 #
shell $-1 $-1 $-1 $77 $-1 $28 #
shell $-1 $-1 $-1 $78 $-1 $30 #
shell $-1 $-1 $-1 $79 $-1 $32 #
shell $-1 $-1 $-1 $80 $-1 $34 #
shell $-1 $-1 $-1 $81 $-1 $36 #
shell $-1 $-1 $-1 $82 $-1 $38 #
shell $-1 $-1 $-1 $83 $-1 $40 #
shell $-1 $-1 $-1 $84 $-1 $42 #
shell $-1 $-1 $-1 $85 $-1 $44 #
shell $-1 $-1 $-1 $86 $-1 $46 #
shell $-1 $-1 $-1 $87 $-1 $48 #
shell $-1 $-1 $-1 $88 $-1 $50 #
shell $-1 $-1 $-1 $89 $-1 $52 #
face $-1 $90 $91 $54 $-1 $92 forward single #
face $-1 $93 $94 $55 $-1 $95 forward single #
face $-1 $96 $97 $56 $-1 $98 reversed single #
face $-1 $99 $100 $57 $-1 $101 forward single #
face $-1 $102 $103 $58 $-1 $104 forward single #
face $-1 $105 $106 $59 $-1 $107 forward single #
face $-1 $108 $109 $60 $-1 $110 reversed single #
face $-1 $111 $112 $61 $-1 $113 forward single #
face $-1 $114 $115 $62 $-1 $116 forward single #
face $-1 $117 $118 $63 $-1 $119 forward single #
face $-1 $120 $121 $64 $-1 $122 reversed single #
face $-1 $123 $124 $65 $-1 $125 forward single #
face $-1 $126 $127 $66 $-1 $128 forward single #
face $-1 $129 $130 $67 $-1 $131 forward single #
face $-1 $132 $133 $68 $-1 $134 reversed single #
face $-1 $135 $136 $69 $-1 $137 forward single #
face $-1 $138 $139 $70 $-1 $140 forward single #
face $-1 $141 $142 $71 $-1 $143 forward single #
face $-1 $144 $145 $54 $-1 $146 reversed single #
loop $-1 $-1 $147 $72 #
plane-surface $-1 0 0 6.9276111038201735 0 0 1 1 0 0 forward_v I I I I #
face $-1 $148 $149 $55 $-1 $150 reversed single #
loop $-1 $-1 $151 $73 #
plane-surface $-1 -59.022834665109414 0 -3.9276111038201735 0 0 1 1 0 0 forward_v I I I I #
face $-1 $152 $153 $56 $-1 $154 reversed single #
loop $-1 $-1 $155 $74 #
plane-surface $-1 -56.027175113476375 -132.26517015478976 76.724268628672277 1 0 0 0 0.78801076186113728 -0.61566146476048833 forward_v I I I I #
face $-1 $156 $157 $57 $-1 $158 forward single #
loop $-1 $159 $160 $75 #
cone-surface $-1 -51.319470445549598 -31.44322039073927 3.2422177286008629 0 0.78801076186113728 -0.61566146476048833 0.5 0 0 1 I I 0 1 0.5 forward I I I I #
face $-1 $161 $162 $58 $-1 $163 forward single #
loop $-1 $164 $165 $76 #
cone-surface $-1 -44.257913443659426 -31.44322039073927 3.2422177286008629 0 0.78801076186113728 -0.61566146476048833 0.5 0 0 1 I I 0 1 0.5 forward I I I I #
face $-1 $166 $167 $59 $-1 $168 forward single #
loop $-1 $169 $170 $77 #
cone-surface $-1 -37.196356441769254 -31.44322039073927 3.2422177286008629 0 0.78801076186113728 -0.61566146476048833 0.5 0 0 1 I I 0 1 0.5 forward I I I I #
face $-1 $171 $172 $60 $-1 $173 reversed single #
loop $-1 $-1 $174 $78 #
plane-surface $-1 38.479970877108549 -132.26517015478976 76.724268628672277 1 0 0 0 0.78801076186113728 -0.61566146476048833 forward_v I I I I #
face $-1 $175 $176 $61 $-1 $177 forward single #
loop $-1 $178 $179 $79 #
cone-surface $-1 43.187675545035333 -31.44322039073927 3.2422177286008629 0 0.78801076186113728 -0.61566146476048833 0.5 0 0 1 I I 0 1 0.5 forward I I I I #
face $-1 $180 $181 $62 $-1 $182 forward single #
loop $-1 $183 $184 $80 #
cone-surface $-1 50.249232546925498 -31.44322039073927 3.2422177286008629 0 0.78801076186113728 -0.61566146476048833 0.5 0 0 1 I I 0 1 0.5 forward I I I I #
face $-1 $185 $186 $63 $-1 $187 forward single #
loop $-1 $188 $189 $81 #
cone-surface $-1 57.310789548815677 -31.44322039073927 3.2422177286008629 0 0.78801076186113728 -0.61566146476048833 0.5 0 0 1 I I 0 1 0.5 forward I I I I #
face $-1 $190 $191 $64 $-1 $192 reversed single #
loop $-1 $-1 $193 $82 #
plane-surface $-1 -56.027175113476375 89.756592338720793 131.13276860439419 1 0 0 0 -0.78801076186113728 -0.61566146476048833 forward_v I I I I #
face $-1 $194 $195 $65 $-1 $196 forward single #
loop $-1 $197 $198 $83 #
cone-surface $-1 -51.319470445549598 31.44322039073927 3.2422177286008664 0 -0.78801076186113728 -0.61566146476048833 0.5 0 0 1 I I 0 1 0.5 forward I I I I #
face $-1 $199 $200 $66 $-1 $201 forward single #
loop $-1 $202 $203 $84 #
cone-surface $-1 -44.257913443659426 31.44322039073927 3.2422177286008664 0 -0.78801076186113728 -0.61566146476048833 0.5 0 0 1 I I 0 1 0.5 forward I I I I #
face $-1 $204 $205 $67 $-1 $206 forward single #
loop $-1 $207 $208 $85 #
cone-surface $-1 -37.196356441769254 31.44322039073927 3.2422177286008664 0 -0.78801076186113728 -0.61566146476048833 0.5 0 0 1 I I 0 1 0.5 forward I I I I #
face $-1 $209 $210 $68 $-1 $211 reversed single #
loop $-1 $-1 $212 $86 #
plane-surface $-1 38.479970877108549 89.756592338720793 131.13276860439419 1 0 0 0 -0.78801076186113728 -0.61566146476048833 forward_v I I I I #
face $-1 $213 $214 $69 $-1 $215 forward single #
loop $-1 $216 $217 $87 #
cone-surface $-1 43.187675545035333 31.44322039073927 3.2422177286008664 0 -0.78801076186113728 -0.61566146476048833 0.5 0 0 1 I I 0 1 0.5 forward I I I I #
face $-1 $218 $219 $70 $-1 $220 forward single #
loop $-1 $221 $222 $88 #
cone-surface $-1 50.249232546925498 31.44322039073927 3.2422177286008664 0 -0.78801076186113728 -0.61566146476048833 0.5 0 0 1 I I 0 1 0.5 forward I I I I #
face $-1 $223 $224 $71 $-1 $225 forward single #
loop $-1 $226 $227 $89 #
cone-surface $-1 57.310789548815677 31.44322039073927 3.2422177286008664 0 -0.78801076186113728 -0.61566146476048833 0.5 0 0 1 I I 0 1 0.5 forward I I I I #
face $-1 $228 $229 $54 $-1 $230 reversed single #
loop $-1 $-1 $231 $90 #
plane-surface $-1 0 0 -6.9276111038201735 0 0 1 1 0 0 forward_v I I I I #
coedge $-1 $232 $233 $234 $235 forward $91 $-1 #
face $-1 $236 $237 $55 $-1 $238 reversed single #
loop $-1 $-1 $239 $93 #
plane-surface $-1 -56.027175113476375 0 -5.4276111038201735 -1 0 0 0 0 1 forward_v I I I I #
coedge $-1 $240 $241 $242 $243 forward $94 $-1 #
face $-1 $244 $245 $56 $-1 $246 reversed single #
loop $-1 $-1 $247 $96 #
plane-surface $-1 -44.257913443659426 -34.522688400358248 0.35947464523320605 0 -0.78801076186113728 0.61566146476048833 1 0 0 forward_v I I I I #
coedge $-1 $248 $249 $250 $251 reversed $97 $-1 #
face $-1 $-1 $252 $57 $-1 $253 forward single #
loop $-1 $254 $255 $99 #
cone-surface $-1 -51.319470445549598 -30.732544923761857 2.6869772164849115 0 0.78801076186113728 -0.61566146476048833 0.25 0 0 1 I I -0.70710678118654746 0.70710678118654746 0.25 forward I I I I #
loop $-1 $-1 $256 $75 #
coedge $-1 $160 $160 $257 $258 reversed $100 $-1 #
face $-1 $-1 $259 $58 $-1 $260 forward single #
loop $-1 $261 $262 $102 #
cone-surface $-1 -44.257913443659426 -30.732544923761857 2.6869772164849115 0 0.78801076186113728 -0.61566146476048833 0.25 0 0 1 I I -0.70710678118654746 0.70710678118654746 0.25 forward I I I I #
loop $-1 $-1 $263 $76 #
coedge $-1 $165 $165 $264 $265 reversed $103 $-1 #
face $-1 $-1 $266 $59 $-1 $267 forward single #
loop $-1 $268 $269 $105 #
cone-surface $-1 -37.196356441769254 -30.732544923761857 2.6869772164849115 0 0.78801076186113728 -0.61566146476048833 0.25 0 0 1 I I -0.70710678118654746 0.70710678118654746 0.25 forward I I I I #
loop $-1 $-1 $270 $77 #
coedge $-1 $170 $170 $271 $272 reversed $106 $-1 #
face $-1 $273 $274 $60 $-1 $275 reversed single #
loop $-1 $-1 $276 $108 #
plane-surface $-1 50.249232546925498 -34.522688400358248 0.35947464523320605 0 -0.78801076186113728 0.61566146476048833 1 0 0 forward_v I I I I #
coedge $-1 $277 $278 $279 $280 reversed $109 $-1 #
face $-1 $-1 $281 $61 $-1 $282 forward single #
loop $-1 $283 $284 $111 #
cone-surface $-1 43.187675545035333 -30.732544923761857 2.6869772164849115 0 0.78801076186113728 -0.61566146476048833 0.25 0 0 1 I I -0.70710678118654746 0.70710678118654746 0.25 forward I I I I #
loop $-1 $-1 $285 $79 #
coedge $-1 $179 $179 $286 $287 reversed $112 $-1 #
face $-1 $-1 $288 $62 $-1 $289 forward single #
loop $-1 $290 $291 $114 #
cone-surface $-1 50.249232546925498 -30.732544923761857 2.6869772164849115 0 0.78801076186113728 -0.61566146476048833 0.25 0 0 1 I I -0.70710678118654746 0.70710678118654746 0.25 forward I I I I #
loop $-1 $-1 $292 $80 #
coedge $-1 $184 $184 $293 $294 reversed $115 $-1 #
face $-1 $-1 $295 $63 $-1 $296 forward single #
loop $-1 $297 $298 $117 #
cone-surface $-1 57.310789548815677 -30.732544923761857 2.6869772164849115 0 0.78801076186113728 -0.61566146476048833 0.25 0 0 1 I I -0.70710678118654746 0.70710678118654746 0.25 forward I I I I #
loop $-1 $-1 $299 $81 #
coedge $-1 $189 $189 $300 $301 reversed $118 $-1 #
face $-1 $302 $303 $64 $-1 $304 reversed single #
loop $-1 $-1 $305 $120 #
plane-surface $-1 -44.257913443659426 -7.9858894157107159 54.767974620955115 0 0.78801076186113728 0.61566146476048833 1 0 0 forward_v I I I I #
coedge $-1 $306 $307 $308 $309 reversed $121 $-1 #
face $-1 $-1 $310 $65 $-1 $311 forward single #
loop $-1 $312 $313 $123 #
cone-surface $-1 -51.319470445549598 30.732544923761857 2.6869772164849151 0 -0.78801076186113728 -0.61566146476048833 0.25 0 0 1 I I -0.70710678118654746 0.70710678118654746 0.25 forward I I I I #
loop $-1 $-1 $314 $83 #
coedge $-1 $198 $198 $315 $316 reversed $124 $-1 #
face $-1 $-1 $317 $66 $-1 $318 forward single #
loop $-1 $319 $320 $126 #
cone-surface $-1 -44.257913443659426 30.732544923761857 2.6869772164849151 0 -0.78801076186113728 -0.61566146476048833 0.25 0 0 1 I I -0.70710678118654746 0.70710678118654746 0.25 forward I I I I #
loop $-1 $-1 $321 $84 #
coedge $-1 $203 $203 $322 $323 reversed $127 $-1 #
face $-1 $-1 $324 $67 $-1 $325 forward single #
loop $-1 $326 $327 $129 #
cone-surface $-1 -37.196356441769254 30.732544923761857 2.6869772164849151 0 -0.78801076186113728 -0.61566146476048833 0.25 0 0 1 I I -0.70710678118654746 0.70710678118654746 0.25 forward I I I I #
loop $-1 $-1 $328 $85 #
coedge $-1 $208 $208 $329 $330 reversed $130 $-1 #
face $-1 $331 $332 $68 $-1 $333 forward single #
loop $-1 $-1 $334 $132 #
plane-surface $-1 50.249232546925498 -7.9858894157107159 54.767974620955115 0 0.78801076186113728 0.61566146476048833 1 0 0 forward_v I I I I #
coedge $-1 $335 $336 $337 $338 reversed $133 $-1 #
face $-1 $-1 $339 $69 $-1 $340 forward single #
loop $-1 $341 $342 $135 #
cone-surface $-1 43.187675545035333 30.732544923761857 2.6869772164849151 0 -0.78801076186113728 -0.61566146476048833 0.25 0 0 1 I I -0.70710678118654746 0.70710678118654746 0.25 forward I I I I #
loop $-1 $-1 $343 $87 #
coedge $-1 $217 $217 $344 $345 reversed $136 $-1 #
face $-1 $-1 $346 $70 $-1 $347 forward single #
loop $-1 $348 $349 $138 #
cone-surface $-1 50.249232546925498 30.732544923761857 2.6869772164849151 0 -0.78801076186113728 -0.61566146476048833 0.25 0 0 1 I I -0.70710678118654746 0.70710678118654746 0.25 forward I I I I #
loop $-1 $-1 $350 $88 #
coedge $-1 $222 $222 $351 $352 reversed $139 $-1 #
face $-1 $-1 $353 $71 $-1 $354 forward single #
loop $-1 $355 $356 $141 #
cone-surface $-1 57.310789548815677 30.732544923761857 2.6869772164849151 0 -0.78801076186113728 -0.61566146476048833 0.25 0 0 1 I I -0.70710678118654746 0.70710678118654746 0.25 forward I I I I #
loop $-1 $-1 $357 $89 #
coedge $-1 $227 $227 $358 $359 reversed $142 $-1 #
face $-1 $360 $361 $54 $-1 $362 reversed single #
loop $-1 $-1 $363 $144 #
plane-surface $-1 0 -34.522688400358255 0 0 1 0 0 0 1 forward_v I I I I #
coedge $-1 $364 $365 $366 $367 forward $145 $-1 #
coedge $-1 $368 $147 $369 $370 forward $91 $-1 #
coedge $-1 $147 $368 $371 $372 forward $91 $-1 #
coedge $-1 $373 $374 $147 $235 reversed $375 $-1 #
edge $-1 $376 -34.522688400358255 $377 34.522688400358255 $234 $378 forward 7 unknown #
face $-1 $379 $380 $55 $-1 $381 reversed single #
loop $-1 $-1 $382 $148 #
plane-surface $-1 0 0 -6.9276111038201735 0 0 1 1 0 0 forward_v I I I I #
coedge $-1 $383 $242 $384 $385 reversed $149 $-1 #
coedge $-1 $386 $151 $387 $388 reversed $94 $-1 #
coedge $-1 $151 $386 $389 $390 reversed $94 $-1 #
coedge $-1 $239 $391 $151 $243 reversed $149 $-1 #
edge $-1 $392 -34.522688400358255 $393 34.522688400358255 $242 $394 forward 7 unknown #
face $-1 $395 $396 $56 $-1 $397 forward single #
loop $-1 $-1 $398 $152 #
plane-surface $-1 -32.488651773842477 -132.26517015478976 76.724268628672277 -1 0 0 0 -0.78801076186113728 0.61566146476048833 forward_v I I I I #
coedge $-1 $399 $400 $401 $402 reversed $153 $-1 #
coedge $-1 $249 $155 $403 $404 reversed $97 $-1 #
coedge $-1 $155 $248 $399 $405 reversed $97 $-1 #
coedge $-1 $401 $406 $155 $251 forward $407 $-1 #
edge $-1 $408 31.434523210515966 $409 38.00265966910294 $250 $410 forward 7 unknown #
loop $-1 $-1 $257 $156 #
plane-surface $-1 -44.257913443659426 -34.522688400358248 0.35947464523320605 0 -0.78801076186113728 0.61566146476048833 1 0 0 forward_v I I I I #
loop $-1 $-1 $411 $99 #
coedge $-1 $255 $255 $256 $412 reversed $157 $-1 #
coedge $-1 $256 $256 $255 $412 forward $159 $-1 #
coedge $-1 $257 $257 $160 $258 forward $252 $-1 #
edge $-1 $413 3.4954836183495873e-016 $413 6.2831853071796004 $257 $414 forward 7 unknown #
loop $-1 $-1 $264 $161 #
plane-surface $-1 -44.257913443659426 -34.522688400358248 0.35947464523320605 0 -0.78801076186113728 0.61566146476048833 1 0 0 forward_v I I I I #
loop $-1 $-1 $415 $102 #
coedge $-1 $262 $262 $263 $416 reversed $162 $-1 #
coedge $-1 $263 $263 $262 $416 forward $164 $-1 #
coedge $-1 $264 $264 $165 $265 forward $259 $-1 #
edge $-1 $417 3.4954836183495873e-016 $417 6.2831853071796004 $264 $418 forward 7 unknown #
loop $-1 $-1 $271 $166 #
plane-surface $-1 -44.257913443659426 -34.522688400358248 0.35947464523320605 0 -0.78801076186113728 0.61566146476048833 1 0 0 forward_v I I I I #
loop $-1 $-1 $419 $105 #
coedge $-1 $269 $269 $270 $420 reversed $167 $-1 #
coedge $-1 $270 $270 $269 $420 forward $169 $-1 #
coedge $-1 $271 $271 $170 $272 forward $266 $-1 #
edge $-1 $421 3.4954836183495873e-016 $421 6.2831853071796004 $271 $422 forward 7 unknown #
face $-1 $423 $424 $60 $-1 $425 forward single #
loop $-1 $-1 $279 $171 #
plane-surface $-1 0 -34.522688400358255 0 0 1 0 0 0 1 forward_v I I I I #
coedge $-1 $426 $427 $428 $429 reversed $172 $-1 #
coedge $-1 $278 $174 $430 $431 reversed $109 $-1 #
coedge $-1 $174 $277 $426 $432 reversed $109 $-1 #
coedge $-1 $428 $433 $174 $280 forward $274 $-1 #
edge $-1 $434 31.434523210515966 $435 38.00265966910294 $279 $436 forward 7 unknown #
loop $-1 $-1 $286 $175 #
plane-surface $-1 50.249232546925498 -34.522688400358248 0.35947464523320605 0 -0.78801076186113728 0.61566146476048833 1 0 0 forward_v I I I I #
loop $-1 $-1 $437 $111 #
coedge $-1 $284 $284 $285 $438 reversed $176 $-1 #
coedge $-1 $285 $285 $284 $438 forward $178 $-1 #
coedge $-1 $286 $286 $179 $287 forward $281 $-1 #
edge $-1 $439 3.4954836183495873e-016 $439 6.2831853071796004 $286 $440 forward 7 unknown #
loop $-1 $-1 $293 $180 #
plane-surface $-1 50.249232546925498 -34.522688400358248 0.35947464523320605 0 -0.78801076186113728 0.61566146476048833 1 0 0 forward_v I I I I #
loop $-1 $-1 $441 $114 #
coedge $-1 $291 $291 $292 $442 reversed $181 $-1 #
coedge $-1 $292 $292 $291 $442 forward $183 $-1 #
coedge $-1 $293 $293 $184 $294 forward $288 $-1 #
edge $-1 $443 3.4954836183495873e-016 $443 6.2831853071796004 $293 $444 forward 7 unknown #
loop $-1 $-1 $300 $185 #
plane-surface $-1 50.249232546925498 -34.522688400358248 0.35947464523320605 0 -0.78801076186113728 0.61566146476048833 1 0 0 forward_v I I I I #
loop $-1 $-1 $445 $117 #
coedge $-1 $298 $298 $299 $446 reversed $186 $-1 #
coedge $-1 $299 $299 $298 $446 forward $188 $-1 #
coedge $-1 $300 $300 $189 $301 forward $295 $-1 #
edge $-1 $447 3.4954836183495873e-016 $447 6.2831853071796004 $300 $448 forward 7 unknown #
face $-1 $449 $450 $64 $-1 $451 reversed single #
loop $-1 $-1 $452 $190 #
plane-surface $-1 -32.488651773842477 89.756592338720793 131.13276860439419 -1 0 0 0 0.78801076186113728 0.61566146476048833 forward_v I I I I #
coedge $-1 $453 $454 $455 $456 reversed $191 $-1 #
coedge $-1 $307 $193 $457 $458 reversed $121 $-1 #
coedge $-1 $193 $306 $453 $459 reversed $121 $-1 #
coedge $-1 $455 $460 $193 $309 forward $461 $-1 #
edge $-1 $462 10.355607769002141 $463 15.487198235215864 $308 $464 forward 7 unknown #
loop $-1 $-1 $315 $194 #
plane-surface $-1 -44.257913443659426 -7.9858894157107159 54.767974620955115 0 0.78801076186113728 0.61566146476048833 1 0 0 forward_v I I I I #
loop $-1 $-1 $465 $123 #
coedge $-1 $313 $313 $314 $466 reversed $195 $-1 #
coedge $-1 $314 $314 $313 $466 forward $197 $-1 #
coedge $-1 $315 $315 $198 $316 forward $310 $-1 #
edge $-1 $467 1.0502399445180745e-015 $467 6.2831853071796013 $315 $468 forward 7 unknown #
loop $-1 $-1 $322 $199 #
plane-surface $-1 -44.257913443659426 -7.9858894157107159 54.767974620955115 0 0.78801076186113728 0.61566146476048833 1 0 0 forward_v I I I I #
loop $-1 $-1 $469 $126 #
coedge $-1 $320 $320 $321 $470 reversed $200 $-1 #
coedge $-1 $321 $321 $320 $470 forward $202 $-1 #
coedge $-1 $322 $322 $203 $323 forward $317 $-1 #
edge $-1 $471 1.0502399445180745e-015 $471 6.2831853071796013 $322 $472 forward 7 unknown #
loop $-1 $-1 $329 $204 #
plane-surface $-1 -44.257913443659426 -7.9858894157107159 54.767974620955115 0 0.78801076186113728 0.61566146476048833 1 0 0 forward_v I I I I #
loop $-1 $-1 $473 $129 #
coedge $-1 $327 $327 $328 $474 reversed $205 $-1 #
coedge $-1 $328 $328 $327 $474 forward $207 $-1 #
coedge $-1 $329 $329 $208 $330 forward $324 $-1 #
edge $-1 $475 1.0502399445180745e-015 $475 6.2831853071796013 $329 $476 forward 7 unknown #
face $-1 $477 $478 $68 $-1 $479 reversed single #
loop $-1 $-1 $337 $209 #
plane-surface $-1 0 0 6.9276111038201735 0 0 1 1 0 0 forward_v I I I I #
coedge $-1 $480 $481 $482 $483 reversed $210 $-1 #
coedge $-1 $336 $212 $484 $485 reversed $133 $-1 #
coedge $-1 $212 $335 $480 $486 reversed $133 $-1 #
coedge $-1 $482 $487 $212 $338 forward $332 $-1 #
edge $-1 $488 10.355607769002141 $489 15.487198235215864 $337 $490 forward 7 unknown #
loop $-1 $-1 $344 $213 #
plane-surface $-1 50.249232546925498 -7.9858894157107159 54.767974620955115 0 0.78801076186113728 0.61566146476048833 1 0 0 forward_v I I I I #
loop $-1 $-1 $491 $135 #
coedge $-1 $342 $342 $343 $492 reversed $214 $-1 #
coedge $-1 $343 $343 $342 $492 forward $216 $-1 #
coedge $-1 $344 $344 $217 $345 forward $339 $-1 #
edge $-1 $493 1.0502399445180745e-015 $493 6.2831853071796013 $344 $494 forward 7 unknown #
loop $-1 $-1 $351 $218 #
plane-surface $-1 50.249232546925498 -7.9858894157107159 54.767974620955115 0 0.78801076186113728 0.61566146476048833 1 0 0 forward_v I I I I #
loop $-1 $-1 $495 $138 #
coedge $-1 $349 $349 $350 $496 reversed $219 $-1 #
coedge $-1 $350 $350 $349 $496 forward $221 $-1 #
coedge $-1 $351 $351 $222 $352 forward $346 $-1 #
edge $-1 $497 1.0502399445180745e-015 $497 6.2831853071796013 $351 $498 forward 7 unknown #
loop $-1 $-1 $358 $223 #
plane-surface $-1 50.249232546925498 -7.9858894157107159 54.767974620955115 0 0.78801076186113728 0.61566146476048833 1 0 0 forward_v I I I I #
loop $-1 $-1 $499 $141 #
coedge $-1 $356 $356 $357 $500 reversed $224 $-1 #
coedge $-1 $357 $357 $356 $500 forward $226 $-1 #
coedge $-1 $358 $358 $227 $359 forward $353 $-1 #
edge $-1 $501 1.0502399445180745e-015 $501 6.2831853071796013 $358 $502 forward 7 unknown #
face $-1 $503 $504 $54 $-1 $505 reversed single #
loop $-1 $-1 $506 $228 #
plane-surface $-1 -62.018494216742454 0 0 1 0 0 0 0 -1 forward_v I I I I #
coedge $-1 $507 $371 $508 $509 forward $229 $-1 #
coedge $-1 $510 $231 $507 $511 forward $145 $-1 #
coedge $-1 $231 $510 $512 $513 forward $145 $-1 #
coedge $-1 $374 $373 $231 $367 reversed $375 $-1 #
edge $-1 $514 -34.522688400358255 $515 34.522688400358255 $366 $516 forward 7 unknown #
coedge $-1 $233 $232 $517 $518 forward $91 $-1 #
coedge $-1 $519 $520 $232 $370 reversed $504 $-1 #
edge $-1 $377 -62.018494216742454 $521 62.018494216742454 $369 $522 forward 7 unknown #
coedge $-1 $363 $523 $233 $372 reversed $229 $-1 #
edge $-1 $524 -62.018494216742454 $376 62.018494216742454 $371 $525 forward 7 unknown #
coedge $-1 $366 $234 $523 $526 forward $375 $-1 #
coedge $-1 $234 $366 $519 $527 reversed $375 $-1 #
loop $-1 $-1 $373 $503 #
vertex $-1 $235 $528 #
vertex $-1 $235 $529 #
straight-curve $-1 62.018494216742454 0 6.9276111038201735 0 1 0 I I #
face $-1 $530 $531 $55 $-1 $532 reversed single #
loop $-1 $-1 $384 $236 #
plane-surface $-1 0 -34.522688400358255 0 0 1 0 0 0 1 forward_v I I I I #
coedge $-1 $533 $534 $383 $535 forward $237 $-1 #
coedge $-1 $391 $239 $382 $535 reversed $149 $-1 #
coedge $-1 $389 $536 $239 $385 forward $380 $-1 #
edge $-1 $537 -4.2138055519100863 $392 -1.2138055519100868 $384 $538 forward 7 unknown #
coedge $-1 $241 $240 $539 $540 reversed $94 $-1 #
coedge $-1 $541 $542 $240 $388 forward $543 $-1 #
edge $-1 $544 -32.507076884187747 $393 -26.515757780921668 $387 $545 forward 7 unknown #
coedge $-1 $546 $384 $241 $390 forward $380 $-1 #
edge $-1 $392 26.515757780921668 $547 32.507076884187747 $389 $548 forward 7 unknown #
coedge $-1 $242 $383 $541 $549 reversed $149 $-1 #
vertex $-1 $390 $550 #
vertex $-1 $388 $551 #
straight-curve $-1 -56.027175113476375 0 -3.9276111038201735 0 1 0 I I #
face $-1 $-1 $407 $56 $-1 $552 reversed single #
loop $-1 $-1 $553 $244 #
plane-surface $-1 0 0 6.9276111038201735 0 0 1 1 0 0 forward_v I I I I #
coedge $-1 $554 $555 $556 $557 reversed $245 $-1 #
coedge $-1 $558 $247 $249 $405 forward $153 $-1 #
coedge $-1 $247 $558 $554 $559 forward $153 $-1 #
coedge $-1 $556 $250 $247 $402 forward $407 $-1 #
edge $-1 $409 -33.898218391646665 $560 -10.359695052012764 $401 $561 forward 7 unknown #
coedge $-1 $562 $563 $248 $404 forward $396 $-1 #
edge $-1 $564 -36.741487143250346 $408 -31.609896677036623 $403 $565 forward 7 unknown #
edge $-1 $409 -1.1548452884789174e-014 $564 8.3350847177191216 $249 $566 forward 7 unknown #
coedge $-1 $250 $556 $562 $567 reversed $407 $-1 #
loop $-1 $-1 $556 $395 #
vertex $-1 $567 $568 #
vertex $-1 $251 $569 #
straight-curve $-1 -56.027175113476375 -34.522688400358255 38.362134314336139 0 0 -1 I I #
coedge $-1 $411 $411 $-1 $570 reversed $254 $-1 #
edge $-1 $571 0 $571 6.2831853071796004 $255 $572 forward 7 unknown #
vertex $-1 $258 $573 #
ellipse-curve $-1 -51.319470445549598 -31.956893167251394 3.6435428745266867 0 -0.78801076186113728 0.61566146476048833 0.5 0 0 1 I I #
coedge $-1 $415 $415 $-1 $574 reversed $261 $-1 #
edge $-1 $575 0 $575 6.2831853071796004 $262 $576 forward 7 unknown #
vertex $-1 $265 $577 #
ellipse-curve $-1 -44.257913443659426 -31.956893167251394 3.6435428745266867 0 -0.78801076186113728 0.61566146476048833 0.5 0 0 1 I I #
coedge $-1 $419 $419 $-1 $578 reversed $268 $-1 #
edge $-1 $579 0 $579 6.2831853071796004 $269 $580 forward 7 unknown #
vertex $-1 $272 $581 #
ellipse-curve $-1 -37.196356441769254 -31.956893167251394 3.6435428745266867 0 -0.78801076186113728 0.61566146476048833 0.5 0 0 1 I I #
face $-1 $-1 $582 $60 $-1 $583 reversed single #
loop $-1 $-1 $430 $273 #
plane-surface $-1 0 0 6.9276111038201735 0 0 1 1 0 0 forward_v I I I I #
coedge $-1 $584 $276 $278 $432 forward $172 $-1 #
coedge $-1 $276 $584 $585 $586 reversed $172 $-1 #
coedge $-1 $587 $279 $276 $429 forward $274 $-1 #
edge $-1 $435 13.3553546036458 $588 36.893877943279698 $428 $589 forward 7 unknown #
coedge $-1 $590 $591 $277 $431 forward $424 $-1 #
edge $-1 $592 -36.741487143250346 $434 -31.609896677036623 $430 $593 forward 7 unknown #
edge $-1 $435 -1.1548452884789174e-014 $592 8.3350847177191216 $278 $594 forward 7 unknown #
coedge $-1 $279 $587 $590 $595 reversed $274 $-1 #
vertex $-1 $595 $596 #
vertex $-1 $280 $597 #
straight-curve $-1 38.479970877108549 -34.522688400358255 38.362134314336139 0 0 -1 I I #
coedge $-1 $437 $437 $-1 $598 reversed $283 $-1 #
edge $-1 $599 0 $599 6.2831853071796004 $284 $600 forward 7 unknown #
vertex $-1 $287 $601 #
ellipse-curve $-1 43.187675545035333 -31.956893167251394 3.6435428745266867 0 -0.78801076186113728 0.61566146476048833 0.5 0 0 1 I I #
coedge $-1 $441 $441 $-1 $602 reversed $290 $-1 #
edge $-1 $603 0 $603 6.2831853071796004 $291 $604 forward 7 unknown #
vertex $-1 $294 $605 #
ellipse-curve $-1 50.249232546925498 -31.956893167251394 3.6435428745266867 0 -0.78801076186113728 0.61566146476048833 0.5 0 0 1 I I #
coedge $-1 $445 $445 $-1 $606 reversed $297 $-1 #
edge $-1 $607 0 $607 6.2831853071796004 $298 $608 forward 7 unknown #
vertex $-1 $301 $609 #
ellipse-curve $-1 57.310789548815677 -31.956893167251394 3.6435428745266867 0 -0.78801076186113728 0.61566146476048833 0.5 0 0 1 I I #
face $-1 $-1 $461 $64 $-1 $610 forward single #
loop $-1 $-1 $611 $302 #
plane-surface $-1 0 34.522688400358255 0 0 -1 0 0 0 -1 forward_v I I I I #
coedge $-1 $612 $613 $614 $615 reversed $303 $-1 #
coedge $-1 $616 $305 $307 $459 forward $191 $-1 #
coedge $-1 $305 $616 $612 $617 forward $191 $-1 #
coedge $-1 $614 $308 $305 $456 forward $461 $-1 #
edge $-1 $463 -33.898218391646665 $618 -10.359695052012764 $455 $619 forward 7 unknown #
coedge $-1 $620 $621 $306 $458 forward $450 $-1 #
edge $-1 $622 -65.206909656963902 $462 -58.638773198376917 $457 $623 forward 7 unknown #
edge $-1 $463 60.710292082997384 $622 69.045376800716525 $307 $624 forward 7 unknown #
coedge $-1 $308 $614 $620 $625 forward $461 $-1 #
loop $-1 $-1 $614 $449 #
vertex $-1 $458 $626 #
vertex $-1 $309 $627 #
straight-curve $-1 -56.027175113476375 44.878296169360397 6.9276111038201762 0 -1 0 I I #
coedge $-1 $465 $465 $-1 $628 reversed $312 $-1 #
edge $-1 $629 0 $629 6.2831853071796004 $313 $630 forward 7 unknown #
vertex $-1 $316 $631 #
ellipse-curve $-1 -51.319470445549598 31.956893167251394 3.6435428745266911 0 0.78801076186113728 0.61566146476048833 0.5 0 0 1 I I #
coedge $-1 $469 $469 $-1 $632 reversed $319 $-1 #
edge $-1 $633 0 $633 6.2831853071796004 $320 $634 forward 7 unknown #
vertex $-1 $323 $635 #
ellipse-curve $-1 -44.257913443659426 31.956893167251394 3.6435428745266911 0 0.78801076186113728 0.61566146476048833 0.5 0 0 1 I I #
coedge $-1 $473 $473 $-1 $636 reversed $326 $-1 #
edge $-1 $637 0 $637 6.2831853071796004 $327 $638 forward 7 unknown #
vertex $-1 $330 $639 #
ellipse-curve $-1 -37.196356441769254 31.956893167251394 3.6435428745266911 0 0.78801076186113728 0.61566146476048833 0.5 0 0 1 I I #
face $-1 $-1 $640 $68 $-1 $641 reversed single #
loop $-1 $-1 $642 $331 #
plane-surface $-1 62.018494216742454 0 0 -1 0 0 0 0 1 forward_v I I I I #
coedge $-1 $643 $334 $336 $486 forward $210 $-1 #
coedge $-1 $334 $643 $642 $644 reversed $210 $-1 #
coedge $-1 $645 $337 $334 $483 forward $332 $-1 #
edge $-1 $489 13.3553546036458 $646 36.893877943279698 $482 $647 forward 7 unknown #
coedge $-1 $648 $649 $335 $485 forward $640 $-1 #
edge $-1 $650 -65.206909656963902 $488 -58.638773198376917 $484 $651 forward 7 unknown #
edge $-1 $489 60.710292082997384 $650 69.045376800716525 $336 $652 forward 7 unknown #
coedge $-1 $337 $645 $648 $653 forward $332 $-1 #
vertex $-1 $485 $654 #
vertex $-1 $338 $655 #
straight-curve $-1 38.479970877108549 44.878296169360397 6.9276111038201762 0 -1 0 I I #
coedge $-1 $491 $491 $-1 $656 reversed $341 $-1 #
edge $-1 $657 0 $657 6.2831853071796004 $342 $658 forward 7 unknown #
vertex $-1 $345 $659 #
ellipse-curve $-1 43.187675545035333 31.956893167251394 3.6435428745266911 0 0.78801076186113728 0.61566146476048833 0.5 0 0 1 I I #
coedge $-1 $495 $495 $-1 $660 reversed $348 $-1 #
edge $-1 $661 0 $661 6.2831853071796004 $349 $662 forward 7 unknown #
vertex $-1 $352 $663 #
ellipse-curve $-1 50.249232546925498 31.956893167251394 3.6435428745266911 0 0.78801076186113728 0.61566146476048833 0.5 0 0 1 I I #
coedge $-1 $499 $499 $-1 $664 reversed $355 $-1 #
edge $-1 $665 0 $665 6.2831853071796004 $356 $666 forward 7 unknown #
vertex $-1 $359 $667 #
ellipse-curve $-1 57.310789548815677 31.956893167251394 3.6435428745266911 0 0.78801076186113728 0.61566146476048833 0.5 0 0 1 I I #
face $-1 $-1 $375 $54 $-1 $668 reversed single #
loop $-1 $-1 $519 $360 #
plane-surface $-1 0 34.522688400358255 0 0 -1 0 0 0 -1 forward_v I I I I #
coedge $-1 $669 $517 $520 $670 forward $361 $-1 #
coedge $-1 $523 $363 $364 $511 reversed $229 $-1 #
coedge $-1 $517 $669 $363 $509 reversed $361 $-1 #
edge $-1 $524 -6.9276111038201735 $671 6.9276111038201735 $508 $672 forward 7 unknown #
coedge $-1 $365 $364 $669 $673 forward $145 $-1 #
edge $-1 $515 -62.018494216742454 $671 62.018494216742454 $507 $674 forward 7 unknown #
coedge $-1 $520 $519 $365 $513 reversed $504 $-1 #
edge $-1 $675 -62.018494216742454 $514 62.018494216742454 $512 $676 forward 7 unknown #
vertex $-1 $367 $677 #
vertex $-1 $526 $678 #
straight-curve $-1 62.018494216742454 0 -6.9276111038201735 0 -1 0 I I #
coedge $-1 $506 $508 $368 $518 reversed $361 $-1 #
edge $-1 $521 -34.522688400358255 $524 34.522688400358255 $517 $679 forward 7 unknown #
coedge $-1 $512 $369 $374 $527 forward $504 $-1 #
coedge $-1 $369 $512 $506 $670 reversed $504 $-1 #
vertex $-1 $370 $680 #
straight-curve $-1 0 34.522688400358255 6.9276111038201735 -1 0 0 I I #
coedge $-1 $371 $507 $373 $526 reversed $229 $-1 #
vertex $-1 $518 $681 #
straight-curve $-1 0 -34.522688400358255 6.9276111038201735 1 0 0 I I #
edge $-1 $376 -6.9276111038201735 $515 6.9276111038201735 $373 $682 forward 7 unknown #
edge $-1 $377 -6.9276111038201735 $514 6.9276111038201735 $374 $683 forward 7 unknown #
point $-1 62.018494216742454 -34.522688400358255 6.9276111038201735 #
point $-1 62.018494216742454 34.522688400358255 6.9276111038201735 #
face $-1 $-1 $543 $55 $-1 $684 reversed single #
loop $-1 $-1 $539 $379 #
plane-surface $-1 -62.018494216742454 0 0 1 0 0 0 0 -1 forward_v I I I I #
coedge $-1 $685 $382 $536 $686 forward $237 $-1 #
coedge $-1 $382 $685 $687 $688 forward $237 $-1 #
edge $-1 $689 -34.522688400358255 $537 34.522688400358255 $382 $690 forward 7 unknown #
coedge $-1 $384 $546 $533 $686 reversed $380 $-1 #
vertex $-1 $686 $691 #
straight-curve $-1 -56.027175113476375 -34.522688400358255 -2.7138055519100868 0 0 1 I I #
coedge $-1 $692 $693 $386 $540 forward $531 $-1 #
edge $-1 $547 -34.522688400358255 $544 34.522688400358255 $539 $694 forward 7 unknown #
coedge $-1 $687 $387 $391 $549 forward $543 $-1 #
coedge $-1 $387 $687 $692 $695 reversed $543 $-1 #
loop $-1 $-1 $541 $530 #
vertex $-1 $695 $696 #
straight-curve $-1 -29.511417332554707 34.522688400358255 -3.9276111038201735 1 0 0 I I #
coedge $-1 $536 $389 $693 $697 forward $380 $-1 #
vertex $-1 $697 $698 #
straight-curve $-1 -29.511417332554707 -34.522688400358255 -3.9276111038201735 -1 0 0 I I #
edge $-1 $393 1.2138055519100868 $689 4.2138055519100863 $541 $699 forward 7 unknown #
point $-1 -56.027175113476375 -34.522688400358255 -3.9276111038201735 #
point $-1 -56.027175113476375 34.522688400358255 -3.9276111038201735 #
plane-surface $-1 0 -34.522688400358255 0 0 1 0 0 0 1 forward_v I I I I #
coedge $-1 $563 $562 $555 $700 forward $396 $-1 #
coedge $-1 $555 $398 $400 $559 reversed $245 $-1 #
coedge $-1 $398 $554 $553 $700 reversed $245 $-1 #
coedge $-1 $406 $401 $398 $557 forward $407 $-1 #
edge $-1 $560 -38.00265966910294 $701 -31.434523210515966 $556 $702 forward 7 unknown #
coedge $-1 $400 $399 $563 $703 reversed $153 $-1 #
edge $-1 $704 -8.3350847177191216 $560 1.1548452884789174e-014 $554 $705 forward 7 unknown #
vertex $-1 $402 $706 #
straight-curve $-1 -22.128956721829713 -34.522688400358255 0.35947464523319417 1 0 0 I I #
coedge $-1 $553 $403 $406 $567 forward $396 $-1 #
coedge $-1 $403 $553 $558 $703 forward $396 $-1 #
vertex $-1 $404 $707 #
straight-curve $-1 -56.027175113476375 -66.132585077394879 6.9276111038201762 0 -1 0 I I #
straight-curve $-1 -56.027175113476375 -34.522688400358248 0.35947464523320605 0 0.61566146476048833 0.78801076186113728 I I #
edge $-1 $408 -56.027175113476375 $701 -32.488651773842477 $406 $708 forward 7 unknown #
point $-1 -56.027175113476375 -34.522688400358255 6.9276111038201735 #
point $-1 -56.027175113476375 -34.522688400358255 0.35947464523319694 #
edge $-1 $709 1 $709 0 $411 $-1 forward 7 unknown #
vertex $-1 $412 $710 #
ellipse-curve $-1 -51.319470445549598 -30.92954761422714 2.8408925826750338 0 -0.78801076186113728 0.61566146476048833 0.5 0 0 1 I I #
point $-1 -50.819470445549598 -31.956893167251401 3.6435428745266925 #
edge $-1 $711 1 $711 0 $415 $-1 forward 7 unknown #
vertex $-1 $416 $712 #
ellipse-curve $-1 -44.257913443659426 -30.92954761422714 2.8408925826750338 0 -0.78801076186113728 0.61566146476048833 0.5 0 0 1 I I #
point $-1 -43.757913443659426 -31.956893167251401 3.6435428745266925 #
edge $-1 $713 1 $713 0 $419 $-1 forward 7 unknown #
vertex $-1 $420 $714 #
ellipse-curve $-1 -37.196356441769254 -30.92954761422714 2.8408925826750338 0 -0.78801076186113728 0.61566146476048833 0.5 0 0 1 I I #
point $-1 -36.696356441769254 -31.956893167251401 3.6435428745266925 #
loop $-1 $-1 $585 $423 #
plane-surface $-1 62.018494216742454 0 0 -1 0 0 0 0 1 forward_v I I I I #
coedge $-1 $427 $426 $591 $715 reversed $172 $-1 #
coedge $-1 $716 $717 $427 $586 forward $582 $-1 #
edge $-1 $588 -10.485509509487262 $718 -2.150424791768129 $585 $719 forward 7 unknown #
coedge $-1 $433 $428 $717 $720 reversed $274 $-1 #
vertex $-1 $429 $721 #
straight-curve $-1 25.124616273462749 -34.522688400358255 0.35947464523319417 1 0 0 I I #
coedge $-1 $722 $430 $433 $595 forward $424 $-1 #
coedge $-1 $430 $722 $584 $715 forward $424 $-1 #
vertex $-1 $431 $723 #
straight-curve $-1 38.479970877108549 -66.132585077394879 6.9276111038201762 0 -1 0 I I #
straight-curve $-1 38.479970877108549 -34.522688400358248 0.35947464523320605 0 0.61566146476048833 0.78801076186113728 I I #
edge $-1 $434 38.479970877108549 $724 62.018494216742454 $433 $725 forward 7 unknown #
point $-1 38.479970877108549 -34.522688400358255 6.9276111038201735 #
point $-1 38.479970877108549 -34.522688400358255 0.35947464523319694 #
edge $-1 $726 1 $726 0 $437 $-1 forward 7 unknown #
vertex $-1 $438 $727 #
ellipse-curve $-1 43.187675545035333 -30.92954761422714 2.8408925826750338 0 -0.78801076186113728 0.61566146476048833 0.5 0 0 1 I I #
point $-1 43.687675545035333 -31.956893167251401 3.6435428745266925 #
edge $-1 $728 1 $728 0 $441 $-1 forward 7 unknown #
vertex $-1 $442 $729 #
ellipse-curve $-1 50.249232546925498 -30.92954761422714 2.8408925826750338 0 -0.78801076186113728 0.61566146476048833 0.5 0 0 1 I I #
point $-1 50.749232546925498 -31.956893167251401 3.6435428745266925 #
edge $-1 $730 1 $730 0 $445 $-1 forward 7 unknown #
vertex $-1 $446 $731 #
ellipse-curve $-1 57.310789548815677 -30.92954761422714 2.8408925826750338 0 -0.78801076186113728 0.61566146476048833 0.5 0 0 1 I I #
point $-1 57.810789548815677 -31.956893167251401 3.6435428745266925 #
plane-surface $-1 0 0 6.9276111038201735 0 0 1 1 0 0 forward_v I I I I #
coedge $-1 $621 $620 $613 $732 forward $450 $-1 #
coedge $-1 $613 $452 $454 $617 reversed $303 $-1 #
coedge $-1 $452 $612 $611 $732 reversed $303 $-1 #
coedge $-1 $460 $455 $452 $615 forward $461 $-1 #
edge $-1 $618 -15.487198235215864 $733 -10.355607769002141 $614 $734 forward 7 unknown #
coedge $-1 $454 $453 $621 $735 reversed $191 $-1 #
edge $-1 $736 -69.045376800716525 $618 -60.710292082997384 $612 $737 forward 7 unknown #
vertex $-1 $456 $738 #
straight-curve $-1 -22.128956721829713 29.391097934144533 6.9276111038201762 1 0 0 I I #
coedge $-1 $611 $457 $460 $625 reversed $450 $-1 #
coedge $-1 $457 $611 $616 $735 forward $450 $-1 #
vertex $-1 $458 $739 #
straight-curve $-1 -56.027175113476375 34.522688400358255 65.566384302197093 0 0 1 I I #
straight-curve $-1 -56.027175113476375 -7.9858894157107159 54.767974620955115 0 0.61566146476048833 -0.78801076186113728 I I #
edge $-1 $733 32.488651773842477 $462 56.027175113476375 $620 $740 forward 7 unknown #
point $-1 -56.027175113476375 34.522688400358255 6.9276111038201735 #
point $-1 -56.027175113476375 29.391097934144533 6.9276111038201762 #
edge $-1 $741 1 $741 0 $465 $-1 forward 7 unknown #
vertex $-1 $466 $742 #
ellipse-curve $-1 -51.319470445549598 30.92954761422714 2.8408925826750373 0 0.78801076186113728 0.61566146476048833 0.5 0 0 1 I I #
point $-1 -50.819470445549598 31.956893167251401 3.643542874526696 #
edge $-1 $743 1 $743 0 $469 $-1 forward 7 unknown #
vertex $-1 $470 $744 #
ellipse-curve $-1 -44.257913443659426 30.92954761422714 2.8408925826750373 0 0.78801076186113728 0.61566146476048833 0.5 0 0 1 I I #
point $-1 -43.757913443659426 31.956893167251401 3.643542874526696 #
edge $-1 $745 1 $745 0 $473 $-1 forward 7 unknown #
vertex $-1 $474 $746 #
ellipse-curve $-1 -37.196356441769254 30.92954761422714 2.8408925826750373 0 0.78801076186113728 0.61566146476048833 0.5 0 0 1 I I #
point $-1 -36.696356441769254 31.956893167251401 3.643542874526696 #
loop $-1 $-1 $484 $477 #
plane-surface $-1 0 34.522688400358255 0 0 -1 0 0 0 -1 forward_v I I I I #
coedge $-1 $747 $748 $481 $644 forward $478 $-1 #
coedge $-1 $481 $480 $649 $749 reversed $210 $-1 #
edge $-1 $646 36.673113192126387 $750 45.008197909845528 $642 $751 forward 7 unknown #
coedge $-1 $487 $482 $748 $752 forward $332 $-1 #
vertex $-1 $752 $753 #
straight-curve $-1 25.124616273462749 29.391097934144533 6.9276111038201762 1 0 0 I I #
coedge $-1 $754 $484 $487 $653 reversed $640 $-1 #
coedge $-1 $484 $754 $643 $749 forward $640 $-1 #
vertex $-1 $485 $755 #
straight-curve $-1 38.479970877108549 34.522688400358255 65.566384302197093 0 0 1 I I #
straight-curve $-1 38.479970877108549 -7.9858894157107159 54.767974620955115 0 0.61566146476048833 -0.78801076186113728 I I #
edge $-1 $756 -62.018494216742454 $488 -38.479970877108549 $648 $757 forward 7 unknown #
point $-1 38.479970877108549 34.522688400358255 6.9276111038201735 #
point $-1 38.479970877108549 29.391097934144533 6.9276111038201762 #
edge $-1 $758 1 $758 0 $491 $-1 forward 7 unknown #
vertex $-1 $492 $759 #
ellipse-curve $-1 43.187675545035333 30.92954761422714 2.8408925826750373 0 0.78801076186113728 0.61566146476048833 0.5 0 0 1 I I #
point $-1 43.687675545035333 31.956893167251401 3.643542874526696 #
edge $-1 $760 1 $760 0 $495 $-1 forward 7 unknown #
vertex $-1 $496 $761 #
ellipse-curve $-1 50.249232546925498 30.92954761422714 2.8408925826750373 0 0.78801076186113728 0.61566146476048833 0.5 0 0 1 I I #
point $-1 50.749232546925498 31.956893167251401 3.643542874526696 #
edge $-1 $762 1 $762 0 $499 $-1 forward 7 unknown #
vertex $-1 $500 $763 #
ellipse-curve $-1 57.310789548815677 30.92954761422714 2.8408925826750373 0 0.78801076186113728 0.61566146476048833 0.5 0 0 1 I I #
point $-1 57.810789548815677 31.956893167251401 3.643542874526696 #
plane-surface $-1 62.018494216742454 0 0 -1 0 0 0 0 1 forward_v I I I I #
coedge $-1 $508 $506 $510 $673 reversed $361 $-1 #
edge $-1 $521 -6.9276111038201735 $675 6.9276111038201735 $520 $764 forward 7 unknown #
vertex $-1 $673 $765 #
straight-curve $-1 -62.018494216742454 -34.522688400358255 0 0 0 -1 I I #
edge $-1 $671 -34.522688400358255 $675 34.522688400358255 $669 $766 forward 7 unknown #
straight-curve $-1 0 -34.522688400358255 -6.9276111038201735 -1 0 0 I I #
vertex $-1 $513 $767 #
straight-curve $-1 0 34.522688400358255 -6.9276111038201735 1 0 0 I I #
point $-1 62.018494216742454 34.522688400358255 -6.9276111038201735 #
point $-1 62.018494216742454 -34.522688400358255 -6.9276111038201735 #
straight-curve $-1 -62.018494216742454 0 6.9276111038201735 0 -1 0 I I #
point $-1 -62.018494216742454 34.522688400358255 6.9276111038201735 #
point $-1 -62.018494216742454 -34.522688400358255 6.9276111038201735 #
straight-curve $-1 62.018494216742454 -34.522688400358255 0 0 0 -1 I I #
straight-curve $-1 62.018494216742454 34.522688400358255 0 0 0 -1 I I #
plane-surface $-1 0 34.522688400358255 0 0 -1 0 0 0 -1 forward_v I I I I #
coedge $-1 $534 $533 $768 $769 forward $237 $-1 #
edge $-1 $537 56.027175113476375 $770 62.018494216742454 $536 $771 forward 7 unknown #
coedge $-1 $542 $541 $534 $688 reversed $543 $-1 #
edge $-1 $772 -62.018494216742454 $689 -56.027175113476375 $687 $773 forward 7 unknown #
vertex $-1 $549 $774 #
straight-curve $-1 -56.027175113476375 0 -6.9276111038201735 0 -1 0 I I #
point $-1 -56.027175113476375 -34.522688400358255 -6.9276111038201735 #
coedge $-1 $768 $539 $542 $695 forward $531 $-1 #
coedge $-1 $539 $768 $546 $697 reversed $531 $-1 #
straight-curve $-1 -62.018494216742454 0 -3.9276111038201735 0 1 0 I I #
edge $-1 $544 3.9276111038201735 $772 6.9276111038201735 $542 $775 forward 7 unknown #
point $-1 -62.018494216742454 34.522688400358255 -3.9276111038201735 #
edge $-1 $547 3.9276111038201735 $770 6.9276111038201735 $693 $776 forward 7 unknown #
point $-1 -62.018494216742454 -34.522688400358255 -3.9276111038201735 #
straight-curve $-1 -56.027175113476375 34.522688400358255 -2.7138055519100868 0 0 -1 I I #
edge $-1 $701 31.609896677036623 $704 36.741487143250346 $553 $777 forward 7 unknown #
vertex $-1 $557 $778 #
straight-curve $-1 -32.488651773842477 -34.522688400358255 38.362134314336139 0 0 1 I I #
edge $-1 $704 10.359695052012764 $564 33.898218391646665 $563 $779 forward 7 unknown #
vertex $-1 $703 $780 #
straight-curve $-1 -32.488651773842477 -34.522688400358248 0.35947464523320605 0 -0.61566146476048833 -0.78801076186113728 I I #
point $-1 -32.488651773842477 -34.522688400358255 0.35947464523319694 #
point $-1 -56.027175113476375 -29.391097934144533 6.9276111038201735 #
straight-curve $-1 0 -34.522688400358255 6.9276111038201735 1 0 0 I I #
vertex $-1 $570 $781 #
point $-1 -50.819470445549598 -30.92954761422714 2.8408925826750338 #
vertex $-1 $574 $782 #
point $-1 -43.757913443659426 -30.92954761422714 2.8408925826750338 #
vertex $-1 $578 $783 #
point $-1 -36.696356441769254 -30.92954761422714 2.8408925826750338 #
edge $-1 $718 -36.893877943279698 $592 -13.3553546036458 $591 $784 forward 7 unknown #
coedge $-1 $717 $585 $722 $785 reversed $582 $-1 #
coedge $-1 $585 $716 $587 $720 forward $582 $-1 #
vertex $-1 $586 $786 #
straight-curve $-1 62.018494216742454 -28.067164256987297 8.6221689823064533 0 0.61566146476048833 0.78801076186113728 I I #
edge $-1 $724 -6.9276111038201735 $588 -0.35947464523319694 $717 $787 forward 7 unknown #
point $-1 62.018494216742447 -34.522688400358255 0.35947464523319694 #
coedge $-1 $591 $590 $716 $785 forward $424 $-1 #
point $-1 38.479970877108549 -29.391097934144533 6.9276111038201735 #
vertex $-1 $785 $788 #
straight-curve $-1 0 -34.522688400358255 6.9276111038201735 1 0 0 I I #
vertex $-1 $598 $789 #
point $-1 43.687675545035333 -30.92954761422714 2.8408925826750338 #
vertex $-1 $602 $790 #
point $-1 50.749232546925498 -30.92954761422714 2.8408925826750338 #
vertex $-1 $606 $791 #
point $-1 57.810789548815677 -30.92954761422714 2.8408925826750338 #
edge $-1 $733 58.638773198376917 $736 65.206909656963902 $611 $792 forward 7 unknown #
vertex $-1 $625 $793 #
straight-curve $-1 -32.488651773842477 44.878296169360397 6.9276111038201762 0 1 0 I I #
edge $-1 $736 10.359695052012764 $622 33.898218391646665 $621 $794 forward 7 unknown #
vertex $-1 $735 $795 #
straight-curve $-1 -32.488651773842477 -7.9858894157107159 54.767974620955115 0 -0.61566146476048833 0.78801076186113728 I I #
point $-1 -32.488651773842477 29.391097934144533 6.9276111038201762 #
point $-1 -56.027175113476375 34.522688400358263 0.35947464523319184 #
straight-curve $-1 0 34.522688400358255 6.9276111038201735 -1 0 0 I I #
vertex $-1 $628 $796 #
point $-1 -50.819470445549598 30.92954761422714 2.8408925826750373 #
vertex $-1 $632 $797 #
point $-1 -43.757913443659426 30.92954761422714 2.8408925826750373 #
vertex $-1 $636 $798 #
point $-1 -36.696356441769254 30.92954761422714 2.8408925826750373 #
coedge $-1 $748 $642 $754 $799 reversed $478 $-1 #
coedge $-1 $642 $747 $645 $752 reversed $478 $-1 #
edge $-1 $750 -36.893877943279698 $650 -13.3553546036458 $649 $800 forward 7 unknown #
vertex $-1 $644 $801 #
straight-curve $-1 62.018494216742454 6.8128753489528151 35.82641897016741 0 0.61566146476048833 -0.78801076186113728 I I #
edge $-1 $646 29.391097934144533 $756 34.522688400358255 $748 $802 forward 7 unknown #
point $-1 62.018494216742447 29.391097934144533 6.9276111038201762 #
coedge $-1 $649 $648 $747 $799 forward $640 $-1 #
point $-1 38.479970877108549 34.522688400358263 0.35947464523319184 #
vertex $-1 $752 $803 #
straight-curve $-1 0 34.522688400358255 6.9276111038201735 -1 0 0 I I #
vertex $-1 $656 $804 #
point $-1 43.687675545035333 30.92954761422714 2.8408925826750373 #
vertex $-1 $660 $805 #
point $-1 50.749232546925498 30.92954761422714 2.8408925826750373 #
vertex $-1 $664 $806 #
point $-1 57.810789548815677 30.92954761422714 2.8408925826750373 #
straight-curve $-1 -62.018494216742454 34.522688400358255 0 0 0 -1 I I #
point $-1 -62.018494216742454 -34.522688400358255 -6.9276111038201735 #
straight-curve $-1 -62.018494216742454 0 -6.9276111038201735 0 1 0 I I #
point $-1 -62.018494216742454 34.522688400358255 -6.9276111038201735 #
coedge $-1 $693 $692 $685 $769 reversed $531 $-1 #
edge $-1 $770 -34.522688400358255 $772 34.522688400358255 $768 $807 forward 7 unknown #
vertex $-1 $769 $808 #
straight-curve $-1 0 -34.522688400358255 -6.9276111038201735 -1 0 0 I I #
vertex $-1 $688 $809 #
straight-curve $-1 0 34.522688400358255 -6.9276111038201735 1 0 0 I I #
point $-1 -56.027175113476375 34.522688400358255 -6.9276111038201735 #
straight-curve $-1 -62.018494216742454 34.522688400358255 0 0 0 -1 I I #
straight-curve $-1 -62.018494216742454 -34.522688400358255 0 0 0 -1 I I #
straight-curve $-1 -32.488651773842477 -66.132585077394879 6.9276111038201762 0 1 0 I I #
point $-1 -32.488651773842477 -34.522688400358255 6.9276111038201735 #
straight-curve $-1 -22.128956721829713 -29.391097934144533 6.9276111038201726 -1 0 0 I I #
point $-1 -32.488651773842477 -29.391097934144533 6.9276111038201735 #
point $-1 -51.319470445549598 -30.535542233296574 2.5330618502947893 #
point $-1 -44.257913443659426 -30.535542233296574 2.5330618502947893 #
point $-1 -37.196356441769254 -30.535542233296574 2.5330618502947893 #
straight-curve $-1 25.124616273462749 -29.391097934144533 6.9276111038201726 -1 0 0 I I #
edge $-1 $724 -34.522688400358255 $718 -29.391097934144533 $716 $810 forward 7 unknown #
point $-1 62.018494216742447 -29.391097934144533 6.9276111038201735 #
straight-curve $-1 62.018494216742454 -34.522688400358255 0 0 0 -1 I I #
point $-1 62.018494216742454 -34.522688400358255 6.9276111038201735 #
point $-1 43.187675545035333 -30.535542233296574 2.5330618502947893 #
point $-1 50.249232546925498 -30.535542233296574 2.5330618502947893 #
point $-1 57.310789548815677 -30.535542233296574 2.5330618502947893 #
straight-curve $-1 -32.488651773842477 34.522688400358255 65.566384302197093 0 0 -1 I I #
point $-1 -32.488651773842477 34.522688400358255 6.9276111038201735 #
straight-curve $-1 -22.128956721829713 34.522688400358263 0.35947464523319539 -1 0 0 I I #
point $-1 -32.488651773842477 34.522688400358263 0.35947464523319184 #
point $-1 -51.319470445549598 30.535542233296574 2.5330618502947928 #
point $-1 -44.257913443659426 30.535542233296574 2.5330618502947928 #
point $-1 -37.196356441769254 30.535542233296574 2.5330618502947928 #
edge $-1 $756 -6.9276111038201735 $750 -0.35947464523319184 $747 $811 forward 7 unknown #
straight-curve $-1 25.124616273462749 34.522688400358263 0.35947464523319539 -1 0 0 I I #
point $-1 62.018494216742447 34.522688400358263 0.35947464523319184 #
straight-curve $-1 62.018494216742454 0 6.9276111038201735 0 1 0 I I #
point $-1 62.018494216742454 34.522688400358255 6.9276111038201735 #
point $-1 43.187675545035333 30.535542233296574 2.5330618502947928 #
point $-1 50.249232546925498 30.535542233296574 2.5330618502947928 #
point $-1 57.310789548815677 30.535542233296574 2.5330618502947928 #
straight-curve $-1 -62.018494216742454 0 -6.9276111038201735 0 1 0 I I #
point $-1 -62.018494216742454 -34.522688400358255 -6.9276111038201735 #
point $-1 -62.018494216742454 34.522688400358255 -6.9276111038201735 #
straight-curve $-1 62.018494216742454 0 6.9276111038201735 0 1 0 I I #
straight-curve $-1 62.018494216742454 34.522688400358255 0 0 0 -1 I I #
End-of-ACIS-data 