500 0 9 0           
7 Unknown 11 ACIS 5.0 NT 24 Thu Mar 25 23:33:04 1999 
-1 9.9999999999999995e-007 1e-010 
body $-1 $9 $-1 $10 #
body $-1 $11 $-1 $12 #
body $-1 $13 $-1 $14 #
body $-1 $15 $-1 $16 #
body $-1 $17 $-1 $18 #
body $-1 $19 $-1 $20 #
body $-1 $21 $-1 $22 #
body $-1 $23 $-1 $24 #
body $-1 $25 $-1 $26 #
lump $-1 $-1 $27 $0 #
transform $-1 1 0 0 0 1 0 0 0 1 72.21900082399975 46.920640975429045 20.436475840727812 1 rotate no_reflect no_shear #
lump $-1 $-1 $28 $1 #
transform $-1 1 0 0 0 1 0 0 0 1 72.21900082399975 46.920640975429045 20.436475840727812 1 rotate no_reflect no_shear #
lump $-1 $-1 $29 $2 #
transform $-1 1 0 0 0 1 0 0 0 1 72.21900082399975 46.920640975429045 20.436475840727812 1 rotate no_reflect no_shear #
lump $-1 $-1 $30 $3 #
transform $-1 1 0 0 0 1 0 0 0 1 72.21900082399975 46.920640975429045 20.436475840727812 1 rotate no_reflect no_shear #
lump $-1 $-1 $31 $4 #
transform $-1 1 0 0 0 1 0 0 0 1 72.21900082399975 46.920640975429045 20.436475840727812 1 rotate no_reflect no_shear #
lump $-1 $-1 $32 $5 #
transform $-1 1 0 0 0 1 0 0 0 1 72.21900082399975 46.920640975429045 20.436475840727812 1 rotate no_reflect no_shear #
lump $-1 $-1 $33 $6 #
transform $-1 1 0 0 0 1 0 0 0 1 72.21900082399975 46.920640975429045 20.436475840727812 1 rotate no_reflect no_shear #
lump $-1 $-1 $34 $7 #
transform $-1 1 0 0 0 1 0 0 0 1 72.21900082399975 46.920640975429045 20.436475840727812 1 rotate no_reflect no_shear #
lump $-1 $-1 $35 $8 #
transform $-1 1 0 0 0 1 0 0 0 1 72.21900082399975 46.920640975429045 20.436475840727812 1 rotate no_reflect no_shear #
shell $-1 $-1 $-1 $36 $-1 $9 #
shell $-1 $-1 $-1 $37 $-1 $11 #
shell $-1 $-1 $-1 $38 $-1 $13 #
shell $-1 $-1 $-1 $39 $-1 $15 #
shell $-1 $-1 $-1 $40 $-1 $17 #
shell $-1 $-1 $-1 $41 $-1 $19 #
shell $-1 $-1 $-1 $42 $-1 $21 #
shell $-1 $-1 $-1 $43 $-1 $23 #
shell $-1 $-1 $-1 $44 $-1 $25 #
face $-1 $45 $46 $27 $-1 $47 forward single #
face $-1 $48 $49 $28 $-1 $50 forward single #
face $-1 $51 $52 $29 $-1 $53 reversed single #
face $-1 $54 $55 $30 $-1 $56 forward single #
face $-1 $57 $58 $31 $-1 $59 forward single #
face $-1 $60 $61 $32 $-1 $62 forward single #
face $-1 $63 $64 $33 $-1 $65 reversed single #
face $-1 $66 $67 $34 $-1 $68 forward single #
face $-1 $69 $70 $35 $-1 $71 forward single #
face $-1 $72 $73 $27 $-1 $74 reversed single #
loop $-1 $-1 $75 $36 #
plane-surface $-1 0 0 20.436475840727812 0 0 1 1 0 0 forward_v I I I I #
face $-1 $76 $77 $28 $-1 $78 reversed single #
loop $-1 $-1 $79 $37 #
plane-surface $-1 0 -38.053180076041471 8.2826674081361062 0 0 1 1 0 0 forward_v I I I I #
face $-1 $80 $81 $29 $-1 $82 reversed single #
loop $-1 $-1 $83 $38 #
plane-surface $-1 -146.61007212621803 1.8277727249427222 139.53053172233484 0 1 0 -0.51503808176128008 0 0.85716729658548041 forward_v I I I I #
face $-1 $84 $85 $30 $-1 $86 forward single #
loop $-1 $87 $88 $39 #
cone-surface $-1 -67.764819036101471 4.4113521997670304 17.194488597352688 0.51503808176128008 0 -0.85716729658548041 0.85716729658548041 0 0.51503808176128008 1 I I 0 1 1 forward I I I I #
face $-1 $89 $90 $31 $-1 $91 forward single #
loop $-1 $92 $93 $40 #
cone-surface $-1 -67.764819036101471 8.2867214120034873 17.194488597352688 0.51503808176128008 0 -0.85716729658548041 0.85716729658548041 0 0.51503808176128008 1 I I 0 1 1 forward I I I I #
face $-1 $94 $95 $32 $-1 $96 forward single #
loop $-1 $97 $98 $41 #
cone-surface $-1 -67.764819036101471 12.162090624239944 17.194488597352688 0.51503808176128008 0 -0.85716729658548041 0.85716729658548041 0 0.51503808176128008 1 I I 0 1 1 forward I I I I #
face $-1 $99 $100 $33 $-1 $101 reversed single #
loop $-1 $-1 $102 $42 #
plane-surface $-1 82.909469251563223 6.6850981138841981 213.27306545706753 0 -1 0 -0.74314483375859142 0 -0.66913059716165679 forward_v I I I I #
face $-1 $103 $104 $34 $-1 $105 forward single #
loop $-1 $106 $107 $43 #
cone-surface $-1 66.448277262805192 -1.5790660021378216 14.185331396690518 -0.74314483375859142 0 -0.66913059716165679 0.66913059716165679 0 -0.74314483375859142 1 I I 0 1 1 forward I I I I #
face $-1 $108 $109 $35 $-1 $110 forward single #
loop $-1 $111 $112 $44 #
cone-surface $-1 66.448277262805192 3.3794324674753895 14.185331396690518 -0.74314483375859142 0 -0.66913059716165679 0.66913059716165679 0 -0.74314483375859142 1 I I 0 1 1 forward I I I I #
face $-1 $113 $114 $27 $-1 $115 reversed single #
loop $-1 $-1 $116 $45 #
plane-surface $-1 0 0 -20.436475840727812 0 0 1 1 0 0 forward_v I I I I #
coedge $-1 $117 $118 $119 $120 forward $46 $-1 #
face $-1 $121 $122 $28 $-1 $123 reversed single #
loop $-1 $-1 $124 $48 #
plane-surface $-1 0 -38.053180076041471 3.8089334317104147 0 0 1 1 0 0 forward_v I I I I #
coedge $-1 $125 $126 $127 $128 reversed $49 $-1 #
face $-1 $129 $130 $29 $-1 $131 reversed single #
loop $-1 $-1 $132 $51 #
plane-surface $-1 -72.21900082399975 8.2867214120034802 15.723000325509943 -0.51503808176128008 0 0.85716729658548041 0.85716729658548041 0 0.51503808176128008 forward_v I I I I #
coedge $-1 $133 $134 $135 $136 reversed $52 $-1 #
face $-1 $-1 $137 $30 $-1 $138 forward single #
loop $-1 $139 $140 $54 #
cone-surface $-1 -66.97538843157929 4.4113521997670304 15.880655463293753 0.51503808176128008 0 -0.85716729658548041 0.4285836482927402 0 0.25751904088064004 1 I I -0.70710678118654746 0.70710678118654746 0.5 forward I I I I #
loop $-1 $-1 $141 $39 #
coedge $-1 $88 $88 $142 $143 reversed $55 $-1 #
face $-1 $-1 $144 $31 $-1 $145 forward single #
loop $-1 $146 $147 $57 #
cone-surface $-1 -66.97538843157929 8.2867214120034873 15.880655463293753 0.51503808176128008 0 -0.85716729658548041 0.4285836482927402 0 0.25751904088064004 1 I I -0.70710678118654746 0.70710678118654746 0.5 forward I I I I #
loop $-1 $-1 $148 $40 #
coedge $-1 $93 $93 $149 $150 reversed $58 $-1 #
face $-1 $-1 $151 $32 $-1 $152 forward single #
loop $-1 $153 $154 $60 #
cone-surface $-1 -66.97538843157929 12.162090624239944 15.880655463293753 0.51503808176128008 0 -0.85716729658548041 0.4285836482927402 0 0.25751904088064004 1 I I -0.70710678118654746 0.70710678118654746 0.5 forward I I I I #
loop $-1 $-1 $155 $41 #
coedge $-1 $98 $98 $156 $157 reversed $61 $-1 #
face $-1 $158 $159 $33 $-1 $160 reversed single #
loop $-1 $-1 $161 $63 #
plane-surface $-1 -24.428885471562523 0.90018323266878753 116.62517916150526 0.74314483375859142 0 0.66913059716165679 0.66913059716165679 0 -0.74314483375859142 forward_v I I I I #
coedge $-1 $162 $163 $164 $165 reversed $64 $-1 #
face $-1 $-1 $166 $34 $-1 $167 forward single #
loop $-1 $168 $169 $66 #
cone-surface $-1 65.325576767394125 -1.5790660021378216 13.174447355246539 -0.74314483375859142 0 -0.66913059716165679 0.3345652985808284 0 -0.37157241687929571 1 I I -0.70710678118654746 0.70710678118654746 0.5 forward I I I I #
loop $-1 $-1 $170 $43 #
coedge $-1 $107 $107 $171 $172 reversed $67 $-1 #
face $-1 $-1 $173 $35 $-1 $174 forward single #
loop $-1 $175 $176 $69 #
cone-surface $-1 65.325576767394125 3.3794324674753895 13.174447355246539 -0.74314483375859142 0 -0.66913059716165679 0.3345652985808284 0 -0.37157241687929571 1 I I -0.70710678118654746 0.70710678118654746 0.5 forward I I I I #
loop $-1 $-1 $177 $44 #
coedge $-1 $112 $112 $178 $179 reversed $70 $-1 #
face $-1 $180 $181 $27 $-1 $182 reversed single #
loop $-1 $-1 $183 $72 #
plane-surface $-1 0 -46.920640975429045 0 0 1 0 0 0 1 forward_v I I I I #
coedge $-1 $184 $185 $186 $187 forward $73 $-1 #
coedge $-1 $188 $75 $189 $190 forward $46 $-1 #
coedge $-1 $75 $188 $191 $192 forward $46 $-1 #
coedge $-1 $193 $194 $75 $120 reversed $195 $-1 #
edge $-1 $196 -46.920640975429045 $197 46.920640975429045 $119 $198 forward 7 unknown #
face $-1 $199 $200 $28 $-1 $201 reversed single #
loop $-1 $-1 $202 $76 #
plane-surface $-1 0 -29.185719176653897 6.0458004199232604 0 -1 0 0 0 -1 forward_v I I I I #
coedge $-1 $203 $204 $205 $206 reversed $77 $-1 #
coedge $-1 $207 $79 $208 $209 forward $49 $-1 #
coedge $-1 $79 $207 $210 $211 reversed $49 $-1 #
coedge $-1 $212 $213 $79 $128 forward $214 $-1 #
edge $-1 $215 10.159129138633162 $216 27.894050937408309 $127 $217 forward 7 unknown #
face $-1 $218 $219 $29 $-1 $220 reversed single #
loop $-1 $-1 $221 $80 #
plane-surface $-1 -146.61007212621803 14.745670099064238 139.53053172233484 0 -1 0 0.51503808176128008 0 -0.85716729658548041 forward_v I I I I #
coedge $-1 $222 $223 $224 $225 reversed $81 $-1 #
coedge $-1 $134 $83 $226 $227 reversed $52 $-1 #
coedge $-1 $83 $133 $222 $228 reversed $52 $-1 #
coedge $-1 $224 $229 $83 $136 forward $230 $-1 #
edge $-1 $231 1.0860352391092647 $232 8.9305756876227491 $135 $233 forward 7 unknown #
loop $-1 $-1 $142 $84 #
plane-surface $-1 -72.21900082399975 8.2867214120034802 15.723000325509943 -0.51503808176128008 0 0.85716729658548041 0.85716729658548041 0 0.51503808176128008 forward_v I I I I #
loop $-1 $-1 $234 $54 #
coedge $-1 $140 $140 $141 $235 reversed $85 $-1 #
coedge $-1 $141 $141 $140 $235 forward $87 $-1 #
coedge $-1 $142 $142 $88 $143 forward $137 $-1 #
edge $-1 $236 0 $236 6.2831853071796004 $142 $237 forward 7 unknown #
loop $-1 $-1 $149 $89 #
plane-surface $-1 -72.21900082399975 8.2867214120034802 15.723000325509943 -0.51503808176128008 0 0.85716729658548041 0.85716729658548041 0 0.51503808176128008 forward_v I I I I #
loop $-1 $-1 $238 $57 #
coedge $-1 $147 $147 $148 $239 reversed $90 $-1 #
coedge $-1 $148 $148 $147 $239 forward $92 $-1 #
coedge $-1 $149 $149 $93 $150 forward $144 $-1 #
edge $-1 $240 0 $240 6.2831853071796004 $149 $241 forward 7 unknown #
loop $-1 $-1 $156 $94 #
plane-surface $-1 -72.21900082399975 8.2867214120034802 15.723000325509943 -0.51503808176128008 0 0.85716729658548041 0.85716729658548041 0 0.51503808176128008 forward_v I I I I #
loop $-1 $-1 $242 $60 #
coedge $-1 $154 $154 $155 $243 reversed $95 $-1 #
coedge $-1 $155 $155 $154 $243 forward $97 $-1 #
coedge $-1 $156 $156 $98 $157 forward $151 $-1 #
edge $-1 $244 0 $244 6.2831853071796004 $156 $245 forward 7 unknown #
face $-1 $246 $247 $33 $-1 $248 forward single #
loop $-1 $-1 $249 $99 #
plane-surface $-1 82.909469251563223 -4.884731648546623 213.27306545706753 0 1 0 0.74314483375859142 0 0.66913059716165679 forward_v I I I I #
coedge $-1 $250 $251 $252 $253 reversed $100 $-1 #
coedge $-1 $163 $102 $254 $255 reversed $64 $-1 #
coedge $-1 $102 $162 $250 $256 reversed $64 $-1 #
coedge $-1 $252 $257 $102 $165 forward $247 $-1 #
edge $-1 $258 -30.764266198218138 $259 -20.725075232892578 $164 $260 forward 7 unknown #
loop $-1 $-1 $171 $103 #
plane-surface $-1 -24.428885471562523 0.90018323266878753 116.62517916150526 0.74314483375859142 0 0.66913059716165679 0.66913059716165679 0 -0.74314483375859142 forward_v I I I I #
loop $-1 $-1 $261 $66 #
coedge $-1 $169 $169 $170 $262 reversed $104 $-1 #
coedge $-1 $170 $170 $169 $262 forward $106 $-1 #
coedge $-1 $171 $171 $107 $172 forward $166 $-1 #
edge $-1 $263 0 $263 6.2831853071796004 $171 $264 forward 7 unknown #
loop $-1 $-1 $178 $108 #
plane-surface $-1 -24.428885471562523 0.90018323266878753 116.62517916150526 0.74314483375859142 0 0.66913059716165679 0.66913059716165679 0 -0.74314483375859142 forward_v I I I I #
loop $-1 $-1 $265 $69 #
coedge $-1 $176 $176 $177 $266 reversed $109 $-1 #
coedge $-1 $177 $177 $176 $266 forward $111 $-1 #
coedge $-1 $178 $178 $112 $179 forward $173 $-1 #
edge $-1 $267 0 $267 6.2831853071796004 $178 $268 forward 7 unknown #
face $-1 $269 $270 $27 $-1 $271 reversed single #
loop $-1 $-1 $272 $113 #
plane-surface $-1 -72.21900082399975 0 0 1 0 0 0 0 -1 forward_v I I I I #
coedge $-1 $273 $191 $274 $275 forward $114 $-1 #
coedge $-1 $276 $116 $273 $277 forward $73 $-1 #
coedge $-1 $116 $276 $278 $279 forward $73 $-1 #
coedge $-1 $194 $193 $116 $187 reversed $195 $-1 #
edge $-1 $280 -46.920640975429045 $281 46.920640975429045 $186 $282 forward 7 unknown #
coedge $-1 $118 $117 $283 $284 forward $46 $-1 #
coedge $-1 $285 $286 $117 $190 reversed $270 $-1 #
edge $-1 $197 -72.21900082399975 $287 72.21900082399975 $189 $288 forward 7 unknown #
coedge $-1 $183 $289 $118 $192 reversed $114 $-1 #
edge $-1 $290 -72.21900082399975 $196 72.21900082399975 $191 $291 forward 7 unknown #
coedge $-1 $186 $119 $289 $292 forward $195 $-1 #
coedge $-1 $119 $186 $285 $293 reversed $195 $-1 #
loop $-1 $-1 $193 $269 #
vertex $-1 $120 $294 #
vertex $-1 $120 $295 #
straight-curve $-1 72.21900082399975 0 20.436475840727812 0 1 0 I I #
face $-1 $296 $297 $28 $-1 $298 reversed single #
loop $-1 $-1 $299 $121 #
plane-surface $-1 -72.21900082399975 0 0 1 0 0 0 0 -1 forward_v I I I I #
coedge $-1 $300 $208 $213 $301 reversed $122 $-1 #
coedge $-1 $302 $124 $303 $304 reversed $77 $-1 #
coedge $-1 $124 $302 $300 $305 forward $77 $-1 #
coedge $-1 $213 $212 $124 $206 forward $214 $-1 #
edge $-1 $306 -27.894050937408309 $307 -10.159129138633162 $205 $308 forward 7 unknown #
coedge $-1 $126 $125 $299 $309 reversed $49 $-1 #
coedge $-1 $202 $310 $125 $209 reversed $122 $-1 #
edge $-1 $215 -72.21900082399975 $311 72.21900082399975 $208 $312 forward 7 unknown #
coedge $-1 $313 $314 $126 $211 forward $297 $-1 #
edge $-1 $216 -72.21900082399975 $315 72.21900082399975 $210 $316 forward 7 unknown #
coedge $-1 $205 $127 $314 $317 forward $214 $-1 #
coedge $-1 $127 $205 $202 $301 forward $214 $-1 #
loop $-1 $-1 $127 $296 #
vertex $-1 $128 $318 #
vertex $-1 $317 $319 #
straight-curve $-1 72.21900082399975 -19.026590038020736 8.2826674081361062 0 -1 0 I I #
face $-1 $-1 $230 $29 $-1 $320 forward single #
loop $-1 $-1 $321 $129 #
plane-surface $-1 -72.21900082399975 0 0 1 0 0 0 0 -1 forward_v I I I I #
coedge $-1 $322 $323 $324 $325 reversed $130 $-1 #
coedge $-1 $326 $132 $134 $228 forward $81 $-1 #
coedge $-1 $132 $326 $322 $327 forward $81 $-1 #
coedge $-1 $324 $135 $132 $225 forward $230 $-1 #
edge $-1 $232 -2.3155879810590179 $328 10.602309393062498 $224 $329 forward 7 unknown #
coedge $-1 $330 $331 $133 $227 forward $219 $-1 #
edge $-1 $332 -54.042265535657478 $231 -49.328790020439612 $226 $333 forward 7 unknown #
edge $-1 $232 -9.1517029169943278 $332 0 $134 $334 forward 7 unknown #
coedge $-1 $135 $324 $330 $335 forward $230 $-1 #
loop $-1 $-1 $324 $218 #
vertex $-1 $227 $336 #
vertex $-1 $136 $337 #
straight-curve $-1 -73.305036063109014 1.8277727249427222 20.436475840727809 1 0 0 I I #
coedge $-1 $234 $234 $-1 $338 reversed $139 $-1 #
edge $-1 $339 0 $339 6.2831853071796004 $140 $340 forward 7 unknown #
vertex $-1 $143 $341 #
ellipse-curve $-1 -68.296730599743015 4.4113521997670304 18.079738083118876 -0.51503808176128008 0 0.85716729658548041 0.85716729658548041 0 0.51503808176128008 1 I I #
coedge $-1 $238 $238 $-1 $342 reversed $146 $-1 #
edge $-1 $343 0 $343 6.2831853071796004 $147 $344 forward 7 unknown #
vertex $-1 $150 $345 #
ellipse-curve $-1 -68.296730599743015 8.2867214120034873 18.079738083118876 -0.51503808176128008 0 0.85716729658548041 0.85716729658548041 0 0.51503808176128008 1 I I #
coedge $-1 $242 $242 $-1 $346 reversed $153 $-1 #
edge $-1 $347 0 $347 6.2831853071796004 $154 $348 forward 7 unknown #
vertex $-1 $157 $349 #
ellipse-curve $-1 -68.296730599743015 12.162090624239944 18.079738083118876 -0.51503808176128008 0 0.85716729658548041 0.85716729658548041 0 0.51503808176128008 1 I I #
face $-1 $-1 $350 $33 $-1 $351 reversed single #
loop $-1 $-1 $164 $158 #
plane-surface $-1 0 0 20.436475840727812 0 0 1 1 0 0 forward_v I I I I #
coedge $-1 $352 $353 $354 $355 reversed $159 $-1 #
coedge $-1 $356 $161 $163 $256 forward $100 $-1 #
coedge $-1 $161 $356 $352 $357 forward $100 $-1 #
coedge $-1 $354 $164 $161 $253 forward $247 $-1 #
edge $-1 $259 -6.2350064975498043 $358 5.3348232648810168 $252 $359 forward 7 unknown #
coedge $-1 $360 $361 $162 $255 forward $350 $-1 #
edge $-1 $362 -97.349708290154254 $258 -86.200056887805957 $254 $363 forward 7 unknown #
edge $-1 $259 129.43466596448692 $362 144.4380016479995 $163 $364 forward 7 unknown #
coedge $-1 $164 $354 $360 $365 forward $247 $-1 #
vertex $-1 $255 $366 #
vertex $-1 $165 $367 #
straight-curve $-1 41.454734625781612 6.6850981138841981 20.436475840727809 -1 0 0 I I #
coedge $-1 $261 $261 $-1 $368 reversed $168 $-1 #
edge $-1 $369 0 $369 6.2831853071796004 $169 $370 forward 7 unknown #
vertex $-1 $172 $371 #
ellipse-curve $-1 67.199405341336956 -1.5790660021378216 14.86165013955366 0.74314483375859142 0 0.66913059716165679 0.66913059716165679 0 -0.74314483375859142 1 I I #
coedge $-1 $265 $265 $-1 $372 reversed $175 $-1 #
edge $-1 $373 0 $373 6.2831853071796004 $176 $374 forward 7 unknown #
vertex $-1 $179 $375 #
ellipse-curve $-1 67.199405341336956 3.3794324674753895 14.86165013955366 0.74314483375859142 0 0.66913059716165679 0.66913059716165679 0 -0.74314483375859142 1 I I #
face $-1 $-1 $195 $27 $-1 $376 reversed single #
loop $-1 $-1 $285 $180 #
plane-surface $-1 0 46.920640975429045 0 0 -1 0 0 0 -1 forward_v I I I I #
coedge $-1 $377 $283 $286 $378 forward $181 $-1 #
coedge $-1 $289 $183 $184 $277 reversed $114 $-1 #
coedge $-1 $283 $377 $183 $275 reversed $181 $-1 #
edge $-1 $290 -20.436475840727812 $379 20.436475840727812 $274 $380 forward 7 unknown #
coedge $-1 $185 $184 $377 $381 forward $73 $-1 #
edge $-1 $281 -72.21900082399975 $379 72.21900082399975 $273 $382 forward 7 unknown #
coedge $-1 $286 $285 $185 $279 reversed $270 $-1 #
edge $-1 $383 -72.21900082399975 $280 72.21900082399975 $278 $384 forward 7 unknown #
vertex $-1 $187 $385 #
vertex $-1 $292 $386 #
straight-curve $-1 72.21900082399975 0 -20.436475840727812 0 -1 0 I I #
coedge $-1 $272 $274 $188 $284 reversed $181 $-1 #
edge $-1 $287 -46.920640975429045 $290 46.920640975429045 $283 $387 forward 7 unknown #
coedge $-1 $278 $189 $194 $293 forward $270 $-1 #
coedge $-1 $189 $278 $272 $378 reversed $270 $-1 #
vertex $-1 $190 $388 #
straight-curve $-1 0 46.920640975429045 20.436475840727812 -1 0 0 I I #
coedge $-1 $191 $273 $193 $292 reversed $114 $-1 #
vertex $-1 $284 $389 #
straight-curve $-1 0 -46.920640975429045 20.436475840727812 1 0 0 I I #
edge $-1 $196 -20.436475840727812 $281 20.436475840727812 $193 $390 forward 7 unknown #
edge $-1 $197 -20.436475840727812 $280 20.436475840727812 $194 $391 forward 7 unknown #
point $-1 72.21900082399975 -46.920640975429045 20.436475840727812 #
point $-1 72.21900082399975 46.920640975429045 20.436475840727812 #
face $-1 $-1 $214 $28 $-1 $392 reversed single #
loop $-1 $-1 $210 $199 #
plane-surface $-1 0 -46.920640975429045 0 0 1 0 0 0 1 forward_v I I I I #
coedge $-1 $393 $394 $207 $309 forward $200 $-1 #
coedge $-1 $310 $202 $204 $305 reversed $122 $-1 #
edge $-1 $307 0.78603322174878443 $215 5.259767198174476 $213 $395 forward 7 unknown #
coedge $-1 $204 $203 $396 $397 reversed $77 $-1 #
coedge $-1 $314 $313 $203 $304 forward $297 $-1 #
edge $-1 $398 -72.21900082399975 $306 72.21900082399975 $303 $399 forward 7 unknown #
edge $-1 $400 -72.21900082399975 $307 72.21900082399975 $300 $401 forward 7 unknown #
vertex $-1 $304 $402 #
vertex $-1 $206 $403 #
straight-curve $-1 72.21900082399975 -19.026590038020736 3.8089334317104147 0 1 0 I I #
edge $-1 $315 -27.894050937408309 $311 -10.159129138633162 $299 $404 forward 7 unknown #
coedge $-1 $208 $300 $393 $405 reversed $122 $-1 #
vertex $-1 $309 $406 #
straight-curve $-1 0 -29.185719176653897 8.2826674081361062 -1 0 0 I I #
coedge $-1 $303 $210 $394 $407 forward $297 $-1 #
coedge $-1 $210 $303 $212 $317 reversed $297 $-1 #
vertex $-1 $407 $408 #
straight-curve $-1 0 -46.920640975429045 8.2826674081361062 -1 0 0 I I #
edge $-1 $216 -8.2826674081361062 $306 -3.8089334317104147 $212 $409 forward 7 unknown #
point $-1 72.21900082399975 -29.185719176653897 8.2826674081361062 #
point $-1 72.21900082399975 -46.920640975429045 8.2826674081361062 #
plane-surface $-1 0 0 20.436475840727812 0 0 1 1 0 0 forward_v I I I I #
coedge $-1 $331 $330 $323 $410 forward $219 $-1 #
coedge $-1 $323 $221 $223 $327 reversed $130 $-1 #
coedge $-1 $221 $322 $321 $410 reversed $130 $-1 #
coedge $-1 $229 $224 $221 $325 forward $230 $-1 #
edge $-1 $328 -8.9305756876227491 $411 -1.0860352391092647 $324 $412 forward 7 unknown #
coedge $-1 $223 $222 $331 $413 reversed $81 $-1 #
edge $-1 $414 0 $328 9.1517029169943278 $322 $415 forward 7 unknown #
vertex $-1 $225 $416 #
straight-curve $-1 -64.374460375486279 4.1433607060017401 20.436475840727809 0 1 0 I I #
coedge $-1 $321 $226 $229 $335 reversed $219 $-1 #
coedge $-1 $226 $321 $326 $413 forward $219 $-1 #
vertex $-1 $227 $417 #
straight-curve $-1 -72.21900082399975 1.8277727249427222 69.765265861167421 0 0 1 I I #
straight-curve $-1 -72.21900082399975 1.8277727249427222 15.723000325509943 -0.85716729658548041 0 -0.51503808176128008 I I #
edge $-1 $411 -14.745670099064238 $231 -1.8277727249427222 $330 $418 forward 7 unknown #
point $-1 -72.21900082399975 1.8277727249427222 20.436475840727812 #
point $-1 -64.374460375486265 1.8277727249427222 20.436475840727812 #
edge $-1 $419 1 $419 0 $234 $-1 forward 7 unknown #
vertex $-1 $235 $420 #
ellipse-curve $-1 -67.232907472459928 4.4113521997670304 16.309239111586493 -0.51503808176128008 0 0.85716729658548041 0.85716729658548041 0 0.51503808176128008 1 I I #
point $-1 -67.439563303157541 4.4113521997670304 18.594776164880162 #
edge $-1 $421 1 $421 0 $238 $-1 forward 7 unknown #
vertex $-1 $239 $422 #
ellipse-curve $-1 -67.232907472459928 8.2867214120034873 16.309239111586493 -0.51503808176128008 0 0.85716729658548041 0.85716729658548041 0 0.51503808176128008 1 I I #
point $-1 -67.439563303157541 8.2867214120034873 18.594776164880162 #
edge $-1 $423 1 $423 0 $242 $-1 forward 7 unknown #
vertex $-1 $243 $424 #
ellipse-curve $-1 -67.232907472459928 12.162090624239944 16.309239111586493 -0.51503808176128008 0 0.85716729658548041 0.85716729658548041 0 0.51503808176128008 1 I I #
point $-1 -67.439563303157541 12.162090624239944 18.594776164880162 #
loop $-1 $-1 $254 $246 #
plane-surface $-1 72.21900082399975 0 0 -1 0 0 0 0 1 forward_v I I I I #
coedge $-1 $353 $249 $251 $357 reversed $159 $-1 #
coedge $-1 $249 $352 $425 $426 reversed $159 $-1 #
coedge $-1 $257 $252 $249 $355 forward $247 $-1 #
edge $-1 $358 20.725075232892578 $427 30.764266198218138 $354 $428 forward 7 unknown #
coedge $-1 $251 $250 $361 $429 reversed $100 $-1 #
edge $-1 $430 -144.4380016479995 $358 -129.43466596448692 $352 $431 forward 7 unknown #
vertex $-1 $253 $432 #
straight-curve $-1 62.17980985867419 0.45009161633439376 20.436475840727802 0 -1 0 I I #
coedge $-1 $425 $254 $257 $365 reversed $350 $-1 #
coedge $-1 $254 $425 $356 $429 forward $350 $-1 #
vertex $-1 $255 $433 #
straight-curve $-1 72.21900082399975 6.6850981138841981 106.63653272853377 0 0 1 I I #
straight-curve $-1 -24.428885471562523 6.6850981138841981 116.62517916150526 0.66913059716165679 0 -0.74314483375859142 I I #
edge $-1 $427 -4.884731648546623 $258 6.6850981138841981 $360 $434 forward 7 unknown #
point $-1 72.21900082399975 6.6850981138841981 20.436475840727812 #
point $-1 62.17980985867419 6.6850981138841981 20.436475840727809 #
edge $-1 $435 1 $435 0 $261 $-1 forward 7 unknown #
vertex $-1 $262 $436 #
ellipse-curve $-1 65.697149184273414 -1.5790660021378216 13.509012653827368 0.74314483375859142 0 0.66913059716165679 0.66913059716165679 0 -0.74314483375859142 1 I I #
point $-1 67.868535938498638 -1.5790660021378216 14.118505305795081 #
edge $-1 $437 1 $437 0 $265 $-1 forward 7 unknown #
vertex $-1 $266 $438 #
ellipse-curve $-1 65.697149184273414 3.3794324674753895 13.509012653827368 0.74314483375859142 0 0.66913059716165679 0.66913059716165679 0 -0.74314483375859142 1 I I #
point $-1 67.868535938498638 3.3794324674753895 14.118505305795081 #
plane-surface $-1 72.21900082399975 0 0 -1 0 0 0 0 1 forward_v I I I I #
coedge $-1 $274 $272 $276 $381 reversed $181 $-1 #
edge $-1 $287 -20.436475840727812 $383 20.436475840727812 $286 $439 forward 7 unknown #
vertex $-1 $381 $440 #
straight-curve $-1 -72.21900082399975 -46.920640975429045 0 0 0 -1 I I #
edge $-1 $379 -46.920640975429045 $383 46.920640975429045 $377 $441 forward 7 unknown #
straight-curve $-1 0 -46.920640975429045 -20.436475840727812 -1 0 0 I I #
vertex $-1 $279 $442 #
straight-curve $-1 0 46.920640975429045 -20.436475840727812 1 0 0 I I #
point $-1 72.21900082399975 46.920640975429045 -20.436475840727812 #
point $-1 72.21900082399975 -46.920640975429045 -20.436475840727812 #
straight-curve $-1 -72.21900082399975 0 20.436475840727812 0 -1 0 I I #
point $-1 -72.21900082399975 46.920640975429045 20.436475840727812 #
point $-1 -72.21900082399975 -46.920640975429045 20.436475840727812 #
straight-curve $-1 72.21900082399975 -46.920640975429045 0 0 0 -1 I I #
straight-curve $-1 72.21900082399975 46.920640975429045 0 0 0 -1 I I #
plane-surface $-1 72.21900082399975 0 0 -1 0 0 0 0 1 forward_v I I I I #
coedge $-1 $396 $299 $310 $405 forward $200 $-1 #
coedge $-1 $299 $396 $313 $407 reversed $200 $-1 #
straight-curve $-1 72.21900082399975 -29.185719176653897 3.0229002099616302 0 0 1 I I #
coedge $-1 $394 $393 $302 $397 forward $200 $-1 #
edge $-1 $400 10.159129138633162 $398 27.894050937408309 $396 $443 forward 7 unknown #
vertex $-1 $304 $444 #
straight-curve $-1 0 -46.920640975429045 3.8089334317104147 1 0 0 I I #
vertex $-1 $397 $445 #
straight-curve $-1 0 -29.185719176653897 3.8089334317104147 1 0 0 I I #
point $-1 72.21900082399975 -46.920640975429045 3.8089334317104147 #
point $-1 72.21900082399975 -29.185719176653897 3.8089334317104147 #
straight-curve $-1 -72.21900082399975 -19.026590038020736 8.2826674081361062 0 1 0 I I #
edge $-1 $311 -5.259767198174476 $400 -0.78603322174878443 $393 $446 forward 7 unknown #
point $-1 -72.21900082399975 -29.185719176653897 8.2826674081361062 #
edge $-1 $315 -8.2826674081361062 $398 -3.8089334317104147 $394 $447 forward 7 unknown #
point $-1 -72.21900082399975 -46.920640975429045 8.2826674081361062 #
straight-curve $-1 72.21900082399975 -46.920640975429045 0 0 0 -1 I I #
edge $-1 $411 49.328790020439612 $414 54.042265535657478 $321 $448 forward 7 unknown #
vertex $-1 $335 $449 #
straight-curve $-1 -73.305036063109014 14.745670099064238 20.436475840727809 -1 0 0 I I #
edge $-1 $414 -10.602309393062498 $332 2.3155879810590179 $331 $450 forward 7 unknown #
vertex $-1 $413 $451 #
straight-curve $-1 -72.21900082399975 14.745670099064238 15.723000325509943 0.85716729658548041 0 0.51503808176128008 I I #
point $-1 -64.374460375486265 14.745670099064238 20.436475840727812 #
point $-1 -72.21900082399975 1.8277727249427222 15.723000325509943 #
straight-curve $-1 -72.21900082399975 0 20.436475840727812 0 -1 0 I I #
vertex $-1 $338 $452 #
point $-1 -66.375740175874455 4.4113521997670304 16.824277193347772 #
vertex $-1 $342 $453 #
point $-1 -66.375740175874455 8.2867214120034873 16.824277193347772 #
vertex $-1 $346 $454 #
point $-1 -66.375740175874455 12.162090624239944 16.824277193347772 #
coedge $-1 $361 $360 $353 $426 forward $350 $-1 #
edge $-1 $427 86.200056887805957 $430 97.349708290154254 $425 $455 forward 7 unknown #
vertex $-1 $365 $456 #
straight-curve $-1 41.454734625781612 -4.884731648546623 20.436475840727809 1 0 0 I I #
edge $-1 $430 -5.3348232648810168 $362 6.2350064975498043 $361 $457 forward 7 unknown #
vertex $-1 $429 $458 #
straight-curve $-1 -24.428885471562523 -4.884731648546623 116.62517916150526 -0.66913059716165679 0 0.74314483375859142 I I #
point $-1 62.17980985867419 -4.884731648546623 20.436475840727809 #
point $-1 72.21900082399975 6.6850981138841981 9.2868244383795115 #
straight-curve $-1 72.21900082399975 0 20.436475840727812 0 1 0 I I #
vertex $-1 $368 $459 #
point $-1 66.366279781435082 -1.5790660021378216 12.765867820068776 #
vertex $-1 $372 $460 #
point $-1 66.366279781435082 3.3794324674753895 12.765867820068776 #
straight-curve $-1 -72.21900082399975 46.920640975429045 0 0 0 -1 I I #
point $-1 -72.21900082399975 -46.920640975429045 -20.436475840727812 #
straight-curve $-1 -72.21900082399975 0 -20.436475840727812 0 1 0 I I #
point $-1 -72.21900082399975 46.920640975429045 -20.436475840727812 #
straight-curve $-1 -72.21900082399975 -19.026590038020736 3.8089334317104147 0 -1 0 I I #
point $-1 -72.21900082399975 -46.920640975429045 3.8089334317104147 #
point $-1 -72.21900082399975 -29.185719176653897 3.8089334317104147 #
straight-curve $-1 -72.21900082399975 -29.185719176653897 3.0229002099616302 0 0 -1 I I #
straight-curve $-1 -72.21900082399975 -46.920640975429045 0 0 0 -1 I I #
straight-curve $-1 -72.21900082399975 14.745670099064238 69.765265861167421 0 0 -1 I I #
point $-1 -72.21900082399975 14.745670099064238 20.436475840727812 #
straight-curve $-1 -72.21900082399975 4.1433607060017401 15.723000325509942 0 -1 0 I I #
point $-1 -72.21900082399975 14.745670099064238 15.723000325509943 #
point $-1 -66.717869390698652 4.4113521997670304 15.452071815001013 #
point $-1 -66.717869390698652 8.2867214120034873 15.452071815001013 #
point $-1 -66.717869390698652 12.162090624239944 15.452071815001013 #
straight-curve $-1 72.21900082399975 -4.884731648546623 106.63653272853377 0 0 -1 I I #
point $-1 72.21900082399975 -4.884731648546623 20.436475840727812 #
straight-curve $-1 72.21900082399975 0.45009161633439376 9.2868244383795044 0 1 0 I I #
point $-1 72.21900082399975 -4.884731648546623 9.2868244383795115 #
point $-1 64.954004350514836 -1.5790660021378216 12.83988205666571 #
point $-1 64.954004350514836 3.3794324674753895 12.83988205666571 #
End-of-ACIS-data 