500 0 20 0           
7 Unknown 11 ACIS 5.0 NT 24 Thu Mar 25 16:27:20 1999 
-1 9.9999999999999995e-007 1e-010 
body $-1 $20 $-1 $21 #
body $-1 $22 $-1 $23 #
body $-1 $24 $-1 $25 #
body $-1 $26 $-1 $27 #
body $-1 $28 $-1 $29 #
body $-1 $30 $-1 $31 #
body $-1 $32 $-1 $33 #
body $-1 $34 $-1 $35 #
body $-1 $36 $-1 $37 #
body $-1 $38 $-1 $39 #
body $-1 $40 $-1 $41 #
body $-1 $42 $-1 $43 #
body $-1 $44 $-1 $45 #
body $-1 $46 $-1 $47 #
body $-1 $48 $-1 $49 #
body $-1 $50 $-1 $51 #
body $-1 $52 $-1 $53 #
body $-1 $54 $-1 $55 #
body $-1 $56 $-1 $57 #
body $-1 $58 $-1 $59 #
lump $-1 $-1 $60 $0 #
transform $-1 1 0 0 0 1 0 0 0 1 54.99679555650502 22.849677277356733 11.395968841648349 1 rotate no_reflect no_shear #
lump $-1 $-1 $61 $1 #
transform $-1 1 0 0 0 1 0 0 0 1 54.99679555650502 -6.7319511387673403 19.896081042164312 1 rotate no_reflect no_shear #
lump $-1 $-1 $62 $2 #
transform $-1 0.62932038083071107 0 -0.77714596973225614 0 1 0 0.77714596973225614 0 0.62932038083071107 126.2534584946865 16.545617155967793 169.80286234906663 1 rotate no_reflect no_shear #
lump $-1 $-1 $63 $3 #
transform $-1 0.62932038083071107 0 -0.77714596973225614 0 -1 0 -0.77714596973225614 0 -0.62932038083071107 105.38097738999018 15.224882208067887 17.732842055638713 1 rotate no_reflect no_shear #
lump $-1 $-1 $64 $4 #
transform $-1 0.62932038083071107 0 -0.77714596973225614 0 -1 0 -0.77714596973225614 0 -0.62932038083071107 105.38097738999018 17.866352103867698 17.732842055638713 1 rotate no_reflect no_shear #
lump $-1 $-1 $65 $5 #
transform $-1 0.62932038083071107 0 -0.77714596973225614 0 1 0 0.77714596973225614 0 0.62932038083071107 126.2534584946865 42.617639676280362 169.80286234906663 1 rotate no_reflect no_shear #
lump $-1 $-1 $66 $6 #
transform $-1 0.62932038083071107 0 -0.77714596973225614 0 -1 0 -0.77714596973225614 0 -0.62932038083071107 105.38097738999018 41.296904728380454 17.732842055638713 1 rotate no_reflect no_shear #
lump $-1 $-1 $67 $7 #
transform $-1 0.62932038083071107 0 -0.77714596973225614 0 -1 0 -0.77714596973225614 0 -0.62932038083071107 105.38097738999018 43.93837462418027 17.732842055638713 1 rotate no_reflect no_shear #
lump $-1 $-1 $68 $8 #
transform $-1 0.68199835119979291 0 0.73135370988377701 0 1 0 -0.73135370988377701 0 0.68199835119979291 -80.444220923939127 18.881078173906438 88.054891587416279 1 rotate no_reflect no_shear #
lump $-1 $-1 $69 $9 #
transform $-1 0.68199835119979291 0 0.73135370988377701 0 -1 0 0.73135370988377701 0 -0.68199835119979291 5.4887746062480556 16.939290995719219 17.037633737727763 1 rotate no_reflect no_shear #
lump $-1 $-1 $70 $10 #
transform $-1 0.68199835119979291 0 0.73135370988377701 0 -1 0 0.73135370988377701 0 -0.68199835119979291 5.4887746062480556 18.881078173906438 17.037633737727763 1 rotate no_reflect no_shear #
lump $-1 $-1 $71 $11 #
transform $-1 0.68199835119979291 0 0.73135370988377701 0 -1 0 0.73135370988377701 0 -0.68199835119979291 5.4887746062480556 20.822865352093658 17.037633737727763 1 rotate no_reflect no_shear #
lump $-1 $-1 $72 $12 #
transform $-1 0.68199835119979291 0 0.73135370988377701 0 1 0 -0.73135370988377701 0 0.68199835119979291 -80.444220923939127 29.581628416124072 88.054891587416279 1 rotate no_reflect no_shear #
lump $-1 $-1 $73 $13 #
transform $-1 0.68199835119979291 0 0.73135370988377701 0 -1 0 0.73135370988377701 0 -0.68199835119979291 5.4887746062480556 27.639841237936853 17.037633737727763 1 rotate no_reflect no_shear #
lump $-1 $-1 $74 $14 #
transform $-1 0.68199835119979291 0 0.73135370988377701 0 -1 0 0.73135370988377701 0 -0.68199835119979291 5.4887746062480556 29.581628416124072 17.037633737727763 1 rotate no_reflect no_shear #
lump $-1 $-1 $75 $15 #
transform $-1 0.68199835119979291 0 0.73135370988377701 0 -1 0 0.73135370988377701 0 -0.68199835119979291 5.4887746062480556 31.523415594311292 17.037633737727763 1 rotate no_reflect no_shear #
lump $-1 $-1 $76 $16 #
transform $-1 0.68199835119979291 0 0.73135370988377701 0 1 0 -0.73135370988377701 0 0.68199835119979291 -80.444220923939127 40.282178658341707 88.054891587416279 1 rotate no_reflect no_shear #
lump $-1 $-1 $77 $17 #
transform $-1 0.68199835119979291 0 0.73135370988377701 0 -1 0 0.73135370988377701 0 -0.68199835119979291 5.4887746062480556 38.340391480154487 17.037633737727763 1 rotate no_reflect no_shear #
lump $-1 $-1 $78 $18 #
transform $-1 0.68199835119979291 0 0.73135370988377701 0 -1 0 0.73135370988377701 0 -0.68199835119979291 5.4887746062480556 40.282178658341707 17.037633737727763 1 rotate no_reflect no_shear #
lump $-1 $-1 $79 $19 #
transform $-1 0.68199835119979291 0 0.73135370988377701 0 -1 0 0.73135370988377701 0 -0.68199835119979291 5.4887746062480556 42.223965836528926 17.037633737727763 1 rotate no_reflect no_shear #
shell $-1 $-1 $-1 $80 $-1 $20 #
shell $-1 $-1 $-1 $81 $-1 $22 #
shell $-1 $-1 $-1 $82 $-1 $24 #
shell $-1 $-1 $-1 $83 $-1 $26 #
shell $-1 $-1 $-1 $84 $-1 $28 #
shell $-1 $-1 $-1 $85 $-1 $30 #
shell $-1 $-1 $-1 $86 $-1 $32 #
shell $-1 $-1 $-1 $87 $-1 $34 #
shell $-1 $-1 $-1 $88 $-1 $36 #
shell $-1 $-1 $-1 $89 $-1 $38 #
shell $-1 $-1 $-1 $90 $-1 $40 #
shell $-1 $-1 $-1 $91 $-1 $42 #
shell $-1 $-1 $-1 $92 $-1 $44 #
shell $-1 $-1 $-1 $93 $-1 $46 #
shell $-1 $-1 $-1 $94 $-1 $48 #
shell $-1 $-1 $-1 $95 $-1 $50 #
shell $-1 $-1 $-1 $96 $-1 $52 #
shell $-1 $-1 $-1 $97 $-1 $54 #
shell $-1 $-1 $-1 $98 $-1 $56 #
shell $-1 $-1 $-1 $99 $-1 $58 #
face $-1 $100 $101 $60 $-1 $102 forward single #
face $-1 $103 $104 $61 $-1 $105 forward single #
face $-1 $106 $107 $62 $-1 $108 forward single #
face $-1 $109 $110 $63 $-1 $111 forward single #
face $-1 $112 $113 $64 $-1 $114 forward single #
face $-1 $115 $116 $65 $-1 $117 forward single #
face $-1 $118 $119 $66 $-1 $120 forward single #
face $-1 $121 $122 $67 $-1 $123 forward single #
face $-1 $124 $125 $68 $-1 $126 forward single #
face $-1 $127 $128 $69 $-1 $129 forward single #
face $-1 $130 $131 $70 $-1 $132 forward single #
face $-1 $133 $134 $71 $-1 $135 forward single #
face $-1 $136 $137 $72 $-1 $138 forward single #
face $-1 $139 $140 $73 $-1 $141 forward single #
face $-1 $142 $143 $74 $-1 $144 forward single #
face $-1 $145 $146 $75 $-1 $147 forward single #
face $-1 $148 $149 $76 $-1 $150 forward single #
face $-1 $151 $152 $77 $-1 $153 forward single #
face $-1 $154 $155 $78 $-1 $156 forward single #
face $-1 $157 $158 $79 $-1 $159 forward single #
face $-1 $160 $161 $60 $-1 $162 reversed single #
loop $-1 $-1 $163 $80 #
plane-surface $-1 0 0 11.395968841648349 0 0 1 1 0 0 forward_v I I I I #
face $-1 $164 $165 $61 $-1 $166 reversed single #
loop $-1 $-1 $167 $81 #
plane-surface $-1 0 0 2.8958566411323883 0 0 1 1 0 0 forward_v I I I I #
face $-1 $168 $169 $62 $-1 $170 reversed single #
loop $-1 $-1 $171 $82 #
plane-surface $-1 0 0 109.99359111301004 0 0 1 1 0 0 forward_v I I I I #
face $-1 $172 $173 $63 $-1 $174 forward single #
loop $-1 $175 $176 $83 #
cone-surface $-1 0 0 -1.0890682699056971 0 0 1 0.5 0 0 1 I I 0 1 0.5 forward I I I I #
face $-1 $177 $178 $64 $-1 $179 forward single #
loop $-1 $180 $181 $84 #
cone-surface $-1 0 0 -1.0890682699056971 0 0 1 0.5 0 0 1 I I 0 1 0.5 forward I I I I #
face $-1 $182 $183 $65 $-1 $184 reversed single #
loop $-1 $-1 $185 $85 #
plane-surface $-1 0 0 109.99359111301004 0 0 1 1 0 0 forward_v I I I I #
face $-1 $186 $187 $66 $-1 $188 forward single #
loop $-1 $189 $190 $86 #
cone-surface $-1 0 0 -1.0890682699056971 0 0 1 0.5 0 0 1 I I 0 1 0.5 forward I I I I #
face $-1 $191 $192 $67 $-1 $193 forward single #
loop $-1 $194 $195 $87 #
cone-surface $-1 0 0 -1.0890682699056971 0 0 1 0.5 0 0 1 I I 0 1 0.5 forward I I I I #
face $-1 $196 $197 $68 $-1 $198 reversed single #
loop $-1 $-1 $199 $88 #
plane-surface $-1 0 0 109.99359111301004 0 0 1 1 0 0 forward_v I I I I #
face $-1 $200 $201 $69 $-1 $202 forward single #
loop $-1 $203 $204 $89 #
cone-surface $-1 0 0 -0.76873836481826174 0 0 1 0.5 0 0 1 I I 0 1 0.5 forward I I I I #
face $-1 $205 $206 $70 $-1 $207 forward single #
loop $-1 $208 $209 $90 #
cone-surface $-1 0 0 -0.76873836481826174 0 0 1 0.5 0 0 1 I I 0 1 0.5 forward I I I I #
face $-1 $210 $211 $71 $-1 $212 forward single #
loop $-1 $213 $214 $91 #
cone-surface $-1 0 0 -0.76873836481826174 0 0 1 0.5 0 0 1 I I 0 1 0.5 forward I I I I #
face $-1 $215 $216 $72 $-1 $217 reversed single #
loop $-1 $-1 $218 $92 #
plane-surface $-1 0 0 109.99359111301004 0 0 1 1 0 0 forward_v I I I I #
face $-1 $219 $220 $73 $-1 $221 forward single #
loop $-1 $222 $223 $93 #
cone-surface $-1 0 0 -0.76873836481826174 0 0 1 0.5 0 0 1 I I 0 1 0.5 forward I I I I #
face $-1 $224 $225 $74 $-1 $226 forward single #
loop $-1 $227 $228 $94 #
cone-surface $-1 0 0 -0.76873836481826174 0 0 1 0.5 0 0 1 I I 0 1 0.5 forward I I I I #
face $-1 $229 $230 $75 $-1 $231 forward single #
loop $-1 $232 $233 $95 #
cone-surface $-1 0 0 -0.76873836481826174 0 0 1 0.5 0 0 1 I I 0 1 0.5 forward I I I I #
face $-1 $234 $235 $76 $-1 $236 reversed single #
loop $-1 $-1 $237 $96 #
plane-surface $-1 0 0 109.99359111301004 0 0 1 1 0 0 forward_v I I I I #
face $-1 $238 $239 $77 $-1 $240 forward single #
loop $-1 $241 $242 $97 #
cone-surface $-1 0 0 -0.76873836481826174 0 0 1 0.5 0 0 1 I I 0 1 0.5 forward I I I I #
face $-1 $243 $244 $78 $-1 $245 forward single #
loop $-1 $246 $247 $98 #
cone-surface $-1 0 0 -0.76873836481826174 0 0 1 0.5 0 0 1 I I 0 1 0.5 forward I I I I #
face $-1 $248 $249 $79 $-1 $250 forward single #
loop $-1 $251 $252 $99 #
cone-surface $-1 0 0 -0.76873836481826174 0 0 1 0.5 0 0 1 I I 0 1 0.5 forward I I I I #
face $-1 $253 $254 $60 $-1 $255 reversed single #
loop $-1 $-1 $256 $100 #
plane-surface $-1 0 0 -11.395968841648349 0 0 1 1 0 0 forward_v I I I I #
coedge $-1 $257 $258 $259 $260 forward $101 $-1 #
face $-1 $261 $262 $61 $-1 $263 reversed single #
loop $-1 $-1 $264 $103 #
plane-surface $-1 0 0 -2.8958566411323883 0 0 1 1 0 0 forward_v I I I I #
coedge $-1 $265 $266 $267 $268 forward $104 $-1 #
face $-1 $269 $270 $62 $-1 $271 reversed single #
loop $-1 $-1 $272 $106 #
plane-surface $-1 0 0 -109.99359111301004 0 0 1 1 0 0 forward_v I I I I #
coedge $-1 $273 $274 $275 $276 forward $107 $-1 #
face $-1 $-1 $277 $63 $-1 $278 forward single #
loop $-1 $-1 $279 $109 #
plane-surface $-1 0 0 -1.928136539811395 0 0 -1 -1 0 0 forward_v I I I I #
loop $-1 $-1 $280 $83 #
coedge $-1 $176 $176 $279 $281 reversed $110 $-1 #
face $-1 $-1 $282 $64 $-1 $283 forward single #
loop $-1 $-1 $284 $112 #
plane-surface $-1 0 0 -1.928136539811395 0 0 -1 -1 0 0 forward_v I I I I #
loop $-1 $-1 $285 $84 #
coedge $-1 $181 $181 $284 $286 reversed $113 $-1 #
face $-1 $287 $288 $65 $-1 $289 reversed single #
loop $-1 $-1 $290 $115 #
plane-surface $-1 0 0 -109.99359111301004 0 0 1 1 0 0 forward_v I I I I #
coedge $-1 $291 $292 $293 $294 forward $116 $-1 #
face $-1 $-1 $295 $66 $-1 $296 forward single #
loop $-1 $-1 $297 $118 #
plane-surface $-1 0 0 -1.928136539811395 0 0 -1 -1 0 0 forward_v I I I I #
loop $-1 $-1 $298 $86 #
coedge $-1 $190 $190 $297 $299 reversed $119 $-1 #
face $-1 $-1 $300 $67 $-1 $301 forward single #
loop $-1 $-1 $302 $121 #
plane-surface $-1 0 0 -1.928136539811395 0 0 -1 -1 0 0 forward_v I I I I #
loop $-1 $-1 $303 $87 #
coedge $-1 $195 $195 $302 $304 reversed $122 $-1 #
face $-1 $305 $306 $68 $-1 $307 reversed single #
loop $-1 $-1 $308 $124 #
plane-surface $-1 0 0 -109.99359111301004 0 0 1 1 0 0 forward_v I I I I #
coedge $-1 $309 $310 $311 $312 forward $125 $-1 #
face $-1 $-1 $313 $69 $-1 $314 forward single #
loop $-1 $-1 $315 $127 #
plane-surface $-1 0 0 -1.2874767296365244 0 0 -1 -1 0 0 forward_v I I I I #
loop $-1 $-1 $316 $89 #
coedge $-1 $204 $204 $315 $317 reversed $128 $-1 #
face $-1 $-1 $318 $70 $-1 $319 forward single #
loop $-1 $-1 $320 $130 #
plane-surface $-1 0 0 -1.2874767296365244 0 0 -1 -1 0 0 forward_v I I I I #
loop $-1 $-1 $321 $90 #
coedge $-1 $209 $209 $320 $322 reversed $131 $-1 #
face $-1 $-1 $323 $71 $-1 $324 forward single #
loop $-1 $-1 $325 $133 #
plane-surface $-1 0 0 -1.2874767296365244 0 0 -1 -1 0 0 forward_v I I I I #
loop $-1 $-1 $326 $91 #
coedge $-1 $214 $214 $325 $327 reversed $134 $-1 #
face $-1 $328 $329 $72 $-1 $330 reversed single #
loop $-1 $-1 $331 $136 #
plane-surface $-1 0 0 -109.99359111301004 0 0 1 1 0 0 forward_v I I I I #
coedge $-1 $332 $333 $334 $335 forward $137 $-1 #
face $-1 $-1 $336 $73 $-1 $337 forward single #
loop $-1 $-1 $338 $139 #
plane-surface $-1 0 0 -1.2874767296365244 0 0 -1 -1 0 0 forward_v I I I I #
loop $-1 $-1 $339 $93 #
coedge $-1 $223 $223 $338 $340 reversed $140 $-1 #
face $-1 $-1 $341 $74 $-1 $342 forward single #
loop $-1 $-1 $343 $142 #
plane-surface $-1 0 0 -1.2874767296365244 0 0 -1 -1 0 0 forward_v I I I I #
loop $-1 $-1 $344 $94 #
coedge $-1 $228 $228 $343 $345 reversed $143 $-1 #
face $-1 $-1 $346 $75 $-1 $347 forward single #
loop $-1 $-1 $348 $145 #
plane-surface $-1 0 0 -1.2874767296365244 0 0 -1 -1 0 0 forward_v I I I I #
loop $-1 $-1 $349 $95 #
coedge $-1 $233 $233 $348 $350 reversed $146 $-1 #
face $-1 $351 $352 $76 $-1 $353 reversed single #
loop $-1 $-1 $354 $148 #
plane-surface $-1 0 0 -109.99359111301004 0 0 1 1 0 0 forward_v I I I I #
coedge $-1 $355 $356 $357 $358 forward $149 $-1 #
face $-1 $-1 $359 $77 $-1 $360 forward single #
loop $-1 $-1 $361 $151 #
plane-surface $-1 0 0 -1.2874767296365244 0 0 -1 -1 0 0 forward_v I I I I #
loop $-1 $-1 $362 $97 #
coedge $-1 $242 $242 $361 $363 reversed $152 $-1 #
face $-1 $-1 $364 $78 $-1 $365 forward single #
loop $-1 $-1 $366 $154 #
plane-surface $-1 0 0 -1.2874767296365244 0 0 -1 -1 0 0 forward_v I I I I #
loop $-1 $-1 $367 $98 #
coedge $-1 $247 $247 $366 $368 reversed $155 $-1 #
face $-1 $-1 $369 $79 $-1 $370 forward single #
loop $-1 $-1 $371 $157 #
plane-surface $-1 0 0 -1.2874767296365244 0 0 -1 -1 0 0 forward_v I I I I #
loop $-1 $-1 $372 $99 #
coedge $-1 $252 $252 $371 $373 reversed $158 $-1 #
face $-1 $374 $375 $60 $-1 $376 reversed single #
loop $-1 $-1 $377 $160 #
plane-surface $-1 0 -22.849677277356733 0 0 1 0 0 0 1 forward_v I I I I #
coedge $-1 $378 $379 $380 $381 forward $161 $-1 #
coedge $-1 $382 $163 $383 $384 forward $101 $-1 #
coedge $-1 $163 $382 $385 $386 forward $101 $-1 #
coedge $-1 $387 $388 $163 $260 reversed $389 $-1 #
edge $-1 $390 -22.849677277356733 $391 22.849677277356733 $259 $392 forward 7 unknown #
face $-1 $393 $394 $61 $-1 $395 reversed single #
loop $-1 $-1 $396 $164 #
plane-surface $-1 0 -6.7319511387673403 0 0 1 0 0 0 1 forward_v I I I I #
coedge $-1 $397 $398 $399 $400 forward $165 $-1 #
coedge $-1 $401 $167 $402 $403 forward $104 $-1 #
coedge $-1 $167 $401 $404 $405 forward $104 $-1 #
coedge $-1 $406 $407 $167 $268 reversed $408 $-1 #
edge $-1 $409 -6.7319511387673403 $410 6.7319511387673403 $267 $411 forward 7 unknown #
face $-1 $412 $413 $62 $-1 $414 reversed single #
loop $-1 $-1 $415 $168 #
plane-surface $-1 0 -3.0817148784331119 0 0 1 0 0 0 1 forward_v I I I I #
coedge $-1 $416 $417 $418 $419 forward $169 $-1 #
coedge $-1 $420 $171 $421 $422 forward $107 $-1 #
coedge $-1 $171 $420 $423 $424 forward $107 $-1 #
coedge $-1 $425 $426 $171 $276 reversed $427 $-1 #
edge $-1 $428 -3.0817148784331119 $429 3.0817148784331119 $275 $430 forward 7 unknown #
loop $-1 $431 $432 $172 #
cone-surface $-1 0 0 0 0 0 1 0.25 0 0 1 I I -0.70710678118654746 0.70710678118654746 0.25 forward I I I I #
coedge $-1 $279 $279 $176 $281 forward $173 $-1 #
coedge $-1 $280 $280 $432 $433 forward $175 $-1 #
edge $-1 $434 0 $434 6.2831853071796004 $279 $435 forward 7 unknown #
loop $-1 $436 $437 $177 #
cone-surface $-1 0 0 0 0 0 1 0.25 0 0 1 I I -0.70710678118654746 0.70710678118654746 0.25 forward I I I I #
coedge $-1 $284 $284 $181 $286 forward $178 $-1 #
coedge $-1 $285 $285 $437 $438 forward $180 $-1 #
edge $-1 $439 0 $439 6.2831853071796004 $284 $440 forward 7 unknown #
face $-1 $441 $442 $65 $-1 $443 reversed single #
loop $-1 $-1 $444 $182 #
plane-surface $-1 0 -3.0817148784331119 0 0 1 0 0 0 1 forward_v I I I I #
coedge $-1 $445 $446 $447 $448 forward $183 $-1 #
coedge $-1 $449 $185 $450 $451 forward $116 $-1 #
coedge $-1 $185 $449 $452 $453 forward $116 $-1 #
coedge $-1 $454 $455 $185 $294 reversed $456 $-1 #
edge $-1 $457 -3.0817148784331119 $458 3.0817148784331119 $293 $459 forward 7 unknown #
loop $-1 $460 $461 $186 #
cone-surface $-1 0 0 0 0 0 1 0.25 0 0 1 I I -0.70710678118654746 0.70710678118654746 0.25 forward I I I I #
coedge $-1 $297 $297 $190 $299 forward $187 $-1 #
coedge $-1 $298 $298 $461 $462 forward $189 $-1 #
edge $-1 $463 0 $463 6.2831853071796004 $297 $464 forward 7 unknown #
loop $-1 $465 $466 $191 #
cone-surface $-1 0 0 0 0 0 1 0.25 0 0 1 I I -0.70710678118654746 0.70710678118654746 0.25 forward I I I I #
coedge $-1 $302 $302 $195 $304 forward $192 $-1 #
coedge $-1 $303 $303 $466 $467 forward $194 $-1 #
edge $-1 $468 0 $468 6.2831853071796004 $302 $469 forward 7 unknown #
face $-1 $470 $471 $68 $-1 $472 reversed single #
loop $-1 $-1 $473 $196 #
plane-surface $-1 0 -3.2363119636453686 0 0 1 0 0 0 1 forward_v I I I I #
coedge $-1 $474 $475 $476 $477 forward $197 $-1 #
coedge $-1 $478 $199 $479 $480 forward $125 $-1 #
coedge $-1 $199 $478 $481 $482 forward $125 $-1 #
coedge $-1 $483 $484 $199 $312 reversed $485 $-1 #
edge $-1 $486 -3.2363119636453686 $487 3.2363119636453686 $311 $488 forward 7 unknown #
loop $-1 $489 $490 $200 #
cone-surface $-1 0 0 0 0 0 1 0.25 0 0 1 I I -0.70710678118654746 0.70710678118654746 0.25 forward I I I I #
coedge $-1 $315 $315 $204 $317 forward $201 $-1 #
coedge $-1 $316 $316 $490 $491 forward $203 $-1 #
edge $-1 $492 0 $492 6.2831853071796004 $315 $493 forward 7 unknown #
loop $-1 $494 $495 $205 #
cone-surface $-1 0 0 0 0 0 1 0.25 0 0 1 I I -0.70710678118654746 0.70710678118654746 0.25 forward I I I I #
coedge $-1 $320 $320 $209 $322 forward $206 $-1 #
coedge $-1 $321 $321 $495 $496 forward $208 $-1 #
edge $-1 $497 0 $497 6.2831853071796004 $320 $498 forward 7 unknown #
loop $-1 $499 $500 $210 #
cone-surface $-1 0 0 0 0 0 1 0.25 0 0 1 I I -0.70710678118654746 0.70710678118654746 0.25 forward I I I I #
coedge $-1 $325 $325 $214 $327 forward $211 $-1 #
coedge $-1 $326 $326 $500 $501 forward $213 $-1 #
edge $-1 $502 0 $502 6.2831853071796004 $325 $503 forward 7 unknown #
face $-1 $504 $505 $72 $-1 $506 reversed single #
loop $-1 $-1 $507 $215 #
plane-surface $-1 0 -3.2363119636453686 0 0 1 0 0 0 1 forward_v I I I I #
coedge $-1 $508 $509 $510 $511 forward $216 $-1 #
coedge $-1 $512 $218 $513 $514 forward $137 $-1 #
coedge $-1 $218 $512 $515 $516 forward $137 $-1 #
coedge $-1 $517 $518 $218 $335 reversed $519 $-1 #
edge $-1 $520 -3.2363119636453686 $521 3.2363119636453686 $334 $522 forward 7 unknown #
loop $-1 $523 $524 $219 #
cone-surface $-1 0 0 0 0 0 1 0.25 0 0 1 I I -0.70710678118654746 0.70710678118654746 0.25 forward I I I I #
coedge $-1 $338 $338 $223 $340 forward $220 $-1 #
coedge $-1 $339 $339 $524 $525 forward $222 $-1 #
edge $-1 $526 0 $526 6.2831853071796004 $338 $527 forward 7 unknown #
loop $-1 $528 $529 $224 #
cone-surface $-1 0 0 0 0 0 1 0.25 0 0 1 I I -0.70710678118654746 0.70710678118654746 0.25 forward I I I I #
coedge $-1 $343 $343 $228 $345 forward $225 $-1 #
coedge $-1 $344 $344 $529 $530 forward $227 $-1 #
edge $-1 $531 0 $531 6.2831853071796004 $343 $532 forward 7 unknown #
loop $-1 $533 $534 $229 #
cone-surface $-1 0 0 0 0 0 1 0.25 0 0 1 I I -0.70710678118654746 0.70710678118654746 0.25 forward I I I I #
coedge $-1 $348 $348 $233 $350 forward $230 $-1 #
coedge $-1 $349 $349 $534 $535 forward $232 $-1 #
edge $-1 $536 0 $536 6.2831853071796004 $348 $537 forward 7 unknown #
face $-1 $538 $539 $76 $-1 $540 reversed single #
loop $-1 $-1 $541 $234 #
plane-surface $-1 0 -3.2363119636453686 0 0 1 0 0 0 1 forward_v I I I I #
coedge $-1 $542 $543 $544 $545 forward $235 $-1 #
coedge $-1 $546 $237 $547 $548 forward $149 $-1 #
coedge $-1 $237 $546 $549 $550 forward $149 $-1 #
coedge $-1 $551 $552 $237 $358 reversed $553 $-1 #
edge $-1 $554 -3.2363119636453686 $555 3.2363119636453686 $357 $556 forward 7 unknown #
loop $-1 $557 $558 $238 #
cone-surface $-1 0 0 0 0 0 1 0.25 0 0 1 I I -0.70710678118654746 0.70710678118654746 0.25 forward I I I I #
coedge $-1 $361 $361 $242 $363 forward $239 $-1 #
coedge $-1 $362 $362 $558 $559 forward $241 $-1 #
edge $-1 $560 0 $560 6.2831853071796004 $361 $561 forward 7 unknown #
loop $-1 $562 $563 $243 #
cone-surface $-1 0 0 0 0 0 1 0.25 0 0 1 I I -0.70710678118654746 0.70710678118654746 0.25 forward I I I I #
coedge $-1 $366 $366 $247 $368 forward $244 $-1 #
coedge $-1 $367 $367 $563 $564 forward $246 $-1 #
edge $-1 $565 0 $565 6.2831853071796004 $366 $566 forward 7 unknown #
loop $-1 $567 $568 $248 #
cone-surface $-1 0 0 0 0 0 1 0.25 0 0 1 I I -0.70710678118654746 0.70710678118654746 0.25 forward I I I I #
coedge $-1 $371 $371 $252 $373 forward $249 $-1 #
coedge $-1 $372 $372 $568 $569 forward $251 $-1 #
edge $-1 $570 0 $570 6.2831853071796004 $371 $571 forward 7 unknown #
face $-1 $572 $573 $60 $-1 $574 reversed single #
loop $-1 $-1 $575 $253 #
plane-surface $-1 -54.99679555650502 0 0 1 0 0 0 0 -1 forward_v I I I I #
coedge $-1 $576 $385 $577 $578 forward $254 $-1 #
coedge $-1 $579 $256 $576 $580 forward $161 $-1 #
coedge $-1 $256 $579 $581 $582 forward $161 $-1 #
coedge $-1 $388 $387 $256 $381 reversed $389 $-1 #
edge $-1 $583 -22.849677277356733 $584 22.849677277356733 $380 $585 forward 7 unknown #
coedge $-1 $258 $257 $586 $587 forward $101 $-1 #
coedge $-1 $588 $589 $257 $384 reversed $573 $-1 #
edge $-1 $391 -54.99679555650502 $590 54.99679555650502 $383 $591 forward 7 unknown #
coedge $-1 $377 $592 $258 $386 reversed $254 $-1 #
edge $-1 $593 -54.99679555650502 $390 54.99679555650502 $385 $594 forward 7 unknown #
coedge $-1 $380 $259 $592 $595 forward $389 $-1 #
coedge $-1 $259 $380 $588 $596 reversed $389 $-1 #
loop $-1 $-1 $387 $572 #
vertex $-1 $260 $597 #
vertex $-1 $260 $598 #
straight-curve $-1 54.99679555650502 0 11.395968841648349 0 1 0 I I #
face $-1 $599 $600 $61 $-1 $601 reversed single #
loop $-1 $-1 $602 $261 #
plane-surface $-1 -54.99679555650502 0 0 1 0 0 0 0 -1 forward_v I I I I #
coedge $-1 $603 $404 $604 $605 forward $262 $-1 #
coedge $-1 $606 $264 $603 $607 forward $165 $-1 #
coedge $-1 $264 $606 $608 $609 forward $165 $-1 #
coedge $-1 $407 $406 $264 $400 reversed $408 $-1 #
edge $-1 $610 -6.7319511387673403 $611 6.7319511387673403 $399 $612 forward 7 unknown #
coedge $-1 $266 $265 $613 $614 forward $104 $-1 #
coedge $-1 $615 $616 $265 $403 reversed $600 $-1 #
edge $-1 $410 -54.99679555650502 $617 54.99679555650502 $402 $618 forward 7 unknown #
coedge $-1 $396 $619 $266 $405 reversed $262 $-1 #
edge $-1 $620 -54.99679555650502 $409 54.99679555650502 $404 $621 forward 7 unknown #
coedge $-1 $399 $267 $619 $622 forward $408 $-1 #
coedge $-1 $267 $399 $615 $623 reversed $408 $-1 #
loop $-1 $-1 $406 $599 #
vertex $-1 $268 $624 #
vertex $-1 $268 $625 #
straight-curve $-1 54.99679555650502 0 2.8958566411323883 0 1 0 I I #
face $-1 $626 $627 $62 $-1 $628 reversed single #
loop $-1 $-1 $629 $269 #
plane-surface $-1 -219.98718222602008 0 0 1 0 0 0 0 -1 forward_v I I I I #
coedge $-1 $630 $423 $631 $632 forward $270 $-1 #
coedge $-1 $633 $272 $630 $634 forward $169 $-1 #
coedge $-1 $272 $633 $635 $636 forward $169 $-1 #
coedge $-1 $426 $425 $272 $419 reversed $427 $-1 #
edge $-1 $637 -3.0817148784331119 $638 3.0817148784331119 $418 $639 forward 7 unknown #
coedge $-1 $274 $273 $640 $641 forward $107 $-1 #
coedge $-1 $642 $643 $273 $422 reversed $627 $-1 #
edge $-1 $429 -219.98718222602008 $644 219.98718222602008 $421 $645 forward 7 unknown #
coedge $-1 $415 $646 $274 $424 reversed $270 $-1 #
edge $-1 $647 -219.98718222602008 $428 219.98718222602008 $423 $648 forward 7 unknown #
coedge $-1 $418 $275 $646 $649 forward $427 $-1 #
coedge $-1 $275 $418 $642 $650 reversed $427 $-1 #
loop $-1 $-1 $425 $626 #
vertex $-1 $276 $651 #
vertex $-1 $276 $652 #
straight-curve $-1 219.98718222602008 0 109.99359111301004 0 1 0 I I #
loop $-1 $-1 $653 $172 #
coedge $-1 $432 $432 $280 $433 reversed $277 $-1 #
edge $-1 $654 0 $654 6.2831853071796004 $432 $655 forward 7 unknown #
vertex $-1 $281 $656 #
ellipse-curve $-1 0 0 -1.928136539811395 0 0 -1 0.5 0 0 1 I I #
loop $-1 $-1 $657 $177 #
coedge $-1 $437 $437 $285 $438 reversed $282 $-1 #
edge $-1 $658 0 $658 6.2831853071796004 $437 $659 forward 7 unknown #
vertex $-1 $286 $660 #
ellipse-curve $-1 0 0 -1.928136539811395 0 0 -1 0.5 0 0 1 I I #
face $-1 $661 $662 $65 $-1 $663 reversed single #
loop $-1 $-1 $664 $287 #
plane-surface $-1 -219.98718222602008 0 0 1 0 0 0 0 -1 forward_v I I I I #
coedge $-1 $665 $452 $666 $667 forward $288 $-1 #
coedge $-1 $668 $290 $665 $669 forward $183 $-1 #
coedge $-1 $290 $668 $670 $671 forward $183 $-1 #
coedge $-1 $455 $454 $290 $448 reversed $456 $-1 #
edge $-1 $672 -3.0817148784331119 $673 3.0817148784331119 $447 $674 forward 7 unknown #
coedge $-1 $292 $291 $675 $676 forward $116 $-1 #
coedge $-1 $677 $678 $291 $451 reversed $662 $-1 #
edge $-1 $458 -219.98718222602008 $679 219.98718222602008 $450 $680 forward 7 unknown #
coedge $-1 $444 $681 $292 $453 reversed $288 $-1 #
edge $-1 $682 -219.98718222602008 $457 219.98718222602008 $452 $683 forward 7 unknown #
coedge $-1 $447 $293 $681 $684 forward $456 $-1 #
coedge $-1 $293 $447 $677 $685 reversed $456 $-1 #
loop $-1 $-1 $454 $661 #
vertex $-1 $294 $686 #
vertex $-1 $294 $687 #
straight-curve $-1 219.98718222602008 0 109.99359111301004 0 1 0 I I #
loop $-1 $-1 $688 $186 #
coedge $-1 $461 $461 $298 $462 reversed $295 $-1 #
edge $-1 $689 0 $689 6.2831853071796004 $461 $690 forward 7 unknown #
vertex $-1 $299 $691 #
ellipse-curve $-1 0 0 -1.928136539811395 0 0 -1 0.5 0 0 1 I I #
loop $-1 $-1 $692 $191 #
coedge $-1 $466 $466 $303 $467 reversed $300 $-1 #
edge $-1 $693 0 $693 6.2831853071796004 $466 $694 forward 7 unknown #
vertex $-1 $304 $695 #
ellipse-curve $-1 0 0 -1.928136539811395 0 0 -1 0.5 0 0 1 I I #
face $-1 $696 $697 $68 $-1 $698 reversed single #
loop $-1 $-1 $699 $305 #
plane-surface $-1 -219.98718222602008 0 0 1 0 0 0 0 -1 forward_v I I I I #
coedge $-1 $700 $481 $701 $702 forward $306 $-1 #
coedge $-1 $703 $308 $700 $704 forward $197 $-1 #
coedge $-1 $308 $703 $705 $706 forward $197 $-1 #
coedge $-1 $484 $483 $308 $477 reversed $485 $-1 #
edge $-1 $707 -3.2363119636453686 $708 3.2363119636453686 $476 $709 forward 7 unknown #
coedge $-1 $310 $309 $710 $711 forward $125 $-1 #
coedge $-1 $712 $713 $309 $480 reversed $697 $-1 #
edge $-1 $487 -219.98718222602008 $714 219.98718222602008 $479 $715 forward 7 unknown #
coedge $-1 $473 $716 $310 $482 reversed $306 $-1 #
edge $-1 $717 -219.98718222602008 $486 219.98718222602008 $481 $718 forward 7 unknown #
coedge $-1 $476 $311 $716 $719 forward $485 $-1 #
coedge $-1 $311 $476 $712 $720 reversed $485 $-1 #
loop $-1 $-1 $483 $696 #
vertex $-1 $312 $721 #
vertex $-1 $312 $722 #
straight-curve $-1 219.98718222602008 0 109.99359111301004 0 1 0 I I #
loop $-1 $-1 $723 $200 #
coedge $-1 $490 $490 $316 $491 reversed $313 $-1 #
edge $-1 $724 0 $724 6.2831853071796004 $490 $725 forward 7 unknown #
vertex $-1 $317 $726 #
ellipse-curve $-1 0 0 -1.2874767296365244 0 0 -1 0.5 0 0 1 I I #
loop $-1 $-1 $727 $205 #
coedge $-1 $495 $495 $321 $496 reversed $318 $-1 #
edge $-1 $728 0 $728 6.2831853071796004 $495 $729 forward 7 unknown #
vertex $-1 $322 $730 #
ellipse-curve $-1 0 0 -1.2874767296365244 0 0 -1 0.5 0 0 1 I I #
loop $-1 $-1 $731 $210 #
coedge $-1 $500 $500 $326 $501 reversed $323 $-1 #
edge $-1 $732 0 $732 6.2831853071796004 $500 $733 forward 7 unknown #
vertex $-1 $327 $734 #
ellipse-curve $-1 0 0 -1.2874767296365244 0 0 -1 0.5 0 0 1 I I #
face $-1 $735 $736 $72 $-1 $737 reversed single #
loop $-1 $-1 $738 $328 #
plane-surface $-1 -219.98718222602008 0 0 1 0 0 0 0 -1 forward_v I I I I #
coedge $-1 $739 $515 $740 $741 forward $329 $-1 #
coedge $-1 $742 $331 $739 $743 forward $216 $-1 #
coedge $-1 $331 $742 $744 $745 forward $216 $-1 #
coedge $-1 $518 $517 $331 $511 reversed $519 $-1 #
edge $-1 $746 -3.2363119636453686 $747 3.2363119636453686 $510 $748 forward 7 unknown #
coedge $-1 $333 $332 $749 $750 forward $137 $-1 #
coedge $-1 $751 $752 $332 $514 reversed $736 $-1 #
edge $-1 $521 -219.98718222602008 $753 219.98718222602008 $513 $754 forward 7 unknown #
coedge $-1 $507 $755 $333 $516 reversed $329 $-1 #
edge $-1 $756 -219.98718222602008 $520 219.98718222602008 $515 $757 forward 7 unknown #
coedge $-1 $510 $334 $755 $758 forward $519 $-1 #
coedge $-1 $334 $510 $751 $759 reversed $519 $-1 #
loop $-1 $-1 $517 $735 #
vertex $-1 $335 $760 #
vertex $-1 $335 $761 #
straight-curve $-1 219.98718222602008 0 109.99359111301004 0 1 0 I I #
loop $-1 $-1 $762 $219 #
coedge $-1 $524 $524 $339 $525 reversed $336 $-1 #
edge $-1 $763 0 $763 6.2831853071796004 $524 $764 forward 7 unknown #
vertex $-1 $340 $765 #
ellipse-curve $-1 0 0 -1.2874767296365244 0 0 -1 0.5 0 0 1 I I #
loop $-1 $-1 $766 $224 #
coedge $-1 $529 $529 $344 $530 reversed $341 $-1 #
edge $-1 $767 0 $767 6.2831853071796004 $529 $768 forward 7 unknown #
vertex $-1 $345 $769 #
ellipse-curve $-1 0 0 -1.2874767296365244 0 0 -1 0.5 0 0 1 I I #
loop $-1 $-1 $770 $229 #
coedge $-1 $534 $534 $349 $535 reversed $346 $-1 #
edge $-1 $771 0 $771 6.2831853071796004 $534 $772 forward 7 unknown #
vertex $-1 $350 $773 #
ellipse-curve $-1 0 0 -1.2874767296365244 0 0 -1 0.5 0 0 1 I I #
face $-1 $774 $775 $76 $-1 $776 reversed single #
loop $-1 $-1 $777 $351 #
plane-surface $-1 -219.98718222602008 0 0 1 0 0 0 0 -1 forward_v I I I I #
coedge $-1 $778 $549 $779 $780 forward $352 $-1 #
coedge $-1 $781 $354 $778 $782 forward $235 $-1 #
coedge $-1 $354 $781 $783 $784 forward $235 $-1 #
coedge $-1 $552 $551 $354 $545 reversed $553 $-1 #
edge $-1 $785 -3.2363119636453686 $786 3.2363119636453686 $544 $787 forward 7 unknown #
coedge $-1 $356 $355 $788 $789 forward $149 $-1 #
coedge $-1 $790 $791 $355 $548 reversed $775 $-1 #
edge $-1 $555 -219.98718222602008 $792 219.98718222602008 $547 $793 forward 7 unknown #
coedge $-1 $541 $794 $356 $550 reversed $352 $-1 #
edge $-1 $795 -219.98718222602008 $554 219.98718222602008 $549 $796 forward 7 unknown #
coedge $-1 $544 $357 $794 $797 forward $553 $-1 #
coedge $-1 $357 $544 $790 $798 reversed $553 $-1 #
loop $-1 $-1 $551 $774 #
vertex $-1 $358 $799 #
vertex $-1 $358 $800 #
straight-curve $-1 219.98718222602008 0 109.99359111301004 0 1 0 I I #
loop $-1 $-1 $801 $238 #
coedge $-1 $558 $558 $362 $559 reversed $359 $-1 #
edge $-1 $802 0 $802 6.2831853071796004 $558 $803 forward 7 unknown #
vertex $-1 $363 $804 #
ellipse-curve $-1 0 0 -1.2874767296365244 0 0 -1 0.5 0 0 1 I I #
loop $-1 $-1 $805 $243 #
coedge $-1 $563 $563 $367 $564 reversed $364 $-1 #
edge $-1 $806 0 $806 6.2831853071796004 $563 $807 forward 7 unknown #
vertex $-1 $368 $808 #
ellipse-curve $-1 0 0 -1.2874767296365244 0 0 -1 0.5 0 0 1 I I #
loop $-1 $-1 $809 $248 #
coedge $-1 $568 $568 $372 $569 reversed $369 $-1 #
edge $-1 $810 0 $810 6.2831853071796004 $568 $811 forward 7 unknown #
vertex $-1 $373 $812 #
ellipse-curve $-1 0 0 -1.2874767296365244 0 0 -1 0.5 0 0 1 I I #
face $-1 $-1 $389 $60 $-1 $813 reversed single #
loop $-1 $-1 $588 $374 #
plane-surface $-1 0 22.849677277356733 0 0 -1 0 0 0 -1 forward_v I I I I #
coedge $-1 $814 $586 $589 $815 forward $375 $-1 #
coedge $-1 $592 $377 $378 $580 reversed $254 $-1 #
coedge $-1 $586 $814 $377 $578 reversed $375 $-1 #
edge $-1 $593 -11.395968841648349 $816 11.395968841648349 $577 $817 forward 7 unknown #
coedge $-1 $379 $378 $814 $818 forward $161 $-1 #
edge $-1 $584 -54.99679555650502 $816 54.99679555650502 $576 $819 forward 7 unknown #
coedge $-1 $589 $588 $379 $582 reversed $573 $-1 #
edge $-1 $820 -54.99679555650502 $583 54.99679555650502 $581 $821 forward 7 unknown #
vertex $-1 $381 $822 #
vertex $-1 $595 $823 #
straight-curve $-1 54.99679555650502 0 -11.395968841648349 0 -1 0 I I #
coedge $-1 $575 $577 $382 $587 reversed $375 $-1 #
edge $-1 $590 -22.849677277356733 $593 22.849677277356733 $586 $824 forward 7 unknown #
coedge $-1 $581 $383 $388 $596 forward $573 $-1 #
coedge $-1 $383 $581 $575 $815 reversed $573 $-1 #
vertex $-1 $384 $825 #
straight-curve $-1 0 22.849677277356733 11.395968841648349 -1 0 0 I I #
coedge $-1 $385 $576 $387 $595 reversed $254 $-1 #
vertex $-1 $587 $826 #
straight-curve $-1 0 -22.849677277356733 11.395968841648349 1 0 0 I I #
edge $-1 $390 -11.395968841648349 $584 11.395968841648349 $387 $827 forward 7 unknown #
edge $-1 $391 -11.395968841648349 $583 11.395968841648349 $388 $828 forward 7 unknown #
point $-1 54.99679555650502 -22.849677277356733 11.395968841648349 #
point $-1 54.99679555650502 22.849677277356733 11.395968841648349 #
face $-1 $-1 $408 $61 $-1 $829 reversed single #
loop $-1 $-1 $615 $393 #
plane-surface $-1 0 6.7319511387673403 0 0 -1 0 0 0 -1 forward_v I I I I #
coedge $-1 $830 $613 $616 $831 forward $394 $-1 #
coedge $-1 $619 $396 $397 $607 reversed $262 $-1 #
coedge $-1 $613 $830 $396 $605 reversed $394 $-1 #
edge $-1 $620 -2.8958566411323883 $832 2.8958566411323883 $604 $833 forward 7 unknown #
coedge $-1 $398 $397 $830 $834 forward $165 $-1 #
edge $-1 $611 -54.99679555650502 $832 54.99679555650502 $603 $835 forward 7 unknown #
coedge $-1 $616 $615 $398 $609 reversed $600 $-1 #
edge $-1 $836 -54.99679555650502 $610 54.99679555650502 $608 $837 forward 7 unknown #
vertex $-1 $400 $838 #
vertex $-1 $622 $839 #
straight-curve $-1 54.99679555650502 0 -2.8958566411323883 0 -1 0 I I #
coedge $-1 $602 $604 $401 $614 reversed $394 $-1 #
edge $-1 $617 -6.7319511387673403 $620 6.7319511387673403 $613 $840 forward 7 unknown #
coedge $-1 $608 $402 $407 $623 forward $600 $-1 #
coedge $-1 $402 $608 $602 $831 reversed $600 $-1 #
vertex $-1 $403 $841 #
straight-curve $-1 0 6.7319511387673403 2.8958566411323883 -1 0 0 I I #
coedge $-1 $404 $603 $406 $622 reversed $262 $-1 #
vertex $-1 $614 $842 #
straight-curve $-1 0 -6.7319511387673403 2.8958566411323883 1 0 0 I I #
edge $-1 $409 -2.8958566411323883 $611 2.8958566411323883 $406 $843 forward 7 unknown #
edge $-1 $410 -2.8958566411323883 $610 2.8958566411323883 $407 $844 forward 7 unknown #
point $-1 54.99679555650502 -6.7319511387673403 2.8958566411323883 #
point $-1 54.99679555650502 6.7319511387673403 2.8958566411323883 #
face $-1 $-1 $427 $62 $-1 $845 reversed single #
loop $-1 $-1 $642 $412 #
plane-surface $-1 0 3.0817148784331119 0 0 -1 0 0 0 -1 forward_v I I I I #
coedge $-1 $846 $640 $643 $847 forward $413 $-1 #
coedge $-1 $646 $415 $416 $634 reversed $270 $-1 #
coedge $-1 $640 $846 $415 $632 reversed $413 $-1 #
edge $-1 $647 -109.99359111301004 $848 109.99359111301004 $631 $849 forward 7 unknown #
coedge $-1 $417 $416 $846 $850 forward $169 $-1 #
edge $-1 $638 -219.98718222602008 $848 219.98718222602008 $630 $851 forward 7 unknown #
coedge $-1 $643 $642 $417 $636 reversed $627 $-1 #
edge $-1 $852 -219.98718222602008 $637 219.98718222602008 $635 $853 forward 7 unknown #
vertex $-1 $419 $854 #
vertex $-1 $649 $855 #
straight-curve $-1 219.98718222602008 0 -109.99359111301004 0 -1 0 I I #
coedge $-1 $629 $631 $420 $641 reversed $413 $-1 #
edge $-1 $644 -3.0817148784331119 $647 3.0817148784331119 $640 $856 forward 7 unknown #
coedge $-1 $635 $421 $426 $650 forward $627 $-1 #
coedge $-1 $421 $635 $629 $847 reversed $627 $-1 #
vertex $-1 $422 $857 #
straight-curve $-1 0 3.0817148784331119 109.99359111301004 -1 0 0 I I #
coedge $-1 $423 $630 $425 $649 reversed $270 $-1 #
vertex $-1 $641 $858 #
straight-curve $-1 0 -3.0817148784331119 109.99359111301004 1 0 0 I I #
edge $-1 $428 -109.99359111301004 $638 109.99359111301004 $425 $859 forward 7 unknown #
edge $-1 $429 -109.99359111301004 $637 109.99359111301004 $426 $860 forward 7 unknown #
point $-1 219.98718222602008 -3.0817148784331119 109.99359111301004 #
point $-1 219.98718222602008 3.0817148784331119 109.99359111301004 #
coedge $-1 $653 $653 $-1 $861 reversed $431 $-1 #
vertex $-1 $433 $862 #
ellipse-curve $-1 0 0 -0.25 0 0 -1 0.5 0 0 1 I I #
point $-1 0.5 0 -1.928136539811395 #
coedge $-1 $657 $657 $-1 $863 reversed $436 $-1 #
vertex $-1 $438 $864 #
ellipse-curve $-1 0 0 -0.25 0 0 -1 0.5 0 0 1 I I #
point $-1 0.5 0 -1.928136539811395 #
face $-1 $-1 $456 $65 $-1 $865 reversed single #
loop $-1 $-1 $677 $441 #
plane-surface $-1 0 3.0817148784331119 0 0 -1 0 0 0 -1 forward_v I I I I #
coedge $-1 $866 $675 $678 $867 forward $442 $-1 #
coedge $-1 $681 $444 $445 $669 reversed $288 $-1 #
coedge $-1 $675 $866 $444 $667 reversed $442 $-1 #
edge $-1 $682 -109.99359111301004 $868 109.99359111301004 $666 $869 forward 7 unknown #
coedge $-1 $446 $445 $866 $870 forward $183 $-1 #
edge $-1 $673 -219.98718222602008 $868 219.98718222602008 $665 $871 forward 7 unknown #
coedge $-1 $678 $677 $446 $671 reversed $662 $-1 #
edge $-1 $872 -219.98718222602008 $672 219.98718222602008 $670 $873 forward 7 unknown #
vertex $-1 $448 $874 #
vertex $-1 $684 $875 #
straight-curve $-1 219.98718222602008 0 -109.99359111301004 0 -1 0 I I #
coedge $-1 $664 $666 $449 $676 reversed $442 $-1 #
edge $-1 $679 -3.0817148784331119 $682 3.0817148784331119 $675 $876 forward 7 unknown #
coedge $-1 $670 $450 $455 $685 forward $662 $-1 #
coedge $-1 $450 $670 $664 $867 reversed $662 $-1 #
vertex $-1 $451 $877 #
straight-curve $-1 0 3.0817148784331119 109.99359111301004 -1 0 0 I I #
coedge $-1 $452 $665 $454 $684 reversed $288 $-1 #
vertex $-1 $676 $878 #
straight-curve $-1 0 -3.0817148784331119 109.99359111301004 1 0 0 I I #
edge $-1 $457 -109.99359111301004 $673 109.99359111301004 $454 $879 forward 7 unknown #
edge $-1 $458 -109.99359111301004 $672 109.99359111301004 $455 $880 forward 7 unknown #
point $-1 219.98718222602008 -3.0817148784331119 109.99359111301004 #
point $-1 219.98718222602008 3.0817148784331119 109.99359111301004 #
coedge $-1 $688 $688 $-1 $881 reversed $460 $-1 #
vertex $-1 $462 $882 #
ellipse-curve $-1 0 0 -0.25 0 0 -1 0.5 0 0 1 I I #
point $-1 0.5 0 -1.928136539811395 #
coedge $-1 $692 $692 $-1 $883 reversed $465 $-1 #
vertex $-1 $467 $884 #
ellipse-curve $-1 0 0 -0.25 0 0 -1 0.5 0 0 1 I I #
point $-1 0.5 0 -1.928136539811395 #
face $-1 $-1 $485 $68 $-1 $885 reversed single #
loop $-1 $-1 $712 $470 #
plane-surface $-1 0 3.2363119636453686 0 0 -1 0 0 0 -1 forward_v I I I I #
coedge $-1 $886 $710 $713 $887 forward $471 $-1 #
coedge $-1 $716 $473 $474 $704 reversed $306 $-1 #
coedge $-1 $710 $886 $473 $702 reversed $471 $-1 #
edge $-1 $717 -109.99359111301004 $888 109.99359111301004 $701 $889 forward 7 unknown #
coedge $-1 $475 $474 $886 $890 forward $197 $-1 #
edge $-1 $708 -219.98718222602008 $888 219.98718222602008 $700 $891 forward 7 unknown #
coedge $-1 $713 $712 $475 $706 reversed $697 $-1 #
edge $-1 $892 -219.98718222602008 $707 219.98718222602008 $705 $893 forward 7 unknown #
vertex $-1 $477 $894 #
vertex $-1 $719 $895 #
straight-curve $-1 219.98718222602008 0 -109.99359111301004 0 -1 0 I I #
coedge $-1 $699 $701 $478 $711 reversed $471 $-1 #
edge $-1 $714 -3.2363119636453686 $717 3.2363119636453686 $710 $896 forward 7 unknown #
coedge $-1 $705 $479 $484 $720 forward $697 $-1 #
coedge $-1 $479 $705 $699 $887 reversed $697 $-1 #
vertex $-1 $480 $897 #
straight-curve $-1 0 3.2363119636453686 109.99359111301004 -1 0 0 I I #
coedge $-1 $481 $700 $483 $719 reversed $306 $-1 #
vertex $-1 $711 $898 #
straight-curve $-1 0 -3.2363119636453686 109.99359111301004 1 0 0 I I #
edge $-1 $486 -109.99359111301004 $708 109.99359111301004 $483 $899 forward 7 unknown #
edge $-1 $487 -109.99359111301004 $707 109.99359111301004 $484 $900 forward 7 unknown #
point $-1 219.98718222602008 -3.2363119636453686 109.99359111301004 #
point $-1 219.98718222602008 3.2363119636453686 109.99359111301004 #
coedge $-1 $723 $723 $-1 $901 reversed $489 $-1 #
vertex $-1 $491 $902 #
ellipse-curve $-1 0 0 -0.25 0 0 -1 0.5 0 0 1 I I #
point $-1 0.5 0 -1.2874767296365244 #
coedge $-1 $727 $727 $-1 $903 reversed $494 $-1 #
vertex $-1 $496 $904 #
ellipse-curve $-1 0 0 -0.25 0 0 -1 0.5 0 0 1 I I #
point $-1 0.5 0 -1.2874767296365244 #
coedge $-1 $731 $731 $-1 $905 reversed $499 $-1 #
vertex $-1 $501 $906 #
ellipse-curve $-1 0 0 -0.25 0 0 -1 0.5 0 0 1 I I #
point $-1 0.5 0 -1.2874767296365244 #
face $-1 $-1 $519 $72 $-1 $907 reversed single #
loop $-1 $-1 $751 $504 #
plane-surface $-1 0 3.2363119636453686 0 0 -1 0 0 0 -1 forward_v I I I I #
coedge $-1 $908 $749 $752 $909 forward $505 $-1 #
coedge $-1 $755 $507 $508 $743 reversed $329 $-1 #
coedge $-1 $749 $908 $507 $741 reversed $505 $-1 #
edge $-1 $756 -109.99359111301004 $910 109.99359111301004 $740 $911 forward 7 unknown #
coedge $-1 $509 $508 $908 $912 forward $216 $-1 #
edge $-1 $747 -219.98718222602008 $910 219.98718222602008 $739 $913 forward 7 unknown #
coedge $-1 $752 $751 $509 $745 reversed $736 $-1 #
edge $-1 $914 -219.98718222602008 $746 219.98718222602008 $744 $915 forward 7 unknown #
vertex $-1 $511 $916 #
vertex $-1 $758 $917 #
straight-curve $-1 219.98718222602008 0 -109.99359111301004 0 -1 0 I I #
coedge $-1 $738 $740 $512 $750 reversed $505 $-1 #
edge $-1 $753 -3.2363119636453686 $756 3.2363119636453686 $749 $918 forward 7 unknown #
coedge $-1 $744 $513 $518 $759 forward $736 $-1 #
coedge $-1 $513 $744 $738 $909 reversed $736 $-1 #
vertex $-1 $514 $919 #
straight-curve $-1 0 3.2363119636453686 109.99359111301004 -1 0 0 I I #
coedge $-1 $515 $739 $517 $758 reversed $329 $-1 #
vertex $-1 $750 $920 #
straight-curve $-1 0 -3.2363119636453686 109.99359111301004 1 0 0 I I #
edge $-1 $520 -109.99359111301004 $747 109.99359111301004 $517 $921 forward 7 unknown #
edge $-1 $521 -109.99359111301004 $746 109.99359111301004 $518 $922 forward 7 unknown #
point $-1 219.98718222602008 -3.2363119636453686 109.99359111301004 #
point $-1 219.98718222602008 3.2363119636453686 109.99359111301004 #
coedge $-1 $762 $762 $-1 $923 reversed $523 $-1 #
vertex $-1 $525 $924 #
ellipse-curve $-1 0 0 -0.25 0 0 -1 0.5 0 0 1 I I #
point $-1 0.5 0 -1.2874767296365244 #
coedge $-1 $766 $766 $-1 $925 reversed $528 $-1 #
vertex $-1 $530 $926 #
ellipse-curve $-1 0 0 -0.25 0 0 -1 0.5 0 0 1 I I #
point $-1 0.5 0 -1.2874767296365244 #
coedge $-1 $770 $770 $-1 $927 reversed $533 $-1 #
vertex $-1 $535 $928 #
ellipse-curve $-1 0 0 -0.25 0 0 -1 0.5 0 0 1 I I #
point $-1 0.5 0 -1.2874767296365244 #
face $-1 $-1 $553 $76 $-1 $929 reversed single #
loop $-1 $-1 $790 $538 #
plane-surface $-1 0 3.2363119636453686 0 0 -1 0 0 0 -1 forward_v I I I I #
coedge $-1 $930 $788 $791 $931 forward $539 $-1 #
coedge $-1 $794 $541 $542 $782 reversed $352 $-1 #
coedge $-1 $788 $930 $541 $780 reversed $539 $-1 #
edge $-1 $795 -109.99359111301004 $932 109.99359111301004 $779 $933 forward 7 unknown #
coedge $-1 $543 $542 $930 $934 forward $235 $-1 #
edge $-1 $786 -219.98718222602008 $932 219.98718222602008 $778 $935 forward 7 unknown #
coedge $-1 $791 $790 $543 $784 reversed $775 $-1 #
edge $-1 $936 -219.98718222602008 $785 219.98718222602008 $783 $937 forward 7 unknown #
vertex $-1 $545 $938 #
vertex $-1 $797 $939 #
straight-curve $-1 219.98718222602008 0 -109.99359111301004 0 -1 0 I I #
coedge $-1 $777 $779 $546 $789 reversed $539 $-1 #
edge $-1 $792 -3.2363119636453686 $795 3.2363119636453686 $788 $940 forward 7 unknown #
coedge $-1 $783 $547 $552 $798 forward $775 $-1 #
coedge $-1 $547 $783 $777 $931 reversed $775 $-1 #
vertex $-1 $548 $941 #
straight-curve $-1 0 3.2363119636453686 109.99359111301004 -1 0 0 I I #
coedge $-1 $549 $778 $551 $797 reversed $352 $-1 #
vertex $-1 $789 $942 #
straight-curve $-1 0 -3.2363119636453686 109.99359111301004 1 0 0 I I #
edge $-1 $554 -109.99359111301004 $786 109.99359111301004 $551 $943 forward 7 unknown #
edge $-1 $555 -109.99359111301004 $785 109.99359111301004 $552 $944 forward 7 unknown #
point $-1 219.98718222602008 -3.2363119636453686 109.99359111301004 #
point $-1 219.98718222602008 3.2363119636453686 109.99359111301004 #
coedge $-1 $801 $801 $-1 $945 reversed $557 $-1 #
vertex $-1 $559 $946 #
ellipse-curve $-1 0 0 -0.25 0 0 -1 0.5 0 0 1 I I #
point $-1 0.5 0 -1.2874767296365244 #
coedge $-1 $805 $805 $-1 $947 reversed $562 $-1 #
vertex $-1 $564 $948 #
ellipse-curve $-1 0 0 -0.25 0 0 -1 0.5 0 0 1 I I #
point $-1 0.5 0 -1.2874767296365244 #
coedge $-1 $809 $809 $-1 $949 reversed $567 $-1 #
vertex $-1 $569 $950 #
ellipse-curve $-1 0 0 -0.25 0 0 -1 0.5 0 0 1 I I #
point $-1 0.5 0 -1.2874767296365244 #
plane-surface $-1 54.99679555650502 0 0 -1 0 0 0 0 1 forward_v I I I I #
coedge $-1 $577 $575 $579 $818 reversed $375 $-1 #
edge $-1 $590 -11.395968841648349 $820 11.395968841648349 $589 $951 forward 7 unknown #
vertex $-1 $818 $952 #
straight-curve $-1 -54.99679555650502 -22.849677277356733 0 0 0 -1 I I #
edge $-1 $816 -22.849677277356733 $820 22.849677277356733 $814 $953 forward 7 unknown #
straight-curve $-1 0 -22.849677277356733 -11.395968841648349 -1 0 0 I I #
vertex $-1 $582 $954 #
straight-curve $-1 0 22.849677277356733 -11.395968841648349 1 0 0 I I #
point $-1 54.99679555650502 22.849677277356733 -11.395968841648349 #
point $-1 54.99679555650502 -22.849677277356733 -11.395968841648349 #
straight-curve $-1 -54.99679555650502 0 11.395968841648349 0 -1 0 I I #
point $-1 -54.99679555650502 22.849677277356733 11.395968841648349 #
point $-1 -54.99679555650502 -22.849677277356733 11.395968841648349 #
straight-curve $-1 54.99679555650502 -22.849677277356733 0 0 0 -1 I I #
straight-curve $-1 54.99679555650502 22.849677277356733 0 0 0 -1 I I #
plane-surface $-1 54.99679555650502 0 0 -1 0 0 0 0 1 forward_v I I I I #
coedge $-1 $604 $602 $606 $834 reversed $394 $-1 #
edge $-1 $617 -2.8958566411323883 $836 2.8958566411323883 $616 $955 forward 7 unknown #
vertex $-1 $834 $956 #
straight-curve $-1 -54.99679555650502 -6.7319511387673403 0 0 0 -1 I I #
edge $-1 $832 -6.7319511387673403 $836 6.7319511387673403 $830 $957 forward 7 unknown #
straight-curve $-1 0 -6.7319511387673403 -2.8958566411323883 -1 0 0 I I #
vertex $-1 $609 $958 #
straight-curve $-1 0 6.7319511387673403 -2.8958566411323883 1 0 0 I I #
point $-1 54.99679555650502 6.7319511387673403 -2.8958566411323883 #
point $-1 54.99679555650502 -6.7319511387673403 -2.8958566411323883 #
straight-curve $-1 -54.99679555650502 0 2.8958566411323883 0 -1 0 I I #
point $-1 -54.99679555650502 6.7319511387673403 2.8958566411323883 #
point $-1 -54.99679555650502 -6.7319511387673403 2.8958566411323883 #
straight-curve $-1 54.99679555650502 -6.7319511387673403 0 0 0 -1 I I #
straight-curve $-1 54.99679555650502 6.7319511387673403 0 0 0 -1 I I #
plane-surface $-1 219.98718222602008 0 0 -1 0 0 0 0 1 forward_v I I I I #
coedge $-1 $631 $629 $633 $850 reversed $413 $-1 #
edge $-1 $644 -109.99359111301004 $852 109.99359111301004 $643 $959 forward 7 unknown #
vertex $-1 $850 $960 #
straight-curve $-1 -219.98718222602008 -3.0817148784331119 0 0 0 -1 I I #
edge $-1 $848 -3.0817148784331119 $852 3.0817148784331119 $846 $961 forward 7 unknown #
straight-curve $-1 0 -3.0817148784331119 -109.99359111301004 -1 0 0 I I #
vertex $-1 $636 $962 #
straight-curve $-1 0 3.0817148784331119 -109.99359111301004 1 0 0 I I #
point $-1 219.98718222602008 3.0817148784331119 -109.99359111301004 #
point $-1 219.98718222602008 -3.0817148784331119 -109.99359111301004 #
straight-curve $-1 -219.98718222602008 0 109.99359111301004 0 -1 0 I I #
point $-1 -219.98718222602008 3.0817148784331119 109.99359111301004 #
point $-1 -219.98718222602008 -3.0817148784331119 109.99359111301004 #
straight-curve $-1 219.98718222602008 -3.0817148784331119 0 0 0 -1 I I #
straight-curve $-1 219.98718222602008 3.0817148784331119 0 0 0 -1 I I #
edge $-1 $963 1 $963 0 $653 $-1 forward 7 unknown #
point $-1 0.5 0 -0.25 #
edge $-1 $964 1 $964 0 $657 $-1 forward 7 unknown #
point $-1 0.5 0 -0.25 #
plane-surface $-1 219.98718222602008 0 0 -1 0 0 0 0 1 forward_v I I I I #
coedge $-1 $666 $664 $668 $870 reversed $442 $-1 #
edge $-1 $679 -109.99359111301004 $872 109.99359111301004 $678 $965 forward 7 unknown #
vertex $-1 $870 $966 #
straight-curve $-1 -219.98718222602008 -3.0817148784331119 0 0 0 -1 I I #
edge $-1 $868 -3.0817148784331119 $872 3.0817148784331119 $866 $967 forward 7 unknown #
straight-curve $-1 0 -3.0817148784331119 -109.99359111301004 -1 0 0 I I #
vertex $-1 $671 $968 #
straight-curve $-1 0 3.0817148784331119 -109.99359111301004 1 0 0 I I #
point $-1 219.98718222602008 3.0817148784331119 -109.99359111301004 #
point $-1 219.98718222602008 -3.0817148784331119 -109.99359111301004 #
straight-curve $-1 -219.98718222602008 0 109.99359111301004 0 -1 0 I I #
point $-1 -219.98718222602008 3.0817148784331119 109.99359111301004 #
point $-1 -219.98718222602008 -3.0817148784331119 109.99359111301004 #
straight-curve $-1 219.98718222602008 -3.0817148784331119 0 0 0 -1 I I #
straight-curve $-1 219.98718222602008 3.0817148784331119 0 0 0 -1 I I #
edge $-1 $969 1 $969 0 $688 $-1 forward 7 unknown #
point $-1 0.5 0 -0.25 #
edge $-1 $970 1 $970 0 $692 $-1 forward 7 unknown #
point $-1 0.5 0 -0.25 #
plane-surface $-1 219.98718222602008 0 0 -1 0 0 0 0 1 forward_v I I I I #
coedge $-1 $701 $699 $703 $890 reversed $471 $-1 #
edge $-1 $714 -109.99359111301004 $892 109.99359111301004 $713 $971 forward 7 unknown #
vertex $-1 $890 $972 #
straight-curve $-1 -219.98718222602008 -3.2363119636453686 0 0 0 -1 I I #
edge $-1 $888 -3.2363119636453686 $892 3.2363119636453686 $886 $973 forward 7 unknown #
straight-curve $-1 0 -3.2363119636453686 -109.99359111301004 -1 0 0 I I #
vertex $-1 $706 $974 #
straight-curve $-1 0 3.2363119636453686 -109.99359111301004 1 0 0 I I #
point $-1 219.98718222602008 3.2363119636453686 -109.99359111301004 #
point $-1 219.98718222602008 -3.2363119636453686 -109.99359111301004 #
straight-curve $-1 -219.98718222602008 0 109.99359111301004 0 -1 0 I I #
point $-1 -219.98718222602008 3.2363119636453686 109.99359111301004 #
point $-1 -219.98718222602008 -3.2363119636453686 109.99359111301004 #
straight-curve $-1 219.98718222602008 -3.2363119636453686 0 0 0 -1 I I #
straight-curve $-1 219.98718222602008 3.2363119636453686 0 0 0 -1 I I #
edge $-1 $975 1 $975 0 $723 $-1 forward 7 unknown #
point $-1 0.5 0 -0.25 #
edge $-1 $976 1 $976 0 $727 $-1 forward 7 unknown #
point $-1 0.5 0 -0.25 #
edge $-1 $977 1 $977 0 $731 $-1 forward 7 unknown #
point $-1 0.5 0 -0.25 #
plane-surface $-1 219.98718222602008 0 0 -1 0 0 0 0 1 forward_v I I I I #
coedge $-1 $740 $738 $742 $912 reversed $505 $-1 #
edge $-1 $753 -109.99359111301004 $914 109.99359111301004 $752 $978 forward 7 unknown #
vertex $-1 $912 $979 #
straight-curve $-1 -219.98718222602008 -3.2363119636453686 0 0 0 -1 I I #
edge $-1 $910 -3.2363119636453686 $914 3.2363119636453686 $908 $980 forward 7 unknown #
straight-curve $-1 0 -3.2363119636453686 -109.99359111301004 -1 0 0 I I #
vertex $-1 $745 $981 #
straight-curve $-1 0 3.2363119636453686 -109.99359111301004 1 0 0 I I #
point $-1 219.98718222602008 3.2363119636453686 -109.99359111301004 #
point $-1 219.98718222602008 -3.2363119636453686 -109.99359111301004 #
straight-curve $-1 -219.98718222602008 0 109.99359111301004 0 -1 0 I I #
point $-1 -219.98718222602008 3.2363119636453686 109.99359111301004 #
point $-1 -219.98718222602008 -3.2363119636453686 109.99359111301004 #
straight-curve $-1 219.98718222602008 -3.2363119636453686 0 0 0 -1 I I #
straight-curve $-1 219.98718222602008 3.2363119636453686 0 0 0 -1 I I #
edge $-1 $982 1 $982 0 $762 $-1 forward 7 unknown #
point $-1 0.5 0 -0.25 #
edge $-1 $983 1 $983 0 $766 $-1 forward 7 unknown #
point $-1 0.5 0 -0.25 #
edge $-1 $984 1 $984 0 $770 $-1 forward 7 unknown #
point $-1 0.5 0 -0.25 #
plane-surface $-1 219.98718222602008 0 0 -1 0 0 0 0 1 forward_v I I I I #
coedge $-1 $779 $777 $781 $934 reversed $539 $-1 #
edge $-1 $792 -109.99359111301004 $936 109.99359111301004 $791 $985 forward 7 unknown #
vertex $-1 $934 $986 #
straight-curve $-1 -219.98718222602008 -3.2363119636453686 0 0 0 -1 I I #
edge $-1 $932 -3.2363119636453686 $936 3.2363119636453686 $930 $987 forward 7 unknown #
straight-curve $-1 0 -3.2363119636453686 -109.99359111301004 -1 0 0 I I #
vertex $-1 $784 $988 #
straight-curve $-1 0 3.2363119636453686 -109.99359111301004 1 0 0 I I #
point $-1 219.98718222602008 3.2363119636453686 -109.99359111301004 #
point $-1 219.98718222602008 -3.2363119636453686 -109.99359111301004 #
straight-curve $-1 -219.98718222602008 0 109.99359111301004 0 -1 0 I I #
point $-1 -219.98718222602008 3.2363119636453686 109.99359111301004 #
point $-1 -219.98718222602008 -3.2363119636453686 109.99359111301004 #
straight-curve $-1 219.98718222602008 -3.2363119636453686 0 0 0 -1 I I #
straight-curve $-1 219.98718222602008 3.2363119636453686 0 0 0 -1 I I #
edge $-1 $989 1 $989 0 $801 $-1 forward 7 unknown #
point $-1 0.5 0 -0.25 #
edge $-1 $990 1 $990 0 $805 $-1 forward 7 unknown #
point $-1 0.5 0 -0.25 #
edge $-1 $991 1 $991 0 $809 $-1 forward 7 unknown #
point $-1 0.5 0 -0.25 #
straight-curve $-1 -54.99679555650502 22.849677277356733 0 0 0 -1 I I #
point $-1 -54.99679555650502 -22.849677277356733 -11.395968841648349 #
straight-curve $-1 -54.99679555650502 0 -11.395968841648349 0 1 0 I I #
point $-1 -54.99679555650502 22.849677277356733 -11.395968841648349 #
straight-curve $-1 -54.99679555650502 6.7319511387673403 0 0 0 -1 I I #
point $-1 -54.99679555650502 -6.7319511387673403 -2.8958566411323883 #
straight-curve $-1 -54.99679555650502 0 -2.8958566411323883 0 1 0 I I #
point $-1 -54.99679555650502 6.7319511387673403 -2.8958566411323883 #
straight-curve $-1 -219.98718222602008 3.0817148784331119 0 0 0 -1 I I #
point $-1 -219.98718222602008 -3.0817148784331119 -109.99359111301004 #
straight-curve $-1 -219.98718222602008 0 -109.99359111301004 0 1 0 I I #
point $-1 -219.98718222602008 3.0817148784331119 -109.99359111301004 #
vertex $-1 $861 $992 #
vertex $-1 $863 $993 #
straight-curve $-1 -219.98718222602008 3.0817148784331119 0 0 0 -1 I I #
point $-1 -219.98718222602008 -3.0817148784331119 -109.99359111301004 #
straight-curve $-1 -219.98718222602008 0 -109.99359111301004 0 1 0 I I #
point $-1 -219.98718222602008 3.0817148784331119 -109.99359111301004 #
vertex $-1 $881 $994 #
vertex $-1 $883 $995 #
straight-curve $-1 -219.98718222602008 3.2363119636453686 0 0 0 -1 I I #
point $-1 -219.98718222602008 -3.2363119636453686 -109.99359111301004 #
straight-curve $-1 -219.98718222602008 0 -109.99359111301004 0 1 0 I I #
point $-1 -219.98718222602008 3.2363119636453686 -109.99359111301004 #
vertex $-1 $901 $996 #
vertex $-1 $903 $997 #
vertex $-1 $905 $998 #
straight-curve $-1 -219.98718222602008 3.2363119636453686 0 0 0 -1 I I #
point $-1 -219.98718222602008 -3.2363119636453686 -109.99359111301004 #
straight-curve $-1 -219.98718222602008 0 -109.99359111301004 0 1 0 I I #
point $-1 -219.98718222602008 3.2363119636453686 -109.99359111301004 #
vertex $-1 $923 $999 #
vertex $-1 $925 $1000 #
vertex $-1 $927 $1001 #
straight-curve $-1 -219.98718222602008 3.2363119636453686 0 0 0 -1 I I #
point $-1 -219.98718222602008 -3.2363119636453686 -109.99359111301004 #
straight-curve $-1 -219.98718222602008 0 -109.99359111301004 0 1 0 I I #
point $-1 -219.98718222602008 3.2363119636453686 -109.99359111301004 #
vertex $-1 $945 $1002 #
vertex $-1 $947 $1003 #
vertex $-1 $949 $1004 #
point $-1 0 0 0.25 #
point $-1 0 0 0.25 #
point $-1 0 0 0.25 #
point $-1 0 0 0.25 #
point $-1 0 0 0.25 #
point $-1 0 0 0.25 #
point $-1 0 0 0.25 #
point $-1 0 0 0.25 #
point $-1 0 0 0.25 #
point $-1 0 0 0.25 #
point $-1 0 0 0.25 #
point $-1 0 0 0.25 #
point $-1 0 0 0.25 #
End-of-ACIS-data 