500 0 8 0           
7 Unknown 11 ACIS 5.0 NT 24 Fri Mar 26 15:53:02 1999 
-1 9.9999999999999995e-007 1e-010 
body $-1 $8 $-1 $9 #
body $-1 $10 $-1 $11 #
body $-1 $12 $-1 $13 #
body $-1 $14 $-1 $15 #
body $-1 $16 $-1 $17 #
body $-1 $18 $-1 $19 #
body $-1 $20 $-1 $21 #
body $-1 $22 $-1 $23 #
lump $-1 $-1 $24 $0 #
transform $-1 1 0 0 0 1 0 0 0 1 61.024811548203985 31.113956545612041 12.114663893425767 1 rotate no_reflect no_shear #
lump $-1 $-1 $25 $1 #
transform $-1 1 0 0 0 1 0 0 0 1 61.024811548203985 31.113956545612041 12.114663893425767 1 rotate no_reflect no_shear #
lump $-1 $-1 $26 $2 #
transform $-1 1 0 0 0 1 0 0 0 1 61.024811548203985 31.113956545612041 12.114663893425767 1 rotate no_reflect no_shear #
lump $-1 $-1 $27 $3 #
transform $-1 1 0 0 0 1 0 0 0 1 61.024811548203985 31.113956545612041 12.114663893425767 1 rotate no_reflect no_shear #
lump $-1 $-1 $28 $4 #
transform $-1 1 0 0 0 1 0 0 0 1 61.024811548203985 31.113956545612041 12.114663893425767 1 rotate no_reflect no_shear #
lump $-1 $-1 $29 $5 #
transform $-1 1 0 0 0 1 0 0 0 1 61.024811548203985 31.113956545612041 12.114663893425767 1 rotate no_reflect no_shear #
lump $-1 $-1 $30 $6 #
transform $-1 1 0 0 0 1 0 0 0 1 61.024811548203985 31.113956545612041 12.114663893425767 1 rotate no_reflect no_shear #
lump $-1 $-1 $31 $7 #
transform $-1 1 0 0 0 1 0 0 0 1 61.024811548203985 31.113956545612041 12.114663893425767 1 rotate no_reflect no_shear #
shell $-1 $-1 $-1 $32 $-1 $8 #
shell $-1 $-1 $-1 $33 $-1 $10 #
shell $-1 $-1 $-1 $34 $-1 $12 #
shell $-1 $-1 $-1 $35 $-1 $14 #
shell $-1 $-1 $-1 $36 $-1 $16 #
shell $-1 $-1 $-1 $37 $-1 $18 #
shell $-1 $-1 $-1 $38 $-1 $20 #
shell $-1 $-1 $-1 $39 $-1 $22 #
face $-1 $40 $41 $24 $-1 $42 forward single #
face $-1 $43 $44 $25 $-1 $45 reversed single #
face $-1 $46 $47 $26 $-1 $48 forward single #
face $-1 $49 $50 $27 $-1 $51 reversed single #
face $-1 $52 $53 $28 $-1 $54 forward single #
face $-1 $55 $56 $29 $-1 $57 reversed single #
face $-1 $58 $59 $30 $-1 $60 forward single #
face $-1 $61 $62 $31 $-1 $63 forward single #
face $-1 $64 $65 $24 $-1 $66 reversed single #
loop $-1 $-1 $67 $32 #
plane-surface $-1 0 0 12.114663893425767 0 0 1 1 0 0 forward_v I I I I #
face $-1 $68 $69 $25 $-1 $70 reversed single #
loop $-1 $-1 $71 $33 #
plane-surface $-1 0 -24.710117926101599 6.6138736978275379 0 0 1 1 0 0 forward_v I I I I #
face $-1 $72 $73 $26 $-1 $74 reversed single #
loop $-1 $-1 $75 $34 #
plane-surface $-1 0 24.84566891408484 -5.4539834556187499 0 0 1 1 0 0 forward_v I I I I #
face $-1 $76 $77 $27 $-1 $78 reversed single #
loop $-1 $-1 $79 $35 #
plane-surface $-1 25.138375212106951 -10.347141933866723 169.57150291846614 0 -1 0 -0.54463904215088732 0 -0.83867056331134215 forward_v I I I I #
face $-1 $80 $81 $28 $-1 $82 forward single #
loop $-1 $83 $84 $36 #
cone-surface $-1 51.47068179088923 -14.326710620228944 5.2015991497896472 -0.54463904215088732 0 -0.83867056331134215 1.2580058449670133 0 -0.81695856322633098 1 I I 0 1 1.5 forward I I I I #
face $-1 $85 $86 $29 $-1 $87 reversed single #
loop $-1 $-1 $88 $37 #
plane-surface $-1 -139.47679800574099 -10.282281079476334 97.429535870058018 0 1 0 -0.64278761758704617 0 0.76604443648966558 forward_v I I I I #
face $-1 $89 $90 $30 $-1 $91 forward single #
loop $-1 $92 $93 $38 #
cone-surface $-1 -55.239709293221857 -7.1854385826714982 6.9392970566783383 0.64278761758704617 0 -0.76604443648966558 1.1490666547344983 0 0.96418142638056925 1 I I 0 1 1.5 forward I I I I #
face $-1 $94 $95 $31 $-1 $96 forward single #
loop $-1 $97 $98 $39 #
cone-surface $-1 -55.239709293221857 -2.5401748374642459 6.9392970566783383 0.64278761758704617 0 -0.76604443648966558 1.1490666547344983 0 0.96418142638056925 1 I I 0 1 1.5 forward I I I I #
face $-1 $99 $100 $24 $-1 $101 reversed single #
loop $-1 $-1 $102 $40 #
plane-surface $-1 0 0 -12.114663893425767 0 0 1 1 0 0 forward_v I I I I #
coedge $-1 $103 $104 $105 $106 forward $41 $-1 #
face $-1 $107 $108 $25 $-1 $109 reversed single #
loop $-1 $-1 $110 $43 #
plane-surface $-1 0 -18.306279306591158 9.3642687956266535 0 -1 0 0 0 -1 forward_v I I I I #
coedge $-1 $111 $112 $113 $114 reversed $44 $-1 #
face $-1 $115 $116 $26 $-1 $117 reversed single #
loop $-1 $-1 $118 $46 #
plane-surface $-1 0 18.577381282557635 -8.784323674522259 0 1 0 0 0 1 forward_v I I I I #
coedge $-1 $119 $120 $121 $122 reversed $47 $-1 #
face $-1 $123 $124 $27 $-1 $125 forward single #
loop $-1 $-1 $126 $49 #
plane-surface $-1 -41.334614605997501 -14.32671062022894 67.212076764264665 0.54463904215088732 0 0.83867056331134215 0.83867056331134215 0 -0.54463904215088732 forward_v I I I I #
coedge $-1 $127 $128 $129 $130 reversed $50 $-1 #
face $-1 $-1 $131 $28 $-1 $132 forward single #
loop $-1 $133 $134 $52 #
cone-surface $-1 50.266498780949192 -14.326710620228944 3.3473199573027905 -0.54463904215088732 0 -0.83867056331134215 0.62900292248350664 0 -0.40847928161316549 1 I I -0.70710678118654757 0.70710678118654757 0.75 forward I I I I #
loop $-1 $-1 $135 $36 #
coedge $-1 $84 $84 $136 $137 reversed $53 $-1 #
face $-1 $138 $139 $29 $-1 $140 reversed single #
loop $-1 $-1 $141 $55 #
plane-surface $-1 -61.024811548203985 -4.862806710067872 3.9341011213941073 -0.64278761758704617 0 0.76604443648966558 0.76604443648966558 0 0.64278761758704617 forward_v I I I I #
coedge $-1 $142 $143 $144 $145 reversed $56 $-1 #
face $-1 $-1 $146 $30 $-1 $147 forward single #
loop $-1 $148 $149 $58 #
cone-surface $-1 -53.847123759456579 -7.1854385826714982 5.2796782785794925 0.64278761758704617 0 -0.76604443648966558 0.57453332736724916 0 0.48209071319028463 1 I I -0.70710678118654757 0.70710678118654757 0.75 forward I I I I #
loop $-1 $-1 $150 $38 #
coedge $-1 $93 $93 $151 $152 reversed $59 $-1 #
face $-1 $-1 $153 $31 $-1 $154 forward single #
loop $-1 $155 $156 $61 #
cone-surface $-1 -53.847123759456579 -2.5401748374642459 5.2796782785794925 0.64278761758704617 0 -0.76604443648966558 0.57453332736724916 0 0.48209071319028463 1 I I -0.70710678118654757 0.70710678118654757 0.75 forward I I I I #
loop $-1 $-1 $157 $39 #
coedge $-1 $98 $98 $158 $159 reversed $62 $-1 #
face $-1 $160 $161 $24 $-1 $162 reversed single #
loop $-1 $-1 $163 $64 #
plane-surface $-1 0 -31.113956545612041 0 0 1 0 0 0 1 forward_v I I I I #
coedge $-1 $164 $165 $166 $167 forward $65 $-1 #
coedge $-1 $168 $67 $169 $170 forward $41 $-1 #
coedge $-1 $67 $168 $171 $172 forward $41 $-1 #
coedge $-1 $173 $174 $67 $106 reversed $175 $-1 #
edge $-1 $176 -31.113956545612041 $177 31.113956545612041 $105 $178 forward 7 unknown #
face $-1 $179 $180 $25 $-1 $181 reversed single #
loop $-1 $-1 $182 $68 #
plane-surface $-1 -61.024811548203985 0 0 1 0 0 0 0 -1 forward_v I I I I #
coedge $-1 $183 $184 $112 $185 reversed $69 $-1 #
coedge $-1 $186 $71 $187 $188 reversed $44 $-1 #
coedge $-1 $71 $186 $110 $185 forward $44 $-1 #
coedge $-1 $189 $190 $71 $114 forward $191 $-1 #
edge $-1 $192 -18.758897582561239 $193 -5.9512203435403581 $113 $194 forward 7 unknown #
face $-1 $195 $196 $26 $-1 $197 reversed single #
loop $-1 $-1 $121 $72 #
plane-surface $-1 61.024811548203985 0 0 -1 0 0 0 0 1 forward_v I I I I #
coedge $-1 $198 $199 $200 $201 reversed $73 $-1 #
coedge $-1 $202 $75 $203 $204 reversed $47 $-1 #
coedge $-1 $75 $202 $199 $205 forward $47 $-1 #
coedge $-1 $206 $207 $75 $122 forward $116 $-1 #
edge $-1 $208 -18.691122088569625 $209 -6.1545468255152151 $121 $210 forward 7 unknown #
face $-1 $211 $212 $27 $-1 $213 forward single #
loop $-1 $-1 $129 $76 #
plane-surface $-1 0 0 12.114663893425767 0 0 1 1 0 0 forward_v I I I I #
coedge $-1 $214 $215 $216 $217 reversed $77 $-1 #
coedge $-1 $128 $79 $218 $219 reversed $50 $-1 #
coedge $-1 $79 $127 $214 $220 reversed $50 $-1 #
coedge $-1 $216 $221 $79 $130 forward $124 $-1 #
edge $-1 $222 -48.45562394215051 $223 -30.938771884174727 $129 $224 forward 7 unknown #
loop $-1 $-1 $136 $80 #
plane-surface $-1 -41.334614605997501 -14.32671062022894 67.212076764264665 0.54463904215088732 0 0.83867056331134215 0.83867056331134215 0 -0.54463904215088732 forward_v I I I I #
loop $-1 $-1 $225 $52 #
coedge $-1 $134 $134 $135 $226 reversed $81 $-1 #
coedge $-1 $135 $135 $134 $226 forward $83 $-1 #
coedge $-1 $136 $136 $84 $137 forward $131 $-1 #
edge $-1 $227 0 $227 6.2831853071796004 $136 $228 forward 7 unknown #
face $-1 $229 $230 $29 $-1 $231 reversed single #
loop $-1 $-1 $232 $85 #
plane-surface $-1 -139.47679800574099 0.55666765934059015 97.429535870058018 0 -1 0 0.64278761758704617 0 -0.76604443648966558 forward_v I I I I #
coedge $-1 $233 $234 $235 $236 reversed $86 $-1 #
coedge $-1 $143 $88 $237 $238 reversed $56 $-1 #
coedge $-1 $88 $142 $233 $239 reversed $56 $-1 #
coedge $-1 $235 $240 $88 $145 forward $241 $-1 #
edge $-1 $242 8.7135874546665093 $243 18.462802323480773 $144 $244 forward 7 unknown #
loop $-1 $-1 $151 $89 #
plane-surface $-1 -61.024811548203985 -4.862806710067872 3.9341011213941073 -0.64278761758704617 0 0.76604443648966558 0.76604443648966558 0 0.64278761758704617 forward_v I I I I #
loop $-1 $-1 $245 $58 #
coedge $-1 $149 $149 $150 $246 reversed $90 $-1 #
coedge $-1 $150 $150 $149 $246 forward $92 $-1 #
coedge $-1 $151 $151 $93 $152 forward $146 $-1 #
edge $-1 $247 0 $247 6.2831853071796004 $151 $248 forward 7 unknown #
loop $-1 $-1 $158 $94 #
plane-surface $-1 -61.024811548203985 -4.862806710067872 3.9341011213941073 -0.64278761758704617 0 0.76604443648966558 0.76604443648966558 0 0.64278761758704617 forward_v I I I I #
loop $-1 $-1 $249 $61 #
coedge $-1 $156 $156 $157 $250 reversed $95 $-1 #
coedge $-1 $157 $157 $156 $250 forward $97 $-1 #
coedge $-1 $158 $158 $98 $159 forward $153 $-1 #
edge $-1 $251 0 $251 6.2831853071796004 $158 $252 forward 7 unknown #
face $-1 $253 $254 $24 $-1 $255 reversed single #
loop $-1 $-1 $256 $99 #
plane-surface $-1 -61.024811548203985 0 0 1 0 0 0 0 -1 forward_v I I I I #
coedge $-1 $257 $171 $258 $259 forward $100 $-1 #
coedge $-1 $260 $102 $257 $261 forward $65 $-1 #
coedge $-1 $102 $260 $262 $263 forward $65 $-1 #
coedge $-1 $174 $173 $102 $167 reversed $175 $-1 #
edge $-1 $264 -31.113956545612041 $265 31.113956545612041 $166 $266 forward 7 unknown #
coedge $-1 $104 $103 $267 $268 forward $41 $-1 #
coedge $-1 $269 $270 $103 $170 reversed $254 $-1 #
edge $-1 $177 -61.024811548203985 $271 61.024811548203985 $169 $272 forward 7 unknown #
coedge $-1 $163 $273 $104 $172 reversed $100 $-1 #
edge $-1 $274 -61.024811548203985 $176 61.024811548203985 $171 $275 forward 7 unknown #
coedge $-1 $166 $105 $273 $276 forward $175 $-1 #
coedge $-1 $105 $166 $269 $277 reversed $175 $-1 #
loop $-1 $-1 $173 $253 #
vertex $-1 $106 $278 #
vertex $-1 $106 $279 #
straight-curve $-1 61.024811548203985 0 12.114663893425767 0 1 0 I I #
face $-1 $280 $281 $25 $-1 $282 forward single #
loop $-1 $-1 $187 $107 #
plane-surface $-1 0 -31.113956545612041 0 0 1 0 0 0 1 forward_v I I I I #
coedge $-1 $283 $284 $183 $285 forward $108 $-1 #
coedge $-1 $286 $110 $182 $285 reversed $69 $-1 #
coedge $-1 $110 $286 $189 $287 reversed $69 $-1 #
edge $-1 $288 -61.024811548203985 $193 61.024811548203985 $110 $289 forward 7 unknown #
coedge $-1 $112 $111 $283 $290 reversed $44 $-1 #
coedge $-1 $291 $292 $111 $188 forward $180 $-1 #
edge $-1 $293 -61.024811548203985 $192 61.024811548203985 $187 $294 forward 7 unknown #
coedge $-1 $295 $113 $184 $287 forward $191 $-1 #
coedge $-1 $113 $295 $291 $296 forward $191 $-1 #
loop $-1 $-1 $189 $280 #
vertex $-1 $188 $297 #
vertex $-1 $114 $298 #
straight-curve $-1 61.024811548203985 -12.3550589630508 6.6138736978275379 0 1 0 I I #
face $-1 $299 $300 $26 $-1 $301 reversed single #
loop $-1 $-1 $302 $115 #
plane-surface $-1 0 0 -12.114663893425767 0 0 1 1 0 0 forward_v I I I I #
coedge $-1 $303 $118 $302 $304 reversed $73 $-1 #
coedge $-1 $118 $303 $120 $205 reversed $73 $-1 #
coedge $-1 $305 $306 $118 $201 forward $300 $-1 #
edge $-1 $307 -7.7225020561646378 $308 -1.0618216183576203 $200 $309 forward 7 unknown #
coedge $-1 $120 $119 $305 $310 reversed $47 $-1 #
coedge $-1 $311 $312 $119 $204 forward $313 $-1 #
edge $-1 $314 -61.024811548203985 $208 61.024811548203985 $203 $315 forward 7 unknown #
edge $-1 $308 -61.024811548203985 $209 61.024811548203985 $199 $316 forward 7 unknown #
coedge $-1 $317 $121 $303 $318 forward $116 $-1 #
coedge $-1 $121 $317 $311 $319 reversed $116 $-1 #
vertex $-1 $319 $320 #
vertex $-1 $122 $321 #
straight-curve $-1 61.024811548203985 12.42283445704242 -5.4539834556187499 0 -1 0 I I #
face $-1 $-1 $322 $27 $-1 $323 reversed single #
loop $-1 $-1 $324 $123 #
plane-surface $-1 0 -18.306279306591158 9.3642687956266535 0 -1 0 0 0 -1 forward_v I I I I #
coedge $-1 $325 $126 $128 $220 forward $77 $-1 #
coedge $-1 $126 $325 $324 $326 forward $77 $-1 #
coedge $-1 $327 $129 $126 $217 forward $124 $-1 #
edge $-1 $223 3.183786623752253 $328 11.142923996476688 $216 $329 forward 7 unknown #
coedge $-1 $330 $331 $127 $219 forward $322 $-1 #
edge $-1 $332 -84.046664513072869 $222 -72.671087565807298 $218 $333 forward 7 unknown #
edge $-1 $223 101.16317158103158 $332 122.049623096408 $128 $334 forward 7 unknown #
coedge $-1 $129 $327 $330 $335 forward $124 $-1 #
vertex $-1 $130 $336 #
vertex $-1 $130 $337 #
straight-curve $-1 12.569187606053475 -10.347141933866723 12.114663893425771 -1 0 0 I I #
coedge $-1 $225 $225 $-1 $338 reversed $133 $-1 #
edge $-1 $339 0 $339 6.2831853071796004 $134 $340 forward 7 unknown #
vertex $-1 $137 $341 #
ellipse-curve $-1 52.266385519216101 -14.326710620228944 6.4268754197929852 0.54463904215088732 0 0.83867056331134215 1.2580058449670133 0 -0.81695856322633098 1 I I #
face $-1 $-1 $241 $29 $-1 $342 forward single #
loop $-1 $-1 $343 $138 #
plane-surface $-1 -61.024811548203985 0 0 1 0 0 0 0 -1 forward_v I I I I #
coedge $-1 $344 $345 $346 $347 reversed $139 $-1 #
coedge $-1 $348 $141 $143 $239 forward $86 $-1 #
coedge $-1 $141 $348 $344 $349 forward $86 $-1 #
coedge $-1 $346 $144 $141 $236 forward $241 $-1 #
edge $-1 $243 -7.8508777244423982 $350 2.9880710143745262 $235 $351 forward 7 unknown #
coedge $-1 $352 $353 $142 $238 forward $230 $-1 #
edge $-1 $354 -44.780666813634902 $242 -36.600104041603245 $237 $355 forward 7 unknown #
edge $-1 $243 -12.726696265153004 $354 0 $143 $356 forward 7 unknown #
coedge $-1 $144 $346 $352 $357 forward $241 $-1 #
loop $-1 $-1 $346 $229 #
vertex $-1 $238 $358 #
vertex $-1 $145 $359 #
straight-curve $-1 -69.738399002870494 -10.282281079476334 12.114663893425771 1 0 0 I I #
coedge $-1 $245 $245 $-1 $360 reversed $148 $-1 #
edge $-1 $361 0 $361 6.2831853071796004 $149 $362 forward 7 unknown #
vertex $-1 $152 $363 #
ellipse-curve $-1 -56.150204113796853 -7.1854385826714982 8.0243825074099373 -0.64278761758704617 0 0.76604443648966558 1.1490666547344983 0 0.96418142638056925 1 I I #
coedge $-1 $249 $249 $-1 $364 reversed $155 $-1 #
edge $-1 $365 0 $365 6.2831853071796004 $156 $366 forward 7 unknown #
vertex $-1 $159 $367 #
ellipse-curve $-1 -56.150204113796853 -2.5401748374642459 8.0243825074099373 -0.64278761758704617 0 0.76604443648966558 1.1490666547344983 0 0.96418142638056925 1 I I #
face $-1 $-1 $175 $24 $-1 $368 reversed single #
loop $-1 $-1 $269 $160 #
plane-surface $-1 0 31.113956545612041 0 0 -1 0 0 0 -1 forward_v I I I I #
coedge $-1 $369 $267 $270 $370 forward $161 $-1 #
coedge $-1 $273 $163 $164 $261 reversed $100 $-1 #
coedge $-1 $267 $369 $163 $259 reversed $161 $-1 #
edge $-1 $274 -12.114663893425767 $371 12.114663893425767 $258 $372 forward 7 unknown #
coedge $-1 $165 $164 $369 $373 forward $65 $-1 #
edge $-1 $265 -61.024811548203985 $371 61.024811548203985 $257 $374 forward 7 unknown #
coedge $-1 $270 $269 $165 $263 reversed $254 $-1 #
edge $-1 $375 -61.024811548203985 $264 61.024811548203985 $262 $376 forward 7 unknown #
vertex $-1 $167 $377 #
vertex $-1 $276 $378 #
straight-curve $-1 61.024811548203985 0 -12.114663893425767 0 -1 0 I I #
coedge $-1 $256 $258 $168 $268 reversed $161 $-1 #
edge $-1 $271 -31.113956545612041 $274 31.113956545612041 $267 $379 forward 7 unknown #
coedge $-1 $262 $169 $174 $277 forward $254 $-1 #
coedge $-1 $169 $262 $256 $370 reversed $254 $-1 #
vertex $-1 $170 $380 #
straight-curve $-1 0 31.113956545612041 12.114663893425767 -1 0 0 I I #
coedge $-1 $171 $257 $173 $276 reversed $100 $-1 #
vertex $-1 $268 $381 #
straight-curve $-1 0 -31.113956545612041 12.114663893425767 1 0 0 I I #
edge $-1 $176 -12.114663893425767 $265 12.114663893425767 $173 $382 forward 7 unknown #
edge $-1 $177 -12.114663893425767 $264 12.114663893425767 $174 $383 forward 7 unknown #
point $-1 61.024811548203985 -31.113956545612041 12.114663893425767 #
point $-1 61.024811548203985 31.113956545612041 12.114663893425767 #
face $-1 $-1 $191 $25 $-1 $384 reversed single #
loop $-1 $-1 $385 $179 #
plane-surface $-1 0 0 12.114663893425767 0 0 1 1 0 0 forward_v I I I I #
coedge $-1 $386 $182 $186 $290 forward $108 $-1 #
coedge $-1 $182 $386 $387 $388 reversed $108 $-1 #
edge $-1 $389 -7.4325294956124424 $288 -1.9317393000142111 $182 $390 forward 7 unknown #
coedge $-1 $184 $183 $385 $391 reversed $69 $-1 #
edge $-1 $193 1.9317393000142111 $392 7.4325294956124424 $189 $393 forward 7 unknown #
vertex $-1 $290 $394 #
straight-curve $-1 0 -18.306279306591158 6.6138736978275379 1 0 0 I I #
edge $-1 $288 5.9512203435403581 $293 18.758897582561239 $283 $395 forward 7 unknown #
coedge $-1 $396 $187 $190 $296 reversed $180 $-1 #
coedge $-1 $187 $396 $386 $397 forward $180 $-1 #
vertex $-1 $188 $398 #
straight-curve $-1 0 -31.113956545612041 6.6138736978275379 1 0 0 I I #
coedge $-1 $190 $189 $399 $400 reversed $191 $-1 #
edge $-1 $401 -12.114663893425767 $192 -6.6138736978275379 $190 $402 forward 7 unknown #
point $-1 61.024811548203985 -31.113956545612041 6.6138736978275379 #
point $-1 61.024811548203985 -18.306279306591158 6.6138736978275379 #
face $-1 $-1 $313 $26 $-1 $403 reversed single #
loop $-1 $-1 $305 $195 #
plane-surface $-1 -61.024811548203985 0 0 1 0 0 0 0 -1 forward_v I I I I #
coedge $-1 $404 $405 $198 $304 forward $196 $-1 #
coedge $-1 $199 $198 $206 $318 reversed $73 $-1 #
edge $-1 $406 -61.024811548203985 $307 61.024811548203985 $302 $407 forward 7 unknown #
coedge $-1 $408 $200 $202 $310 forward $300 $-1 #
coedge $-1 $200 $408 $404 $409 reversed $300 $-1 #
vertex $-1 $409 $410 #
vertex $-1 $310 $411 #
straight-curve $-1 -61.024811548203985 18.577381282557635 -4.3921618372611295 0 0 1 I I #
edge $-1 $308 6.1545468255152151 $314 18.691122088569625 $305 $412 forward 7 unknown #
coedge $-1 $413 $203 $207 $319 forward $313 $-1 #
coedge $-1 $203 $413 $408 $414 reversed $313 $-1 #
loop $-1 $-1 $203 $299 #
vertex $-1 $414 $415 #
straight-curve $-1 0 31.113956545612041 -5.4539834556187499 1 0 0 I I #
straight-curve $-1 0 18.577381282557635 -5.4539834556187499 1 0 0 I I #
coedge $-1 $207 $206 $405 $416 reversed $116 $-1 #
edge $-1 $209 1.0618216183576203 $406 7.7225020561646378 $206 $417 forward 7 unknown #
edge $-1 $208 5.4539834556187499 $418 12.114663893425767 $207 $419 forward 7 unknown #
point $-1 61.024811548203985 31.113956545612044 -5.4539834556187499 #
point $-1 61.024811548203985 18.577381282557635 -5.4539834556187499 #
loop $-1 $-1 $218 $211 #
plane-surface $-1 61.024811548203985 0 0 -1 0 0 0 0 1 forward_v I I I I #
coedge $-1 $420 $421 $215 $326 reversed $212 $-1 #
coedge $-1 $215 $214 $331 $422 reversed $77 $-1 #
edge $-1 $423 -122.049623096408 $328 -101.16317158103155 $324 $424 forward 7 unknown #
coedge $-1 $221 $216 $421 $425 forward $124 $-1 #
vertex $-1 $425 $426 #
straight-curve $-1 43.50795949022821 -7.1633553101144702 12.114663893425764 0 -1 0 I I #
coedge $-1 $427 $218 $221 $335 reversed $322 $-1 #
coedge $-1 $218 $427 $325 $422 forward $322 $-1 #
vertex $-1 $219 $428 #
straight-curve $-1 61.024811548203985 -10.347141933866723 84.785751459233069 0 0 1 I I #
straight-curve $-1 -41.334614605997501 -10.347141933866723 67.212076764264665 0.83867056331134215 0 -0.54463904215088732 I I #
edge $-1 $429 -18.306279306591158 $222 -10.347141933866723 $330 $430 forward 7 unknown #
point $-1 61.024811548203985 -10.347141933866723 12.114663893425767 #
point $-1 43.507959490228203 -10.347141933866723 12.114663893425771 #
edge $-1 $431 1 $431 0 $225 $-1 forward 7 unknown #
vertex $-1 $226 $432 #
ellipse-curve $-1 50.67497806256236 -14.326710620228944 3.9763228797862973 0.54463904215088732 0 0.83867056331134215 1.2580058449670133 0 -0.81695856322633098 1 I I #
point $-1 53.524391364183124 -14.326710620228944 5.6099168565666657 #
plane-surface $-1 0 0 12.114663893425767 0 0 1 1 0 0 forward_v I I I I #
coedge $-1 $353 $352 $345 $433 forward $230 $-1 #
coedge $-1 $345 $232 $234 $349 reversed $139 $-1 #
coedge $-1 $232 $344 $343 $433 reversed $139 $-1 #
coedge $-1 $240 $235 $232 $347 forward $241 $-1 #
edge $-1 $350 -18.462802323480773 $434 -8.7135874546665093 $346 $435 forward 7 unknown #
coedge $-1 $234 $233 $353 $436 reversed $86 $-1 #
edge $-1 $437 0 $350 12.726696265153004 $344 $438 forward 7 unknown #
vertex $-1 $236 $439 #
straight-curve $-1 -51.275596679389714 -2.431403355033936 12.114663893425769 0 1 0 I I #
coedge $-1 $343 $237 $240 $357 reversed $230 $-1 #
coedge $-1 $237 $343 $348 $436 forward $230 $-1 #
vertex $-1 $238 $440 #
straight-curve $-1 -61.024811548203985 -10.282281079476334 48.714767935029009 0 0 1 I I #
straight-curve $-1 -61.024811548203985 -10.282281079476334 3.9341011213941073 -0.76604443648966558 0 -0.64278761758704617 I I #
edge $-1 $434 -0.55666765934059015 $242 10.282281079476334 $352 $441 forward 7 unknown #
point $-1 -61.024811548203985 -10.282281079476334 12.114663893425767 #
point $-1 -51.275596679389722 -10.282281079476334 12.114663893425767 #
edge $-1 $442 1 $442 0 $245 $-1 forward 7 unknown #
vertex $-1 $246 $443 #
ellipse-curve $-1 -54.329214472646861 -7.1854385826714982 5.8542116059467419 -0.64278761758704617 0 0.76604443648966558 1.1490666547344983 0 0.96418142638056925 1 I I #
point $-1 -55.001137459062349 -7.1854385826714982 8.9885639337905054 #
edge $-1 $444 1 $444 0 $249 $-1 forward 7 unknown #
vertex $-1 $250 $445 #
ellipse-curve $-1 -54.329214472646861 -2.5401748374642459 5.8542116059467419 -0.64278761758704617 0 0.76604443648966558 1.1490666547344983 0 0.96418142638056925 1 I I #
point $-1 -55.001137459062349 -2.5401748374642459 8.9885639337905054 #
plane-surface $-1 61.024811548203985 0 0 -1 0 0 0 0 1 forward_v I I I I #
coedge $-1 $258 $256 $260 $373 reversed $161 $-1 #
edge $-1 $271 -12.114663893425767 $375 12.114663893425767 $270 $446 forward 7 unknown #
vertex $-1 $373 $447 #
straight-curve $-1 -61.024811548203985 -31.113956545612041 0 0 0 -1 I I #
edge $-1 $371 -31.113956545612041 $375 31.113956545612041 $369 $448 forward 7 unknown #
straight-curve $-1 0 -31.113956545612041 -12.114663893425767 -1 0 0 I I #
vertex $-1 $263 $449 #
straight-curve $-1 0 31.113956545612041 -12.114663893425767 1 0 0 I I #
point $-1 61.024811548203985 31.113956545612041 -12.114663893425767 #
point $-1 61.024811548203985 -31.113956545612041 -12.114663893425767 #
straight-curve $-1 -61.024811548203985 0 12.114663893425767 0 -1 0 I I #
point $-1 -61.024811548203985 31.113956545612041 12.114663893425767 #
point $-1 -61.024811548203985 -31.113956545612041 12.114663893425767 #
straight-curve $-1 61.024811548203985 -31.113956545612041 0 0 0 -1 I I #
straight-curve $-1 61.024811548203985 31.113956545612041 0 0 0 -1 I I #
plane-surface $-1 61.024811548203985 0 0 -1 0 0 0 0 1 forward_v I I I I #
coedge $-1 $387 $399 $286 $391 forward $281 $-1 #
coedge $-1 $284 $283 $292 $397 reversed $108 $-1 #
coedge $-1 $450 $385 $284 $388 forward $281 $-1 #
edge $-1 $389 18.306279306591158 $451 31.113956545612041 $284 $452 forward 7 unknown #
vertex $-1 $388 $453 #
straight-curve $-1 -61.024811548203985 -18.306279306591158 4.6821343978133267 0 0 -1 I I #
edge $-1 $392 -61.024811548203985 $389 61.024811548203985 $385 $454 forward 7 unknown #
vertex $-1 $287 $455 #
straight-curve $-1 61.024811548203985 -18.306279306591158 4.6821343978133267 0 0 1 I I #
point $-1 -61.024811548203985 -18.306279306591158 6.6138736978275379 #
straight-curve $-1 -61.024811548203985 -12.3550589630508 6.6138736978275379 0 -1 0 I I #
coedge $-1 $292 $291 $450 $456 reversed $180 $-1 #
edge $-1 $451 -12.114663893425767 $293 -6.6138736978275379 $386 $457 forward 7 unknown #
point $-1 -61.024811548203985 -31.113956545612041 6.6138736978275379 #
coedge $-1 $385 $450 $295 $400 forward $281 $-1 #
edge $-1 $401 -31.113956545612041 $392 -18.306279306591158 $295 $458 forward 7 unknown #
vertex $-1 $400 $459 #
straight-curve $-1 61.024811548203985 -31.113956545612041 0 0 0 -1 I I #
plane-surface $-1 0 31.113956545612041 0 0 -1 0 0 0 -1 forward_v I I I I #
coedge $-1 $460 $302 $306 $409 forward $196 $-1 #
coedge $-1 $302 $460 $317 $416 forward $196 $-1 #
vertex $-1 $304 $461 #
straight-curve $-1 0 18.577381282557635 -12.114663893425767 -1 0 0 I I #
coedge $-1 $306 $305 $312 $414 forward $300 $-1 #
edge $-1 $307 18.577381282557635 $462 31.113956545612041 $306 $463 forward 7 unknown #
point $-1 -61.024811548203985 18.577381282557635 -12.114663893425767 #
point $-1 -61.024811548203985 18.577381282557635 -5.4539834556187499 #
straight-curve $-1 -61.024811548203985 12.42283445704242 -5.4539834556187499 0 1 0 I I #
coedge $-1 $312 $311 $460 $464 reversed $313 $-1 #
edge $-1 $314 5.4539834556187499 $462 12.114663893425767 $312 $465 forward 7 unknown #
point $-1 -61.024811548203985 31.113956545612044 -5.4539834556187499 #
edge $-1 $418 -31.113956545612041 $406 -18.577381282557635 $317 $466 forward 7 unknown #
straight-curve $-1 61.024811548203985 18.577381282557635 -4.3921618372611295 0 0 -1 I I #
vertex $-1 $416 $467 #
straight-curve $-1 61.024811548203985 31.113956545612041 0 0 0 -1 I I #
coedge $-1 $421 $324 $427 $468 reversed $212 $-1 #
coedge $-1 $324 $420 $327 $425 reversed $212 $-1 #
edge $-1 $423 -11.142923996476688 $332 -3.183786623752253 $331 $469 forward 7 unknown #
vertex $-1 $468 $470 #
straight-curve $-1 -41.334614605997501 -18.306279306591158 67.212076764264665 -0.83867056331134215 0 0.54463904215088732 I I #
edge $-1 $328 43.507959490228195 $429 61.024811548203985 $327 $471 forward 7 unknown #
point $-1 43.507959490228195 -18.306279306591158 12.114663893425767 #
coedge $-1 $331 $330 $420 $468 forward $322 $-1 #
point $-1 61.024811548203985 -10.347141933866723 0.73908694616019943 #
vertex $-1 $335 $472 #
straight-curve $-1 61.024811548203985 0 12.114663893425767 0 1 0 I I #
vertex $-1 $338 $473 #
point $-1 51.932983907529369 -14.326710620228944 3.1593643165599663 #
edge $-1 $434 36.600104041603245 $437 44.780666813634902 $343 $474 forward 7 unknown #
vertex $-1 $357 $475 #
straight-curve $-1 -69.738399002870494 0.55666765934059015 12.114663893425771 -1 0 0 I I #
edge $-1 $437 -2.9880710143745262 $354 7.8508777244423982 $353 $476 forward 7 unknown #
vertex $-1 $436 $477 #
straight-curve $-1 -61.024811548203985 0.55666765934059015 3.9341011213941073 0.76604443648966558 0 0.64278761758704617 I I #
point $-1 -51.275596679389722 0.55666765934059015 12.114663893425767 #
point $-1 -61.024811548203985 -10.282281079476334 3.9341011213941073 #
straight-curve $-1 -61.024811548203985 0 12.114663893425767 0 -1 0 I I #
vertex $-1 $360 $478 #
point $-1 -53.180147817912363 -7.1854385826714982 6.818393032327311 #
vertex $-1 $364 $479 #
point $-1 -53.180147817912363 -2.5401748374642459 6.818393032327311 #
straight-curve $-1 -61.024811548203985 31.113956545612041 0 0 0 -1 I I #
point $-1 -61.024811548203985 -31.113956545612041 -12.114663893425767 #
straight-curve $-1 -61.024811548203985 0 -12.114663893425767 0 1 0 I I #
point $-1 -61.024811548203985 31.113956545612041 -12.114663893425767 #
coedge $-1 $399 $387 $396 $456 forward $281 $-1 #
vertex $-1 $388 $480 #
straight-curve $-1 -61.024811548203985 0 12.114663893425767 0 -1 0 I I #
point $-1 -61.024811548203985 -18.306279306591158 12.114663893425769 #
straight-curve $-1 0 -18.306279306591158 12.114663893425767 -1 0 0 I I #
point $-1 61.024811548203985 -18.306279306591158 12.114663893425769 #
edge $-1 $451 -61.024811548203985 $401 61.024811548203985 $396 $481 forward 7 unknown #
straight-curve $-1 -61.024811548203985 -31.113956545612041 0 0 0 -1 I I #
straight-curve $-1 61.024811548203985 0 12.114663893425767 0 1 0 I I #
point $-1 61.024811548203985 -31.113956545612041 12.114663893425767 #
coedge $-1 $405 $404 $413 $464 forward $196 $-1 #
point $-1 61.024811548203985 18.577381282557635 -12.114663893425767 #
vertex $-1 $464 $482 #
straight-curve $-1 -61.024811548203985 0 -12.114663893425767 0 1 0 I I #
edge $-1 $462 -61.024811548203985 $418 61.024811548203985 $413 $483 forward 7 unknown #
straight-curve $-1 -61.024811548203985 31.113956545612041 0 0 0 -1 I I #
straight-curve $-1 61.024811548203985 0 -12.114663893425767 0 -1 0 I I #
point $-1 61.024811548203985 31.113956545612041 -12.114663893425767 #
edge $-1 $429 72.671087565807298 $423 84.046664513072869 $427 $484 forward 7 unknown #
straight-curve $-1 61.024811548203978 -7.1633553101144702 0.73908694616021364 0 1 0 I I #
point $-1 61.024811548203985 -18.306279306591158 0.73908694616019943 #
straight-curve $-1 0 -18.306279306591158 12.114663893425767 1 0 0 I I #
point $-1 61.024811548203985 -18.306279306591158 12.114663893425769 #
point $-1 49.858019499336024 -14.326710620228944 2.7183170348192838 #
straight-curve $-1 -61.024811548203985 0.55666765934059015 48.714767935029009 0 0 -1 I I #
point $-1 -61.024811548203985 0.55666765934059015 12.114663893425767 #
straight-curve $-1 -61.024811548203985 -2.431403355033936 3.9341011213941051 0 -1 0 I I #
point $-1 -61.024811548203985 0.55666765934059015 3.9341011213941073 #
point $-1 -53.365033046266298 -7.1854385826714982 4.705144951212243 #
point $-1 -53.365033046266298 -2.5401748374642459 4.705144951212243 #
point $-1 -61.024811548203985 -31.113956545612041 12.114663893425767 #
straight-curve $-1 0 -31.113956545612041 12.114663893425767 1 0 0 I I #
point $-1 -61.024811548203985 31.113956545612041 -12.114663893425767 #
straight-curve $-1 0 31.113956545612041 -12.114663893425767 1 0 0 I I #
straight-curve $-1 61.024811548203985 -18.306279306591158 84.785751459233069 0 0 -1 I I #
End-of-ACIS-data 