500 0 10 0           
7 Unknown 11 ACIS 5.0 NT 24 Fri Mar 26 01:05:50 1999 
-1 9.9999999999999995e-007 1e-010 
body $-1 $10 $-1 $11 #
body $-1 $12 $-1 $13 #
body $-1 $14 $-1 $15 #
body $-1 $16 $-1 $17 #
body $-1 $18 $-1 $19 #
body $-1 $20 $-1 $21 #
body $-1 $22 $-1 $23 #
body $-1 $24 $-1 $25 #
body $-1 $26 $-1 $27 #
body $-1 $28 $-1 $29 #
lump $-1 $-1 $30 $0 #
transform $-1 1 0 0 0 1 0 0 0 1 44.233527634510331 19.706173580219577 4.8965634532544877 1 rotate no_reflect no_shear #
lump $-1 $-1 $31 $1 #
transform $-1 1 0 0 0 1 0 0 0 1 44.233527634510331 19.706173580219577 4.8965634532544877 1 rotate no_reflect no_shear #
lump $-1 $-1 $32 $2 #
transform $-1 1 0 0 0 1 0 0 0 1 44.233527634510331 19.706173580219577 4.8965634532544877 1 rotate no_reflect no_shear #
lump $-1 $-1 $33 $3 #
transform $-1 1 0 0 0 1 0 0 0 1 44.233527634510331 19.706173580219577 4.8965634532544877 1 rotate no_reflect no_shear #
lump $-1 $-1 $34 $4 #
transform $-1 1 0 0 0 1 0 0 0 1 44.233527634510331 19.706173580219577 4.8965634532544877 1 rotate no_reflect no_shear #
lump $-1 $-1 $35 $5 #
transform $-1 1 0 0 0 1 0 0 0 1 44.233527634510331 19.706173580219577 4.8965634532544877 1 rotate no_reflect no_shear #
lump $-1 $-1 $36 $6 #
transform $-1 1 0 0 0 1 0 0 0 1 44.233527634510331 19.706173580219577 4.8965634532544877 1 rotate no_reflect no_shear #
lump $-1 $-1 $37 $7 #
transform $-1 1 0 0 0 1 0 0 0 1 44.233527634510331 19.706173580219577 4.8965634532544877 1 rotate no_reflect no_shear #
lump $-1 $-1 $38 $8 #
transform $-1 1 0 0 0 1 0 0 0 1 44.233527634510331 19.706173580219577 4.8965634532544877 1 rotate no_reflect no_shear #
lump $-1 $-1 $39 $9 #
transform $-1 1 0 0 0 1 0 0 0 1 44.233527634510331 19.706173580219577 4.8965634532544877 1 rotate no_reflect no_shear #
shell $-1 $-1 $-1 $40 $-1 $10 #
shell $-1 $-1 $-1 $41 $-1 $12 #
shell $-1 $-1 $-1 $42 $-1 $14 #
shell $-1 $-1 $-1 $43 $-1 $16 #
shell $-1 $-1 $-1 $44 $-1 $18 #
shell $-1 $-1 $-1 $45 $-1 $20 #
shell $-1 $-1 $-1 $46 $-1 $22 #
shell $-1 $-1 $-1 $47 $-1 $24 #
shell $-1 $-1 $-1 $48 $-1 $26 #
shell $-1 $-1 $-1 $49 $-1 $28 #
face $-1 $50 $51 $30 $-1 $52 forward single #
face $-1 $53 $54 $31 $-1 $55 forward single #
face $-1 $56 $57 $32 $-1 $58 reversed single #
face $-1 $59 $60 $33 $-1 $61 forward single #
face $-1 $62 $63 $34 $-1 $64 forward single #
face $-1 $65 $66 $35 $-1 $67 forward single #
face $-1 $68 $69 $36 $-1 $70 reversed single #
face $-1 $71 $72 $37 $-1 $73 forward single #
face $-1 $74 $75 $38 $-1 $76 forward single #
face $-1 $77 $78 $39 $-1 $79 forward single #
face $-1 $80 $81 $30 $-1 $82 reversed single #
loop $-1 $-1 $83 $40 #
plane-surface $-1 0 0 4.8965634532544877 0 0 1 1 0 0 forward_v I I I I #
face $-1 $84 $85 $31 $-1 $86 forward single #
loop $-1 $-1 $87 $41 #
plane-surface $-1 0 -19.706173580219577 0 0 1 0 0 0 1 forward_v I I I I #
face $-1 $88 $89 $32 $-1 $90 reversed single #
loop $-1 $-1 $91 $42 #
plane-surface $-1 -111.0004625134037 13.611128716768498 59.443611721654634 0 1 0 -0.75470958851134928 0 0.65605901945558964 forward_v I I I I #
face $-1 $92 $93 $33 $-1 $94 forward single #
loop $-1 $95 $96 $43 #
cone-surface $-1 -42.272845313869809 14.830137689458716 2.7654810902516243 0.75470958851134928 0 -0.65605901945558964 0.32802950972779482 0 0.37735479425567464 1 I I 0 1 0.5 forward I I I I #
face $-1 $97 $98 $34 $-1 $99 forward single #
loop $-1 $100 $101 $44 #
cone-surface $-1 -42.272845313869809 16.658651148494037 2.7654810902516243 0.75470958851134928 0 -0.65605901945558964 0.32802950972779482 0 0.37735479425567464 1 I I 0 1 0.5 forward I I I I #
face $-1 $102 $103 $35 $-1 $104 forward single #
loop $-1 $105 $106 $45 #
cone-surface $-1 -42.272845313869809 18.487164607529358 2.7654810902516243 0.75470958851134928 0 -0.65605901945558964 0.32802950972779482 0 0.37735479425567464 1 I I 0 1 0.5 forward I I I I #
face $-1 $107 $108 $36 $-1 $109 reversed single #
loop $-1 $-1 $110 $46 #
plane-surface $-1 52.960852979486553 13.611128716768498 126.21054660054801 0 1 0 0.75470958851134928 0 0.65605901945558964 forward_v I I I I #
face $-1 $111 $112 $37 $-1 $113 forward single #
loop $-1 $114 $115 $47 #
cone-surface $-1 42.272845313869801 14.830137689458716 2.7654810902516429 -0.75470958851134928 0 -0.65605901945558964 0.32802950972779482 0 -0.37735479425567464 1 I I 0 1 0.5 forward I I I I #
face $-1 $116 $117 $38 $-1 $118 forward single #
loop $-1 $119 $120 $48 #
cone-surface $-1 42.272845313869801 16.658651148494037 2.7654810902516429 -0.75470958851134928 0 -0.65605901945558964 0.32802950972779482 0 -0.37735479425567464 1 I I 0 1 0.5 forward I I I I #
face $-1 $121 $122 $39 $-1 $123 forward single #
loop $-1 $124 $125 $49 #
cone-surface $-1 42.272845313869801 18.487164607529358 2.7654810902516429 -0.75470958851134928 0 -0.65605901945558964 0.32802950972779482 0 -0.37735479425567464 1 I I 0 1 0.5 forward I I I I #
face $-1 $126 $127 $30 $-1 $128 reversed single #
loop $-1 $-1 $129 $50 #
plane-surface $-1 0 0 -4.8965634532544877 0 0 1 1 0 0 forward_v I I I I #
coedge $-1 $130 $131 $132 $133 forward $51 $-1 #
face $-1 $134 $135 $31 $-1 $136 reversed single #
loop $-1 $-1 $137 $53 #
plane-surface $-1 0 0 4.8965634532544877 0 0 1 1 0 0 forward_v I I I I #
coedge $-1 $138 $139 $140 $141 forward $54 $-1 #
face $-1 $142 $143 $32 $-1 $144 reversed single #
loop $-1 $-1 $145 $56 #
plane-surface $-1 -44.233527634510324 16.658651148494037 1.4040021877374826 -0.75470958851134928 0 0.65605901945558964 0.65605901945558964 0 0.75470958851134928 forward_v I I I I #
coedge $-1 $146 $147 $148 $149 reversed $57 $-1 #
face $-1 $-1 $150 $33 $-1 $151 forward single #
loop $-1 $152 $153 $59 #
cone-surface $-1 -41.641504151929823 14.830137689458716 2.2166646051433663 0.75470958851134928 0 -0.65605901945558964 0.16401475486389741 0 0.18867739712783732 1 I I -0.70710678118654746 0.70710678118654746 0.25 forward I I I I #
loop $-1 $-1 $154 $43 #
coedge $-1 $96 $96 $155 $156 reversed $60 $-1 #
face $-1 $-1 $157 $34 $-1 $158 forward single #
loop $-1 $159 $160 $62 #
cone-surface $-1 -41.641504151929823 16.658651148494037 2.2166646051433663 0.75470958851134928 0 -0.65605901945558964 0.16401475486389741 0 0.18867739712783732 1 I I -0.70710678118654746 0.70710678118654746 0.25 forward I I I I #
loop $-1 $-1 $161 $44 #
coedge $-1 $101 $101 $162 $163 reversed $63 $-1 #
face $-1 $-1 $164 $35 $-1 $165 forward single #
loop $-1 $166 $167 $65 #
cone-surface $-1 -41.641504151929823 18.487164607529358 2.2166646051433663 0.75470958851134928 0 -0.65605901945558964 0.16401475486389741 0 0.18867739712783732 1 I I -0.70710678118654746 0.70710678118654746 0.25 forward I I I I #
loop $-1 $-1 $168 $45 #
coedge $-1 $106 $106 $169 $170 reversed $66 $-1 #
face $-1 $171 $172 $36 $-1 $173 reversed single #
loop $-1 $-1 $174 $68 #
plane-surface $-1 -13.806081899406827 16.658651148494037 68.17093706663087 0.75470958851134928 0 0.65605901945558964 0.65605901945558964 0 -0.75470958851134928 forward_v I I I I #
coedge $-1 $175 $176 $177 $178 reversed $69 $-1 #
face $-1 $-1 $179 $37 $-1 $180 forward single #
loop $-1 $181 $182 $71 #
cone-surface $-1 41.641504151929816 14.830137689458716 2.2166646051433849 -0.75470958851134928 0 -0.65605901945558964 0.16401475486389741 0 -0.18867739712783732 1 I I -0.70710678118654746 0.70710678118654746 0.25 forward I I I I #
loop $-1 $-1 $183 $47 #
coedge $-1 $115 $115 $184 $185 reversed $72 $-1 #
face $-1 $-1 $186 $38 $-1 $187 forward single #
loop $-1 $188 $189 $74 #
cone-surface $-1 41.641504151929816 16.658651148494037 2.2166646051433849 -0.75470958851134928 0 -0.65605901945558964 0.16401475486389741 0 -0.18867739712783732 1 I I -0.70710678118654746 0.70710678118654746 0.25 forward I I I I #
loop $-1 $-1 $190 $48 #
coedge $-1 $120 $120 $191 $192 reversed $75 $-1 #
face $-1 $-1 $193 $39 $-1 $194 forward single #
loop $-1 $195 $196 $77 #
cone-surface $-1 41.641504151929816 18.487164607529358 2.2166646051433849 -0.75470958851134928 0 -0.65605901945558964 0.16401475486389741 0 -0.18867739712783732 1 I I -0.70710678118654746 0.70710678118654746 0.25 forward I I I I #
loop $-1 $-1 $197 $49 #
coedge $-1 $125 $125 $198 $199 reversed $78 $-1 #
face $-1 $200 $201 $30 $-1 $202 reversed single #
loop $-1 $-1 $203 $80 #
plane-surface $-1 0 -19.706173580219577 0 0 1 0 0 0 1 forward_v I I I I #
coedge $-1 $204 $205 $206 $207 forward $81 $-1 #
coedge $-1 $208 $83 $209 $210 forward $51 $-1 #
coedge $-1 $83 $208 $211 $212 forward $51 $-1 #
coedge $-1 $213 $214 $83 $133 reversed $215 $-1 #
edge $-1 $216 -19.706173580219577 $217 19.706173580219577 $132 $218 forward 7 unknown #
face $-1 $219 $220 $31 $-1 $221 reversed single #
loop $-1 $-1 $222 $84 #
plane-surface $-1 -44.233527634510331 0 0 1 0 0 0 0 -1 forward_v I I I I #
coedge $-1 $223 $224 $139 $225 forward $85 $-1 #
coedge $-1 $226 $87 $227 $228 reversed $54 $-1 #
coedge $-1 $87 $226 $137 $225 reversed $54 $-1 #
coedge $-1 $229 $230 $87 $141 reversed $231 $-1 #
edge $-1 $232 -4.8965634532544877 $233 4.8965634532544877 $140 $234 forward 7 unknown #
face $-1 $235 $236 $32 $-1 $237 reversed single #
loop $-1 $-1 $238 $88 #
plane-surface $-1 0 19.706173580219577 0 0 -1 0 0 0 -1 forward_v I I I I #
coedge $-1 $239 $240 $241 $242 reversed $89 $-1 #
coedge $-1 $147 $91 $243 $244 reversed $57 $-1 #
coedge $-1 $91 $146 $239 $245 reversed $57 $-1 #
coedge $-1 $241 $246 $91 $149 forward $247 $-1 #
edge $-1 $248 11.266703622191521 $249 14.302740733848289 $148 $250 forward 7 unknown #
loop $-1 $-1 $155 $92 #
plane-surface $-1 -44.233527634510324 16.658651148494037 1.4040021877374826 -0.75470958851134928 0 0.65605901945558964 0.65605901945558964 0 0.75470958851134928 forward_v I I I I #
loop $-1 $-1 $251 $59 #
coedge $-1 $153 $153 $154 $252 reversed $93 $-1 #
coedge $-1 $154 $154 $153 $252 forward $95 $-1 #
coedge $-1 $155 $155 $96 $156 forward $150 $-1 #
edge $-1 $253 0 $253 6.2831853071796004 $155 $254 forward 7 unknown #
loop $-1 $-1 $162 $97 #
plane-surface $-1 -44.233527634510324 16.658651148494037 1.4040021877374826 -0.75470958851134928 0 0.65605901945558964 0.65605901945558964 0 0.75470958851134928 forward_v I I I I #
loop $-1 $-1 $255 $62 #
coedge $-1 $160 $160 $161 $256 reversed $98 $-1 #
coedge $-1 $161 $161 $160 $256 forward $100 $-1 #
coedge $-1 $162 $162 $101 $163 forward $157 $-1 #
edge $-1 $257 0 $257 6.2831853071796004 $162 $258 forward 7 unknown #
loop $-1 $-1 $169 $102 #
plane-surface $-1 -44.233527634510324 16.658651148494037 1.4040021877374826 -0.75470958851134928 0 0.65605901945558964 0.65605901945558964 0 0.75470958851134928 forward_v I I I I #
loop $-1 $-1 $259 $65 #
coedge $-1 $167 $167 $168 $260 reversed $103 $-1 #
coedge $-1 $168 $168 $167 $260 forward $105 $-1 #
coedge $-1 $169 $169 $106 $170 forward $164 $-1 #
edge $-1 $261 0 $261 6.2831853071796004 $169 $262 forward 7 unknown #
face $-1 $263 $264 $36 $-1 $265 reversed single #
loop $-1 $-1 $177 $107 #
plane-surface $-1 44.233527634510331 0 0 -1 0 0 0 0 1 forward_v I I I I #
coedge $-1 $266 $267 $268 $269 reversed $108 $-1 #
coedge $-1 $176 $110 $270 $271 reversed $69 $-1 #
coedge $-1 $110 $175 $266 $272 reversed $69 $-1 #
coedge $-1 $268 $273 $110 $178 forward $172 $-1 #
edge $-1 $274 58.20870984701952 $275 61.701271112536531 $177 $276 forward 7 unknown #
loop $-1 $-1 $184 $111 #
plane-surface $-1 -13.806081899406827 16.658651148494037 68.17093706663087 0.75470958851134928 0 0.65605901945558964 0.65605901945558964 0 -0.75470958851134928 forward_v I I I I #
loop $-1 $-1 $277 $71 #
coedge $-1 $182 $182 $183 $278 reversed $112 $-1 #
coedge $-1 $183 $183 $182 $278 forward $114 $-1 #
coedge $-1 $184 $184 $115 $185 forward $179 $-1 #
edge $-1 $279 0 $279 6.2831853071796004 $184 $280 forward 7 unknown #
loop $-1 $-1 $191 $116 #
plane-surface $-1 -13.806081899406827 16.658651148494037 68.17093706663087 0.75470958851134928 0 0.65605901945558964 0.65605901945558964 0 -0.75470958851134928 forward_v I I I I #
loop $-1 $-1 $281 $74 #
coedge $-1 $189 $189 $190 $282 reversed $117 $-1 #
coedge $-1 $190 $190 $189 $282 forward $119 $-1 #
coedge $-1 $191 $191 $120 $192 forward $186 $-1 #
edge $-1 $283 0 $283 6.2831853071796004 $191 $284 forward 7 unknown #
loop $-1 $-1 $198 $121 #
plane-surface $-1 -13.806081899406827 16.658651148494037 68.17093706663087 0.75470958851134928 0 0.65605901945558964 0.65605901945558964 0 -0.75470958851134928 forward_v I I I I #
loop $-1 $-1 $285 $77 #
coedge $-1 $196 $196 $197 $286 reversed $122 $-1 #
coedge $-1 $197 $197 $196 $286 forward $124 $-1 #
coedge $-1 $198 $198 $125 $199 forward $193 $-1 #
edge $-1 $287 0 $287 6.2831853071796004 $198 $288 forward 7 unknown #
face $-1 $289 $290 $30 $-1 $291 reversed single #
loop $-1 $-1 $292 $126 #
plane-surface $-1 -44.233527634510331 0 0 1 0 0 0 0 -1 forward_v I I I I #
coedge $-1 $293 $211 $294 $295 forward $127 $-1 #
coedge $-1 $296 $129 $293 $297 forward $81 $-1 #
coedge $-1 $129 $296 $298 $299 forward $81 $-1 #
coedge $-1 $214 $213 $129 $207 reversed $215 $-1 #
edge $-1 $300 -19.706173580219577 $301 19.706173580219577 $206 $302 forward 7 unknown #
coedge $-1 $131 $130 $303 $304 forward $51 $-1 #
coedge $-1 $305 $306 $130 $210 reversed $290 $-1 #
edge $-1 $217 -44.233527634510331 $307 44.233527634510331 $209 $308 forward 7 unknown #
coedge $-1 $203 $309 $131 $212 reversed $127 $-1 #
edge $-1 $310 -44.233527634510331 $216 44.233527634510331 $211 $311 forward 7 unknown #
coedge $-1 $206 $132 $309 $312 forward $215 $-1 #
coedge $-1 $132 $206 $305 $313 reversed $215 $-1 #
loop $-1 $-1 $213 $289 #
vertex $-1 $133 $314 #
vertex $-1 $133 $315 #
straight-curve $-1 44.233527634510331 0 4.8965634532544877 0 1 0 I I #
face $-1 $316 $231 $31 $-1 $317 reversed single #
loop $-1 $-1 $318 $134 #
plane-surface $-1 -42.733527634510331 -24.878305648288006 0 0 1 0 0 0 1 forward_v I I I I #
coedge $-1 $319 $320 $226 $321 forward $135 $-1 #
coedge $-1 $322 $137 $320 $323 forward $85 $-1 #
coedge $-1 $137 $322 $229 $324 forward $85 $-1 #
edge $-1 $232 41.233527634510331 $325 44.233527634510331 $137 $326 forward 7 unknown #
coedge $-1 $139 $138 $222 $321 reversed $54 $-1 #
coedge $-1 $327 $328 $138 $228 forward $329 $-1 #
edge $-1 $330 -44.233527634510331 $233 -41.233527634510331 $227 $331 forward 7 unknown #
coedge $-1 $332 $140 $224 $324 reversed $231 $-1 #
coedge $-1 $140 $332 $327 $333 reversed $231 $-1 #
loop $-1 $-1 $332 $219 #
vertex $-1 $225 $334 #
vertex $-1 $333 $335 #
straight-curve $-1 -41.233527634510331 -19.706173580219577 0 0 0 -1 I I #
face $-1 $-1 $247 $32 $-1 $336 forward single #
loop $-1 $-1 $337 $142 #
plane-surface $-1 -44.233527634510331 0 0 1 0 0 0 0 -1 forward_v I I I I #
coedge $-1 $338 $339 $240 $340 forward $143 $-1 #
coedge $-1 $341 $145 $147 $245 forward $89 $-1 #
coedge $-1 $145 $341 $238 $340 reversed $89 $-1 #
coedge $-1 $342 $148 $145 $242 forward $247 $-1 #
edge $-1 $249 5.2818031425214791 $343 11.376848005972558 $241 $344 forward 7 unknown #
coedge $-1 $345 $337 $146 $244 forward $236 $-1 #
edge $-1 $346 -28.317803673089841 $248 -24.82524240757283 $243 $347 forward 7 unknown #
edge $-1 $249 -4.6276890060533331 $346 1.086200982436365e-014 $147 $348 forward 7 unknown #
coedge $-1 $148 $342 $345 $349 forward $247 $-1 #
loop $-1 $-1 $241 $235 #
vertex $-1 $244 $350 #
vertex $-1 $149 $351 #
straight-curve $-1 -55.500231256701852 13.611128716768498 4.8965634532544868 1 0 0 I I #
coedge $-1 $251 $251 $-1 $352 reversed $152 $-1 #
edge $-1 $353 0 $353 6.2831853071796004 $153 $354 forward 7 unknown #
vertex $-1 $156 $355 #
ellipse-curve $-1 -42.715509078681947 14.830137689458716 3.150282820495979 -0.75470958851134928 0 0.65605901945558964 0.32802950972779482 0 0.37735479425567464 1 I I #
coedge $-1 $255 $255 $-1 $356 reversed $159 $-1 #
edge $-1 $357 0 $357 6.2831853071796004 $160 $358 forward 7 unknown #
vertex $-1 $163 $359 #
ellipse-curve $-1 -42.715509078681947 16.658651148494037 3.150282820495979 -0.75470958851134928 0 0.65605901945558964 0.32802950972779482 0 0.37735479425567464 1 I I #
coedge $-1 $259 $259 $-1 $360 reversed $166 $-1 #
edge $-1 $361 0 $361 6.2831853071796004 $167 $362 forward 7 unknown #
vertex $-1 $170 $363 #
ellipse-curve $-1 -42.715509078681947 18.487164607529358 3.150282820495979 -0.75470958851134928 0 0.65605901945558964 0.32802950972779482 0 0.37735479425567464 1 I I #
face $-1 $-1 $364 $36 $-1 $365 forward single #
loop $-1 $-1 $366 $171 #
plane-surface $-1 0 19.706173580219577 0 0 -1 0 0 0 -1 forward_v I I I I #
coedge $-1 $367 $174 $176 $272 forward $108 $-1 #
coedge $-1 $174 $367 $366 $368 reversed $108 $-1 #
coedge $-1 $369 $177 $174 $269 forward $172 $-1 #
edge $-1 $275 5.2818031425214791 $370 11.376848005972558 $268 $371 forward 7 unknown #
coedge $-1 $372 $373 $175 $271 forward $364 $-1 #
edge $-1 $374 14.717064033110294 $274 17.753101144767054 $270 $375 forward 7 unknown #
edge $-1 $275 -88.467055269020705 $374 -83.839366262967374 $176 $376 forward 7 unknown #
coedge $-1 $177 $369 $372 $377 reversed $172 $-1 #
vertex $-1 $377 $378 #
vertex $-1 $178 $379 #
straight-curve $-1 44.233527634510331 13.611128716768498 63.105273300274007 0 0 -1 I I #
coedge $-1 $277 $277 $-1 $380 reversed $181 $-1 #
edge $-1 $381 0 $381 6.2831853071796004 $182 $382 forward 7 unknown #
vertex $-1 $185 $383 #
ellipse-curve $-1 42.71550907868194 14.830137689458716 3.1502828204959976 0.75470958851134928 0 0.65605901945558964 0.32802950972779482 0 -0.37735479425567464 1 I I #
coedge $-1 $281 $281 $-1 $384 reversed $188 $-1 #
edge $-1 $385 0 $385 6.2831853071796004 $189 $386 forward 7 unknown #
vertex $-1 $192 $387 #
ellipse-curve $-1 42.71550907868194 16.658651148494037 3.1502828204959976 0.75470958851134928 0 0.65605901945558964 0.32802950972779482 0 -0.37735479425567464 1 I I #
coedge $-1 $285 $285 $-1 $388 reversed $195 $-1 #
edge $-1 $389 0 $389 6.2831853071796004 $196 $390 forward 7 unknown #
vertex $-1 $199 $391 #
ellipse-curve $-1 42.71550907868194 18.487164607529358 3.1502828204959976 0.75470958851134928 0 0.65605901945558964 0.32802950972779482 0 -0.37735479425567464 1 I I #
face $-1 $-1 $215 $30 $-1 $392 reversed single #
loop $-1 $-1 $305 $200 #
plane-surface $-1 0 19.706173580219577 0 0 -1 0 0 0 -1 forward_v I I I I #
coedge $-1 $393 $303 $306 $394 forward $201 $-1 #
coedge $-1 $309 $203 $204 $297 reversed $127 $-1 #
coedge $-1 $303 $393 $203 $295 reversed $201 $-1 #
edge $-1 $310 -4.8965634532544877 $395 4.8965634532544877 $294 $396 forward 7 unknown #
coedge $-1 $205 $204 $393 $397 forward $81 $-1 #
edge $-1 $301 -44.233527634510331 $395 44.233527634510331 $293 $398 forward 7 unknown #
coedge $-1 $306 $305 $205 $299 reversed $290 $-1 #
edge $-1 $399 -44.233527634510331 $300 44.233527634510331 $298 $400 forward 7 unknown #
vertex $-1 $207 $401 #
vertex $-1 $312 $402 #
straight-curve $-1 44.233527634510331 0 -4.8965634532544877 0 -1 0 I I #
coedge $-1 $292 $294 $208 $304 reversed $201 $-1 #
edge $-1 $307 -19.706173580219577 $310 19.706173580219577 $303 $403 forward 7 unknown #
coedge $-1 $298 $209 $214 $313 forward $290 $-1 #
coedge $-1 $209 $298 $292 $394 reversed $290 $-1 #
vertex $-1 $210 $404 #
straight-curve $-1 0 19.706173580219577 4.8965634532544877 -1 0 0 I I #
coedge $-1 $211 $293 $213 $312 reversed $127 $-1 #
vertex $-1 $304 $405 #
straight-curve $-1 0 -19.706173580219577 4.8965634532544877 1 0 0 I I #
edge $-1 $216 -4.8965634532544877 $301 4.8965634532544877 $213 $406 forward 7 unknown #
edge $-1 $217 -4.8965634532544877 $300 4.8965634532544877 $214 $407 forward 7 unknown #
point $-1 44.233527634510331 -19.706173580219577 4.8965634532544877 #
point $-1 44.233527634510331 19.706173580219577 4.8965634532544877 #
face $-1 $-1 $329 $31 $-1 $408 reversed single #
plane-surface $-1 -41.233527634510331 -22.292239614253791 0 -1 0 0 0 0 1 forward_v I I I I #
coedge $-1 $409 $410 $411 $412 forward $220 $-1 #
coedge $-1 $411 $222 $328 $413 reversed $135 $-1 #
coedge $-1 $222 $411 $223 $323 reversed $135 $-1 #
edge $-1 $325 -4.8965634532544877 $330 4.8965634532544877 $222 $414 forward 7 unknown #
coedge $-1 $224 $223 $410 $415 forward $85 $-1 #
edge $-1 $325 19.706173580219577 $416 24.878305648288006 $320 $417 forward 7 unknown #
edge $-1 $418 -2.5860660340342143 $232 2.5860660340342143 $229 $419 forward 7 unknown #
vertex $-1 $323 $420 #
straight-curve $-1 0 -19.706173580219577 4.8965634532544877 -1 0 0 I I #
coedge $-1 $421 $227 $230 $333 forward $329 $-1 #
coedge $-1 $227 $421 $319 $413 forward $329 $-1 #
loop $-1 $-1 $227 $316 #
vertex $-1 $321 $422 #
straight-curve $-1 0 -19.706173580219577 -4.8965634532544877 1 0 0 I I #
coedge $-1 $230 $229 $423 $424 forward $231 $-1 #
edge $-1 $233 -2.5860660340342143 $425 2.5860660340342143 $230 $426 forward 7 unknown #
point $-1 -41.233527634510331 -19.706173580219577 4.8965634532544877 #
point $-1 -41.233527634510331 -19.706173580219577 -4.8965634532544877 #
plane-surface $-1 0 0 4.8965634532544877 0 0 1 1 0 0 forward_v I I I I #
coedge $-1 $243 $427 $341 $428 forward $236 $-1 #
coedge $-1 $339 $238 $427 $429 reversed $143 $-1 #
coedge $-1 $238 $338 $342 $430 reversed $143 $-1 #
edge $-1 $343 9.3524064207377613 $431 13.980095426791104 $238 $432 forward 7 unknown #
coedge $-1 $240 $239 $337 $428 reversed $89 $-1 #
coedge $-1 $246 $241 $339 $430 forward $247 $-1 #
vertex $-1 $430 $433 #
straight-curve $-1 -41.197490522853563 8.3293255742470187 4.8965634532544851 0 1 0 I I #
coedge $-1 $427 $243 $246 $349 reversed $236 $-1 #
vertex $-1 $244 $434 #
straight-curve $-1 -44.233527634510331 13.611128716768498 29.721805860827317 0 0 1 I I #
straight-curve $-1 -44.233527634510324 13.611128716768498 1.4040021877374826 -0.65605901945558964 0 -0.75470958851134928 I I #
edge $-1 $435 -19.706173580219577 $248 -13.611128716768498 $345 $436 forward 7 unknown #
point $-1 -44.233527634510331 13.611128716768498 4.8965634532544877 #
point $-1 -41.197490522853563 13.611128716768498 4.8965634532544877 #
edge $-1 $437 1 $437 0 $251 $-1 forward 7 unknown #
vertex $-1 $252 $438 #
ellipse-curve $-1 -41.830181549057663 14.830137689458716 2.3806793600072638 -0.75470958851134928 0 0.65605901945558964 0.32802950972779482 0 0.37735479425567464 1 I I #
point $-1 -42.387479568954156 14.830137689458716 3.5276376147516597 #
edge $-1 $439 1 $439 0 $255 $-1 forward 7 unknown #
vertex $-1 $256 $440 #
ellipse-curve $-1 -41.830181549057663 16.658651148494037 2.3806793600072638 -0.75470958851134928 0 0.65605901945558964 0.32802950972779482 0 0.37735479425567464 1 I I #
point $-1 -42.387479568954156 16.658651148494037 3.5276376147516597 #
edge $-1 $441 1 $441 0 $259 $-1 forward 7 unknown #
vertex $-1 $260 $442 #
ellipse-curve $-1 -41.830181549057663 18.487164607529358 2.3806793600072638 -0.75470958851134928 0 0.65605901945558964 0.32802950972779482 0 0.37735479425567464 1 I I #
point $-1 -42.387479568954156 18.487164607529358 3.5276376147516597 #
loop $-1 $-1 $270 $263 #
plane-surface $-1 0 0 4.8965634532544877 0 0 1 1 0 0 forward_v I I I I #
coedge $-1 $443 $444 $267 $368 forward $264 $-1 #
coedge $-1 $267 $266 $373 $445 reversed $108 $-1 #
edge $-1 $370 -58.213623061301419 $446 -53.585934055248103 $366 $447 forward 7 unknown #
coedge $-1 $273 $268 $444 $448 reversed $172 $-1 #
vertex $-1 $368 $449 #
straight-curve $-1 44.233527634510338 8.3293255742470187 1.4040021877374826 0 1 0 I I #
coedge $-1 $450 $270 $273 $377 forward $364 $-1 #
coedge $-1 $270 $450 $367 $445 forward $364 $-1 #
vertex $-1 $271 $451 #
straight-curve $-1 26.480426489743277 13.611128716768498 4.8965634532544868 1 0 0 I I #
straight-curve $-1 -13.806081899406827 13.611128716768498 68.17093706663087 -0.65605901945558964 0 0.75470958851134928 I I #
edge $-1 $274 13.611128716768498 $452 19.706173580219577 $273 $453 forward 7 unknown #
point $-1 44.233527634510331 13.611128716768498 4.8965634532544877 #
point $-1 44.233527634510331 13.611128716768498 1.4040021877374755 #
edge $-1 $454 1 $454 0 $277 $-1 forward 7 unknown #
vertex $-1 $278 $455 #
ellipse-curve $-1 41.830181549057656 14.830137689458716 2.3806793600072824 0.75470958851134928 0 0.65605901945558964 0.32802950972779482 0 -0.37735479425567464 1 I I #
point $-1 43.043538588409739 14.830137689458716 2.7729280262403293 #
edge $-1 $456 1 $456 0 $281 $-1 forward 7 unknown #
vertex $-1 $282 $457 #
ellipse-curve $-1 41.830181549057656 16.658651148494037 2.3806793600072824 0.75470958851134928 0 0.65605901945558964 0.32802950972779482 0 -0.37735479425567464 1 I I #
point $-1 43.043538588409739 16.658651148494037 2.7729280262403293 #
edge $-1 $458 1 $458 0 $285 $-1 forward 7 unknown #
vertex $-1 $286 $459 #
ellipse-curve $-1 41.830181549057656 18.487164607529358 2.3806793600072824 0.75470958851134928 0 0.65605901945558964 0.32802950972779482 0 -0.37735479425567464 1 I I #
point $-1 43.043538588409739 18.487164607529358 2.7729280262403293 #
plane-surface $-1 44.233527634510331 0 0 -1 0 0 0 0 1 forward_v I I I I #
coedge $-1 $294 $292 $296 $397 reversed $201 $-1 #
edge $-1 $307 -4.8965634532544877 $399 4.8965634532544877 $306 $460 forward 7 unknown #
vertex $-1 $397 $461 #
straight-curve $-1 -44.233527634510331 -19.706173580219577 0 0 0 -1 I I #
edge $-1 $395 -19.706173580219577 $399 19.706173580219577 $393 $462 forward 7 unknown #
straight-curve $-1 0 -19.706173580219577 -4.8965634532544877 -1 0 0 I I #
vertex $-1 $299 $463 #
straight-curve $-1 0 19.706173580219577 -4.8965634532544877 1 0 0 I I #
point $-1 44.233527634510331 19.706173580219577 -4.8965634532544877 #
point $-1 44.233527634510331 -19.706173580219577 -4.8965634532544877 #
straight-curve $-1 -44.233527634510331 0 4.8965634532544877 0 -1 0 I I #
point $-1 -44.233527634510331 19.706173580219577 4.8965634532544877 #
point $-1 -44.233527634510331 -19.706173580219577 4.8965634532544877 #
straight-curve $-1 44.233527634510331 -19.706173580219577 0 0 0 -1 I I #
straight-curve $-1 44.233527634510331 19.706173580219577 0 0 0 -1 I I #
plane-surface $-1 0 0 -4.8965634532544877 0 0 1 1 0 0 forward_v I I I I #
coedge $-1 $423 $318 $421 $464 reversed $220 $-1 #
coedge $-1 $318 $423 $322 $415 reversed $220 $-1 #
coedge $-1 $320 $319 $318 $412 reversed $135 $-1 #
edge $-1 $416 -4.8965634532544877 $465 4.8965634532544877 $411 $466 forward 7 unknown #
edge $-1 $465 -24.878305648288006 $330 -19.706173580219577 $319 $467 forward 7 unknown #
straight-curve $-1 -44.233527634510331 -19.706173580219577 0 0 0 -1 I I #
edge $-1 $416 -1.5 $418 1.5 $410 $468 forward 7 unknown #
vertex $-1 $323 $469 #
straight-curve $-1 -44.233527634510331 0 4.8965634532544877 0 -1 0 I I #
vertex $-1 $324 $470 #
straight-curve $-1 -41.233527634510331 -22.292239614253791 4.8965634532544877 0 1 0 I I #
point $-1 -44.233527634510331 -19.706173580219577 4.8965634532544877 #
coedge $-1 $328 $327 $409 $464 forward $329 $-1 #
point $-1 -44.233527634510331 -19.706173580219577 -4.8965634532544877 #
coedge $-1 $410 $409 $332 $424 reversed $220 $-1 #
edge $-1 $418 -4.8965634532544877 $425 4.8965634532544877 $332 $471 forward 7 unknown #
vertex $-1 $424 $472 #
straight-curve $-1 -41.233527634510331 -22.292239614253791 -4.8965634532544877 0 -1 0 I I #
coedge $-1 $337 $345 $338 $429 forward $236 $-1 #
edge $-1 $431 -11.376848005972558 $346 -5.2818031425214791 $337 $473 forward 7 unknown #
edge $-1 $435 -4.8965634532544877 $431 -1.4040021877374744 $338 $474 forward 7 unknown #
edge $-1 $343 41.197490522853563 $435 44.233527634510331 $339 $475 forward 7 unknown #
vertex $-1 $428 $476 #
straight-curve $-1 -35.061759936914186 19.706173580219577 11.954914254640382 -0.65605901945558975 0 -0.75470958851134939 I I #
point $-1 -41.197490522853563 19.706173580219577 4.8965634532544877 #
point $-1 -44.233527634510331 13.611128716768498 1.4040021877374744 #
vertex $-1 $430 $477 #
straight-curve $-1 -44.233527634510331 0 4.8965634532544877 0 -1 0 I I #
vertex $-1 $352 $478 #
point $-1 -41.502152039329864 14.830137689458716 2.7580341542629383 #
vertex $-1 $356 $479 #
point $-1 -41.502152039329864 16.658651148494037 2.7580341542629383 #
vertex $-1 $360 $480 #
point $-1 -41.502152039329864 18.487164607529358 2.7580341542629383 #
coedge $-1 $444 $366 $450 $481 reversed $264 $-1 #
coedge $-1 $366 $443 $369 $448 forward $264 $-1 #
edge $-1 $446 -11.376848005972558 $374 -5.2818031425214791 $373 $482 forward 7 unknown #
vertex $-1 $368 $483 #
straight-curve $-1 6.0419551699556138 19.706173580219577 45.338381694087076 -0.65605901945558975 0 0.75470958851134939 I I #
edge $-1 $452 -4.8965634532544877 $370 -1.4040021877374862 $369 $484 forward 7 unknown #
point $-1 44.233527634510331 19.706173580219577 1.4040021877374862 #
coedge $-1 $373 $372 $443 $481 forward $364 $-1 #
point $-1 41.19749052285357 13.611128716768498 4.8965634532544868 #
vertex $-1 $377 $485 #
straight-curve $-1 44.233527634510331 0 4.8965634532544877 0 1 0 I I #
vertex $-1 $380 $486 #
point $-1 42.158211058785447 14.830137689458716 2.0033245657516079 #
vertex $-1 $384 $487 #
point $-1 42.158211058785447 16.658651148494037 2.0033245657516079 #
vertex $-1 $388 $488 #
point $-1 42.158211058785447 18.487164607529358 2.0033245657516079 #
straight-curve $-1 -44.233527634510331 19.706173580219577 0 0 0 -1 I I #
point $-1 -44.233527634510331 -19.706173580219577 -4.8965634532544877 #
straight-curve $-1 -44.233527634510331 0 -4.8965634532544877 0 1 0 I I #
point $-1 -44.233527634510331 19.706173580219577 -4.8965634532544877 #
edge $-1 $425 -1.5 $465 1.5 $409 $489 forward 7 unknown #
vertex $-1 $413 $490 #
straight-curve $-1 -44.233527634510331 -24.878305648288006 0 0 0 -1 I I #
straight-curve $-1 -44.233527634510331 0 -4.8965634532544877 0 1 0 I I #
straight-curve $-1 -42.733527634510331 -24.878305648288006 4.8965634532544877 1 0 0 I I #
point $-1 -44.233527634510331 -24.878305648288006 4.8965634532544877 #
point $-1 -41.233527634510331 -24.878305648288006 4.8965634532544877 #
straight-curve $-1 -41.233527634510331 -24.878305648288006 0 0 0 -1 I I #
point $-1 -41.233527634510331 -24.878305648288006 -4.8965634532544877 #
straight-curve $-1 -44.233527634510331 8.3293255742470187 1.404002187737474 0 -1 0 I I #
straight-curve $-1 -44.233527634510331 19.706173580219577 0 0 0 -1 I I #
straight-curve $-1 0 19.706173580219577 4.8965634532544877 -1 0 0 I I #
point $-1 -44.233527634510331 19.706173580219577 1.4040021877374744 #
point $-1 -44.233527634510331 19.706173580219577 4.8965634532544877 #
point $-1 -41.452826754801983 14.830137689458716 2.0526498502794688 #
point $-1 -41.452826754801983 16.658651148494037 2.0526498502794688 #
point $-1 -41.452826754801983 18.487164607529358 2.0526498502794688 #
edge $-1 $452 -44.233527634510331 $446 -41.19749052285357 $443 $491 forward 7 unknown #
straight-curve $-1 41.19749052285357 8.3293255742470187 4.8965634532544868 0 -1 0 I I #
point $-1 41.19749052285357 19.706173580219577 4.8965634532544868 #
straight-curve $-1 44.233527634510331 19.706173580219577 0 0 0 -1 I I #
point $-1 44.233527634510331 19.706173580219577 4.8965634532544877 #
point $-1 41.452826754801976 14.830137689458716 2.0526498502794874 #
point $-1 41.452826754801976 16.658651148494037 2.0526498502794874 #
point $-1 41.452826754801976 18.487164607529358 2.0526498502794874 #
straight-curve $-1 -42.733527634510331 -24.878305648288006 -4.8965634532544877 -1 0 0 I I #
point $-1 -44.233527634510331 -24.878305648288006 -4.8965634532544877 #
straight-curve $-1 0 19.706173580219577 4.8965634532544877 -1 0 0 I I #
End-of-ACIS-data 