500 0 4 0           
7 Unknown 11 ACIS 5.0 NT 24 Thu Mar 25 17:38:31 1999 
-1 9.9999999999999995e-007 1e-010 
body $-1 $4 $-1 $5 #
body $-1 $6 $-1 $7 #
body $-1 $8 $-1 $9 #
body $-1 $10 $-1 $11 #
lump $-1 $-1 $12 $0 #
transform $-1 1 0 0 0 1 0 0 0 1 46.168401135288555 25.823560456777493 12.138184630855472 1 rotate no_reflect no_shear #
lump $-1 $-1 $13 $1 #
transform $-1 1 0 0 0 1 0 0 0 1 46.168401135288555 25.823560456777493 12.138184630855472 1 rotate no_reflect no_shear #
lump $-1 $-1 $14 $2 #
transform $-1 1 0 0 0 1 0 0 0 1 46.168401135288555 25.823560456777493 12.138184630855472 1 rotate no_reflect no_shear #
lump $-1 $-1 $15 $3 #
transform $-1 1 0 0 0 1 0 0 0 1 46.168401135288555 25.823560456777493 12.138184630855472 1 rotate no_reflect no_shear #
shell $-1 $-1 $-1 $16 $-1 $4 #
shell $-1 $-1 $-1 $17 $-1 $6 #
shell $-1 $-1 $-1 $18 $-1 $8 #
shell $-1 $-1 $-1 $19 $-1 $10 #
face $-1 $20 $21 $12 $-1 $22 forward single #
face $-1 $23 $24 $13 $-1 $25 forward single #
face $-1 $26 $27 $14 $-1 $28 reversed single #
face $-1 $29 $30 $15 $-1 $31 forward single #
face $-1 $32 $33 $12 $-1 $34 reversed single #
loop $-1 $-1 $35 $16 #
plane-surface $-1 0 0 12.138184630855472 0 0 1 1 0 0 forward_v I I I I #
face $-1 $36 $37 $13 $-1 $38 reversed single #
loop $-1 $-1 $39 $17 #
plane-surface $-1 -46.168401135288555 0 0 1 0 0 0 0 -1 forward_v I I I I #
face $-1 $40 $41 $14 $-1 $42 reversed single #
loop $-1 $-1 $43 $18 #
plane-surface $-1 -15.669061826116575 -103.26371959840031 55.67853914920375 -1 0 0 0 -0.83867057594974714 0.54463902268945019 forward_v I I I I #
face $-1 $44 $45 $15 $-1 $46 forward single #
loop $-1 $47 $48 $19 #
cone-surface $-1 -23.325607421340532 -22.206672263684638 7.8377266904082168 0 0.83867057594974714 -0.54463902268945019 1 0 0 1 I I 0 1 1 forward I I I I #
face $-1 $49 $50 $12 $-1 $51 reversed single #
loop $-1 $-1 $52 $20 #
plane-surface $-1 0 0 -12.138184630855472 0 0 1 1 0 0 forward_v I I I I #
coedge $-1 $53 $54 $55 $56 forward $21 $-1 #
face $-1 $57 $58 $13 $-1 $59 forward single #
loop $-1 $-1 $60 $23 #
plane-surface $-1 0 25.823560456777493 0 0 -1 0 0 0 -1 forward_v I I I I #
coedge $-1 $61 $62 $63 $64 forward $24 $-1 #
face $-1 $65 $66 $14 $-1 $67 reversed single #
loop $-1 $-1 $68 $26 #
plane-surface $-1 -23.325607421340532 -25.823560456777486 5.3883134022876291 0 -0.83867057594974714 0.54463902268945019 1 0 0 forward_v I I I I #
coedge $-1 $69 $70 $71 $72 reversed $27 $-1 #
face $-1 $-1 $73 $15 $-1 $74 forward single #
loop $-1 $75 $76 $29 #
cone-surface $-1 -23.325607421340532 -20.362157526567827 6.639884852900158 0 0.83867057594974714 -0.54463902268945019 0.5 0 0 1 I I -0.70710678118654746 0.70710678118654746 0.5 forward I I I I #
loop $-1 $-1 $77 $19 #
coedge $-1 $48 $48 $78 $79 reversed $30 $-1 #
face $-1 $80 $81 $12 $-1 $82 reversed single #
loop $-1 $-1 $83 $32 #
plane-surface $-1 0 -25.823560456777493 0 0 1 0 0 0 1 forward_v I I I I #
coedge $-1 $84 $85 $86 $87 forward $33 $-1 #
coedge $-1 $88 $35 $89 $90 forward $21 $-1 #
coedge $-1 $35 $88 $91 $92 forward $21 $-1 #
coedge $-1 $93 $94 $35 $56 reversed $95 $-1 #
edge $-1 $96 -25.823560456777493 $97 25.823560456777493 $55 $98 forward 7 unknown #
face $-1 $99 $100 $13 $-1 $101 reversed single #
loop $-1 $-1 $63 $36 #
plane-surface $-1 -53.761525194650588 0 -7.6307532837280814 0 0 1 1 0 0 forward_v I I I I #
coedge $-1 $102 $103 $62 $104 forward $37 $-1 #
coedge $-1 $105 $39 $106 $107 reversed $24 $-1 #
coedge $-1 $39 $105 $60 $104 reversed $24 $-1 #
coedge $-1 $108 $109 $39 $64 reversed $58 $-1 #
edge $-1 $110 -25.823560456777493 $111 25.823560456777493 $63 $112 forward 7 unknown #
face $-1 $113 $114 $14 $-1 $115 reversed single #
loop $-1 $-1 $116 $40 #
plane-surface $-1 -30.982153016564489 -103.26371959840031 55.67853914920375 1 0 0 0 0.83867057594974714 -0.54463902268945019 forward_v I I I I #
coedge $-1 $117 $118 $119 $120 reversed $41 $-1 #
coedge $-1 $70 $43 $121 $122 reversed $27 $-1 #
coedge $-1 $43 $69 $117 $123 reversed $27 $-1 #
coedge $-1 $119 $124 $43 $72 forward $125 $-1 #
edge $-1 $126 25.808299342422664 $127 30.191716830324509 $71 $128 forward 7 unknown #
loop $-1 $-1 $78 $44 #
plane-surface $-1 -23.325607421340532 -25.823560456777486 5.3883134022876291 0 -0.83867057594974714 0.54463902268945019 1 0 0 forward_v I I I I #
loop $-1 $-1 $129 $29 #
coedge $-1 $76 $76 $77 $130 reversed $45 $-1 #
coedge $-1 $77 $77 $76 $130 forward $47 $-1 #
coedge $-1 $78 $78 $48 $79 forward $73 $-1 #
edge $-1 $131 1.0446099212668148e-015 $131 6.2831853071796013 $78 $132 forward 7 unknown #
face $-1 $133 $134 $12 $-1 $135 reversed single #
loop $-1 $-1 $136 $49 #
plane-surface $-1 -46.168401135288555 0 0 1 0 0 0 0 -1 forward_v I I I I #
coedge $-1 $137 $91 $138 $139 forward $50 $-1 #
coedge $-1 $140 $52 $137 $141 forward $33 $-1 #
coedge $-1 $52 $140 $142 $143 forward $33 $-1 #
coedge $-1 $94 $93 $52 $87 reversed $95 $-1 #
edge $-1 $144 -25.823560456777493 $145 25.823560456777493 $86 $146 forward 7 unknown #
coedge $-1 $54 $53 $147 $148 forward $21 $-1 #
coedge $-1 $149 $150 $53 $90 reversed $134 $-1 #
edge $-1 $97 -46.168401135288555 $151 46.168401135288555 $89 $152 forward 7 unknown #
coedge $-1 $83 $153 $54 $92 reversed $50 $-1 #
edge $-1 $154 -46.168401135288555 $96 46.168401135288555 $91 $155 forward 7 unknown #
coedge $-1 $86 $55 $153 $156 forward $95 $-1 #
coedge $-1 $55 $86 $149 $157 reversed $95 $-1 #
loop $-1 $-1 $93 $133 #
vertex $-1 $56 $158 #
vertex $-1 $56 $159 #
straight-curve $-1 46.168401135288555 0 12.138184630855472 0 1 0 I I #
face $-1 $160 $161 $13 $-1 $162 reversed single #
loop $-1 $-1 $163 $57 #
plane-surface $-1 -61.354649254012621 0 -9.8844689572917765 1 0 0 0 0 -1 forward_v I I I I #
coedge $-1 $164 $60 $165 $166 reversed $37 $-1 #
coedge $-1 $60 $164 $108 $167 reversed $37 $-1 #
edge $-1 $110 7.6307532837280814 $168 12.138184630855472 $60 $169 forward 7 unknown #
coedge $-1 $62 $61 $170 $171 reversed $24 $-1 #
coedge $-1 $172 $173 $61 $107 forward $174 $-1 #
edge $-1 $175 -12.138184630855472 $111 -7.6307532837280814 $106 $176 forward 7 unknown #
coedge $-1 $177 $63 $103 $167 forward $58 $-1 #
coedge $-1 $63 $177 $172 $178 forward $58 $-1 #
vertex $-1 $104 $179 #
vertex $-1 $178 $180 #
straight-curve $-1 -46.168401135288555 0 -7.6307532837280814 0 -1 0 I I #
face $-1 $-1 $125 $14 $-1 $181 forward single #
loop $-1 $-1 $182 $65 #
plane-surface $-1 0 -25.823560456777493 0 0 1 0 0 0 1 forward_v I I I I #
coedge $-1 $183 $184 $185 $186 reversed $66 $-1 #
coedge $-1 $187 $68 $70 $123 forward $41 $-1 #
coedge $-1 $68 $187 $183 $188 forward $41 $-1 #
coedge $-1 $185 $71 $68 $120 forward $125 $-1 #
edge $-1 $127 4.0062581154463093 $189 19.319349305894221 $119 $190 forward 7 unknown #
coedge $-1 $191 $192 $69 $122 forward $114 $-1 #
edge $-1 $193 -22.450956172314257 $126 -15.701084943746404 $121 $194 forward 7 unknown #
edge $-1 $127 -8.0482986075003211 $193 1.2808562293387176e-014 $70 $195 forward 7 unknown #
coedge $-1 $71 $185 $191 $196 forward $125 $-1 #
loop $-1 $-1 $185 $113 #
vertex $-1 $122 $197 #
vertex $-1 $72 $198 #
straight-curve $-1 -15.669061826116575 -51.631859799200157 12.13818463085547 0 1 0 I I #
coedge $-1 $129 $129 $-1 $199 reversed $75 $-1 #
edge $-1 $200 0 $200 6.2831853071796004 $76 $201 forward 7 unknown #
vertex $-1 $79 $202 #
ellipse-curve $-1 -23.325607421340532 -23.63185171282657 8.7632490165715478 0 -0.83867057594974714 0.54463902268945019 1 0 0 1 I I #
face $-1 $-1 $95 $12 $-1 $203 reversed single #
loop $-1 $-1 $149 $80 #
plane-surface $-1 0 25.823560456777493 0 0 -1 0 0 0 -1 forward_v I I I I #
coedge $-1 $204 $147 $150 $205 forward $81 $-1 #
coedge $-1 $153 $83 $84 $141 reversed $50 $-1 #
coedge $-1 $147 $204 $83 $139 reversed $81 $-1 #
edge $-1 $154 -12.138184630855472 $206 12.138184630855472 $138 $207 forward 7 unknown #
coedge $-1 $85 $84 $204 $208 forward $33 $-1 #
edge $-1 $145 -46.168401135288555 $206 46.168401135288555 $137 $209 forward 7 unknown #
coedge $-1 $150 $149 $85 $143 reversed $134 $-1 #
edge $-1 $210 -46.168401135288555 $144 46.168401135288555 $142 $211 forward 7 unknown #
vertex $-1 $87 $212 #
vertex $-1 $156 $213 #
straight-curve $-1 46.168401135288555 0 -12.138184630855472 0 -1 0 I I #
coedge $-1 $136 $138 $88 $148 reversed $81 $-1 #
edge $-1 $151 -25.823560456777493 $154 25.823560456777493 $147 $214 forward 7 unknown #
coedge $-1 $142 $89 $94 $157 forward $134 $-1 #
coedge $-1 $89 $142 $136 $205 reversed $134 $-1 #
vertex $-1 $90 $215 #
straight-curve $-1 0 25.823560456777493 12.138184630855472 -1 0 0 I I #
coedge $-1 $91 $137 $93 $156 reversed $50 $-1 #
vertex $-1 $148 $216 #
straight-curve $-1 0 -25.823560456777493 12.138184630855472 1 0 0 I I #
edge $-1 $96 -12.138184630855472 $145 12.138184630855472 $93 $217 forward 7 unknown #
edge $-1 $97 -12.138184630855472 $144 12.138184630855472 $94 $218 forward 7 unknown #
point $-1 46.168401135288555 -25.823560456777493 12.138184630855472 #
point $-1 46.168401135288555 25.823560456777493 12.138184630855472 #
face $-1 $-1 $174 $13 $-1 $219 reversed single #
loop $-1 $-1 $170 $99 #
plane-surface $-1 0 0 -12.138184630855472 0 0 1 1 0 0 forward_v I I I I #
coedge $-1 $220 $221 $164 $222 forward $100 $-1 #
coedge $-1 $103 $102 $163 $222 reversed $37 $-1 #
coedge $-1 $170 $223 $102 $166 forward $161 $-1 #
edge $-1 $224 -61.354649254012621 $168 -46.168401135288555 $102 $225 forward 7 unknown #
edge $-1 $110 -7.5931240593620331 $226 7.5931240593620331 $103 $227 forward 7 unknown #
vertex $-1 $104 $228 #
straight-curve $-1 -46.168401135288555 25.823560456777493 0 0 0 -1 I I #
coedge $-1 $229 $165 $105 $171 forward $161 $-1 #
edge $-1 $168 -25.823560456777493 $175 25.823560456777493 $170 $230 forward 7 unknown #
coedge $-1 $231 $106 $109 $178 reversed $174 $-1 #
coedge $-1 $106 $231 $229 $232 reversed $174 $-1 #
loop $-1 $-1 $106 $160 #
vertex $-1 $232 $233 #
straight-curve $-1 -46.168401135288555 -25.823560456777493 0 0 0 1 I I #
coedge $-1 $109 $108 $221 $234 forward $58 $-1 #
edge $-1 $235 -7.5931240593620331 $111 7.5931240593620331 $172 $236 forward 7 unknown #
point $-1 -46.168401135288555 25.823560456777493 -7.6307532837280814 #
point $-1 -46.168401135288555 -25.823560456777493 -7.6307532837280814 #
plane-surface $-1 0 0 12.138184630855472 0 0 1 1 0 0 forward_v I I I I #
coedge $-1 $192 $191 $184 $237 forward $114 $-1 #
coedge $-1 $184 $116 $118 $188 reversed $66 $-1 #
coedge $-1 $116 $183 $182 $237 reversed $66 $-1 #
coedge $-1 $124 $119 $116 $186 forward $125 $-1 #
edge $-1 $189 -30.191716830324509 $238 -25.808299342422664 $185 $239 forward 7 unknown #
coedge $-1 $118 $117 $192 $240 reversed $41 $-1 #
edge $-1 $241 -1.2808562293387176e-014 $189 8.0482986075003211 $183 $242 forward 7 unknown #
vertex $-1 $120 $243 #
straight-curve $-1 -11.662803710670266 -21.440142968875648 12.138184630855472 -1 0 0 I I #
coedge $-1 $182 $121 $124 $196 reversed $114 $-1 #
coedge $-1 $121 $182 $187 $240 forward $114 $-1 #
vertex $-1 $122 $244 #
straight-curve $-1 -15.669061826116575 -25.823560456777493 27.839269574601875 0 0 1 I I #
straight-curve $-1 -15.669061826116575 -25.823560456777486 5.3883134022876291 0 -0.54463902268945019 -0.83867057594974714 I I #
edge $-1 $238 -30.982153016564489 $126 -15.669061826116575 $191 $245 forward 7 unknown #
point $-1 -15.669061826116575 -25.823560456777493 12.138184630855472 #
point $-1 -15.669061826116575 -21.440142968875648 12.138184630855472 #
edge $-1 $246 1 $246 0 $129 $-1 forward 7 unknown #
vertex $-1 $130 $247 #
ellipse-curve $-1 -23.325607421340532 -20.781492814542702 6.9122043642448832 0 -0.83867057594974714 0.54463902268945019 1 0 0 1 I I #
point $-1 -22.325607421340532 -23.631851712826574 8.7632490165715513 #
plane-surface $-1 46.168401135288555 0 0 -1 0 0 0 0 1 forward_v I I I I #
coedge $-1 $138 $136 $140 $208 reversed $81 $-1 #
edge $-1 $151 -12.138184630855472 $210 12.138184630855472 $150 $248 forward 7 unknown #
vertex $-1 $208 $249 #
straight-curve $-1 -46.168401135288555 -25.823560456777493 0 0 0 -1 I I #
edge $-1 $206 -25.823560456777493 $210 25.823560456777493 $204 $250 forward 7 unknown #
straight-curve $-1 0 -25.823560456777493 -12.138184630855472 -1 0 0 I I #
vertex $-1 $143 $251 #
straight-curve $-1 0 25.823560456777493 -12.138184630855472 1 0 0 I I #
point $-1 46.168401135288555 25.823560456777493 -12.138184630855472 #
point $-1 46.168401135288555 -25.823560456777493 -12.138184630855472 #
straight-curve $-1 -46.168401135288555 0 12.138184630855472 0 -1 0 I I #
point $-1 -46.168401135288555 25.823560456777493 12.138184630855472 #
point $-1 -46.168401135288555 -25.823560456777493 12.138184630855472 #
straight-curve $-1 46.168401135288555 -25.823560456777493 0 0 0 -1 I I #
straight-curve $-1 46.168401135288555 25.823560456777493 0 0 0 -1 I I #
plane-surface $-1 0 -25.823560456777493 0 0 1 0 0 0 1 forward_v I I I I #
coedge $-1 $252 $163 $223 $253 reversed $100 $-1 #
coedge $-1 $163 $252 $177 $234 reversed $100 $-1 #
edge $-1 $226 -2.2537156735636952 $224 2.2537156735636952 $164 $254 forward 7 unknown #
coedge $-1 $165 $229 $220 $253 forward $161 $-1 #
vertex $-1 $166 $255 #
straight-curve $-1 0 25.823560456777493 -12.138184630855472 1 0 0 I I #
vertex $-1 $167 $256 #
straight-curve $-1 -53.761525194650588 25.823560456777493 -7.6307532837280814 -1 0 0 I I #
point $-1 -46.168401135288555 25.823560456777493 -12.138184630855472 #
coedge $-1 $223 $170 $173 $232 forward $161 $-1 #
straight-curve $-1 -46.168401135288555 0 -12.138184630855472 0 -1 0 I I #
coedge $-1 $173 $172 $252 $257 forward $174 $-1 #
edge $-1 $175 -7.5931240593620331 $258 7.5931240593620331 $173 $259 forward 7 unknown #
point $-1 -46.168401135288555 -25.823560456777493 -12.138184630855472 #
edge $-1 $226 -25.823560456777493 $235 25.823560456777493 $221 $260 forward 7 unknown #
vertex $-1 $234 $261 #
straight-curve $-1 -53.761525194650588 -25.823560456777493 -7.6307532837280814 1 0 0 I I #
edge $-1 $238 15.701084943746404 $241 22.450956172314257 $182 $262 forward 7 unknown #
vertex $-1 $196 $263 #
straight-curve $-1 -30.982153016564489 -51.631859799200157 12.13818463085547 0 -1 0 I I #
edge $-1 $241 -19.319349305894221 $193 -4.0062581154463093 $192 $264 forward 7 unknown #
vertex $-1 $240 $265 #
straight-curve $-1 -30.982153016564489 -25.823560456777486 5.3883134022876291 0 0.54463902268945019 0.83867057594974714 I I #
point $-1 -30.982153016564489 -21.440142968875648 12.138184630855472 #
point $-1 -15.669061826116575 -25.823560456777493 5.3883134022876185 #
straight-curve $-1 0 -25.823560456777493 12.138184630855472 1 0 0 I I #
vertex $-1 $199 $266 #
point $-1 -22.325607421340532 -20.781492814542702 6.9122043642448832 #
straight-curve $-1 -46.168401135288555 25.823560456777493 0 0 0 -1 I I #
point $-1 -46.168401135288555 -25.823560456777493 -12.138184630855472 #
straight-curve $-1 -46.168401135288555 0 -12.138184630855472 0 1 0 I I #
point $-1 -46.168401135288555 25.823560456777493 -12.138184630855472 #
coedge $-1 $221 $220 $231 $257 reversed $100 $-1 #
edge $-1 $258 -25.823560456777493 $224 25.823560456777493 $220 $267 forward 7 unknown #
straight-curve $-1 -61.354649254012621 25.823560456777493 -9.8844689572917765 0 0 -1 I I #
point $-1 -61.354649254012621 25.823560456777493 -12.138184630855472 #
point $-1 -61.354649254012621 25.823560456777493 -7.6307532837280814 #
edge $-1 $235 -2.2537156735636952 $258 2.2537156735636952 $252 $268 forward 7 unknown #
vertex $-1 $253 $269 #
straight-curve $-1 -53.761525194650588 -25.823560456777493 -12.138184630855472 -1 0 0 I I #
straight-curve $-1 -61.354649254012621 0 -7.6307532837280814 0 -1 0 I I #
point $-1 -61.354649254012621 -25.823560456777493 -7.6307532837280814 #
straight-curve $-1 -30.982153016564489 -25.823560456777493 27.839269574601875 0 0 -1 I I #
point $-1 -30.982153016564489 -25.823560456777493 12.138184630855472 #
straight-curve $-1 -11.662803710670266 -25.823560456777493 5.3883134022876185 1 0 0 I I #
point $-1 -30.982153016564489 -25.823560456777493 5.3883134022876185 #
point $-1 -23.325607421340532 -19.942822238592953 6.3675653415554327 #
straight-curve $-1 -61.354649254012621 0 -12.138184630855472 0 1 0 I I #
straight-curve $-1 -61.354649254012621 -25.823560456777493 -9.8844689572917765 0 0 -1 I I #
point $-1 -61.354649254012621 -25.823560456777493 -12.138184630855472 #
End-of-ACIS-data 