500 0 5 0           
7 Unknown 11 ACIS 5.0 NT 24 Fri Mar 26 16:43:56 1999 
-1 9.9999999999999995e-007 1e-010 
body $-1 $5 $-1 $6 #
body $-1 $7 $-1 $8 #
body $-1 $9 $-1 $10 #
body $-1 $11 $-1 $12 #
body $-1 $13 $-1 $14 #
lump $-1 $-1 $15 $0 #
transform $-1 1 0 0 0 1 0 0 0 1 64.044923245948667 32.116084836069248 7.6358400379613967 1 rotate no_reflect no_shear #
lump $-1 $-1 $16 $1 #
transform $-1 1 0 0 0 1 0 0 0 1 64.044923245948667 32.116084836069248 7.6358400379613967 1 rotate no_reflect no_shear #
lump $-1 $-1 $17 $2 #
transform $-1 1 0 0 0 1 0 0 0 1 64.044923245948667 32.116084836069248 7.6358400379613967 1 rotate no_reflect no_shear #
lump $-1 $-1 $18 $3 #
transform $-1 1 0 0 0 1 0 0 0 1 64.044923245948667 32.116084836069248 7.6358400379613967 1 rotate no_reflect no_shear #
lump $-1 $-1 $19 $4 #
transform $-1 1 0 0 0 1 0 0 0 1 64.044923245948667 32.116084836069248 7.6358400379613967 1 rotate no_reflect no_shear #
shell $-1 $-1 $-1 $20 $-1 $5 #
shell $-1 $-1 $-1 $21 $-1 $7 #
shell $-1 $-1 $-1 $22 $-1 $9 #
shell $-1 $-1 $-1 $23 $-1 $11 #
shell $-1 $-1 $-1 $24 $-1 $13 #
face $-1 $25 $26 $15 $-1 $27 forward single #
face $-1 $28 $29 $16 $-1 $30 forward single #
face $-1 $31 $32 $17 $-1 $33 forward single #
face $-1 $34 $35 $18 $-1 $36 forward single #
face $-1 $37 $38 $19 $-1 $39 reversed single #
face $-1 $40 $41 $15 $-1 $42 reversed single #
loop $-1 $-1 $43 $20 #
plane-surface $-1 0 0 7.6358400379613967 0 0 1 1 0 0 forward_v I I I I #
face $-1 $44 $45 $16 $-1 $46 forward single #
loop $-1 $-1 $47 $21 #
plane-surface $-1 -61.967397762308735 -23.292729171634669 0 0 -1 0 0 0 -1 forward_v I I I I #
face $-1 $48 $49 $17 $-1 $50 forward single #
loop $-1 $-1 $51 $22 #
plane-surface $-1 -61.967397762308735 23.292729171634665 0 0 1 0 0 0 1 forward_v I I I I #
face $-1 $52 $53 $18 $-1 $54 forward single #
loop $-1 $-1 $55 $23 #
plane-surface $-1 -139.33424694416152 -23.292729171634672 105.69754751206204 0 1 0 -0.5877852598018023 0 0.80901698891910034 forward_v I I I I #
face $-1 $56 $57 $19 $-1 $58 reversed single #
loop $-1 $59 $60 $24 #
cone-surface $-1 -59.066138115871517 -19.6888424366606 3.2719428562407438 0.5877852598018023 0 -0.80901698891910034 1.2135254833786506 0 0.88167788970270344 1 I I 0 1 1.5 forward I I I I #
face $-1 $61 $62 $15 $-1 $63 reversed single #
loop $-1 $-1 $64 $25 #
plane-surface $-1 0 0 -7.6358400379613967 0 0 1 1 0 0 forward_v I I I I #
coedge $-1 $65 $66 $67 $68 forward $26 $-1 #
face $-1 $69 $70 $16 $-1 $71 forward single #
loop $-1 $-1 $72 $28 #
plane-surface $-1 -59.889872278668804 -27.704407003851959 0 -1 0 0 0 0 1 forward_v I I I I #
coedge $-1 $73 $74 $75 $76 reversed $29 $-1 #
face $-1 $77 $78 $17 $-1 $79 forward single #
loop $-1 $-1 $80 $31 #
plane-surface $-1 -59.889872278668804 27.704407003851955 0 -1 0 0 0 0 1 forward_v I I I I #
coedge $-1 $81 $82 $83 $84 reversed $32 $-1 #
face $-1 $85 $86 $18 $-1 $87 forward single #
loop $-1 $-1 $88 $34 #
plane-surface $-1 -64.044923245948667 -19.6888424366606 2.0706855920774814 -0.5877852598018023 0 0.80901698891910034 0.80901698891910034 0 0.5877852598018023 forward_v I I I I #
coedge $-1 $89 $90 $91 $92 reversed $35 $-1 #
face $-1 $93 $94 $19 $-1 $95 forward single #
loop $-1 $96 $97 $37 #
cone-surface $-1 -57.476402948157954 -19.6888424366606 1.0838601557727197 0.5877852598018023 0 -0.80901698891910034 0.60676274168932531 0 0.44083894485135172 1 I I -0.70710678118654757 0.70710678118654757 0.75 forward I I I I #
loop $-1 $-1 $98 $24 #
coedge $-1 $60 $60 $99 $100 reversed $38 $-1 #
face $-1 $101 $102 $15 $-1 $103 reversed single #
loop $-1 $-1 $104 $40 #
plane-surface $-1 0 -32.116084836069248 0 0 1 0 0 0 1 forward_v I I I I #
coedge $-1 $105 $106 $107 $108 forward $41 $-1 #
coedge $-1 $109 $43 $110 $111 forward $26 $-1 #
coedge $-1 $43 $109 $112 $113 forward $26 $-1 #
coedge $-1 $114 $115 $43 $68 reversed $116 $-1 #
edge $-1 $117 -32.116084836069248 $118 32.116084836069248 $67 $119 forward 7 unknown #
face $-1 $120 $121 $16 $-1 $122 reversed single #
loop $-1 $-1 $123 $44 #
plane-surface $-1 0 0 7.6358400379613967 0 0 1 1 0 0 forward_v I I I I #
coedge $-1 $124 $125 $126 $127 reversed $45 $-1 #
coedge $-1 $128 $47 $123 $129 reversed $29 $-1 #
coedge $-1 $47 $128 $130 $131 reversed $29 $-1 #
coedge $-1 $125 $124 $47 $76 forward $45 $-1 #
edge $-1 $132 -7.6358400379613967 $133 7.6358400379613967 $75 $134 forward 7 unknown #
face $-1 $135 $136 $17 $-1 $137 reversed single #
loop $-1 $-1 $138 $48 #
plane-surface $-1 0 0 7.6358400379613967 0 0 1 1 0 0 forward_v I I I I #
coedge $-1 $139 $140 $141 $142 reversed $49 $-1 #
coedge $-1 $141 $51 $143 $144 reversed $32 $-1 #
coedge $-1 $51 $141 $145 $146 reversed $32 $-1 #
coedge $-1 $147 $148 $51 $84 forward $136 $-1 #
edge $-1 $149 -7.6358400379613967 $150 7.6358400379613967 $83 $151 forward 7 unknown #
face $-1 $152 $153 $18 $-1 $154 forward single #
loop $-1 $-1 $155 $52 #
plane-surface $-1 -139.33424694416152 -16.084955701686528 105.69754751206204 0 -1 0 0.5877852598018023 0 -0.80901698891910034 forward_v I I I I #
coedge $-1 $156 $157 $158 $159 reversed $53 $-1 #
coedge $-1 $90 $55 $157 $160 forward $35 $-1 #
coedge $-1 $55 $89 $161 $162 reversed $35 $-1 #
coedge $-1 $163 $158 $55 $92 forward $164 $-1 #
edge $-1 $165 -13.281978040561974 $166 -9.7772511934119564 $91 $167 forward 7 unknown #
face $-1 $168 $169 $19 $-1 $170 forward single #
loop $-1 $-1 $171 $56 #
plane-surface $-1 -139.33424694416152 -23.292729171634672 105.69754751206204 0 1 0 -0.5877852598018023 0 0.80901698891910034 forward_v I I I I #
loop $-1 $-1 $172 $37 #
coedge $-1 $97 $97 $98 $173 forward $57 $-1 #
coedge $-1 $98 $98 $97 $173 reversed $59 $-1 #
coedge $-1 $99 $99 $60 $100 forward $169 $-1 #
edge $-1 $174 0 $174 6.2831853071796004 $99 $175 forward 7 unknown #
face $-1 $176 $177 $15 $-1 $178 reversed single #
loop $-1 $-1 $179 $61 #
plane-surface $-1 -64.044923245948667 0 0 1 0 0 0 0 -1 forward_v I I I I #
coedge $-1 $180 $112 $181 $182 forward $62 $-1 #
coedge $-1 $183 $64 $180 $184 forward $41 $-1 #
coedge $-1 $64 $183 $185 $186 forward $41 $-1 #
coedge $-1 $115 $114 $64 $108 reversed $116 $-1 #
edge $-1 $187 -32.116084836069248 $188 32.116084836069248 $107 $189 forward 7 unknown #
coedge $-1 $66 $65 $190 $191 forward $26 $-1 #
coedge $-1 $192 $193 $65 $111 reversed $177 $-1 #
edge $-1 $118 -64.044923245948667 $194 64.044923245948667 $110 $195 forward 7 unknown #
coedge $-1 $104 $196 $66 $113 reversed $62 $-1 #
edge $-1 $197 -64.044923245948667 $117 64.044923245948667 $112 $198 forward 7 unknown #
coedge $-1 $107 $67 $196 $199 forward $116 $-1 #
coedge $-1 $67 $107 $192 $200 reversed $116 $-1 #
loop $-1 $-1 $114 $176 #
vertex $-1 $68 $201 #
vertex $-1 $68 $202 #
straight-curve $-1 64.044923245948667 0 7.6358400379613967 0 1 0 I I #
face $-1 $203 $204 $16 $-1 $205 reversed single #
loop $-1 $-1 $126 $69 #
plane-surface $-1 0 -32.116084836069248 0 0 1 0 0 0 1 forward_v I I I I #
coedge $-1 $206 $207 $73 $129 forward $70 $-1 #
coedge $-1 $75 $72 $206 $208 reversed $45 $-1 #
coedge $-1 $72 $75 $209 $210 reversed $45 $-1 #
coedge $-1 $211 $212 $72 $127 forward $121 $-1 #
edge $-1 $213 -7.6358400379613967 $214 7.6358400379613967 $126 $215 forward 7 unknown #
coedge $-1 $74 $73 $216 $217 reversed $29 $-1 #
edge $-1 $218 -33.061224364794299 $132 -28.906173397514436 $123 $219 forward 7 unknown #
coedge $-1 $220 $209 $74 $131 forward $204 $-1 #
edge $-1 $133 28.906173397514436 $221 33.061224364794299 $130 $222 forward 7 unknown #
vertex $-1 $129 $223 #
vertex $-1 $131 $224 #
straight-curve $-1 -59.889872278668804 -23.292729171634669 0 0 0 -1 I I #
face $-1 $225 $226 $17 $-1 $227 forward single #
loop $-1 $-1 $83 $77 #
plane-surface $-1 -64.044923245948667 0 0 1 0 0 0 0 -1 forward_v I I I I #
coedge $-1 $143 $228 $139 $229 forward $78 $-1 #
coedge $-1 $230 $80 $138 $229 reversed $49 $-1 #
coedge $-1 $80 $230 $231 $232 reversed $49 $-1 #
coedge $-1 $82 $81 $80 $142 forward $32 $-1 #
edge $-1 $233 -7.6358400379613967 $234 7.6358400379613967 $80 $235 forward 7 unknown #
coedge $-1 $236 $138 $81 $144 forward $78 $-1 #
edge $-1 $233 28.906173397514436 $149 33.061224364794299 $143 $237 forward 7 unknown #
coedge $-1 $231 $238 $82 $146 forward $239 $-1 #
edge $-1 $150 -33.061224364794299 $234 -28.906173397514436 $145 $240 forward 7 unknown #
coedge $-1 $241 $83 $238 $242 reversed $136 $-1 #
coedge $-1 $83 $241 $236 $243 reversed $136 $-1 #
vertex $-1 $243 $244 #
vertex $-1 $84 $245 #
straight-curve $-1 -64.044923245948667 23.292729171634665 0 0 0 -1 I I #
face $-1 $246 $247 $18 $-1 $248 forward single #
loop $-1 $-1 $249 $85 #
plane-surface $-1 -61.967397762308735 -23.292729171634669 0 0 -1 0 0 0 -1 forward_v I I I I #
coedge $-1 $250 $251 $252 $253 reversed $86 $-1 #
coedge $-1 $254 $88 $251 $255 reversed $53 $-1 #
coedge $-1 $88 $256 $89 $160 reversed $53 $-1 #
coedge $-1 $91 $252 $88 $159 forward $164 $-1 #
edge $-1 $257 6.2405344833562282 $165 13.448307953304372 $158 $258 forward 7 unknown #
edge $-1 $165 -9.4680061350304214 $259 -5.1359254801698073 $89 $260 forward 7 unknown #
coedge $-1 $261 $262 $90 $162 forward $263 $-1 #
edge $-1 $166 -7.6358400379613967 $259 -5.0895068847617884 $161 $264 forward 7 unknown #
coedge $-1 $265 $91 $262 $266 forward $164 $-1 #
loop $-1 $-1 $91 $267 #
vertex $-1 $159 $268 #
vertex $-1 $92 $269 #
straight-curve $-1 -69.66712347208076 -23.292729171634672 7.635840037961394 -1 0 0 I I #
face $-1 $270 $271 $19 $-1 $272 forward single #
loop $-1 $273 $99 $93 #
plane-surface $-1 -64.044923245948667 -19.6888424366606 2.0706855920774814 -0.5877852598018023 0 0.80901698891910034 0.80901698891910034 0 0.5877852598018023 forward_v I I I I #
coedge $-1 $274 $275 $276 $277 reversed $94 $-1 #
coedge $-1 $172 $172 $-1 $278 forward $96 $-1 #
edge $-1 $279 0 $279 6.2831853071796004 $97 $280 forward 7 unknown #
vertex $-1 $100 $281 #
ellipse-curve $-1 -60.215034338733723 -19.6888424366606 4.8532628150194395 0.5877852598018023 0 -0.80901698891910034 1.2135254833786506 0 0.88167788970270344 1 I I #
face $-1 $-1 $116 $15 $-1 $282 reversed single #
loop $-1 $-1 $192 $101 #
plane-surface $-1 0 32.116084836069248 0 0 -1 0 0 0 -1 forward_v I I I I #
coedge $-1 $283 $190 $193 $284 forward $102 $-1 #
coedge $-1 $196 $104 $105 $184 reversed $62 $-1 #
coedge $-1 $190 $283 $104 $182 reversed $102 $-1 #
edge $-1 $197 -7.6358400379613967 $285 7.6358400379613967 $181 $286 forward 7 unknown #
coedge $-1 $106 $105 $283 $287 forward $41 $-1 #
edge $-1 $188 -64.044923245948667 $285 64.044923245948667 $180 $288 forward 7 unknown #
coedge $-1 $193 $192 $106 $186 reversed $177 $-1 #
edge $-1 $289 -64.044923245948667 $187 64.044923245948667 $185 $290 forward 7 unknown #
vertex $-1 $108 $291 #
vertex $-1 $199 $292 #
straight-curve $-1 64.044923245948667 0 -7.6358400379613967 0 -1 0 I I #
coedge $-1 $179 $181 $109 $191 reversed $102 $-1 #
edge $-1 $194 -32.116084836069248 $197 32.116084836069248 $190 $293 forward 7 unknown #
coedge $-1 $185 $110 $115 $200 forward $177 $-1 #
coedge $-1 $110 $185 $179 $284 reversed $177 $-1 #
vertex $-1 $111 $294 #
straight-curve $-1 0 32.116084836069248 7.6358400379613967 -1 0 0 I I #
coedge $-1 $112 $180 $114 $199 reversed $62 $-1 #
vertex $-1 $191 $295 #
straight-curve $-1 0 -32.116084836069248 7.6358400379613967 1 0 0 I I #
edge $-1 $117 -7.6358400379613967 $188 7.6358400379613967 $114 $296 forward 7 unknown #
edge $-1 $118 -7.6358400379613967 $187 7.6358400379613967 $115 $297 forward 7 unknown #
point $-1 64.044923245948667 -32.116084836069248 7.6358400379613967 #
point $-1 64.044923245948667 32.116084836069248 7.6358400379613967 #
face $-1 $298 $299 $16 $-1 $300 reversed single #
loop $-1 $-1 $130 $120 #
plane-surface $-1 0 0 -7.6358400379613967 0 0 1 1 0 0 forward_v I I I I #
coedge $-1 $301 $123 $124 $208 forward $70 $-1 #
coedge $-1 $123 $302 $303 $304 forward $70 $-1 #
edge $-1 $132 9.4405256697086894 $213 18.263881334143271 $206 $305 forward 7 unknown #
coedge $-1 $130 $306 $125 $210 forward $204 $-1 #
edge $-1 $214 -18.263881334143271 $133 -9.4405256697086894 $209 $307 forward 7 unknown #
coedge $-1 $308 $126 $306 $309 reversed $121 $-1 #
coedge $-1 $126 $308 $301 $310 reversed $121 $-1 #
vertex $-1 $310 $311 #
vertex $-1 $127 $312 #
straight-curve $-1 -59.889872278668804 -32.116084836069248 0 0 0 -1 I I #
coedge $-1 $303 $313 $128 $217 forward $299 $-1 #
edge $-1 $221 -7.6358400379613967 $218 7.6358400379613967 $216 $314 forward 7 unknown #
vertex $-1 $217 $315 #
straight-curve $-1 -30.983698881154368 -23.292729171634669 7.6358400379613967 1 0 0 I I #
coedge $-1 $316 $130 $313 $317 forward $204 $-1 #
vertex $-1 $317 $318 #
straight-curve $-1 -30.983698881154368 -23.292729171634669 -7.6358400379613967 -1 0 0 I I #
point $-1 -59.889872278668804 -23.292729171634669 7.6358400379613967 #
point $-1 -59.889872278668804 -23.292729171634669 -7.6358400379613967 #
face $-1 $319 $320 $17 $-1 $321 forward single #
loop $-1 $-1 $322 $135 #
plane-surface $-1 -61.967397762308735 -23.292729171634669 0 0 -1 0 0 0 -1 forward_v I I I I #
coedge $-1 $138 $323 $324 $325 forward $78 $-1 #
edge $-1 $326 -18.263881334143271 $233 -9.4405256697086877 $138 $327 forward 7 unknown #
coedge $-1 $140 $139 $328 $329 reversed $49 $-1 #
coedge $-1 $330 $145 $140 $232 forward $239 $-1 #
edge $-1 $234 9.4405256697086877 $331 18.263881334143271 $231 $332 forward 7 unknown #
vertex $-1 $144 $333 #
vertex $-1 $146 $334 #
straight-curve $-1 -59.889872278668804 23.292729171634665 0 0 0 -1 I I #
coedge $-1 $335 $143 $148 $243 forward $78 $-1 #
straight-curve $-1 -30.983698881154368 23.292729171634665 7.6358400379613967 -1 0 0 I I #
coedge $-1 $145 $336 $147 $242 forward $239 $-1 #
loop $-1 $-1 $231 $337 #
straight-curve $-1 -30.983698881154368 23.292729171634665 -7.6358400379613967 1 0 0 I I #
coedge $-1 $148 $147 $338 $339 forward $136 $-1 #
edge $-1 $340 -23.292729171634669 $150 23.292729171634665 $147 $341 forward 7 unknown #
edge $-1 $149 -23.292729171634665 $342 23.292729171634669 $148 $343 forward 7 unknown #
point $-1 -64.044923245948667 23.292729171634665 7.6358400379613967 #
point $-1 -64.044923245948667 23.292729171634665 -7.6358400379613967 #
face $-1 $267 $344 $18 $-1 $345 forward single #
loop $-1 $-1 $346 $152 #
plane-surface $-1 -61.967397762308735 23.292729171634665 0 0 1 0 0 0 1 forward_v I I I I #
coedge $-1 $347 $348 $256 $349 forward $153 $-1 #
coedge $-1 $251 $155 $350 $351 reversed $86 $-1 #
coedge $-1 $155 $250 $156 $255 forward $86 $-1 #
coedge $-1 $158 $352 $155 $253 forward $164 $-1 #
edge $-1 $353 5.6222002261320938 $257 13.281978040561974 $252 $354 forward 7 unknown #
coedge $-1 $256 $156 $355 $356 reversed $53 $-1 #
edge $-1 $357 0 $257 9.4680061350304214 $251 $358 forward 7 unknown #
coedge $-1 $157 $254 $249 $349 reversed $53 $-1 #
vertex $-1 $159 $359 #
straight-curve $-1 -56.385145431518794 -9.8444212183303001 7.6358400379613975 0 -1 0 I I #
vertex $-1 $360 $361 #
straight-curve $-1 -64.044923245948667 -23.292729171634672 2.0706855920774814 -0.80901698891910034 0 -0.5877852598018023 I I #
coedge $-1 $362 $161 $348 $360 forward $263 $-1 #
coedge $-1 $161 $363 $163 $266 reversed $263 $-1 #
loop $-1 $-1 $363 $364 #
straight-curve $-1 -59.889872278668804 -23.292729171634669 0 0 0 -1 I I #
coedge $-1 $365 $163 $366 $367 forward $164 $-1 #
edge $-1 $166 9.4405256697086894 $368 18.263881334143271 $163 $369 forward 7 unknown #
face $-1 $370 $164 $18 $-1 $371 forward single #
point $-1 -56.385145431518787 -23.292729171634672 7.6358400379613967 #
point $-1 -59.889872278668804 -23.292729171634669 7.6358400379613967 #
face $-1 $372 $373 $19 $-1 $374 forward single #
loop $-1 $-1 $375 $168 #
plane-surface $-1 -139.33424694416152 -16.084955701686528 105.69754751206204 0 -1 0 0.5877852598018023 0 -0.80901698891910034 forward_v I I I I #
loop $-1 $-1 $376 $93 #
coedge $-1 $275 $171 $377 $378 forward $94 $-1 #
coedge $-1 $171 $274 $379 $380 reversed $94 $-1 #
coedge $-1 $381 $382 $171 $277 forward $383 $-1 #
edge $-1 $384 -13.281978040561974 $385 -9.7772511934119564 $276 $386 forward 7 unknown #
edge $-1 $387 1 $387 0 $172 $-1 forward 7 unknown #
vertex $-1 $173 $388 #
ellipse-curve $-1 -57.917241893009304 -19.6888424366606 1.690622897462045 -0.5877852598018023 0 0.80901698891910034 1.2135254833786506 0 0.88167788970270344 1 I I #
point $-1 -59.001508855355077 -19.6888424366606 5.7349407047221463 #
plane-surface $-1 64.044923245948667 0 0 -1 0 0 0 0 1 forward_v I I I I #
coedge $-1 $181 $179 $183 $287 reversed $102 $-1 #
edge $-1 $194 -7.6358400379613967 $289 7.6358400379613967 $193 $389 forward 7 unknown #
vertex $-1 $287 $390 #
straight-curve $-1 -64.044923245948667 -32.116084836069248 0 0 0 -1 I I #
edge $-1 $285 -32.116084836069248 $289 32.116084836069248 $283 $391 forward 7 unknown #
straight-curve $-1 0 -32.116084836069248 -7.6358400379613967 -1 0 0 I I #
vertex $-1 $186 $392 #
straight-curve $-1 0 32.116084836069248 -7.6358400379613967 1 0 0 I I #
point $-1 64.044923245948667 32.116084836069248 -7.6358400379613967 #
point $-1 64.044923245948667 -32.116084836069248 -7.6358400379613967 #
straight-curve $-1 -64.044923245948667 0 7.6358400379613967 0 -1 0 I I #
point $-1 -64.044923245948667 32.116084836069248 7.6358400379613967 #
point $-1 -64.044923245948667 -32.116084836069248 7.6358400379613967 #
straight-curve $-1 64.044923245948667 -32.116084836069248 0 0 0 -1 I I #
straight-curve $-1 64.044923245948667 32.116084836069248 0 0 0 -1 I I #
face $-1 $393 $394 $16 $-1 $395 reversed single #
loop $-1 $-1 $216 $203 #
plane-surface $-1 -64.044923245948667 0 0 1 0 0 0 0 -1 forward_v I I I I #
coedge $-1 $396 $206 $212 $310 forward $70 $-1 #
coedge $-1 $207 $396 $397 $398 forward $70 $-1 #
coedge $-1 $399 $216 $207 $304 reversed $299 $-1 #
edge $-1 $400 -32.116084836069248 $218 23.292729171634669 $303 $401 forward 7 unknown #
straight-curve $-1 -59.889872278668804 -13.852203501925979 7.6358400379613967 0 -1 0 I I #
coedge $-1 $209 $402 $211 $309 forward $204 $-1 #
straight-curve $-1 -59.889872278668804 -13.852203501925979 -7.6358400379613967 0 1 0 I I #
coedge $-1 $212 $211 $403 $404 reversed $121 $-1 #
edge $-1 $405 -64.044923245948667 $214 59.889872278668804 $211 $406 forward 7 unknown #
edge $-1 $213 -59.889872278668804 $407 64.044923245948667 $212 $408 forward 7 unknown #
point $-1 -59.889872278668804 -32.116084836069248 7.6358400379613967 #
point $-1 -59.889872278668804 -32.116084836069248 -7.6358400379613967 #
coedge $-1 $216 $399 $220 $317 reversed $299 $-1 #
straight-curve $-1 -64.044923245948667 -23.292729171634669 0 0 0 1 I I #
point $-1 -64.044923245948667 -23.292729171634669 7.6358400379613967 #
coedge $-1 $402 $220 $409 $410 forward $204 $-1 #
edge $-1 $221 -23.292729171634669 $411 32.116084836069248 $313 $412 forward 7 unknown #
point $-1 -64.044923245948667 -23.292729171634669 -7.6358400379613967 #
face $-1 $337 $413 $17 $-1 $414 reversed single #
loop $-1 $-1 $415 $225 #
plane-surface $-1 -59.889872278668804 -27.704407003851959 0 -1 0 0 0 0 1 forward_v I I I I #
coedge $-1 $416 $417 $418 $419 reversed $226 $-1 #
coedge $-1 $228 $420 $421 $422 forward $78 $-1 #
coedge $-1 $423 $328 $228 $325 reversed $424 $-1 #
edge $-1 $425 -64.044923245948667 $326 59.889872278668804 $324 $426 forward 7 unknown #
vertex $-1 $329 $427 #
straight-curve $-1 -59.889872278668804 13.852203501925977 7.6358400379613967 0 -1 0 I I #
coedge $-1 $324 $428 $230 $329 forward $424 $-1 #
edge $-1 $331 -7.6358400379613967 $326 7.6358400379613967 $328 $429 forward 7 unknown #
coedge $-1 $430 $231 $428 $431 forward $239 $-1 #
vertex $-1 $431 $432 #
straight-curve $-1 -59.889872278668804 13.852203501925977 -7.6358400379613967 0 1 0 I I #
point $-1 -59.889872278668804 23.292729171634665 7.6358400379613967 #
point $-1 -59.889872278668804 23.292729171634665 -7.6358400379613967 #
coedge $-1 $433 $236 $416 $434 forward $78 $-1 #
coedge $-1 $238 $435 $417 $436 forward $239 $-1 #
face $-1 $437 $239 $17 $-1 $438 reversed single #
coedge $-1 $417 $416 $241 $339 reversed $226 $-1 #
edge $-1 $340 -7.6358400379613967 $342 7.6358400379613967 $241 $439 forward 7 unknown #
vertex $-1 $242 $440 #
straight-curve $-1 -64.044923245948667 0 -7.6358400379613967 0 1 0 I I #
vertex $-1 $339 $441 #
straight-curve $-1 -64.044923245948667 0 7.6358400379613967 0 -1 0 I I #
loop $-1 $-1 $442 $246 #
plane-surface $-1 -59.889872278668804 27.704407003851955 0 -1 0 0 0 0 1 forward_v I I I I #
coedge $-1 $443 $444 $445 $446 reversed $247 $-1 #
coedge $-1 $447 $249 $448 $449 reversed $153 $-1 #
coedge $-1 $249 $447 $261 $360 reversed $153 $-1 #
edge $-1 $259 -4.9041080089348235 $450 0.23181747123498397 $249 $451 forward 7 unknown #
coedge $-1 $452 $355 $250 $351 forward $453 $-1 #
edge $-1 $357 -50.778088163953541 $353 -45.212933718069628 $350 $454 forward 7 unknown #
coedge $-1 $252 $455 $452 $456 forward $164 $-1 #
vertex $-1 $351 $457 #
straight-curve $-1 -69.66712347208076 -16.084955701686528 7.635840037961394 1 0 0 I I #
coedge $-1 $350 $448 $254 $356 forward $453 $-1 #
edge $-1 $450 -13.448307953304372 $357 -6.2405344833562282 $355 $458 forward 7 unknown #
vertex $-1 $356 $459 #
straight-curve $-1 -64.044923245948667 -16.084955701686528 2.0706855920774814 0.80901698891910034 0 0.5877852598018023 I I #
point $-1 -56.385145431518787 -16.084955701686528 7.6358400379613967 #
edge $-1 $259 -5.0895068847617884 $460 7.6358400379613967 $261 $264 forward 7 unknown #
point $-1 -59.889872278668804 -23.292729171634669 5.0895068847617884 #
coedge $-1 $363 $261 $461 $462 reversed $263 $-1 #
coedge $-1 $262 $362 $463 $464 reversed $263 $-1 #
face $-1 $465 $263 $18 $-1 $466 forward single #
coedge $-1 $467 $265 $468 $469 forward $164 $-1 #
coedge $-1 $463 $470 $265 $367 reversed $471 $-1 #
edge $-1 $368 -59.889872278668804 $472 64.044923245948667 $366 $473 forward 7 unknown #
vertex $-1 $367 $474 #
straight-curve $-1 -59.889872278668804 -13.852203501925979 7.6358400379613967 0 -1 0 I I #
face $-1 $364 $453 $18 $-1 $475 reversed single #
plane-surface $-1 0 0 7.6358400379613967 0 0 1 1 0 0 forward_v I I I I #
face $-1 $476 $477 $19 $-1 $478 forward single #
loop $-1 $-1 $479 $270 #
plane-surface $-1 -61.967397762308735 -23.292729171634669 0 0 -1 0 0 0 -1 forward_v I I I I #
coedge $-1 $480 $481 $482 $483 reversed $271 $-1 #
coedge $-1 $484 $377 $382 $485 reversed $273 $-1 #
coedge $-1 $376 $486 $274 $378 reversed $273 $-1 #
edge $-1 $384 -9.4680061350304214 $487 -5.1359254801698073 $274 $488 forward 7 unknown #
coedge $-1 $489 $490 $275 $380 forward $491 $-1 #
edge $-1 $385 -7.6358400379613967 $487 -5.0895068847617884 $379 $492 forward 7 unknown #
coedge $-1 $493 $276 $490 $494 forward $383 $-1 #
coedge $-1 $276 $482 $376 $485 forward $383 $-1 #
loop $-1 $-1 $276 $495 #
vertex $-1 $485 $496 #
vertex $-1 $277 $497 #
straight-curve $-1 -69.66712347208076 -23.292729171634672 7.635840037961394 -1 0 0 I I #
vertex $-1 $278 $498 #
point $-1 -56.703716409630658 -19.6888424366606 2.5723007871647483 #
straight-curve $-1 -64.044923245948667 32.116084836069248 0 0 0 -1 I I #
point $-1 -64.044923245948667 -32.116084836069248 -7.6358400379613967 #
straight-curve $-1 -64.044923245948667 0 -7.6358400379613967 0 1 0 I I #
point $-1 -64.044923245948667 32.116084836069248 -7.6358400379613967 #
face $-1 $-1 $499 $16 $-1 $500 reversed single #
loop $-1 $-1 $501 $298 #
plane-surface $-1 0 32.116084836069248 0 0 -1 0 0 0 -1 forward_v I I I I #
coedge $-1 $302 $301 $502 $503 forward $70 $-1 #
coedge $-1 $501 $504 $302 $398 reversed $394 $-1 #
edge $-1 $505 -64.044923245948667 $400 64.044923245948667 $397 $506 forward 7 unknown #
coedge $-1 $313 $303 $504 $507 forward $299 $-1 #
vertex $-1 $398 $508 #
straight-curve $-1 -64.044923245948667 0 7.6358400379613967 0 -1 0 I I #
coedge $-1 $306 $316 $509 $510 forward $204 $-1 #
coedge $-1 $509 $502 $308 $404 forward $499 $-1 #
edge $-1 $407 -7.6358400379613967 $405 7.6358400379613967 $403 $511 forward 7 unknown #
vertex $-1 $404 $512 #
straight-curve $-1 0 -32.116084836069248 -7.6358400379613967 -1 0 0 I I #
vertex $-1 $503 $513 #
straight-curve $-1 0 -32.116084836069248 7.6358400379613967 1 0 0 I I #
coedge $-1 $504 $501 $316 $410 reversed $394 $-1 #
edge $-1 $411 -64.044923245948667 $514 64.044923245948667 $409 $515 forward 7 unknown #
vertex $-1 $410 $516 #
straight-curve $-1 -64.044923245948667 0 -7.6358400379613967 0 1 0 I I #
loop $-1 $-1 $517 $319 #
plane-surface $-1 0 -32.116084836069248 0 0 1 0 0 0 1 forward_v I I I I #
coedge $-1 $518 $519 $517 $520 reversed $320 $-1 #
coedge $-1 $338 $322 $335 $434 reversed $226 $-1 #
coedge $-1 $322 $338 $336 $436 reversed $226 $-1 #
coedge $-1 $519 $518 $322 $419 forward $320 $-1 #
edge $-1 $521 -7.6358400379613967 $522 7.6358400379613967 $418 $523 forward 7 unknown #
coedge $-1 $323 $433 $524 $525 forward $78 $-1 #
coedge $-1 $526 $527 $323 $422 reversed $528 $-1 #
edge $-1 $529 -32.116084836069248 $425 32.116084836069248 $421 $530 forward 7 unknown #
coedge $-1 $428 $324 $527 $531 forward $424 $-1 #
loop $-1 $-1 $328 $437 #
vertex $-1 $422 $532 #
straight-curve $-1 0 32.116084836069248 7.6358400379613967 -1 0 0 I I #
point $-1 -59.889872278668804 32.116084836069248 7.6358400379613967 #
coedge $-1 $328 $423 $330 $431 reversed $424 $-1 #
straight-curve $-1 -59.889872278668804 32.116084836069248 0 0 0 1 I I #
coedge $-1 $533 $330 $534 $535 forward $239 $-1 #
edge $-1 $331 -59.889872278668804 $536 64.044923245948667 $428 $537 forward 7 unknown #
point $-1 -59.889872278668804 32.116084836069248 -7.6358400379613967 #
coedge $-1 $420 $335 $518 $538 forward $78 $-1 #
edge $-1 $342 -33.061224364794299 $521 -28.906173397514436 $335 $539 forward 7 unknown #
coedge $-1 $336 $533 $519 $540 forward $239 $-1 #
edge $-1 $522 28.906173397514436 $340 33.061224364794299 $336 $541 forward 7 unknown #
face $-1 $542 $424 $17 $-1 $543 reversed single #
plane-surface $-1 0 0 -7.6358400379613967 0 0 1 1 0 0 forward_v I I I I #
straight-curve $-1 -64.044923245948667 -23.292729171634669 0 0 0 1 I I #
point $-1 -64.044923245948667 -23.292729171634669 -7.6358400379613967 #
point $-1 -64.044923245948667 -23.292729171634669 7.6358400379613967 #
coedge $-1 $544 $545 $546 $547 reversed $344 $-1 #
coedge $-1 $546 $346 $455 $548 reversed $247 $-1 #
coedge $-1 $346 $546 $549 $550 reversed $247 $-1 #
coedge $-1 $551 $452 $346 $446 forward $453 $-1 #
edge $-1 $552 -7.6358400379613967 $553 7.6358400379613967 $445 $554 forward 7 unknown #
coedge $-1 $348 $347 $555 $556 reversed $153 $-1 #
coedge $-1 $355 $551 $347 $449 forward $453 $-1 #
edge $-1 $557 -7.6358400379613967 $450 2.0706855920774814 $448 $558 forward 7 unknown #
vertex $-1 $356 $559 #
straight-curve $-1 -63.857378973391299 -23.292729171634669 2.2069444846339321 -0.80901698891910034 0 -0.5877852598018023 I I #
coedge $-1 $445 $350 $352 $456 reversed $453 $-1 #
loop $-1 $-1 $350 $370 #
straight-curve $-1 -64.044923245948667 -16.084955701686528 52.848773756031022 0 0 1 I I #
coedge $-1 $352 $560 $443 $548 forward $164 $-1 #
edge $-1 $552 -23.292729171634665 $353 16.084955701686528 $452 $561 forward 7 unknown #
point $-1 -64.044923245948667 -16.084955701686528 7.6358400379613967 #
straight-curve $-1 -64.044923245948667 -9.8444212183303001 2.0706855920774827 0 1 0 I I #
point $-1 -64.044923245948667 -16.084955701686528 2.0706855920774814 #
vertex $-1 $556 $562 #
coedge $-1 $555 $563 $362 $462 forward $564 $-1 #
edge $-1 $565 -18.263881334143271 $460 -9.4405256697086894 $461 $566 forward 7 unknown #
coedge $-1 $567 $366 $363 $464 forward $471 $-1 #
edge $-1 $368 -7.6358400379613967 $565 7.6358400379613967 $463 $568 forward 7 unknown #
face $-1 $569 $471 $18 $-1 $570 reversed single #
plane-surface $-1 -59.889872278668804 -27.704407003851959 0 -1 0 0 0 0 1 forward_v I I I I #
coedge $-1 $560 $365 $571 $572 forward $164 $-1 #
coedge $-1 $573 $574 $365 $469 reversed $575 $-1 #
edge $-1 $472 -32.116084836069248 $576 32.116084836069248 $468 $577 forward 7 unknown #
coedge $-1 $366 $567 $573 $578 reversed $471 $-1 #
loop $-1 $-1 $463 $465 #
vertex $-1 $469 $579 #
straight-curve $-1 0 -32.116084836069248 7.6358400379613967 1 0 0 I I #
point $-1 -59.889872278668804 -32.116084836069248 7.6358400379613967 #
plane-surface $-1 -64.044923245948667 0 0 1 0 0 0 0 -1 forward_v I I I I #
face $-1 $495 $580 $19 $-1 $581 forward single #
loop $-1 $-1 $582 $372 #
plane-surface $-1 -61.967397762308735 23.292729171634665 0 0 1 0 0 0 1 forward_v I I I I #
coedge $-1 $583 $584 $486 $585 forward $373 $-1 #
coedge $-1 $481 $375 $586 $587 reversed $271 $-1 #
coedge $-1 $375 $480 $484 $588 forward $271 $-1 #
coedge $-1 $382 $589 $375 $483 forward $383 $-1 #
edge $-1 $590 5.6222002261320938 $591 13.281978040561974 $482 $592 forward 7 unknown #
coedge $-1 $593 $376 $481 $588 reversed $273 $-1 #
edge $-1 $591 6.2405344833562282 $384 13.448307953304372 $382 $594 forward 7 unknown #
coedge $-1 $377 $593 $479 $585 reversed $273 $-1 #
vertex $-1 $595 $596 #
straight-curve $-1 -64.044923245948667 -23.292729171634672 2.0706855920774814 -0.80901698891910034 0 -0.5877852598018023 I I #
coedge $-1 $597 $379 $584 $595 forward $491 $-1 #
coedge $-1 $379 $598 $381 $494 reversed $491 $-1 #
loop $-1 $-1 $598 $599 #
straight-curve $-1 -59.889872278668804 -23.292729171634669 0 0 0 -1 I I #
coedge $-1 $600 $381 $601 $602 forward $383 $-1 #
edge $-1 $385 9.4405256697086894 $603 18.263881334143271 $381 $604 forward 7 unknown #
face $-1 $605 $383 $19 $-1 $606 forward single #
point $-1 -56.385145431518787 -23.292729171634672 7.6358400379613967 #
point $-1 -59.889872278668804 -23.292729171634669 7.6358400379613967 #
point $-1 -57.035564003306604 -19.6888424366606 0.47709741408339434 #
loop $-1 $-1 $403 $393 #
plane-surface $-1 64.044923245948667 0 0 -1 0 0 0 0 1 forward_v I I I I #
coedge $-1 $409 $397 $607 $608 forward $394 $-1 #
coedge $-1 $403 $607 $396 $503 reversed $499 $-1 #
edge $-1 $407 -32.116084836069248 $505 32.116084836069248 $502 $609 forward 7 unknown #
coedge $-1 $397 $409 $399 $507 reversed $394 $-1 #
vertex $-1 $503 $610 #
straight-curve $-1 0 32.116084836069248 7.6358400379613967 -1 0 0 I I #
edge $-1 $400 -7.6358400379613967 $411 7.6358400379613967 $504 $611 forward 7 unknown #
point $-1 -64.044923245948667 32.116084836069248 7.6358400379613967 #
coedge $-1 $607 $403 $402 $510 reversed $499 $-1 #
edge $-1 $514 -32.116084836069248 $405 32.116084836069248 $509 $612 forward 7 unknown #
straight-curve $-1 64.044923245948667 -32.116084836069248 0 0 0 -1 I I #
point $-1 64.044923245948667 -32.116084836069248 -7.6358400379613967 #
point $-1 64.044923245948667 -32.116084836069248 7.6358400379613967 #
vertex $-1 $510 $613 #
straight-curve $-1 0 32.116084836069248 -7.6358400379613967 1 0 0 I I #
point $-1 -64.044923245948667 32.116084836069248 -7.6358400379613967 #
coedge $-1 $614 $524 $415 $520 forward $413 $-1 #
coedge $-1 $418 $415 $433 $538 reversed $320 $-1 #
coedge $-1 $415 $418 $435 $540 reversed $320 $-1 #
edge $-1 $615 -7.6358400379613967 $616 7.6358400379613967 $517 $617 forward 7 unknown #
vertex $-1 $434 $618 #
vertex $-1 $436 $619 #
straight-curve $-1 -59.889872278668804 -23.292729171634669 0 0 0 -1 I I #
coedge $-1 $517 $620 $420 $525 reversed $413 $-1 #
edge $-1 $615 -59.889872278668804 $529 64.044923245948667 $524 $621 forward 7 unknown #
coedge $-1 $534 $421 $620 $622 forward $528 $-1 #
coedge $-1 $421 $534 $423 $531 reversed $528 $-1 #
loop $-1 $-1 $526 $542 #
vertex $-1 $422 $623 #
straight-curve $-1 64.044923245948667 0 7.6358400379613967 0 1 0 I I #
edge $-1 $425 -7.6358400379613967 $536 7.6358400379613967 $527 $624 forward 7 unknown #
point $-1 64.044923245948667 32.116084836069248 7.6358400379613967 #
coedge $-1 $435 $430 $614 $625 forward $239 $-1 #
coedge $-1 $527 $526 $430 $535 reversed $528 $-1 #
edge $-1 $536 -32.116084836069248 $626 32.116084836069248 $534 $627 forward 7 unknown #
vertex $-1 $535 $628 #
straight-curve $-1 0 32.116084836069248 -7.6358400379613967 1 0 0 I I #
edge $-1 $521 9.4405256697086894 $615 18.263881334143271 $433 $629 forward 7 unknown #
straight-curve $-1 -30.983698881154368 -23.292729171634669 7.6358400379613967 1 0 0 I I #
edge $-1 $616 -18.263881334143271 $522 -9.4405256697086894 $435 $630 forward 7 unknown #
straight-curve $-1 -30.983698881154368 -23.292729171634669 -7.6358400379613967 -1 0 0 I I #
face $-1 $-1 $528 $17 $-1 $631 reversed single #
plane-surface $-1 0 32.116084836069248 0 0 -1 0 0 0 -1 forward_v I I I I #
coedge $-1 $632 $442 $560 $633 reversed $344 $-1 #
coedge $-1 $442 $632 $634 $635 reversed $344 $-1 #
coedge $-1 $444 $443 $442 $547 forward $247 $-1 #
edge $-1 $636 -7.6358400379613967 $637 7.6358400379613967 $442 $638 forward 7 unknown #
edge $-1 $636 28.906173397514436 $552 33.061224364794299 $455 $639 forward 7 unknown #
coedge $-1 $634 $640 $444 $550 forward $564 $-1 #
edge $-1 $553 -33.061224364794299 $637 -28.906173397514436 $549 $641 forward 7 unknown #
coedge $-1 $448 $445 $640 $642 reversed $453 $-1 #
vertex $-1 $456 $643 #
vertex $-1 $446 $644 #
straight-curve $-1 -64.044923245948667 23.292729171634665 0 0 0 -1 I I #
coedge $-1 $640 $461 $447 $556 forward $564 $-1 #
edge $-1 $460 28.906173397514436 $557 33.061224364794299 $555 $645 forward 7 unknown #
vertex $-1 $642 $646 #
straight-curve $-1 -64.044923245948667 -23.292729171634669 0 0 0 1 I I #
point $-1 -64.044923245948667 -23.292729171634672 2.0706855920774814 #
coedge $-1 $455 $467 $544 $633 forward $164 $-1 #
straight-curve $-1 -64.044923245948667 0 7.6358400379613967 0 -1 0 I I #
point $-1 -59.889872278668804 -23.292729171634669 -7.6358400379613967 #
coedge $-1 $461 $647 $567 $648 forward $564 $-1 #
loop $-1 $-1 $634 $569 #
vertex $-1 $464 $649 #
straight-curve $-1 -59.889872278668804 -13.852203501925979 -7.6358400379613967 0 1 0 I I #
coedge $-1 $470 $463 $563 $648 reversed $471 $-1 #
straight-curve $-1 -59.889872278668804 -32.116084836069248 0 0 0 -1 I I #
face $-1 $650 $564 $18 $-1 $651 reversed single #
plane-surface $-1 0 -32.116084836069248 0 0 1 0 0 0 1 forward_v I I I I #
coedge $-1 $652 $653 $467 $572 reversed $654 $-1 #
edge $-1 $576 -64.044923245948667 $655 59.889872278668804 $571 $656 forward 7 unknown #
coedge $-1 $657 $468 $470 $578 forward $575 $-1 #
coedge $-1 $468 $657 $652 $658 reversed $575 $-1 #
loop $-1 $-1 $573 $659 #
vertex $-1 $469 $660 #
straight-curve $-1 64.044923245948667 0 7.6358400379613967 0 1 0 I I #
edge $-1 $472 -7.6358400379613967 $661 7.6358400379613967 $573 $662 forward 7 unknown #
point $-1 64.044923245948667 -32.116084836069248 7.6358400379613967 #
loop $-1 $-1 $663 $476 #
plane-surface $-1 -59.889872278668804 27.704407003851955 0 -1 0 0 0 0 1 forward_v I I I I #
coedge $-1 $664 $665 $666 $667 reversed $477 $-1 #
coedge $-1 $668 $479 $669 $670 reversed $373 $-1 #
coedge $-1 $479 $668 $489 $595 reversed $373 $-1 #
edge $-1 $487 -4.9041080089348235 $671 0.23181747123498397 $479 $672 forward 7 unknown #
coedge $-1 $673 $674 $480 $587 forward $675 $-1 #
edge $-1 $676 -50.778088163953541 $590 -45.212933718069628 $586 $677 forward 7 unknown #
edge $-1 $676 0 $591 9.4680061350304214 $481 $678 forward 7 unknown #
coedge $-1 $482 $679 $673 $680 forward $383 $-1 #
vertex $-1 $587 $681 #
vertex $-1 $485 $682 #
straight-curve $-1 -69.66712347208076 -16.084955701686528 7.635840037961394 1 0 0 I I #
coedge $-1 $486 $484 $674 $683 reversed $273 $-1 #
straight-curve $-1 -56.385145431518794 -9.8444212183303001 7.6358400379613975 0 -1 0 I I #
edge $-1 $487 -5.0895068847617884 $684 7.6358400379613967 $489 $492 forward 7 unknown #
point $-1 -59.889872278668804 -23.292729171634669 5.0895068847617884 #
coedge $-1 $598 $489 $685 $686 reversed $491 $-1 #
coedge $-1 $490 $597 $687 $688 reversed $491 $-1 #
face $-1 $689 $491 $19 $-1 $690 forward single #
coedge $-1 $691 $493 $692 $693 forward $383 $-1 #
coedge $-1 $687 $694 $493 $602 reversed $695 $-1 #
edge $-1 $603 -59.889872278668804 $696 64.044923245948667 $601 $697 forward 7 unknown #
vertex $-1 $602 $698 #
straight-curve $-1 -59.889872278668804 -13.852203501925979 7.6358400379613967 0 -1 0 I I #
face $-1 $599 $675 $19 $-1 $699 reversed single #
plane-surface $-1 0 0 7.6358400379613967 0 0 1 1 0 0 forward_v I I I I #
coedge $-1 $502 $509 $501 $608 reversed $499 $-1 #
edge $-1 $505 -7.6358400379613967 $514 7.6358400379613967 $607 $700 forward 7 unknown #
straight-curve $-1 64.044923245948667 0 7.6358400379613967 0 1 0 I I #
point $-1 64.044923245948667 32.116084836069248 7.6358400379613967 #
straight-curve $-1 -64.044923245948667 32.116084836069248 0 0 0 -1 I I #
straight-curve $-1 64.044923245948667 0 -7.6358400379613967 0 -1 0 I I #
point $-1 64.044923245948667 32.116084836069248 -7.6358400379613967 #
coedge $-1 $620 $517 $533 $625 reversed $413 $-1 #
vertex $-1 $525 $701 #
vertex $-1 $520 $702 #
straight-curve $-1 -59.889872278668804 -32.116084836069248 0 0 0 -1 I I #
point $-1 -59.889872278668804 -23.292729171634669 7.6358400379613967 #
point $-1 -59.889872278668804 -23.292729171634669 -7.6358400379613967 #
coedge $-1 $524 $614 $526 $622 reversed $413 $-1 #
straight-curve $-1 0 -32.116084836069248 7.6358400379613967 1 0 0 I I #
edge $-1 $529 -7.6358400379613967 $626 7.6358400379613967 $526 $703 forward 7 unknown #
point $-1 64.044923245948667 -32.116084836069248 7.6358400379613967 #
straight-curve $-1 64.044923245948667 32.116084836069248 0 0 0 -1 I I #
edge $-1 $626 -64.044923245948667 $616 59.889872278668804 $614 $704 forward 7 unknown #
vertex $-1 $622 $705 #
straight-curve $-1 64.044923245948667 0 -7.6358400379613967 0 -1 0 I I #
point $-1 64.044923245948667 32.116084836069248 -7.6358400379613967 #
straight-curve $-1 -59.889872278668804 -13.852203501925979 7.6358400379613967 0 -1 0 I I #
straight-curve $-1 -59.889872278668804 -13.852203501925979 -7.6358400379613967 0 1 0 I I #
plane-surface $-1 64.044923245948667 0 0 -1 0 0 0 0 1 forward_v I I I I #
coedge $-1 $545 $544 $653 $706 reversed $344 $-1 #
edge $-1 $655 -18.263881334143271 $636 -9.4405256697086877 $560 $707 forward 7 unknown #
coedge $-1 $708 $549 $545 $635 forward $564 $-1 #
edge $-1 $637 9.4405256697086877 $709 18.263881334143271 $634 $710 forward 7 unknown #
vertex $-1 $548 $711 #
vertex $-1 $550 $712 #
straight-curve $-1 -59.889872278668804 23.292729171634665 0 0 0 -1 I I #
straight-curve $-1 -30.983698881154368 23.292729171634665 7.6358400379613967 -1 0 0 I I #
coedge $-1 $549 $555 $551 $642 forward $564 $-1 #
straight-curve $-1 -30.983698881154368 23.292729171634665 -7.6358400379613967 1 0 0 I I #
edge $-1 $557 -23.292729171634669 $553 23.292729171634665 $551 $713 forward 7 unknown #
point $-1 -64.044923245948667 23.292729171634665 7.6358400379613967 #
point $-1 -64.044923245948667 23.292729171634665 -7.6358400379613967 #
straight-curve $-1 -30.983698881154368 -23.292729171634669 -7.6358400379613967 -1 0 0 I I #
point $-1 -64.044923245948667 -23.292729171634669 -7.6358400379613967 #
coedge $-1 $563 $708 $657 $714 forward $564 $-1 #
edge $-1 $661 -64.044923245948667 $565 59.889872278668804 $567 $715 forward 7 unknown #
point $-1 -59.889872278668804 -32.116084836069248 -7.6358400379613967 #
face $-1 $659 $654 $18 $-1 $716 reversed single #
plane-surface $-1 0 0 -7.6358400379613967 0 0 1 1 0 0 forward_v I I I I #
coedge $-1 $717 $571 $574 $658 forward $654 $-1 #
coedge $-1 $571 $717 $632 $706 forward $654 $-1 #
loop $-1 $-1 $653 $650 #
vertex $-1 $706 $718 #
straight-curve $-1 0 32.116084836069248 7.6358400379613967 -1 0 0 I I #
coedge $-1 $574 $573 $647 $714 reversed $575 $-1 #
edge $-1 $576 -7.6358400379613967 $719 7.6358400379613967 $574 $720 forward 7 unknown #
face $-1 $-1 $575 $18 $-1 $721 reversed single #
point $-1 64.044923245948667 32.116084836069248 7.6358400379613967 #
vertex $-1 $578 $722 #
straight-curve $-1 64.044923245948667 -32.116084836069248 0 0 0 -1 I I #
coedge $-1 $723 $724 $725 $726 reversed $580 $-1 #
coedge $-1 $725 $582 $679 $727 reversed $477 $-1 #
coedge $-1 $582 $725 $728 $729 reversed $477 $-1 #
coedge $-1 $730 $673 $582 $667 forward $675 $-1 #
edge $-1 $731 -7.6358400379613967 $732 7.6358400379613967 $666 $733 forward 7 unknown #
coedge $-1 $584 $583 $734 $735 reversed $373 $-1 #
coedge $-1 $674 $730 $583 $670 forward $675 $-1 #
edge $-1 $736 -7.6358400379613967 $671 2.0706855920774814 $669 $737 forward 7 unknown #
vertex $-1 $683 $738 #
straight-curve $-1 -63.857378973391299 -23.292729171634669 2.2069444846339321 -0.80901698891910034 0 -0.5877852598018023 I I #
coedge $-1 $666 $586 $589 $680 reversed $675 $-1 #
coedge $-1 $586 $669 $593 $683 forward $675 $-1 #
loop $-1 $-1 $586 $605 #
vertex $-1 $683 $739 #
straight-curve $-1 -64.044923245948667 -16.084955701686528 52.848773756031022 0 0 1 I I #
straight-curve $-1 -64.044923245948667 -16.084955701686528 2.0706855920774814 0.80901698891910034 0 0.5877852598018023 I I #
coedge $-1 $589 $740 $664 $727 forward $383 $-1 #
edge $-1 $731 -23.292729171634665 $590 16.084955701686528 $673 $741 forward 7 unknown #
point $-1 -64.044923245948667 -16.084955701686528 7.6358400379613967 #
point $-1 -56.385145431518787 -16.084955701686528 7.6358400379613967 #
edge $-1 $671 -13.448307953304372 $676 -6.2405344833562282 $674 $742 forward 7 unknown #
vertex $-1 $735 $743 #
coedge $-1 $734 $744 $597 $686 forward $745 $-1 #
edge $-1 $746 -18.263881334143271 $684 -9.4405256697086894 $685 $747 forward 7 unknown #
coedge $-1 $748 $601 $598 $688 forward $695 $-1 #
edge $-1 $603 -7.6358400379613967 $746 7.6358400379613967 $687 $749 forward 7 unknown #
face $-1 $750 $695 $19 $-1 $751 reversed single #
plane-surface $-1 -59.889872278668804 -27.704407003851959 0 -1 0 0 0 0 1 forward_v I I I I #
coedge $-1 $740 $600 $752 $753 forward $383 $-1 #
coedge $-1 $754 $755 $600 $693 reversed $756 $-1 #
edge $-1 $696 -32.116084836069248 $757 32.116084836069248 $692 $758 forward 7 unknown #
coedge $-1 $601 $748 $754 $759 reversed $695 $-1 #
loop $-1 $-1 $687 $689 #
vertex $-1 $693 $760 #
straight-curve $-1 0 -32.116084836069248 7.6358400379613967 1 0 0 I I #
point $-1 -59.889872278668804 -32.116084836069248 7.6358400379613967 #
plane-surface $-1 -64.044923245948667 0 0 1 0 0 0 0 -1 forward_v I I I I #
straight-curve $-1 64.044923245948667 32.116084836069248 0 0 0 -1 I I #
point $-1 -59.889872278668804 -32.116084836069248 7.6358400379613967 #
point $-1 -59.889872278668804 -32.116084836069248 -7.6358400379613967 #
straight-curve $-1 64.044923245948667 -32.116084836069248 0 0 0 -1 I I #
straight-curve $-1 0 -32.116084836069248 -7.6358400379613967 -1 0 0 I I #
point $-1 64.044923245948667 -32.116084836069248 -7.6358400379613967 #
edge $-1 $709 -7.6358400379613967 $655 7.6358400379613967 $653 $761 forward 7 unknown #
straight-curve $-1 -59.889872278668804 13.852203501925977 7.6358400379613967 0 -1 0 I I #
coedge $-1 $647 $634 $717 $762 forward $564 $-1 #
vertex $-1 $762 $763 #
straight-curve $-1 -59.889872278668804 13.852203501925977 -7.6358400379613967 0 1 0 I I #
point $-1 -59.889872278668804 23.292729171634665 7.6358400379613967 #
point $-1 -59.889872278668804 23.292729171634665 -7.6358400379613967 #
straight-curve $-1 -64.044923245948667 0 -7.6358400379613967 0 1 0 I I #
edge $-1 $719 -32.116084836069248 $661 32.116084836069248 $657 $764 forward 7 unknown #
straight-curve $-1 0 -32.116084836069248 -7.6358400379613967 -1 0 0 I I #
plane-surface $-1 0 32.116084836069248 0 0 -1 0 0 0 -1 forward_v I I I I #
coedge $-1 $653 $652 $708 $762 reversed $654 $-1 #
point $-1 -59.889872278668804 32.116084836069248 7.6358400379613967 #
vertex $-1 $714 $765 #
straight-curve $-1 64.044923245948667 32.116084836069248 0 0 0 -1 I I #
plane-surface $-1 64.044923245948667 0 0 -1 0 0 0 0 1 forward_v I I I I #
point $-1 64.044923245948667 -32.116084836069248 -7.6358400379613967 #
coedge $-1 $766 $663 $740 $767 reversed $580 $-1 #
coedge $-1 $663 $766 $768 $769 reversed $580 $-1 #
coedge $-1 $665 $664 $663 $726 forward $477 $-1 #
edge $-1 $770 -7.6358400379613967 $771 7.6358400379613967 $663 $772 forward 7 unknown #
edge $-1 $770 28.906173397514436 $731 33.061224364794299 $679 $773 forward 7 unknown #
coedge $-1 $768 $774 $665 $729 forward $745 $-1 #
edge $-1 $732 -33.061224364794299 $771 -28.906173397514436 $728 $775 forward 7 unknown #
coedge $-1 $669 $666 $774 $776 reversed $675 $-1 #
vertex $-1 $680 $777 #
vertex $-1 $667 $778 #
straight-curve $-1 -64.044923245948667 23.292729171634665 0 0 0 -1 I I #
coedge $-1 $774 $685 $668 $735 forward $745 $-1 #
edge $-1 $684 28.906173397514436 $736 33.061224364794299 $734 $779 forward 7 unknown #
vertex $-1 $776 $780 #
straight-curve $-1 -64.044923245948667 -23.292729171634669 0 0 0 1 I I #
point $-1 -64.044923245948667 -23.292729171634672 2.0706855920774814 #
point $-1 -64.044923245948667 -16.084955701686528 2.0706855920774814 #
coedge $-1 $679 $691 $723 $767 forward $383 $-1 #
straight-curve $-1 -64.044923245948667 0 7.6358400379613967 0 -1 0 I I #
straight-curve $-1 -64.044923245948667 -9.8444212183303001 2.0706855920774827 0 1 0 I I #
point $-1 -59.889872278668804 -23.292729171634669 -7.6358400379613967 #
coedge $-1 $685 $781 $748 $782 forward $745 $-1 #
loop $-1 $-1 $768 $750 #
vertex $-1 $688 $783 #
straight-curve $-1 -59.889872278668804 -13.852203501925979 -7.6358400379613967 0 1 0 I I #
coedge $-1 $694 $687 $744 $782 reversed $695 $-1 #
straight-curve $-1 -59.889872278668804 -32.116084836069248 0 0 0 -1 I I #
face $-1 $784 $745 $19 $-1 $785 reversed single #
plane-surface $-1 0 -32.116084836069248 0 0 1 0 0 0 1 forward_v I I I I #
coedge $-1 $786 $787 $691 $753 reversed $788 $-1 #
edge $-1 $757 -64.044923245948667 $789 59.889872278668804 $752 $790 forward 7 unknown #
coedge $-1 $791 $692 $694 $759 forward $756 $-1 #
coedge $-1 $692 $791 $786 $792 reversed $756 $-1 #
loop $-1 $-1 $754 $793 #
vertex $-1 $693 $794 #
straight-curve $-1 64.044923245948667 0 7.6358400379613967 0 1 0 I I #
edge $-1 $696 -7.6358400379613967 $795 7.6358400379613967 $754 $796 forward 7 unknown #
point $-1 64.044923245948667 -32.116084836069248 7.6358400379613967 #
straight-curve $-1 -59.889872278668804 32.116084836069248 0 0 0 1 I I #
edge $-1 $709 -59.889872278668804 $719 64.044923245948667 $717 $797 forward 7 unknown #
point $-1 -59.889872278668804 32.116084836069248 -7.6358400379613967 #
straight-curve $-1 64.044923245948667 0 -7.6358400379613967 0 -1 0 I I #
point $-1 64.044923245948667 32.116084836069248 -7.6358400379613967 #
coedge $-1 $724 $723 $787 $798 reversed $580 $-1 #
edge $-1 $789 -18.263881334143271 $770 -9.4405256697086877 $740 $799 forward 7 unknown #
coedge $-1 $800 $728 $724 $769 forward $745 $-1 #
edge $-1 $771 9.4405256697086877 $801 18.263881334143271 $768 $802 forward 7 unknown #
vertex $-1 $727 $803 #
vertex $-1 $729 $804 #
straight-curve $-1 -59.889872278668804 23.292729171634665 0 0 0 -1 I I #
straight-curve $-1 -30.983698881154368 23.292729171634665 7.6358400379613967 -1 0 0 I I #
coedge $-1 $728 $734 $730 $776 forward $745 $-1 #
straight-curve $-1 -30.983698881154368 23.292729171634665 -7.6358400379613967 1 0 0 I I #
edge $-1 $736 -23.292729171634669 $732 23.292729171634665 $730 $805 forward 7 unknown #
point $-1 -64.044923245948667 23.292729171634665 7.6358400379613967 #
point $-1 -64.044923245948667 23.292729171634665 -7.6358400379613967 #
straight-curve $-1 -30.983698881154368 -23.292729171634669 -7.6358400379613967 -1 0 0 I I #
point $-1 -64.044923245948667 -23.292729171634669 -7.6358400379613967 #
coedge $-1 $744 $800 $791 $806 forward $745 $-1 #
edge $-1 $795 -64.044923245948667 $746 59.889872278668804 $748 $807 forward 7 unknown #
point $-1 -59.889872278668804 -32.116084836069248 -7.6358400379613967 #
face $-1 $793 $788 $19 $-1 $808 reversed single #
plane-surface $-1 0 0 -7.6358400379613967 0 0 1 1 0 0 forward_v I I I I #
coedge $-1 $809 $752 $755 $792 forward $788 $-1 #
coedge $-1 $752 $809 $766 $798 forward $788 $-1 #
loop $-1 $-1 $787 $784 #
vertex $-1 $798 $810 #
straight-curve $-1 0 32.116084836069248 7.6358400379613967 -1 0 0 I I #
coedge $-1 $755 $754 $781 $806 reversed $756 $-1 #
edge $-1 $757 -7.6358400379613967 $811 7.6358400379613967 $755 $812 forward 7 unknown #
face $-1 $-1 $756 $19 $-1 $813 reversed single #
point $-1 64.044923245948667 32.116084836069248 7.6358400379613967 #
vertex $-1 $759 $814 #
straight-curve $-1 64.044923245948667 -32.116084836069248 0 0 0 -1 I I #
straight-curve $-1 0 32.116084836069248 -7.6358400379613967 1 0 0 I I #
edge $-1 $801 -7.6358400379613967 $789 7.6358400379613967 $787 $815 forward 7 unknown #
straight-curve $-1 -59.889872278668804 13.852203501925977 7.6358400379613967 0 -1 0 I I #
coedge $-1 $781 $768 $809 $816 forward $745 $-1 #
vertex $-1 $816 $817 #
straight-curve $-1 -59.889872278668804 13.852203501925977 -7.6358400379613967 0 1 0 I I #
point $-1 -59.889872278668804 23.292729171634665 7.6358400379613967 #
point $-1 -59.889872278668804 23.292729171634665 -7.6358400379613967 #
straight-curve $-1 -64.044923245948667 0 -7.6358400379613967 0 1 0 I I #
edge $-1 $811 -32.116084836069248 $795 32.116084836069248 $791 $818 forward 7 unknown #
straight-curve $-1 0 -32.116084836069248 -7.6358400379613967 -1 0 0 I I #
plane-surface $-1 0 32.116084836069248 0 0 -1 0 0 0 -1 forward_v I I I I #
coedge $-1 $787 $786 $800 $816 reversed $788 $-1 #
point $-1 -59.889872278668804 32.116084836069248 7.6358400379613967 #
vertex $-1 $806 $819 #
straight-curve $-1 64.044923245948667 32.116084836069248 0 0 0 -1 I I #
plane-surface $-1 64.044923245948667 0 0 -1 0 0 0 0 1 forward_v I I I I #
point $-1 64.044923245948667 -32.116084836069248 -7.6358400379613967 #
straight-curve $-1 -59.889872278668804 32.116084836069248 0 0 0 1 I I #
edge $-1 $801 -59.889872278668804 $811 64.044923245948667 $809 $820 forward 7 unknown #
point $-1 -59.889872278668804 32.116084836069248 -7.6358400379613967 #
straight-curve $-1 64.044923245948667 0 -7.6358400379613967 0 -1 0 I I #
point $-1 64.044923245948667 32.116084836069248 -7.6358400379613967 #
straight-curve $-1 0 32.116084836069248 -7.6358400379613967 1 0 0 I I #
End-of-ACIS-data 