500 0 13 0           
7 Unknown 11 ACIS 5.0 NT 24 Fri Mar 26 19:32:05 1999 
-1 9.9999999999999995e-007 1e-010 
body $-1 $13 $-1 $14 #
body $-1 $15 $-1 $16 #
body $-1 $17 $-1 $18 #
body $-1 $19 $-1 $20 #
body $-1 $21 $-1 $22 #
body $-1 $23 $-1 $24 #
body $-1 $25 $-1 $26 #
body $-1 $27 $-1 $28 #
body $-1 $29 $-1 $30 #
body $-1 $31 $-1 $32 #
body $-1 $33 $-1 $34 #
body $-1 $35 $-1 $36 #
body $-1 $37 $-1 $38 #
lump $-1 $-1 $39 $0 #
transform $-1 1 0 0 0 1 0 0 0 1 57.640919217505413 31.196144334337621 12.091826238200685 1 rotate no_reflect no_shear #
lump $-1 $-1 $40 $1 #
transform $-1 1 0 0 0 1 0 0 0 1 57.640919217505413 31.196144334337621 12.091826238200685 1 rotate no_reflect no_shear #
lump $-1 $-1 $41 $2 #
transform $-1 1 0 0 0 1 0 0 0 1 57.640919217505413 31.196144334337621 12.091826238200685 1 rotate no_reflect no_shear #
lump $-1 $-1 $42 $3 #
transform $-1 1 0 0 0 1 0 0 0 1 57.640919217505413 31.196144334337621 12.091826238200685 1 rotate no_reflect no_shear #
lump $-1 $-1 $43 $4 #
transform $-1 1 0 0 0 1 0 0 0 1 57.640919217505413 31.196144334337621 12.091826238200685 1 rotate no_reflect no_shear #
lump $-1 $-1 $44 $5 #
transform $-1 1 0 0 0 1 0 0 0 1 57.640919217505413 31.196144334337621 12.091826238200685 1 rotate no_reflect no_shear #
lump $-1 $-1 $45 $6 #
transform $-1 1 0 0 0 1 0 0 0 1 57.640919217505413 31.196144334337621 12.091826238200685 1 rotate no_reflect no_shear #
lump $-1 $-1 $46 $7 #
transform $-1 1 0 0 0 1 0 0 0 1 57.640919217505413 31.196144334337621 12.091826238200685 1 rotate no_reflect no_shear #
lump $-1 $-1 $47 $8 #
transform $-1 1 0 0 0 1 0 0 0 1 57.640919217505413 31.196144334337621 12.091826238200685 1 rotate no_reflect no_shear #
lump $-1 $-1 $48 $9 #
transform $-1 1 0 0 0 1 0 0 0 1 57.640919217505413 31.196144334337621 12.091826238200685 1 rotate no_reflect no_shear #
lump $-1 $-1 $49 $10 #
transform $-1 1 0 0 0 1 0 0 0 1 57.640919217505413 31.196144334337621 12.091826238200685 1 rotate no_reflect no_shear #
lump $-1 $-1 $50 $11 #
transform $-1 1 0 0 0 1 0 0 0 1 57.640919217505413 31.196144334337621 12.091826238200685 1 rotate no_reflect no_shear #
lump $-1 $-1 $51 $12 #
transform $-1 1 0 0 0 1 0 0 0 1 57.640919217505413 31.196144334337621 12.091826238200685 1 rotate no_reflect no_shear #
shell $-1 $-1 $-1 $52 $-1 $13 #
shell $-1 $-1 $-1 $53 $-1 $15 #
shell $-1 $-1 $-1 $54 $-1 $17 #
shell $-1 $-1 $-1 $55 $-1 $19 #
shell $-1 $-1 $-1 $56 $-1 $21 #
shell $-1 $-1 $-1 $57 $-1 $23 #
shell $-1 $-1 $-1 $58 $-1 $25 #
shell $-1 $-1 $-1 $59 $-1 $27 #
shell $-1 $-1 $-1 $60 $-1 $29 #
shell $-1 $-1 $-1 $61 $-1 $31 #
shell $-1 $-1 $-1 $62 $-1 $33 #
shell $-1 $-1 $-1 $63 $-1 $35 #
shell $-1 $-1 $-1 $64 $-1 $37 #
face $-1 $65 $66 $39 $-1 $67 forward single #
face $-1 $68 $69 $40 $-1 $70 forward single #
face $-1 $71 $72 $41 $-1 $73 reversed single #
face $-1 $74 $75 $42 $-1 $76 forward single #
face $-1 $77 $78 $43 $-1 $79 forward single #
face $-1 $80 $81 $44 $-1 $82 forward single #
face $-1 $83 $84 $45 $-1 $85 reversed single #
face $-1 $86 $87 $46 $-1 $88 forward single #
face $-1 $89 $90 $47 $-1 $91 forward single #
face $-1 $92 $93 $48 $-1 $94 forward single #
face $-1 $95 $96 $49 $-1 $97 reversed single #
face $-1 $98 $99 $50 $-1 $100 forward single #
face $-1 $101 $102 $51 $-1 $103 forward single #
face $-1 $104 $105 $39 $-1 $106 reversed single #
loop $-1 $-1 $107 $52 #
plane-surface $-1 0 0 12.091826238200685 0 0 1 1 0 0 forward_v I I I I #
face $-1 $108 $109 $40 $-1 $110 reversed single #
loop $-1 $-1 $111 $53 #
plane-surface $-1 -51.862670648878236 0 -0.84827453784770057 0 0 1 1 0 0 forward_v I I I I #
face $-1 $112 $113 $41 $-1 $114 reversed single #
loop $-1 $-1 $115 $54 #
plane-surface $-1 -15.004964481800236 -125.62949889545264 67.753629952448648 1 0 0 0 0.81915205242281985 -0.57357642473473569 forward_v I I I I #
face $-1 $116 $117 $42 $-1 $118 forward single #
loop $-1 $119 $120 $55 #
cone-surface $-1 -10.848321871714752 -24.770786945999038 4.9266715679091817 0 0.81915205242281985 -0.57357642473473569 2 0 0 1 I I 0 1 2 forward I I I I #
face $-1 $121 $122 $43 $-1 $123 forward single #
loop $-1 $124 $125 $56 #
cone-surface $-1 -4.6133579565865261 -24.770786945999038 4.9266715679091817 0 0.81915205242281985 -0.57357642473473569 2 0 0 1 I I 0 1 2 forward I I I I #
face $-1 $126 $127 $44 $-1 $128 forward single #
loop $-1 $129 $130 $57 #
cone-surface $-1 1.6216059585417 -24.770786945999038 4.9266715679091817 0 0.81915205242281985 -0.57357642473473569 2 0 0 1 I I 0 1 2 forward I I I I #
face $-1 $131 $132 $45 $-1 $133 reversed single #
loop $-1 $-1 $134 $58 #
plane-surface $-1 36.857706167078 -125.62949889545264 67.753629952448648 1 0 0 0 0.81915205242281985 -0.57357642473473569 forward_v I I I I #
face $-1 $135 $136 $46 $-1 $137 forward single #
loop $-1 $138 $139 $59 #
cone-surface $-1 41.014348777163477 -24.770786945999038 4.9266715679091817 0 0.81915205242281985 -0.57357642473473569 2 0 0 1 I I 0 1 2 forward I I I I #
face $-1 $140 $141 $47 $-1 $142 forward single #
loop $-1 $143 $144 $60 #
cone-surface $-1 47.24931269229171 -24.770786945999038 4.9266715679091817 0 0.81915205242281985 -0.57357642473473569 2 0 0 1 I I 0 1 2 forward I I I I #
face $-1 $145 $146 $48 $-1 $147 forward single #
loop $-1 $148 $149 $61 #
cone-surface $-1 53.484276607419943 -24.770786945999038 4.9266715679091817 0 0.81915205242281985 -0.57357642473473569 2 0 0 1 I I 0 1 2 forward I I I I #
face $-1 $150 $151 $49 $-1 $152 reversed single #
loop $-1 $-1 $153 $62 #
plane-surface $-1 44.916386778936371 68.594705085698592 133.12069290331962 1 0 0 0 -0.70710678939079041 -0.70710677298230451 forward_v I I I I #
face $-1 $154 $155 $50 $-1 $156 forward single #
loop $-1 $157 $158 $63 #
cone-surface $-1 48.551967475670381 28.40181229842015 9.2974941602499328 0 -0.70710678939079041 -0.70710677298230451 0.5 0 0 1 I I 0 1 0.5 forward I I I I #
face $-1 $159 $160 $51 $-1 $161 forward single #
loop $-1 $162 $163 $64 #
cone-surface $-1 54.005338520771403 28.40181229842015 9.2974941602499328 0 -0.70710678939079041 -0.70710677298230451 0.5 0 0 1 I I 0 1 0.5 forward I I I I #
face $-1 $164 $165 $39 $-1 $166 reversed single #
loop $-1 $-1 $167 $65 #
plane-surface $-1 0 0 -12.091826238200685 0 0 1 1 0 0 forward_v I I I I #
coedge $-1 $168 $169 $170 $171 forward $66 $-1 #
face $-1 $172 $173 $40 $-1 $174 reversed single #
loop $-1 $-1 $175 $68 #
plane-surface $-1 -51.862670648878236 0 -7.9224006592826655 0 0 1 1 0 0 forward_v I I I I #
coedge $-1 $176 $177 $178 $179 forward $69 $-1 #
face $-1 $180 $181 $41 $-1 $182 reversed single #
loop $-1 $-1 $183 $71 #
plane-surface $-1 -4.6133579565865261 -31.196144334337603 1.6306852260477029 0 -0.81915205242281985 0.57357642473473569 1 0 0 forward_v I I I I #
coedge $-1 $184 $185 $186 $187 reversed $72 $-1 #
face $-1 $-1 $188 $42 $-1 $189 forward single #
loop $-1 $190 $191 $74 #
cone-surface $-1 -10.848321871714752 -21.188762292188688 2.4185109789594268 0 0.81915205242281985 -0.57357642473473569 1 0 0 1 I I -0.70710678118654746 0.70710678118654746 1 forward I I I I #
loop $-1 $-1 $192 $55 #
coedge $-1 $120 $120 $193 $194 reversed $75 $-1 #
face $-1 $-1 $195 $43 $-1 $196 forward single #
loop $-1 $197 $198 $77 #
cone-surface $-1 -4.6133579565865261 -21.188762292188688 2.4185109789594268 0 0.81915205242281985 -0.57357642473473569 1 0 0 1 I I -0.70710678118654746 0.70710678118654746 1 forward I I I I #
loop $-1 $-1 $199 $56 #
coedge $-1 $125 $125 $200 $201 reversed $78 $-1 #
face $-1 $-1 $202 $44 $-1 $203 forward single #
loop $-1 $204 $205 $80 #
cone-surface $-1 1.6216059585417 -21.188762292188688 2.4185109789594268 0 0.81915205242281985 -0.57357642473473569 1 0 0 1 I I -0.70710678118654746 0.70710678118654746 1 forward I I I I #
loop $-1 $-1 $206 $57 #
coedge $-1 $130 $130 $207 $208 reversed $81 $-1 #
face $-1 $209 $210 $45 $-1 $211 reversed single #
loop $-1 $-1 $212 $83 #
plane-surface $-1 47.24931269229171 -31.196144334337603 1.6306852260477029 0 -0.81915205242281985 0.57357642473473569 1 0 0 forward_v I I I I #
coedge $-1 $213 $214 $215 $216 reversed $84 $-1 #
face $-1 $-1 $217 $46 $-1 $218 forward single #
loop $-1 $219 $220 $86 #
cone-surface $-1 41.014348777163477 -21.188762292188688 2.4185109789594268 0 0.81915205242281985 -0.57357642473473569 1 0 0 1 I I -0.70710678118654746 0.70710678118654746 1 forward I I I I #
loop $-1 $-1 $221 $59 #
coedge $-1 $139 $139 $222 $223 reversed $87 $-1 #
face $-1 $-1 $224 $47 $-1 $225 forward single #
loop $-1 $226 $227 $89 #
cone-surface $-1 47.24931269229171 -21.188762292188688 2.4185109789594268 0 0.81915205242281985 -0.57357642473473569 1 0 0 1 I I -0.70710678118654746 0.70710678118654746 1 forward I I I I #
loop $-1 $-1 $228 $60 #
coedge $-1 $144 $144 $229 $230 reversed $90 $-1 #
face $-1 $-1 $231 $48 $-1 $232 forward single #
loop $-1 $233 $234 $92 #
cone-surface $-1 53.484276607419943 -21.188762292188688 2.4185109789594268 0 0.81915205242281985 -0.57357642473473569 1 0 0 1 I I -0.70710678118654746 0.70710678118654746 1 forward I I I I #
loop $-1 $-1 $235 $61 #
coedge $-1 $149 $149 $236 $237 reversed $93 $-1 #
face $-1 $238 $239 $49 $-1 $240 reversed single #
loop $-1 $-1 $241 $95 #
plane-surface $-1 51.278652998220892 -12.92186556514973 51.604124144071719 0 0.70710678939079041 0.70710677298230451 1 0 0 forward_v I I I I #
coedge $-1 $242 $243 $244 $245 reversed $96 $-1 #
face $-1 $-1 $246 $50 $-1 $247 forward single #
loop $-1 $248 $249 $98 #
cone-surface $-1 48.551967475670381 27.733560020406603 8.629241897743249 0 -0.70710678939079041 -0.70710677298230451 0.25 0 0 1 I I -0.70710678118654746 0.70710678118654746 0.25 forward I I I I #
loop $-1 $-1 $250 $63 #
coedge $-1 $158 $158 $251 $252 reversed $99 $-1 #
face $-1 $-1 $253 $51 $-1 $254 forward single #
loop $-1 $255 $256 $101 #
cone-surface $-1 54.005338520771403 27.733560020406603 8.629241897743249 0 -0.70710678939079041 -0.70710677298230451 0.25 0 0 1 I I -0.70710678118654746 0.70710678118654746 0.25 forward I I I I #
loop $-1 $-1 $257 $64 #
coedge $-1 $163 $163 $258 $259 reversed $102 $-1 #
face $-1 $260 $261 $39 $-1 $262 reversed single #
loop $-1 $-1 $263 $104 #
plane-surface $-1 0 -31.196144334337621 0 0 1 0 0 0 1 forward_v I I I I #
coedge $-1 $264 $265 $266 $267 forward $105 $-1 #
coedge $-1 $268 $107 $269 $270 forward $66 $-1 #
coedge $-1 $107 $268 $271 $272 forward $66 $-1 #
coedge $-1 $273 $274 $107 $171 reversed $275 $-1 #
edge $-1 $276 -31.196144334337621 $277 31.196144334337621 $170 $278 forward 7 unknown #
face $-1 $279 $280 $40 $-1 $281 reversed single #
loop $-1 $-1 $282 $108 #
plane-surface $-1 -46.084422080251059 0 -4.385337598565183 -1 0 0 0 0 1 forward_v I I I I #
coedge $-1 $283 $284 $285 $286 forward $109 $-1 #
coedge $-1 $287 $111 $288 $289 reversed $69 $-1 #
coedge $-1 $111 $287 $290 $291 reversed $69 $-1 #
coedge $-1 $282 $292 $111 $179 reversed $173 $-1 #
edge $-1 $293 -31.196144334337621 $294 31.196144334337621 $178 $295 forward 7 unknown #
face $-1 $296 $297 $41 $-1 $298 forward single #
loop $-1 $-1 $299 $112 #
plane-surface $-1 5.7782485686271841 -125.62949889545264 67.753629952448648 -1 0 0 0 -0.81915205242281985 0.57357642473473569 forward_v I I I I #
coedge $-1 $300 $301 $302 $303 reversed $113 $-1 #
coedge $-1 $185 $115 $304 $305 reversed $72 $-1 #
coedge $-1 $115 $184 $300 $306 reversed $72 $-1 #
coedge $-1 $302 $307 $115 $187 forward $308 $-1 #
edge $-1 $309 21.784988738023639 $310 32.24612975017665 $186 $311 forward 7 unknown #
loop $-1 $-1 $193 $116 #
plane-surface $-1 -4.6133579565865261 -31.196144334337603 1.6306852260477029 0 -0.81915205242281985 0.57357642473473569 1 0 0 forward_v I I I I #
loop $-1 $-1 $312 $74 #
coedge $-1 $191 $191 $192 $313 reversed $117 $-1 #
coedge $-1 $192 $192 $191 $313 forward $119 $-1 #
coedge $-1 $193 $193 $120 $194 forward $188 $-1 #
edge $-1 $314 -3.6528638478386101e-016 $314 6.2831853071796004 $193 $315 forward 7 unknown #
loop $-1 $-1 $200 $121 #
plane-surface $-1 -4.6133579565865261 -31.196144334337603 1.6306852260477029 0 -0.81915205242281985 0.57357642473473569 1 0 0 forward_v I I I I #
loop $-1 $-1 $316 $77 #
coedge $-1 $198 $198 $199 $317 reversed $122 $-1 #
coedge $-1 $199 $199 $198 $317 forward $124 $-1 #
coedge $-1 $200 $200 $125 $201 forward $195 $-1 #
edge $-1 $318 -3.6528638478386101e-016 $318 6.2831853071796004 $200 $319 forward 7 unknown #
loop $-1 $-1 $207 $126 #
plane-surface $-1 -4.6133579565865261 -31.196144334337603 1.6306852260477029 0 -0.81915205242281985 0.57357642473473569 1 0 0 forward_v I I I I #
loop $-1 $-1 $320 $80 #
coedge $-1 $205 $205 $206 $321 reversed $127 $-1 #
coedge $-1 $206 $206 $205 $321 forward $129 $-1 #
coedge $-1 $207 $207 $130 $208 forward $202 $-1 #
edge $-1 $322 -3.6528638478386101e-016 $322 6.2831853071796004 $207 $323 forward 7 unknown #
face $-1 $324 $325 $45 $-1 $326 forward single #
loop $-1 $-1 $215 $131 #
plane-surface $-1 0 -31.196144334337621 0 0 1 0 0 0 1 forward_v I I I I #
coedge $-1 $327 $328 $329 $330 reversed $132 $-1 #
coedge $-1 $214 $134 $331 $332 reversed $84 $-1 #
coedge $-1 $134 $213 $327 $333 reversed $84 $-1 #
coedge $-1 $329 $334 $134 $216 forward $210 $-1 #
edge $-1 $335 21.784988738023639 $336 32.24612975017665 $215 $337 forward 7 unknown #
loop $-1 $-1 $222 $135 #
plane-surface $-1 47.24931269229171 -31.196144334337603 1.6306852260477029 0 -0.81915205242281985 0.57357642473473569 1 0 0 forward_v I I I I #
loop $-1 $-1 $338 $86 #
coedge $-1 $220 $220 $221 $339 reversed $136 $-1 #
coedge $-1 $221 $221 $220 $339 forward $138 $-1 #
coedge $-1 $222 $222 $139 $223 forward $217 $-1 #
edge $-1 $340 -3.6528638478386101e-016 $340 6.2831853071796004 $222 $341 forward 7 unknown #
loop $-1 $-1 $229 $140 #
plane-surface $-1 47.24931269229171 -31.196144334337603 1.6306852260477029 0 -0.81915205242281985 0.57357642473473569 1 0 0 forward_v I I I I #
loop $-1 $-1 $342 $89 #
coedge $-1 $227 $227 $228 $343 reversed $141 $-1 #
coedge $-1 $228 $228 $227 $343 forward $143 $-1 #
coedge $-1 $229 $229 $144 $230 forward $224 $-1 #
edge $-1 $344 -3.6528638478386101e-016 $344 6.2831853071796004 $229 $345 forward 7 unknown #
loop $-1 $-1 $236 $145 #
plane-surface $-1 47.24931269229171 -31.196144334337603 1.6306852260477029 0 -0.81915205242281985 0.57357642473473569 1 0 0 forward_v I I I I #
loop $-1 $-1 $346 $92 #
coedge $-1 $234 $234 $235 $347 reversed $146 $-1 #
coedge $-1 $235 $235 $234 $347 forward $148 $-1 #
coedge $-1 $236 $236 $149 $237 forward $231 $-1 #
edge $-1 $348 -3.6528638478386101e-016 $348 6.2831853071796004 $236 $349 forward 7 unknown #
face $-1 $350 $351 $49 $-1 $352 forward single #
loop $-1 $-1 $353 $150 #
plane-surface $-1 57.640919217505413 0 0 -1 0 0 0 0 1 forward_v I I I I #
coedge $-1 $354 $355 $356 $357 reversed $151 $-1 #
coedge $-1 $243 $153 $358 $359 reversed $96 $-1 #
coedge $-1 $153 $242 $354 $360 reversed $96 $-1 #
coedge $-1 $356 $361 $153 $245 forward $351 $-1 #
edge $-1 $362 3.1012082085116752 $363 7.7069211190149289 $244 $364 forward 7 unknown #
loop $-1 $-1 $251 $154 #
plane-surface $-1 51.278652998220892 -12.92186556514973 51.604124144071719 0 0.70710678939079041 0.70710677298230451 1 0 0 forward_v I I I I #
loop $-1 $-1 $365 $98 #
coedge $-1 $249 $249 $250 $366 reversed $155 $-1 #
coedge $-1 $250 $250 $249 $366 forward $157 $-1 #
coedge $-1 $251 $251 $158 $252 forward $246 $-1 #
edge $-1 $367 -3.4976791417223902e-022 $367 6.2831853071796004 $251 $368 forward 7 unknown #
loop $-1 $-1 $258 $159 #
plane-surface $-1 51.278652998220892 -12.92186556514973 51.604124144071719 0 0.70710678939079041 0.70710677298230451 1 0 0 forward_v I I I I #
loop $-1 $-1 $369 $101 #
coedge $-1 $256 $256 $257 $370 reversed $160 $-1 #
coedge $-1 $257 $257 $256 $370 forward $162 $-1 #
coedge $-1 $258 $258 $163 $259 forward $253 $-1 #
edge $-1 $371 -3.4976791417223902e-022 $371 6.2831853071796004 $258 $372 forward 7 unknown #
face $-1 $373 $374 $39 $-1 $375 reversed single #
loop $-1 $-1 $376 $164 #
plane-surface $-1 -57.640919217505413 0 0 1 0 0 0 0 -1 forward_v I I I I #
coedge $-1 $377 $271 $378 $379 forward $165 $-1 #
coedge $-1 $380 $167 $377 $381 forward $105 $-1 #
coedge $-1 $167 $380 $382 $383 forward $105 $-1 #
coedge $-1 $274 $273 $167 $267 reversed $275 $-1 #
edge $-1 $384 -31.196144334337621 $385 31.196144334337621 $266 $386 forward 7 unknown #
coedge $-1 $169 $168 $387 $388 forward $66 $-1 #
coedge $-1 $389 $390 $168 $270 reversed $374 $-1 #
edge $-1 $277 -57.640919217505413 $391 57.640919217505413 $269 $392 forward 7 unknown #
coedge $-1 $263 $393 $169 $272 reversed $165 $-1 #
edge $-1 $394 -57.640919217505413 $276 57.640919217505413 $271 $395 forward 7 unknown #
coedge $-1 $266 $170 $393 $396 forward $275 $-1 #
coedge $-1 $170 $266 $389 $397 reversed $275 $-1 #
loop $-1 $-1 $273 $373 #
vertex $-1 $171 $398 #
vertex $-1 $171 $399 #
straight-curve $-1 57.640919217505413 0 12.091826238200685 0 1 0 I I #
face $-1 $400 $401 $40 $-1 $402 reversed single #
loop $-1 $-1 $403 $172 #
plane-surface $-1 0 -31.196144334337621 0 0 1 0 0 0 1 forward_v I I I I #
coedge $-1 $285 $178 $404 $405 reversed $173 $-1 #
coedge $-1 $406 $175 $403 $407 reversed $109 $-1 #
coedge $-1 $175 $406 $408 $409 reversed $109 $-1 #
coedge $-1 $292 $282 $175 $286 reversed $173 $-1 #
edge $-1 $410 -31.196144334337621 $411 31.196144334337621 $285 $412 forward 7 unknown #
coedge $-1 $177 $176 $413 $414 reversed $69 $-1 #
coedge $-1 $415 $416 $176 $289 forward $417 $-1 #
edge $-1 $418 -31.709583893066295 $294 -20.153086755811941 $288 $419 forward 7 unknown #
coedge $-1 $420 $404 $177 $291 forward $280 $-1 #
edge $-1 $293 20.153086755811941 $421 31.709583893066295 $290 $422 forward 7 unknown #
coedge $-1 $178 $285 $415 $423 reversed $173 $-1 #
vertex $-1 $291 $424 #
vertex $-1 $289 $425 #
straight-curve $-1 -46.084422080251059 0 -0.84827453784770057 0 1 0 I I #
face $-1 $-1 $308 $41 $-1 $426 reversed single #
loop $-1 $-1 $427 $180 #
plane-surface $-1 0 0 12.091826238200685 0 0 1 1 0 0 forward_v I I I I #
coedge $-1 $428 $429 $430 $431 reversed $181 $-1 #
coedge $-1 $432 $183 $185 $306 forward $113 $-1 #
coedge $-1 $183 $432 $428 $433 forward $113 $-1 #
coedge $-1 $430 $186 $183 $303 forward $308 $-1 #
edge $-1 $310 -12.698285503506973 $434 8.0849275469204471 $302 $435 forward 7 unknown #
coedge $-1 $436 $437 $184 $305 forward $297 $-1 #
edge $-1 $438 -38.943574687290827 $309 -31.6186051133887 $304 $439 forward 7 unknown #
edge $-1 $310 -3.0924029549290812e-014 $438 12.770694990279143 $185 $440 forward 7 unknown #
coedge $-1 $186 $430 $436 $441 reversed $308 $-1 #
loop $-1 $-1 $430 $296 #
vertex $-1 $441 $442 #
vertex $-1 $187 $443 #
straight-curve $-1 -15.004964481800236 -31.196144334337617 33.876814976224324 0 0 -1 I I #
coedge $-1 $312 $312 $-1 $444 reversed $190 $-1 #
edge $-1 $445 0 $445 6.2831853071796004 $191 $446 forward 7 unknown #
vertex $-1 $194 $447 #
ellipse-curve $-1 -10.848321871714752 -27.533659547386552 6.8612557321241887 0 -0.81915205242281985 0.57357642473473569 2 0 0 1 I I #
coedge $-1 $316 $316 $-1 $448 reversed $197 $-1 #
edge $-1 $449 0 $449 6.2831853071796004 $198 $450 forward 7 unknown #
vertex $-1 $201 $451 #
ellipse-curve $-1 -4.6133579565865261 -27.533659547386552 6.8612557321241887 0 -0.81915205242281985 0.57357642473473569 2 0 0 1 I I #
coedge $-1 $320 $320 $-1 $452 reversed $204 $-1 #
edge $-1 $453 0 $453 6.2831853071796004 $205 $454 forward 7 unknown #
vertex $-1 $208 $455 #
ellipse-curve $-1 1.6216059585417 -27.533659547386552 6.8612557321241887 0 -0.81915205242281985 0.57357642473473569 2 0 0 1 I I #
face $-1 $-1 $456 $45 $-1 $457 reversed single #
loop $-1 $-1 $331 $209 #
plane-surface $-1 0 0 12.091826238200685 0 0 1 1 0 0 forward_v I I I I #
coedge $-1 $458 $212 $214 $333 forward $132 $-1 #
coedge $-1 $212 $458 $459 $460 reversed $132 $-1 #
coedge $-1 $461 $215 $212 $330 forward $210 $-1 #
edge $-1 $336 13.233049820932145 $462 34.016262871359565 $329 $463 forward 7 unknown #
coedge $-1 $464 $465 $213 $332 forward $325 $-1 #
edge $-1 $466 -38.943574687290827 $335 -31.6186051133887 $331 $467 forward 7 unknown #
edge $-1 $336 -3.0924029549290812e-014 $466 12.770694990279143 $214 $468 forward 7 unknown #
coedge $-1 $215 $461 $464 $469 reversed $210 $-1 #
vertex $-1 $469 $470 #
vertex $-1 $216 $471 #
straight-curve $-1 36.857706167078 -31.196144334337617 33.876814976224324 0 0 -1 I I #
coedge $-1 $338 $338 $-1 $472 reversed $219 $-1 #
edge $-1 $473 0 $473 6.2831853071796004 $220 $474 forward 7 unknown #
vertex $-1 $223 $475 #
ellipse-curve $-1 41.014348777163477 -27.533659547386552 6.8612557321241887 0 -0.81915205242281985 0.57357642473473569 2 0 0 1 I I #
coedge $-1 $342 $342 $-1 $476 reversed $226 $-1 #
edge $-1 $477 0 $477 6.2831853071796004 $227 $478 forward 7 unknown #
vertex $-1 $230 $479 #
ellipse-curve $-1 47.24931269229171 -27.533659547386552 6.8612557321241887 0 -0.81915205242281985 0.57357642473473569 2 0 0 1 I I #
coedge $-1 $346 $346 $-1 $480 reversed $233 $-1 #
edge $-1 $481 0 $481 6.2831853071796004 $234 $482 forward 7 unknown #
vertex $-1 $237 $483 #
ellipse-curve $-1 53.484276607419943 -27.533659547386552 6.8612557321241887 0 -0.81915205242281985 0.57357642473473569 2 0 0 1 I I #
face $-1 $-1 $484 $49 $-1 $485 reversed single #
loop $-1 $-1 $356 $238 #
plane-surface $-1 0 0 12.091826238200685 0 0 1 1 0 0 forward_v I I I I #
coedge $-1 $486 $487 $355 $488 forward $239 $-1 #
coedge $-1 $489 $241 $243 $360 forward $151 $-1 #
coedge $-1 $241 $489 $353 $488 reversed $151 $-1 #
coedge $-1 $490 $244 $241 $357 forward $351 $-1 #
edge $-1 $363 19.277060279825925 $491 32.001592718394967 $356 $492 forward 7 unknown #
coedge $-1 $493 $494 $242 $359 forward $484 $-1 #
edge $-1 $495 -59.074233230838431 $362 -54.468520213459129 $358 $496 forward 7 unknown #
edge $-1 $363 55.878826930671913 $495 62.392288668675249 $243 $497 forward 7 unknown #
coedge $-1 $244 $490 $493 $498 forward $351 $-1 #
vertex $-1 $359 $499 #
vertex $-1 $245 $500 #
straight-curve $-1 44.916386778936371 34.297352542849296 12.091826238200682 0 -1 0 I I #
coedge $-1 $365 $365 $-1 $501 reversed $248 $-1 #
edge $-1 $502 0 $502 6.2831853071796004 $249 $503 forward 7 unknown #
vertex $-1 $252 $504 #
ellipse-curve $-1 48.551967475670381 28.893287879085989 9.7889697295110292 0 0.70710678939079041 0.70710677298230451 0.5 0 0 1 I I #
coedge $-1 $369 $369 $-1 $505 reversed $255 $-1 #
edge $-1 $506 0 $506 6.2831853071796004 $256 $507 forward 7 unknown #
vertex $-1 $259 $508 #
ellipse-curve $-1 54.005338520771403 28.893287879085989 9.7889697295110292 0 0.70710678939079041 0.70710677298230451 0.5 0 0 1 I I #
face $-1 $-1 $275 $39 $-1 $509 reversed single #
loop $-1 $-1 $389 $260 #
plane-surface $-1 0 31.196144334337621 0 0 -1 0 0 0 -1 forward_v I I I I #
coedge $-1 $510 $387 $390 $511 forward $261 $-1 #
coedge $-1 $393 $263 $264 $381 reversed $165 $-1 #
coedge $-1 $387 $510 $263 $379 reversed $261 $-1 #
edge $-1 $394 -12.091826238200685 $512 12.091826238200685 $378 $513 forward 7 unknown #
coedge $-1 $265 $264 $510 $514 forward $105 $-1 #
edge $-1 $385 -57.640919217505413 $512 57.640919217505413 $377 $515 forward 7 unknown #
coedge $-1 $390 $389 $265 $383 reversed $374 $-1 #
edge $-1 $516 -57.640919217505413 $384 57.640919217505413 $382 $517 forward 7 unknown #
vertex $-1 $267 $518 #
vertex $-1 $396 $519 #
straight-curve $-1 57.640919217505413 0 -12.091826238200685 0 -1 0 I I #
coedge $-1 $376 $378 $268 $388 reversed $261 $-1 #
edge $-1 $391 -31.196144334337621 $394 31.196144334337621 $387 $520 forward 7 unknown #
coedge $-1 $382 $269 $274 $397 forward $374 $-1 #
coedge $-1 $269 $382 $376 $511 reversed $374 $-1 #
vertex $-1 $270 $521 #
straight-curve $-1 0 31.196144334337621 12.091826238200685 -1 0 0 I I #
coedge $-1 $271 $377 $273 $396 reversed $165 $-1 #
vertex $-1 $388 $522 #
straight-curve $-1 0 -31.196144334337621 12.091826238200685 1 0 0 I I #
edge $-1 $276 -12.091826238200685 $385 12.091826238200685 $273 $523 forward 7 unknown #
edge $-1 $277 -12.091826238200685 $384 12.091826238200685 $274 $524 forward 7 unknown #
point $-1 57.640919217505413 -31.196144334337621 12.091826238200685 #
point $-1 57.640919217505413 31.196144334337621 12.091826238200685 #
face $-1 $-1 $417 $40 $-1 $525 reversed single #
loop $-1 $-1 $526 $279 #
plane-surface $-1 -57.640919217505413 0 0 1 0 0 0 0 -1 forward_v I I I I #
coedge $-1 $404 $420 $283 $407 forward $280 $-1 #
coedge $-1 $290 $403 $282 $405 forward $280 $-1 #
edge $-1 $411 -5.729731860000074 $293 1.3443942614348909 $404 $527 forward 7 unknown #
coedge $-1 $284 $283 $526 $528 reversed $109 $-1 #
edge $-1 $529 -31.709583893066295 $411 -20.153086755811941 $403 $530 forward 7 unknown #
coedge $-1 $416 $415 $284 $409 forward $417 $-1 #
edge $-1 $410 20.153086755811941 $531 31.709583893066295 $408 $532 forward 7 unknown #
vertex $-1 $409 $533 #
vertex $-1 $407 $534 #
straight-curve $-1 -46.084422080251059 0 -7.9224006592826655 0 -1 0 I I #
coedge $-1 $535 $536 $287 $414 forward $401 $-1 #
edge $-1 $421 -31.196144334337621 $418 31.196144334337621 $413 $537 forward 7 unknown #
coedge $-1 $408 $288 $292 $423 forward $417 $-1 #
coedge $-1 $288 $408 $535 $538 reversed $417 $-1 #
loop $-1 $-1 $408 $400 #
vertex $-1 $538 $539 #
straight-curve $-1 -25.931335324439118 31.196144334337621 -0.84827453784770057 1 0 0 I I #
coedge $-1 $403 $290 $536 $540 forward $280 $-1 #
vertex $-1 $540 $541 #
straight-curve $-1 -25.931335324439118 -31.196144334337621 -0.84827453784770057 -1 0 0 I I #
edge $-1 $294 -1.3443942614348909 $410 5.729731860000074 $415 $542 forward 7 unknown #
point $-1 -46.084422080251059 -31.196144334337621 -0.84827453784770057 #
point $-1 -46.084422080251059 31.196144334337621 -0.84827453784770057 #
plane-surface $-1 0 -31.196144334337621 0 0 1 0 0 0 1 forward_v I I I I #
coedge $-1 $437 $436 $429 $543 forward $297 $-1 #
coedge $-1 $429 $299 $301 $433 reversed $181 $-1 #
coedge $-1 $299 $428 $427 $543 reversed $181 $-1 #
coedge $-1 $307 $302 $299 $431 forward $308 $-1 #
edge $-1 $434 -32.24612975017665 $544 -21.784988738023639 $430 $545 forward 7 unknown #
coedge $-1 $301 $300 $437 $546 reversed $113 $-1 #
edge $-1 $547 -12.770694990279143 $434 3.0924029549290812e-014 $428 $548 forward 7 unknown #
vertex $-1 $303 $549 #
straight-curve $-1 -2.3066789782932631 -31.196144334337621 1.6306852260476727 1 0 0 I I #
coedge $-1 $427 $304 $307 $441 forward $297 $-1 #
coedge $-1 $304 $427 $432 $546 forward $297 $-1 #
vertex $-1 $305 $550 #
straight-curve $-1 -15.004964481800236 -62.814749447726321 12.091826238200685 0 -1 0 I I #
straight-curve $-1 -15.004964481800236 -31.196144334337603 1.6306852260477029 0 0.57357642473473569 0.81915205242281985 I I #
edge $-1 $309 -15.004964481800236 $544 5.7782485686271841 $307 $551 forward 7 unknown #
point $-1 -15.004964481800236 -31.196144334337621 12.091826238200685 #
point $-1 -15.004964481800236 -31.196144334337621 1.6306852260476776 #
edge $-1 $552 1 $552 0 $312 $-1 forward 7 unknown #
vertex $-1 $313 $553 #
ellipse-curve $-1 -10.848321871714752 -22.007914344611507 2.9920874036941623 0 -0.81915205242281985 0.57357642473473569 2 0 0 1 I I #
point $-1 -8.8483218717147523 -27.53365954738657 6.8612557321242003 #
edge $-1 $554 1 $554 0 $316 $-1 forward 7 unknown #
vertex $-1 $317 $555 #
ellipse-curve $-1 -4.6133579565865261 -22.007914344611507 2.9920874036941623 0 -0.81915205242281985 0.57357642473473569 2 0 0 1 I I #
point $-1 -2.6133579565865261 -27.53365954738657 6.8612557321242003 #
edge $-1 $556 1 $556 0 $320 $-1 forward 7 unknown #
vertex $-1 $321 $557 #
ellipse-curve $-1 1.6216059585417 -22.007914344611507 2.9920874036941623 0 -0.81915205242281985 0.57357642473473569 2 0 0 1 I I #
point $-1 3.6216059585417 -27.53365954738657 6.8612557321242003 #
loop $-1 $-1 $459 $324 #
plane-surface $-1 57.640919217505413 0 0 -1 0 0 0 0 1 forward_v I I I I #
coedge $-1 $328 $327 $465 $558 reversed $132 $-1 #
coedge $-1 $559 $560 $328 $460 forward $456 $-1 #
edge $-1 $462 -8.2787968915128296 $561 4.4918980987663444 $459 $562 forward 7 unknown #
coedge $-1 $334 $329 $560 $563 reversed $210 $-1 #
vertex $-1 $330 $564 #
straight-curve $-1 23.624656346145855 -31.196144334337621 1.6306852260476727 1 0 0 I I #
coedge $-1 $565 $331 $334 $469 forward $325 $-1 #
coedge $-1 $331 $565 $458 $558 forward $325 $-1 #
vertex $-1 $332 $566 #
straight-curve $-1 36.857706167078 -62.814749447726321 12.091826238200685 0 -1 0 I I #
straight-curve $-1 36.857706167078 -31.196144334337603 1.6306852260477029 0 0.57357642473473569 0.81915205242281985 I I #
edge $-1 $335 36.857706167078 $567 57.640919217505413 $334 $568 forward 7 unknown #
point $-1 36.857706167078 -31.196144334337621 12.091826238200685 #
point $-1 36.857706167078 -31.196144334337621 1.6306852260476776 #
edge $-1 $569 1 $569 0 $338 $-1 forward 7 unknown #
vertex $-1 $339 $570 #
ellipse-curve $-1 41.014348777163477 -22.007914344611507 2.9920874036941623 0 -0.81915205242281985 0.57357642473473569 2 0 0 1 I I #
point $-1 43.014348777163477 -27.53365954738657 6.8612557321242003 #
edge $-1 $571 1 $571 0 $342 $-1 forward 7 unknown #
vertex $-1 $343 $572 #
ellipse-curve $-1 47.24931269229171 -22.007914344611507 2.9920874036941623 0 -0.81915205242281985 0.57357642473473569 2 0 0 1 I I #
point $-1 49.24931269229171 -27.53365954738657 6.8612557321242003 #
edge $-1 $573 1 $573 0 $346 $-1 forward 7 unknown #
vertex $-1 $347 $574 #
ellipse-curve $-1 53.484276607419943 -22.007914344611507 2.9920874036941623 0 -0.81915205242281985 0.57357642473473569 2 0 0 1 I I #
point $-1 55.484276607419943 -27.53365954738657 6.8612557321242003 #
loop $-1 $-1 $358 $350 #
plane-surface $-1 0 31.196144334337621 0 0 -1 0 0 0 -1 forward_v I I I I #
coedge $-1 $487 $353 $575 $576 reversed $239 $-1 #
coedge $-1 $353 $486 $490 $577 reversed $239 $-1 #
edge $-1 $491 33.065444328910644 $578 39.57890606691398 $353 $579 forward 7 unknown #
coedge $-1 $355 $354 $494 $580 reversed $151 $-1 #
coedge $-1 $361 $356 $487 $577 forward $351 $-1 #
vertex $-1 $577 $581 #
straight-curve $-1 25.639326499110446 26.59043142383436 12.091826238200682 1 0 0 I I #
coedge $-1 $575 $358 $361 $498 reversed $484 $-1 #
coedge $-1 $358 $575 $489 $580 forward $484 $-1 #
vertex $-1 $359 $582 #
straight-curve $-1 44.916386778936371 31.196144334337621 66.560346451659811 0 0 1 I I #
straight-curve $-1 44.916386778936371 -12.92186556514973 51.604124144071719 0 0.70710677298230451 -0.70710678939079041 I I #
edge $-1 $583 -57.640919217505413 $362 -44.916386778936371 $493 $584 forward 7 unknown #
point $-1 44.916386778936371 31.196144334337621 12.091826238200685 #
point $-1 44.916386778936371 26.590431423834367 12.091826238200682 #
edge $-1 $585 1 $585 0 $365 $-1 forward 7 unknown #
vertex $-1 $366 $586 #
ellipse-curve $-1 48.551967475670381 27.910336717754301 8.8060185909888258 0 0.70710678939079041 0.70710677298230451 0.5 0 0 1 I I #
point $-1 49.051967475670381 28.893287879085999 9.7889697295110398 #
edge $-1 $587 1 $587 0 $369 $-1 forward 7 unknown #
vertex $-1 $370 $588 #
ellipse-curve $-1 54.005338520771403 27.910336717754301 8.8060185909888258 0 0.70710678939079041 0.70710677298230451 0.5 0 0 1 I I #
point $-1 54.505338520771403 28.893287879085999 9.7889697295110398 #
plane-surface $-1 57.640919217505413 0 0 -1 0 0 0 0 1 forward_v I I I I #
coedge $-1 $378 $376 $380 $514 reversed $261 $-1 #
edge $-1 $391 -12.091826238200685 $516 12.091826238200685 $390 $589 forward 7 unknown #
vertex $-1 $514 $590 #
straight-curve $-1 -57.640919217505413 -31.196144334337621 0 0 0 -1 I I #
edge $-1 $512 -31.196144334337621 $516 31.196144334337621 $510 $591 forward 7 unknown #
straight-curve $-1 0 -31.196144334337621 -12.091826238200685 -1 0 0 I I #
vertex $-1 $383 $592 #
straight-curve $-1 0 31.196144334337621 -12.091826238200685 1 0 0 I I #
point $-1 57.640919217505413 31.196144334337621 -12.091826238200685 #
point $-1 57.640919217505413 -31.196144334337621 -12.091826238200685 #
straight-curve $-1 -57.640919217505413 0 12.091826238200685 0 -1 0 I I #
point $-1 -57.640919217505413 31.196144334337621 12.091826238200685 #
point $-1 -57.640919217505413 -31.196144334337621 12.091826238200685 #
straight-curve $-1 57.640919217505413 -31.196144334337621 0 0 0 -1 I I #
straight-curve $-1 57.640919217505413 31.196144334337621 0 0 0 -1 I I #
plane-surface $-1 0 31.196144334337621 0 0 -1 0 0 0 -1 forward_v I I I I #
coedge $-1 $536 $535 $406 $528 forward $401 $-1 #
straight-curve $-1 -46.084422080251059 -31.196144334337621 -2.1926687992825915 0 0 1 I I #
edge $-1 $531 -31.196144334337621 $529 31.196144334337621 $526 $593 forward 7 unknown #
vertex $-1 $407 $594 #
straight-curve $-1 -25.931335324439118 -31.196144334337621 -7.9224006592826655 1 0 0 I I #
vertex $-1 $409 $595 #
straight-curve $-1 -25.931335324439118 31.196144334337621 -7.9224006592826655 -1 0 0 I I #
point $-1 -46.084422080251059 31.196144334337621 -7.9224006592826655 #
point $-1 -46.084422080251059 -31.196144334337621 -7.9224006592826655 #
coedge $-1 $526 $413 $416 $538 forward $401 $-1 #
coedge $-1 $413 $526 $420 $540 reversed $401 $-1 #
straight-curve $-1 -57.640919217505413 0 -0.84827453784770057 0 1 0 I I #
edge $-1 $418 0.84827453784770057 $531 7.9224006592826655 $416 $596 forward 7 unknown #
point $-1 -57.640919217505413 31.196144334337621 -0.84827453784770057 #
edge $-1 $421 0.84827453784770057 $529 7.9224006592826655 $536 $597 forward 7 unknown #
point $-1 -57.640919217505413 -31.196144334337621 -0.84827453784770057 #
straight-curve $-1 -46.084422080251059 31.196144334337621 -2.1926687992825915 0 0 -1 I I #
edge $-1 $544 31.6186051133887 $547 38.943574687290827 $427 $598 forward 7 unknown #
vertex $-1 $543 $599 #
straight-curve $-1 5.7782485686271841 -31.196144334337617 33.876814976224324 0 0 1 I I #
edge $-1 $547 -8.0849275469204471 $438 12.698285503506973 $437 $600 forward 7 unknown #
vertex $-1 $546 $601 #
straight-curve $-1 5.7782485686271841 -31.196144334337603 1.6306852260477029 0 -0.57357642473473569 -0.81915205242281985 I I #
point $-1 5.7782485686271841 -31.196144334337621 1.6306852260476776 #
point $-1 -15.004964481800236 -23.871174760435494 12.091826238200685 #
straight-curve $-1 0 -31.196144334337621 12.091826238200685 1 0 0 I I #
vertex $-1 $444 $602 #
point $-1 -8.8483218717147523 -22.007914344611507 2.9920874036941623 #
vertex $-1 $448 $603 #
point $-1 -2.6133579565865261 -22.007914344611507 2.9920874036941623 #
vertex $-1 $452 $604 #
point $-1 3.6216059585417 -22.007914344611507 2.9920874036941623 #
edge $-1 $561 -34.016262871359565 $466 -13.233049820932145 $465 $605 forward 7 unknown #
coedge $-1 $560 $459 $565 $606 reversed $456 $-1 #
coedge $-1 $459 $559 $461 $563 forward $456 $-1 #
vertex $-1 $460 $607 #
straight-curve $-1 57.640919217505413 -26.447621612198652 8.412278691322074 0 0.57357642473473569 0.81915205242281985 I I #
edge $-1 $567 -12.091826238200685 $462 -1.6306852260476776 $560 $608 forward 7 unknown #
point $-1 57.64091921750542 -31.196144334337621 1.6306852260476776 #
coedge $-1 $465 $464 $559 $606 forward $325 $-1 #
point $-1 36.857706167078 -23.871174760435494 12.091826238200685 #
vertex $-1 $606 $609 #
straight-curve $-1 0 -31.196144334337621 12.091826238200685 1 0 0 I I #
vertex $-1 $472 $610 #
point $-1 43.014348777163477 -22.007914344611507 2.9920874036941623 #
vertex $-1 $476 $611 #
point $-1 49.24931269229171 -22.007914344611507 2.9920874036941623 #
vertex $-1 $480 $612 #
point $-1 55.484276607419943 -22.007914344611507 2.9920874036941623 #
coedge $-1 $494 $493 $486 $576 forward $484 $-1 #
edge $-1 $583 -12.091826238200685 $578 -7.4861132208213803 $486 $613 forward 7 unknown #
edge $-1 $491 26.590431423834367 $583 31.196144334337621 $487 $614 forward 7 unknown #
vertex $-1 $488 $615 #
straight-curve $-1 57.640919217505413 3.2096317871923219 35.472626417396597 0 0.70710677298230462 -0.70710678939079052 I I #
edge $-1 $578 -32.001592718394967 $495 -19.277060279825925 $494 $616 forward 7 unknown #
point $-1 57.640919217505413 26.590431423834367 12.091826238200682 #
point $-1 44.916386778936371 31.196144334337617 7.4861132208213803 #
vertex $-1 $577 $617 #
straight-curve $-1 0 31.196144334337621 12.091826238200685 -1 0 0 I I #
vertex $-1 $501 $618 #
point $-1 49.051967475670381 27.910336717754301 8.8060185909888258 #
vertex $-1 $505 $619 #
point $-1 54.505338520771403 27.910336717754301 8.8060185909888258 #
straight-curve $-1 -57.640919217505413 31.196144334337621 0 0 0 -1 I I #
point $-1 -57.640919217505413 -31.196144334337621 -12.091826238200685 #
straight-curve $-1 -57.640919217505413 0 -12.091826238200685 0 1 0 I I #
point $-1 -57.640919217505413 31.196144334337621 -12.091826238200685 #
straight-curve $-1 -57.640919217505413 0 -7.9224006592826655 0 -1 0 I I #
point $-1 -57.640919217505413 -31.196144334337621 -7.9224006592826655 #
point $-1 -57.640919217505413 31.196144334337621 -7.9224006592826655 #
straight-curve $-1 -57.640919217505413 31.196144334337621 0 0 0 -1 I I #
straight-curve $-1 -57.640919217505413 -31.196144334337621 0 0 0 -1 I I #
straight-curve $-1 5.7782485686271841 -62.814749447726321 12.091826238200685 0 1 0 I I #
point $-1 5.7782485686271841 -31.196144334337621 12.091826238200685 #
straight-curve $-1 -2.3066789782932631 -23.871174760435498 12.091826238200685 -1 0 0 I I #
point $-1 5.7782485686271841 -23.871174760435494 12.091826238200685 #
point $-1 -10.848321871714752 -20.369610239765869 1.8449345542246911 #
point $-1 -4.6133579565865261 -20.369610239765869 1.8449345542246911 #
point $-1 1.6216059585417 -20.369610239765869 1.8449345542246911 #
straight-curve $-1 23.624656346145855 -23.871174760435498 12.091826238200685 -1 0 0 I I #
edge $-1 $567 -31.196144334337621 $561 -23.871174760435494 $559 $620 forward 7 unknown #
point $-1 57.64091921750542 -23.871174760435494 12.091826238200685 #
straight-curve $-1 57.640919217505413 -31.196144334337621 0 0 0 -1 I I #
point $-1 57.640919217505413 -31.196144334337621 12.091826238200685 #
point $-1 41.014348777163477 -20.369610239765869 1.8449345542246911 #
point $-1 47.24931269229171 -20.369610239765869 1.8449345542246911 #
point $-1 53.484276607419943 -20.369610239765869 1.8449345542246911 #
straight-curve $-1 57.640919217505413 31.196144334337621 0 0 0 -1 I I #
straight-curve $-1 57.640919217505413 0 12.091826238200685 0 1 0 I I #
point $-1 57.640919217505413 31.196144334337617 7.4861132208213803 #
straight-curve $-1 25.639326499110446 31.196144334337617 7.4861132208213839 -1 0 0 I I #
point $-1 57.640919217505413 31.196144334337621 12.091826238200685 #
point $-1 48.551967475670381 27.556783323058905 8.4524652044976722 #
point $-1 54.005338520771403 27.556783323058905 8.4524652044976722 #
straight-curve $-1 57.640919217505413 0 12.091826238200685 0 1 0 I I #
End-of-ACIS-data 