500 0 10 0           
7 Unknown 11 ACIS 5.0 NT 24 Thu Mar 25 17:00:45 1999 
-1 9.9999999999999995e-007 1e-010 
body $-1 $10 $-1 $11 #
body $-1 $12 $-1 $13 #
body $-1 $14 $-1 $15 #
body $-1 $16 $-1 $17 #
body $-1 $18 $-1 $19 #
body $-1 $20 $-1 $21 #
body $-1 $22 $-1 $23 #
body $-1 $24 $-1 $25 #
body $-1 $26 $-1 $27 #
body $-1 $28 $-1 $29 #
lump $-1 $-1 $30 $0 #
transform $-1 1 0 0 0 1 0 0 0 1 57.395550401318403 25.636632469211584 8.1781851214384851 1 rotate no_reflect no_shear #
lump $-1 $-1 $31 $1 #
transform $-1 1 0 0 0 1 0 0 0 1 57.395550401318403 25.636632469211584 8.1781851214384851 1 rotate no_reflect no_shear #
lump $-1 $-1 $32 $2 #
transform $-1 1 0 0 0 1 0 0 0 1 57.395550401318403 25.636632469211584 8.1781851214384851 1 rotate no_reflect no_shear #
lump $-1 $-1 $33 $3 #
transform $-1 1 0 0 0 1 0 0 0 1 57.395550401318403 25.636632469211584 8.1781851214384851 1 rotate no_reflect no_shear #
lump $-1 $-1 $34 $4 #
transform $-1 1 0 0 0 1 0 0 0 1 57.395550401318403 25.636632469211584 8.1781851214384851 1 rotate no_reflect no_shear #
lump $-1 $-1 $35 $5 #
transform $-1 1 0 0 0 1 0 0 0 1 57.395550401318403 25.636632469211584 8.1781851214384851 1 rotate no_reflect no_shear #
lump $-1 $-1 $36 $6 #
transform $-1 1 0 0 0 1 0 0 0 1 57.395550401318403 25.636632469211584 8.1781851214384851 1 rotate no_reflect no_shear #
lump $-1 $-1 $37 $7 #
transform $-1 1 0 0 0 1 0 0 0 1 57.395550401318403 25.636632469211584 8.1781851214384851 1 rotate no_reflect no_shear #
lump $-1 $-1 $38 $8 #
transform $-1 1 0 0 0 1 0 0 0 1 57.395550401318403 25.636632469211584 8.1781851214384851 1 rotate no_reflect no_shear #
lump $-1 $-1 $39 $9 #
transform $-1 1 0 0 0 1 0 0 0 1 57.395550401318403 25.636632469211584 8.1781851214384851 1 rotate no_reflect no_shear #
shell $-1 $-1 $-1 $40 $-1 $10 #
shell $-1 $-1 $-1 $41 $-1 $12 #
shell $-1 $-1 $-1 $42 $-1 $14 #
shell $-1 $-1 $-1 $43 $-1 $16 #
shell $-1 $-1 $-1 $44 $-1 $18 #
shell $-1 $-1 $-1 $45 $-1 $20 #
shell $-1 $-1 $-1 $46 $-1 $22 #
shell $-1 $-1 $-1 $47 $-1 $24 #
shell $-1 $-1 $-1 $48 $-1 $26 #
shell $-1 $-1 $-1 $49 $-1 $28 #
face $-1 $50 $51 $30 $-1 $52 forward single #
face $-1 $53 $54 $31 $-1 $55 forward single #
face $-1 $56 $57 $32 $-1 $58 forward single #
face $-1 $59 $60 $33 $-1 $61 reversed single #
face $-1 $62 $63 $34 $-1 $64 forward single #
face $-1 $65 $66 $35 $-1 $67 forward single #
face $-1 $68 $69 $36 $-1 $70 forward single #
face $-1 $71 $72 $37 $-1 $73 reversed single #
face $-1 $74 $75 $38 $-1 $76 forward single #
face $-1 $77 $78 $39 $-1 $79 forward single #
face $-1 $80 $81 $30 $-1 $82 reversed single #
loop $-1 $-1 $83 $40 #
plane-surface $-1 0 0 8.1781851214384851 0 0 1 1 0 0 forward_v I I I I #
face $-1 $84 $85 $31 $-1 $86 reversed single #
loop $-1 $-1 $87 $41 #
plane-surface $-1 -57.395550401318403 0 0 1 0 0 0 0 -1 forward_v I I I I #
face $-1 $88 $89 $32 $-1 $90 reversed single #
loop $-1 $-1 $91 $42 #
plane-surface $-1 57.395550401318403 0 0 -1 0 0 0 0 1 forward_v I I I I #
face $-1 $92 $93 $33 $-1 $94 reversed single #
loop $-1 $-1 $95 $43 #
plane-surface $-1 29.096717550196054 51.628207064889942 123.31188317168481 1 0 0 0 -0.5877852598018023 -0.80901698891910034 forward_v I I I I #
face $-1 $96 $97 $34 $-1 $98 forward single #
loop $-1 $99 $100 $44 #
cone-surface $-1 32.877544653650418 19.683236240464105 3.5044686095192406 0 -0.5877852598018023 -0.80901698891910034 1.5 0 0 1 I I 0 1 1.5 forward I I I I #
face $-1 $101 $102 $35 $-1 $103 forward single #
loop $-1 $104 $105 $45 #
cone-surface $-1 38.548785308831967 19.683236240464105 3.5044686095192406 0 -0.5877852598018023 -0.80901698891910034 1.5 0 0 1 I I 0 1 1.5 forward I I I I #
face $-1 $106 $107 $36 $-1 $108 forward single #
loop $-1 $109 $110 $46 #
cone-surface $-1 44.220025964013516 19.683236240464105 3.5044686095192406 0 -0.5877852598018023 -0.80901698891910034 1.5 0 0 1 I I 0 1 1.5 forward I I I I #
face $-1 $111 $112 $37 $-1 $113 reversed single #
loop $-1 $-1 $114 $47 #
plane-surface $-1 -7.5515463865609824 -119.66799829156633 69.363336727702375 -1 0 0 0 -0.81915205242281985 0.57357642473473569 forward_v I I I I #
face $-1 $115 $116 $38 $-1 $117 forward single #
loop $-1 $118 $119 $48 #
cone-surface $-1 -27.743718432132848 -23.59686215607811 5.5632381173325252 0 0.81915205242281985 -0.57357642473473569 0.5 0 0 1 I I 0 1 0.5 forward I I I I #
face $-1 $120 $121 $39 $-1 $122 forward single #
loop $-1 $123 $124 $49 #
cone-surface $-1 -15.628415204789732 -23.59686215607811 5.5632381173325252 0 0.81915205242281985 -0.57357642473473569 0.5 0 0 1 I I 0 1 0.5 forward I I I I #
face $-1 $125 $126 $30 $-1 $127 reversed single #
loop $-1 $-1 $128 $50 #
plane-surface $-1 0 0 -8.1781851214384851 0 0 1 1 0 0 forward_v I I I I #
coedge $-1 $129 $130 $131 $132 forward $51 $-1 #
face $-1 $133 $134 $31 $-1 $135 reversed single #
loop $-1 $-1 $136 $53 #
plane-surface $-1 0 0 -8.1781851214384851 0 0 1 1 0 0 forward_v I I I I #
coedge $-1 $137 $138 $139 $140 forward $54 $-1 #
face $-1 $141 $142 $32 $-1 $143 reversed single #
loop $-1 $-1 $144 $56 #
plane-surface $-1 0 0 -8.1781851214384851 0 0 1 1 0 0 forward_v I I I I #
coedge $-1 $145 $146 $147 $148 forward $57 $-1 #
face $-1 $149 $150 $33 $-1 $151 reversed single #
loop $-1 $-1 $152 $59 #
plane-surface $-1 38.548785308831967 -15.844309943322806 30.443932445626658 0 0.5877852598018023 0.80901698891910034 1 0 0 forward_v I I I I #
coedge $-1 $153 $154 $155 $156 reversed $60 $-1 #
face $-1 $-1 $157 $34 $-1 $158 forward single #
loop $-1 $159 $160 $62 #
cone-surface $-1 32.877544653650418 18.706386540834387 2.1599503701754337 0 -0.5877852598018023 -0.80901698891910034 0.75 0 0 1 I I -0.70710678118654757 0.70710678118654757 0.75 forward I I I I #
loop $-1 $-1 $161 $44 #
coedge $-1 $100 $100 $162 $163 reversed $63 $-1 #
face $-1 $-1 $164 $35 $-1 $165 forward single #
loop $-1 $166 $167 $65 #
cone-surface $-1 38.548785308831967 18.706386540834387 2.1599503701754337 0 -0.5877852598018023 -0.80901698891910034 0.75 0 0 1 I I -0.70710678118654757 0.70710678118654757 0.75 forward I I I I #
loop $-1 $-1 $168 $45 #
coedge $-1 $105 $105 $169 $170 reversed $66 $-1 #
face $-1 $-1 $171 $36 $-1 $172 forward single #
loop $-1 $173 $174 $68 #
cone-surface $-1 44.220025964013516 18.706386540834387 2.1599503701754337 0 -0.5877852598018023 -0.80901698891910034 0.75 0 0 1 I I -0.70710678118654757 0.70710678118654757 0.75 forward I I I I #
loop $-1 $-1 $175 $46 #
coedge $-1 $110 $110 $176 $177 reversed $69 $-1 #
face $-1 $178 $179 $37 $-1 $180 reversed single #
loop $-1 $-1 $181 $71 #
plane-surface $-1 -21.686066818461285 -25.636632469211591 3.5218675379613131 0 -0.81915205242281985 0.57357642473473569 1 0 0 forward_v I I I I #
coedge $-1 $182 $183 $184 $185 reversed $72 $-1 #
face $-1 $-1 $186 $38 $-1 $187 forward single #
loop $-1 $188 $189 $74 #
cone-surface $-1 -27.743718432132848 -22.982498116760997 5.1330557987814736 0 0.81915205242281985 -0.57357642473473569 0.25 0 0 1 I I -0.70710678118654746 0.70710678118654746 0.25 forward I I I I #
loop $-1 $-1 $190 $48 #
coedge $-1 $119 $119 $191 $192 reversed $75 $-1 #
face $-1 $-1 $193 $39 $-1 $194 forward single #
loop $-1 $195 $196 $77 #
cone-surface $-1 -15.628415204789732 -22.982498116760997 5.1330557987814736 0 0.81915205242281985 -0.57357642473473569 0.25 0 0 1 I I -0.70710678118654746 0.70710678118654746 0.25 forward I I I I #
loop $-1 $-1 $197 $49 #
coedge $-1 $124 $124 $198 $199 reversed $78 $-1 #
face $-1 $200 $201 $30 $-1 $202 reversed single #
loop $-1 $-1 $203 $80 #
plane-surface $-1 0 -25.636632469211584 0 0 1 0 0 0 1 forward_v I I I I #
coedge $-1 $204 $205 $206 $207 forward $81 $-1 #
coedge $-1 $208 $83 $209 $210 forward $51 $-1 #
coedge $-1 $83 $208 $211 $212 forward $51 $-1 #
coedge $-1 $213 $214 $83 $132 reversed $215 $-1 #
edge $-1 $216 -25.636632469211584 $217 25.636632469211584 $131 $218 forward 7 unknown #
face $-1 $219 $220 $31 $-1 $221 reversed single #
loop $-1 $-1 $222 $84 #
plane-surface $-1 -62.092899068243675 -21.948320100968115 0 0 1 0 0 0 1 forward_v I I I I #
coedge $-1 $223 $224 $138 $225 forward $85 $-1 #
coedge $-1 $226 $87 $227 $228 reversed $54 $-1 #
coedge $-1 $87 $226 $136 $225 reversed $54 $-1 #
coedge $-1 $229 $230 $87 $140 reversed $231 $-1 #
edge $-1 $232 -8.1781851214384851 $233 8.1781851214384851 $139 $234 forward 7 unknown #
face $-1 $235 $236 $32 $-1 $237 reversed single #
loop $-1 $-1 $147 $88 #
plane-surface $-1 62.092899068243682 -21.948320100968115 0 0 1 0 0 0 1 forward_v I I I I #
coedge $-1 $238 $239 $146 $240 forward $89 $-1 #
coedge $-1 $241 $91 $242 $243 reversed $57 $-1 #
coedge $-1 $91 $241 $144 $240 reversed $57 $-1 #
coedge $-1 $244 $245 $91 $148 reversed $142 $-1 #
edge $-1 $246 -8.1781851214384851 $247 8.1781851214384851 $147 $248 forward 7 unknown #
face $-1 $249 $250 $33 $-1 $251 reversed single #
loop $-1 $-1 $252 $92 #
plane-surface $-1 48.000853067467879 51.628207064889942 123.31188317168481 -1 0 0 0 0.5877852598018023 0.80901698891910034 forward_v I I I I #
coedge $-1 $253 $254 $255 $256 reversed $93 $-1 #
coedge $-1 $154 $95 $257 $258 reversed $60 $-1 #
coedge $-1 $95 $153 $253 $259 reversed $60 $-1 #
coedge $-1 $255 $260 $95 $156 forward $261 $-1 #
edge $-1 $262 0.17747106323338713 $263 11.012242011171619 $155 $264 forward 7 unknown #
loop $-1 $-1 $162 $96 #
plane-surface $-1 38.548785308831967 -15.844309943322806 30.443932445626658 0 0.5877852598018023 0.80901698891910034 1 0 0 forward_v I I I I #
loop $-1 $-1 $265 $62 #
coedge $-1 $160 $160 $161 $266 reversed $97 $-1 #
coedge $-1 $161 $161 $160 $266 forward $99 $-1 #
coedge $-1 $162 $162 $100 $163 forward $157 $-1 #
edge $-1 $267 1.5680983598273928e-015 $267 6.2831853071796022 $162 $268 forward 7 unknown #
loop $-1 $-1 $169 $101 #
plane-surface $-1 38.548785308831967 -15.844309943322806 30.443932445626658 0 0.5877852598018023 0.80901698891910034 1 0 0 forward_v I I I I #
loop $-1 $-1 $269 $65 #
coedge $-1 $167 $167 $168 $270 reversed $102 $-1 #
coedge $-1 $168 $168 $167 $270 forward $104 $-1 #
coedge $-1 $169 $169 $105 $170 forward $164 $-1 #
edge $-1 $271 1.5680983598273928e-015 $271 6.2831853071796022 $169 $272 forward 7 unknown #
loop $-1 $-1 $176 $106 #
plane-surface $-1 38.548785308831967 -15.844309943322806 30.443932445626658 0 0.5877852598018023 0.80901698891910034 1 0 0 forward_v I I I I #
loop $-1 $-1 $273 $68 #
coedge $-1 $174 $174 $175 $274 reversed $107 $-1 #
coedge $-1 $175 $175 $174 $274 forward $109 $-1 #
coedge $-1 $176 $176 $110 $177 forward $171 $-1 #
edge $-1 $275 1.5680983598273928e-015 $275 6.2831853071796022 $176 $276 forward 7 unknown #
face $-1 $277 $278 $37 $-1 $279 forward single #
loop $-1 $-1 $280 $111 #
plane-surface $-1 -35.820587250361584 -119.66799829156633 69.363336727702375 1 0 0 0 0.81915205242281985 -0.57357642473473569 forward_v I I I I #
coedge $-1 $281 $282 $283 $284 reversed $112 $-1 #
coedge $-1 $183 $114 $285 $286 reversed $72 $-1 #
coedge $-1 $114 $182 $281 $287 reversed $72 $-1 #
coedge $-1 $283 $288 $114 $185 forward $278 $-1 #
edge $-1 $289 34.197366676571583 $290 37.457755250415694 $184 $291 forward 7 unknown #
loop $-1 $-1 $191 $115 #
plane-surface $-1 -21.686066818461285 -25.636632469211591 3.5218675379613131 0 -0.81915205242281985 0.57357642473473569 1 0 0 forward_v I I I I #
loop $-1 $-1 $292 $74 #
coedge $-1 $189 $189 $190 $293 reversed $116 $-1 #
coedge $-1 $190 $190 $189 $293 forward $118 $-1 #
coedge $-1 $191 $191 $119 $192 forward $186 $-1 #
edge $-1 $294 5.8566605331526036e-016 $294 6.2831853071796013 $191 $295 forward 7 unknown #
loop $-1 $-1 $198 $120 #
plane-surface $-1 -21.686066818461285 -25.636632469211591 3.5218675379613131 0 -0.81915205242281985 0.57357642473473569 1 0 0 forward_v I I I I #
loop $-1 $-1 $296 $77 #
coedge $-1 $196 $196 $197 $297 reversed $121 $-1 #
coedge $-1 $197 $197 $196 $297 forward $123 $-1 #
coedge $-1 $198 $198 $124 $199 forward $193 $-1 #
edge $-1 $298 5.8566605331526036e-016 $298 6.2831853071796013 $198 $299 forward 7 unknown #
face $-1 $300 $301 $30 $-1 $302 reversed single #
loop $-1 $-1 $303 $125 #
plane-surface $-1 -57.395550401318403 0 0 1 0 0 0 0 -1 forward_v I I I I #
coedge $-1 $304 $211 $305 $306 forward $126 $-1 #
coedge $-1 $307 $128 $304 $308 forward $81 $-1 #
coedge $-1 $128 $307 $309 $310 forward $81 $-1 #
coedge $-1 $214 $213 $128 $207 reversed $215 $-1 #
edge $-1 $311 -25.636632469211584 $312 25.636632469211584 $206 $313 forward 7 unknown #
coedge $-1 $130 $129 $314 $315 forward $51 $-1 #
coedge $-1 $316 $317 $129 $210 reversed $301 $-1 #
edge $-1 $217 -57.395550401318403 $318 57.395550401318403 $209 $319 forward 7 unknown #
coedge $-1 $203 $320 $130 $212 reversed $126 $-1 #
edge $-1 $321 -57.395550401318403 $216 57.395550401318403 $211 $322 forward 7 unknown #
coedge $-1 $206 $131 $320 $323 forward $215 $-1 #
coedge $-1 $131 $206 $316 $324 reversed $215 $-1 #
loop $-1 $-1 $213 $300 #
vertex $-1 $132 $325 #
vertex $-1 $132 $326 #
straight-curve $-1 57.395550401318403 0 8.1781851214384851 0 1 0 I I #
face $-1 $327 $231 $31 $-1 $328 reversed single #
loop $-1 $-1 $329 $133 #
plane-surface $-1 -66.790247735168947 -20.226750609951353 0 1 0 0 0 0 -1 forward_v I I I I #
coedge $-1 $330 $331 $332 $333 forward $134 $-1 #
coedge $-1 $334 $136 $330 $335 forward $85 $-1 #
coedge $-1 $136 $334 $229 $336 forward $85 $-1 #
edge $-1 $232 18.505181118934591 $337 21.948320100968115 $136 $338 forward 7 unknown #
coedge $-1 $138 $137 $339 $340 forward $54 $-1 #
coedge $-1 $341 $342 $137 $228 forward $343 $-1 #
edge $-1 $344 -21.948320100968115 $233 -18.505181118934591 $227 $345 forward 7 unknown #
coedge $-1 $346 $139 $224 $336 reversed $231 $-1 #
coedge $-1 $139 $346 $341 $347 reversed $231 $-1 #
loop $-1 $-1 $139 $219 #
vertex $-1 $225 $348 #
vertex $-1 $347 $349 #
straight-curve $-1 -57.395550401318403 -18.505181118934591 0 0 0 1 I I #
face $-1 $350 $351 $32 $-1 $352 reversed single #
loop $-1 $-1 $353 $141 #
plane-surface $-1 62.092899068243682 -18.505181118934591 0 0 -1 0 0 0 -1 forward_v I I I I #
coedge $-1 $354 $144 $355 $356 forward $89 $-1 #
coedge $-1 $144 $354 $244 $357 forward $89 $-1 #
edge $-1 $246 -21.948320100968115 $358 -18.505181118934591 $144 $359 forward 7 unknown #
coedge $-1 $146 $145 $360 $361 forward $57 $-1 #
coedge $-1 $362 $363 $145 $243 forward $364 $-1 #
edge $-1 $365 18.505181118934591 $247 21.948320100968115 $242 $366 forward 7 unknown #
coedge $-1 $367 $147 $239 $357 reversed $142 $-1 #
coedge $-1 $147 $367 $362 $368 reversed $142 $-1 #
vertex $-1 $240 $369 #
vertex $-1 $368 $370 #
straight-curve $-1 57.395550401318403 -21.948320100968115 0 0 0 1 I I #
face $-1 $-1 $261 $33 $-1 $371 forward single #
loop $-1 $-1 $372 $149 #
plane-surface $-1 0 25.636632469211584 0 0 -1 0 0 0 -1 forward_v I I I I #
coedge $-1 $373 $374 $375 $376 reversed $150 $-1 #
coedge $-1 $377 $152 $154 $259 forward $93 $-1 #
coedge $-1 $152 $377 $373 $378 forward $93 $-1 #
coedge $-1 $375 $155 $152 $256 forward $261 $-1 #
edge $-1 $263 9.8223248957800706 $379 28.726460413051896 $255 $380 forward 7 unknown #
coedge $-1 $381 $382 $153 $258 forward $250 $-1 #
edge $-1 $383 -61.34967849293345 $262 -53.477756464403924 $257 $384 forward 7 unknown #
edge $-1 $263 37.88075143581527 $383 51.273264938423161 $154 $385 forward 7 unknown #
coedge $-1 $155 $375 $381 $386 forward $261 $-1 #
loop $-1 $-1 $375 $249 #
vertex $-1 $258 $387 #
vertex $-1 $156 $388 #
straight-curve $-1 29.096717550196054 25.814103532444971 8.1781851214384886 0 -1 0 I I #
coedge $-1 $265 $265 $-1 $389 reversed $159 $-1 #
edge $-1 $390 0 $390 6.2831853071796004 $160 $391 forward 7 unknown #
vertex $-1 $163 $392 #
ellipse-curve $-1 32.877544653650418 20.219246995242468 4.2422241071737217 0 0.5877852598018023 0.80901698891910034 1.5 0 0 1 I I #
coedge $-1 $269 $269 $-1 $393 reversed $166 $-1 #
edge $-1 $394 0 $394 6.2831853071796004 $167 $395 forward 7 unknown #
vertex $-1 $170 $396 #
ellipse-curve $-1 38.548785308831967 20.219246995242468 4.2422241071737217 0 0.5877852598018023 0.80901698891910034 1.5 0 0 1 I I #
coedge $-1 $273 $273 $-1 $397 reversed $173 $-1 #
edge $-1 $398 0 $398 6.2831853071796004 $174 $399 forward 7 unknown #
vertex $-1 $177 $400 #
ellipse-curve $-1 44.220025964013516 20.219246995242468 4.2422241071737217 0 0.5877852598018023 0.80901698891910034 1.5 0 0 1 I I #
face $-1 $-1 $401 $37 $-1 $402 reversed single #
loop $-1 $-1 $184 $178 #
plane-surface $-1 0 0 8.1781851214384851 0 0 1 1 0 0 forward_v I I I I #
coedge $-1 $403 $404 $405 $406 reversed $179 $-1 #
coedge $-1 $407 $181 $183 $287 forward $112 $-1 #
coedge $-1 $181 $407 $403 $408 forward $112 $-1 #
coedge $-1 $405 $184 $181 $284 forward $278 $-1 #
edge $-1 $290 -3.29148702266966 $409 24.977553841130941 $283 $410 forward 7 unknown #
coedge $-1 $411 $412 $182 $286 forward $401 $-1 #
edge $-1 $413 -31.159800825889864 $289 -26.503483242412702 $285 $414 forward 7 unknown #
edge $-1 $290 -5.6843141266692827 $413 -1.2442367137257826e-014 $183 $415 forward 7 unknown #
coedge $-1 $184 $405 $411 $416 forward $278 $-1 #
vertex $-1 $185 $417 #
vertex $-1 $185 $418 #
straight-curve $-1 -7.5515463865609824 -59.833999145783167 8.1781851214384851 0 1 0 I I #
coedge $-1 $292 $292 $-1 $419 reversed $188 $-1 #
edge $-1 $420 0 $420 6.2831853071796004 $189 $421 forward 7 unknown #
vertex $-1 $192 $422 #
ellipse-curve $-1 -27.743718432132848 -24.006438182289532 5.8500263296999 0 -0.81915205242281985 0.57357642473473569 0.5 0 0 1 I I #
coedge $-1 $296 $296 $-1 $423 reversed $195 $-1 #
edge $-1 $424 0 $424 6.2831853071796004 $196 $425 forward 7 unknown #
vertex $-1 $199 $426 #
ellipse-curve $-1 -15.628415204789732 -24.006438182289532 5.8500263296999 0 -0.81915205242281985 0.57357642473473569 0.5 0 0 1 I I #
face $-1 $-1 $215 $30 $-1 $427 reversed single #
loop $-1 $-1 $316 $200 #
plane-surface $-1 0 25.636632469211584 0 0 -1 0 0 0 -1 forward_v I I I I #
coedge $-1 $428 $314 $317 $429 forward $201 $-1 #
coedge $-1 $320 $203 $204 $308 reversed $126 $-1 #
coedge $-1 $314 $428 $203 $306 reversed $201 $-1 #
edge $-1 $321 -8.1781851214384851 $430 8.1781851214384851 $305 $431 forward 7 unknown #
coedge $-1 $205 $204 $428 $432 forward $81 $-1 #
edge $-1 $312 -57.395550401318403 $430 57.395550401318403 $304 $433 forward 7 unknown #
coedge $-1 $317 $316 $205 $310 reversed $301 $-1 #
edge $-1 $434 -57.395550401318403 $311 57.395550401318403 $309 $435 forward 7 unknown #
vertex $-1 $207 $436 #
vertex $-1 $323 $437 #
straight-curve $-1 57.395550401318403 0 -8.1781851214384851 0 -1 0 I I #
coedge $-1 $303 $305 $208 $315 reversed $201 $-1 #
edge $-1 $318 -25.636632469211584 $321 25.636632469211584 $314 $438 forward 7 unknown #
coedge $-1 $309 $209 $214 $324 forward $301 $-1 #
coedge $-1 $209 $309 $303 $429 reversed $301 $-1 #
vertex $-1 $210 $439 #
straight-curve $-1 0 25.636632469211584 8.1781851214384851 -1 0 0 I I #
coedge $-1 $211 $304 $213 $323 reversed $126 $-1 #
vertex $-1 $315 $440 #
straight-curve $-1 0 -25.636632469211584 8.1781851214384851 1 0 0 I I #
edge $-1 $216 -8.1781851214384851 $312 8.1781851214384851 $213 $441 forward 7 unknown #
edge $-1 $217 -8.1781851214384851 $311 8.1781851214384851 $214 $442 forward 7 unknown #
point $-1 57.395550401318403 -25.636632469211584 8.1781851214384851 #
point $-1 57.395550401318403 25.636632469211584 8.1781851214384851 #
face $-1 $-1 $343 $31 $-1 $443 forward single #
plane-surface $-1 -62.092899068243675 -18.505181118934591 0 0 -1 0 0 0 -1 forward_v I I I I #
coedge $-1 $444 $445 $346 $446 forward $220 $-1 #
coedge $-1 $339 $222 $223 $335 reversed $134 $-1 #
coedge $-1 $222 $339 $342 $447 reversed $134 $-1 #
coedge $-1 $445 $444 $222 $333 reversed $220 $-1 #
edge $-1 $448 -8.1781851214384851 $449 8.1781851214384851 $332 $450 forward 7 unknown #
coedge $-1 $224 $223 $444 $451 forward $85 $-1 #
edge $-1 $337 -4.6973486669252722 $449 4.6973486669252722 $330 $452 forward 7 unknown #
edge $-1 $453 -4.6973486669252722 $232 4.6973486669252722 $229 $454 forward 7 unknown #
vertex $-1 $335 $455 #
straight-curve $-1 -57.395550401318403 0 -8.1781851214384851 0 -1 0 I I #
coedge $-1 $331 $330 $226 $340 reversed $134 $-1 #
edge $-1 $344 -8.1781851214384851 $337 8.1781851214384851 $339 $456 forward 7 unknown #
coedge $-1 $457 $227 $230 $347 forward $343 $-1 #
coedge $-1 $227 $457 $331 $447 forward $343 $-1 #
loop $-1 $-1 $227 $327 #
vertex $-1 $228 $458 #
straight-curve $-1 -57.395550401318403 0 8.1781851214384851 0 1 0 I I #
coedge $-1 $230 $229 $329 $446 reversed $231 $-1 #
edge $-1 $233 -4.6973486669252722 $459 4.6973486669252722 $230 $460 forward 7 unknown #
point $-1 -57.395550401318403 -18.505181118934591 -8.1781851214384851 #
point $-1 -57.395550401318403 -18.505181118934591 8.1781851214384851 #
face $-1 $-1 $364 $32 $-1 $461 forward single #
loop $-1 $-1 $462 $235 #
plane-surface $-1 66.790247735168947 -20.226750609951353 0 -1 0 0 0 0 1 forward_v I I I I #
coedge $-1 $355 $463 $464 $465 forward $236 $-1 #
coedge $-1 $239 $238 $466 $467 forward $89 $-1 #
coedge $-1 $360 $353 $238 $356 reversed $236 $-1 #
edge $-1 $358 -4.6973486669252722 $468 4.6973486669252651 $355 $469 forward 7 unknown #
edge $-1 $470 -4.6973486669252651 $246 4.6973486669252722 $244 $471 forward 7 unknown #
vertex $-1 $356 $472 #
straight-curve $-1 57.395550401318403 0 -8.1781851214384851 0 1 0 I I #
coedge $-1 $463 $355 $241 $361 reversed $236 $-1 #
edge $-1 $365 -8.1781851214384851 $358 8.1781851214384851 $360 $473 forward 7 unknown #
coedge $-1 $474 $242 $245 $368 forward $364 $-1 #
coedge $-1 $242 $474 $463 $475 forward $364 $-1 #
loop $-1 $-1 $242 $350 #
vertex $-1 $243 $476 #
straight-curve $-1 57.395550401318403 0 8.1781851214384851 0 -1 0 I I #
coedge $-1 $245 $244 $462 $477 reversed $142 $-1 #
edge $-1 $247 -4.6973486669252722 $478 4.6973486669252651 $245 $479 forward 7 unknown #
point $-1 57.39555040131841 -21.948320100968115 -8.1781851214384851 #
point $-1 57.39555040131841 -21.948320100968115 8.1781851214384851 #
plane-surface $-1 0 0 8.1781851214384851 0 0 1 1 0 0 forward_v I I I I #
coedge $-1 $382 $381 $374 $480 forward $250 $-1 #
coedge $-1 $374 $252 $254 $378 reversed $150 $-1 #
coedge $-1 $252 $373 $372 $480 reversed $150 $-1 #
coedge $-1 $260 $255 $252 $376 forward $261 $-1 #
edge $-1 $379 -11.012242011171619 $481 -0.17747106323338713 $375 $482 forward 7 unknown #
coedge $-1 $254 $253 $382 $483 reversed $93 $-1 #
edge $-1 $484 -51.273264938423161 $379 -37.88075143581527 $373 $485 forward 7 unknown #
vertex $-1 $256 $486 #
straight-curve $-1 19.274392654415983 14.801861521273345 8.1781851214384869 1 0 0 I I #
coedge $-1 $372 $257 $260 $386 reversed $250 $-1 #
coedge $-1 $257 $372 $377 $483 forward $250 $-1 #
vertex $-1 $258 $487 #
straight-curve $-1 29.096717550196054 25.636632469211584 61.655941585842406 0 0 1 I I #
straight-curve $-1 29.096717550196054 -15.844309943322806 30.443932445626658 0 0.80901698891910034 -0.5877852598018023 I I #
edge $-1 $481 -48.000853067467879 $262 -29.096717550196054 $381 $488 forward 7 unknown #
point $-1 29.096717550196054 25.636632469211584 8.1781851214384851 #
point $-1 29.096717550196054 14.801861521273352 8.1781851214384851 #
edge $-1 $489 1 $489 0 $265 $-1 forward 7 unknown #
vertex $-1 $266 $490 #
ellipse-curve $-1 32.877544653650418 19.147225485685738 2.766713111864759 0 0.5877852598018023 0.80901698891910034 1.5 0 0 1 I I #
point $-1 34.377544653650418 20.219246995242472 4.2422241071737226 #
edge $-1 $491 1 $491 0 $269 $-1 forward 7 unknown #
vertex $-1 $270 $492 #
ellipse-curve $-1 38.548785308831967 19.147225485685738 2.766713111864759 0 0.5877852598018023 0.80901698891910034 1.5 0 0 1 I I #
point $-1 40.048785308831967 20.219246995242472 4.2422241071737226 #
edge $-1 $493 1 $493 0 $273 $-1 forward 7 unknown #
vertex $-1 $274 $494 #
ellipse-curve $-1 44.220025964013516 19.147225485685738 2.766713111864759 0 0.5877852598018023 0.80901698891910034 1.5 0 0 1 I I #
point $-1 45.720025964013516 20.219246995242472 4.2422241071737226 #
loop $-1 $-1 $285 $277 #
plane-surface $-1 0 -25.636632469211584 0 0 1 0 0 0 1 forward_v I I I I #
coedge $-1 $404 $280 $282 $408 reversed $179 $-1 #
coedge $-1 $280 $403 $495 $496 reversed $179 $-1 #
coedge $-1 $288 $283 $280 $406 forward $278 $-1 #
edge $-1 $409 -37.457755250415694 $497 -34.197366676571583 $405 $498 forward 7 unknown #
coedge $-1 $282 $281 $412 $499 reversed $112 $-1 #
edge $-1 $500 1.2442367137257826e-014 $409 5.6843141266692827 $403 $501 forward 7 unknown #
vertex $-1 $284 $502 #
straight-curve $-1 -10.843033409230642 -22.376243895367473 8.1781851214384851 -1 0 0 I I #
coedge $-1 $495 $285 $288 $416 reversed $401 $-1 #
coedge $-1 $285 $495 $407 $499 forward $401 $-1 #
vertex $-1 $286 $503 #
straight-curve $-1 -7.5515463865609824 -25.636632469211584 34.681668363851188 0 0 1 I I #
straight-curve $-1 -7.5515463865609824 -25.636632469211591 3.5218675379613131 0 -0.57357642473473569 -0.81915205242281985 I I #
edge $-1 $497 -35.820587250361584 $289 -7.5515463865609824 $411 $504 forward 7 unknown #
point $-1 -7.5515463865609824 -25.636632469211584 8.1781851214384851 #
point $-1 -7.5515463865609824 -22.376243895367473 8.1781851214384851 #
edge $-1 $505 1 $505 0 $292 $-1 forward 7 unknown #
vertex $-1 $293 $506 #
ellipse-curve $-1 -27.743718432132848 -23.187286129866703 5.2764499049651574 0 -0.81915205242281985 0.57357642473473569 0.5 0 0 1 I I #
point $-1 -27.243718432132848 -24.006438182289521 5.8500263296998929 #
edge $-1 $507 1 $507 0 $296 $-1 forward 7 unknown #
vertex $-1 $297 $508 #
ellipse-curve $-1 -15.628415204789732 -23.187286129866703 5.2764499049651574 0 -0.81915205242281985 0.57357642473473569 0.5 0 0 1 I I #
point $-1 -15.128415204789732 -24.006438182289521 5.8500263296998929 #
plane-surface $-1 57.395550401318403 0 0 -1 0 0 0 0 1 forward_v I I I I #
coedge $-1 $305 $303 $307 $432 reversed $201 $-1 #
edge $-1 $318 -8.1781851214384851 $434 8.1781851214384851 $317 $509 forward 7 unknown #
vertex $-1 $432 $510 #
straight-curve $-1 -57.395550401318403 -25.636632469211584 0 0 0 -1 I I #
edge $-1 $430 -25.636632469211584 $434 25.636632469211584 $428 $511 forward 7 unknown #
straight-curve $-1 0 -25.636632469211584 -8.1781851214384851 -1 0 0 I I #
vertex $-1 $310 $512 #
straight-curve $-1 0 25.636632469211584 -8.1781851214384851 1 0 0 I I #
point $-1 57.395550401318403 25.636632469211584 -8.1781851214384851 #
point $-1 57.395550401318403 -25.636632469211584 -8.1781851214384851 #
straight-curve $-1 -57.395550401318403 0 8.1781851214384851 0 -1 0 I I #
point $-1 -57.395550401318403 25.636632469211584 8.1781851214384851 #
point $-1 -57.395550401318403 -25.636632469211584 8.1781851214384851 #
straight-curve $-1 57.395550401318403 -25.636632469211584 0 0 0 -1 I I #
straight-curve $-1 57.395550401318403 25.636632469211584 0 0 0 -1 I I #
plane-surface $-1 0 0 8.1781851214384851 0 0 1 1 0 0 forward_v I I I I #
coedge $-1 $332 $329 $334 $451 reversed $220 $-1 #
coedge $-1 $329 $332 $457 $513 reversed $220 $-1 #
edge $-1 $459 -8.1781851214384851 $453 8.1781851214384851 $346 $514 forward 7 unknown #
edge $-1 $448 -4.6973486669252722 $344 4.6973486669252722 $331 $515 forward 7 unknown #
vertex $-1 $513 $516 #
vertex $-1 $451 $517 #
straight-curve $-1 -66.790247735168947 -21.948320100968115 0 0 0 -1 I I #
edge $-1 $449 -1.721569491016762 $453 1.721569491016762 $444 $518 forward 7 unknown #
straight-curve $-1 -62.092899068243675 -21.948320100968115 -8.1781851214384851 -1 0 0 I I #
vertex $-1 $336 $519 #
straight-curve $-1 -62.092899068243675 -18.505181118934591 -8.1781851214384851 1 0 0 I I #
point $-1 -57.395550401318403 -21.948320100968115 -8.1781851214384851 #
straight-curve $-1 -57.395550401318403 -21.948320100968115 0 0 0 -1 I I #
coedge $-1 $342 $341 $445 $513 forward $343 $-1 #
point $-1 -57.395550401318403 -21.948320100968115 8.1781851214384851 #
vertex $-1 $347 $520 #
straight-curve $-1 -62.092899068243675 -18.505181118934591 8.1781851214384851 -1 0 0 I I #
plane-surface $-1 0 0 8.1781851214384851 0 0 1 1 0 0 forward_v I I I I #
coedge $-1 $466 $521 $367 $477 forward $351 $-1 #
coedge $-1 $353 $360 $363 $475 reversed $236 $-1 #
coedge $-1 $521 $466 $353 $465 reversed $351 $-1 #
edge $-1 $522 -8.1781851214384851 $468 8.1781851214384851 $464 $523 forward 7 unknown #
coedge $-1 $464 $462 $354 $467 reversed $351 $-1 #
edge $-1 $468 -1.721569491016762 $470 1.721569491016762 $466 $524 forward 7 unknown #
vertex $-1 $467 $525 #
straight-curve $-1 62.092899068243682 -18.505181118934591 -8.1781851214384851 1 0 0 I I #
vertex $-1 $477 $526 #
straight-curve $-1 62.092899068243682 -21.948320100968115 -8.1781851214384851 -1 0 0 I I #
point $-1 57.39555040131841 -18.505181118934591 -8.1781851214384851 #
straight-curve $-1 57.395550401318403 -18.505181118934591 0 0 0 -1 I I #
coedge $-1 $363 $362 $521 $527 forward $364 $-1 #
edge $-1 $522 -4.6973486669252651 $365 4.6973486669252722 $463 $528 forward 7 unknown #
point $-1 57.39555040131841 -18.505181118934591 8.1781851214384851 #
edge $-1 $478 -8.1781851214384851 $470 8.1781851214384851 $462 $529 forward 7 unknown #
vertex $-1 $527 $530 #
straight-curve $-1 62.092899068243682 -21.948320100968115 8.1781851214384851 1 0 0 I I #
edge $-1 $481 53.477756464403924 $484 61.34967849293345 $372 $531 forward 7 unknown #
vertex $-1 $386 $532 #
straight-curve $-1 48.000853067467879 25.814103532444971 8.1781851214384886 0 1 0 I I #
edge $-1 $484 -28.726460413051896 $383 -9.8223248957800706 $382 $533 forward 7 unknown #
vertex $-1 $483 $534 #
straight-curve $-1 48.000853067467879 -15.844309943322806 30.443932445626658 0 -0.80901698891910034 0.5877852598018023 I I #
point $-1 48.000853067467879 14.801861521273352 8.1781851214384851 #
point $-1 29.096717550196054 25.636632469211584 0.30626309290895648 #
straight-curve $-1 0 25.636632469211584 8.1781851214384851 -1 0 0 I I #
vertex $-1 $389 $535 #
point $-1 34.377544653650418 19.147225485685738 2.766713111864759 #
vertex $-1 $393 $536 #
point $-1 40.048785308831967 19.147225485685738 2.766713111864759 #
vertex $-1 $397 $537 #
point $-1 45.720025964013516 19.147225485685738 2.766713111864759 #
coedge $-1 $412 $411 $404 $496 forward $401 $-1 #
edge $-1 $497 26.503483242412702 $500 31.159800825889864 $495 $538 forward 7 unknown #
vertex $-1 $416 $539 #
straight-curve $-1 -35.820587250361584 -59.833999145783167 8.1781851214384851 0 -1 0 I I #
edge $-1 $500 -24.977553841130941 $413 3.29148702266966 $412 $540 forward 7 unknown #
vertex $-1 $499 $541 #
straight-curve $-1 -35.820587250361584 -25.636632469211591 3.5218675379613131 0 0.57357642473473569 0.81915205242281985 I I #
point $-1 -35.820587250361584 -22.376243895367473 8.1781851214384851 #
point $-1 -7.5515463865609824 -25.636632469211584 3.5218675379613233 #
straight-curve $-1 0 -25.636632469211584 8.1781851214384851 1 0 0 I I #
vertex $-1 $419 $542 #
point $-1 -27.243718432132848 -23.187286129866703 5.2764499049651574 #
vertex $-1 $423 $543 #
point $-1 -15.128415204789732 -23.187286129866703 5.2764499049651574 #
straight-curve $-1 -57.395550401318403 25.636632469211584 0 0 0 -1 I I #
point $-1 -57.395550401318403 -25.636632469211584 -8.1781851214384851 #
straight-curve $-1 -57.395550401318403 0 -8.1781851214384851 0 1 0 I I #
point $-1 -57.395550401318403 25.636632469211584 -8.1781851214384851 #
edge $-1 $459 -1.721569491016762 $448 1.721569491016762 $445 $544 forward 7 unknown #
straight-curve $-1 -66.790247735168947 -18.505181118934591 0 0 0 -1 I I #
straight-curve $-1 -62.092899068243675 -21.948320100968115 8.1781851214384851 1 0 0 I I #
point $-1 -66.790247735168947 -21.948320100968115 8.1781851214384851 #
point $-1 -66.790247735168947 -21.948320100968115 -8.1781851214384851 #
straight-curve $-1 -66.790247735168947 -20.226750609951353 -8.1781851214384851 0 1 0 I I #
point $-1 -66.790247735168947 -18.505181118934591 -8.1781851214384851 #
point $-1 -66.790247735168947 -18.505181118934591 8.1781851214384851 #
coedge $-1 $462 $464 $474 $527 reversed $351 $-1 #
vertex $-1 $527 $545 #
straight-curve $-1 66.790247735168947 -18.505181118934591 0 0 0 -1 I I #
straight-curve $-1 66.790247735168947 -20.226750609951353 -8.1781851214384851 0 -1 0 I I #
point $-1 66.790247735168947 -18.505181118934591 -8.1781851214384851 #
point $-1 66.790247735168947 -21.948320100968115 -8.1781851214384851 #
edge $-1 $478 -1.721569491016762 $522 1.721569491016762 $521 $546 forward 7 unknown #
straight-curve $-1 62.092899068243682 -18.505181118934591 8.1781851214384851 -1 0 0 I I #
straight-curve $-1 66.790247735168947 -21.948320100968115 0 0 0 -1 I I #
point $-1 66.790247735168947 -21.948320100968115 8.1781851214384851 #
straight-curve $-1 48.000853067467879 25.636632469211584 61.655941585842406 0 0 -1 I I #
point $-1 48.000853067467879 25.636632469211584 8.1781851214384851 #
straight-curve $-1 19.274392654415983 25.636632469211584 0.30626309290895826 -1 0 0 I I #
point $-1 48.000853067467879 25.636632469211584 0.30626309290895648 #
point $-1 32.877544653650418 18.265547595983037 1.5531876284861084 #
point $-1 38.548785308831967 18.265547595983037 1.5531876284861084 #
point $-1 44.220025964013516 18.265547595983037 1.5531876284861084 #
straight-curve $-1 -35.820587250361584 -25.636632469211584 34.681668363851188 0 0 -1 I I #
point $-1 -35.820587250361584 -25.636632469211584 8.1781851214384851 #
straight-curve $-1 -10.843033409230642 -25.636632469211584 3.5218675379613233 1 0 0 I I #
point $-1 -35.820587250361584 -25.636632469211584 3.5218675379613233 #
point $-1 -27.743718432132848 -22.777710103655291 4.9896616925977897 #
point $-1 -15.628415204789732 -22.777710103655291 4.9896616925977897 #
straight-curve $-1 -66.790247735168947 -20.226750609951353 8.1781851214384851 0 -1 0 I I #
point $-1 66.790247735168947 -18.505181118934591 8.1781851214384851 #
straight-curve $-1 66.790247735168947 -20.226750609951353 8.1781851214384851 0 1 0 I I #
End-of-ACIS-data 