500 0 7 0           
7 Unknown 11 ACIS 5.0 NT 24 Fri Mar 26 02:58:51 1999 
-1 9.9999999999999995e-007 1e-010 
body $-1 $7 $-1 $8 #
body $-1 $9 $-1 $10 #
body $-1 $11 $-1 $12 #
body $-1 $13 $-1 $14 #
body $-1 $15 $-1 $16 #
body $-1 $17 $-1 $18 #
body $-1 $19 $-1 $20 #
lump $-1 $-1 $21 $0 #
transform $-1 1 0 0 0 1 0 0 0 1 59.191259498886076 26.518377924242305 9.6581215952060084 1 rotate no_reflect no_shear #
lump $-1 $-1 $22 $1 #
transform $-1 1 0 0 0 1 0 0 0 1 59.191259498886076 26.518377924242305 9.6581215952060084 1 rotate no_reflect no_shear #
lump $-1 $-1 $23 $2 #
transform $-1 1 0 0 0 1 0 0 0 1 59.191259498886076 26.518377924242305 9.6581215952060084 1 rotate no_reflect no_shear #
lump $-1 $-1 $24 $3 #
transform $-1 1 0 0 0 1 0 0 0 1 59.191259498886076 26.518377924242305 9.6581215952060084 1 rotate no_reflect no_shear #
lump $-1 $-1 $25 $4 #
transform $-1 1 0 0 0 1 0 0 0 1 59.191259498886076 26.518377924242305 9.6581215952060084 1 rotate no_reflect no_shear #
lump $-1 $-1 $26 $5 #
transform $-1 1 0 0 0 1 0 0 0 1 59.191259498886076 26.518377924242305 9.6581215952060084 1 rotate no_reflect no_shear #
lump $-1 $-1 $27 $6 #
transform $-1 1 0 0 0 1 0 0 0 1 59.191259498886076 26.518377924242305 9.6581215952060084 1 rotate no_reflect no_shear #
shell $-1 $-1 $-1 $28 $-1 $7 #
shell $-1 $-1 $-1 $29 $-1 $9 #
shell $-1 $-1 $-1 $30 $-1 $11 #
shell $-1 $-1 $-1 $31 $-1 $13 #
shell $-1 $-1 $-1 $32 $-1 $15 #
shell $-1 $-1 $-1 $33 $-1 $17 #
shell $-1 $-1 $-1 $34 $-1 $19 #
face $-1 $35 $36 $21 $-1 $37 forward single #
face $-1 $38 $39 $22 $-1 $40 forward single #
face $-1 $41 $42 $23 $-1 $43 reversed single #
face $-1 $44 $45 $24 $-1 $46 forward single #
face $-1 $47 $48 $25 $-1 $49 forward single #
face $-1 $50 $51 $26 $-1 $52 reversed single #
face $-1 $53 $54 $27 $-1 $55 forward single #
face $-1 $56 $57 $21 $-1 $58 reversed single #
loop $-1 $-1 $59 $28 #
plane-surface $-1 0 0 9.6581215952060084 0 0 1 1 0 0 forward_v I I I I #
face $-1 $60 $61 $22 $-1 $62 reversed single #
loop $-1 $-1 $63 $29 #
plane-surface $-1 -54.235552834837804 0 -4.2906382774466643 0 0 1 1 0 0 forward_v I I I I #
face $-1 $64 $65 $23 $-1 $66 reversed single #
loop $-1 $-1 $67 $30 #
plane-surface $-1 -17.553243592598754 -114.493735324765 84.737247449556847 1 0 0 0 0.74314483375859142 -0.66913059716165679 forward_v I I I I #
face $-1 $68 $69 $24 $-1 $70 forward single #
loop $-1 $71 $72 $31 #
cone-surface $-1 -11.069351081428309 -23.28212300964914 6.3529355039667017 0 0.74314483375859142 -0.66913059716165679 1 0 0 1 I I 0 1 1 forward I I I I #
face $-1 $73 $74 $25 $-1 $75 forward single #
loop $-1 $76 $77 $32 #
cone-surface $-1 -1.3435123146726369 -23.28212300964914 6.3529355039667017 0 0.74314483375859142 -0.66913059716165679 1 0 0 1 I I 0 1 1 forward I I I I #
face $-1 $78 $79 $26 $-1 $80 reversed single #
loop $-1 $-1 $81 $33 #
plane-surface $-1 -10.280484978144152 46.513753774943453 131.62049537006627 1 0 0 0 -0.54463904215088732 -0.83867056331134215 forward_v I I I I #
face $-1 $82 $83 $27 $-1 $84 forward single #
loop $-1 $85 $86 $34 #
cone-surface $-1 -2.4764379777786374 20.32632827943489 4.3789782330353013 0 -0.54463904215088732 -0.83867056331134215 2 0 0 1 I I 0 1 2 forward I I I I #
face $-1 $87 $88 $21 $-1 $89 reversed single #
loop $-1 $-1 $90 $35 #
plane-surface $-1 0 0 -9.6581215952060084 0 0 1 1 0 0 forward_v I I I I #
coedge $-1 $91 $92 $93 $94 forward $36 $-1 #
face $-1 $95 $96 $22 $-1 $97 reversed single #
loop $-1 $-1 $98 $38 #
plane-surface $-1 -49.279846170789533 0 -6.9743799363263363 -1 0 0 0 0 1 forward_v I I I I #
coedge $-1 $99 $100 $101 $102 forward $39 $-1 #
face $-1 $103 $104 $23 $-1 $105 reversed single #
loop $-1 $-1 $106 $41 #
plane-surface $-1 -6.2064316980504728 -26.518377924242316 5.5238818190763936 0 -0.74314483375859142 0.66913059716165679 1 0 0 forward_v I I I I #
coedge $-1 $107 $108 $109 $110 reversed $42 $-1 #
face $-1 $-1 $111 $24 $-1 $112 forward single #
loop $-1 $113 $114 $44 #
cone-surface $-1 -11.069351081428309 -21.535538739115285 4.7803040022113894 0 0.74314483375859142 -0.66913059716165679 0.5 0 0 1 I I -0.70710678118654746 0.70710678118654746 0.5 forward I I I I #
loop $-1 $-1 $115 $31 #
coedge $-1 $72 $72 $116 $117 reversed $45 $-1 #
face $-1 $-1 $118 $25 $-1 $119 forward single #
loop $-1 $120 $121 $47 #
cone-surface $-1 -1.3435123146726369 -21.535538739115285 4.7803040022113894 0 0.74314483375859142 -0.66913059716165679 0.5 0 0 1 I I -0.70710678118654746 0.70710678118654746 0.5 forward I I I I #
loop $-1 $-1 $122 $32 #
coedge $-1 $77 $77 $123 $124 reversed $48 $-1 #
face $-1 $125 $126 $26 $-1 $127 reversed single #
loop $-1 $-1 $128 $50 #
plane-surface $-1 -2.4764379777786374 -17.961987979412399 32.336561475989029 0 0.54463904215088732 0.83867056331134215 1 0 0 forward_v I I I I #
coedge $-1 $129 $130 $131 $132 reversed $51 $-1 #
face $-1 $-1 $133 $27 $-1 $134 forward single #
loop $-1 $135 $136 $53 #
cone-surface $-1 -2.4764379777786374 18.368955366359824 1.364888319216309 0 -0.54463904215088732 -0.83867056331134215 1 0 0 1 I I -0.70710678118654746 0.70710678118654746 1 forward I I I I #
loop $-1 $-1 $137 $34 #
coedge $-1 $86 $86 $138 $139 reversed $54 $-1 #
face $-1 $140 $141 $21 $-1 $142 reversed single #
loop $-1 $-1 $143 $56 #
plane-surface $-1 0 -26.518377924242305 0 0 1 0 0 0 1 forward_v I I I I #
coedge $-1 $144 $145 $146 $147 forward $57 $-1 #
coedge $-1 $148 $59 $149 $150 forward $36 $-1 #
coedge $-1 $59 $148 $151 $152 forward $36 $-1 #
coedge $-1 $153 $154 $59 $94 reversed $155 $-1 #
edge $-1 $156 -26.518377924242305 $157 26.518377924242305 $93 $158 forward 7 unknown #
face $-1 $159 $160 $22 $-1 $161 reversed single #
loop $-1 $-1 $162 $60 #
plane-surface $-1 0 0 -9.6581215952060084 0 0 1 1 0 0 forward_v I I I I #
coedge $-1 $163 $101 $164 $165 reversed $61 $-1 #
coedge $-1 $166 $63 $167 $168 reversed $39 $-1 #
coedge $-1 $63 $166 $169 $170 reversed $39 $-1 #
coedge $-1 $98 $171 $63 $102 reversed $61 $-1 #
edge $-1 $172 -26.518377924242305 $173 26.518377924242305 $101 $174 forward 7 unknown #
face $-1 $175 $176 $23 $-1 $177 forward single #
loop $-1 $-1 $178 $64 #
plane-surface $-1 5.1403801964978086 -114.493735324765 84.737247449556847 -1 0 0 0 -0.74314483375859142 0.66913059716165679 forward_v I I I I #
coedge $-1 $179 $180 $181 $182 reversed $65 $-1 #
coedge $-1 $108 $67 $183 $184 reversed $42 $-1 #
coedge $-1 $67 $107 $179 $185 reversed $42 $-1 #
coedge $-1 $181 $186 $67 $110 forward $187 $-1 #
edge $-1 $188 32.710502129572419 $189 36.844741905702016 $109 $190 forward 7 unknown #
loop $-1 $-1 $116 $68 #
plane-surface $-1 -6.2064316980504728 -26.518377924242316 5.5238818190763936 0 -0.74314483375859142 0.66913059716165679 1 0 0 forward_v I I I I #
loop $-1 $-1 $191 $44 #
coedge $-1 $114 $114 $115 $192 reversed $69 $-1 #
coedge $-1 $115 $115 $114 $192 forward $71 $-1 #
coedge $-1 $116 $116 $72 $117 forward $111 $-1 #
edge $-1 $193 -6.5471174986351289e-016 $193 6.2831853071795996 $116 $194 forward 7 unknown #
loop $-1 $-1 $123 $73 #
plane-surface $-1 -6.2064316980504728 -26.518377924242316 5.5238818190763936 0 -0.74314483375859142 0.66913059716165679 1 0 0 forward_v I I I I #
loop $-1 $-1 $195 $47 #
coedge $-1 $121 $121 $122 $196 reversed $74 $-1 #
coedge $-1 $122 $122 $121 $196 forward $76 $-1 #
coedge $-1 $123 $123 $77 $124 forward $118 $-1 #
edge $-1 $197 -6.5471174986351289e-016 $197 6.2831853071795996 $123 $198 forward 7 unknown #
face $-1 $199 $200 $26 $-1 $201 reversed single #
loop $-1 $-1 $202 $78 #
plane-surface $-1 5.3276090225868771 46.513753774943453 131.62049537006627 -1 0 0 0 0.54463904215088732 0.83867056331134215 forward_v I I I I #
coedge $-1 $203 $204 $205 $206 reversed $79 $-1 #
coedge $-1 $130 $81 $207 $208 reversed $51 $-1 #
coedge $-1 $81 $129 $203 $209 reversed $51 $-1 #
coedge $-1 $205 $210 $81 $132 forward $211 $-1 #
edge $-1 $212 -3.2615010367705786 $213 6.2971305109958919 $131 $214 forward 7 unknown #
loop $-1 $-1 $138 $82 #
plane-surface $-1 -2.4764379777786374 -17.961987979412399 32.336561475989029 0 0.54463904215088732 0.83867056331134215 1 0 0 forward_v I I I I #
loop $-1 $-1 $215 $53 #
coedge $-1 $136 $136 $137 $216 reversed $83 $-1 #
coedge $-1 $137 $137 $136 $216 forward $85 $-1 #
coedge $-1 $138 $138 $86 $139 forward $133 $-1 #
edge $-1 $217 -1.2864781291075493e-015 $217 6.2831853071795996 $138 $218 forward 7 unknown #
face $-1 $219 $220 $21 $-1 $221 reversed single #
loop $-1 $-1 $222 $87 #
plane-surface $-1 -59.191259498886076 0 0 1 0 0 0 0 -1 forward_v I I I I #
coedge $-1 $223 $151 $224 $225 forward $88 $-1 #
coedge $-1 $226 $90 $223 $227 forward $57 $-1 #
coedge $-1 $90 $226 $228 $229 forward $57 $-1 #
coedge $-1 $154 $153 $90 $147 reversed $155 $-1 #
edge $-1 $230 -26.518377924242305 $231 26.518377924242305 $146 $232 forward 7 unknown #
coedge $-1 $92 $91 $233 $234 forward $36 $-1 #
coedge $-1 $235 $236 $91 $150 reversed $220 $-1 #
edge $-1 $157 -59.191259498886076 $237 59.191259498886076 $149 $238 forward 7 unknown #
coedge $-1 $143 $239 $92 $152 reversed $88 $-1 #
edge $-1 $240 -59.191259498886076 $156 59.191259498886076 $151 $241 forward 7 unknown #
coedge $-1 $146 $93 $239 $242 forward $155 $-1 #
coedge $-1 $93 $146 $235 $243 reversed $155 $-1 #
loop $-1 $-1 $153 $219 #
vertex $-1 $94 $244 #
vertex $-1 $94 $245 #
straight-curve $-1 59.191259498886076 0 9.6581215952060084 0 1 0 I I #
face $-1 $246 $247 $22 $-1 $248 reversed single #
loop $-1 $-1 $164 $95 #
plane-surface $-1 0 -26.518377924242305 0 0 1 0 0 0 1 forward_v I I I I #
coedge $-1 $249 $250 $163 $251 forward $96 $-1 #
coedge $-1 $171 $98 $162 $251 reversed $61 $-1 #
coedge $-1 $169 $252 $98 $165 forward $160 $-1 #
edge $-1 $253 -6.1709316270428403 $172 -0.80344830928349609 $164 $254 forward 7 unknown #
coedge $-1 $100 $99 $255 $256 reversed $39 $-1 #
coedge $-1 $257 $258 $99 $168 forward $259 $-1 #
edge $-1 $260 -32.073483081467174 $173 -22.162069753370631 $167 $261 forward 7 unknown #
coedge $-1 $262 $164 $100 $170 forward $160 $-1 #
edge $-1 $172 22.162069753370631 $263 32.073483081467174 $169 $264 forward 7 unknown #
coedge $-1 $101 $163 $257 $265 reversed $61 $-1 #
vertex $-1 $170 $266 #
vertex $-1 $168 $267 #
straight-curve $-1 -49.279846170789533 0 -4.2906382774466643 0 1 0 I I #
face $-1 $-1 $187 $23 $-1 $268 reversed single #
loop $-1 $-1 $269 $103 #
plane-surface $-1 0 0 9.6581215952060084 0 0 1 1 0 0 forward_v I I I I #
coedge $-1 $270 $271 $272 $273 reversed $104 $-1 #
coedge $-1 $274 $106 $108 $185 forward $65 $-1 #
coedge $-1 $106 $274 $270 $275 forward $65 $-1 #
coedge $-1 $272 $109 $106 $182 forward $187 $-1 #
edge $-1 $189 -14.450027743573518 $276 8.243596045523045 $181 $277 forward 7 unknown #
coedge $-1 $278 $279 $107 $184 forward $176 $-1 #
edge $-1 $280 -34.450975860017365 $188 -30.728489738140194 $183 $281 forward 7 unknown #
edge $-1 $189 1.5712275929048731e-014 $280 5.5631682928076573 $108 $282 forward 7 unknown #
coedge $-1 $109 $272 $278 $283 reversed $187 $-1 #
loop $-1 $-1 $272 $175 #
vertex $-1 $283 $284 #
vertex $-1 $110 $285 #
straight-curve $-1 -17.553243592598754 -26.518377924242301 42.368623724778423 0 0 -1 I I #
coedge $-1 $191 $191 $-1 $286 reversed $113 $-1 #
edge $-1 $287 0 $287 6.2831853071796004 $114 $288 forward 7 unknown #
vertex $-1 $117 $289 #
ellipse-curve $-1 -11.069351081428309 -24.657134863303721 7.5910017071412037 0 -0.74314483375859142 0.66913059716165679 1 0 0 1 I I #
coedge $-1 $195 $195 $-1 $290 reversed $120 $-1 #
edge $-1 $291 0 $291 6.2831853071796004 $121 $292 forward 7 unknown #
vertex $-1 $124 $293 #
ellipse-curve $-1 -1.3435123146726369 -24.657134863303721 7.5910017071412037 0 -0.74314483375859142 0.66913059716165679 1 0 0 1 I I #
face $-1 $-1 $211 $26 $-1 $294 forward single #
loop $-1 $-1 $295 $125 #
plane-surface $-1 0 26.518377924242305 0 0 -1 0 0 0 -1 forward_v I I I I #
coedge $-1 $296 $297 $298 $299 reversed $126 $-1 #
coedge $-1 $300 $128 $130 $209 forward $79 $-1 #
coedge $-1 $128 $300 $296 $301 forward $79 $-1 #
coedge $-1 $298 $131 $128 $206 forward $211 $-1 #
edge $-1 $213 -9.0422659892548332 $302 6.5658280114761958 $205 $303 forward 7 unknown #
coedge $-1 $304 $305 $129 $208 forward $200 $-1 #
edge $-1 $306 -62.359574113153229 $212 -56.152126089827121 $207 $307 forward 7 unknown #
edge $-1 $213 41.639394398207983 $306 53.036755848484596 $130 $308 forward 7 unknown #
coedge $-1 $131 $298 $304 $309 forward $211 $-1 #
loop $-1 $-1 $298 $199 #
vertex $-1 $208 $310 #
vertex $-1 $132 $311 #
straight-curve $-1 -10.280484978144152 23.256876887471726 9.658121595206012 0 -1 0 I I #
coedge $-1 $215 $215 $-1 $312 reversed $135 $-1 #
edge $-1 $313 0 $313 6.2831853071796004 $136 $314 forward 7 unknown #
vertex $-1 $139 $315 #
ellipse-curve $-1 -2.4764379777786374 21.739062150359072 6.5543975835429595 0 0.54463904215088732 0.83867056331134215 2 0 0 1 I I #
face $-1 $-1 $155 $21 $-1 $316 reversed single #
loop $-1 $-1 $235 $140 #
plane-surface $-1 0 26.518377924242305 0 0 -1 0 0 0 -1 forward_v I I I I #
coedge $-1 $317 $233 $236 $318 forward $141 $-1 #
coedge $-1 $239 $143 $144 $227 reversed $88 $-1 #
coedge $-1 $233 $317 $143 $225 reversed $141 $-1 #
edge $-1 $240 -9.6581215952060084 $319 9.6581215952060084 $224 $320 forward 7 unknown #
coedge $-1 $145 $144 $317 $321 forward $57 $-1 #
edge $-1 $231 -59.191259498886076 $319 59.191259498886076 $223 $322 forward 7 unknown #
coedge $-1 $236 $235 $145 $229 reversed $220 $-1 #
edge $-1 $323 -59.191259498886076 $230 59.191259498886076 $228 $324 forward 7 unknown #
vertex $-1 $147 $325 #
vertex $-1 $242 $326 #
straight-curve $-1 59.191259498886076 0 -9.6581215952060084 0 -1 0 I I #
coedge $-1 $222 $224 $148 $234 reversed $141 $-1 #
edge $-1 $237 -26.518377924242305 $240 26.518377924242305 $233 $327 forward 7 unknown #
coedge $-1 $228 $149 $154 $243 forward $220 $-1 #
coedge $-1 $149 $228 $222 $318 reversed $220 $-1 #
vertex $-1 $150 $328 #
straight-curve $-1 0 26.518377924242305 9.6581215952060084 -1 0 0 I I #
coedge $-1 $151 $223 $153 $242 reversed $88 $-1 #
vertex $-1 $234 $329 #
straight-curve $-1 0 -26.518377924242305 9.6581215952060084 1 0 0 I I #
edge $-1 $156 -9.6581215952060084 $231 9.6581215952060084 $153 $330 forward 7 unknown #
edge $-1 $157 -9.6581215952060084 $230 9.6581215952060084 $154 $331 forward 7 unknown #
point $-1 59.191259498886076 -26.518377924242305 9.6581215952060084 #
point $-1 59.191259498886076 26.518377924242305 9.6581215952060084 #
face $-1 $-1 $259 $22 $-1 $332 reversed single #
loop $-1 $-1 $255 $159 #
plane-surface $-1 -59.191259498886076 0 0 1 0 0 0 0 -1 forward_v I I I I #
coedge $-1 $333 $162 $252 $334 forward $96 $-1 #
coedge $-1 $162 $333 $335 $336 forward $96 $-1 #
edge $-1 $337 -26.518377924242305 $253 26.518377924242305 $162 $338 forward 7 unknown #
coedge $-1 $164 $262 $249 $334 reversed $160 $-1 #
vertex $-1 $334 $339 #
straight-curve $-1 -49.279846170789533 -26.518377924242305 -3.4871899681631682 0 0 1 I I #
coedge $-1 $340 $341 $166 $256 forward $247 $-1 #
edge $-1 $263 -26.518377924242305 $260 26.518377924242305 $255 $342 forward 7 unknown #
coedge $-1 $335 $167 $171 $265 forward $259 $-1 #
coedge $-1 $167 $335 $340 $343 reversed $259 $-1 #
loop $-1 $-1 $257 $246 #
vertex $-1 $343 $344 #
straight-curve $-1 -27.117776417418902 26.518377924242305 -4.2906382774466643 1 0 0 I I #
coedge $-1 $252 $169 $341 $345 forward $160 $-1 #
vertex $-1 $345 $346 #
straight-curve $-1 -27.117776417418902 -26.518377924242305 -4.2906382774466643 -1 0 0 I I #
edge $-1 $173 0.80344830928349609 $337 6.1709316270428403 $257 $347 forward 7 unknown #
point $-1 -49.279846170789533 -26.518377924242305 -4.2906382774466643 #
point $-1 -49.279846170789533 26.518377924242305 -4.2906382774466643 #
plane-surface $-1 0 -26.518377924242305 0 0 1 0 0 0 1 forward_v I I I I #
coedge $-1 $279 $278 $271 $348 forward $176 $-1 #
coedge $-1 $271 $178 $180 $275 reversed $104 $-1 #
coedge $-1 $178 $270 $269 $348 reversed $104 $-1 #
coedge $-1 $186 $181 $178 $273 forward $187 $-1 #
edge $-1 $276 -36.844741905702016 $349 -32.710502129572419 $272 $350 forward 7 unknown #
coedge $-1 $180 $179 $279 $351 reversed $65 $-1 #
edge $-1 $352 -5.5631682928076573 $276 -1.5712275929048731e-014 $270 $353 forward 7 unknown #
vertex $-1 $182 $354 #
straight-curve $-1 -3.1032158490252364 -26.518377924242305 5.5238818190764043 1 0 0 I I #
coedge $-1 $269 $183 $186 $283 forward $176 $-1 #
coedge $-1 $183 $269 $274 $351 forward $176 $-1 #
vertex $-1 $184 $355 #
straight-curve $-1 -17.553243592598754 -57.246867662382499 9.6581215952060049 0 -1 0 I I #
straight-curve $-1 -17.553243592598754 -26.518377924242316 5.5238818190763936 0 0.66913059716165679 0.74314483375859142 I I #
edge $-1 $188 -17.553243592598754 $349 5.1403801964978086 $186 $356 forward 7 unknown #
point $-1 -17.553243592598754 -26.518377924242305 9.6581215952060084 #
point $-1 -17.553243592598754 -26.518377924242305 5.5238818190764052 #
edge $-1 $357 1 $357 0 $191 $-1 forward 7 unknown #
vertex $-1 $192 $358 #
ellipse-curve $-1 -11.069351081428309 -21.907111155994581 5.1148693007922175 0 -0.74314483375859142 0.66913059716165679 1 0 0 1 I I #
point $-1 -10.069351081428309 -24.657134863303703 7.5910017071411868 #
edge $-1 $359 1 $359 0 $195 $-1 forward 7 unknown #
vertex $-1 $196 $360 #
ellipse-curve $-1 -1.3435123146726369 -21.907111155994581 5.1148693007922175 0 -0.74314483375859142 0.66913059716165679 1 0 0 1 I I #
point $-1 -0.34351231467263688 -24.657134863303703 7.5910017071411868 #
plane-surface $-1 0 0 9.6581215952060084 0 0 1 1 0 0 forward_v I I I I #
coedge $-1 $305 $304 $297 $361 forward $200 $-1 #
coedge $-1 $297 $202 $204 $301 reversed $126 $-1 #
coedge $-1 $202 $296 $295 $361 reversed $126 $-1 #
coedge $-1 $210 $205 $202 $299 forward $211 $-1 #
edge $-1 $302 -6.2971305109958919 $362 3.2615010367705786 $298 $363 forward 7 unknown #
coedge $-1 $204 $203 $305 $364 reversed $79 $-1 #
edge $-1 $365 -53.036755848484596 $302 -41.639394398207983 $296 $366 forward 7 unknown #
vertex $-1 $206 $367 #
straight-curve $-1 -1.2382189888893187 16.959746376475842 9.6581215952060049 1 0 0 I I #
coedge $-1 $295 $207 $210 $309 reversed $200 $-1 #
coedge $-1 $207 $295 $300 $364 forward $200 $-1 #
vertex $-1 $208 $368 #
straight-curve $-1 -10.280484978144152 26.518377924242305 65.810247685033133 0 0 1 I I #
straight-curve $-1 -10.280484978144152 -17.961987979412399 32.336561475989029 0 0.83867056331134215 -0.54463904215088732 I I #
edge $-1 $362 -5.3276090225868771 $212 10.280484978144152 $304 $369 forward 7 unknown #
point $-1 -10.280484978144152 26.518377924242305 9.6581215952060084 #
point $-1 -10.280484978144152 16.959746376475834 9.6581215952060084 #
edge $-1 $370 1 $370 0 $215 $-1 forward 7 unknown #
vertex $-1 $216 $371 #
ellipse-curve $-1 -2.4764379777786374 18.913594408510711 2.2035588825276511 0 0.54463904215088732 0.83867056331134215 2 0 0 1 I I #
point $-1 -0.47643797777863739 21.739062150359064 6.5543975835429533 #
plane-surface $-1 59.191259498886076 0 0 -1 0 0 0 0 1 forward_v I I I I #
coedge $-1 $224 $222 $226 $321 reversed $141 $-1 #
edge $-1 $237 -9.6581215952060084 $323 9.6581215952060084 $236 $372 forward 7 unknown #
vertex $-1 $321 $373 #
straight-curve $-1 -59.191259498886076 -26.518377924242305 0 0 0 -1 I I #
edge $-1 $319 -26.518377924242305 $323 26.518377924242305 $317 $374 forward 7 unknown #
straight-curve $-1 0 -26.518377924242305 -9.6581215952060084 -1 0 0 I I #
vertex $-1 $229 $375 #
straight-curve $-1 0 26.518377924242305 -9.6581215952060084 1 0 0 I I #
point $-1 59.191259498886076 26.518377924242305 -9.6581215952060084 #
point $-1 59.191259498886076 -26.518377924242305 -9.6581215952060084 #
straight-curve $-1 -59.191259498886076 0 9.6581215952060084 0 -1 0 I I #
point $-1 -59.191259498886076 26.518377924242305 9.6581215952060084 #
point $-1 -59.191259498886076 -26.518377924242305 9.6581215952060084 #
straight-curve $-1 59.191259498886076 -26.518377924242305 0 0 0 -1 I I #
straight-curve $-1 59.191259498886076 26.518377924242305 0 0 0 -1 I I #
plane-surface $-1 0 26.518377924242305 0 0 -1 0 0 0 -1 forward_v I I I I #
coedge $-1 $250 $249 $376 $377 forward $96 $-1 #
edge $-1 $253 49.279846170789533 $378 59.191259498886076 $252 $379 forward 7 unknown #
coedge $-1 $258 $257 $250 $336 reversed $259 $-1 #
edge $-1 $380 -59.191259498886076 $337 -49.279846170789533 $335 $381 forward 7 unknown #
vertex $-1 $265 $382 #
straight-curve $-1 -49.279846170789533 0 -9.6581215952060084 0 -1 0 I I #
point $-1 -49.279846170789533 -26.518377924242305 -9.6581215952060084 #
coedge $-1 $376 $255 $258 $343 forward $247 $-1 #
coedge $-1 $255 $376 $262 $345 reversed $247 $-1 #
straight-curve $-1 -59.191259498886076 0 -4.2906382774466643 0 1 0 I I #
edge $-1 $260 4.2906382774466643 $380 9.6581215952060084 $258 $383 forward 7 unknown #
point $-1 -59.191259498886076 26.518377924242305 -4.2906382774466643 #
edge $-1 $263 4.2906382774466643 $378 9.6581215952060084 $341 $384 forward 7 unknown #
point $-1 -59.191259498886076 -26.518377924242305 -4.2906382774466643 #
straight-curve $-1 -49.279846170789533 26.518377924242305 -3.4871899681631682 0 0 -1 I I #
edge $-1 $349 30.728489738140194 $352 34.450975860017365 $269 $385 forward 7 unknown #
vertex $-1 $273 $386 #
straight-curve $-1 5.1403801964978086 -26.518377924242301 42.368623724778423 0 0 1 I I #
edge $-1 $352 -8.243596045523045 $280 14.450027743573518 $279 $387 forward 7 unknown #
vertex $-1 $351 $388 #
straight-curve $-1 5.1403801964978086 -26.518377924242316 5.5238818190763936 0 -0.66913059716165679 -0.74314483375859142 I I #
point $-1 5.1403801964978086 -26.518377924242305 5.5238818190764052 #
point $-1 -17.553243592598754 -22.795891802365134 9.6581215952060084 #
straight-curve $-1 0 -26.518377924242305 9.6581215952060084 1 0 0 I I #
vertex $-1 $286 $389 #
point $-1 -10.069351081428309 -21.907111155994581 5.1148693007922175 #
vertex $-1 $290 $390 #
point $-1 -0.34351231467263688 -21.907111155994581 5.1148693007922175 #
edge $-1 $362 56.152126089827121 $365 62.359574113153229 $295 $391 forward 7 unknown #
vertex $-1 $309 $392 #
straight-curve $-1 5.3276090225868771 23.256876887471726 9.658121595206012 0 1 0 I I #
edge $-1 $365 -6.5658280114761958 $306 9.0422659892548332 $305 $393 forward 7 unknown #
vertex $-1 $364 $394 #
straight-curve $-1 5.3276090225868771 -17.961987979412399 32.336561475989029 0 -0.83867056331134215 0.54463904215088732 I I #
point $-1 5.3276090225868771 16.959746376475834 9.6581215952060084 #
point $-1 -10.280484978144152 26.518377924242301 3.4506735718799035 #
straight-curve $-1 0 26.518377924242305 9.6581215952060084 -1 0 0 I I #
vertex $-1 $312 $395 #
point $-1 -0.47643797777863739 18.913594408510711 2.2035588825276511 #
straight-curve $-1 -59.191259498886076 26.518377924242305 0 0 0 -1 I I #
point $-1 -59.191259498886076 -26.518377924242305 -9.6581215952060084 #
straight-curve $-1 -59.191259498886076 0 -9.6581215952060084 0 1 0 I I #
point $-1 -59.191259498886076 26.518377924242305 -9.6581215952060084 #
coedge $-1 $341 $340 $333 $377 reversed $247 $-1 #
edge $-1 $378 -26.518377924242305 $380 26.518377924242305 $376 $396 forward 7 unknown #
vertex $-1 $377 $397 #
straight-curve $-1 0 -26.518377924242305 -9.6581215952060084 -1 0 0 I I #
vertex $-1 $336 $398 #
straight-curve $-1 0 26.518377924242305 -9.6581215952060084 1 0 0 I I #
point $-1 -49.279846170789533 26.518377924242305 -9.6581215952060084 #
straight-curve $-1 -59.191259498886076 26.518377924242305 0 0 0 -1 I I #
straight-curve $-1 -59.191259498886076 -26.518377924242305 0 0 0 -1 I I #
straight-curve $-1 5.1403801964978086 -57.246867662382499 9.6581215952060049 0 1 0 I I #
point $-1 5.1403801964978086 -26.518377924242305 9.6581215952060084 #
straight-curve $-1 -3.1032158490252364 -22.79589180236513 9.6581215952060084 -1 0 0 I I #
point $-1 5.1403801964978086 -22.795891802365134 9.6581215952060084 #
point $-1 -11.069351081428309 -21.163966322235989 4.4457387036305613 #
point $-1 -1.3435123146726369 -21.163966322235989 4.4457387036305613 #
straight-curve $-1 5.3276090225868771 26.518377924242305 65.810247685033133 0 0 -1 I I #
point $-1 5.3276090225868771 26.518377924242305 9.6581215952060084 #
straight-curve $-1 -1.2382189888893187 26.518377924242305 3.4506735718799018 -1 0 0 I I #
point $-1 5.3276090225868771 26.518377924242301 3.4506735718799035 #
point $-1 -2.4764379777786374 17.824316324208937 0.52621775590496689 #
straight-curve $-1 -59.191259498886076 0 -9.6581215952060084 0 1 0 I I #
point $-1 -59.191259498886076 -26.518377924242305 -9.6581215952060084 #
point $-1 -59.191259498886076 26.518377924242305 -9.6581215952060084 #
End-of-ACIS-data 