500 0 9 0           
7 Unknown 11 ACIS 5.0 NT 24 Fri Mar 26 16:37:35 1999 
-1 9.9999999999999995e-007 1e-010 
body $-1 $9 $-1 $10 #
body $-1 $11 $-1 $12 #
body $-1 $13 $-1 $14 #
body $-1 $15 $-1 $16 #
body $-1 $17 $-1 $18 #
body $-1 $19 $-1 $20 #
body $-1 $21 $-1 $22 #
body $-1 $23 $-1 $24 #
body $-1 $25 $-1 $26 #
lump $-1 $-1 $27 $0 #
transform $-1 1 0 0 0 1 0 0 0 1 44.217658009582813 19.072010938298742 6.7763931073017201 1 rotate no_reflect no_shear #
lump $-1 $-1 $28 $1 #
transform $-1 1 0 0 0 1 0 0 0 1 44.217658009582813 19.072010938298742 6.7763931073017201 1 rotate no_reflect no_shear #
lump $-1 $-1 $29 $2 #
transform $-1 1 0 0 0 1 0 0 0 1 44.217658009582813 19.072010938298742 6.7763931073017201 1 rotate no_reflect no_shear #
lump $-1 $-1 $30 $3 #
transform $-1 1 0 0 0 1 0 0 0 1 44.217658009582813 19.072010938298742 6.7763931073017201 1 rotate no_reflect no_shear #
lump $-1 $-1 $31 $4 #
transform $-1 1 0 0 0 1 0 0 0 1 44.217658009582813 19.072010938298742 6.7763931073017201 1 rotate no_reflect no_shear #
lump $-1 $-1 $32 $5 #
transform $-1 1 0 0 0 1 0 0 0 1 44.217658009582813 19.072010938298742 6.7763931073017201 1 rotate no_reflect no_shear #
lump $-1 $-1 $33 $6 #
transform $-1 1 0 0 0 1 0 0 0 1 44.217658009582813 19.072010938298742 6.7763931073017201 1 rotate no_reflect no_shear #
lump $-1 $-1 $34 $7 #
transform $-1 1 0 0 0 1 0 0 0 1 44.217658009582813 19.072010938298742 6.7763931073017201 1 rotate no_reflect no_shear #
lump $-1 $-1 $35 $8 #
transform $-1 1 0 0 0 1 0 0 0 1 44.217658009582813 19.072010938298742 6.7763931073017201 1 rotate no_reflect no_shear #
shell $-1 $-1 $-1 $36 $-1 $9 #
shell $-1 $-1 $-1 $37 $-1 $11 #
shell $-1 $-1 $-1 $38 $-1 $13 #
shell $-1 $-1 $-1 $39 $-1 $15 #
shell $-1 $-1 $-1 $40 $-1 $17 #
shell $-1 $-1 $-1 $41 $-1 $19 #
shell $-1 $-1 $-1 $42 $-1 $21 #
shell $-1 $-1 $-1 $43 $-1 $23 #
shell $-1 $-1 $-1 $44 $-1 $25 #
face $-1 $45 $46 $27 $-1 $47 forward single #
face $-1 $48 $49 $28 $-1 $50 reversed single #
face $-1 $51 $52 $29 $-1 $53 forward single #
face $-1 $54 $55 $30 $-1 $56 reversed single #
face $-1 $57 $58 $31 $-1 $59 forward single #
face $-1 $60 $61 $32 $-1 $62 forward single #
face $-1 $63 $64 $33 $-1 $65 reversed single #
face $-1 $66 $67 $34 $-1 $68 forward single #
face $-1 $69 $70 $35 $-1 $71 forward single #
face $-1 $72 $73 $27 $-1 $74 reversed single #
loop $-1 $-1 $75 $36 #
plane-surface $-1 0 0 6.7763931073017201 0 0 1 1 0 0 forward_v I I I I #
face $-1 $76 $77 $28 $-1 $78 reversed single #
loop $-1 $-1 $79 $37 #
plane-surface $-1 -43.143302573090516 -16.094583712731293 0 1 0 0 0 0 -1 forward_v I I I I #
face $-1 $80 $81 $29 $-1 $82 reversed single #
loop $-1 $-1 $83 $38 #
plane-surface $-1 0 15.730151206438766 -3.7643549271019268 0 0 1 1 0 0 forward_v I I I I #
face $-1 $84 $85 $30 $-1 $86 reversed single #
loop $-1 $-1 $87 $39 #
plane-surface $-1 -89.765213532046488 7.7418196460759212 78.624140784396559 0 -1 0 0.51503808176128008 0 -0.85716729658548041 forward_v I I I I #
face $-1 $88 $89 $31 $-1 $90 forward single #
loop $-1 $91 $92 $40 #
cone-surface $-1 -40.435749833925705 3.032663830699466 3.983057120404951 0.51503808176128008 0 -0.85716729658548041 0.4285836482927402 0 0.25751904088064004 1 I I 0 1 0.5 forward I I I I #
face $-1 $93 $94 $32 $-1 $95 forward single #
loop $-1 $96 $97 $41 #
cone-surface $-1 -40.435749833925705 5.8581573199253398 3.983057120404951 0.51503808176128008 0 -0.85716729658548041 0.4285836482927402 0 0.25751904088064004 1 I I 0 1 0.5 forward I I I I #
face $-1 $98 $99 $33 $-1 $100 reversed single #
loop $-1 $-1 $101 $42 #
plane-surface $-1 13.961352777215659 7.7418196460759212 124.17169630686021 0 -1 0 -0.51503808176128008 0 -0.85716729658548041 forward_v I I I I #
face $-1 $102 $103 $34 $-1 $104 forward single #
loop $-1 $105 $106 $43 #
cone-surface $-1 40.435749833925726 3.032663830699466 3.9830571204049456 -0.51503808176128008 0 -0.85716729658548041 0.4285836482927402 0 -0.25751904088064004 1 I I 0 1 0.5 forward I I I I #
face $-1 $107 $108 $35 $-1 $109 forward single #
loop $-1 $110 $111 $44 #
cone-surface $-1 40.435749833925726 5.8581573199253398 3.9830571204049456 -0.51503808176128008 0 -0.85716729658548041 0.4285836482927402 0 -0.25751904088064004 1 I I 0 1 0.5 forward I I I I #
face $-1 $112 $113 $27 $-1 $114 reversed single #
loop $-1 $-1 $115 $45 #
plane-surface $-1 0 0 -6.7763931073017201 0 0 1 1 0 0 forward_v I I I I #
coedge $-1 $116 $117 $118 $119 forward $46 $-1 #
face $-1 $120 $121 $28 $-1 $122 reversed single #
loop $-1 $-1 $123 $48 #
plane-surface $-1 -41.633726429813777 -13.117156487163843 0 0 -1 0 0 0 -1 forward_v I I I I #
coedge $-1 $124 $125 $126 $127 forward $49 $-1 #
face $-1 $128 $129 $29 $-1 $130 reversed single #
loop $-1 $-1 $131 $51 #
plane-surface $-1 0 12.388291474578793 -5.2703740172018234 0 1 0 0 0 1 forward_v I I I I #
coedge $-1 $132 $133 $134 $135 reversed $52 $-1 #
face $-1 $136 $137 $30 $-1 $138 reversed single #
loop $-1 $-1 $139 $54 #
plane-surface $-1 -44.21765800958282 4.4454105753124011 2.8202800295657369 -0.51503808176128008 0 0.85716729658548041 0.85716729658548041 0 0.51503808176128008 forward_v I I I I #
coedge $-1 $140 $141 $142 $143 reversed $55 $-1 #
face $-1 $-1 $144 $31 $-1 $145 forward single #
loop $-1 $146 $147 $57 #
cone-surface $-1 -39.817120990793299 3.032663830699466 2.9534858482298034 0.51503808176128008 0 -0.85716729658548041 0.2142918241463701 0 0.12875952044032002 1 I I -0.70710678118654746 0.70710678118654746 0.25 forward I I I I #
loop $-1 $-1 $148 $40 #
coedge $-1 $92 $92 $149 $150 reversed $58 $-1 #
face $-1 $-1 $151 $32 $-1 $152 forward single #
loop $-1 $153 $154 $60 #
cone-surface $-1 -39.817120990793299 5.8581573199253398 2.9534858482298034 0.51503808176128008 0 -0.85716729658548041 0.2142918241463701 0 0.12875952044032002 1 I I -0.70710678118654746 0.70710678118654746 0.25 forward I I I I #
loop $-1 $-1 $155 $41 #
coedge $-1 $97 $97 $156 $157 reversed $61 $-1 #
face $-1 $158 $159 $33 $-1 $160 reversed single #
loop $-1 $-1 $161 $63 #
plane-surface $-1 -31.586202745248009 4.4454105753124011 48.367835552029391 0.51503808176128008 0 0.85716729658548041 0.85716729658548041 0 -0.51503808176128008 forward_v I I I I #
coedge $-1 $162 $163 $164 $165 reversed $64 $-1 #
face $-1 $-1 $166 $34 $-1 $167 forward single #
loop $-1 $168 $169 $66 #
cone-surface $-1 39.81712099079332 3.032663830699466 2.9534858482297981 -0.51503808176128008 0 -0.85716729658548041 0.2142918241463701 0 -0.12875952044032002 1 I I -0.70710678118654746 0.70710678118654746 0.25 forward I I I I #
loop $-1 $-1 $170 $43 #
coedge $-1 $106 $106 $171 $172 reversed $67 $-1 #
face $-1 $-1 $173 $35 $-1 $174 forward single #
loop $-1 $175 $176 $69 #
cone-surface $-1 39.81712099079332 5.8581573199253398 2.9534858482297981 -0.51503808176128008 0 -0.85716729658548041 0.2142918241463701 0 -0.12875952044032002 1 I I -0.70710678118654746 0.70710678118654746 0.25 forward I I I I #
loop $-1 $-1 $177 $44 #
coedge $-1 $111 $111 $178 $179 reversed $70 $-1 #
face $-1 $180 $181 $27 $-1 $182 reversed single #
loop $-1 $-1 $183 $72 #
plane-surface $-1 0 -19.072010938298742 0 0 1 0 0 0 1 forward_v I I I I #
coedge $-1 $184 $185 $186 $187 forward $73 $-1 #
coedge $-1 $188 $75 $189 $190 forward $46 $-1 #
coedge $-1 $75 $188 $191 $192 forward $46 $-1 #
coedge $-1 $193 $194 $75 $119 reversed $195 $-1 #
edge $-1 $196 -19.072010938298742 $197 19.072010938298742 $118 $198 forward 7 unknown #
face $-1 $199 $200 $28 $-1 $201 forward single #
loop $-1 $-1 $202 $76 #
plane-surface $-1 -40.124150286537038 -16.094583712731293 0 -1 0 0 0 0 1 forward_v I I I I #
coedge $-1 $203 $204 $205 $206 forward $77 $-1 #
coedge $-1 $207 $79 $208 $209 reversed $49 $-1 #
coedge $-1 $79 $207 $210 $211 reversed $49 $-1 #
coedge $-1 $204 $203 $79 $127 reversed $77 $-1 #
edge $-1 $212 -6.7763931073017201 $213 6.7763931073017201 $126 $214 forward 7 unknown #
face $-1 $215 $216 $29 $-1 $217 reversed single #
loop $-1 $-1 $218 $80 #
plane-surface $-1 0 19.072010938298742 0 0 -1 0 0 0 -1 forward_v I I I I #
coedge $-1 $219 $220 $221 $222 reversed $81 $-1 #
coedge $-1 $223 $83 $218 $224 reversed $52 $-1 #
coedge $-1 $83 $223 $220 $225 forward $52 $-1 #
coedge $-1 $226 $227 $83 $135 forward $216 $-1 #
edge $-1 $228 -11.206935335079356 $229 -4.5232158713594099 $134 $230 forward 7 unknown #
face $-1 $231 $232 $30 $-1 $233 reversed single #
loop $-1 $-1 $234 $84 #
plane-surface $-1 -89.765213532046488 1.1490015045488811 78.624140784396559 0 1 0 -0.51503808176128008 0 0.85716729658548041 forward_v I I I I #
coedge $-1 $235 $236 $237 $238 reversed $85 $-1 #
coedge $-1 $141 $87 $239 $240 reversed $55 $-1 #
coedge $-1 $87 $140 $235 $241 reversed $55 $-1 #
coedge $-1 $237 $242 $87 $143 forward $232 $-1 #
edge $-1 $243 32.535677284896558 $244 36.491790362632536 $142 $245 forward 7 unknown #
loop $-1 $-1 $149 $88 #
plane-surface $-1 -44.21765800958282 4.4454105753124011 2.8202800295657369 -0.51503808176128008 0 0.85716729658548041 0.85716729658548041 0 0.51503808176128008 forward_v I I I I #
loop $-1 $-1 $246 $57 #
coedge $-1 $147 $147 $148 $247 reversed $89 $-1 #
coedge $-1 $148 $148 $147 $247 forward $91 $-1 #
coedge $-1 $149 $149 $92 $150 forward $144 $-1 #
edge $-1 $248 0 $248 6.2831853071796004 $149 $249 forward 7 unknown #
loop $-1 $-1 $156 $93 #
plane-surface $-1 -44.21765800958282 4.4454105753124011 2.8202800295657369 -0.51503808176128008 0 0.85716729658548041 0.85716729658548041 0 0.51503808176128008 forward_v I I I I #
loop $-1 $-1 $250 $60 #
coedge $-1 $154 $154 $155 $251 reversed $94 $-1 #
coedge $-1 $155 $155 $154 $251 forward $96 $-1 #
coedge $-1 $156 $156 $97 $157 forward $151 $-1 #
edge $-1 $252 0 $252 6.2831853071796004 $156 $253 forward 7 unknown #
face $-1 $254 $255 $33 $-1 $256 reversed single #
loop $-1 $-1 $257 $98 #
plane-surface $-1 13.961352777215659 1.1490015045488811 124.17169630686021 0 1 0 0.51503808176128008 0 0.85716729658548041 forward_v I I I I #
coedge $-1 $258 $259 $260 $261 reversed $99 $-1 #
coedge $-1 $163 $101 $262 $263 reversed $64 $-1 #
coedge $-1 $101 $162 $258 $264 reversed $64 $-1 #
coedge $-1 $260 $265 $101 $165 forward $266 $-1 #
edge $-1 $267 -37.236981620974987 $268 -30.652903915044927 $164 $269 forward 7 unknown #
loop $-1 $-1 $171 $102 #
plane-surface $-1 -31.586202745248009 4.4454105753124011 48.367835552029391 0.51503808176128008 0 0.85716729658548041 0.85716729658548041 0 -0.51503808176128008 forward_v I I I I #
loop $-1 $-1 $270 $66 #
coedge $-1 $169 $169 $170 $271 reversed $103 $-1 #
coedge $-1 $170 $170 $169 $271 forward $105 $-1 #
coedge $-1 $171 $171 $106 $172 forward $166 $-1 #
edge $-1 $272 0 $272 6.2831853071796004 $171 $273 forward 7 unknown #
loop $-1 $-1 $178 $107 #
plane-surface $-1 -31.586202745248009 4.4454105753124011 48.367835552029391 0.51503808176128008 0 0.85716729658548041 0.85716729658548041 0 -0.51503808176128008 forward_v I I I I #
loop $-1 $-1 $274 $69 #
coedge $-1 $176 $176 $177 $275 reversed $108 $-1 #
coedge $-1 $177 $177 $176 $275 forward $110 $-1 #
coedge $-1 $178 $178 $111 $179 forward $173 $-1 #
edge $-1 $276 0 $276 6.2831853071796004 $178 $277 forward 7 unknown #
face $-1 $278 $279 $27 $-1 $280 reversed single #
loop $-1 $-1 $281 $112 #
plane-surface $-1 -44.217658009582813 0 0 1 0 0 0 0 -1 forward_v I I I I #
coedge $-1 $282 $191 $283 $284 forward $113 $-1 #
coedge $-1 $285 $115 $282 $286 forward $73 $-1 #
coedge $-1 $115 $285 $287 $288 forward $73 $-1 #
coedge $-1 $194 $193 $115 $187 reversed $195 $-1 #
edge $-1 $289 -19.072010938298742 $290 19.072010938298742 $186 $291 forward 7 unknown #
coedge $-1 $117 $116 $292 $293 forward $46 $-1 #
coedge $-1 $294 $295 $116 $190 reversed $279 $-1 #
edge $-1 $197 -44.217658009582813 $296 44.217658009582813 $189 $297 forward 7 unknown #
coedge $-1 $183 $298 $117 $192 reversed $113 $-1 #
edge $-1 $299 -44.217658009582813 $196 44.217658009582813 $191 $300 forward 7 unknown #
coedge $-1 $186 $118 $298 $301 forward $195 $-1 #
coedge $-1 $118 $186 $294 $302 reversed $195 $-1 #
loop $-1 $-1 $193 $278 #
vertex $-1 $119 $303 #
vertex $-1 $119 $304 #
straight-curve $-1 44.217658009582813 0 6.7763931073017201 0 1 0 I I #
face $-1 $305 $306 $28 $-1 $307 reversed single #
loop $-1 $-1 $308 $120 #
plane-surface $-1 0 0 6.7763931073017201 0 0 1 1 0 0 forward_v I I I I #
coedge $-1 $309 $310 $311 $312 reversed $121 $-1 #
coedge $-1 $126 $123 $313 $314 reversed $77 $-1 #
coedge $-1 $123 $126 $315 $316 reversed $77 $-1 #
coedge $-1 $310 $309 $123 $206 reversed $121 $-1 #
edge $-1 $317 -6.7763931073017201 $318 6.7763931073017201 $205 $319 forward 7 unknown #
coedge $-1 $125 $124 $320 $321 reversed $49 $-1 #
coedge $-1 $313 $322 $124 $209 forward $306 $-1 #
edge $-1 $323 -11.024719081933096 $213 -5.0698646307981967 $208 $324 forward 7 unknown #
coedge $-1 $325 $315 $125 $211 forward $200 $-1 #
edge $-1 $212 5.0698646307981967 $326 11.024719081933096 $210 $327 forward 7 unknown #
vertex $-1 $211 $328 #
vertex $-1 $209 $329 #
straight-curve $-1 -43.143302573090516 -13.117156487163843 0 0 0 -1 I I #
face $-1 $330 $331 $29 $-1 $332 reversed single #
loop $-1 $-1 $134 $128 #
plane-surface $-1 44.217658009582813 0 0 -1 0 0 0 0 1 forward_v I I I I #
coedge $-1 $333 $334 $132 $224 forward $129 $-1 #
coedge $-1 $335 $131 $336 $337 reversed $81 $-1 #
coedge $-1 $131 $335 $133 $225 reversed $81 $-1 #
coedge $-1 $338 $339 $131 $222 forward $340 $-1 #
edge $-1 $341 -4.1412060987008079 $342 -1.1291679185010151 $221 $343 forward 7 unknown #
coedge $-1 $133 $132 $338 $344 reversed $52 $-1 #
edge $-1 $345 -44.217658009582813 $228 44.217658009582813 $218 $346 forward 7 unknown #
edge $-1 $342 -44.217658009582813 $229 44.217658009582813 $220 $347 forward 7 unknown #
coedge $-1 $348 $134 $335 $349 forward $216 $-1 #
coedge $-1 $134 $348 $333 $350 reversed $216 $-1 #
vertex $-1 $350 $351 #
vertex $-1 $135 $352 #
straight-curve $-1 44.217658009582813 7.8650756032193829 -3.7643549271019268 0 -1 0 I I #
face $-1 $-1 $353 $30 $-1 $354 forward single #
loop $-1 $-1 $142 $136 #
plane-surface $-1 -44.217658009582813 0 0 1 0 0 0 0 -1 forward_v I I I I #
coedge $-1 $355 $356 $357 $358 reversed $137 $-1 #
coedge $-1 $359 $139 $141 $241 forward $85 $-1 #
coedge $-1 $139 $359 $355 $360 forward $85 $-1 #
coedge $-1 $357 $142 $139 $238 forward $232 $-1 #
edge $-1 $244 -5.5191143584197206 $361 1.0737037831073195 $237 $362 forward 7 unknown #
coedge $-1 $363 $364 $140 $240 forward $353 $-1 #
edge $-1 $365 -7.2490264623704661 $243 -0.66494875644043105 $239 $366 forward 7 unknown #
edge $-1 $244 8.3777685069199533e-015 $365 7.6812049784886405 $141 $367 forward 7 unknown #
coedge $-1 $142 $357 $363 $368 reversed $232 $-1 #
vertex $-1 $368 $369 #
vertex $-1 $143 $370 #
straight-curve $-1 -44.217658009582813 7.7418196460759212 39.312070392198279 0 0 -1 I I #
coedge $-1 $246 $246 $-1 $371 reversed $146 $-1 #
edge $-1 $372 0 $372 6.2831853071796004 $147 $373 forward 7 unknown #
vertex $-1 $150 $374 #
ellipse-curve $-1 -40.925619156617792 3.032663830699466 4.798336568433732 -0.51503808176128008 0 0.85716729658548041 0.4285836482927402 0 0.25751904088064004 1 I I #
coedge $-1 $250 $250 $-1 $375 reversed $153 $-1 #
edge $-1 $376 0 $376 6.2831853071796004 $154 $377 forward 7 unknown #
vertex $-1 $157 $378 #
ellipse-curve $-1 -40.925619156617792 5.8581573199253398 4.798336568433732 -0.51503808176128008 0 0.85716729658548041 0.4285836482927402 0 0.25751904088064004 1 I I #
face $-1 $-1 $266 $33 $-1 $379 forward single #
loop $-1 $-1 $380 $158 #
plane-surface $-1 44.217658009582813 0 0 -1 0 0 0 0 1 forward_v I I I I #
coedge $-1 $381 $382 $383 $384 reversed $159 $-1 #
coedge $-1 $385 $161 $163 $264 forward $99 $-1 #
coedge $-1 $161 $385 $381 $386 forward $99 $-1 #
coedge $-1 $383 $164 $161 $261 forward $266 $-1 #
edge $-1 $268 -5.5191143584197206 $387 1.0737037831073195 $260 $388 forward 7 unknown #
coedge $-1 $389 $390 $162 $263 forward $255 $-1 #
edge $-1 $391 -59.265568123864377 $267 -55.309455046128384 $262 $392 forward 7 unknown #
edge $-1 $268 80.754111040676946 $391 88.435316019165612 $163 $393 forward 7 unknown #
coedge $-1 $164 $383 $389 $394 forward $266 $-1 #
loop $-1 $-1 $383 $254 #
vertex $-1 $263 $395 #
vertex $-1 $165 $396 #
straight-curve $-1 6.9806763886078294 7.7418196460759212 6.7763931073017218 -1 0 0 I I #
coedge $-1 $270 $270 $-1 $397 reversed $168 $-1 #
edge $-1 $398 0 $398 6.2831853071796004 $169 $399 forward 7 unknown #
vertex $-1 $172 $400 #
ellipse-curve $-1 40.925619156617806 3.032663830699466 4.7983365684337116 0.51503808176128008 0 0.85716729658548041 0.4285836482927402 0 -0.25751904088064004 1 I I #
coedge $-1 $274 $274 $-1 $401 reversed $175 $-1 #
edge $-1 $402 0 $402 6.2831853071796004 $176 $403 forward 7 unknown #
vertex $-1 $179 $404 #
ellipse-curve $-1 40.925619156617806 5.8581573199253398 4.7983365684337116 0.51503808176128008 0 0.85716729658548041 0.4285836482927402 0 -0.25751904088064004 1 I I #
face $-1 $-1 $195 $27 $-1 $405 reversed single #
loop $-1 $-1 $294 $180 #
plane-surface $-1 0 19.072010938298742 0 0 -1 0 0 0 -1 forward_v I I I I #
coedge $-1 $406 $292 $295 $407 forward $181 $-1 #
coedge $-1 $298 $183 $184 $286 reversed $113 $-1 #
coedge $-1 $292 $406 $183 $284 reversed $181 $-1 #
edge $-1 $299 -6.7763931073017201 $408 6.7763931073017201 $283 $409 forward 7 unknown #
coedge $-1 $185 $184 $406 $410 forward $73 $-1 #
edge $-1 $290 -44.217658009582813 $408 44.217658009582813 $282 $411 forward 7 unknown #
coedge $-1 $295 $294 $185 $288 reversed $279 $-1 #
edge $-1 $412 -44.217658009582813 $289 44.217658009582813 $287 $413 forward 7 unknown #
vertex $-1 $187 $414 #
vertex $-1 $301 $415 #
straight-curve $-1 44.217658009582813 0 -6.7763931073017201 0 -1 0 I I #
coedge $-1 $281 $283 $188 $293 reversed $181 $-1 #
edge $-1 $296 -19.072010938298742 $299 19.072010938298742 $292 $416 forward 7 unknown #
coedge $-1 $287 $189 $194 $302 forward $279 $-1 #
coedge $-1 $189 $287 $281 $407 reversed $279 $-1 #
vertex $-1 $190 $417 #
straight-curve $-1 0 19.072010938298742 6.7763931073017201 -1 0 0 I I #
coedge $-1 $191 $282 $193 $301 reversed $113 $-1 #
vertex $-1 $293 $418 #
straight-curve $-1 0 -19.072010938298742 6.7763931073017201 1 0 0 I I #
edge $-1 $196 -6.7763931073017201 $290 6.7763931073017201 $193 $419 forward 7 unknown #
edge $-1 $197 -6.7763931073017201 $289 6.7763931073017201 $194 $420 forward 7 unknown #
point $-1 44.217658009582813 -19.072010938298742 6.7763931073017201 #
point $-1 44.217658009582813 19.072010938298742 6.7763931073017201 #
face $-1 $-1 $421 $28 $-1 $422 reversed single #
loop $-1 $-1 $423 $199 #
plane-surface $-1 0 0 -6.7763931073017201 0 0 1 1 0 0 forward_v I I I I #
coedge $-1 $315 $325 $310 $424 forward $200 $-1 #
coedge $-1 $205 $202 $423 $425 reversed $121 $-1 #
coedge $-1 $202 $205 $308 $424 reversed $121 $-1 #
coedge $-1 $426 $427 $202 $312 forward $421 $-1 #
edge $-1 $428 -6.7763931073017201 $429 6.7763931073017201 $311 $430 forward 7 unknown #
coedge $-1 $423 $208 $203 $314 forward $306 $-1 #
edge $-1 $213 -22.326439358183627 $318 -19.307287071630149 $313 $431 forward 7 unknown #
coedge $-1 $210 $308 $204 $316 forward $200 $-1 #
edge $-1 $317 19.307287071630149 $212 22.326439358183627 $315 $432 forward 7 unknown #
vertex $-1 $316 $433 #
vertex $-1 $314 $434 #
straight-curve $-1 -40.124150286537038 -13.117156487163843 0 0 0 -1 I I #
coedge $-1 $427 $426 $207 $321 forward $421 $-1 #
edge $-1 $326 -6.7763931073017201 $323 6.7763931073017201 $320 $435 forward 7 unknown #
coedge $-1 $208 $423 $427 $436 forward $306 $-1 #
vertex $-1 $209 $437 #
straight-curve $-1 -43.143302573090516 -8.0472918563656464 -6.7763931073017201 0 1 0 I I #
coedge $-1 $308 $210 $426 $438 forward $200 $-1 #
vertex $-1 $438 $439 #
straight-curve $-1 -43.143302573090516 -8.0472918563656464 6.7763931073017201 0 -1 0 I I #
point $-1 -43.143302573090516 -13.117156487163843 6.7763931073017201 #
point $-1 -43.143302573090516 -13.117156487163843 -6.7763931073017201 #
face $-1 $-1 $340 $29 $-1 $440 reversed single #
loop $-1 $-1 $336 $215 #
plane-surface $-1 0 0 -6.7763931073017201 0 0 1 1 0 0 forward_v I I I I #
coedge $-1 $441 $218 $227 $350 forward $129 $-1 #
coedge $-1 $218 $441 $442 $443 reversed $129 $-1 #
coedge $-1 $220 $219 $226 $349 reversed $81 $-1 #
coedge $-1 $444 $445 $219 $337 forward $331 $-1 #
edge $-1 $446 -44.217658009582813 $341 44.217658009582813 $336 $447 forward 7 unknown #
coedge $-1 $442 $221 $223 $344 forward $340 $-1 #
coedge $-1 $221 $442 $444 $448 reversed $340 $-1 #
loop $-1 $-1 $338 $330 #
vertex $-1 $448 $449 #
vertex $-1 $344 $450 #
straight-curve $-1 -44.217658009582813 12.388291474578793 -2.6351870086009117 0 0 1 I I #
edge $-1 $342 4.5232158713594099 $345 11.206935335079356 $338 $451 forward 7 unknown #
vertex $-1 $443 $452 #
straight-curve $-1 0 19.072010938298742 -3.7643549271019268 1 0 0 I I #
straight-curve $-1 0 12.388291474578793 -3.7643549271019268 1 0 0 I I #
coedge $-1 $227 $226 $445 $453 reversed $216 $-1 #
edge $-1 $229 1.1291679185010151 $446 4.1412060987008079 $226 $454 forward 7 unknown #
edge $-1 $228 3.7643549271019268 $455 6.7763931073017201 $227 $456 forward 7 unknown #
point $-1 44.217658009582813 19.072010938298739 -3.7643549271019268 #
point $-1 44.217658009582813 12.388291474578793 -3.7643549271019268 #
loop $-1 $-1 $239 $231 #
plane-surface $-1 0 0 6.7763931073017201 0 0 1 1 0 0 forward_v I I I I #
coedge $-1 $356 $234 $236 $360 reversed $137 $-1 #
coedge $-1 $234 $355 $457 $458 reversed $137 $-1 #
coedge $-1 $242 $237 $234 $358 forward $232 $-1 #
edge $-1 $361 -36.491790362632536 $459 -32.535677284896558 $357 $460 forward 7 unknown #
coedge $-1 $236 $235 $364 $461 reversed $85 $-1 #
edge $-1 $462 -7.6812049784886405 $361 -8.3777685069199533e-015 $355 $463 forward 7 unknown #
vertex $-1 $238 $464 #
straight-curve $-1 -44.217658009582813 2.2227052876562006 2.820280029565744 0 -1 0 I I #
coedge $-1 $457 $239 $242 $368 forward $353 $-1 #
coedge $-1 $239 $457 $359 $461 forward $353 $-1 #
vertex $-1 $240 $465 #
straight-curve $-1 -44.882606766023244 7.7418196460759212 6.7763931073017218 -1 0 0 I I #
straight-curve $-1 -44.21765800958282 7.7418196460759212 2.8202800295657369 0.85716729658548041 0 0.51503808176128008 I I #
edge $-1 $243 -7.7418196460759212 $459 -1.1490015045488811 $242 $466 forward 7 unknown #
point $-1 -44.217658009582813 7.7418196460759212 6.7763931073017201 #
point $-1 -44.217658009582813 7.7418196460759212 2.8202800295657413 #
edge $-1 $467 1 $467 0 $246 $-1 forward 7 unknown #
vertex $-1 $247 $468 #
ellipse-curve $-1 -39.945880511233618 3.032663830699466 3.1677776723761735 -0.51503808176128008 0 0.85716729658548041 0.4285836482927402 0 0.25751904088064004 1 I I #
point $-1 -40.497035508325055 3.032663830699466 5.0558556093143681 #
edge $-1 $469 1 $469 0 $250 $-1 forward 7 unknown #
vertex $-1 $251 $470 #
ellipse-curve $-1 -39.945880511233618 5.8581573199253398 3.1677776723761735 -0.51503808176128008 0 0.85716729658548041 0.4285836482927402 0 0.25751904088064004 1 I I #
point $-1 -40.497035508325055 5.8581573199253398 5.0558556093143681 #
plane-surface $-1 0 0 6.7763931073017201 0 0 1 1 0 0 forward_v I I I I #
coedge $-1 $390 $389 $382 $471 forward $255 $-1 #
coedge $-1 $382 $257 $259 $386 reversed $159 $-1 #
coedge $-1 $257 $381 $380 $471 reversed $159 $-1 #
coedge $-1 $265 $260 $257 $384 forward $266 $-1 #
edge $-1 $387 30.652903915044927 $472 37.236981620974987 $383 $473 forward 7 unknown #
coedge $-1 $259 $258 $390 $474 reversed $99 $-1 #
edge $-1 $475 -88.435316019165612 $387 -80.754111040676946 $381 $476 forward 7 unknown #
vertex $-1 $261 $477 #
straight-curve $-1 37.633580303652749 2.2227052876562006 6.7763931073017183 0 -1 0 I I #
coedge $-1 $380 $262 $265 $394 reversed $255 $-1 #
coedge $-1 $262 $380 $385 $474 forward $255 $-1 #
vertex $-1 $263 $478 #
straight-curve $-1 44.217658009582813 7.7418196460759212 62.085848153430106 0 0 1 I I #
straight-curve $-1 -31.586202745248009 7.7418196460759212 48.367835552029391 0.85716729658548041 0 -0.51503808176128008 I I #
edge $-1 $472 1.1490015045488811 $267 7.7418196460759212 $389 $479 forward 7 unknown #
point $-1 44.217658009582813 7.7418196460759212 6.7763931073017201 #
point $-1 37.633580303652757 7.7418196460759212 6.7763931073017218 #
edge $-1 $480 1 $480 0 $270 $-1 forward 7 unknown #
vertex $-1 $271 $481 #
ellipse-curve $-1 39.945880511233639 3.032663830699466 3.1677776723761681 0.51503808176128008 0 0.85716729658548041 0.4285836482927402 0 -0.25751904088064004 1 I I #
point $-1 41.354202804910557 3.032663830699466 4.5408175275530827 #
edge $-1 $482 1 $482 0 $274 $-1 forward 7 unknown #
vertex $-1 $275 $483 #
ellipse-curve $-1 39.945880511233639 5.8581573199253398 3.1677776723761681 0.51503808176128008 0 0.85716729658548041 0.4285836482927402 0 -0.25751904088064004 1 I I #
point $-1 41.354202804910557 5.8581573199253398 4.5408175275530827 #
plane-surface $-1 44.217658009582813 0 0 -1 0 0 0 0 1 forward_v I I I I #
coedge $-1 $283 $281 $285 $410 reversed $181 $-1 #
edge $-1 $296 -6.7763931073017201 $412 6.7763931073017201 $295 $484 forward 7 unknown #
vertex $-1 $410 $485 #
straight-curve $-1 -44.217658009582813 -19.072010938298742 0 0 0 -1 I I #
edge $-1 $408 -19.072010938298742 $412 19.072010938298742 $406 $486 forward 7 unknown #
straight-curve $-1 0 -19.072010938298742 -6.7763931073017201 -1 0 0 I I #
vertex $-1 $288 $487 #
straight-curve $-1 0 19.072010938298742 -6.7763931073017201 1 0 0 I I #
point $-1 44.217658009582813 19.072010938298742 -6.7763931073017201 #
point $-1 44.217658009582813 -19.072010938298742 -6.7763931073017201 #
straight-curve $-1 -44.217658009582813 0 6.7763931073017201 0 -1 0 I I #
point $-1 -44.217658009582813 19.072010938298742 6.7763931073017201 #
point $-1 -44.217658009582813 -19.072010938298742 6.7763931073017201 #
straight-curve $-1 44.217658009582813 -19.072010938298742 0 0 0 -1 I I #
straight-curve $-1 44.217658009582813 19.072010938298742 0 0 0 -1 I I #
loop $-1 $-1 $311 $305 #
plane-surface $-1 0 -19.072010938298742 0 0 1 0 0 0 1 forward_v I I I I #
coedge $-1 $322 $313 $309 $425 forward $306 $-1 #
edge $-1 $429 -11.024719081933096 $317 -5.0698646307981967 $308 $488 forward 7 unknown #
edge $-1 $318 5.0698646307981967 $428 11.024719081933096 $423 $489 forward 7 unknown #
coedge $-1 $320 $311 $325 $438 reversed $421 $-1 #
coedge $-1 $311 $320 $322 $436 reversed $421 $-1 #
vertex $-1 $436 $490 #
vertex $-1 $312 $491 #
straight-curve $-1 -40.124150286537038 -19.072010938298742 0 0 0 1 I I #
straight-curve $-1 -20.816863214906888 -13.117156487163843 -6.7763931073017201 1 0 0 I I #
straight-curve $-1 -20.816863214906888 -13.117156487163843 6.7763931073017201 -1 0 0 I I #
point $-1 -40.124150286537038 -13.117156487163843 6.7763931073017201 #
point $-1 -40.124150286537038 -13.117156487163843 -6.7763931073017201 #
straight-curve $-1 -43.143302573090516 -19.072010938298742 0 0 0 -1 I I #
edge $-1 $428 40.124150286537038 $323 43.143302573090516 $427 $492 forward 7 unknown #
point $-1 -43.143302573090516 -19.072010938298742 -6.7763931073017201 #
edge $-1 $326 -43.143302573090516 $429 -40.124150286537038 $426 $493 forward 7 unknown #
point $-1 -43.143302573090516 -19.072010938298742 6.7763931073017201 #
plane-surface $-1 -44.217658009582813 0 0 1 0 0 0 0 -1 forward_v I I I I #
coedge $-1 $334 $333 $494 $495 reversed $129 $-1 #
coedge $-1 $339 $338 $334 $443 forward $340 $-1 #
edge $-1 $345 3.7643549271019268 $496 6.7763931073017201 $334 $497 forward 7 unknown #
coedge $-1 $494 $336 $339 $448 forward $331 $-1 #
coedge $-1 $336 $494 $348 $453 forward $331 $-1 #
vertex $-1 $349 $498 #
straight-curve $-1 0 12.388291474578793 -6.7763931073017201 -1 0 0 I I #
edge $-1 $341 12.388291474578793 $496 19.072010938298742 $339 $499 forward 7 unknown #
point $-1 -44.217658009582813 12.388291474578793 -6.7763931073017201 #
point $-1 -44.217658009582813 12.388291474578793 -3.7643549271019268 #
straight-curve $-1 -44.217658009582813 7.8650756032193829 -3.7643549271019268 0 1 0 I I #
point $-1 -44.217658009582813 19.072010938298739 -3.7643549271019268 #
edge $-1 $455 -19.072010938298742 $446 -12.388291474578793 $348 $500 forward 7 unknown #
straight-curve $-1 44.217658009582813 12.388291474578793 -2.6351870086009117 0 0 -1 I I #
vertex $-1 $453 $501 #
straight-curve $-1 44.217658009582813 19.072010938298742 0 0 0 -1 I I #
coedge $-1 $364 $363 $356 $458 forward $353 $-1 #
edge $-1 $459 0.66494875644043105 $462 7.2490264623704661 $457 $502 forward 7 unknown #
vertex $-1 $458 $503 #
straight-curve $-1 -44.217658009582813 1.1490015045488811 39.312070392198279 0 0 1 I I #
edge $-1 $462 -1.0737037831073195 $365 5.5191143584197206 $364 $504 forward 7 unknown #
vertex $-1 $461 $505 #
straight-curve $-1 -44.21765800958282 1.1490015045488811 2.8202800295657369 -0.85716729658548041 0 -0.51503808176128008 I I #
point $-1 -44.217658009582813 1.1490015045488811 2.8202800295657413 #
point $-1 -37.633580303652778 7.7418196460759212 6.7763931073017201 #
straight-curve $-1 -44.217658009582813 0 6.7763931073017201 0 -1 0 I I #
vertex $-1 $371 $506 #
point $-1 -39.517296862940881 3.032663830699466 3.4252967132568135 #
vertex $-1 $375 $507 #
point $-1 -39.517296862940881 5.8581573199253398 3.4252967132568135 #
edge $-1 $472 55.309455046128384 $475 59.265568123864377 $380 $508 forward 7 unknown #
vertex $-1 $394 $509 #
straight-curve $-1 6.9806763886078294 1.1490015045488811 6.7763931073017218 1 0 0 I I #
edge $-1 $475 -1.0737037831073195 $391 5.5191143584197206 $390 $510 forward 7 unknown #
vertex $-1 $474 $511 #
straight-curve $-1 -31.586202745248009 1.1490015045488811 48.367835552029391 -0.85716729658548041 0 0.51503808176128008 I I #
point $-1 37.633580303652757 1.1490015045488811 6.7763931073017218 #
point $-1 44.217658009582813 7.7418196460759212 2.8202800295657298 #
straight-curve $-1 44.217658009582813 0 6.7763931073017201 0 1 0 I I #
vertex $-1 $397 $512 #
point $-1 40.374464159526383 3.032663830699466 2.9102586314955281 #
vertex $-1 $401 $513 #
point $-1 40.374464159526383 5.8581573199253398 2.9102586314955281 #
straight-curve $-1 -44.217658009582813 19.072010938298742 0 0 0 -1 I I #
point $-1 -44.217658009582813 -19.072010938298742 -6.7763931073017201 #
straight-curve $-1 -44.217658009582813 0 -6.7763931073017201 0 1 0 I I #
point $-1 -44.217658009582813 19.072010938298742 -6.7763931073017201 #
straight-curve $-1 -40.124150286537038 -8.0472918563656464 6.7763931073017201 0 1 0 I I #
straight-curve $-1 -40.124150286537038 -8.0472918563656464 -6.7763931073017201 0 -1 0 I I #
point $-1 -40.124150286537038 -19.072010938298742 -6.7763931073017201 #
point $-1 -40.124150286537038 -19.072010938298742 6.7763931073017201 #
straight-curve $-1 0 -19.072010938298742 -6.7763931073017201 -1 0 0 I I #
straight-curve $-1 0 -19.072010938298742 6.7763931073017201 1 0 0 I I #
coedge $-1 $445 $444 $441 $495 forward $331 $-1 #
edge $-1 $496 -44.217658009582813 $455 44.217658009582813 $441 $514 forward 7 unknown #
vertex $-1 $495 $515 #
straight-curve $-1 -44.217658009582813 19.072010938298742 0 0 0 -1 I I #
point $-1 44.217658009582813 12.388291474578793 -6.7763931073017201 #
straight-curve $-1 -44.217658009582813 0 -6.7763931073017201 0 1 0 I I #
straight-curve $-1 44.217658009582813 0 -6.7763931073017201 0 -1 0 I I #
point $-1 44.217658009582813 19.072010938298742 -6.7763931073017201 #
straight-curve $-1 -44.882606766023244 1.1490015045488811 6.7763931073017218 1 0 0 I I #
point $-1 -44.217658009582813 1.1490015045488811 6.7763931073017201 #
straight-curve $-1 -37.633580303652778 2.2227052876562006 6.7763931073017201 0 1 0 I I #
point $-1 -37.633580303652778 1.1490015045488811 6.7763931073017201 #
point $-1 -39.68836147035298 3.032663830699466 2.7391940240834334 #
point $-1 -39.68836147035298 5.8581573199253398 2.7391940240834334 #
straight-curve $-1 44.217658009582813 1.1490015045488811 62.085848153430106 0 0 -1 I I #
point $-1 44.217658009582813 1.1490015045488811 6.7763931073017201 #
straight-curve $-1 44.217658009582806 2.2227052876562006 2.8202800295657333 0 1 0 I I #
point $-1 44.217658009582813 1.1490015045488811 2.8202800295657298 #
point $-1 39.688361470353001 3.032663830699466 2.739194024083428 #
point $-1 39.688361470353001 5.8581573199253398 2.739194024083428 #
straight-curve $-1 0 19.072010938298742 -6.7763931073017201 1 0 0 I I #
point $-1 -44.217658009582813 19.072010938298742 -6.7763931073017201 #
End-of-ACIS-data 