500 0 6 0           
7 Unknown 11 ACIS 5.0 NT 24 Thu Mar 25 23:01:24 1999 
-1 9.9999999999999995e-007 1e-010 
body $-1 $6 $-1 $7 #
body $-1 $8 $-1 $9 #
body $-1 $10 $-1 $11 #
body $-1 $12 $-1 $13 #
body $-1 $14 $-1 $15 #
body $-1 $16 $-1 $17 #
lump $-1 $-1 $18 $0 #
transform $-1 1 0 0 0 1 0 0 0 1 50.408032471694085 25.521845134087709 7.7597562893417837 1 rotate no_reflect no_shear #
lump $-1 $-1 $19 $1 #
transform $-1 1 0 0 0 1 0 0 0 1 50.408032471694085 25.521845134087709 7.7597562893417837 1 rotate no_reflect no_shear #
lump $-1 $-1 $20 $2 #
transform $-1 1 0 0 0 1 0 0 0 1 50.408032471694085 25.521845134087709 7.7597562893417837 1 rotate no_reflect no_shear #
lump $-1 $-1 $21 $3 #
transform $-1 1 0 0 0 1 0 0 0 1 50.408032471694085 25.521845134087709 7.7597562893417837 1 rotate no_reflect no_shear #
lump $-1 $-1 $22 $4 #
transform $-1 1 0 0 0 1 0 0 0 1 50.408032471694085 25.521845134087709 7.7597562893417837 1 rotate no_reflect no_shear #
lump $-1 $-1 $23 $5 #
transform $-1 1 0 0 0 1 0 0 0 1 50.408032471694085 25.521845134087709 7.7597562893417837 1 rotate no_reflect no_shear #
shell $-1 $-1 $-1 $24 $-1 $6 #
shell $-1 $-1 $-1 $25 $-1 $8 #
shell $-1 $-1 $-1 $26 $-1 $10 #
shell $-1 $-1 $-1 $27 $-1 $12 #
shell $-1 $-1 $-1 $28 $-1 $14 #
shell $-1 $-1 $-1 $29 $-1 $16 #
face $-1 $30 $31 $18 $-1 $32 forward single #
face $-1 $33 $34 $19 $-1 $35 reversed single #
face $-1 $36 $37 $20 $-1 $38 reversed single #
face $-1 $39 $40 $21 $-1 $41 forward single #
face $-1 $42 $43 $22 $-1 $44 reversed single #
face $-1 $45 $46 $23 $-1 $47 forward single #
face $-1 $48 $49 $18 $-1 $50 reversed single #
loop $-1 $-1 $51 $24 #
plane-surface $-1 0 0 7.7597562893417837 0 0 1 1 0 0 forward_v I I I I #
face $-1 $52 $53 $19 $-1 $54 reversed single #
loop $-1 $-1 $55 $25 #
plane-surface $-1 -45.737280591208233 0 3.5186150379052172 0 0 1 1 0 0 forward_v I I I I #
face $-1 $56 $57 $20 $-1 $58 reversed single #
loop $-1 $-1 $59 $26 #
plane-surface $-1 32.077666060980121 55.048106685493124 111.39462812188941 1 0 0 0 -0.66913061440640931 -0.74314481823134659 forward_v I I I I #
face $-1 $60 $61 $21 $-1 $62 forward single #
loop $-1 $63 $64 $27 #
cone-surface $-1 41.242849266337103 21.543575054761341 3.9765634226367212 0 -0.66913061440640931 -0.74314481823134659 1 0 0 1 I I 0 1 1 forward I I I I #
face $-1 $65 $66 $22 $-1 $67 reversed single #
loop $-1 $-1 $68 $28 #
plane-surface $-1 41.242849266337103 -25.521845134087698 2.3187960340208917 0 -0.66913061440640931 0.74314481823134659 1 0 0 forward_v I I I I #
face $-1 $69 $70 $23 $-1 $71 forward single #
loop $-1 $72 $73 $29 #
cone-surface $-1 41.242849266337103 -21.543575054761334 3.9765634226367141 0 0.66913061440640931 -0.74314481823134659 1 0 0 1 I I 0 1 1 forward I I I I #
face $-1 $74 $75 $18 $-1 $76 reversed single #
loop $-1 $-1 $77 $30 #
plane-surface $-1 0 0 -7.7597562893417837 0 0 1 1 0 0 forward_v I I I I #
coedge $-1 $78 $79 $80 $81 forward $31 $-1 #
face $-1 $82 $83 $19 $-1 $84 reversed single #
loop $-1 $-1 $85 $33 #
plane-surface $-1 -41.06652871072238 0 5.6391856636235005 -1 0 0 0 0 1 forward_v I I I I #
coedge $-1 $86 $87 $88 $89 forward $34 $-1 #
face $-1 $90 $91 $20 $-1 $92 forward single #
loop $-1 $-1 $93 $36 #
plane-surface $-1 41.242849266337103 -12.411008792112668 36.473691864735571 0 0.66913061440640931 0.74314481823134659 1 0 0 forward_v I I I I #
coedge $-1 $94 $95 $96 $97 reversed $37 $-1 #
face $-1 $-1 $98 $21 $-1 $99 forward single #
loop $-1 $100 $101 $39 #
cone-surface $-1 41.242849266337103 20.252138878557364 2.5422782744764199 0 -0.66913061440640931 -0.74314481823134659 0.5 0 0 1 I I -0.70710678118654746 0.70710678118654746 0.5 forward I I I I #
loop $-1 $-1 $102 $27 #
coedge $-1 $64 $64 $103 $104 reversed $40 $-1 #
face $-1 $105 $106 $22 $-1 $107 forward single #
loop $-1 $-1 $108 $42 #
plane-surface $-1 32.077666060980121 -92.98096061169349 77.239732291174732 1 0 0 0 0.66913061440640931 -0.74314481823134659 forward_v I I I I #
coedge $-1 $109 $110 $111 $112 reversed $43 $-1 #
face $-1 $-1 $113 $23 $-1 $114 forward single #
loop $-1 $115 $116 $45 #
cone-surface $-1 41.242849266337103 -20.252138878557357 2.5422782744764127 0 0.66913061440640931 -0.74314481823134659 0.5 0 0 1 I I -0.70710678118654746 0.70710678118654746 0.5 forward I I I I #
loop $-1 $-1 $117 $29 #
coedge $-1 $73 $73 $118 $119 reversed $46 $-1 #
face $-1 $120 $121 $18 $-1 $122 reversed single #
loop $-1 $-1 $123 $48 #
plane-surface $-1 0 -25.521845134087709 0 0 1 0 0 0 1 forward_v I I I I #
coedge $-1 $124 $125 $126 $127 forward $49 $-1 #
coedge $-1 $128 $51 $129 $130 forward $31 $-1 #
coedge $-1 $51 $128 $131 $132 forward $31 $-1 #
coedge $-1 $133 $134 $51 $81 reversed $135 $-1 #
edge $-1 $136 -25.521845134087709 $137 25.521845134087709 $80 $138 forward 7 unknown #
face $-1 $139 $140 $19 $-1 $141 reversed single #
loop $-1 $-1 $142 $52 #
plane-surface $-1 0 25.521845134087709 0 0 -1 0 0 0 -1 forward_v I I I I #
coedge $-1 $88 $143 $144 $145 reversed $53 $-1 #
coedge $-1 $146 $55 $147 $148 reversed $34 $-1 #
coedge $-1 $55 $146 $149 $150 reversed $34 $-1 #
coedge $-1 $151 $85 $55 $89 reversed $53 $-1 #
edge $-1 $152 -25.521845134087709 $153 25.521845134087709 $88 $154 forward 7 unknown #
face $-1 $155 $156 $20 $-1 $157 reversed single #
loop $-1 $-1 $96 $56 #
plane-surface $-1 0 0 7.7597562893417837 0 0 1 1 0 0 forward_v I I I I #
coedge $-1 $158 $159 $160 $161 reversed $57 $-1 #
coedge $-1 $95 $59 $162 $163 reversed $37 $-1 #
coedge $-1 $59 $94 $158 $164 reversed $37 $-1 #
coedge $-1 $160 $165 $59 $97 forward $91 $-1 #
edge $-1 $166 2.0022082086588533 $167 8.0450066293100591 $96 $168 forward 7 unknown #
loop $-1 $-1 $103 $60 #
plane-surface $-1 41.242849266337103 -12.411008792112668 36.473691864735571 0 0.66913061440640931 0.74314481823134659 1 0 0 forward_v I I I I #
loop $-1 $-1 $169 $39 #
coedge $-1 $101 $101 $102 $170 reversed $61 $-1 #
coedge $-1 $102 $102 $101 $170 forward $63 $-1 #
coedge $-1 $103 $103 $64 $104 forward $98 $-1 #
edge $-1 $171 1.9774685664160649e-015 $171 6.2831853071796022 $103 $172 forward 7 unknown #
face $-1 $173 $174 $22 $-1 $175 reversed single #
loop $-1 $-1 $111 $65 #
plane-surface $-1 0 0 7.7597562893417837 0 0 1 1 0 0 forward_v I I I I #
coedge $-1 $176 $177 $178 $179 reversed $66 $-1 #
coedge $-1 $180 $68 $181 $182 reversed $43 $-1 #
coedge $-1 $68 $180 $176 $183 forward $43 $-1 #
coedge $-1 $178 $184 $68 $112 forward $106 $-1 #
edge $-1 $185 -29.786607838525534 $186 -11.45624142781157 $111 $187 forward 7 unknown #
loop $-1 $-1 $118 $69 #
plane-surface $-1 41.242849266337103 -25.521845134087698 2.3187960340208917 0 -0.66913061440640931 0.74314481823134659 1 0 0 forward_v I I I I #
loop $-1 $-1 $188 $45 #
coedge $-1 $116 $116 $117 $189 reversed $70 $-1 #
coedge $-1 $117 $117 $116 $189 forward $72 $-1 #
coedge $-1 $118 $118 $73 $119 forward $113 $-1 #
edge $-1 $190 -1.3831611947396076e-015 $190 6.2831853071795987 $118 $191 forward 7 unknown #
face $-1 $192 $193 $18 $-1 $194 reversed single #
loop $-1 $-1 $195 $74 #
plane-surface $-1 -50.408032471694085 0 0 1 0 0 0 0 -1 forward_v I I I I #
coedge $-1 $196 $131 $197 $198 forward $75 $-1 #
coedge $-1 $199 $77 $196 $200 forward $49 $-1 #
coedge $-1 $77 $199 $201 $202 forward $49 $-1 #
coedge $-1 $134 $133 $77 $127 reversed $135 $-1 #
edge $-1 $203 -25.521845134087709 $204 25.521845134087709 $126 $205 forward 7 unknown #
coedge $-1 $79 $78 $206 $207 forward $31 $-1 #
coedge $-1 $208 $209 $78 $130 reversed $193 $-1 #
edge $-1 $137 -50.408032471694085 $210 50.408032471694085 $129 $211 forward 7 unknown #
coedge $-1 $123 $212 $79 $132 reversed $75 $-1 #
edge $-1 $213 -50.408032471694085 $136 50.408032471694085 $131 $214 forward 7 unknown #
coedge $-1 $126 $80 $212 $215 forward $135 $-1 #
coedge $-1 $80 $126 $208 $216 reversed $135 $-1 #
loop $-1 $-1 $133 $192 #
vertex $-1 $81 $217 #
vertex $-1 $81 $218 #
straight-curve $-1 50.408032471694085 0 7.7597562893417837 0 1 0 I I #
face $-1 $219 $220 $19 $-1 $221 forward single #
loop $-1 $-1 $222 $82 #
plane-surface $-1 -50.408032471694085 0 0 1 0 0 0 0 -1 forward_v I I I I #
coedge $-1 $149 $223 $151 $224 forward $83 $-1 #
coedge $-1 $85 $151 $225 $226 reversed $53 $-1 #
coedge $-1 $227 $147 $85 $145 forward $228 $-1 #
edge $-1 $153 0.69902220609346699 $229 4.9401634575300335 $144 $230 forward 7 unknown #
coedge $-1 $87 $86 $222 $231 reversed $34 $-1 #
coedge $-1 $144 $232 $86 $148 forward $228 $-1 #
edge $-1 $233 -27.539392176089969 $153 -18.197888415118264 $147 $234 forward 7 unknown #
coedge $-1 $235 $142 $87 $150 forward $83 $-1 #
edge $-1 $152 18.197888415118264 $236 27.539392176089969 $149 $237 forward 7 unknown #
coedge $-1 $143 $88 $142 $224 reversed $53 $-1 #
vertex $-1 $150 $238 #
vertex $-1 $148 $239 #
straight-curve $-1 -41.06652871072238 0 3.5186150379052172 0 -1 0 I I #
face $-1 $-1 $240 $20 $-1 $241 reversed single #
loop $-1 $-1 $242 $90 #
plane-surface $-1 50.408032471694085 0 0 -1 0 0 0 0 1 forward_v I I I I #
coedge $-1 $243 $93 $95 $164 forward $57 $-1 #
coedge $-1 $93 $243 $242 $244 reversed $57 $-1 #
coedge $-1 $245 $96 $93 $161 forward $91 $-1 #
edge $-1 $167 11.45624142781157 $246 29.786607838525534 $160 $247 forward 7 unknown #
coedge $-1 $248 $249 $94 $163 forward $240 $-1 #
edge $-1 $250 -53.378518026923814 $166 -47.937557771602926 $162 $251 forward 7 unknown #
edge $-1 $167 42.912302855648193 $250 51.043690268175425 $95 $252 forward 7 unknown #
coedge $-1 $96 $245 $248 $253 forward $91 $-1 #
vertex $-1 $163 $254 #
vertex $-1 $97 $255 #
straight-curve $-1 32.077666060980121 27.524053342746562 7.7597562893417873 0 -1 0 I I #
coedge $-1 $169 $169 $-1 $256 reversed $100 $-1 #
edge $-1 $257 0 $257 6.2831853071796004 $101 $258 forward 7 unknown #
vertex $-1 $104 $259 #
ellipse-curve $-1 41.242849266337103 22.500445923762104 5.0392761616813404 0 0.66913061440640931 0.74314481823134659 1 0 0 1 I I #
face $-1 $-1 $260 $22 $-1 $261 reversed single #
loop $-1 $-1 $262 $105 #
plane-surface $-1 0 -25.521845134087709 0 0 1 0 0 0 1 forward_v I I I I #
coedge $-1 $177 $108 $110 $183 reversed $66 $-1 #
coedge $-1 $108 $176 $263 $264 reversed $66 $-1 #
coedge $-1 $265 $111 $108 $179 forward $106 $-1 #
edge $-1 $186 -27.01143359241026 $266 -20.968635171759036 $178 $267 forward 7 unknown #
coedge $-1 $110 $109 $262 $268 reversed $43 $-1 #
coedge $-1 $269 $270 $109 $182 forward $260 $-1 #
edge $-1 $271 -8.7074247740863324 $185 -0.57603736155908192 $181 $272 forward 7 unknown #
edge $-1 $273 -1.4457923371621692e-014 $186 8.1313874125272356 $176 $274 forward 7 unknown #
coedge $-1 $111 $265 $269 $275 forward $106 $-1 #
vertex $-1 $182 $276 #
vertex $-1 $112 $277 #
straight-curve $-1 20.621424633168552 -19.479046713436485 7.7597562893417837 -1 0 0 I I #
coedge $-1 $188 $188 $-1 $278 reversed $115 $-1 #
edge $-1 $279 0 $279 6.2831853071796004 $116 $280 forward 7 unknown #
vertex $-1 $119 $281 #
ellipse-curve $-1 41.242849266337103 -22.500445923762097 5.0392761616813324 0 -0.66913061440640931 0.74314481823134659 1 0 0 1 I I #
face $-1 $-1 $135 $18 $-1 $282 reversed single #
loop $-1 $-1 $208 $120 #
plane-surface $-1 0 25.521845134087709 0 0 -1 0 0 0 -1 forward_v I I I I #
coedge $-1 $283 $206 $209 $284 forward $121 $-1 #
coedge $-1 $212 $123 $124 $200 reversed $75 $-1 #
coedge $-1 $206 $283 $123 $198 reversed $121 $-1 #
edge $-1 $213 -7.7597562893417837 $285 7.7597562893417837 $197 $286 forward 7 unknown #
coedge $-1 $125 $124 $283 $287 forward $49 $-1 #
edge $-1 $204 -50.408032471694085 $285 50.408032471694085 $196 $288 forward 7 unknown #
coedge $-1 $209 $208 $125 $202 reversed $193 $-1 #
edge $-1 $289 -50.408032471694085 $203 50.408032471694085 $201 $290 forward 7 unknown #
vertex $-1 $127 $291 #
vertex $-1 $215 $292 #
straight-curve $-1 50.408032471694085 0 -7.7597562893417837 0 -1 0 I I #
coedge $-1 $195 $197 $128 $207 reversed $121 $-1 #
edge $-1 $210 -25.521845134087709 $213 25.521845134087709 $206 $293 forward 7 unknown #
coedge $-1 $201 $129 $134 $216 forward $193 $-1 #
coedge $-1 $129 $201 $195 $284 reversed $193 $-1 #
vertex $-1 $130 $294 #
straight-curve $-1 0 25.521845134087709 7.7597562893417837 -1 0 0 I I #
coedge $-1 $131 $196 $133 $215 reversed $75 $-1 #
vertex $-1 $207 $295 #
straight-curve $-1 0 -25.521845134087709 7.7597562893417837 1 0 0 I I #
edge $-1 $136 -7.7597562893417837 $204 7.7597562893417837 $133 $296 forward 7 unknown #
edge $-1 $137 -7.7597562893417837 $203 7.7597562893417837 $134 $297 forward 7 unknown #
point $-1 50.408032471694085 -25.521845134087709 7.7597562893417837 #
point $-1 50.408032471694085 25.521845134087709 7.7597562893417837 #
face $-1 $-1 $228 $19 $-1 $298 reversed single #
loop $-1 $-1 $225 $139 #
plane-surface $-1 0 0 7.7597562893417837 0 0 1 1 0 0 forward_v I I I I #
coedge $-1 $299 $300 $146 $231 forward $140 $-1 #
coedge $-1 $142 $235 $301 $302 reversed $83 $-1 #
edge $-1 $303 -4.9401634575300335 $152 -0.69902220609346699 $142 $304 forward 7 unknown #
coedge $-1 $301 $305 $143 $226 forward $220 $-1 #
edge $-1 $229 -25.521845134087709 $303 25.521845134087709 $225 $306 forward 7 unknown #
coedge $-1 $232 $144 $305 $307 reversed $228 $-1 #
loop $-1 $-1 $144 $219 #
vertex $-1 $145 $308 #
straight-curve $-1 -41.06652871072238 -25.521845134087709 2.8195928318117502 0 0 1 I I #
edge $-1 $236 -25.521845134087709 $233 25.521845134087709 $222 $309 forward 7 unknown #
coedge $-1 $147 $227 $299 $310 forward $228 $-1 #
vertex $-1 $231 $311 #
straight-curve $-1 -22.868640295604116 -25.521845134087709 3.5186150379052172 1 0 0 I I #
coedge $-1 $223 $149 $300 $312 reversed $83 $-1 #
vertex $-1 $231 $313 #
straight-curve $-1 -22.868640295604116 25.521845134087709 3.5186150379052172 -1 0 0 I I #
point $-1 -41.06652871072238 25.521845134087709 3.5186150379052172 #
point $-1 -41.06652871072238 -25.521845134087709 3.5186150379052172 #
loop $-1 $-1 $162 $155 #
plane-surface $-1 0 25.521845134087709 0 0 -1 0 0 0 -1 forward_v I I I I #
coedge $-1 $314 $315 $159 $244 forward $156 $-1 #
coedge $-1 $159 $158 $249 $316 reversed $57 $-1 #
edge $-1 $246 26.0978824956468 $317 34.229269908174032 $242 $318 forward 7 unknown #
coedge $-1 $165 $160 $315 $319 forward $91 $-1 #
vertex $-1 $319 $320 #
straight-curve $-1 20.621424633168552 19.4790467134365 7.7597562893417837 1 0 0 I I #
coedge $-1 $321 $162 $165 $253 reversed $240 $-1 #
coedge $-1 $162 $321 $243 $316 forward $240 $-1 #
vertex $-1 $163 $322 #
straight-curve $-1 32.077666060980121 25.521845134087709 55.697314060944706 0 0 1 I I #
straight-curve $-1 32.077666060980121 -12.411008792112668 36.473691864735571 0 0.74314481823134659 -0.66913061440640931 I I #
edge $-1 $323 -50.408032471694085 $166 -32.077666060980121 $248 $324 forward 7 unknown #
point $-1 32.077666060980121 25.521845134087709 7.7597562893417837 #
point $-1 32.077666060980121 19.479046713436503 7.7597562893417837 #
edge $-1 $325 1 $325 0 $169 $-1 forward 7 unknown #
vertex $-1 $170 $326 #
ellipse-curve $-1 41.242849266337103 20.586704185760567 2.9138506835920932 0 0.66913061440640931 0.74314481823134659 1 0 0 1 I I #
point $-1 42.242849266337103 22.500445923762115 5.0392761616813493 #
loop $-1 $-1 $181 $173 #
plane-surface $-1 50.408032471694085 0 0 -1 0 0 0 0 1 forward_v I I I I #
coedge $-1 $327 $263 $180 $268 forward $174 $-1 #
coedge $-1 $262 $328 $177 $264 forward $174 $-1 #
edge $-1 $266 30.860109856245582 $273 36.301070111566482 $263 $329 forward 7 unknown #
coedge $-1 $184 $178 $328 $330 forward $106 $-1 #
vertex $-1 $330 $331 #
straight-curve $-1 32.077666060980121 -46.490480305846745 7.7597562893417873 0 -1 0 I I #
edge $-1 $273 11.45624142781157 $271 29.786607838525534 $262 $332 forward 7 unknown #
coedge $-1 $270 $181 $184 $275 reversed $260 $-1 #
coedge $-1 $181 $269 $327 $333 forward $260 $-1 #
vertex $-1 $268 $334 #
straight-curve $-1 50.408032471694085 -19.050967533086197 8.1452005230028597 0 0.74314481823134659 0.66913061440640931 I I #
vertex $-1 $268 $335 #
straight-curve $-1 32.077666060980121 -25.521845134087698 2.3187960340208917 0 0.74314481823134659 0.66913061440640931 I I #
edge $-1 $336 -25.521845134087709 $185 -19.479046713436485 $269 $337 forward 7 unknown #
point $-1 50.408032471694085 -19.479046713436485 7.7597562893417837 #
point $-1 32.077666060980121 -19.479046713436485 7.7597562893417837 #
edge $-1 $338 1 $338 0 $188 $-1 forward 7 unknown #
vertex $-1 $189 $339 #
ellipse-curve $-1 41.242849266337103 -20.58670418576056 2.9138506835920861 0 -0.66913061440640931 0.74314481823134659 1 0 0 1 I I #
point $-1 42.242849266337103 -22.500445923762108 5.0392761616813422 #
plane-surface $-1 50.408032471694085 0 0 -1 0 0 0 0 1 forward_v I I I I #
coedge $-1 $197 $195 $199 $287 reversed $121 $-1 #
edge $-1 $210 -7.7597562893417837 $289 7.7597562893417837 $209 $340 forward 7 unknown #
vertex $-1 $287 $341 #
straight-curve $-1 -50.408032471694085 -25.521845134087709 0 0 0 -1 I I #
edge $-1 $285 -25.521845134087709 $289 25.521845134087709 $283 $342 forward 7 unknown #
straight-curve $-1 0 -25.521845134087709 -7.7597562893417837 -1 0 0 I I #
vertex $-1 $202 $343 #
straight-curve $-1 0 25.521845134087709 -7.7597562893417837 1 0 0 I I #
point $-1 50.408032471694085 25.521845134087709 -7.7597562893417837 #
point $-1 50.408032471694085 -25.521845134087709 -7.7597562893417837 #
straight-curve $-1 -50.408032471694085 0 7.7597562893417837 0 -1 0 I I #
point $-1 -50.408032471694085 25.521845134087709 7.7597562893417837 #
point $-1 -50.408032471694085 -25.521845134087709 7.7597562893417837 #
straight-curve $-1 50.408032471694085 -25.521845134087709 0 0 0 -1 I I #
straight-curve $-1 50.408032471694085 25.521845134087709 0 0 0 -1 I I #
plane-surface $-1 0 -25.521845134087709 0 0 1 0 0 0 1 forward_v I I I I #
coedge $-1 $344 $222 $232 $310 reversed $140 $-1 #
coedge $-1 $222 $344 $235 $312 forward $140 $-1 #
coedge $-1 $345 $225 $223 $302 forward $220 $-1 #
edge $-1 $303 41.06652871072238 $346 50.408032471694085 $223 $347 forward 7 unknown #
vertex $-1 $302 $348 #
straight-curve $-1 -41.06652871072238 25.521845134087709 2.8195928318117502 0 0 -1 I I #
coedge $-1 $225 $345 $227 $307 forward $220 $-1 #
straight-curve $-1 -41.06652871072238 0 7.7597562893417837 0 1 0 I I #
edge $-1 $349 -50.408032471694085 $229 -41.06652871072238 $227 $350 forward 7 unknown #
point $-1 -41.06652871072238 -25.521845134087709 7.7597562893417837 #
straight-curve $-1 -50.408032471694085 0 3.5186150379052172 0 -1 0 I I #
edge $-1 $349 -7.7597562893417837 $233 -3.5186150379052172 $299 $351 forward 7 unknown #
point $-1 -50.408032471694085 -25.521845134087709 3.5186150379052172 #
edge $-1 $346 -7.7597562893417837 $236 -3.5186150379052172 $235 $352 forward 7 unknown #
point $-1 -50.408032471694085 25.521845134087709 3.5186150379052172 #
coedge $-1 $315 $242 $321 $353 reversed $156 $-1 #
coedge $-1 $242 $314 $245 $319 reversed $156 $-1 #
edge $-1 $317 -29.786607838525534 $250 -11.45624142781157 $249 $354 forward 7 unknown #
vertex $-1 $244 $355 #
straight-curve $-1 50.408032471694085 0.084540569986017111 25.222648438360203 0 0.74314481823134659 -0.66913061440640931 I I #
edge $-1 $246 19.479046713436503 $323 25.521845134087709 $315 $356 forward 7 unknown #
point $-1 50.408032471694085 19.479046713436503 7.7597562893417837 #
coedge $-1 $249 $248 $314 $353 forward $240 $-1 #
point $-1 32.077666060980121 25.521845134087712 2.3187960340208917 #
vertex $-1 $319 $357 #
straight-curve $-1 0 25.521845134087709 7.7597562893417837 -1 0 0 I I #
vertex $-1 $256 $358 #
point $-1 42.242849266337103 20.586704185760567 2.9138506835920932 #
coedge $-1 $328 $262 $270 $333 reversed $174 $-1 #
coedge $-1 $263 $327 $265 $330 reversed $174 $-1 #
straight-curve $-1 32.077666060980121 -25.521845134087705 38.619866145587366 0 0 -1 I I #
edge $-1 $266 32.077666060980121 $336 50.408032471694085 $328 $359 forward 7 unknown #
point $-1 32.077666060980121 -25.521845134087709 7.7597562893417837 #
straight-curve $-1 20.621424633168552 -25.521845134087709 2.3187960340208842 1 0 0 I I #
edge $-1 $336 -7.7597562893417837 $271 -2.318796034020882 $270 $360 forward 7 unknown #
point $-1 50.408032471694085 -25.521845134087709 2.318796034020882 #
point $-1 32.077666060980121 -25.521845134087709 2.318796034020882 #
vertex $-1 $275 $361 #
straight-curve $-1 50.408032471694085 0 7.7597562893417837 0 1 0 I I #
vertex $-1 $278 $362 #
point $-1 42.242849266337103 -20.58670418576056 2.9138506835920861 #
straight-curve $-1 -50.408032471694085 25.521845134087709 0 0 0 -1 I I #
point $-1 -50.408032471694085 -25.521845134087709 -7.7597562893417837 #
straight-curve $-1 -50.408032471694085 0 -7.7597562893417837 0 1 0 I I #
point $-1 -50.408032471694085 25.521845134087709 -7.7597562893417837 #
coedge $-1 $300 $299 $345 $363 reversed $140 $-1 #
coedge $-1 $305 $301 $344 $363 forward $220 $-1 #
vertex $-1 $302 $364 #
straight-curve $-1 0 25.521845134087709 7.7597562893417837 -1 0 0 I I #
point $-1 -41.06652871072238 25.521845134087709 7.7597562893417837 #
vertex $-1 $363 $365 #
straight-curve $-1 0 -25.521845134087709 7.7597562893417837 1 0 0 I I #
straight-curve $-1 -50.408032471694085 -25.521845134087709 0 0 0 -1 I I #
straight-curve $-1 -50.408032471694085 25.521845134087709 0 0 0 -1 I I #
edge $-1 $323 -7.7597562893417837 $317 -2.3187960340208917 $314 $366 forward 7 unknown #
straight-curve $-1 20.621424633168552 25.521845134087709 2.3187960340208917 -1 0 0 I I #
point $-1 50.408032471694085 25.521845134087712 2.3187960340208917 #
straight-curve $-1 50.408032471694085 0 7.7597562893417837 0 1 0 I I #
point $-1 50.408032471694085 25.521845134087709 7.7597562893417837 #
point $-1 41.242849266337103 19.917573571354161 2.1707058653607465 #
straight-curve $-1 0 -25.521845134087709 7.7597562893417837 1 0 0 I I #
straight-curve $-1 50.408032471694085 -25.521845134087709 0 0 0 -1 I I #
point $-1 50.408032471694085 -25.521845134087709 7.7597562893417837 #
point $-1 41.242849266337103 -19.917573571354154 2.1707058653607394 #
edge $-1 $346 -25.521845134087709 $349 25.521845134087709 $344 $367 forward 7 unknown #
point $-1 -50.408032471694085 25.521845134087709 7.7597562893417837 #
point $-1 -50.408032471694085 -25.521845134087709 7.7597562893417837 #
straight-curve $-1 50.408032471694085 25.521845134087709 0 0 0 -1 I I #
straight-curve $-1 -50.408032471694085 0 7.7597562893417837 0 -1 0 I I #
End-of-ACIS-data 