500 0 9 0           
7 Unknown 11 ACIS 5.0 NT 24 Thu Mar 25 20:03:37 1999 
-1 9.9999999999999995e-007 1e-010 
body $-1 $9 $-1 $10 #
body $-1 $11 $-1 $12 #
body $-1 $13 $-1 $14 #
body $-1 $15 $-1 $16 #
body $-1 $17 $-1 $18 #
body $-1 $19 $-1 $20 #
body $-1 $21 $-1 $22 #
body $-1 $23 $-1 $24 #
body $-1 $25 $-1 $26 #
lump $-1 $-1 $27 $0 #
transform $-1 1 0 0 0 1 0 0 0 1 48.860133671071509 24.776607411882598 8.3094300415253226 1 rotate no_reflect no_shear #
lump $-1 $-1 $28 $1 #
transform $-1 1 0 0 0 1 0 0 0 1 48.860133671071509 24.776607411882598 8.3094300415253226 1 rotate no_reflect no_shear #
lump $-1 $-1 $29 $2 #
transform $-1 1 0 0 0 1 0 0 0 1 48.860133671071509 24.776607411882598 8.3094300415253226 1 rotate no_reflect no_shear #
lump $-1 $-1 $30 $3 #
transform $-1 1 0 0 0 1 0 0 0 1 48.860133671071509 24.776607411882598 8.3094300415253226 1 rotate no_reflect no_shear #
lump $-1 $-1 $31 $4 #
transform $-1 1 0 0 0 1 0 0 0 1 48.860133671071509 24.776607411882598 8.3094300415253226 1 rotate no_reflect no_shear #
lump $-1 $-1 $32 $5 #
transform $-1 1 0 0 0 1 0 0 0 1 48.860133671071509 24.776607411882598 8.3094300415253226 1 rotate no_reflect no_shear #
lump $-1 $-1 $33 $6 #
transform $-1 1 0 0 0 1 0 0 0 1 48.860133671071509 24.776607411882598 8.3094300415253226 1 rotate no_reflect no_shear #
lump $-1 $-1 $34 $7 #
transform $-1 1 0 0 0 1 0 0 0 1 48.860133671071509 24.776607411882598 8.3094300415253226 1 rotate no_reflect no_shear #
lump $-1 $-1 $35 $8 #
transform $-1 1 0 0 0 1 0 0 0 1 48.860133671071509 24.776607411882598 8.3094300415253226 1 rotate no_reflect no_shear #
shell $-1 $-1 $-1 $36 $-1 $9 #
shell $-1 $-1 $-1 $37 $-1 $11 #
shell $-1 $-1 $-1 $38 $-1 $13 #
shell $-1 $-1 $-1 $39 $-1 $15 #
shell $-1 $-1 $-1 $40 $-1 $17 #
shell $-1 $-1 $-1 $41 $-1 $19 #
shell $-1 $-1 $-1 $42 $-1 $21 #
shell $-1 $-1 $-1 $43 $-1 $23 #
shell $-1 $-1 $-1 $44 $-1 $25 #
face $-1 $45 $46 $27 $-1 $47 forward single #
face $-1 $48 $49 $28 $-1 $50 forward single #
face $-1 $51 $52 $29 $-1 $53 forward single #
face $-1 $54 $55 $30 $-1 $56 reversed single #
face $-1 $57 $58 $31 $-1 $59 forward single #
face $-1 $60 $61 $32 $-1 $62 forward single #
face $-1 $63 $64 $33 $-1 $65 forward single #
face $-1 $66 $67 $34 $-1 $68 reversed single #
face $-1 $69 $70 $35 $-1 $71 forward single #
face $-1 $72 $73 $27 $-1 $74 reversed single #
loop $-1 $-1 $75 $36 #
plane-surface $-1 0 0 8.3094300415253226 0 0 1 1 0 0 forward_v I I I I #
face $-1 $76 $77 $28 $-1 $78 reversed single #
loop $-1 $-1 $79 $37 #
plane-surface $-1 0 -20.298614049589236 -4.7117094162240001 0 0 1 1 0 0 forward_v I I I I #
face $-1 $80 $81 $29 $-1 $82 reversed single #
loop $-1 $-1 $83 $38 #
plane-surface $-1 0 20.298614049589236 -4.7117094162240001 0 0 1 1 0 0 forward_v I I I I #
face $-1 $84 $85 $30 $-1 $86 reversed single #
loop $-1 $-1 $87 $39 #
plane-surface $-1 56.092824658448606 -9.7835072242245378 142.79625528622546 0 1 0 0.74314483375859142 0 0.66913059716165679 forward_v I I I I #
face $-1 $88 $89 $31 $-1 $90 forward single #
loop $-1 $91 $92 $40 #
cone-surface $-1 46.756971333243555 -8.0208182104635597 6.0825096398376051 -0.74314483375859142 0 -0.66913059716165679 0.3345652985808284 0 -0.37157241687929571 1 I I 0 1 0.5 forward I I I I #
face $-1 $93 $94 $32 $-1 $95 forward single #
loop $-1 $96 $97 $41 #
cone-surface $-1 46.756971333243555 -5.3767846898220952 6.0825096398376051 -0.74314483375859142 0 -0.66913059716165679 0.3345652985808284 0 -0.37157241687929571 1 I I 0 1 0.5 forward I I I I #
face $-1 $98 $99 $33 $-1 $100 forward single #
loop $-1 $101 $102 $42 #
cone-surface $-1 46.756971333243555 -2.7327511691806308 6.0825096398376051 -0.74314483375859142 0 -0.66913059716165679 0.3345652985808284 0 -0.37157241687929571 1 I I 0 1 0.5 forward I I I I #
face $-1 $103 $104 $34 $-1 $105 reversed single #
loop $-1 $-1 $106 $43 #
plane-surface $-1 -120.3282137225823 3.4511886411278674 68.328938185774362 0 -1 0 0.73135370988377701 0 -0.68199835119979291 forward_v I I I I #
face $-1 $107 $108 $35 $-1 $109 forward single #
loop $-1 $110 $111 $44 #
cone-surface $-1 -43.714761563900254 -0.3157221439077631 3.0792551186465884 0.73135370988377701 0 -0.68199835119979291 1.0229975267996894 0 1.0970305648256655 1 I I 0 1 1.5 forward I I I I #
face $-1 $112 $113 $27 $-1 $114 reversed single #
loop $-1 $-1 $115 $45 #
plane-surface $-1 0 0 -8.3094300415253226 0 0 1 1 0 0 forward_v I I I I #
coedge $-1 $116 $117 $118 $119 forward $46 $-1 #
face $-1 $120 $121 $28 $-1 $122 reversed single #
loop $-1 $-1 $123 $48 #
plane-surface $-1 0 -20.298614049589236 -7.8094300415253226 0 0 1 1 0 0 forward_v I I I I #
coedge $-1 $124 $125 $126 $127 reversed $49 $-1 #
face $-1 $128 $129 $29 $-1 $130 reversed single #
loop $-1 $-1 $131 $51 #
plane-surface $-1 0 20.298614049589236 -7.8094300415253226 0 0 1 1 0 0 forward_v I I I I #
coedge $-1 $132 $133 $134 $135 reversed $52 $-1 #
face $-1 $136 $137 $30 $-1 $138 reversed single #
loop $-1 $-1 $139 $54 #
plane-surface $-1 -16.527487170373377 -5.3767846898220988 77.40863444478056 0.74314483375859142 0 0.66913059716165679 0.66913059716165679 0 -0.74314483375859142 forward_v I I I I #
coedge $-1 $140 $141 $142 $143 reversed $55 $-1 #
face $-1 $-1 $144 $31 $-1 $145 forward single #
loop $-1 $146 $147 $57 #
cone-surface $-1 46.05323243071625 -8.0208182104635597 5.4488603016428474 -0.74314483375859142 0 -0.66913059716165679 0.1672826492904142 0 -0.18578620843964785 1 I I -0.70710678118654746 0.70710678118654746 0.25 forward I I I I #
loop $-1 $-1 $148 $40 #
coedge $-1 $92 $92 $149 $150 reversed $58 $-1 #
face $-1 $-1 $151 $32 $-1 $152 forward single #
loop $-1 $153 $154 $60 #
cone-surface $-1 46.05323243071625 -5.3767846898220952 5.4488603016428474 -0.74314483375859142 0 -0.66913059716165679 0.1672826492904142 0 -0.18578620843964785 1 I I -0.70710678118654746 0.70710678118654746 0.25 forward I I I I #
loop $-1 $-1 $155 $41 #
coedge $-1 $97 $97 $156 $157 reversed $61 $-1 #
face $-1 $-1 $158 $33 $-1 $159 forward single #
loop $-1 $160 $161 $63 #
cone-surface $-1 46.05323243071625 -2.7327511691806308 5.4488603016428474 -0.74314483375859142 0 -0.66913059716165679 0.1672826492904142 0 -0.18578620843964785 1 I I -0.70710678118654746 0.70710678118654746 0.25 forward I I I I #
loop $-1 $-1 $162 $42 #
coedge $-1 $102 $102 $163 $164 reversed $64 $-1 #
face $-1 $165 $166 $34 $-1 $167 reversed single #
loop $-1 $-1 $168 $66 #
plane-surface $-1 -48.860133671071509 -0.3157221439077631 1.6838769796298578 -0.73135370988377701 0 0.68199835119979291 0.68199835119979291 0 0.73135370988377701 forward_v I I I I #
coedge $-1 $169 $170 $171 $172 reversed $67 $-1 #
face $-1 $-1 $173 $35 $-1 $174 forward single #
loop $-1 $175 $176 $69 #
cone-surface $-1 -41.110088191373336 -0.3157221439077631 0.65035796331574858 0.73135370988377701 0 -0.68199835119979291 0.51149876339984468 0 0.54851528241283276 1 I I -0.70710678118654757 0.70710678118654757 0.75 forward I I I I #
loop $-1 $-1 $177 $44 #
coedge $-1 $111 $111 $178 $179 reversed $70 $-1 #
face $-1 $180 $181 $27 $-1 $182 reversed single #
loop $-1 $-1 $183 $72 #
plane-surface $-1 0 -24.776607411882598 0 0 1 0 0 0 1 forward_v I I I I #
coedge $-1 $184 $185 $186 $187 forward $73 $-1 #
coedge $-1 $188 $75 $189 $190 forward $46 $-1 #
coedge $-1 $75 $188 $191 $192 forward $46 $-1 #
coedge $-1 $193 $194 $75 $119 reversed $195 $-1 #
edge $-1 $196 -24.776607411882598 $197 24.776607411882598 $118 $198 forward 7 unknown #
face $-1 $199 $200 $28 $-1 $201 reversed single #
loop $-1 $-1 $202 $76 #
plane-surface $-1 0 -15.820620687295875 -6.2605697288746613 0 -1 0 0 0 -1 forward_v I I I I #
coedge $-1 $203 $204 $205 $206 reversed $77 $-1 #
coedge $-1 $207 $79 $208 $209 forward $49 $-1 #
coedge $-1 $79 $207 $210 $211 reversed $49 $-1 #
coedge $-1 $212 $213 $79 $127 forward $214 $-1 #
edge $-1 $215 5.671313662501257 $216 14.627300387087979 $126 $217 forward 7 unknown #
face $-1 $218 $219 $29 $-1 $220 reversed single #
loop $-1 $-1 $221 $80 #
plane-surface $-1 0 15.820620687295875 -6.2605697288746613 0 1 0 0 0 1 forward_v I I I I #
coedge $-1 $222 $223 $224 $225 reversed $81 $-1 #
coedge $-1 $226 $83 $227 $228 reversed $52 $-1 #
coedge $-1 $83 $226 $229 $230 forward $52 $-1 #
coedge $-1 $231 $232 $83 $135 forward $219 $-1 #
edge $-1 $233 -14.627300387087979 $234 -5.671313662501257 $134 $235 forward 7 unknown #
face $-1 $236 $237 $30 $-1 $238 forward single #
loop $-1 $-1 $239 $84 #
plane-surface $-1 56.092824658448606 -0.97006215541965979 142.79625528622546 0 -1 0 -0.74314483375859142 0 -0.66913059716165679 forward_v I I I I #
coedge $-1 $240 $241 $242 $243 reversed $85 $-1 #
coedge $-1 $141 $87 $244 $245 reversed $55 $-1 #
coedge $-1 $87 $140 $240 $246 reversed $55 $-1 #
coedge $-1 $242 $247 $87 $143 forward $248 $-1 #
edge $-1 $249 63.088697601587405 $250 66.609805027154138 $142 $251 forward 7 unknown #
loop $-1 $-1 $149 $88 #
plane-surface $-1 -16.527487170373377 -5.3767846898220988 77.40863444478056 0.74314483375859142 0 0.66913059716165679 0.66913059716165679 0 -0.74314483375859142 forward_v I I I I #
loop $-1 $-1 $252 $57 #
coedge $-1 $147 $147 $148 $253 reversed $89 $-1 #
coedge $-1 $148 $148 $147 $253 forward $91 $-1 #
coedge $-1 $149 $149 $92 $150 forward $144 $-1 #
edge $-1 $254 0 $254 6.2831853071796004 $149 $255 forward 7 unknown #
loop $-1 $-1 $156 $93 #
plane-surface $-1 -16.527487170373377 -5.3767846898220988 77.40863444478056 0.74314483375859142 0 0.66913059716165679 0.66913059716165679 0 -0.74314483375859142 forward_v I I I I #
loop $-1 $-1 $256 $60 #
coedge $-1 $154 $154 $155 $257 reversed $94 $-1 #
coedge $-1 $155 $155 $154 $257 forward $96 $-1 #
coedge $-1 $156 $156 $97 $157 forward $151 $-1 #
edge $-1 $258 0 $258 6.2831853071796004 $156 $259 forward 7 unknown #
loop $-1 $-1 $163 $98 #
plane-surface $-1 -16.527487170373377 -5.3767846898220988 77.40863444478056 0.74314483375859142 0 0.66913059716165679 0.66913059716165679 0 -0.74314483375859142 forward_v I I I I #
loop $-1 $-1 $260 $63 #
coedge $-1 $161 $161 $162 $261 reversed $99 $-1 #
coedge $-1 $162 $162 $161 $261 forward $101 $-1 #
coedge $-1 $163 $163 $102 $164 forward $158 $-1 #
edge $-1 $262 0 $262 6.2831853071796004 $163 $263 forward 7 unknown #
face $-1 $264 $265 $34 $-1 $266 reversed single #
loop $-1 $-1 $267 $103 #
plane-surface $-1 -120.3282137225823 -4.0826329289433936 68.328938185774362 0 1 0 -0.73135370988377701 0 0.68199835119979291 forward_v I I I I #
coedge $-1 $268 $269 $270 $271 reversed $104 $-1 #
coedge $-1 $170 $106 $272 $273 reversed $67 $-1 #
coedge $-1 $106 $169 $268 $274 reversed $67 $-1 #
coedge $-1 $270 $275 $106 $172 forward $265 $-1 #
edge $-1 $276 25.855039051361857 $277 32.480592113257323 $171 $278 forward 7 unknown #
loop $-1 $-1 $178 $107 #
plane-surface $-1 -48.860133671071509 -0.3157221439077631 1.6838769796298578 -0.73135370988377701 0 0.68199835119979291 0.68199835119979291 0 0.73135370988377701 forward_v I I I I #
loop $-1 $-1 $279 $69 #
coedge $-1 $176 $176 $177 $280 reversed $108 $-1 #
coedge $-1 $177 $177 $176 $280 forward $110 $-1 #
coedge $-1 $178 $178 $111 $179 forward $173 $-1 #
edge $-1 $281 0 $281 6.2831853071796004 $178 $282 forward 7 unknown #
face $-1 $283 $284 $27 $-1 $285 reversed single #
loop $-1 $-1 $286 $112 #
plane-surface $-1 -48.860133671071509 0 0 1 0 0 0 0 -1 forward_v I I I I #
coedge $-1 $287 $191 $288 $289 forward $113 $-1 #
coedge $-1 $290 $115 $287 $291 forward $73 $-1 #
coedge $-1 $115 $290 $292 $293 forward $73 $-1 #
coedge $-1 $194 $193 $115 $187 reversed $195 $-1 #
edge $-1 $294 -24.776607411882598 $295 24.776607411882598 $186 $296 forward 7 unknown #
coedge $-1 $117 $116 $297 $298 forward $46 $-1 #
coedge $-1 $299 $300 $116 $190 reversed $284 $-1 #
edge $-1 $197 -48.860133671071509 $301 48.860133671071509 $189 $302 forward 7 unknown #
coedge $-1 $183 $303 $117 $192 reversed $113 $-1 #
edge $-1 $304 -48.860133671071509 $196 48.860133671071509 $191 $305 forward 7 unknown #
coedge $-1 $186 $118 $303 $306 forward $195 $-1 #
coedge $-1 $118 $186 $299 $307 reversed $195 $-1 #
loop $-1 $-1 $193 $283 #
vertex $-1 $119 $308 #
vertex $-1 $119 $309 #
straight-curve $-1 48.860133671071509 0 8.3094300415253226 0 1 0 I I #
face $-1 $310 $311 $28 $-1 $312 reversed single #
loop $-1 $-1 $313 $120 #
plane-surface $-1 -48.860133671071509 0 0 1 0 0 0 0 -1 forward_v I I I I #
coedge $-1 $314 $208 $213 $315 reversed $121 $-1 #
coedge $-1 $316 $123 $317 $318 reversed $77 $-1 #
coedge $-1 $123 $316 $314 $319 forward $77 $-1 #
coedge $-1 $213 $212 $123 $206 forward $214 $-1 #
edge $-1 $320 -14.627300387087979 $321 -5.671313662501257 $205 $322 forward 7 unknown #
coedge $-1 $125 $124 $313 $323 reversed $49 $-1 #
coedge $-1 $202 $324 $124 $209 reversed $121 $-1 #
edge $-1 $215 -48.860133671071509 $325 48.860133671071509 $208 $326 forward 7 unknown #
coedge $-1 $327 $328 $125 $211 forward $311 $-1 #
edge $-1 $216 -48.860133671071509 $329 48.860133671071509 $210 $330 forward 7 unknown #
coedge $-1 $205 $126 $328 $331 forward $214 $-1 #
coedge $-1 $126 $205 $202 $315 forward $214 $-1 #
loop $-1 $-1 $126 $310 #
vertex $-1 $127 $332 #
vertex $-1 $331 $333 #
straight-curve $-1 48.860133671071509 -10.149307024794618 -4.7117094162240001 0 -1 0 I I #
face $-1 $334 $335 $29 $-1 $336 reversed single #
loop $-1 $-1 $134 $128 #
plane-surface $-1 48.860133671071509 0 0 -1 0 0 0 0 1 forward_v I I I I #
coedge $-1 $337 $229 $338 $339 reversed $129 $-1 #
coedge $-1 $340 $131 $337 $341 forward $81 $-1 #
coedge $-1 $131 $340 $342 $343 reversed $81 $-1 #
coedge $-1 $232 $231 $131 $225 forward $219 $-1 #
edge $-1 $344 5.671313662501257 $345 14.627300387087979 $224 $346 forward 7 unknown #
coedge $-1 $133 $132 $347 $348 reversed $52 $-1 #
coedge $-1 $349 $350 $132 $228 forward $351 $-1 #
edge $-1 $352 -48.860133671071509 $233 48.860133671071509 $227 $353 forward 7 unknown #
coedge $-1 $221 $354 $133 $230 reversed $129 $-1 #
edge $-1 $355 -48.860133671071509 $234 48.860133671071509 $229 $356 forward 7 unknown #
coedge $-1 $224 $134 $354 $357 forward $219 $-1 #
coedge $-1 $134 $224 $349 $358 reversed $219 $-1 #
vertex $-1 $358 $359 #
vertex $-1 $135 $360 #
straight-curve $-1 48.860133671071509 10.149307024794618 -4.7117094162240001 0 -1 0 I I #
face $-1 $-1 $248 $30 $-1 $361 reversed single #
loop $-1 $-1 $362 $136 #
plane-surface $-1 0 0 8.3094300415253226 0 0 1 1 0 0 forward_v I I I I #
coedge $-1 $363 $364 $365 $366 reversed $137 $-1 #
coedge $-1 $367 $139 $141 $246 forward $85 $-1 #
coedge $-1 $139 $367 $363 $368 forward $85 $-1 #
coedge $-1 $365 $142 $139 $243 forward $248 $-1 #
edge $-1 $250 -7.0951148793134884 $369 1.7183301894913896 $242 $370 forward 7 unknown #
coedge $-1 $371 $372 $140 $245 forward $237 $-1 #
edge $-1 $373 17.643302054366607 $249 20.813721341847206 $244 $374 forward 7 unknown #
edge $-1 $250 -97.720267342142989 $373 -92.982149998639329 $141 $375 forward 7 unknown #
coedge $-1 $142 $365 $371 $376 reversed $248 $-1 #
loop $-1 $-1 $365 $236 #
vertex $-1 $376 $377 #
vertex $-1 $143 $378 #
straight-curve $-1 48.860133671071509 -9.7835072242245378 71.39812764311273 0 0 -1 I I #
coedge $-1 $252 $252 $-1 $379 reversed $146 $-1 #
edge $-1 $380 0 $380 6.2831853071796004 $147 $381 forward 7 unknown #
vertex $-1 $150 $382 #
ellipse-curve $-1 47.274924027331217 -8.0208182104635597 6.54887632874195 0.74314483375859142 0 0.66913059716165679 0.3345652985808284 0 -0.37157241687929571 1 I I #
coedge $-1 $256 $256 $-1 $383 reversed $153 $-1 #
edge $-1 $384 0 $384 6.2831853071796004 $154 $385 forward 7 unknown #
vertex $-1 $157 $386 #
ellipse-curve $-1 47.274924027331217 -5.3767846898220952 6.54887632874195 0.74314483375859142 0 0.66913059716165679 0.3345652985808284 0 -0.37157241687929571 1 I I #
coedge $-1 $260 $260 $-1 $387 reversed $160 $-1 #
edge $-1 $388 0 $388 6.2831853071796004 $161 $389 forward 7 unknown #
vertex $-1 $164 $390 #
ellipse-curve $-1 47.274924027331217 -2.7327511691806308 6.54887632874195 0.74314483375859142 0 0.66913059716165679 0.3345652985808284 0 -0.37157241687929571 1 I I #
face $-1 $-1 $391 $34 $-1 $392 forward single #
loop $-1 $-1 $171 $165 #
plane-surface $-1 -48.860133671071509 0 0 1 0 0 0 0 -1 forward_v I I I I #
coedge $-1 $393 $394 $395 $396 reversed $166 $-1 #
coedge $-1 $397 $168 $170 $274 forward $104 $-1 #
coedge $-1 $168 $397 $393 $398 forward $104 $-1 #
coedge $-1 $395 $171 $168 $271 forward $265 $-1 #
edge $-1 $277 -3.6090497130817489 $399 3.924771856989512 $270 $400 forward 7 unknown #
coedge $-1 $401 $402 $169 $273 forward $391 $-1 #
edge $-1 $403 -17.482401224333977 $276 -11.303973190219644 $272 $404 forward 7 unknown #
edge $-1 $277 0 $403 9.0593005441216192 $170 $405 forward 7 unknown #
coedge $-1 $171 $395 $401 $406 reversed $265 $-1 #
vertex $-1 $406 $407 #
vertex $-1 $172 $408 #
straight-curve $-1 -48.860133671071509 3.4511886411278674 34.164469092887181 0 0 -1 I I #
coedge $-1 $279 $279 $-1 $409 reversed $175 $-1 #
edge $-1 $410 0 $410 6.2831853071796004 $176 $411 forward 7 unknown #
vertex $-1 $179 $412 #
ellipse-curve $-1 -45.770919654014342 -0.3157221439077631 4.9966535105775893 -0.73135370988377701 0 0.68199835119979291 1.0229975267996894 0 1.0970305648256655 1 I I #
face $-1 $-1 $195 $27 $-1 $413 reversed single #
loop $-1 $-1 $299 $180 #
plane-surface $-1 0 24.776607411882598 0 0 -1 0 0 0 -1 forward_v I I I I #
coedge $-1 $414 $297 $300 $415 forward $181 $-1 #
coedge $-1 $303 $183 $184 $291 reversed $113 $-1 #
coedge $-1 $297 $414 $183 $289 reversed $181 $-1 #
edge $-1 $304 -8.3094300415253226 $416 8.3094300415253226 $288 $417 forward 7 unknown #
coedge $-1 $185 $184 $414 $418 forward $73 $-1 #
edge $-1 $295 -48.860133671071509 $416 48.860133671071509 $287 $419 forward 7 unknown #
coedge $-1 $300 $299 $185 $293 reversed $284 $-1 #
edge $-1 $420 -48.860133671071509 $294 48.860133671071509 $292 $421 forward 7 unknown #
vertex $-1 $187 $422 #
vertex $-1 $306 $423 #
straight-curve $-1 48.860133671071509 0 -8.3094300415253226 0 -1 0 I I #
coedge $-1 $286 $288 $188 $298 reversed $181 $-1 #
edge $-1 $301 -24.776607411882598 $304 24.776607411882598 $297 $424 forward 7 unknown #
coedge $-1 $292 $189 $194 $307 forward $284 $-1 #
coedge $-1 $189 $292 $286 $415 reversed $284 $-1 #
vertex $-1 $190 $425 #
straight-curve $-1 0 24.776607411882598 8.3094300415253226 -1 0 0 I I #
coedge $-1 $191 $287 $193 $306 reversed $113 $-1 #
vertex $-1 $298 $426 #
straight-curve $-1 0 -24.776607411882598 8.3094300415253226 1 0 0 I I #
edge $-1 $196 -8.3094300415253226 $295 8.3094300415253226 $193 $427 forward 7 unknown #
edge $-1 $197 -8.3094300415253226 $294 8.3094300415253226 $194 $428 forward 7 unknown #
point $-1 48.860133671071509 -24.776607411882598 8.3094300415253226 #
point $-1 48.860133671071509 24.776607411882598 8.3094300415253226 #
face $-1 $-1 $214 $28 $-1 $429 reversed single #
loop $-1 $-1 $210 $199 #
plane-surface $-1 0 -24.776607411882598 0 0 1 0 0 0 1 forward_v I I I I #
coedge $-1 $430 $431 $207 $323 forward $200 $-1 #
coedge $-1 $324 $202 $204 $319 reversed $121 $-1 #
edge $-1 $321 -4.6791451770879924 $215 -1.5814245517866694 $213 $432 forward 7 unknown #
coedge $-1 $204 $203 $433 $434 reversed $77 $-1 #
coedge $-1 $328 $327 $203 $318 forward $311 $-1 #
edge $-1 $435 -48.860133671071509 $320 48.860133671071509 $317 $436 forward 7 unknown #
edge $-1 $437 -48.860133671071509 $321 48.860133671071509 $314 $438 forward 7 unknown #
vertex $-1 $318 $439 #
vertex $-1 $206 $440 #
straight-curve $-1 48.860133671071509 -10.149307024794618 -7.8094300415253226 0 1 0 I I #
edge $-1 $329 -14.627300387087979 $325 -5.671313662501257 $313 $441 forward 7 unknown #
coedge $-1 $208 $314 $430 $442 reversed $121 $-1 #
vertex $-1 $323 $443 #
straight-curve $-1 0 -15.820620687295875 -4.7117094162240001 -1 0 0 I I #
coedge $-1 $317 $210 $431 $444 forward $311 $-1 #
coedge $-1 $210 $317 $212 $331 reversed $311 $-1 #
vertex $-1 $444 $445 #
straight-curve $-1 0 -24.776607411882598 -4.7117094162240001 -1 0 0 I I #
edge $-1 $216 4.7117094162240001 $320 7.8094300415253226 $212 $446 forward 7 unknown #
point $-1 48.860133671071509 -15.820620687295875 -4.7117094162240001 #
point $-1 48.860133671071509 -24.776607411882598 -4.7117094162240001 #
face $-1 $-1 $351 $29 $-1 $447 reversed single #
loop $-1 $-1 $347 $218 #
plane-surface $-1 -48.860133671071509 0 0 1 0 0 0 0 -1 forward_v I I I I #
coedge $-1 $354 $221 $222 $341 reversed $129 $-1 #
coedge $-1 $347 $448 $221 $339 forward $335 $-1 #
edge $-1 $449 -4.6791451770879924 $355 -1.5814245517866694 $338 $450 forward 7 unknown #
coedge $-1 $223 $222 $448 $451 reversed $81 $-1 #
edge $-1 $344 -48.860133671071509 $449 48.860133671071509 $337 $452 forward 7 unknown #
coedge $-1 $350 $349 $223 $343 forward $351 $-1 #
edge $-1 $345 -48.860133671071509 $453 48.860133671071509 $342 $454 forward 7 unknown #
vertex $-1 $225 $455 #
vertex $-1 $343 $456 #
straight-curve $-1 48.860133671071509 10.149307024794618 -7.8094300415253226 0 1 0 I I #
coedge $-1 $457 $338 $226 $348 forward $335 $-1 #
edge $-1 $355 5.671313662501257 $352 14.627300387087979 $347 $458 forward 7 unknown #
coedge $-1 $342 $227 $232 $358 forward $351 $-1 #
coedge $-1 $227 $342 $457 $459 reversed $351 $-1 #
loop $-1 $-1 $227 $334 #
vertex $-1 $459 $460 #
straight-curve $-1 0 24.776607411882598 -4.7117094162240001 1 0 0 I I #
coedge $-1 $229 $337 $231 $357 reversed $129 $-1 #
vertex $-1 $348 $461 #
straight-curve $-1 0 15.820620687295875 -4.7117094162240001 1 0 0 I I #
edge $-1 $234 1.5814245517866694 $344 4.6791451770879924 $231 $462 forward 7 unknown #
edge $-1 $233 4.7117094162240001 $345 7.8094300415253226 $232 $463 forward 7 unknown #
point $-1 48.860133671071509 24.776607411882598 -4.7117094162240001 #
point $-1 48.860133671071509 15.820620687295875 -4.7117094162240001 #
plane-surface $-1 48.860133671071509 0 0 -1 0 0 0 0 1 forward_v I I I I #
coedge $-1 $372 $371 $364 $464 forward $237 $-1 #
coedge $-1 $364 $239 $241 $368 reversed $137 $-1 #
coedge $-1 $239 $363 $362 $464 reversed $137 $-1 #
coedge $-1 $247 $242 $239 $366 forward $248 $-1 #
edge $-1 $369 -66.609805027154138 $465 -63.088697601587405 $365 $466 forward 7 unknown #
coedge $-1 $241 $240 $372 $467 reversed $85 $-1 #
edge $-1 $468 92.982149998639329 $369 97.720267342142989 $363 $469 forward 7 unknown #
vertex $-1 $243 $470 #
straight-curve $-1 48.860133671071509 -2.6883923449110494 4.7883226159585917 0 1 0 I I #
coedge $-1 $362 $244 $247 $376 forward $237 $-1 #
coedge $-1 $244 $362 $367 $467 forward $237 $-1 #
vertex $-1 $245 $471 #
straight-curve $-1 28.046412329224303 -9.7835072242245378 8.3094300415253173 1 0 0 I I #
straight-curve $-1 -16.527487170373377 -9.7835072242245378 77.40863444478056 -0.66913059716165679 0 0.74314483375859142 I I #
edge $-1 $249 -9.7835072242245378 $465 -0.97006215541965979 $247 $472 forward 7 unknown #
point $-1 48.860133671071509 -9.7835072242245378 8.3094300415253226 #
point $-1 48.860133671071509 -9.7835072242245378 4.7883226159585917 #
edge $-1 $473 1 $473 0 $252 $-1 forward 7 unknown #
vertex $-1 $253 $474 #
ellipse-curve $-1 46.239018639155894 -8.0208182104635597 5.6161429509332619 0.74314483375859142 0 0.66913059716165679 0.3345652985808284 0 -0.37157241687929571 1 I I #
point $-1 47.609489325912037 -8.0208182104635597 6.1773039118626532 #
edge $-1 $475 1 $475 0 $256 $-1 forward 7 unknown #
vertex $-1 $257 $476 #
ellipse-curve $-1 46.239018639155894 -5.3767846898220952 5.6161429509332619 0.74314483375859142 0 0.66913059716165679 0.3345652985808284 0 -0.37157241687929571 1 I I #
point $-1 47.609489325912037 -5.3767846898220952 6.1773039118626532 #
edge $-1 $477 1 $477 0 $260 $-1 forward 7 unknown #
vertex $-1 $261 $478 #
ellipse-curve $-1 46.239018639155894 -2.7327511691806308 5.6161429509332619 0.74314483375859142 0 0.66913059716165679 0.3345652985808284 0 -0.37157241687929571 1 I I #
point $-1 47.609489325912037 -2.7327511691806308 6.1773039118626532 #
loop $-1 $-1 $272 $264 #
plane-surface $-1 0 0 8.3094300415253226 0 0 1 1 0 0 forward_v I I I I #
coedge $-1 $394 $267 $269 $398 reversed $166 $-1 #
coedge $-1 $267 $393 $479 $480 reversed $166 $-1 #
coedge $-1 $275 $270 $267 $396 forward $265 $-1 #
edge $-1 $399 -32.480592113257323 $481 -25.855039051361857 $395 $482 forward 7 unknown #
coedge $-1 $269 $268 $402 $483 reversed $104 $-1 #
edge $-1 $484 -9.0593005441216192 $399 0 $393 $485 forward 7 unknown #
vertex $-1 $271 $486 #
straight-curve $-1 -48.860133671071509 -0.15786107195388155 1.6838769796298614 0 -1 0 I I #
coedge $-1 $479 $272 $275 $406 forward $391 $-1 #
coedge $-1 $272 $479 $397 $483 forward $391 $-1 #
vertex $-1 $273 $487 #
straight-curve $-1 -60.164106861291152 3.4511886411278674 8.3094300415253244 -1 0 0 I I #
straight-curve $-1 -48.860133671071509 3.4511886411278674 1.6838769796298578 0.68199835119979291 0 0.73135370988377701 I I #
edge $-1 $276 -3.4511886411278674 $481 4.0826329289433936 $275 $488 forward 7 unknown #
point $-1 -48.860133671071509 3.4511886411278674 8.3094300415253226 #
point $-1 -48.860133671071509 3.4511886411278674 1.6838769796298578 #
edge $-1 $489 1 $489 0 $279 $-1 forward 7 unknown #
vertex $-1 $280 $490 #
ellipse-curve $-1 -41.658603473786172 -0.3157221439077631 1.1618567267155933 -0.73135370988377701 0 0.68199835119979291 1.0229975267996894 0 1.0970305648256655 1 I I #
point $-1 -44.74792212721465 -0.3157221439077631 6.0936840754032495 #
plane-surface $-1 48.860133671071509 0 0 -1 0 0 0 0 1 forward_v I I I I #
coedge $-1 $288 $286 $290 $418 reversed $181 $-1 #
edge $-1 $301 -8.3094300415253226 $420 8.3094300415253226 $300 $491 forward 7 unknown #
vertex $-1 $418 $492 #
straight-curve $-1 -48.860133671071509 -24.776607411882598 0 0 0 -1 I I #
edge $-1 $416 -24.776607411882598 $420 24.776607411882598 $414 $493 forward 7 unknown #
straight-curve $-1 0 -24.776607411882598 -8.3094300415253226 -1 0 0 I I #
vertex $-1 $293 $494 #
straight-curve $-1 0 24.776607411882598 -8.3094300415253226 1 0 0 I I #
point $-1 48.860133671071509 24.776607411882598 -8.3094300415253226 #
point $-1 48.860133671071509 -24.776607411882598 -8.3094300415253226 #
straight-curve $-1 -48.860133671071509 0 8.3094300415253226 0 -1 0 I I #
point $-1 -48.860133671071509 24.776607411882598 8.3094300415253226 #
point $-1 -48.860133671071509 -24.776607411882598 8.3094300415253226 #
straight-curve $-1 48.860133671071509 -24.776607411882598 0 0 0 -1 I I #
straight-curve $-1 48.860133671071509 24.776607411882598 0 0 0 -1 I I #
plane-surface $-1 48.860133671071509 0 0 -1 0 0 0 0 1 forward_v I I I I #
coedge $-1 $433 $313 $324 $442 forward $200 $-1 #
coedge $-1 $313 $433 $327 $444 reversed $200 $-1 #
straight-curve $-1 48.860133671071509 -15.820620687295875 -3.1302848644373307 0 0 1 I I #
coedge $-1 $431 $430 $316 $434 forward $200 $-1 #
edge $-1 $437 5.671313662501257 $435 14.627300387087979 $433 $495 forward 7 unknown #
vertex $-1 $318 $496 #
straight-curve $-1 0 -24.776607411882598 -7.8094300415253226 1 0 0 I I #
vertex $-1 $434 $497 #
straight-curve $-1 0 -15.820620687295875 -7.8094300415253226 1 0 0 I I #
point $-1 48.860133671071509 -24.776607411882598 -7.8094300415253226 #
point $-1 48.860133671071509 -15.820620687295875 -7.8094300415253226 #
straight-curve $-1 -48.860133671071509 -10.149307024794618 -4.7117094162240001 0 1 0 I I #
edge $-1 $325 1.5814245517866694 $437 4.6791451770879924 $430 $498 forward 7 unknown #
point $-1 -48.860133671071509 -15.820620687295875 -4.7117094162240001 #
edge $-1 $329 4.7117094162240001 $435 7.8094300415253226 $431 $499 forward 7 unknown #
point $-1 -48.860133671071509 -24.776607411882598 -4.7117094162240001 #
straight-curve $-1 48.860133671071509 -24.776607411882598 0 0 0 -1 I I #
plane-surface $-1 0 24.776607411882598 0 0 -1 0 0 0 -1 forward_v I I I I #
coedge $-1 $338 $457 $340 $451 forward $335 $-1 #
vertex $-1 $451 $500 #
straight-curve $-1 -48.860133671071509 15.820620687295875 -3.1302848644373307 0 0 1 I I #
edge $-1 $453 -14.627300387087979 $449 -5.671313662501257 $448 $501 forward 7 unknown #
straight-curve $-1 0 15.820620687295875 -7.8094300415253226 -1 0 0 I I #
vertex $-1 $343 $502 #
straight-curve $-1 0 24.776607411882598 -7.8094300415253226 -1 0 0 I I #
point $-1 48.860133671071509 15.820620687295875 -7.8094300415253226 #
point $-1 48.860133671071509 24.776607411882598 -7.8094300415253226 #
coedge $-1 $448 $347 $350 $459 forward $335 $-1 #
straight-curve $-1 -48.860133671071509 10.149307024794618 -4.7117094162240001 0 1 0 I I #
edge $-1 $352 4.7117094162240001 $453 7.8094300415253226 $350 $503 forward 7 unknown #
point $-1 -48.860133671071509 24.776607411882598 -4.7117094162240001 #
point $-1 -48.860133671071509 15.820620687295875 -4.7117094162240001 #
straight-curve $-1 48.860133671071509 15.820620687295875 -3.1302848644373307 0 0 -1 I I #
straight-curve $-1 48.860133671071509 24.776607411882598 0 0 0 -1 I I #
edge $-1 $465 -20.813721341847206 $468 -17.643302054366607 $362 $504 forward 7 unknown #
vertex $-1 $464 $505 #
straight-curve $-1 48.860133671071509 -0.97006215541965979 71.39812764311273 0 0 1 I I #
edge $-1 $468 -1.7183301894913896 $373 7.0951148793134884 $372 $506 forward 7 unknown #
vertex $-1 $467 $507 #
straight-curve $-1 -16.527487170373377 -0.97006215541965979 77.40863444478056 0.66913059716165679 0 -0.74314483375859142 I I #
point $-1 48.860133671071509 -0.97006215541965979 4.7883226159585917 #
point $-1 45.689714383590911 -9.7835072242245378 8.3094300415253173 #
straight-curve $-1 48.860133671071509 0 8.3094300415253226 0 1 0 I I #
vertex $-1 $379 $508 #
point $-1 46.573583937736728 -8.0208182104635597 5.2445705340539659 #
vertex $-1 $383 $509 #
point $-1 46.573583937736728 -5.3767846898220952 5.2445705340539659 #
vertex $-1 $387 $510 #
point $-1 46.573583937736728 -2.7327511691806308 5.2445705340539659 #
coedge $-1 $402 $401 $394 $480 forward $391 $-1 #
edge $-1 $481 11.303973190219644 $484 17.482401224333977 $479 $511 forward 7 unknown #
vertex $-1 $480 $512 #
straight-curve $-1 -48.860133671071509 -4.0826329289433936 34.164469092887181 0 0 1 I I #
edge $-1 $484 -3.924771856989512 $403 3.6090497130817489 $402 $513 forward 7 unknown #
vertex $-1 $483 $514 #
straight-curve $-1 -48.860133671071509 -4.0826329289433936 1.6838769796298578 -0.68199835119979291 0 -0.73135370988377701 I I #
point $-1 -48.860133671071509 -4.0826329289433936 1.6838769796298578 #
point $-1 -42.681705636957176 3.4511886411278674 8.3094300415253226 #
straight-curve $-1 -48.860133671071509 0 8.3094300415253226 0 -1 0 I I #
vertex $-1 $409 $515 #
point $-1 -40.63560594698648 -0.3157221439077631 2.2588872915412588 #
straight-curve $-1 -48.860133671071509 24.776607411882598 0 0 0 -1 I I #
point $-1 -48.860133671071509 -24.776607411882598 -8.3094300415253226 #
straight-curve $-1 -48.860133671071509 0 -8.3094300415253226 0 1 0 I I #
point $-1 -48.860133671071509 24.776607411882598 -8.3094300415253226 #
straight-curve $-1 -48.860133671071509 -10.149307024794618 -7.8094300415253226 0 -1 0 I I #
point $-1 -48.860133671071509 -24.776607411882598 -7.8094300415253226 #
point $-1 -48.860133671071509 -15.820620687295875 -7.8094300415253226 #
straight-curve $-1 -48.860133671071509 -15.820620687295875 -3.1302848644373307 0 0 -1 I I #
straight-curve $-1 -48.860133671071509 -24.776607411882598 0 0 0 -1 I I #
point $-1 -48.860133671071509 15.820620687295875 -7.8094300415253226 #
straight-curve $-1 -48.860133671071509 10.149307024794618 -7.8094300415253226 0 -1 0 I I #
point $-1 -48.860133671071509 24.776607411882598 -7.8094300415253226 #
straight-curve $-1 -48.860133671071509 24.776607411882598 0 0 0 -1 I I #
straight-curve $-1 28.046412329224303 -0.97006215541965979 8.3094300415253173 -1 0 0 I I #
point $-1 48.860133671071509 -0.97006215541965979 8.3094300415253226 #
straight-curve $-1 45.689714383590896 -2.6883923449110494 8.3094300415253173 0 -1 0 I I #
point $-1 45.689714383590911 -0.97006215541965979 8.3094300415253173 #
point $-1 45.867446222276605 -8.0208182104635597 5.2815776523524329 #
point $-1 45.867446222276605 -5.3767846898220952 5.2815776523524329 #
point $-1 45.867446222276605 -2.7327511691806308 5.2815776523524329 #
straight-curve $-1 -60.164106861291152 -4.0826329289433936 8.3094300415253244 1 0 0 I I #
point $-1 -48.860133671071509 -4.0826329289433936 8.3094300415253226 #
straight-curve $-1 -42.681705636957183 -0.15786107195388155 8.3094300415253226 0 1 0 I I #
point $-1 -42.681705636957176 -4.0826329289433936 8.3094300415253226 #
point $-1 -40.5615729089605 -0.3157221439077631 0.1388591999159039 #
End-of-ACIS-data 