500 0 9 0           
7 Unknown 11 ACIS 5.0 NT 24 Fri Mar 26 15:46:13 1999 
-1 9.9999999999999995e-007 1e-010 
body $-1 $9 $-1 $10 #
body $-1 $11 $-1 $12 #
body $-1 $13 $-1 $14 #
body $-1 $15 $-1 $16 #
body $-1 $17 $-1 $18 #
body $-1 $19 $-1 $20 #
body $-1 $21 $-1 $22 #
body $-1 $23 $-1 $24 #
body $-1 $25 $-1 $26 #
lump $-1 $-1 $27 $0 #
transform $-1 1 0 0 0 1 0 0 0 1 44.576555681020537 20.082645047589384 7.7915171268803851 1 rotate no_reflect no_shear #
lump $-1 $-1 $28 $1 #
transform $-1 1 0 0 0 1 0 0 0 1 44.576555681020537 20.082645047589384 7.7915171268803851 1 rotate no_reflect no_shear #
lump $-1 $-1 $29 $2 #
transform $-1 1 0 0 0 1 0 0 0 1 44.576555681020537 20.082645047589384 7.7915171268803851 1 rotate no_reflect no_shear #
lump $-1 $-1 $30 $3 #
transform $-1 1 0 0 0 1 0 0 0 1 44.576555681020537 20.082645047589384 7.7915171268803851 1 rotate no_reflect no_shear #
lump $-1 $-1 $31 $4 #
transform $-1 1 0 0 0 1 0 0 0 1 44.576555681020537 20.082645047589384 7.7915171268803851 1 rotate no_reflect no_shear #
lump $-1 $-1 $32 $5 #
transform $-1 1 0 0 0 1 0 0 0 1 44.576555681020537 20.082645047589384 7.7915171268803851 1 rotate no_reflect no_shear #
lump $-1 $-1 $33 $6 #
transform $-1 1 0 0 0 1 0 0 0 1 44.576555681020537 20.082645047589384 7.7915171268803851 1 rotate no_reflect no_shear #
lump $-1 $-1 $34 $7 #
transform $-1 1 0 0 0 1 0 0 0 1 44.576555681020537 20.082645047589384 7.7915171268803851 1 rotate no_reflect no_shear #
lump $-1 $-1 $35 $8 #
transform $-1 1 0 0 0 1 0 0 0 1 44.576555681020537 20.082645047589384 7.7915171268803851 1 rotate no_reflect no_shear #
shell $-1 $-1 $-1 $36 $-1 $9 #
shell $-1 $-1 $-1 $37 $-1 $11 #
shell $-1 $-1 $-1 $38 $-1 $13 #
shell $-1 $-1 $-1 $39 $-1 $15 #
shell $-1 $-1 $-1 $40 $-1 $17 #
shell $-1 $-1 $-1 $41 $-1 $19 #
shell $-1 $-1 $-1 $42 $-1 $21 #
shell $-1 $-1 $-1 $43 $-1 $23 #
shell $-1 $-1 $-1 $44 $-1 $25 #
face $-1 $45 $46 $27 $-1 $47 reversed single #
face $-1 $48 $49 $28 $-1 $50 reversed single #
face $-1 $51 $52 $29 $-1 $53 forward single #
face $-1 $54 $55 $30 $-1 $56 reversed single #
face $-1 $57 $58 $31 $-1 $59 forward single #
face $-1 $60 $61 $32 $-1 $62 forward single #
face $-1 $63 $64 $33 $-1 $65 reversed single #
face $-1 $66 $67 $34 $-1 $68 forward single #
face $-1 $69 $70 $35 $-1 $71 forward single #
face $-1 $72 $73 $27 $-1 $74 forward single #
loop $-1 $-1 $75 $36 #
plane-surface $-1 0 20.082645047589384 0 0 -1 0 0 0 -1 forward_v I I I I #
face $-1 $76 $77 $28 $-1 $78 reversed single #
loop $-1 $-1 $79 $37 #
plane-surface $-1 -32.248091418885849 -16.272415546784391 0 1 0 0 0 0 -1 forward_v I I I I #
face $-1 $80 $81 $29 $-1 $82 reversed single #
loop $-1 $-1 $83 $38 #
plane-surface $-1 0 20.082645047589384 0 0 -1 0 0 0 -1 forward_v I I I I #
face $-1 $84 $85 $30 $-1 $86 reversed single #
loop $-1 $-1 $87 $39 #
plane-surface $-1 68.634049301356285 4.3334526351474203 126.46885785389871 0 -1 0 -0.82903758062907751 0 -0.55919289150049634 forward_v I I I I #
face $-1 $88 $89 $31 $-1 $90 forward single #
loop $-1 $91 $92 $40 #
cone-surface $-1 42.102554558516701 -0.23812819337113922 4.7362798453456492 -0.82903758062907751 0 -0.55919289150049634 0.27959644575024817 0 -0.41451879031453875 1 I I 0 1 0.5 forward I I I I #
face $-1 $93 $94 $32 $-1 $95 forward single #
loop $-1 $96 $97 $41 #
cone-surface $-1 42.102554558516701 2.5048203037399936 4.7362798453456492 -0.82903758062907751 0 -0.55919289150049634 0.27959644575024817 0 -0.41451879031453875 1 I I 0 1 0.5 forward I I I I #
face $-1 $98 $99 $33 $-1 $100 reversed single #
loop $-1 $-1 $101 $42 #
plane-surface $-1 -118.48783543016178 -2.0667605247785623 52.557578104757475 0 1 0 -0.82903758062907751 0 0.55919289150049634 forward_v I I I I #
face $-1 $102 $103 $34 $-1 $104 forward single #
loop $-1 $105 $106 $43 #
cone-surface $-1 -42.102554558516708 -0.23812819337113922 4.7362798453456705 0.82903758062907751 0 -0.55919289150049634 0.27959644575024817 0 0.41451879031453875 1 I I 0 1 0.5 forward I I I I #
face $-1 $107 $108 $35 $-1 $109 forward single #
loop $-1 $110 $111 $44 #
cone-surface $-1 -42.102554558516708 2.5048203037399936 4.7362798453456705 0.82903758062907751 0 -0.55919289150049634 0.27959644575024817 0 0.41451879031453875 1 I I 0 1 0.5 forward I I I I #
face $-1 $112 $113 $27 $-1 $114 reversed single #
loop $-1 $-1 $115 $45 #
plane-surface $-1 0 0 7.7915171268803851 0 0 1 1 0 0 forward_v I I I I #
coedge $-1 $116 $117 $118 $119 reversed $46 $-1 #
face $-1 $120 $121 $28 $-1 $122 reversed single #
loop $-1 $-1 $123 $48 #
plane-surface $-1 -30.620806423072807 -12.462186045979397 0 0 -1 0 0 0 -1 forward_v I I I I #
coedge $-1 $124 $125 $126 $127 forward $49 $-1 #
face $-1 $128 $129 $29 $-1 $130 reversed single #
loop $-1 $-1 $131 $51 #
plane-surface $-1 0 0 -7.7915171268803851 0 0 1 1 0 0 forward_v I I I I #
coedge $-1 $132 $133 $134 $135 forward $52 $-1 #
face $-1 $136 $137 $30 $-1 $138 reversed single #
loop $-1 $-1 $139 $54 #
plane-surface $-1 -5.277230447784973 1.133346055184429 76.615071725093202 0.82903758062907751 0 0.55919289150049634 0.55919289150049634 0 -0.82903758062907751 forward_v I I I I #
coedge $-1 $140 $141 $142 $143 reversed $55 $-1 #
face $-1 $-1 $144 $31 $-1 $145 forward single #
loop $-1 $146 $147 $57 #
cone-surface $-1 41.137150960241954 -0.23812819337113922 4.085106916400016 -0.82903758062907751 0 -0.55919289150049634 0.13979822287512408 0 -0.20725939515726938 1 I I -0.70710678118654746 0.70710678118654746 0.25 forward I I I I #
loop $-1 $-1 $148 $40 #
coedge $-1 $92 $92 $149 $150 reversed $58 $-1 #
face $-1 $-1 $151 $32 $-1 $152 forward single #
loop $-1 $153 $154 $60 #
cone-surface $-1 41.137150960241954 2.5048203037399936 4.085106916400016 -0.82903758062907751 0 -0.55919289150049634 0.13979822287512408 0 -0.20725939515726938 1 I I -0.70710678118654746 0.70710678118654746 0.25 forward I I I I #
loop $-1 $-1 $155 $41 #
coedge $-1 $97 $97 $156 $157 reversed $61 $-1 #
face $-1 $158 $159 $33 $-1 $160 reversed single #
loop $-1 $-1 $161 $63 #
plane-surface $-1 -44.576555681020523 1.133346055184429 2.7037919759519724 -0.82903758062907751 0 0.55919289150049634 0.55919289150049634 0 0.82903758062907751 forward_v I I I I #
coedge $-1 $162 $163 $164 $165 reversed $64 $-1 #
face $-1 $-1 $166 $34 $-1 $167 forward single #
loop $-1 $168 $169 $66 #
cone-surface $-1 -41.137150960241961 -0.23812819337113922 4.0851069164000373 0.82903758062907751 0 -0.55919289150049634 0.13979822287512408 0 0.20725939515726938 1 I I -0.70710678118654746 0.70710678118654746 0.25 forward I I I I #
loop $-1 $-1 $170 $43 #
coedge $-1 $106 $106 $171 $172 reversed $67 $-1 #
face $-1 $-1 $173 $35 $-1 $174 forward single #
loop $-1 $175 $176 $69 #
cone-surface $-1 -41.137150960241961 2.5048203037399936 4.0851069164000373 0.82903758062907751 0 -0.55919289150049634 0.13979822287512408 0 0.20725939515726938 1 I I -0.70710678118654746 0.70710678118654746 0.25 forward I I I I #
loop $-1 $-1 $177 $44 #
coedge $-1 $111 $111 $178 $179 reversed $70 $-1 #
face $-1 $180 $181 $27 $-1 $182 reversed single #
loop $-1 $-1 $183 $72 #
plane-surface $-1 0 0 -7.7915171268803851 0 0 1 1 0 0 forward_v I I I I #
coedge $-1 $184 $185 $186 $187 forward $73 $-1 #
coedge $-1 $188 $75 $189 $190 reversed $46 $-1 #
coedge $-1 $75 $188 $191 $192 forward $46 $-1 #
coedge $-1 $183 $193 $75 $119 forward $113 $-1 #
edge $-1 $194 -44.576555681020537 $195 44.576555681020537 $75 $196 forward 7 unknown #
face $-1 $197 $198 $28 $-1 $199 forward single #
loop $-1 $-1 $200 $76 #
plane-surface $-1 -28.993521427259765 -16.272415546784391 0 -1 0 0 0 0 1 forward_v I I I I #
coedge $-1 $201 $202 $203 $204 forward $77 $-1 #
coedge $-1 $205 $79 $206 $207 reversed $49 $-1 #
coedge $-1 $79 $205 $208 $209 reversed $49 $-1 #
coedge $-1 $202 $201 $79 $127 reversed $77 $-1 #
edge $-1 $210 -7.7915171268803851 $211 7.7915171268803851 $126 $212 forward 7 unknown #
face $-1 $213 $214 $29 $-1 $215 reversed single #
loop $-1 $-1 $216 $80 #
plane-surface $-1 -32.87964967838456 24.296834048984284 0 1 0 0 0 0 -1 forward_v I I I I #
coedge $-1 $217 $218 $133 $219 forward $81 $-1 #
coedge $-1 $220 $83 $221 $222 reversed $52 $-1 #
coedge $-1 $83 $220 $131 $219 reversed $52 $-1 #
coedge $-1 $223 $224 $83 $135 reversed $225 $-1 #
edge $-1 $226 -7.7915171268803851 $227 7.7915171268803851 $134 $228 forward 7 unknown #
face $-1 $229 $230 $30 $-1 $231 forward single #
loop $-1 $-1 $232 $84 #
plane-surface $-1 68.634049301356285 -2.0667605247785623 126.46885785389871 0 1 0 0.82903758062907751 0 0.55919289150049634 forward_v I I I I #
coedge $-1 $233 $234 $235 $236 reversed $85 $-1 #
coedge $-1 $141 $87 $237 $238 reversed $55 $-1 #
coedge $-1 $87 $140 $233 $239 reversed $55 $-1 #
coedge $-1 $235 $240 $87 $143 forward $230 $-1 #
edge $-1 $241 -10.259531030342394 $242 -6.8278171915696575 $142 $243 forward 7 unknown #
loop $-1 $-1 $149 $88 #
plane-surface $-1 -5.277230447784973 1.133346055184429 76.615071725093202 0.82903758062907751 0 0.55919289150049634 0.55919289150049634 0 -0.82903758062907751 forward_v I I I I #
loop $-1 $-1 $244 $57 #
coedge $-1 $147 $147 $148 $245 reversed $89 $-1 #
coedge $-1 $148 $148 $147 $245 forward $91 $-1 #
coedge $-1 $149 $149 $92 $150 forward $144 $-1 #
edge $-1 $246 0 $246 6.2831853071796004 $149 $247 forward 7 unknown #
loop $-1 $-1 $156 $93 #
plane-surface $-1 -5.277230447784973 1.133346055184429 76.615071725093202 0.82903758062907751 0 0.55919289150049634 0.55919289150049634 0 -0.82903758062907751 forward_v I I I I #
loop $-1 $-1 $248 $60 #
coedge $-1 $154 $154 $155 $249 reversed $94 $-1 #
coedge $-1 $155 $155 $154 $249 forward $96 $-1 #
coedge $-1 $156 $156 $97 $157 forward $151 $-1 #
edge $-1 $250 0 $250 6.2831853071796004 $156 $251 forward 7 unknown #
face $-1 $252 $253 $33 $-1 $254 reversed single #
loop $-1 $-1 $255 $98 #
plane-surface $-1 -118.48783543016178 4.3334526351474203 52.557578104757475 0 -1 0 0.82903758062907751 0 -0.55919289150049634 forward_v I I I I #
coedge $-1 $256 $257 $258 $259 reversed $99 $-1 #
coedge $-1 $163 $101 $260 $261 reversed $64 $-1 #
coedge $-1 $101 $162 $256 $262 reversed $64 $-1 #
coedge $-1 $258 $263 $101 $165 forward $264 $-1 #
edge $-1 $265 14.667362034060353 $266 18.099075872833083 $164 $267 forward 7 unknown #
loop $-1 $-1 $171 $102 #
plane-surface $-1 -44.576555681020523 1.133346055184429 2.7037919759519724 -0.82903758062907751 0 0.55919289150049634 0.55919289150049634 0 0.82903758062907751 forward_v I I I I #
loop $-1 $-1 $268 $66 #
coedge $-1 $169 $169 $170 $269 reversed $103 $-1 #
coedge $-1 $170 $170 $169 $269 forward $105 $-1 #
coedge $-1 $171 $171 $106 $172 forward $166 $-1 #
edge $-1 $270 0 $270 6.2831853071796004 $171 $271 forward 7 unknown #
loop $-1 $-1 $178 $107 #
plane-surface $-1 -44.576555681020523 1.133346055184429 2.7037919759519724 -0.82903758062907751 0 0.55919289150049634 0.55919289150049634 0 0.82903758062907751 forward_v I I I I #
loop $-1 $-1 $272 $69 #
coedge $-1 $176 $176 $177 $273 reversed $108 $-1 #
coedge $-1 $177 $177 $176 $273 forward $110 $-1 #
coedge $-1 $178 $178 $111 $179 forward $173 $-1 #
edge $-1 $274 0 $274 6.2831853071796004 $178 $275 forward 7 unknown #
face $-1 $276 $277 $27 $-1 $278 reversed single #
loop $-1 $-1 $279 $112 #
plane-surface $-1 0 -20.082645047589384 0 0 1 0 0 0 1 forward_v I I I I #
coedge $-1 $280 $118 $281 $282 forward $113 $-1 #
coedge $-1 $283 $115 $188 $284 forward $73 $-1 #
coedge $-1 $115 $283 $285 $286 forward $73 $-1 #
coedge $-1 $287 $191 $115 $187 reversed $288 $-1 #
edge $-1 $289 -20.082645047589384 $290 20.082645047589384 $186 $291 forward 7 unknown #
coedge $-1 $117 $116 $184 $284 reversed $46 $-1 #
coedge $-1 $292 $293 $116 $190 forward $277 $-1 #
edge $-1 $294 -7.7915171268803851 $194 7.7915171268803851 $116 $295 forward 7 unknown #
coedge $-1 $186 $281 $117 $192 reversed $288 $-1 #
edge $-1 $290 -7.7915171268803851 $195 7.7915171268803851 $191 $296 forward 7 unknown #
coedge $-1 $118 $280 $292 $297 forward $113 $-1 #
vertex $-1 $119 $298 #
vertex $-1 $282 $299 #
straight-curve $-1 0 20.082645047589384 -7.7915171268803851 1 0 0 I I #
face $-1 $300 $301 $28 $-1 $302 reversed single #
loop $-1 $-1 $303 $120 #
plane-surface $-1 0 0 7.7915171268803851 0 0 1 1 0 0 forward_v I I I I #
coedge $-1 $304 $305 $306 $307 reversed $121 $-1 #
coedge $-1 $126 $123 $308 $309 reversed $77 $-1 #
coedge $-1 $123 $126 $310 $311 reversed $77 $-1 #
coedge $-1 $305 $304 $123 $204 reversed $121 $-1 #
edge $-1 $312 -7.7915171268803851 $313 7.7915171268803851 $203 $314 forward 7 unknown #
coedge $-1 $125 $124 $315 $316 reversed $49 $-1 #
coedge $-1 $308 $317 $124 $207 forward $301 $-1 #
edge $-1 $318 -11.946437274197189 $211 -4.3259782725872018 $206 $319 forward 7 unknown #
coedge $-1 $320 $310 $125 $209 forward $198 $-1 #
edge $-1 $210 4.3259782725872018 $321 11.946437274197189 $208 $322 forward 7 unknown #
vertex $-1 $209 $323 #
vertex $-1 $207 $324 #
straight-curve $-1 -32.248091418885849 -12.462186045979397 0 0 0 -1 I I #
face $-1 $325 $225 $29 $-1 $326 reversed single #
loop $-1 $-1 $327 $128 #
plane-surface $-1 -30.936585552822162 28.511023050379183 0 0 -1 0 0 0 -1 forward_v I I I I #
coedge $-1 $328 $329 $330 $331 forward $129 $-1 #
coedge $-1 $332 $131 $328 $333 forward $81 $-1 #
coedge $-1 $131 $332 $223 $334 forward $81 $-1 #
edge $-1 $226 28.993521427259765 $335 32.87964967838456 $131 $336 forward 7 unknown #
coedge $-1 $133 $132 $337 $338 forward $52 $-1 #
coedge $-1 $339 $340 $132 $222 forward $341 $-1 #
edge $-1 $342 -32.87964967838456 $227 -28.993521427259765 $221 $343 forward 7 unknown #
coedge $-1 $344 $134 $218 $334 reversed $225 $-1 #
coedge $-1 $134 $344 $339 $345 reversed $225 $-1 #
loop $-1 $-1 $134 $213 #
vertex $-1 $219 $346 #
vertex $-1 $345 $347 #
straight-curve $-1 -28.993521427259765 20.082645047589384 0 0 0 1 I I #
face $-1 $-1 $348 $30 $-1 $349 reversed single #
loop $-1 $-1 $142 $136 #
plane-surface $-1 0 0 7.7915171268803851 0 0 1 1 0 0 forward_v I I I I #
coedge $-1 $350 $351 $352 $353 reversed $137 $-1 #
coedge $-1 $354 $139 $141 $239 forward $85 $-1 #
coedge $-1 $139 $354 $350 $355 forward $85 $-1 #
coedge $-1 $352 $142 $139 $236 forward $230 $-1 #
edge $-1 $242 -3.7667796075552058 $356 2.6334335523707768 $235 $357 forward 7 unknown #
coedge $-1 $358 $359 $140 $238 forward $348 $-1 #
edge $-1 $360 -60.530636950997412 $241 -55.44291180006897 $237 $361 forward 7 unknown #
edge $-1 $242 83.016206027704072 $360 89.153111362041088 $141 $362 forward 7 unknown #
coedge $-1 $142 $352 $358 $363 forward $230 $-1 #
vertex $-1 $143 $364 #
vertex $-1 $143 $365 #
straight-curve $-1 34.317024650678142 4.3334526351474203 7.791517126880386 -1 0 0 I I #
coedge $-1 $244 $244 $-1 $366 reversed $146 $-1 #
edge $-1 $367 0 $367 6.2831853071796004 $147 $368 forward 7 unknown #
vertex $-1 $150 $369 #
ellipse-curve $-1 42.860698761634175 -0.23812819337113922 5.2476545514161561 0.82903758062907751 0 0.55919289150049634 0.27959644575024817 0 -0.41451879031453875 1 I I #
coedge $-1 $248 $248 $-1 $370 reversed $153 $-1 #
edge $-1 $371 0 $371 6.2831853071796004 $154 $372 forward 7 unknown #
vertex $-1 $157 $373 #
ellipse-curve $-1 42.860698761634175 2.5048203037399936 5.2476545514161561 0.82903758062907751 0 0.55919289150049634 0.27959644575024817 0 -0.41451879031453875 1 I I #
face $-1 $-1 $264 $33 $-1 $374 forward single #
loop $-1 $-1 $375 $158 #
plane-surface $-1 -44.576555681020537 0 0 1 0 0 0 0 -1 forward_v I I I I #
coedge $-1 $376 $377 $378 $379 reversed $159 $-1 #
coedge $-1 $380 $161 $163 $262 forward $99 $-1 #
coedge $-1 $161 $380 $376 $381 forward $99 $-1 #
coedge $-1 $378 $164 $161 $259 forward $264 $-1 #
edge $-1 $266 -2.6334335523707768 $382 3.7667796075552058 $258 $383 forward 7 unknown #
coedge $-1 $384 $385 $162 $261 forward $253 $-1 #
edge $-1 $386 -23.574997076426786 $265 -18.487271925498352 $260 $387 forward 7 unknown #
edge $-1 $266 -6.1369053343369817 $386 2.5250441212413278e-014 $163 $388 forward 7 unknown #
coedge $-1 $164 $378 $384 $389 forward $264 $-1 #
loop $-1 $-1 $378 $252 #
vertex $-1 $261 $390 #
vertex $-1 $165 $391 #
straight-curve $-1 -59.24391771508089 -2.0667605247785623 7.791517126880386 1 0 0 I I #
coedge $-1 $268 $268 $-1 $392 reversed $168 $-1 #
edge $-1 $393 0 $393 6.2831853071796004 $169 $394 forward 7 unknown #
vertex $-1 $172 $395 #
ellipse-curve $-1 -42.860698761634168 -0.23812819337113922 5.2476545514161703 -0.82903758062907751 0 0.55919289150049634 0.27959644575024817 0 0.41451879031453875 1 I I #
coedge $-1 $272 $272 $-1 $396 reversed $175 $-1 #
edge $-1 $397 0 $397 6.2831853071796004 $176 $398 forward 7 unknown #
vertex $-1 $179 $399 #
ellipse-curve $-1 -42.860698761634168 2.5048203037399936 5.2476545514161703 -0.82903758062907751 0 0.55919289150049634 0.27959644575024817 0 0.41451879031453875 1 I I #
face $-1 $-1 $288 $27 $-1 $400 reversed single #
loop $-1 $-1 $189 $180 #
plane-surface $-1 -44.576555681020537 0 0 1 0 0 0 0 -1 forward_v I I I I #
coedge $-1 $401 $285 $402 $403 forward $181 $-1 #
coedge $-1 $193 $183 $401 $404 forward $113 $-1 #
coedge $-1 $191 $287 $183 $282 reversed $288 $-1 #
edge $-1 $195 -20.082645047589384 $405 20.082645047589384 $281 $406 forward 7 unknown #
coedge $-1 $185 $184 $293 $407 forward $73 $-1 #
edge $-1 $290 -44.576555681020537 $294 44.576555681020537 $188 $408 forward 7 unknown #
coedge $-1 $279 $409 $185 $286 reversed $181 $-1 #
edge $-1 $410 -44.576555681020537 $289 44.576555681020537 $285 $411 forward 7 unknown #
coedge $-1 $281 $186 $409 $412 forward $288 $-1 #
loop $-1 $-1 $287 $276 #
vertex $-1 $187 $413 #
vertex $-1 $187 $414 #
straight-curve $-1 44.576555681020537 0 7.7915171268803851 0 1 0 I I #
coedge $-1 $402 $189 $193 $297 reversed $277 $-1 #
coedge $-1 $189 $402 $283 $407 reversed $277 $-1 #
vertex $-1 $284 $415 #
straight-curve $-1 -44.576555681020537 20.082645047589384 0 0 0 -1 I I #
straight-curve $-1 44.576555681020537 20.082645047589384 0 0 0 -1 I I #
edge $-1 $416 -20.082645047589384 $194 20.082645047589384 $292 $417 forward 7 unknown #
point $-1 -44.576555681020537 20.082645047589384 -7.7915171268803851 #
point $-1 44.576555681020537 20.082645047589384 -7.7915171268803851 #
face $-1 $-1 $418 $28 $-1 $419 reversed single #
loop $-1 $-1 $420 $197 #
plane-surface $-1 0 0 -7.7915171268803851 0 0 1 1 0 0 forward_v I I I I #
coedge $-1 $310 $320 $305 $421 forward $198 $-1 #
coedge $-1 $203 $200 $420 $422 reversed $121 $-1 #
coedge $-1 $200 $203 $303 $421 reversed $121 $-1 #
coedge $-1 $423 $424 $200 $307 forward $418 $-1 #
edge $-1 $425 -7.7915171268803851 $426 7.7915171268803851 $306 $427 forward 7 unknown #
coedge $-1 $420 $206 $201 $309 forward $301 $-1 #
edge $-1 $211 -16.937688207349446 $313 -13.683118215723361 $308 $428 forward 7 unknown #
coedge $-1 $208 $303 $202 $311 forward $198 $-1 #
edge $-1 $312 13.683118215723361 $210 16.937688207349446 $310 $429 forward 7 unknown #
vertex $-1 $311 $430 #
vertex $-1 $309 $431 #
straight-curve $-1 -28.993521427259765 -12.462186045979397 0 0 0 -1 I I #
coedge $-1 $424 $423 $205 $316 forward $418 $-1 #
edge $-1 $321 -7.7915171268803851 $318 7.7915171268803851 $315 $432 forward 7 unknown #
coedge $-1 $206 $420 $424 $433 forward $301 $-1 #
vertex $-1 $207 $434 #
straight-curve $-1 -32.248091418885849 -8.1362077733921954 -7.7915171268803851 0 1 0 I I #
coedge $-1 $303 $208 $423 $435 forward $198 $-1 #
vertex $-1 $435 $436 #
straight-curve $-1 -32.248091418885849 -8.1362077733921954 7.7915171268803851 0 -1 0 I I #
point $-1 -32.248091418885849 -12.462186045979397 7.7915171268803851 #
point $-1 -32.248091418885849 -12.462186045979397 -7.7915171268803851 #
face $-1 $-1 $341 $29 $-1 $437 forward single #
plane-surface $-1 -28.993521427259765 24.296834048984284 0 -1 0 0 0 0 1 forward_v I I I I #
coedge $-1 $438 $439 $344 $440 forward $214 $-1 #
coedge $-1 $337 $216 $217 $333 reversed $129 $-1 #
coedge $-1 $216 $337 $340 $441 reversed $129 $-1 #
coedge $-1 $439 $438 $216 $331 reversed $214 $-1 #
edge $-1 $442 -7.7915171268803851 $443 7.7915171268803851 $330 $444 forward 7 unknown #
coedge $-1 $218 $217 $438 $445 forward $81 $-1 #
edge $-1 $335 -4.2141890013948995 $443 4.2141890013948995 $328 $446 forward 7 unknown #
edge $-1 $447 -4.2141890013948995 $226 4.2141890013948995 $223 $448 forward 7 unknown #
vertex $-1 $333 $449 #
straight-curve $-1 0 20.082645047589384 -7.7915171268803851 -1 0 0 I I #
coedge $-1 $329 $328 $220 $338 reversed $129 $-1 #
edge $-1 $342 -7.7915171268803851 $335 7.7915171268803851 $337 $450 forward 7 unknown #
coedge $-1 $451 $221 $224 $345 forward $341 $-1 #
coedge $-1 $221 $451 $329 $441 forward $341 $-1 #
loop $-1 $-1 $221 $325 #
vertex $-1 $222 $452 #
straight-curve $-1 0 20.082645047589384 7.7915171268803851 1 0 0 I I #
coedge $-1 $224 $223 $327 $440 reversed $225 $-1 #
edge $-1 $227 -4.2141890013948995 $453 4.2141890013948995 $224 $454 forward 7 unknown #
point $-1 -28.993521427259765 20.082645047589384 -7.7915171268803851 #
point $-1 -28.993521427259765 20.082645047589384 7.7915171268803851 #
loop $-1 $-1 $237 $229 #
plane-surface $-1 44.576555681020537 0 0 -1 0 0 0 0 1 forward_v I I I I #
coedge $-1 $351 $232 $234 $355 reversed $137 $-1 #
coedge $-1 $232 $350 $455 $456 reversed $137 $-1 #
coedge $-1 $240 $235 $232 $353 forward $230 $-1 #
edge $-1 $356 6.8278171915696575 $457 10.259531030342394 $352 $458 forward 7 unknown #
coedge $-1 $234 $233 $359 $459 reversed $85 $-1 #
edge $-1 $460 -89.153111362041088 $356 -83.016206027704072 $350 $461 forward 7 unknown #
vertex $-1 $236 $462 #
straight-curve $-1 41.1448418422478 0.5666730275922145 7.791517126880386 0 -1 0 I I #
coedge $-1 $455 $237 $240 $363 reversed $348 $-1 #
coedge $-1 $237 $455 $354 $459 forward $348 $-1 #
vertex $-1 $238 $463 #
straight-curve $-1 44.576555681020537 4.3334526351474203 63.234428926949356 0 0 1 I I #
straight-curve $-1 -5.277230447784973 4.3334526351474203 76.615071725093202 0.55919289150049634 0 -0.82903758062907751 I I #
edge $-1 $457 -2.0667605247785623 $241 4.3334526351474203 $358 $464 forward 7 unknown #
point $-1 44.576555681020537 4.3334526351474203 7.7915171268803851 #
point $-1 41.1448418422478 4.3334526351474203 7.7915171268803789 #
edge $-1 $465 1 $465 0 $244 $-1 forward 7 unknown #
vertex $-1 $245 $466 #
ellipse-curve $-1 41.344410355399226 -0.23812819337113922 4.2249051392751404 0.82903758062907751 0 0.55919289150049634 0.27959644575024817 0 -0.41451879031453875 1 I I #
point $-1 43.140295207384419 -0.23812819337113922 4.8331357611016195 #
edge $-1 $467 1 $467 0 $248 $-1 forward 7 unknown #
vertex $-1 $249 $468 #
ellipse-curve $-1 41.344410355399226 2.5048203037399936 4.2249051392751404 0.82903758062907751 0 0.55919289150049634 0.27959644575024817 0 -0.41451879031453875 1 I I #
point $-1 43.140295207384419 2.5048203037399936 4.8331357611016195 #
plane-surface $-1 0 0 7.7915171268803851 0 0 1 1 0 0 forward_v I I I I #
coedge $-1 $385 $384 $377 $469 forward $253 $-1 #
coedge $-1 $377 $255 $257 $381 reversed $159 $-1 #
coedge $-1 $255 $376 $375 $469 reversed $159 $-1 #
coedge $-1 $263 $258 $255 $379 forward $264 $-1 #
edge $-1 $382 -18.099075872833083 $470 -14.667362034060353 $378 $471 forward 7 unknown #
coedge $-1 $257 $256 $385 $472 reversed $99 $-1 #
edge $-1 $473 -2.5250441212413278e-014 $382 6.1369053343369817 $376 $474 forward 7 unknown #
vertex $-1 $259 $475 #
straight-curve $-1 -41.144841842247807 0.5666730275922145 7.7915171268803851 0 1 0 I I #
coedge $-1 $375 $260 $263 $389 reversed $253 $-1 #
coedge $-1 $260 $375 $380 $472 forward $253 $-1 #
vertex $-1 $261 $476 #
straight-curve $-1 -44.576555681020537 -2.0667605247785623 26.278789052378738 0 0 1 I I #
straight-curve $-1 -44.576555681020523 -2.0667605247785623 2.7037919759519724 -0.55919289150049634 0 -0.82903758062907751 I I #
edge $-1 $470 -4.3334526351474203 $265 2.0667605247785623 $384 $477 forward 7 unknown #
point $-1 -44.576555681020537 -2.0667605247785623 7.7915171268803851 #
point $-1 -41.144841842247807 -2.0667605247785623 7.7915171268803851 #
edge $-1 $478 1 $478 0 $268 $-1 forward 7 unknown #
vertex $-1 $269 $479 #
ellipse-curve $-1 -41.344410355399233 -0.23812819337113922 4.2249051392751618 -0.82903758062907751 0 0.55919289150049634 0.27959644575024817 0 0.41451879031453875 1 I I #
point $-1 -42.581102315883932 -0.23812819337113922 5.6621733417307185 #
edge $-1 $480 1 $480 0 $272 $-1 forward 7 unknown #
vertex $-1 $273 $481 #
ellipse-curve $-1 -41.344410355399233 2.5048203037399936 4.2249051392751618 -0.82903758062907751 0 0.55919289150049634 0.27959644575024817 0 0.41451879031453875 1 I I #
point $-1 -42.581102315883932 2.5048203037399936 5.6621733417307185 #
plane-surface $-1 44.576555681020537 0 0 -1 0 0 0 0 1 forward_v I I I I #
coedge $-1 $409 $279 $280 $404 reversed $181 $-1 #
coedge $-1 $293 $292 $279 $403 reversed $277 $-1 #
edge $-1 $410 -7.7915171268803851 $416 7.7915171268803851 $402 $482 forward 7 unknown #
edge $-1 $405 -44.576555681020537 $416 44.576555681020537 $401 $483 forward 7 unknown #
vertex $-1 $412 $484 #
straight-curve $-1 44.576555681020537 0 -7.7915171268803851 0 -1 0 I I #
edge $-1 $294 -20.082645047589384 $410 20.082645047589384 $293 $485 forward 7 unknown #
straight-curve $-1 0 20.082645047589384 7.7915171268803851 -1 0 0 I I #
coedge $-1 $285 $401 $287 $412 reversed $181 $-1 #
vertex $-1 $407 $486 #
straight-curve $-1 0 -20.082645047589384 7.7915171268803851 1 0 0 I I #
edge $-1 $289 -7.7915171268803851 $405 7.7915171268803851 $287 $487 forward 7 unknown #
point $-1 44.576555681020537 -20.082645047589384 7.7915171268803851 #
point $-1 44.576555681020537 20.082645047589384 7.7915171268803851 #
point $-1 -44.576555681020537 20.082645047589384 7.7915171268803851 #
vertex $-1 $297 $488 #
straight-curve $-1 -44.576555681020537 0 -7.7915171268803851 0 1 0 I I #
loop $-1 $-1 $306 $300 #
plane-surface $-1 0 -20.082645047589384 0 0 1 0 0 0 1 forward_v I I I I #
coedge $-1 $317 $308 $304 $422 forward $301 $-1 #
edge $-1 $426 -11.946437274197189 $312 -4.3259782725872018 $303 $489 forward 7 unknown #
edge $-1 $313 4.3259782725872018 $425 11.946437274197189 $420 $490 forward 7 unknown #
coedge $-1 $315 $306 $320 $435 reversed $418 $-1 #
coedge $-1 $306 $315 $317 $433 reversed $418 $-1 #
vertex $-1 $433 $491 #
vertex $-1 $307 $492 #
straight-curve $-1 -28.993521427259765 -20.082645047589384 0 0 0 1 I I #
straight-curve $-1 -15.310403211536403 -12.462186045979397 -7.7915171268803851 1 0 0 I I #
straight-curve $-1 -15.310403211536403 -12.462186045979397 7.7915171268803851 -1 0 0 I I #
point $-1 -28.993521427259765 -12.462186045979397 7.7915171268803851 #
point $-1 -28.993521427259765 -12.462186045979397 -7.7915171268803851 #
straight-curve $-1 -32.248091418885849 -20.082645047589384 0 0 0 -1 I I #
edge $-1 $425 28.993521427259765 $318 32.248091418885849 $424 $493 forward 7 unknown #
point $-1 -32.248091418885849 -20.082645047589384 -7.7915171268803851 #
edge $-1 $321 -32.248091418885849 $426 -28.993521427259765 $423 $494 forward 7 unknown #
point $-1 -32.248091418885849 -20.082645047589384 7.7915171268803851 #
plane-surface $-1 0 0 7.7915171268803851 0 0 1 1 0 0 forward_v I I I I #
coedge $-1 $330 $327 $332 $445 reversed $214 $-1 #
coedge $-1 $327 $330 $451 $495 reversed $214 $-1 #
edge $-1 $453 -7.7915171268803851 $447 7.7915171268803851 $344 $496 forward 7 unknown #
edge $-1 $442 -4.2141890013948995 $342 4.2141890013948995 $329 $497 forward 7 unknown #
vertex $-1 $495 $498 #
vertex $-1 $445 $499 #
straight-curve $-1 -32.87964967838456 28.511023050379183 0 0 0 -1 I I #
edge $-1 $443 -1.9430641255623975 $447 1.9430641255623975 $438 $500 forward 7 unknown #
straight-curve $-1 -32.87964967838456 24.296834048984284 -7.7915171268803851 0 1 0 I I #
vertex $-1 $334 $501 #
straight-curve $-1 -28.993521427259765 24.296834048984284 -7.7915171268803851 0 -1 0 I I #
point $-1 -32.87964967838456 20.082645047589384 -7.7915171268803851 #
straight-curve $-1 -32.87964967838456 20.082645047589384 0 0 0 -1 I I #
coedge $-1 $340 $339 $439 $495 forward $341 $-1 #
point $-1 -32.87964967838456 20.082645047589384 7.7915171268803851 #
vertex $-1 $345 $502 #
straight-curve $-1 -28.993521427259765 24.296834048984284 7.7915171268803851 0 1 0 I I #
coedge $-1 $359 $358 $351 $456 forward $348 $-1 #
edge $-1 $457 55.44291180006897 $460 60.530636950997412 $455 $503 forward 7 unknown #
vertex $-1 $363 $504 #
straight-curve $-1 34.317024650678142 -2.0667605247785623 7.791517126880386 1 0 0 I I #
edge $-1 $460 -2.6334335523707768 $360 3.7667796075552058 $359 $505 forward 7 unknown #
vertex $-1 $459 $506 #
straight-curve $-1 -5.277230447784973 -2.0667605247785623 76.615071725093202 -0.55919289150049634 0 0.82903758062907751 I I #
point $-1 41.1448418422478 -2.0667605247785623 7.7915171268803789 #
point $-1 44.576555681020537 4.3334526351474203 2.703791975951944 #
straight-curve $-1 44.576555681020537 0 7.7915171268803851 0 1 0 I I #
vertex $-1 $366 $507 #
point $-1 41.62400680114947 -0.23812819337113922 3.8103863489606011 #
vertex $-1 $370 $508 #
point $-1 41.62400680114947 2.5048203037399936 3.8103863489606011 #
edge $-1 $470 18.487271925498352 $473 23.574997076426786 $375 $509 forward 7 unknown #
vertex $-1 $389 $510 #
straight-curve $-1 -59.24391771508089 4.3334526351474203 7.791517126880386 -1 0 0 I I #
edge $-1 $473 -3.7667796075552058 $386 2.6334335523707768 $385 $511 forward 7 unknown #
vertex $-1 $472 $512 #
straight-curve $-1 -44.576555681020523 4.3334526351474203 2.7037919759519724 0.55919289150049634 0 0.82903758062907751 I I #
point $-1 -41.144841842247807 4.3334526351474203 7.7915171268803851 #
point $-1 -44.576555681020537 -2.0667605247785623 2.7037919759519515 #
straight-curve $-1 -44.576555681020537 0 7.7915171268803851 0 -1 0 I I #
vertex $-1 $392 $513 #
point $-1 -41.064813909648983 -0.23812819337113922 4.6394239295897002 #
vertex $-1 $396 $514 #
point $-1 -41.064813909648983 2.5048203037399936 4.6394239295897002 #
straight-curve $-1 -44.576555681020537 -20.082645047589384 0 0 0 -1 I I #
straight-curve $-1 0 -20.082645047589384 -7.7915171268803851 -1 0 0 I I #
point $-1 44.576555681020537 -20.082645047589384 -7.7915171268803851 #
straight-curve $-1 -44.576555681020537 0 7.7915171268803851 0 -1 0 I I #
point $-1 -44.576555681020537 -20.082645047589384 7.7915171268803851 #
straight-curve $-1 44.576555681020537 -20.082645047589384 0 0 0 -1 I I #
point $-1 -44.576555681020537 -20.082645047589384 -7.7915171268803851 #
straight-curve $-1 -28.993521427259765 -8.1362077733921954 7.7915171268803851 0 1 0 I I #
straight-curve $-1 -28.993521427259765 -8.1362077733921954 -7.7915171268803851 0 -1 0 I I #
point $-1 -28.993521427259765 -20.082645047589384 -7.7915171268803851 #
point $-1 -28.993521427259765 -20.082645047589384 7.7915171268803851 #
straight-curve $-1 0 -20.082645047589384 -7.7915171268803851 -1 0 0 I I #
straight-curve $-1 0 -20.082645047589384 7.7915171268803851 1 0 0 I I #
edge $-1 $453 -1.9430641255623975 $442 1.9430641255623975 $439 $515 forward 7 unknown #
straight-curve $-1 -28.993521427259765 28.511023050379183 0 0 0 -1 I I #
straight-curve $-1 -32.87964967838456 24.296834048984284 7.7915171268803851 0 -1 0 I I #
point $-1 -32.87964967838456 28.511023050379183 7.7915171268803851 #
point $-1 -32.87964967838456 28.511023050379183 -7.7915171268803851 #
straight-curve $-1 -30.936585552822162 28.511023050379183 -7.7915171268803851 1 0 0 I I #
point $-1 -28.993521427259765 28.511023050379183 -7.7915171268803851 #
point $-1 -28.993521427259765 28.511023050379183 7.7915171268803851 #
straight-curve $-1 44.576555681020537 -2.0667605247785623 63.234428926949356 0 0 -1 I I #
point $-1 44.576555681020537 -2.0667605247785623 7.7915171268803851 #
straight-curve $-1 44.576555681020537 0.5666730275922145 2.7037919759519369 0 1 0 I I #
point $-1 44.576555681020537 -2.0667605247785623 2.703791975951944 #
point $-1 40.929891565084681 -0.23812819337113922 3.945308693524892 #
point $-1 40.929891565084681 2.5048203037399936 3.945308693524892 #
straight-curve $-1 -44.576555681020537 4.3334526351474203 26.278789052378738 0 0 -1 I I #
point $-1 -44.576555681020537 4.3334526351474203 7.7915171268803851 #
straight-curve $-1 -44.576555681020537 0.5666730275922145 2.7037919759519555 0 -1 0 I I #
point $-1 -44.576555681020537 4.3334526351474203 2.7037919759519515 #
point $-1 -40.929891565084688 -0.23812819337113922 3.9453086935249133 #
point $-1 -40.929891565084688 2.5048203037399936 3.9453086935249133 #
straight-curve $-1 -30.936585552822162 28.511023050379183 7.7915171268803851 -1 0 0 I I #
End-of-ACIS-data 