500 0 8 0           
7 Unknown 11 ACIS 5.0 NT 24 Thu Mar 25 18:35:52 1999 
-1 9.9999999999999995e-007 1e-010 
body $-1 $8 $-1 $9 #
body $-1 $10 $-1 $11 #
body $-1 $12 $-1 $13 #
body $-1 $14 $-1 $15 #
body $-1 $16 $-1 $17 #
body $-1 $18 $-1 $19 #
body $-1 $20 $-1 $21 #
body $-1 $22 $-1 $23 #
lump $-1 $-1 $24 $0 #
transform $-1 1 0 0 0 1 0 0 0 1 76.712546159245591 36.480073412518102 14.053740370135801 1 rotate no_reflect no_shear #
lump $-1 $-1 $25 $1 #
transform $-1 1 0 0 0 1 0 0 0 1 76.712546159245591 36.480073412518102 14.053740370135801 1 rotate no_reflect no_shear #
lump $-1 $-1 $26 $2 #
transform $-1 1 0 0 0 1 0 0 0 1 76.712546159245591 36.480073412518102 14.053740370135801 1 rotate no_reflect no_shear #
lump $-1 $-1 $27 $3 #
transform $-1 1 0 0 0 1 0 0 0 1 76.712546159245591 36.480073412518102 14.053740370135801 1 rotate no_reflect no_shear #
lump $-1 $-1 $28 $4 #
transform $-1 1 0 0 0 1 0 0 0 1 76.712546159245591 36.480073412518102 14.053740370135801 1 rotate no_reflect no_shear #
lump $-1 $-1 $29 $5 #
transform $-1 1 0 0 0 1 0 0 0 1 76.712546159245591 36.480073412518102 14.053740370135801 1 rotate no_reflect no_shear #
lump $-1 $-1 $30 $6 #
transform $-1 1 0 0 0 1 0 0 0 1 76.712546159245591 36.480073412518102 14.053740370135801 1 rotate no_reflect no_shear #
lump $-1 $-1 $31 $7 #
transform $-1 1 0 0 0 1 0 0 0 1 76.712546159245591 36.480073412518102 14.053740370135801 1 rotate no_reflect no_shear #
shell $-1 $-1 $-1 $32 $-1 $8 #
shell $-1 $-1 $-1 $33 $-1 $10 #
shell $-1 $-1 $-1 $34 $-1 $12 #
shell $-1 $-1 $-1 $35 $-1 $14 #
shell $-1 $-1 $-1 $36 $-1 $16 #
shell $-1 $-1 $-1 $37 $-1 $18 #
shell $-1 $-1 $-1 $38 $-1 $20 #
shell $-1 $-1 $-1 $39 $-1 $22 #
face $-1 $40 $41 $24 $-1 $42 forward single #
face $-1 $43 $44 $25 $-1 $45 reversed single #
face $-1 $46 $47 $26 $-1 $48 reversed single #
face $-1 $49 $50 $27 $-1 $51 forward single #
face $-1 $52 $53 $28 $-1 $54 forward single #
face $-1 $55 $56 $29 $-1 $57 reversed single #
face $-1 $58 $59 $30 $-1 $60 forward single #
face $-1 $61 $62 $31 $-1 $63 forward single #
face $-1 $64 $65 $24 $-1 $66 reversed single #
loop $-1 $-1 $67 $32 #
plane-surface $-1 0 0 14.053740370135801 0 0 1 1 0 0 forward_v I I I I #
face $-1 $68 $69 $25 $-1 $70 reversed single #
loop $-1 $-1 $71 $33 #
plane-surface $-1 -71.159918357125676 -29.138605657898687 0 0 -1 0 0 0 -1 forward_v I I I I #
face $-1 $72 $73 $26 $-1 $74 reversed single #
loop $-1 $-1 $75 $34 #
plane-surface $-1 -38.169883269756525 -169.35010212505256 85.816100658456307 -1 0 0 0 -0.86602541151947299 0.49999998660252726 forward_v I I I I #
face $-1 $76 $77 $27 $-1 $78 forward single #
loop $-1 $79 $80 $35 #
cone-surface $-1 -57.768031330648839 -34.54975794830775 11.289210926312613 0 0.86602541151947299 -0.49999998660252726 1 0 0 1 I I 0 1 1 forward I I I I #
face $-1 $81 $82 $28 $-1 $83 forward single #
loop $-1 $84 $85 $36 #
cone-surface $-1 -46.009142494113455 -34.54975794830775 11.289210926312613 0 0.86602541151947299 -0.49999998660252726 1 0 0 1 I I 0 1 1 forward I I I I #
face $-1 $86 $87 $29 $-1 $88 reversed single #
loop $-1 $-1 $89 $37 #
plane-surface $-1 49.27513887399634 -169.35010212505256 85.816100658456307 1 0 0 0 0.86602541151947299 -0.49999998660252726 forward_v I I I I #
face $-1 $90 $91 $30 $-1 $92 forward single #
loop $-1 $93 $94 $38 #
cone-surface $-1 57.114398098353291 -34.54975794830775 11.289210926312613 0 0.86602541151947299 -0.49999998660252726 1 0 0 1 I I 0 1 1 forward I I I I #
face $-1 $95 $96 $31 $-1 $97 forward single #
loop $-1 $98 $99 $39 #
cone-surface $-1 68.873286934888654 -34.54975794830775 11.289210926312613 0 0.86602541151947299 -0.49999998660252726 1 0 0 1 I I 0 1 1 forward I I I I #
face $-1 $100 $101 $24 $-1 $102 reversed single #
loop $-1 $-1 $103 $40 #
plane-surface $-1 0 0 -14.053740370135801 0 0 1 1 0 0 forward_v I I I I #
coedge $-1 $104 $105 $106 $107 forward $41 $-1 #
face $-1 $108 $109 $25 $-1 $110 forward single #
loop $-1 $-1 $111 $43 #
plane-surface $-1 -65.607290555005761 -32.809339535208395 0 -1 0 0 0 0 1 forward_v I I I I #
coedge $-1 $112 $113 $114 $115 forward $44 $-1 #
face $-1 $116 $117 $26 $-1 $118 forward single #
loop $-1 $-1 $119 $46 #
plane-surface $-1 -51.888586912381143 -36.480073412518095 9.103556554719205 0 -0.86602541151947299 0.49999998660252726 1 0 0 forward_v I I I I #
coedge $-1 $120 $121 $122 $123 reversed $47 $-1 #
face $-1 $-1 $124 $27 $-1 $125 forward single #
loop $-1 $126 $127 $49 #
cone-surface $-1 -57.768031330648839 -33.615424706468993 10.749773396896456 0 0.86602541151947299 -0.49999998660252726 0.5 0 0 1 I I -0.70710678118654746 0.70710678118654746 0.5 forward I I I I #
loop $-1 $-1 $128 $35 #
coedge $-1 $80 $80 $129 $130 reversed $50 $-1 #
face $-1 $-1 $131 $28 $-1 $132 forward single #
loop $-1 $133 $134 $52 #
cone-surface $-1 -46.009142494113455 -33.615424706468993 10.749773396896456 0 0.86602541151947299 -0.49999998660252726 0.5 0 0 1 I I -0.70710678118654746 0.70710678118654746 0.5 forward I I I I #
loop $-1 $-1 $135 $36 #
coedge $-1 $85 $85 $136 $137 reversed $53 $-1 #
face $-1 $138 $139 $29 $-1 $140 reversed single #
loop $-1 $-1 $141 $55 #
plane-surface $-1 62.993842516620958 -36.480073412518095 9.103556554719205 0 -0.86602541151947299 0.49999998660252726 1 0 0 forward_v I I I I #
coedge $-1 $142 $143 $144 $145 reversed $56 $-1 #
face $-1 $-1 $146 $30 $-1 $147 forward single #
loop $-1 $148 $149 $58 #
cone-surface $-1 57.114398098353291 -33.615424706468993 10.749773396896456 0 0.86602541151947299 -0.49999998660252726 0.5 0 0 1 I I -0.70710678118654746 0.70710678118654746 0.5 forward I I I I #
loop $-1 $-1 $150 $38 #
coedge $-1 $94 $94 $151 $152 reversed $59 $-1 #
face $-1 $-1 $153 $31 $-1 $154 forward single #
loop $-1 $155 $156 $61 #
cone-surface $-1 68.873286934888654 -33.615424706468993 10.749773396896456 0 0.86602541151947299 -0.49999998660252726 0.5 0 0 1 I I -0.70710678118654746 0.70710678118654746 0.5 forward I I I I #
loop $-1 $-1 $157 $39 #
coedge $-1 $99 $99 $158 $159 reversed $62 $-1 #
face $-1 $160 $161 $24 $-1 $162 reversed single #
loop $-1 $-1 $163 $64 #
plane-surface $-1 0 -36.480073412518102 0 0 1 0 0 0 1 forward_v I I I I #
coedge $-1 $164 $165 $166 $167 forward $65 $-1 #
coedge $-1 $168 $67 $169 $170 forward $41 $-1 #
coedge $-1 $67 $168 $171 $172 forward $41 $-1 #
coedge $-1 $173 $174 $67 $107 reversed $175 $-1 #
edge $-1 $176 -36.480073412518102 $177 36.480073412518102 $106 $178 forward 7 unknown #
face $-1 $179 $180 $25 $-1 $181 reversed single #
loop $-1 $-1 $182 $68 #
plane-surface $-1 0 0 14.053740370135801 0 0 1 1 0 0 forward_v I I I I #
coedge $-1 $183 $184 $185 $186 reversed $69 $-1 #
coedge $-1 $187 $71 $188 $189 reversed $44 $-1 #
coedge $-1 $71 $187 $190 $191 reversed $44 $-1 #
coedge $-1 $184 $183 $71 $115 reversed $69 $-1 #
edge $-1 $192 -14.053740370135801 $193 14.053740370135801 $114 $194 forward 7 unknown #
face $-1 $195 $196 $26 $-1 $197 forward single #
loop $-1 $-1 $122 $72 #
plane-surface $-1 0 0 14.053740370135801 0 0 1 1 0 0 forward_v I I I I #
coedge $-1 $198 $199 $200 $201 reversed $73 $-1 #
coedge $-1 $121 $75 $202 $203 reversed $47 $-1 #
coedge $-1 $75 $120 $198 $204 reversed $47 $-1 #
coedge $-1 $200 $205 $75 $123 forward $117 $-1 #
edge $-1 $206 48.194977650008177 $207 51.052967506270839 $122 $208 forward 7 unknown #
loop $-1 $-1 $129 $76 #
plane-surface $-1 -51.888586912381143 -36.480073412518095 9.103556554719205 0 -0.86602541151947299 0.49999998660252726 1 0 0 forward_v I I I I #
loop $-1 $-1 $209 $49 #
coedge $-1 $127 $127 $128 $210 reversed $77 $-1 #
coedge $-1 $128 $128 $127 $210 forward $79 $-1 #
coedge $-1 $129 $129 $80 $130 forward $124 $-1 #
edge $-1 $211 -4.7597325791166719e-016 $211 6.2831853071795996 $129 $212 forward 7 unknown #
loop $-1 $-1 $136 $81 #
plane-surface $-1 -51.888586912381143 -36.480073412518095 9.103556554719205 0 -0.86602541151947299 0.49999998660252726 1 0 0 forward_v I I I I #
loop $-1 $-1 $213 $52 #
coedge $-1 $134 $134 $135 $214 reversed $82 $-1 #
coedge $-1 $135 $135 $134 $214 forward $84 $-1 #
coedge $-1 $136 $136 $85 $137 forward $131 $-1 #
edge $-1 $215 -4.7597325791166719e-016 $215 6.2831853071795996 $136 $216 forward 7 unknown #
face $-1 $217 $218 $29 $-1 $219 reversed single #
loop $-1 $-1 $144 $86 #
plane-surface $-1 0 -36.480073412518102 0 0 1 0 0 0 1 forward_v I I I I #
coedge $-1 $220 $221 $222 $223 reversed $87 $-1 #
coedge $-1 $143 $89 $224 $225 reversed $56 $-1 #
coedge $-1 $89 $142 $220 $226 reversed $56 $-1 #
coedge $-1 $222 $227 $89 $145 forward $139 $-1 #
edge $-1 $228 28.854309959092355 $229 33.804493774508963 $144 $230 forward 7 unknown #
loop $-1 $-1 $151 $90 #
plane-surface $-1 62.993842516620958 -36.480073412518095 9.103556554719205 0 -0.86602541151947299 0.49999998660252726 1 0 0 forward_v I I I I #
loop $-1 $-1 $231 $58 #
coedge $-1 $149 $149 $150 $232 reversed $91 $-1 #
coedge $-1 $150 $150 $149 $232 forward $93 $-1 #
coedge $-1 $151 $151 $94 $152 forward $146 $-1 #
edge $-1 $233 -4.7597325791166719e-016 $233 6.2831853071795996 $151 $234 forward 7 unknown #
loop $-1 $-1 $158 $95 #
plane-surface $-1 62.993842516620958 -36.480073412518095 9.103556554719205 0 -0.86602541151947299 0.49999998660252726 1 0 0 forward_v I I I I #
loop $-1 $-1 $235 $61 #
coedge $-1 $156 $156 $157 $236 reversed $96 $-1 #
coedge $-1 $157 $157 $156 $236 forward $98 $-1 #
coedge $-1 $158 $158 $99 $159 forward $153 $-1 #
edge $-1 $237 -4.7597325791166719e-016 $237 6.2831853071795996 $158 $238 forward 7 unknown #
face $-1 $239 $240 $24 $-1 $241 reversed single #
loop $-1 $-1 $242 $100 #
plane-surface $-1 -76.712546159245591 0 0 1 0 0 0 0 -1 forward_v I I I I #
coedge $-1 $243 $171 $244 $245 forward $101 $-1 #
coedge $-1 $246 $103 $243 $247 forward $65 $-1 #
coedge $-1 $103 $246 $248 $249 forward $65 $-1 #
coedge $-1 $174 $173 $103 $167 reversed $175 $-1 #
edge $-1 $250 -36.480073412518102 $251 36.480073412518102 $166 $252 forward 7 unknown #
coedge $-1 $105 $104 $253 $254 forward $41 $-1 #
coedge $-1 $255 $256 $104 $170 reversed $240 $-1 #
edge $-1 $177 -76.712546159245591 $257 76.712546159245591 $169 $258 forward 7 unknown #
coedge $-1 $163 $259 $105 $172 reversed $101 $-1 #
edge $-1 $260 -76.712546159245591 $176 76.712546159245591 $171 $261 forward 7 unknown #
coedge $-1 $166 $106 $259 $262 forward $175 $-1 #
coedge $-1 $106 $166 $255 $263 reversed $175 $-1 #
loop $-1 $-1 $173 $239 #
vertex $-1 $107 $264 #
vertex $-1 $107 $265 #
straight-curve $-1 76.712546159245591 0 14.053740370135801 0 1 0 I I #
face $-1 $266 $267 $25 $-1 $268 reversed single #
loop $-1 $-1 $269 $108 #
plane-surface $-1 -76.712546159245591 0 0 1 0 0 0 0 -1 forward_v I I I I #
coedge $-1 $190 $270 $184 $271 forward $109 $-1 #
coedge $-1 $114 $111 $272 $273 reversed $69 $-1 #
coedge $-1 $111 $114 $182 $271 reversed $69 $-1 #
coedge $-1 $274 $275 $111 $186 forward $276 $-1 #
edge $-1 $277 -14.053740370135801 $278 14.053740370135801 $185 $279 forward 7 unknown #
coedge $-1 $113 $112 $269 $280 reversed $44 $-1 #
coedge $-1 $272 $281 $112 $189 forward $267 $-1 #
edge $-1 $282 -41.132586980682753 $193 -30.027331376442923 $188 $283 forward 7 unknown #
coedge $-1 $284 $182 $113 $191 forward $109 $-1 #
edge $-1 $192 30.027331376442923 $285 41.132586980682753 $190 $286 forward 7 unknown #
vertex $-1 $191 $287 #
vertex $-1 $189 $288 #
straight-curve $-1 -65.607290555005761 -29.138605657898687 0 0 0 -1 I I #
face $-1 $-1 $289 $26 $-1 $290 reversed single #
loop $-1 $-1 $291 $116 #
plane-surface $-1 -65.607290555005761 -32.809339535208395 0 -1 0 0 0 0 1 forward_v I I I I #
coedge $-1 $292 $119 $121 $204 forward $73 $-1 #
coedge $-1 $119 $292 $291 $293 reversed $73 $-1 #
coedge $-1 $294 $122 $119 $201 forward $117 $-1 #
edge $-1 $207 12.225589813565954 $295 39.66299709881519 $200 $296 forward 7 unknown #
coedge $-1 $297 $298 $120 $203 forward $289 $-1 #
edge $-1 $299 -33.804493774508963 $206 -28.854309959092355 $202 $300 forward 7 unknown #
edge $-1 $207 -5.7159798656846785 $299 1.4321304723534956e-014 $121 $301 forward 7 unknown #
coedge $-1 $122 $294 $297 $302 forward $117 $-1 #
vertex $-1 $123 $303 #
vertex $-1 $123 $304 #
straight-curve $-1 -38.169883269756525 -84.675051062526279 14.053740370135799 0 1 0 I I #
coedge $-1 $209 $209 $-1 $305 reversed $126 $-1 #
edge $-1 $306 0 $306 6.2831853071796004 $127 $307 forward 7 unknown #
vertex $-1 $130 $308 #
ellipse-curve $-1 -57.768031330648839 -35.051078484386764 11.578648462427504 0 -0.86602541151947299 0.49999998660252726 1 0 0 1 I I #
coedge $-1 $213 $213 $-1 $309 reversed $133 $-1 #
edge $-1 $310 0 $310 6.2831853071796004 $134 $311 forward 7 unknown #
vertex $-1 $137 $312 #
ellipse-curve $-1 -46.009142494113455 -35.051078484386764 11.578648462427504 0 -0.86602541151947299 0.49999998660252726 1 0 0 1 I I #
face $-1 $-1 $313 $29 $-1 $314 forward single #
loop $-1 $-1 $315 $138 #
plane-surface $-1 76.712546159245591 0 0 -1 0 0 0 0 1 forward_v I I I I #
coedge $-1 $316 $141 $143 $226 forward $87 $-1 #
coedge $-1 $141 $316 $315 $317 reversed $87 $-1 #
coedge $-1 $318 $144 $141 $223 forward $139 $-1 #
edge $-1 $229 17.778217615685861 $319 45.215624900935097 $222 $320 forward 7 unknown #
coedge $-1 $321 $322 $142 $225 forward $313 $-1 #
edge $-1 $323 -51.052967506270839 $228 -48.194977650008177 $224 $324 forward 7 unknown #
edge $-1 $229 -1.4321304723534956e-014 $323 5.7159798656846785 $143 $325 forward 7 unknown #
coedge $-1 $144 $318 $321 $326 reversed $139 $-1 #
vertex $-1 $326 $327 #
vertex $-1 $145 $328 #
straight-curve $-1 49.27513887399634 -36.480073412518095 42.908050329228153 0 0 -1 I I #
coedge $-1 $231 $231 $-1 $329 reversed $148 $-1 #
edge $-1 $330 0 $330 6.2831853071796004 $149 $331 forward 7 unknown #
vertex $-1 $152 $332 #
ellipse-curve $-1 57.114398098353291 -35.051078484386764 11.578648462427504 0 -0.86602541151947299 0.49999998660252726 1 0 0 1 I I #
coedge $-1 $235 $235 $-1 $333 reversed $155 $-1 #
edge $-1 $334 0 $334 6.2831853071796004 $156 $335 forward 7 unknown #
vertex $-1 $159 $336 #
ellipse-curve $-1 68.873286934888654 -35.051078484386764 11.578648462427504 0 -0.86602541151947299 0.49999998660252726 1 0 0 1 I I #
face $-1 $-1 $175 $24 $-1 $337 reversed single #
loop $-1 $-1 $255 $160 #
plane-surface $-1 0 36.480073412518102 0 0 -1 0 0 0 -1 forward_v I I I I #
coedge $-1 $338 $253 $256 $339 forward $161 $-1 #
coedge $-1 $259 $163 $164 $247 reversed $101 $-1 #
coedge $-1 $253 $338 $163 $245 reversed $161 $-1 #
edge $-1 $260 -14.053740370135801 $340 14.053740370135801 $244 $341 forward 7 unknown #
coedge $-1 $165 $164 $338 $342 forward $65 $-1 #
edge $-1 $251 -76.712546159245591 $340 76.712546159245591 $243 $343 forward 7 unknown #
coedge $-1 $256 $255 $165 $249 reversed $240 $-1 #
edge $-1 $344 -76.712546159245591 $250 76.712546159245591 $248 $345 forward 7 unknown #
vertex $-1 $167 $346 #
vertex $-1 $262 $347 #
straight-curve $-1 76.712546159245591 0 -14.053740370135801 0 -1 0 I I #
coedge $-1 $242 $244 $168 $254 reversed $161 $-1 #
edge $-1 $257 -36.480073412518102 $260 36.480073412518102 $253 $348 forward 7 unknown #
coedge $-1 $248 $169 $174 $263 forward $240 $-1 #
coedge $-1 $169 $248 $242 $339 reversed $240 $-1 #
vertex $-1 $170 $349 #
straight-curve $-1 0 36.480073412518102 14.053740370135801 -1 0 0 I I #
coedge $-1 $171 $243 $173 $262 reversed $101 $-1 #
vertex $-1 $254 $350 #
straight-curve $-1 0 -36.480073412518102 14.053740370135801 1 0 0 I I #
edge $-1 $176 -14.053740370135801 $251 14.053740370135801 $173 $351 forward 7 unknown #
edge $-1 $177 -14.053740370135801 $250 14.053740370135801 $174 $352 forward 7 unknown #
point $-1 76.712546159245591 -36.480073412518102 14.053740370135801 #
point $-1 76.712546159245591 36.480073412518102 14.053740370135801 #
face $-1 $-1 $276 $25 $-1 $353 reversed single #
loop $-1 $-1 $272 $179 #
plane-surface $-1 0 0 -14.053740370135801 0 0 1 1 0 0 forward_v I I I I #
coedge $-1 $354 $355 $187 $280 forward $180 $-1 #
coedge $-1 $182 $284 $274 $356 forward $109 $-1 #
edge $-1 $278 -20.075403644913905 $192 -12.733935890294489 $182 $357 forward 7 unknown #
coedge $-1 $358 $188 $183 $273 forward $267 $-1 #
edge $-1 $193 12.733935890294489 $277 20.075403644913905 $272 $359 forward 7 unknown #
coedge $-1 $360 $185 $270 $356 reversed $276 $-1 #
coedge $-1 $185 $360 $358 $361 reversed $276 $-1 #
loop $-1 $-1 $185 $266 #
vertex $-1 $361 $362 #
vertex $-1 $186 $363 #
straight-curve $-1 -65.607290555005761 -36.480073412518102 0 0 0 1 I I #
edge $-1 $285 -14.053740370135801 $282 14.053740370135801 $269 $364 forward 7 unknown #
coedge $-1 $188 $358 $354 $365 forward $267 $-1 #
vertex $-1 $189 $366 #
straight-curve $-1 -35.579959178562838 -29.138605657898687 -14.053740370135801 1 0 0 I I #
coedge $-1 $270 $190 $355 $367 forward $109 $-1 #
vertex $-1 $367 $368 #
straight-curve $-1 -35.579959178562838 -29.138605657898687 14.053740370135801 -1 0 0 I I #
point $-1 -65.607290555005761 -29.138605657898687 14.053740370135801 #
point $-1 -65.607290555005761 -29.138605657898687 -14.053740370135801 #
loop $-1 $-1 $202 $195 #
plane-surface $-1 0 -36.480073412518102 0 0 1 0 0 0 1 forward_v I I I I #
coedge $-1 $369 $370 $199 $293 forward $196 $-1 #
coedge $-1 $199 $198 $298 $371 reversed $73 $-1 #
edge $-1 $295 -8.74025207674228 $372 -3.0242722110575873 $291 $373 forward 7 unknown #
coedge $-1 $205 $200 $370 $374 forward $117 $-1 #
vertex $-1 $374 $375 #
straight-curve $-1 -25.944293456190572 -33.62208355625544 14.053740370135801 -1 0 0 I I #
coedge $-1 $376 $202 $205 $302 reversed $289 $-1 #
coedge $-1 $202 $376 $292 $371 forward $289 $-1 #
vertex $-1 $203 $377 #
straight-curve $-1 -38.169883269756525 -36.480073412518095 42.908050329228153 0 0 1 I I #
straight-curve $-1 -38.169883269756525 -36.480073412518095 9.103556554719205 0 -0.49999998660252726 -0.86602541151947299 I I #
edge $-1 $378 -65.607290555005761 $206 -38.169883269756525 $297 $379 forward 7 unknown #
point $-1 -38.169883269756525 -36.480073412518102 14.053740370135801 #
point $-1 -38.169883269756525 -33.62208355625544 14.053740370135801 #
edge $-1 $380 1 $380 0 $209 $-1 forward 7 unknown #
vertex $-1 $210 $381 #
ellipse-curve $-1 -57.768031330648839 -34.048437412228729 10.999773390197721 0 -0.86602541151947299 0.49999998660252726 1 0 0 1 I I #
point $-1 -56.768031330648839 -35.051078484386771 11.578648462427507 #
edge $-1 $382 1 $382 0 $213 $-1 forward 7 unknown #
vertex $-1 $214 $383 #
ellipse-curve $-1 -46.009142494113455 -34.048437412228729 10.999773390197721 0 -0.86602541151947299 0.49999998660252726 1 0 0 1 I I #
point $-1 -45.009142494113455 -35.051078484386771 11.578648462427507 #
loop $-1 $-1 $224 $217 #
plane-surface $-1 0 0 14.053740370135801 0 0 1 1 0 0 forward_v I I I I #
coedge $-1 $384 $385 $221 $317 forward $218 $-1 #
coedge $-1 $221 $220 $322 $386 reversed $87 $-1 #
edge $-1 $319 -5.1780624529633963 $387 0.53791741272129667 $315 $388 forward 7 unknown #
coedge $-1 $227 $222 $385 $389 reversed $139 $-1 #
vertex $-1 $317 $390 #
straight-curve $-1 31.496921258310479 -36.480073412518102 9.103556554719189 1 0 0 I I #
coedge $-1 $391 $224 $227 $326 forward $313 $-1 #
coedge $-1 $224 $391 $316 $386 forward $313 $-1 #
vertex $-1 $225 $392 #
straight-curve $-1 49.27513887399634 -84.675051062526279 14.053740370135799 0 -1 0 I I #
straight-curve $-1 49.27513887399634 -36.480073412518095 9.103556554719205 0 0.49999998660252726 0.86602541151947299 I I #
edge $-1 $228 49.27513887399634 $393 76.712546159245591 $227 $394 forward 7 unknown #
point $-1 49.27513887399634 -36.480073412518102 14.053740370135801 #
point $-1 49.27513887399634 -36.480073412518102 9.1035565547191926 #
edge $-1 $395 1 $395 0 $231 $-1 forward 7 unknown #
vertex $-1 $232 $396 #
ellipse-curve $-1 57.114398098353291 -34.048437412228729 10.999773390197721 0 -0.86602541151947299 0.49999998660252726 1 0 0 1 I I #
point $-1 58.114398098353291 -35.051078484386771 11.578648462427507 #
edge $-1 $397 1 $397 0 $235 $-1 forward 7 unknown #
vertex $-1 $236 $398 #
ellipse-curve $-1 68.873286934888654 -34.048437412228729 10.999773390197721 0 -0.86602541151947299 0.49999998660252726 1 0 0 1 I I #
point $-1 69.873286934888654 -35.051078484386771 11.578648462427507 #
plane-surface $-1 76.712546159245591 0 0 -1 0 0 0 0 1 forward_v I I I I #
coedge $-1 $244 $242 $246 $342 reversed $161 $-1 #
edge $-1 $257 -14.053740370135801 $344 14.053740370135801 $256 $399 forward 7 unknown #
vertex $-1 $342 $400 #
straight-curve $-1 -76.712546159245591 -36.480073412518102 0 0 0 -1 I I #
edge $-1 $340 -36.480073412518102 $344 36.480073412518102 $338 $401 forward 7 unknown #
straight-curve $-1 0 -36.480073412518102 -14.053740370135801 -1 0 0 I I #
vertex $-1 $249 $402 #
straight-curve $-1 0 36.480073412518102 -14.053740370135801 1 0 0 I I #
point $-1 76.712546159245591 36.480073412518102 -14.053740370135801 #
point $-1 76.712546159245591 -36.480073412518102 -14.053740370135801 #
straight-curve $-1 -76.712546159245591 0 14.053740370135801 0 -1 0 I I #
point $-1 -76.712546159245591 36.480073412518102 14.053740370135801 #
point $-1 -76.712546159245591 -36.480073412518102 14.053740370135801 #
straight-curve $-1 76.712546159245591 -36.480073412518102 0 0 0 -1 I I #
straight-curve $-1 76.712546159245591 36.480073412518102 0 0 0 -1 I I #
plane-surface $-1 0 -36.480073412518102 0 0 1 0 0 0 1 forward_v I I I I #
coedge $-1 $403 $269 $281 $365 reversed $180 $-1 #
coedge $-1 $269 $403 $284 $367 reversed $180 $-1 #
edge $-1 $404 -76.712546159245591 $278 -65.607290555005761 $274 $405 forward 7 unknown #
straight-curve $-1 -65.607290555005761 -16.404669767604197 14.053740370135801 0 1 0 I I #
coedge $-1 $281 $272 $275 $361 forward $267 $-1 #
straight-curve $-1 -65.607290555005761 -16.404669767604197 -14.053740370135801 0 -1 0 I I #
coedge $-1 $275 $274 $403 $406 forward $276 $-1 #
edge $-1 $277 65.607290555005761 $407 76.712546159245591 $275 $408 forward 7 unknown #
point $-1 -65.607290555005761 -36.480073412518102 -14.053740370135801 #
point $-1 -65.607290555005761 -36.480073412518102 14.053740370135801 #
straight-curve $-1 -76.712546159245591 -29.138605657898687 0 0 0 -1 I I #
edge $-1 $407 -36.480073412518102 $282 -29.138605657898687 $354 $409 forward 7 unknown #
point $-1 -76.712546159245591 -29.138605657898687 -14.053740370135801 #
edge $-1 $285 29.138605657898687 $404 36.480073412518102 $355 $410 forward 7 unknown #
point $-1 -76.712546159245591 -29.138605657898687 14.053740370135801 #
coedge $-1 $370 $291 $376 $411 reversed $196 $-1 #
coedge $-1 $291 $369 $294 $374 reversed $196 $-1 #
edge $-1 $372 -39.66299709881519 $299 -12.225589813565954 $298 $412 forward 7 unknown #
vertex $-1 $293 $413 #
straight-curve $-1 -65.607290555005761 -37.992209477529293 6.4844599685911399 0 -0.49999998660252726 -0.86602541151947299 I I #
edge $-1 $295 17.217413788651243 $378 20.075403644913905 $294 $414 forward 7 unknown #
point $-1 -65.607290555005761 -33.62208355625544 14.053740370135801 #
coedge $-1 $298 $297 $369 $411 forward $289 $-1 #
point $-1 -38.169883269756525 -36.480073412518102 9.1035565547191926 #
vertex $-1 $302 $415 #
straight-curve $-1 0 -36.480073412518102 14.053740370135801 1 0 0 I I #
vertex $-1 $305 $416 #
point $-1 -56.768031330648839 -34.048437412228729 10.999773390197721 #
vertex $-1 $309 $417 #
point $-1 -45.009142494113455 -34.048437412228729 10.999773390197721 #
coedge $-1 $385 $315 $391 $418 reversed $218 $-1 #
coedge $-1 $315 $384 $318 $389 forward $218 $-1 #
edge $-1 $387 -45.215624900935097 $323 -17.778217615685861 $322 $419 forward 7 unknown #
vertex $-1 $317 $420 #
straight-curve $-1 76.712546159245591 -33.891042255409353 13.587890221420349 0 0.49999998660252726 0.86602541151947299 I I #
edge $-1 $393 -14.053740370135801 $319 -9.1035565547191926 $385 $421 forward 7 unknown #
point $-1 76.712546159245576 -36.480073412518102 9.1035565547191926 #
coedge $-1 $322 $321 $384 $418 forward $313 $-1 #
point $-1 49.27513887399634 -33.62208355625544 14.053740370135801 #
vertex $-1 $418 $422 #
straight-curve $-1 0 -36.480073412518102 14.053740370135801 1 0 0 I I #
vertex $-1 $329 $423 #
point $-1 58.114398098353291 -34.048437412228729 10.999773390197721 #
vertex $-1 $333 $424 #
point $-1 69.873286934888654 -34.048437412228729 10.999773390197721 #
straight-curve $-1 -76.712546159245591 36.480073412518102 0 0 0 -1 I I #
point $-1 -76.712546159245591 -36.480073412518102 -14.053740370135801 #
straight-curve $-1 -76.712546159245591 0 -14.053740370135801 0 1 0 I I #
point $-1 -76.712546159245591 36.480073412518102 -14.053740370135801 #
coedge $-1 $355 $354 $360 $406 reversed $180 $-1 #
vertex $-1 $367 $425 #
straight-curve $-1 0 -36.480073412518102 14.053740370135801 1 0 0 I I #
edge $-1 $404 -14.053740370135801 $407 14.053740370135801 $403 $426 forward 7 unknown #
vertex $-1 $365 $427 #
straight-curve $-1 0 -36.480073412518102 -14.053740370135801 -1 0 0 I I #
straight-curve $-1 -76.712546159245591 0 -14.053740370135801 0 1 0 I I #
straight-curve $-1 -76.712546159245591 0 14.053740370135801 0 -1 0 I I #
edge $-1 $378 -14.053740370135801 $372 -9.1035565547191926 $376 $428 forward 7 unknown #
straight-curve $-1 -25.944293456190572 -36.480073412518102 9.103556554719189 1 0 0 I I #
point $-1 -65.607290555005761 -36.480073412518102 9.1035565547191926 #
straight-curve $-1 -65.607290555005761 -16.404669767604197 14.053740370135801 0 -1 0 I I #
point $-1 -65.607290555005761 -36.480073412518102 14.053740370135801 #
point $-1 -57.768031330648839 -33.182412000709256 10.499773403595192 #
point $-1 -46.009142494113455 -33.182412000709256 10.499773403595192 #
edge $-1 $393 -36.480073412518102 $387 -33.62208355625544 $384 $429 forward 7 unknown #
straight-curve $-1 31.496921258310479 -33.62208355625544 14.053740370135801 -1 0 0 I I #
point $-1 76.712546159245576 -33.62208355625544 14.053740370135801 #
straight-curve $-1 76.712546159245591 -36.480073412518102 0 0 0 -1 I I #
point $-1 76.712546159245591 -36.480073412518102 14.053740370135801 #
point $-1 57.114398098353291 -33.182412000709256 10.499773403595192 #
point $-1 68.873286934888654 -33.182412000709256 10.499773403595192 #
point $-1 -76.712546159245591 -36.480073412518102 14.053740370135801 #
straight-curve $-1 -76.712546159245591 -36.480073412518102 0 0 0 -1 I I #
point $-1 -76.712546159245591 -36.480073412518102 -14.053740370135801 #
straight-curve $-1 -65.607290555005761 -36.480073412518102 0 0 0 -1 I I #
straight-curve $-1 76.712546159245591 0 14.053740370135801 0 1 0 I I #
End-of-ACIS-data 