500 0 11 0           
7 Unknown 11 ACIS 5.0 NT 24 Fri Mar 26 01:53:20 1999 
-1 9.9999999999999995e-007 1e-010 
body $-1 $11 $-1 $12 #
body $-1 $13 $-1 $14 #
body $-1 $15 $-1 $16 #
body $-1 $17 $-1 $18 #
body $-1 $19 $-1 $20 #
body $-1 $21 $-1 $22 #
body $-1 $23 $-1 $24 #
body $-1 $25 $-1 $26 #
body $-1 $27 $-1 $28 #
body $-1 $29 $-1 $30 #
body $-1 $31 $-1 $32 #
lump $-1 $-1 $33 $0 #
transform $-1 1 0 0 0 1 0 0 0 1 66.862392040772733 31.413917637516164 14.252218420700066 1 rotate no_reflect no_shear #
lump $-1 $-1 $34 $1 #
transform $-1 1 0 0 0 1 0 0 0 1 66.862392040772733 31.413917637516164 14.252218420700066 1 rotate no_reflect no_shear #
lump $-1 $-1 $35 $2 #
transform $-1 1 0 0 0 1 0 0 0 1 66.862392040772733 31.413917637516164 14.252218420700066 1 rotate no_reflect no_shear #
lump $-1 $-1 $36 $3 #
transform $-1 1 0 0 0 1 0 0 0 1 66.862392040772733 31.413917637516164 14.252218420700066 1 rotate no_reflect no_shear #
lump $-1 $-1 $37 $4 #
transform $-1 1 0 0 0 1 0 0 0 1 66.862392040772733 31.413917637516164 14.252218420700066 1 rotate no_reflect no_shear #
lump $-1 $-1 $38 $5 #
transform $-1 1 0 0 0 1 0 0 0 1 66.862392040772733 31.413917637516164 14.252218420700066 1 rotate no_reflect no_shear #
lump $-1 $-1 $39 $6 #
transform $-1 1 0 0 0 1 0 0 0 1 66.862392040772733 31.413917637516164 14.252218420700066 1 rotate no_reflect no_shear #
lump $-1 $-1 $40 $7 #
transform $-1 1 0 0 0 1 0 0 0 1 66.862392040772733 31.413917637516164 14.252218420700066 1 rotate no_reflect no_shear #
lump $-1 $-1 $41 $8 #
transform $-1 1 0 0 0 1 0 0 0 1 66.862392040772733 31.413917637516164 14.252218420700066 1 rotate no_reflect no_shear #
lump $-1 $-1 $42 $9 #
transform $-1 1 0 0 0 1 0 0 0 1 66.862392040772733 31.413917637516164 14.252218420700066 1 rotate no_reflect no_shear #
lump $-1 $-1 $43 $10 #
transform $-1 1 0 0 0 1 0 0 0 1 66.862392040772733 31.413917637516164 14.252218420700066 1 rotate no_reflect no_shear #
shell $-1 $-1 $-1 $44 $-1 $11 #
shell $-1 $-1 $-1 $45 $-1 $13 #
shell $-1 $-1 $-1 $46 $-1 $15 #
shell $-1 $-1 $-1 $47 $-1 $17 #
shell $-1 $-1 $-1 $48 $-1 $19 #
shell $-1 $-1 $-1 $49 $-1 $21 #
shell $-1 $-1 $-1 $50 $-1 $23 #
shell $-1 $-1 $-1 $51 $-1 $25 #
shell $-1 $-1 $-1 $52 $-1 $27 #
shell $-1 $-1 $-1 $53 $-1 $29 #
shell $-1 $-1 $-1 $54 $-1 $31 #
face $-1 $55 $56 $33 $-1 $57 forward single #
face $-1 $58 $59 $34 $-1 $60 forward single #
face $-1 $61 $62 $35 $-1 $63 forward single #
face $-1 $64 $65 $36 $-1 $66 reversed single #
face $-1 $67 $68 $37 $-1 $69 forward single #
face $-1 $70 $71 $38 $-1 $72 reversed single #
face $-1 $73 $74 $39 $-1 $75 forward single #
face $-1 $76 $77 $40 $-1 $78 reversed single #
face $-1 $79 $80 $41 $-1 $81 forward single #
face $-1 $82 $83 $42 $-1 $84 reversed single #
face $-1 $85 $86 $43 $-1 $87 forward single #
face $-1 $88 $89 $33 $-1 $90 reversed single #
loop $-1 $-1 $91 $44 #
plane-surface $-1 0 0 14.252218420700066 0 0 1 1 0 0 forward_v I I I I #
face $-1 $92 $93 $34 $-1 $94 reversed single #
loop $-1 $-1 $95 $45 #
plane-surface $-1 0 -31.413917637516164 0 0 1 0 0 0 1 forward_v I I I I #
face $-1 $96 $97 $35 $-1 $98 reversed single #
loop $-1 $-1 $99 $46 #
plane-surface $-1 0 31.413917637516164 0 0 -1 0 0 0 -1 forward_v I I I I #
face $-1 $100 $101 $36 $-1 $102 reversed single #
loop $-1 $-1 $103 $47 #
plane-surface $-1 -139.6941303547799 -12.815230203471728 118.10938960883435 0 1 0 -0.54463904215088732 0 0.83867056331134215 forward_v I I I I #
face $-1 $104 $105 $37 $-1 $106 forward single #
loop $-1 $107 $108 $48 #
cone-surface $-1 -60.129332179879675 -9.8375462513073018 9.5704258138616858 0.54463904215088732 0 -0.83867056331134215 0.83867056331134215 0 0.54463904215088732 1 I I 0 1 1 forward I I I I #
face $-1 $109 $110 $38 $-1 $111 reversed single #
loop $-1 $-1 $112 $49 #
plane-surface $-1 -139.6941303547799 -2.9776839521644263 118.10938960883435 0 1 0 -0.54463904215088732 0 0.83867056331134215 forward_v I I I I #
face $-1 $113 $114 $39 $-1 $115 forward single #
loop $-1 $116 $117 $50 #
cone-surface $-1 -60.129332179879675 0 9.5704258138616858 0.54463904215088732 0 -0.83867056331134215 0.83867056331134215 0 0.54463904215088732 1 I I 0 1 1 forward I I I I #
face $-1 $118 $119 $40 $-1 $120 reversed single #
loop $-1 $-1 $121 $51 #
plane-surface $-1 -139.6941303547799 6.8598622991428755 118.10938960883435 0 1 0 -0.54463904215088732 0 0.83867056331134215 forward_v I I I I #
face $-1 $122 $123 $41 $-1 $124 forward single #
loop $-1 $125 $126 $52 #
cone-surface $-1 -60.129332179879675 9.8375462513073018 9.5704258138616858 0.54463904215088732 0 -0.83867056331134215 0.83867056331134215 0 0.54463904215088732 1 I I 0 1 1 forward I I I I #
face $-1 $127 $128 $42 $-1 $129 reversed single #
loop $-1 $-1 $130 $53 #
plane-surface $-1 89.909764582163149 14.597857045227357 190.14288185837222 0 -1 0 -0.78801076186113728 0 -0.61566146476048833 forward_v I I I I #
face $-1 $131 $132 $43 $-1 $133 forward single #
loop $-1 $134 $135 $54 #
cone-surface $-1 60.938345960886153 11.397269971459465 7.3223071416398637 -0.78801076186113728 0 -0.61566146476048833 0.9234921971407325 0 -1.182016142791706 1 I I 0 1 1.5 forward I I I I #
face $-1 $136 $137 $33 $-1 $138 reversed single #
loop $-1 $-1 $139 $55 #
plane-surface $-1 0 0 -14.252218420700066 0 0 1 1 0 0 forward_v I I I I #
coedge $-1 $140 $141 $142 $143 forward $56 $-1 #
face $-1 $144 $145 $34 $-1 $146 reversed single #
loop $-1 $-1 $147 $58 #
plane-surface $-1 0 0 -14.252218420700066 0 0 1 1 0 0 forward_v I I I I #
coedge $-1 $148 $149 $150 $151 forward $59 $-1 #
face $-1 $152 $153 $35 $-1 $154 reversed single #
loop $-1 $-1 $155 $61 #
plane-surface $-1 0 0 -14.252218420700066 0 0 1 1 0 0 forward_v I I I I #
coedge $-1 $156 $157 $158 $159 forward $62 $-1 #
face $-1 $160 $161 $36 $-1 $162 reversed single #
loop $-1 $-1 $163 $64 #
plane-surface $-1 -66.862392040772761 -9.8375462513073018 5.9583496144770152 -0.54463904215088732 0 0.83867056331134215 0.83867056331134215 0 0.54463904215088732 forward_v I I I I #
coedge $-1 $164 $165 $166 $167 reversed $65 $-1 #
face $-1 $-1 $168 $37 $-1 $169 forward single #
loop $-1 $170 $171 $67 #
cone-surface $-1 -59.509671673549946 -9.8375462513073018 8.6162323284791835 0.54463904215088732 0 -0.83867056331134215 0.41933528165567108 0 0.27231952107544366 1 I I -0.70710678118654746 0.70710678118654746 0.5 forward I I I I #
loop $-1 $-1 $172 $48 #
coedge $-1 $108 $108 $173 $174 reversed $68 $-1 #
face $-1 $175 $176 $38 $-1 $177 reversed single #
loop $-1 $-1 $178 $70 #
plane-surface $-1 -66.862392040772761 0 5.9583496144770152 -0.54463904215088732 0 0.83867056331134215 0.83867056331134215 0 0.54463904215088732 forward_v I I I I #
coedge $-1 $179 $180 $181 $182 reversed $71 $-1 #
face $-1 $-1 $183 $39 $-1 $184 forward single #
loop $-1 $185 $186 $73 #
cone-surface $-1 -59.509671673549946 0 8.6162323284791835 0.54463904215088732 0 -0.83867056331134215 0.41933528165567108 0 0.27231952107544366 1 I I -0.70710678118654746 0.70710678118654746 0.5 forward I I I I #
loop $-1 $-1 $187 $50 #
coedge $-1 $117 $117 $188 $189 reversed $74 $-1 #
face $-1 $190 $191 $40 $-1 $192 reversed single #
loop $-1 $-1 $193 $76 #
plane-surface $-1 -66.862392040772761 9.8375462513073018 5.9583496144770152 -0.54463904215088732 0 0.83867056331134215 0.83867056331134215 0 0.54463904215088732 forward_v I I I I #
coedge $-1 $194 $195 $196 $197 reversed $77 $-1 #
face $-1 $-1 $198 $41 $-1 $199 forward single #
loop $-1 $200 $201 $79 #
cone-surface $-1 -59.509671673549946 9.8375462513073018 8.6162323284791835 0.54463904215088732 0 -0.83867056331134215 0.41933528165567108 0 0.27231952107544366 1 I I -0.70710678118654746 0.70710678118654746 0.5 forward I I I I #
loop $-1 $-1 $202 $52 #
coedge $-1 $126 $126 $203 $204 reversed $80 $-1 #
face $-1 $205 $206 $42 $-1 $207 reversed single #
loop $-1 $-1 $208 $82 #
plane-surface $-1 -15.466804401651572 11.397269971459465 107.8136854159479 0.78801076186113728 0 0.61566146476048833 0.61566146476048833 0 -0.78801076186113728 forward_v I I I I #
coedge $-1 $209 $210 $211 $212 reversed $83 $-1 #
face $-1 $-1 $213 $43 $-1 $214 forward single #
loop $-1 $215 $216 $85 #
cone-surface $-1 59.038776361740759 11.397269971459465 5.8382007582927375 -0.78801076186113728 0 -0.61566146476048833 0.46174609857036625 0 -0.59100807139585299 1 I I -0.70710678118654757 0.70710678118654757 0.75 forward I I I I #
loop $-1 $-1 $217 $54 #
coedge $-1 $135 $135 $218 $219 reversed $86 $-1 #
face $-1 $220 $221 $33 $-1 $222 reversed single #
loop $-1 $-1 $223 $88 #
plane-surface $-1 0 -31.413917637516164 0 0 1 0 0 0 1 forward_v I I I I #
coedge $-1 $224 $225 $226 $227 forward $89 $-1 #
coedge $-1 $228 $91 $229 $230 forward $56 $-1 #
coedge $-1 $91 $228 $231 $232 forward $56 $-1 #
coedge $-1 $233 $234 $91 $143 reversed $235 $-1 #
edge $-1 $236 -31.413917637516164 $237 31.413917637516164 $142 $238 forward 7 unknown #
face $-1 $239 $240 $34 $-1 $241 reversed single #
loop $-1 $-1 $242 $92 #
plane-surface $-1 -42.083218762597433 -48.229978229804971 0 0 1 0 0 0 1 forward_v I I I I #
coedge $-1 $243 $244 $149 $245 forward $93 $-1 #
coedge $-1 $246 $95 $247 $248 reversed $59 $-1 #
coedge $-1 $95 $246 $147 $245 reversed $59 $-1 #
coedge $-1 $249 $250 $95 $151 reversed $240 $-1 #
edge $-1 $251 -14.252218420700066 $252 14.252218420700066 $150 $253 forward 7 unknown #
face $-1 $254 $255 $35 $-1 $256 reversed single #
loop $-1 $-1 $257 $96 #
plane-surface $-1 -43.981412262453297 39.821947933660567 0 1 0 0 0 0 -1 forward_v I I I I #
coedge $-1 $258 $259 $157 $260 forward $97 $-1 #
coedge $-1 $261 $99 $262 $263 reversed $62 $-1 #
coedge $-1 $99 $261 $155 $260 reversed $62 $-1 #
coedge $-1 $264 $265 $99 $159 reversed $266 $-1 #
edge $-1 $267 -14.252218420700066 $268 14.252218420700066 $158 $269 forward 7 unknown #
face $-1 $270 $271 $36 $-1 $272 reversed single #
loop $-1 $-1 $273 $100 #
plane-surface $-1 -139.6941303547799 -6.8598622991428755 118.10938960883435 0 -1 0 0.54463904215088732 0 -0.83867056331134215 forward_v I I I I #
coedge $-1 $274 $275 $276 $277 reversed $101 $-1 #
coedge $-1 $165 $103 $278 $279 reversed $65 $-1 #
coedge $-1 $103 $164 $274 $280 reversed $65 $-1 #
coedge $-1 $276 $281 $103 $167 forward $282 $-1 #
edge $-1 $283 2.9846731366172179 $284 15.756110887894678 $166 $285 forward 7 unknown #
loop $-1 $-1 $173 $104 #
plane-surface $-1 -66.862392040772761 -9.8375462513073018 5.9583496144770152 -0.54463904215088732 0 0.83867056331134215 0.83867056331134215 0 0.54463904215088732 forward_v I I I I #
loop $-1 $-1 $286 $67 #
coedge $-1 $171 $171 $172 $287 reversed $105 $-1 #
coedge $-1 $172 $172 $171 $287 forward $107 $-1 #
coedge $-1 $173 $173 $108 $174 forward $168 $-1 #
edge $-1 $288 0 $288 6.2831853071796004 $173 $289 forward 7 unknown #
face $-1 $290 $291 $38 $-1 $292 forward single #
loop $-1 $-1 $293 $109 #
plane-surface $-1 -139.6941303547799 2.9776839521644263 118.10938960883435 0 -1 0 0.54463904215088732 0 -0.83867056331134215 forward_v I I I I #
coedge $-1 $294 $295 $296 $297 reversed $110 $-1 #
coedge $-1 $180 $112 $298 $299 reversed $71 $-1 #
coedge $-1 $112 $179 $294 $300 reversed $71 $-1 #
coedge $-1 $296 $301 $112 $182 forward $291 $-1 #
edge $-1 $302 2.9846731366172179 $303 15.756110887894678 $181 $304 forward 7 unknown #
loop $-1 $-1 $188 $113 #
plane-surface $-1 -66.862392040772761 0 5.9583496144770152 -0.54463904215088732 0 0.83867056331134215 0.83867056331134215 0 0.54463904215088732 forward_v I I I I #
loop $-1 $-1 $305 $73 #
coedge $-1 $186 $186 $187 $306 reversed $114 $-1 #
coedge $-1 $187 $187 $186 $306 forward $116 $-1 #
coedge $-1 $188 $188 $117 $189 forward $183 $-1 #
edge $-1 $307 0 $307 6.2831853071796004 $188 $308 forward 7 unknown #
face $-1 $309 $310 $40 $-1 $311 forward single #
loop $-1 $-1 $312 $118 #
plane-surface $-1 -139.6941303547799 12.815230203471728 118.10938960883435 0 -1 0 0.54463904215088732 0 -0.83867056331134215 forward_v I I I I #
coedge $-1 $313 $314 $315 $316 reversed $119 $-1 #
coedge $-1 $195 $121 $317 $318 reversed $77 $-1 #
coedge $-1 $121 $194 $313 $319 reversed $77 $-1 #
coedge $-1 $315 $320 $121 $197 forward $310 $-1 #
edge $-1 $321 2.9846731366172179 $322 15.756110887894678 $196 $323 forward 7 unknown #
loop $-1 $-1 $203 $122 #
plane-surface $-1 -66.862392040772761 9.8375462513073018 5.9583496144770152 -0.54463904215088732 0 0.83867056331134215 0.83867056331134215 0 0.54463904215088732 forward_v I I I I #
loop $-1 $-1 $324 $79 #
coedge $-1 $201 $201 $202 $325 reversed $123 $-1 #
coedge $-1 $202 $202 $201 $325 forward $125 $-1 #
coedge $-1 $203 $203 $126 $204 forward $198 $-1 #
edge $-1 $326 0 $326 6.2831853071796004 $203 $327 forward 7 unknown #
face $-1 $328 $329 $42 $-1 $330 forward single #
loop $-1 $-1 $331 $127 #
plane-surface $-1 89.909764582163149 8.1966828976915735 190.14288185837222 0 1 0 0.78801076186113728 0 0.61566146476048833 forward_v I I I I #
coedge $-1 $332 $333 $334 $335 reversed $128 $-1 #
coedge $-1 $210 $130 $336 $337 reversed $83 $-1 #
coedge $-1 $130 $209 $332 $338 reversed $83 $-1 #
coedge $-1 $334 $339 $130 $212 forward $329 $-1 #
edge $-1 $340 -21.907509749691158 $341 -12.676540645417077 $211 $342 forward 7 unknown #
loop $-1 $-1 $218 $131 #
plane-surface $-1 -15.466804401651572 11.397269971459465 107.8136854159479 0.78801076186113728 0 0.61566146476048833 0.61566146476048833 0 -0.78801076186113728 forward_v I I I I #
loop $-1 $-1 $343 $85 #
coedge $-1 $216 $216 $217 $344 reversed $132 $-1 #
coedge $-1 $217 $217 $216 $344 forward $134 $-1 #
coedge $-1 $218 $218 $135 $219 forward $213 $-1 #
edge $-1 $345 0 $345 6.2831853071796004 $218 $346 forward 7 unknown #
face $-1 $347 $348 $33 $-1 $349 reversed single #
loop $-1 $-1 $350 $136 #
plane-surface $-1 -66.862392040772733 0 0 1 0 0 0 0 -1 forward_v I I I I #
coedge $-1 $351 $231 $352 $353 forward $137 $-1 #
coedge $-1 $354 $139 $351 $355 forward $89 $-1 #
coedge $-1 $139 $354 $356 $357 forward $89 $-1 #
coedge $-1 $234 $233 $139 $227 reversed $235 $-1 #
edge $-1 $358 -31.413917637516164 $359 31.413917637516164 $226 $360 forward 7 unknown #
coedge $-1 $141 $140 $361 $362 forward $56 $-1 #
coedge $-1 $363 $364 $140 $230 reversed $348 $-1 #
edge $-1 $237 -66.862392040772733 $365 66.862392040772733 $229 $366 forward 7 unknown #
coedge $-1 $223 $367 $141 $232 reversed $137 $-1 #
edge $-1 $368 -66.862392040772733 $236 66.862392040772733 $231 $369 forward 7 unknown #
coedge $-1 $226 $142 $367 $370 forward $235 $-1 #
coedge $-1 $142 $226 $363 $371 reversed $235 $-1 #
loop $-1 $-1 $233 $347 #
vertex $-1 $143 $372 #
vertex $-1 $143 $373 #
straight-curve $-1 66.862392040772733 0 14.252218420700066 0 1 0 I I #
face $-1 $374 $375 $34 $-1 $376 reversed single #
loop $-1 $-1 $150 $144 #
plane-surface $-1 -43.981412262453297 -39.821947933660567 0 1 0 0 0 0 -1 forward_v I I I I #
coedge $-1 $377 $378 $379 $380 forward $145 $-1 #
coedge $-1 $381 $147 $382 $383 forward $93 $-1 #
coedge $-1 $147 $381 $249 $384 forward $93 $-1 #
edge $-1 $251 -43.981412262453297 $385 -40.185025262741568 $147 $386 forward 7 unknown #
coedge $-1 $149 $148 $387 $388 forward $59 $-1 #
coedge $-1 $389 $390 $148 $248 forward $391 $-1 #
edge $-1 $392 40.185025262741568 $252 43.981412262453297 $247 $393 forward 7 unknown #
coedge $-1 $379 $150 $244 $384 reversed $240 $-1 #
coedge $-1 $150 $379 $389 $394 reversed $240 $-1 #
vertex $-1 $245 $395 #
vertex $-1 $394 $396 #
straight-curve $-1 -43.981412262453297 -31.413917637516164 0 0 0 1 I I #
face $-1 $397 $266 $35 $-1 $398 reversed single #
loop $-1 $-1 $399 $152 #
plane-surface $-1 -42.083218762597433 48.229978229804971 0 0 -1 0 0 0 -1 forward_v I I I I #
coedge $-1 $400 $401 $402 $403 forward $153 $-1 #
coedge $-1 $404 $155 $400 $405 forward $97 $-1 #
coedge $-1 $155 $404 $264 $406 forward $97 $-1 #
edge $-1 $267 40.185025262741568 $407 43.981412262453297 $155 $408 forward 7 unknown #
coedge $-1 $157 $156 $409 $410 forward $62 $-1 #
coedge $-1 $411 $412 $156 $263 forward $413 $-1 #
edge $-1 $414 -43.981412262453297 $268 -40.185025262741568 $262 $415 forward 7 unknown #
coedge $-1 $416 $158 $259 $406 reversed $266 $-1 #
coedge $-1 $158 $416 $411 $417 reversed $266 $-1 #
loop $-1 $-1 $158 $254 #
vertex $-1 $260 $418 #
vertex $-1 $417 $419 #
straight-curve $-1 -40.185025262741568 31.413917637516164 0 0 0 1 I I #
face $-1 $-1 $282 $36 $-1 $420 forward single #
loop $-1 $-1 $421 $160 #
plane-surface $-1 -66.862392040772733 0 0 1 0 0 0 0 -1 forward_v I I I I #
coedge $-1 $422 $423 $424 $425 reversed $161 $-1 #
coedge $-1 $426 $163 $165 $280 forward $101 $-1 #
coedge $-1 $163 $426 $422 $427 forward $101 $-1 #
coedge $-1 $424 $166 $163 $277 forward $282 $-1 #
edge $-1 $284 -7.8964570778180772 $428 -1.9410891734892246 $276 $429 forward 7 unknown #
coedge $-1 $430 $431 $164 $279 forward $271 $-1 #
edge $-1 $432 -53.096345189940138 $283 -44.802476383717107 $278 $433 forward 7 unknown #
edge $-1 $284 -15.228193655506079 $432 -3.3994920577324079e-014 $165 $434 forward 7 unknown #
coedge $-1 $166 $424 $430 $435 forward $282 $-1 #
loop $-1 $-1 $424 $270 #
vertex $-1 $279 $436 #
vertex $-1 $167 $437 #
straight-curve $-1 -69.84706517738995 -12.815230203471728 14.252218420700068 1 0 0 I I #
coedge $-1 $286 $286 $-1 $438 reversed $170 $-1 #
edge $-1 $439 0 $439 6.2831853071796004 $171 $440 forward 7 unknown #
vertex $-1 $174 $441 #
ellipse-curve $-1 -60.476673165133988 -9.8375462513073018 10.105284017588559 -0.54463904215088732 0 0.83867056331134215 0.83867056331134215 0 0.54463904215088732 1 I I #
face $-1 $-1 $442 $38 $-1 $443 reversed single #
loop $-1 $-1 $181 $175 #
plane-surface $-1 0 0 14.252218420700066 0 0 1 1 0 0 forward_v I I I I #
coedge $-1 $444 $445 $446 $447 reversed $176 $-1 #
coedge $-1 $448 $178 $180 $300 forward $110 $-1 #
coedge $-1 $178 $448 $444 $449 forward $110 $-1 #
coedge $-1 $446 $181 $178 $297 forward $291 $-1 #
edge $-1 $303 -2.9776839521644263 $450 2.9776839521644263 $296 $451 forward 7 unknown #
coedge $-1 $452 $453 $179 $299 forward $442 $-1 #
edge $-1 $454 -53.096345189940138 $302 -44.802476383717107 $298 $455 forward 7 unknown #
edge $-1 $303 -15.228193655506079 $454 -3.3994920577324079e-014 $180 $456 forward 7 unknown #
coedge $-1 $181 $446 $452 $457 forward $291 $-1 #
vertex $-1 $299 $458 #
vertex $-1 $182 $459 #
straight-curve $-1 -69.84706517738995 -2.9776839521644263 14.252218420700068 1 0 0 I I #
coedge $-1 $305 $305 $-1 $460 reversed $185 $-1 #
edge $-1 $461 0 $461 6.2831853071796004 $186 $462 forward 7 unknown #
vertex $-1 $189 $463 #
ellipse-curve $-1 -60.476673165133988 0 10.105284017588559 -0.54463904215088732 0 0.83867056331134215 0.83867056331134215 0 0.54463904215088732 1 I I #
face $-1 $-1 $464 $40 $-1 $465 reversed single #
loop $-1 $-1 $196 $190 #
plane-surface $-1 0 0 14.252218420700066 0 0 1 1 0 0 forward_v I I I I #
coedge $-1 $466 $467 $468 $469 reversed $191 $-1 #
coedge $-1 $470 $193 $195 $319 forward $119 $-1 #
coedge $-1 $193 $470 $466 $471 forward $119 $-1 #
coedge $-1 $468 $196 $193 $316 forward $310 $-1 #
edge $-1 $322 1.9410891734892246 $472 7.8964570778180772 $315 $473 forward 7 unknown #
coedge $-1 $474 $475 $194 $318 forward $464 $-1 #
edge $-1 $476 -53.096345189940138 $321 -44.802476383717107 $317 $477 forward 7 unknown #
edge $-1 $322 -15.228193655506079 $476 -3.3994920577324079e-014 $195 $478 forward 7 unknown #
coedge $-1 $196 $468 $474 $479 forward $310 $-1 #
vertex $-1 $197 $480 #
vertex $-1 $197 $481 #
straight-curve $-1 -69.84706517738995 6.8598622991428755 14.252218420700068 1 0 0 I I #
coedge $-1 $324 $324 $-1 $482 reversed $200 $-1 #
edge $-1 $483 0 $483 6.2831853071796004 $201 $484 forward 7 unknown #
vertex $-1 $204 $485 #
ellipse-curve $-1 -60.476673165133988 9.8375462513073018 10.105284017588559 -0.54463904215088732 0 0.83867056331134215 0.83867056331134215 0 0.54463904215088732 1 I I #
face $-1 $-1 $486 $42 $-1 $487 reversed single #
loop $-1 $-1 $211 $205 #
plane-surface $-1 0 0 14.252218420700066 0 0 1 1 0 0 forward_v I I I I #
coedge $-1 $488 $489 $490 $491 reversed $206 $-1 #
coedge $-1 $492 $208 $210 $338 forward $128 $-1 #
coedge $-1 $208 $492 $488 $493 forward $128 $-1 #
coedge $-1 $490 $211 $208 $335 forward $329 $-1 #
edge $-1 $341 -8.8992220594976246 $494 -2.4980479119618408 $334 $495 forward 7 unknown #
coedge $-1 $496 $497 $209 $337 forward $486 $-1 #
edge $-1 $498 -92.634324497052916 $340 -80.81922250848605 $336 $499 forward 7 unknown #
edge $-1 $341 118.73120460217164 $498 133.72478408154544 $210 $500 forward 7 unknown #
coedge $-1 $211 $490 $496 $501 forward $329 $-1 #
vertex $-1 $212 $502 #
vertex $-1 $212 $503 #
straight-curve $-1 44.954882291081574 14.597857045227357 14.252218420700061 -1 0 0 I I #
coedge $-1 $343 $343 $-1 $504 reversed $215 $-1 #
edge $-1 $505 0 $505 6.2831853071796004 $216 $506 forward 7 unknown #
vertex $-1 $219 $507 #
ellipse-curve $-1 62.246907488635685 11.397269971459465 8.3446674264166205 0.78801076186113728 0 0.61566146476048833 0.9234921971407325 0 -1.182016142791706 1 I I #
face $-1 $-1 $235 $33 $-1 $508 reversed single #
loop $-1 $-1 $363 $220 #
plane-surface $-1 0 31.413917637516164 0 0 -1 0 0 0 -1 forward_v I I I I #
coedge $-1 $509 $361 $364 $510 forward $221 $-1 #
coedge $-1 $367 $223 $224 $355 reversed $137 $-1 #
coedge $-1 $361 $509 $223 $353 reversed $221 $-1 #
edge $-1 $368 -14.252218420700066 $511 14.252218420700066 $352 $512 forward 7 unknown #
coedge $-1 $225 $224 $509 $513 forward $89 $-1 #
edge $-1 $359 -66.862392040772733 $511 66.862392040772733 $351 $514 forward 7 unknown #
coedge $-1 $364 $363 $225 $357 reversed $348 $-1 #
edge $-1 $515 -66.862392040772733 $358 66.862392040772733 $356 $516 forward 7 unknown #
vertex $-1 $227 $517 #
vertex $-1 $370 $518 #
straight-curve $-1 66.862392040772733 0 -14.252218420700066 0 -1 0 I I #
coedge $-1 $350 $352 $228 $362 reversed $221 $-1 #
edge $-1 $365 -31.413917637516164 $368 31.413917637516164 $361 $519 forward 7 unknown #
coedge $-1 $356 $229 $234 $371 forward $348 $-1 #
coedge $-1 $229 $356 $350 $510 reversed $348 $-1 #
vertex $-1 $230 $520 #
straight-curve $-1 0 31.413917637516164 14.252218420700066 -1 0 0 I I #
coedge $-1 $231 $351 $233 $370 reversed $137 $-1 #
vertex $-1 $362 $521 #
straight-curve $-1 0 -31.413917637516164 14.252218420700066 1 0 0 I I #
edge $-1 $236 -14.252218420700066 $359 14.252218420700066 $233 $522 forward 7 unknown #
edge $-1 $237 -14.252218420700066 $358 14.252218420700066 $234 $523 forward 7 unknown #
point $-1 66.862392040772733 -31.413917637516164 14.252218420700066 #
point $-1 66.862392040772733 31.413917637516164 14.252218420700066 #
face $-1 $-1 $391 $34 $-1 $524 forward single #
loop $-1 $-1 $525 $239 #
plane-surface $-1 -40.185025262741568 -39.821947933660567 0 -1 0 0 0 0 1 forward_v I I I I #
coedge $-1 $526 $242 $381 $527 reversed $145 $-1 #
coedge $-1 $242 $526 $528 $529 reversed $145 $-1 #
coedge $-1 $250 $249 $242 $380 reversed $240 $-1 #
edge $-1 $530 -14.252218420700066 $531 14.252218420700066 $379 $532 forward 7 unknown #
coedge $-1 $244 $243 $377 $527 forward $93 $-1 #
coedge $-1 $387 $525 $243 $383 reversed $375 $-1 #
edge $-1 $385 -8.4080302961444033 $533 8.4080302961444033 $382 $534 forward 7 unknown #
edge $-1 $531 -8.4080302961444033 $251 8.4080302961444033 $249 $535 forward 7 unknown #
vertex $-1 $383 $536 #
straight-curve $-1 0 -31.413917637516164 -14.252218420700066 1 0 0 I I #
coedge $-1 $537 $382 $246 $388 reversed $375 $-1 #
edge $-1 $392 -14.252218420700066 $385 14.252218420700066 $387 $538 forward 7 unknown #
coedge $-1 $528 $247 $250 $394 forward $391 $-1 #
coedge $-1 $247 $528 $537 $539 forward $391 $-1 #
loop $-1 $-1 $247 $374 #
vertex $-1 $248 $540 #
straight-curve $-1 0 -31.413917637516164 14.252218420700066 -1 0 0 I I #
edge $-1 $252 -8.4080302961444033 $530 8.4080302961444033 $250 $541 forward 7 unknown #
point $-1 -43.981412262453297 -31.413917637516164 -14.252218420700066 #
point $-1 -43.981412262453297 -31.413917637516164 14.252218420700066 #
face $-1 $-1 $413 $35 $-1 $542 forward single #
plane-surface $-1 -40.185025262741568 39.821947933660567 0 -1 0 0 0 0 1 forward_v I I I I #
coedge $-1 $543 $544 $416 $545 forward $255 $-1 #
coedge $-1 $409 $257 $258 $405 reversed $153 $-1 #
coedge $-1 $257 $409 $412 $546 reversed $153 $-1 #
coedge $-1 $544 $543 $257 $403 reversed $255 $-1 #
edge $-1 $547 -14.252218420700066 $548 14.252218420700066 $402 $549 forward 7 unknown #
coedge $-1 $259 $258 $543 $550 forward $97 $-1 #
edge $-1 $407 -8.4080302961444033 $548 8.4080302961444033 $400 $551 forward 7 unknown #
edge $-1 $552 -8.4080302961444033 $267 8.4080302961444033 $264 $553 forward 7 unknown #
vertex $-1 $405 $554 #
straight-curve $-1 0 31.413917637516164 -14.252218420700066 -1 0 0 I I #
coedge $-1 $401 $400 $261 $410 reversed $153 $-1 #
edge $-1 $414 -14.252218420700066 $407 14.252218420700066 $409 $555 forward 7 unknown #
coedge $-1 $556 $262 $265 $417 forward $413 $-1 #
coedge $-1 $262 $556 $401 $546 forward $413 $-1 #
loop $-1 $-1 $262 $397 #
vertex $-1 $263 $557 #
straight-curve $-1 0 31.413917637516164 14.252218420700066 1 0 0 I I #
coedge $-1 $265 $264 $399 $545 reversed $266 $-1 #
edge $-1 $268 -8.4080302961444033 $558 8.4080302961444033 $265 $559 forward 7 unknown #
point $-1 -40.185025262741568 31.413917637516164 -14.252218420700066 #
point $-1 -40.185025262741568 31.413917637516164 14.252218420700066 #
plane-surface $-1 0 0 14.252218420700066 0 0 1 1 0 0 forward_v I I I I #
coedge $-1 $431 $430 $423 $560 forward $271 $-1 #
coedge $-1 $423 $273 $275 $427 reversed $161 $-1 #
coedge $-1 $273 $422 $421 $560 reversed $161 $-1 #
coedge $-1 $281 $276 $273 $425 forward $282 $-1 #
edge $-1 $428 -15.756110887894678 $561 -2.9846731366172179 $424 $562 forward 7 unknown #
coedge $-1 $275 $274 $431 $563 reversed $101 $-1 #
edge $-1 $564 3.3994920577324079e-014 $428 15.228193655506079 $422 $565 forward 7 unknown #
vertex $-1 $277 $566 #
straight-curve $-1 -54.090954289495272 -4.9187731256536509 14.252218420700066 0 1 0 I I #
coedge $-1 $421 $278 $281 $435 reversed $271 $-1 #
coedge $-1 $278 $421 $426 $563 forward $271 $-1 #
vertex $-1 $279 $567 #
straight-curve $-1 -66.862392040772733 -12.815230203471728 59.054694804417174 0 0 1 I I #
straight-curve $-1 -66.862392040772761 -12.815230203471728 5.9583496144770152 -0.83867056331134215 0 -0.54463904215088732 I I #
edge $-1 $561 6.8598622991428755 $283 12.815230203471728 $430 $568 forward 7 unknown #
point $-1 -66.862392040772733 -12.815230203471728 14.252218420700066 #
point $-1 -54.090954289495272 -12.815230203471728 14.252218420700066 #
edge $-1 $569 1 $569 0 $286 $-1 forward 7 unknown #
vertex $-1 $287 $570 #
ellipse-curve $-1 -59.781991194625391 -9.8375462513073018 9.035567610134855 -0.54463904215088732 0 0.83867056331134215 0.83867056331134215 0 0.54463904215088732 1 I I #
point $-1 -59.638002601822613 -9.8375462513073018 10.649923059739406 #
loop $-1 $-1 $298 $290 #
plane-surface $-1 -66.862392040772733 0 0 1 0 0 0 0 -1 forward_v I I I I #
coedge $-1 $445 $293 $295 $449 reversed $176 $-1 #
coedge $-1 $293 $444 $571 $572 reversed $176 $-1 #
coedge $-1 $301 $296 $293 $447 forward $291 $-1 #
edge $-1 $450 -15.756110887894678 $573 -2.9846731366172179 $446 $574 forward 7 unknown #
coedge $-1 $295 $294 $453 $575 reversed $110 $-1 #
edge $-1 $576 3.3994920577324079e-014 $450 15.228193655506079 $444 $577 forward 7 unknown #
vertex $-1 $297 $578 #
straight-curve $-1 -54.090954289495272 0 14.252218420700066 0 1 0 I I #
coedge $-1 $571 $298 $301 $457 reversed $442 $-1 #
coedge $-1 $298 $571 $448 $575 forward $442 $-1 #
vertex $-1 $299 $579 #
straight-curve $-1 -66.862392040772733 -2.9776839521644263 59.054694804417174 0 0 1 I I #
straight-curve $-1 -66.862392040772761 -2.9776839521644263 5.9583496144770152 -0.83867056331134215 0 -0.54463904215088732 I I #
edge $-1 $573 -2.9776839521644263 $302 2.9776839521644263 $452 $580 forward 7 unknown #
point $-1 -66.862392040772733 -2.9776839521644263 14.252218420700066 #
point $-1 -54.090954289495272 -2.9776839521644263 14.252218420700066 #
edge $-1 $581 1 $581 0 $305 $-1 forward 7 unknown #
vertex $-1 $306 $582 #
ellipse-curve $-1 -59.781991194625391 0 9.035567610134855 -0.54463904215088732 0 0.83867056331134215 0.83867056331134215 0 0.54463904215088732 1 I I #
point $-1 -59.638002601822613 0 10.649923059739406 #
loop $-1 $-1 $317 $309 #
plane-surface $-1 -66.862392040772733 0 0 1 0 0 0 0 -1 forward_v I I I I #
coedge $-1 $467 $312 $314 $471 reversed $191 $-1 #
coedge $-1 $312 $466 $583 $584 reversed $191 $-1 #
coedge $-1 $320 $315 $312 $469 forward $310 $-1 #
edge $-1 $472 -15.756110887894678 $585 -2.9846731366172179 $468 $586 forward 7 unknown #
coedge $-1 $314 $313 $475 $587 reversed $119 $-1 #
edge $-1 $588 3.3994920577324079e-014 $472 15.228193655506079 $466 $589 forward 7 unknown #
vertex $-1 $316 $590 #
straight-curve $-1 -54.090954289495272 4.9187731256536509 14.252218420700066 0 1 0 I I #
coedge $-1 $583 $317 $320 $479 reversed $464 $-1 #
coedge $-1 $317 $583 $470 $587 forward $464 $-1 #
vertex $-1 $318 $591 #
straight-curve $-1 -66.862392040772733 6.8598622991428755 59.054694804417174 0 0 1 I I #
straight-curve $-1 -66.862392040772761 6.8598622991428755 5.9583496144770152 -0.83867056331134215 0 -0.54463904215088732 I I #
edge $-1 $585 -12.815230203471728 $321 -6.8598622991428755 $474 $592 forward 7 unknown #
point $-1 -66.862392040772733 6.8598622991428755 14.252218420700066 #
point $-1 -54.090954289495272 6.8598622991428755 14.252218420700066 #
edge $-1 $593 1 $593 0 $324 $-1 forward 7 unknown #
vertex $-1 $325 $594 #
ellipse-curve $-1 -59.781991194625391 9.8375462513073018 9.035567610134855 -0.54463904215088732 0 0.83867056331134215 0.83867056331134215 0 0.54463904215088732 1 I I #
point $-1 -59.638002601822613 9.8375462513073018 10.649923059739406 #
loop $-1 $-1 $336 $328 #
plane-surface $-1 66.862392040772733 0 0 -1 0 0 0 0 1 forward_v I I I I #
coedge $-1 $489 $331 $333 $493 reversed $206 $-1 #
coedge $-1 $331 $488 $595 $596 reversed $206 $-1 #
coedge $-1 $339 $334 $331 $491 forward $329 $-1 #
edge $-1 $494 12.676540645417077 $597 21.907509749691158 $490 $598 forward 7 unknown #
coedge $-1 $333 $332 $497 $599 reversed $128 $-1 #
edge $-1 $600 -133.72478408154544 $494 -118.73120460217164 $488 $601 forward 7 unknown #
vertex $-1 $335 $602 #
straight-curve $-1 57.631422936498652 5.6986349857297327 14.252218420700061 0 -1 0 I I #
coedge $-1 $595 $336 $339 $501 reversed $486 $-1 #
coedge $-1 $336 $595 $492 $599 forward $486 $-1 #
vertex $-1 $337 $603 #
straight-curve $-1 66.862392040772733 14.597857045227357 95.07144092918611 0 0 1 I I #
straight-curve $-1 -15.466804401651572 14.597857045227357 107.8136854159479 0.61566146476048833 0 -0.78801076186113728 I I #
edge $-1 $597 8.1966828976915735 $340 14.597857045227357 $496 $604 forward 7 unknown #
point $-1 66.862392040772733 14.597857045227357 14.252218420700066 #
point $-1 57.631422936498652 14.597857045227357 14.252218420700061 #
edge $-1 $605 1 $605 0 $343 $-1 forward 7 unknown #
vertex $-1 $344 $606 #
ellipse-curve $-1 59.629784433136614 11.397269971459465 6.2999468568631034 0.78801076186113728 0 0.61566146476048833 0.9234921971407325 0 -1.182016142791706 1 I I #
point $-1 63.170399685776424 11.397269971459465 7.1626512836249168 #
plane-surface $-1 66.862392040772733 0 0 -1 0 0 0 0 1 forward_v I I I I #
coedge $-1 $352 $350 $354 $513 reversed $221 $-1 #
edge $-1 $365 -14.252218420700066 $515 14.252218420700066 $364 $607 forward 7 unknown #
vertex $-1 $513 $608 #
straight-curve $-1 -66.862392040772733 -31.413917637516164 0 0 0 -1 I I #
edge $-1 $511 -31.413917637516164 $515 31.413917637516164 $509 $609 forward 7 unknown #
straight-curve $-1 0 -31.413917637516164 -14.252218420700066 -1 0 0 I I #
vertex $-1 $357 $610 #
straight-curve $-1 0 31.413917637516164 -14.252218420700066 1 0 0 I I #
point $-1 66.862392040772733 31.413917637516164 -14.252218420700066 #
point $-1 66.862392040772733 -31.413917637516164 -14.252218420700066 #
straight-curve $-1 -66.862392040772733 0 14.252218420700066 0 -1 0 I I #
point $-1 -66.862392040772733 31.413917637516164 14.252218420700066 #
point $-1 -66.862392040772733 -31.413917637516164 14.252218420700066 #
straight-curve $-1 66.862392040772733 -31.413917637516164 0 0 0 -1 I I #
straight-curve $-1 66.862392040772733 31.413917637516164 0 0 0 -1 I I #
plane-surface $-1 0 0 14.252218420700066 0 0 1 1 0 0 forward_v I I I I #
coedge $-1 $382 $537 $526 $611 forward $375 $-1 #
coedge $-1 $378 $377 $525 $611 reversed $145 $-1 #
edge $-1 $533 -1.8981934998558643 $531 1.8981934998558643 $377 $612 forward 7 unknown #
coedge $-1 $390 $389 $378 $529 forward $391 $-1 #
edge $-1 $530 -1.8981934998558643 $613 1.8981934998558643 $378 $614 forward 7 unknown #
vertex $-1 $394 $615 #
vertex $-1 $384 $616 #
straight-curve $-1 -43.981412262453297 -48.229978229804971 0 0 0 -1 I I #
vertex $-1 $611 $617 #
straight-curve $-1 -40.185025262741568 -39.821947933660567 -14.252218420700066 0 -1 0 I I #
straight-curve $-1 -43.981412262453297 -39.821947933660567 -14.252218420700066 0 1 0 I I #
point $-1 -40.185025262741568 -31.413917637516164 -14.252218420700066 #
coedge $-1 $525 $387 $390 $539 reversed $375 $-1 #
straight-curve $-1 -40.185025262741568 -31.413917637516164 0 0 0 -1 I I #
edge $-1 $613 -8.4080302961444033 $392 8.4080302961444033 $537 $618 forward 7 unknown #
point $-1 -40.185025262741568 -31.413917637516164 14.252218420700066 #
straight-curve $-1 -43.981412262453297 -39.821947933660567 14.252218420700066 0 -1 0 I I #
plane-surface $-1 0 0 14.252218420700066 0 0 1 1 0 0 forward_v I I I I #
coedge $-1 $402 $399 $404 $550 reversed $255 $-1 #
coedge $-1 $399 $402 $556 $619 reversed $255 $-1 #
edge $-1 $558 -14.252218420700066 $552 14.252218420700066 $416 $620 forward 7 unknown #
edge $-1 $547 -8.4080302961444033 $414 8.4080302961444033 $401 $621 forward 7 unknown #
vertex $-1 $619 $622 #
vertex $-1 $550 $623 #
straight-curve $-1 -43.981412262453297 48.229978229804971 0 0 0 -1 I I #
edge $-1 $548 -1.8981934998558643 $552 1.8981934998558643 $543 $624 forward 7 unknown #
straight-curve $-1 -43.981412262453297 39.821947933660567 -14.252218420700066 0 1 0 I I #
vertex $-1 $406 $625 #
straight-curve $-1 -40.185025262741568 39.821947933660567 -14.252218420700066 0 -1 0 I I #
point $-1 -43.981412262453297 31.413917637516164 -14.252218420700066 #
straight-curve $-1 -43.981412262453297 31.413917637516164 0 0 0 -1 I I #
coedge $-1 $412 $411 $544 $619 forward $413 $-1 #
point $-1 -43.981412262453297 31.413917637516164 14.252218420700066 #
vertex $-1 $417 $626 #
straight-curve $-1 -40.185025262741568 39.821947933660567 14.252218420700066 0 1 0 I I #
edge $-1 $561 44.802476383717107 $564 53.096345189940138 $421 $627 forward 7 unknown #
vertex $-1 $435 $628 #
straight-curve $-1 -69.84706517738995 -6.8598622991428755 14.252218420700068 -1 0 0 I I #
edge $-1 $564 1.9410891734892246 $432 7.8964570778180772 $431 $629 forward 7 unknown #
vertex $-1 $563 $630 #
straight-curve $-1 -66.862392040772761 -6.8598622991428755 5.9583496144770152 0.83867056331134215 0 0.54463904215088732 I I #
point $-1 -54.090954289495272 -6.8598622991428755 14.252218420700066 #
point $-1 -66.862392040772733 -12.815230203471728 5.9583496144770338 #
straight-curve $-1 -66.862392040772733 0 14.252218420700066 0 -1 0 I I #
vertex $-1 $438 $631 #
point $-1 -58.943320631314045 -9.8375462513073018 9.5802066522857423 #
coedge $-1 $453 $452 $445 $572 forward $442 $-1 #
edge $-1 $573 44.802476383717107 $576 53.096345189940138 $571 $632 forward 7 unknown #
vertex $-1 $457 $633 #
straight-curve $-1 -69.84706517738995 2.9776839521644263 14.252218420700068 -1 0 0 I I #
edge $-1 $576 -2.9776839521644263 $454 2.9776839521644263 $453 $634 forward 7 unknown #
vertex $-1 $575 $635 #
straight-curve $-1 -66.862392040772761 2.9776839521644263 5.9583496144770152 0.83867056331134215 0 0.54463904215088732 I I #
point $-1 -54.090954289495272 2.9776839521644263 14.252218420700066 #
point $-1 -66.862392040772733 -2.9776839521644263 5.9583496144770338 #
straight-curve $-1 -66.862392040772733 0 14.252218420700066 0 -1 0 I I #
vertex $-1 $460 $636 #
point $-1 -58.943320631314045 0 9.5802066522857423 #
coedge $-1 $475 $474 $467 $584 forward $464 $-1 #
edge $-1 $585 44.802476383717107 $588 53.096345189940138 $583 $637 forward 7 unknown #
vertex $-1 $479 $638 #
straight-curve $-1 -69.84706517738995 12.815230203471728 14.252218420700068 -1 0 0 I I #
edge $-1 $588 -7.8964570778180772 $476 -1.9410891734892246 $475 $639 forward 7 unknown #
vertex $-1 $587 $640 #
straight-curve $-1 -66.862392040772761 12.815230203471728 5.9583496144770152 0.83867056331134215 0 0.54463904215088732 I I #
point $-1 -54.090954289495272 12.815230203471728 14.252218420700066 #
point $-1 -66.862392040772733 6.8598622991428755 5.9583496144770338 #
straight-curve $-1 -66.862392040772733 0 14.252218420700066 0 -1 0 I I #
vertex $-1 $482 $641 #
point $-1 -58.943320631314045 9.8375462513073018 9.5802066522857423 #
coedge $-1 $497 $496 $489 $596 forward $486 $-1 #
edge $-1 $597 80.81922250848605 $600 92.634324497052916 $595 $642 forward 7 unknown #
vertex $-1 $501 $643 #
straight-curve $-1 44.954882291081574 8.1966828976915735 14.252218420700061 1 0 0 I I #
edge $-1 $600 2.4980479119618408 $498 8.8992220594976246 $497 $644 forward 7 unknown #
vertex $-1 $599 $645 #
straight-curve $-1 -15.466804401651572 8.1966828976915735 107.8136854159479 -0.61566146476048833 0 0.78801076186113728 I I #
point $-1 57.631422936498652 8.1966828976915735 14.252218420700061 #
point $-1 66.862392040772718 14.597857045227357 2.4371164321331946 #
straight-curve $-1 66.862392040772733 0 14.252218420700066 0 1 0 I I #
vertex $-1 $504 $646 #
point $-1 60.553276630277345 11.397269971459465 5.1179307140713979 #
straight-curve $-1 -66.862392040772733 31.413917637516164 0 0 0 -1 I I #
point $-1 -66.862392040772733 -31.413917637516164 -14.252218420700066 #
straight-curve $-1 -66.862392040772733 0 -14.252218420700066 0 1 0 I I #
point $-1 -66.862392040772733 31.413917637516164 -14.252218420700066 #
edge $-1 $613 -14.252218420700066 $533 14.252218420700066 $525 $647 forward 7 unknown #
straight-curve $-1 -42.083218762597433 -48.229978229804971 -14.252218420700066 -1 0 0 I I #
vertex $-1 $539 $648 #
straight-curve $-1 -42.083218762597433 -48.229978229804971 14.252218420700066 1 0 0 I I #
point $-1 -43.981412262453297 -48.229978229804971 14.252218420700066 #
point $-1 -43.981412262453297 -48.229978229804971 -14.252218420700066 #
point $-1 -40.185025262741568 -48.229978229804971 -14.252218420700066 #
straight-curve $-1 -40.185025262741568 -39.821947933660567 14.252218420700066 0 1 0 I I #
edge $-1 $558 -1.8981934998558643 $547 1.8981934998558643 $544 $649 forward 7 unknown #
straight-curve $-1 -40.185025262741568 48.229978229804971 0 0 0 -1 I I #
straight-curve $-1 -43.981412262453297 39.821947933660567 14.252218420700066 0 -1 0 I I #
point $-1 -43.981412262453297 48.229978229804971 14.252218420700066 #
point $-1 -43.981412262453297 48.229978229804971 -14.252218420700066 #
straight-curve $-1 -42.083218762597433 48.229978229804971 -14.252218420700066 1 0 0 I I #
point $-1 -40.185025262741568 48.229978229804971 -14.252218420700066 #
point $-1 -40.185025262741568 48.229978229804971 14.252218420700066 #
straight-curve $-1 -66.862392040772733 -6.8598622991428755 59.054694804417174 0 0 -1 I I #
point $-1 -66.862392040772733 -6.8598622991428755 14.252218420700066 #
straight-curve $-1 -66.862392040772733 -4.9187731256536509 5.958349614477032 0 -1 0 I I #
point $-1 -66.862392040772733 -6.8598622991428755 5.9583496144770338 #
point $-1 -59.2373521524745 -9.8375462513073018 8.1968970468235121 #
straight-curve $-1 -66.862392040772733 2.9776839521644263 59.054694804417174 0 0 -1 I I #
point $-1 -66.862392040772733 2.9776839521644263 14.252218420700066 #
straight-curve $-1 -66.862392040772733 0 5.958349614477032 0 -1 0 I I #
point $-1 -66.862392040772733 2.9776839521644263 5.9583496144770338 #
point $-1 -59.2373521524745 0 8.1968970468235121 #
straight-curve $-1 -66.862392040772733 12.815230203471728 59.054694804417174 0 0 -1 I I #
point $-1 -66.862392040772733 12.815230203471728 14.252218420700066 #
straight-curve $-1 -66.862392040772733 4.9187731256536509 5.958349614477032 0 -1 0 I I #
point $-1 -66.862392040772733 12.815230203471728 5.9583496144770338 #
point $-1 -59.2373521524745 9.8375462513073018 8.1968970468235121 #
straight-curve $-1 66.862392040772733 8.1966828976915735 95.07144092918611 0 0 -1 I I #
point $-1 66.862392040772733 8.1966828976915735 14.252218420700066 #
straight-curve $-1 66.862392040772733 5.6986349857297327 2.4371164321331804 0 1 0 I I #
point $-1 66.862392040772718 8.1966828976915735 2.4371164321331946 #
point $-1 58.447768290344904 11.397269971459465 5.3764546597223717 #
straight-curve $-1 -40.185025262741568 -48.229978229804971 0 0 0 -1 I I #
point $-1 -40.185025262741568 -48.229978229804971 14.252218420700066 #
straight-curve $-1 -42.083218762597433 48.229978229804971 14.252218420700066 -1 0 0 I I #
End-of-ACIS-data 