500 0 8 0           
7 Unknown 11 ACIS 5.0 NT 24 Fri Mar 26 02:02:22 1999 
-1 9.9999999999999995e-007 1e-010 
body $-1 $8 $-1 $9 #
body $-1 $10 $-1 $11 #
body $-1 $12 $-1 $13 #
body $-1 $14 $-1 $15 #
body $-1 $16 $-1 $17 #
body $-1 $18 $-1 $19 #
body $-1 $20 $-1 $21 #
body $-1 $22 $-1 $23 #
lump $-1 $-1 $24 $0 #
transform $-1 1 0 0 0 1 0 0 0 1 67.954954680013429 46.982388677859682 11.523138061112922 1 rotate no_reflect no_shear #
lump $-1 $-1 $25 $1 #
transform $-1 1 0 0 0 1 0 0 0 1 67.954954680013429 46.982388677859682 11.523138061112922 1 rotate no_reflect no_shear #
lump $-1 $-1 $26 $2 #
transform $-1 1 0 0 0 1 0 0 0 1 67.954954680013429 46.982388677859682 11.523138061112922 1 rotate no_reflect no_shear #
lump $-1 $-1 $27 $3 #
transform $-1 1 0 0 0 1 0 0 0 1 67.954954680013429 46.982388677859682 11.523138061112922 1 rotate no_reflect no_shear #
lump $-1 $-1 $28 $4 #
transform $-1 1 0 0 0 1 0 0 0 1 67.954954680013429 46.982388677859682 11.523138061112922 1 rotate no_reflect no_shear #
lump $-1 $-1 $29 $5 #
transform $-1 1 0 0 0 1 0 0 0 1 67.954954680013429 46.982388677859682 11.523138061112922 1 rotate no_reflect no_shear #
lump $-1 $-1 $30 $6 #
transform $-1 1 0 0 0 1 0 0 0 1 67.954954680013429 46.982388677859682 11.523138061112922 1 rotate no_reflect no_shear #
lump $-1 $-1 $31 $7 #
transform $-1 1 0 0 0 1 0 0 0 1 67.954954680013429 46.982388677859682 11.523138061112922 1 rotate no_reflect no_shear #
shell $-1 $-1 $-1 $32 $-1 $8 #
shell $-1 $-1 $-1 $33 $-1 $10 #
shell $-1 $-1 $-1 $34 $-1 $12 #
shell $-1 $-1 $-1 $35 $-1 $14 #
shell $-1 $-1 $-1 $36 $-1 $16 #
shell $-1 $-1 $-1 $37 $-1 $18 #
shell $-1 $-1 $-1 $38 $-1 $20 #
shell $-1 $-1 $-1 $39 $-1 $22 #
face $-1 $40 $41 $24 $-1 $42 forward single #
face $-1 $43 $44 $25 $-1 $45 forward single #
face $-1 $46 $47 $26 $-1 $48 reversed single #
face $-1 $49 $50 $27 $-1 $51 forward single #
face $-1 $52 $53 $28 $-1 $54 forward single #
face $-1 $55 $56 $29 $-1 $57 reversed single #
face $-1 $58 $59 $30 $-1 $60 forward single #
face $-1 $61 $62 $31 $-1 $63 forward single #
face $-1 $64 $65 $24 $-1 $66 reversed single #
loop $-1 $-1 $67 $32 #
plane-surface $-1 0 0 11.523138061112922 0 0 1 1 0 0 forward_v I I I I #
face $-1 $68 $69 $25 $-1 $70 reversed single #
loop $-1 $-1 $71 $33 #
plane-surface $-1 -62.786285513512695 0 10.348722176686399 0 0 1 1 0 0 forward_v I I I I #
face $-1 $72 $73 $26 $-1 $74 reversed single #
loop $-1 $-1 $75 $34 #
plane-surface $-1 45.718871765187252 -124.93711115805044 115.0572649546011 1 0 0 0 0.57357644374324357 -0.81915203911291934 forward_v I I I I #
face $-1 $76 $77 $27 $-1 $78 forward single #
loop $-1 $79 $80 $35 #
cone-surface $-1 52.072038312280441 -39.651647265409004 5.1065324000388443 0 0.57357644374324357 -0.81915203911291934 2 0 0 1 I I 0 1 2 forward I I I I #
face $-1 $81 $82 $28 $-1 $83 forward single #
loop $-1 $84 $85 $36 #
cone-surface $-1 61.601788132920234 -39.651647265409004 5.1065324000388443 0 0.57357644374324357 -0.81915203911291934 2 0 0 1 I I 0 1 2 forward I I I I #
face $-1 $86 $87 $29 $-1 $88 reversed single #
loop $-1 $-1 $89 $37 #
plane-surface $-1 37.460689882668504 85.10842809116744 163.72476621916417 1 0 0 0 -0.74314483375859142 -0.66913059716165679 forward_v I I I I #
face $-1 $90 $91 $30 $-1 $92 forward single #
loop $-1 $93 $94 $38 #
cone-surface $-1 44.324317151243676 41.074971994574291 5.3931104799413019 0 -0.74314483375859142 -0.66913059716165679 1.5 0 0 1 I I 0 1 1.5 forward I I I I #
face $-1 $95 $96 $31 $-1 $97 forward single #
loop $-1 $98 $99 $39 #
cone-surface $-1 54.619758054106427 41.074971994574291 5.3931104799413019 0 -0.74314483375859142 -0.66913059716165679 1.5 0 0 1 I I 0 1 1.5 forward I I I I #
face $-1 $100 $101 $24 $-1 $102 reversed single #
loop $-1 $-1 $103 $40 #
plane-surface $-1 0 0 -11.523138061112922 0 0 1 1 0 0 forward_v I I I I #
coedge $-1 $104 $105 $106 $107 forward $41 $-1 #
face $-1 $108 $109 $25 $-1 $110 reversed single #
loop $-1 $-1 $111 $43 #
plane-surface $-1 -62.786285513512695 0 5.785676258593055 0 0 1 1 0 0 forward_v I I I I #
coedge $-1 $112 $113 $114 $115 forward $44 $-1 #
face $-1 $116 $117 $26 $-1 $118 forward single #
loop $-1 $-1 $119 $46 #
plane-surface $-1 56.836913222600344 -46.98238867785966 3.7263855666830494 0 -0.57357644374324357 0.81915203911291934 1 0 0 forward_v I I I I #
coedge $-1 $120 $121 $122 $123 reversed $47 $-1 #
face $-1 $-1 $124 $27 $-1 $125 forward single #
loop $-1 $126 $127 $49 #
cone-surface $-1 52.072038312280441 -37.314787569273278 1.7691509470667803 0 0.57357644374324357 -0.81915203911291934 1 0 0 1 I I -0.70710678118654746 0.70710678118654746 1 forward I I I I #
loop $-1 $-1 $128 $35 #
coedge $-1 $80 $80 $129 $130 reversed $50 $-1 #
face $-1 $-1 $131 $28 $-1 $132 forward single #
loop $-1 $133 $134 $52 #
cone-surface $-1 61.601788132920234 -37.314787569273278 1.7691509470667803 0 0.57357644374324357 -0.81915203911291934 1 0 0 1 I I -0.70710678118654746 0.70710678118654746 1 forward I I I I #
loop $-1 $-1 $135 $36 #
coedge $-1 $85 $85 $136 $137 reversed $53 $-1 #
face $-1 $138 $139 $29 $-1 $140 reversed single #
loop $-1 $-1 $141 $55 #
plane-surface $-1 49.472037602675044 -15.89231890633495 72.783287408902751 0 0.74314483375859142 0.66913059716165679 1 0 0 forward_v I I I I #
coedge $-1 $142 $143 $144 $145 reversed $56 $-1 #
face $-1 $-1 $146 $30 $-1 $147 forward single #
loop $-1 $148 $149 $58 #
cone-surface $-1 44.324317151243676 38.468108050957078 3.0458797005930851 0 -0.74314483375859142 -0.66913059716165679 0.75 0 0 1 I I -0.70710678118654757 0.70710678118654757 0.75 forward I I I I #
loop $-1 $-1 $150 $38 #
coedge $-1 $94 $94 $151 $152 reversed $59 $-1 #
face $-1 $-1 $153 $31 $-1 $154 forward single #
loop $-1 $155 $156 $61 #
cone-surface $-1 54.619758054106427 38.468108050957078 3.0458797005930851 0 -0.74314483375859142 -0.66913059716165679 0.75 0 0 1 I I -0.70710678118654757 0.70710678118654757 0.75 forward I I I I #
loop $-1 $-1 $157 $39 #
coedge $-1 $99 $99 $158 $159 reversed $62 $-1 #
face $-1 $160 $161 $24 $-1 $162 reversed single #
loop $-1 $-1 $163 $64 #
plane-surface $-1 0 -46.982388677859682 0 0 1 0 0 0 1 forward_v I I I I #
coedge $-1 $164 $165 $166 $167 forward $65 $-1 #
coedge $-1 $168 $67 $169 $170 forward $41 $-1 #
coedge $-1 $67 $168 $171 $172 forward $41 $-1 #
coedge $-1 $173 $174 $67 $107 reversed $175 $-1 #
edge $-1 $176 -46.982388677859682 $177 46.982388677859682 $106 $178 forward 7 unknown #
face $-1 $179 $180 $25 $-1 $181 reversed single #
loop $-1 $-1 $182 $68 #
plane-surface $-1 -57.61761634701196 0 8.0671992176397271 -1 0 0 0 0 1 forward_v I I I I #
coedge $-1 $183 $184 $185 $186 forward $69 $-1 #
coedge $-1 $187 $71 $188 $189 reversed $44 $-1 #
coedge $-1 $71 $187 $190 $191 reversed $44 $-1 #
coedge $-1 $182 $192 $71 $115 reversed $109 $-1 #
edge $-1 $193 -46.982388677859682 $194 46.982388677859682 $114 $195 forward 7 unknown #
face $-1 $196 $197 $26 $-1 $198 reversed single #
loop $-1 $-1 $199 $72 #
plane-surface $-1 0 0 11.523138061112922 0 0 1 1 0 0 forward_v I I I I #
coedge $-1 $200 $201 $202 $203 reversed $73 $-1 #
coedge $-1 $121 $75 $204 $205 reversed $47 $-1 #
coedge $-1 $75 $120 $200 $206 reversed $47 $-1 #
coedge $-1 $202 $207 $75 $123 forward $197 $-1 #
edge $-1 $208 46.005494416187624 $209 53.802246910617512 $122 $210 forward 7 unknown #
loop $-1 $-1 $129 $76 #
plane-surface $-1 56.836913222600344 -46.98238867785966 3.7263855666830494 0 -0.57357644374324357 0.81915203911291934 1 0 0 forward_v I I I I #
loop $-1 $-1 $211 $49 #
coedge $-1 $127 $127 $128 $212 reversed $77 $-1 #
coedge $-1 $128 $128 $127 $212 forward $79 $-1 #
coedge $-1 $129 $129 $80 $130 forward $124 $-1 #
edge $-1 $213 1.1652931006749434e-015 $213 6.2831853071796013 $129 $214 forward 7 unknown #
loop $-1 $-1 $136 $81 #
plane-surface $-1 56.836913222600344 -46.98238867785966 3.7263855666830494 0 -0.57357644374324357 0.81915203911291934 1 0 0 forward_v I I I I #
loop $-1 $-1 $215 $52 #
coedge $-1 $134 $134 $135 $216 reversed $82 $-1 #
coedge $-1 $135 $135 $134 $216 forward $84 $-1 #
coedge $-1 $136 $136 $85 $137 forward $131 $-1 #
edge $-1 $217 1.1652931006749434e-015 $217 6.2831853071796013 $136 $218 forward 7 unknown #
face $-1 $219 $220 $29 $-1 $221 reversed single #
loop $-1 $-1 $222 $86 #
plane-surface $-1 61.483385322681585 85.10842809116744 163.72476621916417 -1 0 0 0 0.74314483375859142 0.66913059716165679 forward_v I I I I #
coedge $-1 $223 $224 $225 $226 reversed $87 $-1 #
coedge $-1 $143 $89 $227 $228 reversed $56 $-1 #
coedge $-1 $89 $142 $223 $229 reversed $56 $-1 #
coedge $-1 $225 $230 $89 $145 forward $231 $-1 #
edge $-1 $232 -4.4281746322759616 $233 3.2876480976982947 $144 $234 forward 7 unknown #
loop $-1 $-1 $151 $90 #
plane-surface $-1 49.472037602675044 -15.89231890633495 72.783287408902751 0 0.74314483375859142 0.66913059716165679 1 0 0 forward_v I I I I #
loop $-1 $-1 $235 $58 #
coedge $-1 $149 $149 $150 $236 reversed $91 $-1 #
coedge $-1 $150 $150 $149 $236 forward $93 $-1 #
coedge $-1 $151 $151 $94 $152 forward $146 $-1 #
edge $-1 $237 -1.6706922624905774e-015 $237 6.2831853071795987 $151 $238 forward 7 unknown #
loop $-1 $-1 $158 $95 #
plane-surface $-1 49.472037602675044 -15.89231890633495 72.783287408902751 0 0.74314483375859142 0.66913059716165679 1 0 0 forward_v I I I I #
loop $-1 $-1 $239 $61 #
coedge $-1 $156 $156 $157 $240 reversed $96 $-1 #
coedge $-1 $157 $157 $156 $240 forward $98 $-1 #
coedge $-1 $158 $158 $99 $159 forward $153 $-1 #
edge $-1 $241 -1.6706922624905774e-015 $241 6.2831853071795987 $158 $242 forward 7 unknown #
face $-1 $243 $244 $24 $-1 $245 reversed single #
loop $-1 $-1 $246 $100 #
plane-surface $-1 -67.954954680013429 0 0 1 0 0 0 0 -1 forward_v I I I I #
coedge $-1 $247 $171 $248 $249 forward $101 $-1 #
coedge $-1 $250 $103 $247 $251 forward $65 $-1 #
coedge $-1 $103 $250 $252 $253 forward $65 $-1 #
coedge $-1 $174 $173 $103 $167 reversed $175 $-1 #
edge $-1 $254 -46.982388677859682 $255 46.982388677859682 $166 $256 forward 7 unknown #
coedge $-1 $105 $104 $257 $258 forward $41 $-1 #
coedge $-1 $259 $260 $104 $170 reversed $244 $-1 #
edge $-1 $177 -67.954954680013429 $261 67.954954680013429 $169 $262 forward 7 unknown #
coedge $-1 $163 $263 $105 $172 reversed $101 $-1 #
edge $-1 $264 -67.954954680013429 $176 67.954954680013429 $171 $265 forward 7 unknown #
coedge $-1 $166 $106 $263 $266 forward $175 $-1 #
coedge $-1 $106 $166 $259 $267 reversed $175 $-1 #
loop $-1 $-1 $173 $243 #
vertex $-1 $107 $268 #
vertex $-1 $107 $269 #
straight-curve $-1 67.954954680013429 0 11.523138061112922 0 1 0 I I #
face $-1 $270 $271 $25 $-1 $272 reversed single #
loop $-1 $-1 $273 $108 #
plane-surface $-1 0 -46.982388677859682 0 0 1 0 0 0 1 forward_v I I I I #
coedge $-1 $185 $114 $274 $275 reversed $109 $-1 #
coedge $-1 $276 $111 $273 $277 reversed $69 $-1 #
coedge $-1 $111 $276 $278 $279 reversed $69 $-1 #
coedge $-1 $192 $182 $111 $186 reversed $109 $-1 #
edge $-1 $280 -46.982388677859682 $281 46.982388677859682 $185 $282 forward 7 unknown #
coedge $-1 $113 $112 $283 $284 reversed $44 $-1 #
coedge $-1 $285 $286 $112 $189 forward $287 $-1 #
edge $-1 $288 -36.561811923257082 $194 -26.224473590255613 $188 $289 forward 7 unknown #
coedge $-1 $290 $274 $113 $191 forward $180 $-1 #
edge $-1 $193 26.224473590255613 $291 36.561811923257082 $190 $292 forward 7 unknown #
coedge $-1 $114 $185 $285 $293 reversed $109 $-1 #
vertex $-1 $191 $294 #
vertex $-1 $189 $295 #
straight-curve $-1 -57.61761634701196 0 10.348722176686399 0 1 0 I I #
face $-1 $-1 $296 $26 $-1 $297 reversed single #
loop $-1 $-1 $122 $116 #
plane-surface $-1 0 -46.982388677859682 0 0 1 0 0 0 1 forward_v I I I I #
coedge $-1 $204 $298 $299 $300 forward $117 $-1 #
coedge $-1 $299 $119 $121 $206 forward $73 $-1 #
coedge $-1 $119 $299 $301 $302 reversed $73 $-1 #
coedge $-1 $303 $122 $119 $203 forward $197 $-1 #
edge $-1 $209 17.30041515388708 $304 39.536498068713257 $202 $305 forward 7 unknown #
coedge $-1 $306 $199 $120 $205 forward $117 $-1 #
edge $-1 $307 -26.621083221281964 $208 -15.486166901165539 $204 $308 forward 7 unknown #
edge $-1 $209 -2.6121725655721309e-014 $307 13.593222977476426 $121 $309 forward 7 unknown #
coedge $-1 $122 $303 $306 $310 reversed $197 $-1 #
vertex $-1 $310 $311 #
vertex $-1 $123 $312 #
straight-curve $-1 45.718871765187252 -46.982388677859682 57.528632477300548 0 0 -1 I I #
coedge $-1 $211 $211 $-1 $313 reversed $126 $-1 #
edge $-1 $314 0 $314 6.2831853071796004 $127 $315 forward 7 unknown #
vertex $-1 $130 $316 #
ellipse-curve $-1 52.072038312280441 -41.414930517801473 7.6247618138979742 0 -0.57357644374324357 0.81915203911291934 2 0 0 1 I I #
coedge $-1 $215 $215 $-1 $317 reversed $133 $-1 #
edge $-1 $318 0 $318 6.2831853071796004 $134 $319 forward 7 unknown #
vertex $-1 $137 $320 #
ellipse-curve $-1 61.601788132920234 -41.414930517801473 7.6247618138979742 0 -0.57357644374324357 0.81915203911291934 2 0 0 1 I I #
face $-1 $-1 $231 $29 $-1 $321 forward single #
loop $-1 $-1 $322 $138 #
plane-surface $-1 0 46.982388677859682 0 0 -1 0 0 0 -1 forward_v I I I I #
coedge $-1 $323 $324 $325 $326 reversed $139 $-1 #
coedge $-1 $327 $141 $143 $229 forward $87 $-1 #
coedge $-1 $141 $327 $323 $328 forward $87 $-1 #
coedge $-1 $325 $144 $141 $226 forward $231 $-1 #
edge $-1 $233 12.724671081330982 $329 36.747366521344063 $225 $330 forward 7 unknown #
coedge $-1 $331 $332 $142 $228 forward $220 $-1 #
edge $-1 $333 -78.908534547858466 $232 -70.339245048469166 $227 $334 forward 7 unknown #
edge $-1 $233 82.433661064365296 $333 93.964777355719377 $143 $335 forward 7 unknown #
coedge $-1 $144 $325 $331 $336 forward $231 $-1 #
loop $-1 $-1 $325 $219 #
vertex $-1 $228 $337 #
vertex $-1 $145 $338 #
straight-curve $-1 37.460689882668504 42.55421404558372 11.523138061112917 0 -1 0 I I #
coedge $-1 $235 $235 $-1 $339 reversed $148 $-1 #
edge $-1 $340 0 $340 6.2831853071796004 $149 $341 forward 7 unknown #
vertex $-1 $152 $342 #
ellipse-curve $-1 44.324317151243676 43.124477312872557 7.2384933114182664 0 0.74314483375859142 0.66913059716165679 1.5 0 0 1 I I #
coedge $-1 $239 $239 $-1 $343 reversed $155 $-1 #
edge $-1 $344 0 $344 6.2831853071796004 $156 $345 forward 7 unknown #
vertex $-1 $159 $346 #
ellipse-curve $-1 54.619758054106427 43.124477312872557 7.2384933114182664 0 0.74314483375859142 0.66913059716165679 1.5 0 0 1 I I #
face $-1 $-1 $175 $24 $-1 $347 reversed single #
loop $-1 $-1 $259 $160 #
plane-surface $-1 0 46.982388677859682 0 0 -1 0 0 0 -1 forward_v I I I I #
coedge $-1 $348 $257 $260 $349 forward $161 $-1 #
coedge $-1 $263 $163 $164 $251 reversed $101 $-1 #
coedge $-1 $257 $348 $163 $249 reversed $161 $-1 #
edge $-1 $264 -11.523138061112922 $350 11.523138061112922 $248 $351 forward 7 unknown #
coedge $-1 $165 $164 $348 $352 forward $65 $-1 #
edge $-1 $255 -67.954954680013429 $350 67.954954680013429 $247 $353 forward 7 unknown #
coedge $-1 $260 $259 $165 $253 reversed $244 $-1 #
edge $-1 $354 -67.954954680013429 $254 67.954954680013429 $252 $355 forward 7 unknown #
vertex $-1 $167 $356 #
vertex $-1 $266 $357 #
straight-curve $-1 67.954954680013429 0 -11.523138061112922 0 -1 0 I I #
coedge $-1 $246 $248 $168 $258 reversed $161 $-1 #
edge $-1 $261 -46.982388677859682 $264 46.982388677859682 $257 $358 forward 7 unknown #
coedge $-1 $252 $169 $174 $267 forward $244 $-1 #
coedge $-1 $169 $252 $246 $349 reversed $244 $-1 #
vertex $-1 $170 $359 #
straight-curve $-1 0 46.982388677859682 11.523138061112922 -1 0 0 I I #
coedge $-1 $171 $247 $173 $266 reversed $101 $-1 #
vertex $-1 $258 $360 #
straight-curve $-1 0 -46.982388677859682 11.523138061112922 1 0 0 I I #
edge $-1 $176 -11.523138061112922 $255 11.523138061112922 $173 $361 forward 7 unknown #
edge $-1 $177 -11.523138061112922 $254 11.523138061112922 $174 $362 forward 7 unknown #
point $-1 67.954954680013429 -46.982388677859682 11.523138061112922 #
point $-1 67.954954680013429 46.982388677859682 11.523138061112922 #
face $-1 $-1 $287 $25 $-1 $363 reversed single #
loop $-1 $-1 $364 $179 #
plane-surface $-1 -67.954954680013429 0 0 1 0 0 0 0 -1 forward_v I I I I #
coedge $-1 $274 $290 $183 $277 forward $180 $-1 #
coedge $-1 $190 $273 $182 $275 forward $180 $-1 #
edge $-1 $281 1.7520766497731914 $193 6.3151225678665357 $274 $365 forward 7 unknown #
coedge $-1 $184 $183 $364 $366 reversed $69 $-1 #
edge $-1 $367 -36.561811923257082 $281 -26.224473590255613 $273 $368 forward 7 unknown #
coedge $-1 $286 $285 $184 $279 forward $287 $-1 #
edge $-1 $280 26.224473590255613 $369 36.561811923257082 $278 $370 forward 7 unknown #
vertex $-1 $279 $371 #
vertex $-1 $277 $372 #
straight-curve $-1 -57.61761634701196 0 5.785676258593055 0 -1 0 I I #
coedge $-1 $373 $374 $187 $284 forward $271 $-1 #
edge $-1 $291 -46.982388677859682 $288 46.982388677859682 $283 $375 forward 7 unknown #
coedge $-1 $278 $188 $192 $293 forward $287 $-1 #
coedge $-1 $188 $278 $373 $376 reversed $287 $-1 #
loop $-1 $-1 $278 $270 #
vertex $-1 $376 $377 #
straight-curve $-1 -31.393142756756347 46.982388677859682 10.348722176686399 1 0 0 I I #
coedge $-1 $273 $190 $374 $378 forward $180 $-1 #
vertex $-1 $378 $379 #
straight-curve $-1 -31.393142756756347 -46.982388677859682 10.348722176686399 -1 0 0 I I #
edge $-1 $194 -6.3151225678665357 $280 -1.7520766497731914 $285 $380 forward 7 unknown #
point $-1 -57.61761634701196 -46.982388677859682 10.348722176686399 #
point $-1 -57.61761634701196 46.982388677859682 10.348722176686399 #
loop $-1 $-1 $301 $196 #
plane-surface $-1 67.954954680013429 0 0 -1 0 0 0 0 1 forward_v I I I I #
coedge $-1 $199 $306 $381 $382 forward $117 $-1 #
coedge $-1 $201 $200 $199 $300 reversed $73 $-1 #
edge $-1 $383 -39.536498068713257 $307 -17.30041515388708 $199 $384 forward 7 unknown #
coedge $-1 $381 $385 $201 $302 forward $296 $-1 #
edge $-1 $304 -18.174176253255155 $383 -4.5809532757787039 $301 $386 forward 7 unknown #
coedge $-1 $207 $202 $385 $387 reversed $197 $-1 #
vertex $-1 $203 $388 #
straight-curve $-1 28.418456611300172 -46.982388677859682 3.7263855666830388 1 0 0 I I #
coedge $-1 $298 $204 $207 $310 forward $117 $-1 #
vertex $-1 $205 $389 #
straight-curve $-1 45.718871765187252 -62.468555579025221 11.523138061112924 0 -1 0 I I #
straight-curve $-1 45.718871765187252 -46.98238867785966 3.7263855666830494 0 0.81915203911291934 0.57357644374324357 I I #
edge $-1 $208 45.718871765187252 $390 67.954954680013429 $207 $391 forward 7 unknown #
point $-1 45.718871765187252 -46.982388677859682 11.523138061112922 #
point $-1 45.718871765187252 -46.982388677859682 3.7263855666830343 #
edge $-1 $392 1 $392 0 $211 $-1 forward 7 unknown #
vertex $-1 $212 $393 #
ellipse-curve $-1 52.072038312280441 -37.88836401301652 2.5883029861796998 0 -0.57357644374324357 0.81915203911291934 2 0 0 1 I I #
point $-1 54.072038312280441 -41.41493051780148 7.6247618138979885 #
edge $-1 $394 1 $394 0 $215 $-1 forward 7 unknown #
vertex $-1 $216 $395 #
ellipse-curve $-1 61.601788132920234 -37.88836401301652 2.5883029861796998 0 -0.57357644374324357 0.81915203911291934 2 0 0 1 I I #
point $-1 63.601788132920234 -41.41493051780148 7.6247618138979885 #
plane-surface $-1 0 0 11.523138061112922 0 0 1 1 0 0 forward_v I I I I #
coedge $-1 $332 $331 $324 $396 forward $220 $-1 #
coedge $-1 $324 $222 $224 $328 reversed $139 $-1 #
coedge $-1 $222 $323 $322 $396 reversed $139 $-1 #
coedge $-1 $230 $225 $222 $326 forward $231 $-1 #
edge $-1 $329 -3.2876480976982947 $397 4.4281746322759616 $325 $398 forward 7 unknown #
coedge $-1 $224 $223 $332 $399 reversed $87 $-1 #
edge $-1 $400 -93.964777355719377 $329 -82.433661064365296 $323 $401 forward 7 unknown #
vertex $-1 $226 $402 #
straight-curve $-1 24.736018801337522 39.266565947885411 11.523138061112924 1 0 0 I I #
coedge $-1 $322 $227 $230 $336 reversed $220 $-1 #
coedge $-1 $227 $322 $327 $399 forward $220 $-1 #
vertex $-1 $228 $403 #
straight-curve $-1 37.460689882668504 46.982388677859682 81.862383109582083 0 0 1 I I #
straight-curve $-1 37.460689882668504 -15.89231890633495 72.783287408902751 0 0.66913059716165679 -0.74314483375859142 I I #
edge $-1 $397 -61.483385322681585 $232 -37.460689882668504 $331 $404 forward 7 unknown #
point $-1 37.460689882668504 46.982388677859682 11.523138061112922 #
point $-1 37.460689882668504 39.266565947885425 11.523138061112924 #
edge $-1 $405 1 $405 0 $235 $-1 forward 7 unknown #
vertex $-1 $236 $406 #
ellipse-curve $-1 44.324317151243676 39.025466676276018 3.5477276484643276 0 0.74314483375859142 0.66913059716165679 1.5 0 0 1 I I #
point $-1 45.824317151243676 43.124477312872564 7.2384933114182761 #
edge $-1 $407 1 $407 0 $239 $-1 forward 7 unknown #
vertex $-1 $240 $408 #
ellipse-curve $-1 54.619758054106427 39.025466676276018 3.5477276484643276 0 0.74314483375859142 0.66913059716165679 1.5 0 0 1 I I #
point $-1 56.119758054106427 43.124477312872564 7.2384933114182761 #
plane-surface $-1 67.954954680013429 0 0 -1 0 0 0 0 1 forward_v I I I I #
coedge $-1 $248 $246 $250 $352 reversed $161 $-1 #
edge $-1 $261 -11.523138061112922 $354 11.523138061112922 $260 $409 forward 7 unknown #
vertex $-1 $352 $410 #
straight-curve $-1 -67.954954680013429 -46.982388677859682 0 0 0 -1 I I #
edge $-1 $350 -46.982388677859682 $354 46.982388677859682 $348 $411 forward 7 unknown #
straight-curve $-1 0 -46.982388677859682 -11.523138061112922 -1 0 0 I I #
vertex $-1 $253 $412 #
straight-curve $-1 0 46.982388677859682 -11.523138061112922 1 0 0 I I #
point $-1 67.954954680013429 46.982388677859682 -11.523138061112922 #
point $-1 67.954954680013429 -46.982388677859682 -11.523138061112922 #
straight-curve $-1 -67.954954680013429 0 11.523138061112922 0 -1 0 I I #
point $-1 -67.954954680013429 46.982388677859682 11.523138061112922 #
point $-1 -67.954954680013429 -46.982388677859682 11.523138061112922 #
straight-curve $-1 67.954954680013429 -46.982388677859682 0 0 0 -1 I I #
straight-curve $-1 67.954954680013429 46.982388677859682 0 0 0 -1 I I #
plane-surface $-1 0 46.982388677859682 0 0 -1 0 0 0 -1 forward_v I I I I #
coedge $-1 $374 $373 $276 $366 forward $271 $-1 #
straight-curve $-1 -57.61761634701196 -46.982388677859682 4.0335996088198636 0 0 1 I I #
edge $-1 $369 -46.982388677859682 $367 46.982388677859682 $364 $413 forward 7 unknown #
vertex $-1 $277 $414 #
straight-curve $-1 -31.393142756756347 -46.982388677859682 5.785676258593055 1 0 0 I I #
vertex $-1 $279 $415 #
straight-curve $-1 -31.393142756756347 46.982388677859682 5.785676258593055 -1 0 0 I I #
point $-1 -57.61761634701196 46.982388677859682 5.785676258593055 #
point $-1 -57.61761634701196 -46.982388677859682 5.785676258593055 #
coedge $-1 $364 $283 $286 $376 forward $271 $-1 #
coedge $-1 $283 $364 $290 $378 reversed $271 $-1 #
straight-curve $-1 -67.954954680013429 0 10.348722176686399 0 1 0 I I #
edge $-1 $288 -10.348722176686399 $369 -5.785676258593055 $286 $416 forward 7 unknown #
point $-1 -67.954954680013429 46.982388677859682 10.348722176686399 #
edge $-1 $291 -10.348722176686399 $367 -5.785676258593055 $374 $417 forward 7 unknown #
point $-1 -67.954954680013429 -46.982388677859682 10.348722176686399 #
straight-curve $-1 -57.61761634701196 46.982388677859682 4.0335996088198636 0 0 -1 I I #
coedge $-1 $385 $301 $298 $382 reversed $296 $-1 #
edge $-1 $390 -46.982388677859682 $383 -35.847472357743257 $381 $418 forward 7 unknown #
vertex $-1 $302 $419 #
straight-curve $-1 28.418456611300172 -35.847472357743257 11.523138061112922 -1 0 0 I I #
coedge $-1 $301 $381 $303 $387 forward $296 $-1 #
straight-curve $-1 67.954954680013429 -32.094975140808124 14.150664949988034 0 0.81915203911291934 0.57357644374324357 I I #
edge $-1 $390 -11.523138061112922 $304 -3.7263855666830343 $385 $420 forward 7 unknown #
point $-1 67.954954680013429 -46.982388677859682 3.7263855666830343 #
point $-1 45.718871765187252 -35.847472357743257 11.523138061112922 #
vertex $-1 $382 $421 #
straight-curve $-1 0 -46.982388677859682 11.523138061112922 1 0 0 I I #
vertex $-1 $313 $422 #
point $-1 54.072038312280441 -37.88836401301652 2.5883029861796998 #
vertex $-1 $317 $423 #
point $-1 63.601788132920234 -37.88836401301652 2.5883029861796998 #
edge $-1 $397 70.339245048469166 $400 78.908534547858466 $322 $424 forward 7 unknown #
vertex $-1 $336 $425 #
straight-curve $-1 61.483385322681585 42.55421404558372 11.523138061112917 0 1 0 I I #
edge $-1 $400 -36.747366521344063 $333 -12.724671081330982 $332 $426 forward 7 unknown #
vertex $-1 $399 $427 #
straight-curve $-1 61.483385322681585 -15.89231890633495 72.783287408902751 0 -0.66913059716165679 0.74314483375859142 I I #
point $-1 61.483385322681585 39.266565947885425 11.523138061112924 #
point $-1 37.460689882668504 46.982388677859682 2.9538485617236176 #
straight-curve $-1 0 46.982388677859682 11.523138061112922 -1 0 0 I I #
vertex $-1 $339 $428 #
point $-1 45.824317151243676 39.025466676276018 3.5477276484643276 #
vertex $-1 $343 $429 #
point $-1 56.119758054106427 39.025466676276018 3.5477276484643276 #
straight-curve $-1 -67.954954680013429 46.982388677859682 0 0 0 -1 I I #
point $-1 -67.954954680013429 -46.982388677859682 -11.523138061112922 #
straight-curve $-1 -67.954954680013429 0 -11.523138061112922 0 1 0 I I #
point $-1 -67.954954680013429 46.982388677859682 -11.523138061112922 #
straight-curve $-1 -67.954954680013429 0 5.785676258593055 0 -1 0 I I #
point $-1 -67.954954680013429 -46.982388677859682 5.785676258593055 #
point $-1 -67.954954680013429 46.982388677859682 5.785676258593055 #
straight-curve $-1 -67.954954680013429 46.982388677859682 0 0 0 -1 I I #
straight-curve $-1 -67.954954680013429 -46.982388677859682 0 0 0 -1 I I #
straight-curve $-1 67.954954680013429 0 11.523138061112922 0 1 0 I I #
point $-1 67.954954680013429 -35.847472357743257 11.523138061112922 #
straight-curve $-1 67.954954680013429 -46.982388677859682 0 0 0 -1 I I #
point $-1 67.954954680013429 -46.982388677859682 11.523138061112922 #
point $-1 52.072038312280441 -36.741211125530036 0.94999890795386099 #
point $-1 61.601788132920234 -36.741211125530036 0.94999890795386099 #
straight-curve $-1 61.483385322681585 46.982388677859682 81.862383109582083 0 0 -1 I I #
point $-1 61.483385322681585 46.982388677859682 11.523138061112922 #
straight-curve $-1 24.736018801337522 46.982388677859682 2.9538485617236176 -1 0 0 I I #
point $-1 61.483385322681585 46.982388677859682 2.9538485617236176 #
point $-1 44.324317151243676 37.910749425638137 2.5440317527218426 #
point $-1 54.619758054106427 37.910749425638137 2.5440317527218426 #
End-of-ACIS-data 