500 0 15 0           
7 Unknown 11 ACIS 5.0 NT 24 Fri Mar 26 16:33:08 1999 
-1 9.9999999999999995e-007 1e-010 
body $-1 $15 $-1 $16 #
body $-1 $17 $-1 $18 #
body $-1 $19 $-1 $20 #
body $-1 $21 $-1 $22 #
body $-1 $23 $-1 $24 #
body $-1 $25 $-1 $26 #
body $-1 $27 $-1 $28 #
body $-1 $29 $-1 $30 #
body $-1 $31 $-1 $32 #
body $-1 $33 $-1 $34 #
body $-1 $35 $-1 $36 #
body $-1 $37 $-1 $38 #
body $-1 $39 $-1 $40 #
body $-1 $41 $-1 $42 #
body $-1 $43 $-1 $44 #
lump $-1 $-1 $45 $0 #
transform $-1 1 0 0 0 1 0 0 0 1 47.771233252967924 29.905022365637802 9.2427482834413794 1 rotate no_reflect no_shear #
lump $-1 $-1 $46 $1 #
transform $-1 1 0 0 0 1 0 0 0 1 47.771233252967924 29.905022365637802 9.2427482834413794 1 rotate no_reflect no_shear #
lump $-1 $-1 $47 $2 #
transform $-1 1 0 0 0 1 0 0 0 1 47.771233252967924 29.905022365637802 9.2427482834413794 1 rotate no_reflect no_shear #
lump $-1 $-1 $48 $3 #
transform $-1 1 0 0 0 1 0 0 0 1 47.771233252967924 29.905022365637802 9.2427482834413794 1 rotate no_reflect no_shear #
lump $-1 $-1 $49 $4 #
transform $-1 1 0 0 0 1 0 0 0 1 47.771233252967924 29.905022365637802 9.2427482834413794 1 rotate no_reflect no_shear #
lump $-1 $-1 $50 $5 #
transform $-1 1 0 0 0 1 0 0 0 1 47.771233252967924 29.905022365637802 9.2427482834413794 1 rotate no_reflect no_shear #
lump $-1 $-1 $51 $6 #
transform $-1 1 0 0 0 1 0 0 0 1 47.771233252967924 29.905022365637802 9.2427482834413794 1 rotate no_reflect no_shear #
lump $-1 $-1 $52 $7 #
transform $-1 1 0 0 0 1 0 0 0 1 47.771233252967924 29.905022365637802 9.2427482834413794 1 rotate no_reflect no_shear #
lump $-1 $-1 $53 $8 #
transform $-1 1 0 0 0 1 0 0 0 1 47.771233252967924 29.905022365637802 9.2427482834413794 1 rotate no_reflect no_shear #
lump $-1 $-1 $54 $9 #
transform $-1 1 0 0 0 1 0 0 0 1 47.771233252967924 29.905022365637802 9.2427482834413794 1 rotate no_reflect no_shear #
lump $-1 $-1 $55 $10 #
transform $-1 1 0 0 0 1 0 0 0 1 47.771233252967924 29.905022365637802 9.2427482834413794 1 rotate no_reflect no_shear #
lump $-1 $-1 $56 $11 #
transform $-1 1 0 0 0 1 0 0 0 1 47.771233252967924 29.905022365637802 9.2427482834413794 1 rotate no_reflect no_shear #
lump $-1 $-1 $57 $12 #
transform $-1 1 0 0 0 1 0 0 0 1 47.771233252967924 29.905022365637802 9.2427482834413794 1 rotate no_reflect no_shear #
lump $-1 $-1 $58 $13 #
transform $-1 1 0 0 0 1 0 0 0 1 47.771233252967924 29.905022365637802 9.2427482834413794 1 rotate no_reflect no_shear #
lump $-1 $-1 $59 $14 #
transform $-1 1 0 0 0 1 0 0 0 1 47.771233252967924 29.905022365637802 9.2427482834413794 1 rotate no_reflect no_shear #
shell $-1 $-1 $-1 $60 $-1 $15 #
shell $-1 $-1 $-1 $61 $-1 $17 #
shell $-1 $-1 $-1 $62 $-1 $19 #
shell $-1 $-1 $-1 $63 $-1 $21 #
shell $-1 $-1 $-1 $64 $-1 $23 #
shell $-1 $-1 $-1 $65 $-1 $25 #
shell $-1 $-1 $-1 $66 $-1 $27 #
shell $-1 $-1 $-1 $67 $-1 $29 #
shell $-1 $-1 $-1 $68 $-1 $31 #
shell $-1 $-1 $-1 $69 $-1 $33 #
shell $-1 $-1 $-1 $70 $-1 $35 #
shell $-1 $-1 $-1 $71 $-1 $37 #
shell $-1 $-1 $-1 $72 $-1 $39 #
shell $-1 $-1 $-1 $73 $-1 $41 #
shell $-1 $-1 $-1 $74 $-1 $43 #
face $-1 $75 $76 $45 $-1 $77 forward single #
face $-1 $78 $79 $46 $-1 $80 reversed single #
face $-1 $81 $82 $47 $-1 $83 forward single #
face $-1 $84 $85 $48 $-1 $86 reversed single #
face $-1 $87 $88 $49 $-1 $89 forward single #
face $-1 $90 $91 $50 $-1 $92 reversed single #
face $-1 $93 $94 $51 $-1 $95 forward single #
face $-1 $96 $97 $52 $-1 $98 reversed single #
face $-1 $99 $100 $53 $-1 $101 forward single #
face $-1 $102 $103 $54 $-1 $104 reversed single #
face $-1 $105 $106 $55 $-1 $107 forward single #
face $-1 $108 $109 $56 $-1 $110 forward single #
face $-1 $111 $112 $57 $-1 $113 reversed single #
face $-1 $114 $115 $58 $-1 $116 forward single #
face $-1 $117 $118 $59 $-1 $119 forward single #
face $-1 $120 $121 $45 $-1 $122 reversed single #
loop $-1 $-1 $123 $60 #
plane-surface $-1 0 0 9.2427482834413794 0 0 1 1 0 0 forward_v I I I I #
face $-1 $124 $125 $46 $-1 $126 reversed single #
loop $-1 $-1 $127 $61 #
plane-surface $-1 -31.483506603024022 -86.063475862934297 79.424342036465532 -1 0 0 0 -0.5877852598018023 0.80901698891910034 forward_v I I I I #
face $-1 $128 $129 $47 $-1 $130 forward single #
loop $-1 $131 $132 $62 #
cone-surface $-1 -38.416764793845445 -23.509272207357583 3.621179311928338 0 0.5877852598018023 -0.80901698891910034 1.5 0 0 1 I I 0 1 1.5 forward I I I I #
face $-1 $133 $134 $48 $-1 $135 reversed single #
loop $-1 $-1 $136 $63 #
plane-surface $-1 -7.5978899765400634 -86.063475862934297 79.424342036465532 -1 0 0 0 -0.5877852598018023 0.80901698891910034 forward_v I I I I #
face $-1 $137 $138 $49 $-1 $139 forward single #
loop $-1 $140 $141 $64 #
cone-surface $-1 -14.531148167361486 -23.509272207357583 3.621179311928338 0 0.5877852598018023 -0.80901698891910034 1.5 0 0 1 I I 0 1 1.5 forward I I I I #
face $-1 $142 $143 $50 $-1 $144 reversed single #
loop $-1 $-1 $145 $65 #
plane-surface $-1 16.287726649943902 -86.063475862934297 79.424342036465532 -1 0 0 0 -0.5877852598018023 0.80901698891910034 forward_v I I I I #
face $-1 $146 $147 $51 $-1 $148 forward single #
loop $-1 $149 $150 $66 #
cone-surface $-1 9.3544684591224794 -23.509272207357583 3.621179311928338 0 0.5877852598018023 -0.80901698891910034 1.5 0 0 1 I I 0 1 1.5 forward I I I I #
face $-1 $151 $152 $52 $-1 $153 reversed single #
loop $-1 $-1 $154 $67 #
plane-surface $-1 40.173343276427872 -86.063475862934297 79.424342036465532 -1 0 0 0 -0.5877852598018023 0.80901698891910034 forward_v I I I I #
face $-1 $155 $156 $53 $-1 $157 forward single #
loop $-1 $158 $159 $68 #
cone-surface $-1 33.240085085606445 -23.509272207357583 3.621179311928338 0 0.5877852598018023 -0.80901698891910034 1.5 0 0 1 I I 0 1 1.5 forward I I I I #
face $-1 $160 $161 $54 $-1 $162 reversed single #
loop $-1 $-1 $163 $69 #
plane-surface $-1 -11.381587077220065 84.471862918606845 104.72490250618762 1 0 0 0 -0.87461971476443456 -0.48480960649040278 forward_v I I I I #
face $-1 $164 $165 $55 $-1 $166 forward single #
loop $-1 $167 $168 $70 #
cone-surface $-1 -8.1297050551571886 28.263400400401537 7.2421317015494511 0 -0.87461971476443456 -0.48480960649040278 0.5 0 0 1 I I 0 1 0.5 forward I I I I #
face $-1 $169 $170 $56 $-1 $171 forward single #
loop $-1 $172 $173 $71 #
cone-surface $-1 -3.2518820220628726 28.263400400401537 7.2421317015494511 0 -0.87461971476443456 -0.48480960649040278 0.5 0 0 1 I I 0 1 0.5 forward I I I I #
face $-1 $174 $175 $57 $-1 $176 reversed single #
loop $-1 $-1 $177 $72 #
plane-surface $-1 -5.6907935386100306 0.90853811529468942 58.404996916322375 0 0.87461971476443456 0.48480960649040278 1 0 0 forward_v I I I I #
face $-1 $178 $179 $58 $-1 $180 forward single #
loop $-1 $181 $182 $73 #
cone-surface $-1 3.2518820220628726 28.263400400401537 7.2421317015494511 0 -0.87461971476443456 -0.48480960649040278 0.5 0 0 1 I I 0 1 0.5 forward I I I I #
face $-1 $183 $184 $59 $-1 $185 forward single #
loop $-1 $186 $187 $74 #
cone-surface $-1 8.1297050551571886 28.263400400401537 7.2421317015494511 0 -0.87461971476443456 -0.48480960649040278 0.5 0 0 1 I I 0 1 0.5 forward I I I I #
face $-1 $188 $189 $45 $-1 $190 reversed single #
loop $-1 $-1 $191 $75 #
plane-surface $-1 0 0 -9.2427482834413794 0 0 1 1 0 0 forward_v I I I I #
coedge $-1 $192 $193 $194 $195 forward $76 $-1 #
face $-1 $196 $197 $46 $-1 $198 reversed single #
loop $-1 $-1 $199 $78 #
plane-surface $-1 -38.416764793845445 -29.905022365637798 2.1288634699293141 0 -0.5877852598018023 0.80901698891910034 1 0 0 forward_v I I I I #
coedge $-1 $200 $201 $202 $203 reversed $79 $-1 #
face $-1 $-1 $204 $47 $-1 $205 forward single #
loop $-1 $206 $207 $81 #
cone-surface $-1 -38.416764793845445 -21.568394229480738 0.94979000548200077 0 0.5877852598018023 -0.80901698891910034 0.75 0 0 1 I I -0.70710678118654757 0.70710678118654757 0.75 forward I I I I #
loop $-1 $-1 $208 $62 #
coedge $-1 $132 $132 $209 $210 reversed $82 $-1 #
face $-1 $211 $212 $48 $-1 $213 reversed single #
loop $-1 $-1 $214 $84 #
plane-surface $-1 -14.531148167361486 -29.905022365637798 2.1288634699293141 0 -0.5877852598018023 0.80901698891910034 1 0 0 forward_v I I I I #
coedge $-1 $215 $216 $217 $218 reversed $85 $-1 #
face $-1 $-1 $219 $49 $-1 $220 forward single #
loop $-1 $221 $222 $87 #
cone-surface $-1 -14.531148167361486 -21.568394229480738 0.94979000548200077 0 0.5877852598018023 -0.80901698891910034 0.75 0 0 1 I I -0.70710678118654757 0.70710678118654757 0.75 forward I I I I #
loop $-1 $-1 $223 $64 #
coedge $-1 $141 $141 $224 $225 reversed $88 $-1 #
face $-1 $226 $227 $50 $-1 $228 reversed single #
loop $-1 $-1 $229 $90 #
plane-surface $-1 9.3544684591224794 -29.905022365637798 2.1288634699293141 0 -0.5877852598018023 0.80901698891910034 1 0 0 forward_v I I I I #
coedge $-1 $230 $231 $232 $233 reversed $91 $-1 #
face $-1 $-1 $234 $51 $-1 $235 forward single #
loop $-1 $236 $237 $93 #
cone-surface $-1 9.3544684591224794 -21.568394229480738 0.94979000548200077 0 0.5877852598018023 -0.80901698891910034 0.75 0 0 1 I I -0.70710678118654757 0.70710678118654757 0.75 forward I I I I #
loop $-1 $-1 $238 $66 #
coedge $-1 $150 $150 $239 $240 reversed $94 $-1 #
face $-1 $241 $242 $52 $-1 $243 reversed single #
loop $-1 $-1 $244 $96 #
plane-surface $-1 33.240085085606445 -29.905022365637798 2.1288634699293141 0 -0.5877852598018023 0.80901698891910034 1 0 0 forward_v I I I I #
coedge $-1 $245 $246 $247 $248 reversed $97 $-1 #
face $-1 $-1 $249 $53 $-1 $250 forward single #
loop $-1 $251 $252 $99 #
cone-surface $-1 33.240085085606445 -21.568394229480738 0.94979000548200077 0 0.5877852598018023 -0.80901698891910034 0.75 0 0 1 I I -0.70710678118654757 0.70710678118654757 0.75 forward I I I I #
loop $-1 $-1 $253 $68 #
coedge $-1 $159 $159 $254 $255 reversed $100 $-1 #
face $-1 $256 $257 $54 $-1 $258 reversed single #
loop $-1 $-1 $259 $102 #
plane-surface $-1 -5.6907935386100306 0.90853811529468942 58.404996916322375 0 0.87461971476443456 0.48480960649040278 1 0 0 forward_v I I I I #
coedge $-1 $260 $261 $262 $263 reversed $103 $-1 #
face $-1 $-1 $264 $55 $-1 $265 forward single #
loop $-1 $266 $267 $105 #
cone-surface $-1 -8.1297050551571886 27.275826433555604 6.6947105330525858 0 -0.87461971476443456 -0.48480960649040278 0.25 0 0 1 I I -0.70710678118654746 0.70710678118654746 0.25 forward I I I I #
loop $-1 $-1 $268 $70 #
coedge $-1 $168 $168 $269 $270 reversed $106 $-1 #
face $-1 $-1 $271 $56 $-1 $272 forward single #
loop $-1 $273 $274 $108 #
cone-surface $-1 -3.2518820220628726 27.275826433555604 6.6947105330525858 0 -0.87461971476443456 -0.48480960649040278 0.25 0 0 1 I I -0.70710678118654746 0.70710678118654746 0.25 forward I I I I #
loop $-1 $-1 $275 $71 #
coedge $-1 $173 $173 $276 $277 reversed $109 $-1 #
face $-1 $278 $279 $57 $-1 $280 forward single #
loop $-1 $-1 $281 $111 #
plane-surface $-1 11.381587077220065 84.471862918606845 104.72490250618762 -1 0 0 0 0.87461971476443456 0.48480960649040278 forward_v I I I I #
coedge $-1 $282 $283 $284 $285 reversed $112 $-1 #
face $-1 $-1 $286 $58 $-1 $287 forward single #
loop $-1 $288 $289 $114 #
cone-surface $-1 3.2518820220628726 27.275826433555604 6.6947105330525858 0 -0.87461971476443456 -0.48480960649040278 0.25 0 0 1 I I -0.70710678118654746 0.70710678118654746 0.25 forward I I I I #
loop $-1 $-1 $290 $73 #
coedge $-1 $182 $182 $291 $292 reversed $115 $-1 #
face $-1 $-1 $293 $59 $-1 $294 forward single #
loop $-1 $295 $296 $117 #
cone-surface $-1 8.1297050551571886 27.275826433555604 6.6947105330525858 0 -0.87461971476443456 -0.48480960649040278 0.25 0 0 1 I I -0.70710678118654746 0.70710678118654746 0.25 forward I I I I #
loop $-1 $-1 $297 $74 #
coedge $-1 $187 $187 $298 $299 reversed $118 $-1 #
face $-1 $300 $301 $45 $-1 $302 reversed single #
loop $-1 $-1 $303 $120 #
plane-surface $-1 0 -29.905022365637802 0 0 1 0 0 0 1 forward_v I I I I #
coedge $-1 $304 $305 $306 $307 forward $121 $-1 #
coedge $-1 $308 $123 $309 $310 forward $76 $-1 #
coedge $-1 $123 $308 $311 $312 forward $76 $-1 #
coedge $-1 $313 $314 $123 $195 reversed $315 $-1 #
edge $-1 $316 -29.905022365637802 $317 29.905022365637802 $194 $318 forward 7 unknown #
face $-1 $319 $320 $46 $-1 $321 reversed single #
loop $-1 $-1 $322 $124 #
plane-surface $-1 -45.350022984666865 -86.063475862934297 79.424342036465532 1 0 0 0 0.5877852598018023 -0.80901698891910034 forward_v I I I I #
coedge $-1 $323 $324 $325 $326 reversed $125 $-1 #
coedge $-1 $201 $127 $327 $328 reversed $79 $-1 #
coedge $-1 $127 $200 $323 $329 reversed $79 $-1 #
coedge $-1 $325 $330 $127 $203 forward $331 $-1 #
edge $-1 $332 13.126715565829347 $333 22.918137816338803 $202 $334 forward 7 unknown #
loop $-1 $-1 $209 $128 #
plane-surface $-1 -38.416764793845445 -29.905022365637798 2.1288634699293141 0 -0.5877852598018023 0.80901698891910034 1 0 0 forward_v I I I I #
loop $-1 $-1 $335 $81 #
coedge $-1 $207 $207 $208 $336 reversed $129 $-1 #
coedge $-1 $208 $208 $207 $336 forward $131 $-1 #
coedge $-1 $209 $209 $132 $210 forward $204 $-1 #
edge $-1 $337 1.7401939439126411e-015 $337 6.2831853071796022 $209 $338 forward 7 unknown #
face $-1 $339 $340 $48 $-1 $341 reversed single #
loop $-1 $-1 $342 $133 #
plane-surface $-1 -21.464406358182909 -86.063475862934297 79.424342036465532 1 0 0 0 0.5877852598018023 -0.80901698891910034 forward_v I I I I #
coedge $-1 $343 $344 $345 $346 reversed $134 $-1 #
coedge $-1 $216 $136 $347 $348 reversed $85 $-1 #
coedge $-1 $136 $215 $343 $349 reversed $85 $-1 #
coedge $-1 $345 $350 $136 $218 forward $351 $-1 #
edge $-1 $352 13.126715565829347 $353 22.918137816338803 $217 $354 forward 7 unknown #
loop $-1 $-1 $224 $137 #
plane-surface $-1 -14.531148167361486 -29.905022365637798 2.1288634699293141 0 -0.5877852598018023 0.80901698891910034 1 0 0 forward_v I I I I #
loop $-1 $-1 $355 $87 #
coedge $-1 $222 $222 $223 $356 reversed $138 $-1 #
coedge $-1 $223 $223 $222 $356 forward $140 $-1 #
coedge $-1 $224 $224 $141 $225 forward $219 $-1 #
edge $-1 $357 1.7401939439126411e-015 $357 6.2831853071796022 $224 $358 forward 7 unknown #
face $-1 $359 $360 $50 $-1 $361 reversed single #
loop $-1 $-1 $362 $142 #
plane-surface $-1 2.4212102683010563 -86.063475862934297 79.424342036465532 1 0 0 0 0.5877852598018023 -0.80901698891910034 forward_v I I I I #
coedge $-1 $363 $364 $365 $366 reversed $143 $-1 #
coedge $-1 $231 $145 $367 $368 reversed $91 $-1 #
coedge $-1 $145 $230 $363 $369 reversed $91 $-1 #
coedge $-1 $365 $370 $145 $233 forward $371 $-1 #
edge $-1 $372 13.126715565829347 $373 22.918137816338803 $232 $374 forward 7 unknown #
loop $-1 $-1 $239 $146 #
plane-surface $-1 9.3544684591224794 -29.905022365637798 2.1288634699293141 0 -0.5877852598018023 0.80901698891910034 1 0 0 forward_v I I I I #
loop $-1 $-1 $375 $93 #
coedge $-1 $237 $237 $238 $376 reversed $147 $-1 #
coedge $-1 $238 $238 $237 $376 forward $149 $-1 #
coedge $-1 $239 $239 $150 $240 forward $234 $-1 #
edge $-1 $377 1.7401939439126411e-015 $377 6.2831853071796022 $239 $378 forward 7 unknown #
face $-1 $379 $380 $52 $-1 $381 reversed single #
loop $-1 $-1 $382 $151 #
plane-surface $-1 26.306826894785022 -86.063475862934297 79.424342036465532 1 0 0 0 0.5877852598018023 -0.80901698891910034 forward_v I I I I #
coedge $-1 $383 $384 $385 $386 reversed $152 $-1 #
coedge $-1 $246 $154 $387 $388 reversed $97 $-1 #
coedge $-1 $154 $245 $383 $389 reversed $97 $-1 #
coedge $-1 $385 $390 $154 $248 forward $391 $-1 #
edge $-1 $392 13.126715565829347 $393 22.918137816338803 $247 $394 forward 7 unknown #
loop $-1 $-1 $254 $155 #
plane-surface $-1 33.240085085606445 -29.905022365637798 2.1288634699293141 0 -0.5877852598018023 0.80901698891910034 1 0 0 forward_v I I I I #
loop $-1 $-1 $395 $99 #
coedge $-1 $252 $252 $253 $396 reversed $156 $-1 #
coedge $-1 $253 $253 $252 $396 forward $158 $-1 #
coedge $-1 $254 $254 $159 $255 forward $249 $-1 #
edge $-1 $397 1.7401939439126411e-015 $397 6.2831853071796022 $254 $398 forward 7 unknown #
face $-1 $399 $400 $54 $-1 $401 reversed single #
loop $-1 $-1 $402 $160 #
plane-surface $-1 3.5527136788005009e-015 84.471862918606845 104.72490250618762 -1 0 0 0 0.87461971476443456 0.48480960649040278 forward_v I I I I #
coedge $-1 $403 $404 $405 $406 reversed $161 $-1 #
coedge $-1 $261 $163 $407 $408 reversed $103 $-1 #
coedge $-1 $163 $260 $403 $409 reversed $103 $-1 #
coedge $-1 $405 $410 $163 $263 forward $411 $-1 #
edge $-1 $412 12.330909093665621 $413 14.076314947828525 $262 $414 forward 7 unknown #
loop $-1 $-1 $269 $164 #
plane-surface $-1 -5.6907935386100306 0.90853811529468942 58.404996916322375 0 0.87461971476443456 0.48480960649040278 1 0 0 forward_v I I I I #
loop $-1 $-1 $415 $105 #
coedge $-1 $267 $267 $268 $416 reversed $165 $-1 #
coedge $-1 $268 $268 $267 $416 forward $167 $-1 #
coedge $-1 $269 $269 $168 $270 forward $264 $-1 #
edge $-1 $417 -2.0947553740147445e-015 $417 6.2831853071795987 $269 $418 forward 7 unknown #
loop $-1 $-1 $276 $169 #
plane-surface $-1 -5.6907935386100306 0.90853811529468942 58.404996916322375 0 0.87461971476443456 0.48480960649040278 1 0 0 forward_v I I I I #
loop $-1 $-1 $419 $108 #
coedge $-1 $274 $274 $275 $420 reversed $170 $-1 #
coedge $-1 $275 $275 $274 $420 forward $172 $-1 #
coedge $-1 $276 $276 $173 $277 forward $271 $-1 #
edge $-1 $421 -2.0947553740147445e-015 $421 6.2831853071795987 $276 $422 forward 7 unknown #
face $-1 $423 $424 $57 $-1 $425 forward single #
loop $-1 $-1 $426 $174 #
plane-surface $-1 0 0 9.2427482834413794 0 0 1 1 0 0 forward_v I I I I #
coedge $-1 $427 $428 $429 $430 reversed $175 $-1 #
coedge $-1 $431 $177 $432 $433 reversed $112 $-1 #
coedge $-1 $177 $431 $426 $434 reversed $112 $-1 #
coedge $-1 $435 $436 $177 $285 forward $424 $-1 #
edge $-1 $437 -59.810044731275603 $438 -56.209856470159835 $284 $439 forward 7 unknown #
loop $-1 $-1 $291 $178 #
plane-surface $-1 -5.6907935386100306 0.90853811529468942 58.404996916322375 0 0.87461971476443456 0.48480960649040278 1 0 0 forward_v I I I I #
loop $-1 $-1 $440 $114 #
coedge $-1 $289 $289 $290 $441 reversed $179 $-1 #
coedge $-1 $290 $290 $289 $441 forward $181 $-1 #
coedge $-1 $291 $291 $182 $292 forward $286 $-1 #
edge $-1 $442 -2.0947553740147445e-015 $442 6.2831853071795987 $291 $443 forward 7 unknown #
loop $-1 $-1 $298 $183 #
plane-surface $-1 -5.6907935386100306 0.90853811529468942 58.404996916322375 0 0.87461971476443456 0.48480960649040278 1 0 0 forward_v I I I I #
loop $-1 $-1 $444 $117 #
coedge $-1 $296 $296 $297 $445 reversed $184 $-1 #
coedge $-1 $297 $297 $296 $445 forward $186 $-1 #
coedge $-1 $298 $298 $187 $299 forward $293 $-1 #
edge $-1 $446 -2.0947553740147445e-015 $446 6.2831853071795987 $298 $447 forward 7 unknown #
face $-1 $448 $449 $45 $-1 $450 reversed single #
loop $-1 $-1 $451 $188 #
plane-surface $-1 -47.771233252967924 0 0 1 0 0 0 0 -1 forward_v I I I I #
coedge $-1 $452 $311 $453 $454 forward $189 $-1 #
coedge $-1 $455 $191 $452 $456 forward $121 $-1 #
coedge $-1 $191 $455 $457 $458 forward $121 $-1 #
coedge $-1 $314 $313 $191 $307 reversed $315 $-1 #
edge $-1 $459 -29.905022365637802 $460 29.905022365637802 $306 $461 forward 7 unknown #
coedge $-1 $193 $192 $462 $463 forward $76 $-1 #
coedge $-1 $464 $465 $192 $310 reversed $449 $-1 #
edge $-1 $317 -47.771233252967924 $466 47.771233252967924 $309 $467 forward 7 unknown #
coedge $-1 $303 $468 $193 $312 reversed $189 $-1 #
edge $-1 $469 -47.771233252967924 $316 47.771233252967924 $311 $470 forward 7 unknown #
coedge $-1 $306 $194 $468 $471 forward $315 $-1 #
coedge $-1 $194 $306 $464 $472 reversed $315 $-1 #
loop $-1 $-1 $313 $448 #
vertex $-1 $195 $473 #
vertex $-1 $195 $474 #
straight-curve $-1 47.771233252967924 0 9.2427482834413794 0 1 0 I I #
face $-1 $-1 $331 $46 $-1 $475 forward single #
loop $-1 $-1 $476 $196 #
plane-surface $-1 0 -29.905022365637802 0 0 1 0 0 0 1 forward_v I I I I #
coedge $-1 $477 $478 $479 $480 reversed $197 $-1 #
coedge $-1 $481 $199 $201 $329 forward $125 $-1 #
coedge $-1 $199 $481 $477 $482 forward $125 $-1 #
coedge $-1 $479 $202 $199 $326 forward $331 $-1 #
edge $-1 $333 12.2751242061013 $483 26.141640587744142 $325 $484 forward 7 unknown #
coedge $-1 $485 $486 $200 $328 forward $320 $-1 #
edge $-1 $487 -37.583307548303452 $332 -30.469422734791387 $327 $488 forward 7 unknown #
edge $-1 $333 -12.102863579652922 $487 4.4403802724362578e-015 $201 $489 forward 7 unknown #
coedge $-1 $202 $479 $485 $490 forward $331 $-1 #
loop $-1 $-1 $479 $319 #
vertex $-1 $328 $491 #
vertex $-1 $203 $492 #
straight-curve $-1 -31.483506603024022 -43.031737931467148 9.2427482834413794 0 1 0 I I #
coedge $-1 $335 $335 $-1 $493 reversed $206 $-1 #
edge $-1 $494 0 $494 6.2831853071796004 $207 $495 forward 7 unknown #
vertex $-1 $210 $496 #
ellipse-curve $-1 -38.416764793845445 -25.009311240383074 5.6858058766853459 0 -0.5877852598018023 0.80901698891910034 1.5 0 0 1 I I #
face $-1 $-1 $351 $48 $-1 $497 forward single #
loop $-1 $-1 $498 $211 #
plane-surface $-1 0 -29.905022365637802 0 0 1 0 0 0 1 forward_v I I I I #
coedge $-1 $499 $500 $501 $502 reversed $212 $-1 #
coedge $-1 $503 $214 $216 $349 forward $134 $-1 #
coedge $-1 $214 $503 $499 $504 forward $134 $-1 #
coedge $-1 $501 $217 $214 $346 forward $351 $-1 #
edge $-1 $353 0.33231589285932017 $505 14.198832274502166 $345 $506 forward 7 unknown #
coedge $-1 $507 $508 $215 $348 forward $340 $-1 #
edge $-1 $509 -37.583307548303452 $352 -30.469422734791387 $347 $510 forward 7 unknown #
edge $-1 $353 -12.102863579652922 $509 4.4403802724362578e-015 $216 $511 forward 7 unknown #
coedge $-1 $217 $501 $507 $512 forward $351 $-1 #
loop $-1 $-1 $501 $339 #
vertex $-1 $348 $513 #
vertex $-1 $218 $514 #
straight-curve $-1 -7.5978899765400634 -43.031737931467148 9.2427482834413794 0 1 0 I I #
coedge $-1 $355 $355 $-1 $515 reversed $221 $-1 #
edge $-1 $516 0 $516 6.2831853071796004 $222 $517 forward 7 unknown #
vertex $-1 $225 $518 #
ellipse-curve $-1 -14.531148167361486 -25.009311240383074 5.6858058766853459 0 -0.5877852598018023 0.80901698891910034 1.5 0 0 1 I I #
face $-1 $-1 $371 $50 $-1 $519 forward single #
loop $-1 $-1 $520 $226 #
plane-surface $-1 0 -29.905022365637802 0 0 1 0 0 0 1 forward_v I I I I #
coedge $-1 $521 $522 $523 $524 reversed $227 $-1 #
coedge $-1 $525 $229 $231 $369 forward $143 $-1 #
coedge $-1 $229 $525 $521 $526 forward $143 $-1 #
coedge $-1 $523 $232 $229 $366 forward $371 $-1 #
edge $-1 $373 -11.610492420382663 $527 2.2560239612601833 $365 $528 forward 7 unknown #
coedge $-1 $529 $530 $230 $368 forward $360 $-1 #
edge $-1 $531 -37.583307548303452 $372 -30.469422734791387 $367 $532 forward 7 unknown #
edge $-1 $373 -12.102863579652922 $531 4.4403802724362578e-015 $231 $533 forward 7 unknown #
coedge $-1 $232 $523 $529 $534 forward $371 $-1 #
loop $-1 $-1 $523 $359 #
vertex $-1 $368 $535 #
vertex $-1 $233 $536 #
straight-curve $-1 16.287726649943902 -43.031737931467148 9.2427482834413794 0 1 0 I I #
coedge $-1 $375 $375 $-1 $537 reversed $236 $-1 #
edge $-1 $538 0 $538 6.2831853071796004 $237 $539 forward 7 unknown #
vertex $-1 $240 $540 #
ellipse-curve $-1 9.3544684591224794 -25.009311240383074 5.6858058766853459 0 -0.5877852598018023 0.80901698891910034 1.5 0 0 1 I I #
face $-1 $-1 $391 $52 $-1 $541 forward single #
loop $-1 $-1 $542 $241 #
plane-surface $-1 0 -29.905022365637802 0 0 1 0 0 0 1 forward_v I I I I #
coedge $-1 $543 $544 $545 $546 reversed $242 $-1 #
coedge $-1 $547 $244 $246 $389 forward $152 $-1 #
coedge $-1 $244 $547 $543 $548 forward $152 $-1 #
coedge $-1 $545 $247 $244 $386 forward $391 $-1 #
edge $-1 $393 -23.553300733624649 $549 -9.6867843519817995 $385 $550 forward 7 unknown #
coedge $-1 $551 $552 $245 $388 forward $380 $-1 #
edge $-1 $553 -37.583307548303452 $392 -30.469422734791387 $387 $554 forward 7 unknown #
edge $-1 $393 -12.102863579652922 $553 4.4403802724362578e-015 $246 $555 forward 7 unknown #
coedge $-1 $247 $545 $551 $556 forward $391 $-1 #
loop $-1 $-1 $545 $379 #
vertex $-1 $388 $557 #
vertex $-1 $248 $558 #
straight-curve $-1 40.173343276427872 -43.031737931467148 9.2427482834413794 0 1 0 I I #
coedge $-1 $395 $395 $-1 $559 reversed $251 $-1 #
edge $-1 $560 0 $560 6.2831853071796004 $252 $561 forward 7 unknown #
vertex $-1 $255 $562 #
ellipse-curve $-1 33.240085085606445 -25.009311240383074 5.6858058766853459 0 -0.5877852598018023 0.80901698891910034 1.5 0 0 1 I I #
face $-1 $-1 $411 $54 $-1 $563 forward single #
loop $-1 $-1 $564 $256 #
plane-surface $-1 0 29.905022365637802 0 0 -1 0 0 0 -1 forward_v I I I I #
coedge $-1 $565 $566 $567 $568 reversed $257 $-1 #
coedge $-1 $569 $259 $261 $409 forward $161 $-1 #
coedge $-1 $259 $569 $565 $570 forward $161 $-1 #
coedge $-1 $567 $262 $259 $406 forward $411 $-1 #
edge $-1 $413 -8.5361903079150494 $571 2.8453967693050188 $405 $572 forward 7 unknown #
coedge $-1 $573 $574 $260 $408 forward $400 $-1 #
edge $-1 $575 -46.268498599687774 $412 -43.11970296965243 $407 $576 forward 7 unknown #
edge $-1 $413 56.209856470159835 $575 59.810044731275603 $261 $577 forward 7 unknown #
coedge $-1 $262 $567 $573 $578 forward $411 $-1 #
loop $-1 $-1 $567 $399 #
vertex $-1 $408 $579 #
vertex $-1 $263 $580 #
straight-curve $-1 -11.381587077220065 42.235931459303423 9.2427482834413794 0 -1 0 I I #
coedge $-1 $415 $415 $-1 $581 reversed $266 $-1 #
edge $-1 $582 0 $582 6.2831853071796004 $267 $583 forward 7 unknown #
vertex $-1 $270 $584 #
ellipse-curve $-1 -8.1297050551571886 29.032319438556346 7.6683504684237089 0 0.87461971476443456 0.48480960649040278 0.5 0 0 1 I I #
coedge $-1 $419 $419 $-1 $585 reversed $273 $-1 #
edge $-1 $586 0 $586 6.2831853071796004 $274 $587 forward 7 unknown #
vertex $-1 $277 $588 #
ellipse-curve $-1 -3.2518820220628726 29.032319438556346 7.6683504684237089 0 0.87461971476443456 0.48480960649040278 0.5 0 0 1 I I #
face $-1 $-1 $589 $57 $-1 $590 reversed single #
loop $-1 $-1 $435 $278 #
plane-surface $-1 3.5527136788005009e-015 84.471862918606845 104.72490250618762 -1 0 0 0 0.87461971476443456 0.48480960649040278 forward_v I I I I #
coedge $-1 $429 $591 $283 $434 forward $279 $-1 #
coedge $-1 $428 $281 $431 $592 reversed $175 $-1 #
coedge $-1 $281 $427 $593 $594 reversed $175 $-1 #
coedge $-1 $595 $426 $281 $430 forward $279 $-1 #
edge $-1 $596 -14.076314947828525 $597 -12.330909093665621 $429 $598 forward 7 unknown #
coedge $-1 $283 $282 $427 $592 forward $112 $-1 #
coedge $-1 $599 $593 $282 $433 forward $589 $-1 #
edge $-1 $600 -14.22698384652508 $437 -2.8453967693050188 $432 $601 forward 7 unknown #
edge $-1 $438 2.8453967693050188 $596 14.22698384652508 $426 $602 forward 7 unknown #
coedge $-1 $436 $284 $591 $603 reversed $424 $-1 #
coedge $-1 $284 $435 $599 $604 reversed $424 $-1 #
vertex $-1 $433 $605 #
vertex $-1 $434 $606 #
straight-curve $-1 3.5527136788005009e-015 0.90853811529468942 58.404996916322375 0 -0.48480960649040278 0.87461971476443456 I I #
coedge $-1 $440 $440 $-1 $607 reversed $288 $-1 #
edge $-1 $608 0 $608 6.2831853071796004 $289 $609 forward 7 unknown #
vertex $-1 $292 $610 #
ellipse-curve $-1 3.2518820220628726 29.032319438556346 7.6683504684237089 0 0.87461971476443456 0.48480960649040278 0.5 0 0 1 I I #
coedge $-1 $444 $444 $-1 $611 reversed $295 $-1 #
edge $-1 $612 0 $612 6.2831853071796004 $296 $613 forward 7 unknown #
vertex $-1 $299 $614 #
ellipse-curve $-1 8.1297050551571886 29.032319438556346 7.6683504684237089 0 0.87461971476443456 0.48480960649040278 0.5 0 0 1 I I #
face $-1 $-1 $315 $45 $-1 $615 reversed single #
loop $-1 $-1 $464 $300 #
plane-surface $-1 0 29.905022365637802 0 0 -1 0 0 0 -1 forward_v I I I I #
coedge $-1 $616 $462 $465 $617 forward $301 $-1 #
coedge $-1 $468 $303 $304 $456 reversed $189 $-1 #
coedge $-1 $462 $616 $303 $454 reversed $301 $-1 #
edge $-1 $469 -9.2427482834413794 $618 9.2427482834413794 $453 $619 forward 7 unknown #
coedge $-1 $305 $304 $616 $620 forward $121 $-1 #
edge $-1 $460 -47.771233252967924 $618 47.771233252967924 $452 $621 forward 7 unknown #
coedge $-1 $465 $464 $305 $458 reversed $449 $-1 #
edge $-1 $622 -47.771233252967924 $459 47.771233252967924 $457 $623 forward 7 unknown #
vertex $-1 $307 $624 #
vertex $-1 $471 $625 #
straight-curve $-1 47.771233252967924 0 -9.2427482834413794 0 -1 0 I I #
coedge $-1 $451 $453 $308 $463 reversed $301 $-1 #
edge $-1 $466 -29.905022365637802 $469 29.905022365637802 $462 $626 forward 7 unknown #
coedge $-1 $457 $309 $314 $472 forward $449 $-1 #
coedge $-1 $309 $457 $451 $617 reversed $449 $-1 #
vertex $-1 $310 $627 #
straight-curve $-1 0 29.905022365637802 9.2427482834413794 -1 0 0 I I #
coedge $-1 $311 $452 $313 $471 reversed $189 $-1 #
vertex $-1 $463 $628 #
straight-curve $-1 0 -29.905022365637802 9.2427482834413794 1 0 0 I I #
edge $-1 $316 -9.2427482834413794 $460 9.2427482834413794 $313 $629 forward 7 unknown #
edge $-1 $317 -9.2427482834413794 $459 9.2427482834413794 $314 $630 forward 7 unknown #
point $-1 47.771233252967924 -29.905022365637802 9.2427482834413794 #
point $-1 47.771233252967924 29.905022365637802 9.2427482834413794 #
plane-surface $-1 0 0 9.2427482834413794 0 0 1 1 0 0 forward_v I I I I #
coedge $-1 $486 $485 $478 $631 forward $320 $-1 #
coedge $-1 $478 $322 $324 $482 reversed $197 $-1 #
coedge $-1 $322 $477 $476 $631 reversed $197 $-1 #
coedge $-1 $330 $325 $322 $480 forward $331 $-1 #
edge $-1 $483 -22.918137816338803 $632 -13.126715565829347 $479 $633 forward 7 unknown #
coedge $-1 $324 $323 $486 $634 reversed $125 $-1 #
edge $-1 $635 -4.4403802724362578e-015 $483 12.102863579652922 $477 $636 forward 7 unknown #
vertex $-1 $326 $637 #
straight-curve $-1 -19.208382396922723 -20.113600115128342 9.2427482834413794 -1 0 0 I I #
coedge $-1 $476 $327 $330 $490 reversed $320 $-1 #
coedge $-1 $327 $476 $481 $634 forward $320 $-1 #
vertex $-1 $328 $638 #
straight-curve $-1 -31.483506603024022 -29.905022365637802 39.712171018232766 0 0 1 I I #
straight-curve $-1 -31.483506603024022 -29.905022365637798 2.1288634699293141 0 -0.80901698891910034 -0.5877852598018023 I I #
edge $-1 $632 -45.350022984666865 $332 -31.483506603024022 $485 $639 forward 7 unknown #
point $-1 -31.483506603024022 -29.905022365637802 9.2427482834413794 #
point $-1 -31.483506603024022 -20.113600115128346 9.2427482834413794 #
edge $-1 $640 1 $640 0 $335 $-1 forward 7 unknown #
vertex $-1 $336 $641 #
ellipse-curve $-1 -38.416764793845445 -22.009233174332088 1.5565527471713261 0 -0.5877852598018023 0.80901698891910034 1.5 0 0 1 I I #
point $-1 -36.916764793845445 -25.009311240383074 5.6858058766853503 #
plane-surface $-1 0 0 9.2427482834413794 0 0 1 1 0 0 forward_v I I I I #
coedge $-1 $508 $507 $500 $642 forward $340 $-1 #
coedge $-1 $500 $342 $344 $504 reversed $212 $-1 #
coedge $-1 $342 $499 $498 $642 reversed $212 $-1 #
coedge $-1 $350 $345 $342 $502 forward $351 $-1 #
edge $-1 $505 -22.918137816338803 $643 -13.126715565829347 $501 $644 forward 7 unknown #
coedge $-1 $344 $343 $508 $645 reversed $134 $-1 #
edge $-1 $646 -4.4403802724362578e-015 $505 12.102863579652922 $499 $647 forward 7 unknown #
vertex $-1 $346 $648 #
straight-curve $-1 -7.2655740836807432 -20.113600115128342 9.2427482834413794 -1 0 0 I I #
coedge $-1 $498 $347 $350 $512 reversed $340 $-1 #
coedge $-1 $347 $498 $503 $645 forward $340 $-1 #
vertex $-1 $348 $649 #
straight-curve $-1 -7.5978899765400634 -29.905022365637802 39.712171018232766 0 0 1 I I #
straight-curve $-1 -7.5978899765400634 -29.905022365637798 2.1288634699293141 0 -0.80901698891910034 -0.5877852598018023 I I #
edge $-1 $643 -21.464406358182909 $352 -7.5978899765400634 $507 $650 forward 7 unknown #
point $-1 -7.5978899765400634 -29.905022365637802 9.2427482834413794 #
point $-1 -7.5978899765400634 -20.113600115128346 9.2427482834413794 #
edge $-1 $651 1 $651 0 $355 $-1 forward 7 unknown #
vertex $-1 $356 $652 #
ellipse-curve $-1 -14.531148167361486 -22.009233174332088 1.5565527471713261 0 -0.5877852598018023 0.80901698891910034 1.5 0 0 1 I I #
point $-1 -13.031148167361486 -25.009311240383074 5.6858058766853503 #
plane-surface $-1 0 0 9.2427482834413794 0 0 1 1 0 0 forward_v I I I I #
coedge $-1 $530 $529 $522 $653 forward $360 $-1 #
coedge $-1 $522 $362 $364 $526 reversed $227 $-1 #
coedge $-1 $362 $521 $520 $653 reversed $227 $-1 #
coedge $-1 $370 $365 $362 $524 forward $371 $-1 #
edge $-1 $527 -22.918137816338803 $654 -13.126715565829347 $523 $655 forward 7 unknown #
coedge $-1 $364 $363 $530 $656 reversed $143 $-1 #
edge $-1 $657 -4.4403802724362578e-015 $527 12.102863579652922 $521 $658 forward 7 unknown #
vertex $-1 $366 $659 #
straight-curve $-1 4.6772342295612397 -20.113600115128342 9.2427482834413794 -1 0 0 I I #
coedge $-1 $520 $367 $370 $534 reversed $360 $-1 #
coedge $-1 $367 $520 $525 $656 forward $360 $-1 #
vertex $-1 $368 $660 #
straight-curve $-1 16.287726649943902 -29.905022365637802 39.712171018232766 0 0 1 I I #
straight-curve $-1 16.287726649943902 -29.905022365637798 2.1288634699293141 0 -0.80901698891910034 -0.5877852598018023 I I #
edge $-1 $654 2.4212102683010563 $372 16.287726649943902 $529 $661 forward 7 unknown #
point $-1 16.287726649943902 -29.905022365637802 9.2427482834413794 #
point $-1 16.287726649943902 -20.113600115128346 9.2427482834413794 #
edge $-1 $662 1 $662 0 $375 $-1 forward 7 unknown #
vertex $-1 $376 $663 #
ellipse-curve $-1 9.3544684591224794 -22.009233174332088 1.5565527471713261 0 -0.5877852598018023 0.80901698891910034 1.5 0 0 1 I I #
point $-1 10.854468459122479 -25.009311240383074 5.6858058766853503 #
plane-surface $-1 0 0 9.2427482834413794 0 0 1 1 0 0 forward_v I I I I #
coedge $-1 $552 $551 $544 $664 forward $380 $-1 #
coedge $-1 $544 $382 $384 $548 reversed $242 $-1 #
coedge $-1 $382 $543 $542 $664 reversed $242 $-1 #
coedge $-1 $390 $385 $382 $546 forward $391 $-1 #
edge $-1 $549 -22.918137816338803 $665 -13.126715565829347 $545 $666 forward 7 unknown #
coedge $-1 $384 $383 $552 $667 reversed $152 $-1 #
edge $-1 $668 -4.4403802724362578e-015 $549 12.102863579652922 $543 $669 forward 7 unknown #
vertex $-1 $386 $670 #
straight-curve $-1 16.620042542803223 -20.113600115128342 9.2427482834413794 -1 0 0 I I #
coedge $-1 $542 $387 $390 $556 reversed $380 $-1 #
coedge $-1 $387 $542 $547 $667 forward $380 $-1 #
vertex $-1 $388 $671 #
straight-curve $-1 40.173343276427872 -29.905022365637802 39.712171018232766 0 0 1 I I #
straight-curve $-1 40.173343276427872 -29.905022365637798 2.1288634699293141 0 -0.80901698891910034 -0.5877852598018023 I I #
edge $-1 $665 26.306826894785022 $392 40.173343276427872 $551 $672 forward 7 unknown #
point $-1 40.173343276427872 -29.905022365637802 9.2427482834413794 #
point $-1 40.173343276427872 -20.113600115128346 9.2427482834413794 #
edge $-1 $673 1 $673 0 $395 $-1 forward 7 unknown #
vertex $-1 $396 $674 #
ellipse-curve $-1 33.240085085606445 -22.009233174332088 1.5565527471713261 0 -0.5877852598018023 0.80901698891910034 1.5 0 0 1 I I #
point $-1 34.740085085606445 -25.009311240383074 5.6858058766853503 #
plane-surface $-1 0 0 9.2427482834413794 0 0 1 1 0 0 forward_v I I I I #
coedge $-1 $574 $573 $566 $675 forward $400 $-1 #
coedge $-1 $566 $402 $404 $570 reversed $257 $-1 #
coedge $-1 $402 $565 $564 $675 reversed $257 $-1 #
coedge $-1 $410 $405 $402 $568 forward $411 $-1 #
edge $-1 $571 -14.076314947828525 $676 -12.330909093665621 $567 $677 forward 7 unknown #
coedge $-1 $404 $403 $574 $678 reversed $161 $-1 #
edge $-1 $679 -59.810044731275603 $571 -56.209856470159835 $565 $680 forward 7 unknown #
vertex $-1 $406 $681 #
straight-curve $-1 -2.8453967693050153 28.159616511474894 9.2427482834413794 1 0 0 I I #
coedge $-1 $564 $407 $410 $578 reversed $400 $-1 #
coedge $-1 $407 $564 $569 $678 forward $400 $-1 #
vertex $-1 $408 $682 #
straight-curve $-1 -11.381587077220065 29.905022365637802 52.362451253093809 0 0 1 I I #
straight-curve $-1 -11.381587077220065 0.90853811529468942 58.404996916322375 0 0.48480960649040278 -0.87461971476443456 I I #
edge $-1 $676 -3.5527136788005009e-015 $412 11.381587077220065 $573 $683 forward 7 unknown #
point $-1 -11.381587077220065 29.905022365637802 9.2427482834413794 #
point $-1 -11.381587077220065 28.159616511474898 9.2427482834413794 #
edge $-1 $684 1 $684 0 $415 $-1 forward 7 unknown #
vertex $-1 $416 $685 #
ellipse-curve $-1 -8.1297050551571886 27.494481362246713 6.8159129346751861 0 0.87461971476443456 0.48480960649040278 0.5 0 0 1 I I #
point $-1 -7.6297050551571886 29.032319438556357 7.668350468423716 #
edge $-1 $686 1 $686 0 $419 $-1 forward 7 unknown #
vertex $-1 $420 $687 #
ellipse-curve $-1 -3.2518820220628726 27.494481362246713 6.8159129346751861 0 0.87461971476443456 0.48480960649040278 0.5 0 0 1 I I #
point $-1 -2.7518820220628726 29.032319438556357 7.668350468423716 #
loop $-1 $-1 $432 $423 #
plane-surface $-1 0 29.905022365637802 0 0 -1 0 0 0 -1 forward_v I I I I #
coedge $-1 $426 $595 $435 $603 forward $279 $-1 #
edge $-1 $600 -59.810044731275603 $596 -56.209856470159835 $427 $688 forward 7 unknown #
coedge $-1 $432 $689 $428 $594 forward $589 $-1 #
edge $-1 $597 43.11970296965243 $600 46.268498599687774 $593 $690 forward 7 unknown #
coedge $-1 $591 $429 $689 $691 forward $279 $-1 #
vertex $-1 $430 $692 #
vertex $-1 $691 $693 #
straight-curve $-1 11.381587077220065 42.235931459303423 9.2427482834413794 0 1 0 I I #
coedge $-1 $689 $432 $436 $604 forward $589 $-1 #
vertex $-1 $594 $694 #
straight-curve $-1 -2.8453967693050153 29.905022365637798 6.0939526534060384 -1 0 0 I I #
straight-curve $-1 -2.8453967693050153 28.159616511474894 9.2427482834413794 1 0 0 I I #
edge $-1 $695 12.330909093665621 $438 14.076314947828525 $591 $696 forward 7 unknown #
edge $-1 $437 -46.268498599687774 $695 -43.11970296965243 $599 $697 forward 7 unknown #
point $-1 3.5527136788005009e-015 29.905022365637802 6.0939526534060349 #
point $-1 3.5527136788005009e-015 28.159616511474898 9.2427482834413794 #
edge $-1 $698 1 $698 0 $440 $-1 forward 7 unknown #
vertex $-1 $441 $699 #
ellipse-curve $-1 3.2518820220628726 27.494481362246713 6.8159129346751861 0 0.87461971476443456 0.48480960649040278 0.5 0 0 1 I I #
point $-1 3.7518820220628726 29.032319438556357 7.668350468423716 #
edge $-1 $700 1 $700 0 $444 $-1 forward 7 unknown #
vertex $-1 $445 $701 #
ellipse-curve $-1 8.1297050551571886 27.494481362246713 6.8159129346751861 0 0.87461971476443456 0.48480960649040278 0.5 0 0 1 I I #
point $-1 8.6297050551571886 29.032319438556357 7.668350468423716 #
plane-surface $-1 47.771233252967924 0 0 -1 0 0 0 0 1 forward_v I I I I #
coedge $-1 $453 $451 $455 $620 reversed $301 $-1 #
edge $-1 $466 -9.2427482834413794 $622 9.2427482834413794 $465 $702 forward 7 unknown #
vertex $-1 $620 $703 #
straight-curve $-1 -47.771233252967924 -29.905022365637802 0 0 0 -1 I I #
edge $-1 $618 -29.905022365637802 $622 29.905022365637802 $616 $704 forward 7 unknown #
straight-curve $-1 0 -29.905022365637802 -9.2427482834413794 -1 0 0 I I #
vertex $-1 $458 $705 #
straight-curve $-1 0 29.905022365637802 -9.2427482834413794 1 0 0 I I #
point $-1 47.771233252967924 29.905022365637802 -9.2427482834413794 #
point $-1 47.771233252967924 -29.905022365637802 -9.2427482834413794 #
straight-curve $-1 -47.771233252967924 0 9.2427482834413794 0 -1 0 I I #
point $-1 -47.771233252967924 29.905022365637802 9.2427482834413794 #
point $-1 -47.771233252967924 -29.905022365637802 9.2427482834413794 #
straight-curve $-1 47.771233252967924 -29.905022365637802 0 0 0 -1 I I #
straight-curve $-1 47.771233252967924 29.905022365637802 0 0 0 -1 I I #
edge $-1 $632 30.469422734791387 $635 37.583307548303452 $476 $706 forward 7 unknown #
vertex $-1 $490 $707 #
straight-curve $-1 -45.350022984666865 -43.031737931467148 9.2427482834413794 0 -1 0 I I #
edge $-1 $635 -26.141640587744142 $487 -12.2751242061013 $486 $708 forward 7 unknown #
vertex $-1 $634 $709 #
straight-curve $-1 -45.350022984666865 -29.905022365637798 2.1288634699293141 0 0.80901698891910034 0.5877852598018023 I I #
point $-1 -45.350022984666865 -20.113600115128346 9.2427482834413794 #
point $-1 -31.483506603024022 -29.905022365637802 2.1288634699293114 #
straight-curve $-1 0 -29.905022365637802 9.2427482834413794 1 0 0 I I #
vertex $-1 $493 $710 #
point $-1 -36.916764793845445 -22.009233174332088 1.5565527471713261 #
edge $-1 $643 30.469422734791387 $646 37.583307548303452 $498 $711 forward 7 unknown #
vertex $-1 $512 $712 #
straight-curve $-1 -21.464406358182909 -43.031737931467148 9.2427482834413794 0 -1 0 I I #
edge $-1 $646 -14.198832274502166 $509 -0.33231589285932017 $508 $713 forward 7 unknown #
vertex $-1 $645 $714 #
straight-curve $-1 -21.464406358182909 -29.905022365637798 2.1288634699293141 0 0.80901698891910034 0.5877852598018023 I I #
point $-1 -21.464406358182909 -20.113600115128346 9.2427482834413794 #
point $-1 -7.5978899765400634 -29.905022365637802 2.1288634699293114 #
straight-curve $-1 0 -29.905022365637802 9.2427482834413794 1 0 0 I I #
vertex $-1 $515 $715 #
point $-1 -13.031148167361486 -22.009233174332088 1.5565527471713261 #
edge $-1 $654 30.469422734791387 $657 37.583307548303452 $520 $716 forward 7 unknown #
vertex $-1 $534 $717 #
straight-curve $-1 2.4212102683010563 -43.031737931467148 9.2427482834413794 0 -1 0 I I #
edge $-1 $657 -2.2560239612601833 $531 11.610492420382663 $530 $718 forward 7 unknown #
vertex $-1 $656 $719 #
straight-curve $-1 2.4212102683010563 -29.905022365637798 2.1288634699293141 0 0.80901698891910034 0.5877852598018023 I I #
point $-1 2.4212102683010563 -20.113600115128346 9.2427482834413794 #
point $-1 16.287726649943902 -29.905022365637802 2.1288634699293114 #
straight-curve $-1 0 -29.905022365637802 9.2427482834413794 1 0 0 I I #
vertex $-1 $537 $720 #
point $-1 10.854468459122479 -22.009233174332088 1.5565527471713261 #
edge $-1 $665 30.469422734791387 $668 37.583307548303452 $542 $721 forward 7 unknown #
vertex $-1 $556 $722 #
straight-curve $-1 26.306826894785022 -43.031737931467148 9.2427482834413794 0 -1 0 I I #
edge $-1 $668 9.6867843519817995 $553 23.553300733624649 $552 $723 forward 7 unknown #
vertex $-1 $667 $724 #
straight-curve $-1 26.306826894785022 -29.905022365637798 2.1288634699293141 0 0.80901698891910034 0.5877852598018023 I I #
point $-1 26.306826894785022 -20.113600115128346 9.2427482834413794 #
point $-1 40.173343276427872 -29.905022365637802 2.1288634699293114 #
straight-curve $-1 0 -29.905022365637802 9.2427482834413794 1 0 0 I I #
vertex $-1 $559 $725 #
point $-1 34.740085085606445 -22.009233174332088 1.5565527471713261 #
edge $-1 $676 43.11970296965243 $679 46.268498599687774 $564 $726 forward 7 unknown #
vertex $-1 $578 $727 #
straight-curve $-1 3.5527136788005009e-015 42.235931459303423 9.2427482834413794 0 1 0 I I #
edge $-1 $679 -2.8453967693050188 $575 8.5361903079150494 $574 $728 forward 7 unknown #
vertex $-1 $678 $729 #
straight-curve $-1 3.5527136788005009e-015 0.90853811529468942 58.404996916322375 0 -0.48480960649040278 0.87461971476443456 I I #
point $-1 3.5527136788005009e-015 28.159616511474898 9.2427482834413794 #
point $-1 -11.381587077220065 29.905022365637802 6.0939526534060349 #
straight-curve $-1 0 29.905022365637802 9.2427482834413794 -1 0 0 I I #
vertex $-1 $581 $730 #
point $-1 -7.6297050551571886 27.494481362246713 6.8159129346751861 #
vertex $-1 $585 $731 #
point $-1 -2.7518820220628726 27.494481362246713 6.8159129346751861 #
straight-curve $-1 11.381587077220065 0.90853811529468942 58.404996916322375 0 -0.48480960649040278 0.87461971476443456 I I #
coedge $-1 $593 $599 $595 $691 reversed $589 $-1 #
straight-curve $-1 11.381587077220065 29.905022365637802 52.362451253093809 0 0 -1 I I #
edge $-1 $597 -11.381587077220065 $695 -3.5527136788005009e-015 $689 $732 forward 7 unknown #
point $-1 11.381587077220065 28.159616511474898 9.2427482834413794 #
point $-1 11.381587077220065 29.905022365637802 9.2427482834413794 #
point $-1 11.381587077220065 29.905022365637802 6.0939526534060349 #
vertex $-1 $604 $733 #
straight-curve $-1 3.5527136788005009e-015 42.235931459303423 9.2427482834413794 0 -1 0 I I #
straight-curve $-1 3.5527136788005009e-015 29.905022365637802 52.362451253093809 0 0 1 I I #
vertex $-1 $607 $734 #
point $-1 3.7518820220628726 27.494481362246713 6.8159129346751861 #
vertex $-1 $611 $735 #
point $-1 8.6297050551571886 27.494481362246713 6.8159129346751861 #
straight-curve $-1 -47.771233252967924 29.905022365637802 0 0 0 -1 I I #
point $-1 -47.771233252967924 -29.905022365637802 -9.2427482834413794 #
straight-curve $-1 -47.771233252967924 0 -9.2427482834413794 0 1 0 I I #
point $-1 -47.771233252967924 29.905022365637802 -9.2427482834413794 #
straight-curve $-1 -45.350022984666865 -29.905022365637802 39.712171018232766 0 0 -1 I I #
point $-1 -45.350022984666865 -29.905022365637802 9.2427482834413794 #
straight-curve $-1 -19.208382396922723 -29.905022365637802 2.1288634699293092 1 0 0 I I #
point $-1 -45.350022984666865 -29.905022365637802 2.1288634699293114 #
point $-1 -38.416764793845445 -21.127555284629388 0.34302726379267545 #
straight-curve $-1 -21.464406358182909 -29.905022365637802 39.712171018232766 0 0 -1 I I #
point $-1 -21.464406358182909 -29.905022365637802 9.2427482834413794 #
straight-curve $-1 -7.2655740836807432 -29.905022365637802 2.1288634699293092 1 0 0 I I #
point $-1 -21.464406358182909 -29.905022365637802 2.1288634699293114 #
point $-1 -14.531148167361486 -21.127555284629388 0.34302726379267545 #
straight-curve $-1 2.4212102683010563 -29.905022365637802 39.712171018232766 0 0 -1 I I #
point $-1 2.4212102683010563 -29.905022365637802 9.2427482834413794 #
straight-curve $-1 4.6772342295612397 -29.905022365637802 2.1288634699293092 1 0 0 I I #
point $-1 2.4212102683010563 -29.905022365637802 2.1288634699293114 #
point $-1 9.3544684591224794 -21.127555284629388 0.34302726379267545 #
straight-curve $-1 26.306826894785022 -29.905022365637802 39.712171018232766 0 0 -1 I I #
point $-1 26.306826894785022 -29.905022365637802 9.2427482834413794 #
straight-curve $-1 16.620042542803223 -29.905022365637802 2.1288634699293092 1 0 0 I I #
point $-1 26.306826894785022 -29.905022365637802 2.1288634699293114 #
point $-1 33.240085085606445 -21.127555284629388 0.34302726379267545 #
straight-curve $-1 3.5527136788005009e-015 29.905022365637802 52.362451253093809 0 0 -1 I I #
point $-1 3.5527136788005009e-015 29.905022365637802 9.2427482834413794 #
straight-curve $-1 -2.8453967693050153 29.905022365637798 6.0939526534060384 -1 0 0 I I #
point $-1 3.5527136788005009e-015 29.905022365637802 6.0939526534060349 #
point $-1 -8.1297050551571886 27.057171504864495 6.5735081314299855 #
point $-1 -3.2518820220628726 27.057171504864495 6.5735081314299855 #
straight-curve $-1 0 29.905022365637802 9.2427482834413794 -1 0 0 I I #
point $-1 3.5527136788005009e-015 29.905022365637802 9.2427482834413794 #
point $-1 3.2518820220628726 27.057171504864495 6.5735081314299855 #
point $-1 8.1297050551571886 27.057171504864495 6.5735081314299855 #
End-of-ACIS-data 