500 0 9 0           
7 Unknown 11 ACIS 5.0 NT 24 Thu Mar 25 21:29:03 1999 
-1 9.9999999999999995e-007 1e-010 
body $-1 $9 $-1 $10 #
body $-1 $11 $-1 $12 #
body $-1 $13 $-1 $14 #
body $-1 $15 $-1 $16 #
body $-1 $17 $-1 $18 #
body $-1 $19 $-1 $20 #
body $-1 $21 $-1 $22 #
body $-1 $23 $-1 $24 #
body $-1 $25 $-1 $26 #
lump $-1 $-1 $27 $0 #
transform $-1 1 0 0 0 1 0 0 0 1 71.727042451246689 48.766814918458167 11.729068626693838 1 rotate no_reflect no_shear #
lump $-1 $-1 $28 $1 #
transform $-1 1 0 0 0 1 0 0 0 1 71.727042451246689 48.766814918458167 11.729068626693838 1 rotate no_reflect no_shear #
lump $-1 $-1 $29 $2 #
transform $-1 1 0 0 0 1 0 0 0 1 71.727042451246689 48.766814918458167 11.729068626693838 1 rotate no_reflect no_shear #
lump $-1 $-1 $30 $3 #
transform $-1 1 0 0 0 1 0 0 0 1 71.727042451246689 48.766814918458167 11.729068626693838 1 rotate no_reflect no_shear #
lump $-1 $-1 $31 $4 #
transform $-1 1 0 0 0 1 0 0 0 1 71.727042451246689 48.766814918458167 11.729068626693838 1 rotate no_reflect no_shear #
lump $-1 $-1 $32 $5 #
transform $-1 1 0 0 0 1 0 0 0 1 71.727042451246689 48.766814918458167 11.729068626693838 1 rotate no_reflect no_shear #
lump $-1 $-1 $33 $6 #
transform $-1 1 0 0 0 1 0 0 0 1 71.727042451246689 48.766814918458167 11.729068626693838 1 rotate no_reflect no_shear #
lump $-1 $-1 $34 $7 #
transform $-1 1 0 0 0 1 0 0 0 1 71.727042451246689 48.766814918458167 11.729068626693838 1 rotate no_reflect no_shear #
lump $-1 $-1 $35 $8 #
transform $-1 1 0 0 0 1 0 0 0 1 71.727042451246689 48.766814918458167 11.729068626693838 1 rotate no_reflect no_shear #
shell $-1 $-1 $-1 $36 $-1 $9 #
shell $-1 $-1 $-1 $37 $-1 $11 #
shell $-1 $-1 $-1 $38 $-1 $13 #
shell $-1 $-1 $-1 $39 $-1 $15 #
shell $-1 $-1 $-1 $40 $-1 $17 #
shell $-1 $-1 $-1 $41 $-1 $19 #
shell $-1 $-1 $-1 $42 $-1 $21 #
shell $-1 $-1 $-1 $43 $-1 $23 #
shell $-1 $-1 $-1 $44 $-1 $25 #
face $-1 $45 $46 $27 $-1 $47 forward single #
face $-1 $48 $49 $28 $-1 $50 reversed single #
face $-1 $51 $52 $29 $-1 $53 forward single #
face $-1 $54 $55 $30 $-1 $56 reversed single #
face $-1 $57 $58 $31 $-1 $59 forward single #
face $-1 $60 $61 $32 $-1 $62 reversed single #
face $-1 $63 $64 $33 $-1 $65 forward single #
face $-1 $66 $67 $34 $-1 $68 reversed single #
face $-1 $69 $70 $35 $-1 $71 forward single #
face $-1 $72 $73 $27 $-1 $74 reversed single #
loop $-1 $-1 $75 $36 #
plane-surface $-1 0 0 11.729068626693838 0 0 1 1 0 0 forward_v I I I I #
face $-1 $76 $77 $28 $-1 $78 reversed single #
loop $-1 $-1 $79 $37 #
plane-surface $-1 -197.19481327045841 -23.055554672271214 72.503606076164914 0 1 0 -0.87461971476443456 0 0.48480960649040278 forward_v I I I I #
face $-1 $80 $81 $29 $-1 $82 forward single #
loop $-1 $83 $84 $38 #
cone-surface $-1 -67.75233050777554 -11.527777336135607 6.4870073512740802 0.87461971476443456 0 -0.48480960649040278 0.72721440973560414 0 1.311929572146652 1 I I 0 1 1.5 forward I I I I #
face $-1 $85 $86 $30 $-1 $87 reversed single #
loop $-1 $-1 $88 $39 #
plane-surface $-1 -71.727042451246675 -11.527777336135607 2.9556876251462683 -0.87461971476443456 0 0.48480960649040278 0.48480960649040278 0 0.87461971476443456 forward_v I I I I #
face $-1 $89 $90 $31 $-1 $91 forward single #
loop $-1 $92 $93 $40 #
cone-surface $-1 -67.75233050777554 11.527777336135614 6.4870073512740802 0.87461971476443456 0 -0.48480960649040278 0.72721440973560414 0 1.311929572146652 1 I I 0 1 1.5 forward I I I I #
face $-1 $94 $95 $32 $-1 $96 reversed single #
loop $-1 $-1 $97 $41 #
plane-surface $-1 127.64689481943975 1.7763568394002505e-015 197.97137689537664 0 -1 0 -0.87461971476443456 0 -0.48480960649040278 forward_v I I I I #
face $-1 $98 $99 $33 $-1 $100 forward single #
loop $-1 $101 $102 $42 #
cone-surface $-1 67.752330507775525 -11.527777336135607 6.4870073512740802 -0.87461971476443456 0 -0.48480960649040278 0.72721440973560414 0 -1.311929572146652 1 I I 0 1 1.5 forward I I I I #
face $-1 $103 $104 $34 $-1 $105 reversed single #
loop $-1 $-1 $106 $43 #
plane-surface $-1 127.64689481943975 23.055554672271221 197.97137689537664 0 -1 0 -0.87461971476443456 0 -0.48480960649040278 forward_v I I I I #
face $-1 $107 $108 $35 $-1 $109 forward single #
loop $-1 $110 $111 $44 #
cone-surface $-1 67.752330507775525 11.527777336135614 6.4870073512740802 -0.87461971476443456 0 -0.48480960649040278 0.72721440973560414 0 -1.311929572146652 1 I I 0 1 1.5 forward I I I I #
face $-1 $112 $113 $27 $-1 $114 reversed single #
loop $-1 $-1 $115 $45 #
plane-surface $-1 0 0 -11.729068626693838 0 0 1 1 0 0 forward_v I I I I #
coedge $-1 $116 $117 $118 $119 forward $46 $-1 #
face $-1 $120 $121 $28 $-1 $122 reversed single #
loop $-1 $-1 $123 $48 #
plane-surface $-1 -71.727042451246675 -11.527777336135607 2.9556876251462683 -0.87461971476443456 0 0.48480960649040278 0.48480960649040278 0 0.87461971476443456 forward_v I I I I #
coedge $-1 $124 $125 $126 $127 reversed $49 $-1 #
face $-1 $-1 $128 $29 $-1 $129 forward single #
loop $-1 $130 $131 $51 #
cone-surface $-1 -65.553235938539572 -11.527777336135607 5.2680293717602993 0.87461971476443456 0 -0.48480960649040278 0.36360720486780207 0 0.65596478607332598 1 I I -0.70710678118654757 0.70710678118654757 0.75 forward I I I I #
loop $-1 $-1 $132 $38 #
coedge $-1 $84 $84 $133 $134 reversed $52 $-1 #
face $-1 $135 $136 $30 $-1 $137 forward single #
loop $-1 $-1 $138 $54 #
plane-surface $-1 -197.19481327045841 23.055554672271221 72.503606076164914 0 -1 0 0.87461971476443456 0 -0.48480960649040278 forward_v I I I I #
coedge $-1 $139 $140 $141 $142 reversed $55 $-1 #
face $-1 $-1 $143 $31 $-1 $144 forward single #
loop $-1 $145 $146 $57 #
cone-surface $-1 -65.553235938539572 11.527777336135614 5.2680293717602993 0.87461971476443456 0 -0.48480960649040278 0.36360720486780207 0 0.65596478607332598 1 I I -0.70710678118654757 0.70710678118654757 0.75 forward I I I I #
loop $-1 $-1 $147 $40 #
coedge $-1 $93 $93 $148 $149 reversed $58 $-1 #
face $-1 $150 $151 $32 $-1 $152 reversed single #
loop $-1 $-1 $153 $60 #
plane-surface $-1 2.1791240002280148 -11.527777336135607 128.423458444358 0.87461971476443456 0 0.48480960649040278 0.48480960649040278 0 -0.87461971476443456 forward_v I I I I #
coedge $-1 $154 $155 $156 $157 reversed $61 $-1 #
face $-1 $-1 $158 $33 $-1 $159 forward single #
loop $-1 $160 $161 $63 #
cone-surface $-1 65.553235938539558 -11.527777336135607 5.2680293717602993 -0.87461971476443456 0 -0.48480960649040278 0.36360720486780207 0 -0.65596478607332598 1 I I -0.70710678118654757 0.70710678118654757 0.75 forward I I I I #
loop $-1 $-1 $162 $42 #
coedge $-1 $102 $102 $163 $164 reversed $64 $-1 #
face $-1 $165 $166 $34 $-1 $167 reversed single #
loop $-1 $-1 $168 $66 #
plane-surface $-1 2.1791240002280148 -11.527777336135607 128.423458444358 0.87461971476443456 0 0.48480960649040278 0.48480960649040278 0 -0.87461971476443456 forward_v I I I I #
coedge $-1 $169 $170 $171 $172 reversed $67 $-1 #
face $-1 $-1 $173 $35 $-1 $174 forward single #
loop $-1 $175 $176 $69 #
cone-surface $-1 65.553235938539558 11.527777336135614 5.2680293717602993 -0.87461971476443456 0 -0.48480960649040278 0.36360720486780207 0 -0.65596478607332598 1 I I -0.70710678118654757 0.70710678118654757 0.75 forward I I I I #
loop $-1 $-1 $177 $44 #
coedge $-1 $111 $111 $178 $179 reversed $70 $-1 #
face $-1 $180 $181 $27 $-1 $182 reversed single #
loop $-1 $-1 $183 $72 #
plane-surface $-1 0 -48.766814918458167 0 0 1 0 0 0 1 forward_v I I I I #
coedge $-1 $184 $185 $186 $187 forward $73 $-1 #
coedge $-1 $188 $75 $189 $190 forward $46 $-1 #
coedge $-1 $75 $188 $191 $192 forward $46 $-1 #
coedge $-1 $193 $194 $75 $119 reversed $195 $-1 #
edge $-1 $196 -48.766814918458167 $197 48.766814918458167 $118 $198 forward 7 unknown #
face $-1 $199 $200 $28 $-1 $201 reversed single #
loop $-1 $-1 $202 $76 #
plane-surface $-1 -197.19481327045841 1.7763568394002505e-015 72.503606076164914 0 -1 0 0.87461971476443456 0 -0.48480960649040278 forward_v I I I I #
coedge $-1 $203 $204 $205 $206 reversed $77 $-1 #
coedge $-1 $125 $79 $207 $208 reversed $49 $-1 #
coedge $-1 $79 $124 $203 $209 reversed $49 $-1 #
coedge $-1 $205 $210 $79 $127 forward $211 $-1 #
edge $-1 $212 26.870364183982517 $213 31.733528504599576 $126 $214 forward 7 unknown #
loop $-1 $-1 $133 $80 #
plane-surface $-1 -71.727042451246675 -11.527777336135607 2.9556876251462683 -0.87461971476443456 0 0.48480960649040278 0.48480960649040278 0 0.87461971476443456 forward_v I I I I #
loop $-1 $-1 $215 $51 #
coedge $-1 $131 $131 $132 $216 reversed $81 $-1 #
coedge $-1 $132 $132 $131 $216 forward $83 $-1 #
coedge $-1 $133 $133 $84 $134 forward $128 $-1 #
edge $-1 $217 0 $217 6.2831853071796004 $133 $218 forward 7 unknown #
face $-1 $219 $220 $30 $-1 $221 forward single #
loop $-1 $-1 $222 $85 #
plane-surface $-1 0 0 11.729068626693838 0 0 1 1 0 0 forward_v I I I I #
coedge $-1 $223 $224 $225 $226 reversed $86 $-1 #
coedge $-1 $227 $88 $228 $229 reversed $55 $-1 #
coedge $-1 $88 $227 $222 $230 reversed $55 $-1 #
coedge $-1 $231 $232 $88 $142 forward $220 $-1 #
edge $-1 $233 -2.9417291209212814e-014 $234 10.031080769669762 $141 $235 forward 7 unknown #
loop $-1 $-1 $148 $89 #
plane-surface $-1 -71.727042451246675 -11.527777336135607 2.9556876251462683 -0.87461971476443456 0 0.48480960649040278 0.48480960649040278 0 0.87461971476443456 forward_v I I I I #
loop $-1 $-1 $236 $57 #
coedge $-1 $146 $146 $147 $237 reversed $90 $-1 #
coedge $-1 $147 $147 $146 $237 forward $92 $-1 #
coedge $-1 $148 $148 $93 $149 forward $143 $-1 #
edge $-1 $238 0 $238 6.2831853071796004 $148 $239 forward 7 unknown #
face $-1 $240 $241 $32 $-1 $242 forward single #
loop $-1 $-1 $243 $94 #
plane-surface $-1 127.64689481943975 -23.055554672271214 197.97137689537664 0 1 0 0.87461971476443456 0 0.48480960649040278 forward_v I I I I #
coedge $-1 $244 $245 $246 $247 reversed $95 $-1 #
coedge $-1 $155 $97 $248 $249 reversed $61 $-1 #
coedge $-1 $97 $154 $244 $250 reversed $61 $-1 #
coedge $-1 $246 $251 $97 $157 forward $241 $-1 #
edge $-1 $252 -7.9035950415268132 $253 -3.0404307209097396 $156 $254 forward 7 unknown #
loop $-1 $-1 $163 $98 #
plane-surface $-1 2.1791240002280148 -11.527777336135607 128.423458444358 0.87461971476443456 0 0.48480960649040278 0.48480960649040278 0 -0.87461971476443456 forward_v I I I I #
loop $-1 $-1 $255 $63 #
coedge $-1 $161 $161 $162 $256 reversed $99 $-1 #
coedge $-1 $162 $162 $161 $256 forward $101 $-1 #
coedge $-1 $163 $163 $102 $164 forward $158 $-1 #
edge $-1 $257 0 $257 6.2831853071796004 $163 $258 forward 7 unknown #
face $-1 $259 $260 $34 $-1 $261 forward single #
loop $-1 $-1 $262 $103 #
plane-surface $-1 71.727042451246689 0 0 -1 0 0 0 0 1 forward_v I I I I #
coedge $-1 $263 $264 $265 $266 reversed $104 $-1 #
coedge $-1 $170 $106 $267 $268 reversed $67 $-1 #
coedge $-1 $106 $169 $269 $270 reversed $67 $-1 #
coedge $-1 $271 $262 $106 $172 forward $166 $-1 #
edge $-1 $272 -96.030000822542107 $273 -87.256619820994473 $171 $274 forward 7 unknown #
loop $-1 $-1 $178 $107 #
plane-surface $-1 2.1791240002280148 -11.527777336135607 128.423458444358 0.87461971476443456 0 0.48480960649040278 0.48480960649040278 0 -0.87461971476443456 forward_v I I I I #
loop $-1 $-1 $275 $69 #
coedge $-1 $176 $176 $177 $276 reversed $108 $-1 #
coedge $-1 $177 $177 $176 $276 forward $110 $-1 #
coedge $-1 $178 $178 $111 $179 forward $173 $-1 #
edge $-1 $277 0 $277 6.2831853071796004 $178 $278 forward 7 unknown #
face $-1 $279 $280 $27 $-1 $281 reversed single #
loop $-1 $-1 $282 $112 #
plane-surface $-1 -71.727042451246689 0 0 1 0 0 0 0 -1 forward_v I I I I #
coedge $-1 $283 $191 $284 $285 forward $113 $-1 #
coedge $-1 $286 $115 $283 $287 forward $73 $-1 #
coedge $-1 $115 $286 $288 $289 forward $73 $-1 #
coedge $-1 $194 $193 $115 $187 reversed $195 $-1 #
edge $-1 $290 -48.766814918458167 $291 48.766814918458167 $186 $292 forward 7 unknown #
coedge $-1 $117 $116 $293 $294 forward $46 $-1 #
coedge $-1 $295 $296 $116 $190 reversed $280 $-1 #
edge $-1 $197 -71.727042451246689 $297 71.727042451246689 $189 $298 forward 7 unknown #
coedge $-1 $183 $299 $117 $192 reversed $113 $-1 #
edge $-1 $300 -71.727042451246689 $196 71.727042451246689 $191 $301 forward 7 unknown #
coedge $-1 $186 $118 $299 $302 forward $195 $-1 #
coedge $-1 $118 $186 $295 $303 reversed $195 $-1 #
loop $-1 $-1 $193 $279 #
vertex $-1 $119 $304 #
vertex $-1 $119 $305 #
straight-curve $-1 71.727042451246689 0 11.729068626693838 0 1 0 I I #
face $-1 $-1 $211 $28 $-1 $306 forward single #
loop $-1 $-1 $307 $120 #
plane-surface $-1 -71.727042451246689 0 0 1 0 0 0 0 -1 forward_v I I I I #
coedge $-1 $308 $309 $310 $311 reversed $121 $-1 #
coedge $-1 $312 $123 $125 $209 forward $77 $-1 #
coedge $-1 $123 $312 $308 $313 forward $77 $-1 #
coedge $-1 $310 $126 $123 $206 forward $211 $-1 #
edge $-1 $213 -17.29166600420341 $314 5.7638886680678052 $205 $315 forward 7 unknown #
coedge $-1 $316 $317 $124 $208 forward $200 $-1 #
edge $-1 $318 -33.296115412936217 $212 -24.522734411388619 $207 $319 forward 7 unknown #
edge $-1 $213 -10.031080769669762 $318 2.9417291209212814e-014 $125 $320 forward 7 unknown #
coedge $-1 $126 $310 $316 $321 forward $211 $-1 #
loop $-1 $-1 $310 $199 #
vertex $-1 $208 $322 #
vertex $-1 $127 $323 #
straight-curve $-1 -98.597406635229206 -23.055554672271214 11.729068626693838 1 0 0 I I #
coedge $-1 $215 $215 $-1 $324 reversed $130 $-1 #
edge $-1 $325 0 $325 6.2831853071796004 $131 $326 forward 7 unknown #
vertex $-1 $134 $327 #
ellipse-curve $-1 -69.295460290938152 -11.527777336135607 7.3423781259200469 -0.87461971476443456 0 0.48480960649040278 0.72721440973560414 0 1.311929572146652 1 I I #
face $-1 $-1 $328 $30 $-1 $329 reversed single #
loop $-1 $-1 $231 $135 #
plane-surface $-1 -197.19481327045841 1.7763568394002505e-015 72.503606076164914 0 -1 0 0.87461971476443456 0 -0.48480960649040278 forward_v I I I I #
coedge $-1 $225 $330 $140 $230 forward $136 $-1 #
coedge $-1 $224 $138 $227 $331 reversed $86 $-1 #
coedge $-1 $138 $223 $332 $333 reversed $86 $-1 #
coedge $-1 $334 $222 $138 $226 forward $136 $-1 #
edge $-1 $335 -31.733528504599576 $336 -26.870364183982517 $225 $337 forward 7 unknown #
coedge $-1 $140 $139 $223 $331 forward $55 $-1 #
coedge $-1 $338 $332 $139 $229 forward $328 $-1 #
edge $-1 $339 -28.819443340339024 $233 -5.7638886680678052 $228 $340 forward 7 unknown #
edge $-1 $234 5.7638886680678052 $335 28.819443340339024 $222 $341 forward 7 unknown #
coedge $-1 $232 $141 $330 $342 reversed $220 $-1 #
coedge $-1 $141 $231 $338 $343 reversed $220 $-1 #
vertex $-1 $229 $344 #
vertex $-1 $230 $345 #
straight-curve $-1 -71.727042451246675 1.7763568394002505e-015 2.9556876251462683 0.48480960649040278 0 0.87461971476443456 I I #
coedge $-1 $236 $236 $-1 $346 reversed $145 $-1 #
edge $-1 $347 0 $347 6.2831853071796004 $146 $348 forward 7 unknown #
vertex $-1 $149 $349 #
ellipse-curve $-1 -69.295460290938152 11.527777336135614 7.3423781259200469 -0.87461971476443456 0 0.48480960649040278 0.72721440973560414 0 1.311929572146652 1 I I #
face $-1 $-1 $350 $32 $-1 $351 reversed single #
loop $-1 $-1 $156 $150 #
plane-surface $-1 0 0 11.729068626693838 0 0 1 1 0 0 forward_v I I I I #
coedge $-1 $352 $353 $354 $355 reversed $151 $-1 #
coedge $-1 $356 $153 $155 $250 forward $95 $-1 #
coedge $-1 $153 $356 $352 $357 forward $95 $-1 #
coedge $-1 $354 $156 $153 $247 forward $241 $-1 #
edge $-1 $253 -5.7638886680678052 $358 17.29166600420341 $246 $359 forward 7 unknown #
coedge $-1 $360 $361 $154 $249 forward $350 $-1 #
edge $-1 $362 -96.030000822542107 $252 -87.256619820994473 $248 $363 forward 7 unknown #
edge $-1 $253 133.42300413282362 $362 143.45408490249346 $155 $364 forward 7 unknown #
coedge $-1 $156 $354 $360 $365 forward $241 $-1 #
vertex $-1 $249 $366 #
vertex $-1 $157 $367 #
straight-curve $-1 63.823447409719876 1.7763568394002505e-015 11.729068626693845 -1 0 0 I I #
coedge $-1 $255 $255 $-1 $368 reversed $160 $-1 #
edge $-1 $369 0 $369 6.2831853071796004 $161 $370 forward 7 unknown #
vertex $-1 $164 $371 #
ellipse-curve $-1 69.295460290938138 -11.527777336135607 7.3423781259200451 0.87461971476443456 0 0.48480960649040278 0.72721440973560414 0 -1.311929572146652 1 I I #
face $-1 $-1 $372 $34 $-1 $373 forward single #
loop $-1 $-1 $374 $165 #
plane-surface $-1 127.64689481943975 1.7763568394002505e-015 197.97137689537664 0 -1 0 -0.87461971476443456 0 -0.48480960649040278 forward_v I I I I #
coedge $-1 $171 $375 $264 $376 forward $166 $-1 #
coedge $-1 $267 $168 $377 $378 reversed $104 $-1 #
coedge $-1 $168 $267 $262 $376 reversed $104 $-1 #
coedge $-1 $379 $374 $168 $266 forward $260 $-1 #
edge $-1 $380 133.42300413282362 $381 143.45408490249346 $265 $382 forward 7 unknown #
coedge $-1 $264 $263 $169 $268 forward $104 $-1 #
edge $-1 $383 133.42300413282362 $272 143.45408490249346 $169 $384 forward 7 unknown #
coedge $-1 $377 $385 $170 $270 forward $372 $-1 #
edge $-1 $273 -7.9035950415268132 $383 -3.0404307209097396 $269 $386 forward 7 unknown #
coedge $-1 $375 $171 $385 $387 reversed $166 $-1 #
vertex $-1 $172 $388 #
vertex $-1 $172 $389 #
straight-curve $-1 71.727042451246689 23.055554672271221 98.985688447688318 0 0 1 I I #
coedge $-1 $275 $275 $-1 $390 reversed $175 $-1 #
edge $-1 $391 0 $391 6.2831853071796004 $176 $392 forward 7 unknown #
vertex $-1 $179 $393 #
ellipse-curve $-1 69.295460290938138 11.527777336135614 7.3423781259200451 0.87461971476443456 0 0.48480960649040278 0.72721440973560414 0 -1.311929572146652 1 I I #
face $-1 $-1 $195 $27 $-1 $394 reversed single #
loop $-1 $-1 $295 $180 #
plane-surface $-1 0 48.766814918458167 0 0 -1 0 0 0 -1 forward_v I I I I #
coedge $-1 $395 $293 $296 $396 forward $181 $-1 #
coedge $-1 $299 $183 $184 $287 reversed $113 $-1 #
coedge $-1 $293 $395 $183 $285 reversed $181 $-1 #
edge $-1 $300 -11.729068626693838 $397 11.729068626693838 $284 $398 forward 7 unknown #
coedge $-1 $185 $184 $395 $399 forward $73 $-1 #
edge $-1 $291 -71.727042451246689 $397 71.727042451246689 $283 $400 forward 7 unknown #
coedge $-1 $296 $295 $185 $289 reversed $280 $-1 #
edge $-1 $401 -71.727042451246689 $290 71.727042451246689 $288 $402 forward 7 unknown #
vertex $-1 $187 $403 #
vertex $-1 $302 $404 #
straight-curve $-1 71.727042451246689 0 -11.729068626693838 0 -1 0 I I #
coedge $-1 $282 $284 $188 $294 reversed $181 $-1 #
edge $-1 $297 -48.766814918458167 $300 48.766814918458167 $293 $405 forward 7 unknown #
coedge $-1 $288 $189 $194 $303 forward $280 $-1 #
coedge $-1 $189 $288 $282 $396 reversed $280 $-1 #
vertex $-1 $190 $406 #
straight-curve $-1 0 48.766814918458167 11.729068626693838 -1 0 0 I I #
coedge $-1 $191 $283 $193 $302 reversed $113 $-1 #
vertex $-1 $294 $407 #
straight-curve $-1 0 -48.766814918458167 11.729068626693838 1 0 0 I I #
edge $-1 $196 -11.729068626693838 $291 11.729068626693838 $193 $408 forward 7 unknown #
edge $-1 $197 -11.729068626693838 $290 11.729068626693838 $194 $409 forward 7 unknown #
point $-1 71.727042451246689 -48.766814918458167 11.729068626693838 #
point $-1 71.727042451246689 48.766814918458167 11.729068626693838 #
plane-surface $-1 0 0 11.729068626693838 0 0 1 1 0 0 forward_v I I I I #
coedge $-1 $317 $316 $309 $410 forward $200 $-1 #
coedge $-1 $309 $202 $204 $313 reversed $121 $-1 #
coedge $-1 $202 $308 $307 $410 reversed $121 $-1 #
coedge $-1 $210 $205 $202 $311 forward $211 $-1 #
edge $-1 $314 -31.733528504599576 $411 -26.870364183982517 $310 $412 forward 7 unknown #
coedge $-1 $204 $203 $317 $413 reversed $77 $-1 #
edge $-1 $414 -2.9417291209212814e-014 $314 10.031080769669762 $308 $415 forward 7 unknown #
vertex $-1 $206 $416 #
straight-curve $-1 -66.863878130629629 -5.7638886680678034 11.729068626693838 0 1 0 I I #
coedge $-1 $307 $207 $210 $321 reversed $200 $-1 #
coedge $-1 $207 $307 $312 $413 forward $200 $-1 #
vertex $-1 $208 $417 #
straight-curve $-1 -71.727042451246689 -23.055554672271214 36.251803038082457 0 0 1 I I #
straight-curve $-1 -71.727042451246675 -23.055554672271214 2.9556876251462683 -0.48480960649040278 0 -0.87461971476443456 I I #
edge $-1 $411 -1.7763568394002505e-015 $212 23.055554672271214 $316 $418 forward 7 unknown #
point $-1 -71.727042451246689 -23.055554672271214 11.729068626693838 #
point $-1 -66.863878130629629 -23.055554672271214 11.729068626693838 #
edge $-1 $419 1 $419 0 $215 $-1 forward 7 unknown #
vertex $-1 $216 $420 #
ellipse-curve $-1 -66.209200724612899 -11.527777336135607 5.6316365766281011 -0.87461971476443456 0 0.48480960649040278 0.72721440973560414 0 1.311929572146652 1 I I #
point $-1 -68.568245881202571 -11.527777336135607 8.6543076980667095 #
loop $-1 $-1 $228 $219 #
plane-surface $-1 -71.727042451246689 0 0 1 0 0 0 0 -1 forward_v I I I I #
coedge $-1 $222 $334 $231 $342 forward $136 $-1 #
edge $-1 $339 -2.9417291209212814e-014 $335 10.031080769669762 $223 $421 forward 7 unknown #
coedge $-1 $228 $422 $224 $333 forward $328 $-1 #
edge $-1 $336 24.522734411388619 $339 33.296115412936217 $332 $423 forward 7 unknown #
coedge $-1 $330 $225 $422 $424 forward $136 $-1 #
vertex $-1 $226 $425 #
vertex $-1 $424 $426 #
straight-curve $-1 -98.597406635229206 23.055554672271221 11.729068626693838 -1 0 0 I I #
coedge $-1 $422 $228 $232 $343 forward $328 $-1 #
vertex $-1 $333 $427 #
straight-curve $-1 -71.727042451246689 -5.7638886680678034 2.9556876251462487 0 -1 0 I I #
straight-curve $-1 -66.863878130629629 -5.7638886680678034 11.729068626693838 0 1 0 I I #
edge $-1 $428 26.870364183982517 $234 31.733528504599576 $330 $429 forward 7 unknown #
edge $-1 $233 -33.296115412936217 $428 -24.522734411388619 $338 $430 forward 7 unknown #
point $-1 -71.727042451246689 1.7763568394002505e-015 2.9556876251462425 #
point $-1 -66.863878130629629 1.7763568394002505e-015 11.729068626693838 #
edge $-1 $431 1 $431 0 $236 $-1 forward 7 unknown #
vertex $-1 $237 $432 #
ellipse-curve $-1 -66.209200724612899 11.527777336135614 5.6316365766281011 -0.87461971476443456 0 0.48480960649040278 0.72721440973560414 0 1.311929572146652 1 I I #
point $-1 -68.568245881202571 11.527777336135614 8.6543076980667095 #
loop $-1 $-1 $248 $240 #
plane-surface $-1 71.727042451246689 0 0 -1 0 0 0 0 1 forward_v I I I I #
coedge $-1 $353 $243 $245 $357 reversed $151 $-1 #
coedge $-1 $243 $352 $433 $434 reversed $151 $-1 #
coedge $-1 $251 $246 $243 $355 forward $241 $-1 #
edge $-1 $358 3.0404307209097396 $435 7.9035950415268132 $354 $436 forward 7 unknown #
coedge $-1 $245 $244 $361 $437 reversed $95 $-1 #
edge $-1 $438 -143.45408490249346 $358 -133.42300413282362 $352 $439 forward 7 unknown #
vertex $-1 $247 $440 #
straight-curve $-1 66.863878130629615 -5.7638886680678034 11.729068626693845 0 -1 0 I I #
coedge $-1 $433 $248 $251 $365 reversed $350 $-1 #
coedge $-1 $248 $433 $356 $437 forward $350 $-1 #
vertex $-1 $249 $441 #
straight-curve $-1 71.727042451246689 1.7763568394002505e-015 98.985688447688318 0 0 1 I I #
straight-curve $-1 2.1791240002280148 1.7763568394002505e-015 128.423458444358 0.48480960649040278 0 -0.87461971476443456 I I #
edge $-1 $435 -23.055554672271214 $252 1.7763568394002505e-015 $360 $442 forward 7 unknown #
point $-1 71.727042451246689 1.7763568394002505e-015 11.729068626693838 #
point $-1 66.863878130629615 1.7763568394002505e-015 11.729068626693831 #
edge $-1 $443 1 $443 0 $255 $-1 forward 7 unknown #
vertex $-1 $256 $444 #
ellipse-curve $-1 66.209200724612884 -11.527777336135607 5.6316365766281011 0.87461971476443456 0 0.48480960649040278 0.72721440973560414 0 -1.311929572146652 1 I I #
point $-1 70.022674700673761 -11.527777336135607 6.0304485537734065 #
loop $-1 $-1 $377 $259 #
plane-surface $-1 0 0 11.729068626693838 0 0 1 1 0 0 forward_v I I I I #
coedge $-1 $265 $379 $445 $446 reversed $260 $-1 #
coedge $-1 $262 $271 $379 $447 forward $166 $-1 #
edge $-1 $381 5.7638886680678052 $272 28.819443340339024 $262 $448 forward 7 unknown #
coedge $-1 $445 $269 $263 $378 forward $372 $-1 #
edge $-1 $383 -28.819443340339024 $380 -5.7638886680678052 $377 $449 forward 7 unknown #
coedge $-1 $374 $265 $375 $447 reversed $260 $-1 #
vertex $-1 $378 $450 #
vertex $-1 $376 $451 #
straight-curve $-1 2.1791240002280148 1.7763568394002505e-015 128.423458444358 0.48480960649040278 0 -0.87461971476443456 I I #
vertex $-1 $270 $452 #
straight-curve $-1 2.1791240002280148 23.055554672271221 128.423458444358 0.48480960649040278 0 -0.87461971476443456 I I #
coedge $-1 $269 $445 $271 $387 forward $372 $-1 #
straight-curve $-1 63.823447409719876 23.055554672271221 11.729068626693845 -1 0 0 I I #
edge $-1 $453 1.7763568394002505e-015 $273 23.055554672271221 $271 $454 forward 7 unknown #
point $-1 71.727042451246689 23.055554672271221 2.9556876251462114 #
point $-1 71.727042451246689 23.055554672271221 11.729068626693838 #
edge $-1 $455 1 $455 0 $275 $-1 forward 7 unknown #
vertex $-1 $276 $456 #
ellipse-curve $-1 66.209200724612884 11.527777336135614 5.6316365766281011 0.87461971476443456 0 0.48480960649040278 0.72721440973560414 0 -1.311929572146652 1 I I #
point $-1 70.022674700673761 11.527777336135614 6.0304485537734065 #
plane-surface $-1 71.727042451246689 0 0 -1 0 0 0 0 1 forward_v I I I I #
coedge $-1 $284 $282 $286 $399 reversed $181 $-1 #
edge $-1 $297 -11.729068626693838 $401 11.729068626693838 $296 $457 forward 7 unknown #
vertex $-1 $399 $458 #
straight-curve $-1 -71.727042451246689 -48.766814918458167 0 0 0 -1 I I #
edge $-1 $397 -48.766814918458167 $401 48.766814918458167 $395 $459 forward 7 unknown #
straight-curve $-1 0 -48.766814918458167 -11.729068626693838 -1 0 0 I I #
vertex $-1 $289 $460 #
straight-curve $-1 0 48.766814918458167 -11.729068626693838 1 0 0 I I #
point $-1 71.727042451246689 48.766814918458167 -11.729068626693838 #
point $-1 71.727042451246689 -48.766814918458167 -11.729068626693838 #
straight-curve $-1 -71.727042451246689 0 11.729068626693838 0 -1 0 I I #
point $-1 -71.727042451246689 48.766814918458167 11.729068626693838 #
point $-1 -71.727042451246689 -48.766814918458167 11.729068626693838 #
straight-curve $-1 71.727042451246689 -48.766814918458167 0 0 0 -1 I I #
straight-curve $-1 71.727042451246689 48.766814918458167 0 0 0 -1 I I #
edge $-1 $411 24.522734411388619 $414 33.296115412936217 $307 $461 forward 7 unknown #
vertex $-1 $321 $462 #
straight-curve $-1 -98.597406635229206 1.7763568394002505e-015 11.729068626693838 -1 0 0 I I #
edge $-1 $414 -5.7638886680678052 $318 17.29166600420341 $317 $463 forward 7 unknown #
vertex $-1 $413 $464 #
straight-curve $-1 -71.727042451246675 1.7763568394002505e-015 2.9556876251462683 0.48480960649040278 0 0.87461971476443456 I I #
point $-1 -66.863878130629629 1.7763568394002505e-015 11.729068626693838 #
point $-1 -71.727042451246689 -23.055554672271214 2.9556876251462425 #
straight-curve $-1 -71.727042451246689 0 11.729068626693838 0 -1 0 I I #
vertex $-1 $324 $465 #
point $-1 -65.48198631487729 -11.527777336135607 6.9435661487747531 #
straight-curve $-1 -71.727042451246675 23.055554672271221 2.9556876251462683 0.48480960649040278 0 0.87461971476443456 I I #
coedge $-1 $332 $338 $334 $424 reversed $328 $-1 #
straight-curve $-1 -71.727042451246689 23.055554672271221 36.251803038082457 0 0 -1 I I #
edge $-1 $336 -23.055554672271221 $428 -1.7763568394002505e-015 $422 $466 forward 7 unknown #
point $-1 -66.863878130629629 23.055554672271221 11.729068626693838 #
point $-1 -71.727042451246689 23.055554672271221 11.729068626693838 #
point $-1 -71.727042451246689 23.055554672271221 2.9556876251462425 #
vertex $-1 $343 $467 #
straight-curve $-1 -98.597406635229206 1.7763568394002505e-015 11.729068626693838 1 0 0 I I #
straight-curve $-1 -71.727042451246689 1.7763568394002505e-015 36.251803038082457 0 0 1 I I #
vertex $-1 $346 $468 #
point $-1 -65.48198631487729 11.527777336135614 6.9435661487747531 #
coedge $-1 $361 $360 $353 $434 forward $350 $-1 #
edge $-1 $435 87.256619820994473 $438 96.030000822542107 $433 $469 forward 7 unknown #
vertex $-1 $365 $470 #
straight-curve $-1 63.823447409719876 -23.055554672271214 11.729068626693845 1 0 0 I I #
edge $-1 $438 -17.29166600420341 $362 5.7638886680678052 $361 $471 forward 7 unknown #
vertex $-1 $437 $472 #
straight-curve $-1 2.1791240002280148 -23.055554672271214 128.423458444358 -0.48480960649040278 0 0.87461971476443456 I I #
point $-1 66.863878130629615 -23.055554672271214 11.729068626693831 #
point $-1 71.727042451246689 1.7763568394002505e-015 2.9556876251462114 #
straight-curve $-1 71.727042451246689 0 11.729068626693838 0 1 0 I I #
vertex $-1 $368 $473 #
point $-1 66.936415134348493 -11.527777336135607 4.3197070044814492 #
coedge $-1 $385 $377 $374 $446 forward $372 $-1 #
edge $-1 $380 3.0404307209097396 $453 7.9035950415268132 $445 $474 forward 7 unknown #
edge $-1 $453 87.256619820994473 $381 96.030000822542107 $375 $475 forward 7 unknown #
straight-curve $-1 71.727042451246689 -5.7638886680678034 2.9556876251462327 0 1 0 I I #
straight-curve $-1 66.863878130629615 -5.7638886680678034 11.729068626693845 0 -1 0 I I #
point $-1 66.863878130629615 1.7763568394002505e-015 11.729068626693831 #
point $-1 71.727042451246689 1.7763568394002505e-015 2.9556876251462114 #
point $-1 66.863878130629615 23.055554672271221 11.729068626693831 #
vertex $-1 $387 $476 #
straight-curve $-1 71.727042451246689 0 11.729068626693838 0 1 0 I I #
vertex $-1 $390 $477 #
point $-1 66.936415134348493 11.527777336135614 4.3197070044814492 #
straight-curve $-1 -71.727042451246689 48.766814918458167 0 0 0 -1 I I #
point $-1 -71.727042451246689 -48.766814918458167 -11.729068626693838 #
straight-curve $-1 -71.727042451246689 0 -11.729068626693838 0 1 0 I I #
point $-1 -71.727042451246689 48.766814918458167 -11.729068626693838 #
straight-curve $-1 -71.727042451246689 1.7763568394002505e-015 36.251803038082457 0 0 -1 I I #
point $-1 -71.727042451246689 1.7763568394002505e-015 11.729068626693838 #
straight-curve $-1 -71.727042451246689 -5.7638886680678034 2.9556876251462487 0 -1 0 I I #
point $-1 -71.727042451246689 1.7763568394002505e-015 2.9556876251462425 #
point $-1 -64.897271152466246 -11.527777336135607 4.9044221668924974 #
straight-curve $-1 -71.727042451246689 0 11.729068626693838 0 -1 0 I I #
point $-1 -71.727042451246689 1.7763568394002505e-015 11.729068626693838 #
point $-1 -64.897271152466246 11.527777336135614 4.9044221668924974 #
straight-curve $-1 71.727042451246689 -23.055554672271214 98.985688447688318 0 0 -1 I I #
point $-1 71.727042451246689 -23.055554672271214 11.729068626693838 #
straight-curve $-1 71.727042451246689 -5.7638886680678034 2.9556876251462327 0 1 0 I I #
point $-1 71.727042451246689 -23.055554672271214 2.9556876251462114 #
point $-1 64.897271152466232 -11.527777336135607 4.9044221668924974 #
straight-curve $-1 63.823447409719876 1.7763568394002505e-015 11.729068626693845 1 0 0 I I #
straight-curve $-1 71.727042451246689 1.7763568394002505e-015 98.985688447688318 0 0 -1 I I #
point $-1 71.727042451246689 1.7763568394002505e-015 11.729068626693838 #
point $-1 64.897271152466232 11.527777336135614 4.9044221668924974 #
End-of-ACIS-data 