500 0 8 0           
7 Unknown 11 ACIS 5.0 NT 24 Fri Mar 26 01:59:10 1999 
-1 9.9999999999999995e-007 1e-010 
body $-1 $8 $-1 $9 #
body $-1 $10 $-1 $11 #
body $-1 $12 $-1 $13 #
body $-1 $14 $-1 $15 #
body $-1 $16 $-1 $17 #
body $-1 $18 $-1 $19 #
body $-1 $20 $-1 $21 #
body $-1 $22 $-1 $23 #
lump $-1 $-1 $24 $0 #
transform $-1 1 0 0 0 1 0 0 0 1 55.956297494430373 27.122931187316183 12.287804464536617 1 rotate no_reflect no_shear #
lump $-1 $-1 $25 $1 #
transform $-1 1 0 0 0 1 0 0 0 1 55.956297494430373 27.122931187316183 12.287804464536617 1 rotate no_reflect no_shear #
lump $-1 $-1 $26 $2 #
transform $-1 1 0 0 0 1 0 0 0 1 55.956297494430373 27.122931187316183 12.287804464536617 1 rotate no_reflect no_shear #
lump $-1 $-1 $27 $3 #
transform $-1 1 0 0 0 1 0 0 0 1 55.956297494430373 27.122931187316183 12.287804464536617 1 rotate no_reflect no_shear #
lump $-1 $-1 $28 $4 #
transform $-1 1 0 0 0 1 0 0 0 1 55.956297494430373 27.122931187316183 12.287804464536617 1 rotate no_reflect no_shear #
lump $-1 $-1 $29 $5 #
transform $-1 1 0 0 0 1 0 0 0 1 55.956297494430373 27.122931187316183 12.287804464536617 1 rotate no_reflect no_shear #
lump $-1 $-1 $30 $6 #
transform $-1 1 0 0 0 1 0 0 0 1 55.956297494430373 27.122931187316183 12.287804464536617 1 rotate no_reflect no_shear #
lump $-1 $-1 $31 $7 #
transform $-1 1 0 0 0 1 0 0 0 1 55.956297494430373 27.122931187316183 12.287804464536617 1 rotate no_reflect no_shear #
shell $-1 $-1 $-1 $32 $-1 $8 #
shell $-1 $-1 $-1 $33 $-1 $10 #
shell $-1 $-1 $-1 $34 $-1 $12 #
shell $-1 $-1 $-1 $35 $-1 $14 #
shell $-1 $-1 $-1 $36 $-1 $16 #
shell $-1 $-1 $-1 $37 $-1 $18 #
shell $-1 $-1 $-1 $38 $-1 $20 #
shell $-1 $-1 $-1 $39 $-1 $22 #
face $-1 $40 $41 $24 $-1 $42 forward single #
face $-1 $43 $44 $25 $-1 $45 reversed single #
face $-1 $46 $47 $26 $-1 $48 reversed single #
face $-1 $49 $50 $27 $-1 $51 forward single #
face $-1 $52 $53 $28 $-1 $54 forward single #
face $-1 $55 $56 $29 $-1 $57 reversed single #
face $-1 $58 $59 $30 $-1 $60 forward single #
face $-1 $61 $62 $31 $-1 $63 forward single #
face $-1 $64 $65 $24 $-1 $66 reversed single #
loop $-1 $-1 $67 $32 #
plane-surface $-1 0 0 12.287804464536617 0 0 1 1 0 0 forward_v I I I I #
face $-1 $68 $69 $25 $-1 $70 reversed single #
loop $-1 $-1 $71 $33 #
plane-surface $-1 -42.79847478408621 -20.317695546211418 0 1 0 0 0 0 -1 forward_v I I I I #
face $-1 $72 $73 $26 $-1 $74 reversed single #
loop $-1 $-1 $75 $34 #
plane-surface $-1 -147.62972937151943 -13.512459905106647 64.724729269536937 0 1 0 -0.81915205242281985 0 0.57357642473473569 forward_v I I I I #
face $-1 $76 $77 $27 $-1 $78 forward single #
loop $-1 $79 $80 $35 #
cone-surface $-1 -51.235769473987098 -10.595401930433439 5.9870200152527611 0.81915205242281985 0 -0.57357642473473569 0.57357642473473569 0 0.81915205242281985 1 I I 0 1 1 forward I I I I #
face $-1 $81 $82 $28 $-1 $83 forward single #
loop $-1 $84 $85 $36 #
cone-surface $-1 -51.235769473987098 -6.219814968423627 5.9870200152527611 0.81915205242281985 0 -0.57357642473473569 0.57357642473473569 0 0.81915205242281985 1 I I 0 1 1 forward I I I I #
face $-1 $86 $87 $29 $-1 $88 reversed single #
loop $-1 $-1 $89 $37 #
plane-surface $-1 69.750291606551599 15.446199144522865 162.07369745526253 0 1 0 0.7660444514056185 0 0.64278759981090561 forward_v I I I I #
face $-1 $90 $91 $30 $-1 $92 forward single #
loop $-1 $93 $94 $38 #
cone-surface $-1 51.779655720480335 18.782408299606672 7.6172699694799411 -0.7660444514056185 0 -0.64278759981090561 0.96418139971635841 0 -1.1490666771084277 1 I I 0 1 1.5 forward I I I I #
face $-1 $95 $96 $31 $-1 $97 forward single #
loop $-1 $98 $99 $39 #
cone-surface $-1 51.779655720480335 23.786722032232376 7.6172699694799411 -0.7660444514056185 0 -0.64278759981090561 0.96418139971635841 0 -1.1490666771084277 1 I I 0 1 1.5 forward I I I I #
face $-1 $100 $101 $24 $-1 $102 reversed single #
loop $-1 $-1 $103 $40 #
plane-surface $-1 0 0 -12.287804464536617 0 0 1 1 0 0 forward_v I I I I #
coedge $-1 $104 $105 $106 $107 forward $41 $-1 #
face $-1 $108 $109 $25 $-1 $110 reversed single #
loop $-1 $-1 $111 $43 #
plane-surface $-1 -40.382501998577098 -13.512459905106651 0 0 -1 0 0 0 -1 forward_v I I I I #
coedge $-1 $112 $113 $114 $115 forward $44 $-1 #
face $-1 $116 $117 $26 $-1 $118 reversed single #
loop $-1 $-1 $119 $46 #
plane-surface $-1 -55.956297494430373 -8.4076084494285297 0.53430315303968712 -0.81915205242281985 0 0.57357642473473569 0.57357642473473569 0 0.81915205242281985 forward_v I I I I #
coedge $-1 $120 $121 $122 $123 reversed $47 $-1 #
face $-1 $-1 $124 $27 $-1 $125 forward single #
loop $-1 $126 $127 $49 #
cone-surface $-1 -50.220610412469121 -10.595401930433439 5.2761980093500007 0.81915205242281985 0 -0.57357642473473569 0.28678821236736785 0 0.40957602621140993 1 I I -0.70710678118654813 0.70710678118654691 0.5 forward I I I I #
loop $-1 $-1 $128 $35 #
coedge $-1 $80 $80 $129 $130 reversed $50 $-1 #
face $-1 $-1 $131 $28 $-1 $132 forward single #
loop $-1 $133 $134 $52 #
cone-surface $-1 -50.220610412469121 -6.219814968423627 5.2761980093500007 0.81915205242281985 0 -0.57357642473473569 0.28678821236736785 0 0.40957602621140993 1 I I -0.70710678118654813 0.70710678118654691 0.5 forward I I I I #
loop $-1 $-1 $135 $36 #
coedge $-1 $85 $85 $136 $137 reversed $53 $-1 #
face $-1 $138 $139 $29 $-1 $140 forward single #
loop $-1 $-1 $141 $55 #
plane-surface $-1 -15.979730827069403 21.284565165919524 90.137669133762756 0.7660444514056185 0 0.64278759981090561 0.64278759981090561 0 -0.7660444514056185 forward_v I I I I #
coedge $-1 $142 $143 $144 $145 reversed $56 $-1 #
face $-1 $-1 $146 $30 $-1 $147 forward single #
loop $-1 $148 $149 $58 #
cone-surface $-1 50.334599258279169 18.782408299606672 6.404723656762517 -0.7660444514056185 0 -0.64278759981090561 0.48209069985817921 0 -0.57453333855421385 1 I I -0.70710678118654757 0.70710678118654757 0.75 forward I I I I #
loop $-1 $-1 $150 $38 #
coedge $-1 $94 $94 $151 $152 reversed $59 $-1 #
face $-1 $-1 $153 $31 $-1 $154 forward single #
loop $-1 $155 $156 $61 #
cone-surface $-1 50.334599258279169 23.786722032232376 6.404723656762517 -0.7660444514056185 0 -0.64278759981090561 0.48209069985817921 0 -0.57453333855421385 1 I I -0.70710678118654757 0.70710678118654757 0.75 forward I I I I #
loop $-1 $-1 $157 $39 #
coedge $-1 $99 $99 $158 $159 reversed $62 $-1 #
face $-1 $160 $161 $24 $-1 $162 reversed single #
loop $-1 $-1 $163 $64 #
plane-surface $-1 0 -27.122931187316183 0 0 1 0 0 0 1 forward_v I I I I #
coedge $-1 $164 $165 $166 $167 forward $65 $-1 #
coedge $-1 $168 $67 $169 $170 forward $41 $-1 #
coedge $-1 $67 $168 $171 $172 forward $41 $-1 #
coedge $-1 $173 $174 $67 $107 reversed $175 $-1 #
edge $-1 $176 -27.122931187316183 $177 27.122931187316183 $106 $178 forward 7 unknown #
face $-1 $179 $180 $25 $-1 $181 forward single #
loop $-1 $-1 $182 $68 #
plane-surface $-1 -37.966529213067986 -20.317695546211418 0 -1 0 0 0 0 1 forward_v I I I I #
coedge $-1 $183 $184 $185 $186 forward $69 $-1 #
coedge $-1 $187 $71 $188 $189 reversed $44 $-1 #
coedge $-1 $71 $187 $190 $191 reversed $44 $-1 #
coedge $-1 $184 $183 $71 $115 reversed $69 $-1 #
edge $-1 $192 -12.287804464536617 $193 12.287804464536617 $114 $194 forward 7 unknown #
face $-1 $195 $196 $26 $-1 $197 reversed single #
loop $-1 $-1 $198 $72 #
plane-surface $-1 -147.62972937151943 -3.3027569937504122 64.724729269536937 0 -1 0 0.81915205242281985 0 -0.57357642473473569 forward_v I I I I #
coedge $-1 $199 $200 $201 $202 reversed $73 $-1 #
coedge $-1 $121 $75 $203 $204 reversed $47 $-1 #
coedge $-1 $75 $120 $199 $205 reversed $47 $-1 #
coedge $-1 $201 $206 $75 $123 forward $207 $-1 #
edge $-1 $208 17.858567191329342 $209 26.088457161602747 $122 $210 forward 7 unknown #
loop $-1 $-1 $129 $76 #
plane-surface $-1 -55.956297494430373 -8.4076084494285297 0.53430315303968712 -0.81915205242281985 0 0.57357642473473569 0.57357642473473569 0 0.81915205242281985 forward_v I I I I #
loop $-1 $-1 $211 $49 #
coedge $-1 $127 $127 $128 $212 reversed $77 $-1 #
coedge $-1 $128 $128 $127 $212 forward $79 $-1 #
coedge $-1 $129 $129 $80 $130 forward $124 $-1 #
edge $-1 $213 0 $213 6.2831853071796004 $129 $214 forward 7 unknown #
loop $-1 $-1 $136 $81 #
plane-surface $-1 -55.956297494430373 -8.4076084494285297 0.53430315303968712 -0.81915205242281985 0 0.57357642473473569 0.57357642473473569 0 0.81915205242281985 forward_v I I I I #
loop $-1 $-1 $215 $52 #
coedge $-1 $134 $134 $135 $216 reversed $82 $-1 #
coedge $-1 $135 $135 $134 $216 forward $84 $-1 #
coedge $-1 $136 $136 $85 $137 forward $131 $-1 #
edge $-1 $217 0 $217 6.2831853071796004 $136 $218 forward 7 unknown #
face $-1 $219 $220 $29 $-1 $221 reversed single #
loop $-1 $-1 $222 $86 #
plane-surface $-1 0 0 12.287804464536617 0 0 1 1 0 0 forward_v I I I I #
coedge $-1 $223 $224 $225 $226 reversed $87 $-1 #
coedge $-1 $143 $89 $227 $228 reversed $56 $-1 #
coedge $-1 $89 $142 $223 $229 reversed $56 $-1 #
coedge $-1 $225 $230 $89 $145 forward $231 $-1 #
edge $-1 $232 68.749044263094646 $233 76.629202027489498 $144 $234 forward 7 unknown #
loop $-1 $-1 $151 $90 #
plane-surface $-1 -15.979730827069403 21.284565165919524 90.137669133762756 0.7660444514056185 0 0.64278759981090561 0.64278759981090561 0 -0.7660444514056185 forward_v I I I I #
loop $-1 $-1 $235 $58 #
coedge $-1 $149 $149 $150 $236 reversed $91 $-1 #
coedge $-1 $150 $150 $149 $236 forward $93 $-1 #
coedge $-1 $151 $151 $94 $152 forward $146 $-1 #
edge $-1 $237 0 $237 6.2831853071796004 $151 $238 forward 7 unknown #
loop $-1 $-1 $158 $95 #
plane-surface $-1 -15.979730827069403 21.284565165919524 90.137669133762756 0.7660444514056185 0 0.64278759981090561 0.64278759981090561 0 -0.7660444514056185 forward_v I I I I #
loop $-1 $-1 $239 $61 #
coedge $-1 $156 $156 $157 $240 reversed $96 $-1 #
coedge $-1 $157 $157 $156 $240 forward $98 $-1 #
coedge $-1 $158 $158 $99 $159 forward $153 $-1 #
edge $-1 $241 0 $241 6.2831853071796004 $158 $242 forward 7 unknown #
face $-1 $243 $244 $24 $-1 $245 reversed single #
loop $-1 $-1 $246 $100 #
plane-surface $-1 -55.956297494430373 0 0 1 0 0 0 0 -1 forward_v I I I I #
coedge $-1 $247 $171 $248 $249 forward $101 $-1 #
coedge $-1 $250 $103 $247 $251 forward $65 $-1 #
coedge $-1 $103 $250 $252 $253 forward $65 $-1 #
coedge $-1 $174 $173 $103 $167 reversed $175 $-1 #
edge $-1 $254 -27.122931187316183 $255 27.122931187316183 $166 $256 forward 7 unknown #
coedge $-1 $105 $104 $257 $258 forward $41 $-1 #
coedge $-1 $259 $260 $104 $170 reversed $244 $-1 #
edge $-1 $177 -55.956297494430373 $261 55.956297494430373 $169 $262 forward 7 unknown #
coedge $-1 $163 $263 $105 $172 reversed $101 $-1 #
edge $-1 $264 -55.956297494430373 $176 55.956297494430373 $171 $265 forward 7 unknown #
coedge $-1 $166 $106 $263 $266 forward $175 $-1 #
coedge $-1 $106 $166 $259 $267 reversed $175 $-1 #
loop $-1 $-1 $173 $243 #
vertex $-1 $107 $268 #
vertex $-1 $107 $269 #
straight-curve $-1 55.956297494430373 0 12.287804464536617 0 1 0 I I #
face $-1 $270 $271 $25 $-1 $272 reversed single #
loop $-1 $-1 $273 $108 #
plane-surface $-1 0 0 12.287804464536617 0 0 1 1 0 0 forward_v I I I I #
coedge $-1 $274 $275 $276 $277 reversed $109 $-1 #
coedge $-1 $114 $111 $278 $279 reversed $69 $-1 #
coedge $-1 $111 $114 $280 $281 reversed $69 $-1 #
coedge $-1 $275 $274 $111 $186 reversed $109 $-1 #
edge $-1 $282 -12.287804464536617 $283 12.287804464536617 $185 $284 forward 7 unknown #
coedge $-1 $113 $112 $285 $286 reversed $44 $-1 #
coedge $-1 $278 $287 $112 $189 forward $271 $-1 #
edge $-1 $288 -16.964083414210474 $193 -3.3536121320009418 $188 $289 forward 7 unknown #
coedge $-1 $290 $280 $113 $191 forward $180 $-1 #
edge $-1 $192 3.3536121320009418 $291 16.964083414210474 $190 $292 forward 7 unknown #
vertex $-1 $191 $293 #
vertex $-1 $189 $294 #
straight-curve $-1 -42.79847478408621 -13.512459905106651 0 0 0 -1 I I #
face $-1 $-1 $207 $26 $-1 $295 forward single #
loop $-1 $-1 $296 $116 #
plane-surface $-1 -55.956297494430373 0 0 1 0 0 0 0 -1 forward_v I I I I #
coedge $-1 $297 $298 $299 $300 reversed $117 $-1 #
coedge $-1 $301 $119 $121 $205 forward $73 $-1 #
coedge $-1 $119 $301 $297 $302 forward $73 $-1 #
coedge $-1 $299 $122 $119 $202 forward $207 $-1 #
edge $-1 $209 -9.3086556803923823 $303 0.90104723096385264 $201 $304 forward 7 unknown #
coedge $-1 $305 $306 $120 $204 forward $196 $-1 #
edge $-1 $307 -31.828061481728781 $208 -20.074560170231852 $203 $308 forward 7 unknown #
edge $-1 $209 -14.348375587576694 $307 0 $121 $309 forward 7 unknown #
coedge $-1 $122 $299 $305 $310 forward $207 $-1 #
loop $-1 $-1 $299 $195 #
vertex $-1 $204 $311 #
vertex $-1 $123 $312 #
straight-curve $-1 -73.814864685759716 -13.512459905106647 12.287804464536617 1 0 0 I I #
coedge $-1 $211 $211 $-1 $313 reversed $126 $-1 #
edge $-1 $314 0 $314 6.2831853071796004 $127 $315 forward 7 unknown #
vertex $-1 $130 $316 #
ellipse-curve $-1 -51.841352509293671 -10.595401930433439 6.4110538087881563 -0.81915205242281985 0 0.57357642473473569 0.57357642473473569 0 0.81915205242281985 1 I I #
coedge $-1 $215 $215 $-1 $317 reversed $133 $-1 #
edge $-1 $318 0 $318 6.2831853071796004 $134 $319 forward 7 unknown #
vertex $-1 $137 $320 #
ellipse-curve $-1 -51.841352509293671 -6.219814968423627 6.4110538087881563 -0.81915205242281985 0 0.57357642473473569 0.57357642473473569 0 0.81915205242281985 1 I I #
face $-1 $-1 $231 $29 $-1 $321 reversed single #
loop $-1 $-1 $322 $138 #
plane-surface $-1 0 27.122931187316183 0 0 -1 0 0 0 -1 forward_v I I I I #
coedge $-1 $227 $323 $324 $325 forward $139 $-1 #
coedge $-1 $324 $141 $143 $229 forward $87 $-1 #
coedge $-1 $141 $324 $322 $326 reversed $87 $-1 #
coedge $-1 $327 $144 $141 $226 forward $231 $-1 #
edge $-1 $233 4.8039165615631028 $328 16.480648604356421 $225 $329 forward 7 unknown #
coedge $-1 $330 $222 $142 $228 forward $139 $-1 #
edge $-1 $331 14.468914390548377 $232 21.081151691154574 $227 $332 forward 7 unknown #
edge $-1 $233 -111.91259498886076 $331 -101.62577971340838 $143 $333 forward 7 unknown #
coedge $-1 $144 $327 $330 $334 reversed $231 $-1 #
loop $-1 $-1 $225 $219 #
vertex $-1 $334 $335 #
vertex $-1 $145 $336 #
straight-curve $-1 55.956297494430373 15.446199144522865 81.036848727631266 0 0 -1 I I #
coedge $-1 $235 $235 $-1 $337 reversed $148 $-1 #
edge $-1 $338 0 $338 6.2831853071796004 $149 $339 forward 7 unknown #
vertex $-1 $152 $340 #
ellipse-curve $-1 52.650178844127289 18.782408299606672 8.3477255823391889 0.7660444514056185 0 0.64278759981090561 0.96418139971635841 0 -1.1490666771084277 1 I I #
coedge $-1 $239 $239 $-1 $341 reversed $155 $-1 #
edge $-1 $342 0 $342 6.2831853071796004 $156 $343 forward 7 unknown #
vertex $-1 $159 $344 #
ellipse-curve $-1 52.650178844127289 23.786722032232376 8.3477255823391889 0.7660444514056185 0 0.64278759981090561 0.96418139971635841 0 -1.1490666771084277 1 I I #
face $-1 $-1 $175 $24 $-1 $345 reversed single #
loop $-1 $-1 $259 $160 #
plane-surface $-1 0 27.122931187316183 0 0 -1 0 0 0 -1 forward_v I I I I #
coedge $-1 $346 $257 $260 $347 forward $161 $-1 #
coedge $-1 $263 $163 $164 $251 reversed $101 $-1 #
coedge $-1 $257 $346 $163 $249 reversed $161 $-1 #
edge $-1 $264 -12.287804464536617 $348 12.287804464536617 $248 $349 forward 7 unknown #
coedge $-1 $165 $164 $346 $350 forward $65 $-1 #
edge $-1 $255 -55.956297494430373 $348 55.956297494430373 $247 $351 forward 7 unknown #
coedge $-1 $260 $259 $165 $253 reversed $244 $-1 #
edge $-1 $352 -55.956297494430373 $254 55.956297494430373 $252 $353 forward 7 unknown #
vertex $-1 $167 $354 #
vertex $-1 $266 $355 #
straight-curve $-1 55.956297494430373 0 -12.287804464536617 0 -1 0 I I #
coedge $-1 $246 $248 $168 $258 reversed $161 $-1 #
edge $-1 $261 -27.122931187316183 $264 27.122931187316183 $257 $356 forward 7 unknown #
coedge $-1 $252 $169 $174 $267 forward $244 $-1 #
coedge $-1 $169 $252 $246 $347 reversed $244 $-1 #
vertex $-1 $170 $357 #
straight-curve $-1 0 27.122931187316183 12.287804464536617 -1 0 0 I I #
coedge $-1 $171 $247 $173 $266 reversed $101 $-1 #
vertex $-1 $258 $358 #
straight-curve $-1 0 -27.122931187316183 12.287804464536617 1 0 0 I I #
edge $-1 $176 -12.287804464536617 $255 12.287804464536617 $173 $359 forward 7 unknown #
edge $-1 $177 -12.287804464536617 $254 12.287804464536617 $174 $360 forward 7 unknown #
point $-1 55.956297494430373 -27.122931187316183 12.287804464536617 #
point $-1 55.956297494430373 27.122931187316183 12.287804464536617 #
face $-1 $-1 $361 $25 $-1 $362 reversed single #
loop $-1 $-1 $363 $179 #
plane-surface $-1 0 0 -12.287804464536617 0 0 1 1 0 0 forward_v I I I I #
coedge $-1 $280 $290 $275 $364 forward $180 $-1 #
coedge $-1 $185 $182 $363 $365 reversed $109 $-1 #
coedge $-1 $182 $185 $273 $364 reversed $109 $-1 #
coedge $-1 $366 $367 $182 $277 forward $361 $-1 #
edge $-1 $368 -12.287804464536617 $369 12.287804464536617 $276 $370 forward 7 unknown #
coedge $-1 $363 $188 $183 $279 forward $271 $-1 #
edge $-1 $193 -22.607223784797661 $283 -17.775278213779437 $278 $371 forward 7 unknown #
coedge $-1 $190 $273 $184 $281 forward $180 $-1 #
edge $-1 $282 17.775278213779437 $192 22.607223784797661 $280 $372 forward 7 unknown #
vertex $-1 $281 $373 #
vertex $-1 $279 $374 #
straight-curve $-1 -37.966529213067986 -13.512459905106651 0 0 0 -1 I I #
coedge $-1 $367 $366 $187 $286 forward $361 $-1 #
edge $-1 $291 -12.287804464536617 $288 12.287804464536617 $285 $375 forward 7 unknown #
coedge $-1 $188 $363 $367 $376 forward $271 $-1 #
vertex $-1 $189 $377 #
straight-curve $-1 -42.79847478408621 -10.158847773105709 -12.287804464536617 0 1 0 I I #
coedge $-1 $273 $190 $366 $378 forward $180 $-1 #
vertex $-1 $378 $379 #
straight-curve $-1 -42.79847478408621 -10.158847773105709 12.287804464536617 0 -1 0 I I #
point $-1 -42.79847478408621 -13.512459905106651 12.287804464536617 #
point $-1 -42.79847478408621 -13.512459905106651 -12.287804464536617 #
plane-surface $-1 0 0 12.287804464536617 0 0 1 1 0 0 forward_v I I I I #
coedge $-1 $306 $305 $298 $380 forward $196 $-1 #
coedge $-1 $298 $198 $200 $302 reversed $117 $-1 #
coedge $-1 $198 $297 $296 $380 reversed $117 $-1 #
coedge $-1 $206 $201 $198 $300 forward $207 $-1 #
edge $-1 $303 -26.088457161602747 $381 -17.858567191329342 $299 $382 forward 7 unknown #
coedge $-1 $200 $199 $306 $383 reversed $73 $-1 #
edge $-1 $384 0 $303 14.348375587576694 $297 $385 forward 7 unknown #
vertex $-1 $202 $386 #
straight-curve $-1 -47.726407524156969 -4.2038042247142648 12.287804464536617 0 1 0 I I #
coedge $-1 $296 $203 $206 $310 reversed $196 $-1 #
coedge $-1 $203 $296 $301 $383 forward $196 $-1 #
vertex $-1 $204 $387 #
straight-curve $-1 -55.956297494430373 -13.512459905106647 32.362364634768468 0 0 1 I I #
straight-curve $-1 -55.956297494430373 -13.512459905106647 0.53430315303968712 -0.57357642473473569 0 -0.81915205242281985 I I #
edge $-1 $381 3.3027569937504122 $208 13.512459905106647 $305 $388 forward 7 unknown #
point $-1 -55.956297494430373 -13.512459905106647 12.287804464536617 #
point $-1 -47.726407524156969 -13.512459905106647 12.287804464536617 #
edge $-1 $389 1 $389 0 $211 $-1 forward 7 unknown #
vertex $-1 $212 $390 #
ellipse-curve $-1 -50.630186438680532 -10.595401930433439 5.5629862217173685 -0.81915205242281985 0 0.57357642473473569 0.57357642473473569 0 0.81915205242281985 1 I I #
point $-1 -51.267776084558932 -10.595401930433439 7.2302058612109743 #
edge $-1 $391 1 $391 0 $215 $-1 forward 7 unknown #
vertex $-1 $216 $392 #
ellipse-curve $-1 -50.630186438680532 -6.219814968423627 5.5629862217173685 -0.81915205242281985 0 0.57357642473473569 0.57357642473473569 0 0.81915205242281985 1 I I #
point $-1 -51.267776084558932 -6.219814968423627 7.2302058612109743 #
plane-surface $-1 55.956297494430373 0 0 -1 0 0 0 0 1 forward_v I I I I #
coedge $-1 $393 $394 $224 $326 forward $220 $-1 #
coedge $-1 $222 $330 $393 $395 forward $139 $-1 #
coedge $-1 $224 $223 $222 $325 reversed $87 $-1 #
edge $-1 $396 -16.480648604356421 $331 -4.8039165615631028 $222 $397 forward 7 unknown #
edge $-1 $328 -72.252077925605391 $396 -61.965262650152994 $322 $398 forward 7 unknown #
coedge $-1 $230 $225 $394 $399 reversed $231 $-1 #
vertex $-1 $226 $400 #
straight-curve $-1 55.956297494430373 10.642282582959762 4.4076467001417612 0 1 0 I I #
coedge $-1 $323 $227 $230 $334 forward $139 $-1 #
vertex $-1 $228 $401 #
straight-curve $-1 34.875145803275799 15.446199144522865 12.28780446453662 1 0 0 I I #
straight-curve $-1 -15.979730827069403 15.446199144522865 90.137669133762756 -0.64278759981090561 0 0.7660444514056185 I I #
edge $-1 $232 15.446199144522865 $402 27.122931187316183 $230 $403 forward 7 unknown #
point $-1 55.956297494430373 15.446199144522865 12.287804464536617 #
point $-1 55.956297494430373 15.446199144522865 4.4076467001417683 #
edge $-1 $404 1 $404 0 $235 $-1 forward 7 unknown #
vertex $-1 $236 $405 #
ellipse-curve $-1 50.909132596833381 18.782408299606672 6.8868143566206959 0.7660444514056185 0 0.64278759981090561 0.96418139971635841 0 -1.1490666771084277 1 I I #
point $-1 53.614360243843642 18.782408299606672 7.1986589052307579 #
edge $-1 $406 1 $406 0 $239 $-1 forward 7 unknown #
vertex $-1 $240 $407 #
ellipse-curve $-1 50.909132596833381 23.786722032232376 6.8868143566206959 0.7660444514056185 0 0.64278759981090561 0.96418139971635841 0 -1.1490666771084277 1 I I #
point $-1 53.614360243843642 23.786722032232376 7.1986589052307579 #
plane-surface $-1 55.956297494430373 0 0 -1 0 0 0 0 1 forward_v I I I I #
coedge $-1 $248 $246 $250 $350 reversed $161 $-1 #
edge $-1 $261 -12.287804464536617 $352 12.287804464536617 $260 $408 forward 7 unknown #
vertex $-1 $350 $409 #
straight-curve $-1 -55.956297494430373 -27.122931187316183 0 0 0 -1 I I #
edge $-1 $348 -27.122931187316183 $352 27.122931187316183 $346 $410 forward 7 unknown #
straight-curve $-1 0 -27.122931187316183 -12.287804464536617 -1 0 0 I I #
vertex $-1 $253 $411 #
straight-curve $-1 0 27.122931187316183 -12.287804464536617 1 0 0 I I #
point $-1 55.956297494430373 27.122931187316183 -12.287804464536617 #
point $-1 55.956297494430373 -27.122931187316183 -12.287804464536617 #
straight-curve $-1 -55.956297494430373 0 12.287804464536617 0 -1 0 I I #
point $-1 -55.956297494430373 27.122931187316183 12.287804464536617 #
point $-1 -55.956297494430373 -27.122931187316183 12.287804464536617 #
straight-curve $-1 55.956297494430373 -27.122931187316183 0 0 0 -1 I I #
straight-curve $-1 55.956297494430373 27.122931187316183 0 0 0 -1 I I #
loop $-1 $-1 $276 $270 #
plane-surface $-1 0 -27.122931187316183 0 0 1 0 0 0 1 forward_v I I I I #
coedge $-1 $287 $278 $274 $365 forward $271 $-1 #
edge $-1 $369 -16.964083414210474 $282 -3.3536121320009418 $273 $412 forward 7 unknown #
edge $-1 $283 3.3536121320009418 $368 16.964083414210474 $363 $413 forward 7 unknown #
coedge $-1 $285 $276 $290 $378 reversed $361 $-1 #
coedge $-1 $276 $285 $287 $376 reversed $361 $-1 #
vertex $-1 $376 $414 #
vertex $-1 $277 $415 #
straight-curve $-1 -37.966529213067986 -27.122931187316183 0 0 0 1 I I #
straight-curve $-1 -20.191250999288549 -13.512459905106651 -12.287804464536617 1 0 0 I I #
straight-curve $-1 -20.191250999288549 -13.512459905106651 12.287804464536617 -1 0 0 I I #
point $-1 -37.966529213067986 -13.512459905106651 12.287804464536617 #
point $-1 -37.966529213067986 -13.512459905106651 -12.287804464536617 #
straight-curve $-1 -42.79847478408621 -27.122931187316183 0 0 0 -1 I I #
edge $-1 $368 37.966529213067986 $288 42.79847478408621 $367 $416 forward 7 unknown #
point $-1 -42.79847478408621 -27.122931187316183 -12.287804464536617 #
edge $-1 $291 -42.79847478408621 $369 -37.966529213067986 $366 $417 forward 7 unknown #
point $-1 -42.79847478408621 -27.122931187316183 12.287804464536617 #
edge $-1 $381 20.074560170231852 $384 31.828061481728781 $296 $418 forward 7 unknown #
vertex $-1 $310 $419 #
straight-curve $-1 -73.814864685759716 -3.3027569937504122 12.287804464536617 -1 0 0 I I #
edge $-1 $384 -0.90104723096385264 $307 9.3086556803923823 $306 $420 forward 7 unknown #
vertex $-1 $383 $421 #
straight-curve $-1 -55.956297494430373 -3.3027569937504122 0.53430315303968712 0.57357642473473569 0 0.81915205242281985 I I #
point $-1 -47.726407524156969 -3.3027569937504122 12.287804464536617 #
point $-1 -55.956297494430373 -13.512459905106647 0.53430315303968712 #
straight-curve $-1 -55.956297494430373 0 12.287804464536617 0 -1 0 I I #
vertex $-1 $313 $422 #
point $-1 -50.056610013945793 -10.595401930433439 6.3821382741401882 #
vertex $-1 $317 $423 #
point $-1 -50.056610013945793 -6.219814968423627 6.3821382741401882 #
coedge $-1 $394 $322 $323 $395 reversed $220 $-1 #
coedge $-1 $322 $393 $327 $399 forward $220 $-1 #
edge $-1 $402 -55.956297494430373 $396 -49.344060193824177 $393 $424 forward 7 unknown #
vertex $-1 $326 $425 #
straight-curve $-1 49.344060193824177 10.642282582959762 12.28780446453662 0 -1 0 I I #
straight-curve $-1 9.5135577432799785 27.122931187316183 59.755950097578129 -0.64278759981090572 0 0.76604445140561861 I I #
edge $-1 $402 -12.287804464536617 $328 -4.4076467001417612 $327 $426 forward 7 unknown #
point $-1 55.956297494430373 27.122931187316183 4.4076467001417612 #
point $-1 49.344060193824177 15.446199144522865 12.28780446453662 #
vertex $-1 $334 $427 #
straight-curve $-1 55.956297494430373 0 12.287804464536617 0 1 0 I I #
vertex $-1 $337 $428 #
point $-1 51.87331399654974 18.782408299606672 5.7377476795122684 #
vertex $-1 $341 $429 #
point $-1 51.87331399654974 23.786722032232376 5.7377476795122684 #
straight-curve $-1 -55.956297494430373 27.122931187316183 0 0 0 -1 I I #
point $-1 -55.956297494430373 -27.122931187316183 -12.287804464536617 #
straight-curve $-1 -55.956297494430373 0 -12.287804464536617 0 1 0 I I #
point $-1 -55.956297494430373 27.122931187316183 -12.287804464536617 #
straight-curve $-1 -37.966529213067986 -10.158847773105709 12.287804464536617 0 1 0 I I #
straight-curve $-1 -37.966529213067986 -10.158847773105709 -12.287804464536617 0 -1 0 I I #
point $-1 -37.966529213067986 -27.122931187316183 -12.287804464536617 #
point $-1 -37.966529213067986 -27.122931187316183 12.287804464536617 #
straight-curve $-1 0 -27.122931187316183 -12.287804464536617 -1 0 0 I I #
straight-curve $-1 0 -27.122931187316183 12.287804464536617 1 0 0 I I #
straight-curve $-1 -55.956297494430373 -3.3027569937504122 32.362364634768468 0 0 -1 I I #
point $-1 -55.956297494430373 -3.3027569937504122 12.287804464536617 #
straight-curve $-1 -55.956297494430373 -4.2038042247142648 0.53430315303969111 0 -1 0 I I #
point $-1 -55.956297494430373 -3.3027569937504122 0.53430315303968712 #
point $-1 -49.81103438625771 -10.595401930433439 4.989409796982633 #
point $-1 -49.81103438625771 -6.219814968423627 4.989409796982633 #
straight-curve $-1 0 27.122931187316183 12.287804464536617 -1 0 0 I I #
point $-1 49.344060193824177 27.122931187316183 12.28780446453662 #
straight-curve $-1 55.956297494430373 27.122931187316183 0 0 0 -1 I I #
point $-1 55.956297494430373 27.122931187316183 12.287804464536617 #
point $-1 49.760065919724958 18.782408299606672 5.9226329569043381 #
point $-1 49.760065919724958 23.786722032232376 5.9226329569043381 #
End-of-ACIS-data 