500 0 14 0           
7 Unknown 11 ACIS 5.0 NT 24 Fri Mar 26 19:41:04 1999 
-1 9.9999999999999995e-007 1e-010 
body $-1 $14 $-1 $15 #
body $-1 $16 $-1 $17 #
body $-1 $18 $-1 $19 #
body $-1 $20 $-1 $21 #
body $-1 $22 $-1 $23 #
body $-1 $24 $-1 $25 #
body $-1 $26 $-1 $27 #
body $-1 $28 $-1 $29 #
body $-1 $30 $-1 $31 #
body $-1 $32 $-1 $33 #
body $-1 $34 $-1 $35 #
body $-1 $36 $-1 $37 #
body $-1 $38 $-1 $39 #
body $-1 $40 $-1 $41 #
lump $-1 $-1 $42 $0 #
transform $-1 1 0 0 0 1 0 0 0 1 48.869899594103828 33.691699539804219 15.682623972930141 1 rotate no_reflect no_shear #
lump $-1 $-1 $43 $1 #
transform $-1 1 0 0 0 1 0 0 0 1 48.869899594103828 33.691699539804219 15.682623972930141 1 rotate no_reflect no_shear #
lump $-1 $-1 $44 $2 #
transform $-1 1 0 0 0 1 0 0 0 1 48.869899594103828 33.691699539804219 15.682623972930141 1 rotate no_reflect no_shear #
lump $-1 $-1 $45 $3 #
transform $-1 1 0 0 0 1 0 0 0 1 48.869899594103828 33.691699539804219 15.682623972930141 1 rotate no_reflect no_shear #
lump $-1 $-1 $46 $4 #
transform $-1 1 0 0 0 1 0 0 0 1 48.869899594103828 33.691699539804219 15.682623972930141 1 rotate no_reflect no_shear #
lump $-1 $-1 $47 $5 #
transform $-1 1 0 0 0 1 0 0 0 1 48.869899594103828 33.691699539804219 15.682623972930141 1 rotate no_reflect no_shear #
lump $-1 $-1 $48 $6 #
transform $-1 1 0 0 0 1 0 0 0 1 48.869899594103828 33.691699539804219 15.682623972930141 1 rotate no_reflect no_shear #
lump $-1 $-1 $49 $7 #
transform $-1 1 0 0 0 1 0 0 0 1 48.869899594103828 33.691699539804219 15.682623972930141 1 rotate no_reflect no_shear #
lump $-1 $-1 $50 $8 #
transform $-1 1 0 0 0 1 0 0 0 1 48.869899594103828 33.691699539804219 15.682623972930141 1 rotate no_reflect no_shear #
lump $-1 $-1 $51 $9 #
transform $-1 1 0 0 0 1 0 0 0 1 48.869899594103828 33.691699539804219 15.682623972930141 1 rotate no_reflect no_shear #
lump $-1 $-1 $52 $10 #
transform $-1 1 0 0 0 1 0 0 0 1 48.869899594103828 33.691699539804219 15.682623972930141 1 rotate no_reflect no_shear #
lump $-1 $-1 $53 $11 #
transform $-1 1 0 0 0 1 0 0 0 1 48.869899594103828 33.691699539804219 15.682623972930141 1 rotate no_reflect no_shear #
lump $-1 $-1 $54 $12 #
transform $-1 1 0 0 0 1 0 0 0 1 48.869899594103828 33.691699539804219 15.682623972930141 1 rotate no_reflect no_shear #
lump $-1 $-1 $55 $13 #
transform $-1 1 0 0 0 1 0 0 0 1 48.869899594103828 33.691699539804219 15.682623972930141 1 rotate no_reflect no_shear #
shell $-1 $-1 $-1 $56 $-1 $14 #
shell $-1 $-1 $-1 $57 $-1 $16 #
shell $-1 $-1 $-1 $58 $-1 $18 #
shell $-1 $-1 $-1 $59 $-1 $20 #
shell $-1 $-1 $-1 $60 $-1 $22 #
shell $-1 $-1 $-1 $61 $-1 $24 #
shell $-1 $-1 $-1 $62 $-1 $26 #
shell $-1 $-1 $-1 $63 $-1 $28 #
shell $-1 $-1 $-1 $64 $-1 $30 #
shell $-1 $-1 $-1 $65 $-1 $32 #
shell $-1 $-1 $-1 $66 $-1 $34 #
shell $-1 $-1 $-1 $67 $-1 $36 #
shell $-1 $-1 $-1 $68 $-1 $38 #
shell $-1 $-1 $-1 $69 $-1 $40 #
face $-1 $70 $71 $42 $-1 $72 forward single #
face $-1 $73 $74 $43 $-1 $75 forward single #
face $-1 $76 $77 $44 $-1 $78 reversed single #
face $-1 $79 $80 $45 $-1 $81 forward single #
face $-1 $82 $83 $46 $-1 $84 reversed single #
face $-1 $85 $86 $47 $-1 $87 forward single #
face $-1 $88 $89 $48 $-1 $90 reversed single #
face $-1 $91 $92 $49 $-1 $93 forward single #
face $-1 $94 $95 $50 $-1 $96 reversed single #
face $-1 $97 $98 $51 $-1 $99 forward single #
face $-1 $100 $101 $52 $-1 $102 reversed single #
face $-1 $103 $104 $53 $-1 $105 forward single #
face $-1 $106 $107 $54 $-1 $108 forward single #
face $-1 $109 $110 $55 $-1 $111 forward single #
face $-1 $112 $113 $42 $-1 $114 reversed single #
loop $-1 $-1 $115 $56 #
plane-surface $-1 0 0 15.682623972930141 0 0 1 1 0 0 forward_v I I I I #
face $-1 $116 $117 $43 $-1 $118 reversed single #
loop $-1 $-1 $119 $57 #
plane-surface $-1 0 -27.145186378763725 -9.2052077821027254 0 0 1 1 0 0 forward_v I I I I #
face $-1 $120 $121 $44 $-1 $122 reversed single #
loop $-1 $-1 $123 $58 #
plane-surface $-1 24.867390217147175 -10.47737032584738 142.64881055324562 0 -1 0 -0.57357644374324357 0 -0.81915203911291934 forward_v I I I I #
face $-1 $124 $125 $45 $-1 $126 forward single #
loop $-1 $127 $128 $59 #
cone-surface $-1 41.946247106653821 -14.238389244319528 10.555406499200053 -0.57357644374324357 0 -0.81915203911291934 0.40957601955645967 0 -0.28678822187162178 1 I I 0 1 0.5 forward I I I I #
face $-1 $129 $130 $46 $-1 $131 reversed single #
loop $-1 $-1 $132 $60 #
plane-surface $-1 24.867390217147175 3.3792312777259728 142.64881055324562 0 -1 0 -0.57357644374324357 0 -0.81915203911291934 forward_v I I I I #
face $-1 $133 $134 $47 $-1 $135 forward single #
loop $-1 $136 $137 $61 #
cone-surface $-1 41.946247106653821 -0.38178764074617533 10.555406499200053 -0.57357644374324357 0 -0.81915203911291934 0.40957601955645967 0 -0.28678822187162178 1 I I 0 1 0.5 forward I I I I #
face $-1 $138 $139 $48 $-1 $140 reversed single #
loop $-1 $-1 $141 $62 #
plane-surface $-1 24.867390217147175 17.235832881299324 142.64881055324562 0 -1 0 -0.57357644374324357 0 -0.81915203911291934 forward_v I I I I #
face $-1 $142 $143 $49 $-1 $144 forward single #
loop $-1 $145 $146 $63 #
cone-surface $-1 41.946247106653821 13.474813962827177 10.555406499200053 -0.57357644374324357 0 -0.81915203911291934 0.40957601955645967 0 -0.28678822187162178 1 I I 0 1 0.5 forward I I I I #
face $-1 $147 $148 $50 $-1 $149 reversed single #
loop $-1 $-1 $150 $64 #
plane-surface $-1 24.867390217147175 31.092434484872676 142.64881055324562 0 -1 0 -0.57357644374324357 0 -0.81915203911291934 forward_v I I I I #
face $-1 $151 $152 $51 $-1 $153 forward single #
loop $-1 $154 $155 $65 #
cone-surface $-1 41.946247106653821 27.33141556640053 10.555406499200053 -0.57357644374324357 0 -0.81915203911291934 0.40957601955645967 0 -0.28678822187162178 1 I I 0 1 0.5 forward I I I I #
face $-1 $156 $157 $52 $-1 $158 reversed single #
loop $-1 $-1 $159 $66 #
plane-surface $-1 -129.89986624426737 -15.762561991689033 60.43954755353306 0 1 0 -0.82903758062907751 0 0.55919289150049634 forward_v I I I I #
face $-1 $160 $161 $53 $-1 $162 forward single #
loop $-1 $163 $164 $67 #
cone-surface $-1 -44.73181907832118 -14.137414531241841 10.193928931225274 0.82903758062907751 0 -0.55919289150049634 0.27959644575024817 0 0.41451879031453875 1 I I 0 1 0.5 forward I I I I #
face $-1 $165 $166 $54 $-1 $167 forward single #
loop $-1 $168 $169 $68 #
cone-surface $-1 -44.73181907832118 -11.699693340571056 10.193928931225274 0.82903758062907751 0 -0.55919289150049634 0.27959644575024817 0 0.41451879031453875 1 I I 0 1 0.5 forward I I I I #
face $-1 $170 $171 $55 $-1 $172 forward single #
loop $-1 $173 $174 $69 #
cone-surface $-1 -44.73181907832118 -9.2619721499002701 10.193928931225274 0.82903758062907751 0 -0.55919289150049634 0.27959644575024817 0 0.41451879031453875 1 I I 0 1 0.5 forward I I I I #
face $-1 $175 $176 $42 $-1 $177 reversed single #
loop $-1 $-1 $178 $70 #
plane-surface $-1 0 0 -15.682623972930141 0 0 1 1 0 0 forward_v I I I I #
coedge $-1 $179 $180 $181 $182 forward $71 $-1 #
face $-1 $183 $184 $43 $-1 $185 reversed single #
loop $-1 $-1 $186 $73 #
plane-surface $-1 0 -20.598673217723231 -12.443915877516433 0 -1 0 0 0 -1 forward_v I I I I #
coedge $-1 $187 $188 $189 $190 reversed $74 $-1 #
face $-1 $191 $192 $44 $-1 $193 reversed single #
loop $-1 $-1 $194 $76 #
plane-surface $-1 -31.193856213403734 -14.238389244319528 62.585054745738063 0.57357644374324357 0 0.81915203911291934 0.81915203911291934 0 -0.57357644374324357 forward_v I I I I #
coedge $-1 $195 $196 $197 $198 reversed $77 $-1 #
face $-1 $-1 $199 $45 $-1 $200 forward single #
loop $-1 $201 $202 $79 #
cone-surface $-1 41.419272545516719 -14.238389244319528 9.8028088445632342 -0.57357644374324357 0 -0.81915203911291934 0.20478800977822983 0 -0.14339411093581089 1 I I -0.70710678118654746 0.70710678118654746 0.25 forward I I I I #
loop $-1 $-1 $203 $59 #
coedge $-1 $128 $128 $204 $205 reversed $80 $-1 #
face $-1 $206 $207 $46 $-1 $208 reversed single #
loop $-1 $-1 $209 $82 #
plane-surface $-1 -31.193856213403734 -0.38178764074617533 62.585054745738063 0.57357644374324357 0 0.81915203911291934 0.81915203911291934 0 -0.57357644374324357 forward_v I I I I #
coedge $-1 $210 $211 $212 $213 reversed $83 $-1 #
face $-1 $-1 $214 $47 $-1 $215 forward single #
loop $-1 $216 $217 $85 #
cone-surface $-1 41.419272545516719 -0.38178764074617533 9.8028088445632342 -0.57357644374324357 0 -0.81915203911291934 0.20478800977822983 0 -0.14339411093581089 1 I I -0.70710678118654746 0.70710678118654746 0.25 forward I I I I #
loop $-1 $-1 $218 $61 #
coedge $-1 $137 $137 $219 $220 reversed $86 $-1 #
face $-1 $221 $222 $48 $-1 $223 reversed single #
loop $-1 $-1 $224 $88 #
plane-surface $-1 -31.193856213403734 13.474813962827177 62.585054745738063 0.57357644374324357 0 0.81915203911291934 0.81915203911291934 0 -0.57357644374324357 forward_v I I I I #
coedge $-1 $225 $226 $227 $228 reversed $89 $-1 #
face $-1 $-1 $229 $49 $-1 $230 forward single #
loop $-1 $231 $232 $91 #
cone-surface $-1 41.419272545516719 13.474813962827177 9.8028088445632342 -0.57357644374324357 0 -0.81915203911291934 0.20478800977822983 0 -0.14339411093581089 1 I I -0.70710678118654746 0.70710678118654746 0.25 forward I I I I #
loop $-1 $-1 $233 $63 #
coedge $-1 $146 $146 $234 $235 reversed $92 $-1 #
face $-1 $236 $237 $50 $-1 $238 reversed single #
loop $-1 $-1 $239 $94 #
plane-surface $-1 -31.193856213403734 27.33141556640053 62.585054745738063 0.57357644374324357 0 0.81915203911291934 0.81915203911291934 0 -0.57357644374324357 forward_v I I I I #
coedge $-1 $240 $241 $242 $243 reversed $95 $-1 #
face $-1 $-1 $244 $51 $-1 $245 forward single #
loop $-1 $246 $247 $97 #
cone-surface $-1 41.419272545516719 27.33141556640053 9.8028088445632342 -0.57357644374324357 0 -0.81915203911291934 0.20478800977822983 0 -0.14339411093581089 1 I I -0.70710678118654746 0.70710678118654746 0.25 forward I I I I #
loop $-1 $-1 $248 $65 #
coedge $-1 $155 $155 $249 $250 reversed $98 $-1 #
face $-1 $251 $252 $52 $-1 $253 reversed single #
loop $-1 $-1 $254 $100 #
plane-surface $-1 -48.869899594103828 -11.699693340571056 5.7841466308013594 -0.82903758062907751 0 0.55919289150049634 0.55919289150049634 0 0.82903758062907751 forward_v I I I I #
coedge $-1 $255 $256 $257 $258 reversed $101 $-1 #
face $-1 $-1 $259 $53 $-1 $260 forward single #
loop $-1 $261 $262 $103 #
cone-surface $-1 -43.72478269892747 -14.137414531241841 9.5146743377096747 0.82903758062907751 0 -0.55919289150049634 0.13979822287512408 0 0.20725939515726938 1 I I -0.70710678118654502 0.70710678118655002 0.25 forward I I I I #
loop $-1 $-1 $263 $67 #
coedge $-1 $164 $164 $264 $265 reversed $104 $-1 #
face $-1 $-1 $266 $54 $-1 $267 forward single #
loop $-1 $268 $269 $106 #
cone-surface $-1 -43.72478269892747 -11.699693340571056 9.5146743377096747 0.82903758062907751 0 -0.55919289150049634 0.13979822287512408 0 0.20725939515726938 1 I I -0.70710678118654502 0.70710678118655002 0.25 forward I I I I #
loop $-1 $-1 $270 $68 #
coedge $-1 $169 $169 $271 $272 reversed $107 $-1 #
face $-1 $-1 $273 $55 $-1 $274 forward single #
loop $-1 $275 $276 $109 #
cone-surface $-1 -43.72478269892747 -9.2619721499002701 9.5146743377096747 0.82903758062907751 0 -0.55919289150049634 0.13979822287512408 0 0.20725939515726938 1 I I -0.70710678118654502 0.70710678118655002 0.25 forward I I I I #
loop $-1 $-1 $277 $69 #
coedge $-1 $174 $174 $278 $279 reversed $110 $-1 #
face $-1 $280 $281 $42 $-1 $282 reversed single #
loop $-1 $-1 $283 $112 #
plane-surface $-1 0 -33.691699539804219 0 0 1 0 0 0 1 forward_v I I I I #
coedge $-1 $284 $285 $286 $287 forward $113 $-1 #
coedge $-1 $288 $115 $289 $290 forward $71 $-1 #
coedge $-1 $115 $288 $291 $292 forward $71 $-1 #
coedge $-1 $293 $294 $115 $182 reversed $295 $-1 #
edge $-1 $296 -33.691699539804219 $297 33.691699539804219 $181 $298 forward 7 unknown #
face $-1 $299 $300 $43 $-1 $301 reversed single #
loop $-1 $-1 $302 $116 #
plane-surface $-1 0 0 -15.682623972930141 0 0 1 1 0 0 forward_v I I I I #
coedge $-1 $303 $304 $305 $306 reversed $117 $-1 #
coedge $-1 $307 $119 $304 $308 forward $74 $-1 #
coedge $-1 $119 $307 $309 $310 reversed $74 $-1 #
coedge $-1 $311 $305 $119 $190 forward $300 $-1 #
edge $-1 $312 7.0260800283413687 $313 20.119106350422356 $189 $314 forward 7 unknown #
face $-1 $315 $316 $44 $-1 $317 reversed single #
loop $-1 $-1 $318 $120 #
plane-surface $-1 24.867390217147175 -17.999408162791674 142.64881055324562 0 1 0 0.57357644374324357 0 0.81915203911291934 forward_v I I I I #
coedge $-1 $319 $320 $321 $322 reversed $121 $-1 #
coedge $-1 $196 $123 $323 $324 reversed $77 $-1 #
coedge $-1 $123 $195 $319 $325 reversed $77 $-1 #
coedge $-1 $321 $326 $123 $198 forward $327 $-1 #
edge $-1 $328 -36.43620448553024 $329 -23.356060411032786 $197 $330 forward 7 unknown #
loop $-1 $-1 $204 $124 #
plane-surface $-1 -31.193856213403734 -14.238389244319528 62.585054745738063 0.57357644374324357 0 0.81915203911291934 0.81915203911291934 0 -0.57357644374324357 forward_v I I I I #
loop $-1 $-1 $331 $79 #
coedge $-1 $202 $202 $203 $332 reversed $125 $-1 #
coedge $-1 $203 $203 $202 $332 forward $127 $-1 #
coedge $-1 $204 $204 $128 $205 forward $199 $-1 #
edge $-1 $333 0 $333 6.2831853071796004 $204 $334 forward 7 unknown #
face $-1 $335 $336 $46 $-1 $337 reversed single #
loop $-1 $-1 $338 $129 #
plane-surface $-1 24.867390217147175 -4.1428065592183234 142.64881055324562 0 1 0 0.57357644374324357 0 0.81915203911291934 forward_v I I I I #
coedge $-1 $339 $340 $341 $342 reversed $130 $-1 #
coedge $-1 $211 $132 $343 $344 reversed $83 $-1 #
coedge $-1 $132 $210 $339 $345 reversed $83 $-1 #
coedge $-1 $341 $346 $132 $213 forward $347 $-1 #
edge $-1 $348 -36.43620448553024 $349 -23.356060411032786 $212 $350 forward 7 unknown #
loop $-1 $-1 $219 $133 #
plane-surface $-1 -31.193856213403734 -0.38178764074617533 62.585054745738063 0.57357644374324357 0 0.81915203911291934 0.81915203911291934 0 -0.57357644374324357 forward_v I I I I #
loop $-1 $-1 $351 $85 #
coedge $-1 $217 $217 $218 $352 reversed $134 $-1 #
coedge $-1 $218 $218 $217 $352 forward $136 $-1 #
coedge $-1 $219 $219 $137 $220 forward $214 $-1 #
edge $-1 $353 0 $353 6.2831853071796004 $219 $354 forward 7 unknown #
face $-1 $355 $356 $48 $-1 $357 reversed single #
loop $-1 $-1 $358 $138 #
plane-surface $-1 24.867390217147175 9.7137950443550292 142.64881055324562 0 1 0 0.57357644374324357 0 0.81915203911291934 forward_v I I I I #
coedge $-1 $359 $360 $361 $362 reversed $139 $-1 #
coedge $-1 $226 $141 $363 $364 reversed $89 $-1 #
coedge $-1 $141 $225 $359 $365 reversed $89 $-1 #
coedge $-1 $361 $366 $141 $228 forward $367 $-1 #
edge $-1 $368 -36.43620448553024 $369 -23.356060411032786 $227 $370 forward 7 unknown #
loop $-1 $-1 $234 $142 #
plane-surface $-1 -31.193856213403734 13.474813962827177 62.585054745738063 0.57357644374324357 0 0.81915203911291934 0.81915203911291934 0 -0.57357644374324357 forward_v I I I I #
loop $-1 $-1 $371 $91 #
coedge $-1 $232 $232 $233 $372 reversed $143 $-1 #
coedge $-1 $233 $233 $232 $372 forward $145 $-1 #
coedge $-1 $234 $234 $146 $235 forward $229 $-1 #
edge $-1 $373 0 $373 6.2831853071796004 $234 $374 forward 7 unknown #
face $-1 $375 $376 $50 $-1 $377 reversed single #
loop $-1 $-1 $378 $147 #
plane-surface $-1 24.867390217147175 23.570396647928384 142.64881055324562 0 1 0 0.57357644374324357 0 0.81915203911291934 forward_v I I I I #
coedge $-1 $379 $380 $381 $382 reversed $148 $-1 #
coedge $-1 $241 $150 $383 $384 reversed $95 $-1 #
coedge $-1 $150 $240 $379 $385 reversed $95 $-1 #
coedge $-1 $381 $386 $150 $243 forward $387 $-1 #
edge $-1 $388 -36.43620448553024 $389 -23.356060411032786 $242 $390 forward 7 unknown #
loop $-1 $-1 $249 $151 #
plane-surface $-1 -31.193856213403734 27.33141556640053 62.585054745738063 0.57357644374324357 0 0.81915203911291934 0.81915203911291934 0 -0.57357644374324357 forward_v I I I I #
loop $-1 $-1 $391 $97 #
coedge $-1 $247 $247 $248 $392 reversed $152 $-1 #
coedge $-1 $248 $248 $247 $392 forward $154 $-1 #
coedge $-1 $249 $249 $155 $250 forward $244 $-1 #
edge $-1 $393 0 $393 6.2831853071796004 $249 $394 forward 7 unknown #
face $-1 $395 $396 $52 $-1 $397 forward single #
loop $-1 $-1 $398 $156 #
plane-surface $-1 -129.89986624426737 -7.6368246894530785 60.43954755353306 0 -1 0 0.82903758062907751 0 -0.55919289150049634 forward_v I I I I #
coedge $-1 $399 $400 $401 $402 reversed $157 $-1 #
coedge $-1 $256 $159 $403 $404 reversed $101 $-1 #
coedge $-1 $159 $255 $399 $405 reversed $101 $-1 #
coedge $-1 $401 $406 $159 $258 forward $396 $-1 #
edge $-1 $407 16.080033528029858 $408 22.75664059112227 $257 $409 forward 7 unknown #
loop $-1 $-1 $264 $160 #
plane-surface $-1 -48.869899594103828 -11.699693340571056 5.7841466308013594 -0.82903758062907751 0 0.55919289150049634 0.55919289150049634 0 0.82903758062907751 forward_v I I I I #
loop $-1 $-1 $410 $103 #
coedge $-1 $262 $262 $263 $411 reversed $161 $-1 #
coedge $-1 $263 $263 $262 $411 forward $163 $-1 #
coedge $-1 $264 $264 $164 $265 forward $259 $-1 #
edge $-1 $412 0 $412 6.2831853071796004 $264 $413 forward 7 unknown #
loop $-1 $-1 $271 $165 #
plane-surface $-1 -48.869899594103828 -11.699693340571056 5.7841466308013594 -0.82903758062907751 0 0.55919289150049634 0.55919289150049634 0 0.82903758062907751 forward_v I I I I #
loop $-1 $-1 $414 $106 #
coedge $-1 $269 $269 $270 $415 reversed $166 $-1 #
coedge $-1 $270 $270 $269 $415 forward $168 $-1 #
coedge $-1 $271 $271 $169 $272 forward $266 $-1 #
edge $-1 $416 0 $416 6.2831853071796004 $271 $417 forward 7 unknown #
loop $-1 $-1 $278 $170 #
plane-surface $-1 -48.869899594103828 -11.699693340571056 5.7841466308013594 -0.82903758062907751 0 0.55919289150049634 0.55919289150049634 0 0.82903758062907751 forward_v I I I I #
loop $-1 $-1 $418 $109 #
coedge $-1 $276 $276 $277 $419 reversed $171 $-1 #
coedge $-1 $277 $277 $276 $419 forward $173 $-1 #
coedge $-1 $278 $278 $174 $279 forward $273 $-1 #
edge $-1 $420 0 $420 6.2831853071796004 $278 $421 forward 7 unknown #
face $-1 $422 $423 $42 $-1 $424 reversed single #
loop $-1 $-1 $425 $175 #
plane-surface $-1 -48.869899594103828 0 0 1 0 0 0 0 -1 forward_v I I I I #
coedge $-1 $426 $291 $427 $428 forward $176 $-1 #
coedge $-1 $429 $178 $426 $430 forward $113 $-1 #
coedge $-1 $178 $429 $431 $432 forward $113 $-1 #
coedge $-1 $294 $293 $178 $287 reversed $295 $-1 #
edge $-1 $433 -33.691699539804219 $434 33.691699539804219 $286 $435 forward 7 unknown #
coedge $-1 $180 $179 $436 $437 forward $71 $-1 #
coedge $-1 $438 $439 $179 $290 reversed $423 $-1 #
edge $-1 $297 -48.869899594103828 $440 48.869899594103828 $289 $441 forward 7 unknown #
coedge $-1 $283 $442 $180 $292 reversed $176 $-1 #
edge $-1 $443 -48.869899594103828 $296 48.869899594103828 $291 $444 forward 7 unknown #
coedge $-1 $286 $181 $442 $445 forward $295 $-1 #
coedge $-1 $181 $286 $438 $446 reversed $295 $-1 #
loop $-1 $-1 $293 $422 #
vertex $-1 $182 $447 #
vertex $-1 $182 $448 #
straight-curve $-1 48.869899594103828 0 15.682623972930141 0 1 0 I I #
face $-1 $449 $450 $43 $-1 $451 reversed single #
loop $-1 $-1 $305 $183 #
plane-surface $-1 48.869899594103828 0 0 -1 0 0 0 0 1 forward_v I I I I #
coedge $-1 $452 $453 $303 $454 forward $184 $-1 #
coedge $-1 $455 $186 $302 $454 reversed $117 $-1 #
coedge $-1 $186 $455 $187 $308 reversed $117 $-1 #
coedge $-1 $189 $456 $186 $306 forward $300 $-1 #
edge $-1 $457 -9.4606660341719255 $312 -2.9832498433445087 $305 $458 forward 7 unknown #
coedge $-1 $188 $187 $459 $460 reversed $74 $-1 #
edge $-1 $312 -48.869899594103828 $461 48.869899594103828 $304 $462 forward 7 unknown #
coedge $-1 $463 $464 $188 $310 forward $450 $-1 #
edge $-1 $313 -48.869899594103828 $465 48.869899594103828 $309 $466 forward 7 unknown #
coedge $-1 $456 $189 $464 $467 forward $300 $-1 #
vertex $-1 $190 $468 #
vertex $-1 $467 $469 #
straight-curve $-1 48.869899594103828 -13.572593189381863 -9.2052077821027254 0 -1 0 I I #
face $-1 $-1 $327 $44 $-1 $470 forward single #
loop $-1 $-1 $471 $191 #
plane-surface $-1 48.869899594103828 0 0 -1 0 0 0 0 1 forward_v I I I I #
coedge $-1 $472 $473 $474 $475 reversed $192 $-1 #
coedge $-1 $476 $194 $196 $325 forward $121 $-1 #
coedge $-1 $194 $476 $472 $477 forward $121 $-1 #
coedge $-1 $474 $197 $194 $322 forward $327 $-1 #
edge $-1 $329 3.3581757036876159 $478 10.88021354063191 $321 $479 forward 7 unknown #
coedge $-1 $480 $481 $195 $324 forward $316 $-1 #
edge $-1 $482 -64.800596961435659 $328 -55.641781303692667 $323 $483 forward 7 unknown #
edge $-1 $329 81.771891583824129 $482 97.739799188207655 $196 $484 forward 7 unknown #
coedge $-1 $197 $474 $480 $485 forward $327 $-1 #
loop $-1 $-1 $474 $315 #
vertex $-1 $324 $486 #
vertex $-1 $198 $487 #
straight-curve $-1 12.433695108573588 -10.47737032584738 15.682623972930145 -1 0 0 I I #
coedge $-1 $331 $331 $-1 $488 reversed $201 $-1 #
edge $-1 $489 0 $489 6.2831853071796004 $202 $490 forward 7 unknown #
vertex $-1 $205 $491 #
ellipse-curve $-1 42.329827556855108 -14.238389244319528 11.103216144058639 0.57357644374324357 0 0.81915203911291934 0.40957601955645967 0 -0.28678822187162178 1 I I #
face $-1 $-1 $347 $46 $-1 $492 forward single #
loop $-1 $-1 $493 $206 #
plane-surface $-1 48.869899594103828 0 0 -1 0 0 0 0 1 forward_v I I I I #
coedge $-1 $494 $495 $496 $497 reversed $207 $-1 #
coedge $-1 $498 $209 $211 $345 forward $130 $-1 #
coedge $-1 $209 $498 $494 $499 forward $130 $-1 #
coedge $-1 $496 $212 $209 $342 forward $347 $-1 #
edge $-1 $349 -3.5701250980990604 $500 3.9519127388452358 $341 $501 forward 7 unknown #
coedge $-1 $502 $503 $210 $344 forward $336 $-1 #
edge $-1 $504 -64.800596961435659 $348 -55.641781303692667 $343 $505 forward 7 unknown #
edge $-1 $349 81.771891583824129 $504 97.739799188207655 $211 $506 forward 7 unknown #
coedge $-1 $212 $496 $502 $507 forward $347 $-1 #
loop $-1 $-1 $496 $335 #
vertex $-1 $344 $508 #
vertex $-1 $213 $509 #
straight-curve $-1 12.433695108573588 3.3792312777259728 15.682623972930145 -1 0 0 I I #
coedge $-1 $351 $351 $-1 $510 reversed $216 $-1 #
edge $-1 $511 0 $511 6.2831853071796004 $217 $512 forward 7 unknown #
vertex $-1 $220 $513 #
ellipse-curve $-1 42.329827556855108 -0.38178764074617533 11.103216144058639 0.57357644374324357 0 0.81915203911291934 0.40957601955645967 0 -0.28678822187162178 1 I I #
face $-1 $-1 $367 $48 $-1 $514 forward single #
loop $-1 $-1 $515 $221 #
plane-surface $-1 48.869899594103828 0 0 -1 0 0 0 0 1 forward_v I I I I #
coedge $-1 $516 $517 $518 $519 reversed $222 $-1 #
coedge $-1 $520 $224 $226 $365 forward $139 $-1 #
coedge $-1 $224 $520 $516 $521 forward $139 $-1 #
coedge $-1 $518 $227 $224 $362 forward $367 $-1 #
edge $-1 $369 -10.498425899885735 $522 -2.9763880629414405 $361 $523 forward 7 unknown #
coedge $-1 $524 $525 $225 $364 forward $356 $-1 #
edge $-1 $526 -64.800596961435659 $368 -55.641781303692667 $363 $527 forward 7 unknown #
edge $-1 $369 81.771891583824129 $526 97.739799188207655 $226 $528 forward 7 unknown #
coedge $-1 $227 $518 $524 $529 forward $367 $-1 #
loop $-1 $-1 $518 $355 #
vertex $-1 $364 $530 #
vertex $-1 $228 $531 #
straight-curve $-1 12.433695108573588 17.235832881299324 15.682623972930145 -1 0 0 I I #
coedge $-1 $371 $371 $-1 $532 reversed $231 $-1 #
edge $-1 $533 0 $533 6.2831853071796004 $232 $534 forward 7 unknown #
vertex $-1 $235 $535 #
ellipse-curve $-1 42.329827556855108 13.474813962827177 11.103216144058639 0.57357644374324357 0 0.81915203911291934 0.40957601955645967 0 -0.28678822187162178 1 I I #
face $-1 $-1 $387 $50 $-1 $536 forward single #
loop $-1 $-1 $537 $236 #
plane-surface $-1 48.869899594103828 0 0 -1 0 0 0 0 1 forward_v I I I I #
coedge $-1 $538 $539 $540 $541 reversed $237 $-1 #
coedge $-1 $542 $239 $241 $385 forward $148 $-1 #
coedge $-1 $239 $542 $538 $543 forward $148 $-1 #
coedge $-1 $540 $242 $239 $382 forward $387 $-1 #
edge $-1 $389 -17.426726701672411 $544 -9.9046888647281186 $381 $545 forward 7 unknown #
coedge $-1 $546 $547 $240 $384 forward $376 $-1 #
edge $-1 $548 -64.800596961435659 $388 -55.641781303692667 $383 $549 forward 7 unknown #
edge $-1 $389 81.771891583824129 $548 97.739799188207655 $241 $550 forward 7 unknown #
coedge $-1 $242 $540 $546 $551 forward $387 $-1 #
loop $-1 $-1 $540 $375 #
vertex $-1 $384 $552 #
vertex $-1 $243 $553 #
straight-curve $-1 12.433695108573588 31.092434484872676 15.682623972930145 -1 0 0 I I #
coedge $-1 $391 $391 $-1 $554 reversed $246 $-1 #
edge $-1 $555 0 $555 6.2831853071796004 $247 $556 forward 7 unknown #
vertex $-1 $250 $557 #
ellipse-curve $-1 42.329827556855108 27.33141556640053 11.103216144058639 0.57357644374324357 0 0.81915203911291934 0.40957601955645967 0 -0.28678822187162178 1 I I #
face $-1 $-1 $558 $52 $-1 $559 reversed single #
loop $-1 $-1 $257 $251 #
plane-surface $-1 0 0 15.682623972930141 0 0 1 1 0 0 forward_v I I I I #
coedge $-1 $560 $561 $562 $563 reversed $252 $-1 #
coedge $-1 $564 $254 $256 $405 forward $157 $-1 #
coedge $-1 $254 $564 $560 $565 forward $157 $-1 #
coedge $-1 $562 $257 $254 $402 forward $396 $-1 #
edge $-1 $408 -9.9127153214035051 $566 -1.7869780191675506 $401 $567 forward 7 unknown #
coedge $-1 $568 $569 $255 $404 forward $558 $-1 #
edge $-1 $570 -24.435627145965171 $407 -14.537149803836389 $403 $571 forward 7 unknown #
edge $-1 $408 -11.939720916653469 $570 0 $256 $572 forward 7 unknown #
coedge $-1 $257 $562 $568 $573 forward $396 $-1 #
vertex $-1 $404 $574 #
vertex $-1 $258 $575 #
straight-curve $-1 -64.949933122133686 -15.762561991689033 15.682623972930141 1 0 0 I I #
coedge $-1 $410 $410 $-1 $576 reversed $261 $-1 #
edge $-1 $577 0 $577 6.2831853071796004 $262 $578 forward 7 unknown #
vertex $-1 $265 $579 #
ellipse-curve $-1 -45.531596062557625 -14.137414531241841 10.73338530186575 -0.82903758062907751 0 0.55919289150049634 0.27959644575024817 0 0.41451879031453875 1 I I #
coedge $-1 $414 $414 $-1 $580 reversed $268 $-1 #
edge $-1 $581 0 $581 6.2831853071796004 $269 $582 forward 7 unknown #
vertex $-1 $272 $583 #
ellipse-curve $-1 -45.531596062557625 -11.699693340571056 10.73338530186575 -0.82903758062907751 0 0.55919289150049634 0.27959644575024817 0 0.41451879031453875 1 I I #
coedge $-1 $418 $418 $-1 $584 reversed $275 $-1 #
edge $-1 $585 0 $585 6.2831853071796004 $276 $586 forward 7 unknown #
vertex $-1 $279 $587 #
ellipse-curve $-1 -45.531596062557625 -9.2619721499002701 10.73338530186575 -0.82903758062907751 0 0.55919289150049634 0.27959644575024817 0 0.41451879031453875 1 I I #
face $-1 $-1 $295 $42 $-1 $588 reversed single #
loop $-1 $-1 $438 $280 #
plane-surface $-1 0 33.691699539804219 0 0 -1 0 0 0 -1 forward_v I I I I #
coedge $-1 $589 $436 $439 $590 forward $281 $-1 #
coedge $-1 $442 $283 $284 $430 reversed $176 $-1 #
coedge $-1 $436 $589 $283 $428 reversed $281 $-1 #
edge $-1 $443 -15.682623972930141 $591 15.682623972930141 $427 $592 forward 7 unknown #
coedge $-1 $285 $284 $589 $593 forward $113 $-1 #
edge $-1 $434 -48.869899594103828 $591 48.869899594103828 $426 $594 forward 7 unknown #
coedge $-1 $439 $438 $285 $432 reversed $423 $-1 #
edge $-1 $595 -48.869899594103828 $433 48.869899594103828 $431 $596 forward 7 unknown #
vertex $-1 $287 $597 #
vertex $-1 $445 $598 #
straight-curve $-1 48.869899594103828 0 -15.682623972930141 0 -1 0 I I #
coedge $-1 $425 $427 $288 $437 reversed $281 $-1 #
edge $-1 $440 -33.691699539804219 $443 33.691699539804219 $436 $599 forward 7 unknown #
coedge $-1 $431 $289 $294 $446 forward $423 $-1 #
coedge $-1 $289 $431 $425 $590 reversed $423 $-1 #
vertex $-1 $290 $600 #
straight-curve $-1 0 33.691699539804219 15.682623972930141 -1 0 0 I I #
coedge $-1 $291 $426 $293 $445 reversed $176 $-1 #
vertex $-1 $437 $601 #
straight-curve $-1 0 -33.691699539804219 15.682623972930141 1 0 0 I I #
edge $-1 $296 -15.682623972930141 $434 15.682623972930141 $293 $602 forward 7 unknown #
edge $-1 $297 -15.682623972930141 $433 15.682623972930141 $294 $603 forward 7 unknown #
point $-1 48.869899594103828 -33.691699539804219 15.682623972930141 #
point $-1 48.869899594103828 33.691699539804219 15.682623972930141 #
face $-1 $-1 $604 $43 $-1 $605 reversed single #
loop $-1 $-1 $309 $299 #
plane-surface $-1 0 -33.691699539804219 0 0 1 0 0 0 1 forward_v I I I I #
coedge $-1 $606 $302 $456 $607 forward $184 $-1 #
coedge $-1 $302 $606 $608 $609 forward $184 $-1 #
edge $-1 $610 -48.869899594103828 $457 48.869899594103828 $302 $611 forward 7 unknown #
coedge $-1 $304 $303 $612 $613 reversed $117 $-1 #
coedge $-1 $305 $311 $452 $607 reversed $300 $-1 #
vertex $-1 $607 $614 #
straight-curve $-1 48.869899594103828 -20.598673217723231 -6.2219579387582167 0 0 1 I I #
coedge $-1 $612 $615 $307 $460 forward $604 $-1 #
edge $-1 $465 -20.119106350422356 $461 -7.0260800283413687 $459 $616 forward 7 unknown #
vertex $-1 $460 $617 #
straight-curve $-1 0 -20.598673217723231 -9.2052077821027254 -1 0 0 I I #
coedge $-1 $618 $309 $615 $619 forward $450 $-1 #
coedge $-1 $309 $618 $311 $467 reversed $450 $-1 #
vertex $-1 $619 $620 #
straight-curve $-1 0 -33.691699539804219 -9.2052077821027254 -1 0 0 I I #
edge $-1 $313 9.2052077821027254 $621 15.682623972930141 $311 $622 forward 7 unknown #
point $-1 48.869899594103828 -20.598673217723231 -9.2052077821027254 #
point $-1 48.869899594103828 -33.691699539804219 -9.2052077821027254 #
plane-surface $-1 0 0 15.682623972930141 0 0 1 1 0 0 forward_v I I I I #
coedge $-1 $481 $480 $473 $623 forward $316 $-1 #
coedge $-1 $473 $318 $320 $477 reversed $192 $-1 #
coedge $-1 $318 $472 $471 $623 reversed $192 $-1 #
coedge $-1 $326 $321 $318 $475 forward $327 $-1 #
edge $-1 $478 23.356060411032786 $624 36.43620448553024 $474 $625 forward 7 unknown #
coedge $-1 $320 $319 $481 $626 reversed $121 $-1 #
edge $-1 $627 -97.739799188207655 $478 -81.771891583824129 $472 $628 forward 7 unknown #
vertex $-1 $322 $629 #
straight-curve $-1 35.789755519606373 -7.119194622159764 15.682623972930141 0 -1 0 I I #
coedge $-1 $471 $323 $326 $485 reversed $316 $-1 #
coedge $-1 $323 $471 $476 $626 forward $316 $-1 #
vertex $-1 $324 $630 #
straight-curve $-1 48.869899594103828 -10.47737032584738 71.324405276622812 0 0 1 I I #
straight-curve $-1 -31.193856213403734 -10.47737032584738 62.585054745738063 0.81915203911291934 0 -0.57357644374324357 I I #
edge $-1 $624 -17.999408162791674 $328 -10.47737032584738 $480 $631 forward 7 unknown #
point $-1 48.869899594103828 -10.47737032584738 15.682623972930141 #
point $-1 35.789755519606373 -10.47737032584738 15.682623972930145 #
edge $-1 $632 1 $632 0 $331 $-1 forward 7 unknown #
vertex $-1 $332 $633 #
ellipse-curve $-1 41.562666656452528 -14.238389244319528 10.007596854341465 0.57357644374324357 0 0.81915203911291934 0.40957601955645967 0 -0.28678822187162178 1 I I #
point $-1 42.739403576411569 -14.238389244319528 10.816427922187021 #
plane-surface $-1 0 0 15.682623972930141 0 0 1 1 0 0 forward_v I I I I #
coedge $-1 $503 $502 $495 $634 forward $336 $-1 #
coedge $-1 $495 $338 $340 $499 reversed $207 $-1 #
coedge $-1 $338 $494 $493 $634 reversed $207 $-1 #
coedge $-1 $346 $341 $338 $497 forward $347 $-1 #
edge $-1 $500 23.356060411032786 $635 36.43620448553024 $496 $636 forward 7 unknown #
coedge $-1 $340 $339 $503 $637 reversed $130 $-1 #
edge $-1 $638 -97.739799188207655 $500 -81.771891583824129 $494 $639 forward 7 unknown #
vertex $-1 $342 $640 #
straight-curve $-1 35.789755519606373 -0.19089382037308766 15.682623972930141 0 -1 0 I I #
coedge $-1 $493 $343 $346 $507 reversed $336 $-1 #
coedge $-1 $343 $493 $498 $637 forward $336 $-1 #
vertex $-1 $344 $641 #
straight-curve $-1 48.869899594103828 3.3792312777259728 71.324405276622812 0 0 1 I I #
straight-curve $-1 -31.193856213403734 3.3792312777259728 62.585054745738063 0.81915203911291934 0 -0.57357644374324357 I I #
edge $-1 $635 -4.1428065592183234 $348 3.3792312777259728 $502 $642 forward 7 unknown #
point $-1 48.869899594103828 3.3792312777259728 15.682623972930141 #
point $-1 35.789755519606373 3.3792312777259728 15.682623972930145 #
edge $-1 $643 1 $643 0 $351 $-1 forward 7 unknown #
vertex $-1 $352 $644 #
ellipse-curve $-1 41.562666656452528 -0.38178764074617533 10.007596854341465 0.57357644374324357 0 0.81915203911291934 0.40957601955645967 0 -0.28678822187162178 1 I I #
point $-1 42.739403576411569 -0.38178764074617533 10.816427922187021 #
plane-surface $-1 0 0 15.682623972930141 0 0 1 1 0 0 forward_v I I I I #
coedge $-1 $525 $524 $517 $645 forward $356 $-1 #
coedge $-1 $517 $358 $360 $521 reversed $222 $-1 #
coedge $-1 $358 $516 $515 $645 reversed $222 $-1 #
coedge $-1 $366 $361 $358 $519 forward $367 $-1 #
edge $-1 $522 23.356060411032786 $646 36.43620448553024 $518 $647 forward 7 unknown #
coedge $-1 $360 $359 $525 $648 reversed $139 $-1 #
edge $-1 $649 -97.739799188207655 $522 -81.771891583824129 $516 $650 forward 7 unknown #
vertex $-1 $362 $651 #
straight-curve $-1 35.789755519606373 6.7374069814135886 15.682623972930141 0 -1 0 I I #
coedge $-1 $515 $363 $366 $529 reversed $356 $-1 #
coedge $-1 $363 $515 $520 $648 forward $356 $-1 #
vertex $-1 $364 $652 #
straight-curve $-1 48.869899594103828 17.235832881299324 71.324405276622812 0 0 1 I I #
straight-curve $-1 -31.193856213403734 17.235832881299324 62.585054745738063 0.81915203911291934 0 -0.57357644374324357 I I #
edge $-1 $646 9.7137950443550292 $368 17.235832881299324 $524 $653 forward 7 unknown #
point $-1 48.869899594103828 17.235832881299324 15.682623972930141 #
point $-1 35.789755519606373 17.235832881299324 15.682623972930145 #
edge $-1 $654 1 $654 0 $371 $-1 forward 7 unknown #
vertex $-1 $372 $655 #
ellipse-curve $-1 41.562666656452528 13.474813962827177 10.007596854341465 0.57357644374324357 0 0.81915203911291934 0.40957601955645967 0 -0.28678822187162178 1 I I #
point $-1 42.739403576411569 13.474813962827177 10.816427922187021 #
plane-surface $-1 0 0 15.682623972930141 0 0 1 1 0 0 forward_v I I I I #
coedge $-1 $547 $546 $539 $656 forward $376 $-1 #
coedge $-1 $539 $378 $380 $543 reversed $237 $-1 #
coedge $-1 $378 $538 $537 $656 reversed $237 $-1 #
coedge $-1 $386 $381 $378 $541 forward $387 $-1 #
edge $-1 $544 23.356060411032786 $657 36.43620448553024 $540 $658 forward 7 unknown #
coedge $-1 $380 $379 $547 $659 reversed $148 $-1 #
edge $-1 $660 -97.739799188207655 $544 -81.771891583824129 $538 $661 forward 7 unknown #
vertex $-1 $382 $662 #
straight-curve $-1 35.789755519606373 13.665707783200265 15.682623972930141 0 -1 0 I I #
coedge $-1 $537 $383 $386 $551 reversed $376 $-1 #
coedge $-1 $383 $537 $542 $659 forward $376 $-1 #
vertex $-1 $384 $663 #
straight-curve $-1 48.869899594103828 31.092434484872676 71.324405276622812 0 0 1 I I #
straight-curve $-1 -31.193856213403734 31.092434484872676 62.585054745738063 0.81915203911291934 0 -0.57357644374324357 I I #
edge $-1 $657 23.570396647928384 $388 31.092434484872676 $546 $664 forward 7 unknown #
point $-1 48.869899594103828 31.092434484872676 15.682623972930141 #
point $-1 35.789755519606373 31.092434484872676 15.682623972930145 #
edge $-1 $665 1 $665 0 $391 $-1 forward 7 unknown #
vertex $-1 $392 $666 #
ellipse-curve $-1 41.562666656452528 27.33141556640053 10.007596854341465 0.57357644374324357 0 0.81915203911291934 0.40957601955645967 0 -0.28678822187162178 1 I I #
point $-1 42.739403576411569 27.33141556640053 10.816427922187021 #
loop $-1 $-1 $403 $395 #
plane-surface $-1 -48.869899594103828 0 0 1 0 0 0 0 -1 forward_v I I I I #
coedge $-1 $561 $398 $400 $565 reversed $252 $-1 #
coedge $-1 $398 $560 $667 $668 reversed $252 $-1 #
coedge $-1 $406 $401 $398 $563 forward $396 $-1 #
edge $-1 $566 -22.75664059112227 $669 -16.080033528029858 $562 $670 forward 7 unknown #
coedge $-1 $400 $399 $569 $671 reversed $157 $-1 #
edge $-1 $672 0 $566 11.939720916653469 $560 $673 forward 7 unknown #
vertex $-1 $402 $674 #
straight-curve $-1 -42.193292531011423 -5.8498466702855278 15.682623972930141 0 1 0 I I #
coedge $-1 $667 $403 $406 $573 reversed $558 $-1 #
coedge $-1 $403 $667 $564 $671 forward $558 $-1 #
vertex $-1 $404 $675 #
straight-curve $-1 -48.869899594103828 -15.762561991689033 30.21977377676653 0 0 1 I I #
straight-curve $-1 -48.869899594103828 -15.762561991689033 5.7841466308013594 -0.55919289150049634 0 -0.82903758062907751 I I #
edge $-1 $669 7.6368246894530785 $407 15.762561991689033 $568 $676 forward 7 unknown #
point $-1 -48.869899594103828 -15.762561991689033 15.682623972930141 #
point $-1 -42.193292531011416 -15.762561991689033 15.682623972930141 #
edge $-1 $677 1 $677 0 $410 $-1 forward 7 unknown #
vertex $-1 $411 $678 #
ellipse-curve $-1 -43.932042094084743 -14.137414531241841 9.6544725605848001 -0.82903758062907751 0 0.55919289150049634 0.27959644575024817 0 0.41451879031453875 1 I I #
point $-1 -45.251999616807375 -14.137414531241841 11.147904092180287 #
edge $-1 $679 1 $679 0 $414 $-1 forward 7 unknown #
vertex $-1 $415 $680 #
ellipse-curve $-1 -43.932042094084743 -11.699693340571056 9.6544725605848001 -0.82903758062907751 0 0.55919289150049634 0.27959644575024817 0 0.41451879031453875 1 I I #
point $-1 -45.251999616807375 -11.699693340571056 11.147904092180287 #
edge $-1 $681 1 $681 0 $418 $-1 forward 7 unknown #
vertex $-1 $419 $682 #
ellipse-curve $-1 -43.932042094084743 -9.2619721499002701 9.6544725605848001 -0.82903758062907751 0 0.55919289150049634 0.27959644575024817 0 0.41451879031453875 1 I I #
point $-1 -45.251999616807375 -9.2619721499002701 11.147904092180287 #
plane-surface $-1 48.869899594103828 0 0 -1 0 0 0 0 1 forward_v I I I I #
coedge $-1 $427 $425 $429 $593 reversed $281 $-1 #
edge $-1 $440 -15.682623972930141 $595 15.682623972930141 $439 $683 forward 7 unknown #
vertex $-1 $593 $684 #
straight-curve $-1 -48.869899594103828 -33.691699539804219 0 0 0 -1 I I #
edge $-1 $591 -33.691699539804219 $595 33.691699539804219 $589 $685 forward 7 unknown #
straight-curve $-1 0 -33.691699539804219 -15.682623972930141 -1 0 0 I I #
vertex $-1 $432 $686 #
straight-curve $-1 0 33.691699539804219 -15.682623972930141 1 0 0 I I #
point $-1 48.869899594103828 33.691699539804219 -15.682623972930141 #
point $-1 48.869899594103828 -33.691699539804219 -15.682623972930141 #
straight-curve $-1 -48.869899594103828 0 15.682623972930141 0 -1 0 I I #
point $-1 -48.869899594103828 33.691699539804219 15.682623972930141 #
point $-1 -48.869899594103828 -33.691699539804219 15.682623972930141 #
straight-curve $-1 48.869899594103828 -33.691699539804219 0 0 0 -1 I I #
straight-curve $-1 48.869899594103828 33.691699539804219 0 0 0 -1 I I #
loop $-1 $-1 $612 $449 #
plane-surface $-1 -48.869899594103828 0 0 1 0 0 0 0 -1 forward_v I I I I #
coedge $-1 $453 $452 $618 $687 forward $184 $-1 #
edge $-1 $457 20.598673217723231 $621 33.691699539804219 $456 $688 forward 7 unknown #
coedge $-1 $615 $612 $453 $609 reversed $604 $-1 #
edge $-1 $689 -33.691699539804219 $610 -20.598673217723231 $608 $690 forward 7 unknown #
vertex $-1 $613 $691 #
straight-curve $-1 0 -20.598673217723231 -15.682623972930141 1 0 0 I I #
coedge $-1 $608 $459 $455 $613 forward $604 $-1 #
edge $-1 $461 2.9832498433445087 $610 9.4606660341719255 $612 $692 forward 7 unknown #
point $-1 48.869899594103828 -20.598673217723231 -15.682623972930141 #
coedge $-1 $459 $608 $463 $619 reversed $604 $-1 #
straight-curve $-1 -48.869899594103828 -13.572593189381863 -9.2052077821027254 0 1 0 I I #
point $-1 -48.869899594103828 -20.598673217723231 -9.2052077821027254 #
coedge $-1 $464 $463 $606 $687 reversed $450 $-1 #
edge $-1 $465 9.2052077821027254 $689 15.682623972930141 $615 $693 forward 7 unknown #
point $-1 -48.869899594103828 -33.691699539804219 -9.2052077821027254 #
vertex $-1 $467 $694 #
straight-curve $-1 48.869899594103828 -33.691699539804219 0 0 0 -1 I I #
edge $-1 $624 55.641781303692667 $627 64.800596961435659 $471 $695 forward 7 unknown #
vertex $-1 $485 $696 #
straight-curve $-1 12.433695108573588 -17.999408162791674 15.682623972930145 1 0 0 I I #
edge $-1 $627 -10.88021354063191 $482 -3.3581757036876159 $481 $697 forward 7 unknown #
vertex $-1 $626 $698 #
straight-curve $-1 -31.193856213403734 -17.999408162791674 62.585054745738063 -0.81915203911291934 0 0.57357644374324357 I I #
point $-1 35.789755519606373 -17.999408162791674 15.682623972930145 #
point $-1 48.869899594103828 -10.47737032584738 6.5238083151871535 #
straight-curve $-1 48.869899594103828 0 15.682623972930141 0 1 0 I I #
vertex $-1 $488 $699 #
point $-1 41.972242676008989 -14.238389244319528 9.7208086324698417 #
edge $-1 $635 55.641781303692667 $638 64.800596961435659 $493 $700 forward 7 unknown #
vertex $-1 $507 $701 #
straight-curve $-1 12.433695108573588 -4.1428065592183234 15.682623972930145 1 0 0 I I #
edge $-1 $638 -3.9519127388452358 $504 3.5701250980990604 $503 $702 forward 7 unknown #
vertex $-1 $637 $703 #
straight-curve $-1 -31.193856213403734 -4.1428065592183234 62.585054745738063 -0.81915203911291934 0 0.57357644374324357 I I #
point $-1 35.789755519606373 -4.1428065592183234 15.682623972930145 #
point $-1 48.869899594103828 3.3792312777259728 6.5238083151871535 #
straight-curve $-1 48.869899594103828 0 15.682623972930141 0 1 0 I I #
vertex $-1 $510 $704 #
point $-1 41.972242676008989 -0.38178764074617533 9.7208086324698417 #
edge $-1 $646 55.641781303692667 $649 64.800596961435659 $515 $705 forward 7 unknown #
vertex $-1 $529 $706 #
straight-curve $-1 12.433695108573588 9.7137950443550292 15.682623972930145 1 0 0 I I #
edge $-1 $649 2.9763880629414405 $526 10.498425899885735 $525 $707 forward 7 unknown #
vertex $-1 $648 $708 #
straight-curve $-1 -31.193856213403734 9.7137950443550292 62.585054745738063 -0.81915203911291934 0 0.57357644374324357 I I #
point $-1 35.789755519606373 9.7137950443550292 15.682623972930145 #
point $-1 48.869899594103828 17.235832881299324 6.5238083151871535 #
straight-curve $-1 48.869899594103828 0 15.682623972930141 0 1 0 I I #
vertex $-1 $532 $709 #
point $-1 41.972242676008989 13.474813962827177 9.7208086324698417 #
edge $-1 $657 55.641781303692667 $660 64.800596961435659 $537 $710 forward 7 unknown #
vertex $-1 $551 $711 #
straight-curve $-1 12.433695108573588 23.570396647928384 15.682623972930145 1 0 0 I I #
edge $-1 $660 9.9046888647281186 $548 17.426726701672411 $547 $712 forward 7 unknown #
vertex $-1 $659 $713 #
straight-curve $-1 -31.193856213403734 23.570396647928384 62.585054745738063 -0.81915203911291934 0 0.57357644374324357 I I #
point $-1 35.789755519606373 23.570396647928384 15.682623972930145 #
point $-1 48.869899594103828 31.092434484872676 6.5238083151871535 #
straight-curve $-1 48.869899594103828 0 15.682623972930141 0 1 0 I I #
vertex $-1 $554 $714 #
point $-1 41.972242676008989 27.33141556640053 9.7208086324698417 #
coedge $-1 $569 $568 $561 $668 forward $558 $-1 #
edge $-1 $669 14.537149803836389 $672 24.435627145965171 $667 $715 forward 7 unknown #
vertex $-1 $573 $716 #
straight-curve $-1 -64.949933122133686 -7.6368246894530785 15.682623972930141 -1 0 0 I I #
edge $-1 $672 1.7869780191675506 $570 9.9127153214035051 $569 $717 forward 7 unknown #
vertex $-1 $671 $718 #
straight-curve $-1 -48.869899594103828 -7.6368246894530785 5.7841466308013594 0.55919289150049634 0 0.82903758062907751 I I #
point $-1 -42.193292531011416 -7.6368246894530785 15.682623972930141 #
point $-1 -48.869899594103828 -15.762561991689033 5.7841466308013594 #
straight-curve $-1 -48.869899594103828 0 15.682623972930141 0 -1 0 I I #
vertex $-1 $576 $719 #
point $-1 -43.652445648334492 -14.137414531241841 10.068991350899338 #
vertex $-1 $580 $720 #
point $-1 -43.652445648334492 -11.699693340571056 10.068991350899338 #
vertex $-1 $584 $721 #
point $-1 -43.652445648334492 -9.2619721499002701 10.068991350899338 #
straight-curve $-1 -48.869899594103828 33.691699539804219 0 0 0 -1 I I #
point $-1 -48.869899594103828 -33.691699539804219 -15.682623972930141 #
straight-curve $-1 -48.869899594103828 0 -15.682623972930141 0 1 0 I I #
point $-1 -48.869899594103828 33.691699539804219 -15.682623972930141 #
edge $-1 $621 -48.869899594103828 $689 48.869899594103828 $618 $722 forward 7 unknown #
straight-curve $-1 48.869899594103828 0 -15.682623972930141 0 -1 0 I I #
vertex $-1 $609 $723 #
straight-curve $-1 -48.869899594103828 0 -15.682623972930141 0 1 0 I I #
point $-1 -48.869899594103828 -20.598673217723231 -15.682623972930141 #
straight-curve $-1 -48.869899594103828 -20.598673217723231 -6.2219579387582167 0 0 -1 I I #
straight-curve $-1 -48.869899594103828 -33.691699539804219 0 0 0 -1 I I #
point $-1 48.869899594103828 -33.691699539804219 -15.682623972930141 #
straight-curve $-1 48.869899594103828 -17.999408162791674 71.324405276622812 0 0 -1 I I #
point $-1 48.869899594103828 -17.999408162791674 15.682623972930141 #
straight-curve $-1 48.869899594103828 -7.119194622159764 6.5238083151871464 0 1 0 I I #
point $-1 48.869899594103828 -17.999408162791674 6.5238083151871535 #
point $-1 41.27587843458091 -14.238389244319528 9.5980208347850038 #
straight-curve $-1 48.869899594103828 -4.1428065592183234 71.324405276622812 0 0 -1 I I #
point $-1 48.869899594103828 -4.1428065592183234 15.682623972930141 #
straight-curve $-1 48.869899594103828 -0.19089382037308766 6.5238083151871464 0 1 0 I I #
point $-1 48.869899594103828 -4.1428065592183234 6.5238083151871535 #
point $-1 41.27587843458091 -0.38178764074617533 9.5980208347850038 #
straight-curve $-1 48.869899594103828 9.7137950443550292 71.324405276622812 0 0 -1 I I #
point $-1 48.869899594103828 9.7137950443550292 15.682623972930141 #
straight-curve $-1 48.869899594103828 6.7374069814135886 6.5238083151871464 0 1 0 I I #
point $-1 48.869899594103828 9.7137950443550292 6.5238083151871535 #
point $-1 41.27587843458091 13.474813962827177 9.5980208347850038 #
straight-curve $-1 48.869899594103828 23.570396647928384 71.324405276622812 0 0 -1 I I #
point $-1 48.869899594103828 23.570396647928384 15.682623972930141 #
straight-curve $-1 48.869899594103828 13.665707783200265 6.5238083151871464 0 1 0 I I #
point $-1 48.869899594103828 23.570396647928384 6.5238083151871535 #
point $-1 41.27587843458091 27.33141556640053 9.5980208347850038 #
straight-curve $-1 -48.869899594103828 -7.6368246894530785 30.21977377676653 0 0 -1 I I #
point $-1 -48.869899594103828 -7.6368246894530785 15.682623972930141 #
straight-curve $-1 -48.869899594103828 -5.8498466702855278 5.7841466308013612 0 -1 0 I I #
point $-1 -48.869899594103828 -7.6368246894530785 5.7841466308013594 #
point $-1 -43.517523303770197 -14.137414531241841 9.3748761148345494 #
point $-1 -43.517523303770197 -11.699693340571056 9.3748761148345494 #
point $-1 -43.517523303770197 -9.2619721499002701 9.3748761148345494 #
straight-curve $-1 0 -33.691699539804219 -15.682623972930141 -1 0 0 I I #
point $-1 -48.869899594103828 -33.691699539804219 -15.682623972930141 #
End-of-ACIS-data 