500 0 3 0           
7 Unknown 11 ACIS 5.0 NT 24 Fri Mar 26 17:13:27 1999 
-1 9.9999999999999995e-007 1e-010 
body $-1 $3 $-1 $4 #
body $-1 $5 $-1 $6 #
body $-1 $7 $-1 $8 #
lump $-1 $-1 $9 $0 #
transform $-1 1 0 0 0 1 0 0 0 1 77.434003723258158 31.094123178499292 8.4436292193355786 1 rotate no_reflect no_shear #
lump $-1 $-1 $10 $1 #
transform $-1 1 0 0 0 1 0 0 0 1 77.434003723258158 31.094123178499292 8.4436292193355786 1 rotate no_reflect no_shear #
lump $-1 $-1 $11 $2 #
transform $-1 1 0 0 0 1 0 0 0 1 77.434003723258158 31.094123178499292 8.4436292193355786 1 rotate no_reflect no_shear #
shell $-1 $-1 $-1 $12 $-1 $3 #
shell $-1 $-1 $-1 $13 $-1 $5 #
shell $-1 $-1 $-1 $14 $-1 $7 #
face $-1 $15 $16 $9 $-1 $17 forward single #
face $-1 $18 $19 $10 $-1 $20 forward single #
face $-1 $21 $22 $11 $-1 $23 forward single #
face $-1 $24 $25 $9 $-1 $26 reversed single #
loop $-1 $-1 $27 $12 #
plane-surface $-1 0 0 8.4436292193355786 0 0 1 1 0 0 forward_v I I I I #
face $-1 $28 $29 $10 $-1 $30 reversed single #
loop $-1 $-1 $31 $13 #
plane-surface $-1 0 -31.094123178499292 0 0 1 0 0 0 1 forward_v I I I I #
face $-1 $32 $33 $11 $-1 $34 reversed single #
loop $-1 $-1 $35 $14 #
plane-surface $-1 0 31.094123178499292 0 0 -1 0 0 0 -1 forward_v I I I I #
face $-1 $36 $37 $9 $-1 $38 reversed single #
loop $-1 $-1 $39 $15 #
plane-surface $-1 0 0 -8.4436292193355786 0 0 1 1 0 0 forward_v I I I I #
coedge $-1 $40 $41 $42 $43 forward $16 $-1 #
face $-1 $44 $45 $10 $-1 $46 reversed single #
loop $-1 $-1 $47 $18 #
plane-surface $-1 0 0 -8.4436292193355786 0 0 1 1 0 0 forward_v I I I I #
coedge $-1 $48 $49 $50 $51 forward $19 $-1 #
face $-1 $52 $53 $11 $-1 $54 reversed single #
loop $-1 $-1 $55 $21 #
plane-surface $-1 0 0 -8.4436292193355786 0 0 1 1 0 0 forward_v I I I I #
coedge $-1 $56 $57 $58 $59 forward $22 $-1 #
face $-1 $60 $61 $9 $-1 $62 reversed single #
loop $-1 $-1 $63 $24 #
plane-surface $-1 0 -31.094123178499292 0 0 1 0 0 0 1 forward_v I I I I #
coedge $-1 $64 $65 $66 $67 forward $25 $-1 #
coedge $-1 $68 $27 $69 $70 forward $16 $-1 #
coedge $-1 $27 $68 $71 $72 forward $16 $-1 #
coedge $-1 $73 $74 $27 $43 reversed $75 $-1 #
edge $-1 $76 -31.094123178499292 $77 31.094123178499292 $42 $78 forward 7 unknown #
face $-1 $79 $80 $10 $-1 $81 reversed single #
loop $-1 $-1 $82 $28 #
plane-surface $-1 -62.118558546380306 -40.005969637482465 0 0 1 0 0 0 1 forward_v I I I I #
coedge $-1 $83 $84 $49 $85 forward $29 $-1 #
coedge $-1 $86 $31 $87 $88 reversed $19 $-1 #
coedge $-1 $31 $86 $47 $85 reversed $19 $-1 #
coedge $-1 $89 $90 $31 $51 reversed $80 $-1 #
edge $-1 $91 -8.4436292193355786 $92 8.4436292193355786 $50 $93 forward 7 unknown #
face $-1 $94 $95 $11 $-1 $96 reversed single #
loop $-1 $-1 $97 $32 #
plane-surface $-1 -63.690371808173609 35.550046407990877 0 1 0 0 0 0 -1 forward_v I I I I #
coedge $-1 $98 $99 $57 $100 forward $33 $-1 #
coedge $-1 $101 $35 $102 $103 reversed $22 $-1 #
coedge $-1 $35 $101 $55 $100 reversed $22 $-1 #
coedge $-1 $104 $105 $35 $59 reversed $106 $-1 #
edge $-1 $107 -8.4436292193355786 $108 8.4436292193355786 $58 $109 forward 7 unknown #
face $-1 $110 $111 $9 $-1 $112 reversed single #
loop $-1 $-1 $113 $36 #
plane-surface $-1 -77.434003723258158 0 0 1 0 0 0 0 -1 forward_v I I I I #
coedge $-1 $114 $71 $115 $116 forward $37 $-1 #
coedge $-1 $117 $39 $114 $118 forward $25 $-1 #
coedge $-1 $39 $117 $119 $120 forward $25 $-1 #
coedge $-1 $74 $73 $39 $67 reversed $75 $-1 #
edge $-1 $121 -31.094123178499292 $122 31.094123178499292 $66 $123 forward 7 unknown #
coedge $-1 $41 $40 $124 $125 forward $16 $-1 #
coedge $-1 $126 $127 $40 $70 reversed $111 $-1 #
edge $-1 $77 -77.434003723258158 $128 77.434003723258158 $69 $129 forward 7 unknown #
coedge $-1 $63 $130 $41 $72 reversed $37 $-1 #
edge $-1 $131 -77.434003723258158 $76 77.434003723258158 $71 $132 forward 7 unknown #
coedge $-1 $66 $42 $130 $133 forward $75 $-1 #
coedge $-1 $42 $66 $126 $134 reversed $75 $-1 #
loop $-1 $-1 $73 $110 #
vertex $-1 $43 $135 #
vertex $-1 $43 $136 #
straight-curve $-1 77.434003723258158 0 8.4436292193355786 0 1 0 I I #
face $-1 $137 $138 $10 $-1 $139 reversed single #
loop $-1 $-1 $50 $44 #
plane-surface $-1 -63.690371808173609 -35.550046407990877 0 1 0 0 0 0 -1 forward_v I I I I #
coedge $-1 $140 $141 $142 $143 forward $45 $-1 #
coedge $-1 $144 $47 $145 $146 forward $29 $-1 #
coedge $-1 $47 $144 $89 $147 forward $29 $-1 #
edge $-1 $91 -63.690371808173609 $148 -60.546745284587004 $47 $149 forward 7 unknown #
coedge $-1 $49 $48 $150 $151 forward $19 $-1 #
coedge $-1 $152 $153 $48 $88 forward $154 $-1 #
edge $-1 $155 60.546745284587004 $92 63.690371808173609 $87 $156 forward 7 unknown #
coedge $-1 $142 $50 $84 $147 reversed $80 $-1 #
coedge $-1 $50 $142 $152 $157 reversed $80 $-1 #
vertex $-1 $85 $158 #
vertex $-1 $157 $159 #
straight-curve $-1 -63.690371808173609 -31.094123178499292 0 0 0 1 I I #
face $-1 $160 $106 $11 $-1 $161 reversed single #
loop $-1 $-1 $162 $52 #
plane-surface $-1 -62.118558546380306 40.005969637482465 0 0 -1 0 0 0 -1 forward_v I I I I #
coedge $-1 $163 $164 $165 $166 forward $53 $-1 #
coedge $-1 $167 $55 $163 $168 forward $33 $-1 #
coedge $-1 $55 $167 $104 $169 forward $33 $-1 #
edge $-1 $107 60.546745284587004 $170 63.690371808173609 $55 $171 forward 7 unknown #
coedge $-1 $57 $56 $172 $173 forward $22 $-1 #
coedge $-1 $174 $175 $56 $103 forward $176 $-1 #
edge $-1 $177 -63.690371808173609 $108 -60.546745284587004 $102 $178 forward 7 unknown #
coedge $-1 $179 $58 $99 $169 reversed $106 $-1 #
coedge $-1 $58 $179 $174 $180 reversed $106 $-1 #
loop $-1 $-1 $58 $94 #
vertex $-1 $100 $181 #
vertex $-1 $180 $182 #
straight-curve $-1 -60.546745284587004 31.094123178499292 0 0 0 1 I I #
face $-1 $-1 $75 $9 $-1 $183 reversed single #
loop $-1 $-1 $126 $60 #
plane-surface $-1 0 31.094123178499292 0 0 -1 0 0 0 -1 forward_v I I I I #
coedge $-1 $184 $124 $127 $185 forward $61 $-1 #
coedge $-1 $130 $63 $64 $118 reversed $37 $-1 #
coedge $-1 $124 $184 $63 $116 reversed $61 $-1 #
edge $-1 $131 -8.4436292193355786 $186 8.4436292193355786 $115 $187 forward 7 unknown #
coedge $-1 $65 $64 $184 $188 forward $25 $-1 #
edge $-1 $122 -77.434003723258158 $186 77.434003723258158 $114 $189 forward 7 unknown #
coedge $-1 $127 $126 $65 $120 reversed $111 $-1 #
edge $-1 $190 -77.434003723258158 $121 77.434003723258158 $119 $191 forward 7 unknown #
vertex $-1 $67 $192 #
vertex $-1 $133 $193 #
straight-curve $-1 77.434003723258158 0 -8.4436292193355786 0 -1 0 I I #
coedge $-1 $113 $115 $68 $125 reversed $61 $-1 #
edge $-1 $128 -31.094123178499292 $131 31.094123178499292 $124 $194 forward 7 unknown #
coedge $-1 $119 $69 $74 $134 forward $111 $-1 #
coedge $-1 $69 $119 $113 $185 reversed $111 $-1 #
vertex $-1 $70 $195 #
straight-curve $-1 0 31.094123178499292 8.4436292193355786 -1 0 0 I I #
coedge $-1 $71 $114 $73 $133 reversed $37 $-1 #
vertex $-1 $125 $196 #
straight-curve $-1 0 -31.094123178499292 8.4436292193355786 1 0 0 I I #
edge $-1 $76 -8.4436292193355786 $122 8.4436292193355786 $73 $197 forward 7 unknown #
edge $-1 $77 -8.4436292193355786 $121 8.4436292193355786 $74 $198 forward 7 unknown #
point $-1 77.434003723258158 -31.094123178499292 8.4436292193355786 #
point $-1 77.434003723258158 31.094123178499292 8.4436292193355786 #
face $-1 $-1 $154 $10 $-1 $199 forward single #
loop $-1 $-1 $200 $79 #
plane-surface $-1 -60.546745284587004 -35.550046407990877 0 -1 0 0 0 0 1 forward_v I I I I #
coedge $-1 $201 $82 $144 $202 reversed $45 $-1 #
coedge $-1 $82 $201 $203 $204 reversed $45 $-1 #
coedge $-1 $90 $89 $82 $143 reversed $80 $-1 #
edge $-1 $205 -8.4436292193355786 $206 8.4436292193355786 $142 $207 forward 7 unknown #
coedge $-1 $84 $83 $140 $202 forward $29 $-1 #
coedge $-1 $150 $200 $83 $146 reversed $138 $-1 #
edge $-1 $148 -4.4559232294915887 $208 4.4559232294915887 $145 $209 forward 7 unknown #
edge $-1 $206 -4.4559232294915887 $91 4.4559232294915887 $89 $210 forward 7 unknown #
vertex $-1 $146 $211 #
straight-curve $-1 0 -31.094123178499292 -8.4436292193355786 1 0 0 I I #
coedge $-1 $212 $145 $86 $151 reversed $138 $-1 #
edge $-1 $155 -8.4436292193355786 $148 8.4436292193355786 $150 $213 forward 7 unknown #
coedge $-1 $203 $87 $90 $157 forward $154 $-1 #
coedge $-1 $87 $203 $212 $214 forward $154 $-1 #
loop $-1 $-1 $87 $137 #
vertex $-1 $88 $215 #
straight-curve $-1 0 -31.094123178499292 8.4436292193355786 -1 0 0 I I #
edge $-1 $92 -4.4559232294915887 $205 4.4559232294915887 $90 $216 forward 7 unknown #
point $-1 -63.690371808173609 -31.094123178499288 -8.4436292193355786 #
point $-1 -63.690371808173609 -31.094123178499288 8.4436292193355786 #
face $-1 $-1 $176 $11 $-1 $217 forward single #
plane-surface $-1 -60.546745284587004 35.550046407990877 0 -1 0 0 0 0 1 forward_v I I I I #
coedge $-1 $218 $219 $179 $220 forward $95 $-1 #
coedge $-1 $172 $97 $98 $168 reversed $53 $-1 #
coedge $-1 $97 $172 $175 $221 reversed $53 $-1 #
coedge $-1 $219 $218 $97 $166 reversed $95 $-1 #
edge $-1 $222 -8.4436292193355786 $223 8.4436292193355786 $165 $224 forward 7 unknown #
coedge $-1 $99 $98 $218 $225 forward $33 $-1 #
edge $-1 $170 -4.4559232294915851 $223 4.4559232294915887 $163 $226 forward 7 unknown #
edge $-1 $227 -4.4559232294915887 $107 4.4559232294915851 $104 $228 forward 7 unknown #
vertex $-1 $168 $229 #
straight-curve $-1 0 31.094123178499292 -8.4436292193355786 -1 0 0 I I #
coedge $-1 $164 $163 $101 $173 reversed $53 $-1 #
edge $-1 $177 -8.4436292193355786 $170 8.4436292193355786 $172 $230 forward 7 unknown #
coedge $-1 $231 $102 $105 $180 forward $176 $-1 #
coedge $-1 $102 $231 $164 $221 forward $176 $-1 #
loop $-1 $-1 $102 $160 #
vertex $-1 $103 $232 #
straight-curve $-1 0 31.094123178499292 8.4436292193355786 1 0 0 I I #
coedge $-1 $105 $104 $162 $220 reversed $106 $-1 #
edge $-1 $108 -4.4559232294915851 $233 4.4559232294915887 $105 $234 forward 7 unknown #
point $-1 -60.546745284587004 31.094123178499292 -8.4436292193355786 #
point $-1 -60.546745284587004 31.094123178499292 8.4436292193355786 #
plane-surface $-1 77.434003723258158 0 0 -1 0 0 0 0 1 forward_v I I I I #
coedge $-1 $115 $113 $117 $188 reversed $61 $-1 #
edge $-1 $128 -8.4436292193355786 $190 8.4436292193355786 $127 $235 forward 7 unknown #
vertex $-1 $188 $236 #
straight-curve $-1 -77.434003723258158 -31.094123178499292 0 0 0 -1 I I #
edge $-1 $186 -31.094123178499292 $190 31.094123178499292 $184 $237 forward 7 unknown #
straight-curve $-1 0 -31.094123178499292 -8.4436292193355786 -1 0 0 I I #
vertex $-1 $120 $238 #
straight-curve $-1 0 31.094123178499292 -8.4436292193355786 1 0 0 I I #
point $-1 77.434003723258158 31.094123178499292 -8.4436292193355786 #
point $-1 77.434003723258158 -31.094123178499292 -8.4436292193355786 #
straight-curve $-1 -77.434003723258158 0 8.4436292193355786 0 -1 0 I I #
point $-1 -77.434003723258158 31.094123178499292 8.4436292193355786 #
point $-1 -77.434003723258158 -31.094123178499292 8.4436292193355786 #
straight-curve $-1 77.434003723258158 -31.094123178499292 0 0 0 -1 I I #
straight-curve $-1 77.434003723258158 31.094123178499292 0 0 0 -1 I I #
plane-surface $-1 0 0 8.4436292193355786 0 0 1 1 0 0 forward_v I I I I #
coedge $-1 $145 $212 $201 $239 forward $138 $-1 #
coedge $-1 $141 $140 $200 $239 reversed $45 $-1 #
edge $-1 $208 -1.5718132617933023 $206 1.5718132617933023 $140 $240 forward 7 unknown #
coedge $-1 $153 $152 $141 $204 forward $154 $-1 #
edge $-1 $205 -1.5718132617933023 $241 1.5718132617933023 $141 $242 forward 7 unknown #
vertex $-1 $157 $243 #
vertex $-1 $147 $244 #
straight-curve $-1 -63.690371808173609 -40.005969637482465 0 0 0 -1 I I #
vertex $-1 $239 $245 #
straight-curve $-1 -60.546745284587004 -35.550046407990877 -8.4436292193355786 0 -1 0 I I #
straight-curve $-1 -63.690371808173609 -35.550046407990877 -8.4436292193355786 0 1 0 I I #
point $-1 -60.546745284587004 -31.094123178499288 -8.4436292193355786 #
coedge $-1 $200 $150 $153 $214 reversed $138 $-1 #
straight-curve $-1 -60.546745284587004 -31.094123178499292 0 0 0 -1 I I #
edge $-1 $241 -4.4559232294915887 $155 4.4559232294915887 $212 $246 forward 7 unknown #
point $-1 -60.546745284587004 -31.094123178499288 8.4436292193355786 #
straight-curve $-1 -63.690371808173609 -35.550046407990877 8.4436292193355786 0 -1 0 I I #
plane-surface $-1 0 0 8.4436292193355786 0 0 1 1 0 0 forward_v I I I I #
coedge $-1 $165 $162 $167 $225 reversed $95 $-1 #
coedge $-1 $162 $165 $231 $247 reversed $95 $-1 #
edge $-1 $233 -8.4436292193355786 $227 8.4436292193355786 $179 $248 forward 7 unknown #
edge $-1 $222 -4.4559232294915887 $177 4.4559232294915851 $164 $249 forward 7 unknown #
vertex $-1 $247 $250 #
vertex $-1 $225 $251 #
straight-curve $-1 -63.690371808173609 40.005969637482465 0 0 0 -1 I I #
edge $-1 $223 -1.5718132617933023 $227 1.5718132617933023 $218 $252 forward 7 unknown #
straight-curve $-1 -63.690371808173609 35.550046407990877 -8.4436292193355786 0 1 0 I I #
vertex $-1 $169 $253 #
straight-curve $-1 -60.546745284587004 35.550046407990877 -8.4436292193355786 0 -1 0 I I #
point $-1 -63.690371808173609 31.094123178499292 -8.4436292193355786 #
straight-curve $-1 -63.690371808173609 31.094123178499292 0 0 0 -1 I I #
coedge $-1 $175 $174 $219 $247 forward $176 $-1 #
point $-1 -63.690371808173609 31.094123178499292 8.4436292193355786 #
vertex $-1 $180 $254 #
straight-curve $-1 -60.546745284587004 35.550046407990877 8.4436292193355786 0 1 0 I I #
straight-curve $-1 -77.434003723258158 31.094123178499292 0 0 0 -1 I I #
point $-1 -77.434003723258158 -31.094123178499292 -8.4436292193355786 #
straight-curve $-1 -77.434003723258158 0 -8.4436292193355786 0 1 0 I I #
point $-1 -77.434003723258158 31.094123178499292 -8.4436292193355786 #
edge $-1 $241 -8.4436292193355786 $208 8.4436292193355786 $200 $255 forward 7 unknown #
straight-curve $-1 -62.118558546380306 -40.005969637482465 -8.4436292193355786 -1 0 0 I I #
vertex $-1 $214 $256 #
straight-curve $-1 -62.118558546380306 -40.005969637482465 8.4436292193355786 1 0 0 I I #
point $-1 -63.690371808173609 -40.005969637482465 8.4436292193355786 #
point $-1 -63.690371808173609 -40.005969637482465 -8.4436292193355786 #
point $-1 -60.546745284587004 -40.005969637482465 -8.4436292193355786 #
straight-curve $-1 -60.546745284587004 -35.550046407990877 8.4436292193355786 0 1 0 I I #
edge $-1 $233 -1.5718132617933023 $222 1.5718132617933023 $219 $257 forward 7 unknown #
straight-curve $-1 -60.546745284587004 40.005969637482465 0 0 0 -1 I I #
straight-curve $-1 -63.690371808173609 35.550046407990877 8.4436292193355786 0 -1 0 I I #
point $-1 -63.690371808173609 40.005969637482465 8.4436292193355786 #
point $-1 -63.690371808173609 40.005969637482465 -8.4436292193355786 #
straight-curve $-1 -62.118558546380306 40.005969637482465 -8.4436292193355786 1 0 0 I I #
point $-1 -60.546745284587004 40.005969637482465 -8.4436292193355786 #
point $-1 -60.546745284587004 40.005969637482465 8.4436292193355786 #
straight-curve $-1 -60.546745284587004 -40.005969637482465 0 0 0 -1 I I #
point $-1 -60.546745284587004 -40.005969637482465 8.4436292193355786 #
straight-curve $-1 -62.118558546380306 40.005969637482465 8.4436292193355786 -1 0 0 I I #
End-of-ACIS-data 