500 0 6 0           
7 Unknown 11 ACIS 5.0 NT 24 Thu Mar 25 18:58:54 1999 
-1 9.9999999999999995e-007 1e-010 
body $-1 $6 $-1 $7 #
body $-1 $8 $-1 $9 #
body $-1 $10 $-1 $11 #
body $-1 $12 $-1 $13 #
body $-1 $14 $-1 $15 #
body $-1 $16 $-1 $17 #
lump $-1 $-1 $18 $0 #
transform $-1 1 0 0 0 1 0 0 0 1 47.475814081240273 29.71226452780499 11.752244771038439 1 rotate no_reflect no_shear #
lump $-1 $-1 $19 $1 #
transform $-1 1 0 0 0 1 0 0 0 1 47.475814081240273 29.71226452780499 11.752244771038439 1 rotate no_reflect no_shear #
lump $-1 $-1 $20 $2 #
transform $-1 1 0 0 0 1 0 0 0 1 47.475814081240273 29.71226452780499 11.752244771038439 1 rotate no_reflect no_shear #
lump $-1 $-1 $21 $3 #
transform $-1 1 0 0 0 1 0 0 0 1 47.475814081240273 29.71226452780499 11.752244771038439 1 rotate no_reflect no_shear #
lump $-1 $-1 $22 $4 #
transform $-1 1 0 0 0 1 0 0 0 1 47.475814081240273 29.71226452780499 11.752244771038439 1 rotate no_reflect no_shear #
lump $-1 $-1 $23 $5 #
transform $-1 1 0 0 0 1 0 0 0 1 47.475814081240273 29.71226452780499 11.752244771038439 1 rotate no_reflect no_shear #
shell $-1 $-1 $-1 $24 $-1 $6 #
shell $-1 $-1 $-1 $25 $-1 $8 #
shell $-1 $-1 $-1 $26 $-1 $10 #
shell $-1 $-1 $-1 $27 $-1 $12 #
shell $-1 $-1 $-1 $28 $-1 $14 #
shell $-1 $-1 $-1 $29 $-1 $16 #
face $-1 $30 $31 $18 $-1 $32 forward single #
face $-1 $33 $34 $19 $-1 $35 forward single #
face $-1 $36 $37 $20 $-1 $38 reversed single #
face $-1 $39 $40 $21 $-1 $41 forward single #
face $-1 $42 $43 $22 $-1 $44 forward single #
face $-1 $45 $46 $23 $-1 $47 forward single #
face $-1 $48 $49 $18 $-1 $50 reversed single #
loop $-1 $-1 $51 $24 #
plane-surface $-1 0 0 11.752244771038439 0 0 1 1 0 0 forward_v I I I I #
face $-1 $52 $53 $19 $-1 $54 forward single #
loop $-1 $-1 $55 $25 #
plane-surface $-1 0 -29.71226452780499 0 0 1 0 0 0 1 forward_v I I I I #
face $-1 $56 $57 $20 $-1 $58 reversed single #
loop $-1 $-1 $59 $26 #
plane-surface $-1 66.164241584810355 -10.312296662649224 136.36035269608138 0 -1 0 -0.79863551827123203 0 -0.60181501223851219 forward_v I I I I #
face $-1 $60 $61 $21 $-1 $62 forward single #
loop $-1 $63 $64 $27 #
cone-surface $-1 43.627802572828514 -16.638969077343759 7.0446449878270361 -0.79863551827123203 0 -0.60181501223851219 0.3009075061192561 0 -0.39931775913561601 1 I I 0 1 0.5 forward I I I I #
face $-1 $65 $66 $22 $-1 $67 forward single #
loop $-1 $68 $69 $28 #
cone-surface $-1 43.627802572828514 -14.26646692183331 7.0446449878270361 -0.79863551827123203 0 -0.60181501223851219 0.3009075061192561 0 -0.39931775913561601 1 I I 0 1 0.5 forward I I I I #
face $-1 $70 $71 $23 $-1 $72 forward single #
loop $-1 $73 $74 $29 #
cone-surface $-1 43.627802572828514 -11.89396476632286 7.0446449878270361 -0.79863551827123203 0 -0.60181501223851219 0.3009075061192561 0 -0.39931775913561601 1 I I 0 1 0.5 forward I I I I #
face $-1 $75 $76 $18 $-1 $77 reversed single #
loop $-1 $-1 $78 $30 #
plane-surface $-1 0 0 -11.752244771038439 0 0 1 1 0 0 forward_v I I I I #
coedge $-1 $79 $80 $81 $82 forward $31 $-1 #
face $-1 $83 $84 $19 $-1 $85 reversed single #
loop $-1 $-1 $86 $33 #
plane-surface $-1 0 0 11.752244771038439 0 0 1 1 0 0 forward_v I I I I #
coedge $-1 $87 $88 $89 $90 forward $34 $-1 #
face $-1 $91 $92 $20 $-1 $93 reversed single #
loop $-1 $-1 $94 $36 #
plane-surface $-1 -9.6675011834296072 -14.26646692183331 79.217037431411484 0.79863551827123203 0 0.60181501223851219 0.60181501223851219 0 -0.79863551827123203 forward_v I I I I #
coedge $-1 $95 $96 $97 $98 reversed $37 $-1 #
face $-1 $-1 $99 $21 $-1 $100 forward single #
loop $-1 $101 $102 $39 #
cone-surface $-1 42.732606665613801 -16.638969077343759 6.3700665054894632 -0.79863551827123203 0 -0.60181501223851219 0.15045375305962805 0 -0.19965887956780801 1 I I -0.70710678118654746 0.70710678118654746 0.25 forward I I I I #
loop $-1 $-1 $103 $27 #
coedge $-1 $64 $64 $104 $105 reversed $40 $-1 #
face $-1 $-1 $106 $22 $-1 $107 forward single #
loop $-1 $108 $109 $42 #
cone-surface $-1 42.732606665613801 -14.26646692183331 6.3700665054894632 -0.79863551827123203 0 -0.60181501223851219 0.15045375305962805 0 -0.19965887956780801 1 I I -0.70710678118654746 0.70710678118654746 0.25 forward I I I I #
loop $-1 $-1 $110 $28 #
coedge $-1 $69 $69 $111 $112 reversed $43 $-1 #
face $-1 $-1 $113 $23 $-1 $114 forward single #
loop $-1 $115 $116 $45 #
cone-surface $-1 42.732606665613801 -11.89396476632286 6.3700665054894632 -0.79863551827123203 0 -0.60181501223851219 0.15045375305962805 0 -0.19965887956780801 1 I I -0.70710678118654746 0.70710678118654746 0.25 forward I I I I #
loop $-1 $-1 $117 $29 #
coedge $-1 $74 $74 $118 $119 reversed $46 $-1 #
face $-1 $120 $121 $18 $-1 $122 reversed single #
loop $-1 $-1 $123 $48 #
plane-surface $-1 0 -29.71226452780499 0 0 1 0 0 0 1 forward_v I I I I #
coedge $-1 $124 $125 $126 $127 forward $49 $-1 #
coedge $-1 $128 $51 $129 $130 forward $31 $-1 #
coedge $-1 $51 $128 $131 $132 forward $31 $-1 #
coedge $-1 $133 $134 $51 $82 reversed $135 $-1 #
edge $-1 $136 -29.71226452780499 $137 29.71226452780499 $81 $138 forward 7 unknown #
face $-1 $139 $140 $19 $-1 $141 reversed single #
loop $-1 $-1 $142 $52 #
plane-surface $-1 -47.475814081240273 0 0 1 0 0 0 0 -1 forward_v I I I I #
coedge $-1 $143 $144 $88 $145 forward $53 $-1 #
coedge $-1 $146 $55 $147 $148 reversed $34 $-1 #
coedge $-1 $55 $146 $86 $145 reversed $34 $-1 #
coedge $-1 $149 $150 $55 $90 reversed $151 $-1 #
edge $-1 $152 -11.752244771038439 $153 11.752244771038439 $89 $154 forward 7 unknown #
face $-1 $155 $156 $20 $-1 $157 forward single #
loop $-1 $-1 $158 $56 #
plane-surface $-1 66.164241584810355 -18.220637181017395 136.36035269608138 0 1 0 0.79863551827123203 0 0.60181501223851219 forward_v I I I I #
coedge $-1 $159 $160 $161 $162 reversed $57 $-1 #
coedge $-1 $96 $59 $163 $164 reversed $37 $-1 #
coedge $-1 $59 $95 $159 $165 reversed $37 $-1 #
coedge $-1 $161 $166 $59 $98 forward $156 $-1 #
edge $-1 $167 -14.393693288835095 $168 -8.0887443273053918 $97 $169 forward 7 unknown #
loop $-1 $-1 $104 $60 #
plane-surface $-1 -9.6675011834296072 -14.26646692183331 79.217037431411484 0.79863551827123203 0 0.60181501223851219 0.60181501223851219 0 -0.79863551827123203 forward_v I I I I #
loop $-1 $-1 $170 $39 #
coedge $-1 $102 $102 $103 $171 reversed $61 $-1 #
coedge $-1 $103 $103 $102 $171 forward $63 $-1 #
coedge $-1 $104 $104 $64 $105 forward $99 $-1 #
edge $-1 $172 0 $172 6.2831853071796004 $104 $173 forward 7 unknown #
loop $-1 $-1 $111 $65 #
plane-surface $-1 -9.6675011834296072 -14.26646692183331 79.217037431411484 0.79863551827123203 0 0.60181501223851219 0.60181501223851219 0 -0.79863551827123203 forward_v I I I I #
loop $-1 $-1 $174 $42 #
coedge $-1 $109 $109 $110 $175 reversed $66 $-1 #
coedge $-1 $110 $110 $109 $175 forward $68 $-1 #
coedge $-1 $111 $111 $69 $112 forward $106 $-1 #
edge $-1 $176 0 $176 6.2831853071796004 $111 $177 forward 7 unknown #
loop $-1 $-1 $118 $70 #
plane-surface $-1 -9.6675011834296072 -14.26646692183331 79.217037431411484 0.79863551827123203 0 0.60181501223851219 0.60181501223851219 0 -0.79863551827123203 forward_v I I I I #
loop $-1 $-1 $178 $45 #
coedge $-1 $116 $116 $117 $179 reversed $71 $-1 #
coedge $-1 $117 $117 $116 $179 forward $73 $-1 #
coedge $-1 $118 $118 $74 $119 forward $113 $-1 #
edge $-1 $180 0 $180 6.2831853071796004 $118 $181 forward 7 unknown #
face $-1 $182 $183 $18 $-1 $184 reversed single #
loop $-1 $-1 $185 $75 #
plane-surface $-1 -47.475814081240273 0 0 1 0 0 0 0 -1 forward_v I I I I #
coedge $-1 $186 $131 $187 $188 forward $76 $-1 #
coedge $-1 $189 $78 $186 $190 forward $49 $-1 #
coedge $-1 $78 $189 $191 $192 forward $49 $-1 #
coedge $-1 $134 $133 $78 $127 reversed $135 $-1 #
edge $-1 $193 -29.71226452780499 $194 29.71226452780499 $126 $195 forward 7 unknown #
coedge $-1 $80 $79 $196 $197 forward $31 $-1 #
coedge $-1 $198 $199 $79 $130 reversed $183 $-1 #
edge $-1 $137 -47.475814081240273 $200 47.475814081240273 $129 $201 forward 7 unknown #
coedge $-1 $123 $202 $80 $132 reversed $76 $-1 #
edge $-1 $203 -47.475814081240273 $136 47.475814081240273 $131 $204 forward 7 unknown #
coedge $-1 $126 $81 $202 $205 forward $135 $-1 #
coedge $-1 $81 $126 $198 $206 reversed $135 $-1 #
loop $-1 $-1 $133 $182 #
vertex $-1 $82 $207 #
vertex $-1 $82 $208 #
straight-curve $-1 47.475814081240273 0 11.752244771038439 0 1 0 I I #
face $-1 $209 $151 $19 $-1 $210 reversed single #
loop $-1 $-1 $211 $83 #
plane-surface $-1 -43.977829278619929 -41.203891874592586 0 0 1 0 0 0 1 forward_v I I I I #
coedge $-1 $212 $213 $146 $214 forward $84 $-1 #
coedge $-1 $215 $86 $213 $216 forward $53 $-1 #
coedge $-1 $86 $215 $149 $217 forward $53 $-1 #
edge $-1 $152 40.479844475999585 $218 47.475814081240273 $86 $219 forward 7 unknown #
coedge $-1 $88 $87 $142 $214 reversed $34 $-1 #
coedge $-1 $220 $221 $87 $148 forward $222 $-1 #
edge $-1 $223 -47.475814081240273 $153 -40.479844475999585 $147 $224 forward 7 unknown #
coedge $-1 $225 $89 $144 $217 reversed $151 $-1 #
coedge $-1 $89 $225 $220 $226 reversed $151 $-1 #
loop $-1 $-1 $225 $139 #
vertex $-1 $145 $227 #
vertex $-1 $226 $228 #
straight-curve $-1 -40.479844475999585 -29.71226452780499 0 0 0 -1 I I #
face $-1 $-1 $229 $20 $-1 $230 reversed single #
loop $-1 $-1 $97 $91 #
plane-surface $-1 0 0 11.752244771038439 0 0 1 1 0 0 forward_v I I I I #
coedge $-1 $231 $232 $233 $234 reversed $92 $-1 #
coedge $-1 $235 $94 $96 $165 forward $57 $-1 #
coedge $-1 $94 $235 $231 $236 forward $57 $-1 #
coedge $-1 $233 $97 $94 $162 forward $156 $-1 #
edge $-1 $168 3.1790632017325695 $237 11.08740372010074 $161 $238 forward 7 unknown #
coedge $-1 $239 $240 $95 $164 forward $229 $-1 #
edge $-1 $241 -64.794881684869154 $167 -56.427931577002248 $163 $242 forward 7 unknown #
edge $-1 $168 84.475071690288516 $241 94.951628162480532 $96 $243 forward 7 unknown #
coedge $-1 $97 $233 $239 $244 forward $156 $-1 #
vertex $-1 $164 $245 #
vertex $-1 $98 $246 #
straight-curve $-1 33.082120792405178 -10.312296662649224 11.752244771038441 -1 0 0 I I #
coedge $-1 $170 $170 $-1 $247 reversed $101 $-1 #
edge $-1 $248 0 $248 6.2831853071796004 $102 $249 forward 7 unknown #
vertex $-1 $105 $250 #
ellipse-curve $-1 44.323339600475421 -16.638969077343759 7.568769717104983 0.79863551827123203 0 0.60181501223851219 0.3009075061192561 0 -0.39931775913561601 1 I I #
coedge $-1 $174 $174 $-1 $251 reversed $108 $-1 #
edge $-1 $252 0 $252 6.2831853071796004 $109 $253 forward 7 unknown #
vertex $-1 $112 $254 #
ellipse-curve $-1 44.323339600475421 -14.26646692183331 7.568769717104983 0.79863551827123203 0 0.60181501223851219 0.3009075061192561 0 -0.39931775913561601 1 I I #
coedge $-1 $178 $178 $-1 $255 reversed $115 $-1 #
edge $-1 $256 0 $256 6.2831853071796004 $116 $257 forward 7 unknown #
vertex $-1 $119 $258 #
ellipse-curve $-1 44.323339600475421 -11.89396476632286 7.568769717104983 0.79863551827123203 0 0.60181501223851219 0.3009075061192561 0 -0.39931775913561601 1 I I #
face $-1 $-1 $135 $18 $-1 $259 reversed single #
loop $-1 $-1 $198 $120 #
plane-surface $-1 0 29.71226452780499 0 0 -1 0 0 0 -1 forward_v I I I I #
coedge $-1 $260 $196 $199 $261 forward $121 $-1 #
coedge $-1 $202 $123 $124 $190 reversed $76 $-1 #
coedge $-1 $196 $260 $123 $188 reversed $121 $-1 #
edge $-1 $203 -11.752244771038439 $262 11.752244771038439 $187 $263 forward 7 unknown #
coedge $-1 $125 $124 $260 $264 forward $49 $-1 #
edge $-1 $194 -47.475814081240273 $262 47.475814081240273 $186 $265 forward 7 unknown #
coedge $-1 $199 $198 $125 $192 reversed $183 $-1 #
edge $-1 $266 -47.475814081240273 $193 47.475814081240273 $191 $267 forward 7 unknown #
vertex $-1 $127 $268 #
vertex $-1 $205 $269 #
straight-curve $-1 47.475814081240273 0 -11.752244771038439 0 -1 0 I I #
coedge $-1 $185 $187 $128 $197 reversed $121 $-1 #
edge $-1 $200 -29.71226452780499 $203 29.71226452780499 $196 $270 forward 7 unknown #
coedge $-1 $191 $129 $134 $206 forward $183 $-1 #
coedge $-1 $129 $191 $185 $261 reversed $183 $-1 #
vertex $-1 $130 $271 #
straight-curve $-1 0 29.71226452780499 11.752244771038439 -1 0 0 I I #
coedge $-1 $131 $186 $133 $205 reversed $76 $-1 #
vertex $-1 $197 $272 #
straight-curve $-1 0 -29.71226452780499 11.752244771038439 1 0 0 I I #
edge $-1 $136 -11.752244771038439 $194 11.752244771038439 $133 $273 forward 7 unknown #
edge $-1 $137 -11.752244771038439 $193 11.752244771038439 $134 $274 forward 7 unknown #
point $-1 47.475814081240273 -29.71226452780499 11.752244771038439 #
point $-1 47.475814081240273 29.71226452780499 11.752244771038439 #
face $-1 $-1 $222 $19 $-1 $275 reversed single #
plane-surface $-1 -40.479844475999585 -35.458078201198788 0 -1 0 0 0 0 1 forward_v I I I I #
coedge $-1 $276 $277 $278 $279 forward $140 $-1 #
coedge $-1 $278 $142 $221 $280 reversed $84 $-1 #
coedge $-1 $142 $278 $143 $216 reversed $84 $-1 #
edge $-1 $218 -11.752244771038439 $223 11.752244771038439 $142 $281 forward 7 unknown #
coedge $-1 $144 $143 $277 $282 forward $53 $-1 #
edge $-1 $218 29.71226452780499 $283 41.203891874592586 $213 $284 forward 7 unknown #
edge $-1 $285 -5.7458136733937977 $152 5.7458136733937977 $149 $286 forward 7 unknown #
vertex $-1 $216 $287 #
straight-curve $-1 0 -29.71226452780499 11.752244771038439 -1 0 0 I I #
coedge $-1 $288 $147 $150 $226 forward $222 $-1 #
coedge $-1 $147 $288 $212 $280 forward $222 $-1 #
loop $-1 $-1 $147 $209 #
vertex $-1 $214 $289 #
straight-curve $-1 0 -29.71226452780499 -11.752244771038439 1 0 0 I I #
coedge $-1 $150 $149 $290 $291 forward $151 $-1 #
edge $-1 $153 -5.7458136733937977 $292 5.7458136733937977 $150 $293 forward 7 unknown #
point $-1 -40.479844475999585 -29.71226452780499 11.752244771038439 #
point $-1 -40.479844475999585 -29.71226452780499 -11.752244771038439 #
loop $-1 $-1 $163 $155 #
plane-surface $-1 47.475814081240273 0 0 -1 0 0 0 0 1 forward_v I I I I #
coedge $-1 $232 $158 $160 $236 reversed $92 $-1 #
coedge $-1 $158 $231 $294 $295 reversed $92 $-1 #
coedge $-1 $166 $161 $158 $234 forward $156 $-1 #
edge $-1 $237 8.0887443273053918 $296 14.393693288835095 $233 $297 forward 7 unknown #
coedge $-1 $160 $159 $240 $298 reversed $57 $-1 #
edge $-1 $299 -94.951628162480532 $237 -84.475071690288516 $231 $300 forward 7 unknown #
vertex $-1 $162 $301 #
straight-curve $-1 41.170865119710562 -7.1332334609166548 11.752244771038441 0 -1 0 I I #
coedge $-1 $294 $163 $166 $244 reversed $229 $-1 #
coedge $-1 $163 $294 $235 $298 forward $229 $-1 #
vertex $-1 $164 $302 #
straight-curve $-1 47.475814081240273 -10.312296662649224 68.180176348040689 0 0 1 I I #
straight-curve $-1 -9.6675011834296072 -10.312296662649224 79.217037431411484 0.60181501223851219 0 -0.79863551827123203 I I #
edge $-1 $296 -18.220637181017395 $167 -10.312296662649224 $239 $303 forward 7 unknown #
point $-1 47.475814081240273 -10.312296662649224 11.752244771038439 #
point $-1 41.17086511971057 -10.312296662649224 11.752244771038434 #
edge $-1 $304 1 $304 0 $170 $-1 forward 7 unknown #
vertex $-1 $171 $305 #
ellipse-curve $-1 42.932265545181608 -16.638969077343759 6.5205202585490909 0.79863551827123203 0 0.60181501223851219 0.3009075061192561 0 -0.39931775913561601 1 I I #
point $-1 44.624247106594673 -16.638969077343759 7.1694519579693647 #
edge $-1 $306 1 $306 0 $174 $-1 forward 7 unknown #
vertex $-1 $175 $307 #
ellipse-curve $-1 42.932265545181608 -14.26646692183331 6.5205202585490909 0.79863551827123203 0 0.60181501223851219 0.3009075061192561 0 -0.39931775913561601 1 I I #
point $-1 44.624247106594673 -14.26646692183331 7.1694519579693647 #
edge $-1 $308 1 $308 0 $178 $-1 forward 7 unknown #
vertex $-1 $179 $309 #
ellipse-curve $-1 42.932265545181608 -11.89396476632286 6.5205202585490909 0.79863551827123203 0 0.60181501223851219 0.3009075061192561 0 -0.39931775913561601 1 I I #
point $-1 44.624247106594673 -11.89396476632286 7.1694519579693647 #
plane-surface $-1 47.475814081240273 0 0 -1 0 0 0 0 1 forward_v I I I I #
coedge $-1 $187 $185 $189 $264 reversed $121 $-1 #
edge $-1 $200 -11.752244771038439 $266 11.752244771038439 $199 $310 forward 7 unknown #
vertex $-1 $264 $311 #
straight-curve $-1 -47.475814081240273 -29.71226452780499 0 0 0 -1 I I #
edge $-1 $262 -29.71226452780499 $266 29.71226452780499 $260 $312 forward 7 unknown #
straight-curve $-1 0 -29.71226452780499 -11.752244771038439 -1 0 0 I I #
vertex $-1 $192 $313 #
straight-curve $-1 0 29.71226452780499 -11.752244771038439 1 0 0 I I #
point $-1 47.475814081240273 29.71226452780499 -11.752244771038439 #
point $-1 47.475814081240273 -29.71226452780499 -11.752244771038439 #
straight-curve $-1 -47.475814081240273 0 11.752244771038439 0 -1 0 I I #
point $-1 -47.475814081240273 29.71226452780499 11.752244771038439 #
point $-1 -47.475814081240273 -29.71226452780499 11.752244771038439 #
straight-curve $-1 47.475814081240273 -29.71226452780499 0 0 0 -1 I I #
straight-curve $-1 47.475814081240273 29.71226452780499 0 0 0 -1 I I #
plane-surface $-1 0 0 -11.752244771038439 0 0 1 1 0 0 forward_v I I I I #
coedge $-1 $290 $211 $288 $314 reversed $140 $-1 #
coedge $-1 $211 $290 $215 $282 reversed $140 $-1 #
coedge $-1 $213 $212 $211 $279 reversed $84 $-1 #
edge $-1 $283 -11.752244771038439 $315 11.752244771038439 $278 $316 forward 7 unknown #
edge $-1 $315 -41.203891874592586 $223 -29.71226452780499 $212 $317 forward 7 unknown #
straight-curve $-1 -47.475814081240273 -29.71226452780499 0 0 0 -1 I I #
edge $-1 $283 -3.4979848026203442 $285 3.4979848026203442 $277 $318 forward 7 unknown #
vertex $-1 $216 $319 #
straight-curve $-1 -47.475814081240273 0 11.752244771038439 0 -1 0 I I #
vertex $-1 $217 $320 #
straight-curve $-1 -40.479844475999585 -35.458078201198788 11.752244771038439 0 1 0 I I #
point $-1 -47.475814081240273 -29.71226452780499 11.752244771038439 #
coedge $-1 $221 $220 $276 $314 forward $222 $-1 #
point $-1 -47.475814081240273 -29.71226452780499 -11.752244771038439 #
coedge $-1 $277 $276 $225 $291 reversed $140 $-1 #
edge $-1 $285 -11.752244771038439 $292 11.752244771038439 $225 $321 forward 7 unknown #
vertex $-1 $291 $322 #
straight-curve $-1 -40.479844475999585 -35.458078201198788 -11.752244771038439 0 -1 0 I I #
coedge $-1 $240 $239 $232 $295 forward $229 $-1 #
edge $-1 $296 56.427931577002248 $299 64.794881684869154 $294 $323 forward 7 unknown #
vertex $-1 $244 $324 #
straight-curve $-1 33.082120792405178 -18.220637181017395 11.752244771038441 1 0 0 I I #
edge $-1 $299 -11.08740372010074 $241 -3.1790632017325695 $240 $325 forward 7 unknown #
vertex $-1 $298 $326 #
straight-curve $-1 -9.6675011834296072 -18.220637181017395 79.217037431411484 -0.60181501223851219 0 0.79863551827123203 I I #
point $-1 41.17086511971057 -18.220637181017395 11.752244771038434 #
point $-1 47.475814081240273 -10.312296662649224 3.3852946631715355 #
straight-curve $-1 47.475814081240273 0 11.752244771038439 0 1 0 I I #
vertex $-1 $247 $327 #
point $-1 43.233173051300867 -16.638969077343759 6.1212024994134753 #
vertex $-1 $251 $328 #
point $-1 43.233173051300867 -14.26646692183331 6.1212024994134753 #
vertex $-1 $255 $329 #
point $-1 43.233173051300867 -11.89396476632286 6.1212024994134753 #
straight-curve $-1 -47.475814081240273 29.71226452780499 0 0 0 -1 I I #
point $-1 -47.475814081240273 -29.71226452780499 -11.752244771038439 #
straight-curve $-1 -47.475814081240273 0 -11.752244771038439 0 1 0 I I #
point $-1 -47.475814081240273 29.71226452780499 -11.752244771038439 #
edge $-1 $292 -3.4979848026203442 $315 3.4979848026203442 $276 $330 forward 7 unknown #
vertex $-1 $280 $331 #
straight-curve $-1 -47.475814081240273 -41.203891874592586 0 0 0 -1 I I #
straight-curve $-1 -47.475814081240273 0 -11.752244771038439 0 1 0 I I #
straight-curve $-1 -43.977829278619929 -41.203891874592586 11.752244771038439 1 0 0 I I #
point $-1 -47.475814081240273 -41.203891874592586 11.752244771038439 #
point $-1 -40.479844475999585 -41.203891874592586 11.752244771038439 #
straight-curve $-1 -40.479844475999585 -41.203891874592586 0 0 0 -1 I I #
point $-1 -40.479844475999585 -41.203891874592586 -11.752244771038439 #
straight-curve $-1 47.475814081240273 -18.220637181017395 68.180176348040689 0 0 -1 I I #
point $-1 47.475814081240273 -18.220637181017395 11.752244771038439 #
straight-curve $-1 47.475814081240273 -7.1332334609166548 3.3852946631715355 0 1 0 I I #
point $-1 47.475814081240273 -18.220637181017395 3.3852946631715355 #
point $-1 42.532947786045995 -16.638969077343759 6.2196127524298355 #
point $-1 42.532947786045995 -14.26646692183331 6.2196127524298355 #
point $-1 42.532947786045995 -11.89396476632286 6.2196127524298355 #
straight-curve $-1 -43.977829278619929 -41.203891874592586 -11.752244771038439 -1 0 0 I I #
point $-1 -47.475814081240273 -41.203891874592586 -11.752244771038439 #
End-of-ACIS-data 