500 0 8 0           
7 Unknown 11 ACIS 5.0 NT 24 Thu Mar 25 17:50:58 1999 
-1 9.9999999999999995e-007 1e-010 
body $-1 $8 $-1 $9 #
body $-1 $10 $-1 $11 #
body $-1 $12 $-1 $13 #
body $-1 $14 $-1 $15 #
body $-1 $16 $-1 $17 #
body $-1 $18 $-1 $19 #
body $-1 $20 $-1 $21 #
body $-1 $22 $-1 $23 #
lump $-1 $-1 $24 $0 #
transform $-1 1 0 0 0 1 0 0 0 1 53.085116122928554 32.291569050380694 9.0753825307460492 1 rotate no_reflect no_shear #
lump $-1 $-1 $25 $1 #
transform $-1 1 0 0 0 1 0 0 0 1 53.085116122928554 32.291569050380694 9.0753825307460492 1 rotate no_reflect no_shear #
lump $-1 $-1 $26 $2 #
transform $-1 1 0 0 0 1 0 0 0 1 53.085116122928554 32.291569050380694 9.0753825307460492 1 rotate no_reflect no_shear #
lump $-1 $-1 $27 $3 #
transform $-1 1 0 0 0 1 0 0 0 1 53.085116122928554 32.291569050380694 9.0753825307460492 1 rotate no_reflect no_shear #
lump $-1 $-1 $28 $4 #
transform $-1 1 0 0 0 1 0 0 0 1 53.085116122928554 32.291569050380694 9.0753825307460492 1 rotate no_reflect no_shear #
lump $-1 $-1 $29 $5 #
transform $-1 1 0 0 0 1 0 0 0 1 53.085116122928554 32.291569050380694 9.0753825307460492 1 rotate no_reflect no_shear #
lump $-1 $-1 $30 $6 #
transform $-1 1 0 0 0 1 0 0 0 1 53.085116122928554 32.291569050380694 9.0753825307460492 1 rotate no_reflect no_shear #
lump $-1 $-1 $31 $7 #
transform $-1 1 0 0 0 1 0 0 0 1 53.085116122928554 32.291569050380694 9.0753825307460492 1 rotate no_reflect no_shear #
shell $-1 $-1 $-1 $32 $-1 $8 #
shell $-1 $-1 $-1 $33 $-1 $10 #
shell $-1 $-1 $-1 $34 $-1 $12 #
shell $-1 $-1 $-1 $35 $-1 $14 #
shell $-1 $-1 $-1 $36 $-1 $16 #
shell $-1 $-1 $-1 $37 $-1 $18 #
shell $-1 $-1 $-1 $38 $-1 $20 #
shell $-1 $-1 $-1 $39 $-1 $22 #
face $-1 $40 $41 $24 $-1 $42 forward single #
face $-1 $43 $44 $25 $-1 $45 forward single #
face $-1 $46 $47 $26 $-1 $48 reversed single #
face $-1 $49 $50 $27 $-1 $51 forward single #
face $-1 $52 $53 $28 $-1 $54 forward single #
face $-1 $55 $56 $29 $-1 $57 reversed single #
face $-1 $58 $59 $30 $-1 $60 forward single #
face $-1 $61 $62 $31 $-1 $63 forward single #
face $-1 $64 $65 $24 $-1 $66 reversed single #
loop $-1 $-1 $67 $32 #
plane-surface $-1 0 0 9.0753825307460492 0 0 1 1 0 0 forward_v I I I I #
face $-1 $68 $69 $25 $-1 $70 reversed single #
loop $-1 $-1 $71 $33 #
plane-surface $-1 0 -28.05649762999634 -3.9556448043493488 0 0 1 1 0 0 forward_v I I I I #
face $-1 $72 $73 $26 $-1 $74 reversed single #
loop $-1 $-1 $75 $34 #
plane-surface $-1 -137.87643457757571 19.843866905859212 68.441688759355458 0 1 0 -0.79863551827123203 0 0.60181501223851219 forward_v I I I I #
face $-1 $76 $77 $27 $-1 $78 forward single #
loop $-1 $79 $80 $35 #
cone-surface $-1 -50.325570293607221 23.400353232865349 6.0173984780976939 0.79863551827123203 0 -0.60181501223851219 0.60181501223851219 0 0.79863551827123203 1 I I 0 1 1 forward I I I I #
face $-1 $81 $82 $28 $-1 $83 forward single #
loop $-1 $84 $85 $36 #
cone-surface $-1 -50.325570293607221 28.735082723374553 6.0173984780976939 0.79863551827123203 0 -0.60181501223851219 0.60181501223851219 0 0.79863551827123203 1 I I 0 1 1 forward I I I I #
face $-1 $86 $87 $29 $-1 $88 reversed single #
loop $-1 $-1 $89 $37 #
plane-surface $-1 73.981594959169541 19.843866905859212 153.23300721400264 0 1 0 0.79863551827123203 0 0.60181501223851219 forward_v I I I I #
face $-1 $90 $91 $30 $-1 $92 forward single #
loop $-1 $93 $94 $38 #
cone-surface $-1 50.325570293607221 23.400353232865349 6.0173984780977117 -0.79863551827123203 0 -0.60181501223851219 0.60181501223851219 0 -0.79863551827123203 1 I I 0 1 1 forward I I I I #
face $-1 $95 $96 $31 $-1 $97 forward single #
loop $-1 $98 $99 $39 #
cone-surface $-1 50.325570293607221 28.735082723374553 6.0173984780977117 -0.79863551827123203 0 -0.60181501223851219 0.60181501223851219 0 -0.79863551827123203 1 I I 0 1 1 forward I I I I #
face $-1 $100 $101 $24 $-1 $102 reversed single #
loop $-1 $-1 $103 $40 #
plane-surface $-1 0 0 -9.0753825307460492 0 0 1 1 0 0 forward_v I I I I #
coedge $-1 $104 $105 $106 $107 forward $41 $-1 #
face $-1 $108 $109 $25 $-1 $110 reversed single #
loop $-1 $-1 $111 $43 #
plane-surface $-1 0 -23.821426209611985 -6.5155136675476992 0 -1 0 0 0 -1 forward_v I I I I #
coedge $-1 $112 $113 $114 $115 reversed $44 $-1 #
face $-1 $116 $117 $26 $-1 $118 reversed single #
loop $-1 $-1 $119 $46 #
plane-surface $-1 -53.08511612292854 26.067717978119951 4.5468491409492842 -0.79863551827123203 0 0.60181501223851219 0.60181501223851219 0 0.79863551827123203 forward_v I I I I #
coedge $-1 $120 $121 $122 $123 reversed $47 $-1 #
face $-1 $-1 $124 $27 $-1 $125 forward single #
loop $-1 $126 $127 $49 #
cone-surface $-1 -48.872953995092033 23.400353232865349 4.922773614228463 0.79863551827123203 0 -0.60181501223851219 0.3009075061192561 0 0.39931775913561601 1 I I -0.70710678118654746 0.70710678118654746 0.5 forward I I I I #
loop $-1 $-1 $128 $35 #
coedge $-1 $80 $80 $129 $130 reversed $50 $-1 #
face $-1 $-1 $131 $28 $-1 $132 forward single #
loop $-1 $133 $134 $52 #
cone-surface $-1 -48.872953995092033 28.735082723374553 4.922773614228463 0.79863551827123203 0 -0.60181501223851219 0.3009075061192561 0 0.39931775913561601 1 I I -0.70710678118654746 0.70710678118654746 0.5 forward I I I I #
loop $-1 $-1 $135 $36 #
coedge $-1 $85 $85 $136 $137 reversed $53 $-1 #
face $-1 $138 $139 $29 $-1 $140 forward single #
loop $-1 $-1 $141 $55 #
plane-surface $-1 -10.809723495477627 26.067717978119951 89.338167595596474 0.79863551827123203 0 0.60181501223851219 0.60181501223851219 0 -0.79863551827123203 forward_v I I I I #
coedge $-1 $142 $143 $144 $145 reversed $56 $-1 #
face $-1 $-1 $146 $30 $-1 $147 forward single #
loop $-1 $148 $149 $58 #
cone-surface $-1 48.872953995092033 23.400353232865349 4.9227736142284808 -0.79863551827123203 0 -0.60181501223851219 0.3009075061192561 0 -0.39931775913561601 1 I I -0.70710678118654746 0.70710678118654746 0.5 forward I I I I #
loop $-1 $-1 $150 $38 #
coedge $-1 $94 $94 $151 $152 reversed $59 $-1 #
face $-1 $-1 $153 $31 $-1 $154 forward single #
loop $-1 $155 $156 $61 #
cone-surface $-1 48.872953995092033 28.735082723374553 4.9227736142284808 -0.79863551827123203 0 -0.60181501223851219 0.3009075061192561 0 -0.39931775913561601 1 I I -0.70710678118654746 0.70710678118654746 0.5 forward I I I I #
loop $-1 $-1 $157 $39 #
coedge $-1 $99 $99 $158 $159 reversed $62 $-1 #
face $-1 $160 $161 $24 $-1 $162 reversed single #
loop $-1 $-1 $163 $64 #
plane-surface $-1 0 -32.291569050380694 0 0 1 0 0 0 1 forward_v I I I I #
coedge $-1 $164 $165 $166 $167 forward $65 $-1 #
coedge $-1 $168 $67 $169 $170 forward $41 $-1 #
coedge $-1 $67 $168 $171 $172 forward $41 $-1 #
coedge $-1 $173 $174 $67 $107 reversed $175 $-1 #
edge $-1 $176 -32.291569050380694 $177 32.291569050380694 $106 $178 forward 7 unknown #
face $-1 $179 $180 $25 $-1 $181 reversed single #
loop $-1 $-1 $182 $68 #
plane-surface $-1 0 0 -9.0753825307460492 0 0 1 1 0 0 forward_v I I I I #
coedge $-1 $183 $184 $185 $186 reversed $69 $-1 #
coedge $-1 $187 $71 $184 $188 forward $44 $-1 #
coedge $-1 $71 $187 $189 $190 reversed $44 $-1 #
coedge $-1 $191 $185 $71 $115 forward $180 $-1 #
edge $-1 $192 9.7931773946138154 $193 18.263320235382523 $114 $194 forward 7 unknown #
face $-1 $195 $196 $26 $-1 $197 reversed single #
loop $-1 $-1 $198 $72 #
plane-surface $-1 0 32.291569050380694 0 0 -1 0 0 0 -1 forward_v I I I I #
coedge $-1 $199 $200 $201 $202 reversed $73 $-1 #
coedge $-1 $121 $75 $203 $204 reversed $47 $-1 #
coedge $-1 $75 $120 $199 $205 reversed $47 $-1 #
coedge $-1 $201 $206 $75 $123 forward $207 $-1 #
edge $-1 $208 15.8531011658593 $209 19.265595745742843 $122 $210 forward 7 unknown #
loop $-1 $-1 $129 $76 #
plane-surface $-1 -53.08511612292854 26.067717978119951 4.5468491409492842 -0.79863551827123203 0 0.60181501223851219 0.60181501223851219 0 0.79863551827123203 forward_v I I I I #
loop $-1 $-1 $211 $49 #
coedge $-1 $127 $127 $128 $212 reversed $77 $-1 #
coedge $-1 $128 $128 $127 $212 forward $79 $-1 #
coedge $-1 $129 $129 $80 $130 forward $124 $-1 #
edge $-1 $213 0 $213 6.2831853071796004 $129 $214 forward 7 unknown #
loop $-1 $-1 $136 $81 #
plane-surface $-1 -53.08511612292854 26.067717978119951 4.5468491409492842 -0.79863551827123203 0 0.60181501223851219 0.60181501223851219 0 0.79863551827123203 forward_v I I I I #
loop $-1 $-1 $215 $52 #
coedge $-1 $134 $134 $135 $216 reversed $82 $-1 #
coedge $-1 $135 $135 $134 $216 forward $84 $-1 #
coedge $-1 $136 $136 $85 $137 forward $131 $-1 #
edge $-1 $217 0 $217 6.2831853071796004 $136 $218 forward 7 unknown #
face $-1 $219 $220 $29 $-1 $221 reversed single #
loop $-1 $-1 $222 $86 #
plane-surface $-1 0 0 9.0753825307460492 0 0 1 1 0 0 forward_v I I I I #
coedge $-1 $223 $224 $225 $226 reversed $87 $-1 #
coedge $-1 $143 $89 $227 $228 reversed $56 $-1 #
coedge $-1 $89 $142 $223 $229 reversed $56 $-1 #
coedge $-1 $225 $230 $89 $145 forward $231 $-1 #
edge $-1 $232 67.541121076255266 $233 72.069654466052015 $144 $234 forward 7 unknown #
loop $-1 $-1 $151 $90 #
plane-surface $-1 -10.809723495477627 26.067717978119951 89.338167595596474 0.79863551827123203 0 0.60181501223851219 0.60181501223851219 0 -0.79863551827123203 forward_v I I I I #
loop $-1 $-1 $235 $58 #
coedge $-1 $149 $149 $150 $236 reversed $91 $-1 #
coedge $-1 $150 $150 $149 $236 forward $93 $-1 #
coedge $-1 $151 $151 $94 $152 forward $146 $-1 #
edge $-1 $237 0 $237 6.2831853071796004 $151 $238 forward 7 unknown #
loop $-1 $-1 $158 $95 #
plane-surface $-1 -10.809723495477627 26.067717978119951 89.338167595596474 0.79863551827123203 0 0.60181501223851219 0.60181501223851219 0 -0.79863551827123203 forward_v I I I I #
loop $-1 $-1 $239 $61 #
coedge $-1 $156 $156 $157 $240 reversed $96 $-1 #
coedge $-1 $157 $157 $156 $240 forward $98 $-1 #
coedge $-1 $158 $158 $99 $159 forward $153 $-1 #
edge $-1 $241 0 $241 6.2831853071796004 $158 $242 forward 7 unknown #
face $-1 $243 $244 $24 $-1 $245 reversed single #
loop $-1 $-1 $246 $100 #
plane-surface $-1 -53.085116122928554 0 0 1 0 0 0 0 -1 forward_v I I I I #
coedge $-1 $247 $171 $248 $249 forward $101 $-1 #
coedge $-1 $250 $103 $247 $251 forward $65 $-1 #
coedge $-1 $103 $250 $252 $253 forward $65 $-1 #
coedge $-1 $174 $173 $103 $167 reversed $175 $-1 #
edge $-1 $254 -32.291569050380694 $255 32.291569050380694 $166 $256 forward 7 unknown #
coedge $-1 $105 $104 $257 $258 forward $41 $-1 #
coedge $-1 $259 $260 $104 $170 reversed $244 $-1 #
edge $-1 $177 -53.085116122928554 $261 53.085116122928554 $169 $262 forward 7 unknown #
coedge $-1 $163 $263 $105 $172 reversed $101 $-1 #
edge $-1 $264 -53.085116122928554 $176 53.085116122928554 $171 $265 forward 7 unknown #
coedge $-1 $166 $106 $263 $266 forward $175 $-1 #
coedge $-1 $106 $166 $259 $267 reversed $175 $-1 #
loop $-1 $-1 $173 $243 #
vertex $-1 $107 $268 #
vertex $-1 $107 $269 #
straight-curve $-1 53.085116122928554 0 9.0753825307460492 0 1 0 I I #
face $-1 $270 $271 $25 $-1 $272 reversed single #
loop $-1 $-1 $185 $108 #
plane-surface $-1 53.085116122928554 0 0 -1 0 0 0 0 1 forward_v I I I I #
coedge $-1 $273 $274 $183 $275 forward $109 $-1 #
coedge $-1 $276 $111 $182 $275 reversed $69 $-1 #
coedge $-1 $111 $276 $112 $188 reversed $69 $-1 #
coedge $-1 $114 $277 $111 $186 forward $180 $-1 #
edge $-1 $278 -5.8176256969721996 $192 -0.69788797057549923 $185 $279 forward 7 unknown #
coedge $-1 $113 $112 $280 $281 reversed $44 $-1 #
edge $-1 $192 -53.085116122928554 $282 53.085116122928554 $184 $283 forward 7 unknown #
coedge $-1 $284 $285 $113 $190 forward $271 $-1 #
edge $-1 $193 -53.085116122928554 $286 53.085116122928554 $189 $287 forward 7 unknown #
coedge $-1 $277 $114 $285 $288 forward $180 $-1 #
vertex $-1 $115 $289 #
vertex $-1 $288 $290 #
straight-curve $-1 53.085116122928554 -14.02824881499817 -3.9556448043493488 0 -1 0 I I #
face $-1 $-1 $207 $26 $-1 $291 forward single #
loop $-1 $-1 $292 $116 #
plane-surface $-1 -53.085116122928554 0 0 1 0 0 0 0 -1 forward_v I I I I #
coedge $-1 $293 $294 $200 $295 forward $117 $-1 #
coedge $-1 $296 $119 $121 $205 forward $73 $-1 #
coedge $-1 $119 $296 $198 $295 reversed $73 $-1 #
coedge $-1 $297 $122 $119 $202 forward $207 $-1 #
edge $-1 $209 6.8100079167992362 $298 19.257710061320712 $201 $299 forward 7 unknown #
coedge $-1 $300 $292 $120 $204 forward $196 $-1 #
edge $-1 $301 -29.673995238728462 $208 -25.145461848931681 $203 $302 forward 7 unknown #
edge $-1 $209 -5.6703380781253809 $301 2.3448253187574213e-014 $121 $303 forward 7 unknown #
coedge $-1 $122 $297 $300 $304 forward $207 $-1 #
loop $-1 $-1 $201 $195 #
vertex $-1 $204 $305 #
vertex $-1 $123 $306 #
straight-curve $-1 -68.938217288787854 19.843866905859212 9.0753825307460474 1 0 0 I I #
coedge $-1 $211 $211 $-1 $307 reversed $126 $-1 #
edge $-1 $308 0 $308 6.2831853071796004 $127 $309 forward 7 unknown #
vertex $-1 $130 $310 #
ellipse-curve $-1 -51.378868832986782 23.400353232865349 6.8111158358476596 -0.79863551827123203 0 0.60181501223851219 0.60181501223851219 0 0.79863551827123203 1 I I #
coedge $-1 $215 $215 $-1 $311 reversed $133 $-1 #
edge $-1 $312 0 $312 6.2831853071796004 $134 $313 forward 7 unknown #
vertex $-1 $137 $314 #
ellipse-curve $-1 -51.378868832986782 28.735082723374553 6.8111158358476596 -0.79863551827123203 0 0.60181501223851219 0.60181501223851219 0 0.79863551827123203 1 I I #
face $-1 $-1 $231 $29 $-1 $315 reversed single #
loop $-1 $-1 $316 $138 #
plane-surface $-1 0 32.291569050380694 0 0 -1 0 0 0 -1 forward_v I I I I #
coedge $-1 $227 $317 $318 $319 forward $139 $-1 #
coedge $-1 $318 $141 $143 $229 forward $87 $-1 #
coedge $-1 $141 $318 $316 $320 reversed $87 $-1 #
coedge $-1 $321 $144 $141 $226 forward $231 $-1 #
edge $-1 $233 6.8100079167992362 $322 19.257710061320719 $225 $323 forward 7 unknown #
coedge $-1 $324 $222 $142 $228 forward $139 $-1 #
edge $-1 $325 12.681824063460269 $232 16.094318643343783 $227 $326 forward 7 unknown #
edge $-1 $233 -106.17023224585711 $325 -100.49989416773175 $143 $327 forward 7 unknown #
coedge $-1 $144 $321 $324 $328 reversed $231 $-1 #
loop $-1 $-1 $225 $219 #
vertex $-1 $328 $329 #
vertex $-1 $145 $330 #
straight-curve $-1 53.085116122928554 19.843866905859212 76.61650360700132 0 0 -1 I I #
coedge $-1 $235 $235 $-1 $331 reversed $148 $-1 #
edge $-1 $332 0 $332 6.2831853071796004 $149 $333 forward 7 unknown #
vertex $-1 $152 $334 #
ellipse-curve $-1 51.37886883298679 23.400353232865349 6.8111158358476853 0.79863551827123203 0 0.60181501223851219 0.60181501223851219 0 -0.79863551827123203 1 I I #
coedge $-1 $239 $239 $-1 $335 reversed $155 $-1 #
edge $-1 $336 0 $336 6.2831853071796004 $156 $337 forward 7 unknown #
vertex $-1 $159 $338 #
ellipse-curve $-1 51.37886883298679 28.735082723374553 6.8111158358476853 0.79863551827123203 0 0.60181501223851219 0.60181501223851219 0 -0.79863551827123203 1 I I #
face $-1 $-1 $175 $24 $-1 $339 reversed single #
loop $-1 $-1 $259 $160 #
plane-surface $-1 0 32.291569050380694 0 0 -1 0 0 0 -1 forward_v I I I I #
coedge $-1 $340 $257 $260 $341 forward $161 $-1 #
coedge $-1 $263 $163 $164 $251 reversed $101 $-1 #
coedge $-1 $257 $340 $163 $249 reversed $161 $-1 #
edge $-1 $264 -9.0753825307460492 $342 9.0753825307460492 $248 $343 forward 7 unknown #
coedge $-1 $165 $164 $340 $344 forward $65 $-1 #
edge $-1 $255 -53.085116122928554 $342 53.085116122928554 $247 $345 forward 7 unknown #
coedge $-1 $260 $259 $165 $253 reversed $244 $-1 #
edge $-1 $346 -53.085116122928554 $254 53.085116122928554 $252 $347 forward 7 unknown #
vertex $-1 $167 $348 #
vertex $-1 $266 $349 #
straight-curve $-1 53.085116122928554 0 -9.0753825307460492 0 -1 0 I I #
coedge $-1 $246 $248 $168 $258 reversed $161 $-1 #
edge $-1 $261 -32.291569050380694 $264 32.291569050380694 $257 $350 forward 7 unknown #
coedge $-1 $252 $169 $174 $267 forward $244 $-1 #
coedge $-1 $169 $252 $246 $341 reversed $244 $-1 #
vertex $-1 $170 $351 #
straight-curve $-1 0 32.291569050380694 9.0753825307460492 -1 0 0 I I #
coedge $-1 $171 $247 $173 $266 reversed $101 $-1 #
vertex $-1 $258 $352 #
straight-curve $-1 0 -32.291569050380694 9.0753825307460492 1 0 0 I I #
edge $-1 $176 -9.0753825307460492 $255 9.0753825307460492 $173 $353 forward 7 unknown #
edge $-1 $177 -9.0753825307460492 $254 9.0753825307460492 $174 $354 forward 7 unknown #
point $-1 53.085116122928554 -32.291569050380694 9.0753825307460492 #
point $-1 53.085116122928554 32.291569050380694 9.0753825307460492 #
face $-1 $-1 $355 $25 $-1 $356 reversed single #
loop $-1 $-1 $189 $179 #
plane-surface $-1 0 -32.291569050380694 0 0 1 0 0 0 1 forward_v I I I I #
coedge $-1 $357 $182 $277 $358 forward $109 $-1 #
coedge $-1 $182 $357 $359 $360 forward $109 $-1 #
edge $-1 $361 -53.085116122928554 $278 53.085116122928554 $182 $362 forward 7 unknown #
coedge $-1 $184 $183 $363 $364 reversed $69 $-1 #
coedge $-1 $185 $191 $273 $358 reversed $180 $-1 #
vertex $-1 $358 $365 #
straight-curve $-1 53.085116122928554 -23.821426209611985 -3.2577568337738496 0 0 1 I I #
coedge $-1 $363 $366 $187 $281 forward $355 $-1 #
edge $-1 $286 -18.263320235382523 $282 -9.7931773946138154 $280 $367 forward 7 unknown #
vertex $-1 $281 $368 #
straight-curve $-1 0 -23.821426209611985 -3.9556448043493488 -1 0 0 I I #
coedge $-1 $369 $189 $366 $370 forward $271 $-1 #
coedge $-1 $189 $369 $191 $288 reversed $271 $-1 #
vertex $-1 $370 $371 #
straight-curve $-1 0 -32.291569050380694 -3.9556448043493488 -1 0 0 I I #
edge $-1 $193 3.9556448043493488 $372 9.0753825307460492 $191 $373 forward 7 unknown #
point $-1 53.085116122928554 -23.821426209611985 -3.9556448043493488 #
point $-1 53.085116122928554 -32.291569050380694 -3.9556448043493488 #
plane-surface $-1 0 0 9.0753825307460492 0 0 1 1 0 0 forward_v I I I I #
coedge $-1 $203 $374 $296 $375 forward $196 $-1 #
coedge $-1 $294 $198 $374 $376 reversed $117 $-1 #
coedge $-1 $198 $293 $297 $377 reversed $117 $-1 #
edge $-1 $298 8.4877342163845899 $378 14.158072294509996 $198 $379 forward 7 unknown #
coedge $-1 $200 $199 $292 $375 reversed $73 $-1 #
coedge $-1 $206 $201 $294 $377 forward $207 $-1 #
vertex $-1 $377 $380 #
straight-curve $-1 -49.672621543045011 13.033858989059976 9.0753825307460492 0 1 0 I I #
coedge $-1 $374 $203 $206 $304 reversed $196 $-1 #
vertex $-1 $204 $381 #
straight-curve $-1 -53.085116122928554 19.843866905859212 34.220844379677729 0 0 1 I I #
straight-curve $-1 -53.08511612292854 19.843866905859212 4.5468491409492842 -0.60181501223851219 0 -0.79863551827123203 I I #
edge $-1 $382 -32.291569050380694 $208 -19.843866905859212 $300 $383 forward 7 unknown #
point $-1 -53.085116122928554 19.843866905859212 9.0753825307460492 #
point $-1 -49.672621543045011 19.843866905859212 9.0753825307460492 #
edge $-1 $384 1 $384 0 $211 $-1 forward 7 unknown #
vertex $-1 $212 $385 #
ellipse-curve $-1 -49.272271754227646 23.400353232865349 5.2236811203477194 -0.79863551827123203 0 0.60181501223851219 0.60181501223851219 0 0.79863551827123203 1 I I #
point $-1 -50.777053820748279 23.400353232865349 7.6097513541189006 #
edge $-1 $386 1 $386 0 $215 $-1 forward 7 unknown #
vertex $-1 $216 $387 #
ellipse-curve $-1 -49.272271754227646 28.735082723374553 5.2236811203477194 -0.79863551827123203 0 0.60181501223851219 0.60181501223851219 0 0.79863551827123203 1 I I #
point $-1 -50.777053820748279 28.735082723374553 7.6097513541189006 #
plane-surface $-1 53.085116122928554 0 0 -1 0 0 0 0 1 forward_v I I I I #
coedge $-1 $388 $389 $224 $320 forward $220 $-1 #
coedge $-1 $222 $324 $388 $390 forward $139 $-1 #
coedge $-1 $224 $223 $222 $319 reversed $87 $-1 #
edge $-1 $391 -19.257710061320712 $325 -6.8100079167992362 $222 $392 forward 7 unknown #
edge $-1 $322 -67.243188417438517 $391 -61.572850339313163 $316 $393 forward 7 unknown #
coedge $-1 $230 $225 $389 $394 reversed $231 $-1 #
vertex $-1 $226 $395 #
straight-curve $-1 53.085116122928554 13.033858989059976 4.5468491409492984 0 1 0 I I #
coedge $-1 $317 $227 $230 $328 forward $139 $-1 #
vertex $-1 $228 $396 #
straight-curve $-1 36.990797479584771 19.843866905859212 9.0753825307460545 1 0 0 I I #
straight-curve $-1 -10.809723495477627 19.843866905859212 89.338167595596474 -0.60181501223851219 0 0.79863551827123203 I I #
edge $-1 $232 19.843866905859212 $397 32.291569050380694 $230 $398 forward 7 unknown #
point $-1 53.085116122928554 19.843866905859212 9.0753825307460492 #
point $-1 53.085116122928547 19.843866905859212 4.5468491409493055 #
edge $-1 $399 1 $399 0 $235 $-1 forward 7 unknown #
vertex $-1 $236 $400 #
ellipse-curve $-1 49.272271754227646 23.400353232865349 5.2236811203477371 0.79863551827123203 0 0.60181501223851219 0.60181501223851219 0 -0.79863551827123203 1 I I #
point $-1 51.9806838452253 23.400353232865349 6.0124803175764541 #
edge $-1 $401 1 $401 0 $239 $-1 forward 7 unknown #
vertex $-1 $240 $402 #
ellipse-curve $-1 49.272271754227646 28.735082723374553 5.2236811203477371 0.79863551827123203 0 0.60181501223851219 0.60181501223851219 0 -0.79863551827123203 1 I I #
point $-1 51.9806838452253 28.735082723374553 6.0124803175764541 #
plane-surface $-1 53.085116122928554 0 0 -1 0 0 0 0 1 forward_v I I I I #
coedge $-1 $248 $246 $250 $344 reversed $161 $-1 #
edge $-1 $261 -9.0753825307460492 $346 9.0753825307460492 $260 $403 forward 7 unknown #
vertex $-1 $344 $404 #
straight-curve $-1 -53.085116122928554 -32.291569050380694 0 0 0 -1 I I #
edge $-1 $342 -32.291569050380694 $346 32.291569050380694 $340 $405 forward 7 unknown #
straight-curve $-1 0 -32.291569050380694 -9.0753825307460492 -1 0 0 I I #
vertex $-1 $253 $406 #
straight-curve $-1 0 32.291569050380694 -9.0753825307460492 1 0 0 I I #
point $-1 53.085116122928554 32.291569050380694 -9.0753825307460492 #
point $-1 53.085116122928554 -32.291569050380694 -9.0753825307460492 #
straight-curve $-1 -53.085116122928554 0 9.0753825307460492 0 -1 0 I I #
point $-1 -53.085116122928554 32.291569050380694 9.0753825307460492 #
point $-1 -53.085116122928554 -32.291569050380694 9.0753825307460492 #
straight-curve $-1 53.085116122928554 -32.291569050380694 0 0 0 -1 I I #
straight-curve $-1 53.085116122928554 32.291569050380694 0 0 0 -1 I I #
loop $-1 $-1 $363 $270 #
plane-surface $-1 -53.085116122928554 0 0 1 0 0 0 0 -1 forward_v I I I I #
coedge $-1 $274 $273 $369 $407 forward $109 $-1 #
edge $-1 $278 23.821426209611985 $372 32.291569050380694 $277 $408 forward 7 unknown #
coedge $-1 $366 $363 $274 $360 reversed $355 $-1 #
edge $-1 $409 -32.291569050380694 $361 -23.821426209611985 $359 $410 forward 7 unknown #
vertex $-1 $364 $411 #
straight-curve $-1 0 -23.821426209611985 -9.0753825307460492 1 0 0 I I #
coedge $-1 $359 $280 $276 $364 forward $355 $-1 #
edge $-1 $282 0.69788797057549923 $361 5.8176256969721996 $363 $412 forward 7 unknown #
point $-1 53.085116122928554 -23.821426209611985 -9.0753825307460492 #
coedge $-1 $280 $359 $284 $370 reversed $355 $-1 #
straight-curve $-1 -53.085116122928554 -14.02824881499817 -3.9556448043493488 0 1 0 I I #
point $-1 -53.085116122928554 -23.821426209611985 -3.9556448043493488 #
coedge $-1 $285 $284 $357 $407 reversed $271 $-1 #
edge $-1 $286 3.9556448043493488 $409 9.0753825307460492 $366 $413 forward 7 unknown #
point $-1 -53.085116122928554 -32.291569050380694 -3.9556448043493488 #
vertex $-1 $288 $414 #
straight-curve $-1 53.085116122928554 -32.291569050380694 0 0 0 -1 I I #
coedge $-1 $292 $300 $293 $376 forward $196 $-1 #
edge $-1 $378 -19.257710061320712 $301 -6.8100079167992362 $292 $415 forward 7 unknown #
edge $-1 $382 -9.0753825307460492 $378 -4.5468491409492655 $293 $416 forward 7 unknown #
edge $-1 $298 49.672621543045011 $382 53.085116122928554 $294 $417 forward 7 unknown #
vertex $-1 $295 $418 #
straight-curve $-1 -44.564575671734282 32.291569050380694 15.853988545596827 -0.60181501223851219 0 -0.79863551827123203 I I #
point $-1 -49.672621543045011 32.291569050380687 9.0753825307460492 #
point $-1 -53.085116122928554 19.843866905859212 4.5468491409492655 #
vertex $-1 $377 $419 #
straight-curve $-1 -53.085116122928554 0 9.0753825307460492 0 -1 0 I I #
vertex $-1 $307 $420 #
point $-1 -48.670456741989135 23.400353232865349 6.0223166386189515 #
vertex $-1 $311 $421 #
point $-1 -48.670456741989135 28.735082723374553 6.0223166386189515 #
coedge $-1 $389 $316 $317 $390 reversed $220 $-1 #
coedge $-1 $316 $388 $321 $394 forward $220 $-1 #
edge $-1 $397 -53.085116122928554 $391 -49.67262154304504 $388 $422 forward 7 unknown #
vertex $-1 $320 $423 #
straight-curve $-1 49.67262154304504 13.033858989059976 9.0753825307460474 0 -1 0 I I #
straight-curve $-1 12.617155862531206 32.291569050380694 58.249647772920426 -0.60181501223851219 0 0.79863551827123203 I I #
edge $-1 $397 -9.0753825307460492 $322 -4.546849140949301 $321 $424 forward 7 unknown #
point $-1 53.085116122928554 32.291569050380694 4.546849140949301 #
point $-1 49.67262154304504 19.843866905859212 9.0753825307460545 #
vertex $-1 $328 $425 #
straight-curve $-1 53.085116122928554 0 9.0753825307460492 0 1 0 I I #
vertex $-1 $331 $426 #
point $-1 49.874086766466164 23.400353232865349 4.425045602076505 #
vertex $-1 $335 $427 #
point $-1 49.874086766466164 28.735082723374553 4.425045602076505 #
straight-curve $-1 -53.085116122928554 32.291569050380694 0 0 0 -1 I I #
point $-1 -53.085116122928554 -32.291569050380694 -9.0753825307460492 #
straight-curve $-1 -53.085116122928554 0 -9.0753825307460492 0 1 0 I I #
point $-1 -53.085116122928554 32.291569050380694 -9.0753825307460492 #
edge $-1 $372 -53.085116122928554 $409 53.085116122928554 $369 $428 forward 7 unknown #
straight-curve $-1 53.085116122928554 0 -9.0753825307460492 0 -1 0 I I #
vertex $-1 $360 $429 #
straight-curve $-1 -53.085116122928554 0 -9.0753825307460492 0 1 0 I I #
point $-1 -53.085116122928554 -23.821426209611985 -9.0753825307460492 #
straight-curve $-1 -53.085116122928554 -23.821426209611985 -3.2577568337738496 0 0 -1 I I #
straight-curve $-1 -53.085116122928554 -32.291569050380694 0 0 0 -1 I I #
point $-1 53.085116122928554 -32.291569050380694 -9.0753825307460492 #
straight-curve $-1 -53.085116122928554 13.033858989059976 4.5468491409492655 0 -1 0 I I #
straight-curve $-1 -53.085116122928554 32.291569050380694 0 0 0 -1 I I #
straight-curve $-1 0 32.291569050380694 9.0753825307460492 -1 0 0 I I #
point $-1 -53.085116122928554 32.291569050380687 4.5468491409492655 #
point $-1 -53.085116122928554 32.291569050380694 9.0753825307460492 #
point $-1 -48.47363623595642 23.400353232865349 4.6218661081092067 #
point $-1 -48.47363623595642 28.735082723374553 4.6218661081092067 #
straight-curve $-1 0 32.291569050380694 9.0753825307460492 -1 0 0 I I #
point $-1 49.67262154304504 32.291569050380687 9.0753825307460545 #
straight-curve $-1 53.085116122928554 32.291569050380694 0 0 0 -1 I I #
point $-1 53.085116122928554 32.291569050380694 9.0753825307460492 #
point $-1 48.47363623595642 23.400353232865349 4.6218661081092245 #
point $-1 48.47363623595642 28.735082723374553 4.6218661081092245 #
straight-curve $-1 0 -32.291569050380694 -9.0753825307460492 -1 0 0 I I #
point $-1 -53.085116122928554 -32.291569050380694 -9.0753825307460492 #
End-of-ACIS-data 