500 0 17 0           
7 Unknown 11 ACIS 5.0 NT 24 Thu Mar 25 16:56:23 1999 
-1 9.9999999999999995e-007 1e-010 
body $-1 $17 $-1 $18 #
body $-1 $19 $-1 $20 #
body $-1 $21 $-1 $22 #
body $-1 $23 $-1 $24 #
body $-1 $25 $-1 $26 #
body $-1 $27 $-1 $28 #
body $-1 $29 $-1 $30 #
body $-1 $31 $-1 $32 #
body $-1 $33 $-1 $34 #
body $-1 $35 $-1 $36 #
body $-1 $37 $-1 $38 #
body $-1 $39 $-1 $40 #
body $-1 $41 $-1 $42 #
body $-1 $43 $-1 $44 #
body $-1 $45 $-1 $46 #
body $-1 $47 $-1 $48 #
body $-1 $49 $-1 $50 #
lump $-1 $-1 $51 $0 #
transform $-1 1 0 0 0 1 0 0 0 1 47.386700033570364 22.863681453619211 7.691747982293955 1 rotate no_reflect no_shear #
lump $-1 $-1 $52 $1 #
transform $-1 1 0 0 0 1 0 0 0 1 47.386700033570364 22.863681453619211 7.691747982293955 1 rotate no_reflect no_shear #
lump $-1 $-1 $53 $2 #
transform $-1 1 0 0 0 1 0 0 0 1 47.386700033570364 22.863681453619211 7.691747982293955 1 rotate no_reflect no_shear #
lump $-1 $-1 $54 $3 #
transform $-1 1 0 0 0 1 0 0 0 1 47.386700033570364 22.863681453619211 7.691747982293955 1 rotate no_reflect no_shear #
lump $-1 $-1 $55 $4 #
transform $-1 1 0 0 0 1 0 0 0 1 47.386700033570364 22.863681453619211 7.691747982293955 1 rotate no_reflect no_shear #
lump $-1 $-1 $56 $5 #
transform $-1 1 0 0 0 1 0 0 0 1 47.386700033570364 22.863681453619211 7.691747982293955 1 rotate no_reflect no_shear #
lump $-1 $-1 $57 $6 #
transform $-1 1 0 0 0 1 0 0 0 1 47.386700033570364 22.863681453619211 7.691747982293955 1 rotate no_reflect no_shear #
lump $-1 $-1 $58 $7 #
transform $-1 1 0 0 0 1 0 0 0 1 47.386700033570364 22.863681453619211 7.691747982293955 1 rotate no_reflect no_shear #
lump $-1 $-1 $59 $8 #
transform $-1 1 0 0 0 1 0 0 0 1 47.386700033570364 22.863681453619211 7.691747982293955 1 rotate no_reflect no_shear #
lump $-1 $-1 $60 $9 #
transform $-1 1 0 0 0 1 0 0 0 1 47.386700033570364 22.863681453619211 7.691747982293955 1 rotate no_reflect no_shear #
lump $-1 $-1 $61 $10 #
transform $-1 1 0 0 0 1 0 0 0 1 47.386700033570364 22.863681453619211 7.691747982293955 1 rotate no_reflect no_shear #
lump $-1 $-1 $62 $11 #
transform $-1 1 0 0 0 1 0 0 0 1 47.386700033570364 22.863681453619211 7.691747982293955 1 rotate no_reflect no_shear #
lump $-1 $-1 $63 $12 #
transform $-1 1 0 0 0 1 0 0 0 1 47.386700033570364 22.863681453619211 7.691747982293955 1 rotate no_reflect no_shear #
lump $-1 $-1 $64 $13 #
transform $-1 1 0 0 0 1 0 0 0 1 47.386700033570364 22.863681453619211 7.691747982293955 1 rotate no_reflect no_shear #
lump $-1 $-1 $65 $14 #
transform $-1 1 0 0 0 1 0 0 0 1 47.386700033570364 22.863681453619211 7.691747982293955 1 rotate no_reflect no_shear #
lump $-1 $-1 $66 $15 #
transform $-1 1 0 0 0 1 0 0 0 1 47.386700033570364 22.863681453619211 7.691747982293955 1 rotate no_reflect no_shear #
lump $-1 $-1 $67 $16 #
transform $-1 1 0 0 0 1 0 0 0 1 47.386700033570364 22.863681453619211 7.691747982293955 1 rotate no_reflect no_shear #
shell $-1 $-1 $-1 $68 $-1 $17 #
shell $-1 $-1 $-1 $69 $-1 $19 #
shell $-1 $-1 $-1 $70 $-1 $21 #
shell $-1 $-1 $-1 $71 $-1 $23 #
shell $-1 $-1 $-1 $72 $-1 $25 #
shell $-1 $-1 $-1 $73 $-1 $27 #
shell $-1 $-1 $-1 $74 $-1 $29 #
shell $-1 $-1 $-1 $75 $-1 $31 #
shell $-1 $-1 $-1 $76 $-1 $33 #
shell $-1 $-1 $-1 $77 $-1 $35 #
shell $-1 $-1 $-1 $78 $-1 $37 #
shell $-1 $-1 $-1 $79 $-1 $39 #
shell $-1 $-1 $-1 $80 $-1 $41 #
shell $-1 $-1 $-1 $81 $-1 $43 #
shell $-1 $-1 $-1 $82 $-1 $45 #
shell $-1 $-1 $-1 $83 $-1 $47 #
shell $-1 $-1 $-1 $84 $-1 $49 #
face $-1 $85 $86 $51 $-1 $87 forward single #
face $-1 $88 $89 $52 $-1 $90 forward single #
face $-1 $91 $92 $53 $-1 $93 reversed single #
face $-1 $94 $95 $54 $-1 $96 forward single #
face $-1 $97 $98 $55 $-1 $99 forward single #
face $-1 $100 $101 $56 $-1 $102 reversed single #
face $-1 $103 $104 $57 $-1 $105 forward single #
face $-1 $106 $107 $58 $-1 $108 forward single #
face $-1 $109 $110 $59 $-1 $111 reversed single #
face $-1 $112 $113 $60 $-1 $114 forward single #
face $-1 $115 $116 $61 $-1 $117 forward single #
face $-1 $118 $119 $62 $-1 $120 reversed single #
face $-1 $121 $122 $63 $-1 $123 forward single #
face $-1 $124 $125 $64 $-1 $126 forward single #
face $-1 $127 $128 $65 $-1 $129 reversed single #
face $-1 $130 $131 $66 $-1 $132 forward single #
face $-1 $133 $134 $67 $-1 $135 forward single #
face $-1 $136 $137 $51 $-1 $138 reversed single #
loop $-1 $-1 $139 $68 #
plane-surface $-1 0 0 7.691747982293955 0 0 1 1 0 0 forward_v I I I I #
face $-1 $140 $141 $52 $-1 $142 reversed single #
loop $-1 $-1 $143 $69 #
plane-surface $-1 -47.386700033570364 0 0 1 0 0 0 0 -1 forward_v I I I I #
face $-1 $144 $145 $53 $-1 $146 reversed single #
loop $-1 $-1 $147 $70 #
plane-surface $-1 32.045001200091555 -94.390075220112479 65.512298925068578 -1 0 0 0 -0.75470958851134928 0.65605901945558964 forward_v I I I I #
face $-1 $148 $149 $54 $-1 $150 forward single #
loop $-1 $151 $152 $71 #
cone-surface $-1 19.447000762356339 -19.887775078175597 4.5726102532690067 0 0.75470958851134928 -0.65605901945558964 1 0 0 1 I I 0 1 1 forward I I I I #
face $-1 $153 $154 $55 $-1 $155 forward single #
loop $-1 $156 $157 $72 #
cone-surface $-1 27.005801024997467 -19.887775078175597 4.5726102532690067 0 0.75470958851134928 -0.65605901945558964 1 0 0 1 I I 0 1 1 forward I I I I #
face $-1 $158 $159 $56 $-1 $160 reversed single #
loop $-1 $-1 $161 $73 #
plane-surface $-1 -27.695293913167557 50.529748484635789 105.32293957249684 1 0 0 0 -0.6560590369687036 -0.75470957328743171 forward_v I I I I #
face $-1 $162 $163 $57 $-1 $164 forward single #
loop $-1 $165 $166 $74 #
cone-surface $-1 -24.840902470072059 19.570135762929926 4.5326843944417794 0 -0.6560590369687036 -0.75470957328743171 1 0 0 1 I I 0 1 1 forward I I I I #
face $-1 $167 $168 $58 $-1 $169 forward single #
loop $-1 $170 $171 $75 #
cone-surface $-1 -20.559315305428811 19.570135762929926 4.5326843944417794 0 -0.6560590369687036 -0.75470957328743171 1 0 0 1 I I 0 1 1 forward I I I I #
face $-1 $172 $173 $59 $-1 $174 reversed single #
loop $-1 $-1 $175 $76 #
plane-surface $-1 -9.9003652526886583 50.529748484635789 105.32293957249684 1 0 0 0 -0.6560590369687036 -0.75470957328743171 forward_v I I I I #
face $-1 $176 $177 $60 $-1 $178 forward single #
loop $-1 $179 $180 $77 #
cone-surface $-1 -7.0459738095931641 19.570135762929926 4.5326843944417794 0 -0.6560590369687036 -0.75470957328743171 1 0 0 1 I I 0 1 1 forward I I I I #
face $-1 $181 $182 $61 $-1 $183 forward single #
loop $-1 $184 $185 $78 #
cone-surface $-1 -2.7643866449499086 19.570135762929926 4.5326843944417794 0 -0.6560590369687036 -0.75470957328743171 1 0 0 1 I I 0 1 1 forward I I I I #
face $-1 $186 $187 $62 $-1 $188 reversed single #
loop $-1 $-1 $189 $79 #
plane-surface $-1 7.8945634077902369 50.529748484635789 105.32293957249684 1 0 0 0 -0.6560590369687036 -0.75470957328743171 forward_v I I I I #
face $-1 $190 $191 $63 $-1 $192 forward single #
loop $-1 $193 $194 $80 #
cone-surface $-1 10.748954850885738 19.570135762929926 4.5326843944417794 0 -0.6560590369687036 -0.75470957328743171 1 0 0 1 I I 0 1 1 forward I I I I #
face $-1 $195 $196 $64 $-1 $197 forward single #
loop $-1 $198 $199 $81 #
cone-surface $-1 15.030542015528994 19.570135762929926 4.5326843944417794 0 -0.6560590369687036 -0.75470957328743171 1 0 0 1 I I 0 1 1 forward I I I I #
face $-1 $200 $201 $65 $-1 $202 reversed single #
loop $-1 $-1 $203 $82 #
plane-surface $-1 25.689492068269139 50.529748484635789 105.32293957249684 1 0 0 0 -0.6560590369687036 -0.75470957328743171 forward_v I I I I #
face $-1 $204 $205 $66 $-1 $206 forward single #
loop $-1 $207 $208 $83 #
cone-surface $-1 28.543883511364641 19.570135762929926 4.5326843944417794 0 -0.6560590369687036 -0.75470957328743171 1 0 0 1 I I 0 1 1 forward I I I I #
face $-1 $209 $210 $67 $-1 $211 forward single #
loop $-1 $212 $213 $84 #
cone-surface $-1 32.825470676007896 19.570135762929926 4.5326843944417794 0 -0.6560590369687036 -0.75470957328743171 1 0 0 1 I I 0 1 1 forward I I I I #
face $-1 $214 $215 $51 $-1 $216 reversed single #
loop $-1 $-1 $217 $85 #
plane-surface $-1 0 0 -7.691747982293955 0 0 1 1 0 0 forward_v I I I I #
coedge $-1 $218 $219 $220 $221 forward $86 $-1 #
face $-1 $222 $223 $52 $-1 $224 forward single #
loop $-1 $-1 $225 $88 #
plane-surface $-1 0 22.863681453619211 0 0 -1 0 0 0 -1 forward_v I I I I #
coedge $-1 $226 $227 $228 $229 forward $89 $-1 #
face $-1 $230 $231 $53 $-1 $232 reversed single #
loop $-1 $-1 $233 $91 #
plane-surface $-1 23.22640089367691 -22.863681453619222 3.3353550065479212 0 -0.75470958851134928 0.65605901945558964 1 0 0 forward_v I I I I #
coedge $-1 $234 $235 $236 $237 reversed $92 $-1 #
face $-1 $-1 $238 $54 $-1 $239 forward single #
loop $-1 $240 $241 $94 #
cone-surface $-1 19.447000762356339 -18.427991179428052 3.3036395023892853 0 0.75470958851134928 -0.65605901945558964 0.5 0 0 1 I I -0.70710678118654746 0.70710678118654746 0.5 forward I I I I #
loop $-1 $-1 $242 $71 #
coedge $-1 $152 $152 $243 $244 reversed $95 $-1 #
face $-1 $-1 $245 $55 $-1 $246 forward single #
loop $-1 $247 $248 $97 #
cone-surface $-1 27.005801024997467 -18.427991179428052 3.3036395023892853 0 0.75470958851134928 -0.65605901945558964 0.5 0 0 1 I I -0.70710678118654746 0.70710678118654746 0.5 forward I I I I #
loop $-1 $-1 $249 $72 #
coedge $-1 $157 $157 $250 $251 reversed $98 $-1 #
face $-1 $252 $253 $56 $-1 $254 reversed single #
loop $-1 $-1 $255 $100 #
plane-surface $-1 -22.700108887750435 -11.647197093662228 33.796547248826002 0 0.6560590369687036 0.75470957328743171 1 0 0 forward_v I I I I #
coedge $-1 $256 $257 $258 $259 reversed $101 $-1 #
face $-1 $-1 $260 $57 $-1 $261 forward single #
loop $-1 $262 $263 $103 #
cone-surface $-1 -24.840902470072059 18.188931971439477 2.9437912227004892 0 -0.6560590369687036 -0.75470957328743171 0.5 0 0 1 I I -0.70710678118654779 0.70710678118654713 0.5 forward I I I I #
loop $-1 $-1 $264 $74 #
coedge $-1 $166 $166 $265 $266 reversed $104 $-1 #
face $-1 $-1 $267 $58 $-1 $268 forward single #
loop $-1 $269 $270 $106 #
cone-surface $-1 -20.559315305428811 18.188931971439477 2.9437912227004892 0 -0.6560590369687036 -0.75470957328743171 0.5 0 0 1 I I -0.70710678118654779 0.70710678118654713 0.5 forward I I I I #
loop $-1 $-1 $271 $75 #
coedge $-1 $171 $171 $272 $273 reversed $107 $-1 #
face $-1 $274 $275 $59 $-1 $276 reversed single #
loop $-1 $-1 $277 $109 #
plane-surface $-1 -4.9051802272715364 -11.647197093662228 33.796547248826002 0 0.6560590369687036 0.75470957328743171 1 0 0 forward_v I I I I #
coedge $-1 $278 $279 $280 $281 reversed $110 $-1 #
face $-1 $-1 $282 $60 $-1 $283 forward single #
loop $-1 $284 $285 $112 #
cone-surface $-1 -7.0459738095931641 18.188931971439477 2.9437912227004892 0 -0.6560590369687036 -0.75470957328743171 0.5 0 0 1 I I -0.70710678118654779 0.70710678118654713 0.5 forward I I I I #
loop $-1 $-1 $286 $77 #
coedge $-1 $180 $180 $287 $288 reversed $113 $-1 #
face $-1 $-1 $289 $61 $-1 $290 forward single #
loop $-1 $291 $292 $115 #
cone-surface $-1 -2.7643866449499086 18.188931971439477 2.9437912227004892 0 -0.6560590369687036 -0.75470957328743171 0.5 0 0 1 I I -0.70710678118654779 0.70710678118654713 0.5 forward I I I I #
loop $-1 $-1 $293 $78 #
coedge $-1 $185 $185 $294 $295 reversed $116 $-1 #
face $-1 $296 $297 $62 $-1 $298 reversed single #
loop $-1 $-1 $299 $118 #
plane-surface $-1 12.889748433207359 -11.647197093662228 33.796547248826002 0 0.6560590369687036 0.75470957328743171 1 0 0 forward_v I I I I #
coedge $-1 $300 $301 $302 $303 reversed $119 $-1 #
face $-1 $-1 $304 $63 $-1 $305 forward single #
loop $-1 $306 $307 $121 #
cone-surface $-1 10.748954850885738 18.188931971439477 2.9437912227004892 0 -0.6560590369687036 -0.75470957328743171 0.5 0 0 1 I I -0.70710678118654779 0.70710678118654713 0.5 forward I I I I #
loop $-1 $-1 $308 $80 #
coedge $-1 $194 $194 $309 $310 reversed $122 $-1 #
face $-1 $-1 $311 $64 $-1 $312 forward single #
loop $-1 $313 $314 $124 #
cone-surface $-1 15.030542015528994 18.188931971439477 2.9437912227004892 0 -0.6560590369687036 -0.75470957328743171 0.5 0 0 1 I I -0.70710678118654779 0.70710678118654713 0.5 forward I I I I #
loop $-1 $-1 $315 $81 #
coedge $-1 $199 $199 $316 $317 reversed $125 $-1 #
face $-1 $318 $319 $65 $-1 $320 reversed single #
loop $-1 $-1 $321 $127 #
plane-surface $-1 30.684677093686261 -11.647197093662228 33.796547248826002 0 0.6560590369687036 0.75470957328743171 1 0 0 forward_v I I I I #
coedge $-1 $322 $323 $324 $325 reversed $128 $-1 #
face $-1 $-1 $326 $66 $-1 $327 forward single #
loop $-1 $328 $329 $130 #
cone-surface $-1 28.543883511364641 18.188931971439477 2.9437912227004892 0 -0.6560590369687036 -0.75470957328743171 0.5 0 0 1 I I -0.70710678118654779 0.70710678118654713 0.5 forward I I I I #
loop $-1 $-1 $330 $83 #
coedge $-1 $208 $208 $331 $332 reversed $131 $-1 #
face $-1 $-1 $333 $67 $-1 $334 forward single #
loop $-1 $335 $336 $133 #
cone-surface $-1 32.825470676007896 18.188931971439477 2.9437912227004892 0 -0.6560590369687036 -0.75470957328743171 0.5 0 0 1 I I -0.70710678118654779 0.70710678118654713 0.5 forward I I I I #
loop $-1 $-1 $337 $84 #
coedge $-1 $213 $213 $338 $339 reversed $134 $-1 #
face $-1 $340 $341 $51 $-1 $342 reversed single #
loop $-1 $-1 $343 $136 #
plane-surface $-1 0 -22.863681453619211 0 0 1 0 0 0 1 forward_v I I I I #
coedge $-1 $344 $345 $346 $347 forward $137 $-1 #
coedge $-1 $348 $139 $349 $350 forward $86 $-1 #
coedge $-1 $139 $348 $351 $352 forward $86 $-1 #
coedge $-1 $353 $354 $139 $221 reversed $355 $-1 #
edge $-1 $356 -22.863681453619211 $357 22.863681453619211 $220 $358 forward 7 unknown #
face $-1 $359 $360 $52 $-1 $361 reversed single #
loop $-1 $-1 $228 $140 #
plane-surface $-1 -51.378984136538278 0 -1.0402092249482591 0 0 1 1 0 0 forward_v I I I I #
coedge $-1 $362 $363 $227 $364 forward $141 $-1 #
coedge $-1 $365 $143 $366 $367 reversed $89 $-1 #
coedge $-1 $143 $365 $225 $364 reversed $89 $-1 #
coedge $-1 $368 $369 $143 $229 reversed $223 $-1 #
edge $-1 $370 -22.863681453619211 $371 22.863681453619211 $228 $372 forward 7 unknown #
face $-1 $373 $374 $53 $-1 $375 reversed single #
loop $-1 $-1 $376 $144 #
plane-surface $-1 14.407800587262265 -94.390075220112479 65.512298925068578 1 0 0 0 0.75470958851134928 -0.65605901945558964 forward_v I I I I #
coedge $-1 $377 $378 $379 $380 reversed $145 $-1 #
coedge $-1 $235 $147 $381 $382 reversed $92 $-1 #
coedge $-1 $147 $234 $377 $383 reversed $92 $-1 #
coedge $-1 $379 $384 $147 $237 forward $385 $-1 #
edge $-1 $386 24.331356156437028 $387 28.118310698340498 $236 $388 forward 7 unknown #
loop $-1 $-1 $243 $148 #
plane-surface $-1 23.22640089367691 -22.863681453619222 3.3353550065479212 0 -0.75470958851134928 0.65605901945558964 1 0 0 forward_v I I I I #
loop $-1 $-1 $389 $94 #
coedge $-1 $241 $241 $242 $390 reversed $149 $-1 #
coedge $-1 $242 $242 $241 $390 forward $151 $-1 #
coedge $-1 $243 $243 $152 $244 forward $238 $-1 #
edge $-1 $391 -3.8111490866101018e-016 $391 6.2831853071796004 $243 $392 forward 7 unknown #
loop $-1 $-1 $250 $153 #
plane-surface $-1 23.22640089367691 -22.863681453619222 3.3353550065479212 0 -0.75470958851134928 0.65605901945558964 1 0 0 forward_v I I I I #
loop $-1 $-1 $393 $97 #
coedge $-1 $248 $248 $249 $394 reversed $154 $-1 #
coedge $-1 $249 $249 $248 $394 forward $156 $-1 #
coedge $-1 $250 $250 $157 $251 forward $245 $-1 #
edge $-1 $395 -3.8111490866101018e-016 $395 6.2831853071796004 $250 $396 forward 7 unknown #
face $-1 $397 $398 $56 $-1 $399 forward single #
loop $-1 $-1 $400 $158 #
plane-surface $-1 -17.704923862333313 50.529748484635789 105.32293957249684 -1 0 0 0 0.6560590369687036 0.75470957328743171 forward_v I I I I #
coedge $-1 $401 $402 $403 $404 reversed $159 $-1 #
coedge $-1 $257 $161 $405 $406 reversed $101 $-1 #
coedge $-1 $161 $256 $401 $407 reversed $101 $-1 #
coedge $-1 $403 $408 $161 $259 forward $398 $-1 #
edge $-1 $409 2.4011927886986832 $410 6.881935624065072 $258 $411 forward 7 unknown #
loop $-1 $-1 $265 $162 #
plane-surface $-1 -22.700108887750435 -11.647197093662228 33.796547248826002 0 0.6560590369687036 0.75470957328743171 1 0 0 forward_v I I I I #
loop $-1 $-1 $412 $103 #
coedge $-1 $263 $263 $264 $413 reversed $163 $-1 #
coedge $-1 $264 $264 $263 $413 forward $165 $-1 #
coedge $-1 $265 $265 $166 $266 forward $260 $-1 #
edge $-1 $414 -2.3222036888429843e-016 $414 6.2831853071796004 $265 $415 forward 7 unknown #
loop $-1 $-1 $272 $167 #
plane-surface $-1 -22.700108887750435 -11.647197093662228 33.796547248826002 0 0.6560590369687036 0.75470957328743171 1 0 0 forward_v I I I I #
loop $-1 $-1 $416 $106 #
coedge $-1 $270 $270 $271 $417 reversed $168 $-1 #
coedge $-1 $271 $271 $270 $417 forward $170 $-1 #
coedge $-1 $272 $272 $171 $273 forward $267 $-1 #
edge $-1 $418 -2.3222036888429843e-016 $418 6.2831853071796004 $272 $419 forward 7 unknown #
face $-1 $420 $421 $59 $-1 $422 forward single #
loop $-1 $-1 $423 $172 #
plane-surface $-1 0.090004798145585596 50.529748484635789 105.32293957249684 -1 0 0 0 0.6560590369687036 0.75470957328743171 forward_v I I I I #
coedge $-1 $424 $425 $426 $427 reversed $173 $-1 #
coedge $-1 $279 $175 $428 $429 reversed $110 $-1 #
coedge $-1 $175 $278 $424 $430 reversed $110 $-1 #
coedge $-1 $426 $431 $175 $281 forward $421 $-1 #
edge $-1 $432 2.4011927886986832 $433 6.881935624065072 $280 $434 forward 7 unknown #
loop $-1 $-1 $287 $176 #
plane-surface $-1 -4.9051802272715364 -11.647197093662228 33.796547248826002 0 0.6560590369687036 0.75470957328743171 1 0 0 forward_v I I I I #
loop $-1 $-1 $435 $112 #
coedge $-1 $285 $285 $286 $436 reversed $177 $-1 #
coedge $-1 $286 $286 $285 $436 forward $179 $-1 #
coedge $-1 $287 $287 $180 $288 forward $282 $-1 #
edge $-1 $437 -2.3222036888429843e-016 $437 6.2831853071796004 $287 $438 forward 7 unknown #
loop $-1 $-1 $294 $181 #
plane-surface $-1 -4.9051802272715364 -11.647197093662228 33.796547248826002 0 0.6560590369687036 0.75470957328743171 1 0 0 forward_v I I I I #
loop $-1 $-1 $439 $115 #
coedge $-1 $292 $292 $293 $440 reversed $182 $-1 #
coedge $-1 $293 $293 $292 $440 forward $184 $-1 #
coedge $-1 $294 $294 $185 $295 forward $289 $-1 #
edge $-1 $441 -2.3222036888429843e-016 $441 6.2831853071796004 $294 $442 forward 7 unknown #
face $-1 $443 $444 $62 $-1 $445 forward single #
loop $-1 $-1 $446 $186 #
plane-surface $-1 17.884933458624481 50.529748484635789 105.32293957249684 -1 0 0 0 0.6560590369687036 0.75470957328743171 forward_v I I I I #
coedge $-1 $447 $448 $449 $450 reversed $187 $-1 #
coedge $-1 $301 $189 $451 $452 reversed $119 $-1 #
coedge $-1 $189 $300 $447 $453 reversed $119 $-1 #
coedge $-1 $449 $454 $189 $303 forward $444 $-1 #
edge $-1 $455 2.4011927886986832 $456 6.881935624065072 $302 $457 forward 7 unknown #
loop $-1 $-1 $309 $190 #
plane-surface $-1 12.889748433207359 -11.647197093662228 33.796547248826002 0 0.6560590369687036 0.75470957328743171 1 0 0 forward_v I I I I #
loop $-1 $-1 $458 $121 #
coedge $-1 $307 $307 $308 $459 reversed $191 $-1 #
coedge $-1 $308 $308 $307 $459 forward $193 $-1 #
coedge $-1 $309 $309 $194 $310 forward $304 $-1 #
edge $-1 $460 -2.3222036888429843e-016 $460 6.2831853071796004 $309 $461 forward 7 unknown #
loop $-1 $-1 $316 $195 #
plane-surface $-1 12.889748433207359 -11.647197093662228 33.796547248826002 0 0.6560590369687036 0.75470957328743171 1 0 0 forward_v I I I I #
loop $-1 $-1 $462 $124 #
coedge $-1 $314 $314 $315 $463 reversed $196 $-1 #
coedge $-1 $315 $315 $314 $463 forward $198 $-1 #
coedge $-1 $316 $316 $199 $317 forward $311 $-1 #
edge $-1 $464 -2.3222036888429843e-016 $464 6.2831853071796004 $316 $465 forward 7 unknown #
face $-1 $466 $467 $65 $-1 $468 forward single #
loop $-1 $-1 $469 $200 #
plane-surface $-1 35.679862119103383 50.529748484635789 105.32293957249684 -1 0 0 0 0.6560590369687036 0.75470957328743171 forward_v I I I I #
coedge $-1 $470 $471 $472 $473 reversed $201 $-1 #
coedge $-1 $323 $203 $474 $475 reversed $128 $-1 #
coedge $-1 $203 $322 $470 $476 reversed $128 $-1 #
coedge $-1 $472 $477 $203 $325 forward $467 $-1 #
edge $-1 $478 2.4011927886986832 $479 6.881935624065072 $324 $480 forward 7 unknown #
loop $-1 $-1 $331 $204 #
plane-surface $-1 30.684677093686261 -11.647197093662228 33.796547248826002 0 0.6560590369687036 0.75470957328743171 1 0 0 forward_v I I I I #
loop $-1 $-1 $481 $130 #
coedge $-1 $329 $329 $330 $482 reversed $205 $-1 #
coedge $-1 $330 $330 $329 $482 forward $207 $-1 #
coedge $-1 $331 $331 $208 $332 forward $326 $-1 #
edge $-1 $483 -2.3222036888429843e-016 $483 6.2831853071796004 $331 $484 forward 7 unknown #
loop $-1 $-1 $338 $209 #
plane-surface $-1 30.684677093686261 -11.647197093662228 33.796547248826002 0 0.6560590369687036 0.75470957328743171 1 0 0 forward_v I I I I #
loop $-1 $-1 $485 $133 #
coedge $-1 $336 $336 $337 $486 reversed $210 $-1 #
coedge $-1 $337 $337 $336 $486 forward $212 $-1 #
coedge $-1 $338 $338 $213 $339 forward $333 $-1 #
edge $-1 $487 -2.3222036888429843e-016 $487 6.2831853071796004 $338 $488 forward 7 unknown #
face $-1 $489 $490 $51 $-1 $491 reversed single #
loop $-1 $-1 $492 $214 #
plane-surface $-1 -47.386700033570364 0 0 1 0 0 0 0 -1 forward_v I I I I #
coedge $-1 $493 $351 $492 $494 forward $215 $-1 #
coedge $-1 $495 $217 $493 $496 forward $137 $-1 #
coedge $-1 $217 $495 $497 $498 forward $137 $-1 #
coedge $-1 $354 $353 $217 $347 reversed $355 $-1 #
edge $-1 $499 -22.863681453619211 $500 22.863681453619211 $346 $501 forward 7 unknown #
coedge $-1 $219 $218 $502 $503 forward $86 $-1 #
coedge $-1 $504 $505 $218 $350 reversed $490 $-1 #
edge $-1 $357 -47.386700033570364 $506 47.386700033570364 $349 $507 forward 7 unknown #
coedge $-1 $343 $508 $219 $352 reversed $215 $-1 #
edge $-1 $509 -47.386700033570364 $356 47.386700033570364 $351 $510 forward 7 unknown #
coedge $-1 $346 $220 $508 $511 forward $355 $-1 #
coedge $-1 $220 $346 $504 $512 reversed $355 $-1 #
loop $-1 $-1 $353 $489 #
vertex $-1 $221 $513 #
vertex $-1 $221 $514 #
straight-curve $-1 47.386700033570364 0 7.691747982293955 0 1 0 I I #
face $-1 $515 $516 $52 $-1 $517 reversed single #
loop $-1 $-1 $518 $222 #
plane-surface $-1 -51.378984136538278 0 -4.7823982561117395 0 0 1 1 0 0 forward_v I I I I #
coedge $-1 $519 $225 $520 $521 reversed $141 $-1 #
coedge $-1 $225 $519 $368 $522 reversed $141 $-1 #
edge $-1 $370 1.0402092249482591 $523 4.7823982561117395 $225 $524 forward 7 unknown #
coedge $-1 $227 $226 $518 $525 forward $89 $-1 #
coedge $-1 $526 $527 $226 $367 forward $528 $-1 #
edge $-1 $529 -4.7823982561117395 $371 -1.0402092249482591 $366 $530 forward 7 unknown #
coedge $-1 $531 $228 $363 $522 forward $223 $-1 #
coedge $-1 $228 $531 $526 $532 forward $223 $-1 #
vertex $-1 $364 $533 #
vertex $-1 $532 $534 #
straight-curve $-1 -47.386700033570364 0 -1.0402092249482591 0 -1 0 I I #
face $-1 $-1 $385 $53 $-1 $535 forward single #
loop $-1 $-1 $536 $230 #
plane-surface $-1 0 -22.863681453619211 0 0 1 0 0 0 1 forward_v I I I I #
coedge $-1 $537 $538 $539 $540 reversed $231 $-1 #
coedge $-1 $541 $233 $235 $383 forward $145 $-1 #
coedge $-1 $233 $541 $537 $542 forward $145 $-1 #
coedge $-1 $539 $236 $233 $380 forward $385 $-1 #
edge $-1 $387 -20.4318007532531 $543 -2.7946001404238103 $379 $544 forward 7 unknown #
coedge $-1 $545 $546 $234 $382 forward $374 $-1 #
edge $-1 $547 -29.420794455986353 $386 -25.064401480240335 $381 $548 forward 7 unknown #
edge $-1 $387 -5.7722772336031118 $547 -1.6376804332752545e-014 $235 $549 forward 7 unknown #
coedge $-1 $236 $539 $545 $550 forward $385 $-1 #
loop $-1 $-1 $539 $373 #
vertex $-1 $382 $551 #
vertex $-1 $237 $552 #
straight-curve $-1 32.045001200091555 -47.195037610056239 7.6917479822939541 0 1 0 I I #
coedge $-1 $389 $389 $-1 $553 reversed $240 $-1 #
edge $-1 $554 0 $554 6.2831853071796004 $241 $555 forward 7 unknown #
vertex $-1 $244 $556 #
ellipse-curve $-1 19.447000762356339 -20.970204182667477 5.5135514944209421 0 -0.75470958851134928 0.65605901945558964 1 0 0 1 I I #
coedge $-1 $393 $393 $-1 $557 reversed $247 $-1 #
edge $-1 $558 0 $558 6.2831853071796004 $248 $559 forward 7 unknown #
vertex $-1 $251 $560 #
ellipse-curve $-1 27.005801024997467 -20.970204182667477 5.5135514944209421 0 -0.75470958851134928 0.65605901945558964 1 0 0 1 I I #
face $-1 $-1 $561 $56 $-1 $562 reversed single #
loop $-1 $-1 $258 $252 #
plane-surface $-1 0 0 7.691747982293955 0 0 1 1 0 0 forward_v I I I I #
coedge $-1 $563 $564 $565 $566 reversed $253 $-1 #
coedge $-1 $567 $255 $257 $407 forward $159 $-1 #
coedge $-1 $255 $567 $563 $568 forward $159 $-1 #
coedge $-1 $565 $258 $255 $404 forward $398 $-1 #
edge $-1 $410 -16.345239469292338 $569 -6.3548694184580956 $403 $570 forward 7 unknown #
coedge $-1 $571 $572 $256 $406 forward $561 $-1 #
edge $-1 $573 -48.864772209463666 $409 -44.969721803954464 $405 $574 forward 7 unknown #
edge $-1 $410 39.790320375965408 $573 45.727362907238415 $257 $575 forward 7 unknown #
coedge $-1 $258 $565 $571 $576 forward $398 $-1 #
vertex $-1 $259 $577 #
vertex $-1 $259 $578 #
straight-curve $-1 -27.695293913167557 25.264874242317894 7.6917479822939541 0 -1 0 I I #
coedge $-1 $412 $412 $-1 $579 reversed $262 $-1 #
edge $-1 $580 0 $580 6.2831853071796004 $263 $581 forward 7 unknown #
vertex $-1 $266 $582 #
ellipse-curve $-1 -24.840902470072059 20.623310035936019 5.7442227795393483 0 0.6560590369687036 0.75470957328743171 1 0 0 1 I I #
coedge $-1 $416 $416 $-1 $583 reversed $269 $-1 #
edge $-1 $584 0 $584 6.2831853071796004 $270 $585 forward 7 unknown #
vertex $-1 $273 $586 #
ellipse-curve $-1 -20.559315305428811 20.623310035936019 5.7442227795393483 0 0.6560590369687036 0.75470957328743171 1 0 0 1 I I #
face $-1 $-1 $587 $59 $-1 $588 reversed single #
loop $-1 $-1 $280 $274 #
plane-surface $-1 0 0 7.691747982293955 0 0 1 1 0 0 forward_v I I I I #
coedge $-1 $589 $590 $591 $592 reversed $275 $-1 #
coedge $-1 $593 $277 $279 $430 forward $173 $-1 #
coedge $-1 $277 $593 $589 $594 forward $173 $-1 #
coedge $-1 $591 $280 $277 $427 forward $421 $-1 #
edge $-1 $433 -7.4477751390528901 $595 2.5425949117813538 $426 $596 forward 7 unknown #
coedge $-1 $597 $598 $278 $429 forward $587 $-1 #
edge $-1 $599 -48.864772209463666 $432 -44.969721803954464 $428 $600 forward 7 unknown #
edge $-1 $433 39.790320375965408 $599 45.727362907238415 $279 $601 forward 7 unknown #
coedge $-1 $280 $591 $597 $602 forward $421 $-1 #
vertex $-1 $281 $603 #
vertex $-1 $281 $604 #
straight-curve $-1 -9.9003652526886583 25.264874242317894 7.6917479822939541 0 -1 0 I I #
coedge $-1 $435 $435 $-1 $605 reversed $284 $-1 #
edge $-1 $606 0 $606 6.2831853071796004 $285 $607 forward 7 unknown #
vertex $-1 $288 $608 #
ellipse-curve $-1 -7.0459738095931641 20.623310035936019 5.7442227795393483 0 0.6560590369687036 0.75470957328743171 1 0 0 1 I I #
coedge $-1 $439 $439 $-1 $609 reversed $291 $-1 #
edge $-1 $610 0 $610 6.2831853071796004 $292 $611 forward 7 unknown #
vertex $-1 $295 $612 #
ellipse-curve $-1 -2.7643866449499086 20.623310035936019 5.7442227795393483 0 0.6560590369687036 0.75470957328743171 1 0 0 1 I I #
face $-1 $-1 $613 $62 $-1 $614 reversed single #
loop $-1 $-1 $302 $296 #
plane-surface $-1 0 0 7.691747982293955 0 0 1 1 0 0 forward_v I I I I #
coedge $-1 $615 $616 $617 $618 reversed $297 $-1 #
coedge $-1 $619 $299 $301 $453 forward $187 $-1 #
coedge $-1 $299 $619 $615 $620 forward $187 $-1 #
coedge $-1 $617 $302 $299 $450 forward $444 $-1 #
edge $-1 $456 1.4496891911865575 $621 11.440059242020801 $449 $622 forward 7 unknown #
coedge $-1 $623 $624 $300 $452 forward $613 $-1 #
edge $-1 $625 -48.864772209463666 $455 -44.969721803954464 $451 $626 forward 7 unknown #
edge $-1 $456 39.790320375965408 $625 45.727362907238415 $301 $627 forward 7 unknown #
coedge $-1 $302 $617 $623 $628 forward $444 $-1 #
vertex $-1 $303 $629 #
vertex $-1 $303 $630 #
straight-curve $-1 7.8945634077902369 25.264874242317894 7.6917479822939541 0 -1 0 I I #
coedge $-1 $458 $458 $-1 $631 reversed $306 $-1 #
edge $-1 $632 0 $632 6.2831853071796004 $307 $633 forward 7 unknown #
vertex $-1 $310 $634 #
ellipse-curve $-1 10.748954850885738 20.623310035936019 5.7442227795393483 0 0.6560590369687036 0.75470957328743171 1 0 0 1 I I #
coedge $-1 $462 $462 $-1 $635 reversed $313 $-1 #
edge $-1 $636 0 $636 6.2831853071796004 $314 $637 forward 7 unknown #
vertex $-1 $317 $638 #
ellipse-curve $-1 15.030542015528994 20.623310035936019 5.7442227795393483 0 0.6560590369687036 0.75470957328743171 1 0 0 1 I I #
face $-1 $-1 $639 $65 $-1 $640 reversed single #
loop $-1 $-1 $324 $318 #
plane-surface $-1 0 0 7.691747982293955 0 0 1 1 0 0 forward_v I I I I #
coedge $-1 $641 $642 $643 $644 reversed $319 $-1 #
coedge $-1 $645 $321 $323 $476 forward $201 $-1 #
coedge $-1 $321 $645 $641 $646 forward $201 $-1 #
coedge $-1 $643 $324 $321 $473 forward $467 $-1 #
edge $-1 $479 10.347153521426009 $647 20.337523572260253 $472 $648 forward 7 unknown #
coedge $-1 $649 $650 $322 $475 forward $639 $-1 #
edge $-1 $651 -48.864772209463666 $478 -44.969721803954464 $474 $652 forward 7 unknown #
edge $-1 $479 39.790320375965408 $651 45.727362907238415 $323 $653 forward 7 unknown #
coedge $-1 $324 $643 $649 $654 forward $467 $-1 #
vertex $-1 $325 $655 #
vertex $-1 $325 $656 #
straight-curve $-1 25.689492068269139 25.264874242317894 7.6917479822939541 0 -1 0 I I #
coedge $-1 $481 $481 $-1 $657 reversed $328 $-1 #
edge $-1 $658 0 $658 6.2831853071796004 $329 $659 forward 7 unknown #
vertex $-1 $332 $660 #
ellipse-curve $-1 28.543883511364641 20.623310035936019 5.7442227795393483 0 0.6560590369687036 0.75470957328743171 1 0 0 1 I I #
coedge $-1 $485 $485 $-1 $661 reversed $335 $-1 #
edge $-1 $662 0 $662 6.2831853071796004 $336 $663 forward 7 unknown #
vertex $-1 $339 $664 #
ellipse-curve $-1 32.825470676007896 20.623310035936019 5.7442227795393483 0 0.6560590369687036 0.75470957328743171 1 0 0 1 I I #
face $-1 $-1 $355 $51 $-1 $665 reversed single #
loop $-1 $-1 $504 $340 #
plane-surface $-1 0 22.863681453619211 0 0 -1 0 0 0 -1 forward_v I I I I #
coedge $-1 $502 $666 $343 $494 reversed $341 $-1 #
coedge $-1 $508 $343 $344 $496 reversed $215 $-1 #
edge $-1 $509 -7.691747982293955 $667 7.691747982293955 $492 $668 forward 7 unknown #
coedge $-1 $345 $344 $666 $669 forward $137 $-1 #
edge $-1 $500 -47.386700033570364 $667 47.386700033570364 $493 $670 forward 7 unknown #
coedge $-1 $505 $504 $345 $498 reversed $490 $-1 #
edge $-1 $671 -47.386700033570364 $499 47.386700033570364 $497 $672 forward 7 unknown #
vertex $-1 $347 $673 #
vertex $-1 $511 $674 #
straight-curve $-1 47.386700033570364 0 -7.691747982293955 0 -1 0 I I #
coedge $-1 $675 $492 $348 $503 reversed $341 $-1 #
edge $-1 $506 -22.863681453619211 $509 22.863681453619211 $502 $676 forward 7 unknown #
coedge $-1 $497 $349 $354 $512 forward $490 $-1 #
coedge $-1 $349 $497 $675 $677 reversed $490 $-1 #
vertex $-1 $350 $678 #
straight-curve $-1 0 22.863681453619211 7.691747982293955 -1 0 0 I I #
coedge $-1 $351 $493 $353 $511 reversed $215 $-1 #
vertex $-1 $503 $679 #
straight-curve $-1 0 -22.863681453619211 7.691747982293955 1 0 0 I I #
edge $-1 $356 -7.691747982293955 $500 7.691747982293955 $353 $680 forward 7 unknown #
edge $-1 $357 -7.691747982293955 $499 7.691747982293955 $354 $681 forward 7 unknown #
point $-1 47.386700033570364 -22.863681453619211 7.691747982293955 #
point $-1 47.386700033570364 22.863681453619211 7.691747982293955 #
face $-1 $-1 $528 $52 $-1 $682 reversed single #
loop $-1 $-1 $683 $359 #
plane-surface $-1 -55.371268239506193 0 -2.9113037405299993 1 0 0 0 0 -1 forward_v I I I I #
coedge $-1 $684 $520 $365 $525 reversed $360 $-1 #
coedge $-1 $363 $362 $683 $685 reversed $141 $-1 #
coedge $-1 $518 $686 $362 $521 forward $360 $-1 #
edge $-1 $687 -3.9922841029679148 $523 3.9922841029679148 $362 $688 forward 7 unknown #
edge $-1 $370 -3.9922841029679148 $689 3.9922841029679148 $363 $690 forward 7 unknown #
vertex $-1 $364 $691 #
straight-curve $-1 -47.386700033570364 22.863681453619211 0 0 0 -1 I I #
edge $-1 $529 -22.863681453619211 $523 22.863681453619211 $518 $692 forward 7 unknown #
coedge $-1 $693 $366 $369 $532 reversed $528 $-1 #
coedge $-1 $366 $693 $684 $694 reversed $528 $-1 #
loop $-1 $-1 $366 $515 #
vertex $-1 $367 $695 #
straight-curve $-1 -47.386700033570364 -22.863681453619211 0 0 0 1 I I #
coedge $-1 $369 $368 $696 $697 forward $223 $-1 #
edge $-1 $698 -3.9922841029679148 $371 3.9922841029679148 $526 $699 forward 7 unknown #
point $-1 -47.386700033570364 22.863681453619211 -1.0402092249482591 #
point $-1 -47.386700033570364 -22.863681453619211 -1.0402092249482591 #
plane-surface $-1 0 0 7.691747982293955 0 0 1 1 0 0 forward_v I I I I #
coedge $-1 $546 $545 $538 $700 forward $374 $-1 #
coedge $-1 $538 $376 $378 $542 reversed $231 $-1 #
coedge $-1 $376 $537 $536 $700 reversed $231 $-1 #
coedge $-1 $384 $379 $376 $540 forward $385 $-1 #
edge $-1 $543 -28.118310698340498 $701 -24.331356156437028 $539 $702 forward 7 unknown #
coedge $-1 $378 $377 $546 $703 reversed $145 $-1 #
edge $-1 $704 1.6376804332752545e-014 $543 5.7722772336031118 $537 $705 forward 7 unknown #
vertex $-1 $380 $706 #
straight-curve $-1 11.613200446838455 -19.076726911715738 7.6917479822939541 -1 0 0 I I #
coedge $-1 $536 $381 $384 $550 reversed $374 $-1 #
coedge $-1 $381 $536 $541 $703 forward $374 $-1 #
vertex $-1 $382 $707 #
straight-curve $-1 32.045001200091555 -22.863681453619208 32.756149462534289 0 0 1 I I #
straight-curve $-1 32.045001200091555 -22.863681453619222 3.3353550065479212 0 -0.65605901945558964 -0.75470958851134928 I I #
edge $-1 $701 14.407800587262265 $386 32.045001200091555 $545 $708 forward 7 unknown #
point $-1 32.045001200091555 -22.863681453619211 7.691747982293955 #
point $-1 32.045001200091555 -19.076726911715742 7.691747982293955 #
edge $-1 $709 1 $709 0 $389 $-1 forward 7 unknown #
vertex $-1 $390 $710 #
ellipse-curve $-1 19.447000762356339 -18.805345973683725 3.6316690121170803 0 -0.75470958851134928 0.65605901945558964 1 0 0 1 I I #
point $-1 20.447000762356339 -20.970204182667466 5.5135514944209323 #
edge $-1 $711 1 $711 0 $393 $-1 forward 7 unknown #
vertex $-1 $394 $712 #
ellipse-curve $-1 27.005801024997467 -18.805345973683725 3.6316690121170803 0 -0.75470958851134928 0.65605901945558964 1 0 0 1 I I #
point $-1 28.005801024997467 -20.970204182667466 5.5135514944209323 #
loop $-1 $-1 $405 $397 #
plane-surface $-1 0 22.863681453619211 0 0 -1 0 0 0 -1 forward_v I I I I #
coedge $-1 $564 $400 $402 $568 reversed $253 $-1 #
coedge $-1 $400 $563 $713 $714 reversed $253 $-1 #
coedge $-1 $408 $403 $400 $566 forward $398 $-1 #
edge $-1 $569 -6.881935624065072 $715 -2.4011927886986832 $565 $716 forward 7 unknown #
coedge $-1 $402 $401 $572 $717 reversed $159 $-1 #
edge $-1 $718 -45.727362907238415 $569 -39.790320375965408 $563 $719 forward 7 unknown #
vertex $-1 $404 $720 #
straight-curve $-1 -11.350054443875218 18.382938618252822 7.6917479822939576 1 0 0 I I #
coedge $-1 $713 $405 $408 $576 reversed $561 $-1 #
coedge $-1 $405 $713 $567 $717 forward $561 $-1 #
vertex $-1 $406 $721 #
straight-curve $-1 -27.695293913167557 22.863681453619211 52.661469786248418 0 0 1 I I #
straight-curve $-1 -27.695293913167557 -11.647197093662228 33.796547248826002 0 0.75470957328743171 -0.6560590369687036 I I #
edge $-1 $715 17.704923862333313 $409 27.695293913167557 $571 $722 forward 7 unknown #
point $-1 -27.695293913167557 22.863681453619211 7.691747982293955 #
point $-1 -27.695293913167557 18.382938618252822 7.6917479822939541 #
edge $-1 $723 1 $723 0 $412 $-1 forward 7 unknown #
vertex $-1 $413 $724 #
ellipse-curve $-1 -24.840902470072059 18.51696148992383 3.3211460093442047 0 0.6560590369687036 0.75470957328743171 1 0 0 1 I I #
point $-1 -23.840902470072059 20.623310035936022 5.7442227795393528 #
edge $-1 $725 1 $725 0 $416 $-1 forward 7 unknown #
vertex $-1 $417 $726 #
ellipse-curve $-1 -20.559315305428811 18.51696148992383 3.3211460093442047 0 0.6560590369687036 0.75470957328743171 1 0 0 1 I I #
point $-1 -19.559315305428811 20.623310035936022 5.7442227795393528 #
loop $-1 $-1 $428 $420 #
plane-surface $-1 0 22.863681453619211 0 0 -1 0 0 0 -1 forward_v I I I I #
coedge $-1 $590 $423 $425 $594 reversed $275 $-1 #
coedge $-1 $423 $589 $727 $728 reversed $275 $-1 #
coedge $-1 $431 $426 $423 $592 forward $421 $-1 #
edge $-1 $595 -6.881935624065072 $729 -2.4011927886986832 $591 $730 forward 7 unknown #
coedge $-1 $425 $424 $598 $731 reversed $173 $-1 #
edge $-1 $732 -45.727362907238415 $595 -39.790320375965408 $589 $733 forward 7 unknown #
vertex $-1 $427 $734 #
straight-curve $-1 -2.4525901136357682 18.382938618252822 7.6917479822939576 1 0 0 I I #
coedge $-1 $727 $428 $431 $602 reversed $587 $-1 #
coedge $-1 $428 $727 $593 $731 forward $587 $-1 #
vertex $-1 $429 $735 #
straight-curve $-1 -9.9003652526886583 22.863681453619211 52.661469786248418 0 0 1 I I #
straight-curve $-1 -9.9003652526886583 -11.647197093662228 33.796547248826002 0 0.75470957328743171 -0.6560590369687036 I I #
edge $-1 $729 -0.090004798145585596 $432 9.9003652526886583 $597 $736 forward 7 unknown #
point $-1 -9.9003652526886583 22.863681453619211 7.691747982293955 #
point $-1 -9.9003652526886583 18.382938618252822 7.6917479822939541 #
edge $-1 $737 1 $737 0 $435 $-1 forward 7 unknown #
vertex $-1 $436 $738 #
ellipse-curve $-1 -7.0459738095931641 18.51696148992383 3.3211460093442047 0 0.6560590369687036 0.75470957328743171 1 0 0 1 I I #
point $-1 -6.0459738095931641 20.623310035936022 5.7442227795393528 #
edge $-1 $739 1 $739 0 $439 $-1 forward 7 unknown #
vertex $-1 $440 $740 #
ellipse-curve $-1 -2.7643866449499086 18.51696148992383 3.3211460093442047 0 0.6560590369687036 0.75470957328743171 1 0 0 1 I I #
point $-1 -1.7643866449499086 20.623310035936022 5.7442227795393528 #
loop $-1 $-1 $451 $443 #
plane-surface $-1 0 22.863681453619211 0 0 -1 0 0 0 -1 forward_v I I I I #
coedge $-1 $616 $446 $448 $620 reversed $297 $-1 #
coedge $-1 $446 $615 $741 $742 reversed $297 $-1 #
coedge $-1 $454 $449 $446 $618 forward $444 $-1 #
edge $-1 $621 -6.881935624065072 $743 -2.4011927886986832 $617 $744 forward 7 unknown #
coedge $-1 $448 $447 $624 $745 reversed $187 $-1 #
edge $-1 $746 -45.727362907238415 $621 -39.790320375965408 $615 $747 forward 7 unknown #
vertex $-1 $450 $748 #
straight-curve $-1 6.4448742166036794 18.382938618252822 7.6917479822939576 1 0 0 I I #
coedge $-1 $741 $451 $454 $628 reversed $613 $-1 #
coedge $-1 $451 $741 $619 $745 forward $613 $-1 #
vertex $-1 $452 $749 #
straight-curve $-1 7.8945634077902369 22.863681453619211 52.661469786248418 0 0 1 I I #
straight-curve $-1 7.8945634077902369 -11.647197093662228 33.796547248826002 0 0.75470957328743171 -0.6560590369687036 I I #
edge $-1 $743 -17.884933458624481 $455 -7.8945634077902369 $623 $750 forward 7 unknown #
point $-1 7.8945634077902369 22.863681453619211 7.691747982293955 #
point $-1 7.8945634077902369 18.382938618252822 7.6917479822939541 #
edge $-1 $751 1 $751 0 $458 $-1 forward 7 unknown #
vertex $-1 $459 $752 #
ellipse-curve $-1 10.748954850885738 18.51696148992383 3.3211460093442047 0 0.6560590369687036 0.75470957328743171 1 0 0 1 I I #
point $-1 11.748954850885738 20.623310035936022 5.7442227795393528 #
edge $-1 $753 1 $753 0 $462 $-1 forward 7 unknown #
vertex $-1 $463 $754 #
ellipse-curve $-1 15.030542015528994 18.51696148992383 3.3211460093442047 0 0.6560590369687036 0.75470957328743171 1 0 0 1 I I #
point $-1 16.030542015528994 20.623310035936022 5.7442227795393528 #
loop $-1 $-1 $474 $466 #
plane-surface $-1 0 22.863681453619211 0 0 -1 0 0 0 -1 forward_v I I I I #
coedge $-1 $642 $469 $471 $646 reversed $319 $-1 #
coedge $-1 $469 $641 $755 $756 reversed $319 $-1 #
coedge $-1 $477 $472 $469 $644 forward $467 $-1 #
edge $-1 $647 -6.881935624065072 $757 -2.4011927886986832 $643 $758 forward 7 unknown #
coedge $-1 $471 $470 $650 $759 reversed $201 $-1 #
edge $-1 $760 -45.727362907238415 $647 -39.790320375965408 $641 $761 forward 7 unknown #
vertex $-1 $473 $762 #
straight-curve $-1 15.342338546843131 18.382938618252822 7.6917479822939576 1 0 0 I I #
coedge $-1 $755 $474 $477 $654 reversed $639 $-1 #
coedge $-1 $474 $755 $645 $759 forward $639 $-1 #
vertex $-1 $475 $763 #
straight-curve $-1 25.689492068269139 22.863681453619211 52.661469786248418 0 0 1 I I #
straight-curve $-1 25.689492068269139 -11.647197093662228 33.796547248826002 0 0.75470957328743171 -0.6560590369687036 I I #
edge $-1 $757 -35.679862119103383 $478 -25.689492068269139 $649 $764 forward 7 unknown #
point $-1 25.689492068269139 22.863681453619211 7.691747982293955 #
point $-1 25.689492068269139 18.382938618252822 7.6917479822939541 #
edge $-1 $765 1 $765 0 $481 $-1 forward 7 unknown #
vertex $-1 $482 $766 #
ellipse-curve $-1 28.543883511364641 18.51696148992383 3.3211460093442047 0 0.6560590369687036 0.75470957328743171 1 0 0 1 I I #
point $-1 29.543883511364641 20.623310035936022 5.7442227795393528 #
edge $-1 $767 1 $767 0 $485 $-1 forward 7 unknown #
vertex $-1 $486 $768 #
ellipse-curve $-1 32.825470676007896 18.51696148992383 3.3211460093442047 0 0.6560590369687036 0.75470957328743171 1 0 0 1 I I #
point $-1 33.825470676007896 20.623310035936022 5.7442227795393528 #
plane-surface $-1 47.386700033570364 0 0 -1 0 0 0 0 1 forward_v I I I I #
coedge $-1 $492 $675 $495 $669 reversed $341 $-1 #
vertex $-1 $669 $769 #
straight-curve $-1 -47.386700033570364 -22.863681453619211 0 0 0 -1 I I #
edge $-1 $667 -22.863681453619211 $671 22.863681453619211 $666 $770 forward 7 unknown #
straight-curve $-1 0 -22.863681453619211 -7.691747982293955 -1 0 0 I I #
vertex $-1 $498 $771 #
straight-curve $-1 0 22.863681453619211 -7.691747982293955 1 0 0 I I #
point $-1 47.386700033570364 22.863681453619211 -7.691747982293955 #
point $-1 47.386700033570364 -22.863681453619211 -7.691747982293955 #
coedge $-1 $666 $502 $505 $677 forward $341 $-1 #
straight-curve $-1 -47.386700033570364 0 7.691747982293955 0 -1 0 I I #
edge $-1 $506 -7.691747982293955 $671 7.691747982293955 $505 $772 forward 7 unknown #
point $-1 -47.386700033570364 22.863681453619211 7.691747982293955 #
point $-1 -47.386700033570364 -22.863681453619211 7.691747982293955 #
straight-curve $-1 47.386700033570364 -22.863681453619211 0 0 0 -1 I I #
straight-curve $-1 47.386700033570364 22.863681453619211 0 0 0 -1 I I #
plane-surface $-1 0 -22.863681453619211 0 0 1 0 0 0 1 forward_v I I I I #
coedge $-1 $773 $696 $519 $685 forward $516 $-1 #
coedge $-1 $686 $518 $527 $694 forward $360 $-1 #
edge $-1 $689 -1.8710945155817402 $687 1.8710945155817402 $519 $774 forward 7 unknown #
coedge $-1 $520 $684 $773 $775 forward $360 $-1 #
vertex $-1 $521 $776 #
straight-curve $-1 -51.378984136538278 22.863681453619211 -4.7823982561117395 1 0 0 I I #
vertex $-1 $522 $777 #
straight-curve $-1 -51.378984136538278 22.863681453619211 -1.0402092249482591 -1 0 0 I I #
point $-1 -47.386700033570364 22.863681453619211 -4.7823982561117395 #
straight-curve $-1 -47.386700033570364 0 -4.7823982561117395 0 1 0 I I #
coedge $-1 $527 $526 $778 $779 forward $528 $-1 #
edge $-1 $529 -3.9922841029679148 $780 3.9922841029679148 $527 $781 forward 7 unknown #
point $-1 -47.386700033570364 -22.863681453619211 -4.7823982561117395 #
coedge $-1 $683 $778 $531 $697 reversed $516 $-1 #
edge $-1 $689 -22.863681453619211 $698 22.863681453619211 $696 $782 forward 7 unknown #
vertex $-1 $697 $783 #
straight-curve $-1 -51.378984136538278 -22.863681453619211 -1.0402092249482591 1 0 0 I I #
edge $-1 $701 25.064401480240335 $704 29.420794455986353 $536 $784 forward 7 unknown #
vertex $-1 $550 $785 #
straight-curve $-1 14.407800587262265 -47.195037610056239 7.6917479822939541 0 -1 0 I I #
edge $-1 $704 2.7946001404238103 $547 20.4318007532531 $546 $786 forward 7 unknown #
vertex $-1 $703 $787 #
straight-curve $-1 14.407800587262265 -22.863681453619222 3.3353550065479212 0 0.65605901945558964 0.75470958851134928 I I #
point $-1 14.407800587262265 -19.076726911715742 7.691747982293955 #
point $-1 32.045001200091555 -22.863681453619211 3.3353550065479336 #
straight-curve $-1 0 -22.863681453619211 7.691747982293955 1 0 0 I I #
vertex $-1 $553 $788 #
point $-1 20.447000762356339 -18.805345973683725 3.6316690121170803 #
vertex $-1 $557 $789 #
point $-1 28.005801024997467 -18.805345973683725 3.6316690121170803 #
coedge $-1 $572 $571 $564 $714 forward $561 $-1 #
edge $-1 $715 44.969721803954464 $718 48.864772209463666 $713 $790 forward 7 unknown #
vertex $-1 $576 $791 #
straight-curve $-1 -17.704923862333313 25.264874242317894 7.6917479822939541 0 1 0 I I #
edge $-1 $718 6.3548694184580956 $573 16.345239469292338 $572 $792 forward 7 unknown #
vertex $-1 $717 $793 #
straight-curve $-1 -17.704923862333313 -11.647197093662228 33.796547248826002 0 -0.75470957328743171 0.6560590369687036 I I #
point $-1 -17.704923862333313 18.382938618252822 7.6917479822939541 #
point $-1 -27.695293913167557 22.863681453619208 3.796697576784748 #
straight-curve $-1 0 22.863681453619211 7.691747982293955 -1 0 0 I I #
vertex $-1 $579 $794 #
point $-1 -23.840902470072059 18.51696148992383 3.3211460093442047 #
vertex $-1 $583 $795 #
point $-1 -19.559315305428811 18.51696148992383 3.3211460093442047 #
coedge $-1 $598 $597 $590 $728 forward $587 $-1 #
edge $-1 $729 44.969721803954464 $732 48.864772209463666 $727 $796 forward 7 unknown #
vertex $-1 $602 $797 #
straight-curve $-1 0.090004798145585596 25.264874242317894 7.6917479822939541 0 1 0 I I #
edge $-1 $732 -2.5425949117813538 $599 7.4477751390528901 $598 $798 forward 7 unknown #
vertex $-1 $731 $799 #
straight-curve $-1 0.090004798145585596 -11.647197093662228 33.796547248826002 0 -0.75470957328743171 0.6560590369687036 I I #
point $-1 0.090004798145585596 18.382938618252822 7.6917479822939541 #
point $-1 -9.9003652526886583 22.863681453619208 3.796697576784748 #
straight-curve $-1 0 22.863681453619211 7.691747982293955 -1 0 0 I I #
vertex $-1 $605 $800 #
point $-1 -6.0459738095931641 18.51696148992383 3.3211460093442047 #
vertex $-1 $609 $801 #
point $-1 -1.7643866449499086 18.51696148992383 3.3211460093442047 #
coedge $-1 $624 $623 $616 $742 forward $613 $-1 #
edge $-1 $743 44.969721803954464 $746 48.864772209463666 $741 $802 forward 7 unknown #
vertex $-1 $628 $803 #
straight-curve $-1 17.884933458624481 25.264874242317894 7.6917479822939541 0 1 0 I I #
edge $-1 $746 -11.440059242020801 $625 -1.4496891911865575 $624 $804 forward 7 unknown #
vertex $-1 $745 $805 #
straight-curve $-1 17.884933458624481 -11.647197093662228 33.796547248826002 0 -0.75470957328743171 0.6560590369687036 I I #
point $-1 17.884933458624481 18.382938618252822 7.6917479822939541 #
point $-1 7.8945634077902369 22.863681453619208 3.796697576784748 #
straight-curve $-1 0 22.863681453619211 7.691747982293955 -1 0 0 I I #
vertex $-1 $631 $806 #
point $-1 11.748954850885738 18.51696148992383 3.3211460093442047 #
vertex $-1 $635 $807 #
point $-1 16.030542015528994 18.51696148992383 3.3211460093442047 #
coedge $-1 $650 $649 $642 $756 forward $639 $-1 #
edge $-1 $757 44.969721803954464 $760 48.864772209463666 $755 $808 forward 7 unknown #
vertex $-1 $654 $809 #
straight-curve $-1 35.679862119103383 25.264874242317894 7.6917479822939541 0 1 0 I I #
edge $-1 $760 -20.337523572260253 $651 -10.347153521426009 $650 $810 forward 7 unknown #
vertex $-1 $759 $811 #
straight-curve $-1 35.679862119103383 -11.647197093662228 33.796547248826002 0 -0.75470957328743171 0.6560590369687036 I I #
point $-1 35.679862119103383 18.382938618252822 7.6917479822939541 #
point $-1 25.689492068269139 22.863681453619208 3.796697576784748 #
straight-curve $-1 0 22.863681453619211 7.691747982293955 -1 0 0 I I #
vertex $-1 $657 $812 #
point $-1 29.543883511364641 18.51696148992383 3.3211460093442047 #
vertex $-1 $661 $813 #
point $-1 33.825470676007896 18.51696148992383 3.3211460093442047 #
point $-1 -47.386700033570364 -22.863681453619211 -7.691747982293955 #
straight-curve $-1 -47.386700033570364 0 -7.691747982293955 0 1 0 I I #
point $-1 -47.386700033570364 22.863681453619211 -7.691747982293955 #
straight-curve $-1 -47.386700033570364 22.863681453619211 0 0 0 -1 I I #
coedge $-1 $778 $683 $686 $775 reversed $516 $-1 #
straight-curve $-1 -55.371268239506193 22.863681453619211 -2.9113037405299993 0 0 -1 I I #
edge $-1 $780 -22.863681453619211 $687 22.863681453619211 $773 $814 forward 7 unknown #
point $-1 -55.371268239506193 22.863681453619211 -4.7823982561117395 #
point $-1 -55.371268239506193 22.863681453619211 -1.0402092249482591 #
coedge $-1 $696 $773 $693 $779 reversed $516 $-1 #
edge $-1 $698 -1.8710945155817402 $780 1.8710945155817402 $778 $815 forward 7 unknown #
vertex $-1 $775 $816 #
straight-curve $-1 -51.378984136538278 -22.863681453619211 -4.7823982561117395 -1 0 0 I I #
straight-curve $-1 -55.371268239506193 0 -1.0402092249482591 0 -1 0 I I #
point $-1 -55.371268239506193 -22.863681453619211 -1.0402092249482591 #
straight-curve $-1 14.407800587262265 -22.863681453619208 32.756149462534289 0 0 -1 I I #
point $-1 14.407800587262265 -22.863681453619211 7.691747982293955 #
straight-curve $-1 11.613200446838455 -22.863681453619211 3.3353550065479332 1 0 0 I I #
point $-1 14.407800587262265 -22.863681453619211 3.3353550065479336 #
point $-1 19.447000762356339 -18.050636385172378 2.9756099926614903 #
point $-1 27.005801024997467 -18.050636385172378 2.9756099926614903 #
straight-curve $-1 -17.704923862333313 22.863681453619211 52.661469786248418 0 0 -1 I I #
point $-1 -17.704923862333313 22.863681453619211 7.691747982293955 #
straight-curve $-1 -11.350054443875218 22.863681453619211 3.7966975767847515 -1 0 0 I I #
point $-1 -17.704923862333313 22.863681453619208 3.796697576784748 #
point $-1 -24.840902470072059 17.860902452955123 2.5664364360567737 #
point $-1 -20.559315305428811 17.860902452955123 2.5664364360567737 #
straight-curve $-1 0.090004798145585596 22.863681453619211 52.661469786248418 0 0 -1 I I #
point $-1 0.090004798145585596 22.863681453619211 7.691747982293955 #
straight-curve $-1 -2.4525901136357682 22.863681453619211 3.7966975767847515 -1 0 0 I I #
point $-1 0.090004798145585596 22.863681453619208 3.796697576784748 #
point $-1 -7.0459738095931641 17.860902452955123 2.5664364360567737 #
point $-1 -2.7643866449499086 17.860902452955123 2.5664364360567737 #
straight-curve $-1 17.884933458624481 22.863681453619211 52.661469786248418 0 0 -1 I I #
point $-1 17.884933458624481 22.863681453619211 7.691747982293955 #
straight-curve $-1 6.4448742166036794 22.863681453619211 3.7966975767847515 -1 0 0 I I #
point $-1 17.884933458624481 22.863681453619208 3.796697576784748 #
point $-1 10.748954850885738 17.860902452955123 2.5664364360567737 #
point $-1 15.030542015528994 17.860902452955123 2.5664364360567737 #
straight-curve $-1 35.679862119103383 22.863681453619211 52.661469786248418 0 0 -1 I I #
point $-1 35.679862119103383 22.863681453619211 7.691747982293955 #
straight-curve $-1 15.342338546843131 22.863681453619211 3.7966975767847515 -1 0 0 I I #
point $-1 35.679862119103383 22.863681453619208 3.796697576784748 #
point $-1 28.543883511364641 17.860902452955123 2.5664364360567737 #
point $-1 32.825470676007896 17.860902452955123 2.5664364360567737 #
straight-curve $-1 -55.371268239506193 0 -4.7823982561117395 0 1 0 I I #
straight-curve $-1 -55.371268239506193 -22.863681453619211 -2.9113037405299993 0 0 -1 I I #
point $-1 -55.371268239506193 -22.863681453619211 -4.7823982561117395 #
End-of-ACIS-data 