500 0 8 0           
7 Unknown 11 ACIS 5.0 NT 24 Fri Mar 26 03:18:25 1999 
-1 9.9999999999999995e-007 1e-010 
body $-1 $8 $-1 $9 #
body $-1 $10 $-1 $11 #
body $-1 $12 $-1 $13 #
body $-1 $14 $-1 $15 #
body $-1 $16 $-1 $17 #
body $-1 $18 $-1 $19 #
body $-1 $20 $-1 $21 #
body $-1 $22 $-1 $23 #
lump $-1 $-1 $24 $0 #
transform $-1 1 0 0 0 1 0 0 0 1 46.140324106570631 21.313092549816009 5.0856901159246011 1 rotate no_reflect no_shear #
lump $-1 $-1 $25 $1 #
transform $-1 1 0 0 0 1 0 0 0 1 46.140324106570631 21.313092549816009 5.0856901159246011 1 rotate no_reflect no_shear #
lump $-1 $-1 $26 $2 #
transform $-1 1 0 0 0 1 0 0 0 1 46.140324106570631 21.313092549816009 5.0856901159246011 1 rotate no_reflect no_shear #
lump $-1 $-1 $27 $3 #
transform $-1 1 0 0 0 1 0 0 0 1 46.140324106570631 21.313092549816009 5.0856901159246011 1 rotate no_reflect no_shear #
lump $-1 $-1 $28 $4 #
transform $-1 1 0 0 0 1 0 0 0 1 46.140324106570631 21.313092549816009 5.0856901159246011 1 rotate no_reflect no_shear #
lump $-1 $-1 $29 $5 #
transform $-1 1 0 0 0 1 0 0 0 1 46.140324106570631 21.313092549816009 5.0856901159246011 1 rotate no_reflect no_shear #
lump $-1 $-1 $30 $6 #
transform $-1 1 0 0 0 1 0 0 0 1 46.140324106570631 21.313092549816009 5.0856901159246011 1 rotate no_reflect no_shear #
lump $-1 $-1 $31 $7 #
transform $-1 1 0 0 0 1 0 0 0 1 46.140324106570631 21.313092549816009 5.0856901159246011 1 rotate no_reflect no_shear #
shell $-1 $-1 $-1 $32 $-1 $8 #
shell $-1 $-1 $-1 $33 $-1 $10 #
shell $-1 $-1 $-1 $34 $-1 $12 #
shell $-1 $-1 $-1 $35 $-1 $14 #
shell $-1 $-1 $-1 $36 $-1 $16 #
shell $-1 $-1 $-1 $37 $-1 $18 #
shell $-1 $-1 $-1 $38 $-1 $20 #
shell $-1 $-1 $-1 $39 $-1 $22 #
face $-1 $40 $41 $24 $-1 $42 forward single #
face $-1 $43 $44 $25 $-1 $45 reversed single #
face $-1 $46 $47 $26 $-1 $48 reversed single #
face $-1 $49 $50 $27 $-1 $51 reversed single #
face $-1 $52 $53 $28 $-1 $54 forward single #
face $-1 $55 $56 $29 $-1 $57 reversed single #
face $-1 $58 $59 $30 $-1 $60 forward single #
face $-1 $61 $62 $31 $-1 $63 forward single #
face $-1 $64 $65 $24 $-1 $66 reversed single #
loop $-1 $-1 $67 $32 #
plane-surface $-1 0 0 5.0856901159246011 0 0 1 1 0 0 forward_v I I I I #
face $-1 $68 $69 $25 $-1 $70 reversed single #
loop $-1 $-1 $71 $33 #
plane-surface $-1 -43.084011682572111 -18.313092549816009 0 0 -1 0 0 0 -1 forward_v I I I I #
face $-1 $72 $73 $26 $-1 $74 reversed single #
loop $-1 $-1 $75 $34 #
plane-surface $-1 40.027699258573591 -19.813092549816009 0 1 0 0 0 0 -1 forward_v I I I I #
face $-1 $76 $77 $27 $-1 $78 reversed single #
loop $-1 $-1 $79 $35 #
plane-surface $-1 10.651724615279882 69.358617754507193 90.881815402713414 1 0 0 0 -0.79863551827123203 -0.60181501223851219 forward_v I I I I #
face $-1 $80 $81 $28 $-1 $82 forward single #
loop $-1 $83 $84 $36 #
cone-surface $-1 18.241314529632476 18.553475576823143 2.1888454255302032 0 -0.79863551827123203 -0.60181501223851219 1 0 0 1 I I 0 1 1 forward I I I I #
face $-1 $85 $86 $29 $-1 $87 reversed single #
loop $-1 $-1 $88 $37 #
plane-surface $-1 33.135847771944839 -76.848973693769167 74.053144518758756 -1 0 0 0 -0.6018150307709319 0.79863550430605224 forward_v I I I I #
face $-1 $89 $90 $30 $-1 $91 forward single #
loop $-1 $92 $93 $38 #
cone-surface $-1 26.836479242907643 -17.05614018532588 1.2368385907024535 0 0.6018150307709319 -0.79863550430605224 1 0 0 1 I I 0 1 1 forward I I I I #
face $-1 $94 $95 $31 $-1 $96 forward single #
loop $-1 $97 $98 $39 #
cone-surface $-1 30.616100360329952 -17.05614018532588 1.2368385907024535 0 0.6018150307709319 -0.79863550430605224 1 0 0 1 I I 0 1 1 forward I I I I #
face $-1 $99 $100 $24 $-1 $101 reversed single #
loop $-1 $-1 $102 $40 #
plane-surface $-1 0 0 -5.0856901159246011 0 0 1 1 0 0 forward_v I I I I #
coedge $-1 $103 $104 $105 $106 forward $41 $-1 #
face $-1 $107 $108 $25 $-1 $109 forward single #
loop $-1 $-1 $110 $43 #
plane-surface $-1 -40.027699258573591 -19.813092549816009 0 -1 0 0 0 0 1 forward_v I I I I #
coedge $-1 $111 $112 $113 $114 forward $44 $-1 #
face $-1 $115 $116 $26 $-1 $117 forward single #
loop $-1 $-1 $118 $46 #
plane-surface $-1 43.084011682572111 -18.313092549816009 0 0 -1 0 0 0 -1 forward_v I I I I #
coedge $-1 $119 $120 $121 $122 forward $47 $-1 #
face $-1 $123 $124 $27 $-1 $125 reversed single #
loop $-1 $-1 $126 $49 #
plane-surface $-1 18.24131452963249 -4.3399855576001158 35.345935968943969 0 0.79863551827123203 0.60181501223851219 1 0 0 forward_v I I I I #
coedge $-1 $127 $128 $129 $130 reversed $50 $-1 #
face $-1 $-1 $131 $28 $-1 $132 forward single #
loop $-1 $133 $134 $52 #
cone-surface $-1 18.241314529632476 16.819714812740198 0.88236301699190811 0 -0.79863551827123203 -0.60181501223851219 0.5 0 0 1 I I -0.70710678118654746 0.70710678118654746 0.5 forward I I I I #
loop $-1 $-1 $135 $36 #
coedge $-1 $84 $84 $136 $137 reversed $53 $-1 #
face $-1 $138 $139 $29 $-1 $140 reversed single #
loop $-1 $-1 $141 $55 #
plane-surface $-1 28.726289801618805 -21.31309254981602 0.35454249536728355 0 -0.6018150307709319 0.79863550430605224 1 0 0 forward_v I I I I #
coedge $-1 $142 $143 $144 $145 reversed $56 $-1 #
face $-1 $-1 $146 $30 $-1 $147 forward single #
loop $-1 $148 $149 $58 #
cone-surface $-1 26.836479242907643 -15.63750271823209 -0.64575687639406532 0 0.6018150307709319 -0.79863550430605224 0.5 0 0 1 I I -0.70710678118654746 0.70710678118654746 0.5 forward I I I I #
loop $-1 $-1 $150 $38 #
coedge $-1 $93 $93 $151 $152 reversed $59 $-1 #
face $-1 $-1 $153 $31 $-1 $154 forward single #
loop $-1 $155 $156 $61 #
cone-surface $-1 30.616100360329952 -15.63750271823209 -0.64575687639406532 0 0.6018150307709319 -0.79863550430605224 0.5 0 0 1 I I -0.70710678118654746 0.70710678118654746 0.5 forward I I I I #
loop $-1 $-1 $157 $39 #
coedge $-1 $98 $98 $158 $159 reversed $62 $-1 #
face $-1 $160 $161 $24 $-1 $162 reversed single #
loop $-1 $-1 $163 $64 #
plane-surface $-1 0 -21.313092549816009 0 0 1 0 0 0 1 forward_v I I I I #
coedge $-1 $164 $165 $166 $167 forward $65 $-1 #
coedge $-1 $168 $67 $169 $170 forward $41 $-1 #
coedge $-1 $67 $168 $171 $172 forward $41 $-1 #
coedge $-1 $173 $174 $67 $106 reversed $175 $-1 #
edge $-1 $176 -21.313092549816009 $177 21.313092549816009 $105 $178 forward 7 unknown #
face $-1 $179 $180 $25 $-1 $181 reversed single #
loop $-1 $-1 $182 $68 #
plane-surface $-1 0 0 5.0856901159246011 0 0 1 1 0 0 forward_v I I I I #
coedge $-1 $183 $184 $185 $186 reversed $69 $-1 #
coedge $-1 $187 $71 $188 $189 reversed $44 $-1 #
coedge $-1 $71 $187 $190 $191 reversed $44 $-1 #
coedge $-1 $184 $183 $71 $114 reversed $69 $-1 #
edge $-1 $192 -5.0856901159246011 $193 5.0856901159246011 $113 $194 forward 7 unknown #
face $-1 $195 $196 $26 $-1 $197 reversed single #
loop $-1 $-1 $198 $72 #
plane-surface $-1 0 0 5.0856901159246011 0 0 1 1 0 0 forward_v I I I I #
coedge $-1 $199 $200 $201 $202 reversed $73 $-1 #
coedge $-1 $203 $75 $204 $205 reversed $47 $-1 #
coedge $-1 $75 $203 $206 $207 reversed $47 $-1 #
coedge $-1 $200 $199 $75 $122 reversed $73 $-1 #
edge $-1 $208 -5.0856901159246011 $209 5.0856901159246011 $121 $210 forward 7 unknown #
face $-1 $211 $212 $27 $-1 $213 reversed single #
loop $-1 $-1 $214 $76 #
plane-surface $-1 25.830904443985098 69.358617754507193 90.881815402713414 -1 0 0 0 0.79863551827123203 0.60181501223851219 forward_v I I I I #
coedge $-1 $215 $216 $217 $218 reversed $77 $-1 #
coedge $-1 $128 $79 $219 $220 reversed $50 $-1 #
coedge $-1 $79 $127 $215 $221 reversed $50 $-1 #
coedge $-1 $217 $222 $79 $130 forward $223 $-1 #
edge $-1 $224 13.366216327437588 $225 16.216564263528664 $129 $226 forward 7 unknown #
loop $-1 $-1 $136 $80 #
plane-surface $-1 18.24131452963249 -4.3399855576001158 35.345935968943969 0 0.79863551827123203 0.60181501223851219 1 0 0 forward_v I I I I #
loop $-1 $-1 $227 $52 #
coedge $-1 $134 $134 $135 $228 reversed $81 $-1 #
coedge $-1 $135 $135 $134 $228 forward $83 $-1 #
coedge $-1 $136 $136 $84 $137 forward $131 $-1 #
edge $-1 $229 -3.5466541626726663e-016 $229 6.2831853071796004 $136 $230 forward 7 unknown #
face $-1 $231 $232 $29 $-1 $233 forward single #
loop $-1 $-1 $234 $85 #
plane-surface $-1 24.31673183129277 -76.848973693769167 74.053144518758756 1 0 0 0 0.6018150307709319 -0.79863550430605224 forward_v I I I I #
coedge $-1 $235 $236 $237 $238 reversed $86 $-1 #
coedge $-1 $143 $88 $239 $240 reversed $56 $-1 #
coedge $-1 $88 $142 $235 $241 reversed $56 $-1 #
coedge $-1 $237 $242 $88 $145 forward $232 $-1 #
edge $-1 $243 17.111394297068575 $244 23.389839122632189 $144 $245 forward 7 unknown #
loop $-1 $-1 $151 $89 #
plane-surface $-1 28.726289801618805 -21.31309254981602 0.35454249536728355 0 -0.6018150307709319 0.79863550430605224 1 0 0 forward_v I I I I #
loop $-1 $-1 $246 $58 #
coedge $-1 $149 $149 $150 $247 reversed $90 $-1 #
coedge $-1 $150 $150 $149 $247 forward $92 $-1 #
coedge $-1 $151 $151 $93 $152 forward $146 $-1 #
edge $-1 $248 3.104582842014802e-015 $248 6.2831853071796031 $151 $249 forward 7 unknown #
loop $-1 $-1 $158 $94 #
plane-surface $-1 28.726289801618805 -21.31309254981602 0.35454249536728355 0 -0.6018150307709319 0.79863550430605224 1 0 0 forward_v I I I I #
loop $-1 $-1 $250 $61 #
coedge $-1 $156 $156 $157 $251 reversed $95 $-1 #
coedge $-1 $157 $157 $156 $251 forward $97 $-1 #
coedge $-1 $158 $158 $98 $159 forward $153 $-1 #
edge $-1 $252 3.104582842014802e-015 $252 6.2831853071796031 $158 $253 forward 7 unknown #
face $-1 $254 $255 $24 $-1 $256 reversed single #
loop $-1 $-1 $257 $99 #
plane-surface $-1 -46.140324106570631 0 0 1 0 0 0 0 -1 forward_v I I I I #
coedge $-1 $258 $171 $259 $260 forward $100 $-1 #
coedge $-1 $261 $102 $258 $262 forward $65 $-1 #
coedge $-1 $102 $261 $263 $264 forward $65 $-1 #
coedge $-1 $174 $173 $102 $167 reversed $175 $-1 #
edge $-1 $265 -21.313092549816009 $266 21.313092549816009 $166 $267 forward 7 unknown #
coedge $-1 $104 $103 $268 $269 forward $41 $-1 #
coedge $-1 $270 $271 $103 $170 reversed $255 $-1 #
edge $-1 $177 -46.140324106570631 $272 46.140324106570631 $169 $273 forward 7 unknown #
coedge $-1 $163 $274 $104 $172 reversed $100 $-1 #
edge $-1 $275 -46.140324106570631 $176 46.140324106570631 $171 $276 forward 7 unknown #
coedge $-1 $166 $105 $274 $277 forward $175 $-1 #
coedge $-1 $105 $166 $270 $278 reversed $175 $-1 #
loop $-1 $-1 $173 $254 #
vertex $-1 $106 $279 #
vertex $-1 $106 $280 #
straight-curve $-1 46.140324106570631 0 5.0856901159246011 0 1 0 I I #
face $-1 $281 $282 $25 $-1 $283 reversed single #
loop $-1 $-1 $284 $107 #
plane-surface $-1 -46.140324106570631 0 0 1 0 0 0 0 -1 forward_v I I I I #
coedge $-1 $190 $285 $184 $286 forward $108 $-1 #
coedge $-1 $113 $110 $287 $288 reversed $69 $-1 #
coedge $-1 $110 $113 $182 $286 reversed $69 $-1 #
coedge $-1 $289 $290 $110 $186 forward $291 $-1 #
edge $-1 $292 -5.0856901159246011 $293 5.0856901159246011 $185 $294 forward 7 unknown #
coedge $-1 $112 $111 $284 $295 reversed $44 $-1 #
coedge $-1 $287 $296 $111 $189 forward $282 $-1 #
edge $-1 $297 -24.598318265284576 $193 -18.485693417287536 $188 $298 forward 7 unknown #
coedge $-1 $299 $182 $112 $191 forward $108 $-1 #
edge $-1 $192 18.485693417287536 $300 24.598318265284576 $190 $301 forward 7 unknown #
vertex $-1 $191 $302 #
vertex $-1 $189 $303 #
straight-curve $-1 -40.027699258573591 -18.313092549816009 0 0 0 -1 I I #
face $-1 $304 $305 $26 $-1 $306 reversed single #
loop $-1 $-1 $307 $115 #
plane-surface $-1 0 -21.313092549816009 0 0 1 0 0 0 1 forward_v I I I I #
coedge $-1 $206 $308 $200 $309 forward $116 $-1 #
coedge $-1 $121 $118 $310 $311 reversed $73 $-1 #
coedge $-1 $118 $121 $198 $309 reversed $73 $-1 #
coedge $-1 $312 $313 $118 $202 forward $314 $-1 #
edge $-1 $315 -5.0856901159246011 $316 5.0856901159246011 $201 $317 forward 7 unknown #
coedge $-1 $120 $119 $307 $318 reversed $47 $-1 #
coedge $-1 $310 $319 $119 $205 forward $305 $-1 #
edge $-1 $320 -11.406546274908004 $209 -8.4065462749080044 $204 $321 forward 7 unknown #
coedge $-1 $322 $198 $120 $207 forward $116 $-1 #
edge $-1 $208 8.4065462749080044 $323 11.406546274908004 $206 $324 forward 7 unknown #
vertex $-1 $207 $325 #
vertex $-1 $205 $326 #
straight-curve $-1 40.027699258573591 -18.313092549816009 0 0 0 -1 I I #
face $-1 $-1 $223 $27 $-1 $327 forward single #
loop $-1 $-1 $328 $123 #
plane-surface $-1 0 21.313092549816009 0 0 -1 0 0 0 -1 forward_v I I I I #
coedge $-1 $329 $330 $331 $332 reversed $124 $-1 #
coedge $-1 $333 $126 $128 $221 forward $77 $-1 #
coedge $-1 $126 $333 $329 $334 forward $77 $-1 #
coedge $-1 $331 $129 $126 $218 forward $223 $-1 #
edge $-1 $225 1.531067350463637 $335 16.710247179168853 $217 $336 forward 7 unknown #
coedge $-1 $337 $338 $127 $220 forward $212 $-1 #
edge $-1 $339 -44.137757161382815 $224 -40.355217585432108 $219 $340 forward 7 unknown #
edge $-1 $225 37.889932466968503 $339 42.626185099632011 $128 $341 forward 7 unknown #
coedge $-1 $129 $331 $337 $342 forward $223 $-1 #
loop $-1 $-1 $331 $211 #
vertex $-1 $220 $343 #
vertex $-1 $130 $344 #
straight-curve $-1 10.651724615279882 34.679308877253597 5.0856901159245993 0 -1 0 I I #
coedge $-1 $227 $227 $-1 $345 reversed $133 $-1 #
edge $-1 $346 0 $346 6.2831853071796004 $134 $347 forward 7 unknown #
vertex $-1 $137 $348 #
ellipse-curve $-1 18.241314529632476 19.887918581770471 3.194420327949242 0 0.79863551827123203 0.60181501223851219 1 0 0 1 I I #
face $-1 $-1 $349 $29 $-1 $350 reversed single #
loop $-1 $-1 $144 $138 #
plane-surface $-1 0 0 5.0856901159246011 0 0 1 1 0 0 forward_v I I I I #
coedge $-1 $351 $352 $353 $354 reversed $139 $-1 #
coedge $-1 $355 $141 $143 $241 forward $86 $-1 #
coedge $-1 $141 $355 $351 $356 forward $86 $-1 #
coedge $-1 $353 $144 $141 $238 forward $232 $-1 #
edge $-1 $244 -18.772702871135436 $357 -9.9535869304833682 $237 $358 forward 7 unknown #
coedge $-1 $359 $360 $142 $240 forward $349 $-1 #
edge $-1 $361 -36.672029764012088 $243 -31.940882143454779 $239 $362 forward 7 unknown #
edge $-1 $244 -7.8614647003692548 $361 -1.3356049393595091e-014 $143 $363 forward 7 unknown #
coedge $-1 $144 $353 $359 $364 forward $232 $-1 #
vertex $-1 $240 $365 #
vertex $-1 $145 $366 #
straight-curve $-1 33.135847771944839 -38.424486846884584 5.0856901159245993 0 1 0 I I #
coedge $-1 $246 $246 $-1 $367 reversed $148 $-1 #
edge $-1 $368 0 $368 6.2831853071796004 $149 $369 forward 7 unknown #
vertex $-1 $152 $370 #
ellipse-curve $-1 26.836479242907643 -18.173870137034204 2.7201163056459454 0 -0.6018150307709319 0.79863550430605224 1 0 0 1 I I #
coedge $-1 $250 $250 $-1 $371 reversed $155 $-1 #
edge $-1 $372 0 $372 6.2831853071796004 $156 $373 forward 7 unknown #
vertex $-1 $159 $374 #
ellipse-curve $-1 30.616100360329952 -18.173870137034204 2.7201163056459454 0 -0.6018150307709319 0.79863550430605224 1 0 0 1 I I #
face $-1 $-1 $175 $24 $-1 $375 reversed single #
loop $-1 $-1 $270 $160 #
plane-surface $-1 0 21.313092549816009 0 0 -1 0 0 0 -1 forward_v I I I I #
coedge $-1 $376 $268 $271 $377 forward $161 $-1 #
coedge $-1 $274 $163 $164 $262 reversed $100 $-1 #
coedge $-1 $268 $376 $163 $260 reversed $161 $-1 #
edge $-1 $275 -5.0856901159246011 $378 5.0856901159246011 $259 $379 forward 7 unknown #
coedge $-1 $165 $164 $376 $380 forward $65 $-1 #
edge $-1 $266 -46.140324106570631 $378 46.140324106570631 $258 $381 forward 7 unknown #
coedge $-1 $271 $270 $165 $264 reversed $255 $-1 #
edge $-1 $382 -46.140324106570631 $265 46.140324106570631 $263 $383 forward 7 unknown #
vertex $-1 $167 $384 #
vertex $-1 $277 $385 #
straight-curve $-1 46.140324106570631 0 -5.0856901159246011 0 -1 0 I I #
coedge $-1 $257 $259 $168 $269 reversed $161 $-1 #
edge $-1 $272 -21.313092549816009 $275 21.313092549816009 $268 $386 forward 7 unknown #
coedge $-1 $263 $169 $174 $278 forward $255 $-1 #
coedge $-1 $169 $263 $257 $377 reversed $255 $-1 #
vertex $-1 $170 $387 #
straight-curve $-1 0 21.313092549816009 5.0856901159246011 -1 0 0 I I #
coedge $-1 $171 $258 $173 $277 reversed $100 $-1 #
vertex $-1 $269 $388 #
straight-curve $-1 0 -21.313092549816009 5.0856901159246011 1 0 0 I I #
edge $-1 $176 -5.0856901159246011 $266 5.0856901159246011 $173 $389 forward 7 unknown #
edge $-1 $177 -5.0856901159246011 $265 5.0856901159246011 $174 $390 forward 7 unknown #
point $-1 46.140324106570631 -21.313092549816009 5.0856901159246011 #
point $-1 46.140324106570631 21.313092549816009 5.0856901159246011 #
face $-1 $-1 $291 $25 $-1 $391 reversed single #
loop $-1 $-1 $287 $179 #
plane-surface $-1 0 0 -5.0856901159246011 0 0 1 1 0 0 forward_v I I I I #
coedge $-1 $392 $393 $187 $295 forward $180 $-1 #
coedge $-1 $182 $299 $289 $394 forward $108 $-1 #
edge $-1 $293 -11.406546274908004 $192 -8.4065462749080044 $182 $395 forward 7 unknown #
coedge $-1 $396 $188 $183 $288 forward $282 $-1 #
edge $-1 $193 8.4065462749080044 $292 11.406546274908004 $287 $397 forward 7 unknown #
coedge $-1 $398 $185 $285 $394 reversed $291 $-1 #
coedge $-1 $185 $398 $396 $399 reversed $291 $-1 #
loop $-1 $-1 $185 $281 #
vertex $-1 $399 $400 #
vertex $-1 $186 $401 #
straight-curve $-1 -40.027699258573591 -21.313092549816009 0 0 0 1 I I #
edge $-1 $300 -5.0856901159246011 $297 5.0856901159246011 $284 $402 forward 7 unknown #
coedge $-1 $188 $396 $392 $403 forward $282 $-1 #
vertex $-1 $189 $404 #
straight-curve $-1 -21.542005841286056 -18.313092549816009 -5.0856901159246011 1 0 0 I I #
coedge $-1 $285 $190 $393 $405 forward $108 $-1 #
vertex $-1 $405 $406 #
straight-curve $-1 -21.542005841286056 -18.313092549816009 5.0856901159246011 -1 0 0 I I #
point $-1 -40.027699258573591 -18.313092549816009 5.0856901159246011 #
point $-1 -40.027699258573591 -18.313092549816009 -5.0856901159246011 #
face $-1 $-1 $314 $26 $-1 $407 reversed single #
loop $-1 $-1 $310 $195 #
plane-surface $-1 0 0 -5.0856901159246011 0 0 1 1 0 0 forward_v I I I I #
coedge $-1 $408 $409 $203 $318 forward $196 $-1 #
coedge $-1 $198 $322 $312 $410 forward $116 $-1 #
edge $-1 $316 -24.598318265284576 $208 -18.485693417287536 $198 $411 forward 7 unknown #
coedge $-1 $412 $204 $199 $311 forward $305 $-1 #
edge $-1 $209 18.485693417287536 $315 24.598318265284576 $310 $413 forward 7 unknown #
coedge $-1 $414 $201 $308 $410 reversed $314 $-1 #
coedge $-1 $201 $414 $412 $415 reversed $314 $-1 #
loop $-1 $-1 $201 $304 #
vertex $-1 $415 $416 #
vertex $-1 $202 $417 #
straight-curve $-1 46.140324106570631 -18.313092549816009 0 0 0 1 I I #
edge $-1 $323 -5.0856901159246011 $320 5.0856901159246011 $307 $418 forward 7 unknown #
coedge $-1 $204 $412 $408 $419 forward $305 $-1 #
vertex $-1 $205 $420 #
straight-curve $-1 40.027699258573591 -9.9065462749080044 -5.0856901159246011 0 1 0 I I #
coedge $-1 $308 $206 $409 $421 forward $116 $-1 #
vertex $-1 $421 $422 #
straight-curve $-1 40.027699258573591 -9.9065462749080044 5.0856901159246011 0 -1 0 I I #
point $-1 40.027699258573591 -18.313092549816009 5.0856901159246011 #
point $-1 40.027699258573591 -18.313092549816009 -5.0856901159246011 #
plane-surface $-1 0 0 5.0856901159246011 0 0 1 1 0 0 forward_v I I I I #
coedge $-1 $338 $337 $330 $423 forward $212 $-1 #
coedge $-1 $330 $214 $216 $334 reversed $124 $-1 #
coedge $-1 $214 $329 $328 $423 reversed $124 $-1 #
coedge $-1 $222 $217 $214 $332 forward $223 $-1 #
edge $-1 $335 -16.216564263528664 $424 -13.366216327437588 $331 $425 forward 7 unknown #
coedge $-1 $216 $215 $338 $426 reversed $77 $-1 #
edge $-1 $427 -42.626185099632011 $335 -37.889932466968503 $329 $428 forward 7 unknown #
vertex $-1 $218 $429 #
straight-curve $-1 9.1206572648162449 18.462744613724936 5.0856901159245993 1 0 0 I I #
coedge $-1 $328 $219 $222 $342 reversed $212 $-1 #
coedge $-1 $219 $328 $333 $426 forward $212 $-1 #
vertex $-1 $220 $430 #
straight-curve $-1 10.651724615279882 21.313092549816009 45.440907701356707 0 0 1 I I #
straight-curve $-1 10.651724615279882 -4.3399855576001158 35.345935968943969 0 0.60181501223851219 -0.79863551827123203 I I #
edge $-1 $424 -25.830904443985098 $224 -10.651724615279882 $337 $431 forward 7 unknown #
point $-1 10.651724615279882 21.313092549816009 5.0856901159246011 #
point $-1 10.651724615279882 18.462744613724933 5.0856901159245993 #
edge $-1 $432 1 $432 0 $227 $-1 forward 7 unknown #
vertex $-1 $228 $433 #
ellipse-curve $-1 18.241314529632476 17.219032571875815 1.1832705231111642 0 0.79863551827123203 0.60181501223851219 1 0 0 1 I I #
point $-1 19.241314529632476 19.887918581770471 3.1944203279492425 #
loop $-1 $-1 $239 $231 #
plane-surface $-1 0 -21.313092549816009 0 0 1 0 0 0 1 forward_v I I I I #
coedge $-1 $352 $234 $236 $356 reversed $139 $-1 #
coedge $-1 $234 $351 $434 $435 reversed $139 $-1 #
coedge $-1 $242 $237 $234 $354 forward $232 $-1 #
edge $-1 $357 -23.389839122632189 $436 -17.111394297068575 $353 $437 forward 7 unknown #
coedge $-1 $236 $235 $360 $438 reversed $86 $-1 #
edge $-1 $439 1.3356049393595091e-014 $357 7.8614647003692548 $351 $440 forward 7 unknown #
vertex $-1 $238 $441 #
straight-curve $-1 14.363144900809402 -15.034647724252393 5.0856901159246011 -1 0 0 I I #
coedge $-1 $434 $239 $242 $364 reversed $349 $-1 #
coedge $-1 $239 $434 $355 $438 forward $349 $-1 #
vertex $-1 $240 $442 #
straight-curve $-1 33.135847771944839 -21.313092549816009 37.026572259379378 0 0 1 I I #
straight-curve $-1 33.135847771944839 -21.31309254981602 0.35454249536728355 0 -0.79863550430605224 -0.6018150307709319 I I #
edge $-1 $436 24.31673183129277 $243 33.135847771944839 $359 $443 forward 7 unknown #
point $-1 33.135847771944839 -21.313092549816009 5.0856901159246011 #
point $-1 33.135847771944839 -15.034647724252393 5.0856901159246011 #
edge $-1 $444 1 $444 0 $246 $-1 forward 7 unknown #
vertex $-1 $247 $445 #
ellipse-curve $-1 26.836479242907643 -15.938410233617557 -0.2464391242410392 0 -0.6018150307709319 0.79863550430605224 1 0 0 1 I I #
point $-1 27.836479242907643 -18.1738701370342 2.7201163056459459 #
edge $-1 $446 1 $446 0 $250 $-1 forward 7 unknown #
vertex $-1 $251 $447 #
ellipse-curve $-1 30.616100360329952 -15.938410233617557 -0.2464391242410392 0 -0.6018150307709319 0.79863550430605224 1 0 0 1 I I #
point $-1 31.616100360329952 -18.1738701370342 2.7201163056459459 #
plane-surface $-1 46.140324106570631 0 0 -1 0 0 0 0 1 forward_v I I I I #
coedge $-1 $259 $257 $261 $380 reversed $161 $-1 #
edge $-1 $272 -5.0856901159246011 $382 5.0856901159246011 $271 $448 forward 7 unknown #
vertex $-1 $380 $449 #
straight-curve $-1 -46.140324106570631 -21.313092549816009 0 0 0 -1 I I #
edge $-1 $378 -21.313092549816009 $382 21.313092549816009 $376 $450 forward 7 unknown #
straight-curve $-1 0 -21.313092549816009 -5.0856901159246011 -1 0 0 I I #
vertex $-1 $264 $451 #
straight-curve $-1 0 21.313092549816009 -5.0856901159246011 1 0 0 I I #
point $-1 46.140324106570631 21.313092549816009 -5.0856901159246011 #
point $-1 46.140324106570631 -21.313092549816009 -5.0856901159246011 #
straight-curve $-1 -46.140324106570631 0 5.0856901159246011 0 -1 0 I I #
point $-1 -46.140324106570631 21.313092549816009 5.0856901159246011 #
point $-1 -46.140324106570631 -21.313092549816009 5.0856901159246011 #
straight-curve $-1 46.140324106570631 -21.313092549816009 0 0 0 -1 I I #
straight-curve $-1 46.140324106570631 21.313092549816009 0 0 0 -1 I I #
plane-surface $-1 0 -21.313092549816009 0 0 1 0 0 0 1 forward_v I I I I #
coedge $-1 $452 $284 $296 $403 reversed $180 $-1 #
coedge $-1 $284 $452 $299 $405 reversed $180 $-1 #
edge $-1 $453 -46.140324106570631 $293 -40.027699258573591 $289 $454 forward 7 unknown #
straight-curve $-1 -40.027699258573591 -9.9065462749080044 5.0856901159246011 0 1 0 I I #
coedge $-1 $296 $287 $290 $399 forward $282 $-1 #
straight-curve $-1 -40.027699258573591 -9.9065462749080044 -5.0856901159246011 0 -1 0 I I #
coedge $-1 $290 $289 $452 $455 forward $291 $-1 #
edge $-1 $292 40.027699258573591 $456 46.140324106570631 $290 $457 forward 7 unknown #
point $-1 -40.027699258573591 -21.313092549816009 -5.0856901159246011 #
point $-1 -40.027699258573591 -21.313092549816009 5.0856901159246011 #
straight-curve $-1 -46.140324106570631 -18.313092549816009 0 0 0 -1 I I #
edge $-1 $456 -21.313092549816009 $297 -18.313092549816009 $392 $458 forward 7 unknown #
point $-1 -46.140324106570631 -18.313092549816009 -5.0856901159246011 #
edge $-1 $300 18.313092549816009 $453 21.313092549816009 $393 $459 forward 7 unknown #
point $-1 -46.140324106570631 -18.313092549816009 5.0856901159246011 #
plane-surface $-1 46.140324106570631 0 0 -1 0 0 0 0 1 forward_v I I I I #
coedge $-1 $460 $307 $319 $419 reversed $196 $-1 #
coedge $-1 $307 $460 $322 $421 reversed $196 $-1 #
edge $-1 $461 -21.313092549816009 $316 -18.313092549816009 $312 $462 forward 7 unknown #
straight-curve $-1 21.542005841286056 -18.313092549816009 5.0856901159246011 -1 0 0 I I #
coedge $-1 $319 $310 $313 $415 forward $305 $-1 #
straight-curve $-1 21.542005841286056 -18.313092549816009 -5.0856901159246011 1 0 0 I I #
coedge $-1 $313 $312 $460 $463 forward $314 $-1 #
edge $-1 $315 18.313092549816009 $464 21.313092549816009 $313 $465 forward 7 unknown #
point $-1 46.140324106570631 -18.313092549816009 -5.0856901159246011 #
point $-1 46.140324106570631 -18.313092549816009 5.0856901159246011 #
straight-curve $-1 40.027699258573591 -21.313092549816009 0 0 0 -1 I I #
edge $-1 $464 -46.140324106570631 $320 -40.027699258573591 $408 $466 forward 7 unknown #
point $-1 40.027699258573591 -21.313092549816009 -5.0856901159246011 #
edge $-1 $323 40.027699258573591 $461 46.140324106570631 $409 $467 forward 7 unknown #
point $-1 40.027699258573591 -21.313092549816009 5.0856901159246011 #
edge $-1 $424 40.355217585432108 $427 44.137757161382815 $328 $468 forward 7 unknown #
vertex $-1 $342 $469 #
straight-curve $-1 25.830904443985098 34.679308877253597 5.0856901159245993 0 1 0 I I #
edge $-1 $427 -16.710247179168853 $339 -1.531067350463637 $338 $470 forward 7 unknown #
vertex $-1 $426 $471 #
straight-curve $-1 25.830904443985098 -4.3399855576001158 35.345935968943969 0 -0.60181501223851219 0.79863551827123203 I I #
point $-1 25.830904443985098 18.462744613724933 5.0856901159245993 #
point $-1 10.651724615279882 21.313092549816009 1.3031505399738919 #
straight-curve $-1 0 21.313092549816009 5.0856901159246011 -1 0 0 I I #
vertex $-1 $345 $472 #
point $-1 19.241314529632476 17.219032571875815 1.1832705231111642 #
coedge $-1 $360 $359 $352 $435 forward $349 $-1 #
edge $-1 $436 31.940882143454779 $439 36.672029764012088 $434 $473 forward 7 unknown #
vertex $-1 $364 $474 #
straight-curve $-1 24.31673183129277 -38.424486846884584 5.0856901159245993 0 -1 0 I I #
edge $-1 $439 9.9535869304833682 $361 18.772702871135436 $360 $475 forward 7 unknown #
vertex $-1 $438 $476 #
straight-curve $-1 24.31673183129277 -21.31309254981602 0.35454249536728355 0 0.79863550430605224 0.6018150307709319 I I #
point $-1 24.31673183129277 -15.034647724252393 5.0856901159246011 #
point $-1 33.135847771944839 -21.313092549816009 0.3545424953672916 #
straight-curve $-1 0 -21.313092549816009 5.0856901159246011 1 0 0 I I #
vertex $-1 $367 $477 #
point $-1 27.836479242907643 -15.938410233617557 -0.2464391242410392 #
vertex $-1 $371 $478 #
point $-1 31.616100360329952 -15.938410233617557 -0.2464391242410392 #
straight-curve $-1 -46.140324106570631 21.313092549816009 0 0 0 -1 I I #
point $-1 -46.140324106570631 -21.313092549816009 -5.0856901159246011 #
straight-curve $-1 -46.140324106570631 0 -5.0856901159246011 0 1 0 I I #
point $-1 -46.140324106570631 21.313092549816009 -5.0856901159246011 #
coedge $-1 $393 $392 $398 $455 reversed $180 $-1 #
vertex $-1 $405 $479 #
straight-curve $-1 0 -21.313092549816009 5.0856901159246011 1 0 0 I I #
edge $-1 $453 -5.0856901159246011 $456 5.0856901159246011 $452 $480 forward 7 unknown #
vertex $-1 $403 $481 #
straight-curve $-1 0 -21.313092549816009 -5.0856901159246011 -1 0 0 I I #
straight-curve $-1 -46.140324106570631 0 -5.0856901159246011 0 1 0 I I #
straight-curve $-1 -46.140324106570631 0 5.0856901159246011 0 -1 0 I I #
coedge $-1 $409 $408 $414 $463 reversed $196 $-1 #
vertex $-1 $410 $482 #
straight-curve $-1 46.140324106570631 0 5.0856901159246011 0 1 0 I I #
edge $-1 $461 -5.0856901159246011 $464 5.0856901159246011 $414 $483 forward 7 unknown #
vertex $-1 $463 $484 #
straight-curve $-1 46.140324106570631 0 -5.0856901159246011 0 -1 0 I I #
straight-curve $-1 0 -21.313092549816009 -5.0856901159246011 -1 0 0 I I #
straight-curve $-1 0 -21.313092549816009 5.0856901159246011 1 0 0 I I #
straight-curve $-1 25.830904443985098 21.313092549816009 45.440907701356707 0 0 -1 I I #
point $-1 25.830904443985098 21.313092549816009 5.0856901159246011 #
straight-curve $-1 9.1206572648162449 21.313092549816009 1.3031505399738919 -1 0 0 I I #
point $-1 25.830904443985098 21.313092549816009 1.3031505399738919 #
point $-1 18.241314529632476 16.420397053604582 0.58145551087265201 #
straight-curve $-1 24.31673183129277 -21.313092549816009 37.026572259379378 0 0 -1 I I #
point $-1 24.31673183129277 -21.313092549816009 5.0856901159246011 #
straight-curve $-1 14.363144900809402 -21.313092549816009 0.35454249536729143 1 0 0 I I #
point $-1 24.31673183129277 -21.313092549816009 0.3545424953672916 #
point $-1 26.836479242907643 -15.336595202846624 -1.0450746285470913 #
point $-1 30.616100360329952 -15.336595202846624 -1.0450746285470913 #
point $-1 -46.140324106570631 -21.313092549816009 5.0856901159246011 #
straight-curve $-1 -46.140324106570631 -21.313092549816009 0 0 0 -1 I I #
point $-1 -46.140324106570631 -21.313092549816009 -5.0856901159246011 #
point $-1 46.140324106570631 -21.313092549816009 5.0856901159246011 #
straight-curve $-1 46.140324106570631 -21.313092549816009 0 0 0 -1 I I #
point $-1 46.140324106570631 -21.313092549816009 -5.0856901159246011 #
End-of-ACIS-data 