500 0 5 0           
7 Unknown 11 ACIS 5.0 NT 24 Fri Mar 26 20:46:45 1999 
-1 9.9999999999999995e-007 1e-010 
body $-1 $5 $-1 $6 #
body $-1 $7 $-1 $8 #
body $-1 $9 $-1 $10 #
body $-1 $11 $-1 $12 #
body $-1 $13 $-1 $14 #
lump $-1 $-1 $15 $0 #
transform $-1 1 0 0 0 1 0 0 0 1 69.613940855128646 31.051467535947424 15.072285871738146 1 rotate no_reflect no_shear #
lump $-1 $-1 $16 $1 #
transform $-1 1 0 0 0 1 0 0 0 1 69.613940855128646 31.051467535947424 15.072285871738146 1 rotate no_reflect no_shear #
lump $-1 $-1 $17 $2 #
transform $-1 1 0 0 0 1 0 0 0 1 69.613940855128646 31.051467535947424 15.072285871738146 1 rotate no_reflect no_shear #
lump $-1 $-1 $18 $3 #
transform $-1 1 0 0 0 1 0 0 0 1 69.613940855128646 31.051467535947424 15.072285871738146 1 rotate no_reflect no_shear #
lump $-1 $-1 $19 $4 #
transform $-1 1 0 0 0 1 0 0 0 1 69.613940855128646 31.051467535947424 15.072285871738146 1 rotate no_reflect no_shear #
shell $-1 $-1 $-1 $20 $-1 $5 #
shell $-1 $-1 $-1 $21 $-1 $7 #
shell $-1 $-1 $-1 $22 $-1 $9 #
shell $-1 $-1 $-1 $23 $-1 $11 #
shell $-1 $-1 $-1 $24 $-1 $13 #
face $-1 $25 $26 $15 $-1 $27 forward single #
face $-1 $28 $29 $16 $-1 $30 reversed single #
face $-1 $31 $32 $17 $-1 $33 forward single #
face $-1 $34 $35 $18 $-1 $36 reversed single #
face $-1 $37 $38 $19 $-1 $39 forward single #
face $-1 $40 $41 $15 $-1 $42 reversed single #
loop $-1 $-1 $43 $20 #
plane-surface $-1 0 0 15.072285871738146 0 0 1 1 0 0 forward_v I I I I #
face $-1 $44 $45 $16 $-1 $46 reversed single #
loop $-1 $-1 $47 $21 #
plane-surface $-1 0 -23.472513917193659 8.5205540505303716 0 0 1 1 0 0 forward_v I I I I #
face $-1 $48 $49 $17 $-1 $50 reversed single #
loop $-1 $-1 $51 $22 #
plane-surface $-1 0 23.006200842291065 -9.9076808938426559 0 0 1 1 0 0 forward_v I I I I #
face $-1 $52 $53 $18 $-1 $54 reversed single #
loop $-1 $-1 $55 $23 #
plane-surface $-1 -157.23288690608211 14.960934148634696 113.60227895216143 0 -1 0 0.62932039886446345 0 -0.77714595512881146 forward_v I I I I #
face $-1 $56 $57 $19 $-1 $58 forward single #
loop $-1 $59 $60 $24 #
cone-surface $-1 -61.756479222864257 11.36848685123578 7.9074663666427902 0.62932039886446345 0 -0.77714595512881146 1.1657189326932171 0 0.94398059829669512 1 I I 0 1 1.5 forward I I I I #
face $-1 $61 $62 $15 $-1 $63 reversed single #
loop $-1 $-1 $64 $25 #
plane-surface $-1 0 0 -15.072285871738146 0 0 1 1 0 0 forward_v I I I I #
coedge $-1 $65 $66 $67 $68 forward $26 $-1 #
face $-1 $69 $70 $16 $-1 $71 reversed single #
loop $-1 $-1 $72 $28 #
plane-surface $-1 0 -15.893560298439894 11.796419961134259 0 -1 0 0 0 -1 forward_v I I I I #
coedge $-1 $73 $74 $75 $76 reversed $29 $-1 #
face $-1 $77 $78 $17 $-1 $79 reversed single #
loop $-1 $-1 $80 $31 #
plane-surface $-1 0 14.960934148634706 -12.489983382790401 0 1 0 0 0 1 forward_v I I I I #
coedge $-1 $81 $82 $83 $84 reversed $32 $-1 #
face $-1 $85 $86 $18 $-1 $87 reversed single #
loop $-1 $-1 $88 $34 #
plane-surface $-1 -69.613940855128661 11.368486851235772 5.4018938398823479 -0.62932039886446345 0 0.77714595512881146 0.77714595512881146 0 0.62932039886446345 forward_v I I I I #
coedge $-1 $89 $90 $91 $92 reversed $35 $-1 #
face $-1 $-1 $93 $19 $-1 $94 forward single #
loop $-1 $95 $96 $37 #
cone-surface $-1 -59.397996980045065 11.36848685123578 4.9949834111287288 0.62932039886446345 0 -0.77714595512881146 0.58285946634660857 0 0.47199029914834756 1 I I -0.70710678118654757 0.70710678118654757 0.75 forward I I I I #
loop $-1 $-1 $97 $24 #
coedge $-1 $60 $60 $98 $99 reversed $38 $-1 #
face $-1 $100 $101 $15 $-1 $102 reversed single #
loop $-1 $-1 $103 $40 #
plane-surface $-1 0 -31.051467535947424 0 0 1 0 0 0 1 forward_v I I I I #
coedge $-1 $104 $105 $106 $107 forward $41 $-1 #
coedge $-1 $108 $43 $109 $110 forward $26 $-1 #
coedge $-1 $43 $108 $111 $112 forward $26 $-1 #
coedge $-1 $113 $114 $43 $68 reversed $115 $-1 #
edge $-1 $116 -31.051467535947424 $117 31.051467535947424 $67 $118 forward 7 unknown #
face $-1 $119 $120 $16 $-1 $121 reversed single #
loop $-1 $-1 $122 $44 #
plane-surface $-1 -69.613940855128646 0 0 1 0 0 0 0 -1 forward_v I I I I #
coedge $-1 $123 $124 $125 $126 reversed $45 $-1 #
coedge $-1 $127 $47 $128 $129 reversed $29 $-1 #
coedge $-1 $47 $127 $123 $130 forward $29 $-1 #
coedge $-1 $125 $131 $47 $76 forward $132 $-1 #
edge $-1 $133 -19.315210577350594 $134 -4.1573033398430645 $75 $135 forward 7 unknown #
face $-1 $136 $137 $17 $-1 $138 reversed single #
loop $-1 $-1 $83 $48 #
plane-surface $-1 69.613940855128646 0 0 -1 0 0 0 0 1 forward_v I I I I #
coedge $-1 $139 $140 $141 $142 reversed $49 $-1 #
coedge $-1 $143 $51 $144 $145 reversed $32 $-1 #
coedge $-1 $51 $143 $140 $146 forward $32 $-1 #
coedge $-1 $147 $148 $51 $84 forward $78 $-1 #
edge $-1 $149 -19.548367114801891 $150 -3.4578337274891737 $83 $151 forward 7 unknown #
face $-1 $152 $153 $18 $-1 $154 reversed single #
loop $-1 $-1 $155 $52 #
plane-surface $-1 -157.23288690608211 7.7760395538368492 113.60227895216143 0 1 0 -0.62932039886446345 0 0.77714595512881146 forward_v I I I I #
coedge $-1 $156 $157 $158 $159 reversed $53 $-1 #
coedge $-1 $90 $55 $160 $161 reversed $35 $-1 #
coedge $-1 $55 $89 $156 $162 reversed $35 $-1 #
coedge $-1 $158 $163 $55 $92 forward $153 $-1 #
edge $-1 $164 41.728853604342568 $165 51.399245636198351 $91 $166 forward 7 unknown #
loop $-1 $-1 $98 $56 #
plane-surface $-1 -69.613940855128661 11.368486851235772 5.4018938398823479 -0.62932039886446345 0 0.77714595512881146 0.77714595512881146 0 0.62932039886446345 forward_v I I I I #
loop $-1 $-1 $167 $37 #
coedge $-1 $96 $96 $97 $168 reversed $57 $-1 #
coedge $-1 $97 $97 $96 $168 forward $59 $-1 #
coedge $-1 $98 $98 $60 $99 forward $93 $-1 #
edge $-1 $169 0 $169 6.2831853071796004 $98 $170 forward 7 unknown #
face $-1 $171 $172 $15 $-1 $173 reversed single #
loop $-1 $-1 $174 $61 #
plane-surface $-1 -69.613940855128646 0 0 1 0 0 0 0 -1 forward_v I I I I #
coedge $-1 $175 $111 $176 $177 forward $62 $-1 #
coedge $-1 $178 $64 $175 $179 forward $41 $-1 #
coedge $-1 $64 $178 $180 $181 forward $41 $-1 #
coedge $-1 $114 $113 $64 $107 reversed $115 $-1 #
edge $-1 $182 -31.051467535947424 $183 31.051467535947424 $106 $184 forward 7 unknown #
coedge $-1 $66 $65 $185 $186 forward $26 $-1 #
coedge $-1 $187 $188 $65 $110 reversed $172 $-1 #
edge $-1 $117 -69.613940855128646 $189 69.613940855128646 $109 $190 forward 7 unknown #
coedge $-1 $103 $191 $66 $112 reversed $62 $-1 #
edge $-1 $192 -69.613940855128646 $116 69.613940855128646 $111 $193 forward 7 unknown #
coedge $-1 $106 $67 $191 $194 forward $115 $-1 #
coedge $-1 $67 $106 $187 $195 reversed $115 $-1 #
loop $-1 $-1 $113 $171 #
vertex $-1 $68 $196 #
vertex $-1 $68 $197 #
straight-curve $-1 69.613940855128646 0 15.072285871738146 0 1 0 I I #
face $-1 $198 $199 $16 $-1 $200 forward single #
loop $-1 $-1 $128 $69 #
plane-surface $-1 0 -31.051467535947424 0 0 1 0 0 0 1 forward_v I I I I #
coedge $-1 $201 $202 $203 $204 forward $70 $-1 #
coedge $-1 $203 $72 $74 $130 reversed $45 $-1 #
coedge $-1 $72 $203 $205 $206 reversed $45 $-1 #
coedge $-1 $207 $75 $72 $126 forward $132 $-1 #
edge $-1 $134 2.6223440699632423 $208 9.1740758911710163 $125 $209 forward 7 unknown #
coedge $-1 $74 $73 $201 $210 reversed $29 $-1 #
coedge $-1 $211 $212 $73 $129 forward $120 $-1 #
edge $-1 $213 -69.613940855128646 $133 69.613940855128646 $128 $214 forward 7 unknown #
edge $-1 $215 -69.613940855128646 $134 69.613940855128646 $123 $216 forward 7 unknown #
coedge $-1 $75 $207 $211 $217 forward $132 $-1 #
loop $-1 $-1 $125 $198 #
vertex $-1 $129 $218 #
vertex $-1 $76 $219 #
straight-curve $-1 69.613940855128646 -11.736256958596829 8.5205540505303716 0 1 0 I I #
face $-1 $220 $221 $17 $-1 $222 reversed single #
loop $-1 $-1 $223 $77 #
plane-surface $-1 0 0 -15.072285871738146 0 0 1 1 0 0 forward_v I I I I #
coedge $-1 $224 $80 $223 $225 reversed $49 $-1 #
coedge $-1 $80 $224 $82 $146 reversed $49 $-1 #
coedge $-1 $226 $227 $80 $142 forward $221 $-1 #
edge $-1 $228 -8.8272941803429461 $229 -3.6626892024474555 $141 $230 forward 7 unknown #
coedge $-1 $82 $81 $226 $231 reversed $32 $-1 #
coedge $-1 $232 $233 $81 $145 forward $234 $-1 #
edge $-1 $235 -69.613940855128646 $149 69.613940855128646 $144 $236 forward 7 unknown #
edge $-1 $229 -69.613940855128646 $150 69.613940855128646 $140 $237 forward 7 unknown #
coedge $-1 $238 $83 $224 $239 forward $78 $-1 #
coedge $-1 $83 $238 $232 $240 reversed $78 $-1 #
vertex $-1 $240 $241 #
vertex $-1 $84 $242 #
straight-curve $-1 69.613940855128646 11.503100421145533 -9.9076808938426559 0 -1 0 I I #
face $-1 $-1 $243 $18 $-1 $244 forward single #
loop $-1 $-1 $91 $85 #
plane-surface $-1 -69.613940855128646 0 0 1 0 0 0 0 -1 forward_v I I I I #
coedge $-1 $245 $246 $247 $248 reversed $86 $-1 #
coedge $-1 $249 $88 $90 $162 forward $53 $-1 #
coedge $-1 $88 $249 $245 $250 forward $53 $-1 #
coedge $-1 $247 $91 $88 $159 forward $153 $-1 #
edge $-1 $165 -9.2766907230168094 $251 -2.091796128218963 $158 $252 forward 7 unknown #
coedge $-1 $253 $254 $89 $161 forward $243 $-1 #
edge $-1 $255 -20.944441975099487 $164 -9.0025025979124109 $160 $256 forward 7 unknown #
edge $-1 $165 1.8310242626372826e-014 $255 15.366404854037645 $90 $257 forward 7 unknown #
coedge $-1 $91 $247 $253 $258 reversed $153 $-1 #
vertex $-1 $258 $259 #
vertex $-1 $92 $260 #
straight-curve $-1 -69.613940855128646 14.960934148634696 56.801139476080714 0 0 -1 I I #
coedge $-1 $167 $167 $-1 $261 reversed $95 $-1 #
edge $-1 $262 0 $262 6.2831853071796004 $96 $263 forward 7 unknown #
vertex $-1 $99 $264 #
ellipse-curve $-1 -63.642971166535105 11.36848685123578 10.237089855810254 -0.62932039886446345 0 0.77714595512881146 1.1657189326932171 0 0.94398059829669512 1 I I #
face $-1 $-1 $115 $15 $-1 $265 reversed single #
loop $-1 $-1 $187 $100 #
plane-surface $-1 0 31.051467535947424 0 0 -1 0 0 0 -1 forward_v I I I I #
coedge $-1 $266 $185 $188 $267 forward $101 $-1 #
coedge $-1 $191 $103 $104 $179 reversed $62 $-1 #
coedge $-1 $185 $266 $103 $177 reversed $101 $-1 #
edge $-1 $192 -15.072285871738146 $268 15.072285871738146 $176 $269 forward 7 unknown #
coedge $-1 $105 $104 $266 $270 forward $41 $-1 #
edge $-1 $183 -69.613940855128646 $268 69.613940855128646 $175 $271 forward 7 unknown #
coedge $-1 $188 $187 $105 $181 reversed $172 $-1 #
edge $-1 $272 -69.613940855128646 $182 69.613940855128646 $180 $273 forward 7 unknown #
vertex $-1 $107 $274 #
vertex $-1 $194 $275 #
straight-curve $-1 69.613940855128646 0 -15.072285871738146 0 -1 0 I I #
coedge $-1 $174 $176 $108 $186 reversed $101 $-1 #
edge $-1 $189 -31.051467535947424 $192 31.051467535947424 $185 $276 forward 7 unknown #
coedge $-1 $180 $109 $114 $195 forward $172 $-1 #
coedge $-1 $109 $180 $174 $267 reversed $172 $-1 #
vertex $-1 $110 $277 #
straight-curve $-1 0 31.051467535947424 15.072285871738146 -1 0 0 I I #
coedge $-1 $111 $175 $113 $194 reversed $62 $-1 #
vertex $-1 $186 $278 #
straight-curve $-1 0 -31.051467535947424 15.072285871738146 1 0 0 I I #
edge $-1 $116 -15.072285871738146 $183 15.072285871738146 $113 $279 forward 7 unknown #
edge $-1 $117 -15.072285871738146 $182 15.072285871738146 $114 $280 forward 7 unknown #
point $-1 69.613940855128646 -31.051467535947424 15.072285871738146 #
point $-1 69.613940855128646 31.051467535947424 15.072285871738146 #
face $-1 $-1 $132 $16 $-1 $281 reversed single #
loop $-1 $-1 $205 $119 #
plane-surface $-1 0 0 15.072285871738146 0 0 1 1 0 0 forward_v I I I I #
coedge $-1 $282 $122 $127 $210 forward $70 $-1 #
coedge $-1 $122 $282 $283 $284 reversed $70 $-1 #
coedge $-1 $124 $123 $122 $204 reversed $45 $-1 #
edge $-1 $285 -9.1740758911710163 $215 -2.6223440699632423 $122 $286 forward 7 unknown #
coedge $-1 $283 $287 $124 $206 forward $199 $-1 #
edge $-1 $208 -69.613940855128646 $285 69.613940855128646 $205 $288 forward 7 unknown #
coedge $-1 $131 $125 $287 $289 reversed $132 $-1 #
vertex $-1 $126 $290 #
straight-curve $-1 69.613940855128646 -15.893560298439894 5.8982099805671293 0 0 1 I I #
edge $-1 $215 4.1573033398430645 $213 19.315210577350594 $201 $291 forward 7 unknown #
coedge $-1 $292 $128 $131 $217 reversed $120 $-1 #
coedge $-1 $128 $292 $282 $293 forward $120 $-1 #
vertex $-1 $129 $294 #
straight-curve $-1 0 -31.051467535947424 8.5205540505303716 1 0 0 I I #
vertex $-1 $210 $295 #
straight-curve $-1 0 -15.893560298439894 8.5205540505303716 1 0 0 I I #
edge $-1 $296 -15.072285871738146 $133 -8.5205540505303716 $131 $297 forward 7 unknown #
point $-1 69.613940855128646 -31.051467535947424 8.5205540505303716 #
point $-1 69.613940855128646 -15.893560298439894 8.5205540505303716 #
face $-1 $-1 $234 $17 $-1 $298 reversed single #
loop $-1 $-1 $226 $136 #
plane-surface $-1 -69.613940855128646 0 0 1 0 0 0 0 -1 forward_v I I I I #
coedge $-1 $299 $300 $139 $225 forward $137 $-1 #
coedge $-1 $140 $139 $147 $239 reversed $49 $-1 #
edge $-1 $301 -69.613940855128646 $228 69.613940855128646 $223 $302 forward 7 unknown #
coedge $-1 $303 $141 $143 $231 forward $221 $-1 #
coedge $-1 $141 $303 $299 $304 reversed $221 $-1 #
vertex $-1 $304 $305 #
vertex $-1 $231 $306 #
straight-curve $-1 -69.613940855128646 14.960934148634706 -6.2449916913952004 0 0 1 I I #
edge $-1 $229 3.4578337274891737 $235 19.548367114801891 $226 $307 forward 7 unknown #
coedge $-1 $308 $144 $148 $240 forward $234 $-1 #
coedge $-1 $144 $308 $303 $309 reversed $234 $-1 #
loop $-1 $-1 $144 $220 #
vertex $-1 $309 $310 #
straight-curve $-1 0 31.051467535947424 -9.9076808938426559 1 0 0 I I #
straight-curve $-1 0 14.960934148634706 -9.9076808938426559 1 0 0 I I #
coedge $-1 $148 $147 $300 $311 reversed $78 $-1 #
edge $-1 $150 3.6626892024474555 $301 8.8272941803429461 $147 $312 forward 7 unknown #
edge $-1 $149 9.9076808938426559 $313 15.072285871738146 $148 $314 forward 7 unknown #
point $-1 69.613940855128646 31.051467535947424 -9.9076808938426559 #
point $-1 69.613940855128646 14.960934148634706 -9.9076808938426559 #
loop $-1 $-1 $160 $152 #
plane-surface $-1 0 0 15.072285871738146 0 0 1 1 0 0 forward_v I I I I #
coedge $-1 $246 $155 $157 $250 reversed $86 $-1 #
coedge $-1 $155 $245 $315 $316 reversed $86 $-1 #
coedge $-1 $163 $158 $155 $248 forward $153 $-1 #
edge $-1 $251 -51.399245636198351 $317 -41.728853604342568 $247 $318 forward 7 unknown #
coedge $-1 $157 $156 $254 $319 reversed $53 $-1 #
edge $-1 $320 -15.366404854037645 $251 -1.8310242626372826e-014 $245 $321 forward 7 unknown #
vertex $-1 $159 $322 #
straight-curve $-1 -69.613940855128646 5.6842434256178862 5.4018938398823471 0 -1 0 I I #
coedge $-1 $315 $160 $163 $258 forward $243 $-1 #
coedge $-1 $160 $315 $249 $319 forward $243 $-1 #
vertex $-1 $161 $323 #
straight-curve $-1 -78.616443453041057 14.960934148634696 15.072285871738146 -1 0 0 I I #
straight-curve $-1 -69.613940855128661 14.960934148634696 5.4018938398823479 0.77714595512881146 0 0.62932039886446345 I I #
edge $-1 $164 -14.960934148634696 $317 -7.7760395538368492 $163 $324 forward 7 unknown #
point $-1 -69.613940855128646 14.960934148634696 15.072285871738146 #
point $-1 -69.613940855128646 14.960934148634696 5.4018938398823595 #
edge $-1 $325 1 $325 0 $167 $-1 forward 7 unknown #
vertex $-1 $168 $326 #
ellipse-curve $-1 -59.86998727919341 11.36848685123578 5.5778428774753372 -0.62932039886446345 0 0.77714595512881146 1.1657189326932171 0 0.94398059829669512 1 I I #
point $-1 -62.477252233841881 11.36848685123578 11.181070454106939 #
plane-surface $-1 69.613940855128646 0 0 -1 0 0 0 0 1 forward_v I I I I #
coedge $-1 $176 $174 $178 $270 reversed $101 $-1 #
edge $-1 $189 -15.072285871738146 $272 15.072285871738146 $188 $327 forward 7 unknown #
vertex $-1 $270 $328 #
straight-curve $-1 -69.613940855128646 -31.051467535947424 0 0 0 -1 I I #
edge $-1 $268 -31.051467535947424 $272 31.051467535947424 $266 $329 forward 7 unknown #
straight-curve $-1 0 -31.051467535947424 -15.072285871738146 -1 0 0 I I #
vertex $-1 $181 $330 #
straight-curve $-1 0 31.051467535947424 -15.072285871738146 1 0 0 I I #
point $-1 69.613940855128646 31.051467535947424 -15.072285871738146 #
point $-1 69.613940855128646 -31.051467535947424 -15.072285871738146 #
straight-curve $-1 -69.613940855128646 0 15.072285871738146 0 -1 0 I I #
point $-1 -69.613940855128646 31.051467535947424 15.072285871738146 #
point $-1 -69.613940855128646 -31.051467535947424 15.072285871738146 #
straight-curve $-1 69.613940855128646 -31.051467535947424 0 0 0 -1 I I #
straight-curve $-1 69.613940855128646 31.051467535947424 0 0 0 -1 I I #
plane-surface $-1 69.613940855128646 0 0 -1 0 0 0 0 1 forward_v I I I I #
coedge $-1 $202 $201 $212 $293 reversed $70 $-1 #
coedge $-1 $331 $205 $202 $284 forward $199 $-1 #
edge $-1 $285 15.893560298439894 $332 31.051467535947424 $202 $333 forward 7 unknown #
vertex $-1 $284 $334 #
straight-curve $-1 -69.613940855128646 -15.893560298439894 5.8982099805671293 0 0 -1 I I #
coedge $-1 $205 $331 $207 $289 forward $199 $-1 #
straight-curve $-1 0 -15.893560298439894 15.072285871738146 -1 0 0 I I #
edge $-1 $296 -31.051467535947424 $208 -15.893560298439894 $207 $335 forward 7 unknown #
point $-1 69.613940855128646 -15.893560298439894 15.072285871738146 #
straight-curve $-1 -69.613940855128646 -11.736256958596829 8.5205540505303716 0 -1 0 I I #
coedge $-1 $212 $211 $331 $336 reversed $120 $-1 #
edge $-1 $332 -15.072285871738146 $213 -8.5205540505303716 $282 $337 forward 7 unknown #
point $-1 -69.613940855128646 -31.051467535947424 8.5205540505303716 #
point $-1 -69.613940855128646 -15.893560298439894 8.5205540505303716 #
vertex $-1 $289 $338 #
straight-curve $-1 69.613940855128646 -31.051467535947424 0 0 0 -1 I I #
plane-surface $-1 0 31.051467535947424 0 0 -1 0 0 0 -1 forward_v I I I I #
coedge $-1 $339 $223 $227 $304 forward $137 $-1 #
coedge $-1 $223 $339 $238 $311 forward $137 $-1 #
vertex $-1 $225 $340 #
straight-curve $-1 0 14.960934148634706 -15.072285871738146 -1 0 0 I I #
coedge $-1 $227 $226 $233 $309 forward $221 $-1 #
edge $-1 $228 14.960934148634706 $341 31.051467535947424 $227 $342 forward 7 unknown #
point $-1 -69.613940855128646 14.960934148634706 -15.072285871738146 #
point $-1 -69.613940855128646 14.960934148634706 -9.9076808938426559 #
straight-curve $-1 -69.613940855128646 11.503100421145533 -9.9076808938426559 0 1 0 I I #
coedge $-1 $233 $232 $339 $343 reversed $234 $-1 #
edge $-1 $235 9.9076808938426559 $341 15.072285871738146 $233 $344 forward 7 unknown #
point $-1 -69.613940855128646 31.051467535947424 -9.9076808938426559 #
edge $-1 $313 -31.051467535947424 $301 -14.960934148634706 $238 $345 forward 7 unknown #
straight-curve $-1 69.613940855128646 14.960934148634706 -6.2449916913952004 0 0 -1 I I #
vertex $-1 $311 $346 #
straight-curve $-1 69.613940855128646 31.051467535947424 0 0 0 -1 I I #
coedge $-1 $254 $253 $246 $316 forward $243 $-1 #
edge $-1 $317 9.0025025979124109 $320 20.944441975099487 $315 $347 forward 7 unknown #
vertex $-1 $316 $348 #
straight-curve $-1 -69.613940855128646 7.7760395538368492 56.801139476080714 0 0 1 I I #
edge $-1 $320 2.091796128218963 $255 9.2766907230168094 $254 $349 forward 7 unknown #
vertex $-1 $319 $350 #
straight-curve $-1 -69.613940855128661 7.7760395538368492 5.4018938398823479 -0.77714595512881146 0 -0.62932039886446345 I I #
point $-1 -69.613940855128646 7.7760395538368492 5.4018938398823595 #
point $-1 -57.672001477941571 14.960934148634696 15.072285871738146 #
straight-curve $-1 -69.613940855128646 0 15.072285871738146 0 -1 0 I I #
vertex $-1 $261 $351 #
point $-1 -58.704268346500193 11.36848685123578 6.5218234757720328 #
straight-curve $-1 -69.613940855128646 31.051467535947424 0 0 0 -1 I I #
point $-1 -69.613940855128646 -31.051467535947424 -15.072285871738146 #
straight-curve $-1 -69.613940855128646 0 -15.072285871738146 0 1 0 I I #
point $-1 -69.613940855128646 31.051467535947424 -15.072285871738146 #
coedge $-1 $287 $283 $292 $336 forward $199 $-1 #
vertex $-1 $284 $352 #
straight-curve $-1 -69.613940855128646 0 15.072285871738146 0 -1 0 I I #
point $-1 -69.613940855128646 -15.893560298439894 15.072285871738146 #
straight-curve $-1 69.613940855128646 0 15.072285871738146 0 1 0 I I #
edge $-1 $332 -69.613940855128646 $296 69.613940855128646 $292 $353 forward 7 unknown #
straight-curve $-1 -69.613940855128646 -31.051467535947424 0 0 0 -1 I I #
point $-1 69.613940855128646 -31.051467535947424 15.072285871738146 #
coedge $-1 $300 $299 $308 $343 forward $137 $-1 #
point $-1 69.613940855128646 14.960934148634706 -15.072285871738146 #
vertex $-1 $343 $354 #
straight-curve $-1 -69.613940855128646 0 -15.072285871738146 0 1 0 I I #
edge $-1 $341 -69.613940855128646 $313 69.613940855128646 $308 $355 forward 7 unknown #
straight-curve $-1 -69.613940855128646 31.051467535947424 0 0 0 -1 I I #
straight-curve $-1 69.613940855128646 0 -15.072285871738146 0 -1 0 I I #
point $-1 69.613940855128646 31.051467535947424 -15.072285871738146 #
straight-curve $-1 -78.616443453041057 7.7760395538368492 15.072285871738146 1 0 0 I I #
point $-1 -69.613940855128646 7.7760395538368492 15.072285871738146 #
straight-curve $-1 -57.672001477941571 5.6842434256178862 15.072285871738146 0 1 0 I I #
point $-1 -57.672001477941571 7.7760395538368492 15.072285871738146 #
point $-1 -58.92600668089672 11.36848685123578 4.4121239447821203 #
point $-1 -69.613940855128646 -31.051467535947424 15.072285871738146 #
straight-curve $-1 0 -31.051467535947424 15.072285871738146 1 0 0 I I #
point $-1 -69.613940855128646 31.051467535947424 -15.072285871738146 #
straight-curve $-1 0 31.051467535947424 -15.072285871738146 1 0 0 I I #
End-of-ACIS-data 