500 0 4 0           
7 Unknown 11 ACIS 5.0 NT 24 Thu Mar 25 15:56:16 1999 
-1 9.9999999999999995e-007 1e-010 
body $-1 $4 $-1 $5 #
body $-1 $6 $-1 $7 #
body $-1 $8 $-1 $9 #
body $-1 $10 $-1 $11 #
lump $-1 $-1 $12 $0 #
transform $-1 1 0 0 0 1 0 0 0 1 70.52949613940855 28.417142671947374 14.003293536039303 1 rotate no_reflect no_shear #
lump $-1 $-1 $13 $1 #
transform $-1 1 0 0 0 1 0 0 0 1 70.52949613940855 28.417142671947374 14.003293536039303 1 rotate no_reflect no_shear #
lump $-1 $-1 $14 $2 #
transform $-1 1 0 0 0 1 0 0 0 1 70.52949613940855 28.417142671947374 14.003293536039303 1 rotate no_reflect no_shear #
lump $-1 $-1 $15 $3 #
transform $-1 1 0 0 0 1 0 0 0 1 70.52949613940855 28.417142671947374 14.003293536039303 1 rotate no_reflect no_shear #
shell $-1 $-1 $-1 $16 $-1 $4 #
shell $-1 $-1 $-1 $17 $-1 $6 #
shell $-1 $-1 $-1 $18 $-1 $8 #
shell $-1 $-1 $-1 $19 $-1 $10 #
face $-1 $20 $21 $12 $-1 $22 forward single #
face $-1 $23 $24 $13 $-1 $25 forward single #
face $-1 $26 $27 $14 $-1 $28 forward single #
face $-1 $29 $30 $15 $-1 $31 reversed single #
face $-1 $32 $33 $12 $-1 $34 reversed single #
loop $-1 $-1 $35 $16 #
plane-surface $-1 0 0 14.003293536039303 0 0 1 1 0 0 forward_v I I I I #
face $-1 $36 $37 $13 $-1 $38 reversed single #
loop $-1 $-1 $39 $17 #
plane-surface $-1 0 -33.557215093519325 -5.6666179683970679 0 0 1 1 0 0 forward_v I I I I #
face $-1 $40 $41 $14 $-1 $42 forward single #
loop $-1 $-1 $43 $18 #
plane-surface $-1 12.322678653619164 97.589071176344248 136.16711402593157 1 0 0 0 -0.75470958851134928 -0.65605901945558964 forward_v I I I I #
face $-1 $44 $45 $15 $-1 $46 reversed single #
loop $-1 $47 $48 $19 #
cone-surface $-1 28.395276102960807 19.826749774706876 4.9142635268426158 0 -0.75470958851134928 -0.65605901945558964 2.5 0 0 1 I I 0 1 2.5 forward I I I I #
face $-1 $49 $50 $12 $-1 $51 reversed single #
loop $-1 $-1 $52 $20 #
plane-surface $-1 0 0 -14.003293536039303 0 0 1 1 0 0 forward_v I I I I #
coedge $-1 $53 $54 $55 $56 forward $21 $-1 #
face $-1 $57 $58 $13 $-1 $59 forward single #
loop $-1 $-1 $60 $23 #
plane-surface $-1 0 -38.697287515091276 -9.8349557522181854 0 1 0 0 0 1 forward_v I I I I #
coedge $-1 $61 $62 $63 $64 forward $24 $-1 #
face $-1 $65 $66 $14 $-1 $67 forward single #
loop $-1 $-1 $68 $26 #
plane-surface $-1 28.395276102960807 -8.8695028422274049 43.624089866097236 0 0.75470958851134928 0.65605901945558964 1 0 0 forward_v I I I I #
coedge $-1 $69 $70 $71 $72 reversed $27 $-1 #
face $-1 $73 $74 $15 $-1 $75 forward single #
loop $-1 $76 $77 $29 #
cone-surface $-1 28.395276102960807 16.061810270783695 1.64145163091119 0 -0.75470958851134928 -0.65605901945558964 1.25 0 0 1 I I -0.70710678118654746 0.70710678118654746 1.25 forward I I I I #
loop $-1 $-1 $78 $19 #
coedge $-1 $48 $48 $79 $80 reversed $30 $-1 #
face $-1 $81 $82 $12 $-1 $83 reversed single #
loop $-1 $-1 $84 $32 #
plane-surface $-1 0 -28.417142671947374 0 0 1 0 0 0 1 forward_v I I I I #
coedge $-1 $85 $86 $87 $88 forward $33 $-1 #
coedge $-1 $89 $35 $90 $91 forward $21 $-1 #
coedge $-1 $35 $89 $92 $93 forward $21 $-1 #
coedge $-1 $94 $95 $35 $56 reversed $96 $-1 #
edge $-1 $97 -28.417142671947374 $98 28.417142671947374 $55 $99 forward 7 unknown #
face $-1 $100 $101 $13 $-1 $102 reversed single #
loop $-1 $-1 $103 $36 #
plane-surface $-1 0 0 14.003293536039303 0 0 1 1 0 0 forward_v I I I I #
coedge $-1 $104 $105 $106 $107 forward $37 $-1 #
coedge $-1 $108 $39 $109 $110 reversed $24 $-1 #
coedge $-1 $39 $108 $105 $111 forward $24 $-1 #
coedge $-1 $112 $113 $39 $64 reversed $114 $-1 #
edge $-1 $115 -5.1400724215719507 $116 5.1400724215719507 $63 $117 forward 7 unknown #
face $-1 $118 $119 $14 $-1 $120 forward single #
loop $-1 $-1 $121 $40 #
plane-surface $-1 44.46787355230245 97.589071176344248 136.16711402593157 -1 0 0 0 0.75470958851134928 0.65605901945558964 forward_v I I I I #
coedge $-1 $122 $123 $124 $125 reversed $41 $-1 #
coedge $-1 $70 $43 $123 $126 forward $27 $-1 #
coedge $-1 $43 $69 $127 $128 reversed $27 $-1 #
coedge $-1 $129 $124 $43 $72 forward $119 $-1 #
edge $-1 $130 -31.915073674137783 $131 -20.37739291622475 $71 $132 forward 7 unknown #
face $-1 $133 $134 $15 $-1 $135 forward single #
loop $-1 $-1 $136 $44 #
plane-surface $-1 12.322678653619164 97.589071176344248 136.16711402593157 1 0 0 0 -0.75470958851134928 -0.65605901945558964 forward_v I I I I #
loop $-1 $-1 $137 $29 #
coedge $-1 $77 $77 $78 $138 forward $45 $-1 #
coedge $-1 $78 $78 $77 $138 reversed $47 $-1 #
coedge $-1 $79 $79 $48 $80 forward $134 $-1 #
edge $-1 $139 5.3625341572523352e-016 $139 6.2831853071796013 $79 $140 forward 7 unknown #
face $-1 $141 $142 $12 $-1 $143 reversed single #
loop $-1 $-1 $144 $49 #
plane-surface $-1 -70.52949613940855 0 0 1 0 0 0 0 -1 forward_v I I I I #
coedge $-1 $145 $92 $146 $147 forward $50 $-1 #
coedge $-1 $148 $52 $145 $149 forward $33 $-1 #
coedge $-1 $52 $148 $150 $151 forward $33 $-1 #
coedge $-1 $95 $94 $52 $88 reversed $96 $-1 #
edge $-1 $152 -28.417142671947374 $153 28.417142671947374 $87 $154 forward 7 unknown #
coedge $-1 $54 $53 $155 $156 forward $21 $-1 #
coedge $-1 $157 $158 $53 $91 reversed $142 $-1 #
edge $-1 $98 -70.52949613940855 $159 70.52949613940855 $90 $160 forward 7 unknown #
coedge $-1 $84 $161 $54 $93 reversed $50 $-1 #
edge $-1 $162 -70.52949613940855 $97 70.52949613940855 $92 $163 forward 7 unknown #
coedge $-1 $87 $55 $161 $164 forward $96 $-1 #
coedge $-1 $55 $87 $157 $165 reversed $96 $-1 #
loop $-1 $-1 $94 $141 #
vertex $-1 $56 $166 #
vertex $-1 $56 $167 #
straight-curve $-1 70.52949613940855 0 14.003293536039303 0 1 0 I I #
face $-1 $168 $169 $13 $-1 $170 reversed single #
loop $-1 $-1 $171 $57 #
plane-surface $-1 0 0 -14.003293536039303 0 0 1 1 0 0 forward_v I I I I #
coedge $-1 $172 $173 $174 $175 forward $58 $-1 #
coedge $-1 $176 $60 $177 $178 reversed $37 $-1 #
coedge $-1 $60 $176 $62 $111 reversed $37 $-1 #
coedge $-1 $179 $180 $60 $107 reversed $181 $-1 #
edge $-1 $182 -4.1683377838211175 $183 4.1683377838211175 $106 $184 forward 7 unknown #
coedge $-1 $62 $61 $179 $185 forward $24 $-1 #
coedge $-1 $186 $187 $61 $110 forward $169 $-1 #
edge $-1 $188 -70.52949613940855 $116 70.52949613940855 $109 $189 forward 7 unknown #
edge $-1 $182 -70.52949613940855 $115 70.52949613940855 $105 $190 forward 7 unknown #
coedge $-1 $191 $63 $176 $192 forward $114 $-1 #
coedge $-1 $63 $174 $186 $193 forward $114 $-1 #
loop $-1 $-1 $113 $194 #
vertex $-1 $64 $195 #
vertex $-1 $64 $196 #
straight-curve $-1 70.52949613940855 -33.557215093519325 -5.6666179683970679 0 1 0 I I #
face $-1 $197 $198 $14 $-1 $199 forward single #
loop $-1 $-1 $200 $65 #
plane-surface $-1 0 0 14.003293536039303 0 0 1 1 0 0 forward_v I I I I #
coedge $-1 $201 $202 $200 $203 reversed $66 $-1 #
coedge $-1 $204 $68 $202 $205 reversed $41 $-1 #
coedge $-1 $68 $204 $69 $126 reversed $41 $-1 #
coedge $-1 $71 $200 $68 $125 forward $119 $-1 #
edge $-1 $206 -30.270235500822047 $130 1.8749593978612396 $124 $207 forward 7 unknown #
edge $-1 $130 39.247939579626141 $208 56.834285343894756 $69 $209 forward 7 unknown #
coedge $-1 $210 $211 $70 $128 forward $212 $-1 #
edge $-1 $131 54.080263476926483 $208 67.352847252095955 $127 $213 forward 7 unknown #
coedge $-1 $214 $71 $211 $215 forward $119 $-1 #
vertex $-1 $125 $216 #
vertex $-1 $215 $217 #
straight-curve $-1 12.322678653619164 48.794535588172124 14.003293536039301 0 1 0 I I #
face $-1 $218 $219 $15 $-1 $220 forward single #
loop $-1 $221 $79 $73 #
plane-surface $-1 28.395276102960807 -8.8695028422274049 43.624089866097236 0 0.75470958851134928 0.65605901945558964 1 0 0 forward_v I I I I #
coedge $-1 $222 $223 $224 $225 reversed $74 $-1 #
coedge $-1 $137 $137 $-1 $226 forward $76 $-1 #
edge $-1 $227 0 $227 6.2831853071796004 $77 $228 forward 7 unknown #
vertex $-1 $80 $229 #
ellipse-curve $-1 28.395276102960807 22.648302292990866 7.3670016484545515 0 -0.75470958851134928 -0.65605901945558964 2.5 0 0 1 I I #
face $-1 $-1 $96 $12 $-1 $230 reversed single #
loop $-1 $-1 $157 $81 #
plane-surface $-1 0 28.417142671947374 0 0 -1 0 0 0 -1 forward_v I I I I #
coedge $-1 $231 $155 $158 $232 forward $82 $-1 #
coedge $-1 $161 $84 $85 $149 reversed $50 $-1 #
coedge $-1 $155 $231 $84 $147 reversed $82 $-1 #
edge $-1 $162 -14.003293536039303 $233 14.003293536039303 $146 $234 forward 7 unknown #
coedge $-1 $86 $85 $231 $235 forward $33 $-1 #
edge $-1 $153 -70.52949613940855 $233 70.52949613940855 $145 $236 forward 7 unknown #
coedge $-1 $158 $157 $86 $151 reversed $142 $-1 #
edge $-1 $237 -70.52949613940855 $152 70.52949613940855 $150 $238 forward 7 unknown #
vertex $-1 $88 $239 #
vertex $-1 $164 $240 #
straight-curve $-1 70.52949613940855 0 -14.003293536039303 0 -1 0 I I #
coedge $-1 $144 $146 $89 $156 reversed $82 $-1 #
edge $-1 $159 -28.417142671947374 $162 28.417142671947374 $155 $241 forward 7 unknown #
coedge $-1 $150 $90 $95 $165 forward $142 $-1 #
coedge $-1 $90 $150 $144 $232 reversed $142 $-1 #
vertex $-1 $91 $242 #
straight-curve $-1 0 28.417142671947374 14.003293536039303 -1 0 0 I I #
coedge $-1 $92 $145 $94 $164 reversed $50 $-1 #
vertex $-1 $156 $243 #
straight-curve $-1 0 -28.417142671947374 14.003293536039303 1 0 0 I I #
edge $-1 $97 -14.003293536039303 $153 14.003293536039303 $94 $244 forward 7 unknown #
edge $-1 $98 -14.003293536039303 $152 14.003293536039303 $95 $245 forward 7 unknown #
point $-1 70.52949613940855 -28.417142671947374 14.003293536039303 #
point $-1 70.52949613940855 28.417142671947374 14.003293536039303 #
face $-1 $246 $181 $13 $-1 $247 reversed single #
loop $-1 $-1 $109 $100 #
plane-surface $-1 0 -28.417142671947374 0 0 1 0 0 0 1 forward_v I I I I #
coedge $-1 $177 $248 $191 $249 forward $101 $-1 #
coedge $-1 $250 $103 $251 $252 forward $58 $-1 #
coedge $-1 $103 $250 $253 $254 forward $58 $-1 #
coedge $-1 $113 $255 $103 $175 reversed $114 $-1 #
edge $-1 $256 -28.417142671947374 $257 28.417142671947374 $174 $258 forward 7 unknown #
coedge $-1 $105 $104 $112 $192 reversed $37 $-1 #
coedge $-1 $259 $171 $104 $178 forward $101 $-1 #
edge $-1 $260 -70.52949613940855 $183 70.52949613940855 $104 $261 forward 7 unknown #
coedge $-1 $262 $106 $108 $185 reversed $181 $-1 #
coedge $-1 $106 $263 $259 $264 reversed $181 $-1 #
loop $-1 $-1 $263 $168 #
vertex $-1 $185 $265 #
vertex $-1 $264 $266 #
straight-curve $-1 -70.52949613940855 -38.697287515091276 -9.8349557522181854 0 0 -1 I I #
edge $-1 $188 -5.1400724215719507 $182 5.1400724215719507 $179 $267 forward 7 unknown #
coedge $-1 $253 $109 $113 $193 reversed $169 $-1 #
coedge $-1 $109 $253 $262 $268 forward $169 $-1 #
vertex $-1 $268 $269 #
straight-curve $-1 0 -28.417142671947374 -5.6666179683970679 1 0 0 I I #
straight-curve $-1 0 -38.697287515091276 -5.6666179683970679 1 0 0 I I #
coedge $-1 $255 $112 $171 $249 reversed $114 $-1 #
edge $-1 $115 -4.1683377838211175 $260 4.1683377838211175 $112 $270 forward 7 unknown #
edge $-1 $256 -14.003293536039303 $116 5.6666179683970679 $113 $271 forward 7 unknown #
face $-1 $-1 $114 $13 $-1 $272 reversed single #
point $-1 70.52949613940855 -38.697287515091276 -5.6666179683970679 #
point $-1 70.52949613940855 -28.417142671947374 -5.6666179683970679 #
face $-1 $273 $274 $14 $-1 $275 reversed single #
loop $-1 $-1 $276 $118 #
plane-surface $-1 0 -33.557215093519325 -5.6666179683970679 0 0 1 1 0 0 forward_v I I I I #
coedge $-1 $124 $277 $121 $203 forward $119 $-1 #
coedge $-1 $202 $121 $278 $279 reversed $66 $-1 #
coedge $-1 $121 $201 $122 $205 forward $66 $-1 #
edge $-1 $280 20.37739291622475 $206 31.915073674137783 $200 $281 forward 7 unknown #
coedge $-1 $123 $122 $210 $282 reversed $41 $-1 #
edge $-1 $283 -56.834285343894756 $206 -39.247939579626141 $202 $284 forward 7 unknown #
vertex $-1 $125 $285 #
straight-curve $-1 14.197638051480403 16.879461914034341 14.003293536039298 -1 0 0 I I #
vertex $-1 $282 $286 #
straight-curve $-1 12.322678653619164 -8.8695028422274049 43.624089866097236 0 0.65605901945558964 -0.75470958851134928 I I #
coedge $-1 $278 $127 $204 $282 forward $212 $-1 #
coedge $-1 $127 $287 $129 $215 reversed $212 $-1 #
loop $-1 $-1 $278 $288 #
straight-curve $-1 12.322678653619164 28.417142671947374 68.083557012965784 0 0 -1 I I #
coedge $-1 $289 $129 $290 $291 forward $119 $-1 #
edge $-1 $131 -12.322678653619164 $292 70.52949613940855 $211 $293 forward 7 unknown #
point $-1 12.322678653619164 16.879461914034341 14.003293536039305 #
point $-1 12.322678653619164 28.417142671947374 14.003293536039303 #
face $-1 $294 $295 $15 $-1 $296 forward single #
loop $-1 $-1 $297 $133 #
plane-surface $-1 44.46787355230245 97.589071176344248 136.16711402593157 -1 0 0 0 0.75470958851134928 0.65605901945558964 forward_v I I I I #
loop $-1 $-1 $298 $73 #
coedge $-1 $223 $136 $299 $300 forward $74 $-1 #
coedge $-1 $136 $222 $301 $302 reversed $74 $-1 #
coedge $-1 $303 $304 $136 $225 forward $295 $-1 #
edge $-1 $305 -31.915073674137783 $306 -20.37739291622475 $224 $307 forward 7 unknown #
edge $-1 $308 1 $308 0 $137 $-1 forward 7 unknown #
vertex $-1 $138 $309 #
ellipse-curve $-1 28.395276102960807 17.005197256422882 2.461525405230677 0 0.75470958851134928 0.65605901945558964 2.5 0 0 1 I I #
point $-1 30.895276102960807 22.648302292990866 7.3670016484545533 #
plane-surface $-1 70.52949613940855 0 0 -1 0 0 0 0 1 forward_v I I I I #
coedge $-1 $146 $144 $148 $235 reversed $82 $-1 #
edge $-1 $159 -14.003293536039303 $237 14.003293536039303 $158 $310 forward 7 unknown #
vertex $-1 $235 $311 #
straight-curve $-1 -70.52949613940855 -28.417142671947374 0 0 0 -1 I I #
edge $-1 $233 -28.417142671947374 $237 28.417142671947374 $231 $312 forward 7 unknown #
straight-curve $-1 0 -28.417142671947374 -14.003293536039303 -1 0 0 I I #
vertex $-1 $151 $313 #
straight-curve $-1 0 28.417142671947374 -14.003293536039303 1 0 0 I I #
point $-1 70.52949613940855 28.417142671947374 -14.003293536039303 #
point $-1 70.52949613940855 -28.417142671947374 -14.003293536039303 #
straight-curve $-1 -70.52949613940855 0 14.003293536039303 0 -1 0 I I #
point $-1 -70.52949613940855 28.417142671947374 14.003293536039303 #
point $-1 -70.52949613940855 -28.417142671947374 14.003293536039303 #
straight-curve $-1 70.52949613940855 -28.417142671947374 0 0 0 -1 I I #
straight-curve $-1 70.52949613940855 28.417142671947374 0 0 0 -1 I I #
face $-1 $194 $314 $13 $-1 $315 reversed single #
plane-surface $-1 -70.52949613940855 0 0 1 0 0 0 0 -1 forward_v I I I I #
coedge $-1 $171 $259 $316 $317 forward $101 $-1 #
edge $-1 $318 -28.417142671947374 $260 38.697287515091276 $191 $319 forward 7 unknown #
coedge $-1 $173 $172 $320 $321 forward $58 $-1 #
coedge $-1 $322 $323 $172 $252 reversed $314 $-1 #
edge $-1 $257 -70.52949613940855 $324 70.52949613940855 $251 $325 forward 7 unknown #
coedge $-1 $187 $186 $173 $254 reversed $169 $-1 #
edge $-1 $326 -70.52949613940855 $256 70.52949613940855 $253 $327 forward 7 unknown #
coedge $-1 $174 $191 $322 $328 reversed $114 $-1 #
vertex $-1 $175 $329 #
vertex $-1 $175 $330 #
straight-curve $-1 70.52949613940855 0 14.003293536039303 0 1 0 I I #
coedge $-1 $248 $177 $180 $264 forward $101 $-1 #
vertex $-1 $192 $331 #
straight-curve $-1 0 -38.697287515091276 -14.003293536039303 -1 0 0 I I #
coedge $-1 $320 $179 $187 $268 reversed $181 $-1 #
coedge $-1 $180 $320 $323 $332 forward $181 $-1 #
edge $-1 $183 -38.697287515091276 $333 28.417142671947374 $180 $334 forward 7 unknown #
point $-1 -70.52949613940855 -38.697287515091276 -5.6666179683970679 #
point $-1 -70.52949613940855 -38.697287515091276 -14.003293536039303 #
straight-curve $-1 -70.52949613940855 -33.557215093519325 -5.6666179683970679 0 -1 0 I I #
edge $-1 $326 -14.003293536039303 $188 5.6666179683970679 $262 $335 forward 7 unknown #
point $-1 -70.52949613940855 -28.417142671947374 -5.6666179683970679 #
straight-curve $-1 70.52949613940855 -38.697287515091276 -9.8349557522181854 0 0 -1 I I #
straight-curve $-1 70.52949613940855 -28.417142671947374 0 0 0 -1 I I #
plane-surface $-1 70.52949613940855 0 0 -1 0 0 0 0 1 forward_v I I I I #
face $-1 $336 $337 $14 $-1 $338 reversed single #
loop $-1 $-1 $339 $197 #
plane-surface $-1 0 -38.697287515091276 -9.8349557522181854 0 1 0 0 0 1 forward_v I I I I #
coedge $-1 $340 $341 $342 $343 forward $198 $-1 #
coedge $-1 $200 $344 $345 $346 forward $119 $-1 #
coedge $-1 $345 $210 $201 $279 forward $212 $-1 #
edge $-1 $283 -67.352847252095955 $280 -54.080263476926483 $278 $347 forward 7 unknown #
vertex $-1 $279 $348 #
straight-curve $-1 44.46787355230245 48.794535588172124 14.003293536039301 0 -1 0 I I #
edge $-1 $208 -1.8749593978612396 $283 30.270235500822047 $210 $349 forward 7 unknown #
vertex $-1 $282 $350 #
straight-curve $-1 44.46787355230245 -8.8695028422274049 43.624089866097236 0 -0.65605901945558964 0.75470958851134928 I I #
point $-1 44.46787355230245 16.879461914034341 14.003293536039305 #
point $-1 12.322678653619164 28.417142671947374 0.73070976086982142 #
coedge $-1 $211 $351 $352 $353 reversed $212 $-1 #
face $-1 $354 $212 $14 $-1 $355 reversed single #
coedge $-1 $344 $214 $356 $357 forward $119 $-1 #
coedge $-1 $352 $358 $214 $291 reversed $359 $-1 #
edge $-1 $292 -28.417142671947374 $360 28.417142671947374 $290 $361 forward 7 unknown #
vertex $-1 $215 $362 #
straight-curve $-1 0 28.417142671947374 14.003293536039303 -1 0 0 I I #
face $-1 $363 $364 $15 $-1 $365 forward single #
loop $-1 $-1 $366 $218 #
plane-surface $-1 0 0 14.003293536039303 0 0 1 1 0 0 forward_v I I I I #
coedge $-1 $367 $368 $366 $369 reversed $219 $-1 #
coedge $-1 $370 $299 $304 $371 reversed $221 $-1 #
coedge $-1 $298 $372 $222 $300 reversed $221 $-1 #
edge $-1 $305 39.247939579626141 $373 56.834285343894756 $222 $374 forward 7 unknown #
coedge $-1 $375 $376 $223 $302 forward $377 $-1 #
edge $-1 $306 54.080263476926483 $373 67.352847252095955 $301 $378 forward 7 unknown #
coedge $-1 $379 $224 $376 $380 forward $295 $-1 #
coedge $-1 $224 $366 $298 $371 forward $295 $-1 #
vertex $-1 $371 $381 #
vertex $-1 $380 $382 #
straight-curve $-1 12.322678653619164 48.794535588172124 14.003293536039301 0 1 0 I I #
vertex $-1 $226 $383 #
point $-1 30.895276102960807 17.005197256422882 2.461525405230677 #
straight-curve $-1 -70.52949613940855 28.417142671947374 0 0 0 -1 I I #
point $-1 -70.52949613940855 -28.417142671947374 -14.003293536039303 #
straight-curve $-1 -70.52949613940855 0 -14.003293536039303 0 1 0 I I #
point $-1 -70.52949613940855 28.417142671947374 -14.003293536039303 #
loop $-1 $-1 $322 $246 #
plane-surface $-1 0 28.417142671947374 0 0 -1 0 0 0 -1 forward_v I I I I #
coedge $-1 $323 $322 $248 $317 reversed $314 $-1 #
edge $-1 $333 -70.52949613940855 $318 70.52949613940855 $316 $384 forward 7 unknown #
vertex $-1 $249 $385 #
straight-curve $-1 70.52949613940855 0 -14.003293536039303 0 -1 0 I I #
coedge $-1 $263 $262 $250 $321 reversed $181 $-1 #
edge $-1 $324 -28.417142671947374 $326 28.417142671947374 $320 $386 forward 7 unknown #
coedge $-1 $316 $251 $255 $328 forward $314 $-1 #
coedge $-1 $251 $316 $263 $332 reversed $314 $-1 #
vertex $-1 $252 $387 #
straight-curve $-1 0 28.417142671947374 14.003293536039303 -1 0 0 I I #
vertex $-1 $321 $388 #
straight-curve $-1 0 -28.417142671947374 14.003293536039303 1 0 0 I I #
edge $-1 $257 -14.003293536039303 $318 14.003293536039303 $255 $389 forward 7 unknown #
point $-1 70.52949613940855 -28.417142671947374 14.003293536039303 #
point $-1 70.52949613940855 28.417142671947374 14.003293536039303 #
point $-1 70.52949613940855 -38.697287515091276 -14.003293536039303 #
edge $-1 $324 -14.003293536039303 $333 14.003293536039303 $323 $390 forward 7 unknown #
vertex $-1 $317 $391 #
straight-curve $-1 -70.52949613940855 0 -14.003293536039303 0 1 0 I I #
straight-curve $-1 -70.52949613940855 -28.417142671947374 0 0 0 -1 I I #
face $-1 $392 $393 $14 $-1 $394 reversed single #
loop $-1 $-1 $395 $273 #
plane-surface $-1 0 0 -14.003293536039303 0 0 1 1 0 0 forward_v I I I I #
coedge $-1 $396 $397 $398 $399 forward $274 $-1 #
coedge $-1 $400 $276 $401 $402 reversed $198 $-1 #
coedge $-1 $276 $400 $397 $403 forward $198 $-1 #
coedge $-1 $404 $405 $276 $343 reversed $406 $-1 #
edge $-1 $407 -5.1400724215719507 $408 5.1400724215719507 $342 $409 forward 7 unknown #
coedge $-1 $277 $289 $410 $411 forward $119 $-1 #
coedge $-1 $412 $278 $277 $346 reversed $212 $-1 #
edge $-1 $413 -70.52949613940855 $280 -44.46787355230245 $345 $293 forward 7 unknown #
straight-curve $-1 44.46787355230245 28.417142671947374 68.083557012965784 0 0 1 I I #
point $-1 44.46787355230245 28.417142671947374 14.003293536039303 #
straight-curve $-1 14.197638051480403 28.417142671947378 0.73070976086981787 1 0 0 I I #
point $-1 44.46787355230245 28.417142671947374 0.73070976086982142 #
coedge $-1 $287 $412 $414 $415 reversed $212 $-1 #
coedge $-1 $416 $290 $287 $353 forward $359 $-1 #
edge $-1 $292 -14.003293536039303 $417 14.003293536039303 $287 $418 forward 7 unknown #
face $-1 $-1 $406 $14 $-1 $419 reversed single #
plane-surface $-1 0 28.417142671947374 0 0 -1 0 0 0 -1 forward_v I I I I #
coedge $-1 $420 $421 $289 $357 reversed $393 $-1 #
edge $-1 $360 -70.52949613940855 $422 70.52949613940855 $356 $423 forward 7 unknown #
coedge $-1 $290 $424 $420 $425 reversed $359 $-1 #
loop $-1 $-1 $352 $392 #
vertex $-1 $291 $426 #
straight-curve $-1 -70.52949613940855 0 14.003293536039303 0 -1 0 I I #
point $-1 -70.52949613940855 28.417142671947374 14.003293536039303 #
face $-1 $427 $428 $15 $-1 $429 reversed single #
loop $-1 $-1 $430 $294 #
plane-surface $-1 0 -33.557215093519325 -5.6666179683970679 0 0 1 1 0 0 forward_v I I I I #
coedge $-1 $304 $431 $297 $369 forward $295 $-1 #
coedge $-1 $368 $297 $432 $433 reversed $219 $-1 #
coedge $-1 $297 $367 $370 $434 forward $219 $-1 #
edge $-1 $435 20.37739291622475 $436 31.915073674137783 $366 $437 forward 7 unknown #
coedge $-1 $372 $298 $368 $434 reversed $221 $-1 #
edge $-1 $436 -30.270235500822047 $305 1.8749593978612396 $304 $438 forward 7 unknown #
coedge $-1 $299 $370 $375 $439 reversed $221 $-1 #
vertex $-1 $439 $440 #
straight-curve $-1 12.322678653619164 -8.8695028422274049 43.624089866097236 0 0.65605901945558964 -0.75470958851134928 I I #
coedge $-1 $432 $301 $372 $439 forward $377 $-1 #
coedge $-1 $301 $441 $303 $380 reversed $377 $-1 #
loop $-1 $-1 $432 $442 #
straight-curve $-1 12.322678653619164 28.417142671947374 68.083557012965784 0 0 -1 I I #
coedge $-1 $443 $303 $444 $445 forward $295 $-1 #
edge $-1 $306 -12.322678653619164 $446 70.52949613940855 $376 $447 forward 7 unknown #
point $-1 12.322678653619164 16.879461914034341 14.003293536039305 #
point $-1 12.322678653619164 28.417142671947374 14.003293536039303 #
point $-1 28.395276102960807 15.118423285144509 0.82137785659170293 #
straight-curve $-1 0 28.417142671947374 -14.003293536039303 1 0 0 I I #
point $-1 70.52949613940855 28.417142671947374 -14.003293536039303 #
straight-curve $-1 -70.52949613940855 0 14.003293536039303 0 -1 0 I I #
point $-1 -70.52949613940855 28.417142671947374 14.003293536039303 #
point $-1 -70.52949613940855 -28.417142671947374 14.003293536039303 #
straight-curve $-1 70.52949613940855 28.417142671947374 0 0 0 -1 I I #
straight-curve $-1 -70.52949613940855 28.417142671947374 0 0 0 -1 I I #
point $-1 -70.52949613940855 28.417142671947374 -14.003293536039303 #
face $-1 $288 $359 $14 $-1 $448 reversed single #
loop $-1 $-1 $401 $336 #
plane-surface $-1 0 -28.417142671947374 0 0 1 0 0 0 1 forward_v I I I I #
coedge $-1 $449 $414 $450 $451 forward $337 $-1 #
coedge $-1 $452 $339 $449 $453 reversed $274 $-1 #
coedge $-1 $339 $452 $341 $403 reversed $274 $-1 #
coedge $-1 $424 $416 $339 $399 reversed $359 $-1 #
edge $-1 $454 -4.1683377838211175 $455 4.1683377838211175 $398 $456 forward 7 unknown #
coedge $-1 $341 $340 $424 $457 forward $198 $-1 #
coedge $-1 $421 $420 $340 $402 forward $393 $-1 #
edge $-1 $458 -70.52949613940855 $408 70.52949613940855 $401 $459 forward 7 unknown #
edge $-1 $454 -70.52949613940855 $407 70.52949613940855 $397 $460 forward 7 unknown #
coedge $-1 $450 $342 $452 $461 forward $406 $-1 #
coedge $-1 $342 $410 $421 $462 forward $406 $-1 #
loop $-1 $-1 $405 $354 #
vertex $-1 $343 $463 #
vertex $-1 $343 $464 #
straight-curve $-1 70.52949613940855 -33.557215093519325 -5.6666179683970679 0 1 0 I I #
coedge $-1 $405 $465 $344 $411 reversed $406 $-1 #
edge $-1 $422 -28.417142671947374 $413 28.417142671947374 $410 $466 forward 7 unknown #
coedge $-1 $351 $345 $465 $467 forward $212 $-1 #
vertex $-1 $411 $468 #
coedge $-1 $395 $469 $351 $415 forward $337 $-1 #
edge $-1 $417 -70.52949613940855 $470 70.52949613940855 $351 $471 forward 7 unknown #
coedge $-1 $398 $352 $469 $472 reversed $359 $-1 #
vertex $-1 $415 $473 #
straight-curve $-1 -70.52949613940855 28.417142671947374 0 0 0 -1 I I #
plane-surface $-1 70.52949613940855 0 0 -1 0 0 0 0 1 forward_v I I I I #
coedge $-1 $401 $356 $358 $425 forward $393 $-1 #
coedge $-1 $356 $401 $405 $462 reversed $393 $-1 #
vertex $-1 $411 $474 #
straight-curve $-1 0 -28.417142671947374 14.003293536039303 1 0 0 I I #
coedge $-1 $358 $398 $400 $457 reversed $359 $-1 #
edge $-1 $360 -14.003293536039303 $458 5.6666179683970679 $358 $475 forward 7 unknown #
point $-1 -70.52949613940855 -28.417142671947374 14.003293536039303 #
face $-1 $476 $477 $15 $-1 $478 reversed single #
loop $-1 $-1 $479 $363 #
plane-surface $-1 0 -38.697287515091276 -9.8349557522181854 0 1 0 0 0 1 forward_v I I I I #
coedge $-1 $480 $481 $482 $483 forward $364 $-1 #
coedge $-1 $366 $484 $485 $486 forward $295 $-1 #
coedge $-1 $485 $375 $367 $433 forward $377 $-1 #
edge $-1 $487 -67.352847252095955 $435 -54.080263476926483 $432 $488 forward 7 unknown #
edge $-1 $487 -56.834285343894756 $436 -39.247939579626141 $368 $489 forward 7 unknown #
vertex $-1 $433 $490 #
vertex $-1 $371 $491 #
straight-curve $-1 44.46787355230245 48.794535588172124 14.003293536039301 0 -1 0 I I #
straight-curve $-1 14.197638051480403 16.879461914034341 14.003293536039298 -1 0 0 I I #
edge $-1 $373 -1.8749593978612396 $487 30.270235500822047 $375 $492 forward 7 unknown #
point $-1 12.322678653619164 28.417142671947374 0.73070976086982142 #
coedge $-1 $376 $493 $494 $495 reversed $377 $-1 #
face $-1 $496 $377 $15 $-1 $497 reversed single #
coedge $-1 $484 $379 $498 $499 forward $295 $-1 #
coedge $-1 $494 $500 $379 $445 reversed $501 $-1 #
edge $-1 $446 -28.417142671947374 $502 28.417142671947374 $444 $503 forward 7 unknown #
vertex $-1 $380 $504 #
straight-curve $-1 0 28.417142671947374 14.003293536039303 -1 0 0 I I #
plane-surface $-1 -70.52949613940855 0 0 1 0 0 0 0 -1 forward_v I I I I #
coedge $-1 $469 $395 $396 $453 forward $337 $-1 #
coedge $-1 $465 $404 $395 $451 reversed $406 $-1 #
edge $-1 $470 -28.417142671947374 $505 38.697287515091276 $450 $506 forward 7 unknown #
coedge $-1 $397 $396 $404 $461 reversed $274 $-1 #
edge $-1 $505 -70.52949613940855 $455 70.52949613940855 $396 $507 forward 7 unknown #
vertex $-1 $457 $508 #
vertex $-1 $472 $509 #
straight-curve $-1 -70.52949613940855 -38.697287515091276 -9.8349557522181854 0 0 -1 I I #
edge $-1 $458 -5.1400724215719507 $454 5.1400724215719507 $424 $510 forward 7 unknown #
vertex $-1 $425 $511 #
straight-curve $-1 0 -28.417142671947374 -5.6666179683970679 1 0 0 I I #
straight-curve $-1 0 -38.697287515091276 -5.6666179683970679 1 0 0 I I #
edge $-1 $407 -4.1683377838211175 $505 4.1683377838211175 $404 $512 forward 7 unknown #
edge $-1 $422 -14.003293536039303 $408 5.6666179683970679 $405 $513 forward 7 unknown #
point $-1 70.52949613940855 -38.697287515091276 -5.6666179683970679 #
point $-1 70.52949613940855 -28.417142671947374 -5.6666179683970679 #
coedge $-1 $410 $450 $412 $467 reversed $406 $-1 #
straight-curve $-1 70.52949613940855 0 14.003293536039303 0 1 0 I I #
edge $-1 $413 -14.003293536039303 $470 14.003293536039303 $465 $514 forward 7 unknown #
point $-1 70.52949613940855 28.417142671947374 14.003293536039303 #
coedge $-1 $414 $449 $416 $472 forward $337 $-1 #
vertex $-1 $451 $515 #
straight-curve $-1 0 28.417142671947374 -14.003293536039303 1 0 0 I I #
edge $-1 $455 -38.697287515091276 $417 28.417142671947374 $416 $516 forward 7 unknown #
point $-1 -70.52949613940855 28.417142671947374 -14.003293536039303 #
point $-1 70.52949613940855 -28.417142671947374 14.003293536039303 #
straight-curve $-1 -70.52949613940855 -28.417142671947374 0 0 0 -1 I I #
face $-1 $517 $518 $15 $-1 $519 reversed single #
loop $-1 $-1 $520 $427 #
plane-surface $-1 0 0 -14.003293536039303 0 0 1 1 0 0 forward_v I I I I #
coedge $-1 $521 $522 $523 $524 forward $428 $-1 #
coedge $-1 $525 $430 $526 $527 reversed $364 $-1 #
coedge $-1 $430 $525 $522 $528 forward $364 $-1 #
coedge $-1 $529 $530 $430 $483 reversed $531 $-1 #
edge $-1 $532 -5.1400724215719507 $533 5.1400724215719507 $482 $534 forward 7 unknown #
coedge $-1 $431 $443 $535 $536 forward $295 $-1 #
coedge $-1 $537 $432 $431 $486 reversed $377 $-1 #
edge $-1 $538 -70.52949613940855 $435 -44.46787355230245 $485 $447 forward 7 unknown #
vertex $-1 $439 $539 #
straight-curve $-1 44.46787355230245 28.417142671947374 68.083557012965784 0 0 1 I I #
straight-curve $-1 44.46787355230245 -8.8695028422274049 43.624089866097236 0 -0.65605901945558964 0.75470958851134928 I I #
point $-1 44.46787355230245 28.417142671947374 14.003293536039303 #
point $-1 44.46787355230245 16.879461914034341 14.003293536039305 #
straight-curve $-1 14.197638051480403 28.417142671947378 0.73070976086981787 1 0 0 I I #
coedge $-1 $441 $537 $540 $541 reversed $377 $-1 #
coedge $-1 $542 $444 $441 $495 forward $501 $-1 #
edge $-1 $446 -14.003293536039303 $543 14.003293536039303 $441 $544 forward 7 unknown #
face $-1 $-1 $531 $15 $-1 $545 reversed single #
plane-surface $-1 0 28.417142671947374 0 0 -1 0 0 0 -1 forward_v I I I I #
coedge $-1 $546 $547 $443 $499 reversed $518 $-1 #
edge $-1 $502 -70.52949613940855 $548 70.52949613940855 $498 $549 forward 7 unknown #
coedge $-1 $444 $550 $546 $551 reversed $501 $-1 #
loop $-1 $-1 $494 $517 #
vertex $-1 $445 $552 #
straight-curve $-1 -70.52949613940855 0 14.003293536039303 0 -1 0 I I #
point $-1 -70.52949613940855 28.417142671947374 14.003293536039303 #
vertex $-1 $461 $553 #
straight-curve $-1 70.52949613940855 0 -14.003293536039303 0 -1 0 I I #
straight-curve $-1 0 -38.697287515091276 -14.003293536039303 -1 0 0 I I #
point $-1 -70.52949613940855 -38.697287515091276 -5.6666179683970679 #
point $-1 -70.52949613940855 -38.697287515091276 -14.003293536039303 #
straight-curve $-1 -70.52949613940855 -33.557215093519325 -5.6666179683970679 0 -1 0 I I #
point $-1 -70.52949613940855 -28.417142671947374 -5.6666179683970679 #
straight-curve $-1 70.52949613940855 -38.697287515091276 -9.8349557522181854 0 0 -1 I I #
straight-curve $-1 70.52949613940855 -28.417142671947374 0 0 0 -1 I I #
straight-curve $-1 70.52949613940855 28.417142671947374 0 0 0 -1 I I #
point $-1 70.52949613940855 28.417142671947374 -14.003293536039303 #
straight-curve $-1 -70.52949613940855 0 -14.003293536039303 0 1 0 I I #
face $-1 $442 $501 $15 $-1 $554 reversed single #
loop $-1 $-1 $526 $476 #
plane-surface $-1 0 -28.417142671947374 0 0 1 0 0 0 1 forward_v I I I I #
coedge $-1 $555 $540 $556 $557 forward $477 $-1 #
coedge $-1 $558 $479 $555 $559 reversed $428 $-1 #
coedge $-1 $479 $558 $481 $528 reversed $428 $-1 #
coedge $-1 $550 $542 $479 $524 reversed $501 $-1 #
edge $-1 $560 -4.1683377838211175 $561 4.1683377838211175 $523 $562 forward 7 unknown #
coedge $-1 $481 $480 $550 $563 forward $364 $-1 #
coedge $-1 $547 $546 $480 $527 forward $518 $-1 #
edge $-1 $564 -70.52949613940855 $533 70.52949613940855 $526 $565 forward 7 unknown #
edge $-1 $560 -70.52949613940855 $532 70.52949613940855 $522 $566 forward 7 unknown #
coedge $-1 $556 $482 $558 $567 forward $531 $-1 #
coedge $-1 $482 $535 $547 $568 forward $531 $-1 #
loop $-1 $-1 $530 $496 #
vertex $-1 $483 $569 #
vertex $-1 $483 $570 #
straight-curve $-1 70.52949613940855 -33.557215093519325 -5.6666179683970679 0 1 0 I I #
coedge $-1 $530 $571 $484 $536 reversed $531 $-1 #
edge $-1 $548 -28.417142671947374 $538 28.417142671947374 $535 $572 forward 7 unknown #
coedge $-1 $493 $485 $571 $573 forward $377 $-1 #
vertex $-1 $536 $574 #
point $-1 44.46787355230245 28.417142671947374 0.73070976086982142 #
coedge $-1 $520 $575 $493 $541 forward $477 $-1 #
edge $-1 $543 -70.52949613940855 $576 70.52949613940855 $493 $577 forward 7 unknown #
coedge $-1 $523 $494 $575 $578 reversed $501 $-1 #
vertex $-1 $541 $579 #
straight-curve $-1 -70.52949613940855 28.417142671947374 0 0 0 -1 I I #
plane-surface $-1 70.52949613940855 0 0 -1 0 0 0 0 1 forward_v I I I I #
coedge $-1 $526 $498 $500 $551 forward $518 $-1 #
coedge $-1 $498 $526 $530 $568 reversed $518 $-1 #
vertex $-1 $536 $580 #
straight-curve $-1 0 -28.417142671947374 14.003293536039303 1 0 0 I I #
coedge $-1 $500 $523 $525 $563 reversed $501 $-1 #
edge $-1 $502 -14.003293536039303 $564 5.6666179683970679 $500 $581 forward 7 unknown #
point $-1 -70.52949613940855 -28.417142671947374 14.003293536039303 #
point $-1 70.52949613940855 -38.697287515091276 -14.003293536039303 #
plane-surface $-1 -70.52949613940855 0 0 1 0 0 0 0 -1 forward_v I I I I #
coedge $-1 $575 $520 $521 $559 forward $477 $-1 #
coedge $-1 $571 $529 $520 $557 reversed $531 $-1 #
edge $-1 $576 -28.417142671947374 $582 38.697287515091276 $556 $583 forward 7 unknown #
coedge $-1 $522 $521 $529 $567 reversed $428 $-1 #
edge $-1 $582 -70.52949613940855 $561 70.52949613940855 $521 $584 forward 7 unknown #
vertex $-1 $563 $585 #
vertex $-1 $578 $586 #
straight-curve $-1 -70.52949613940855 -38.697287515091276 -9.8349557522181854 0 0 -1 I I #
edge $-1 $564 -5.1400724215719507 $560 5.1400724215719507 $550 $587 forward 7 unknown #
vertex $-1 $551 $588 #
straight-curve $-1 0 -28.417142671947374 -5.6666179683970679 1 0 0 I I #
straight-curve $-1 0 -38.697287515091276 -5.6666179683970679 1 0 0 I I #
edge $-1 $532 -4.1683377838211175 $582 4.1683377838211175 $529 $589 forward 7 unknown #
edge $-1 $548 -14.003293536039303 $533 5.6666179683970679 $530 $590 forward 7 unknown #
point $-1 70.52949613940855 -38.697287515091276 -5.6666179683970679 #
point $-1 70.52949613940855 -28.417142671947374 -5.6666179683970679 #
coedge $-1 $535 $556 $537 $573 reversed $531 $-1 #
straight-curve $-1 70.52949613940855 0 14.003293536039303 0 1 0 I I #
edge $-1 $538 -14.003293536039303 $576 14.003293536039303 $571 $591 forward 7 unknown #
point $-1 70.52949613940855 28.417142671947374 14.003293536039303 #
coedge $-1 $540 $555 $542 $578 forward $477 $-1 #
vertex $-1 $557 $592 #
straight-curve $-1 0 28.417142671947374 -14.003293536039303 1 0 0 I I #
edge $-1 $561 -38.697287515091276 $543 28.417142671947374 $542 $593 forward 7 unknown #
point $-1 -70.52949613940855 28.417142671947374 -14.003293536039303 #
point $-1 70.52949613940855 -28.417142671947374 14.003293536039303 #
straight-curve $-1 -70.52949613940855 -28.417142671947374 0 0 0 -1 I I #
vertex $-1 $567 $594 #
straight-curve $-1 70.52949613940855 0 -14.003293536039303 0 -1 0 I I #
straight-curve $-1 0 -38.697287515091276 -14.003293536039303 -1 0 0 I I #
point $-1 -70.52949613940855 -38.697287515091276 -5.6666179683970679 #
point $-1 -70.52949613940855 -38.697287515091276 -14.003293536039303 #
straight-curve $-1 -70.52949613940855 -33.557215093519325 -5.6666179683970679 0 -1 0 I I #
point $-1 -70.52949613940855 -28.417142671947374 -5.6666179683970679 #
straight-curve $-1 70.52949613940855 -38.697287515091276 -9.8349557522181854 0 0 -1 I I #
straight-curve $-1 70.52949613940855 -28.417142671947374 0 0 0 -1 I I #
straight-curve $-1 70.52949613940855 28.417142671947374 0 0 0 -1 I I #
point $-1 70.52949613940855 28.417142671947374 -14.003293536039303 #
straight-curve $-1 -70.52949613940855 0 -14.003293536039303 0 1 0 I I #
point $-1 70.52949613940855 -38.697287515091276 -14.003293536039303 #
End-of-ACIS-data 