500 0 14 0           
7 Unknown 11 ACIS 5.0 NT 24 Thu Mar 25 15:23:33 1999 
-1 9.9999999999999995e-007 1e-010 
body $-1 $14 $-1 $15 #
body $-1 $16 $-1 $17 #
body $-1 $18 $-1 $19 #
body $-1 $20 $-1 $21 #
body $-1 $22 $-1 $23 #
body $-1 $24 $-1 $25 #
body $-1 $26 $-1 $27 #
body $-1 $28 $-1 $29 #
body $-1 $30 $-1 $31 #
body $-1 $32 $-1 $33 #
body $-1 $34 $-1 $35 #
body $-1 $36 $-1 $37 #
body $-1 $38 $-1 $39 #
body $-1 $40 $-1 $41 #
lump $-1 $-1 $42 $0 #
transform $-1 1 0 0 0 1 0 0 0 1 66.973479415265359 28.673078360213282 5.7902694634702989 1 rotate no_reflect no_shear #
lump $-1 $-1 $43 $1 #
transform $-1 1 0 0 0 1 0 0 0 1 66.973479415265359 28.673078360213282 5.7902694634702989 1 rotate no_reflect no_shear #
lump $-1 $-1 $44 $2 #
transform $-1 1 0 0 0 1 0 0 0 1 66.973479415265359 28.673078360213282 5.7902694634702989 1 rotate no_reflect no_shear #
lump $-1 $-1 $45 $3 #
transform $-1 1 0 0 0 1 0 0 0 1 66.973479415265359 28.673078360213282 5.7902694634702989 1 rotate no_reflect no_shear #
lump $-1 $-1 $46 $4 #
transform $-1 1 0 0 0 1 0 0 0 1 66.973479415265359 28.673078360213282 5.7902694634702989 1 rotate no_reflect no_shear #
lump $-1 $-1 $47 $5 #
transform $-1 1 0 0 0 1 0 0 0 1 66.973479415265359 28.673078360213282 5.7902694634702989 1 rotate no_reflect no_shear #
lump $-1 $-1 $48 $6 #
transform $-1 1 0 0 0 1 0 0 0 1 66.973479415265359 28.673078360213282 5.7902694634702989 1 rotate no_reflect no_shear #
lump $-1 $-1 $49 $7 #
transform $-1 1 0 0 0 1 0 0 0 1 66.973479415265359 28.673078360213282 5.7902694634702989 1 rotate no_reflect no_shear #
lump $-1 $-1 $50 $8 #
transform $-1 1 0 0 0 1 0 0 0 1 66.973479415265359 28.673078360213282 5.7902694634702989 1 rotate no_reflect no_shear #
lump $-1 $-1 $51 $9 #
transform $-1 1 0 0 0 1 0 0 0 1 66.973479415265359 28.673078360213282 5.7902694634702989 1 rotate no_reflect no_shear #
lump $-1 $-1 $52 $10 #
transform $-1 1 0 0 0 1 0 0 0 1 66.973479415265359 28.673078360213282 5.7902694634702989 1 rotate no_reflect no_shear #
lump $-1 $-1 $53 $11 #
transform $-1 1 0 0 0 1 0 0 0 1 66.973479415265359 28.673078360213282 5.7902694634702989 1 rotate no_reflect no_shear #
lump $-1 $-1 $54 $12 #
transform $-1 1 0 0 0 1 0 0 0 1 66.973479415265359 28.673078360213282 5.7902694634702989 1 rotate no_reflect no_shear #
lump $-1 $-1 $55 $13 #
transform $-1 1 0 0 0 1 0 0 0 1 66.973479415265359 28.673078360213282 5.7902694634702989 1 rotate no_reflect no_shear #
shell $-1 $-1 $-1 $56 $-1 $14 #
shell $-1 $-1 $-1 $57 $-1 $16 #
shell $-1 $-1 $-1 $58 $-1 $18 #
shell $-1 $-1 $-1 $59 $-1 $20 #
shell $-1 $-1 $-1 $60 $-1 $22 #
shell $-1 $-1 $-1 $61 $-1 $24 #
shell $-1 $-1 $-1 $62 $-1 $26 #
shell $-1 $-1 $-1 $63 $-1 $28 #
shell $-1 $-1 $-1 $64 $-1 $30 #
shell $-1 $-1 $-1 $65 $-1 $32 #
shell $-1 $-1 $-1 $66 $-1 $34 #
shell $-1 $-1 $-1 $67 $-1 $36 #
shell $-1 $-1 $-1 $68 $-1 $38 #
shell $-1 $-1 $-1 $69 $-1 $40 #
face $-1 $70 $71 $42 $-1 $72 forward single #
face $-1 $73 $74 $43 $-1 $75 reversed single #
face $-1 $76 $77 $44 $-1 $78 reversed single #
face $-1 $79 $80 $45 $-1 $81 reversed single #
face $-1 $82 $83 $46 $-1 $84 forward single #
face $-1 $85 $86 $47 $-1 $87 forward single #
face $-1 $88 $89 $48 $-1 $90 reversed single #
face $-1 $91 $92 $49 $-1 $93 forward single #
face $-1 $94 $95 $50 $-1 $96 forward single #
face $-1 $97 $98 $51 $-1 $99 forward single #
face $-1 $100 $101 $52 $-1 $102 reversed single #
face $-1 $103 $104 $53 $-1 $105 forward single #
face $-1 $106 $107 $54 $-1 $108 forward single #
face $-1 $109 $110 $55 $-1 $111 forward single #
face $-1 $112 $113 $42 $-1 $114 reversed single #
loop $-1 $-1 $115 $56 #
plane-surface $-1 0 0 5.7902694634702989 0 0 1 1 0 0 forward_v I I I I #
face $-1 $116 $117 $43 $-1 $118 reversed single #
loop $-1 $-1 $119 $57 #
plane-surface $-1 -58.392940488324761 -26.502615281139203 0 1 0 0 0 0 -1 forward_v I I I I #
face $-1 $120 $121 $44 $-1 $122 reversed single #
loop $-1 $-1 $123 $58 #
plane-surface $-1 -56.892940488324761 24.332152202065121 0 0 1 0 0 0 1 forward_v I I I I #
face $-1 $124 $125 $45 $-1 $126 reversed single #
loop $-1 $-1 $127 $59 #
plane-surface $-1 109.58587172789134 24.332152202065128 184.76962645053814 0 -1 0 -0.84804810408105047 0 -0.52991925155115449 forward_v I I I I #
face $-1 $128 $129 $46 $-1 $130 forward single #
loop $-1 $131 $132 $60 #
cone-surface $-1 63.963476349611895 17.162999023054454 2.204172656542164 -0.84804810408105047 0 -0.52991925155115449 0.52991925155115449 0 -0.84804810408105047 1 I I 0 1 1 forward I I I I #
face $-1 $133 $134 $47 $-1 $135 forward single #
loop $-1 $136 $137 $61 #
cone-surface $-1 63.963476349611895 21.464490930460855 2.204172656542164 -0.84804810408105047 0 -0.52991925155115449 0.52991925155115449 0 -0.84804810408105047 1 I I 0 1 1 forward I I I I #
face $-1 $138 $139 $48 $-1 $140 reversed single #
loop $-1 $-1 $141 $62 #
plane-surface $-1 -180.56694389891948 -9.1559575881349282 73.153287623882065 0 1 0 -0.84804810408105047 0 0.52991925155115449 forward_v I I I I #
face $-1 $142 $143 $49 $-1 $144 forward single #
loop $-1 $145 $146 $63 #
cone-surface $-1 -65.419049868447459 -7.3247660705079447 3.7162828323865242 0.84804810408105047 0 -0.52991925155115449 0.26495962577557725 0 0.42402405204052523 1 I I 0 1 0.5 forward I I I I #
face $-1 $147 $148 $50 $-1 $149 forward single #
loop $-1 $150 $151 $64 #
cone-surface $-1 -65.419049868447459 -4.5779787940674694 3.7162828323865242 0.84804810408105047 0 -0.52991925155115449 0.26495962577557725 0 0.42402405204052523 1 I I 0 1 0.5 forward I I I I #
face $-1 $152 $153 $51 $-1 $154 forward single #
loop $-1 $155 $156 $65 #
cone-surface $-1 -65.419049868447459 -1.8311915176269906 3.7162828323865242 0.84804810408105047 0 -0.52991925155115449 0.26495962577557725 0 0.42402405204052523 1 I I 0 1 0.5 forward I I I I #
face $-1 $157 $158 $52 $-1 $159 reversed single #
loop $-1 $-1 $160 $66 #
plane-surface $-1 -180.56694389891948 15.1761946139302 73.153287623882065 0 1 0 -0.84804810408105047 0 0.52991925155115449 forward_v I I I I #
face $-1 $161 $162 $53 $-1 $163 forward single #
loop $-1 $164 $165 $67 #
cone-surface $-1 -65.419049868447459 17.007386131557183 3.7162828323865242 0.84804810408105047 0 -0.52991925155115449 0.26495962577557725 0 0.42402405204052523 1 I I 0 1 0.5 forward I I I I #
face $-1 $166 $167 $54 $-1 $168 forward single #
loop $-1 $169 $170 $68 #
cone-surface $-1 -65.419049868447459 19.754173407997655 3.7162828323865242 0.84804810408105047 0 -0.52991925155115449 0.26495962577557725 0 0.42402405204052523 1 I I 0 1 0.5 forward I I I I #
face $-1 $171 $172 $55 $-1 $173 forward single #
loop $-1 $174 $175 $69 #
cone-surface $-1 -65.419049868447459 22.500960684438141 3.7162828323865242 0.84804810408105047 0 -0.52991925155115449 0.26495962577557725 0 0.42402405204052523 1 I I 0 1 0.5 forward I I I I #
face $-1 $176 $177 $42 $-1 $178 reversed single #
loop $-1 $-1 $179 $70 #
plane-surface $-1 0 0 -5.7902694634702989 0 0 1 1 0 0 forward_v I I I I #
coedge $-1 $180 $181 $182 $183 forward $71 $-1 #
face $-1 $184 $185 $43 $-1 $186 reversed single #
loop $-1 $-1 $187 $73 #
plane-surface $-1 -56.892940488324761 -24.332152202065124 0 0 -1 0 0 0 -1 forward_v I I I I #
coedge $-1 $188 $189 $190 $191 forward $74 $-1 #
face $-1 $192 $193 $44 $-1 $194 reversed single #
loop $-1 $-1 $195 $76 #
plane-surface $-1 -58.392940488324761 26.5026152811392 0 1 0 0 0 0 -1 forward_v I I I I #
coedge $-1 $196 $197 $198 $199 forward $77 $-1 #
face $-1 $200 $201 $45 $-1 $202 reversed single #
loop $-1 $-1 $203 $79 #
plane-surface $-1 -4.007592755762758 19.313744976757661 113.78855427951 0.84804810408105047 0 0.52991925155115449 0.52991925155115449 0 -0.84804810408105047 forward_v I I I I #
coedge $-1 $204 $205 $206 $207 reversed $80 $-1 #
face $-1 $-1 $208 $46 $-1 $209 forward single #
loop $-1 $210 $211 $82 #
cone-surface $-1 62.277577320105394 17.162999023054454 1.150706057645646 -0.84804810408105047 0 -0.52991925155115449 0.26495962577557725 0 -0.42402405204052523 1 I I -0.70710678118654746 0.70710678118654746 0.5 forward I I I I #
loop $-1 $-1 $212 $60 #
coedge $-1 $132 $132 $213 $214 reversed $83 $-1 #
face $-1 $-1 $215 $47 $-1 $216 forward single #
loop $-1 $217 $218 $85 #
cone-surface $-1 62.277577320105394 21.464490930460855 1.150706057645646 -0.84804810408105047 0 -0.52991925155115449 0.26495962577557725 0 -0.42402405204052523 1 I I -0.70710678118654746 0.70710678118654746 0.5 forward I I I I #
loop $-1 $-1 $219 $61 #
coedge $-1 $137 $137 $220 $221 reversed $86 $-1 #
face $-1 $222 $223 $48 $-1 $224 reversed single #
loop $-1 $-1 $225 $88 #
plane-surface $-1 -66.973479415265373 -4.5779787940674659 2.1722154528539193 -0.84804810408105047 0 0.52991925155115449 0.52991925155115449 0 0.84804810408105047 forward_v I I I I #
coedge $-1 $226 $227 $228 $229 reversed $89 $-1 #
face $-1 $-1 $230 $49 $-1 $231 forward single #
loop $-1 $232 $233 $91 #
cone-surface $-1 -64.783013790386676 -7.3247660705079447 3.3188433937231583 0.84804810408105047 0 -0.52991925155115449 0.13247981288778862 0 0.21201202602026262 1 I I -0.70710678118654746 0.70710678118654746 0.25 forward I I I I #
loop $-1 $-1 $234 $63 #
coedge $-1 $146 $146 $235 $236 reversed $92 $-1 #
face $-1 $-1 $237 $50 $-1 $238 forward single #
loop $-1 $239 $240 $94 #
cone-surface $-1 -64.783013790386676 -4.5779787940674694 3.3188433937231583 0.84804810408105047 0 -0.52991925155115449 0.13247981288778862 0 0.21201202602026262 1 I I -0.70710678118654746 0.70710678118654746 0.25 forward I I I I #
loop $-1 $-1 $241 $64 #
coedge $-1 $151 $151 $242 $243 reversed $95 $-1 #
face $-1 $-1 $244 $51 $-1 $245 forward single #
loop $-1 $246 $247 $97 #
cone-surface $-1 -64.783013790386676 -1.8311915176269906 3.3188433937231583 0.84804810408105047 0 -0.52991925155115449 0.13247981288778862 0 0.21201202602026262 1 I I -0.70710678118654746 0.70710678118654746 0.25 forward I I I I #
loop $-1 $-1 $248 $65 #
coedge $-1 $156 $156 $249 $250 reversed $98 $-1 #
face $-1 $251 $252 $52 $-1 $253 reversed single #
loop $-1 $-1 $254 $100 #
plane-surface $-1 -66.973479415265373 19.754173407997662 2.1722154528539193 -0.84804810408105047 0 0.52991925155115449 0.52991925155115449 0 0.84804810408105047 forward_v I I I I #
coedge $-1 $255 $256 $257 $258 reversed $101 $-1 #
face $-1 $-1 $259 $53 $-1 $260 forward single #
loop $-1 $261 $262 $103 #
cone-surface $-1 -64.783013790386676 17.007386131557183 3.3188433937231583 0.84804810408105047 0 -0.52991925155115449 0.13247981288778862 0 0.21201202602026262 1 I I -0.70710678118654746 0.70710678118654746 0.25 forward I I I I #
loop $-1 $-1 $263 $67 #
coedge $-1 $165 $165 $264 $265 reversed $104 $-1 #
face $-1 $-1 $266 $54 $-1 $267 forward single #
loop $-1 $268 $269 $106 #
cone-surface $-1 -64.783013790386676 19.754173407997655 3.3188433937231583 0.84804810408105047 0 -0.52991925155115449 0.13247981288778862 0 0.21201202602026262 1 I I -0.70710678118654746 0.70710678118654746 0.25 forward I I I I #
loop $-1 $-1 $270 $68 #
coedge $-1 $170 $170 $271 $272 reversed $107 $-1 #
face $-1 $-1 $273 $55 $-1 $274 forward single #
loop $-1 $275 $276 $109 #
cone-surface $-1 -64.783013790386676 22.500960684438141 3.3188433937231583 0.84804810408105047 0 -0.52991925155115449 0.13247981288778862 0 0.21201202602026262 1 I I -0.70710678118654746 0.70710678118654746 0.25 forward I I I I #
loop $-1 $-1 $277 $69 #
coedge $-1 $175 $175 $278 $279 reversed $110 $-1 #
face $-1 $280 $281 $42 $-1 $282 reversed single #
loop $-1 $-1 $283 $112 #
plane-surface $-1 0 -28.673078360213282 0 0 1 0 0 0 1 forward_v I I I I #
coedge $-1 $284 $285 $286 $287 forward $113 $-1 #
coedge $-1 $288 $115 $289 $290 forward $71 $-1 #
coedge $-1 $115 $288 $291 $292 forward $71 $-1 #
coedge $-1 $293 $294 $115 $183 reversed $295 $-1 #
edge $-1 $296 -28.673078360213282 $297 28.673078360213282 $182 $298 forward 7 unknown #
face $-1 $299 $300 $43 $-1 $301 forward single #
loop $-1 $-1 $302 $116 #
plane-surface $-1 -55.392940488324761 -26.502615281139203 0 -1 0 0 0 0 1 forward_v I I I I #
coedge $-1 $303 $304 $305 $306 forward $117 $-1 #
coedge $-1 $307 $119 $308 $309 reversed $74 $-1 #
coedge $-1 $119 $307 $310 $311 reversed $74 $-1 #
coedge $-1 $304 $303 $119 $191 reversed $117 $-1 #
edge $-1 $312 -5.7902694634702989 $313 5.7902694634702989 $190 $314 forward 7 unknown #
face $-1 $315 $316 $44 $-1 $317 reversed single #
loop $-1 $-1 $318 $120 #
plane-surface $-1 -55.392940488324761 26.5026152811392 0 -1 0 0 0 0 1 forward_v I I I I #
coedge $-1 $319 $320 $321 $322 reversed $121 $-1 #
coedge $-1 $323 $123 $324 $325 reversed $77 $-1 #
coedge $-1 $123 $323 $326 $327 reversed $77 $-1 #
coedge $-1 $320 $319 $123 $199 reversed $121 $-1 #
edge $-1 $328 -5.7902694634702989 $329 5.7902694634702989 $198 $330 forward 7 unknown #
face $-1 $331 $332 $45 $-1 $333 forward single #
loop $-1 $-1 $334 $124 #
plane-surface $-1 109.58587172789134 14.295337751450194 184.76962645053814 0 1 0 0.84804810408105047 0 0.52991925155115449 forward_v I I I I #
coedge $-1 $335 $336 $337 $338 reversed $125 $-1 #
coedge $-1 $205 $127 $339 $340 reversed $80 $-1 #
coedge $-1 $127 $204 $335 $341 reversed $80 $-1 #
coedge $-1 $337 $342 $127 $207 forward $332 $-1 #
edge $-1 $343 -12.180543551319687 $344 -8.6842873749447307 $206 $345 forward 7 unknown #
loop $-1 $-1 $213 $128 #
plane-surface $-1 -4.007592755762758 19.313744976757661 113.78855427951 0.84804810408105047 0 0.52991925155115449 0.52991925155115449 0 -0.84804810408105047 forward_v I I I I #
loop $-1 $-1 $346 $82 #
coedge $-1 $211 $211 $212 $347 reversed $129 $-1 #
coedge $-1 $212 $212 $211 $347 forward $131 $-1 #
coedge $-1 $213 $213 $132 $214 forward $208 $-1 #
edge $-1 $348 0 $348 6.2831853071796004 $213 $349 forward 7 unknown #
loop $-1 $-1 $220 $133 #
plane-surface $-1 -4.007592755762758 19.313744976757661 113.78855427951 0.84804810408105047 0 0.52991925155115449 0.52991925155115449 0 -0.84804810408105047 forward_v I I I I #
loop $-1 $-1 $350 $85 #
coedge $-1 $218 $218 $219 $351 reversed $134 $-1 #
coedge $-1 $219 $219 $218 $351 forward $136 $-1 #
coedge $-1 $220 $220 $137 $221 forward $215 $-1 #
edge $-1 $352 0 $352 6.2831853071796004 $220 $353 forward 7 unknown #
face $-1 $354 $355 $48 $-1 $356 reversed single #
loop $-1 $-1 $357 $138 #
plane-surface $-1 -180.56694389891948 -3.5527136788005009e-015 73.153287623882065 0 -1 0 0.84804810408105047 0 -0.52991925155115449 forward_v I I I I #
coedge $-1 $358 $359 $360 $361 reversed $139 $-1 #
coedge $-1 $227 $141 $362 $363 reversed $89 $-1 #
coedge $-1 $141 $226 $358 $364 reversed $89 $-1 #
coedge $-1 $360 $365 $141 $229 forward $366 $-1 #
edge $-1 $367 23.309992534194379 $368 25.570803523749092 $228 $369 forward 7 unknown #
loop $-1 $-1 $235 $142 #
plane-surface $-1 -66.973479415265373 -4.5779787940674659 2.1722154528539193 -0.84804810408105047 0 0.52991925155115449 0.52991925155115449 0 0.84804810408105047 forward_v I I I I #
loop $-1 $-1 $370 $91 #
coedge $-1 $233 $233 $234 $371 reversed $143 $-1 #
coedge $-1 $234 $234 $233 $371 forward $145 $-1 #
coedge $-1 $235 $235 $146 $236 forward $230 $-1 #
edge $-1 $372 0 $372 6.2831853071796004 $235 $373 forward 7 unknown #
loop $-1 $-1 $242 $147 #
plane-surface $-1 -66.973479415265373 -4.5779787940674659 2.1722154528539193 -0.84804810408105047 0 0.52991925155115449 0.52991925155115449 0 0.84804810408105047 forward_v I I I I #
loop $-1 $-1 $374 $94 #
coedge $-1 $240 $240 $241 $375 reversed $148 $-1 #
coedge $-1 $241 $241 $240 $375 forward $150 $-1 #
coedge $-1 $242 $242 $151 $243 forward $237 $-1 #
edge $-1 $376 0 $376 6.2831853071796004 $242 $377 forward 7 unknown #
loop $-1 $-1 $249 $152 #
plane-surface $-1 -66.973479415265373 -4.5779787940674659 2.1722154528539193 -0.84804810408105047 0 0.52991925155115449 0.52991925155115449 0 0.84804810408105047 forward_v I I I I #
loop $-1 $-1 $378 $97 #
coedge $-1 $247 $247 $248 $379 reversed $153 $-1 #
coedge $-1 $248 $248 $247 $379 forward $155 $-1 #
coedge $-1 $249 $249 $156 $250 forward $244 $-1 #
edge $-1 $380 0 $380 6.2831853071796004 $249 $381 forward 7 unknown #
face $-1 $382 $383 $52 $-1 $384 forward single #
loop $-1 $-1 $385 $157 #
plane-surface $-1 -180.56694389891948 24.332152202065124 73.153287623882065 0 -1 0 0.84804810408105047 0 -0.52991925155115449 forward_v I I I I #
coedge $-1 $386 $387 $388 $389 reversed $158 $-1 #
coedge $-1 $256 $160 $390 $391 reversed $101 $-1 #
coedge $-1 $160 $255 $386 $392 reversed $101 $-1 #
coedge $-1 $388 $393 $160 $258 forward $383 $-1 #
edge $-1 $394 23.309992534194379 $395 25.570803523749092 $257 $396 forward 7 unknown #
loop $-1 $-1 $264 $161 #
plane-surface $-1 -66.973479415265373 19.754173407997662 2.1722154528539193 -0.84804810408105047 0 0.52991925155115449 0.52991925155115449 0 0.84804810408105047 forward_v I I I I #
loop $-1 $-1 $397 $103 #
coedge $-1 $262 $262 $263 $398 reversed $162 $-1 #
coedge $-1 $263 $263 $262 $398 forward $164 $-1 #
coedge $-1 $264 $264 $165 $265 forward $259 $-1 #
edge $-1 $399 0 $399 6.2831853071796004 $264 $400 forward 7 unknown #
loop $-1 $-1 $271 $166 #
plane-surface $-1 -66.973479415265373 19.754173407997662 2.1722154528539193 -0.84804810408105047 0 0.52991925155115449 0.52991925155115449 0 0.84804810408105047 forward_v I I I I #
loop $-1 $-1 $401 $106 #
coedge $-1 $269 $269 $270 $402 reversed $167 $-1 #
coedge $-1 $270 $270 $269 $402 forward $169 $-1 #
coedge $-1 $271 $271 $170 $272 forward $266 $-1 #
edge $-1 $403 0 $403 6.2831853071796004 $271 $404 forward 7 unknown #
loop $-1 $-1 $278 $171 #
plane-surface $-1 -66.973479415265373 19.754173407997662 2.1722154528539193 -0.84804810408105047 0 0.52991925155115449 0.52991925155115449 0 0.84804810408105047 forward_v I I I I #
loop $-1 $-1 $405 $109 #
coedge $-1 $276 $276 $277 $406 reversed $172 $-1 #
coedge $-1 $277 $277 $276 $406 forward $174 $-1 #
coedge $-1 $278 $278 $175 $279 forward $273 $-1 #
edge $-1 $407 0 $407 6.2831853071796004 $278 $408 forward 7 unknown #
face $-1 $409 $410 $42 $-1 $411 reversed single #
loop $-1 $-1 $412 $176 #
plane-surface $-1 -66.973479415265359 0 0 1 0 0 0 0 -1 forward_v I I I I #
coedge $-1 $413 $291 $414 $415 forward $177 $-1 #
coedge $-1 $416 $179 $413 $417 forward $113 $-1 #
coedge $-1 $179 $416 $418 $419 forward $113 $-1 #
coedge $-1 $294 $293 $179 $287 reversed $295 $-1 #
edge $-1 $420 -28.673078360213282 $421 28.673078360213282 $286 $422 forward 7 unknown #
coedge $-1 $181 $180 $423 $424 forward $71 $-1 #
coedge $-1 $425 $426 $180 $290 reversed $410 $-1 #
edge $-1 $297 -66.973479415265359 $427 66.973479415265359 $289 $428 forward 7 unknown #
coedge $-1 $283 $429 $181 $292 reversed $177 $-1 #
edge $-1 $430 -66.973479415265359 $296 66.973479415265359 $291 $431 forward 7 unknown #
coedge $-1 $286 $182 $429 $432 forward $295 $-1 #
coedge $-1 $182 $286 $425 $433 reversed $295 $-1 #
loop $-1 $-1 $293 $409 #
vertex $-1 $183 $434 #
vertex $-1 $183 $435 #
straight-curve $-1 66.973479415265359 0 5.7902694634702989 0 1 0 I I #
face $-1 $436 $437 $43 $-1 $438 reversed single #
loop $-1 $-1 $439 $184 #
plane-surface $-1 0 0 5.7902694634702989 0 0 1 1 0 0 forward_v I I I I #
coedge $-1 $440 $441 $442 $443 reversed $185 $-1 #
coedge $-1 $190 $187 $444 $445 reversed $117 $-1 #
coedge $-1 $187 $190 $446 $447 reversed $117 $-1 #
coedge $-1 $441 $440 $187 $306 reversed $185 $-1 #
edge $-1 $448 -5.7902694634702989 $449 5.7902694634702989 $305 $450 forward 7 unknown #
coedge $-1 $189 $188 $451 $452 reversed $74 $-1 #
coedge $-1 $444 $453 $188 $309 forward $437 $-1 #
edge $-1 $454 -15.42177071964368 $313 -11.080844561495523 $308 $455 forward 7 unknown #
coedge $-1 $456 $446 $189 $311 forward $300 $-1 #
edge $-1 $312 11.080844561495523 $457 15.42177071964368 $310 $458 forward 7 unknown #
vertex $-1 $311 $459 #
vertex $-1 $309 $460 #
straight-curve $-1 -58.392940488324761 -24.332152202065124 0 0 0 -1 I I #
face $-1 $461 $462 $44 $-1 $463 forward single #
loop $-1 $-1 $464 $192 #
plane-surface $-1 0 0 -5.7902694634702989 0 0 1 1 0 0 forward_v I I I I #
coedge $-1 $465 $466 $323 $467 forward $193 $-1 #
coedge $-1 $198 $195 $468 $469 reversed $121 $-1 #
coedge $-1 $195 $198 $470 $471 reversed $121 $-1 #
coedge $-1 $472 $473 $195 $322 forward $474 $-1 #
edge $-1 $475 -5.7902694634702989 $476 5.7902694634702989 $321 $477 forward 7 unknown #
coedge $-1 $197 $196 $318 $467 reversed $77 $-1 #
coedge $-1 $468 $464 $196 $325 forward $316 $-1 #
edge $-1 $478 26.946470244162381 $329 29.946470244162381 $324 $479 forward 7 unknown #
coedge $-1 $480 $470 $197 $327 forward $462 $-1 #
edge $-1 $328 -29.946470244162381 $481 -26.946470244162381 $326 $482 forward 7 unknown #
vertex $-1 $327 $483 #
vertex $-1 $325 $484 #
straight-curve $-1 -58.392940488324761 24.332152202065121 0 0 0 -1 I I #
face $-1 $-1 $485 $45 $-1 $486 reversed single #
loop $-1 $-1 $206 $200 #
plane-surface $-1 0 0 5.7902694634702989 0 0 1 1 0 0 forward_v I I I I #
coedge $-1 $487 $488 $489 $490 reversed $201 $-1 #
coedge $-1 $491 $203 $205 $341 forward $125 $-1 #
coedge $-1 $203 $491 $487 $492 forward $125 $-1 #
coedge $-1 $489 $206 $203 $338 forward $332 $-1 #
edge $-1 $344 -14.675279713686297 $493 -4.6384652630713639 $337 $494 forward 7 unknown #
coedge $-1 $495 $496 $204 $340 forward $485 $-1 #
edge $-1 $497 -92.189723429413121 $343 -86.594543761798775 $339 $498 forward 7 unknown #
edge $-1 $344 127.34924386520174 $497 133.94695883053066 $205 $499 forward 7 unknown #
coedge $-1 $206 $489 $495 $500 forward $332 $-1 #
vertex $-1 $207 $501 #
vertex $-1 $207 $502 #
straight-curve $-1 54.792935863945672 24.332152202065128 5.7902694634702954 -1 0 0 I I #
coedge $-1 $346 $346 $-1 $503 reversed $210 $-1 #
edge $-1 $504 0 $504 6.2831853071796004 $211 $505 forward 7 unknown #
vertex $-1 $214 $506 #
ellipse-curve $-1 65.225351327077874 17.162999023054454 2.9926796296631086 0.84804810408105047 0 0.52991925155115449 0.52991925155115449 0 -0.84804810408105047 1 I I #
coedge $-1 $350 $350 $-1 $507 reversed $217 $-1 #
edge $-1 $508 0 $508 6.2831853071796004 $218 $509 forward 7 unknown #
vertex $-1 $221 $510 #
ellipse-curve $-1 65.225351327077874 21.464490930460855 2.9926796296631086 0.84804810408105047 0 0.52991925155115449 0.52991925155115449 0 -0.84804810408105047 1 I I #
face $-1 $-1 $366 $48 $-1 $511 forward single #
loop $-1 $-1 $512 $222 #
plane-surface $-1 -66.973479415265359 0 0 1 0 0 0 0 -1 forward_v I I I I #
coedge $-1 $513 $514 $515 $516 reversed $223 $-1 #
coedge $-1 $517 $225 $227 $364 forward $139 $-1 #
coedge $-1 $225 $517 $513 $518 forward $139 $-1 #
coedge $-1 $515 $228 $225 $361 forward $366 $-1 #
edge $-1 $368 -6.8669681911011953 $519 2.2889893970337294 $360 $520 forward 7 unknown #
coedge $-1 $521 $522 $226 $363 forward $355 $-1 #
edge $-1 $523 -34.404428359087092 $367 -30.786374348470734 $362 $524 forward 7 unknown #
edge $-1 $368 -4.2663311116495279 $523 -2.6737665129848107e-014 $227 $525 forward 7 unknown #
coedge $-1 $228 $515 $521 $526 forward $366 $-1 #
loop $-1 $-1 $515 $354 #
vertex $-1 $363 $527 #
vertex $-1 $229 $528 #
straight-curve $-1 -90.283471949459738 -9.1559575881349282 5.7902694634702954 1 0 0 I I #
coedge $-1 $370 $370 $-1 $529 reversed $232 $-1 #
edge $-1 $530 0 $530 6.2831853071796004 $233 $531 forward 7 unknown #
vertex $-1 $236 $532 #
ellipse-curve $-1 -65.84307392048801 -7.3247660705079447 3.9812424581621166 -0.84804810408105047 0 0.52991925155115449 0.26495962577557725 0 0.42402405204052523 1 I I #
coedge $-1 $374 $374 $-1 $533 reversed $239 $-1 #
edge $-1 $534 0 $534 6.2831853071796004 $240 $535 forward 7 unknown #
vertex $-1 $243 $536 #
ellipse-curve $-1 -65.84307392048801 -4.5779787940674694 3.9812424581621166 -0.84804810408105047 0 0.52991925155115449 0.26495962577557725 0 0.42402405204052523 1 I I #
coedge $-1 $378 $378 $-1 $537 reversed $246 $-1 #
edge $-1 $538 0 $538 6.2831853071796004 $247 $539 forward 7 unknown #
vertex $-1 $250 $540 #
ellipse-curve $-1 -65.84307392048801 -1.8311915176269906 3.9812424581621166 -0.84804810408105047 0 0.52991925155115449 0.26495962577557725 0 0.42402405204052523 1 I I #
face $-1 $-1 $541 $52 $-1 $542 reversed single #
loop $-1 $-1 $257 $251 #
plane-surface $-1 0 0 5.7902694634702989 0 0 1 1 0 0 forward_v I I I I #
coedge $-1 $543 $544 $545 $546 reversed $252 $-1 #
coedge $-1 $547 $254 $256 $392 forward $158 $-1 #
coedge $-1 $254 $547 $543 $548 forward $158 $-1 #
coedge $-1 $545 $257 $254 $389 forward $383 $-1 #
edge $-1 $395 5.2991079099313687 $549 14.455065498066293 $388 $550 forward 7 unknown #
coedge $-1 $551 $552 $255 $391 forward $541 $-1 #
edge $-1 $553 -34.404428359087092 $394 -30.786374348470734 $390 $554 forward 7 unknown #
edge $-1 $395 -4.2663311116495279 $553 -2.6737665129848107e-014 $256 $555 forward 7 unknown #
coedge $-1 $257 $545 $551 $556 forward $383 $-1 #
vertex $-1 $391 $557 #
vertex $-1 $258 $558 #
straight-curve $-1 -90.283471949459738 15.1761946139302 5.7902694634702954 1 0 0 I I #
coedge $-1 $397 $397 $-1 $559 reversed $261 $-1 #
edge $-1 $560 0 $560 6.2831853071796004 $262 $561 forward 7 unknown #
vertex $-1 $265 $562 #
ellipse-curve $-1 -65.84307392048801 17.007386131557183 3.9812424581621166 -0.84804810408105047 0 0.52991925155115449 0.26495962577557725 0 0.42402405204052523 1 I I #
coedge $-1 $401 $401 $-1 $563 reversed $268 $-1 #
edge $-1 $564 0 $564 6.2831853071796004 $269 $565 forward 7 unknown #
vertex $-1 $272 $566 #
ellipse-curve $-1 -65.84307392048801 19.754173407997655 3.9812424581621166 -0.84804810408105047 0 0.52991925155115449 0.26495962577557725 0 0.42402405204052523 1 I I #
coedge $-1 $405 $405 $-1 $567 reversed $275 $-1 #
edge $-1 $568 0 $568 6.2831853071796004 $276 $569 forward 7 unknown #
vertex $-1 $279 $570 #
ellipse-curve $-1 -65.84307392048801 22.500960684438141 3.9812424581621166 -0.84804810408105047 0 0.52991925155115449 0.26495962577557725 0 0.42402405204052523 1 I I #
face $-1 $-1 $295 $42 $-1 $571 reversed single #
loop $-1 $-1 $425 $280 #
plane-surface $-1 0 28.673078360213282 0 0 -1 0 0 0 -1 forward_v I I I I #
coedge $-1 $572 $423 $426 $573 forward $281 $-1 #
coedge $-1 $429 $283 $284 $417 reversed $177 $-1 #
coedge $-1 $423 $572 $283 $415 reversed $281 $-1 #
edge $-1 $430 -5.7902694634702989 $574 5.7902694634702989 $414 $575 forward 7 unknown #
coedge $-1 $285 $284 $572 $576 forward $113 $-1 #
edge $-1 $421 -66.973479415265359 $574 66.973479415265359 $413 $577 forward 7 unknown #
coedge $-1 $426 $425 $285 $419 reversed $410 $-1 #
edge $-1 $578 -66.973479415265359 $420 66.973479415265359 $418 $579 forward 7 unknown #
vertex $-1 $287 $580 #
vertex $-1 $432 $581 #
straight-curve $-1 66.973479415265359 0 -5.7902694634702989 0 -1 0 I I #
coedge $-1 $412 $414 $288 $424 reversed $281 $-1 #
edge $-1 $427 -28.673078360213282 $430 28.673078360213282 $423 $582 forward 7 unknown #
coedge $-1 $418 $289 $294 $433 forward $410 $-1 #
coedge $-1 $289 $418 $412 $573 reversed $410 $-1 #
vertex $-1 $290 $583 #
straight-curve $-1 0 28.673078360213282 5.7902694634702989 -1 0 0 I I #
coedge $-1 $291 $413 $293 $432 reversed $177 $-1 #
vertex $-1 $424 $584 #
straight-curve $-1 0 -28.673078360213282 5.7902694634702989 1 0 0 I I #
edge $-1 $296 -5.7902694634702989 $421 5.7902694634702989 $293 $585 forward 7 unknown #
edge $-1 $297 -5.7902694634702989 $420 5.7902694634702989 $294 $586 forward 7 unknown #
point $-1 66.973479415265359 -28.673078360213282 5.7902694634702989 #
point $-1 66.973479415265359 28.673078360213282 5.7902694634702989 #
face $-1 $-1 $587 $43 $-1 $588 reversed single #
loop $-1 $-1 $589 $299 #
plane-surface $-1 0 0 -5.7902694634702989 0 0 1 1 0 0 forward_v I I I I #
coedge $-1 $446 $456 $441 $590 forward $300 $-1 #
coedge $-1 $305 $302 $589 $591 reversed $185 $-1 #
coedge $-1 $302 $305 $439 $590 reversed $185 $-1 #
coedge $-1 $592 $593 $302 $443 forward $587 $-1 #
edge $-1 $594 -5.7902694634702989 $595 5.7902694634702989 $442 $596 forward 7 unknown #
coedge $-1 $589 $308 $303 $445 forward $437 $-1 #
edge $-1 $313 -29.946470244162381 $449 -26.946470244162381 $444 $597 forward 7 unknown #
coedge $-1 $310 $439 $304 $447 forward $300 $-1 #
edge $-1 $448 26.946470244162381 $312 29.946470244162381 $446 $598 forward 7 unknown #
vertex $-1 $447 $599 #
vertex $-1 $445 $600 #
straight-curve $-1 -55.392940488324761 -24.332152202065124 0 0 0 -1 I I #
coedge $-1 $593 $592 $307 $452 forward $587 $-1 #
edge $-1 $457 -5.7902694634702989 $454 5.7902694634702989 $451 $601 forward 7 unknown #
coedge $-1 $308 $589 $593 $602 forward $437 $-1 #
vertex $-1 $309 $603 #
straight-curve $-1 -58.392940488324761 -13.251307640569602 -5.7902694634702989 0 1 0 I I #
coedge $-1 $439 $310 $592 $604 forward $300 $-1 #
vertex $-1 $604 $605 #
straight-curve $-1 -58.392940488324761 -13.251307640569602 5.7902694634702989 0 -1 0 I I #
point $-1 -58.392940488324761 -24.332152202065124 5.7902694634702989 #
point $-1 -58.392940488324761 -24.332152202065124 -5.7902694634702989 #
face $-1 $-1 $474 $44 $-1 $606 reversed single #
loop $-1 $-1 $480 $315 #
plane-surface $-1 0 0 5.7902694634702989 0 0 1 1 0 0 forward_v I I I I #
coedge $-1 $324 $607 $465 $608 forward $316 $-1 #
coedge $-1 $609 $318 $464 $608 reversed $193 $-1 #
coedge $-1 $318 $609 $480 $610 reversed $193 $-1 #
edge $-1 $481 -5.7902694634702989 $478 5.7902694634702989 $318 $611 forward 7 unknown #
coedge $-1 $607 $324 $319 $469 forward $316 $-1 #
edge $-1 $329 11.080844561495521 $475 15.421770719643678 $468 $612 forward 7 unknown #
coedge $-1 $326 $613 $320 $471 forward $462 $-1 #
edge $-1 $476 -15.421770719643678 $328 -11.080844561495521 $470 $614 forward 7 unknown #
coedge $-1 $615 $321 $613 $616 reversed $474 $-1 #
coedge $-1 $321 $615 $607 $617 reversed $474 $-1 #
loop $-1 $-1 $615 $461 #
vertex $-1 $617 $618 #
vertex $-1 $322 $619 #
straight-curve $-1 -58.392940488324761 28.673078360213282 0 0 0 1 I I #
vertex $-1 $325 $620 #
straight-curve $-1 -28.446470244162381 24.332152202065121 -5.7902694634702989 -1 0 0 I I #
coedge $-1 $613 $326 $466 $610 forward $462 $-1 #
vertex $-1 $327 $621 #
straight-curve $-1 -28.446470244162381 24.332152202065121 5.7902694634702989 1 0 0 I I #
point $-1 -58.392940488324761 24.332152202065121 5.7902694634702989 #
point $-1 -58.392940488324761 24.332152202065121 -5.7902694634702989 #
loop $-1 $-1 $339 $331 #
plane-surface $-1 66.973479415265359 0 0 -1 0 0 0 0 1 forward_v I I I I #
coedge $-1 $488 $334 $336 $492 reversed $201 $-1 #
coedge $-1 $334 $487 $622 $623 reversed $201 $-1 #
coedge $-1 $342 $337 $334 $490 forward $332 $-1 #
edge $-1 $493 8.6842873749447307 $624 12.180543551319687 $489 $625 forward 7 unknown #
coedge $-1 $336 $335 $496 $626 reversed $125 $-1 #
edge $-1 $627 -133.94695883053066 $493 -127.34924386520174 $487 $628 forward 7 unknown #
vertex $-1 $338 $629 #
straight-curve $-1 63.477223238890403 9.6568724883788306 5.7902694634703096 0 -1 0 I I #
coedge $-1 $622 $339 $342 $500 reversed $485 $-1 #
coedge $-1 $339 $622 $491 $626 forward $485 $-1 #
vertex $-1 $340 $630 #
straight-curve $-1 66.973479415265359 24.332152202065128 92.38481322526907 0 0 1 I I #
straight-curve $-1 -4.007592755762758 24.332152202065128 113.78855427951 0.52991925155115449 0 -0.84804810408105047 I I #
edge $-1 $624 14.295337751450194 $343 24.332152202065128 $495 $631 forward 7 unknown #
point $-1 66.973479415265359 24.332152202065128 5.7902694634702989 #
point $-1 63.477223238890403 24.332152202065128 5.7902694634702954 #
edge $-1 $632 1 $632 0 $346 $-1 forward 7 unknown #
vertex $-1 $347 $633 #
ellipse-curve $-1 62.701601372145916 17.162999023054454 1.4156656834212233 0.84804810408105047 0 0.52991925155115449 0.52991925155115449 0 -0.84804810408105047 1 I I #
point $-1 65.755270578629037 17.162999023054454 2.1446315255820543 #
edge $-1 $634 1 $634 0 $350 $-1 forward 7 unknown #
vertex $-1 $351 $635 #
ellipse-curve $-1 62.701601372145916 21.464490930460855 1.4156656834212233 0.84804810408105047 0 0.52991925155115449 0.52991925155115449 0 -0.84804810408105047 1 I I #
point $-1 65.755270578629037 21.464490930460855 2.1446315255820543 #
plane-surface $-1 0 0 5.7902694634702989 0 0 1 1 0 0 forward_v I I I I #
coedge $-1 $522 $521 $514 $636 forward $355 $-1 #
coedge $-1 $514 $357 $359 $518 reversed $223 $-1 #
coedge $-1 $357 $513 $512 $636 reversed $223 $-1 #
coedge $-1 $365 $360 $357 $516 forward $366 $-1 #
edge $-1 $519 -25.570803523749092 $637 -23.309992534194379 $515 $638 forward 7 unknown #
coedge $-1 $359 $358 $522 $639 reversed $139 $-1 #
edge $-1 $640 2.6737665129848107e-014 $519 4.2663311116495279 $513 $641 forward 7 unknown #
vertex $-1 $361 $642 #
straight-curve $-1 -64.712668425710646 -2.2889893970337329 5.7902694634702989 0 1 0 I I #
coedge $-1 $512 $362 $365 $526 reversed $355 $-1 #
coedge $-1 $362 $512 $517 $639 forward $355 $-1 #
vertex $-1 $363 $643 #
straight-curve $-1 -66.973479415265359 -9.1559575881349282 36.576643811941032 0 0 1 I I #
straight-curve $-1 -66.973479415265373 -9.1559575881349282 2.1722154528539193 -0.52991925155115449 0 -0.84804810408105047 I I #
edge $-1 $637 3.5527136788005009e-015 $367 9.1559575881349282 $521 $644 forward 7 unknown #
point $-1 -66.973479415265359 -9.1559575881349282 5.7902694634702989 #
point $-1 -64.712668425710646 -9.1559575881349282 5.7902694634702989 #
edge $-1 $645 1 $645 0 $370 $-1 forward 7 unknown #
vertex $-1 $371 $646 #
ellipse-curve $-1 -64.995025816406937 -7.3247660705079447 3.4513232066109469 -0.84804810408105047 0 0.52991925155115449 0.26495962577557725 0 0.42402405204052523 1 I I #
point $-1 -65.578114294712407 -7.3247660705079447 4.4052665102026269 #
edge $-1 $647 1 $647 0 $374 $-1 forward 7 unknown #
vertex $-1 $375 $648 #
ellipse-curve $-1 -64.995025816406937 -4.5779787940674694 3.4513232066109469 -0.84804810408105047 0 0.52991925155115449 0.26495962577557725 0 0.42402405204052523 1 I I #
point $-1 -65.578114294712407 -4.5779787940674694 4.4052665102026269 #
edge $-1 $649 1 $649 0 $378 $-1 forward 7 unknown #
vertex $-1 $379 $650 #
ellipse-curve $-1 -64.995025816406937 -1.8311915176269906 3.4513232066109469 -0.84804810408105047 0 0.52991925155115449 0.26495962577557725 0 0.42402405204052523 1 I I #
point $-1 -65.578114294712407 -1.8311915176269906 4.4052665102026269 #
loop $-1 $-1 $390 $382 #
plane-surface $-1 -66.973479415265359 0 0 1 0 0 0 0 -1 forward_v I I I I #
coedge $-1 $544 $385 $387 $548 reversed $252 $-1 #
coedge $-1 $385 $543 $651 $652 reversed $252 $-1 #
coedge $-1 $393 $388 $385 $546 forward $383 $-1 #
edge $-1 $549 -25.570803523749092 $653 -23.309992534194379 $545 $654 forward 7 unknown #
coedge $-1 $387 $386 $552 $655 reversed $158 $-1 #
edge $-1 $656 2.6737665129848107e-014 $549 4.2663311116495279 $543 $657 forward 7 unknown #
vertex $-1 $389 $658 #
straight-curve $-1 -64.712668425710646 9.877086703998831 5.7902694634702989 0 1 0 I I #
coedge $-1 $651 $390 $393 $556 reversed $541 $-1 #
coedge $-1 $390 $651 $547 $655 forward $541 $-1 #
vertex $-1 $391 $659 #
straight-curve $-1 -66.973479415265359 15.1761946139302 36.576643811941032 0 0 1 I I #
straight-curve $-1 -66.973479415265373 15.1761946139302 2.1722154528539193 -0.52991925155115449 0 -0.84804810408105047 I I #
edge $-1 $653 -24.332152202065124 $394 -15.1761946139302 $551 $660 forward 7 unknown #
point $-1 -66.973479415265359 15.1761946139302 5.7902694634702989 #
point $-1 -64.712668425710646 15.1761946139302 5.7902694634702989 #
edge $-1 $661 1 $661 0 $397 $-1 forward 7 unknown #
vertex $-1 $398 $662 #
ellipse-curve $-1 -64.995025816406937 17.007386131557183 3.4513232066109469 -0.84804810408105047 0 0.52991925155115449 0.26495962577557725 0 0.42402405204052523 1 I I #
point $-1 -65.578114294712407 17.007386131557183 4.4052665102026269 #
edge $-1 $663 1 $663 0 $401 $-1 forward 7 unknown #
vertex $-1 $402 $664 #
ellipse-curve $-1 -64.995025816406937 19.754173407997655 3.4513232066109469 -0.84804810408105047 0 0.52991925155115449 0.26495962577557725 0 0.42402405204052523 1 I I #
point $-1 -65.578114294712407 19.754173407997655 4.4052665102026269 #
edge $-1 $665 1 $665 0 $405 $-1 forward 7 unknown #
vertex $-1 $406 $666 #
ellipse-curve $-1 -64.995025816406937 22.500960684438141 3.4513232066109469 -0.84804810408105047 0 0.52991925155115449 0.26495962577557725 0 0.42402405204052523 1 I I #
point $-1 -65.578114294712407 22.500960684438141 4.4052665102026269 #
plane-surface $-1 66.973479415265359 0 0 -1 0 0 0 0 1 forward_v I I I I #
coedge $-1 $414 $412 $416 $576 reversed $281 $-1 #
edge $-1 $427 -5.7902694634702989 $578 5.7902694634702989 $426 $667 forward 7 unknown #
vertex $-1 $576 $668 #
straight-curve $-1 -66.973479415265359 -28.673078360213282 0 0 0 -1 I I #
edge $-1 $574 -28.673078360213282 $578 28.673078360213282 $572 $669 forward 7 unknown #
straight-curve $-1 0 -28.673078360213282 -5.7902694634702989 -1 0 0 I I #
vertex $-1 $419 $670 #
straight-curve $-1 0 28.673078360213282 -5.7902694634702989 1 0 0 I I #
point $-1 66.973479415265359 28.673078360213282 -5.7902694634702989 #
point $-1 66.973479415265359 -28.673078360213282 -5.7902694634702989 #
straight-curve $-1 -66.973479415265359 0 5.7902694634702989 0 -1 0 I I #
point $-1 -66.973479415265359 28.673078360213282 5.7902694634702989 #
point $-1 -66.973479415265359 -28.673078360213282 5.7902694634702989 #
straight-curve $-1 66.973479415265359 -28.673078360213282 0 0 0 -1 I I #
straight-curve $-1 66.973479415265359 28.673078360213282 0 0 0 -1 I I #
loop $-1 $-1 $442 $436 #
plane-surface $-1 0 -28.673078360213282 0 0 1 0 0 0 1 forward_v I I I I #
coedge $-1 $453 $444 $440 $591 forward $437 $-1 #
edge $-1 $595 -15.42177071964368 $448 -11.080844561495523 $439 $671 forward 7 unknown #
edge $-1 $449 11.080844561495523 $594 15.42177071964368 $589 $672 forward 7 unknown #
coedge $-1 $451 $442 $456 $604 reversed $587 $-1 #
coedge $-1 $442 $451 $453 $602 reversed $587 $-1 #
vertex $-1 $602 $673 #
vertex $-1 $443 $674 #
straight-curve $-1 -55.392940488324761 -28.673078360213282 0 0 0 1 I I #
straight-curve $-1 -28.446470244162381 -24.332152202065124 -5.7902694634702989 1 0 0 I I #
straight-curve $-1 -28.446470244162381 -24.332152202065124 5.7902694634702989 -1 0 0 I I #
point $-1 -55.392940488324761 -24.332152202065124 5.7902694634702989 #
point $-1 -55.392940488324761 -24.332152202065124 -5.7902694634702989 #
straight-curve $-1 -58.392940488324761 -28.673078360213282 0 0 0 -1 I I #
edge $-1 $594 55.392940488324761 $454 58.392940488324761 $593 $675 forward 7 unknown #
point $-1 -58.392940488324761 -28.673078360213282 -5.7902694634702989 #
edge $-1 $457 -58.392940488324761 $595 -55.392940488324761 $592 $676 forward 7 unknown #
point $-1 -58.392940488324761 -28.673078360213282 5.7902694634702989 #
plane-surface $-1 0 28.673078360213282 0 0 -1 0 0 0 -1 forward_v I I I I #
coedge $-1 $464 $468 $473 $617 forward $316 $-1 #
edge $-1 $677 -15.421770719643678 $478 -11.080844561495521 $464 $678 forward 7 unknown #
coedge $-1 $466 $465 $615 $679 reversed $193 $-1 #
edge $-1 $481 11.080844561495521 $680 15.421770719643678 $480 $681 forward 7 unknown #
straight-curve $-1 -55.392940488324761 24.332152202065121 0 0 0 -1 I I #
straight-curve $-1 -58.392940488324761 13.2513076405696 -5.7902694634702989 0 1 0 I I #
coedge $-1 $470 $480 $472 $616 forward $462 $-1 #
straight-curve $-1 -58.392940488324761 13.2513076405696 5.7902694634702989 0 -1 0 I I #
coedge $-1 $473 $472 $609 $679 forward $474 $-1 #
edge $-1 $680 55.392940488324761 $476 58.392940488324761 $472 $682 forward 7 unknown #
edge $-1 $475 -58.392940488324761 $677 -55.392940488324761 $473 $683 forward 7 unknown #
point $-1 -58.392940488324761 28.673078360213278 -5.7902694634702989 #
point $-1 -58.392940488324761 28.673078360213278 5.7902694634702989 #
point $-1 -55.392940488324761 24.332152202065121 -5.7902694634702989 #
point $-1 -55.392940488324761 24.332152202065121 5.7902694634702989 #
coedge $-1 $496 $495 $488 $623 forward $485 $-1 #
edge $-1 $624 86.594543761798775 $627 92.189723429413121 $622 $684 forward 7 unknown #
vertex $-1 $500 $685 #
straight-curve $-1 54.792935863945672 14.295337751450194 5.7902694634702954 1 0 0 I I #
edge $-1 $627 4.6384652630713639 $497 14.675279713686297 $496 $686 forward 7 unknown #
vertex $-1 $626 $687 #
straight-curve $-1 -4.007592755762758 14.295337751450194 113.78855427951 -0.52991925155115449 0 0.84804810408105047 I I #
point $-1 63.477223238890403 14.295337751450194 5.7902694634702954 #
point $-1 66.973479415265359 24.332152202065128 0.19508979585594943 #
straight-curve $-1 66.973479415265359 0 5.7902694634702989 0 1 0 I I #
vertex $-1 $503 $688 #
point $-1 63.231520623697072 17.162999023054454 0.56761757934017276 #
vertex $-1 $507 $689 #
point $-1 63.231520623697072 21.464490930460855 0.56761757934017276 #
edge $-1 $637 30.786374348470734 $640 34.404428359087092 $512 $690 forward 7 unknown #
vertex $-1 $526 $691 #
straight-curve $-1 -90.283471949459738 -3.5527136788005009e-015 5.7902694634702954 -1 0 0 I I #
edge $-1 $640 -2.2889893970337294 $523 6.8669681911011953 $522 $692 forward 7 unknown #
vertex $-1 $639 $693 #
straight-curve $-1 -66.973479415265373 -3.5527136788005009e-015 2.1722154528539193 0.52991925155115449 0 0.84804810408105047 I I #
point $-1 -64.712668425710646 -3.5527136788005009e-015 5.7902694634702989 #
point $-1 -66.973479415265359 -9.1559575881349282 2.1722154528539419 #
straight-curve $-1 -66.973479415265359 0 5.7902694634702989 0 -1 0 I I #
vertex $-1 $529 $694 #
point $-1 -64.730066190631362 -7.3247660705079447 3.8753472586514723 #
vertex $-1 $533 $695 #
point $-1 -64.730066190631362 -4.5779787940674694 3.8753472586514723 #
vertex $-1 $537 $696 #
point $-1 -64.730066190631362 -1.8311915176269906 3.8753472586514723 #
coedge $-1 $552 $551 $544 $652 forward $541 $-1 #
edge $-1 $653 30.786374348470734 $656 34.404428359087092 $651 $697 forward 7 unknown #
vertex $-1 $556 $698 #
straight-curve $-1 -90.283471949459738 24.332152202065124 5.7902694634702954 -1 0 0 I I #
edge $-1 $656 -14.455065498066293 $553 -5.2991079099313687 $552 $699 forward 7 unknown #
vertex $-1 $655 $700 #
straight-curve $-1 -66.973479415265373 24.332152202065124 2.1722154528539193 0.52991925155115449 0 0.84804810408105047 I I #
point $-1 -64.712668425710646 24.332152202065124 5.7902694634702989 #
point $-1 -66.973479415265359 15.1761946139302 2.1722154528539419 #
straight-curve $-1 -66.973479415265359 0 5.7902694634702989 0 -1 0 I I #
vertex $-1 $559 $701 #
point $-1 -64.730066190631362 17.007386131557183 3.8753472586514723 #
vertex $-1 $563 $702 #
point $-1 -64.730066190631362 19.754173407997655 3.8753472586514723 #
vertex $-1 $567 $703 #
point $-1 -64.730066190631362 22.500960684438141 3.8753472586514723 #
straight-curve $-1 -66.973479415265359 28.673078360213282 0 0 0 -1 I I #
point $-1 -66.973479415265359 -28.673078360213282 -5.7902694634702989 #
straight-curve $-1 -66.973479415265359 0 -5.7902694634702989 0 1 0 I I #
point $-1 -66.973479415265359 28.673078360213282 -5.7902694634702989 #
straight-curve $-1 -55.392940488324761 -13.251307640569602 5.7902694634702989 0 1 0 I I #
straight-curve $-1 -55.392940488324761 -13.251307640569602 -5.7902694634702989 0 -1 0 I I #
point $-1 -55.392940488324761 -28.673078360213282 -5.7902694634702989 #
point $-1 -55.392940488324761 -28.673078360213282 5.7902694634702989 #
straight-curve $-1 0 -28.673078360213282 -5.7902694634702989 -1 0 0 I I #
straight-curve $-1 0 -28.673078360213282 5.7902694634702989 1 0 0 I I #
vertex $-1 $679 $704 #
straight-curve $-1 -55.392940488324761 13.2513076405696 -5.7902694634702989 0 -1 0 I I #
edge $-1 $680 -5.7902694634702989 $677 5.7902694634702989 $615 $705 forward 7 unknown #
vertex $-1 $616 $706 #
straight-curve $-1 -55.392940488324761 13.2513076405696 5.7902694634702989 0 1 0 I I #
straight-curve $-1 0 28.673078360213282 5.7902694634702989 -1 0 0 I I #
straight-curve $-1 0 28.673078360213282 -5.7902694634702989 1 0 0 I I #
straight-curve $-1 66.973479415265359 14.295337751450194 92.38481322526907 0 0 -1 I I #
point $-1 66.973479415265359 14.295337751450194 5.7902694634702989 #
straight-curve $-1 66.973479415265359 9.6568724883788306 0.19508979585593522 0 1 0 I I #
point $-1 66.973479415265359 14.295337751450194 0.19508979585594943 #
point $-1 61.853553268064871 17.162999023054454 0.88574643187006874 #
point $-1 61.853553268064871 21.464490930460855 0.88574643187006874 #
straight-curve $-1 -66.973479415265359 -3.5527136788005009e-015 36.576643811941032 0 0 -1 I I #
point $-1 -66.973479415265359 -3.5527136788005009e-015 5.7902694634702989 #
straight-curve $-1 -66.973479415265359 -2.2889893970337329 2.1722154528539406 0 -1 0 I I #
point $-1 -66.973479415265359 -3.5527136788005009e-015 2.1722154528539419 #
point $-1 -64.571001764366414 -7.3247660705079447 3.1863635808353696 #
point $-1 -64.571001764366414 -4.5779787940674694 3.1863635808353696 #
point $-1 -64.571001764366414 -1.8311915176269906 3.1863635808353696 #
straight-curve $-1 -66.973479415265359 24.332152202065124 36.576643811941032 0 0 -1 I I #
point $-1 -66.973479415265359 24.332152202065124 5.7902694634702989 #
straight-curve $-1 -66.973479415265359 9.877086703998831 2.1722154528539406 0 -1 0 I I #
point $-1 -66.973479415265359 24.332152202065124 2.1722154528539419 #
point $-1 -64.571001764366414 17.007386131557183 3.1863635808353696 #
point $-1 -64.571001764366414 19.754173407997655 3.1863635808353696 #
point $-1 -64.571001764366414 22.500960684438141 3.1863635808353696 #
point $-1 -55.392940488324761 28.673078360213278 -5.7902694634702989 #
straight-curve $-1 -55.392940488324761 28.673078360213282 0 0 0 -1 I I #
point $-1 -55.392940488324761 28.673078360213278 5.7902694634702989 #
End-of-ACIS-data 