500 0 6 0           
7 Unknown 11 ACIS 5.0 NT 24 Fri Mar 26 14:53:13 1999 
-1 9.9999999999999995e-007 1e-010 
body $-1 $6 $-1 $7 #
body $-1 $8 $-1 $9 #
body $-1 $10 $-1 $11 #
body $-1 $12 $-1 $13 #
body $-1 $14 $-1 $15 #
body $-1 $16 $-1 $17 #
lump $-1 $-1 $18 $0 #
transform $-1 1 0 0 0 1 0 0 0 1 62.114932706686609 43.286527371566081 10.695538546660069 1 rotate no_reflect no_shear #
lump $-1 $-1 $19 $1 #
transform $-1 1 0 0 0 1 0 0 0 1 62.114932706686609 43.286527371566081 10.695538546660069 1 rotate no_reflect no_shear #
lump $-1 $-1 $20 $2 #
transform $-1 1 0 0 0 1 0 0 0 1 62.114932706686609 43.286527371566081 10.695538546660069 1 rotate no_reflect no_shear #
lump $-1 $-1 $21 $3 #
transform $-1 1 0 0 0 1 0 0 0 1 62.114932706686609 43.286527371566081 10.695538546660069 1 rotate no_reflect no_shear #
lump $-1 $-1 $22 $4 #
transform $-1 1 0 0 0 1 0 0 0 1 62.114932706686609 43.286527371566081 10.695538546660069 1 rotate no_reflect no_shear #
lump $-1 $-1 $23 $5 #
transform $-1 1 0 0 0 1 0 0 0 1 62.114932706686609 43.286527371566081 10.695538546660069 1 rotate no_reflect no_shear #
shell $-1 $-1 $-1 $24 $-1 $6 #
shell $-1 $-1 $-1 $25 $-1 $8 #
shell $-1 $-1 $-1 $26 $-1 $10 #
shell $-1 $-1 $-1 $27 $-1 $12 #
shell $-1 $-1 $-1 $28 $-1 $14 #
shell $-1 $-1 $-1 $29 $-1 $16 #
face $-1 $30 $31 $18 $-1 $32 forward single #
face $-1 $33 $34 $19 $-1 $35 forward single #
face $-1 $36 $37 $20 $-1 $38 reversed single #
face $-1 $39 $40 $21 $-1 $41 forward single #
face $-1 $42 $43 $22 $-1 $44 forward single #
face $-1 $45 $46 $23 $-1 $47 forward single #
face $-1 $48 $49 $18 $-1 $50 reversed single #
loop $-1 $-1 $51 $24 #
plane-surface $-1 0 0 10.695538546660069 0 0 1 1 0 0 forward_v I I I I #
face $-1 $52 $53 $19 $-1 $54 reversed single #
loop $-1 $-1 $55 $25 #
plane-surface $-1 -55.220251767716796 0 0.48711570384454683 0 0 1 1 0 0 forward_v I I I I #
face $-1 $56 $57 $20 $-1 $58 reversed single #
loop $-1 $-1 $59 $26 #
plane-surface $-1 -16.059739224920243 35.700213241602455 156.59069665210635 1 0 0 0 -0.52991927123019833 -0.84804809178421925 forward_v I I I I #
face $-1 $60 $61 $21 $-1 $62 forward single #
loop $-1 $63 $64 $27 #
cone-surface $-1 -11.65917371004452 38.52033722933696 7.2317837125387996 0 -0.52991927123019833 -0.84804809178421925 1 0 0 1 I I 0 1 1 forward I I I I #
face $-1 $65 $66 $22 $-1 $67 forward single #
loop $-1 $68 $69 $28 #
cone-surface $-1 -5.0583254377309359 38.52033722933696 7.2317837125387996 0 -0.52991927123019833 -0.84804809178421925 1 0 0 1 I I 0 1 1 forward I I I I #
face $-1 $70 $71 $23 $-1 $72 forward single #
loop $-1 $73 $74 $29 #
cone-surface $-1 1.5425228345826483 38.52033722933696 7.2317837125387996 0 -0.52991927123019833 -0.84804809178421925 1 0 0 1 I I 0 1 1 forward I I I I #
face $-1 $75 $76 $18 $-1 $77 reversed single #
loop $-1 $-1 $78 $30 #
plane-surface $-1 0 0 -10.695538546660069 0 0 1 1 0 0 forward_v I I I I #
coedge $-1 $79 $80 $81 $82 forward $31 $-1 #
face $-1 $83 $84 $19 $-1 $85 reversed single #
loop $-1 $-1 $86 $33 #
plane-surface $-1 -55.220251767716796 0 -4.9723843609684355 0 0 1 1 0 0 forward_v I I I I #
coedge $-1 $87 $88 $89 $90 forward $34 $-1 #
face $-1 $91 $92 $20 $-1 $93 reversed single #
loop $-1 $-1 $94 $36 #
plane-surface $-1 -5.0583254377309359 -30.131586503277916 51.237796345684799 0 0.52991927123019833 0.84804809178421925 1 0 0 forward_v I I I I #
coedge $-1 $95 $96 $97 $98 reversed $37 $-1 #
face $-1 $-1 $99 $21 $-1 $100 forward single #
loop $-1 $101 $102 $39 #
cone-surface $-1 -11.65917371004452 37.757657463976059 6.0112409718393796 0 -0.52991927123019833 -0.84804809178421925 0.5 0 0 1 I I -0.70710678118654746 0.70710678118654746 0.5 forward I I I I #
loop $-1 $-1 $103 $27 #
coedge $-1 $64 $64 $104 $105 reversed $40 $-1 #
face $-1 $-1 $106 $22 $-1 $107 forward single #
loop $-1 $108 $109 $42 #
cone-surface $-1 -5.0583254377309359 37.757657463976059 6.0112409718393796 0 -0.52991927123019833 -0.84804809178421925 0.5 0 0 1 I I -0.70710678118654746 0.70710678118654746 0.5 forward I I I I #
loop $-1 $-1 $110 $28 #
coedge $-1 $69 $69 $111 $112 reversed $43 $-1 #
face $-1 $-1 $113 $23 $-1 $114 forward single #
loop $-1 $115 $116 $45 #
cone-surface $-1 1.5425228345826483 37.757657463976059 6.0112409718393796 0 -0.52991927123019833 -0.84804809178421925 0.5 0 0 1 I I -0.70710678118654746 0.70710678118654746 0.5 forward I I I I #
loop $-1 $-1 $117 $29 #
coedge $-1 $74 $74 $118 $119 reversed $46 $-1 #
face $-1 $120 $121 $18 $-1 $122 reversed single #
loop $-1 $-1 $123 $48 #
plane-surface $-1 0 -43.286527371566081 0 0 1 0 0 0 1 forward_v I I I I #
coedge $-1 $124 $125 $126 $127 forward $49 $-1 #
coedge $-1 $128 $51 $129 $130 forward $31 $-1 #
coedge $-1 $51 $128 $131 $132 forward $31 $-1 #
coedge $-1 $133 $134 $51 $82 reversed $135 $-1 #
edge $-1 $136 -43.286527371566081 $137 43.286527371566081 $81 $138 forward 7 unknown #
face $-1 $139 $140 $19 $-1 $141 reversed single #
loop $-1 $-1 $142 $52 #
plane-surface $-1 -48.325570828746983 0 -2.2426343285619446 -1 0 0 0 0 1 forward_v I I I I #
coedge $-1 $143 $144 $145 $146 forward $53 $-1 #
coedge $-1 $147 $55 $148 $149 reversed $34 $-1 #
coedge $-1 $55 $147 $150 $151 reversed $34 $-1 #
coedge $-1 $142 $152 $55 $90 reversed $84 $-1 #
edge $-1 $153 -43.286527371566081 $154 43.286527371566081 $89 $155 forward 7 unknown #
face $-1 $156 $157 $20 $-1 $158 forward single #
loop $-1 $-1 $159 $56 #
plane-surface $-1 5.9430883494583711 35.700213241602455 156.59069665210635 -1 0 0 0 0.52991927123019833 0.84804809178421925 forward_v I I I I #
coedge $-1 $160 $161 $162 $163 reversed $57 $-1 #
coedge $-1 $96 $59 $164 $165 reversed $37 $-1 #
coedge $-1 $59 $95 $160 $166 reversed $37 $-1 #
coedge $-1 $162 $167 $59 $98 forward $157 $-1 #
edge $-1 $168 -25.436420750764853 $169 -16.899480725798199 $97 $170 forward 7 unknown #
loop $-1 $-1 $104 $60 #
plane-surface $-1 -5.0583254377309359 -30.131586503277916 51.237796345684799 0 0.52991927123019833 0.84804809178421925 1 0 0 forward_v I I I I #
loop $-1 $-1 $171 $39 #
coedge $-1 $102 $102 $103 $172 reversed $61 $-1 #
coedge $-1 $103 $103 $102 $172 forward $63 $-1 #
coedge $-1 $104 $104 $64 $105 forward $99 $-1 #
edge $-1 $173 -1.8826514435595184e-015 $173 6.2831853071795987 $104 $174 forward 7 unknown #
loop $-1 $-1 $111 $65 #
plane-surface $-1 -5.0583254377309359 -30.131586503277916 51.237796345684799 0 0.52991927123019833 0.84804809178421925 1 0 0 forward_v I I I I #
loop $-1 $-1 $175 $42 #
coedge $-1 $109 $109 $110 $176 reversed $66 $-1 #
coedge $-1 $110 $110 $109 $176 forward $68 $-1 #
coedge $-1 $111 $111 $69 $112 forward $106 $-1 #
edge $-1 $177 -1.8826514435595184e-015 $177 6.2831853071795987 $111 $178 forward 7 unknown #
loop $-1 $-1 $118 $70 #
plane-surface $-1 -5.0583254377309359 -30.131586503277916 51.237796345684799 0 0.52991927123019833 0.84804809178421925 1 0 0 forward_v I I I I #
loop $-1 $-1 $179 $45 #
coedge $-1 $116 $116 $117 $180 reversed $71 $-1 #
coedge $-1 $117 $117 $116 $180 forward $73 $-1 #
coedge $-1 $118 $118 $74 $119 forward $113 $-1 #
edge $-1 $181 -1.8826514435595184e-015 $181 6.2831853071795987 $118 $182 forward 7 unknown #
face $-1 $183 $184 $18 $-1 $185 reversed single #
loop $-1 $-1 $186 $75 #
plane-surface $-1 -62.114932706686609 0 0 1 0 0 0 0 -1 forward_v I I I I #
coedge $-1 $187 $131 $188 $189 forward $76 $-1 #
coedge $-1 $190 $78 $187 $191 forward $49 $-1 #
coedge $-1 $78 $190 $192 $193 forward $49 $-1 #
coedge $-1 $134 $133 $78 $127 reversed $135 $-1 #
edge $-1 $194 -43.286527371566081 $195 43.286527371566081 $126 $196 forward 7 unknown #
coedge $-1 $80 $79 $197 $198 forward $31 $-1 #
coedge $-1 $199 $200 $79 $130 reversed $184 $-1 #
edge $-1 $137 -62.114932706686609 $201 62.114932706686609 $129 $202 forward 7 unknown #
coedge $-1 $123 $203 $80 $132 reversed $76 $-1 #
edge $-1 $204 -62.114932706686609 $136 62.114932706686609 $131 $205 forward 7 unknown #
coedge $-1 $126 $81 $203 $206 forward $135 $-1 #
coedge $-1 $81 $126 $199 $207 reversed $135 $-1 #
loop $-1 $-1 $133 $183 #
vertex $-1 $82 $208 #
vertex $-1 $82 $209 #
straight-curve $-1 62.114932706686609 0 10.695538546660069 0 1 0 I I #
face $-1 $210 $211 $19 $-1 $212 reversed single #
loop $-1 $-1 $213 $83 #
plane-surface $-1 0 -43.286527371566081 0 0 1 0 0 0 1 forward_v I I I I #
coedge $-1 $145 $89 $214 $215 reversed $84 $-1 #
coedge $-1 $216 $86 $213 $217 reversed $53 $-1 #
coedge $-1 $86 $216 $218 $219 reversed $53 $-1 #
coedge $-1 $152 $142 $86 $146 reversed $84 $-1 #
edge $-1 $220 -43.286527371566081 $221 43.286527371566081 $145 $222 forward 7 unknown #
coedge $-1 $88 $87 $223 $224 reversed $34 $-1 #
coedge $-1 $225 $226 $87 $149 forward $227 $-1 #
edge $-1 $228 -34.504806822828215 $154 -20.715444944888585 $148 $229 forward 7 unknown #
coedge $-1 $230 $214 $88 $151 forward $140 $-1 #
edge $-1 $153 20.715444944888585 $231 34.504806822828215 $150 $232 forward 7 unknown #
coedge $-1 $89 $145 $225 $233 reversed $84 $-1 #
vertex $-1 $151 $234 #
vertex $-1 $149 $235 #
straight-curve $-1 -48.325570828746983 0 0.48711570384454683 0 1 0 I I #
face $-1 $-1 $236 $20 $-1 $237 reversed single #
loop $-1 $-1 $97 $91 #
plane-surface $-1 0 0 10.695538546660069 0 0 1 1 0 0 forward_v I I I I #
coedge $-1 $238 $239 $240 $241 reversed $92 $-1 #
coedge $-1 $242 $94 $96 $166 forward $57 $-1 #
coedge $-1 $94 $242 $238 $243 forward $57 $-1 #
coedge $-1 $240 $97 $94 $163 forward $157 $-1 #
edge $-1 $169 -13.530576506054775 $244 8.472251068323839 $162 $245 forward 7 unknown #
coedge $-1 $246 $247 $95 $165 forward $236 $-1 #
edge $-1 $248 -72.93428205802104 $168 -67.599809779393098 $164 $249 forward 7 unknown #
edge $-1 $169 76.506479382994684 $248 86.57305474313219 $96 $250 forward 7 unknown #
coedge $-1 $97 $240 $246 $251 forward $157 $-1 #
vertex $-1 $165 $252 #
vertex $-1 $98 $253 #
straight-curve $-1 -16.059739224920243 17.850106620801228 10.695538546660075 0 -1 0 I I #
coedge $-1 $171 $171 $-1 $254 reversed $101 $-1 #
edge $-1 $255 0 $255 6.2831853071796004 $102 $256 forward 7 unknown #
vertex $-1 $105 $257 #
ellipse-curve $-1 -11.65917371004452 39.018057359082754 8.0283024073461053 0 0.52991927123019833 0.84804809178421925 1 0 0 1 I I #
coedge $-1 $175 $175 $-1 $258 reversed $108 $-1 #
edge $-1 $259 0 $259 6.2831853071796004 $109 $260 forward 7 unknown #
vertex $-1 $112 $261 #
ellipse-curve $-1 -5.0583254377309359 39.018057359082754 8.0283024073461053 0 0.52991927123019833 0.84804809178421925 1 0 0 1 I I #
coedge $-1 $179 $179 $-1 $262 reversed $115 $-1 #
edge $-1 $263 0 $263 6.2831853071796004 $116 $264 forward 7 unknown #
vertex $-1 $119 $265 #
ellipse-curve $-1 1.5425228345826483 39.018057359082754 8.0283024073461053 0 0.52991927123019833 0.84804809178421925 1 0 0 1 I I #
face $-1 $-1 $135 $18 $-1 $266 reversed single #
loop $-1 $-1 $199 $120 #
plane-surface $-1 0 43.286527371566081 0 0 -1 0 0 0 -1 forward_v I I I I #
coedge $-1 $267 $197 $200 $268 forward $121 $-1 #
coedge $-1 $203 $123 $124 $191 reversed $76 $-1 #
coedge $-1 $197 $267 $123 $189 reversed $121 $-1 #
edge $-1 $204 -10.695538546660069 $269 10.695538546660069 $188 $270 forward 7 unknown #
coedge $-1 $125 $124 $267 $271 forward $49 $-1 #
edge $-1 $195 -62.114932706686609 $269 62.114932706686609 $187 $272 forward 7 unknown #
coedge $-1 $200 $199 $125 $193 reversed $184 $-1 #
edge $-1 $273 -62.114932706686609 $194 62.114932706686609 $192 $274 forward 7 unknown #
vertex $-1 $127 $275 #
vertex $-1 $206 $276 #
straight-curve $-1 62.114932706686609 0 -10.695538546660069 0 -1 0 I I #
coedge $-1 $186 $188 $128 $198 reversed $121 $-1 #
edge $-1 $201 -43.286527371566081 $204 43.286527371566081 $197 $277 forward 7 unknown #
coedge $-1 $192 $129 $134 $207 forward $184 $-1 #
coedge $-1 $129 $192 $186 $268 reversed $184 $-1 #
vertex $-1 $130 $278 #
straight-curve $-1 0 43.286527371566081 10.695538546660069 -1 0 0 I I #
coedge $-1 $131 $187 $133 $206 reversed $76 $-1 #
vertex $-1 $198 $279 #
straight-curve $-1 0 -43.286527371566081 10.695538546660069 1 0 0 I I #
edge $-1 $136 -10.695538546660069 $195 10.695538546660069 $133 $280 forward 7 unknown #
edge $-1 $137 -10.695538546660069 $194 10.695538546660069 $134 $281 forward 7 unknown #
point $-1 62.114932706686609 -43.286527371566081 10.695538546660069 #
point $-1 62.114932706686609 43.286527371566081 10.695538546660069 #
face $-1 $-1 $227 $19 $-1 $282 reversed single #
loop $-1 $-1 $283 $139 #
plane-surface $-1 -62.114932706686609 0 0 1 0 0 0 0 -1 forward_v I I I I #
coedge $-1 $214 $230 $143 $217 forward $140 $-1 #
coedge $-1 $150 $213 $142 $215 forward $140 $-1 #
edge $-1 $221 -3.8510671966874632 $153 1.6084328681255191 $214 $284 forward 7 unknown #
coedge $-1 $144 $143 $283 $285 reversed $53 $-1 #
edge $-1 $286 -34.504806822828215 $221 -20.715444944888585 $213 $287 forward 7 unknown #
coedge $-1 $226 $225 $144 $219 forward $227 $-1 #
edge $-1 $220 20.715444944888585 $288 34.504806822828215 $218 $289 forward 7 unknown #
vertex $-1 $219 $290 #
vertex $-1 $217 $291 #
straight-curve $-1 -48.325570828746983 0 -4.9723843609684355 0 -1 0 I I #
coedge $-1 $292 $293 $147 $224 forward $211 $-1 #
edge $-1 $231 -43.286527371566081 $228 43.286527371566081 $223 $294 forward 7 unknown #
coedge $-1 $218 $148 $152 $233 forward $227 $-1 #
coedge $-1 $148 $218 $292 $295 reversed $227 $-1 #
loop $-1 $-1 $218 $210 #
vertex $-1 $295 $296 #
straight-curve $-1 -27.610125883858398 43.286527371566081 0.48711570384454683 1 0 0 I I #
coedge $-1 $213 $150 $293 $297 forward $140 $-1 #
vertex $-1 $297 $298 #
straight-curve $-1 -27.610125883858398 -43.286527371566081 0.48711570384454683 -1 0 0 I I #
edge $-1 $154 -1.6084328681255191 $220 3.8510671966874632 $225 $299 forward 7 unknown #
point $-1 -48.325570828746983 -43.286527371566081 0.48711570384454683 #
point $-1 -48.325570828746983 43.286527371566081 0.48711570384454683 #
loop $-1 $-1 $164 $156 #
plane-surface $-1 0 43.286527371566081 0 0 -1 0 0 0 -1 forward_v I I I I #
coedge $-1 $239 $159 $161 $243 reversed $92 $-1 #
coedge $-1 $159 $238 $300 $301 reversed $92 $-1 #
coedge $-1 $167 $162 $159 $241 forward $157 $-1 #
edge $-1 $244 16.899480725798199 $302 25.436420750764853 $240 $303 forward 7 unknown #
coedge $-1 $161 $160 $247 $304 reversed $57 $-1 #
edge $-1 $305 -86.57305474313219 $244 -76.506479382994684 $238 $306 forward 7 unknown #
vertex $-1 $163 $307 #
straight-curve $-1 -2.529162718865468 34.749587346599441 10.695538546660064 1 0 0 I I #
coedge $-1 $300 $164 $167 $251 reversed $236 $-1 #
coedge $-1 $164 $300 $242 $304 forward $236 $-1 #
vertex $-1 $165 $308 #
straight-curve $-1 -16.059739224920243 43.286527371566081 78.295348326053173 0 0 1 I I #
straight-curve $-1 -16.059739224920243 -30.131586503277916 51.237796345684799 0 0.84804809178421925 -0.52991927123019833 I I #
edge $-1 $302 -5.9430883494583711 $168 16.059739224920243 $246 $309 forward 7 unknown #
point $-1 -16.059739224920243 43.286527371566081 10.695538546660069 #
point $-1 -16.059739224920243 34.749587346599426 10.695538546660067 #
edge $-1 $310 1 $310 0 $171 $-1 forward 7 unknown #
vertex $-1 $172 $311 #
ellipse-curve $-1 -11.65917371004452 38.022617099591159 6.4352650177314894 0 0.52991927123019833 0.84804809178421925 1 0 0 1 I I #
point $-1 -10.65917371004452 39.018057359082754 8.0283024073461089 #
edge $-1 $312 1 $312 0 $175 $-1 forward 7 unknown #
vertex $-1 $176 $313 #
ellipse-curve $-1 -5.0583254377309359 38.022617099591159 6.4352650177314894 0 0.52991927123019833 0.84804809178421925 1 0 0 1 I I #
point $-1 -4.0583254377309359 39.018057359082754 8.0283024073461089 #
edge $-1 $314 1 $314 0 $179 $-1 forward 7 unknown #
vertex $-1 $180 $315 #
ellipse-curve $-1 1.5425228345826483 38.022617099591159 6.4352650177314894 0 0.52991927123019833 0.84804809178421925 1 0 0 1 I I #
point $-1 2.5425228345826483 39.018057359082754 8.0283024073461089 #
plane-surface $-1 62.114932706686609 0 0 -1 0 0 0 0 1 forward_v I I I I #
coedge $-1 $188 $186 $190 $271 reversed $121 $-1 #
edge $-1 $201 -10.695538546660069 $273 10.695538546660069 $200 $316 forward 7 unknown #
vertex $-1 $271 $317 #
straight-curve $-1 -62.114932706686609 -43.286527371566081 0 0 0 -1 I I #
edge $-1 $269 -43.286527371566081 $273 43.286527371566081 $267 $318 forward 7 unknown #
straight-curve $-1 0 -43.286527371566081 -10.695538546660069 -1 0 0 I I #
vertex $-1 $193 $319 #
straight-curve $-1 0 43.286527371566081 -10.695538546660069 1 0 0 I I #
point $-1 62.114932706686609 43.286527371566081 -10.695538546660069 #
point $-1 62.114932706686609 -43.286527371566081 -10.695538546660069 #
straight-curve $-1 -62.114932706686609 0 10.695538546660069 0 -1 0 I I #
point $-1 -62.114932706686609 43.286527371566081 10.695538546660069 #
point $-1 -62.114932706686609 -43.286527371566081 10.695538546660069 #
straight-curve $-1 62.114932706686609 -43.286527371566081 0 0 0 -1 I I #
straight-curve $-1 62.114932706686609 43.286527371566081 0 0 0 -1 I I #
plane-surface $-1 0 43.286527371566081 0 0 -1 0 0 0 -1 forward_v I I I I #
coedge $-1 $293 $292 $216 $285 forward $211 $-1 #
straight-curve $-1 -48.325570828746983 -43.286527371566081 -1.1213171642809723 0 0 1 I I #
edge $-1 $288 -43.286527371566081 $286 43.286527371566081 $283 $320 forward 7 unknown #
vertex $-1 $217 $321 #
straight-curve $-1 -27.610125883858398 -43.286527371566081 -4.9723843609684355 1 0 0 I I #
vertex $-1 $219 $322 #
straight-curve $-1 -27.610125883858398 43.286527371566081 -4.9723843609684355 -1 0 0 I I #
point $-1 -48.325570828746983 43.286527371566081 -4.9723843609684355 #
point $-1 -48.325570828746983 -43.286527371566081 -4.9723843609684355 #
coedge $-1 $283 $223 $226 $295 forward $211 $-1 #
coedge $-1 $223 $283 $230 $297 reversed $211 $-1 #
straight-curve $-1 -62.114932706686609 0 0.48711570384454683 0 1 0 I I #
edge $-1 $228 -0.48711570384454683 $288 4.9723843609684355 $226 $323 forward 7 unknown #
point $-1 -62.114932706686609 43.286527371566081 0.48711570384454683 #
edge $-1 $231 -0.48711570384454683 $286 4.9723843609684355 $293 $324 forward 7 unknown #
point $-1 -62.114932706686609 -43.286527371566081 0.48711570384454683 #
straight-curve $-1 -48.325570828746983 43.286527371566081 -1.1213171642809723 0 0 -1 I I #
coedge $-1 $247 $246 $239 $301 forward $236 $-1 #
edge $-1 $302 67.599809779393098 $305 72.93428205802104 $300 $325 forward 7 unknown #
vertex $-1 $251 $326 #
straight-curve $-1 5.9430883494583711 17.850106620801228 10.695538546660075 0 1 0 I I #
edge $-1 $305 -8.472251068323839 $248 13.530576506054775 $247 $327 forward 7 unknown #
vertex $-1 $304 $328 #
straight-curve $-1 5.9430883494583711 -30.131586503277916 51.237796345684799 0 -0.84804809178421925 0.52991927123019833 I I #
point $-1 5.9430883494583711 34.749587346599426 10.695538546660067 #
point $-1 -16.059739224920243 43.286527371566081 5.3610662680321326 #
straight-curve $-1 0 43.286527371566081 10.695538546660069 -1 0 0 I I #
vertex $-1 $254 $329 #
point $-1 -10.65917371004452 38.022617099591159 6.4352650177314894 #
vertex $-1 $258 $330 #
point $-1 -4.0583254377309359 38.022617099591159 6.4352650177314894 #
vertex $-1 $262 $331 #
point $-1 2.5425228345826483 38.022617099591159 6.4352650177314894 #
straight-curve $-1 -62.114932706686609 43.286527371566081 0 0 0 -1 I I #
point $-1 -62.114932706686609 -43.286527371566081 -10.695538546660069 #
straight-curve $-1 -62.114932706686609 0 -10.695538546660069 0 1 0 I I #
point $-1 -62.114932706686609 43.286527371566081 -10.695538546660069 #
straight-curve $-1 -62.114932706686609 0 -4.9723843609684355 0 -1 0 I I #
point $-1 -62.114932706686609 -43.286527371566081 -4.9723843609684355 #
point $-1 -62.114932706686609 43.286527371566081 -4.9723843609684355 #
straight-curve $-1 -62.114932706686609 43.286527371566081 0 0 0 -1 I I #
straight-curve $-1 -62.114932706686609 -43.286527371566081 0 0 0 -1 I I #
straight-curve $-1 5.9430883494583711 43.286527371566081 78.295348326053173 0 0 -1 I I #
point $-1 5.9430883494583711 43.286527371566081 10.695538546660069 #
straight-curve $-1 -2.529162718865468 43.286527371566081 5.361066268032129 -1 0 0 I I #
point $-1 5.9430883494583711 43.286527371566081 5.3610662680321326 #
point $-1 -11.65917371004452 37.49269782836096 5.5872169259472697 #
point $-1 -5.0583254377309359 37.49269782836096 5.5872169259472697 #
point $-1 1.5425228345826483 37.49269782836096 5.5872169259472697 #
End-of-ACIS-data 