500 0 5 0           
7 Unknown 11 ACIS 5.0 NT 24 Fri Mar 26 17:33:06 1999 
-1 9.9999999999999995e-007 1e-010 
body $-1 $5 $-1 $6 #
body $-1 $7 $-1 $8 #
body $-1 $9 $-1 $10 #
body $-1 $11 $-1 $12 #
body $-1 $13 $-1 $14 #
lump $-1 $-1 $15 $0 #
transform $-1 1 0 0 0 1 0 0 0 1 49.060335093234045 33.814454539006775 10.165285286752901 1 rotate no_reflect no_shear #
lump $-1 $-1 $16 $1 #
transform $-1 1 0 0 0 1 0 0 0 1 49.060335093234045 33.814454539006775 10.165285286752901 1 rotate no_reflect no_shear #
lump $-1 $-1 $17 $2 #
transform $-1 1 0 0 0 1 0 0 0 1 49.060335093234045 33.814454539006775 10.165285286752901 1 rotate no_reflect no_shear #
lump $-1 $-1 $18 $3 #
transform $-1 1 0 0 0 1 0 0 0 1 49.060335093234045 33.814454539006775 10.165285286752901 1 rotate no_reflect no_shear #
lump $-1 $-1 $19 $4 #
transform $-1 1 0 0 0 1 0 0 0 1 49.060335093234045 33.814454539006775 10.165285286752901 1 rotate no_reflect no_shear #
shell $-1 $-1 $-1 $20 $-1 $5 #
shell $-1 $-1 $-1 $21 $-1 $7 #
shell $-1 $-1 $-1 $22 $-1 $9 #
shell $-1 $-1 $-1 $23 $-1 $11 #
shell $-1 $-1 $-1 $24 $-1 $13 #
face $-1 $25 $26 $15 $-1 $27 forward single #
face $-1 $28 $29 $16 $-1 $30 forward single #
face $-1 $31 $32 $17 $-1 $33 reversed single #
face $-1 $34 $35 $18 $-1 $36 forward single #
face $-1 $37 $38 $19 $-1 $39 forward single #
face $-1 $40 $41 $15 $-1 $42 reversed single #
loop $-1 $-1 $43 $20 #
plane-surface $-1 0 0 10.165285286752901 0 0 1 1 0 0 forward_v I I I I #
face $-1 $44 $45 $16 $-1 $46 forward single #
loop $-1 $-1 $47 $21 #
plane-surface $-1 0 -33.814454539006775 0 0 1 0 0 0 1 forward_v I I I I #
face $-1 $48 $49 $17 $-1 $50 reversed single #
loop $-1 $-1 $51 $22 #
plane-surface $-1 -35.744773348623454 79.272030571064178 116.27918378502218 1 0 0 0 -0.83867057594974714 -0.54463902268945019 forward_v I I I I #
face $-1 $52 $53 $18 $-1 $54 forward single #
loop $-1 $55 $56 $23 #
cone-surface $-1 -29.276575129363508 32.03126364164401 7.837767953748954 0 -0.83867057594974714 -0.54463902268945019 1 0 0 1 I I 0 1 1 forward I I I I #
face $-1 $57 $58 $19 $-1 $59 forward single #
loop $-1 $60 $61 $24 #
cone-surface $-1 -19.574277800473588 32.03126364164401 7.837767953748954 0 -0.83867057594974714 -0.54463902268945019 1 0 0 1 I I 0 1 1 forward I I I I #
face $-1 $62 $63 $15 $-1 $64 reversed single #
loop $-1 $-1 $65 $25 #
plane-surface $-1 0 0 -10.165285286752901 0 0 1 1 0 0 forward_v I I I I #
coedge $-1 $66 $67 $68 $69 forward $26 $-1 #
face $-1 $70 $71 $16 $-1 $72 reversed single #
loop $-1 $-1 $73 $28 #
plane-surface $-1 0 0 10.165285286752901 0 0 1 1 0 0 forward_v I I I I #
coedge $-1 $74 $75 $76 $77 forward $29 $-1 #
face $-1 $78 $79 $17 $-1 $80 reversed single #
loop $-1 $-1 $81 $31 #
plane-surface $-1 -24.425426464918548 -3.0188884067961936 62.838837869030328 0 0.83867057594974714 0.54463902268945019 1 0 0 forward_v I I I I #
coedge $-1 $82 $83 $84 $85 reversed $32 $-1 #
face $-1 $-1 $86 $18 $-1 $87 forward single #
loop $-1 $88 $89 $34 #
cone-surface $-1 -29.276575129363508 31.142106975693324 7.2603428819169231 0 -0.83867057594974714 -0.54463902268945019 0.5 0 0 1 I I -0.70710678118654746 0.70710678118654746 0.5 forward I I I I #
loop $-1 $-1 $90 $23 #
coedge $-1 $56 $56 $91 $92 reversed $35 $-1 #
face $-1 $-1 $93 $19 $-1 $94 forward single #
loop $-1 $95 $96 $37 #
cone-surface $-1 -19.574277800473588 31.142106975693324 7.2603428819169231 0 -0.83867057594974714 -0.54463902268945019 0.5 0 0 1 I I -0.70710678118654746 0.70710678118654746 0.5 forward I I I I #
loop $-1 $-1 $97 $24 #
coedge $-1 $61 $61 $98 $99 reversed $38 $-1 #
face $-1 $100 $101 $15 $-1 $102 reversed single #
loop $-1 $-1 $103 $40 #
plane-surface $-1 0 -33.814454539006775 0 0 1 0 0 0 1 forward_v I I I I #
coedge $-1 $104 $105 $106 $107 forward $41 $-1 #
coedge $-1 $108 $43 $109 $110 forward $26 $-1 #
coedge $-1 $43 $108 $111 $112 forward $26 $-1 #
coedge $-1 $113 $114 $43 $69 reversed $115 $-1 #
edge $-1 $116 -33.814454539006775 $117 33.814454539006775 $68 $118 forward 7 unknown #
face $-1 $119 $120 $16 $-1 $121 reversed single #
loop $-1 $-1 $122 $44 #
plane-surface $-1 -49.060335093234045 0 0 1 0 0 0 0 -1 forward_v I I I I #
coedge $-1 $123 $124 $75 $125 forward $45 $-1 #
coedge $-1 $126 $47 $127 $128 reversed $29 $-1 #
coedge $-1 $47 $126 $73 $125 reversed $29 $-1 #
coedge $-1 $129 $130 $47 $77 reversed $131 $-1 #
edge $-1 $132 -10.165285286752901 $133 10.165285286752901 $76 $134 forward 7 unknown #
face $-1 $135 $136 $17 $-1 $137 reversed single #
loop $-1 $-1 $138 $48 #
plane-surface $-1 -13.106079581213642 79.272030571064178 116.27918378502218 -1 0 0 0 0.83867057594974714 0.54463902268945019 forward_v I I I I #
coedge $-1 $139 $140 $141 $142 reversed $49 $-1 #
coedge $-1 $83 $51 $143 $144 reversed $32 $-1 #
coedge $-1 $51 $82 $139 $145 reversed $32 $-1 #
coedge $-1 $141 $146 $51 $85 forward $147 $-1 #
edge $-1 $148 5.8215607465253143 $149 8.4482997852992128 $84 $150 forward 7 unknown #
loop $-1 $-1 $91 $52 #
plane-surface $-1 -24.425426464918548 -3.0188884067961936 62.838837869030328 0 0.83867057594974714 0.54463902268945019 1 0 0 forward_v I I I I #
loop $-1 $-1 $151 $34 #
coedge $-1 $89 $89 $90 $152 reversed $53 $-1 #
coedge $-1 $90 $90 $89 $152 forward $55 $-1 #
coedge $-1 $91 $91 $56 $92 forward $86 $-1 #
edge $-1 $153 -8.9033658465053147e-016 $153 6.2831853071795996 $91 $154 forward 7 unknown #
loop $-1 $-1 $98 $57 #
plane-surface $-1 -24.425426464918548 -3.0188884067961936 62.838837869030328 0 0.83867057594974714 0.54463902268945019 1 0 0 forward_v I I I I #
loop $-1 $-1 $155 $37 #
coedge $-1 $96 $96 $97 $156 reversed $58 $-1 #
coedge $-1 $97 $97 $96 $156 forward $60 $-1 #
coedge $-1 $98 $98 $61 $99 forward $93 $-1 #
edge $-1 $157 -8.9033658465053147e-016 $157 6.2831853071795996 $98 $158 forward 7 unknown #
face $-1 $159 $160 $15 $-1 $161 reversed single #
loop $-1 $-1 $162 $62 #
plane-surface $-1 -49.060335093234045 0 0 1 0 0 0 0 -1 forward_v I I I I #
coedge $-1 $163 $111 $164 $165 forward $63 $-1 #
coedge $-1 $166 $65 $163 $167 forward $41 $-1 #
coedge $-1 $65 $166 $168 $169 forward $41 $-1 #
coedge $-1 $114 $113 $65 $107 reversed $115 $-1 #
edge $-1 $170 -33.814454539006775 $171 33.814454539006775 $106 $172 forward 7 unknown #
coedge $-1 $67 $66 $173 $174 forward $26 $-1 #
coedge $-1 $175 $176 $66 $110 reversed $160 $-1 #
edge $-1 $117 -49.060335093234045 $177 49.060335093234045 $109 $178 forward 7 unknown #
coedge $-1 $103 $179 $67 $112 reversed $63 $-1 #
edge $-1 $180 -49.060335093234045 $116 49.060335093234045 $111 $181 forward 7 unknown #
coedge $-1 $106 $68 $179 $182 forward $115 $-1 #
coedge $-1 $68 $106 $175 $183 reversed $115 $-1 #
loop $-1 $-1 $113 $159 #
vertex $-1 $69 $184 #
vertex $-1 $69 $185 #
straight-curve $-1 49.060335093234045 0 10.165285286752901 0 1 0 I I #
face $-1 $186 $131 $16 $-1 $187 reversed single #
loop $-1 $-1 $188 $70 #
plane-surface $-1 -47.54247592631318 -46.919771017237252 0 0 1 0 0 0 1 forward_v I I I I #
coedge $-1 $189 $190 $126 $191 forward $71 $-1 #
coedge $-1 $192 $73 $190 $193 forward $45 $-1 #
coedge $-1 $73 $192 $129 $194 forward $45 $-1 #
edge $-1 $132 46.024616759392316 $195 49.060335093234045 $73 $196 forward 7 unknown #
coedge $-1 $75 $74 $122 $191 reversed $29 $-1 #
coedge $-1 $197 $198 $74 $128 forward $199 $-1 #
edge $-1 $200 -49.060335093234045 $133 -46.024616759392316 $127 $201 forward 7 unknown #
coedge $-1 $202 $76 $124 $194 reversed $131 $-1 #
coedge $-1 $76 $202 $197 $203 reversed $131 $-1 #
loop $-1 $-1 $202 $119 #
vertex $-1 $125 $204 #
vertex $-1 $203 $205 #
straight-curve $-1 -46.024616759392316 -33.814454539006775 0 0 0 -1 I I #
face $-1 $-1 $147 $17 $-1 $206 forward single #
loop $-1 $-1 $207 $78 #
plane-surface $-1 0 33.814454539006775 0 0 -1 0 0 0 -1 forward_v I I I I #
coedge $-1 $208 $209 $210 $211 reversed $79 $-1 #
coedge $-1 $212 $81 $83 $145 forward $49 $-1 #
coedge $-1 $81 $212 $208 $213 forward $49 $-1 #
coedge $-1 $210 $84 $81 $142 forward $147 $-1 #
edge $-1 $149 -23.532060116164182 $214 -0.89336634875436793 $141 $215 forward 7 unknown #
coedge $-1 $216 $217 $82 $144 forward $136 $-1 #
edge $-1 $218 -52.019130150791447 $148 -47.974306605758187 $143 $219 forward 7 unknown #
edge $-1 $149 62.806010002947339 $218 67.628909078013521 $83 $220 forward 7 unknown #
coedge $-1 $84 $210 $216 $221 forward $147 $-1 #
loop $-1 $-1 $210 $135 #
vertex $-1 $144 $222 #
vertex $-1 $85 $223 #
straight-curve $-1 -35.744773348623454 39.636015285532089 10.165285286752898 0 -1 0 I I #
coedge $-1 $151 $151 $-1 $224 reversed $88 $-1 #
edge $-1 $225 0 $225 6.2831853071796004 $89 $226 forward 7 unknown #
vertex $-1 $92 $227 #
ellipse-curve $-1 -29.276575129363508 32.501085019619836 8.142873514236264 0 0.83867057594974714 0.54463902268945019 1 0 0 1 I I #
coedge $-1 $155 $155 $-1 $228 reversed $95 $-1 #
edge $-1 $229 0 $229 6.2831853071796004 $96 $230 forward 7 unknown #
vertex $-1 $99 $231 #
ellipse-curve $-1 -19.574277800473588 32.501085019619836 8.142873514236264 0 0.83867057594974714 0.54463902268945019 1 0 0 1 I I #
face $-1 $-1 $115 $15 $-1 $232 reversed single #
loop $-1 $-1 $175 $100 #
plane-surface $-1 0 33.814454539006775 0 0 -1 0 0 0 -1 forward_v I I I I #
coedge $-1 $233 $173 $176 $234 forward $101 $-1 #
coedge $-1 $179 $103 $104 $167 reversed $63 $-1 #
coedge $-1 $173 $233 $103 $165 reversed $101 $-1 #
edge $-1 $180 -10.165285286752901 $235 10.165285286752901 $164 $236 forward 7 unknown #
coedge $-1 $105 $104 $233 $237 forward $41 $-1 #
edge $-1 $171 -49.060335093234045 $235 49.060335093234045 $163 $238 forward 7 unknown #
coedge $-1 $176 $175 $105 $169 reversed $160 $-1 #
edge $-1 $239 -49.060335093234045 $170 49.060335093234045 $168 $240 forward 7 unknown #
vertex $-1 $107 $241 #
vertex $-1 $182 $242 #
straight-curve $-1 49.060335093234045 0 -10.165285286752901 0 -1 0 I I #
coedge $-1 $162 $164 $108 $174 reversed $101 $-1 #
edge $-1 $177 -33.814454539006775 $180 33.814454539006775 $173 $243 forward 7 unknown #
coedge $-1 $168 $109 $114 $183 forward $160 $-1 #
coedge $-1 $109 $168 $162 $234 reversed $160 $-1 #
vertex $-1 $110 $244 #
straight-curve $-1 0 33.814454539006775 10.165285286752901 -1 0 0 I I #
coedge $-1 $111 $163 $113 $182 reversed $63 $-1 #
vertex $-1 $174 $245 #
straight-curve $-1 0 -33.814454539006775 10.165285286752901 1 0 0 I I #
edge $-1 $116 -10.165285286752901 $171 10.165285286752901 $113 $246 forward 7 unknown #
edge $-1 $117 -10.165285286752901 $170 10.165285286752901 $114 $247 forward 7 unknown #
point $-1 49.060335093234045 -33.814454539006775 10.165285286752901 #
point $-1 49.060335093234045 33.814454539006775 10.165285286752901 #
face $-1 $-1 $199 $16 $-1 $248 reversed single #
plane-surface $-1 -46.024616759392316 -40.367112778122014 0 -1 0 0 0 0 1 forward_v I I I I #
coedge $-1 $249 $250 $251 $252 forward $120 $-1 #
coedge $-1 $251 $122 $198 $253 reversed $71 $-1 #
coedge $-1 $122 $251 $123 $193 reversed $71 $-1 #
edge $-1 $195 -10.165285286752901 $200 10.165285286752901 $122 $254 forward 7 unknown #
coedge $-1 $124 $123 $250 $255 forward $45 $-1 #
edge $-1 $195 33.814454539006775 $256 46.919771017237252 $190 $257 forward 7 unknown #
edge $-1 $258 -6.5526582391152388 $132 6.5526582391152388 $129 $259 forward 7 unknown #
vertex $-1 $193 $260 #
straight-curve $-1 0 -33.814454539006775 10.165285286752901 -1 0 0 I I #
coedge $-1 $261 $127 $130 $203 forward $199 $-1 #
coedge $-1 $127 $261 $189 $253 forward $199 $-1 #
loop $-1 $-1 $127 $186 #
vertex $-1 $191 $262 #
straight-curve $-1 0 -33.814454539006775 -10.165285286752901 1 0 0 I I #
coedge $-1 $130 $129 $263 $264 forward $131 $-1 #
edge $-1 $133 -6.5526582391152388 $265 6.5526582391152388 $130 $266 forward 7 unknown #
point $-1 -46.024616759392316 -33.814454539006775 10.165285286752901 #
point $-1 -46.024616759392316 -33.814454539006775 -10.165285286752901 #
plane-surface $-1 0 0 10.165285286752901 0 0 1 1 0 0 forward_v I I I I #
coedge $-1 $217 $216 $209 $267 forward $136 $-1 #
coedge $-1 $209 $138 $140 $213 reversed $79 $-1 #
coedge $-1 $138 $208 $207 $267 reversed $79 $-1 #
coedge $-1 $146 $141 $138 $211 forward $147 $-1 #
edge $-1 $214 -8.4482997852992128 $268 -5.8215607465253143 $210 $269 forward 7 unknown #
coedge $-1 $140 $139 $217 $270 reversed $49 $-1 #
edge $-1 $271 -67.628909078013521 $214 -62.806010002947339 $208 $272 forward 7 unknown #
vertex $-1 $142 $273 #
straight-curve $-1 -12.212713232459274 31.187715500232883 10.165285286752898 1 0 0 I I #
coedge $-1 $207 $143 $146 $221 reversed $136 $-1 #
coedge $-1 $143 $207 $212 $270 forward $136 $-1 #
vertex $-1 $144 $274 #
straight-curve $-1 -35.744773348623454 33.814454539006775 58.139591892511092 0 0 1 I I #
straight-curve $-1 -35.744773348623454 -3.0188884067961936 62.838837869030328 0 0.54463902268945019 -0.83867057594974714 I I #
edge $-1 $268 13.106079581213642 $148 35.744773348623454 $216 $275 forward 7 unknown #
point $-1 -35.744773348623454 33.814454539006775 10.165285286752901 #
point $-1 -35.744773348623454 31.187715500232876 10.165285286752905 #
edge $-1 $276 1 $276 0 $151 $-1 forward 7 unknown #
vertex $-1 $152 $277 #
ellipse-curve $-1 -29.276575129363508 31.561442263668198 7.5326623932616483 0 0.83867057594974714 0.54463902268945019 1 0 0 1 I I #
point $-1 -28.276575129363508 32.501085019619829 8.1428735142362605 #
edge $-1 $278 1 $278 0 $155 $-1 forward 7 unknown #
vertex $-1 $156 $279 #
ellipse-curve $-1 -19.574277800473588 31.561442263668198 7.5326623932616483 0 0.83867057594974714 0.54463902268945019 1 0 0 1 I I #
point $-1 -18.574277800473588 32.501085019619829 8.1428735142362605 #
plane-surface $-1 49.060335093234045 0 0 -1 0 0 0 0 1 forward_v I I I I #
coedge $-1 $164 $162 $166 $237 reversed $101 $-1 #
edge $-1 $177 -10.165285286752901 $239 10.165285286752901 $176 $280 forward 7 unknown #
vertex $-1 $237 $281 #
straight-curve $-1 -49.060335093234045 -33.814454539006775 0 0 0 -1 I I #
edge $-1 $235 -33.814454539006775 $239 33.814454539006775 $233 $282 forward 7 unknown #
straight-curve $-1 0 -33.814454539006775 -10.165285286752901 -1 0 0 I I #
vertex $-1 $169 $283 #
straight-curve $-1 0 33.814454539006775 -10.165285286752901 1 0 0 I I #
point $-1 49.060335093234045 33.814454539006775 -10.165285286752901 #
point $-1 49.060335093234045 -33.814454539006775 -10.165285286752901 #
straight-curve $-1 -49.060335093234045 0 10.165285286752901 0 -1 0 I I #
point $-1 -49.060335093234045 33.814454539006775 10.165285286752901 #
point $-1 -49.060335093234045 -33.814454539006775 10.165285286752901 #
straight-curve $-1 49.060335093234045 -33.814454539006775 0 0 0 -1 I I #
straight-curve $-1 49.060335093234045 33.814454539006775 0 0 0 -1 I I #
plane-surface $-1 0 0 -10.165285286752901 0 0 1 1 0 0 forward_v I I I I #
coedge $-1 $263 $188 $261 $284 reversed $120 $-1 #
coedge $-1 $188 $263 $192 $255 reversed $120 $-1 #
coedge $-1 $190 $189 $188 $252 reversed $71 $-1 #
edge $-1 $256 -10.165285286752901 $285 10.165285286752901 $251 $286 forward 7 unknown #
edge $-1 $285 -46.919771017237252 $200 -33.814454539006775 $189 $287 forward 7 unknown #
straight-curve $-1 -49.060335093234045 -33.814454539006775 0 0 0 -1 I I #
edge $-1 $256 -1.5178591669208643 $258 1.5178591669208643 $250 $288 forward 7 unknown #
vertex $-1 $193 $289 #
straight-curve $-1 -49.060335093234045 0 10.165285286752901 0 -1 0 I I #
vertex $-1 $194 $290 #
straight-curve $-1 -46.024616759392316 -40.367112778122014 10.165285286752901 0 1 0 I I #
point $-1 -49.060335093234045 -33.814454539006775 10.165285286752901 #
coedge $-1 $198 $197 $249 $284 forward $199 $-1 #
point $-1 -49.060335093234045 -33.814454539006775 -10.165285286752901 #
coedge $-1 $250 $249 $202 $264 reversed $120 $-1 #
edge $-1 $258 -10.165285286752901 $265 10.165285286752901 $202 $291 forward 7 unknown #
vertex $-1 $264 $292 #
straight-curve $-1 -46.024616759392316 -40.367112778122014 -10.165285286752901 0 -1 0 I I #
edge $-1 $268 47.974306605758187 $271 52.019130150791447 $207 $293 forward 7 unknown #
vertex $-1 $221 $294 #
straight-curve $-1 -13.106079581213642 39.636015285532089 10.165285286752898 0 1 0 I I #
edge $-1 $271 0.89336634875436793 $218 23.532060116164182 $217 $295 forward 7 unknown #
vertex $-1 $270 $296 #
straight-curve $-1 -13.106079581213642 -3.0188884067961936 62.838837869030328 0 -0.54463902268945019 0.83867057594974714 I I #
point $-1 -13.106079581213642 31.187715500232876 10.165285286752905 #
point $-1 -35.744773348623454 33.814454539006775 6.1204617417196445 #
straight-curve $-1 0 33.814454539006775 10.165285286752901 -1 0 0 I I #
vertex $-1 $224 $297 #
point $-1 -28.276575129363508 31.561442263668198 7.5326623932616483 #
vertex $-1 $228 $298 #
point $-1 -18.574277800473588 31.561442263668198 7.5326623932616483 #
straight-curve $-1 -49.060335093234045 33.814454539006775 0 0 0 -1 I I #
point $-1 -49.060335093234045 -33.814454539006775 -10.165285286752901 #
straight-curve $-1 -49.060335093234045 0 -10.165285286752901 0 1 0 I I #
point $-1 -49.060335093234045 33.814454539006775 -10.165285286752901 #
edge $-1 $265 -1.5178591669208643 $285 1.5178591669208643 $249 $299 forward 7 unknown #
vertex $-1 $253 $300 #
straight-curve $-1 -49.060335093234045 -46.919771017237252 0 0 0 -1 I I #
straight-curve $-1 -49.060335093234045 0 -10.165285286752901 0 1 0 I I #
straight-curve $-1 -47.54247592631318 -46.919771017237252 10.165285286752901 1 0 0 I I #
point $-1 -49.060335093234045 -46.919771017237252 10.165285286752901 #
point $-1 -46.024616759392316 -46.919771017237252 10.165285286752901 #
straight-curve $-1 -46.024616759392316 -46.919771017237252 0 0 0 -1 I I #
point $-1 -46.024616759392316 -46.919771017237252 -10.165285286752901 #
straight-curve $-1 -13.106079581213642 33.814454539006775 58.139591892511092 0 0 -1 I I #
point $-1 -13.106079581213642 33.814454539006775 10.165285286752901 #
straight-curve $-1 -12.212713232459274 33.814454539006775 6.1204617417196481 -1 0 0 I I #
point $-1 -13.106079581213642 33.814454539006775 6.1204617417196445 #
point $-1 -29.276575129363508 30.722771687718449 6.9880233705721979 #
point $-1 -19.574277800473588 30.722771687718449 6.9880233705721979 #
straight-curve $-1 -47.54247592631318 -46.919771017237252 -10.165285286752901 -1 0 0 I I #
point $-1 -49.060335093234045 -46.919771017237252 -10.165285286752901 #
End-of-ACIS-data 