500 0 9 0           
7 Unknown 11 ACIS 5.0 NT 24 Fri Mar 26 01:52:04 1999 
-1 9.9999999999999995e-007 1e-010 
body $-1 $9 $-1 $10 #
body $-1 $11 $-1 $12 #
body $-1 $13 $-1 $14 #
body $-1 $15 $-1 $16 #
body $-1 $17 $-1 $18 #
body $-1 $19 $-1 $20 #
body $-1 $21 $-1 $22 #
body $-1 $23 $-1 $24 #
body $-1 $25 $-1 $26 #
lump $-1 $-1 $27 $0 #
transform $-1 1 0 0 0 1 0 0 0 1 70.113223670155946 44.578076195179904 14.136911013122132 1 rotate no_reflect no_shear #
lump $-1 $-1 $28 $1 #
transform $-1 1 0 0 0 1 0 0 0 1 70.113223670155946 44.578076195179904 14.136911013122132 1 rotate no_reflect no_shear #
lump $-1 $-1 $29 $2 #
transform $-1 1 0 0 0 1 0 0 0 1 70.113223670155946 44.578076195179904 14.136911013122132 1 rotate no_reflect no_shear #
lump $-1 $-1 $30 $3 #
transform $-1 1 0 0 0 1 0 0 0 1 70.113223670155946 44.578076195179904 14.136911013122132 1 rotate no_reflect no_shear #
lump $-1 $-1 $31 $4 #
transform $-1 1 0 0 0 1 0 0 0 1 70.113223670155946 44.578076195179904 14.136911013122132 1 rotate no_reflect no_shear #
lump $-1 $-1 $32 $5 #
transform $-1 1 0 0 0 1 0 0 0 1 70.113223670155946 44.578076195179904 14.136911013122132 1 rotate no_reflect no_shear #
lump $-1 $-1 $33 $6 #
transform $-1 1 0 0 0 1 0 0 0 1 70.113223670155946 44.578076195179904 14.136911013122132 1 rotate no_reflect no_shear #
lump $-1 $-1 $34 $7 #
transform $-1 1 0 0 0 1 0 0 0 1 70.113223670155946 44.578076195179904 14.136911013122132 1 rotate no_reflect no_shear #
lump $-1 $-1 $35 $8 #
transform $-1 1 0 0 0 1 0 0 0 1 70.113223670155946 44.578076195179904 14.136911013122132 1 rotate no_reflect no_shear #
shell $-1 $-1 $-1 $36 $-1 $9 #
shell $-1 $-1 $-1 $37 $-1 $11 #
shell $-1 $-1 $-1 $38 $-1 $13 #
shell $-1 $-1 $-1 $39 $-1 $15 #
shell $-1 $-1 $-1 $40 $-1 $17 #
shell $-1 $-1 $-1 $41 $-1 $19 #
shell $-1 $-1 $-1 $42 $-1 $21 #
shell $-1 $-1 $-1 $43 $-1 $23 #
shell $-1 $-1 $-1 $44 $-1 $25 #
face $-1 $45 $46 $27 $-1 $47 forward single #
face $-1 $48 $49 $28 $-1 $50 forward single #
face $-1 $51 $52 $29 $-1 $53 reversed single #
face $-1 $54 $55 $30 $-1 $56 forward single #
face $-1 $57 $58 $31 $-1 $59 forward single #
face $-1 $60 $61 $32 $-1 $62 reversed single #
face $-1 $63 $64 $33 $-1 $65 forward single #
face $-1 $66 $67 $34 $-1 $68 forward single #
face $-1 $69 $70 $35 $-1 $71 forward single #
face $-1 $72 $73 $27 $-1 $74 reversed single #
loop $-1 $-1 $75 $36 #
plane-surface $-1 0 0 14.136911013122132 0 0 1 1 0 0 forward_v I I I I #
face $-1 $76 $77 $28 $-1 $78 reversed single #
loop $-1 $-1 $79 $37 #
plane-surface $-1 -70.113223670155946 0 0 1 0 0 0 0 -1 forward_v I I I I #
face $-1 $80 $81 $29 $-1 $82 reversed single #
loop $-1 $-1 $83 $38 #
plane-surface $-1 19.306575886258052 -116.80003664553331 128.94064739684802 -1 0 0 0 -0.51503808176128008 0.85716729658548041 forward_v I I I I #
face $-1 $84 $85 $30 $-1 $86 forward single #
loop $-1 $87 $88 $39 #
cone-surface $-1 8.0912379155394092 -39.145506510093227 9.8686306378985549 0 0.51503808176128008 -0.85716729658548041 1 0 0 1 I I 0 1 1 forward I I I I #
face $-1 $89 $90 $31 $-1 $91 forward single #
loop $-1 $92 $93 $40 #
cone-surface $-1 14.820440697970611 -39.145506510093227 9.8686306378985549 0 0.51503808176128008 -0.85716729658548041 1 0 0 1 I I 0 1 1 forward I I I I #
face $-1 $94 $95 $32 $-1 $96 reversed single #
loop $-1 $-1 $97 $41 #
plane-surface $-1 52.474413889836455 54.872273025727537 169.11481627255819 1 0 0 0 -0.5877852598018023 -0.80901698891910034 forward_v I I I I #
face $-1 $98 $99 $33 $-1 $100 forward single #
loop $-1 $101 $102 $42 #
cone-surface $-1 56.002175845900354 36.028935558795332 7.232288790537666 0 -0.5877852598018023 -0.80901698891910034 1 0 0 1 I I 0 1 1 forward I I I I #
face $-1 $103 $104 $34 $-1 $105 forward single #
loop $-1 $106 $107 $43 #
cone-surface $-1 61.293818779996201 36.028935558795332 7.232288790537666 0 -0.5877852598018023 -0.80901698891910034 1 0 0 1 I I 0 1 1 forward I I I I #
face $-1 $108 $109 $35 $-1 $110 forward single #
loop $-1 $111 $112 $44 #
cone-surface $-1 66.585461714092048 36.028935558795332 7.232288790537666 0 -0.5877852598018023 -0.80901698891910034 1 0 0 1 I I 0 1 1 forward I I I I #
face $-1 $113 $114 $27 $-1 $115 reversed single #
loop $-1 $-1 $116 $45 #
plane-surface $-1 0 0 -14.136911013122132 0 0 1 1 0 0 forward_v I I I I #
coedge $-1 $117 $118 $119 $120 forward $46 $-1 #
face $-1 $121 $122 $28 $-1 $123 forward single #
loop $-1 $-1 $124 $48 #
plane-surface $-1 0 44.578076195179904 0 0 -1 0 0 0 -1 forward_v I I I I #
coedge $-1 $125 $126 $127 $128 forward $49 $-1 #
face $-1 $129 $130 $29 $-1 $131 reversed single #
loop $-1 $-1 $132 $51 #
plane-surface $-1 11.455839306754996 -44.578076195179918 8.7431226203666483 0 -0.51503808176128008 0.85716729658548041 1 0 0 forward_v I I I I #
coedge $-1 $133 $134 $135 $136 reversed $52 $-1 #
face $-1 $-1 $137 $30 $-1 $138 forward single #
loop $-1 $139 $140 $54 #
cone-surface $-1 8.0912379155394092 -37.943803379965502 7.8686608107599749 0 0.51503808176128008 -0.85716729658548041 0.5 0 0 1 I I -0.70710678118654624 0.70710678118654879 0.5 forward I I I I #
loop $-1 $-1 $141 $39 #
coedge $-1 $88 $88 $142 $143 reversed $55 $-1 #
face $-1 $-1 $144 $31 $-1 $145 forward single #
loop $-1 $146 $147 $57 #
cone-surface $-1 14.820440697970611 -37.943803379965502 7.8686608107599749 0 0.51503808176128008 -0.85716729658548041 0.5 0 0 1 I I -0.70710678118654624 0.70710678118654879 0.5 forward I I I I #
loop $-1 $-1 $148 $40 #
coedge $-1 $93 $93 $149 $150 reversed $58 $-1 #
face $-1 $151 $152 $32 $-1 $153 forward single #
loop $-1 $-1 $154 $60 #
plane-surface $-1 61.293818779996201 -27.550765755281432 55.669238078476269 0 0.5877852598018023 0.80901698891910034 1 0 0 forward_v I I I I #
coedge $-1 $155 $156 $157 $158 reversed $61 $-1 #
face $-1 $-1 $159 $33 $-1 $160 forward single #
loop $-1 $161 $162 $63 #
cone-surface $-1 56.002175845900354 34.668151781723736 5.3593306386649271 0 -0.5877852598018023 -0.80901698891910034 0.5 0 0 1 I I -0.70710678118654746 0.70710678118654746 0.5 forward I I I I #
loop $-1 $-1 $163 $42 #
coedge $-1 $102 $102 $164 $165 reversed $64 $-1 #
face $-1 $-1 $166 $34 $-1 $167 forward single #
loop $-1 $168 $169 $66 #
cone-surface $-1 61.293818779996201 34.668151781723736 5.3593306386649271 0 -0.5877852598018023 -0.80901698891910034 0.5 0 0 1 I I -0.70710678118654746 0.70710678118654746 0.5 forward I I I I #
loop $-1 $-1 $170 $43 #
coedge $-1 $107 $107 $171 $172 reversed $67 $-1 #
face $-1 $-1 $173 $35 $-1 $174 forward single #
loop $-1 $175 $176 $69 #
cone-surface $-1 66.585461714092048 34.668151781723736 5.3593306386649271 0 -0.5877852598018023 -0.80901698891910034 0.5 0 0 1 I I -0.70710678118654746 0.70710678118654746 0.5 forward I I I I #
loop $-1 $-1 $177 $44 #
coedge $-1 $112 $112 $178 $179 reversed $70 $-1 #
face $-1 $180 $181 $27 $-1 $182 reversed single #
loop $-1 $-1 $183 $72 #
plane-surface $-1 0 -44.578076195179904 0 0 1 0 0 0 1 forward_v I I I I #
coedge $-1 $184 $185 $186 $187 forward $73 $-1 #
coedge $-1 $188 $75 $189 $190 forward $46 $-1 #
coedge $-1 $75 $188 $191 $192 forward $46 $-1 #
coedge $-1 $193 $194 $75 $120 reversed $195 $-1 #
edge $-1 $196 -44.578076195179904 $197 44.578076195179904 $119 $198 forward 7 unknown #
face $-1 $199 $200 $28 $-1 $201 reversed single #
loop $-1 $-1 $127 $76 #
plane-surface $-1 -77.424004650783615 0 -6.4499958378995519 0 0 1 1 0 0 forward_v I I I I #
coedge $-1 $202 $203 $126 $204 forward $77 $-1 #
coedge $-1 $205 $79 $206 $207 reversed $49 $-1 #
coedge $-1 $79 $205 $124 $204 reversed $49 $-1 #
coedge $-1 $208 $209 $79 $128 reversed $122 $-1 #
edge $-1 $210 -44.578076195179904 $211 44.578076195179904 $127 $212 forward 7 unknown #
face $-1 $213 $214 $29 $-1 $215 reversed single #
loop $-1 $-1 $216 $80 #
plane-surface $-1 3.6051027272519391 -116.80003664553331 128.94064739684802 1 0 0 0 0.51503808176128008 -0.85716729658548041 forward_v I I I I #
coedge $-1 $217 $218 $219 $220 reversed $81 $-1 #
coedge $-1 $134 $83 $221 $222 reversed $52 $-1 #
coedge $-1 $83 $133 $217 $223 reversed $52 $-1 #
coedge $-1 $219 $224 $83 $136 forward $225 $-1 #
edge $-1 $226 13.821942127586752 $227 22.798713319265914 $135 $228 forward 7 unknown #
loop $-1 $-1 $142 $84 #
plane-surface $-1 11.455839306754996 -44.578076195179918 8.7431226203666483 0 -0.51503808176128008 0.85716729658548041 1 0 0 forward_v I I I I #
loop $-1 $-1 $229 $54 #
coedge $-1 $140 $140 $141 $230 reversed $85 $-1 #
coedge $-1 $141 $141 $140 $230 forward $87 $-1 #
coedge $-1 $142 $142 $88 $143 forward $137 $-1 #
edge $-1 $231 -3.659565676352941e-015 $231 6.2831853071795969 $142 $232 forward 7 unknown #
loop $-1 $-1 $149 $89 #
plane-surface $-1 11.455839306754996 -44.578076195179918 8.7431226203666483 0 -0.51503808176128008 0.85716729658548041 1 0 0 forward_v I I I I #
loop $-1 $-1 $233 $57 #
coedge $-1 $147 $147 $148 $234 reversed $90 $-1 #
coedge $-1 $148 $148 $147 $234 forward $92 $-1 #
coedge $-1 $149 $149 $93 $150 forward $144 $-1 #
edge $-1 $235 -3.659565676352941e-015 $235 6.2831853071795969 $149 $236 forward 7 unknown #
face $-1 $237 $238 $32 $-1 $239 reversed single #
loop $-1 $-1 $157 $94 #
plane-surface $-1 0 0 14.136911013122132 0 0 1 1 0 0 forward_v I I I I #
coedge $-1 $240 $241 $242 $243 reversed $95 $-1 #
coedge $-1 $156 $97 $244 $245 reversed $61 $-1 #
coedge $-1 $97 $155 $240 $246 reversed $61 $-1 #
coedge $-1 $242 $247 $97 $158 forward $152 $-1 #
edge $-1 $248 -17.141939682316135 $249 -2.1774407038883297 $157 $250 forward 7 unknown #
loop $-1 $-1 $164 $98 #
plane-surface $-1 61.293818779996201 -27.550765755281432 55.669238078476269 0 0.5877852598018023 0.80901698891910034 1 0 0 forward_v I I I I #
loop $-1 $-1 $251 $63 #
coedge $-1 $162 $162 $163 $252 reversed $99 $-1 #
coedge $-1 $163 $163 $162 $252 forward $101 $-1 #
coedge $-1 $164 $164 $102 $165 forward $159 $-1 #
edge $-1 $253 1.0556592281836782e-015 $253 6.2831853071796013 $164 $254 forward 7 unknown #
loop $-1 $-1 $171 $103 #
plane-surface $-1 61.293818779996201 -27.550765755281432 55.669238078476269 0 0.5877852598018023 0.80901698891910034 1 0 0 forward_v I I I I #
loop $-1 $-1 $255 $66 #
coedge $-1 $169 $169 $170 $256 reversed $104 $-1 #
coedge $-1 $170 $170 $169 $256 forward $106 $-1 #
coedge $-1 $171 $171 $107 $172 forward $166 $-1 #
edge $-1 $257 1.0556592281836782e-015 $257 6.2831853071796013 $171 $258 forward 7 unknown #
loop $-1 $-1 $178 $108 #
plane-surface $-1 61.293818779996201 -27.550765755281432 55.669238078476269 0 0.5877852598018023 0.80901698891910034 1 0 0 forward_v I I I I #
loop $-1 $-1 $259 $69 #
coedge $-1 $176 $176 $177 $260 reversed $109 $-1 #
coedge $-1 $177 $177 $176 $260 forward $111 $-1 #
coedge $-1 $178 $178 $112 $179 forward $173 $-1 #
edge $-1 $261 1.0556592281836782e-015 $261 6.2831853071796013 $178 $262 forward 7 unknown #
face $-1 $263 $264 $27 $-1 $265 reversed single #
loop $-1 $-1 $266 $113 #
plane-surface $-1 -70.113223670155946 0 0 1 0 0 0 0 -1 forward_v I I I I #
coedge $-1 $267 $191 $266 $268 forward $114 $-1 #
coedge $-1 $269 $116 $267 $270 forward $73 $-1 #
coedge $-1 $116 $269 $271 $272 forward $73 $-1 #
coedge $-1 $194 $193 $116 $187 reversed $195 $-1 #
edge $-1 $273 -44.578076195179904 $274 44.578076195179904 $186 $275 forward 7 unknown #
coedge $-1 $118 $117 $276 $277 forward $46 $-1 #
coedge $-1 $278 $279 $117 $190 reversed $264 $-1 #
edge $-1 $197 -70.113223670155946 $280 70.113223670155946 $189 $281 forward 7 unknown #
coedge $-1 $183 $282 $118 $192 reversed $114 $-1 #
edge $-1 $283 -70.113223670155946 $196 70.113223670155946 $191 $284 forward 7 unknown #
coedge $-1 $186 $119 $282 $285 forward $195 $-1 #
coedge $-1 $119 $186 $278 $286 reversed $195 $-1 #
loop $-1 $-1 $193 $263 #
vertex $-1 $120 $287 #
vertex $-1 $120 $288 #
straight-curve $-1 70.113223670155946 0 14.136911013122132 0 1 0 I I #
face $-1 $289 $290 $28 $-1 $291 reversed single #
loop $-1 $-1 $292 $121 #
plane-surface $-1 -77.424004650783615 0 -12.27776666168724 0 0 1 1 0 0 forward_v I I I I #
coedge $-1 $293 $124 $294 $295 reversed $77 $-1 #
coedge $-1 $124 $293 $208 $296 reversed $77 $-1 #
edge $-1 $210 6.4499958378995519 $297 12.27776666168724 $124 $298 forward 7 unknown #
coedge $-1 $126 $125 $292 $299 forward $49 $-1 #
coedge $-1 $300 $301 $125 $207 forward $302 $-1 #
edge $-1 $303 -12.27776666168724 $211 -6.4499958378995519 $206 $304 forward 7 unknown #
coedge $-1 $305 $127 $203 $296 forward $122 $-1 #
coedge $-1 $127 $305 $300 $306 forward $122 $-1 #
vertex $-1 $204 $307 #
vertex $-1 $306 $308 #
straight-curve $-1 -70.113223670155946 0 -6.4499958378995519 0 -1 0 I I #
face $-1 $-1 $225 $29 $-1 $309 forward single #
loop $-1 $-1 $310 $129 #
plane-surface $-1 0 -44.578076195179904 0 0 1 0 0 0 1 forward_v I I I I #
coedge $-1 $311 $312 $313 $314 reversed $130 $-1 #
coedge $-1 $315 $132 $134 $223 forward $81 $-1 #
coedge $-1 $132 $315 $311 $316 forward $81 $-1 #
coedge $-1 $313 $135 $132 $220 forward $225 $-1 #
edge $-1 $227 -13.578656232880554 $317 2.1228169261255587 $219 $318 forward 7 unknown #
coedge $-1 $319 $320 $133 $222 forward $214 $-1 #
edge $-1 $321 -55.727201078057355 $226 -50.33341268530188 $221 $322 forward 7 unknown #
edge $-1 $227 -10.472601121669104 $321 -1.6755537013839907e-014 $134 $323 forward 7 unknown #
coedge $-1 $135 $313 $319 $324 forward $225 $-1 #
loop $-1 $-1 $313 $213 #
vertex $-1 $222 $325 #
vertex $-1 $136 $326 #
straight-curve $-1 19.306575886258052 -58.400018322766655 14.13691101312213 0 1 0 I I #
coedge $-1 $229 $229 $-1 $327 reversed $139 $-1 #
edge $-1 $328 0 $328 6.2831853071796004 $140 $329 forward 7 unknown #
vertex $-1 $143 $330 #
ellipse-curve $-1 8.0912379155394092 -40.089690599340315 11.440016816744398 0 -0.51503808176128008 0.85716729658548041 1 0 0 1 I I #
coedge $-1 $233 $233 $-1 $331 reversed $146 $-1 #
edge $-1 $332 0 $332 6.2831853071796004 $147 $333 forward 7 unknown #
vertex $-1 $150 $334 #
ellipse-curve $-1 14.820440697970611 -40.089690599340315 11.440016816744398 0 -0.51503808176128008 0.85716729658548041 1 0 0 1 I I #
face $-1 $-1 $335 $32 $-1 $336 reversed single #
loop $-1 $-1 $337 $151 #
plane-surface $-1 70.113223670155946 0 0 -1 0 0 0 0 1 forward_v I I I I #
coedge $-1 $338 $154 $156 $246 forward $95 $-1 #
coedge $-1 $154 $338 $337 $339 reversed $95 $-1 #
coedge $-1 $340 $157 $154 $243 forward $152 $-1 #
edge $-1 $249 21.827504499838355 $341 39.466314280157846 $242 $342 forward 7 unknown #
coedge $-1 $343 $344 $155 $245 forward $335 $-1 #
edge $-1 $345 -81.292842253499529 $248 -70.420497123156963 $244 $346 forward 7 unknown #
edge $-1 $249 70.65901427905591 $345 89.156152390359793 $156 $347 forward 7 unknown #
coedge $-1 $157 $340 $343 $348 forward $152 $-1 #
vertex $-1 $245 $349 #
vertex $-1 $158 $350 #
straight-curve $-1 52.474413889836455 27.436136512863769 14.13691101312213 0 -1 0 I I #
coedge $-1 $251 $251 $-1 $351 reversed $161 $-1 #
edge $-1 $352 0 $352 6.2831853071796004 $162 $353 forward 7 unknown #
vertex $-1 $165 $354 #
ellipse-curve $-1 56.002175845900354 37.095826705966012 8.7007384479508367 0 0.5877852598018023 0.80901698891910034 1 0 0 1 I I #
coedge $-1 $255 $255 $-1 $355 reversed $168 $-1 #
edge $-1 $356 0 $356 6.2831853071796004 $169 $357 forward 7 unknown #
vertex $-1 $172 $358 #
ellipse-curve $-1 61.293818779996201 37.095826705966012 8.7007384479508367 0 0.5877852598018023 0.80901698891910034 1 0 0 1 I I #
coedge $-1 $259 $259 $-1 $359 reversed $175 $-1 #
edge $-1 $360 0 $360 6.2831853071796004 $176 $361 forward 7 unknown #
vertex $-1 $179 $362 #
ellipse-curve $-1 66.585461714092048 37.095826705966012 8.7007384479508367 0 0.5877852598018023 0.80901698891910034 1 0 0 1 I I #
face $-1 $-1 $195 $27 $-1 $363 reversed single #
loop $-1 $-1 $278 $180 #
plane-surface $-1 0 44.578076195179904 0 0 -1 0 0 0 -1 forward_v I I I I #
coedge $-1 $276 $364 $183 $268 reversed $181 $-1 #
coedge $-1 $282 $183 $184 $270 reversed $114 $-1 #
edge $-1 $283 -14.136911013122132 $365 14.136911013122132 $266 $366 forward 7 unknown #
coedge $-1 $185 $184 $364 $367 forward $73 $-1 #
edge $-1 $274 -70.113223670155946 $365 70.113223670155946 $267 $368 forward 7 unknown #
coedge $-1 $279 $278 $185 $272 reversed $264 $-1 #
edge $-1 $369 -70.113223670155946 $273 70.113223670155946 $271 $370 forward 7 unknown #
vertex $-1 $187 $371 #
vertex $-1 $285 $372 #
straight-curve $-1 70.113223670155946 0 -14.136911013122132 0 -1 0 I I #
coedge $-1 $373 $266 $188 $277 reversed $181 $-1 #
edge $-1 $280 -44.578076195179904 $283 44.578076195179904 $276 $374 forward 7 unknown #
coedge $-1 $271 $189 $194 $286 forward $264 $-1 #
coedge $-1 $189 $271 $373 $375 reversed $264 $-1 #
vertex $-1 $190 $376 #
straight-curve $-1 0 44.578076195179904 14.136911013122132 -1 0 0 I I #
coedge $-1 $191 $267 $193 $285 reversed $114 $-1 #
vertex $-1 $277 $377 #
straight-curve $-1 0 -44.578076195179904 14.136911013122132 1 0 0 I I #
edge $-1 $196 -14.136911013122132 $274 14.136911013122132 $193 $378 forward 7 unknown #
edge $-1 $197 -14.136911013122132 $273 14.136911013122132 $194 $379 forward 7 unknown #
point $-1 70.113223670155946 -44.578076195179904 14.136911013122132 #
point $-1 70.113223670155946 44.578076195179904 14.136911013122132 #
face $-1 $-1 $302 $28 $-1 $380 reversed single #
loop $-1 $-1 $381 $199 #
plane-surface $-1 -84.734785631411285 0 -9.3638812497933959 1 0 0 0 0 -1 forward_v I I I I #
coedge $-1 $382 $294 $205 $299 reversed $200 $-1 #
coedge $-1 $203 $202 $381 $383 reversed $77 $-1 #
coedge $-1 $292 $384 $202 $295 forward $200 $-1 #
edge $-1 $385 -7.3107809806276691 $297 7.3107809806276691 $202 $386 forward 7 unknown #
edge $-1 $210 -7.3107809806276691 $387 7.3107809806276691 $203 $388 forward 7 unknown #
vertex $-1 $204 $389 #
straight-curve $-1 -70.113223670155946 44.578076195179904 0 0 0 -1 I I #
edge $-1 $303 -44.578076195179904 $297 44.578076195179904 $292 $390 forward 7 unknown #
coedge $-1 $391 $206 $209 $306 reversed $302 $-1 #
coedge $-1 $206 $391 $382 $392 reversed $302 $-1 #
loop $-1 $-1 $206 $289 #
vertex $-1 $207 $393 #
straight-curve $-1 -70.113223670155946 -44.578076195179904 0 0 0 1 I I #
coedge $-1 $209 $208 $394 $395 forward $122 $-1 #
edge $-1 $396 -7.3107809806276691 $211 7.3107809806276691 $300 $397 forward 7 unknown #
point $-1 -70.113223670155946 44.578076195179904 -6.4499958378995519 #
point $-1 -70.113223670155946 -44.578076195179904 -6.4499958378995519 #
plane-surface $-1 0 0 14.136911013122132 0 0 1 1 0 0 forward_v I I I I #
coedge $-1 $320 $319 $312 $398 forward $214 $-1 #
coedge $-1 $312 $216 $218 $316 reversed $130 $-1 #
coedge $-1 $216 $311 $310 $398 reversed $130 $-1 #
coedge $-1 $224 $219 $216 $314 forward $225 $-1 #
edge $-1 $317 -22.798713319265914 $399 -13.821942127586752 $313 $400 forward 7 unknown #
coedge $-1 $218 $217 $320 $401 reversed $81 $-1 #
edge $-1 $402 1.6755537013839907e-014 $317 10.472601121669104 $311 $403 forward 7 unknown #
vertex $-1 $220 $404 #
straight-curve $-1 5.7279196533774979 -35.601305003500741 14.13691101312213 -1 0 0 I I #
coedge $-1 $310 $221 $224 $324 reversed $214 $-1 #
coedge $-1 $221 $310 $315 $401 forward $214 $-1 #
vertex $-1 $222 $405 #
straight-curve $-1 19.306575886258052 -44.578076195179904 64.470323698424011 0 0 1 I I #
straight-curve $-1 19.306575886258052 -44.578076195179918 8.7431226203666483 0 -0.85716729658548041 -0.51503808176128008 I I #
edge $-1 $399 3.6051027272519391 $226 19.306575886258052 $319 $406 forward 7 unknown #
point $-1 19.306575886258052 -44.578076195179904 14.136911013122132 #
point $-1 19.306575886258052 -35.601305003500741 14.136911013122132 #
edge $-1 $407 1 $407 0 $229 $-1 forward 7 unknown #
vertex $-1 $230 $408 #
ellipse-curve $-1 8.0912379155394092 -38.201322420846139 8.2972444590527168 0 -0.51503808176128008 0.85716729658548041 1 0 0 1 I I #
point $-1 9.0912379155394092 -40.089690599340315 11.440016816744391 #
edge $-1 $409 1 $409 0 $233 $-1 forward 7 unknown #
vertex $-1 $234 $410 #
ellipse-curve $-1 14.820440697970611 -38.201322420846139 8.2972444590527168 0 -0.51503808176128008 0.85716729658548041 1 0 0 1 I I #
point $-1 15.820440697970611 -40.089690599340315 11.440016816744391 #
loop $-1 $-1 $244 $237 #
plane-surface $-1 0 44.578076195179904 0 0 -1 0 0 0 -1 forward_v I I I I #
coedge $-1 $411 $412 $241 $339 forward $238 $-1 #
coedge $-1 $241 $240 $344 $413 reversed $95 $-1 #
edge $-1 $341 43.15371671871651 $414 61.650854830020393 $337 $415 forward 7 unknown #
coedge $-1 $247 $242 $412 $416 forward $152 $-1 #
vertex $-1 $416 $417 #
straight-curve $-1 30.6469093899981 29.613577216752098 14.13691101312213 1 0 0 I I #
coedge $-1 $418 $244 $247 $348 reversed $335 $-1 #
coedge $-1 $244 $418 $338 $413 forward $335 $-1 #
vertex $-1 $245 $419 #
straight-curve $-1 52.474413889836455 44.578076195179904 84.557408136279093 0 0 1 I I #
straight-curve $-1 52.474413889836455 -27.550765755281432 55.669238078476269 0 0.80901698891910034 -0.5877852598018023 I I #
edge $-1 $420 -70.113223670155946 $248 -52.474413889836455 $343 $421 forward 7 unknown #
point $-1 52.474413889836455 44.578076195179904 14.136911013122132 #
point $-1 52.474413889836455 29.613577216752098 14.13691101312213 #
edge $-1 $422 1 $422 0 $251 $-1 forward 7 unknown #
vertex $-1 $252 $423 #
ellipse-curve $-1 56.002175845900354 34.962044411624639 5.7638391331244776 0 0.5877852598018023 0.80901698891910034 1 0 0 1 I I #
point $-1 57.002175845900354 37.095826705966026 8.7007384479508545 #
edge $-1 $424 1 $424 0 $255 $-1 forward 7 unknown #
vertex $-1 $256 $425 #
ellipse-curve $-1 61.293818779996201 34.962044411624639 5.7638391331244776 0 0.5877852598018023 0.80901698891910034 1 0 0 1 I I #
point $-1 62.293818779996201 37.095826705966026 8.7007384479508545 #
edge $-1 $426 1 $426 0 $259 $-1 forward 7 unknown #
vertex $-1 $260 $427 #
ellipse-curve $-1 66.585461714092048 34.962044411624639 5.7638391331244776 0 0.5877852598018023 0.80901698891910034 1 0 0 1 I I #
point $-1 67.585461714092048 37.095826705966026 8.7007384479508545 #
plane-surface $-1 70.113223670155946 0 0 -1 0 0 0 0 1 forward_v I I I I #
coedge $-1 $266 $373 $269 $367 reversed $181 $-1 #
vertex $-1 $367 $428 #
straight-curve $-1 -70.113223670155946 -44.578076195179904 0 0 0 -1 I I #
edge $-1 $365 -44.578076195179904 $369 44.578076195179904 $364 $429 forward 7 unknown #
straight-curve $-1 0 -44.578076195179904 -14.136911013122132 -1 0 0 I I #
vertex $-1 $272 $430 #
straight-curve $-1 0 44.578076195179904 -14.136911013122132 1 0 0 I I #
point $-1 70.113223670155946 44.578076195179904 -14.136911013122132 #
point $-1 70.113223670155946 -44.578076195179904 -14.136911013122132 #
coedge $-1 $364 $276 $279 $375 forward $181 $-1 #
straight-curve $-1 -70.113223670155946 0 14.136911013122132 0 -1 0 I I #
edge $-1 $280 -14.136911013122132 $369 14.136911013122132 $279 $431 forward 7 unknown #
point $-1 -70.113223670155946 44.578076195179904 14.136911013122132 #
point $-1 -70.113223670155946 -44.578076195179904 14.136911013122132 #
straight-curve $-1 70.113223670155946 -44.578076195179904 0 0 0 -1 I I #
straight-curve $-1 70.113223670155946 44.578076195179904 0 0 0 -1 I I #
plane-surface $-1 0 -44.578076195179904 0 0 1 0 0 0 1 forward_v I I I I #
coedge $-1 $432 $394 $293 $383 forward $290 $-1 #
coedge $-1 $384 $292 $301 $392 forward $200 $-1 #
edge $-1 $387 -2.913885411893844 $385 2.913885411893844 $293 $433 forward 7 unknown #
coedge $-1 $294 $382 $432 $434 forward $200 $-1 #
vertex $-1 $295 $435 #
straight-curve $-1 -77.424004650783615 44.578076195179904 -12.27776666168724 1 0 0 I I #
vertex $-1 $296 $436 #
straight-curve $-1 -77.424004650783615 44.578076195179904 -6.4499958378995519 -1 0 0 I I #
point $-1 -70.113223670155946 44.578076195179904 -12.27776666168724 #
straight-curve $-1 -70.113223670155946 0 -12.27776666168724 0 1 0 I I #
coedge $-1 $301 $300 $437 $438 forward $302 $-1 #
edge $-1 $303 -7.3107809806276691 $439 7.3107809806276691 $301 $440 forward 7 unknown #
point $-1 -70.113223670155946 -44.578076195179904 -12.27776666168724 #
coedge $-1 $381 $437 $305 $395 reversed $290 $-1 #
edge $-1 $387 -44.578076195179904 $396 44.578076195179904 $394 $441 forward 7 unknown #
vertex $-1 $395 $442 #
straight-curve $-1 -77.424004650783615 -44.578076195179904 -6.4499958378995519 1 0 0 I I #
edge $-1 $399 50.33341268530188 $402 55.727201078057355 $310 $443 forward 7 unknown #
vertex $-1 $324 $444 #
straight-curve $-1 3.6051027272519391 -58.400018322766655 14.13691101312213 0 -1 0 I I #
edge $-1 $402 -2.1228169261255587 $321 13.578656232880554 $320 $445 forward 7 unknown #
vertex $-1 $401 $446 #
straight-curve $-1 3.6051027272519391 -44.578076195179918 8.7431226203666483 0 0.85716729658548041 0.51503808176128008 I I #
point $-1 3.6051027272519391 -35.601305003500741 14.136911013122132 #
point $-1 19.306575886258052 -44.578076195179904 8.7431226203666572 #
straight-curve $-1 0 -44.578076195179904 14.136911013122132 1 0 0 I I #
vertex $-1 $327 $447 #
point $-1 9.0912379155394092 -38.201322420846139 8.2972444590527168 #
vertex $-1 $331 $448 #
point $-1 15.820440697970611 -38.201322420846139 8.2972444590527168 #
coedge $-1 $412 $337 $418 $449 reversed $238 $-1 #
coedge $-1 $337 $411 $340 $416 reversed $238 $-1 #
edge $-1 $414 -39.466314280157846 $345 -21.827504499838355 $344 $450 forward 7 unknown #
vertex $-1 $339 $451 #
straight-curve $-1 70.113223670155946 -5.2985127436917718 39.502029606046293 0 0.80901698891910034 -0.5877852598018023 I I #
edge $-1 $341 29.613577216752098 $420 44.578076195179904 $412 $452 forward 7 unknown #
point $-1 70.113223670155946 29.613577216752098 14.13691101312213 #
coedge $-1 $344 $343 $411 $449 forward $335 $-1 #
point $-1 52.474413889836455 44.578076195179904 3.2645658827795643 #
vertex $-1 $416 $453 #
straight-curve $-1 0 44.578076195179904 14.136911013122132 -1 0 0 I I #
vertex $-1 $351 $454 #
point $-1 57.002175845900354 34.962044411624639 5.7638391331244776 #
vertex $-1 $355 $455 #
point $-1 62.293818779996201 34.962044411624639 5.7638391331244776 #
vertex $-1 $359 $456 #
point $-1 67.585461714092048 34.962044411624639 5.7638391331244776 #
point $-1 -70.113223670155946 -44.578076195179904 -14.136911013122132 #
straight-curve $-1 -70.113223670155946 0 -14.136911013122132 0 1 0 I I #
point $-1 -70.113223670155946 44.578076195179904 -14.136911013122132 #
straight-curve $-1 -70.113223670155946 44.578076195179904 0 0 0 -1 I I #
coedge $-1 $437 $381 $384 $434 reversed $290 $-1 #
straight-curve $-1 -84.734785631411285 44.578076195179904 -9.3638812497933959 0 0 -1 I I #
edge $-1 $439 -44.578076195179904 $385 44.578076195179904 $432 $457 forward 7 unknown #
point $-1 -84.734785631411285 44.578076195179904 -12.27776666168724 #
point $-1 -84.734785631411285 44.578076195179904 -6.4499958378995519 #
coedge $-1 $394 $432 $391 $438 reversed $290 $-1 #
edge $-1 $396 -2.913885411893844 $439 2.913885411893844 $437 $458 forward 7 unknown #
vertex $-1 $434 $459 #
straight-curve $-1 -77.424004650783615 -44.578076195179904 -12.27776666168724 -1 0 0 I I #
straight-curve $-1 -84.734785631411285 0 -6.4499958378995519 0 -1 0 I I #
point $-1 -84.734785631411285 -44.578076195179904 -6.4499958378995519 #
straight-curve $-1 3.6051027272519391 -44.578076195179904 64.470323698424011 0 0 -1 I I #
point $-1 3.6051027272519391 -44.578076195179904 14.136911013122132 #
straight-curve $-1 5.7279196533774979 -44.578076195179904 8.7431226203666554 1 0 0 I I #
point $-1 3.6051027272519391 -44.578076195179904 8.7431226203666572 #
point $-1 8.0912379155394092 -37.686284339084864 7.4400771624672331 #
point $-1 14.820440697970611 -37.686284339084864 7.4400771624672331 #
edge $-1 $420 -14.136911013122132 $414 -3.2645658827795643 $411 $460 forward 7 unknown #
straight-curve $-1 30.6469093899981 44.578076195179904 3.2645658827795572 -1 0 0 I I #
point $-1 70.113223670155946 44.578076195179904 3.2645658827795643 #
straight-curve $-1 70.113223670155946 0 14.136911013122132 0 1 0 I I #
point $-1 70.113223670155946 44.578076195179904 14.136911013122132 #
point $-1 56.002175845900354 34.374259151822834 4.9548221442053766 #
point $-1 61.293818779996201 34.374259151822834 4.9548221442053766 #
point $-1 66.585461714092048 34.374259151822834 4.9548221442053766 #
straight-curve $-1 -84.734785631411285 0 -12.27776666168724 0 1 0 I I #
straight-curve $-1 -84.734785631411285 -44.578076195179904 -9.3638812497933959 0 0 -1 I I #
point $-1 -84.734785631411285 -44.578076195179904 -12.27776666168724 #
straight-curve $-1 70.113223670155946 44.578076195179904 0 0 0 -1 I I #
End-of-ACIS-data 