500 0 6 0           
7 Unknown 11 ACIS 5.0 NT 24 Fri Mar 26 00:28:02 1999 
-1 9.9999999999999995e-007 1e-010 
body $-1 $6 $-1 $7 #
body $-1 $8 $-1 $9 #
body $-1 $10 $-1 $11 #
body $-1 $12 $-1 $13 #
body $-1 $14 $-1 $15 #
body $-1 $16 $-1 $17 #
lump $-1 $-1 $18 $0 #
transform $-1 1 0 0 0 1 0 0 0 1 61.006500442518387 34.043142774479207 13.667542094998899 1 rotate no_reflect no_shear #
lump $-1 $-1 $19 $1 #
transform $-1 1 0 0 0 1 0 0 0 1 61.006500442518387 34.043142774479207 13.667542094998899 1 rotate no_reflect no_shear #
lump $-1 $-1 $20 $2 #
transform $-1 1 0 0 0 1 0 0 0 1 61.006500442518387 34.043142774479207 13.667542094998899 1 rotate no_reflect no_shear #
lump $-1 $-1 $21 $3 #
transform $-1 1 0 0 0 1 0 0 0 1 61.006500442518387 34.043142774479207 13.667542094998899 1 rotate no_reflect no_shear #
lump $-1 $-1 $22 $4 #
transform $-1 1 0 0 0 1 0 0 0 1 61.006500442518387 34.043142774479207 13.667542094998899 1 rotate no_reflect no_shear #
lump $-1 $-1 $23 $5 #
transform $-1 1 0 0 0 1 0 0 0 1 61.006500442518387 34.043142774479207 13.667542094998899 1 rotate no_reflect no_shear #
shell $-1 $-1 $-1 $24 $-1 $6 #
shell $-1 $-1 $-1 $25 $-1 $8 #
shell $-1 $-1 $-1 $26 $-1 $10 #
shell $-1 $-1 $-1 $27 $-1 $12 #
shell $-1 $-1 $-1 $28 $-1 $14 #
shell $-1 $-1 $-1 $29 $-1 $16 #
face $-1 $30 $31 $18 $-1 $32 reversed single #
face $-1 $33 $34 $19 $-1 $35 forward single #
face $-1 $36 $37 $20 $-1 $38 reversed single #
face $-1 $39 $40 $21 $-1 $41 forward single #
face $-1 $42 $43 $22 $-1 $44 forward single #
face $-1 $45 $46 $23 $-1 $47 forward single #
face $-1 $48 $49 $18 $-1 $50 forward single #
loop $-1 $-1 $51 $24 #
plane-surface $-1 -61.006500442518387 0 0 1 0 0 0 0 -1 forward_v I I I I #
face $-1 $52 $53 $19 $-1 $54 reversed single #
loop $-1 $-1 $55 $25 #
plane-surface $-1 -61.006500442518387 0 0 1 0 0 0 0 -1 forward_v I I I I #
face $-1 $56 $57 $20 $-1 $58 reversed single #
loop $-1 $-1 $59 $26 #
plane-surface $-1 -26.762047632471145 -135.19650583350358 78.136493691704629 -1 0 0 0 -0.82903758062907751 0.55919289150049634 forward_v I I I I #
face $-1 $60 $61 $21 $-1 $62 forward single #
loop $-1 $63 $64 $27 #
cone-surface $-1 -37.508796840989369 -31.799523423742603 11.129570357437418 0 0.82903758062907751 -0.55919289150049634 1 0 0 1 I I 0 1 1 forward I I I I #
face $-1 $65 $66 $22 $-1 $67 forward single #
loop $-1 $68 $69 $28 #
cone-surface $-1 -33.478765887795035 -31.799523423742603 11.129570357437418 0 0.82903758062907751 -0.55919289150049634 1 0 0 1 I I 0 1 1 forward I I I I #
face $-1 $70 $71 $23 $-1 $72 forward single #
loop $-1 $73 $74 $29 #
cone-surface $-1 -29.448734934600701 -31.799523423742603 11.129570357437418 0 0.82903758062907751 -0.55919289150049634 1 0 0 1 I I 0 1 1 forward I I I I #
face $-1 $75 $76 $18 $-1 $77 reversed single #
loop $-1 $-1 $78 $30 #
plane-surface $-1 0 0 13.667542094998899 0 0 1 1 0 0 forward_v I I I I #
coedge $-1 $79 $80 $81 $82 reversed $31 $-1 #
face $-1 $83 $84 $19 $-1 $85 reversed single #
loop $-1 $-1 $86 $33 #
plane-surface $-1 0 0 -13.667542094998899 0 0 1 1 0 0 forward_v I I I I #
coedge $-1 $87 $88 $89 $90 forward $34 $-1 #
face $-1 $91 $92 $20 $-1 $93 reversed single #
loop $-1 $-1 $94 $36 #
plane-surface $-1 -33.478765887795035 -34.043142774479193 9.9076909261482911 0 -0.82903758062907751 0.55919289150049634 1 0 0 forward_v I I I I #
coedge $-1 $95 $96 $97 $98 reversed $37 $-1 #
face $-1 $-1 $99 $21 $-1 $100 forward single #
loop $-1 $101 $102 $39 #
cone-surface $-1 -37.508796840989369 -30.409411060923198 10.191927758550984 0 0.82903758062907751 -0.55919289150049634 0.5 0 0 1 I I -0.70710678118654746 0.70710678118654746 0.5 forward I I I I #
loop $-1 $-1 $103 $27 #
coedge $-1 $64 $64 $104 $105 reversed $40 $-1 #
face $-1 $-1 $106 $22 $-1 $107 forward single #
loop $-1 $108 $109 $42 #
cone-surface $-1 -33.478765887795035 -30.409411060923198 10.191927758550984 0 0.82903758062907751 -0.55919289150049634 0.5 0 0 1 I I -0.70710678118654746 0.70710678118654746 0.5 forward I I I I #
loop $-1 $-1 $110 $28 #
coedge $-1 $69 $69 $111 $112 reversed $43 $-1 #
face $-1 $-1 $113 $23 $-1 $114 forward single #
loop $-1 $115 $116 $45 #
cone-surface $-1 -29.448734934600701 -30.409411060923198 10.191927758550984 0 0.82903758062907751 -0.55919289150049634 0.5 0 0 1 I I -0.70710678118654746 0.70710678118654746 0.5 forward I I I I #
loop $-1 $-1 $117 $29 #
coedge $-1 $74 $74 $118 $119 reversed $46 $-1 #
face $-1 $120 $121 $18 $-1 $122 reversed single #
loop $-1 $-1 $123 $48 #
plane-surface $-1 0 0 -13.667542094998899 0 0 1 1 0 0 forward_v I I I I #
coedge $-1 $124 $125 $126 $127 forward $49 $-1 #
coedge $-1 $128 $51 $129 $130 reversed $31 $-1 #
coedge $-1 $51 $128 $131 $132 forward $31 $-1 #
coedge $-1 $133 $134 $51 $82 forward $76 $-1 #
edge $-1 $135 -34.043142774479207 $136 34.043142774479207 $51 $137 forward 7 unknown #
face $-1 $138 $139 $19 $-1 $140 reversed single #
loop $-1 $-1 $141 $52 #
plane-surface $-1 -69.073182475925591 -20.222044816904237 0 0 1 0 0 0 1 forward_v I I I I #
coedge $-1 $142 $143 $88 $144 forward $53 $-1 #
coedge $-1 $145 $55 $146 $147 reversed $34 $-1 #
coedge $-1 $55 $145 $86 $144 reversed $34 $-1 #
coedge $-1 $148 $149 $55 $90 reversed $150 $-1 #
edge $-1 $151 -13.667542094998899 $152 13.667542094998899 $89 $153 forward 7 unknown #
face $-1 $154 $155 $20 $-1 $156 forward single #
loop $-1 $-1 $157 $56 #
plane-surface $-1 -40.195484143118925 -135.19650583350358 78.136493691704629 1 0 0 0 0.82903758062907751 -0.55919289150049634 forward_v I I I I #
coedge $-1 $158 $159 $160 $161 reversed $57 $-1 #
coedge $-1 $96 $59 $162 $163 reversed $37 $-1 #
coedge $-1 $59 $95 $158 $164 reversed $37 $-1 #
coedge $-1 $160 $165 $59 $98 forward $155 $-1 #
edge $-1 $166 33.555110142272582 $167 36.09116169873608 $97 $168 forward 7 unknown #
loop $-1 $-1 $104 $60 #
plane-surface $-1 -33.478765887795035 -34.043142774479193 9.9076909261482911 0 -0.82903758062907751 0.55919289150049634 1 0 0 forward_v I I I I #
loop $-1 $-1 $169 $39 #
coedge $-1 $102 $102 $103 $170 reversed $61 $-1 #
coedge $-1 $103 $103 $102 $170 forward $63 $-1 #
coedge $-1 $104 $104 $64 $105 forward $99 $-1 #
edge $-1 $171 8.8939051993451917e-016 $171 6.2831853071796013 $104 $172 forward 7 unknown #
loop $-1 $-1 $111 $65 #
plane-surface $-1 -33.478765887795035 -34.043142774479193 9.9076909261482911 0 -0.82903758062907751 0.55919289150049634 1 0 0 forward_v I I I I #
loop $-1 $-1 $173 $42 #
coedge $-1 $109 $109 $110 $174 reversed $66 $-1 #
coedge $-1 $110 $110 $109 $174 forward $68 $-1 #
coedge $-1 $111 $111 $69 $112 forward $106 $-1 #
edge $-1 $175 8.8939051993451917e-016 $175 6.2831853071796013 $111 $176 forward 7 unknown #
loop $-1 $-1 $118 $70 #
plane-surface $-1 -33.478765887795035 -34.043142774479193 9.9076909261482911 0 -0.82903758062907751 0.55919289150049634 1 0 0 forward_v I I I I #
loop $-1 $-1 $177 $45 #
coedge $-1 $116 $116 $117 $178 reversed $71 $-1 #
coedge $-1 $117 $117 $116 $178 forward $73 $-1 #
coedge $-1 $118 $118 $74 $119 forward $113 $-1 #
edge $-1 $179 8.8939051993451917e-016 $179 6.2831853071796013 $118 $180 forward 7 unknown #
face $-1 $181 $182 $18 $-1 $183 reversed single #
loop $-1 $-1 $129 $75 #
plane-surface $-1 0 -34.043142774479207 0 0 1 0 0 0 1 forward_v I I I I #
coedge $-1 $134 $133 $184 $185 forward $76 $-1 #
coedge $-1 $186 $78 $187 $188 forward $49 $-1 #
coedge $-1 $78 $186 $189 $190 forward $49 $-1 #
coedge $-1 $191 $192 $78 $127 reversed $193 $-1 #
edge $-1 $194 -34.043142774479207 $195 34.043142774479207 $126 $196 forward 7 unknown #
coedge $-1 $80 $79 $186 $197 reversed $31 $-1 #
coedge $-1 $198 $189 $79 $130 forward $121 $-1 #
edge $-1 $199 -13.667542094998899 $135 13.667542094998899 $79 $200 forward 7 unknown #
coedge $-1 $187 $201 $80 $132 reversed $182 $-1 #
edge $-1 $202 -13.667542094998899 $136 13.667542094998899 $131 $203 forward 7 unknown #
coedge $-1 $123 $81 $201 $204 forward $76 $-1 #
coedge $-1 $81 $123 $198 $205 forward $76 $-1 #
vertex $-1 $82 $206 #
vertex $-1 $204 $207 #
straight-curve $-1 -61.006500442518387 0 -13.667542094998899 0 1 0 I I #
face $-1 $208 $150 $19 $-1 $209 reversed single #
loop $-1 $-1 $210 $83 #
plane-surface $-1 -77.139864509332796 -18.722044816904237 0 1 0 0 0 0 -1 forward_v I I I I #
coedge $-1 $211 $212 $213 $214 forward $84 $-1 #
coedge $-1 $215 $86 $211 $216 forward $53 $-1 #
coedge $-1 $86 $215 $148 $217 forward $53 $-1 #
edge $-1 $151 17.222044816904237 $218 20.222044816904237 $86 $219 forward 7 unknown #
coedge $-1 $88 $87 $220 $221 forward $34 $-1 #
coedge $-1 $222 $223 $87 $147 forward $224 $-1 #
edge $-1 $225 -20.222044816904237 $152 -17.222044816904237 $146 $226 forward 7 unknown #
coedge $-1 $227 $89 $143 $217 reversed $150 $-1 #
coedge $-1 $89 $227 $222 $228 reversed $150 $-1 #
loop $-1 $-1 $89 $138 #
vertex $-1 $144 $229 #
vertex $-1 $228 $230 #
straight-curve $-1 -61.006500442518387 -17.222044816904237 0 0 0 1 I I #
face $-1 $-1 $231 $20 $-1 $232 reversed single #
loop $-1 $-1 $97 $91 #
plane-surface $-1 0 0 13.667542094998899 0 0 1 1 0 0 forward_v I I I I #
coedge $-1 $233 $234 $235 $236 reversed $92 $-1 #
coedge $-1 $237 $94 $96 $164 forward $57 $-1 #
coedge $-1 $94 $237 $233 $238 forward $57 $-1 #
coedge $-1 $235 $97 $94 $161 forward $155 $-1 #
edge $-1 $167 10.022664688573627 $239 23.456101199221408 $160 $240 forward 7 unknown #
coedge $-1 $241 $242 $95 $163 forward $231 $-1 #
edge $-1 $243 -29.160555919704045 $166 -25.400704750853414 $162 $244 forward 7 unknown #
edge $-1 $167 -4.5351999194024666 $243 2.5618607856530852e-014 $96 $245 forward 7 unknown #
coedge $-1 $97 $235 $241 $246 forward $155 $-1 #
vertex $-1 $98 $247 #
vertex $-1 $98 $248 #
straight-curve $-1 -26.762047632471145 -67.59825291675179 13.6675420949989 0 1 0 I I #
coedge $-1 $169 $169 $-1 $249 reversed $101 $-1 #
edge $-1 $250 0 $250 6.2831853071796004 $102 $251 forward 7 unknown #
vertex $-1 $105 $252 #
ellipse-curve $-1 -37.508796840989369 -32.775116996247455 11.787616510573594 0 -0.82903758062907751 0.55919289150049634 1 0 0 1 I I #
coedge $-1 $173 $173 $-1 $253 reversed $108 $-1 #
edge $-1 $254 0 $254 6.2831853071796004 $109 $255 forward 7 unknown #
vertex $-1 $112 $256 #
ellipse-curve $-1 -33.478765887795035 -32.775116996247455 11.787616510573594 0 -0.82903758062907751 0.55919289150049634 1 0 0 1 I I #
coedge $-1 $177 $177 $-1 $257 reversed $115 $-1 #
edge $-1 $258 0 $258 6.2831853071796004 $116 $259 forward 7 unknown #
vertex $-1 $119 $260 #
ellipse-curve $-1 -29.448734934600701 -32.775116996247455 11.787616510573594 0 -0.82903758062907751 0.55919289150049634 1 0 0 1 I I #
face $-1 $-1 $193 $18 $-1 $261 reversed single #
loop $-1 $-1 $262 $120 #
plane-surface $-1 0 34.043142774479207 0 0 -1 0 0 0 -1 forward_v I I I I #
coedge $-1 $192 $191 $123 $185 reversed $193 $-1 #
edge $-1 $263 -34.043142774479207 $264 34.043142774479207 $184 $265 forward 7 unknown #
coedge $-1 $125 $124 $128 $197 forward $49 $-1 #
coedge $-1 $262 $131 $124 $188 reversed $182 $-1 #
edge $-1 $195 -61.006500442518387 $202 61.006500442518387 $187 $266 forward 7 unknown #
coedge $-1 $129 $267 $125 $190 reversed $121 $-1 #
edge $-1 $199 -61.006500442518387 $194 61.006500442518387 $189 $268 forward 7 unknown #
coedge $-1 $184 $126 $267 $269 forward $193 $-1 #
coedge $-1 $126 $184 $262 $270 reversed $193 $-1 #
loop $-1 $-1 $191 $181 #
vertex $-1 $127 $271 #
vertex $-1 $127 $272 #
straight-curve $-1 61.006500442518387 0 13.667542094998899 0 1 0 I I #
edge $-1 $202 -34.043142774479207 $199 34.043142774479207 $128 $273 forward 7 unknown #
coedge $-1 $267 $129 $134 $205 reversed $121 $-1 #
vertex $-1 $197 $274 #
straight-curve $-1 -61.006500442518387 -34.043142774479207 0 0 0 -1 I I #
coedge $-1 $131 $262 $133 $204 reversed $182 $-1 #
vertex $-1 $188 $275 #
straight-curve $-1 -61.006500442518387 34.043142774479207 0 0 0 -1 I I #
edge $-1 $136 -61.006500442518387 $263 61.006500442518387 $201 $276 forward 7 unknown #
edge $-1 $264 -61.006500442518387 $135 61.006500442518387 $198 $277 forward 7 unknown #
point $-1 -61.006500442518387 -34.043142774479207 -13.667542094998899 #
point $-1 -61.006500442518387 34.043142774479207 -13.667542094998899 #
face $-1 $-1 $224 $19 $-1 $278 forward single #
plane-surface $-1 -69.073182475925591 -17.222044816904237 0 0 -1 0 0 0 -1 forward_v I I I I #
coedge $-1 $279 $280 $227 $281 forward $139 $-1 #
coedge $-1 $220 $141 $142 $216 reversed $84 $-1 #
coedge $-1 $141 $220 $223 $282 reversed $84 $-1 #
coedge $-1 $280 $279 $141 $214 reversed $139 $-1 #
edge $-1 $283 -13.667542094998899 $284 13.667542094998899 $213 $285 forward 7 unknown #
coedge $-1 $143 $142 $279 $286 forward $53 $-1 #
edge $-1 $218 -8.0666820334072113 $284 8.0666820334072042 $211 $287 forward 7 unknown #
edge $-1 $288 -8.0666820334072042 $151 8.0666820334072113 $148 $289 forward 7 unknown #
vertex $-1 $216 $290 #
straight-curve $-1 -61.006500442518387 0 -13.667542094998899 0 -1 0 I I #
coedge $-1 $212 $211 $145 $221 reversed $84 $-1 #
edge $-1 $225 -13.667542094998899 $218 13.667542094998899 $220 $291 forward 7 unknown #
coedge $-1 $292 $146 $149 $228 forward $224 $-1 #
coedge $-1 $146 $292 $212 $282 forward $224 $-1 #
loop $-1 $-1 $146 $208 #
vertex $-1 $147 $293 #
straight-curve $-1 -61.006500442518387 0 13.667542094998899 0 1 0 I I #
coedge $-1 $149 $148 $210 $281 reversed $150 $-1 #
edge $-1 $152 -8.0666820334072113 $294 8.0666820334072042 $149 $295 forward 7 unknown #
point $-1 -61.00650044251838 -17.222044816904237 -13.667542094998899 #
point $-1 -61.00650044251838 -17.222044816904237 13.667542094998899 #
loop $-1 $-1 $162 $154 #
plane-surface $-1 0 -34.043142774479207 0 0 1 0 0 0 1 forward_v I I I I #
coedge $-1 $234 $157 $159 $238 reversed $92 $-1 #
coedge $-1 $157 $233 $296 $297 reversed $92 $-1 #
coedge $-1 $165 $160 $157 $236 forward $155 $-1 #
edge $-1 $239 -36.09116169873608 $298 -33.555110142272582 $235 $299 forward 7 unknown #
coedge $-1 $159 $158 $242 $300 reversed $57 $-1 #
edge $-1 $301 -2.5618607856530852e-014 $239 4.5351999194024666 $233 $302 forward 7 unknown #
vertex $-1 $161 $303 #
straight-curve $-1 -16.739382943897517 -31.507091218015709 13.667542094998899 -1 0 0 I I #
coedge $-1 $296 $162 $165 $246 reversed $231 $-1 #
coedge $-1 $162 $296 $237 $300 forward $231 $-1 #
vertex $-1 $163 $304 #
straight-curve $-1 -26.762047632471145 -34.043142774479207 39.068246845852315 0 0 1 I I #
straight-curve $-1 -26.762047632471145 -34.043142774479193 9.9076909261482911 0 -0.55919289150049634 -0.82903758062907751 I I #
edge $-1 $298 -40.195484143118925 $166 -26.762047632471145 $241 $305 forward 7 unknown #
point $-1 -26.762047632471145 -34.043142774479207 13.667542094998899 #
point $-1 -26.762047632471145 -31.507091218015709 13.667542094998899 #
edge $-1 $306 1 $306 0 $169 $-1 forward 7 unknown #
vertex $-1 $170 $307 #
ellipse-curve $-1 -37.508796840989369 -30.823929851237736 10.471524204301232 0 -0.82903758062907751 0.55919289150049634 1 0 0 1 I I #
point $-1 -36.508796840989369 -32.775116996247469 11.787616510573605 #
edge $-1 $308 1 $308 0 $173 $-1 forward 7 unknown #
vertex $-1 $174 $309 #
ellipse-curve $-1 -33.478765887795035 -30.823929851237736 10.471524204301232 0 -0.82903758062907751 0.55919289150049634 1 0 0 1 I I #
point $-1 -32.478765887795035 -32.775116996247469 11.787616510573605 #
edge $-1 $310 1 $310 0 $177 $-1 forward 7 unknown #
vertex $-1 $178 $311 #
ellipse-curve $-1 -29.448734934600701 -30.823929851237736 10.471524204301232 0 -0.82903758062907751 0.55919289150049634 1 0 0 1 I I #
point $-1 -28.448734934600701 -32.775116996247469 11.787616510573605 #
plane-surface $-1 61.006500442518387 0 0 -1 0 0 0 0 1 forward_v I I I I #
coedge $-1 $201 $187 $192 $270 forward $182 $-1 #
vertex $-1 $185 $312 #
vertex $-1 $269 $313 #
straight-curve $-1 61.006500442518387 0 -13.667542094998899 0 -1 0 I I #
straight-curve $-1 0 34.043142774479207 13.667542094998899 -1 0 0 I I #
coedge $-1 $189 $198 $191 $269 reversed $121 $-1 #
straight-curve $-1 0 -34.043142774479207 13.667542094998899 1 0 0 I I #
edge $-1 $194 -13.667542094998899 $264 13.667542094998899 $191 $314 forward 7 unknown #
edge $-1 $195 -13.667542094998899 $263 13.667542094998899 $192 $315 forward 7 unknown #
point $-1 61.006500442518387 -34.043142774479207 13.667542094998899 #
point $-1 61.006500442518387 34.043142774479207 13.667542094998899 #
straight-curve $-1 -61.006500442518387 0 13.667542094998899 0 -1 0 I I #
point $-1 -61.006500442518387 -34.043142774479207 13.667542094998899 #
point $-1 -61.006500442518387 34.043142774479207 13.667542094998899 #
straight-curve $-1 0 34.043142774479207 -13.667542094998899 1 0 0 I I #
straight-curve $-1 0 -34.043142774479207 -13.667542094998899 -1 0 0 I I #
plane-surface $-1 0 0 13.667542094998899 0 0 1 1 0 0 forward_v I I I I #
coedge $-1 $213 $210 $215 $286 reversed $139 $-1 #
coedge $-1 $210 $213 $292 $316 reversed $139 $-1 #
edge $-1 $294 -13.667542094998899 $288 13.667542094998899 $227 $317 forward 7 unknown #
edge $-1 $283 -8.0666820334072042 $225 8.0666820334072113 $212 $318 forward 7 unknown #
vertex $-1 $316 $319 #
vertex $-1 $286 $320 #
straight-curve $-1 -77.139864509332796 -20.222044816904237 0 0 0 -1 I I #
edge $-1 $284 -1.5 $288 1.5 $279 $321 forward 7 unknown #
straight-curve $-1 -69.073182475925591 -20.222044816904237 -13.667542094998899 -1 0 0 I I #
vertex $-1 $217 $322 #
straight-curve $-1 -69.073182475925591 -17.222044816904237 -13.667542094998899 1 0 0 I I #
point $-1 -61.00650044251838 -20.222044816904237 -13.667542094998899 #
straight-curve $-1 -61.006500442518387 -20.222044816904237 0 0 0 -1 I I #
coedge $-1 $223 $222 $280 $316 forward $224 $-1 #
point $-1 -61.00650044251838 -20.222044816904237 13.667542094998899 #
vertex $-1 $228 $323 #
straight-curve $-1 -69.073182475925591 -17.222044816904237 13.667542094998899 -1 0 0 I I #
coedge $-1 $242 $241 $234 $297 forward $231 $-1 #
edge $-1 $298 25.400704750853414 $301 29.160555919704045 $296 $324 forward 7 unknown #
vertex $-1 $246 $325 #
straight-curve $-1 -40.195484143118925 -67.59825291675179 13.6675420949989 0 -1 0 I I #
edge $-1 $301 -23.456101199221408 $243 -10.022664688573627 $242 $326 forward 7 unknown #
vertex $-1 $300 $327 #
straight-curve $-1 -40.195484143118925 -34.043142774479193 9.9076909261482911 0 0.55919289150049634 0.82903758062907751 I I #
point $-1 -40.195484143118925 -31.507091218015709 13.667542094998899 #
point $-1 -26.762047632471145 -34.043142774479207 9.9076909261482697 #
straight-curve $-1 0 -34.043142774479207 13.667542094998899 1 0 0 I I #
vertex $-1 $249 $328 #
point $-1 -36.508796840989369 -30.823929851237736 10.471524204301232 #
vertex $-1 $253 $329 #
point $-1 -32.478765887795035 -30.823929851237736 10.471524204301232 #
vertex $-1 $257 $330 #
point $-1 -28.448734934600701 -30.823929851237736 10.471524204301232 #
point $-1 61.006500442518387 34.043142774479207 -13.667542094998899 #
point $-1 61.006500442518387 -34.043142774479207 -13.667542094998899 #
straight-curve $-1 61.006500442518387 -34.043142774479207 0 0 0 -1 I I #
straight-curve $-1 61.006500442518387 34.043142774479207 0 0 0 -1 I I #
edge $-1 $294 -1.5 $283 1.5 $280 $331 forward 7 unknown #
straight-curve $-1 -77.139864509332796 -17.222044816904237 0 0 0 -1 I I #
straight-curve $-1 -69.073182475925591 -20.222044816904237 13.667542094998899 1 0 0 I I #
point $-1 -77.139864509332796 -20.222044816904237 13.667542094998899 #
point $-1 -77.139864509332796 -20.222044816904237 -13.667542094998899 #
straight-curve $-1 -77.139864509332796 -18.722044816904237 -13.667542094998899 0 1 0 I I #
point $-1 -77.139864509332796 -17.222044816904237 -13.667542094998899 #
point $-1 -77.139864509332796 -17.222044816904237 13.667542094998899 #
straight-curve $-1 -40.195484143118925 -34.043142774479207 39.068246845852315 0 0 -1 I I #
point $-1 -40.195484143118925 -34.043142774479207 13.667542094998899 #
straight-curve $-1 -16.739382943897517 -34.043142774479207 9.9076909261482715 1 0 0 I I #
point $-1 -40.195484143118925 -34.043142774479207 9.9076909261482697 #
point $-1 -37.508796840989369 -29.994892270608659 9.9123313128007347 #
point $-1 -33.478765887795035 -29.994892270608659 9.9123313128007347 #
point $-1 -29.448734934600701 -29.994892270608659 9.9123313128007347 #
straight-curve $-1 -77.139864509332796 -18.722044816904237 13.667542094998899 0 -1 0 I I #
End-of-ACIS-data 