500 0 5 0           
7 Unknown 11 ACIS 5.0 NT 24 Fri Mar 26 15:22:47 1999 
-1 9.9999999999999995e-007 1e-010 
body $-1 $5 $-1 $6 #
body $-1 $7 $-1 $8 #
body $-1 $9 $-1 $10 #
body $-1 $11 $-1 $12 #
body $-1 $13 $-1 $14 #
lump $-1 $-1 $15 $0 #
transform $-1 1 0 0 0 1 0 0 0 1 49.530320139164402 20.268326383800773 4.1800369030979487 1 rotate no_reflect no_shear #
lump $-1 $-1 $16 $1 #
transform $-1 1 0 0 0 1 0 0 0 1 49.530320139164402 20.268326383800773 4.1800369030979487 1 rotate no_reflect no_shear #
lump $-1 $-1 $17 $2 #
transform $-1 1 0 0 0 1 0 0 0 1 49.530320139164402 20.268326383800773 4.1800369030979487 1 rotate no_reflect no_shear #
lump $-1 $-1 $18 $3 #
transform $-1 1 0 0 0 1 0 0 0 1 49.530320139164402 20.268326383800773 4.1800369030979487 1 rotate no_reflect no_shear #
lump $-1 $-1 $19 $4 #
transform $-1 1 0 0 0 1 0 0 0 1 49.530320139164402 20.268326383800773 4.1800369030979487 1 rotate no_reflect no_shear #
shell $-1 $-1 $-1 $20 $-1 $5 #
shell $-1 $-1 $-1 $21 $-1 $7 #
shell $-1 $-1 $-1 $22 $-1 $9 #
shell $-1 $-1 $-1 $23 $-1 $11 #
shell $-1 $-1 $-1 $24 $-1 $13 #
face $-1 $25 $26 $15 $-1 $27 forward single #
face $-1 $28 $29 $16 $-1 $30 reversed single #
face $-1 $31 $32 $17 $-1 $33 forward single #
face $-1 $34 $35 $18 $-1 $36 reversed single #
face $-1 $37 $38 $19 $-1 $39 reversed single #
face $-1 $40 $41 $15 $-1 $42 reversed single #
loop $-1 $-1 $43 $20 #
plane-surface $-1 0 0 4.1800369030979487 0 0 1 1 0 0 forward_v I I I I #
face $-1 $44 $45 $16 $-1 $46 forward single #
loop $-1 $-1 $47 $21 #
plane-surface $-1 -47.462527946645146 0 1.2838270963198368 0 0 1 1 0 0 forward_v I I I I #
face $-1 $48 $49 $17 $-1 $50 forward single #
loop $-1 $-1 $51 $22 #
plane-surface $-1 85.789033089584407 8.3972250144250005 135.56686769942795 0 -1 0 -0.86602541151947299 0 -0.49999998660252726 forward_v I I I I #
face $-1 $52 $53 $18 $-1 $54 reversed single #
loop $-1 $55 $56 $23 #
cone-surface $-1 47.962086797724076 0.086445331174306972 1.9637770207495189 -0.86602541151947299 0 -0.49999998660252726 0.24999999330126363 0 -0.43301270575973649 1 I I 0 1 0.5 forward I I I I #
face $-1 $57 $58 $19 $-1 $59 reversed single #
loop $-1 $60 $61 $24 #
cone-surface $-1 47.962086797724076 5.0729131411247188 1.9637770207495189 -0.86602541151947299 0 -0.49999998660252726 0.24999999330126363 0 -0.43301270575973649 1 I I 0 1 0.5 forward I I I I #
face $-1 $62 $63 $15 $-1 $64 reversed single #
loop $-1 $-1 $65 $25 #
plane-surface $-1 0 0 -4.1800369030979487 0 0 1 1 0 0 forward_v I I I I #
coedge $-1 $66 $67 $68 $69 forward $26 $-1 #
face $-1 $70 $71 $16 $-1 $72 forward single #
loop $-1 $-1 $73 $28 #
plane-surface $-1 -47.462527946645146 0 -1.7161729036801627 0 0 1 1 0 0 forward_v I I I I #
coedge $-1 $74 $75 $76 $77 reversed $29 $-1 #
face $-1 $78 $79 $17 $-1 $80 forward single #
loop $-1 $-1 $81 $31 #
plane-surface $-1 1.3271622236743497e-006 2.5796792361495164 86.036548887425766 0.86602541151947299 0 0.49999998660252726 0.49999998660252726 0 -0.86602541151947299 forward_v I I I I #
coedge $-1 $82 $83 $84 $85 reversed $32 $-1 #
face $-1 $86 $87 $18 $-1 $88 forward single #
loop $-1 $89 $90 $34 #
cone-surface $-1 47.312567739084471 0.086445331174306972 1.5887770307976234 -0.86602541151947299 0 -0.49999998660252726 0.12499999665063181 0 -0.21650635287986825 1 I I -0.70710678118654746 0.70710678118654746 0.25 forward I I I I #
loop $-1 $-1 $91 $23 #
coedge $-1 $56 $56 $92 $93 reversed $35 $-1 #
face $-1 $94 $95 $19 $-1 $96 reversed single #
loop $-1 $97 $98 $37 #
cone-surface $-1 47.312567739084471 5.0729131411247188 1.5887770307976234 -0.86602541151947299 0 -0.49999998660252726 0.12499999665063181 0 -0.21650635287986825 1 I I -0.70710678118654746 0.70710678118654746 0.25 forward I I I I #
loop $-1 $-1 $99 $24 #
coedge $-1 $61 $61 $100 $101 reversed $38 $-1 #
face $-1 $102 $103 $15 $-1 $104 reversed single #
loop $-1 $-1 $105 $40 #
plane-surface $-1 0 -20.268326383800773 0 0 1 0 0 0 1 forward_v I I I I #
coedge $-1 $106 $107 $108 $109 forward $41 $-1 #
coedge $-1 $110 $43 $111 $112 forward $26 $-1 #
coedge $-1 $43 $110 $113 $114 forward $26 $-1 #
coedge $-1 $115 $116 $43 $69 reversed $117 $-1 #
edge $-1 $118 -20.268326383800773 $119 20.268326383800773 $68 $120 forward 7 unknown #
face $-1 $121 $122 $16 $-1 $123 reversed single #
loop $-1 $-1 $124 $44 #
plane-surface $-1 -45.39473575412589 0 -0.21617290368016295 -1 0 0 0 0 1 forward_v I I I I #
coedge $-1 $125 $126 $127 $128 reversed $45 $-1 #
coedge $-1 $129 $47 $130 $131 reversed $29 $-1 #
coedge $-1 $47 $129 $132 $133 reversed $29 $-1 #
coedge $-1 $134 $124 $47 $77 forward $71 $-1 #
edge $-1 $135 -20.268326383800773 $136 20.268326383800773 $76 $137 forward 7 unknown #
face $-1 $138 $139 $17 $-1 $140 forward single #
loop $-1 $-1 $141 $48 #
plane-surface $-1 85.789033089584407 -3.2378665421259676 135.56686769942795 0 1 0 0.86602541151947299 0 0.49999998660252726 forward_v I I I I #
coedge $-1 $142 $143 $144 $145 reversed $49 $-1 #
coedge $-1 $83 $51 $143 $146 forward $32 $-1 #
coedge $-1 $51 $82 $147 $148 reversed $32 $-1 #
coedge $-1 $149 $144 $51 $85 forward $139 $-1 #
edge $-1 $150 4.365362323011027 $151 6.6358035943721987 $84 $152 forward 7 unknown #
face $-1 $153 $154 $18 $-1 $155 forward single #
loop $-1 $-1 $156 $52 #
plane-surface $-1 85.789033089584407 8.3972250144250005 135.56686769942795 0 -1 0 -0.86602541151947299 0 -0.49999998660252726 forward_v I I I I #
loop $-1 $-1 $157 $34 #
coedge $-1 $90 $90 $91 $158 forward $53 $-1 #
coedge $-1 $91 $91 $90 $158 reversed $55 $-1 #
coedge $-1 $92 $92 $56 $93 forward $154 $-1 #
edge $-1 $159 0 $159 6.2831853071796004 $92 $160 forward 7 unknown #
face $-1 $161 $162 $19 $-1 $163 reversed single #
loop $-1 $164 $165 $57 #
cone-surface $-1 47.962086797724076 0.086445331174306972 1.9637770207495189 -0.86602541151947299 0 -0.49999998660252726 0.24999999330126363 0 -0.43301270575973649 1 I I 0 1 0.5 forward I I I I #
loop $-1 $-1 $166 $37 #
coedge $-1 $98 $98 $99 $167 forward $58 $-1 #
coedge $-1 $99 $99 $98 $167 reversed $60 $-1 #
coedge $-1 $100 $100 $61 $101 forward $168 $-1 #
edge $-1 $169 0 $169 6.2831853071796004 $100 $170 forward 7 unknown #
face $-1 $171 $172 $15 $-1 $173 reversed single #
loop $-1 $-1 $174 $62 #
plane-surface $-1 -49.530320139164402 0 0 1 0 0 0 0 -1 forward_v I I I I #
coedge $-1 $175 $113 $176 $177 forward $63 $-1 #
coedge $-1 $178 $65 $175 $179 forward $41 $-1 #
coedge $-1 $65 $178 $180 $181 forward $41 $-1 #
coedge $-1 $116 $115 $65 $109 reversed $117 $-1 #
edge $-1 $182 -20.268326383800773 $183 20.268326383800773 $108 $184 forward 7 unknown #
coedge $-1 $67 $66 $185 $186 forward $26 $-1 #
coedge $-1 $187 $188 $66 $112 reversed $172 $-1 #
edge $-1 $119 -49.530320139164402 $189 49.530320139164402 $111 $190 forward 7 unknown #
coedge $-1 $105 $191 $67 $114 reversed $63 $-1 #
edge $-1 $192 -49.530320139164402 $118 49.530320139164402 $113 $193 forward 7 unknown #
coedge $-1 $108 $68 $191 $194 forward $117 $-1 #
coedge $-1 $68 $108 $187 $195 reversed $117 $-1 #
loop $-1 $-1 $115 $171 #
vertex $-1 $69 $196 #
vertex $-1 $69 $197 #
straight-curve $-1 49.530320139164402 0 4.1800369030979487 0 1 0 I I #
face $-1 $198 $199 $16 $-1 $123 reversed single #
loop $-1 $-1 $200 $70 #
plane-surface $-1 -49.530320139164402 0 0 1 0 0 0 0 -1 forward_v I I I I #
coedge $-1 $76 $127 $201 $202 reversed $71 $-1 #
coedge $-1 $203 $73 $204 $205 reversed $45 $-1 #
coedge $-1 $73 $203 $206 $207 reversed $45 $-1 #
coedge $-1 $124 $134 $73 $128 forward $71 $-1 #
edge $-1 $208 -20.268326383800773 $209 20.268326383800773 $127 $210 forward 7 unknown #
coedge $-1 $75 $74 $211 $212 reversed $29 $-1 #
coedge $-1 $201 $213 $74 $131 forward $214 $-1 #
edge $-1 $215 -25.799056165841829 $135 -21.663471780803317 $130 $216 forward 7 unknown #
coedge $-1 $217 $218 $75 $133 forward $219 $-1 #
edge $-1 $136 21.663471780803317 $220 25.799056165841829 $132 $221 forward 7 unknown #
coedge $-1 $127 $76 $218 $222 reversed $71 $-1 #
vertex $-1 $131 $223 #
vertex $-1 $133 $224 #
straight-curve $-1 -45.39473575412589 0 1.2838270963198368 0 1 0 I I #
face $-1 $225 $226 $17 $-1 $227 reversed single #
loop $-1 $-1 $228 $78 #
plane-surface $-1 0 0 4.1800369030979487 0 0 1 1 0 0 forward_v I I I I #
coedge $-1 $229 $230 $228 $231 reversed $79 $-1 #
coedge $-1 $232 $81 $230 $233 reversed $49 $-1 #
coedge $-1 $81 $232 $82 $146 reversed $49 $-1 #
coedge $-1 $84 $228 $81 $145 forward $139 $-1 #
edge $-1 $234 -4.5277061602007258 $150 7.1073853963502422 $144 $235 forward 7 unknown #
edge $-1 $150 94.519757613933763 $236 99.060640278328805 $82 $237 forward 7 unknown #
coedge $-1 $238 $239 $83 $148 forward $240 $-1 #
edge $-1 $151 63.603396946616023 $236 67.535916724710404 $147 $241 forward 7 unknown #
coedge $-1 $242 $84 $239 $243 forward $139 $-1 #
vertex $-1 $145 $244 #
vertex $-1 $243 $245 #
straight-curve $-1 42.894516544792204 8.3972250144250005 4.1800369030979425 1 0 0 I I #
face $-1 $246 $247 $18 $-1 $248 forward single #
loop $-1 $249 $92 $86 #
plane-surface $-1 1.3271622236743497e-006 2.5796792361495164 86.036548887425766 0.86602541151947299 0 0.49999998660252726 0.49999998660252726 0 -0.86602541151947299 forward_v I I I I #
coedge $-1 $250 $251 $252 $253 reversed $87 $-1 #
coedge $-1 $157 $157 $-1 $254 forward $89 $-1 #
edge $-1 $255 0 $255 6.2831853071796004 $90 $256 forward 7 unknown #
vertex $-1 $93 $257 #
ellipse-curve $-1 48.395099503483806 0.086445331174306972 2.2137770140507791 -0.86602541151947299 0 -0.49999998660252726 0.24999999330126363 0 -0.43301270575973649 1 I I #
face $-1 $258 $259 $19 $-1 $260 forward single #
loop $-1 $261 $262 $94 #
cone-surface $-1 47.312567739084471 0.086445331174306972 1.5887770307976234 -0.86602541151947299 0 -0.49999998660252726 0.12499999665063181 0 -0.21650635287986825 1 I I -0.70710678118654746 0.70710678118654746 0.25 forward I I I I #
loop $-1 $-1 $263 $57 #
coedge $-1 $165 $165 $264 $265 reversed $95 $-1 #
coedge $-1 $166 $166 $-1 $266 forward $97 $-1 #
edge $-1 $267 0 $267 6.2831853071796004 $98 $268 forward 7 unknown #
loop $-1 $269 $100 $258 #
vertex $-1 $101 $270 #
ellipse-curve $-1 48.395099503483806 5.0729131411247188 2.2137770140507791 -0.86602541151947299 0 -0.49999998660252726 0.24999999330126363 0 -0.43301270575973649 1 I I #
face $-1 $-1 $117 $15 $-1 $271 reversed single #
loop $-1 $-1 $187 $102 #
plane-surface $-1 0 20.268326383800773 0 0 -1 0 0 0 -1 forward_v I I I I #
coedge $-1 $272 $185 $188 $273 forward $103 $-1 #
coedge $-1 $191 $105 $106 $179 reversed $63 $-1 #
coedge $-1 $185 $272 $105 $177 reversed $103 $-1 #
edge $-1 $192 -4.1800369030979487 $274 4.1800369030979487 $176 $275 forward 7 unknown #
coedge $-1 $107 $106 $272 $276 forward $41 $-1 #
edge $-1 $183 -49.530320139164402 $274 49.530320139164402 $175 $277 forward 7 unknown #
coedge $-1 $188 $187 $107 $181 reversed $172 $-1 #
edge $-1 $278 -49.530320139164402 $182 49.530320139164402 $180 $279 forward 7 unknown #
vertex $-1 $109 $280 #
vertex $-1 $194 $281 #
straight-curve $-1 49.530320139164402 0 -4.1800369030979487 0 -1 0 I I #
coedge $-1 $174 $176 $110 $186 reversed $103 $-1 #
edge $-1 $189 -20.268326383800773 $192 20.268326383800773 $185 $282 forward 7 unknown #
coedge $-1 $180 $111 $116 $195 forward $172 $-1 #
coedge $-1 $111 $180 $174 $273 reversed $172 $-1 #
vertex $-1 $112 $283 #
straight-curve $-1 0 20.268326383800773 4.1800369030979487 -1 0 0 I I #
coedge $-1 $113 $175 $115 $194 reversed $63 $-1 #
vertex $-1 $186 $284 #
straight-curve $-1 0 -20.268326383800773 4.1800369030979487 1 0 0 I I #
edge $-1 $118 -4.1800369030979487 $183 4.1800369030979487 $115 $285 forward 7 unknown #
edge $-1 $119 -4.1800369030979487 $182 4.1800369030979487 $116 $286 forward 7 unknown #
point $-1 49.530320139164402 -20.268326383800773 4.1800369030979487 #
point $-1 49.530320139164402 20.268326383800773 4.1800369030979487 #
face $-1 $287 $214 $16 $-1 $288 reversed single #
loop $-1 $-1 $211 $121 #
coedge $-1 $289 $290 $203 $291 forward $122 $-1 #
coedge $-1 $206 $130 $124 $202 forward $214 $-1 #
edge $-1 $135 -1.3919135481599183 $209 1.6080864518400813 $201 $292 forward 7 unknown #
coedge $-1 $126 $125 $200 $291 reversed $45 $-1 #
coedge $-1 $218 $293 $125 $205 forward $219 $-1 #
edge $-1 $294 -25.799056165841829 $208 -21.663471780803317 $204 $295 forward 7 unknown #
coedge $-1 $296 $201 $126 $207 forward $214 $-1 #
edge $-1 $209 21.663471780803317 $297 25.799056165841829 $206 $298 forward 7 unknown #
vertex $-1 $205 $299 #
vertex $-1 $207 $300 #
straight-curve $-1 -45.39473575412589 0 -1.7161729036801627 0 -1 0 I I #
coedge $-1 $301 $302 $129 $212 forward $199 $-1 #
edge $-1 $220 -20.268326383800773 $215 20.268326383800773 $211 $303 forward 7 unknown #
coedge $-1 $130 $304 $301 $305 forward $214 $-1 #
loop $-1 $-1 $130 $198 #
vertex $-1 $131 $306 #
straight-curve $-1 -23.731263973322573 -20.268326383800773 1.2838270963198368 1 0 0 I I #
coedge $-1 $307 $132 $302 $308 reversed $219 $-1 #
coedge $-1 $132 $204 $134 $222 forward $219 $-1 #
loop $-1 $-1 $132 $309 #
vertex $-1 $212 $310 #
straight-curve $-1 -23.731263973322573 20.268326383800773 1.2838270963198368 -1 0 0 I I #
edge $-1 $208 -1.6080864518400813 $136 1.3919135481599183 $218 $311 forward 7 unknown #
point $-1 -45.39473575412589 -20.268326383800773 1.2838270963198368 #
point $-1 -45.39473575412589 20.268326383800773 1.2838270963198368 #
face $-1 $312 $313 $17 $-1 $314 forward single #
loop $-1 $-1 $315 $138 #
plane-surface $-1 -47.462527946645146 0 1.2838270963198368 0 0 1 1 0 0 forward_v I I I I #
coedge $-1 $144 $316 $141 $231 forward $139 $-1 #
coedge $-1 $230 $141 $317 $318 reversed $79 $-1 #
coedge $-1 $141 $229 $142 $233 forward $79 $-1 #
edge $-1 $319 -6.6358035943721987 $234 -4.365362323011027 $228 $320 forward 7 unknown #
coedge $-1 $143 $142 $238 $321 reversed $49 $-1 #
edge $-1 $322 -99.060640278328805 $234 -94.519757613933763 $230 $323 forward 7 unknown #
vertex $-1 $145 $324 #
straight-curve $-1 47.259878867803224 1.2898396180747582 4.1800369030979496 0 1 0 I I #
vertex $-1 $321 $325 #
straight-curve $-1 1.3271622236743497e-006 8.3972250144250005 86.036548887425766 0.49999998660252726 0 -0.86602541151947299 I I #
coedge $-1 $317 $147 $232 $321 forward $240 $-1 #
coedge $-1 $147 $326 $149 $243 reversed $240 $-1 #
loop $-1 $-1 $317 $327 #
straight-curve $-1 49.530320139164402 8.3972250144250005 67.783433849713973 0 0 -1 I I #
coedge $-1 $328 $149 $329 $330 forward $139 $-1 #
edge $-1 $151 8.3972250144250005 $331 20.268326383800773 $239 $332 forward 7 unknown #
point $-1 47.259878867803231 8.3972250144250005 4.1800369030979425 #
point $-1 49.530320139164402 8.3972250144250005 4.1800369030979487 #
face $-1 $333 $334 $18 $-1 $335 forward single #
loop $-1 $-1 $336 $153 #
plane-surface $-1 85.789033089584407 -3.2378665421259676 135.56686769942795 0 1 0 0.86602541151947299 0 0.49999998660252726 forward_v I I I I #
loop $-1 $-1 $337 $86 #
coedge $-1 $251 $156 $338 $339 forward $87 $-1 #
coedge $-1 $156 $250 $340 $341 reversed $87 $-1 #
coedge $-1 $342 $343 $156 $253 forward $334 $-1 #
edge $-1 $344 4.365362323011027 $345 6.6358035943721987 $252 $346 forward 7 unknown #
edge $-1 $347 1 $347 0 $157 $-1 forward 7 unknown #
vertex $-1 $158 $348 #
ellipse-curve $-1 47.52907409196434 0.086445331174306972 1.7137770274482553 0.86602541151947299 0 0.49999998660252726 0.24999999330126363 0 -0.43301270575973649 1 I I #
point $-1 48.645099496785079 0.086445331174306972 1.780764308291046 #
face $-1 $349 $168 $19 $-1 $350 forward single #
loop $-1 $-1 $351 $161 #
plane-surface $-1 85.789033089584407 8.3972250144250005 135.56686769942795 0 -1 0 -0.86602541151947299 0 -0.49999998660252726 forward_v I I I I #
loop $-1 $-1 $352 $94 #
coedge $-1 $262 $262 $263 $353 forward $162 $-1 #
coedge $-1 $263 $263 $262 $353 reversed $164 $-1 #
coedge $-1 $264 $264 $165 $265 forward $269 $-1 #
edge $-1 $354 0 $354 6.2831853071796004 $264 $355 forward 7 unknown #
edge $-1 $356 1 $356 0 $166 $-1 forward 7 unknown #
vertex $-1 $167 $357 #
ellipse-curve $-1 47.52907409196434 5.0729131411247188 1.7137770274482553 0.86602541151947299 0 0.49999998660252726 0.24999999330126363 0 -0.43301270575973649 1 I I #
loop $-1 $358 $264 $258 #
point $-1 48.645099496785079 5.0729131411247188 1.780764308291046 #
plane-surface $-1 49.530320139164402 0 0 -1 0 0 0 0 1 forward_v I I I I #
coedge $-1 $176 $174 $178 $276 reversed $103 $-1 #
edge $-1 $189 -4.1800369030979487 $278 4.1800369030979487 $188 $359 forward 7 unknown #
vertex $-1 $276 $360 #
straight-curve $-1 -49.530320139164402 -20.268326383800773 0 0 0 -1 I I #
edge $-1 $274 -20.268326383800773 $278 20.268326383800773 $272 $361 forward 7 unknown #
straight-curve $-1 0 -20.268326383800773 -4.1800369030979487 -1 0 0 I I #
vertex $-1 $181 $362 #
straight-curve $-1 0 20.268326383800773 -4.1800369030979487 1 0 0 I I #
point $-1 49.530320139164402 20.268326383800773 -4.1800369030979487 #
point $-1 49.530320139164402 -20.268326383800773 -4.1800369030979487 #
straight-curve $-1 -49.530320139164402 0 4.1800369030979487 0 -1 0 I I #
point $-1 -49.530320139164402 20.268326383800773 4.1800369030979487 #
point $-1 -49.530320139164402 -20.268326383800773 4.1800369030979487 #
straight-curve $-1 49.530320139164402 -20.268326383800773 0 0 0 -1 I I #
straight-curve $-1 49.530320139164402 20.268326383800773 0 0 0 -1 I I #
face $-1 $363 $364 $16 $-1 $365 forward single #
plane-surface $-1 0 -20.268326383800773 0 0 1 0 0 0 1 forward_v I I I I #
coedge $-1 $366 $200 $293 $367 forward $122 $-1 #
coedge $-1 $200 $366 $296 $368 reversed $122 $-1 #
edge $-1 $297 -20.268326383800773 $294 20.268326383800773 $200 $369 forward 7 unknown #
straight-curve $-1 -45.39473575412589 -20.268326383800773 -0.10808645184008148 0 0 -1 I I #
coedge $-1 $204 $370 $289 $367 reversed $219 $-1 #
vertex $-1 $367 $371 #
straight-curve $-1 -23.731263973322573 20.268326383800773 -1.7161729036801627 1 0 0 I I #
coedge $-1 $372 $206 $290 $368 forward $214 $-1 #
vertex $-1 $368 $373 #
straight-curve $-1 -23.731263973322573 -20.268326383800773 -1.7161729036801627 -1 0 0 I I #
point $-1 -45.39473575412589 20.268326383800773 -1.7161729036801627 #
point $-1 -45.39473575412589 -20.268326383800773 -1.7161729036801627 #
coedge $-1 $374 $211 $213 $305 reversed $199 $-1 #
coedge $-1 $211 $374 $217 $308 forward $199 $-1 #
straight-curve $-1 -49.530320139164402 0 1.2838270963198368 0 -1 0 I I #
coedge $-1 $213 $375 $376 $377 reversed $214 $-1 #
edge $-1 $378 -4.1800369030979487 $215 -1.2838270963198368 $301 $379 forward 7 unknown #
point $-1 -49.530320139164402 -20.268326383800773 1.2838270963198368 #
coedge $-1 $380 $217 $381 $382 reversed $219 $-1 #
edge $-1 $383 -4.1800369030979487 $220 -1.2838270963198368 $217 $384 forward 7 unknown #
face $-1 $385 $219 $16 $-1 $386 reversed single #
point $-1 -49.530320139164402 20.268326383800773 1.2838270963198368 #
straight-curve $-1 -45.39473575412589 20.268326383800773 -0.10808645184008148 0 0 1 I I #
face $-1 $387 $388 $17 $-1 $389 forward single #
loop $-1 $-1 $390 $225 #
plane-surface $-1 -47.462527946645146 0 -1.7161729036801627 0 0 1 1 0 0 forward_v I I I I #
coedge $-1 $391 $392 $393 $394 reversed $226 $-1 #
coedge $-1 $228 $395 $396 $397 forward $139 $-1 #
coedge $-1 $396 $238 $229 $318 forward $240 $-1 #
edge $-1 $322 -67.535916724710404 $319 -63.603396946616023 $317 $398 forward 7 unknown #
vertex $-1 $318 $399 #
straight-curve $-1 42.894516544792204 -3.2378665421259676 4.1800369030979425 -1 0 0 I I #
edge $-1 $236 -7.1073853963502422 $322 4.5277061602007258 $238 $400 forward 7 unknown #
vertex $-1 $321 $401 #
straight-curve $-1 1.3271622236743497e-006 -3.2378665421259676 86.036548887425766 -0.49999998660252726 0 0.86602541151947299 I I #
point $-1 47.259878867803231 -3.2378665421259676 4.1800369030979425 #
point $-1 49.530320139164402 8.3972250144250005 0.24751712500356859 #
coedge $-1 $239 $402 $403 $404 reversed $240 $-1 #
face $-1 $-1 $240 $17 $-1 $405 reversed single #
coedge $-1 $395 $242 $406 $407 forward $139 $-1 #
coedge $-1 $403 $408 $242 $330 reversed $409 $-1 #
edge $-1 $331 -49.530320139164402 $410 49.530320139164402 $329 $411 forward 7 unknown #
vertex $-1 $243 $412 #
straight-curve $-1 49.530320139164402 0 4.1800369030979487 0 1 0 I I #
face $-1 $413 $414 $18 $-1 $415 reversed single #
loop $-1 $-1 $416 $246 #
plane-surface $-1 0 0 4.1800369030979487 0 0 1 1 0 0 forward_v I I I I #
coedge $-1 $417 $418 $416 $419 reversed $247 $-1 #
coedge $-1 $420 $338 $343 $421 reversed $249 $-1 #
coedge $-1 $337 $422 $250 $339 reversed $249 $-1 #
edge $-1 $344 94.519757613933763 $423 99.060640278328805 $250 $424 forward 7 unknown #
coedge $-1 $425 $426 $251 $341 forward $427 $-1 #
edge $-1 $345 63.603396946616023 $423 67.535916724710404 $340 $428 forward 7 unknown #
coedge $-1 $429 $252 $426 $430 forward $334 $-1 #
coedge $-1 $252 $416 $337 $421 forward $334 $-1 #
vertex $-1 $421 $431 #
vertex $-1 $430 $432 #
straight-curve $-1 42.894516544792204 8.3972250144250005 4.1800369030979425 1 0 0 I I #
vertex $-1 $254 $433 #
point $-1 47.779074085265606 0.086445331174306972 1.2807643216885187 #
face $-1 $434 $435 $19 $-1 $436 forward single #
plane-surface $-1 1.3271622236743497e-006 2.5796792361495164 86.036548887425766 0.86602541151947299 0 0.49999998660252726 0.49999998660252726 0 -0.86602541151947299 forward_v I I I I #
coedge $-1 $437 $438 $439 $440 reversed $259 $-1 #
coedge $-1 $352 $352 $-1 $441 forward $261 $-1 #
edge $-1 $442 0 $442 6.2831853071796004 $262 $443 forward 7 unknown #
vertex $-1 $265 $444 #
ellipse-curve $-1 48.395099503483806 0.086445331174306972 2.2137770140507791 -0.86602541151947299 0 -0.49999998660252726 0.24999999330126363 0 -0.43301270575973649 1 I I #
vertex $-1 $266 $445 #
point $-1 47.779074085265606 5.0729131411247188 1.2807643216885187 #
loop $-1 $-1 $446 $258 #
straight-curve $-1 -49.530320139164402 20.268326383800773 0 0 0 -1 I I #
point $-1 -49.530320139164402 -20.268326383800773 -4.1800369030979487 #
straight-curve $-1 -49.530320139164402 0 -4.1800369030979487 0 1 0 I I #
point $-1 -49.530320139164402 20.268326383800773 -4.1800369030979487 #
face $-1 $309 $447 $16 $-1 $448 reversed single #
loop $-1 $-1 $449 $287 #
plane-surface $-1 0 0 4.1800369030979487 0 0 1 1 0 0 forward_v I I I I #
coedge $-1 $290 $289 $450 $451 reversed $122 $-1 #
edge $-1 $294 1.7161729036801627 $452 4.1800369030979487 $293 $384 forward 7 unknown #
edge $-1 $297 1.7161729036801627 $453 4.1800369030979487 $290 $379 forward 7 unknown #
straight-curve $-1 -49.530320139164402 0 -1.7161729036801627 0 1 0 I I #
coedge $-1 $293 $380 $454 $455 reversed $219 $-1 #
point $-1 -49.530320139164402 20.268326383800773 -1.7161729036801627 #
coedge $-1 $375 $296 $456 $457 reversed $214 $-1 #
point $-1 -49.530320139164402 -20.268326383800773 -1.7161729036801627 #
coedge $-1 $302 $301 $458 $459 reversed $199 $-1 #
coedge $-1 $304 $372 $460 $461 reversed $214 $-1 #
coedge $-1 $449 $458 $304 $377 forward $364 $-1 #
edge $-1 $378 -49.530320139164402 $462 49.530320139164402 $304 $463 forward 7 unknown #
vertex $-1 $459 $464 #
straight-curve $-1 -49.530320139164402 -20.268326383800773 0 0 0 -1 I I #
coedge $-1 $370 $307 $465 $466 forward $219 $-1 #
coedge $-1 $458 $449 $307 $382 forward $364 $-1 #
edge $-1 $467 -49.530320139164402 $383 49.530320139164402 $307 $468 forward 7 unknown #
vertex $-1 $382 $469 #
straight-curve $-1 -49.530320139164402 20.268326383800773 0 0 0 -1 I I #
face $-1 $-1 $470 $16 $-1 $471 reversed single #
plane-surface $-1 0 20.268326383800773 0 0 -1 0 0 0 -1 forward_v I I I I #
face $-1 $472 $473 $17 $-1 $474 reversed single #
loop $-1 $-1 $475 $312 #
plane-surface $-1 -45.39473575412589 0 -0.21617290368016295 -1 0 0 0 0 1 forward_v I I I I #
coedge $-1 $476 $477 $478 $479 reversed $313 $-1 #
coedge $-1 $480 $315 $481 $482 reversed $226 $-1 #
coedge $-1 $315 $480 $483 $484 reversed $226 $-1 #
coedge $-1 $485 $475 $315 $394 forward $388 $-1 #
edge $-1 $486 -20.268326383800773 $487 20.268326383800773 $393 $488 forward 7 unknown #
coedge $-1 $316 $328 $489 $490 forward $139 $-1 #
coedge $-1 $491 $317 $316 $397 reversed $240 $-1 #
edge $-1 $492 -20.268326383800773 $319 -3.2378665421259676 $396 $332 forward 7 unknown #
straight-curve $-1 49.530320139164402 -3.2378665421259676 67.783433849713973 0 0 1 I I #
point $-1 49.530320139164402 -3.2378665421259676 4.1800369030979487 #
straight-curve $-1 49.530320139164402 1.2898396180747582 0.24751712500356149 0 -1 0 I I #
point $-1 49.530320139164402 -3.2378665421259676 0.24751712500356859 #
coedge $-1 $326 $491 $493 $494 reversed $240 $-1 #
coedge $-1 $495 $329 $326 $404 forward $409 $-1 #
edge $-1 $331 -4.1800369030979487 $496 4.1800369030979487 $326 $497 forward 7 unknown #
plane-surface $-1 49.530320139164402 0 0 -1 0 0 0 0 1 forward_v I I I I #
coedge $-1 $498 $499 $328 $407 reversed $500 $-1 #
edge $-1 $410 -20.268326383800773 $501 20.268326383800773 $406 $502 forward 7 unknown #
coedge $-1 $329 $483 $498 $503 reversed $409 $-1 #
loop $-1 $-1 $483 $504 #
vertex $-1 $330 $505 #
straight-curve $-1 0 20.268326383800773 4.1800369030979487 -1 0 0 I I #
point $-1 49.530320139164402 20.268326383800773 4.1800369030979487 #
face $-1 $506 $507 $18 $-1 $508 forward single #
loop $-1 $-1 $509 $333 #
plane-surface $-1 -47.462527946645146 0 1.2838270963198368 0 0 1 1 0 0 forward_v I I I I #
coedge $-1 $343 $510 $336 $419 forward $334 $-1 #
coedge $-1 $418 $336 $511 $512 reversed $247 $-1 #
coedge $-1 $336 $417 $420 $513 forward $247 $-1 #
edge $-1 $514 -6.6358035943721987 $515 -4.365362323011027 $416 $516 forward 7 unknown #
coedge $-1 $422 $337 $418 $513 reversed $249 $-1 #
edge $-1 $515 -4.5277061602007258 $344 7.1073853963502422 $343 $517 forward 7 unknown #
coedge $-1 $338 $420 $425 $518 reversed $249 $-1 #
vertex $-1 $518 $519 #
straight-curve $-1 1.3271622236743497e-006 8.3972250144250005 86.036548887425766 0.49999998660252726 0 -0.86602541151947299 I I #
coedge $-1 $511 $340 $422 $518 forward $427 $-1 #
coedge $-1 $340 $520 $342 $430 reversed $427 $-1 #
loop $-1 $-1 $511 $521 #
straight-curve $-1 49.530320139164402 8.3972250144250005 67.783433849713973 0 0 -1 I I #
coedge $-1 $522 $342 $523 $524 forward $334 $-1 #
edge $-1 $345 8.3972250144250005 $525 20.268326383800773 $426 $526 forward 7 unknown #
point $-1 47.259878867803231 8.3972250144250005 4.1800369030979425 #
point $-1 49.530320139164402 8.3972250144250005 4.1800369030979487 #
point $-1 47.096061386204603 0.086445331174306972 1.4637770341469916 #
face $-1 $527 $528 $19 $-1 $529 forward single #
loop $-1 $-1 $530 $349 #
plane-surface $-1 85.789033089584407 -3.2378665421259676 135.56686769942795 0 1 0 0.86602541151947299 0 0.49999998660252726 forward_v I I I I #
coedge $-1 $438 $351 $531 $532 forward $259 $-1 #
coedge $-1 $351 $437 $533 $534 reversed $259 $-1 #
coedge $-1 $535 $536 $351 $440 forward $528 $-1 #
edge $-1 $537 4.365362323011027 $538 6.6358035943721987 $439 $539 forward 7 unknown #
edge $-1 $540 1 $540 0 $352 $-1 forward 7 unknown #
vertex $-1 $353 $541 #
ellipse-curve $-1 47.52907409196434 0.086445331174306972 1.7137770274482553 0.86602541151947299 0 0.49999998660252726 0.24999999330126363 0 -0.43301270575973649 1 I I #
point $-1 48.645099496785079 0.086445331174306972 1.780764308291046 #
point $-1 47.096061386204603 5.0729131411247188 1.4637770341469916 #
coedge $-1 $542 $531 $536 $543 reversed $358 $-1 #
loop $-1 $-1 $544 $363 #
plane-surface $-1 0 0 -4.1800369030979487 0 0 1 1 0 0 forward_v I I I I #
coedge $-1 $381 $376 $545 $546 forward $364 $-1 #
coedge $-1 $454 $456 $366 $451 forward $447 $-1 #
edge $-1 $453 -20.268326383800773 $452 20.268326383800773 $366 $547 forward 7 unknown #
vertex $-1 $455 $548 #
vertex $-1 $451 $549 #
coedge $-1 $544 $450 $370 $455 forward $447 $-1 #
edge $-1 $452 -49.530320139164402 $550 49.530320139164402 $370 $551 forward 7 unknown #
coedge $-1 $450 $544 $372 $457 forward $447 $-1 #
edge $-1 $552 -49.530320139164402 $453 49.530320139164402 $372 $553 forward 7 unknown #
coedge $-1 $376 $381 $374 $459 forward $364 $-1 #
edge $-1 $383 -20.268326383800773 $378 20.268326383800773 $374 $554 forward 7 unknown #
coedge $-1 $555 $545 $375 $461 forward $470 $-1 #
edge $-1 $462 -4.1800369030979487 $552 4.1800369030979487 $460 $556 forward 7 unknown #
vertex $-1 $546 $557 #
straight-curve $-1 0 -20.268326383800773 4.1800369030979487 1 0 0 I I #
point $-1 -49.530320139164402 -20.268326383800773 4.1800369030979487 #
coedge $-1 $545 $555 $380 $466 reversed $470 $-1 #
edge $-1 $467 -4.1800369030979487 $550 4.1800369030979487 $465 $558 forward 7 unknown #
vertex $-1 $546 $559 #
straight-curve $-1 0 20.268326383800773 4.1800369030979487 -1 0 0 I I #
point $-1 -49.530320139164402 20.268326383800773 4.1800369030979487 #
loop $-1 $-1 $460 $385 #
plane-surface $-1 49.530320139164402 0 0 -1 0 0 0 0 1 forward_v I I I I #
face $-1 $560 $500 $17 $-1 $474 reversed single #
loop $-1 $-1 $561 $387 #
plane-surface $-1 -49.530320139164402 0 0 1 0 0 0 0 -1 forward_v I I I I #
coedge $-1 $393 $478 $562 $563 reversed $388 $-1 #
coedge $-1 $564 $390 $565 $566 reversed $313 $-1 #
coedge $-1 $390 $564 $567 $568 reversed $313 $-1 #
coedge $-1 $475 $485 $390 $479 forward $388 $-1 #
edge $-1 $569 -20.268326383800773 $570 20.268326383800773 $478 $571 forward 7 unknown #
coedge $-1 $392 $391 $572 $573 reversed $226 $-1 #
coedge $-1 $562 $574 $391 $482 forward $575 $-1 #
edge $-1 $576 -25.799056165841829 $486 -21.663471780803317 $481 $577 forward 7 unknown #
coedge $-1 $408 $578 $392 $484 forward $409 $-1 #
edge $-1 $487 21.663471780803317 $579 25.799056165841829 $483 $580 forward 7 unknown #
coedge $-1 $478 $393 $578 $581 reversed $388 $-1 #
vertex $-1 $482 $582 #
vertex $-1 $484 $583 #
straight-curve $-1 -45.39473575412589 0 1.2838270963198368 0 1 0 I I #
coedge $-1 $574 $584 $395 $490 reversed $575 $-1 #
edge $-1 $501 -49.530320139164402 $492 49.530320139164402 $489 $585 forward 7 unknown #
coedge $-1 $402 $396 $584 $586 forward $240 $-1 #
vertex $-1 $397 $587 #
coedge $-1 $588 $589 $402 $494 forward $590 $-1 #
edge $-1 $496 -20.268326383800773 $591 20.268326383800773 $402 $592 forward 7 unknown #
coedge $-1 $593 $403 $589 $594 reversed $409 $-1 #
vertex $-1 $494 $595 #
straight-curve $-1 49.530320139164402 20.268326383800773 0 0 0 -1 I I #
coedge $-1 $572 $406 $408 $503 forward $500 $-1 #
coedge $-1 $406 $572 $574 $596 reversed $500 $-1 #
loop $-1 $-1 $572 $472 #
vertex $-1 $407 $597 #
straight-curve $-1 -49.530320139164402 0 4.1800369030979487 0 -1 0 I I #
edge $-1 $410 -4.1800369030979487 $579 -1.2838270963198368 $408 $598 forward 7 unknown #
face $-1 $327 $409 $17 $-1 $599 reversed single #
point $-1 -49.530320139164402 20.268326383800773 4.1800369030979487 #
face $-1 $600 $601 $18 $-1 $602 forward single #
loop $-1 $-1 $603 $413 #
plane-surface $-1 -47.462527946645146 0 -1.7161729036801627 0 0 1 1 0 0 forward_v I I I I #
coedge $-1 $604 $605 $606 $607 reversed $414 $-1 #
coedge $-1 $416 $608 $609 $610 forward $334 $-1 #
coedge $-1 $609 $425 $417 $512 forward $427 $-1 #
edge $-1 $611 -67.535916724710404 $514 -63.603396946616023 $511 $612 forward 7 unknown #
edge $-1 $611 -99.060640278328805 $515 -94.519757613933763 $418 $613 forward 7 unknown #
vertex $-1 $512 $614 #
vertex $-1 $421 $615 #
straight-curve $-1 42.894516544792204 -3.2378665421259676 4.1800369030979425 -1 0 0 I I #
straight-curve $-1 47.259878867803224 1.2898396180747582 4.1800369030979496 0 1 0 I I #
edge $-1 $423 -7.1073853963502422 $611 4.5277061602007258 $425 $616 forward 7 unknown #
point $-1 49.530320139164402 8.3972250144250005 0.24751712500356859 #
coedge $-1 $426 $617 $618 $619 reversed $427 $-1 #
face $-1 $-1 $427 $18 $-1 $620 reversed single #
coedge $-1 $608 $429 $621 $622 forward $334 $-1 #
coedge $-1 $618 $623 $429 $524 reversed $624 $-1 #
edge $-1 $525 -49.530320139164402 $625 49.530320139164402 $523 $626 forward 7 unknown #
vertex $-1 $430 $627 #
straight-curve $-1 49.530320139164402 0 4.1800369030979487 0 1 0 I I #
face $-1 $628 $629 $19 $-1 $630 reversed single #
loop $-1 $-1 $631 $434 #
plane-surface $-1 0 0 4.1800369030979487 0 0 1 1 0 0 forward_v I I I I #
coedge $-1 $632 $633 $631 $634 reversed $435 $-1 #
coedge $-1 $446 $635 $437 $532 reversed $358 $-1 #
edge $-1 $537 94.519757613933763 $636 99.060640278328805 $437 $637 forward 7 unknown #
coedge $-1 $638 $639 $438 $534 forward $640 $-1 #
edge $-1 $538 63.603396946616023 $636 67.535916724710404 $533 $641 forward 7 unknown #
coedge $-1 $642 $439 $639 $643 forward $528 $-1 #
coedge $-1 $439 $631 $446 $543 forward $528 $-1 #
vertex $-1 $543 $644 #
vertex $-1 $643 $645 #
straight-curve $-1 42.894516544792204 8.3972250144250005 4.1800369030979425 1 0 0 I I #
vertex $-1 $441 $646 #
point $-1 47.779074085265606 0.086445331174306972 1.2807643216885187 #
coedge $-1 $635 $446 $633 $647 reversed $358 $-1 #
edge $-1 $648 -4.5277061602007258 $537 7.1073853963502422 $536 $649 forward 7 unknown #
coedge $-1 $456 $454 $555 $650 forward $447 $-1 #
coedge $-1 $460 $465 $449 $546 reversed $470 $-1 #
edge $-1 $462 -20.268326383800773 $467 20.268326383800773 $545 $651 forward 7 unknown #
straight-curve $-1 -49.530320139164402 0 -4.1800369030979487 0 1 0 I I #
point $-1 -49.530320139164402 20.268326383800773 -4.1800369030979487 #
point $-1 -49.530320139164402 -20.268326383800773 -4.1800369030979487 #
vertex $-1 $650 $652 #
straight-curve $-1 0 20.268326383800773 -4.1800369030979487 1 0 0 I I #
vertex $-1 $461 $653 #
straight-curve $-1 0 -20.268326383800773 -4.1800369030979487 -1 0 0 I I #
straight-curve $-1 -49.530320139164402 0 4.1800369030979487 0 -1 0 I I #
coedge $-1 $465 $460 $544 $650 reversed $470 $-1 #
straight-curve $-1 49.530320139164402 -20.268326383800773 0 0 0 -1 I I #
point $-1 49.530320139164402 -20.268326383800773 4.1800369030979487 #
straight-curve $-1 49.530320139164402 20.268326383800773 0 0 0 -1 I I #
point $-1 49.530320139164402 20.268326383800773 4.1800369030979487 #
face $-1 $654 $575 $17 $-1 $655 reversed single #
coedge $-1 $656 $657 $564 $658 forward $473 $-1 #
coedge $-1 $567 $481 $475 $563 forward $575 $-1 #
edge $-1 $486 -1.3919135481599183 $570 1.6080864518400813 $562 $659 forward 7 unknown #
coedge $-1 $477 $476 $561 $658 reversed $313 $-1 #
coedge $-1 $578 $593 $476 $566 forward $409 $-1 #
edge $-1 $660 -25.799056165841829 $569 -21.663471780803317 $565 $661 forward 7 unknown #
coedge $-1 $662 $562 $477 $568 forward $575 $-1 #
edge $-1 $570 21.663471780803317 $663 25.799056165841829 $567 $664 forward 7 unknown #
vertex $-1 $566 $665 #
vertex $-1 $568 $666 #
straight-curve $-1 -45.39473575412589 0 -1.7161729036801627 0 -1 0 I I #
coedge $-1 $499 $498 $480 $573 forward $500 $-1 #
edge $-1 $579 -20.268326383800773 $576 20.268326383800773 $572 $667 forward 7 unknown #
coedge $-1 $481 $489 $499 $596 forward $575 $-1 #
loop $-1 $-1 $481 $560 #
vertex $-1 $482 $668 #
straight-curve $-1 -23.731263973322573 -20.268326383800773 1.2838270963198368 1 0 0 I I #
coedge $-1 $483 $565 $485 $581 forward $409 $-1 #
vertex $-1 $573 $669 #
straight-curve $-1 -23.731263973322573 20.268326383800773 1.2838270963198368 -1 0 0 I I #
edge $-1 $569 -1.6080864518400813 $487 1.3919135481599183 $578 $670 forward 7 unknown #
point $-1 -45.39473575412589 -20.268326383800773 1.2838270963198368 #
point $-1 -45.39473575412589 20.268326383800773 1.2838270963198368 #
coedge $-1 $489 $671 $491 $586 reversed $575 $-1 #
straight-curve $-1 0 -20.268326383800773 4.1800369030979487 1 0 0 I I #
edge $-1 $492 -4.1800369030979487 $591 4.1800369030979487 $491 $672 forward 7 unknown #
point $-1 49.530320139164402 -20.268326383800773 4.1800369030979487 #
coedge $-1 $673 $493 $671 $674 forward $590 $-1 #
coedge $-1 $493 $673 $495 $594 forward $590 $-1 #
loop $-1 $-1 $493 $654 #
vertex $-1 $586 $675 #
straight-curve $-1 49.530320139164402 0 -4.1800369030979487 0 -1 0 I I #
coedge $-1 $565 $495 $656 $676 reversed $409 $-1 #
edge $-1 $677 -49.530320139164402 $496 49.530320139164402 $495 $678 forward 7 unknown #
point $-1 49.530320139164402 20.268326383800773 -4.1800369030979487 #
edge $-1 $501 -4.1800369030979487 $576 -1.2838270963198368 $499 $679 forward 7 unknown #
point $-1 -49.530320139164402 -20.268326383800773 4.1800369030979487 #
straight-curve $-1 -49.530320139164402 20.268326383800773 0 0 0 -1 I I #
plane-surface $-1 0 20.268326383800773 0 0 -1 0 0 0 -1 forward_v I I I I #
face $-1 $680 $681 $18 $-1 $682 reversed single #
loop $-1 $-1 $683 $506 #
plane-surface $-1 -45.39473575412589 0 -0.21617290368016295 -1 0 0 0 0 1 forward_v I I I I #
coedge $-1 $684 $685 $686 $687 reversed $507 $-1 #
coedge $-1 $688 $509 $689 $690 reversed $414 $-1 #
coedge $-1 $509 $688 $691 $692 reversed $414 $-1 #
coedge $-1 $693 $683 $509 $607 forward $601 $-1 #
edge $-1 $694 -20.268326383800773 $695 20.268326383800773 $606 $696 forward 7 unknown #
coedge $-1 $510 $522 $697 $698 forward $334 $-1 #
coedge $-1 $699 $511 $510 $610 reversed $427 $-1 #
edge $-1 $700 -20.268326383800773 $514 -3.2378665421259676 $609 $526 forward 7 unknown #
vertex $-1 $518 $701 #
straight-curve $-1 49.530320139164402 -3.2378665421259676 67.783433849713973 0 0 1 I I #
straight-curve $-1 1.3271622236743497e-006 -3.2378665421259676 86.036548887425766 -0.49999998660252726 0 0.86602541151947299 I I #
point $-1 49.530320139164402 -3.2378665421259676 4.1800369030979487 #
point $-1 47.259878867803231 -3.2378665421259676 4.1800369030979425 #
straight-curve $-1 49.530320139164402 1.2898396180747582 0.24751712500356149 0 -1 0 I I #
coedge $-1 $520 $699 $702 $703 reversed $427 $-1 #
coedge $-1 $704 $523 $520 $619 forward $624 $-1 #
edge $-1 $525 -4.1800369030979487 $705 4.1800369030979487 $520 $706 forward 7 unknown #
plane-surface $-1 49.530320139164402 0 0 -1 0 0 0 0 1 forward_v I I I I #
coedge $-1 $707 $708 $522 $622 reversed $709 $-1 #
edge $-1 $625 -20.268326383800773 $710 20.268326383800773 $621 $711 forward 7 unknown #
coedge $-1 $523 $691 $707 $712 reversed $624 $-1 #
loop $-1 $-1 $691 $713 #
vertex $-1 $524 $714 #
straight-curve $-1 0 20.268326383800773 4.1800369030979487 -1 0 0 I I #
point $-1 49.530320139164402 20.268326383800773 4.1800369030979487 #
face $-1 $715 $716 $19 $-1 $717 forward single #
loop $-1 $-1 $718 $527 #
plane-surface $-1 -47.462527946645146 0 1.2838270963198368 0 0 1 1 0 0 forward_v I I I I #
coedge $-1 $536 $719 $530 $634 forward $528 $-1 #
coedge $-1 $633 $530 $720 $721 reversed $435 $-1 #
coedge $-1 $530 $632 $542 $647 forward $435 $-1 #
edge $-1 $722 -6.6358035943721987 $648 -4.365362323011027 $631 $723 forward 7 unknown #
coedge $-1 $531 $542 $638 $724 reversed $358 $-1 #
vertex $-1 $724 $725 #
straight-curve $-1 1.3271622236743497e-006 8.3972250144250005 86.036548887425766 0.49999998660252726 0 -0.86602541151947299 I I #
coedge $-1 $720 $533 $635 $724 forward $640 $-1 #
coedge $-1 $533 $726 $535 $643 reversed $640 $-1 #
loop $-1 $-1 $720 $727 #
straight-curve $-1 49.530320139164402 8.3972250144250005 67.783433849713973 0 0 -1 I I #
coedge $-1 $728 $535 $729 $730 forward $528 $-1 #
edge $-1 $538 8.3972250144250005 $731 20.268326383800773 $639 $732 forward 7 unknown #
point $-1 47.259878867803231 8.3972250144250005 4.1800369030979425 #
point $-1 49.530320139164402 8.3972250144250005 4.1800369030979487 #
point $-1 47.096061386204603 0.086445331174306972 1.4637770341469916 #
edge $-1 $733 -99.060640278328805 $648 -94.519757613933763 $633 $734 forward 7 unknown #
vertex $-1 $543 $735 #
straight-curve $-1 47.259878867803224 1.2898396180747582 4.1800369030979496 0 1 0 I I #
edge $-1 $550 -20.268326383800773 $552 20.268326383800773 $555 $736 forward 7 unknown #
straight-curve $-1 49.530320139164402 0 4.1800369030979487 0 1 0 I I #
point $-1 49.530320139164402 20.268326383800773 -4.1800369030979487 #
point $-1 49.530320139164402 -20.268326383800773 -4.1800369030979487 #
face $-1 $504 $590 $17 $-1 $737 reversed single #
plane-surface $-1 0 -20.268326383800773 0 0 1 0 0 0 1 forward_v I I I I #
coedge $-1 $738 $561 $593 $676 forward $473 $-1 #
coedge $-1 $561 $738 $662 $739 reversed $473 $-1 #
edge $-1 $663 -20.268326383800773 $660 20.268326383800773 $561 $740 forward 7 unknown #
straight-curve $-1 -45.39473575412589 -20.268326383800773 -0.10808645184008148 0 0 -1 I I #
vertex $-1 $676 $741 #
straight-curve $-1 -23.731263973322573 20.268326383800773 -1.7161729036801627 1 0 0 I I #
coedge $-1 $671 $567 $657 $739 forward $575 $-1 #
vertex $-1 $739 $742 #
straight-curve $-1 -23.731263973322573 -20.268326383800773 -1.7161729036801627 -1 0 0 I I #
point $-1 -45.39473575412589 20.268326383800773 -1.7161729036801627 #
point $-1 -45.39473575412589 -20.268326383800773 -1.7161729036801627 #
straight-curve $-1 -49.530320139164402 0 1.2838270963198368 0 -1 0 I I #
point $-1 -49.530320139164402 -20.268326383800773 1.2838270963198368 #
point $-1 -49.530320139164402 20.268326383800773 1.2838270963198368 #
straight-curve $-1 -45.39473575412589 20.268326383800773 -0.10808645184008148 0 0 1 I I #
coedge $-1 $584 $662 $588 $674 reversed $575 $-1 #
straight-curve $-1 49.530320139164402 -20.268326383800773 0 0 0 -1 I I #
coedge $-1 $589 $588 $738 $743 forward $590 $-1 #
edge $-1 $591 -49.530320139164402 $744 49.530320139164402 $671 $745 forward 7 unknown #
point $-1 49.530320139164402 -20.268326383800773 -4.1800369030979487 #
edge $-1 $660 1.7161729036801627 $677 4.1800369030979487 $593 $598 forward 7 unknown #
vertex $-1 $594 $746 #
straight-curve $-1 0 20.268326383800773 -4.1800369030979487 1 0 0 I I #
straight-curve $-1 -49.530320139164402 -20.268326383800773 0 0 0 -1 I I #
face $-1 $747 $709 $18 $-1 $682 reversed single #
loop $-1 $-1 $748 $600 #
plane-surface $-1 -49.530320139164402 0 0 1 0 0 0 0 -1 forward_v I I I I #
coedge $-1 $606 $686 $749 $750 reversed $601 $-1 #
coedge $-1 $751 $603 $752 $753 reversed $507 $-1 #
coedge $-1 $603 $751 $754 $755 reversed $507 $-1 #
coedge $-1 $683 $693 $603 $687 forward $601 $-1 #
edge $-1 $756 -20.268326383800773 $757 20.268326383800773 $686 $758 forward 7 unknown #
coedge $-1 $605 $604 $759 $760 reversed $414 $-1 #
coedge $-1 $749 $761 $604 $690 forward $762 $-1 #
edge $-1 $763 -25.799056165841829 $694 -21.663471780803317 $689 $764 forward 7 unknown #
coedge $-1 $623 $765 $605 $692 forward $624 $-1 #
edge $-1 $695 21.663471780803317 $766 25.799056165841829 $691 $767 forward 7 unknown #
coedge $-1 $686 $606 $765 $768 reversed $601 $-1 #
vertex $-1 $690 $769 #
vertex $-1 $692 $770 #
straight-curve $-1 -45.39473575412589 0 1.2838270963198368 0 1 0 I I #
coedge $-1 $761 $771 $608 $698 reversed $762 $-1 #
edge $-1 $710 -49.530320139164402 $700 49.530320139164402 $697 $772 forward 7 unknown #
coedge $-1 $617 $609 $771 $773 forward $427 $-1 #
vertex $-1 $610 $774 #
point $-1 49.530320139164402 -3.2378665421259676 0.24751712500356859 #
coedge $-1 $775 $776 $617 $703 forward $777 $-1 #
edge $-1 $705 -20.268326383800773 $778 20.268326383800773 $617 $779 forward 7 unknown #
coedge $-1 $780 $618 $776 $781 reversed $624 $-1 #
vertex $-1 $703 $782 #
straight-curve $-1 49.530320139164402 20.268326383800773 0 0 0 -1 I I #
coedge $-1 $759 $621 $623 $712 forward $709 $-1 #
coedge $-1 $621 $759 $761 $783 reversed $709 $-1 #
loop $-1 $-1 $759 $680 #
vertex $-1 $622 $784 #
straight-curve $-1 -49.530320139164402 0 4.1800369030979487 0 -1 0 I I #
edge $-1 $625 -4.1800369030979487 $766 -1.2838270963198368 $623 $785 forward 7 unknown #
face $-1 $521 $624 $18 $-1 $786 reversed single #
point $-1 -49.530320139164402 20.268326383800773 4.1800369030979487 #
face $-1 $787 $788 $19 $-1 $789 forward single #
loop $-1 $-1 $790 $628 #
plane-surface $-1 -47.462527946645146 0 -1.7161729036801627 0 0 1 1 0 0 forward_v I I I I #
coedge $-1 $791 $792 $793 $794 reversed $629 $-1 #
coedge $-1 $631 $795 $796 $797 forward $528 $-1 #
coedge $-1 $796 $638 $632 $721 forward $640 $-1 #
edge $-1 $733 -67.535916724710404 $722 -63.603396946616023 $720 $798 forward 7 unknown #
vertex $-1 $721 $799 #
straight-curve $-1 42.894516544792204 -3.2378665421259676 4.1800369030979425 -1 0 0 I I #
edge $-1 $636 -7.1073853963502422 $733 4.5277061602007258 $638 $800 forward 7 unknown #
point $-1 49.530320139164402 8.3972250144250005 0.24751712500356859 #
coedge $-1 $639 $801 $802 $803 reversed $640 $-1 #
face $-1 $-1 $640 $19 $-1 $804 reversed single #
coedge $-1 $795 $642 $805 $806 forward $528 $-1 #
coedge $-1 $802 $807 $642 $730 reversed $808 $-1 #
edge $-1 $731 -49.530320139164402 $809 49.530320139164402 $729 $810 forward 7 unknown #
vertex $-1 $643 $811 #
straight-curve $-1 49.530320139164402 0 4.1800369030979487 0 1 0 I I #
vertex $-1 $724 $812 #
straight-curve $-1 1.3271622236743497e-006 -3.2378665421259676 86.036548887425766 -0.49999998660252726 0 0.86602541151947299 I I #
point $-1 47.259878867803231 -3.2378665421259676 4.1800369030979425 #
straight-curve $-1 49.530320139164402 0 -4.1800369030979487 0 -1 0 I I #
plane-surface $-1 0 0 -4.1800369030979487 0 0 1 1 0 0 forward_v I I I I #
coedge $-1 $657 $656 $673 $743 reversed $473 $-1 #
edge $-1 $663 1.7161729036801627 $744 4.1800369030979487 $657 $679 forward 7 unknown #
straight-curve $-1 -49.530320139164402 0 -1.7161729036801627 0 1 0 I I #
point $-1 -49.530320139164402 20.268326383800773 -1.7161729036801627 #
point $-1 -49.530320139164402 -20.268326383800773 -1.7161729036801627 #
edge $-1 $744 -20.268326383800773 $677 20.268326383800773 $738 $813 forward 7 unknown #
vertex $-1 $743 $814 #
straight-curve $-1 0 -20.268326383800773 -4.1800369030979487 -1 0 0 I I #
point $-1 -49.530320139164402 20.268326383800773 -4.1800369030979487 #
face $-1 $815 $762 $18 $-1 $816 reversed single #
coedge $-1 $817 $818 $751 $819 forward $681 $-1 #
coedge $-1 $754 $689 $683 $750 forward $762 $-1 #
edge $-1 $694 -1.3919135481599183 $757 1.6080864518400813 $749 $820 forward 7 unknown #
coedge $-1 $685 $684 $748 $819 reversed $507 $-1 #
coedge $-1 $765 $780 $684 $753 forward $624 $-1 #
edge $-1 $821 -25.799056165841829 $756 -21.663471780803317 $752 $822 forward 7 unknown #
coedge $-1 $823 $749 $685 $755 forward $762 $-1 #
edge $-1 $757 21.663471780803317 $824 25.799056165841829 $754 $825 forward 7 unknown #
vertex $-1 $753 $826 #
vertex $-1 $755 $827 #
straight-curve $-1 -45.39473575412589 0 -1.7161729036801627 0 -1 0 I I #
coedge $-1 $708 $707 $688 $760 forward $709 $-1 #
edge $-1 $766 -20.268326383800773 $763 20.268326383800773 $759 $828 forward 7 unknown #
coedge $-1 $689 $697 $708 $783 forward $762 $-1 #
loop $-1 $-1 $689 $747 #
vertex $-1 $690 $829 #
straight-curve $-1 -23.731263973322573 -20.268326383800773 1.2838270963198368 1 0 0 I I #
coedge $-1 $691 $752 $693 $768 forward $624 $-1 #
vertex $-1 $760 $830 #
straight-curve $-1 -23.731263973322573 20.268326383800773 1.2838270963198368 -1 0 0 I I #
edge $-1 $756 -1.6080864518400813 $695 1.3919135481599183 $765 $831 forward 7 unknown #
point $-1 -45.39473575412589 -20.268326383800773 1.2838270963198368 #
point $-1 -45.39473575412589 20.268326383800773 1.2838270963198368 #
coedge $-1 $697 $832 $699 $773 reversed $762 $-1 #
straight-curve $-1 0 -20.268326383800773 4.1800369030979487 1 0 0 I I #
edge $-1 $700 -4.1800369030979487 $778 4.1800369030979487 $699 $833 forward 7 unknown #
point $-1 49.530320139164402 -20.268326383800773 4.1800369030979487 #
coedge $-1 $834 $702 $832 $835 forward $777 $-1 #
coedge $-1 $702 $834 $704 $781 forward $777 $-1 #
loop $-1 $-1 $702 $815 #
vertex $-1 $773 $836 #
straight-curve $-1 49.530320139164402 0 -4.1800369030979487 0 -1 0 I I #
coedge $-1 $752 $704 $817 $837 reversed $624 $-1 #
edge $-1 $838 -49.530320139164402 $705 49.530320139164402 $704 $839 forward 7 unknown #
point $-1 49.530320139164402 20.268326383800773 -4.1800369030979487 #
edge $-1 $710 -4.1800369030979487 $763 -1.2838270963198368 $708 $840 forward 7 unknown #
point $-1 -49.530320139164402 -20.268326383800773 4.1800369030979487 #
straight-curve $-1 -49.530320139164402 20.268326383800773 0 0 0 -1 I I #
plane-surface $-1 0 20.268326383800773 0 0 -1 0 0 0 -1 forward_v I I I I #
face $-1 $841 $842 $19 $-1 $843 reversed single #
loop $-1 $-1 $844 $715 #
plane-surface $-1 -45.39473575412589 0 -0.21617290368016295 -1 0 0 0 0 1 forward_v I I I I #
coedge $-1 $845 $846 $847 $848 reversed $716 $-1 #
coedge $-1 $849 $718 $850 $851 reversed $629 $-1 #
coedge $-1 $718 $849 $852 $853 reversed $629 $-1 #
coedge $-1 $854 $844 $718 $794 forward $788 $-1 #
edge $-1 $855 -20.268326383800773 $856 20.268326383800773 $793 $857 forward 7 unknown #
coedge $-1 $719 $728 $858 $859 forward $528 $-1 #
coedge $-1 $860 $720 $719 $797 reversed $640 $-1 #
edge $-1 $861 -20.268326383800773 $722 -3.2378665421259676 $796 $732 forward 7 unknown #
straight-curve $-1 49.530320139164402 -3.2378665421259676 67.783433849713973 0 0 1 I I #
point $-1 49.530320139164402 -3.2378665421259676 4.1800369030979487 #
straight-curve $-1 49.530320139164402 1.2898396180747582 0.24751712500356149 0 -1 0 I I #
coedge $-1 $726 $860 $862 $863 reversed $640 $-1 #
coedge $-1 $864 $729 $726 $803 forward $808 $-1 #
edge $-1 $731 -4.1800369030979487 $865 4.1800369030979487 $726 $866 forward 7 unknown #
plane-surface $-1 49.530320139164402 0 0 -1 0 0 0 0 1 forward_v I I I I #
coedge $-1 $867 $868 $728 $806 reversed $869 $-1 #
edge $-1 $809 -20.268326383800773 $870 20.268326383800773 $805 $871 forward 7 unknown #
coedge $-1 $729 $852 $867 $872 reversed $808 $-1 #
loop $-1 $-1 $852 $873 #
vertex $-1 $730 $874 #
straight-curve $-1 0 20.268326383800773 4.1800369030979487 -1 0 0 I I #
point $-1 49.530320139164402 20.268326383800773 4.1800369030979487 #
point $-1 49.530320139164402 -3.2378665421259676 0.24751712500356859 #
straight-curve $-1 -49.530320139164402 0 -4.1800369030979487 0 1 0 I I #
point $-1 -49.530320139164402 -20.268326383800773 -4.1800369030979487 #
face $-1 $713 $777 $18 $-1 $875 reversed single #
plane-surface $-1 0 -20.268326383800773 0 0 1 0 0 0 1 forward_v I I I I #
coedge $-1 $876 $748 $780 $837 forward $681 $-1 #
coedge $-1 $748 $876 $823 $877 reversed $681 $-1 #
edge $-1 $824 -20.268326383800773 $821 20.268326383800773 $748 $878 forward 7 unknown #
straight-curve $-1 -45.39473575412589 -20.268326383800773 -0.10808645184008148 0 0 -1 I I #
vertex $-1 $837 $879 #
straight-curve $-1 -23.731263973322573 20.268326383800773 -1.7161729036801627 1 0 0 I I #
coedge $-1 $832 $754 $818 $877 forward $762 $-1 #
vertex $-1 $877 $880 #
straight-curve $-1 -23.731263973322573 -20.268326383800773 -1.7161729036801627 -1 0 0 I I #
point $-1 -45.39473575412589 20.268326383800773 -1.7161729036801627 #
point $-1 -45.39473575412589 -20.268326383800773 -1.7161729036801627 #
straight-curve $-1 -49.530320139164402 0 1.2838270963198368 0 -1 0 I I #
point $-1 -49.530320139164402 -20.268326383800773 1.2838270963198368 #
point $-1 -49.530320139164402 20.268326383800773 1.2838270963198368 #
straight-curve $-1 -45.39473575412589 20.268326383800773 -0.10808645184008148 0 0 1 I I #
coedge $-1 $771 $823 $775 $835 reversed $762 $-1 #
straight-curve $-1 49.530320139164402 -20.268326383800773 0 0 0 -1 I I #
coedge $-1 $776 $775 $876 $881 forward $777 $-1 #
edge $-1 $778 -49.530320139164402 $882 49.530320139164402 $832 $883 forward 7 unknown #
point $-1 49.530320139164402 -20.268326383800773 -4.1800369030979487 #
edge $-1 $821 1.7161729036801627 $838 4.1800369030979487 $780 $785 forward 7 unknown #
vertex $-1 $781 $884 #
straight-curve $-1 0 20.268326383800773 -4.1800369030979487 1 0 0 I I #
straight-curve $-1 -49.530320139164402 -20.268326383800773 0 0 0 -1 I I #
face $-1 $885 $869 $19 $-1 $843 reversed single #
loop $-1 $-1 $886 $787 #
plane-surface $-1 -49.530320139164402 0 0 1 0 0 0 0 -1 forward_v I I I I #
coedge $-1 $793 $847 $887 $888 reversed $788 $-1 #
coedge $-1 $889 $790 $890 $891 reversed $716 $-1 #
coedge $-1 $790 $889 $892 $893 reversed $716 $-1 #
coedge $-1 $844 $854 $790 $848 forward $788 $-1 #
edge $-1 $894 -20.268326383800773 $895 20.268326383800773 $847 $896 forward 7 unknown #
coedge $-1 $792 $791 $897 $898 reversed $629 $-1 #
coedge $-1 $887 $899 $791 $851 forward $900 $-1 #
edge $-1 $901 -25.799056165841829 $855 -21.663471780803317 $850 $902 forward 7 unknown #
coedge $-1 $807 $903 $792 $853 forward $808 $-1 #
edge $-1 $856 21.663471780803317 $904 25.799056165841829 $852 $905 forward 7 unknown #
coedge $-1 $847 $793 $903 $906 reversed $788 $-1 #
vertex $-1 $851 $907 #
vertex $-1 $853 $908 #
straight-curve $-1 -45.39473575412589 0 1.2838270963198368 0 1 0 I I #
coedge $-1 $899 $909 $795 $859 reversed $900 $-1 #
edge $-1 $870 -49.530320139164402 $861 49.530320139164402 $858 $910 forward 7 unknown #
coedge $-1 $801 $796 $909 $911 forward $640 $-1 #
vertex $-1 $797 $912 #
coedge $-1 $913 $914 $801 $863 forward $915 $-1 #
edge $-1 $865 -20.268326383800773 $916 20.268326383800773 $801 $917 forward 7 unknown #
coedge $-1 $918 $802 $914 $919 reversed $808 $-1 #
vertex $-1 $863 $920 #
straight-curve $-1 49.530320139164402 20.268326383800773 0 0 0 -1 I I #
coedge $-1 $897 $805 $807 $872 forward $869 $-1 #
coedge $-1 $805 $897 $899 $921 reversed $869 $-1 #
loop $-1 $-1 $897 $841 #
vertex $-1 $806 $922 #
straight-curve $-1 -49.530320139164402 0 4.1800369030979487 0 -1 0 I I #
edge $-1 $809 -4.1800369030979487 $904 -1.2838270963198368 $807 $923 forward 7 unknown #
face $-1 $727 $808 $19 $-1 $924 reversed single #
point $-1 -49.530320139164402 20.268326383800773 4.1800369030979487 #
plane-surface $-1 0 0 -4.1800369030979487 0 0 1 1 0 0 forward_v I I I I #
coedge $-1 $818 $817 $834 $881 reversed $681 $-1 #
edge $-1 $824 1.7161729036801627 $882 4.1800369030979487 $818 $840 forward 7 unknown #
straight-curve $-1 -49.530320139164402 0 -1.7161729036801627 0 1 0 I I #
point $-1 -49.530320139164402 20.268326383800773 -1.7161729036801627 #
point $-1 -49.530320139164402 -20.268326383800773 -1.7161729036801627 #
edge $-1 $882 -20.268326383800773 $838 20.268326383800773 $876 $925 forward 7 unknown #
vertex $-1 $881 $926 #
straight-curve $-1 0 -20.268326383800773 -4.1800369030979487 -1 0 0 I I #
point $-1 -49.530320139164402 20.268326383800773 -4.1800369030979487 #
face $-1 $927 $900 $19 $-1 $928 reversed single #
coedge $-1 $929 $930 $889 $931 forward $842 $-1 #
coedge $-1 $892 $850 $844 $888 forward $900 $-1 #
edge $-1 $855 -1.3919135481599183 $895 1.6080864518400813 $887 $932 forward 7 unknown #
coedge $-1 $846 $845 $886 $931 reversed $716 $-1 #
coedge $-1 $903 $918 $845 $891 forward $808 $-1 #
edge $-1 $933 -25.799056165841829 $894 -21.663471780803317 $890 $934 forward 7 unknown #
coedge $-1 $935 $887 $846 $893 forward $900 $-1 #
edge $-1 $895 21.663471780803317 $936 25.799056165841829 $892 $937 forward 7 unknown #
vertex $-1 $891 $938 #
vertex $-1 $893 $939 #
straight-curve $-1 -45.39473575412589 0 -1.7161729036801627 0 -1 0 I I #
coedge $-1 $868 $867 $849 $898 forward $869 $-1 #
edge $-1 $904 -20.268326383800773 $901 20.268326383800773 $897 $940 forward 7 unknown #
coedge $-1 $850 $858 $868 $921 forward $900 $-1 #
loop $-1 $-1 $850 $885 #
vertex $-1 $851 $941 #
straight-curve $-1 -23.731263973322573 -20.268326383800773 1.2838270963198368 1 0 0 I I #
coedge $-1 $852 $890 $854 $906 forward $808 $-1 #
vertex $-1 $898 $942 #
straight-curve $-1 -23.731263973322573 20.268326383800773 1.2838270963198368 -1 0 0 I I #
edge $-1 $894 -1.6080864518400813 $856 1.3919135481599183 $903 $943 forward 7 unknown #
point $-1 -45.39473575412589 -20.268326383800773 1.2838270963198368 #
point $-1 -45.39473575412589 20.268326383800773 1.2838270963198368 #
coedge $-1 $858 $944 $860 $911 reversed $900 $-1 #
straight-curve $-1 0 -20.268326383800773 4.1800369030979487 1 0 0 I I #
edge $-1 $861 -4.1800369030979487 $916 4.1800369030979487 $860 $945 forward 7 unknown #
point $-1 49.530320139164402 -20.268326383800773 4.1800369030979487 #
coedge $-1 $946 $862 $944 $947 forward $915 $-1 #
coedge $-1 $862 $946 $864 $919 forward $915 $-1 #
loop $-1 $-1 $862 $927 #
vertex $-1 $911 $948 #
straight-curve $-1 49.530320139164402 0 -4.1800369030979487 0 -1 0 I I #
coedge $-1 $890 $864 $929 $949 reversed $808 $-1 #
edge $-1 $950 -49.530320139164402 $865 49.530320139164402 $864 $951 forward 7 unknown #
point $-1 49.530320139164402 20.268326383800773 -4.1800369030979487 #
edge $-1 $870 -4.1800369030979487 $901 -1.2838270963198368 $868 $952 forward 7 unknown #
point $-1 -49.530320139164402 -20.268326383800773 4.1800369030979487 #
straight-curve $-1 -49.530320139164402 20.268326383800773 0 0 0 -1 I I #
plane-surface $-1 0 20.268326383800773 0 0 -1 0 0 0 -1 forward_v I I I I #
straight-curve $-1 -49.530320139164402 0 -4.1800369030979487 0 1 0 I I #
point $-1 -49.530320139164402 -20.268326383800773 -4.1800369030979487 #
face $-1 $873 $915 $19 $-1 $953 reversed single #
plane-surface $-1 0 -20.268326383800773 0 0 1 0 0 0 1 forward_v I I I I #
coedge $-1 $954 $886 $918 $949 forward $842 $-1 #
coedge $-1 $886 $954 $935 $955 reversed $842 $-1 #
edge $-1 $936 -20.268326383800773 $933 20.268326383800773 $886 $956 forward 7 unknown #
straight-curve $-1 -45.39473575412589 -20.268326383800773 -0.10808645184008148 0 0 -1 I I #
vertex $-1 $949 $957 #
straight-curve $-1 -23.731263973322573 20.268326383800773 -1.7161729036801627 1 0 0 I I #
coedge $-1 $944 $892 $930 $955 forward $900 $-1 #
vertex $-1 $955 $958 #
straight-curve $-1 -23.731263973322573 -20.268326383800773 -1.7161729036801627 -1 0 0 I I #
point $-1 -45.39473575412589 20.268326383800773 -1.7161729036801627 #
point $-1 -45.39473575412589 -20.268326383800773 -1.7161729036801627 #
straight-curve $-1 -49.530320139164402 0 1.2838270963198368 0 -1 0 I I #
point $-1 -49.530320139164402 -20.268326383800773 1.2838270963198368 #
point $-1 -49.530320139164402 20.268326383800773 1.2838270963198368 #
straight-curve $-1 -45.39473575412589 20.268326383800773 -0.10808645184008148 0 0 1 I I #
coedge $-1 $909 $935 $913 $947 reversed $900 $-1 #
straight-curve $-1 49.530320139164402 -20.268326383800773 0 0 0 -1 I I #
coedge $-1 $914 $913 $954 $959 forward $915 $-1 #
edge $-1 $916 -49.530320139164402 $960 49.530320139164402 $944 $961 forward 7 unknown #
point $-1 49.530320139164402 -20.268326383800773 -4.1800369030979487 #
edge $-1 $933 1.7161729036801627 $950 4.1800369030979487 $918 $923 forward 7 unknown #
vertex $-1 $919 $962 #
straight-curve $-1 0 20.268326383800773 -4.1800369030979487 1 0 0 I I #
straight-curve $-1 -49.530320139164402 -20.268326383800773 0 0 0 -1 I I #
plane-surface $-1 0 0 -4.1800369030979487 0 0 1 1 0 0 forward_v I I I I #
coedge $-1 $930 $929 $946 $959 reversed $842 $-1 #
edge $-1 $936 1.7161729036801627 $960 4.1800369030979487 $930 $952 forward 7 unknown #
straight-curve $-1 -49.530320139164402 0 -1.7161729036801627 0 1 0 I I #
point $-1 -49.530320139164402 20.268326383800773 -1.7161729036801627 #
point $-1 -49.530320139164402 -20.268326383800773 -1.7161729036801627 #
edge $-1 $960 -20.268326383800773 $950 20.268326383800773 $954 $963 forward 7 unknown #
vertex $-1 $959 $964 #
straight-curve $-1 0 -20.268326383800773 -4.1800369030979487 -1 0 0 I I #
point $-1 -49.530320139164402 20.268326383800773 -4.1800369030979487 #
straight-curve $-1 -49.530320139164402 0 -4.1800369030979487 0 1 0 I I #
point $-1 -49.530320139164402 -20.268326383800773 -4.1800369030979487 #
End-of-ACIS-data 