500 0 18 0           
7 Unknown 11 ACIS 5.0 NT 24 Thu Mar 25 21:30:07 1999 
-1 9.9999999999999995e-007 1e-010 
body $-1 $18 $-1 $19 #
body $-1 $20 $-1 $21 #
body $-1 $22 $-1 $23 #
body $-1 $24 $-1 $25 #
body $-1 $26 $-1 $27 #
body $-1 $28 $-1 $29 #
body $-1 $30 $-1 $31 #
body $-1 $32 $-1 $33 #
body $-1 $34 $-1 $35 #
body $-1 $36 $-1 $37 #
body $-1 $38 $-1 $39 #
body $-1 $40 $-1 $41 #
body $-1 $42 $-1 $43 #
body $-1 $44 $-1 $45 #
body $-1 $46 $-1 $47 #
body $-1 $48 $-1 $49 #
body $-1 $50 $-1 $51 #
body $-1 $52 $-1 $53 #
lump $-1 $-1 $54 $0 #
transform $-1 1 0 0 0 1 0 0 0 1 47.976317636646627 27.215619280570703 12.837612681184025 1 rotate no_reflect no_shear #
lump $-1 $-1 $55 $1 #
transform $-1 1 0 0 0 1 0 0 0 1 47.976317636646627 27.215619280570703 12.837612681184025 1 rotate no_reflect no_shear #
lump $-1 $-1 $56 $2 #
transform $-1 1 0 0 0 1 0 0 0 1 47.976317636646627 27.215619280570703 12.837612681184025 1 rotate no_reflect no_shear #
lump $-1 $-1 $57 $3 #
transform $-1 1 0 0 0 1 0 0 0 1 47.976317636646627 27.215619280570703 12.837612681184025 1 rotate no_reflect no_shear #
lump $-1 $-1 $58 $4 #
transform $-1 1 0 0 0 1 0 0 0 1 47.976317636646627 27.215619280570703 12.837612681184025 1 rotate no_reflect no_shear #
lump $-1 $-1 $59 $5 #
transform $-1 1 0 0 0 1 0 0 0 1 47.976317636646627 27.215619280570703 12.837612681184025 1 rotate no_reflect no_shear #
lump $-1 $-1 $60 $6 #
transform $-1 1 0 0 0 1 0 0 0 1 47.976317636646627 27.215619280570703 12.837612681184025 1 rotate no_reflect no_shear #
lump $-1 $-1 $61 $7 #
transform $-1 1 0 0 0 1 0 0 0 1 47.976317636646627 27.215619280570703 12.837612681184025 1 rotate no_reflect no_shear #
lump $-1 $-1 $62 $8 #
transform $-1 1 0 0 0 1 0 0 0 1 47.976317636646627 27.215619280570703 12.837612681184025 1 rotate no_reflect no_shear #
lump $-1 $-1 $63 $9 #
transform $-1 1 0 0 0 1 0 0 0 1 47.976317636646627 27.215619280570703 12.837612681184025 1 rotate no_reflect no_shear #
lump $-1 $-1 $64 $10 #
transform $-1 1 0 0 0 1 0 0 0 1 47.976317636646627 27.215619280570703 12.837612681184025 1 rotate no_reflect no_shear #
lump $-1 $-1 $65 $11 #
transform $-1 1 0 0 0 1 0 0 0 1 47.976317636646627 27.215619280570703 12.837612681184025 1 rotate no_reflect no_shear #
lump $-1 $-1 $66 $12 #
transform $-1 1 0 0 0 1 0 0 0 1 47.976317636646627 27.215619280570703 12.837612681184025 1 rotate no_reflect no_shear #
lump $-1 $-1 $67 $13 #
transform $-1 1 0 0 0 1 0 0 0 1 47.976317636646627 27.215619280570703 12.837612681184025 1 rotate no_reflect no_shear #
lump $-1 $-1 $68 $14 #
transform $-1 1 0 0 0 1 0 0 0 1 47.976317636646627 27.215619280570703 12.837612681184025 1 rotate no_reflect no_shear #
lump $-1 $-1 $69 $15 #
transform $-1 1 0 0 0 1 0 0 0 1 47.976317636646627 27.215619280570703 12.837612681184025 1 rotate no_reflect no_shear #
lump $-1 $-1 $70 $16 #
transform $-1 1 0 0 0 1 0 0 0 1 47.976317636646627 27.215619280570703 12.837612681184025 1 rotate no_reflect no_shear #
lump $-1 $-1 $71 $17 #
transform $-1 1 0 0 0 1 0 0 0 1 47.976317636646627 27.215619280570703 12.837612681184025 1 rotate no_reflect no_shear #
shell $-1 $-1 $-1 $72 $-1 $18 #
shell $-1 $-1 $-1 $73 $-1 $20 #
shell $-1 $-1 $-1 $74 $-1 $22 #
shell $-1 $-1 $-1 $75 $-1 $24 #
shell $-1 $-1 $-1 $76 $-1 $26 #
shell $-1 $-1 $-1 $77 $-1 $28 #
shell $-1 $-1 $-1 $78 $-1 $30 #
shell $-1 $-1 $-1 $79 $-1 $32 #
shell $-1 $-1 $-1 $80 $-1 $34 #
shell $-1 $-1 $-1 $81 $-1 $36 #
shell $-1 $-1 $-1 $82 $-1 $38 #
shell $-1 $-1 $-1 $83 $-1 $40 #
shell $-1 $-1 $-1 $84 $-1 $42 #
shell $-1 $-1 $-1 $85 $-1 $44 #
shell $-1 $-1 $-1 $86 $-1 $46 #
shell $-1 $-1 $-1 $87 $-1 $48 #
shell $-1 $-1 $-1 $88 $-1 $50 #
shell $-1 $-1 $-1 $89 $-1 $52 #
face $-1 $90 $91 $54 $-1 $92 forward single #
face $-1 $93 $94 $55 $-1 $95 forward single #
face $-1 $96 $97 $56 $-1 $98 reversed single #
face $-1 $99 $100 $57 $-1 $101 forward single #
face $-1 $102 $103 $58 $-1 $104 forward single #
face $-1 $105 $106 $59 $-1 $107 forward single #
face $-1 $108 $109 $60 $-1 $110 reversed single #
face $-1 $111 $112 $61 $-1 $113 forward single #
face $-1 $114 $115 $62 $-1 $116 forward single #
face $-1 $117 $118 $63 $-1 $119 forward single #
face $-1 $120 $121 $64 $-1 $122 reversed single #
face $-1 $123 $124 $65 $-1 $125 forward single #
face $-1 $126 $127 $66 $-1 $128 forward single #
face $-1 $129 $130 $67 $-1 $131 forward single #
face $-1 $132 $133 $68 $-1 $134 reversed single #
face $-1 $135 $136 $69 $-1 $137 forward single #
face $-1 $138 $139 $70 $-1 $140 forward single #
face $-1 $141 $142 $71 $-1 $143 forward single #
face $-1 $144 $145 $54 $-1 $146 reversed single #
loop $-1 $-1 $147 $72 #
plane-surface $-1 0 0 12.837612681184025 0 0 1 1 0 0 forward_v I I I I #
face $-1 $148 $149 $55 $-1 $150 reversed single #
loop $-1 $-1 $151 $73 #
plane-surface $-1 -39.721733074430105 0 5.0358459422290576 0 0 1 1 0 0 forward_v I I I I #
face $-1 $152 $153 $56 $-1 $154 reversed single #
loop $-1 $-1 $155 $74 #
plane-surface $-1 -1.905994005752575 31.902461841983698 111.0830732057115 1 0 0 0 -0.52991927123019833 -0.84804809178421925 forward_v I I I I #
face $-1 $156 $157 $57 $-1 $158 forward single #
loop $-1 $159 $160 $75 #
cone-surface $-1 0.12612170784124288 17.371736679082627 6.4280131397253442 0 -0.52991927123019833 -0.84804809178421925 0.5 0 0 1 I I 0 1 0.5 forward I I I I #
face $-1 $161 $162 $58 $-1 $163 forward single #
loop $-1 $164 $165 $76 #
cone-surface $-1 3.1742952782319733 17.371736679082627 6.4280131397253442 0 -0.52991927123019833 -0.84804809178421925 0.5 0 0 1 I I 0 1 0.5 forward I I I I #
face $-1 $166 $167 $59 $-1 $168 forward single #
loop $-1 $169 $170 $77 #
cone-surface $-1 6.2224688486227038 17.371736679082627 6.4280131397253442 0 -0.52991927123019833 -0.84804809178421925 0.5 0 0 1 I I 0 1 0.5 forward I I I I #
face $-1 $171 $172 $60 $-1 $173 reversed single #
loop $-1 $-1 $174 $78 #
plane-surface $-1 3.1742952782319733 -18.944688714656888 29.710623960527982 0 0.52991927123019833 0.84804809178421925 1 0 0 forward_v I I I I #
face $-1 $175 $176 $61 $-1 $177 forward single #
loop $-1 $178 $179 $79 #
cone-surface $-1 10.28670027581034 17.371736679082627 6.4280131397253442 0 -0.52991927123019833 -0.84804809178421925 0.5 0 0 1 I I 0 1 0.5 forward I I I I #
face $-1 $180 $181 $62 $-1 $182 forward single #
loop $-1 $183 $184 $80 #
cone-surface $-1 13.33487384620107 17.371736679082627 6.4280131397253442 0 -0.52991927123019833 -0.84804809178421925 0.5 0 0 1 I I 0 1 0.5 forward I I I I #
face $-1 $185 $186 $63 $-1 $187 forward single #
loop $-1 $188 $189 $81 #
cone-surface $-1 16.383047416591808 17.371736679082627 6.4280131397253442 0 -0.52991927123019833 -0.84804809178421925 0.5 0 0 1 I I 0 1 0.5 forward I I I I #
face $-1 $190 $191 $64 $-1 $192 reversed single #
loop $-1 $-1 $193 $82 #
plane-surface $-1 8.2545845622165217 -78.062769837211277 82.238910935234372 -1 0 0 0 -0.52991927123019833 0.84804809178421925 forward_v I I I I #
face $-1 $194 $195 $65 $-1 $196 forward single #
loop $-1 $197 $198 $83 #
cone-surface $-1 0.12612170784124288 -17.37173667908263 6.4280131397253442 0 0.52991927123019833 -0.84804809178421925 0.5 0 0 1 I I 0 1 0.5 forward I I I I #
face $-1 $199 $200 $66 $-1 $201 forward single #
loop $-1 $202 $203 $84 #
cone-surface $-1 3.1742952782319733 -17.37173667908263 6.4280131397253442 0 0.52991927123019833 -0.84804809178421925 0.5 0 0 1 I I 0 1 0.5 forward I I I I #
face $-1 $204 $205 $67 $-1 $206 forward single #
loop $-1 $207 $208 $85 #
cone-surface $-1 6.2224688486227038 -17.37173667908263 6.4280131397253442 0 0.52991927123019833 -0.84804809178421925 0.5 0 0 1 I I 0 1 0.5 forward I I I I #
face $-1 $209 $210 $68 $-1 $211 reversed single #
loop $-1 $-1 $212 $86 #
plane-surface $-1 18.415163130185618 -78.062769837211277 82.238910935234372 -1 0 0 0 -0.52991927123019833 0.84804809178421925 forward_v I I I I #
face $-1 $213 $214 $69 $-1 $215 forward single #
loop $-1 $216 $217 $87 #
cone-surface $-1 10.28670027581034 -17.37173667908263 6.4280131397253442 0 0.52991927123019833 -0.84804809178421925 0.5 0 0 1 I I 0 1 0.5 forward I I I I #
face $-1 $218 $219 $70 $-1 $220 forward single #
loop $-1 $221 $222 $88 #
cone-surface $-1 13.33487384620107 -17.37173667908263 6.4280131397253442 0 0.52991927123019833 -0.84804809178421925 0.5 0 0 1 I I 0 1 0.5 forward I I I I #
face $-1 $223 $224 $71 $-1 $225 forward single #
loop $-1 $226 $227 $89 #
cone-surface $-1 16.383047416591808 -17.37173667908263 6.4280131397253442 0 0.52991927123019833 -0.84804809178421925 0.5 0 0 1 I I 0 1 0.5 forward I I I I #
face $-1 $228 $229 $54 $-1 $230 reversed single #
loop $-1 $-1 $231 $90 #
plane-surface $-1 0 0 -12.837612681184025 0 0 1 1 0 0 forward_v I I I I #
coedge $-1 $232 $233 $234 $235 forward $91 $-1 #
face $-1 $236 $237 $55 $-1 $238 reversed single #
loop $-1 $-1 $239 $93 #
plane-surface $-1 -39.721733074430105 0 2.0358459422290576 0 0 1 1 0 0 forward_v I I I I #
coedge $-1 $240 $241 $242 $243 forward $94 $-1 #
face $-1 $244 $245 $56 $-1 $246 reversed single #
loop $-1 $-1 $247 $96 #
plane-surface $-1 3.1742952782319733 -18.944688714656888 29.710623960527982 0 0.52991927123019833 0.84804809178421925 1 0 0 forward_v I I I I #
coedge $-1 $248 $249 $250 $251 reversed $97 $-1 #
face $-1 $-1 $252 $57 $-1 $253 forward single #
loop $-1 $254 $255 $99 #
cone-surface $-1 0.12612170784124288 16.974297225659978 5.7919770708871798 0 -0.52991927123019833 -0.84804809178421925 0.25 0 0 1 I I -0.70710678118654746 0.70710678118654746 0.25 forward I I I I #
loop $-1 $-1 $256 $75 #
coedge $-1 $160 $160 $257 $258 reversed $100 $-1 #
face $-1 $-1 $259 $58 $-1 $260 forward single #
loop $-1 $261 $262 $102 #
cone-surface $-1 3.1742952782319733 16.974297225659978 5.7919770708871798 0 -0.52991927123019833 -0.84804809178421925 0.25 0 0 1 I I -0.70710678118654746 0.70710678118654746 0.25 forward I I I I #
loop $-1 $-1 $263 $76 #
coedge $-1 $165 $165 $264 $265 reversed $103 $-1 #
face $-1 $-1 $266 $59 $-1 $267 forward single #
loop $-1 $268 $269 $105 #
cone-surface $-1 6.2224688486227038 16.974297225659978 5.7919770708871798 0 -0.52991927123019833 -0.84804809178421925 0.25 0 0 1 I I -0.70710678118654746 0.70710678118654746 0.25 forward I I I I #
loop $-1 $-1 $270 $77 #
coedge $-1 $170 $170 $271 $272 reversed $106 $-1 #
face $-1 $273 $274 $60 $-1 $275 forward single #
loop $-1 $-1 $276 $108 #
plane-surface $-1 18.415163130185618 31.902461841983698 111.0830732057115 -1 0 0 0 0.52991927123019833 0.84804809178421925 forward_v I I I I #
coedge $-1 $277 $278 $279 $280 reversed $109 $-1 #
face $-1 $-1 $281 $61 $-1 $282 forward single #
loop $-1 $283 $284 $111 #
cone-surface $-1 10.28670027581034 16.974297225659978 5.7919770708871798 0 -0.52991927123019833 -0.84804809178421925 0.25 0 0 1 I I -0.70710678118654746 0.70710678118654746 0.25 forward I I I I #
loop $-1 $-1 $285 $79 #
coedge $-1 $179 $179 $286 $287 reversed $112 $-1 #
face $-1 $-1 $288 $62 $-1 $289 forward single #
loop $-1 $290 $291 $114 #
cone-surface $-1 13.33487384620107 16.974297225659978 5.7919770708871798 0 -0.52991927123019833 -0.84804809178421925 0.25 0 0 1 I I -0.70710678118654746 0.70710678118654746 0.25 forward I I I I #
loop $-1 $-1 $292 $80 #
coedge $-1 $184 $184 $293 $294 reversed $115 $-1 #
face $-1 $-1 $295 $63 $-1 $296 forward single #
loop $-1 $297 $298 $117 #
cone-surface $-1 16.383047416591808 16.974297225659978 5.7919770708871798 0 -0.52991927123019833 -0.84804809178421925 0.25 0 0 1 I I -0.70710678118654746 0.70710678118654746 0.25 forward I I I I #
loop $-1 $-1 $299 $81 #
coedge $-1 $189 $189 $300 $301 reversed $118 $-1 #
face $-1 $302 $303 $64 $-1 $304 reversed single #
loop $-1 $-1 $305 $120 #
plane-surface $-1 3.1742952782319733 -27.215619280570692 0.86646169005085483 0 -0.52991927123019833 0.84804809178421925 1 0 0 forward_v I I I I #
coedge $-1 $306 $307 $308 $309 reversed $121 $-1 #
face $-1 $-1 $310 $65 $-1 $311 forward single #
loop $-1 $312 $313 $123 #
cone-surface $-1 0.12612170784124288 -16.974297225659981 5.7919770708871798 0 0.52991927123019833 -0.84804809178421925 0.25 0 0 1 I I -0.70710678118654746 0.70710678118654746 0.25 forward I I I I #
loop $-1 $-1 $314 $83 #
coedge $-1 $198 $198 $315 $316 reversed $124 $-1 #
face $-1 $-1 $317 $66 $-1 $318 forward single #
loop $-1 $319 $320 $126 #
cone-surface $-1 3.1742952782319733 -16.974297225659981 5.7919770708871798 0 0.52991927123019833 -0.84804809178421925 0.25 0 0 1 I I -0.70710678118654746 0.70710678118654746 0.25 forward I I I I #
loop $-1 $-1 $321 $84 #
coedge $-1 $203 $203 $322 $323 reversed $127 $-1 #
face $-1 $-1 $324 $67 $-1 $325 forward single #
loop $-1 $326 $327 $129 #
cone-surface $-1 6.2224688486227038 -16.974297225659981 5.7919770708871798 0 0.52991927123019833 -0.84804809178421925 0.25 0 0 1 I I -0.70710678118654746 0.70710678118654746 0.25 forward I I I I #
loop $-1 $-1 $328 $85 #
coedge $-1 $208 $208 $329 $330 reversed $130 $-1 #
face $-1 $331 $332 $68 $-1 $333 reversed single #
loop $-1 $-1 $334 $132 #
plane-surface $-1 3.1742952782319733 -27.215619280570692 0.86646169005085483 0 -0.52991927123019833 0.84804809178421925 1 0 0 forward_v I I I I #
coedge $-1 $335 $336 $337 $338 reversed $133 $-1 #
face $-1 $-1 $339 $69 $-1 $340 forward single #
loop $-1 $341 $342 $135 #
cone-surface $-1 10.28670027581034 -16.974297225659981 5.7919770708871798 0 0.52991927123019833 -0.84804809178421925 0.25 0 0 1 I I -0.70710678118654746 0.70710678118654746 0.25 forward I I I I #
loop $-1 $-1 $343 $87 #
coedge $-1 $217 $217 $344 $345 reversed $136 $-1 #
face $-1 $-1 $346 $70 $-1 $347 forward single #
loop $-1 $348 $349 $138 #
cone-surface $-1 13.33487384620107 -16.974297225659981 5.7919770708871798 0 0.52991927123019833 -0.84804809178421925 0.25 0 0 1 I I -0.70710678118654746 0.70710678118654746 0.25 forward I I I I #
loop $-1 $-1 $350 $88 #
coedge $-1 $222 $222 $351 $352 reversed $139 $-1 #
face $-1 $-1 $353 $71 $-1 $354 forward single #
loop $-1 $355 $356 $141 #
cone-surface $-1 16.383047416591808 -16.974297225659981 5.7919770708871798 0 0.52991927123019833 -0.84804809178421925 0.25 0 0 1 I I -0.70710678118654746 0.70710678118654746 0.25 forward I I I I #
loop $-1 $-1 $357 $89 #
coedge $-1 $227 $227 $358 $359 reversed $142 $-1 #
face $-1 $360 $361 $54 $-1 $362 reversed single #
loop $-1 $-1 $363 $144 #
plane-surface $-1 0 -27.215619280570703 0 0 1 0 0 0 1 forward_v I I I I #
coedge $-1 $364 $365 $366 $367 forward $145 $-1 #
coedge $-1 $368 $147 $369 $370 forward $91 $-1 #
coedge $-1 $147 $368 $371 $372 forward $91 $-1 #
coedge $-1 $373 $374 $147 $235 reversed $375 $-1 #
edge $-1 $376 -27.215619280570703 $377 27.215619280570703 $234 $378 forward 7 unknown #
face $-1 $379 $380 $55 $-1 $381 reversed single #
loop $-1 $-1 $382 $148 #
plane-surface $-1 -31.467148512213583 0 3.5358459422290576 -1 0 0 0 0 1 forward_v I I I I #
coedge $-1 $383 $384 $385 $386 forward $149 $-1 #
coedge $-1 $387 $151 $388 $389 reversed $94 $-1 #
coedge $-1 $151 $387 $390 $391 reversed $94 $-1 #
coedge $-1 $382 $392 $151 $243 reversed $237 $-1 #
edge $-1 $393 -27.215619280570703 $394 27.215619280570703 $242 $395 forward 7 unknown #
face $-1 $396 $397 $56 $-1 $398 forward single #
loop $-1 $-1 $399 $152 #
plane-surface $-1 8.2545845622165217 31.902461841983698 111.0830732057115 -1 0 0 0 0.52991927123019833 0.84804809178421925 forward_v I I I I #
coedge $-1 $400 $401 $402 $403 reversed $153 $-1 #
coedge $-1 $249 $155 $404 $405 reversed $97 $-1 #
coedge $-1 $155 $248 $400 $406 reversed $97 $-1 #
coedge $-1 $402 $407 $155 $251 forward $397 $-1 #
edge $-1 $408 -11.264388359578854 $409 7.8934575721671312 $250 $410 forward 7 unknown #
loop $-1 $-1 $257 $156 #
plane-surface $-1 3.1742952782319733 -18.944688714656888 29.710623960527982 0 0.52991927123019833 0.84804809178421925 1 0 0 forward_v I I I I #
loop $-1 $-1 $411 $99 #
coedge $-1 $255 $255 $256 $412 reversed $157 $-1 #
coedge $-1 $256 $256 $255 $412 forward $159 $-1 #
coedge $-1 $257 $257 $160 $258 forward $252 $-1 #
edge $-1 $413 -1.6906078216001918e-015 $413 6.2831853071795987 $257 $414 forward 7 unknown #
loop $-1 $-1 $264 $161 #
plane-surface $-1 3.1742952782319733 -18.944688714656888 29.710623960527982 0 0.52991927123019833 0.84804809178421925 1 0 0 forward_v I I I I #
loop $-1 $-1 $415 $102 #
coedge $-1 $262 $262 $263 $416 reversed $162 $-1 #
coedge $-1 $263 $263 $262 $416 forward $164 $-1 #
coedge $-1 $264 $264 $165 $265 forward $259 $-1 #
edge $-1 $417 -1.6906078216001918e-015 $417 6.2831853071795987 $264 $418 forward 7 unknown #
loop $-1 $-1 $271 $166 #
plane-surface $-1 3.1742952782319733 -18.944688714656888 29.710623960527982 0 0.52991927123019833 0.84804809178421925 1 0 0 forward_v I I I I #
loop $-1 $-1 $419 $105 #
coedge $-1 $269 $269 $270 $420 reversed $167 $-1 #
coedge $-1 $270 $270 $269 $420 forward $169 $-1 #
coedge $-1 $271 $271 $170 $272 forward $266 $-1 #
edge $-1 $421 -1.6906078216001918e-015 $421 6.2831853071795987 $271 $422 forward 7 unknown #
face $-1 $423 $424 $60 $-1 $425 forward single #
loop $-1 $-1 $426 $171 #
plane-surface $-1 0 0 12.837612681184025 0 0 1 1 0 0 forward_v I I I I #
coedge $-1 $427 $428 $429 $430 reversed $172 $-1 #
coedge $-1 $431 $174 $432 $433 reversed $109 $-1 #
coedge $-1 $174 $431 $426 $434 reversed $109 $-1 #
coedge $-1 $435 $436 $174 $280 forward $424 $-1 #
edge $-1 $437 -54.431238561141427 $438 -31.840720267020213 $279 $439 forward 7 unknown #
loop $-1 $-1 $286 $175 #
plane-surface $-1 3.1742952782319733 -18.944688714656888 29.710623960527982 0 0.52991927123019833 0.84804809178421925 1 0 0 forward_v I I I I #
loop $-1 $-1 $440 $111 #
coedge $-1 $284 $284 $285 $441 reversed $176 $-1 #
coedge $-1 $285 $285 $284 $441 forward $178 $-1 #
coedge $-1 $286 $286 $179 $287 forward $281 $-1 #
edge $-1 $442 -1.6906078216001918e-015 $442 6.2831853071795987 $286 $443 forward 7 unknown #
loop $-1 $-1 $293 $180 #
plane-surface $-1 3.1742952782319733 -18.944688714656888 29.710623960527982 0 0.52991927123019833 0.84804809178421925 1 0 0 forward_v I I I I #
loop $-1 $-1 $444 $114 #
coedge $-1 $291 $291 $292 $445 reversed $181 $-1 #
coedge $-1 $292 $292 $291 $445 forward $183 $-1 #
coedge $-1 $293 $293 $184 $294 forward $288 $-1 #
edge $-1 $446 -1.6906078216001918e-015 $446 6.2831853071795987 $293 $447 forward 7 unknown #
loop $-1 $-1 $300 $185 #
plane-surface $-1 3.1742952782319733 -18.944688714656888 29.710623960527982 0 0.52991927123019833 0.84804809178421925 1 0 0 forward_v I I I I #
loop $-1 $-1 $448 $117 #
coedge $-1 $298 $298 $299 $449 reversed $186 $-1 #
coedge $-1 $299 $299 $298 $449 forward $188 $-1 #
coedge $-1 $300 $300 $189 $301 forward $295 $-1 #
edge $-1 $450 -1.6906078216001918e-015 $450 6.2831853071795987 $300 $451 forward 7 unknown #
face $-1 $452 $453 $64 $-1 $454 reversed single #
loop $-1 $-1 $455 $190 #
plane-surface $-1 -1.905994005752575 -78.062769837211277 82.238910935234372 1 0 0 0 0.52991927123019833 -0.84804809178421925 forward_v I I I I #
coedge $-1 $456 $457 $458 $459 reversed $191 $-1 #
coedge $-1 $307 $193 $460 $461 reversed $121 $-1 #
coedge $-1 $193 $306 $456 $462 reversed $121 $-1 #
coedge $-1 $458 $463 $193 $309 forward $464 $-1 #
edge $-1 $465 11.815765638034936 $466 30.973611569780925 $308 $467 forward 7 unknown #
loop $-1 $-1 $315 $194 #
plane-surface $-1 3.1742952782319733 -27.215619280570692 0.86646169005085483 0 -0.52991927123019833 0.84804809178421925 1 0 0 forward_v I I I I #
loop $-1 $-1 $468 $123 #
coedge $-1 $313 $313 $314 $469 reversed $195 $-1 #
coedge $-1 $314 $314 $313 $469 forward $197 $-1 #
coedge $-1 $315 $315 $198 $316 forward $310 $-1 #
edge $-1 $470 3.7149231857407147e-016 $470 6.2831853071796004 $315 $471 forward 7 unknown #
loop $-1 $-1 $322 $199 #
plane-surface $-1 3.1742952782319733 -27.215619280570692 0.86646169005085483 0 -0.52991927123019833 0.84804809178421925 1 0 0 forward_v I I I I #
loop $-1 $-1 $472 $126 #
coedge $-1 $320 $320 $321 $473 reversed $200 $-1 #
coedge $-1 $321 $321 $320 $473 forward $202 $-1 #
coedge $-1 $322 $322 $203 $323 forward $317 $-1 #
edge $-1 $474 3.7149231857407147e-016 $474 6.2831853071796004 $322 $475 forward 7 unknown #
loop $-1 $-1 $329 $204 #
plane-surface $-1 3.1742952782319733 -27.215619280570692 0.86646169005085483 0 -0.52991927123019833 0.84804809178421925 1 0 0 forward_v I I I I #
loop $-1 $-1 $476 $129 #
coedge $-1 $327 $327 $328 $477 reversed $205 $-1 #
coedge $-1 $328 $328 $327 $477 forward $207 $-1 #
coedge $-1 $329 $329 $208 $330 forward $324 $-1 #
edge $-1 $478 3.7149231857407147e-016 $478 6.2831853071796004 $329 $479 forward 7 unknown #
face $-1 $480 $481 $68 $-1 $482 forward single #
loop $-1 $-1 $483 $209 #
plane-surface $-1 0 -27.215619280570703 0 0 1 0 0 0 1 forward_v I I I I #
coedge $-1 $484 $485 $486 $487 reversed $210 $-1 #
coedge $-1 $336 $212 $488 $489 reversed $133 $-1 #
coedge $-1 $212 $335 $490 $491 reversed $133 $-1 #
coedge $-1 $492 $483 $212 $338 forward $332 $-1 #
edge $-1 $493 -40.252993777566338 $494 -28.28184278643316 $337 $495 forward 7 unknown #
loop $-1 $-1 $344 $213 #
plane-surface $-1 3.1742952782319733 -27.215619280570692 0.86646169005085483 0 -0.52991927123019833 0.84804809178421925 1 0 0 forward_v I I I I #
loop $-1 $-1 $496 $135 #
coedge $-1 $342 $342 $343 $497 reversed $214 $-1 #
coedge $-1 $343 $343 $342 $497 forward $216 $-1 #
coedge $-1 $344 $344 $217 $345 forward $339 $-1 #
edge $-1 $498 3.7149231857407147e-016 $498 6.2831853071796004 $344 $499 forward 7 unknown #
loop $-1 $-1 $351 $218 #
plane-surface $-1 3.1742952782319733 -27.215619280570692 0.86646169005085483 0 -0.52991927123019833 0.84804809178421925 1 0 0 forward_v I I I I #
loop $-1 $-1 $500 $138 #
coedge $-1 $349 $349 $350 $501 reversed $219 $-1 #
coedge $-1 $350 $350 $349 $501 forward $221 $-1 #
coedge $-1 $351 $351 $222 $352 forward $346 $-1 #
edge $-1 $502 3.7149231857407147e-016 $502 6.2831853071796004 $351 $503 forward 7 unknown #
loop $-1 $-1 $358 $223 #
plane-surface $-1 3.1742952782319733 -27.215619280570692 0.86646169005085483 0 -0.52991927123019833 0.84804809178421925 1 0 0 forward_v I I I I #
loop $-1 $-1 $504 $141 #
coedge $-1 $356 $356 $357 $505 reversed $224 $-1 #
coedge $-1 $357 $357 $356 $505 forward $226 $-1 #
coedge $-1 $358 $358 $227 $359 forward $353 $-1 #
edge $-1 $506 3.7149231857407147e-016 $506 6.2831853071796004 $358 $507 forward 7 unknown #
face $-1 $508 $509 $54 $-1 $510 reversed single #
loop $-1 $-1 $511 $228 #
plane-surface $-1 -47.976317636646627 0 0 1 0 0 0 0 -1 forward_v I I I I #
coedge $-1 $512 $371 $513 $514 forward $229 $-1 #
coedge $-1 $515 $231 $512 $516 forward $145 $-1 #
coedge $-1 $231 $515 $517 $518 forward $145 $-1 #
coedge $-1 $374 $373 $231 $367 reversed $375 $-1 #
edge $-1 $519 -27.215619280570703 $520 27.215619280570703 $366 $521 forward 7 unknown #
coedge $-1 $233 $232 $522 $523 forward $91 $-1 #
coedge $-1 $524 $525 $232 $370 reversed $509 $-1 #
edge $-1 $377 -47.976317636646627 $526 47.976317636646627 $369 $527 forward 7 unknown #
coedge $-1 $363 $528 $233 $372 reversed $229 $-1 #
edge $-1 $529 -47.976317636646627 $376 47.976317636646627 $371 $530 forward 7 unknown #
coedge $-1 $366 $234 $528 $531 forward $375 $-1 #
coedge $-1 $234 $366 $524 $532 reversed $375 $-1 #
loop $-1 $-1 $373 $508 #
vertex $-1 $235 $533 #
vertex $-1 $235 $534 #
straight-curve $-1 47.976317636646627 0 12.837612681184025 0 1 0 I I #
face $-1 $535 $536 $55 $-1 $537 reversed single #
loop $-1 $-1 $538 $236 #
plane-surface $-1 0 -27.215619280570703 0 0 1 0 0 0 1 forward_v I I I I #
coedge $-1 $385 $242 $539 $540 reversed $237 $-1 #
coedge $-1 $541 $239 $538 $542 reversed $149 $-1 #
coedge $-1 $239 $541 $543 $544 reversed $149 $-1 #
coedge $-1 $392 $382 $239 $386 reversed $237 $-1 #
edge $-1 $545 -27.215619280570703 $546 27.215619280570703 $385 $547 forward 7 unknown #
coedge $-1 $241 $240 $548 $549 reversed $94 $-1 #
coedge $-1 $550 $551 $240 $389 forward $552 $-1 #
edge $-1 $553 -28.115451099431574 $394 -11.606281974998531 $388 $554 forward 7 unknown #
coedge $-1 $555 $539 $241 $391 forward $380 $-1 #
edge $-1 $393 11.606281974998531 $556 28.115451099431574 $390 $557 forward 7 unknown #
coedge $-1 $242 $385 $550 $558 reversed $237 $-1 #
vertex $-1 $391 $559 #
vertex $-1 $389 $560 #
straight-curve $-1 -31.467148512213583 0 5.0358459422290576 0 1 0 I I #
face $-1 $-1 $561 $56 $-1 $562 reversed single #
loop $-1 $-1 $250 $244 #
plane-surface $-1 0 0 12.837612681184025 0 0 1 1 0 0 forward_v I I I I #
coedge $-1 $563 $564 $565 $566 reversed $245 $-1 #
coedge $-1 $567 $247 $249 $406 forward $153 $-1 #
coedge $-1 $247 $567 $563 $568 forward $153 $-1 #
coedge $-1 $565 $250 $247 $403 forward $397 $-1 #
edge $-1 $409 -3.4931416448685617 $569 6.667436923100535 $402 $570 forward 7 unknown #
coedge $-1 $571 $572 $248 $405 forward $561 $-1 #
edge $-1 $573 -54.675074912804902 $408 -42.703923921671723 $404 $574 forward 7 unknown #
edge $-1 $409 31.840720267020213 $573 54.431238561141427 $249 $575 forward 7 unknown #
coedge $-1 $250 $565 $571 $576 forward $397 $-1 #
vertex $-1 $405 $577 #
vertex $-1 $251 $578 #
straight-curve $-1 -1.905994005752575 15.951230920991849 12.837612681184027 0 -1 0 I I #
coedge $-1 $411 $411 $-1 $579 reversed $254 $-1 #
edge $-1 $580 0 $580 6.2831853071796004 $255 $581 forward 7 unknown #
vertex $-1 $258 $582 #
ellipse-curve $-1 0.12612170784124288 17.636696314697716 6.8520371856174354 0 0.52991927123019833 0.84804809178421925 0.5 0 0 1 I I #
coedge $-1 $415 $415 $-1 $583 reversed $261 $-1 #
edge $-1 $584 0 $584 6.2831853071796004 $262 $585 forward 7 unknown #
vertex $-1 $265 $586 #
ellipse-curve $-1 3.1742952782319733 17.636696314697716 6.8520371856174354 0 0.52991927123019833 0.84804809178421925 0.5 0 0 1 I I #
coedge $-1 $419 $419 $-1 $587 reversed $268 $-1 #
edge $-1 $588 0 $588 6.2831853071796004 $269 $589 forward 7 unknown #
vertex $-1 $272 $590 #
ellipse-curve $-1 6.2224688486227038 17.636696314697716 6.8520371856174354 0 0.52991927123019833 0.84804809178421925 0.5 0 0 1 I I #
face $-1 $-1 $591 $60 $-1 $592 reversed single #
loop $-1 $-1 $435 $273 #
plane-surface $-1 8.2545845622165217 31.902461841983698 111.0830732057115 -1 0 0 0 0.52991927123019833 0.84804809178421925 forward_v I I I I #
coedge $-1 $429 $593 $278 $434 forward $274 $-1 #
coedge $-1 $428 $276 $431 $594 reversed $172 $-1 #
coedge $-1 $276 $427 $595 $596 reversed $172 $-1 #
coedge $-1 $597 $426 $276 $430 forward $274 $-1 #
edge $-1 $598 -7.8934575721671312 $599 11.264388359578854 $429 $600 forward 7 unknown #
coedge $-1 $278 $277 $427 $594 forward $109 $-1 #
coedge $-1 $601 $595 $277 $433 forward $591 $-1 #
edge $-1 $602 -16.828015491069632 $437 -6.667436923100535 $432 $603 forward 7 unknown #
edge $-1 $438 6.667436923100535 $598 16.828015491069632 $426 $604 forward 7 unknown #
coedge $-1 $436 $279 $593 $605 reversed $424 $-1 #
coedge $-1 $279 $435 $601 $606 reversed $424 $-1 #
vertex $-1 $433 $607 #
vertex $-1 $434 $608 #
straight-curve $-1 8.2545845622165217 -18.944688714656888 29.710623960527982 0 -0.84804809178421925 0.52991927123019833 I I #
coedge $-1 $440 $440 $-1 $609 reversed $283 $-1 #
edge $-1 $610 0 $610 6.2831853071796004 $284 $611 forward 7 unknown #
vertex $-1 $287 $612 #
ellipse-curve $-1 10.28670027581034 17.636696314697716 6.8520371856174354 0 0.52991927123019833 0.84804809178421925 0.5 0 0 1 I I #
coedge $-1 $444 $444 $-1 $613 reversed $290 $-1 #
edge $-1 $614 0 $614 6.2831853071796004 $291 $615 forward 7 unknown #
vertex $-1 $294 $616 #
ellipse-curve $-1 13.33487384620107 17.636696314697716 6.8520371856174354 0 0.52991927123019833 0.84804809178421925 0.5 0 0 1 I I #
coedge $-1 $448 $448 $-1 $617 reversed $297 $-1 #
edge $-1 $618 0 $618 6.2831853071796004 $298 $619 forward 7 unknown #
vertex $-1 $301 $620 #
ellipse-curve $-1 16.383047416591808 17.636696314697716 6.8520371856174354 0 0.52991927123019833 0.84804809178421925 0.5 0 0 1 I I #
face $-1 $-1 $464 $64 $-1 $621 forward single #
loop $-1 $-1 $622 $302 #
plane-surface $-1 0 -27.215619280570703 0 0 1 0 0 0 1 forward_v I I I I #
coedge $-1 $623 $624 $625 $626 reversed $303 $-1 #
coedge $-1 $627 $305 $307 $462 forward $191 $-1 #
coedge $-1 $305 $627 $623 $628 forward $191 $-1 #
coedge $-1 $625 $308 $305 $459 forward $464 $-1 #
edge $-1 $466 -6.667436923100535 $629 3.4931416448685617 $458 $630 forward 7 unknown #
coedge $-1 $631 $632 $306 $461 forward $453 $-1 #
edge $-1 $633 -40.252993777566338 $465 -28.28184278643316 $460 $634 forward 7 unknown #
edge $-1 $466 -22.5905182941212 $633 1.2568587624561472e-014 $307 $635 forward 7 unknown #
coedge $-1 $308 $625 $631 $636 forward $464 $-1 #
loop $-1 $-1 $625 $452 #
vertex $-1 $461 $637 #
vertex $-1 $309 $638 #
straight-curve $-1 8.2545845622165217 -39.031384918605639 12.837612681184027 0 1 0 I I #
coedge $-1 $468 $468 $-1 $639 reversed $312 $-1 #
edge $-1 $640 0 $640 6.2831853071796004 $313 $641 forward 7 unknown #
vertex $-1 $316 $642 #
ellipse-curve $-1 0.12612170784124288 -17.636696314697716 6.8520371856174309 0 -0.52991927123019833 0.84804809178421925 0.5 0 0 1 I I #
coedge $-1 $472 $472 $-1 $643 reversed $319 $-1 #
edge $-1 $644 0 $644 6.2831853071796004 $320 $645 forward 7 unknown #
vertex $-1 $323 $646 #
ellipse-curve $-1 3.1742952782319733 -17.636696314697716 6.8520371856174309 0 -0.52991927123019833 0.84804809178421925 0.5 0 0 1 I I #
coedge $-1 $476 $476 $-1 $647 reversed $326 $-1 #
edge $-1 $648 0 $648 6.2831853071796004 $327 $649 forward 7 unknown #
vertex $-1 $330 $650 #
ellipse-curve $-1 6.2224688486227038 -17.636696314697716 6.8520371856174309 0 -0.52991927123019833 0.84804809178421925 0.5 0 0 1 I I #
face $-1 $-1 $651 $68 $-1 $652 forward single #
loop $-1 $-1 $653 $331 #
plane-surface $-1 8.2545845622165217 -78.062769837211277 82.238910935234372 -1 0 0 0 -0.52991927123019833 0.84804809178421925 forward_v I I I I #
coedge $-1 $337 $654 $485 $655 forward $332 $-1 #
coedge $-1 $488 $334 $656 $657 reversed $210 $-1 #
coedge $-1 $334 $488 $483 $655 reversed $210 $-1 #
coedge $-1 $658 $653 $334 $487 forward $481 $-1 #
edge $-1 $659 -22.5905182941212 $660 1.2568587624561472e-014 $486 $661 forward 7 unknown #
coedge $-1 $485 $484 $335 $489 forward $210 $-1 #
edge $-1 $662 -22.5905182941212 $493 1.2568587624561472e-014 $335 $663 forward 7 unknown #
coedge $-1 $656 $664 $336 $491 forward $651 $-1 #
edge $-1 $494 11.815765638034936 $662 30.973611569780925 $490 $665 forward 7 unknown #
coedge $-1 $654 $337 $664 $666 reversed $332 $-1 #
vertex $-1 $338 $667 #
vertex $-1 $338 $668 #
straight-curve $-1 18.415163130185618 -27.215619280570703 41.119455467617186 0 0 1 I I #
coedge $-1 $496 $496 $-1 $669 reversed $341 $-1 #
edge $-1 $670 0 $670 6.2831853071796004 $342 $671 forward 7 unknown #
vertex $-1 $345 $672 #
ellipse-curve $-1 10.28670027581034 -17.636696314697716 6.8520371856174309 0 -0.52991927123019833 0.84804809178421925 0.5 0 0 1 I I #
coedge $-1 $500 $500 $-1 $673 reversed $348 $-1 #
edge $-1 $674 0 $674 6.2831853071796004 $349 $675 forward 7 unknown #
vertex $-1 $352 $676 #
ellipse-curve $-1 13.33487384620107 -17.636696314697716 6.8520371856174309 0 -0.52991927123019833 0.84804809178421925 0.5 0 0 1 I I #
coedge $-1 $504 $504 $-1 $677 reversed $355 $-1 #
edge $-1 $678 0 $678 6.2831853071796004 $356 $679 forward 7 unknown #
vertex $-1 $359 $680 #
ellipse-curve $-1 16.383047416591808 -17.636696314697716 6.8520371856174309 0 -0.52991927123019833 0.84804809178421925 0.5 0 0 1 I I #
face $-1 $-1 $375 $54 $-1 $681 reversed single #
loop $-1 $-1 $524 $360 #
plane-surface $-1 0 27.215619280570703 0 0 -1 0 0 0 -1 forward_v I I I I #
coedge $-1 $682 $522 $525 $683 forward $361 $-1 #
coedge $-1 $528 $363 $364 $516 reversed $229 $-1 #
coedge $-1 $522 $682 $363 $514 reversed $361 $-1 #
edge $-1 $529 -12.837612681184025 $684 12.837612681184025 $513 $685 forward 7 unknown #
coedge $-1 $365 $364 $682 $686 forward $145 $-1 #
edge $-1 $520 -47.976317636646627 $684 47.976317636646627 $512 $687 forward 7 unknown #
coedge $-1 $525 $524 $365 $518 reversed $509 $-1 #
edge $-1 $688 -47.976317636646627 $519 47.976317636646627 $517 $689 forward 7 unknown #
vertex $-1 $367 $690 #
vertex $-1 $531 $691 #
straight-curve $-1 47.976317636646627 0 -12.837612681184025 0 -1 0 I I #
coedge $-1 $511 $513 $368 $523 reversed $361 $-1 #
edge $-1 $526 -27.215619280570703 $529 27.215619280570703 $522 $692 forward 7 unknown #
coedge $-1 $517 $369 $374 $532 forward $509 $-1 #
coedge $-1 $369 $517 $511 $683 reversed $509 $-1 #
vertex $-1 $370 $693 #
straight-curve $-1 0 27.215619280570703 12.837612681184025 -1 0 0 I I #
coedge $-1 $371 $512 $373 $531 reversed $229 $-1 #
vertex $-1 $523 $694 #
straight-curve $-1 0 -27.215619280570703 12.837612681184025 1 0 0 I I #
edge $-1 $376 -12.837612681184025 $520 12.837612681184025 $373 $695 forward 7 unknown #
edge $-1 $377 -12.837612681184025 $519 12.837612681184025 $374 $696 forward 7 unknown #
point $-1 47.976317636646627 -27.215619280570703 12.837612681184025 #
point $-1 47.976317636646627 27.215619280570703 12.837612681184025 #
face $-1 $-1 $552 $55 $-1 $697 reversed single #
loop $-1 $-1 $698 $379 #
plane-surface $-1 -47.976317636646627 0 0 1 0 0 0 0 -1 forward_v I I I I #
coedge $-1 $539 $555 $383 $542 forward $380 $-1 #
coedge $-1 $390 $538 $382 $540 forward $380 $-1 #
edge $-1 $546 0.26792297111452879 $393 3.2679229711145288 $539 $699 forward 7 unknown #
coedge $-1 $384 $383 $698 $700 reversed $149 $-1 #
edge $-1 $701 -28.115451099431574 $546 -11.606281974998531 $538 $702 forward 7 unknown #
coedge $-1 $551 $550 $384 $544 forward $552 $-1 #
edge $-1 $545 11.606281974998531 $703 28.115451099431574 $543 $704 forward 7 unknown #
vertex $-1 $544 $705 #
vertex $-1 $542 $706 #
straight-curve $-1 -31.467148512213583 0 2.0358459422290576 0 -1 0 I I #
coedge $-1 $707 $708 $387 $549 forward $536 $-1 #
edge $-1 $556 -27.215619280570703 $553 27.215619280570703 $548 $709 forward 7 unknown #
coedge $-1 $543 $388 $392 $558 forward $552 $-1 #
coedge $-1 $388 $543 $707 $710 reversed $552 $-1 #
loop $-1 $-1 $543 $535 #
vertex $-1 $710 $711 #
straight-curve $-1 -19.860866537215053 27.215619280570703 5.0358459422290576 1 0 0 I I #
coedge $-1 $538 $390 $708 $712 forward $380 $-1 #
vertex $-1 $712 $713 #
straight-curve $-1 -19.860866537215053 -27.215619280570703 5.0358459422290576 -1 0 0 I I #
edge $-1 $394 -3.2679229711145288 $545 -0.26792297111452879 $550 $714 forward 7 unknown #
point $-1 -31.467148512213583 -27.215619280570703 5.0358459422290576 #
point $-1 -31.467148512213583 27.215619280570703 5.0358459422290576 #
loop $-1 $-1 $404 $396 #
plane-surface $-1 0 27.215619280570703 0 0 -1 0 0 0 -1 forward_v I I I I #
coedge $-1 $564 $399 $401 $568 reversed $245 $-1 #
coedge $-1 $399 $563 $715 $716 reversed $245 $-1 #
coedge $-1 $407 $402 $399 $566 forward $397 $-1 #
edge $-1 $569 -7.8934575721671312 $717 11.264388359578854 $565 $718 forward 7 unknown #
coedge $-1 $401 $400 $572 $719 reversed $153 $-1 #
edge $-1 $720 -54.431238561141427 $569 -31.840720267020213 $563 $721 forward 7 unknown #
vertex $-1 $403 $722 #
straight-curve $-1 1.5871476391159867 8.0577733488247247 12.837612681184023 1 0 0 I I #
coedge $-1 $715 $404 $407 $576 reversed $561 $-1 #
coedge $-1 $404 $715 $567 $719 forward $561 $-1 #
vertex $-1 $405 $723 #
straight-curve $-1 -1.905994005752575 27.215619280570703 55.54153660285575 0 0 1 I I #
straight-curve $-1 -1.905994005752575 -18.944688714656888 29.710623960527982 0 0.84804809178421925 -0.52991927123019833 I I #
edge $-1 $717 -8.2545845622165217 $408 1.905994005752575 $571 $724 forward 7 unknown #
point $-1 -1.905994005752575 27.215619280570703 12.837612681184025 #
point $-1 -1.905994005752575 8.0577733488247176 12.837612681184027 #
edge $-1 $725 1 $725 0 $411 $-1 forward 7 unknown #
vertex $-1 $412 $726 #
ellipse-curve $-1 0.12612170784124288 17.106777043467527 6.0039890938332343 0 0.52991927123019833 0.84804809178421925 0.5 0 0 1 I I #
point $-1 0.62612170784124288 17.636696314697726 6.852037185617454 #
edge $-1 $727 1 $727 0 $415 $-1 forward 7 unknown #
vertex $-1 $416 $728 #
ellipse-curve $-1 3.1742952782319733 17.106777043467527 6.0039890938332343 0 0.52991927123019833 0.84804809178421925 0.5 0 0 1 I I #
point $-1 3.6742952782319733 17.636696314697726 6.852037185617454 #
edge $-1 $729 1 $729 0 $419 $-1 forward 7 unknown #
vertex $-1 $420 $730 #
ellipse-curve $-1 6.2224688486227038 17.106777043467527 6.0039890938332343 0 0.52991927123019833 0.84804809178421925 0.5 0 0 1 I I #
point $-1 6.7224688486227038 17.636696314697726 6.852037185617454 #
loop $-1 $-1 $432 $423 #
plane-surface $-1 0 27.215619280570703 0 0 -1 0 0 0 -1 forward_v I I I I #
coedge $-1 $426 $597 $435 $605 forward $274 $-1 #
edge $-1 $602 -54.431238561141427 $598 -31.840720267020213 $427 $731 forward 7 unknown #
coedge $-1 $432 $732 $428 $596 forward $591 $-1 #
edge $-1 $599 42.703923921671723 $602 54.675074912804902 $595 $733 forward 7 unknown #
coedge $-1 $593 $429 $732 $734 forward $274 $-1 #
vertex $-1 $430 $735 #
vertex $-1 $734 $736 #
straight-curve $-1 18.415163130185618 15.951230920991849 12.837612681184027 0 1 0 I I #
coedge $-1 $732 $432 $436 $606 forward $591 $-1 #
vertex $-1 $596 $737 #
straight-curve $-1 1.5871476391159867 27.215619280570706 0.86646169005085305 -1 0 0 I I #
straight-curve $-1 1.5871476391159867 8.0577733488247247 12.837612681184023 1 0 0 I I #
edge $-1 $738 -11.264388359578854 $438 7.8934575721671312 $593 $739 forward 7 unknown #
edge $-1 $437 -54.675074912804902 $738 -42.703923921671723 $601 $740 forward 7 unknown #
point $-1 8.2545845622165217 27.215619280570703 0.86646169005085127 #
point $-1 8.2545845622165217 8.0577733488247176 12.837612681184027 #
edge $-1 $741 1 $741 0 $440 $-1 forward 7 unknown #
vertex $-1 $441 $742 #
ellipse-curve $-1 10.28670027581034 17.106777043467527 6.0039890938332343 0 0.52991927123019833 0.84804809178421925 0.5 0 0 1 I I #
point $-1 10.78670027581034 17.636696314697726 6.852037185617454 #
edge $-1 $743 1 $743 0 $444 $-1 forward 7 unknown #
vertex $-1 $445 $744 #
ellipse-curve $-1 13.33487384620107 17.106777043467527 6.0039890938332343 0 0.52991927123019833 0.84804809178421925 0.5 0 0 1 I I #
point $-1 13.83487384620107 17.636696314697726 6.852037185617454 #
edge $-1 $745 1 $745 0 $448 $-1 forward 7 unknown #
vertex $-1 $449 $746 #
ellipse-curve $-1 16.383047416591808 17.106777043467527 6.0039890938332343 0 0.52991927123019833 0.84804809178421925 0.5 0 0 1 I I #
point $-1 16.883047416591808 17.636696314697726 6.852037185617454 #
plane-surface $-1 0 0 12.837612681184025 0 0 1 1 0 0 forward_v I I I I #
coedge $-1 $632 $631 $624 $747 forward $453 $-1 #
coedge $-1 $624 $455 $457 $628 reversed $303 $-1 #
coedge $-1 $455 $623 $622 $747 reversed $303 $-1 #
coedge $-1 $463 $458 $455 $626 forward $464 $-1 #
edge $-1 $629 -30.973611569780925 $748 -11.815765638034936 $625 $749 forward 7 unknown #
coedge $-1 $457 $456 $632 $750 reversed $191 $-1 #
edge $-1 $751 -1.2568587624561472e-014 $629 22.5905182941212 $623 $752 forward 7 unknown #
vertex $-1 $459 $753 #
straight-curve $-1 1.5871476391159867 -8.0577733488247105 12.837612681184025 -1 0 0 I I #
coedge $-1 $622 $460 $463 $636 reversed $453 $-1 #
coedge $-1 $460 $622 $627 $750 forward $453 $-1 #
vertex $-1 $461 $754 #
straight-curve $-1 8.2545845622165217 -27.215619280570703 41.119455467617186 0 0 1 I I #
straight-curve $-1 8.2545845622165217 -27.215619280570692 0.86646169005085483 0 -0.84804809178421925 -0.52991927123019833 I I #
edge $-1 $748 -1.905994005752575 $465 8.2545845622165217 $631 $755 forward 7 unknown #
point $-1 8.2545845622165217 -27.215619280570703 12.837612681184025 #
point $-1 8.2545845622165217 -8.0577733488247141 12.837612681184025 #
edge $-1 $756 1 $756 0 $468 $-1 forward 7 unknown #
vertex $-1 $469 $757 #
ellipse-curve $-1 0.12612170784124288 -17.106777043467531 6.0039890938332343 0 -0.52991927123019833 0.84804809178421925 0.5 0 0 1 I I #
point $-1 0.62612170784124288 -17.63669631469773 6.852037185617454 #
edge $-1 $758 1 $758 0 $472 $-1 forward 7 unknown #
vertex $-1 $473 $759 #
ellipse-curve $-1 3.1742952782319733 -17.106777043467531 6.0039890938332343 0 -0.52991927123019833 0.84804809178421925 0.5 0 0 1 I I #
point $-1 3.6742952782319733 -17.63669631469773 6.852037185617454 #
edge $-1 $760 1 $760 0 $476 $-1 forward 7 unknown #
vertex $-1 $477 $761 #
ellipse-curve $-1 6.2224688486227038 -17.106777043467531 6.0039890938332343 0 -0.52991927123019833 0.84804809178421925 0.5 0 0 1 I I #
point $-1 6.7224688486227038 -17.63669631469773 6.852037185617454 #
loop $-1 $-1 $656 $480 #
plane-surface $-1 0 0 12.837612681184025 0 0 1 1 0 0 forward_v I I I I #
coedge $-1 $486 $658 $762 $763 reversed $481 $-1 #
coedge $-1 $483 $492 $658 $764 forward $332 $-1 #
edge $-1 $660 6.667436923100535 $493 16.828015491069632 $483 $765 forward 7 unknown #
coedge $-1 $762 $490 $484 $657 forward $651 $-1 #
edge $-1 $662 -16.828015491069632 $659 -6.667436923100535 $656 $766 forward 7 unknown #
coedge $-1 $653 $486 $654 $764 reversed $481 $-1 #
vertex $-1 $657 $767 #
vertex $-1 $655 $768 #
straight-curve $-1 8.2545845622165217 -27.215619280570692 0.86646169005085483 0 -0.84804809178421925 -0.52991927123019833 I I #
vertex $-1 $491 $769 #
straight-curve $-1 18.415163130185618 -27.215619280570692 0.86646169005085483 0 -0.84804809178421925 -0.52991927123019833 I I #
coedge $-1 $490 $762 $492 $666 forward $651 $-1 #
straight-curve $-1 18.415163130185618 -39.031384918605639 12.837612681184027 0 1 0 I I #
edge $-1 $770 8.2545845622165217 $494 18.415163130185618 $492 $771 forward 7 unknown #
point $-1 18.415163130185618 -27.215619280570703 0.86646169005084817 #
point $-1 18.415163130185618 -27.215619280570703 12.837612681184025 #
edge $-1 $772 1 $772 0 $496 $-1 forward 7 unknown #
vertex $-1 $497 $773 #
ellipse-curve $-1 10.28670027581034 -17.106777043467531 6.0039890938332343 0 -0.52991927123019833 0.84804809178421925 0.5 0 0 1 I I #
point $-1 10.78670027581034 -17.63669631469773 6.852037185617454 #
edge $-1 $774 1 $774 0 $500 $-1 forward 7 unknown #
vertex $-1 $501 $775 #
ellipse-curve $-1 13.33487384620107 -17.106777043467531 6.0039890938332343 0 -0.52991927123019833 0.84804809178421925 0.5 0 0 1 I I #
point $-1 13.83487384620107 -17.63669631469773 6.852037185617454 #
edge $-1 $776 1 $776 0 $504 $-1 forward 7 unknown #
vertex $-1 $505 $777 #
ellipse-curve $-1 16.383047416591808 -17.106777043467531 6.0039890938332343 0 -0.52991927123019833 0.84804809178421925 0.5 0 0 1 I I #
point $-1 16.883047416591808 -17.63669631469773 6.852037185617454 #
plane-surface $-1 47.976317636646627 0 0 -1 0 0 0 0 1 forward_v I I I I #
coedge $-1 $513 $511 $515 $686 reversed $361 $-1 #
edge $-1 $526 -12.837612681184025 $688 12.837612681184025 $525 $778 forward 7 unknown #
vertex $-1 $686 $779 #
straight-curve $-1 -47.976317636646627 -27.215619280570703 0 0 0 -1 I I #
edge $-1 $684 -27.215619280570703 $688 27.215619280570703 $682 $780 forward 7 unknown #
straight-curve $-1 0 -27.215619280570703 -12.837612681184025 -1 0 0 I I #
vertex $-1 $518 $781 #
straight-curve $-1 0 27.215619280570703 -12.837612681184025 1 0 0 I I #
point $-1 47.976317636646627 27.215619280570703 -12.837612681184025 #
point $-1 47.976317636646627 -27.215619280570703 -12.837612681184025 #
straight-curve $-1 -47.976317636646627 0 12.837612681184025 0 -1 0 I I #
point $-1 -47.976317636646627 27.215619280570703 12.837612681184025 #
point $-1 -47.976317636646627 -27.215619280570703 12.837612681184025 #
straight-curve $-1 47.976317636646627 -27.215619280570703 0 0 0 -1 I I #
straight-curve $-1 47.976317636646627 27.215619280570703 0 0 0 -1 I I #
plane-surface $-1 0 27.215619280570703 0 0 -1 0 0 0 -1 forward_v I I I I #
coedge $-1 $708 $707 $541 $700 forward $536 $-1 #
straight-curve $-1 -31.467148512213583 -27.215619280570703 1.7679229711145288 0 0 1 I I #
edge $-1 $703 -27.215619280570703 $701 27.215619280570703 $698 $782 forward 7 unknown #
vertex $-1 $542 $783 #
straight-curve $-1 -19.860866537215053 -27.215619280570703 2.0358459422290576 1 0 0 I I #
vertex $-1 $544 $784 #
straight-curve $-1 -19.860866537215053 27.215619280570703 2.0358459422290576 -1 0 0 I I #
point $-1 -31.467148512213583 27.215619280570703 2.0358459422290576 #
point $-1 -31.467148512213583 -27.215619280570703 2.0358459422290576 #
coedge $-1 $698 $548 $551 $710 forward $536 $-1 #
coedge $-1 $548 $698 $555 $712 reversed $536 $-1 #
straight-curve $-1 -47.976317636646627 0 5.0358459422290576 0 1 0 I I #
edge $-1 $553 -5.0358459422290576 $703 -2.0358459422290576 $551 $785 forward 7 unknown #
point $-1 -47.976317636646627 27.215619280570703 5.0358459422290576 #
edge $-1 $556 -5.0358459422290576 $701 -2.0358459422290576 $708 $786 forward 7 unknown #
point $-1 -47.976317636646627 -27.215619280570703 5.0358459422290576 #
straight-curve $-1 -31.467148512213583 27.215619280570703 1.7679229711145288 0 0 -1 I I #
coedge $-1 $572 $571 $564 $716 forward $561 $-1 #
edge $-1 $717 42.703923921671723 $720 54.675074912804902 $715 $787 forward 7 unknown #
vertex $-1 $576 $788 #
straight-curve $-1 8.2545845622165217 15.951230920991849 12.837612681184027 0 1 0 I I #
edge $-1 $720 -6.667436923100535 $573 3.4931416448685617 $572 $789 forward 7 unknown #
vertex $-1 $719 $790 #
straight-curve $-1 8.2545845622165217 -18.944688714656888 29.710623960527982 0 -0.84804809178421925 0.52991927123019833 I I #
point $-1 8.2545845622165217 8.0577733488247176 12.837612681184027 #
point $-1 -1.905994005752575 27.215619280570703 0.86646169005085127 #
straight-curve $-1 0 27.215619280570703 12.837612681184025 -1 0 0 I I #
vertex $-1 $579 $791 #
point $-1 0.62612170784124288 17.106777043467527 6.0039890938332343 #
vertex $-1 $583 $792 #
point $-1 3.6742952782319733 17.106777043467527 6.0039890938332343 #
vertex $-1 $587 $793 #
point $-1 6.7224688486227038 17.106777043467527 6.0039890938332343 #
straight-curve $-1 18.415163130185618 -18.944688714656888 29.710623960527982 0 -0.84804809178421925 0.52991927123019833 I I #
coedge $-1 $595 $601 $597 $734 reversed $591 $-1 #
straight-curve $-1 18.415163130185618 27.215619280570703 55.54153660285575 0 0 -1 I I #
edge $-1 $599 -18.415163130185618 $738 -8.2545845622165217 $732 $794 forward 7 unknown #
point $-1 18.415163130185618 8.0577733488247176 12.837612681184027 #
point $-1 18.415163130185618 27.215619280570703 12.837612681184025 #
point $-1 18.415163130185618 27.215619280570703 0.86646169005085127 #
vertex $-1 $606 $795 #
straight-curve $-1 8.2545845622165217 15.951230920991849 12.837612681184027 0 -1 0 I I #
straight-curve $-1 8.2545845622165217 27.215619280570703 55.54153660285575 0 0 1 I I #
vertex $-1 $609 $796 #
point $-1 10.78670027581034 17.106777043467527 6.0039890938332343 #
vertex $-1 $613 $797 #
point $-1 13.83487384620107 17.106777043467527 6.0039890938332343 #
vertex $-1 $617 $798 #
point $-1 16.883047416591808 17.106777043467527 6.0039890938332343 #
edge $-1 $748 28.28184278643316 $751 40.252993777566338 $622 $799 forward 7 unknown #
vertex $-1 $636 $800 #
straight-curve $-1 -1.905994005752575 -39.031384918605639 12.837612681184027 0 -1 0 I I #
edge $-1 $751 -3.4931416448685617 $633 6.667436923100535 $632 $801 forward 7 unknown #
vertex $-1 $750 $802 #
straight-curve $-1 -1.905994005752575 -27.215619280570692 0.86646169005085483 0 0.84804809178421925 0.52991927123019833 I I #
point $-1 -1.905994005752575 -8.0577733488247141 12.837612681184025 #
point $-1 8.2545845622165217 -27.215619280570703 0.86646169005084817 #
straight-curve $-1 0 -27.215619280570703 12.837612681184025 1 0 0 I I #
vertex $-1 $639 $803 #
point $-1 0.62612170784124288 -17.106777043467531 6.0039890938332343 #
vertex $-1 $643 $804 #
point $-1 3.6742952782319733 -17.106777043467531 6.0039890938332343 #
vertex $-1 $647 $805 #
point $-1 6.7224688486227038 -17.106777043467531 6.0039890938332343 #
coedge $-1 $664 $656 $653 $763 forward $651 $-1 #
edge $-1 $659 -30.973611569780925 $770 -11.815765638034936 $762 $806 forward 7 unknown #
edge $-1 $770 28.28184278643316 $660 40.252993777566338 $654 $807 forward 7 unknown #
straight-curve $-1 1.5871476391159867 -27.215619280570703 0.86646169005085028 1 0 0 I I #
straight-curve $-1 1.5871476391159867 -8.0577733488247105 12.837612681184025 -1 0 0 I I #
point $-1 8.2545845622165217 -8.0577733488247141 12.837612681184025 #
point $-1 8.2545845622165217 -27.215619280570703 0.86646169005084817 #
point $-1 18.415163130185618 -8.0577733488247141 12.837612681184025 #
vertex $-1 $666 $808 #
straight-curve $-1 0 -27.215619280570703 12.837612681184025 1 0 0 I I #
vertex $-1 $669 $809 #
point $-1 10.78670027581034 -17.106777043467531 6.0039890938332343 #
vertex $-1 $673 $810 #
point $-1 13.83487384620107 -17.106777043467531 6.0039890938332343 #
vertex $-1 $677 $811 #
point $-1 16.883047416591808 -17.106777043467531 6.0039890938332343 #
straight-curve $-1 -47.976317636646627 27.215619280570703 0 0 0 -1 I I #
point $-1 -47.976317636646627 -27.215619280570703 -12.837612681184025 #
straight-curve $-1 -47.976317636646627 0 -12.837612681184025 0 1 0 I I #
point $-1 -47.976317636646627 27.215619280570703 -12.837612681184025 #
straight-curve $-1 -47.976317636646627 0 2.0358459422290576 0 -1 0 I I #
point $-1 -47.976317636646627 -27.215619280570703 2.0358459422290576 #
point $-1 -47.976317636646627 27.215619280570703 2.0358459422290576 #
straight-curve $-1 -47.976317636646627 27.215619280570703 0 0 0 -1 I I #
straight-curve $-1 -47.976317636646627 -27.215619280570703 0 0 0 -1 I I #
straight-curve $-1 8.2545845622165217 27.215619280570703 55.54153660285575 0 0 -1 I I #
point $-1 8.2545845622165217 27.215619280570703 12.837612681184025 #
straight-curve $-1 1.5871476391159867 27.215619280570706 0.86646169005085305 -1 0 0 I I #
point $-1 8.2545845622165217 27.215619280570703 0.86646169005085127 #
point $-1 0.12612170784124288 16.841817407852428 5.5799650479411254 #
point $-1 3.1742952782319733 16.841817407852428 5.5799650479411254 #
point $-1 6.2224688486227038 16.841817407852428 5.5799650479411254 #
straight-curve $-1 0 27.215619280570703 12.837612681184025 -1 0 0 I I #
point $-1 8.2545845622165217 27.215619280570703 12.837612681184025 #
point $-1 10.28670027581034 16.841817407852428 5.5799650479411254 #
point $-1 13.33487384620107 16.841817407852428 5.5799650479411254 #
point $-1 16.383047416591808 16.841817407852428 5.5799650479411254 #
straight-curve $-1 -1.905994005752575 -27.215619280570703 41.119455467617186 0 0 -1 I I #
point $-1 -1.905994005752575 -27.215619280570703 12.837612681184025 #
straight-curve $-1 1.5871476391159867 -27.215619280570703 0.86646169005085028 1 0 0 I I #
point $-1 -1.905994005752575 -27.215619280570703 0.86646169005084817 #
point $-1 0.12612170784124288 -16.841817407852432 5.5799650479411254 #
point $-1 3.1742952782319733 -16.841817407852432 5.5799650479411254 #
point $-1 6.2224688486227038 -16.841817407852432 5.5799650479411254 #
straight-curve $-1 8.2545845622165217 -39.031384918605639 12.837612681184027 0 -1 0 I I #
straight-curve $-1 8.2545845622165217 -27.215619280570703 41.119455467617186 0 0 -1 I I #
point $-1 8.2545845622165217 -27.215619280570703 12.837612681184025 #
point $-1 10.28670027581034 -16.841817407852432 5.5799650479411254 #
point $-1 13.33487384620107 -16.841817407852432 5.5799650479411254 #
point $-1 16.383047416591808 -16.841817407852432 5.5799650479411254 #
End-of-ACIS-data 