500 0 6 0           
7 Unknown 11 ACIS 5.0 NT 24 Fri Mar 26 17:33:09 1999 
-1 9.9999999999999995e-007 1e-010 
body $-1 $6 $-1 $7 #
body $-1 $8 $-1 $9 #
body $-1 $10 $-1 $11 #
body $-1 $12 $-1 $13 #
body $-1 $14 $-1 $15 #
body $-1 $16 $-1 $17 #
lump $-1 $-1 $18 $0 #
transform $-1 1 0 0 0 1 0 0 0 1 60.910061952574239 36.472611241580658 16.847503562435271 1 rotate no_reflect no_shear #
lump $-1 $-1 $19 $1 #
transform $-1 1 0 0 0 1 0 0 0 1 60.910061952574239 36.472611241580658 16.847503562435271 1 rotate no_reflect no_shear #
lump $-1 $-1 $20 $2 #
transform $-1 1 0 0 0 1 0 0 0 1 60.910061952574239 36.472611241580658 16.847503562435271 1 rotate no_reflect no_shear #
lump $-1 $-1 $21 $3 #
transform $-1 1 0 0 0 1 0 0 0 1 60.910061952574239 36.472611241580658 16.847503562435271 1 rotate no_reflect no_shear #
lump $-1 $-1 $22 $4 #
transform $-1 1 0 0 0 1 0 0 0 1 60.910061952574239 36.472611241580658 16.847503562435271 1 rotate no_reflect no_shear #
lump $-1 $-1 $23 $5 #
transform $-1 1 0 0 0 1 0 0 0 1 60.910061952574239 36.472611241580658 16.847503562435271 1 rotate no_reflect no_shear #
shell $-1 $-1 $-1 $24 $-1 $6 #
shell $-1 $-1 $-1 $25 $-1 $8 #
shell $-1 $-1 $-1 $26 $-1 $10 #
shell $-1 $-1 $-1 $27 $-1 $12 #
shell $-1 $-1 $-1 $28 $-1 $14 #
shell $-1 $-1 $-1 $29 $-1 $16 #
face $-1 $30 $31 $18 $-1 $32 forward single #
face $-1 $33 $34 $19 $-1 $35 forward single #
face $-1 $36 $37 $20 $-1 $38 forward single #
face $-1 $39 $40 $21 $-1 $41 reversed single #
face $-1 $42 $43 $22 $-1 $44 forward single #
face $-1 $45 $46 $23 $-1 $47 forward single #
face $-1 $48 $49 $18 $-1 $50 reversed single #
loop $-1 $-1 $51 $24 #
plane-surface $-1 0 0 16.847503562435271 0 0 1 1 0 0 forward_v I I I I #
face $-1 $52 $53 $19 $-1 $54 reversed single #
loop $-1 $-1 $55 $25 #
plane-surface $-1 0 -27.727493599843932 3.708313361655474 0 0 1 1 0 0 forward_v I I I I #
face $-1 $56 $57 $20 $-1 $58 reversed single #
loop $-1 $-1 $59 $26 #
plane-surface $-1 0 36.472611241580658 0 0 -1 0 0 0 -1 forward_v I I I I #
face $-1 $60 $61 $21 $-1 $62 reversed single #
loop $-1 $-1 $63 $27 #
plane-surface $-1 -129.03101162560662 -18.982375958107205 113.98180646799548 0 1 0 -0.55919291073839883 0 0.82903756765294845 forward_v I I I I #
face $-1 $64 $65 $22 $-1 $66 forward single #
loop $-1 $67 $68 $28 #
cone-surface $-1 -57.353233454109059 -16.124405281241913 13.885897991104997 0.55919291073839883 0 -0.82903756765294845 0.82903756765294845 0 0.55919291073839883 1 I I 0 1 1 forward I I I I #
face $-1 $69 $70 $23 $-1 $71 forward single #
loop $-1 $72 $73 $29 #
cone-surface $-1 -57.353233454109059 -11.83744926594397 13.885897991104997 0.55919291073839883 0 -0.82903756765294845 0.82903756765294845 0 0.55919291073839883 1 I I 0 1 1 forward I I I I #
face $-1 $74 $75 $18 $-1 $76 reversed single #
loop $-1 $-1 $77 $30 #
plane-surface $-1 0 0 -16.847503562435271 0 0 1 1 0 0 forward_v I I I I #
coedge $-1 $78 $79 $80 $81 forward $31 $-1 #
face $-1 $82 $83 $19 $-1 $84 reversed single #
loop $-1 $-1 $85 $33 #
plane-surface $-1 0 -27.727493599843932 -1.8932617691562363 0 0 1 1 0 0 forward_v I I I I #
coedge $-1 $86 $87 $88 $89 reversed $34 $-1 #
face $-1 $90 $91 $20 $-1 $92 reversed single #
loop $-1 $-1 $93 $36 #
plane-surface $-1 0 0 -16.847503562435271 0 0 1 1 0 0 forward_v I I I I #
coedge $-1 $94 $95 $96 $97 forward $37 $-1 #
face $-1 $98 $99 $21 $-1 $100 reversed single #
loop $-1 $-1 $101 $39 #
plane-surface $-1 -60.910061952574239 -13.98092727359294 12.988347254490392 -0.55919291073839883 0 0.82903756765294845 0.82903756765294845 0 0.55919291073839883 forward_v I I I I #
coedge $-1 $102 $103 $104 $105 reversed $40 $-1 #
face $-1 $-1 $106 $22 $-1 $107 forward single #
loop $-1 $108 $109 $42 #
cone-surface $-1 -56.377525702953875 -16.124405281241913 12.4393517899207 0.55919291073839883 0 -0.82903756765294845 0.41451878382647422 0 0.27959645536919941 1 I I -0.70710678118654746 0.70710678118654746 0.5 forward I I I I #
loop $-1 $-1 $110 $28 #
coedge $-1 $68 $68 $111 $112 reversed $43 $-1 #
face $-1 $-1 $113 $23 $-1 $114 forward single #
loop $-1 $115 $116 $45 #
cone-surface $-1 -56.377525702953875 -11.83744926594397 12.4393517899207 0.55919291073839883 0 -0.82903756765294845 0.41451878382647422 0 0.27959645536919941 1 I I -0.70710678118654746 0.70710678118654746 0.5 forward I I I I #
loop $-1 $-1 $117 $29 #
coedge $-1 $73 $73 $118 $119 reversed $46 $-1 #
face $-1 $120 $121 $18 $-1 $122 reversed single #
loop $-1 $-1 $123 $48 #
plane-surface $-1 0 -36.472611241580658 0 0 1 0 0 0 1 forward_v I I I I #
coedge $-1 $124 $125 $126 $127 forward $49 $-1 #
coedge $-1 $128 $51 $129 $130 forward $31 $-1 #
coedge $-1 $51 $128 $131 $132 forward $31 $-1 #
coedge $-1 $133 $134 $51 $81 reversed $135 $-1 #
edge $-1 $136 -36.472611241580658 $137 36.472611241580658 $80 $138 forward 7 unknown #
face $-1 $139 $140 $19 $-1 $141 reversed single #
loop $-1 $-1 $142 $52 #
plane-surface $-1 0 -18.982375958107205 0.90752579624961882 0 -1 0 0 0 -1 forward_v I I I I #
coedge $-1 $143 $144 $145 $146 reversed $53 $-1 #
coedge $-1 $147 $55 $148 $149 forward $34 $-1 #
coedge $-1 $55 $147 $150 $151 reversed $34 $-1 #
coedge $-1 $152 $153 $55 $89 forward $154 $-1 #
edge $-1 $155 5.1186291581852394 $156 22.608864441658692 $88 $157 forward 7 unknown #
face $-1 $158 $159 $20 $-1 $160 reversed single #
loop $-1 $-1 $161 $56 #
plane-surface $-1 -33.994057954913515 45.381124011254208 0 1 0 0 0 0 -1 forward_v I I I I #
coedge $-1 $162 $163 $95 $164 forward $57 $-1 #
coedge $-1 $165 $59 $166 $167 reversed $37 $-1 #
coedge $-1 $59 $165 $93 $164 reversed $37 $-1 #
coedge $-1 $168 $169 $59 $97 reversed $170 $-1 #
edge $-1 $171 -16.847503562435271 $172 16.847503562435271 $96 $173 forward 7 unknown #
face $-1 $174 $175 $21 $-1 $176 reversed single #
loop $-1 $-1 $177 $60 #
plane-surface $-1 -129.03101162560662 -8.9794785890786724 113.98180646799548 0 -1 0 0.55919291073839883 0 -0.82903756765294845 forward_v I I I I #
coedge $-1 $178 $179 $180 $181 reversed $61 $-1 #
coedge $-1 $103 $63 $182 $183 reversed $40 $-1 #
coedge $-1 $63 $102 $178 $184 reversed $40 $-1 #
coedge $-1 $180 $185 $63 $105 forward $186 $-1 #
edge $-1 $187 3.605443860229073 $188 9.3268782655874247 $104 $189 forward 7 unknown #
loop $-1 $-1 $111 $64 #
plane-surface $-1 -60.910061952574239 -13.98092727359294 12.988347254490392 -0.55919291073839883 0 0.82903756765294845 0.82903756765294845 0 0.55919291073839883 forward_v I I I I #
loop $-1 $-1 $190 $42 #
coedge $-1 $109 $109 $110 $191 reversed $65 $-1 #
coedge $-1 $110 $110 $109 $191 forward $67 $-1 #
coedge $-1 $111 $111 $68 $112 forward $106 $-1 #
edge $-1 $192 0 $192 6.2831853071796004 $111 $193 forward 7 unknown #
loop $-1 $-1 $118 $69 #
plane-surface $-1 -60.910061952574239 -13.98092727359294 12.988347254490392 -0.55919291073839883 0 0.82903756765294845 0.82903756765294845 0 0.55919291073839883 forward_v I I I I #
loop $-1 $-1 $194 $45 #
coedge $-1 $116 $116 $117 $195 reversed $70 $-1 #
coedge $-1 $117 $117 $116 $195 forward $72 $-1 #
coedge $-1 $118 $118 $73 $119 forward $113 $-1 #
edge $-1 $196 0 $196 6.2831853071796004 $118 $197 forward 7 unknown #
face $-1 $198 $199 $18 $-1 $200 reversed single #
loop $-1 $-1 $201 $74 #
plane-surface $-1 -60.910061952574239 0 0 1 0 0 0 0 -1 forward_v I I I I #
coedge $-1 $202 $131 $203 $204 forward $75 $-1 #
coedge $-1 $205 $77 $202 $206 forward $49 $-1 #
coedge $-1 $77 $205 $207 $208 forward $49 $-1 #
coedge $-1 $134 $133 $77 $127 reversed $135 $-1 #
edge $-1 $209 -36.472611241580658 $210 36.472611241580658 $126 $211 forward 7 unknown #
coedge $-1 $79 $78 $212 $213 forward $31 $-1 #
coedge $-1 $214 $215 $78 $130 reversed $199 $-1 #
edge $-1 $137 -60.910061952574239 $216 60.910061952574239 $129 $217 forward 7 unknown #
coedge $-1 $123 $218 $79 $132 reversed $75 $-1 #
edge $-1 $219 -60.910061952574239 $136 60.910061952574239 $131 $220 forward 7 unknown #
coedge $-1 $126 $80 $218 $221 forward $135 $-1 #
coedge $-1 $80 $126 $214 $222 reversed $135 $-1 #
loop $-1 $-1 $133 $198 #
vertex $-1 $81 $223 #
vertex $-1 $81 $224 #
straight-curve $-1 60.910061952574239 0 16.847503562435271 0 1 0 I I #
face $-1 $225 $226 $19 $-1 $227 reversed single #
loop $-1 $-1 $228 $82 #
plane-surface $-1 -60.910061952574239 0 0 1 0 0 0 0 -1 forward_v I I I I #
coedge $-1 $229 $148 $153 $230 reversed $83 $-1 #
coedge $-1 $231 $85 $232 $233 reversed $53 $-1 #
coedge $-1 $85 $231 $229 $234 forward $53 $-1 #
coedge $-1 $153 $152 $85 $146 forward $154 $-1 #
edge $-1 $235 -22.608864441658692 $236 -5.1186291581852394 $145 $237 forward 7 unknown #
coedge $-1 $87 $86 $228 $238 reversed $34 $-1 #
coedge $-1 $142 $239 $86 $149 reversed $83 $-1 #
edge $-1 $155 -60.910061952574239 $240 60.910061952574239 $148 $241 forward 7 unknown #
coedge $-1 $242 $243 $87 $151 forward $226 $-1 #
edge $-1 $156 -60.910061952574239 $244 60.910061952574239 $150 $245 forward 7 unknown #
coedge $-1 $145 $88 $243 $246 forward $154 $-1 #
coedge $-1 $88 $145 $142 $230 forward $154 $-1 #
loop $-1 $-1 $88 $225 #
vertex $-1 $89 $247 #
vertex $-1 $246 $248 #
straight-curve $-1 60.910061952574239 -13.863746799921966 3.708313361655474 0 -1 0 I I #
face $-1 $249 $170 $20 $-1 $250 reversed single #
loop $-1 $-1 $251 $90 #
plane-surface $-1 -30.604556391308606 54.289636780927765 0 0 -1 0 0 0 -1 forward_v I I I I #
coedge $-1 $252 $253 $254 $255 forward $91 $-1 #
coedge $-1 $256 $93 $252 $257 forward $57 $-1 #
coedge $-1 $93 $256 $168 $258 forward $57 $-1 #
edge $-1 $171 27.215054827703696 $259 33.994057954913515 $93 $260 forward 7 unknown #
coedge $-1 $95 $94 $261 $262 forward $37 $-1 #
coedge $-1 $263 $264 $94 $167 forward $265 $-1 #
edge $-1 $266 -33.994057954913515 $172 -27.215054827703696 $166 $267 forward 7 unknown #
coedge $-1 $268 $96 $163 $258 reversed $170 $-1 #
coedge $-1 $96 $268 $263 $269 reversed $170 $-1 #
loop $-1 $-1 $96 $158 #
vertex $-1 $164 $270 #
vertex $-1 $269 $271 #
straight-curve $-1 -27.215054827703696 36.472611241580658 0 0 0 1 I I #
face $-1 $-1 $186 $21 $-1 $272 forward single #
loop $-1 $-1 $273 $98 #
plane-surface $-1 -60.910061952574239 0 0 1 0 0 0 0 -1 forward_v I I I I #
coedge $-1 $274 $275 $276 $277 reversed $99 $-1 #
coedge $-1 $278 $101 $103 $184 forward $61 $-1 #
coedge $-1 $101 $278 $274 $279 forward $61 $-1 #
coedge $-1 $276 $104 $101 $181 forward $186 $-1 #
edge $-1 $188 -11.991912321310735 $280 -1.9890149522822025 $180 $281 forward 7 unknown #
coedge $-1 $282 $283 $102 $183 forward $175 $-1 #
edge $-1 $284 -44.002555979507349 $187 -40.14339967156247 $182 $285 forward 7 unknown #
edge $-1 $188 -6.9012969117383314 $284 0 $103 $286 forward 7 unknown #
coedge $-1 $104 $276 $282 $287 forward $186 $-1 #
loop $-1 $-1 $276 $174 #
vertex $-1 $183 $288 #
vertex $-1 $105 $289 #
straight-curve $-1 -64.515505812803312 -18.982375958107205 16.847503562435271 1 0 0 I I #
coedge $-1 $190 $190 $-1 $290 reversed $108 $-1 #
edge $-1 $291 0 $291 6.2831853071796004 $109 $292 forward 7 unknown #
vertex $-1 $112 $293 #
ellipse-curve $-1 -58.049344749895056 -16.124405281241913 14.917925408462839 -0.55919291073839883 0 0.82903756765294845 0.82903756765294845 0 0.55919291073839883 1 I I #
coedge $-1 $194 $194 $-1 $294 reversed $115 $-1 #
edge $-1 $295 0 $295 6.2831853071796004 $116 $296 forward 7 unknown #
vertex $-1 $119 $297 #
ellipse-curve $-1 -58.049344749895056 -11.83744926594397 14.917925408462839 -0.55919291073839883 0 0.82903756765294845 0.82903756765294845 0 0.55919291073839883 1 I I #
face $-1 $-1 $135 $18 $-1 $298 reversed single #
loop $-1 $-1 $214 $120 #
plane-surface $-1 0 36.472611241580658 0 0 -1 0 0 0 -1 forward_v I I I I #
coedge $-1 $299 $212 $215 $300 forward $121 $-1 #
coedge $-1 $218 $123 $124 $206 reversed $75 $-1 #
coedge $-1 $212 $299 $123 $204 reversed $121 $-1 #
edge $-1 $219 -16.847503562435271 $301 16.847503562435271 $203 $302 forward 7 unknown #
coedge $-1 $125 $124 $299 $303 forward $49 $-1 #
edge $-1 $210 -60.910061952574239 $301 60.910061952574239 $202 $304 forward 7 unknown #
coedge $-1 $215 $214 $125 $208 reversed $199 $-1 #
edge $-1 $305 -60.910061952574239 $209 60.910061952574239 $207 $306 forward 7 unknown #
vertex $-1 $127 $307 #
vertex $-1 $221 $308 #
straight-curve $-1 60.910061952574239 0 -16.847503562435271 0 -1 0 I I #
coedge $-1 $201 $203 $128 $213 reversed $121 $-1 #
edge $-1 $216 -36.472611241580658 $219 36.472611241580658 $212 $309 forward 7 unknown #
coedge $-1 $207 $129 $134 $222 forward $199 $-1 #
coedge $-1 $129 $207 $201 $300 reversed $199 $-1 #
vertex $-1 $130 $310 #
straight-curve $-1 0 36.472611241580658 16.847503562435271 -1 0 0 I I #
coedge $-1 $131 $202 $133 $221 reversed $75 $-1 #
vertex $-1 $213 $311 #
straight-curve $-1 0 -36.472611241580658 16.847503562435271 1 0 0 I I #
edge $-1 $136 -16.847503562435271 $210 16.847503562435271 $133 $312 forward 7 unknown #
edge $-1 $137 -16.847503562435271 $209 16.847503562435271 $134 $313 forward 7 unknown #
point $-1 60.910061952574239 -36.472611241580658 16.847503562435271 #
point $-1 60.910061952574239 36.472611241580658 16.847503562435271 #
face $-1 $-1 $154 $19 $-1 $314 reversed single #
loop $-1 $-1 $150 $139 #
plane-surface $-1 0 -36.472611241580658 0 0 1 0 0 0 1 forward_v I I I I #
coedge $-1 $315 $316 $147 $238 forward $140 $-1 #
coedge $-1 $239 $142 $144 $234 reversed $83 $-1 #
edge $-1 $236 -2.3470246672810458 $155 3.2545504635306646 $153 $317 forward 7 unknown #
coedge $-1 $144 $143 $318 $319 reversed $53 $-1 #
coedge $-1 $243 $242 $143 $233 forward $226 $-1 #
edge $-1 $320 -60.910061952574239 $235 60.910061952574239 $232 $321 forward 7 unknown #
edge $-1 $322 -60.910061952574239 $236 60.910061952574239 $229 $323 forward 7 unknown #
vertex $-1 $233 $324 #
vertex $-1 $146 $325 #
straight-curve $-1 60.910061952574239 -13.863746799921966 -1.8932617691562363 0 1 0 I I #
edge $-1 $244 -22.608864441658692 $240 -5.1186291581852394 $228 $326 forward 7 unknown #
coedge $-1 $148 $229 $315 $327 reversed $83 $-1 #
vertex $-1 $238 $328 #
straight-curve $-1 0 -18.982375958107205 3.708313361655474 -1 0 0 I I #
coedge $-1 $232 $150 $316 $329 forward $226 $-1 #
coedge $-1 $150 $232 $152 $246 reversed $226 $-1 #
vertex $-1 $329 $330 #
straight-curve $-1 0 -36.472611241580658 3.708313361655474 -1 0 0 I I #
edge $-1 $156 -3.708313361655474 $235 1.8932617691562363 $152 $331 forward 7 unknown #
point $-1 60.910061952574239 -18.982375958107205 3.708313361655474 #
point $-1 60.910061952574239 -36.472611241580658 3.708313361655474 #
face $-1 $-1 $265 $20 $-1 $332 forward single #
plane-surface $-1 -27.215054827703696 45.381124011254208 0 -1 0 0 0 0 1 forward_v I I I I #
coedge $-1 $333 $334 $268 $335 forward $159 $-1 #
coedge $-1 $261 $161 $162 $257 reversed $91 $-1 #
coedge $-1 $161 $261 $264 $336 reversed $91 $-1 #
coedge $-1 $334 $333 $161 $255 reversed $159 $-1 #
edge $-1 $337 -16.847503562435271 $338 16.847503562435271 $254 $339 forward 7 unknown #
coedge $-1 $163 $162 $333 $340 forward $57 $-1 #
edge $-1 $259 -8.9085127696735569 $338 8.9085127696735569 $252 $341 forward 7 unknown #
edge $-1 $342 -8.9085127696735569 $171 8.9085127696735569 $168 $343 forward 7 unknown #
vertex $-1 $257 $344 #
straight-curve $-1 0 36.472611241580658 -16.847503562435271 -1 0 0 I I #
coedge $-1 $253 $252 $165 $262 reversed $91 $-1 #
edge $-1 $266 -16.847503562435271 $259 16.847503562435271 $261 $345 forward 7 unknown #
coedge $-1 $346 $166 $169 $269 forward $265 $-1 #
coedge $-1 $166 $346 $253 $336 forward $265 $-1 #
loop $-1 $-1 $166 $249 #
vertex $-1 $167 $347 #
straight-curve $-1 0 36.472611241580658 16.847503562435271 1 0 0 I I #
coedge $-1 $169 $168 $251 $335 reversed $170 $-1 #
edge $-1 $172 -8.9085127696735569 $348 8.9085127696735569 $169 $349 forward 7 unknown #
point $-1 -27.215054827703696 36.472611241580651 -16.847503562435271 #
point $-1 -27.215054827703696 36.472611241580651 16.847503562435271 #
plane-surface $-1 0 0 16.847503562435271 0 0 1 1 0 0 forward_v I I I I #
coedge $-1 $283 $282 $275 $350 forward $175 $-1 #
coedge $-1 $275 $177 $179 $279 reversed $99 $-1 #
coedge $-1 $177 $274 $273 $350 reversed $99 $-1 #
coedge $-1 $185 $180 $177 $277 forward $186 $-1 #
edge $-1 $280 -9.3268782655874247 $351 -3.605443860229073 $276 $352 forward 7 unknown #
coedge $-1 $179 $178 $283 $353 reversed $61 $-1 #
edge $-1 $354 0 $280 6.9012969117383314 $274 $355 forward 7 unknown #
vertex $-1 $181 $356 #
straight-curve $-1 -55.188627547215887 -6.9904636367964699 16.847503562435271 0 1 0 I I #
coedge $-1 $273 $182 $185 $287 reversed $175 $-1 #
coedge $-1 $182 $273 $278 $353 forward $175 $-1 #
vertex $-1 $183 $357 #
straight-curve $-1 -60.910061952574239 -18.982375958107205 56.990903233997741 0 0 1 I I #
straight-curve $-1 -60.910061952574239 -18.982375958107205 12.988347254490392 -0.82903756765294845 0 -0.55919291073839883 I I #
edge $-1 $351 8.9794785890786724 $187 18.982375958107205 $282 $358 forward 7 unknown #
point $-1 -60.910061952574239 -18.982375958107205 16.847503562435271 #
point $-1 -55.188627547215887 -18.982375958107205 16.847503562435271 #
edge $-1 $359 1 $359 0 $190 $-1 forward 7 unknown #
vertex $-1 $191 $360 #
ellipse-curve $-1 -56.657122158323077 -16.124405281241913 12.853870573747175 -0.55919291073839883 0 0.82903756765294845 0.82903756765294845 0 0.55919291073839883 1 I I #
point $-1 -57.220307182242088 -16.124405281241913 15.477118319201217 #
edge $-1 $361 1 $361 0 $194 $-1 forward 7 unknown #
vertex $-1 $195 $362 #
ellipse-curve $-1 -56.657122158323077 -11.83744926594397 12.853870573747175 -0.55919291073839883 0 0.82903756765294845 0.82903756765294845 0 0.55919291073839883 1 I I #
point $-1 -57.220307182242088 -11.83744926594397 15.477118319201217 #
plane-surface $-1 60.910061952574239 0 0 -1 0 0 0 0 1 forward_v I I I I #
coedge $-1 $203 $201 $205 $303 reversed $121 $-1 #
edge $-1 $216 -16.847503562435271 $305 16.847503562435271 $215 $363 forward 7 unknown #
vertex $-1 $303 $364 #
straight-curve $-1 -60.910061952574239 -36.472611241580658 0 0 0 -1 I I #
edge $-1 $301 -36.472611241580658 $305 36.472611241580658 $299 $365 forward 7 unknown #
straight-curve $-1 0 -36.472611241580658 -16.847503562435271 -1 0 0 I I #
vertex $-1 $208 $366 #
straight-curve $-1 0 36.472611241580658 -16.847503562435271 1 0 0 I I #
point $-1 60.910061952574239 36.472611241580658 -16.847503562435271 #
point $-1 60.910061952574239 -36.472611241580658 -16.847503562435271 #
straight-curve $-1 -60.910061952574239 0 16.847503562435271 0 -1 0 I I #
point $-1 -60.910061952574239 36.472611241580658 16.847503562435271 #
point $-1 -60.910061952574239 -36.472611241580658 16.847503562435271 #
straight-curve $-1 60.910061952574239 -36.472611241580658 0 0 0 -1 I I #
straight-curve $-1 60.910061952574239 36.472611241580658 0 0 0 -1 I I #
plane-surface $-1 60.910061952574239 0 0 -1 0 0 0 0 1 forward_v I I I I #
coedge $-1 $318 $228 $239 $327 forward $140 $-1 #
coedge $-1 $228 $318 $242 $329 reversed $140 $-1 #
straight-curve $-1 60.910061952574239 -18.982375958107205 0.45376289812480941 0 0 1 I I #
coedge $-1 $316 $315 $231 $319 forward $140 $-1 #
edge $-1 $322 5.1186291581852394 $320 22.608864441658692 $318 $367 forward 7 unknown #
vertex $-1 $233 $368 #
straight-curve $-1 0 -36.472611241580658 -1.8932617691562363 1 0 0 I I #
vertex $-1 $319 $369 #
straight-curve $-1 0 -18.982375958107205 -1.8932617691562363 1 0 0 I I #
point $-1 60.910061952574239 -36.472611241580658 -1.8932617691562363 #
point $-1 60.910061952574239 -18.982375958107205 -1.8932617691562363 #
straight-curve $-1 -60.910061952574239 -13.863746799921966 3.708313361655474 0 1 0 I I #
edge $-1 $240 -3.2545504635306646 $322 2.3470246672810458 $315 $370 forward 7 unknown #
point $-1 -60.910061952574239 -18.982375958107205 3.708313361655474 #
edge $-1 $244 -3.708313361655474 $320 1.8932617691562363 $316 $371 forward 7 unknown #
point $-1 -60.910061952574239 -36.472611241580658 3.708313361655474 #
straight-curve $-1 60.910061952574239 -36.472611241580658 0 0 0 -1 I I #
plane-surface $-1 0 0 16.847503562435271 0 0 1 1 0 0 forward_v I I I I #
coedge $-1 $254 $251 $256 $340 reversed $159 $-1 #
coedge $-1 $251 $254 $346 $372 reversed $159 $-1 #
edge $-1 $348 -16.847503562435271 $342 16.847503562435271 $268 $373 forward 7 unknown #
edge $-1 $337 -8.9085127696735569 $266 8.9085127696735569 $253 $374 forward 7 unknown #
vertex $-1 $372 $375 #
vertex $-1 $340 $376 #
straight-curve $-1 -33.994057954913515 54.289636780927765 0 0 0 -1 I I #
edge $-1 $338 -3.3895015636049095 $342 3.3895015636049095 $333 $377 forward 7 unknown #
straight-curve $-1 -33.994057954913515 45.381124011254208 -16.847503562435271 0 1 0 I I #
vertex $-1 $258 $378 #
straight-curve $-1 -27.215054827703696 45.381124011254208 -16.847503562435271 0 -1 0 I I #
point $-1 -33.994057954913515 36.472611241580651 -16.847503562435271 #
straight-curve $-1 -33.994057954913515 36.472611241580658 0 0 0 -1 I I #
coedge $-1 $264 $263 $334 $372 forward $265 $-1 #
point $-1 -33.994057954913515 36.472611241580651 16.847503562435271 #
vertex $-1 $269 $379 #
straight-curve $-1 -27.215054827703696 45.381124011254208 16.847503562435271 0 1 0 I I #
edge $-1 $351 40.14339967156247 $354 44.002555979507349 $273 $380 forward 7 unknown #
vertex $-1 $287 $381 #
straight-curve $-1 -64.515505812803312 -8.9794785890786724 16.847503562435271 -1 0 0 I I #
edge $-1 $354 1.9890149522822025 $284 11.991912321310735 $283 $382 forward 7 unknown #
vertex $-1 $353 $383 #
straight-curve $-1 -60.910061952574239 -8.9794785890786724 12.988347254490392 0.82903756765294845 0 0.55919291073839883 I I #
point $-1 -55.188627547215887 -8.9794785890786724 16.847503562435271 #
point $-1 -60.910061952574239 -18.982375958107205 12.988347254490392 #
straight-curve $-1 -60.910061952574239 0 16.847503562435271 0 -1 0 I I #
vertex $-1 $290 $384 #
point $-1 -55.828084590670123 -16.124405281241913 13.413063484485573 #
vertex $-1 $294 $385 #
point $-1 -55.828084590670123 -11.83744926594397 13.413063484485573 #
straight-curve $-1 -60.910061952574239 36.472611241580658 0 0 0 -1 I I #
point $-1 -60.910061952574239 -36.472611241580658 -16.847503562435271 #
straight-curve $-1 -60.910061952574239 0 -16.847503562435271 0 1 0 I I #
point $-1 -60.910061952574239 36.472611241580658 -16.847503562435271 #
straight-curve $-1 -60.910061952574239 -13.863746799921966 -1.8932617691562363 0 -1 0 I I #
point $-1 -60.910061952574239 -36.472611241580658 -1.8932617691562363 #
point $-1 -60.910061952574239 -18.982375958107205 -1.8932617691562363 #
straight-curve $-1 -60.910061952574239 -18.982375958107205 0.45376289812480941 0 0 -1 I I #
straight-curve $-1 -60.910061952574239 -36.472611241580658 0 0 0 -1 I I #
edge $-1 $348 -3.3895015636049095 $337 3.3895015636049095 $334 $386 forward 7 unknown #
straight-curve $-1 -27.215054827703696 54.289636780927765 0 0 0 -1 I I #
straight-curve $-1 -33.994057954913515 45.381124011254208 16.847503562435271 0 -1 0 I I #
point $-1 -33.994057954913515 54.289636780927765 16.847503562435271 #
point $-1 -33.994057954913515 54.289636780927765 -16.847503562435271 #
straight-curve $-1 -30.604556391308606 54.289636780927765 -16.847503562435271 1 0 0 I I #
point $-1 -27.215054827703696 54.289636780927765 -16.847503562435271 #
point $-1 -27.215054827703696 54.289636780927765 16.847503562435271 #
straight-curve $-1 -60.910061952574239 -8.9794785890786724 56.990903233997741 0 0 -1 I I #
point $-1 -60.910061952574239 -8.9794785890786724 16.847503562435271 #
straight-curve $-1 -60.910061952574239 -6.9904636367964699 12.988347254490392 0 -1 0 I I #
point $-1 -60.910061952574239 -8.9794785890786724 12.988347254490392 #
point $-1 -56.097929247584673 -16.124405281241913 12.024833006094225 #
point $-1 -56.097929247584673 -11.83744926594397 12.024833006094225 #
straight-curve $-1 -30.604556391308606 54.289636780927765 16.847503562435271 -1 0 0 I I #
End-of-ACIS-data 