500 0 7 0           
7 Unknown 11 ACIS 5.0 NT 24 Fri Mar 26 20:39:53 1999 
-1 9.9999999999999995e-007 1e-010 
body $-1 $7 $-1 $8 #
body $-1 $9 $-1 $10 #
body $-1 $11 $-1 $12 #
body $-1 $13 $-1 $14 #
body $-1 $15 $-1 $16 #
body $-1 $17 $-1 $18 #
body $-1 $19 $-1 $20 #
lump $-1 $-1 $21 $0 #
transform $-1 1 0 0 0 1 0 0 0 1 60.503555406353954 38.161352273282809 9.2143005742289166 1 rotate no_reflect no_shear #
lump $-1 $-1 $22 $1 #
transform $-1 1 0 0 0 1 0 0 0 1 60.503555406353954 38.161352273282809 9.2143005742289166 1 rotate no_reflect no_shear #
lump $-1 $-1 $23 $2 #
transform $-1 1 0 0 0 1 0 0 0 1 60.503555406353954 38.161352273282809 9.2143005742289166 1 rotate no_reflect no_shear #
lump $-1 $-1 $24 $3 #
transform $-1 1 0 0 0 1 0 0 0 1 60.503555406353954 38.161352273282809 9.2143005742289166 1 rotate no_reflect no_shear #
lump $-1 $-1 $25 $4 #
transform $-1 1 0 0 0 1 0 0 0 1 60.503555406353954 38.161352273282809 9.2143005742289166 1 rotate no_reflect no_shear #
lump $-1 $-1 $26 $5 #
transform $-1 1 0 0 0 1 0 0 0 1 60.503555406353954 38.161352273282809 9.2143005742289166 1 rotate no_reflect no_shear #
lump $-1 $-1 $27 $6 #
transform $-1 1 0 0 0 1 0 0 0 1 60.503555406353954 38.161352273282809 9.2143005742289166 1 rotate no_reflect no_shear #
shell $-1 $-1 $-1 $28 $-1 $7 #
shell $-1 $-1 $-1 $29 $-1 $9 #
shell $-1 $-1 $-1 $30 $-1 $11 #
shell $-1 $-1 $-1 $31 $-1 $13 #
shell $-1 $-1 $-1 $32 $-1 $15 #
shell $-1 $-1 $-1 $33 $-1 $17 #
shell $-1 $-1 $-1 $34 $-1 $19 #
face $-1 $35 $36 $21 $-1 $37 forward single #
face $-1 $38 $39 $22 $-1 $40 forward single #
face $-1 $41 $42 $23 $-1 $43 forward single #
face $-1 $44 $45 $24 $-1 $46 reversed single #
face $-1 $47 $48 $25 $-1 $49 forward single #
face $-1 $50 $51 $26 $-1 $52 forward single #
face $-1 $53 $54 $27 $-1 $55 forward single #
face $-1 $56 $57 $21 $-1 $58 reversed single #
loop $-1 $-1 $59 $28 #
plane-surface $-1 0 0 9.2143005742289166 0 0 1 1 0 0 forward_v I I I I #
face $-1 $60 $61 $22 $-1 $62 reversed single #
loop $-1 $-1 $63 $29 #
plane-surface $-1 0 -38.161352273282809 0 0 1 0 0 0 1 forward_v I I I I #
face $-1 $64 $65 $23 $-1 $66 reversed single #
loop $-1 $-1 $67 $30 #
plane-surface $-1 0 38.161352273282809 0 0 -1 0 0 0 -1 forward_v I I I I #
face $-1 $68 $69 $24 $-1 $70 reversed single #
loop $-1 $-1 $71 $31 #
plane-surface $-1 54.53121001754802 -15.11128111292369 171.13678520940093 0 -1 0 -0.68199836817093118 0 -0.7313536940579346 forward_v I I I I #
face $-1 $72 $73 $25 $-1 $74 forward single #
loop $-1 $75 $76 $32 #
cone-surface $-1 55.028009921440535 -26.880408266017884 4.0251188154186615 -0.68199836817093118 0 -0.7313536940579346 0.7313536940579346 0 -0.68199836817093118 1 I I 0 1 1 forward I I I I #
face $-1 $77 $78 $26 $-1 $79 forward single #
loop $-1 $80 $81 $33 #
cone-surface $-1 55.028009921440535 -22.46698558360756 4.0251188154186615 -0.68199836817093118 0 -0.7313536940579346 0.7313536940579346 0 -0.68199836817093118 1 I I 0 1 1 forward I I I I #
face $-1 $82 $83 $27 $-1 $84 forward single #
loop $-1 $85 $86 $34 #
cone-surface $-1 55.028009921440535 -18.053562901197239 4.0251188154186615 -0.68199836817093118 0 -0.7313536940579346 0.7313536940579346 0 -0.68199836817093118 1 I I 0 1 1 forward I I I I #
face $-1 $87 $88 $21 $-1 $89 reversed single #
loop $-1 $-1 $90 $35 #
plane-surface $-1 0 0 -9.2143005742289166 0 0 1 1 0 0 forward_v I I I I #
coedge $-1 $91 $92 $93 $94 forward $36 $-1 #
face $-1 $95 $96 $22 $-1 $97 forward single #
loop $-1 $-1 $98 $38 #
plane-surface $-1 -60.503555406353954 0 0 1 0 0 0 0 -1 forward_v I I I I #
coedge $-1 $99 $100 $101 $102 forward $39 $-1 #
face $-1 $103 $104 $23 $-1 $105 forward single #
loop $-1 $-1 $106 $41 #
plane-surface $-1 60.503555406353954 0 0 -1 0 0 0 0 1 forward_v I I I I #
coedge $-1 $107 $108 $109 $110 forward $42 $-1 #
face $-1 $111 $112 $24 $-1 $113 reversed single #
loop $-1 $-1 $114 $44 #
plane-surface $-1 -27.99544209379782 -22.46698558360756 82.637787709249153 0.68199836817093118 0 0.7313536940579346 0.7313536940579346 0 -0.68199836817093118 forward_v I I I I #
coedge $-1 $115 $116 $117 $118 reversed $45 $-1 #
face $-1 $-1 $119 $25 $-1 $120 forward single #
loop $-1 $121 $122 $47 #
cone-surface $-1 54.092439785349853 -26.880408266017884 3.0218426977422137 -0.68199836817093118 0 -0.7313536940579346 0.3656768470289673 0 -0.34099918408546559 1 I I -0.70710678118654746 0.70710678118654746 0.5 forward I I I I #
loop $-1 $-1 $123 $32 #
coedge $-1 $76 $76 $124 $125 reversed $48 $-1 #
face $-1 $-1 $126 $26 $-1 $127 forward single #
loop $-1 $128 $129 $50 #
cone-surface $-1 54.092439785349853 -22.46698558360756 3.0218426977422137 -0.68199836817093118 0 -0.7313536940579346 0.3656768470289673 0 -0.34099918408546559 1 I I -0.70710678118654746 0.70710678118654746 0.5 forward I I I I #
loop $-1 $-1 $130 $33 #
coedge $-1 $81 $81 $131 $132 reversed $51 $-1 #
face $-1 $-1 $133 $27 $-1 $134 forward single #
loop $-1 $135 $136 $53 #
cone-surface $-1 54.092439785349853 -18.053562901197239 3.0218426977422137 -0.68199836817093118 0 -0.7313536940579346 0.3656768470289673 0 -0.34099918408546559 1 I I -0.70710678118654746 0.70710678118654746 0.5 forward I I I I #
loop $-1 $-1 $137 $34 #
coedge $-1 $86 $86 $138 $139 reversed $54 $-1 #
face $-1 $140 $141 $21 $-1 $142 reversed single #
loop $-1 $-1 $143 $56 #
plane-surface $-1 0 -38.161352273282809 0 0 1 0 0 0 1 forward_v I I I I #
coedge $-1 $144 $145 $146 $147 forward $57 $-1 #
coedge $-1 $148 $59 $149 $150 forward $36 $-1 #
coedge $-1 $59 $148 $151 $152 forward $36 $-1 #
coedge $-1 $153 $154 $59 $94 reversed $155 $-1 #
edge $-1 $156 -38.161352273282809 $157 38.161352273282809 $93 $158 forward 7 unknown #
face $-1 $159 $160 $22 $-1 $161 reversed single #
loop $-1 $-1 $162 $60 #
plane-surface $-1 0 -42.330683382778496 1.5899803686157354 0 0 1 1 0 0 forward_v I I I I #
coedge $-1 $163 $164 $100 $165 forward $61 $-1 #
coedge $-1 $166 $63 $167 $168 reversed $39 $-1 #
coedge $-1 $63 $166 $98 $165 reversed $39 $-1 #
coedge $-1 $169 $162 $63 $102 reversed $96 $-1 #
edge $-1 $170 -60.503555406353954 $171 60.503555406353954 $101 $172 forward 7 unknown #
face $-1 $173 $174 $23 $-1 $175 reversed single #
loop $-1 $-1 $176 $64 #
plane-surface $-1 0 42.330683382778496 1.5899803686157354 0 0 1 1 0 0 forward_v I I I I #
coedge $-1 $177 $178 $108 $179 forward $65 $-1 #
coedge $-1 $180 $67 $181 $182 reversed $42 $-1 #
coedge $-1 $67 $180 $106 $179 reversed $42 $-1 #
coedge $-1 $176 $183 $67 $110 reversed $104 $-1 #
edge $-1 $184 -60.503555406353954 $185 60.503555406353954 $109 $186 forward 7 unknown #
face $-1 $187 $188 $24 $-1 $189 forward single #
loop $-1 $-1 $190 $68 #
plane-surface $-1 54.53121001754802 -29.822690054291428 171.13678520940093 0 1 0 0.68199836817093118 0 0.7313536940579346 forward_v I I I I #
coedge $-1 $191 $192 $193 $194 reversed $69 $-1 #
coedge $-1 $116 $71 $195 $196 reversed $45 $-1 #
coedge $-1 $71 $115 $191 $197 reversed $45 $-1 #
coedge $-1 $193 $198 $71 $118 forward $188 $-1 #
edge $-1 $199 -33.237950397579944 $200 -23.476001331763534 $117 $201 forward 7 unknown #
loop $-1 $-1 $124 $72 #
plane-surface $-1 -27.99544209379782 -22.46698558360756 82.637787709249153 0.68199836817093118 0 0.7313536940579346 0.7313536940579346 0 -0.68199836817093118 forward_v I I I I #
loop $-1 $-1 $202 $47 #
coedge $-1 $122 $122 $123 $203 reversed $73 $-1 #
coedge $-1 $123 $123 $122 $203 forward $75 $-1 #
coedge $-1 $124 $124 $76 $125 forward $119 $-1 #
edge $-1 $204 0 $204 6.2831853071796004 $124 $205 forward 7 unknown #
loop $-1 $-1 $131 $77 #
plane-surface $-1 -27.99544209379782 -22.46698558360756 82.637787709249153 0.68199836817093118 0 0.7313536940579346 0.7313536940579346 0 -0.68199836817093118 forward_v I I I I #
loop $-1 $-1 $206 $50 #
coedge $-1 $129 $129 $130 $207 reversed $78 $-1 #
coedge $-1 $130 $130 $129 $207 forward $80 $-1 #
coedge $-1 $131 $131 $81 $132 forward $126 $-1 #
edge $-1 $208 0 $208 6.2831853071796004 $131 $209 forward 7 unknown #
loop $-1 $-1 $138 $82 #
plane-surface $-1 -27.99544209379782 -22.46698558360756 82.637787709249153 0.68199836817093118 0 0.7313536940579346 0.7313536940579346 0 -0.68199836817093118 forward_v I I I I #
loop $-1 $-1 $210 $53 #
coedge $-1 $136 $136 $137 $211 reversed $83 $-1 #
coedge $-1 $137 $137 $136 $211 forward $85 $-1 #
coedge $-1 $138 $138 $86 $139 forward $133 $-1 #
edge $-1 $212 0 $212 6.2831853071796004 $138 $213 forward 7 unknown #
face $-1 $214 $215 $21 $-1 $216 reversed single #
loop $-1 $-1 $217 $87 #
plane-surface $-1 -60.503555406353954 0 0 1 0 0 0 0 -1 forward_v I I I I #
coedge $-1 $218 $151 $219 $220 forward $88 $-1 #
coedge $-1 $221 $90 $218 $222 forward $57 $-1 #
coedge $-1 $90 $221 $223 $224 forward $57 $-1 #
coedge $-1 $154 $153 $90 $147 reversed $155 $-1 #
edge $-1 $225 -38.161352273282809 $226 38.161352273282809 $146 $227 forward 7 unknown #
coedge $-1 $92 $91 $228 $229 forward $36 $-1 #
coedge $-1 $230 $231 $91 $150 reversed $215 $-1 #
edge $-1 $157 -60.503555406353954 $232 60.503555406353954 $149 $233 forward 7 unknown #
coedge $-1 $143 $234 $92 $152 reversed $88 $-1 #
edge $-1 $235 -60.503555406353954 $156 60.503555406353954 $151 $236 forward 7 unknown #
coedge $-1 $146 $93 $234 $237 forward $155 $-1 #
coedge $-1 $93 $146 $230 $238 reversed $155 $-1 #
loop $-1 $-1 $153 $214 #
vertex $-1 $94 $239 #
vertex $-1 $94 $240 #
straight-curve $-1 60.503555406353954 0 9.2143005742289166 0 1 0 I I #
face $-1 $241 $242 $22 $-1 $243 reversed single #
loop $-1 $-1 $244 $95 #
plane-surface $-1 0 -42.330683382778496 -3.7050859161407472 0 0 1 1 0 0 forward_v I I I I #
coedge $-1 $101 $245 $246 $247 forward $96 $-1 #
coedge $-1 $248 $98 $249 $250 reversed $61 $-1 #
coedge $-1 $98 $248 $169 $251 reversed $61 $-1 #
edge $-1 $170 -1.5899803686157354 $252 3.7050859161407472 $98 $253 forward 7 unknown #
coedge $-1 $100 $99 $254 $255 forward $39 $-1 #
coedge $-1 $246 $256 $99 $168 forward $257 $-1 #
edge $-1 $258 -3.7050859161407472 $171 1.5899803686157354 $167 $259 forward 7 unknown #
coedge $-1 $245 $101 $164 $251 forward $96 $-1 #
vertex $-1 $165 $260 #
vertex $-1 $247 $261 #
straight-curve $-1 0 -38.161352273282809 1.5899803686157354 1 0 0 I I #
face $-1 $262 $263 $23 $-1 $264 reversed single #
loop $-1 $-1 $265 $103 #
plane-surface $-1 0 42.330683382778496 -3.7050859161407472 0 0 1 1 0 0 forward_v I I I I #
coedge $-1 $266 $109 $178 $267 forward $104 $-1 #
coedge $-1 $268 $106 $265 $269 reversed $65 $-1 #
coedge $-1 $106 $268 $176 $267 reversed $65 $-1 #
edge $-1 $184 -1.5899803686157354 $270 3.7050859161407472 $106 $271 forward 7 unknown #
coedge $-1 $108 $107 $272 $273 forward $42 $-1 #
coedge $-1 $274 $275 $107 $182 forward $276 $-1 #
edge $-1 $277 -3.7050859161407472 $185 1.5899803686157354 $181 $278 forward 7 unknown #
coedge $-1 $109 $266 $274 $279 forward $104 $-1 #
vertex $-1 $179 $280 #
vertex $-1 $279 $281 #
straight-curve $-1 0 38.161352273282809 1.5899803686157354 -1 0 0 I I #
face $-1 $-1 $282 $24 $-1 $283 reversed single #
loop $-1 $-1 $117 $111 #
plane-surface $-1 0 0 9.2143005742289166 0 0 1 1 0 0 forward_v I I I I #
coedge $-1 $284 $285 $286 $287 reversed $112 $-1 #
coedge $-1 $288 $114 $116 $197 forward $69 $-1 #
coedge $-1 $114 $288 $284 $289 forward $69 $-1 #
coedge $-1 $286 $117 $114 $194 forward $188 $-1 #
edge $-1 $200 3.87778832111991 $290 18.589197262487648 $193 $291 forward 7 unknown #
coedge $-1 $292 $293 $115 $196 forward $282 $-1 #
edge $-1 $294 -85.45725700679715 $199 -76.354092030471548 $195 $295 forward 7 unknown #
edge $-1 $200 107.65932964317284 $294 121.00711081270791 $116 $296 forward 7 unknown #
coedge $-1 $117 $286 $292 $297 forward $188 $-1 #
vertex $-1 $196 $298 #
vertex $-1 $118 $299 #
straight-curve $-1 27.26560500877401 -15.11128111292369 9.2143005742289148 -1 0 0 I I #
coedge $-1 $202 $202 $-1 $300 reversed $121 $-1 #
edge $-1 $301 0 $301 6.2831853071796004 $122 $302 forward 7 unknown #
vertex $-1 $125 $303 #
ellipse-curve $-1 55.622580873445735 -26.880408266017884 4.6627180860661239 0.68199836817093118 0 0.7313536940579346 0.7313536940579346 0 -0.68199836817093118 1 I I #
coedge $-1 $206 $206 $-1 $304 reversed $128 $-1 #
edge $-1 $305 0 $305 6.2831853071796004 $129 $306 forward 7 unknown #
vertex $-1 $132 $307 #
ellipse-curve $-1 55.622580873445735 -22.46698558360756 4.6627180860661239 0.68199836817093118 0 0.7313536940579346 0.7313536940579346 0 -0.68199836817093118 1 I I #
coedge $-1 $210 $210 $-1 $308 reversed $135 $-1 #
edge $-1 $309 0 $309 6.2831853071796004 $136 $310 forward 7 unknown #
vertex $-1 $139 $311 #
ellipse-curve $-1 55.622580873445735 -18.053562901197239 4.6627180860661239 0.68199836817093118 0 0.7313536940579346 0.7313536940579346 0 -0.68199836817093118 1 I I #
face $-1 $-1 $155 $21 $-1 $312 reversed single #
loop $-1 $-1 $230 $140 #
plane-surface $-1 0 38.161352273282809 0 0 -1 0 0 0 -1 forward_v I I I I #
coedge $-1 $313 $228 $231 $314 forward $141 $-1 #
coedge $-1 $234 $143 $144 $222 reversed $88 $-1 #
coedge $-1 $228 $313 $143 $220 reversed $141 $-1 #
edge $-1 $235 -9.2143005742289166 $315 9.2143005742289166 $219 $316 forward 7 unknown #
coedge $-1 $145 $144 $313 $317 forward $57 $-1 #
edge $-1 $226 -60.503555406353954 $315 60.503555406353954 $218 $318 forward 7 unknown #
coedge $-1 $231 $230 $145 $224 reversed $215 $-1 #
edge $-1 $319 -60.503555406353954 $225 60.503555406353954 $223 $320 forward 7 unknown #
vertex $-1 $147 $321 #
vertex $-1 $237 $322 #
straight-curve $-1 60.503555406353954 0 -9.2143005742289166 0 -1 0 I I #
coedge $-1 $217 $219 $148 $229 reversed $141 $-1 #
edge $-1 $232 -38.161352273282809 $235 38.161352273282809 $228 $323 forward 7 unknown #
coedge $-1 $223 $149 $154 $238 forward $215 $-1 #
coedge $-1 $149 $223 $217 $314 reversed $215 $-1 #
vertex $-1 $150 $324 #
straight-curve $-1 0 38.161352273282809 9.2143005742289166 -1 0 0 I I #
coedge $-1 $151 $218 $153 $237 reversed $88 $-1 #
vertex $-1 $229 $325 #
straight-curve $-1 0 -38.161352273282809 9.2143005742289166 1 0 0 I I #
edge $-1 $156 -9.2143005742289166 $226 9.2143005742289166 $153 $326 forward 7 unknown #
edge $-1 $157 -9.2143005742289166 $225 9.2143005742289166 $154 $327 forward 7 unknown #
point $-1 60.503555406353954 -38.161352273282809 9.2143005742289166 #
point $-1 60.503555406353954 38.161352273282809 9.2143005742289166 #
face $-1 $-1 $257 $22 $-1 $328 reversed single #
loop $-1 $-1 $329 $159 #
plane-surface $-1 0 -46.500014492274182 -1.0575527737625059 0 1 0 0 0 1 forward_v I I I I #
coedge $-1 $330 $254 $256 $331 forward $160 $-1 #
coedge $-1 $162 $169 $332 $333 forward $96 $-1 #
coedge $-1 $334 $167 $162 $247 reversed $257 $-1 #
edge $-1 $335 -4.1693311094956869 $171 4.1693311094956869 $246 $336 forward 7 unknown #
coedge $-1 $164 $163 $329 $337 reversed $61 $-1 #
coedge $-1 $254 $330 $163 $250 forward $160 $-1 #
edge $-1 $338 -4.1693311094956869 $252 4.1693311094956869 $163 $339 forward 7 unknown #
edge $-1 $170 -4.1693311094956869 $340 4.1693311094956869 $164 $341 forward 7 unknown #
vertex $-1 $165 $342 #
straight-curve $-1 -60.503555406353954 -38.161352273282809 0 0 0 -1 I I #
coedge $-1 $244 $249 $166 $255 reversed $160 $-1 #
edge $-1 $258 -60.503555406353954 $252 60.503555406353954 $254 $343 forward 7 unknown #
coedge $-1 $167 $334 $244 $331 reversed $257 $-1 #
loop $-1 $-1 $167 $241 #
vertex $-1 $168 $344 #
straight-curve $-1 60.503555406353954 -38.161352273282809 0 0 0 1 I I #
point $-1 -60.503555406353954 -38.161352273282809 1.5899803686157354 #
point $-1 60.503555406353954 -38.161352273282809 1.5899803686157354 #
face $-1 $-1 $276 $23 $-1 $345 reversed single #
loop $-1 $-1 $346 $173 #
plane-surface $-1 0 46.500014492274182 -1.0575527737625059 0 -1 0 0 0 -1 forward_v I I I I #
coedge $-1 $272 $347 $177 $269 forward $174 $-1 #
coedge $-1 $183 $176 $348 $349 forward $104 $-1 #
edge $-1 $184 -4.1693311094956869 $350 4.1693311094956869 $178 $351 forward 7 unknown #
coedge $-1 $178 $177 $346 $352 reversed $65 $-1 #
edge $-1 $353 -4.1693311094956869 $270 4.1693311094956869 $177 $354 forward 7 unknown #
vertex $-1 $179 $355 #
straight-curve $-1 60.503555406353954 38.161352273282809 0 0 0 -1 I I #
coedge $-1 $356 $265 $180 $273 reversed $174 $-1 #
edge $-1 $277 -60.503555406353954 $270 60.503555406353954 $272 $357 forward 7 unknown #
coedge $-1 $358 $181 $183 $279 reversed $276 $-1 #
coedge $-1 $181 $358 $356 $359 reversed $276 $-1 #
loop $-1 $-1 $181 $262 #
vertex $-1 $182 $360 #
straight-curve $-1 -60.503555406353954 38.161352273282809 0 0 0 1 I I #
edge $-1 $361 -4.1693311094956869 $185 4.1693311094956869 $274 $362 forward 7 unknown #
point $-1 60.503555406353954 38.161352273282809 1.5899803686157354 #
point $-1 -60.503555406353954 38.161352273282809 1.5899803686157354 #
loop $-1 $-1 $195 $187 #
plane-surface $-1 60.503555406353954 0 0 -1 0 0 0 0 1 forward_v I I I I #
coedge $-1 $285 $190 $192 $289 reversed $112 $-1 #
coedge $-1 $190 $284 $363 $364 reversed $112 $-1 #
coedge $-1 $198 $193 $190 $287 forward $188 $-1 #
edge $-1 $290 23.476001331763534 $365 33.237950397579944 $286 $366 forward 7 unknown #
coedge $-1 $192 $191 $293 $367 reversed $69 $-1 #
edge $-1 $368 -121.00711081270791 $290 -107.65932964317284 $284 $369 forward 7 unknown #
vertex $-1 $194 $370 #
straight-curve $-1 50.741606340537537 -11.23349279180378 9.2143005742289219 0 -1 0 I I #
coedge $-1 $363 $195 $198 $297 reversed $282 $-1 #
coedge $-1 $195 $363 $288 $367 forward $282 $-1 #
vertex $-1 $196 $371 #
straight-curve $-1 60.503555406353954 -15.11128111292369 85.568392604700463 0 0 1 I I #
straight-curve $-1 -27.99544209379782 -15.11128111292369 82.637787709249153 0.7313536940579346 0 -0.68199836817093118 I I #
edge $-1 $365 -29.822690054291428 $199 -15.11128111292369 $292 $372 forward 7 unknown #
point $-1 60.503555406353954 -15.11128111292369 9.2143005742289166 #
point $-1 50.741606340537544 -15.11128111292369 9.2143005742289148 #
edge $-1 $373 1 $373 0 $202 $-1 forward 7 unknown #
vertex $-1 $203 $374 #
ellipse-curve $-1 54.433438969435322 -26.880408266017884 3.3875195447711812 0.68199836817093118 0 0.7313536940579346 0.7313536940579346 0 -0.68199836817093118 1 I I #
point $-1 56.353934567503686 -26.880408266017884 3.9807197178952105 #
edge $-1 $375 1 $375 0 $206 $-1 forward 7 unknown #
vertex $-1 $207 $376 #
ellipse-curve $-1 54.433438969435322 -22.46698558360756 3.3875195447711812 0.68199836817093118 0 0.7313536940579346 0.7313536940579346 0 -0.68199836817093118 1 I I #
point $-1 56.353934567503686 -22.46698558360756 3.9807197178952105 #
edge $-1 $377 1 $377 0 $210 $-1 forward 7 unknown #
vertex $-1 $211 $378 #
ellipse-curve $-1 54.433438969435322 -18.053562901197239 3.3875195447711812 0.68199836817093118 0 0.7313536940579346 0.7313536940579346 0 -0.68199836817093118 1 I I #
point $-1 56.353934567503686 -18.053562901197239 3.9807197178952105 #
plane-surface $-1 60.503555406353954 0 0 -1 0 0 0 0 1 forward_v I I I I #
coedge $-1 $219 $217 $221 $317 reversed $141 $-1 #
edge $-1 $232 -9.2143005742289166 $319 9.2143005742289166 $231 $379 forward 7 unknown #
vertex $-1 $317 $380 #
straight-curve $-1 -60.503555406353954 -38.161352273282809 0 0 0 -1 I I #
edge $-1 $315 -38.161352273282809 $319 38.161352273282809 $313 $381 forward 7 unknown #
straight-curve $-1 0 -38.161352273282809 -9.2143005742289166 -1 0 0 I I #
vertex $-1 $224 $382 #
straight-curve $-1 0 38.161352273282809 -9.2143005742289166 1 0 0 I I #
point $-1 60.503555406353954 38.161352273282809 -9.2143005742289166 #
point $-1 60.503555406353954 -38.161352273282809 -9.2143005742289166 #
straight-curve $-1 -60.503555406353954 0 9.2143005742289166 0 -1 0 I I #
point $-1 -60.503555406353954 38.161352273282809 9.2143005742289166 #
point $-1 -60.503555406353954 -38.161352273282809 9.2143005742289166 #
straight-curve $-1 60.503555406353954 -38.161352273282809 0 0 0 -1 I I #
straight-curve $-1 60.503555406353954 38.161352273282809 0 0 0 -1 I I #
plane-surface $-1 60.503555406353954 0 0 -1 0 0 0 0 1 forward_v I I I I #
coedge $-1 $383 $332 $248 $337 forward $242 $-1 #
coedge $-1 $249 $244 $383 $384 forward $160 $-1 #
edge $-1 $258 -4.1693311094956869 $385 4.1693311094956869 $256 $386 forward 7 unknown #
coedge $-1 $329 $387 $245 $333 reversed $242 $-1 #
edge $-1 $340 -60.503555406353954 $335 60.503555406353954 $332 $388 forward 7 unknown #
coedge $-1 $256 $246 $387 $389 forward $257 $-1 #
vertex $-1 $247 $390 #
straight-curve $-1 60.503555406353954 -42.330683382778496 1.5899803686157354 0 1 0 I I #
edge $-1 $340 -2.6475331423782413 $338 2.6475331423782413 $248 $391 forward 7 unknown #
vertex $-1 $250 $392 #
straight-curve $-1 -60.503555406353954 -42.330683382778496 -3.7050859161407472 0 1 0 I I #
vertex $-1 $251 $393 #
straight-curve $-1 -60.503555406353954 -42.330683382778496 1.5899803686157354 0 -1 0 I I #
point $-1 -60.503555406353954 -38.161352273282809 -3.7050859161407472 #
straight-curve $-1 0 -38.161352273282809 -3.7050859161407472 -1 0 0 I I #
point $-1 60.503555406353954 -38.161352273282809 -3.7050859161407472 #
plane-surface $-1 -60.503555406353954 0 0 1 0 0 0 0 -1 forward_v I I I I #
coedge $-1 $394 $348 $268 $352 forward $263 $-1 #
coedge $-1 $265 $356 $394 $395 forward $174 $-1 #
coedge $-1 $346 $396 $266 $349 reversed $263 $-1 #
edge $-1 $350 -60.503555406353954 $361 60.503555406353954 $348 $397 forward 7 unknown #
vertex $-1 $267 $398 #
straight-curve $-1 60.503555406353954 42.330683382778496 1.5899803686157354 0 1 0 I I #
edge $-1 $350 -2.6475331423782413 $353 2.6475331423782413 $268 $399 forward 7 unknown #
vertex $-1 $269 $400 #
straight-curve $-1 60.503555406353954 42.330683382778496 -3.7050859161407472 0 -1 0 I I #
point $-1 60.503555406353954 38.161352273282809 -3.7050859161407472 #
coedge $-1 $347 $272 $275 $359 forward $174 $-1 #
straight-curve $-1 0 38.161352273282809 -3.7050859161407472 1 0 0 I I #
coedge $-1 $275 $274 $396 $401 forward $276 $-1 #
edge $-1 $277 -4.1693311094956869 $402 4.1693311094956869 $275 $403 forward 7 unknown #
point $-1 -60.503555406353954 38.161352273282809 -3.7050859161407472 #
vertex $-1 $349 $404 #
straight-curve $-1 -60.503555406353954 42.330683382778496 1.5899803686157354 0 -1 0 I I #
coedge $-1 $293 $292 $285 $364 forward $282 $-1 #
edge $-1 $365 76.354092030471548 $368 85.45725700679715 $363 $405 forward 7 unknown #
vertex $-1 $297 $406 #
straight-curve $-1 27.26560500877401 -29.822690054291428 9.2143005742289148 1 0 0 I I #
edge $-1 $368 -18.589197262487648 $294 -3.87778832111991 $293 $407 forward 7 unknown #
vertex $-1 $367 $408 #
straight-curve $-1 -27.99544209379782 -29.822690054291428 82.637787709249153 -0.7313536940579346 0 0.68199836817093118 I I #
point $-1 50.741606340537544 -29.822690054291428 9.2143005742289148 #
point $-1 60.503555406353954 -15.11128111292369 0.11113559790331351 #
straight-curve $-1 60.503555406353954 0 9.2143005742289166 0 1 0 I I #
vertex $-1 $300 $409 #
point $-1 55.164792663493252 -26.880408266017884 2.70552117660025 #
vertex $-1 $304 $410 #
point $-1 55.164792663493252 -22.46698558360756 2.70552117660025 #
vertex $-1 $308 $411 #
point $-1 55.164792663493252 -18.053562901197239 2.70552117660025 #
straight-curve $-1 -60.503555406353954 38.161352273282809 0 0 0 -1 I I #
point $-1 -60.503555406353954 -38.161352273282809 -9.2143005742289166 #
straight-curve $-1 -60.503555406353954 0 -9.2143005742289166 0 1 0 I I #
point $-1 -60.503555406353954 38.161352273282809 -9.2143005742289166 #
coedge $-1 $387 $329 $330 $384 reversed $242 $-1 #
edge $-1 $385 -60.503555406353954 $338 60.503555406353954 $383 $412 forward 7 unknown #
vertex $-1 $389 $413 #
straight-curve $-1 60.503555406353954 -42.330683382778496 -3.7050859161407472 0 -1 0 I I #
coedge $-1 $332 $383 $334 $389 reversed $242 $-1 #
straight-curve $-1 0 -46.500014492274182 1.5899803686157354 1 0 0 I I #
edge $-1 $335 -2.6475331423782413 $385 2.6475331423782413 $334 $414 forward 7 unknown #
point $-1 60.503555406353954 -46.500014492274182 1.5899803686157354 #
straight-curve $-1 -60.503555406353954 -46.500014492274182 -1.0575527737625059 0 0 -1 I I #
point $-1 -60.503555406353954 -46.500014492274182 -3.7050859161407472 #
point $-1 -60.503555406353954 -46.500014492274182 1.5899803686157354 #
coedge $-1 $396 $346 $347 $395 reversed $263 $-1 #
edge $-1 $402 -60.503555406353954 $353 60.503555406353954 $394 $415 forward 7 unknown #
coedge $-1 $348 $394 $358 $401 reversed $263 $-1 #
straight-curve $-1 0 46.500014492274182 1.5899803686157354 -1 0 0 I I #
point $-1 60.503555406353954 46.500014492274182 1.5899803686157354 #
straight-curve $-1 60.503555406353954 46.500014492274182 -1.0575527737625059 0 0 -1 I I #
point $-1 60.503555406353954 46.500014492274182 -3.7050859161407472 #
edge $-1 $361 -2.6475331423782413 $402 2.6475331423782413 $396 $416 forward 7 unknown #
vertex $-1 $395 $417 #
straight-curve $-1 -60.503555406353954 42.330683382778496 -3.7050859161407472 0 1 0 I I #
point $-1 -60.503555406353954 46.500014492274182 1.5899803686157354 #
straight-curve $-1 60.503555406353954 -29.822690054291428 85.568392604700463 0 0 -1 I I #
point $-1 60.503555406353954 -29.822690054291428 9.2143005742289166 #
straight-curve $-1 60.503555406353946 -11.23349279180378 0.11113559790331351 0 1 0 I I #
point $-1 60.503555406353954 -29.822690054291428 0.11113559790331351 #
point $-1 53.751440601264385 -26.880408266017884 2.6561658507132462 #
point $-1 53.751440601264385 -22.46698558360756 2.6561658507132462 #
point $-1 53.751440601264385 -18.053562901197239 2.6561658507132462 #
straight-curve $-1 0 -46.500014492274182 -3.7050859161407472 -1 0 0 I I #
point $-1 60.503555406353954 -46.500014492274182 -3.7050859161407472 #
straight-curve $-1 60.503555406353954 -46.500014492274182 -1.0575527737625059 0 0 -1 I I #
straight-curve $-1 0 46.500014492274182 -3.7050859161407472 1 0 0 I I #
straight-curve $-1 -60.503555406353954 46.500014492274182 -1.0575527737625059 0 0 -1 I I #
point $-1 -60.503555406353954 46.500014492274182 -3.7050859161407472 #
End-of-ACIS-data 