500 0 9 0           
7 Unknown 11 ACIS 5.0 NT 24 Fri Mar 26 19:51:52 1999 
-1 9.9999999999999995e-007 1e-010 
body $-1 $9 $-1 $10 #
body $-1 $11 $-1 $12 #
body $-1 $13 $-1 $14 #
body $-1 $15 $-1 $16 #
body $-1 $17 $-1 $18 #
body $-1 $19 $-1 $20 #
body $-1 $21 $-1 $22 #
body $-1 $23 $-1 $24 #
body $-1 $25 $-1 $26 #
lump $-1 $-1 $27 $0 #
transform $-1 1 0 0 0 1 0 0 0 1 46.134220404675432 21.819668591004898 9.8084960624428774 1 rotate no_reflect no_shear #
lump $-1 $-1 $28 $1 #
transform $-1 1 0 0 0 1 0 0 0 1 46.134220404675432 21.819668591004898 9.8084960624428774 1 rotate no_reflect no_shear #
lump $-1 $-1 $29 $2 #
transform $-1 1 0 0 0 1 0 0 0 1 46.134220404675432 21.819668591004898 9.8084960624428774 1 rotate no_reflect no_shear #
lump $-1 $-1 $30 $3 #
transform $-1 1 0 0 0 1 0 0 0 1 46.134220404675432 21.819668591004898 9.8084960624428774 1 rotate no_reflect no_shear #
lump $-1 $-1 $31 $4 #
transform $-1 1 0 0 0 1 0 0 0 1 46.134220404675432 21.819668591004898 9.8084960624428774 1 rotate no_reflect no_shear #
lump $-1 $-1 $32 $5 #
transform $-1 1 0 0 0 1 0 0 0 1 46.134220404675432 21.819668591004898 9.8084960624428774 1 rotate no_reflect no_shear #
lump $-1 $-1 $33 $6 #
transform $-1 1 0 0 0 1 0 0 0 1 46.134220404675432 21.819668591004898 9.8084960624428774 1 rotate no_reflect no_shear #
lump $-1 $-1 $34 $7 #
transform $-1 1 0 0 0 1 0 0 0 1 46.134220404675432 21.819668591004898 9.8084960624428774 1 rotate no_reflect no_shear #
lump $-1 $-1 $35 $8 #
transform $-1 1 0 0 0 1 0 0 0 1 46.134220404675432 21.819668591004898 9.8084960624428774 1 rotate no_reflect no_shear #
shell $-1 $-1 $-1 $36 $-1 $9 #
shell $-1 $-1 $-1 $37 $-1 $11 #
shell $-1 $-1 $-1 $38 $-1 $13 #
shell $-1 $-1 $-1 $39 $-1 $15 #
shell $-1 $-1 $-1 $40 $-1 $17 #
shell $-1 $-1 $-1 $41 $-1 $19 #
shell $-1 $-1 $-1 $42 $-1 $21 #
shell $-1 $-1 $-1 $43 $-1 $23 #
shell $-1 $-1 $-1 $44 $-1 $25 #
face $-1 $45 $46 $27 $-1 $47 forward single #
face $-1 $48 $49 $28 $-1 $50 forward single #
face $-1 $51 $52 $29 $-1 $53 reversed single #
face $-1 $54 $55 $30 $-1 $56 forward single #
face $-1 $57 $58 $31 $-1 $59 forward single #
face $-1 $60 $61 $32 $-1 $62 forward single #
face $-1 $63 $64 $33 $-1 $65 reversed single #
face $-1 $66 $67 $34 $-1 $68 forward single #
face $-1 $69 $70 $35 $-1 $71 forward single #
face $-1 $72 $73 $27 $-1 $74 reversed single #
loop $-1 $-1 $75 $36 #
plane-surface $-1 0 0 9.8084960624428774 0 0 1 1 0 0 forward_v I I I I #
face $-1 $76 $77 $28 $-1 $78 reversed single #
loop $-1 $-1 $79 $37 #
plane-surface $-1 -42.218287536258153 0 -4.4173977663267756 0 0 1 1 0 0 forward_v I I I I #
face $-1 $80 $81 $29 $-1 $82 reversed single #
loop $-1 $-1 $83 $38 #
plane-surface $-1 26.506395194254907 -102.51946597343847 45.451770889948385 1 0 0 0 0.87461971476443456 -0.48480960649040278 forward_v I I I I #
face $-1 $84 $85 $30 $-1 $86 forward single #
loop $-1 $87 $88 $39 #
cone-surface $-1 30.431960236339009 -18.716270597863591 4.9399689872684949 0 0.87461971476443456 -0.48480960649040278 0.5 0 0 1 I I 0 1 0.5 forward I I I I #
face $-1 $89 $90 $31 $-1 $91 forward single #
loop $-1 $92 $93 $40 #
cone-surface $-1 36.320307799465169 -18.716270597863591 4.9399689872684949 0 0.87461971476443456 -0.48480960649040278 0.5 0 0 1 I I 0 1 0.5 forward I I I I #
face $-1 $94 $95 $32 $-1 $96 forward single #
loop $-1 $97 $98 $41 #
cone-surface $-1 42.20865536259133 -18.716270597863591 4.9399689872684949 0 0.87461971476443456 -0.48480960649040278 0.5 0 0 1 I I 0 1 0.5 forward I I I I #
face $-1 $99 $100 $33 $-1 $101 reversed single #
loop $-1 $-1 $102 $42 #
plane-surface $-1 -38.302354667840874 75.434809032943136 87.279435532824664 1 0 0 0 -0.83867057594974714 -0.54463902268945019 forward_v I I I I #
face $-1 $103 $104 $34 $-1 $105 forward single #
loop $-1 $106 $107 $43 #
cone-surface $-1 -31.663358740741735 15.611272483310788 3.0643183870484694 0 -0.83867057594974714 -0.54463902268945019 2.5 0 0 1 I I 0 1 2.5 forward I I I I #
face $-1 $108 $109 $35 $-1 $110 forward single #
loop $-1 $111 $112 $44 #
cone-surface $-1 -21.704864850093024 15.611272483310788 3.0643183870484694 0 -0.83867057594974714 -0.54463902268945019 2.5 0 0 1 I I 0 1 2.5 forward I I I I #
face $-1 $113 $114 $27 $-1 $115 reversed single #
loop $-1 $-1 $116 $45 #
plane-surface $-1 0 0 -9.8084960624428774 0 0 1 1 0 0 forward_v I I I I #
coedge $-1 $117 $118 $119 $120 forward $46 $-1 #
face $-1 $121 $122 $28 $-1 $123 reversed single #
loop $-1 $-1 $124 $48 #
plane-surface $-1 -42.218287536258153 0 -7.4173977663267756 0 0 1 1 0 0 forward_v I I I I #
coedge $-1 $125 $126 $127 $128 forward $49 $-1 #
face $-1 $129 $130 $29 $-1 $131 forward single #
loop $-1 $-1 $132 $51 #
plane-surface $-1 36.320307799465169 -21.819668591004898 0.71914440968397031 0 -0.87461971476443456 0.48480960649040278 1 0 0 forward_v I I I I #
coedge $-1 $133 $134 $135 $136 reversed $52 $-1 #
face $-1 $-1 $137 $30 $-1 $138 forward single #
loop $-1 $139 $140 $54 #
cone-surface $-1 30.431960236339009 -17.913372529071388 4.494915336850962 0 0.87461971476443456 -0.48480960649040278 0.25 0 0 1 I I -0.70710678118654746 0.70710678118654746 0.25 forward I I I I #
loop $-1 $-1 $141 $39 #
coedge $-1 $88 $88 $142 $143 reversed $55 $-1 #
face $-1 $-1 $144 $31 $-1 $145 forward single #
loop $-1 $146 $147 $57 #
cone-surface $-1 36.320307799465169 -17.913372529071388 4.494915336850962 0 0.87461971476443456 -0.48480960649040278 0.25 0 0 1 I I -0.70710678118654746 0.70710678118654746 0.25 forward I I I I #
loop $-1 $-1 $148 $40 #
coedge $-1 $93 $93 $149 $150 reversed $58 $-1 #
face $-1 $-1 $151 $32 $-1 $152 forward single #
loop $-1 $153 $154 $60 #
cone-surface $-1 42.20865536259133 -17.913372529071388 4.494915336850962 0 0.87461971476443456 -0.48480960649040278 0.25 0 0 1 I I -0.70710678118654746 0.70710678118654746 0.25 forward I I I I #
loop $-1 $-1 $155 $41 #
coedge $-1 $98 $98 $156 $157 reversed $61 $-1 #
face $-1 $158 $159 $33 $-1 $160 reversed single #
loop $-1 $-1 $161 $63 #
plane-surface $-1 -26.68411179541738 -1.9480173626203054 37.026442105340429 0 0.83867057594974714 0.54463902268945019 1 0 0 forward_v I I I I #
coedge $-1 $162 $163 $164 $165 reversed $64 $-1 #
face $-1 $-1 $166 $34 $-1 $167 forward single #
loop $-1 $168 $169 $66 #
cone-surface $-1 -31.663358740741735 11.400611001096586 0.32988293609416175 0 -0.83867057594974714 -0.54463902268945019 1.25 0 0 1 I I -0.70710678118654757 0.70710678118654735 1.25 forward I I I I #
loop $-1 $-1 $170 $43 #
coedge $-1 $107 $107 $171 $172 reversed $67 $-1 #
face $-1 $-1 $173 $35 $-1 $174 forward single #
loop $-1 $175 $176 $69 #
cone-surface $-1 -21.704864850093024 11.400611001096586 0.32988293609416175 0 -0.83867057594974714 -0.54463902268945019 1.25 0 0 1 I I -0.70710678118654757 0.70710678118654735 1.25 forward I I I I #
loop $-1 $-1 $177 $44 #
coedge $-1 $112 $112 $178 $179 reversed $70 $-1 #
face $-1 $180 $181 $27 $-1 $182 reversed single #
loop $-1 $-1 $183 $72 #
plane-surface $-1 0 -21.819668591004898 0 0 1 0 0 0 1 forward_v I I I I #
coedge $-1 $184 $185 $186 $187 forward $73 $-1 #
coedge $-1 $188 $75 $189 $190 forward $46 $-1 #
coedge $-1 $75 $188 $191 $192 forward $46 $-1 #
coedge $-1 $193 $194 $75 $120 reversed $195 $-1 #
edge $-1 $196 -21.819668591004898 $197 21.819668591004898 $119 $198 forward 7 unknown #
face $-1 $199 $200 $28 $-1 $201 reversed single #
loop $-1 $-1 $202 $76 #
plane-surface $-1 -38.302354667840874 0 -5.9173977663267756 -1 0 0 0 0 1 forward_v I I I I #
coedge $-1 $203 $204 $205 $206 forward $77 $-1 #
coedge $-1 $207 $79 $208 $209 reversed $49 $-1 #
coedge $-1 $79 $207 $210 $211 reversed $49 $-1 #
coedge $-1 $202 $212 $79 $128 reversed $122 $-1 #
edge $-1 $213 -21.819668591004898 $214 21.819668591004898 $127 $215 forward 7 unknown #
face $-1 $216 $217 $29 $-1 $218 reversed single #
loop $-1 $-1 $219 $80 #
plane-surface $-1 0 0 9.8084960624428774 0 0 1 1 0 0 forward_v I I I I #
coedge $-1 $220 $221 $222 $223 reversed $81 $-1 #
coedge $-1 $134 $83 $224 $225 reversed $52 $-1 #
coedge $-1 $83 $133 $220 $226 reversed $52 $-1 #
coedge $-1 $222 $227 $83 $136 forward $217 $-1 #
edge $-1 $228 12.917389382531315 $229 22.006741035290222 $135 $230 forward 7 unknown #
loop $-1 $-1 $142 $84 #
plane-surface $-1 36.320307799465169 -21.819668591004898 0.71914440968397031 0 -0.87461971476443456 0.48480960649040278 1 0 0 forward_v I I I I #
loop $-1 $-1 $231 $54 #
coedge $-1 $140 $140 $141 $232 reversed $85 $-1 #
coedge $-1 $141 $141 $140 $232 forward $87 $-1 #
coedge $-1 $142 $142 $88 $143 forward $137 $-1 #
edge $-1 $233 0 $233 6.2831853071796004 $142 $234 forward 7 unknown #
loop $-1 $-1 $149 $89 #
plane-surface $-1 36.320307799465169 -21.819668591004898 0.71914440968397031 0 -0.87461971476443456 0.48480960649040278 1 0 0 forward_v I I I I #
loop $-1 $-1 $235 $57 #
coedge $-1 $147 $147 $148 $236 reversed $90 $-1 #
coedge $-1 $148 $148 $147 $236 forward $92 $-1 #
coedge $-1 $149 $149 $93 $150 forward $144 $-1 #
edge $-1 $237 0 $237 6.2831853071796004 $149 $238 forward 7 unknown #
loop $-1 $-1 $156 $94 #
plane-surface $-1 36.320307799465169 -21.819668591004898 0.71914440968397031 0 -0.87461971476443456 0.48480960649040278 1 0 0 forward_v I I I I #
loop $-1 $-1 $239 $60 #
coedge $-1 $154 $154 $155 $240 reversed $95 $-1 #
coedge $-1 $155 $155 $154 $240 forward $97 $-1 #
coedge $-1 $156 $156 $98 $157 forward $151 $-1 #
edge $-1 $241 0 $241 6.2831853071796004 $156 $242 forward 7 unknown #
face $-1 $243 $244 $33 $-1 $245 reversed single #
loop $-1 $-1 $246 $99 #
plane-surface $-1 -15.065868922993884 75.434809032943136 87.279435532824664 -1 0 0 0 0.83867057594974714 0.54463902268945019 forward_v I I I I #
coedge $-1 $247 $248 $249 $250 reversed $100 $-1 #
coedge $-1 $163 $102 $251 $252 reversed $64 $-1 #
coedge $-1 $102 $162 $247 $253 reversed $64 $-1 #
coedge $-1 $249 $254 $102 $165 forward $255 $-1 #
edge $-1 $256 15.897735925466669 $257 21.989881616300828 $164 $258 forward 7 unknown #
loop $-1 $-1 $171 $103 #
plane-surface $-1 -26.68411179541738 -1.9480173626203054 37.026442105340429 0 0.83867057594974714 0.54463902268945019 1 0 0 forward_v I I I I #
loop $-1 $-1 $259 $66 #
coedge $-1 $169 $169 $170 $260 reversed $104 $-1 #
coedge $-1 $170 $170 $169 $260 forward $106 $-1 #
coedge $-1 $171 $171 $107 $172 forward $166 $-1 #
edge $-1 $261 6.1709334646513529e-017 $261 6.2831853071796004 $171 $262 forward 7 unknown #
loop $-1 $-1 $178 $108 #
plane-surface $-1 -26.68411179541738 -1.9480173626203054 37.026442105340429 0 0.83867057594974714 0.54463902268945019 1 0 0 forward_v I I I I #
loop $-1 $-1 $263 $69 #
coedge $-1 $176 $176 $177 $264 reversed $109 $-1 #
coedge $-1 $177 $177 $176 $264 forward $111 $-1 #
coedge $-1 $178 $178 $112 $179 forward $173 $-1 #
edge $-1 $265 6.1709334646513529e-017 $265 6.2831853071796004 $178 $266 forward 7 unknown #
face $-1 $267 $268 $27 $-1 $269 reversed single #
loop $-1 $-1 $270 $113 #
plane-surface $-1 -46.134220404675432 0 0 1 0 0 0 0 -1 forward_v I I I I #
coedge $-1 $271 $191 $272 $273 forward $114 $-1 #
coedge $-1 $274 $116 $271 $275 forward $73 $-1 #
coedge $-1 $116 $274 $276 $277 forward $73 $-1 #
coedge $-1 $194 $193 $116 $187 reversed $195 $-1 #
edge $-1 $278 -21.819668591004898 $279 21.819668591004898 $186 $280 forward 7 unknown #
coedge $-1 $118 $117 $281 $282 forward $46 $-1 #
coedge $-1 $283 $284 $117 $190 reversed $268 $-1 #
edge $-1 $197 -46.134220404675432 $285 46.134220404675432 $189 $286 forward 7 unknown #
coedge $-1 $183 $287 $118 $192 reversed $114 $-1 #
edge $-1 $288 -46.134220404675432 $196 46.134220404675432 $191 $289 forward 7 unknown #
coedge $-1 $186 $119 $287 $290 forward $195 $-1 #
coedge $-1 $119 $186 $283 $291 reversed $195 $-1 #
loop $-1 $-1 $193 $267 #
vertex $-1 $120 $292 #
vertex $-1 $120 $293 #
straight-curve $-1 46.134220404675432 0 9.8084960624428774 0 1 0 I I #
face $-1 $294 $295 $28 $-1 $296 reversed single #
loop $-1 $-1 $297 $121 #
plane-surface $-1 0 -21.819668591004898 0 0 1 0 0 0 1 forward_v I I I I #
coedge $-1 $205 $127 $298 $299 reversed $122 $-1 #
coedge $-1 $300 $124 $297 $301 reversed $77 $-1 #
coedge $-1 $124 $300 $302 $303 reversed $77 $-1 #
coedge $-1 $212 $202 $124 $206 reversed $122 $-1 #
edge $-1 $304 -21.819668591004898 $305 21.819668591004898 $205 $306 forward 7 unknown #
coedge $-1 $126 $125 $307 $308 reversed $49 $-1 #
coedge $-1 $309 $310 $125 $209 forward $311 $-1 #
edge $-1 $312 -25.025076636546356 $214 -17.193210899711797 $208 $313 forward 7 unknown #
coedge $-1 $314 $298 $126 $211 forward $200 $-1 #
edge $-1 $213 17.193210899711797 $315 25.025076636546356 $210 $316 forward 7 unknown #
coedge $-1 $127 $205 $309 $317 reversed $122 $-1 #
vertex $-1 $211 $318 #
vertex $-1 $209 $319 #
straight-curve $-1 -38.302354667840874 0 -4.4173977663267756 0 1 0 I I #
face $-1 $-1 $320 $29 $-1 $321 reversed single #
loop $-1 $-1 $135 $129 #
plane-surface $-1 0 -21.819668591004898 0 0 1 0 0 0 1 forward_v I I I I #
coedge $-1 $224 $322 $323 $324 forward $130 $-1 #
coedge $-1 $323 $132 $134 $226 forward $81 $-1 #
coedge $-1 $132 $323 $325 $326 reversed $81 $-1 #
coedge $-1 $327 $135 $132 $223 forward $217 $-1 #
edge $-1 $229 8.3462412945223221 $328 27.974066504942847 $222 $329 forward 7 unknown #
coedge $-1 $330 $219 $133 $225 forward $130 $-1 #
edge $-1 $331 -34.478374101794756 $228 -29.440064395714337 $224 $332 forward 7 unknown #
edge $-1 $229 0 $331 10.392347095911262 $134 $333 forward 7 unknown #
coedge $-1 $135 $327 $330 $334 reversed $217 $-1 #
vertex $-1 $334 $335 #
vertex $-1 $136 $336 #
straight-curve $-1 26.506395194254907 -21.819668591004898 22.725885444974192 0 0 -1 I I #
coedge $-1 $231 $231 $-1 $337 reversed $139 $-1 #
edge $-1 $338 0 $338 6.2831853071796004 $140 $339 forward 7 unknown #
vertex $-1 $143 $340 #
ellipse-curve $-1 30.431960236339009 -19.300513737964689 5.2638202360634274 0 -0.87461971476443456 0.48480960649040278 0.5 0 0 1 I I #
coedge $-1 $235 $235 $-1 $341 reversed $146 $-1 #
edge $-1 $342 0 $342 6.2831853071796004 $147 $343 forward 7 unknown #
vertex $-1 $150 $344 #
ellipse-curve $-1 36.320307799465169 -19.300513737964689 5.2638202360634274 0 -0.87461971476443456 0.48480960649040278 0.5 0 0 1 I I #
coedge $-1 $239 $239 $-1 $345 reversed $153 $-1 #
edge $-1 $346 0 $346 6.2831853071796004 $154 $347 forward 7 unknown #
vertex $-1 $157 $348 #
ellipse-curve $-1 42.20865536259133 -19.300513737964689 5.2638202360634274 0 -0.87461971476443456 0.48480960649040278 0.5 0 0 1 I I #
face $-1 $-1 $255 $33 $-1 $349 forward single #
loop $-1 $-1 $350 $158 #
plane-surface $-1 0 21.819668591004898 0 0 -1 0 0 0 -1 forward_v I I I I #
coedge $-1 $351 $352 $353 $354 reversed $159 $-1 #
coedge $-1 $355 $161 $163 $253 forward $100 $-1 #
coedge $-1 $161 $355 $351 $356 forward $100 $-1 #
coedge $-1 $353 $164 $161 $250 forward $255 $-1 #
edge $-1 $257 -24.960298770132184 $357 -1.7238130252851942 $249 $358 forward 7 unknown #
coedge $-1 $359 $360 $162 $252 forward $244 $-1 #
edge $-1 $361 -43.212303709573284 $256 -33.831221703969454 $251 $362 forward 7 unknown #
edge $-1 $257 32.453679458200575 $361 43.639337182009811 $163 $363 forward 7 unknown #
coedge $-1 $164 $353 $359 $364 forward $255 $-1 #
loop $-1 $-1 $353 $243 #
vertex $-1 $252 $365 #
vertex $-1 $165 $366 #
straight-curve $-1 -38.302354667840874 37.717404516471568 9.8084960624428774 0 -1 0 I I #
coedge $-1 $259 $259 $-1 $367 reversed $168 $-1 #
edge $-1 $368 0 $368 6.2831853071796004 $169 $369 forward 7 unknown #
vertex $-1 $172 $370 #
ellipse-curve $-1 -31.663358740741735 18.773595745587819 5.1179550596409715 0 0.83867057594974714 0.54463902268945019 2.5 0 0 1 I I #
coedge $-1 $263 $263 $-1 $371 reversed $175 $-1 #
edge $-1 $372 0 $372 6.2831853071796004 $176 $373 forward 7 unknown #
vertex $-1 $179 $374 #
ellipse-curve $-1 -21.704864850093024 18.773595745587819 5.1179550596409715 0 0.83867057594974714 0.54463902268945019 2.5 0 0 1 I I #
face $-1 $-1 $195 $27 $-1 $375 reversed single #
loop $-1 $-1 $283 $180 #
plane-surface $-1 0 21.819668591004898 0 0 -1 0 0 0 -1 forward_v I I I I #
coedge $-1 $376 $281 $284 $377 forward $181 $-1 #
coedge $-1 $287 $183 $184 $275 reversed $114 $-1 #
coedge $-1 $281 $376 $183 $273 reversed $181 $-1 #
edge $-1 $288 -9.8084960624428774 $378 9.8084960624428774 $272 $379 forward 7 unknown #
coedge $-1 $185 $184 $376 $380 forward $73 $-1 #
edge $-1 $279 -46.134220404675432 $378 46.134220404675432 $271 $381 forward 7 unknown #
coedge $-1 $284 $283 $185 $277 reversed $268 $-1 #
edge $-1 $382 -46.134220404675432 $278 46.134220404675432 $276 $383 forward 7 unknown #
vertex $-1 $187 $384 #
vertex $-1 $290 $385 #
straight-curve $-1 46.134220404675432 0 -9.8084960624428774 0 -1 0 I I #
coedge $-1 $270 $272 $188 $282 reversed $181 $-1 #
edge $-1 $285 -21.819668591004898 $288 21.819668591004898 $281 $386 forward 7 unknown #
coedge $-1 $276 $189 $194 $291 forward $268 $-1 #
coedge $-1 $189 $276 $270 $377 reversed $268 $-1 #
vertex $-1 $190 $387 #
straight-curve $-1 0 21.819668591004898 9.8084960624428774 -1 0 0 I I #
coedge $-1 $191 $271 $193 $290 reversed $114 $-1 #
vertex $-1 $282 $388 #
straight-curve $-1 0 -21.819668591004898 9.8084960624428774 1 0 0 I I #
edge $-1 $196 -9.8084960624428774 $279 9.8084960624428774 $193 $389 forward 7 unknown #
edge $-1 $197 -9.8084960624428774 $278 9.8084960624428774 $194 $390 forward 7 unknown #
point $-1 46.134220404675432 -21.819668591004898 9.8084960624428774 #
point $-1 46.134220404675432 21.819668591004898 9.8084960624428774 #
face $-1 $-1 $311 $28 $-1 $391 reversed single #
loop $-1 $-1 $392 $199 #
plane-surface $-1 -46.134220404675432 0 0 1 0 0 0 0 -1 forward_v I I I I #
coedge $-1 $298 $314 $203 $301 forward $200 $-1 #
coedge $-1 $210 $297 $202 $299 forward $200 $-1 #
edge $-1 $305 -4.4586988831633878 $213 -1.4586988831633878 $298 $393 forward 7 unknown #
coedge $-1 $204 $203 $392 $394 reversed $77 $-1 #
edge $-1 $395 -25.025076636546356 $305 -17.193210899711797 $297 $396 forward 7 unknown #
coedge $-1 $310 $309 $204 $303 forward $311 $-1 #
edge $-1 $304 17.193210899711797 $397 25.025076636546356 $302 $398 forward 7 unknown #
vertex $-1 $303 $399 #
vertex $-1 $301 $400 #
straight-curve $-1 -38.302354667840874 0 -7.4173977663267756 0 -1 0 I I #
coedge $-1 $401 $402 $207 $308 forward $295 $-1 #
edge $-1 $315 -21.819668591004898 $312 21.819668591004898 $307 $403 forward 7 unknown #
coedge $-1 $302 $208 $212 $317 forward $311 $-1 #
coedge $-1 $208 $302 $401 $404 reversed $311 $-1 #
loop $-1 $-1 $302 $294 #
vertex $-1 $404 $405 #
straight-curve $-1 -21.109143768129076 21.819668591004898 -4.4173977663267756 1 0 0 I I #
coedge $-1 $297 $210 $402 $406 forward $200 $-1 #
vertex $-1 $406 $407 #
straight-curve $-1 -21.109143768129076 -21.819668591004898 -4.4173977663267756 -1 0 0 I I #
edge $-1 $214 1.4586988831633878 $304 4.4586988831633878 $309 $408 forward 7 unknown #
point $-1 -38.302354667840874 -21.819668591004898 -4.4173977663267756 #
point $-1 -38.302354667840874 21.819668591004898 -4.4173977663267756 #
loop $-1 $-1 $325 $216 #
plane-surface $-1 46.134220404675432 0 0 -1 0 0 0 0 1 forward_v I I I I #
coedge $-1 $219 $330 $409 $410 forward $130 $-1 #
coedge $-1 $221 $220 $219 $324 reversed $81 $-1 #
edge $-1 $411 -27.974066504942847 $331 -8.3462412945223221 $219 $412 forward 7 unknown #
coedge $-1 $409 $413 $221 $326 forward $320 $-1 #
edge $-1 $328 -4.9747035324419269 $411 5.4176435634693352 $325 $414 forward 7 unknown #
coedge $-1 $227 $222 $413 $415 reversed $217 $-1 #
vertex $-1 $223 $416 #
straight-curve $-1 18.160153899732585 -21.819668591004898 0.71914440968396809 1 0 0 I I #
coedge $-1 $322 $224 $227 $334 forward $130 $-1 #
vertex $-1 $225 $417 #
straight-curve $-1 26.506395194254907 -51.259732986719236 9.8084960624428774 0 -1 0 I I #
straight-curve $-1 26.506395194254907 -21.819668591004898 0.71914440968397031 0 0.48480960649040278 0.87461971476443456 I I #
edge $-1 $228 26.506395194254907 $418 46.134220404675432 $227 $419 forward 7 unknown #
point $-1 26.506395194254907 -21.819668591004898 9.8084960624428774 #
point $-1 26.506395194254907 -21.819668591004898 0.71914440968397031 #
edge $-1 $420 1 $420 0 $231 $-1 forward 7 unknown #
vertex $-1 $232 $421 #
ellipse-curve $-1 30.431960236339009 -18.132027457762497 4.6161177384735623 0 -0.87461971476443456 0.48480960649040278 0.5 0 0 1 I I #
point $-1 30.931960236339009 -19.300513737964689 5.2638202360634274 #
edge $-1 $422 1 $422 0 $235 $-1 forward 7 unknown #
vertex $-1 $236 $423 #
ellipse-curve $-1 36.320307799465169 -18.132027457762497 4.6161177384735623 0 -0.87461971476443456 0.48480960649040278 0.5 0 0 1 I I #
point $-1 36.820307799465169 -19.300513737964689 5.2638202360634274 #
edge $-1 $424 1 $424 0 $239 $-1 forward 7 unknown #
vertex $-1 $240 $425 #
ellipse-curve $-1 42.20865536259133 -18.132027457762497 4.6161177384735623 0 -0.87461971476443456 0.48480960649040278 0.5 0 0 1 I I #
point $-1 42.70865536259133 -19.300513737964689 5.2638202360634274 #
plane-surface $-1 0 0 9.8084960624428774 0 0 1 1 0 0 forward_v I I I I #
coedge $-1 $360 $359 $352 $426 forward $244 $-1 #
coedge $-1 $352 $246 $248 $356 reversed $159 $-1 #
coedge $-1 $246 $351 $350 $426 reversed $159 $-1 #
coedge $-1 $254 $249 $246 $354 forward $255 $-1 #
edge $-1 $357 -21.989881616300828 $427 -15.897735925466669 $353 $428 forward 7 unknown #
coedge $-1 $248 $247 $360 $429 reversed $100 $-1 #
edge $-1 $430 -43.639337182009811 $357 -32.453679458200575 $351 $431 forward 7 unknown #
vertex $-1 $250 $432 #
straight-curve $-1 -13.34205589770869 15.727522900170738 9.808496062442881 1 0 0 I I #
coedge $-1 $350 $251 $254 $364 reversed $244 $-1 #
coedge $-1 $251 $350 $355 $429 forward $244 $-1 #
vertex $-1 $252 $433 #
straight-curve $-1 -38.302354667840874 21.819668591004898 43.639717766412332 0 0 1 I I #
straight-curve $-1 -38.302354667840874 -1.9480173626203054 37.026442105340429 0 0.54463902268945019 -0.83867057594974714 I I #
edge $-1 $427 15.065868922993884 $256 38.302354667840874 $359 $434 forward 7 unknown #
point $-1 -38.302354667840874 21.819668591004898 9.8084960624428774 #
point $-1 -38.302354667840874 15.72752290017074 9.8084960624428739 #
edge $-1 $435 1 $435 0 $259 $-1 forward 7 unknown #
vertex $-1 $260 $436 #
ellipse-curve $-1 -31.663358740741735 12.44894922103377 1.0106817144559743 0 0.83867057594974714 0.54463902268945019 2.5 0 0 1 I I #
point $-1 -29.163358740741735 18.773595745587809 5.1179550596409644 #
edge $-1 $437 1 $437 0 $263 $-1 forward 7 unknown #
vertex $-1 $264 $438 #
ellipse-curve $-1 -21.704864850093024 12.44894922103377 1.0106817144559743 0 0.83867057594974714 0.54463902268945019 2.5 0 0 1 I I #
point $-1 -19.204864850093024 18.773595745587809 5.1179550596409644 #
plane-surface $-1 46.134220404675432 0 0 -1 0 0 0 0 1 forward_v I I I I #
coedge $-1 $272 $270 $274 $380 reversed $181 $-1 #
edge $-1 $285 -9.8084960624428774 $382 9.8084960624428774 $284 $439 forward 7 unknown #
vertex $-1 $380 $440 #
straight-curve $-1 -46.134220404675432 -21.819668591004898 0 0 0 -1 I I #
edge $-1 $378 -21.819668591004898 $382 21.819668591004898 $376 $441 forward 7 unknown #
straight-curve $-1 0 -21.819668591004898 -9.8084960624428774 -1 0 0 I I #
vertex $-1 $277 $442 #
straight-curve $-1 0 21.819668591004898 -9.8084960624428774 1 0 0 I I #
point $-1 46.134220404675432 21.819668591004898 -9.8084960624428774 #
point $-1 46.134220404675432 -21.819668591004898 -9.8084960624428774 #
straight-curve $-1 -46.134220404675432 0 9.8084960624428774 0 -1 0 I I #
point $-1 -46.134220404675432 21.819668591004898 9.8084960624428774 #
point $-1 -46.134220404675432 -21.819668591004898 9.8084960624428774 #
straight-curve $-1 46.134220404675432 -21.819668591004898 0 0 0 -1 I I #
straight-curve $-1 46.134220404675432 21.819668591004898 0 0 0 -1 I I #
plane-surface $-1 0 21.819668591004898 0 0 -1 0 0 0 -1 forward_v I I I I #
coedge $-1 $402 $401 $300 $394 forward $295 $-1 #
straight-curve $-1 -38.302354667840874 -21.819668591004898 -2.9586988831633878 0 0 1 I I #
edge $-1 $397 -21.819668591004898 $395 21.819668591004898 $392 $443 forward 7 unknown #
vertex $-1 $301 $444 #
straight-curve $-1 -21.109143768129076 -21.819668591004898 -7.4173977663267756 1 0 0 I I #
vertex $-1 $303 $445 #
straight-curve $-1 -21.109143768129076 21.819668591004898 -7.4173977663267756 -1 0 0 I I #
point $-1 -38.302354667840874 21.819668591004898 -7.4173977663267756 #
point $-1 -38.302354667840874 -21.819668591004898 -7.4173977663267756 #
coedge $-1 $392 $307 $310 $404 forward $295 $-1 #
coedge $-1 $307 $392 $314 $406 reversed $295 $-1 #
straight-curve $-1 -46.134220404675432 0 -4.4173977663267756 0 1 0 I I #
edge $-1 $312 4.4173977663267756 $397 7.4173977663267756 $310 $446 forward 7 unknown #
point $-1 -46.134220404675432 21.819668591004898 -4.4173977663267756 #
edge $-1 $315 4.4173977663267756 $395 7.4173977663267756 $402 $447 forward 7 unknown #
point $-1 -46.134220404675432 -21.819668591004898 -4.4173977663267756 #
straight-curve $-1 -38.302354667840874 21.819668591004898 -2.9586988831633878 0 0 -1 I I #
coedge $-1 $413 $325 $322 $410 reversed $320 $-1 #
edge $-1 $418 -21.819668591004898 $411 -16.781358884924479 $409 $448 forward 7 unknown #
vertex $-1 $326 $449 #
straight-curve $-1 18.160153899732585 -16.781358884924479 9.8084960624428774 -1 0 0 I I #
coedge $-1 $325 $409 $327 $415 forward $320 $-1 #
straight-curve $-1 46.134220404675432 -19.407884529035314 5.0701181942659543 0 0.48480960649040278 0.87461971476443456 I I #
edge $-1 $418 -9.8084960624428774 $328 -0.71914440968397031 $413 $450 forward 7 unknown #
point $-1 46.134220404675432 -21.819668591004898 0.71914440968397031 #
point $-1 26.506395194254907 -16.781358884924479 9.8084960624428774 #
vertex $-1 $410 $451 #
straight-curve $-1 0 -21.819668591004898 9.8084960624428774 1 0 0 I I #
vertex $-1 $337 $452 #
point $-1 30.931960236339009 -18.132027457762497 4.6161177384735623 #
vertex $-1 $341 $453 #
point $-1 36.820307799465169 -18.132027457762497 4.6161177384735623 #
vertex $-1 $345 $454 #
point $-1 42.70865536259133 -18.132027457762497 4.6161177384735623 #
edge $-1 $427 33.831221703969454 $430 43.212303709573284 $350 $455 forward 7 unknown #
vertex $-1 $364 $456 #
straight-curve $-1 -15.065868922993884 37.717404516471568 9.8084960624428774 0 1 0 I I #
edge $-1 $430 1.7238130252851942 $361 24.960298770132184 $360 $457 forward 7 unknown #
vertex $-1 $429 $458 #
straight-curve $-1 -15.065868922993884 -1.9480173626203054 37.026442105340429 0 -0.54463902268945019 0.83867057594974714 I I #
point $-1 -15.065868922993884 15.72752290017074 9.8084960624428739 #
point $-1 -38.302354667840874 21.819668591004898 0.42741405683904787 #
straight-curve $-1 0 21.819668591004898 9.8084960624428774 -1 0 0 I I #
vertex $-1 $367 $459 #
point $-1 -29.163358740741735 12.44894922103377 1.0106817144559743 #
vertex $-1 $371 $460 #
point $-1 -19.204864850093024 12.44894922103377 1.0106817144559743 #
straight-curve $-1 -46.134220404675432 21.819668591004898 0 0 0 -1 I I #
point $-1 -46.134220404675432 -21.819668591004898 -9.8084960624428774 #
straight-curve $-1 -46.134220404675432 0 -9.8084960624428774 0 1 0 I I #
point $-1 -46.134220404675432 21.819668591004898 -9.8084960624428774 #
straight-curve $-1 -46.134220404675432 0 -7.4173977663267756 0 -1 0 I I #
point $-1 -46.134220404675432 -21.819668591004898 -7.4173977663267756 #
point $-1 -46.134220404675432 21.819668591004898 -7.4173977663267756 #
straight-curve $-1 -46.134220404675432 21.819668591004898 0 0 0 -1 I I #
straight-curve $-1 -46.134220404675432 -21.819668591004898 0 0 0 -1 I I #
straight-curve $-1 46.134220404675432 0 9.8084960624428774 0 1 0 I I #
point $-1 46.134220404675432 -16.781358884924479 9.8084960624428774 #
straight-curve $-1 46.134220404675432 -21.819668591004898 0 0 0 -1 I I #
point $-1 46.134220404675432 -21.819668591004898 9.8084960624428774 #
point $-1 30.431960236339009 -17.69471760038028 4.3737129352283617 #
point $-1 36.320307799465169 -17.69471760038028 4.3737129352283617 #
point $-1 42.20865536259133 -17.69471760038028 4.3737129352283617 #
straight-curve $-1 -15.065868922993884 21.819668591004898 43.639717766412332 0 0 -1 I I #
point $-1 -15.065868922993884 21.819668591004898 9.8084960624428774 #
straight-curve $-1 -13.34205589770869 21.819668591004898 0.42741405683905143 -1 0 0 I I #
point $-1 -15.065868922993884 21.819668591004898 0.42741405683904787 #
point $-1 -31.663358740741735 10.352272781159401 -0.35091584226765071 #
point $-1 -21.704864850093024 10.352272781159401 -0.35091584226765071 #
End-of-ACIS-data 