500 0 4 0           
7 Unknown 11 ACIS 5.0 NT 24 Fri Mar 26 00:15:27 1999 
-1 9.9999999999999995e-007 1e-010 
body $-1 $4 $-1 $5 #
body $-1 $6 $-1 $7 #
body $-1 $8 $-1 $9 #
body $-1 $10 $-1 $11 #
lump $-1 $-1 $12 $0 #
transform $-1 1 0 0 0 1 0 0 0 1 55.635242774742878 28.666573729281637 10.222139574115587 1 rotate no_reflect no_shear #
lump $-1 $-1 $13 $1 #
transform $-1 1 0 0 0 1 0 0 0 1 55.635242774742878 28.666573729281637 10.222139574115587 1 rotate no_reflect no_shear #
lump $-1 $-1 $14 $2 #
transform $-1 1 0 0 0 1 0 0 0 1 55.635242774742878 28.666573729281637 10.222139574115587 1 rotate no_reflect no_shear #
lump $-1 $-1 $15 $3 #
transform $-1 1 0 0 0 1 0 0 0 1 55.635242774742878 28.666573729281637 10.222139574115587 1 rotate no_reflect no_shear #
shell $-1 $-1 $-1 $16 $-1 $4 #
shell $-1 $-1 $-1 $17 $-1 $6 #
shell $-1 $-1 $-1 $18 $-1 $8 #
shell $-1 $-1 $-1 $19 $-1 $10 #
face $-1 $20 $21 $12 $-1 $22 forward single #
face $-1 $23 $24 $13 $-1 $25 reversed single #
face $-1 $26 $27 $14 $-1 $28 reversed single #
face $-1 $29 $30 $15 $-1 $31 forward single #
face $-1 $32 $33 $12 $-1 $34 reversed single #
loop $-1 $-1 $35 $16 #
plane-surface $-1 0 0 10.222139574115587 0 0 1 1 0 0 forward_v I I I I #
face $-1 $36 $37 $13 $-1 $38 reversed single #
loop $-1 $-1 $39 $17 #
plane-surface $-1 -54.0184869428738 -16.460202903211709 0 0 -1 0 0 0 -1 forward_v I I I I #
face $-1 $40 $41 $14 $-1 $42 reversed single #
loop $-1 $-1 $43 $18 #
plane-surface $-1 22.497916222493771 86.92907860315448 111.89799454293374 1 0 0 0 -0.81915205242281985 -0.57357642473473569 forward_v I I I I #
face $-1 $44 $45 $15 $-1 $46 forward single #
loop $-1 $47 $48 $19 #
cone-surface $-1 39.066579498618324 24.707787992734637 5.1282280776042919 0 -0.81915205242281985 -0.57357642473473569 1.5 0 0 1 I I 0 1 1.5 forward I I I I #
face $-1 $49 $50 $12 $-1 $51 reversed single #
loop $-1 $-1 $52 $20 #
plane-surface $-1 0 0 -10.222139574115587 0 0 1 1 0 0 forward_v I I I I #
coedge $-1 $53 $54 $55 $56 forward $21 $-1 #
face $-1 $57 $58 $13 $-1 $59 forward single #
loop $-1 $-1 $60 $23 #
plane-surface $-1 -52.401731111004722 -22.563388316246673 0 -1 0 0 0 0 1 forward_v I I I I #
coedge $-1 $61 $62 $63 $64 forward $24 $-1 #
face $-1 $65 $66 $14 $-1 $67 forward single #
loop $-1 $-1 $68 $26 #
plane-surface $-1 39.066579498618324 -4.2183680087904918 48.07586726296163 0 0.81915205242281985 0.57357642473473569 1 0 0 forward_v I I I I #
coedge $-1 $69 $70 $71 $72 reversed $27 $-1 #
face $-1 $-1 $73 $15 $-1 $74 forward single #
loop $-1 $75 $76 $29 #
cone-surface $-1 39.066579498618324 23.324376747366614 4.1595531243900581 0 -0.81915205242281985 -0.57357642473473569 0.75 0 0 1 I I -0.70710678118654757 0.70710678118654757 0.75 forward I I I I #
loop $-1 $-1 $77 $19 #
coedge $-1 $48 $48 $78 $79 reversed $30 $-1 #
face $-1 $80 $81 $12 $-1 $82 reversed single #
loop $-1 $-1 $83 $32 #
plane-surface $-1 0 -28.666573729281637 0 0 1 0 0 0 1 forward_v I I I I #
coedge $-1 $84 $85 $86 $87 forward $33 $-1 #
coedge $-1 $88 $35 $89 $90 forward $21 $-1 #
coedge $-1 $35 $88 $91 $92 forward $21 $-1 #
coedge $-1 $93 $94 $35 $56 reversed $95 $-1 #
edge $-1 $96 -28.666573729281637 $97 28.666573729281637 $55 $98 forward 7 unknown #
face $-1 $99 $100 $13 $-1 $101 reversed single #
loop $-1 $-1 $102 $36 #
plane-surface $-1 0 0 10.222139574115587 0 0 1 1 0 0 forward_v I I I I #
coedge $-1 $103 $104 $105 $106 reversed $37 $-1 #
coedge $-1 $107 $39 $108 $109 reversed $24 $-1 #
coedge $-1 $39 $107 $110 $111 reversed $24 $-1 #
coedge $-1 $104 $103 $39 $64 reversed $37 $-1 #
edge $-1 $112 -10.222139574115587 $113 10.222139574115587 $63 $114 forward 7 unknown #
face $-1 $115 $116 $14 $-1 $117 reversed single #
loop $-1 $-1 $71 $40 #
plane-surface $-1 0 0 10.222139574115587 0 0 1 1 0 0 forward_v I I I I #
coedge $-1 $118 $119 $120 $121 reversed $41 $-1 #
coedge $-1 $70 $43 $122 $123 reversed $27 $-1 #
coedge $-1 $43 $69 $118 $124 reversed $27 $-1 #
coedge $-1 $120 $125 $43 $72 forward $66 $-1 #
edge $-1 $126 14.797965572295602 $127 21.177442633287797 $71 $128 forward 7 unknown #
loop $-1 $-1 $78 $44 #
plane-surface $-1 39.066579498618324 -4.2183680087904918 48.07586726296163 0 0.81915205242281985 0.57357642473473569 1 0 0 forward_v I I I I #
loop $-1 $-1 $129 $29 #
coedge $-1 $76 $76 $77 $130 reversed $45 $-1 #
coedge $-1 $77 $77 $76 $130 forward $47 $-1 #
coedge $-1 $78 $78 $48 $79 forward $73 $-1 #
edge $-1 $131 -1.1632798555566339e-015 $131 6.2831853071795996 $78 $132 forward 7 unknown #
face $-1 $133 $134 $12 $-1 $135 reversed single #
loop $-1 $-1 $136 $49 #
plane-surface $-1 -55.635242774742878 0 0 1 0 0 0 0 -1 forward_v I I I I #
coedge $-1 $137 $91 $138 $139 forward $50 $-1 #
coedge $-1 $140 $52 $137 $141 forward $33 $-1 #
coedge $-1 $52 $140 $142 $143 forward $33 $-1 #
coedge $-1 $94 $93 $52 $87 reversed $95 $-1 #
edge $-1 $144 -28.666573729281637 $145 28.666573729281637 $86 $146 forward 7 unknown #
coedge $-1 $54 $53 $147 $148 forward $21 $-1 #
coedge $-1 $149 $150 $53 $90 reversed $134 $-1 #
edge $-1 $97 -55.635242774742878 $151 55.635242774742878 $89 $152 forward 7 unknown #
coedge $-1 $83 $153 $54 $92 reversed $50 $-1 #
edge $-1 $154 -55.635242774742878 $96 55.635242774742878 $91 $155 forward 7 unknown #
coedge $-1 $86 $55 $153 $156 forward $95 $-1 #
coedge $-1 $55 $86 $149 $157 reversed $95 $-1 #
loop $-1 $-1 $93 $133 #
vertex $-1 $56 $158 #
vertex $-1 $56 $159 #
straight-curve $-1 55.635242774742878 0 10.222139574115587 0 1 0 I I #
face $-1 $160 $161 $13 $-1 $162 reversed single #
loop $-1 $-1 $163 $57 #
plane-surface $-1 -55.635242774742878 0 0 1 0 0 0 0 -1 forward_v I I I I #
coedge $-1 $110 $164 $104 $165 forward $58 $-1 #
coedge $-1 $63 $60 $166 $167 reversed $37 $-1 #
coedge $-1 $60 $63 $102 $165 reversed $37 $-1 #
coedge $-1 $168 $169 $60 $106 forward $170 $-1 #
edge $-1 $171 -10.222139574115587 $172 10.222139574115587 $105 $173 forward 7 unknown #
coedge $-1 $62 $61 $163 $174 reversed $24 $-1 #
coedge $-1 $166 $175 $61 $109 forward $161 $-1 #
edge $-1 $176 -28.625999303305978 $113 -25.392487639567822 $108 $177 forward 7 unknown #
coedge $-1 $178 $102 $62 $111 forward $58 $-1 #
edge $-1 $112 25.392487639567822 $179 28.625999303305978 $110 $180 forward 7 unknown #
vertex $-1 $111 $181 #
vertex $-1 $109 $182 #
straight-curve $-1 -52.401731111004722 -16.460202903211709 0 0 0 -1 I I #
face $-1 $-1 $183 $14 $-1 $184 reversed single #
loop $-1 $-1 $185 $65 #
plane-surface $-1 55.635242774742878 0 0 -1 0 0 0 0 1 forward_v I I I I #
coedge $-1 $186 $68 $70 $124 forward $41 $-1 #
coedge $-1 $68 $186 $185 $187 reversed $41 $-1 #
coedge $-1 $188 $71 $68 $121 forward $66 $-1 #
edge $-1 $127 2.9646264731846088 $189 36.101953025433716 $120 $190 forward 7 unknown #
coedge $-1 $191 $192 $69 $123 forward $183 $-1 #
edge $-1 $193 -54.837695421047542 $126 -45.726857697351285 $122 $194 forward 7 unknown #
edge $-1 $127 46.210868393585095 $193 57.333147458563303 $70 $195 forward 7 unknown #
coedge $-1 $71 $188 $191 $196 forward $66 $-1 #
vertex $-1 $123 $197 #
vertex $-1 $72 $198 #
straight-curve $-1 22.497916222493771 43.46453930157724 10.222139574115587 0 -1 0 I I #
coedge $-1 $129 $129 $-1 $199 reversed $75 $-1 #
edge $-1 $200 0 $200 6.2831853071796004 $76 $201 forward 7 unknown #
vertex $-1 $79 $202 #
ellipse-curve $-1 39.066579498618324 25.476835198785537 5.666720712267467 0 0.81915205242281985 0.57357642473473569 1.5 0 0 1 I I #
face $-1 $-1 $95 $12 $-1 $203 reversed single #
loop $-1 $-1 $149 $80 #
plane-surface $-1 0 28.666573729281637 0 0 -1 0 0 0 -1 forward_v I I I I #
coedge $-1 $204 $147 $150 $205 forward $81 $-1 #
coedge $-1 $153 $83 $84 $141 reversed $50 $-1 #
coedge $-1 $147 $204 $83 $139 reversed $81 $-1 #
edge $-1 $154 -10.222139574115587 $206 10.222139574115587 $138 $207 forward 7 unknown #
coedge $-1 $85 $84 $204 $208 forward $33 $-1 #
edge $-1 $145 -55.635242774742878 $206 55.635242774742878 $137 $209 forward 7 unknown #
coedge $-1 $150 $149 $85 $143 reversed $134 $-1 #
edge $-1 $210 -55.635242774742878 $144 55.635242774742878 $142 $211 forward 7 unknown #
vertex $-1 $87 $212 #
vertex $-1 $156 $213 #
straight-curve $-1 55.635242774742878 0 -10.222139574115587 0 -1 0 I I #
coedge $-1 $136 $138 $88 $148 reversed $81 $-1 #
edge $-1 $151 -28.666573729281637 $154 28.666573729281637 $147 $214 forward 7 unknown #
coedge $-1 $142 $89 $94 $157 forward $134 $-1 #
coedge $-1 $89 $142 $136 $205 reversed $134 $-1 #
vertex $-1 $90 $215 #
straight-curve $-1 0 28.666573729281637 10.222139574115587 -1 0 0 I I #
coedge $-1 $91 $137 $93 $156 reversed $50 $-1 #
vertex $-1 $148 $216 #
straight-curve $-1 0 -28.666573729281637 10.222139574115587 1 0 0 I I #
edge $-1 $96 -10.222139574115587 $145 10.222139574115587 $93 $217 forward 7 unknown #
edge $-1 $97 -10.222139574115587 $144 10.222139574115587 $94 $218 forward 7 unknown #
point $-1 55.635242774742878 -28.666573729281637 10.222139574115587 #
point $-1 55.635242774742878 28.666573729281637 10.222139574115587 #
face $-1 $-1 $170 $13 $-1 $219 reversed single #
loop $-1 $-1 $166 $99 #
plane-surface $-1 0 0 -10.222139574115587 0 0 1 1 0 0 forward_v I I I I #
coedge $-1 $220 $221 $107 $174 forward $100 $-1 #
coedge $-1 $102 $178 $168 $222 forward $58 $-1 #
edge $-1 $172 -17.384879571158301 $112 -5.1785087450883722 $102 $223 forward 7 unknown #
coedge $-1 $224 $108 $103 $167 forward $161 $-1 #
edge $-1 $113 5.1785087450883722 $171 17.384879571158301 $166 $225 forward 7 unknown #
coedge $-1 $226 $105 $164 $222 reversed $170 $-1 #
coedge $-1 $105 $226 $224 $227 reversed $170 $-1 #
loop $-1 $-1 $105 $160 #
vertex $-1 $227 $228 #
vertex $-1 $106 $229 #
straight-curve $-1 -52.401731111004722 -28.666573729281637 0 0 0 1 I I #
edge $-1 $179 -10.222139574115587 $176 10.222139574115587 $163 $230 forward 7 unknown #
coedge $-1 $108 $224 $220 $231 forward $161 $-1 #
vertex $-1 $109 $232 #
straight-curve $-1 -27.0092434714369 -16.460202903211709 -10.222139574115587 1 0 0 I I #
coedge $-1 $164 $110 $221 $233 forward $58 $-1 #
vertex $-1 $233 $234 #
straight-curve $-1 -27.0092434714369 -16.460202903211709 10.222139574115587 -1 0 0 I I #
point $-1 -52.401731111004722 -16.460202903211709 10.222139574115587 #
point $-1 -52.401731111004722 -16.460202903211709 -10.222139574115587 #
loop $-1 $-1 $122 $115 #
plane-surface $-1 0 28.666573729281637 0 0 -1 0 0 0 -1 forward_v I I I I #
coedge $-1 $235 $236 $119 $187 forward $116 $-1 #
coedge $-1 $119 $118 $192 $237 reversed $41 $-1 #
edge $-1 $189 25.310367503005338 $238 36.432646567983539 $185 $239 forward 7 unknown #
coedge $-1 $125 $120 $236 $240 forward $66 $-1 #
vertex $-1 $240 $241 #
straight-curve $-1 19.533289749309162 22.287096668289443 10.222139574115587 1 0 0 I I #
coedge $-1 $242 $122 $125 $196 reversed $183 $-1 #
coedge $-1 $122 $242 $186 $237 forward $183 $-1 #
vertex $-1 $123 $243 #
straight-curve $-1 22.497916222493771 28.666573729281637 55.948997271466872 0 0 1 I I #
straight-curve $-1 22.497916222493771 -4.2183680087904918 48.07586726296163 0 0.57357642473473569 -0.81915205242281985 I I #
edge $-1 $244 -55.635242774742878 $126 -22.497916222493771 $191 $245 forward 7 unknown #
point $-1 22.497916222493771 28.666573729281637 10.222139574115587 #
point $-1 22.497916222493771 22.287096668289443 10.222139574115587 #
edge $-1 $246 1 $246 0 $129 $-1 forward 7 unknown #
vertex $-1 $130 $247 #
ellipse-curve $-1 39.066579498618324 23.938740786683727 4.5897354429411097 0 0.81915205242281985 0.57357642473473569 1.5 0 0 1 I I #
point $-1 40.566579498618324 25.476835198785544 5.6667207122674741 #
plane-surface $-1 55.635242774742878 0 0 -1 0 0 0 0 1 forward_v I I I I #
coedge $-1 $138 $136 $140 $208 reversed $81 $-1 #
edge $-1 $151 -10.222139574115587 $210 10.222139574115587 $150 $248 forward 7 unknown #
vertex $-1 $208 $249 #
straight-curve $-1 -55.635242774742878 -28.666573729281637 0 0 0 -1 I I #
edge $-1 $206 -28.666573729281637 $210 28.666573729281637 $204 $250 forward 7 unknown #
straight-curve $-1 0 -28.666573729281637 -10.222139574115587 -1 0 0 I I #
vertex $-1 $143 $251 #
straight-curve $-1 0 28.666573729281637 -10.222139574115587 1 0 0 I I #
point $-1 55.635242774742878 28.666573729281637 -10.222139574115587 #
point $-1 55.635242774742878 -28.666573729281637 -10.222139574115587 #
straight-curve $-1 -55.635242774742878 0 10.222139574115587 0 -1 0 I I #
point $-1 -55.635242774742878 28.666573729281637 10.222139574115587 #
point $-1 -55.635242774742878 -28.666573729281637 10.222139574115587 #
straight-curve $-1 55.635242774742878 -28.666573729281637 0 0 0 -1 I I #
straight-curve $-1 55.635242774742878 28.666573729281637 0 0 0 -1 I I #
plane-surface $-1 0 -28.666573729281637 0 0 1 0 0 0 1 forward_v I I I I #
coedge $-1 $252 $163 $175 $231 reversed $100 $-1 #
coedge $-1 $163 $252 $178 $233 reversed $100 $-1 #
edge $-1 $253 -55.635242774742878 $172 -52.401731111004722 $168 $254 forward 7 unknown #
straight-curve $-1 -52.401731111004722 -11.281694158123337 10.222139574115587 0 1 0 I I #
coedge $-1 $175 $166 $169 $227 forward $161 $-1 #
straight-curve $-1 -52.401731111004722 -11.281694158123337 -10.222139574115587 0 -1 0 I I #
coedge $-1 $169 $168 $252 $255 forward $170 $-1 #
edge $-1 $171 52.401731111004722 $256 55.635242774742878 $169 $257 forward 7 unknown #
point $-1 -52.401731111004722 -28.666573729281637 -10.222139574115587 #
point $-1 -52.401731111004722 -28.666573729281637 10.222139574115587 #
straight-curve $-1 -55.635242774742878 -16.460202903211709 0 0 0 -1 I I #
edge $-1 $256 -28.666573729281637 $176 -16.460202903211709 $220 $258 forward 7 unknown #
point $-1 -55.635242774742878 -16.460202903211709 -10.222139574115587 #
edge $-1 $179 16.460202903211709 $253 28.666573729281637 $221 $259 forward 7 unknown #
point $-1 -55.635242774742878 -16.460202903211709 10.222139574115587 #
coedge $-1 $236 $185 $242 $260 reversed $116 $-1 #
coedge $-1 $185 $235 $188 $240 reversed $116 $-1 #
edge $-1 $238 -36.101953025433716 $193 -2.9646264731846088 $192 $261 forward 7 unknown #
vertex $-1 $187 $262 #
straight-curve $-1 55.635242774742878 7.7696665671934024 30.955179061778253 0 0.57357642473473569 -0.81915205242281985 I I #
edge $-1 $189 22.287096668289443 $244 28.666573729281637 $236 $263 forward 7 unknown #
point $-1 55.635242774742878 22.287096668289443 10.222139574115587 #
coedge $-1 $192 $191 $235 $260 forward $183 $-1 #
point $-1 22.497916222493771 28.666573729281637 1.1113018504193306 #
vertex $-1 $240 $264 #
straight-curve $-1 0 28.666573729281637 10.222139574115587 -1 0 0 I I #
vertex $-1 $199 $265 #
point $-1 40.566579498618324 23.938740786683727 4.5897354429411097 #
straight-curve $-1 -55.635242774742878 28.666573729281637 0 0 0 -1 I I #
point $-1 -55.635242774742878 -28.666573729281637 -10.222139574115587 #
straight-curve $-1 -55.635242774742878 0 -10.222139574115587 0 1 0 I I #
point $-1 -55.635242774742878 28.666573729281637 -10.222139574115587 #
coedge $-1 $221 $220 $226 $255 reversed $100 $-1 #
vertex $-1 $233 $266 #
straight-curve $-1 0 -28.666573729281637 10.222139574115587 1 0 0 I I #
edge $-1 $253 -10.222139574115587 $256 10.222139574115587 $252 $267 forward 7 unknown #
vertex $-1 $231 $268 #
straight-curve $-1 0 -28.666573729281637 -10.222139574115587 -1 0 0 I I #
straight-curve $-1 -55.635242774742878 0 -10.222139574115587 0 1 0 I I #
straight-curve $-1 -55.635242774742878 0 10.222139574115587 0 -1 0 I I #
edge $-1 $244 -10.222139574115587 $238 -1.1113018504193306 $235 $269 forward 7 unknown #
straight-curve $-1 19.533289749309162 28.666573729281637 1.1113018504193377 -1 0 0 I I #
point $-1 55.635242774742878 28.666573729281637 1.1113018504193306 #
straight-curve $-1 55.635242774742878 0 10.222139574115587 0 1 0 I I #
point $-1 55.635242774742878 28.666573729281637 10.222139574115587 #
point $-1 39.066579498618324 22.710012708049501 3.7293708058390065 #
point $-1 -55.635242774742878 -28.666573729281637 10.222139574115587 #
straight-curve $-1 -55.635242774742878 -28.666573729281637 0 0 0 -1 I I #
point $-1 -55.635242774742878 -28.666573729281637 -10.222139574115587 #
straight-curve $-1 55.635242774742878 28.666573729281637 0 0 0 -1 I I #
End-of-ACIS-data 