500 0 3 0           
7 Unknown 11 ACIS 5.0 NT 24 Fri Mar 26 18:56:01 1999 
-1 9.9999999999999995e-007 1e-010 
body $-1 $3 $-1 $4 #
body $-1 $5 $-1 $6 #
body $-1 $7 $-1 $8 #
lump $-1 $-1 $9 $0 #
transform $-1 1 0 0 0 1 0 0 0 1 50.389721366008487 21.150088652092794 10.332606101682675 1 rotate no_reflect no_shear #
lump $-1 $-1 $10 $1 #
transform $-1 1 0 0 0 1 0 0 0 1 50.389721366008487 21.150088652092794 10.332606101682675 1 rotate no_reflect no_shear #
lump $-1 $-1 $11 $2 #
transform $-1 1 0 0 0 1 0 0 0 1 50.389721366008487 21.150088652092794 10.332606101682675 1 rotate no_reflect no_shear #
shell $-1 $-1 $-1 $12 $-1 $3 #
shell $-1 $-1 $-1 $13 $-1 $5 #
shell $-1 $-1 $-1 $14 $-1 $7 #
face $-1 $15 $16 $9 $-1 $17 forward single #
face $-1 $18 $19 $10 $-1 $20 forward single #
face $-1 $21 $22 $11 $-1 $23 reversed single #
face $-1 $24 $25 $9 $-1 $26 reversed single #
loop $-1 $-1 $27 $12 #
plane-surface $-1 0 0 10.332606101682675 0 0 1 1 0 0 forward_v I I I I #
face $-1 $28 $29 $10 $-1 $30 reversed single #
loop $-1 $-1 $31 $13 #
plane-surface $-1 0 -17.198380027111504 -5.8699845401198161 0 0 1 1 0 0 forward_v I I I I #
face $-1 $32 $33 $11 $-1 $34 reversed single #
loop $-1 $-1 $35 $14 #
plane-surface $-1 0 16.017185962538431 6.4711938650560388 0 0 1 1 0 0 forward_v I I I I #
face $-1 $36 $37 $9 $-1 $38 reversed single #
loop $-1 $-1 $39 $15 #
plane-surface $-1 0 0 -10.332606101682675 0 0 1 1 0 0 forward_v I I I I #
coedge $-1 $40 $41 $42 $43 forward $16 $-1 #
face $-1 $44 $45 $10 $-1 $46 reversed single #
loop $-1 $-1 $47 $18 #
plane-surface $-1 0 -17.198380027111504 -8.8699845401198161 0 0 1 1 0 0 forward_v I I I I #
coedge $-1 $48 $49 $50 $51 reversed $19 $-1 #
face $-1 $52 $53 $11 $-1 $54 reversed single #
loop $-1 $-1 $55 $21 #
plane-surface $-1 0 10.884283272984064 8.4018999833693577 0 1 0 0 0 1 forward_v I I I I #
coedge $-1 $56 $57 $58 $59 reversed $22 $-1 #
face $-1 $60 $61 $9 $-1 $62 reversed single #
loop $-1 $-1 $63 $24 #
plane-surface $-1 0 -21.150088652092794 0 0 1 0 0 0 1 forward_v I I I I #
coedge $-1 $64 $65 $66 $67 forward $25 $-1 #
coedge $-1 $68 $27 $69 $70 forward $16 $-1 #
coedge $-1 $27 $68 $71 $72 forward $16 $-1 #
coedge $-1 $73 $74 $27 $43 reversed $75 $-1 #
edge $-1 $76 -21.150088652092794 $77 21.150088652092794 $42 $78 forward 7 unknown #
face $-1 $79 $80 $10 $-1 $81 reversed single #
loop $-1 $-1 $82 $28 #
plane-surface $-1 0 -13.246671402130216 -7.3699845401198161 0 -1 0 0 0 -1 forward_v I I I I #
coedge $-1 $83 $84 $85 $86 reversed $29 $-1 #
coedge $-1 $87 $31 $88 $89 forward $19 $-1 #
coedge $-1 $31 $87 $90 $91 reversed $19 $-1 #
coedge $-1 $92 $93 $31 $51 forward $94 $-1 #
edge $-1 $95 4.6474813885744641 $96 12.550898638537038 $50 $97 forward 7 unknown #
face $-1 $98 $99 $11 $-1 $100 reversed single #
loop $-1 $-1 $101 $32 #
plane-surface $-1 50.389721366008487 0 0 -1 0 0 0 0 1 forward_v I I I I #
coedge $-1 $102 $103 $104 $105 reversed $33 $-1 #
coedge $-1 $106 $35 $102 $107 forward $22 $-1 #
coedge $-1 $35 $106 $108 $109 reversed $22 $-1 #
coedge $-1 $110 $101 $35 $59 forward $53 $-1 #
edge $-1 $111 2.8756902917148484 $112 13.141495670823582 $58 $113 forward 7 unknown #
face $-1 $114 $115 $9 $-1 $116 reversed single #
loop $-1 $-1 $117 $36 #
plane-surface $-1 -50.389721366008487 0 0 1 0 0 0 0 -1 forward_v I I I I #
coedge $-1 $118 $71 $119 $120 forward $37 $-1 #
coedge $-1 $121 $39 $118 $122 forward $25 $-1 #
coedge $-1 $39 $121 $123 $124 forward $25 $-1 #
coedge $-1 $74 $73 $39 $67 reversed $75 $-1 #
edge $-1 $125 -21.150088652092794 $126 21.150088652092794 $66 $127 forward 7 unknown #
coedge $-1 $41 $40 $128 $129 forward $16 $-1 #
coedge $-1 $130 $131 $40 $70 reversed $115 $-1 #
edge $-1 $77 -50.389721366008487 $132 50.389721366008487 $69 $133 forward 7 unknown #
coedge $-1 $63 $134 $41 $72 reversed $37 $-1 #
edge $-1 $135 -50.389721366008487 $76 50.389721366008487 $71 $136 forward 7 unknown #
coedge $-1 $66 $42 $134 $137 forward $75 $-1 #
coedge $-1 $42 $66 $130 $138 reversed $75 $-1 #
loop $-1 $-1 $73 $114 #
vertex $-1 $43 $139 #
vertex $-1 $43 $140 #
straight-curve $-1 50.389721366008487 0 10.332606101682675 0 1 0 I I #
face $-1 $141 $142 $10 $-1 $143 reversed single #
loop $-1 $-1 $144 $44 #
plane-surface $-1 -50.389721366008487 0 0 1 0 0 0 0 -1 forward_v I I I I #
coedge $-1 $145 $88 $93 $146 reversed $45 $-1 #
coedge $-1 $147 $47 $148 $149 reversed $29 $-1 #
coedge $-1 $47 $147 $145 $150 forward $29 $-1 #
coedge $-1 $93 $92 $47 $86 forward $94 $-1 #
edge $-1 $151 -12.550898638537038 $152 -4.6474813885744641 $85 $153 forward 7 unknown #
coedge $-1 $49 $48 $144 $154 reversed $19 $-1 #
coedge $-1 $82 $155 $48 $89 reversed $45 $-1 #
edge $-1 $95 -50.389721366008487 $156 50.389721366008487 $88 $157 forward 7 unknown #
coedge $-1 $158 $159 $49 $91 forward $142 $-1 #
edge $-1 $96 -50.389721366008487 $160 50.389721366008487 $90 $161 forward 7 unknown #
coedge $-1 $85 $50 $159 $162 forward $94 $-1 #
coedge $-1 $50 $85 $82 $146 forward $94 $-1 #
loop $-1 $-1 $50 $141 #
vertex $-1 $51 $163 #
vertex $-1 $162 $164 #
straight-curve $-1 50.389721366008487 -8.5991900135557522 -5.8699845401198161 0 -1 0 I I #
face $-1 $165 $166 $11 $-1 $167 forward single #
loop $-1 $-1 $108 $52 #
plane-surface $-1 0 21.150088652092794 0 0 -1 0 0 0 -1 forward_v I I I I #
coedge $-1 $58 $168 $169 $170 forward $53 $-1 #
coedge $-1 $169 $55 $56 $107 reversed $33 $-1 #
coedge $-1 $55 $169 $171 $172 reversed $33 $-1 #
coedge $-1 $173 $174 $55 $105 forward $175 $-1 #
edge $-1 $176 2.2702438733713599 $177 6.1316561099979978 $104 $178 forward 7 unknown #
coedge $-1 $57 $56 $174 $179 reversed $22 $-1 #
edge $-1 $111 -50.389721366008487 $176 50.389721366008487 $102 $180 forward 7 unknown #
coedge $-1 $181 $182 $57 $109 forward $99 $-1 #
edge $-1 $112 -50.389721366008487 $183 50.389721366008487 $108 $184 forward 7 unknown #
coedge $-1 $168 $58 $182 $185 reversed $53 $-1 #
vertex $-1 $59 $186 #
vertex $-1 $109 $187 #
straight-curve $-1 50.389721366008487 8.0085929812692154 6.4711938650560388 0 1 0 I I #
face $-1 $-1 $75 $9 $-1 $188 reversed single #
loop $-1 $-1 $130 $60 #
plane-surface $-1 0 21.150088652092794 0 0 -1 0 0 0 -1 forward_v I I I I #
coedge $-1 $189 $128 $131 $190 forward $61 $-1 #
coedge $-1 $134 $63 $64 $122 reversed $37 $-1 #
coedge $-1 $128 $189 $63 $120 reversed $61 $-1 #
edge $-1 $135 -10.332606101682675 $191 10.332606101682675 $119 $192 forward 7 unknown #
coedge $-1 $65 $64 $189 $193 forward $25 $-1 #
edge $-1 $126 -50.389721366008487 $191 50.389721366008487 $118 $194 forward 7 unknown #
coedge $-1 $131 $130 $65 $124 reversed $115 $-1 #
edge $-1 $195 -50.389721366008487 $125 50.389721366008487 $123 $196 forward 7 unknown #
vertex $-1 $67 $197 #
vertex $-1 $137 $198 #
straight-curve $-1 50.389721366008487 0 -10.332606101682675 0 -1 0 I I #
coedge $-1 $117 $119 $68 $129 reversed $61 $-1 #
edge $-1 $132 -21.150088652092794 $135 21.150088652092794 $128 $199 forward 7 unknown #
coedge $-1 $123 $69 $74 $138 forward $115 $-1 #
coedge $-1 $69 $123 $117 $190 reversed $115 $-1 #
vertex $-1 $70 $200 #
straight-curve $-1 0 21.150088652092794 10.332606101682675 -1 0 0 I I #
coedge $-1 $71 $118 $73 $137 reversed $37 $-1 #
vertex $-1 $129 $201 #
straight-curve $-1 0 -21.150088652092794 10.332606101682675 1 0 0 I I #
edge $-1 $76 -10.332606101682675 $126 10.332606101682675 $73 $202 forward 7 unknown #
edge $-1 $77 -10.332606101682675 $125 10.332606101682675 $74 $203 forward 7 unknown #
point $-1 50.389721366008487 -21.150088652092794 10.332606101682675 #
point $-1 50.389721366008487 21.150088652092794 10.332606101682675 #
face $-1 $-1 $94 $10 $-1 $204 reversed single #
loop $-1 $-1 $90 $79 #
plane-surface $-1 0 -21.150088652092794 0 0 1 0 0 0 1 forward_v I I I I #
coedge $-1 $205 $206 $87 $154 forward $80 $-1 #
coedge $-1 $155 $82 $84 $150 reversed $45 $-1 #
edge $-1 $152 -5.184992270059908 $95 -2.184992270059908 $93 $207 forward 7 unknown #
coedge $-1 $84 $83 $208 $209 reversed $29 $-1 #
coedge $-1 $159 $158 $83 $149 forward $142 $-1 #
edge $-1 $210 -50.389721366008487 $151 50.389721366008487 $148 $211 forward 7 unknown #
edge $-1 $212 -50.389721366008487 $152 50.389721366008487 $145 $213 forward 7 unknown #
vertex $-1 $149 $214 #
vertex $-1 $86 $215 #
straight-curve $-1 50.389721366008487 -8.5991900135557522 -8.8699845401198161 0 1 0 I I #
edge $-1 $160 -12.550898638537038 $156 -4.6474813885744641 $144 $216 forward 7 unknown #
coedge $-1 $88 $145 $205 $217 reversed $45 $-1 #
vertex $-1 $154 $218 #
straight-curve $-1 0 -13.246671402130216 -5.8699845401198161 -1 0 0 I I #
coedge $-1 $148 $90 $206 $219 forward $142 $-1 #
coedge $-1 $90 $148 $92 $162 reversed $142 $-1 #
vertex $-1 $219 $220 #
straight-curve $-1 0 -21.150088652092794 -5.8699845401198161 -1 0 0 I I #
edge $-1 $96 5.8699845401198161 $151 8.8699845401198161 $92 $221 forward 7 unknown #
point $-1 50.389721366008487 -13.246671402130216 -5.8699845401198161 #
point $-1 50.389721366008487 -21.150088652092791 -5.8699845401198161 #
face $-1 $-1 $175 $11 $-1 $222 reversed single #
loop $-1 $-1 $171 $98 #
plane-surface $-1 0 0 10.332606101682675 0 0 1 1 0 0 forward_v I I I I #
coedge $-1 $101 $110 $223 $224 reversed $53 $-1 #
coedge $-1 $103 $102 $101 $170 reversed $33 $-1 #
edge $-1 $225 -6.1316561099979978 $111 -2.2702438733713599 $101 $226 forward 7 unknown #
coedge $-1 $223 $227 $103 $172 forward $166 $-1 #
edge $-1 $177 -50.389721366008487 $225 50.389721366008487 $171 $228 forward 7 unknown #
coedge $-1 $229 $104 $227 $230 reversed $175 $-1 #
coedge $-1 $104 $229 $106 $179 forward $175 $-1 #
loop $-1 $-1 $104 $165 #
vertex $-1 $179 $231 #
vertex $-1 $105 $232 #
straight-curve $-1 -50.389721366008487 10.884283272984064 4.2009499916846789 0 0 1 I I #
edge $-1 $183 -13.141495670823582 $176 -2.8756902917148484 $174 $233 forward 7 unknown #
straight-curve $-1 0 10.884283272984064 6.4711938650560388 -1 0 0 I I #
coedge $-1 $234 $108 $229 $235 reversed $99 $-1 #
coedge $-1 $108 $234 $110 $185 forward $99 $-1 #
vertex $-1 $109 $236 #
straight-curve $-1 0 21.150088652092794 6.4711938650560388 -1 0 0 I I #
edge $-1 $237 -10.332606101682675 $112 -6.4711938650560388 $110 $238 forward 7 unknown #
point $-1 50.389721366008487 10.884283272984064 6.4711938650560388 #
point $-1 50.389721366008487 21.150088652092798 6.4711938650560388 #
plane-surface $-1 50.389721366008487 0 0 -1 0 0 0 0 1 forward_v I I I I #
coedge $-1 $119 $117 $121 $193 reversed $61 $-1 #
edge $-1 $132 -10.332606101682675 $195 10.332606101682675 $131 $239 forward 7 unknown #
vertex $-1 $193 $240 #
straight-curve $-1 -50.389721366008487 -21.150088652092794 0 0 0 -1 I I #
edge $-1 $191 -21.150088652092794 $195 21.150088652092794 $189 $241 forward 7 unknown #
straight-curve $-1 0 -21.150088652092794 -10.332606101682675 -1 0 0 I I #
vertex $-1 $124 $242 #
straight-curve $-1 0 21.150088652092794 -10.332606101682675 1 0 0 I I #
point $-1 50.389721366008487 21.150088652092794 -10.332606101682675 #
point $-1 50.389721366008487 -21.150088652092794 -10.332606101682675 #
straight-curve $-1 -50.389721366008487 0 10.332606101682675 0 -1 0 I I #
point $-1 -50.389721366008487 21.150088652092794 10.332606101682675 #
point $-1 -50.389721366008487 -21.150088652092794 10.332606101682675 #
straight-curve $-1 50.389721366008487 -21.150088652092794 0 0 0 -1 I I #
straight-curve $-1 50.389721366008487 21.150088652092794 0 0 0 -1 I I #
plane-surface $-1 50.389721366008487 0 0 -1 0 0 0 0 1 forward_v I I I I #
coedge $-1 $208 $144 $155 $217 forward $80 $-1 #
coedge $-1 $144 $208 $158 $219 reversed $80 $-1 #
straight-curve $-1 50.389721366008487 -13.246671402130216 -3.684992270059908 0 0 1 I I #
coedge $-1 $206 $205 $147 $209 forward $80 $-1 #
edge $-1 $212 4.6474813885744641 $210 12.550898638537038 $208 $243 forward 7 unknown #
vertex $-1 $149 $244 #
straight-curve $-1 0 -21.150088652092794 -8.8699845401198161 1 0 0 I I #
vertex $-1 $209 $245 #
straight-curve $-1 0 -13.246671402130216 -8.8699845401198161 1 0 0 I I #
point $-1 50.389721366008487 -21.150088652092791 -8.8699845401198161 #
point $-1 50.389721366008487 -13.246671402130216 -8.8699845401198161 #
straight-curve $-1 -50.389721366008487 -8.5991900135557522 -5.8699845401198161 0 1 0 I I #
edge $-1 $156 2.184992270059908 $212 5.184992270059908 $205 $246 forward 7 unknown #
point $-1 -50.389721366008487 -13.246671402130216 -5.8699845401198161 #
edge $-1 $160 5.8699845401198161 $210 8.8699845401198161 $206 $247 forward 7 unknown #
point $-1 -50.389721366008487 -21.150088652092791 -5.8699845401198161 #
straight-curve $-1 50.389721366008487 -21.150088652092794 0 0 0 -1 I I #
plane-surface $-1 -50.389721366008487 0 0 1 0 0 0 0 -1 forward_v I I I I #
coedge $-1 $248 $171 $168 $224 forward $166 $-1 #
edge $-1 $225 10.884283272984064 $237 21.150088652092794 $168 $249 forward 7 unknown #
vertex $-1 $224 $250 #
straight-curve $-1 50.389721366008487 10.884283272984064 4.2009499916846789 0 0 -1 I I #
coedge $-1 $171 $248 $173 $230 forward $166 $-1 #
straight-curve $-1 0 10.884283272984064 10.332606101682675 1 0 0 I I #
coedge $-1 $174 $173 $181 $235 forward $175 $-1 #
edge $-1 $251 -21.150088652092794 $177 -10.884283272984064 $173 $252 forward 7 unknown #
point $-1 -50.389721366008487 10.884283272984064 6.4711938650560388 #
point $-1 -50.389721366008487 10.884283272984064 10.332606101682677 #
straight-curve $-1 -50.389721366008487 8.0085929812692154 6.4711938650560388 0 -1 0 I I #
coedge $-1 $182 $181 $248 $253 reversed $99 $-1 #
edge $-1 $251 -10.332606101682675 $183 -6.4711938650560388 $181 $254 forward 7 unknown #
point $-1 -50.389721366008487 21.150088652092798 6.4711938650560388 #
vertex $-1 $224 $255 #
straight-curve $-1 50.389721366008487 21.150088652092794 0 0 0 -1 I I #
straight-curve $-1 -50.389721366008487 21.150088652092794 0 0 0 -1 I I #
point $-1 -50.389721366008487 -21.150088652092794 -10.332606101682675 #
straight-curve $-1 -50.389721366008487 0 -10.332606101682675 0 1 0 I I #
point $-1 -50.389721366008487 21.150088652092794 -10.332606101682675 #
straight-curve $-1 -50.389721366008487 -8.5991900135557522 -8.8699845401198161 0 -1 0 I I #
point $-1 -50.389721366008487 -21.150088652092791 -8.8699845401198161 #
point $-1 -50.389721366008487 -13.246671402130216 -8.8699845401198161 #
straight-curve $-1 -50.389721366008487 -13.246671402130216 -3.684992270059908 0 0 -1 I I #
straight-curve $-1 -50.389721366008487 -21.150088652092794 0 0 0 -1 I I #
coedge $-1 $227 $223 $234 $253 forward $166 $-1 #
straight-curve $-1 50.389721366008487 0 10.332606101682675 0 1 0 I I #
point $-1 50.389721366008487 10.884283272984064 10.332606101682677 #
vertex $-1 $253 $256 #
straight-curve $-1 -50.389721366008487 0 10.332606101682675 0 -1 0 I I #
edge $-1 $237 -50.389721366008487 $251 50.389721366008487 $234 $257 forward 7 unknown #
straight-curve $-1 -50.389721366008487 21.150088652092794 0 0 0 -1 I I #
point $-1 50.389721366008487 21.150088652092794 10.332606101682675 #
point $-1 -50.389721366008487 21.150088652092794 10.332606101682675 #
straight-curve $-1 0 21.150088652092794 10.332606101682675 -1 0 0 I I #
End-of-ACIS-data 