500 0 4 0           
7 Unknown 11 ACIS 5.0 NT 24 Fri Mar 26 15:19:59 1999 
-1 9.9999999999999995e-007 1e-010 
body $-1 $4 $-1 $5 #
body $-1 $6 $-1 $7 #
body $-1 $8 $-1 $9 #
body $-1 $10 $-1 $11 #
lump $-1 $-1 $12 $0 #
transform $-1 1 0 0 0 1 0 0 0 1 67.185888241218294 40.16103261827736 10.490625030865187 1 rotate no_reflect no_shear #
lump $-1 $-1 $13 $1 #
transform $-1 1 0 0 0 1 0 0 0 1 67.185888241218294 40.16103261827736 10.490625030865187 1 rotate no_reflect no_shear #
lump $-1 $-1 $14 $2 #
transform $-1 1 0 0 0 1 0 0 0 1 67.185888241218294 40.16103261827736 10.490625030865187 1 rotate no_reflect no_shear #
lump $-1 $-1 $15 $3 #
transform $-1 1 0 0 0 1 0 0 0 1 67.185888241218294 40.16103261827736 10.490625030865187 1 rotate no_reflect no_shear #
shell $-1 $-1 $-1 $16 $-1 $4 #
shell $-1 $-1 $-1 $17 $-1 $6 #
shell $-1 $-1 $-1 $18 $-1 $8 #
shell $-1 $-1 $-1 $19 $-1 $10 #
face $-1 $20 $21 $12 $-1 $22 forward single #
face $-1 $23 $24 $13 $-1 $25 reversed single #
face $-1 $26 $27 $14 $-1 $28 reversed single #
face $-1 $29 $30 $15 $-1 $31 forward single #
face $-1 $32 $33 $12 $-1 $34 reversed single #
loop $-1 $-1 $35 $16 #
plane-surface $-1 0 0 10.490625030865187 0 0 1 1 0 0 forward_v I I I I #
face $-1 $36 $37 $13 $-1 $38 reversed single #
loop $-1 $-1 $39 $17 #
plane-surface $-1 -61.105497385176044 0 5.0586282460305281 0 0 1 1 0 0 forward_v I I I I #
face $-1 $40 $41 $14 $-1 $42 reversed single #
loop $-1 $-1 $43 $18 #
plane-surface $-1 90.344769468131773 30.147187325823076 189.33677246234166 0 1 0 0.78801076186113728 0 0.61566146476048833 forward_v I I I I #
face $-1 $44 $45 $15 $-1 $46 forward single #
loop $-1 $47 $48 $19 #
cone-surface $-1 61.287027031805017 35.154109972050207 3.9792006504285751 -0.78801076186113728 0 -0.61566146476048833 0.9234921971407325 0 -1.182016142791706 1 I I 0 1 1.5 forward I I I I #
face $-1 $49 $50 $12 $-1 $51 reversed single #
loop $-1 $-1 $52 $20 #
plane-surface $-1 0 0 -10.490625030865187 0 0 1 1 0 0 forward_v I I I I #
coedge $-1 $53 $54 $55 $56 forward $21 $-1 #
face $-1 $57 $58 $13 $-1 $59 reversed single #
loop $-1 $-1 $60 $23 #
plane-surface $-1 -55.025106529133794 0 7.7746266384478577 -1 0 0 0 0 1 forward_v I I I I #
coedge $-1 $61 $62 $63 $64 forward $24 $-1 #
face $-1 $65 $66 $14 $-1 $67 reversed single #
loop $-1 $-1 $68 $26 #
plane-surface $-1 -15.541636490427535 35.154109972050222 106.60924773069581 0.78801076186113728 0 0.61566146476048833 0.61566146476048833 0 -0.78801076186113728 forward_v I I I I #
coedge $-1 $69 $70 $71 $72 reversed $27 $-1 #
face $-1 $-1 $73 $15 $-1 $74 forward single #
loop $-1 $75 $76 $29 #
cone-surface $-1 58.612871976984863 35.154109972050207 1.8899218007859577 -0.78801076186113728 0 -0.61566146476048833 0.46174609857036625 0 -0.59100807139585299 1 I I -0.70710678118654757 0.70710678118654757 0.75 forward I I I I #
loop $-1 $-1 $77 $19 #
coedge $-1 $48 $48 $78 $79 reversed $30 $-1 #
face $-1 $80 $81 $12 $-1 $82 reversed single #
loop $-1 $-1 $83 $32 #
plane-surface $-1 0 -40.16103261827736 0 0 1 0 0 0 1 forward_v I I I I #
coedge $-1 $84 $85 $86 $87 forward $33 $-1 #
coedge $-1 $88 $35 $89 $90 forward $21 $-1 #
coedge $-1 $35 $88 $91 $92 forward $21 $-1 #
coedge $-1 $93 $94 $35 $56 reversed $95 $-1 #
edge $-1 $96 -40.16103261827736 $97 40.16103261827736 $55 $98 forward 7 unknown #
face $-1 $99 $100 $13 $-1 $101 reversed single #
loop $-1 $-1 $102 $36 #
plane-surface $-1 0 40.16103261827736 0 0 -1 0 0 0 -1 forward_v I I I I #
coedge $-1 $63 $103 $104 $105 reversed $37 $-1 #
coedge $-1 $106 $39 $107 $108 reversed $24 $-1 #
coedge $-1 $39 $106 $109 $110 reversed $24 $-1 #
coedge $-1 $111 $60 $39 $64 reversed $37 $-1 #
edge $-1 $112 -40.16103261827736 $113 40.16103261827736 $63 $114 forward 7 unknown #
face $-1 $115 $116 $14 $-1 $117 forward single #
loop $-1 $-1 $118 $40 #
plane-surface $-1 0 40.16103261827736 0 0 -1 0 0 0 -1 forward_v I I I I #
coedge $-1 $119 $120 $121 $122 reversed $41 $-1 #
coedge $-1 $70 $43 $123 $124 reversed $27 $-1 #
coedge $-1 $43 $69 $119 $125 reversed $27 $-1 #
coedge $-1 $121 $126 $43 $72 forward $127 $-1 #
edge $-1 $128 84.177761200305639 $129 93.945544459034295 $71 $130 forward 7 unknown #
loop $-1 $-1 $78 $44 #
plane-surface $-1 -15.541636490427535 35.154109972050222 106.60924773069581 0.78801076186113728 0 0.61566146476048833 0.61566146476048833 0 -0.78801076186113728 forward_v I I I I #
loop $-1 $-1 $131 $29 #
coedge $-1 $76 $76 $77 $132 reversed $45 $-1 #
coedge $-1 $77 $77 $76 $132 forward $47 $-1 #
coedge $-1 $78 $78 $48 $79 forward $73 $-1 #
edge $-1 $133 0 $133 6.2831853071796004 $78 $134 forward 7 unknown #
face $-1 $135 $136 $12 $-1 $137 reversed single #
loop $-1 $-1 $138 $49 #
plane-surface $-1 -67.185888241218294 0 0 1 0 0 0 0 -1 forward_v I I I I #
coedge $-1 $139 $91 $140 $141 forward $50 $-1 #
coedge $-1 $142 $52 $139 $143 forward $33 $-1 #
coedge $-1 $52 $142 $144 $145 forward $33 $-1 #
coedge $-1 $94 $93 $52 $87 reversed $95 $-1 #
edge $-1 $146 -40.16103261827736 $147 40.16103261827736 $86 $148 forward 7 unknown #
coedge $-1 $54 $53 $149 $150 forward $21 $-1 #
coedge $-1 $151 $152 $53 $90 reversed $136 $-1 #
edge $-1 $97 -67.185888241218294 $153 67.185888241218294 $89 $154 forward 7 unknown #
coedge $-1 $83 $155 $54 $92 reversed $50 $-1 #
edge $-1 $156 -67.185888241218294 $96 67.185888241218294 $91 $157 forward 7 unknown #
coedge $-1 $86 $55 $155 $158 forward $95 $-1 #
coedge $-1 $55 $86 $151 $159 reversed $95 $-1 #
loop $-1 $-1 $93 $135 #
vertex $-1 $56 $160 #
vertex $-1 $56 $161 #
straight-curve $-1 67.185888241218294 0 10.490625030865187 0 1 0 I I #
face $-1 $162 $163 $13 $-1 $164 forward single #
loop $-1 $-1 $165 $57 #
plane-surface $-1 -67.185888241218294 0 0 1 0 0 0 0 -1 forward_v I I I I #
coedge $-1 $109 $166 $111 $167 forward $58 $-1 #
coedge $-1 $60 $111 $168 $169 reversed $37 $-1 #
coedge $-1 $170 $107 $60 $105 forward $171 $-1 #
edge $-1 $113 1.1713149268065992 $172 6.6033117116412585 $104 $173 forward 7 unknown #
coedge $-1 $62 $61 $165 $174 reversed $24 $-1 #
coedge $-1 $104 $175 $61 $108 forward $171 $-1 #
edge $-1 $176 -36.633139548630268 $113 -24.472357836545772 $107 $177 forward 7 unknown #
coedge $-1 $178 $102 $62 $110 forward $58 $-1 #
edge $-1 $112 24.472357836545772 $179 36.633139548630268 $109 $180 forward 7 unknown #
coedge $-1 $103 $63 $102 $167 reversed $37 $-1 #
vertex $-1 $110 $181 #
vertex $-1 $108 $182 #
straight-curve $-1 -55.025106529133794 0 5.0586282460305281 0 -1 0 I I #
face $-1 $-1 $127 $14 $-1 $183 reversed single #
loop $-1 $-1 $123 $65 #
plane-surface $-1 0 0 10.490625030865187 0 0 1 1 0 0 forward_v I I I I #
coedge $-1 $184 $185 $120 $186 forward $66 $-1 #
coedge $-1 $187 $68 $70 $125 forward $41 $-1 #
coedge $-1 $68 $187 $118 $186 reversed $41 $-1 #
coedge $-1 $188 $71 $68 $122 forward $127 $-1 #
edge $-1 $129 12.570132339797965 $189 22.58397763225225 $121 $190 forward 7 unknown #
coedge $-1 $191 $192 $69 $124 forward $116 $-1 #
edge $-1 $193 14.382075055174511 $128 22.013503507152407 $123 $194 forward 7 unknown #
edge $-1 $129 -134.37177648243656 $193 -121.97628173607174 $70 $195 forward 7 unknown #
coedge $-1 $71 $188 $191 $196 reversed $127 $-1 #
loop $-1 $-1 $121 $115 #
vertex $-1 $196 $197 #
vertex $-1 $72 $198 #
straight-curve $-1 67.185888241218294 30.147187325823076 94.668386231170828 0 0 -1 I I #
coedge $-1 $131 $131 $-1 $199 reversed $75 $-1 #
edge $-1 $200 0 $200 6.2831853071796004 $76 $201 forward 7 unknown #
vertex $-1 $79 $202 #
ellipse-curve $-1 63.370174015229352 35.154109972050207 5.6067334015008541 0.78801076186113728 0 0.61566146476048833 0.9234921971407325 0 -1.182016142791706 1 I I #
face $-1 $-1 $95 $12 $-1 $203 reversed single #
loop $-1 $-1 $151 $80 #
plane-surface $-1 0 40.16103261827736 0 0 -1 0 0 0 -1 forward_v I I I I #
coedge $-1 $204 $149 $152 $205 forward $81 $-1 #
coedge $-1 $155 $83 $84 $143 reversed $50 $-1 #
coedge $-1 $149 $204 $83 $141 reversed $81 $-1 #
edge $-1 $156 -10.490625030865187 $206 10.490625030865187 $140 $207 forward 7 unknown #
coedge $-1 $85 $84 $204 $208 forward $33 $-1 #
edge $-1 $147 -67.185888241218294 $206 67.185888241218294 $139 $209 forward 7 unknown #
coedge $-1 $152 $151 $85 $145 reversed $136 $-1 #
edge $-1 $210 -67.185888241218294 $146 67.185888241218294 $144 $211 forward 7 unknown #
vertex $-1 $87 $212 #
vertex $-1 $158 $213 #
straight-curve $-1 67.185888241218294 0 -10.490625030865187 0 -1 0 I I #
coedge $-1 $138 $140 $88 $150 reversed $81 $-1 #
edge $-1 $153 -40.16103261827736 $156 40.16103261827736 $149 $214 forward 7 unknown #
coedge $-1 $144 $89 $94 $159 forward $136 $-1 #
coedge $-1 $89 $144 $138 $205 reversed $136 $-1 #
vertex $-1 $90 $215 #
straight-curve $-1 0 40.16103261827736 10.490625030865187 -1 0 0 I I #
coedge $-1 $91 $139 $93 $158 reversed $50 $-1 #
vertex $-1 $150 $216 #
straight-curve $-1 0 -40.16103261827736 10.490625030865187 1 0 0 I I #
edge $-1 $96 -10.490625030865187 $147 10.490625030865187 $93 $217 forward 7 unknown #
edge $-1 $97 -10.490625030865187 $146 10.490625030865187 $94 $218 forward 7 unknown #
point $-1 67.185888241218294 -40.16103261827736 10.490625030865187 #
point $-1 67.185888241218294 40.16103261827736 10.490625030865187 #
face $-1 $-1 $171 $13 $-1 $219 reversed single #
loop $-1 $-1 $168 $99 #
plane-surface $-1 0 0 10.490625030865187 0 0 1 1 0 0 forward_v I I I I #
coedge $-1 $220 $221 $106 $174 forward $100 $-1 #
coedge $-1 $102 $178 $222 $223 reversed $58 $-1 #
edge $-1 $224 -6.6033117116412585 $112 -1.1713149268065992 $102 $225 forward 7 unknown #
coedge $-1 $222 $226 $103 $169 forward $163 $-1 #
edge $-1 $172 -40.16103261827736 $224 40.16103261827736 $168 $227 forward 7 unknown #
coedge $-1 $175 $104 $226 $228 reversed $171 $-1 #
loop $-1 $-1 $104 $162 #
vertex $-1 $105 $229 #
straight-curve $-1 -55.025106529133794 -40.16103261827736 3.8873133192239289 0 0 1 I I #
edge $-1 $179 -40.16103261827736 $176 40.16103261827736 $165 $230 forward 7 unknown #
coedge $-1 $107 $170 $220 $231 forward $171 $-1 #
vertex $-1 $174 $232 #
straight-curve $-1 -30.552748692588022 -40.16103261827736 5.0586282460305281 1 0 0 I I #
coedge $-1 $166 $109 $221 $233 reversed $58 $-1 #
vertex $-1 $174 $234 #
straight-curve $-1 -30.552748692588022 40.16103261827736 5.0586282460305281 -1 0 0 I I #
point $-1 -55.025106529133794 40.16103261827736 5.0586282460305281 #
point $-1 -55.025106529133794 -40.16103261827736 5.0586282460305281 #
plane-surface $-1 67.185888241218294 0 0 -1 0 0 0 0 1 forward_v I I I I #
coedge $-1 $185 $118 $235 $236 reversed $66 $-1 #
coedge $-1 $118 $184 $188 $237 forward $66 $-1 #
edge $-1 $189 -87.582965876346549 $238 -75.187471129981745 $118 $239 forward 7 unknown #
coedge $-1 $120 $119 $192 $240 reversed $41 $-1 #
coedge $-1 $126 $121 $185 $237 reversed $127 $-1 #
vertex $-1 $186 $241 #
straight-curve $-1 67.185888241218294 17.577054986025111 0.72284177213654033 0 1 0 I I #
coedge $-1 $235 $123 $126 $196 forward $116 $-1 #
coedge $-1 $123 $235 $187 $240 forward $116 $-1 #
vertex $-1 $124 $242 #
straight-curve $-1 45.172384734065886 30.147187325823076 10.490625030865189 1 0 0 I I #
straight-curve $-1 -15.541636490427535 30.147187325823076 106.60924773069581 -0.61566146476048833 0 0.78801076186113728 I I #
edge $-1 $128 30.147187325823076 $243 40.16103261827736 $126 $244 forward 7 unknown #
point $-1 67.185888241218294 30.147187325823076 10.490625030865187 #
point $-1 67.185888241218294 30.147187325823076 0.72284177213653322 #
edge $-1 $245 1 $245 0 $131 $-1 forward 7 unknown #
vertex $-1 $132 $246 #
ellipse-curve $-1 59.203880048380718 35.154109972050207 2.351667899356324 0.78801076186113728 0 0.61566146476048833 0.9234921971407325 0 -1.182016142791706 1 I I #
point $-1 64.293666212370056 35.154109972050207 4.424717258709121 #
plane-surface $-1 67.185888241218294 0 0 -1 0 0 0 0 1 forward_v I I I I #
coedge $-1 $140 $138 $142 $208 reversed $81 $-1 #
edge $-1 $153 -10.490625030865187 $210 10.490625030865187 $152 $247 forward 7 unknown #
vertex $-1 $208 $248 #
straight-curve $-1 -67.185888241218294 -40.16103261827736 0 0 0 -1 I I #
edge $-1 $206 -40.16103261827736 $210 40.16103261827736 $204 $249 forward 7 unknown #
straight-curve $-1 0 -40.16103261827736 -10.490625030865187 -1 0 0 I I #
vertex $-1 $145 $250 #
straight-curve $-1 0 40.16103261827736 -10.490625030865187 1 0 0 I I #
point $-1 67.185888241218294 40.16103261827736 -10.490625030865187 #
point $-1 67.185888241218294 -40.16103261827736 -10.490625030865187 #
straight-curve $-1 -67.185888241218294 0 10.490625030865187 0 -1 0 I I #
point $-1 -67.185888241218294 40.16103261827736 10.490625030865187 #
point $-1 -67.185888241218294 -40.16103261827736 10.490625030865187 #
straight-curve $-1 67.185888241218294 -40.16103261827736 0 0 0 -1 I I #
straight-curve $-1 67.185888241218294 40.16103261827736 0 0 0 -1 I I #
plane-surface $-1 0 -40.16103261827736 0 0 1 0 0 0 1 forward_v I I I I #
coedge $-1 $251 $165 $175 $231 reversed $100 $-1 #
coedge $-1 $165 $251 $178 $233 forward $100 $-1 #
coedge $-1 $252 $168 $166 $223 forward $163 $-1 #
edge $-1 $224 55.025106529133794 $253 67.185888241218294 $166 $254 forward 7 unknown #
vertex $-1 $223 $255 #
straight-curve $-1 -55.025106529133794 40.16103261827736 3.8873133192239289 0 0 -1 I I #
coedge $-1 $168 $252 $170 $228 forward $163 $-1 #
straight-curve $-1 -55.025106529133794 0 10.490625030865187 0 1 0 I I #
edge $-1 $256 -67.185888241218294 $172 -55.025106529133794 $170 $257 forward 7 unknown #
point $-1 -55.025106529133794 -40.16103261827736 10.490625030865187 #
straight-curve $-1 -67.185888241218294 0 5.0586282460305281 0 -1 0 I I #
edge $-1 $256 -10.490625030865187 $176 -5.0586282460305281 $220 $258 forward 7 unknown #
point $-1 -67.185888241218294 -40.16103261827736 5.0586282460305281 #
edge $-1 $253 -10.490625030865187 $179 -5.0586282460305281 $178 $259 forward 7 unknown #
point $-1 -67.185888241218294 40.16103261827736 5.0586282460305281 #
coedge $-1 $192 $191 $184 $236 forward $116 $-1 #
edge $-1 $243 -67.185888241218294 $238 -59.554459789240397 $184 $260 forward 7 unknown #
edge $-1 $243 -10.490625030865187 $189 -0.72284177213653888 $188 $261 forward 7 unknown #
vertex $-1 $186 $262 #
straight-curve $-1 13.264431181718905 40.16103261827736 69.739161438414371 -0.61566146476048833 0 0.78801076186113728 I I #
edge $-1 $238 -22.583977632252257 $193 -12.570132339797965 $192 $263 forward 7 unknown #
point $-1 67.185888241218294 40.16103261827736 0.72284177213653888 #
point $-1 59.554459789240397 30.147187325823076 10.490625030865189 #
vertex $-1 $196 $264 #
straight-curve $-1 67.185888241218294 0 10.490625030865187 0 1 0 I I #
vertex $-1 $199 $265 #
point $-1 60.12737224552145 35.154109972050207 1.1696517565646181 #
straight-curve $-1 -67.185888241218294 40.16103261827736 0 0 0 -1 I I #
point $-1 -67.185888241218294 -40.16103261827736 -10.490625030865187 #
straight-curve $-1 -67.185888241218294 0 -10.490625030865187 0 1 0 I I #
point $-1 -67.185888241218294 40.16103261827736 -10.490625030865187 #
coedge $-1 $221 $220 $252 $266 reversed $100 $-1 #
coedge $-1 $226 $222 $251 $266 forward $163 $-1 #
vertex $-1 $223 $267 #
straight-curve $-1 0 40.16103261827736 10.490625030865187 -1 0 0 I I #
point $-1 -55.025106529133794 40.16103261827736 10.490625030865187 #
vertex $-1 $266 $268 #
straight-curve $-1 0 -40.16103261827736 10.490625030865187 1 0 0 I I #
straight-curve $-1 -67.185888241218294 -40.16103261827736 0 0 0 -1 I I #
straight-curve $-1 -67.185888241218294 40.16103261827736 0 0 0 -1 I I #
straight-curve $-1 0 40.16103261827736 10.490625030865187 -1 0 0 I I #
straight-curve $-1 67.185888241218294 40.16103261827736 0 0 0 -1 I I #
point $-1 59.554459789240397 40.161032618277368 10.490625030865189 #
straight-curve $-1 59.554459789240397 17.577054986025111 10.490625030865189 0 -1 0 I I #
point $-1 67.185888241218294 40.16103261827736 10.490625030865187 #
point $-1 58.021863905589008 35.154109972050207 1.4281757022155914 #
edge $-1 $253 -40.16103261827736 $256 40.16103261827736 $251 $269 forward 7 unknown #
point $-1 -67.185888241218294 40.16103261827736 10.490625030865187 #
point $-1 -67.185888241218294 -40.16103261827736 10.490625030865187 #
straight-curve $-1 -67.185888241218294 0 10.490625030865187 0 -1 0 I I #
End-of-ACIS-data 