500 0 13 0           
7 Unknown 11 ACIS 5.0 NT 24 Thu Mar 25 17:51:13 1999 
-1 9.9999999999999995e-007 1e-010 
body $-1 $13 $-1 $14 #
body $-1 $15 $-1 $16 #
body $-1 $17 $-1 $18 #
body $-1 $19 $-1 $20 #
body $-1 $21 $-1 $22 #
body $-1 $23 $-1 $24 #
body $-1 $25 $-1 $26 #
body $-1 $27 $-1 $28 #
body $-1 $29 $-1 $30 #
body $-1 $31 $-1 $32 #
body $-1 $33 $-1 $34 #
body $-1 $35 $-1 $36 #
body $-1 $37 $-1 $38 #
lump $-1 $-1 $39 $0 #
transform $-1 1 0 0 0 1 0 0 0 1 67.233497116000848 42.319943887668359 9.3059447521535947 1 rotate no_reflect no_shear #
lump $-1 $-1 $40 $1 #
transform $-1 1 0 0 0 1 0 0 0 1 67.233497116000848 42.319943887668359 9.3059447521535947 1 rotate no_reflect no_shear #
lump $-1 $-1 $41 $2 #
transform $-1 1 0 0 0 1 0 0 0 1 67.233497116000848 42.319943887668359 9.3059447521535947 1 rotate no_reflect no_shear #
lump $-1 $-1 $42 $3 #
transform $-1 1 0 0 0 1 0 0 0 1 67.233497116000848 42.319943887668359 9.3059447521535947 1 rotate no_reflect no_shear #
lump $-1 $-1 $43 $4 #
transform $-1 1 0 0 0 1 0 0 0 1 67.233497116000848 42.319943887668359 9.3059447521535947 1 rotate no_reflect no_shear #
lump $-1 $-1 $44 $5 #
transform $-1 1 0 0 0 1 0 0 0 1 67.233497116000848 42.319943887668359 9.3059447521535947 1 rotate no_reflect no_shear #
lump $-1 $-1 $45 $6 #
transform $-1 1 0 0 0 1 0 0 0 1 67.233497116000848 42.319943887668359 9.3059447521535947 1 rotate no_reflect no_shear #
lump $-1 $-1 $46 $7 #
transform $-1 1 0 0 0 1 0 0 0 1 67.233497116000848 42.319943887668359 9.3059447521535947 1 rotate no_reflect no_shear #
lump $-1 $-1 $47 $8 #
transform $-1 1 0 0 0 1 0 0 0 1 67.233497116000848 42.319943887668359 9.3059447521535947 1 rotate no_reflect no_shear #
lump $-1 $-1 $48 $9 #
transform $-1 1 0 0 0 1 0 0 0 1 67.233497116000848 42.319943887668359 9.3059447521535947 1 rotate no_reflect no_shear #
lump $-1 $-1 $49 $10 #
transform $-1 1 0 0 0 1 0 0 0 1 67.233497116000848 42.319943887668359 9.3059447521535947 1 rotate no_reflect no_shear #
lump $-1 $-1 $50 $11 #
transform $-1 1 0 0 0 1 0 0 0 1 67.233497116000848 42.319943887668359 9.3059447521535947 1 rotate no_reflect no_shear #
lump $-1 $-1 $51 $12 #
transform $-1 1 0 0 0 1 0 0 0 1 67.233497116000848 42.319943887668359 9.3059447521535947 1 rotate no_reflect no_shear #
shell $-1 $-1 $-1 $52 $-1 $13 #
shell $-1 $-1 $-1 $53 $-1 $15 #
shell $-1 $-1 $-1 $54 $-1 $17 #
shell $-1 $-1 $-1 $55 $-1 $19 #
shell $-1 $-1 $-1 $56 $-1 $21 #
shell $-1 $-1 $-1 $57 $-1 $23 #
shell $-1 $-1 $-1 $58 $-1 $25 #
shell $-1 $-1 $-1 $59 $-1 $27 #
shell $-1 $-1 $-1 $60 $-1 $29 #
shell $-1 $-1 $-1 $61 $-1 $31 #
shell $-1 $-1 $-1 $62 $-1 $33 #
shell $-1 $-1 $-1 $63 $-1 $35 #
shell $-1 $-1 $-1 $64 $-1 $37 #
face $-1 $65 $66 $39 $-1 $67 forward single #
face $-1 $68 $69 $40 $-1 $70 reversed single #
face $-1 $71 $72 $41 $-1 $73 reversed single #
face $-1 $74 $75 $42 $-1 $76 forward single #
face $-1 $77 $78 $43 $-1 $79 forward single #
face $-1 $80 $81 $44 $-1 $82 forward single #
face $-1 $83 $84 $45 $-1 $85 reversed single #
face $-1 $86 $87 $46 $-1 $88 forward single #
face $-1 $89 $90 $47 $-1 $91 forward single #
face $-1 $92 $93 $48 $-1 $94 forward single #
face $-1 $95 $96 $49 $-1 $97 reversed single #
face $-1 $98 $99 $50 $-1 $100 forward single #
face $-1 $101 $102 $51 $-1 $103 forward single #
face $-1 $104 $105 $39 $-1 $106 reversed single #
loop $-1 $-1 $107 $52 #
plane-surface $-1 0 0 9.3059447521535947 0 0 1 1 0 0 forward_v I I I I #
face $-1 $108 $109 $40 $-1 $110 forward single #
loop $-1 $-1 $111 $53 #
plane-surface $-1 0 -35.663303653623984 7.232763815064315 0 -1 0 0 0 -1 forward_v I I I I #
face $-1 $112 $113 $41 $-1 $114 reversed single #
loop $-1 $-1 $115 $54 #
plane-surface $-1 -136.48911988545612 -12.86140856501752 119.46011849043539 0 1 0 -0.51503808176128008 0 0.85716729658548041 forward_v I I I I #
face $-1 $116 $117 $42 $-1 $118 forward single #
loop $-1 $119 $120 $55 #
cone-surface $-1 -62.146137806667106 -9.6234628286095756 5.3579976876575088 0.51503808176128008 0 -0.85716729658548041 1.2857509448782207 0 0.77255712264192011 1 I I 0 1 1.5 forward I I I I #
face $-1 $121 $122 $43 $-1 $123 forward single #
loop $-1 $124 $125 $56 #
cone-surface $-1 -62.146137806667106 -4.7665442239976628 5.3579976876575088 0.51503808176128008 0 -0.85716729658548041 1.2857509448782207 0 0.77255712264192011 1 I I 0 1 1.5 forward I I I I #
face $-1 $126 $127 $44 $-1 $128 forward single #
loop $-1 $129 $130 $57 #
cone-surface $-1 -62.146137806667106 0.090374380614250072 5.3579976876575088 0.51503808176128008 0 -0.85716729658548041 1.2857509448782207 0 0.77255712264192011 1 I I 0 1 1.5 forward I I I I #
face $-1 $131 $132 $45 $-1 $133 reversed single #
loop $-1 $-1 $134 $58 #
plane-surface $-1 -67.233497116000848 -4.7665442239976628 4.199408564615112 -0.51503808176128008 0 0.85716729658548041 0.85716729658548041 0 0.51503808176128008 forward_v I I I I #
face $-1 $135 $136 $46 $-1 $137 forward single #
loop $-1 $138 $139 $59 #
cone-surface $-1 -62.146137806667106 6.5662658534301386 5.3579976876575088 0.51503808176128008 0 -0.85716729658548041 1.2857509448782207 0 0.77255712264192011 1 I I 0 1 1.5 forward I I I I #
face $-1 $140 $141 $47 $-1 $142 forward single #
loop $-1 $143 $144 $60 #
cone-surface $-1 -62.146137806667106 11.423184458042051 5.3579976876575088 0.51503808176128008 0 -0.85716729658548041 1.2857509448782207 0 0.77255712264192011 1 I I 0 1 1.5 forward I I I I #
face $-1 $145 $146 $48 $-1 $147 forward single #
loop $-1 $148 $149 $61 #
cone-surface $-1 -62.146137806667106 16.280103062653964 5.3579976876575088 0.51503808176128008 0 -0.85716729658548041 1.2857509448782207 0 0.77255712264192011 1 I I 0 1 1.5 forward I I I I #
face $-1 $150 $151 $49 $-1 $152 reversed single #
loop $-1 $-1 $153 $62 #
plane-surface $-1 50.65952315956747 -21.883256606630454 193.87156544758119 0 -1 0 -0.64278761758704617 0 -0.76604443648966558 forward_v I I I I #
face $-1 $154 $155 $50 $-1 $156 forward single #
loop $-1 $157 $158 $63 #
cone-surface $-1 63.310940115739548 -31.726147354482972 5.6558138005040464 -0.64278761758704617 0 -0.76604443648966558 0.76604443648966558 0 -0.64278761758704617 1 I I 0 1 1 forward I I I I #
face $-1 $159 $160 $51 $-1 $161 forward single #
loop $-1 $162 $163 $64 #
cone-surface $-1 63.310940115739548 -25.820412905771462 5.6558138005040464 -0.64278761758704617 0 -0.76604443648966558 0.76604443648966558 0 -0.64278761758704617 1 I I 0 1 1 forward I I I I #
face $-1 $164 $165 $39 $-1 $166 reversed single #
loop $-1 $-1 $167 $65 #
plane-surface $-1 0 0 -9.3059447521535947 0 0 1 1 0 0 forward_v I I I I #
coedge $-1 $168 $169 $170 $171 forward $66 $-1 #
face $-1 $172 $173 $40 $-1 $174 reversed single #
loop $-1 $-1 $175 $68 #
plane-surface $-1 0 -38.991623770646171 8.805944752153593 0 0 1 1 0 0 forward_v I I I I #
coedge $-1 $176 $177 $178 $179 reversed $69 $-1 #
face $-1 $180 $181 $41 $-1 $182 reversed single #
loop $-1 $-1 $183 $71 #
plane-surface $-1 -67.233497116000848 -4.7665442239976628 4.199408564615112 -0.51503808176128008 0 0.85716729658548041 0.85716729658548041 0 0.51503808176128008 forward_v I I I I #
coedge $-1 $184 $185 $186 $187 reversed $72 $-1 #
face $-1 $-1 $188 $42 $-1 $189 forward single #
loop $-1 $190 $191 $74 #
cone-surface $-1 -60.921851560478387 -9.6234628286095756 3.3204432444915515 0.51503808176128008 0 -0.85716729658548041 0.64287547243911036 0 0.38627856132096006 1 I I -0.70710678118654757 0.70710678118654757 0.75 forward I I I I #
loop $-1 $-1 $192 $55 #
coedge $-1 $120 $120 $193 $194 reversed $75 $-1 #
face $-1 $-1 $195 $43 $-1 $196 forward single #
loop $-1 $197 $198 $77 #
cone-surface $-1 -60.921851560478387 -4.7665442239976628 3.3204432444915515 0.51503808176128008 0 -0.85716729658548041 0.64287547243911036 0 0.38627856132096006 1 I I -0.70710678118654757 0.70710678118654757 0.75 forward I I I I #
loop $-1 $-1 $199 $56 #
coedge $-1 $125 $125 $200 $201 reversed $78 $-1 #
face $-1 $-1 $202 $44 $-1 $203 forward single #
loop $-1 $204 $205 $80 #
cone-surface $-1 -60.921851560478387 0.090374380614250072 3.3204432444915515 0.51503808176128008 0 -0.85716729658548041 0.64287547243911036 0 0.38627856132096006 1 I I -0.70710678118654757 0.70710678118654757 0.75 forward I I I I #
loop $-1 $-1 $206 $57 #
coedge $-1 $130 $130 $207 $208 reversed $81 $-1 #
face $-1 $209 $210 $45 $-1 $211 forward single #
loop $-1 $-1 $212 $83 #
plane-surface $-1 -136.48911988545612 19.518048799061908 119.46011849043539 0 -1 0 0.51503808176128008 0 -0.85716729658548041 forward_v I I I I #
coedge $-1 $213 $214 $215 $216 reversed $84 $-1 #
face $-1 $-1 $217 $46 $-1 $218 forward single #
loop $-1 $219 $220 $86 #
cone-surface $-1 -60.921851560478387 6.5662658534301386 3.3204432444915515 0.51503808176128008 0 -0.85716729658548041 0.64287547243911036 0 0.38627856132096006 1 I I -0.70710678118654757 0.70710678118654757 0.75 forward I I I I #
loop $-1 $-1 $221 $59 #
coedge $-1 $139 $139 $222 $223 reversed $87 $-1 #
face $-1 $-1 $224 $47 $-1 $225 forward single #
loop $-1 $226 $227 $89 #
cone-surface $-1 -60.921851560478387 11.423184458042051 3.3204432444915515 0.51503808176128008 0 -0.85716729658548041 0.64287547243911036 0 0.38627856132096006 1 I I -0.70710678118654757 0.70710678118654757 0.75 forward I I I I #
loop $-1 $-1 $228 $60 #
coedge $-1 $144 $144 $229 $230 reversed $90 $-1 #
face $-1 $-1 $231 $48 $-1 $232 forward single #
loop $-1 $233 $234 $92 #
cone-surface $-1 -60.921851560478387 16.280103062653964 3.3204432444915515 0.51503808176128008 0 -0.85716729658548041 0.64287547243911036 0 0.38627856132096006 1 I I -0.70710678118654757 0.70710678118654757 0.75 forward I I I I #
loop $-1 $-1 $235 $61 #
coedge $-1 $149 $149 $236 $237 reversed $93 $-1 #
face $-1 $238 $239 $49 $-1 $240 forward single #
loop $-1 $-1 $241 $95 #
plane-surface $-1 -35.774195706911982 -28.773280130127215 90.863872624668346 0.64278761758704617 0 0.76604443648966558 0.76604443648966558 0 -0.64278761758704617 forward_v I I I I #
coedge $-1 $242 $243 $244 $245 reversed $96 $-1 #
face $-1 $-1 $246 $50 $-1 $247 forward single #
loop $-1 $248 $249 $98 #
cone-surface $-1 61.972359962729826 -31.726147354482972 4.0605561275920063 -0.64278761758704617 0 -0.76604443648966558 0.38302221824483279 0 -0.32139380879352308 1 I I -0.70710678118654746 0.70710678118654746 0.5 forward I I I I #
loop $-1 $-1 $250 $63 #
coedge $-1 $158 $158 $251 $252 reversed $99 $-1 #
face $-1 $-1 $253 $51 $-1 $254 forward single #
loop $-1 $255 $256 $101 #
cone-surface $-1 61.972359962729826 -25.820412905771462 4.0605561275920063 -0.64278761758704617 0 -0.76604443648966558 0.38302221824483279 0 -0.32139380879352308 1 I I -0.70710678118654746 0.70710678118654746 0.5 forward I I I I #
loop $-1 $-1 $257 $64 #
coedge $-1 $163 $163 $258 $259 reversed $102 $-1 #
face $-1 $260 $261 $39 $-1 $262 reversed single #
loop $-1 $-1 $263 $104 #
plane-surface $-1 0 -42.319943887668359 0 0 1 0 0 0 1 forward_v I I I I #
coedge $-1 $264 $265 $266 $267 forward $105 $-1 #
coedge $-1 $268 $107 $269 $270 forward $66 $-1 #
coedge $-1 $107 $268 $271 $272 forward $66 $-1 #
coedge $-1 $273 $274 $107 $171 reversed $275 $-1 #
edge $-1 $276 -42.319943887668359 $277 42.319943887668359 $170 $278 forward 7 unknown #
face $-1 $279 $280 $40 $-1 $281 reversed single #
loop $-1 $-1 $282 $108 #
plane-surface $-1 0 -38.991623770646171 5.6595828779750361 0 0 1 1 0 0 forward_v I I I I #
coedge $-1 $283 $284 $285 $286 reversed $109 $-1 #
coedge $-1 $287 $111 $288 $289 reversed $69 $-1 #
coedge $-1 $111 $287 $290 $291 reversed $69 $-1 #
coedge $-1 $282 $292 $111 $179 forward $173 $-1 #
edge $-1 $293 -67.233497116000848 $294 67.233497116000848 $111 $295 forward 7 unknown #
face $-1 $296 $297 $41 $-1 $298 reversed single #
loop $-1 $-1 $299 $112 #
plane-surface $-1 -136.48911988545612 3.3283201170221943 119.46011849043539 0 -1 0 0.51503808176128008 0 -0.85716729658548041 forward_v I I I I #
coedge $-1 $300 $301 $302 $303 reversed $113 $-1 #
coedge $-1 $185 $115 $304 $305 reversed $72 $-1 #
coedge $-1 $115 $184 $300 $306 reversed $72 $-1 #
coedge $-1 $302 $307 $115 $187 forward $308 $-1 #
edge $-1 $309 1.0110628267272119 $310 9.5097660756591935 $186 $311 forward 7 unknown #
loop $-1 $-1 $193 $116 #
plane-surface $-1 -67.233497116000848 -4.7665442239976628 4.199408564615112 -0.51503808176128008 0 0.85716729658548041 0.85716729658548041 0 0.51503808176128008 forward_v I I I I #
loop $-1 $-1 $312 $74 #
coedge $-1 $191 $191 $192 $313 reversed $117 $-1 #
coedge $-1 $192 $192 $191 $313 forward $119 $-1 #
coedge $-1 $193 $193 $120 $194 forward $188 $-1 #
edge $-1 $314 0 $314 6.2831853071796004 $193 $315 forward 7 unknown #
loop $-1 $-1 $200 $121 #
plane-surface $-1 -67.233497116000848 -4.7665442239976628 4.199408564615112 -0.51503808176128008 0 0.85716729658548041 0.85716729658548041 0 0.51503808176128008 forward_v I I I I #
loop $-1 $-1 $316 $77 #
coedge $-1 $198 $198 $199 $317 reversed $122 $-1 #
coedge $-1 $199 $199 $198 $317 forward $124 $-1 #
coedge $-1 $200 $200 $125 $201 forward $195 $-1 #
edge $-1 $318 0 $318 6.2831853071796004 $200 $319 forward 7 unknown #
loop $-1 $-1 $207 $126 #
plane-surface $-1 -67.233497116000848 -4.7665442239976628 4.199408564615112 -0.51503808176128008 0 0.85716729658548041 0.85716729658548041 0 0.51503808176128008 forward_v I I I I #
loop $-1 $-1 $320 $80 #
coedge $-1 $205 $205 $206 $321 reversed $127 $-1 #
coedge $-1 $206 $206 $205 $321 forward $129 $-1 #
coedge $-1 $207 $207 $130 $208 forward $202 $-1 #
edge $-1 $322 0 $322 6.2831853071796004 $207 $323 forward 7 unknown #
face $-1 $324 $325 $45 $-1 $326 forward single #
loop $-1 $-1 $327 $131 #
plane-surface $-1 0 0 9.3059447521535947 0 0 1 1 0 0 forward_v I I I I #
coedge $-1 $328 $329 $330 $331 reversed $132 $-1 #
coedge $-1 $332 $134 $333 $334 reversed $84 $-1 #
coedge $-1 $134 $332 $327 $335 reversed $84 $-1 #
coedge $-1 $336 $337 $134 $216 forward $325 $-1 #
edge $-1 $338 0 $339 9.914871090843647 $215 $340 forward 7 unknown #
loop $-1 $-1 $222 $135 #
plane-surface $-1 -67.233497116000848 -4.7665442239976628 4.199408564615112 -0.51503808176128008 0 0.85716729658548041 0.85716729658548041 0 0.51503808176128008 forward_v I I I I #
loop $-1 $-1 $341 $86 #
coedge $-1 $220 $220 $221 $342 reversed $136 $-1 #
coedge $-1 $221 $221 $220 $342 forward $138 $-1 #
coedge $-1 $222 $222 $139 $223 forward $217 $-1 #
edge $-1 $343 0 $343 6.2831853071796004 $222 $344 forward 7 unknown #
loop $-1 $-1 $229 $140 #
plane-surface $-1 -67.233497116000848 -4.7665442239976628 4.199408564615112 -0.51503808176128008 0 0.85716729658548041 0.85716729658548041 0 0.51503808176128008 forward_v I I I I #
loop $-1 $-1 $345 $89 #
coedge $-1 $227 $227 $228 $346 reversed $141 $-1 #
coedge $-1 $228 $228 $227 $346 forward $143 $-1 #
coedge $-1 $229 $229 $144 $230 forward $224 $-1 #
edge $-1 $347 0 $347 6.2831853071796004 $229 $348 forward 7 unknown #
loop $-1 $-1 $236 $145 #
plane-surface $-1 -67.233497116000848 -4.7665442239976628 4.199408564615112 -0.51503808176128008 0 0.85716729658548041 0.85716729658548041 0 0.51503808176128008 forward_v I I I I #
loop $-1 $-1 $349 $92 #
coedge $-1 $234 $234 $235 $350 reversed $146 $-1 #
coedge $-1 $235 $235 $234 $350 forward $148 $-1 #
coedge $-1 $236 $236 $149 $237 forward $231 $-1 #
edge $-1 $351 0 $351 6.2831853071796004 $236 $352 forward 7 unknown #
face $-1 $353 $354 $49 $-1 $355 reversed single #
loop $-1 $-1 $244 $150 #
plane-surface $-1 0 0 9.3059447521535947 0 0 1 1 0 0 forward_v I I I I #
coedge $-1 $356 $357 $358 $359 reversed $151 $-1 #
coedge $-1 $243 $153 $360 $361 reversed $96 $-1 #
coedge $-1 $153 $242 $356 $362 reversed $96 $-1 #
coedge $-1 $358 $363 $153 $245 forward $239 $-1 #
edge $-1 $364 -41.903735536217113 $365 -36.092994224126954 $244 $366 forward 7 unknown #
loop $-1 $-1 $251 $154 #
plane-surface $-1 -35.774195706911982 -28.773280130127215 90.863872624668346 0.64278761758704617 0 0.76604443648966558 0.76604443648966558 0 -0.64278761758704617 forward_v I I I I #
loop $-1 $-1 $367 $98 #
coedge $-1 $249 $249 $250 $368 reversed $155 $-1 #
coedge $-1 $250 $250 $249 $368 forward $157 $-1 #
coedge $-1 $251 $251 $158 $252 forward $246 $-1 #
edge $-1 $369 0 $369 6.2831853071796004 $251 $370 forward 7 unknown #
loop $-1 $-1 $258 $159 #
plane-surface $-1 -35.774195706911982 -28.773280130127215 90.863872624668346 0.64278761758704617 0 0.76604443648966558 0.76604443648966558 0 -0.64278761758704617 forward_v I I I I #
loop $-1 $-1 $371 $101 #
coedge $-1 $256 $256 $257 $372 reversed $160 $-1 #
coedge $-1 $257 $257 $256 $372 forward $162 $-1 #
coedge $-1 $258 $258 $163 $259 forward $253 $-1 #
edge $-1 $373 0 $373 6.2831853071796004 $258 $374 forward 7 unknown #
face $-1 $375 $376 $39 $-1 $377 reversed single #
loop $-1 $-1 $378 $164 #
plane-surface $-1 -67.233497116000848 0 0 1 0 0 0 0 -1 forward_v I I I I #
coedge $-1 $379 $271 $380 $381 forward $165 $-1 #
coedge $-1 $382 $167 $379 $383 forward $105 $-1 #
coedge $-1 $167 $382 $384 $385 forward $105 $-1 #
coedge $-1 $274 $273 $167 $267 reversed $275 $-1 #
edge $-1 $386 -42.319943887668359 $387 42.319943887668359 $266 $388 forward 7 unknown #
coedge $-1 $169 $168 $389 $390 forward $66 $-1 #
coedge $-1 $391 $392 $168 $270 reversed $376 $-1 #
edge $-1 $277 -67.233497116000848 $393 67.233497116000848 $269 $394 forward 7 unknown #
coedge $-1 $263 $395 $169 $272 reversed $165 $-1 #
edge $-1 $396 -67.233497116000848 $276 67.233497116000848 $271 $397 forward 7 unknown #
coedge $-1 $266 $170 $395 $398 forward $275 $-1 #
coedge $-1 $170 $266 $391 $399 reversed $275 $-1 #
loop $-1 $-1 $273 $375 #
vertex $-1 $171 $400 #
vertex $-1 $171 $401 #
straight-curve $-1 67.233497116000848 0 9.3059447521535947 0 1 0 I I #
face $-1 $402 $403 $40 $-1 $404 reversed single #
loop $-1 $-1 $405 $172 #
plane-surface $-1 -67.233497116000848 0 0 1 0 0 0 0 -1 forward_v I I I I #
coedge $-1 $406 $178 $407 $408 reversed $173 $-1 #
coedge $-1 $409 $175 $287 $410 forward $109 $-1 #
coedge $-1 $175 $409 $411 $412 reversed $109 $-1 #
coedge $-1 $413 $290 $175 $286 forward $414 $-1 #
edge $-1 $415 16.167491768300899 $416 22.824132002345273 $285 $417 forward 7 unknown #
coedge $-1 $177 $176 $283 $410 reversed $69 $-1 #
coedge $-1 $418 $405 $176 $289 forward $280 $-1 #
edge $-1 $419 -5.1895628446214355 $293 -2.0432009704428786 $288 $420 forward 7 unknown #
coedge $-1 $285 $407 $177 $291 forward $414 $-1 #
edge $-1 $294 2.0432009704428786 $415 5.1895628446214355 $290 $421 forward 7 unknown #
coedge $-1 $178 $406 $418 $422 reversed $173 $-1 #
vertex $-1 $422 $423 #
vertex $-1 $408 $424 #
straight-curve $-1 0 -35.663303653623984 5.6595828779750361 1 0 0 I I #
face $-1 $-1 $308 $41 $-1 $425 forward single #
loop $-1 $-1 $426 $180 #
plane-surface $-1 -67.233497116000848 0 0 1 0 0 0 0 -1 forward_v I I I I #
coedge $-1 $427 $428 $429 $430 reversed $181 $-1 #
coedge $-1 $431 $183 $185 $306 forward $113 $-1 #
coedge $-1 $183 $431 $427 $432 forward $113 $-1 #
coedge $-1 $429 $186 $183 $303 forward $308 $-1 #
edge $-1 $310 -10.478136453018688 $433 5.7115922290210257 $302 $434 forward 7 unknown #
coedge $-1 $435 $436 $184 $305 forward $297 $-1 #
edge $-1 $437 -55.530650680602584 $309 -50.424114493064103 $304 $438 forward 7 unknown #
edge $-1 $310 -9.914871090843647 $437 0 $185 $439 forward 7 unknown #
coedge $-1 $186 $429 $435 $440 forward $308 $-1 #
loop $-1 $-1 $429 $296 #
vertex $-1 $305 $441 #
vertex $-1 $187 $442 #
straight-curve $-1 -68.24455994272806 -12.86140856501752 9.305944752153593 1 0 0 I I #
coedge $-1 $312 $312 $-1 $443 reversed $190 $-1 #
edge $-1 $444 0 $444 6.2831853071796004 $191 $445 forward 7 unknown #
vertex $-1 $194 $446 #
ellipse-curve $-1 -62.984145491534861 -9.6234628286095756 6.7526766583843516 -0.51503808176128008 0 0.85716729658548041 1.2857509448782207 0 0.77255712264192011 1 I I #
coedge $-1 $316 $316 $-1 $447 reversed $197 $-1 #
edge $-1 $448 0 $448 6.2831853071796004 $198 $449 forward 7 unknown #
vertex $-1 $201 $450 #
ellipse-curve $-1 -62.984145491534861 -4.7665442239976628 6.7526766583843516 -0.51503808176128008 0 0.85716729658548041 1.2857509448782207 0 0.77255712264192011 1 I I #
coedge $-1 $320 $320 $-1 $451 reversed $204 $-1 #
edge $-1 $452 0 $452 6.2831853071796004 $205 $453 forward 7 unknown #
vertex $-1 $208 $454 #
ellipse-curve $-1 -62.984145491534861 0.090374380614250072 6.7526766583843516 -0.51503808176128008 0 0.85716729658548041 1.2857509448782207 0 0.77255712264192011 1 I I #
face $-1 $-1 $455 $45 $-1 $456 reversed single #
loop $-1 $-1 $336 $209 #
plane-surface $-1 -136.48911988545612 3.3283201170221943 119.46011849043539 0 -1 0 0.51503808176128008 0 -0.85716729658548041 forward_v I I I I #
coedge $-1 $330 $457 $214 $335 forward $210 $-1 #
coedge $-1 $329 $212 $332 $458 reversed $132 $-1 #
coedge $-1 $212 $328 $459 $460 reversed $132 $-1 #
coedge $-1 $461 $327 $212 $331 forward $210 $-1 #
edge $-1 $462 -9.5097660756591935 $463 -1.0110628267272119 $330 $464 forward 7 unknown #
coedge $-1 $214 $213 $328 $458 forward $84 $-1 #
coedge $-1 $465 $459 $213 $334 forward $455 $-1 #
edge $-1 $466 -21.90132091106074 $338 -5.7115922290210257 $333 $467 forward 7 unknown #
edge $-1 $339 5.7115922290210257 $462 21.90132091106074 $327 $468 forward 7 unknown #
coedge $-1 $337 $215 $457 $469 reversed $325 $-1 #
coedge $-1 $215 $336 $465 $470 reversed $325 $-1 #
vertex $-1 $334 $471 #
vertex $-1 $335 $472 #
straight-curve $-1 -67.233497116000848 3.3283201170221943 4.199408564615112 0.85716729658548041 0 0.51503808176128008 I I #
coedge $-1 $341 $341 $-1 $473 reversed $219 $-1 #
edge $-1 $474 0 $474 6.2831853071796004 $220 $475 forward 7 unknown #
vertex $-1 $223 $476 #
ellipse-curve $-1 -62.984145491534861 6.5662658534301386 6.7526766583843516 -0.51503808176128008 0 0.85716729658548041 1.2857509448782207 0 0.77255712264192011 1 I I #
coedge $-1 $345 $345 $-1 $477 reversed $226 $-1 #
edge $-1 $478 0 $478 6.2831853071796004 $227 $479 forward 7 unknown #
vertex $-1 $230 $480 #
ellipse-curve $-1 -62.984145491534861 11.423184458042051 6.7526766583843516 -0.51503808176128008 0 0.85716729658548041 1.2857509448782207 0 0.77255712264192011 1 I I #
coedge $-1 $349 $349 $-1 $481 reversed $233 $-1 #
edge $-1 $482 0 $482 6.2831853071796004 $234 $483 forward 7 unknown #
vertex $-1 $237 $484 #
ellipse-curve $-1 -62.984145491534861 16.280103062653964 6.7526766583843516 -0.51503808176128008 0 0.85716729658548041 1.2857509448782207 0 0.77255712264192011 1 I I #
face $-1 $-1 $485 $49 $-1 $486 forward single #
loop $-1 $-1 $487 $238 #
plane-surface $-1 67.233497116000848 0 0 -1 0 0 0 0 1 forward_v I I I I #
coedge $-1 $488 $241 $243 $362 forward $151 $-1 #
coedge $-1 $241 $488 $489 $490 forward $151 $-1 #
coedge $-1 $491 $244 $241 $359 forward $239 $-1 #
edge $-1 $365 7.496616541566846 $492 21.276663588560368 $358 $493 forward 7 unknown #
coedge $-1 $494 $495 $242 $361 forward $354 $-1 #
edge $-1 $496 -92.505628965601673 $364 -87.629837971637002 $360 $497 forward 7 unknown #
edge $-1 $365 126.88161010113141 $496 134.46699423200167 $243 $498 forward 7 unknown #
coedge $-1 $244 $491 $494 $499 forward $239 $-1 #
vertex $-1 $361 $500 #
vertex $-1 $245 $501 #
straight-curve $-1 25.329761579783735 -21.883256606630454 9.305944752153593 -1 0 0 I I #
coedge $-1 $367 $367 $-1 $502 reversed $248 $-1 #
edge $-1 $503 0 $503 6.2831853071796004 $249 $504 forward 7 unknown #
vertex $-1 $252 $505 #
ellipse-curve $-1 64.328126459955755 -31.726147354482972 6.8680492551712629 0.64278761758704617 0 0.76604443648966558 0.76604443648966558 0 -0.64278761758704617 1 I I #
coedge $-1 $371 $371 $-1 $506 reversed $255 $-1 #
edge $-1 $507 0 $507 6.2831853071796004 $256 $508 forward 7 unknown #
vertex $-1 $259 $509 #
ellipse-curve $-1 64.328126459955755 -25.820412905771462 6.8680492551712629 0.64278761758704617 0 0.76604443648966558 0.76604443648966558 0 -0.64278761758704617 1 I I #
face $-1 $-1 $275 $39 $-1 $510 reversed single #
loop $-1 $-1 $391 $260 #
plane-surface $-1 0 42.319943887668359 0 0 -1 0 0 0 -1 forward_v I I I I #
coedge $-1 $511 $389 $392 $512 forward $261 $-1 #
coedge $-1 $395 $263 $264 $383 reversed $165 $-1 #
coedge $-1 $389 $511 $263 $381 reversed $261 $-1 #
edge $-1 $396 -9.3059447521535947 $513 9.3059447521535947 $380 $514 forward 7 unknown #
coedge $-1 $265 $264 $511 $515 forward $105 $-1 #
edge $-1 $387 -67.233497116000848 $513 67.233497116000848 $379 $516 forward 7 unknown #
coedge $-1 $392 $391 $265 $385 reversed $376 $-1 #
edge $-1 $517 -67.233497116000848 $386 67.233497116000848 $384 $518 forward 7 unknown #
vertex $-1 $267 $519 #
vertex $-1 $398 $520 #
straight-curve $-1 67.233497116000848 0 -9.3059447521535947 0 -1 0 I I #
coedge $-1 $378 $380 $268 $390 reversed $261 $-1 #
edge $-1 $393 -42.319943887668359 $396 42.319943887668359 $389 $521 forward 7 unknown #
coedge $-1 $384 $269 $274 $399 forward $376 $-1 #
coedge $-1 $269 $384 $378 $512 reversed $376 $-1 #
vertex $-1 $270 $522 #
straight-curve $-1 0 42.319943887668359 9.3059447521535947 -1 0 0 I I #
coedge $-1 $271 $379 $273 $398 reversed $165 $-1 #
vertex $-1 $390 $523 #
straight-curve $-1 0 -42.319943887668359 9.3059447521535947 1 0 0 I I #
edge $-1 $276 -9.3059447521535947 $387 9.3059447521535947 $273 $524 forward 7 unknown #
edge $-1 $277 -9.3059447521535947 $386 9.3059447521535947 $274 $525 forward 7 unknown #
point $-1 67.233497116000848 -42.319943887668359 9.3059447521535947 #
point $-1 67.233497116000848 42.319943887668359 9.3059447521535947 #
face $-1 $-1 $414 $40 $-1 $526 reversed single #
loop $-1 $-1 $411 $279 #
plane-surface $-1 0 -42.319943887668359 0 0 1 0 0 0 1 forward_v I I I I #
coedge $-1 $288 $527 $409 $528 forward $280 $-1 #
coedge $-1 $292 $282 $529 $530 reversed $173 $-1 #
coedge $-1 $290 $413 $282 $408 forward $414 $-1 #
edge $-1 $531 -22.824132002345273 $294 -16.167491768300899 $407 $532 forward 7 unknown #
coedge $-1 $284 $283 $405 $528 reversed $109 $-1 #
edge $-1 $415 -67.233497116000848 $419 67.233497116000848 $287 $533 forward 7 unknown #
coedge $-1 $534 $535 $284 $412 forward $403 $-1 #
edge $-1 $416 -67.233497116000848 $536 67.233497116000848 $411 $537 forward 7 unknown #
coedge $-1 $407 $285 $535 $538 forward $414 $-1 #
loop $-1 $-1 $285 $402 #
vertex $-1 $286 $539 #
vertex $-1 $538 $540 #
straight-curve $-1 67.233497116000848 -19.495811885323086 8.805944752153593 0 -1 0 I I #
coedge $-1 $527 $288 $292 $422 forward $280 $-1 #
vertex $-1 $528 $541 #
straight-curve $-1 -67.233497116000848 -35.663303653623984 3.6163819075321575 0 0 -1 I I #
straight-curve $-1 67.233497116000848 -35.663303653623984 3.6163819075321575 0 0 1 I I #
edge $-1 $293 16.167491768300899 $542 22.824132002345273 $418 $543 forward 7 unknown #
point $-1 -67.233497116000848 -35.663303653623984 5.6595828779750361 #
point $-1 67.233497116000848 -35.663303653623984 5.6595828779750361 #
plane-surface $-1 0 0 9.3059447521535947 0 0 1 1 0 0 forward_v I I I I #
coedge $-1 $436 $435 $428 $544 forward $297 $-1 #
coedge $-1 $428 $299 $301 $432 reversed $181 $-1 #
coedge $-1 $299 $427 $426 $544 reversed $181 $-1 #
coedge $-1 $307 $302 $299 $430 forward $308 $-1 #
edge $-1 $433 -9.5097660756591935 $545 -1.0110628267272119 $429 $546 forward 7 unknown #
coedge $-1 $301 $300 $436 $547 reversed $113 $-1 #
edge $-1 $548 0 $433 9.914871090843647 $427 $549 forward 7 unknown #
vertex $-1 $303 $550 #
straight-curve $-1 -58.734793867068859 -2.3832721119988314 9.3059447521535947 0 1 0 I I #
coedge $-1 $426 $304 $307 $440 reversed $297 $-1 #
coedge $-1 $304 $426 $431 $547 forward $297 $-1 #
vertex $-1 $305 $551 #
straight-curve $-1 -67.233497116000848 -12.86140856501752 59.730059245217696 0 0 1 I I #
straight-curve $-1 -67.233497116000848 -12.86140856501752 4.199408564615112 -0.85716729658548041 0 -0.51503808176128008 I I #
edge $-1 $545 -3.3283201170221943 $309 12.86140856501752 $435 $552 forward 7 unknown #
point $-1 -67.233497116000848 -12.86140856501752 9.3059447521535947 #
point $-1 -58.734793867068866 -12.86140856501752 9.3059447521535947 #
edge $-1 $553 1 $553 0 $312 $-1 forward 7 unknown #
vertex $-1 $313 $554 #
ellipse-curve $-1 -61.308130121799344 -9.6234628286095756 3.9633187169306616 -0.51503808176128008 0 0.85716729658548041 1.2857509448782207 0 0.77255712264192011 1 I I #
point $-1 -61.698394546656637 -9.6234628286095756 7.5252337810262757 #
edge $-1 $555 1 $555 0 $316 $-1 forward 7 unknown #
vertex $-1 $317 $556 #
ellipse-curve $-1 -61.308130121799344 -4.7665442239976628 3.9633187169306616 -0.51503808176128008 0 0.85716729658548041 1.2857509448782207 0 0.77255712264192011 1 I I #
point $-1 -61.698394546656637 -4.7665442239976628 7.5252337810262757 #
edge $-1 $557 1 $557 0 $320 $-1 forward 7 unknown #
vertex $-1 $321 $558 #
ellipse-curve $-1 -61.308130121799344 0.090374380614250072 3.9633187169306616 -0.51503808176128008 0 0.85716729658548041 1.2857509448782207 0 0.77255712264192011 1 I I #
point $-1 -61.698394546656637 0.090374380614250072 7.5252337810262757 #
loop $-1 $-1 $333 $324 #
plane-surface $-1 -67.233497116000848 0 0 1 0 0 0 0 -1 forward_v I I I I #
coedge $-1 $327 $461 $336 $469 forward $210 $-1 #
edge $-1 $466 0 $462 9.914871090843647 $328 $559 forward 7 unknown #
coedge $-1 $333 $560 $329 $460 forward $455 $-1 #
edge $-1 $463 50.424114493064103 $466 55.530650680602584 $459 $561 forward 7 unknown #
coedge $-1 $457 $330 $560 $562 forward $210 $-1 #
vertex $-1 $331 $563 #
vertex $-1 $562 $564 #
straight-curve $-1 -68.24455994272806 19.518048799061908 9.305944752153593 -1 0 0 I I #
coedge $-1 $560 $333 $337 $470 forward $455 $-1 #
vertex $-1 $460 $565 #
straight-curve $-1 -67.233497116000848 -2.3832721119988314 4.1994085646151111 0 -1 0 I I #
straight-curve $-1 -58.734793867068859 -2.3832721119988314 9.3059447521535947 0 1 0 I I #
edge $-1 $566 1.0110628267272119 $339 9.5097660756591935 $457 $567 forward 7 unknown #
edge $-1 $338 -55.530650680602584 $566 -50.424114493064103 $465 $568 forward 7 unknown #
point $-1 -67.233497116000848 3.3283201170221943 4.199408564615112 #
point $-1 -58.734793867068866 3.3283201170221943 9.3059447521535947 #
edge $-1 $569 1 $569 0 $341 $-1 forward 7 unknown #
vertex $-1 $342 $570 #
ellipse-curve $-1 -61.308130121799344 6.5662658534301386 3.9633187169306616 -0.51503808176128008 0 0.85716729658548041 1.2857509448782207 0 0.77255712264192011 1 I I #
point $-1 -61.698394546656637 6.5662658534301386 7.5252337810262757 #
edge $-1 $571 1 $571 0 $345 $-1 forward 7 unknown #
vertex $-1 $346 $572 #
ellipse-curve $-1 -61.308130121799344 11.423184458042051 3.9633187169306616 -0.51503808176128008 0 0.85716729658548041 1.2857509448782207 0 0.77255712264192011 1 I I #
point $-1 -61.698394546656637 11.423184458042051 7.5252337810262757 #
edge $-1 $573 1 $573 0 $349 $-1 forward 7 unknown #
vertex $-1 $350 $574 #
ellipse-curve $-1 -61.308130121799344 16.280103062653964 3.9633187169306616 -0.51503808176128008 0 0.85716729658548041 1.2857509448782207 0 0.77255712264192011 1 I I #
point $-1 -61.698394546656637 16.280103062653964 7.5252337810262757 #
loop $-1 $-1 $489 $353 #
plane-surface $-1 0 -35.663303653623984 7.232763815064315 0 -1 0 0 0 -1 forward_v I I I I #
coedge $-1 $495 $494 $575 $576 forward $354 $-1 #
coedge $-1 $357 $356 $495 $577 reversed $151 $-1 #
coedge $-1 $575 $578 $357 $490 reversed $485 $-1 #
edge $-1 $579 -134.46699423200167 $492 -126.88161010113141 $489 $580 forward 7 unknown #
coedge $-1 $363 $358 $578 $581 forward $239 $-1 #
vertex $-1 $581 $582 #
straight-curve $-1 61.42275580391069 -14.386640065063608 9.3059447521536001 0 -1 0 I I #
coedge $-1 $487 $360 $363 $499 reversed $354 $-1 #
coedge $-1 $360 $487 $488 $577 forward $354 $-1 #
vertex $-1 $361 $583 #
straight-curve $-1 67.233497116000848 -21.883256606630454 96.935782723790595 0 0 1 I I #
straight-curve $-1 -35.774195706911982 -21.883256606630454 90.863872624668346 0.76604443648966558 0 -0.64278761758704617 I I #
edge $-1 $584 -35.663303653623977 $364 -21.883256606630454 $494 $585 forward 7 unknown #
point $-1 67.233497116000848 -21.883256606630454 9.3059447521535947 #
point $-1 61.42275580391069 -21.883256606630454 9.305944752153593 #
edge $-1 $586 1 $586 0 $367 $-1 forward 7 unknown #
vertex $-1 $368 $587 #
ellipse-curve $-1 62.293753771523349 -31.726147354482972 4.4435783458368387 0.64278761758704617 0 0.76604443648966558 0.76604443648966558 0 -0.64278761758704617 1 I I #
point $-1 65.094170896445419 -31.726147354482972 6.2252616375842074 #
edge $-1 $588 1 $588 0 $371 $-1 forward 7 unknown #
vertex $-1 $372 $589 #
ellipse-curve $-1 62.293753771523349 -25.820412905771462 4.4435783458368387 0.64278761758704617 0 0.76604443648966558 0.76604443648966558 0 -0.64278761758704617 1 I I #
point $-1 65.094170896445419 -25.820412905771462 6.2252616375842074 #
plane-surface $-1 67.233497116000848 0 0 -1 0 0 0 0 1 forward_v I I I I #
coedge $-1 $380 $378 $382 $515 reversed $261 $-1 #
edge $-1 $393 -9.3059447521535947 $517 9.3059447521535947 $392 $590 forward 7 unknown #
vertex $-1 $515 $591 #
straight-curve $-1 -67.233497116000848 -42.319943887668359 0 0 0 -1 I I #
edge $-1 $513 -42.319943887668359 $517 42.319943887668359 $511 $592 forward 7 unknown #
straight-curve $-1 0 -42.319943887668359 -9.3059447521535947 -1 0 0 I I #
vertex $-1 $385 $593 #
straight-curve $-1 0 42.319943887668359 -9.3059447521535947 1 0 0 I I #
point $-1 67.233497116000848 42.319943887668359 -9.3059447521535947 #
point $-1 67.233497116000848 -42.319943887668359 -9.3059447521535947 #
straight-curve $-1 -67.233497116000848 0 9.3059447521535947 0 -1 0 I I #
point $-1 -67.233497116000848 42.319943887668359 9.3059447521535947 #
point $-1 -67.233497116000848 -42.319943887668359 9.3059447521535947 #
straight-curve $-1 67.233497116000848 -42.319943887668359 0 0 0 -1 I I #
straight-curve $-1 67.233497116000848 42.319943887668359 0 0 0 -1 I I #
plane-surface $-1 67.233497116000848 0 0 -1 0 0 0 0 1 forward_v I I I I #
coedge $-1 $405 $418 $534 $594 reversed $280 $-1 #
edge $-1 $536 -22.824132002345273 $419 -16.167491768300899 $405 $595 forward 7 unknown #
coedge $-1 $535 $534 $406 $530 forward $403 $-1 #
edge $-1 $542 -67.233497116000848 $531 67.233497116000848 $529 $596 forward 7 unknown #
vertex $-1 $530 $597 #
straight-curve $-1 67.233497116000848 -19.495811885323086 5.6595828779750361 0 1 0 I I #
straight-curve $-1 0 -35.663303653623984 8.805944752153593 -1 0 0 I I #
coedge $-1 $529 $411 $527 $594 forward $403 $-1 #
coedge $-1 $411 $529 $413 $538 reversed $403 $-1 #
vertex $-1 $594 $598 #
straight-curve $-1 0 -42.319943887668359 8.805944752153593 -1 0 0 I I #
edge $-1 $416 -8.805944752153593 $531 -5.6595828779750361 $413 $599 forward 7 unknown #
point $-1 67.233497116000848 -35.663303653623984 8.805944752153593 #
point $-1 67.233497116000848 -42.319943887668359 8.805944752153593 #
point $-1 -67.233497116000848 -35.663303653623984 8.805944752153593 #
vertex $-1 $530 $600 #
straight-curve $-1 -67.233497116000848 -19.495811885323086 5.6595828779750361 0 -1 0 I I #
edge $-1 $545 50.424114493064103 $548 55.530650680602584 $426 $601 forward 7 unknown #
vertex $-1 $440 $602 #
straight-curve $-1 -68.24455994272806 3.3283201170221943 9.305944752153593 -1 0 0 I I #
edge $-1 $548 -5.7115922290210257 $437 10.478136453018688 $436 $603 forward 7 unknown #
vertex $-1 $547 $604 #
straight-curve $-1 -67.233497116000848 3.3283201170221943 4.199408564615112 0.85716729658548041 0 0.51503808176128008 I I #
point $-1 -58.734793867068866 3.3283201170221943 9.3059447521535947 #
point $-1 -67.233497116000848 -12.86140856501752 4.199408564615112 #
straight-curve $-1 -67.233497116000848 0 9.3059447521535947 0 -1 0 I I #
vertex $-1 $443 $605 #
point $-1 -60.022379176921127 -9.6234628286095756 4.7358758395725822 #
vertex $-1 $447 $606 #
point $-1 -60.022379176921127 -4.7665442239976628 4.7358758395725822 #
vertex $-1 $451 $607 #
point $-1 -60.022379176921127 0.090374380614250072 4.7358758395725822 #
straight-curve $-1 -67.233497116000848 19.518048799061908 4.199408564615112 0.85716729658548041 0 0.51503808176128008 I I #
coedge $-1 $459 $465 $461 $562 reversed $455 $-1 #
straight-curve $-1 -67.233497116000848 19.518048799061908 59.730059245217696 0 0 -1 I I #
edge $-1 $463 -19.518048799061908 $566 -3.3283201170221943 $560 $608 forward 7 unknown #
point $-1 -58.734793867068866 19.518048799061908 9.3059447521535947 #
point $-1 -67.233497116000848 19.518048799061908 9.3059447521535947 #
point $-1 -67.233497116000848 19.518048799061908 4.199408564615112 #
vertex $-1 $470 $609 #
straight-curve $-1 -68.24455994272806 3.3283201170221943 9.305944752153593 1 0 0 I I #
straight-curve $-1 -67.233497116000848 3.3283201170221943 59.730059245217696 0 0 1 I I #
vertex $-1 $473 $610 #
point $-1 -60.022379176921127 6.5662658534301386 4.7358758395725822 #
vertex $-1 $477 $611 #
point $-1 -60.022379176921127 11.423184458042051 4.7358758395725822 #
vertex $-1 $481 $612 #
point $-1 -60.022379176921127 16.280103062653964 4.7358758395725822 #
coedge $-1 $578 $489 $487 $576 reversed $485 $-1 #
edge $-1 $584 87.629837971637002 $579 92.505628965601673 $487 $613 forward 7 unknown #
edge $-1 $579 -21.276663588560368 $496 -7.496616541566846 $495 $614 forward 7 unknown #
coedge $-1 $489 $575 $491 $581 reversed $485 $-1 #
vertex $-1 $576 $615 #
straight-curve $-1 -35.774195706911982 -35.663303653623977 90.863872624668346 -0.76604443648966558 0 0.64278761758704617 I I #
edge $-1 $492 36.092994224126954 $584 41.903735536217113 $491 $616 forward 7 unknown #
point $-1 61.42275580391069 -35.663303653623977 9.305944752153593 #
point $-1 67.233497116000848 -21.883256606630454 4.4301537581889221 #
vertex $-1 $499 $617 #
straight-curve $-1 67.233497116000848 0 9.3059447521535947 0 1 0 I I #
vertex $-1 $502 $618 #
point $-1 63.059798208013014 -31.726147354482972 3.800790728249793 #
vertex $-1 $506 $619 #
point $-1 63.059798208013014 -25.820412905771462 3.800790728249793 #
straight-curve $-1 -67.233497116000848 42.319943887668359 0 0 0 -1 I I #
point $-1 -67.233497116000848 -42.319943887668359 -9.3059447521535947 #
straight-curve $-1 -67.233497116000848 0 -9.3059447521535947 0 1 0 I I #
point $-1 -67.233497116000848 42.319943887668359 -9.3059447521535947 #
edge $-1 $536 -8.805944752153593 $542 -5.6595828779750361 $527 $620 forward 7 unknown #
straight-curve $-1 -67.233497116000848 -19.495811885323086 8.805944752153593 0 1 0 I I #
straight-curve $-1 0 -42.319943887668359 5.6595828779750361 1 0 0 I I #
point $-1 67.233497116000848 -42.319943887668359 5.6595828779750361 #
point $-1 -67.233497116000848 -42.319943887668359 8.805944752153593 #
straight-curve $-1 67.233497116000848 -42.319943887668359 0 0 0 -1 I I #
point $-1 -67.233497116000848 -42.319943887668359 5.6595828779750361 #
straight-curve $-1 -67.233497116000848 3.3283201170221943 59.730059245217696 0 0 -1 I I #
point $-1 -67.233497116000848 3.3283201170221943 9.3059447521535947 #
straight-curve $-1 -67.233497116000848 -2.3832721119988314 4.1994085646151111 0 -1 0 I I #
point $-1 -67.233497116000848 3.3283201170221943 4.199408564615112 #
point $-1 -60.535572999157431 -9.6234628286095756 2.6775677720524413 #
point $-1 -60.535572999157431 -4.7665442239976628 2.6775677720524413 #
point $-1 -60.535572999157431 0.090374380614250072 2.6775677720524413 #
straight-curve $-1 -67.233497116000848 0 9.3059447521535947 0 -1 0 I I #
point $-1 -67.233497116000848 3.3283201170221943 9.3059447521535947 #
point $-1 -60.535572999157431 6.5662658534301386 2.6775677720524413 #
point $-1 -60.535572999157431 11.423184458042051 2.6775677720524413 #
point $-1 -60.535572999157431 16.280103062653964 2.6775677720524413 #
straight-curve $-1 67.233497116000848 -35.663303653623977 96.935782723790595 0 0 -1 I I #
straight-curve $-1 67.233497116000848 -14.386640065063608 4.430153758188915 0 1 0 I I #
point $-1 67.233497116000848 -35.663303653623977 4.4301537581889221 #
straight-curve $-1 25.329761579783735 -35.663303653623977 9.305944752153593 1 0 0 I I #
point $-1 67.233497116000848 -35.663303653623977 9.3059447521535947 #
point $-1 61.650966153936302 -31.726147354482972 3.6775339093471735 #
point $-1 61.650966153936302 -25.820412905771462 3.6775339093471735 #
straight-curve $-1 -67.233497116000848 -42.319943887668359 0 0 0 -1 I I #
End-of-ACIS-data 