500 0 8 0           
7 Unknown 11 ACIS 5.0 NT 24 Fri Mar 26 20:10:47 1999 
-1 9.9999999999999995e-007 1e-010 
body $-1 $8 $-1 $9 #
body $-1 $10 $-1 $11 #
body $-1 $12 $-1 $13 #
body $-1 $14 $-1 $15 #
body $-1 $16 $-1 $17 #
body $-1 $18 $-1 $19 #
body $-1 $20 $-1 $21 #
body $-1 $22 $-1 $23 #
lump $-1 $-1 $24 $0 #
transform $-1 1 0 0 0 1 0 0 0 1 72.967314676351208 39.249854984922742 10.182179244783997 1 rotate no_reflect no_shear #
lump $-1 $-1 $25 $1 #
transform $-1 1 0 0 0 1 0 0 0 1 72.967314676351208 39.249854984922742 10.182179244783997 1 rotate no_reflect no_shear #
lump $-1 $-1 $26 $2 #
transform $-1 1 0 0 0 1 0 0 0 1 72.967314676351208 39.249854984922742 10.182179244783997 1 rotate no_reflect no_shear #
lump $-1 $-1 $27 $3 #
transform $-1 1 0 0 0 1 0 0 0 1 72.967314676351208 39.249854984922742 10.182179244783997 1 rotate no_reflect no_shear #
lump $-1 $-1 $28 $4 #
transform $-1 1 0 0 0 1 0 0 0 1 72.967314676351208 39.249854984922742 10.182179244783997 1 rotate no_reflect no_shear #
lump $-1 $-1 $29 $5 #
transform $-1 1 0 0 0 1 0 0 0 1 72.967314676351208 39.249854984922742 10.182179244783997 1 rotate no_reflect no_shear #
lump $-1 $-1 $30 $6 #
transform $-1 1 0 0 0 1 0 0 0 1 72.967314676351208 39.249854984922742 10.182179244783997 1 rotate no_reflect no_shear #
lump $-1 $-1 $31 $7 #
transform $-1 1 0 0 0 1 0 0 0 1 72.967314676351208 39.249854984922742 10.182179244783997 1 rotate no_reflect no_shear #
shell $-1 $-1 $-1 $32 $-1 $8 #
shell $-1 $-1 $-1 $33 $-1 $10 #
shell $-1 $-1 $-1 $34 $-1 $12 #
shell $-1 $-1 $-1 $35 $-1 $14 #
shell $-1 $-1 $-1 $36 $-1 $16 #
shell $-1 $-1 $-1 $37 $-1 $18 #
shell $-1 $-1 $-1 $38 $-1 $20 #
shell $-1 $-1 $-1 $39 $-1 $22 #
face $-1 $40 $41 $24 $-1 $42 forward single #
face $-1 $43 $44 $25 $-1 $45 reversed single #
face $-1 $46 $47 $26 $-1 $48 reversed single #
face $-1 $49 $50 $27 $-1 $51 forward single #
face $-1 $52 $53 $28 $-1 $54 reversed single #
face $-1 $55 $56 $29 $-1 $57 forward single #
face $-1 $58 $59 $30 $-1 $60 forward single #
face $-1 $61 $62 $31 $-1 $63 forward single #
face $-1 $64 $65 $24 $-1 $66 reversed single #
loop $-1 $-1 $67 $32 #
plane-surface $-1 0 0 10.182179244783997 0 0 1 1 0 0 forward_v I I I I #
face $-1 $68 $69 $25 $-1 $70 reversed single #
loop $-1 $-1 $71 $33 #
plane-surface $-1 0 -34.728199238762372 7.1821792447839972 0 0 1 1 0 0 forward_v I I I I #
face $-1 $72 $73 $26 $-1 $74 reversed single #
loop $-1 $-1 $75 $34 #
plane-surface $-1 -72.967314676351222 -24.6869356915964 0.99687341548744257 -0.66913061440640931 0 0.74314481823134659 0.74314481823134659 0 0.66913061440640931 forward_v I I I I #
face $-1 $76 $77 $27 $-1 $78 forward single #
loop $-1 $79 $80 $35 #
cone-surface $-1 -65.185856354474723 -24.6869356915964 2.6121956658892134 0.66913061440640931 0 -0.74314481823134659 1.8578620455783665 0 1.6728265360160233 1 I I 0 1 2.5 forward I I I I #
face $-1 $81 $82 $28 $-1 $83 reversed single #
loop $-1 $-1 $84 $36 #
plane-surface $-1 37.129331188008351 10.082131319612952 203.24906844980839 0 -1 0 -0.57357644374324357 0 -0.81915203911291934 forward_v I I I I #
face $-1 $85 $86 $29 $-1 $87 forward single #
loop $-1 $88 $89 $37 #
cone-surface $-1 65.269808856337974 0.44086166309347874 4.4808210104594268 -0.57357644374324357 0 -0.81915203911291934 0.40957601955645967 0 -0.28678822187162178 1 I I 0 1 0.5 forward I I I I #
face $-1 $90 $91 $30 $-1 $92 forward single #
loop $-1 $93 $94 $38 #
cone-surface $-1 65.269808856337974 4.0563377842882815 4.4808210104594268 -0.57357644374324357 0 -0.81915203911291934 0.40957601955645967 0 -0.28678822187162178 1 I I 0 1 0.5 forward I I I I #
face $-1 $95 $96 $31 $-1 $97 forward single #
loop $-1 $98 $99 $39 #
cone-surface $-1 65.269808856337974 7.6718139054830843 4.4808210104594268 -0.57357644374324357 0 -0.81915203911291934 0.40957601955645967 0 -0.28678822187162178 1 I I 0 1 0.5 forward I I I I #
face $-1 $100 $101 $24 $-1 $102 reversed single #
loop $-1 $-1 $103 $40 #
plane-surface $-1 0 0 -10.182179244783997 0 0 1 1 0 0 forward_v I I I I #
coedge $-1 $104 $105 $106 $107 forward $41 $-1 #
face $-1 $108 $109 $25 $-1 $110 reversed single #
loop $-1 $-1 $111 $43 #
plane-surface $-1 0 -30.206543492602002 8.6821792447839972 0 -1 0 0 0 -1 forward_v I I I I #
coedge $-1 $112 $113 $114 $115 reversed $44 $-1 #
face $-1 $116 $117 $26 $-1 $118 forward single #
loop $-1 $-1 $119 $46 #
plane-surface $-1 -170.6166428782966 -19.167327890590798 109.44743701946042 0 -1 0 0.66913061440640931 0 -0.74314481823134659 forward_v I I I I #
coedge $-1 $120 $121 $122 $123 reversed $47 $-1 #
face $-1 $-1 $124 $27 $-1 $125 forward single #
loop $-1 $126 $127 $49 #
cone-surface $-1 -61.668642456786316 -24.6869356915964 -1.2940660211464863 0.66913061440640931 0 -0.74314481823134659 0.92893102278918327 0 0.83641326800801163 1 I I -0.70710678118654746 0.70710678118654746 1.25 forward I I I I #
loop $-1 $-1 $128 $35 #
coedge $-1 $80 $80 $129 $130 reversed $50 $-1 #
face $-1 $131 $132 $28 $-1 $133 reversed single #
loop $-1 $-1 $134 $52 #
plane-surface $-1 -46.575334535103067 4.0563377842882815 83.706419238354115 0.57357644374324357 0 0.81915203911291934 0.81915203911291934 0 -0.57357644374324357 forward_v I I I I #
coedge $-1 $135 $136 $137 $138 reversed $53 $-1 #
face $-1 $-1 $139 $29 $-1 $140 forward single #
loop $-1 $141 $142 $55 #
cone-surface $-1 64.698486142479425 0.44086166309347874 3.6648876311272556 -0.57357644374324357 0 -0.81915203911291934 0.20478800977822983 0 -0.14339411093581089 1 I I -0.70710678118654746 0.70710678118654746 0.25 forward I I I I #
loop $-1 $-1 $143 $37 #
coedge $-1 $89 $89 $144 $145 reversed $56 $-1 #
face $-1 $-1 $146 $30 $-1 $147 forward single #
loop $-1 $148 $149 $58 #
cone-surface $-1 64.698486142479425 4.0563377842882815 3.6648876311272556 -0.57357644374324357 0 -0.81915203911291934 0.20478800977822983 0 -0.14339411093581089 1 I I -0.70710678118654746 0.70710678118654746 0.25 forward I I I I #
loop $-1 $-1 $150 $38 #
coedge $-1 $94 $94 $151 $152 reversed $59 $-1 #
face $-1 $-1 $153 $31 $-1 $154 forward single #
loop $-1 $155 $156 $61 #
cone-surface $-1 64.698486142479425 7.6718139054830843 3.6648876311272556 -0.57357644374324357 0 -0.81915203911291934 0.20478800977822983 0 -0.14339411093581089 1 I I -0.70710678118654746 0.70710678118654746 0.25 forward I I I I #
loop $-1 $-1 $157 $39 #
coedge $-1 $99 $99 $158 $159 reversed $62 $-1 #
face $-1 $160 $161 $24 $-1 $162 reversed single #
loop $-1 $-1 $163 $64 #
plane-surface $-1 0 -39.249854984922742 0 0 1 0 0 0 1 forward_v I I I I #
coedge $-1 $164 $165 $166 $167 forward $65 $-1 #
coedge $-1 $168 $67 $169 $170 forward $41 $-1 #
coedge $-1 $67 $168 $171 $172 forward $41 $-1 #
coedge $-1 $173 $174 $67 $107 reversed $175 $-1 #
edge $-1 $176 -39.249854984922742 $177 39.249854984922742 $106 $178 forward 7 unknown #
face $-1 $179 $180 $25 $-1 $181 reversed single #
loop $-1 $-1 $182 $68 #
plane-surface $-1 -72.967314676351208 0 0 1 0 0 0 0 -1 forward_v I I I I #
coedge $-1 $183 $184 $185 $186 reversed $69 $-1 #
coedge $-1 $187 $71 $188 $189 reversed $44 $-1 #
coedge $-1 $71 $187 $190 $191 forward $44 $-1 #
coedge $-1 $192 $193 $71 $115 forward $194 $-1 #
edge $-1 $195 -21.885755365541556 $196 -12.842443873220816 $114 $197 forward 7 unknown #
face $-1 $198 $199 $26 $-1 $200 reversed single #
loop $-1 $-1 $122 $72 #
plane-surface $-1 0 0 10.182179244783997 0 0 1 1 0 0 forward_v I I I I #
coedge $-1 $201 $202 $203 $204 reversed $73 $-1 #
coedge $-1 $205 $75 $206 $207 reversed $47 $-1 #
coedge $-1 $75 $205 $201 $208 forward $47 $-1 #
coedge $-1 $203 $209 $75 $123 forward $117 $-1 #
edge $-1 $210 -17.8630756468038 $211 -6.8238600447925979 $122 $212 forward 7 unknown #
loop $-1 $-1 $129 $76 #
plane-surface $-1 -72.967314676351222 -24.6869356915964 0.99687341548744257 -0.66913061440640931 0 0.74314481823134659 0.74314481823134659 0 0.66913061440640931 forward_v I I I I #
loop $-1 $-1 $213 $49 #
coedge $-1 $127 $127 $128 $214 reversed $77 $-1 #
coedge $-1 $128 $128 $127 $214 forward $79 $-1 #
coedge $-1 $129 $129 $80 $130 forward $124 $-1 #
edge $-1 $215 0 $215 6.2831853071796004 $129 $216 forward 7 unknown #
face $-1 $217 $218 $28 $-1 $219 reversed single #
loop $-1 $-1 $220 $81 #
plane-surface $-1 37.129331188008351 -1.9694557510363886 203.24906844980839 0 1 0 0.57357644374324357 0 0.81915203911291934 forward_v I I I I #
coedge $-1 $221 $222 $223 $224 reversed $82 $-1 #
coedge $-1 $136 $84 $225 $226 reversed $53 $-1 #
coedge $-1 $84 $135 $221 $227 reversed $53 $-1 #
coedge $-1 $223 $228 $84 $138 forward $229 $-1 #
edge $-1 $230 -54.402649082347033 $231 -39.863494648165975 $137 $232 forward 7 unknown #
loop $-1 $-1 $144 $85 #
plane-surface $-1 -46.575334535103067 4.0563377842882815 83.706419238354115 0.57357644374324357 0 0.81915203911291934 0.81915203911291934 0 -0.57357644374324357 forward_v I I I I #
loop $-1 $-1 $233 $55 #
coedge $-1 $142 $142 $143 $234 reversed $86 $-1 #
coedge $-1 $143 $143 $142 $234 forward $88 $-1 #
coedge $-1 $144 $144 $89 $145 forward $139 $-1 #
edge $-1 $235 0 $235 6.2831853071796004 $144 $236 forward 7 unknown #
loop $-1 $-1 $151 $90 #
plane-surface $-1 -46.575334535103067 4.0563377842882815 83.706419238354115 0.57357644374324357 0 0.81915203911291934 0.81915203911291934 0 -0.57357644374324357 forward_v I I I I #
loop $-1 $-1 $237 $58 #
coedge $-1 $149 $149 $150 $238 reversed $91 $-1 #
coedge $-1 $150 $150 $149 $238 forward $93 $-1 #
coedge $-1 $151 $151 $94 $152 forward $146 $-1 #
edge $-1 $239 0 $239 6.2831853071796004 $151 $240 forward 7 unknown #
loop $-1 $-1 $158 $95 #
plane-surface $-1 -46.575334535103067 4.0563377842882815 83.706419238354115 0.57357644374324357 0 0.81915203911291934 0.81915203911291934 0 -0.57357644374324357 forward_v I I I I #
loop $-1 $-1 $241 $61 #
coedge $-1 $156 $156 $157 $242 reversed $96 $-1 #
coedge $-1 $157 $157 $156 $242 forward $98 $-1 #
coedge $-1 $158 $158 $99 $159 forward $153 $-1 #
edge $-1 $243 0 $243 6.2831853071796004 $158 $244 forward 7 unknown #
face $-1 $245 $246 $24 $-1 $247 reversed single #
loop $-1 $-1 $248 $100 #
plane-surface $-1 -72.967314676351208 0 0 1 0 0 0 0 -1 forward_v I I I I #
coedge $-1 $249 $171 $250 $251 forward $101 $-1 #
coedge $-1 $252 $103 $249 $253 forward $65 $-1 #
coedge $-1 $103 $252 $254 $255 forward $65 $-1 #
coedge $-1 $174 $173 $103 $167 reversed $175 $-1 #
edge $-1 $256 -39.249854984922742 $257 39.249854984922742 $166 $258 forward 7 unknown #
coedge $-1 $105 $104 $259 $260 forward $41 $-1 #
coedge $-1 $261 $262 $104 $170 reversed $246 $-1 #
edge $-1 $177 -72.967314676351208 $263 72.967314676351208 $169 $264 forward 7 unknown #
coedge $-1 $163 $265 $105 $172 reversed $101 $-1 #
edge $-1 $266 -72.967314676351208 $176 72.967314676351208 $171 $267 forward 7 unknown #
coedge $-1 $166 $106 $265 $268 forward $175 $-1 #
coedge $-1 $106 $166 $261 $269 reversed $175 $-1 #
loop $-1 $-1 $173 $245 #
vertex $-1 $107 $270 #
vertex $-1 $107 $271 #
straight-curve $-1 72.967314676351208 0 10.182179244783997 0 1 0 I I #
face $-1 $272 $273 $25 $-1 $274 forward single #
loop $-1 $-1 $188 $108 #
plane-surface $-1 0 -39.249854984922742 0 0 1 0 0 0 1 forward_v I I I I #
coedge $-1 $275 $276 $184 $277 forward $109 $-1 #
coedge $-1 $190 $111 $192 $278 reversed $69 $-1 #
coedge $-1 $111 $190 $182 $277 reversed $69 $-1 #
coedge $-1 $279 $280 $111 $186 forward $273 $-1 #
edge $-1 $281 -72.967314676351208 $282 72.967314676351208 $185 $283 forward 7 unknown #
coedge $-1 $113 $112 $275 $284 reversed $44 $-1 #
coedge $-1 $285 $286 $112 $189 forward $180 $-1 #
edge $-1 $287 -72.967314676351208 $195 72.967314676351208 $188 $288 forward 7 unknown #
coedge $-1 $184 $183 $113 $191 reversed $69 $-1 #
edge $-1 $289 -72.967314676351208 $196 72.967314676351208 $190 $290 forward 7 unknown #
coedge $-1 $291 $114 $183 $278 forward $194 $-1 #
coedge $-1 $114 $291 $285 $292 forward $194 $-1 #
loop $-1 $-1 $192 $272 #
vertex $-1 $189 $293 #
vertex $-1 $115 $294 #
straight-curve $-1 72.967314676351208 -17.364099619381186 7.1821792447839972 0 1 0 I I #
face $-1 $-1 $295 $26 $-1 $296 forward single #
loop $-1 $-1 $297 $116 #
plane-surface $-1 -72.967314676351208 0 0 1 0 0 0 0 -1 forward_v I I I I #
coedge $-1 $202 $119 $121 $208 reversed $73 $-1 #
coedge $-1 $119 $201 $297 $298 reversed $73 $-1 #
coedge $-1 $299 $122 $119 $204 forward $117 $-1 #
edge $-1 $211 -22.542322147189289 $300 -12.341006762797093 $203 $301 forward 7 unknown #
coedge $-1 $121 $120 $302 $303 reversed $47 $-1 #
coedge $-1 $304 $305 $120 $207 forward $295 $-1 #
edge $-1 $306 -29.683877606722408 $210 -15.956653606599659 $206 $307 forward 7 unknown #
edge $-1 $308 1.9103891512089958e-014 $211 13.727224000122764 $201 $309 forward 7 unknown #
coedge $-1 $122 $299 $304 $310 forward $117 $-1 #
vertex $-1 $207 $311 #
vertex $-1 $123 $312 #
straight-curve $-1 -62.765999291959005 -12.3434678457982 10.182179244783995 0 1 0 I I #
coedge $-1 $213 $213 $-1 $313 reversed $126 $-1 #
edge $-1 $314 0 $314 6.2831853071796004 $127 $315 forward 7 unknown #
vertex $-1 $130 $316 #
ellipse-curve $-1 -67.866656984155114 -24.6869356915964 5.5895263301357252 -0.66913061440640931 0 0.74314481823134659 1.8578620455783665 0 1.6728265360160233 1 I I #
face $-1 $-1 $229 $28 $-1 $317 forward single #
loop $-1 $-1 $318 $131 #
plane-surface $-1 72.967314676351208 0 0 -1 0 0 0 0 1 forward_v I I I I #
coedge $-1 $319 $320 $321 $322 reversed $132 $-1 #
coedge $-1 $323 $134 $136 $227 forward $82 $-1 #
coedge $-1 $134 $323 $319 $324 forward $82 $-1 #
coedge $-1 $321 $137 $134 $224 forward $229 $-1 #
edge $-1 $231 -8.0539624274688109 $325 3.9976246431805293 $223 $326 forward 7 unknown #
coedge $-1 $327 $328 $135 $226 forward $218 $-1 #
edge $-1 $329 -101.6227807096615 $230 -91.4423549801202 $225 $330 forward 7 unknown #
edge $-1 $231 128.18559896522285 $329 145.93462935270242 $136 $331 forward 7 unknown #
coedge $-1 $137 $321 $327 $332 forward $229 $-1 #
loop $-1 $-1 $321 $217 #
vertex $-1 $226 $333 #
vertex $-1 $138 $334 #
straight-curve $-1 18.564665594004175 10.082131319612952 10.182179244783995 -1 0 0 I I #
coedge $-1 $233 $233 $-1 $335 reversed $141 $-1 #
edge $-1 $336 0 $336 6.2831853071796004 $142 $337 forward 7 unknown #
vertex $-1 $145 $338 #
ellipse-curve $-1 65.697737459260694 0.44086166309347874 5.0919663800133392 0.57357644374324357 0 0.81915203911291934 0.40957601955645967 0 -0.28678822187162178 1 I I #
coedge $-1 $237 $237 $-1 $339 reversed $148 $-1 #
edge $-1 $340 0 $340 6.2831853071796004 $149 $341 forward 7 unknown #
vertex $-1 $152 $342 #
ellipse-curve $-1 65.697737459260694 4.0563377842882815 5.0919663800133392 0.57357644374324357 0 0.81915203911291934 0.40957601955645967 0 -0.28678822187162178 1 I I #
coedge $-1 $241 $241 $-1 $343 reversed $155 $-1 #
edge $-1 $344 0 $344 6.2831853071796004 $156 $345 forward 7 unknown #
vertex $-1 $159 $346 #
ellipse-curve $-1 65.697737459260694 7.6718139054830843 5.0919663800133392 0.57357644374324357 0 0.81915203911291934 0.40957601955645967 0 -0.28678822187162178 1 I I #
face $-1 $-1 $175 $24 $-1 $347 reversed single #
loop $-1 $-1 $261 $160 #
plane-surface $-1 0 39.249854984922742 0 0 -1 0 0 0 -1 forward_v I I I I #
coedge $-1 $348 $259 $262 $349 forward $161 $-1 #
coedge $-1 $265 $163 $164 $253 reversed $101 $-1 #
coedge $-1 $259 $348 $163 $251 reversed $161 $-1 #
edge $-1 $266 -10.182179244783997 $350 10.182179244783997 $250 $351 forward 7 unknown #
coedge $-1 $165 $164 $348 $352 forward $65 $-1 #
edge $-1 $257 -72.967314676351208 $350 72.967314676351208 $249 $353 forward 7 unknown #
coedge $-1 $262 $261 $165 $255 reversed $246 $-1 #
edge $-1 $354 -72.967314676351208 $256 72.967314676351208 $254 $355 forward 7 unknown #
vertex $-1 $167 $356 #
vertex $-1 $268 $357 #
straight-curve $-1 72.967314676351208 0 -10.182179244783997 0 -1 0 I I #
coedge $-1 $248 $250 $168 $260 reversed $161 $-1 #
edge $-1 $263 -39.249854984922742 $266 39.249854984922742 $259 $358 forward 7 unknown #
coedge $-1 $254 $169 $174 $269 forward $246 $-1 #
coedge $-1 $169 $254 $248 $349 reversed $246 $-1 #
vertex $-1 $170 $359 #
straight-curve $-1 0 39.249854984922742 10.182179244783997 -1 0 0 I I #
coedge $-1 $171 $249 $173 $268 reversed $101 $-1 #
vertex $-1 $260 $360 #
straight-curve $-1 0 -39.249854984922742 10.182179244783997 1 0 0 I I #
edge $-1 $176 -10.182179244783997 $257 10.182179244783997 $173 $361 forward 7 unknown #
edge $-1 $177 -10.182179244783997 $256 10.182179244783997 $174 $362 forward 7 unknown #
point $-1 72.967314676351208 -39.249854984922742 10.182179244783997 #
point $-1 72.967314676351208 39.249854984922742 10.182179244783997 #
face $-1 $-1 $194 $25 $-1 $363 reversed single #
loop $-1 $-1 $185 $179 #
plane-surface $-1 0 0 10.182179244783997 0 0 1 1 0 0 forward_v I I I I #
coedge $-1 $364 $182 $187 $284 forward $109 $-1 #
coedge $-1 $182 $364 $279 $365 reversed $109 $-1 #
edge $-1 $282 -5.8410896223919986 $289 -2.8410896223919986 $182 $366 forward 7 unknown #
edge $-1 $196 2.8410896223919986 $281 5.8410896223919986 $192 $367 forward 7 unknown #
coedge $-1 $368 $185 $276 $365 forward $273 $-1 #
coedge $-1 $185 $368 $291 $369 forward $273 $-1 #
vertex $-1 $278 $370 #
vertex $-1 $365 $371 #
straight-curve $-1 0 -30.206543492602002 10.182179244783997 -1 0 0 I I #
edge $-1 $289 12.842443873220816 $287 21.885755365541556 $275 $372 forward 7 unknown #
coedge $-1 $373 $188 $193 $292 reversed $180 $-1 #
coedge $-1 $188 $373 $364 $374 forward $180 $-1 #
vertex $-1 $189 $375 #
straight-curve $-1 0 -39.249854984922742 7.1821792447839972 1 0 0 I I #
vertex $-1 $284 $376 #
straight-curve $-1 0 -30.206543492602002 7.1821792447839972 1 0 0 I I #
coedge $-1 $193 $192 $280 $369 reversed $194 $-1 #
edge $-1 $377 -10.182179244783997 $195 -7.1821792447839972 $193 $378 forward 7 unknown #
point $-1 72.967314676351208 -39.249854984922742 7.1821792447839972 #
point $-1 72.967314676351208 -30.206543492602002 7.1821792447839972 #
loop $-1 $-1 $206 $198 #
plane-surface $-1 0 -30.206543492602002 8.6821792447839972 0 -1 0 0 0 -1 forward_v I I I I #
coedge $-1 $302 $379 $202 $298 forward $199 $-1 #
edge $-1 $300 44.541539264946216 $308 53.726845094242755 $297 $380 forward 7 unknown #
coedge $-1 $209 $203 $379 $381 forward $117 $-1 #
vertex $-1 $381 $382 #
straight-curve $-1 -85.308321439148301 -19.167327890590798 10.182179244783995 -1 0 0 I I #
coedge $-1 $383 $297 $205 $303 forward $199 $-1 #
edge $-1 $308 6.8238600447925979 $306 17.8630756468038 $302 $384 forward 7 unknown #
coedge $-1 $305 $206 $209 $310 reversed $295 $-1 #
coedge $-1 $206 $304 $383 $385 reversed $295 $-1 #
vertex $-1 $385 $386 #
straight-curve $-1 -50.907894847901943 -30.206543492602002 20.859264676438276 0.74314481823134659 0 0.66913061440640931 I I #
vertex $-1 $303 $387 #
straight-curve $-1 -72.967314676351222 -19.167327890590798 0.99687341548744257 0.74314481823134659 0 0.66913061440640931 I I #
edge $-1 $388 -72.967314676351208 $210 -62.765999291959005 $209 $389 forward 7 unknown #
point $-1 -62.765999291959005 -30.206543492602002 10.182179244783997 #
point $-1 -62.765999291959012 -19.167327890590798 10.182179244783997 #
edge $-1 $390 1 $390 0 $213 $-1 forward 7 unknown #
vertex $-1 $214 $391 #
ellipse-curve $-1 -62.505055724794325 -24.6869356915964 -0.36513499835730301 -0.66913061440640931 0 0.74314481823134659 1.8578620455783665 0 1.6728265360160233 1 I I #
point $-1 -66.008794938576742 -24.6869356915964 7.2623528661517529 #
plane-surface $-1 0 0 10.182179244783997 0 0 1 1 0 0 forward_v I I I I #
coedge $-1 $328 $327 $320 $392 forward $218 $-1 #
coedge $-1 $320 $220 $222 $324 reversed $132 $-1 #
coedge $-1 $220 $319 $318 $392 reversed $132 $-1 #
coedge $-1 $228 $223 $220 $322 forward $229 $-1 #
edge $-1 $325 39.863494648165975 $393 54.402649082347033 $321 $394 forward 7 unknown #
coedge $-1 $222 $221 $328 $395 reversed $82 $-1 #
edge $-1 $396 -145.93462935270242 $325 -128.18559896522285 $319 $397 forward 7 unknown #
vertex $-1 $224 $398 #
straight-curve $-1 58.428160242170144 2.0281688921441408 10.182179244783995 0 -1 0 I I #
coedge $-1 $318 $225 $228 $332 reversed $218 $-1 #
coedge $-1 $225 $318 $323 $395 forward $218 $-1 #
vertex $-1 $226 $399 #
straight-curve $-1 72.967314676351208 10.082131319612952 101.6245342249042 0 0 1 I I #
straight-curve $-1 -46.575334535103067 10.082131319612952 83.706419238354115 0.81915203911291934 0 -0.57357644374324357 I I #
edge $-1 $393 -1.9694557510363886 $230 10.082131319612952 $327 $400 forward 7 unknown #
point $-1 72.967314676351208 10.082131319612952 10.182179244783997 #
point $-1 58.428160242170151 10.082131319612952 10.182179244783995 #
edge $-1 $401 1 $401 0 $233 $-1 forward 7 unknown #
vertex $-1 $234 $402 #
ellipse-curve $-1 64.841880253415241 0.44086166309347874 3.8696756409054855 0.57357644374324357 0 0.81915203911291934 0.40957601955645967 0 -0.28678822187162178 1 I I #
point $-1 66.107313478817161 0.44086166309347874 4.8051781581417456 #
edge $-1 $403 1 $403 0 $237 $-1 forward 7 unknown #
vertex $-1 $238 $404 #
ellipse-curve $-1 64.841880253415241 4.0563377842882815 3.8696756409054855 0.57357644374324357 0 0.81915203911291934 0.40957601955645967 0 -0.28678822187162178 1 I I #
point $-1 66.107313478817161 4.0563377842882815 4.8051781581417456 #
edge $-1 $405 1 $405 0 $241 $-1 forward 7 unknown #
vertex $-1 $242 $406 #
ellipse-curve $-1 64.841880253415241 7.6718139054830843 3.8696756409054855 0.57357644374324357 0 0.81915203911291934 0.40957601955645967 0 -0.28678822187162178 1 I I #
point $-1 66.107313478817161 7.6718139054830843 4.8051781581417456 #
plane-surface $-1 72.967314676351208 0 0 -1 0 0 0 0 1 forward_v I I I I #
coedge $-1 $250 $248 $252 $352 reversed $161 $-1 #
edge $-1 $263 -10.182179244783997 $354 10.182179244783997 $262 $407 forward 7 unknown #
vertex $-1 $352 $408 #
straight-curve $-1 -72.967314676351208 -39.249854984922742 0 0 0 -1 I I #
edge $-1 $350 -39.249854984922742 $354 39.249854984922742 $348 $409 forward 7 unknown #
straight-curve $-1 0 -39.249854984922742 -10.182179244783997 -1 0 0 I I #
vertex $-1 $255 $410 #
straight-curve $-1 0 39.249854984922742 -10.182179244783997 1 0 0 I I #
point $-1 72.967314676351208 39.249854984922742 -10.182179244783997 #
point $-1 72.967314676351208 -39.249854984922742 -10.182179244783997 #
straight-curve $-1 -72.967314676351208 0 10.182179244783997 0 -1 0 I I #
point $-1 -72.967314676351208 39.249854984922742 10.182179244783997 #
point $-1 -72.967314676351208 -39.249854984922742 10.182179244783997 #
straight-curve $-1 72.967314676351208 -39.249854984922742 0 0 0 -1 I I #
straight-curve $-1 72.967314676351208 39.249854984922742 0 0 0 -1 I I #
plane-surface $-1 72.967314676351208 0 0 -1 0 0 0 0 1 forward_v I I I I #
coedge $-1 $276 $275 $286 $374 reversed $109 $-1 #
edge $-1 $282 30.206543492602002 $411 39.249854984922742 $276 $412 forward 7 unknown #
straight-curve $-1 -72.967314676351208 -30.206543492602002 4.3410896223919986 0 0 -1 I I #
straight-curve $-1 72.967314676351208 -30.206543492602002 4.3410896223919986 0 0 1 I I #
coedge $-1 $280 $279 $373 $413 forward $273 $-1 #
edge $-1 $377 -39.249854984922742 $281 -30.206543492602002 $291 $414 forward 7 unknown #
point $-1 72.967314676351208 -30.206543492602002 10.182179244783997 #
point $-1 -72.967314676351208 -30.206543492602002 10.182179244783997 #
straight-curve $-1 -72.967314676351208 -17.364099619381186 7.1821792447839972 0 -1 0 I I #
coedge $-1 $286 $285 $368 $413 reversed $180 $-1 #
edge $-1 $411 -10.182179244783997 $287 -7.1821792447839972 $364 $415 forward 7 unknown #
point $-1 -72.967314676351208 -39.249854984922742 7.1821792447839972 #
point $-1 -72.967314676351208 -30.206543492602002 7.1821792447839972 #
vertex $-1 $369 $416 #
straight-curve $-1 72.967314676351208 -39.249854984922742 0 0 0 -1 I I #
coedge $-1 $297 $383 $299 $381 reversed $199 $-1 #
straight-curve $-1 -72.967314676351208 -19.167327890590798 54.723718509730212 0 0 -1 I I #
edge $-1 $300 19.167327890590798 $388 30.206543492602002 $379 $417 forward 7 unknown #
point $-1 -72.967314676351208 -19.167327890590798 10.182179244783997 #
coedge $-1 $379 $302 $305 $385 forward $199 $-1 #
straight-curve $-1 -72.967314676351208 -12.3434678457982 0.9968734154874459 0 -1 0 I I #
edge $-1 $306 -53.726845094242755 $388 -44.541539264946216 $383 $418 forward 7 unknown #
point $-1 -72.967314676351208 -30.206543492602002 0.99687341548745534 #
point $-1 -72.967314676351208 -19.167327890590798 0.99687341548745534 #
vertex $-1 $385 $419 #
straight-curve $-1 0 -30.206543492602002 10.182179244783997 1 0 0 I I #
vertex $-1 $313 $420 #
point $-1 -60.64719367921596 -24.6869356915964 1.3076915376587204 #
edge $-1 $393 91.4423549801202 $396 101.6227807096615 $318 $421 forward 7 unknown #
vertex $-1 $332 $422 #
straight-curve $-1 18.564665594004175 -1.9694557510363886 10.182179244783995 1 0 0 I I #
edge $-1 $396 -3.9976246431805293 $329 8.0539624274688109 $328 $423 forward 7 unknown #
vertex $-1 $395 $424 #
straight-curve $-1 -46.575334535103067 -1.9694557510363886 83.706419238354115 -0.81915203911291934 0 0.57357644374324357 I I #
point $-1 58.428160242170151 -1.9694557510363886 10.182179244783995 #
point $-1 72.967314676351208 10.082131319612952 0.00175351524269729 #
straight-curve $-1 72.967314676351208 0 10.182179244783997 0 1 0 I I #
vertex $-1 $335 $425 #
point $-1 65.251456272971694 0.44086166309347874 3.5828874190338635 #
vertex $-1 $339 $426 #
point $-1 65.251456272971694 4.0563377842882815 3.5828874190338635 #
vertex $-1 $343 $427 #
point $-1 65.251456272971694 7.6718139054830843 3.5828874190338635 #
straight-curve $-1 -72.967314676351208 39.249854984922742 0 0 0 -1 I I #
point $-1 -72.967314676351208 -39.249854984922742 -10.182179244783997 #
straight-curve $-1 -72.967314676351208 0 -10.182179244783997 0 1 0 I I #
point $-1 -72.967314676351208 39.249854984922742 -10.182179244783997 #
vertex $-1 $365 $428 #
straight-curve $-1 -72.967314676351208 0 10.182179244783997 0 -1 0 I I #
edge $-1 $411 -72.967314676351208 $377 72.967314676351208 $373 $429 forward 7 unknown #
straight-curve $-1 72.967314676351208 0 10.182179244783997 0 1 0 I I #
straight-curve $-1 -72.967314676351208 -39.249854984922742 0 0 0 -1 I I #
point $-1 72.967314676351208 -39.249854984922742 10.182179244783997 #
straight-curve $-1 -72.967314676351208 0 10.182179244783997 0 -1 0 I I #
straight-curve $-1 -72.967314676351208 -30.206543492602002 54.723718509730212 0 0 1 I I #
point $-1 -72.967314676351208 -30.206543492602002 10.182179244783997 #
point $-1 -60.832229188778307 -24.6869356915964 -2.2229970439356697 #
straight-curve $-1 72.967314676351208 -1.9694557510363886 101.6245342249042 0 0 -1 I I #
point $-1 72.967314676351208 -1.9694557510363886 10.182179244783997 #
straight-curve $-1 72.967314676351208 2.0281688921441408 0.0017535152427043954 0 1 0 I I #
point $-1 72.967314676351208 -1.9694557510363886 0.00175351524269729 #
point $-1 64.555092031543609 0.44086166309347874 3.4600996213490256 #
point $-1 64.555092031543609 4.0563377842882815 3.4600996213490256 #
point $-1 64.555092031543609 7.6718139054830843 3.4600996213490256 #
point $-1 -72.967314676351208 -39.249854984922742 10.182179244783997 #
straight-curve $-1 0 -39.249854984922742 10.182179244783997 1 0 0 I I #
End-of-ACIS-data 