500 0 8 0           
7 Unknown 11 ACIS 5.0 NT 24 Thu Mar 25 20:06:22 1999 
-1 9.9999999999999995e-007 1e-010 
body $-1 $8 $-1 $9 #
body $-1 $10 $-1 $11 #
body $-1 $12 $-1 $13 #
body $-1 $14 $-1 $15 #
body $-1 $16 $-1 $17 #
body $-1 $18 $-1 $19 #
body $-1 $20 $-1 $21 #
body $-1 $22 $-1 $23 #
lump $-1 $-1 $24 $0 #
transform $-1 1 0 0 0 1 0 0 0 1 52.884914700766018 32.929482029382882 12.033174594055749 1 rotate no_reflect no_shear #
lump $-1 $-1 $25 $1 #
transform $-1 1 0 0 0 1 0 0 0 1 52.884914700766018 32.929482029382882 12.033174594055749 1 rotate no_reflect no_shear #
lump $-1 $-1 $26 $2 #
transform $-1 1 0 0 0 1 0 0 0 1 52.884914700766018 32.929482029382882 12.033174594055749 1 rotate no_reflect no_shear #
lump $-1 $-1 $27 $3 #
transform $-1 1 0 0 0 1 0 0 0 1 52.884914700766018 32.929482029382882 12.033174594055749 1 rotate no_reflect no_shear #
lump $-1 $-1 $28 $4 #
transform $-1 1 0 0 0 1 0 0 0 1 52.884914700766018 32.929482029382882 12.033174594055749 1 rotate no_reflect no_shear #
lump $-1 $-1 $29 $5 #
transform $-1 1 0 0 0 1 0 0 0 1 52.884914700766018 32.929482029382882 12.033174594055749 1 rotate no_reflect no_shear #
lump $-1 $-1 $30 $6 #
transform $-1 1 0 0 0 1 0 0 0 1 52.884914700766018 32.929482029382882 12.033174594055749 1 rotate no_reflect no_shear #
lump $-1 $-1 $31 $7 #
transform $-1 1 0 0 0 1 0 0 0 1 52.884914700766018 32.929482029382882 12.033174594055749 1 rotate no_reflect no_shear #
shell $-1 $-1 $-1 $32 $-1 $8 #
shell $-1 $-1 $-1 $33 $-1 $10 #
shell $-1 $-1 $-1 $34 $-1 $12 #
shell $-1 $-1 $-1 $35 $-1 $14 #
shell $-1 $-1 $-1 $36 $-1 $16 #
shell $-1 $-1 $-1 $37 $-1 $18 #
shell $-1 $-1 $-1 $38 $-1 $20 #
shell $-1 $-1 $-1 $39 $-1 $22 #
face $-1 $40 $41 $24 $-1 $42 forward single #
face $-1 $43 $44 $25 $-1 $45 reversed single #
face $-1 $46 $47 $26 $-1 $48 forward single #
face $-1 $49 $50 $27 $-1 $51 reversed single #
face $-1 $52 $53 $28 $-1 $54 forward single #
face $-1 $55 $56 $29 $-1 $57 reversed single #
face $-1 $58 $59 $30 $-1 $60 forward single #
face $-1 $61 $62 $31 $-1 $63 forward single #
face $-1 $64 $65 $24 $-1 $66 reversed single #
loop $-1 $-1 $67 $32 #
plane-surface $-1 0 0 12.033174594055749 0 0 1 1 0 0 forward_v I I I I #
face $-1 $68 $69 $25 $-1 $70 forward single #
loop $-1 $-1 $71 $33 #
plane-surface $-1 0 -17.52050380802352 4.9941925614886724 0 -1 0 0 0 -1 forward_v I I I I #
face $-1 $72 $73 $26 $-1 $74 reversed single #
loop $-1 $-1 $75 $34 #
plane-surface $-1 0 25.224992918703201 7.5675886907603678 0 0 1 1 0 0 forward_v I I I I #
face $-1 $76 $77 $27 $-1 $78 reversed single #
loop $-1 $-1 $79 $35 #
plane-surface $-1 -133.9093056399285 -10.797808340305863 68.694927150150804 0 -1 0 0.7660444514056185 0 -0.64278759981090561 forward_v I I I I #
face $-1 $80 $81 $28 $-1 $82 forward single #
loop $-1 $83 $84 $36 #
cone-surface $-1 -46.199002816179004 -14.159156074164692 4.7473119838200111 0.7660444514056185 0 -0.64278759981090561 0.96418139971635841 0 1.1490666771084277 1 I I 0 1 1.5 forward I I I I #
face $-1 $85 $86 $29 $-1 $87 reversed single #
loop $-1 $-1 $88 $37 #
plane-surface $-1 16.697966015530241 17.520503808023516 153.90452174901705 0 -1 0 -0.51503808176128008 0 -0.85716729658548041 forward_v I I I I #
face $-1 $89 $90 $30 $-1 $91 forward single #
loop $-1 $92 $93 $38 #
cone-surface $-1 49.161083011709373 10.589207899414241 8.7263187238530975 -0.51503808176128008 0 -0.85716729658548041 0.85716729658548041 0 -0.51503808176128008 1 I I 0 1 1 forward I I I I #
face $-1 $94 $95 $31 $-1 $96 forward single #
loop $-1 $97 $98 $39 #
cone-surface $-1 49.161083011709373 14.747985444579811 8.7263187238530975 -0.51503808176128008 0 -0.85716729658548041 0.85716729658548041 0 -0.51503808176128008 1 I I 0 1 1 forward I I I I #
face $-1 $99 $100 $24 $-1 $101 reversed single #
loop $-1 $-1 $102 $40 #
plane-surface $-1 0 0 -12.033174594055749 0 0 1 1 0 0 forward_v I I I I #
coedge $-1 $103 $104 $105 $106 forward $41 $-1 #
face $-1 $107 $108 $25 $-1 $109 reversed single #
loop $-1 $-1 $110 $43 #
plane-surface $-1 0 -25.224992918703201 7.5675886907603678 0 0 1 1 0 0 forward_v I I I I #
coedge $-1 $111 $112 $113 $114 reversed $44 $-1 #
face $-1 $115 $116 $26 $-1 $117 reversed single #
loop $-1 $-1 $118 $46 #
plane-surface $-1 0 25.224992918703201 2.420796432216977 0 0 1 1 0 0 forward_v I I I I #
coedge $-1 $119 $120 $121 $122 reversed $47 $-1 #
face $-1 $123 $124 $27 $-1 $125 forward single #
loop $-1 $-1 $126 $49 #
plane-surface $-1 -52.884914700766032 -14.159156074164692 0.70739237673106459 -0.7660444514056185 0 0.64278759981090561 0.64278759981090561 0 0.7660444514056185 forward_v I I I I #
coedge $-1 $127 $128 $129 $130 reversed $50 $-1 #
face $-1 $-1 $131 $28 $-1 $132 forward single #
loop $-1 $133 $134 $52 #
cone-surface $-1 -43.690287309307465 -14.159156074164692 2.642249782388431 0.7660444514056185 0 -0.64278759981090561 0.48209069985817921 0 0.57453333855421385 1 I I -0.70710678118654757 0.70710678118654757 0.75 forward I I I I #
loop $-1 $-1 $135 $36 #
coedge $-1 $84 $84 $136 $137 reversed $53 $-1 #
face $-1 $138 $139 $29 $-1 $140 reversed single #
loop $-1 $-1 $141 $55 #
plane-surface $-1 -37.77752402765266 12.668596671997022 63.242083020598372 0.51503808176128008 0 0.85716729658548041 0.85716729658548041 0 -0.51503808176128008 forward_v I I I I #
coedge $-1 $142 $143 $144 $145 reversed $56 $-1 #
face $-1 $-1 $146 $30 $-1 $147 forward single #
loop $-1 $148 $149 $58 #
cone-surface $-1 47.897984613557128 10.589207899414241 6.6241700136778423 -0.51503808176128008 0 -0.85716729658548041 0.4285836482927402 0 -0.25751904088064004 1 I I -0.70710678118654746 0.70710678118654746 0.5 forward I I I I #
loop $-1 $-1 $150 $38 #
coedge $-1 $93 $93 $151 $152 reversed $59 $-1 #
face $-1 $-1 $153 $31 $-1 $154 forward single #
loop $-1 $155 $156 $61 #
cone-surface $-1 47.897984613557128 14.747985444579811 6.6241700136778423 -0.51503808176128008 0 -0.85716729658548041 0.4285836482927402 0 -0.25751904088064004 1 I I -0.70710678118654746 0.70710678118654746 0.5 forward I I I I #
loop $-1 $-1 $157 $39 #
coedge $-1 $98 $98 $158 $159 reversed $62 $-1 #
face $-1 $160 $161 $24 $-1 $162 reversed single #
loop $-1 $-1 $163 $64 #
plane-surface $-1 0 -32.929482029382882 0 0 1 0 0 0 1 forward_v I I I I #
coedge $-1 $164 $165 $166 $167 forward $65 $-1 #
coedge $-1 $168 $67 $169 $170 forward $41 $-1 #
coedge $-1 $67 $168 $171 $172 forward $41 $-1 #
coedge $-1 $173 $174 $67 $106 reversed $175 $-1 #
edge $-1 $176 -32.929482029382882 $177 32.929482029382882 $105 $178 forward 7 unknown #
face $-1 $179 $180 $25 $-1 $181 reversed single #
loop $-1 $-1 $182 $68 #
plane-surface $-1 0 -25.224992918703201 2.420796432216977 0 0 1 1 0 0 forward_v I I I I #
coedge $-1 $113 $183 $184 $185 reversed $69 $-1 #
coedge $-1 $186 $71 $187 $188 reversed $44 $-1 #
coedge $-1 $71 $186 $189 $190 reversed $44 $-1 #
coedge $-1 $191 $110 $71 $114 forward $69 $-1 #
edge $-1 $192 -52.884914700766018 $193 52.884914700766018 $71 $194 forward 7 unknown #
face $-1 $195 $196 $26 $-1 $197 reversed single #
loop $-1 $-1 $198 $72 #
plane-surface $-1 0 17.52050380802352 4.9941925614886724 0 1 0 0 0 1 forward_v I I I I #
coedge $-1 $199 $200 $201 $202 reversed $73 $-1 #
coedge $-1 $203 $75 $204 $205 reversed $47 $-1 #
coedge $-1 $75 $203 $206 $207 forward $47 $-1 #
coedge $-1 $208 $209 $75 $122 forward $196 $-1 #
edge $-1 $210 -20.316985570031282 $211 -4.9080073486719193 $121 $212 forward 7 unknown #
face $-1 $213 $214 $27 $-1 $215 reversed single #
loop $-1 $-1 $216 $76 #
plane-surface $-1 0 0 12.033174594055749 0 0 1 1 0 0 forward_v I I I I #
coedge $-1 $217 $218 $219 $220 reversed $77 $-1 #
coedge $-1 $128 $79 $221 $222 reversed $50 $-1 #
coedge $-1 $79 $127 $217 $223 reversed $50 $-1 #
coedge $-1 $219 $224 $79 $130 forward $214 $-1 #
edge $-1 $225 22.314288981019651 $226 33.640071198344323 $129 $227 forward 7 unknown #
loop $-1 $-1 $136 $80 #
plane-surface $-1 -52.884914700766032 -14.159156074164692 0.70739237673106459 -0.7660444514056185 0 0.64278759981090561 0.64278759981090561 0 0.7660444514056185 forward_v I I I I #
loop $-1 $-1 $228 $52 #
coedge $-1 $134 $134 $135 $229 reversed $81 $-1 #
coedge $-1 $135 $135 $134 $229 forward $83 $-1 #
coedge $-1 $136 $136 $84 $137 forward $131 $-1 #
edge $-1 $230 0 $230 6.2831853071796004 $136 $231 forward 7 unknown #
face $-1 $232 $233 $29 $-1 $234 reversed single #
loop $-1 $-1 $235 $85 #
plane-surface $-1 16.697966015530241 7.8166895359705286 153.90452174901705 0 1 0 0.51503808176128008 0 0.85716729658548041 forward_v I I I I #
coedge $-1 $236 $237 $238 $239 reversed $86 $-1 #
coedge $-1 $143 $88 $240 $241 reversed $56 $-1 #
coedge $-1 $88 $142 $236 $242 reversed $56 $-1 #
coedge $-1 $238 $243 $88 $145 forward $244 $-1 #
edge $-1 $245 -44.535931693000897 $246 -39.099427029430835 $144 $247 forward 7 unknown #
loop $-1 $-1 $151 $89 #
plane-surface $-1 -37.77752402765266 12.668596671997022 63.242083020598372 0.51503808176128008 0 0.85716729658548041 0.85716729658548041 0 -0.51503808176128008 forward_v I I I I #
loop $-1 $-1 $248 $58 #
coedge $-1 $149 $149 $150 $249 reversed $90 $-1 #
coedge $-1 $150 $150 $149 $249 forward $92 $-1 #
coedge $-1 $151 $151 $93 $152 forward $146 $-1 #
edge $-1 $250 0 $250 6.2831853071796004 $151 $251 forward 7 unknown #
loop $-1 $-1 $158 $94 #
plane-surface $-1 -37.77752402765266 12.668596671997022 63.242083020598372 0.51503808176128008 0 0.85716729658548041 0.85716729658548041 0 -0.51503808176128008 forward_v I I I I #
loop $-1 $-1 $252 $61 #
coedge $-1 $156 $156 $157 $253 reversed $95 $-1 #
coedge $-1 $157 $157 $156 $253 forward $97 $-1 #
coedge $-1 $158 $158 $98 $159 forward $153 $-1 #
edge $-1 $254 0 $254 6.2831853071796004 $158 $255 forward 7 unknown #
face $-1 $256 $257 $24 $-1 $258 reversed single #
loop $-1 $-1 $259 $99 #
plane-surface $-1 -52.884914700766018 0 0 1 0 0 0 0 -1 forward_v I I I I #
coedge $-1 $260 $171 $261 $262 forward $100 $-1 #
coedge $-1 $263 $102 $260 $264 forward $65 $-1 #
coedge $-1 $102 $263 $265 $266 forward $65 $-1 #
coedge $-1 $174 $173 $102 $167 reversed $175 $-1 #
edge $-1 $267 -32.929482029382882 $268 32.929482029382882 $166 $269 forward 7 unknown #
coedge $-1 $104 $103 $270 $271 forward $41 $-1 #
coedge $-1 $272 $273 $103 $170 reversed $257 $-1 #
edge $-1 $177 -52.884914700766018 $274 52.884914700766018 $169 $275 forward 7 unknown #
coedge $-1 $163 $276 $104 $172 reversed $100 $-1 #
edge $-1 $277 -52.884914700766018 $176 52.884914700766018 $171 $278 forward 7 unknown #
coedge $-1 $166 $105 $276 $279 forward $175 $-1 #
coedge $-1 $105 $166 $272 $280 reversed $175 $-1 #
loop $-1 $-1 $173 $256 #
vertex $-1 $106 $281 #
vertex $-1 $106 $282 #
straight-curve $-1 52.884914700766018 0 12.033174594055749 0 1 0 I I #
face $-1 $283 $284 $25 $-1 $285 reversed single #
loop $-1 $-1 $286 $107 #
plane-surface $-1 -52.884914700766018 0 0 1 0 0 0 0 -1 forward_v I I I I #
coedge $-1 $287 $288 $289 $290 reversed $108 $-1 #
coedge $-1 $110 $191 $291 $292 reversed $69 $-1 #
coedge $-1 $293 $187 $110 $185 forward $294 $-1 #
edge $-1 $192 4.9080073486719193 $295 20.316985570031282 $184 $296 forward 7 unknown #
coedge $-1 $112 $111 $288 $297 reversed $44 $-1 #
coedge $-1 $184 $289 $111 $188 forward $294 $-1 #
edge $-1 $298 -0.07629984852735916 $192 5.0704924100160316 $187 $299 forward 7 unknown #
coedge $-1 $300 $286 $112 $190 forward $180 $-1 #
edge $-1 $193 -5.0704924100160316 $301 0.07629984852735916 $189 $302 forward 7 unknown #
coedge $-1 $183 $113 $286 $303 reversed $69 $-1 #
vertex $-1 $185 $304 #
vertex $-1 $303 $305 #
straight-curve $-1 0 -17.52050380802352 7.5675886907603678 -1 0 0 I I #
face $-1 $306 $307 $26 $-1 $308 reversed single #
loop $-1 $-1 $121 $115 #
plane-surface $-1 52.884914700766018 0 0 -1 0 0 0 0 1 forward_v I I I I #
coedge $-1 $309 $206 $310 $311 reversed $116 $-1 #
coedge $-1 $312 $118 $309 $313 forward $73 $-1 #
coedge $-1 $118 $312 $314 $315 reversed $73 $-1 #
coedge $-1 $209 $208 $118 $202 forward $196 $-1 #
edge $-1 $316 4.9080073486719193 $317 20.316985570031282 $201 $318 forward 7 unknown #
coedge $-1 $120 $119 $319 $320 reversed $47 $-1 #
coedge $-1 $321 $322 $119 $205 forward $323 $-1 #
edge $-1 $324 -52.884914700766018 $210 52.884914700766018 $204 $325 forward 7 unknown #
coedge $-1 $198 $326 $120 $207 reversed $116 $-1 #
edge $-1 $327 -52.884914700766018 $211 52.884914700766018 $206 $328 forward 7 unknown #
coedge $-1 $201 $121 $326 $329 forward $196 $-1 #
coedge $-1 $121 $201 $321 $330 reversed $196 $-1 #
vertex $-1 $330 $331 #
vertex $-1 $122 $332 #
straight-curve $-1 52.884914700766018 12.6124964593516 7.5675886907603678 0 -1 0 I I #
face $-1 $-1 $333 $27 $-1 $334 forward single #
loop $-1 $-1 $335 $123 #
plane-surface $-1 -52.884914700766018 0 0 1 0 0 0 0 -1 forward_v I I I I #
coedge $-1 $336 $337 $338 $339 forward $124 $-1 #
coedge $-1 $340 $126 $128 $223 forward $77 $-1 #
coedge $-1 $126 $340 $341 $342 forward $77 $-1 #
coedge $-1 $335 $129 $126 $220 forward $214 $-1 #
edge $-1 $226 3.7182303032235176 $343 10.440925770941174 $219 $344 forward 7 unknown #
coedge $-1 $337 $336 $127 $222 forward $124 $-1 #
edge $-1 $345 -23.573197551737593 $225 -14.069738119198234 $221 $346 forward 7 unknown #
edge $-1 $226 2.214690806755022e-014 $345 14.784758503952297 $128 $347 forward 7 unknown #
coedge $-1 $129 $335 $337 $348 reversed $214 $-1 #
vertex $-1 $348 $349 #
vertex $-1 $130 $350 #
straight-curve $-1 -52.884914700766018 -10.797808340305863 34.347463575075402 0 0 -1 I I #
coedge $-1 $228 $228 $-1 $351 reversed $133 $-1 #
edge $-1 $352 0 $352 6.2831853071796004 $134 $353 forward 7 unknown #
vertex $-1 $137 $354 #
ellipse-curve $-1 -48.133184984496339 -14.159156074164692 6.3702834853934167 -0.7660444514056185 0 0.64278759981090561 0.96418139971635841 0 1.1490666771084277 1 I I #
face $-1 $-1 $244 $29 $-1 $355 forward single #
loop $-1 $-1 $356 $138 #
plane-surface $-1 52.884914700766018 0 0 -1 0 0 0 0 1 forward_v I I I I #
coedge $-1 $357 $358 $359 $360 reversed $139 $-1 #
coedge $-1 $361 $141 $143 $242 forward $86 $-1 #
coedge $-1 $141 $361 $357 $362 forward $86 $-1 #
coedge $-1 $359 $144 $141 $239 forward $244 $-1 #
edge $-1 $246 -11.186205472025005 $363 -1.4823911999720174 $238 $364 forward 7 unknown #
coedge $-1 $365 $366 $142 $241 forward $233 $-1 #
edge $-1 $367 -68.185667897093055 $245 -64.919086280452774 $240 $368 forward 7 unknown #
edge $-1 $246 99.427421466434254 $367 105.76982940153204 $143 $369 forward 7 unknown #
coedge $-1 $144 $359 $365 $370 forward $244 $-1 #
loop $-1 $-1 $359 $232 #
vertex $-1 $241 $371 #
vertex $-1 $145 $372 #
straight-curve $-1 8.3489830077651206 17.520503808023516 12.033174594055751 -1 0 0 I I #
coedge $-1 $248 $248 $-1 $373 reversed $148 $-1 #
edge $-1 $374 0 $374 6.2831853071796004 $149 $375 forward 7 unknown #
vertex $-1 $152 $376 #
ellipse-curve $-1 50.16666236898098 10.589207899414241 10.399883785735609 0.51503808176128008 0 0.85716729658548041 0.85716729658548041 0 -0.51503808176128008 1 I I #
coedge $-1 $252 $252 $-1 $377 reversed $155 $-1 #
edge $-1 $378 0 $378 6.2831853071796004 $156 $379 forward 7 unknown #
vertex $-1 $159 $380 #
ellipse-curve $-1 50.16666236898098 14.747985444579811 10.399883785735609 0.51503808176128008 0 0.85716729658548041 0.85716729658548041 0 -0.51503808176128008 1 I I #
face $-1 $-1 $175 $24 $-1 $381 reversed single #
loop $-1 $-1 $272 $160 #
plane-surface $-1 0 32.929482029382882 0 0 -1 0 0 0 -1 forward_v I I I I #
coedge $-1 $382 $270 $273 $383 forward $161 $-1 #
coedge $-1 $276 $163 $164 $264 reversed $100 $-1 #
coedge $-1 $270 $382 $163 $262 reversed $161 $-1 #
edge $-1 $277 -12.033174594055749 $384 12.033174594055749 $261 $385 forward 7 unknown #
coedge $-1 $165 $164 $382 $386 forward $65 $-1 #
edge $-1 $268 -52.884914700766018 $384 52.884914700766018 $260 $387 forward 7 unknown #
coedge $-1 $273 $272 $165 $266 reversed $257 $-1 #
edge $-1 $388 -52.884914700766018 $267 52.884914700766018 $265 $389 forward 7 unknown #
vertex $-1 $167 $390 #
vertex $-1 $279 $391 #
straight-curve $-1 52.884914700766018 0 -12.033174594055749 0 -1 0 I I #
coedge $-1 $259 $261 $168 $271 reversed $161 $-1 #
edge $-1 $274 -32.929482029382882 $277 32.929482029382882 $270 $392 forward 7 unknown #
coedge $-1 $265 $169 $174 $280 forward $257 $-1 #
coedge $-1 $169 $265 $259 $383 reversed $257 $-1 #
vertex $-1 $170 $393 #
straight-curve $-1 0 32.929482029382882 12.033174594055749 -1 0 0 I I #
coedge $-1 $171 $260 $173 $279 reversed $100 $-1 #
vertex $-1 $271 $394 #
straight-curve $-1 0 -32.929482029382882 12.033174594055749 1 0 0 I I #
edge $-1 $176 -12.033174594055749 $268 12.033174594055749 $173 $395 forward 7 unknown #
edge $-1 $177 -12.033174594055749 $267 12.033174594055749 $174 $396 forward 7 unknown #
point $-1 52.884914700766018 -32.929482029382882 12.033174594055749 #
point $-1 52.884914700766018 32.929482029382882 12.033174594055749 #
face $-1 $-1 $294 $25 $-1 $397 reversed single #
loop $-1 $-1 $291 $179 #
plane-surface $-1 0 -32.929482029382882 0 0 1 0 0 0 1 forward_v I I I I #
coedge $-1 $189 $398 $191 $303 forward $180 $-1 #
coedge $-1 $399 $182 $400 $401 reversed $108 $-1 #
coedge $-1 $182 $399 $186 $297 forward $108 $-1 #
coedge $-1 $187 $293 $182 $290 forward $294 $-1 #
edge $-1 $402 -20.316985570031282 $298 -4.9080073486719193 $289 $403 forward 7 unknown #
coedge $-1 $404 $405 $183 $292 forward $284 $-1 #
edge $-1 $295 -52.884914700766018 $406 52.884914700766018 $291 $407 forward 7 unknown #
coedge $-1 $289 $184 $405 $408 forward $294 $-1 #
loop $-1 $-1 $184 $283 #
vertex $-1 $408 $409 #
straight-curve $-1 52.884914700766018 -12.6124964593516 7.5675886907603678 0 -1 0 I I #
edge $-1 $301 -52.884914700766018 $298 52.884914700766018 $186 $410 forward 7 unknown #
vertex $-1 $290 $411 #
straight-curve $-1 52.884914700766018 -17.52050380802352 2.4970962807443362 0 0 1 I I #
coedge $-1 $398 $189 $399 $412 forward $180 $-1 #
vertex $-1 $412 $413 #
straight-curve $-1 -52.884914700766018 -17.52050380802352 2.4970962807443362 0 0 -1 I I #
edge $-1 $406 -20.316985570031282 $193 -4.9080073486719193 $286 $414 forward 7 unknown #
point $-1 52.884914700766018 -17.52050380802352 7.5675886907603678 #
point $-1 -52.884914700766018 -17.52050380802352 7.5675886907603678 #
face $-1 $-1 $323 $26 $-1 $415 reversed single #
loop $-1 $-1 $319 $195 #
plane-surface $-1 -52.884914700766018 0 0 1 0 0 0 0 -1 forward_v I I I I #
coedge $-1 $326 $198 $199 $313 reversed $116 $-1 #
coedge $-1 $319 $416 $198 $311 forward $307 $-1 #
edge $-1 $417 -0.07629984852735916 $327 5.0704924100160316 $310 $418 forward 7 unknown #
coedge $-1 $200 $199 $416 $419 reversed $73 $-1 #
edge $-1 $316 -52.884914700766018 $417 52.884914700766018 $309 $420 forward 7 unknown #
coedge $-1 $322 $321 $200 $315 forward $323 $-1 #
edge $-1 $317 -52.884914700766018 $421 52.884914700766018 $314 $422 forward 7 unknown #
vertex $-1 $202 $423 #
vertex $-1 $315 $424 #
straight-curve $-1 52.884914700766018 12.6124964593516 2.420796432216977 0 1 0 I I #
coedge $-1 $425 $310 $203 $320 forward $307 $-1 #
edge $-1 $327 4.9080073486719193 $324 20.316985570031282 $319 $426 forward 7 unknown #
coedge $-1 $314 $204 $209 $330 forward $323 $-1 #
coedge $-1 $204 $314 $425 $427 reversed $323 $-1 #
loop $-1 $-1 $204 $306 #
vertex $-1 $427 $428 #
straight-curve $-1 0 32.929482029382882 7.5675886907603678 1 0 0 I I #
coedge $-1 $206 $309 $208 $329 reversed $116 $-1 #
vertex $-1 $320 $429 #
straight-curve $-1 0 17.52050380802352 7.5675886907603678 1 0 0 I I #
edge $-1 $211 -5.0704924100160316 $316 0.07629984852735916 $208 $430 forward 7 unknown #
edge $-1 $210 -7.5675886907603678 $317 -2.420796432216977 $209 $431 forward 7 unknown #
point $-1 52.884914700766018 32.929482029382882 7.5675886907603678 #
point $-1 52.884914700766018 17.52050380802352 7.5675886907603678 #
loop $-1 $-1 $341 $213 #
plane-surface $-1 0 -17.52050380802352 4.9941925614886724 0 -1 0 0 0 -1 forward_v I I I I #
coedge $-1 $224 $219 $432 $433 forward $214 $-1 #
coedge $-1 $221 $216 $340 $434 forward $124 $-1 #
coedge $-1 $216 $221 $224 $348 forward $124 $-1 #
coedge $-1 $432 $341 $216 $339 reversed $333 $-1 #
edge $-1 $435 14.069738119198234 $436 23.573197551737593 $216 $437 forward 7 unknown #
coedge $-1 $218 $217 $336 $434 reversed $77 $-1 #
coedge $-1 $338 $432 $218 $342 reversed $333 $-1 #
edge $-1 $436 -14.784758503952297 $343 -2.214690806755022e-014 $341 $438 forward 7 unknown #
vertex $-1 $220 $439 #
straight-curve $-1 -52.884914700766018 -7.0795780370823458 0.70739237673108335 0 -1 0 I I #
vertex $-1 $222 $440 #
straight-curve $-1 -66.954652819964252 -10.797808340305863 12.033174594055751 -1 0 0 I I #
straight-curve $-1 -52.884914700766032 -10.797808340305863 0.70739237673106459 0.64278759981090561 0 0.7660444514056185 I I #
edge $-1 $225 10.797808340305863 $435 17.52050380802352 $224 $441 forward 7 unknown #
point $-1 -52.884914700766018 -10.797808340305863 12.033174594055749 #
point $-1 -52.884914700766018 -10.797808340305863 0.70739237673108157 #
edge $-1 $442 1 $442 0 $228 $-1 forward 7 unknown #
vertex $-1 $229 $443 #
ellipse-curve $-1 -44.264820647861676 -14.159156074164692 3.1243404822466103 -0.7660444514056185 0 0.64278759981090561 0.96418139971635841 0 1.1490666771084277 1 I I #
point $-1 -47.169003584779979 -14.159156074164692 7.5193501625018389 #
plane-surface $-1 0 0 12.033174594055749 0 0 1 1 0 0 forward_v I I I I #
coedge $-1 $366 $365 $358 $444 forward $233 $-1 #
coedge $-1 $358 $235 $237 $362 reversed $139 $-1 #
coedge $-1 $235 $357 $356 $444 reversed $139 $-1 #
coedge $-1 $243 $238 $235 $360 forward $244 $-1 #
edge $-1 $363 39.099427029430835 $445 44.535931693000897 $359 $446 forward 7 unknown #
coedge $-1 $237 $236 $366 $447 reversed $86 $-1 #
edge $-1 $448 -105.76982940153204 $363 -99.427421466434254 $357 $449 forward 7 unknown #
vertex $-1 $239 $450 #
straight-curve $-1 47.448410037195956 6.3342983359985112 12.033174594055751 0 -1 0 I I #
coedge $-1 $356 $240 $243 $370 reversed $233 $-1 #
coedge $-1 $240 $356 $361 $447 forward $233 $-1 #
vertex $-1 $241 $451 #
straight-curve $-1 52.884914700766018 17.520503808023516 76.952260874508525 0 0 1 I I #
straight-curve $-1 -37.77752402765266 17.520503808023516 63.242083020598372 0.85716729658548041 0 -0.51503808176128008 I I #
edge $-1 $445 7.8166895359705286 $245 17.520503808023516 $365 $452 forward 7 unknown #
point $-1 52.884914700766018 17.520503808023516 12.033174594055749 #
point $-1 47.448410037195956 17.520503808023516 12.033174594055751 #
edge $-1 $453 1 $453 0 $248 $-1 forward 7 unknown #
vertex $-1 $249 $454 #
ellipse-curve $-1 48.155503654437766 10.589207899414241 7.0527536619705824 0.51503808176128008 0 0.85716729658548041 0.85716729658548041 0 -0.51503808176128008 1 I I #
point $-1 51.02382966556646 10.589207899414241 9.8848457039743316 #
edge $-1 $455 1 $455 0 $252 $-1 forward 7 unknown #
vertex $-1 $253 $456 #
ellipse-curve $-1 48.155503654437766 14.747985444579811 7.0527536619705824 0.51503808176128008 0 0.85716729658548041 0.85716729658548041 0 -0.51503808176128008 1 I I #
point $-1 51.02382966556646 14.747985444579811 9.8848457039743316 #
plane-surface $-1 52.884914700766018 0 0 -1 0 0 0 0 1 forward_v I I I I #
coedge $-1 $261 $259 $263 $386 reversed $161 $-1 #
edge $-1 $274 -12.033174594055749 $388 12.033174594055749 $273 $457 forward 7 unknown #
vertex $-1 $386 $458 #
straight-curve $-1 -52.884914700766018 -32.929482029382882 0 0 0 -1 I I #
edge $-1 $384 -32.929482029382882 $388 32.929482029382882 $382 $459 forward 7 unknown #
straight-curve $-1 0 -32.929482029382882 -12.033174594055749 -1 0 0 I I #
vertex $-1 $266 $460 #
straight-curve $-1 0 32.929482029382882 -12.033174594055749 1 0 0 I I #
point $-1 52.884914700766018 32.929482029382882 -12.033174594055749 #
point $-1 52.884914700766018 -32.929482029382882 -12.033174594055749 #
straight-curve $-1 -52.884914700766018 0 12.033174594055749 0 -1 0 I I #
point $-1 -52.884914700766018 32.929482029382882 12.033174594055749 #
point $-1 -52.884914700766018 -32.929482029382882 12.033174594055749 #
straight-curve $-1 52.884914700766018 -32.929482029382882 0 0 0 -1 I I #
straight-curve $-1 52.884914700766018 32.929482029382882 0 0 0 -1 I I #
plane-surface $-1 52.884914700766018 0 0 -1 0 0 0 0 1 forward_v I I I I #
coedge $-1 $286 $300 $404 $461 reversed $180 $-1 #
coedge $-1 $288 $287 $300 $412 reversed $108 $-1 #
coedge $-1 $405 $404 $287 $401 forward $284 $-1 #
edge $-1 $462 -52.884914700766018 $402 52.884914700766018 $400 $463 forward 7 unknown #
vertex $-1 $401 $464 #
straight-curve $-1 52.884914700766018 -12.6124964593516 2.420796432216977 0 1 0 I I #
coedge $-1 $400 $291 $398 $461 forward $284 $-1 #
coedge $-1 $291 $400 $293 $408 reversed $284 $-1 #
vertex $-1 $461 $465 #
straight-curve $-1 0 -32.929482029382882 7.5675886907603678 -1 0 0 I I #
edge $-1 $295 -7.5675886907603678 $402 -2.420796432216977 $293 $466 forward 7 unknown #
point $-1 52.884914700766018 -32.929482029382882 7.5675886907603678 #
straight-curve $-1 0 -17.52050380802352 2.420796432216977 1 0 0 I I #
point $-1 52.884914700766018 -17.52050380802352 2.420796432216977 #
edge $-1 $301 4.9080073486719193 $462 20.316985570031282 $300 $467 forward 7 unknown #
point $-1 -52.884914700766018 -17.52050380802352 2.420796432216977 #
straight-curve $-1 -52.884914700766018 -12.6124964593516 7.5675886907603678 0 1 0 I I #
plane-surface $-1 0 32.929482029382882 0 0 -1 0 0 0 -1 forward_v I I I I #
coedge $-1 $310 $425 $312 $419 forward $307 $-1 #
vertex $-1 $419 $468 #
straight-curve $-1 -52.884914700766018 17.52050380802352 2.4970962807443362 0 0 1 I I #
edge $-1 $421 -20.316985570031282 $417 -4.9080073486719193 $416 $469 forward 7 unknown #
straight-curve $-1 0 17.52050380802352 2.420796432216977 -1 0 0 I I #
vertex $-1 $315 $470 #
straight-curve $-1 0 32.929482029382882 2.420796432216977 -1 0 0 I I #
point $-1 52.884914700766018 17.52050380802352 2.420796432216977 #
point $-1 52.884914700766018 32.929482029382882 2.420796432216977 #
coedge $-1 $416 $319 $322 $427 forward $307 $-1 #
straight-curve $-1 -52.884914700766018 12.6124964593516 7.5675886907603678 0 1 0 I I #
edge $-1 $324 -7.5675886907603678 $421 -2.420796432216977 $322 $471 forward 7 unknown #
point $-1 -52.884914700766018 32.929482029382882 7.5675886907603678 #
point $-1 -52.884914700766018 17.52050380802352 7.5675886907603678 #
straight-curve $-1 52.884914700766018 17.52050380802352 2.4970962807443362 0 0 -1 I I #
straight-curve $-1 52.884914700766018 32.929482029382882 0 0 0 -1 I I #
coedge $-1 $341 $338 $335 $433 reversed $333 $-1 #
edge $-1 $343 -33.640071198344323 $435 -22.314288981019651 $335 $472 forward 7 unknown #
edge $-1 $436 -10.440925770941174 $345 -3.7182303032235176 $336 $473 forward 7 unknown #
vertex $-1 $339 $474 #
vertex $-1 $339 $475 #
straight-curve $-1 -66.954652819964252 -17.52050380802352 12.033174594055751 1 0 0 I I #
straight-curve $-1 -52.884914700766032 -17.52050380802352 0.70739237673106459 -0.64278759981090561 0 -0.7660444514056185 I I #
point $-1 -52.884914700766018 -17.52050380802352 0.70739237673108157 #
point $-1 -43.381455268226659 -10.797808340305863 12.033174594055749 #
straight-curve $-1 -52.884914700766018 0 12.033174594055749 0 -1 0 I I #
vertex $-1 $351 $476 #
point $-1 -43.300639248145323 -14.159156074164692 4.2734071593550382 #
edge $-1 $445 64.919086280452774 $448 68.185667897093055 $356 $477 forward 7 unknown #
vertex $-1 $370 $478 #
straight-curve $-1 8.3489830077651206 7.8166895359705286 12.033174594055751 1 0 0 I I #
edge $-1 $448 1.4823911999720174 $367 11.186205472025005 $366 $479 forward 7 unknown #
vertex $-1 $447 $480 #
straight-curve $-1 -37.77752402765266 7.8166895359705286 63.242083020598372 -0.85716729658548041 0 0.51503808176128008 I I #
point $-1 47.448410037195956 7.8166895359705286 12.033174594055751 #
point $-1 52.884914700766018 17.520503808023516 8.7665929774154705 #
straight-curve $-1 52.884914700766018 0 12.033174594055749 0 1 0 I I #
vertex $-1 $373 $481 #
point $-1 49.012670951023246 10.589207899414241 6.5377155802093023 #
vertex $-1 $377 $482 #
point $-1 49.012670951023246 14.747985444579811 6.5377155802093023 #
straight-curve $-1 -52.884914700766018 32.929482029382882 0 0 0 -1 I I #
point $-1 -52.884914700766018 -32.929482029382882 -12.033174594055749 #
straight-curve $-1 -52.884914700766018 0 -12.033174594055749 0 1 0 I I #
point $-1 -52.884914700766018 32.929482029382882 -12.033174594055749 #
edge $-1 $406 -7.5675886907603678 $462 -2.420796432216977 $398 $483 forward 7 unknown #
vertex $-1 $401 $484 #
straight-curve $-1 0 -32.929482029382882 2.420796432216977 1 0 0 I I #
point $-1 52.884914700766018 -32.929482029382882 2.420796432216977 #
point $-1 -52.884914700766018 -32.929482029382882 7.5675886907603678 #
straight-curve $-1 52.884914700766018 -32.929482029382882 0 0 0 -1 I I #
straight-curve $-1 -52.884914700766018 -12.6124964593516 2.420796432216977 0 -1 0 I I #
point $-1 -52.884914700766018 17.52050380802352 2.420796432216977 #
straight-curve $-1 -52.884914700766018 12.6124964593516 2.420796432216977 0 -1 0 I I #
point $-1 -52.884914700766018 32.929482029382882 2.420796432216977 #
straight-curve $-1 -52.884914700766018 32.929482029382882 0 0 0 -1 I I #
straight-curve $-1 -52.884914700766018 -17.52050380802352 34.347463575075402 0 0 1 I I #
straight-curve $-1 -43.381455268226659 -7.0795780370823458 12.033174594055749 0 1 0 I I #
point $-1 -52.884914700766018 -17.52050380802352 12.033174594055749 #
point $-1 -43.381455268226659 -17.52050380802352 12.033174594055749 #
point $-1 -43.115753970753254 -14.159156074164692 2.1601590825302517 #
straight-curve $-1 52.884914700766018 7.8166895359705286 76.952260874508525 0 0 -1 I I #
point $-1 52.884914700766018 7.8166895359705286 12.033174594055749 #
straight-curve $-1 52.884914700766018 6.3342983359985112 8.7665929774154669 0 1 0 I I #
point $-1 52.884914700766018 7.8166895359705286 8.7665929774154705 #
point $-1 47.64046557267649 10.589207899414241 6.1955863653851022 #
point $-1 47.64046557267649 14.747985444579811 6.1955863653851022 #
straight-curve $-1 -52.884914700766018 -32.929482029382882 0 0 0 -1 I I #
point $-1 -52.884914700766018 -32.929482029382882 2.420796432216977 #
End-of-ACIS-data 