500 0 9 0           
7 Unknown 11 ACIS 5.0 NT 24 Thu Mar 25 16:06:07 1999 
-1 9.9999999999999995e-007 1e-010 
body $-1 $9 $-1 $10 #
body $-1 $11 $-1 $12 #
body $-1 $13 $-1 $14 #
body $-1 $15 $-1 $16 #
body $-1 $17 $-1 $18 #
body $-1 $19 $-1 $20 #
body $-1 $21 $-1 $22 #
body $-1 $23 $-1 $24 #
body $-1 $25 $-1 $26 #
lump $-1 $-1 $27 $0 #
transform $-1 1 0 0 0 1 0 0 0 1 63.686025574510943 40.770951215445905 12.415934833928249 1 rotate no_reflect no_shear #
lump $-1 $-1 $28 $1 #
transform $-1 1 0 0 0 1 0 0 0 1 63.686025574510943 40.770951215445905 12.415934833928249 1 rotate no_reflect no_shear #
lump $-1 $-1 $29 $2 #
transform $-1 1 0 0 0 1 0 0 0 1 63.686025574510943 40.770951215445905 12.415934833928249 1 rotate no_reflect no_shear #
lump $-1 $-1 $30 $3 #
transform $-1 1 0 0 0 1 0 0 0 1 63.686025574510943 40.770951215445905 12.415934833928249 1 rotate no_reflect no_shear #
lump $-1 $-1 $31 $4 #
transform $-1 1 0 0 0 1 0 0 0 1 63.686025574510943 40.770951215445905 12.415934833928249 1 rotate no_reflect no_shear #
lump $-1 $-1 $32 $5 #
transform $-1 1 0 0 0 1 0 0 0 1 63.686025574510943 40.770951215445905 12.415934833928249 1 rotate no_reflect no_shear #
lump $-1 $-1 $33 $6 #
transform $-1 1 0 0 0 1 0 0 0 1 63.686025574510943 40.770951215445905 12.415934833928249 1 rotate no_reflect no_shear #
lump $-1 $-1 $34 $7 #
transform $-1 1 0 0 0 1 0 0 0 1 63.686025574510943 40.770951215445905 12.415934833928249 1 rotate no_reflect no_shear #
lump $-1 $-1 $35 $8 #
transform $-1 1 0 0 0 1 0 0 0 1 63.686025574510943 40.770951215445905 12.415934833928249 1 rotate no_reflect no_shear #
shell $-1 $-1 $-1 $36 $-1 $9 #
shell $-1 $-1 $-1 $37 $-1 $11 #
shell $-1 $-1 $-1 $38 $-1 $13 #
shell $-1 $-1 $-1 $39 $-1 $15 #
shell $-1 $-1 $-1 $40 $-1 $17 #
shell $-1 $-1 $-1 $41 $-1 $19 #
shell $-1 $-1 $-1 $42 $-1 $21 #
shell $-1 $-1 $-1 $43 $-1 $23 #
shell $-1 $-1 $-1 $44 $-1 $25 #
face $-1 $45 $46 $27 $-1 $47 forward single #
face $-1 $48 $49 $28 $-1 $50 forward single #
face $-1 $51 $52 $29 $-1 $53 forward single #
face $-1 $54 $55 $30 $-1 $56 reversed single #
face $-1 $57 $58 $31 $-1 $59 forward single #
face $-1 $60 $61 $32 $-1 $62 forward single #
face $-1 $63 $64 $33 $-1 $65 reversed single #
face $-1 $66 $67 $34 $-1 $68 forward single #
face $-1 $69 $70 $35 $-1 $71 forward single #
face $-1 $72 $73 $27 $-1 $74 reversed single #
loop $-1 $-1 $75 $36 #
plane-surface $-1 0 0 12.415934833928249 0 0 1 1 0 0 forward_v I I I I #
face $-1 $76 $77 $28 $-1 $78 reversed single #
loop $-1 $-1 $79 $37 #
plane-surface $-1 -63.686025574510943 0 0 1 0 0 0 0 -1 forward_v I I I I #
face $-1 $80 $81 $29 $-1 $82 reversed single #
loop $-1 $-1 $83 $38 #
plane-surface $-1 63.686025574510943 0 0 -1 0 0 0 0 1 forward_v I I I I #
face $-1 $84 $85 $30 $-1 $86 reversed single #
loop $-1 $-1 $87 $39 #
plane-surface $-1 -33.363296725041074 -120.9287812487332 106.02470272768878 -1 0 0 0 -0.62932039886446345 0.77714595512881146 forward_v I I I I #
face $-1 $88 $89 $31 $-1 $90 forward single #
loop $-1 $91 $92 $40 #
cone-surface $-1 -43.368989545525409 -36.439687829769419 8.4788923660459545 0 0.62932039886446345 -0.77714595512881146 1 0 0 1 I I 0 1 1 forward I I I I #
face $-1 $93 $94 $32 $-1 $95 forward single #
loop $-1 $96 $97 $41 #
cone-surface $-1 -37.365573853234807 -36.439687829769419 8.4788923660459545 0 0.62932039886446345 -0.77714595512881146 1 0 0 1 I I 0 1 1 forward I I I I #
face $-1 $98 $99 $33 $-1 $100 reversed single #
loop $-1 $-1 $101 $42 #
plane-surface $-1 -47.371266673719141 57.558821601057431 157.34068528966478 1 0 0 0 -0.62932039886446345 -0.77714595512881146 forward_v I I I I #
face $-1 $102 $103 $34 $-1 $104 forward single #
loop $-1 $105 $106 $43 #
cone-surface $-1 -43.368989545525409 36.439687829769419 8.4788923660459474 0 -0.62932039886446345 -0.77714595512881146 1 0 0 1 I I 0 1 1 forward I I I I #
face $-1 $107 $108 $35 $-1 $109 forward single #
loop $-1 $110 $111 $44 #
cone-surface $-1 -37.365573853234807 36.439687829769419 8.4788923660459474 0 -0.62932039886446345 -0.77714595512881146 1 0 0 1 I I 0 1 1 forward I I I I #
face $-1 $112 $113 $27 $-1 $114 reversed single #
loop $-1 $-1 $115 $45 #
plane-surface $-1 0 0 -12.415934833928249 0 0 1 1 0 0 forward_v I I I I #
coedge $-1 $116 $117 $118 $119 forward $46 $-1 #
face $-1 $120 $121 $28 $-1 $122 forward single #
loop $-1 $-1 $123 $48 #
plane-surface $-1 0 40.770951215445905 0 0 -1 0 0 0 -1 forward_v I I I I #
coedge $-1 $124 $125 $126 $127 forward $49 $-1 #
face $-1 $128 $129 $29 $-1 $130 forward single #
loop $-1 $-1 $131 $51 #
plane-surface $-1 0 40.770951215445905 0 0 -1 0 0 0 -1 forward_v I I I I #
coedge $-1 $132 $133 $134 $135 forward $52 $-1 #
face $-1 $136 $137 $30 $-1 $138 reversed single #
loop $-1 $-1 $139 $54 #
plane-surface $-1 -40.367281699380108 -40.770951215445905 7.0380283807663346 0 -0.62932039886446345 0.77714595512881146 1 0 0 forward_v I I I I #
coedge $-1 $140 $141 $142 $143 reversed $55 $-1 #
face $-1 $-1 $144 $31 $-1 $145 forward single #
loop $-1 $146 $147 $57 #
cone-surface $-1 -43.368989545525409 -35.114344869948866 6.8422301471802083 0 0.62932039886446345 -0.77714595512881146 0.5 0 0 1 I I -0.70710678118654746 0.70710678118654746 0.5 forward I I I I #
loop $-1 $-1 $148 $40 #
coedge $-1 $92 $92 $149 $150 reversed $58 $-1 #
face $-1 $-1 $151 $32 $-1 $152 forward single #
loop $-1 $153 $154 $60 #
cone-surface $-1 -37.365573853234807 -35.114344869948866 6.8422301471802083 0 0.62932039886446345 -0.77714595512881146 0.5 0 0 1 I I -0.70710678118654746 0.70710678118654746 0.5 forward I I I I #
loop $-1 $-1 $155 $41 #
coedge $-1 $97 $97 $156 $157 reversed $61 $-1 #
face $-1 $158 $159 $33 $-1 $160 reversed single #
loop $-1 $-1 $161 $63 #
plane-surface $-1 -40.367281699380108 -22.599008432229866 58.354010942742335 0 0.62932039886446345 0.77714595512881146 1 0 0 forward_v I I I I #
coedge $-1 $162 $163 $164 $165 reversed $64 $-1 #
face $-1 $-1 $166 $34 $-1 $167 forward single #
loop $-1 $168 $169 $66 #
cone-surface $-1 -43.368989545525409 35.114344869948866 6.8422301471802012 0 -0.62932039886446345 -0.77714595512881146 0.5 0 0 1 I I -0.70710678118654746 0.70710678118654746 0.5 forward I I I I #
loop $-1 $-1 $170 $43 #
coedge $-1 $106 $106 $171 $172 reversed $67 $-1 #
face $-1 $-1 $173 $35 $-1 $174 forward single #
loop $-1 $175 $176 $69 #
cone-surface $-1 -37.365573853234807 35.114344869948866 6.8422301471802012 0 -0.62932039886446345 -0.77714595512881146 0.5 0 0 1 I I -0.70710678118654746 0.70710678118654746 0.5 forward I I I I #
loop $-1 $-1 $177 $44 #
coedge $-1 $111 $111 $178 $179 reversed $70 $-1 #
face $-1 $180 $181 $27 $-1 $182 reversed single #
loop $-1 $-1 $183 $72 #
plane-surface $-1 0 -40.770951215445905 0 0 1 0 0 0 1 forward_v I I I I #
coedge $-1 $184 $185 $186 $187 forward $73 $-1 #
coedge $-1 $188 $75 $189 $190 forward $46 $-1 #
coedge $-1 $75 $188 $191 $192 forward $46 $-1 #
coedge $-1 $193 $194 $75 $119 reversed $195 $-1 #
edge $-1 $196 -40.770951215445905 $197 40.770951215445905 $118 $198 forward 7 unknown #
face $-1 $199 $200 $28 $-1 $201 reversed single #
loop $-1 $-1 $126 $76 #
plane-surface $-1 -71.843405024906843 0 -8.5778964436923655 0 0 1 1 0 0 forward_v I I I I #
coedge $-1 $202 $203 $125 $204 forward $77 $-1 #
coedge $-1 $205 $79 $206 $207 reversed $49 $-1 #
coedge $-1 $79 $205 $123 $204 reversed $49 $-1 #
coedge $-1 $208 $209 $79 $127 reversed $121 $-1 #
edge $-1 $210 -40.770951215445905 $211 40.770951215445905 $126 $212 forward 7 unknown #
face $-1 $213 $214 $29 $-1 $215 reversed single #
loop $-1 $-1 $216 $80 #
plane-surface $-1 71.843405024906843 0 -8.5778964436923655 0 0 1 1 0 0 forward_v I I I I #
coedge $-1 $217 $218 $132 $219 forward $81 $-1 #
coedge $-1 $220 $83 $131 $219 reversed $52 $-1 #
coedge $-1 $83 $220 $221 $222 reversed $52 $-1 #
coedge $-1 $223 $224 $83 $135 reversed $129 $-1 #
edge $-1 $225 -40.770951215445905 $226 40.770951215445905 $134 $227 forward 7 unknown #
face $-1 $228 $229 $30 $-1 $230 forward single #
loop $-1 $-1 $231 $84 #
plane-surface $-1 -47.371266673719141 -120.9287812487332 106.02470272768878 1 0 0 0 0.62932039886446345 -0.77714595512881146 forward_v I I I I #
coedge $-1 $232 $233 $234 $235 reversed $85 $-1 #
coedge $-1 $141 $87 $236 $237 reversed $55 $-1 #
coedge $-1 $87 $140 $232 $238 reversed $55 $-1 #
coedge $-1 $234 $239 $87 $143 forward $229 $-1 #
edge $-1 $240 19.693439408920696 $241 26.334600659497028 $142 $242 forward 7 unknown #
loop $-1 $-1 $149 $88 #
plane-surface $-1 -40.367281699380108 -40.770951215445905 7.0380283807663346 0 -0.62932039886446345 0.77714595512881146 1 0 0 forward_v I I I I #
loop $-1 $-1 $243 $57 #
coedge $-1 $147 $147 $148 $244 reversed $89 $-1 #
coedge $-1 $148 $148 $147 $244 forward $91 $-1 #
coedge $-1 $149 $149 $92 $150 forward $144 $-1 #
edge $-1 $245 0 $245 6.2831853071796004 $149 $246 forward 7 unknown #
loop $-1 $-1 $156 $93 #
plane-surface $-1 -40.367281699380108 -40.770951215445905 7.0380283807663346 0 -0.62932039886446345 0.77714595512881146 1 0 0 forward_v I I I I #
loop $-1 $-1 $247 $60 #
coedge $-1 $154 $154 $155 $248 reversed $94 $-1 #
coedge $-1 $155 $155 $154 $248 forward $96 $-1 #
coedge $-1 $156 $156 $97 $157 forward $151 $-1 #
edge $-1 $249 0 $249 6.2831853071796004 $156 $250 forward 7 unknown #
face $-1 $251 $252 $33 $-1 $253 reversed single #
loop $-1 $-1 $254 $98 #
plane-surface $-1 -33.363296725041074 57.558821601057431 157.34068528966478 -1 0 0 0 0.62932039886446345 0.77714595512881146 forward_v I I I I #
coedge $-1 $255 $256 $257 $258 reversed $99 $-1 #
coedge $-1 $163 $101 $259 $260 reversed $64 $-1 #
coedge $-1 $101 $162 $255 $261 reversed $64 $-1 #
coedge $-1 $257 $262 $101 $165 forward $263 $-1 #
edge $-1 $264 -11.991540414917189 $265 -5.3503791643408647 $164 $266 forward 7 unknown #
loop $-1 $-1 $171 $102 #
plane-surface $-1 -40.367281699380108 -22.599008432229866 58.354010942742335 0 0.62932039886446345 0.77714595512881146 1 0 0 forward_v I I I I #
loop $-1 $-1 $267 $66 #
coedge $-1 $169 $169 $170 $268 reversed $103 $-1 #
coedge $-1 $170 $170 $169 $268 forward $105 $-1 #
coedge $-1 $171 $171 $106 $172 forward $166 $-1 #
edge $-1 $269 6.7533843063698478e-017 $269 6.2831853071796004 $171 $270 forward 7 unknown #
loop $-1 $-1 $178 $107 #
plane-surface $-1 -40.367281699380108 -22.599008432229866 58.354010942742335 0 0.62932039886446345 0.77714595512881146 1 0 0 forward_v I I I I #
loop $-1 $-1 $271 $69 #
coedge $-1 $176 $176 $177 $272 reversed $108 $-1 #
coedge $-1 $177 $177 $176 $272 forward $110 $-1 #
coedge $-1 $178 $178 $111 $179 forward $173 $-1 #
edge $-1 $273 6.7533843063698478e-017 $273 6.2831853071796004 $178 $274 forward 7 unknown #
face $-1 $275 $276 $27 $-1 $277 reversed single #
loop $-1 $-1 $278 $112 #
plane-surface $-1 -63.686025574510943 0 0 1 0 0 0 0 -1 forward_v I I I I #
coedge $-1 $279 $191 $278 $280 forward $113 $-1 #
coedge $-1 $281 $115 $279 $282 forward $73 $-1 #
coedge $-1 $115 $281 $283 $284 forward $73 $-1 #
coedge $-1 $194 $193 $115 $187 reversed $195 $-1 #
edge $-1 $285 -40.770951215445905 $286 40.770951215445905 $186 $287 forward 7 unknown #
coedge $-1 $117 $116 $288 $289 forward $46 $-1 #
coedge $-1 $290 $291 $116 $190 reversed $276 $-1 #
edge $-1 $197 -63.686025574510943 $292 63.686025574510943 $189 $293 forward 7 unknown #
coedge $-1 $183 $294 $117 $192 reversed $113 $-1 #
edge $-1 $295 -63.686025574510943 $196 63.686025574510943 $191 $296 forward 7 unknown #
coedge $-1 $186 $118 $294 $297 forward $195 $-1 #
coedge $-1 $118 $186 $290 $298 reversed $195 $-1 #
loop $-1 $-1 $194 $275 #
vertex $-1 $119 $299 #
vertex $-1 $119 $300 #
straight-curve $-1 63.686025574510943 0 12.415934833928249 0 1 0 I I #
face $-1 $301 $302 $28 $-1 $303 reversed single #
loop $-1 $-1 $304 $120 #
plane-surface $-1 -80.000784475302737 0 -10.496915638810307 1 0 0 0 0 -1 forward_v I I I I #
coedge $-1 $305 $123 $306 $307 reversed $77 $-1 #
coedge $-1 $123 $305 $208 $308 reversed $77 $-1 #
edge $-1 $210 8.5778964436923655 $309 12.415934833928249 $123 $310 forward 7 unknown #
coedge $-1 $125 $124 $311 $312 reversed $49 $-1 #
coedge $-1 $313 $314 $124 $207 forward $315 $-1 #
edge $-1 $316 -12.415934833928249 $211 -8.5778964436923655 $206 $317 forward 7 unknown #
coedge $-1 $318 $126 $203 $308 forward $121 $-1 #
coedge $-1 $126 $318 $313 $319 forward $121 $-1 #
vertex $-1 $204 $320 #
vertex $-1 $319 $321 #
straight-curve $-1 -63.686025574510943 0 -8.5778964436923655 0 -1 0 I I #
face $-1 $322 $323 $29 $-1 $324 reversed single #
loop $-1 $-1 $325 $128 #
plane-surface $-1 80.000784475302737 0 -10.496915638810307 -1 0 0 0 0 1 forward_v I I I I #
coedge $-1 $224 $223 $326 $327 forward $129 $-1 #
coedge $-1 $328 $131 $224 $329 reversed $81 $-1 #
coedge $-1 $131 $328 $330 $331 reversed $81 $-1 #
edge $-1 $332 -12.415934833928249 $226 -8.5778964436923655 $131 $333 forward 7 unknown #
coedge $-1 $133 $132 $334 $335 reversed $52 $-1 #
coedge $-1 $336 $337 $133 $222 forward $338 $-1 #
edge $-1 $225 8.5778964436923655 $339 12.415934833928249 $221 $340 forward 7 unknown #
coedge $-1 $216 $134 $337 $341 forward $129 $-1 #
coedge $-1 $134 $216 $217 $329 forward $129 $-1 #
vertex $-1 $222 $342 #
vertex $-1 $329 $343 #
straight-curve $-1 63.686025574510943 0 -8.5778964436923655 0 1 0 I I #
face $-1 $-1 $344 $30 $-1 $345 reversed single #
loop $-1 $-1 $142 $136 #
plane-surface $-1 0 0 12.415934833928249 0 0 1 1 0 0 forward_v I I I I #
coedge $-1 $346 $347 $348 $349 reversed $137 $-1 #
coedge $-1 $350 $139 $141 $238 forward $85 $-1 #
coedge $-1 $139 $350 $346 $351 forward $85 $-1 #
coedge $-1 $348 $142 $139 $235 forward $229 $-1 #
edge $-1 $241 13.17965587535102 $352 27.187625824029087 $234 $353 forward 7 unknown #
coedge $-1 $354 $355 $140 $237 forward $344 $-1 #
edge $-1 $356 -45.974322983078054 $240 -40.596416529916141 $236 $357 forward 7 unknown #
edge $-1 $241 -8.5455778374032221 $356 0 $141 $358 forward 7 unknown #
coedge $-1 $142 $348 $354 $359 forward $229 $-1 #
vertex $-1 $237 $360 #
vertex $-1 $143 $361 #
straight-curve $-1 -33.363296725041074 -60.464390624366601 12.415934833928247 0 1 0 I I #
coedge $-1 $243 $243 $-1 $362 reversed $146 $-1 #
edge $-1 $363 0 $363 6.2831853071796004 $147 $364 forward 7 unknown #
vertex $-1 $150 $365 #
ellipse-curve $-1 -43.368989545525409 -37.450370590157739 9.7269816073472946 0 -0.62932039886446345 0.77714595512881146 1 0 0 1 I I #
coedge $-1 $247 $247 $-1 $366 reversed $153 $-1 #
edge $-1 $367 0 $367 6.2831853071796004 $154 $368 forward 7 unknown #
vertex $-1 $157 $369 #
ellipse-curve $-1 -37.365573853234807 -37.450370590157739 9.7269816073472946 0 -0.62932039886446345 0.77714595512881146 1 0 0 1 I I #
face $-1 $-1 $263 $33 $-1 $370 forward single #
loop $-1 $-1 $371 $158 #
plane-surface $-1 0 40.770951215445905 0 0 -1 0 0 0 -1 forward_v I I I I #
coedge $-1 $372 $373 $374 $375 reversed $159 $-1 #
coedge $-1 $376 $161 $163 $261 forward $99 $-1 #
coedge $-1 $161 $376 $372 $377 forward $99 $-1 #
coedge $-1 $374 $164 $161 $258 forward $263 $-1 #
edge $-1 $265 -27.187625824029087 $378 -13.17965587535102 $257 $379 forward 7 unknown #
coedge $-1 $380 $381 $162 $260 forward $252 $-1 #
edge $-1 $382 -71.632314264066054 $264 -66.254407810904141 $259 $383 forward 7 unknown #
edge $-1 $265 72.996324593488595 $382 81.54190243089181 $163 $384 forward 7 unknown #
coedge $-1 $164 $374 $380 $385 forward $263 $-1 #
loop $-1 $-1 $374 $251 #
vertex $-1 $260 $386 #
vertex $-1 $165 $387 #
straight-curve $-1 -47.371266673719141 28.779410800528716 12.415934833928247 0 -1 0 I I #
coedge $-1 $267 $267 $-1 $388 reversed $168 $-1 #
edge $-1 $389 0 $389 6.2831853071796004 $169 $390 forward 7 unknown #
vertex $-1 $172 $391 #
ellipse-curve $-1 -43.368989545525409 37.450370590157746 9.7269816073472963 0 0.62932039886446345 0.77714595512881146 1 0 0 1 I I #
coedge $-1 $271 $271 $-1 $392 reversed $175 $-1 #
edge $-1 $393 0 $393 6.2831853071796004 $176 $394 forward 7 unknown #
vertex $-1 $179 $395 #
ellipse-curve $-1 -37.365573853234807 37.450370590157746 9.7269816073472963 0 0.62932039886446345 0.77714595512881146 1 0 0 1 I I #
face $-1 $-1 $195 $27 $-1 $396 reversed single #
loop $-1 $-1 $290 $180 #
plane-surface $-1 0 40.770951215445905 0 0 -1 0 0 0 -1 forward_v I I I I #
coedge $-1 $288 $397 $183 $280 reversed $181 $-1 #
coedge $-1 $294 $183 $184 $282 reversed $113 $-1 #
edge $-1 $295 -12.415934833928249 $398 12.415934833928249 $278 $399 forward 7 unknown #
coedge $-1 $185 $184 $397 $400 forward $73 $-1 #
edge $-1 $286 -63.686025574510943 $398 63.686025574510943 $279 $401 forward 7 unknown #
coedge $-1 $291 $290 $185 $284 reversed $276 $-1 #
edge $-1 $402 -63.686025574510943 $285 63.686025574510943 $283 $403 forward 7 unknown #
vertex $-1 $187 $404 #
vertex $-1 $297 $405 #
straight-curve $-1 63.686025574510943 0 -12.415934833928249 0 -1 0 I I #
coedge $-1 $406 $278 $188 $289 reversed $181 $-1 #
edge $-1 $292 -40.770951215445905 $295 40.770951215445905 $288 $407 forward 7 unknown #
coedge $-1 $283 $189 $194 $298 forward $276 $-1 #
coedge $-1 $189 $283 $406 $408 reversed $276 $-1 #
vertex $-1 $190 $409 #
straight-curve $-1 0 40.770951215445905 12.415934833928249 -1 0 0 I I #
coedge $-1 $191 $279 $193 $297 reversed $113 $-1 #
vertex $-1 $289 $410 #
straight-curve $-1 0 -40.770951215445905 12.415934833928249 1 0 0 I I #
edge $-1 $196 -12.415934833928249 $286 12.415934833928249 $193 $411 forward 7 unknown #
edge $-1 $197 -12.415934833928249 $285 12.415934833928249 $194 $412 forward 7 unknown #
point $-1 63.686025574510943 -40.770951215445905 12.415934833928249 #
point $-1 63.686025574510943 40.770951215445905 12.415934833928249 #
face $-1 $-1 $315 $28 $-1 $413 reversed single #
loop $-1 $-1 $311 $199 #
plane-surface $-1 0 0 -12.415934833928249 0 0 1 1 0 0 forward_v I I I I #
coedge $-1 $414 $415 $305 $416 forward $200 $-1 #
coedge $-1 $203 $202 $304 $416 reversed $77 $-1 #
coedge $-1 $311 $417 $202 $307 forward $302 $-1 #
edge $-1 $418 -80.000784475302737 $309 -63.686025574510943 $202 $419 forward 7 unknown #
edge $-1 $210 -8.1573794503959007 $420 8.1573794503958936 $203 $421 forward 7 unknown #
vertex $-1 $204 $422 #
straight-curve $-1 -63.686025574510943 40.770951215445905 0 0 0 -1 I I #
coedge $-1 $423 $306 $205 $312 forward $302 $-1 #
edge $-1 $309 -40.770951215445905 $316 40.770951215445905 $311 $424 forward 7 unknown #
coedge $-1 $425 $206 $209 $319 reversed $315 $-1 #
coedge $-1 $206 $425 $423 $426 reversed $315 $-1 #
loop $-1 $-1 $206 $301 #
vertex $-1 $426 $427 #
straight-curve $-1 -63.686025574510943 -40.770951215445905 0 0 0 1 I I #
coedge $-1 $209 $208 $415 $428 forward $121 $-1 #
edge $-1 $429 -8.1573794503958936 $211 8.1573794503959007 $313 $430 forward 7 unknown #
point $-1 -63.686025574510943 40.770951215445905 -8.5778964436923655 #
point $-1 -63.686025574510943 -40.770951215445905 -8.5778964436923655 #
face $-1 $-1 $338 $29 $-1 $431 reversed single #
loop $-1 $-1 $334 $213 #
plane-surface $-1 0 0 -12.415934833928249 0 0 1 1 0 0 forward_v I I I I #
coedge $-1 $432 $326 $433 $434 forward $214 $-1 #
coedge $-1 $325 $435 $216 $327 reversed $214 $-1 #
edge $-1 $436 -40.770951215445905 $437 40.770951215445905 $326 $438 forward 7 unknown #
coedge $-1 $218 $217 $435 $439 forward $81 $-1 #
edge $-1 $437 -8.1573794503958936 $226 8.1573794503959007 $217 $440 forward 7 unknown #
coedge $-1 $441 $334 $218 $331 forward $323 $-1 #
edge $-1 $332 -8.1573794503959007 $442 8.1573794503958936 $218 $443 forward 7 unknown #
vertex $-1 $331 $444 #
straight-curve $-1 63.686025574510943 40.770951215445905 0 0 0 1 I I #
coedge $-1 $330 $445 $220 $335 forward $323 $-1 #
edge $-1 $339 -40.770951215445905 $332 40.770951215445905 $334 $446 forward 7 unknown #
coedge $-1 $433 $221 $445 $447 reversed $338 $-1 #
coedge $-1 $221 $433 $223 $341 reversed $338 $-1 #
loop $-1 $-1 $221 $322 #
vertex $-1 $222 $448 #
straight-curve $-1 63.686025574510943 -40.770951215445905 0 0 0 -1 I I #
edge $-1 $225 -8.1573794503959007 $436 8.1573794503958936 $337 $449 forward 7 unknown #
point $-1 63.686025574510943 -40.770951215445905 -8.5778964436923655 #
point $-1 63.686025574510943 40.770951215445905 -8.5778964436923655 #
loop $-1 $-1 $236 $228 #
plane-surface $-1 0 -40.770951215445905 0 0 1 0 0 0 1 forward_v I I I I #
coedge $-1 $347 $231 $233 $351 reversed $137 $-1 #
coedge $-1 $231 $346 $450 $451 reversed $137 $-1 #
coedge $-1 $239 $234 $231 $349 forward $229 $-1 #
edge $-1 $352 -26.334600659497028 $452 -19.693439408920696 $348 $453 forward 7 unknown #
coedge $-1 $233 $232 $355 $454 reversed $85 $-1 #
edge $-1 $455 0 $352 8.5455778374032221 $346 $456 forward 7 unknown #
vertex $-1 $235 $457 #
straight-curve $-1 -20.183640849690054 -34.12978996486958 12.415934833928249 -1 0 0 I I #
coedge $-1 $450 $236 $239 $359 reversed $344 $-1 #
coedge $-1 $236 $450 $350 $454 forward $344 $-1 #
vertex $-1 $237 $458 #
straight-curve $-1 -33.363296725041074 -40.770951215445905 53.012351363844388 0 0 1 I I #
straight-curve $-1 -33.363296725041074 -40.770951215445905 7.0380283807663346 0 -0.77714595512881146 -0.62932039886446345 I I #
edge $-1 $452 -47.371266673719141 $240 -33.363296725041074 $354 $459 forward 7 unknown #
point $-1 -33.363296725041074 -40.770951215445905 12.415934833928249 #
point $-1 -33.363296725041074 -34.129789964869573 12.415934833928249 #
edge $-1 $460 1 $460 0 $243 $-1 forward 7 unknown #
vertex $-1 $244 $461 #
ellipse-curve $-1 -43.368989545525409 -35.429005069381098 7.2308031247446136 0 -0.62932039886446345 0.77714595512881146 1 0 0 1 I I #
point $-1 -42.368989545525409 -37.450370590157739 9.7269816073472946 #
edge $-1 $462 1 $462 0 $247 $-1 forward 7 unknown #
vertex $-1 $248 $463 #
ellipse-curve $-1 -37.365573853234807 -35.429005069381098 7.2308031247446136 0 -0.62932039886446345 0.77714595512881146 1 0 0 1 I I #
point $-1 -36.365573853234807 -37.450370590157739 9.7269816073472946 #
plane-surface $-1 0 0 12.415934833928249 0 0 1 1 0 0 forward_v I I I I #
coedge $-1 $381 $380 $373 $464 forward $252 $-1 #
coedge $-1 $373 $254 $256 $377 reversed $159 $-1 #
coedge $-1 $254 $372 $371 $464 reversed $159 $-1 #
coedge $-1 $262 $257 $254 $375 forward $263 $-1 #
edge $-1 $378 5.3503791643408647 $465 11.991540414917189 $374 $466 forward 7 unknown #
coedge $-1 $256 $255 $381 $467 reversed $99 $-1 #
edge $-1 $468 -81.54190243089181 $378 -72.996324593488595 $372 $469 forward 7 unknown #
vertex $-1 $258 $470 #
straight-curve $-1 -20.183640849690054 34.129789964869587 12.415934833928244 1 0 0 I I #
coedge $-1 $371 $259 $262 $385 reversed $252 $-1 #
coedge $-1 $259 $371 $376 $467 forward $252 $-1 #
vertex $-1 $260 $471 #
straight-curve $-1 -47.371266673719141 40.770951215445905 78.670342644832388 0 0 1 I I #
straight-curve $-1 -47.371266673719141 -22.599008432229866 58.354010942742335 0 0.77714595512881146 -0.62932039886446345 I I #
edge $-1 $465 33.363296725041074 $264 47.371266673719141 $380 $472 forward 7 unknown #
point $-1 -47.371266673719141 40.770951215445905 12.415934833928249 #
point $-1 -47.371266673719141 34.12978996486958 12.415934833928247 #
edge $-1 $473 1 $473 0 $267 $-1 forward 7 unknown #
vertex $-1 $268 $474 #
ellipse-curve $-1 -43.368989545525409 35.429005069381098 7.2308031247446065 0 0.62932039886446345 0.77714595512881146 1 0 0 1 I I #
point $-1 -42.368989545525409 37.450370590157739 9.7269816073472875 #
edge $-1 $475 1 $475 0 $271 $-1 forward 7 unknown #
vertex $-1 $272 $476 #
ellipse-curve $-1 -37.365573853234807 35.429005069381098 7.2308031247446065 0 0.62932039886446345 0.77714595512881146 1 0 0 1 I I #
point $-1 -36.365573853234807 37.450370590157739 9.7269816073472875 #
plane-surface $-1 63.686025574510943 0 0 -1 0 0 0 0 1 forward_v I I I I #
coedge $-1 $278 $406 $281 $400 reversed $181 $-1 #
vertex $-1 $400 $477 #
straight-curve $-1 -63.686025574510943 -40.770951215445905 0 0 0 -1 I I #
edge $-1 $398 -40.770951215445905 $402 40.770951215445905 $397 $478 forward 7 unknown #
straight-curve $-1 0 -40.770951215445905 -12.415934833928249 -1 0 0 I I #
vertex $-1 $284 $479 #
straight-curve $-1 0 40.770951215445905 -12.415934833928249 1 0 0 I I #
point $-1 63.686025574510943 40.770951215445905 -12.415934833928249 #
point $-1 63.686025574510943 -40.770951215445905 -12.415934833928249 #
coedge $-1 $397 $288 $291 $408 forward $181 $-1 #
straight-curve $-1 -63.686025574510943 0 12.415934833928249 0 -1 0 I I #
edge $-1 $292 -12.415934833928249 $402 12.415934833928249 $291 $480 forward 7 unknown #
point $-1 -63.686025574510943 40.770951215445905 12.415934833928249 #
point $-1 -63.686025574510943 -40.770951215445905 12.415934833928249 #
straight-curve $-1 63.686025574510943 -40.770951215445905 0 0 0 -1 I I #
straight-curve $-1 63.686025574510943 40.770951215445905 0 0 0 -1 I I #
plane-surface $-1 0 -40.770951215445905 0 0 1 0 0 0 1 forward_v I I I I #
coedge $-1 $481 $304 $417 $482 reversed $200 $-1 #
coedge $-1 $304 $481 $318 $428 reversed $200 $-1 #
edge $-1 $420 -1.9190191951179418 $418 1.9190191951179418 $305 $483 forward 7 unknown #
coedge $-1 $306 $423 $414 $482 forward $302 $-1 #
vertex $-1 $307 $484 #
straight-curve $-1 0 40.770951215445905 -12.415934833928249 1 0 0 I I #
vertex $-1 $308 $485 #
straight-curve $-1 -71.843405024906843 40.770951215445905 -8.5778964436923655 -1 0 0 I I #
point $-1 -63.686025574510943 40.770951215445905 -12.415934833928249 #
coedge $-1 $417 $311 $314 $426 forward $302 $-1 #
straight-curve $-1 -63.686025574510943 0 -12.415934833928249 0 -1 0 I I #
coedge $-1 $314 $313 $481 $486 forward $315 $-1 #
edge $-1 $316 -8.1573794503959007 $487 8.1573794503958936 $314 $488 forward 7 unknown #
point $-1 -63.686025574510943 -40.770951215445905 -12.415934833928249 #
edge $-1 $420 -40.770951215445905 $429 40.770951215445905 $415 $489 forward 7 unknown #
vertex $-1 $428 $490 #
straight-curve $-1 -71.843405024906843 -40.770951215445905 -8.5778964436923655 1 0 0 I I #
plane-surface $-1 0 -40.770951215445905 0 0 1 0 0 0 1 forward_v I I I I #
coedge $-1 $435 $325 $441 $491 reversed $214 $-1 #
coedge $-1 $337 $336 $325 $434 reversed $338 $-1 #
edge $-1 $436 -1.9190191951179418 $492 1.9190191951179418 $325 $493 forward 7 unknown #
coedge $-1 $326 $432 $328 $439 reversed $214 $-1 #
vertex $-1 $327 $494 #
vertex $-1 $327 $495 #
straight-curve $-1 80.000784475302737 0 -8.5778964436923655 0 1 0 I I #
edge $-1 $437 -1.9190191951179418 $442 1.9190191951179418 $435 $496 forward 7 unknown #
straight-curve $-1 71.843405024906843 40.770951215445905 -8.5778964436923655 -1 0 0 I I #
coedge $-1 $445 $330 $432 $491 forward $323 $-1 #
vertex $-1 $491 $497 #
straight-curve $-1 71.843405024906843 40.770951215445905 -12.415934833928249 1 0 0 I I #
point $-1 63.686025574510943 40.770951215445905 -12.415934833928249 #
coedge $-1 $334 $441 $336 $447 forward $323 $-1 #
straight-curve $-1 63.686025574510943 0 -12.415934833928249 0 1 0 I I #
edge $-1 $492 -8.1573794503958936 $339 8.1573794503959007 $336 $498 forward 7 unknown #
point $-1 63.686025574510943 -40.770951215445905 -12.415934833928249 #
straight-curve $-1 71.843405024906843 -40.770951215445905 -8.5778964436923655 1 0 0 I I #
coedge $-1 $355 $354 $347 $451 forward $344 $-1 #
edge $-1 $452 40.596416529916141 $455 45.974322983078054 $450 $499 forward 7 unknown #
vertex $-1 $359 $500 #
straight-curve $-1 -47.371266673719141 -60.464390624366601 12.415934833928247 0 -1 0 I I #
edge $-1 $455 -27.187625824029087 $356 -13.17965587535102 $355 $501 forward 7 unknown #
vertex $-1 $454 $502 #
straight-curve $-1 -47.371266673719141 -40.770951215445905 7.0380283807663346 0 0.77714595512881146 0.62932039886446345 I I #
point $-1 -47.371266673719141 -34.129789964869573 12.415934833928249 #
point $-1 -33.363296725041074 -40.770951215445905 7.0380283807663346 #
straight-curve $-1 0 -40.770951215445905 12.415934833928249 1 0 0 I I #
vertex $-1 $362 $503 #
point $-1 -42.368989545525409 -35.429005069381098 7.2308031247446136 #
vertex $-1 $366 $504 #
point $-1 -36.365573853234807 -35.429005069381098 7.2308031247446136 #
edge $-1 $465 66.254407810904141 $468 71.632314264066054 $371 $505 forward 7 unknown #
vertex $-1 $385 $506 #
straight-curve $-1 -33.363296725041074 28.779410800528716 12.415934833928247 0 1 0 I I #
edge $-1 $468 13.17965587535102 $382 27.187625824029087 $381 $507 forward 7 unknown #
vertex $-1 $467 $508 #
straight-curve $-1 -33.363296725041074 -22.599008432229866 58.354010942742335 0 -0.77714595512881146 0.62932039886446345 I I #
point $-1 -33.363296725041074 34.12978996486958 12.415934833928247 #
point $-1 -47.371266673719141 40.770951215445905 7.0380283807663417 #
straight-curve $-1 0 40.770951215445905 12.415934833928249 -1 0 0 I I #
vertex $-1 $388 $509 #
point $-1 -42.368989545525409 35.429005069381098 7.2308031247446065 #
vertex $-1 $392 $510 #
point $-1 -36.365573853234807 35.429005069381098 7.2308031247446065 #
point $-1 -63.686025574510943 -40.770951215445905 -12.415934833928249 #
straight-curve $-1 -63.686025574510943 0 -12.415934833928249 0 1 0 I I #
point $-1 -63.686025574510943 40.770951215445905 -12.415934833928249 #
straight-curve $-1 -63.686025574510943 40.770951215445905 0 0 0 -1 I I #
coedge $-1 $415 $414 $425 $486 reversed $200 $-1 #
edge $-1 $487 -40.770951215445905 $418 40.770951215445905 $414 $511 forward 7 unknown #
straight-curve $-1 -80.000784475302737 40.770951215445905 -10.496915638810307 0 0 -1 I I #
point $-1 -80.000784475302737 40.770951215445905 -12.415934833928249 #
point $-1 -80.000784475302737 40.770951215445905 -8.5778964436923655 #
edge $-1 $429 -1.9190191951179418 $487 1.9190191951179418 $481 $512 forward 7 unknown #
vertex $-1 $482 $513 #
straight-curve $-1 -71.843405024906843 -40.770951215445905 -12.415934833928249 -1 0 0 I I #
straight-curve $-1 -80.000784475302737 0 -8.5778964436923655 0 -1 0 I I #
point $-1 -80.000784475302737 -40.770951215445905 -8.5778964436923655 #
edge $-1 $442 -40.770951215445905 $492 40.770951215445905 $432 $514 forward 7 unknown #
vertex $-1 $434 $515 #
straight-curve $-1 80.000784475302737 -40.770951215445905 -10.496915638810307 0 0 -1 I I #
point $-1 80.000784475302737 -40.770951215445905 -8.5778964436923655 #
point $-1 80.000784475302737 40.770951215445905 -8.5778964436923655 #
straight-curve $-1 80.000784475302737 40.770951215445905 -10.496915638810307 0 0 -1 I I #
point $-1 80.000784475302737 40.770951215445905 -12.415934833928249 #
straight-curve $-1 71.843405024906843 -40.770951215445905 -12.415934833928249 -1 0 0 I I #
straight-curve $-1 -47.371266673719141 -40.770951215445905 53.012351363844388 0 0 -1 I I #
point $-1 -47.371266673719141 -40.770951215445905 12.415934833928249 #
straight-curve $-1 -20.183640849690054 -40.770951215445905 7.0380283807663329 1 0 0 I I #
point $-1 -47.371266673719141 -40.770951215445905 7.0380283807663346 #
point $-1 -43.368989545525409 -34.799684670516633 6.4536571696158029 #
point $-1 -37.365573853234807 -34.799684670516633 6.4536571696158029 #
straight-curve $-1 -33.363296725041074 40.770951215445905 78.670342644832388 0 0 -1 I I #
point $-1 -33.363296725041074 40.770951215445905 12.415934833928249 #
straight-curve $-1 -20.183640849690054 40.770951215445905 7.0380283807663417 -1 0 0 I I #
point $-1 -33.363296725041074 40.770951215445905 7.0380283807663417 #
point $-1 -43.368989545525409 34.799684670516633 6.4536571696157958 #
point $-1 -37.365573853234807 34.799684670516633 6.4536571696157958 #
straight-curve $-1 -80.000784475302737 0 -12.415934833928249 0 1 0 I I #
straight-curve $-1 -80.000784475302737 -40.770951215445905 -10.496915638810307 0 0 -1 I I #
point $-1 -80.000784475302737 -40.770951215445905 -12.415934833928249 #
straight-curve $-1 80.000784475302737 0 -12.415934833928249 0 -1 0 I I #
point $-1 80.000784475302737 -40.770951215445905 -12.415934833928249 #
End-of-ACIS-data 