500 0 5 0           
7 Unknown 11 ACIS 5.0 NT 24 Thu Mar 25 18:52:12 1999 
-1 9.9999999999999995e-007 1e-010 
body $-1 $5 $-1 $6 #
body $-1 $7 $-1 $8 #
body $-1 $9 $-1 $10 #
body $-1 $11 $-1 $12 #
body $-1 $13 $-1 $14 #
lump $-1 $-1 $15 $0 #
transform $-1 1 0 0 0 1 0 0 0 1 73.892635883663445 37.711922052140991 10.421620086499889 1 rotate no_reflect no_shear #
lump $-1 $-1 $16 $1 #
transform $-1 1 0 0 0 1 0 0 0 1 73.892635883663445 37.711922052140991 10.421620086499889 1 rotate no_reflect no_shear #
lump $-1 $-1 $17 $2 #
transform $-1 1 0 0 0 1 0 0 0 1 73.892635883663445 37.711922052140991 10.421620086499889 1 rotate no_reflect no_shear #
lump $-1 $-1 $18 $3 #
transform $-1 1 0 0 0 1 0 0 0 1 73.892635883663445 37.711922052140991 10.421620086499889 1 rotate no_reflect no_shear #
lump $-1 $-1 $19 $4 #
transform $-1 1 0 0 0 1 0 0 0 1 73.892635883663445 37.711922052140991 10.421620086499889 1 rotate no_reflect no_shear #
shell $-1 $-1 $-1 $20 $-1 $5 #
shell $-1 $-1 $-1 $21 $-1 $7 #
shell $-1 $-1 $-1 $22 $-1 $9 #
shell $-1 $-1 $-1 $23 $-1 $11 #
shell $-1 $-1 $-1 $24 $-1 $13 #
face $-1 $25 $26 $15 $-1 $27 forward single #
face $-1 $28 $29 $16 $-1 $30 forward single #
face $-1 $31 $32 $17 $-1 $33 reversed single #
face $-1 $34 $35 $18 $-1 $36 forward single #
face $-1 $37 $38 $19 $-1 $39 forward single #
face $-1 $40 $41 $15 $-1 $42 reversed single #
loop $-1 $-1 $43 $20 #
plane-surface $-1 0 0 10.421620086499889 0 0 1 1 0 0 forward_v I I I I #
face $-1 $44 $45 $16 $-1 $46 reversed single #
loop $-1 $-1 $47 $21 #
plane-surface $-1 0 -37.711922052140991 0 0 1 0 0 0 1 forward_v I I I I #
face $-1 $48 $49 $17 $-1 $50 reversed single #
loop $-1 $-1 $51 $22 #
plane-surface $-1 -31.111468655637282 94.356291505087157 159.06854809342167 1 0 0 0 -0.73135370988377701 -0.68199835119979291 forward_v I I I I #
face $-1 $52 $53 $18 $-1 $54 forward single #
loop $-1 $55 $56 $23 #
cone-surface $-1 -21.002079544276498 33.490693648256062 6.0089900873449524 0 -0.73135370988377701 -0.68199835119979291 1.5 0 0 1 I I 0 1 1.5 forward I I I I #
face $-1 $57 $58 $19 $-1 $59 forward single #
loop $-1 $60 $61 $24 #
cone-surface $-1 -5.8379958772353149 33.490693648256062 6.0089900873449524 0 -0.73135370988377701 -0.68199835119979291 1.5 0 0 1 I I 0 1 1.5 forward I I I I #
face $-1 $62 $63 $15 $-1 $64 reversed single #
loop $-1 $-1 $65 $25 #
plane-surface $-1 0 0 -10.421620086499889 0 0 1 1 0 0 forward_v I I I I #
coedge $-1 $66 $67 $68 $69 forward $26 $-1 #
face $-1 $70 $71 $16 $-1 $72 forward single #
loop $-1 $-1 $73 $28 #
plane-surface $-1 -73.892635883663445 0 0 1 0 0 0 0 -1 forward_v I I I I #
coedge $-1 $74 $75 $76 $77 forward $29 $-1 #
face $-1 $78 $79 $17 $-1 $80 reversed single #
loop $-1 $-1 $81 $31 #
plane-surface $-1 -13.420037710755906 -13.727015268129577 58.279236416491429 0 0.73135370988377701 0.68199835119979291 1 0 0 forward_v I I I I #
coedge $-1 $82 $83 $84 $85 reversed $32 $-1 #
face $-1 $-1 $86 $18 $-1 $87 forward single #
loop $-1 $88 $89 $34 #
cone-surface $-1 -21.002079544276498 32.126444557072901 4.7368072594755368 0 -0.73135370988377701 -0.68199835119979291 0.75 0 0 1 I I -0.70710678118654757 0.70710678118654757 0.75 forward I I I I #
loop $-1 $-1 $90 $23 #
coedge $-1 $56 $56 $91 $92 reversed $35 $-1 #
face $-1 $-1 $93 $19 $-1 $94 forward single #
loop $-1 $95 $96 $37 #
cone-surface $-1 -5.8379958772353149 32.126444557072901 4.7368072594755368 0 -0.73135370988377701 -0.68199835119979291 0.75 0 0 1 I I -0.70710678118654757 0.70710678118654757 0.75 forward I I I I #
loop $-1 $-1 $97 $24 #
coedge $-1 $61 $61 $98 $99 reversed $38 $-1 #
face $-1 $100 $101 $15 $-1 $102 reversed single #
loop $-1 $-1 $103 $40 #
plane-surface $-1 0 -37.711922052140991 0 0 1 0 0 0 1 forward_v I I I I #
coedge $-1 $104 $105 $106 $107 forward $41 $-1 #
coedge $-1 $108 $43 $109 $110 forward $26 $-1 #
coedge $-1 $43 $108 $111 $112 forward $26 $-1 #
coedge $-1 $113 $114 $43 $69 reversed $115 $-1 #
edge $-1 $116 -37.711922052140991 $117 37.711922052140991 $68 $118 forward 7 unknown #
face $-1 $119 $120 $16 $-1 $121 reversed single #
loop $-1 $-1 $122 $44 #
plane-surface $-1 0 -41.429718213288481 3.1818398777523065 0 0 1 1 0 0 forward_v I I I I #
coedge $-1 $123 $124 $75 $125 forward $45 $-1 #
coedge $-1 $126 $47 $127 $128 reversed $29 $-1 #
coedge $-1 $47 $126 $73 $125 reversed $29 $-1 #
coedge $-1 $129 $122 $47 $77 reversed $71 $-1 #
edge $-1 $130 -73.892635883663445 $131 73.892635883663445 $76 $132 forward 7 unknown #
face $-1 $133 $134 $17 $-1 $135 forward single #
loop $-1 $-1 $136 $48 #
plane-surface $-1 4.271393234125469 94.356291505087157 159.06854809342167 -1 0 0 0 0.73135370988377701 0.68199835119979291 forward_v I I I I #
coedge $-1 $137 $138 $139 $140 reversed $49 $-1 #
coedge $-1 $83 $51 $141 $142 reversed $32 $-1 #
coedge $-1 $51 $82 $137 $143 reversed $32 $-1 #
coedge $-1 $139 $144 $51 $85 forward $134 $-1 #
edge $-1 $145 9.4662237004025869 $146 16.277212890631795 $84 $147 forward 7 unknown #
loop $-1 $-1 $91 $52 #
plane-surface $-1 -13.420037710755906 -13.727015268129577 58.279236416491429 0 0.73135370988377701 0.68199835119979291 1 0 0 forward_v I I I I #
loop $-1 $-1 $148 $34 #
coedge $-1 $89 $89 $90 $149 reversed $53 $-1 #
coedge $-1 $90 $90 $89 $149 forward $55 $-1 #
coedge $-1 $91 $91 $56 $92 forward $86 $-1 #
edge $-1 $150 -1.7667330523559809e-015 $150 6.2831853071795987 $91 $151 forward 7 unknown #
loop $-1 $-1 $98 $57 #
plane-surface $-1 -13.420037710755906 -13.727015268129577 58.279236416491429 0 0.73135370988377701 0.68199835119979291 1 0 0 forward_v I I I I #
loop $-1 $-1 $152 $37 #
coedge $-1 $96 $96 $97 $153 reversed $58 $-1 #
coedge $-1 $97 $97 $96 $153 forward $60 $-1 #
coedge $-1 $98 $98 $61 $99 forward $93 $-1 #
edge $-1 $154 -1.7667330523559809e-015 $154 6.2831853071795987 $98 $155 forward 7 unknown #
face $-1 $156 $157 $15 $-1 $158 reversed single #
loop $-1 $-1 $159 $62 #
plane-surface $-1 -73.892635883663445 0 0 1 0 0 0 0 -1 forward_v I I I I #
coedge $-1 $160 $111 $161 $162 forward $63 $-1 #
coedge $-1 $163 $65 $160 $164 forward $41 $-1 #
coedge $-1 $65 $163 $165 $166 forward $41 $-1 #
coedge $-1 $114 $113 $65 $107 reversed $115 $-1 #
edge $-1 $167 -37.711922052140991 $168 37.711922052140991 $106 $169 forward 7 unknown #
coedge $-1 $67 $66 $170 $171 forward $26 $-1 #
coedge $-1 $172 $173 $66 $110 reversed $157 $-1 #
edge $-1 $117 -73.892635883663445 $174 73.892635883663445 $109 $175 forward 7 unknown #
coedge $-1 $103 $176 $67 $112 reversed $63 $-1 #
edge $-1 $177 -73.892635883663445 $116 73.892635883663445 $111 $178 forward 7 unknown #
coedge $-1 $106 $68 $176 $179 forward $115 $-1 #
coedge $-1 $68 $106 $172 $180 reversed $115 $-1 #
loop $-1 $-1 $113 $156 #
vertex $-1 $69 $181 #
vertex $-1 $69 $182 #
straight-curve $-1 73.892635883663445 0 10.421620086499889 0 1 0 I I #
face $-1 $183 $184 $16 $-1 $185 reversed single #
loop $-1 $-1 $186 $70 #
plane-surface $-1 0 -41.429718213288481 0.18183987775230648 0 0 1 1 0 0 forward_v I I I I #
coedge $-1 $76 $187 $188 $189 forward $71 $-1 #
coedge $-1 $190 $73 $191 $192 reversed $45 $-1 #
coedge $-1 $73 $190 $129 $193 reversed $45 $-1 #
edge $-1 $130 -3.1818398777523065 $194 -0.18183987775230648 $73 $195 forward 7 unknown #
coedge $-1 $75 $74 $196 $197 forward $29 $-1 #
coedge $-1 $188 $198 $74 $128 forward $199 $-1 #
edge $-1 $200 0.18183987775230648 $131 3.1818398777523065 $127 $201 forward 7 unknown #
coedge $-1 $187 $76 $124 $193 forward $71 $-1 #
vertex $-1 $125 $202 #
vertex $-1 $189 $203 #
straight-curve $-1 0 -37.711922052140991 3.1818398777523065 1 0 0 I I #
face $-1 $-1 $204 $17 $-1 $205 reversed single #
loop $-1 $-1 $84 $78 #
plane-surface $-1 0 0 10.421620086499889 0 0 1 1 0 0 forward_v I I I I #
coedge $-1 $206 $207 $208 $209 reversed $79 $-1 #
coedge $-1 $210 $81 $83 $143 forward $49 $-1 #
coedge $-1 $81 $210 $206 $211 forward $49 $-1 #
coedge $-1 $208 $84 $81 $140 forward $134 $-1 #
edge $-1 $146 -24.401449800259329 $212 10.981412089503422 $139 $213 forward 7 unknown #
coedge $-1 $214 $215 $82 $142 forward $204 $-1 #
edge $-1 $216 -76.416545829581707 $145 -69.112653960210949 $141 $217 forward 7 unknown #
edge $-1 $146 65.437032291251839 $216 75.42384410428204 $83 $218 forward 7 unknown #
coedge $-1 $84 $208 $214 $219 forward $134 $-1 #
vertex $-1 $142 $220 #
vertex $-1 $85 $221 #
straight-curve $-1 -31.111468655637282 47.178145752543578 10.421620086499885 0 -1 0 I I #
coedge $-1 $148 $148 $-1 $222 reversed $88 $-1 #
edge $-1 $223 0 $223 6.2831853071796004 $89 $224 forward 7 unknown #
vertex $-1 $92 $225 #
ellipse-curve $-1 -21.002079544276498 34.306427457026373 6.7696741518145069 0 0.73135370988377701 0.68199835119979291 1.5 0 0 1 I I #
coedge $-1 $152 $152 $-1 $226 reversed $95 $-1 #
edge $-1 $227 0 $227 6.2831853071796004 $96 $228 forward 7 unknown #
vertex $-1 $99 $229 #
ellipse-curve $-1 -5.8379958772353149 34.306427457026373 6.7696741518145069 0 0.73135370988377701 0.68199835119979291 1.5 0 0 1 I I #
face $-1 $-1 $115 $15 $-1 $230 reversed single #
loop $-1 $-1 $172 $100 #
plane-surface $-1 0 37.711922052140991 0 0 -1 0 0 0 -1 forward_v I I I I #
coedge $-1 $231 $170 $173 $232 forward $101 $-1 #
coedge $-1 $176 $103 $104 $164 reversed $63 $-1 #
coedge $-1 $170 $231 $103 $162 reversed $101 $-1 #
edge $-1 $177 -10.421620086499889 $233 10.421620086499889 $161 $234 forward 7 unknown #
coedge $-1 $105 $104 $231 $235 forward $41 $-1 #
edge $-1 $168 -73.892635883663445 $233 73.892635883663445 $160 $236 forward 7 unknown #
coedge $-1 $173 $172 $105 $166 reversed $157 $-1 #
edge $-1 $237 -73.892635883663445 $167 73.892635883663445 $165 $238 forward 7 unknown #
vertex $-1 $107 $239 #
vertex $-1 $179 $240 #
straight-curve $-1 73.892635883663445 0 -10.421620086499889 0 -1 0 I I #
coedge $-1 $159 $161 $108 $171 reversed $101 $-1 #
edge $-1 $174 -37.711922052140991 $177 37.711922052140991 $170 $241 forward 7 unknown #
coedge $-1 $165 $109 $114 $180 forward $157 $-1 #
coedge $-1 $109 $165 $159 $232 reversed $157 $-1 #
vertex $-1 $110 $242 #
straight-curve $-1 0 37.711922052140991 10.421620086499889 -1 0 0 I I #
coedge $-1 $111 $160 $113 $179 reversed $63 $-1 #
vertex $-1 $171 $243 #
straight-curve $-1 0 -37.711922052140991 10.421620086499889 1 0 0 I I #
edge $-1 $116 -10.421620086499889 $168 10.421620086499889 $113 $244 forward 7 unknown #
edge $-1 $117 -10.421620086499889 $167 10.421620086499889 $114 $245 forward 7 unknown #
point $-1 73.892635883663445 -37.711922052140991 10.421620086499889 #
point $-1 73.892635883663445 37.711922052140991 10.421620086499889 #
face $-1 $-1 $199 $16 $-1 $246 reversed single #
loop $-1 $-1 $247 $119 #
plane-surface $-1 0 -45.147514374435971 1.6818398777523065 0 1 0 0 0 1 forward_v I I I I #
coedge $-1 $248 $196 $198 $249 forward $120 $-1 #
coedge $-1 $122 $129 $250 $251 forward $71 $-1 #
coedge $-1 $252 $127 $122 $189 reversed $199 $-1 #
edge $-1 $253 -3.7177961611474899 $131 3.7177961611474899 $188 $254 forward 7 unknown #
coedge $-1 $124 $123 $247 $255 reversed $45 $-1 #
coedge $-1 $196 $248 $123 $192 forward $120 $-1 #
edge $-1 $256 -3.7177961611474899 $194 3.7177961611474899 $123 $257 forward 7 unknown #
edge $-1 $130 -3.7177961611474899 $258 3.7177961611474899 $124 $259 forward 7 unknown #
vertex $-1 $125 $260 #
straight-curve $-1 -73.892635883663445 -37.711922052140991 0 0 0 -1 I I #
coedge $-1 $186 $191 $126 $197 reversed $120 $-1 #
edge $-1 $200 -73.892635883663445 $194 73.892635883663445 $196 $261 forward 7 unknown #
coedge $-1 $127 $252 $186 $249 reversed $199 $-1 #
loop $-1 $-1 $127 $183 #
vertex $-1 $128 $262 #
straight-curve $-1 73.892635883663445 -37.711922052140991 0 0 0 1 I I #
point $-1 -73.892635883663445 -37.711922052140991 3.1818398777523065 #
point $-1 73.892635883663445 -37.711922052140991 3.1818398777523065 #
loop $-1 $-1 $141 $133 #
plane-surface $-1 0 37.711922052140991 0 0 -1 0 0 0 -1 forward_v I I I I #
coedge $-1 $207 $136 $138 $211 reversed $79 $-1 #
coedge $-1 $136 $206 $263 $264 reversed $79 $-1 #
coedge $-1 $144 $139 $136 $209 forward $134 $-1 #
edge $-1 $212 -16.277212890631795 $265 -9.4662237004025869 $208 $266 forward 7 unknown #
coedge $-1 $138 $137 $215 $267 reversed $49 $-1 #
edge $-1 $268 -75.42384410428204 $212 -65.437032291251839 $206 $269 forward 7 unknown #
vertex $-1 $140 $270 #
straight-curve $-1 -6.7100188553779532 30.90093286191178 10.421620086499885 1 0 0 I I #
coedge $-1 $263 $141 $144 $219 reversed $204 $-1 #
coedge $-1 $141 $263 $210 $267 forward $204 $-1 #
vertex $-1 $142 $271 #
straight-curve $-1 -31.111468655637282 37.711922052140991 79.534274046710834 0 0 1 I I #
straight-curve $-1 -31.111468655637282 -13.727015268129577 58.279236416491429 0 0.68199835119979291 -0.73135370988377701 I I #
edge $-1 $265 -4.271393234125469 $145 31.111468655637282 $214 $272 forward 7 unknown #
point $-1 -31.111468655637282 37.711922052140991 10.421620086499889 #
point $-1 -31.111468655637282 30.900932861911784 10.421620086499885 #
edge $-1 $273 1 $273 0 $148 $-1 forward 7 unknown #
vertex $-1 $149 $274 #
ellipse-curve $-1 -21.002079544276498 32.674959839485737 5.2483060228753811 0 0.73135370988377701 0.68199835119979291 1.5 0 0 1 I I #
point $-1 -19.502079544276498 34.306427457026388 6.7696741518145238 #
edge $-1 $275 1 $275 0 $152 $-1 forward 7 unknown #
vertex $-1 $153 $276 #
ellipse-curve $-1 -5.8379958772353149 32.674959839485737 5.2483060228753811 0 0.73135370988377701 0.68199835119979291 1.5 0 0 1 I I #
point $-1 -4.3379958772353149 34.306427457026388 6.7696741518145238 #
plane-surface $-1 73.892635883663445 0 0 -1 0 0 0 0 1 forward_v I I I I #
coedge $-1 $161 $159 $163 $235 reversed $101 $-1 #
edge $-1 $174 -10.421620086499889 $237 10.421620086499889 $173 $277 forward 7 unknown #
vertex $-1 $235 $278 #
straight-curve $-1 -73.892635883663445 -37.711922052140991 0 0 0 -1 I I #
edge $-1 $233 -37.711922052140991 $237 37.711922052140991 $231 $279 forward 7 unknown #
straight-curve $-1 0 -37.711922052140991 -10.421620086499889 -1 0 0 I I #
vertex $-1 $166 $280 #
straight-curve $-1 0 37.711922052140991 -10.421620086499889 1 0 0 I I #
point $-1 73.892635883663445 37.711922052140991 -10.421620086499889 #
point $-1 73.892635883663445 -37.711922052140991 -10.421620086499889 #
straight-curve $-1 -73.892635883663445 0 10.421620086499889 0 -1 0 I I #
point $-1 -73.892635883663445 37.711922052140991 10.421620086499889 #
point $-1 -73.892635883663445 -37.711922052140991 10.421620086499889 #
straight-curve $-1 73.892635883663445 -37.711922052140991 0 0 0 -1 I I #
straight-curve $-1 73.892635883663445 37.711922052140991 0 0 0 -1 I I #
plane-surface $-1 73.892635883663445 0 0 -1 0 0 0 0 1 forward_v I I I I #
coedge $-1 $281 $250 $190 $255 forward $184 $-1 #
coedge $-1 $191 $186 $281 $282 forward $120 $-1 #
edge $-1 $200 -3.7177961611474899 $283 3.7177961611474899 $198 $284 forward 7 unknown #
coedge $-1 $247 $285 $187 $251 reversed $184 $-1 #
edge $-1 $258 -73.892635883663445 $253 73.892635883663445 $250 $286 forward 7 unknown #
coedge $-1 $198 $188 $285 $287 forward $199 $-1 #
vertex $-1 $189 $288 #
straight-curve $-1 73.892635883663445 -41.429718213288481 3.1818398777523065 0 1 0 I I #
edge $-1 $258 -1.5 $256 1.5 $190 $289 forward 7 unknown #
vertex $-1 $192 $290 #
straight-curve $-1 -73.892635883663445 -41.429718213288481 0.18183987775230648 0 1 0 I I #
vertex $-1 $193 $291 #
straight-curve $-1 -73.892635883663445 -41.429718213288481 3.1818398777523065 0 -1 0 I I #
point $-1 -73.892635883663445 -37.711922052140991 0.18183987775230648 #
straight-curve $-1 0 -37.711922052140991 0.18183987775230648 -1 0 0 I I #
point $-1 73.892635883663445 -37.711922052140991 0.18183987775230648 #
coedge $-1 $215 $214 $207 $264 forward $204 $-1 #
edge $-1 $265 69.112653960210949 $268 76.416545829581707 $263 $292 forward 7 unknown #
vertex $-1 $219 $293 #
straight-curve $-1 4.271393234125469 47.178145752543578 10.421620086499885 0 1 0 I I #
edge $-1 $268 -10.981412089503422 $216 24.401449800259329 $215 $294 forward 7 unknown #
vertex $-1 $267 $295 #
straight-curve $-1 4.271393234125469 -13.727015268129577 58.279236416491429 0 -0.68199835119979291 0.73135370988377701 I I #
point $-1 4.271393234125469 30.900932861911784 10.421620086499885 #
point $-1 -31.111468655637282 37.711922052140999 3.1177282171291196 #
straight-curve $-1 0 37.711922052140991 10.421620086499889 -1 0 0 I I #
vertex $-1 $222 $296 #
point $-1 -19.502079544276498 32.674959839485737 5.2483060228753811 #
vertex $-1 $226 $297 #
point $-1 -4.3379958772353149 32.674959839485737 5.2483060228753811 #
straight-curve $-1 -73.892635883663445 37.711922052140991 0 0 0 -1 I I #
point $-1 -73.892635883663445 -37.711922052140991 -10.421620086499889 #
straight-curve $-1 -73.892635883663445 0 -10.421620086499889 0 1 0 I I #
point $-1 -73.892635883663445 37.711922052140991 -10.421620086499889 #
coedge $-1 $285 $247 $248 $282 reversed $184 $-1 #
edge $-1 $283 -73.892635883663445 $256 73.892635883663445 $281 $298 forward 7 unknown #
vertex $-1 $287 $299 #
straight-curve $-1 73.892635883663445 -41.429718213288481 0.18183987775230648 0 -1 0 I I #
coedge $-1 $250 $281 $252 $287 reversed $184 $-1 #
straight-curve $-1 0 -45.147514374435971 3.1818398777523065 1 0 0 I I #
edge $-1 $253 -1.5 $283 1.5 $252 $300 forward 7 unknown #
point $-1 73.892635883663445 -45.147514374435971 3.1818398777523065 #
straight-curve $-1 -73.892635883663445 -45.147514374435971 1.6818398777523065 0 0 -1 I I #
point $-1 -73.892635883663445 -45.147514374435971 0.18183987775230648 #
point $-1 -73.892635883663445 -45.147514374435971 3.1818398777523065 #
straight-curve $-1 4.271393234125469 37.711922052140991 79.534274046710834 0 0 -1 I I #
point $-1 4.271393234125469 37.711922052140991 10.421620086499889 #
straight-curve $-1 -6.7100188553779532 37.711922052140984 3.1177282171291267 -1 0 0 I I #
point $-1 4.271393234125469 37.711922052140999 3.1177282171291196 #
point $-1 -21.002079544276498 31.577929274660068 4.2253084960756926 #
point $-1 -5.8379958772353149 31.577929274660068 4.2253084960756926 #
straight-curve $-1 0 -45.147514374435971 0.18183987775230648 -1 0 0 I I #
point $-1 73.892635883663445 -45.147514374435971 0.18183987775230648 #
straight-curve $-1 73.892635883663445 -45.147514374435971 1.6818398777523065 0 0 -1 I I #
End-of-ACIS-data 