500 0 12 0           
7 Unknown 11 ACIS 5.0 NT 24 Fri Mar 26 17:45:36 1999 
-1 9.9999999999999995e-007 1e-010 
body $-1 $12 $-1 $13 #
body $-1 $14 $-1 $15 #
body $-1 $16 $-1 $17 #
body $-1 $18 $-1 $19 #
body $-1 $20 $-1 $21 #
body $-1 $22 $-1 $23 #
body $-1 $24 $-1 $25 #
body $-1 $26 $-1 $27 #
body $-1 $28 $-1 $29 #
body $-1 $30 $-1 $31 #
body $-1 $32 $-1 $33 #
body $-1 $34 $-1 $35 #
lump $-1 $-1 $36 $0 #
transform $-1 1 0 0 0 1 0 0 0 1 70.352488784447758 41.004634725616071 18.740846253467016 1 rotate no_reflect no_shear #
lump $-1 $-1 $37 $1 #
transform $-1 1 0 0 0 1 0 0 0 1 70.352488784447758 41.004634725616071 18.740846253467016 1 rotate no_reflect no_shear #
lump $-1 $-1 $38 $2 #
transform $-1 1 0 0 0 1 0 0 0 1 70.352488784447758 41.004634725616071 18.740846253467016 1 rotate no_reflect no_shear #
lump $-1 $-1 $39 $3 #
transform $-1 1 0 0 0 1 0 0 0 1 70.352488784447758 41.004634725616071 18.740846253467016 1 rotate no_reflect no_shear #
lump $-1 $-1 $40 $4 #
transform $-1 1 0 0 0 1 0 0 0 1 70.352488784447758 41.004634725616071 18.740846253467016 1 rotate no_reflect no_shear #
lump $-1 $-1 $41 $5 #
transform $-1 1 0 0 0 1 0 0 0 1 70.352488784447758 41.004634725616071 18.740846253467016 1 rotate no_reflect no_shear #
lump $-1 $-1 $42 $6 #
transform $-1 1 0 0 0 1 0 0 0 1 70.352488784447758 41.004634725616071 18.740846253467016 1 rotate no_reflect no_shear #
lump $-1 $-1 $43 $7 #
transform $-1 1 0 0 0 1 0 0 0 1 70.352488784447758 41.004634725616071 18.740846253467016 1 rotate no_reflect no_shear #
lump $-1 $-1 $44 $8 #
transform $-1 1 0 0 0 1 0 0 0 1 70.352488784447758 41.004634725616071 18.740846253467016 1 rotate no_reflect no_shear #
lump $-1 $-1 $45 $9 #
transform $-1 1 0 0 0 1 0 0 0 1 70.352488784447758 41.004634725616071 18.740846253467016 1 rotate no_reflect no_shear #
lump $-1 $-1 $46 $10 #
transform $-1 1 0 0 0 1 0 0 0 1 70.352488784447758 41.004634725616071 18.740846253467016 1 rotate no_reflect no_shear #
lump $-1 $-1 $47 $11 #
transform $-1 1 0 0 0 1 0 0 0 1 70.352488784447758 41.004634725616071 18.740846253467016 1 rotate no_reflect no_shear #
shell $-1 $-1 $-1 $48 $-1 $12 #
shell $-1 $-1 $-1 $49 $-1 $14 #
shell $-1 $-1 $-1 $50 $-1 $16 #
shell $-1 $-1 $-1 $51 $-1 $18 #
shell $-1 $-1 $-1 $52 $-1 $20 #
shell $-1 $-1 $-1 $53 $-1 $22 #
shell $-1 $-1 $-1 $54 $-1 $24 #
shell $-1 $-1 $-1 $55 $-1 $26 #
shell $-1 $-1 $-1 $56 $-1 $28 #
shell $-1 $-1 $-1 $57 $-1 $30 #
shell $-1 $-1 $-1 $58 $-1 $32 #
shell $-1 $-1 $-1 $59 $-1 $34 #
face $-1 $60 $61 $36 $-1 $62 forward single #
face $-1 $63 $64 $37 $-1 $65 forward single #
face $-1 $66 $67 $38 $-1 $68 reversed single #
face $-1 $69 $70 $39 $-1 $71 reversed single #
face $-1 $72 $73 $40 $-1 $74 forward single #
face $-1 $75 $76 $41 $-1 $77 forward single #
face $-1 $78 $79 $42 $-1 $80 reversed single #
face $-1 $81 $82 $43 $-1 $83 forward single #
face $-1 $84 $85 $44 $-1 $86 forward single #
face $-1 $87 $88 $45 $-1 $89 reversed single #
face $-1 $90 $91 $46 $-1 $92 forward single #
face $-1 $93 $94 $47 $-1 $95 forward single #
face $-1 $96 $97 $36 $-1 $98 reversed single #
loop $-1 $-1 $99 $48 #
plane-surface $-1 0 0 18.740846253467016 0 0 1 1 0 0 forward_v I I I I #
face $-1 $100 $101 $37 $-1 $102 reversed single #
loop $-1 $-1 $103 $49 #
plane-surface $-1 0 -41.004634725616071 0 0 1 0 0 0 1 forward_v I I I I #
face $-1 $104 $105 $38 $-1 $106 reversed single #
loop $-1 $-1 $107 $50 #
plane-surface $-1 -38.095435592702657 28.055486090706083 0 0 1 0 0 0 1 forward_v I I I I #
face $-1 $108 $109 $39 $-1 $110 reversed single #
loop $-1 $-1 $111 $51 #
plane-surface $-1 -151.0575494353877 -6.1828208212300666 117.94941780312512 0 1 0 -0.57357644374324357 0 0.81915203911291934 forward_v I I I I #
face $-1 $112 $113 $40 $-1 $114 forward single #
loop $-1 $115 $116 $52 #
cone-surface $-1 -58.314951569339549 -3.9684128082435066 9.8924079621065957 0.57357644374324357 0 -0.81915203911291934 0.81915203911291934 0 0.57357644374324357 1 I I 0 1 1 forward I I I I #
face $-1 $117 $118 $41 $-1 $119 forward single #
loop $-1 $120 $121 $53 #
cone-surface $-1 -58.314951569339549 -0.64680078876366309 9.8924079621065957 0.57357644374324357 0 -0.81915203911291934 0.81915203911291934 0 0.57357644374324357 1 I I 0 1 1 forward I I I I #
face $-1 $122 $123 $42 $-1 $124 reversed single #
loop $-1 $-1 $125 $54 #
plane-surface $-1 -151.0575494353877 9.7357191145056561 117.94941780312512 0 1 0 -0.57357644374324357 0 0.81915203911291934 forward_v I I I I #
face $-1 $126 $127 $43 $-1 $128 forward single #
loop $-1 $129 $130 $55 #
cone-surface $-1 -58.314951569339549 11.950127127492216 9.8924079621065957 0.57357644374324357 0 -0.81915203911291934 0.81915203911291934 0 0.57357644374324357 1 I I 0 1 1 forward I I I I #
face $-1 $131 $132 $44 $-1 $133 forward single #
loop $-1 $134 $135 $56 #
cone-surface $-1 -58.314951569339549 15.27173914697206 9.8924079621065957 0.57357644374324357 0 -0.81915203911291934 0.81915203911291934 0 0.57357644374324357 1 I I 0 1 1 forward I I I I #
face $-1 $136 $137 $45 $-1 $138 reversed single #
loop $-1 $-1 $139 $57 #
plane-surface $-1 108.32097971537033 -3.7109735393028718 204.09367972818529 0 -1 0 -0.82903758062907751 0 -0.55919289150049634 forward_v I I I I #
face $-1 $140 $141 $46 $-1 $142 forward single #
loop $-1 $143 $144 $58 #
cone-surface $-1 65.939174020067611 -13.026106548356196 13.044803593120696 -0.82903758062907751 0 -0.55919289150049634 0.55919289150049634 0 -0.82903758062907751 1 I I 0 1 1 forward I I I I #
face $-1 $145 $146 $47 $-1 $147 forward single #
loop $-1 $148 $149 $59 #
cone-surface $-1 65.939174020067611 -7.4370267429242034 13.044803593120696 -0.82903758062907751 0 -0.55919289150049634 0.55919289150049634 0 -0.82903758062907751 1 I I 0 1 1 forward I I I I #
face $-1 $150 $151 $36 $-1 $152 reversed single #
loop $-1 $-1 $153 $60 #
plane-surface $-1 0 0 -18.740846253467016 0 0 1 1 0 0 forward_v I I I I #
coedge $-1 $154 $155 $156 $157 forward $61 $-1 #
face $-1 $158 $159 $37 $-1 $160 reversed single #
loop $-1 $-1 $161 $63 #
plane-surface $-1 0 0 -18.740846253467016 0 0 1 1 0 0 forward_v I I I I #
coedge $-1 $162 $163 $164 $165 forward $64 $-1 #
face $-1 $166 $167 $38 $-1 $168 reversed single #
loop $-1 $-1 $169 $66 #
plane-surface $-1 -43.320074907891595 34.530060408161077 0 1 0 0 0 0 -1 forward_v I I I I #
coedge $-1 $170 $171 $172 $173 forward $67 $-1 #
face $-1 $174 $175 $39 $-1 $176 reversed single #
loop $-1 $-1 $177 $69 #
plane-surface $-1 -70.352488784447758 -2.3076067985035849 2.6906485142267798 -0.57357644374324357 0 0.81915203911291934 0.81915203911291934 0 0.57357644374324357 forward_v I I I I #
coedge $-1 $178 $179 $180 $181 reversed $70 $-1 #
face $-1 $-1 $182 $40 $-1 $183 forward single #
loop $-1 $184 $185 $72 #
cone-surface $-1 -57.451654866787308 -3.9684128082435066 8.6594925208098346 0.57357644374324357 0 -0.81915203911291934 0.40957601955645967 0 0.28678822187162178 1 I I -0.70710678118654746 0.70710678118654746 0.5 forward I I I I #
loop $-1 $-1 $186 $52 #
coedge $-1 $116 $116 $187 $188 reversed $73 $-1 #
face $-1 $-1 $189 $41 $-1 $190 forward single #
loop $-1 $191 $192 $75 #
cone-surface $-1 -57.451654866787308 -0.64680078876366309 8.6594925208098346 0.57357644374324357 0 -0.81915203911291934 0.40957601955645967 0 0.28678822187162178 1 I I -0.70710678118654746 0.70710678118654746 0.5 forward I I I I #
loop $-1 $-1 $193 $53 #
coedge $-1 $121 $121 $194 $195 reversed $76 $-1 #
face $-1 $196 $197 $42 $-1 $198 reversed single #
loop $-1 $-1 $199 $78 #
plane-surface $-1 -70.352488784447758 13.610933137232138 2.6906485142267798 -0.57357644374324357 0 0.81915203911291934 0.81915203911291934 0 0.57357644374324357 forward_v I I I I #
coedge $-1 $200 $201 $202 $203 reversed $79 $-1 #
face $-1 $-1 $204 $43 $-1 $205 forward single #
loop $-1 $206 $207 $81 #
cone-surface $-1 -57.451654866787308 11.950127127492216 8.6594925208098346 0.57357644374324357 0 -0.81915203911291934 0.40957601955645967 0 0.28678822187162178 1 I I -0.70710678118654746 0.70710678118654746 0.5 forward I I I I #
loop $-1 $-1 $208 $55 #
coedge $-1 $130 $130 $209 $210 reversed $82 $-1 #
face $-1 $-1 $211 $44 $-1 $212 forward single #
loop $-1 $213 $214 $84 #
cone-surface $-1 -57.451654866787308 15.27173914697206 8.6594925208098346 0.57357644374324357 0 -0.81915203911291934 0.40957601955645967 0 0.28678822187162178 1 I I -0.70710678118654746 0.70710678118654746 0.5 forward I I I I #
loop $-1 $-1 $215 $56 #
coedge $-1 $135 $135 $216 $217 reversed $85 $-1 #
face $-1 $218 $219 $45 $-1 $220 reversed single #
loop $-1 $-1 $221 $87 #
plane-surface $-1 -8.3287344708154336 -10.2315666456402 125.41245647292213 0.82903758062907751 0 0.55919289150049634 0.55919289150049634 0 -0.82903758062907751 forward_v I I I I #
coedge $-1 $222 $223 $224 $225 reversed $88 $-1 #
face $-1 $-1 $226 $46 $-1 $227 forward single #
loop $-1 $228 $229 $90 #
cone-surface $-1 64.476498414313426 -13.026106548356196 12.058216470389436 -0.82903758062907751 0 -0.55919289150049634 0.27959644575024817 0 -0.41451879031453875 1 I I -0.70710678118654746 0.70710678118654746 0.5 forward I I I I #
loop $-1 $-1 $230 $58 #
coedge $-1 $144 $144 $231 $232 reversed $91 $-1 #
face $-1 $-1 $233 $47 $-1 $234 forward single #
loop $-1 $235 $236 $93 #
cone-surface $-1 64.476498414313426 -7.4370267429242034 12.058216470389436 -0.82903758062907751 0 -0.55919289150049634 0.27959644575024817 0 -0.41451879031453875 1 I I -0.70710678118654746 0.70710678118654746 0.5 forward I I I I #
loop $-1 $-1 $237 $59 #
coedge $-1 $149 $149 $238 $239 reversed $94 $-1 #
face $-1 $240 $241 $36 $-1 $242 reversed single #
loop $-1 $-1 $243 $96 #
plane-surface $-1 0 -41.004634725616071 0 0 1 0 0 0 1 forward_v I I I I #
coedge $-1 $244 $245 $246 $247 forward $97 $-1 #
coedge $-1 $248 $99 $249 $250 forward $61 $-1 #
coedge $-1 $99 $248 $251 $252 forward $61 $-1 #
coedge $-1 $253 $254 $99 $157 reversed $255 $-1 #
edge $-1 $256 -41.004634725616071 $257 41.004634725616071 $156 $258 forward 7 unknown #
face $-1 $259 $260 $37 $-1 $261 forward single #
loop $-1 $-1 $262 $100 #
plane-surface $-1 70.352488784447758 0 0 -1 0 0 0 0 1 forward_v I I I I #
coedge $-1 $263 $264 $265 $266 forward $101 $-1 #
coedge $-1 $265 $103 $262 $267 reversed $64 $-1 #
coedge $-1 $103 $265 $268 $269 reversed $64 $-1 #
coedge $-1 $270 $271 $103 $165 reversed $260 $-1 #
edge $-1 $272 -70.352488784447758 $273 70.352488784447758 $164 $274 forward 7 unknown #
face $-1 $275 $276 $38 $-1 $277 forward single #
loop $-1 $-1 $278 $104 #
plane-surface $-1 -32.870796277513719 34.530060408161077 0 -1 0 0 0 0 1 forward_v I I I I #
coedge $-1 $279 $280 $281 $282 reversed $105 $-1 #
coedge $-1 $283 $107 $284 $285 reversed $67 $-1 #
coedge $-1 $107 $283 $286 $287 reversed $67 $-1 #
coedge $-1 $280 $279 $107 $173 reversed $105 $-1 #
edge $-1 $288 -18.740846253467016 $289 18.740846253467016 $172 $290 forward 7 unknown #
face $-1 $291 $292 $39 $-1 $293 forward single #
loop $-1 $-1 $294 $108 #
plane-surface $-1 -151.0575494353877 1.5676072242228969 117.94941780312512 0 -1 0 0.57357644374324357 0 -0.81915203911291934 forward_v I I I I #
coedge $-1 $295 $296 $297 $298 reversed $109 $-1 #
coedge $-1 $179 $111 $299 $300 reversed $70 $-1 #
coedge $-1 $111 $178 $295 $301 reversed $70 $-1 #
coedge $-1 $297 $302 $111 $181 forward $292 $-1 #
edge $-1 $303 5.176285933246092 $304 28.098343402101264 $180 $305 forward 7 unknown #
loop $-1 $-1 $187 $112 #
plane-surface $-1 -70.352488784447758 -2.3076067985035849 2.6906485142267798 -0.57357644374324357 0 0.81915203911291934 0.81915203911291934 0 0.57357644374324357 forward_v I I I I #
loop $-1 $-1 $306 $72 #
coedge $-1 $185 $185 $186 $307 reversed $113 $-1 #
coedge $-1 $186 $186 $185 $307 forward $115 $-1 #
coedge $-1 $187 $187 $116 $188 forward $182 $-1 #
edge $-1 $308 0 $308 6.2831853071796004 $187 $309 forward 7 unknown #
loop $-1 $-1 $194 $117 #
plane-surface $-1 -70.352488784447758 -2.3076067985035849 2.6906485142267798 -0.57357644374324357 0 0.81915203911291934 0.81915203911291934 0 0.57357644374324357 forward_v I I I I #
loop $-1 $-1 $310 $75 #
coedge $-1 $192 $192 $193 $311 reversed $118 $-1 #
coedge $-1 $193 $193 $192 $311 forward $120 $-1 #
coedge $-1 $194 $194 $121 $195 forward $189 $-1 #
edge $-1 $312 0 $312 6.2831853071796004 $194 $313 forward 7 unknown #
face $-1 $314 $315 $42 $-1 $316 forward single #
loop $-1 $-1 $317 $122 #
plane-surface $-1 -151.0575494353877 17.48614715995862 117.94941780312512 0 -1 0 0.57357644374324357 0 -0.81915203911291934 forward_v I I I I #
coedge $-1 $318 $319 $320 $321 reversed $123 $-1 #
coedge $-1 $201 $125 $322 $323 reversed $79 $-1 #
coedge $-1 $125 $200 $318 $324 reversed $79 $-1 #
coedge $-1 $320 $325 $125 $203 forward $315 $-1 #
edge $-1 $326 5.176285933246092 $327 28.098343402101264 $202 $328 forward 7 unknown #
loop $-1 $-1 $209 $126 #
plane-surface $-1 -70.352488784447758 13.610933137232138 2.6906485142267798 -0.57357644374324357 0 0.81915203911291934 0.81915203911291934 0 0.57357644374324357 forward_v I I I I #
loop $-1 $-1 $329 $81 #
coedge $-1 $207 $207 $208 $330 reversed $127 $-1 #
coedge $-1 $208 $208 $207 $330 forward $129 $-1 #
coedge $-1 $209 $209 $130 $210 forward $204 $-1 #
edge $-1 $331 0 $331 6.2831853071796004 $209 $332 forward 7 unknown #
loop $-1 $-1 $216 $131 #
plane-surface $-1 -70.352488784447758 13.610933137232138 2.6906485142267798 -0.57357644374324357 0 0.81915203911291934 0.81915203911291934 0 0.57357644374324357 forward_v I I I I #
loop $-1 $-1 $333 $84 #
coedge $-1 $214 $214 $215 $334 reversed $132 $-1 #
coedge $-1 $215 $215 $214 $334 forward $134 $-1 #
coedge $-1 $216 $216 $135 $217 forward $211 $-1 #
edge $-1 $335 0 $335 6.2831853071796004 $216 $336 forward 7 unknown #
face $-1 $337 $338 $45 $-1 $339 reversed single #
loop $-1 $-1 $340 $136 #
plane-surface $-1 108.32097971537033 -16.75215975197753 204.09367972818529 0 1 0 0.82903758062907751 0 0.55919289150049634 forward_v I I I I #
coedge $-1 $341 $342 $343 $344 reversed $137 $-1 #
coedge $-1 $223 $139 $345 $346 reversed $88 $-1 #
coedge $-1 $139 $222 $341 $347 reversed $88 $-1 #
coedge $-1 $343 $348 $139 $225 forward $349 $-1 #
edge $-1 $350 -16.191998926762594 $351 -9.4616830288815663 $224 $352 forward 7 unknown #
loop $-1 $-1 $231 $140 #
plane-surface $-1 -8.3287344708154336 -10.2315666456402 125.41245647292213 0.82903758062907751 0 0.55919289150049634 0.55919289150049634 0 -0.82903758062907751 forward_v I I I I #
loop $-1 $-1 $353 $90 #
coedge $-1 $229 $229 $230 $354 reversed $141 $-1 #
coedge $-1 $230 $230 $229 $354 forward $143 $-1 #
coedge $-1 $231 $231 $144 $232 forward $226 $-1 #
edge $-1 $355 0 $355 6.2831853071796004 $231 $356 forward 7 unknown #
loop $-1 $-1 $238 $145 #
plane-surface $-1 -8.3287344708154336 -10.2315666456402 125.41245647292213 0.82903758062907751 0 0.55919289150049634 0.55919289150049634 0 -0.82903758062907751 forward_v I I I I #
loop $-1 $-1 $357 $93 #
coedge $-1 $236 $236 $237 $358 reversed $146 $-1 #
coedge $-1 $237 $237 $236 $358 forward $148 $-1 #
coedge $-1 $238 $238 $149 $239 forward $233 $-1 #
edge $-1 $359 0 $359 6.2831853071796004 $238 $360 forward 7 unknown #
face $-1 $361 $362 $36 $-1 $363 reversed single #
loop $-1 $-1 $364 $150 #
plane-surface $-1 -70.352488784447758 0 0 1 0 0 0 0 -1 forward_v I I I I #
coedge $-1 $251 $365 $253 $366 reversed $151 $-1 #
coedge $-1 $367 $153 $365 $368 forward $97 $-1 #
coedge $-1 $153 $367 $369 $370 forward $97 $-1 #
coedge $-1 $254 $253 $153 $247 reversed $255 $-1 #
edge $-1 $371 -41.004634725616071 $372 41.004634725616071 $246 $373 forward 7 unknown #
coedge $-1 $155 $154 $374 $375 forward $61 $-1 #
coedge $-1 $376 $377 $154 $250 reversed $362 $-1 #
edge $-1 $257 -70.352488784447758 $378 70.352488784447758 $249 $379 forward 7 unknown #
coedge $-1 $380 $243 $155 $252 reversed $151 $-1 #
edge $-1 $381 -70.352488784447758 $256 70.352488784447758 $251 $382 forward 7 unknown #
coedge $-1 $246 $156 $243 $366 forward $255 $-1 #
coedge $-1 $156 $246 $376 $383 reversed $255 $-1 #
loop $-1 $-1 $253 $361 #
vertex $-1 $157 $384 #
vertex $-1 $157 $385 #
straight-curve $-1 70.352488784447758 0 18.740846253467016 0 1 0 I I #
face $-1 $386 $387 $37 $-1 $388 reversed single #
loop $-1 $-1 $271 $158 #
plane-surface $-1 0 -53.130872212435342 -12.082175021675468 0 0 1 1 0 0 forward_v I I I I #
coedge $-1 $389 $390 $162 $267 forward $159 $-1 #
coedge $-1 $391 $161 $390 $392 forward $101 $-1 #
coedge $-1 $161 $391 $393 $394 forward $101 $-1 #
coedge $-1 $163 $162 $161 $266 reversed $64 $-1 #
edge $-1 $395 -70.352488784447758 $396 70.352488784447758 $161 $397 forward 7 unknown #
edge $-1 $396 -18.740846253467016 $273 -12.082175021675468 $262 $398 forward 7 unknown #
coedge $-1 $393 $399 $163 $269 forward $400 $-1 #
edge $-1 $272 12.082175021675468 $395 18.740846253467016 $268 $401 forward 7 unknown #
coedge $-1 $402 $164 $399 $403 forward $260 $-1 #
coedge $-1 $164 $402 $389 $404 forward $260 $-1 #
vertex $-1 $269 $405 #
vertex $-1 $404 $406 #
straight-curve $-1 0 -41.004634725616071 -12.082175021675468 1 0 0 I I #
face $-1 $407 $408 $38 $-1 $409 reversed single #
loop $-1 $-1 $410 $166 #
plane-surface $-1 0 0 18.740846253467016 0 0 1 1 0 0 forward_v I I I I #
coedge $-1 $411 $412 $283 $413 forward $167 $-1 #
coedge $-1 $172 $169 $414 $415 reversed $105 $-1 #
coedge $-1 $169 $172 $410 $416 reversed $105 $-1 #
coedge $-1 $417 $418 $169 $282 forward $419 $-1 #
edge $-1 $420 -18.740846253467016 $421 18.740846253467016 $281 $422 forward 7 unknown #
coedge $-1 $171 $170 $278 $413 reversed $67 $-1 #
coedge $-1 $414 $423 $170 $285 forward $408 $-1 #
edge $-1 $424 13.823078481162391 $289 24.272357111540266 $284 $425 forward 7 unknown #
coedge $-1 $426 $410 $171 $287 forward $276 $-1 #
edge $-1 $288 -24.272357111540266 $427 -13.823078481162391 $286 $428 forward 7 unknown #
vertex $-1 $287 $429 #
vertex $-1 $285 $430 #
straight-curve $-1 -43.320074907891595 28.055486090706083 0 0 0 -1 I I #
face $-1 $-1 $431 $39 $-1 $432 reversed single #
loop $-1 $-1 $180 $174 #
plane-surface $-1 0 0 18.740846253467016 0 0 1 1 0 0 forward_v I I I I #
coedge $-1 $433 $434 $435 $436 reversed $175 $-1 #
coedge $-1 $437 $177 $179 $301 forward $109 $-1 #
coedge $-1 $177 $437 $433 $438 forward $109 $-1 #
coedge $-1 $435 $180 $177 $298 forward $292 $-1 #
edge $-1 $304 -5.0290174219782742 $439 2.7214106234746893 $297 $440 forward 7 unknown #
coedge $-1 $441 $442 $178 $300 forward $431 $-1 #
edge $-1 $443 -56.284060387335778 $303 -40.233862648095538 $299 $444 forward 7 unknown #
edge $-1 $304 -27.982665456925499 $443 0 $179 $445 forward 7 unknown #
coedge $-1 $180 $435 $441 $446 forward $292 $-1 #
vertex $-1 $300 $447 #
vertex $-1 $181 $448 #
straight-curve $-1 -75.52877471769385 -6.1828208212300666 18.740846253467012 1 0 0 I I #
coedge $-1 $306 $306 $-1 $449 reversed $184 $-1 #
edge $-1 $450 0 $450 6.2831853071796004 $185 $451 forward 7 unknown #
vertex $-1 $188 $452 #
ellipse-curve $-1 -58.891460050020171 -3.9684128082435066 10.715747383846898 -0.57357644374324357 0 0.81915203911291934 0.81915203911291934 0 0.57357644374324357 1 I I #
coedge $-1 $310 $310 $-1 $453 reversed $191 $-1 #
edge $-1 $454 0 $454 6.2831853071796004 $192 $455 forward 7 unknown #
vertex $-1 $195 $456 #
ellipse-curve $-1 -58.891460050020171 -0.64680078876366309 10.715747383846898 -0.57357644374324357 0 0.81915203911291934 0.81915203911291934 0 0.57357644374324357 1 I I #
face $-1 $-1 $457 $42 $-1 $458 reversed single #
loop $-1 $-1 $202 $196 #
plane-surface $-1 0 0 18.740846253467016 0 0 1 1 0 0 forward_v I I I I #
coedge $-1 $459 $460 $461 $462 reversed $197 $-1 #
coedge $-1 $463 $199 $201 $324 forward $123 $-1 #
coedge $-1 $199 $463 $459 $464 forward $123 $-1 #
coedge $-1 $461 $202 $199 $321 forward $315 $-1 #
edge $-1 $327 2.9302525458895872 $465 10.680680591342551 $320 $466 forward 7 unknown #
coedge $-1 $467 $468 $200 $323 forward $457 $-1 #
edge $-1 $469 -56.284060387335778 $326 -40.233862648095538 $322 $470 forward 7 unknown #
edge $-1 $327 -27.982665456925499 $469 0 $201 $471 forward 7 unknown #
coedge $-1 $202 $461 $467 $472 forward $315 $-1 #
vertex $-1 $203 $473 #
vertex $-1 $203 $474 #
straight-curve $-1 -75.52877471769385 9.7357191145056561 18.740846253467012 1 0 0 I I #
coedge $-1 $329 $329 $-1 $475 reversed $206 $-1 #
edge $-1 $476 0 $476 6.2831853071796004 $207 $477 forward 7 unknown #
vertex $-1 $210 $478 #
ellipse-curve $-1 -58.891460050020171 11.950127127492216 10.715747383846898 -0.57357644374324357 0 0.81915203911291934 0.81915203911291934 0 0.57357644374324357 1 I I #
coedge $-1 $333 $333 $-1 $479 reversed $213 $-1 #
edge $-1 $480 0 $480 6.2831853071796004 $214 $481 forward 7 unknown #
vertex $-1 $217 $482 #
ellipse-curve $-1 -58.891460050020171 15.27173914697206 10.715747383846898 -0.57357644374324357 0 0.81915203911291934 0.81915203911291934 0 0.57357644374324357 1 I I #
face $-1 $-1 $349 $45 $-1 $483 forward single #
loop $-1 $-1 $484 $218 #
plane-surface $-1 70.352488784447758 0 0 -1 0 0 0 0 1 forward_v I I I I #
coedge $-1 $485 $486 $487 $488 reversed $219 $-1 #
coedge $-1 $489 $221 $223 $347 forward $137 $-1 #
coedge $-1 $221 $489 $485 $490 forward $137 $-1 #
coedge $-1 $487 $224 $221 $344 forward $349 $-1 #
edge $-1 $351 -1.4048097835172282 $491 11.63637642915743 $343 $492 forward 7 unknown #
coedge $-1 $493 $494 $222 $346 forward $338 $-1 #
edge $-1 $495 -93.28409757735632 $350 -83.305993610625634 $345 $496 forward 7 unknown #
edge $-1 $351 128.66920958940392 $495 140.70497756889557 $223 $497 forward 7 unknown #
coedge $-1 $224 $487 $493 $498 forward $349 $-1 #
loop $-1 $-1 $487 $337 #
vertex $-1 $346 $499 #
vertex $-1 $225 $500 #
straight-curve $-1 54.160489857685164 -3.7109735393028718 18.740846253467012 -1 0 0 I I #
coedge $-1 $353 $353 $-1 $501 reversed $228 $-1 #
edge $-1 $502 0 $502 6.2831853071796004 $229 $503 forward 7 unknown #
vertex $-1 $232 $504 #
ellipse-curve $-1 66.987330835507237 -13.026106548356196 13.751794270101687 0.82903758062907751 0 0.55919289150049634 0.55919289150049634 0 -0.82903758062907751 1 I I #
coedge $-1 $357 $357 $-1 $505 reversed $235 $-1 #
edge $-1 $506 0 $506 6.2831853071796004 $236 $507 forward 7 unknown #
vertex $-1 $239 $508 #
ellipse-curve $-1 66.987330835507237 -7.4370267429242034 13.751794270101687 0.82903758062907751 0 0.55919289150049634 0.55919289150049634 0 -0.82903758062907751 1 I I #
face $-1 $-1 $255 $36 $-1 $509 reversed single #
loop $-1 $-1 $376 $240 #
plane-surface $-1 0 41.004634725616071 0 0 -1 0 0 0 -1 forward_v I I I I #
coedge $-1 $510 $374 $377 $511 forward $241 $-1 #
coedge $-1 $243 $380 $244 $368 reversed $151 $-1 #
edge $-1 $256 -18.740846253467016 $372 18.740846253467016 $253 $512 forward 7 unknown #
coedge $-1 $245 $244 $510 $513 forward $97 $-1 #
edge $-1 $372 -70.352488784447758 $514 70.352488784447758 $365 $515 forward 7 unknown #
coedge $-1 $377 $376 $245 $370 reversed $362 $-1 #
edge $-1 $516 -70.352488784447758 $371 70.352488784447758 $369 $517 forward 7 unknown #
vertex $-1 $247 $518 #
vertex $-1 $366 $519 #
straight-curve $-1 70.352488784447758 0 -18.740846253467016 0 -1 0 I I #
coedge $-1 $364 $520 $248 $375 reversed $241 $-1 #
edge $-1 $378 -41.004634725616071 $381 41.004634725616071 $374 $521 forward 7 unknown #
coedge $-1 $369 $249 $254 $383 forward $362 $-1 #
coedge $-1 $249 $369 $364 $511 reversed $362 $-1 #
vertex $-1 $250 $522 #
straight-curve $-1 0 41.004634725616071 18.740846253467016 -1 0 0 I I #
coedge $-1 $365 $251 $520 $523 forward $151 $-1 #
vertex $-1 $375 $524 #
straight-curve $-1 0 -41.004634725616071 18.740846253467016 1 0 0 I I #
edge $-1 $257 -18.740846253467016 $371 18.740846253467016 $254 $525 forward 7 unknown #
point $-1 70.352488784447758 -41.004634725616071 18.740846253467016 #
point $-1 70.352488784447758 41.004634725616071 18.740846253467016 #
face $-1 $-1 $400 $37 $-1 $526 reversed single #
loop $-1 $-1 $527 $259 #
plane-surface $-1 0 -65.257109699254613 -15.411510637571242 0 1 0 0 0 1 forward_v I I I I #
coedge $-1 $528 $262 $271 $404 reversed $159 $-1 #
coedge $-1 $262 $528 $263 $392 reversed $159 $-1 #
coedge $-1 $264 $263 $529 $530 forward $101 $-1 #
edge $-1 $396 41.004634725616071 $531 65.257109699254613 $390 $532 forward 7 unknown #
coedge $-1 $533 $268 $264 $394 reversed $400 $-1 #
edge $-1 $534 -65.257109699254613 $395 -41.004634725616071 $393 $535 forward 7 unknown #
vertex $-1 $269 $536 #
vertex $-1 $392 $537 #
straight-curve $-1 0 -41.004634725616071 -18.740846253467016 1 0 0 I I #
straight-curve $-1 70.352488784447758 -41.004634725616071 0 0 0 1 I I #
coedge $-1 $268 $533 $270 $403 reversed $400 $-1 #
loop $-1 $-1 $268 $386 #
straight-curve $-1 -70.352488784447758 -41.004634725616071 0 0 0 -1 I I #
coedge $-1 $271 $270 $538 $539 forward $260 $-1 #
edge $-1 $272 -12.126237486819271 $540 12.126237486819271 $399 $541 forward 7 unknown #
edge $-1 $542 -12.126237486819271 $273 12.126237486819271 $389 $543 forward 7 unknown #
point $-1 -70.352488784447758 -41.004634725616071 -12.082175021675468 #
point $-1 70.352488784447758 -41.004634725616071 -12.082175021675468 #
face $-1 $-1 $419 $38 $-1 $544 reversed single #
loop $-1 $-1 $414 $275 #
plane-surface $-1 0 0 -18.740846253467016 0 0 1 1 0 0 forward_v I I I I #
coedge $-1 $286 $545 $280 $416 forward $276 $-1 #
coedge $-1 $546 $278 $423 $547 reversed $167 $-1 #
coedge $-1 $278 $546 $426 $548 reversed $167 $-1 #
edge $-1 $427 -18.740846253467016 $424 18.740846253467016 $278 $549 forward 7 unknown #
coedge $-1 $550 $284 $279 $415 forward $408 $-1 #
edge $-1 $289 10.790455886625544 $420 23.739604521535533 $414 $551 forward 7 unknown #
edge $-1 $421 -23.739604521535533 $288 -10.790455886625544 $410 $552 forward 7 unknown #
coedge $-1 $553 $281 $545 $554 reversed $419 $-1 #
coedge $-1 $281 $553 $550 $555 reversed $419 $-1 #
loop $-1 $-1 $281 $407 #
vertex $-1 $555 $556 #
vertex $-1 $282 $557 #
straight-curve $-1 -43.320074907891595 41.004634725616071 0 0 0 1 I I #
coedge $-1 $284 $550 $411 $547 forward $408 $-1 #
vertex $-1 $285 $558 #
straight-curve $-1 -19.047717796351328 28.055486090706083 -18.740846253467016 -1 0 0 I I #
coedge $-1 $545 $286 $412 $548 forward $276 $-1 #
vertex $-1 $287 $559 #
straight-curve $-1 -19.047717796351328 28.055486090706083 18.740846253467016 1 0 0 I I #
point $-1 -43.320074907891595 28.055486090706083 18.740846253467016 #
point $-1 -43.320074907891595 28.055486090706083 -18.740846253467016 #
loop $-1 $-1 $299 $291 #
plane-surface $-1 -70.352488784447758 0 0 1 0 0 0 0 -1 forward_v I I I I #
coedge $-1 $434 $294 $296 $438 reversed $175 $-1 #
coedge $-1 $294 $433 $560 $561 reversed $175 $-1 #
coedge $-1 $302 $297 $294 $436 forward $292 $-1 #
edge $-1 $439 -28.098343402101264 $562 -5.176285933246092 $435 $563 forward 7 unknown #
coedge $-1 $296 $295 $442 $564 reversed $109 $-1 #
edge $-1 $565 0 $439 27.982665456925499 $433 $566 forward 7 unknown #
vertex $-1 $298 $567 #
straight-curve $-1 -47.430431315592578 -1.1538033992517924 18.740846253467016 0 1 0 I I #
coedge $-1 $560 $299 $302 $446 reversed $431 $-1 #
coedge $-1 $299 $560 $437 $564 forward $431 $-1 #
vertex $-1 $300 $568 #
straight-curve $-1 -70.352488784447758 -6.1828208212300666 58.974708901562558 0 0 1 I I #
straight-curve $-1 -70.352488784447758 -6.1828208212300666 2.6906485142267798 -0.81915203911291934 0 -0.57357644374324357 I I #
edge $-1 $562 -1.5676072242228969 $303 6.1828208212300666 $441 $569 forward 7 unknown #
point $-1 -70.352488784447758 -6.1828208212300666 18.740846253467016 #
point $-1 -47.430431315592585 -6.1828208212300666 18.740846253467016 #
edge $-1 $570 1 $570 0 $306 $-1 forward 7 unknown #
vertex $-1 $307 $571 #
ellipse-curve $-1 -57.738443088658933 -3.9684128082435066 9.0690685403662936 -0.57357644374324357 0 0.81915203911291934 0.81915203911291934 0 0.57357644374324357 1 I I #
point $-1 -58.07230801090725 -3.9684128082435066 11.28932382759014 #
edge $-1 $572 1 $572 0 $310 $-1 forward 7 unknown #
vertex $-1 $311 $573 #
ellipse-curve $-1 -57.738443088658933 -0.64680078876366309 9.0690685403662936 -0.57357644374324357 0 0.81915203911291934 0.81915203911291934 0 0.57357644374324357 1 I I #
point $-1 -58.07230801090725 -0.64680078876366309 11.28932382759014 #
loop $-1 $-1 $322 $314 #
plane-surface $-1 -70.352488784447758 0 0 1 0 0 0 0 -1 forward_v I I I I #
coedge $-1 $460 $317 $319 $464 reversed $197 $-1 #
coedge $-1 $317 $459 $574 $575 reversed $197 $-1 #
coedge $-1 $325 $320 $317 $462 forward $315 $-1 #
edge $-1 $465 -28.098343402101264 $576 -5.176285933246092 $461 $577 forward 7 unknown #
coedge $-1 $319 $318 $468 $578 reversed $123 $-1 #
edge $-1 $579 0 $465 27.982665456925499 $459 $580 forward 7 unknown #
vertex $-1 $321 $581 #
straight-curve $-1 -47.430431315592578 6.8054665686160689 18.740846253467016 0 1 0 I I #
coedge $-1 $574 $322 $325 $472 reversed $457 $-1 #
coedge $-1 $322 $574 $463 $578 forward $457 $-1 #
vertex $-1 $323 $582 #
straight-curve $-1 -70.352488784447758 9.7357191145056561 58.974708901562558 0 0 1 I I #
straight-curve $-1 -70.352488784447758 9.7357191145056561 2.6906485142267798 -0.81915203911291934 0 -0.57357644374324357 I I #
edge $-1 $576 -17.48614715995862 $326 -9.7357191145056561 $467 $583 forward 7 unknown #
point $-1 -70.352488784447758 9.7357191145056561 18.740846253467016 #
point $-1 -47.430431315592585 9.7357191145056561 18.740846253467016 #
edge $-1 $584 1 $584 0 $329 $-1 forward 7 unknown #
vertex $-1 $330 $585 #
ellipse-curve $-1 -57.738443088658933 11.950127127492216 9.0690685403662936 -0.57357644374324357 0 0.81915203911291934 0.81915203911291934 0 0.57357644374324357 1 I I #
point $-1 -58.07230801090725 11.950127127492216 11.28932382759014 #
edge $-1 $586 1 $586 0 $333 $-1 forward 7 unknown #
vertex $-1 $334 $587 #
ellipse-curve $-1 -57.738443088658933 15.27173914697206 9.0690685403662936 -0.57357644374324357 0 0.81915203911291934 0.81915203911291934 0 0.57357644374324357 1 I I #
point $-1 -58.07230801090725 15.27173914697206 11.28932382759014 #
plane-surface $-1 0 0 18.740846253467016 0 0 1 1 0 0 forward_v I I I I #
coedge $-1 $494 $493 $486 $588 forward $338 $-1 #
coedge $-1 $486 $340 $342 $490 reversed $219 $-1 #
coedge $-1 $340 $485 $484 $588 reversed $219 $-1 #
coedge $-1 $348 $343 $340 $488 forward $349 $-1 #
edge $-1 $491 9.4616830288815663 $589 16.191998926762594 $487 $590 forward 7 unknown #
coedge $-1 $342 $341 $494 $591 reversed $137 $-1 #
edge $-1 $592 -140.70497756889557 $491 -128.66920958940392 $485 $593 forward 7 unknown #
vertex $-1 $344 $594 #
straight-curve $-1 63.622172886566737 -5.1157833228201 18.740846253467012 0 -1 0 I I #
coedge $-1 $484 $345 $348 $498 reversed $338 $-1 #
coedge $-1 $345 $484 $489 $591 forward $338 $-1 #
vertex $-1 $346 $595 #
straight-curve $-1 70.352488784447758 -3.7109735393028718 102.04683986409265 0 0 1 I I #
straight-curve $-1 -8.3287344708154336 -3.7109735393028718 125.41245647292213 0.55919289150049634 0 -0.82903758062907751 I I #
edge $-1 $589 -16.75215975197753 $350 -3.7109735393028718 $493 $596 forward 7 unknown #
point $-1 70.352488784447758 -3.7109735393028718 18.740846253467016 #
point $-1 63.62217288656673 -3.7109735393028718 18.740846253467012 #
edge $-1 $597 1 $597 0 $353 $-1 forward 7 unknown #
vertex $-1 $354 $598 #
ellipse-curve $-1 64.891017204627971 -13.026106548356196 12.337812916139685 0.82903758062907751 0 0.55919289150049634 0.55919289150049634 0 -0.82903758062907751 1 I I #
point $-1 67.546523727007767 -13.026106548356196 12.92275668947263 #
edge $-1 $599 1 $599 0 $357 $-1 forward 7 unknown #
vertex $-1 $358 $600 #
ellipse-curve $-1 64.891017204627971 -7.4370267429242034 12.337812916139685 0.82903758062907751 0 0.55919289150049634 0.55919289150049634 0 -0.82903758062907751 1 I I #
point $-1 67.546523727007767 -7.4370267429242034 12.92275668947263 #
plane-surface $-1 70.352488784447758 0 0 -1 0 0 0 0 1 forward_v I I I I #
coedge $-1 $520 $364 $367 $513 reversed $241 $-1 #
edge $-1 $378 -18.740846253467016 $516 18.740846253467016 $377 $601 forward 7 unknown #
straight-curve $-1 70.352488784447758 -41.004634725616071 0 0 0 -1 I I #
edge $-1 $514 -41.004634725616071 $516 41.004634725616071 $510 $602 forward 7 unknown #
vertex $-1 $513 $603 #
straight-curve $-1 0 -41.004634725616071 -18.740846253467016 -1 0 0 I I #
vertex $-1 $370 $604 #
straight-curve $-1 0 41.004634725616071 -18.740846253467016 1 0 0 I I #
point $-1 70.352488784447758 41.004634725616071 -18.740846253467016 #
point $-1 70.352488784447758 -41.004634725616071 -18.740846253467016 #
coedge $-1 $374 $510 $380 $523 reversed $241 $-1 #
straight-curve $-1 -70.352488784447758 0 18.740846253467016 0 -1 0 I I #
point $-1 -70.352488784447758 41.004634725616071 18.740846253467016 #
edge $-1 $381 -18.740846253467016 $514 18.740846253467016 $520 $605 forward 7 unknown #
point $-1 -70.352488784447758 -41.004634725616071 18.740846253467016 #
straight-curve $-1 70.352488784447758 41.004634725616071 0 0 0 -1 I I #
plane-surface $-1 -70.352488784447758 0 0 1 0 0 0 0 -1 forward_v I I I I #
coedge $-1 $529 $538 $533 $606 forward $387 $-1 #
coedge $-1 $390 $389 $607 $608 forward $159 $-1 #
coedge $-1 $607 $527 $391 $530 reversed $387 $-1 #
edge $-1 $531 -70.352488784447758 $534 70.352488784447758 $529 $609 forward 7 unknown #
vertex $-1 $608 $610 #
straight-curve $-1 70.352488784447758 0 -18.740846253467016 0 -1 0 I I #
coedge $-1 $399 $393 $527 $606 reversed $400 $-1 #
vertex $-1 $394 $611 #
straight-curve $-1 -70.352488784447758 0 -18.740846253467016 0 1 0 I I #
point $-1 -70.352488784447758 -41.004634725616071 -18.740846253467016 #
point $-1 70.352488784447758 -41.004634725616071 -18.740846253467016 #
coedge $-1 $527 $607 $402 $539 reversed $387 $-1 #
edge $-1 $540 -70.352488784447758 $542 70.352488784447758 $538 $612 forward 7 unknown #
vertex $-1 $403 $613 #
straight-curve $-1 -70.352488784447758 -53.130872212435342 -12.082175021675468 0 -1 0 I I #
vertex $-1 $404 $614 #
straight-curve $-1 70.352488784447758 -53.130872212435342 -12.082175021675468 0 1 0 I I #
plane-surface $-1 0 41.004634725616071 0 0 -1 0 0 0 -1 forward_v I I I I #
coedge $-1 $410 $426 $417 $554 forward $276 $-1 #
coedge $-1 $412 $411 $553 $615 reversed $167 $-1 #
edge $-1 $616 -23.739604521535533 $424 -10.790455886625544 $423 $617 forward 7 unknown #
edge $-1 $427 10.790455886625544 $618 23.739604521535533 $426 $619 forward 7 unknown #
straight-curve $-1 -32.870796277513719 28.055486090706083 0 0 0 -1 I I #
coedge $-1 $423 $414 $418 $555 forward $408 $-1 #
straight-curve $-1 -43.320074907891595 17.265030204080539 -18.740846253467016 0 1 0 I I #
straight-curve $-1 -43.320074907891595 17.265030204080539 18.740846253467016 0 -1 0 I I #
coedge $-1 $418 $417 $546 $615 forward $419 $-1 #
edge $-1 $618 32.870796277513719 $421 43.320074907891595 $417 $620 forward 7 unknown #
edge $-1 $420 -43.320074907891595 $616 -32.870796277513719 $418 $621 forward 7 unknown #
point $-1 -43.320074907891595 41.004634725616071 -18.740846253467016 #
point $-1 -43.320074907891595 41.004634725616071 18.740846253467016 #
point $-1 -32.870796277513719 28.055486090706083 -18.740846253467016 #
point $-1 -32.870796277513719 28.055486090706083 18.740846253467016 #
coedge $-1 $442 $441 $434 $561 forward $431 $-1 #
edge $-1 $562 40.233862648095538 $565 56.284060387335778 $560 $622 forward 7 unknown #
vertex $-1 $446 $623 #
straight-curve $-1 -75.52877471769385 1.5676072242228969 18.740846253467012 -1 0 0 I I #
edge $-1 $565 -2.7214106234746893 $443 5.0290174219782742 $442 $624 forward 7 unknown #
vertex $-1 $564 $625 #
straight-curve $-1 -70.352488784447758 1.5676072242228969 2.6906485142267798 0.81915203911291934 0 0.57357644374324357 I I #
point $-1 -47.430431315592585 1.5676072242228969 18.740846253467016 #
point $-1 -70.352488784447758 -6.1828208212300666 2.6906485142267798 #
straight-curve $-1 -70.352488784447758 0 18.740846253467016 0 -1 0 I I #
vertex $-1 $449 $626 #
point $-1 -56.919291049546011 -3.9684128082435066 9.6426449841095376 #
vertex $-1 $453 $627 #
point $-1 -56.919291049546011 -0.64680078876366309 9.6426449841095376 #
coedge $-1 $468 $467 $460 $575 forward $457 $-1 #
edge $-1 $576 40.233862648095538 $579 56.284060387335778 $574 $628 forward 7 unknown #
vertex $-1 $472 $629 #
straight-curve $-1 -75.52877471769385 17.48614715995862 18.740846253467012 -1 0 0 I I #
edge $-1 $579 -10.680680591342551 $469 -2.9302525458895872 $468 $630 forward 7 unknown #
vertex $-1 $578 $631 #
straight-curve $-1 -70.352488784447758 17.48614715995862 2.6906485142267798 0.81915203911291934 0 0.57357644374324357 I I #
point $-1 -47.430431315592585 17.48614715995862 18.740846253467016 #
point $-1 -70.352488784447758 9.7357191145056561 2.6906485142267798 #
straight-curve $-1 -70.352488784447758 0 18.740846253467016 0 -1 0 I I #
vertex $-1 $475 $632 #
point $-1 -56.919291049546011 11.950127127492216 9.6426449841095376 #
vertex $-1 $479 $633 #
point $-1 -56.919291049546011 15.27173914697206 9.6426449841095376 #
edge $-1 $589 83.305993610625634 $592 93.28409757735632 $484 $634 forward 7 unknown #
vertex $-1 $498 $635 #
straight-curve $-1 54.160489857685164 -16.75215975197753 18.740846253467012 1 0 0 I I #
edge $-1 $592 -11.63637642915743 $495 1.4048097835172282 $494 $636 forward 7 unknown #
vertex $-1 $591 $637 #
straight-curve $-1 -8.3287344708154336 -16.75215975197753 125.41245647292213 -0.55919289150049634 0 0.82903758062907751 I I #
point $-1 63.62217288656673 -16.75215975197753 18.740846253467012 #
point $-1 70.352488784447758 -3.7109735393028718 8.7627422867363265 #
straight-curve $-1 70.352488784447758 0 18.740846253467016 0 1 0 I I #
vertex $-1 $501 $638 #
point $-1 65.450210096128458 -13.026106548356196 11.508775335510606 #
vertex $-1 $505 $639 #
point $-1 65.450210096128458 -7.4370267429242034 11.508775335510606 #
straight-curve $-1 -70.352488784447758 41.004634725616071 0 0 0 -1 I I #
straight-curve $-1 -70.352488784447758 0 -18.740846253467016 0 1 0 I I #
point $-1 -70.352488784447758 -41.004634725616071 -18.740846253467016 #
point $-1 -70.352488784447758 41.004634725616071 -18.740846253467016 #
straight-curve $-1 -70.352488784447758 -41.004634725616071 0 0 0 -1 I I #
edge $-1 $540 -3.3293356158957739 $534 3.3293356158957739 $533 $640 forward 7 unknown #
coedge $-1 $538 $529 $528 $608 reversed $387 $-1 #
edge $-1 $542 -3.3293356158957739 $531 3.3293356158957739 $528 $641 forward 7 unknown #
straight-curve $-1 0 -65.257109699254613 -18.740846253467016 -1 0 0 I I #
point $-1 70.352488784447758 -65.257109699254613 -18.740846253467016 #
point $-1 -70.352488784447758 -65.257109699254613 -18.740846253467016 #
straight-curve $-1 0 -65.257109699254613 -12.082175021675468 1 0 0 I I #
point $-1 -70.352488784447758 -65.257109699254613 -12.082175021675468 #
point $-1 70.352488784447758 -65.257109699254613 -12.082175021675468 #
edge $-1 $618 -18.740846253467016 $616 18.740846253467016 $553 $642 forward 7 unknown #
vertex $-1 $615 $643 #
straight-curve $-1 -32.870796277513719 17.265030204080539 -18.740846253467016 0 -1 0 I I #
vertex $-1 $554 $644 #
straight-curve $-1 -32.870796277513719 17.265030204080539 18.740846253467016 0 1 0 I I #
straight-curve $-1 0 41.004634725616071 18.740846253467016 -1 0 0 I I #
straight-curve $-1 0 41.004634725616071 -18.740846253467016 1 0 0 I I #
straight-curve $-1 -70.352488784447758 1.5676072242228969 58.974708901562558 0 0 -1 I I #
point $-1 -70.352488784447758 1.5676072242228969 18.740846253467016 #
straight-curve $-1 -70.352488784447758 -1.1538033992517924 2.6906485142267793 0 -1 0 I I #
point $-1 -70.352488784447758 1.5676072242228969 2.6906485142267798 #
point $-1 -57.164866644915683 -3.9684128082435066 8.2499165012533755 #
point $-1 -57.164866644915683 -0.64680078876366309 8.2499165012533755 #
straight-curve $-1 -70.352488784447758 17.48614715995862 58.974708901562558 0 0 -1 I I #
point $-1 -70.352488784447758 17.48614715995862 18.740846253467016 #
straight-curve $-1 -70.352488784447758 6.8054665686160689 2.6906485142267793 0 -1 0 I I #
point $-1 -70.352488784447758 17.48614715995862 2.6906485142267798 #
point $-1 -57.164866644915683 11.950127127492216 8.2499165012533755 #
point $-1 -57.164866644915683 15.27173914697206 8.2499165012533755 #
straight-curve $-1 70.352488784447758 -16.75215975197753 102.04683986409265 0 0 -1 I I #
point $-1 70.352488784447758 -16.75215975197753 18.740846253467016 #
straight-curve $-1 70.352488784447758 -5.1157833228201 8.7627422867363336 0 1 0 I I #
point $-1 70.352488784447758 -16.75215975197753 8.7627422867363265 #
point $-1 64.06197962399888 -13.026106548356196 11.778620024639187 #
point $-1 64.06197962399888 -7.4370267429242034 11.778620024639187 #
straight-curve $-1 -70.352488784447758 -65.257109699254613 -15.411510637571242 0 0 -1 I I #
straight-curve $-1 70.352488784447758 -65.257109699254613 -15.411510637571242 0 0 -1 I I #
straight-curve $-1 -32.870796277513719 41.004634725616071 0 0 0 -1 I I #
point $-1 -32.870796277513719 41.004634725616071 -18.740846253467016 #
point $-1 -32.870796277513719 41.004634725616071 18.740846253467016 #
End-of-ACIS-data 