500 0 10 0           
7 Unknown 11 ACIS 5.0 NT 24 Thu Mar 25 21:31:55 1999 
-1 9.9999999999999995e-007 1e-010 
body $-1 $10 $-1 $11 #
body $-1 $12 $-1 $13 #
body $-1 $14 $-1 $15 #
body $-1 $16 $-1 $17 #
body $-1 $18 $-1 $19 #
body $-1 $20 $-1 $21 #
body $-1 $22 $-1 $23 #
body $-1 $24 $-1 $25 #
body $-1 $26 $-1 $27 #
body $-1 $28 $-1 $29 #
lump $-1 $-1 $30 $0 #
transform $-1 1 0 0 0 1 0 0 0 1 42.04962309640797 22.730563036583924 6.7154603269128801 1 rotate no_reflect no_shear #
lump $-1 $-1 $31 $1 #
transform $-1 1 0 0 0 1 0 0 0 1 42.04962309640797 22.730563036583924 6.7154603269128801 1 rotate no_reflect no_shear #
lump $-1 $-1 $32 $2 #
transform $-1 1 0 0 0 1 0 0 0 1 42.04962309640797 22.730563036583924 6.7154603269128801 1 rotate no_reflect no_shear #
lump $-1 $-1 $33 $3 #
transform $-1 1 0 0 0 1 0 0 0 1 42.04962309640797 22.730563036583924 6.7154603269128801 1 rotate no_reflect no_shear #
lump $-1 $-1 $34 $4 #
transform $-1 1 0 0 0 1 0 0 0 1 42.04962309640797 22.730563036583924 6.7154603269128801 1 rotate no_reflect no_shear #
lump $-1 $-1 $35 $5 #
transform $-1 1 0 0 0 1 0 0 0 1 42.04962309640797 22.730563036583924 6.7154603269128801 1 rotate no_reflect no_shear #
lump $-1 $-1 $36 $6 #
transform $-1 1 0 0 0 1 0 0 0 1 42.04962309640797 22.730563036583924 6.7154603269128801 1 rotate no_reflect no_shear #
lump $-1 $-1 $37 $7 #
transform $-1 1 0 0 0 1 0 0 0 1 42.04962309640797 22.730563036583924 6.7154603269128801 1 rotate no_reflect no_shear #
lump $-1 $-1 $38 $8 #
transform $-1 1 0 0 0 1 0 0 0 1 42.04962309640797 22.730563036583924 6.7154603269128801 1 rotate no_reflect no_shear #
lump $-1 $-1 $39 $9 #
transform $-1 1 0 0 0 1 0 0 0 1 42.04962309640797 22.730563036583924 6.7154603269128801 1 rotate no_reflect no_shear #
shell $-1 $-1 $-1 $40 $-1 $10 #
shell $-1 $-1 $-1 $41 $-1 $12 #
shell $-1 $-1 $-1 $42 $-1 $14 #
shell $-1 $-1 $-1 $43 $-1 $16 #
shell $-1 $-1 $-1 $44 $-1 $18 #
shell $-1 $-1 $-1 $45 $-1 $20 #
shell $-1 $-1 $-1 $46 $-1 $22 #
shell $-1 $-1 $-1 $47 $-1 $24 #
shell $-1 $-1 $-1 $48 $-1 $26 #
shell $-1 $-1 $-1 $49 $-1 $28 #
face $-1 $50 $51 $30 $-1 $52 forward single #
face $-1 $53 $54 $31 $-1 $55 forward single #
face $-1 $56 $57 $32 $-1 $58 reversed single #
face $-1 $59 $60 $33 $-1 $61 forward single #
face $-1 $62 $63 $34 $-1 $64 forward single #
face $-1 $65 $66 $35 $-1 $67 forward single #
face $-1 $68 $69 $36 $-1 $70 reversed single #
face $-1 $71 $72 $37 $-1 $73 forward single #
face $-1 $74 $75 $38 $-1 $76 forward single #
face $-1 $77 $78 $39 $-1 $79 forward single #
face $-1 $80 $81 $30 $-1 $82 reversed single #
loop $-1 $-1 $83 $40 #
plane-surface $-1 0 0 6.7154603269128801 0 0 1 1 0 0 forward_v I I I I #
face $-1 $84 $85 $31 $-1 $86 reversed single #
loop $-1 $-1 $87 $41 #
plane-surface $-1 -38.032815805142882 0 -0.48942931010516344 0 0 1 1 0 0 forward_v I I I I #
face $-1 $88 $89 $32 $-1 $90 reversed single #
loop $-1 $-1 $91 $42 #
plane-surface $-1 -11.287252115936367 -68.534295928650849 72.589596326769865 1 0 0 0 0.54463904215088732 -0.83867056331134215 forward_v I I I I #
face $-1 $92 $93 $33 $-1 $94 forward single #
loop $-1 $95 $96 $43 #
cone-surface $-1 -9.5441984292729813 -18.792423368149642 3.8443513135257805 0 0.54463904215088732 -0.83867056331134215 0.5 0 0 1 I I 0 1 0.5 forward I I I I #
face $-1 $97 $98 $34 $-1 $99 forward single #
loop $-1 $100 $101 $44 #
cone-surface $-1 -6.9296178992779005 -18.792423368149642 3.8443513135257805 0 0.54463904215088732 -0.83867056331134215 0.5 0 0 1 I I 0 1 0.5 forward I I I I #
face $-1 $102 $103 $35 $-1 $104 forward single #
loop $-1 $105 $106 $45 #
cone-surface $-1 -4.3150373692828197 -18.792423368149642 3.8443513135257805 0 0.54463904215088732 -0.83867056331134215 0.5 0 0 1 I I 0 1 0.5 forward I I I I #
face $-1 $107 $108 $36 $-1 $109 reversed single #
loop $-1 $-1 $110 $46 #
plane-surface $-1 10.605598265149611 -68.534295928650849 72.589596326769865 1 0 0 0 0.54463904215088732 -0.83867056331134215 forward_v I I I I #
face $-1 $111 $112 $37 $-1 $113 forward single #
loop $-1 $114 $115 $47 #
cone-surface $-1 12.348651951812997 -18.792423368149642 3.8443513135257805 0 0.54463904215088732 -0.83867056331134215 0.5 0 0 1 I I 0 1 0.5 forward I I I I #
face $-1 $116 $117 $38 $-1 $118 forward single #
loop $-1 $119 $120 $48 #
cone-surface $-1 14.963232481808078 -18.792423368149642 3.8443513135257805 0 0.54463904215088732 -0.83867056331134215 0.5 0 0 1 I I 0 1 0.5 forward I I I I #
face $-1 $121 $122 $39 $-1 $123 forward single #
loop $-1 $124 $125 $49 #
cone-surface $-1 17.577813011803158 -18.792423368149642 3.8443513135257805 0 0.54463904215088732 -0.83867056331134215 0.5 0 0 1 I I 0 1 0.5 forward I I I I #
face $-1 $126 $127 $30 $-1 $128 reversed single #
loop $-1 $-1 $129 $50 #
plane-surface $-1 0 0 -6.7154603269128801 0 0 1 1 0 0 forward_v I I I I #
coedge $-1 $130 $131 $132 $133 forward $51 $-1 #
face $-1 $134 $135 $31 $-1 $136 reversed single #
loop $-1 $-1 $137 $53 #
plane-surface $-1 -38.032815805142882 0 -4.3491743077170986 0 0 1 1 0 0 forward_v I I I I #
coedge $-1 $138 $139 $140 $141 forward $54 $-1 #
face $-1 $142 $143 $32 $-1 $144 reversed single #
loop $-1 $-1 $145 $56 #
plane-surface $-1 -6.9296178992779005 -22.730563036583916 2.058034148181676 0 -0.54463904215088732 0.83867056331134215 1 0 0 forward_v I I I I #
coedge $-1 $146 $147 $148 $149 reversed $57 $-1 #
face $-1 $-1 $150 $33 $-1 $151 forward single #
loop $-1 $152 $153 $59 #
cone-surface $-1 -9.5441984292729813 -18.304027569471703 3.0922877486764504 0 0.54463904215088732 -0.83867056331134215 0.25 0 0 1 I I -0.70710678118654746 0.70710678118654746 0.25 forward I I I I #
loop $-1 $-1 $154 $43 #
coedge $-1 $96 $96 $155 $156 reversed $60 $-1 #
face $-1 $-1 $157 $34 $-1 $158 forward single #
loop $-1 $159 $160 $62 #
cone-surface $-1 -6.9296178992779005 -18.304027569471703 3.0922877486764504 0 0.54463904215088732 -0.83867056331134215 0.25 0 0 1 I I -0.70710678118654746 0.70710678118654746 0.25 forward I I I I #
loop $-1 $-1 $161 $44 #
coedge $-1 $101 $101 $162 $163 reversed $63 $-1 #
face $-1 $-1 $164 $35 $-1 $165 forward single #
loop $-1 $166 $167 $65 #
cone-surface $-1 -4.3150373692828197 -18.304027569471703 3.0922877486764504 0 0.54463904215088732 -0.83867056331134215 0.25 0 0 1 I I -0.70710678118654746 0.70710678118654746 0.25 forward I I I I #
loop $-1 $-1 $168 $45 #
coedge $-1 $106 $106 $169 $170 reversed $66 $-1 #
face $-1 $171 $172 $36 $-1 $173 reversed single #
loop $-1 $-1 $174 $68 #
plane-surface $-1 14.963232481808078 -22.730563036583916 2.058034148181676 0 -0.54463904215088732 0.83867056331134215 1 0 0 forward_v I I I I #
coedge $-1 $175 $176 $177 $178 reversed $69 $-1 #
face $-1 $-1 $179 $37 $-1 $180 forward single #
loop $-1 $181 $182 $71 #
cone-surface $-1 12.348651951812997 -18.304027569471703 3.0922877486764504 0 0.54463904215088732 -0.83867056331134215 0.25 0 0 1 I I -0.70710678118654746 0.70710678118654746 0.25 forward I I I I #
loop $-1 $-1 $183 $47 #
coedge $-1 $115 $115 $184 $185 reversed $72 $-1 #
face $-1 $-1 $186 $38 $-1 $187 forward single #
loop $-1 $188 $189 $74 #
cone-surface $-1 14.963232481808078 -18.304027569471703 3.0922877486764504 0 0.54463904215088732 -0.83867056331134215 0.25 0 0 1 I I -0.70710678118654746 0.70710678118654746 0.25 forward I I I I #
loop $-1 $-1 $190 $48 #
coedge $-1 $120 $120 $191 $192 reversed $75 $-1 #
face $-1 $-1 $193 $39 $-1 $194 forward single #
loop $-1 $195 $196 $77 #
cone-surface $-1 17.577813011803158 -18.304027569471703 3.0922877486764504 0 0.54463904215088732 -0.83867056331134215 0.25 0 0 1 I I -0.70710678118654746 0.70710678118654746 0.25 forward I I I I #
loop $-1 $-1 $197 $49 #
coedge $-1 $125 $125 $198 $199 reversed $78 $-1 #
face $-1 $200 $201 $30 $-1 $202 reversed single #
loop $-1 $-1 $203 $80 #
plane-surface $-1 0 -22.730563036583924 0 0 1 0 0 0 1 forward_v I I I I #
coedge $-1 $204 $205 $206 $207 forward $81 $-1 #
coedge $-1 $208 $83 $209 $210 forward $51 $-1 #
coedge $-1 $83 $208 $211 $212 forward $51 $-1 #
coedge $-1 $213 $214 $83 $133 reversed $215 $-1 #
edge $-1 $216 -22.730563036583924 $217 22.730563036583924 $132 $218 forward 7 unknown #
face $-1 $219 $220 $31 $-1 $221 reversed single #
loop $-1 $-1 $222 $84 #
plane-surface $-1 -34.016008513877793 0 -2.4193018089111309 -1 0 0 0 0 1 forward_v I I I I #
coedge $-1 $223 $224 $225 $226 forward $85 $-1 #
coedge $-1 $227 $87 $228 $229 reversed $54 $-1 #
coedge $-1 $87 $227 $230 $231 reversed $54 $-1 #
coedge $-1 $222 $232 $87 $141 reversed $135 $-1 #
edge $-1 $233 -22.730563036583924 $234 22.730563036583924 $140 $235 forward 7 unknown #
face $-1 $236 $237 $32 $-1 $238 forward single #
loop $-1 $-1 $239 $88 #
plane-surface $-1 -2.5719836826194342 -68.534295928650849 72.589596326769865 -1 0 0 0 -0.54463904215088732 0.83867056331134215 forward_v I I I I #
coedge $-1 $240 $241 $242 $243 reversed $89 $-1 #
coedge $-1 $147 $91 $244 $245 reversed $57 $-1 #
coedge $-1 $91 $146 $240 $246 reversed $57 $-1 #
coedge $-1 $242 $247 $91 $149 forward $248 $-1 #
edge $-1 $249 29.579337836472053 $250 34.236764015203264 $148 $251 forward 7 unknown #
loop $-1 $-1 $155 $92 #
plane-surface $-1 -6.9296178992779005 -22.730563036583916 2.058034148181676 0 -0.54463904215088732 0.83867056331134215 1 0 0 forward_v I I I I #
loop $-1 $-1 $252 $59 #
coedge $-1 $153 $153 $154 $253 reversed $93 $-1 #
coedge $-1 $154 $154 $153 $253 forward $95 $-1 #
coedge $-1 $155 $155 $96 $156 forward $150 $-1 #
edge $-1 $254 -1.93494657505826e-015 $254 6.2831853071795987 $155 $255 forward 7 unknown #
loop $-1 $-1 $162 $97 #
plane-surface $-1 -6.9296178992779005 -22.730563036583916 2.058034148181676 0 -0.54463904215088732 0.83867056331134215 1 0 0 forward_v I I I I #
loop $-1 $-1 $256 $62 #
coedge $-1 $160 $160 $161 $257 reversed $98 $-1 #
coedge $-1 $161 $161 $160 $257 forward $100 $-1 #
coedge $-1 $162 $162 $101 $163 forward $157 $-1 #
edge $-1 $258 -1.93494657505826e-015 $258 6.2831853071795987 $162 $259 forward 7 unknown #
loop $-1 $-1 $169 $102 #
plane-surface $-1 -6.9296178992779005 -22.730563036583916 2.058034148181676 0 -0.54463904215088732 0.83867056331134215 1 0 0 forward_v I I I I #
loop $-1 $-1 $260 $65 #
coedge $-1 $167 $167 $168 $261 reversed $103 $-1 #
coedge $-1 $168 $168 $167 $261 forward $105 $-1 #
coedge $-1 $169 $169 $106 $170 forward $164 $-1 #
edge $-1 $262 -1.93494657505826e-015 $262 6.2831853071795987 $169 $263 forward 7 unknown #
face $-1 $264 $265 $36 $-1 $266 reversed single #
loop $-1 $-1 $267 $107 #
plane-surface $-1 19.320866698466546 -68.534295928650849 72.589596326769865 -1 0 0 0 -0.54463904215088732 0.83867056331134215 forward_v I I I I #
coedge $-1 $268 $269 $270 $271 reversed $108 $-1 #
coedge $-1 $176 $110 $272 $273 reversed $69 $-1 #
coedge $-1 $110 $175 $268 $274 reversed $69 $-1 #
coedge $-1 $270 $275 $110 $178 forward $265 $-1 #
edge $-1 $276 29.579337836472053 $277 34.236764015203264 $177 $278 forward 7 unknown #
loop $-1 $-1 $184 $111 #
plane-surface $-1 14.963232481808078 -22.730563036583916 2.058034148181676 0 -0.54463904215088732 0.83867056331134215 1 0 0 forward_v I I I I #
loop $-1 $-1 $279 $71 #
coedge $-1 $182 $182 $183 $280 reversed $112 $-1 #
coedge $-1 $183 $183 $182 $280 forward $114 $-1 #
coedge $-1 $184 $184 $115 $185 forward $179 $-1 #
edge $-1 $281 -1.93494657505826e-015 $281 6.2831853071795987 $184 $282 forward 7 unknown #
loop $-1 $-1 $191 $116 #
plane-surface $-1 14.963232481808078 -22.730563036583916 2.058034148181676 0 -0.54463904215088732 0.83867056331134215 1 0 0 forward_v I I I I #
loop $-1 $-1 $283 $74 #
coedge $-1 $189 $189 $190 $284 reversed $117 $-1 #
coedge $-1 $190 $190 $189 $284 forward $119 $-1 #
coedge $-1 $191 $191 $120 $192 forward $186 $-1 #
edge $-1 $285 -1.93494657505826e-015 $285 6.2831853071795987 $191 $286 forward 7 unknown #
loop $-1 $-1 $198 $121 #
plane-surface $-1 14.963232481808078 -22.730563036583916 2.058034148181676 0 -0.54463904215088732 0.83867056331134215 1 0 0 forward_v I I I I #
loop $-1 $-1 $287 $77 #
coedge $-1 $196 $196 $197 $288 reversed $122 $-1 #
coedge $-1 $197 $197 $196 $288 forward $124 $-1 #
coedge $-1 $198 $198 $125 $199 forward $193 $-1 #
edge $-1 $289 -1.93494657505826e-015 $289 6.2831853071795987 $198 $290 forward 7 unknown #
face $-1 $291 $292 $30 $-1 $293 reversed single #
loop $-1 $-1 $294 $126 #
plane-surface $-1 -42.04962309640797 0 0 1 0 0 0 0 -1 forward_v I I I I #
coedge $-1 $295 $211 $296 $297 forward $127 $-1 #
coedge $-1 $298 $129 $295 $299 forward $81 $-1 #
coedge $-1 $129 $298 $300 $301 forward $81 $-1 #
coedge $-1 $214 $213 $129 $207 reversed $215 $-1 #
edge $-1 $302 -22.730563036583924 $303 22.730563036583924 $206 $304 forward 7 unknown #
coedge $-1 $131 $130 $305 $306 forward $51 $-1 #
coedge $-1 $307 $308 $130 $210 reversed $292 $-1 #
edge $-1 $217 -42.04962309640797 $309 42.04962309640797 $209 $310 forward 7 unknown #
coedge $-1 $203 $311 $131 $212 reversed $127 $-1 #
edge $-1 $312 -42.04962309640797 $216 42.04962309640797 $211 $313 forward 7 unknown #
coedge $-1 $206 $132 $311 $314 forward $215 $-1 #
coedge $-1 $132 $206 $307 $315 reversed $215 $-1 #
loop $-1 $-1 $213 $291 #
vertex $-1 $133 $316 #
vertex $-1 $133 $317 #
straight-curve $-1 42.04962309640797 0 6.7154603269128801 0 1 0 I I #
face $-1 $318 $319 $31 $-1 $320 reversed single #
loop $-1 $-1 $321 $134 #
plane-surface $-1 0 -22.730563036583924 0 0 1 0 0 0 1 forward_v I I I I #
coedge $-1 $225 $140 $322 $323 reversed $135 $-1 #
coedge $-1 $324 $137 $321 $325 reversed $85 $-1 #
coedge $-1 $137 $324 $326 $327 reversed $85 $-1 #
coedge $-1 $232 $222 $137 $226 reversed $135 $-1 #
edge $-1 $328 -22.730563036583924 $329 22.730563036583924 $225 $330 forward 7 unknown #
coedge $-1 $139 $138 $331 $332 reversed $54 $-1 #
coedge $-1 $333 $334 $138 $229 forward $335 $-1 #
edge $-1 $336 -23.033215193836529 $234 -14.999600611306352 $228 $337 forward 7 unknown #
coedge $-1 $338 $322 $139 $231 forward $220 $-1 #
edge $-1 $233 14.999600611306352 $339 23.033215193836529 $230 $340 forward 7 unknown #
coedge $-1 $140 $225 $333 $341 reversed $135 $-1 #
vertex $-1 $231 $342 #
vertex $-1 $229 $343 #
straight-curve $-1 -34.016008513877793 0 -0.48942931010516344 0 1 0 I I #
face $-1 $-1 $248 $32 $-1 $344 reversed single #
loop $-1 $-1 $345 $142 #
plane-surface $-1 0 0 6.7154603269128801 0 0 1 1 0 0 forward_v I I I I #
coedge $-1 $346 $347 $348 $349 reversed $143 $-1 #
coedge $-1 $350 $145 $147 $246 forward $89 $-1 #
coedge $-1 $145 $350 $346 $351 forward $89 $-1 #
coedge $-1 $348 $148 $145 $243 forward $248 $-1 #
edge $-1 $250 -7.8224431662974165 $352 0.89282526701951603 $242 $353 forward 7 unknown #
coedge $-1 $354 $355 $146 $245 forward $237 $-1 #
edge $-1 $356 -18.708392188329626 $249 -11.536584927741501 $244 $357 forward 7 unknown #
edge $-1 $250 -8.3777959833898778e-015 $356 8.5513997680704392 $147 $358 forward 7 unknown #
coedge $-1 $148 $348 $354 $359 reversed $248 $-1 #
loop $-1 $-1 $348 $236 #
vertex $-1 $359 $360 #
vertex $-1 $149 $361 #
straight-curve $-1 -11.287252115936367 -22.730563036583924 36.294798163384932 0 0 -1 I I #
coedge $-1 $252 $252 $-1 $362 reversed $152 $-1 #
edge $-1 $363 0 $363 6.2831853071796004 $153 $364 forward 7 unknown #
vertex $-1 $156 $365 #
ellipse-curve $-1 -9.5441984292729813 -19.144659406289861 4.3867472375472767 0 -0.54463904215088732 0.83867056331134215 0.5 0 0 1 I I #
coedge $-1 $256 $256 $-1 $366 reversed $159 $-1 #
edge $-1 $367 0 $367 6.2831853071796004 $160 $368 forward 7 unknown #
vertex $-1 $163 $369 #
ellipse-curve $-1 -6.9296178992779005 -19.144659406289861 4.3867472375472767 0 -0.54463904215088732 0.83867056331134215 0.5 0 0 1 I I #
coedge $-1 $260 $260 $-1 $370 reversed $166 $-1 #
edge $-1 $371 0 $371 6.2831853071796004 $167 $372 forward 7 unknown #
vertex $-1 $170 $373 #
ellipse-curve $-1 -4.3150373692828197 -19.144659406289861 4.3867472375472767 0 -0.54463904215088732 0.83867056331134215 0.5 0 0 1 I I #
face $-1 $-1 $374 $36 $-1 $375 forward single #
loop $-1 $-1 $177 $171 #
plane-surface $-1 0 -22.730563036583924 0 0 1 0 0 0 1 forward_v I I I I #
coedge $-1 $376 $377 $378 $379 reversed $172 $-1 #
coedge $-1 $380 $174 $176 $274 forward $108 $-1 #
coedge $-1 $174 $380 $376 $381 forward $108 $-1 #
coedge $-1 $378 $177 $174 $271 forward $265 $-1 #
edge $-1 $277 3.1239820242455725 $382 11.839250457562507 $270 $383 forward 7 unknown #
coedge $-1 $384 $385 $175 $273 forward $374 $-1 #
edge $-1 $386 -18.708392188329626 $276 -11.536584927741501 $272 $387 forward 7 unknown #
edge $-1 $277 -8.3777959833898778e-015 $386 8.5513997680704392 $176 $388 forward 7 unknown #
coedge $-1 $177 $378 $384 $389 reversed $265 $-1 #
vertex $-1 $389 $390 #
vertex $-1 $178 $391 #
straight-curve $-1 10.605598265149611 -22.730563036583924 36.294798163384932 0 0 -1 I I #
coedge $-1 $279 $279 $-1 $392 reversed $181 $-1 #
edge $-1 $393 0 $393 6.2831853071796004 $182 $394 forward 7 unknown #
vertex $-1 $185 $395 #
ellipse-curve $-1 12.348651951812997 -19.144659406289861 4.3867472375472767 0 -0.54463904215088732 0.83867056331134215 0.5 0 0 1 I I #
coedge $-1 $283 $283 $-1 $396 reversed $188 $-1 #
edge $-1 $397 0 $397 6.2831853071796004 $189 $398 forward 7 unknown #
vertex $-1 $192 $399 #
ellipse-curve $-1 14.963232481808078 -19.144659406289861 4.3867472375472767 0 -0.54463904215088732 0.83867056331134215 0.5 0 0 1 I I #
coedge $-1 $287 $287 $-1 $400 reversed $195 $-1 #
edge $-1 $401 0 $401 6.2831853071796004 $196 $402 forward 7 unknown #
vertex $-1 $199 $403 #
ellipse-curve $-1 17.577813011803158 -19.144659406289861 4.3867472375472767 0 -0.54463904215088732 0.83867056331134215 0.5 0 0 1 I I #
face $-1 $-1 $215 $30 $-1 $404 reversed single #
loop $-1 $-1 $307 $200 #
plane-surface $-1 0 22.730563036583924 0 0 -1 0 0 0 -1 forward_v I I I I #
coedge $-1 $405 $305 $308 $406 forward $201 $-1 #
coedge $-1 $311 $203 $204 $299 reversed $127 $-1 #
coedge $-1 $305 $405 $203 $297 reversed $201 $-1 #
edge $-1 $312 -6.7154603269128801 $407 6.7154603269128801 $296 $408 forward 7 unknown #
coedge $-1 $205 $204 $405 $409 forward $81 $-1 #
edge $-1 $303 -42.04962309640797 $407 42.04962309640797 $295 $410 forward 7 unknown #
coedge $-1 $308 $307 $205 $301 reversed $292 $-1 #
edge $-1 $411 -42.04962309640797 $302 42.04962309640797 $300 $412 forward 7 unknown #
vertex $-1 $207 $413 #
vertex $-1 $314 $414 #
straight-curve $-1 42.04962309640797 0 -6.7154603269128801 0 -1 0 I I #
coedge $-1 $294 $296 $208 $306 reversed $201 $-1 #
edge $-1 $309 -22.730563036583924 $312 22.730563036583924 $305 $415 forward 7 unknown #
coedge $-1 $300 $209 $214 $315 forward $292 $-1 #
coedge $-1 $209 $300 $294 $406 reversed $292 $-1 #
vertex $-1 $210 $416 #
straight-curve $-1 0 22.730563036583924 6.7154603269128801 -1 0 0 I I #
coedge $-1 $211 $295 $213 $314 reversed $127 $-1 #
vertex $-1 $306 $417 #
straight-curve $-1 0 -22.730563036583924 6.7154603269128801 1 0 0 I I #
edge $-1 $216 -6.7154603269128801 $303 6.7154603269128801 $213 $418 forward 7 unknown #
edge $-1 $217 -6.7154603269128801 $302 6.7154603269128801 $214 $419 forward 7 unknown #
point $-1 42.04962309640797 -22.730563036583924 6.7154603269128801 #
point $-1 42.04962309640797 22.730563036583924 6.7154603269128801 #
face $-1 $-1 $335 $31 $-1 $420 reversed single #
loop $-1 $-1 $421 $219 #
plane-surface $-1 -42.04962309640797 0 0 1 0 0 0 0 -1 forward_v I I I I #
coedge $-1 $322 $338 $223 $325 forward $220 $-1 #
coedge $-1 $230 $321 $222 $323 forward $220 $-1 #
edge $-1 $329 -3.1395234032615331 $233 0.72022159435040201 $322 $422 forward 7 unknown #
coedge $-1 $224 $223 $421 $423 reversed $85 $-1 #
edge $-1 $424 -23.033215193836529 $329 -14.999600611306352 $321 $425 forward 7 unknown #
coedge $-1 $334 $333 $224 $327 forward $335 $-1 #
edge $-1 $328 14.999600611306352 $426 23.033215193836529 $326 $427 forward 7 unknown #
vertex $-1 $327 $428 #
vertex $-1 $325 $429 #
straight-curve $-1 -34.016008513877793 0 -4.3491743077170986 0 -1 0 I I #
coedge $-1 $430 $431 $227 $332 forward $319 $-1 #
edge $-1 $339 -22.730563036583924 $336 22.730563036583924 $331 $432 forward 7 unknown #
coedge $-1 $326 $228 $232 $341 forward $335 $-1 #
coedge $-1 $228 $326 $430 $433 reversed $335 $-1 #
loop $-1 $-1 $326 $318 #
vertex $-1 $433 $434 #
straight-curve $-1 -19.016407902571441 22.730563036583924 -0.48942931010516344 1 0 0 I I #
coedge $-1 $321 $230 $431 $435 forward $220 $-1 #
vertex $-1 $435 $436 #
straight-curve $-1 -19.016407902571441 -22.730563036583924 -0.48942931010516344 -1 0 0 I I #
edge $-1 $234 -0.72022159435040201 $328 3.1395234032615331 $333 $437 forward 7 unknown #
point $-1 -34.016008513877793 -22.730563036583924 -0.48942931010516344 #
point $-1 -34.016008513877793 22.730563036583924 -0.48942931010516344 #
plane-surface $-1 0 -22.730563036583924 0 0 1 0 0 0 1 forward_v I I I I #
coedge $-1 $355 $354 $347 $438 forward $237 $-1 #
coedge $-1 $347 $239 $241 $351 reversed $143 $-1 #
coedge $-1 $239 $346 $345 $438 reversed $143 $-1 #
coedge $-1 $247 $242 $239 $349 forward $248 $-1 #
edge $-1 $352 -34.236764015203264 $439 -29.579337836472053 $348 $440 forward 7 unknown #
coedge $-1 $241 $240 $355 $441 reversed $89 $-1 #
edge $-1 $442 -8.5513997680704392 $352 8.3777959833898778e-015 $346 $443 forward 7 unknown #
vertex $-1 $243 $444 #
straight-curve $-1 -3.4648089496389503 -22.730563036583924 2.0580341481816702 1 0 0 I I #
coedge $-1 $345 $244 $247 $359 forward $237 $-1 #
coedge $-1 $244 $345 $350 $441 forward $237 $-1 #
vertex $-1 $245 $445 #
straight-curve $-1 -11.287252115936367 -34.267147964325424 6.7154603269128827 0 -1 0 I I #
straight-curve $-1 -11.287252115936367 -22.730563036583916 2.058034148181676 0 0.83867056331134215 0.54463904215088732 I I #
edge $-1 $249 -11.287252115936367 $439 -2.5719836826194342 $247 $446 forward 7 unknown #
point $-1 -11.287252115936367 -22.730563036583924 6.7154603269128801 #
point $-1 -11.287252115936367 -22.730563036583924 2.0580341481816715 #
edge $-1 $447 1 $447 0 $252 $-1 forward 7 unknown #
vertex $-1 $253 $448 #
ellipse-curve $-1 -9.5441984292729813 -18.440187330009426 3.3019553895042861 0 -0.54463904215088732 0.83867056331134215 0.5 0 0 1 I I #
point $-1 -9.0441984292729813 -19.144659406289861 4.3867472375472749 #
edge $-1 $449 1 $449 0 $256 $-1 forward 7 unknown #
vertex $-1 $257 $450 #
ellipse-curve $-1 -6.9296178992779005 -18.440187330009426 3.3019553895042861 0 -0.54463904215088732 0.83867056331134215 0.5 0 0 1 I I #
point $-1 -6.4296178992779005 -19.144659406289861 4.3867472375472749 #
edge $-1 $451 1 $451 0 $260 $-1 forward 7 unknown #
vertex $-1 $261 $452 #
ellipse-curve $-1 -4.3150373692828197 -18.440187330009426 3.3019553895042861 0 -0.54463904215088732 0.83867056331134215 0.5 0 0 1 I I #
point $-1 -3.8150373692828197 -19.144659406289861 4.3867472375472749 #
loop $-1 $-1 $272 $264 #
plane-surface $-1 0 0 6.7154603269128801 0 0 1 1 0 0 forward_v I I I I #
coedge $-1 $377 $267 $269 $381 reversed $172 $-1 #
coedge $-1 $267 $376 $453 $454 reversed $172 $-1 #
coedge $-1 $275 $270 $267 $379 forward $265 $-1 #
edge $-1 $382 -34.236764015203264 $455 -29.579337836472053 $378 $456 forward 7 unknown #
coedge $-1 $269 $268 $385 $457 reversed $108 $-1 #
edge $-1 $458 -8.5513997680704392 $382 8.3777959833898778e-015 $376 $459 forward 7 unknown #
vertex $-1 $271 $460 #
straight-curve $-1 7.4816162409040388 -22.730563036583924 2.0580341481816702 1 0 0 I I #
coedge $-1 $453 $272 $275 $389 forward $374 $-1 #
coedge $-1 $272 $453 $380 $457 forward $374 $-1 #
vertex $-1 $273 $461 #
straight-curve $-1 10.605598265149611 -34.267147964325424 6.7154603269128827 0 -1 0 I I #
straight-curve $-1 10.605598265149611 -22.730563036583916 2.058034148181676 0 0.83867056331134215 0.54463904215088732 I I #
edge $-1 $276 10.605598265149611 $455 19.320866698466546 $275 $462 forward 7 unknown #
point $-1 10.605598265149611 -22.730563036583924 6.7154603269128801 #
point $-1 10.605598265149611 -22.730563036583924 2.0580341481816715 #
edge $-1 $463 1 $463 0 $279 $-1 forward 7 unknown #
vertex $-1 $280 $464 #
ellipse-curve $-1 12.348651951812997 -18.440187330009426 3.3019553895042861 0 -0.54463904215088732 0.83867056331134215 0.5 0 0 1 I I #
point $-1 12.848651951812997 -19.144659406289861 4.3867472375472749 #
edge $-1 $465 1 $465 0 $283 $-1 forward 7 unknown #
vertex $-1 $284 $466 #
ellipse-curve $-1 14.963232481808078 -18.440187330009426 3.3019553895042861 0 -0.54463904215088732 0.83867056331134215 0.5 0 0 1 I I #
point $-1 15.463232481808078 -19.144659406289861 4.3867472375472749 #
edge $-1 $467 1 $467 0 $287 $-1 forward 7 unknown #
vertex $-1 $288 $468 #
ellipse-curve $-1 17.577813011803158 -18.440187330009426 3.3019553895042861 0 -0.54463904215088732 0.83867056331134215 0.5 0 0 1 I I #
point $-1 18.077813011803158 -19.144659406289861 4.3867472375472749 #
plane-surface $-1 42.04962309640797 0 0 -1 0 0 0 0 1 forward_v I I I I #
coedge $-1 $296 $294 $298 $409 reversed $201 $-1 #
edge $-1 $309 -6.7154603269128801 $411 6.7154603269128801 $308 $469 forward 7 unknown #
vertex $-1 $409 $470 #
straight-curve $-1 -42.04962309640797 -22.730563036583924 0 0 0 -1 I I #
edge $-1 $407 -22.730563036583924 $411 22.730563036583924 $405 $471 forward 7 unknown #
straight-curve $-1 0 -22.730563036583924 -6.7154603269128801 -1 0 0 I I #
vertex $-1 $301 $472 #
straight-curve $-1 0 22.730563036583924 -6.7154603269128801 1 0 0 I I #
point $-1 42.04962309640797 22.730563036583924 -6.7154603269128801 #
point $-1 42.04962309640797 -22.730563036583924 -6.7154603269128801 #
straight-curve $-1 -42.04962309640797 0 6.7154603269128801 0 -1 0 I I #
point $-1 -42.04962309640797 22.730563036583924 6.7154603269128801 #
point $-1 -42.04962309640797 -22.730563036583924 6.7154603269128801 #
straight-curve $-1 42.04962309640797 -22.730563036583924 0 0 0 -1 I I #
straight-curve $-1 42.04962309640797 22.730563036583924 0 0 0 -1 I I #
plane-surface $-1 0 22.730563036583924 0 0 -1 0 0 0 -1 forward_v I I I I #
coedge $-1 $431 $430 $324 $423 forward $319 $-1 #
straight-curve $-1 -34.016008513877793 -22.730563036583924 -1.2096509044555654 0 0 1 I I #
edge $-1 $426 -22.730563036583924 $424 22.730563036583924 $421 $473 forward 7 unknown #
vertex $-1 $325 $474 #
straight-curve $-1 -19.016407902571441 -22.730563036583924 -4.3491743077170986 1 0 0 I I #
vertex $-1 $327 $475 #
straight-curve $-1 -19.016407902571441 22.730563036583924 -4.3491743077170986 -1 0 0 I I #
point $-1 -34.016008513877793 22.730563036583924 -4.3491743077170986 #
point $-1 -34.016008513877793 -22.730563036583924 -4.3491743077170986 #
coedge $-1 $421 $331 $334 $433 forward $319 $-1 #
coedge $-1 $331 $421 $338 $435 reversed $319 $-1 #
straight-curve $-1 -42.04962309640797 0 -0.48942931010516344 0 1 0 I I #
edge $-1 $336 0.48942931010516344 $426 4.3491743077170986 $334 $476 forward 7 unknown #
point $-1 -42.04962309640797 22.730563036583924 -0.48942931010516344 #
edge $-1 $339 0.48942931010516344 $424 4.3491743077170986 $431 $477 forward 7 unknown #
point $-1 -42.04962309640797 -22.730563036583924 -0.48942931010516344 #
straight-curve $-1 -34.016008513877793 22.730563036583924 -1.2096509044555654 0 0 -1 I I #
edge $-1 $439 11.536584927741501 $442 18.708392188329626 $345 $478 forward 7 unknown #
vertex $-1 $438 $479 #
straight-curve $-1 -2.5719836826194342 -22.730563036583924 36.294798163384932 0 0 1 I I #
edge $-1 $442 -0.89282526701951603 $356 7.8224431662974165 $355 $480 forward 7 unknown #
vertex $-1 $441 $481 #
straight-curve $-1 -2.5719836826194342 -22.730563036583916 2.058034148181676 0 -0.83867056331134215 -0.54463904215088732 I I #
point $-1 -2.5719836826194342 -22.730563036583924 2.0580341481816715 #
point $-1 -11.287252115936367 -15.558755775995801 6.7154603269128801 #
straight-curve $-1 0 -22.730563036583924 6.7154603269128801 1 0 0 I I #
vertex $-1 $362 $482 #
point $-1 -9.0441984292729813 -18.440187330009426 3.3019553895042861 #
vertex $-1 $366 $483 #
point $-1 -6.4296178992779005 -18.440187330009426 3.3019553895042861 #
vertex $-1 $370 $484 #
point $-1 -3.8150373692828197 -18.440187330009426 3.3019553895042861 #
coedge $-1 $385 $384 $377 $454 forward $374 $-1 #
edge $-1 $455 11.536584927741501 $458 18.708392188329626 $453 $485 forward 7 unknown #
vertex $-1 $454 $486 #
straight-curve $-1 19.320866698466546 -22.730563036583924 36.294798163384932 0 0 1 I I #
edge $-1 $458 -11.839250457562507 $386 -3.1239820242455725 $385 $487 forward 7 unknown #
vertex $-1 $457 $488 #
straight-curve $-1 19.320866698466546 -22.730563036583916 2.058034148181676 0 -0.83867056331134215 -0.54463904215088732 I I #
point $-1 19.320866698466546 -22.730563036583924 2.0580341481816715 #
point $-1 10.605598265149611 -15.558755775995801 6.7154603269128801 #
straight-curve $-1 0 -22.730563036583924 6.7154603269128801 1 0 0 I I #
vertex $-1 $392 $489 #
point $-1 12.848651951812997 -18.440187330009426 3.3019553895042861 #
vertex $-1 $396 $490 #
point $-1 15.463232481808078 -18.440187330009426 3.3019553895042861 #
vertex $-1 $400 $491 #
point $-1 18.077813011803158 -18.440187330009426 3.3019553895042861 #
straight-curve $-1 -42.04962309640797 22.730563036583924 0 0 0 -1 I I #
point $-1 -42.04962309640797 -22.730563036583924 -6.7154603269128801 #
straight-curve $-1 -42.04962309640797 0 -6.7154603269128801 0 1 0 I I #
point $-1 -42.04962309640797 22.730563036583924 -6.7154603269128801 #
straight-curve $-1 -42.04962309640797 0 -4.3491743077170986 0 -1 0 I I #
point $-1 -42.04962309640797 -22.730563036583924 -4.3491743077170986 #
point $-1 -42.04962309640797 22.730563036583924 -4.3491743077170986 #
straight-curve $-1 -42.04962309640797 22.730563036583924 0 0 0 -1 I I #
straight-curve $-1 -42.04962309640797 -22.730563036583924 0 0 0 -1 I I #
straight-curve $-1 -2.5719836826194342 -34.267147964325424 6.7154603269128827 0 1 0 I I #
point $-1 -2.5719836826194342 -22.730563036583924 6.7154603269128801 #
straight-curve $-1 -3.4648089496389503 -15.558755775995799 6.7154603269128801 -1 0 0 I I #
point $-1 -2.5719836826194342 -15.558755775995801 6.7154603269128801 #
point $-1 -9.5441984292729813 -18.16786780893398 2.8826201078486147 #
point $-1 -6.9296178992779005 -18.16786780893398 2.8826201078486147 #
point $-1 -4.3150373692828197 -18.16786780893398 2.8826201078486147 #
straight-curve $-1 19.320866698466546 -34.267147964325424 6.7154603269128827 0 1 0 I I #
point $-1 19.320866698466546 -22.730563036583924 6.7154603269128801 #
straight-curve $-1 7.4816162409040388 -15.558755775995799 6.7154603269128801 -1 0 0 I I #
point $-1 19.320866698466546 -15.558755775995801 6.7154603269128801 #
point $-1 12.348651951812997 -18.16786780893398 2.8826201078486147 #
point $-1 14.963232481808078 -18.16786780893398 2.8826201078486147 #
point $-1 17.577813011803158 -18.16786780893398 2.8826201078486147 #
End-of-ACIS-data 