500 0 7 0           
7 Unknown 11 ACIS 5.0 NT 24 Thu Mar 25 18:48:33 1999 
-1 9.9999999999999995e-007 1e-010 
body $-1 $7 $-1 $8 #
body $-1 $9 $-1 $10 #
body $-1 $11 $-1 $12 #
body $-1 $13 $-1 $14 #
body $-1 $15 $-1 $16 #
body $-1 $17 $-1 $18 #
body $-1 $19 $-1 $20 #
lump $-1 $-1 $21 $0 #
transform $-1 1 0 0 0 1 0 0 0 1 75.513779107028412 43.485354189469298 20.267994469674733 1 rotate no_reflect no_shear #
lump $-1 $-1 $22 $1 #
transform $-1 1 0 0 0 1 0 0 0 1 75.513779107028412 43.485354189469298 20.267994469674733 1 rotate no_reflect no_shear #
lump $-1 $-1 $23 $2 #
transform $-1 1 0 0 0 1 0 0 0 1 75.513779107028412 43.485354189469298 20.267994469674733 1 rotate no_reflect no_shear #
lump $-1 $-1 $24 $3 #
transform $-1 1 0 0 0 1 0 0 0 1 75.513779107028412 43.485354189469298 20.267994469674733 1 rotate no_reflect no_shear #
lump $-1 $-1 $25 $4 #
transform $-1 1 0 0 0 1 0 0 0 1 75.513779107028412 43.485354189469298 20.267994469674733 1 rotate no_reflect no_shear #
lump $-1 $-1 $26 $5 #
transform $-1 1 0 0 0 1 0 0 0 1 75.513779107028412 43.485354189469298 20.267994469674733 1 rotate no_reflect no_shear #
lump $-1 $-1 $27 $6 #
transform $-1 1 0 0 0 1 0 0 0 1 75.513779107028412 43.485354189469298 20.267994469674733 1 rotate no_reflect no_shear #
shell $-1 $-1 $-1 $28 $-1 $7 #
shell $-1 $-1 $-1 $29 $-1 $9 #
shell $-1 $-1 $-1 $30 $-1 $11 #
shell $-1 $-1 $-1 $31 $-1 $13 #
shell $-1 $-1 $-1 $32 $-1 $15 #
shell $-1 $-1 $-1 $33 $-1 $17 #
shell $-1 $-1 $-1 $34 $-1 $19 #
face $-1 $35 $36 $21 $-1 $37 reversed single #
face $-1 $38 $39 $22 $-1 $40 forward single #
face $-1 $41 $42 $23 $-1 $43 reversed single #
face $-1 $44 $45 $24 $-1 $46 forward single #
face $-1 $47 $48 $25 $-1 $49 forward single #
face $-1 $50 $51 $26 $-1 $52 reversed single #
face $-1 $53 $54 $27 $-1 $55 forward single #
face $-1 $56 $57 $21 $-1 $58 forward single #
loop $-1 $-1 $59 $28 #
plane-surface $-1 0 -43.485354189469298 0 0 1 0 0 0 1 forward_v I I I I #
face $-1 $60 $61 $22 $-1 $62 reversed single #
loop $-1 $-1 $63 $29 #
plane-surface $-1 0 -43.485354189469298 0 0 1 0 0 0 1 forward_v I I I I #
face $-1 $64 $65 $23 $-1 $66 reversed single #
loop $-1 $-1 $67 $30 #
plane-surface $-1 68.059764753455241 -8.1098883094197731 221.10758278412365 0 -1 0 -0.68199836817093118 0 -0.7313536940579346 forward_v I I I I #
face $-1 $68 $69 $24 $-1 $70 forward single #
loop $-1 $71 $72 $31 #
cone-surface $-1 65.919693948709011 -22.29983945973412 10.925601941122324 -0.68199836817093118 0 -0.7313536940579346 1.8283842351448365 0 -1.7049959204273279 1 I I 0 1 2.5 forward I I I I #
face $-1 $73 $74 $25 $-1 $75 forward single #
loop $-1 $76 $77 $32 #
cone-surface $-1 65.919693948709011 -13.785868769545512 10.925601941122324 -0.68199836817093118 0 -0.7313536940579346 1.8283842351448365 0 -1.7049959204273279 1 I I 0 1 2.5 forward I I I I #
face $-1 $78 $79 $26 $-1 $80 reversed single #
loop $-1 $-1 $81 $33 #
plane-surface $-1 -172.59242344143092 -27.975819919859859 132.66459088876226 0 1 0 -0.64278761758704617 0 0.76604443648966558 forward_v I I I I #
face $-1 $82 $83 $27 $-1 $84 forward single #
loop $-1 $85 $86 $34 #
cone-surface $-1 -72.812512621408189 -18.993939597872291 17.741623552878231 0.64278761758704617 0 -0.76604443648966558 0.76604443648966558 0 0.64278761758704617 1 I I 0 1 1 forward I I I I #
face $-1 $87 $88 $21 $-1 $89 reversed single #
loop $-1 $-1 $90 $35 #
plane-surface $-1 0 0 20.267994469674733 0 0 1 1 0 0 forward_v I I I I #
coedge $-1 $91 $92 $93 $94 reversed $36 $-1 #
face $-1 $95 $96 $22 $-1 $97 reversed single #
loop $-1 $-1 $98 $38 #
plane-surface $-1 0 0 -20.267994469674733 0 0 1 1 0 0 forward_v I I I I #
coedge $-1 $99 $100 $101 $102 forward $39 $-1 #
face $-1 $103 $104 $23 $-1 $105 reversed single #
loop $-1 $-1 $106 $41 #
plane-surface $-1 -34.940783497371825 -18.042854114639816 110.65302017972343 0.68199836817093118 0 0.7313536940579346 0.7313536940579346 0 -0.68199836817093118 forward_v I I I I #
coedge $-1 $107 $108 $109 $110 reversed $42 $-1 #
face $-1 $-1 $111 $24 $-1 $112 forward single #
loop $-1 $113 $114 $44 #
cone-surface $-1 62.237356496491813 -22.29983945973412 6.976778565386681 -0.68199836817093118 0 -0.7313536940579346 0.91419211757241825 0 -0.85249796021366397 1 I I -0.70710678118654746 0.70710678118654746 1.25 forward I I I I #
loop $-1 $-1 $115 $31 #
coedge $-1 $72 $72 $116 $117 reversed $45 $-1 #
face $-1 $-1 $118 $25 $-1 $119 forward single #
loop $-1 $120 $121 $47 #
cone-surface $-1 62.237356496491813 -13.785868769545512 6.976778565386681 -0.68199836817093118 0 -0.7313536940579346 0.91419211757241825 0 -0.85249796021366397 1 I I -0.70710678118654746 0.70710678118654746 1.25 forward I I I I #
loop $-1 $-1 $122 $32 #
coedge $-1 $77 $77 $123 $124 reversed $48 $-1 #
face $-1 $125 $126 $26 $-1 $127 reversed single #
loop $-1 $-1 $128 $50 #
plane-surface $-1 -75.513779107028412 -18.993939597872288 16.970770162264941 -0.64278761758704617 0 0.76604443648966558 0.76604443648966558 0 0.64278761758704617 forward_v I I I I #
coedge $-1 $129 $130 $131 $132 reversed $51 $-1 #
face $-1 $-1 $133 $27 $-1 $134 forward single #
loop $-1 $135 $136 $53 #
cone-surface $-1 -71.754591742815336 -18.993939597872291 16.480842571541785 0.64278761758704617 0 -0.76604443648966558 0.38302221824483279 0 0.32139380879352308 1 I I -0.70710678118654746 0.70710678118654746 0.5 forward I I I I #
loop $-1 $-1 $137 $34 #
coedge $-1 $86 $86 $138 $139 reversed $54 $-1 #
face $-1 $140 $141 $21 $-1 $142 reversed single #
loop $-1 $-1 $143 $56 #
plane-surface $-1 0 0 -20.267994469674733 0 0 1 1 0 0 forward_v I I I I #
coedge $-1 $144 $145 $146 $147 forward $57 $-1 #
coedge $-1 $148 $59 $149 $150 reversed $36 $-1 #
coedge $-1 $59 $148 $151 $152 forward $36 $-1 #
coedge $-1 $153 $143 $59 $94 forward $88 $-1 #
edge $-1 $154 -75.513779107028412 $155 75.513779107028412 $59 $156 forward 7 unknown #
face $-1 $157 $158 $22 $-1 $159 reversed single #
loop $-1 $-1 $160 $60 #
plane-surface $-1 -57.078389900156367 -58.994888459078737 0 0 1 0 0 0 1 forward_v I I I I #
coedge $-1 $161 $162 $100 $163 forward $61 $-1 #
coedge $-1 $164 $63 $165 $166 reversed $39 $-1 #
coedge $-1 $63 $164 $98 $163 reversed $39 $-1 #
coedge $-1 $167 $168 $63 $102 reversed $158 $-1 #
edge $-1 $169 -20.267994469674733 $170 20.267994469674733 $101 $171 forward 7 unknown #
face $-1 $172 $173 $23 $-1 $174 forward single #
loop $-1 $-1 $175 $64 #
plane-surface $-1 68.059764753455241 -27.975819919859859 221.10758278412365 0 1 0 0.68199836817093118 0 0.7313536940579346 forward_v I I I I #
coedge $-1 $176 $177 $178 $179 reversed $65 $-1 #
coedge $-1 $108 $67 $180 $181 reversed $42 $-1 #
coedge $-1 $67 $107 $176 $182 reversed $42 $-1 #
coedge $-1 $178 $183 $67 $110 forward $173 $-1 #
edge $-1 $184 -41.483896730300792 $185 -27.955405397669075 $109 $186 forward 7 unknown #
loop $-1 $-1 $116 $68 #
plane-surface $-1 -34.940783497371825 -18.042854114639816 110.65302017972343 0.68199836817093118 0 0.7313536940579346 0.7313536940579346 0 -0.68199836817093118 forward_v I I I I #
loop $-1 $-1 $187 $44 #
coedge $-1 $114 $114 $115 $188 reversed $69 $-1 #
coedge $-1 $115 $115 $114 $188 forward $71 $-1 #
coedge $-1 $116 $116 $72 $117 forward $111 $-1 #
edge $-1 $189 0 $189 6.2831853071796004 $116 $190 forward 7 unknown #
loop $-1 $-1 $123 $73 #
plane-surface $-1 -34.940783497371825 -18.042854114639816 110.65302017972343 0.68199836817093118 0 0.7313536940579346 0.7313536940579346 0 -0.68199836817093118 forward_v I I I I #
loop $-1 $-1 $191 $47 #
coedge $-1 $121 $121 $122 $192 reversed $74 $-1 #
coedge $-1 $122 $122 $121 $192 forward $76 $-1 #
coedge $-1 $123 $123 $77 $124 forward $118 $-1 #
edge $-1 $193 0 $193 6.2831853071796004 $123 $194 forward 7 unknown #
face $-1 $195 $196 $26 $-1 $197 reversed single #
loop $-1 $-1 $198 $78 #
plane-surface $-1 -172.59242344143092 -10.012059275884717 132.66459088876226 0 -1 0 0.64278761758704617 0 -0.76604443648966558 forward_v I I I I #
coedge $-1 $199 $200 $201 $202 reversed $79 $-1 #
coedge $-1 $130 $81 $203 $204 reversed $51 $-1 #
coedge $-1 $81 $129 $199 $205 reversed $51 $-1 #
coedge $-1 $201 $206 $81 $132 forward $207 $-1 #
edge $-1 $208 10.78243261368705 $209 14.711911445328852 $131 $210 forward 7 unknown #
loop $-1 $-1 $138 $82 #
plane-surface $-1 -75.513779107028412 -18.993939597872288 16.970770162264941 -0.64278761758704617 0 0.76604443648966558 0.76604443648966558 0 0.64278761758704617 forward_v I I I I #
loop $-1 $-1 $211 $53 #
coedge $-1 $136 $136 $137 $212 reversed $83 $-1 #
coedge $-1 $137 $137 $136 $212 forward $85 $-1 #
coedge $-1 $138 $138 $86 $139 forward $133 $-1 #
edge $-1 $213 0 $213 6.2831853071796004 $138 $214 forward 7 unknown #
face $-1 $215 $216 $21 $-1 $217 reversed single #
loop $-1 $-1 $218 $87 #
plane-surface $-1 -75.513779107028412 0 0 1 0 0 0 0 -1 forward_v I I I I #
coedge $-1 $93 $219 $220 $221 forward $88 $-1 #
coedge $-1 $222 $90 $223 $224 forward $57 $-1 #
coedge $-1 $90 $222 $148 $225 forward $57 $-1 #
coedge $-1 $149 $226 $90 $147 reversed $227 $-1 #
edge $-1 $228 -43.485354189469298 $229 43.485354189469298 $146 $230 forward 7 unknown #
coedge $-1 $92 $91 $145 $225 reversed $36 $-1 #
coedge $-1 $220 $146 $91 $150 forward $227 $-1 #
edge $-1 $228 -20.267994469674733 $154 20.267994469674733 $149 $231 forward 7 unknown #
coedge $-1 $232 $233 $92 $152 reversed $141 $-1 #
edge $-1 $234 -20.267994469674733 $155 20.267994469674733 $151 $235 forward 7 unknown #
coedge $-1 $219 $93 $233 $236 forward $88 $-1 #
vertex $-1 $150 $237 #
vertex $-1 $236 $238 #
straight-curve $-1 0 -43.485354189469298 -20.267994469674733 -1 0 0 I I #
face $-1 $239 $240 $22 $-1 $241 reversed single #
loop $-1 $-1 $101 $95 #
plane-surface $-1 -60.204227177066102 -51.240121324274014 0 1 0 0 0 0 -1 forward_v I I I I #
coedge $-1 $242 $243 $244 $245 forward $96 $-1 #
coedge $-1 $246 $98 $247 $248 forward $61 $-1 #
coedge $-1 $98 $246 $167 $249 forward $61 $-1 #
edge $-1 $169 -60.204227177066102 $250 -53.952552623246632 $98 $251 forward 7 unknown #
coedge $-1 $100 $99 $252 $253 forward $39 $-1 #
coedge $-1 $254 $255 $99 $166 forward $256 $-1 #
edge $-1 $257 53.952552623246632 $170 60.204227177066102 $165 $258 forward 7 unknown #
coedge $-1 $244 $101 $162 $249 reversed $158 $-1 #
coedge $-1 $101 $244 $254 $259 reversed $158 $-1 #
vertex $-1 $163 $260 #
vertex $-1 $259 $261 #
straight-curve $-1 -60.204227177066102 -43.485354189469298 0 0 0 1 I I #
face $-1 $-1 $262 $23 $-1 $263 reversed single #
loop $-1 $-1 $109 $103 #
plane-surface $-1 0 0 20.267994469674733 0 0 1 1 0 0 forward_v I I I I #
coedge $-1 $264 $265 $266 $267 reversed $104 $-1 #
coedge $-1 $268 $106 $108 $182 forward $65 $-1 #
coedge $-1 $106 $268 $264 $269 forward $65 $-1 #
coedge $-1 $266 $109 $106 $179 forward $173 $-1 #
edge $-1 $185 -0.91153874790013489 $270 18.954392862539951 $178 $271 forward 7 unknown #
coedge $-1 $272 $273 $107 $181 forward $262 $-1 #
edge $-1 $274 -102.90131946316548 $184 -90.285796922387092 $180 $275 forward 7 unknown #
edge $-1 $185 132.52968031647143 $274 151.02755821405685 $108 $276 forward 7 unknown #
coedge $-1 $109 $266 $272 $277 forward $173 $-1 #
vertex $-1 $110 $278 #
vertex $-1 $110 $279 #
straight-curve $-1 34.02988237672762 -8.1098883094197731 20.267994469674733 -1 0 0 I I #
coedge $-1 $187 $187 $-1 $280 reversed $113 $-1 #
edge $-1 $281 0 $281 6.2831853071796004 $114 $282 forward 7 unknown #
vertex $-1 $117 $283 #
ellipse-curve $-1 68.74953344071254 -22.29983945973412 13.96023319928554 0.68199836817093118 0 0.7313536940579346 1.8283842351448365 0 -1.7049959204273279 1 I I #
coedge $-1 $191 $191 $-1 $284 reversed $120 $-1 #
edge $-1 $285 0 $285 6.2831853071796004 $121 $286 forward 7 unknown #
vertex $-1 $124 $287 #
ellipse-curve $-1 68.74953344071254 -13.785868769545512 13.96023319928554 0.68199836817093118 0 0.7313536940579346 1.8283842351448365 0 -1.7049959204273279 1 I I #
face $-1 $-1 $207 $26 $-1 $288 forward single #
loop $-1 $-1 $289 $125 #
plane-surface $-1 -75.513779107028412 0 0 1 0 0 0 0 -1 forward_v I I I I #
coedge $-1 $290 $291 $292 $293 reversed $126 $-1 #
coedge $-1 $294 $128 $130 $205 forward $79 $-1 #
coedge $-1 $128 $294 $290 $295 forward $79 $-1 #
coedge $-1 $292 $131 $128 $202 forward $207 $-1 #
edge $-1 $209 -18.478850120923717 $296 -0.51508947694857277 $201 $297 forward 7 unknown #
coedge $-1 $298 $299 $129 $204 forward $196 $-1 #
edge $-1 $300 -49.36152528211619 $208 -46.064300974706399 $203 $301 forward 7 unknown #
edge $-1 $209 -5.1295703544931524 $300 0 $130 $302 forward 7 unknown #
coedge $-1 $131 $292 $298 $303 forward $207 $-1 #
loop $-1 $-1 $292 $195 #
vertex $-1 $204 $304 #
vertex $-1 $132 $305 #
straight-curve $-1 -86.296211720715462 -27.975819919859859 20.267994469674733 1 0 0 I I #
coedge $-1 $211 $211 $-1 $306 reversed $135 $-1 #
edge $-1 $307 0 $307 6.2831853071796004 $136 $308 forward 7 unknown #
vertex $-1 $139 $309 #
ellipse-curve $-1 -73.549039691207511 -18.993939597872291 18.619382315969837 -0.64278761758704617 0 0.76604443648966558 0.76604443648966558 0 0.64278761758704617 1 I I #
face $-1 $-1 $227 $21 $-1 $310 reversed single #
loop $-1 $-1 $311 $140 #
plane-surface $-1 0 43.485354189469298 0 0 -1 0 0 0 -1 forward_v I I I I #
coedge $-1 $233 $232 $312 $313 forward $141 $-1 #
coedge $-1 $143 $153 $314 $315 forward $88 $-1 #
coedge $-1 $226 $149 $143 $221 reversed $227 $-1 #
edge $-1 $316 -43.485354189469298 $154 43.485354189469298 $220 $317 forward 7 unknown #
coedge $-1 $145 $144 $232 $318 forward $57 $-1 #
coedge $-1 $311 $312 $144 $224 reversed $216 $-1 #
edge $-1 $229 -75.513779107028412 $319 75.513779107028412 $223 $320 forward 7 unknown #
edge $-1 $234 -75.513779107028412 $228 75.513779107028412 $148 $321 forward 7 unknown #
coedge $-1 $146 $220 $311 $322 reversed $227 $-1 #
loop $-1 $-1 $149 $215 #
vertex $-1 $147 $323 #
vertex $-1 $147 $324 #
straight-curve $-1 75.513779107028412 0 20.267994469674733 0 1 0 I I #
straight-curve $-1 75.513779107028412 -43.485354189469298 0 0 0 -1 I I #
coedge $-1 $218 $151 $222 $318 reversed $141 $-1 #
coedge $-1 $151 $218 $153 $236 reversed $141 $-1 #
vertex $-1 $318 $325 #
straight-curve $-1 -75.513779107028412 -43.485354189469298 0 0 0 -1 I I #
edge $-1 $155 -43.485354189469298 $326 43.485354189469298 $233 $327 forward 7 unknown #
point $-1 75.513779107028412 -43.485354189469298 -20.267994469674733 #
point $-1 -75.513779107028412 -43.485354189469298 -20.267994469674733 #
face $-1 $-1 $256 $22 $-1 $328 forward single #
loop $-1 $-1 $329 $157 #
plane-surface $-1 -53.952552623246632 -51.240121324274014 0 -1 0 0 0 0 1 forward_v I I I I #
coedge $-1 $330 $160 $246 $331 reversed $96 $-1 #
coedge $-1 $160 $330 $332 $333 reversed $96 $-1 #
coedge $-1 $168 $167 $160 $245 reversed $158 $-1 #
edge $-1 $334 -20.267994469674733 $335 20.267994469674733 $244 $336 forward 7 unknown #
coedge $-1 $162 $161 $242 $331 forward $61 $-1 #
coedge $-1 $252 $329 $161 $248 reversed $240 $-1 #
edge $-1 $250 -7.7547671348047231 $337 7.7547671348047231 $247 $338 forward 7 unknown #
edge $-1 $335 -7.7547671348047231 $169 7.7547671348047231 $167 $339 forward 7 unknown #
vertex $-1 $248 $340 #
straight-curve $-1 0 -43.485354189469298 -20.267994469674733 1 0 0 I I #
coedge $-1 $341 $247 $164 $253 reversed $240 $-1 #
edge $-1 $257 -20.267994469674733 $250 20.267994469674733 $252 $342 forward 7 unknown #
coedge $-1 $332 $165 $168 $259 forward $256 $-1 #
coedge $-1 $165 $332 $341 $343 forward $256 $-1 #
loop $-1 $-1 $165 $239 #
vertex $-1 $166 $344 #
straight-curve $-1 0 -43.485354189469298 20.267994469674733 -1 0 0 I I #
edge $-1 $170 -7.7547671348047231 $334 7.7547671348047231 $168 $345 forward 7 unknown #
point $-1 -60.204227177066102 -43.485354189469291 -20.267994469674733 #
point $-1 -60.204227177066102 -43.485354189469291 20.267994469674733 #
loop $-1 $-1 $180 $172 #
plane-surface $-1 75.513779107028412 0 0 -1 0 0 0 0 1 forward_v I I I I #
coedge $-1 $265 $175 $177 $269 reversed $104 $-1 #
coedge $-1 $175 $264 $346 $347 reversed $104 $-1 #
coedge $-1 $183 $178 $175 $267 forward $173 $-1 #
edge $-1 $270 27.955405397669075 $348 41.483896730300792 $266 $349 forward 7 unknown #
coedge $-1 $177 $176 $273 $350 reversed $65 $-1 #
edge $-1 $351 -151.02755821405685 $270 -132.52968031647143 $264 $352 forward 7 unknown #
vertex $-1 $179 $353 #
straight-curve $-1 61.985287774396703 -9.021427057319908 20.267994469674733 0 -1 0 I I #
coedge $-1 $346 $180 $183 $277 reversed $262 $-1 #
coedge $-1 $180 $346 $268 $350 forward $262 $-1 #
vertex $-1 $181 $354 #
straight-curve $-1 75.513779107028412 -8.1098883094197731 110.55379139206183 0 0 1 I I #
straight-curve $-1 -34.940783497371825 -8.1098883094197731 110.65302017972343 0.7313536940579346 0 -0.68199836817093118 I I #
edge $-1 $348 -27.975819919859859 $184 -8.1098883094197731 $272 $355 forward 7 unknown #
point $-1 75.513779107028412 -8.1098883094197731 20.267994469674733 #
point $-1 61.985287774396696 -8.1098883094197731 20.267994469674733 #
edge $-1 $356 1 $356 0 $187 $-1 forward 7 unknown #
vertex $-1 $188 $357 #
ellipse-curve $-1 63.089854456705474 -22.29983945973412 7.8909706829590993 0.68199836817093118 0 0.7313536940579346 1.8283842351448365 0 -1.7049959204273279 1 I I #
point $-1 70.577917675857393 -22.29983945973412 12.255237278858218 #
edge $-1 $358 1 $358 0 $191 $-1 forward 7 unknown #
vertex $-1 $192 $359 #
ellipse-curve $-1 63.089854456705474 -13.785868769545512 7.8909706829590993 0.68199836817093118 0 0.7313536940579346 1.8283842351448365 0 -1.7049959204273279 1 I I #
point $-1 70.577917675857393 -13.785868769545512 12.255237278858218 #
plane-surface $-1 0 0 20.267994469674733 0 0 1 1 0 0 forward_v I I I I #
coedge $-1 $299 $298 $291 $360 forward $196 $-1 #
coedge $-1 $291 $198 $200 $295 reversed $126 $-1 #
coedge $-1 $198 $290 $289 $360 reversed $126 $-1 #
coedge $-1 $206 $201 $198 $293 forward $207 $-1 #
edge $-1 $296 -14.711911445328852 $361 -10.78243261368705 $292 $362 forward 7 unknown #
coedge $-1 $200 $199 $299 $363 reversed $79 $-1 #
edge $-1 $364 0 $296 5.1295703544931524 $290 $365 forward 7 unknown #
vertex $-1 $202 $366 #
straight-curve $-1 -71.58430027538661 -9.4969697989361439 20.267994469674733 0 1 0 I I #
coedge $-1 $289 $203 $206 $303 reversed $196 $-1 #
coedge $-1 $203 $289 $294 $363 forward $196 $-1 #
vertex $-1 $204 $367 #
straight-curve $-1 -75.513779107028412 -27.975819919859859 66.332295444381131 0 0 1 I I #
straight-curve $-1 -75.513779107028412 -27.975819919859859 16.970770162264941 -0.76604443648966558 0 -0.64278761758704617 I I #
edge $-1 $361 10.012059275884717 $208 27.975819919859859 $298 $368 forward 7 unknown #
point $-1 -75.513779107028412 -27.975819919859859 20.267994469674733 #
point $-1 -71.58430027538661 -27.975819919859859 20.267994469674733 #
edge $-1 $369 1 $369 0 $211 $-1 forward 7 unknown #
vertex $-1 $212 $370 #
ellipse-curve $-1 -72.075985551608852 -18.993939597872291 16.863864789786618 -0.64278761758704617 0 0.76604443648966558 0.76604443648966558 0 0.64278761758704617 1 I I #
point $-1 -72.782995254717846 -18.993939597872291 19.262169933556883 #
plane-surface $-1 75.513779107028412 0 0 -1 0 0 0 0 1 forward_v I I I I #
coedge $-1 $314 $223 $226 $322 forward $216 $-1 #
coedge $-1 $223 $314 $218 $313 reversed $216 $-1 #
edge $-1 $319 -20.267994469674733 $326 20.267994469674733 $312 $371 forward 7 unknown #
coedge $-1 $312 $311 $219 $315 reversed $216 $-1 #
edge $-1 $326 -75.513779107028412 $316 75.513779107028412 $314 $372 forward 7 unknown #
vertex $-1 $221 $373 #
straight-curve $-1 75.513779107028412 0 -20.267994469674733 0 -1 0 I I #
edge $-1 $319 -43.485354189469298 $234 43.485354189469298 $232 $374 forward 7 unknown #
vertex $-1 $224 $375 #
straight-curve $-1 0 43.485354189469298 20.267994469674733 -1 0 0 I I #
straight-curve $-1 0 -43.485354189469298 20.267994469674733 1 0 0 I I #
edge $-1 $229 -20.267994469674733 $316 20.267994469674733 $226 $376 forward 7 unknown #
point $-1 75.513779107028412 -43.485354189469298 20.267994469674733 #
point $-1 75.513779107028412 43.485354189469298 20.267994469674733 #
point $-1 -75.513779107028412 -43.485354189469298 20.267994469674733 #
vertex $-1 $315 $377 #
straight-curve $-1 -75.513779107028412 0 -20.267994469674733 0 1 0 I I #
plane-surface $-1 0 0 20.267994469674733 0 0 1 1 0 0 forward_v I I I I #
coedge $-1 $247 $341 $330 $378 forward $240 $-1 #
coedge $-1 $243 $242 $329 $378 reversed $96 $-1 #
edge $-1 $337 -3.1258372769097349 $335 3.1258372769097349 $242 $379 forward 7 unknown #
coedge $-1 $255 $254 $243 $333 forward $256 $-1 #
edge $-1 $334 -3.1258372769097349 $380 3.1258372769097349 $243 $381 forward 7 unknown #
vertex $-1 $259 $382 #
vertex $-1 $249 $383 #
straight-curve $-1 -60.204227177066102 -58.994888459078737 0 0 0 -1 I I #
vertex $-1 $378 $384 #
straight-curve $-1 -53.952552623246632 -51.240121324274014 -20.267994469674733 0 -1 0 I I #
straight-curve $-1 -60.204227177066102 -51.240121324274014 -20.267994469674733 0 1 0 I I #
point $-1 -53.952552623246632 -43.485354189469291 -20.267994469674733 #
coedge $-1 $329 $252 $255 $343 reversed $240 $-1 #
straight-curve $-1 -53.952552623246632 -43.485354189469298 0 0 0 -1 I I #
edge $-1 $380 -7.7547671348047231 $257 7.7547671348047231 $341 $385 forward 7 unknown #
point $-1 -53.952552623246632 -43.485354189469291 20.267994469674733 #
straight-curve $-1 -60.204227177066102 -51.240121324274014 20.267994469674733 0 -1 0 I I #
coedge $-1 $273 $272 $265 $347 forward $262 $-1 #
edge $-1 $348 90.285796922387092 $351 102.90131946316548 $346 $386 forward 7 unknown #
vertex $-1 $277 $387 #
straight-curve $-1 34.02988237672762 -27.975819919859859 20.267994469674733 1 0 0 I I #
edge $-1 $351 -18.954392862539951 $274 0.91153874790013489 $273 $388 forward 7 unknown #
vertex $-1 $350 $389 #
straight-curve $-1 -34.940783497371825 -27.975819919859859 110.65302017972343 -0.7313536940579346 0 0.68199836817093118 I I #
point $-1 61.985287774396696 -27.975819919859859 20.267994469674733 #
point $-1 75.513779107028412 -8.1098883094197731 7.6524719288963468 #
straight-curve $-1 75.513779107028412 0 20.267994469674733 0 1 0 I I #
vertex $-1 $280 $390 #
point $-1 64.91823869185032 -22.29983945973412 6.1859747625317709 #
vertex $-1 $284 $391 #
point $-1 64.91823869185032 -13.785868769545512 6.1859747625317709 #
edge $-1 $361 46.064300974706399 $364 49.36152528211619 $289 $392 forward 7 unknown #
vertex $-1 $303 $393 #
straight-curve $-1 -86.296211720715462 -10.012059275884717 20.267994469674733 -1 0 0 I I #
edge $-1 $364 0.51508947694857277 $300 18.478850120923717 $299 $394 forward 7 unknown #
vertex $-1 $363 $395 #
straight-curve $-1 -75.513779107028412 -10.012059275884717 16.970770162264941 0.76604443648966558 0 0.64278761758704617 I I #
point $-1 -71.58430027538661 -10.012059275884717 20.267994469674733 #
point $-1 -75.513779107028412 -27.975819919859859 16.970770162264941 #
straight-curve $-1 -75.513779107028412 0 20.267994469674733 0 -1 0 I I #
vertex $-1 $306 $396 #
point $-1 -71.309941115119187 -18.993939597872291 17.506652407373664 #
straight-curve $-1 -75.513779107028412 43.485354189469298 0 0 0 -1 I I #
straight-curve $-1 0 43.485354189469298 -20.267994469674733 1 0 0 I I #
point $-1 75.513779107028412 43.485354189469298 -20.267994469674733 #
straight-curve $-1 -75.513779107028412 0 20.267994469674733 0 -1 0 I I #
point $-1 -75.513779107028412 43.485354189469298 20.267994469674733 #
straight-curve $-1 75.513779107028412 43.485354189469298 0 0 0 -1 I I #
point $-1 -75.513779107028412 43.485354189469298 -20.267994469674733 #
edge $-1 $380 -20.267994469674733 $337 20.267994469674733 $329 $397 forward 7 unknown #
straight-curve $-1 -57.078389900156367 -58.994888459078737 -20.267994469674733 -1 0 0 I I #
vertex $-1 $343 $398 #
straight-curve $-1 -57.078389900156367 -58.994888459078737 20.267994469674733 1 0 0 I I #
point $-1 -60.204227177066102 -58.994888459078737 20.267994469674733 #
point $-1 -60.204227177066102 -58.994888459078737 -20.267994469674733 #
point $-1 -53.952552623246632 -58.994888459078737 -20.267994469674733 #
straight-curve $-1 -53.952552623246632 -51.240121324274014 20.267994469674733 0 1 0 I I #
straight-curve $-1 75.513779107028412 -27.975819919859859 110.55379139206183 0 0 -1 I I #
point $-1 75.513779107028412 -27.975819919859859 20.267994469674733 #
straight-curve $-1 75.513779107028398 -9.021427057319908 7.6524719288963539 0 1 0 I I #
point $-1 75.513779107028412 -27.975819919859859 7.6524719288963468 #
point $-1 61.384858536278152 -22.29983945973412 6.0625864478142626 #
point $-1 61.384858536278152 -13.785868769545512 6.0625864478142626 #
straight-curve $-1 -75.513779107028412 -10.012059275884717 66.332295444381131 0 0 -1 I I #
point $-1 -75.513779107028412 -10.012059275884717 20.267994469674733 #
straight-curve $-1 -75.513779107028412 -9.4969697989361439 16.970770162264937 0 -1 0 I I #
point $-1 -75.513779107028412 -10.012059275884717 16.970770162264941 #
point $-1 -71.43319793402182 -18.993939597872291 16.097820353296953 #
straight-curve $-1 -53.952552623246632 -58.994888459078737 0 0 0 -1 I I #
point $-1 -53.952552623246632 -58.994888459078737 20.267994469674733 #
End-of-ACIS-data 