500 0 4 0           
7 Unknown 11 ACIS 5.0 NT 24 Thu Mar 25 16:21:00 1999 
-1 9.9999999999999995e-007 1e-010 
body $-1 $4 $-1 $5 #
body $-1 $6 $-1 $7 #
body $-1 $8 $-1 $9 #
body $-1 $10 $-1 $11 #
lump $-1 $-1 $12 $0 #
transform $-1 1 0 0 0 1 0 0 0 1 74.852137821588798 34.517373360752316 9.4098739896722989 1 rotate no_reflect no_shear #
lump $-1 $-1 $13 $1 #
transform $-1 1 0 0 0 1 0 0 0 1 74.852137821588798 34.517373360752316 9.4098739896722989 1 rotate no_reflect no_shear #
lump $-1 $-1 $14 $2 #
transform $-1 1 0 0 0 1 0 0 0 1 74.852137821588798 34.517373360752316 9.4098739896722989 1 rotate no_reflect no_shear #
lump $-1 $-1 $15 $3 #
transform $-1 1 0 0 0 1 0 0 0 1 74.852137821588798 34.517373360752316 9.4098739896722989 1 rotate no_reflect no_shear #
shell $-1 $-1 $-1 $16 $-1 $4 #
shell $-1 $-1 $-1 $17 $-1 $6 #
shell $-1 $-1 $-1 $18 $-1 $8 #
shell $-1 $-1 $-1 $19 $-1 $10 #
face $-1 $20 $21 $12 $-1 $22 forward single #
face $-1 $23 $24 $13 $-1 $25 reversed single #
face $-1 $26 $27 $14 $-1 $28 reversed single #
face $-1 $29 $30 $15 $-1 $31 forward single #
face $-1 $32 $33 $12 $-1 $34 reversed single #
loop $-1 $-1 $35 $16 #
plane-surface $-1 0 0 9.4098739896722989 0 0 1 1 0 0 forward_v I I I I #
face $-1 $36 $37 $13 $-1 $38 reversed single #
loop $-1 $-1 $39 $17 #
plane-surface $-1 -69.905634683906726 -31.517373360752316 0 0 -1 0 0 0 -1 forward_v I I I I #
face $-1 $40 $41 $14 $-1 $42 reversed single #
loop $-1 $-1 $43 $18 #
plane-surface $-1 -55.797604185675894 -34.51737336075233 2.9485772468132581 0 -0.7660444514056185 0.64278759981090561 1 0 0 forward_v I I I I #
face $-1 $44 $45 $15 $-1 $46 forward single #
loop $-1 $47 $48 $19 #
cone-surface $-1 -55.797604185675901 -29.773885017692862 4.4736276519212073 0 0.7660444514056185 -0.64278759981090561 1.5 0 0 1 I I 0 1 1.5 forward I I I I #
face $-1 $49 $50 $12 $-1 $51 reversed single #
loop $-1 $-1 $52 $20 #
plane-surface $-1 0 0 -9.4098739896722989 0 0 1 1 0 0 forward_v I I I I #
coedge $-1 $53 $54 $55 $56 forward $21 $-1 #
face $-1 $57 $58 $13 $-1 $59 forward single #
loop $-1 $-1 $60 $23 #
plane-surface $-1 -64.959131546224654 -33.017373360752316 0 -1 0 0 0 0 1 forward_v I I I I #
coedge $-1 $61 $62 $63 $64 forward $24 $-1 #
face $-1 $65 $66 $14 $-1 $67 forward single #
loop $-1 $-1 $68 $26 #
plane-surface $-1 -46.636076825127148 -149.1975030689058 99.176629268921602 -1 0 0 0 -0.7660444514056185 0.64278759981090561 forward_v I I I I #
coedge $-1 $69 $70 $71 $72 reversed $27 $-1 #
face $-1 $-1 $73 $15 $-1 $74 forward single #
loop $-1 $75 $76 $29 #
cone-surface $-1 -55.797604185675901 -27.166699122036249 2.2859389857414509 0 0.7660444514056185 -0.64278759981090561 0.75 0 0 1 I I -0.70710678118654757 0.70710678118654757 0.75 forward I I I I #
loop $-1 $-1 $77 $19 #
coedge $-1 $48 $48 $78 $79 reversed $30 $-1 #
face $-1 $80 $81 $12 $-1 $82 reversed single #
loop $-1 $-1 $83 $32 #
plane-surface $-1 0 -34.517373360752316 0 0 1 0 0 0 1 forward_v I I I I #
coedge $-1 $84 $85 $86 $87 forward $33 $-1 #
coedge $-1 $88 $35 $89 $90 forward $21 $-1 #
coedge $-1 $35 $88 $91 $92 forward $21 $-1 #
coedge $-1 $93 $94 $35 $56 reversed $95 $-1 #
edge $-1 $96 -34.517373360752316 $97 34.517373360752316 $55 $98 forward 7 unknown #
face $-1 $99 $100 $13 $-1 $101 reversed single #
loop $-1 $-1 $102 $36 #
plane-surface $-1 0 0 9.4098739896722989 0 0 1 1 0 0 forward_v I I I I #
coedge $-1 $103 $104 $105 $106 reversed $37 $-1 #
coedge $-1 $107 $39 $108 $109 reversed $24 $-1 #
coedge $-1 $39 $107 $110 $111 reversed $24 $-1 #
coedge $-1 $104 $103 $39 $64 reversed $37 $-1 #
edge $-1 $112 -9.4098739896722989 $113 9.4098739896722989 $63 $114 forward 7 unknown #
face $-1 $115 $116 $14 $-1 $117 forward single #
loop $-1 $-1 $118 $40 #
plane-surface $-1 0 0 9.4098739896722989 0 0 1 1 0 0 forward_v I I I I #
coedge $-1 $119 $120 $121 $122 reversed $41 $-1 #
coedge $-1 $123 $43 $124 $125 reversed $27 $-1 #
coedge $-1 $43 $123 $119 $126 forward $27 $-1 #
coedge $-1 $121 $127 $43 $72 forward $128 $-1 #
edge $-1 $129 -37.060329453386707 $130 -18.737274732289201 $71 $131 forward 7 unknown #
loop $-1 $-1 $78 $44 #
plane-surface $-1 -55.797604185675894 -34.51737336075233 2.9485772468132581 0 -0.7660444514056185 0.64278759981090561 1 0 0 forward_v I I I I #
loop $-1 $-1 $132 $29 #
coedge $-1 $76 $76 $77 $133 reversed $45 $-1 #
coedge $-1 $77 $77 $76 $133 forward $47 $-1 #
coedge $-1 $78 $78 $48 $79 forward $73 $-1 #
edge $-1 $134 -9.0717886702598875e-016 $134 6.2831853071795996 $78 $135 forward 7 unknown #
face $-1 $136 $137 $12 $-1 $138 reversed single #
loop $-1 $-1 $139 $49 #
plane-surface $-1 -74.852137821588798 0 0 1 0 0 0 0 -1 forward_v I I I I #
coedge $-1 $140 $91 $141 $142 forward $50 $-1 #
coedge $-1 $143 $52 $140 $144 forward $33 $-1 #
coedge $-1 $52 $143 $145 $146 forward $33 $-1 #
coedge $-1 $94 $93 $52 $87 reversed $95 $-1 #
edge $-1 $147 -34.517373360752316 $148 34.517373360752316 $86 $149 forward 7 unknown #
coedge $-1 $54 $53 $150 $151 forward $21 $-1 #
coedge $-1 $152 $153 $53 $90 reversed $137 $-1 #
edge $-1 $97 -74.852137821588798 $154 74.852137821588798 $89 $155 forward 7 unknown #
coedge $-1 $83 $156 $54 $92 reversed $50 $-1 #
edge $-1 $157 -74.852137821588798 $96 74.852137821588798 $91 $158 forward 7 unknown #
coedge $-1 $86 $55 $156 $159 forward $95 $-1 #
coedge $-1 $55 $86 $152 $160 reversed $95 $-1 #
loop $-1 $-1 $93 $136 #
vertex $-1 $56 $161 #
vertex $-1 $56 $162 #
straight-curve $-1 74.852137821588798 0 9.4098739896722989 0 1 0 I I #
face $-1 $163 $164 $13 $-1 $165 reversed single #
loop $-1 $-1 $166 $57 #
plane-surface $-1 -74.852137821588798 0 0 1 0 0 0 0 -1 forward_v I I I I #
coedge $-1 $110 $167 $104 $168 forward $58 $-1 #
coedge $-1 $63 $60 $169 $170 reversed $37 $-1 #
coedge $-1 $60 $63 $102 $168 reversed $37 $-1 #
coedge $-1 $171 $172 $60 $106 forward $173 $-1 #
edge $-1 $174 -9.4098739896722989 $175 9.4098739896722989 $105 $176 forward 7 unknown #
coedge $-1 $62 $61 $166 $177 reversed $24 $-1 #
coedge $-1 $169 $178 $61 $109 forward $164 $-1 #
edge $-1 $179 -39.899320479635435 $113 -30.006314204271291 $108 $180 forward 7 unknown #
coedge $-1 $181 $102 $62 $111 forward $58 $-1 #
edge $-1 $112 30.006314204271291 $182 39.899320479635435 $110 $183 forward 7 unknown #
vertex $-1 $111 $184 #
vertex $-1 $109 $185 #
straight-curve $-1 -64.959131546224654 -31.517373360752316 0 0 0 -1 I I #
face $-1 $-1 $128 $14 $-1 $186 reversed single #
loop $-1 $-1 $124 $65 #
plane-surface $-1 -64.959131546224654 -33.017373360752316 0 -1 0 0 0 0 1 forward_v I I I I #
coedge $-1 $187 $188 $120 $189 forward $66 $-1 #
coedge $-1 $120 $68 $70 $126 reversed $41 $-1 #
coedge $-1 $68 $119 $118 $189 reversed $41 $-1 #
coedge $-1 $190 $71 $68 $122 forward $128 $-1 #
edge $-1 $130 -46.639737387647529 $191 -40.178440644788502 $121 $192 forward 7 unknown #
coedge $-1 $70 $69 $187 $193 reversed $27 $-1 #
coedge $-1 $194 $195 $69 $125 forward $116 $-1 #
edge $-1 $196 -9.0819036952989496 $129 -0.64727991987291333 $124 $197 forward 7 unknown #
edge $-1 $198 -8.4346237754260596 $130 -2.2061860048766535e-014 $119 $199 forward 7 unknown #
coedge $-1 $71 $190 $194 $200 forward $128 $-1 #
loop $-1 $-1 $121 $115 #
vertex $-1 $125 $201 #
vertex $-1 $72 $202 #
straight-curve $-1 -27.898802092837947 -34.517373360752316 2.9485772468132732 1 0 0 I I #
coedge $-1 $132 $132 $-1 $203 reversed $75 $-1 #
edge $-1 $204 0 $204 6.2831853071796004 $76 $205 forward 7 unknown #
vertex $-1 $79 $206 #
ellipse-curve $-1 -55.797604185675901 -31.806537574795264 6.1792256182427874 0 -0.7660444514056185 0.64278759981090561 1.5 0 0 1 I I #
face $-1 $-1 $95 $12 $-1 $207 reversed single #
loop $-1 $-1 $152 $80 #
plane-surface $-1 0 34.517373360752316 0 0 -1 0 0 0 -1 forward_v I I I I #
coedge $-1 $208 $150 $153 $209 forward $81 $-1 #
coedge $-1 $156 $83 $84 $144 reversed $50 $-1 #
coedge $-1 $150 $208 $83 $142 reversed $81 $-1 #
edge $-1 $157 -9.4098739896722989 $210 9.4098739896722989 $141 $211 forward 7 unknown #
coedge $-1 $85 $84 $208 $212 forward $33 $-1 #
edge $-1 $148 -74.852137821588798 $210 74.852137821588798 $140 $213 forward 7 unknown #
coedge $-1 $153 $152 $85 $146 reversed $137 $-1 #
edge $-1 $214 -74.852137821588798 $147 74.852137821588798 $145 $215 forward 7 unknown #
vertex $-1 $87 $216 #
vertex $-1 $159 $217 #
straight-curve $-1 74.852137821588798 0 -9.4098739896722989 0 -1 0 I I #
coedge $-1 $139 $141 $88 $151 reversed $81 $-1 #
edge $-1 $154 -34.517373360752316 $157 34.517373360752316 $150 $218 forward 7 unknown #
coedge $-1 $145 $89 $94 $160 forward $137 $-1 #
coedge $-1 $89 $145 $139 $209 reversed $137 $-1 #
vertex $-1 $90 $219 #
straight-curve $-1 0 34.517373360752316 9.4098739896722989 -1 0 0 I I #
coedge $-1 $91 $140 $93 $159 reversed $50 $-1 #
vertex $-1 $151 $220 #
straight-curve $-1 0 -34.517373360752316 9.4098739896722989 1 0 0 I I #
edge $-1 $96 -9.4098739896722989 $148 9.4098739896722989 $93 $221 forward 7 unknown #
edge $-1 $97 -9.4098739896722989 $147 9.4098739896722989 $94 $222 forward 7 unknown #
point $-1 74.852137821588798 -34.517373360752316 9.4098739896722989 #
point $-1 74.852137821588798 34.517373360752316 9.4098739896722989 #
face $-1 $-1 $173 $13 $-1 $223 reversed single #
loop $-1 $-1 $169 $99 #
plane-surface $-1 0 0 -9.4098739896722989 0 0 1 1 0 0 forward_v I I I I #
coedge $-1 $224 $225 $107 $177 forward $100 $-1 #
coedge $-1 $102 $181 $171 $226 forward $58 $-1 #
edge $-1 $175 -18.008686680376158 $112 -15.008686680376158 $102 $227 forward 7 unknown #
coedge $-1 $228 $108 $103 $170 forward $164 $-1 #
edge $-1 $113 15.008686680376158 $174 18.008686680376158 $169 $229 forward 7 unknown #
coedge $-1 $230 $105 $167 $226 reversed $173 $-1 #
coedge $-1 $105 $230 $228 $231 reversed $173 $-1 #
loop $-1 $-1 $105 $163 #
vertex $-1 $231 $232 #
vertex $-1 $106 $233 #
straight-curve $-1 -64.959131546224654 -34.517373360752316 0 0 0 1 I I #
edge $-1 $182 -9.4098739896722989 $179 9.4098739896722989 $166 $234 forward 7 unknown #
coedge $-1 $108 $228 $224 $235 forward $164 $-1 #
vertex $-1 $109 $236 #
straight-curve $-1 -34.952817341953363 -31.517373360752316 -9.4098739896722989 1 0 0 I I #
coedge $-1 $167 $110 $225 $237 forward $58 $-1 #
vertex $-1 $237 $238 #
straight-curve $-1 -34.952817341953363 -31.517373360752316 9.4098739896722989 -1 0 0 I I #
point $-1 -64.959131546224654 -31.517373360752316 9.4098739896722989 #
point $-1 -64.959131546224654 -31.517373360752316 -9.4098739896722989 #
plane-surface $-1 0 -34.517373360752316 0 0 1 0 0 0 1 forward_v I I I I #
coedge $-1 $239 $118 $123 $193 forward $66 $-1 #
coedge $-1 $118 $239 $190 $240 forward $66 $-1 #
edge $-1 $191 40.081378173700585 $198 45.503049745614689 $118 $241 forward 7 unknown #
coedge $-1 $127 $121 $188 $240 reversed $128 $-1 #
vertex $-1 $189 $242 #
straight-curve $-1 -46.636076825127148 -34.517373360752316 49.588314634460801 0 0 1 I I #
edge $-1 $198 18.737274732289201 $196 37.060329453386693 $187 $243 forward 7 unknown #
coedge $-1 $195 $124 $127 $200 reversed $116 $-1 #
coedge $-1 $124 $194 $239 $244 reversed $116 $-1 #
vertex $-1 $244 $245 #
straight-curve $-1 -64.959131546224654 -34.933436866853221 2.4527320556883558 0 -0.64278759981090572 -0.76604445140561861 I I #
vertex $-1 $193 $246 #
straight-curve $-1 -46.636076825127148 -34.51737336075233 2.9485772468132581 0 -0.64278759981090561 -0.7660444514056185 I I #
edge $-1 $247 -9.4098739896722989 $129 -2.9485772468132749 $127 $248 forward 7 unknown #
point $-1 -64.959131546224654 -34.517373360752316 2.9485772468132749 #
point $-1 -46.636076825127148 -34.517373360752316 2.9485772468132749 #
edge $-1 $249 1 $249 0 $132 $-1 forward 7 unknown #
vertex $-1 $133 $250 #
ellipse-curve $-1 -55.797604185675901 -27.741232460590464 2.7680296855996303 0 -0.7660444514056185 0.64278759981090561 1.5 0 0 1 I I #
point $-1 -54.297604185675901 -31.806537574795264 6.1792256182427856 #
plane-surface $-1 74.852137821588798 0 0 -1 0 0 0 0 1 forward_v I I I I #
coedge $-1 $141 $139 $143 $212 reversed $81 $-1 #
edge $-1 $154 -9.4098739896722989 $214 9.4098739896722989 $153 $251 forward 7 unknown #
vertex $-1 $212 $252 #
straight-curve $-1 -74.852137821588798 -34.517373360752316 0 0 0 -1 I I #
edge $-1 $210 -34.517373360752316 $214 34.517373360752316 $208 $253 forward 7 unknown #
straight-curve $-1 0 -34.517373360752316 -9.4098739896722989 -1 0 0 I I #
vertex $-1 $146 $254 #
straight-curve $-1 0 34.517373360752316 -9.4098739896722989 1 0 0 I I #
point $-1 74.852137821588798 34.517373360752316 -9.4098739896722989 #
point $-1 74.852137821588798 -34.517373360752316 -9.4098739896722989 #
straight-curve $-1 -74.852137821588798 0 9.4098739896722989 0 -1 0 I I #
point $-1 -74.852137821588798 34.517373360752316 9.4098739896722989 #
point $-1 -74.852137821588798 -34.517373360752316 9.4098739896722989 #
straight-curve $-1 74.852137821588798 -34.517373360752316 0 0 0 -1 I I #
straight-curve $-1 74.852137821588798 34.517373360752316 0 0 0 -1 I I #
plane-surface $-1 0 -34.517373360752316 0 0 1 0 0 0 1 forward_v I I I I #
coedge $-1 $255 $166 $178 $235 reversed $100 $-1 #
coedge $-1 $166 $255 $181 $237 reversed $100 $-1 #
edge $-1 $256 -74.852137821588798 $175 -64.959131546224654 $171 $257 forward 7 unknown #
straight-curve $-1 -64.959131546224654 -16.508686680376158 9.4098739896722989 0 1 0 I I #
coedge $-1 $178 $169 $172 $231 forward $164 $-1 #
straight-curve $-1 -64.959131546224654 -16.508686680376158 -9.4098739896722989 0 -1 0 I I #
coedge $-1 $172 $171 $255 $258 forward $173 $-1 #
edge $-1 $174 64.959131546224654 $259 74.852137821588798 $172 $260 forward 7 unknown #
point $-1 -64.959131546224654 -34.517373360752316 -9.4098739896722989 #
point $-1 -64.959131546224654 -34.517373360752316 9.4098739896722989 #
straight-curve $-1 -74.852137821588798 -31.517373360752316 0 0 0 -1 I I #
edge $-1 $259 -34.517373360752316 $179 -31.517373360752316 $224 $261 forward 7 unknown #
point $-1 -74.852137821588798 -31.517373360752316 -9.4098739896722989 #
edge $-1 $182 31.517373360752316 $256 34.517373360752316 $225 $262 forward 7 unknown #
point $-1 -74.852137821588798 -31.517373360752316 9.4098739896722989 #
coedge $-1 $188 $187 $195 $244 forward $66 $-1 #
edge $-1 $247 -64.959131546224654 $191 -46.636076825127148 $190 $263 forward 7 unknown #
straight-curve $-1 -46.636076825127148 -74.598751534452902 9.4098739896722989 0 1 0 I I #
point $-1 -46.636076825127148 -34.517373360752316 9.4098739896722989 #
straight-curve $-1 -27.898802092837947 -29.095701788838213 9.4098739896722989 -1 0 0 I I #
edge $-1 $196 -45.503049745614689 $247 -40.081378173700585 $239 $264 forward 7 unknown #
point $-1 -64.95913154622464 -29.095701788838216 9.4098739896722989 #
point $-1 -46.636076825127148 -29.095701788838216 9.4098739896722989 #
vertex $-1 $240 $265 #
straight-curve $-1 -64.959131546224654 -34.517373360752316 0 0 0 -1 I I #
vertex $-1 $203 $266 #
point $-1 -54.297604185675901 -27.741232460590464 2.7680296855996303 #
straight-curve $-1 -74.852137821588798 34.517373360752316 0 0 0 -1 I I #
point $-1 -74.852137821588798 -34.517373360752316 -9.4098739896722989 #
straight-curve $-1 -74.852137821588798 0 -9.4098739896722989 0 1 0 I I #
point $-1 -74.852137821588798 34.517373360752316 -9.4098739896722989 #
coedge $-1 $225 $224 $230 $258 reversed $100 $-1 #
vertex $-1 $237 $267 #
straight-curve $-1 0 -34.517373360752316 9.4098739896722989 1 0 0 I I #
edge $-1 $256 -9.4098739896722989 $259 9.4098739896722989 $255 $268 forward 7 unknown #
vertex $-1 $235 $269 #
straight-curve $-1 0 -34.517373360752316 -9.4098739896722989 -1 0 0 I I #
straight-curve $-1 -74.852137821588798 0 -9.4098739896722989 0 1 0 I I #
straight-curve $-1 -74.852137821588798 0 9.4098739896722989 0 -1 0 I I #
straight-curve $-1 0 -34.517373360752316 9.4098739896722989 1 0 0 I I #
straight-curve $-1 -64.95913154622464 -74.598751534452902 9.4098739896722989 0 -1 0 I I #
point $-1 -64.959131546224654 -34.517373360752316 9.4098739896722989 #
point $-1 -55.797604185675901 -26.592165783482034 1.8038482858832716 #
point $-1 -74.852137821588798 -34.517373360752316 9.4098739896722989 #
straight-curve $-1 -74.852137821588798 -34.517373360752316 0 0 0 -1 I I #
point $-1 -74.852137821588798 -34.517373360752316 -9.4098739896722989 #
End-of-ACIS-data 