500 0 12 0           
7 Unknown 11 ACIS 5.0 NT 24 Thu Mar 25 19:17:12 1999 
-1 9.9999999999999995e-007 1e-010 
body $-1 $12 $-1 $13 #
body $-1 $14 $-1 $15 #
body $-1 $16 $-1 $17 #
body $-1 $18 $-1 $19 #
body $-1 $20 $-1 $21 #
body $-1 $22 $-1 $23 #
body $-1 $24 $-1 $25 #
body $-1 $26 $-1 $27 #
body $-1 $28 $-1 $29 #
body $-1 $30 $-1 $31 #
body $-1 $32 $-1 $33 #
body $-1 $34 $-1 $35 #
lump $-1 $-1 $36 $0 #
transform $-1 1 0 0 0 1 0 0 0 1 63.161107211523785 31.118897513438519 10.730782033573204 1 rotate no_reflect no_shear #
lump $-1 $-1 $37 $1 #
transform $-1 1 0 0 0 1 0 0 0 1 63.161107211523785 31.118897513438519 10.730782033573204 1 rotate no_reflect no_shear #
lump $-1 $-1 $38 $2 #
transform $-1 1 0 0 0 1 0 0 0 1 63.161107211523785 31.118897513438519 10.730782033573204 1 rotate no_reflect no_shear #
lump $-1 $-1 $39 $3 #
transform $-1 1 0 0 0 1 0 0 0 1 63.161107211523785 31.118897513438519 10.730782033573204 1 rotate no_reflect no_shear #
lump $-1 $-1 $40 $4 #
transform $-1 1 0 0 0 1 0 0 0 1 63.161107211523785 31.118897513438519 10.730782033573204 1 rotate no_reflect no_shear #
lump $-1 $-1 $41 $5 #
transform $-1 1 0 0 0 1 0 0 0 1 63.161107211523785 31.118897513438519 10.730782033573204 1 rotate no_reflect no_shear #
lump $-1 $-1 $42 $6 #
transform $-1 1 0 0 0 1 0 0 0 1 63.161107211523785 31.118897513438519 10.730782033573204 1 rotate no_reflect no_shear #
lump $-1 $-1 $43 $7 #
transform $-1 1 0 0 0 1 0 0 0 1 63.161107211523785 31.118897513438519 10.730782033573204 1 rotate no_reflect no_shear #
lump $-1 $-1 $44 $8 #
transform $-1 1 0 0 0 1 0 0 0 1 63.161107211523785 31.118897513438519 10.730782033573204 1 rotate no_reflect no_shear #
lump $-1 $-1 $45 $9 #
transform $-1 1 0 0 0 1 0 0 0 1 63.161107211523785 31.118897513438519 10.730782033573204 1 rotate no_reflect no_shear #
lump $-1 $-1 $46 $10 #
transform $-1 1 0 0 0 1 0 0 0 1 63.161107211523785 31.118897513438519 10.730782033573204 1 rotate no_reflect no_shear #
lump $-1 $-1 $47 $11 #
transform $-1 1 0 0 0 1 0 0 0 1 63.161107211523785 31.118897513438519 10.730782033573204 1 rotate no_reflect no_shear #
shell $-1 $-1 $-1 $48 $-1 $12 #
shell $-1 $-1 $-1 $49 $-1 $14 #
shell $-1 $-1 $-1 $50 $-1 $16 #
shell $-1 $-1 $-1 $51 $-1 $18 #
shell $-1 $-1 $-1 $52 $-1 $20 #
shell $-1 $-1 $-1 $53 $-1 $22 #
shell $-1 $-1 $-1 $54 $-1 $24 #
shell $-1 $-1 $-1 $55 $-1 $26 #
shell $-1 $-1 $-1 $56 $-1 $28 #
shell $-1 $-1 $-1 $57 $-1 $30 #
shell $-1 $-1 $-1 $58 $-1 $32 #
shell $-1 $-1 $-1 $59 $-1 $34 #
face $-1 $60 $61 $36 $-1 $62 forward single #
face $-1 $63 $64 $37 $-1 $65 reversed single #
face $-1 $66 $67 $38 $-1 $68 forward single #
face $-1 $69 $70 $39 $-1 $71 forward single #
face $-1 $72 $73 $40 $-1 $74 forward single #
face $-1 $75 $76 $41 $-1 $77 reversed single #
face $-1 $78 $79 $42 $-1 $80 forward single #
face $-1 $81 $82 $43 $-1 $83 forward single #
face $-1 $84 $85 $44 $-1 $86 forward single #
face $-1 $87 $88 $45 $-1 $89 reversed single #
face $-1 $90 $91 $46 $-1 $92 forward single #
face $-1 $93 $94 $47 $-1 $95 forward single #
face $-1 $96 $97 $36 $-1 $98 reversed single #
loop $-1 $-1 $99 $48 #
plane-surface $-1 0 0 10.730782033573204 0 0 1 1 0 0 forward_v I I I I #
face $-1 $100 $101 $37 $-1 $102 reversed single #
loop $-1 $-1 $103 $49 #
plane-surface $-1 -22.958221337357244 -99.918907379186152 113.24387269109971 -1 0 0 0 -0.54463904215088732 0.83867056331134215 forward_v I I I I #
face $-1 $104 $105 $38 $-1 $106 forward single #
loop $-1 $107 $108 $50 #
cone-surface $-1 -39.419007834245228 -27.993988916279662 8.2701732020361369 0 0.54463904215088732 -0.83867056331134215 1.5 0 0 1 I I 0 1 1.5 forward I I I I #
face $-1 $109 $110 $39 $-1 $111 forward single #
loop $-1 $112 $113 $51 #
cone-surface $-1 -33.24621289791223 -27.993988916279662 8.2701732020361369 0 0.54463904215088732 -0.83867056331134215 1.5 0 0 1 I I 0 1 1.5 forward I I I I #
face $-1 $114 $115 $40 $-1 $116 forward single #
loop $-1 $117 $118 $52 #
cone-surface $-1 -27.073417961579239 -27.993988916279662 8.2701732020361369 0 0.54463904215088732 -0.83867056331134215 1.5 0 0 1 I I 0 1 1.5 forward I I I I #
face $-1 $119 $120 $41 $-1 $121 reversed single #
loop $-1 $-1 $122 $53 #
plane-surface $-1 40.202885874166533 -99.918907379186152 113.24387269109971 -1 0 0 0 -0.54463904215088732 0.83867056331134215 forward_v I I I I #
face $-1 $123 $124 $42 $-1 $125 forward single #
loop $-1 $126 $127 $54 #
cone-surface $-1 23.742099377278549 -27.993988916279662 8.2701732020361369 0 0.54463904215088732 -0.83867056331134215 1.5 0 0 1 I I 0 1 1.5 forward I I I I #
face $-1 $128 $129 $43 $-1 $130 forward single #
loop $-1 $131 $132 $55 #
cone-surface $-1 29.914894313611555 -27.993988916279662 8.2701732020361369 0 0.54463904215088732 -0.83867056331134215 1.5 0 0 1 I I 0 1 1.5 forward I I I I #
face $-1 $133 $134 $44 $-1 $135 forward single #
loop $-1 $136 $137 $56 #
cone-surface $-1 36.087689249944546 -27.993988916279662 8.2701732020361369 0 0.54463904215088732 -0.83867056331134215 1.5 0 0 1 I I 0 1 1.5 forward I I I I #
face $-1 $138 $139 $45 $-1 $140 reversed single #
loop $-1 $-1 $141 $57 #
plane-surface $-1 -12.077048637730002 76.433426583865526 136.59948231969858 1 0 0 0 -0.70710678939079041 -0.70710677298230451 forward_v I I I I #
face $-1 $142 $143 $46 $-1 $144 forward single #
loop $-1 $145 $146 $58 #
cone-surface $-1 -6.1254438333139518 25.551495428479438 5.1633799046182105 0 -0.70710678939079041 -0.70710677298230451 1.5 0 0 1 I I 0 1 1.5 forward I I I I #
face $-1 $147 $148 $47 $-1 $149 forward single #
loop $-1 $150 $151 $59 #
cone-surface $-1 2.8019633733101301 25.551495428479438 5.1633799046182105 0 -0.70710678939079041 -0.70710677298230451 1.5 0 0 1 I I 0 1 1.5 forward I I I I #
face $-1 $152 $153 $36 $-1 $154 reversed single #
loop $-1 $-1 $155 $60 #
plane-surface $-1 0 0 -10.730782033573204 0 0 1 1 0 0 forward_v I I I I #
coedge $-1 $156 $157 $158 $159 forward $61 $-1 #
face $-1 $160 $161 $37 $-1 $162 reversed single #
loop $-1 $-1 $163 $63 #
plane-surface $-1 -33.246212897912237 -31.118897513438512 7.3011499621862441 0 -0.54463904215088732 0.83867056331134215 1 0 0 forward_v I I I I #
coedge $-1 $164 $165 $166 $167 reversed $64 $-1 #
face $-1 $-1 $168 $38 $-1 $169 forward single #
loop $-1 $170 $171 $66 #
cone-surface $-1 -39.419007834245228 -27.101186121071933 6.895377483709046 0 0.54463904215088732 -0.83867056331134215 0.75 0 0 1 I I -0.70710678118654757 0.70710678118654757 0.75 forward I I I I #
loop $-1 $-1 $172 $50 #
coedge $-1 $108 $108 $173 $174 reversed $67 $-1 #
face $-1 $-1 $175 $39 $-1 $176 forward single #
loop $-1 $177 $178 $69 #
cone-surface $-1 -33.24621289791223 -27.101186121071933 6.895377483709046 0 0.54463904215088732 -0.83867056331134215 0.75 0 0 1 I I -0.70710678118654757 0.70710678118654757 0.75 forward I I I I #
loop $-1 $-1 $179 $51 #
coedge $-1 $113 $113 $180 $181 reversed $70 $-1 #
face $-1 $-1 $182 $40 $-1 $183 forward single #
loop $-1 $184 $185 $72 #
cone-surface $-1 -27.073417961579239 -27.101186121071933 6.895377483709046 0 0.54463904215088732 -0.83867056331134215 0.75 0 0 1 I I -0.70710678118654757 0.70710678118654757 0.75 forward I I I I #
loop $-1 $-1 $186 $52 #
coedge $-1 $118 $118 $187 $188 reversed $73 $-1 #
face $-1 $189 $190 $41 $-1 $191 reversed single #
loop $-1 $-1 $192 $75 #
plane-surface $-1 29.914894313611541 -31.118897513438512 7.3011499621862441 0 -0.54463904215088732 0.83867056331134215 1 0 0 forward_v I I I I #
coedge $-1 $193 $194 $195 $196 reversed $76 $-1 #
face $-1 $-1 $197 $42 $-1 $198 forward single #
loop $-1 $199 $200 $78 #
cone-surface $-1 23.742099377278549 -27.101186121071933 6.895377483709046 0 0.54463904215088732 -0.83867056331134215 0.75 0 0 1 I I -0.70710678118654757 0.70710678118654757 0.75 forward I I I I #
loop $-1 $-1 $201 $54 #
coedge $-1 $127 $127 $202 $203 reversed $79 $-1 #
face $-1 $-1 $204 $43 $-1 $205 forward single #
loop $-1 $206 $207 $81 #
cone-surface $-1 29.914894313611555 -27.101186121071933 6.895377483709046 0 0.54463904215088732 -0.83867056331134215 0.75 0 0 1 I I -0.70710678118654757 0.70710678118654757 0.75 forward I I I I #
loop $-1 $-1 $208 $55 #
coedge $-1 $132 $132 $209 $210 reversed $82 $-1 #
face $-1 $-1 $211 $44 $-1 $212 forward single #
loop $-1 $213 $214 $84 #
cone-surface $-1 36.087689249944546 -27.101186121071933 6.895377483709046 0 0.54463904215088732 -0.83867056331134215 0.75 0 0 1 I I -0.70710678118654757 0.70710678118654757 0.75 forward I I I I #
loop $-1 $-1 $215 $56 #
coedge $-1 $137 $137 $216 $217 reversed $85 $-1 #
face $-1 $218 $219 $45 $-1 $220 reversed single #
loop $-1 $-1 $221 $87 #
plane-surface $-1 -1.6617402300019108 -12.889868885550626 47.276188923038703 0 0.70710678939079041 0.70710677298230451 1 0 0 forward_v I I I I #
coedge $-1 $222 $223 $224 $225 reversed $88 $-1 #
face $-1 $-1 $226 $46 $-1 $227 forward single #
loop $-1 $228 $229 $90 #
cone-surface $-1 -6.1254438333139518 23.185443430259042 2.7973279613022957 0 -0.70710678939079041 -0.70710677298230451 0.75 0 0 1 I I -0.70710678118654757 0.70710678118654757 0.75 forward I I I I #
loop $-1 $-1 $230 $58 #
coedge $-1 $146 $146 $231 $232 reversed $91 $-1 #
face $-1 $-1 $233 $47 $-1 $234 forward single #
loop $-1 $235 $236 $93 #
cone-surface $-1 2.8019633733101301 23.185443430259042 2.7973279613022957 0 -0.70710678939079041 -0.70710677298230451 0.75 0 0 1 I I -0.70710678118654757 0.70710678118654757 0.75 forward I I I I #
loop $-1 $-1 $237 $59 #
coedge $-1 $151 $151 $238 $239 reversed $94 $-1 #
face $-1 $240 $241 $36 $-1 $242 reversed single #
loop $-1 $-1 $243 $96 #
plane-surface $-1 0 -31.118897513438519 0 0 1 0 0 0 1 forward_v I I I I #
coedge $-1 $244 $245 $246 $247 forward $97 $-1 #
coedge $-1 $248 $99 $249 $250 forward $61 $-1 #
coedge $-1 $99 $248 $251 $252 forward $61 $-1 #
coedge $-1 $253 $254 $99 $159 reversed $255 $-1 #
edge $-1 $256 -31.118897513438519 $257 31.118897513438519 $158 $258 forward 7 unknown #
face $-1 $259 $260 $37 $-1 $261 reversed single #
loop $-1 $-1 $262 $100 #
plane-surface $-1 -43.534204458467229 -99.918907379186152 113.24387269109971 1 0 0 0 0.54463904215088732 -0.83867056331134215 forward_v I I I I #
coedge $-1 $263 $264 $265 $266 reversed $101 $-1 #
coedge $-1 $165 $103 $267 $268 reversed $64 $-1 #
coedge $-1 $103 $164 $263 $269 reversed $64 $-1 #
coedge $-1 $265 $270 $103 $167 forward $271 $-1 #
edge $-1 $272 18.840556176154557 $273 24.121726343283136 $166 $274 forward 7 unknown #
loop $-1 $-1 $173 $104 #
plane-surface $-1 -33.246212897912237 -31.118897513438512 7.3011499621862441 0 -0.54463904215088732 0.83867056331134215 1 0 0 forward_v I I I I #
loop $-1 $-1 $275 $66 #
coedge $-1 $171 $171 $172 $276 reversed $105 $-1 #
coedge $-1 $172 $172 $171 $276 forward $107 $-1 #
coedge $-1 $173 $173 $108 $174 forward $168 $-1 #
edge $-1 $277 -1.2899643833721733e-015 $277 6.2831853071795996 $173 $278 forward 7 unknown #
loop $-1 $-1 $180 $109 #
plane-surface $-1 -33.246212897912237 -31.118897513438512 7.3011499621862441 0 -0.54463904215088732 0.83867056331134215 1 0 0 forward_v I I I I #
loop $-1 $-1 $279 $69 #
coedge $-1 $178 $178 $179 $280 reversed $110 $-1 #
coedge $-1 $179 $179 $178 $280 forward $112 $-1 #
coedge $-1 $180 $180 $113 $181 forward $175 $-1 #
edge $-1 $281 -1.2899643833721733e-015 $281 6.2831853071795996 $180 $282 forward 7 unknown #
loop $-1 $-1 $187 $114 #
plane-surface $-1 -33.246212897912237 -31.118897513438512 7.3011499621862441 0 -0.54463904215088732 0.83867056331134215 1 0 0 forward_v I I I I #
loop $-1 $-1 $283 $72 #
coedge $-1 $185 $185 $186 $284 reversed $115 $-1 #
coedge $-1 $186 $186 $185 $284 forward $117 $-1 #
coedge $-1 $187 $187 $118 $188 forward $182 $-1 #
edge $-1 $285 -1.2899643833721733e-015 $285 6.2831853071795996 $187 $286 forward 7 unknown #
face $-1 $287 $288 $41 $-1 $289 reversed single #
loop $-1 $-1 $290 $119 #
plane-surface $-1 19.626902753056548 -99.918907379186152 113.24387269109971 1 0 0 0 0.54463904215088732 -0.83867056331134215 forward_v I I I I #
coedge $-1 $291 $292 $293 $294 reversed $120 $-1 #
coedge $-1 $194 $122 $295 $296 reversed $76 $-1 #
coedge $-1 $122 $193 $291 $297 reversed $76 $-1 #
coedge $-1 $293 $298 $122 $196 forward $299 $-1 #
edge $-1 $300 18.840556176154557 $301 24.121726343283136 $195 $302 forward 7 unknown #
loop $-1 $-1 $202 $123 #
plane-surface $-1 29.914894313611541 -31.118897513438512 7.3011499621862441 0 -0.54463904215088732 0.83867056331134215 1 0 0 forward_v I I I I #
loop $-1 $-1 $303 $78 #
coedge $-1 $200 $200 $201 $304 reversed $124 $-1 #
coedge $-1 $201 $201 $200 $304 forward $126 $-1 #
coedge $-1 $202 $202 $127 $203 forward $197 $-1 #
edge $-1 $305 -1.2899643833721733e-015 $305 6.2831853071795996 $202 $306 forward 7 unknown #
loop $-1 $-1 $209 $128 #
plane-surface $-1 29.914894313611541 -31.118897513438512 7.3011499621862441 0 -0.54463904215088732 0.83867056331134215 1 0 0 forward_v I I I I #
loop $-1 $-1 $307 $81 #
coedge $-1 $207 $207 $208 $308 reversed $129 $-1 #
coedge $-1 $208 $208 $207 $308 forward $131 $-1 #
coedge $-1 $209 $209 $132 $210 forward $204 $-1 #
edge $-1 $309 -1.2899643833721733e-015 $309 6.2831853071795996 $209 $310 forward 7 unknown #
loop $-1 $-1 $216 $133 #
plane-surface $-1 29.914894313611541 -31.118897513438512 7.3011499621862441 0 -0.54463904215088732 0.83867056331134215 1 0 0 forward_v I I I I #
loop $-1 $-1 $311 $84 #
coedge $-1 $214 $214 $215 $312 reversed $134 $-1 #
coedge $-1 $215 $215 $214 $312 forward $136 $-1 #
coedge $-1 $216 $216 $137 $217 forward $211 $-1 #
edge $-1 $313 -1.2899643833721733e-015 $313 6.2831853071795996 $216 $314 forward 7 unknown #
face $-1 $315 $316 $45 $-1 $317 reversed single #
loop $-1 $-1 $318 $138 #
plane-surface $-1 8.75356817772618 76.433426583865526 136.59948231969858 -1 0 0 0 0.70710678939079041 0.70710677298230451 forward_v I I I I #
coedge $-1 $319 $320 $321 $322 reversed $139 $-1 #
coedge $-1 $223 $141 $323 $324 reversed $88 $-1 #
coedge $-1 $141 $222 $319 $325 reversed $88 $-1 #
coedge $-1 $321 $326 $141 $225 forward $327 $-1 #
edge $-1 $328 7.0978157784942439 $329 14.561176136057824 $224 $330 forward 7 unknown #
loop $-1 $-1 $231 $142 #
plane-surface $-1 -1.6617402300019108 -12.889868885550626 47.276188923038703 0 0.70710678939079041 0.70710677298230451 1 0 0 forward_v I I I I #
loop $-1 $-1 $331 $90 #
coedge $-1 $229 $229 $230 $332 reversed $143 $-1 #
coedge $-1 $230 $230 $229 $332 forward $145 $-1 #
coedge $-1 $231 $231 $146 $232 forward $226 $-1 #
edge $-1 $333 -8.3738273207332487e-016 $333 6.2831853071795996 $231 $334 forward 7 unknown #
loop $-1 $-1 $238 $147 #
plane-surface $-1 -1.6617402300019108 -12.889868885550626 47.276188923038703 0 0.70710678939079041 0.70710677298230451 1 0 0 forward_v I I I I #
loop $-1 $-1 $335 $93 #
coedge $-1 $236 $236 $237 $336 reversed $148 $-1 #
coedge $-1 $237 $237 $236 $336 forward $150 $-1 #
coedge $-1 $238 $238 $151 $239 forward $233 $-1 #
edge $-1 $337 -8.3738273207332487e-016 $337 6.2831853071795996 $238 $338 forward 7 unknown #
face $-1 $339 $340 $36 $-1 $341 reversed single #
loop $-1 $-1 $342 $152 #
plane-surface $-1 -63.161107211523785 0 0 1 0 0 0 0 -1 forward_v I I I I #
coedge $-1 $343 $251 $344 $345 forward $153 $-1 #
coedge $-1 $346 $155 $343 $347 forward $97 $-1 #
coedge $-1 $155 $346 $348 $349 forward $97 $-1 #
coedge $-1 $254 $253 $155 $247 reversed $255 $-1 #
edge $-1 $350 -31.118897513438519 $351 31.118897513438519 $246 $352 forward 7 unknown #
coedge $-1 $157 $156 $353 $354 forward $61 $-1 #
coedge $-1 $355 $356 $156 $250 reversed $340 $-1 #
edge $-1 $257 -63.161107211523785 $357 63.161107211523785 $249 $358 forward 7 unknown #
coedge $-1 $243 $359 $157 $252 reversed $153 $-1 #
edge $-1 $360 -63.161107211523785 $256 63.161107211523785 $251 $361 forward 7 unknown #
coedge $-1 $246 $158 $359 $362 forward $255 $-1 #
coedge $-1 $158 $246 $355 $363 reversed $255 $-1 #
loop $-1 $-1 $253 $339 #
vertex $-1 $159 $364 #
vertex $-1 $159 $365 #
straight-curve $-1 63.161107211523785 0 10.730782033573204 0 1 0 I I #
face $-1 $-1 $271 $37 $-1 $366 forward single #
loop $-1 $-1 $367 $160 #
plane-surface $-1 0 -31.118897513438519 0 0 1 0 0 0 1 forward_v I I I I #
coedge $-1 $368 $369 $370 $371 reversed $161 $-1 #
coedge $-1 $372 $163 $165 $269 forward $101 $-1 #
coedge $-1 $163 $372 $368 $373 forward $101 $-1 #
coedge $-1 $370 $166 $163 $266 forward $271 $-1 #
edge $-1 $273 6.3351148884011259 $374 26.911098009511111 $265 $375 forward 7 unknown #
coedge $-1 $376 $377 $164 $268 forward $260 $-1 #
edge $-1 $378 -49.320786383363618 $272 -45.891154311976649 $267 $379 forward 7 unknown #
edge $-1 $273 -6.2970734852989318 $378 8.3777959833898778e-015 $165 $380 forward 7 unknown #
coedge $-1 $166 $370 $376 $381 forward $271 $-1 #
loop $-1 $-1 $370 $259 #
vertex $-1 $268 $382 #
vertex $-1 $167 $383 #
straight-curve $-1 -22.958221337357244 -49.959453689593076 10.730782033573206 0 1 0 I I #
coedge $-1 $275 $275 $-1 $384 reversed $170 $-1 #
edge $-1 $385 0 $385 6.2831853071796004 $171 $386 forward 7 unknown #
vertex $-1 $174 $387 #
ellipse-curve $-1 -39.419007834245228 -28.478312429874226 9.0159659978797233 0 -0.54463904215088732 0.83867056331134215 1.5 0 0 1 I I #
coedge $-1 $279 $279 $-1 $388 reversed $177 $-1 #
edge $-1 $389 0 $389 6.2831853071796004 $178 $390 forward 7 unknown #
vertex $-1 $181 $391 #
ellipse-curve $-1 -33.24621289791223 -28.478312429874226 9.0159659978797233 0 -0.54463904215088732 0.83867056331134215 1.5 0 0 1 I I #
coedge $-1 $283 $283 $-1 $392 reversed $184 $-1 #
edge $-1 $393 0 $393 6.2831853071796004 $185 $394 forward 7 unknown #
vertex $-1 $188 $395 #
ellipse-curve $-1 -27.073417961579239 -28.478312429874226 9.0159659978797233 0 -0.54463904215088732 0.83867056331134215 1.5 0 0 1 I I #
face $-1 $-1 $299 $41 $-1 $396 forward single #
loop $-1 $-1 $397 $189 #
plane-surface $-1 0 -31.118897513438519 0 0 1 0 0 0 1 forward_v I I I I #
coedge $-1 $398 $399 $400 $401 reversed $190 $-1 #
coedge $-1 $402 $192 $194 $297 forward $120 $-1 #
coedge $-1 $192 $402 $398 $403 forward $120 $-1 #
coedge $-1 $400 $195 $192 $294 forward $299 $-1 #
edge $-1 $301 -25.245438717360763 $404 -4.6694555962507778 $293 $405 forward 7 unknown #
coedge $-1 $406 $407 $193 $296 forward $288 $-1 #
edge $-1 $408 -49.320786383363618 $300 -45.891154311976649 $295 $409 forward 7 unknown #
edge $-1 $301 -6.2970734852989318 $408 8.3777959833898778e-015 $194 $410 forward 7 unknown #
coedge $-1 $195 $400 $406 $411 forward $299 $-1 #
loop $-1 $-1 $400 $287 #
vertex $-1 $296 $412 #
vertex $-1 $196 $413 #
straight-curve $-1 40.202885874166533 -49.959453689593076 10.730782033573206 0 1 0 I I #
coedge $-1 $303 $303 $-1 $414 reversed $199 $-1 #
edge $-1 $415 0 $415 6.2831853071796004 $200 $416 forward 7 unknown #
vertex $-1 $203 $417 #
ellipse-curve $-1 23.742099377278549 -28.478312429874226 9.0159659978797233 0 -0.54463904215088732 0.83867056331134215 1.5 0 0 1 I I #
coedge $-1 $307 $307 $-1 $418 reversed $206 $-1 #
edge $-1 $419 0 $419 6.2831853071796004 $207 $420 forward 7 unknown #
vertex $-1 $210 $421 #
ellipse-curve $-1 29.914894313611555 -28.478312429874226 9.0159659978797233 0 -0.54463904215088732 0.83867056331134215 1.5 0 0 1 I I #
coedge $-1 $311 $311 $-1 $422 reversed $213 $-1 #
edge $-1 $423 0 $423 6.2831853071796004 $214 $424 forward 7 unknown #
vertex $-1 $217 $425 #
ellipse-curve $-1 36.087689249944546 -28.478312429874226 9.0159659978797233 0 -0.54463904215088732 0.83867056331134215 1.5 0 0 1 I I #
face $-1 $-1 $327 $45 $-1 $426 forward single #
loop $-1 $-1 $427 $218 #
plane-surface $-1 0 31.118897513438519 0 0 -1 0 0 0 -1 forward_v I I I I #
coedge $-1 $428 $429 $430 $431 reversed $219 $-1 #
coedge $-1 $432 $221 $223 $325 forward $139 $-1 #
coedge $-1 $221 $432 $428 $433 forward $139 $-1 #
coedge $-1 $430 $224 $221 $322 forward $327 $-1 #
edge $-1 $329 -11.246178522729046 $434 9.5844382927271354 $321 $435 forward 7 unknown #
coedge $-1 $436 $437 $222 $324 forward $316 $-1 #
edge $-1 $438 -65.032319657027713 $328 -57.568959126276084 $323 $439 forward 7 unknown #
edge $-1 $329 51.683009465870484 $438 62.237795026877059 $223 $440 forward 7 unknown #
coedge $-1 $224 $430 $436 $441 forward $327 $-1 #
loop $-1 $-1 $430 $315 #
vertex $-1 $324 $442 #
vertex $-1 $225 $443 #
straight-curve $-1 -12.077048637730002 38.216713291932763 10.730782033573206 0 -1 0 I I #
coedge $-1 $331 $331 $-1 $444 reversed $228 $-1 #
edge $-1 $445 0 $445 6.2831853071796004 $229 $446 forward 7 unknown #
vertex $-1 $232 $447 #
ellipse-curve $-1 -6.1254438333139518 27.387217334656732 6.9991017681973879 0 0.70710678939079041 0.70710677298230451 1.5 0 0 1 I I #
coedge $-1 $335 $335 $-1 $448 reversed $235 $-1 #
edge $-1 $449 0 $449 6.2831853071796004 $236 $450 forward 7 unknown #
vertex $-1 $239 $451 #
ellipse-curve $-1 2.8019633733101301 27.387217334656732 6.9991017681973879 0 0.70710678939079041 0.70710677298230451 1.5 0 0 1 I I #
face $-1 $-1 $255 $36 $-1 $452 reversed single #
loop $-1 $-1 $355 $240 #
plane-surface $-1 0 31.118897513438519 0 0 -1 0 0 0 -1 forward_v I I I I #
coedge $-1 $453 $353 $356 $454 forward $241 $-1 #
coedge $-1 $359 $243 $244 $347 reversed $153 $-1 #
coedge $-1 $353 $453 $243 $345 reversed $241 $-1 #
edge $-1 $360 -10.730782033573204 $455 10.730782033573204 $344 $456 forward 7 unknown #
coedge $-1 $245 $244 $453 $457 forward $97 $-1 #
edge $-1 $351 -63.161107211523785 $455 63.161107211523785 $343 $458 forward 7 unknown #
coedge $-1 $356 $355 $245 $349 reversed $340 $-1 #
edge $-1 $459 -63.161107211523785 $350 63.161107211523785 $348 $460 forward 7 unknown #
vertex $-1 $247 $461 #
vertex $-1 $362 $462 #
straight-curve $-1 63.161107211523785 0 -10.730782033573204 0 -1 0 I I #
coedge $-1 $342 $344 $248 $354 reversed $241 $-1 #
edge $-1 $357 -31.118897513438519 $360 31.118897513438519 $353 $463 forward 7 unknown #
coedge $-1 $348 $249 $254 $363 forward $340 $-1 #
coedge $-1 $249 $348 $342 $454 reversed $340 $-1 #
vertex $-1 $250 $464 #
straight-curve $-1 0 31.118897513438519 10.730782033573204 -1 0 0 I I #
coedge $-1 $251 $343 $253 $362 reversed $153 $-1 #
vertex $-1 $354 $465 #
straight-curve $-1 0 -31.118897513438519 10.730782033573204 1 0 0 I I #
edge $-1 $256 -10.730782033573204 $351 10.730782033573204 $253 $466 forward 7 unknown #
edge $-1 $257 -10.730782033573204 $350 10.730782033573204 $254 $467 forward 7 unknown #
point $-1 63.161107211523785 -31.118897513438519 10.730782033573204 #
point $-1 63.161107211523785 31.118897513438519 10.730782033573204 #
plane-surface $-1 0 0 10.730782033573204 0 0 1 1 0 0 forward_v I I I I #
coedge $-1 $377 $376 $369 $468 forward $260 $-1 #
coedge $-1 $369 $262 $264 $373 reversed $161 $-1 #
coedge $-1 $262 $368 $367 $468 reversed $161 $-1 #
coedge $-1 $270 $265 $262 $371 forward $271 $-1 #
edge $-1 $374 -24.121726343283136 $469 -18.840556176154557 $370 $470 forward 7 unknown #
coedge $-1 $264 $263 $377 $471 reversed $101 $-1 #
edge $-1 $472 -8.3777959833898778e-015 $374 6.2970734852989318 $368 $473 forward 7 unknown #
vertex $-1 $266 $474 #
straight-curve $-1 -16.623106448956118 -25.83772734630994 10.730782033573204 -1 0 0 I I #
coedge $-1 $367 $267 $270 $381 reversed $260 $-1 #
coedge $-1 $267 $367 $372 $471 forward $260 $-1 #
vertex $-1 $268 $475 #
straight-curve $-1 -22.958221337357244 -31.118897513438519 56.621936345549855 0 0 1 I I #
straight-curve $-1 -22.958221337357244 -31.118897513438512 7.3011499621862441 0 -0.83867056331134215 -0.54463904215088732 I I #
edge $-1 $469 -43.534204458467229 $272 -22.958221337357244 $376 $476 forward 7 unknown #
point $-1 -22.958221337357244 -31.118897513438519 10.730782033573204 #
point $-1 -22.958221337357244 -25.83772734630994 10.730782033573204 #
edge $-1 $477 1 $477 0 $275 $-1 forward 7 unknown #
vertex $-1 $276 $478 #
ellipse-curve $-1 -39.419007834245228 -27.509665402685098 7.5243804061925523 0 -0.54463904215088732 0.83867056331134215 1.5 0 0 1 I I #
point $-1 -37.919007834245228 -28.478312429874226 9.0159659978797198 #
edge $-1 $479 1 $479 0 $279 $-1 forward 7 unknown #
vertex $-1 $280 $480 #
ellipse-curve $-1 -33.24621289791223 -27.509665402685098 7.5243804061925523 0 -0.54463904215088732 0.83867056331134215 1.5 0 0 1 I I #
point $-1 -31.74621289791223 -28.478312429874226 9.0159659978797198 #
edge $-1 $481 1 $481 0 $283 $-1 forward 7 unknown #
vertex $-1 $284 $482 #
ellipse-curve $-1 -27.073417961579239 -27.509665402685098 7.5243804061925523 0 -0.54463904215088732 0.83867056331134215 1.5 0 0 1 I I #
point $-1 -25.573417961579239 -28.478312429874226 9.0159659978797198 #
plane-surface $-1 0 0 10.730782033573204 0 0 1 1 0 0 forward_v I I I I #
coedge $-1 $407 $406 $399 $483 forward $288 $-1 #
coedge $-1 $399 $290 $292 $403 reversed $190 $-1 #
coedge $-1 $290 $398 $397 $483 reversed $190 $-1 #
coedge $-1 $298 $293 $290 $401 forward $299 $-1 #
edge $-1 $404 -24.121726343283136 $484 -18.840556176154557 $400 $485 forward 7 unknown #
coedge $-1 $292 $291 $407 $486 reversed $120 $-1 #
edge $-1 $487 -8.3777959833898778e-015 $404 6.2970734852989318 $398 $488 forward 7 unknown #
vertex $-1 $294 $489 #
straight-curve $-1 14.95744715680577 -25.83772734630994 10.730782033573204 -1 0 0 I I #
coedge $-1 $397 $295 $298 $411 reversed $288 $-1 #
coedge $-1 $295 $397 $402 $486 forward $288 $-1 #
vertex $-1 $296 $490 #
straight-curve $-1 40.202885874166533 -31.118897513438519 56.621936345549855 0 0 1 I I #
straight-curve $-1 40.202885874166533 -31.118897513438512 7.3011499621862441 0 -0.83867056331134215 -0.54463904215088732 I I #
edge $-1 $484 19.626902753056548 $300 40.202885874166533 $406 $491 forward 7 unknown #
point $-1 40.202885874166533 -31.118897513438519 10.730782033573204 #
point $-1 40.202885874166533 -25.83772734630994 10.730782033573204 #
edge $-1 $492 1 $492 0 $303 $-1 forward 7 unknown #
vertex $-1 $304 $493 #
ellipse-curve $-1 23.742099377278549 -27.509665402685098 7.5243804061925523 0 -0.54463904215088732 0.83867056331134215 1.5 0 0 1 I I #
point $-1 25.242099377278549 -28.478312429874226 9.0159659978797198 #
edge $-1 $494 1 $494 0 $307 $-1 forward 7 unknown #
vertex $-1 $308 $495 #
ellipse-curve $-1 29.914894313611555 -27.509665402685098 7.5243804061925523 0 -0.54463904215088732 0.83867056331134215 1.5 0 0 1 I I #
point $-1 31.414894313611555 -28.478312429874226 9.0159659978797198 #
edge $-1 $496 1 $496 0 $311 $-1 forward 7 unknown #
vertex $-1 $312 $497 #
ellipse-curve $-1 36.087689249944546 -27.509665402685098 7.5243804061925523 0 -0.54463904215088732 0.83867056331134215 1.5 0 0 1 I I #
point $-1 37.587689249944546 -28.478312429874226 9.0159659978797198 #
plane-surface $-1 0 0 10.730782033573204 0 0 1 1 0 0 forward_v I I I I #
coedge $-1 $437 $436 $429 $498 forward $316 $-1 #
coedge $-1 $429 $318 $320 $433 reversed $219 $-1 #
coedge $-1 $318 $428 $427 $498 reversed $219 $-1 #
coedge $-1 $326 $321 $318 $431 forward $327 $-1 #
edge $-1 $434 -14.561176136057824 $499 -7.0978157784942439 $430 $500 forward 7 unknown #
coedge $-1 $320 $319 $437 $501 reversed $139 $-1 #
edge $-1 $502 -62.237795026877059 $434 -51.683009465870484 $428 $503 forward 7 unknown #
vertex $-1 $322 $504 #
straight-curve $-1 -0.83087011500095542 23.655537155874942 10.730782033573202 1 0 0 I I #
coedge $-1 $427 $323 $326 $441 reversed $316 $-1 #
coedge $-1 $323 $427 $432 $501 forward $316 $-1 #
vertex $-1 $324 $505 #
straight-curve $-1 -12.077048637730002 31.118897513438519 68.29974115984929 0 0 1 I I #
straight-curve $-1 -12.077048637730002 -12.889868885550626 47.276188923038703 0 0.70710677298230451 -0.70710678939079041 I I #
edge $-1 $499 -8.75356817772618 $328 12.077048637730002 $436 $506 forward 7 unknown #
point $-1 -12.077048637730002 31.118897513438519 10.730782033573204 #
point $-1 -12.077048637730002 23.655537155874939 10.730782033573206 #
edge $-1 $507 1 $507 0 $331 $-1 forward 7 unknown #
vertex $-1 $332 $508 #
ellipse-curve $-1 -6.1254438333139518 23.715773522302136 3.3276580410390242 0 0.70710678939079041 0.70710677298230451 1.5 0 0 1 I I #
point $-1 -4.6254438333139518 27.387217334656739 6.9991017681973968 #
edge $-1 $509 1 $509 0 $335 $-1 forward 7 unknown #
vertex $-1 $336 $510 #
ellipse-curve $-1 2.8019633733101301 23.715773522302136 3.3276580410390242 0 0.70710678939079041 0.70710677298230451 1.5 0 0 1 I I #
point $-1 4.3019633733101301 27.387217334656739 6.9991017681973968 #
plane-surface $-1 63.161107211523785 0 0 -1 0 0 0 0 1 forward_v I I I I #
coedge $-1 $344 $342 $346 $457 reversed $241 $-1 #
edge $-1 $357 -10.730782033573204 $459 10.730782033573204 $356 $511 forward 7 unknown #
vertex $-1 $457 $512 #
straight-curve $-1 -63.161107211523785 -31.118897513438519 0 0 0 -1 I I #
edge $-1 $455 -31.118897513438519 $459 31.118897513438519 $453 $513 forward 7 unknown #
straight-curve $-1 0 -31.118897513438519 -10.730782033573204 -1 0 0 I I #
vertex $-1 $349 $514 #
straight-curve $-1 0 31.118897513438519 -10.730782033573204 1 0 0 I I #
point $-1 63.161107211523785 31.118897513438519 -10.730782033573204 #
point $-1 63.161107211523785 -31.118897513438519 -10.730782033573204 #
straight-curve $-1 -63.161107211523785 0 10.730782033573204 0 -1 0 I I #
point $-1 -63.161107211523785 31.118897513438519 10.730782033573204 #
point $-1 -63.161107211523785 -31.118897513438519 10.730782033573204 #
straight-curve $-1 63.161107211523785 -31.118897513438519 0 0 0 -1 I I #
straight-curve $-1 63.161107211523785 31.118897513438519 0 0 0 -1 I I #
edge $-1 $469 45.891154311976649 $472 49.320786383363618 $367 $515 forward 7 unknown #
vertex $-1 $381 $516 #
straight-curve $-1 -43.534204458467229 -49.959453689593076 10.730782033573206 0 -1 0 I I #
edge $-1 $472 -26.911098009511111 $378 -6.3351148884011259 $377 $517 forward 7 unknown #
vertex $-1 $471 $518 #
straight-curve $-1 -43.534204458467229 -31.118897513438512 7.3011499621862441 0 0.83867056331134215 0.54463904215088732 I I #
point $-1 -43.534204458467229 -25.83772734630994 10.730782033573204 #
point $-1 -22.958221337357244 -31.118897513438519 7.3011499621862397 #
straight-curve $-1 0 -31.118897513438519 10.730782033573204 1 0 0 I I #
vertex $-1 $384 $519 #
point $-1 -37.919007834245228 -27.509665402685098 7.5243804061925523 #
vertex $-1 $388 $520 #
point $-1 -31.74621289791223 -27.509665402685098 7.5243804061925523 #
vertex $-1 $392 $521 #
point $-1 -25.573417961579239 -27.509665402685098 7.5243804061925523 #
edge $-1 $484 45.891154311976649 $487 49.320786383363618 $397 $522 forward 7 unknown #
vertex $-1 $411 $523 #
straight-curve $-1 19.626902753056548 -49.959453689593076 10.730782033573206 0 -1 0 I I #
edge $-1 $487 4.6694555962507778 $408 25.245438717360763 $407 $524 forward 7 unknown #
vertex $-1 $486 $525 #
straight-curve $-1 19.626902753056548 -31.118897513438512 7.3011499621862441 0 0.83867056331134215 0.54463904215088732 I I #
point $-1 19.626902753056548 -25.83772734630994 10.730782033573204 #
point $-1 40.202885874166533 -31.118897513438519 7.3011499621862397 #
straight-curve $-1 0 -31.118897513438519 10.730782033573204 1 0 0 I I #
vertex $-1 $414 $526 #
point $-1 25.242099377278549 -27.509665402685098 7.5243804061925523 #
vertex $-1 $418 $527 #
point $-1 31.414894313611555 -27.509665402685098 7.5243804061925523 #
vertex $-1 $422 $528 #
point $-1 37.587689249944546 -27.509665402685098 7.5243804061925523 #
edge $-1 $499 57.568959126276084 $502 65.032319657027713 $427 $529 forward 7 unknown #
vertex $-1 $441 $530 #
straight-curve $-1 8.75356817772618 38.216713291932763 10.730782033573206 0 1 0 I I #
edge $-1 $502 -9.5844382927271354 $438 11.246178522729046 $437 $531 forward 7 unknown #
vertex $-1 $501 $532 #
straight-curve $-1 8.75356817772618 -12.889868885550626 47.276188923038703 0 -0.70710677298230451 0.70710678939079041 I I #
point $-1 8.75356817772618 23.655537155874939 10.730782033573206 #
point $-1 -12.077048637730002 31.118897513438519 3.267421502821577 #
straight-curve $-1 0 31.118897513438519 10.730782033573204 -1 0 0 I I #
vertex $-1 $444 $533 #
point $-1 -4.6254438333139518 23.715773522302136 3.3276580410390242 #
vertex $-1 $448 $534 #
point $-1 4.3019633733101301 23.715773522302136 3.3276580410390242 #
straight-curve $-1 -63.161107211523785 31.118897513438519 0 0 0 -1 I I #
point $-1 -63.161107211523785 -31.118897513438519 -10.730782033573204 #
straight-curve $-1 -63.161107211523785 0 -10.730782033573204 0 1 0 I I #
point $-1 -63.161107211523785 31.118897513438519 -10.730782033573204 #
straight-curve $-1 -43.534204458467229 -31.118897513438519 56.621936345549855 0 0 -1 I I #
point $-1 -43.534204458467229 -31.118897513438519 10.730782033573204 #
straight-curve $-1 -16.623106448956118 -31.118897513438519 7.3011499621862406 1 0 0 I I #
point $-1 -43.534204458467229 -31.118897513438519 7.3011499621862397 #
point $-1 -39.419007834245228 -26.692706839458769 6.2663745612255397 #
point $-1 -33.24621289791223 -26.692706839458769 6.2663745612255397 #
point $-1 -27.073417961579239 -26.692706839458769 6.2663745612255397 #
straight-curve $-1 19.626902753056548 -31.118897513438519 56.621936345549855 0 0 -1 I I #
point $-1 19.626902753056548 -31.118897513438519 10.730782033573204 #
straight-curve $-1 14.95744715680577 -31.118897513438519 7.3011499621862406 1 0 0 I I #
point $-1 19.626902753056548 -31.118897513438519 7.3011499621862397 #
point $-1 23.742099377278549 -26.692706839458769 6.2663745612255397 #
point $-1 29.914894313611555 -26.692706839458769 6.2663745612255397 #
point $-1 36.087689249944546 -26.692706839458769 6.2663745612255397 #
straight-curve $-1 8.75356817772618 31.118897513438519 68.29974115984929 0 0 -1 I I #
point $-1 8.75356817772618 31.118897513438519 10.730782033573204 #
straight-curve $-1 -0.83087011500095542 31.118897513438519 3.2674215028215698 -1 0 0 I I #
point $-1 8.75356817772618 31.118897513438519 3.267421502821577 #
point $-1 -6.1254438333139518 22.655113338215948 2.2669978815655671 #
point $-1 2.8019633733101301 22.655113338215948 2.2669978815655671 #
End-of-ACIS-data 