500 0 5 0           
7 Unknown 11 ACIS 5.0 NT 24 Thu Mar 25 22:14:52 1999 
-1 9.9999999999999995e-007 1e-010 
body $-1 $5 $-1 $6 #
body $-1 $7 $-1 $8 #
body $-1 $9 $-1 $10 #
body $-1 $11 $-1 $12 #
body $-1 $13 $-1 $14 #
lump $-1 $-1 $15 $0 #
transform $-1 1 0 0 0 1 0 0 0 1 63.693350016785182 37.291915079257187 18.518263430558715 1 rotate no_reflect no_shear #
lump $-1 $-1 $16 $1 #
transform $-1 1 0 0 0 1 0 0 0 1 63.693350016785182 37.291915079257187 18.518263430558715 1 rotate no_reflect no_shear #
lump $-1 $-1 $17 $2 #
transform $-1 1 0 0 0 1 0 0 0 1 63.693350016785182 37.291915079257187 18.518263430558715 1 rotate no_reflect no_shear #
lump $-1 $-1 $18 $3 #
transform $-1 1 0 0 0 1 0 0 0 1 63.693350016785182 37.291915079257187 18.518263430558715 1 rotate no_reflect no_shear #
lump $-1 $-1 $19 $4 #
transform $-1 1 0 0 0 1 0 0 0 1 63.693350016785182 37.291915079257187 18.518263430558715 1 rotate no_reflect no_shear #
shell $-1 $-1 $-1 $20 $-1 $5 #
shell $-1 $-1 $-1 $21 $-1 $7 #
shell $-1 $-1 $-1 $22 $-1 $9 #
shell $-1 $-1 $-1 $23 $-1 $11 #
shell $-1 $-1 $-1 $24 $-1 $13 #
face $-1 $25 $26 $15 $-1 $27 forward single #
face $-1 $28 $29 $16 $-1 $30 forward single #
face $-1 $31 $32 $17 $-1 $33 reversed single #
face $-1 $34 $35 $18 $-1 $36 forward single #
face $-1 $37 $38 $19 $-1 $39 forward single #
face $-1 $40 $41 $15 $-1 $42 reversed single #
loop $-1 $-1 $43 $20 #
plane-surface $-1 0 0 18.518263430558715 0 0 1 1 0 0 forward_v I I I I #
face $-1 $44 $45 $16 $-1 $46 reversed single #
loop $-1 $-1 $47 $21 #
plane-surface $-1 -56.101890582888437 0 15.350487831902397 0 0 1 1 0 0 forward_v I I I I #
face $-1 $48 $49 $17 $-1 $50 reversed single #
loop $-1 $-1 $51 $22 #
plane-surface $-1 38.621039394101537 22.806031308640364 190.66154864533203 0 1 0 0.6018150307709319 0 0.79863550430605224 forward_v I I I I #
face $-1 $52 $53 $18 $-1 $54 forward single #
loop $-1 $55 $56 $23 #
cone-surface $-1 58.438518801820521 26.944855243102317 13.925229607071481 -0.6018150307709319 0 -0.79863550430605224 0.79863550430605224 0 -0.6018150307709319 1 I I 0 1 1 forward I I I I #
face $-1 $57 $58 $19 $-1 $59 forward single #
loop $-1 $60 $61 $24 #
cone-surface $-1 58.438518801820521 33.153091144795233 13.925229607071481 -0.6018150307709319 0 -0.79863550430605224 0.79863550430605224 0 -0.6018150307709319 1 I I 0 1 1 forward I I I I #
face $-1 $62 $63 $15 $-1 $64 reversed single #
loop $-1 $-1 $65 $25 #
plane-surface $-1 0 0 -18.518263430558715 0 0 1 1 0 0 forward_v I I I I #
coedge $-1 $66 $67 $68 $69 forward $26 $-1 #
face $-1 $70 $71 $16 $-1 $72 reversed single #
loop $-1 $-1 $73 $28 #
plane-surface $-1 -56.101890582888437 0 5.8321219042875416 0 0 1 1 0 0 forward_v I I I I #
coedge $-1 $74 $75 $76 $77 forward $29 $-1 #
face $-1 $78 $79 $17 $-1 $80 reversed single #
loop $-1 $-1 $81 $31 #
plane-surface $-1 -38.042191406409081 30.048973193948775 88.92600722213777 0.6018150307709319 0 0.79863550430605224 0.79863550430605224 0 -0.6018150307709319 forward_v I I I I #
coedge $-1 $82 $83 $84 $85 reversed $32 $-1 #
face $-1 $-1 $86 $18 $-1 $87 forward single #
loop $-1 $88 $89 $34 #
cone-surface $-1 57.033435810043635 26.944855243102317 12.06062153589701 -0.6018150307709319 0 -0.79863550430605224 0.39931775215302612 0 -0.30090751538546595 1 I I -0.70710678118654624 0.70710678118654879 0.5 forward I I I I #
loop $-1 $-1 $90 $23 #
coedge $-1 $56 $56 $91 $92 reversed $35 $-1 #
face $-1 $-1 $93 $19 $-1 $94 forward single #
loop $-1 $95 $96 $37 #
cone-surface $-1 57.033435810043635 33.153091144795233 12.06062153589701 -0.6018150307709319 0 -0.79863550430605224 0.39931775215302612 0 -0.30090751538546595 1 I I -0.70710678118654624 0.70710678118654879 0.5 forward I I I I #
loop $-1 $-1 $97 $24 #
coedge $-1 $61 $61 $98 $99 reversed $38 $-1 #
face $-1 $100 $101 $15 $-1 $102 reversed single #
loop $-1 $-1 $103 $40 #
plane-surface $-1 0 -37.291915079257187 0 0 1 0 0 0 1 forward_v I I I I #
coedge $-1 $104 $105 $106 $107 forward $41 $-1 #
coedge $-1 $108 $43 $109 $110 forward $26 $-1 #
coedge $-1 $43 $108 $111 $112 forward $26 $-1 #
coedge $-1 $113 $114 $43 $69 reversed $115 $-1 #
edge $-1 $116 -37.291915079257187 $117 37.291915079257187 $68 $118 forward 7 unknown #
face $-1 $119 $120 $16 $-1 $121 reversed single #
loop $-1 $-1 $122 $44 #
plane-surface $-1 -48.510431148991692 0 10.591304868094969 -1 0 0 0 0 1 forward_v I I I I #
coedge $-1 $123 $124 $125 $126 forward $45 $-1 #
coedge $-1 $127 $47 $128 $129 reversed $29 $-1 #
coedge $-1 $47 $127 $130 $131 reversed $29 $-1 #
coedge $-1 $122 $132 $47 $77 reversed $71 $-1 #
edge $-1 $133 -37.291915079257187 $134 37.291915079257187 $76 $135 forward 7 unknown #
face $-1 $136 $137 $17 $-1 $138 forward single #
loop $-1 $-1 $84 $48 #
plane-surface $-1 63.693350016785182 0 0 -1 0 0 0 0 1 forward_v I I I I #
coedge $-1 $139 $140 $141 $142 reversed $49 $-1 #
coedge $-1 $83 $51 $143 $144 reversed $32 $-1 #
coedge $-1 $51 $82 $139 $145 reversed $32 $-1 #
coedge $-1 $141 $146 $51 $85 forward $79 $-1 #
edge $-1 $147 76.812510892107298 $148 83.067997901038865 $84 $149 forward 7 unknown #
loop $-1 $-1 $91 $52 #
plane-surface $-1 -38.042191406409081 30.048973193948775 88.92600722213777 0.6018150307709319 0 0.79863550430605224 0.79863550430605224 0 -0.6018150307709319 forward_v I I I I #
loop $-1 $-1 $150 $34 #
coedge $-1 $89 $89 $90 $151 reversed $53 $-1 #
coedge $-1 $90 $90 $89 $151 forward $55 $-1 #
coedge $-1 $91 $91 $56 $92 forward $86 $-1 #
edge $-1 $152 0 $152 6.2831853071796004 $91 $153 forward 7 unknown #
loop $-1 $-1 $98 $57 #
plane-surface $-1 -38.042191406409081 30.048973193948775 88.92600722213777 0.6018150307709319 0 0.79863550430605224 0.79863550430605224 0 -0.6018150307709319 forward_v I I I I #
loop $-1 $-1 $154 $37 #
coedge $-1 $96 $96 $97 $155 reversed $58 $-1 #
coedge $-1 $97 $97 $96 $155 forward $60 $-1 #
coedge $-1 $98 $98 $61 $99 forward $93 $-1 #
edge $-1 $156 0 $156 6.2831853071796004 $98 $157 forward 7 unknown #
face $-1 $158 $159 $15 $-1 $160 reversed single #
loop $-1 $-1 $161 $62 #
plane-surface $-1 -63.693350016785182 0 0 1 0 0 0 0 -1 forward_v I I I I #
coedge $-1 $162 $111 $163 $164 forward $63 $-1 #
coedge $-1 $165 $65 $162 $166 forward $41 $-1 #
coedge $-1 $65 $165 $167 $168 forward $41 $-1 #
coedge $-1 $114 $113 $65 $107 reversed $115 $-1 #
edge $-1 $169 -37.291915079257187 $170 37.291915079257187 $106 $171 forward 7 unknown #
coedge $-1 $67 $66 $172 $173 forward $26 $-1 #
coedge $-1 $174 $175 $66 $110 reversed $159 $-1 #
edge $-1 $117 -63.693350016785182 $176 63.693350016785182 $109 $177 forward 7 unknown #
coedge $-1 $103 $178 $67 $112 reversed $63 $-1 #
edge $-1 $179 -63.693350016785182 $116 63.693350016785182 $111 $180 forward 7 unknown #
coedge $-1 $106 $68 $178 $181 forward $115 $-1 #
coedge $-1 $68 $106 $174 $182 reversed $115 $-1 #
loop $-1 $-1 $113 $158 #
vertex $-1 $69 $183 #
vertex $-1 $69 $184 #
straight-curve $-1 63.693350016785182 0 18.518263430558715 0 1 0 I I #
face $-1 $185 $186 $16 $-1 $187 reversed single #
loop $-1 $-1 $188 $70 #
plane-surface $-1 0 -37.291915079257187 0 0 1 0 0 0 1 forward_v I I I I #
coedge $-1 $125 $76 $189 $190 reversed $71 $-1 #
coedge $-1 $191 $73 $188 $192 reversed $45 $-1 #
coedge $-1 $73 $191 $193 $194 reversed $45 $-1 #
coedge $-1 $132 $122 $73 $126 reversed $71 $-1 #
edge $-1 $195 -37.291915079257187 $196 37.291915079257187 $125 $197 forward 7 unknown #
coedge $-1 $75 $74 $198 $199 reversed $29 $-1 #
coedge $-1 $200 $201 $74 $129 forward $202 $-1 #
edge $-1 $203 -35.642404725340967 $134 -20.459485857547474 $128 $204 forward 7 unknown #
coedge $-1 $205 $189 $75 $131 forward $120 $-1 #
edge $-1 $133 20.459485857547474 $206 35.642404725340967 $130 $207 forward 7 unknown #
coedge $-1 $76 $125 $200 $208 reversed $71 $-1 #
vertex $-1 $131 $209 #
vertex $-1 $129 $210 #
straight-curve $-1 -48.510431148991692 0 15.350487831902397 0 1 0 I I #
face $-1 $-1 $211 $17 $-1 $212 reversed single #
loop $-1 $-1 $143 $78 #
plane-surface $-1 0 0 18.518263430558715 0 0 1 1 0 0 forward_v I I I I #
coedge $-1 $213 $81 $83 $145 forward $49 $-1 #
coedge $-1 $81 $213 $214 $215 reversed $49 $-1 #
coedge $-1 $216 $84 $81 $142 forward $79 $-1 #
edge $-1 $148 7.7815447116659762 $217 22.267428482282799 $141 $218 forward 7 unknown #
coedge $-1 $219 $220 $82 $144 forward $137 $-1 #
edge $-1 $221 36.081518842587897 $147 44.38283031973441 $143 $222 forward 7 unknown #
edge $-1 $148 -127.38670003357036 $221 -116.99233184885053 $83 $223 forward 7 unknown #
coedge $-1 $84 $216 $219 $224 reversed $79 $-1 #
vertex $-1 $224 $225 #
vertex $-1 $85 $226 #
straight-curve $-1 63.693350016785182 22.806031308640364 95.330774322666016 0 0 -1 I I #
coedge $-1 $150 $150 $-1 $227 reversed $88 $-1 #
edge $-1 $228 0 $228 6.2831853071796004 $89 $229 forward 7 unknown #
vertex $-1 $92 $230 #
ellipse-curve $-1 59.542694278211947 26.944855243102317 15.390519926092926 0.6018150307709319 0 0.79863550430605224 0.79863550430605224 0 -0.6018150307709319 1 I I #
coedge $-1 $154 $154 $-1 $231 reversed $95 $-1 #
edge $-1 $232 0 $232 6.2831853071796004 $96 $233 forward 7 unknown #
vertex $-1 $99 $234 #
ellipse-curve $-1 59.542694278211947 33.153091144795233 15.390519926092926 0.6018150307709319 0 0.79863550430605224 0.79863550430605224 0 -0.6018150307709319 1 I I #
face $-1 $-1 $115 $15 $-1 $235 reversed single #
loop $-1 $-1 $174 $100 #
plane-surface $-1 0 37.291915079257187 0 0 -1 0 0 0 -1 forward_v I I I I #
coedge $-1 $236 $172 $175 $237 forward $101 $-1 #
coedge $-1 $178 $103 $104 $166 reversed $63 $-1 #
coedge $-1 $172 $236 $103 $164 reversed $101 $-1 #
edge $-1 $179 -18.518263430558715 $238 18.518263430558715 $163 $239 forward 7 unknown #
coedge $-1 $105 $104 $236 $240 forward $41 $-1 #
edge $-1 $170 -63.693350016785182 $238 63.693350016785182 $162 $241 forward 7 unknown #
coedge $-1 $175 $174 $105 $168 reversed $159 $-1 #
edge $-1 $242 -63.693350016785182 $169 63.693350016785182 $167 $243 forward 7 unknown #
vertex $-1 $107 $244 #
vertex $-1 $181 $245 #
straight-curve $-1 63.693350016785182 0 -18.518263430558715 0 -1 0 I I #
coedge $-1 $161 $163 $108 $173 reversed $101 $-1 #
edge $-1 $176 -37.291915079257187 $179 37.291915079257187 $172 $246 forward 7 unknown #
coedge $-1 $167 $109 $114 $182 forward $159 $-1 #
coedge $-1 $109 $167 $161 $237 reversed $159 $-1 #
vertex $-1 $110 $247 #
straight-curve $-1 0 37.291915079257187 18.518263430558715 -1 0 0 I I #
coedge $-1 $111 $162 $113 $181 reversed $63 $-1 #
vertex $-1 $173 $248 #
straight-curve $-1 0 -37.291915079257187 18.518263430558715 1 0 0 I I #
edge $-1 $116 -18.518263430558715 $170 18.518263430558715 $113 $249 forward 7 unknown #
edge $-1 $117 -18.518263430558715 $169 18.518263430558715 $114 $250 forward 7 unknown #
point $-1 63.693350016785182 -37.291915079257187 18.518263430558715 #
point $-1 63.693350016785182 37.291915079257187 18.518263430558715 #
face $-1 $-1 $202 $16 $-1 $251 reversed single #
loop $-1 $-1 $252 $119 #
plane-surface $-1 -63.693350016785182 0 0 1 0 0 0 0 -1 forward_v I I I I #
coedge $-1 $189 $205 $123 $192 forward $120 $-1 #
coedge $-1 $130 $188 $122 $190 forward $120 $-1 #
edge $-1 $196 0.53646947024005698 $133 10.054835397854912 $189 $253 forward 7 unknown #
coedge $-1 $124 $123 $252 $254 reversed $45 $-1 #
edge $-1 $255 -35.642404725340967 $196 -20.459485857547474 $188 $256 forward 7 unknown #
coedge $-1 $201 $200 $124 $194 forward $202 $-1 #
edge $-1 $195 20.459485857547474 $257 35.642404725340967 $193 $258 forward 7 unknown #
vertex $-1 $194 $259 #
vertex $-1 $192 $260 #
straight-curve $-1 -48.510431148991692 0 5.8321219042875416 0 -1 0 I I #
coedge $-1 $261 $262 $127 $199 forward $186 $-1 #
edge $-1 $206 -37.291915079257187 $203 37.291915079257187 $198 $263 forward 7 unknown #
coedge $-1 $193 $128 $132 $208 forward $202 $-1 #
coedge $-1 $128 $193 $261 $264 reversed $202 $-1 #
loop $-1 $-1 $193 $185 #
vertex $-1 $264 $265 #
straight-curve $-1 -28.050945291444219 37.291915079257187 15.350487831902397 1 0 0 I I #
coedge $-1 $188 $130 $262 $266 forward $120 $-1 #
vertex $-1 $266 $267 #
straight-curve $-1 -28.050945291444219 -37.291915079257187 15.350487831902397 -1 0 0 I I #
edge $-1 $134 -10.054835397854912 $195 -0.53646947024005698 $200 $268 forward 7 unknown #
point $-1 -48.510431148991692 -37.291915079257187 15.350487831902397 #
point $-1 -48.510431148991692 37.291915079257187 15.350487831902397 #
loop $-1 $-1 $214 $136 #
plane-surface $-1 0 37.291915079257187 0 0 -1 0 0 0 -1 forward_v I I I I #
coedge $-1 $140 $139 $220 $269 reversed $49 $-1 #
coedge $-1 $270 $271 $140 $215 forward $211 $-1 #
edge $-1 $217 -85.437273787824452 $272 -75.042905603104614 $214 $273 forward 7 unknown #
coedge $-1 $146 $141 $271 $274 reversed $79 $-1 #
vertex $-1 $142 $275 #
straight-curve $-1 63.693350016785182 15.024486596974388 12.262776421627159 0 1 0 I I #
coedge $-1 $276 $143 $146 $224 forward $137 $-1 #
coedge $-1 $143 $276 $213 $269 forward $137 $-1 #
vertex $-1 $144 $277 #
straight-curve $-1 19.310519697050768 22.806031308640364 18.518263430558719 1 0 0 I I #
straight-curve $-1 -38.042191406409081 22.806031308640364 88.92600722213777 -0.79863550430605224 0 0.6018150307709319 I I #
edge $-1 $147 22.806031308640364 $278 37.291915079257187 $146 $279 forward 7 unknown #
point $-1 63.693350016785182 22.806031308640364 18.518263430558715 #
point $-1 63.693350016785182 22.806031308640364 12.262776421627152 #
edge $-1 $280 1 $280 0 $150 $-1 forward 7 unknown #
vertex $-1 $151 $281 #
ellipse-curve $-1 57.334343325429103 26.944855243102317 12.459939288050037 0.6018150307709319 0 0.79863550430605224 0.79863550430605224 0 -0.6018150307709319 1 I I #
point $-1 60.341329782517995 26.944855243102317 14.788704895321988 #
edge $-1 $282 1 $282 0 $154 $-1 forward 7 unknown #
vertex $-1 $155 $283 #
ellipse-curve $-1 57.334343325429103 33.153091144795233 12.459939288050037 0.6018150307709319 0 0.79863550430605224 0.79863550430605224 0 -0.6018150307709319 1 I I #
point $-1 60.341329782517995 33.153091144795233 14.788704895321988 #
plane-surface $-1 63.693350016785182 0 0 -1 0 0 0 0 1 forward_v I I I I #
coedge $-1 $163 $161 $165 $240 reversed $101 $-1 #
edge $-1 $176 -18.518263430558715 $242 18.518263430558715 $175 $284 forward 7 unknown #
vertex $-1 $240 $285 #
straight-curve $-1 -63.693350016785182 -37.291915079257187 0 0 0 -1 I I #
edge $-1 $238 -37.291915079257187 $242 37.291915079257187 $236 $286 forward 7 unknown #
straight-curve $-1 0 -37.291915079257187 -18.518263430558715 -1 0 0 I I #
vertex $-1 $168 $287 #
straight-curve $-1 0 37.291915079257187 -18.518263430558715 1 0 0 I I #
point $-1 63.693350016785182 37.291915079257187 -18.518263430558715 #
point $-1 63.693350016785182 -37.291915079257187 -18.518263430558715 #
straight-curve $-1 -63.693350016785182 0 18.518263430558715 0 -1 0 I I #
point $-1 -63.693350016785182 37.291915079257187 18.518263430558715 #
point $-1 -63.693350016785182 -37.291915079257187 18.518263430558715 #
straight-curve $-1 63.693350016785182 -37.291915079257187 0 0 0 -1 I I #
straight-curve $-1 63.693350016785182 37.291915079257187 0 0 0 -1 I I #
plane-surface $-1 0 37.291915079257187 0 0 -1 0 0 0 -1 forward_v I I I I #
coedge $-1 $262 $261 $191 $254 forward $186 $-1 #
straight-curve $-1 -48.510431148991692 -37.291915079257187 5.2956524340474846 0 0 1 I I #
edge $-1 $257 -37.291915079257187 $255 37.291915079257187 $252 $288 forward 7 unknown #
vertex $-1 $192 $289 #
straight-curve $-1 -28.050945291444219 -37.291915079257187 5.8321219042875416 1 0 0 I I #
vertex $-1 $194 $290 #
straight-curve $-1 -28.050945291444219 37.291915079257187 5.8321219042875416 -1 0 0 I I #
point $-1 -48.510431148991692 37.291915079257187 5.8321219042875416 #
point $-1 -48.510431148991692 -37.291915079257187 5.8321219042875416 #
coedge $-1 $252 $198 $201 $264 forward $186 $-1 #
coedge $-1 $198 $252 $205 $266 reversed $186 $-1 #
straight-curve $-1 -63.693350016785182 0 15.350487831902397 0 1 0 I I #
edge $-1 $203 -15.350487831902397 $257 -5.8321219042875416 $201 $291 forward 7 unknown #
point $-1 -63.693350016785182 37.291915079257187 15.350487831902397 #
edge $-1 $206 -15.350487831902397 $255 -5.8321219042875416 $262 $292 forward 7 unknown #
point $-1 -63.693350016785182 -37.291915079257187 15.350487831902397 #
straight-curve $-1 -48.510431148991692 37.291915079257187 5.2956524340474846 0 0 -1 I I #
edge $-1 $272 -22.267428482282799 $221 -7.7815447116659762 $220 $293 forward 7 unknown #
coedge $-1 $271 $214 $276 $294 reversed $211 $-1 #
coedge $-1 $214 $270 $216 $274 forward $211 $-1 #
vertex $-1 $215 $295 #
straight-curve $-1 -4.5398902212882479 37.291915079257187 63.680211975231259 -0.79863550430605224 0 0.6018150307709319 I I #
edge $-1 $278 -18.518263430558715 $217 -12.262776421627157 $216 $296 forward 7 unknown #
point $-1 63.693350016785182 37.291915079257187 12.262776421627157 #
coedge $-1 $220 $219 $270 $294 forward $137 $-1 #
point $-1 55.392038539638669 22.806031308640364 18.518263430558719 #
vertex $-1 $224 $297 #
straight-curve $-1 63.693350016785182 0 18.518263430558715 0 1 0 I I #
vertex $-1 $227 $298 #
point $-1 58.132978829735151 26.944855243102317 11.858124257279105 #
vertex $-1 $231 $299 #
point $-1 58.132978829735151 33.153091144795233 11.858124257279105 #
straight-curve $-1 -63.693350016785182 37.291915079257187 0 0 0 -1 I I #
point $-1 -63.693350016785182 -37.291915079257187 -18.518263430558715 #
straight-curve $-1 -63.693350016785182 0 -18.518263430558715 0 1 0 I I #
point $-1 -63.693350016785182 37.291915079257187 -18.518263430558715 #
straight-curve $-1 -63.693350016785182 0 5.8321219042875416 0 -1 0 I I #
point $-1 -63.693350016785182 -37.291915079257187 5.8321219042875416 #
point $-1 -63.693350016785182 37.291915079257187 5.8321219042875416 #
straight-curve $-1 -63.693350016785182 37.291915079257187 0 0 0 -1 I I #
straight-curve $-1 -63.693350016785182 -37.291915079257187 0 0 0 -1 I I #
straight-curve $-1 55.392038539638676 15.024486596974388 18.518263430558719 0 -1 0 I I #
edge $-1 $278 -63.693350016785182 $272 -55.392038539638669 $270 $300 forward 7 unknown #
point $-1 55.392038539638669 37.291915079257187 18.518263430558719 #
straight-curve $-1 63.693350016785182 37.291915079257187 0 0 0 -1 I I #
point $-1 63.693350016785182 37.291915079257187 18.518263430558715 #
point $-1 56.732528294658167 26.944855243102317 11.661303783743982 #
point $-1 56.732528294658167 33.153091144795233 11.661303783743982 #
straight-curve $-1 0 37.291915079257187 18.518263430558715 -1 0 0 I I #
End-of-ACIS-data 