500 0 5 0           
7 Unknown 11 ACIS 5.0 NT 24 Thu Mar 25 15:31:54 1999 
-1 9.9999999999999995e-007 1e-010 
body $-1 $5 $-1 $6 #
body $-1 $7 $-1 $8 #
body $-1 $9 $-1 $10 #
body $-1 $11 $-1 $12 #
body $-1 $13 $-1 $14 #
lump $-1 $-1 $15 $0 #
transform $-1 1 0 0 0 1 0 0 0 1 64.087649159215061 37.929397071746266 12.191649793351642 1 rotate no_reflect no_shear #
lump $-1 $-1 $16 $1 #
transform $-1 1 0 0 0 1 0 0 0 1 64.087649159215061 37.929397071746266 12.191649793351642 1 rotate no_reflect no_shear #
lump $-1 $-1 $17 $2 #
transform $-1 1 0 0 0 1 0 0 0 1 64.087649159215061 37.929397071746266 12.191649793351642 1 rotate no_reflect no_shear #
lump $-1 $-1 $18 $3 #
transform $-1 1 0 0 0 1 0 0 0 1 64.087649159215061 37.929397071746266 12.191649793351642 1 rotate no_reflect no_shear #
lump $-1 $-1 $19 $4 #
transform $-1 1 0 0 0 1 0 0 0 1 64.087649159215061 37.929397071746266 12.191649793351642 1 rotate no_reflect no_shear #
shell $-1 $-1 $-1 $20 $-1 $5 #
shell $-1 $-1 $-1 $21 $-1 $7 #
shell $-1 $-1 $-1 $22 $-1 $9 #
shell $-1 $-1 $-1 $23 $-1 $11 #
shell $-1 $-1 $-1 $24 $-1 $13 #
face $-1 $25 $26 $15 $-1 $27 forward single #
face $-1 $28 $29 $16 $-1 $30 forward single #
face $-1 $31 $32 $17 $-1 $33 reversed single #
face $-1 $34 $35 $18 $-1 $36 forward single #
face $-1 $37 $38 $19 $-1 $39 forward single #
face $-1 $40 $41 $15 $-1 $42 reversed single #
loop $-1 $-1 $43 $20 #
plane-surface $-1 0 0 12.191649793351642 0 0 1 1 0 0 forward_v I I I I #
face $-1 $44 $45 $16 $-1 $46 reversed single #
loop $-1 $-1 $47 $21 #
plane-surface $-1 0 -37.929397071746266 0 0 1 0 0 0 1 forward_v I I I I #
face $-1 $48 $49 $17 $-1 $50 reversed single #
loop $-1 $-1 $51 $22 #
plane-surface $-1 8.4057609555411545 54.48369185648852 156.17793999178093 1 0 0 0 -0.6018150307709319 -0.79863550430605224 forward_v I I I I #
face $-1 $52 $53 $18 $-1 $54 forward single #
loop $-1 $55 $56 $23 #
cone-surface $-1 18.812833623179117 34.073713393239132 8.6092635989378916 0 -0.6018150307709319 -0.79863550430605224 1 0 0 1 I I 0 1 1 forward I I I I #
face $-1 $57 $58 $19 $-1 $59 forward single #
loop $-1 $60 $61 $24 #
cone-surface $-1 34.423442624636053 34.073713393239132 8.6092635989378916 0 -0.6018150307709319 -0.79863550430605224 1 0 0 1 I I 0 1 1 forward I I I I #
face $-1 $62 $63 $15 $-1 $64 reversed single #
loop $-1 $-1 $65 $25 #
plane-surface $-1 0 0 -12.191649793351642 0 0 1 1 0 0 forward_v I I I I #
coedge $-1 $66 $67 $68 $69 forward $26 $-1 #
face $-1 $70 $71 $16 $-1 $72 reversed single #
loop $-1 $-1 $73 $28 #
plane-surface $-1 0 0 -12.191649793351642 0 0 1 1 0 0 forward_v I I I I #
coedge $-1 $74 $75 $76 $77 forward $29 $-1 #
face $-1 $78 $79 $17 $-1 $80 reversed single #
loop $-1 $-1 $81 $31 #
plane-surface $-1 26.618138123907585 -22.654129245090886 53.812595979662802 0 0.6018150307709319 0.79863550430605224 1 0 0 forward_v I I I I #
coedge $-1 $82 $83 $84 $85 reversed $32 $-1 #
face $-1 $-1 $86 $18 $-1 $87 forward single #
loop $-1 $88 $89 $34 #
cone-surface $-1 18.812833623179117 32.592455352171115 6.6435678250714059 0 -0.6018150307709319 -0.79863550430605224 0.5 0 0 1 I I -0.70710678118654691 0.70710678118654813 0.5 forward I I I I #
loop $-1 $-1 $90 $23 #
coedge $-1 $56 $56 $91 $92 reversed $35 $-1 #
face $-1 $-1 $93 $19 $-1 $94 forward single #
loop $-1 $95 $96 $37 #
cone-surface $-1 34.423442624636053 32.592455352171115 6.6435678250714059 0 -0.6018150307709319 -0.79863550430605224 0.5 0 0 1 I I -0.70710678118654691 0.70710678118654813 0.5 forward I I I I #
loop $-1 $-1 $97 $24 #
coedge $-1 $61 $61 $98 $99 reversed $38 $-1 #
face $-1 $100 $101 $15 $-1 $102 reversed single #
loop $-1 $-1 $103 $40 #
plane-surface $-1 0 -37.929397071746266 0 0 1 0 0 0 1 forward_v I I I I #
coedge $-1 $104 $105 $106 $107 forward $41 $-1 #
coedge $-1 $108 $43 $109 $110 forward $26 $-1 #
coedge $-1 $43 $108 $111 $112 forward $26 $-1 #
coedge $-1 $113 $114 $43 $69 reversed $115 $-1 #
edge $-1 $116 -37.929397071746266 $117 37.929397071746266 $68 $118 forward 7 unknown #
face $-1 $119 $120 $16 $-1 $121 forward single #
loop $-1 $-1 $122 $44 #
plane-surface $-1 64.087649159215061 0 0 -1 0 0 0 0 1 forward_v I I I I #
coedge $-1 $123 $124 $125 $126 forward $45 $-1 #
coedge $-1 $125 $47 $122 $127 reversed $29 $-1 #
coedge $-1 $47 $125 $128 $129 reversed $29 $-1 #
coedge $-1 $130 $131 $47 $77 reversed $120 $-1 #
edge $-1 $132 -64.087649159215061 $133 64.087649159215061 $76 $134 forward 7 unknown #
face $-1 $135 $136 $17 $-1 $137 forward single #
loop $-1 $-1 $138 $48 #
plane-surface $-1 44.830515292274015 54.48369185648852 156.17793999178093 -1 0 0 0 0.6018150307709319 0.79863550430605224 forward_v I I I I #
coedge $-1 $139 $140 $141 $142 reversed $49 $-1 #
coedge $-1 $83 $51 $143 $144 reversed $32 $-1 #
coedge $-1 $51 $82 $139 $145 reversed $32 $-1 #
coedge $-1 $141 $146 $51 $85 forward $136 $-1 #
edge $-1 $147 -10.687551143502006 $148 -5.3368848378528355 $84 $149 forward 7 unknown #
loop $-1 $-1 $91 $52 #
plane-surface $-1 26.618138123907585 -22.654129245090886 53.812595979662802 0 0.6018150307709319 0.79863550430605224 1 0 0 forward_v I I I I #
loop $-1 $-1 $150 $34 #
coedge $-1 $89 $89 $90 $151 reversed $53 $-1 #
coedge $-1 $90 $90 $89 $151 forward $55 $-1 #
coedge $-1 $91 $91 $56 $92 forward $86 $-1 #
edge $-1 $152 1.0690382459638171e-015 $152 6.2831853071796013 $91 $153 forward 7 unknown #
loop $-1 $-1 $98 $57 #
plane-surface $-1 26.618138123907585 -22.654129245090886 53.812595979662802 0 0.6018150307709319 0.79863550430605224 1 0 0 forward_v I I I I #
loop $-1 $-1 $154 $37 #
coedge $-1 $96 $96 $97 $155 reversed $58 $-1 #
coedge $-1 $97 $97 $96 $155 forward $60 $-1 #
coedge $-1 $98 $98 $61 $99 forward $93 $-1 #
edge $-1 $156 1.0690382459638171e-015 $156 6.2831853071796013 $98 $157 forward 7 unknown #
face $-1 $158 $159 $15 $-1 $160 reversed single #
loop $-1 $-1 $161 $62 #
plane-surface $-1 -64.087649159215061 0 0 1 0 0 0 0 -1 forward_v I I I I #
coedge $-1 $111 $162 $113 $163 reversed $63 $-1 #
coedge $-1 $164 $65 $162 $165 forward $41 $-1 #
coedge $-1 $65 $164 $166 $167 forward $41 $-1 #
coedge $-1 $114 $113 $65 $107 reversed $115 $-1 #
edge $-1 $168 -37.929397071746266 $169 37.929397071746266 $106 $170 forward 7 unknown #
coedge $-1 $67 $66 $171 $172 forward $26 $-1 #
coedge $-1 $173 $174 $66 $110 reversed $159 $-1 #
edge $-1 $117 -64.087649159215061 $175 64.087649159215061 $109 $176 forward 7 unknown #
coedge $-1 $177 $103 $67 $112 reversed $63 $-1 #
edge $-1 $178 -64.087649159215061 $116 64.087649159215061 $111 $179 forward 7 unknown #
coedge $-1 $106 $68 $103 $163 forward $115 $-1 #
coedge $-1 $68 $106 $173 $180 reversed $115 $-1 #
loop $-1 $-1 $113 $158 #
vertex $-1 $69 $181 #
vertex $-1 $69 $182 #
straight-curve $-1 64.087649159215061 0 12.191649793351642 0 1 0 I I #
face $-1 $183 $184 $16 $-1 $185 reversed single #
loop $-1 $-1 $131 $70 #
plane-surface $-1 0 -43.312099566510668 -5.9311090739420704 0 0 1 1 0 0 forward_v I I I I #
coedge $-1 $186 $187 $74 $127 forward $71 $-1 #
coedge $-1 $188 $73 $187 $189 forward $45 $-1 #
coedge $-1 $73 $188 $190 $191 forward $45 $-1 #
coedge $-1 $75 $74 $73 $126 reversed $29 $-1 #
edge $-1 $192 -64.087649159215061 $193 64.087649159215061 $73 $194 forward 7 unknown #
edge $-1 $193 -12.191649793351642 $133 -5.9311090739420704 $122 $195 forward 7 unknown #
coedge $-1 $190 $196 $75 $129 forward $197 $-1 #
edge $-1 $132 5.9311090739420704 $192 12.191649793351642 $128 $198 forward 7 unknown #
coedge $-1 $199 $76 $196 $200 forward $120 $-1 #
coedge $-1 $76 $199 $186 $201 forward $120 $-1 #
vertex $-1 $129 $202 #
vertex $-1 $201 $203 #
straight-curve $-1 0 -37.929397071746266 -5.9311090739420704 1 0 0 I I #
face $-1 $-1 $204 $17 $-1 $205 reversed single #
loop $-1 $-1 $84 $78 #
plane-surface $-1 0 0 12.191649793351642 0 0 1 1 0 0 forward_v I I I I #
coedge $-1 $206 $207 $208 $209 reversed $79 $-1 #
coedge $-1 $210 $81 $83 $145 forward $49 $-1 #
coedge $-1 $81 $210 $206 $211 forward $49 $-1 #
coedge $-1 $208 $84 $81 $142 forward $136 $-1 #
edge $-1 $148 -4.9033081064126378 $212 31.521446230320223 $141 $213 forward 7 unknown #
coedge $-1 $214 $215 $82 $144 forward $204 $-1 #
edge $-1 $216 -69.9293365479394 $147 -65.897320202538822 $143 $217 forward 7 unknown #
edge $-1 $148 69.159034019130843 $216 75.858794143492531 $83 $218 forward 7 unknown #
coedge $-1 $84 $208 $214 $219 forward $136 $-1 #
vertex $-1 $144 $220 #
vertex $-1 $85 $221 #
straight-curve $-1 8.4057609555411545 27.24184592824426 12.191649793351644 0 -1 0 I I #
coedge $-1 $150 $150 $-1 $222 reversed $88 $-1 #
edge $-1 $223 0 $223 6.2831853071796004 $89 $224 forward 7 unknown #
vertex $-1 $92 $225 #
ellipse-curve $-1 18.812833623179117 35.25406391892168 10.175641620651351 0 0.6018150307709319 0.79863550430605224 1 0 0 1 I I #
coedge $-1 $154 $154 $-1 $226 reversed $95 $-1 #
edge $-1 $227 0 $227 6.2831853071796004 $96 $228 forward 7 unknown #
vertex $-1 $99 $229 #
ellipse-curve $-1 34.423442624636053 35.25406391892168 10.175641620651351 0 0.6018150307709319 0.79863550430605224 1 0 0 1 I I #
face $-1 $-1 $115 $15 $-1 $230 reversed single #
loop $-1 $-1 $173 $100 #
plane-surface $-1 0 37.929397071746266 0 0 -1 0 0 0 -1 forward_v I I I I #
coedge $-1 $231 $171 $174 $232 forward $101 $-1 #
coedge $-1 $103 $177 $104 $165 reversed $63 $-1 #
edge $-1 $116 -12.191649793351642 $169 12.191649793351642 $113 $233 forward 7 unknown #
coedge $-1 $105 $104 $231 $234 forward $41 $-1 #
edge $-1 $169 -64.087649159215061 $235 64.087649159215061 $162 $236 forward 7 unknown #
coedge $-1 $174 $173 $105 $167 reversed $159 $-1 #
edge $-1 $237 -64.087649159215061 $168 64.087649159215061 $166 $238 forward 7 unknown #
vertex $-1 $107 $239 #
vertex $-1 $163 $240 #
straight-curve $-1 64.087649159215061 0 -12.191649793351642 0 -1 0 I I #
coedge $-1 $161 $241 $108 $172 reversed $101 $-1 #
edge $-1 $175 -37.929397071746266 $178 37.929397071746266 $171 $242 forward 7 unknown #
coedge $-1 $166 $109 $114 $180 forward $159 $-1 #
coedge $-1 $109 $166 $161 $232 reversed $159 $-1 #
vertex $-1 $110 $243 #
straight-curve $-1 0 37.929397071746266 12.191649793351642 -1 0 0 I I #
coedge $-1 $162 $111 $241 $244 forward $63 $-1 #
vertex $-1 $172 $245 #
straight-curve $-1 0 -37.929397071746266 12.191649793351642 1 0 0 I I #
edge $-1 $117 -12.191649793351642 $168 12.191649793351642 $114 $246 forward 7 unknown #
point $-1 64.087649159215061 -37.929397071746266 12.191649793351642 #
point $-1 64.087649159215061 37.929397071746266 12.191649793351642 #
face $-1 $-1 $197 $16 $-1 $247 reversed single #
loop $-1 $-1 $248 $119 #
plane-surface $-1 0 -48.69480206127507 -9.0613794336468558 0 1 0 0 0 1 forward_v I I I I #
coedge $-1 $249 $122 $131 $201 reversed $71 $-1 #
coedge $-1 $122 $249 $123 $189 reversed $71 $-1 #
coedge $-1 $124 $123 $250 $251 forward $45 $-1 #
edge $-1 $193 37.929397071746266 $252 48.69480206127507 $187 $253 forward 7 unknown #
coedge $-1 $254 $128 $124 $191 reversed $197 $-1 #
edge $-1 $255 -48.69480206127507 $192 -37.929397071746266 $190 $256 forward 7 unknown #
vertex $-1 $129 $257 #
vertex $-1 $189 $258 #
straight-curve $-1 0 -37.929397071746266 -12.191649793351642 1 0 0 I I #
straight-curve $-1 64.087649159215061 -37.929397071746266 0 0 0 1 I I #
coedge $-1 $128 $254 $130 $200 reversed $197 $-1 #
loop $-1 $-1 $128 $183 #
straight-curve $-1 -64.087649159215061 -37.929397071746266 0 0 0 -1 I I #
coedge $-1 $131 $130 $259 $260 forward $120 $-1 #
edge $-1 $132 -5.382702494764402 $261 5.382702494764402 $196 $262 forward 7 unknown #
edge $-1 $263 -5.382702494764402 $133 5.382702494764402 $186 $264 forward 7 unknown #
point $-1 -64.087649159215061 -37.929397071746266 -5.9311090739420704 #
point $-1 64.087649159215061 -37.929397071746266 -5.9311090739420704 #
loop $-1 $-1 $143 $135 #
plane-surface $-1 0 37.929397071746266 0 0 -1 0 0 0 -1 forward_v I I I I #
coedge $-1 $207 $138 $140 $211 reversed $79 $-1 #
coedge $-1 $138 $206 $265 $266 reversed $79 $-1 #
coedge $-1 $146 $141 $138 $209 forward $136 $-1 #
edge $-1 $212 5.3368848378528355 $267 10.687551143502006 $208 $268 forward 7 unknown #
coedge $-1 $140 $139 $215 $269 reversed $49 $-1 #
edge $-1 $270 -75.858794143492531 $212 -69.159034019130843 $206 $271 forward 7 unknown #
vertex $-1 $142 $272 #
straight-curve $-1 13.309069061953792 32.578730766097109 12.19164979335164 1 0 0 I I #
coedge $-1 $265 $143 $146 $219 reversed $204 $-1 #
coedge $-1 $143 $265 $210 $269 forward $204 $-1 #
vertex $-1 $144 $273 #
straight-curve $-1 8.4057609555411545 37.929397071746266 78.088969995890466 0 0 1 I I #
straight-curve $-1 8.4057609555411545 -22.654129245090886 53.812595979662802 0 0.79863550430605224 -0.6018150307709319 I I #
edge $-1 $267 -44.830515292274015 $147 -8.4057609555411545 $214 $274 forward 7 unknown #
point $-1 8.4057609555411545 37.929397071746266 12.191649793351642 #
point $-1 8.4057609555411545 32.578730766097095 12.191649793351651 #
edge $-1 $275 1 $275 0 $150 $-1 forward 7 unknown #
vertex $-1 $151 $276 #
ellipse-curve $-1 18.812833623179117 32.893362867556583 7.0428855772244328 0 0.6018150307709319 0.79863550430605224 1 0 0 1 I I #
point $-1 19.812833623179117 35.25406391892168 10.17564162065135 #
edge $-1 $277 1 $277 0 $154 $-1 forward 7 unknown #
vertex $-1 $155 $278 #
ellipse-curve $-1 34.423442624636053 32.893362867556583 7.0428855772244328 0 0.6018150307709319 0.79863550430605224 1 0 0 1 I I #
point $-1 35.423442624636053 35.25406391892168 10.17564162065135 #
plane-surface $-1 64.087649159215061 0 0 -1 0 0 0 0 1 forward_v I I I I #
coedge $-1 $241 $161 $164 $234 reversed $101 $-1 #
edge $-1 $175 -12.191649793351642 $237 12.191649793351642 $174 $279 forward 7 unknown #
straight-curve $-1 64.087649159215061 -37.929397071746266 0 0 0 -1 I I #
edge $-1 $235 -37.929397071746266 $237 37.929397071746266 $231 $280 forward 7 unknown #
vertex $-1 $234 $281 #
straight-curve $-1 0 -37.929397071746266 -12.191649793351642 -1 0 0 I I #
vertex $-1 $167 $282 #
straight-curve $-1 0 37.929397071746266 -12.191649793351642 1 0 0 I I #
point $-1 64.087649159215061 37.929397071746266 -12.191649793351642 #
point $-1 64.087649159215061 -37.929397071746266 -12.191649793351642 #
coedge $-1 $171 $231 $177 $244 reversed $101 $-1 #
straight-curve $-1 -64.087649159215061 0 12.191649793351642 0 -1 0 I I #
point $-1 -64.087649159215061 37.929397071746266 12.191649793351642 #
edge $-1 $178 -12.191649793351642 $235 12.191649793351642 $241 $283 forward 7 unknown #
point $-1 -64.087649159215061 -37.929397071746266 12.191649793351642 #
straight-curve $-1 64.087649159215061 37.929397071746266 0 0 0 -1 I I #
plane-surface $-1 -64.087649159215061 0 0 1 0 0 0 0 -1 forward_v I I I I #
coedge $-1 $250 $259 $254 $284 forward $184 $-1 #
coedge $-1 $187 $186 $285 $286 forward $71 $-1 #
coedge $-1 $285 $248 $188 $251 reversed $184 $-1 #
edge $-1 $252 -64.087649159215061 $255 64.087649159215061 $250 $287 forward 7 unknown #
vertex $-1 $286 $288 #
straight-curve $-1 64.087649159215061 0 -12.191649793351642 0 -1 0 I I #
coedge $-1 $196 $190 $248 $284 reversed $197 $-1 #
vertex $-1 $191 $289 #
straight-curve $-1 -64.087649159215061 0 -12.191649793351642 0 1 0 I I #
point $-1 -64.087649159215061 -37.929397071746266 -12.191649793351642 #
point $-1 64.087649159215061 -37.929397071746266 -12.191649793351642 #
coedge $-1 $248 $285 $199 $260 reversed $184 $-1 #
edge $-1 $261 -64.087649159215061 $263 64.087649159215061 $259 $290 forward 7 unknown #
vertex $-1 $200 $291 #
straight-curve $-1 -64.087649159215061 -43.312099566510668 -5.9311090739420704 0 -1 0 I I #
vertex $-1 $201 $292 #
straight-curve $-1 64.087649159215061 -43.312099566510668 -5.9311090739420704 0 1 0 I I #
coedge $-1 $215 $214 $207 $266 forward $204 $-1 #
edge $-1 $267 65.897320202538822 $270 69.9293365479394 $265 $293 forward 7 unknown #
vertex $-1 $219 $294 #
straight-curve $-1 44.830515292274015 27.24184592824426 12.191649793351644 0 1 0 I I #
edge $-1 $270 -31.521446230320223 $216 4.9033081064126378 $215 $295 forward 7 unknown #
vertex $-1 $269 $296 #
straight-curve $-1 44.830515292274015 -22.654129245090886 53.812595979662802 0 -0.79863550430605224 0.6018150307709319 I I #
point $-1 44.830515292274015 32.578730766097095 12.191649793351651 #
point $-1 8.4057609555411545 37.929397071746266 8.1596334479510659 #
straight-curve $-1 0 37.929397071746266 12.191649793351642 -1 0 0 I I #
vertex $-1 $222 $297 #
point $-1 19.812833623179117 32.893362867556583 7.0428855772244328 #
vertex $-1 $226 $298 #
point $-1 35.423442624636053 32.893362867556583 7.0428855772244328 #
straight-curve $-1 -64.087649159215061 37.929397071746266 0 0 0 -1 I I #
straight-curve $-1 -64.087649159215061 0 -12.191649793351642 0 1 0 I I #
point $-1 -64.087649159215061 -37.929397071746266 -12.191649793351642 #
point $-1 -64.087649159215061 37.929397071746266 -12.191649793351642 #
straight-curve $-1 -64.087649159215061 -37.929397071746266 0 0 0 -1 I I #
edge $-1 $261 -3.1302703597047854 $255 3.1302703597047845 $254 $299 forward 7 unknown #
coedge $-1 $259 $250 $249 $286 reversed $184 $-1 #
edge $-1 $263 -3.1302703597047854 $252 3.1302703597047845 $249 $300 forward 7 unknown #
straight-curve $-1 0 -48.69480206127507 -12.19164979335164 -1 0 0 I I #
point $-1 64.087649159215061 -48.69480206127507 -12.19164979335164 #
point $-1 -64.087649159215061 -48.69480206127507 -12.19164979335164 #
straight-curve $-1 0 -48.69480206127507 -5.9311090739420704 1 0 0 I I #
point $-1 -64.087649159215061 -48.69480206127507 -5.9311090739420704 #
point $-1 64.087649159215061 -48.69480206127507 -5.9311090739420704 #
straight-curve $-1 44.830515292274015 37.929397071746266 78.088969995890466 0 0 -1 I I #
point $-1 44.830515292274015 37.929397071746266 12.191649793351642 #
straight-curve $-1 13.309069061953792 37.929397071746266 8.1596334479510624 -1 0 0 I I #
point $-1 44.830515292274015 37.929397071746266 8.1596334479510659 #
point $-1 18.812833623179117 32.291547836785647 6.244250072918379 #
point $-1 34.423442624636053 32.291547836785647 6.244250072918379 #
straight-curve $-1 -64.087649159215061 -48.69480206127507 -9.0613794336468558 0 0 -1 I I #
straight-curve $-1 64.087649159215061 -48.69480206127507 -9.0613794336468558 0 0 -1 I I #
End-of-ACIS-data 