500 0 9 0           
7 Unknown 11 ACIS 5.0 NT 24 Fri Mar 26 02:48:36 1999 
-1 9.9999999999999995e-007 1e-010 
body $-1 $9 $-1 $10 #
body $-1 $11 $-1 $12 #
body $-1 $13 $-1 $14 #
body $-1 $15 $-1 $16 #
body $-1 $17 $-1 $18 #
body $-1 $19 $-1 $20 #
body $-1 $21 $-1 $22 #
body $-1 $23 $-1 $24 #
body $-1 $25 $-1 $26 #
lump $-1 $-1 $27 $0 #
transform $-1 1 0 0 0 1 0 0 0 1 57.937559129612112 31.437318836050036 8.8983337201670363 1 rotate no_reflect no_shear #
lump $-1 $-1 $28 $1 #
transform $-1 1 0 0 0 1 0 0 0 1 57.937559129612112 31.437318836050036 8.8983337201670363 1 rotate no_reflect no_shear #
lump $-1 $-1 $29 $2 #
transform $-1 1 0 0 0 1 0 0 0 1 57.937559129612112 31.437318836050036 8.8983337201670363 1 rotate no_reflect no_shear #
lump $-1 $-1 $30 $3 #
transform $-1 1 0 0 0 1 0 0 0 1 57.937559129612112 31.437318836050036 8.8983337201670363 1 rotate no_reflect no_shear #
lump $-1 $-1 $31 $4 #
transform $-1 1 0 0 0 1 0 0 0 1 57.937559129612112 31.437318836050036 8.8983337201670363 1 rotate no_reflect no_shear #
lump $-1 $-1 $32 $5 #
transform $-1 1 0 0 0 1 0 0 0 1 57.937559129612112 31.437318836050036 8.8983337201670363 1 rotate no_reflect no_shear #
lump $-1 $-1 $33 $6 #
transform $-1 1 0 0 0 1 0 0 0 1 57.937559129612112 31.437318836050036 8.8983337201670363 1 rotate no_reflect no_shear #
lump $-1 $-1 $34 $7 #
transform $-1 1 0 0 0 1 0 0 0 1 57.937559129612112 31.437318836050036 8.8983337201670363 1 rotate no_reflect no_shear #
lump $-1 $-1 $35 $8 #
transform $-1 1 0 0 0 1 0 0 0 1 57.937559129612112 31.437318836050036 8.8983337201670363 1 rotate no_reflect no_shear #
shell $-1 $-1 $-1 $36 $-1 $9 #
shell $-1 $-1 $-1 $37 $-1 $11 #
shell $-1 $-1 $-1 $38 $-1 $13 #
shell $-1 $-1 $-1 $39 $-1 $15 #
shell $-1 $-1 $-1 $40 $-1 $17 #
shell $-1 $-1 $-1 $41 $-1 $19 #
shell $-1 $-1 $-1 $42 $-1 $21 #
shell $-1 $-1 $-1 $43 $-1 $23 #
shell $-1 $-1 $-1 $44 $-1 $25 #
face $-1 $45 $46 $27 $-1 $47 forward single #
face $-1 $48 $49 $28 $-1 $50 forward single #
face $-1 $51 $52 $29 $-1 $53 forward single #
face $-1 $54 $55 $30 $-1 $56 reversed single #
face $-1 $57 $58 $31 $-1 $59 forward single #
face $-1 $60 $61 $32 $-1 $62 forward single #
face $-1 $63 $64 $33 $-1 $65 reversed single #
face $-1 $66 $67 $34 $-1 $68 forward single #
face $-1 $69 $70 $35 $-1 $71 forward single #
face $-1 $72 $73 $27 $-1 $74 reversed single #
loop $-1 $-1 $75 $36 #
plane-surface $-1 0 0 8.8983337201670363 0 0 1 1 0 0 forward_v I I I I #
face $-1 $76 $77 $28 $-1 $78 reversed single #
loop $-1 $-1 $79 $37 #
plane-surface $-1 -57.937559129612112 0 0 1 0 0 0 0 -1 forward_v I I I I #
face $-1 $80 $81 $29 $-1 $82 reversed single #
loop $-1 $-1 $83 $38 #
plane-surface $-1 57.937559129612112 0 0 -1 0 0 0 0 1 forward_v I I I I #
face $-1 $84 $85 $30 $-1 $86 reversed single #
loop $-1 $-1 $87 $39 #
plane-surface $-1 17.185005302109175 94.374389791072801 118.18492851480048 1 0 0 0 -0.83867057594974714 -0.54463902268945019 forward_v I I I I #
face $-1 $88 $89 $31 $-1 $90 forward single #
loop $-1 $91 $92 $40 #
cone-surface $-1 22.489002384481537 28.133302076792607 4.8575093696525249 0 -0.83867057594974714 -0.54463902268945019 1 0 0 1 I I 0 1 1 forward I I I I #
face $-1 $93 $94 $32 $-1 $95 forward single #
loop $-1 $96 $97 $41 #
cone-surface $-1 30.444998008040088 28.133302076792607 4.8575093696525249 0 -0.83867057594974714 -0.54463902268945019 1 0 0 1 I I 0 1 1 forward I I I I #
face $-1 $98 $99 $33 $-1 $100 reversed single #
loop $-1 $-1 $101 $42 #
plane-surface $-1 50.779385039931022 -114.79090422354341 80.746891591509439 -1 0 0 0 -0.71933980857756763 0.69465836192734942 forward_v I I I I #
face $-1 $102 $103 $34 $-1 $104 forward single #
loop $-1 $105 $106 $43 #
cone-surface $-1 36.730367974638924 -25.844270830468648 3.2056560566948464 0 0.71933980857756763 -0.69465836192734942 1.5 0 0 1 I I 0 1 1.5 forward I I I I #
face $-1 $107 $108 $35 $-1 $109 forward single #
loop $-1 $110 $111 $44 #
cone-surface $-1 45.159778213814178 -25.844270830468648 3.2056560566948464 0 0.71933980857756763 -0.69465836192734942 1.5 0 0 1 I I 0 1 1.5 forward I I I I #
face $-1 $112 $113 $27 $-1 $114 reversed single #
loop $-1 $-1 $115 $45 #
plane-surface $-1 0 0 -8.8983337201670363 0 0 1 1 0 0 forward_v I I I I #
coedge $-1 $116 $117 $118 $119 forward $46 $-1 #
face $-1 $120 $121 $28 $-1 $122 forward single #
loop $-1 $-1 $123 $48 #
plane-surface $-1 0 31.437318836050036 0 0 -1 0 0 0 -1 forward_v I I I I #
coedge $-1 $124 $125 $126 $127 forward $49 $-1 #
face $-1 $128 $129 $29 $-1 $130 forward single #
loop $-1 $-1 $131 $51 #
plane-surface $-1 0 31.437318836050036 0 0 -1 0 0 0 -1 forward_v I I I I #
coedge $-1 $132 $133 $134 $135 forward $52 $-1 #
face $-1 $136 $137 $30 $-1 $138 reversed single #
loop $-1 $-1 $139 $54 #
plane-surface $-1 26.467000196260813 -2.8066623776358455 55.074817352072131 0 0.83867057594974714 0.54463902268945019 1 0 0 forward_v I I I I #
coedge $-1 $140 $141 $142 $143 reversed $55 $-1 #
face $-1 $-1 $144 $31 $-1 $145 forward single #
loop $-1 $146 $147 $57 #
cone-surface $-1 22.489002384481537 26.538261569961822 3.8216779863866623 0 -0.83867057594974714 -0.54463902268945019 0.5 0 0 1 I I -0.70710678118654746 0.70710678118654746 0.5 forward I I I I #
loop $-1 $-1 $148 $40 #
coedge $-1 $92 $92 $149 $150 reversed $58 $-1 #
face $-1 $-1 $151 $32 $-1 $152 forward single #
loop $-1 $153 $154 $60 #
cone-surface $-1 30.444998008040088 26.538261569961822 3.8216779863866623 0 -0.83867057594974714 -0.54463902268945019 0.5 0 0 1 I I -0.70710678118654746 0.70710678118654746 0.5 forward I I I I #
loop $-1 $-1 $155 $41 #
coedge $-1 $97 $97 $156 $157 reversed $61 $-1 #
face $-1 $158 $159 $33 $-1 $160 reversed single #
loop $-1 $-1 $161 $63 #
plane-surface $-1 40.945073094226558 -31.437318836050039 0.25327175341884356 0 -0.71933980857756763 0.69465836192734942 1 0 0 forward_v I I I I #
coedge $-1 $162 $163 $164 $165 reversed $64 $-1 #
face $-1 $-1 $166 $34 $-1 $167 forward single #
loop $-1 $168 $169 $66 #
cone-surface $-1 36.730367974638924 -23.885937518778171 1.3145156051512448 0 0.71933980857756763 -0.69465836192734942 0.75 0 0 1 I I -0.70710678118654757 0.70710678118654757 0.75 forward I I I I #
loop $-1 $-1 $170 $43 #
coedge $-1 $106 $106 $171 $172 reversed $67 $-1 #
face $-1 $-1 $173 $35 $-1 $174 forward single #
loop $-1 $175 $176 $69 #
cone-surface $-1 45.159778213814178 -23.885937518778171 1.3145156051512448 0 0.71933980857756763 -0.69465836192734942 0.75 0 0 1 I I -0.70710678118654757 0.70710678118654757 0.75 forward I I I I #
loop $-1 $-1 $177 $44 #
coedge $-1 $111 $111 $178 $179 reversed $70 $-1 #
face $-1 $180 $181 $27 $-1 $182 reversed single #
loop $-1 $-1 $183 $72 #
plane-surface $-1 0 -31.437318836050036 0 0 1 0 0 0 1 forward_v I I I I #
coedge $-1 $184 $185 $186 $187 forward $73 $-1 #
coedge $-1 $188 $75 $189 $190 forward $46 $-1 #
coedge $-1 $75 $188 $191 $192 forward $46 $-1 #
coedge $-1 $193 $194 $75 $119 reversed $195 $-1 #
edge $-1 $196 -31.437318836050036 $197 31.437318836050036 $118 $198 forward 7 unknown #
face $-1 $199 $200 $28 $-1 $201 reversed single #
loop $-1 $-1 $126 $76 #
plane-surface $-1 -61.51664617445266 0 -5.8983337201670363 0 0 1 1 0 0 forward_v I I I I #
coedge $-1 $202 $203 $125 $204 forward $77 $-1 #
coedge $-1 $205 $79 $206 $207 reversed $49 $-1 #
coedge $-1 $79 $205 $123 $204 reversed $49 $-1 #
coedge $-1 $208 $209 $79 $127 reversed $121 $-1 #
edge $-1 $210 -31.437318836050036 $211 31.437318836050036 $126 $212 forward 7 unknown #
face $-1 $213 $214 $29 $-1 $215 reversed single #
loop $-1 $-1 $216 $80 #
plane-surface $-1 61.51664617445266 0 -5.8983337201670363 0 0 1 1 0 0 forward_v I I I I #
coedge $-1 $217 $218 $132 $219 forward $81 $-1 #
coedge $-1 $220 $83 $131 $219 reversed $52 $-1 #
coedge $-1 $83 $220 $221 $222 reversed $52 $-1 #
coedge $-1 $223 $224 $83 $135 reversed $129 $-1 #
edge $-1 $225 -31.437318836050036 $226 31.437318836050036 $134 $227 forward 7 unknown #
face $-1 $228 $229 $30 $-1 $230 reversed single #
loop $-1 $-1 $231 $84 #
plane-surface $-1 35.74899509041245 94.374389791072801 118.18492851480048 -1 0 0 0 0.83867057594974714 0.54463902268945019 forward_v I I I I #
coedge $-1 $232 $233 $234 $235 reversed $85 $-1 #
coedge $-1 $141 $87 $236 $237 reversed $55 $-1 #
coedge $-1 $87 $140 $232 $238 reversed $55 $-1 #
coedge $-1 $234 $239 $87 $143 forward $240 $-1 #
edge $-1 $241 15.749876059486365 $242 20.006499140289407 $142 $243 forward 7 unknown #
loop $-1 $-1 $149 $88 #
plane-surface $-1 26.467000196260813 -2.8066623776358455 55.074817352072131 0 0.83867057594974714 0.54463902268945019 1 0 0 forward_v I I I I #
loop $-1 $-1 $244 $57 #
coedge $-1 $147 $147 $148 $245 reversed $89 $-1 #
coedge $-1 $148 $148 $147 $245 forward $91 $-1 #
coedge $-1 $149 $149 $92 $150 forward $144 $-1 #
edge $-1 $246 1.6352256914465713e-015 $246 6.2831853071796022 $149 $247 forward 7 unknown #
loop $-1 $-1 $156 $93 #
plane-surface $-1 26.467000196260813 -2.8066623776358455 55.074817352072131 0 0.83867057594974714 0.54463902268945019 1 0 0 forward_v I I I I #
loop $-1 $-1 $248 $60 #
coedge $-1 $154 $154 $155 $249 reversed $94 $-1 #
coedge $-1 $155 $155 $154 $249 forward $96 $-1 #
coedge $-1 $156 $156 $97 $157 forward $151 $-1 #
edge $-1 $250 1.6352256914465713e-015 $250 6.2831853071796022 $156 $251 forward 7 unknown #
face $-1 $252 $253 $33 $-1 $254 forward single #
loop $-1 $-1 $255 $98 #
plane-surface $-1 31.110761148522094 -114.79090422354341 80.746891591509439 1 0 0 0 0.71933980857756763 -0.69465836192734942 forward_v I I I I #
coedge $-1 $256 $257 $258 $259 reversed $99 $-1 #
coedge $-1 $163 $101 $260 $261 reversed $64 $-1 #
coedge $-1 $101 $162 $256 $262 reversed $64 $-1 #
coedge $-1 $258 $263 $101 $165 forward $253 $-1 #
edge $-1 $264 25.958133275721668 $265 34.306572376369829 $164 $266 forward 7 unknown #
loop $-1 $-1 $171 $102 #
plane-surface $-1 40.945073094226558 -31.437318836050039 0.25327175341884356 0 -0.71933980857756763 0.69465836192734942 1 0 0 forward_v I I I I #
loop $-1 $-1 $267 $66 #
coedge $-1 $169 $169 $170 $268 reversed $103 $-1 #
coedge $-1 $170 $170 $169 $268 forward $105 $-1 #
coedge $-1 $171 $171 $106 $172 forward $166 $-1 #
edge $-1 $269 -9.1032686796429603e-016 $269 6.2831853071795996 $171 $270 forward 7 unknown #
loop $-1 $-1 $178 $107 #
plane-surface $-1 40.945073094226558 -31.437318836050039 0.25327175341884356 0 -0.71933980857756763 0.69465836192734942 1 0 0 forward_v I I I I #
loop $-1 $-1 $271 $69 #
coedge $-1 $176 $176 $177 $272 reversed $108 $-1 #
coedge $-1 $177 $177 $176 $272 forward $110 $-1 #
coedge $-1 $178 $178 $111 $179 forward $173 $-1 #
edge $-1 $273 -9.1032686796429603e-016 $273 6.2831853071795996 $178 $274 forward 7 unknown #
face $-1 $275 $276 $27 $-1 $277 reversed single #
loop $-1 $-1 $278 $112 #
plane-surface $-1 -57.937559129612112 0 0 1 0 0 0 0 -1 forward_v I I I I #
coedge $-1 $279 $191 $280 $281 forward $113 $-1 #
coedge $-1 $282 $115 $279 $283 forward $73 $-1 #
coedge $-1 $115 $282 $284 $285 forward $73 $-1 #
coedge $-1 $194 $193 $115 $187 reversed $195 $-1 #
edge $-1 $286 -31.437318836050036 $287 31.437318836050036 $186 $288 forward 7 unknown #
coedge $-1 $117 $116 $289 $290 forward $46 $-1 #
coedge $-1 $291 $292 $116 $190 reversed $276 $-1 #
edge $-1 $197 -57.937559129612112 $293 57.937559129612112 $189 $294 forward 7 unknown #
coedge $-1 $183 $295 $117 $192 reversed $113 $-1 #
edge $-1 $296 -57.937559129612112 $196 57.937559129612112 $191 $297 forward 7 unknown #
coedge $-1 $186 $118 $295 $298 forward $195 $-1 #
coedge $-1 $118 $186 $291 $299 reversed $195 $-1 #
loop $-1 $-1 $193 $275 #
vertex $-1 $119 $300 #
vertex $-1 $119 $301 #
straight-curve $-1 57.937559129612112 0 8.8983337201670363 0 1 0 I I #
face $-1 $302 $303 $28 $-1 $304 reversed single #
loop $-1 $-1 $305 $120 #
plane-surface $-1 -65.095733219293209 0 -7.3983337201670363 1 0 0 0 0 -1 forward_v I I I I #
coedge $-1 $306 $123 $307 $308 reversed $77 $-1 #
coedge $-1 $123 $306 $208 $309 reversed $77 $-1 #
edge $-1 $210 5.8983337201670363 $310 8.8983337201670363 $123 $311 forward 7 unknown #
coedge $-1 $125 $124 $312 $313 reversed $49 $-1 #
coedge $-1 $314 $315 $124 $207 forward $316 $-1 #
edge $-1 $317 -8.8983337201670363 $211 -5.8983337201670363 $206 $318 forward 7 unknown #
coedge $-1 $319 $126 $203 $309 forward $121 $-1 #
coedge $-1 $126 $319 $314 $320 forward $121 $-1 #
vertex $-1 $204 $321 #
vertex $-1 $320 $322 #
straight-curve $-1 -57.937559129612112 0 -5.8983337201670363 0 -1 0 I I #
face $-1 $323 $324 $29 $-1 $325 reversed single #
loop $-1 $-1 $326 $128 #
plane-surface $-1 65.095733219293209 0 -7.3983337201670363 -1 0 0 0 0 1 forward_v I I I I #
coedge $-1 $224 $223 $327 $328 forward $129 $-1 #
coedge $-1 $329 $131 $224 $330 reversed $81 $-1 #
coedge $-1 $131 $329 $331 $332 reversed $81 $-1 #
edge $-1 $333 -8.8983337201670363 $226 -5.8983337201670363 $131 $334 forward 7 unknown #
coedge $-1 $133 $132 $335 $336 reversed $52 $-1 #
coedge $-1 $337 $338 $133 $222 forward $339 $-1 #
edge $-1 $225 5.8983337201670363 $340 8.8983337201670363 $221 $341 forward 7 unknown #
coedge $-1 $216 $134 $338 $342 forward $129 $-1 #
coedge $-1 $134 $216 $217 $330 forward $129 $-1 #
vertex $-1 $222 $343 #
vertex $-1 $330 $344 #
straight-curve $-1 57.937559129612112 0 -5.8983337201670363 0 1 0 I I #
face $-1 $-1 $240 $30 $-1 $345 forward single #
loop $-1 $-1 $346 $136 #
plane-surface $-1 0 31.437318836050036 0 0 -1 0 0 0 -1 forward_v I I I I #
coedge $-1 $347 $348 $349 $350 reversed $137 $-1 #
coedge $-1 $351 $139 $141 $238 forward $85 $-1 #
coedge $-1 $139 $351 $347 $352 forward $85 $-1 #
coedge $-1 $349 $142 $139 $235 forward $240 $-1 #
edge $-1 $242 3.951505203978769 $353 22.515494992282044 $234 $354 forward 7 unknown #
coedge $-1 $355 $356 $140 $237 forward $229 $-1 #
edge $-1 $357 -56.748755494419967 $241 -50.1941305372332 $236 $358 forward 7 unknown #
edge $-1 $242 55.05914354943576 $357 62.8746376721001 $141 $359 forward 7 unknown #
coedge $-1 $142 $349 $355 $360 forward $240 $-1 #
loop $-1 $-1 $349 $228 #
vertex $-1 $237 $361 #
vertex $-1 $143 $362 #
straight-curve $-1 17.185005302109175 47.1871948955364 8.8983337201670381 0 -1 0 I I #
coedge $-1 $244 $244 $-1 $363 reversed $146 $-1 #
edge $-1 $364 0 $364 6.2831853071796004 $147 $365 forward 7 unknown #
vertex $-1 $150 $366 #
ellipse-curve $-1 22.489002384481537 29.309007295648513 5.6210212415736596 0 0.83867057594974714 0.54463902268945019 1 0 0 1 I I #
coedge $-1 $248 $248 $-1 $367 reversed $153 $-1 #
edge $-1 $368 0 $368 6.2831853071796004 $154 $369 forward 7 unknown #
vertex $-1 $157 $370 #
ellipse-curve $-1 30.444998008040088 29.309007295648513 5.6210212415736596 0 0.83867057594974714 0.54463902268945019 1 0 0 1 I I #
face $-1 $-1 $371 $33 $-1 $372 reversed single #
loop $-1 $-1 $164 $158 #
plane-surface $-1 0 0 8.8983337201670363 0 0 1 1 0 0 forward_v I I I I #
coedge $-1 $373 $374 $375 $376 reversed $159 $-1 #
coedge $-1 $377 $161 $163 $262 forward $99 $-1 #
coedge $-1 $161 $377 $373 $378 forward $99 $-1 #
coedge $-1 $375 $164 $161 $259 forward $253 $-1 #
edge $-1 $265 -30.306848492817743 $379 -10.638224601408815 $258 $380 forward 7 unknown #
coedge $-1 $381 $382 $162 $261 forward $371 $-1 #
edge $-1 $383 -40.120174042335869 $264 -31.475112075587681 $260 $384 forward 7 unknown #
edge $-1 $265 -12.018050250608344 $383 -5.1033934039529288e-015 $163 $385 forward 7 unknown #
coedge $-1 $164 $375 $381 $386 forward $253 $-1 #
vertex $-1 $261 $387 #
vertex $-1 $165 $388 #
straight-curve $-1 50.779385039931022 -57.395452111771704 8.8983337201670381 0 1 0 I I #
coedge $-1 $267 $267 $-1 $389 reversed $168 $-1 #
edge $-1 $390 0 $390 6.2831853071796004 $169 $391 forward 7 unknown #
vertex $-1 $172 $392 #
ellipse-curve $-1 36.730367974638924 -27.263099285725957 4.5758027367929417 0 -0.71933980857756763 0.69465836192734942 1.5 0 0 1 I I #
coedge $-1 $271 $271 $-1 $393 reversed $175 $-1 #
edge $-1 $394 0 $394 6.2831853071796004 $176 $395 forward 7 unknown #
vertex $-1 $179 $396 #
ellipse-curve $-1 45.159778213814178 -27.263099285725957 4.5758027367929417 0 -0.71933980857756763 0.69465836192734942 1.5 0 0 1 I I #
face $-1 $-1 $195 $27 $-1 $397 reversed single #
loop $-1 $-1 $291 $180 #
plane-surface $-1 0 31.437318836050036 0 0 -1 0 0 0 -1 forward_v I I I I #
coedge $-1 $398 $289 $292 $399 forward $181 $-1 #
coedge $-1 $295 $183 $184 $283 reversed $113 $-1 #
coedge $-1 $289 $398 $183 $281 reversed $181 $-1 #
edge $-1 $296 -8.8983337201670363 $400 8.8983337201670363 $280 $401 forward 7 unknown #
coedge $-1 $185 $184 $398 $402 forward $73 $-1 #
edge $-1 $287 -57.937559129612112 $400 57.937559129612112 $279 $403 forward 7 unknown #
coedge $-1 $292 $291 $185 $285 reversed $276 $-1 #
edge $-1 $404 -57.937559129612112 $286 57.937559129612112 $284 $405 forward 7 unknown #
vertex $-1 $187 $406 #
vertex $-1 $298 $407 #
straight-curve $-1 57.937559129612112 0 -8.8983337201670363 0 -1 0 I I #
coedge $-1 $278 $280 $188 $290 reversed $181 $-1 #
edge $-1 $293 -31.437318836050036 $296 31.437318836050036 $289 $408 forward 7 unknown #
coedge $-1 $284 $189 $194 $299 forward $276 $-1 #
coedge $-1 $189 $284 $278 $399 reversed $276 $-1 #
vertex $-1 $190 $409 #
straight-curve $-1 0 31.437318836050036 8.8983337201670363 -1 0 0 I I #
coedge $-1 $191 $279 $193 $298 reversed $113 $-1 #
vertex $-1 $290 $410 #
straight-curve $-1 0 -31.437318836050036 8.8983337201670363 1 0 0 I I #
edge $-1 $196 -8.8983337201670363 $287 8.8983337201670363 $193 $411 forward 7 unknown #
edge $-1 $197 -8.8983337201670363 $286 8.8983337201670363 $194 $412 forward 7 unknown #
point $-1 57.937559129612112 -31.437318836050036 8.8983337201670363 #
point $-1 57.937559129612112 31.437318836050036 8.8983337201670363 #
face $-1 $-1 $316 $28 $-1 $413 reversed single #
loop $-1 $-1 $312 $199 #
plane-surface $-1 0 0 -8.8983337201670363 0 0 1 1 0 0 forward_v I I I I #
coedge $-1 $414 $415 $306 $416 forward $200 $-1 #
coedge $-1 $203 $202 $305 $416 reversed $77 $-1 #
coedge $-1 $312 $417 $202 $308 forward $303 $-1 #
edge $-1 $418 -65.095733219293209 $310 -57.937559129612112 $202 $419 forward 7 unknown #
edge $-1 $210 -3.5790870448405485 $420 3.5790870448405485 $203 $421 forward 7 unknown #
vertex $-1 $204 $422 #
straight-curve $-1 -57.937559129612112 31.437318836050036 0 0 0 -1 I I #
coedge $-1 $423 $307 $205 $313 forward $303 $-1 #
edge $-1 $310 -31.437318836050036 $317 31.437318836050036 $312 $424 forward 7 unknown #
coedge $-1 $425 $206 $209 $320 reversed $316 $-1 #
coedge $-1 $206 $425 $423 $426 reversed $316 $-1 #
loop $-1 $-1 $206 $302 #
vertex $-1 $426 $427 #
straight-curve $-1 -57.937559129612112 -31.437318836050036 0 0 0 1 I I #
coedge $-1 $209 $208 $415 $428 forward $121 $-1 #
edge $-1 $429 -3.5790870448405485 $211 3.5790870448405485 $314 $430 forward 7 unknown #
point $-1 -57.937559129612112 31.437318836050036 -5.8983337201670363 #
point $-1 -57.937559129612112 -31.437318836050036 -5.8983337201670363 #
face $-1 $-1 $339 $29 $-1 $431 reversed single #
loop $-1 $-1 $335 $213 #
plane-surface $-1 0 0 -8.8983337201670363 0 0 1 1 0 0 forward_v I I I I #
coedge $-1 $432 $327 $433 $434 forward $214 $-1 #
coedge $-1 $326 $435 $216 $328 reversed $214 $-1 #
edge $-1 $436 -31.437318836050036 $437 31.437318836050036 $327 $438 forward 7 unknown #
coedge $-1 $218 $217 $435 $439 forward $81 $-1 #
edge $-1 $437 -3.5790870448405485 $226 3.5790870448405485 $217 $440 forward 7 unknown #
coedge $-1 $441 $335 $218 $332 forward $324 $-1 #
edge $-1 $333 -3.5790870448405485 $442 3.5790870448405485 $218 $443 forward 7 unknown #
vertex $-1 $332 $444 #
straight-curve $-1 57.937559129612112 31.437318836050036 0 0 0 1 I I #
coedge $-1 $331 $445 $220 $336 forward $324 $-1 #
edge $-1 $340 -31.437318836050036 $333 31.437318836050036 $335 $446 forward 7 unknown #
coedge $-1 $433 $221 $445 $447 reversed $339 $-1 #
coedge $-1 $221 $433 $223 $342 reversed $339 $-1 #
loop $-1 $-1 $221 $323 #
vertex $-1 $222 $448 #
straight-curve $-1 57.937559129612112 -31.437318836050036 0 0 0 -1 I I #
edge $-1 $225 -3.5790870448405485 $436 3.5790870448405485 $338 $449 forward 7 unknown #
point $-1 57.937559129612112 -31.437318836050036 -5.8983337201670363 #
point $-1 57.937559129612112 31.437318836050036 -5.8983337201670363 #
plane-surface $-1 0 0 8.8983337201670363 0 0 1 1 0 0 forward_v I I I I #
coedge $-1 $356 $355 $348 $450 forward $229 $-1 #
coedge $-1 $348 $231 $233 $352 reversed $137 $-1 #
coedge $-1 $231 $347 $346 $450 reversed $137 $-1 #
coedge $-1 $239 $234 $231 $350 forward $240 $-1 #
edge $-1 $353 -20.006499140289407 $451 -15.749876059486365 $349 $452 forward 7 unknown #
coedge $-1 $233 $232 $356 $453 reversed $85 $-1 #
edge $-1 $454 -62.8746376721001 $353 -55.05914354943576 $347 $455 forward 7 unknown #
vertex $-1 $235 $456 #
straight-curve $-1 13.233500098130406 27.18069575524699 8.8983337201670416 1 0 0 I I #
coedge $-1 $346 $236 $239 $360 reversed $229 $-1 #
coedge $-1 $236 $346 $351 $453 forward $229 $-1 #
vertex $-1 $237 $457 #
straight-curve $-1 17.185005302109175 31.437318836050036 59.092464257400238 0 0 1 I I #
straight-curve $-1 17.185005302109175 -2.8066623776358455 55.074817352072131 0 0.54463902268945019 -0.83867057594974714 I I #
edge $-1 $451 -35.74899509041245 $241 -17.185005302109175 $355 $458 forward 7 unknown #
point $-1 17.185005302109175 31.437318836050036 8.8983337201670363 #
point $-1 17.185005302109175 27.180695755246994 8.8983337201670381 #
edge $-1 $459 1 $459 0 $244 $-1 forward 7 unknown #
vertex $-1 $245 $460 #
ellipse-curve $-1 22.489002384481537 26.957596857936696 4.0939974977313875 0 0.83867057594974714 0.54463902268945019 1 0 0 1 I I #
point $-1 23.489002384481537 29.30900729564852 5.6210212415736622 #
edge $-1 $461 1 $461 0 $248 $-1 forward 7 unknown #
vertex $-1 $249 $462 #
ellipse-curve $-1 30.444998008040088 26.957596857936696 4.0939974977313875 0 0.83867057594974714 0.54463902268945019 1 0 0 1 I I #
point $-1 31.444998008040088 29.30900729564852 5.6210212415736622 #
loop $-1 $-1 $260 $252 #
plane-surface $-1 0 -31.437318836050036 0 0 1 0 0 0 1 forward_v I I I I #
coedge $-1 $374 $255 $257 $378 reversed $159 $-1 #
coedge $-1 $255 $373 $463 $464 reversed $159 $-1 #
coedge $-1 $263 $258 $255 $376 forward $253 $-1 #
edge $-1 $379 -34.306572376369829 $465 -25.958133275721668 $375 $466 forward 7 unknown #
coedge $-1 $257 $256 $382 $467 reversed $99 $-1 #
edge $-1 $468 5.1033934039529288e-015 $379 12.018050250608344 $373 $469 forward 7 unknown #
vertex $-1 $259 $470 #
straight-curve $-1 20.472536547113279 -23.088879735401878 8.8983337201670363 -1 0 0 I I #
coedge $-1 $463 $260 $263 $386 reversed $371 $-1 #
coedge $-1 $260 $463 $377 $467 forward $371 $-1 #
vertex $-1 $261 $471 #
straight-curve $-1 50.779385039931022 -31.437318836050039 40.373445795754719 0 0 1 I I #
straight-curve $-1 50.779385039931022 -31.437318836050039 0.25327175341884356 0 -0.69465836192734942 -0.71933980857756763 I I #
edge $-1 $465 31.110761148522094 $264 50.779385039931022 $381 $472 forward 7 unknown #
point $-1 50.779385039931022 -31.437318836050036 8.8983337201670363 #
point $-1 50.779385039931022 -23.088879735401875 8.8983337201670363 #
edge $-1 $473 1 $473 0 $267 $-1 forward 7 unknown #
vertex $-1 $268 $474 #
ellipse-curve $-1 36.730367974638924 -24.425442375211347 1.8355093765967569 0 -0.71933980857756763 0.69465836192734942 1.5 0 0 1 I I #
point $-1 38.230367974638924 -27.263099285725954 4.5758027367929364 #
edge $-1 $475 1 $475 0 $271 $-1 forward 7 unknown #
vertex $-1 $272 $476 #
ellipse-curve $-1 45.159778213814178 -24.425442375211347 1.8355093765967569 0 -0.71933980857756763 0.69465836192734942 1.5 0 0 1 I I #
point $-1 46.659778213814178 -27.263099285725954 4.5758027367929364 #
plane-surface $-1 57.937559129612112 0 0 -1 0 0 0 0 1 forward_v I I I I #
coedge $-1 $280 $278 $282 $402 reversed $181 $-1 #
edge $-1 $293 -8.8983337201670363 $404 8.8983337201670363 $292 $477 forward 7 unknown #
vertex $-1 $402 $478 #
straight-curve $-1 -57.937559129612112 -31.437318836050036 0 0 0 -1 I I #
edge $-1 $400 -31.437318836050036 $404 31.437318836050036 $398 $479 forward 7 unknown #
straight-curve $-1 0 -31.437318836050036 -8.8983337201670363 -1 0 0 I I #
vertex $-1 $285 $480 #
straight-curve $-1 0 31.437318836050036 -8.8983337201670363 1 0 0 I I #
point $-1 57.937559129612112 31.437318836050036 -8.8983337201670363 #
point $-1 57.937559129612112 -31.437318836050036 -8.8983337201670363 #
straight-curve $-1 -57.937559129612112 0 8.8983337201670363 0 -1 0 I I #
point $-1 -57.937559129612112 31.437318836050036 8.8983337201670363 #
point $-1 -57.937559129612112 -31.437318836050036 8.8983337201670363 #
straight-curve $-1 57.937559129612112 -31.437318836050036 0 0 0 -1 I I #
straight-curve $-1 57.937559129612112 31.437318836050036 0 0 0 -1 I I #
plane-surface $-1 0 -31.437318836050036 0 0 1 0 0 0 1 forward_v I I I I #
coedge $-1 $481 $305 $417 $482 reversed $200 $-1 #
coedge $-1 $305 $481 $319 $428 reversed $200 $-1 #
edge $-1 $420 -1.5 $418 1.5 $306 $483 forward 7 unknown #
coedge $-1 $307 $423 $414 $482 forward $303 $-1 #
vertex $-1 $308 $484 #
straight-curve $-1 0 31.437318836050036 -8.8983337201670363 1 0 0 I I #
vertex $-1 $309 $485 #
straight-curve $-1 -61.51664617445266 31.437318836050036 -5.8983337201670363 -1 0 0 I I #
point $-1 -57.937559129612112 31.437318836050036 -8.8983337201670363 #
coedge $-1 $417 $312 $315 $426 forward $303 $-1 #
straight-curve $-1 -57.937559129612112 0 -8.8983337201670363 0 -1 0 I I #
coedge $-1 $315 $314 $481 $486 forward $316 $-1 #
edge $-1 $317 -3.5790870448405485 $487 3.5790870448405485 $315 $488 forward 7 unknown #
point $-1 -57.937559129612112 -31.437318836050036 -8.8983337201670363 #
edge $-1 $420 -31.437318836050036 $429 31.437318836050036 $415 $489 forward 7 unknown #
vertex $-1 $428 $490 #
straight-curve $-1 -61.51664617445266 -31.437318836050036 -5.8983337201670363 1 0 0 I I #
plane-surface $-1 0 -31.437318836050036 0 0 1 0 0 0 1 forward_v I I I I #
coedge $-1 $435 $326 $441 $491 reversed $214 $-1 #
coedge $-1 $338 $337 $326 $434 reversed $339 $-1 #
edge $-1 $436 -1.5 $492 1.5 $326 $493 forward 7 unknown #
coedge $-1 $327 $432 $329 $439 reversed $214 $-1 #
vertex $-1 $328 $494 #
vertex $-1 $328 $495 #
straight-curve $-1 65.095733219293209 0 -5.8983337201670363 0 1 0 I I #
edge $-1 $437 -1.5 $442 1.5 $435 $496 forward 7 unknown #
straight-curve $-1 61.51664617445266 31.437318836050036 -5.8983337201670363 -1 0 0 I I #
coedge $-1 $445 $331 $432 $491 forward $324 $-1 #
vertex $-1 $491 $497 #
straight-curve $-1 61.51664617445266 31.437318836050036 -8.8983337201670363 1 0 0 I I #
point $-1 57.937559129612112 31.437318836050036 -8.8983337201670363 #
coedge $-1 $335 $441 $337 $447 forward $324 $-1 #
straight-curve $-1 57.937559129612112 0 -8.8983337201670363 0 1 0 I I #
edge $-1 $492 -3.5790870448405485 $340 3.5790870448405485 $337 $498 forward 7 unknown #
point $-1 57.937559129612112 -31.437318836050036 -8.8983337201670363 #
straight-curve $-1 61.51664617445266 -31.437318836050036 -5.8983337201670363 1 0 0 I I #
edge $-1 $451 50.1941305372332 $454 56.748755494419967 $346 $499 forward 7 unknown #
vertex $-1 $360 $500 #
straight-curve $-1 35.74899509041245 47.1871948955364 8.8983337201670381 0 1 0 I I #
edge $-1 $454 -22.515494992282044 $357 -3.951505203978769 $356 $501 forward 7 unknown #
vertex $-1 $453 $502 #
straight-curve $-1 35.74899509041245 -2.8066623776358455 55.074817352072131 0 -0.54463902268945019 0.83867057594974714 I I #
point $-1 35.74899509041245 27.180695755246994 8.8983337201670381 #
point $-1 17.185005302109175 31.437318836050039 2.3437087629802704 #
straight-curve $-1 0 31.437318836050036 8.8983337201670363 -1 0 0 I I #
vertex $-1 $363 $503 #
point $-1 23.489002384481537 26.957596857936696 4.0939974977313875 #
vertex $-1 $367 $504 #
point $-1 31.444998008040088 26.957596857936696 4.0939974977313875 #
coedge $-1 $382 $381 $374 $464 forward $371 $-1 #
edge $-1 $465 31.475112075587681 $468 40.120174042335869 $463 $505 forward 7 unknown #
vertex $-1 $386 $506 #
straight-curve $-1 31.110761148522094 -57.395452111771704 8.8983337201670381 0 -1 0 I I #
edge $-1 $468 10.638224601408815 $383 30.306848492817743 $382 $507 forward 7 unknown #
vertex $-1 $467 $508 #
straight-curve $-1 31.110761148522094 -31.437318836050039 0.25327175341884356 0 0.69465836192734942 0.71933980857756763 I I #
point $-1 31.110761148522094 -23.088879735401875 8.8983337201670363 #
point $-1 50.779385039931022 -31.437318836050036 0.25327175341884722 #
straight-curve $-1 0 -31.437318836050036 8.8983337201670363 1 0 0 I I #
vertex $-1 $389 $509 #
point $-1 38.230367974638924 -24.425442375211347 1.8355093765967569 #
vertex $-1 $393 $510 #
point $-1 46.659778213814178 -24.425442375211347 1.8355093765967569 #
straight-curve $-1 -57.937559129612112 31.437318836050036 0 0 0 -1 I I #
point $-1 -57.937559129612112 -31.437318836050036 -8.8983337201670363 #
straight-curve $-1 -57.937559129612112 0 -8.8983337201670363 0 1 0 I I #
point $-1 -57.937559129612112 31.437318836050036 -8.8983337201670363 #
coedge $-1 $415 $414 $425 $486 reversed $200 $-1 #
edge $-1 $487 -31.437318836050036 $418 31.437318836050036 $414 $511 forward 7 unknown #
straight-curve $-1 -65.095733219293209 31.437318836050036 -7.3983337201670363 0 0 -1 I I #
point $-1 -65.095733219293209 31.437318836050036 -8.8983337201670363 #
point $-1 -65.095733219293209 31.437318836050036 -5.8983337201670363 #
edge $-1 $429 -1.5 $487 1.5 $481 $512 forward 7 unknown #
vertex $-1 $482 $513 #
straight-curve $-1 -61.51664617445266 -31.437318836050036 -8.8983337201670363 -1 0 0 I I #
straight-curve $-1 -65.095733219293209 0 -5.8983337201670363 0 -1 0 I I #
point $-1 -65.095733219293209 -31.437318836050036 -5.8983337201670363 #
edge $-1 $442 -31.437318836050036 $492 31.437318836050036 $432 $514 forward 7 unknown #
vertex $-1 $434 $515 #
straight-curve $-1 65.095733219293209 -31.437318836050036 -7.3983337201670363 0 0 -1 I I #
point $-1 65.095733219293209 -31.437318836050036 -5.8983337201670363 #
point $-1 65.095733219293209 31.437318836050036 -5.8983337201670363 #
straight-curve $-1 65.095733219293209 31.437318836050036 -7.3983337201670363 0 0 -1 I I #
point $-1 65.095733219293209 31.437318836050036 -8.8983337201670363 #
straight-curve $-1 61.51664617445266 -31.437318836050036 -8.8983337201670363 -1 0 0 I I #
straight-curve $-1 35.74899509041245 31.437318836050036 59.092464257400238 0 0 -1 I I #
point $-1 35.74899509041245 31.437318836050036 8.8983337201670363 #
straight-curve $-1 13.233500098130406 31.437318836050036 2.3437087629802775 -1 0 0 I I #
point $-1 35.74899509041245 31.437318836050039 2.3437087629802704 #
point $-1 22.489002384481537 26.118926281986948 3.5493584750419371 #
point $-1 30.444998008040088 26.118926281986948 3.5493584750419371 #
straight-curve $-1 31.110761148522094 -31.437318836050039 40.373445795754719 0 0 -1 I I #
point $-1 31.110761148522094 -31.437318836050036 8.8983337201670363 #
straight-curve $-1 20.472536547113279 -31.437318836050036 0.25327175341884789 1 0 0 I I #
point $-1 31.110761148522094 -31.437318836050036 0.25327175341884722 #
point $-1 36.730367974638924 -23.346432662344995 0.7935218337057327 #
point $-1 45.159778213814178 -23.346432662344995 0.7935218337057327 #
straight-curve $-1 -65.095733219293209 0 -8.8983337201670363 0 1 0 I I #
straight-curve $-1 -65.095733219293209 -31.437318836050036 -7.3983337201670363 0 0 -1 I I #
point $-1 -65.095733219293209 -31.437318836050036 -8.8983337201670363 #
straight-curve $-1 65.095733219293209 0 -8.8983337201670363 0 -1 0 I I #
point $-1 65.095733219293209 -31.437318836050036 -8.8983337201670363 #
End-of-ACIS-data 