500 0 8 0           
7 Unknown 11 ACIS 5.0 NT 24 Thu Mar 25 17:40:10 1999 
-1 9.9999999999999995e-007 1e-010 
body $-1 $8 $-1 $9 #
body $-1 $10 $-1 $11 #
body $-1 $12 $-1 $13 #
body $-1 $14 $-1 $15 #
body $-1 $16 $-1 $17 #
body $-1 $18 $-1 $19 #
body $-1 $20 $-1 $21 #
body $-1 $22 $-1 $23 #
lump $-1 $-1 $24 $0 #
transform $-1 1 0 0 0 1 0 0 0 1 62.674031800286869 37.020466264576321 12.847854128265711 1 rotate no_reflect no_shear #
lump $-1 $-1 $25 $1 #
transform $-1 1 0 0 0 1 0 0 0 1 62.674031800286869 37.020466264576321 12.847854128265711 1 rotate no_reflect no_shear #
lump $-1 $-1 $26 $2 #
transform $-1 1 0 0 0 1 0 0 0 1 62.674031800286869 37.020466264576321 12.847854128265711 1 rotate no_reflect no_shear #
lump $-1 $-1 $27 $3 #
transform $-1 1 0 0 0 1 0 0 0 1 62.674031800286869 37.020466264576321 12.847854128265711 1 rotate no_reflect no_shear #
lump $-1 $-1 $28 $4 #
transform $-1 1 0 0 0 1 0 0 0 1 62.674031800286869 37.020466264576321 12.847854128265711 1 rotate no_reflect no_shear #
lump $-1 $-1 $29 $5 #
transform $-1 1 0 0 0 1 0 0 0 1 62.674031800286869 37.020466264576321 12.847854128265711 1 rotate no_reflect no_shear #
lump $-1 $-1 $30 $6 #
transform $-1 1 0 0 0 1 0 0 0 1 62.674031800286869 37.020466264576321 12.847854128265711 1 rotate no_reflect no_shear #
lump $-1 $-1 $31 $7 #
transform $-1 1 0 0 0 1 0 0 0 1 62.674031800286869 37.020466264576321 12.847854128265711 1 rotate no_reflect no_shear #
shell $-1 $-1 $-1 $32 $-1 $8 #
shell $-1 $-1 $-1 $33 $-1 $10 #
shell $-1 $-1 $-1 $34 $-1 $12 #
shell $-1 $-1 $-1 $35 $-1 $14 #
shell $-1 $-1 $-1 $36 $-1 $16 #
shell $-1 $-1 $-1 $37 $-1 $18 #
shell $-1 $-1 $-1 $38 $-1 $20 #
shell $-1 $-1 $-1 $39 $-1 $22 #
face $-1 $40 $41 $24 $-1 $42 reversed single #
face $-1 $43 $44 $25 $-1 $45 forward single #
face $-1 $46 $47 $26 $-1 $48 reversed single #
face $-1 $49 $50 $27 $-1 $51 forward single #
face $-1 $52 $53 $28 $-1 $54 forward single #
face $-1 $55 $56 $29 $-1 $57 reversed single #
face $-1 $58 $59 $30 $-1 $60 forward single #
face $-1 $61 $62 $31 $-1 $63 forward single #
face $-1 $64 $65 $24 $-1 $66 forward single #
loop $-1 $-1 $67 $32 #
plane-surface $-1 0 -37.020466264576321 0 0 1 0 0 0 1 forward_v I I I I #
face $-1 $68 $69 $25 $-1 $70 reversed single #
loop $-1 $-1 $71 $33 #
plane-surface $-1 0 -37.020466264576321 0 0 1 0 0 0 1 forward_v I I I I #
face $-1 $72 $73 $26 $-1 $74 reversed single #
loop $-1 $-1 $75 $34 #
plane-surface $-1 -53.547836647644111 78.198443699426349 144.5120718651327 1 0 0 0 -0.73135370988377701 -0.68199835119979291 forward_v I I I I #
face $-1 $76 $77 $27 $-1 $78 forward single #
loop $-1 $79 $80 $35 #
cone-surface $-1 -48.404701803102263 31.167068687304706 6.8695664196481809 0 -0.73135370988377701 -0.68199835119979291 2 0 0 1 I I 0 1 2 forward I I I I #
face $-1 $81 $82 $28 $-1 $83 forward single #
loop $-1 $84 $85 $36 #
cone-surface $-1 -40.689999536289491 31.167068687304706 6.8695664196481809 0 -0.73135370988377701 -0.68199835119979291 2 0 0 1 I I 0 1 2 forward I I I I #
face $-1 $86 $87 $29 $-1 $88 reversed single #
loop $-1 $-1 $89 $37 #
plane-surface $-1 35.546864691747636 78.198443699426349 144.5120718651327 1 0 0 0 -0.73135370988377701 -0.68199835119979291 forward_v I I I I #
face $-1 $90 $91 $30 $-1 $92 forward single #
loop $-1 $93 $94 $38 #
cone-surface $-1 40.689999536289491 31.167068687304706 6.8695664196481809 0 -0.73135370988377701 -0.68199835119979291 2 0 0 1 I I 0 1 2 forward I I I I #
face $-1 $95 $96 $31 $-1 $97 forward single #
loop $-1 $98 $99 $39 #
cone-surface $-1 48.404701803102256 31.167068687304706 6.8695664196481809 0 -0.73135370988377701 -0.68199835119979291 2 0 0 1 I I 0 1 2 forward I I I I #
face $-1 $100 $101 $24 $-1 $102 reversed single #
loop $-1 $-1 $103 $40 #
plane-surface $-1 0 0 12.847854128265711 0 0 1 1 0 0 forward_v I I I I #
coedge $-1 $104 $105 $106 $107 reversed $41 $-1 #
face $-1 $108 $109 $25 $-1 $110 reversed single #
loop $-1 $-1 $111 $43 #
plane-surface $-1 0 0 -12.847854128265711 0 0 1 1 0 0 forward_v I I I I #
coedge $-1 $112 $113 $114 $115 forward $44 $-1 #
face $-1 $116 $117 $26 $-1 $118 reversed single #
loop $-1 $-1 $119 $46 #
plane-surface $-1 -44.547350669695874 -13.475327641600884 59.024899163454634 0 0.73135370988377701 0.68199835119979291 1 0 0 forward_v I I I I #
coedge $-1 $120 $121 $122 $123 reversed $47 $-1 #
face $-1 $-1 $124 $27 $-1 $125 forward single #
loop $-1 $126 $127 $49 #
cone-surface $-1 -48.404701803102263 28.299819312046374 4.1958131864615051 0 -0.73135370988377701 -0.68199835119979291 1 0 0 1 I I -0.70710678118654746 0.70710678118654746 1 forward I I I I #
loop $-1 $-1 $128 $35 #
coedge $-1 $80 $80 $129 $130 reversed $50 $-1 #
face $-1 $-1 $131 $28 $-1 $132 forward single #
loop $-1 $133 $134 $52 #
cone-surface $-1 -40.689999536289491 28.299819312046374 4.1958131864615051 0 -0.73135370988377701 -0.68199835119979291 1 0 0 1 I I -0.70710678118654746 0.70710678118654746 1 forward I I I I #
loop $-1 $-1 $135 $36 #
coedge $-1 $85 $85 $136 $137 reversed $53 $-1 #
face $-1 $138 $139 $29 $-1 $140 reversed single #
loop $-1 $-1 $141 $55 #
plane-surface $-1 44.547350669695874 -13.475327641600884 59.024899163454634 0 0.73135370988377701 0.68199835119979291 1 0 0 forward_v I I I I #
coedge $-1 $142 $143 $144 $145 reversed $56 $-1 #
face $-1 $-1 $146 $30 $-1 $147 forward single #
loop $-1 $148 $149 $58 #
cone-surface $-1 40.689999536289491 28.299819312046374 4.1958131864615051 0 -0.73135370988377701 -0.68199835119979291 1 0 0 1 I I -0.70710678118654746 0.70710678118654746 1 forward I I I I #
loop $-1 $-1 $150 $38 #
coedge $-1 $94 $94 $151 $152 reversed $59 $-1 #
face $-1 $-1 $153 $31 $-1 $154 forward single #
loop $-1 $155 $156 $61 #
cone-surface $-1 48.404701803102256 28.299819312046374 4.1958131864615051 0 -0.73135370988377701 -0.68199835119979291 1 0 0 1 I I -0.70710678118654746 0.70710678118654746 1 forward I I I I #
loop $-1 $-1 $157 $39 #
coedge $-1 $99 $99 $158 $159 reversed $62 $-1 #
face $-1 $160 $161 $24 $-1 $162 reversed single #
loop $-1 $-1 $163 $64 #
plane-surface $-1 0 0 -12.847854128265711 0 0 1 1 0 0 forward_v I I I I #
coedge $-1 $164 $165 $166 $167 forward $65 $-1 #
coedge $-1 $168 $67 $169 $170 reversed $41 $-1 #
coedge $-1 $67 $168 $171 $172 forward $41 $-1 #
coedge $-1 $173 $163 $67 $107 forward $101 $-1 #
edge $-1 $174 -62.674031800286869 $175 62.674031800286869 $67 $176 forward 7 unknown #
face $-1 $177 $178 $25 $-1 $179 reversed single #
loop $-1 $-1 $180 $68 #
plane-surface $-1 -56.522267017094478 -49.638527815236166 0 0 1 0 0 0 1 forward_v I I I I #
coedge $-1 $181 $182 $113 $183 forward $69 $-1 #
coedge $-1 $184 $71 $185 $186 reversed $44 $-1 #
coedge $-1 $71 $184 $111 $183 reversed $44 $-1 #
coedge $-1 $187 $188 $71 $115 reversed $178 $-1 #
edge $-1 $189 -12.847854128265711 $190 12.847854128265711 $114 $191 forward 7 unknown #
face $-1 $192 $193 $26 $-1 $194 forward single #
loop $-1 $-1 $195 $72 #
plane-surface $-1 -35.546864691747636 78.198443699426349 144.5120718651327 -1 0 0 0 0.73135370988377701 0.68199835119979291 forward_v I I I I #
coedge $-1 $196 $197 $198 $199 reversed $73 $-1 #
coedge $-1 $121 $75 $200 $201 reversed $47 $-1 #
coedge $-1 $75 $120 $196 $202 reversed $47 $-1 #
coedge $-1 $198 $203 $75 $123 forward $193 $-1 #
edge $-1 $204 2.0787555851368538 $205 9.5137594089309587 $122 $206 forward 7 unknown #
loop $-1 $-1 $129 $76 #
plane-surface $-1 -44.547350669695874 -13.475327641600884 59.024899163454634 0 0.73135370988377701 0.68199835119979291 1 0 0 forward_v I I I I #
loop $-1 $-1 $207 $49 #
coedge $-1 $127 $127 $128 $208 reversed $77 $-1 #
coedge $-1 $128 $128 $127 $208 forward $79 $-1 #
coedge $-1 $129 $129 $80 $130 forward $124 $-1 #
edge $-1 $209 -4.742271243677014e-016 $209 6.2831853071795996 $129 $210 forward 7 unknown #
loop $-1 $-1 $136 $81 #
plane-surface $-1 -44.547350669695874 -13.475327641600884 59.024899163454634 0 0.73135370988377701 0.68199835119979291 1 0 0 forward_v I I I I #
loop $-1 $-1 $211 $52 #
coedge $-1 $134 $134 $135 $212 reversed $82 $-1 #
coedge $-1 $135 $135 $134 $212 forward $84 $-1 #
coedge $-1 $136 $136 $85 $137 forward $131 $-1 #
edge $-1 $213 -4.742271243677014e-016 $213 6.2831853071795996 $136 $214 forward 7 unknown #
face $-1 $215 $216 $29 $-1 $217 forward single #
loop $-1 $-1 $218 $86 #
plane-surface $-1 53.547836647644111 78.198443699426349 144.5120718651327 -1 0 0 0 0.73135370988377701 0.68199835119979291 forward_v I I I I #
coedge $-1 $219 $220 $221 $222 reversed $87 $-1 #
coedge $-1 $143 $89 $223 $224 reversed $56 $-1 #
coedge $-1 $89 $142 $219 $225 reversed $56 $-1 #
coedge $-1 $221 $226 $89 $145 forward $216 $-1 #
edge $-1 $227 2.0787555851368538 $228 9.5137594089309587 $144 $229 forward 7 unknown #
loop $-1 $-1 $151 $90 #
plane-surface $-1 44.547350669695874 -13.475327641600884 59.024899163454634 0 0.73135370988377701 0.68199835119979291 1 0 0 forward_v I I I I #
loop $-1 $-1 $230 $58 #
coedge $-1 $149 $149 $150 $231 reversed $91 $-1 #
coedge $-1 $150 $150 $149 $231 forward $93 $-1 #
coedge $-1 $151 $151 $94 $152 forward $146 $-1 #
edge $-1 $232 -4.742271243677014e-016 $232 6.2831853071795996 $151 $233 forward 7 unknown #
loop $-1 $-1 $158 $95 #
plane-surface $-1 44.547350669695874 -13.475327641600884 59.024899163454634 0 0.73135370988377701 0.68199835119979291 1 0 0 forward_v I I I I #
loop $-1 $-1 $234 $61 #
coedge $-1 $156 $156 $157 $235 reversed $96 $-1 #
coedge $-1 $157 $157 $156 $235 forward $98 $-1 #
coedge $-1 $158 $158 $99 $159 forward $153 $-1 #
edge $-1 $236 -4.742271243677014e-016 $236 6.2831853071795996 $158 $237 forward 7 unknown #
face $-1 $238 $239 $24 $-1 $240 reversed single #
loop $-1 $-1 $241 $100 #
plane-surface $-1 -62.674031800286869 0 0 1 0 0 0 0 -1 forward_v I I I I #
coedge $-1 $106 $242 $243 $244 forward $101 $-1 #
coedge $-1 $245 $103 $246 $247 forward $65 $-1 #
coedge $-1 $103 $245 $168 $248 forward $65 $-1 #
coedge $-1 $169 $249 $103 $167 reversed $250 $-1 #
edge $-1 $251 -37.020466264576321 $252 37.020466264576321 $166 $253 forward 7 unknown #
coedge $-1 $105 $104 $165 $248 reversed $41 $-1 #
coedge $-1 $243 $166 $104 $170 forward $250 $-1 #
edge $-1 $251 -12.847854128265711 $174 12.847854128265711 $169 $254 forward 7 unknown #
coedge $-1 $255 $256 $105 $172 reversed $161 $-1 #
edge $-1 $257 -12.847854128265711 $175 12.847854128265711 $171 $258 forward 7 unknown #
coedge $-1 $242 $106 $256 $259 forward $101 $-1 #
vertex $-1 $170 $260 #
vertex $-1 $259 $261 #
straight-curve $-1 0 -37.020466264576321 -12.847854128265711 -1 0 0 I I #
face $-1 $262 $263 $25 $-1 $264 reversed single #
loop $-1 $-1 $114 $108 #
plane-surface $-1 -58.022267017094478 -43.329497039906244 0 1 0 0 0 0 -1 forward_v I I I I #
coedge $-1 $265 $266 $267 $268 forward $109 $-1 #
coedge $-1 $269 $111 $270 $271 forward $69 $-1 #
coedge $-1 $111 $269 $187 $272 forward $69 $-1 #
edge $-1 $189 -58.022267017094478 $273 -55.022267017094478 $111 $274 forward 7 unknown #
coedge $-1 $113 $112 $275 $276 forward $44 $-1 #
coedge $-1 $277 $278 $112 $186 forward $279 $-1 #
edge $-1 $280 55.022267017094478 $190 58.022267017094478 $185 $281 forward 7 unknown #
coedge $-1 $267 $114 $182 $272 reversed $178 $-1 #
coedge $-1 $114 $267 $277 $282 reversed $178 $-1 #
vertex $-1 $183 $283 #
vertex $-1 $282 $284 #
straight-curve $-1 -58.022267017094478 -37.020466264576321 0 0 0 1 I I #
face $-1 $-1 $285 $26 $-1 $286 reversed single #
loop $-1 $-1 $122 $116 #
plane-surface $-1 0 0 12.847854128265711 0 0 1 1 0 0 forward_v I I I I #
coedge $-1 $287 $288 $289 $290 reversed $117 $-1 #
coedge $-1 $291 $119 $121 $202 forward $73 $-1 #
coedge $-1 $119 $291 $287 $292 forward $73 $-1 #
coedge $-1 $289 $122 $119 $199 forward $193 $-1 #
edge $-1 $205 -31.274161312796174 $293 -13.273189356899699 $198 $294 forward 7 unknown #
coedge $-1 $295 $296 $120 $201 forward $285 $-1 #
edge $-1 $297 -67.381247457561912 $204 -59.408181804300639 $200 $298 forward 7 unknown #
edge $-1 $205 63.139141035501339 $297 74.040932529152627 $121 $299 forward 7 unknown #
coedge $-1 $122 $289 $295 $300 forward $193 $-1 #
vertex $-1 $201 $301 #
vertex $-1 $123 $302 #
straight-curve $-1 -53.547836647644111 39.099221849713174 12.847854128265709 0 -1 0 I I #
coedge $-1 $207 $207 $-1 $303 reversed $126 $-1 #
edge $-1 $304 0 $304 6.2831853071796004 $127 $305 forward 7 unknown #
vertex $-1 $130 $306 #
ellipse-curve $-1 -48.404701803102263 33.302964352679268 8.8613213016350691 0 0.73135370988377701 0.68199835119979291 2 0 0 1 I I #
coedge $-1 $211 $211 $-1 $307 reversed $133 $-1 #
edge $-1 $308 0 $308 6.2831853071796004 $134 $309 forward 7 unknown #
vertex $-1 $137 $310 #
ellipse-curve $-1 -40.689999536289491 33.302964352679268 8.8613213016350691 0 0.73135370988377701 0.68199835119979291 2 0 0 1 I I #
face $-1 $-1 $311 $29 $-1 $312 reversed single #
loop $-1 $-1 $144 $138 #
plane-surface $-1 0 0 12.847854128265711 0 0 1 1 0 0 forward_v I I I I #
coedge $-1 $313 $314 $315 $316 reversed $139 $-1 #
coedge $-1 $317 $141 $143 $225 forward $87 $-1 #
coedge $-1 $141 $317 $313 $318 forward $87 $-1 #
coedge $-1 $315 $144 $141 $222 forward $216 $-1 #
edge $-1 $228 13.273189356899699 $319 31.274161312796174 $221 $320 forward 7 unknown #
coedge $-1 $321 $322 $142 $224 forward $311 $-1 #
edge $-1 $323 -67.381247457561912 $227 -59.408181804300639 $223 $324 forward 7 unknown #
edge $-1 $228 63.139141035501339 $323 74.040932529152627 $143 $325 forward 7 unknown #
coedge $-1 $144 $315 $321 $326 forward $216 $-1 #
vertex $-1 $145 $327 #
vertex $-1 $145 $328 #
straight-curve $-1 35.546864691747636 39.099221849713174 12.847854128265709 0 -1 0 I I #
coedge $-1 $230 $230 $-1 $329 reversed $148 $-1 #
edge $-1 $330 0 $330 6.2831853071796004 $149 $331 forward 7 unknown #
vertex $-1 $152 $332 #
ellipse-curve $-1 40.689999536289491 33.302964352679268 8.8613213016350691 0 0.73135370988377701 0.68199835119979291 2 0 0 1 I I #
coedge $-1 $234 $234 $-1 $333 reversed $155 $-1 #
edge $-1 $334 0 $334 6.2831853071796004 $156 $335 forward 7 unknown #
vertex $-1 $159 $336 #
ellipse-curve $-1 48.404701803102256 33.302964352679268 8.8613213016350691 0 0.73135370988377701 0.68199835119979291 2 0 0 1 I I #
face $-1 $-1 $250 $24 $-1 $337 reversed single #
loop $-1 $-1 $338 $160 #
plane-surface $-1 0 37.020466264576321 0 0 -1 0 0 0 -1 forward_v I I I I #
coedge $-1 $256 $255 $339 $340 forward $161 $-1 #
coedge $-1 $163 $173 $341 $342 forward $101 $-1 #
coedge $-1 $249 $169 $163 $244 reversed $250 $-1 #
edge $-1 $343 -37.020466264576321 $174 37.020466264576321 $243 $344 forward 7 unknown #
coedge $-1 $165 $164 $255 $345 forward $65 $-1 #
coedge $-1 $338 $339 $164 $247 reversed $239 $-1 #
edge $-1 $252 -62.674031800286869 $346 62.674031800286869 $246 $347 forward 7 unknown #
edge $-1 $257 -62.674031800286869 $251 62.674031800286869 $168 $348 forward 7 unknown #
coedge $-1 $166 $243 $338 $349 reversed $250 $-1 #
loop $-1 $-1 $169 $238 #
vertex $-1 $167 $350 #
vertex $-1 $167 $351 #
straight-curve $-1 62.674031800286869 0 12.847854128265711 0 1 0 I I #
straight-curve $-1 62.674031800286869 -37.020466264576321 0 0 0 -1 I I #
coedge $-1 $241 $171 $245 $345 reversed $161 $-1 #
coedge $-1 $171 $241 $173 $259 reversed $161 $-1 #
vertex $-1 $345 $352 #
straight-curve $-1 -62.674031800286869 -37.020466264576321 0 0 0 -1 I I #
edge $-1 $175 -37.020466264576321 $353 37.020466264576321 $256 $354 forward 7 unknown #
point $-1 62.674031800286869 -37.020466264576321 -12.847854128265711 #
point $-1 -62.674031800286869 -37.020466264576321 -12.847854128265711 #
face $-1 $-1 $279 $25 $-1 $355 forward single #
loop $-1 $-1 $356 $177 #
plane-surface $-1 -55.022267017094478 -43.329497039906244 0 -1 0 0 0 0 1 forward_v I I I I #
coedge $-1 $357 $180 $269 $358 reversed $109 $-1 #
coedge $-1 $180 $357 $359 $360 reversed $109 $-1 #
coedge $-1 $188 $187 $180 $268 reversed $178 $-1 #
edge $-1 $361 -12.847854128265711 $362 12.847854128265711 $267 $363 forward 7 unknown #
coedge $-1 $182 $181 $265 $358 forward $69 $-1 #
coedge $-1 $275 $356 $181 $271 reversed $263 $-1 #
edge $-1 $273 -6.3090307753299228 $364 6.3090307753299228 $270 $365 forward 7 unknown #
edge $-1 $362 -6.3090307753299228 $189 6.3090307753299228 $187 $366 forward 7 unknown #
vertex $-1 $271 $367 #
straight-curve $-1 0 -37.020466264576321 -12.847854128265711 1 0 0 I I #
coedge $-1 $368 $270 $184 $276 reversed $263 $-1 #
edge $-1 $280 -12.847854128265711 $273 12.847854128265711 $275 $369 forward 7 unknown #
coedge $-1 $359 $185 $188 $282 forward $279 $-1 #
coedge $-1 $185 $359 $368 $370 forward $279 $-1 #
loop $-1 $-1 $185 $262 #
vertex $-1 $186 $371 #
straight-curve $-1 0 -37.020466264576321 12.847854128265711 -1 0 0 I I #
edge $-1 $190 -6.3090307753299228 $361 6.3090307753299228 $188 $372 forward 7 unknown #
point $-1 -58.022267017094478 -37.020466264576321 -12.847854128265711 #
point $-1 -58.022267017094478 -37.020466264576321 12.847854128265711 #
loop $-1 $-1 $200 $192 #
plane-surface $-1 0 37.020466264576321 0 0 -1 0 0 0 -1 forward_v I I I I #
coedge $-1 $288 $195 $197 $292 reversed $117 $-1 #
coedge $-1 $195 $287 $373 $374 reversed $117 $-1 #
coedge $-1 $203 $198 $195 $290 forward $193 $-1 #
edge $-1 $293 -9.5137594089309587 $375 -2.0787555851368538 $289 $376 forward 7 unknown #
coedge $-1 $197 $196 $296 $377 reversed $73 $-1 #
edge $-1 $378 -74.040932529152627 $293 -63.139141035501339 $287 $379 forward 7 unknown #
vertex $-1 $199 $380 #
straight-curve $-1 -22.273675334847937 29.585462440782212 12.847854128265705 1 0 0 I I #
coedge $-1 $373 $200 $203 $300 reversed $285 $-1 #
coedge $-1 $200 $373 $291 $377 forward $285 $-1 #
vertex $-1 $201 $381 #
straight-curve $-1 -53.547836647644111 37.020466264576321 72.256035932566348 0 0 1 I I #
straight-curve $-1 -53.547836647644111 -13.475327641600884 59.024899163454634 0 0.68199835119979291 -0.73135370988377701 I I #
edge $-1 $375 35.546864691747636 $204 53.547836647644111 $295 $382 forward 7 unknown #
point $-1 -53.547836647644111 37.020466264576321 12.847854128265711 #
point $-1 -53.547836647644111 29.585462440782216 12.847854128265709 #
edge $-1 $383 1 $383 0 $207 $-1 forward 7 unknown #
vertex $-1 $208 $384 #
ellipse-curve $-1 -48.404701803102263 29.031173021930151 4.877811537661298 0 0.73135370988377701 0.68199835119979291 2 0 0 1 I I #
point $-1 -46.404701803102263 33.302964352679261 8.8613213016350638 #
edge $-1 $385 1 $385 0 $211 $-1 forward 7 unknown #
vertex $-1 $212 $386 #
ellipse-curve $-1 -40.689999536289491 29.031173021930151 4.877811537661298 0 0.73135370988377701 0.68199835119979291 2 0 0 1 I I #
point $-1 -38.689999536289491 33.302964352679261 8.8613213016350638 #
loop $-1 $-1 $223 $215 #
plane-surface $-1 0 37.020466264576321 0 0 -1 0 0 0 -1 forward_v I I I I #
coedge $-1 $314 $218 $220 $318 reversed $139 $-1 #
coedge $-1 $218 $313 $387 $388 reversed $139 $-1 #
coedge $-1 $226 $221 $218 $316 forward $216 $-1 #
edge $-1 $319 -9.5137594089309587 $389 -2.0787555851368538 $315 $390 forward 7 unknown #
coedge $-1 $220 $219 $322 $391 reversed $87 $-1 #
edge $-1 $392 -74.040932529152627 $319 -63.139141035501339 $313 $393 forward 7 unknown #
vertex $-1 $222 $394 #
straight-curve $-1 22.273675334847937 29.585462440782212 12.847854128265705 1 0 0 I I #
coedge $-1 $387 $223 $226 $326 reversed $311 $-1 #
coedge $-1 $223 $387 $317 $391 forward $311 $-1 #
vertex $-1 $224 $395 #
straight-curve $-1 35.546864691747636 37.020466264576321 72.256035932566348 0 0 1 I I #
straight-curve $-1 35.546864691747636 -13.475327641600884 59.024899163454634 0 0.68199835119979291 -0.73135370988377701 I I #
edge $-1 $389 -53.547836647644111 $227 -35.546864691747636 $321 $396 forward 7 unknown #
point $-1 35.546864691747636 37.020466264576321 12.847854128265711 #
point $-1 35.546864691747636 29.585462440782216 12.847854128265709 #
edge $-1 $397 1 $397 0 $230 $-1 forward 7 unknown #
vertex $-1 $231 $398 #
ellipse-curve $-1 40.689999536289491 29.031173021930151 4.877811537661298 0 0.73135370988377701 0.68199835119979291 2 0 0 1 I I #
point $-1 42.689999536289491 33.302964352679261 8.8613213016350638 #
edge $-1 $399 1 $399 0 $234 $-1 forward 7 unknown #
vertex $-1 $235 $400 #
ellipse-curve $-1 48.404701803102256 29.031173021930151 4.877811537661298 0 0.73135370988377701 0.68199835119979291 2 0 0 1 I I #
point $-1 50.404701803102256 33.302964352679261 8.8613213016350638 #
plane-surface $-1 62.674031800286869 0 0 -1 0 0 0 0 1 forward_v I I I I #
coedge $-1 $341 $246 $249 $349 forward $239 $-1 #
coedge $-1 $246 $341 $241 $340 reversed $239 $-1 #
edge $-1 $346 -12.847854128265711 $353 12.847854128265711 $339 $401 forward 7 unknown #
coedge $-1 $339 $338 $242 $342 reversed $239 $-1 #
edge $-1 $353 -62.674031800286869 $343 62.674031800286869 $341 $402 forward 7 unknown #
vertex $-1 $244 $403 #
straight-curve $-1 62.674031800286869 0 -12.847854128265711 0 -1 0 I I #
edge $-1 $346 -37.020466264576321 $257 37.020466264576321 $255 $404 forward 7 unknown #
vertex $-1 $247 $405 #
straight-curve $-1 0 37.020466264576321 12.847854128265711 -1 0 0 I I #
straight-curve $-1 0 -37.020466264576321 12.847854128265711 1 0 0 I I #
edge $-1 $252 -12.847854128265711 $343 12.847854128265711 $249 $406 forward 7 unknown #
point $-1 62.674031800286869 -37.020466264576321 12.847854128265711 #
point $-1 62.674031800286869 37.020466264576321 12.847854128265711 #
point $-1 -62.674031800286869 -37.020466264576321 12.847854128265711 #
vertex $-1 $342 $407 #
straight-curve $-1 -62.674031800286869 0 -12.847854128265711 0 1 0 I I #
plane-surface $-1 0 0 12.847854128265711 0 0 1 1 0 0 forward_v I I I I #
coedge $-1 $270 $368 $357 $408 forward $263 $-1 #
coedge $-1 $266 $265 $356 $408 reversed $109 $-1 #
edge $-1 $364 -1.5 $362 1.5 $265 $409 forward 7 unknown #
coedge $-1 $278 $277 $266 $360 forward $279 $-1 #
edge $-1 $361 -1.5 $410 1.5 $266 $411 forward 7 unknown #
vertex $-1 $282 $412 #
vertex $-1 $272 $413 #
straight-curve $-1 -58.022267017094478 -49.638527815236166 0 0 0 -1 I I #
vertex $-1 $408 $414 #
straight-curve $-1 -55.022267017094478 -43.329497039906244 -12.847854128265711 0 -1 0 I I #
straight-curve $-1 -58.022267017094478 -43.329497039906244 -12.847854128265711 0 1 0 I I #
point $-1 -55.022267017094478 -37.020466264576321 -12.847854128265711 #
coedge $-1 $356 $275 $278 $370 reversed $263 $-1 #
straight-curve $-1 -55.022267017094478 -37.020466264576321 0 0 0 -1 I I #
edge $-1 $410 -6.3090307753299228 $280 6.3090307753299228 $368 $415 forward 7 unknown #
point $-1 -55.022267017094478 -37.020466264576321 12.847854128265711 #
straight-curve $-1 -58.022267017094478 -43.329497039906244 12.847854128265711 0 -1 0 I I #
coedge $-1 $296 $295 $288 $374 forward $285 $-1 #
edge $-1 $375 59.408181804300639 $378 67.381247457561912 $373 $416 forward 7 unknown #
vertex $-1 $300 $417 #
straight-curve $-1 -35.546864691747636 39.099221849713174 12.847854128265709 0 1 0 I I #
edge $-1 $378 13.273189356899699 $297 31.274161312796174 $296 $418 forward 7 unknown #
vertex $-1 $377 $419 #
straight-curve $-1 -35.546864691747636 -13.475327641600884 59.024899163454634 0 -0.68199835119979291 0.73135370988377701 I I #
point $-1 -35.546864691747636 29.585462440782216 12.847854128265709 #
point $-1 -53.547836647644111 37.020466264576321 4.8747884750044363 #
straight-curve $-1 0 37.020466264576321 12.847854128265711 -1 0 0 I I #
vertex $-1 $303 $420 #
point $-1 -46.404701803102263 29.031173021930151 4.877811537661298 #
vertex $-1 $307 $421 #
point $-1 -38.689999536289491 29.031173021930151 4.877811537661298 #
coedge $-1 $322 $321 $314 $388 forward $311 $-1 #
edge $-1 $389 59.408181804300639 $392 67.381247457561912 $387 $422 forward 7 unknown #
vertex $-1 $326 $423 #
straight-curve $-1 53.547836647644111 39.099221849713174 12.847854128265709 0 1 0 I I #
edge $-1 $392 -31.274161312796174 $323 -13.273189356899699 $322 $424 forward 7 unknown #
vertex $-1 $391 $425 #
straight-curve $-1 53.547836647644111 -13.475327641600884 59.024899163454634 0 -0.68199835119979291 0.73135370988377701 I I #
point $-1 53.547836647644111 29.585462440782216 12.847854128265709 #
point $-1 35.546864691747636 37.020466264576321 4.8747884750044363 #
straight-curve $-1 0 37.020466264576321 12.847854128265711 -1 0 0 I I #
vertex $-1 $329 $426 #
point $-1 42.689999536289491 29.031173021930151 4.877811537661298 #
vertex $-1 $333 $427 #
point $-1 50.404701803102256 29.031173021930151 4.877811537661298 #
straight-curve $-1 -62.674031800286869 37.020466264576321 0 0 0 -1 I I #
straight-curve $-1 0 37.020466264576321 -12.847854128265711 1 0 0 I I #
point $-1 62.674031800286869 37.020466264576321 -12.847854128265711 #
straight-curve $-1 -62.674031800286869 0 12.847854128265711 0 -1 0 I I #
point $-1 -62.674031800286869 37.020466264576321 12.847854128265711 #
straight-curve $-1 62.674031800286869 37.020466264576321 0 0 0 -1 I I #
point $-1 -62.674031800286869 37.020466264576321 -12.847854128265711 #
edge $-1 $410 -12.847854128265711 $364 12.847854128265711 $356 $428 forward 7 unknown #
straight-curve $-1 -56.522267017094478 -49.638527815236166 -12.847854128265711 -1 0 0 I I #
vertex $-1 $370 $429 #
straight-curve $-1 -56.522267017094478 -49.638527815236166 12.847854128265711 1 0 0 I I #
point $-1 -58.022267017094478 -49.638527815236166 12.847854128265711 #
point $-1 -58.022267017094478 -49.638527815236166 -12.847854128265711 #
point $-1 -55.022267017094478 -49.638527815236166 -12.847854128265711 #
straight-curve $-1 -55.022267017094478 -43.329497039906244 12.847854128265711 0 1 0 I I #
straight-curve $-1 -35.546864691747636 37.020466264576321 72.256035932566348 0 0 -1 I I #
point $-1 -35.546864691747636 37.020466264576321 12.847854128265711 #
straight-curve $-1 -22.273675334847937 37.020466264576314 4.8747884750044363 -1 0 0 I I #
point $-1 -35.546864691747636 37.020466264576321 4.8747884750044363 #
point $-1 -48.404701803102263 27.568465602162597 3.5138148352617122 #
point $-1 -40.689999536289491 27.568465602162597 3.5138148352617122 #
straight-curve $-1 53.547836647644111 37.020466264576321 72.256035932566348 0 0 -1 I I #
point $-1 53.547836647644111 37.020466264576321 12.847854128265711 #
straight-curve $-1 22.273675334847937 37.020466264576314 4.8747884750044363 -1 0 0 I I #
point $-1 53.547836647644111 37.020466264576321 4.8747884750044363 #
point $-1 40.689999536289491 27.568465602162597 3.5138148352617122 #
point $-1 48.404701803102256 27.568465602162597 3.5138148352617122 #
straight-curve $-1 -55.022267017094478 -49.638527815236166 0 0 0 -1 I I #
point $-1 -55.022267017094478 -49.638527815236166 12.847854128265711 #
End-of-ACIS-data 