500 0 8 0           
7 Unknown 11 ACIS 5.0 NT 24 Thu Mar 25 23:44:37 1999 
-1 9.9999999999999995e-007 1e-010 
body $-1 $8 $-1 $9 #
body $-1 $10 $-1 $11 #
body $-1 $12 $-1 $13 #
body $-1 $14 $-1 $15 #
body $-1 $16 $-1 $17 #
body $-1 $18 $-1 $19 #
body $-1 $20 $-1 $21 #
body $-1 $22 $-1 $23 #
lump $-1 $-1 $24 $0 #
transform $-1 1 0 0 0 1 0 0 0 1 69.905697805719171 31.230888381851937 15.328078461773822 1 rotate no_reflect no_shear #
lump $-1 $-1 $25 $1 #
transform $-1 1 0 0 0 1 0 0 0 1 69.905697805719171 31.230888381851937 15.328078461773822 1 rotate no_reflect no_shear #
lump $-1 $-1 $26 $2 #
transform $-1 1 0 0 0 1 0 0 0 1 69.905697805719171 31.230888381851937 15.328078461773822 1 rotate no_reflect no_shear #
lump $-1 $-1 $27 $3 #
transform $-1 1 0 0 0 1 0 0 0 1 69.905697805719171 31.230888381851937 15.328078461773822 1 rotate no_reflect no_shear #
lump $-1 $-1 $28 $4 #
transform $-1 1 0 0 0 1 0 0 0 1 69.905697805719171 31.230888381851937 15.328078461773822 1 rotate no_reflect no_shear #
lump $-1 $-1 $29 $5 #
transform $-1 1 0 0 0 1 0 0 0 1 69.905697805719171 31.230888381851937 15.328078461773822 1 rotate no_reflect no_shear #
lump $-1 $-1 $30 $6 #
transform $-1 1 0 0 0 1 0 0 0 1 69.905697805719171 31.230888381851937 15.328078461773822 1 rotate no_reflect no_shear #
lump $-1 $-1 $31 $7 #
transform $-1 1 0 0 0 1 0 0 0 1 69.905697805719171 31.230888381851937 15.328078461773822 1 rotate no_reflect no_shear #
shell $-1 $-1 $-1 $32 $-1 $8 #
shell $-1 $-1 $-1 $33 $-1 $10 #
shell $-1 $-1 $-1 $34 $-1 $12 #
shell $-1 $-1 $-1 $35 $-1 $14 #
shell $-1 $-1 $-1 $36 $-1 $16 #
shell $-1 $-1 $-1 $37 $-1 $18 #
shell $-1 $-1 $-1 $38 $-1 $20 #
shell $-1 $-1 $-1 $39 $-1 $22 #
face $-1 $40 $41 $24 $-1 $42 forward single #
face $-1 $43 $44 $25 $-1 $45 forward single #
face $-1 $46 $47 $26 $-1 $48 reversed single #
face $-1 $49 $50 $27 $-1 $51 forward single #
face $-1 $52 $53 $28 $-1 $54 forward single #
face $-1 $55 $56 $29 $-1 $57 forward single #
face $-1 $58 $59 $30 $-1 $60 reversed single #
face $-1 $61 $62 $31 $-1 $63 forward single #
face $-1 $64 $65 $24 $-1 $66 reversed single #
loop $-1 $-1 $67 $32 #
plane-surface $-1 0 0 15.328078461773822 0 0 1 1 0 0 forward_v I I I I #
face $-1 $68 $69 $25 $-1 $70 reversed single #
loop $-1 $-1 $71 $33 #
plane-surface $-1 -69.905697805719171 0 0 1 0 0 0 0 -1 forward_v I I I I #
face $-1 $72 $73 $26 $-1 $74 reversed single #
loop $-1 $-1 $75 $34 #
plane-surface $-1 -52.032036558612425 109.93107745035604 137.82305184302896 1 0 0 0 -0.81915205242281985 -0.57357642473473569 forward_v I I I I #
face $-1 $76 $77 $27 $-1 $78 forward single #
loop $-1 $79 $80 $35 #
cone-surface $-1 -47.084342374013488 25.040521342859456 8.734698490364103 0 -0.81915205242281985 -0.57357642473473569 2 0 0 1 I I 0 1 2 forward I I I I #
face $-1 $81 $82 $28 $-1 $83 forward single #
loop $-1 $84 $85 $36 #
cone-surface $-1 -39.662801097115079 25.040521342859456 8.734698490364103 0 -0.81915205242281985 -0.57357642473473569 2 0 0 1 I I 0 1 2 forward I I I I #
face $-1 $86 $87 $29 $-1 $88 forward single #
loop $-1 $89 $90 $37 #
cone-surface $-1 -32.241259820216669 25.040521342859456 8.734698490364103 0 -0.81915205242281985 -0.57357642473473569 2 0 0 1 I I 0 1 2 forward I I I I #
face $-1 $91 $92 $30 $-1 $93 reversed single #
loop $-1 $-1 $94 $38 #
plane-surface $-1 15.174414731037992 -109.41242964820994 118.29686022304654 -1 0 0 0 -0.55919291073839883 0.82903756765294845 forward_v I I I I #
face $-1 $95 $96 $31 $-1 $97 forward single #
loop $-1 $98 $99 $39 #
cone-surface $-1 1.0520475620594425 -17.697334762926282 3.0148064303292186 0 0.55919291073839883 -0.82903756765294845 4 0 0 1 I I 0 1 4 forward I I I I #
face $-1 $100 $101 $24 $-1 $102 reversed single #
loop $-1 $-1 $103 $40 #
plane-surface $-1 0 0 -15.328078461773822 0 0 1 1 0 0 forward_v I I I I #
coedge $-1 $104 $105 $106 $107 forward $41 $-1 #
face $-1 $108 $109 $25 $-1 $110 forward single #
loop $-1 $-1 $111 $43 #
plane-surface $-1 0 31.230888381851937 0 0 -1 0 0 0 -1 forward_v I I I I #
coedge $-1 $112 $113 $114 $115 forward $44 $-1 #
face $-1 $116 $117 $26 $-1 $118 reversed single #
loop $-1 $-1 $119 $46 #
plane-surface $-1 -39.662801097115079 -4.5957142168524996 57.630531411046448 0 0.81915205242281985 0.57357642473473569 1 0 0 forward_v I I I I #
coedge $-1 $120 $121 $122 $123 reversed $47 $-1 #
face $-1 $-1 $124 $27 $-1 $125 forward single #
loop $-1 $126 $127 $49 #
cone-surface $-1 -47.084342374013488 21.134055777878007 5.9993619365653412 0 -0.81915205242281985 -0.57357642473473569 1 0 0 1 I I -0.70710678118654746 0.70710678118654746 1 forward I I I I #
loop $-1 $-1 $128 $35 #
coedge $-1 $80 $80 $129 $130 reversed $50 $-1 #
face $-1 $-1 $131 $28 $-1 $132 forward single #
loop $-1 $133 $134 $52 #
cone-surface $-1 -39.662801097115079 21.134055777878007 5.9993619365653412 0 -0.81915205242281985 -0.57357642473473569 1 0 0 1 I I -0.70710678118654746 0.70710678118654746 1 forward I I I I #
loop $-1 $-1 $135 $36 #
coedge $-1 $85 $85 $136 $137 reversed $53 $-1 #
face $-1 $-1 $138 $29 $-1 $139 forward single #
loop $-1 $140 $141 $55 #
cone-surface $-1 -32.241259820216669 21.134055777878007 5.9993619365653412 0 -0.81915205242281985 -0.57357642473473569 1 0 0 1 I I -0.70710678118654746 0.70710678118654746 1 forward I I I I #
loop $-1 $-1 $142 $37 #
coedge $-1 $90 $90 $143 $144 reversed $56 $-1 #
face $-1 $145 $146 $30 $-1 $147 reversed single #
loop $-1 $-1 $148 $58 #
plane-surface $-1 1.0520475620594425 -31.230888381851926 2.3879608751755796 0 -0.55919291073839883 0.82903756765294845 1 0 0 forward_v I I I I #
coedge $-1 $149 $150 $151 $152 reversed $59 $-1 #
face $-1 $-1 $153 $31 $-1 $154 forward single #
loop $-1 $155 $156 $61 #
cone-surface $-1 1.0520475620594425 -12.637651772065293 -4.486481943122163 0 0.55919291073839883 -0.82903756765294845 2 0 0 1 I I -0.70710678118654768 0.70710678118654735 2 forward I I I I #
loop $-1 $-1 $157 $39 #
coedge $-1 $99 $99 $158 $159 reversed $62 $-1 #
face $-1 $160 $161 $24 $-1 $162 reversed single #
loop $-1 $-1 $163 $64 #
plane-surface $-1 0 -31.230888381851937 0 0 1 0 0 0 1 forward_v I I I I #
coedge $-1 $164 $165 $166 $167 forward $65 $-1 #
coedge $-1 $168 $67 $169 $170 forward $41 $-1 #
coedge $-1 $67 $168 $171 $172 forward $41 $-1 #
coedge $-1 $173 $174 $67 $107 reversed $175 $-1 #
edge $-1 $176 -31.230888381851937 $177 31.230888381851937 $106 $178 forward 7 unknown #
face $-1 $179 $180 $25 $-1 $181 reversed single #
loop $-1 $-1 $114 $68 #
plane-surface $-1 -78.842528429272548 0 8.0338671561233674 0 0 1 1 0 0 forward_v I I I I #
coedge $-1 $182 $183 $113 $184 forward $69 $-1 #
coedge $-1 $185 $71 $186 $187 reversed $44 $-1 #
coedge $-1 $71 $185 $111 $184 reversed $44 $-1 #
coedge $-1 $188 $189 $71 $115 reversed $109 $-1 #
edge $-1 $190 -31.230888381851937 $191 31.230888381851937 $114 $192 forward 7 unknown #
face $-1 $193 $194 $26 $-1 $195 forward single #
loop $-1 $-1 $196 $72 #
plane-surface $-1 -27.293565635617732 109.93107745035604 137.82305184302896 -1 0 0 0 0.81915205242281985 0.57357642473473569 forward_v I I I I #
coedge $-1 $197 $198 $199 $200 reversed $73 $-1 #
coedge $-1 $121 $75 $201 $202 reversed $47 $-1 #
coedge $-1 $75 $120 $197 $203 reversed $47 $-1 #
coedge $-1 $199 $204 $75 $123 forward $194 $-1 #
edge $-1 $205 23.734650343326084 $206 29.940757396193767 $122 $207 forward 7 unknown #
loop $-1 $-1 $129 $76 #
plane-surface $-1 -39.662801097115079 -4.5957142168524996 57.630531411046448 0 0.81915205242281985 0.57357642473473569 1 0 0 forward_v I I I I #
loop $-1 $-1 $208 $49 #
coedge $-1 $127 $127 $128 $209 reversed $77 $-1 #
coedge $-1 $128 $128 $127 $209 forward $79 $-1 #
coedge $-1 $129 $129 $80 $130 forward $124 $-1 #
edge $-1 $210 5.8113666208619909e-016 $210 6.2831853071796013 $129 $211 forward 7 unknown #
loop $-1 $-1 $136 $81 #
plane-surface $-1 -39.662801097115079 -4.5957142168524996 57.630531411046448 0 0.81915205242281985 0.57357642473473569 1 0 0 forward_v I I I I #
loop $-1 $-1 $212 $52 #
coedge $-1 $134 $134 $135 $213 reversed $82 $-1 #
coedge $-1 $135 $135 $134 $213 forward $84 $-1 #
coedge $-1 $136 $136 $85 $137 forward $131 $-1 #
edge $-1 $214 5.8113666208619909e-016 $214 6.2831853071796013 $136 $215 forward 7 unknown #
loop $-1 $-1 $143 $86 #
plane-surface $-1 -39.662801097115079 -4.5957142168524996 57.630531411046448 0 0.81915205242281985 0.57357642473473569 1 0 0 forward_v I I I I #
loop $-1 $-1 $216 $55 #
coedge $-1 $141 $141 $142 $217 reversed $87 $-1 #
coedge $-1 $142 $142 $141 $217 forward $89 $-1 #
coedge $-1 $143 $143 $90 $144 forward $138 $-1 #
edge $-1 $218 5.8113666208619909e-016 $218 6.2831853071796013 $143 $219 forward 7 unknown #
face $-1 $220 $221 $30 $-1 $222 reversed single #
loop $-1 $-1 $223 $91 #
plane-surface $-1 -13.070319606919107 -109.41242964820994 118.29686022304654 1 0 0 0 0.55919291073839883 -0.82903756765294845 forward_v I I I I #
coedge $-1 $224 $225 $226 $227 reversed $92 $-1 #
coedge $-1 $150 $94 $228 $229 reversed $59 $-1 #
coedge $-1 $94 $149 $224 $230 reversed $59 $-1 #
coedge $-1 $226 $231 $94 $152 forward $232 $-1 #
edge $-1 $233 23.475326442253031 $234 42.659839341335982 $151 $235 forward 7 unknown #
loop $-1 $-1 $158 $95 #
plane-surface $-1 1.0520475620594425 -31.230888381851926 2.3879608751755796 0 -0.55919291073839883 0.82903756765294845 1 0 0 forward_v I I I I #
loop $-1 $-1 $236 $61 #
coedge $-1 $156 $156 $157 $237 reversed $96 $-1 #
coedge $-1 $157 $157 $156 $237 forward $98 $-1 #
coedge $-1 $158 $158 $99 $159 forward $153 $-1 #
edge $-1 $238 5.0532441270782924e-016 $238 6.2831853071796013 $158 $239 forward 7 unknown #
face $-1 $240 $241 $24 $-1 $242 reversed single #
loop $-1 $-1 $243 $100 #
plane-surface $-1 -69.905697805719171 0 0 1 0 0 0 0 -1 forward_v I I I I #
coedge $-1 $244 $171 $243 $245 forward $101 $-1 #
coedge $-1 $246 $103 $244 $247 forward $65 $-1 #
coedge $-1 $103 $246 $248 $249 forward $65 $-1 #
coedge $-1 $174 $173 $103 $167 reversed $175 $-1 #
edge $-1 $250 -31.230888381851937 $251 31.230888381851937 $166 $252 forward 7 unknown #
coedge $-1 $105 $104 $253 $254 forward $41 $-1 #
coedge $-1 $255 $256 $104 $170 reversed $241 $-1 #
edge $-1 $177 -69.905697805719171 $257 69.905697805719171 $169 $258 forward 7 unknown #
coedge $-1 $163 $259 $105 $172 reversed $101 $-1 #
edge $-1 $260 -69.905697805719171 $176 69.905697805719171 $171 $261 forward 7 unknown #
coedge $-1 $166 $106 $259 $262 forward $175 $-1 #
coedge $-1 $106 $166 $255 $263 reversed $175 $-1 #
loop $-1 $-1 $173 $240 #
vertex $-1 $107 $264 #
vertex $-1 $107 $265 #
straight-curve $-1 69.905697805719171 0 15.328078461773822 0 1 0 I I #
face $-1 $266 $267 $25 $-1 $268 reversed single #
loop $-1 $-1 $269 $108 #
plane-surface $-1 -78.842528429272548 0 3.356995216515763 0 0 1 1 0 0 forward_v I I I I #
coedge $-1 $270 $111 $271 $272 reversed $69 $-1 #
coedge $-1 $111 $270 $188 $273 reversed $69 $-1 #
edge $-1 $190 -8.0338671561233674 $274 -3.356995216515763 $111 $275 forward 7 unknown #
coedge $-1 $113 $112 $269 $276 forward $44 $-1 #
coedge $-1 $277 $278 $112 $187 forward $279 $-1 #
edge $-1 $280 3.356995216515763 $191 8.0338671561233674 $186 $281 forward 7 unknown #
coedge $-1 $282 $114 $183 $273 forward $109 $-1 #
coedge $-1 $114 $282 $277 $283 forward $109 $-1 #
vertex $-1 $184 $284 #
vertex $-1 $283 $285 #
straight-curve $-1 -69.905697805719171 0 8.0338671561233674 0 -1 0 I I #
face $-1 $-1 $286 $26 $-1 $287 reversed single #
loop $-1 $-1 $122 $116 #
plane-surface $-1 0 0 15.328078461773822 0 0 1 1 0 0 forward_v I I I I #
coedge $-1 $288 $289 $290 $291 reversed $117 $-1 #
coedge $-1 $292 $119 $121 $203 forward $73 $-1 #
coedge $-1 $119 $292 $288 $293 forward $73 $-1 #
coedge $-1 $290 $122 $119 $200 forward $194 $-1 #
edge $-1 $206 -32.200636010054886 $294 -7.4621650870601925 $199 $295 forward 7 unknown #
coedge $-1 $296 $297 $120 $202 forward $286 $-1 #
edge $-1 $298 -62.44668714443204 $205 -53.583447459740661 $201 $299 forward 7 unknown #
edge $-1 $206 51.641759089968645 $298 62.461776763703853 $121 $300 forward 7 unknown #
coedge $-1 $122 $290 $296 $301 forward $194 $-1 #
vertex $-1 $202 $302 #
vertex $-1 $123 $303 #
straight-curve $-1 -52.032036558612425 54.965538725178021 15.328078461773821 0 -1 0 I I #
coedge $-1 $208 $208 $-1 $304 reversed $126 $-1 #
edge $-1 $305 0 $305 6.2831853071796004 $127 $306 forward 7 unknown #
vertex $-1 $130 $307 #
ellipse-curve $-1 -47.084342374013488 28.127834855418094 10.896458619428136 0 0.81915205242281985 0.57357642473473569 2 0 0 1 I I #
coedge $-1 $212 $212 $-1 $308 reversed $133 $-1 #
edge $-1 $309 0 $309 6.2831853071796004 $134 $310 forward 7 unknown #
vertex $-1 $137 $311 #
ellipse-curve $-1 -39.662801097115079 28.127834855418094 10.896458619428136 0 0.81915205242281985 0.57357642473473569 2 0 0 1 I I #
coedge $-1 $216 $216 $-1 $312 reversed $140 $-1 #
edge $-1 $313 0 $313 6.2831853071796004 $141 $314 forward 7 unknown #
vertex $-1 $144 $315 #
ellipse-curve $-1 -32.241259820216669 28.127834855418094 10.896458619428136 0 0.81915205242281985 0.57357642473473569 2 0 0 1 I I #
face $-1 $-1 $232 $30 $-1 $316 forward single #
loop $-1 $-1 $317 $145 #
plane-surface $-1 0 -31.230888381851937 0 0 1 0 0 0 1 forward_v I I I I #
coedge $-1 $318 $319 $320 $321 reversed $146 $-1 #
coedge $-1 $322 $148 $150 $230 forward $92 $-1 #
coedge $-1 $148 $322 $318 $323 forward $92 $-1 #
coedge $-1 $320 $151 $148 $227 forward $232 $-1 #
edge $-1 $234 -14.64839095000827 $324 13.596343387948828 $226 $325 forward 7 unknown #
coedge $-1 $326 $327 $149 $229 forward $221 $-1 #
edge $-1 $328 -56.760469236347696 $233 -43.820351649749448 $228 $329 forward 7 unknown #
edge $-1 $234 -23.140703929009351 $328 1.2809303926657532e-014 $150 $330 forward 7 unknown #
coedge $-1 $151 $320 $326 $331 forward $232 $-1 #
loop $-1 $-1 $320 $220 #
vertex $-1 $229 $332 #
vertex $-1 $152 $333 #
straight-curve $-1 15.174414731037992 -54.706214824104968 15.328078461773821 0 1 0 I I #
coedge $-1 $236 $236 $-1 $334 reversed $155 $-1 #
edge $-1 $335 0 $335 6.2831853071796004 $156 $336 forward 7 unknown #
vertex $-1 $159 $337 #
ellipse-curve $-1 1.0520475620594425 -21.638631932310464 8.8580196684746948 0 -0.55919291073839883 0.82903756765294845 4 0 0 1 I I #
face $-1 $-1 $175 $24 $-1 $338 reversed single #
loop $-1 $-1 $255 $160 #
plane-surface $-1 0 31.230888381851937 0 0 -1 0 0 0 -1 forward_v I I I I #
coedge $-1 $253 $339 $163 $245 reversed $161 $-1 #
coedge $-1 $259 $163 $164 $247 reversed $101 $-1 #
edge $-1 $260 -15.328078461773822 $340 15.328078461773822 $243 $341 forward 7 unknown #
coedge $-1 $165 $164 $339 $342 forward $65 $-1 #
edge $-1 $251 -69.905697805719171 $340 69.905697805719171 $244 $343 forward 7 unknown #
coedge $-1 $256 $255 $165 $249 reversed $241 $-1 #
edge $-1 $344 -69.905697805719171 $250 69.905697805719171 $248 $345 forward 7 unknown #
vertex $-1 $167 $346 #
vertex $-1 $262 $347 #
straight-curve $-1 69.905697805719171 0 -15.328078461773822 0 -1 0 I I #
coedge $-1 $348 $243 $168 $254 reversed $161 $-1 #
edge $-1 $257 -31.230888381851937 $260 31.230888381851937 $253 $349 forward 7 unknown #
coedge $-1 $248 $169 $174 $263 forward $241 $-1 #
coedge $-1 $169 $248 $348 $350 reversed $241 $-1 #
vertex $-1 $170 $351 #
straight-curve $-1 0 31.230888381851937 15.328078461773822 -1 0 0 I I #
coedge $-1 $171 $244 $173 $262 reversed $101 $-1 #
vertex $-1 $254 $352 #
straight-curve $-1 0 -31.230888381851937 15.328078461773822 1 0 0 I I #
edge $-1 $176 -15.328078461773822 $251 15.328078461773822 $173 $353 forward 7 unknown #
edge $-1 $177 -15.328078461773822 $250 15.328078461773822 $174 $354 forward 7 unknown #
point $-1 69.905697805719171 -31.230888381851937 15.328078461773822 #
point $-1 69.905697805719171 31.230888381851937 15.328078461773822 #
face $-1 $-1 $279 $25 $-1 $355 reversed single #
loop $-1 $-1 $356 $179 #
plane-surface $-1 -87.779359052825924 0 5.6954311863195652 1 0 0 0 0 -1 forward_v I I I I #
coedge $-1 $357 $271 $185 $276 reversed $180 $-1 #
coedge $-1 $183 $182 $356 $358 reversed $69 $-1 #
coedge $-1 $269 $359 $182 $272 forward $180 $-1 #
edge $-1 $360 -8.9368306235533765 $274 8.9368306235533765 $182 $361 forward 7 unknown #
edge $-1 $190 -8.9368306235533765 $362 8.9368306235533765 $183 $363 forward 7 unknown #
vertex $-1 $184 $364 #
straight-curve $-1 -69.905697805719171 31.230888381851937 0 0 0 -1 I I #
edge $-1 $280 -31.230888381851937 $274 31.230888381851937 $269 $365 forward 7 unknown #
coedge $-1 $366 $186 $189 $283 reversed $279 $-1 #
coedge $-1 $186 $366 $357 $367 reversed $279 $-1 #
loop $-1 $-1 $186 $266 #
vertex $-1 $187 $368 #
straight-curve $-1 -69.905697805719171 -31.230888381851937 0 0 0 1 I I #
coedge $-1 $189 $188 $369 $370 forward $109 $-1 #
edge $-1 $371 -8.9368306235533765 $191 8.9368306235533765 $277 $372 forward 7 unknown #
point $-1 -69.905697805719171 31.230888381851937 8.0338671561233674 #
point $-1 -69.905697805719171 -31.230888381851937 8.0338671561233674 #
loop $-1 $-1 $201 $193 #
plane-surface $-1 0 31.230888381851937 0 0 -1 0 0 0 -1 forward_v I I I I #
coedge $-1 $289 $196 $198 $293 reversed $117 $-1 #
coedge $-1 $196 $288 $373 $374 reversed $117 $-1 #
coedge $-1 $204 $199 $196 $291 forward $194 $-1 #
edge $-1 $294 -29.940757396193767 $375 -23.734650343326084 $290 $376 forward 7 unknown #
coedge $-1 $198 $197 $297 $377 reversed $73 $-1 #
edge $-1 $378 -62.461776763703853 $294 -51.641759089968645 $288 $379 forward 7 unknown #
vertex $-1 $200 $380 #
straight-curve $-1 -19.831400548557539 25.024781328984261 15.328078461773817 1 0 0 I I #
coedge $-1 $373 $201 $204 $301 reversed $286 $-1 #
coedge $-1 $201 $373 $292 $377 forward $286 $-1 #
vertex $-1 $202 $381 #
straight-curve $-1 -52.032036558612425 31.23088838185194 68.911525921514482 0 0 1 I I #
straight-curve $-1 -52.032036558612425 -4.5957142168524996 57.630531411046448 0 0.57357642473473569 -0.81915205242281985 I I #
edge $-1 $375 27.293565635617732 $205 52.032036558612425 $296 $382 forward 7 unknown #
point $-1 -52.032036558612425 31.230888381851937 15.328078461773822 #
point $-1 -52.032036558612425 25.024781328984254 15.328078461773821 #
edge $-1 $383 1 $383 0 $208 $-1 forward 7 unknown #
vertex $-1 $209 $384 #
ellipse-curve $-1 -47.084342374013488 21.953207830300826 6.5729383613000767 0 0.81915205242281985 0.57357642473473569 2 0 0 1 I I #
point $-1 -45.084342374013488 28.127834855418083 10.896458619428127 #
edge $-1 $385 1 $385 0 $212 $-1 forward 7 unknown #
vertex $-1 $213 $386 #
ellipse-curve $-1 -39.662801097115079 21.953207830300826 6.5729383613000767 0 0.81915205242281985 0.57357642473473569 2 0 0 1 I I #
point $-1 -37.662801097115079 28.127834855418083 10.896458619428127 #
edge $-1 $387 1 $387 0 $216 $-1 forward 7 unknown #
vertex $-1 $217 $388 #
ellipse-curve $-1 -32.241259820216669 21.953207830300826 6.5729383613000767 0 0.81915205242281985 0.57357642473473569 2 0 0 1 I I #
point $-1 -30.241259820216669 28.127834855418083 10.896458619428127 #
plane-surface $-1 0 0 15.328078461773822 0 0 1 1 0 0 forward_v I I I I #
coedge $-1 $327 $326 $319 $389 forward $221 $-1 #
coedge $-1 $319 $223 $225 $323 reversed $146 $-1 #
coedge $-1 $223 $318 $317 $389 reversed $146 $-1 #
coedge $-1 $231 $226 $223 $321 forward $232 $-1 #
edge $-1 $324 -42.659839341335982 $390 -23.475326442253031 $320 $391 forward 7 unknown #
coedge $-1 $225 $224 $327 $392 reversed $92 $-1 #
edge $-1 $393 -1.2809303926657532e-014 $324 23.140703929009351 $318 $394 forward 7 unknown #
vertex $-1 $227 $395 #
straight-curve $-1 0.52602378102972125 -12.046375482768982 15.328078461773822 -1 0 0 I I #
coedge $-1 $317 $228 $231 $331 reversed $221 $-1 #
coedge $-1 $228 $317 $322 $392 forward $221 $-1 #
vertex $-1 $229 $396 #
straight-curve $-1 15.174414731037992 -31.23088838185194 59.148430111523268 0 0 1 I I #
straight-curve $-1 15.174414731037992 -31.230888381851926 2.3879608751755796 0 -0.82903756765294845 -0.55919291073839883 I I #
edge $-1 $390 -13.070319606919107 $233 15.174414731037992 $326 $397 forward 7 unknown #
point $-1 15.174414731037992 -31.230888381851937 15.328078461773822 #
point $-1 15.174414731037992 -12.046375482768983 15.328078461773822 #
edge $-1 $398 1 $398 0 $236 $-1 forward 7 unknown #
vertex $-1 $237 $399 #
ellipse-curve $-1 1.0520475620594425 -13.756037593542091 -2.8284068078162665 0 -0.55919291073839883 0.82903756765294845 4 0 0 1 I I #
point $-1 5.0520475620594425 -21.638631932310467 8.8580196684747037 #
plane-surface $-1 69.905697805719171 0 0 -1 0 0 0 0 1 forward_v I I I I #
coedge $-1 $243 $348 $246 $342 reversed $161 $-1 #
vertex $-1 $342 $400 #
straight-curve $-1 -69.905697805719171 -31.230888381851937 0 0 0 -1 I I #
edge $-1 $340 -31.230888381851937 $344 31.230888381851937 $339 $401 forward 7 unknown #
straight-curve $-1 0 -31.230888381851937 -15.328078461773822 -1 0 0 I I #
vertex $-1 $249 $402 #
straight-curve $-1 0 31.230888381851937 -15.328078461773822 1 0 0 I I #
point $-1 69.905697805719171 31.230888381851937 -15.328078461773822 #
point $-1 69.905697805719171 -31.230888381851937 -15.328078461773822 #
coedge $-1 $339 $253 $256 $350 forward $161 $-1 #
straight-curve $-1 -69.905697805719171 0 15.328078461773822 0 -1 0 I I #
edge $-1 $257 -15.328078461773822 $344 15.328078461773822 $256 $403 forward 7 unknown #
point $-1 -69.905697805719171 31.230888381851937 15.328078461773822 #
point $-1 -69.905697805719171 -31.230888381851937 15.328078461773822 #
straight-curve $-1 69.905697805719171 -31.230888381851937 0 0 0 -1 I I #
straight-curve $-1 69.905697805719171 31.230888381851937 0 0 0 -1 I I #
plane-surface $-1 0 -31.230888381851937 0 0 1 0 0 0 1 forward_v I I I I #
coedge $-1 $404 $369 $270 $358 forward $267 $-1 #
coedge $-1 $359 $269 $278 $367 forward $180 $-1 #
edge $-1 $362 -2.3384359698038022 $360 2.3384359698038022 $270 $405 forward 7 unknown #
coedge $-1 $271 $357 $404 $406 forward $180 $-1 #
vertex $-1 $272 $407 #
straight-curve $-1 -78.842528429272548 31.230888381851937 3.356995216515763 1 0 0 I I #
vertex $-1 $273 $408 #
straight-curve $-1 -78.842528429272548 31.230888381851937 8.0338671561233674 -1 0 0 I I #
point $-1 -69.905697805719171 31.230888381851937 3.356995216515763 #
straight-curve $-1 -69.905697805719171 0 3.356995216515763 0 1 0 I I #
coedge $-1 $278 $277 $409 $410 forward $279 $-1 #
edge $-1 $280 -8.9368306235533765 $411 8.9368306235533765 $278 $412 forward 7 unknown #
point $-1 -69.905697805719171 -31.230888381851937 3.356995216515763 #
coedge $-1 $356 $409 $282 $370 reversed $267 $-1 #
edge $-1 $362 -31.230888381851937 $371 31.230888381851937 $369 $413 forward 7 unknown #
vertex $-1 $370 $414 #
straight-curve $-1 -78.842528429272548 -31.230888381851937 8.0338671561233674 1 0 0 I I #
coedge $-1 $297 $296 $289 $374 forward $286 $-1 #
edge $-1 $375 53.583447459740661 $378 62.44668714443204 $373 $415 forward 7 unknown #
vertex $-1 $301 $416 #
straight-curve $-1 -27.293565635617732 54.965538725178021 15.328078461773821 0 1 0 I I #
edge $-1 $378 7.4621650870601925 $298 32.200636010054886 $297 $417 forward 7 unknown #
vertex $-1 $377 $418 #
straight-curve $-1 -27.293565635617732 -4.5957142168524996 57.630531411046448 0 -0.57357642473473569 0.81915205242281985 I I #
point $-1 -27.293565635617732 25.024781328984254 15.328078461773821 #
point $-1 -52.032036558612425 31.23088838185194 6.4648387770824414 #
straight-curve $-1 0 31.230888381851937 15.328078461773822 -1 0 0 I I #
vertex $-1 $304 $419 #
point $-1 -45.084342374013488 21.953207830300826 6.5729383613000767 #
vertex $-1 $308 $420 #
point $-1 -37.662801097115079 21.953207830300826 6.5729383613000767 #
vertex $-1 $312 $421 #
point $-1 -30.241259820216669 21.953207830300826 6.5729383613000767 #
edge $-1 $390 43.820351649749448 $393 56.760469236347696 $317 $422 forward 7 unknown #
vertex $-1 $331 $423 #
straight-curve $-1 -13.070319606919107 -54.706214824104968 15.328078461773821 0 -1 0 I I #
edge $-1 $393 -13.596343387948828 $328 14.64839095000827 $327 $424 forward 7 unknown #
vertex $-1 $392 $425 #
straight-curve $-1 -13.070319606919107 -31.230888381851926 2.3879608751755796 0 0.82903756765294845 0.55919291073839883 I I #
point $-1 -13.070319606919107 -12.046375482768983 15.328078461773822 #
point $-1 15.174414731037992 -31.230888381851937 2.3879608751755725 #
straight-curve $-1 0 -31.230888381851937 15.328078461773822 1 0 0 I I #
vertex $-1 $334 $426 #
point $-1 5.0520475620594425 -13.756037593542091 -2.8284068078162665 #
point $-1 -69.905697805719171 -31.230888381851937 -15.328078461773822 #
straight-curve $-1 -69.905697805719171 0 -15.328078461773822 0 1 0 I I #
point $-1 -69.905697805719171 31.230888381851937 -15.328078461773822 #
straight-curve $-1 -69.905697805719171 31.230888381851937 0 0 0 -1 I I #
coedge $-1 $409 $356 $359 $406 reversed $267 $-1 #
straight-curve $-1 -87.779359052825924 31.230888381851937 5.6954311863195652 0 0 -1 I I #
edge $-1 $411 -31.230888381851937 $360 31.230888381851937 $404 $427 forward 7 unknown #
point $-1 -87.779359052825924 31.230888381851937 3.356995216515763 #
point $-1 -87.779359052825924 31.230888381851937 8.0338671561233674 #
coedge $-1 $369 $404 $366 $410 reversed $267 $-1 #
edge $-1 $371 -2.3384359698038022 $411 2.3384359698038022 $409 $428 forward 7 unknown #
vertex $-1 $406 $429 #
straight-curve $-1 -78.842528429272548 -31.230888381851937 3.356995216515763 -1 0 0 I I #
straight-curve $-1 -87.779359052825924 0 8.0338671561233674 0 -1 0 I I #
point $-1 -87.779359052825924 -31.230888381851937 8.0338671561233674 #
straight-curve $-1 -27.293565635617732 31.23088838185194 68.911525921514482 0 0 -1 I I #
point $-1 -27.293565635617732 31.230888381851937 15.328078461773822 #
straight-curve $-1 -19.831400548557539 31.23088838185194 6.4648387770824485 -1 0 0 I I #
point $-1 -27.293565635617732 31.23088838185194 6.4648387770824414 #
point $-1 -47.084342374013488 20.314903725455189 5.4257855118306058 #
point $-1 -39.662801097115079 20.314903725455189 5.4257855118306058 #
point $-1 -32.241259820216669 20.314903725455189 5.4257855118306058 #
straight-curve $-1 -13.070319606919107 -31.23088838185194 59.148430111523268 0 0 -1 I I #
point $-1 -13.070319606919107 -31.230888381851937 15.328078461773822 #
straight-curve $-1 0.52602378102972125 -31.230888381851937 2.3879608751755748 1 0 0 I I #
point $-1 -13.070319606919107 -31.230888381851937 2.3879608751755725 #
point $-1 1.0520475620594425 -11.519265950588496 -6.1445570784280594 #
straight-curve $-1 -87.779359052825924 0 3.356995216515763 0 1 0 I I #
straight-curve $-1 -87.779359052825924 -31.230888381851937 5.6954311863195652 0 0 -1 I I #
point $-1 -87.779359052825924 -31.230888381851937 3.356995216515763 #
End-of-ACIS-data 