500 0 6 0           
7 Unknown 11 ACIS 5.0 NT 24 Fri Mar 26 19:58:21 1999 
-1 9.9999999999999995e-007 1e-010 
body $-1 $6 $-1 $7 #
body $-1 $8 $-1 $9 #
body $-1 $10 $-1 $11 #
body $-1 $12 $-1 $13 #
body $-1 $14 $-1 $15 #
body $-1 $16 $-1 $17 #
lump $-1 $-1 $18 $0 #
transform $-1 1 0 0 0 1 0 0 0 1 61.111484115115815 35.596735447698798 12.633381029536855 1 rotate no_reflect no_shear #
lump $-1 $-1 $19 $1 #
transform $-1 1 0 0 0 1 0 0 0 1 61.111484115115815 35.596735447698798 12.633381029536855 1 rotate no_reflect no_shear #
lump $-1 $-1 $20 $2 #
transform $-1 1 0 0 0 1 0 0 0 1 61.111484115115815 35.596735447698798 12.633381029536855 1 rotate no_reflect no_shear #
lump $-1 $-1 $21 $3 #
transform $-1 1 0 0 0 1 0 0 0 1 61.111484115115815 35.596735447698798 12.633381029536855 1 rotate no_reflect no_shear #
lump $-1 $-1 $22 $4 #
transform $-1 1 0 0 0 1 0 0 0 1 61.111484115115815 35.596735447698798 12.633381029536855 1 rotate no_reflect no_shear #
lump $-1 $-1 $23 $5 #
transform $-1 1 0 0 0 1 0 0 0 1 61.111484115115815 35.596735447698798 12.633381029536855 1 rotate no_reflect no_shear #
shell $-1 $-1 $-1 $24 $-1 $6 #
shell $-1 $-1 $-1 $25 $-1 $8 #
shell $-1 $-1 $-1 $26 $-1 $10 #
shell $-1 $-1 $-1 $27 $-1 $12 #
shell $-1 $-1 $-1 $28 $-1 $14 #
shell $-1 $-1 $-1 $29 $-1 $16 #
face $-1 $30 $31 $18 $-1 $32 forward single #
face $-1 $33 $34 $19 $-1 $35 reversed single #
face $-1 $36 $37 $20 $-1 $38 forward single #
face $-1 $39 $40 $21 $-1 $41 forward single #
face $-1 $42 $43 $22 $-1 $44 reversed single #
face $-1 $45 $46 $23 $-1 $47 forward single #
face $-1 $48 $49 $18 $-1 $50 reversed single #
loop $-1 $-1 $51 $24 #
plane-surface $-1 0 0 12.633381029536855 0 0 1 1 0 0 forward_v I I I I #
face $-1 $52 $53 $19 $-1 $54 reversed single #
loop $-1 $-1 $55 $25 #
plane-surface $-1 32.794712261732741 49.840867128158756 147.68817799594376 1 0 0 0 -0.5877852598018023 -0.80901698891910034 forward_v I I I I #
face $-1 $56 $57 $20 $-1 $58 forward single #
loop $-1 $59 $60 $26 #
cone-surface $-1 40.88521850555648 30.418602993099245 8.0429483076178983 0 -0.5877852598018023 -0.80901698891910034 1.5 0 0 1 I I 0 1 1.5 forward I I I I #
face $-1 $61 $62 $21 $-1 $63 forward single #
loop $-1 $64 $65 $27 #
cone-surface $-1 53.020977871292089 30.418602993099245 8.0429483076178983 0 -0.5877852598018023 -0.80901698891910034 1.5 0 0 1 I I 0 1 1.5 forward I I I I #
face $-1 $66 $67 $22 $-1 $68 reversed single #
loop $-1 $-1 $69 $28 #
plane-surface $-1 30.587475808876462 -130.5818226165369 78.504985636182653 -1 0 0 0 -0.77714596973225614 0.62932038083071107 forward_v I I I I #
face $-1 $70 $71 $23 $-1 $72 forward single #
loop $-1 $73 $74 $29 #
cone-surface $-1 20.196080318163524 -28.606783922513202 5.0717724677873033 0 0.77714596973225614 -0.62932038083071107 2 0 0 1 I I 0 1 2 forward I I I I #
face $-1 $75 $76 $18 $-1 $77 reversed single #
loop $-1 $-1 $78 $30 #
plane-surface $-1 0 0 -12.633381029536855 0 0 1 1 0 0 forward_v I I I I #
coedge $-1 $79 $80 $81 $82 forward $31 $-1 #
face $-1 $83 $84 $19 $-1 $85 forward single #
loop $-1 $-1 $86 $33 #
plane-surface $-1 46.953098188424278 -21.999992006795374 48.807720261566899 0 0.5877852598018023 0.80901698891910034 1 0 0 forward_v I I I I #
coedge $-1 $87 $88 $89 $90 reversed $34 $-1 #
face $-1 $-1 $91 $20 $-1 $92 forward single #
loop $-1 $93 $94 $36 #
cone-surface $-1 40.88521850555648 28.70314255485021 5.6818196212162615 0 -0.5877852598018023 -0.80901698891910034 0.75 0 0 1 I I -0.70710678118654757 0.70710678118654757 0.75 forward I I I I #
loop $-1 $-1 $95 $26 #
coedge $-1 $60 $60 $96 $97 reversed $37 $-1 #
face $-1 $-1 $98 $21 $-1 $99 forward single #
loop $-1 $100 $101 $39 #
cone-surface $-1 53.020977871292089 28.70314255485021 5.6818196212162615 0 -0.5877852598018023 -0.80901698891910034 0.75 0 0 1 I I -0.70710678118654757 0.70710678118654757 0.75 forward I I I I #
loop $-1 $-1 $102 $27 #
coedge $-1 $65 $65 $103 $104 reversed $40 $-1 #
face $-1 $105 $106 $22 $-1 $107 reversed single #
loop $-1 $-1 $108 $42 #
plane-surface $-1 20.196080318163524 -35.596735447698805 1.5875807232733905 0 -0.77714596973225614 0.62932038083071107 1 0 0 forward_v I I I I #
coedge $-1 $109 $110 $111 $112 reversed $43 $-1 #
face $-1 $-1 $113 $23 $-1 $114 forward single #
loop $-1 $115 $116 $45 #
cone-surface $-1 20.196080318163524 -25.312042668284988 2.4037436783387758 0 0.77714596973225614 -0.62932038083071107 1 0 0 1 I I -0.70710678118654735 0.70710678118654768 1 forward I I I I #
loop $-1 $-1 $117 $29 #
coedge $-1 $74 $74 $118 $119 reversed $46 $-1 #
face $-1 $120 $121 $18 $-1 $122 reversed single #
loop $-1 $-1 $123 $48 #
plane-surface $-1 0 -35.596735447698798 0 0 1 0 0 0 1 forward_v I I I I #
coedge $-1 $124 $125 $126 $127 forward $49 $-1 #
coedge $-1 $128 $51 $129 $130 forward $31 $-1 #
coedge $-1 $51 $128 $131 $132 forward $31 $-1 #
coedge $-1 $133 $134 $51 $82 reversed $135 $-1 #
edge $-1 $136 -35.596735447698798 $137 35.596735447698798 $81 $138 forward 7 unknown #
face $-1 $139 $140 $19 $-1 $141 reversed single #
loop $-1 $-1 $89 $52 #
plane-surface $-1 0 0 12.633381029536855 0 0 1 1 0 0 forward_v I I I I #
coedge $-1 $142 $143 $144 $145 reversed $53 $-1 #
coedge $-1 $88 $55 $146 $147 reversed $34 $-1 #
coedge $-1 $55 $87 $142 $148 reversed $34 $-1 #
coedge $-1 $144 $149 $55 $90 forward $84 $-1 #
edge $-1 $150 -10.67630188361942 $151 -2.8692799612157067 $89 $152 forward 7 unknown #
loop $-1 $-1 $96 $56 #
plane-surface $-1 46.953098188424278 -21.999992006795374 48.807720261566899 0 0.5877852598018023 0.80901698891910034 1 0 0 forward_v I I I I #
loop $-1 $-1 $153 $36 #
coedge $-1 $94 $94 $95 $154 reversed $57 $-1 #
coedge $-1 $95 $95 $94 $154 forward $59 $-1 #
coedge $-1 $96 $96 $60 $97 forward $91 $-1 #
edge $-1 $155 1.7209558408524861e-016 $155 6.2831853071796004 $96 $156 forward 7 unknown #
loop $-1 $-1 $103 $61 #
plane-surface $-1 46.953098188424278 -21.999992006795374 48.807720261566899 0 0.5877852598018023 0.80901698891910034 1 0 0 forward_v I I I I #
loop $-1 $-1 $157 $39 #
coedge $-1 $101 $101 $102 $158 reversed $62 $-1 #
coedge $-1 $102 $102 $101 $158 forward $64 $-1 #
coedge $-1 $103 $103 $65 $104 forward $98 $-1 #
edge $-1 $159 1.7209558408524861e-016 $159 6.2831853071796004 $103 $160 forward 7 unknown #
face $-1 $161 $162 $22 $-1 $163 reversed single #
loop $-1 $-1 $164 $66 #
plane-surface $-1 9.8046848274505862 -130.5818226165369 78.504985636182653 1 0 0 0 0.77714596973225614 -0.62932038083071107 forward_v I I I I #
coedge $-1 $165 $166 $167 $168 reversed $67 $-1 #
coedge $-1 $110 $69 $169 $170 reversed $43 $-1 #
coedge $-1 $69 $109 $165 $171 reversed $43 $-1 #
coedge $-1 $167 $172 $69 $112 forward $173 $-1 #
edge $-1 $174 29.694175860569651 $175 38.638888341948913 $111 $176 forward 7 unknown #
loop $-1 $-1 $118 $70 #
plane-surface $-1 20.196080318163524 -35.596735447698805 1.5875807232733905 0 -0.77714596973225614 0.62932038083071107 1 0 0 forward_v I I I I #
loop $-1 $-1 $177 $45 #
coedge $-1 $116 $116 $117 $178 reversed $71 $-1 #
coedge $-1 $117 $117 $116 $178 forward $73 $-1 #
coedge $-1 $118 $118 $74 $119 forward $113 $-1 #
edge $-1 $179 2.4759343125878685e-016 $179 6.2831853071796004 $118 $180 forward 7 unknown #
face $-1 $181 $182 $18 $-1 $183 reversed single #
loop $-1 $-1 $184 $75 #
plane-surface $-1 -61.111484115115815 0 0 1 0 0 0 0 -1 forward_v I I I I #
coedge $-1 $185 $131 $186 $187 forward $76 $-1 #
coedge $-1 $188 $78 $185 $189 forward $49 $-1 #
coedge $-1 $78 $188 $190 $191 forward $49 $-1 #
coedge $-1 $134 $133 $78 $127 reversed $135 $-1 #
edge $-1 $192 -35.596735447698798 $193 35.596735447698798 $126 $194 forward 7 unknown #
coedge $-1 $80 $79 $195 $196 forward $31 $-1 #
coedge $-1 $197 $198 $79 $130 reversed $182 $-1 #
edge $-1 $137 -61.111484115115815 $199 61.111484115115815 $129 $200 forward 7 unknown #
coedge $-1 $123 $201 $80 $132 reversed $76 $-1 #
edge $-1 $202 -61.111484115115815 $136 61.111484115115815 $131 $203 forward 7 unknown #
coedge $-1 $126 $81 $201 $204 forward $135 $-1 #
coedge $-1 $81 $126 $197 $205 reversed $135 $-1 #
loop $-1 $-1 $133 $181 #
vertex $-1 $82 $206 #
vertex $-1 $82 $207 #
straight-curve $-1 61.111484115115815 0 12.633381029536855 0 1 0 I I #
face $-1 $-1 $208 $19 $-1 $209 reversed single #
loop $-1 $-1 $146 $83 #
plane-surface $-1 0 35.596735447698798 0 0 -1 0 0 0 -1 forward_v I I I I #
coedge $-1 $210 $86 $88 $148 forward $53 $-1 #
coedge $-1 $86 $210 $211 $212 reversed $53 $-1 #
coedge $-1 $213 $89 $86 $145 forward $84 $-1 #
edge $-1 $151 9.318163167520602 $214 37.634935020903676 $144 $215 forward 7 unknown #
coedge $-1 $216 $217 $87 $147 forward $140 $-1 #
edge $-1 $218 -66.88284152284831 $150 -61.210707968435024 $146 $219 forward 7 unknown #
edge $-1 $151 61.543461032397808 $218 71.193470895397596 $88 $220 forward 7 unknown #
coedge $-1 $89 $213 $216 $221 forward $84 $-1 #
vertex $-1 $147 $222 #
vertex $-1 $90 $223 #
straight-curve $-1 32.794712261732741 24.920433564079378 12.633381029536849 0 -1 0 I I #
coedge $-1 $153 $153 $-1 $224 reversed $93 $-1 #
edge $-1 $225 0 $225 6.2831853071796004 $94 $226 forward 7 unknown #
vertex $-1 $97 $227 #
ellipse-curve $-1 40.88521850555648 31.693224486496934 9.797314252330219 0 0.5877852598018023 0.80901698891910034 1.5 0 0 1 I I #
coedge $-1 $157 $157 $-1 $228 reversed $100 $-1 #
edge $-1 $229 0 $229 6.2831853071796004 $101 $230 forward 7 unknown #
vertex $-1 $104 $231 #
ellipse-curve $-1 53.020977871292089 31.693224486496934 9.797314252330219 0 0.5877852598018023 0.80901698891910034 1.5 0 0 1 I I #
face $-1 $-1 $173 $22 $-1 $232 forward single #
loop $-1 $-1 $233 $105 #
plane-surface $-1 0 -35.596735447698798 0 0 1 0 0 0 1 forward_v I I I I #
coedge $-1 $234 $235 $236 $237 reversed $106 $-1 #
coedge $-1 $238 $108 $110 $171 forward $67 $-1 #
coedge $-1 $108 $238 $234 $239 forward $67 $-1 #
coedge $-1 $236 $111 $108 $168 forward $173 $-1 #
edge $-1 $175 -20.4894356497947 $240 0.29335533163117589 $167 $241 forward 7 unknown #
coedge $-1 $242 $243 $109 $170 forward $162 $-1 #
edge $-1 $244 -37.664912094817929 $174 -26.61911178855447 $169 $245 forward 7 unknown #
edge $-1 $175 -14.213289055682788 $244 -1.1374033043381581e-014 $110 $246 forward 7 unknown #
coedge $-1 $111 $236 $242 $247 forward $173 $-1 #
loop $-1 $-1 $236 $161 #
vertex $-1 $170 $248 #
vertex $-1 $112 $249 #
straight-curve $-1 30.587475808876462 -65.290911308268448 12.633381029536856 0 1 0 I I #
coedge $-1 $177 $177 $-1 $250 reversed $115 $-1 #
edge $-1 $251 0 $251 6.2831853071796004 $116 $252 forward 7 unknown #
vertex $-1 $119 $253 #
ellipse-curve $-1 20.196080318163524 -31.124379207009166 7.110480876405127 0 -0.77714596973225614 0.62932038083071107 2 0 0 1 I I #
face $-1 $-1 $135 $18 $-1 $254 reversed single #
loop $-1 $-1 $197 $120 #
plane-surface $-1 0 35.596735447698798 0 0 -1 0 0 0 -1 forward_v I I I I #
coedge $-1 $255 $195 $198 $256 forward $121 $-1 #
coedge $-1 $201 $123 $124 $189 reversed $76 $-1 #
coedge $-1 $195 $255 $123 $187 reversed $121 $-1 #
edge $-1 $202 -12.633381029536855 $257 12.633381029536855 $186 $258 forward 7 unknown #
coedge $-1 $125 $124 $255 $259 forward $49 $-1 #
edge $-1 $193 -61.111484115115815 $257 61.111484115115815 $185 $260 forward 7 unknown #
coedge $-1 $198 $197 $125 $191 reversed $182 $-1 #
edge $-1 $261 -61.111484115115815 $192 61.111484115115815 $190 $262 forward 7 unknown #
vertex $-1 $127 $263 #
vertex $-1 $204 $264 #
straight-curve $-1 61.111484115115815 0 -12.633381029536855 0 -1 0 I I #
coedge $-1 $184 $186 $128 $196 reversed $121 $-1 #
edge $-1 $199 -35.596735447698798 $202 35.596735447698798 $195 $265 forward 7 unknown #
coedge $-1 $190 $129 $134 $205 forward $182 $-1 #
coedge $-1 $129 $190 $184 $256 reversed $182 $-1 #
vertex $-1 $130 $266 #
straight-curve $-1 0 35.596735447698798 12.633381029536855 -1 0 0 I I #
coedge $-1 $131 $185 $133 $204 reversed $76 $-1 #
vertex $-1 $196 $267 #
straight-curve $-1 0 -35.596735447698798 12.633381029536855 1 0 0 I I #
edge $-1 $136 -12.633381029536855 $193 12.633381029536855 $133 $268 forward 7 unknown #
edge $-1 $137 -12.633381029536855 $192 12.633381029536855 $134 $269 forward 7 unknown #
point $-1 61.111484115115815 -35.596735447698798 12.633381029536855 #
point $-1 61.111484115115815 35.596735447698798 12.633381029536855 #
loop $-1 $-1 $211 $139 #
plane-surface $-1 61.111484115115815 0 0 -1 0 0 0 0 1 forward_v I I I I #
coedge $-1 $143 $142 $217 $270 reversed $53 $-1 #
coedge $-1 $271 $272 $143 $212 forward $208 $-1 #
edge $-1 $214 38.300048120467473 $273 47.950057983467261 $211 $274 forward 7 unknown #
coedge $-1 $149 $144 $272 $275 forward $84 $-1 #
vertex $-1 $275 $276 #
straight-curve $-1 23.476549094212139 27.789713525295092 12.633381029536856 1 0 0 I I #
coedge $-1 $277 $146 $149 $221 reversed $140 $-1 #
coedge $-1 $146 $277 $210 $270 forward $140 $-1 #
vertex $-1 $147 $278 #
straight-curve $-1 32.794712261732741 35.596735447698798 73.84408899797188 0 0 1 I I #
straight-curve $-1 32.794712261732741 -21.999992006795374 48.807720261566899 0 0.80901698891910034 -0.5877852598018023 I I #
edge $-1 $279 -61.111484115115815 $150 -32.794712261732741 $216 $280 forward 7 unknown #
point $-1 32.794712261732741 35.596735447698798 12.633381029536855 #
point $-1 32.794712261732741 27.789713525295085 12.633381029536856 #
edge $-1 $281 1 $281 0 $153 $-1 forward 7 unknown #
vertex $-1 $154 $282 #
ellipse-curve $-1 40.88521850555648 29.14398149970156 6.2885823629055864 0 0.5877852598018023 0.80901698891910034 1.5 0 0 1 I I #
point $-1 42.38521850555648 31.693224486496931 9.7973142523302137 #
edge $-1 $283 1 $283 0 $157 $-1 forward 7 unknown #
vertex $-1 $158 $284 #
ellipse-curve $-1 53.020977871292089 29.14398149970156 6.2885823629055864 0 0.5877852598018023 0.80901698891910034 1.5 0 0 1 I I #
point $-1 54.520977871292089 31.693224486496931 9.7973142523302137 #
plane-surface $-1 0 0 12.633381029536855 0 0 1 1 0 0 forward_v I I I I #
coedge $-1 $243 $242 $235 $285 forward $162 $-1 #
coedge $-1 $235 $164 $166 $239 reversed $106 $-1 #
coedge $-1 $164 $234 $233 $285 reversed $106 $-1 #
coedge $-1 $172 $167 $164 $237 forward $173 $-1 #
edge $-1 $240 -38.638888341948913 $286 -29.694175860569651 $236 $287 forward 7 unknown #
coedge $-1 $166 $165 $243 $288 reversed $67 $-1 #
edge $-1 $289 1.1374033043381581e-014 $240 14.213289055682788 $234 $290 forward 7 unknown #
vertex $-1 $168 $291 #
straight-curve $-1 10.098040159081762 -26.652022966319532 12.633381029536855 -1 0 0 I I #
coedge $-1 $233 $169 $172 $247 reversed $162 $-1 #
coedge $-1 $169 $233 $238 $288 forward $162 $-1 #
vertex $-1 $170 $292 #
straight-curve $-1 30.587475808876462 -35.596735447698798 39.252492818091326 0 0 1 I I #
straight-curve $-1 30.587475808876462 -35.596735447698805 1.5875807232733905 0 -0.62932038083071107 -0.77714596973225614 I I #
edge $-1 $286 9.8046848274505862 $174 30.587475808876462 $242 $293 forward 7 unknown #
point $-1 30.587475808876462 -35.596735447698798 12.633381029536855 #
point $-1 30.587475808876462 -26.652022966319535 12.633381029536855 #
edge $-1 $294 1 $294 0 $177 $-1 forward 7 unknown #
vertex $-1 $178 $295 #
ellipse-curve $-1 20.196080318163524 -26.089188638017244 3.0330640591694871 0 -0.77714596973225614 0.62932038083071107 2 0 0 1 I I #
point $-1 22.196080318163524 -31.124379207009156 7.1104808764051191 #
plane-surface $-1 61.111484115115815 0 0 -1 0 0 0 0 1 forward_v I I I I #
coedge $-1 $186 $184 $188 $259 reversed $121 $-1 #
edge $-1 $199 -12.633381029536855 $261 12.633381029536855 $198 $296 forward 7 unknown #
vertex $-1 $259 $297 #
straight-curve $-1 -61.111484115115815 -35.596735447698798 0 0 0 -1 I I #
edge $-1 $257 -35.596735447698798 $261 35.596735447698798 $255 $298 forward 7 unknown #
straight-curve $-1 0 -35.596735447698798 -12.633381029536855 -1 0 0 I I #
vertex $-1 $191 $299 #
straight-curve $-1 0 35.596735447698798 -12.633381029536855 1 0 0 I I #
point $-1 61.111484115115815 35.596735447698798 -12.633381029536855 #
point $-1 61.111484115115815 -35.596735447698798 -12.633381029536855 #
straight-curve $-1 -61.111484115115815 0 12.633381029536855 0 -1 0 I I #
point $-1 -61.111484115115815 35.596735447698798 12.633381029536855 #
point $-1 -61.111484115115815 -35.596735447698798 12.633381029536855 #
straight-curve $-1 61.111484115115815 -35.596735447698798 0 0 0 -1 I I #
straight-curve $-1 61.111484115115815 35.596735447698798 0 0 0 -1 I I #
edge $-1 $273 -37.634935020903676 $218 -9.318163167520602 $217 $300 forward 7 unknown #
coedge $-1 $272 $211 $277 $301 reversed $208 $-1 #
coedge $-1 $211 $271 $213 $275 reversed $208 $-1 #
vertex $-1 $212 $302 #
straight-curve $-1 61.111484115115815 -3.1956760805821594 35.145584764447364 0 0.80901698891910034 -0.5877852598018023 I I #
edge $-1 $214 27.789713525295085 $279 35.596735447698798 $272 $303 forward 7 unknown #
point $-1 61.111484115115815 27.789713525295085 12.633381029536856 #
coedge $-1 $217 $216 $271 $301 forward $140 $-1 #
point $-1 32.794712261732741 35.596735447698798 6.9612474751235709 #
vertex $-1 $275 $304 #
straight-curve $-1 0 35.596735447698798 12.633381029536855 -1 0 0 I I #
vertex $-1 $224 $305 #
point $-1 42.38521850555648 29.14398149970156 6.2885823629055864 #
vertex $-1 $228 $306 #
point $-1 54.520977871292089 29.14398149970156 6.2885823629055864 #
edge $-1 $286 26.61911178855447 $289 37.664912094817929 $233 $307 forward 7 unknown #
vertex $-1 $247 $308 #
straight-curve $-1 9.8046848274505862 -65.290911308268448 12.633381029536856 0 -1 0 I I #
edge $-1 $289 -0.29335533163117589 $244 20.4894356497947 $243 $309 forward 7 unknown #
vertex $-1 $288 $310 #
straight-curve $-1 9.8046848274505862 -35.596735447698805 1.5875807232733905 0 0.62932038083071107 0.77714596973225614 I I #
point $-1 9.8046848274505862 -26.652022966319535 12.633381029536855 #
point $-1 30.587475808876462 -35.596735447698798 1.5875807232733994 #
straight-curve $-1 0 -35.596735447698798 12.633381029536855 1 0 0 I I #
vertex $-1 $250 $311 #
point $-1 22.196080318163524 -26.089188638017244 3.0330640591694871 #
straight-curve $-1 -61.111484115115815 35.596735447698798 0 0 0 -1 I I #
point $-1 -61.111484115115815 -35.596735447698798 -12.633381029536855 #
straight-curve $-1 -61.111484115115815 0 -12.633381029536855 0 1 0 I I #
point $-1 -61.111484115115815 35.596735447698798 -12.633381029536855 #
straight-curve $-1 23.476549094212139 35.596735447698798 6.9612474751235744 -1 0 0 I I #
edge $-1 $279 -12.633381029536855 $273 -6.9612474751235709 $271 $312 forward 7 unknown #
point $-1 61.111484115115815 35.596735447698798 6.9612474751235709 #
straight-curve $-1 61.111484115115815 0 12.633381029536855 0 1 0 I I #
point $-1 61.111484115115815 35.596735447698798 12.633381029536855 #
point $-1 40.88521850555648 28.26230360999886 5.0750568795269366 #
point $-1 53.020977871292089 28.26230360999886 5.0750568795269366 #
straight-curve $-1 9.8046848274505862 -35.596735447698798 39.252492818091326 0 0 -1 I I #
point $-1 9.8046848274505862 -35.596735447698798 12.633381029536855 #
straight-curve $-1 10.098040159081762 -35.596735447698798 1.5875807232734034 1 0 0 I I #
point $-1 9.8046848274505862 -35.596735447698798 1.5875807232733994 #
point $-1 20.196080318163524 -24.534896698552732 1.7744232975080645 #
straight-curve $-1 61.111484115115815 35.596735447698798 0 0 0 -1 I I #
End-of-ACIS-data 