500 0 5 0           
7 Unknown 11 ACIS 5.0 NT 24 Fri Mar 26 17:04:35 1999 
-1 9.9999999999999995e-007 1e-010 
body $-1 $5 $-1 $6 #
body $-1 $7 $-1 $8 #
body $-1 $9 $-1 $10 #
body $-1 $11 $-1 $12 #
body $-1 $13 $-1 $14 #
lump $-1 $-1 $15 $0 #
transform $-1 1 0 0 0 1 0 0 0 1 68.129520554216128 29.171752045648464 6.4558537540519376 1 rotate no_reflect no_shear #
lump $-1 $-1 $16 $1 #
transform $-1 1 0 0 0 1 0 0 0 1 68.129520554216128 29.171752045648464 6.4558537540519376 1 rotate no_reflect no_shear #
lump $-1 $-1 $17 $2 #
transform $-1 1 0 0 0 1 0 0 0 1 68.129520554216128 29.171752045648464 6.4558537540519376 1 rotate no_reflect no_shear #
lump $-1 $-1 $18 $3 #
transform $-1 1 0 0 0 1 0 0 0 1 68.129520554216128 29.171752045648464 6.4558537540519376 1 rotate no_reflect no_shear #
lump $-1 $-1 $19 $4 #
transform $-1 1 0 0 0 1 0 0 0 1 68.129520554216128 29.171752045648464 6.4558537540519376 1 rotate no_reflect no_shear #
shell $-1 $-1 $-1 $20 $-1 $5 #
shell $-1 $-1 $-1 $21 $-1 $7 #
shell $-1 $-1 $-1 $22 $-1 $9 #
shell $-1 $-1 $-1 $23 $-1 $11 #
shell $-1 $-1 $-1 $24 $-1 $13 #
face $-1 $25 $26 $15 $-1 $27 forward single #
face $-1 $28 $29 $16 $-1 $30 reversed single #
face $-1 $31 $32 $17 $-1 $33 forward single #
face $-1 $34 $35 $18 $-1 $36 reversed single #
face $-1 $37 $38 $19 $-1 $39 reversed single #
face $-1 $40 $41 $15 $-1 $42 reversed single #
loop $-1 $-1 $43 $20 #
plane-surface $-1 0 0 6.4558537540519376 0 0 1 1 0 0 forward_v I I I I #
face $-1 $44 $45 $16 $-1 $46 forward single #
loop $-1 $-1 $47 $21 #
plane-surface $-1 0 -25.371863360550719 3.261553656832878 0 0 1 1 0 0 forward_v I I I I #
face $-1 $48 $49 $17 $-1 $50 forward single #
loop $-1 $-1 $51 $22 #
plane-surface $-1 -57.184734186785334 109.51034507193781 125.50238906457626 1 0 0 0 -0.82903758062907751 -0.55919289150049634 forward_v I I I I #
face $-1 $52 $53 $18 $-1 $54 reversed single #
loop $-1 $55 $56 $23 #
cone-surface $-1 -47.668242929760979 26.64739212969971 3.2495246142604537 0 -0.82903758062907751 -0.55919289150049634 1 0 0 1 I I 0 1 1 forward I I I I #
face $-1 $57 $58 $19 $-1 $59 reversed single #
loop $-1 $60 $61 $24 #
cone-surface $-1 -33.393506044224438 26.64739212969971 3.2495246142604537 0 -0.82903758062907751 -0.55919289150049634 1 0 0 1 I I 0 1 1 forward I I I I #
face $-1 $62 $63 $15 $-1 $64 reversed single #
loop $-1 $-1 $65 $25 #
plane-surface $-1 0 0 -6.4558537540519376 0 0 1 1 0 0 forward_v I I I I #
coedge $-1 $66 $67 $68 $69 forward $26 $-1 #
face $-1 $70 $71 $16 $-1 $72 forward single #
loop $-1 $-1 $73 $28 #
plane-surface $-1 0 -25.371863360550719 0.26155365683287801 0 0 1 1 0 0 forward_v I I I I #
coedge $-1 $74 $75 $76 $77 reversed $29 $-1 #
face $-1 $78 $79 $17 $-1 $80 forward single #
loop $-1 $-1 $81 $31 #
plane-surface $-1 -40.530874486992708 -3.4535207074348904 49.307301874067036 0 0.82903758062907751 0.55919289150049634 1 0 0 forward_v I I I I #
coedge $-1 $82 $83 $84 $85 reversed $32 $-1 #
face $-1 $86 $87 $18 $-1 $88 forward single #
loop $-1 $89 $90 $34 #
cone-surface $-1 -47.668242929760979 25.569316892094651 2.522353707346908 0 -0.82903758062907751 -0.55919289150049634 0.5 0 0 1 I I -0.70710678118654746 0.70710678118654746 0.5 forward I I I I #
loop $-1 $-1 $91 $23 #
coedge $-1 $56 $56 $92 $93 reversed $35 $-1 #
face $-1 $94 $95 $19 $-1 $96 reversed single #
loop $-1 $97 $98 $37 #
cone-surface $-1 -33.393506044224438 25.569316892094651 2.522353707346908 0 -0.82903758062907751 -0.55919289150049634 0.5 0 0 1 I I -0.70710678118654746 0.70710678118654746 0.5 forward I I I I #
loop $-1 $-1 $99 $24 #
coedge $-1 $61 $61 $100 $101 reversed $38 $-1 #
face $-1 $102 $103 $15 $-1 $104 reversed single #
loop $-1 $-1 $105 $40 #
plane-surface $-1 0 -29.171752045648464 0 0 1 0 0 0 1 forward_v I I I I #
coedge $-1 $106 $107 $108 $109 forward $41 $-1 #
coedge $-1 $110 $43 $111 $112 forward $26 $-1 #
coedge $-1 $43 $110 $113 $114 forward $26 $-1 #
coedge $-1 $115 $116 $43 $69 reversed $117 $-1 #
edge $-1 $118 -29.171752045648464 $119 29.171752045648464 $68 $120 forward 7 unknown #
face $-1 $121 $122 $16 $-1 $123 reversed single #
loop $-1 $-1 $124 $44 #
plane-surface $-1 0 -21.571974675452974 1.761553656832878 0 -1 0 0 0 -1 forward_v I I I I #
coedge $-1 $125 $126 $127 $128 reversed $45 $-1 #
coedge $-1 $129 $47 $130 $131 reversed $29 $-1 #
coedge $-1 $47 $129 $132 $133 reversed $29 $-1 #
coedge $-1 $134 $135 $47 $77 forward $122 $-1 #
edge $-1 $136 -16.485820365373105 $137 -8.8860429951776148 $76 $138 forward 7 unknown #
face $-1 $139 $140 $17 $-1 $141 forward single #
loop $-1 $-1 $142 $48 #
plane-surface $-1 -23.877014787200082 109.51034507193781 125.50238906457626 -1 0 0 0 0.82903758062907751 0.55919289150049634 forward_v I I I I #
coedge $-1 $143 $144 $145 $146 reversed $49 $-1 #
coedge $-1 $83 $51 $144 $147 forward $32 $-1 #
coedge $-1 $51 $82 $148 $149 reversed $32 $-1 #
coedge $-1 $150 $145 $51 $85 forward $140 $-1 #
edge $-1 $151 -29.305027427636908 $152 -25.583420490320439 $84 $153 forward 7 unknown #
face $-1 $154 $155 $18 $-1 $156 forward single #
loop $-1 $-1 $157 $52 #
plane-surface $-1 -57.184734186785334 109.51034507193781 125.50238906457626 1 0 0 0 -0.82903758062907751 -0.55919289150049634 forward_v I I I I #
loop $-1 $-1 $158 $34 #
coedge $-1 $90 $90 $91 $159 forward $53 $-1 #
coedge $-1 $91 $91 $90 $159 reversed $55 $-1 #
coedge $-1 $92 $92 $56 $93 forward $155 $-1 #
edge $-1 $160 7.3633328823514922e-016 $160 6.2831853071796013 $92 $161 forward 7 unknown #
face $-1 $162 $163 $19 $-1 $164 reversed single #
loop $-1 $165 $166 $57 #
cone-surface $-1 -47.668242929760979 26.64739212969971 3.2495246142604537 0 -0.82903758062907751 -0.55919289150049634 1 0 0 1 I I 0 1 1 forward I I I I #
loop $-1 $-1 $167 $37 #
coedge $-1 $98 $98 $99 $168 forward $58 $-1 #
coedge $-1 $99 $99 $98 $168 reversed $60 $-1 #
coedge $-1 $100 $100 $61 $101 forward $169 $-1 #
edge $-1 $170 7.3633328823514922e-016 $170 6.2831853071796013 $100 $171 forward 7 unknown #
face $-1 $172 $173 $15 $-1 $174 reversed single #
loop $-1 $-1 $175 $62 #
plane-surface $-1 -68.129520554216128 0 0 1 0 0 0 0 -1 forward_v I I I I #
coedge $-1 $176 $113 $177 $178 forward $63 $-1 #
coedge $-1 $179 $65 $176 $180 forward $41 $-1 #
coedge $-1 $65 $179 $181 $182 forward $41 $-1 #
coedge $-1 $116 $115 $65 $109 reversed $117 $-1 #
edge $-1 $183 -29.171752045648464 $184 29.171752045648464 $108 $185 forward 7 unknown #
coedge $-1 $67 $66 $186 $187 forward $26 $-1 #
coedge $-1 $188 $189 $66 $112 reversed $173 $-1 #
edge $-1 $119 -68.129520554216128 $190 68.129520554216128 $111 $191 forward 7 unknown #
coedge $-1 $105 $192 $67 $114 reversed $63 $-1 #
edge $-1 $193 -68.129520554216128 $118 68.129520554216128 $113 $194 forward 7 unknown #
coedge $-1 $108 $68 $192 $195 forward $117 $-1 #
coedge $-1 $68 $108 $188 $196 reversed $117 $-1 #
loop $-1 $-1 $115 $172 #
vertex $-1 $69 $197 #
vertex $-1 $69 $198 #
straight-curve $-1 68.129520554216128 0 6.4558537540519376 0 1 0 I I #
face $-1 $199 $200 $16 $-1 $201 reversed single #
loop $-1 $-1 $76 $70 #
plane-surface $-1 68.129520554216128 0 0 -1 0 0 0 0 1 forward_v I I I I #
coedge $-1 $132 $202 $134 $203 reversed $71 $-1 #
coedge $-1 $204 $73 $202 $205 reversed $45 $-1 #
coedge $-1 $73 $204 $206 $207 reversed $45 $-1 #
coedge $-1 $208 $134 $73 $128 forward $122 $-1 #
edge $-1 $209 8.8860429951776148 $210 16.485820365373105 $127 $211 forward 7 unknown #
coedge $-1 $75 $74 $212 $213 reversed $29 $-1 #
coedge $-1 $214 $215 $74 $131 forward $216 $-1 #
edge $-1 $217 -68.129520554216128 $136 68.129520554216128 $130 $218 forward 7 unknown #
coedge $-1 $219 $124 $75 $133 forward $71 $-1 #
edge $-1 $137 -68.129520554216128 $220 68.129520554216128 $132 $221 forward 7 unknown #
coedge $-1 $127 $76 $124 $203 forward $122 $-1 #
coedge $-1 $76 $222 $214 $223 forward $122 $-1 #
vertex $-1 $131 $224 #
vertex $-1 $77 $225 #
straight-curve $-1 68.129520554216128 -12.68593168027536 3.261553656832878 0 1 0 I I #
face $-1 $226 $227 $17 $-1 $228 reversed single #
loop $-1 $-1 $229 $78 #
plane-surface $-1 0 0 6.4558537540519376 0 0 1 1 0 0 forward_v I I I I #
coedge $-1 $230 $231 $229 $232 reversed $79 $-1 #
coedge $-1 $233 $81 $231 $234 reversed $49 $-1 #
coedge $-1 $81 $233 $82 $147 reversed $49 $-1 #
coedge $-1 $84 $229 $81 $146 forward $140 $-1 #
edge $-1 $235 3.6115775437037279 $151 36.919296943288984 $145 $236 forward 7 unknown #
edge $-1 $151 51.688185338352483 $237 58.3435040912969 $82 $238 forward 7 unknown #
coedge $-1 $239 $240 $83 $149 forward $241 $-1 #
edge $-1 $152 56.295340778236195 $237 61.81285013549256 $148 $242 forward 7 unknown #
coedge $-1 $243 $84 $240 $244 forward $140 $-1 #
vertex $-1 $146 $245 #
vertex $-1 $244 $246 #
straight-curve $-1 -57.184734186785334 54.755172535968903 6.4558537540519367 0 1 0 I I #
face $-1 $247 $248 $18 $-1 $249 forward single #
loop $-1 $250 $92 $86 #
plane-surface $-1 -40.530874486992708 -3.4535207074348904 49.307301874067036 0 0.82903758062907751 0.55919289150049634 1 0 0 forward_v I I I I #
coedge $-1 $251 $252 $253 $254 reversed $87 $-1 #
coedge $-1 $158 $158 $-1 $255 forward $89 $-1 #
edge $-1 $256 0 $256 6.2831853071796004 $90 $257 forward 7 unknown #
vertex $-1 $93 $258 #
ellipse-curve $-1 -47.668242929760979 27.310948576990231 3.6970990754237505 0 -0.82903758062907751 -0.55919289150049634 1 0 0 1 I I #
face $-1 $259 $260 $19 $-1 $261 forward single #
loop $-1 $262 $263 $94 #
cone-surface $-1 -47.668242929760979 25.569316892094651 2.522353707346908 0 -0.82903758062907751 -0.55919289150049634 0.5 0 0 1 I I -0.70710678118654746 0.70710678118654746 0.5 forward I I I I #
loop $-1 $-1 $264 $57 #
coedge $-1 $166 $166 $265 $266 reversed $95 $-1 #
coedge $-1 $167 $167 $-1 $267 forward $97 $-1 #
edge $-1 $268 0 $268 6.2831853071796004 $98 $269 forward 7 unknown #
loop $-1 $270 $100 $259 #
vertex $-1 $101 $271 #
ellipse-curve $-1 -33.393506044224438 27.310948576990231 3.6970990754237505 0 -0.82903758062907751 -0.55919289150049634 1 0 0 1 I I #
face $-1 $-1 $117 $15 $-1 $272 reversed single #
loop $-1 $-1 $188 $102 #
plane-surface $-1 0 29.171752045648464 0 0 -1 0 0 0 -1 forward_v I I I I #
coedge $-1 $273 $186 $189 $274 forward $103 $-1 #
coedge $-1 $192 $105 $106 $180 reversed $63 $-1 #
coedge $-1 $186 $273 $105 $178 reversed $103 $-1 #
edge $-1 $193 -6.4558537540519376 $275 6.4558537540519376 $177 $276 forward 7 unknown #
coedge $-1 $107 $106 $273 $277 forward $41 $-1 #
edge $-1 $184 -68.129520554216128 $275 68.129520554216128 $176 $278 forward 7 unknown #
coedge $-1 $189 $188 $107 $182 reversed $173 $-1 #
edge $-1 $279 -68.129520554216128 $183 68.129520554216128 $181 $280 forward 7 unknown #
vertex $-1 $109 $281 #
vertex $-1 $195 $282 #
straight-curve $-1 68.129520554216128 0 -6.4558537540519376 0 -1 0 I I #
coedge $-1 $175 $177 $110 $187 reversed $103 $-1 #
edge $-1 $190 -29.171752045648464 $193 29.171752045648464 $186 $283 forward 7 unknown #
coedge $-1 $181 $111 $116 $196 forward $173 $-1 #
coedge $-1 $111 $181 $175 $274 reversed $173 $-1 #
vertex $-1 $112 $284 #
straight-curve $-1 0 29.171752045648464 6.4558537540519376 -1 0 0 I I #
coedge $-1 $113 $176 $115 $195 reversed $63 $-1 #
vertex $-1 $187 $285 #
straight-curve $-1 0 -29.171752045648464 6.4558537540519376 1 0 0 I I #
edge $-1 $118 -6.4558537540519376 $184 6.4558537540519376 $115 $286 forward 7 unknown #
edge $-1 $119 -6.4558537540519376 $183 6.4558537540519376 $116 $287 forward 7 unknown #
point $-1 68.129520554216128 -29.171752045648464 6.4558537540519376 #
point $-1 68.129520554216128 29.171752045648464 6.4558537540519376 #
face $-1 $288 $289 $16 $-1 $290 forward single #
loop $-1 $-1 $206 $121 #
plane-surface $-1 0 -29.171752045648464 0 0 1 0 0 0 1 forward_v I I I I #
coedge $-1 $124 $219 $125 $205 forward $71 $-1 #
edge $-1 $137 -2.380776828416439 $209 0.61922317158356099 $134 $291 forward 7 unknown #
coedge $-1 $126 $125 $292 $293 reversed $45 $-1 #
edge $-1 $294 -68.129520554216128 $209 68.129520554216128 $202 $295 forward 7 unknown #
coedge $-1 $296 $297 $126 $207 forward $200 $-1 #
edge $-1 $210 -68.129520554216128 $298 68.129520554216128 $206 $299 forward 7 unknown #
coedge $-1 $300 $127 $297 $301 forward $122 $-1 #
vertex $-1 $128 $302 #
vertex $-1 $301 $303 #
straight-curve $-1 68.129520554216128 -12.68593168027536 0.26155365683287801 0 -1 0 I I #
coedge $-1 $304 $305 $129 $213 forward $306 $-1 #
edge $-1 $220 8.8860429951776148 $217 16.485820365373105 $212 $307 forward 7 unknown #
coedge $-1 $308 $130 $135 $223 reversed $216 $-1 #
coedge $-1 $130 $308 $304 $309 forward $216 $-1 #
loop $-1 $-1 $130 $310 #
vertex $-1 $213 $311 #
straight-curve $-1 0 -29.171752045648464 3.261553656832878 1 0 0 I I #
coedge $-1 $202 $132 $305 $312 reversed $71 $-1 #
vertex $-1 $213 $313 #
straight-curve $-1 0 -21.571974675452974 3.261553656832878 -1 0 0 I I #
coedge $-1 $135 $314 $315 $316 reversed $122 $-1 #
edge $-1 $317 -6.4558537540519376 $136 -3.261553656832878 $135 $318 forward 7 unknown #
point $-1 68.129520554216128 -29.171752045648464 3.261553656832878 #
point $-1 68.129520554216128 -21.571974675452974 3.261553656832878 #
face $-1 $319 $320 $17 $-1 $321 forward single #
loop $-1 $-1 $322 $139 #
plane-surface $-1 0 -25.371863360550719 3.261553656832878 0 0 1 1 0 0 forward_v I I I I #
coedge $-1 $145 $323 $142 $232 forward $140 $-1 #
coedge $-1 $231 $142 $324 $325 reversed $79 $-1 #
coedge $-1 $142 $230 $143 $234 forward $79 $-1 #
edge $-1 $326 25.583420490320439 $235 29.305027427636908 $229 $327 forward 7 unknown #
coedge $-1 $144 $143 $239 $328 reversed $49 $-1 #
edge $-1 $329 -58.3435040912969 $235 -51.688185338352483 $231 $330 forward 7 unknown #
vertex $-1 $146 $331 #
straight-curve $-1 -20.265437243496354 25.450145108331995 6.4558537540519403 -1 0 0 I I #
vertex $-1 $328 $332 #
straight-curve $-1 -57.184734186785334 -3.4535207074348904 49.307301874067036 0 0.55919289150049634 -0.82903758062907751 I I #
coedge $-1 $324 $148 $233 $328 forward $241 $-1 #
coedge $-1 $148 $333 $150 $244 reversed $241 $-1 #
loop $-1 $-1 $324 $334 #
straight-curve $-1 -57.184734186785334 29.171752045648461 62.751194532288132 0 0 -1 I I #
coedge $-1 $335 $150 $336 $337 forward $140 $-1 #
edge $-1 $152 57.184734186785334 $338 68.129520554216128 $240 $339 forward 7 unknown #
point $-1 -57.184734186785334 25.450145108331995 6.4558537540519367 #
point $-1 -57.184734186785334 29.171752045648464 6.4558537540519376 #
face $-1 $340 $341 $18 $-1 $342 forward single #
loop $-1 $-1 $343 $154 #
plane-surface $-1 -23.877014787200082 109.51034507193781 125.50238906457626 -1 0 0 0 0.82903758062907751 0.55919289150049634 forward_v I I I I #
loop $-1 $-1 $344 $86 #
coedge $-1 $252 $157 $345 $346 forward $87 $-1 #
coedge $-1 $157 $251 $347 $348 reversed $87 $-1 #
coedge $-1 $349 $350 $157 $254 forward $341 $-1 #
edge $-1 $351 -29.305027427636908 $352 -25.583420490320439 $253 $353 forward 7 unknown #
edge $-1 $354 1 $354 0 $158 $-1 forward 7 unknown #
vertex $-1 $159 $355 #
ellipse-curve $-1 -47.668242929760979 25.98383568240919 2.801950153097156 0 0.82903758062907751 0.55919289150049634 1 0 0 1 I I #
point $-1 -46.668242929760979 27.310948576990231 3.6970990754237514 #
face $-1 $356 $169 $19 $-1 $357 forward single #
loop $-1 $-1 $358 $162 #
plane-surface $-1 -57.184734186785334 109.51034507193781 125.50238906457626 1 0 0 0 -0.82903758062907751 -0.55919289150049634 forward_v I I I I #
loop $-1 $-1 $359 $94 #
coedge $-1 $263 $263 $264 $360 forward $163 $-1 #
coedge $-1 $264 $264 $263 $360 reversed $165 $-1 #
coedge $-1 $265 $265 $166 $266 forward $270 $-1 #
edge $-1 $361 7.3633328823514922e-016 $361 6.2831853071796013 $265 $362 forward 7 unknown #
edge $-1 $363 1 $363 0 $167 $-1 forward 7 unknown #
vertex $-1 $168 $364 #
ellipse-curve $-1 -33.393506044224438 25.98383568240919 2.801950153097156 0 0.82903758062907751 0.55919289150049634 1 0 0 1 I I #
loop $-1 $365 $265 $259 #
point $-1 -32.393506044224438 27.310948576990231 3.6970990754237514 #
plane-surface $-1 68.129520554216128 0 0 -1 0 0 0 0 1 forward_v I I I I #
coedge $-1 $177 $175 $179 $277 reversed $103 $-1 #
edge $-1 $190 -6.4558537540519376 $279 6.4558537540519376 $189 $366 forward 7 unknown #
vertex $-1 $277 $367 #
straight-curve $-1 -68.129520554216128 -29.171752045648464 0 0 0 -1 I I #
edge $-1 $275 -29.171752045648464 $279 29.171752045648464 $273 $368 forward 7 unknown #
straight-curve $-1 0 -29.171752045648464 -6.4558537540519376 -1 0 0 I I #
vertex $-1 $182 $369 #
straight-curve $-1 0 29.171752045648464 -6.4558537540519376 1 0 0 I I #
point $-1 68.129520554216128 29.171752045648464 -6.4558537540519376 #
point $-1 68.129520554216128 -29.171752045648464 -6.4558537540519376 #
straight-curve $-1 -68.129520554216128 0 6.4558537540519376 0 -1 0 I I #
point $-1 -68.129520554216128 29.171752045648464 6.4558537540519376 #
point $-1 -68.129520554216128 -29.171752045648464 6.4558537540519376 #
straight-curve $-1 68.129520554216128 -29.171752045648464 0 0 0 -1 I I #
straight-curve $-1 68.129520554216128 29.171752045648464 0 0 0 -1 I I #
face $-1 $310 $370 $16 $-1 $371 reversed single #
loop $-1 $-1 $315 $199 #
plane-surface $-1 0 0 6.4558537540519376 0 0 1 1 0 0 forward_v I I I I #
straight-curve $-1 68.129520554216128 -21.571974675452974 0.88077682841643901 0 0 -1 I I #
coedge $-1 $305 $372 $204 $293 forward $306 $-1 #
edge $-1 $298 -16.485820365373105 $294 -8.8860429951776148 $292 $373 forward 7 unknown #
vertex $-1 $293 $374 #
straight-curve $-1 0 -21.571974675452974 0.26155365683287801 1 0 0 I I #
coedge $-1 $375 $206 $372 $376 forward $200 $-1 #
coedge $-1 $206 $375 $208 $301 reversed $200 $-1 #
vertex $-1 $376 $377 #
straight-curve $-1 0 -29.171752045648464 0.26155365683287801 -1 0 0 I I #
coedge $-1 $314 $208 $378 $379 reversed $122 $-1 #
edge $-1 $210 -0.26155365683287801 $380 6.4558537540519376 $208 $318 forward 7 unknown #
point $-1 68.129520554216128 -21.571974675452974 0.26155365683287801 #
point $-1 68.129520554216128 -29.171752045648464 0.26155365683287801 #
coedge $-1 $381 $212 $215 $309 reversed $306 $-1 #
coedge $-1 $212 $292 $219 $312 forward $306 $-1 #
loop $-1 $-1 $212 $382 #
straight-curve $-1 -68.129520554216128 -12.68593168027536 3.261553656832878 0 -1 0 I I #
coedge $-1 $215 $214 $383 $384 reversed $216 $-1 #
edge $-1 $385 -6.4558537540519376 $217 -3.261553656832878 $304 $386 forward 7 unknown #
face $-1 $382 $216 $16 $-1 $201 reversed single #
point $-1 -68.129520554216128 -29.171752045648464 3.261553656832878 #
edge $-1 $294 -0.61922317158356099 $220 2.380776828416439 $305 $387 forward 7 unknown #
point $-1 -68.129520554216128 -21.571974675452974 3.261553656832878 #
coedge $-1 $222 $300 $388 $389 reversed $122 $-1 #
coedge $-1 $390 $383 $222 $316 forward $289 $-1 #
edge $-1 $317 -29.171752045648464 $391 29.171752045648464 $222 $392 forward 7 unknown #
vertex $-1 $316 $393 #
straight-curve $-1 68.129520554216128 -29.171752045648464 0 0 0 -1 I I #
face $-1 $394 $395 $17 $-1 $396 forward single #
loop $-1 $-1 $397 $226 #
plane-surface $-1 0 -25.371863360550719 0.26155365683287801 0 0 1 1 0 0 forward_v I I I I #
coedge $-1 $398 $399 $400 $401 reversed $227 $-1 #
coedge $-1 $229 $402 $403 $404 forward $140 $-1 #
coedge $-1 $403 $239 $230 $325 forward $241 $-1 #
edge $-1 $329 -61.81285013549256 $326 -56.295340778236195 $324 $405 forward 7 unknown #
vertex $-1 $325 $406 #
straight-curve $-1 -23.877014787200082 54.755172535968903 6.4558537540519367 0 -1 0 I I #
edge $-1 $237 -36.919296943288984 $329 -3.6115775437037279 $239 $407 forward 7 unknown #
vertex $-1 $328 $408 #
straight-curve $-1 -23.877014787200082 -3.4535207074348904 49.307301874067036 0 -0.55919289150049634 0.82903758062907751 I I #
point $-1 -23.877014787200082 25.450145108331995 6.4558537540519367 #
point $-1 -57.184734186785334 29.171752045648461 0.93834439679557136 #
coedge $-1 $240 $409 $410 $411 reversed $241 $-1 #
face $-1 $-1 $241 $17 $-1 $412 reversed single #
coedge $-1 $402 $243 $413 $414 forward $140 $-1 #
coedge $-1 $410 $415 $243 $337 reversed $416 $-1 #
edge $-1 $338 -29.171752045648464 $417 29.171752045648464 $336 $418 forward 7 unknown #
vertex $-1 $244 $419 #
straight-curve $-1 0 29.171752045648464 6.4558537540519376 -1 0 0 I I #
face $-1 $420 $421 $18 $-1 $422 reversed single #
loop $-1 $-1 $423 $247 #
plane-surface $-1 0 0 6.4558537540519376 0 0 1 1 0 0 forward_v I I I I #
coedge $-1 $424 $425 $423 $426 reversed $248 $-1 #
coedge $-1 $427 $345 $350 $428 reversed $250 $-1 #
coedge $-1 $344 $429 $251 $346 reversed $250 $-1 #
edge $-1 $351 51.688185338352483 $430 58.3435040912969 $251 $431 forward 7 unknown #
coedge $-1 $432 $433 $252 $348 forward $434 $-1 #
edge $-1 $352 56.295340778236195 $430 61.81285013549256 $347 $435 forward 7 unknown #
coedge $-1 $436 $253 $433 $437 forward $341 $-1 #
coedge $-1 $253 $423 $344 $428 forward $341 $-1 #
vertex $-1 $428 $438 #
vertex $-1 $437 $439 #
straight-curve $-1 -57.184734186785334 54.755172535968903 6.4558537540519367 0 1 0 I I #
vertex $-1 $255 $440 #
point $-1 -46.668242929760979 25.98383568240919 2.801950153097156 #
face $-1 $441 $442 $19 $-1 $443 forward single #
plane-surface $-1 -40.530874486992708 -3.4535207074348904 49.307301874067036 0 0.82903758062907751 0.55919289150049634 1 0 0 forward_v I I I I #
coedge $-1 $444 $445 $446 $447 reversed $260 $-1 #
coedge $-1 $359 $359 $-1 $448 forward $262 $-1 #
edge $-1 $449 0 $449 6.2831853071796004 $263 $450 forward 7 unknown #
vertex $-1 $266 $451 #
ellipse-curve $-1 -47.668242929760979 27.310948576990231 3.6970990754237505 0 -0.82903758062907751 -0.55919289150049634 1 0 0 1 I I #
vertex $-1 $267 $452 #
point $-1 -32.393506044224438 25.98383568240919 2.801950153097156 #
loop $-1 $-1 $453 $259 #
straight-curve $-1 -68.129520554216128 29.171752045648464 0 0 0 -1 I I #
point $-1 -68.129520554216128 -29.171752045648464 -6.4558537540519376 #
straight-curve $-1 -68.129520554216128 0 -6.4558537540519376 0 1 0 I I #
point $-1 -68.129520554216128 29.171752045648464 -6.4558537540519376 #
loop $-1 $-1 $378 $288 #
plane-surface $-1 0 0 -6.4558537540519376 0 0 1 1 0 0 forward_v I I I I #
coedge $-1 $292 $454 $296 $376 reversed $306 $-1 #
straight-curve $-1 -68.129520554216128 -12.68593168027536 0.26155365683287801 0 1 0 I I #
point $-1 -68.129520554216128 -21.571974675452974 0.26155365683287801 #
coedge $-1 $297 $296 $455 $456 reversed $200 $-1 #
edge $-1 $298 -0.26155365683287801 $457 6.4558537540519376 $372 $386 forward 7 unknown #
point $-1 -68.129520554216128 -29.171752045648464 0.26155365683287801 #
coedge $-1 $455 $458 $300 $379 forward $370 $-1 #
edge $-1 $459 -29.171752045648464 $380 29.171752045648464 $300 $460 forward 7 unknown #
vertex $-1 $301 $461 #
coedge $-1 $462 $304 $463 $464 reversed $306 $-1 #
face $-1 $465 $306 $16 $-1 $466 reversed single #
coedge $-1 $315 $463 $308 $384 forward $289 $-1 #
edge $-1 $385 -68.129520554216128 $317 68.129520554216128 $308 $467 forward 7 unknown #
vertex $-1 $464 $468 #
straight-curve $-1 -68.129520554216128 -29.171752045648464 0 0 0 -1 I I #
straight-curve $-1 -68.129520554216128 -21.571974675452974 0.88077682841643901 0 0 1 I I #
coedge $-1 $469 $470 $314 $389 forward $471 $-1 #
edge $-1 $391 -6.4558537540519376 $459 6.4558537540519376 $314 $472 forward 7 unknown #
coedge $-1 $463 $315 $470 $473 forward $289 $-1 #
vertex $-1 $316 $474 #
straight-curve $-1 68.129520554216128 0 6.4558537540519376 0 1 0 I I #
point $-1 68.129520554216128 -29.171752045648464 6.4558537540519376 #
face $-1 $475 $476 $17 $-1 $477 reversed single #
loop $-1 $-1 $478 $319 #
plane-surface $-1 0 -21.571974675452974 1.761553656832878 0 -1 0 0 0 -1 forward_v I I I I #
coedge $-1 $479 $480 $481 $482 reversed $320 $-1 #
coedge $-1 $483 $322 $484 $485 reversed $227 $-1 #
coedge $-1 $322 $483 $486 $487 reversed $227 $-1 #
coedge $-1 $488 $489 $322 $401 forward $476 $-1 #
edge $-1 $490 -16.485820365373105 $491 -8.8860429951776148 $400 $492 forward 7 unknown #
coedge $-1 $323 $335 $493 $494 forward $140 $-1 #
coedge $-1 $495 $324 $323 $404 reversed $241 $-1 #
edge $-1 $496 -68.129520554216128 $326 23.877014787200082 $403 $339 forward 7 unknown #
straight-curve $-1 -23.877014787200082 29.171752045648461 62.751194532288132 0 0 1 I I #
point $-1 -23.877014787200082 29.171752045648464 6.4558537540519376 #
straight-curve $-1 -20.265437243496354 29.171752045648461 0.9383443967955678 1 0 0 I I #
point $-1 -23.877014787200082 29.171752045648461 0.93834439679557136 #
coedge $-1 $333 $495 $497 $498 reversed $241 $-1 #
coedge $-1 $499 $336 $333 $411 forward $416 $-1 #
edge $-1 $338 -6.4558537540519376 $500 6.4558537540519376 $333 $501 forward 7 unknown #
plane-surface $-1 0 29.171752045648464 0 0 -1 0 0 0 -1 forward_v I I I I #
coedge $-1 $502 $503 $335 $414 reversed $504 $-1 #
edge $-1 $417 -68.129520554216128 $505 68.129520554216128 $413 $506 forward 7 unknown #
coedge $-1 $336 $507 $502 $508 reversed $416 $-1 #
loop $-1 $-1 $507 $509 #
vertex $-1 $337 $510 #
straight-curve $-1 -68.129520554216128 0 6.4558537540519376 0 -1 0 I I #
point $-1 -68.129520554216128 29.171752045648464 6.4558537540519376 #
face $-1 $511 $512 $18 $-1 $513 forward single #
loop $-1 $-1 $514 $340 #
plane-surface $-1 0 -25.371863360550719 3.261553656832878 0 0 1 1 0 0 forward_v I I I I #
coedge $-1 $350 $515 $343 $426 forward $341 $-1 #
coedge $-1 $425 $343 $516 $517 reversed $248 $-1 #
coedge $-1 $343 $424 $427 $518 forward $248 $-1 #
edge $-1 $519 25.583420490320439 $520 29.305027427636908 $423 $521 forward 7 unknown #
coedge $-1 $429 $344 $425 $518 reversed $250 $-1 #
edge $-1 $520 3.6115775437037279 $351 36.919296943288984 $350 $522 forward 7 unknown #
coedge $-1 $345 $427 $432 $523 reversed $250 $-1 #
vertex $-1 $523 $524 #
straight-curve $-1 -57.184734186785334 -3.4535207074348904 49.307301874067036 0 0.55919289150049634 -0.82903758062907751 I I #
coedge $-1 $516 $347 $429 $523 forward $434 $-1 #
coedge $-1 $347 $525 $349 $437 reversed $434 $-1 #
loop $-1 $-1 $516 $526 #
straight-curve $-1 -57.184734186785334 29.171752045648461 62.751194532288132 0 0 -1 I I #
coedge $-1 $527 $349 $528 $529 forward $341 $-1 #
edge $-1 $352 57.184734186785334 $530 68.129520554216128 $433 $531 forward 7 unknown #
point $-1 -57.184734186785334 25.450145108331995 6.4558537540519367 #
point $-1 -57.184734186785334 29.171752045648464 6.4558537540519376 #
point $-1 -47.668242929760979 25.154798101780113 2.24275726159666 #
face $-1 $532 $533 $19 $-1 $534 forward single #
loop $-1 $-1 $535 $356 #
plane-surface $-1 -23.877014787200082 109.51034507193781 125.50238906457626 -1 0 0 0 0.82903758062907751 0.55919289150049634 forward_v I I I I #
coedge $-1 $445 $358 $536 $537 forward $260 $-1 #
coedge $-1 $358 $444 $538 $539 reversed $260 $-1 #
coedge $-1 $540 $541 $358 $447 forward $533 $-1 #
edge $-1 $542 -29.305027427636908 $543 -25.583420490320439 $446 $544 forward 7 unknown #
edge $-1 $545 1 $545 0 $359 $-1 forward 7 unknown #
vertex $-1 $360 $546 #
ellipse-curve $-1 -47.668242929760979 25.98383568240919 2.801950153097156 0 0.82903758062907751 0.55919289150049634 1 0 0 1 I I #
point $-1 -46.668242929760979 27.310948576990231 3.6970990754237514 #
point $-1 -33.393506044224438 25.154798101780113 2.24275726159666 #
coedge $-1 $547 $536 $541 $548 reversed $365 $-1 #
coedge $-1 $372 $462 $549 $550 reversed $306 $-1 #
coedge $-1 $549 $378 $375 $456 forward $370 $-1 #
edge $-1 $380 -68.129520554216128 $457 68.129520554216128 $375 $551 forward 7 unknown #
vertex $-1 $550 $552 #
coedge $-1 $378 $549 $469 $553 forward $370 $-1 #
vertex $-1 $379 $554 #
straight-curve $-1 68.129520554216128 0 -6.4558537540519376 0 -1 0 I I #
point $-1 68.129520554216128 -29.171752045648464 -6.4558537540519376 #
coedge $-1 $454 $381 $555 $556 forward $306 $-1 #
coedge $-1 $383 $390 $381 $464 forward $289 $-1 #
edge $-1 $557 -29.171752045648464 $385 29.171752045648464 $381 $558 forward 7 unknown #
face $-1 $-1 $471 $16 $-1 $559 reversed single #
plane-surface $-1 -68.129520554216128 0 0 1 0 0 0 0 -1 forward_v I I I I #
straight-curve $-1 0 -29.171752045648464 6.4558537540519376 1 0 0 I I #
point $-1 -68.129520554216128 -29.171752045648464 6.4558537540519376 #
coedge $-1 $555 $388 $458 $553 reversed $471 $-1 #
coedge $-1 $388 $555 $390 $473 reversed $471 $-1 #
loop $-1 $-1 $388 $465 #
straight-curve $-1 68.129520554216128 29.171752045648464 0 0 0 -1 I I #
edge $-1 $391 -68.129520554216128 $557 68.129520554216128 $470 $560 forward 7 unknown #
point $-1 68.129520554216128 29.171752045648464 6.4558537540519376 #
face $-1 $561 $562 $17 $-1 $563 reversed single #
loop $-1 $-1 $400 $394 #
plane-surface $-1 68.129520554216128 0 0 -1 0 0 0 0 1 forward_v I I I I #
coedge $-1 $486 $564 $488 $565 reversed $395 $-1 #
coedge $-1 $566 $397 $564 $567 reversed $320 $-1 #
coedge $-1 $397 $566 $568 $569 reversed $320 $-1 #
coedge $-1 $570 $488 $397 $482 forward $476 $-1 #
edge $-1 $571 8.8860429951776148 $572 16.485820365373105 $481 $573 forward 7 unknown #
coedge $-1 $399 $398 $507 $574 reversed $227 $-1 #
coedge $-1 $503 $502 $398 $485 forward $504 $-1 #
edge $-1 $575 -68.129520554216128 $490 68.129520554216128 $484 $576 forward 7 unknown #
coedge $-1 $577 $478 $399 $487 forward $395 $-1 #
edge $-1 $491 -68.129520554216128 $578 68.129520554216128 $486 $579 forward 7 unknown #
coedge $-1 $481 $400 $478 $565 forward $476 $-1 #
coedge $-1 $400 $493 $503 $580 forward $476 $-1 #
vertex $-1 $485 $581 #
vertex $-1 $401 $582 #
straight-curve $-1 68.129520554216128 -12.68593168027536 3.261553656832878 0 1 0 I I #
coedge $-1 $489 $583 $402 $494 reversed $476 $-1 #
edge $-1 $505 -29.171752045648464 $496 29.171752045648464 $493 $584 forward 7 unknown #
coedge $-1 $409 $403 $583 $585 forward $241 $-1 #
vertex $-1 $494 $586 #
coedge $-1 $587 $588 $409 $498 forward $589 $-1 #
edge $-1 $500 -68.129520554216128 $590 68.129520554216128 $409 $591 forward 7 unknown #
coedge $-1 $592 $410 $588 $593 reversed $416 $-1 #
vertex $-1 $498 $594 #
straight-curve $-1 -68.129520554216128 29.171752045648464 0 0 0 -1 I I #
coedge $-1 $484 $413 $415 $508 forward $504 $-1 #
coedge $-1 $413 $484 $489 $580 reversed $504 $-1 #
loop $-1 $-1 $484 $595 #
vertex $-1 $494 $596 #
straight-curve $-1 0 -29.171752045648464 6.4558537540519376 1 0 0 I I #
coedge $-1 $415 $597 $483 $574 forward $416 $-1 #
edge $-1 $417 -6.4558537540519376 $575 -3.261553656832878 $415 $598 forward 7 unknown #
face $-1 $334 $416 $17 $-1 $599 reversed single #
point $-1 -68.129520554216128 -29.171752045648464 6.4558537540519376 #
face $-1 $600 $601 $18 $-1 $602 forward single #
loop $-1 $-1 $603 $420 #
plane-surface $-1 0 -25.371863360550719 0.26155365683287801 0 0 1 1 0 0 forward_v I I I I #
coedge $-1 $604 $605 $606 $607 reversed $421 $-1 #
coedge $-1 $423 $608 $609 $610 forward $341 $-1 #
coedge $-1 $609 $432 $424 $517 forward $434 $-1 #
edge $-1 $611 -61.81285013549256 $519 -56.295340778236195 $516 $612 forward 7 unknown #
edge $-1 $611 -58.3435040912969 $520 -51.688185338352483 $425 $613 forward 7 unknown #
vertex $-1 $517 $614 #
vertex $-1 $428 $615 #
straight-curve $-1 -23.877014787200082 54.755172535968903 6.4558537540519367 0 -1 0 I I #
straight-curve $-1 -20.265437243496354 25.450145108331995 6.4558537540519403 -1 0 0 I I #
edge $-1 $430 -36.919296943288984 $611 -3.6115775437037279 $432 $616 forward 7 unknown #
point $-1 -57.184734186785334 29.171752045648461 0.93834439679557136 #
coedge $-1 $433 $617 $618 $619 reversed $434 $-1 #
face $-1 $-1 $434 $18 $-1 $620 reversed single #
coedge $-1 $608 $436 $621 $622 forward $341 $-1 #
coedge $-1 $618 $623 $436 $529 reversed $624 $-1 #
edge $-1 $530 -29.171752045648464 $625 29.171752045648464 $528 $626 forward 7 unknown #
vertex $-1 $437 $627 #
straight-curve $-1 0 29.171752045648464 6.4558537540519376 -1 0 0 I I #
face $-1 $628 $629 $19 $-1 $630 reversed single #
loop $-1 $-1 $631 $441 #
plane-surface $-1 0 0 6.4558537540519376 0 0 1 1 0 0 forward_v I I I I #
coedge $-1 $632 $633 $631 $634 reversed $442 $-1 #
coedge $-1 $453 $635 $444 $537 reversed $365 $-1 #
edge $-1 $542 51.688185338352483 $636 58.3435040912969 $444 $637 forward 7 unknown #
coedge $-1 $638 $639 $445 $539 forward $640 $-1 #
edge $-1 $543 56.295340778236195 $636 61.81285013549256 $538 $641 forward 7 unknown #
coedge $-1 $642 $446 $639 $643 forward $533 $-1 #
coedge $-1 $446 $631 $453 $548 forward $533 $-1 #
vertex $-1 $548 $644 #
vertex $-1 $643 $645 #
straight-curve $-1 -57.184734186785334 54.755172535968903 6.4558537540519367 0 1 0 I I #
vertex $-1 $448 $646 #
point $-1 -46.668242929760979 25.98383568240919 2.801950153097156 #
coedge $-1 $635 $453 $633 $647 reversed $365 $-1 #
edge $-1 $648 3.6115775437037279 $542 36.919296943288984 $541 $649 forward 7 unknown #
coedge $-1 $458 $455 $454 $550 forward $370 $-1 #
edge $-1 $457 -29.171752045648464 $650 29.171752045648464 $454 $651 forward 7 unknown #
straight-curve $-1 0 -29.171752045648464 -6.4558537540519376 -1 0 0 I I #
point $-1 -68.129520554216128 -29.171752045648464 -6.4558537540519376 #
edge $-1 $650 -68.129520554216128 $459 68.129520554216128 $469 $652 forward 7 unknown #
point $-1 68.129520554216128 29.171752045648464 -6.4558537540519376 #
coedge $-1 $470 $469 $462 $556 reversed $471 $-1 #
edge $-1 $557 -6.4558537540519376 $650 6.4558537540519376 $555 $653 forward 7 unknown #
vertex $-1 $473 $654 #
straight-curve $-1 -68.129520554216128 0 6.4558537540519376 0 -1 0 I I #
plane-surface $-1 0 29.171752045648464 0 0 -1 0 0 0 -1 forward_v I I I I #
straight-curve $-1 0 29.171752045648464 6.4558537540519376 -1 0 0 I I #
face $-1 $595 $589 $17 $-1 $655 reversed single #
loop $-1 $-1 $568 $475 #
plane-surface $-1 0 -29.171752045648464 0 0 1 0 0 0 1 forward_v I I I I #
coedge $-1 $478 $577 $479 $567 forward $395 $-1 #
edge $-1 $491 -2.380776828416439 $571 0.61922317158356099 $488 $656 forward 7 unknown #
coedge $-1 $480 $479 $657 $658 reversed $320 $-1 #
edge $-1 $659 -68.129520554216128 $571 68.129520554216128 $564 $660 forward 7 unknown #
coedge $-1 $661 $662 $480 $569 forward $562 $-1 #
edge $-1 $572 -68.129520554216128 $663 68.129520554216128 $568 $664 forward 7 unknown #
coedge $-1 $665 $481 $662 $666 forward $476 $-1 #
vertex $-1 $482 $667 #
vertex $-1 $666 $668 #
straight-curve $-1 68.129520554216128 -12.68593168027536 0.26155365683287801 0 -1 0 I I #
edge $-1 $578 8.8860429951776148 $575 16.485820365373105 $507 $669 forward 7 unknown #
vertex $-1 $574 $670 #
straight-curve $-1 0 -29.171752045648464 3.261553656832878 1 0 0 I I #
coedge $-1 $564 $486 $597 $671 reversed $395 $-1 #
vertex $-1 $574 $672 #
straight-curve $-1 0 -21.571974675452974 3.261553656832878 -1 0 0 I I #
edge $-1 $505 -6.4558537540519376 $490 -3.261553656832878 $489 $673 forward 7 unknown #
point $-1 68.129520554216128 -29.171752045648464 3.261553656832878 #
point $-1 68.129520554216128 -21.571974675452974 3.261553656832878 #
coedge $-1 $493 $665 $495 $585 reversed $476 $-1 #
straight-curve $-1 68.129520554216128 0 6.4558537540519376 0 1 0 I I #
edge $-1 $496 -6.4558537540519376 $590 6.4558537540519376 $583 $674 forward 7 unknown #
point $-1 68.129520554216128 29.171752045648464 6.4558537540519376 #
coedge $-1 $675 $497 $665 $676 forward $589 $-1 #
coedge $-1 $497 $675 $499 $593 forward $589 $-1 #
loop $-1 $-1 $587 $561 #
vertex $-1 $676 $677 #
straight-curve $-1 0 29.171752045648464 -6.4558537540519376 1 0 0 I I #
coedge $-1 $657 $499 $661 $678 reversed $416 $-1 #
edge $-1 $679 -29.171752045648464 $500 29.171752045648464 $499 $680 forward 7 unknown #
point $-1 -68.129520554216128 29.171752045648464 -6.4558537540519376 #
face $-1 $509 $504 $17 $-1 $563 reversed single #
point $-1 68.129520554216128 -29.171752045648464 6.4558537540519376 #
coedge $-1 $507 $657 $577 $671 forward $416 $-1 #
straight-curve $-1 -68.129520554216128 -29.171752045648464 0 0 0 -1 I I #
plane-surface $-1 -68.129520554216128 0 0 1 0 0 0 0 -1 forward_v I I I I #
face $-1 $681 $682 $18 $-1 $683 reversed single #
loop $-1 $-1 $684 $511 #
plane-surface $-1 0 -21.571974675452974 1.761553656832878 0 -1 0 0 0 -1 forward_v I I I I #
coedge $-1 $685 $686 $687 $688 reversed $512 $-1 #
coedge $-1 $689 $514 $690 $691 reversed $421 $-1 #
coedge $-1 $514 $689 $692 $693 reversed $421 $-1 #
coedge $-1 $694 $695 $514 $607 forward $682 $-1 #
edge $-1 $696 -16.485820365373105 $697 -8.8860429951776148 $606 $698 forward 7 unknown #
coedge $-1 $515 $527 $699 $700 forward $341 $-1 #
coedge $-1 $701 $516 $515 $610 reversed $434 $-1 #
edge $-1 $702 -68.129520554216128 $519 23.877014787200082 $609 $531 forward 7 unknown #
vertex $-1 $523 $703 #
straight-curve $-1 -23.877014787200082 29.171752045648461 62.751194532288132 0 0 1 I I #
straight-curve $-1 -23.877014787200082 -3.4535207074348904 49.307301874067036 0 -0.55919289150049634 0.82903758062907751 I I #
point $-1 -23.877014787200082 29.171752045648464 6.4558537540519376 #
point $-1 -23.877014787200082 25.450145108331995 6.4558537540519367 #
straight-curve $-1 -20.265437243496354 29.171752045648461 0.9383443967955678 1 0 0 I I #
coedge $-1 $525 $701 $704 $705 reversed $434 $-1 #
coedge $-1 $706 $528 $525 $619 forward $624 $-1 #
edge $-1 $530 -6.4558537540519376 $707 6.4558537540519376 $525 $708 forward 7 unknown #
plane-surface $-1 0 29.171752045648464 0 0 -1 0 0 0 -1 forward_v I I I I #
coedge $-1 $709 $710 $527 $622 reversed $711 $-1 #
edge $-1 $625 -68.129520554216128 $712 68.129520554216128 $621 $713 forward 7 unknown #
coedge $-1 $528 $714 $709 $715 reversed $624 $-1 #
loop $-1 $-1 $714 $716 #
vertex $-1 $529 $717 #
straight-curve $-1 -68.129520554216128 0 6.4558537540519376 0 -1 0 I I #
point $-1 -68.129520554216128 29.171752045648464 6.4558537540519376 #
face $-1 $718 $719 $19 $-1 $720 forward single #
loop $-1 $-1 $721 $532 #
plane-surface $-1 0 -25.371863360550719 3.261553656832878 0 0 1 1 0 0 forward_v I I I I #
coedge $-1 $541 $722 $535 $634 forward $533 $-1 #
coedge $-1 $633 $535 $723 $724 reversed $442 $-1 #
coedge $-1 $535 $632 $547 $647 forward $442 $-1 #
edge $-1 $725 25.583420490320439 $648 29.305027427636908 $631 $726 forward 7 unknown #
coedge $-1 $536 $547 $638 $727 reversed $365 $-1 #
vertex $-1 $727 $728 #
straight-curve $-1 -57.184734186785334 -3.4535207074348904 49.307301874067036 0 0.55919289150049634 -0.82903758062907751 I I #
coedge $-1 $723 $538 $635 $727 forward $640 $-1 #
coedge $-1 $538 $729 $540 $643 reversed $640 $-1 #
loop $-1 $-1 $723 $730 #
straight-curve $-1 -57.184734186785334 29.171752045648461 62.751194532288132 0 0 -1 I I #
coedge $-1 $731 $540 $732 $733 forward $533 $-1 #
edge $-1 $543 57.184734186785334 $734 68.129520554216128 $639 $735 forward 7 unknown #
point $-1 -57.184734186785334 25.450145108331995 6.4558537540519367 #
point $-1 -57.184734186785334 29.171752045648464 6.4558537540519376 #
point $-1 -47.668242929760979 25.154798101780113 2.24275726159666 #
edge $-1 $736 -58.3435040912969 $648 -51.688185338352483 $633 $737 forward 7 unknown #
vertex $-1 $548 $738 #
straight-curve $-1 -20.265437243496354 25.450145108331995 6.4558537540519403 -1 0 0 I I #
vertex $-1 $553 $739 #
straight-curve $-1 -68.129520554216128 0 -6.4558537540519376 0 1 0 I I #
straight-curve $-1 0 29.171752045648464 -6.4558537540519376 1 0 0 I I #
straight-curve $-1 -68.129520554216128 29.171752045648464 0 0 0 -1 I I #
point $-1 -68.129520554216128 29.171752045648464 6.4558537540519376 #
plane-surface $-1 0 0 -6.4558537540519376 0 0 1 1 0 0 forward_v I I I I #
straight-curve $-1 68.129520554216128 -21.571974675452974 0.88077682841643901 0 0 -1 I I #
coedge $-1 $597 $592 $566 $658 forward $416 $-1 #
edge $-1 $663 -16.485820365373105 $659 -8.8860429951776148 $657 $740 forward 7 unknown #
vertex $-1 $658 $741 #
straight-curve $-1 0 -21.571974675452974 0.26155365683287801 1 0 0 I I #
coedge $-1 $742 $568 $592 $678 forward $562 $-1 #
coedge $-1 $568 $742 $570 $666 reversed $562 $-1 #
vertex $-1 $678 $743 #
straight-curve $-1 0 -29.171752045648464 0.26155365683287801 -1 0 0 I I #
coedge $-1 $583 $570 $587 $676 reversed $476 $-1 #
edge $-1 $572 -0.26155365683287801 $744 6.4558537540519376 $570 $673 forward 7 unknown #
point $-1 68.129520554216128 -21.571974675452974 0.26155365683287801 #
point $-1 68.129520554216128 -29.171752045648464 0.26155365683287801 #
straight-curve $-1 -68.129520554216128 -12.68593168027536 3.261553656832878 0 -1 0 I I #
point $-1 -68.129520554216128 -29.171752045648464 3.261553656832878 #
edge $-1 $659 -0.61922317158356099 $578 2.380776828416439 $597 $745 forward 7 unknown #
point $-1 -68.129520554216128 -21.571974675452974 3.261553656832878 #
straight-curve $-1 68.129520554216128 -29.171752045648464 0 0 0 -1 I I #
straight-curve $-1 68.129520554216128 29.171752045648464 0 0 0 -1 I I #
coedge $-1 $588 $587 $742 $746 forward $589 $-1 #
edge $-1 $590 -29.171752045648464 $744 29.171752045648464 $665 $747 forward 7 unknown #
point $-1 68.129520554216128 29.171752045648464 -6.4558537540519376 #
edge $-1 $663 -0.26155365683287801 $679 6.4558537540519376 $592 $598 forward 7 unknown #
vertex $-1 $593 $748 #
straight-curve $-1 -68.129520554216128 0 -6.4558537540519376 0 1 0 I I #
face $-1 $749 $750 $18 $-1 $751 reversed single #
loop $-1 $-1 $606 $600 #
plane-surface $-1 68.129520554216128 0 0 -1 0 0 0 0 1 forward_v I I I I #
coedge $-1 $692 $752 $694 $753 reversed $601 $-1 #
coedge $-1 $754 $603 $752 $755 reversed $512 $-1 #
coedge $-1 $603 $754 $756 $757 reversed $512 $-1 #
coedge $-1 $758 $694 $603 $688 forward $682 $-1 #
edge $-1 $759 8.8860429951776148 $760 16.485820365373105 $687 $761 forward 7 unknown #
coedge $-1 $605 $604 $714 $762 reversed $421 $-1 #
coedge $-1 $710 $709 $604 $691 forward $711 $-1 #
edge $-1 $763 -68.129520554216128 $696 68.129520554216128 $690 $764 forward 7 unknown #
coedge $-1 $765 $684 $605 $693 forward $601 $-1 #
edge $-1 $697 -68.129520554216128 $766 68.129520554216128 $692 $767 forward 7 unknown #
coedge $-1 $687 $606 $684 $753 forward $682 $-1 #
coedge $-1 $606 $699 $710 $768 forward $682 $-1 #
vertex $-1 $691 $769 #
vertex $-1 $607 $770 #
straight-curve $-1 68.129520554216128 -12.68593168027536 3.261553656832878 0 1 0 I I #
coedge $-1 $695 $771 $608 $700 reversed $682 $-1 #
edge $-1 $712 -29.171752045648464 $702 29.171752045648464 $699 $772 forward 7 unknown #
coedge $-1 $617 $609 $771 $773 forward $434 $-1 #
vertex $-1 $700 $774 #
point $-1 -23.877014787200082 29.171752045648461 0.93834439679557136 #
coedge $-1 $775 $776 $617 $705 forward $777 $-1 #
edge $-1 $707 -68.129520554216128 $778 68.129520554216128 $617 $779 forward 7 unknown #
coedge $-1 $780 $618 $776 $781 reversed $624 $-1 #
vertex $-1 $705 $782 #
straight-curve $-1 -68.129520554216128 29.171752045648464 0 0 0 -1 I I #
coedge $-1 $690 $621 $623 $715 forward $711 $-1 #
coedge $-1 $621 $690 $695 $768 reversed $711 $-1 #
loop $-1 $-1 $690 $783 #
vertex $-1 $700 $784 #
straight-curve $-1 0 -29.171752045648464 6.4558537540519376 1 0 0 I I #
coedge $-1 $623 $785 $689 $762 forward $624 $-1 #
edge $-1 $625 -6.4558537540519376 $763 -3.261553656832878 $623 $786 forward 7 unknown #
face $-1 $526 $624 $18 $-1 $787 reversed single #
point $-1 -68.129520554216128 -29.171752045648464 6.4558537540519376 #
face $-1 $788 $789 $19 $-1 $790 forward single #
loop $-1 $-1 $791 $628 #
plane-surface $-1 0 -25.371863360550719 0.26155365683287801 0 0 1 1 0 0 forward_v I I I I #
coedge $-1 $792 $793 $794 $795 reversed $629 $-1 #
coedge $-1 $631 $796 $797 $798 forward $533 $-1 #
coedge $-1 $797 $638 $632 $724 forward $640 $-1 #
edge $-1 $736 -61.81285013549256 $725 -56.295340778236195 $723 $799 forward 7 unknown #
vertex $-1 $724 $800 #
straight-curve $-1 -23.877014787200082 54.755172535968903 6.4558537540519367 0 -1 0 I I #
edge $-1 $636 -36.919296943288984 $736 -3.6115775437037279 $638 $801 forward 7 unknown #
point $-1 -57.184734186785334 29.171752045648461 0.93834439679557136 #
coedge $-1 $639 $802 $803 $804 reversed $640 $-1 #
face $-1 $-1 $640 $19 $-1 $805 reversed single #
coedge $-1 $796 $642 $806 $807 forward $533 $-1 #
coedge $-1 $803 $808 $642 $733 reversed $809 $-1 #
edge $-1 $734 -29.171752045648464 $810 29.171752045648464 $732 $811 forward 7 unknown #
vertex $-1 $643 $812 #
straight-curve $-1 0 29.171752045648464 6.4558537540519376 -1 0 0 I I #
vertex $-1 $727 $813 #
straight-curve $-1 -23.877014787200082 -3.4535207074348904 49.307301874067036 0 -0.55919289150049634 0.82903758062907751 I I #
point $-1 -23.877014787200082 25.450145108331995 6.4558537540519367 #
point $-1 -68.129520554216128 29.171752045648464 -6.4558537540519376 #
straight-curve $-1 -68.129520554216128 -12.68593168027536 0.26155365683287801 0 1 0 I I #
point $-1 -68.129520554216128 -21.571974675452974 0.26155365683287801 #
coedge $-1 $662 $661 $675 $746 reversed $562 $-1 #
point $-1 -68.129520554216128 -29.171752045648464 0.26155365683287801 #
vertex $-1 $666 $814 #
straight-curve $-1 -68.129520554216128 -21.571974675452974 0.88077682841643901 0 0 1 I I #
edge $-1 $744 -68.129520554216128 $679 68.129520554216128 $742 $815 forward 7 unknown #
straight-curve $-1 68.129520554216128 0 -6.4558537540519376 0 -1 0 I I #
point $-1 -68.129520554216128 -29.171752045648464 -6.4558537540519376 #
face $-1 $783 $777 $18 $-1 $816 reversed single #
loop $-1 $-1 $756 $681 #
plane-surface $-1 0 -29.171752045648464 0 0 1 0 0 0 1 forward_v I I I I #
coedge $-1 $684 $765 $685 $755 forward $601 $-1 #
edge $-1 $697 -2.380776828416439 $759 0.61922317158356099 $694 $817 forward 7 unknown #
coedge $-1 $686 $685 $818 $819 reversed $512 $-1 #
edge $-1 $820 -68.129520554216128 $759 68.129520554216128 $752 $821 forward 7 unknown #
coedge $-1 $822 $823 $686 $757 forward $750 $-1 #
edge $-1 $760 -68.129520554216128 $824 68.129520554216128 $756 $825 forward 7 unknown #
coedge $-1 $826 $687 $823 $827 forward $682 $-1 #
vertex $-1 $688 $828 #
vertex $-1 $827 $829 #
straight-curve $-1 68.129520554216128 -12.68593168027536 0.26155365683287801 0 -1 0 I I #
edge $-1 $766 8.8860429951776148 $763 16.485820365373105 $714 $830 forward 7 unknown #
vertex $-1 $762 $831 #
straight-curve $-1 0 -29.171752045648464 3.261553656832878 1 0 0 I I #
coedge $-1 $752 $692 $785 $832 reversed $601 $-1 #
vertex $-1 $762 $833 #
straight-curve $-1 0 -21.571974675452974 3.261553656832878 -1 0 0 I I #
edge $-1 $712 -6.4558537540519376 $696 -3.261553656832878 $695 $834 forward 7 unknown #
point $-1 68.129520554216128 -29.171752045648464 3.261553656832878 #
point $-1 68.129520554216128 -21.571974675452974 3.261553656832878 #
coedge $-1 $699 $826 $701 $773 reversed $682 $-1 #
straight-curve $-1 68.129520554216128 0 6.4558537540519376 0 1 0 I I #
edge $-1 $702 -6.4558537540519376 $778 6.4558537540519376 $771 $835 forward 7 unknown #
point $-1 68.129520554216128 29.171752045648464 6.4558537540519376 #
coedge $-1 $836 $704 $826 $837 forward $777 $-1 #
coedge $-1 $704 $836 $706 $781 forward $777 $-1 #
loop $-1 $-1 $775 $749 #
vertex $-1 $837 $838 #
straight-curve $-1 0 29.171752045648464 -6.4558537540519376 1 0 0 I I #
coedge $-1 $818 $706 $822 $839 reversed $624 $-1 #
edge $-1 $840 -29.171752045648464 $707 29.171752045648464 $706 $841 forward 7 unknown #
point $-1 -68.129520554216128 29.171752045648464 -6.4558537540519376 #
face $-1 $716 $711 $18 $-1 $751 reversed single #
point $-1 68.129520554216128 -29.171752045648464 6.4558537540519376 #
coedge $-1 $714 $818 $765 $832 forward $624 $-1 #
straight-curve $-1 -68.129520554216128 -29.171752045648464 0 0 0 -1 I I #
plane-surface $-1 -68.129520554216128 0 0 1 0 0 0 0 -1 forward_v I I I I #
face $-1 $842 $843 $19 $-1 $844 reversed single #
loop $-1 $-1 $845 $718 #
plane-surface $-1 0 -21.571974675452974 1.761553656832878 0 -1 0 0 0 -1 forward_v I I I I #
coedge $-1 $846 $847 $848 $849 reversed $719 $-1 #
coedge $-1 $850 $721 $851 $852 reversed $629 $-1 #
coedge $-1 $721 $850 $853 $854 reversed $629 $-1 #
coedge $-1 $855 $856 $721 $795 forward $843 $-1 #
edge $-1 $857 -16.485820365373105 $858 -8.8860429951776148 $794 $859 forward 7 unknown #
coedge $-1 $722 $731 $860 $861 forward $533 $-1 #
coedge $-1 $862 $723 $722 $798 reversed $640 $-1 #
edge $-1 $863 -68.129520554216128 $725 23.877014787200082 $797 $735 forward 7 unknown #
straight-curve $-1 -23.877014787200082 29.171752045648461 62.751194532288132 0 0 1 I I #
point $-1 -23.877014787200082 29.171752045648464 6.4558537540519376 #
straight-curve $-1 -20.265437243496354 29.171752045648461 0.9383443967955678 1 0 0 I I #
coedge $-1 $729 $862 $864 $865 reversed $640 $-1 #
coedge $-1 $866 $732 $729 $804 forward $809 $-1 #
edge $-1 $734 -6.4558537540519376 $867 6.4558537540519376 $729 $868 forward 7 unknown #
plane-surface $-1 0 29.171752045648464 0 0 -1 0 0 0 -1 forward_v I I I I #
coedge $-1 $869 $870 $731 $807 reversed $871 $-1 #
edge $-1 $810 -68.129520554216128 $872 68.129520554216128 $806 $873 forward 7 unknown #
coedge $-1 $732 $874 $869 $875 reversed $809 $-1 #
loop $-1 $-1 $874 $876 #
vertex $-1 $733 $877 #
straight-curve $-1 -68.129520554216128 0 6.4558537540519376 0 -1 0 I I #
point $-1 -68.129520554216128 29.171752045648464 6.4558537540519376 #
point $-1 -23.877014787200082 29.171752045648461 0.93834439679557136 #
point $-1 68.129520554216128 -29.171752045648464 -6.4558537540519376 #
straight-curve $-1 0 -29.171752045648464 -6.4558537540519376 -1 0 0 I I #
plane-surface $-1 0 0 -6.4558537540519376 0 0 1 1 0 0 forward_v I I I I #
straight-curve $-1 68.129520554216128 -21.571974675452974 0.88077682841643901 0 0 -1 I I #
coedge $-1 $785 $780 $754 $819 forward $624 $-1 #
edge $-1 $824 -16.485820365373105 $820 -8.8860429951776148 $818 $878 forward 7 unknown #
vertex $-1 $819 $879 #
straight-curve $-1 0 -21.571974675452974 0.26155365683287801 1 0 0 I I #
coedge $-1 $880 $756 $780 $839 forward $750 $-1 #
coedge $-1 $756 $880 $758 $827 reversed $750 $-1 #
vertex $-1 $839 $881 #
straight-curve $-1 0 -29.171752045648464 0.26155365683287801 -1 0 0 I I #
coedge $-1 $771 $758 $775 $837 reversed $682 $-1 #
edge $-1 $760 -0.26155365683287801 $882 6.4558537540519376 $758 $834 forward 7 unknown #
point $-1 68.129520554216128 -21.571974675452974 0.26155365683287801 #
point $-1 68.129520554216128 -29.171752045648464 0.26155365683287801 #
straight-curve $-1 -68.129520554216128 -12.68593168027536 3.261553656832878 0 -1 0 I I #
point $-1 -68.129520554216128 -29.171752045648464 3.261553656832878 #
edge $-1 $820 -0.61922317158356099 $766 2.380776828416439 $785 $883 forward 7 unknown #
point $-1 -68.129520554216128 -21.571974675452974 3.261553656832878 #
straight-curve $-1 68.129520554216128 -29.171752045648464 0 0 0 -1 I I #
straight-curve $-1 68.129520554216128 29.171752045648464 0 0 0 -1 I I #
coedge $-1 $776 $775 $880 $884 forward $777 $-1 #
edge $-1 $778 -29.171752045648464 $882 29.171752045648464 $826 $885 forward 7 unknown #
point $-1 68.129520554216128 29.171752045648464 -6.4558537540519376 #
edge $-1 $824 -0.26155365683287801 $840 6.4558537540519376 $780 $786 forward 7 unknown #
vertex $-1 $781 $886 #
straight-curve $-1 -68.129520554216128 0 -6.4558537540519376 0 1 0 I I #
face $-1 $887 $888 $19 $-1 $889 reversed single #
loop $-1 $-1 $794 $788 #
plane-surface $-1 68.129520554216128 0 0 -1 0 0 0 0 1 forward_v I I I I #
coedge $-1 $853 $890 $855 $891 reversed $789 $-1 #
coedge $-1 $892 $791 $890 $893 reversed $719 $-1 #
coedge $-1 $791 $892 $894 $895 reversed $719 $-1 #
coedge $-1 $896 $855 $791 $849 forward $843 $-1 #
edge $-1 $897 8.8860429951776148 $898 16.485820365373105 $848 $899 forward 7 unknown #
coedge $-1 $793 $792 $874 $900 reversed $629 $-1 #
coedge $-1 $870 $869 $792 $852 forward $871 $-1 #
edge $-1 $901 -68.129520554216128 $857 68.129520554216128 $851 $902 forward 7 unknown #
coedge $-1 $903 $845 $793 $854 forward $789 $-1 #
edge $-1 $858 -68.129520554216128 $904 68.129520554216128 $853 $905 forward 7 unknown #
coedge $-1 $848 $794 $845 $891 forward $843 $-1 #
coedge $-1 $794 $860 $870 $906 forward $843 $-1 #
vertex $-1 $852 $907 #
vertex $-1 $795 $908 #
straight-curve $-1 68.129520554216128 -12.68593168027536 3.261553656832878 0 1 0 I I #
coedge $-1 $856 $909 $796 $861 reversed $843 $-1 #
edge $-1 $872 -29.171752045648464 $863 29.171752045648464 $860 $910 forward 7 unknown #
coedge $-1 $802 $797 $909 $911 forward $640 $-1 #
vertex $-1 $861 $912 #
coedge $-1 $913 $914 $802 $865 forward $915 $-1 #
edge $-1 $867 -68.129520554216128 $916 68.129520554216128 $802 $917 forward 7 unknown #
coedge $-1 $918 $803 $914 $919 reversed $809 $-1 #
vertex $-1 $865 $920 #
straight-curve $-1 -68.129520554216128 29.171752045648464 0 0 0 -1 I I #
coedge $-1 $851 $806 $808 $875 forward $871 $-1 #
coedge $-1 $806 $851 $856 $906 reversed $871 $-1 #
loop $-1 $-1 $851 $921 #
vertex $-1 $861 $922 #
straight-curve $-1 0 -29.171752045648464 6.4558537540519376 1 0 0 I I #
coedge $-1 $808 $923 $850 $900 forward $809 $-1 #
edge $-1 $810 -6.4558537540519376 $901 -3.261553656832878 $808 $924 forward 7 unknown #
face $-1 $730 $809 $19 $-1 $925 reversed single #
point $-1 -68.129520554216128 -29.171752045648464 6.4558537540519376 #
straight-curve $-1 -68.129520554216128 -12.68593168027536 0.26155365683287801 0 1 0 I I #
point $-1 -68.129520554216128 -21.571974675452974 0.26155365683287801 #
coedge $-1 $823 $822 $836 $884 reversed $750 $-1 #
point $-1 -68.129520554216128 -29.171752045648464 0.26155365683287801 #
vertex $-1 $827 $926 #
straight-curve $-1 -68.129520554216128 -21.571974675452974 0.88077682841643901 0 0 1 I I #
edge $-1 $882 -68.129520554216128 $840 68.129520554216128 $880 $927 forward 7 unknown #
straight-curve $-1 68.129520554216128 0 -6.4558537540519376 0 -1 0 I I #
point $-1 -68.129520554216128 -29.171752045648464 -6.4558537540519376 #
face $-1 $921 $915 $19 $-1 $928 reversed single #
loop $-1 $-1 $894 $842 #
plane-surface $-1 0 -29.171752045648464 0 0 1 0 0 0 1 forward_v I I I I #
coedge $-1 $845 $903 $846 $893 forward $789 $-1 #
edge $-1 $858 -2.380776828416439 $897 0.61922317158356099 $855 $929 forward 7 unknown #
coedge $-1 $847 $846 $930 $931 reversed $719 $-1 #
edge $-1 $932 -68.129520554216128 $897 68.129520554216128 $890 $933 forward 7 unknown #
coedge $-1 $934 $935 $847 $895 forward $888 $-1 #
edge $-1 $898 -68.129520554216128 $936 68.129520554216128 $894 $937 forward 7 unknown #
coedge $-1 $938 $848 $935 $939 forward $843 $-1 #
vertex $-1 $849 $940 #
vertex $-1 $939 $941 #
straight-curve $-1 68.129520554216128 -12.68593168027536 0.26155365683287801 0 -1 0 I I #
edge $-1 $904 8.8860429951776148 $901 16.485820365373105 $874 $942 forward 7 unknown #
vertex $-1 $900 $943 #
straight-curve $-1 0 -29.171752045648464 3.261553656832878 1 0 0 I I #
coedge $-1 $890 $853 $923 $944 reversed $789 $-1 #
vertex $-1 $900 $945 #
straight-curve $-1 0 -21.571974675452974 3.261553656832878 -1 0 0 I I #
edge $-1 $872 -6.4558537540519376 $857 -3.261553656832878 $856 $946 forward 7 unknown #
point $-1 68.129520554216128 -29.171752045648464 3.261553656832878 #
point $-1 68.129520554216128 -21.571974675452974 3.261553656832878 #
coedge $-1 $860 $938 $862 $911 reversed $843 $-1 #
straight-curve $-1 68.129520554216128 0 6.4558537540519376 0 1 0 I I #
edge $-1 $863 -6.4558537540519376 $916 6.4558537540519376 $909 $947 forward 7 unknown #
point $-1 68.129520554216128 29.171752045648464 6.4558537540519376 #
coedge $-1 $948 $864 $938 $949 forward $915 $-1 #
coedge $-1 $864 $948 $866 $919 forward $915 $-1 #
loop $-1 $-1 $913 $887 #
vertex $-1 $949 $950 #
straight-curve $-1 0 29.171752045648464 -6.4558537540519376 1 0 0 I I #
coedge $-1 $930 $866 $934 $951 reversed $809 $-1 #
edge $-1 $952 -29.171752045648464 $867 29.171752045648464 $866 $953 forward 7 unknown #
point $-1 -68.129520554216128 29.171752045648464 -6.4558537540519376 #
face $-1 $876 $871 $19 $-1 $889 reversed single #
point $-1 68.129520554216128 -29.171752045648464 6.4558537540519376 #
coedge $-1 $874 $930 $903 $944 forward $809 $-1 #
straight-curve $-1 -68.129520554216128 -29.171752045648464 0 0 0 -1 I I #
plane-surface $-1 -68.129520554216128 0 0 1 0 0 0 0 -1 forward_v I I I I #
point $-1 68.129520554216128 -29.171752045648464 -6.4558537540519376 #
straight-curve $-1 0 -29.171752045648464 -6.4558537540519376 -1 0 0 I I #
plane-surface $-1 0 0 -6.4558537540519376 0 0 1 1 0 0 forward_v I I I I #
straight-curve $-1 68.129520554216128 -21.571974675452974 0.88077682841643901 0 0 -1 I I #
coedge $-1 $923 $918 $892 $931 forward $809 $-1 #
edge $-1 $936 -16.485820365373105 $932 -8.8860429951776148 $930 $954 forward 7 unknown #
vertex $-1 $931 $955 #
straight-curve $-1 0 -21.571974675452974 0.26155365683287801 1 0 0 I I #
coedge $-1 $956 $894 $918 $951 forward $888 $-1 #
coedge $-1 $894 $956 $896 $939 reversed $888 $-1 #
vertex $-1 $951 $957 #
straight-curve $-1 0 -29.171752045648464 0.26155365683287801 -1 0 0 I I #
coedge $-1 $909 $896 $913 $949 reversed $843 $-1 #
edge $-1 $898 -0.26155365683287801 $958 6.4558537540519376 $896 $946 forward 7 unknown #
point $-1 68.129520554216128 -21.571974675452974 0.26155365683287801 #
point $-1 68.129520554216128 -29.171752045648464 0.26155365683287801 #
straight-curve $-1 -68.129520554216128 -12.68593168027536 3.261553656832878 0 -1 0 I I #
point $-1 -68.129520554216128 -29.171752045648464 3.261553656832878 #
edge $-1 $932 -0.61922317158356099 $904 2.380776828416439 $923 $959 forward 7 unknown #
point $-1 -68.129520554216128 -21.571974675452974 3.261553656832878 #
straight-curve $-1 68.129520554216128 -29.171752045648464 0 0 0 -1 I I #
straight-curve $-1 68.129520554216128 29.171752045648464 0 0 0 -1 I I #
coedge $-1 $914 $913 $956 $960 forward $915 $-1 #
edge $-1 $916 -29.171752045648464 $958 29.171752045648464 $938 $961 forward 7 unknown #
point $-1 68.129520554216128 29.171752045648464 -6.4558537540519376 #
edge $-1 $936 -0.26155365683287801 $952 6.4558537540519376 $918 $924 forward 7 unknown #
vertex $-1 $919 $962 #
straight-curve $-1 -68.129520554216128 0 -6.4558537540519376 0 1 0 I I #
straight-curve $-1 -68.129520554216128 -12.68593168027536 0.26155365683287801 0 1 0 I I #
point $-1 -68.129520554216128 -21.571974675452974 0.26155365683287801 #
coedge $-1 $935 $934 $948 $960 reversed $888 $-1 #
point $-1 -68.129520554216128 -29.171752045648464 0.26155365683287801 #
vertex $-1 $939 $963 #
straight-curve $-1 -68.129520554216128 -21.571974675452974 0.88077682841643901 0 0 1 I I #
edge $-1 $958 -68.129520554216128 $952 68.129520554216128 $956 $964 forward 7 unknown #
straight-curve $-1 68.129520554216128 0 -6.4558537540519376 0 -1 0 I I #
point $-1 -68.129520554216128 -29.171752045648464 -6.4558537540519376 #
point $-1 68.129520554216128 -29.171752045648464 -6.4558537540519376 #
straight-curve $-1 0 -29.171752045648464 -6.4558537540519376 -1 0 0 I I #
End-of-ACIS-data 