500 0 10 0           
7 Unknown 11 ACIS 5.0 NT 24 Fri Mar 26 17:11:01 1999 
-1 9.9999999999999995e-007 1e-010 
body $-1 $10 $-1 $11 #
body $-1 $12 $-1 $13 #
body $-1 $14 $-1 $15 #
body $-1 $16 $-1 $17 #
body $-1 $18 $-1 $19 #
body $-1 $20 $-1 $21 #
body $-1 $22 $-1 $23 #
body $-1 $24 $-1 $25 #
body $-1 $26 $-1 $27 #
body $-1 $28 $-1 $29 #
lump $-1 $-1 $30 $0 #
transform $-1 1 0 0 0 1 0 0 0 1 58.811609241004675 36.62035415220015 18.043629803987898 1 rotate no_reflect no_shear #
lump $-1 $-1 $31 $1 #
transform $-1 1 0 0 0 1 0 0 0 1 58.811609241004675 36.62035415220015 18.043629803987898 1 rotate no_reflect no_shear #
lump $-1 $-1 $32 $2 #
transform $-1 1 0 0 0 1 0 0 0 1 58.811609241004675 36.62035415220015 18.043629803987898 1 rotate no_reflect no_shear #
lump $-1 $-1 $33 $3 #
transform $-1 1 0 0 0 1 0 0 0 1 58.811609241004675 36.62035415220015 18.043629803987898 1 rotate no_reflect no_shear #
lump $-1 $-1 $34 $4 #
transform $-1 1 0 0 0 1 0 0 0 1 58.811609241004675 36.62035415220015 18.043629803987898 1 rotate no_reflect no_shear #
lump $-1 $-1 $35 $5 #
transform $-1 1 0 0 0 1 0 0 0 1 58.811609241004675 36.62035415220015 18.043629803987898 1 rotate no_reflect no_shear #
lump $-1 $-1 $36 $6 #
transform $-1 1 0 0 0 1 0 0 0 1 58.811609241004675 36.62035415220015 18.043629803987898 1 rotate no_reflect no_shear #
lump $-1 $-1 $37 $7 #
transform $-1 1 0 0 0 1 0 0 0 1 58.811609241004675 36.62035415220015 18.043629803987898 1 rotate no_reflect no_shear #
lump $-1 $-1 $38 $8 #
transform $-1 1 0 0 0 1 0 0 0 1 58.811609241004675 36.62035415220015 18.043629803987898 1 rotate no_reflect no_shear #
lump $-1 $-1 $39 $9 #
transform $-1 1 0 0 0 1 0 0 0 1 58.811609241004675 36.62035415220015 18.043629803987898 1 rotate no_reflect no_shear #
shell $-1 $-1 $-1 $40 $-1 $10 #
shell $-1 $-1 $-1 $41 $-1 $12 #
shell $-1 $-1 $-1 $42 $-1 $14 #
shell $-1 $-1 $-1 $43 $-1 $16 #
shell $-1 $-1 $-1 $44 $-1 $18 #
shell $-1 $-1 $-1 $45 $-1 $20 #
shell $-1 $-1 $-1 $46 $-1 $22 #
shell $-1 $-1 $-1 $47 $-1 $24 #
shell $-1 $-1 $-1 $48 $-1 $26 #
shell $-1 $-1 $-1 $49 $-1 $28 #
face $-1 $50 $51 $30 $-1 $52 forward single #
face $-1 $53 $54 $31 $-1 $55 reversed single #
face $-1 $56 $57 $32 $-1 $58 reversed single #
face $-1 $59 $60 $33 $-1 $61 reversed single #
face $-1 $62 $63 $34 $-1 $64 forward single #
face $-1 $65 $66 $35 $-1 $67 forward single #
face $-1 $68 $69 $36 $-1 $70 forward single #
face $-1 $71 $72 $37 $-1 $73 reversed single #
face $-1 $74 $75 $38 $-1 $76 forward single #
face $-1 $77 $78 $39 $-1 $79 forward single #
face $-1 $80 $81 $30 $-1 $82 reversed single #
loop $-1 $-1 $83 $40 #
plane-surface $-1 0 0 18.043629803987898 0 0 1 1 0 0 forward_v I I I I #
face $-1 $84 $85 $31 $-1 $86 reversed single #
loop $-1 $-1 $87 $41 #
plane-surface $-1 -37.391959358259747 -25.083174545694277 0 1 0 0 0 0 -1 forward_v I I I I #
face $-1 $88 $89 $32 $-1 $90 reversed single #
loop $-1 $-1 $91 $42 #
plane-surface $-1 -33.249253850328557 13.545994939188404 0 0 1 0 0 0 1 forward_v I I I I #
face $-1 $92 $93 $33 $-1 $94 reversed single #
loop $-1 $-1 $95 $43 #
plane-surface $-1 101.86469776598094 -5.8440212581189162 172.20866681332623 0 -1 0 -0.86602541151947299 0 -0.49999998660252726 forward_v I I I I #
face $-1 $96 $97 $34 $-1 $98 forward single #
loop $-1 $99 $100 $44 #
cone-surface $-1 56.375568225891527 -12.005600202974506 14.466758558881342 -0.86602541151947299 0 -0.49999998660252726 0.24999999330126363 0 -0.43301270575973649 1 I I 0 1 0.5 forward I I I I #
face $-1 $101 $102 $35 $-1 $103 forward single #
loop $-1 $104 $105 $45 #
cone-surface $-1 56.375568225891527 -9.6950080986536591 14.466758558881342 -0.86602541151947299 0 -0.49999998660252726 0.24999999330126363 0 -0.43301270575973649 1 I I 0 1 0.5 forward I I I I #
face $-1 $106 $107 $36 $-1 $108 forward single #
loop $-1 $109 $110 $46 #
cone-surface $-1 56.375568225891527 -7.3844159943328123 14.466758558881342 -0.86602541151947299 0 -0.49999998660252726 0.24999999330126363 0 -0.43301270575973649 1 I I 0 1 0.5 forward I I I I #
face $-1 $111 $112 $37 $-1 $113 reversed single #
loop $-1 $-1 $114 $47 #
plane-surface $-1 -131.22769437232449 7.1416041225509588 95.621149634088709 0 1 0 -0.61566148304635926 0 0.78801074757464917 forward_v I I I I #
face $-1 $115 $116 $38 $-1 $117 forward single #
loop $-1 $118 $119 $48 #
cone-surface $-1 -48.672203065336753 8.9714300701616594 9.8880328460257711 0.61566148304635926 0 -0.78801074757464917 0.39400537378732459 0 0.30783074152317963 1 I I 0 1 0.5 forward I I I I #
face $-1 $120 $121 $39 $-1 $122 forward single #
loop $-1 $123 $124 $49 #
cone-surface $-1 -48.672203065336753 11.71616899157771 9.8880328460257711 0.61566148304635926 0 -0.78801074757464917 0.39400537378732459 0 0.30783074152317963 1 I I 0 1 0.5 forward I I I I #
face $-1 $125 $126 $30 $-1 $127 reversed single #
loop $-1 $-1 $128 $50 #
plane-surface $-1 0 0 -18.043629803987898 0 0 1 1 0 0 forward_v I I I I #
coedge $-1 $129 $130 $131 $132 forward $51 $-1 #
face $-1 $133 $134 $31 $-1 $135 reversed single #
loop $-1 $-1 $136 $53 #
plane-surface $-1 -33.249253850328557 -13.545994939188404 0 0 -1 0 0 0 -1 forward_v I I I I #
coedge $-1 $137 $138 $139 $140 forward $54 $-1 #
face $-1 $141 $142 $32 $-1 $143 reversed single #
loop $-1 $-1 $144 $56 #
plane-surface $-1 -37.391959358259747 25.083174545694277 0 1 0 0 0 0 -1 forward_v I I I I #
coedge $-1 $145 $146 $147 $148 forward $57 $-1 #
face $-1 $149 $150 $33 $-1 $151 reversed single #
loop $-1 $-1 $152 $59 #
plane-surface $-1 1.5758539007038053e-006 -9.6950080986536591 113.39705914817542 0.86602541151947299 0 0.49999998660252726 0.49999998660252726 0 -0.86602541151947299 forward_v I I I I #
coedge $-1 $153 $154 $155 $156 reversed $60 $-1 #
face $-1 $-1 $157 $34 $-1 $158 forward single #
loop $-1 $159 $160 $62 #
cone-surface $-1 55.602661623879669 -12.005600202974506 14.020520740093914 -0.86602541151947299 0 -0.49999998660252726 0.12499999665063181 0 -0.21650635287986825 1 I I -0.70710678118654746 0.70710678118654746 0.25 forward I I I I #
loop $-1 $-1 $161 $44 #
coedge $-1 $100 $100 $162 $163 reversed $63 $-1 #
face $-1 $-1 $164 $35 $-1 $165 forward single #
loop $-1 $166 $167 $65 #
cone-surface $-1 55.602661623879669 -9.6950080986536591 14.020520740093914 -0.86602541151947299 0 -0.49999998660252726 0.12499999665063181 0 -0.21650635287986825 1 I I -0.70710678118654746 0.70710678118654746 0.25 forward I I I I #
loop $-1 $-1 $168 $45 #
coedge $-1 $105 $105 $169 $170 reversed $66 $-1 #
face $-1 $-1 $171 $36 $-1 $172 forward single #
loop $-1 $173 $174 $68 #
cone-surface $-1 55.602661623879669 -7.3844159943328123 14.020520740093914 -0.86602541151947299 0 -0.49999998660252726 0.12499999665063181 0 -0.21650635287986825 1 I I -0.70710678118654746 0.70710678118654746 0.25 forward I I I I #
loop $-1 $-1 $175 $46 #
coedge $-1 $110 $110 $176 $177 reversed $69 $-1 #
face $-1 $178 $179 $37 $-1 $180 reversed single #
loop $-1 $-1 $181 $71 #
plane-surface $-1 -58.811609241004689 10.343799530869681 2.932789305944226 -0.61566148304635926 0 0.78801074757464917 0.78801074757464917 0 0.61566148304635926 forward_v I I I I #
coedge $-1 $182 $183 $184 $185 reversed $72 $-1 #
face $-1 $-1 $186 $38 $-1 $187 forward single #
loop $-1 $188 $189 $74 #
cone-surface $-1 -48.049378249046235 8.9714300701616594 9.0908534501918119 0.61566148304635926 0 -0.78801074757464917 0.19700268689366229 0 0.15391537076158981 1 I I -0.70710678118654746 0.70710678118654746 0.25 forward I I I I #
loop $-1 $-1 $190 $48 #
coedge $-1 $119 $119 $191 $192 reversed $75 $-1 #
face $-1 $-1 $193 $39 $-1 $194 forward single #
loop $-1 $195 $196 $77 #
cone-surface $-1 -48.049378249046235 11.71616899157771 9.0908534501918119 0.61566148304635926 0 -0.78801074757464917 0.19700268689366229 0 0.15391537076158981 1 I I -0.70710678118654746 0.70710678118654746 0.25 forward I I I I #
loop $-1 $-1 $197 $49 #
coedge $-1 $124 $124 $198 $199 reversed $78 $-1 #
face $-1 $200 $201 $30 $-1 $202 reversed single #
loop $-1 $-1 $203 $80 #
plane-surface $-1 0 -36.62035415220015 0 0 1 0 0 0 1 forward_v I I I I #
coedge $-1 $204 $205 $206 $207 forward $81 $-1 #
coedge $-1 $208 $83 $209 $210 forward $51 $-1 #
coedge $-1 $83 $208 $211 $212 forward $51 $-1 #
coedge $-1 $213 $214 $83 $132 reversed $215 $-1 #
edge $-1 $216 -36.62035415220015 $217 36.62035415220015 $131 $218 forward 7 unknown #
face $-1 $219 $220 $31 $-1 $221 forward single #
loop $-1 $-1 $222 $84 #
plane-surface $-1 -29.106548342397367 -25.083174545694277 0 -1 0 0 0 0 1 forward_v I I I I #
coedge $-1 $223 $224 $225 $226 forward $85 $-1 #
coedge $-1 $227 $87 $228 $229 reversed $54 $-1 #
coedge $-1 $87 $227 $230 $231 reversed $54 $-1 #
coedge $-1 $224 $223 $87 $140 reversed $85 $-1 #
edge $-1 $232 -18.043629803987898 $233 18.043629803987898 $139 $234 forward 7 unknown #
face $-1 $235 $236 $32 $-1 $237 reversed single #
loop $-1 $-1 $238 $88 #
plane-surface $-1 -29.106548342397367 25.083174545694277 0 -1 0 0 0 0 1 forward_v I I I I #
coedge $-1 $239 $240 $241 $242 reversed $89 $-1 #
coedge $-1 $243 $91 $244 $245 reversed $57 $-1 #
coedge $-1 $91 $243 $246 $247 reversed $57 $-1 #
coedge $-1 $240 $239 $91 $148 reversed $89 $-1 #
edge $-1 $248 -18.043629803987898 $249 18.043629803987898 $147 $250 forward 7 unknown #
face $-1 $251 $252 $33 $-1 $253 forward single #
loop $-1 $-1 $254 $92 #
plane-surface $-1 101.86469776598094 -13.545994939188402 172.20866681332623 0 1 0 0.86602541151947299 0 0.49999998660252726 forward_v I I I I #
coedge $-1 $255 $256 $257 $258 reversed $93 $-1 #
coedge $-1 $154 $95 $259 $260 reversed $60 $-1 #
coedge $-1 $95 $153 $255 $261 reversed $60 $-1 #
coedge $-1 $257 $262 $95 $156 forward $252 $-1 #
edge $-1 $263 -7.8792603580142071 $264 -4.1199788260519128 $155 $265 forward 7 unknown #
loop $-1 $-1 $162 $96 #
plane-surface $-1 1.5758539007038053e-006 -9.6950080986536591 113.39705914817542 0.86602541151947299 0 0.49999998660252726 0.49999998660252726 0 -0.86602541151947299 forward_v I I I I #
loop $-1 $-1 $266 $62 #
coedge $-1 $160 $160 $161 $267 reversed $97 $-1 #
coedge $-1 $161 $161 $160 $267 forward $99 $-1 #
coedge $-1 $162 $162 $100 $163 forward $157 $-1 #
edge $-1 $268 0 $268 6.2831853071796004 $162 $269 forward 7 unknown #
loop $-1 $-1 $169 $101 #
plane-surface $-1 1.5758539007038053e-006 -9.6950080986536591 113.39705914817542 0.86602541151947299 0 0.49999998660252726 0.49999998660252726 0 -0.86602541151947299 forward_v I I I I #
loop $-1 $-1 $270 $65 #
coedge $-1 $167 $167 $168 $271 reversed $102 $-1 #
coedge $-1 $168 $168 $167 $271 forward $104 $-1 #
coedge $-1 $169 $169 $105 $170 forward $164 $-1 #
edge $-1 $272 0 $272 6.2831853071796004 $169 $273 forward 7 unknown #
loop $-1 $-1 $176 $106 #
plane-surface $-1 1.5758539007038053e-006 -9.6950080986536591 113.39705914817542 0.86602541151947299 0 0.49999998660252726 0.49999998660252726 0 -0.86602541151947299 forward_v I I I I #
loop $-1 $-1 $274 $68 #
coedge $-1 $174 $174 $175 $275 reversed $107 $-1 #
coedge $-1 $175 $175 $174 $275 forward $109 $-1 #
coedge $-1 $176 $176 $110 $177 forward $171 $-1 #
edge $-1 $276 0 $276 6.2831853071796004 $176 $277 forward 7 unknown #
face $-1 $278 $279 $37 $-1 $280 reversed single #
loop $-1 $-1 $281 $111 #
plane-surface $-1 -131.22769437232449 13.545994939188404 95.621149634088709 0 -1 0 0.61566148304635926 0 -0.78801074757464917 forward_v I I I I #
coedge $-1 $282 $283 $284 $285 reversed $112 $-1 #
coedge $-1 $183 $114 $286 $287 reversed $72 $-1 #
coedge $-1 $114 $182 $282 $288 reversed $72 $-1 #
coedge $-1 $284 $289 $114 $185 forward $290 $-1 #
edge $-1 $291 6.8022379451575716 $292 26.143231405435543 $184 $293 forward 7 unknown #
loop $-1 $-1 $191 $115 #
plane-surface $-1 -58.811609241004689 10.343799530869681 2.932789305944226 -0.61566148304635926 0 0.78801074757464917 0.78801074757464917 0 0.61566148304635926 forward_v I I I I #
loop $-1 $-1 $294 $74 #
coedge $-1 $189 $189 $190 $295 reversed $116 $-1 #
coedge $-1 $190 $190 $189 $295 forward $118 $-1 #
coedge $-1 $191 $191 $119 $192 forward $186 $-1 #
edge $-1 $296 0 $296 6.2831853071796004 $191 $297 forward 7 unknown #
loop $-1 $-1 $198 $120 #
plane-surface $-1 -58.811609241004689 10.343799530869681 2.932789305944226 -0.61566148304635926 0 0.78801074757464917 0.78801074757464917 0 0.61566148304635926 forward_v I I I I #
loop $-1 $-1 $298 $77 #
coedge $-1 $196 $196 $197 $299 reversed $121 $-1 #
coedge $-1 $197 $197 $196 $299 forward $123 $-1 #
coedge $-1 $198 $198 $124 $199 forward $193 $-1 #
edge $-1 $300 0 $300 6.2831853071796004 $198 $301 forward 7 unknown #
face $-1 $302 $303 $30 $-1 $304 reversed single #
loop $-1 $-1 $305 $125 #
plane-surface $-1 -58.811609241004675 0 0 1 0 0 0 0 -1 forward_v I I I I #
coedge $-1 $306 $211 $307 $308 forward $126 $-1 #
coedge $-1 $309 $128 $306 $310 forward $81 $-1 #
coedge $-1 $128 $309 $311 $312 forward $81 $-1 #
coedge $-1 $214 $213 $128 $207 reversed $215 $-1 #
edge $-1 $313 -36.62035415220015 $314 36.62035415220015 $206 $315 forward 7 unknown #
coedge $-1 $130 $129 $316 $317 forward $51 $-1 #
coedge $-1 $318 $319 $129 $210 reversed $303 $-1 #
edge $-1 $217 -58.811609241004675 $320 58.811609241004675 $209 $321 forward 7 unknown #
coedge $-1 $203 $322 $130 $212 reversed $126 $-1 #
edge $-1 $323 -58.811609241004675 $216 58.811609241004675 $211 $324 forward 7 unknown #
coedge $-1 $206 $131 $322 $325 forward $215 $-1 #
coedge $-1 $131 $206 $318 $326 reversed $215 $-1 #
loop $-1 $-1 $213 $302 #
vertex $-1 $132 $327 #
vertex $-1 $132 $328 #
straight-curve $-1 58.811609241004675 0 18.043629803987898 0 1 0 I I #
face $-1 $329 $330 $31 $-1 $331 reversed single #
loop $-1 $-1 $332 $133 #
plane-surface $-1 0 0 18.043629803987898 0 0 1 1 0 0 forward_v I I I I #
coedge $-1 $333 $334 $335 $336 reversed $134 $-1 #
coedge $-1 $139 $136 $337 $338 reversed $85 $-1 #
coedge $-1 $136 $139 $339 $340 reversed $85 $-1 #
coedge $-1 $334 $333 $136 $226 reversed $134 $-1 #
edge $-1 $341 -18.043629803987898 $342 18.043629803987898 $225 $343 forward 7 unknown #
coedge $-1 $138 $137 $344 $345 reversed $54 $-1 #
coedge $-1 $337 $346 $137 $229 forward $330 $-1 #
edge $-1 $347 -24.078766879353012 $233 -1.0044076663412653 $228 $348 forward 7 unknown #
coedge $-1 $349 $339 $138 $231 forward $220 $-1 #
edge $-1 $232 1.0044076663412653 $350 24.078766879353012 $230 $351 forward 7 unknown #
vertex $-1 $231 $352 #
vertex $-1 $229 $353 #
straight-curve $-1 -37.391959358259747 -13.545994939188404 0 0 0 -1 I I #
face $-1 $354 $355 $32 $-1 $356 forward single #
loop $-1 $-1 $357 $141 #
plane-surface $-1 0 0 -18.043629803987898 0 0 1 1 0 0 forward_v I I I I #
coedge $-1 $358 $359 $243 $360 forward $142 $-1 #
coedge $-1 $147 $144 $361 $362 reversed $89 $-1 #
coedge $-1 $144 $147 $363 $364 reversed $89 $-1 #
coedge $-1 $365 $366 $144 $242 forward $367 $-1 #
edge $-1 $368 -18.043629803987898 $369 18.043629803987898 $241 $370 forward 7 unknown #
coedge $-1 $146 $145 $238 $360 reversed $57 $-1 #
coedge $-1 $361 $357 $145 $245 forward $236 $-1 #
edge $-1 $371 12.481921417233089 $249 20.767332433095469 $244 $372 forward 7 unknown #
coedge $-1 $373 $363 $146 $247 forward $355 $-1 #
edge $-1 $248 -20.767332433095469 $374 -12.481921417233089 $246 $375 forward 7 unknown #
vertex $-1 $247 $376 #
vertex $-1 $245 $377 #
straight-curve $-1 -37.391959358259747 13.545994939188404 0 0 0 -1 I I #
face $-1 $-1 $378 $33 $-1 $379 reversed single #
loop $-1 $-1 $155 $149 #
plane-surface $-1 0 0 18.043629803987898 0 0 1 1 0 0 forward_v I I I I #
coedge $-1 $380 $381 $382 $383 reversed $150 $-1 #
coedge $-1 $384 $152 $154 $261 forward $93 $-1 #
coedge $-1 $152 $384 $380 $385 forward $93 $-1 #
coedge $-1 $382 $155 $152 $258 forward $252 $-1 #
edge $-1 $264 0.99651720879208661 $386 8.6984908898615725 $257 $387 forward 7 unknown #
coedge $-1 $388 $389 $153 $260 forward $378 $-1 #
edge $-1 $390 -74.571970448614664 $263 -68.060703602675218 $259 $391 forward 7 unknown #
edge $-1 $264 110.10465521662519 $390 117.62321848200928 $154 $392 forward 7 unknown #
coedge $-1 $155 $382 $388 $393 forward $252 $-1 #
vertex $-1 $156 $394 #
vertex $-1 $156 $395 #
straight-curve $-1 50.932348882990468 -5.8440212581189162 18.043629803987898 -1 0 0 I I #
coedge $-1 $266 $266 $-1 $396 reversed $159 $-1 #
edge $-1 $397 0 $397 6.2831853071796004 $160 $398 forward 7 unknown #
vertex $-1 $163 $399 #
ellipse-curve $-1 56.931968475023538 -12.005600202974506 14.78799638101815 0.86602541151947299 0 0.49999998660252726 0.24999999330126363 0 -0.43301270575973649 1 I I #
coedge $-1 $270 $270 $-1 $400 reversed $166 $-1 #
edge $-1 $401 0 $401 6.2831853071796004 $167 $402 forward 7 unknown #
vertex $-1 $170 $403 #
ellipse-curve $-1 56.931968475023538 -9.6950080986536591 14.78799638101815 0.86602541151947299 0 0.49999998660252726 0.24999999330126363 0 -0.43301270575973649 1 I I #
coedge $-1 $274 $274 $-1 $404 reversed $173 $-1 #
edge $-1 $405 0 $405 6.2831853071796004 $174 $406 forward 7 unknown #
vertex $-1 $177 $407 #
ellipse-curve $-1 56.931968475023538 -7.3844159943328123 14.78799638101815 0.86602541151947299 0 0.49999998660252726 0.24999999330126363 0 -0.43301270575973649 1 I I #
face $-1 $-1 $290 $37 $-1 $408 forward single #
loop $-1 $-1 $409 $178 #
plane-surface $-1 -58.811609241004675 0 0 1 0 0 0 0 -1 forward_v I I I I #
coedge $-1 $410 $411 $412 $413 reversed $179 $-1 #
coedge $-1 $414 $181 $183 $288 forward $112 $-1 #
coedge $-1 $181 $414 $410 $415 forward $112 $-1 #
coedge $-1 $412 $184 $181 $285 forward $290 $-1 #
edge $-1 $292 1.9697043571161181 $416 8.3740951737535632 $284 $417 forward 7 unknown #
coedge $-1 $418 $419 $182 $287 forward $279 $-1 #
edge $-1 $420 -44.877785511100114 $291 -29.766945013056457 $286 $421 forward 7 unknown #
edge $-1 $292 -24.544073186572611 $420 -1.8033521786330445e-014 $183 $422 forward 7 unknown #
coedge $-1 $184 $412 $418 $423 forward $290 $-1 #
loop $-1 $-1 $412 $278 #
vertex $-1 $287 $424 #
vertex $-1 $185 $425 #
straight-curve $-1 -65.613847186162246 7.1416041225509588 18.043629803987898 1 0 0 I I #
coedge $-1 $294 $294 $-1 $426 reversed $188 $-1 #
edge $-1 $427 0 $427 6.2831853071796004 $189 $428 forward 7 unknown #
vertex $-1 $192 $429 #
ellipse-curve $-1 -49.141112510865689 8.9714300701616594 10.488209554966073 -0.61566148304635926 0 0.78801074757464917 0.39400537378732459 0 0.30783074152317963 1 I I #
coedge $-1 $298 $298 $-1 $430 reversed $195 $-1 #
edge $-1 $431 0 $431 6.2831853071796004 $196 $432 forward 7 unknown #
vertex $-1 $199 $433 #
ellipse-curve $-1 -49.141112510865689 11.71616899157771 10.488209554966073 -0.61566148304635926 0 0.78801074757464917 0.39400537378732459 0 0.30783074152317963 1 I I #
face $-1 $-1 $215 $30 $-1 $434 reversed single #
loop $-1 $-1 $318 $200 #
plane-surface $-1 0 36.62035415220015 0 0 -1 0 0 0 -1 forward_v I I I I #
coedge $-1 $435 $316 $319 $436 forward $201 $-1 #
coedge $-1 $322 $203 $204 $310 reversed $126 $-1 #
coedge $-1 $316 $435 $203 $308 reversed $201 $-1 #
edge $-1 $323 -18.043629803987898 $437 18.043629803987898 $307 $438 forward 7 unknown #
coedge $-1 $205 $204 $435 $439 forward $81 $-1 #
edge $-1 $314 -58.811609241004675 $437 58.811609241004675 $306 $440 forward 7 unknown #
coedge $-1 $319 $318 $205 $312 reversed $303 $-1 #
edge $-1 $441 -58.811609241004675 $313 58.811609241004675 $311 $442 forward 7 unknown #
vertex $-1 $207 $443 #
vertex $-1 $325 $444 #
straight-curve $-1 58.811609241004675 0 -18.043629803987898 0 -1 0 I I #
coedge $-1 $305 $307 $208 $317 reversed $201 $-1 #
edge $-1 $320 -36.62035415220015 $323 36.62035415220015 $316 $445 forward 7 unknown #
coedge $-1 $311 $209 $214 $326 forward $303 $-1 #
coedge $-1 $209 $311 $305 $436 reversed $303 $-1 #
vertex $-1 $210 $446 #
straight-curve $-1 0 36.62035415220015 18.043629803987898 -1 0 0 I I #
coedge $-1 $211 $306 $213 $325 reversed $126 $-1 #
vertex $-1 $317 $447 #
straight-curve $-1 0 -36.62035415220015 18.043629803987898 1 0 0 I I #
edge $-1 $216 -18.043629803987898 $314 18.043629803987898 $213 $448 forward 7 unknown #
edge $-1 $217 -18.043629803987898 $313 18.043629803987898 $214 $449 forward 7 unknown #
point $-1 58.811609241004675 -36.62035415220015 18.043629803987898 #
point $-1 58.811609241004675 36.62035415220015 18.043629803987898 #
face $-1 $-1 $450 $31 $-1 $451 reversed single #
loop $-1 $-1 $452 $219 #
plane-surface $-1 0 0 -18.043629803987898 0 0 1 1 0 0 forward_v I I I I #
coedge $-1 $339 $349 $334 $453 forward $220 $-1 #
coedge $-1 $225 $222 $452 $454 reversed $134 $-1 #
coedge $-1 $222 $225 $332 $453 reversed $134 $-1 #
coedge $-1 $455 $456 $222 $336 forward $450 $-1 #
edge $-1 $457 -18.043629803987898 $458 18.043629803987898 $335 $459 forward 7 unknown #
coedge $-1 $452 $228 $223 $338 forward $330 $-1 #
edge $-1 $233 -20.767332433095469 $342 -12.481921417233089 $337 $460 forward 7 unknown #
coedge $-1 $230 $332 $224 $340 forward $220 $-1 #
edge $-1 $341 12.481921417233089 $232 20.767332433095469 $339 $461 forward 7 unknown #
vertex $-1 $340 $462 #
vertex $-1 $338 $463 #
straight-curve $-1 -29.106548342397367 -13.545994939188404 0 0 0 -1 I I #
coedge $-1 $456 $455 $227 $345 forward $450 $-1 #
edge $-1 $350 -18.043629803987898 $347 18.043629803987898 $344 $464 forward 7 unknown #
coedge $-1 $228 $452 $456 $465 forward $330 $-1 #
vertex $-1 $229 $466 #
straight-curve $-1 -37.391959358259747 -12.541587272847138 -18.043629803987898 0 1 0 I I #
coedge $-1 $332 $230 $455 $467 forward $220 $-1 #
vertex $-1 $467 $468 #
straight-curve $-1 -37.391959358259747 -12.541587272847138 18.043629803987898 0 -1 0 I I #
point $-1 -37.391959358259747 -13.545994939188404 18.043629803987898 #
point $-1 -37.391959358259747 -13.545994939188404 -18.043629803987898 #
face $-1 $-1 $367 $32 $-1 $469 reversed single #
loop $-1 $-1 $373 $235 #
plane-surface $-1 0 0 18.043629803987898 0 0 1 1 0 0 forward_v I I I I #
coedge $-1 $244 $470 $358 $471 forward $236 $-1 #
coedge $-1 $472 $238 $357 $471 reversed $142 $-1 #
coedge $-1 $238 $472 $373 $473 reversed $142 $-1 #
edge $-1 $374 -18.043629803987898 $371 18.043629803987898 $238 $474 forward 7 unknown #
coedge $-1 $470 $244 $239 $362 forward $236 $-1 #
edge $-1 $249 1.0044076663412653 $368 24.078766879353012 $361 $475 forward 7 unknown #
coedge $-1 $246 $476 $240 $364 forward $355 $-1 #
edge $-1 $369 -24.078766879353012 $248 -1.0044076663412653 $363 $477 forward 7 unknown #
coedge $-1 $478 $241 $476 $479 reversed $367 $-1 #
coedge $-1 $241 $478 $470 $480 reversed $367 $-1 #
loop $-1 $-1 $478 $354 #
vertex $-1 $480 $481 #
vertex $-1 $242 $482 #
straight-curve $-1 -37.391959358259747 36.62035415220015 0 0 0 1 I I #
vertex $-1 $245 $483 #
straight-curve $-1 -16.624626925164279 13.545994939188404 -18.043629803987898 -1 0 0 I I #
coedge $-1 $476 $246 $359 $473 forward $355 $-1 #
vertex $-1 $247 $484 #
straight-curve $-1 -16.624626925164279 13.545994939188404 18.043629803987898 1 0 0 I I #
point $-1 -37.391959358259747 13.545994939188404 18.043629803987898 #
point $-1 -37.391959358259747 13.545994939188404 -18.043629803987898 #
loop $-1 $-1 $259 $251 #
plane-surface $-1 58.811609241004675 0 0 -1 0 0 0 0 1 forward_v I I I I #
coedge $-1 $381 $254 $256 $385 reversed $150 $-1 #
coedge $-1 $254 $380 $485 $486 reversed $150 $-1 #
coedge $-1 $262 $257 $254 $383 forward $252 $-1 #
edge $-1 $386 4.1199788260519128 $487 7.8792603580142071 $382 $488 forward 7 unknown #
coedge $-1 $256 $255 $389 $489 reversed $93 $-1 #
edge $-1 $490 -117.62321848200928 $386 -110.10465521662519 $380 $491 forward 7 unknown #
vertex $-1 $258 $492 #
straight-curve $-1 55.052327709042373 -4.8475040493268295 18.043629803987898 0 -1 0 I I #
coedge $-1 $485 $259 $262 $393 reversed $378 $-1 #
coedge $-1 $259 $485 $384 $489 forward $378 $-1 #
vertex $-1 $260 $493 #
straight-curve $-1 58.811609241004675 -5.8440212581189162 86.104333406663116 0 0 1 I I #
straight-curve $-1 1.5758539007038053e-006 -5.8440212581189162 113.39705914817542 0.49999998660252726 0 -0.86602541151947299 I I #
edge $-1 $487 -13.545994939188402 $263 -5.8440212581189162 $388 $494 forward 7 unknown #
point $-1 58.811609241004675 -5.8440212581189162 18.043629803987898 #
point $-1 55.05232770904238 -5.8440212581189162 18.043629803987898 #
edge $-1 $495 1 $495 0 $266 $-1 forward 7 unknown #
vertex $-1 $267 $496 #
ellipse-curve $-1 55.819167976759537 -12.005600202974506 14.145520736744546 0.86602541151947299 0 0.49999998660252726 0.24999999330126363 0 -0.43301270575973649 1 I I #
point $-1 57.181968468324783 -12.005600202974506 14.354983675258403 #
edge $-1 $497 1 $497 0 $270 $-1 forward 7 unknown #
vertex $-1 $271 $498 #
ellipse-curve $-1 55.819167976759537 -9.6950080986536591 14.145520736744546 0.86602541151947299 0 0.49999998660252726 0.24999999330126363 0 -0.43301270575973649 1 I I #
point $-1 57.181968468324783 -9.6950080986536591 14.354983675258403 #
edge $-1 $499 1 $499 0 $274 $-1 forward 7 unknown #
vertex $-1 $275 $500 #
ellipse-curve $-1 55.819167976759537 -7.3844159943328123 14.145520736744546 0.86602541151947299 0 0.49999998660252726 0.24999999330126363 0 -0.43301270575973649 1 I I #
point $-1 57.181968468324783 -7.3844159943328123 14.354983675258403 #
plane-surface $-1 0 0 18.043629803987898 0 0 1 1 0 0 forward_v I I I I #
coedge $-1 $419 $418 $411 $501 forward $279 $-1 #
coedge $-1 $411 $281 $283 $415 reversed $179 $-1 #
coedge $-1 $281 $410 $409 $501 reversed $179 $-1 #
coedge $-1 $289 $284 $281 $413 forward $290 $-1 #
edge $-1 $416 -26.143231405435543 $502 -6.8022379451575716 $412 $503 forward 7 unknown #
coedge $-1 $283 $282 $419 $504 reversed $112 $-1 #
edge $-1 $505 1.8033521786330445e-014 $416 24.544073186572611 $410 $506 forward 7 unknown #
vertex $-1 $285 $507 #
straight-curve $-1 -39.47061578072671 5.1718997654348406 18.043629803987898 0 1 0 I I #
coedge $-1 $409 $286 $289 $423 reversed $279 $-1 #
coedge $-1 $286 $409 $414 $504 forward $279 $-1 #
vertex $-1 $287 $508 #
straight-curve $-1 -58.811609241004675 7.1416041225509588 47.810574817044355 0 0 1 I I #
straight-curve $-1 -58.811609241004689 7.1416041225509588 2.932789305944226 -0.78801074757464917 0 -0.61566148304635926 I I #
edge $-1 $502 -13.545994939188404 $291 -7.1416041225509588 $418 $509 forward 7 unknown #
point $-1 -58.811609241004675 7.1416041225509588 18.043629803987898 #
point $-1 -39.470615780726703 7.1416041225509588 18.043629803987898 #
edge $-1 $510 1 $510 0 $294 $-1 forward 7 unknown #
vertex $-1 $295 $511 #
ellipse-curve $-1 -48.203293619807823 8.9714300701616594 9.2878561370854733 -0.61566148304635926 0 0.78801074757464917 0.39400537378732459 0 0.30783074152317963 1 I I #
point $-1 -48.747107137078359 8.9714300701616594 10.796040296489249 #
edge $-1 $512 1 $512 0 $298 $-1 forward 7 unknown #
vertex $-1 $299 $513 #
ellipse-curve $-1 -48.203293619807823 11.71616899157771 9.2878561370854733 -0.61566148304635926 0 0.78801074757464917 0.39400537378732459 0 0.30783074152317963 1 I I #
point $-1 -48.747107137078359 11.71616899157771 10.796040296489249 #
plane-surface $-1 58.811609241004675 0 0 -1 0 0 0 0 1 forward_v I I I I #
coedge $-1 $307 $305 $309 $439 reversed $201 $-1 #
edge $-1 $320 -18.043629803987898 $441 18.043629803987898 $319 $514 forward 7 unknown #
vertex $-1 $439 $515 #
straight-curve $-1 -58.811609241004675 -36.62035415220015 0 0 0 -1 I I #
edge $-1 $437 -36.62035415220015 $441 36.62035415220015 $435 $516 forward 7 unknown #
straight-curve $-1 0 -36.62035415220015 -18.043629803987898 -1 0 0 I I #
vertex $-1 $312 $517 #
straight-curve $-1 0 36.62035415220015 -18.043629803987898 1 0 0 I I #
point $-1 58.811609241004675 36.62035415220015 -18.043629803987898 #
point $-1 58.811609241004675 -36.62035415220015 -18.043629803987898 #
straight-curve $-1 -58.811609241004675 0 18.043629803987898 0 -1 0 I I #
point $-1 -58.811609241004675 36.62035415220015 18.043629803987898 #
point $-1 -58.811609241004675 -36.62035415220015 18.043629803987898 #
straight-curve $-1 58.811609241004675 -36.62035415220015 0 0 0 -1 I I #
straight-curve $-1 58.811609241004675 36.62035415220015 0 0 0 -1 I I #
loop $-1 $-1 $335 $329 #
plane-surface $-1 0 -36.62035415220015 0 0 1 0 0 0 1 forward_v I I I I #
coedge $-1 $346 $337 $333 $454 forward $330 $-1 #
edge $-1 $458 -24.078766879353012 $341 -1.0044076663412653 $332 $518 forward 7 unknown #
edge $-1 $342 1.0044076663412653 $457 24.078766879353012 $452 $519 forward 7 unknown #
coedge $-1 $344 $335 $349 $467 reversed $450 $-1 #
coedge $-1 $335 $344 $346 $465 reversed $450 $-1 #
vertex $-1 $465 $520 #
vertex $-1 $336 $521 #
straight-curve $-1 -29.106548342397367 -36.62035415220015 0 0 0 1 I I #
straight-curve $-1 -16.624626925164279 -13.545994939188404 -18.043629803987898 1 0 0 I I #
straight-curve $-1 -16.624626925164279 -13.545994939188404 18.043629803987898 -1 0 0 I I #
point $-1 -29.106548342397367 -13.545994939188404 18.043629803987898 #
point $-1 -29.106548342397367 -13.545994939188404 -18.043629803987898 #
straight-curve $-1 -37.391959358259747 -36.62035415220015 0 0 0 -1 I I #
edge $-1 $457 29.106548342397367 $347 37.391959358259747 $456 $522 forward 7 unknown #
point $-1 -37.391959358259747 -36.62035415220015 -18.043629803987898 #
edge $-1 $350 -37.391959358259747 $458 -29.106548342397367 $455 $523 forward 7 unknown #
point $-1 -37.391959358259747 -36.62035415220015 18.043629803987898 #
plane-surface $-1 0 36.62035415220015 0 0 -1 0 0 0 -1 forward_v I I I I #
coedge $-1 $357 $361 $366 $480 forward $236 $-1 #
edge $-1 $524 -24.078766879353012 $371 -1.0044076663412653 $357 $525 forward 7 unknown #
coedge $-1 $359 $358 $478 $526 reversed $142 $-1 #
edge $-1 $374 1.0044076663412653 $527 24.078766879353012 $373 $528 forward 7 unknown #
straight-curve $-1 -29.106548342397367 13.545994939188404 0 0 0 -1 I I #
straight-curve $-1 -37.391959358259747 12.541587272847138 -18.043629803987898 0 1 0 I I #
coedge $-1 $363 $373 $365 $479 forward $355 $-1 #
straight-curve $-1 -37.391959358259747 12.541587272847138 18.043629803987898 0 -1 0 I I #
coedge $-1 $366 $365 $472 $526 forward $367 $-1 #
edge $-1 $527 29.106548342397367 $369 37.391959358259747 $365 $529 forward 7 unknown #
edge $-1 $368 -37.391959358259747 $524 -29.106548342397367 $366 $530 forward 7 unknown #
point $-1 -37.391959358259747 36.62035415220015 -18.043629803987898 #
point $-1 -37.391959358259747 36.62035415220015 18.043629803987898 #
point $-1 -29.106548342397367 13.545994939188404 -18.043629803987898 #
point $-1 -29.106548342397367 13.545994939188404 18.043629803987898 #
coedge $-1 $389 $388 $381 $486 forward $378 $-1 #
edge $-1 $487 68.060703602675218 $490 74.571970448614664 $485 $531 forward 7 unknown #
vertex $-1 $393 $532 #
straight-curve $-1 50.932348882990468 -13.545994939188402 18.043629803987898 1 0 0 I I #
edge $-1 $490 -8.6984908898615725 $390 -0.99651720879208661 $389 $533 forward 7 unknown #
vertex $-1 $489 $534 #
straight-curve $-1 1.5758539007038053e-006 -13.545994939188402 113.39705914817542 -0.49999998660252726 0 0.86602541151947299 I I #
point $-1 55.05232770904238 -13.545994939188402 18.043629803987898 #
point $-1 58.811609241004675 -5.8440212581189162 11.532362958048452 #
straight-curve $-1 58.811609241004675 0 18.043629803987898 0 1 0 I I #
vertex $-1 $396 $535 #
point $-1 56.069167970060803 -12.005600202974506 13.712508030984809 #
vertex $-1 $400 $536 #
point $-1 56.069167970060803 -9.6950080986536591 13.712508030984809 #
vertex $-1 $404 $537 #
point $-1 56.069167970060803 -7.3844159943328123 13.712508030984809 #
edge $-1 $502 29.766945013056457 $505 44.877785511100114 $409 $538 forward 7 unknown #
vertex $-1 $423 $539 #
straight-curve $-1 -65.613847186162246 13.545994939188404 18.043629803987898 -1 0 0 I I #
edge $-1 $505 -8.3740951737535632 $420 -1.9697043571161181 $419 $540 forward 7 unknown #
vertex $-1 $504 $541 #
straight-curve $-1 -58.811609241004689 13.545994939188404 2.932789305944226 0.78801074757464917 0 0.61566148304635926 I I #
point $-1 -39.470615780726703 13.545994939188404 18.043629803987898 #
point $-1 -58.811609241004675 7.1416041225509588 2.9327893059442371 #
straight-curve $-1 -58.811609241004675 0 18.043629803987898 0 -1 0 I I #
vertex $-1 $426 $542 #
point $-1 -47.8092882460205 8.9714300701616594 9.5956868786086531 #
vertex $-1 $430 $543 #
point $-1 -47.8092882460205 11.71616899157771 9.5956868786086531 #
straight-curve $-1 -58.811609241004675 36.62035415220015 0 0 0 -1 I I #
point $-1 -58.811609241004675 -36.62035415220015 -18.043629803987898 #
straight-curve $-1 -58.811609241004675 0 -18.043629803987898 0 1 0 I I #
point $-1 -58.811609241004675 36.62035415220015 -18.043629803987898 #
straight-curve $-1 -29.106548342397367 -12.541587272847138 18.043629803987898 0 1 0 I I #
straight-curve $-1 -29.106548342397367 -12.541587272847138 -18.043629803987898 0 -1 0 I I #
point $-1 -29.106548342397367 -36.62035415220015 -18.043629803987898 #
point $-1 -29.106548342397367 -36.62035415220015 18.043629803987898 #
straight-curve $-1 0 -36.62035415220015 -18.043629803987898 -1 0 0 I I #
straight-curve $-1 0 -36.62035415220015 18.043629803987898 1 0 0 I I #
vertex $-1 $526 $544 #
straight-curve $-1 -29.106548342397367 12.541587272847138 -18.043629803987898 0 -1 0 I I #
edge $-1 $527 -18.043629803987898 $524 18.043629803987898 $478 $545 forward 7 unknown #
vertex $-1 $479 $546 #
straight-curve $-1 -29.106548342397367 12.541587272847138 18.043629803987898 0 1 0 I I #
straight-curve $-1 0 36.62035415220015 18.043629803987898 -1 0 0 I I #
straight-curve $-1 0 36.62035415220015 -18.043629803987898 1 0 0 I I #
straight-curve $-1 58.811609241004675 -13.545994939188402 86.104333406663116 0 0 -1 I I #
point $-1 58.811609241004675 -13.545994939188402 18.043629803987898 #
straight-curve $-1 58.811609241004675 -4.8475040493268295 11.532362958048445 0 1 0 I I #
point $-1 58.811609241004675 -13.545994939188402 11.532362958048452 #
point $-1 55.386155270999801 -12.005600202974506 13.895520743443283 #
point $-1 55.386155270999801 -9.6950080986536591 13.895520743443283 #
point $-1 55.386155270999801 -7.3844159943328123 13.895520743443283 #
straight-curve $-1 -58.811609241004675 13.545994939188404 47.810574817044355 0 0 -1 I I #
point $-1 -58.811609241004675 13.545994939188404 18.043629803987898 #
straight-curve $-1 -58.811609241004675 5.1718997654348406 2.9327893059442385 0 -1 0 I I #
point $-1 -58.811609241004675 13.545994939188404 2.9327893059442371 #
point $-1 -47.895462878284647 8.9714300701616594 8.8938507632981505 #
point $-1 -47.895462878284647 11.71616899157771 8.8938507632981505 #
point $-1 -29.106548342397367 36.62035415220015 -18.043629803987898 #
straight-curve $-1 -29.106548342397367 36.62035415220015 0 0 0 -1 I I #
point $-1 -29.106548342397367 36.62035415220015 18.043629803987898 #
End-of-ACIS-data 