500 0 5 0           
7 Unknown 11 ACIS 5.0 NT 24 Fri Mar 26 15:27:04 1999 
-1 9.9999999999999995e-007 1e-010 
body $-1 $5 $-1 $6 #
body $-1 $7 $-1 $8 #
body $-1 $9 $-1 $10 #
body $-1 $11 $-1 $12 #
body $-1 $13 $-1 $14 #
lump $-1 $-1 $15 $0 #
transform $-1 1 0 0 0 1 0 0 0 1 48.265633106479079 25.07656456591452 11.050540301203123 1 rotate no_reflect no_shear #
lump $-1 $-1 $16 $1 #
transform $-1 1 0 0 0 1 0 0 0 1 48.265633106479079 25.07656456591452 11.050540301203123 1 rotate no_reflect no_shear #
lump $-1 $-1 $17 $2 #
transform $-1 1 0 0 0 1 0 0 0 1 48.265633106479079 25.07656456591452 11.050540301203123 1 rotate no_reflect no_shear #
lump $-1 $-1 $18 $3 #
transform $-1 1 0 0 0 1 0 0 0 1 48.265633106479079 25.07656456591452 11.050540301203123 1 rotate no_reflect no_shear #
lump $-1 $-1 $19 $4 #
transform $-1 1 0 0 0 1 0 0 0 1 48.265633106479079 25.07656456591452 11.050540301203123 1 rotate no_reflect no_shear #
shell $-1 $-1 $-1 $20 $-1 $5 #
shell $-1 $-1 $-1 $21 $-1 $7 #
shell $-1 $-1 $-1 $22 $-1 $9 #
shell $-1 $-1 $-1 $23 $-1 $11 #
shell $-1 $-1 $-1 $24 $-1 $13 #
face $-1 $25 $26 $15 $-1 $27 forward single #
face $-1 $28 $29 $16 $-1 $30 forward single #
face $-1 $31 $32 $17 $-1 $33 reversed single #
face $-1 $34 $35 $18 $-1 $36 forward single #
face $-1 $37 $38 $19 $-1 $39 forward single #
face $-1 $40 $41 $15 $-1 $42 reversed single #
loop $-1 $-1 $43 $20 #
plane-surface $-1 0 0 11.050540301203123 0 0 1 1 0 0 forward_v I I I I #
face $-1 $44 $45 $16 $-1 $46 reversed single #
loop $-1 $-1 $47 $21 #
plane-surface $-1 -48.265633106479079 0 0 1 0 0 0 0 -1 forward_v I I I I #
face $-1 $48 $49 $17 $-1 $50 reversed single #
loop $-1 $-1 $51 $22 #
plane-surface $-1 36.367496308427953 16.250726712646888 142.74152878676819 0 1 0 0.64278761758704617 0 0.76604443648966558 forward_v I I I I #
face $-1 $52 $53 $18 $-1 $54 forward single #
loop $-1 $55 $56 $23 #
cone-surface $-1 44.450349466024164 18.772394670723354 7.4083820192256145 -0.64278761758704617 0 -0.76604443648966558 0.76604443648966558 0 -0.64278761758704617 1 I I 0 1 1 forward I I I I #
face $-1 $57 $58 $19 $-1 $59 forward single #
loop $-1 $60 $61 $24 #
cone-surface $-1 44.450349466024164 22.554896607838057 7.4083820192256145 -0.64278761758704617 0 -0.76604443648966558 0.76604443648966558 0 -0.64278761758704617 1 I I 0 1 1 forward I I I I #
face $-1 $62 $63 $15 $-1 $64 reversed single #
loop $-1 $-1 $65 $25 #
plane-surface $-1 0 0 -11.050540301203123 0 0 1 1 0 0 forward_v I I I I #
coedge $-1 $66 $67 $68 $69 forward $26 $-1 #
face $-1 $70 $71 $16 $-1 $72 reversed single #
loop $-1 $-1 $73 $28 #
plane-surface $-1 0 25.07656456591452 0 0 -1 0 0 0 -1 forward_v I I I I #
coedge $-1 $74 $75 $76 $77 forward $29 $-1 #
face $-1 $78 $79 $17 $-1 $80 reversed single #
loop $-1 $-1 $81 $31 #
plane-surface $-1 -25.681606323260347 20.663645639280706 68.794289357028759 0.64278761758704617 0 0.76604443648966558 0.76604443648966558 0 -0.64278761758704617 forward_v I I I I #
coedge $-1 $82 $83 $84 $85 reversed $32 $-1 #
face $-1 $-1 $86 $18 $-1 $87 forward single #
loop $-1 $88 $89 $34 #
cone-surface $-1 42.879132258753607 18.772394670723354 5.5358783069345971 -0.64278761758704617 0 -0.76604443648966558 0.38302221824483279 0 -0.32139380879352308 1 I I -0.70710678118654746 0.70710678118654746 0.5 forward I I I I #
loop $-1 $-1 $90 $23 #
coedge $-1 $56 $56 $91 $92 reversed $35 $-1 #
face $-1 $-1 $93 $19 $-1 $94 forward single #
loop $-1 $95 $96 $37 #
cone-surface $-1 42.879132258753607 22.554896607838057 5.5358783069345971 -0.64278761758704617 0 -0.76604443648966558 0.38302221824483279 0 -0.32139380879352308 1 I I -0.70710678118654746 0.70710678118654746 0.5 forward I I I I #
loop $-1 $-1 $97 $24 #
coedge $-1 $61 $61 $98 $99 reversed $38 $-1 #
face $-1 $100 $101 $15 $-1 $102 reversed single #
loop $-1 $-1 $103 $40 #
plane-surface $-1 0 -25.07656456591452 0 0 1 0 0 0 1 forward_v I I I I #
coedge $-1 $104 $105 $106 $107 forward $41 $-1 #
coedge $-1 $108 $43 $109 $110 forward $26 $-1 #
coedge $-1 $43 $108 $111 $112 forward $26 $-1 #
coedge $-1 $113 $114 $43 $69 reversed $115 $-1 #
edge $-1 $116 -25.07656456591452 $117 25.07656456591452 $68 $118 forward 7 unknown #
face $-1 $119 $120 $16 $-1 $121 reversed single #
loop $-1 $-1 $76 $44 #
plane-surface $-1 -53.241239460720919 0 8.0505403012031227 0 0 1 1 0 0 forward_v I I I I #
coedge $-1 $122 $123 $74 $124 forward $45 $-1 #
coedge $-1 $125 $47 $73 $124 reversed $29 $-1 #
coedge $-1 $47 $125 $126 $127 reversed $29 $-1 #
coedge $-1 $128 $129 $47 $77 reversed $71 $-1 #
edge $-1 $130 -25.07656456591452 $131 25.07656456591452 $76 $132 forward 7 unknown #
face $-1 $133 $134 $17 $-1 $135 forward single #
loop $-1 $-1 $136 $48 #
plane-surface $-1 0 25.07656456591452 0 0 -1 0 0 0 -1 forward_v I I I I #
coedge $-1 $137 $138 $139 $140 reversed $49 $-1 #
coedge $-1 $83 $51 $141 $142 reversed $32 $-1 #
coedge $-1 $51 $82 $137 $143 reversed $32 $-1 #
coedge $-1 $139 $144 $51 $85 forward $145 $-1 #
edge $-1 $146 60.320224092180972 $147 64.625577668043633 $84 $148 forward 7 unknown #
loop $-1 $-1 $91 $52 #
plane-surface $-1 -25.681606323260347 20.663645639280706 68.794289357028759 0.64278761758704617 0 0.76604443648966558 0.76604443648966558 0 -0.64278761758704617 forward_v I I I I #
loop $-1 $-1 $149 $34 #
coedge $-1 $89 $89 $90 $150 reversed $53 $-1 #
coedge $-1 $90 $90 $89 $150 forward $55 $-1 #
coedge $-1 $91 $91 $56 $92 forward $86 $-1 #
edge $-1 $151 0 $151 6.2831853071796004 $91 $152 forward 7 unknown #
loop $-1 $-1 $98 $57 #
plane-surface $-1 -25.681606323260347 20.663645639280706 68.794289357028759 0.64278761758704617 0 0.76604443648966558 0.76604443648966558 0 -0.64278761758704617 forward_v I I I I #
loop $-1 $-1 $153 $37 #
coedge $-1 $96 $96 $97 $154 reversed $58 $-1 #
coedge $-1 $97 $97 $96 $154 forward $60 $-1 #
coedge $-1 $98 $98 $61 $99 forward $93 $-1 #
edge $-1 $155 0 $155 6.2831853071796004 $98 $156 forward 7 unknown #
face $-1 $157 $158 $15 $-1 $159 reversed single #
loop $-1 $-1 $160 $62 #
plane-surface $-1 -48.265633106479079 0 0 1 0 0 0 0 -1 forward_v I I I I #
coedge $-1 $161 $111 $162 $163 forward $63 $-1 #
coedge $-1 $164 $65 $161 $165 forward $41 $-1 #
coedge $-1 $65 $164 $166 $167 forward $41 $-1 #
coedge $-1 $114 $113 $65 $107 reversed $115 $-1 #
edge $-1 $168 -25.07656456591452 $169 25.07656456591452 $106 $170 forward 7 unknown #
coedge $-1 $67 $66 $171 $172 forward $26 $-1 #
coedge $-1 $173 $174 $66 $110 reversed $158 $-1 #
edge $-1 $117 -48.265633106479079 $175 48.265633106479079 $109 $176 forward 7 unknown #
coedge $-1 $103 $177 $67 $112 reversed $63 $-1 #
edge $-1 $178 -48.265633106479079 $116 48.265633106479079 $111 $179 forward 7 unknown #
coedge $-1 $106 $68 $177 $180 forward $115 $-1 #
coedge $-1 $68 $106 $173 $181 reversed $115 $-1 #
loop $-1 $-1 $113 $157 #
vertex $-1 $69 $182 #
vertex $-1 $69 $183 #
straight-curve $-1 48.265633106479079 0 11.050540301203123 0 1 0 I I #
face $-1 $184 $185 $16 $-1 $186 forward single #
loop $-1 $-1 $187 $70 #
plane-surface $-1 -58.21684581496276 0 9.5505403012031227 1 0 0 0 0 -1 forward_v I I I I #
coedge $-1 $188 $73 $129 $189 reversed $45 $-1 #
coedge $-1 $73 $188 $190 $191 reversed $45 $-1 #
edge $-1 $192 -11.050540301203123 $131 -8.0505403012031227 $73 $193 forward 7 unknown #
coedge $-1 $75 $74 $194 $195 reversed $29 $-1 #
coedge $-1 $196 $197 $75 $127 forward $198 $-1 #
edge $-1 $130 8.0505403012031227 $199 11.050540301203123 $126 $200 forward 7 unknown #
coedge $-1 $201 $76 $197 $202 forward $71 $-1 #
coedge $-1 $76 $201 $122 $189 forward $71 $-1 #
vertex $-1 $127 $203 #
vertex $-1 $124 $204 #
straight-curve $-1 -48.265633106479079 0 8.0505403012031227 0 1 0 I I #
face $-1 $-1 $145 $17 $-1 $205 reversed single #
loop $-1 $-1 $141 $78 #
plane-surface $-1 0 0 11.050540301203123 0 0 1 1 0 0 forward_v I I I I #
coedge $-1 $206 $207 $138 $208 forward $79 $-1 #
coedge $-1 $209 $81 $83 $143 forward $49 $-1 #
coedge $-1 $81 $209 $136 $208 reversed $49 $-1 #
coedge $-1 $210 $84 $81 $140 forward $145 $-1 #
edge $-1 $147 5.9189038930065347 $211 14.744741746274167 $139 $212 forward 7 unknown #
coedge $-1 $213 $214 $82 $142 forward $134 $-1 #
edge $-1 $215 24.950964468309369 $146 30.081884952265103 $141 $216 forward 7 unknown #
edge $-1 $147 -96.531266212958158 $215 -89.833325154254368 $83 $217 forward 7 unknown #
coedge $-1 $84 $210 $213 $218 reversed $145 $-1 #
loop $-1 $-1 $139 $133 #
vertex $-1 $218 $219 #
vertex $-1 $85 $220 #
straight-curve $-1 48.265633106479079 16.250726712646888 71.370764393384093 0 0 -1 I I #
coedge $-1 $149 $149 $-1 $221 reversed $88 $-1 #
edge $-1 $222 0 $222 6.2831853071796004 $89 $223 forward 7 unknown #
vertex $-1 $92 $224 #
ellipse-curve $-1 45.700172864501198 18.772394670723354 8.897863513271794 0.64278761758704617 0 0.76604443648966558 0.76604443648966558 0 -0.64278761758704617 1 I I #
coedge $-1 $153 $153 $-1 $225 reversed $95 $-1 #
edge $-1 $226 0 $226 6.2831853071796004 $96 $227 forward 7 unknown #
vertex $-1 $99 $228 #
ellipse-curve $-1 45.700172864501198 22.554896607838057 8.897863513271794 0.64278761758704617 0 0.76604443648966558 0.76604443648966558 0 -0.64278761758704617 1 I I #
face $-1 $-1 $115 $15 $-1 $229 reversed single #
loop $-1 $-1 $173 $100 #
plane-surface $-1 0 25.07656456591452 0 0 -1 0 0 0 -1 forward_v I I I I #
coedge $-1 $230 $171 $174 $231 forward $101 $-1 #
coedge $-1 $177 $103 $104 $165 reversed $63 $-1 #
coedge $-1 $171 $230 $103 $163 reversed $101 $-1 #
edge $-1 $178 -11.050540301203123 $232 11.050540301203123 $162 $233 forward 7 unknown #
coedge $-1 $105 $104 $230 $234 forward $41 $-1 #
edge $-1 $169 -48.265633106479079 $232 48.265633106479079 $161 $235 forward 7 unknown #
coedge $-1 $174 $173 $105 $167 reversed $158 $-1 #
edge $-1 $236 -48.265633106479079 $168 48.265633106479079 $166 $237 forward 7 unknown #
vertex $-1 $107 $238 #
vertex $-1 $180 $239 #
straight-curve $-1 48.265633106479079 0 -11.050540301203123 0 -1 0 I I #
coedge $-1 $160 $162 $108 $172 reversed $101 $-1 #
edge $-1 $175 -25.07656456591452 $178 25.07656456591452 $171 $240 forward 7 unknown #
coedge $-1 $166 $109 $114 $181 forward $158 $-1 #
coedge $-1 $109 $166 $160 $231 reversed $158 $-1 #
vertex $-1 $110 $241 #
straight-curve $-1 0 25.07656456591452 11.050540301203123 -1 0 0 I I #
coedge $-1 $111 $161 $113 $180 reversed $63 $-1 #
vertex $-1 $172 $242 #
straight-curve $-1 0 -25.07656456591452 11.050540301203123 1 0 0 I I #
edge $-1 $116 -11.050540301203123 $169 11.050540301203123 $113 $243 forward 7 unknown #
edge $-1 $117 -11.050540301203123 $168 11.050540301203123 $114 $244 forward 7 unknown #
point $-1 48.265633106479079 -25.07656456591452 11.050540301203123 #
point $-1 48.265633106479079 25.07656456591452 11.050540301203123 #
face $-1 $-1 $198 $16 $-1 $245 reversed single #
loop $-1 $-1 $194 $119 #
plane-surface $-1 0 0 11.050540301203123 0 0 1 1 0 0 forward_v I I I I #
coedge $-1 $246 $247 $188 $248 forward $120 $-1 #
coedge $-1 $123 $122 $187 $248 reversed $45 $-1 #
edge $-1 $249 -4.9756063542418403 $131 4.9756063542418403 $122 $250 forward 7 unknown #
coedge $-1 $251 $194 $123 $191 forward $185 $-1 #
edge $-1 $192 48.265633106479079 $252 58.21684581496276 $123 $253 forward 7 unknown #
vertex $-1 $191 $254 #
straight-curve $-1 -48.265633106479079 25.07656456591452 0 0 0 -1 I I #
coedge $-1 $190 $255 $125 $195 forward $185 $-1 #
edge $-1 $199 -25.07656456591452 $192 25.07656456591452 $194 $256 forward 7 unknown #
coedge $-1 $257 $126 $255 $258 reversed $198 $-1 #
coedge $-1 $126 $257 $128 $202 reversed $198 $-1 #
loop $-1 $-1 $126 $184 #
vertex $-1 $127 $259 #
straight-curve $-1 -48.265633106479079 -25.07656456591452 0 0 0 1 I I #
coedge $-1 $129 $128 $246 $260 forward $71 $-1 #
edge $-1 $130 -4.9756063542418403 $261 4.9756063542418403 $197 $262 forward 7 unknown #
point $-1 -48.265633106479079 -25.07656456591452 8.0505403012031227 #
point $-1 -48.265633106479079 25.07656456591452 8.0505403012031227 #
plane-surface $-1 48.265633106479079 0 0 -1 0 0 0 0 1 forward_v I I I I #
coedge $-1 $207 $136 $263 $264 reversed $79 $-1 #
coedge $-1 $136 $206 $210 $265 forward $79 $-1 #
edge $-1 $211 -64.584581711233255 $266 -57.886640652529472 $136 $267 forward 7 unknown #
coedge $-1 $138 $137 $214 $268 reversed $49 $-1 #
coedge $-1 $144 $139 $207 $265 reversed $145 $-1 #
vertex $-1 $208 $269 #
straight-curve $-1 48.265633106479072 10.331822819640353 6.7451867253404707 0 1 0 I I #
coedge $-1 $263 $141 $144 $218 forward $134 $-1 #
coedge $-1 $141 $263 $209 $268 forward $134 $-1 #
vertex $-1 $142 $270 #
straight-curve $-1 18.183748154213976 16.250726712646888 11.050540301203128 1 0 0 I I #
straight-curve $-1 -25.681606323260347 16.250726712646888 68.794289357028759 -0.76604443648966558 0 0.64278761758704617 I I #
edge $-1 $146 16.250726712646888 $271 25.07656456591452 $144 $272 forward 7 unknown #
point $-1 48.265633106479079 16.250726712646888 11.050540301203123 #
point $-1 48.265633106479079 16.250726712646888 6.74518672534046 #
edge $-1 $273 1 $273 0 $149 $-1 forward 7 unknown #
vertex $-1 $150 $274 #
ellipse-curve $-1 43.200526067547131 18.772394670723354 5.9189005251794296 0.64278761758704617 0 0.76604443648966558 0.76604443648966558 0 -0.64278761758704617 1 I I #
point $-1 46.46621730099087 18.772394670723354 8.2550758956847528 #
edge $-1 $275 1 $275 0 $153 $-1 forward 7 unknown #
vertex $-1 $154 $276 #
ellipse-curve $-1 43.200526067547131 22.554896607838057 5.9189005251794296 0.64278761758704617 0 0.76604443648966558 0.76604443648966558 0 -0.64278761758704617 1 I I #
point $-1 46.46621730099087 22.554896607838057 8.2550758956847528 #
plane-surface $-1 48.265633106479079 0 0 -1 0 0 0 0 1 forward_v I I I I #
coedge $-1 $162 $160 $164 $234 reversed $101 $-1 #
edge $-1 $175 -11.050540301203123 $236 11.050540301203123 $174 $277 forward 7 unknown #
vertex $-1 $234 $278 #
straight-curve $-1 -48.265633106479079 -25.07656456591452 0 0 0 -1 I I #
edge $-1 $232 -25.07656456591452 $236 25.07656456591452 $230 $279 forward 7 unknown #
straight-curve $-1 0 -25.07656456591452 -11.050540301203123 -1 0 0 I I #
vertex $-1 $167 $280 #
straight-curve $-1 0 25.07656456591452 -11.050540301203123 1 0 0 I I #
point $-1 48.265633106479079 25.07656456591452 -11.050540301203123 #
point $-1 48.265633106479079 -25.07656456591452 -11.050540301203123 #
straight-curve $-1 -48.265633106479079 0 11.050540301203123 0 -1 0 I I #
point $-1 -48.265633106479079 25.07656456591452 11.050540301203123 #
point $-1 -48.265633106479079 -25.07656456591452 11.050540301203123 #
straight-curve $-1 48.265633106479079 -25.07656456591452 0 0 0 -1 I I #
straight-curve $-1 48.265633106479079 25.07656456591452 0 0 0 -1 I I #
plane-surface $-1 0 -25.07656456591452 0 0 1 0 0 0 1 forward_v I I I I #
coedge $-1 $281 $187 $201 $260 reversed $120 $-1 #
coedge $-1 $187 $281 $251 $282 reversed $120 $-1 #
edge $-1 $252 -1.5 $249 1.5 $188 $283 forward 7 unknown #
vertex $-1 $189 $284 #
straight-curve $-1 -53.241239460720919 25.07656456591452 8.0505403012031227 1 0 0 I I #
coedge $-1 $255 $190 $247 $282 forward $185 $-1 #
vertex $-1 $191 $285 #
straight-curve $-1 0 25.07656456591452 11.050540301203123 -1 0 0 I I #
point $-1 -48.265633106479079 25.07656456591452 11.050540301203123 #
coedge $-1 $194 $251 $196 $258 forward $185 $-1 #
straight-curve $-1 -48.265633106479079 0 11.050540301203123 0 1 0 I I #
coedge $-1 $197 $196 $281 $286 forward $198 $-1 #
edge $-1 $287 -58.21684581496276 $199 -48.265633106479079 $196 $288 forward 7 unknown #
point $-1 -48.265633106479079 -25.07656456591452 11.050540301203123 #
edge $-1 $261 -25.07656456591452 $249 25.07656456591452 $246 $289 forward 7 unknown #
vertex $-1 $260 $290 #
straight-curve $-1 -53.241239460720919 -25.07656456591452 8.0505403012031227 -1 0 0 I I #
coedge $-1 $214 $213 $206 $264 forward $134 $-1 #
edge $-1 $271 -48.265633106479079 $266 -43.134712622523345 $206 $291 forward 7 unknown #
edge $-1 $271 -11.050540301203123 $211 -6.7451867253404663 $210 $292 forward 7 unknown #
vertex $-1 $208 $293 #
straight-curve $-1 -1.2090263964233614 25.07656456591452 48.259356136359997 -0.76604443648966558 0 0.64278761758704617 I I #
edge $-1 $266 -14.744741746274171 $215 -5.9189038930065347 $214 $294 forward 7 unknown #
point $-1 48.265633106479079 25.07656456591452 6.7451867253404663 #
point $-1 43.134712622523345 16.250726712646888 11.050540301203121 #
vertex $-1 $218 $295 #
straight-curve $-1 48.265633106479079 0 11.050540301203123 0 1 0 I I #
vertex $-1 $221 $296 #
point $-1 43.966570504036795 18.772394670723354 5.2761129075923838 #
vertex $-1 $225 $297 #
point $-1 43.966570504036795 22.554896607838057 5.2761129075923838 #
straight-curve $-1 -48.265633106479079 25.07656456591452 0 0 0 -1 I I #
point $-1 -48.265633106479079 -25.07656456591452 -11.050540301203123 #
straight-curve $-1 -48.265633106479079 0 -11.050540301203123 0 1 0 I I #
point $-1 -48.265633106479079 25.07656456591452 -11.050540301203123 #
coedge $-1 $247 $246 $257 $286 reversed $120 $-1 #
edge $-1 $252 -25.07656456591452 $287 25.07656456591452 $247 $298 forward 7 unknown #
straight-curve $-1 -58.21684581496276 25.07656456591452 9.5505403012031227 0 0 -1 I I #
point $-1 -58.21684581496276 25.07656456591452 8.0505403012031227 #
point $-1 -58.21684581496276 25.07656456591452 11.050540301203123 #
edge $-1 $287 -1.5 $261 1.5 $281 $299 forward 7 unknown #
vertex $-1 $282 $300 #
straight-curve $-1 0 -25.07656456591452 11.050540301203123 1 0 0 I I #
straight-curve $-1 -58.21684581496276 0 8.0505403012031227 0 1 0 I I #
point $-1 -58.21684581496276 -25.07656456591452 8.0505403012031227 #
straight-curve $-1 0 25.07656456591452 11.050540301203123 -1 0 0 I I #
straight-curve $-1 48.265633106479079 25.07656456591452 0 0 0 -1 I I #
point $-1 43.134712622523345 25.076564565914524 11.050540301203121 #
straight-curve $-1 43.134712622523338 10.331822819640353 11.050540301203128 0 -1 0 I I #
point $-1 48.265633106479079 25.07656456591452 11.050540301203123 #
point $-1 42.557738449960084 18.772394670723354 5.1528560886897647 #
point $-1 42.557738449960084 22.554896607838057 5.1528560886897647 #
straight-curve $-1 -58.21684581496276 0 11.050540301203123 0 -1 0 I I #
straight-curve $-1 -58.21684581496276 -25.07656456591452 9.5505403012031227 0 0 -1 I I #
point $-1 -58.21684581496276 -25.07656456591452 11.050540301203123 #
End-of-ACIS-data 