500 0 15 0           
7 Unknown 11 ACIS 5.0 NT 24 Fri Mar 26 19:54:42 1999 
-1 9.9999999999999995e-007 1e-010 
body $-1 $15 $-1 $16 #
body $-1 $17 $-1 $18 #
body $-1 $19 $-1 $20 #
body $-1 $21 $-1 $22 #
body $-1 $23 $-1 $24 #
body $-1 $25 $-1 $26 #
body $-1 $27 $-1 $28 #
body $-1 $29 $-1 $30 #
body $-1 $31 $-1 $32 #
body $-1 $33 $-1 $34 #
body $-1 $35 $-1 $36 #
body $-1 $37 $-1 $38 #
body $-1 $39 $-1 $40 #
body $-1 $41 $-1 $42 #
body $-1 $43 $-1 $44 #
lump $-1 $-1 $45 $0 #
transform $-1 1 0 0 0 1 0 0 0 1 48.93704031495102 19.636198381205009 5.558925242583511 1 rotate no_reflect no_shear #
lump $-1 $-1 $46 $1 #
transform $-1 1 0 0 0 1 0 0 0 1 48.93704031495102 19.636198381205009 5.558925242583511 1 rotate no_reflect no_shear #
lump $-1 $-1 $47 $2 #
transform $-1 1 0 0 0 1 0 0 0 1 48.93704031495102 19.636198381205009 5.558925242583511 1 rotate no_reflect no_shear #
lump $-1 $-1 $48 $3 #
transform $-1 1 0 0 0 1 0 0 0 1 48.93704031495102 19.636198381205009 5.558925242583511 1 rotate no_reflect no_shear #
lump $-1 $-1 $49 $4 #
transform $-1 1 0 0 0 1 0 0 0 1 48.93704031495102 19.636198381205009 5.558925242583511 1 rotate no_reflect no_shear #
lump $-1 $-1 $50 $5 #
transform $-1 1 0 0 0 1 0 0 0 1 48.93704031495102 19.636198381205009 5.558925242583511 1 rotate no_reflect no_shear #
lump $-1 $-1 $51 $6 #
transform $-1 1 0 0 0 1 0 0 0 1 48.93704031495102 19.636198381205009 5.558925242583511 1 rotate no_reflect no_shear #
lump $-1 $-1 $52 $7 #
transform $-1 1 0 0 0 1 0 0 0 1 48.93704031495102 19.636198381205009 5.558925242583511 1 rotate no_reflect no_shear #
lump $-1 $-1 $53 $8 #
transform $-1 1 0 0 0 1 0 0 0 1 48.93704031495102 19.636198381205009 5.558925242583511 1 rotate no_reflect no_shear #
lump $-1 $-1 $54 $9 #
transform $-1 1 0 0 0 1 0 0 0 1 48.93704031495102 19.636198381205009 5.558925242583511 1 rotate no_reflect no_shear #
lump $-1 $-1 $55 $10 #
transform $-1 1 0 0 0 1 0 0 0 1 48.93704031495102 19.636198381205009 5.558925242583511 1 rotate no_reflect no_shear #
lump $-1 $-1 $56 $11 #
transform $-1 1 0 0 0 1 0 0 0 1 48.93704031495102 19.636198381205009 5.558925242583511 1 rotate no_reflect no_shear #
lump $-1 $-1 $57 $12 #
transform $-1 1 0 0 0 1 0 0 0 1 48.93704031495102 19.636198381205009 5.558925242583511 1 rotate no_reflect no_shear #
lump $-1 $-1 $58 $13 #
transform $-1 1 0 0 0 1 0 0 0 1 48.93704031495102 19.636198381205009 5.558925242583511 1 rotate no_reflect no_shear #
lump $-1 $-1 $59 $14 #
transform $-1 1 0 0 0 1 0 0 0 1 48.93704031495102 19.636198381205009 5.558925242583511 1 rotate no_reflect no_shear #
shell $-1 $-1 $-1 $60 $-1 $15 #
shell $-1 $-1 $-1 $61 $-1 $17 #
shell $-1 $-1 $-1 $62 $-1 $19 #
shell $-1 $-1 $-1 $63 $-1 $21 #
shell $-1 $-1 $-1 $64 $-1 $23 #
shell $-1 $-1 $-1 $65 $-1 $25 #
shell $-1 $-1 $-1 $66 $-1 $27 #
shell $-1 $-1 $-1 $67 $-1 $29 #
shell $-1 $-1 $-1 $68 $-1 $31 #
shell $-1 $-1 $-1 $69 $-1 $33 #
shell $-1 $-1 $-1 $70 $-1 $35 #
shell $-1 $-1 $-1 $71 $-1 $37 #
shell $-1 $-1 $-1 $72 $-1 $39 #
shell $-1 $-1 $-1 $73 $-1 $41 #
shell $-1 $-1 $-1 $74 $-1 $43 #
face $-1 $75 $76 $45 $-1 $77 forward single #
face $-1 $78 $79 $46 $-1 $80 forward single #
face $-1 $81 $82 $47 $-1 $83 reversed single #
face $-1 $84 $85 $48 $-1 $86 forward single #
face $-1 $87 $88 $49 $-1 $89 reversed single #
face $-1 $90 $91 $50 $-1 $92 forward single #
face $-1 $93 $94 $51 $-1 $95 reversed single #
face $-1 $96 $97 $52 $-1 $98 forward single #
face $-1 $99 $100 $53 $-1 $101 forward single #
face $-1 $102 $103 $54 $-1 $104 reversed single #
face $-1 $105 $106 $55 $-1 $107 forward single #
face $-1 $108 $109 $56 $-1 $110 forward single #
face $-1 $111 $112 $57 $-1 $113 reversed single #
face $-1 $114 $115 $58 $-1 $116 forward single #
face $-1 $117 $118 $59 $-1 $119 forward single #
face $-1 $120 $121 $45 $-1 $122 reversed single #
loop $-1 $-1 $123 $60 #
plane-surface $-1 0 0 5.558925242583511 0 0 1 1 0 0 forward_v I I I I #
face $-1 $124 $125 $46 $-1 $126 reversed single #
loop $-1 $-1 $127 $61 #
plane-surface $-1 0 -16.702328709846498 1.0331251185858557 0 0 1 1 0 0 forward_v I I I I #
face $-1 $128 $129 $47 $-1 $130 reversed single #
loop $-1 $-1 $131 $62 #
plane-surface $-1 -128.11883565434462 -13.768459038487986 59.575642937882719 0 1 0 -0.80901700255871778 0 0.5877852410284794 forward_v I I I I #
face $-1 $132 $133 $48 $-1 $134 forward single #
loop $-1 $135 $136 $63 #
cone-surface $-1 -47.164098121762784 -10.349846017869003 3.4416840896208445 0.80901700255871778 0 -0.5877852410284794 0.2938926205142397 0 0.40450850127935889 1 I I 0 1 0.5 forward I I I I #
face $-1 $137 $138 $49 $-1 $139 reversed single #
loop $-1 $-1 $140 $64 #
plane-surface $-1 -128.11883565434462 2.9338696713585128 59.575642937882719 0 1 0 -0.80901700255871778 0 0.5877852410284794 forward_v I I I I #
face $-1 $141 $142 $50 $-1 $143 forward single #
loop $-1 $144 $145 $65 #
cone-surface $-1 -47.164098121762784 6.3524826919774959 3.4416840896208445 0.80901700255871778 0 -0.5877852410284794 0.2938926205142397 0 0.40450850127935889 1 I I 0 1 0.5 forward I I I I #
face $-1 $146 $147 $51 $-1 $148 reversed single #
loop $-1 $-1 $149 $66 #
plane-surface $-1 34.468749901974107 -4.639961100530126 139.21279211461393 0 -1 0 -0.62932039886446345 0 -0.77714595512881146 forward_v I I I I #
face $-1 $150 $151 $52 $-1 $152 forward single #
loop $-1 $153 $154 $67 #
cone-surface $-1 46.072018747894646 -9.6913567929115292 3.0715779342869665 -0.62932039886446345 0 -0.77714595512881146 0.77714595512881146 0 -0.62932039886446345 1 I I 0 1 1 forward I I I I #
face $-1 $155 $156 $53 $-1 $157 forward single #
loop $-1 $158 $159 $68 #
cone-surface $-1 46.072018747894646 -6.6605193774826859 3.0715779342869665 -0.62932039886446345 0 -0.77714595512881146 0.77714595512881146 0 -0.62932039886446345 1 I I 0 1 1 forward I I I I #
face $-1 $160 $161 $54 $-1 $162 reversed single #
loop $-1 $-1 $163 $69 #
plane-surface $-1 34.468749901974107 6.4949247060342064 139.21279211461393 0 -1 0 -0.62932039886446345 0 -0.77714595512881146 forward_v I I I I #
face $-1 $164 $165 $55 $-1 $166 forward single #
loop $-1 $167 $168 $70 #
cone-surface $-1 46.072018747894646 1.4435290136528032 3.0715779342869665 -0.62932039886446345 0 -0.77714595512881146 0.77714595512881146 0 -0.62932039886446345 1 I I 0 1 1 forward I I I I #
face $-1 $169 $170 $56 $-1 $171 forward single #
loop $-1 $172 $173 $71 #
cone-surface $-1 46.072018747894646 4.4743664290816447 3.0715779342869665 -0.62932039886446345 0 -0.77714595512881146 0.77714595512881146 0 -0.62932039886446345 1 I I 0 1 1 forward I I I I #
face $-1 $174 $175 $57 $-1 $176 reversed single #
loop $-1 $-1 $177 $72 #
plane-surface $-1 34.468749901974107 17.629810512598539 139.21279211461393 0 -1 0 -0.62932039886446345 0 -0.77714595512881146 forward_v I I I I #
face $-1 $178 $179 $58 $-1 $180 forward single #
loop $-1 $181 $182 $73 #
cone-surface $-1 46.072018747894646 12.578414820217137 3.0715779342869665 -0.62932039886446345 0 -0.77714595512881146 0.77714595512881146 0 -0.62932039886446345 1 I I 0 1 1 forward I I I I #
face $-1 $183 $184 $59 $-1 $185 forward single #
loop $-1 $186 $187 $74 #
cone-surface $-1 46.072018747894646 15.609252235645979 3.0715779342869665 -0.62932039886446345 0 -0.77714595512881146 0.77714595512881146 0 -0.62932039886446345 1 I I 0 1 1 forward I I I I #
face $-1 $188 $189 $45 $-1 $190 reversed single #
loop $-1 $-1 $191 $75 #
plane-surface $-1 0 0 -5.558925242583511 0 0 1 1 0 0 forward_v I I I I #
coedge $-1 $192 $193 $194 $195 forward $76 $-1 #
face $-1 $196 $197 $46 $-1 $198 reversed single #
loop $-1 $-1 $199 $78 #
plane-surface $-1 0 -16.702328709846498 -1.9668748814141439 0 0 1 1 0 0 forward_v I I I I #
coedge $-1 $200 $201 $202 $203 reversed $79 $-1 #
face $-1 $204 $205 $47 $-1 $206 reversed single #
loop $-1 $-1 $207 $81 #
plane-surface $-1 -48.93704031495102 -10.349846017869003 2.0467028643949234 -0.80901700255871778 0 0.5877852410284794 0.5877852410284794 0 0.80901700255871778 forward_v I I I I #
coedge $-1 $208 $209 $210 $211 reversed $82 $-1 #
face $-1 $-1 $212 $48 $-1 $213 forward single #
loop $-1 $214 $215 $84 #
cone-surface $-1 -46.46479110336098 -10.349846017869003 2.933607815495348 0.80901700255871778 0 -0.5877852410284794 0.14694631025711985 0 0.20225425063967944 1 I I -0.70710678118654746 0.70710678118654746 0.25 forward I I I I #
loop $-1 $-1 $216 $63 #
coedge $-1 $136 $136 $217 $218 reversed $85 $-1 #
face $-1 $219 $220 $49 $-1 $221 reversed single #
loop $-1 $-1 $222 $87 #
plane-surface $-1 -48.93704031495102 6.3524826919774959 2.0467028643949234 -0.80901700255871778 0 0.5877852410284794 0.5877852410284794 0 0.80901700255871778 forward_v I I I I #
coedge $-1 $223 $224 $225 $226 reversed $88 $-1 #
face $-1 $-1 $227 $50 $-1 $228 forward single #
loop $-1 $229 $230 $90 #
cone-surface $-1 -46.46479110336098 6.3524826919774959 2.933607815495348 0.80901700255871778 0 -0.5877852410284794 0.14694631025711985 0 0.20225425063967944 1 I I -0.70710678118654746 0.70710678118654746 0.25 forward I I I I #
loop $-1 $-1 $231 $65 #
coedge $-1 $145 $145 $232 $233 reversed $91 $-1 #
face $-1 $234 $235 $51 $-1 $236 reversed single #
loop $-1 $-1 $237 $93 #
plane-surface $-1 -27.125405558528499 -8.1759380851971084 63.150346241134415 0.62932039886446345 0 0.77714595512881146 0.77714595512881146 0 -0.62932039886446345 forward_v I I I I #
coedge $-1 $238 $239 $240 $241 reversed $94 $-1 #
face $-1 $-1 $242 $52 $-1 $243 forward single #
loop $-1 $244 $245 $96 #
cone-surface $-1 45.363819633305937 -9.6913567929115292 2.1970248794018747 -0.62932039886446345 0 -0.77714595512881146 0.38857297756440573 0 -0.31466019943223172 1 I I -0.70710678118654746 0.70710678118654746 0.5 forward I I I I #
loop $-1 $-1 $246 $67 #
coedge $-1 $154 $154 $247 $248 reversed $97 $-1 #
face $-1 $-1 $249 $53 $-1 $250 forward single #
loop $-1 $251 $252 $99 #
cone-surface $-1 45.363819633305937 -6.6605193774826859 2.1970248794018747 -0.62932039886446345 0 -0.77714595512881146 0.38857297756440573 0 -0.31466019943223172 1 I I -0.70710678118654746 0.70710678118654746 0.5 forward I I I I #
loop $-1 $-1 $253 $68 #
coedge $-1 $159 $159 $254 $255 reversed $100 $-1 #
face $-1 $256 $257 $54 $-1 $258 reversed single #
loop $-1 $-1 $259 $102 #
plane-surface $-1 -27.125405558528499 2.9589477213672239 63.150346241134415 0.62932039886446345 0 0.77714595512881146 0.77714595512881146 0 -0.62932039886446345 forward_v I I I I #
coedge $-1 $260 $261 $262 $263 reversed $103 $-1 #
face $-1 $-1 $264 $55 $-1 $265 forward single #
loop $-1 $266 $267 $105 #
cone-surface $-1 45.363819633305937 1.4435290136528032 2.1970248794018747 -0.62932039886446345 0 -0.77714595512881146 0.38857297756440573 0 -0.31466019943223172 1 I I -0.70710678118654746 0.70710678118654746 0.5 forward I I I I #
loop $-1 $-1 $268 $70 #
coedge $-1 $168 $168 $269 $270 reversed $106 $-1 #
face $-1 $-1 $271 $56 $-1 $272 forward single #
loop $-1 $273 $274 $108 #
cone-surface $-1 45.363819633305937 4.4743664290816447 2.1970248794018747 -0.62932039886446345 0 -0.77714595512881146 0.38857297756440573 0 -0.31466019943223172 1 I I -0.70710678118654746 0.70710678118654746 0.5 forward I I I I #
loop $-1 $-1 $275 $71 #
coedge $-1 $173 $173 $276 $277 reversed $109 $-1 #
face $-1 $278 $279 $57 $-1 $280 reversed single #
loop $-1 $-1 $281 $111 #
plane-surface $-1 -27.125405558528499 14.093833527931555 63.150346241134415 0.62932039886446345 0 0.77714595512881146 0.77714595512881146 0 -0.62932039886446345 forward_v I I I I #
coedge $-1 $282 $283 $284 $285 reversed $112 $-1 #
face $-1 $-1 $286 $58 $-1 $287 forward single #
loop $-1 $288 $289 $114 #
cone-surface $-1 45.363819633305937 12.578414820217137 2.1970248794018747 -0.62932039886446345 0 -0.77714595512881146 0.38857297756440573 0 -0.31466019943223172 1 I I -0.70710678118654746 0.70710678118654746 0.5 forward I I I I #
loop $-1 $-1 $290 $73 #
coedge $-1 $182 $182 $291 $292 reversed $115 $-1 #
face $-1 $-1 $293 $59 $-1 $294 forward single #
loop $-1 $295 $296 $117 #
cone-surface $-1 45.363819633305937 15.609252235645979 2.1970248794018747 -0.62932039886446345 0 -0.77714595512881146 0.38857297756440573 0 -0.31466019943223172 1 I I -0.70710678118654746 0.70710678118654746 0.5 forward I I I I #
loop $-1 $-1 $297 $74 #
coedge $-1 $187 $187 $298 $299 reversed $118 $-1 #
face $-1 $300 $301 $45 $-1 $302 reversed single #
loop $-1 $-1 $303 $120 #
plane-surface $-1 0 -19.636198381205009 0 0 1 0 0 0 1 forward_v I I I I #
coedge $-1 $304 $305 $306 $307 forward $121 $-1 #
coedge $-1 $308 $123 $309 $310 forward $76 $-1 #
coedge $-1 $123 $308 $311 $312 forward $76 $-1 #
coedge $-1 $313 $314 $123 $195 reversed $315 $-1 #
edge $-1 $316 -19.636198381205009 $317 19.636198381205009 $194 $318 forward 7 unknown #
face $-1 $319 $320 $46 $-1 $321 reversed single #
loop $-1 $-1 $322 $124 #
plane-surface $-1 0 -13.768459038487986 -0.46687488141414413 0 -1 0 0 0 -1 forward_v I I I I #
coedge $-1 $323 $324 $325 $326 reversed $125 $-1 #
coedge $-1 $327 $127 $328 $329 forward $79 $-1 #
coedge $-1 $127 $327 $330 $331 reversed $79 $-1 #
coedge $-1 $332 $333 $127 $203 forward $334 $-1 #
edge $-1 $335 5.4172946835647373 $336 11.28503402628176 $202 $337 forward 7 unknown #
face $-1 $338 $339 $47 $-1 $340 reversed single #
loop $-1 $-1 $341 $128 #
plane-surface $-1 -128.11883565434462 -6.9312329972500208 59.575642937882719 0 -1 0 0.80901700255871778 0 -0.5877852410284794 forward_v I I I I #
coedge $-1 $342 $343 $344 $345 reversed $129 $-1 #
coedge $-1 $209 $131 $346 $347 reversed $82 $-1 #
coedge $-1 $131 $208 $342 $348 reversed $82 $-1 #
coedge $-1 $344 $349 $131 $211 forward $350 $-1 #
edge $-1 $351 15.122377512221291 $352 17.674156363073521 $210 $353 forward 7 unknown #
loop $-1 $-1 $217 $132 #
plane-surface $-1 -48.93704031495102 -10.349846017869003 2.0467028643949234 -0.80901700255871778 0 0.5877852410284794 0.5877852410284794 0 0.80901700255871778 forward_v I I I I #
loop $-1 $-1 $354 $84 #
coedge $-1 $215 $215 $216 $355 reversed $133 $-1 #
coedge $-1 $216 $216 $215 $355 forward $135 $-1 #
coedge $-1 $217 $217 $136 $218 forward $212 $-1 #
edge $-1 $356 0 $356 6.2831853071796004 $217 $357 forward 7 unknown #
face $-1 $358 $359 $49 $-1 $360 forward single #
loop $-1 $-1 $361 $137 #
plane-surface $-1 -128.11883565434462 9.7710957125964786 59.575642937882719 0 -1 0 0.80901700255871778 0 -0.5877852410284794 forward_v I I I I #
coedge $-1 $362 $363 $364 $365 reversed $138 $-1 #
coedge $-1 $224 $140 $366 $367 reversed $88 $-1 #
coedge $-1 $140 $223 $362 $368 reversed $88 $-1 #
coedge $-1 $364 $369 $140 $226 forward $359 $-1 #
edge $-1 $370 15.122377512221291 $371 17.674156363073521 $225 $372 forward 7 unknown #
loop $-1 $-1 $232 $141 #
plane-surface $-1 -48.93704031495102 6.3524826919774959 2.0467028643949234 -0.80901700255871778 0 0.5877852410284794 0.5877852410284794 0 0.80901700255871778 forward_v I I I I #
loop $-1 $-1 $373 $90 #
coedge $-1 $230 $230 $231 $374 reversed $142 $-1 #
coedge $-1 $231 $231 $230 $374 forward $144 $-1 #
coedge $-1 $232 $232 $145 $233 forward $227 $-1 #
edge $-1 $375 0 $375 6.2831853071796004 $232 $376 forward 7 unknown #
face $-1 $377 $378 $51 $-1 $379 forward single #
loop $-1 $-1 $380 $146 #
plane-surface $-1 34.468749901974107 -11.711915069864091 139.21279211461393 0 1 0 0.62932039886446345 0 0.77714595512881146 forward_v I I I I #
coedge $-1 $381 $382 $383 $384 reversed $147 $-1 #
coedge $-1 $239 $149 $385 $386 reversed $94 $-1 #
coedge $-1 $149 $238 $381 $387 reversed $94 $-1 #
coedge $-1 $383 $388 $149 $241 forward $378 $-1 #
edge $-1 $389 -31.702665363963966 $390 -26.759700060164214 $240 $391 forward 7 unknown #
loop $-1 $-1 $247 $150 #
plane-surface $-1 -27.125405558528499 -8.1759380851971084 63.150346241134415 0.62932039886446345 0 0.77714595512881146 0.77714595512881146 0 -0.62932039886446345 forward_v I I I I #
loop $-1 $-1 $392 $96 #
coedge $-1 $245 $245 $246 $393 reversed $151 $-1 #
coedge $-1 $246 $246 $245 $393 forward $153 $-1 #
coedge $-1 $247 $247 $154 $248 forward $242 $-1 #
edge $-1 $394 0 $394 6.2831853071796004 $247 $395 forward 7 unknown #
loop $-1 $-1 $254 $155 #
plane-surface $-1 -27.125405558528499 -8.1759380851971084 63.150346241134415 0.62932039886446345 0 0.77714595512881146 0.77714595512881146 0 -0.62932039886446345 forward_v I I I I #
loop $-1 $-1 $396 $99 #
coedge $-1 $252 $252 $253 $397 reversed $156 $-1 #
coedge $-1 $253 $253 $252 $397 forward $158 $-1 #
coedge $-1 $254 $254 $159 $255 forward $249 $-1 #
edge $-1 $398 0 $398 6.2831853071796004 $254 $399 forward 7 unknown #
face $-1 $400 $401 $54 $-1 $402 reversed single #
loop $-1 $-1 $403 $160 #
plane-surface $-1 34.468749901974107 -0.57702926329975845 139.21279211461393 0 1 0 0.62932039886446345 0 0.77714595512881146 forward_v I I I I #
coedge $-1 $404 $405 $406 $407 reversed $161 $-1 #
coedge $-1 $261 $163 $408 $409 reversed $103 $-1 #
coedge $-1 $163 $260 $404 $410 reversed $103 $-1 #
coedge $-1 $406 $411 $163 $263 forward $412 $-1 #
edge $-1 $413 -31.702665363963966 $414 -26.759700060164214 $262 $415 forward 7 unknown #
loop $-1 $-1 $269 $164 #
plane-surface $-1 -27.125405558528499 2.9589477213672239 63.150346241134415 0.62932039886446345 0 0.77714595512881146 0.77714595512881146 0 -0.62932039886446345 forward_v I I I I #
loop $-1 $-1 $416 $105 #
coedge $-1 $267 $267 $268 $417 reversed $165 $-1 #
coedge $-1 $268 $268 $267 $417 forward $167 $-1 #
coedge $-1 $269 $269 $168 $270 forward $264 $-1 #
edge $-1 $418 0 $418 6.2831853071796004 $269 $419 forward 7 unknown #
loop $-1 $-1 $276 $169 #
plane-surface $-1 -27.125405558528499 2.9589477213672239 63.150346241134415 0.62932039886446345 0 0.77714595512881146 0.77714595512881146 0 -0.62932039886446345 forward_v I I I I #
loop $-1 $-1 $420 $108 #
coedge $-1 $274 $274 $275 $421 reversed $170 $-1 #
coedge $-1 $275 $275 $274 $421 forward $172 $-1 #
coedge $-1 $276 $276 $173 $277 forward $271 $-1 #
edge $-1 $422 0 $422 6.2831853071796004 $276 $423 forward 7 unknown #
face $-1 $424 $425 $57 $-1 $426 reversed single #
loop $-1 $-1 $427 $174 #
plane-surface $-1 34.468749901974107 10.557856543264572 139.21279211461393 0 1 0 0.62932039886446345 0 0.77714595512881146 forward_v I I I I #
coedge $-1 $428 $429 $430 $431 reversed $175 $-1 #
coedge $-1 $283 $177 $432 $433 reversed $112 $-1 #
coedge $-1 $177 $282 $428 $434 reversed $112 $-1 #
coedge $-1 $430 $435 $177 $285 forward $436 $-1 #
edge $-1 $437 -31.702665363963966 $438 -26.759700060164214 $284 $439 forward 7 unknown #
loop $-1 $-1 $291 $178 #
plane-surface $-1 -27.125405558528499 14.093833527931555 63.150346241134415 0.62932039886446345 0 0.77714595512881146 0.77714595512881146 0 -0.62932039886446345 forward_v I I I I #
loop $-1 $-1 $440 $114 #
coedge $-1 $289 $289 $290 $441 reversed $179 $-1 #
coedge $-1 $290 $290 $289 $441 forward $181 $-1 #
coedge $-1 $291 $291 $182 $292 forward $286 $-1 #
edge $-1 $442 0 $442 6.2831853071796004 $291 $443 forward 7 unknown #
loop $-1 $-1 $298 $183 #
plane-surface $-1 -27.125405558528499 14.093833527931555 63.150346241134415 0.62932039886446345 0 0.77714595512881146 0.77714595512881146 0 -0.62932039886446345 forward_v I I I I #
loop $-1 $-1 $444 $117 #
coedge $-1 $296 $296 $297 $445 reversed $184 $-1 #
coedge $-1 $297 $297 $296 $445 forward $186 $-1 #
coedge $-1 $298 $298 $187 $299 forward $293 $-1 #
edge $-1 $446 0 $446 6.2831853071796004 $298 $447 forward 7 unknown #
face $-1 $448 $449 $45 $-1 $450 reversed single #
loop $-1 $-1 $451 $188 #
plane-surface $-1 -48.93704031495102 0 0 1 0 0 0 0 -1 forward_v I I I I #
coedge $-1 $452 $311 $453 $454 forward $189 $-1 #
coedge $-1 $455 $191 $452 $456 forward $121 $-1 #
coedge $-1 $191 $455 $457 $458 forward $121 $-1 #
coedge $-1 $314 $313 $191 $307 reversed $315 $-1 #
edge $-1 $459 -19.636198381205009 $460 19.636198381205009 $306 $461 forward 7 unknown #
coedge $-1 $193 $192 $462 $463 forward $76 $-1 #
coedge $-1 $464 $465 $192 $310 reversed $449 $-1 #
edge $-1 $317 -48.93704031495102 $466 48.93704031495102 $309 $467 forward 7 unknown #
coedge $-1 $303 $468 $193 $312 reversed $189 $-1 #
edge $-1 $469 -48.93704031495102 $316 48.93704031495102 $311 $470 forward 7 unknown #
coedge $-1 $306 $194 $468 $471 forward $315 $-1 #
coedge $-1 $194 $306 $464 $472 reversed $315 $-1 #
loop $-1 $-1 $313 $448 #
vertex $-1 $195 $473 #
vertex $-1 $195 $474 #
straight-curve $-1 48.93704031495102 0 5.558925242583511 0 1 0 I I #
face $-1 $475 $476 $46 $-1 $477 reversed single #
loop $-1 $-1 $478 $196 #
plane-surface $-1 -48.93704031495102 0 0 1 0 0 0 0 -1 forward_v I I I I #
coedge $-1 $479 $328 $333 $480 reversed $197 $-1 #
coedge $-1 $481 $199 $482 $483 reversed $125 $-1 #
coedge $-1 $199 $481 $479 $484 forward $125 $-1 #
coedge $-1 $333 $332 $199 $326 forward $334 $-1 #
edge $-1 $485 -11.28503402628176 $486 -5.4172946835647373 $325 $487 forward 7 unknown #
coedge $-1 $201 $200 $478 $488 reversed $79 $-1 #
coedge $-1 $322 $489 $200 $329 reversed $197 $-1 #
edge $-1 $335 -48.93704031495102 $490 48.93704031495102 $328 $491 forward 7 unknown #
coedge $-1 $492 $493 $201 $331 forward $476 $-1 #
edge $-1 $336 -48.93704031495102 $494 48.93704031495102 $330 $495 forward 7 unknown #
coedge $-1 $325 $202 $493 $496 forward $334 $-1 #
coedge $-1 $202 $325 $322 $480 forward $334 $-1 #
loop $-1 $-1 $202 $475 #
vertex $-1 $203 $497 #
vertex $-1 $496 $498 #
straight-curve $-1 48.93704031495102 -8.3511643549232488 1.0331251185858557 0 -1 0 I I #
face $-1 $-1 $350 $47 $-1 $499 forward single #
loop $-1 $-1 $500 $204 #
plane-surface $-1 -48.93704031495102 0 0 1 0 0 0 0 -1 forward_v I I I I #
coedge $-1 $501 $502 $503 $504 reversed $205 $-1 #
coedge $-1 $505 $207 $209 $348 forward $129 $-1 #
coedge $-1 $207 $505 $501 $506 forward $129 $-1 #
coedge $-1 $503 $210 $207 $345 forward $350 $-1 #
edge $-1 $352 -8.5935360295534835 $507 -1.7563099883155191 $344 $508 forward 7 unknown #
coedge $-1 $509 $510 $208 $347 forward $339 $-1 #
edge $-1 $511 -27.741118604546436 $351 -24.228896226357847 $346 $512 forward 7 unknown #
edge $-1 $352 -4.3413455676213371 $511 0 $209 $513 forward 7 unknown #
coedge $-1 $210 $503 $509 $514 forward $350 $-1 #
loop $-1 $-1 $503 $338 #
vertex $-1 $347 $515 #
vertex $-1 $211 $516 #
straight-curve $-1 -64.059417827172311 -13.768459038487986 5.5589252425835127 1 0 0 I I #
coedge $-1 $354 $354 $-1 $517 reversed $214 $-1 #
edge $-1 $518 0 $518 6.2831853071796004 $215 $519 forward 7 unknown #
vertex $-1 $218 $520 #
ellipse-curve $-1 -47.661150889524905 -10.349846017869003 3.8028140534892194 -0.80901700255871778 0 0.5877852410284794 0.2938926205142397 0 0.40450850127935889 1 I I #
face $-1 $-1 $521 $49 $-1 $522 reversed single #
loop $-1 $-1 $225 $219 #
plane-surface $-1 0 0 5.558925242583511 0 0 1 1 0 0 forward_v I I I I #
coedge $-1 $523 $524 $525 $526 reversed $220 $-1 #
coedge $-1 $527 $222 $224 $368 forward $138 $-1 #
coedge $-1 $222 $527 $523 $528 forward $138 $-1 #
coedge $-1 $525 $225 $222 $365 forward $359 $-1 #
edge $-1 $371 -0.24237167463023512 $529 6.5948543666077306 $364 $530 forward 7 unknown #
coedge $-1 $531 $532 $223 $367 forward $521 $-1 #
edge $-1 $533 -27.741118604546436 $370 -24.228896226357847 $366 $534 forward 7 unknown #
edge $-1 $371 -4.3413455676213371 $533 0 $224 $535 forward 7 unknown #
coedge $-1 $225 $525 $531 $536 forward $359 $-1 #
vertex $-1 $226 $537 #
vertex $-1 $226 $538 #
straight-curve $-1 -64.059417827172311 2.9338696713585128 5.5589252425835127 1 0 0 I I #
coedge $-1 $373 $373 $-1 $539 reversed $229 $-1 #
edge $-1 $540 0 $540 6.2831853071796004 $230 $541 forward 7 unknown #
vertex $-1 $233 $542 #
ellipse-curve $-1 -47.661150889524905 6.3524826919774959 3.8028140534892194 -0.80901700255871778 0 0.5877852410284794 0.2938926205142397 0 0.40450850127935889 1 I I #
face $-1 $-1 $543 $51 $-1 $544 reversed single #
loop $-1 $-1 $240 $234 #
plane-surface $-1 0 0 5.558925242583511 0 0 1 1 0 0 forward_v I I I I #
coedge $-1 $545 $546 $547 $548 reversed $235 $-1 #
coedge $-1 $549 $237 $239 $387 forward $147 $-1 #
coedge $-1 $237 $549 $545 $550 forward $147 $-1 #
coedge $-1 $547 $240 $237 $384 forward $378 $-1 #
edge $-1 $390 0.5519920579315718 $551 7.6239460272655366 $383 $552 forward 7 unknown #
coedge $-1 $553 $554 $238 $386 forward $543 $-1 #
edge $-1 $555 -68.050205276675143 $389 -64.047470814723454 $385 $556 forward 7 unknown #
edge $-1 $390 91.513672689568025 $555 97.874080629902039 $239 $557 forward 7 unknown #
coedge $-1 $240 $547 $553 $558 forward $378 $-1 #
vertex $-1 $386 $559 #
vertex $-1 $241 $560 #
straight-curve $-1 17.234374950987053 -4.639961100530126 5.5589252425835127 -1 0 0 I I #
coedge $-1 $392 $392 $-1 $561 reversed $244 $-1 #
edge $-1 $562 0 $562 6.2831853071796004 $245 $563 forward 7 unknown #
vertex $-1 $248 $564 #
ellipse-curve $-1 46.465557663051136 -9.6913567929115292 3.5575580116076715 0.62932039886446345 0 0.77714595512881146 0.77714595512881146 0 -0.62932039886446345 1 I I #
coedge $-1 $396 $396 $-1 $565 reversed $251 $-1 #
edge $-1 $566 0 $566 6.2831853071796004 $252 $567 forward 7 unknown #
vertex $-1 $255 $568 #
ellipse-curve $-1 46.465557663051136 -6.6605193774826859 3.5575580116076715 0.62932039886446345 0 0.77714595512881146 0.77714595512881146 0 -0.62932039886446345 1 I I #
face $-1 $-1 $412 $54 $-1 $569 forward single #
loop $-1 $-1 $570 $256 #
plane-surface $-1 48.93704031495102 0 0 -1 0 0 0 0 1 forward_v I I I I #
coedge $-1 $571 $572 $573 $574 reversed $257 $-1 #
coedge $-1 $575 $259 $261 $410 forward $161 $-1 #
coedge $-1 $259 $575 $571 $576 forward $161 $-1 #
coedge $-1 $573 $262 $259 $407 forward $412 $-1 #
edge $-1 $414 -5.0154508453505944 $577 2.0565031239833704 $406 $578 forward 7 unknown #
coedge $-1 $579 $580 $260 $409 forward $401 $-1 #
edge $-1 $581 -68.050205276675143 $413 -64.047470814723454 $408 $582 forward 7 unknown #
edge $-1 $414 91.513672689568025 $581 97.874080629902039 $261 $583 forward 7 unknown #
coedge $-1 $262 $573 $579 $584 forward $412 $-1 #
loop $-1 $-1 $573 $400 #
vertex $-1 $409 $585 #
vertex $-1 $263 $586 #
straight-curve $-1 17.234374950987053 6.4949247060342064 5.5589252425835127 -1 0 0 I I #
coedge $-1 $416 $416 $-1 $587 reversed $266 $-1 #
edge $-1 $588 0 $588 6.2831853071796004 $267 $589 forward 7 unknown #
vertex $-1 $270 $590 #
ellipse-curve $-1 46.465557663051136 1.4435290136528032 3.5575580116076715 0.62932039886446345 0 0.77714595512881146 0.77714595512881146 0 -0.62932039886446345 1 I I #
coedge $-1 $420 $420 $-1 $591 reversed $273 $-1 #
edge $-1 $592 0 $592 6.2831853071796004 $274 $593 forward 7 unknown #
vertex $-1 $277 $594 #
ellipse-curve $-1 46.465557663051136 4.4743664290816447 3.5575580116076715 0.62932039886446345 0 0.77714595512881146 0.77714595512881146 0 -0.62932039886446345 1 I I #
face $-1 $-1 $436 $57 $-1 $595 forward single #
loop $-1 $-1 $596 $278 #
plane-surface $-1 48.93704031495102 0 0 -1 0 0 0 0 1 forward_v I I I I #
coedge $-1 $597 $598 $599 $600 reversed $279 $-1 #
coedge $-1 $601 $281 $283 $434 forward $175 $-1 #
coedge $-1 $281 $601 $597 $602 forward $175 $-1 #
coedge $-1 $599 $284 $281 $431 forward $436 $-1 #
edge $-1 $438 -10.582893748632761 $603 -3.5109397792987949 $430 $604 forward 7 unknown #
coedge $-1 $605 $606 $282 $433 forward $425 $-1 #
edge $-1 $607 -68.050205276675143 $437 -64.047470814723454 $432 $608 forward 7 unknown #
edge $-1 $438 91.513672689568025 $607 97.874080629902039 $283 $609 forward 7 unknown #
coedge $-1 $284 $599 $605 $610 forward $436 $-1 #
loop $-1 $-1 $599 $424 #
vertex $-1 $433 $611 #
vertex $-1 $285 $612 #
straight-curve $-1 17.234374950987053 17.629810512598539 5.5589252425835127 -1 0 0 I I #
coedge $-1 $440 $440 $-1 $613 reversed $288 $-1 #
edge $-1 $614 0 $614 6.2831853071796004 $289 $615 forward 7 unknown #
vertex $-1 $292 $616 #
ellipse-curve $-1 46.465557663051136 12.578414820217137 3.5575580116076715 0.62932039886446345 0 0.77714595512881146 0.77714595512881146 0 -0.62932039886446345 1 I I #
coedge $-1 $444 $444 $-1 $617 reversed $295 $-1 #
edge $-1 $618 0 $618 6.2831853071796004 $296 $619 forward 7 unknown #
vertex $-1 $299 $620 #
ellipse-curve $-1 46.465557663051136 15.609252235645979 3.5575580116076715 0.62932039886446345 0 0.77714595512881146 0.77714595512881146 0 -0.62932039886446345 1 I I #
face $-1 $-1 $315 $45 $-1 $621 reversed single #
loop $-1 $-1 $464 $300 #
plane-surface $-1 0 19.636198381205009 0 0 -1 0 0 0 -1 forward_v I I I I #
coedge $-1 $622 $462 $465 $623 forward $301 $-1 #
coedge $-1 $468 $303 $304 $456 reversed $189 $-1 #
coedge $-1 $462 $622 $303 $454 reversed $301 $-1 #
edge $-1 $469 -5.558925242583511 $624 5.558925242583511 $453 $625 forward 7 unknown #
coedge $-1 $305 $304 $622 $626 forward $121 $-1 #
edge $-1 $460 -48.93704031495102 $624 48.93704031495102 $452 $627 forward 7 unknown #
coedge $-1 $465 $464 $305 $458 reversed $449 $-1 #
edge $-1 $628 -48.93704031495102 $459 48.93704031495102 $457 $629 forward 7 unknown #
vertex $-1 $307 $630 #
vertex $-1 $471 $631 #
straight-curve $-1 48.93704031495102 0 -5.558925242583511 0 -1 0 I I #
coedge $-1 $451 $453 $308 $463 reversed $301 $-1 #
edge $-1 $466 -19.636198381205009 $469 19.636198381205009 $462 $632 forward 7 unknown #
coedge $-1 $457 $309 $314 $472 forward $449 $-1 #
coedge $-1 $309 $457 $451 $623 reversed $449 $-1 #
vertex $-1 $310 $633 #
straight-curve $-1 0 19.636198381205009 5.558925242583511 -1 0 0 I I #
coedge $-1 $311 $452 $313 $471 reversed $189 $-1 #
vertex $-1 $463 $634 #
straight-curve $-1 0 -19.636198381205009 5.558925242583511 1 0 0 I I #
edge $-1 $316 -5.558925242583511 $460 5.558925242583511 $313 $635 forward 7 unknown #
edge $-1 $317 -5.558925242583511 $459 5.558925242583511 $314 $636 forward 7 unknown #
point $-1 48.93704031495102 -19.636198381205009 5.558925242583511 #
point $-1 48.93704031495102 19.636198381205009 5.558925242583511 #
face $-1 $-1 $334 $46 $-1 $637 reversed single #
loop $-1 $-1 $330 $319 #
plane-surface $-1 0 -19.636198381205009 0 0 1 0 0 0 1 forward_v I I I I #
coedge $-1 $638 $639 $327 $488 forward $320 $-1 #
coedge $-1 $489 $322 $324 $484 reversed $197 $-1 #
edge $-1 $486 -1.7334374407070718 $335 1.2665625592929277 $333 $640 forward 7 unknown #
coedge $-1 $324 $323 $641 $642 reversed $125 $-1 #
coedge $-1 $493 $492 $323 $483 forward $476 $-1 #
edge $-1 $643 -48.93704031495102 $485 48.93704031495102 $482 $644 forward 7 unknown #
edge $-1 $645 -48.93704031495102 $486 48.93704031495102 $479 $646 forward 7 unknown #
vertex $-1 $483 $647 #
vertex $-1 $326 $648 #
straight-curve $-1 48.93704031495102 -8.3511643549232488 -1.9668748814141439 0 1 0 I I #
edge $-1 $494 -11.28503402628176 $490 -5.4172946835647373 $478 $649 forward 7 unknown #
coedge $-1 $328 $479 $638 $650 reversed $197 $-1 #
vertex $-1 $488 $651 #
straight-curve $-1 0 -13.768459038487986 1.0331251185858557 -1 0 0 I I #
coedge $-1 $482 $330 $639 $652 forward $476 $-1 #
coedge $-1 $330 $482 $332 $496 reversed $476 $-1 #
vertex $-1 $652 $653 #
straight-curve $-1 0 -19.636198381205009 1.0331251185858557 -1 0 0 I I #
edge $-1 $336 -1.0331251185858557 $485 1.9668748814141439 $332 $654 forward 7 unknown #
point $-1 48.93704031495102 -13.768459038487986 1.0331251185858557 #
point $-1 48.93704031495102 -19.636198381205009 1.0331251185858557 #
plane-surface $-1 0 0 5.558925242583511 0 0 1 1 0 0 forward_v I I I I #
coedge $-1 $510 $509 $502 $655 forward $339 $-1 #
coedge $-1 $502 $341 $343 $506 reversed $205 $-1 #
coedge $-1 $341 $501 $500 $655 reversed $205 $-1 #
coedge $-1 $349 $344 $341 $504 forward $350 $-1 #
edge $-1 $507 -17.674156363073521 $656 -15.122377512221291 $503 $657 forward 7 unknown #
coedge $-1 $343 $342 $510 $658 reversed $129 $-1 #
edge $-1 $659 0 $507 4.3413455676213371 $501 $660 forward 7 unknown #
vertex $-1 $345 $661 #
straight-curve $-1 -46.385261464098789 -5.1749230089345017 5.558925242583511 0 1 0 I I #
coedge $-1 $500 $346 $349 $514 reversed $339 $-1 #
coedge $-1 $346 $500 $505 $658 forward $339 $-1 #
vertex $-1 $347 $662 #
straight-curve $-1 -48.93704031495102 -13.768459038487986 29.78782146894136 0 0 1 I I #
straight-curve $-1 -48.93704031495102 -13.768459038487986 2.0467028643949234 -0.5877852410284794 0 -0.80901700255871778 I I #
edge $-1 $656 6.9312329972500208 $351 13.768459038487986 $509 $663 forward 7 unknown #
point $-1 -48.93704031495102 -13.768459038487986 5.558925242583511 #
point $-1 -46.385261464098789 -13.768459038487986 5.558925242583511 #
edge $-1 $664 1 $664 0 $354 $-1 forward 7 unknown #
vertex $-1 $355 $665 #
ellipse-curve $-1 -46.667045354000656 -10.349846017869003 3.0805541257524678 -0.80901700255871778 0 0.5877852410284794 0.2938926205142397 0 0.40450850127935889 1 I I #
point $-1 -47.367258269010662 -10.349846017869003 4.20732255476858 #
loop $-1 $-1 $366 $358 #
plane-surface $-1 -48.93704031495102 0 0 1 0 0 0 0 -1 forward_v I I I I #
coedge $-1 $524 $361 $363 $528 reversed $220 $-1 #
coedge $-1 $361 $523 $666 $667 reversed $220 $-1 #
coedge $-1 $369 $364 $361 $526 forward $359 $-1 #
edge $-1 $529 -17.674156363073521 $668 -15.122377512221291 $525 $669 forward 7 unknown #
coedge $-1 $363 $362 $532 $670 reversed $138 $-1 #
edge $-1 $671 0 $529 4.3413455676213371 $523 $672 forward 7 unknown #
vertex $-1 $365 $673 #
straight-curve $-1 -46.385261464098789 3.176241345988748 5.558925242583511 0 1 0 I I #
coedge $-1 $666 $366 $369 $536 reversed $521 $-1 #
coedge $-1 $366 $666 $527 $670 forward $521 $-1 #
vertex $-1 $367 $674 #
straight-curve $-1 -48.93704031495102 2.9338696713585128 29.78782146894136 0 0 1 I I #
straight-curve $-1 -48.93704031495102 2.9338696713585128 2.0467028643949234 -0.5877852410284794 0 -0.80901700255871778 I I #
edge $-1 $668 -9.7710957125964786 $370 -2.9338696713585128 $531 $675 forward 7 unknown #
point $-1 -48.93704031495102 2.9338696713585128 5.558925242583511 #
point $-1 -46.385261464098789 2.9338696713585128 5.558925242583511 #
edge $-1 $676 1 $676 0 $373 $-1 forward 7 unknown #
vertex $-1 $374 $677 #
ellipse-curve $-1 -46.667045354000656 6.3524826919774959 3.0805541257524678 -0.80901700255871778 0 0.5877852410284794 0.2938926205142397 0 0.40450850127935889 1 I I #
point $-1 -47.367258269010662 6.3524826919774959 4.20732255476858 #
loop $-1 $-1 $385 $377 #
plane-surface $-1 48.93704031495102 0 0 -1 0 0 0 0 1 forward_v I I I I #
coedge $-1 $546 $380 $382 $550 reversed $235 $-1 #
coedge $-1 $380 $545 $678 $679 reversed $235 $-1 #
coedge $-1 $388 $383 $380 $548 forward $378 $-1 #
edge $-1 $551 26.759700060164214 $680 31.702665363963966 $547 $681 forward 7 unknown #
coedge $-1 $382 $381 $554 $682 reversed $147 $-1 #
edge $-1 $683 -97.874080629902039 $551 -91.513672689568025 $545 $684 forward 7 unknown #
vertex $-1 $384 $685 #
straight-curve $-1 43.994075011151267 -4.0879690425985542 5.5589252425835127 0 -1 0 I I #
coedge $-1 $678 $385 $388 $558 reversed $543 $-1 #
coedge $-1 $385 $678 $549 $682 forward $543 $-1 #
vertex $-1 $386 $686 #
straight-curve $-1 48.93704031495102 -4.639961100530126 69.606396057306966 0 0 1 I I #
straight-curve $-1 -27.125405558528499 -4.639961100530126 63.150346241134415 0.77714595512881146 0 -0.62932039886446345 I I #
edge $-1 $680 -11.711915069864091 $389 -4.639961100530126 $553 $687 forward 7 unknown #
point $-1 48.93704031495102 -4.639961100530126 5.558925242583511 #
point $-1 43.994075011151267 -4.639961100530126 5.5589252425835127 #
edge $-1 $688 1 $688 0 $392 $-1 forward 7 unknown #
vertex $-1 $393 $689 #
ellipse-curve $-1 45.678479832738169 -9.6913567929115292 2.5855978569662805 0.62932039886446345 0 0.77714595512881146 0.77714595512881146 0 -0.62932039886446345 1 I I #
point $-1 47.242703618179931 -9.6913567929115292 2.9282376127431884 #
edge $-1 $690 1 $690 0 $396 $-1 forward 7 unknown #
vertex $-1 $397 $691 #
ellipse-curve $-1 45.678479832738169 -6.6605193774826859 2.5855978569662805 0.62932039886446345 0 0.77714595512881146 0.77714595512881146 0 -0.62932039886446345 1 I I #
point $-1 47.242703618179931 -6.6605193774826859 2.9282376127431884 #
plane-surface $-1 0 0 5.558925242583511 0 0 1 1 0 0 forward_v I I I I #
coedge $-1 $580 $579 $572 $692 forward $401 $-1 #
coedge $-1 $572 $403 $405 $576 reversed $257 $-1 #
coedge $-1 $403 $571 $570 $692 reversed $257 $-1 #
coedge $-1 $411 $406 $403 $574 forward $412 $-1 #
edge $-1 $577 26.759700060164214 $693 31.702665363963966 $573 $694 forward 7 unknown #
coedge $-1 $405 $404 $580 $695 reversed $161 $-1 #
edge $-1 $696 -97.874080629902039 $577 -91.513672689568025 $571 $697 forward 7 unknown #
vertex $-1 $407 $698 #
straight-curve $-1 43.994075011151267 1.479473860683612 5.5589252425835127 0 -1 0 I I #
coedge $-1 $570 $408 $411 $584 reversed $401 $-1 #
coedge $-1 $408 $570 $575 $695 forward $401 $-1 #
vertex $-1 $409 $699 #
straight-curve $-1 48.93704031495102 6.4949247060342064 69.606396057306966 0 0 1 I I #
straight-curve $-1 -27.125405558528499 6.4949247060342064 63.150346241134415 0.77714595512881146 0 -0.62932039886446345 I I #
edge $-1 $693 -0.57702926329975845 $413 6.4949247060342064 $579 $700 forward 7 unknown #
point $-1 48.93704031495102 6.4949247060342064 5.558925242583511 #
point $-1 43.994075011151267 6.4949247060342064 5.5589252425835127 #
edge $-1 $701 1 $701 0 $416 $-1 forward 7 unknown #
vertex $-1 $417 $702 #
ellipse-curve $-1 45.678479832738169 1.4435290136528032 2.5855978569662805 0.62932039886446345 0 0.77714595512881146 0.77714595512881146 0 -0.62932039886446345 1 I I #
point $-1 47.242703618179931 1.4435290136528032 2.9282376127431884 #
edge $-1 $703 1 $703 0 $420 $-1 forward 7 unknown #
vertex $-1 $421 $704 #
ellipse-curve $-1 45.678479832738169 4.4743664290816447 2.5855978569662805 0.62932039886446345 0 0.77714595512881146 0.77714595512881146 0 -0.62932039886446345 1 I I #
point $-1 47.242703618179931 4.4743664290816447 2.9282376127431884 #
plane-surface $-1 0 0 5.558925242583511 0 0 1 1 0 0 forward_v I I I I #
coedge $-1 $606 $605 $598 $705 forward $425 $-1 #
coedge $-1 $598 $427 $429 $602 reversed $279 $-1 #
coedge $-1 $427 $597 $596 $705 reversed $279 $-1 #
coedge $-1 $435 $430 $427 $600 forward $436 $-1 #
edge $-1 $603 26.759700060164214 $706 31.702665363963966 $599 $707 forward 7 unknown #
coedge $-1 $429 $428 $606 $708 reversed $175 $-1 #
edge $-1 $709 -97.874080629902039 $603 -91.513672689568025 $597 $710 forward 7 unknown #
vertex $-1 $431 $711 #
straight-curve $-1 43.994075011151267 7.0469167639657773 5.5589252425835127 0 -1 0 I I #
coedge $-1 $596 $432 $435 $610 reversed $425 $-1 #
coedge $-1 $432 $596 $601 $708 forward $425 $-1 #
vertex $-1 $433 $712 #
straight-curve $-1 48.93704031495102 17.629810512598539 69.606396057306966 0 0 1 I I #
straight-curve $-1 -27.125405558528499 17.629810512598539 63.150346241134415 0.77714595512881146 0 -0.62932039886446345 I I #
edge $-1 $706 10.557856543264572 $437 17.629810512598539 $605 $713 forward 7 unknown #
point $-1 48.93704031495102 17.629810512598539 5.558925242583511 #
point $-1 43.994075011151267 17.629810512598539 5.5589252425835127 #
edge $-1 $714 1 $714 0 $440 $-1 forward 7 unknown #
vertex $-1 $441 $715 #
ellipse-curve $-1 45.678479832738169 12.578414820217137 2.5855978569662805 0.62932039886446345 0 0.77714595512881146 0.77714595512881146 0 -0.62932039886446345 1 I I #
point $-1 47.242703618179931 12.578414820217137 2.9282376127431884 #
edge $-1 $716 1 $716 0 $444 $-1 forward 7 unknown #
vertex $-1 $445 $717 #
ellipse-curve $-1 45.678479832738169 15.609252235645979 2.5855978569662805 0.62932039886446345 0 0.77714595512881146 0.77714595512881146 0 -0.62932039886446345 1 I I #
point $-1 47.242703618179931 15.609252235645979 2.9282376127431884 #
plane-surface $-1 48.93704031495102 0 0 -1 0 0 0 0 1 forward_v I I I I #
coedge $-1 $453 $451 $455 $626 reversed $301 $-1 #
edge $-1 $466 -5.558925242583511 $628 5.558925242583511 $465 $718 forward 7 unknown #
vertex $-1 $626 $719 #
straight-curve $-1 -48.93704031495102 -19.636198381205009 0 0 0 -1 I I #
edge $-1 $624 -19.636198381205009 $628 19.636198381205009 $622 $720 forward 7 unknown #
straight-curve $-1 0 -19.636198381205009 -5.558925242583511 -1 0 0 I I #
vertex $-1 $458 $721 #
straight-curve $-1 0 19.636198381205009 -5.558925242583511 1 0 0 I I #
point $-1 48.93704031495102 19.636198381205009 -5.558925242583511 #
point $-1 48.93704031495102 -19.636198381205009 -5.558925242583511 #
straight-curve $-1 -48.93704031495102 0 5.558925242583511 0 -1 0 I I #
point $-1 -48.93704031495102 19.636198381205009 5.558925242583511 #
point $-1 -48.93704031495102 -19.636198381205009 5.558925242583511 #
straight-curve $-1 48.93704031495102 -19.636198381205009 0 0 0 -1 I I #
straight-curve $-1 48.93704031495102 19.636198381205009 0 0 0 -1 I I #
plane-surface $-1 48.93704031495102 0 0 -1 0 0 0 0 1 forward_v I I I I #
coedge $-1 $641 $478 $489 $650 forward $320 $-1 #
coedge $-1 $478 $641 $492 $652 reversed $320 $-1 #
straight-curve $-1 48.93704031495102 -13.768459038487986 -0.23343744070707206 0 0 1 I I #
coedge $-1 $639 $638 $481 $642 forward $320 $-1 #
edge $-1 $645 5.4172946835647373 $643 11.28503402628176 $641 $722 forward 7 unknown #
vertex $-1 $483 $723 #
straight-curve $-1 0 -19.636198381205009 -1.9668748814141439 1 0 0 I I #
vertex $-1 $642 $724 #
straight-curve $-1 0 -13.768459038487986 -1.9668748814141439 1 0 0 I I #
point $-1 48.93704031495102 -19.636198381205009 -1.9668748814141439 #
point $-1 48.93704031495102 -13.768459038487986 -1.9668748814141439 #
straight-curve $-1 -48.93704031495102 -8.3511643549232488 1.0331251185858557 0 1 0 I I #
edge $-1 $490 -1.2665625592929277 $645 1.7334374407070718 $638 $725 forward 7 unknown #
point $-1 -48.93704031495102 -13.768459038487986 1.0331251185858557 #
edge $-1 $494 -1.0331251185858557 $643 1.9668748814141439 $639 $726 forward 7 unknown #
point $-1 -48.93704031495102 -19.636198381205009 1.0331251185858557 #
straight-curve $-1 48.93704031495102 -19.636198381205009 0 0 0 -1 I I #
edge $-1 $656 24.228896226357847 $659 27.741118604546436 $500 $727 forward 7 unknown #
vertex $-1 $514 $728 #
straight-curve $-1 -64.059417827172311 -6.9312329972500208 5.5589252425835127 -1 0 0 I I #
edge $-1 $659 1.7563099883155191 $511 8.5935360295534835 $510 $729 forward 7 unknown #
vertex $-1 $658 $730 #
straight-curve $-1 -48.93704031495102 -6.9312329972500208 2.0467028643949234 0.5877852410284794 0 0.80901700255871778 I I #
point $-1 -46.385261464098789 -6.9312329972500208 5.558925242583511 #
point $-1 -48.93704031495102 -13.768459038487986 2.0467028643949234 #
straight-curve $-1 -48.93704031495102 0 5.558925242583511 0 -1 0 I I #
vertex $-1 $517 $731 #
point $-1 -46.373152733486421 -10.349846017869003 3.4850626270318266 #
coedge $-1 $532 $531 $524 $667 forward $521 $-1 #
edge $-1 $668 24.228896226357847 $671 27.741118604546436 $666 $732 forward 7 unknown #
vertex $-1 $536 $733 #
straight-curve $-1 -64.059417827172311 9.7710957125964786 5.5589252425835127 -1 0 0 I I #
edge $-1 $671 -6.5948543666077306 $533 0.24237167463023512 $532 $734 forward 7 unknown #
vertex $-1 $670 $735 #
straight-curve $-1 -48.93704031495102 9.7710957125964786 2.0467028643949234 0.5877852410284794 0 0.80901700255871778 I I #
point $-1 -46.385261464098789 9.7710957125964786 5.558925242583511 #
point $-1 -48.93704031495102 2.9338696713585128 2.0467028643949234 #
straight-curve $-1 -48.93704031495102 0 5.558925242583511 0 -1 0 I I #
vertex $-1 $539 $736 #
point $-1 -46.373152733486421 6.3524826919774959 3.4850626270318266 #
coedge $-1 $554 $553 $546 $679 forward $543 $-1 #
edge $-1 $680 64.047470814723454 $683 68.050205276675143 $678 $737 forward 7 unknown #
vertex $-1 $558 $738 #
straight-curve $-1 17.234374950987053 -11.711915069864091 5.5589252425835127 1 0 0 I I #
edge $-1 $683 -7.6239460272655366 $555 -0.5519920579315718 $554 $739 forward 7 unknown #
vertex $-1 $682 $740 #
straight-curve $-1 -27.125405558528499 -11.711915069864091 63.150346241134415 -0.77714595512881146 0 0.62932039886446345 I I #
point $-1 43.994075011151267 -11.711915069864091 5.5589252425835127 #
point $-1 48.93704031495102 -4.639961100530126 1.556190780631816 #
straight-curve $-1 48.93704031495102 0 5.558925242583511 0 1 0 I I #
vertex $-1 $561 $741 #
point $-1 46.455625787866978 -9.6913567929115292 1.956277458101817 #
vertex $-1 $565 $742 #
point $-1 46.455625787866978 -6.6605193774826859 1.956277458101817 #
edge $-1 $693 64.047470814723454 $696 68.050205276675143 $570 $743 forward 7 unknown #
vertex $-1 $584 $744 #
straight-curve $-1 17.234374950987053 -0.57702926329975845 5.5589252425835127 1 0 0 I I #
edge $-1 $696 -2.0565031239833704 $581 5.0154508453505944 $580 $745 forward 7 unknown #
vertex $-1 $695 $746 #
straight-curve $-1 -27.125405558528499 -0.57702926329975845 63.150346241134415 -0.77714595512881146 0 0.62932039886446345 I I #
point $-1 43.994075011151267 -0.57702926329975845 5.5589252425835127 #
point $-1 48.93704031495102 6.4949247060342064 1.556190780631816 #
straight-curve $-1 48.93704031495102 0 5.558925242583511 0 1 0 I I #
vertex $-1 $587 $747 #
point $-1 46.455625787866978 1.4435290136528032 1.956277458101817 #
vertex $-1 $591 $748 #
point $-1 46.455625787866978 4.4743664290816447 1.956277458101817 #
edge $-1 $706 64.047470814723454 $709 68.050205276675143 $596 $749 forward 7 unknown #
vertex $-1 $610 $750 #
straight-curve $-1 17.234374950987053 10.557856543264572 5.5589252425835127 1 0 0 I I #
edge $-1 $709 3.5109397792987949 $607 10.582893748632761 $606 $751 forward 7 unknown #
vertex $-1 $708 $752 #
straight-curve $-1 -27.125405558528499 10.557856543264572 63.150346241134415 -0.77714595512881146 0 0.62932039886446345 I I #
point $-1 43.994075011151267 10.557856543264572 5.5589252425835127 #
point $-1 48.93704031495102 17.629810512598539 1.556190780631816 #
straight-curve $-1 48.93704031495102 0 5.558925242583511 0 1 0 I I #
vertex $-1 $613 $753 #
point $-1 46.455625787866978 12.578414820217137 1.956277458101817 #
vertex $-1 $617 $754 #
point $-1 46.455625787866978 15.609252235645979 1.956277458101817 #
straight-curve $-1 -48.93704031495102 19.636198381205009 0 0 0 -1 I I #
point $-1 -48.93704031495102 -19.636198381205009 -5.558925242583511 #
straight-curve $-1 -48.93704031495102 0 -5.558925242583511 0 1 0 I I #
point $-1 -48.93704031495102 19.636198381205009 -5.558925242583511 #
straight-curve $-1 -48.93704031495102 -8.3511643549232488 -1.9668748814141439 0 -1 0 I I #
point $-1 -48.93704031495102 -19.636198381205009 -1.9668748814141439 #
point $-1 -48.93704031495102 -13.768459038487986 -1.9668748814141439 #
straight-curve $-1 -48.93704031495102 -13.768459038487986 -0.23343744070707206 0 0 -1 I I #
straight-curve $-1 -48.93704031495102 -19.636198381205009 0 0 0 -1 I I #
straight-curve $-1 -48.93704031495102 -6.9312329972500208 29.78782146894136 0 0 -1 I I #
point $-1 -48.93704031495102 -6.9312329972500208 5.558925242583511 #
straight-curve $-1 -48.93704031495102 -5.1749230089345017 2.046702864394919 0 -1 0 I I #
point $-1 -48.93704031495102 -6.9312329972500208 2.0467028643949234 #
point $-1 -46.262536852721304 -10.349846017869003 2.7866615052382282 #
straight-curve $-1 -48.93704031495102 9.7710957125964786 29.78782146894136 0 0 -1 I I #
point $-1 -48.93704031495102 9.7710957125964786 5.558925242583511 #
straight-curve $-1 -48.93704031495102 3.176241345988748 2.046702864394919 0 -1 0 I I #
point $-1 -48.93704031495102 9.7710957125964786 2.0467028643949234 #
point $-1 -46.262536852721304 6.3524826919774959 2.7866615052382282 #
straight-curve $-1 48.93704031495102 -11.711915069864091 69.606396057306966 0 0 -1 I I #
point $-1 48.93704031495102 -11.711915069864091 5.558925242583511 #
straight-curve $-1 48.93704031495102 -4.0879690425985542 1.5561907806318125 0 1 0 I I #
point $-1 48.93704031495102 -11.711915069864091 1.556190780631816 #
point $-1 45.049159433873704 -9.6913567929115292 1.808451901837469 #
point $-1 45.049159433873704 -6.6605193774826859 1.808451901837469 #
straight-curve $-1 48.93704031495102 -0.57702926329975845 69.606396057306966 0 0 -1 I I #
point $-1 48.93704031495102 -0.57702926329975845 5.558925242583511 #
straight-curve $-1 48.93704031495102 1.479473860683612 1.5561907806318125 0 1 0 I I #
point $-1 48.93704031495102 -0.57702926329975845 1.556190780631816 #
point $-1 45.049159433873704 1.4435290136528032 1.808451901837469 #
point $-1 45.049159433873704 4.4743664290816447 1.808451901837469 #
straight-curve $-1 48.93704031495102 10.557856543264572 69.606396057306966 0 0 -1 I I #
point $-1 48.93704031495102 10.557856543264572 5.558925242583511 #
straight-curve $-1 48.93704031495102 7.0469167639657773 1.5561907806318125 0 1 0 I I #
point $-1 48.93704031495102 10.557856543264572 1.556190780631816 #
point $-1 45.049159433873704 12.578414820217137 1.808451901837469 #
point $-1 45.049159433873704 15.609252235645979 1.808451901837469 #
End-of-ACIS-data 