500 0 13 0           
7 Unknown 11 ACIS 5.0 NT 24 Thu Mar 25 21:31:49 1999 
-1 9.9999999999999995e-007 1e-010 
body $-1 $13 $-1 $14 #
body $-1 $15 $-1 $16 #
body $-1 $17 $-1 $18 #
body $-1 $19 $-1 $20 #
body $-1 $21 $-1 $22 #
body $-1 $23 $-1 $24 #
body $-1 $25 $-1 $26 #
body $-1 $27 $-1 $28 #
body $-1 $29 $-1 $30 #
body $-1 $31 $-1 $32 #
body $-1 $33 $-1 $34 #
body $-1 $35 $-1 $36 #
body $-1 $37 $-1 $38 #
lump $-1 $-1 $39 $0 #
transform $-1 1 0 0 0 1 0 0 0 1 53.003326517532884 21.824908669469558 9.2617487115301387 1 rotate no_reflect no_shear #
lump $-1 $-1 $40 $1 #
transform $-1 1 0 0 0 1 0 0 0 1 53.003326517532884 21.824908669469558 9.2617487115301387 1 rotate no_reflect no_shear #
lump $-1 $-1 $41 $2 #
transform $-1 1 0 0 0 1 0 0 0 1 53.003326517532884 21.824908669469558 9.2617487115301387 1 rotate no_reflect no_shear #
lump $-1 $-1 $42 $3 #
transform $-1 1 0 0 0 1 0 0 0 1 53.003326517532884 21.824908669469558 9.2617487115301387 1 rotate no_reflect no_shear #
lump $-1 $-1 $43 $4 #
transform $-1 1 0 0 0 1 0 0 0 1 53.003326517532884 21.824908669469558 9.2617487115301387 1 rotate no_reflect no_shear #
lump $-1 $-1 $44 $5 #
transform $-1 1 0 0 0 1 0 0 0 1 53.003326517532884 21.824908669469558 9.2617487115301387 1 rotate no_reflect no_shear #
lump $-1 $-1 $45 $6 #
transform $-1 1 0 0 0 1 0 0 0 1 53.003326517532884 21.824908669469558 9.2617487115301387 1 rotate no_reflect no_shear #
lump $-1 $-1 $46 $7 #
transform $-1 1 0 0 0 1 0 0 0 1 53.003326517532884 21.824908669469558 9.2617487115301387 1 rotate no_reflect no_shear #
lump $-1 $-1 $47 $8 #
transform $-1 1 0 0 0 1 0 0 0 1 53.003326517532884 21.824908669469558 9.2617487115301387 1 rotate no_reflect no_shear #
lump $-1 $-1 $48 $9 #
transform $-1 1 0 0 0 1 0 0 0 1 53.003326517532884 21.824908669469558 9.2617487115301387 1 rotate no_reflect no_shear #
lump $-1 $-1 $49 $10 #
transform $-1 1 0 0 0 1 0 0 0 1 53.003326517532884 21.824908669469558 9.2617487115301387 1 rotate no_reflect no_shear #
lump $-1 $-1 $50 $11 #
transform $-1 1 0 0 0 1 0 0 0 1 53.003326517532884 21.824908669469558 9.2617487115301387 1 rotate no_reflect no_shear #
lump $-1 $-1 $51 $12 #
transform $-1 1 0 0 0 1 0 0 0 1 53.003326517532884 21.824908669469558 9.2617487115301387 1 rotate no_reflect no_shear #
shell $-1 $-1 $-1 $52 $-1 $13 #
shell $-1 $-1 $-1 $53 $-1 $15 #
shell $-1 $-1 $-1 $54 $-1 $17 #
shell $-1 $-1 $-1 $55 $-1 $19 #
shell $-1 $-1 $-1 $56 $-1 $21 #
shell $-1 $-1 $-1 $57 $-1 $23 #
shell $-1 $-1 $-1 $58 $-1 $25 #
shell $-1 $-1 $-1 $59 $-1 $27 #
shell $-1 $-1 $-1 $60 $-1 $29 #
shell $-1 $-1 $-1 $61 $-1 $31 #
shell $-1 $-1 $-1 $62 $-1 $33 #
shell $-1 $-1 $-1 $63 $-1 $35 #
shell $-1 $-1 $-1 $64 $-1 $37 #
face $-1 $65 $66 $39 $-1 $67 forward single #
face $-1 $68 $69 $40 $-1 $70 reversed single #
face $-1 $71 $72 $41 $-1 $73 reversed single #
face $-1 $74 $75 $42 $-1 $76 forward single #
face $-1 $77 $78 $43 $-1 $79 reversed single #
face $-1 $80 $81 $44 $-1 $82 forward single #
face $-1 $83 $84 $45 $-1 $85 reversed single #
face $-1 $86 $87 $46 $-1 $88 forward single #
face $-1 $89 $90 $47 $-1 $91 reversed single #
face $-1 $92 $93 $48 $-1 $94 forward single #
face $-1 $95 $96 $49 $-1 $97 reversed single #
face $-1 $98 $99 $50 $-1 $100 forward single #
face $-1 $101 $102 $51 $-1 $103 forward single #
face $-1 $104 $105 $39 $-1 $106 reversed single #
loop $-1 $-1 $107 $52 #
plane-surface $-1 0 0 9.2617487115301387 0 0 1 1 0 0 forward_v I I I I #
face $-1 $108 $109 $40 $-1 $110 reversed single #
loop $-1 $-1 $111 $53 #
plane-surface $-1 -47.883589438096443 -8.7573519990306536 0 0 1 0 0 0 1 forward_v I I I I #
face $-1 $112 $113 $41 $-1 $114 reversed single #
loop $-1 $-1 $115 $54 #
plane-surface $-1 -26.637943721492267 -110.72956942489319 62.674128598682934 -1 0 0 0 -0.83867057594974714 0.54463902268945019 forward_v I I I I #
face $-1 $116 $117 $42 $-1 $118 forward single #
loop $-1 $119 $120 $55 #
cone-surface $-1 -32.240193626865306 -19.899684662552961 6.7615692562613265 0 0.83867057594974714 -0.54463902268945019 1 0 0 1 I I 0 1 1 forward I I I I #
face $-1 $121 $122 $43 $-1 $123 reversed single #
loop $-1 $-1 $124 $56 #
plane-surface $-1 -1.7313232506244303 -110.72956942489319 62.674128598682934 -1 0 0 0 -0.83867057594974714 0.54463902268945019 forward_v I I I I #
face $-1 $125 $126 $44 $-1 $127 forward single #
loop $-1 $128 $129 $57 #
cone-surface $-1 -7.3335731559974704 -19.899684662552961 6.7615692562613265 0 0.83867057594974714 -0.54463902268945019 1 0 0 1 I I 0 1 1 forward I I I I #
face $-1 $130 $131 $45 $-1 $132 reversed single #
loop $-1 $-1 $133 $58 #
plane-surface $-1 23.175297220243404 -110.72956942489319 62.674128598682934 -1 0 0 0 -0.83867057594974714 0.54463902268945019 forward_v I I I I #
face $-1 $134 $135 $46 $-1 $136 forward single #
loop $-1 $137 $138 $59 #
cone-surface $-1 17.573047314870365 -19.899684662552961 6.7615692562613265 0 0.83867057594974714 -0.54463902268945019 1 0 0 1 I I 0 1 1 forward I I I I #
face $-1 $139 $140 $47 $-1 $141 reversed single #
loop $-1 $-1 $142 $60 #
plane-surface $-1 48.081917691111244 -110.72956942489319 62.674128598682934 -1 0 0 0 -0.83867057594974714 0.54463902268945019 forward_v I I I I #
face $-1 $143 $144 $48 $-1 $145 forward single #
loop $-1 $146 $147 $61 #
cone-surface $-1 42.479667785738201 -19.899684662552961 6.7615692562613265 0 0.83867057594974714 -0.54463902268945019 1 0 0 1 I I 0 1 1 forward I I I I #
face $-1 $148 $149 $49 $-1 $150 reversed single #
loop $-1 $-1 $151 $62 #
plane-surface $-1 16.305529943336055 91.804455903292052 96.763268144335001 1 0 0 0 -0.86602541151947299 -0.49999998660252726 forward_v I I I I #
face $-1 $152 $153 $50 $-1 $154 forward single #
loop $-1 $155 $156 $63 #
cone-surface $-1 24.286677923620999 20.438212458657219 7.3599203741231953 0 -0.86602541151947299 -0.49999998660252726 0.5 0 0 1 I I 0 1 0.5 forward I I I I #
face $-1 $157 $158 $51 $-1 $159 forward single #
loop $-1 $160 $161 $64 #
cone-surface $-1 36.258399894048409 20.438212458657219 7.3599203741231953 0 -0.86602541151947299 -0.49999998660252726 0.5 0 0 1 I I 0 1 0.5 forward I I I I #
face $-1 $162 $163 $39 $-1 $164 reversed single #
loop $-1 $-1 $165 $65 #
plane-surface $-1 0 0 -9.2617487115301387 0 0 1 1 0 0 forward_v I I I I #
coedge $-1 $166 $167 $168 $169 forward $66 $-1 #
face $-1 $170 $171 $40 $-1 $172 reversed single #
loop $-1 $-1 $173 $68 #
plane-surface $-1 -47.883589438096443 -5.7573519990306545 0 0 -1 0 0 0 -1 forward_v I I I I #
coedge $-1 $174 $175 $176 $177 reversed $69 $-1 #
face $-1 $178 $179 $41 $-1 $180 reversed single #
loop $-1 $-1 $181 $71 #
plane-surface $-1 -32.240193626865306 -21.824908669469565 4.9387686910850732 0 -0.83867057594974714 0.54463902268945019 1 0 0 forward_v I I I I #
coedge $-1 $182 $183 $184 $185 reversed $72 $-1 #
face $-1 $-1 $186 $42 $-1 $187 forward single #
loop $-1 $188 $189 $74 #
cone-surface $-1 -32.240193626865306 -18.9588133477572 6.1505602998703175 0 0.83867057594974714 -0.54463902268945019 0.5 0 0 1 I I -0.70710678118654746 0.70710678118654746 0.5 forward I I I I #
loop $-1 $-1 $190 $55 #
coedge $-1 $120 $120 $191 $192 reversed $75 $-1 #
face $-1 $193 $194 $43 $-1 $195 reversed single #
loop $-1 $-1 $196 $77 #
plane-surface $-1 -7.3335731559974704 -21.824908669469565 4.9387686910850732 0 -0.83867057594974714 0.54463902268945019 1 0 0 forward_v I I I I #
coedge $-1 $197 $198 $199 $200 reversed $78 $-1 #
face $-1 $-1 $201 $44 $-1 $202 forward single #
loop $-1 $203 $204 $80 #
cone-surface $-1 -7.3335731559974704 -18.9588133477572 6.1505602998703175 0 0.83867057594974714 -0.54463902268945019 0.5 0 0 1 I I -0.70710678118654746 0.70710678118654746 0.5 forward I I I I #
loop $-1 $-1 $205 $57 #
coedge $-1 $129 $129 $206 $207 reversed $81 $-1 #
face $-1 $208 $209 $45 $-1 $210 reversed single #
loop $-1 $-1 $211 $83 #
plane-surface $-1 17.573047314870365 -21.824908669469565 4.9387686910850732 0 -0.83867057594974714 0.54463902268945019 1 0 0 forward_v I I I I #
coedge $-1 $212 $213 $214 $215 reversed $84 $-1 #
face $-1 $-1 $216 $46 $-1 $217 forward single #
loop $-1 $218 $219 $86 #
cone-surface $-1 17.573047314870365 -18.9588133477572 6.1505602998703175 0 0.83867057594974714 -0.54463902268945019 0.5 0 0 1 I I -0.70710678118654746 0.70710678118654746 0.5 forward I I I I #
loop $-1 $-1 $220 $59 #
coedge $-1 $138 $138 $221 $222 reversed $87 $-1 #
face $-1 $223 $224 $47 $-1 $225 reversed single #
loop $-1 $-1 $226 $89 #
plane-surface $-1 42.479667785738201 -21.824908669469565 4.9387686910850732 0 -0.83867057594974714 0.54463902268945019 1 0 0 forward_v I I I I #
coedge $-1 $227 $228 $229 $230 reversed $90 $-1 #
face $-1 $-1 $231 $48 $-1 $232 forward single #
loop $-1 $233 $234 $92 #
cone-surface $-1 42.479667785738201 -18.9588133477572 6.1505602998703175 0 0.83867057594974714 -0.54463902268945019 0.5 0 0 1 I I -0.70710678118654746 0.70710678118654746 0.5 forward I I I I #
loop $-1 $-1 $235 $61 #
coedge $-1 $147 $147 $236 $237 reversed $93 $-1 #
face $-1 $238 $239 $49 $-1 $240 reversed single #
loop $-1 $-1 $241 $95 #
plane-surface $-1 30.272538908834704 5.8479723463733535e-007 43.759943047023363 0 0.86602541151947299 0.49999998660252726 1 0 0 forward_v I I I I #
coedge $-1 $242 $243 $244 $245 reversed $96 $-1 #
face $-1 $-1 $246 $50 $-1 $247 forward single #
loop $-1 $248 $249 $98 #
cone-surface $-1 24.286677923620999 19.788693400017614 6.9849203841712999 0 -0.86602541151947299 -0.49999998660252726 0.25 0 0 1 I I -0.70710678118654746 0.70710678118654746 0.25 forward I I I I #
loop $-1 $-1 $250 $63 #
coedge $-1 $156 $156 $251 $252 reversed $99 $-1 #
face $-1 $-1 $253 $51 $-1 $254 forward single #
loop $-1 $255 $256 $101 #
cone-surface $-1 36.258399894048409 19.788693400017614 6.9849203841712999 0 -0.86602541151947299 -0.49999998660252726 0.25 0 0 1 I I -0.70710678118654746 0.70710678118654746 0.25 forward I I I I #
loop $-1 $-1 $257 $64 #
coedge $-1 $161 $161 $258 $259 reversed $102 $-1 #
face $-1 $260 $261 $39 $-1 $262 reversed single #
loop $-1 $-1 $263 $104 #
plane-surface $-1 0 -21.824908669469558 0 0 1 0 0 0 1 forward_v I I I I #
coedge $-1 $264 $265 $266 $267 forward $105 $-1 #
coedge $-1 $268 $107 $269 $270 forward $66 $-1 #
coedge $-1 $107 $268 $271 $272 forward $66 $-1 #
coedge $-1 $273 $274 $107 $169 reversed $275 $-1 #
edge $-1 $276 -21.824908669469558 $277 21.824908669469558 $168 $278 forward 7 unknown #
face $-1 $279 $280 $40 $-1 $281 reversed single #
loop $-1 $-1 $282 $108 #
plane-surface $-1 -42.763852358660003 -7.2573519990306536 0 -1 0 0 0 0 1 forward_v I I I I #
coedge $-1 $283 $284 $285 $286 forward $109 $-1 #
coedge $-1 $287 $111 $288 $289 reversed $69 $-1 #
coedge $-1 $111 $287 $290 $291 reversed $69 $-1 #
coedge $-1 $292 $293 $111 $177 forward $294 $-1 #
edge $-1 $295 -9.2617487115301387 $296 9.2617487115301387 $176 $297 forward 7 unknown #
face $-1 $298 $299 $41 $-1 $300 reversed single #
loop $-1 $-1 $301 $112 #
plane-surface $-1 -37.842443532238349 -110.72956942489319 62.674128598682934 1 0 0 0 0.83867057594974714 -0.54463902268945019 forward_v I I I I #
coedge $-1 $302 $303 $304 $305 reversed $113 $-1 #
coedge $-1 $183 $115 $306 $307 reversed $72 $-1 #
coedge $-1 $115 $182 $302 $308 reversed $72 $-1 #
coedge $-1 $304 $309 $115 $185 forward $310 $-1 #
edge $-1 $311 33.539876042977035 $312 36.347252003168457 $184 $313 forward 7 unknown #
loop $-1 $-1 $191 $116 #
plane-surface $-1 -32.240193626865306 -21.824908669469565 4.9387686910850732 0 -0.83867057594974714 0.54463902268945019 1 0 0 forward_v I I I I #
loop $-1 $-1 $314 $74 #
coedge $-1 $189 $189 $190 $315 reversed $117 $-1 #
coedge $-1 $190 $190 $189 $315 forward $119 $-1 #
coedge $-1 $191 $191 $120 $192 forward $186 $-1 #
edge $-1 $316 -1.9349465059173461e-015 $316 6.2831853071795987 $191 $317 forward 7 unknown #
face $-1 $318 $319 $43 $-1 $320 reversed single #
loop $-1 $-1 $321 $121 #
plane-surface $-1 -12.93582306137051 -110.72956942489319 62.674128598682934 1 0 0 0 0.83867057594974714 -0.54463902268945019 forward_v I I I I #
coedge $-1 $322 $323 $324 $325 reversed $122 $-1 #
coedge $-1 $198 $124 $326 $327 reversed $78 $-1 #
coedge $-1 $124 $197 $322 $328 reversed $78 $-1 #
coedge $-1 $324 $329 $124 $200 forward $330 $-1 #
edge $-1 $331 33.539876042977035 $332 36.347252003168457 $199 $333 forward 7 unknown #
loop $-1 $-1 $206 $125 #
plane-surface $-1 -7.3335731559974704 -21.824908669469565 4.9387686910850732 0 -0.83867057594974714 0.54463902268945019 1 0 0 forward_v I I I I #
loop $-1 $-1 $334 $80 #
coedge $-1 $204 $204 $205 $335 reversed $126 $-1 #
coedge $-1 $205 $205 $204 $335 forward $128 $-1 #
coedge $-1 $206 $206 $129 $207 forward $201 $-1 #
edge $-1 $336 -1.9349465059173461e-015 $336 6.2831853071795987 $206 $337 forward 7 unknown #
face $-1 $338 $339 $45 $-1 $340 reversed single #
loop $-1 $-1 $341 $130 #
plane-surface $-1 11.970797409497326 -110.72956942489319 62.674128598682934 1 0 0 0 0.83867057594974714 -0.54463902268945019 forward_v I I I I #
coedge $-1 $342 $343 $344 $345 reversed $131 $-1 #
coedge $-1 $213 $133 $346 $347 reversed $84 $-1 #
coedge $-1 $133 $212 $342 $348 reversed $84 $-1 #
coedge $-1 $344 $349 $133 $215 forward $350 $-1 #
edge $-1 $351 33.539876042977035 $352 36.347252003168457 $214 $353 forward 7 unknown #
loop $-1 $-1 $221 $134 #
plane-surface $-1 17.573047314870365 -21.824908669469565 4.9387686910850732 0 -0.83867057594974714 0.54463902268945019 1 0 0 forward_v I I I I #
loop $-1 $-1 $354 $86 #
coedge $-1 $219 $219 $220 $355 reversed $135 $-1 #
coedge $-1 $220 $220 $219 $355 forward $137 $-1 #
coedge $-1 $221 $221 $138 $222 forward $216 $-1 #
edge $-1 $356 -1.9349465059173461e-015 $356 6.2831853071795987 $221 $357 forward 7 unknown #
face $-1 $358 $359 $47 $-1 $360 reversed single #
loop $-1 $-1 $361 $139 #
plane-surface $-1 36.877417880365158 -110.72956942489319 62.674128598682934 1 0 0 0 0.83867057594974714 -0.54463902268945019 forward_v I I I I #
coedge $-1 $362 $363 $364 $365 reversed $140 $-1 #
coedge $-1 $228 $142 $366 $367 reversed $90 $-1 #
coedge $-1 $142 $227 $362 $368 reversed $90 $-1 #
coedge $-1 $364 $369 $142 $230 forward $370 $-1 #
edge $-1 $371 33.539876042977035 $372 36.347252003168457 $229 $373 forward 7 unknown #
loop $-1 $-1 $236 $143 #
plane-surface $-1 42.479667785738201 -21.824908669469565 4.9387686910850732 0 -0.83867057594974714 0.54463902268945019 1 0 0 forward_v I I I I #
loop $-1 $-1 $374 $92 #
coedge $-1 $234 $234 $235 $375 reversed $144 $-1 #
coedge $-1 $235 $235 $234 $375 forward $146 $-1 #
coedge $-1 $236 $236 $147 $237 forward $231 $-1 #
edge $-1 $376 -1.9349465059173461e-015 $376 6.2831853071795987 $236 $377 forward 7 unknown #
face $-1 $378 $379 $49 $-1 $380 reversed single #
loop $-1 $-1 $381 $148 #
plane-surface $-1 44.239547874333354 91.804455903292052 96.763268144335001 -1 0 0 0 0.86602541151947299 0.49999998660252726 forward_v I I I I #
coedge $-1 $382 $383 $384 $385 reversed $149 $-1 #
coedge $-1 $243 $151 $386 $387 reversed $96 $-1 #
coedge $-1 $151 $242 $382 $388 reversed $96 $-1 #
coedge $-1 $384 $389 $151 $245 forward $390 $-1 #
edge $-1 $391 24.077319282176468 $392 25.984686292281673 $244 $393 forward 7 unknown #
loop $-1 $-1 $251 $152 #
plane-surface $-1 30.272538908834704 5.8479723463733535e-007 43.759943047023363 0 0.86602541151947299 0.49999998660252726 1 0 0 forward_v I I I I #
loop $-1 $-1 $394 $98 #
coedge $-1 $249 $249 $250 $395 reversed $153 $-1 #
coedge $-1 $250 $250 $249 $395 forward $155 $-1 #
coedge $-1 $251 $251 $156 $252 forward $246 $-1 #
edge $-1 $396 4.7597325791166719e-016 $396 6.2831853071796013 $251 $397 forward 7 unknown #
loop $-1 $-1 $258 $157 #
plane-surface $-1 30.272538908834704 5.8479723463733535e-007 43.759943047023363 0 0.86602541151947299 0.49999998660252726 1 0 0 forward_v I I I I #
loop $-1 $-1 $398 $101 #
coedge $-1 $256 $256 $257 $399 reversed $158 $-1 #
coedge $-1 $257 $257 $256 $399 forward $160 $-1 #
coedge $-1 $258 $258 $161 $259 forward $253 $-1 #
edge $-1 $400 4.7597325791166719e-016 $400 6.2831853071796013 $258 $401 forward 7 unknown #
face $-1 $402 $403 $39 $-1 $404 reversed single #
loop $-1 $-1 $405 $162 #
plane-surface $-1 -53.003326517532884 0 0 1 0 0 0 0 -1 forward_v I I I I #
coedge $-1 $406 $271 $407 $408 forward $163 $-1 #
coedge $-1 $409 $165 $406 $410 forward $105 $-1 #
coedge $-1 $165 $409 $411 $412 forward $105 $-1 #
coedge $-1 $274 $273 $165 $267 reversed $275 $-1 #
edge $-1 $413 -21.824908669469558 $414 21.824908669469558 $266 $415 forward 7 unknown #
coedge $-1 $167 $166 $416 $417 forward $66 $-1 #
coedge $-1 $418 $419 $166 $270 reversed $403 $-1 #
edge $-1 $277 -53.003326517532884 $420 53.003326517532884 $269 $421 forward 7 unknown #
coedge $-1 $263 $422 $167 $272 reversed $163 $-1 #
edge $-1 $423 -53.003326517532884 $276 53.003326517532884 $271 $424 forward 7 unknown #
coedge $-1 $266 $168 $422 $425 forward $275 $-1 #
coedge $-1 $168 $266 $418 $426 reversed $275 $-1 #
loop $-1 $-1 $273 $402 #
vertex $-1 $169 $427 #
vertex $-1 $169 $428 #
straight-curve $-1 53.003326517532884 0 9.2617487115301387 0 1 0 I I #
face $-1 $429 $430 $40 $-1 $431 forward single #
loop $-1 $-1 $432 $170 #
plane-surface $-1 0 0 -9.2617487115301387 0 0 1 1 0 0 forward_v I I I I #
coedge $-1 $433 $434 $287 $435 forward $171 $-1 #
coedge $-1 $436 $173 $432 $437 reversed $109 $-1 #
coedge $-1 $173 $436 $438 $439 reversed $109 $-1 #
coedge $-1 $434 $433 $173 $286 reversed $171 $-1 #
edge $-1 $440 -9.2617487115301387 $441 9.2617487115301387 $285 $442 forward 7 unknown #
coedge $-1 $175 $174 $282 $435 reversed $69 $-1 #
coedge $-1 $443 $444 $174 $289 forward $280 $-1 #
edge $-1 $445 18.822057639611781 $295 29.061531798484662 $288 $446 forward 7 unknown #
coedge $-1 $447 $448 $175 $291 forward $430 $-1 #
edge $-1 $296 -29.061531798484662 $449 -18.822057639611781 $290 $450 forward 7 unknown #
coedge $-1 $451 $176 $448 $452 reversed $294 $-1 #
coedge $-1 $176 $451 $443 $453 reversed $294 $-1 #
loop $-1 $-1 $451 $429 #
vertex $-1 $453 $454 #
vertex $-1 $177 $455 #
straight-curve $-1 -53.003326517532884 -8.7573519990306536 0 0 0 1 I I #
face $-1 $-1 $310 $41 $-1 $456 forward single #
loop $-1 $-1 $457 $178 #
plane-surface $-1 0 -21.824908669469558 0 0 1 0 0 0 1 forward_v I I I I #
coedge $-1 $458 $459 $460 $461 reversed $179 $-1 #
coedge $-1 $462 $181 $183 $308 forward $113 $-1 #
coedge $-1 $181 $462 $458 $463 forward $113 $-1 #
coedge $-1 $460 $184 $181 $305 forward $310 $-1 #
edge $-1 $312 10.517846908059614 $464 21.722346718805696 $304 $465 forward 7 unknown #
coedge $-1 $466 $467 $182 $307 forward $299 $-1 #
edge $-1 $468 -26.398295608256383 $311 -22.075315587811328 $306 $469 forward 7 unknown #
edge $-1 $312 -5.1545626428464297 $468 -1.2808562293387176e-014 $183 $470 forward 7 unknown #
coedge $-1 $184 $460 $466 $471 forward $310 $-1 #
loop $-1 $-1 $460 $298 #
vertex $-1 $307 $472 #
vertex $-1 $185 $473 #
straight-curve $-1 -26.637943721492267 -55.364784712446593 9.2617487115301387 0 1 0 I I #
coedge $-1 $314 $314 $-1 $474 reversed $188 $-1 #
edge $-1 $475 0 $475 6.2831853071796004 $189 $476 forward 7 unknown #
vertex $-1 $192 $477 #
ellipse-curve $-1 -32.240193626865306 -20.421220689373847 7.1002587013076104 0 -0.83867057594974714 0.54463902268945019 1 0 0 1 I I #
face $-1 $-1 $330 $43 $-1 $478 forward single #
loop $-1 $-1 $479 $193 #
plane-surface $-1 0 -21.824908669469558 0 0 1 0 0 0 1 forward_v I I I I #
coedge $-1 $480 $481 $482 $483 reversed $194 $-1 #
coedge $-1 $484 $196 $198 $328 forward $122 $-1 #
coedge $-1 $196 $484 $480 $485 forward $122 $-1 #
coedge $-1 $482 $199 $196 $325 forward $330 $-1 #
edge $-1 $332 -1.9354633273743049 $486 9.2690364833717744 $324 $487 forward 7 unknown #
coedge $-1 $488 $489 $197 $327 forward $319 $-1 #
edge $-1 $490 -26.398295608256383 $331 -22.075315587811328 $326 $491 forward 7 unknown #
edge $-1 $332 -5.1545626428464297 $490 -1.2808562293387176e-014 $198 $492 forward 7 unknown #
coedge $-1 $199 $482 $488 $493 forward $330 $-1 #
loop $-1 $-1 $482 $318 #
vertex $-1 $327 $494 #
vertex $-1 $200 $495 #
straight-curve $-1 -1.7313232506244303 -55.364784712446593 9.2617487115301387 0 1 0 I I #
coedge $-1 $334 $334 $-1 $496 reversed $203 $-1 #
edge $-1 $497 0 $497 6.2831853071796004 $204 $498 forward 7 unknown #
vertex $-1 $207 $499 #
ellipse-curve $-1 -7.3335731559974704 -20.421220689373847 7.1002587013076104 0 -0.83867057594974714 0.54463902268945019 1 0 0 1 I I #
face $-1 $-1 $350 $45 $-1 $500 forward single #
loop $-1 $-1 $501 $208 #
plane-surface $-1 0 -21.824908669469558 0 0 1 0 0 0 1 forward_v I I I I #
coedge $-1 $502 $503 $504 $505 reversed $209 $-1 #
coedge $-1 $506 $211 $213 $348 forward $131 $-1 #
coedge $-1 $211 $506 $502 $507 forward $131 $-1 #
coedge $-1 $504 $214 $211 $345 forward $350 $-1 #
edge $-1 $352 -14.388773562808222 $508 -3.1842737520621434 $344 $509 forward 7 unknown #
coedge $-1 $510 $511 $212 $347 forward $339 $-1 #
edge $-1 $512 -26.398295608256383 $351 -22.075315587811328 $346 $513 forward 7 unknown #
edge $-1 $352 -5.1545626428464297 $512 -1.2808562293387176e-014 $213 $514 forward 7 unknown #
coedge $-1 $214 $504 $510 $515 forward $350 $-1 #
loop $-1 $-1 $504 $338 #
vertex $-1 $347 $516 #
vertex $-1 $215 $517 #
straight-curve $-1 23.175297220243404 -55.364784712446593 9.2617487115301387 0 1 0 I I #
coedge $-1 $354 $354 $-1 $518 reversed $218 $-1 #
edge $-1 $519 0 $519 6.2831853071796004 $219 $520 forward 7 unknown #
vertex $-1 $222 $521 #
ellipse-curve $-1 17.573047314870365 -20.421220689373847 7.1002587013076104 0 -0.83867057594974714 0.54463902268945019 1 0 0 1 I I #
face $-1 $-1 $370 $47 $-1 $522 forward single #
loop $-1 $-1 $523 $223 #
plane-surface $-1 0 -21.824908669469558 0 0 1 0 0 0 1 forward_v I I I I #
coedge $-1 $524 $525 $526 $527 reversed $224 $-1 #
coedge $-1 $528 $226 $228 $368 forward $140 $-1 #
coedge $-1 $226 $528 $524 $529 forward $140 $-1 #
coedge $-1 $526 $229 $226 $365 forward $370 $-1 #
edge $-1 $372 -26.842083798242143 $530 -15.637583987496058 $364 $531 forward 7 unknown #
coedge $-1 $532 $533 $227 $367 forward $359 $-1 #
edge $-1 $534 -26.398295608256383 $371 -22.075315587811328 $366 $535 forward 7 unknown #
edge $-1 $372 -5.1545626428464297 $534 -1.2808562293387176e-014 $228 $536 forward 7 unknown #
coedge $-1 $229 $526 $532 $537 forward $370 $-1 #
loop $-1 $-1 $526 $358 #
vertex $-1 $367 $538 #
vertex $-1 $230 $539 #
straight-curve $-1 48.081917691111244 -55.364784712446593 9.2617487115301387 0 1 0 I I #
coedge $-1 $374 $374 $-1 $540 reversed $233 $-1 #
edge $-1 $541 0 $541 6.2831853071796004 $234 $542 forward 7 unknown #
vertex $-1 $237 $543 #
ellipse-curve $-1 42.479667785738201 -20.421220689373847 7.1002587013076104 0 -0.83867057594974714 0.54463902268945019 1 0 0 1 I I #
face $-1 $-1 $390 $49 $-1 $544 forward single #
loop $-1 $-1 $545 $238 #
plane-surface $-1 0 21.824908669469558 0 0 -1 0 0 0 -1 forward_v I I I I #
coedge $-1 $546 $547 $548 $549 reversed $239 $-1 #
coedge $-1 $550 $241 $243 $388 forward $149 $-1 #
coedge $-1 $241 $550 $546 $551 forward $149 $-1 #
coedge $-1 $548 $244 $241 $385 forward $390 $-1 #
edge $-1 $392 1.1692604889187024 $552 29.103278419916002 $384 $553 forward 7 unknown #
coedge $-1 $554 $555 $242 $387 forward $379 $-1 #
edge $-1 $556 -42.423542048848716 $391 -39.119885360637362 $386 $557 forward 7 unknown #
edge $-1 $392 39.835083216513119 $556 43.649817338939116 $243 $558 forward 7 unknown #
coedge $-1 $244 $548 $554 $559 forward $390 $-1 #
loop $-1 $-1 $548 $378 #
vertex $-1 $387 $560 #
vertex $-1 $245 $561 #
straight-curve $-1 16.305529943336055 45.902227951646026 9.2617487115301387 0 -1 0 I I #
coedge $-1 $394 $394 $-1 $562 reversed $248 $-1 #
edge $-1 $563 0 $563 6.2831853071796004 $249 $564 forward 7 unknown #
vertex $-1 $252 $565 #
ellipse-curve $-1 24.286677923620999 20.871225164416952 7.6099203674244569 0 0.86602541151947299 0.49999998660252726 0.5 0 0 1 I I #
coedge $-1 $398 $398 $-1 $566 reversed $255 $-1 #
edge $-1 $567 0 $567 6.2831853071796004 $256 $568 forward 7 unknown #
vertex $-1 $259 $569 #
ellipse-curve $-1 36.258399894048409 20.871225164416952 7.6099203674244569 0 0.86602541151947299 0.49999998660252726 0.5 0 0 1 I I #
face $-1 $-1 $275 $39 $-1 $570 reversed single #
loop $-1 $-1 $418 $260 #
plane-surface $-1 0 21.824908669469558 0 0 -1 0 0 0 -1 forward_v I I I I #
coedge $-1 $571 $416 $419 $572 forward $261 $-1 #
coedge $-1 $422 $263 $264 $410 reversed $163 $-1 #
coedge $-1 $416 $571 $263 $408 reversed $261 $-1 #
edge $-1 $423 -9.2617487115301387 $573 9.2617487115301387 $407 $574 forward 7 unknown #
coedge $-1 $265 $264 $571 $575 forward $105 $-1 #
edge $-1 $414 -53.003326517532884 $573 53.003326517532884 $406 $576 forward 7 unknown #
coedge $-1 $419 $418 $265 $412 reversed $403 $-1 #
edge $-1 $577 -53.003326517532884 $413 53.003326517532884 $411 $578 forward 7 unknown #
vertex $-1 $267 $579 #
vertex $-1 $425 $580 #
straight-curve $-1 53.003326517532884 0 -9.2617487115301387 0 -1 0 I I #
coedge $-1 $405 $407 $268 $417 reversed $261 $-1 #
edge $-1 $420 -21.824908669469558 $423 21.824908669469558 $416 $581 forward 7 unknown #
coedge $-1 $411 $269 $274 $426 forward $403 $-1 #
coedge $-1 $269 $411 $405 $572 reversed $403 $-1 #
vertex $-1 $270 $582 #
straight-curve $-1 0 21.824908669469558 9.2617487115301387 -1 0 0 I I #
coedge $-1 $271 $406 $273 $425 reversed $163 $-1 #
vertex $-1 $417 $583 #
straight-curve $-1 0 -21.824908669469558 9.2617487115301387 1 0 0 I I #
edge $-1 $276 -9.2617487115301387 $414 9.2617487115301387 $273 $584 forward 7 unknown #
edge $-1 $277 -9.2617487115301387 $413 9.2617487115301387 $274 $585 forward 7 unknown #
point $-1 53.003326517532884 -21.824908669469558 9.2617487115301387 #
point $-1 53.003326517532884 21.824908669469558 9.2617487115301387 #
face $-1 $-1 $294 $40 $-1 $586 reversed single #
loop $-1 $-1 $438 $279 #
plane-surface $-1 0 0 9.2617487115301387 0 0 1 1 0 0 forward_v I I I I #
coedge $-1 $444 $443 $283 $437 forward $280 $-1 #
coedge $-1 $285 $282 $444 $587 reversed $171 $-1 #
coedge $-1 $282 $285 $447 $588 reversed $171 $-1 #
edge $-1 $449 -9.2617487115301387 $445 9.2617487115301387 $282 $589 forward 7 unknown #
coedge $-1 $284 $283 $451 $590 reversed $109 $-1 #
edge $-1 $591 -29.061531798484662 $441 -18.822057639611781 $432 $592 forward 7 unknown #
coedge $-1 $448 $447 $284 $439 forward $430 $-1 #
edge $-1 $440 18.822057639611781 $593 29.061531798484662 $438 $594 forward 7 unknown #
vertex $-1 $439 $595 #
vertex $-1 $437 $596 #
straight-curve $-1 -42.763852358660003 -5.7573519990306545 0 0 0 -1 I I #
coedge $-1 $432 $288 $293 $453 forward $280 $-1 #
coedge $-1 $288 $432 $433 $587 forward $280 $-1 #
vertex $-1 $289 $597 #
straight-curve $-1 -23.941794719048222 -8.7573519990306536 -9.2617487115301387 -1 0 0 I I #
coedge $-1 $438 $290 $434 $588 forward $430 $-1 #
coedge $-1 $290 $438 $292 $452 forward $430 $-1 #
vertex $-1 $291 $598 #
straight-curve $-1 -23.941794719048222 -8.7573519990306536 9.2617487115301387 1 0 0 I I #
coedge $-1 $293 $292 $436 $590 forward $294 $-1 #
edge $-1 $593 5.7573519990306545 $296 8.7573519990306536 $292 $599 forward 7 unknown #
edge $-1 $295 -8.7573519990306536 $591 -5.7573519990306545 $293 $600 forward 7 unknown #
point $-1 -53.003326517532884 -8.7573519990306536 -9.2617487115301387 #
point $-1 -53.003326517532884 -8.7573519990306536 9.2617487115301387 #
plane-surface $-1 0 0 9.2617487115301387 0 0 1 1 0 0 forward_v I I I I #
coedge $-1 $467 $466 $459 $601 forward $299 $-1 #
coedge $-1 $459 $301 $303 $463 reversed $179 $-1 #
coedge $-1 $301 $458 $457 $601 reversed $179 $-1 #
coedge $-1 $309 $304 $301 $461 forward $310 $-1 #
edge $-1 $464 -36.347252003168457 $602 -33.539876042977035 $460 $603 forward 7 unknown #
coedge $-1 $303 $302 $467 $604 reversed $113 $-1 #
edge $-1 $605 1.2808562293387176e-014 $464 5.1545626428464297 $458 $606 forward 7 unknown #
vertex $-1 $305 $607 #
straight-curve $-1 -16.120096813432653 -19.017532709278136 9.2617487115301387 -1 0 0 I I #
coedge $-1 $457 $306 $309 $471 reversed $299 $-1 #
coedge $-1 $306 $457 $462 $604 forward $299 $-1 #
vertex $-1 $307 $608 #
straight-curve $-1 -26.637943721492267 -21.824908669469558 31.337064299341467 0 0 1 I I #
straight-curve $-1 -26.637943721492267 -21.824908669469565 4.9387686910850732 0 -0.54463902268945019 -0.83867057594974714 I I #
edge $-1 $602 -37.842443532238349 $311 -26.637943721492267 $466 $609 forward 7 unknown #
point $-1 -26.637943721492267 -21.824908669469558 9.2617487115301387 #
point $-1 -26.637943721492267 -19.017532709278136 9.2617487115301387 #
edge $-1 $610 1 $610 0 $314 $-1 forward 7 unknown #
vertex $-1 $315 $611 #
ellipse-curve $-1 -32.240193626865306 -19.378148635732074 6.4228798112150427 0 -0.83867057594974714 0.54463902268945019 1 0 0 1 I I #
point $-1 -31.240193626865306 -20.42122068937385 7.1002587013076104 #
plane-surface $-1 0 0 9.2617487115301387 0 0 1 1 0 0 forward_v I I I I #
coedge $-1 $489 $488 $481 $612 forward $319 $-1 #
coedge $-1 $481 $321 $323 $485 reversed $194 $-1 #
coedge $-1 $321 $480 $479 $612 reversed $194 $-1 #
coedge $-1 $329 $324 $321 $483 forward $330 $-1 #
edge $-1 $486 -36.347252003168457 $613 -33.539876042977035 $482 $614 forward 7 unknown #
coedge $-1 $323 $322 $489 $615 reversed $122 $-1 #
edge $-1 $616 1.2808562293387176e-014 $486 5.1545626428464297 $480 $617 forward 7 unknown #
vertex $-1 $325 $618 #
straight-curve $-1 -3.6667865779987352 -19.017532709278136 9.2617487115301387 -1 0 0 I I #
coedge $-1 $479 $326 $329 $493 reversed $319 $-1 #
coedge $-1 $326 $479 $484 $615 forward $319 $-1 #
vertex $-1 $327 $619 #
straight-curve $-1 -1.7313232506244303 -21.824908669469558 31.337064299341467 0 0 1 I I #
straight-curve $-1 -1.7313232506244303 -21.824908669469565 4.9387686910850732 0 -0.54463902268945019 -0.83867057594974714 I I #
edge $-1 $613 -12.93582306137051 $331 -1.7313232506244303 $488 $620 forward 7 unknown #
point $-1 -1.7313232506244303 -21.824908669469558 9.2617487115301387 #
point $-1 -1.7313232506244303 -19.017532709278136 9.2617487115301387 #
edge $-1 $621 1 $621 0 $334 $-1 forward 7 unknown #
vertex $-1 $335 $622 #
ellipse-curve $-1 -7.3335731559974704 -19.378148635732074 6.4228798112150427 0 -0.83867057594974714 0.54463902268945019 1 0 0 1 I I #
point $-1 -6.3335731559974704 -20.42122068937385 7.1002587013076104 #
plane-surface $-1 0 0 9.2617487115301387 0 0 1 1 0 0 forward_v I I I I #
coedge $-1 $511 $510 $503 $623 forward $339 $-1 #
coedge $-1 $503 $341 $343 $507 reversed $209 $-1 #
coedge $-1 $341 $502 $501 $623 reversed $209 $-1 #
coedge $-1 $349 $344 $341 $505 forward $350 $-1 #
edge $-1 $508 -36.347252003168457 $624 -33.539876042977035 $504 $625 forward 7 unknown #
coedge $-1 $343 $342 $511 $626 reversed $131 $-1 #
edge $-1 $627 1.2808562293387176e-014 $508 5.1545626428464297 $502 $628 forward 7 unknown #
vertex $-1 $345 $629 #
straight-curve $-1 8.7865236574351826 -19.017532709278136 9.2617487115301387 -1 0 0 I I #
coedge $-1 $501 $346 $349 $515 reversed $339 $-1 #
coedge $-1 $346 $501 $506 $626 forward $339 $-1 #
vertex $-1 $347 $630 #
straight-curve $-1 23.175297220243404 -21.824908669469558 31.337064299341467 0 0 1 I I #
straight-curve $-1 23.175297220243404 -21.824908669469565 4.9387686910850732 0 -0.54463902268945019 -0.83867057594974714 I I #
edge $-1 $624 11.970797409497326 $351 23.175297220243404 $510 $631 forward 7 unknown #
point $-1 23.175297220243404 -21.824908669469558 9.2617487115301387 #
point $-1 23.175297220243404 -19.017532709278136 9.2617487115301387 #
edge $-1 $632 1 $632 0 $354 $-1 forward 7 unknown #
vertex $-1 $355 $633 #
ellipse-curve $-1 17.573047314870365 -19.378148635732074 6.4228798112150427 0 -0.83867057594974714 0.54463902268945019 1 0 0 1 I I #
point $-1 18.573047314870365 -20.42122068937385 7.1002587013076104 #
plane-surface $-1 0 0 9.2617487115301387 0 0 1 1 0 0 forward_v I I I I #
coedge $-1 $533 $532 $525 $634 forward $359 $-1 #
coedge $-1 $525 $361 $363 $529 reversed $224 $-1 #
coedge $-1 $361 $524 $523 $634 reversed $224 $-1 #
coedge $-1 $369 $364 $361 $527 forward $370 $-1 #
edge $-1 $530 -36.347252003168457 $635 -33.539876042977035 $526 $636 forward 7 unknown #
coedge $-1 $363 $362 $533 $637 reversed $140 $-1 #
edge $-1 $638 1.2808562293387176e-014 $530 5.1545626428464297 $524 $639 forward 7 unknown #
vertex $-1 $365 $640 #
straight-curve $-1 21.2398338928691 -19.017532709278136 9.2617487115301387 -1 0 0 I I #
coedge $-1 $523 $366 $369 $537 reversed $359 $-1 #
coedge $-1 $366 $523 $528 $637 forward $359 $-1 #
vertex $-1 $367 $641 #
straight-curve $-1 48.081917691111244 -21.824908669469558 31.337064299341467 0 0 1 I I #
straight-curve $-1 48.081917691111244 -21.824908669469565 4.9387686910850732 0 -0.54463902268945019 -0.83867057594974714 I I #
edge $-1 $635 36.877417880365158 $371 48.081917691111244 $532 $642 forward 7 unknown #
point $-1 48.081917691111244 -21.824908669469558 9.2617487115301387 #
point $-1 48.081917691111244 -19.017532709278136 9.2617487115301387 #
edge $-1 $643 1 $643 0 $374 $-1 forward 7 unknown #
vertex $-1 $375 $644 #
ellipse-curve $-1 42.479667785738201 -19.378148635732074 6.4228798112150427 0 -0.83867057594974714 0.54463902268945019 1 0 0 1 I I #
point $-1 43.479667785738201 -20.42122068937385 7.1002587013076104 #
plane-surface $-1 0 0 9.2617487115301387 0 0 1 1 0 0 forward_v I I I I #
coedge $-1 $555 $554 $547 $645 forward $379 $-1 #
coedge $-1 $547 $381 $383 $551 reversed $239 $-1 #
coedge $-1 $381 $546 $545 $645 reversed $239 $-1 #
coedge $-1 $389 $384 $381 $549 forward $390 $-1 #
edge $-1 $552 -25.984686292281673 $646 -24.077319282176468 $548 $647 forward 7 unknown #
coedge $-1 $383 $382 $555 $648 reversed $149 $-1 #
edge $-1 $649 -43.649817338939116 $552 -39.835083216513119 $546 $650 forward 7 unknown #
vertex $-1 $385 $651 #
straight-curve $-1 15.136269454417352 19.917541659364346 9.2617487115301387 1 0 0 I I #
coedge $-1 $545 $386 $389 $559 reversed $379 $-1 #
coedge $-1 $386 $545 $550 $648 forward $379 $-1 #
vertex $-1 $387 $652 #
straight-curve $-1 16.305529943336055 21.824908669469558 48.3816340721675 0 0 1 I I #
straight-curve $-1 16.305529943336055 5.8479723463733535e-007 43.759943047023363 0 0.49999998660252726 -0.86602541151947299 I I #
edge $-1 $646 -44.239547874333354 $391 -16.305529943336055 $554 $653 forward 7 unknown #
point $-1 16.305529943336055 21.824908669469558 9.2617487115301387 #
point $-1 16.305529943336055 19.917541659364353 9.2617487115301387 #
edge $-1 $654 1 $654 0 $394 $-1 forward 7 unknown #
vertex $-1 $395 $655 #
ellipse-curve $-1 24.286677923620999 20.005199752897482 7.109920380821932 0 0.86602541151947299 0.49999998660252726 0.5 0 0 1 I I #
point $-1 24.786677923620999 20.871225164416956 7.6099203674244587 #
edge $-1 $656 1 $656 0 $398 $-1 forward 7 unknown #
vertex $-1 $399 $657 #
ellipse-curve $-1 36.258399894048409 20.005199752897482 7.109920380821932 0 0.86602541151947299 0.49999998660252726 0.5 0 0 1 I I #
point $-1 36.758399894048409 20.871225164416956 7.6099203674244587 #
plane-surface $-1 53.003326517532884 0 0 -1 0 0 0 0 1 forward_v I I I I #
coedge $-1 $407 $405 $409 $575 reversed $261 $-1 #
edge $-1 $420 -9.2617487115301387 $577 9.2617487115301387 $419 $658 forward 7 unknown #
vertex $-1 $575 $659 #
straight-curve $-1 -53.003326517532884 -21.824908669469558 0 0 0 -1 I I #
edge $-1 $573 -21.824908669469558 $577 21.824908669469558 $571 $660 forward 7 unknown #
straight-curve $-1 0 -21.824908669469558 -9.2617487115301387 -1 0 0 I I #
vertex $-1 $412 $661 #
straight-curve $-1 0 21.824908669469558 -9.2617487115301387 1 0 0 I I #
point $-1 53.003326517532884 21.824908669469558 -9.2617487115301387 #
point $-1 53.003326517532884 -21.824908669469558 -9.2617487115301387 #
straight-curve $-1 -53.003326517532884 0 9.2617487115301387 0 -1 0 I I #
point $-1 -53.003326517532884 21.824908669469558 9.2617487115301387 #
point $-1 -53.003326517532884 -21.824908669469558 9.2617487115301387 #
straight-curve $-1 53.003326517532884 -21.824908669469558 0 0 0 -1 I I #
straight-curve $-1 53.003326517532884 21.824908669469558 0 0 0 -1 I I #
plane-surface $-1 -53.003326517532884 0 0 1 0 0 0 0 -1 forward_v I I I I #
edge $-1 $441 2.1286759995153277 $445 5.1286759995153268 $444 $662 forward 7 unknown #
edge $-1 $449 -5.1286759995153268 $440 -2.1286759995153277 $447 $663 forward 7 unknown #
straight-curve $-1 -42.763852358660003 -8.7573519990306536 0 0 0 -1 I I #
edge $-1 $593 -9.2617487115301387 $591 9.2617487115301387 $451 $664 forward 7 unknown #
vertex $-1 $590 $665 #
straight-curve $-1 -23.941794719048222 -5.7573519990306545 -9.2617487115301387 1 0 0 I I #
vertex $-1 $452 $666 #
straight-curve $-1 -23.941794719048222 -5.7573519990306545 9.2617487115301387 -1 0 0 I I #
point $-1 -42.763852358660003 -5.7573519990306545 9.2617487115301387 #
point $-1 -42.763852358660003 -5.7573519990306545 -9.2617487115301387 #
point $-1 -42.763852358660003 -8.7573519990306536 -9.2617487115301387 #
point $-1 -42.763852358660003 -8.7573519990306536 9.2617487115301387 #
straight-curve $-1 -53.003326517532884 0 9.2617487115301387 0 -1 0 I I #
straight-curve $-1 -53.003326517532884 0 -9.2617487115301387 0 1 0 I I #
edge $-1 $602 22.075315587811328 $605 26.398295608256383 $457 $667 forward 7 unknown #
vertex $-1 $471 $668 #
straight-curve $-1 -37.842443532238349 -55.364784712446593 9.2617487115301387 0 -1 0 I I #
edge $-1 $605 -21.722346718805696 $468 -10.517846908059614 $467 $669 forward 7 unknown #
vertex $-1 $604 $670 #
straight-curve $-1 -37.842443532238349 -21.824908669469565 4.9387686910850732 0 0.54463902268945019 0.83867057594974714 I I #
point $-1 -37.842443532238349 -19.017532709278136 9.2617487115301387 #
point $-1 -26.637943721492267 -21.824908669469558 4.9387686910850839 #
straight-curve $-1 0 -21.824908669469558 9.2617487115301387 1 0 0 I I #
vertex $-1 $474 $671 #
point $-1 -31.240193626865306 -19.378148635732074 6.4228798112150427 #
edge $-1 $613 22.075315587811328 $616 26.398295608256383 $479 $672 forward 7 unknown #
vertex $-1 $493 $673 #
straight-curve $-1 -12.93582306137051 -55.364784712446593 9.2617487115301387 0 -1 0 I I #
edge $-1 $616 -9.2690364833717744 $490 1.9354633273743049 $489 $674 forward 7 unknown #
vertex $-1 $615 $675 #
straight-curve $-1 -12.93582306137051 -21.824908669469565 4.9387686910850732 0 0.54463902268945019 0.83867057594974714 I I #
point $-1 -12.93582306137051 -19.017532709278136 9.2617487115301387 #
point $-1 -1.7313232506244303 -21.824908669469558 4.9387686910850839 #
straight-curve $-1 0 -21.824908669469558 9.2617487115301387 1 0 0 I I #
vertex $-1 $496 $676 #
point $-1 -6.3335731559974704 -19.378148635732074 6.4228798112150427 #
edge $-1 $624 22.075315587811328 $627 26.398295608256383 $501 $677 forward 7 unknown #
vertex $-1 $515 $678 #
straight-curve $-1 11.970797409497326 -55.364784712446593 9.2617487115301387 0 -1 0 I I #
edge $-1 $627 3.1842737520621434 $512 14.388773562808222 $511 $679 forward 7 unknown #
vertex $-1 $626 $680 #
straight-curve $-1 11.970797409497326 -21.824908669469565 4.9387686910850732 0 0.54463902268945019 0.83867057594974714 I I #
point $-1 11.970797409497326 -19.017532709278136 9.2617487115301387 #
point $-1 23.175297220243404 -21.824908669469558 4.9387686910850839 #
straight-curve $-1 0 -21.824908669469558 9.2617487115301387 1 0 0 I I #
vertex $-1 $518 $681 #
point $-1 18.573047314870365 -19.378148635732074 6.4228798112150427 #
edge $-1 $635 22.075315587811328 $638 26.398295608256383 $523 $682 forward 7 unknown #
vertex $-1 $537 $683 #
straight-curve $-1 36.877417880365158 -55.364784712446593 9.2617487115301387 0 -1 0 I I #
edge $-1 $638 15.637583987496058 $534 26.842083798242143 $533 $684 forward 7 unknown #
vertex $-1 $637 $685 #
straight-curve $-1 36.877417880365158 -21.824908669469565 4.9387686910850732 0 0.54463902268945019 0.83867057594974714 I I #
point $-1 36.877417880365158 -19.017532709278136 9.2617487115301387 #
point $-1 48.081917691111244 -21.824908669469558 4.9387686910850839 #
straight-curve $-1 0 -21.824908669469558 9.2617487115301387 1 0 0 I I #
vertex $-1 $540 $686 #
point $-1 43.479667785738201 -19.378148635732074 6.4228798112150427 #
edge $-1 $646 39.119885360637362 $649 42.423542048848716 $545 $687 forward 7 unknown #
vertex $-1 $559 $688 #
straight-curve $-1 44.239547874333354 45.902227951646026 9.2617487115301387 0 1 0 I I #
edge $-1 $649 -29.103278419916002 $556 -1.1692604889187024 $555 $689 forward 7 unknown #
vertex $-1 $648 $690 #
straight-curve $-1 44.239547874333354 5.8479723463733535e-007 43.759943047023363 0 -0.49999998660252726 0.86602541151947299 I I #
point $-1 44.239547874333354 19.917541659364353 9.2617487115301387 #
point $-1 16.305529943336055 21.824908669469558 5.958092023318784 #
straight-curve $-1 0 21.824908669469558 9.2617487115301387 -1 0 0 I I #
vertex $-1 $562 $691 #
point $-1 24.786677923620999 20.005199752897482 7.109920380821932 #
vertex $-1 $566 $692 #
point $-1 36.758399894048409 20.005199752897482 7.109920380821932 #
straight-curve $-1 -53.003326517532884 21.824908669469558 0 0 0 -1 I I #
point $-1 -53.003326517532884 -21.824908669469558 -9.2617487115301387 #
straight-curve $-1 -53.003326517532884 0 -9.2617487115301387 0 1 0 I I #
point $-1 -53.003326517532884 21.824908669469558 -9.2617487115301387 #
straight-curve $-1 -42.763852358660003 -3.6286759995153268 -9.2617487115301387 0 -1 0 I I #
straight-curve $-1 -42.763852358660003 -3.6286759995153268 9.2617487115301387 0 1 0 I I #
straight-curve $-1 -53.003326517532884 -5.7573519990306545 0 0 0 -1 I I #
point $-1 -53.003326517532884 -5.7573519990306545 -9.2617487115301387 #
point $-1 -53.003326517532884 -5.7573519990306545 9.2617487115301387 #
straight-curve $-1 -37.842443532238349 -21.824908669469558 31.337064299341467 0 0 -1 I I #
point $-1 -37.842443532238349 -21.824908669469558 9.2617487115301387 #
straight-curve $-1 -16.120096813432653 -21.824908669469558 4.9387686910850839 1 0 0 I I #
point $-1 -37.842443532238349 -21.824908669469558 4.9387686910850839 #
point $-1 -32.240193626865306 -18.539478059782326 5.8782407885255923 #
straight-curve $-1 -12.93582306137051 -21.824908669469558 31.337064299341467 0 0 -1 I I #
point $-1 -12.93582306137051 -21.824908669469558 9.2617487115301387 #
straight-curve $-1 -3.6667865779987352 -21.824908669469558 4.9387686910850839 1 0 0 I I #
point $-1 -12.93582306137051 -21.824908669469558 4.9387686910850839 #
point $-1 -7.3335731559974704 -18.539478059782326 5.8782407885255923 #
straight-curve $-1 11.970797409497326 -21.824908669469558 31.337064299341467 0 0 -1 I I #
point $-1 11.970797409497326 -21.824908669469558 9.2617487115301387 #
straight-curve $-1 8.7865236574351826 -21.824908669469558 4.9387686910850839 1 0 0 I I #
point $-1 11.970797409497326 -21.824908669469558 4.9387686910850839 #
point $-1 17.573047314870365 -18.539478059782326 5.8782407885255923 #
straight-curve $-1 36.877417880365158 -21.824908669469558 31.337064299341467 0 0 -1 I I #
point $-1 36.877417880365158 -21.824908669469558 9.2617487115301387 #
straight-curve $-1 21.2398338928691 -21.824908669469558 4.9387686910850839 1 0 0 I I #
point $-1 36.877417880365158 -21.824908669469558 4.9387686910850839 #
point $-1 42.479667785738201 -18.539478059782326 5.8782407885255923 #
straight-curve $-1 44.239547874333354 21.824908669469558 48.3816340721675 0 0 -1 I I #
point $-1 44.239547874333354 21.824908669469558 9.2617487115301387 #
straight-curve $-1 15.136269454417352 21.824908669469558 5.9580920233187804 -1 0 0 I I #
point $-1 44.239547874333354 21.824908669469558 5.958092023318784 #
point $-1 24.286677923620999 19.572187047137746 6.8599203875206678 #
point $-1 36.258399894048409 19.572187047137746 6.8599203875206678 #
End-of-ACIS-data 