500 0 11 0           
7 Unknown 11 ACIS 5.0 NT 24 Thu Mar 25 17:37:05 1999 
-1 9.9999999999999995e-007 1e-010 
body $-1 $11 $-1 $12 #
body $-1 $13 $-1 $14 #
body $-1 $15 $-1 $16 #
body $-1 $17 $-1 $18 #
body $-1 $19 $-1 $20 #
body $-1 $21 $-1 $22 #
body $-1 $23 $-1 $24 #
body $-1 $25 $-1 $26 #
body $-1 $27 $-1 $28 #
body $-1 $29 $-1 $30 #
body $-1 $31 $-1 $32 #
lump $-1 $-1 $33 $0 #
transform $-1 1 0 0 0 1 0 0 0 1 77.352214117862474 46.063129014484545 14.062138305148178 1 rotate no_reflect no_shear #
lump $-1 $-1 $34 $1 #
transform $-1 1 0 0 0 1 0 0 0 1 77.352214117862474 46.063129014484545 14.062138305148178 1 rotate no_reflect no_shear #
lump $-1 $-1 $35 $2 #
transform $-1 1 0 0 0 1 0 0 0 1 77.352214117862474 46.063129014484545 14.062138305148178 1 rotate no_reflect no_shear #
lump $-1 $-1 $36 $3 #
transform $-1 1 0 0 0 1 0 0 0 1 77.352214117862474 46.063129014484545 14.062138305148178 1 rotate no_reflect no_shear #
lump $-1 $-1 $37 $4 #
transform $-1 1 0 0 0 1 0 0 0 1 77.352214117862474 46.063129014484545 14.062138305148178 1 rotate no_reflect no_shear #
lump $-1 $-1 $38 $5 #
transform $-1 1 0 0 0 1 0 0 0 1 77.352214117862474 46.063129014484545 14.062138305148178 1 rotate no_reflect no_shear #
lump $-1 $-1 $39 $6 #
transform $-1 1 0 0 0 1 0 0 0 1 77.352214117862474 46.063129014484545 14.062138305148178 1 rotate no_reflect no_shear #
lump $-1 $-1 $40 $7 #
transform $-1 1 0 0 0 1 0 0 0 1 77.352214117862474 46.063129014484545 14.062138305148178 1 rotate no_reflect no_shear #
lump $-1 $-1 $41 $8 #
transform $-1 1 0 0 0 1 0 0 0 1 77.352214117862474 46.063129014484545 14.062138305148178 1 rotate no_reflect no_shear #
lump $-1 $-1 $42 $9 #
transform $-1 1 0 0 0 1 0 0 0 1 77.352214117862474 46.063129014484545 14.062138305148178 1 rotate no_reflect no_shear #
lump $-1 $-1 $43 $10 #
transform $-1 1 0 0 0 1 0 0 0 1 77.352214117862474 46.063129014484545 14.062138305148178 1 rotate no_reflect no_shear #
shell $-1 $-1 $-1 $44 $-1 $11 #
shell $-1 $-1 $-1 $45 $-1 $13 #
shell $-1 $-1 $-1 $46 $-1 $15 #
shell $-1 $-1 $-1 $47 $-1 $17 #
shell $-1 $-1 $-1 $48 $-1 $19 #
shell $-1 $-1 $-1 $49 $-1 $21 #
shell $-1 $-1 $-1 $50 $-1 $23 #
shell $-1 $-1 $-1 $51 $-1 $25 #
shell $-1 $-1 $-1 $52 $-1 $27 #
shell $-1 $-1 $-1 $53 $-1 $29 #
shell $-1 $-1 $-1 $54 $-1 $31 #
face $-1 $55 $56 $33 $-1 $57 forward single #
face $-1 $58 $59 $34 $-1 $60 reversed single #
face $-1 $61 $62 $35 $-1 $63 reversed single #
face $-1 $64 $65 $36 $-1 $66 forward single #
face $-1 $67 $68 $37 $-1 $69 forward single #
face $-1 $70 $71 $38 $-1 $72 reversed single #
face $-1 $73 $74 $39 $-1 $75 forward single #
face $-1 $76 $77 $40 $-1 $78 forward single #
face $-1 $79 $80 $41 $-1 $81 reversed single #
face $-1 $82 $83 $42 $-1 $84 forward single #
face $-1 $85 $86 $43 $-1 $87 forward single #
face $-1 $88 $89 $33 $-1 $90 reversed single #
loop $-1 $-1 $91 $44 #
plane-surface $-1 0 0 14.062138305148178 0 0 1 1 0 0 forward_v I I I I #
face $-1 $92 $93 $34 $-1 $94 reversed single #
loop $-1 $-1 $95 $45 #
plane-surface $-1 -72.52675103929154 0 9.8298925842182676 0 0 1 1 0 0 forward_v I I I I #
face $-1 $96 $97 $35 $-1 $98 reversed single #
loop $-1 $-1 $99 $46 #
plane-surface $-1 -43.078890917619717 -178.67070738405516 85.181886036157962 -1 0 0 0 -0.85716730853699208 0.51503806187062418 forward_v I I I I #
face $-1 $100 $101 $36 $-1 $102 forward single #
loop $-1 $103 $104 $47 #
cone-surface $-1 -60.666317376977503 -40.951698448738732 8.2564489544327717 0 0.85716730853699208 -0.51503806187062418 1.5 0 0 1 I I 0 1 1.5 forward I I I I #
face $-1 $105 $106 $37 $-1 $107 forward single #
loop $-1 $108 $109 $48 #
cone-surface $-1 -50.113861501362834 -40.951698448738732 8.2564489544327717 0 0.85716730853699208 -0.51503806187062418 1.5 0 0 1 I I 0 1 1.5 forward I I I I #
face $-1 $110 $111 $38 $-1 $112 reversed single #
loop $-1 $-1 $113 $49 #
plane-surface $-1 29.44786012167182 -178.67070738405516 85.181886036157962 -1 0 0 0 -0.85716730853699208 0.51503806187062418 forward_v I I I I #
face $-1 $114 $115 $39 $-1 $116 forward single #
loop $-1 $117 $118 $50 #
cone-surface $-1 11.860433662314037 -40.951698448738732 8.2564489544327717 0 0.85716730853699208 -0.51503806187062418 1.5 0 0 1 I I 0 1 1.5 forward I I I I #
face $-1 $119 $120 $40 $-1 $121 forward single #
loop $-1 $122 $123 $51 #
cone-surface $-1 22.412889537928706 -40.951698448738732 8.2564489544327717 0 0.85716730853699208 -0.51503806187062418 1.5 0 0 1 I I 0 1 1.5 forward I I I I #
face $-1 $124 $125 $41 $-1 $126 reversed single #
loop $-1 $-1 $127 $52 #
plane-surface $-1 44.59952556447606 136.70697700835143 166.57090240561553 1 0 0 0 -0.87461971476443456 -0.48480960649040278 forward_v I I I I #
face $-1 $128 $129 $42 $-1 $130 forward single #
loop $-1 $131 $132 $53 #
cone-surface $-1 53.957436579729318 44.775267869967323 12.285298304688546 0 -0.87461971476443456 -0.48480960649040278 0.25 0 0 1 I I 0 1 0.25 forward I I I I #
face $-1 $133 $134 $43 $-1 $135 forward single #
loop $-1 $136 $137 $54 #
cone-surface $-1 67.994303102609223 44.775267869967323 12.285298304688546 0 -0.87461971476443456 -0.48480960649040278 0.25 0 0 1 I I 0 1 0.25 forward I I I I #
face $-1 $138 $139 $33 $-1 $140 reversed single #
loop $-1 $-1 $141 $55 #
plane-surface $-1 0 0 -14.062138305148178 0 0 1 1 0 0 forward_v I I I I #
coedge $-1 $142 $143 $144 $145 forward $56 $-1 #
face $-1 $146 $147 $34 $-1 $148 reversed single #
loop $-1 $-1 $149 $58 #
plane-surface $-1 -67.701287960720606 0 11.946015444683223 -1 0 0 0 0 1 forward_v I I I I #
coedge $-1 $150 $151 $152 $153 forward $59 $-1 #
face $-1 $154 $155 $35 $-1 $156 forward single #
loop $-1 $-1 $157 $61 #
plane-surface $-1 -55.390089439170168 -46.063129014484559 5.5032171548271265 0 -0.85716730853699208 0.51503806187062418 1 0 0 forward_v I I I I #
coedge $-1 $158 $159 $160 $161 reversed $62 $-1 #
face $-1 $-1 $162 $36 $-1 $163 forward single #
loop $-1 $164 $165 $64 #
cone-surface $-1 -60.666317376977503 -37.768751643281675 6.3439416324749267 0 0.85716730853699208 -0.51503806187062418 0.75 0 0 1 I I -0.70710678118654757 0.70710678118654757 0.75 forward I I I I #
loop $-1 $-1 $166 $47 #
coedge $-1 $104 $104 $167 $168 reversed $65 $-1 #
face $-1 $-1 $169 $37 $-1 $170 forward single #
loop $-1 $171 $172 $67 #
cone-surface $-1 -50.113861501362834 -37.768751643281675 6.3439416324749267 0 0.85716730853699208 -0.51503806187062418 0.75 0 0 1 I I -0.70710678118654757 0.70710678118654757 0.75 forward I I I I #
loop $-1 $-1 $173 $48 #
coedge $-1 $109 $109 $174 $175 reversed $68 $-1 #
face $-1 $176 $177 $38 $-1 $178 reversed single #
loop $-1 $-1 $179 $70 #
plane-surface $-1 17.136661600121371 -46.063129014484559 5.5032171548271265 0 -0.85716730853699208 0.51503806187062418 1 0 0 forward_v I I I I #
coedge $-1 $180 $181 $182 $183 reversed $71 $-1 #
face $-1 $-1 $184 $39 $-1 $185 forward single #
loop $-1 $186 $187 $73 #
cone-surface $-1 11.860433662314037 -37.768751643281675 6.3439416324749267 0 0.85716730853699208 -0.51503806187062418 0.75 0 0 1 I I -0.70710678118654757 0.70710678118654757 0.75 forward I I I I #
loop $-1 $-1 $188 $50 #
coedge $-1 $118 $118 $189 $190 reversed $74 $-1 #
face $-1 $-1 $191 $40 $-1 $192 forward single #
loop $-1 $193 $194 $76 #
cone-surface $-1 22.412889537928706 -37.768751643281675 6.3439416324749267 0 0.85716730853699208 -0.51503806187062418 0.75 0 0 1 I I -0.70710678118654757 0.70710678118654757 0.75 forward I I I I #
loop $-1 $-1 $195 $51 #
coedge $-1 $123 $123 $196 $197 reversed $77 $-1 #
face $-1 $198 $199 $41 $-1 $200 forward single #
loop $-1 $-1 $201 $79 #
plane-surface $-1 60.975869841169271 1.3994341120267393 91.568709430330955 0 0.87461971476443456 0.48480960649040278 1 0 0 forward_v I I I I #
coedge $-1 $202 $203 $204 $205 reversed $80 $-1 #
face $-1 $-1 $206 $42 $-1 $207 forward single #
loop $-1 $208 $209 $82 #
cone-surface $-1 53.957436579729318 44.228630548239551 11.982292300632043 0 -0.87461971476443456 -0.48480960649040278 0.125 0 0 1 I I -0.70710678118654746 0.70710678118654746 0.125 forward I I I I #
loop $-1 $-1 $210 $53 #
coedge $-1 $132 $132 $211 $212 reversed $83 $-1 #
face $-1 $-1 $213 $43 $-1 $214 forward single #
loop $-1 $215 $216 $85 #
cone-surface $-1 67.994303102609223 44.228630548239551 11.982292300632043 0 -0.87461971476443456 -0.48480960649040278 0.125 0 0 1 I I -0.70710678118654746 0.70710678118654746 0.125 forward I I I I #
loop $-1 $-1 $217 $54 #
coedge $-1 $137 $137 $218 $219 reversed $86 $-1 #
face $-1 $220 $221 $33 $-1 $222 reversed single #
loop $-1 $-1 $223 $88 #
plane-surface $-1 0 -46.063129014484545 0 0 1 0 0 0 1 forward_v I I I I #
coedge $-1 $224 $225 $226 $227 forward $89 $-1 #
coedge $-1 $228 $91 $229 $230 forward $56 $-1 #
coedge $-1 $91 $228 $231 $232 forward $56 $-1 #
coedge $-1 $233 $234 $91 $145 reversed $235 $-1 #
edge $-1 $236 -46.063129014484545 $237 46.063129014484545 $144 $238 forward 7 unknown #
face $-1 $239 $240 $34 $-1 $241 reversed single #
loop $-1 $-1 $242 $92 #
plane-surface $-1 0 46.063129014484545 0 0 -1 0 0 0 -1 forward_v I I I I #
coedge $-1 $152 $243 $244 $245 reversed $93 $-1 #
coedge $-1 $246 $95 $247 $248 reversed $59 $-1 #
coedge $-1 $95 $246 $249 $250 reversed $59 $-1 #
coedge $-1 $251 $149 $95 $153 reversed $93 $-1 #
edge $-1 $252 -46.063129014484545 $253 46.063129014484545 $152 $254 forward 7 unknown #
face $-1 $255 $256 $35 $-1 $257 forward single #
loop $-1 $-1 $258 $96 #
plane-surface $-1 -67.701287960720606 0 11.946015444683223 -1 0 0 0 0 1 forward_v I I I I #
coedge $-1 $259 $260 $261 $262 reversed $97 $-1 #
coedge $-1 $159 $99 $263 $264 reversed $62 $-1 #
coedge $-1 $99 $158 $259 $265 reversed $62 $-1 #
coedge $-1 $261 $266 $99 $161 forward $256 $-1 #
edge $-1 $267 43.272224677543036 $268 48.414943160926022 $160 $269 forward 7 unknown #
loop $-1 $-1 $167 $100 #
plane-surface $-1 -55.390089439170168 -46.063129014484559 5.5032171548271265 0 -0.85716730853699208 0.51503806187062418 1 0 0 forward_v I I I I #
loop $-1 $-1 $270 $64 #
coedge $-1 $165 $165 $166 $271 reversed $101 $-1 #
coedge $-1 $166 $166 $165 $271 forward $103 $-1 #
coedge $-1 $167 $167 $104 $168 forward $162 $-1 #
edge $-1 $272 1.834150691301792e-015 $272 6.2831853071796022 $167 $273 forward 7 unknown #
loop $-1 $-1 $174 $105 #
plane-surface $-1 -55.390089439170168 -46.063129014484559 5.5032171548271265 0 -0.85716730853699208 0.51503806187062418 1 0 0 forward_v I I I I #
loop $-1 $-1 $274 $67 #
coedge $-1 $172 $172 $173 $275 reversed $106 $-1 #
coedge $-1 $173 $173 $172 $275 forward $108 $-1 #
coedge $-1 $174 $174 $109 $175 forward $169 $-1 #
edge $-1 $276 1.834150691301792e-015 $276 6.2831853071796022 $174 $277 forward 7 unknown #
face $-1 $278 $279 $38 $-1 $280 reversed single #
loop $-1 $-1 $281 $110 #
plane-surface $-1 4.8254630785709232 -178.67070738405516 85.181886036157962 1 0 0 0 0.85716730853699208 -0.51503806187062418 forward_v I I I I #
coedge $-1 $282 $283 $284 $285 reversed $111 $-1 #
coedge $-1 $181 $113 $286 $287 reversed $71 $-1 #
coedge $-1 $113 $180 $282 $288 reversed $71 $-1 #
coedge $-1 $284 $289 $113 $183 forward $290 $-1 #
edge $-1 $291 43.272224677543036 $292 48.414943160926022 $182 $293 forward 7 unknown #
loop $-1 $-1 $189 $114 #
plane-surface $-1 17.136661600121371 -46.063129014484559 5.5032171548271265 0 -0.85716730853699208 0.51503806187062418 1 0 0 forward_v I I I I #
loop $-1 $-1 $294 $73 #
coedge $-1 $187 $187 $188 $295 reversed $115 $-1 #
coedge $-1 $188 $188 $187 $295 forward $117 $-1 #
coedge $-1 $189 $189 $118 $190 forward $184 $-1 #
edge $-1 $296 1.834150691301792e-015 $296 6.2831853071796022 $189 $297 forward 7 unknown #
loop $-1 $-1 $196 $119 #
plane-surface $-1 17.136661600121371 -46.063129014484559 5.5032171548271265 0 -0.85716730853699208 0.51503806187062418 1 0 0 forward_v I I I I #
loop $-1 $-1 $298 $76 #
coedge $-1 $194 $194 $195 $299 reversed $120 $-1 #
coedge $-1 $195 $195 $194 $299 forward $122 $-1 #
coedge $-1 $196 $196 $123 $197 forward $191 $-1 #
edge $-1 $300 1.834150691301792e-015 $300 6.2831853071796022 $196 $301 forward 7 unknown #
face $-1 $302 $303 $41 $-1 $304 reversed single #
loop $-1 $-1 $204 $124 #
plane-surface $-1 0 0 14.062138305148178 0 0 1 1 0 0 forward_v I I I I #
coedge $-1 $305 $306 $307 $308 reversed $125 $-1 #
coedge $-1 $203 $127 $309 $310 reversed $80 $-1 #
coedge $-1 $127 $202 $305 $311 reversed $80 $-1 #
coedge $-1 $307 $312 $127 $205 forward $199 $-1 #
edge $-1 $313 22.29035948969117 $314 23.991462063961201 $204 $315 forward 7 unknown #
loop $-1 $-1 $211 $128 #
plane-surface $-1 60.975869841169271 1.3994341120267393 91.568709430330955 0 0.87461971476443456 0.48480960649040278 1 0 0 forward_v I I I I #
loop $-1 $-1 $316 $82 #
coedge $-1 $209 $209 $210 $317 reversed $129 $-1 #
coedge $-1 $210 $210 $209 $317 forward $131 $-1 #
coedge $-1 $211 $211 $132 $212 forward $206 $-1 #
edge $-1 $318 1.350024067169941e-015 $318 6.2831853071796022 $211 $319 forward 7 unknown #
loop $-1 $-1 $218 $133 #
plane-surface $-1 60.975869841169271 1.3994341120267393 91.568709430330955 0 0.87461971476443456 0.48480960649040278 1 0 0 forward_v I I I I #
loop $-1 $-1 $320 $85 #
coedge $-1 $216 $216 $217 $321 reversed $134 $-1 #
coedge $-1 $217 $217 $216 $321 forward $136 $-1 #
coedge $-1 $218 $218 $137 $219 forward $213 $-1 #
edge $-1 $322 1.350024067169941e-015 $322 6.2831853071796022 $218 $323 forward 7 unknown #
face $-1 $324 $325 $33 $-1 $326 reversed single #
loop $-1 $-1 $327 $138 #
plane-surface $-1 -77.352214117862474 0 0 1 0 0 0 0 -1 forward_v I I I I #
coedge $-1 $328 $231 $329 $330 forward $139 $-1 #
coedge $-1 $331 $141 $328 $332 forward $89 $-1 #
coedge $-1 $141 $331 $333 $334 forward $89 $-1 #
coedge $-1 $234 $233 $141 $227 reversed $235 $-1 #
edge $-1 $335 -46.063129014484545 $336 46.063129014484545 $226 $337 forward 7 unknown #
coedge $-1 $143 $142 $338 $339 forward $56 $-1 #
coedge $-1 $340 $341 $142 $230 reversed $325 $-1 #
edge $-1 $237 -77.352214117862474 $342 77.352214117862474 $229 $343 forward 7 unknown #
coedge $-1 $223 $344 $143 $232 reversed $139 $-1 #
edge $-1 $345 -77.352214117862474 $236 77.352214117862474 $231 $346 forward 7 unknown #
coedge $-1 $226 $144 $344 $347 forward $235 $-1 #
coedge $-1 $144 $226 $340 $348 reversed $235 $-1 #
loop $-1 $-1 $233 $324 #
vertex $-1 $145 $349 #
vertex $-1 $145 $350 #
straight-curve $-1 77.352214117862474 0 14.062138305148178 0 1 0 I I #
face $-1 $351 $352 $34 $-1 $353 forward single #
loop $-1 $-1 $354 $146 #
plane-surface $-1 -77.352214117862474 0 0 1 0 0 0 0 -1 forward_v I I I I #
coedge $-1 $249 $355 $251 $356 forward $147 $-1 #
coedge $-1 $149 $251 $357 $358 reversed $93 $-1 #
coedge $-1 $359 $247 $149 $245 forward $360 $-1 #
edge $-1 $253 3.8568848618766562 $361 8.0891305828065665 $244 $362 forward 7 unknown #
coedge $-1 $151 $150 $354 $363 reversed $59 $-1 #
coedge $-1 $244 $364 $150 $248 forward $360 $-1 #
edge $-1 $365 -41.088838598216704 $253 -31.437912441074836 $247 $366 forward 7 unknown #
coedge $-1 $367 $242 $151 $250 forward $147 $-1 #
edge $-1 $252 31.437912441074836 $368 41.088838598216704 $249 $369 forward 7 unknown #
coedge $-1 $243 $152 $242 $356 reversed $93 $-1 #
vertex $-1 $250 $370 #
vertex $-1 $248 $371 #
straight-curve $-1 -67.701287960720606 0 9.8298925842182676 0 -1 0 I I #
face $-1 $-1 $372 $35 $-1 $373 reversed single #
loop $-1 $-1 $261 $154 #
plane-surface $-1 0 0 14.062138305148178 0 0 1 1 0 0 forward_v I I I I #
coedge $-1 $374 $375 $260 $376 reversed $155 $-1 #
coedge $-1 $377 $157 $159 $265 forward $97 $-1 #
coedge $-1 $157 $377 $258 $376 forward $97 $-1 #
coedge $-1 $378 $160 $157 $262 forward $256 $-1 #
edge $-1 $268 15.383846198034632 $379 40.006243241135522 $261 $380 forward 7 unknown #
coedge $-1 $381 $382 $158 $264 forward $372 $-1 #
edge $-1 $383 -37.087725863251833 $267 -28.528804712930803 $263 $384 forward 7 unknown #
edge $-1 $268 -9.9851231668288509 $383 -2.787470371894754e-014 $159 $385 forward 7 unknown #
coedge $-1 $160 $378 $381 $386 forward $256 $-1 #
vertex $-1 $264 $387 #
vertex $-1 $161 $388 #
straight-curve $-1 -43.078890917619717 -89.335353692027581 14.062138305148174 0 1 0 I I #
coedge $-1 $270 $270 $-1 $389 reversed $164 $-1 #
edge $-1 $390 0 $390 6.2831853071796004 $165 $391 forward 7 unknown #
vertex $-1 $168 $392 #
ellipse-curve $-1 -60.666317376977503 -43.491769772793056 9.7826777299876557 0 -0.85716730853699208 0.51503806187062418 1.5 0 0 1 I I #
coedge $-1 $274 $274 $-1 $393 reversed $171 $-1 #
edge $-1 $394 0 $394 6.2831853071796004 $172 $395 forward 7 unknown #
vertex $-1 $175 $396 #
ellipse-curve $-1 -50.113861501362834 -43.491769772793056 9.7826777299876557 0 -0.85716730853699208 0.51503806187062418 1.5 0 0 1 I I #
face $-1 $-1 $290 $38 $-1 $397 forward single #
loop $-1 $-1 $398 $176 #
plane-surface $-1 0 -46.063129014484545 0 0 1 0 0 0 1 forward_v I I I I #
coedge $-1 $399 $400 $401 $402 reversed $177 $-1 #
coedge $-1 $403 $179 $181 $288 forward $111 $-1 #
coedge $-1 $179 $403 $399 $404 forward $111 $-1 #
coedge $-1 $401 $182 $179 $285 forward $290 $-1 #
edge $-1 $292 -20.879529321611134 $405 3.7428677214897625 $284 $406 forward 7 unknown #
coedge $-1 $407 $408 $180 $287 forward $279 $-1 #
edge $-1 $409 -37.087725863251833 $291 -28.528804712930803 $286 $410 forward 7 unknown #
edge $-1 $292 -9.9851231668288509 $409 -2.787470371894754e-014 $181 $411 forward 7 unknown #
coedge $-1 $182 $401 $407 $412 forward $290 $-1 #
loop $-1 $-1 $401 $278 #
vertex $-1 $287 $413 #
vertex $-1 $183 $414 #
straight-curve $-1 29.44786012167182 -89.335353692027581 14.062138305148174 0 1 0 I I #
coedge $-1 $294 $294 $-1 $415 reversed $186 $-1 #
edge $-1 $416 0 $416 6.2831853071796004 $187 $417 forward 7 unknown #
vertex $-1 $190 $418 #
ellipse-curve $-1 11.860433662314037 -43.491769772793056 9.7826777299876557 0 -0.85716730853699208 0.51503806187062418 1.5 0 0 1 I I #
coedge $-1 $298 $298 $-1 $419 reversed $193 $-1 #
edge $-1 $420 0 $420 6.2831853071796004 $194 $421 forward 7 unknown #
vertex $-1 $197 $422 #
ellipse-curve $-1 22.412889537928706 -43.491769772793056 9.7826777299876557 0 -0.85716730853699208 0.51503806187062418 1.5 0 0 1 I I #
face $-1 $-1 $423 $41 $-1 $424 reversed single #
loop $-1 $-1 $425 $198 #
plane-surface $-1 77.352214117862474 0 0 -1 0 0 0 0 1 forward_v I I I I #
coedge $-1 $426 $201 $203 $311 forward $125 $-1 #
coedge $-1 $201 $426 $425 $427 reversed $125 $-1 #
coedge $-1 $428 $204 $201 $308 forward $199 $-1 #
edge $-1 $314 14.111590643891425 $429 46.864279197277838 $307 $430 forward 7 unknown #
coedge $-1 $431 $432 $202 $310 forward $423 $-1 #
edge $-1 $433 -72.292183292088438 $313 -69.223312897659582 $309 $434 forward 7 unknown #
edge $-1 $314 88.617452610313023 $433 92.12625802896909 $203 $435 forward 7 unknown #
coedge $-1 $204 $428 $431 $436 forward $199 $-1 #
vertex $-1 $310 $437 #
vertex $-1 $205 $438 #
straight-curve $-1 44.59952556447606 68.353488504175715 14.062138305148181 0 -1 0 I I #
coedge $-1 $316 $316 $-1 $439 reversed $208 $-1 #
edge $-1 $440 0 $440 6.2831853071796004 $209 $441 forward 7 unknown #
vertex $-1 $212 $442 #
ellipse-curve $-1 53.957436579729318 45.212577727349533 12.527703107933743 0 0.87461971476443456 0.48480960649040278 0.25 0 0 1 I I #
coedge $-1 $320 $320 $-1 $443 reversed $215 $-1 #
edge $-1 $444 0 $444 6.2831853071796004 $216 $445 forward 7 unknown #
vertex $-1 $219 $446 #
ellipse-curve $-1 67.994303102609223 45.212577727349533 12.527703107933743 0 0.87461971476443456 0.48480960649040278 0.25 0 0 1 I I #
face $-1 $-1 $235 $33 $-1 $447 reversed single #
loop $-1 $-1 $340 $220 #
plane-surface $-1 0 46.063129014484545 0 0 -1 0 0 0 -1 forward_v I I I I #
coedge $-1 $448 $338 $341 $449 forward $221 $-1 #
coedge $-1 $344 $223 $224 $332 reversed $139 $-1 #
coedge $-1 $338 $448 $223 $330 reversed $221 $-1 #
edge $-1 $345 -14.062138305148178 $450 14.062138305148178 $329 $451 forward 7 unknown #
coedge $-1 $225 $224 $448 $452 forward $89 $-1 #
edge $-1 $336 -77.352214117862474 $450 77.352214117862474 $328 $453 forward 7 unknown #
coedge $-1 $341 $340 $225 $334 reversed $325 $-1 #
edge $-1 $454 -77.352214117862474 $335 77.352214117862474 $333 $455 forward 7 unknown #
vertex $-1 $227 $456 #
vertex $-1 $347 $457 #
straight-curve $-1 77.352214117862474 0 -14.062138305148178 0 -1 0 I I #
coedge $-1 $327 $329 $228 $339 reversed $221 $-1 #
edge $-1 $342 -46.063129014484545 $345 46.063129014484545 $338 $458 forward 7 unknown #
coedge $-1 $333 $229 $234 $348 forward $325 $-1 #
coedge $-1 $229 $333 $327 $449 reversed $325 $-1 #
vertex $-1 $230 $459 #
straight-curve $-1 0 46.063129014484545 14.062138305148178 -1 0 0 I I #
coedge $-1 $231 $328 $233 $347 reversed $139 $-1 #
vertex $-1 $339 $460 #
straight-curve $-1 0 -46.063129014484545 14.062138305148178 1 0 0 I I #
edge $-1 $236 -14.062138305148178 $336 14.062138305148178 $233 $461 forward 7 unknown #
edge $-1 $237 -14.062138305148178 $335 14.062138305148178 $234 $462 forward 7 unknown #
point $-1 77.352214117862474 -46.063129014484545 14.062138305148178 #
point $-1 77.352214117862474 46.063129014484545 14.062138305148178 #
face $-1 $-1 $360 $34 $-1 $463 reversed single #
loop $-1 $-1 $357 $239 #
plane-surface $-1 0 0 14.062138305148178 0 0 1 1 0 0 forward_v I I I I #
coedge $-1 $464 $465 $246 $363 forward $240 $-1 #
coedge $-1 $242 $367 $466 $467 reversed $147 $-1 #
edge $-1 $468 -8.0891305828065665 $252 -3.8568848618766562 $242 $469 forward 7 unknown #
coedge $-1 $466 $470 $243 $358 forward $352 $-1 #
edge $-1 $361 -46.063129014484545 $468 46.063129014484545 $357 $471 forward 7 unknown #
coedge $-1 $364 $244 $470 $472 reversed $360 $-1 #
loop $-1 $-1 $244 $351 #
vertex $-1 $245 $473 #
straight-curve $-1 -67.701287960720606 -46.063129014484545 5.9730077223416114 0 0 1 I I #
edge $-1 $368 -46.063129014484545 $365 46.063129014484545 $354 $474 forward 7 unknown #
coedge $-1 $247 $359 $464 $475 forward $360 $-1 #
vertex $-1 $363 $476 #
straight-curve $-1 -36.26337551964577 -46.063129014484545 9.8298925842182676 1 0 0 I I #
coedge $-1 $355 $249 $465 $477 reversed $147 $-1 #
vertex $-1 $363 $478 #
straight-curve $-1 -36.26337551964577 46.063129014484545 9.8298925842182676 -1 0 0 I I #
point $-1 -67.701287960720606 46.063129014484545 9.8298925842182676 #
point $-1 -67.701287960720606 -46.063129014484545 9.8298925842182676 #
loop $-1 $-1 $263 $255 #
plane-surface $-1 0 -46.063129014484545 0 0 1 0 0 0 1 forward_v I I I I #
coedge $-1 $375 $258 $479 $480 reversed $155 $-1 #
coedge $-1 $258 $374 $378 $481 reversed $155 $-1 #
edge $-1 $482 2.787470371894754e-014 $379 9.9851231668288509 $258 $483 forward 7 unknown #
coedge $-1 $260 $259 $382 $484 reversed $97 $-1 #
coedge $-1 $266 $261 $375 $481 forward $256 $-1 #
vertex $-1 $481 $485 #
straight-curve $-1 -27.695044719585084 -40.920410531101552 14.062138305148178 -1 0 0 I I #
coedge $-1 $479 $263 $266 $386 reversed $372 $-1 #
coedge $-1 $263 $479 $377 $484 forward $372 $-1 #
vertex $-1 $264 $486 #
straight-curve $-1 -43.078890917619717 -46.063129014484545 42.590943018078981 0 0 1 I I #
straight-curve $-1 -43.078890917619717 -46.063129014484559 5.5032171548271265 0 -0.51503806187062418 -0.85716730853699208 I I #
edge $-1 $487 -67.701287960720606 $267 -43.078890917619717 $381 $488 forward 7 unknown #
point $-1 -43.078890917619717 -46.063129014484545 14.062138305148178 #
point $-1 -43.078890917619717 -40.92041053110156 14.062138305148178 #
edge $-1 $489 1 $489 0 $270 $-1 forward 7 unknown #
vertex $-1 $271 $490 #
ellipse-curve $-1 -60.666317376977503 -38.411627124684422 6.7302201788778948 0 -0.85716730853699208 0.51503806187062418 1.5 0 0 1 I I #
point $-1 -59.166317376977503 -43.491769772793042 9.7826777299876504 #
edge $-1 $491 1 $491 0 $274 $-1 forward 7 unknown #
vertex $-1 $275 $492 #
ellipse-curve $-1 -50.113861501362834 -38.411627124684422 6.7302201788778948 0 -0.85716730853699208 0.51503806187062418 1.5 0 0 1 I I #
point $-1 -48.613861501362834 -43.491769772793042 9.7826777299876504 #
plane-surface $-1 0 0 14.062138305148178 0 0 1 1 0 0 forward_v I I I I #
coedge $-1 $408 $407 $400 $493 forward $279 $-1 #
coedge $-1 $400 $281 $283 $404 reversed $177 $-1 #
coedge $-1 $281 $399 $398 $493 reversed $177 $-1 #
coedge $-1 $289 $284 $281 $402 forward $290 $-1 #
edge $-1 $405 -48.414943160926022 $494 -43.272224677543036 $401 $495 forward 7 unknown #
coedge $-1 $283 $282 $408 $496 reversed $111 $-1 #
edge $-1 $497 2.787470371894754e-014 $405 9.9851231668288509 $399 $498 forward 7 unknown #
vertex $-1 $285 $499 #
straight-curve $-1 8.5683308000606857 -40.920410531101552 14.062138305148178 -1 0 0 I I #
coedge $-1 $398 $286 $289 $412 reversed $279 $-1 #
coedge $-1 $286 $398 $403 $496 forward $279 $-1 #
vertex $-1 $287 $500 #
straight-curve $-1 29.44786012167182 -46.063129014484545 42.590943018078981 0 0 1 I I #
straight-curve $-1 29.44786012167182 -46.063129014484559 5.5032171548271265 0 -0.51503806187062418 -0.85716730853699208 I I #
edge $-1 $494 4.8254630785709232 $291 29.44786012167182 $407 $501 forward 7 unknown #
point $-1 29.44786012167182 -46.063129014484545 14.062138305148178 #
point $-1 29.44786012167182 -40.92041053110156 14.062138305148178 #
edge $-1 $502 1 $502 0 $294 $-1 forward 7 unknown #
vertex $-1 $295 $503 #
ellipse-curve $-1 11.860433662314037 -38.411627124684422 6.7302201788778948 0 -0.85716730853699208 0.51503806187062418 1.5 0 0 1 I I #
point $-1 13.360433662314037 -43.491769772793042 9.7826777299876504 #
edge $-1 $504 1 $504 0 $298 $-1 forward 7 unknown #
vertex $-1 $299 $505 #
ellipse-curve $-1 22.412889537928706 -38.411627124684422 6.7302201788778948 0 -0.85716730853699208 0.51503806187062418 1.5 0 0 1 I I #
point $-1 23.912889537928706 -43.491769772793042 9.7826777299876504 #
loop $-1 $-1 $309 $302 #
plane-surface $-1 0 46.063129014484545 0 0 -1 0 0 0 -1 forward_v I I I I #
coedge $-1 $506 $507 $306 $427 forward $303 $-1 #
coedge $-1 $306 $305 $432 $508 reversed $125 $-1 #
edge $-1 $429 48.912782899241776 $509 52.421588317897815 $425 $510 forward 7 unknown #
coedge $-1 $312 $307 $507 $511 forward $199 $-1 #
vertex $-1 $511 $512 #
straight-curve $-1 30.487934920584635 44.362026440214521 14.062138305148174 1 0 0 I I #
coedge $-1 $513 $309 $312 $436 reversed $423 $-1 #
coedge $-1 $309 $513 $426 $508 forward $423 $-1 #
vertex $-1 $310 $514 #
straight-curve $-1 44.59952556447606 46.063129014484545 83.285451202807764 0 0 1 I I #
straight-curve $-1 44.59952556447606 1.3994341120267393 91.568709430330955 0 0.48480960649040278 -0.87461971476443456 I I #
edge $-1 $515 -77.352214117862474 $313 -44.59952556447606 $431 $516 forward 7 unknown #
point $-1 44.59952556447606 46.063129014484545 14.062138305148178 #
point $-1 44.59952556447606 44.362026440214514 14.062138305148181 #
edge $-1 $517 1 $517 0 $316 $-1 forward 7 unknown #
vertex $-1 $317 $518 #
ellipse-curve $-1 53.957436579729318 44.337958012585105 12.042893501443343 0 0.87461971476443456 0.48480960649040278 0.25 0 0 1 I I #
point $-1 54.207436579729318 45.21257772734954 12.527703107933746 #
edge $-1 $519 1 $519 0 $320 $-1 forward 7 unknown #
vertex $-1 $321 $520 #
ellipse-curve $-1 67.994303102609223 44.337958012585105 12.042893501443343 0 0.87461971476443456 0.48480960649040278 0.25 0 0 1 I I #
point $-1 68.244303102609223 45.21257772734954 12.527703107933746 #
plane-surface $-1 77.352214117862474 0 0 -1 0 0 0 0 1 forward_v I I I I #
coedge $-1 $329 $327 $331 $452 reversed $221 $-1 #
edge $-1 $342 -14.062138305148178 $454 14.062138305148178 $341 $521 forward 7 unknown #
vertex $-1 $452 $522 #
straight-curve $-1 -77.352214117862474 -46.063129014484545 0 0 0 -1 I I #
edge $-1 $450 -46.063129014484545 $454 46.063129014484545 $448 $523 forward 7 unknown #
straight-curve $-1 0 -46.063129014484545 -14.062138305148178 -1 0 0 I I #
vertex $-1 $334 $524 #
straight-curve $-1 0 46.063129014484545 -14.062138305148178 1 0 0 I I #
point $-1 77.352214117862474 46.063129014484545 -14.062138305148178 #
point $-1 77.352214117862474 -46.063129014484545 -14.062138305148178 #
straight-curve $-1 -77.352214117862474 0 14.062138305148178 0 -1 0 I I #
point $-1 -77.352214117862474 46.063129014484545 14.062138305148178 #
point $-1 -77.352214117862474 -46.063129014484545 14.062138305148178 #
straight-curve $-1 77.352214117862474 -46.063129014484545 0 0 0 -1 I I #
straight-curve $-1 77.352214117862474 46.063129014484545 0 0 0 -1 I I #
plane-surface $-1 0 -46.063129014484545 0 0 1 0 0 0 1 forward_v I I I I #
coedge $-1 $525 $354 $364 $475 reversed $240 $-1 #
coedge $-1 $354 $525 $367 $477 forward $240 $-1 #
coedge $-1 $526 $357 $355 $467 forward $352 $-1 #
edge $-1 $468 67.701287960720606 $527 77.352214117862474 $355 $528 forward 7 unknown #
vertex $-1 $467 $529 #
straight-curve $-1 -67.701287960720606 46.063129014484545 5.9730077223416114 0 0 -1 I I #
coedge $-1 $357 $526 $359 $472 forward $352 $-1 #
straight-curve $-1 -67.701287960720606 0 14.062138305148178 0 1 0 I I #
edge $-1 $530 -77.352214117862474 $361 -67.701287960720606 $359 $531 forward 7 unknown #
point $-1 -67.701287960720606 -46.063129014484545 14.062138305148178 #
straight-curve $-1 -77.352214117862474 0 9.8298925842182676 0 -1 0 I I #
edge $-1 $530 -14.062138305148178 $365 -9.8298925842182676 $464 $532 forward 7 unknown #
point $-1 -77.352214117862474 -46.063129014484545 9.8298925842182676 #
edge $-1 $527 -14.062138305148178 $368 -9.8298925842182676 $367 $533 forward 7 unknown #
point $-1 -77.352214117862474 46.063129014484545 9.8298925842182676 #
coedge $-1 $382 $381 $374 $480 forward $372 $-1 #
edge $-1 $487 28.528804712930803 $482 37.087725863251833 $479 $534 forward 7 unknown #
edge $-1 $379 40.92041053110156 $487 46.063129014484545 $378 $535 forward 7 unknown #
vertex $-1 $480 $536 #
straight-curve $-1 -67.70128796072062 -46.063129014484559 5.5032171548271265 0 0.51503806187062418 0.85716730853699208 I I #
edge $-1 $482 -40.006243241135536 $383 -15.383846198034632 $382 $537 forward 7 unknown #
point $-1 -67.701287960720606 -40.92041053110156 14.062138305148178 #
point $-1 -43.078890917619717 -46.063129014484545 5.5032171548271505 #
vertex $-1 $386 $538 #
straight-curve $-1 0 -46.063129014484545 14.062138305148178 1 0 0 I I #
vertex $-1 $389 $539 #
point $-1 -59.166317376977503 -38.411627124684422 6.7302201788778948 #
vertex $-1 $393 $540 #
point $-1 -48.613861501362834 -38.411627124684422 6.7302201788778948 #
edge $-1 $494 28.528804712930803 $497 37.087725863251833 $398 $541 forward 7 unknown #
vertex $-1 $412 $542 #
straight-curve $-1 4.8254630785709232 -89.335353692027581 14.062138305148174 0 -1 0 I I #
edge $-1 $497 -3.7428677214897625 $409 20.879529321611134 $408 $543 forward 7 unknown #
vertex $-1 $496 $544 #
straight-curve $-1 4.8254630785709232 -46.063129014484559 5.5032171548271265 0 0.51503806187062418 0.85716730853699208 I I #
point $-1 4.8254630785709232 -40.92041053110156 14.062138305148178 #
point $-1 29.44786012167182 -46.063129014484545 5.5032171548271505 #
straight-curve $-1 0 -46.063129014484545 14.062138305148178 1 0 0 I I #
vertex $-1 $415 $545 #
point $-1 13.360433662314037 -38.411627124684422 6.7302201788778948 #
vertex $-1 $419 $546 #
point $-1 23.912889537928706 -38.411627124684422 6.7302201788778948 #
coedge $-1 $507 $425 $513 $547 reversed $303 $-1 #
coedge $-1 $425 $506 $428 $511 reversed $303 $-1 #
edge $-1 $509 -46.864279197277838 $433 -14.111590643891425 $432 $548 forward 7 unknown #
vertex $-1 $427 $549 #
straight-curve $-1 77.352214117862474 20.648639410482609 56.842222532817729 0 0.48480960649040278 -0.87461971476443456 I I #
edge $-1 $429 44.362026440214514 $515 46.063129014484545 $507 $550 forward 7 unknown #
point $-1 77.352214117862474 44.362026440214514 14.062138305148181 #
coedge $-1 $432 $431 $506 $547 forward $423 $-1 #
point $-1 44.59952556447606 46.063129014484545 10.993267910719325 #
vertex $-1 $511 $551 #
straight-curve $-1 0 46.063129014484545 14.062138305148178 -1 0 0 I I #
vertex $-1 $439 $552 #
point $-1 54.207436579729318 44.337958012585105 12.042893501443343 #
vertex $-1 $443 $553 #
point $-1 68.244303102609223 44.337958012585105 12.042893501443343 #
straight-curve $-1 -77.352214117862474 46.063129014484545 0 0 0 -1 I I #
point $-1 -77.352214117862474 -46.063129014484545 -14.062138305148178 #
straight-curve $-1 -77.352214117862474 0 -14.062138305148178 0 1 0 I I #
point $-1 -77.352214117862474 46.063129014484545 -14.062138305148178 #
coedge $-1 $465 $464 $526 $554 reversed $240 $-1 #
coedge $-1 $470 $466 $525 $554 forward $352 $-1 #
vertex $-1 $467 $555 #
straight-curve $-1 0 46.063129014484545 14.062138305148178 -1 0 0 I I #
point $-1 -67.701287960720606 46.063129014484545 14.062138305148178 #
vertex $-1 $554 $556 #
straight-curve $-1 0 -46.063129014484545 14.062138305148178 1 0 0 I I #
straight-curve $-1 -77.352214117862474 -46.063129014484545 0 0 0 -1 I I #
straight-curve $-1 -77.352214117862474 46.063129014484545 0 0 0 -1 I I #
straight-curve $-1 -67.70128796072062 -46.063129014484545 42.590943018078981 0 0 -1 I I #
straight-curve $-1 -67.701287960720606 0 14.062138305148178 0 -1 0 I I #
point $-1 -67.70128796072062 -46.063129014484545 5.5032171548271505 #
straight-curve $-1 -27.695044719585084 -46.063129014484545 5.5032171548271513 1 0 0 I I #
point $-1 -67.701287960720606 -46.063129014484545 14.062138305148178 #
point $-1 -60.666317376977503 -37.125876161878928 5.9576630860719586 #
point $-1 -50.113861501362834 -37.125876161878928 5.9576630860719586 #
straight-curve $-1 4.8254630785709232 -46.063129014484545 42.590943018078981 0 0 -1 I I #
point $-1 4.8254630785709232 -46.063129014484545 14.062138305148178 #
straight-curve $-1 8.5683308000606857 -46.063129014484545 5.5032171548271513 1 0 0 I I #
point $-1 4.8254630785709232 -46.063129014484545 5.5032171548271505 #
point $-1 11.860433662314037 -37.125876161878928 5.9576630860719586 #
point $-1 22.412889537928706 -37.125876161878928 5.9576630860719586 #
edge $-1 $515 -14.062138305148178 $509 -10.993267910719325 $506 $557 forward 7 unknown #
straight-curve $-1 30.487934920584635 46.063129014484545 10.993267910719332 -1 0 0 I I #
point $-1 77.352214117862474 46.063129014484545 10.993267910719325 #
straight-curve $-1 77.352214117862474 0 14.062138305148178 0 1 0 I I #
point $-1 77.352214117862474 46.063129014484545 14.062138305148178 #
point $-1 53.957436579729318 44.119303083893996 11.921691099820743 #
point $-1 67.994303102609223 44.119303083893996 11.921691099820743 #
edge $-1 $527 -46.063129014484545 $530 46.063129014484545 $525 $558 forward 7 unknown #
point $-1 -77.352214117862474 46.063129014484545 14.062138305148178 #
point $-1 -77.352214117862474 -46.063129014484545 14.062138305148178 #
straight-curve $-1 77.352214117862474 46.063129014484545 0 0 0 -1 I I #
straight-curve $-1 -77.352214117862474 0 14.062138305148178 0 -1 0 I I #
End-of-ACIS-data 