500 0 5 0           
7 Unknown 11 ACIS 5.0 NT 24 Thu Mar 25 16:38:55 1999 
-1 9.9999999999999995e-007 1e-010 
body $-1 $5 $-1 $6 #
body $-1 $7 $-1 $8 #
body $-1 $9 $-1 $10 #
body $-1 $11 $-1 $12 #
body $-1 $13 $-1 $14 #
lump $-1 $-1 $15 $0 #
transform $-1 1 0 0 0 1 0 0 0 1 77.275307473982963 51.874708496985349 21.027882569059059 1 rotate no_reflect no_shear #
lump $-1 $-1 $16 $1 #
transform $-1 1 0 0 0 1 0 0 0 1 77.275307473982963 51.874708496985349 21.027882569059059 1 rotate no_reflect no_shear #
lump $-1 $-1 $17 $2 #
transform $-1 1 0 0 0 1 0 0 0 1 77.275307473982963 51.874708496985349 21.027882569059059 1 rotate no_reflect no_shear #
lump $-1 $-1 $18 $3 #
transform $-1 1 0 0 0 1 0 0 0 1 77.275307473982963 51.874708496985349 21.027882569059059 1 rotate no_reflect no_shear #
lump $-1 $-1 $19 $4 #
transform $-1 1 0 0 0 1 0 0 0 1 77.275307473982963 51.874708496985349 21.027882569059059 1 rotate no_reflect no_shear #
shell $-1 $-1 $-1 $20 $-1 $5 #
shell $-1 $-1 $-1 $21 $-1 $7 #
shell $-1 $-1 $-1 $22 $-1 $9 #
shell $-1 $-1 $-1 $23 $-1 $11 #
shell $-1 $-1 $-1 $24 $-1 $13 #
face $-1 $25 $26 $15 $-1 $27 forward single #
face $-1 $28 $29 $16 $-1 $30 forward single #
face $-1 $31 $32 $17 $-1 $33 forward single #
face $-1 $34 $35 $18 $-1 $36 reversed single #
face $-1 $37 $38 $19 $-1 $39 reversed single #
face $-1 $40 $41 $15 $-1 $42 reversed single #
loop $-1 $-1 $43 $20 #
plane-surface $-1 0 0 21.027882569059059 0 0 1 1 0 0 forward_v I I I I #
face $-1 $44 $45 $16 $-1 $46 reversed single #
loop $-1 $-1 $47 $21 #
plane-surface $-1 -84.586172230481537 0 3.915599326626813 0 0 1 1 0 0 forward_v I I I I #
face $-1 $48 $49 $17 $-1 $50 forward single #
loop $-1 $-1 $51 $22 #
plane-surface $-1 92.521813586517396 49.369780302208113 224.93666532389688 0 -1 0 -0.75470958851134928 0 -0.65605901945558964 forward_v I I I I #
face $-1 $52 $53 $18 $-1 $54 reversed single #
loop $-1 $55 $56 $23 #
cone-surface $-1 68.333156571049017 34.93675634451499 11.528766291063944 -0.75470958851134928 0 -0.65605901945558964 1.3121180389111793 0 -1.5094191770226986 1 I I 0 1 2 forward I I I I #
face $-1 $57 $58 $19 $-1 $59 reversed single #
loop $-1 $60 $61 $24 #
cone-surface $-1 68.333156571049017 43.596570719130867 11.528766291063944 -0.75470958851134928 0 -0.65605901945558964 1.3121180389111793 0 -1.5094191770226986 1 I I 0 1 2 forward I I I I #
face $-1 $62 $63 $15 $-1 $64 reversed single #
loop $-1 $-1 $65 $25 #
plane-surface $-1 0 0 -21.027882569059059 0 0 1 1 0 0 forward_v I I I I #
coedge $-1 $66 $67 $68 $69 forward $26 $-1 #
face $-1 $70 $71 $16 $-1 $72 reversed single #
loop $-1 $-1 $73 $28 #
plane-surface $-1 -84.586172230481537 0 -2.1089240042186308 0 0 1 1 0 0 forward_v I I I I #
coedge $-1 $74 $75 $76 $77 reversed $29 $-1 #
face $-1 $78 $79 $17 $-1 $80 forward single #
loop $-1 $-1 $81 $31 #
plane-surface $-1 -24.119017425037953 39.266663531822928 123.54234042487596 0.75470958851134928 0 0.65605901945558964 0.65605901945558964 0 -0.75470958851134928 forward_v I I I I #
coedge $-1 $82 $83 $84 $85 reversed $32 $-1 #
face $-1 $86 $87 $18 $-1 $88 forward single #
loop $-1 $89 $90 $34 #
cone-surface $-1 64.776230341799845 34.93675634451499 8.4367775714824518 -0.75470958851134928 0 -0.65605901945558964 0.65605901945558964 0 -0.75470958851134928 1 I I -0.70710678118654746 0.70710678118654746 1 forward I I I I #
loop $-1 $-1 $91 $23 #
coedge $-1 $56 $56 $92 $93 reversed $35 $-1 #
face $-1 $94 $95 $19 $-1 $96 reversed single #
loop $-1 $97 $98 $37 #
cone-surface $-1 64.776230341799845 43.596570719130867 8.4367775714824518 -0.75470958851134928 0 -0.65605901945558964 0.65605901945558964 0 -0.75470958851134928 1 I I -0.70710678118654746 0.70710678118654746 1 forward I I I I #
loop $-1 $-1 $99 $24 #
coedge $-1 $61 $61 $100 $101 reversed $38 $-1 #
face $-1 $102 $103 $15 $-1 $104 reversed single #
loop $-1 $-1 $105 $40 #
plane-surface $-1 0 -51.874708496985349 0 0 1 0 0 0 1 forward_v I I I I #
coedge $-1 $106 $107 $108 $109 forward $41 $-1 #
coedge $-1 $110 $43 $111 $112 forward $26 $-1 #
coedge $-1 $43 $110 $113 $114 forward $26 $-1 #
coedge $-1 $115 $116 $43 $69 reversed $117 $-1 #
edge $-1 $118 -51.874708496985349 $119 51.874708496985349 $68 $120 forward 7 unknown #
face $-1 $121 $122 $16 $-1 $123 reversed single #
loop $-1 $-1 $124 $44 #
plane-surface $-1 -91.897036986980112 0 0.90333766120409109 1 0 0 0 0 -1 forward_v I I I I #
coedge $-1 $125 $126 $127 $128 reversed $45 $-1 #
coedge $-1 $129 $47 $130 $131 forward $29 $-1 #
coedge $-1 $47 $129 $132 $133 forward $29 $-1 #
coedge $-1 $134 $135 $47 $77 forward $136 $-1 #
edge $-1 $137 -51.874708496985349 $138 51.874708496985349 $76 $139 forward 7 unknown #
face $-1 $140 $141 $17 $-1 $142 forward single #
loop $-1 $-1 $143 $48 #
plane-surface $-1 92.521813586517396 29.163546761437743 224.93666532389688 0 1 0 0.75470958851134928 0 0.65605901945558964 forward_v I I I I #
coedge $-1 $144 $145 $146 $147 reversed $49 $-1 #
coedge $-1 $83 $51 $145 $148 forward $32 $-1 #
coedge $-1 $51 $82 $149 $150 reversed $32 $-1 #
coedge $-1 $151 $146 $51 $85 forward $141 $-1 #
edge $-1 $152 18.734532156332037 $153 31.014400680724265 $84 $154 forward 7 unknown #
face $-1 $155 $156 $18 $-1 $157 forward single #
loop $-1 $-1 $158 $52 #
plane-surface $-1 92.521813586517396 49.369780302208113 224.93666532389688 0 -1 0 -0.75470958851134928 0 -0.65605901945558964 forward_v I I I I #
loop $-1 $-1 $159 $34 #
coedge $-1 $90 $90 $91 $160 forward $53 $-1 #
coedge $-1 $91 $91 $90 $160 reversed $55 $-1 #
coedge $-1 $92 $92 $56 $93 forward $156 $-1 #
edge $-1 $161 0 $161 6.2831853071796004 $92 $162 forward 7 unknown #
face $-1 $163 $164 $19 $-1 $165 reversed single #
loop $-1 $166 $167 $57 #
cone-surface $-1 68.333156571049017 34.93675634451499 11.528766291063944 -0.75470958851134928 0 -0.65605901945558964 1.3121180389111793 0 -1.5094191770226986 1 I I 0 1 2 forward I I I I #
loop $-1 $-1 $168 $37 #
coedge $-1 $98 $98 $99 $169 forward $58 $-1 #
coedge $-1 $99 $99 $98 $169 reversed $60 $-1 #
coedge $-1 $100 $100 $61 $101 forward $170 $-1 #
edge $-1 $171 0 $171 6.2831853071796004 $100 $172 forward 7 unknown #
face $-1 $173 $174 $15 $-1 $175 reversed single #
loop $-1 $-1 $176 $62 #
plane-surface $-1 -77.275307473982963 0 0 1 0 0 0 0 -1 forward_v I I I I #
coedge $-1 $177 $113 $178 $179 forward $63 $-1 #
coedge $-1 $180 $65 $177 $181 forward $41 $-1 #
coedge $-1 $65 $180 $182 $183 forward $41 $-1 #
coedge $-1 $116 $115 $65 $109 reversed $117 $-1 #
edge $-1 $184 -51.874708496985349 $185 51.874708496985349 $108 $186 forward 7 unknown #
coedge $-1 $67 $66 $187 $188 forward $26 $-1 #
coedge $-1 $189 $190 $66 $112 reversed $174 $-1 #
edge $-1 $119 -77.275307473982963 $191 77.275307473982963 $111 $192 forward 7 unknown #
coedge $-1 $105 $193 $67 $114 reversed $63 $-1 #
edge $-1 $194 -77.275307473982963 $118 77.275307473982963 $113 $195 forward 7 unknown #
coedge $-1 $108 $68 $193 $196 forward $117 $-1 #
coedge $-1 $68 $108 $189 $197 reversed $117 $-1 #
loop $-1 $-1 $115 $173 #
vertex $-1 $69 $198 #
vertex $-1 $69 $199 #
straight-curve $-1 77.275307473982963 0 21.027882569059059 0 1 0 I I #
face $-1 $200 $136 $16 $-1 $123 reversed single #
loop $-1 $-1 $127 $70 #
plane-surface $-1 -77.275307473982963 0 0 1 0 0 0 0 -1 forward_v I I I I #
coedge $-1 $201 $202 $203 $204 forward $71 $-1 #
coedge $-1 $205 $73 $206 $207 forward $45 $-1 #
coedge $-1 $73 $205 $208 $209 forward $45 $-1 #
coedge $-1 $210 $211 $73 $128 forward $122 $-1 #
edge $-1 $212 -51.874708496985349 $213 51.874708496985349 $127 $214 forward 7 unknown #
coedge $-1 $75 $74 $202 $215 forward $29 $-1 #
coedge $-1 $216 $203 $74 $131 reversed $217 $-1 #
edge $-1 $137 -7.3108647564985745 $218 7.3108647564985745 $130 $219 forward 7 unknown #
coedge $-1 $220 $221 $75 $133 reversed $222 $-1 #
edge $-1 $223 -7.3108647564985745 $138 7.3108647564985745 $132 $224 forward 7 unknown #
coedge $-1 $225 $76 $221 $226 reversed $136 $-1 #
coedge $-1 $76 $225 $216 $227 forward $136 $-1 #
loop $-1 $-1 $76 $121 #
vertex $-1 $227 $228 #
vertex $-1 $133 $229 #
straight-curve $-1 -77.275307473982963 0 3.915599326626813 0 -1 0 I I #
face $-1 $230 $231 $17 $-1 $232 forward single #
loop $-1 $-1 $233 $78 #
plane-surface $-1 0 0 21.027882569059059 0 0 1 1 0 0 forward_v I I I I #
coedge $-1 $234 $235 $233 $236 reversed $79 $-1 #
coedge $-1 $237 $81 $235 $238 reversed $49 $-1 #
coedge $-1 $81 $237 $82 $148 reversed $49 $-1 #
coedge $-1 $84 $233 $81 $147 forward $141 $-1 #
edge $-1 $239 9.5302149955262792 $152 29.736448536296649 $146 $240 forward 7 unknown #
edge $-1 $152 135.83298717328449 $241 154.55061494796595 $82 $242 forward 7 unknown #
coedge $-1 $243 $244 $83 $150 forward $245 $-1 #
edge $-1 $153 91.440450092889378 $241 105.56682324862783 $149 $246 forward 7 unknown #
coedge $-1 $247 $84 $244 $248 forward $141 $-1 #
vertex $-1 $147 $249 #
vertex $-1 $248 $250 #
straight-curve $-1 46.260906793258698 49.369780302208113 21.027882569059059 1 0 0 I I #
face $-1 $251 $252 $18 $-1 $253 forward single #
loop $-1 $254 $92 $86 #
plane-surface $-1 -24.119017425037953 39.266663531822928 123.54234042487596 0.75470958851134928 0 0.65605901945558964 0.65605901945558964 0 -0.75470958851134928 forward_v I I I I #
coedge $-1 $255 $256 $257 $258 reversed $87 $-1 #
coedge $-1 $159 $159 $-1 $259 forward $89 $-1 #
edge $-1 $260 0 $260 6.2831853071796004 $90 $261 forward 7 unknown #
vertex $-1 $93 $262 #
ellipse-curve $-1 71.135373211786842 34.93675634451499 13.964695991189849 -0.75470958851134928 0 -0.65605901945558964 1.3121180389111793 0 -1.5094191770226986 1 I I #
face $-1 $263 $264 $19 $-1 $265 forward single #
loop $-1 $266 $267 $94 #
cone-surface $-1 64.776230341799845 34.93675634451499 8.4367775714824518 -0.75470958851134928 0 -0.65605901945558964 0.65605901945558964 0 -0.75470958851134928 1 I I -0.70710678118654746 0.70710678118654746 1 forward I I I I #
loop $-1 $-1 $268 $57 #
coedge $-1 $167 $167 $269 $270 reversed $95 $-1 #
coedge $-1 $168 $168 $-1 $271 forward $97 $-1 #
edge $-1 $272 0 $272 6.2831853071796004 $98 $273 forward 7 unknown #
loop $-1 $274 $100 $263 #
vertex $-1 $101 $275 #
ellipse-curve $-1 71.135373211786842 43.596570719130867 13.964695991189849 -0.75470958851134928 0 -0.65605901945558964 1.3121180389111793 0 -1.5094191770226986 1 I I #
face $-1 $-1 $117 $15 $-1 $276 reversed single #
loop $-1 $-1 $189 $102 #
plane-surface $-1 0 51.874708496985349 0 0 -1 0 0 0 -1 forward_v I I I I #
coedge $-1 $277 $187 $190 $278 forward $103 $-1 #
coedge $-1 $193 $105 $106 $181 reversed $63 $-1 #
coedge $-1 $187 $277 $105 $179 reversed $103 $-1 #
edge $-1 $194 -21.027882569059059 $279 21.027882569059059 $178 $280 forward 7 unknown #
coedge $-1 $107 $106 $277 $281 forward $41 $-1 #
edge $-1 $185 -77.275307473982963 $279 77.275307473982963 $177 $282 forward 7 unknown #
coedge $-1 $190 $189 $107 $183 reversed $174 $-1 #
edge $-1 $283 -77.275307473982963 $184 77.275307473982963 $182 $284 forward 7 unknown #
vertex $-1 $109 $285 #
vertex $-1 $196 $286 #
straight-curve $-1 77.275307473982963 0 -21.027882569059059 0 -1 0 I I #
coedge $-1 $176 $178 $110 $188 reversed $103 $-1 #
edge $-1 $191 -51.874708496985349 $194 51.874708496985349 $187 $287 forward 7 unknown #
coedge $-1 $182 $111 $116 $197 forward $174 $-1 #
coedge $-1 $111 $182 $176 $278 reversed $174 $-1 #
vertex $-1 $112 $288 #
straight-curve $-1 0 51.874708496985349 21.027882569059059 -1 0 0 I I #
coedge $-1 $113 $177 $115 $196 reversed $63 $-1 #
vertex $-1 $188 $289 #
straight-curve $-1 0 -51.874708496985349 21.027882569059059 1 0 0 I I #
edge $-1 $118 -21.027882569059059 $185 21.027882569059059 $115 $290 forward 7 unknown #
edge $-1 $119 -21.027882569059059 $184 21.027882569059059 $116 $291 forward 7 unknown #
point $-1 77.275307473982963 -51.874708496985349 21.027882569059059 #
point $-1 77.275307473982963 51.874708496985349 21.027882569059059 #
face $-1 $292 $293 $16 $-1 $294 forward single #
coedge $-1 $295 $124 $205 $296 reversed $71 $-1 #
coedge $-1 $124 $295 $129 $215 reversed $71 $-1 #
coedge $-1 $130 $208 $124 $204 reversed $217 $-1 #
edge $-1 $218 -3.0122616654227219 $297 3.0122616654227219 $203 $298 forward 7 unknown #
coedge $-1 $126 $125 $201 $296 forward $45 $-1 #
coedge $-1 $299 $220 $125 $207 reversed $222 $-1 #
edge $-1 $212 -7.3108647564985745 $300 7.3108647564985745 $206 $301 forward 7 unknown #
coedge $-1 $203 $302 $126 $209 reversed $217 $-1 #
edge $-1 $297 -7.3108647564985745 $213 7.3108647564985745 $208 $303 forward 7 unknown #
coedge $-1 $304 $127 $302 $305 forward $122 $-1 #
coedge $-1 $127 $304 $299 $306 reversed $122 $-1 #
vertex $-1 $306 $307 #
vertex $-1 $305 $308 #
straight-curve $-1 -77.275307473982963 0 -2.1089240042186308 0 1 0 I I #
edge $-1 $218 -51.874708496985349 $223 51.874708496985349 $202 $309 forward 7 unknown #
coedge $-1 $310 $130 $135 $227 reversed $217 $-1 #
loop $-1 $-1 $311 $312 #
vertex $-1 $131 $313 #
straight-curve $-1 -84.586172230481537 51.874708496985349 3.915599326626813 -1 0 0 I I #
coedge $-1 $206 $132 $295 $314 forward $222 $-1 #
coedge $-1 $132 $315 $134 $226 forward $222 $-1 #
loop $-1 $-1 $221 $316 #
vertex $-1 $215 $317 #
straight-curve $-1 -84.586172230481537 -51.874708496985349 3.915599326626813 1 0 0 I I #
coedge $-1 $135 $134 $318 $319 reversed $136 $-1 #
edge $-1 $320 -21.027882569059059 $138 -3.915599326626813 $134 $321 forward 7 unknown #
edge $-1 $322 -21.027882569059059 $137 -3.915599326626813 $216 $323 forward 7 unknown #
point $-1 -77.275307473982963 51.874708496985349 3.915599326626813 #
point $-1 -77.275307473982963 -51.874708496985349 3.915599326626813 #
face $-1 $324 $325 $17 $-1 $326 reversed single #
loop $-1 $-1 $327 $140 #
plane-surface $-1 -84.586172230481537 0 3.915599326626813 0 0 1 1 0 0 forward_v I I I I #
coedge $-1 $146 $328 $143 $236 forward $141 $-1 #
coedge $-1 $235 $143 $329 $330 reversed $79 $-1 #
coedge $-1 $143 $234 $144 $238 forward $79 $-1 #
edge $-1 $331 -31.014400680724265 $239 -18.734532156332037 $233 $332 forward 7 unknown #
coedge $-1 $145 $144 $243 $333 reversed $49 $-1 #
edge $-1 $334 -154.55061494796595 $239 -135.83298717328449 $235 $335 forward 7 unknown #
vertex $-1 $147 $336 #
straight-curve $-1 64.995438949590735 19.633331765911464 21.027882569059059 0 1 0 I I #
vertex $-1 $333 $337 #
straight-curve $-1 -24.119017425037953 49.369780302208113 123.54234042487596 0.65605901945558964 0 -0.75470958851134928 I I #
coedge $-1 $329 $149 $237 $333 forward $245 $-1 #
coedge $-1 $149 $338 $151 $248 reversed $245 $-1 #
loop $-1 $-1 $329 $339 #
straight-curve $-1 77.275307473982963 49.369780302208113 112.46833266194844 0 0 -1 I I #
coedge $-1 $340 $151 $341 $342 forward $141 $-1 #
edge $-1 $153 49.369780302208113 $343 51.874708496985349 $244 $344 forward 7 unknown #
point $-1 64.995438949590735 49.369780302208113 21.027882569059059 #
point $-1 77.275307473982963 49.369780302208113 21.027882569059059 #
face $-1 $345 $346 $18 $-1 $347 forward single #
loop $-1 $-1 $348 $155 #
plane-surface $-1 92.521813586517396 29.163546761437743 224.93666532389688 0 1 0 0.75470958851134928 0 0.65605901945558964 forward_v I I I I #
loop $-1 $-1 $349 $86 #
coedge $-1 $256 $158 $350 $351 forward $87 $-1 #
coedge $-1 $158 $255 $352 $353 reversed $87 $-1 #
coedge $-1 $354 $355 $158 $258 forward $346 $-1 #
edge $-1 $356 18.734532156332037 $357 31.014400680724265 $257 $358 forward 7 unknown #
edge $-1 $359 1 $359 0 $159 $-1 forward 7 unknown #
vertex $-1 $160 $360 #
ellipse-curve $-1 65.530939930311192 34.93675634451499 9.0928365909380418 0.75470958851134928 0 0.65605901945558964 1.3121180389111793 0 -1.5094191770226986 1 I I #
point $-1 72.447491250698022 34.93675634451499 12.455276814167146 #
face $-1 $361 $170 $19 $-1 $362 forward single #
loop $-1 $-1 $363 $163 #
plane-surface $-1 92.521813586517396 49.369780302208113 224.93666532389688 0 -1 0 -0.75470958851134928 0 -0.65605901945558964 forward_v I I I I #
loop $-1 $-1 $364 $94 #
coedge $-1 $267 $267 $268 $365 forward $164 $-1 #
coedge $-1 $268 $268 $267 $365 reversed $166 $-1 #
coedge $-1 $269 $269 $167 $270 forward $274 $-1 #
edge $-1 $366 0 $366 6.2831853071796004 $269 $367 forward 7 unknown #
edge $-1 $368 1 $368 0 $168 $-1 forward 7 unknown #
vertex $-1 $169 $369 #
ellipse-curve $-1 65.530939930311192 43.596570719130867 9.0928365909380418 0.75470958851134928 0 0.65605901945558964 1.3121180389111793 0 -1.5094191770226986 1 I I #
loop $-1 $370 $269 $263 #
point $-1 72.447491250698022 43.596570719130867 12.455276814167146 #
plane-surface $-1 77.275307473982963 0 0 -1 0 0 0 0 1 forward_v I I I I #
coedge $-1 $178 $176 $180 $281 reversed $103 $-1 #
edge $-1 $191 -21.027882569059059 $283 21.027882569059059 $190 $371 forward 7 unknown #
vertex $-1 $281 $372 #
straight-curve $-1 -77.275307473982963 -51.874708496985349 0 0 0 -1 I I #
edge $-1 $279 -51.874708496985349 $283 51.874708496985349 $277 $373 forward 7 unknown #
straight-curve $-1 0 -51.874708496985349 -21.027882569059059 -1 0 0 I I #
vertex $-1 $183 $374 #
straight-curve $-1 0 51.874708496985349 -21.027882569059059 1 0 0 I I #
point $-1 77.275307473982963 51.874708496985349 -21.027882569059059 #
point $-1 77.275307473982963 -51.874708496985349 -21.027882569059059 #
straight-curve $-1 -77.275307473982963 0 21.027882569059059 0 -1 0 I I #
point $-1 -77.275307473982963 51.874708496985349 21.027882569059059 #
point $-1 -77.275307473982963 -51.874708496985349 21.027882569059059 #
straight-curve $-1 77.275307473982963 -51.874708496985349 0 0 0 -1 I I #
straight-curve $-1 77.275307473982963 51.874708496985349 0 0 0 -1 I I #
face $-1 $316 $375 $16 $-1 $376 reversed single #
loop $-1 $-1 $377 $200 #
plane-surface $-1 0 0 21.027882569059059 0 0 1 1 0 0 forward_v I I I I #
coedge $-1 $202 $201 $220 $314 reversed $71 $-1 #
edge $-1 $300 -51.874708496985349 $297 51.874708496985349 $201 $378 forward 7 unknown #
vertex $-1 $209 $379 #
straight-curve $-1 -91.897036986980112 51.874708496985349 0.90333766120409109 0 0 -1 I I #
coedge $-1 $380 $206 $211 $306 forward $222 $-1 #
vertex $-1 $296 $381 #
straight-curve $-1 -84.586172230481537 -51.874708496985349 -2.1089240042186308 -1 0 0 I I #
coedge $-1 $208 $382 $210 $305 reversed $217 $-1 #
straight-curve $-1 -84.586172230481537 51.874708496985349 -2.1089240042186308 1 0 0 I I #
coedge $-1 $211 $210 $383 $384 reversed $122 $-1 #
edge $-1 $213 2.1089240042186308 $385 21.027882569059059 $302 $323 forward 7 unknown #
edge $-1 $212 2.1089240042186308 $386 21.027882569059059 $211 $321 forward 7 unknown #
point $-1 -77.275307473982963 -51.874708496985349 -2.1089240042186308 #
point $-1 -77.275307473982963 51.874708496985349 -2.1089240042186308 #
straight-curve $-1 -91.897036986980112 0 3.915599326626813 0 -1 0 I I #
coedge $-1 $311 $216 $387 $388 reversed $217 $-1 #
coedge $-1 $382 $310 $389 $390 forward $217 $-1 #
face $-1 $391 $217 $16 $-1 $392 reversed single #
point $-1 -91.897036986980112 51.874708496985349 3.915599326626813 #
edge $-1 $223 -3.0122616654227219 $300 3.0122616654227219 $295 $393 forward 7 unknown #
coedge $-1 $221 $394 $395 $396 reversed $222 $-1 #
face $-1 $312 $222 $16 $-1 $397 reversed single #
point $-1 -91.897036986980112 -51.874708496985349 3.915599326626813 #
coedge $-1 $395 $387 $225 $319 forward $293 $-1 #
edge $-1 $322 -51.874708496985349 $320 51.874708496985349 $225 $398 forward 7 unknown #
vertex $-1 $319 $399 #
straight-curve $-1 -77.275307473982963 -51.874708496985349 0 0 0 -1 I I #
vertex $-1 $388 $400 #
straight-curve $-1 -77.275307473982963 51.874708496985349 0 0 0 -1 I I #
face $-1 $401 $402 $17 $-1 $403 reversed single #
loop $-1 $-1 $404 $230 #
plane-surface $-1 -84.586172230481537 0 -2.1089240042186308 0 0 1 1 0 0 forward_v I I I I #
coedge $-1 $405 $406 $407 $408 reversed $231 $-1 #
coedge $-1 $233 $409 $410 $411 forward $141 $-1 #
coedge $-1 $410 $243 $234 $330 forward $245 $-1 #
edge $-1 $334 -105.56682324862783 $331 -91.440450092889378 $329 $412 forward 7 unknown #
vertex $-1 $330 $413 #
straight-curve $-1 46.260906793258698 29.163546761437743 21.027882569059059 -1 0 0 I I #
edge $-1 $241 -29.736448536296649 $334 -9.5302149955262792 $243 $414 forward 7 unknown #
vertex $-1 $333 $415 #
straight-curve $-1 -24.119017425037953 29.163546761437743 123.54234042487596 -0.65605901945558964 0 0.75470958851134928 I I #
point $-1 64.995438949590735 29.163546761437743 21.027882569059059 #
point $-1 77.275307473982963 49.369780302208113 6.9015094133206105 #
coedge $-1 $244 $416 $417 $418 reversed $245 $-1 #
face $-1 $-1 $245 $17 $-1 $419 reversed single #
coedge $-1 $409 $247 $420 $421 forward $141 $-1 #
coedge $-1 $417 $422 $247 $342 reversed $423 $-1 #
edge $-1 $343 -77.275307473982963 $424 77.275307473982963 $341 $425 forward 7 unknown #
vertex $-1 $248 $426 #
straight-curve $-1 77.275307473982963 0 21.027882569059059 0 1 0 I I #
face $-1 $427 $428 $18 $-1 $429 forward single #
loop $-1 $-1 $430 $251 #
plane-surface $-1 0 0 21.027882569059059 0 0 1 1 0 0 forward_v I I I I #
coedge $-1 $431 $432 $430 $433 reversed $252 $-1 #
coedge $-1 $434 $350 $355 $435 reversed $254 $-1 #
coedge $-1 $349 $436 $255 $351 reversed $254 $-1 #
edge $-1 $356 135.83298717328449 $437 154.55061494796595 $255 $438 forward 7 unknown #
coedge $-1 $439 $440 $256 $353 forward $441 $-1 #
edge $-1 $357 91.440450092889378 $437 105.56682324862783 $352 $442 forward 7 unknown #
coedge $-1 $443 $257 $440 $444 forward $346 $-1 #
coedge $-1 $257 $430 $349 $435 forward $346 $-1 #
vertex $-1 $435 $445 #
vertex $-1 $444 $446 #
straight-curve $-1 46.260906793258698 49.369780302208113 21.027882569059059 1 0 0 I I #
vertex $-1 $259 $447 #
point $-1 66.843057969222372 34.93675634451499 7.5834174139153427 #
face $-1 $448 $449 $19 $-1 $450 forward single #
plane-surface $-1 -24.119017425037953 39.266663531822928 123.54234042487596 0.75470958851134928 0 0.65605901945558964 0.65605901945558964 0 -0.75470958851134928 forward_v I I I I #
coedge $-1 $451 $452 $453 $454 reversed $264 $-1 #
coedge $-1 $364 $364 $-1 $455 forward $266 $-1 #
edge $-1 $456 0 $456 6.2831853071796004 $267 $457 forward 7 unknown #
vertex $-1 $270 $458 #
ellipse-curve $-1 71.135373211786842 34.93675634451499 13.964695991189849 -0.75470958851134928 0 -0.65605901945558964 1.3121180389111793 0 -1.5094191770226986 1 I I #
vertex $-1 $271 $459 #
point $-1 66.843057969222372 43.596570719130867 7.5834174139153427 #
loop $-1 $-1 $460 $263 #
straight-curve $-1 -77.275307473982963 51.874708496985349 0 0 0 -1 I I #
point $-1 -77.275307473982963 -51.874708496985349 -21.027882569059059 #
straight-curve $-1 -77.275307473982963 0 -21.027882569059059 0 1 0 I I #
point $-1 -77.275307473982963 51.874708496985349 -21.027882569059059 #
loop $-1 $-1 $461 $292 #
plane-surface $-1 0 0 -21.027882569059059 0 0 1 1 0 0 forward_v I I I I #
coedge $-1 $387 $395 $462 $463 forward $293 $-1 #
straight-curve $-1 -91.897036986980112 0 -2.1089240042186308 0 1 0 I I #
point $-1 -91.897036986980112 51.874708496985349 -2.1089240042186308 #
coedge $-1 $394 $299 $464 $465 reversed $222 $-1 #
point $-1 -91.897036986980112 -51.874708496985349 -2.1089240042186308 #
coedge $-1 $302 $311 $466 $467 reversed $217 $-1 #
coedge $-1 $466 $464 $304 $384 forward $375 $-1 #
edge $-1 $386 -51.874708496985349 $385 51.874708496985349 $304 $468 forward 7 unknown #
vertex $-1 $467 $469 #
vertex $-1 $384 $470 #
coedge $-1 $318 $377 $310 $388 forward $293 $-1 #
edge $-1 $471 -77.275307473982963 $322 77.275307473982963 $310 $472 forward 7 unknown #
coedge $-1 $462 $473 $311 $390 reversed $474 $-1 #
edge $-1 $471 -21.027882569059059 $475 21.027882569059059 $389 $476 forward 7 unknown #
face $-1 $-1 $474 $16 $-1 $477 reversed single #
plane-surface $-1 0 51.874708496985349 0 0 -1 0 0 0 -1 forward_v I I I I #
straight-curve $-1 -91.897036986980112 -51.874708496985349 0.90333766120409109 0 0 -1 I I #
coedge $-1 $315 $380 $478 $479 reversed $222 $-1 #
coedge $-1 $377 $318 $315 $396 forward $293 $-1 #
edge $-1 $320 -77.275307473982963 $480 77.275307473982963 $315 $481 forward 7 unknown #
plane-surface $-1 0 -51.874708496985349 0 0 1 0 0 0 1 forward_v I I I I #
straight-curve $-1 -77.275307473982963 0 21.027882569059059 0 -1 0 I I #
point $-1 -77.275307473982963 -51.874708496985349 21.027882569059059 #
point $-1 -77.275307473982963 51.874708496985349 21.027882569059059 #
face $-1 $482 $483 $17 $-1 $484 reversed single #
loop $-1 $-1 $485 $324 #
plane-surface $-1 -91.897036986980112 0 0.90333766120409109 1 0 0 0 0 -1 forward_v I I I I #
coedge $-1 $486 $487 $488 $489 reversed $325 $-1 #
coedge $-1 $490 $327 $491 $492 forward $231 $-1 #
coedge $-1 $327 $490 $493 $494 forward $231 $-1 #
coedge $-1 $495 $496 $327 $408 forward $497 $-1 #
edge $-1 $498 -51.874708496985349 $499 51.874708496985349 $407 $500 forward 7 unknown #
coedge $-1 $328 $340 $501 $502 forward $141 $-1 #
coedge $-1 $503 $329 $328 $411 reversed $245 $-1 #
edge $-1 $504 -51.874708496985349 $331 29.163546761437743 $410 $344 forward 7 unknown #
straight-curve $-1 77.275307473982963 29.163546761437743 112.46833266194844 0 0 1 I I #
point $-1 77.275307473982963 29.163546761437743 21.027882569059059 #
straight-curve $-1 77.275307473982963 19.633331765911464 6.9015094133206176 0 -1 0 I I #
point $-1 77.275307473982963 29.163546761437743 6.9015094133206105 #
coedge $-1 $338 $503 $505 $506 reversed $245 $-1 #
coedge $-1 $507 $341 $338 $418 forward $423 $-1 #
edge $-1 $343 -21.027882569059059 $508 21.027882569059059 $338 $509 forward 7 unknown #
plane-surface $-1 77.275307473982963 0 0 -1 0 0 0 0 1 forward_v I I I I #
coedge $-1 $496 $495 $340 $421 reversed $497 $-1 #
edge $-1 $424 -51.874708496985349 $510 51.874708496985349 $420 $511 forward 7 unknown #
coedge $-1 $341 $491 $496 $512 reversed $423 $-1 #
loop $-1 $-1 $417 $513 #
vertex $-1 $342 $514 #
straight-curve $-1 0 51.874708496985349 21.027882569059059 -1 0 0 I I #
point $-1 77.275307473982963 51.874708496985349 21.027882569059059 #
face $-1 $515 $516 $18 $-1 $517 reversed single #
loop $-1 $-1 $518 $345 #
plane-surface $-1 -84.586172230481537 0 3.915599326626813 0 0 1 1 0 0 forward_v I I I I #
coedge $-1 $355 $519 $348 $433 forward $346 $-1 #
coedge $-1 $432 $348 $520 $521 reversed $252 $-1 #
coedge $-1 $348 $431 $434 $522 forward $252 $-1 #
edge $-1 $523 -31.014400680724265 $524 -18.734532156332037 $430 $525 forward 7 unknown #
coedge $-1 $436 $349 $432 $522 reversed $254 $-1 #
edge $-1 $524 9.5302149955262792 $356 29.736448536296649 $355 $526 forward 7 unknown #
coedge $-1 $350 $434 $439 $527 reversed $254 $-1 #
vertex $-1 $527 $528 #
straight-curve $-1 -24.119017425037953 49.369780302208113 123.54234042487596 0.65605901945558964 0 -0.75470958851134928 I I #
coedge $-1 $520 $352 $436 $527 forward $441 $-1 #
coedge $-1 $352 $529 $354 $444 reversed $441 $-1 #
loop $-1 $-1 $520 $530 #
straight-curve $-1 77.275307473982963 49.369780302208113 112.46833266194844 0 0 -1 I I #
coedge $-1 $531 $354 $532 $533 forward $346 $-1 #
edge $-1 $357 49.369780302208113 $534 51.874708496985349 $440 $535 forward 7 unknown #
point $-1 64.995438949590735 49.369780302208113 21.027882569059059 #
point $-1 77.275307473982963 49.369780302208113 21.027882569059059 #
point $-1 64.021520753288499 34.93675634451499 7.7807185520268618 #
face $-1 $536 $537 $19 $-1 $538 forward single #
loop $-1 $-1 $539 $361 #
plane-surface $-1 92.521813586517396 29.163546761437743 224.93666532389688 0 1 0 0.75470958851134928 0 0.65605901945558964 forward_v I I I I #
coedge $-1 $452 $363 $540 $541 forward $264 $-1 #
coedge $-1 $363 $451 $542 $543 reversed $264 $-1 #
coedge $-1 $544 $545 $363 $454 forward $537 $-1 #
edge $-1 $546 18.734532156332037 $547 31.014400680724265 $453 $548 forward 7 unknown #
edge $-1 $549 1 $549 0 $364 $-1 forward 7 unknown #
vertex $-1 $365 $550 #
ellipse-curve $-1 65.530939930311192 34.93675634451499 9.0928365909380418 0.75470958851134928 0 0.65605901945558964 1.3121180389111793 0 -1.5094191770226986 1 I I #
point $-1 72.447491250698022 34.93675634451499 12.455276814167146 #
point $-1 64.021520753288499 43.596570719130867 7.7807185520268618 #
coedge $-1 $551 $540 $545 $552 reversed $370 $-1 #
coedge $-1 $464 $466 $473 $553 forward $375 $-1 #
coedge $-1 $478 $389 $377 $463 reversed $474 $-1 #
edge $-1 $480 -51.874708496985349 $471 51.874708496985349 $462 $554 forward 7 unknown #
coedge $-1 $383 $461 $380 $465 forward $375 $-1 #
edge $-1 $555 -77.275307473982963 $386 77.275307473982963 $380 $556 forward 7 unknown #
coedge $-1 $461 $383 $382 $467 forward $375 $-1 #
edge $-1 $385 -77.275307473982963 $475 77.275307473982963 $382 $557 forward 7 unknown #
straight-curve $-1 -77.275307473982963 0 -21.027882569059059 0 1 0 I I #
point $-1 -77.275307473982963 51.874708496985349 -21.027882569059059 #
point $-1 -77.275307473982963 -51.874708496985349 -21.027882569059059 #
vertex $-1 $463 $558 #
straight-curve $-1 0 51.874708496985349 21.027882569059059 -1 0 0 I I #
coedge $-1 $389 $478 $461 $553 reversed $474 $-1 #
loop $-1 $-1 $478 $391 #
vertex $-1 $553 $559 #
straight-curve $-1 77.275307473982963 51.874708496985349 0 0 0 -1 I I #
plane-surface $-1 77.275307473982963 0 0 -1 0 0 0 0 1 forward_v I I I I #
coedge $-1 $473 $462 $394 $479 forward $474 $-1 #
edge $-1 $480 -21.027882569059059 $555 21.027882569059059 $478 $560 forward 7 unknown #
vertex $-1 $463 $561 #
straight-curve $-1 0 -51.874708496985349 21.027882569059059 1 0 0 I I #
face $-1 $562 $497 $17 $-1 $484 reversed single #
loop $-1 $-1 $488 $401 #
plane-surface $-1 -77.275307473982963 0 0 1 0 0 0 0 -1 forward_v I I I I #
coedge $-1 $563 $564 $565 $566 forward $402 $-1 #
coedge $-1 $567 $404 $568 $569 forward $325 $-1 #
coedge $-1 $404 $567 $570 $571 forward $325 $-1 #
coedge $-1 $572 $573 $404 $489 forward $483 $-1 #
edge $-1 $574 -51.874708496985349 $575 51.874708496985349 $488 $576 forward 7 unknown #
coedge $-1 $406 $405 $564 $577 forward $231 $-1 #
coedge $-1 $422 $565 $405 $492 reversed $423 $-1 #
edge $-1 $498 -7.3108647564985745 $578 7.3108647564985745 $491 $579 forward 7 unknown #
coedge $-1 $580 $581 $406 $494 reversed $582 $-1 #
edge $-1 $583 -7.3108647564985745 $499 7.3108647564985745 $493 $584 forward 7 unknown #
coedge $-1 $420 $407 $581 $585 reversed $497 $-1 #
coedge $-1 $407 $420 $422 $512 forward $497 $-1 #
loop $-1 $-1 $407 $482 #
vertex $-1 $512 $586 #
vertex $-1 $494 $587 #
straight-curve $-1 -77.275307473982963 0 3.915599326626813 0 -1 0 I I #
coedge $-1 $581 $588 $409 $502 reversed $582 $-1 #
edge $-1 $510 -77.275307473982963 $504 77.275307473982963 $501 $589 forward 7 unknown #
coedge $-1 $416 $410 $588 $590 forward $245 $-1 #
vertex $-1 $411 $591 #
coedge $-1 $592 $593 $416 $506 forward $594 $-1 #
edge $-1 $508 -51.874708496985349 $595 51.874708496985349 $416 $596 forward 7 unknown #
coedge $-1 $597 $417 $593 $598 reversed $423 $-1 #
vertex $-1 $506 $599 #
straight-curve $-1 77.275307473982963 51.874708496985349 0 0 0 -1 I I #
vertex $-1 $421 $600 #
straight-curve $-1 -77.275307473982963 0 21.027882569059059 0 -1 0 I I #
edge $-1 $424 -21.027882569059059 $498 -3.915599326626813 $422 $601 forward 7 unknown #
face $-1 $339 $423 $17 $-1 $602 reversed single #
point $-1 -77.275307473982963 51.874708496985349 21.027882569059059 #
face $-1 $603 $604 $18 $-1 $605 reversed single #
loop $-1 $-1 $606 $427 #
plane-surface $-1 -84.586172230481537 0 -2.1089240042186308 0 0 1 1 0 0 forward_v I I I I #
coedge $-1 $607 $608 $609 $610 reversed $428 $-1 #
coedge $-1 $430 $611 $612 $613 forward $346 $-1 #
coedge $-1 $612 $439 $431 $521 forward $441 $-1 #
edge $-1 $614 -105.56682324862783 $523 -91.440450092889378 $520 $615 forward 7 unknown #
edge $-1 $614 -154.55061494796595 $524 -135.83298717328449 $432 $616 forward 7 unknown #
vertex $-1 $521 $617 #
vertex $-1 $435 $618 #
straight-curve $-1 46.260906793258698 29.163546761437743 21.027882569059059 -1 0 0 I I #
straight-curve $-1 64.995438949590735 19.633331765911464 21.027882569059059 0 1 0 I I #
edge $-1 $437 -29.736448536296649 $614 -9.5302149955262792 $439 $619 forward 7 unknown #
point $-1 77.275307473982963 49.369780302208113 6.9015094133206105 #
coedge $-1 $440 $620 $621 $622 reversed $441 $-1 #
face $-1 $-1 $441 $18 $-1 $623 reversed single #
coedge $-1 $611 $443 $624 $625 forward $346 $-1 #
coedge $-1 $621 $626 $443 $533 reversed $627 $-1 #
edge $-1 $534 -77.275307473982963 $628 77.275307473982963 $532 $629 forward 7 unknown #
vertex $-1 $444 $630 #
straight-curve $-1 77.275307473982963 0 21.027882569059059 0 1 0 I I #
face $-1 $631 $632 $19 $-1 $633 forward single #
loop $-1 $-1 $634 $448 #
plane-surface $-1 0 0 21.027882569059059 0 0 1 1 0 0 forward_v I I I I #
coedge $-1 $635 $636 $634 $637 reversed $449 $-1 #
coedge $-1 $460 $638 $451 $541 reversed $370 $-1 #
edge $-1 $546 135.83298717328449 $639 154.55061494796595 $451 $640 forward 7 unknown #
coedge $-1 $641 $642 $452 $543 forward $643 $-1 #
edge $-1 $547 91.440450092889378 $639 105.56682324862783 $542 $644 forward 7 unknown #
coedge $-1 $645 $453 $642 $646 forward $537 $-1 #
coedge $-1 $453 $634 $460 $552 forward $537 $-1 #
vertex $-1 $552 $647 #
vertex $-1 $646 $648 #
straight-curve $-1 46.260906793258698 49.369780302208113 21.027882569059059 1 0 0 I I #
vertex $-1 $455 $649 #
point $-1 66.843057969222372 34.93675634451499 7.5834174139153427 #
coedge $-1 $638 $460 $636 $650 reversed $370 $-1 #
edge $-1 $651 9.5302149955262792 $546 29.736448536296649 $545 $652 forward 7 unknown #
edge $-1 $475 -51.874708496985349 $555 51.874708496985349 $473 $653 forward 7 unknown #
straight-curve $-1 77.275307473982963 0 21.027882569059059 0 1 0 I I #
vertex $-1 $479 $654 #
straight-curve $-1 0 -51.874708496985349 -21.027882569059059 -1 0 0 I I #
straight-curve $-1 0 51.874708496985349 -21.027882569059059 1 0 0 I I #
point $-1 77.275307473982963 51.874708496985349 21.027882569059059 #
point $-1 77.275307473982963 51.874708496985349 -21.027882569059059 #
straight-curve $-1 77.275307473982963 -51.874708496985349 0 0 0 -1 I I #
point $-1 77.275307473982963 -51.874708496985349 21.027882569059059 #
face $-1 $655 $594 $17 $-1 $656 reversed single #
coedge $-1 $657 $485 $567 $658 reversed $402 $-1 #
coedge $-1 $485 $657 $490 $577 reversed $402 $-1 #
coedge $-1 $491 $570 $485 $566 reversed $423 $-1 #
edge $-1 $578 -3.0122616654227219 $659 3.0122616654227219 $565 $660 forward 7 unknown #
coedge $-1 $487 $486 $563 $658 forward $325 $-1 #
coedge $-1 $661 $580 $486 $569 reversed $582 $-1 #
edge $-1 $574 -7.3108647564985745 $662 7.3108647564985745 $568 $663 forward 7 unknown #
coedge $-1 $565 $597 $487 $571 reversed $423 $-1 #
edge $-1 $659 -7.3108647564985745 $575 7.3108647564985745 $570 $664 forward 7 unknown #
coedge $-1 $665 $488 $597 $666 forward $483 $-1 #
coedge $-1 $488 $665 $661 $667 reversed $483 $-1 #
vertex $-1 $667 $668 #
vertex $-1 $666 $669 #
straight-curve $-1 -77.275307473982963 0 -2.1089240042186308 0 1 0 I I #
edge $-1 $578 -51.874708496985349 $583 51.874708496985349 $564 $670 forward 7 unknown #
vertex $-1 $492 $671 #
straight-curve $-1 -84.586172230481537 51.874708496985349 3.915599326626813 -1 0 0 I I #
coedge $-1 $568 $493 $657 $672 forward $582 $-1 #
coedge $-1 $493 $501 $495 $585 forward $582 $-1 #
loop $-1 $-1 $581 $655 #
vertex $-1 $577 $673 #
straight-curve $-1 -84.586172230481537 -51.874708496985349 3.915599326626813 1 0 0 I I #
edge $-1 $510 -21.027882569059059 $499 -3.915599326626813 $495 $674 forward 7 unknown #
point $-1 -77.275307473982963 51.874708496985349 3.915599326626813 #
point $-1 -77.275307473982963 -51.874708496985349 3.915599326626813 #
coedge $-1 $501 $675 $503 $590 reversed $582 $-1 #
straight-curve $-1 0 -51.874708496985349 21.027882569059059 1 0 0 I I #
edge $-1 $504 -21.027882569059059 $595 21.027882569059059 $503 $676 forward 7 unknown #
point $-1 77.275307473982963 -51.874708496985349 21.027882569059059 #
coedge $-1 $677 $505 $675 $678 forward $594 $-1 #
coedge $-1 $505 $677 $507 $598 forward $594 $-1 #
loop $-1 $-1 $505 $562 #
vertex $-1 $590 $679 #
straight-curve $-1 77.275307473982963 0 -21.027882569059059 0 -1 0 I I #
coedge $-1 $570 $507 $572 $666 reversed $423 $-1 #
edge $-1 $680 -77.275307473982963 $508 77.275307473982963 $507 $681 forward 7 unknown #
point $-1 77.275307473982963 51.874708496985349 -21.027882569059059 #
point $-1 -77.275307473982963 -51.874708496985349 21.027882569059059 #
straight-curve $-1 -77.275307473982963 51.874708496985349 0 0 0 -1 I I #
plane-surface $-1 0 51.874708496985349 0 0 -1 0 0 0 -1 forward_v I I I I #
face $-1 $682 $683 $18 $-1 $684 reversed single #
loop $-1 $-1 $685 $515 #
plane-surface $-1 -91.897036986980112 0 0.90333766120409109 1 0 0 0 0 -1 forward_v I I I I #
coedge $-1 $686 $687 $688 $689 reversed $516 $-1 #
coedge $-1 $690 $518 $691 $692 forward $428 $-1 #
coedge $-1 $518 $690 $693 $694 forward $428 $-1 #
coedge $-1 $695 $696 $518 $610 forward $697 $-1 #
edge $-1 $698 -51.874708496985349 $699 51.874708496985349 $609 $700 forward 7 unknown #
coedge $-1 $519 $531 $701 $702 forward $346 $-1 #
coedge $-1 $703 $520 $519 $613 reversed $441 $-1 #
edge $-1 $704 -51.874708496985349 $523 29.163546761437743 $612 $535 forward 7 unknown #
vertex $-1 $527 $705 #
straight-curve $-1 77.275307473982963 29.163546761437743 112.46833266194844 0 0 1 I I #
straight-curve $-1 -24.119017425037953 29.163546761437743 123.54234042487596 -0.65605901945558964 0 0.75470958851134928 I I #
point $-1 77.275307473982963 29.163546761437743 21.027882569059059 #
point $-1 64.995438949590735 29.163546761437743 21.027882569059059 #
straight-curve $-1 77.275307473982963 19.633331765911464 6.9015094133206176 0 -1 0 I I #
coedge $-1 $529 $703 $706 $707 reversed $441 $-1 #
coedge $-1 $708 $532 $529 $622 forward $627 $-1 #
edge $-1 $534 -21.027882569059059 $709 21.027882569059059 $529 $710 forward 7 unknown #
plane-surface $-1 77.275307473982963 0 0 -1 0 0 0 0 1 forward_v I I I I #
coedge $-1 $696 $695 $531 $625 reversed $697 $-1 #
edge $-1 $628 -51.874708496985349 $711 51.874708496985349 $624 $712 forward 7 unknown #
coedge $-1 $532 $691 $696 $713 reversed $627 $-1 #
loop $-1 $-1 $621 $714 #
vertex $-1 $533 $715 #
straight-curve $-1 0 51.874708496985349 21.027882569059059 -1 0 0 I I #
point $-1 77.275307473982963 51.874708496985349 21.027882569059059 #
face $-1 $716 $717 $19 $-1 $718 reversed single #
loop $-1 $-1 $719 $536 #
plane-surface $-1 -84.586172230481537 0 3.915599326626813 0 0 1 1 0 0 forward_v I I I I #
coedge $-1 $545 $720 $539 $637 forward $537 $-1 #
coedge $-1 $636 $539 $721 $722 reversed $449 $-1 #
coedge $-1 $539 $635 $551 $650 forward $449 $-1 #
edge $-1 $723 -31.014400680724265 $651 -18.734532156332037 $634 $724 forward 7 unknown #
coedge $-1 $540 $551 $641 $725 reversed $370 $-1 #
vertex $-1 $725 $726 #
straight-curve $-1 -24.119017425037953 49.369780302208113 123.54234042487596 0.65605901945558964 0 -0.75470958851134928 I I #
coedge $-1 $721 $542 $638 $725 forward $643 $-1 #
coedge $-1 $542 $727 $544 $646 reversed $643 $-1 #
loop $-1 $-1 $721 $728 #
straight-curve $-1 77.275307473982963 49.369780302208113 112.46833266194844 0 0 -1 I I #
coedge $-1 $729 $544 $730 $731 forward $537 $-1 #
edge $-1 $547 49.369780302208113 $732 51.874708496985349 $642 $733 forward 7 unknown #
point $-1 64.995438949590735 49.369780302208113 21.027882569059059 #
point $-1 77.275307473982963 49.369780302208113 21.027882569059059 #
point $-1 64.021520753288499 34.93675634451499 7.7807185520268618 #
edge $-1 $734 -154.55061494796595 $651 -135.83298717328449 $636 $735 forward 7 unknown #
vertex $-1 $552 $736 #
straight-curve $-1 64.995438949590735 19.633331765911464 21.027882569059059 0 1 0 I I #
straight-curve $-1 77.275307473982963 0 -21.027882569059059 0 -1 0 I I #
point $-1 77.275307473982963 -51.874708496985349 -21.027882569059059 #
face $-1 $513 $582 $17 $-1 $737 reversed single #
plane-surface $-1 0 0 -21.027882569059059 0 0 1 1 0 0 forward_v I I I I #
coedge $-1 $564 $563 $580 $672 reversed $402 $-1 #
edge $-1 $662 -51.874708496985349 $659 51.874708496985349 $563 $738 forward 7 unknown #
vertex $-1 $571 $739 #
straight-curve $-1 -91.897036986980112 51.874708496985349 0.90333766120409109 0 0 -1 I I #
coedge $-1 $675 $568 $573 $667 forward $582 $-1 #
vertex $-1 $658 $740 #
straight-curve $-1 -84.586172230481537 -51.874708496985349 -2.1089240042186308 -1 0 0 I I #
straight-curve $-1 -84.586172230481537 51.874708496985349 -2.1089240042186308 1 0 0 I I #
coedge $-1 $573 $572 $677 $741 reversed $483 $-1 #
edge $-1 $575 2.1089240042186308 $680 21.027882569059059 $597 $601 forward 7 unknown #
edge $-1 $574 2.1089240042186308 $742 21.027882569059059 $573 $674 forward 7 unknown #
point $-1 -77.275307473982963 -51.874708496985349 -2.1089240042186308 #
point $-1 -77.275307473982963 51.874708496985349 -2.1089240042186308 #
straight-curve $-1 -91.897036986980112 0 3.915599326626813 0 -1 0 I I #
point $-1 -91.897036986980112 51.874708496985349 3.915599326626813 #
edge $-1 $583 -3.0122616654227219 $662 3.0122616654227219 $657 $743 forward 7 unknown #
point $-1 -91.897036986980112 -51.874708496985349 3.915599326626813 #
straight-curve $-1 -77.275307473982963 -51.874708496985349 0 0 0 -1 I I #
coedge $-1 $588 $661 $592 $678 reversed $582 $-1 #
straight-curve $-1 77.275307473982963 -51.874708496985349 0 0 0 -1 I I #
coedge $-1 $593 $592 $665 $741 forward $594 $-1 #
edge $-1 $595 -77.275307473982963 $742 77.275307473982963 $675 $744 forward 7 unknown #
point $-1 77.275307473982963 -51.874708496985349 -21.027882569059059 #
vertex $-1 $598 $745 #
straight-curve $-1 0 51.874708496985349 -21.027882569059059 1 0 0 I I #
face $-1 $746 $697 $18 $-1 $684 reversed single #
loop $-1 $-1 $688 $603 #
plane-surface $-1 -77.275307473982963 0 0 1 0 0 0 0 -1 forward_v I I I I #
coedge $-1 $747 $748 $749 $750 forward $604 $-1 #
coedge $-1 $751 $606 $752 $753 forward $516 $-1 #
coedge $-1 $606 $751 $754 $755 forward $516 $-1 #
coedge $-1 $756 $757 $606 $689 forward $683 $-1 #
edge $-1 $758 -51.874708496985349 $759 51.874708496985349 $688 $760 forward 7 unknown #
coedge $-1 $608 $607 $748 $761 forward $428 $-1 #
coedge $-1 $626 $749 $607 $692 reversed $627 $-1 #
edge $-1 $698 -7.3108647564985745 $762 7.3108647564985745 $691 $763 forward 7 unknown #
coedge $-1 $764 $765 $608 $694 reversed $766 $-1 #
edge $-1 $767 -7.3108647564985745 $699 7.3108647564985745 $693 $768 forward 7 unknown #
coedge $-1 $624 $609 $765 $769 reversed $697 $-1 #
coedge $-1 $609 $624 $626 $713 forward $697 $-1 #
loop $-1 $-1 $609 $682 #
vertex $-1 $713 $770 #
vertex $-1 $694 $771 #
straight-curve $-1 -77.275307473982963 0 3.915599326626813 0 -1 0 I I #
coedge $-1 $765 $772 $611 $702 reversed $766 $-1 #
edge $-1 $711 -77.275307473982963 $704 77.275307473982963 $701 $773 forward 7 unknown #
coedge $-1 $620 $612 $772 $774 forward $441 $-1 #
vertex $-1 $613 $775 #
point $-1 77.275307473982963 29.163546761437743 6.9015094133206105 #
coedge $-1 $776 $777 $620 $707 forward $778 $-1 #
edge $-1 $709 -51.874708496985349 $779 51.874708496985349 $620 $780 forward 7 unknown #
coedge $-1 $781 $621 $777 $782 reversed $627 $-1 #
vertex $-1 $707 $783 #
straight-curve $-1 77.275307473982963 51.874708496985349 0 0 0 -1 I I #
vertex $-1 $625 $784 #
straight-curve $-1 -77.275307473982963 0 21.027882569059059 0 -1 0 I I #
edge $-1 $628 -21.027882569059059 $698 -3.915599326626813 $626 $785 forward 7 unknown #
face $-1 $530 $627 $18 $-1 $786 reversed single #
point $-1 -77.275307473982963 51.874708496985349 21.027882569059059 #
face $-1 $787 $788 $19 $-1 $789 reversed single #
loop $-1 $-1 $790 $631 #
plane-surface $-1 -84.586172230481537 0 -2.1089240042186308 0 0 1 1 0 0 forward_v I I I I #
coedge $-1 $791 $792 $793 $794 reversed $632 $-1 #
coedge $-1 $634 $795 $796 $797 forward $537 $-1 #
coedge $-1 $796 $641 $635 $722 forward $643 $-1 #
edge $-1 $734 -105.56682324862783 $723 -91.440450092889378 $721 $798 forward 7 unknown #
vertex $-1 $722 $799 #
straight-curve $-1 46.260906793258698 29.163546761437743 21.027882569059059 -1 0 0 I I #
edge $-1 $639 -29.736448536296649 $734 -9.5302149955262792 $641 $800 forward 7 unknown #
point $-1 77.275307473982963 49.369780302208113 6.9015094133206105 #
coedge $-1 $642 $801 $802 $803 reversed $643 $-1 #
face $-1 $-1 $643 $19 $-1 $804 reversed single #
coedge $-1 $795 $645 $805 $806 forward $537 $-1 #
coedge $-1 $802 $807 $645 $731 reversed $808 $-1 #
edge $-1 $732 -77.275307473982963 $809 77.275307473982963 $730 $810 forward 7 unknown #
vertex $-1 $646 $811 #
straight-curve $-1 77.275307473982963 0 21.027882569059059 0 1 0 I I #
vertex $-1 $725 $812 #
straight-curve $-1 -24.119017425037953 29.163546761437743 123.54234042487596 -0.65605901945558964 0 0.75470958851134928 I I #
point $-1 64.995438949590735 29.163546761437743 21.027882569059059 #
plane-surface $-1 0 -51.874708496985349 0 0 1 0 0 0 1 forward_v I I I I #
straight-curve $-1 -91.897036986980112 0 -2.1089240042186308 0 1 0 I I #
point $-1 -91.897036986980112 51.874708496985349 -2.1089240042186308 #
point $-1 -91.897036986980112 -51.874708496985349 -2.1089240042186308 #
edge $-1 $742 -51.874708496985349 $680 51.874708496985349 $665 $813 forward 7 unknown #
vertex $-1 $741 $814 #
straight-curve $-1 -91.897036986980112 -51.874708496985349 0.90333766120409109 0 0 -1 I I #
straight-curve $-1 0 -51.874708496985349 -21.027882569059059 -1 0 0 I I #
point $-1 -77.275307473982963 51.874708496985349 -21.027882569059059 #
face $-1 $815 $778 $18 $-1 $816 reversed single #
coedge $-1 $817 $685 $751 $818 reversed $604 $-1 #
coedge $-1 $685 $817 $690 $761 reversed $604 $-1 #
coedge $-1 $691 $754 $685 $750 reversed $627 $-1 #
edge $-1 $762 -3.0122616654227219 $819 3.0122616654227219 $749 $820 forward 7 unknown #
coedge $-1 $687 $686 $747 $818 forward $516 $-1 #
coedge $-1 $821 $764 $686 $753 reversed $766 $-1 #
edge $-1 $758 -7.3108647564985745 $822 7.3108647564985745 $752 $823 forward 7 unknown #
coedge $-1 $749 $781 $687 $755 reversed $627 $-1 #
edge $-1 $819 -7.3108647564985745 $759 7.3108647564985745 $754 $824 forward 7 unknown #
coedge $-1 $825 $688 $781 $826 forward $683 $-1 #
coedge $-1 $688 $825 $821 $827 reversed $683 $-1 #
vertex $-1 $827 $828 #
vertex $-1 $826 $829 #
straight-curve $-1 -77.275307473982963 0 -2.1089240042186308 0 1 0 I I #
edge $-1 $762 -51.874708496985349 $767 51.874708496985349 $748 $830 forward 7 unknown #
vertex $-1 $692 $831 #
straight-curve $-1 -84.586172230481537 51.874708496985349 3.915599326626813 -1 0 0 I I #
coedge $-1 $752 $693 $817 $832 forward $766 $-1 #
coedge $-1 $693 $701 $695 $769 forward $766 $-1 #
loop $-1 $-1 $765 $815 #
vertex $-1 $761 $833 #
straight-curve $-1 -84.586172230481537 -51.874708496985349 3.915599326626813 1 0 0 I I #
edge $-1 $711 -21.027882569059059 $699 -3.915599326626813 $695 $834 forward 7 unknown #
point $-1 -77.275307473982963 51.874708496985349 3.915599326626813 #
point $-1 -77.275307473982963 -51.874708496985349 3.915599326626813 #
coedge $-1 $701 $835 $703 $774 reversed $766 $-1 #
straight-curve $-1 0 -51.874708496985349 21.027882569059059 1 0 0 I I #
edge $-1 $704 -21.027882569059059 $779 21.027882569059059 $703 $836 forward 7 unknown #
point $-1 77.275307473982963 -51.874708496985349 21.027882569059059 #
coedge $-1 $837 $706 $835 $838 forward $778 $-1 #
coedge $-1 $706 $837 $708 $782 forward $778 $-1 #
loop $-1 $-1 $706 $746 #
vertex $-1 $774 $839 #
straight-curve $-1 77.275307473982963 0 -21.027882569059059 0 -1 0 I I #
coedge $-1 $754 $708 $756 $826 reversed $627 $-1 #
edge $-1 $840 -77.275307473982963 $709 77.275307473982963 $708 $841 forward 7 unknown #
point $-1 77.275307473982963 51.874708496985349 -21.027882569059059 #
point $-1 -77.275307473982963 -51.874708496985349 21.027882569059059 #
straight-curve $-1 -77.275307473982963 51.874708496985349 0 0 0 -1 I I #
plane-surface $-1 0 51.874708496985349 0 0 -1 0 0 0 -1 forward_v I I I I #
face $-1 $842 $843 $19 $-1 $844 reversed single #
loop $-1 $-1 $845 $716 #
plane-surface $-1 -91.897036986980112 0 0.90333766120409109 1 0 0 0 0 -1 forward_v I I I I #
coedge $-1 $846 $847 $848 $849 reversed $717 $-1 #
coedge $-1 $850 $719 $851 $852 forward $632 $-1 #
coedge $-1 $719 $850 $853 $854 forward $632 $-1 #
coedge $-1 $855 $856 $719 $794 forward $857 $-1 #
edge $-1 $858 -51.874708496985349 $859 51.874708496985349 $793 $860 forward 7 unknown #
coedge $-1 $720 $729 $861 $862 forward $537 $-1 #
coedge $-1 $863 $721 $720 $797 reversed $643 $-1 #
edge $-1 $864 -51.874708496985349 $723 29.163546761437743 $796 $733 forward 7 unknown #
straight-curve $-1 77.275307473982963 29.163546761437743 112.46833266194844 0 0 1 I I #
point $-1 77.275307473982963 29.163546761437743 21.027882569059059 #
straight-curve $-1 77.275307473982963 19.633331765911464 6.9015094133206176 0 -1 0 I I #
coedge $-1 $727 $863 $865 $866 reversed $643 $-1 #
coedge $-1 $867 $730 $727 $803 forward $808 $-1 #
edge $-1 $732 -21.027882569059059 $868 21.027882569059059 $727 $869 forward 7 unknown #
plane-surface $-1 77.275307473982963 0 0 -1 0 0 0 0 1 forward_v I I I I #
coedge $-1 $856 $855 $729 $806 reversed $857 $-1 #
edge $-1 $809 -51.874708496985349 $870 51.874708496985349 $805 $871 forward 7 unknown #
coedge $-1 $730 $851 $856 $872 reversed $808 $-1 #
loop $-1 $-1 $802 $873 #
vertex $-1 $731 $874 #
straight-curve $-1 0 51.874708496985349 21.027882569059059 -1 0 0 I I #
point $-1 77.275307473982963 51.874708496985349 21.027882569059059 #
point $-1 77.275307473982963 29.163546761437743 6.9015094133206105 #
straight-curve $-1 -77.275307473982963 0 -21.027882569059059 0 1 0 I I #
point $-1 -77.275307473982963 -51.874708496985349 -21.027882569059059 #
face $-1 $714 $766 $18 $-1 $875 reversed single #
plane-surface $-1 0 0 -21.027882569059059 0 0 1 1 0 0 forward_v I I I I #
coedge $-1 $748 $747 $764 $832 reversed $604 $-1 #
edge $-1 $822 -51.874708496985349 $819 51.874708496985349 $747 $876 forward 7 unknown #
vertex $-1 $755 $877 #
straight-curve $-1 -91.897036986980112 51.874708496985349 0.90333766120409109 0 0 -1 I I #
coedge $-1 $835 $752 $757 $827 forward $766 $-1 #
vertex $-1 $818 $878 #
straight-curve $-1 -84.586172230481537 -51.874708496985349 -2.1089240042186308 -1 0 0 I I #
straight-curve $-1 -84.586172230481537 51.874708496985349 -2.1089240042186308 1 0 0 I I #
coedge $-1 $757 $756 $837 $879 reversed $683 $-1 #
edge $-1 $759 2.1089240042186308 $840 21.027882569059059 $781 $785 forward 7 unknown #
edge $-1 $758 2.1089240042186308 $880 21.027882569059059 $757 $834 forward 7 unknown #
point $-1 -77.275307473982963 -51.874708496985349 -2.1089240042186308 #
point $-1 -77.275307473982963 51.874708496985349 -2.1089240042186308 #
straight-curve $-1 -91.897036986980112 0 3.915599326626813 0 -1 0 I I #
point $-1 -91.897036986980112 51.874708496985349 3.915599326626813 #
edge $-1 $767 -3.0122616654227219 $822 3.0122616654227219 $817 $881 forward 7 unknown #
point $-1 -91.897036986980112 -51.874708496985349 3.915599326626813 #
straight-curve $-1 -77.275307473982963 -51.874708496985349 0 0 0 -1 I I #
coedge $-1 $772 $821 $776 $838 reversed $766 $-1 #
straight-curve $-1 77.275307473982963 -51.874708496985349 0 0 0 -1 I I #
coedge $-1 $777 $776 $825 $879 forward $778 $-1 #
edge $-1 $779 -77.275307473982963 $880 77.275307473982963 $835 $882 forward 7 unknown #
point $-1 77.275307473982963 -51.874708496985349 -21.027882569059059 #
vertex $-1 $782 $883 #
straight-curve $-1 0 51.874708496985349 -21.027882569059059 1 0 0 I I #
face $-1 $884 $857 $19 $-1 $844 reversed single #
loop $-1 $-1 $848 $787 #
plane-surface $-1 -77.275307473982963 0 0 1 0 0 0 0 -1 forward_v I I I I #
coedge $-1 $885 $886 $887 $888 forward $788 $-1 #
coedge $-1 $889 $790 $890 $891 forward $717 $-1 #
coedge $-1 $790 $889 $892 $893 forward $717 $-1 #
coedge $-1 $894 $895 $790 $849 forward $843 $-1 #
edge $-1 $896 -51.874708496985349 $897 51.874708496985349 $848 $898 forward 7 unknown #
coedge $-1 $792 $791 $886 $899 forward $632 $-1 #
coedge $-1 $807 $887 $791 $852 reversed $808 $-1 #
edge $-1 $858 -7.3108647564985745 $900 7.3108647564985745 $851 $901 forward 7 unknown #
coedge $-1 $902 $903 $792 $854 reversed $904 $-1 #
edge $-1 $905 -7.3108647564985745 $859 7.3108647564985745 $853 $906 forward 7 unknown #
coedge $-1 $805 $793 $903 $907 reversed $857 $-1 #
coedge $-1 $793 $805 $807 $872 forward $857 $-1 #
loop $-1 $-1 $793 $842 #
vertex $-1 $872 $908 #
vertex $-1 $854 $909 #
straight-curve $-1 -77.275307473982963 0 3.915599326626813 0 -1 0 I I #
coedge $-1 $903 $910 $795 $862 reversed $904 $-1 #
edge $-1 $870 -77.275307473982963 $864 77.275307473982963 $861 $911 forward 7 unknown #
coedge $-1 $801 $796 $910 $912 forward $643 $-1 #
vertex $-1 $797 $913 #
coedge $-1 $914 $915 $801 $866 forward $916 $-1 #
edge $-1 $868 -51.874708496985349 $917 51.874708496985349 $801 $918 forward 7 unknown #
coedge $-1 $919 $802 $915 $920 reversed $808 $-1 #
vertex $-1 $866 $921 #
straight-curve $-1 77.275307473982963 51.874708496985349 0 0 0 -1 I I #
vertex $-1 $806 $922 #
straight-curve $-1 -77.275307473982963 0 21.027882569059059 0 -1 0 I I #
edge $-1 $809 -21.027882569059059 $858 -3.915599326626813 $807 $923 forward 7 unknown #
face $-1 $728 $808 $19 $-1 $924 reversed single #
point $-1 -77.275307473982963 51.874708496985349 21.027882569059059 #
plane-surface $-1 0 -51.874708496985349 0 0 1 0 0 0 1 forward_v I I I I #
straight-curve $-1 -91.897036986980112 0 -2.1089240042186308 0 1 0 I I #
point $-1 -91.897036986980112 51.874708496985349 -2.1089240042186308 #
point $-1 -91.897036986980112 -51.874708496985349 -2.1089240042186308 #
edge $-1 $880 -51.874708496985349 $840 51.874708496985349 $825 $925 forward 7 unknown #
vertex $-1 $879 $926 #
straight-curve $-1 -91.897036986980112 -51.874708496985349 0.90333766120409109 0 0 -1 I I #
straight-curve $-1 0 -51.874708496985349 -21.027882569059059 -1 0 0 I I #
point $-1 -77.275307473982963 51.874708496985349 -21.027882569059059 #
face $-1 $927 $916 $19 $-1 $928 reversed single #
coedge $-1 $929 $845 $889 $930 reversed $788 $-1 #
coedge $-1 $845 $929 $850 $899 reversed $788 $-1 #
coedge $-1 $851 $892 $845 $888 reversed $808 $-1 #
edge $-1 $900 -3.0122616654227219 $931 3.0122616654227219 $887 $932 forward 7 unknown #
coedge $-1 $847 $846 $885 $930 forward $717 $-1 #
coedge $-1 $933 $902 $846 $891 reversed $904 $-1 #
edge $-1 $896 -7.3108647564985745 $934 7.3108647564985745 $890 $935 forward 7 unknown #
coedge $-1 $887 $919 $847 $893 reversed $808 $-1 #
edge $-1 $931 -7.3108647564985745 $897 7.3108647564985745 $892 $936 forward 7 unknown #
coedge $-1 $937 $848 $919 $938 forward $843 $-1 #
coedge $-1 $848 $937 $933 $939 reversed $843 $-1 #
vertex $-1 $939 $940 #
vertex $-1 $938 $941 #
straight-curve $-1 -77.275307473982963 0 -2.1089240042186308 0 1 0 I I #
edge $-1 $900 -51.874708496985349 $905 51.874708496985349 $886 $942 forward 7 unknown #
vertex $-1 $852 $943 #
straight-curve $-1 -84.586172230481537 51.874708496985349 3.915599326626813 -1 0 0 I I #
coedge $-1 $890 $853 $929 $944 forward $904 $-1 #
coedge $-1 $853 $861 $855 $907 forward $904 $-1 #
loop $-1 $-1 $903 $927 #
vertex $-1 $899 $945 #
straight-curve $-1 -84.586172230481537 -51.874708496985349 3.915599326626813 1 0 0 I I #
edge $-1 $870 -21.027882569059059 $859 -3.915599326626813 $855 $946 forward 7 unknown #
point $-1 -77.275307473982963 51.874708496985349 3.915599326626813 #
point $-1 -77.275307473982963 -51.874708496985349 3.915599326626813 #
coedge $-1 $861 $947 $863 $912 reversed $904 $-1 #
straight-curve $-1 0 -51.874708496985349 21.027882569059059 1 0 0 I I #
edge $-1 $864 -21.027882569059059 $917 21.027882569059059 $863 $948 forward 7 unknown #
point $-1 77.275307473982963 -51.874708496985349 21.027882569059059 #
coedge $-1 $949 $865 $947 $950 forward $916 $-1 #
coedge $-1 $865 $949 $867 $920 forward $916 $-1 #
loop $-1 $-1 $865 $884 #
vertex $-1 $912 $951 #
straight-curve $-1 77.275307473982963 0 -21.027882569059059 0 -1 0 I I #
coedge $-1 $892 $867 $894 $938 reversed $808 $-1 #
edge $-1 $952 -77.275307473982963 $868 77.275307473982963 $867 $953 forward 7 unknown #
point $-1 77.275307473982963 51.874708496985349 -21.027882569059059 #
point $-1 -77.275307473982963 -51.874708496985349 21.027882569059059 #
straight-curve $-1 -77.275307473982963 51.874708496985349 0 0 0 -1 I I #
plane-surface $-1 0 51.874708496985349 0 0 -1 0 0 0 -1 forward_v I I I I #
straight-curve $-1 -77.275307473982963 0 -21.027882569059059 0 1 0 I I #
point $-1 -77.275307473982963 -51.874708496985349 -21.027882569059059 #
face $-1 $873 $904 $19 $-1 $954 reversed single #
plane-surface $-1 0 0 -21.027882569059059 0 0 1 1 0 0 forward_v I I I I #
coedge $-1 $886 $885 $902 $944 reversed $788 $-1 #
edge $-1 $934 -51.874708496985349 $931 51.874708496985349 $885 $955 forward 7 unknown #
vertex $-1 $893 $956 #
straight-curve $-1 -91.897036986980112 51.874708496985349 0.90333766120409109 0 0 -1 I I #
coedge $-1 $947 $890 $895 $939 forward $904 $-1 #
vertex $-1 $930 $957 #
straight-curve $-1 -84.586172230481537 -51.874708496985349 -2.1089240042186308 -1 0 0 I I #
straight-curve $-1 -84.586172230481537 51.874708496985349 -2.1089240042186308 1 0 0 I I #
coedge $-1 $895 $894 $949 $958 reversed $843 $-1 #
edge $-1 $897 2.1089240042186308 $952 21.027882569059059 $919 $923 forward 7 unknown #
edge $-1 $896 2.1089240042186308 $959 21.027882569059059 $895 $946 forward 7 unknown #
point $-1 -77.275307473982963 -51.874708496985349 -2.1089240042186308 #
point $-1 -77.275307473982963 51.874708496985349 -2.1089240042186308 #
straight-curve $-1 -91.897036986980112 0 3.915599326626813 0 -1 0 I I #
point $-1 -91.897036986980112 51.874708496985349 3.915599326626813 #
edge $-1 $905 -3.0122616654227219 $934 3.0122616654227219 $929 $960 forward 7 unknown #
point $-1 -91.897036986980112 -51.874708496985349 3.915599326626813 #
straight-curve $-1 -77.275307473982963 -51.874708496985349 0 0 0 -1 I I #
coedge $-1 $910 $933 $914 $950 reversed $904 $-1 #
straight-curve $-1 77.275307473982963 -51.874708496985349 0 0 0 -1 I I #
coedge $-1 $915 $914 $937 $958 forward $916 $-1 #
edge $-1 $917 -77.275307473982963 $959 77.275307473982963 $947 $961 forward 7 unknown #
point $-1 77.275307473982963 -51.874708496985349 -21.027882569059059 #
vertex $-1 $920 $962 #
straight-curve $-1 0 51.874708496985349 -21.027882569059059 1 0 0 I I #
plane-surface $-1 0 -51.874708496985349 0 0 1 0 0 0 1 forward_v I I I I #
straight-curve $-1 -91.897036986980112 0 -2.1089240042186308 0 1 0 I I #
point $-1 -91.897036986980112 51.874708496985349 -2.1089240042186308 #
point $-1 -91.897036986980112 -51.874708496985349 -2.1089240042186308 #
edge $-1 $959 -51.874708496985349 $952 51.874708496985349 $937 $963 forward 7 unknown #
vertex $-1 $958 $964 #
straight-curve $-1 -91.897036986980112 -51.874708496985349 0.90333766120409109 0 0 -1 I I #
straight-curve $-1 0 -51.874708496985349 -21.027882569059059 -1 0 0 I I #
point $-1 -77.275307473982963 51.874708496985349 -21.027882569059059 #
straight-curve $-1 -77.275307473982963 0 -21.027882569059059 0 1 0 I I #
point $-1 -77.275307473982963 -51.874708496985349 -21.027882569059059 #
End-of-ACIS-data 