500 0 9 0           
7 Unknown 11 ACIS 5.0 NT 24 Fri Mar 26 18:50:08 1999 
-1 9.9999999999999995e-007 1e-010 
body $-1 $9 $-1 $10 #
body $-1 $11 $-1 $12 #
body $-1 $13 $-1 $14 #
body $-1 $15 $-1 $16 #
body $-1 $17 $-1 $18 #
body $-1 $19 $-1 $20 #
body $-1 $21 $-1 $22 #
body $-1 $23 $-1 $24 #
body $-1 $25 $-1 $26 #
lump $-1 $-1 $27 $0 #
transform $-1 1 0 0 0 1 0 0 0 1 51.609241004669329 24.546638362058488 6.4577727999599901 1 rotate no_reflect no_shear #
lump $-1 $-1 $28 $1 #
transform $-1 1 0 0 0 1 0 0 0 1 51.609241004669329 24.546638362058488 6.4577727999599901 1 rotate no_reflect no_shear #
lump $-1 $-1 $29 $2 #
transform $-1 1 0 0 0 1 0 0 0 1 51.609241004669329 24.546638362058488 6.4577727999599901 1 rotate no_reflect no_shear #
lump $-1 $-1 $30 $3 #
transform $-1 1 0 0 0 1 0 0 0 1 51.609241004669329 24.546638362058488 6.4577727999599901 1 rotate no_reflect no_shear #
lump $-1 $-1 $31 $4 #
transform $-1 1 0 0 0 1 0 0 0 1 51.609241004669329 24.546638362058488 6.4577727999599901 1 rotate no_reflect no_shear #
lump $-1 $-1 $32 $5 #
transform $-1 1 0 0 0 1 0 0 0 1 51.609241004669329 24.546638362058488 6.4577727999599901 1 rotate no_reflect no_shear #
lump $-1 $-1 $33 $6 #
transform $-1 1 0 0 0 1 0 0 0 1 51.609241004669329 24.546638362058488 6.4577727999599901 1 rotate no_reflect no_shear #
lump $-1 $-1 $34 $7 #
transform $-1 1 0 0 0 1 0 0 0 1 51.609241004669329 24.546638362058488 6.4577727999599901 1 rotate no_reflect no_shear #
lump $-1 $-1 $35 $8 #
transform $-1 1 0 0 0 1 0 0 0 1 51.609241004669329 24.546638362058488 6.4577727999599901 1 rotate no_reflect no_shear #
shell $-1 $-1 $-1 $36 $-1 $9 #
shell $-1 $-1 $-1 $37 $-1 $11 #
shell $-1 $-1 $-1 $38 $-1 $13 #
shell $-1 $-1 $-1 $39 $-1 $15 #
shell $-1 $-1 $-1 $40 $-1 $17 #
shell $-1 $-1 $-1 $41 $-1 $19 #
shell $-1 $-1 $-1 $42 $-1 $21 #
shell $-1 $-1 $-1 $43 $-1 $23 #
shell $-1 $-1 $-1 $44 $-1 $25 #
face $-1 $45 $46 $27 $-1 $47 forward single #
face $-1 $48 $49 $28 $-1 $50 forward single #
face $-1 $51 $52 $29 $-1 $53 forward single #
face $-1 $54 $55 $30 $-1 $56 reversed single #
face $-1 $57 $58 $31 $-1 $59 forward single #
face $-1 $60 $61 $32 $-1 $62 reversed single #
face $-1 $63 $64 $33 $-1 $65 forward single #
face $-1 $66 $67 $34 $-1 $68 forward single #
face $-1 $69 $70 $35 $-1 $71 forward single #
face $-1 $72 $73 $27 $-1 $74 reversed single #
loop $-1 $-1 $75 $36 #
plane-surface $-1 0 0 6.4577727999599901 0 0 1 1 0 0 forward_v I I I I #
face $-1 $76 $77 $28 $-1 $78 reversed single #
loop $-1 $-1 $79 $37 #
plane-surface $-1 0 -24.546638362058488 0 0 1 0 0 0 1 forward_v I I I I #
face $-1 $80 $81 $29 $-1 $82 reversed single #
loop $-1 $-1 $83 $38 #
plane-surface $-1 0 24.546638362058488 0 0 -1 0 0 0 -1 forward_v I I I I #
face $-1 $84 $85 $30 $-1 $86 reversed single #
loop $-1 $-1 $87 $39 #
plane-surface $-1 -132.94651565099838 -8.9715081263959338 63.838577204621195 0 1 0 -0.78801076186113728 0 0.61566146476048833 forward_v I I I I #
face $-1 $88 $89 $31 $-1 $90 forward single #
loop $-1 $91 $92 $40 #
cone-surface $-1 -48.109303520320616 -4.9853689482777988 2.5220442856661904 0.78801076186113728 0 -0.61566146476048833 0.61566146476048833 0 0.78801076186113728 1 I I 0 1 1 forward I I I I #
face $-1 $93 $94 $32 $-1 $95 reversed single #
loop $-1 $-1 $96 $41 #
plane-surface $-1 13.828655539816992 1.3776432328088291 142.40594244844752 0 -1 0 -0.50000000669873634 0 -0.8660253999169214 forward_v I I I I #
face $-1 $97 $98 $33 $-1 $99 forward single #
loop $-1 $100 $101 $42 #
cone-surface $-1 46.911770555088793 -4.7339274048744855 3.3724143974665983 -0.50000000669873634 0 -0.8660253999169214 0.4330126999584607 0 -0.25000000334936817 1 I I 0 1 0.5 forward I I I I #
face $-1 $102 $103 $34 $-1 $104 forward single #
loop $-1 $105 $106 $43 #
cone-surface $-1 46.911770555088793 -2.4420884157432425 3.3724143974665983 -0.50000000669873634 0 -0.8660253999169214 0.4330126999584607 0 -0.25000000334936817 1 I I 0 1 0.5 forward I I I I #
face $-1 $107 $108 $35 $-1 $109 forward single #
loop $-1 $110 $111 $44 #
cone-surface $-1 46.911770555088793 -0.15024942661199958 3.3724143974665983 -0.50000000669873634 0 -0.8660253999169214 0.4330126999584607 0 -0.25000000334936817 1 I I 0 1 0.5 forward I I I I #
face $-1 $112 $113 $27 $-1 $114 reversed single #
loop $-1 $-1 $115 $45 #
plane-surface $-1 0 0 -6.4577727999599901 0 0 1 1 0 0 forward_v I I I I #
coedge $-1 $116 $117 $118 $119 forward $46 $-1 #
face $-1 $120 $121 $28 $-1 $122 reversed single #
loop $-1 $-1 $123 $48 #
plane-surface $-1 0 0 -6.4577727999599901 0 0 1 1 0 0 forward_v I I I I #
coedge $-1 $124 $125 $126 $127 forward $49 $-1 #
face $-1 $128 $129 $29 $-1 $130 reversed single #
loop $-1 $-1 $131 $51 #
plane-surface $-1 0 0 -6.4577727999599901 0 0 1 1 0 0 forward_v I I I I #
coedge $-1 $132 $133 $134 $135 forward $52 $-1 #
face $-1 $136 $137 $30 $-1 $138 reversed single #
loop $-1 $-1 $139 $54 #
plane-surface $-1 -51.609241004669329 -4.9853689482777952 0.29093538039764155 -0.78801076186113728 0 0.61566146476048833 0.61566146476048833 0 0.78801076186113728 forward_v I I I I #
coedge $-1 $140 $141 $142 $143 reversed $55 $-1 #
face $-1 $-1 $144 $31 $-1 $145 forward single #
loop $-1 $146 $147 $57 #
cone-surface $-1 -46.624391306920032 -4.9853689482777988 1.3619037487733188 0.78801076186113728 0 -0.61566146476048833 0.30783073238024417 0 0.39400538093056864 1 I I -0.70710678118654746 0.70710678118654746 0.5 forward I I I I #
loop $-1 $-1 $148 $40 #
coedge $-1 $92 $92 $149 $150 reversed $58 $-1 #
face $-1 $151 $152 $32 $-1 $153 reversed single #
loop $-1 $-1 $154 $60 #
plane-surface $-1 -37.780586156285736 -2.4420884157432425 53.016115287492454 0.50000000669873634 0 0.8660253999169214 0.8660253999169214 0 -0.50000000669873634 forward_v I I I I #
coedge $-1 $155 $156 $157 $158 reversed $61 $-1 #
face $-1 $-1 $159 $33 $-1 $160 forward single #
loop $-1 $161 $162 $63 #
cone-surface $-1 46.463507052272377 -4.7339274048744855 2.5959992492791102 -0.50000000669873634 0 -0.8660253999169214 0.21650634997923035 0 -0.12500000167468409 1 I I -0.70710678118654746 0.70710678118654746 0.25 forward I I I I #
loop $-1 $-1 $163 $42 #
coedge $-1 $101 $101 $164 $165 reversed $64 $-1 #
face $-1 $-1 $166 $34 $-1 $167 forward single #
loop $-1 $168 $169 $66 #
cone-surface $-1 46.463507052272377 -2.4420884157432425 2.5959992492791102 -0.50000000669873634 0 -0.8660253999169214 0.21650634997923035 0 -0.12500000167468409 1 I I -0.70710678118654746 0.70710678118654746 0.25 forward I I I I #
loop $-1 $-1 $170 $43 #
coedge $-1 $106 $106 $171 $172 reversed $67 $-1 #
face $-1 $-1 $173 $35 $-1 $174 forward single #
loop $-1 $175 $176 $69 #
cone-surface $-1 46.463507052272377 -0.15024942661199958 2.5959992492791102 -0.50000000669873634 0 -0.8660253999169214 0.21650634997923035 0 -0.12500000167468409 1 I I -0.70710678118654746 0.70710678118654746 0.25 forward I I I I #
loop $-1 $-1 $177 $44 #
coedge $-1 $111 $111 $178 $179 reversed $70 $-1 #
face $-1 $180 $181 $27 $-1 $182 reversed single #
loop $-1 $-1 $183 $72 #
plane-surface $-1 0 -24.546638362058488 0 0 1 0 0 0 1 forward_v I I I I #
coedge $-1 $184 $185 $186 $187 forward $73 $-1 #
coedge $-1 $188 $75 $189 $190 forward $46 $-1 #
coedge $-1 $75 $188 $191 $192 forward $46 $-1 #
coedge $-1 $193 $194 $75 $119 reversed $195 $-1 #
edge $-1 $196 -24.546638362058488 $197 24.546638362058488 $118 $198 forward 7 unknown #
face $-1 $199 $200 $28 $-1 $201 reversed single #
loop $-1 $-1 $202 $76 #
plane-surface $-1 -40.193695404749349 -31.542140425416981 0 0 1 0 0 0 1 forward_v I I I I #
coedge $-1 $203 $204 $125 $205 forward $77 $-1 #
coedge $-1 $206 $79 $207 $208 reversed $49 $-1 #
coedge $-1 $79 $206 $123 $205 reversed $49 $-1 #
coedge $-1 $209 $210 $79 $127 reversed $200 $-1 #
edge $-1 $211 -6.4577727999599901 $212 6.4577727999599901 $126 $213 forward 7 unknown #
face $-1 $214 $215 $29 $-1 $216 reversed single #
loop $-1 $-1 $217 $80 #
plane-surface $-1 -41.693695404749349 28.044389393737731 0 1 0 0 0 0 -1 forward_v I I I I #
coedge $-1 $218 $219 $133 $220 forward $81 $-1 #
coedge $-1 $221 $83 $222 $223 reversed $52 $-1 #
coedge $-1 $83 $221 $131 $220 reversed $52 $-1 #
coedge $-1 $224 $225 $83 $135 reversed $226 $-1 #
edge $-1 $227 -6.4577727999599901 $228 6.4577727999599901 $134 $229 forward 7 unknown #
face $-1 $230 $231 $30 $-1 $232 reversed single #
loop $-1 $-1 $233 $84 #
plane-surface $-1 -132.94651565099838 -0.99922977015965664 63.838577204621195 0 -1 0 0.78801076186113728 0 -0.61566146476048833 forward_v I I I I #
coedge $-1 $234 $235 $236 $237 reversed $85 $-1 #
coedge $-1 $141 $87 $238 $239 reversed $55 $-1 #
coedge $-1 $87 $140 $234 $240 reversed $55 $-1 #
coedge $-1 $236 $241 $87 $143 forward $242 $-1 #
edge $-1 $243 14.86401682082986 $244 19.682078124587278 $142 $245 forward 7 unknown #
loop $-1 $-1 $149 $88 #
plane-surface $-1 -51.609241004669329 -4.9853689482777952 0.29093538039764155 -0.78801076186113728 0 0.61566146476048833 0.61566146476048833 0 0.78801076186113728 forward_v I I I I #
loop $-1 $-1 $246 $57 #
coedge $-1 $147 $147 $148 $247 reversed $89 $-1 #
coedge $-1 $148 $148 $147 $247 forward $91 $-1 #
coedge $-1 $149 $149 $92 $150 forward $144 $-1 #
edge $-1 $248 0 $248 6.2831853071796004 $149 $249 forward 7 unknown #
face $-1 $250 $251 $32 $-1 $252 forward single #
loop $-1 $-1 $253 $93 #
plane-surface $-1 13.828655539816992 -6.2618200642953141 142.40594244844752 0 1 0 0.50000000669873634 0 0.8660253999169214 forward_v I I I I #
coedge $-1 $254 $255 $256 $257 reversed $94 $-1 #
coedge $-1 $156 $96 $258 $259 reversed $61 $-1 #
coedge $-1 $96 $155 $254 $260 reversed $61 $-1 #
coedge $-1 $256 $261 $96 $158 forward $251 $-1 #
edge $-1 $262 -44.694913234760833 $263 -35.946499337883225 $157 $264 forward 7 unknown #
loop $-1 $-1 $164 $97 #
plane-surface $-1 -37.780586156285736 -2.4420884157432425 53.016115287492454 0.50000000669873634 0 0.8660253999169214 0.8660253999169214 0 -0.50000000669873634 forward_v I I I I #
loop $-1 $-1 $265 $63 #
coedge $-1 $162 $162 $163 $266 reversed $98 $-1 #
coedge $-1 $163 $163 $162 $266 forward $100 $-1 #
coedge $-1 $164 $164 $101 $165 forward $159 $-1 #
edge $-1 $267 0 $267 6.2831853071796004 $164 $268 forward 7 unknown #
loop $-1 $-1 $171 $102 #
plane-surface $-1 -37.780586156285736 -2.4420884157432425 53.016115287492454 0.50000000669873634 0 0.8660253999169214 0.8660253999169214 0 -0.50000000669873634 forward_v I I I I #
loop $-1 $-1 $269 $66 #
coedge $-1 $169 $169 $170 $270 reversed $103 $-1 #
coedge $-1 $170 $170 $169 $270 forward $105 $-1 #
coedge $-1 $171 $171 $106 $172 forward $166 $-1 #
edge $-1 $271 0 $271 6.2831853071796004 $171 $272 forward 7 unknown #
loop $-1 $-1 $178 $107 #
plane-surface $-1 -37.780586156285736 -2.4420884157432425 53.016115287492454 0.50000000669873634 0 0.8660253999169214 0.8660253999169214 0 -0.50000000669873634 forward_v I I I I #
loop $-1 $-1 $273 $69 #
coedge $-1 $176 $176 $177 $274 reversed $108 $-1 #
coedge $-1 $177 $177 $176 $274 forward $110 $-1 #
coedge $-1 $178 $178 $111 $179 forward $173 $-1 #
edge $-1 $275 0 $275 6.2831853071796004 $178 $276 forward 7 unknown #
face $-1 $277 $278 $27 $-1 $279 reversed single #
loop $-1 $-1 $280 $112 #
plane-surface $-1 -51.609241004669329 0 0 1 0 0 0 0 -1 forward_v I I I I #
coedge $-1 $281 $191 $282 $283 forward $113 $-1 #
coedge $-1 $284 $115 $281 $285 forward $73 $-1 #
coedge $-1 $115 $284 $286 $287 forward $73 $-1 #
coedge $-1 $194 $193 $115 $187 reversed $195 $-1 #
edge $-1 $288 -24.546638362058488 $289 24.546638362058488 $186 $290 forward 7 unknown #
coedge $-1 $117 $116 $291 $292 forward $46 $-1 #
coedge $-1 $293 $294 $116 $190 reversed $278 $-1 #
edge $-1 $197 -51.609241004669329 $295 51.609241004669329 $189 $296 forward 7 unknown #
coedge $-1 $183 $297 $117 $192 reversed $113 $-1 #
edge $-1 $298 -51.609241004669329 $196 51.609241004669329 $191 $299 forward 7 unknown #
coedge $-1 $186 $118 $297 $300 forward $195 $-1 #
coedge $-1 $118 $186 $293 $301 reversed $195 $-1 #
loop $-1 $-1 $193 $277 #
vertex $-1 $119 $302 #
vertex $-1 $119 $303 #
straight-curve $-1 51.609241004669329 0 6.4577727999599901 0 1 0 I I #
face $-1 $304 $305 $28 $-1 $306 reversed single #
loop $-1 $-1 $126 $120 #
plane-surface $-1 -41.693695404749349 -28.044389393737735 0 1 0 0 0 0 -1 forward_v I I I I #
coedge $-1 $307 $308 $309 $310 forward $121 $-1 #
coedge $-1 $311 $123 $312 $313 forward $77 $-1 #
coedge $-1 $123 $311 $209 $314 forward $77 $-1 #
edge $-1 $211 -41.693695404749349 $315 -38.693695404749349 $123 $316 forward 7 unknown #
coedge $-1 $125 $124 $317 $318 forward $49 $-1 #
coedge $-1 $319 $320 $124 $208 forward $321 $-1 #
edge $-1 $322 38.693695404749349 $212 41.693695404749349 $207 $323 forward 7 unknown #
coedge $-1 $309 $126 $204 $314 reversed $200 $-1 #
coedge $-1 $126 $309 $319 $324 reversed $200 $-1 #
vertex $-1 $205 $325 #
vertex $-1 $324 $326 #
straight-curve $-1 -41.693695404749349 -24.546638362058488 0 0 0 1 I I #
face $-1 $327 $226 $29 $-1 $328 reversed single #
loop $-1 $-1 $329 $128 #
plane-surface $-1 -40.193695404749349 31.542140425416978 0 0 -1 0 0 0 -1 forward_v I I I I #
coedge $-1 $330 $331 $332 $333 forward $129 $-1 #
coedge $-1 $334 $131 $330 $335 forward $81 $-1 #
coedge $-1 $131 $334 $224 $336 forward $81 $-1 #
edge $-1 $227 38.693695404749349 $337 41.693695404749349 $131 $338 forward 7 unknown #
coedge $-1 $133 $132 $339 $340 forward $52 $-1 #
coedge $-1 $341 $342 $132 $223 forward $343 $-1 #
edge $-1 $344 -41.693695404749349 $228 -38.693695404749349 $222 $345 forward 7 unknown #
coedge $-1 $346 $134 $219 $336 reversed $226 $-1 #
coedge $-1 $134 $346 $341 $347 reversed $226 $-1 #
loop $-1 $-1 $134 $214 #
vertex $-1 $220 $348 #
vertex $-1 $347 $349 #
straight-curve $-1 -38.693695404749349 24.546638362058488 0 0 0 1 I I #
face $-1 $-1 $242 $30 $-1 $350 forward single #
loop $-1 $-1 $351 $136 #
plane-surface $-1 -51.609241004669329 0 0 1 0 0 0 0 -1 forward_v I I I I #
coedge $-1 $352 $353 $354 $355 reversed $137 $-1 #
coedge $-1 $356 $139 $141 $240 forward $85 $-1 #
coedge $-1 $139 $356 $352 $357 forward $85 $-1 #
coedge $-1 $354 $142 $139 $237 forward $242 $-1 #
edge $-1 $244 -6.4788236522570362 $358 1.493454703979241 $236 $359 forward 7 unknown #
coedge $-1 $360 $361 $140 $239 forward $231 $-1 #
edge $-1 $362 -31.628353221912956 $243 -25.461515802350608 $238 $363 forward 7 unknown #
edge $-1 $244 -7.8258289328402153 $362 0 $141 $364 forward 7 unknown #
coedge $-1 $142 $354 $360 $365 forward $242 $-1 #
loop $-1 $-1 $354 $230 #
vertex $-1 $239 $366 #
vertex $-1 $143 $367 #
straight-curve $-1 -66.473257825499189 -8.9715081263959338 6.4577727999599901 1 0 0 I I #
coedge $-1 $246 $246 $-1 $368 reversed $146 $-1 #
edge $-1 $369 0 $369 6.2831853071796004 $147 $370 forward 7 unknown #
vertex $-1 $150 $371 #
ellipse-curve $-1 -49.20021035279062 -4.9853689482777988 3.3743540901788136 -0.78801076186113728 0 0.61566146476048833 0.61566146476048833 0 0.78801076186113728 1 I I #
face $-1 $-1 $372 $32 $-1 $373 reversed single #
loop $-1 $-1 $157 $151 #
plane-surface $-1 0 0 6.4577727999599901 0 0 1 1 0 0 forward_v I I I I #
coedge $-1 $374 $375 $376 $377 reversed $152 $-1 #
coedge $-1 $378 $154 $156 $260 forward $94 $-1 #
coedge $-1 $154 $378 $374 $379 forward $94 $-1 #
coedge $-1 $376 $157 $154 $257 forward $251 $-1 #
edge $-1 $263 -2.5986874406804503 $380 5.0407758564236929 $256 $381 forward 7 unknown #
coedge $-1 $382 $383 $155 $259 forward $372 $-1 #
edge $-1 $384 -69.796097632834034 $262 -64.745198424263776 $258 $385 forward 7 unknown #
edge $-1 $263 93.116683727536696 $384 103.21848200933866 $156 $386 forward 7 unknown #
coedge $-1 $157 $376 $382 $387 forward $251 $-1 #
vertex $-1 $158 $388 #
vertex $-1 $158 $389 #
straight-curve $-1 6.9143277699084962 1.3776432328088291 6.4577727999599972 -1 0 0 I I #
coedge $-1 $265 $265 $-1 $390 reversed $161 $-1 #
edge $-1 $391 0 $391 6.2831853071796004 $162 $392 forward 7 unknown #
vertex $-1 $165 $393 #
ellipse-curve $-1 47.235034056230525 -4.7339274048744855 3.9323231956748592 0.50000000669873634 0 0.8660253999169214 0.4330126999584607 0 -0.25000000334936817 1 I I #
coedge $-1 $269 $269 $-1 $394 reversed $168 $-1 #
edge $-1 $395 0 $395 6.2831853071796004 $169 $396 forward 7 unknown #
vertex $-1 $172 $397 #
ellipse-curve $-1 47.235034056230525 -2.4420884157432425 3.9323231956748592 0.50000000669873634 0 0.8660253999169214 0.4330126999584607 0 -0.25000000334936817 1 I I #
coedge $-1 $273 $273 $-1 $398 reversed $175 $-1 #
edge $-1 $399 0 $399 6.2831853071796004 $176 $400 forward 7 unknown #
vertex $-1 $179 $401 #
ellipse-curve $-1 47.235034056230525 -0.15024942661199958 3.9323231956748592 0.50000000669873634 0 0.8660253999169214 0.4330126999584607 0 -0.25000000334936817 1 I I #
face $-1 $-1 $195 $27 $-1 $402 reversed single #
loop $-1 $-1 $293 $180 #
plane-surface $-1 0 24.546638362058488 0 0 -1 0 0 0 -1 forward_v I I I I #
coedge $-1 $403 $291 $294 $404 forward $181 $-1 #
coedge $-1 $297 $183 $184 $285 reversed $113 $-1 #
coedge $-1 $291 $403 $183 $283 reversed $181 $-1 #
edge $-1 $298 -6.4577727999599901 $405 6.4577727999599901 $282 $406 forward 7 unknown #
coedge $-1 $185 $184 $403 $407 forward $73 $-1 #
edge $-1 $289 -51.609241004669329 $405 51.609241004669329 $281 $408 forward 7 unknown #
coedge $-1 $294 $293 $185 $287 reversed $278 $-1 #
edge $-1 $409 -51.609241004669329 $288 51.609241004669329 $286 $410 forward 7 unknown #
vertex $-1 $187 $411 #
vertex $-1 $300 $412 #
straight-curve $-1 51.609241004669329 0 -6.4577727999599901 0 -1 0 I I #
coedge $-1 $280 $282 $188 $292 reversed $181 $-1 #
edge $-1 $295 -24.546638362058488 $298 24.546638362058488 $291 $413 forward 7 unknown #
coedge $-1 $286 $189 $194 $301 forward $278 $-1 #
coedge $-1 $189 $286 $280 $404 reversed $278 $-1 #
vertex $-1 $190 $414 #
straight-curve $-1 0 24.546638362058488 6.4577727999599901 -1 0 0 I I #
coedge $-1 $191 $281 $193 $300 reversed $113 $-1 #
vertex $-1 $292 $415 #
straight-curve $-1 0 -24.546638362058488 6.4577727999599901 1 0 0 I I #
edge $-1 $196 -6.4577727999599901 $289 6.4577727999599901 $193 $416 forward 7 unknown #
edge $-1 $197 -6.4577727999599901 $288 6.4577727999599901 $194 $417 forward 7 unknown #
point $-1 51.609241004669329 -24.546638362058488 6.4577727999599901 #
point $-1 51.609241004669329 24.546638362058488 6.4577727999599901 #
face $-1 $-1 $321 $28 $-1 $418 forward single #
loop $-1 $-1 $419 $199 #
plane-surface $-1 -38.693695404749349 -28.044389393737735 0 -1 0 0 0 0 1 forward_v I I I I #
coedge $-1 $420 $202 $311 $421 reversed $121 $-1 #
coedge $-1 $202 $420 $422 $423 reversed $121 $-1 #
coedge $-1 $210 $209 $202 $310 reversed $200 $-1 #
edge $-1 $424 -6.4577727999599901 $425 6.4577727999599901 $309 $426 forward 7 unknown #
coedge $-1 $204 $203 $307 $421 forward $77 $-1 #
coedge $-1 $317 $419 $203 $313 reversed $305 $-1 #
edge $-1 $315 -3.4977510316792468 $427 3.4977510316792468 $312 $428 forward 7 unknown #
edge $-1 $425 -3.4977510316792468 $211 3.4977510316792468 $209 $429 forward 7 unknown #
vertex $-1 $313 $430 #
straight-curve $-1 0 -24.546638362058488 -6.4577727999599901 1 0 0 I I #
coedge $-1 $431 $312 $206 $318 reversed $305 $-1 #
edge $-1 $322 -6.4577727999599901 $315 6.4577727999599901 $317 $432 forward 7 unknown #
coedge $-1 $422 $207 $210 $324 forward $321 $-1 #
coedge $-1 $207 $422 $431 $433 forward $321 $-1 #
loop $-1 $-1 $207 $304 #
vertex $-1 $208 $434 #
straight-curve $-1 0 -24.546638362058488 6.4577727999599901 -1 0 0 I I #
edge $-1 $212 -3.4977510316792468 $424 3.4977510316792468 $210 $435 forward 7 unknown #
point $-1 -41.693695404749349 -24.546638362058488 -6.4577727999599901 #
point $-1 -41.693695404749349 -24.546638362058488 6.4577727999599901 #
face $-1 $-1 $343 $29 $-1 $436 forward single #
plane-surface $-1 -38.693695404749349 28.044389393737731 0 -1 0 0 0 0 1 forward_v I I I I #
coedge $-1 $437 $438 $346 $439 forward $215 $-1 #
coedge $-1 $339 $217 $218 $335 reversed $129 $-1 #
coedge $-1 $217 $339 $342 $440 reversed $129 $-1 #
coedge $-1 $438 $437 $217 $333 reversed $215 $-1 #
edge $-1 $441 -6.4577727999599901 $442 6.4577727999599901 $332 $443 forward 7 unknown #
coedge $-1 $219 $218 $437 $444 forward $81 $-1 #
edge $-1 $337 -3.4977510316792468 $442 3.4977510316792468 $330 $445 forward 7 unknown #
edge $-1 $446 -3.4977510316792468 $227 3.4977510316792468 $224 $447 forward 7 unknown #
vertex $-1 $335 $448 #
straight-curve $-1 0 24.546638362058488 -6.4577727999599901 -1 0 0 I I #
coedge $-1 $331 $330 $221 $340 reversed $129 $-1 #
edge $-1 $344 -6.4577727999599901 $337 6.4577727999599901 $339 $449 forward 7 unknown #
coedge $-1 $450 $222 $225 $347 forward $343 $-1 #
coedge $-1 $222 $450 $331 $440 forward $343 $-1 #
loop $-1 $-1 $222 $327 #
vertex $-1 $223 $451 #
straight-curve $-1 0 24.546638362058488 6.4577727999599901 1 0 0 I I #
coedge $-1 $225 $224 $329 $439 reversed $226 $-1 #
edge $-1 $228 -3.4977510316792468 $452 3.4977510316792468 $225 $453 forward 7 unknown #
point $-1 -38.693695404749349 24.546638362058484 -6.4577727999599901 #
point $-1 -38.693695404749349 24.546638362058484 6.4577727999599901 #
plane-surface $-1 0 0 6.4577727999599901 0 0 1 1 0 0 forward_v I I I I #
coedge $-1 $361 $360 $353 $454 forward $231 $-1 #
coedge $-1 $353 $233 $235 $357 reversed $137 $-1 #
coedge $-1 $233 $352 $351 $454 reversed $137 $-1 #
coedge $-1 $241 $236 $233 $355 forward $242 $-1 #
edge $-1 $358 -19.682078124587278 $455 -14.86401682082986 $354 $456 forward 7 unknown #
coedge $-1 $235 $234 $361 $457 reversed $85 $-1 #
edge $-1 $458 0 $358 7.8258289328402153 $352 $459 forward 7 unknown #
vertex $-1 $237 $460 #
straight-curve $-1 -46.791179700911911 -2.4926844741388976 6.4577727999599901 0 1 0 I I #
coedge $-1 $351 $238 $241 $365 reversed $231 $-1 #
coedge $-1 $238 $351 $356 $457 forward $231 $-1 #
vertex $-1 $239 $461 #
straight-curve $-1 -51.609241004669329 -8.9715081263959338 31.919288602310598 0 0 1 I I #
straight-curve $-1 -51.609241004669329 -8.9715081263959338 0.29093538039764155 -0.61566146476048833 0 -0.78801076186113728 I I #
edge $-1 $455 0.99922977015965664 $243 8.9715081263959338 $360 $462 forward 7 unknown #
point $-1 -51.609241004669329 -8.9715081263959338 6.4577727999599901 #
point $-1 -46.791179700911911 -8.9715081263959338 6.4577727999599901 #
edge $-1 $463 1 $463 0 $246 $-1 forward 7 unknown #
vertex $-1 $247 $464 #
ellipse-curve $-1 -47.018396687850597 -4.9853689482777988 1.6697344811535628 -0.78801076186113728 0 0.61566146476048833 0.61566146476048833 0 0.78801076186113728 1 I I #
point $-1 -48.584548888030135 -4.9853689482777988 4.1623648520399552 #
loop $-1 $-1 $258 $250 #
plane-surface $-1 51.609241004669329 0 0 -1 0 0 0 0 1 forward_v I I I I #
coedge $-1 $375 $253 $255 $379 reversed $152 $-1 #
coedge $-1 $253 $374 $465 $466 reversed $152 $-1 #
coedge $-1 $261 $256 $253 $377 forward $251 $-1 #
edge $-1 $380 35.946499337883225 $467 44.694913234760833 $376 $468 forward 7 unknown #
coedge $-1 $255 $254 $383 $469 reversed $94 $-1 #
edge $-1 $470 -103.21848200933866 $380 -93.116683727536696 $374 $471 forward 7 unknown #
vertex $-1 $257 $472 #
straight-curve $-1 42.860827107791721 -1.2210442078716213 6.4577727999599901 0 -1 0 I I #
coedge $-1 $465 $258 $261 $387 reversed $372 $-1 #
coedge $-1 $258 $465 $378 $469 forward $372 $-1 #
vertex $-1 $259 $473 #
straight-curve $-1 51.609241004669329 1.3776432328088291 71.202971224223759 0 0 1 I I #
straight-curve $-1 -37.780586156285736 1.3776432328088291 53.016115287492454 0.8660253999169214 0 -0.50000000669873634 I I #
edge $-1 $467 -6.2618200642953141 $262 1.3776432328088291 $382 $474 forward 7 unknown #
point $-1 51.609241004669329 1.3776432328088291 6.4577727999599901 #
point $-1 42.860827107791721 1.3776432328088291 6.4577727999599901 #
edge $-1 $475 1 $475 0 $265 $-1 forward 7 unknown #
vertex $-1 $266 $476 #
ellipse-curve $-1 46.588507053947062 -4.7339274048744855 2.8125055992583405 0.50000000669873634 0 0.8660253999169214 0.4330126999584607 0 -0.25000000334936817 1 I I #
point $-1 47.668046756188978 -4.7339274048744855 3.6823231923254882 #
edge $-1 $477 1 $477 0 $269 $-1 forward 7 unknown #
vertex $-1 $270 $478 #
ellipse-curve $-1 46.588507053947062 -2.4420884157432425 2.8125055992583405 0.50000000669873634 0 0.8660253999169214 0.4330126999584607 0 -0.25000000334936817 1 I I #
point $-1 47.668046756188978 -2.4420884157432425 3.6823231923254882 #
edge $-1 $479 1 $479 0 $273 $-1 forward 7 unknown #
vertex $-1 $274 $480 #
ellipse-curve $-1 46.588507053947062 -0.15024942661199958 2.8125055992583405 0.50000000669873634 0 0.8660253999169214 0.4330126999584607 0 -0.25000000334936817 1 I I #
point $-1 47.668046756188978 -0.15024942661199958 3.6823231923254882 #
plane-surface $-1 51.609241004669329 0 0 -1 0 0 0 0 1 forward_v I I I I #
coedge $-1 $282 $280 $284 $407 reversed $181 $-1 #
edge $-1 $295 -6.4577727999599901 $409 6.4577727999599901 $294 $481 forward 7 unknown #
vertex $-1 $407 $482 #
straight-curve $-1 -51.609241004669329 -24.546638362058488 0 0 0 -1 I I #
edge $-1 $405 -24.546638362058488 $409 24.546638362058488 $403 $483 forward 7 unknown #
straight-curve $-1 0 -24.546638362058488 -6.4577727999599901 -1 0 0 I I #
vertex $-1 $287 $484 #
straight-curve $-1 0 24.546638362058488 -6.4577727999599901 1 0 0 I I #
point $-1 51.609241004669329 24.546638362058488 -6.4577727999599901 #
point $-1 51.609241004669329 -24.546638362058488 -6.4577727999599901 #
straight-curve $-1 -51.609241004669329 0 6.4577727999599901 0 -1 0 I I #
point $-1 -51.609241004669329 24.546638362058488 6.4577727999599901 #
point $-1 -51.609241004669329 -24.546638362058488 6.4577727999599901 #
straight-curve $-1 51.609241004669329 -24.546638362058488 0 0 0 -1 I I #
straight-curve $-1 51.609241004669329 24.546638362058488 0 0 0 -1 I I #
plane-surface $-1 0 0 6.4577727999599901 0 0 1 1 0 0 forward_v I I I I #
coedge $-1 $312 $431 $420 $485 forward $305 $-1 #
coedge $-1 $308 $307 $419 $485 reversed $121 $-1 #
edge $-1 $427 -1.5 $425 1.5 $307 $486 forward 7 unknown #
coedge $-1 $320 $319 $308 $423 forward $321 $-1 #
edge $-1 $424 -1.5 $487 1.5 $308 $488 forward 7 unknown #
vertex $-1 $324 $489 #
vertex $-1 $314 $490 #
straight-curve $-1 -41.693695404749349 -31.542140425416981 0 0 0 -1 I I #
vertex $-1 $485 $491 #
straight-curve $-1 -38.693695404749349 -28.044389393737735 -6.4577727999599901 0 -1 0 I I #
straight-curve $-1 -41.693695404749349 -28.044389393737735 -6.4577727999599901 0 1 0 I I #
point $-1 -38.693695404749349 -24.546638362058488 -6.4577727999599901 #
coedge $-1 $419 $317 $320 $433 reversed $305 $-1 #
straight-curve $-1 -38.693695404749349 -24.546638362058488 0 0 0 -1 I I #
edge $-1 $487 -3.4977510316792468 $322 3.4977510316792468 $431 $492 forward 7 unknown #
point $-1 -38.693695404749349 -24.546638362058488 6.4577727999599901 #
straight-curve $-1 -41.693695404749349 -28.044389393737735 6.4577727999599901 0 -1 0 I I #
plane-surface $-1 0 0 6.4577727999599901 0 0 1 1 0 0 forward_v I I I I #
coedge $-1 $332 $329 $334 $444 reversed $215 $-1 #
coedge $-1 $329 $332 $450 $493 reversed $215 $-1 #
edge $-1 $452 -6.4577727999599901 $446 6.4577727999599901 $346 $494 forward 7 unknown #
edge $-1 $441 -3.4977510316792468 $344 3.4977510316792468 $331 $495 forward 7 unknown #
vertex $-1 $493 $496 #
vertex $-1 $444 $497 #
straight-curve $-1 -41.693695404749349 31.542140425416978 0 0 0 -1 I I #
edge $-1 $442 -1.5 $446 1.5 $437 $498 forward 7 unknown #
straight-curve $-1 -41.693695404749349 28.044389393737731 -6.4577727999599901 0 1 0 I I #
vertex $-1 $336 $499 #
straight-curve $-1 -38.693695404749349 28.044389393737731 -6.4577727999599901 0 -1 0 I I #
point $-1 -41.693695404749349 24.546638362058484 -6.4577727999599901 #
straight-curve $-1 -41.693695404749349 24.546638362058488 0 0 0 -1 I I #
coedge $-1 $342 $341 $438 $493 forward $343 $-1 #
point $-1 -41.693695404749349 24.546638362058484 6.4577727999599901 #
vertex $-1 $347 $500 #
straight-curve $-1 -38.693695404749349 28.044389393737731 6.4577727999599901 0 1 0 I I #
edge $-1 $455 25.461515802350608 $458 31.628353221912956 $351 $501 forward 7 unknown #
vertex $-1 $365 $502 #
straight-curve $-1 -66.473257825499189 -0.99922977015965664 6.4577727999599901 -1 0 0 I I #
edge $-1 $458 -1.493454703979241 $362 6.4788236522570362 $361 $503 forward 7 unknown #
vertex $-1 $457 $504 #
straight-curve $-1 -51.609241004669329 -0.99922977015965664 0.29093538039764155 0.61566146476048833 0 0.78801076186113728 I I #
point $-1 -46.791179700911911 -0.99922977015965664 6.4577727999599901 #
point $-1 -51.609241004669329 -8.9715081263959338 0.29093538039764155 #
straight-curve $-1 -51.609241004669329 0 6.4577727999599901 0 -1 0 I I #
vertex $-1 $368 $505 #
point $-1 -46.402735223090112 -4.9853689482777988 2.4577452430147 #
coedge $-1 $383 $382 $375 $466 forward $372 $-1 #
edge $-1 $467 64.745198424263776 $470 69.796097632834034 $465 $506 forward 7 unknown #
vertex $-1 $387 $507 #
straight-curve $-1 6.9143277699084962 -6.2618200642953141 6.4577727999599972 1 0 0 I I #
edge $-1 $470 -5.0407758564236929 $384 2.5986874406804503 $383 $508 forward 7 unknown #
vertex $-1 $469 $509 #
straight-curve $-1 -37.780586156285736 -6.2618200642953141 53.016115287492454 -0.8660253999169214 0 0.50000000669873634 I I #
point $-1 42.860827107791721 -6.2618200642953141 6.4577727999599901 #
point $-1 51.609241004669329 1.3776432328088291 1.4068735913897257 #
straight-curve $-1 51.609241004669329 0 6.4577727999599901 0 1 0 I I #
vertex $-1 $390 $510 #
point $-1 47.021519753905523 -4.7339274048744855 2.5625055959089722 #
vertex $-1 $394 $511 #
point $-1 47.021519753905523 -2.4420884157432425 2.5625055959089722 #
vertex $-1 $398 $512 #
point $-1 47.021519753905523 -0.15024942661199958 2.5625055959089722 #
straight-curve $-1 -51.609241004669329 24.546638362058488 0 0 0 -1 I I #
point $-1 -51.609241004669329 -24.546638362058488 -6.4577727999599901 #
straight-curve $-1 -51.609241004669329 0 -6.4577727999599901 0 1 0 I I #
point $-1 -51.609241004669329 24.546638362058488 -6.4577727999599901 #
edge $-1 $487 -6.4577727999599901 $427 6.4577727999599901 $419 $513 forward 7 unknown #
straight-curve $-1 -40.193695404749349 -31.542140425416981 -6.4577727999599901 -1 0 0 I I #
vertex $-1 $433 $514 #
straight-curve $-1 -40.193695404749349 -31.542140425416981 6.4577727999599901 1 0 0 I I #
point $-1 -41.693695404749349 -31.542140425416981 6.4577727999599901 #
point $-1 -41.693695404749349 -31.542140425416981 -6.4577727999599901 #
point $-1 -38.693695404749349 -31.542140425416981 -6.4577727999599901 #
straight-curve $-1 -38.693695404749349 -28.044389393737735 6.4577727999599901 0 1 0 I I #
edge $-1 $452 -1.5 $441 1.5 $438 $515 forward 7 unknown #
straight-curve $-1 -38.693695404749349 31.542140425416978 0 0 0 -1 I I #
straight-curve $-1 -41.693695404749349 28.044389393737731 6.4577727999599901 0 -1 0 I I #
point $-1 -41.693695404749349 31.542140425416978 6.4577727999599901 #
point $-1 -41.693695404749349 31.542140425416978 -6.4577727999599901 #
straight-curve $-1 -40.193695404749349 31.542140425416978 -6.4577727999599901 1 0 0 I I #
point $-1 -38.693695404749349 31.542140425416978 -6.4577727999599901 #
point $-1 -38.693695404749349 31.542140425416978 6.4577727999599901 #
straight-curve $-1 -51.609241004669329 -0.99922977015965664 31.919288602310598 0 0 -1 I I #
point $-1 -51.609241004669329 -0.99922977015965664 6.4577727999599901 #
straight-curve $-1 -51.609241004669329 -2.4926844741388976 0.29093538039764333 0 -1 0 I I #
point $-1 -51.609241004669329 -0.99922977015965664 0.29093538039764155 #
point $-1 -46.230385925989467 -4.9853689482777988 1.0540730163930747 #
straight-curve $-1 51.609241004669329 -6.2618200642953141 71.202971224223759 0 0 -1 I I #
point $-1 51.609241004669329 -6.2618200642953141 6.4577727999599901 #
straight-curve $-1 51.609241004669322 -1.2210442078716213 1.4068735913897328 0 1 0 I I #
point $-1 51.609241004669329 -6.2618200642953141 1.4068735913897257 #
point $-1 46.338507050597691 -4.7339274048744855 2.3794928992998798 #
point $-1 46.338507050597691 -2.4420884157432425 2.3794928992998798 #
point $-1 46.338507050597691 -0.15024942661199958 2.3794928992998798 #
straight-curve $-1 -38.693695404749349 -31.542140425416981 0 0 0 -1 I I #
point $-1 -38.693695404749349 -31.542140425416981 6.4577727999599901 #
straight-curve $-1 -40.193695404749349 31.542140425416978 6.4577727999599901 -1 0 0 I I #
End-of-ACIS-data 