500 0 9 0           
7 Unknown 11 ACIS 5.0 NT 24 Thu Mar 25 16:08:36 1999 
-1 9.9999999999999995e-007 1e-010 
body $-1 $9 $-1 $10 #
body $-1 $11 $-1 $12 #
body $-1 $13 $-1 $14 #
body $-1 $15 $-1 $16 #
body $-1 $17 $-1 $18 #
body $-1 $19 $-1 $20 #
body $-1 $21 $-1 $22 #
body $-1 $23 $-1 $24 #
body $-1 $25 $-1 $26 #
lump $-1 $-1 $27 $0 #
transform $-1 1 0 0 0 1 0 0 0 1 47.799310281685841 21.881601433036767 9.9144683320329499 1 rotate no_reflect no_shear #
lump $-1 $-1 $28 $1 #
transform $-1 1 0 0 0 1 0 0 0 1 47.799310281685841 21.881601433036767 9.9144683320329499 1 rotate no_reflect no_shear #
lump $-1 $-1 $29 $2 #
transform $-1 1 0 0 0 1 0 0 0 1 47.799310281685841 21.881601433036767 9.9144683320329499 1 rotate no_reflect no_shear #
lump $-1 $-1 $30 $3 #
transform $-1 1 0 0 0 1 0 0 0 1 47.799310281685841 21.881601433036767 9.9144683320329499 1 rotate no_reflect no_shear #
lump $-1 $-1 $31 $4 #
transform $-1 1 0 0 0 1 0 0 0 1 47.799310281685841 21.881601433036767 9.9144683320329499 1 rotate no_reflect no_shear #
lump $-1 $-1 $32 $5 #
transform $-1 1 0 0 0 1 0 0 0 1 47.799310281685841 21.881601433036767 9.9144683320329499 1 rotate no_reflect no_shear #
lump $-1 $-1 $33 $6 #
transform $-1 1 0 0 0 1 0 0 0 1 47.799310281685841 21.881601433036767 9.9144683320329499 1 rotate no_reflect no_shear #
lump $-1 $-1 $34 $7 #
transform $-1 1 0 0 0 1 0 0 0 1 47.799310281685841 21.881601433036767 9.9144683320329499 1 rotate no_reflect no_shear #
lump $-1 $-1 $35 $8 #
transform $-1 1 0 0 0 1 0 0 0 1 47.799310281685841 21.881601433036767 9.9144683320329499 1 rotate no_reflect no_shear #
shell $-1 $-1 $-1 $36 $-1 $9 #
shell $-1 $-1 $-1 $37 $-1 $11 #
shell $-1 $-1 $-1 $38 $-1 $13 #
shell $-1 $-1 $-1 $39 $-1 $15 #
shell $-1 $-1 $-1 $40 $-1 $17 #
shell $-1 $-1 $-1 $41 $-1 $19 #
shell $-1 $-1 $-1 $42 $-1 $21 #
shell $-1 $-1 $-1 $43 $-1 $23 #
shell $-1 $-1 $-1 $44 $-1 $25 #
face $-1 $45 $46 $27 $-1 $47 forward single #
face $-1 $48 $49 $28 $-1 $50 forward single #
face $-1 $51 $52 $29 $-1 $53 forward single #
face $-1 $54 $55 $30 $-1 $56 reversed single #
face $-1 $57 $58 $31 $-1 $59 forward single #
face $-1 $60 $61 $32 $-1 $62 forward single #
face $-1 $63 $64 $33 $-1 $65 reversed single #
face $-1 $66 $67 $34 $-1 $68 forward single #
face $-1 $69 $70 $35 $-1 $71 forward single #
face $-1 $72 $73 $27 $-1 $74 reversed single #
loop $-1 $-1 $75 $36 #
plane-surface $-1 0 0 9.9144683320329499 0 0 1 1 0 0 forward_v I I I I #
face $-1 $76 $77 $28 $-1 $78 reversed single #
loop $-1 $-1 $79 $37 #
plane-surface $-1 -47.799310281685841 0 0 1 0 0 0 0 -1 forward_v I I I I #
face $-1 $80 $81 $29 $-1 $82 reversed single #
loop $-1 $-1 $83 $38 #
plane-surface $-1 47.799310281685841 0 0 -1 0 0 0 0 1 forward_v I I I I #
face $-1 $84 $85 $30 $-1 $86 reversed single #
loop $-1 $-1 $87 $39 #
plane-surface $-1 40.431002804314303 -92.925222419154281 66.676816399891763 -1 0 0 0 -0.74314483375859142 0.66913059716165679 forward_v I I I I #
face $-1 $88 $89 $31 $-1 $90 forward single #
loop $-1 $91 $92 $40 #
cone-surface $-1 28.554516283653619 -16.75461701972684 4.6161983076592801 0 0.74314483375859142 -0.66913059716165679 2 0 0 1 I I 0 1 2 forward I I I I #
face $-1 $93 $94 $32 $-1 $95 forward single #
loop $-1 $96 $97 $41 #
cone-surface $-1 35.680408196050031 -16.75461701972684 4.6161983076592801 0 0.74314483375859142 -0.66913059716165679 2 0 0 1 I I 0 1 2 forward I I I I #
face $-1 $98 $99 $33 $-1 $100 reversed single #
loop $-1 $-1 $101 $42 #
plane-surface $-1 23.803921675389347 63.641924351671776 99.199214518543499 1 0 0 0 -0.74314483375859142 -0.66913059716165679 forward_v I I I I #
face $-1 $102 $103 $34 $-1 $104 forward single #
loop $-1 $105 $106 $43 #
cone-surface $-1 28.554516283653619 16.754617019726844 4.6161983076592801 0 -0.74314483375859142 -0.66913059716165679 2 0 0 1 I I 0 1 2 forward I I I I #
face $-1 $107 $108 $35 $-1 $109 forward single #
loop $-1 $110 $111 $44 #
cone-surface $-1 35.680408196050031 16.754617019726844 4.6161983076592801 0 -0.74314483375859142 -0.66913059716165679 2 0 0 1 I I 0 1 2 forward I I I I #
face $-1 $112 $113 $27 $-1 $114 reversed single #
loop $-1 $-1 $115 $45 #
plane-surface $-1 0 0 -9.9144683320329499 0 0 1 1 0 0 forward_v I I I I #
coedge $-1 $116 $117 $118 $119 forward $46 $-1 #
face $-1 $120 $121 $28 $-1 $122 reversed single #
loop $-1 $-1 $123 $48 #
plane-surface $-1 0 21.881601433036767 0 0 -1 0 0 0 -1 forward_v I I I I #
coedge $-1 $124 $125 $126 $127 forward $49 $-1 #
face $-1 $128 $129 $29 $-1 $130 forward single #
loop $-1 $-1 $131 $51 #
plane-surface $-1 0 -21.881601433036767 0 0 1 0 0 0 1 forward_v I I I I #
coedge $-1 $132 $133 $134 $135 forward $52 $-1 #
face $-1 $136 $137 $30 $-1 $138 reversed single #
loop $-1 $-1 $139 $54 #
plane-surface $-1 32.117462239851825 -21.881601433036778 2.70885433449223 0 -0.74314483375859142 0.66913059716165679 1 0 0 forward_v I I I I #
coedge $-1 $140 $141 $142 $143 reversed $55 $-1 #
face $-1 $-1 $144 $31 $-1 $145 forward single #
loop $-1 $146 $147 $57 #
cone-surface $-1 28.554516283653619 -14.128469684438025 2.2516046848943105 0 0.74314483375859142 -0.66913059716165679 1 0 0 1 I I -0.70710678118654746 0.70710678118654746 1 forward I I I I #
loop $-1 $-1 $148 $40 #
coedge $-1 $92 $92 $149 $150 reversed $58 $-1 #
face $-1 $-1 $151 $32 $-1 $152 forward single #
loop $-1 $153 $154 $60 #
cone-surface $-1 35.680408196050031 -14.128469684438025 2.2516046848943105 0 0.74314483375859142 -0.66913059716165679 1 0 0 1 I I -0.70710678118654746 0.70710678118654746 1 forward I I I I #
loop $-1 $-1 $155 $41 #
coedge $-1 $97 $97 $156 $157 reversed $61 $-1 #
face $-1 $158 $159 $33 $-1 $160 reversed single #
loop $-1 $-1 $161 $63 #
plane-surface $-1 32.117462239851825 -7.4016966344457273 35.231252453143966 0 0.74314483375859142 0.66913059716165679 1 0 0 forward_v I I I I #
coedge $-1 $162 $163 $164 $165 reversed $64 $-1 #
face $-1 $-1 $166 $34 $-1 $167 forward single #
loop $-1 $168 $169 $66 #
cone-surface $-1 28.554516283653619 14.128469684438027 2.2516046848943105 0 -0.74314483375859142 -0.66913059716165679 1 0 0 1 I I -0.70710678118654746 0.70710678118654746 1 forward I I I I #
loop $-1 $-1 $170 $43 #
coedge $-1 $106 $106 $171 $172 reversed $67 $-1 #
face $-1 $-1 $173 $35 $-1 $174 forward single #
loop $-1 $175 $176 $69 #
cone-surface $-1 35.680408196050031 14.128469684438027 2.2516046848943105 0 -0.74314483375859142 -0.66913059716165679 1 0 0 1 I I -0.70710678118654746 0.70710678118654746 1 forward I I I I #
loop $-1 $-1 $177 $44 #
coedge $-1 $111 $111 $178 $179 reversed $70 $-1 #
face $-1 $180 $181 $27 $-1 $182 reversed single #
loop $-1 $-1 $183 $72 #
plane-surface $-1 0 -21.881601433036767 0 0 1 0 0 0 1 forward_v I I I I #
coedge $-1 $184 $185 $186 $187 forward $73 $-1 #
coedge $-1 $188 $75 $189 $190 forward $46 $-1 #
coedge $-1 $75 $188 $191 $192 forward $46 $-1 #
coedge $-1 $193 $194 $75 $119 reversed $195 $-1 #
edge $-1 $196 -21.881601433036767 $197 21.881601433036767 $118 $198 forward 7 unknown #
face $-1 $199 $200 $28 $-1 $201 reversed single #
loop $-1 $-1 $126 $76 #
plane-surface $-1 -53.245711068480261 0 4.0273915612259721 0 0 1 1 0 0 forward_v I I I I #
coedge $-1 $202 $203 $124 $204 forward $77 $-1 #
coedge $-1 $205 $79 $123 $204 reversed $49 $-1 #
coedge $-1 $79 $205 $206 $207 reversed $49 $-1 #
coedge $-1 $208 $209 $79 $127 reversed $121 $-1 #
edge $-1 $210 -21.881601433036767 $211 21.881601433036767 $126 $212 forward 7 unknown #
face $-1 $213 $214 $29 $-1 $215 reversed single #
loop $-1 $-1 $216 $80 #
plane-surface $-1 51.483464020371606 0 -5.8948832005370875 0 0 1 1 0 0 forward_v I I I I #
coedge $-1 $217 $218 $133 $219 forward $81 $-1 #
coedge $-1 $220 $83 $221 $222 reversed $52 $-1 #
coedge $-1 $83 $220 $131 $219 reversed $52 $-1 #
coedge $-1 $223 $224 $83 $135 reversed $129 $-1 #
edge $-1 $225 -21.881601433036767 $226 21.881601433036767 $134 $227 forward 7 unknown #
face $-1 $228 $229 $30 $-1 $230 forward single #
loop $-1 $-1 $231 $84 #
plane-surface $-1 23.803921675389347 -92.925222419154281 66.676816399891763 1 0 0 0 0.74314483375859142 -0.66913059716165679 forward_v I I I I #
coedge $-1 $232 $233 $234 $235 reversed $85 $-1 #
coedge $-1 $141 $87 $236 $237 reversed $55 $-1 #
coedge $-1 $87 $140 $232 $238 reversed $55 $-1 #
coedge $-1 $234 $239 $87 $143 forward $229 $-1 #
edge $-1 $240 24.581009776540373 $241 31.068973600099774 $142 $242 forward 7 unknown #
loop $-1 $-1 $149 $88 #
plane-surface $-1 32.117462239851825 -21.881601433036778 2.70885433449223 0 -0.74314483375859142 0.66913059716165679 1 0 0 forward_v I I I I #
loop $-1 $-1 $243 $57 #
coedge $-1 $147 $147 $148 $244 reversed $89 $-1 #
coedge $-1 $148 $148 $147 $244 forward $91 $-1 #
coedge $-1 $149 $149 $92 $150 forward $144 $-1 #
edge $-1 $245 -1.320090408112036e-015 $245 6.2831853071795996 $149 $246 forward 7 unknown #
loop $-1 $-1 $156 $93 #
plane-surface $-1 32.117462239851825 -21.881601433036778 2.70885433449223 0 -0.74314483375859142 0.66913059716165679 1 0 0 forward_v I I I I #
loop $-1 $-1 $247 $60 #
coedge $-1 $154 $154 $155 $248 reversed $94 $-1 #
coedge $-1 $155 $155 $154 $248 forward $96 $-1 #
coedge $-1 $156 $156 $97 $157 forward $151 $-1 #
edge $-1 $249 -1.320090408112036e-015 $249 6.2831853071795996 $156 $250 forward 7 unknown #
face $-1 $251 $252 $33 $-1 $253 reversed single #
loop $-1 $-1 $254 $98 #
plane-surface $-1 40.431002804314303 63.641924351671776 99.199214518543499 -1 0 0 0 0.74314483375859142 0.66913059716165679 forward_v I I I I #
coedge $-1 $255 $256 $257 $258 reversed $99 $-1 #
coedge $-1 $163 $101 $259 $260 reversed $64 $-1 #
coedge $-1 $101 $162 $255 $261 reversed $64 $-1 #
coedge $-1 $257 $262 $101 $165 forward $263 $-1 #
edge $-1 $264 9.9393607427991206 $265 16.427324566358507 $164 $266 forward 7 unknown #
loop $-1 $-1 $171 $102 #
plane-surface $-1 32.117462239851825 -7.4016966344457273 35.231252453143966 0 0.74314483375859142 0.66913059716165679 1 0 0 forward_v I I I I #
loop $-1 $-1 $267 $66 #
coedge $-1 $169 $169 $170 $268 reversed $103 $-1 #
coedge $-1 $170 $170 $169 $268 forward $105 $-1 #
coedge $-1 $171 $171 $106 $172 forward $166 $-1 #
edge $-1 $269 -2.6561811788015849e-016 $269 6.2831853071796004 $171 $270 forward 7 unknown #
loop $-1 $-1 $178 $107 #
plane-surface $-1 32.117462239851825 -7.4016966344457273 35.231252453143966 0 0.74314483375859142 0.66913059716165679 1 0 0 forward_v I I I I #
loop $-1 $-1 $271 $69 #
coedge $-1 $176 $176 $177 $272 reversed $108 $-1 #
coedge $-1 $177 $177 $176 $272 forward $110 $-1 #
coedge $-1 $178 $178 $111 $179 forward $173 $-1 #
edge $-1 $273 -2.6561811788015849e-016 $273 6.2831853071796004 $178 $274 forward 7 unknown #
face $-1 $275 $276 $27 $-1 $277 reversed single #
loop $-1 $-1 $278 $112 #
plane-surface $-1 -47.799310281685841 0 0 1 0 0 0 0 -1 forward_v I I I I #
coedge $-1 $279 $191 $280 $281 forward $113 $-1 #
coedge $-1 $282 $115 $279 $283 forward $73 $-1 #
coedge $-1 $115 $282 $284 $285 forward $73 $-1 #
coedge $-1 $194 $193 $115 $187 reversed $195 $-1 #
edge $-1 $286 -21.881601433036767 $287 21.881601433036767 $186 $288 forward 7 unknown #
coedge $-1 $117 $116 $289 $290 forward $46 $-1 #
coedge $-1 $291 $292 $116 $190 reversed $276 $-1 #
edge $-1 $197 -47.799310281685841 $293 47.799310281685841 $189 $294 forward 7 unknown #
coedge $-1 $183 $295 $117 $192 reversed $113 $-1 #
edge $-1 $296 -47.799310281685841 $196 47.799310281685841 $191 $297 forward 7 unknown #
coedge $-1 $186 $118 $295 $298 forward $195 $-1 #
coedge $-1 $118 $186 $291 $299 reversed $195 $-1 #
loop $-1 $-1 $194 $275 #
vertex $-1 $119 $300 #
vertex $-1 $119 $301 #
straight-curve $-1 47.799310281685841 0 9.9144683320329499 0 1 0 I I #
face $-1 $302 $303 $28 $-1 $304 forward single #
loop $-1 $-1 $305 $120 #
plane-surface $-1 -58.692111855274682 0 6.970929946629461 1 0 0 0 0 -1 forward_v I I I I #
coedge $-1 $306 $123 $209 $307 reversed $77 $-1 #
coedge $-1 $123 $306 $308 $309 reversed $77 $-1 #
edge $-1 $310 -9.9144683320329499 $211 -4.0273915612259721 $123 $311 forward 7 unknown #
coedge $-1 $125 $124 $312 $313 reversed $49 $-1 #
coedge $-1 $314 $315 $125 $207 forward $316 $-1 #
edge $-1 $210 4.0273915612259721 $317 9.9144683320329499 $206 $318 forward 7 unknown #
coedge $-1 $319 $126 $315 $320 forward $121 $-1 #
coedge $-1 $126 $319 $202 $307 forward $121 $-1 #
vertex $-1 $207 $321 #
vertex $-1 $204 $322 #
straight-curve $-1 -47.799310281685841 0 4.0273915612259721 0 1 0 I I #
face $-1 $323 $324 $29 $-1 $325 reversed single #
loop $-1 $-1 $326 $128 #
plane-surface $-1 55.167617759057372 0 -7.9046757662850187 -1 0 0 0 0 1 forward_v I I I I #
coedge $-1 $224 $223 $327 $328 forward $129 $-1 #
coedge $-1 $329 $131 $330 $331 reversed $81 $-1 #
coedge $-1 $131 $329 $223 $332 reversed $81 $-1 #
edge $-1 $225 5.8948832005370875 $333 9.9144683320329499 $131 $334 forward 7 unknown #
coedge $-1 $133 $132 $335 $336 reversed $52 $-1 #
coedge $-1 $337 $338 $132 $222 forward $339 $-1 #
edge $-1 $340 -9.9144683320329499 $226 -5.8948832005370875 $221 $341 forward 7 unknown #
coedge $-1 $216 $134 $218 $332 forward $129 $-1 #
coedge $-1 $134 $216 $337 $342 forward $129 $-1 #
vertex $-1 $219 $343 #
vertex $-1 $342 $344 #
straight-curve $-1 47.799310281685841 0 -5.8948832005370875 0 1 0 I I #
face $-1 $-1 $345 $30 $-1 $346 reversed single #
loop $-1 $-1 $142 $136 #
plane-surface $-1 0 0 9.9144683320329499 0 0 1 1 0 0 forward_v I I I I #
coedge $-1 $347 $348 $349 $350 reversed $137 $-1 #
coedge $-1 $351 $139 $141 $238 forward $85 $-1 #
coedge $-1 $139 $351 $347 $352 forward $85 $-1 #
coedge $-1 $349 $142 $139 $235 forward $229 $-1 #
edge $-1 $241 -24.372271684388391 $353 -7.7451905554634344 $234 $354 forward 7 unknown #
coedge $-1 $355 $356 $140 $237 forward $345 $-1 #
edge $-1 $357 -30.629553865453641 $240 -23.423939867912932 $236 $358 forward 7 unknown #
edge $-1 $241 -9.6961099239525126 $357 -1.604229853107674e-014 $141 $359 forward 7 unknown #
coedge $-1 $142 $349 $355 $360 forward $229 $-1 #
vertex $-1 $143 $361 #
vertex $-1 $143 $362 #
straight-curve $-1 40.431002804314303 -46.46261120957714 9.9144683320329499 0 1 0 I I #
coedge $-1 $243 $243 $-1 $363 reversed $146 $-1 #
edge $-1 $364 0 $364 6.2831853071796004 $147 $365 forward 7 unknown #
vertex $-1 $150 $366 #
ellipse-curve $-1 28.554516283653619 -18.637619521257065 6.3116613332625953 0 -0.74314483375859142 0.66913059716165679 2 0 0 1 I I #
coedge $-1 $247 $247 $-1 $367 reversed $153 $-1 #
edge $-1 $368 0 $368 6.2831853071796004 $154 $369 forward 7 unknown #
vertex $-1 $157 $370 #
ellipse-curve $-1 35.680408196050031 -18.637619521257065 6.3116613332625953 0 -0.74314483375859142 0.66913059716165679 2 0 0 1 I I #
face $-1 $-1 $263 $33 $-1 $371 forward single #
loop $-1 $-1 $372 $158 #
plane-surface $-1 0 21.881601433036767 0 0 -1 0 0 0 -1 forward_v I I I I #
coedge $-1 $373 $374 $375 $376 reversed $159 $-1 #
coedge $-1 $377 $161 $163 $261 forward $99 $-1 #
coedge $-1 $161 $377 $373 $378 forward $99 $-1 #
coedge $-1 $375 $164 $161 $258 forward $263 $-1 #
edge $-1 $265 7.7451905554634344 $379 24.372271684388391 $257 $380 forward 7 unknown #
coedge $-1 $381 $382 $162 $260 forward $252 $-1 #
edge $-1 $383 -46.890752924779491 $264 -39.685138927238796 $259 $384 forward 7 unknown #
edge $-1 $265 34.067092942121029 $383 43.763202866073499 $163 $385 forward 7 unknown #
coedge $-1 $164 $375 $381 $386 forward $263 $-1 #
loop $-1 $-1 $375 $251 #
vertex $-1 $260 $387 #
vertex $-1 $165 $388 #
straight-curve $-1 23.803921675389347 31.820962175835888 9.9144683320329534 0 -1 0 I I #
coedge $-1 $267 $267 $-1 $389 reversed $168 $-1 #
edge $-1 $390 0 $390 6.2831853071796004 $169 $391 forward 7 unknown #
vertex $-1 $172 $392 #
ellipse-curve $-1 28.554516283653619 18.637619521257076 6.3116613332626006 0 0.74314483375859142 0.66913059716165679 2 0 0 1 I I #
coedge $-1 $271 $271 $-1 $393 reversed $175 $-1 #
edge $-1 $394 0 $394 6.2831853071796004 $176 $395 forward 7 unknown #
vertex $-1 $179 $396 #
ellipse-curve $-1 35.680408196050031 18.637619521257076 6.3116613332626006 0 0.74314483375859142 0.66913059716165679 2 0 0 1 I I #
face $-1 $-1 $195 $27 $-1 $397 reversed single #
loop $-1 $-1 $291 $180 #
plane-surface $-1 0 21.881601433036767 0 0 -1 0 0 0 -1 forward_v I I I I #
coedge $-1 $398 $289 $292 $399 forward $181 $-1 #
coedge $-1 $295 $183 $184 $283 reversed $113 $-1 #
coedge $-1 $289 $398 $183 $281 reversed $181 $-1 #
edge $-1 $296 -9.9144683320329499 $400 9.9144683320329499 $280 $401 forward 7 unknown #
coedge $-1 $185 $184 $398 $402 forward $73 $-1 #
edge $-1 $287 -47.799310281685841 $400 47.799310281685841 $279 $403 forward 7 unknown #
coedge $-1 $292 $291 $185 $285 reversed $276 $-1 #
edge $-1 $404 -47.799310281685841 $286 47.799310281685841 $284 $405 forward 7 unknown #
vertex $-1 $187 $406 #
vertex $-1 $298 $407 #
straight-curve $-1 47.799310281685841 0 -9.9144683320329499 0 -1 0 I I #
coedge $-1 $278 $280 $188 $290 reversed $181 $-1 #
edge $-1 $293 -21.881601433036767 $296 21.881601433036767 $289 $408 forward 7 unknown #
coedge $-1 $284 $189 $194 $299 forward $276 $-1 #
coedge $-1 $189 $284 $278 $399 reversed $276 $-1 #
vertex $-1 $190 $409 #
straight-curve $-1 0 21.881601433036767 9.9144683320329499 -1 0 0 I I #
coedge $-1 $191 $279 $193 $298 reversed $113 $-1 #
vertex $-1 $290 $410 #
straight-curve $-1 0 -21.881601433036767 9.9144683320329499 1 0 0 I I #
edge $-1 $196 -9.9144683320329499 $287 9.9144683320329499 $193 $411 forward 7 unknown #
edge $-1 $197 -9.9144683320329499 $286 9.9144683320329499 $194 $412 forward 7 unknown #
point $-1 47.799310281685841 -21.881601433036767 9.9144683320329499 #
point $-1 47.799310281685841 21.881601433036767 9.9144683320329499 #
face $-1 $-1 $316 $28 $-1 $413 reversed single #
loop $-1 $-1 $312 $199 #
plane-surface $-1 0 0 9.9144683320329499 0 0 1 1 0 0 forward_v I I I I #
coedge $-1 $414 $415 $306 $416 forward $200 $-1 #
coedge $-1 $203 $202 $305 $416 reversed $77 $-1 #
edge $-1 $417 -5.4464007867944204 $211 5.4464007867944204 $202 $418 forward 7 unknown #
coedge $-1 $419 $312 $203 $309 forward $303 $-1 #
edge $-1 $310 47.799310281685841 $420 58.692111855274682 $203 $421 forward 7 unknown #
vertex $-1 $309 $422 #
straight-curve $-1 -47.799310281685841 21.881601433036767 0 0 0 -1 I I #
coedge $-1 $308 $423 $205 $313 forward $303 $-1 #
edge $-1 $317 -21.881601433036767 $310 21.881601433036767 $312 $424 forward 7 unknown #
coedge $-1 $425 $206 $423 $426 reversed $316 $-1 #
coedge $-1 $206 $425 $208 $320 reversed $316 $-1 #
loop $-1 $-1 $206 $302 #
vertex $-1 $207 $427 #
straight-curve $-1 -47.799310281685841 -21.881601433036767 0 0 0 1 I I #
coedge $-1 $209 $208 $414 $428 forward $121 $-1 #
edge $-1 $210 -5.4464007867944204 $429 5.4464007867944204 $315 $430 forward 7 unknown #
point $-1 -47.799310281685841 -21.881601433036767 4.0273915612259721 #
point $-1 -47.799310281685841 21.881601433036767 4.0273915612259721 #
face $-1 $-1 $339 $29 $-1 $431 reversed single #
loop $-1 $-1 $335 $213 #
plane-surface $-1 0 0 -9.9144683320329499 0 0 1 1 0 0 forward_v I I I I #
coedge $-1 $432 $327 $329 $433 forward $214 $-1 #
coedge $-1 $326 $434 $216 $328 reversed $214 $-1 #
edge $-1 $435 -21.881601433036767 $436 21.881601433036767 $327 $437 forward 7 unknown #
coedge $-1 $218 $217 $326 $433 reversed $81 $-1 #
coedge $-1 $335 $438 $217 $331 forward $324 $-1 #
edge $-1 $439 -3.6841537386857652 $333 3.6841537386857652 $217 $440 forward 7 unknown #
edge $-1 $225 -3.6841537386857652 $435 3.6841537386857652 $218 $441 forward 7 unknown #
vertex $-1 $219 $442 #
straight-curve $-1 47.799310281685841 -21.881601433036767 0 0 0 -1 I I #
coedge $-1 $443 $330 $220 $336 forward $324 $-1 #
edge $-1 $333 -21.881601433036767 $340 21.881601433036767 $335 $444 forward 7 unknown #
coedge $-1 $445 $221 $224 $342 reversed $339 $-1 #
coedge $-1 $221 $445 $443 $446 reversed $339 $-1 #
loop $-1 $-1 $221 $323 #
vertex $-1 $446 $447 #
straight-curve $-1 47.799310281685841 21.881601433036767 0 0 0 1 I I #
edge $-1 $436 -3.6841537386857652 $226 3.6841537386857652 $337 $448 forward 7 unknown #
point $-1 47.799310281685841 -21.881601433036767 -5.8948832005370875 #
point $-1 47.799310281685841 21.881601433036767 -5.8948832005370875 #
loop $-1 $-1 $236 $228 #
plane-surface $-1 0 -21.881601433036767 0 0 1 0 0 0 1 forward_v I I I I #
coedge $-1 $348 $231 $233 $352 reversed $137 $-1 #
coedge $-1 $231 $347 $449 $450 reversed $137 $-1 #
coedge $-1 $239 $234 $231 $350 forward $229 $-1 #
edge $-1 $353 -31.068973600099774 $451 -24.581009776540373 $349 $452 forward 7 unknown #
coedge $-1 $233 $232 $356 $453 reversed $85 $-1 #
edge $-1 $454 1.604229853107674e-014 $353 9.6961099239525126 $347 $455 forward 7 unknown #
vertex $-1 $235 $456 #
straight-curve $-1 16.058731119925913 -15.393637609477365 9.9144683320329499 -1 0 0 I I #
coedge $-1 $449 $236 $239 $360 reversed $345 $-1 #
coedge $-1 $236 $449 $351 $453 forward $345 $-1 #
vertex $-1 $237 $457 #
straight-curve $-1 40.431002804314303 -21.881601433036771 33.338408199945881 0 0 1 I I #
straight-curve $-1 40.431002804314303 -21.881601433036778 2.70885433449223 0 -0.66913059716165679 -0.74314483375859142 I I #
edge $-1 $451 23.803921675389347 $240 40.431002804314303 $355 $458 forward 7 unknown #
point $-1 40.431002804314303 -21.881601433036767 9.9144683320329499 #
point $-1 40.431002804314303 -15.393637609477366 9.9144683320329499 #
edge $-1 $459 1 $459 0 $243 $-1 forward 7 unknown #
vertex $-1 $244 $460 #
ellipse-curve $-1 28.554516283653619 -14.871614518196617 2.9207352820559676 0 -0.74314483375859142 0.66913059716165679 2 0 0 1 I I #
point $-1 30.554516283653619 -18.637619521257065 6.3116613332625917 #
edge $-1 $461 1 $461 0 $247 $-1 forward 7 unknown #
vertex $-1 $248 $462 #
ellipse-curve $-1 35.680408196050031 -14.871614518196617 2.9207352820559676 0 -0.74314483375859142 0.66913059716165679 2 0 0 1 I I #
point $-1 37.680408196050031 -18.637619521257065 6.3116613332625917 #
plane-surface $-1 0 0 9.9144683320329499 0 0 1 1 0 0 forward_v I I I I #
coedge $-1 $382 $381 $374 $463 forward $252 $-1 #
coedge $-1 $374 $254 $256 $378 reversed $159 $-1 #
coedge $-1 $254 $373 $372 $463 reversed $159 $-1 #
coedge $-1 $262 $257 $254 $376 forward $263 $-1 #
edge $-1 $379 -16.427324566358507 $464 -9.9393607427991206 $375 $465 forward 7 unknown #
coedge $-1 $256 $255 $382 $466 reversed $99 $-1 #
edge $-1 $467 -43.763202866073499 $379 -34.067092942121029 $373 $468 forward 7 unknown #
vertex $-1 $258 $469 #
straight-curve $-1 16.058731119925913 15.393637609477381 9.9144683320329499 1 0 0 I I #
coedge $-1 $372 $259 $262 $386 reversed $252 $-1 #
coedge $-1 $259 $372 $377 $466 forward $252 $-1 #
vertex $-1 $260 $470 #
straight-curve $-1 23.803921675389347 21.881601433036767 49.59960725927175 0 0 1 I I #
straight-curve $-1 23.803921675389347 -7.4016966344457273 35.231252453143966 0 0.66913059716165679 -0.74314483375859142 I I #
edge $-1 $464 -40.431002804314303 $264 -23.803921675389347 $381 $471 forward 7 unknown #
point $-1 23.803921675389347 21.881601433036767 9.9144683320329499 #
point $-1 23.803921675389347 15.393637609477381 9.9144683320329499 #
edge $-1 $472 1 $472 0 $267 $-1 forward 7 unknown #
vertex $-1 $268 $473 #
ellipse-curve $-1 28.554516283653619 14.871614518196619 2.9207352820559676 0 0.74314483375859142 0.66913059716165679 2 0 0 1 I I #
point $-1 30.554516283653619 18.637619521257065 6.3116613332625917 #
edge $-1 $474 1 $474 0 $271 $-1 forward 7 unknown #
vertex $-1 $272 $475 #
ellipse-curve $-1 35.680408196050031 14.871614518196619 2.9207352820559676 0 0.74314483375859142 0.66913059716165679 2 0 0 1 I I #
point $-1 37.680408196050031 18.637619521257065 6.3116613332625917 #
plane-surface $-1 47.799310281685841 0 0 -1 0 0 0 0 1 forward_v I I I I #
coedge $-1 $280 $278 $282 $402 reversed $181 $-1 #
edge $-1 $293 -9.9144683320329499 $404 9.9144683320329499 $292 $476 forward 7 unknown #
vertex $-1 $402 $477 #
straight-curve $-1 -47.799310281685841 -21.881601433036767 0 0 0 -1 I I #
edge $-1 $400 -21.881601433036767 $404 21.881601433036767 $398 $478 forward 7 unknown #
straight-curve $-1 0 -21.881601433036767 -9.9144683320329499 -1 0 0 I I #
vertex $-1 $285 $479 #
straight-curve $-1 0 21.881601433036767 -9.9144683320329499 1 0 0 I I #
point $-1 47.799310281685841 21.881601433036767 -9.9144683320329499 #
point $-1 47.799310281685841 -21.881601433036767 -9.9144683320329499 #
straight-curve $-1 -47.799310281685841 0 9.9144683320329499 0 -1 0 I I #
point $-1 -47.799310281685841 21.881601433036767 9.9144683320329499 #
point $-1 -47.799310281685841 -21.881601433036767 9.9144683320329499 #
straight-curve $-1 47.799310281685841 -21.881601433036767 0 0 0 -1 I I #
straight-curve $-1 47.799310281685841 21.881601433036767 0 0 0 -1 I I #
plane-surface $-1 0 -21.881601433036767 0 0 1 0 0 0 1 forward_v I I I I #
coedge $-1 $480 $305 $319 $428 reversed $200 $-1 #
coedge $-1 $305 $480 $419 $481 reversed $200 $-1 #
edge $-1 $420 -2.9435383854034889 $417 2.9435383854034889 $306 $482 forward 7 unknown #
vertex $-1 $307 $483 #
straight-curve $-1 -53.245711068480261 21.881601433036767 4.0273915612259721 1 0 0 I I #
coedge $-1 $423 $308 $415 $481 forward $303 $-1 #
vertex $-1 $309 $484 #
straight-curve $-1 0 21.881601433036767 9.9144683320329499 -1 0 0 I I #
point $-1 -47.799310281685841 21.881601433036767 9.9144683320329499 #
coedge $-1 $312 $419 $314 $426 forward $303 $-1 #
straight-curve $-1 -47.799310281685841 0 9.9144683320329499 0 1 0 I I #
coedge $-1 $315 $314 $480 $485 forward $316 $-1 #
edge $-1 $486 -58.692111855274682 $317 -47.799310281685841 $314 $487 forward 7 unknown #
point $-1 -47.799310281685841 -21.881601433036767 9.9144683320329499 #
edge $-1 $429 -21.881601433036767 $417 21.881601433036767 $414 $488 forward 7 unknown #
vertex $-1 $428 $489 #
straight-curve $-1 -53.245711068480261 -21.881601433036767 4.0273915612259721 -1 0 0 I I #
plane-surface $-1 0 21.881601433036767 0 0 -1 0 0 0 -1 forward_v I I I I #
coedge $-1 $434 $326 $438 $490 reversed $214 $-1 #
edge $-1 $435 -2.0097925657479312 $439 2.0097925657479312 $326 $491 forward 7 unknown #
coedge $-1 $327 $432 $445 $492 reversed $214 $-1 #
vertex $-1 $328 $493 #
vertex $-1 $328 $494 #
straight-curve $-1 55.167617759057372 0 -5.8948832005370875 0 1 0 I I #
coedge $-1 $330 $443 $432 $490 forward $324 $-1 #
vertex $-1 $433 $495 #
straight-curve $-1 51.483464020371606 -21.881601433036767 -9.9144683320329499 -1 0 0 I I #
straight-curve $-1 51.483464020371606 -21.881601433036767 -5.8948832005370875 1 0 0 I I #
point $-1 47.799310281685841 -21.881601433036767 -9.9144683320329499 #
coedge $-1 $438 $335 $338 $446 forward $324 $-1 #
straight-curve $-1 47.799310281685841 0 -9.9144683320329499 0 1 0 I I #
coedge $-1 $338 $337 $434 $492 forward $339 $-1 #
edge $-1 $340 -3.6841537386857652 $496 3.6841537386857652 $338 $497 forward 7 unknown #
point $-1 47.799310281685841 21.881601433036767 -9.9144683320329499 #
straight-curve $-1 51.483464020371606 21.881601433036767 -5.8948832005370875 -1 0 0 I I #
coedge $-1 $356 $355 $348 $450 forward $345 $-1 #
edge $-1 $451 23.423939867912932 $454 30.629553865453641 $449 $498 forward 7 unknown #
vertex $-1 $360 $499 #
straight-curve $-1 23.803921675389347 -46.46261120957714 9.9144683320329499 0 -1 0 I I #
edge $-1 $454 7.7451905554634344 $357 24.372271684388391 $356 $500 forward 7 unknown #
vertex $-1 $453 $501 #
straight-curve $-1 23.803921675389347 -21.881601433036778 2.70885433449223 0 0.66913059716165679 0.74314483375859142 I I #
point $-1 23.803921675389347 -15.393637609477366 9.9144683320329499 #
point $-1 40.431002804314303 -21.881601433036767 2.708854334492242 #
straight-curve $-1 0 -21.881601433036767 9.9144683320329499 1 0 0 I I #
vertex $-1 $363 $502 #
point $-1 30.554516283653619 -14.871614518196617 2.9207352820559676 #
vertex $-1 $367 $503 #
point $-1 37.680408196050031 -14.871614518196617 2.9207352820559676 #
edge $-1 $464 39.685138927238796 $467 46.890752924779491 $372 $504 forward 7 unknown #
vertex $-1 $386 $505 #
straight-curve $-1 40.431002804314303 31.820962175835888 9.9144683320329534 0 1 0 I I #
edge $-1 $467 -24.372271684388391 $383 -7.7451905554634344 $382 $506 forward 7 unknown #
vertex $-1 $466 $507 #
straight-curve $-1 40.431002804314303 -7.4016966344457273 35.231252453143966 0 -0.66913059716165679 0.74314483375859142 I I #
point $-1 40.431002804314303 15.393637609477381 9.9144683320329499 #
point $-1 23.803921675389347 21.881601433036767 2.7088543344922584 #
straight-curve $-1 0 21.881601433036767 9.9144683320329499 -1 0 0 I I #
vertex $-1 $389 $508 #
point $-1 30.554516283653619 14.871614518196619 2.9207352820559676 #
vertex $-1 $393 $509 #
point $-1 37.680408196050031 14.871614518196619 2.9207352820559676 #
straight-curve $-1 -47.799310281685841 21.881601433036767 0 0 0 -1 I I #
point $-1 -47.799310281685841 -21.881601433036767 -9.9144683320329499 #
straight-curve $-1 -47.799310281685841 0 -9.9144683320329499 0 1 0 I I #
point $-1 -47.799310281685841 21.881601433036767 -9.9144683320329499 #
coedge $-1 $415 $414 $425 $485 reversed $200 $-1 #
edge $-1 $420 -21.881601433036767 $486 21.881601433036767 $415 $510 forward 7 unknown #
straight-curve $-1 -58.692111855274682 21.881601433036767 6.970929946629461 0 0 -1 I I #
point $-1 -58.692111855274682 21.881601433036767 4.0273915612259721 #
point $-1 -58.692111855274682 21.881601433036767 9.9144683320329499 #
edge $-1 $486 -2.9435383854034889 $429 2.9435383854034889 $480 $511 forward 7 unknown #
vertex $-1 $481 $512 #
straight-curve $-1 0 -21.881601433036767 9.9144683320329499 1 0 0 I I #
straight-curve $-1 -58.692111855274682 0 4.0273915612259721 0 1 0 I I #
point $-1 -58.692111855274682 -21.881601433036767 4.0273915612259721 #
edge $-1 $496 -21.881601433036767 $439 21.881601433036767 $432 $513 forward 7 unknown #
straight-curve $-1 55.167617759057372 -21.881601433036767 -7.9046757662850187 0 0 -1 I I #
edge $-1 $436 -2.0097925657479312 $496 2.0097925657479312 $434 $514 forward 7 unknown #
point $-1 55.167617759057372 -21.881601433036767 -5.8948832005370875 #
point $-1 55.167617759057372 21.881601433036767 -5.8948832005370875 #
point $-1 55.167617759057372 -21.881601433036767 -9.9144683320329499 #
vertex $-1 $490 $515 #
straight-curve $-1 51.483464020371606 21.881601433036767 -9.9144683320329499 1 0 0 I I #
straight-curve $-1 23.803921675389347 -21.881601433036771 33.338408199945881 0 0 -1 I I #
point $-1 23.803921675389347 -21.881601433036767 9.9144683320329499 #
straight-curve $-1 16.058731119925913 -21.881601433036767 2.7088543344922393 1 0 0 I I #
point $-1 23.803921675389347 -21.881601433036767 2.708854334492242 #
point $-1 28.554516283653619 -13.385324850679433 1.5824740877326537 #
point $-1 35.680408196050031 -13.385324850679433 1.5824740877326537 #
straight-curve $-1 40.431002804314303 21.881601433036767 49.59960725927175 0 0 -1 I I #
point $-1 40.431002804314303 21.881601433036767 9.9144683320329499 #
straight-curve $-1 16.058731119925913 21.881601433036767 2.7088543344922584 -1 0 0 I I #
point $-1 40.431002804314303 21.881601433036767 2.7088543344922584 #
point $-1 28.554516283653619 13.385324850679435 1.5824740877326537 #
point $-1 35.680408196050031 13.385324850679435 1.5824740877326537 #
straight-curve $-1 -58.692111855274682 0 9.9144683320329499 0 -1 0 I I #
straight-curve $-1 -58.692111855274682 -21.881601433036767 6.970929946629461 0 0 -1 I I #
point $-1 -58.692111855274682 -21.881601433036767 9.9144683320329499 #
straight-curve $-1 55.167617759057372 0 -9.9144683320329499 0 -1 0 I I #
straight-curve $-1 55.167617759057372 21.881601433036767 -7.9046757662850187 0 0 -1 I I #
point $-1 55.167617759057372 21.881601433036767 -9.9144683320329499 #
End-of-ACIS-data 