500 0 3 0           
7 Unknown 11 ACIS 5.0 NT 24 Thu Mar 25 15:15:17 1999 
-1 9.9999999999999995e-007 1e-010 
body $-1 $3 $-1 $4 #
body $-1 $5 $-1 $6 #
body $-1 $7 $-1 $8 #
lump $-1 $-1 $9 $0 #
transform $-1 1 0 0 0 1 0 0 0 1 51.828974272896509 25.010362813367486 5.403480985890452 1 rotate no_reflect no_shear #
lump $-1 $-1 $10 $1 #
transform $-1 1 0 0 0 1 0 0 0 1 51.828974272896509 25.010362813367486 5.403480985890452 1 rotate no_reflect no_shear #
lump $-1 $-1 $11 $2 #
transform $-1 1 0 0 0 1 0 0 0 1 51.828974272896509 25.010362813367486 5.403480985890452 1 rotate no_reflect no_shear #
shell $-1 $-1 $-1 $12 $-1 $3 #
shell $-1 $-1 $-1 $13 $-1 $5 #
shell $-1 $-1 $-1 $14 $-1 $7 #
face $-1 $15 $16 $9 $-1 $17 forward single #
face $-1 $18 $19 $10 $-1 $20 forward single #
face $-1 $21 $22 $11 $-1 $23 forward single #
face $-1 $24 $25 $9 $-1 $26 reversed single #
loop $-1 $-1 $27 $12 #
plane-surface $-1 0 0 5.403480985890452 0 0 1 1 0 0 forward_v I I I I #
face $-1 $28 $29 $10 $-1 $30 reversed single #
loop $-1 $-1 $31 $13 #
plane-surface $-1 0 -22.980859088187472 -2.403480985890452 0 0 1 1 0 0 forward_v I I I I #
face $-1 $32 $33 $11 $-1 $34 reversed single #
loop $-1 $-1 $35 $14 #
plane-surface $-1 0 22.980859088187472 -2.403480985890452 0 0 1 1 0 0 forward_v I I I I #
face $-1 $36 $37 $9 $-1 $38 reversed single #
loop $-1 $-1 $39 $15 #
plane-surface $-1 0 0 -5.403480985890452 0 0 1 1 0 0 forward_v I I I I #
coedge $-1 $40 $41 $42 $43 forward $16 $-1 #
face $-1 $44 $45 $10 $-1 $46 reversed single #
loop $-1 $-1 $47 $18 #
plane-surface $-1 0 -20.951355363007458 -3.903480985890452 0 -1 0 0 0 -1 forward_v I I I I #
coedge $-1 $48 $49 $50 $51 reversed $19 $-1 #
face $-1 $52 $53 $11 $-1 $54 reversed single #
loop $-1 $-1 $55 $21 #
plane-surface $-1 0 20.951355363007458 -3.903480985890452 0 1 0 0 0 1 forward_v I I I I #
coedge $-1 $56 $57 $58 $59 reversed $22 $-1 #
face $-1 $60 $61 $9 $-1 $62 reversed single #
loop $-1 $-1 $63 $24 #
plane-surface $-1 0 -25.010362813367486 0 0 1 0 0 0 1 forward_v I I I I #
coedge $-1 $64 $65 $66 $67 forward $25 $-1 #
coedge $-1 $68 $27 $69 $70 forward $16 $-1 #
coedge $-1 $27 $68 $71 $72 forward $16 $-1 #
coedge $-1 $73 $74 $27 $43 reversed $75 $-1 #
edge $-1 $76 -25.010362813367486 $77 25.010362813367486 $42 $78 forward 7 unknown #
face $-1 $79 $80 $10 $-1 $81 reversed single #
loop $-1 $-1 $82 $28 #
plane-surface $-1 0 0 -5.403480985890452 0 0 1 1 0 0 forward_v I I I I #
coedge $-1 $83 $84 $85 $86 reversed $29 $-1 #
coedge $-1 $87 $31 $84 $88 forward $19 $-1 #
coedge $-1 $31 $87 $89 $90 reversed $19 $-1 #
coedge $-1 $91 $85 $31 $51 forward $80 $-1 #
edge $-1 $92 9.4609258189137222 $93 13.51993326927375 $50 $94 forward 7 unknown #
face $-1 $95 $96 $11 $-1 $97 reversed single #
loop $-1 $-1 $58 $32 #
plane-surface $-1 51.828974272896509 0 0 -1 0 0 0 0 1 forward_v I I I I #
coedge $-1 $98 $99 $100 $101 reversed $33 $-1 #
coedge $-1 $102 $35 $103 $104 reversed $22 $-1 #
coedge $-1 $35 $102 $99 $105 forward $22 $-1 #
coedge $-1 $106 $107 $35 $59 forward $53 $-1 #
edge $-1 $108 -13.51993326927375 $109 -9.4609258189137222 $58 $110 forward 7 unknown #
face $-1 $111 $112 $9 $-1 $113 reversed single #
loop $-1 $-1 $114 $36 #
plane-surface $-1 -51.828974272896509 0 0 1 0 0 0 0 -1 forward_v I I I I #
coedge $-1 $115 $71 $116 $117 forward $37 $-1 #
coedge $-1 $118 $39 $115 $119 forward $25 $-1 #
coedge $-1 $39 $118 $120 $121 forward $25 $-1 #
coedge $-1 $74 $73 $39 $67 reversed $75 $-1 #
edge $-1 $122 -25.010362813367486 $123 25.010362813367486 $66 $124 forward 7 unknown #
coedge $-1 $41 $40 $125 $126 forward $16 $-1 #
coedge $-1 $127 $128 $40 $70 reversed $112 $-1 #
edge $-1 $77 -51.828974272896509 $129 51.828974272896509 $69 $130 forward 7 unknown #
coedge $-1 $63 $131 $41 $72 reversed $37 $-1 #
edge $-1 $132 -51.828974272896509 $76 51.828974272896509 $71 $133 forward 7 unknown #
coedge $-1 $66 $42 $131 $134 forward $75 $-1 #
coedge $-1 $42 $66 $127 $135 reversed $75 $-1 #
loop $-1 $-1 $73 $111 #
vertex $-1 $43 $136 #
vertex $-1 $43 $137 #
straight-curve $-1 51.828974272896509 0 5.403480985890452 0 1 0 I I #
face $-1 $138 $139 $10 $-1 $140 reversed single #
loop $-1 $-1 $85 $44 #
plane-surface $-1 51.828974272896509 0 0 -1 0 0 0 0 1 forward_v I I I I #
coedge $-1 $141 $142 $83 $143 forward $45 $-1 #
coedge $-1 $144 $47 $82 $143 reversed $29 $-1 #
coedge $-1 $47 $144 $48 $88 reversed $29 $-1 #
coedge $-1 $50 $145 $47 $86 forward $80 $-1 #
edge $-1 $146 -3.451740492945226 $92 -0.451740492945226 $85 $147 forward 7 unknown #
coedge $-1 $49 $48 $148 $149 reversed $19 $-1 #
edge $-1 $92 -51.828974272896509 $150 51.828974272896509 $84 $151 forward 7 unknown #
coedge $-1 $152 $153 $49 $90 forward $139 $-1 #
edge $-1 $93 -51.828974272896509 $154 51.828974272896509 $89 $155 forward 7 unknown #
coedge $-1 $145 $50 $153 $156 forward $80 $-1 #
vertex $-1 $51 $157 #
vertex $-1 $156 $158 #
straight-curve $-1 51.828974272896509 -11.490429544093736 -2.403480985890452 0 -1 0 I I #
face $-1 $159 $160 $11 $-1 $161 reversed single #
loop $-1 $-1 $162 $52 #
plane-surface $-1 0 0 -5.403480985890452 0 0 1 1 0 0 forward_v I I I I #
coedge $-1 $163 $55 $162 $164 reversed $33 $-1 #
coedge $-1 $55 $163 $57 $105 reversed $33 $-1 #
coedge $-1 $165 $166 $55 $101 forward $160 $-1 #
edge $-1 $167 -3.451740492945226 $168 -0.451740492945226 $100 $169 forward 7 unknown #
coedge $-1 $57 $56 $165 $170 reversed $22 $-1 #
coedge $-1 $171 $172 $56 $104 forward $173 $-1 #
edge $-1 $174 -51.828974272896509 $108 51.828974272896509 $103 $175 forward 7 unknown #
edge $-1 $168 -51.828974272896509 $109 51.828974272896509 $99 $176 forward 7 unknown #
coedge $-1 $177 $58 $163 $178 forward $53 $-1 #
coedge $-1 $58 $177 $171 $179 reversed $53 $-1 #
vertex $-1 $179 $180 #
vertex $-1 $59 $181 #
straight-curve $-1 51.828974272896509 11.490429544093736 -2.403480985890452 0 -1 0 I I #
face $-1 $-1 $75 $9 $-1 $182 reversed single #
loop $-1 $-1 $127 $60 #
plane-surface $-1 0 25.010362813367486 0 0 -1 0 0 0 -1 forward_v I I I I #
coedge $-1 $183 $125 $128 $184 forward $61 $-1 #
coedge $-1 $131 $63 $64 $119 reversed $37 $-1 #
coedge $-1 $125 $183 $63 $117 reversed $61 $-1 #
edge $-1 $132 -5.403480985890452 $185 5.403480985890452 $116 $186 forward 7 unknown #
coedge $-1 $65 $64 $183 $187 forward $25 $-1 #
edge $-1 $123 -51.828974272896509 $185 51.828974272896509 $115 $188 forward 7 unknown #
coedge $-1 $128 $127 $65 $121 reversed $112 $-1 #
edge $-1 $189 -51.828974272896509 $122 51.828974272896509 $120 $190 forward 7 unknown #
vertex $-1 $67 $191 #
vertex $-1 $134 $192 #
straight-curve $-1 51.828974272896509 0 -5.403480985890452 0 -1 0 I I #
coedge $-1 $114 $116 $68 $126 reversed $61 $-1 #
edge $-1 $129 -25.010362813367486 $132 25.010362813367486 $125 $193 forward 7 unknown #
coedge $-1 $120 $69 $74 $135 forward $112 $-1 #
coedge $-1 $69 $120 $114 $184 reversed $112 $-1 #
vertex $-1 $70 $194 #
straight-curve $-1 0 25.010362813367486 5.403480985890452 -1 0 0 I I #
coedge $-1 $71 $115 $73 $134 reversed $37 $-1 #
vertex $-1 $126 $195 #
straight-curve $-1 0 -25.010362813367486 5.403480985890452 1 0 0 I I #
edge $-1 $76 -5.403480985890452 $123 5.403480985890452 $73 $196 forward 7 unknown #
edge $-1 $77 -5.403480985890452 $122 5.403480985890452 $74 $197 forward 7 unknown #
point $-1 51.828974272896509 -25.010362813367486 5.403480985890452 #
point $-1 51.828974272896509 25.010362813367486 5.403480985890452 #
face $-1 $-1 $198 $10 $-1 $199 reversed single #
loop $-1 $-1 $89 $79 #
plane-surface $-1 0 -25.010362813367486 0 0 1 0 0 0 1 forward_v I I I I #
coedge $-1 $200 $82 $145 $201 forward $45 $-1 #
coedge $-1 $82 $200 $202 $203 forward $45 $-1 #
edge $-1 $204 -51.828974272896509 $146 51.828974272896509 $82 $205 forward 7 unknown #
coedge $-1 $84 $83 $206 $207 reversed $29 $-1 #
coedge $-1 $85 $91 $141 $201 reversed $80 $-1 #
vertex $-1 $201 $208 #
straight-curve $-1 51.828974272896509 -20.951355363007458 -1.951740492945226 0 0 1 I I #
coedge $-1 $206 $209 $87 $149 forward $198 $-1 #
edge $-1 $154 -13.51993326927375 $150 -9.4609258189137222 $148 $210 forward 7 unknown #
vertex $-1 $149 $211 #
straight-curve $-1 0 -20.951355363007458 -2.403480985890452 -1 0 0 I I #
coedge $-1 $212 $89 $209 $213 forward $139 $-1 #
coedge $-1 $89 $212 $91 $156 reversed $139 $-1 #
vertex $-1 $213 $214 #
straight-curve $-1 0 -25.010362813367486 -2.403480985890452 -1 0 0 I I #
edge $-1 $93 2.403480985890452 $215 5.403480985890452 $91 $216 forward 7 unknown #
point $-1 51.828974272896509 -20.951355363007458 -2.403480985890452 #
point $-1 51.828974272896509 -25.010362813367486 -2.403480985890452 #
face $-1 $-1 $173 $11 $-1 $217 reversed single #
loop $-1 $-1 $165 $95 #
plane-surface $-1 -51.828974272896509 0 0 1 0 0 0 0 -1 forward_v I I I I #
coedge $-1 $218 $219 $98 $164 forward $96 $-1 #
coedge $-1 $99 $98 $106 $178 reversed $33 $-1 #
edge $-1 $220 -51.828974272896509 $167 51.828974272896509 $162 $221 forward 7 unknown #
coedge $-1 $222 $100 $102 $170 forward $160 $-1 #
coedge $-1 $100 $222 $218 $223 reversed $160 $-1 #
vertex $-1 $223 $224 #
vertex $-1 $170 $225 #
straight-curve $-1 -51.828974272896509 20.951355363007458 -1.951740492945226 0 0 1 I I #
edge $-1 $168 9.4609258189137222 $174 13.51993326927375 $165 $226 forward 7 unknown #
coedge $-1 $227 $103 $107 $179 forward $173 $-1 #
coedge $-1 $103 $227 $222 $228 reversed $173 $-1 #
loop $-1 $-1 $103 $159 #
vertex $-1 $228 $229 #
straight-curve $-1 0 25.010362813367486 -2.403480985890452 1 0 0 I I #
straight-curve $-1 0 20.951355363007458 -2.403480985890452 1 0 0 I I #
coedge $-1 $107 $106 $219 $230 reversed $53 $-1 #
edge $-1 $109 0.451740492945226 $220 3.451740492945226 $106 $231 forward 7 unknown #
edge $-1 $108 2.403480985890452 $232 5.403480985890452 $107 $233 forward 7 unknown #
point $-1 51.828974272896509 25.010362813367486 -2.403480985890452 #
point $-1 51.828974272896509 20.951355363007458 -2.403480985890452 #
plane-surface $-1 51.828974272896509 0 0 -1 0 0 0 0 1 forward_v I I I I #
coedge $-1 $116 $114 $118 $187 reversed $61 $-1 #
edge $-1 $129 -5.403480985890452 $189 5.403480985890452 $128 $234 forward 7 unknown #
vertex $-1 $187 $235 #
straight-curve $-1 -51.828974272896509 -25.010362813367486 0 0 0 -1 I I #
edge $-1 $185 -25.010362813367486 $189 25.010362813367486 $183 $236 forward 7 unknown #
straight-curve $-1 0 -25.010362813367486 -5.403480985890452 -1 0 0 I I #
vertex $-1 $121 $237 #
straight-curve $-1 0 25.010362813367486 -5.403480985890452 1 0 0 I I #
point $-1 51.828974272896509 25.010362813367486 -5.403480985890452 #
point $-1 51.828974272896509 -25.010362813367486 -5.403480985890452 #
straight-curve $-1 -51.828974272896509 0 5.403480985890452 0 -1 0 I I #
point $-1 -51.828974272896509 25.010362813367486 5.403480985890452 #
point $-1 -51.828974272896509 -25.010362813367486 5.403480985890452 #
straight-curve $-1 51.828974272896509 -25.010362813367486 0 0 0 -1 I I #
straight-curve $-1 51.828974272896509 25.010362813367486 0 0 0 -1 I I #
loop $-1 $-1 $206 $138 #
plane-surface $-1 -51.828974272896509 0 0 1 0 0 0 0 -1 forward_v I I I I #
coedge $-1 $142 $141 $212 $238 forward $45 $-1 #
edge $-1 $146 20.951355363007458 $215 25.010362813367486 $145 $239 forward 7 unknown #
coedge $-1 $209 $206 $142 $203 reversed $198 $-1 #
edge $-1 $240 -25.010362813367486 $204 -20.951355363007458 $202 $241 forward 7 unknown #
vertex $-1 $207 $242 #
straight-curve $-1 0 -20.951355363007458 -5.403480985890452 1 0 0 I I #
coedge $-1 $202 $148 $144 $207 forward $198 $-1 #
edge $-1 $150 0.451740492945226 $204 3.451740492945226 $206 $243 forward 7 unknown #
point $-1 51.828974272896509 -20.951355363007458 -5.403480985890452 #
coedge $-1 $148 $202 $152 $213 reversed $198 $-1 #
straight-curve $-1 -51.828974272896509 -11.490429544093736 -2.403480985890452 0 1 0 I I #
point $-1 -51.828974272896509 -20.951355363007458 -2.403480985890452 #
coedge $-1 $153 $152 $200 $238 reversed $139 $-1 #
edge $-1 $154 2.403480985890452 $240 5.403480985890452 $209 $244 forward 7 unknown #
point $-1 -51.828974272896509 -25.010362813367486 -2.403480985890452 #
vertex $-1 $156 $245 #
straight-curve $-1 51.828974272896509 -25.010362813367486 0 0 0 -1 I I #
plane-surface $-1 0 25.010362813367486 0 0 -1 0 0 0 -1 forward_v I I I I #
coedge $-1 $246 $162 $166 $223 forward $96 $-1 #
coedge $-1 $162 $246 $177 $230 forward $96 $-1 #
vertex $-1 $164 $247 #
straight-curve $-1 0 20.951355363007458 -5.403480985890452 -1 0 0 I I #
coedge $-1 $166 $165 $172 $228 forward $160 $-1 #
edge $-1 $167 20.951355363007458 $248 25.010362813367486 $166 $249 forward 7 unknown #
point $-1 -51.828974272896509 20.951355363007458 -5.403480985890452 #
point $-1 -51.828974272896509 20.951355363007458 -2.403480985890452 #
straight-curve $-1 -51.828974272896509 11.490429544093736 -2.403480985890452 0 1 0 I I #
coedge $-1 $172 $171 $246 $250 reversed $173 $-1 #
edge $-1 $174 2.403480985890452 $248 5.403480985890452 $172 $251 forward 7 unknown #
point $-1 -51.828974272896509 25.010362813367486 -2.403480985890452 #
edge $-1 $232 -25.010362813367486 $220 -20.951355363007458 $177 $252 forward 7 unknown #
straight-curve $-1 51.828974272896509 20.951355363007458 -1.951740492945226 0 0 -1 I I #
vertex $-1 $230 $253 #
straight-curve $-1 51.828974272896509 25.010362813367486 0 0 0 -1 I I #
straight-curve $-1 -51.828974272896509 25.010362813367486 0 0 0 -1 I I #
point $-1 -51.828974272896509 -25.010362813367486 -5.403480985890452 #
straight-curve $-1 -51.828974272896509 0 -5.403480985890452 0 1 0 I I #
point $-1 -51.828974272896509 25.010362813367486 -5.403480985890452 #
edge $-1 $215 -51.828974272896509 $240 51.828974272896509 $212 $254 forward 7 unknown #
straight-curve $-1 51.828974272896509 0 -5.403480985890452 0 -1 0 I I #
vertex $-1 $203 $255 #
straight-curve $-1 -51.828974272896509 0 -5.403480985890452 0 1 0 I I #
point $-1 -51.828974272896509 -20.951355363007458 -5.403480985890452 #
straight-curve $-1 -51.828974272896509 -20.951355363007458 -1.951740492945226 0 0 -1 I I #
straight-curve $-1 -51.828974272896509 -25.010362813367486 0 0 0 -1 I I #
point $-1 51.828974272896509 -25.010362813367486 -5.403480985890452 #
coedge $-1 $219 $218 $227 $250 forward $96 $-1 #
point $-1 51.828974272896509 20.951355363007458 -5.403480985890452 #
vertex $-1 $250 $256 #
straight-curve $-1 -51.828974272896509 0 -5.403480985890452 0 1 0 I I #
edge $-1 $248 -51.828974272896509 $232 51.828974272896509 $227 $257 forward 7 unknown #
straight-curve $-1 -51.828974272896509 25.010362813367486 0 0 0 -1 I I #
straight-curve $-1 51.828974272896509 0 -5.403480985890452 0 -1 0 I I #
point $-1 51.828974272896509 25.010362813367486 -5.403480985890452 #
straight-curve $-1 0 -25.010362813367486 -5.403480985890452 -1 0 0 I I #
point $-1 -51.828974272896509 -25.010362813367486 -5.403480985890452 #
point $-1 -51.828974272896509 25.010362813367486 -5.403480985890452 #
straight-curve $-1 0 25.010362813367486 -5.403480985890452 1 0 0 I I #
End-of-ACIS-data 