500 0 10 0           
7 Unknown 11 ACIS 5.0 NT 24 Fri Mar 26 17:42:28 1999 
-1 9.9999999999999995e-007 1e-010 
body $-1 $10 $-1 $11 #
body $-1 $12 $-1 $13 #
body $-1 $14 $-1 $15 #
body $-1 $16 $-1 $17 #
body $-1 $18 $-1 $19 #
body $-1 $20 $-1 $21 #
body $-1 $22 $-1 $23 #
body $-1 $24 $-1 $25 #
body $-1 $26 $-1 $27 #
body $-1 $28 $-1 $29 #
lump $-1 $-1 $30 $0 #
transform $-1 1 0 0 0 1 0 0 0 1 59.900509659108252 29.115373309692231 6.9048049230920254 1 rotate no_reflect no_shear #
lump $-1 $-1 $31 $1 #
transform $-1 1 0 0 0 1 0 0 0 1 59.900509659108252 29.115373309692231 6.9048049230920254 1 rotate no_reflect no_shear #
lump $-1 $-1 $32 $2 #
transform $-1 1 0 0 0 1 0 0 0 1 59.900509659108252 29.115373309692231 6.9048049230920254 1 rotate no_reflect no_shear #
lump $-1 $-1 $33 $3 #
transform $-1 1 0 0 0 1 0 0 0 1 59.900509659108252 29.115373309692231 6.9048049230920254 1 rotate no_reflect no_shear #
lump $-1 $-1 $34 $4 #
transform $-1 1 0 0 0 1 0 0 0 1 59.900509659108252 29.115373309692231 6.9048049230920254 1 rotate no_reflect no_shear #
lump $-1 $-1 $35 $5 #
transform $-1 1 0 0 0 1 0 0 0 1 59.900509659108252 29.115373309692231 6.9048049230920254 1 rotate no_reflect no_shear #
lump $-1 $-1 $36 $6 #
transform $-1 1 0 0 0 1 0 0 0 1 59.900509659108252 29.115373309692231 6.9048049230920254 1 rotate no_reflect no_shear #
lump $-1 $-1 $37 $7 #
transform $-1 1 0 0 0 1 0 0 0 1 59.900509659108252 29.115373309692231 6.9048049230920254 1 rotate no_reflect no_shear #
lump $-1 $-1 $38 $8 #
transform $-1 1 0 0 0 1 0 0 0 1 59.900509659108252 29.115373309692231 6.9048049230920254 1 rotate no_reflect no_shear #
lump $-1 $-1 $39 $9 #
transform $-1 1 0 0 0 1 0 0 0 1 59.900509659108252 29.115373309692231 6.9048049230920254 1 rotate no_reflect no_shear #
shell $-1 $-1 $-1 $40 $-1 $10 #
shell $-1 $-1 $-1 $41 $-1 $12 #
shell $-1 $-1 $-1 $42 $-1 $14 #
shell $-1 $-1 $-1 $43 $-1 $16 #
shell $-1 $-1 $-1 $44 $-1 $18 #
shell $-1 $-1 $-1 $45 $-1 $20 #
shell $-1 $-1 $-1 $46 $-1 $22 #
shell $-1 $-1 $-1 $47 $-1 $24 #
shell $-1 $-1 $-1 $48 $-1 $26 #
shell $-1 $-1 $-1 $49 $-1 $28 #
face $-1 $50 $51 $30 $-1 $52 forward single #
face $-1 $53 $54 $31 $-1 $55 forward single #
face $-1 $56 $57 $32 $-1 $58 reversed single #
face $-1 $59 $60 $33 $-1 $61 forward single #
face $-1 $62 $63 $34 $-1 $64 forward single #
face $-1 $65 $66 $35 $-1 $67 forward single #
face $-1 $68 $69 $36 $-1 $70 reversed single #
face $-1 $71 $72 $37 $-1 $73 forward single #
face $-1 $74 $75 $38 $-1 $76 forward single #
face $-1 $77 $78 $39 $-1 $79 forward single #
face $-1 $80 $81 $30 $-1 $82 reversed single #
loop $-1 $-1 $83 $40 #
plane-surface $-1 0 0 6.9048049230920254 0 0 1 1 0 0 forward_v I I I I #
face $-1 $84 $85 $31 $-1 $86 reversed single #
loop $-1 $-1 $87 $41 #
plane-surface $-1 -55.493542729737506 0 0.26372530599155475 0 0 1 1 0 0 forward_v I I I I #
face $-1 $88 $89 $32 $-1 $90 reversed single #
loop $-1 $-1 $91 $42 #
plane-surface $-1 -51.086575800366759 93.85084071097431 117.05898345228725 1 0 0 0 -0.81915205242281985 -0.57357642473473569 forward_v I I I I #
face $-1 $92 $93 $33 $-1 $94 forward single #
loop $-1 $95 $96 $43 #
cone-surface $-1 -48.814400847886368 26.358776681959437 3.3790469770777833 0 -0.81915205242281985 -0.57357642473473569 0.5 0 0 1 I I 0 1 0.5 forward I I I I #
face $-1 $97 $98 $34 $-1 $99 forward single #
loop $-1 $100 $101 $44 #
cone-surface $-1 -45.406138419165778 26.358776681959437 3.3790469770777833 0 -0.81915205242281985 -0.57357642473473569 0.5 0 0 1 I I 0 1 0.5 forward I I I I #
face $-1 $102 $103 $35 $-1 $104 forward single #
loop $-1 $105 $106 $45 #
cone-surface $-1 -41.997875990445188 26.358776681959437 3.3790469770777833 0 -0.81915205242281985 -0.57357642473473569 0.5 0 0 1 I I 0 1 0.5 forward I I I I #
face $-1 $107 $108 $36 $-1 $109 reversed single #
loop $-1 $-1 $110 $46 #
plane-surface $-1 -35.428749330030286 -131.80489059867605 65.349723396261368 -1 0 0 0 -0.85716730853699208 0.51503806187062418 forward_v I I I I #
face $-1 $111 $112 $37 $-1 $113 forward single #
loop $-1 $114 $115 $47 #
cone-surface $-1 -47.955010506299466 -27.708238201501178 5.0187027288516708 0 0.85716730853699208 -0.51503806187062418 0.25 0 0 1 I I 0 1 0.25 forward I I I I #
face $-1 $116 $117 $38 $-1 $118 forward single #
loop $-1 $119 $120 $48 #
cone-surface $-1 -43.257662565198522 -27.708238201501178 5.0187027288516708 0 0.85716730853699208 -0.51503806187062418 0.25 0 0 1 I I 0 1 0.25 forward I I I I #
face $-1 $121 $122 $39 $-1 $123 forward single #
loop $-1 $124 $125 $49 #
cone-surface $-1 -38.560314624097579 -27.708238201501178 5.0187027288516708 0 0.85716730853699208 -0.51503806187062418 0.25 0 0 1 I I 0 1 0.25 forward I I I I #
face $-1 $126 $127 $30 $-1 $128 reversed single #
loop $-1 $-1 $129 $50 #
plane-surface $-1 0 0 -6.9048049230920254 0 0 1 1 0 0 forward_v I I I I #
coedge $-1 $130 $131 $132 $133 forward $51 $-1 #
face $-1 $134 $135 $31 $-1 $136 reversed single #
loop $-1 $-1 $137 $53 #
plane-surface $-1 -55.493542729737506 0 -2.7362746940084453 0 0 1 1 0 0 forward_v I I I I #
coedge $-1 $138 $139 $140 $141 forward $54 $-1 #
face $-1 $142 $143 $32 $-1 $144 reversed single #
loop $-1 $-1 $145 $56 #
plane-surface $-1 -45.406138419165778 -4.2844101458886286 48.343943112167622 0 0.81915205242281985 0.57357642473473569 1 0 0 forward_v I I I I #
coedge $-1 $146 $147 $148 $149 reversed $57 $-1 #
face $-1 $-1 $150 $33 $-1 $151 forward single #
loop $-1 $152 $153 $59 #
cone-surface $-1 -48.814400847886368 25.589285738339314 2.840243634033027 0 -0.81915205242281985 -0.57357642473473569 0.25 0 0 1 I I -0.70710678118654746 0.70710678118654746 0.25 forward I I I I #
loop $-1 $-1 $154 $43 #
coedge $-1 $96 $96 $155 $156 reversed $60 $-1 #
face $-1 $-1 $157 $34 $-1 $158 forward single #
loop $-1 $159 $160 $62 #
cone-surface $-1 -45.406138419165778 25.589285738339314 2.840243634033027 0 -0.81915205242281985 -0.57357642473473569 0.25 0 0 1 I I -0.70710678118654746 0.70710678118654746 0.25 forward I I I I #
loop $-1 $-1 $161 $44 #
coedge $-1 $101 $101 $162 $163 reversed $63 $-1 #
face $-1 $-1 $164 $35 $-1 $165 forward single #
loop $-1 $166 $167 $65 #
cone-surface $-1 -41.997875990445188 25.589285738339314 2.840243634033027 0 -0.81915205242281985 -0.57357642473473569 0.25 0 0 1 I I -0.70710678118654746 0.70710678118654746 0.25 forward I I I I #
loop $-1 $-1 $168 $45 #
coedge $-1 $106 $106 $169 $170 reversed $66 $-1 #
face $-1 $171 $172 $36 $-1 $173 reversed single #
loop $-1 $-1 $174 $68 #
plane-surface $-1 -43.257662565198522 -29.115373309692217 3.6476385964819329 0 -0.85716730853699208 0.51503806187062418 1 0 0 forward_v I I I I #
coedge $-1 $175 $176 $177 $178 reversed $69 $-1 #
face $-1 $-1 $179 $37 $-1 $180 forward single #
loop $-1 $181 $182 $71 #
cone-surface $-1 -47.955010506299466 -27.172508633665558 4.696803940182531 0 0.85716730853699208 -0.51503806187062418 0.125 0 0 1 I I -0.70710678118654746 0.70710678118654746 0.125 forward I I I I #
loop $-1 $-1 $183 $47 #
coedge $-1 $115 $115 $184 $185 reversed $72 $-1 #
face $-1 $-1 $186 $38 $-1 $187 forward single #
loop $-1 $188 $189 $74 #
cone-surface $-1 -43.257662565198522 -27.172508633665558 4.696803940182531 0 0.85716730853699208 -0.51503806187062418 0.125 0 0 1 I I -0.70710678118654746 0.70710678118654746 0.125 forward I I I I #
loop $-1 $-1 $190 $48 #
coedge $-1 $120 $120 $191 $192 reversed $75 $-1 #
face $-1 $-1 $193 $39 $-1 $194 forward single #
loop $-1 $195 $196 $77 #
cone-surface $-1 -38.560314624097579 -27.172508633665558 4.696803940182531 0 0.85716730853699208 -0.51503806187062418 0.125 0 0 1 I I -0.70710678118654746 0.70710678118654746 0.125 forward I I I I #
loop $-1 $-1 $197 $49 #
coedge $-1 $125 $125 $198 $199 reversed $78 $-1 #
face $-1 $200 $201 $30 $-1 $202 reversed single #
loop $-1 $-1 $203 $80 #
plane-surface $-1 0 -29.115373309692231 0 0 1 0 0 0 1 forward_v I I I I #
coedge $-1 $204 $205 $206 $207 forward $81 $-1 #
coedge $-1 $208 $83 $209 $210 forward $51 $-1 #
coedge $-1 $83 $208 $211 $212 forward $51 $-1 #
coedge $-1 $213 $214 $83 $133 reversed $215 $-1 #
edge $-1 $216 -29.115373309692231 $217 29.115373309692231 $132 $218 forward 7 unknown #
face $-1 $219 $220 $31 $-1 $221 reversed single #
loop $-1 $-1 $222 $84 #
plane-surface $-1 -51.086575800366759 0 -1.2362746940084453 -1 0 0 0 0 1 forward_v I I I I #
coedge $-1 $223 $224 $225 $226 forward $85 $-1 #
coedge $-1 $227 $87 $228 $229 reversed $54 $-1 #
coedge $-1 $87 $227 $230 $231 reversed $54 $-1 #
coedge $-1 $222 $232 $87 $141 reversed $135 $-1 #
edge $-1 $233 -29.115373309692231 $234 29.115373309692231 $140 $235 forward 7 unknown #
face $-1 $236 $237 $32 $-1 $238 forward single #
loop $-1 $-1 $239 $88 #
plane-surface $-1 -39.725701037964797 93.85084071097431 117.05898345228725 -1 0 0 0 0.81915205242281985 0.57357642473473569 forward_v I I I I #
coedge $-1 $240 $241 $242 $243 reversed $89 $-1 #
coedge $-1 $147 $91 $244 $245 reversed $57 $-1 #
coedge $-1 $91 $146 $240 $246 reversed $57 $-1 #
coedge $-1 $242 $247 $91 $149 forward $237 $-1 #
edge $-1 $248 17.810047045794924 $249 22.193834440231701 $148 $250 forward 7 unknown #
loop $-1 $-1 $155 $92 #
plane-surface $-1 -45.406138419165778 -4.2844101458886286 48.343943112167622 0 0.81915205242281985 0.57357642473473569 1 0 0 forward_v I I I I #
loop $-1 $-1 $251 $59 #
coedge $-1 $153 $153 $154 $252 reversed $93 $-1 #
coedge $-1 $154 $154 $153 $252 forward $95 $-1 #
coedge $-1 $155 $155 $96 $156 forward $150 $-1 #
edge $-1 $253 1.5396549871058514e-016 $253 6.2831853071796004 $155 $254 forward 7 unknown #
loop $-1 $-1 $162 $97 #
plane-surface $-1 -45.406138419165778 -4.2844101458886286 48.343943112167622 0 0.81915205242281985 0.57357642473473569 1 0 0 forward_v I I I I #
loop $-1 $-1 $255 $62 #
coedge $-1 $160 $160 $161 $256 reversed $98 $-1 #
coedge $-1 $161 $161 $160 $256 forward $100 $-1 #
coedge $-1 $162 $162 $101 $163 forward $157 $-1 #
edge $-1 $257 1.5396549871058514e-016 $257 6.2831853071796004 $162 $258 forward 7 unknown #
loop $-1 $-1 $169 $102 #
plane-surface $-1 -45.406138419165778 -4.2844101458886286 48.343943112167622 0 0.81915205242281985 0.57357642473473569 1 0 0 forward_v I I I I #
loop $-1 $-1 $259 $65 #
coedge $-1 $167 $167 $168 $260 reversed $103 $-1 #
coedge $-1 $168 $168 $167 $260 forward $105 $-1 #
coedge $-1 $169 $169 $106 $170 forward $164 $-1 #
edge $-1 $261 1.5396549871058514e-016 $261 6.2831853071796004 $169 $262 forward 7 unknown #
face $-1 $263 $264 $36 $-1 $265 reversed single #
loop $-1 $-1 $266 $107 #
plane-surface $-1 -51.086575800366759 -131.80489059867605 65.349723396261368 1 0 0 0 0.85716730853699208 -0.51503806187062418 forward_v I I I I #
coedge $-1 $267 $268 $269 $270 reversed $108 $-1 #
coedge $-1 $176 $110 $271 $272 reversed $69 $-1 #
coedge $-1 $110 $175 $267 $273 reversed $69 $-1 #
coedge $-1 $269 $274 $110 $178 forward $275 $-1 #
edge $-1 $276 36.787071989645796 $277 38.744174897490929 $177 $278 forward 7 unknown #
loop $-1 $-1 $184 $111 #
plane-surface $-1 -43.257662565198522 -29.115373309692217 3.6476385964819329 0 -0.85716730853699208 0.51503806187062418 1 0 0 forward_v I I I I #
loop $-1 $-1 $279 $71 #
coedge $-1 $182 $182 $183 $280 reversed $112 $-1 #
coedge $-1 $183 $183 $182 $280 forward $114 $-1 #
coedge $-1 $184 $184 $115 $185 forward $179 $-1 #
edge $-1 $281 1.176175940429171e-015 $281 6.2831853071796013 $184 $282 forward 7 unknown #
loop $-1 $-1 $191 $116 #
plane-surface $-1 -43.257662565198522 -29.115373309692217 3.6476385964819329 0 -0.85716730853699208 0.51503806187062418 1 0 0 forward_v I I I I #
loop $-1 $-1 $283 $74 #
coedge $-1 $189 $189 $190 $284 reversed $117 $-1 #
coedge $-1 $190 $190 $189 $284 forward $119 $-1 #
coedge $-1 $191 $191 $120 $192 forward $186 $-1 #
edge $-1 $285 1.176175940429171e-015 $285 6.2831853071796013 $191 $286 forward 7 unknown #
loop $-1 $-1 $198 $121 #
plane-surface $-1 -43.257662565198522 -29.115373309692217 3.6476385964819329 0 -0.85716730853699208 0.51503806187062418 1 0 0 forward_v I I I I #
loop $-1 $-1 $287 $77 #
coedge $-1 $196 $196 $197 $288 reversed $122 $-1 #
coedge $-1 $197 $197 $196 $288 forward $124 $-1 #
coedge $-1 $198 $198 $125 $199 forward $193 $-1 #
edge $-1 $289 1.176175940429171e-015 $289 6.2831853071796013 $198 $290 forward 7 unknown #
face $-1 $291 $292 $30 $-1 $293 reversed single #
loop $-1 $-1 $294 $126 #
plane-surface $-1 -59.900509659108252 0 0 1 0 0 0 0 -1 forward_v I I I I #
coedge $-1 $295 $211 $296 $297 forward $127 $-1 #
coedge $-1 $298 $129 $295 $299 forward $81 $-1 #
coedge $-1 $129 $298 $300 $301 forward $81 $-1 #
coedge $-1 $214 $213 $129 $207 reversed $215 $-1 #
edge $-1 $302 -29.115373309692231 $303 29.115373309692231 $206 $304 forward 7 unknown #
coedge $-1 $131 $130 $305 $306 forward $51 $-1 #
coedge $-1 $307 $308 $130 $210 reversed $292 $-1 #
edge $-1 $217 -59.900509659108252 $309 59.900509659108252 $209 $310 forward 7 unknown #
coedge $-1 $203 $311 $131 $212 reversed $127 $-1 #
edge $-1 $312 -59.900509659108252 $216 59.900509659108252 $211 $313 forward 7 unknown #
coedge $-1 $206 $132 $311 $314 forward $215 $-1 #
coedge $-1 $132 $206 $307 $315 reversed $215 $-1 #
loop $-1 $-1 $213 $291 #
vertex $-1 $133 $316 #
vertex $-1 $133 $317 #
straight-curve $-1 59.900509659108252 0 6.9048049230920254 0 1 0 I I #
face $-1 $318 $319 $31 $-1 $320 reversed single #
loop $-1 $-1 $321 $134 #
plane-surface $-1 0 -29.115373309692231 0 0 1 0 0 0 1 forward_v I I I I #
coedge $-1 $225 $140 $322 $323 reversed $135 $-1 #
coedge $-1 $324 $137 $321 $325 reversed $85 $-1 #
coedge $-1 $137 $324 $326 $327 reversed $85 $-1 #
coedge $-1 $232 $222 $137 $226 reversed $135 $-1 #
edge $-1 $328 -29.115373309692231 $329 29.115373309692231 $225 $330 forward 7 unknown #
coedge $-1 $139 $138 $331 $332 reversed $54 $-1 #
coedge $-1 $333 $334 $138 $229 forward $335 $-1 #
edge $-1 $336 -32.153738294239503 $234 -23.339804435498007 $228 $337 forward 7 unknown #
coedge $-1 $338 $322 $139 $231 forward $220 $-1 #
edge $-1 $233 23.339804435498007 $339 32.153738294239503 $230 $340 forward 7 unknown #
coedge $-1 $140 $225 $333 $341 reversed $135 $-1 #
vertex $-1 $231 $342 #
vertex $-1 $229 $343 #
straight-curve $-1 -51.086575800366759 0 0.26372530599155475 0 1 0 I I #
face $-1 $-1 $344 $32 $-1 $345 reversed single #
loop $-1 $-1 $148 $142 #
plane-surface $-1 0 0 6.9048049230920254 0 0 1 1 0 0 forward_v I I I I #
coedge $-1 $346 $347 $348 $349 reversed $143 $-1 #
coedge $-1 $350 $145 $147 $246 forward $89 $-1 #
coedge $-1 $145 $350 $346 $351 forward $89 $-1 #
coedge $-1 $348 $148 $145 $243 forward $237 $-1 #
edge $-1 $249 -28.38350659078387 $352 -17.022631828381908 $242 $353 forward 7 unknown #
coedge $-1 $354 $355 $146 $245 forward $344 $-1 #
edge $-1 $356 -57.885384221358002 $248 -51.624686803051603 $244 $357 forward 7 unknown #
edge $-1 $249 50.587846379082322 $356 58.230746619384519 $147 $358 forward 7 unknown #
coedge $-1 $148 $348 $354 $359 forward $237 $-1 #
vertex $-1 $245 $360 #
vertex $-1 $149 $361 #
straight-curve $-1 -51.086575800366759 46.925420355487155 6.9048049230920228 0 -1 0 I I #
coedge $-1 $251 $251 $-1 $362 reversed $152 $-1 #
edge $-1 $363 0 $363 6.2831853071796004 $153 $364 forward 7 unknown #
vertex $-1 $156 $365 #
ellipse-curve $-1 -48.814400847886368 26.92347961247383 3.7744562139388385 0 0.81915205242281985 0.57357642473473569 0.5 0 0 1 I I #
coedge $-1 $255 $255 $-1 $366 reversed $159 $-1 #
edge $-1 $367 0 $367 6.2831853071796004 $160 $368 forward 7 unknown #
vertex $-1 $163 $369 #
ellipse-curve $-1 -45.406138419165778 26.92347961247383 3.7744562139388385 0 0.81915205242281985 0.57357642473473569 0.5 0 0 1 I I #
coedge $-1 $259 $259 $-1 $370 reversed $166 $-1 #
edge $-1 $371 0 $371 6.2831853071796004 $167 $372 forward 7 unknown #
vertex $-1 $170 $373 #
ellipse-curve $-1 -41.997875990445188 26.92347961247383 3.7744562139388385 0 0.81915205242281985 0.57357642473473569 0.5 0 0 1 I I #
face $-1 $-1 $275 $36 $-1 $374 forward single #
loop $-1 $-1 $375 $171 #
plane-surface $-1 0 -29.115373309692231 0 0 1 0 0 0 1 forward_v I I I I #
coedge $-1 $376 $377 $378 $379 reversed $172 $-1 #
coedge $-1 $380 $174 $176 $273 forward $108 $-1 #
coedge $-1 $174 $380 $376 $381 forward $108 $-1 #
coedge $-1 $378 $177 $174 $270 forward $275 $-1 #
edge $-1 $277 13.799918047431024 $382 29.457744517767498 $269 $383 forward 7 unknown #
coedge $-1 $384 $385 $175 $272 forward $264 $-1 #
edge $-1 $386 -29.027223101648776 $276 -25.770056775038658 $271 $387 forward 7 unknown #
edge $-1 $277 -3.7999189821756079 $386 2.7494044966190042e-014 $176 $388 forward 7 unknown #
coedge $-1 $177 $378 $384 $389 forward $275 $-1 #
loop $-1 $-1 $378 $263 #
vertex $-1 $272 $390 #
vertex $-1 $178 $391 #
straight-curve $-1 -35.428749330030286 -65.902445299338027 6.9048049230920263 0 1 0 I I #
coedge $-1 $279 $279 $-1 $392 reversed $181 $-1 #
edge $-1 $393 0 $393 6.2831853071796004 $182 $394 forward 7 unknown #
vertex $-1 $185 $395 #
ellipse-curve $-1 -47.955010506299466 -28.136821855769661 5.2762217597869743 0 -0.85716730853699208 0.51503806187062418 0.25 0 0 1 I I #
coedge $-1 $283 $283 $-1 $396 reversed $188 $-1 #
edge $-1 $397 0 $397 6.2831853071796004 $189 $398 forward 7 unknown #
vertex $-1 $192 $399 #
ellipse-curve $-1 -43.257662565198522 -28.136821855769661 5.2762217597869743 0 -0.85716730853699208 0.51503806187062418 0.25 0 0 1 I I #
coedge $-1 $287 $287 $-1 $400 reversed $195 $-1 #
edge $-1 $401 0 $401 6.2831853071796004 $196 $402 forward 7 unknown #
vertex $-1 $199 $403 #
ellipse-curve $-1 -38.560314624097579 -28.136821855769661 5.2762217597869743 0 -0.85716730853699208 0.51503806187062418 0.25 0 0 1 I I #
face $-1 $-1 $215 $30 $-1 $404 reversed single #
loop $-1 $-1 $307 $200 #
plane-surface $-1 0 29.115373309692231 0 0 -1 0 0 0 -1 forward_v I I I I #
coedge $-1 $405 $305 $308 $406 forward $201 $-1 #
coedge $-1 $311 $203 $204 $299 reversed $127 $-1 #
coedge $-1 $305 $405 $203 $297 reversed $201 $-1 #
edge $-1 $312 -6.9048049230920254 $407 6.9048049230920254 $296 $408 forward 7 unknown #
coedge $-1 $205 $204 $405 $409 forward $81 $-1 #
edge $-1 $303 -59.900509659108252 $407 59.900509659108252 $295 $410 forward 7 unknown #
coedge $-1 $308 $307 $205 $301 reversed $292 $-1 #
edge $-1 $411 -59.900509659108252 $302 59.900509659108252 $300 $412 forward 7 unknown #
vertex $-1 $207 $413 #
vertex $-1 $314 $414 #
straight-curve $-1 59.900509659108252 0 -6.9048049230920254 0 -1 0 I I #
coedge $-1 $294 $296 $208 $306 reversed $201 $-1 #
edge $-1 $309 -29.115373309692231 $312 29.115373309692231 $305 $415 forward 7 unknown #
coedge $-1 $300 $209 $214 $315 forward $292 $-1 #
coedge $-1 $209 $300 $294 $406 reversed $292 $-1 #
vertex $-1 $210 $416 #
straight-curve $-1 0 29.115373309692231 6.9048049230920254 -1 0 0 I I #
coedge $-1 $211 $295 $213 $314 reversed $127 $-1 #
vertex $-1 $306 $417 #
straight-curve $-1 0 -29.115373309692231 6.9048049230920254 1 0 0 I I #
edge $-1 $216 -6.9048049230920254 $303 6.9048049230920254 $213 $418 forward 7 unknown #
edge $-1 $217 -6.9048049230920254 $302 6.9048049230920254 $214 $419 forward 7 unknown #
point $-1 59.900509659108252 -29.115373309692231 6.9048049230920254 #
point $-1 59.900509659108252 29.115373309692231 6.9048049230920254 #
face $-1 $-1 $335 $31 $-1 $420 reversed single #
loop $-1 $-1 $421 $219 #
plane-surface $-1 -59.900509659108252 0 0 1 0 0 0 0 -1 forward_v I I I I #
coedge $-1 $322 $338 $223 $325 forward $220 $-1 #
coedge $-1 $230 $321 $222 $323 forward $220 $-1 #
edge $-1 $329 -2.1181373470042226 $233 0.88186265299577737 $322 $422 forward 7 unknown #
coedge $-1 $224 $223 $421 $423 reversed $85 $-1 #
edge $-1 $424 -32.153738294239503 $329 -23.339804435498007 $321 $425 forward 7 unknown #
coedge $-1 $334 $333 $224 $327 forward $335 $-1 #
edge $-1 $328 23.339804435498007 $426 32.153738294239503 $326 $427 forward 7 unknown #
vertex $-1 $327 $428 #
vertex $-1 $325 $429 #
straight-curve $-1 -51.086575800366759 0 -2.7362746940084453 0 -1 0 I I #
coedge $-1 $430 $431 $227 $332 forward $319 $-1 #
edge $-1 $339 -29.115373309692231 $336 29.115373309692231 $331 $432 forward 7 unknown #
coedge $-1 $326 $228 $232 $341 forward $335 $-1 #
coedge $-1 $228 $326 $430 $433 reversed $335 $-1 #
loop $-1 $-1 $326 $318 #
vertex $-1 $433 $434 #
straight-curve $-1 -27.746771364868753 29.115373309692231 0.26372530599155475 1 0 0 I I #
coedge $-1 $321 $230 $431 $435 forward $220 $-1 #
vertex $-1 $435 $436 #
straight-curve $-1 -27.746771364868753 -29.115373309692231 0.26372530599155475 -1 0 0 I I #
edge $-1 $234 -0.88186265299577737 $328 2.1181373470042226 $333 $437 forward 7 unknown #
point $-1 -51.086575800366759 -29.115373309692231 0.26372530599155475 #
point $-1 -51.086575800366759 29.115373309692231 0.26372530599155475 #
loop $-1 $-1 $244 $236 #
plane-surface $-1 0 29.115373309692231 0 0 -1 0 0 0 -1 forward_v I I I I #
coedge $-1 $347 $239 $241 $351 reversed $143 $-1 #
coedge $-1 $239 $346 $438 $439 reversed $143 $-1 #
coedge $-1 $247 $242 $239 $349 forward $237 $-1 #
edge $-1 $352 -22.193834440231701 $440 -17.810047045794924 $348 $441 forward 7 unknown #
coedge $-1 $241 $240 $355 $442 reversed $89 $-1 #
edge $-1 $443 -58.230746619384519 $352 -50.587846379082322 $346 $444 forward 7 unknown #
vertex $-1 $243 $445 #
straight-curve $-1 -22.703069209582889 24.731585915255454 6.9048049230920263 1 0 0 I I #
coedge $-1 $438 $244 $247 $359 reversed $344 $-1 #
coedge $-1 $244 $438 $350 $442 forward $344 $-1 #
vertex $-1 $245 $446 #
straight-curve $-1 -51.086575800366759 29.115373309692231 58.529491726143625 0 0 1 I I #
straight-curve $-1 -51.086575800366759 -4.2844101458886286 48.343943112167622 0 0.57357642473473569 -0.81915205242281985 I I #
edge $-1 $440 39.725701037964797 $248 51.086575800366759 $354 $447 forward 7 unknown #
point $-1 -51.086575800366759 29.115373309692231 6.9048049230920254 #
point $-1 -51.086575800366759 24.731585915255454 6.9048049230920228 #
edge $-1 $448 1 $448 0 $251 $-1 forward 7 unknown #
vertex $-1 $252 $449 #
ellipse-curve $-1 -48.814400847886368 25.794073751445019 2.9836377402167109 0 0.81915205242281985 0.57357642473473569 0.5 0 0 1 I I #
point $-1 -48.314400847886368 26.923479612473855 3.7744562139388558 #
edge $-1 $450 1 $450 0 $255 $-1 forward 7 unknown #
vertex $-1 $256 $451 #
ellipse-curve $-1 -45.406138419165778 25.794073751445019 2.9836377402167109 0 0.81915205242281985 0.57357642473473569 0.5 0 0 1 I I #
point $-1 -44.906138419165778 26.923479612473855 3.7744562139388558 #
edge $-1 $452 1 $452 0 $259 $-1 forward 7 unknown #
vertex $-1 $260 $453 #
ellipse-curve $-1 -41.997875990445188 25.794073751445019 2.9836377402167109 0 0.81915205242281985 0.57357642473473569 0.5 0 0 1 I I #
point $-1 -41.497875990445188 26.923479612473855 3.7744562139388558 #
plane-surface $-1 0 0 6.9048049230920254 0 0 1 1 0 0 forward_v I I I I #
coedge $-1 $385 $384 $377 $454 forward $264 $-1 #
coedge $-1 $377 $266 $268 $381 reversed $172 $-1 #
coedge $-1 $266 $376 $375 $454 reversed $172 $-1 #
coedge $-1 $274 $269 $266 $379 forward $275 $-1 #
edge $-1 $382 -38.744174897490929 $455 -36.787071989645796 $378 $456 forward 7 unknown #
coedge $-1 $268 $267 $385 $457 reversed $108 $-1 #
edge $-1 $458 -2.7494044966190042e-014 $382 3.7999189821756079 $376 $459 forward 7 unknown #
vertex $-1 $270 $460 #
straight-curve $-1 -21.628831282599261 -27.158270401847094 6.9048049230920254 -1 0 0 I I #
coedge $-1 $375 $271 $274 $389 reversed $264 $-1 #
coedge $-1 $271 $375 $380 $457 forward $264 $-1 #
vertex $-1 $272 $461 #
straight-curve $-1 -35.428749330030286 -29.115373309692231 32.674861698130684 0 0 1 I I #
straight-curve $-1 -35.428749330030286 -29.115373309692217 3.6476385964819329 0 -0.51503806187062418 -0.85716730853699208 I I #
edge $-1 $455 -51.086575800366759 $276 -35.428749330030286 $384 $462 forward 7 unknown #
point $-1 -35.428749330030286 -29.115373309692231 6.9048049230920254 #
point $-1 -35.428749330030286 -27.158270401847098 6.9048049230920254 #
edge $-1 $463 1 $463 0 $279 $-1 forward 7 unknown #
vertex $-1 $280 $464 #
ellipse-curve $-1 -47.955010506299466 -27.279654547232681 4.7611836979163593 0 -0.85716730853699208 0.51503806187062418 0.25 0 0 1 I I #
point $-1 -47.705010506299466 -28.136821855769675 5.2762217597869832 #
edge $-1 $465 1 $465 0 $283 $-1 forward 7 unknown #
vertex $-1 $284 $466 #
ellipse-curve $-1 -43.257662565198522 -27.279654547232681 4.7611836979163593 0 -0.85716730853699208 0.51503806187062418 0.25 0 0 1 I I #
point $-1 -43.007662565198522 -28.136821855769675 5.2762217597869832 #
edge $-1 $467 1 $467 0 $287 $-1 forward 7 unknown #
vertex $-1 $288 $468 #
ellipse-curve $-1 -38.560314624097579 -27.279654547232681 4.7611836979163593 0 -0.85716730853699208 0.51503806187062418 0.25 0 0 1 I I #
point $-1 -38.310314624097579 -28.136821855769675 5.2762217597869832 #
plane-surface $-1 59.900509659108252 0 0 -1 0 0 0 0 1 forward_v I I I I #
coedge $-1 $296 $294 $298 $409 reversed $201 $-1 #
edge $-1 $309 -6.9048049230920254 $411 6.9048049230920254 $308 $469 forward 7 unknown #
vertex $-1 $409 $470 #
straight-curve $-1 -59.900509659108252 -29.115373309692231 0 0 0 -1 I I #
edge $-1 $407 -29.115373309692231 $411 29.115373309692231 $405 $471 forward 7 unknown #
straight-curve $-1 0 -29.115373309692231 -6.9048049230920254 -1 0 0 I I #
vertex $-1 $301 $472 #
straight-curve $-1 0 29.115373309692231 -6.9048049230920254 1 0 0 I I #
point $-1 59.900509659108252 29.115373309692231 -6.9048049230920254 #
point $-1 59.900509659108252 -29.115373309692231 -6.9048049230920254 #
straight-curve $-1 -59.900509659108252 0 6.9048049230920254 0 -1 0 I I #
point $-1 -59.900509659108252 29.115373309692231 6.9048049230920254 #
point $-1 -59.900509659108252 -29.115373309692231 6.9048049230920254 #
straight-curve $-1 59.900509659108252 -29.115373309692231 0 0 0 -1 I I #
straight-curve $-1 59.900509659108252 29.115373309692231 0 0 0 -1 I I #
plane-surface $-1 0 29.115373309692231 0 0 -1 0 0 0 -1 forward_v I I I I #
coedge $-1 $431 $430 $324 $423 forward $319 $-1 #
straight-curve $-1 -51.086575800366759 -29.115373309692231 -0.61813734700422263 0 0 1 I I #
edge $-1 $426 -29.115373309692231 $424 29.115373309692231 $421 $473 forward 7 unknown #
vertex $-1 $325 $474 #
straight-curve $-1 -27.746771364868753 -29.115373309692231 -2.7362746940084453 1 0 0 I I #
vertex $-1 $327 $475 #
straight-curve $-1 -27.746771364868753 29.115373309692231 -2.7362746940084453 -1 0 0 I I #
point $-1 -51.086575800366759 29.115373309692231 -2.7362746940084453 #
point $-1 -51.086575800366759 -29.115373309692231 -2.7362746940084453 #
coedge $-1 $421 $331 $334 $433 forward $319 $-1 #
coedge $-1 $331 $421 $338 $435 reversed $319 $-1 #
straight-curve $-1 -59.900509659108252 0 0.26372530599155475 0 1 0 I I #
edge $-1 $336 -0.26372530599155475 $426 2.7362746940084453 $334 $476 forward 7 unknown #
point $-1 -59.900509659108252 29.115373309692231 0.26372530599155475 #
edge $-1 $339 -0.26372530599155475 $424 2.7362746940084453 $431 $477 forward 7 unknown #
point $-1 -59.900509659108252 -29.115373309692231 0.26372530599155475 #
straight-curve $-1 -51.086575800366759 29.115373309692231 -0.61813734700422263 0 0 -1 I I #
coedge $-1 $355 $354 $347 $439 forward $344 $-1 #
edge $-1 $440 51.624686803051603 $443 57.885384221358002 $438 $478 forward 7 unknown #
vertex $-1 $359 $479 #
straight-curve $-1 -39.725701037964797 46.925420355487155 6.9048049230920228 0 1 0 I I #
edge $-1 $443 17.022631828381908 $356 28.38350659078387 $355 $480 forward 7 unknown #
vertex $-1 $442 $481 #
straight-curve $-1 -39.725701037964797 -4.2844101458886286 48.343943112167622 0 -0.57357642473473569 0.81915205242281985 I I #
point $-1 -39.725701037964797 24.731585915255454 6.9048049230920228 #
point $-1 -51.086575800366759 29.115373309692231 0.64410750478562306 #
straight-curve $-1 0 29.115373309692231 6.9048049230920254 -1 0 0 I I #
vertex $-1 $362 $482 #
point $-1 -48.314400847886368 25.794073751445019 2.9836377402167109 #
vertex $-1 $366 $483 #
point $-1 -44.906138419165778 25.794073751445019 2.9836377402167109 #
vertex $-1 $370 $484 #
point $-1 -41.497875990445188 25.794073751445019 2.9836377402167109 #
edge $-1 $455 25.770056775038658 $458 29.027223101648776 $375 $485 forward 7 unknown #
vertex $-1 $389 $486 #
straight-curve $-1 -51.086575800366759 -65.902445299338027 6.9048049230920263 0 -1 0 I I #
edge $-1 $458 -29.457744517767498 $386 -13.799918047431024 $385 $487 forward 7 unknown #
vertex $-1 $457 $488 #
straight-curve $-1 -51.086575800366759 -29.115373309692217 3.6476385964819329 0 0.51503806187062418 0.85716730853699208 I I #
point $-1 -51.086575800366759 -27.158270401847098 6.9048049230920254 #
point $-1 -35.428749330030286 -29.115373309692231 3.6476385964819094 #
straight-curve $-1 0 -29.115373309692231 6.9048049230920254 1 0 0 I I #
vertex $-1 $392 $489 #
point $-1 -47.705010506299466 -27.279654547232681 4.7611836979163593 #
vertex $-1 $396 $490 #
point $-1 -43.007662565198522 -27.279654547232681 4.7611836979163593 #
vertex $-1 $400 $491 #
point $-1 -38.310314624097579 -27.279654547232681 4.7611836979163593 #
straight-curve $-1 -59.900509659108252 29.115373309692231 0 0 0 -1 I I #
point $-1 -59.900509659108252 -29.115373309692231 -6.9048049230920254 #
straight-curve $-1 -59.900509659108252 0 -6.9048049230920254 0 1 0 I I #
point $-1 -59.900509659108252 29.115373309692231 -6.9048049230920254 #
straight-curve $-1 -59.900509659108252 0 -2.7362746940084453 0 -1 0 I I #
point $-1 -59.900509659108252 -29.115373309692231 -2.7362746940084453 #
point $-1 -59.900509659108252 29.115373309692231 -2.7362746940084453 #
straight-curve $-1 -59.900509659108252 29.115373309692231 0 0 0 -1 I I #
straight-curve $-1 -59.900509659108252 -29.115373309692231 0 0 0 -1 I I #
straight-curve $-1 -39.725701037964797 29.115373309692231 58.529491726143625 0 0 -1 I I #
point $-1 -39.725701037964797 29.115373309692231 6.9048049230920254 #
straight-curve $-1 -22.703069209582889 29.115373309692231 0.64410750478562306 -1 0 0 I I #
point $-1 -39.725701037964797 29.115373309692231 0.64410750478562306 #
point $-1 -48.814400847886368 25.384497725233608 2.6968495278493432 #
point $-1 -45.406138419165778 25.384497725233608 2.6968495278493432 #
point $-1 -41.997875990445188 25.384497725233608 2.6968495278493432 #
straight-curve $-1 -51.086575800366759 -29.115373309692231 32.674861698130684 0 0 -1 I I #
point $-1 -51.086575800366759 -29.115373309692231 6.9048049230920254 #
straight-curve $-1 -21.628831282599261 -29.115373309692231 3.6476385964819098 1 0 0 I I #
point $-1 -51.086575800366759 -29.115373309692231 3.6476385964819094 #
point $-1 -47.955010506299466 -27.065362720098435 4.6324241824487027 #
point $-1 -43.257662565198522 -27.065362720098435 4.6324241824487027 #
point $-1 -38.560314624097579 -27.065362720098435 4.6324241824487027 #
End-of-ACIS-data 