500 0 18 0           
7 Unknown 11 ACIS 5.0 NT 24 Fri Mar 26 02:24:25 1999 
-1 9.9999999999999995e-007 1e-010 
body $-1 $18 $-1 $19 #
body $-1 $20 $-1 $21 #
body $-1 $22 $-1 $23 #
body $-1 $24 $-1 $25 #
body $-1 $26 $-1 $27 #
body $-1 $28 $-1 $29 #
body $-1 $30 $-1 $31 #
body $-1 $32 $-1 $33 #
body $-1 $34 $-1 $35 #
body $-1 $36 $-1 $37 #
body $-1 $38 $-1 $39 #
body $-1 $40 $-1 $41 #
body $-1 $42 $-1 $43 #
body $-1 $44 $-1 $45 #
body $-1 $46 $-1 $47 #
body $-1 $48 $-1 $49 #
body $-1 $50 $-1 $51 #
body $-1 $52 $-1 $53 #
lump $-1 $-1 $54 $0 #
transform $-1 1 0 0 0 1 0 0 0 1 51.149021881771297 26.230908038614608 6.7923218032177877 1 rotate no_reflect no_shear #
lump $-1 $-1 $55 $1 #
transform $-1 1 0 0 0 1 0 0 0 1 51.149021881771297 26.230908038614608 6.7923218032177877 1 rotate no_reflect no_shear #
lump $-1 $-1 $56 $2 #
transform $-1 1 0 0 0 1 0 0 0 1 51.149021881771297 26.230908038614608 6.7923218032177877 1 rotate no_reflect no_shear #
lump $-1 $-1 $57 $3 #
transform $-1 1 0 0 0 1 0 0 0 1 51.149021881771297 26.230908038614608 6.7923218032177877 1 rotate no_reflect no_shear #
lump $-1 $-1 $58 $4 #
transform $-1 1 0 0 0 1 0 0 0 1 51.149021881771297 26.230908038614608 6.7923218032177877 1 rotate no_reflect no_shear #
lump $-1 $-1 $59 $5 #
transform $-1 1 0 0 0 1 0 0 0 1 51.149021881771297 26.230908038614608 6.7923218032177877 1 rotate no_reflect no_shear #
lump $-1 $-1 $60 $6 #
transform $-1 1 0 0 0 1 0 0 0 1 51.149021881771297 26.230908038614608 6.7923218032177877 1 rotate no_reflect no_shear #
lump $-1 $-1 $61 $7 #
transform $-1 1 0 0 0 1 0 0 0 1 51.149021881771297 26.230908038614608 6.7923218032177877 1 rotate no_reflect no_shear #
lump $-1 $-1 $62 $8 #
transform $-1 1 0 0 0 1 0 0 0 1 51.149021881771297 26.230908038614608 6.7923218032177877 1 rotate no_reflect no_shear #
lump $-1 $-1 $63 $9 #
transform $-1 1 0 0 0 1 0 0 0 1 51.149021881771297 26.230908038614608 6.7923218032177877 1 rotate no_reflect no_shear #
lump $-1 $-1 $64 $10 #
transform $-1 1 0 0 0 1 0 0 0 1 51.149021881771297 26.230908038614608 6.7923218032177877 1 rotate no_reflect no_shear #
lump $-1 $-1 $65 $11 #
transform $-1 1 0 0 0 1 0 0 0 1 51.149021881771297 26.230908038614608 6.7923218032177877 1 rotate no_reflect no_shear #
lump $-1 $-1 $66 $12 #
transform $-1 1 0 0 0 1 0 0 0 1 51.149021881771297 26.230908038614608 6.7923218032177877 1 rotate no_reflect no_shear #
lump $-1 $-1 $67 $13 #
transform $-1 1 0 0 0 1 0 0 0 1 51.149021881771297 26.230908038614608 6.7923218032177877 1 rotate no_reflect no_shear #
lump $-1 $-1 $68 $14 #
transform $-1 1 0 0 0 1 0 0 0 1 51.149021881771297 26.230908038614608 6.7923218032177877 1 rotate no_reflect no_shear #
lump $-1 $-1 $69 $15 #
transform $-1 1 0 0 0 1 0 0 0 1 51.149021881771297 26.230908038614608 6.7923218032177877 1 rotate no_reflect no_shear #
lump $-1 $-1 $70 $16 #
transform $-1 1 0 0 0 1 0 0 0 1 51.149021881771297 26.230908038614608 6.7923218032177877 1 rotate no_reflect no_shear #
lump $-1 $-1 $71 $17 #
transform $-1 1 0 0 0 1 0 0 0 1 51.149021881771297 26.230908038614608 6.7923218032177877 1 rotate no_reflect no_shear #
shell $-1 $-1 $-1 $72 $-1 $18 #
shell $-1 $-1 $-1 $73 $-1 $20 #
shell $-1 $-1 $-1 $74 $-1 $22 #
shell $-1 $-1 $-1 $75 $-1 $24 #
shell $-1 $-1 $-1 $76 $-1 $26 #
shell $-1 $-1 $-1 $77 $-1 $28 #
shell $-1 $-1 $-1 $78 $-1 $30 #
shell $-1 $-1 $-1 $79 $-1 $32 #
shell $-1 $-1 $-1 $80 $-1 $34 #
shell $-1 $-1 $-1 $81 $-1 $36 #
shell $-1 $-1 $-1 $82 $-1 $38 #
shell $-1 $-1 $-1 $83 $-1 $40 #
shell $-1 $-1 $-1 $84 $-1 $42 #
shell $-1 $-1 $-1 $85 $-1 $44 #
shell $-1 $-1 $-1 $86 $-1 $46 #
shell $-1 $-1 $-1 $87 $-1 $48 #
shell $-1 $-1 $-1 $88 $-1 $50 #
shell $-1 $-1 $-1 $89 $-1 $52 #
face $-1 $90 $91 $54 $-1 $92 forward single #
face $-1 $93 $94 $55 $-1 $95 reversed single #
face $-1 $96 $97 $56 $-1 $98 reversed single #
face $-1 $99 $100 $57 $-1 $101 forward single #
face $-1 $102 $103 $58 $-1 $104 forward single #
face $-1 $105 $106 $59 $-1 $107 reversed single #
face $-1 $108 $109 $60 $-1 $110 forward single #
face $-1 $111 $112 $61 $-1 $113 forward single #
face $-1 $114 $115 $62 $-1 $116 reversed single #
face $-1 $117 $118 $63 $-1 $119 forward single #
face $-1 $120 $121 $64 $-1 $122 forward single #
face $-1 $123 $124 $65 $-1 $125 reversed single #
face $-1 $126 $127 $66 $-1 $128 forward single #
face $-1 $129 $130 $67 $-1 $131 forward single #
face $-1 $132 $133 $68 $-1 $134 reversed single #
face $-1 $135 $136 $69 $-1 $137 forward single #
face $-1 $138 $139 $70 $-1 $140 reversed single #
face $-1 $141 $142 $71 $-1 $143 forward single #
face $-1 $144 $145 $54 $-1 $146 reversed single #
loop $-1 $-1 $147 $72 #
plane-surface $-1 0 0 6.7923218032177877 0 0 1 1 0 0 forward_v I I I I #
face $-1 $148 $149 $55 $-1 $150 reversed single #
loop $-1 $-1 $151 $73 #
plane-surface $-1 -47.815587399354079 0 3.7923218032177877 0 0 1 1 0 0 forward_v I I I I #
face $-1 $152 $153 $56 $-1 $154 reversed single #
loop $-1 $-1 $155 $74 #
plane-surface $-1 -36.381360341173618 -3.8599528620538024 43.51503868302224 0 0.81915205242281985 0.57357642473473569 1 0 0 forward_v I I I I #
face $-1 $156 $157 $57 $-1 $158 forward single #
loop $-1 $159 $160 $75 #
cone-surface $-1 -39.853128587929291 22.862578088428975 2.840570794395596 0 -0.81915205242281985 -0.57357642473473569 1.5 0 0 1 I I 0 1 1.5 forward I I I I #
face $-1 $161 $162 $58 $-1 $163 forward single #
loop $-1 $164 $165 $76 #
cone-surface $-1 -32.909592094417945 22.862578088428975 2.840570794395596 0 -0.81915205242281985 -0.57357642473473569 1.5 0 0 1 I I 0 1 1.5 forward I I I I #
face $-1 $166 $167 $59 $-1 $168 reversed single #
loop $-1 $-1 $169 $77 #
plane-surface $-1 -20.574359217259826 79.937699645691566 102.19078488227252 1 0 0 0 -0.81915205242281985 -0.57357642473473569 forward_v I I I I #
face $-1 $170 $171 $60 $-1 $172 forward single #
loop $-1 $173 $174 $78 #
cone-surface $-1 -15.945334888252255 22.862578088428975 2.840570794395596 0 -0.81915205242281985 -0.57357642473473569 1.5 0 0 1 I I 0 1 1.5 forward I I I I #
face $-1 $175 $176 $61 $-1 $177 forward single #
loop $-1 $178 $179 $79 #
cone-surface $-1 -9.0017983947409022 22.862578088428975 2.840570794395596 0 -0.81915205242281985 -0.57357642473473569 1.5 0 0 1 I I 0 1 1.5 forward I I I I #
face $-1 $180 $181 $62 $-1 $182 reversed single #
loop $-1 $-1 $183 $80 #
plane-surface $-1 3.333434482417216 79.937699645691566 102.19078488227252 1 0 0 0 -0.81915205242281985 -0.57357642473473569 forward_v I I I I #
face $-1 $184 $185 $63 $-1 $186 forward single #
loop $-1 $187 $188 $81 #
cone-surface $-1 7.9624588114247885 22.862578088428975 2.840570794395596 0 -0.81915205242281985 -0.57357642473473569 1.5 0 0 1 I I 0 1 1.5 forward I I I I #
face $-1 $189 $190 $64 $-1 $191 forward single #
loop $-1 $192 $193 $82 #
cone-surface $-1 14.905995304936134 22.862578088428975 2.840570794395596 0 -0.81915205242281985 -0.57357642473473569 1.5 0 0 1 I I 0 1 1.5 forward I I I I #
face $-1 $194 $195 $65 $-1 $196 reversed single #
loop $-1 $-1 $197 $83 #
plane-surface $-1 27.241228182094261 79.937699645691566 102.19078488227252 1 0 0 0 -0.81915205242281985 -0.57357642473473569 forward_v I I I I #
face $-1 $198 $199 $66 $-1 $200 forward single #
loop $-1 $201 $202 $84 #
cone-surface $-1 31.870252511101832 22.862578088428975 2.840570794395596 0 -0.81915205242281985 -0.57357642473473569 1.5 0 0 1 I I 0 1 1.5 forward I I I I #
face $-1 $203 $204 $67 $-1 $205 forward single #
loop $-1 $206 $207 $85 #
cone-surface $-1 38.813789004613177 22.862578088428975 2.840570794395596 0 -0.81915205242281985 -0.57357642473473569 1.5 0 0 1 I I 0 1 1.5 forward I I I I #
face $-1 $208 $209 $68 $-1 $210 reversed single #
loop $-1 $-1 $211 $86 #
plane-surface $-1 -23.597032149506077 -104.59575685332555 66.653099557014684 -1 0 0 0 -0.7660444514056185 0.64278759981090561 forward_v I I I I #
face $-1 $212 $213 $69 $-1 $214 forward single #
loop $-1 $215 $216 $87 #
cone-surface $-1 -32.021123879550366 -23.068715329872351 3.2667068106803416 0 0.7660444514056185 -0.64278759981090561 1.5 0 0 1 I I 0 1 1.5 forward I I I I #
face $-1 $217 $218 $70 $-1 $219 reversed single #
loop $-1 $-1 $220 $88 #
plane-surface $-1 47.11208457442909 -104.59575685332555 66.653099557014684 -1 0 0 0 -0.7660444514056185 0.64278759981090561 forward_v I I I I #
face $-1 $221 $222 $71 $-1 $223 forward single #
loop $-1 $224 $225 $89 #
cone-surface $-1 38.687992844384802 -23.068715329872351 3.2667068106803416 0 0.7660444514056185 -0.64278759981090561 1.5 0 0 1 I I 0 1 1.5 forward I I I I #
face $-1 $226 $227 $54 $-1 $228 reversed single #
loop $-1 $-1 $229 $90 #
plane-surface $-1 0 0 -6.7923218032177877 0 0 1 1 0 0 forward_v I I I I #
coedge $-1 $230 $231 $232 $233 forward $91 $-1 #
face $-1 $234 $235 $55 $-1 $236 reversed single #
loop $-1 $-1 $237 $93 #
plane-surface $-1 -44.482152916936862 0 5.2923218032177877 -1 0 0 0 0 1 forward_v I I I I #
coedge $-1 $238 $239 $240 $241 forward $94 $-1 #
face $-1 $242 $243 $56 $-1 $244 forward single #
loop $-1 $-1 $245 $96 #
plane-surface $-1 -28.280567765410375 79.937699645691566 102.19078488227252 -1 0 0 0 0.81915205242281985 0.57357642473473569 forward_v I I I I #
coedge $-1 $246 $247 $248 $249 reversed $97 $-1 #
face $-1 $-1 $250 $57 $-1 $251 forward single #
loop $-1 $252 $253 $99 #
cone-surface $-1 -39.853128587929291 21.068553345913067 1.5843811838655251 0 -0.81915205242281985 -0.57357642473473569 0.75 0 0 1 I I -0.70710678118654757 0.70710678118654757 0.75 forward I I I I #
loop $-1 $-1 $254 $75 #
coedge $-1 $160 $160 $255 $256 reversed $100 $-1 #
face $-1 $-1 $257 $58 $-1 $258 forward single #
loop $-1 $259 $260 $102 #
cone-surface $-1 -32.909592094417945 21.068553345913067 1.5843811838655251 0 -0.81915205242281985 -0.57357642473473569 0.75 0 0 1 I I -0.70710678118654757 0.70710678118654757 0.75 forward I I I I #
loop $-1 $-1 $261 $76 #
coedge $-1 $165 $165 $262 $263 reversed $103 $-1 #
face $-1 $264 $265 $59 $-1 $266 reversed single #
loop $-1 $-1 $267 $105 #
plane-surface $-1 -12.473566641496582 -3.8599528620538024 43.51503868302224 0 0.81915205242281985 0.57357642473473569 1 0 0 forward_v I I I I #
coedge $-1 $268 $269 $270 $271 reversed $106 $-1 #
face $-1 $-1 $272 $60 $-1 $273 forward single #
loop $-1 $274 $275 $108 #
cone-surface $-1 -15.945334888252255 21.068553345913067 1.5843811838655251 0 -0.81915205242281985 -0.57357642473473569 0.75 0 0 1 I I -0.70710678118654757 0.70710678118654757 0.75 forward I I I I #
loop $-1 $-1 $276 $78 #
coedge $-1 $174 $174 $277 $278 reversed $109 $-1 #
face $-1 $-1 $279 $61 $-1 $280 forward single #
loop $-1 $281 $282 $111 #
cone-surface $-1 -9.0017983947409022 21.068553345913067 1.5843811838655251 0 -0.81915205242281985 -0.57357642473473569 0.75 0 0 1 I I -0.70710678118654757 0.70710678118654757 0.75 forward I I I I #
loop $-1 $-1 $283 $79 #
coedge $-1 $179 $179 $284 $285 reversed $112 $-1 #
face $-1 $286 $287 $62 $-1 $288 reversed single #
loop $-1 $-1 $289 $114 #
plane-surface $-1 11.434227058180461 -3.8599528620538024 43.51503868302224 0 0.81915205242281985 0.57357642473473569 1 0 0 forward_v I I I I #
coedge $-1 $290 $291 $292 $293 reversed $115 $-1 #
face $-1 $-1 $294 $63 $-1 $295 forward single #
loop $-1 $296 $297 $117 #
cone-surface $-1 7.9624588114247885 21.068553345913067 1.5843811838655251 0 -0.81915205242281985 -0.57357642473473569 0.75 0 0 1 I I -0.70710678118654757 0.70710678118654757 0.75 forward I I I I #
loop $-1 $-1 $298 $81 #
coedge $-1 $188 $188 $299 $300 reversed $118 $-1 #
face $-1 $-1 $301 $64 $-1 $302 forward single #
loop $-1 $303 $304 $120 #
cone-surface $-1 14.905995304936134 21.068553345913067 1.5843811838655251 0 -0.81915205242281985 -0.57357642473473569 0.75 0 0 1 I I -0.70710678118654757 0.70710678118654757 0.75 forward I I I I #
loop $-1 $-1 $305 $82 #
coedge $-1 $193 $193 $306 $307 reversed $121 $-1 #
face $-1 $308 $309 $65 $-1 $310 reversed single #
loop $-1 $-1 $311 $123 #
plane-surface $-1 35.342020757857505 -3.8599528620538024 43.51503868302224 0 0.81915205242281985 0.57357642473473569 1 0 0 forward_v I I I I #
coedge $-1 $312 $313 $314 $315 reversed $124 $-1 #
face $-1 $-1 $316 $66 $-1 $317 forward single #
loop $-1 $318 $319 $126 #
cone-surface $-1 31.870252511101832 21.068553345913067 1.5843811838655251 0 -0.81915205242281985 -0.57357642473473569 0.75 0 0 1 I I -0.70710678118654757 0.70710678118654757 0.75 forward I I I I #
loop $-1 $-1 $320 $84 #
coedge $-1 $202 $202 $321 $322 reversed $127 $-1 #
face $-1 $-1 $323 $67 $-1 $324 forward single #
loop $-1 $325 $326 $129 #
cone-surface $-1 38.813789004613177 21.068553345913067 1.5843811838655251 0 -0.81915205242281985 -0.57357642473473569 0.75 0 0 1 I I -0.70710678118654757 0.70710678118654757 0.75 forward I I I I #
loop $-1 $-1 $327 $85 #
coedge $-1 $207 $207 $328 $329 reversed $130 $-1 #
face $-1 $330 $331 $68 $-1 $332 reversed single #
loop $-1 $-1 $333 $132 #
plane-surface $-1 -32.021123879550366 -26.230908038614615 0.89718554089616021 0 -0.7660444514056185 0.64278759981090561 1 0 0 forward_v I I I I #
coedge $-1 $334 $335 $336 $337 reversed $133 $-1 #
face $-1 $-1 $338 $69 $-1 $339 forward single #
loop $-1 $340 $341 $135 #
cone-surface $-1 -32.021123879550366 -21.805292549548781 2.2065692494455336 0 0.7660444514056185 -0.64278759981090561 0.75 0 0 1 I I -0.70710678118654757 0.70710678118654757 0.75 forward I I I I #
loop $-1 $-1 $342 $87 #
coedge $-1 $216 $216 $343 $344 reversed $136 $-1 #
face $-1 $345 $346 $70 $-1 $347 reversed single #
loop $-1 $-1 $348 $138 #
plane-surface $-1 38.687992844384802 -26.230908038614615 0.89718554089616021 0 -0.7660444514056185 0.64278759981090561 1 0 0 forward_v I I I I #
coedge $-1 $349 $350 $351 $352 reversed $139 $-1 #
face $-1 $-1 $353 $71 $-1 $354 forward single #
loop $-1 $355 $356 $141 #
cone-surface $-1 38.687992844384802 -21.805292549548781 2.2065692494455336 0 0.7660444514056185 -0.64278759981090561 0.75 0 0 1 I I -0.70710678118654757 0.70710678118654757 0.75 forward I I I I #
loop $-1 $-1 $357 $89 #
coedge $-1 $225 $225 $358 $359 reversed $142 $-1 #
face $-1 $360 $361 $54 $-1 $362 reversed single #
loop $-1 $-1 $363 $144 #
plane-surface $-1 0 -26.230908038614608 0 0 1 0 0 0 1 forward_v I I I I #
coedge $-1 $364 $365 $366 $367 forward $145 $-1 #
coedge $-1 $368 $147 $369 $370 forward $91 $-1 #
coedge $-1 $147 $368 $371 $372 forward $91 $-1 #
coedge $-1 $373 $374 $147 $233 reversed $375 $-1 #
edge $-1 $376 -26.230908038614608 $377 26.230908038614608 $232 $378 forward 7 unknown #
face $-1 $379 $380 $55 $-1 $381 reversed single #
loop $-1 $-1 $382 $148 #
plane-surface $-1 0 26.230908038614608 0 0 -1 0 0 0 -1 forward_v I I I I #
coedge $-1 $383 $384 $385 $386 reversed $149 $-1 #
coedge $-1 $387 $151 $388 $389 reversed $94 $-1 #
coedge $-1 $151 $387 $390 $391 reversed $94 $-1 #
coedge $-1 $384 $383 $151 $241 reversed $149 $-1 #
edge $-1 $392 -26.230908038614608 $393 26.230908038614608 $240 $394 forward 7 unknown #
face $-1 $395 $396 $56 $-1 $397 reversed single #
loop $-1 $-1 $248 $152 #
plane-surface $-1 0 0 6.7923218032177877 0 0 1 1 0 0 forward_v I I I I #
coedge $-1 $398 $399 $400 $401 reversed $153 $-1 #
coedge $-1 $402 $155 $403 $404 reversed $97 $-1 #
coedge $-1 $155 $402 $398 $405 forward $97 $-1 #
coedge $-1 $400 $406 $155 $249 forward $243 $-1 #
edge $-1 $407 -26.291472746350053 $408 -10.089887594823566 $248 $409 forward 7 unknown #
loop $-1 $-1 $255 $156 #
plane-surface $-1 -36.381360341173618 -3.8599528620538024 43.51503868302224 0 0.81915205242281985 0.57357642473473569 1 0 0 forward_v I I I I #
loop $-1 $-1 $410 $99 #
coedge $-1 $253 $253 $254 $411 reversed $157 $-1 #
coedge $-1 $254 $254 $253 $411 forward $159 $-1 #
coedge $-1 $255 $255 $160 $256 forward $250 $-1 #
edge $-1 $412 4.8503545027667632e-016 $412 6.2831853071796013 $255 $413 forward 7 unknown #
loop $-1 $-1 $262 $161 #
plane-surface $-1 -36.381360341173618 -3.8599528620538024 43.51503868302224 0 0.81915205242281985 0.57357642473473569 1 0 0 forward_v I I I I #
loop $-1 $-1 $414 $102 #
coedge $-1 $260 $260 $261 $415 reversed $162 $-1 #
coedge $-1 $261 $261 $260 $415 forward $164 $-1 #
coedge $-1 $262 $262 $165 $263 forward $257 $-1 #
edge $-1 $416 4.8503545027667632e-016 $416 6.2831853071796013 $262 $417 forward 7 unknown #
face $-1 $418 $419 $59 $-1 $420 forward single #
loop $-1 $-1 $421 $166 #
plane-surface $-1 -4.3727740657333367 79.937699645691566 102.19078488227252 -1 0 0 0 0.81915205242281985 0.57357642473473569 forward_v I I I I #
coedge $-1 $422 $423 $424 $425 reversed $167 $-1 #
coedge $-1 $269 $169 $426 $427 reversed $106 $-1 #
coedge $-1 $169 $268 $422 $428 reversed $106 $-1 #
coedge $-1 $424 $429 $169 $271 forward $419 $-1 #
edge $-1 $430 13.737941784231175 $431 18.115280278204843 $270 $432 forward 7 unknown #
loop $-1 $-1 $277 $170 #
plane-surface $-1 -12.473566641496582 -3.8599528620538024 43.51503868302224 0 0.81915205242281985 0.57357642473473569 1 0 0 forward_v I I I I #
loop $-1 $-1 $433 $108 #
coedge $-1 $275 $275 $276 $434 reversed $171 $-1 #
coedge $-1 $276 $276 $275 $434 forward $173 $-1 #
coedge $-1 $277 $277 $174 $278 forward $272 $-1 #
edge $-1 $435 4.8503545027667632e-016 $435 6.2831853071796013 $277 $436 forward 7 unknown #
loop $-1 $-1 $284 $175 #
plane-surface $-1 -12.473566641496582 -3.8599528620538024 43.51503868302224 0 0.81915205242281985 0.57357642473473569 1 0 0 forward_v I I I I #
loop $-1 $-1 $437 $111 #
coedge $-1 $282 $282 $283 $438 reversed $176 $-1 #
coedge $-1 $283 $283 $282 $438 forward $178 $-1 #
coedge $-1 $284 $284 $179 $285 forward $279 $-1 #
edge $-1 $439 4.8503545027667632e-016 $439 6.2831853071796013 $284 $440 forward 7 unknown #
face $-1 $441 $442 $62 $-1 $443 forward single #
loop $-1 $-1 $444 $180 #
plane-surface $-1 19.535019633943705 79.937699645691566 102.19078488227252 -1 0 0 0 0.81915205242281985 0.57357642473473569 forward_v I I I I #
coedge $-1 $445 $446 $447 $448 reversed $181 $-1 #
coedge $-1 $291 $183 $449 $450 reversed $115 $-1 #
coedge $-1 $183 $290 $445 $451 reversed $115 $-1 #
coedge $-1 $447 $452 $183 $293 forward $442 $-1 #
edge $-1 $453 13.737941784231175 $454 18.115280278204843 $292 $455 forward 7 unknown #
loop $-1 $-1 $299 $184 #
plane-surface $-1 11.434227058180461 -3.8599528620538024 43.51503868302224 0 0.81915205242281985 0.57357642473473569 1 0 0 forward_v I I I I #
loop $-1 $-1 $456 $117 #
coedge $-1 $297 $297 $298 $457 reversed $185 $-1 #
coedge $-1 $298 $298 $297 $457 forward $187 $-1 #
coedge $-1 $299 $299 $188 $300 forward $294 $-1 #
edge $-1 $458 4.8503545027667632e-016 $458 6.2831853071796013 $299 $459 forward 7 unknown #
loop $-1 $-1 $306 $189 #
plane-surface $-1 11.434227058180461 -3.8599528620538024 43.51503868302224 0 0.81915205242281985 0.57357642473473569 1 0 0 forward_v I I I I #
loop $-1 $-1 $460 $120 #
coedge $-1 $304 $304 $305 $461 reversed $190 $-1 #
coedge $-1 $305 $305 $304 $461 forward $192 $-1 #
coedge $-1 $306 $306 $193 $307 forward $301 $-1 #
edge $-1 $462 4.8503545027667632e-016 $462 6.2831853071796013 $306 $463 forward 7 unknown #
face $-1 $464 $465 $65 $-1 $466 forward single #
loop $-1 $-1 $467 $194 #
plane-surface $-1 43.442813333620748 79.937699645691566 102.19078488227252 -1 0 0 0 0.81915205242281985 0.57357642473473569 forward_v I I I I #
coedge $-1 $468 $469 $470 $471 reversed $195 $-1 #
coedge $-1 $313 $197 $472 $473 reversed $124 $-1 #
coedge $-1 $197 $312 $468 $474 reversed $124 $-1 #
coedge $-1 $470 $475 $197 $315 forward $465 $-1 #
edge $-1 $476 13.737941784231175 $477 18.115280278204843 $314 $478 forward 7 unknown #
loop $-1 $-1 $321 $198 #
plane-surface $-1 35.342020757857505 -3.8599528620538024 43.51503868302224 0 0.81915205242281985 0.57357642473473569 1 0 0 forward_v I I I I #
loop $-1 $-1 $479 $126 #
coedge $-1 $319 $319 $320 $480 reversed $199 $-1 #
coedge $-1 $320 $320 $319 $480 forward $201 $-1 #
coedge $-1 $321 $321 $202 $322 forward $316 $-1 #
edge $-1 $481 4.8503545027667632e-016 $481 6.2831853071796013 $321 $482 forward 7 unknown #
loop $-1 $-1 $328 $203 #
plane-surface $-1 35.342020757857505 -3.8599528620538024 43.51503868302224 0 0.81915205242281985 0.57357642473473569 1 0 0 forward_v I I I I #
loop $-1 $-1 $483 $129 #
coedge $-1 $326 $326 $327 $484 reversed $204 $-1 #
coedge $-1 $327 $327 $326 $484 forward $206 $-1 #
coedge $-1 $328 $328 $207 $329 forward $323 $-1 #
edge $-1 $485 4.8503545027667632e-016 $485 6.2831853071796013 $328 $486 forward 7 unknown #
face $-1 $487 $488 $68 $-1 $489 reversed single #
loop $-1 $-1 $490 $208 #
plane-surface $-1 -40.445215609594655 -104.59575685332555 66.653099557014684 1 0 0 0 0.7660444514056185 -0.64278759981090561 forward_v I I I I #
coedge $-1 $491 $492 $493 $494 reversed $209 $-1 #
coedge $-1 $335 $211 $495 $496 reversed $133 $-1 #
coedge $-1 $211 $334 $491 $497 reversed $133 $-1 #
coedge $-1 $493 $498 $211 $337 forward $499 $-1 #
edge $-1 $500 26.066970388048169 $501 31.013576921993955 $336 $502 forward 7 unknown #
loop $-1 $-1 $343 $212 #
plane-surface $-1 -32.021123879550366 -26.230908038614615 0.89718554089616021 0 -0.7660444514056185 0.64278759981090561 1 0 0 forward_v I I I I #
loop $-1 $-1 $503 $135 #
coedge $-1 $341 $341 $342 $504 reversed $213 $-1 #
coedge $-1 $342 $342 $341 $504 forward $215 $-1 #
coedge $-1 $343 $343 $216 $344 forward $338 $-1 #
edge $-1 $505 -3.5706702013206226e-016 $505 6.2831853071796004 $343 $506 forward 7 unknown #
face $-1 $507 $508 $70 $-1 $509 reversed single #
loop $-1 $-1 $510 $217 #
plane-surface $-1 30.263901114340513 -104.59575685332555 66.653099557014684 1 0 0 0 0.7660444514056185 -0.64278759981090561 forward_v I I I I #
coedge $-1 $511 $512 $513 $514 reversed $218 $-1 #
coedge $-1 $350 $220 $515 $516 reversed $139 $-1 #
coedge $-1 $220 $349 $511 $517 reversed $139 $-1 #
coedge $-1 $513 $518 $220 $352 forward $519 $-1 #
edge $-1 $520 26.066970388048169 $521 31.013576921993955 $351 $522 forward 7 unknown #
loop $-1 $-1 $358 $221 #
plane-surface $-1 38.687992844384802 -26.230908038614615 0.89718554089616021 0 -0.7660444514056185 0.64278759981090561 1 0 0 forward_v I I I I #
loop $-1 $-1 $523 $141 #
coedge $-1 $356 $356 $357 $524 reversed $222 $-1 #
coedge $-1 $357 $357 $356 $524 forward $224 $-1 #
coedge $-1 $358 $358 $225 $359 forward $353 $-1 #
edge $-1 $525 -3.5706702013206226e-016 $525 6.2831853071796004 $358 $526 forward 7 unknown #
face $-1 $527 $528 $54 $-1 $529 reversed single #
loop $-1 $-1 $530 $226 #
plane-surface $-1 -51.149021881771297 0 0 1 0 0 0 0 -1 forward_v I I I I #
coedge $-1 $531 $371 $532 $533 forward $227 $-1 #
coedge $-1 $534 $229 $531 $535 forward $145 $-1 #
coedge $-1 $229 $534 $536 $537 forward $145 $-1 #
coedge $-1 $374 $373 $229 $367 reversed $375 $-1 #
edge $-1 $538 -26.230908038614608 $539 26.230908038614608 $366 $540 forward 7 unknown #
coedge $-1 $231 $230 $541 $542 forward $91 $-1 #
coedge $-1 $543 $544 $230 $370 reversed $528 $-1 #
edge $-1 $377 -51.149021881771297 $545 51.149021881771297 $369 $546 forward 7 unknown #
coedge $-1 $363 $547 $231 $372 reversed $227 $-1 #
edge $-1 $548 -51.149021881771297 $376 51.149021881771297 $371 $549 forward 7 unknown #
coedge $-1 $366 $232 $547 $550 forward $375 $-1 #
coedge $-1 $232 $366 $543 $551 reversed $375 $-1 #
loop $-1 $-1 $373 $527 #
vertex $-1 $233 $552 #
vertex $-1 $233 $553 #
straight-curve $-1 51.149021881771297 0 6.7923218032177877 0 1 0 I I #
face $-1 $554 $555 $55 $-1 $556 forward single #
loop $-1 $-1 $557 $234 #
plane-surface $-1 -51.149021881771297 0 0 1 0 0 0 0 -1 forward_v I I I I #
coedge $-1 $390 $558 $384 $559 forward $235 $-1 #
coedge $-1 $240 $237 $560 $561 reversed $149 $-1 #
coedge $-1 $237 $240 $382 $559 reversed $149 $-1 #
coedge $-1 $562 $563 $237 $386 forward $555 $-1 #
edge $-1 $564 -26.230908038614608 $565 26.230908038614608 $385 $566 forward 7 unknown #
coedge $-1 $239 $238 $557 $567 reversed $94 $-1 #
coedge $-1 $560 $568 $238 $389 forward $569 $-1 #
edge $-1 $570 -27.241228182094257 $393 -20.574359217259822 $388 $571 forward 7 unknown #
coedge $-1 $572 $382 $239 $391 forward $235 $-1 #
edge $-1 $392 20.574359217259822 $573 27.241228182094257 $390 $574 forward 7 unknown #
vertex $-1 $391 $575 #
vertex $-1 $389 $576 #
straight-curve $-1 -44.482152916936862 0 3.7923218032177877 0 -1 0 I I #
face $-1 $-1 $577 $56 $-1 $578 forward single #
loop $-1 $-1 $579 $242 #
plane-surface $-1 0 26.230908038614608 0 0 -1 0 0 0 -1 forward_v I I I I #
coedge $-1 $399 $245 $247 $405 reversed $153 $-1 #
coedge $-1 $245 $398 $579 $580 reversed $153 $-1 #
coedge $-1 $581 $248 $245 $401 forward $243 $-1 #
edge $-1 $408 -18.115280278204843 $582 -13.737941784231175 $400 $583 forward 7 unknown #
coedge $-1 $247 $246 $584 $585 reversed $97 $-1 #
coedge $-1 $586 $587 $246 $404 forward $577 $-1 #
edge $-1 $588 -35.699718605464419 $407 -28.06806168023763 $403 $589 forward 7 unknown #
edge $-1 $590 -52.46181607722923 $408 -44.830159152002437 $398 $591 forward 7 unknown #
coedge $-1 $248 $581 $586 $592 forward $243 $-1 #
vertex $-1 $404 $593 #
vertex $-1 $249 $594 #
straight-curve $-1 -18.190680170586809 21.853569544640944 6.792321803217785 1 0 0 I I #
coedge $-1 $410 $410 $-1 $595 reversed $252 $-1 #
edge $-1 $596 0 $596 6.2831853071796004 $253 $597 forward 7 unknown #
vertex $-1 $256 $598 #
ellipse-curve $-1 -39.853128587929291 24.042238791627771 3.6665780863746162 0 0.81915205242281985 0.57357642473473569 1.5 0 0 1 I I #
coedge $-1 $414 $414 $-1 $599 reversed $259 $-1 #
edge $-1 $600 0 $600 6.2831853071796004 $260 $601 forward 7 unknown #
vertex $-1 $263 $602 #
ellipse-curve $-1 -32.909592094417945 24.042238791627771 3.6665780863746162 0 0.81915205242281985 0.57357642473473569 1.5 0 0 1 I I #
face $-1 $-1 $603 $59 $-1 $604 reversed single #
loop $-1 $-1 $270 $264 #
plane-surface $-1 0 0 6.7923218032177877 0 0 1 1 0 0 forward_v I I I I #
coedge $-1 $605 $606 $607 $608 reversed $265 $-1 #
coedge $-1 $609 $267 $269 $428 forward $167 $-1 #
coedge $-1 $267 $609 $605 $610 forward $167 $-1 #
coedge $-1 $607 $270 $267 $425 forward $419 $-1 #
edge $-1 $431 -14.337575896511535 $611 1.8640092550149543 $424 $612 forward 7 unknown #
coedge $-1 $613 $614 $268 $427 forward $603 $-1 #
edge $-1 $615 -50.554558071604824 $430 -44.303070637918474 $426 $616 forward 7 unknown #
edge $-1 $431 44.830159152002437 $615 52.46181607722923 $269 $617 forward 7 unknown #
coedge $-1 $270 $607 $613 $618 forward $419 $-1 #
vertex $-1 $271 $619 #
vertex $-1 $271 $620 #
straight-curve $-1 -20.574359217259826 39.968849822845783 6.7923218032177886 0 -1 0 I I #
coedge $-1 $433 $433 $-1 $621 reversed $274 $-1 #
edge $-1 $622 0 $622 6.2831853071796004 $275 $623 forward 7 unknown #
vertex $-1 $278 $624 #
ellipse-curve $-1 -15.945334888252255 24.042238791627771 3.6665780863746162 0 0.81915205242281985 0.57357642473473569 1.5 0 0 1 I I #
coedge $-1 $437 $437 $-1 $625 reversed $281 $-1 #
edge $-1 $626 0 $626 6.2831853071796004 $282 $627 forward 7 unknown #
vertex $-1 $285 $628 #
ellipse-curve $-1 -9.0017983947409022 24.042238791627771 3.6665780863746162 0 0.81915205242281985 0.57357642473473569 1.5 0 0 1 I I #
face $-1 $-1 $629 $62 $-1 $630 reversed single #
loop $-1 $-1 $292 $286 #
plane-surface $-1 0 0 6.7923218032177877 0 0 1 1 0 0 forward_v I I I I #
coedge $-1 $631 $632 $633 $634 reversed $287 $-1 #
coedge $-1 $635 $289 $291 $451 forward $181 $-1 #
coedge $-1 $289 $635 $631 $636 forward $181 $-1 #
coedge $-1 $633 $292 $289 $448 forward $442 $-1 #
edge $-1 $454 -2.3836790466730147 $637 13.817906104853474 $447 $638 forward 7 unknown #
coedge $-1 $639 $640 $290 $450 forward $629 $-1 #
edge $-1 $641 -50.554558071604824 $453 -44.303070637918474 $449 $642 forward 7 unknown #
edge $-1 $454 44.830159152002437 $641 52.46181607722923 $291 $643 forward 7 unknown #
coedge $-1 $292 $633 $639 $644 forward $442 $-1 #
vertex $-1 $293 $645 #
vertex $-1 $293 $646 #
straight-curve $-1 3.333434482417216 39.968849822845783 6.7923218032177886 0 -1 0 I I #
coedge $-1 $456 $456 $-1 $647 reversed $296 $-1 #
edge $-1 $648 0 $648 6.2831853071796004 $297 $649 forward 7 unknown #
vertex $-1 $300 $650 #
ellipse-curve $-1 7.9624588114247885 24.042238791627771 3.6665780863746162 0 0.81915205242281985 0.57357642473473569 1.5 0 0 1 I I #
coedge $-1 $460 $460 $-1 $651 reversed $303 $-1 #
edge $-1 $652 0 $652 6.2831853071796004 $304 $653 forward 7 unknown #
vertex $-1 $307 $654 #
ellipse-curve $-1 14.905995304936134 24.042238791627771 3.6665780863746162 0 0.81915205242281985 0.57357642473473569 1.5 0 0 1 I I #
face $-1 $-1 $655 $65 $-1 $656 reversed single #
loop $-1 $-1 $314 $308 #
plane-surface $-1 0 0 6.7923218032177877 0 0 1 1 0 0 forward_v I I I I #
coedge $-1 $657 $658 $659 $660 reversed $309 $-1 #
coedge $-1 $661 $311 $313 $474 forward $195 $-1 #
coedge $-1 $311 $661 $657 $662 forward $195 $-1 #
coedge $-1 $659 $314 $311 $471 forward $465 $-1 #
edge $-1 $477 9.5702178031655087 $663 25.771802954691996 $470 $664 forward 7 unknown #
coedge $-1 $665 $666 $312 $473 forward $655 $-1 #
edge $-1 $667 -50.554558071604824 $476 -44.303070637918474 $472 $668 forward 7 unknown #
edge $-1 $477 44.830159152002437 $667 52.46181607722923 $313 $669 forward 7 unknown #
coedge $-1 $314 $659 $665 $670 forward $465 $-1 #
vertex $-1 $315 $671 #
vertex $-1 $315 $672 #
straight-curve $-1 27.241228182094261 39.968849822845783 6.7923218032177886 0 -1 0 I I #
coedge $-1 $479 $479 $-1 $673 reversed $318 $-1 #
edge $-1 $674 0 $674 6.2831853071796004 $319 $675 forward 7 unknown #
vertex $-1 $322 $676 #
ellipse-curve $-1 31.870252511101832 24.042238791627771 3.6665780863746162 0 0.81915205242281985 0.57357642473473569 1.5 0 0 1 I I #
coedge $-1 $483 $483 $-1 $677 reversed $325 $-1 #
edge $-1 $678 0 $678 6.2831853071796004 $326 $679 forward 7 unknown #
vertex $-1 $329 $680 #
ellipse-curve $-1 38.813789004613177 24.042238791627771 3.6665780863746162 0 0.81915205242281985 0.57357642473473569 1.5 0 0 1 I I #
face $-1 $-1 $499 $68 $-1 $681 forward single #
loop $-1 $-1 $682 $330 #
plane-surface $-1 0 -26.230908038614608 0 0 1 0 0 0 1 forward_v I I I I #
coedge $-1 $683 $684 $685 $686 reversed $331 $-1 #
coedge $-1 $687 $333 $335 $497 forward $209 $-1 #
coedge $-1 $333 $687 $683 $688 forward $209 $-1 #
coedge $-1 $685 $336 $333 $494 forward $499 $-1 #
edge $-1 $501 7.5864702097308943 $689 24.434653669819472 $493 $690 forward 7 unknown #
coedge $-1 $691 $692 $334 $496 forward $488 $-1 #
edge $-1 $693 -32.429364237611175 $500 -26.534227975289554 $495 $694 forward 7 unknown #
edge $-1 $501 -7.6955537651955011 $693 -1.1030930024383267e-014 $335 $695 forward 7 unknown #
coedge $-1 $336 $685 $691 $696 forward $499 $-1 #
loop $-1 $-1 $685 $487 #
vertex $-1 $496 $697 #
vertex $-1 $337 $698 #
straight-curve $-1 -23.597032149506077 -52.297878426662777 6.7923218032177886 0 1 0 I I #
coedge $-1 $503 $503 $-1 $699 reversed $340 $-1 #
edge $-1 $700 0 $700 6.2831853071796004 $341 $701 forward 7 unknown #
vertex $-1 $344 $702 #
ellipse-curve $-1 -32.021123879550366 -23.757604771641716 3.8447536720569775 0 -0.7660444514056185 0.64278759981090561 1.5 0 0 1 I I #
face $-1 $-1 $519 $70 $-1 $703 forward single #
loop $-1 $-1 $704 $345 #
plane-surface $-1 0 -26.230908038614608 0 0 1 0 0 0 1 forward_v I I I I #
coedge $-1 $705 $706 $707 $708 reversed $346 $-1 #
coedge $-1 $709 $348 $350 $517 forward $218 $-1 #
coedge $-1 $348 $709 $705 $710 forward $218 $-1 #
coedge $-1 $707 $351 $348 $514 forward $519 $-1 #
edge $-1 $521 -27.76808815223669 $711 -10.919904692148112 $513 $712 forward 7 unknown #
coedge $-1 $713 $714 $349 $516 forward $508 $-1 #
edge $-1 $715 -32.429364237611175 $520 -26.534227975289554 $515 $716 forward 7 unknown #
edge $-1 $521 -7.6955537651955011 $715 -1.1030930024383267e-014 $350 $717 forward 7 unknown #
coedge $-1 $351 $707 $713 $718 forward $519 $-1 #
loop $-1 $-1 $707 $507 #
vertex $-1 $516 $719 #
vertex $-1 $352 $720 #
straight-curve $-1 47.11208457442909 -52.297878426662777 6.7923218032177886 0 1 0 I I #
coedge $-1 $523 $523 $-1 $721 reversed $355 $-1 #
edge $-1 $722 0 $722 6.2831853071796004 $356 $723 forward 7 unknown #
vertex $-1 $359 $724 #
ellipse-curve $-1 38.687992844384802 -23.757604771641716 3.8447536720569775 0 -0.7660444514056185 0.64278759981090561 1.5 0 0 1 I I #
face $-1 $-1 $375 $54 $-1 $725 reversed single #
loop $-1 $-1 $543 $360 #
plane-surface $-1 0 26.230908038614608 0 0 -1 0 0 0 -1 forward_v I I I I #
coedge $-1 $726 $541 $544 $727 forward $361 $-1 #
coedge $-1 $547 $363 $364 $535 reversed $227 $-1 #
coedge $-1 $541 $726 $363 $533 reversed $361 $-1 #
edge $-1 $548 -6.7923218032177877 $728 6.7923218032177877 $532 $729 forward 7 unknown #
coedge $-1 $365 $364 $726 $730 forward $145 $-1 #
edge $-1 $539 -51.149021881771297 $728 51.149021881771297 $531 $731 forward 7 unknown #
coedge $-1 $544 $543 $365 $537 reversed $528 $-1 #
edge $-1 $732 -51.149021881771297 $538 51.149021881771297 $536 $733 forward 7 unknown #
vertex $-1 $367 $734 #
vertex $-1 $550 $735 #
straight-curve $-1 51.149021881771297 0 -6.7923218032177877 0 -1 0 I I #
coedge $-1 $530 $532 $368 $542 reversed $361 $-1 #
edge $-1 $545 -26.230908038614608 $548 26.230908038614608 $541 $736 forward 7 unknown #
coedge $-1 $536 $369 $374 $551 forward $528 $-1 #
coedge $-1 $369 $536 $530 $727 reversed $528 $-1 #
vertex $-1 $370 $737 #
straight-curve $-1 0 26.230908038614608 6.7923218032177877 -1 0 0 I I #
coedge $-1 $371 $531 $373 $550 reversed $227 $-1 #
vertex $-1 $542 $738 #
straight-curve $-1 0 -26.230908038614608 6.7923218032177877 1 0 0 I I #
edge $-1 $376 -6.7923218032177877 $539 6.7923218032177877 $373 $739 forward 7 unknown #
edge $-1 $377 -6.7923218032177877 $538 6.7923218032177877 $374 $740 forward 7 unknown #
point $-1 51.149021881771297 -26.230908038614608 6.7923218032177877 #
point $-1 51.149021881771297 26.230908038614608 6.7923218032177877 #
face $-1 $-1 $569 $55 $-1 $741 reversed single #
loop $-1 $-1 $385 $379 #
plane-surface $-1 0 0 6.7923218032177877 0 0 1 1 0 0 forward_v I I I I #
coedge $-1 $742 $743 $387 $567 forward $380 $-1 #
coedge $-1 $382 $572 $562 $744 reversed $235 $-1 #
edge $-1 $565 -4.1461609016088943 $392 -1.1461609016088938 $382 $745 forward 7 unknown #
coedge $-1 $746 $388 $383 $561 forward $569 $-1 #
edge $-1 $393 1.1461609016088938 $564 4.1461609016088943 $560 $747 forward 7 unknown #
coedge $-1 $748 $385 $558 $744 forward $555 $-1 #
coedge $-1 $385 $748 $746 $749 forward $555 $-1 #
vertex $-1 $561 $750 #
vertex $-1 $744 $751 #
straight-curve $-1 -44.482152916936862 0 6.7923218032177877 0 1 0 I I #
edge $-1 $573 -26.230908038614608 $570 26.230908038614608 $557 $752 forward 7 unknown #
coedge $-1 $388 $746 $742 $753 forward $569 $-1 #
loop $-1 $-1 $560 $554 #
vertex $-1 $567 $754 #
straight-curve $-1 -23.90779369967704 -26.230908038614608 3.7923218032177877 1 0 0 I I #
coedge $-1 $558 $390 $743 $755 reversed $235 $-1 #
vertex $-1 $567 $756 #
straight-curve $-1 -23.90779369967704 26.230908038614608 3.7923218032177877 -1 0 0 I I #
point $-1 -44.482152916936862 26.230908038614608 3.7923218032177877 #
point $-1 -44.482152916936862 -26.230908038614608 3.7923218032177877 #
loop $-1 $-1 $403 $395 #
plane-surface $-1 -44.482152916936862 0 5.2923218032177877 -1 0 0 0 0 1 forward_v I I I I #
coedge $-1 $584 $757 $399 $580 forward $396 $-1 #
edge $-1 $582 44.303070637918474 $590 50.554558071604824 $579 $758 forward 7 unknown #
coedge $-1 $406 $400 $757 $759 forward $243 $-1 #
vertex $-1 $759 $760 #
straight-curve $-1 -28.280567765410375 39.968849822845783 6.7923218032177886 0 1 0 I I #
coedge $-1 $761 $579 $402 $585 forward $396 $-1 #
edge $-1 $590 10.089887594823566 $588 26.291472746350053 $584 $762 forward 7 unknown #
coedge $-1 $587 $403 $406 $592 reversed $577 $-1 #
coedge $-1 $403 $586 $761 $763 reversed $577 $-1 #
vertex $-1 $763 $764 #
straight-curve $-1 -44.482152916936862 5.7543910768562068 29.784332136114745 0 -0.57357642473473569 0.81915205242281985 I I #
vertex $-1 $585 $765 #
straight-curve $-1 -28.280567765410375 -3.8599528620538024 43.51503868302224 0 -0.57357642473473569 0.81915205242281985 I I #
edge $-1 $766 -26.230908038614608 $407 -21.853569544640941 $406 $767 forward 7 unknown #
point $-1 -44.482152916936862 21.853569544640941 6.7923218032177877 #
point $-1 -28.280567765410375 21.853569544640941 6.7923218032177886 #
edge $-1 $768 1 $768 0 $410 $-1 forward 7 unknown #
vertex $-1 $411 $769 #
ellipse-curve $-1 -39.853128587929291 21.68291738523018 2.0145635024165767 0 0.81915205242281985 0.57357642473473569 1.5 0 0 1 I I #
point $-1 -38.353128587929291 24.042238791627771 3.6665780863746154 #
edge $-1 $770 1 $770 0 $414 $-1 forward 7 unknown #
vertex $-1 $415 $771 #
ellipse-curve $-1 -32.909592094417945 21.68291738523018 2.0145635024165767 0 0.81915205242281985 0.57357642473473569 1.5 0 0 1 I I #
point $-1 -31.409592094417945 24.042238791627771 3.6665780863746154 #
loop $-1 $-1 $426 $418 #
plane-surface $-1 0 26.230908038614608 0 0 -1 0 0 0 -1 forward_v I I I I #
coedge $-1 $606 $421 $423 $610 reversed $265 $-1 #
coedge $-1 $421 $605 $772 $773 reversed $265 $-1 #
coedge $-1 $429 $424 $421 $608 forward $419 $-1 #
edge $-1 $611 -18.115280278204843 $774 -13.737941784231175 $607 $775 forward 7 unknown #
coedge $-1 $423 $422 $614 $776 reversed $167 $-1 #
edge $-1 $777 -52.46181607722923 $611 -44.830159152002437 $605 $778 forward 7 unknown #
vertex $-1 $425 $779 #
straight-curve $-1 -6.236783320748291 21.853569544640944 6.792321803217785 1 0 0 I I #
coedge $-1 $772 $426 $429 $618 reversed $603 $-1 #
coedge $-1 $426 $772 $609 $776 forward $603 $-1 #
vertex $-1 $427 $780 #
straight-curve $-1 -20.574359217259826 26.230908038614608 51.095392441136262 0 0 1 I I #
straight-curve $-1 -20.574359217259826 -3.8599528620538024 43.51503868302224 0 0.57357642473473569 -0.81915205242281985 I I #
edge $-1 $774 4.3727740657333367 $430 20.574359217259826 $613 $781 forward 7 unknown #
point $-1 -20.574359217259826 26.230908038614608 6.7923218032177877 #
point $-1 -20.574359217259826 21.853569544640941 6.7923218032177886 #
edge $-1 $782 1 $782 0 $433 $-1 forward 7 unknown #
vertex $-1 $434 $783 #
ellipse-curve $-1 -15.945334888252255 21.68291738523018 2.0145635024165767 0 0.81915205242281985 0.57357642473473569 1.5 0 0 1 I I #
point $-1 -14.445334888252255 24.042238791627771 3.6665780863746154 #
edge $-1 $784 1 $784 0 $437 $-1 forward 7 unknown #
vertex $-1 $438 $785 #
ellipse-curve $-1 -9.0017983947409022 21.68291738523018 2.0145635024165767 0 0.81915205242281985 0.57357642473473569 1.5 0 0 1 I I #
point $-1 -7.5017983947409022 24.042238791627771 3.6665780863746154 #
loop $-1 $-1 $449 $441 #
plane-surface $-1 0 26.230908038614608 0 0 -1 0 0 0 -1 forward_v I I I I #
coedge $-1 $632 $444 $446 $636 reversed $287 $-1 #
coedge $-1 $444 $631 $786 $787 reversed $287 $-1 #
coedge $-1 $452 $447 $444 $634 forward $442 $-1 #
edge $-1 $637 -18.115280278204843 $788 -13.737941784231175 $633 $789 forward 7 unknown #
coedge $-1 $446 $445 $640 $790 reversed $181 $-1 #
edge $-1 $791 -52.46181607722923 $637 -44.830159152002437 $631 $792 forward 7 unknown #
vertex $-1 $448 $793 #
straight-curve $-1 5.7171135290902306 21.853569544640944 6.792321803217785 1 0 0 I I #
coedge $-1 $786 $449 $452 $644 reversed $629 $-1 #
coedge $-1 $449 $786 $635 $790 forward $629 $-1 #
vertex $-1 $450 $794 #
straight-curve $-1 3.333434482417216 26.230908038614608 51.095392441136262 0 0 1 I I #
straight-curve $-1 3.333434482417216 -3.8599528620538024 43.51503868302224 0 0.57357642473473569 -0.81915205242281985 I I #
edge $-1 $788 -19.535019633943705 $453 -3.333434482417216 $639 $795 forward 7 unknown #
point $-1 3.333434482417216 26.230908038614608 6.7923218032177877 #
point $-1 3.333434482417216 21.853569544640941 6.7923218032177886 #
edge $-1 $796 1 $796 0 $456 $-1 forward 7 unknown #
vertex $-1 $457 $797 #
ellipse-curve $-1 7.9624588114247885 21.68291738523018 2.0145635024165767 0 0.81915205242281985 0.57357642473473569 1.5 0 0 1 I I #
point $-1 9.4624588114247885 24.042238791627771 3.6665780863746154 #
edge $-1 $798 1 $798 0 $460 $-1 forward 7 unknown #
vertex $-1 $461 $799 #
ellipse-curve $-1 14.905995304936134 21.68291738523018 2.0145635024165767 0 0.81915205242281985 0.57357642473473569 1.5 0 0 1 I I #
point $-1 16.405995304936134 24.042238791627771 3.6665780863746154 #
loop $-1 $-1 $472 $464 #
plane-surface $-1 0 26.230908038614608 0 0 -1 0 0 0 -1 forward_v I I I I #
coedge $-1 $658 $467 $469 $662 reversed $309 $-1 #
coedge $-1 $467 $657 $800 $801 reversed $309 $-1 #
coedge $-1 $475 $470 $467 $660 forward $465 $-1 #
edge $-1 $663 -18.115280278204843 $802 -13.737941784231175 $659 $803 forward 7 unknown #
coedge $-1 $469 $468 $666 $804 reversed $195 $-1 #
edge $-1 $805 -52.46181607722923 $663 -44.830159152002437 $657 $806 forward 7 unknown #
vertex $-1 $471 $807 #
straight-curve $-1 17.671010378928752 21.853569544640944 6.792321803217785 1 0 0 I I #
coedge $-1 $800 $472 $475 $670 reversed $655 $-1 #
coedge $-1 $472 $800 $661 $804 forward $655 $-1 #
vertex $-1 $473 $808 #
straight-curve $-1 27.241228182094261 26.230908038614608 51.095392441136262 0 0 1 I I #
straight-curve $-1 27.241228182094261 -3.8599528620538024 43.51503868302224 0 0.57357642473473569 -0.81915205242281985 I I #
edge $-1 $802 -43.442813333620748 $476 -27.241228182094261 $665 $809 forward 7 unknown #
point $-1 27.241228182094261 26.230908038614608 6.7923218032177877 #
point $-1 27.241228182094261 21.853569544640941 6.7923218032177886 #
edge $-1 $810 1 $810 0 $479 $-1 forward 7 unknown #
vertex $-1 $480 $811 #
ellipse-curve $-1 31.870252511101832 21.68291738523018 2.0145635024165767 0 0.81915205242281985 0.57357642473473569 1.5 0 0 1 I I #
point $-1 33.370252511101832 24.042238791627771 3.6665780863746154 #
edge $-1 $812 1 $812 0 $483 $-1 forward 7 unknown #
vertex $-1 $484 $813 #
ellipse-curve $-1 38.813789004613177 21.68291738523018 2.0145635024165767 0 0.81915205242281985 0.57357642473473569 1.5 0 0 1 I I #
point $-1 40.313789004613177 24.042238791627771 3.6665780863746154 #
plane-surface $-1 0 0 6.7923218032177877 0 0 1 1 0 0 forward_v I I I I #
coedge $-1 $692 $691 $684 $814 forward $488 $-1 #
coedge $-1 $684 $490 $492 $688 reversed $331 $-1 #
coedge $-1 $490 $683 $682 $814 reversed $331 $-1 #
coedge $-1 $498 $493 $490 $686 forward $499 $-1 #
edge $-1 $689 -31.013576921993955 $815 -26.066970388048169 $685 $816 forward 7 unknown #
coedge $-1 $492 $491 $692 $817 reversed $209 $-1 #
edge $-1 $818 1.1030930024383267e-014 $689 7.6955537651955011 $683 $819 forward 7 unknown #
vertex $-1 $494 $820 #
straight-curve $-1 -16.010561939775183 -21.284301504668825 6.7923218032177877 -1 0 0 I I #
coedge $-1 $682 $495 $498 $696 reversed $488 $-1 #
coedge $-1 $495 $682 $687 $817 forward $488 $-1 #
vertex $-1 $496 $821 #
straight-curve $-1 -23.597032149506077 -26.230908038614608 33.326549778507342 0 0 1 I I #
straight-curve $-1 -23.597032149506077 -26.230908038614615 0.89718554089616021 0 -0.64278759981090561 -0.7660444514056185 I I #
edge $-1 $815 -40.445215609594655 $500 -23.597032149506077 $691 $822 forward 7 unknown #
point $-1 -23.597032149506077 -26.230908038614608 6.7923218032177877 #
point $-1 -23.597032149506077 -21.284301504668822 6.7923218032177877 #
edge $-1 $823 1 $823 0 $503 $-1 forward 7 unknown #
vertex $-1 $504 $824 #
ellipse-curve $-1 -32.021123879550366 -22.379825888102996 2.6886599493037129 0 -0.7660444514056185 0.64278759981090561 1.5 0 0 1 I I #
point $-1 -30.521123879550366 -23.757604771641709 3.8447536720569708 #
plane-surface $-1 0 0 6.7923218032177877 0 0 1 1 0 0 forward_v I I I I #
coedge $-1 $714 $713 $706 $825 forward $508 $-1 #
coedge $-1 $706 $510 $512 $710 reversed $346 $-1 #
coedge $-1 $510 $705 $704 $825 reversed $346 $-1 #
coedge $-1 $518 $513 $510 $708 forward $519 $-1 #
edge $-1 $711 -31.013576921993955 $826 -26.066970388048169 $707 $827 forward 7 unknown #
coedge $-1 $512 $511 $714 $828 reversed $218 $-1 #
edge $-1 $829 1.1030930024383267e-014 $711 7.6955537651955011 $705 $830 forward 7 unknown #
vertex $-1 $514 $831 #
straight-curve $-1 19.343996422192401 -21.284301504668825 6.7923218032177877 -1 0 0 I I #
coedge $-1 $704 $515 $518 $718 reversed $508 $-1 #
coedge $-1 $515 $704 $709 $828 forward $508 $-1 #
vertex $-1 $516 $832 #
straight-curve $-1 47.11208457442909 -26.230908038614608 33.326549778507342 0 0 1 I I #
straight-curve $-1 47.11208457442909 -26.230908038614615 0.89718554089616021 0 -0.64278759981090561 -0.7660444514056185 I I #
edge $-1 $826 30.263901114340513 $520 47.11208457442909 $713 $833 forward 7 unknown #
point $-1 47.11208457442909 -26.230908038614608 6.7923218032177877 #
point $-1 47.11208457442909 -21.284301504668822 6.7923218032177877 #
edge $-1 $834 1 $834 0 $523 $-1 forward 7 unknown #
vertex $-1 $524 $835 #
ellipse-curve $-1 38.687992844384802 -22.379825888102996 2.6886599493037129 0 -0.7660444514056185 0.64278759981090561 1.5 0 0 1 I I #
point $-1 40.187992844384802 -23.757604771641709 3.8447536720569708 #
plane-surface $-1 51.149021881771297 0 0 -1 0 0 0 0 1 forward_v I I I I #
coedge $-1 $532 $530 $534 $730 reversed $361 $-1 #
edge $-1 $545 -6.7923218032177877 $732 6.7923218032177877 $544 $836 forward 7 unknown #
vertex $-1 $730 $837 #
straight-curve $-1 -51.149021881771297 -26.230908038614608 0 0 0 -1 I I #
edge $-1 $728 -26.230908038614608 $732 26.230908038614608 $726 $838 forward 7 unknown #
straight-curve $-1 0 -26.230908038614608 -6.7923218032177877 -1 0 0 I I #
vertex $-1 $537 $839 #
straight-curve $-1 0 26.230908038614608 -6.7923218032177877 1 0 0 I I #
point $-1 51.149021881771297 26.230908038614608 -6.7923218032177877 #
point $-1 51.149021881771297 -26.230908038614608 -6.7923218032177877 #
straight-curve $-1 -51.149021881771297 0 6.7923218032177877 0 -1 0 I I #
point $-1 -51.149021881771297 26.230908038614608 6.7923218032177877 #
point $-1 -51.149021881771297 -26.230908038614608 6.7923218032177877 #
straight-curve $-1 51.149021881771297 -26.230908038614608 0 0 0 -1 I I #
straight-curve $-1 51.149021881771297 26.230908038614608 0 0 0 -1 I I #
plane-surface $-1 0 -26.230908038614608 0 0 1 0 0 0 1 forward_v I I I I #
coedge $-1 $840 $557 $568 $753 reversed $380 $-1 #
coedge $-1 $557 $840 $572 $755 forward $380 $-1 #
edge $-1 $565 44.482152916936862 $841 51.149021881771297 $558 $842 forward 7 unknown #
straight-curve $-1 -44.482152916936862 26.230908038614608 2.6461609016088938 0 0 -1 I I #
coedge $-1 $568 $560 $563 $749 reversed $569 $-1 #
straight-curve $-1 -44.482152916936862 -26.230908038614608 2.6461609016088938 0 0 1 I I #
coedge $-1 $563 $562 $840 $843 forward $555 $-1 #
edge $-1 $844 -51.149021881771297 $564 -44.482152916936862 $746 $845 forward 7 unknown #
point $-1 -44.482152916936862 -26.230908038614608 6.7923218032177877 #
point $-1 -44.482152916936862 26.230908038614608 6.7923218032177877 #
straight-curve $-1 -51.149021881771297 0 3.7923218032177877 0 -1 0 I I #
edge $-1 $844 -6.7923218032177877 $570 -3.7923218032177877 $742 $846 forward 7 unknown #
point $-1 -51.149021881771297 -26.230908038614608 3.7923218032177877 #
edge $-1 $841 -6.7923218032177877 $573 -3.7923218032177877 $572 $847 forward 7 unknown #
point $-1 -51.149021881771297 26.230908038614608 3.7923218032177877 #
coedge $-1 $579 $761 $581 $759 reversed $396 $-1 #
straight-curve $-1 -28.280567765410375 26.230908038614608 51.095392441136262 0 0 -1 I I #
edge $-1 $582 28.280567765410375 $766 44.482152916936862 $757 $848 forward 7 unknown #
point $-1 -28.280567765410375 26.230908038614608 6.7923218032177877 #
coedge $-1 $757 $584 $587 $763 forward $396 $-1 #
straight-curve $-1 -18.190680170586809 26.230908038614608 0.54083436953143504 -1 0 0 I I #
edge $-1 $588 -50.554558071604824 $766 -44.303070637918474 $761 $849 forward 7 unknown #
point $-1 -44.482152916936862 26.230908038614608 0.5408343695314386 #
point $-1 -28.280567765410375 26.230908038614608 0.5408343695314386 #
vertex $-1 $592 $850 #
straight-curve $-1 -44.482152916936862 0 6.7923218032177877 0 -1 0 I I #
vertex $-1 $595 $851 #
point $-1 -38.353128587929291 21.68291738523018 2.0145635024165767 #
vertex $-1 $599 $852 #
point $-1 -31.409592094417945 21.68291738523018 2.0145635024165767 #
coedge $-1 $614 $613 $606 $773 forward $603 $-1 #
edge $-1 $774 44.303070637918474 $777 50.554558071604824 $772 $853 forward 7 unknown #
vertex $-1 $618 $854 #
straight-curve $-1 -4.3727740657333367 39.968849822845783 6.7923218032177886 0 1 0 I I #
edge $-1 $777 -1.8640092550149543 $615 14.337575896511535 $614 $855 forward 7 unknown #
vertex $-1 $776 $856 #
straight-curve $-1 -4.3727740657333367 -3.8599528620538024 43.51503868302224 0 -0.57357642473473569 0.81915205242281985 I I #
point $-1 -4.3727740657333367 21.853569544640941 6.7923218032177886 #
point $-1 -20.574359217259826 26.230908038614608 0.5408343695314386 #
straight-curve $-1 0 26.230908038614608 6.7923218032177877 -1 0 0 I I #
vertex $-1 $621 $857 #
point $-1 -14.445334888252255 21.68291738523018 2.0145635024165767 #
vertex $-1 $625 $858 #
point $-1 -7.5017983947409022 21.68291738523018 2.0145635024165767 #
coedge $-1 $640 $639 $632 $787 forward $629 $-1 #
edge $-1 $788 44.303070637918474 $791 50.554558071604824 $786 $859 forward 7 unknown #
vertex $-1 $644 $860 #
straight-curve $-1 19.535019633943705 39.968849822845783 6.7923218032177886 0 1 0 I I #
edge $-1 $791 -13.817906104853474 $641 2.3836790466730147 $640 $861 forward 7 unknown #
vertex $-1 $790 $862 #
straight-curve $-1 19.535019633943705 -3.8599528620538024 43.51503868302224 0 -0.57357642473473569 0.81915205242281985 I I #
point $-1 19.535019633943705 21.853569544640941 6.7923218032177886 #
point $-1 3.333434482417216 26.230908038614608 0.5408343695314386 #
straight-curve $-1 0 26.230908038614608 6.7923218032177877 -1 0 0 I I #
vertex $-1 $647 $863 #
point $-1 9.4624588114247885 21.68291738523018 2.0145635024165767 #
vertex $-1 $651 $864 #
point $-1 16.405995304936134 21.68291738523018 2.0145635024165767 #
coedge $-1 $666 $665 $658 $801 forward $655 $-1 #
edge $-1 $802 44.303070637918474 $805 50.554558071604824 $800 $865 forward 7 unknown #
vertex $-1 $670 $866 #
straight-curve $-1 43.442813333620748 39.968849822845783 6.7923218032177886 0 1 0 I I #
edge $-1 $805 -25.771802954691996 $667 -9.5702178031655087 $666 $867 forward 7 unknown #
vertex $-1 $804 $868 #
straight-curve $-1 43.442813333620748 -3.8599528620538024 43.51503868302224 0 -0.57357642473473569 0.81915205242281985 I I #
point $-1 43.442813333620748 21.853569544640941 6.7923218032177886 #
point $-1 27.241228182094261 26.230908038614608 0.5408343695314386 #
straight-curve $-1 0 26.230908038614608 6.7923218032177877 -1 0 0 I I #
vertex $-1 $673 $869 #
point $-1 33.370252511101832 21.68291738523018 2.0145635024165767 #
vertex $-1 $677 $870 #
point $-1 40.313789004613177 21.68291738523018 2.0145635024165767 #
edge $-1 $815 26.534227975289554 $818 32.429364237611175 $682 $871 forward 7 unknown #
vertex $-1 $696 $872 #
straight-curve $-1 -40.445215609594655 -52.297878426662777 6.7923218032177886 0 -1 0 I I #
edge $-1 $818 -24.434653669819472 $693 -7.5864702097308943 $692 $873 forward 7 unknown #
vertex $-1 $817 $874 #
straight-curve $-1 -40.445215609594655 -26.230908038614615 0.89718554089616021 0 0.64278759981090561 0.7660444514056185 I I #
point $-1 -40.445215609594655 -21.284301504668822 6.7923218032177877 #
point $-1 -23.597032149506077 -26.230908038614608 0.89718554089616864 #
straight-curve $-1 0 -26.230908038614608 6.7923218032177877 1 0 0 I I #
vertex $-1 $699 $875 #
point $-1 -30.521123879550366 -22.379825888102996 2.6886599493037129 #
edge $-1 $826 26.534227975289554 $829 32.429364237611175 $704 $876 forward 7 unknown #
vertex $-1 $718 $877 #
straight-curve $-1 30.263901114340513 -52.297878426662777 6.7923218032177886 0 -1 0 I I #
edge $-1 $829 10.919904692148112 $715 27.76808815223669 $714 $878 forward 7 unknown #
vertex $-1 $828 $879 #
straight-curve $-1 30.263901114340513 -26.230908038614615 0.89718554089616021 0 0.64278759981090561 0.7660444514056185 I I #
point $-1 30.263901114340513 -21.284301504668822 6.7923218032177877 #
point $-1 47.11208457442909 -26.230908038614608 0.89718554089616864 #
straight-curve $-1 0 -26.230908038614608 6.7923218032177877 1 0 0 I I #
vertex $-1 $721 $880 #
point $-1 40.187992844384802 -22.379825888102996 2.6886599493037129 #
straight-curve $-1 -51.149021881771297 26.230908038614608 0 0 0 -1 I I #
point $-1 -51.149021881771297 -26.230908038614608 -6.7923218032177877 #
straight-curve $-1 -51.149021881771297 0 -6.7923218032177877 0 1 0 I I #
point $-1 -51.149021881771297 26.230908038614608 -6.7923218032177877 #
coedge $-1 $743 $742 $748 $843 reversed $380 $-1 #
vertex $-1 $744 $881 #
straight-curve $-1 0 26.230908038614608 6.7923218032177877 -1 0 0 I I #
edge $-1 $841 -26.230908038614608 $844 26.230908038614608 $840 $882 forward 7 unknown #
vertex $-1 $843 $883 #
straight-curve $-1 0 -26.230908038614608 6.7923218032177877 1 0 0 I I #
straight-curve $-1 -51.149021881771297 -26.230908038614608 0 0 0 -1 I I #
straight-curve $-1 -51.149021881771297 26.230908038614608 0 0 0 -1 I I #
straight-curve $-1 0 26.230908038614608 6.7923218032177877 -1 0 0 I I #
straight-curve $-1 -44.482152916936862 26.230908038614608 51.095392441136262 0 0 1 I I #
point $-1 -44.482152916936862 26.230908038614608 6.7923218032177877 #
point $-1 -39.853128587929291 20.454189306595953 1.1541988653144732 #
point $-1 -32.909592094417945 20.454189306595953 1.1541988653144732 #
straight-curve $-1 -4.3727740657333367 26.230908038614608 51.095392441136262 0 0 -1 I I #
point $-1 -4.3727740657333367 26.230908038614608 6.7923218032177877 #
straight-curve $-1 -6.236783320748291 26.230908038614608 0.54083436953143504 -1 0 0 I I #
point $-1 -4.3727740657333367 26.230908038614608 0.5408343695314386 #
point $-1 -15.945334888252255 20.454189306595953 1.1541988653144732 #
point $-1 -9.0017983947409022 20.454189306595953 1.1541988653144732 #
straight-curve $-1 19.535019633943705 26.230908038614608 51.095392441136262 0 0 -1 I I #
point $-1 19.535019633943705 26.230908038614608 6.7923218032177877 #
straight-curve $-1 5.7171135290902306 26.230908038614608 0.54083436953143504 -1 0 0 I I #
point $-1 19.535019633943705 26.230908038614608 0.5408343695314386 #
point $-1 7.9624588114247885 20.454189306595953 1.1541988653144732 #
point $-1 14.905995304936134 20.454189306595953 1.1541988653144732 #
straight-curve $-1 43.442813333620748 26.230908038614608 51.095392441136262 0 0 -1 I I #
point $-1 43.442813333620748 26.230908038614608 6.7923218032177877 #
straight-curve $-1 17.671010378928752 26.230908038614608 0.54083436953143504 -1 0 0 I I #
point $-1 43.442813333620748 26.230908038614608 0.5408343695314386 #
point $-1 31.870252511101832 20.454189306595953 1.1541988653144732 #
point $-1 38.813789004613177 20.454189306595953 1.1541988653144732 #
straight-curve $-1 -40.445215609594655 -26.230908038614608 33.326549778507342 0 0 -1 I I #
point $-1 -40.445215609594655 -26.230908038614608 6.7923218032177877 #
straight-curve $-1 -16.010561939775183 -26.230908038614608 0.89718554089616998 1 0 0 I I #
point $-1 -40.445215609594655 -26.230908038614608 0.89718554089616864 #
point $-1 -32.021123879550366 -21.230759210994567 1.7244785495873542 #
straight-curve $-1 30.263901114340513 -26.230908038614608 33.326549778507342 0 0 -1 I I #
point $-1 30.263901114340513 -26.230908038614608 6.7923218032177877 #
straight-curve $-1 19.343996422192401 -26.230908038614608 0.89718554089616998 1 0 0 I I #
point $-1 30.263901114340513 -26.230908038614608 0.89718554089616864 #
point $-1 38.687992844384802 -21.230759210994567 1.7244785495873542 #
point $-1 -51.149021881771297 26.230908038614608 6.7923218032177877 #
straight-curve $-1 -51.149021881771297 0 6.7923218032177877 0 -1 0 I I #
point $-1 -51.149021881771297 -26.230908038614608 6.7923218032177877 #
End-of-ACIS-data 