500 0 13 0           
7 Unknown 11 ACIS 5.0 NT 24 Thu Mar 25 17:25:22 1999 
-1 9.9999999999999995e-007 1e-010 
body $-1 $13 $-1 $14 #
body $-1 $15 $-1 $16 #
body $-1 $17 $-1 $18 #
body $-1 $19 $-1 $20 #
body $-1 $21 $-1 $22 #
body $-1 $23 $-1 $24 #
body $-1 $25 $-1 $26 #
body $-1 $27 $-1 $28 #
body $-1 $29 $-1 $30 #
body $-1 $31 $-1 $32 #
body $-1 $33 $-1 $34 #
body $-1 $35 $-1 $36 #
body $-1 $37 $-1 $38 #
lump $-1 $-1 $39 $0 #
transform $-1 1 0 0 0 1 0 0 0 1 59.628284554582351 37.871885774689019 9.401339948115421 1 rotate no_reflect no_shear #
lump $-1 $-1 $40 $1 #
transform $-1 1 0 0 0 1 0 0 0 1 59.628284554582351 37.871885774689019 9.401339948115421 1 rotate no_reflect no_shear #
lump $-1 $-1 $41 $2 #
transform $-1 1 0 0 0 1 0 0 0 1 59.628284554582351 37.871885774689019 9.401339948115421 1 rotate no_reflect no_shear #
lump $-1 $-1 $42 $3 #
transform $-1 1 0 0 0 1 0 0 0 1 59.628284554582351 37.871885774689019 9.401339948115421 1 rotate no_reflect no_shear #
lump $-1 $-1 $43 $4 #
transform $-1 1 0 0 0 1 0 0 0 1 59.628284554582351 37.871885774689019 9.401339948115421 1 rotate no_reflect no_shear #
lump $-1 $-1 $44 $5 #
transform $-1 1 0 0 0 1 0 0 0 1 59.628284554582351 37.871885774689019 9.401339948115421 1 rotate no_reflect no_shear #
lump $-1 $-1 $45 $6 #
transform $-1 1 0 0 0 1 0 0 0 1 59.628284554582351 37.871885774689019 9.401339948115421 1 rotate no_reflect no_shear #
lump $-1 $-1 $46 $7 #
transform $-1 1 0 0 0 1 0 0 0 1 59.628284554582351 37.871885774689019 9.401339948115421 1 rotate no_reflect no_shear #
lump $-1 $-1 $47 $8 #
transform $-1 1 0 0 0 1 0 0 0 1 59.628284554582351 37.871885774689019 9.401339948115421 1 rotate no_reflect no_shear #
lump $-1 $-1 $48 $9 #
transform $-1 1 0 0 0 1 0 0 0 1 59.628284554582351 37.871885774689019 9.401339948115421 1 rotate no_reflect no_shear #
lump $-1 $-1 $49 $10 #
transform $-1 1 0 0 0 1 0 0 0 1 59.628284554582351 37.871885774689019 9.401339948115421 1 rotate no_reflect no_shear #
lump $-1 $-1 $50 $11 #
transform $-1 1 0 0 0 1 0 0 0 1 59.628284554582351 37.871885774689019 9.401339948115421 1 rotate no_reflect no_shear #
lump $-1 $-1 $51 $12 #
transform $-1 1 0 0 0 1 0 0 0 1 59.628284554582351 37.871885774689019 9.401339948115421 1 rotate no_reflect no_shear #
shell $-1 $-1 $-1 $52 $-1 $13 #
shell $-1 $-1 $-1 $53 $-1 $15 #
shell $-1 $-1 $-1 $54 $-1 $17 #
shell $-1 $-1 $-1 $55 $-1 $19 #
shell $-1 $-1 $-1 $56 $-1 $21 #
shell $-1 $-1 $-1 $57 $-1 $23 #
shell $-1 $-1 $-1 $58 $-1 $25 #
shell $-1 $-1 $-1 $59 $-1 $27 #
shell $-1 $-1 $-1 $60 $-1 $29 #
shell $-1 $-1 $-1 $61 $-1 $31 #
shell $-1 $-1 $-1 $62 $-1 $33 #
shell $-1 $-1 $-1 $63 $-1 $35 #
shell $-1 $-1 $-1 $64 $-1 $37 #
face $-1 $65 $66 $39 $-1 $67 forward single #
face $-1 $68 $69 $40 $-1 $70 reversed single #
face $-1 $71 $72 $41 $-1 $73 forward single #
face $-1 $74 $75 $42 $-1 $76 forward single #
face $-1 $77 $78 $43 $-1 $79 forward single #
face $-1 $80 $81 $44 $-1 $82 reversed single #
face $-1 $83 $84 $45 $-1 $85 forward single #
face $-1 $86 $87 $46 $-1 $88 forward single #
face $-1 $89 $90 $47 $-1 $91 forward single #
face $-1 $92 $93 $48 $-1 $94 reversed single #
face $-1 $95 $96 $49 $-1 $97 forward single #
face $-1 $98 $99 $50 $-1 $100 forward single #
face $-1 $101 $102 $51 $-1 $103 forward single #
face $-1 $104 $105 $39 $-1 $106 reversed single #
loop $-1 $-1 $107 $52 #
plane-surface $-1 0 0 9.401339948115421 0 0 1 1 0 0 forward_v I I I I #
face $-1 $108 $109 $40 $-1 $110 reversed single #
loop $-1 $-1 $111 $53 #
plane-surface $-1 -27.329423260001303 -130.55164782197267 80.626731525730492 -1 0 0 0 -0.77714596973225614 0.62932038083071107 forward_v I I I I #
face $-1 $112 $113 $41 $-1 $114 forward single #
loop $-1 $115 $116 $54 #
cone-surface $-1 -45.708772406268977 -35.775128374606084 7.0450074169367198 0 0.77714596973225614 -0.62932038083071107 0.5 0 0 1 I I 0 1 0.5 forward I I I I #
face $-1 $117 $118 $42 $-1 $119 forward single #
loop $-1 $120 $121 $55 #
cone-surface $-1 -38.816516476418599 -35.775128374606084 7.0450074169367198 0 0.77714596973225614 -0.62932038083071107 0.5 0 0 1 I I 0 1 0.5 forward I I I I #
face $-1 $122 $123 $43 $-1 $124 forward single #
loop $-1 $125 $126 $56 #
cone-surface $-1 -31.92426054656822 -35.775128374606084 7.0450074169367198 0 0.77714596973225614 -0.62932038083071107 0.5 0 0 1 I I 0 1 0.5 forward I I I I #
face $-1 $127 $128 $44 $-1 $129 reversed single #
loop $-1 $-1 $130 $57 #
plane-surface $-1 50.303609692835906 -130.55164782197267 80.626731525730492 -1 0 0 0 -0.77714596973225614 0.62932038083071107 forward_v I I I I #
face $-1 $131 $132 $45 $-1 $133 forward single #
loop $-1 $134 $135 $58 #
cone-surface $-1 31.924260546568235 -35.775128374606084 7.0450074169367198 0 0.77714596973225614 -0.62932038083071107 0.5 0 0 1 I I 0 1 0.5 forward I I I I #
face $-1 $136 $137 $46 $-1 $138 forward single #
loop $-1 $139 $140 $59 #
cone-surface $-1 38.816516476418613 -35.775128374606084 7.0450074169367198 0 0.77714596973225614 -0.62932038083071107 0.5 0 0 1 I I 0 1 0.5 forward I I I I #
face $-1 $141 $142 $47 $-1 $143 forward single #
loop $-1 $144 $145 $60 #
cone-surface $-1 45.708772406268992 -35.775128374606084 7.0450074169367198 0 0.77714596973225614 -0.62932038083071107 0.5 0 0 1 I I 0 1 0.5 forward I I I I #
face $-1 $146 $147 $48 $-1 $148 reversed single #
loop $-1 $-1 $149 $61 #
plane-surface $-1 41.120168740170428 78.183577481788859 137.44364546543625 1 0 0 0 -0.75470958851134928 -0.65605901945558964 forward_v I I I I #
face $-1 $150 $151 $49 $-1 $152 forward single #
loop $-1 $153 $154 $62 #
cone-surface $-1 44.821791903052812 33.509284462156124 4.7096205420852746 0 -0.75470958851134928 -0.65605901945558964 1.5 0 0 1 I I 0 1 1.5 forward I I I I #
face $-1 $155 $156 $50 $-1 $157 forward single #
loop $-1 $158 $159 $63 #
cone-surface $-1 50.374226647376389 33.509284462156124 4.7096205420852746 0 -0.75470958851134928 -0.65605901945558964 1.5 0 0 1 I I 0 1 1.5 forward I I I I #
face $-1 $160 $161 $51 $-1 $162 forward single #
loop $-1 $163 $164 $64 #
cone-surface $-1 55.926661391699966 33.509284462156124 4.7096205420852746 0 -0.75470958851134928 -0.65605901945558964 1.5 0 0 1 I I 0 1 1.5 forward I I I I #
face $-1 $165 $166 $39 $-1 $167 reversed single #
loop $-1 $-1 $168 $65 #
plane-surface $-1 0 0 -9.401339948115421 0 0 1 1 0 0 forward_v I I I I #
coedge $-1 $169 $170 $171 $172 forward $66 $-1 #
face $-1 $173 $174 $40 $-1 $175 reversed single #
loop $-1 $-1 $176 $68 #
plane-surface $-1 -38.816516476418599 -37.871885774689048 5.5761420373869441 0 -0.77714596973225614 0.62932038083071107 1 0 0 forward_v I I I I #
coedge $-1 $177 $178 $179 $180 reversed $69 $-1 #
face $-1 $-1 $181 $41 $-1 $182 forward single #
loop $-1 $183 $184 $71 #
cone-surface $-1 -45.708772406268977 -35.032876536407642 6.4439437459145719 0 0.77714596973225614 -0.62932038083071107 0.25 0 0 1 I I -0.70710678118654746 0.70710678118654746 0.25 forward I I I I #
loop $-1 $-1 $185 $54 #
coedge $-1 $116 $116 $186 $187 reversed $72 $-1 #
face $-1 $-1 $188 $42 $-1 $189 forward single #
loop $-1 $190 $191 $74 #
cone-surface $-1 -38.816516476418599 -35.032876536407642 6.4439437459145719 0 0.77714596973225614 -0.62932038083071107 0.25 0 0 1 I I -0.70710678118654746 0.70710678118654746 0.25 forward I I I I #
loop $-1 $-1 $192 $55 #
coedge $-1 $121 $121 $193 $194 reversed $75 $-1 #
face $-1 $-1 $195 $43 $-1 $196 forward single #
loop $-1 $197 $198 $77 #
cone-surface $-1 -31.92426054656822 -35.032876536407642 6.4439437459145719 0 0.77714596973225614 -0.62932038083071107 0.25 0 0 1 I I -0.70710678118654746 0.70710678118654746 0.25 forward I I I I #
loop $-1 $-1 $199 $56 #
coedge $-1 $126 $126 $200 $201 reversed $78 $-1 #
face $-1 $202 $203 $44 $-1 $204 reversed single #
loop $-1 $-1 $205 $80 #
plane-surface $-1 38.816516476418613 -37.871885774689048 5.5761420373869441 0 -0.77714596973225614 0.62932038083071107 1 0 0 forward_v I I I I #
coedge $-1 $206 $207 $208 $209 reversed $81 $-1 #
face $-1 $-1 $210 $45 $-1 $211 forward single #
loop $-1 $212 $213 $83 #
cone-surface $-1 31.924260546568235 -35.032876536407642 6.4439437459145719 0 0.77714596973225614 -0.62932038083071107 0.25 0 0 1 I I -0.70710678118654746 0.70710678118654746 0.25 forward I I I I #
loop $-1 $-1 $214 $58 #
coedge $-1 $135 $135 $215 $216 reversed $84 $-1 #
face $-1 $-1 $217 $46 $-1 $218 forward single #
loop $-1 $219 $220 $86 #
cone-surface $-1 38.816516476418613 -35.032876536407642 6.4439437459145719 0 0.77714596973225614 -0.62932038083071107 0.25 0 0 1 I I -0.70710678118654746 0.70710678118654746 0.25 forward I I I I #
loop $-1 $-1 $221 $59 #
coedge $-1 $140 $140 $222 $223 reversed $87 $-1 #
face $-1 $-1 $224 $47 $-1 $225 forward single #
loop $-1 $226 $227 $89 #
cone-surface $-1 45.708772406268992 -35.032876536407642 6.4439437459145719 0 0.77714596973225614 -0.62932038083071107 0.25 0 0 1 I I -0.70710678118654746 0.70710678118654746 0.25 forward I I I I #
loop $-1 $-1 $228 $60 #
coedge $-1 $145 $145 $229 $230 reversed $90 $-1 #
face $-1 $231 $232 $48 $-1 $233 forward single #
loop $-1 $-1 $234 $92 #
plane-surface $-1 50.374226647376389 -11.820498717864126 59.204297672039885 0 0.75470958851134928 0.65605901945558964 1 0 0 forward_v I I I I #
coedge $-1 $235 $236 $237 $238 reversed $93 $-1 #
face $-1 $-1 $239 $49 $-1 $240 forward single #
loop $-1 $241 $242 $95 #
cone-surface $-1 44.821791903052812 31.780318430136319 3.2066533386655749 0 -0.75470958851134928 -0.65605901945558964 0.75 0 0 1 I I -0.70710678118654768 0.70710678118654735 0.75 forward I I I I #
loop $-1 $-1 $243 $62 #
coedge $-1 $154 $154 $244 $245 reversed $96 $-1 #
face $-1 $-1 $246 $50 $-1 $247 forward single #
loop $-1 $248 $249 $98 #
cone-surface $-1 50.374226647376389 31.780318430136319 3.2066533386655749 0 -0.75470958851134928 -0.65605901945558964 0.75 0 0 1 I I -0.70710678118654768 0.70710678118654735 0.75 forward I I I I #
loop $-1 $-1 $250 $63 #
coedge $-1 $159 $159 $251 $252 reversed $99 $-1 #
face $-1 $-1 $253 $51 $-1 $254 forward single #
loop $-1 $255 $256 $101 #
cone-surface $-1 55.926661391699966 31.780318430136319 3.2066533386655749 0 -0.75470958851134928 -0.65605901945558964 0.75 0 0 1 I I -0.70710678118654768 0.70710678118654735 0.75 forward I I I I #
loop $-1 $-1 $257 $64 #
coedge $-1 $164 $164 $258 $259 reversed $102 $-1 #
face $-1 $260 $261 $39 $-1 $262 reversed single #
loop $-1 $-1 $263 $104 #
plane-surface $-1 0 -37.871885774689019 0 0 1 0 0 0 1 forward_v I I I I #
coedge $-1 $264 $265 $266 $267 forward $105 $-1 #
coedge $-1 $268 $107 $269 $270 forward $66 $-1 #
coedge $-1 $107 $268 $271 $272 forward $66 $-1 #
coedge $-1 $273 $274 $107 $172 reversed $275 $-1 #
edge $-1 $276 -37.871885774689019 $277 37.871885774689019 $171 $278 forward 7 unknown #
face $-1 $279 $280 $40 $-1 $281 reversed single #
loop $-1 $-1 $282 $108 #
plane-surface $-1 -50.303609692835892 -130.55164782197267 80.626731525730492 1 0 0 0 0.77714596973225614 -0.62932038083071107 forward_v I I I I #
coedge $-1 $283 $284 $285 $286 reversed $109 $-1 #
coedge $-1 $178 $111 $287 $288 reversed $69 $-1 #
coedge $-1 $111 $177 $283 $289 reversed $69 $-1 #
coedge $-1 $285 $290 $111 $180 forward $291 $-1 #
edge $-1 $292 27.403938136297313 $293 30.501522244932431 $179 $294 forward 7 unknown #
loop $-1 $-1 $186 $112 #
plane-surface $-1 -38.816516476418599 -37.871885774689048 5.5761420373869441 0 -0.77714596973225614 0.62932038083071107 1 0 0 forward_v I I I I #
loop $-1 $-1 $295 $71 #
coedge $-1 $184 $184 $185 $296 reversed $113 $-1 #
coedge $-1 $185 $185 $184 $296 forward $115 $-1 #
coedge $-1 $186 $186 $116 $187 forward $181 $-1 #
edge $-1 $297 9.6034296513242616e-015 $297 6.2831853071796102 $186 $298 forward 7 unknown #
loop $-1 $-1 $193 $117 #
plane-surface $-1 -38.816516476418599 -37.871885774689048 5.5761420373869441 0 -0.77714596973225614 0.62932038083071107 1 0 0 forward_v I I I I #
loop $-1 $-1 $299 $74 #
coedge $-1 $191 $191 $192 $300 reversed $118 $-1 #
coedge $-1 $192 $192 $191 $300 forward $120 $-1 #
coedge $-1 $193 $193 $121 $194 forward $188 $-1 #
edge $-1 $301 9.6034296513242616e-015 $301 6.2831853071796102 $193 $302 forward 7 unknown #
loop $-1 $-1 $200 $122 #
plane-surface $-1 -38.816516476418599 -37.871885774689048 5.5761420373869441 0 -0.77714596973225614 0.62932038083071107 1 0 0 forward_v I I I I #
loop $-1 $-1 $303 $77 #
coedge $-1 $198 $198 $199 $304 reversed $123 $-1 #
coedge $-1 $199 $199 $198 $304 forward $125 $-1 #
coedge $-1 $200 $200 $126 $201 forward $195 $-1 #
edge $-1 $305 9.6034296513242616e-015 $305 6.2831853071796102 $200 $306 forward 7 unknown #
face $-1 $307 $308 $44 $-1 $309 reversed single #
loop $-1 $-1 $310 $127 #
plane-surface $-1 27.329423260001317 -130.55164782197267 80.626731525730492 1 0 0 0 0.77714596973225614 -0.62932038083071107 forward_v I I I I #
coedge $-1 $311 $312 $313 $314 reversed $128 $-1 #
coedge $-1 $207 $130 $315 $316 reversed $81 $-1 #
coedge $-1 $130 $206 $311 $317 reversed $81 $-1 #
coedge $-1 $313 $318 $130 $209 forward $319 $-1 #
edge $-1 $320 27.403938136297313 $321 30.501522244932431 $208 $322 forward 7 unknown #
loop $-1 $-1 $215 $131 #
plane-surface $-1 38.816516476418613 -37.871885774689048 5.5761420373869441 0 -0.77714596973225614 0.62932038083071107 1 0 0 forward_v I I I I #
loop $-1 $-1 $323 $83 #
coedge $-1 $213 $213 $214 $324 reversed $132 $-1 #
coedge $-1 $214 $214 $213 $324 forward $134 $-1 #
coedge $-1 $215 $215 $135 $216 forward $210 $-1 #
edge $-1 $325 9.6034296513242616e-015 $325 6.2831853071796102 $215 $326 forward 7 unknown #
loop $-1 $-1 $222 $136 #
plane-surface $-1 38.816516476418613 -37.871885774689048 5.5761420373869441 0 -0.77714596973225614 0.62932038083071107 1 0 0 forward_v I I I I #
loop $-1 $-1 $327 $86 #
coedge $-1 $220 $220 $221 $328 reversed $137 $-1 #
coedge $-1 $221 $221 $220 $328 forward $139 $-1 #
coedge $-1 $222 $222 $140 $223 forward $217 $-1 #
edge $-1 $329 9.6034296513242616e-015 $329 6.2831853071796102 $222 $330 forward 7 unknown #
loop $-1 $-1 $229 $141 #
plane-surface $-1 38.816516476418613 -37.871885774689048 5.5761420373869441 0 -0.77714596973225614 0.62932038083071107 1 0 0 forward_v I I I I #
loop $-1 $-1 $331 $89 #
coedge $-1 $227 $227 $228 $332 reversed $142 $-1 #
coedge $-1 $228 $228 $227 $332 forward $144 $-1 #
coedge $-1 $229 $229 $145 $230 forward $224 $-1 #
edge $-1 $333 9.6034296513242616e-015 $333 6.2831853071796102 $229 $334 forward 7 unknown #
face $-1 $335 $336 $48 $-1 $337 reversed single #
loop $-1 $-1 $237 $146 #
plane-surface $-1 0 0 9.401339948115421 0 0 1 1 0 0 forward_v I I I I #
coedge $-1 $338 $339 $340 $341 reversed $147 $-1 #
coedge $-1 $236 $149 $342 $343 reversed $93 $-1 #
coedge $-1 $149 $235 $338 $344 reversed $93 $-1 #
coedge $-1 $340 $345 $149 $238 forward $232 $-1 #
edge $-1 $346 1.2199029662054102 $347 7.619237909998624 $237 $348 forward 7 unknown #
loop $-1 $-1 $244 $150 #
plane-surface $-1 50.374226647376389 -11.820498717864126 59.204297672039885 0 0.75470958851134928 0.65605901945558964 1 0 0 forward_v I I I I #
loop $-1 $-1 $349 $95 #
coedge $-1 $242 $242 $243 $350 reversed $151 $-1 #
coedge $-1 $243 $243 $242 $350 forward $153 $-1 #
coedge $-1 $244 $244 $154 $245 forward $239 $-1 #
edge $-1 $351 -4.4687784643769473e-016 $351 6.2831853071795996 $244 $352 forward 7 unknown #
loop $-1 $-1 $251 $155 #
plane-surface $-1 50.374226647376389 -11.820498717864126 59.204297672039885 0 0.75470958851134928 0.65605901945558964 1 0 0 forward_v I I I I #
loop $-1 $-1 $353 $98 #
coedge $-1 $249 $249 $250 $354 reversed $156 $-1 #
coedge $-1 $250 $250 $249 $354 forward $158 $-1 #
coedge $-1 $251 $251 $159 $252 forward $246 $-1 #
edge $-1 $355 -4.4687784643769473e-016 $355 6.2831853071795996 $251 $356 forward 7 unknown #
loop $-1 $-1 $258 $160 #
plane-surface $-1 50.374226647376389 -11.820498717864126 59.204297672039885 0 0.75470958851134928 0.65605901945558964 1 0 0 forward_v I I I I #
loop $-1 $-1 $357 $101 #
coedge $-1 $256 $256 $257 $358 reversed $161 $-1 #
coedge $-1 $257 $257 $256 $358 forward $163 $-1 #
coedge $-1 $258 $258 $164 $259 forward $253 $-1 #
edge $-1 $359 -4.4687784643769473e-016 $359 6.2831853071795996 $258 $360 forward 7 unknown #
face $-1 $361 $362 $39 $-1 $363 reversed single #
loop $-1 $-1 $364 $165 #
plane-surface $-1 -59.628284554582351 0 0 1 0 0 0 0 -1 forward_v I I I I #
coedge $-1 $365 $271 $366 $367 forward $166 $-1 #
coedge $-1 $368 $168 $365 $369 forward $105 $-1 #
coedge $-1 $168 $368 $370 $371 forward $105 $-1 #
coedge $-1 $274 $273 $168 $267 reversed $275 $-1 #
edge $-1 $372 -37.871885774689019 $373 37.871885774689019 $266 $374 forward 7 unknown #
coedge $-1 $170 $169 $375 $376 forward $66 $-1 #
coedge $-1 $377 $378 $169 $270 reversed $362 $-1 #
edge $-1 $277 -59.628284554582351 $379 59.628284554582351 $269 $380 forward 7 unknown #
coedge $-1 $263 $381 $170 $272 reversed $166 $-1 #
edge $-1 $382 -59.628284554582351 $276 59.628284554582351 $271 $383 forward 7 unknown #
coedge $-1 $266 $171 $381 $384 forward $275 $-1 #
coedge $-1 $171 $266 $377 $385 reversed $275 $-1 #
loop $-1 $-1 $273 $361 #
vertex $-1 $172 $386 #
vertex $-1 $172 $387 #
straight-curve $-1 59.628284554582351 0 9.401339948115421 0 1 0 I I #
face $-1 $-1 $291 $40 $-1 $388 forward single #
loop $-1 $-1 $389 $173 #
plane-surface $-1 0 -37.871885774689019 0 0 1 0 0 0 1 forward_v I I I I #
coedge $-1 $390 $391 $392 $393 reversed $174 $-1 #
coedge $-1 $394 $176 $178 $289 forward $109 $-1 #
coedge $-1 $176 $394 $390 $395 forward $109 $-1 #
coedge $-1 $392 $179 $176 $286 forward $291 $-1 #
edge $-1 $293 7.9211650217920031 $396 30.895351454626592 $285 $397 forward 7 unknown #
coedge $-1 $398 $399 $177 $288 forward $280 $-1 #
edge $-1 $400 -34.737223725478266 $292 -30.912025814749825 $287 $401 forward 7 unknown #
edge $-1 $293 -4.9221099506523114 $400 -4.5496132173526324e-014 $178 $402 forward 7 unknown #
coedge $-1 $179 $392 $398 $403 forward $291 $-1 #
loop $-1 $-1 $392 $279 #
vertex $-1 $288 $404 #
vertex $-1 $180 $405 #
straight-curve $-1 -27.329423260001303 -65.275823910986333 9.401339948115421 0 1 0 I I #
coedge $-1 $295 $295 $-1 $406 reversed $183 $-1 #
edge $-1 $407 0 $407 6.2831853071796004 $184 $408 forward 7 unknown #
vertex $-1 $187 $409 #
ellipse-curve $-1 -45.708772406268977 -36.323093720371467 7.488740992751195 0 -0.77714596973225614 0.62932038083071107 0.5 0 0 1 I I #
coedge $-1 $299 $299 $-1 $410 reversed $190 $-1 #
edge $-1 $411 0 $411 6.2831853071796004 $191 $412 forward 7 unknown #
vertex $-1 $194 $413 #
ellipse-curve $-1 -38.816516476418599 -36.323093720371467 7.488740992751195 0 -0.77714596973225614 0.62932038083071107 0.5 0 0 1 I I #
coedge $-1 $303 $303 $-1 $414 reversed $197 $-1 #
edge $-1 $415 0 $415 6.2831853071796004 $198 $416 forward 7 unknown #
vertex $-1 $201 $417 #
ellipse-curve $-1 -31.92426054656822 -36.323093720371467 7.488740992751195 0 -0.77714596973225614 0.62932038083071107 0.5 0 0 1 I I #
face $-1 $-1 $319 $44 $-1 $418 forward single #
loop $-1 $-1 $419 $202 #
plane-surface $-1 0 -37.871885774689019 0 0 1 0 0 0 1 forward_v I I I I #
coedge $-1 $420 $421 $422 $423 reversed $203 $-1 #
coedge $-1 $424 $205 $207 $317 forward $128 $-1 #
coedge $-1 $205 $424 $420 $425 forward $128 $-1 #
coedge $-1 $422 $208 $205 $314 forward $319 $-1 #
edge $-1 $321 -30.895351454626599 $426 -7.9211650217920102 $313 $427 forward 7 unknown #
coedge $-1 $428 $429 $206 $316 forward $308 $-1 #
edge $-1 $430 -34.737223725478266 $320 -30.912025814749825 $315 $431 forward 7 unknown #
edge $-1 $321 -4.9221099506523114 $430 -4.5496132173526324e-014 $207 $432 forward 7 unknown #
coedge $-1 $208 $422 $428 $433 forward $319 $-1 #
loop $-1 $-1 $422 $307 #
vertex $-1 $316 $434 #
vertex $-1 $209 $435 #
straight-curve $-1 50.303609692835906 -65.275823910986333 9.401339948115421 0 1 0 I I #
coedge $-1 $323 $323 $-1 $436 reversed $212 $-1 #
edge $-1 $437 0 $437 6.2831853071796004 $213 $438 forward 7 unknown #
vertex $-1 $216 $439 #
ellipse-curve $-1 31.924260546568235 -36.323093720371467 7.488740992751195 0 -0.77714596973225614 0.62932038083071107 0.5 0 0 1 I I #
coedge $-1 $327 $327 $-1 $440 reversed $219 $-1 #
edge $-1 $441 0 $441 6.2831853071796004 $220 $442 forward 7 unknown #
vertex $-1 $223 $443 #
ellipse-curve $-1 38.816516476418613 -36.323093720371467 7.488740992751195 0 -0.77714596973225614 0.62932038083071107 0.5 0 0 1 I I #
coedge $-1 $331 $331 $-1 $444 reversed $226 $-1 #
edge $-1 $445 0 $445 6.2831853071796004 $227 $446 forward 7 unknown #
vertex $-1 $230 $447 #
ellipse-curve $-1 45.708772406268992 -36.323093720371467 7.488740992751195 0 -0.77714596973225614 0.62932038083071107 0.5 0 0 1 I I #
face $-1 $-1 $448 $48 $-1 $449 reversed single #
loop $-1 $-1 $342 $231 #
plane-surface $-1 0 37.871885774689019 0 0 -1 0 0 0 -1 forward_v I I I I #
coedge $-1 $450 $234 $236 $344 forward $147 $-1 #
coedge $-1 $234 $450 $451 $452 reversed $147 $-1 #
coedge $-1 $453 $237 $234 $341 forward $232 $-1 #
edge $-1 $347 15.933055416482233 $454 34.441171230894156 $340 $455 forward 7 unknown #
coedge $-1 $456 $457 $235 $343 forward $336 $-1 #
edge $-1 $458 -66.682075719006974 $346 -59.320482784602703 $342 $459 forward 7 unknown #
edge $-1 $347 65.989565366672863 $458 75.743771549378053 $236 $460 forward 7 unknown #
coedge $-1 $237 $453 $456 $461 forward $232 $-1 #
vertex $-1 $343 $462 #
vertex $-1 $238 $463 #
straight-curve $-1 41.120168740170428 39.09178874089443 9.401339948115421 0 -1 0 I I #
coedge $-1 $349 $349 $-1 $464 reversed $241 $-1 #
edge $-1 $465 0 $465 6.2831853071796004 $242 $466 forward 7 unknown #
vertex $-1 $245 $467 #
ellipse-curve $-1 44.821791903052812 34.672218302792416 5.7205434809132809 0 0.75470958851134928 0.65605901945558964 1.5 0 0 1 I I #
coedge $-1 $353 $353 $-1 $468 reversed $248 $-1 #
edge $-1 $469 0 $469 6.2831853071796004 $249 $470 forward 7 unknown #
vertex $-1 $252 $471 #
ellipse-curve $-1 50.374226647376389 34.672218302792416 5.7205434809132809 0 0.75470958851134928 0.65605901945558964 1.5 0 0 1 I I #
coedge $-1 $357 $357 $-1 $472 reversed $255 $-1 #
edge $-1 $473 0 $473 6.2831853071796004 $256 $474 forward 7 unknown #
vertex $-1 $259 $475 #
ellipse-curve $-1 55.926661391699966 34.672218302792416 5.7205434809132809 0 0.75470958851134928 0.65605901945558964 1.5 0 0 1 I I #
face $-1 $-1 $275 $39 $-1 $476 reversed single #
loop $-1 $-1 $377 $260 #
plane-surface $-1 0 37.871885774689019 0 0 -1 0 0 0 -1 forward_v I I I I #
coedge $-1 $477 $375 $378 $478 forward $261 $-1 #
coedge $-1 $381 $263 $264 $369 reversed $166 $-1 #
coedge $-1 $375 $477 $263 $367 reversed $261 $-1 #
edge $-1 $382 -9.401339948115421 $479 9.401339948115421 $366 $480 forward 7 unknown #
coedge $-1 $265 $264 $477 $481 forward $105 $-1 #
edge $-1 $373 -59.628284554582351 $479 59.628284554582351 $365 $482 forward 7 unknown #
coedge $-1 $378 $377 $265 $371 reversed $362 $-1 #
edge $-1 $483 -59.628284554582351 $372 59.628284554582351 $370 $484 forward 7 unknown #
vertex $-1 $267 $485 #
vertex $-1 $384 $486 #
straight-curve $-1 59.628284554582351 0 -9.401339948115421 0 -1 0 I I #
coedge $-1 $364 $366 $268 $376 reversed $261 $-1 #
edge $-1 $379 -37.871885774689019 $382 37.871885774689019 $375 $487 forward 7 unknown #
coedge $-1 $370 $269 $274 $385 forward $362 $-1 #
coedge $-1 $269 $370 $364 $478 reversed $362 $-1 #
vertex $-1 $270 $488 #
straight-curve $-1 0 37.871885774689019 9.401339948115421 -1 0 0 I I #
coedge $-1 $271 $365 $273 $384 reversed $166 $-1 #
vertex $-1 $376 $489 #
straight-curve $-1 0 -37.871885774689019 9.401339948115421 1 0 0 I I #
edge $-1 $276 -9.401339948115421 $373 9.401339948115421 $273 $490 forward 7 unknown #
edge $-1 $277 -9.401339948115421 $372 9.401339948115421 $274 $491 forward 7 unknown #
point $-1 59.628284554582351 -37.871885774689019 9.401339948115421 #
point $-1 59.628284554582351 37.871885774689019 9.401339948115421 #
plane-surface $-1 0 0 9.401339948115421 0 0 1 1 0 0 forward_v I I I I #
coedge $-1 $399 $398 $391 $492 forward $280 $-1 #
coedge $-1 $391 $282 $284 $395 reversed $174 $-1 #
coedge $-1 $282 $390 $389 $492 reversed $174 $-1 #
coedge $-1 $290 $285 $282 $393 forward $291 $-1 #
edge $-1 $396 -30.501522244932431 $493 -27.403938136297313 $392 $494 forward 7 unknown #
coedge $-1 $284 $283 $399 $495 reversed $109 $-1 #
edge $-1 $496 4.5496132173526324e-014 $396 4.9221099506523114 $390 $497 forward 7 unknown #
vertex $-1 $286 $498 #
straight-curve $-1 -19.408258238209299 -34.774301666053901 9.401339948115421 -1 0 0 I I #
coedge $-1 $389 $287 $290 $403 reversed $280 $-1 #
coedge $-1 $287 $389 $394 $495 forward $280 $-1 #
vertex $-1 $288 $499 #
straight-curve $-1 -27.329423260001303 -37.871885774689019 40.313365762865246 0 0 1 I I #
straight-curve $-1 -27.329423260001303 -37.871885774689048 5.5761420373869441 0 -0.62932038083071107 -0.77714596973225614 I I #
edge $-1 $493 -50.303609692835892 $292 -27.329423260001303 $398 $500 forward 7 unknown #
point $-1 -27.329423260001303 -37.871885774689019 9.401339948115421 #
point $-1 -27.329423260001303 -34.774301666053901 9.401339948115421 #
edge $-1 $501 1 $501 0 $295 $-1 forward 7 unknown #
vertex $-1 $296 $502 #
ellipse-curve $-1 -45.708772406268977 -35.227163028840707 6.60127384112225 0 -0.77714596973225614 0.62932038083071107 0.5 0 0 1 I I #
point $-1 -45.208772406268977 -36.323093720371453 7.4887409927511897 #
edge $-1 $503 1 $503 0 $299 $-1 forward 7 unknown #
vertex $-1 $300 $504 #
ellipse-curve $-1 -38.816516476418599 -35.227163028840707 6.60127384112225 0 -0.77714596973225614 0.62932038083071107 0.5 0 0 1 I I #
point $-1 -38.316516476418599 -36.323093720371453 7.4887409927511897 #
edge $-1 $505 1 $505 0 $303 $-1 forward 7 unknown #
vertex $-1 $304 $506 #
ellipse-curve $-1 -31.92426054656822 -35.227163028840707 6.60127384112225 0 -0.77714596973225614 0.62932038083071107 0.5 0 0 1 I I #
point $-1 -31.42426054656822 -36.323093720371453 7.4887409927511897 #
plane-surface $-1 0 0 9.401339948115421 0 0 1 1 0 0 forward_v I I I I #
coedge $-1 $429 $428 $421 $507 forward $308 $-1 #
coedge $-1 $421 $310 $312 $425 reversed $203 $-1 #
coedge $-1 $310 $420 $419 $507 reversed $203 $-1 #
coedge $-1 $318 $313 $310 $423 forward $319 $-1 #
edge $-1 $426 -30.501522244932431 $508 -27.403938136297313 $422 $509 forward 7 unknown #
coedge $-1 $312 $311 $429 $510 reversed $128 $-1 #
edge $-1 $511 4.5496132173526324e-014 $426 4.9221099506523114 $420 $512 forward 7 unknown #
vertex $-1 $314 $513 #
straight-curve $-1 19.408258238209307 -34.774301666053901 9.401339948115421 -1 0 0 I I #
coedge $-1 $419 $315 $318 $433 reversed $308 $-1 #
coedge $-1 $315 $419 $424 $510 forward $308 $-1 #
vertex $-1 $316 $514 #
straight-curve $-1 50.303609692835906 -37.871885774689019 40.313365762865246 0 0 1 I I #
straight-curve $-1 50.303609692835906 -37.871885774689048 5.5761420373869441 0 -0.62932038083071107 -0.77714596973225614 I I #
edge $-1 $508 27.329423260001317 $320 50.303609692835906 $428 $515 forward 7 unknown #
point $-1 50.303609692835906 -37.871885774689019 9.401339948115421 #
point $-1 50.303609692835906 -34.774301666053901 9.401339948115421 #
edge $-1 $516 1 $516 0 $323 $-1 forward 7 unknown #
vertex $-1 $324 $517 #
ellipse-curve $-1 31.924260546568235 -35.227163028840707 6.60127384112225 0 -0.77714596973225614 0.62932038083071107 0.5 0 0 1 I I #
point $-1 32.424260546568235 -36.323093720371453 7.4887409927511897 #
edge $-1 $518 1 $518 0 $327 $-1 forward 7 unknown #
vertex $-1 $328 $519 #
ellipse-curve $-1 38.816516476418613 -35.227163028840707 6.60127384112225 0 -0.77714596973225614 0.62932038083071107 0.5 0 0 1 I I #
point $-1 39.316516476418613 -36.323093720371453 7.4887409927511897 #
edge $-1 $520 1 $520 0 $331 $-1 forward 7 unknown #
vertex $-1 $332 $521 #
ellipse-curve $-1 45.708772406268992 -35.227163028840707 6.60127384112225 0 -0.77714596973225614 0.62932038083071107 0.5 0 0 1 I I #
point $-1 46.208772406268992 -36.323093720371453 7.4887409927511897 #
loop $-1 $-1 $451 $335 #
plane-surface $-1 59.628284554582351 0 0 -1 0 0 0 0 1 forward_v I I I I #
coedge $-1 $339 $338 $457 $522 reversed $147 $-1 #
coedge $-1 $523 $524 $339 $452 forward $448 $-1 #
edge $-1 $454 39.77106740042953 $525 49.525273583134712 $451 $526 forward 7 unknown #
coedge $-1 $345 $340 $524 $527 forward $232 $-1 #
vertex $-1 $527 $528 #
straight-curve $-1 25.187113323688195 31.472550830895813 9.4013399481154138 1 0 0 I I #
coedge $-1 $529 $342 $345 $461 reversed $336 $-1 #
coedge $-1 $342 $529 $450 $522 forward $336 $-1 #
vertex $-1 $343 $530 #
straight-curve $-1 41.120168740170428 37.871885774689019 68.721822732718124 0 0 1 I I #
straight-curve $-1 41.120168740170428 -11.820498717864126 59.204297672039885 0 0.65605901945558964 -0.75470958851134928 I I #
edge $-1 $531 -59.628284554582351 $346 -41.120168740170428 $456 $532 forward 7 unknown #
point $-1 41.120168740170428 37.871885774689019 9.401339948115421 #
point $-1 41.120168740170428 31.472550830895806 9.4013399481154281 #
edge $-1 $533 1 $533 0 $349 $-1 forward 7 unknown #
vertex $-1 $350 $534 #
ellipse-curve $-1 44.821791903052812 32.346350621519832 3.6986976032572669 0 0.75470958851134928 0.65605901945558964 1.5 0 0 1 I I #
point $-1 46.321791903052812 34.672218302792416 5.7205434809132818 #
edge $-1 $535 1 $535 0 $353 $-1 forward 7 unknown #
vertex $-1 $354 $536 #
ellipse-curve $-1 50.374226647376389 32.346350621519832 3.6986976032572669 0 0.75470958851134928 0.65605901945558964 1.5 0 0 1 I I #
point $-1 51.874226647376389 34.672218302792416 5.7205434809132818 #
edge $-1 $537 1 $537 0 $357 $-1 forward 7 unknown #
vertex $-1 $358 $538 #
ellipse-curve $-1 55.926661391699966 32.346350621519832 3.6986976032572669 0 0.75470958851134928 0.65605901945558964 1.5 0 0 1 I I #
point $-1 57.426661391699966 34.672218302792416 5.7205434809132818 #
plane-surface $-1 59.628284554582351 0 0 -1 0 0 0 0 1 forward_v I I I I #
coedge $-1 $366 $364 $368 $481 reversed $261 $-1 #
edge $-1 $379 -9.401339948115421 $483 9.401339948115421 $378 $539 forward 7 unknown #
vertex $-1 $481 $540 #
straight-curve $-1 -59.628284554582351 -37.871885774689019 0 0 0 -1 I I #
edge $-1 $479 -37.871885774689019 $483 37.871885774689019 $477 $541 forward 7 unknown #
straight-curve $-1 0 -37.871885774689019 -9.401339948115421 -1 0 0 I I #
vertex $-1 $371 $542 #
straight-curve $-1 0 37.871885774689019 -9.401339948115421 1 0 0 I I #
point $-1 59.628284554582351 37.871885774689019 -9.401339948115421 #
point $-1 59.628284554582351 -37.871885774689019 -9.401339948115421 #
straight-curve $-1 -59.628284554582351 0 9.401339948115421 0 -1 0 I I #
point $-1 -59.628284554582351 37.871885774689019 9.401339948115421 #
point $-1 -59.628284554582351 -37.871885774689019 9.401339948115421 #
straight-curve $-1 59.628284554582351 -37.871885774689019 0 0 0 -1 I I #
straight-curve $-1 59.628284554582351 37.871885774689019 0 0 0 -1 I I #
edge $-1 $493 30.912025814749825 $496 34.737223725478266 $389 $543 forward 7 unknown #
vertex $-1 $403 $544 #
straight-curve $-1 -50.303609692835892 -65.275823910986333 9.401339948115421 0 -1 0 I I #
edge $-1 $496 -30.895351454626592 $400 -7.9211650217920031 $399 $545 forward 7 unknown #
vertex $-1 $495 $546 #
straight-curve $-1 -50.303609692835892 -37.871885774689048 5.5761420373869441 0 0.62932038083071107 0.77714596973225614 I I #
point $-1 -50.303609692835892 -34.774301666053901 9.401339948115421 #
point $-1 -27.329423260001303 -37.871885774689019 5.5761420373869797 #
straight-curve $-1 0 -37.871885774689019 9.401339948115421 1 0 0 I I #
vertex $-1 $406 $547 #
point $-1 -45.208772406268977 -35.227163028840707 6.60127384112225 #
vertex $-1 $410 $548 #
point $-1 -38.316516476418599 -35.227163028840707 6.60127384112225 #
vertex $-1 $414 $549 #
point $-1 -31.42426054656822 -35.227163028840707 6.60127384112225 #
edge $-1 $508 30.912025814749825 $511 34.737223725478266 $419 $550 forward 7 unknown #
vertex $-1 $433 $551 #
straight-curve $-1 27.329423260001317 -65.275823910986333 9.401339948115421 0 -1 0 I I #
edge $-1 $511 7.9211650217920102 $430 30.895351454626599 $429 $552 forward 7 unknown #
vertex $-1 $510 $553 #
straight-curve $-1 27.329423260001317 -37.871885774689048 5.5761420373869441 0 0.62932038083071107 0.77714596973225614 I I #
point $-1 27.329423260001317 -34.774301666053901 9.401339948115421 #
point $-1 50.303609692835906 -37.871885774689019 5.5761420373869797 #
straight-curve $-1 0 -37.871885774689019 9.401339948115421 1 0 0 I I #
vertex $-1 $436 $554 #
point $-1 32.424260546568235 -35.227163028840707 6.60127384112225 #
vertex $-1 $440 $555 #
point $-1 39.316516476418613 -35.227163028840707 6.60127384112225 #
vertex $-1 $444 $556 #
point $-1 46.208772406268992 -35.227163028840707 6.60127384112225 #
edge $-1 $525 -34.441171230894156 $458 -15.933055416482233 $457 $557 forward 7 unknown #
coedge $-1 $524 $451 $529 $558 reversed $448 $-1 #
coedge $-1 $451 $523 $453 $527 reversed $448 $-1 #
vertex $-1 $452 $559 #
straight-curve $-1 59.628284554582351 5.3803833494678415 39.416945860550733 0 0.65605901945558975 -0.75470958851134939 I I #
edge $-1 $454 31.472550830895806 $531 37.871885774689019 $524 $560 forward 7 unknown #
point $-1 59.628284554582351 31.472550830895806 9.4013399481154281 #
coedge $-1 $457 $456 $523 $558 forward $336 $-1 #
point $-1 41.120168740170428 37.871885774689019 2.0397470137111426 #
vertex $-1 $527 $561 #
straight-curve $-1 0 37.871885774689019 9.401339948115421 -1 0 0 I I #
vertex $-1 $464 $562 #
point $-1 46.321791903052812 32.346350621519832 3.6986976032572669 #
vertex $-1 $468 $563 #
point $-1 51.874226647376389 32.346350621519832 3.6986976032572669 #
vertex $-1 $472 $564 #
point $-1 57.426661391699966 32.346350621519832 3.6986976032572669 #
straight-curve $-1 -59.628284554582351 37.871885774689019 0 0 0 -1 I I #
point $-1 -59.628284554582351 -37.871885774689019 -9.401339948115421 #
straight-curve $-1 -59.628284554582351 0 -9.401339948115421 0 1 0 I I #
point $-1 -59.628284554582351 37.871885774689019 -9.401339948115421 #
straight-curve $-1 -50.303609692835892 -37.871885774689019 40.313365762865246 0 0 -1 I I #
point $-1 -50.303609692835892 -37.871885774689019 9.401339948115421 #
straight-curve $-1 -19.408258238209299 -37.871885774689019 5.5761420373869779 1 0 0 I I #
point $-1 -50.303609692835892 -37.871885774689019 5.5761420373869797 #
point $-1 -45.708772406268977 -34.838590043974577 6.2866136507068937 #
point $-1 -38.816516476418599 -34.838590043974577 6.2866136507068937 #
point $-1 -31.92426054656822 -34.838590043974577 6.2866136507068937 #
straight-curve $-1 27.329423260001317 -37.871885774689019 40.313365762865246 0 0 -1 I I #
point $-1 27.329423260001317 -37.871885774689019 9.401339948115421 #
straight-curve $-1 19.408258238209307 -37.871885774689019 5.5761420373869779 1 0 0 I I #
point $-1 27.329423260001317 -37.871885774689019 5.5761420373869797 #
point $-1 31.924260546568235 -34.838590043974577 6.2866136507068937 #
point $-1 38.816516476418613 -34.838590043974577 6.2866136507068937 #
point $-1 45.708772406268992 -34.838590043974577 6.2866136507068937 #
straight-curve $-1 25.187113323688195 37.871885774689019 2.0397470137111355 -1 0 0 I I #
edge $-1 $531 -9.401339948115421 $525 -2.0397470137111426 $523 $565 forward 7 unknown #
point $-1 59.628284554582351 37.871885774689019 2.0397470137111426 #
straight-curve $-1 59.628284554582351 0 9.401339948115421 0 1 0 I I #
point $-1 59.628284554582351 37.871885774689019 9.401339948115421 #
point $-1 44.821791903052812 31.214286238752806 2.7146090740738829 #
point $-1 50.374226647376389 31.214286238752806 2.7146090740738829 #
point $-1 55.926661391699966 31.214286238752806 2.7146090740738829 #
straight-curve $-1 59.628284554582351 37.871885774689019 0 0 0 -1 I I #
End-of-ACIS-data 