500 0 5 0           
7 Unknown 11 ACIS 5.0 NT 24 Thu Mar 25 23:23:53 1999 
-1 9.9999999999999995e-007 1e-010 
body $-1 $5 $-1 $6 #
body $-1 $7 $-1 $8 #
body $-1 $9 $-1 $10 #
body $-1 $11 $-1 $12 #
body $-1 $13 $-1 $14 #
lump $-1 $-1 $15 $0 #
transform $-1 1 0 0 0 1 0 0 0 1 79.422589800714135 50.202484067336982 15.392905581106845 1 rotate no_reflect no_shear #
lump $-1 $-1 $16 $1 #
transform $-1 1 0 0 0 1 0 0 0 1 79.422589800714135 50.202484067336982 15.392905581106845 1 rotate no_reflect no_shear #
lump $-1 $-1 $17 $2 #
transform $-1 1 0 0 0 1 0 0 0 1 79.422589800714135 50.202484067336982 15.392905581106845 1 rotate no_reflect no_shear #
lump $-1 $-1 $18 $3 #
transform $-1 1 0 0 0 1 0 0 0 1 79.422589800714135 50.202484067336982 15.392905581106845 1 rotate no_reflect no_shear #
lump $-1 $-1 $19 $4 #
transform $-1 1 0 0 0 1 0 0 0 1 79.422589800714135 50.202484067336982 15.392905581106845 1 rotate no_reflect no_shear #
shell $-1 $-1 $-1 $20 $-1 $5 #
shell $-1 $-1 $-1 $21 $-1 $7 #
shell $-1 $-1 $-1 $22 $-1 $9 #
shell $-1 $-1 $-1 $23 $-1 $11 #
shell $-1 $-1 $-1 $24 $-1 $13 #
face $-1 $25 $26 $15 $-1 $27 forward single #
face $-1 $28 $29 $16 $-1 $30 forward single #
face $-1 $31 $32 $17 $-1 $33 forward single #
face $-1 $34 $35 $18 $-1 $36 forward single #
face $-1 $37 $38 $19 $-1 $39 reversed single #
face $-1 $40 $41 $15 $-1 $42 reversed single #
loop $-1 $-1 $43 $20 #
plane-surface $-1 0 0 15.392905581106845 0 0 1 1 0 0 forward_v I I I I #
face $-1 $44 $45 $16 $-1 $46 forward single #
loop $-1 $-1 $47 $21 #
plane-surface $-1 -73.873984519044711 0 10.405185139295149 0 0 1 1 0 0 forward_v I I I I #
face $-1 $48 $49 $17 $-1 $50 forward single #
loop $-1 $-1 $51 $22 #
plane-surface $-1 73.873984519044726 0 10.405185139295149 0 0 1 1 0 0 forward_v I I I I #
face $-1 $52 $53 $18 $-1 $54 forward single #
loop $-1 $-1 $55 $23 #
plane-surface $-1 50.750928641960243 -177.06188640321056 100.83933703976666 -1 0 0 0 -0.79863551827123203 0.60181501223851219 forward_v I I I I #
face $-1 $56 $57 $19 $-1 $58 reversed single #
loop $-1 $59 $60 $24 #
cone-surface $-1 30.701213410747911 -45.071076274024982 9.3331391260658325 0 0.79863551827123203 -0.60181501223851219 1.5 0 0 1 I I 0 1 1.5 forward I I I I #
face $-1 $61 $62 $15 $-1 $63 reversed single #
loop $-1 $-1 $64 $25 #
plane-surface $-1 0 0 -15.392905581106845 0 0 1 1 0 0 forward_v I I I I #
coedge $-1 $65 $66 $67 $68 forward $26 $-1 #
face $-1 $69 $70 $16 $-1 $71 forward single #
loop $-1 $-1 $72 $28 #
plane-surface $-1 -68.325379237375287 0 12.899045360200997 -1 0 0 0 0 1 forward_v I I I I #
coedge $-1 $73 $74 $75 $76 reversed $29 $-1 #
face $-1 $77 $78 $17 $-1 $79 forward single #
loop $-1 $-1 $80 $31 #
plane-surface $-1 68.325379237375301 0 12.899045360200997 1 0 0 0 0 -1 forward_v I I I I #
coedge $-1 $81 $82 $83 $84 reversed $32 $-1 #
face $-1 $85 $86 $18 $-1 $87 forward single #
loop $-1 $-1 $88 $34 #
plane-surface $-1 30.701213410747911 -50.202484067336968 5.2439233339044335 0 -0.79863551827123203 0.60181501223851219 1 0 0 forward_v I I I I #
coedge $-1 $89 $90 $91 $92 reversed $35 $-1 #
face $-1 $93 $94 $19 $-1 $95 forward single #
loop $-1 $96 $97 $37 #
cone-surface $-1 30.701213410747911 -43.164595071689249 7.8965025354471443 0 0.79863551827123203 -0.60181501223851219 0.75 0 0 1 I I -0.70710678118654757 0.70710678118654757 0.75 forward I I I I #
loop $-1 $-1 $98 $24 #
coedge $-1 $60 $60 $99 $100 reversed $38 $-1 #
face $-1 $101 $102 $15 $-1 $103 reversed single #
loop $-1 $-1 $104 $40 #
plane-surface $-1 0 -50.202484067336982 0 0 1 0 0 0 1 forward_v I I I I #
coedge $-1 $105 $106 $107 $108 forward $41 $-1 #
coedge $-1 $109 $43 $110 $111 forward $26 $-1 #
coedge $-1 $43 $109 $112 $113 forward $26 $-1 #
coedge $-1 $114 $115 $43 $68 reversed $116 $-1 #
edge $-1 $117 -50.202484067336982 $118 50.202484067336982 $67 $119 forward 7 unknown #
face $-1 $120 $121 $16 $-1 $122 reversed single #
loop $-1 $-1 $123 $44 #
plane-surface $-1 0 0 15.392905581106845 0 0 1 1 0 0 forward_v I I I I #
coedge $-1 $124 $75 $125 $126 reversed $45 $-1 #
coedge $-1 $127 $47 $128 $129 reversed $29 $-1 #
coedge $-1 $47 $127 $130 $131 reversed $29 $-1 #
coedge $-1 $72 $132 $47 $76 forward $45 $-1 #
edge $-1 $133 -50.202484067336982 $134 50.202484067336982 $75 $135 forward 7 unknown #
face $-1 $136 $137 $17 $-1 $138 reversed single #
loop $-1 $-1 $139 $48 #
plane-surface $-1 0 0 15.392905581106845 0 0 1 1 0 0 forward_v I I I I #
coedge $-1 $140 $141 $142 $143 reversed $49 $-1 #
coedge $-1 $144 $51 $145 $146 reversed $32 $-1 #
coedge $-1 $51 $144 $147 $148 reversed $32 $-1 #
coedge $-1 $149 $150 $51 $84 forward $151 $-1 #
edge $-1 $152 -50.202484067336982 $153 50.202484067336982 $83 $154 forward 7 unknown #
face $-1 $155 $156 $18 $-1 $157 forward single #
loop $-1 $-1 $158 $52 #
plane-surface $-1 10.651498179535579 -177.06188640321056 100.83933703976666 1 0 0 0 0.79863551827123203 -0.60181501223851219 forward_v I I I I #
coedge $-1 $159 $160 $161 $162 reversed $53 $-1 #
coedge $-1 $90 $55 $160 $163 forward $35 $-1 #
coedge $-1 $55 $89 $164 $165 reversed $35 $-1 #
coedge $-1 $166 $161 $55 $92 forward $156 $-1 #
edge $-1 $167 -45.976265593627701 $168 -38.3284591342683 $91 $169 forward 7 unknown #
face $-1 $170 $171 $19 $-1 $172 forward single #
loop $-1 $-1 $173 $56 #
plane-surface $-1 50.750928641960243 -177.06188640321056 100.83933703976666 -1 0 0 0 -0.79863551827123203 0.60181501223851219 forward_v I I I I #
loop $-1 $-1 $174 $37 #
coedge $-1 $97 $97 $98 $175 forward $57 $-1 #
coedge $-1 $98 $98 $97 $175 reversed $59 $-1 #
coedge $-1 $99 $99 $60 $100 forward $171 $-1 #
edge $-1 $176 -9.3232920540117349e-016 $176 6.2831853071795996 $99 $177 forward 7 unknown #
face $-1 $178 $179 $15 $-1 $180 reversed single #
loop $-1 $-1 $181 $61 #
plane-surface $-1 -79.422589800714135 0 0 1 0 0 0 0 -1 forward_v I I I I #
coedge $-1 $182 $112 $183 $184 forward $62 $-1 #
coedge $-1 $185 $64 $182 $186 forward $41 $-1 #
coedge $-1 $64 $185 $187 $188 forward $41 $-1 #
coedge $-1 $115 $114 $64 $108 reversed $116 $-1 #
edge $-1 $189 -50.202484067336982 $190 50.202484067336982 $107 $191 forward 7 unknown #
coedge $-1 $66 $65 $192 $193 forward $26 $-1 #
coedge $-1 $194 $195 $65 $111 reversed $179 $-1 #
edge $-1 $118 -79.422589800714135 $196 79.422589800714135 $110 $197 forward 7 unknown #
coedge $-1 $104 $198 $66 $113 reversed $62 $-1 #
edge $-1 $199 -79.422589800714135 $117 79.422589800714135 $112 $200 forward 7 unknown #
coedge $-1 $107 $67 $198 $201 forward $116 $-1 #
coedge $-1 $67 $107 $194 $202 reversed $116 $-1 #
loop $-1 $-1 $114 $178 #
vertex $-1 $68 $203 #
vertex $-1 $68 $204 #
straight-curve $-1 79.422589800714135 0 15.392905581106845 0 1 0 I I #
face $-1 $205 $206 $16 $-1 $207 reversed single #
loop $-1 $-1 $125 $69 #
plane-surface $-1 0 -50.202484067336982 0 0 1 0 0 0 1 forward_v I I I I #
coedge $-1 $208 $209 $124 $210 forward $70 $-1 #
coedge $-1 $132 $72 $123 $210 reversed $45 $-1 #
coedge $-1 $130 $211 $72 $126 forward $121 $-1 #
edge $-1 $212 -8.9433829010063466 $134 -3.9556624591946505 $125 $213 forward 7 unknown #
coedge $-1 $74 $73 $214 $215 reversed $29 $-1 #
coedge $-1 $216 $217 $73 $129 forward $218 $-1 #
edge $-1 $219 -42.48559754119178 $133 -31.388386977852932 $128 $220 forward 7 unknown #
coedge $-1 $221 $125 $74 $131 forward $121 $-1 #
edge $-1 $134 31.388386977852932 $222 42.48559754119178 $130 $223 forward 7 unknown #
coedge $-1 $75 $124 $216 $224 reversed $45 $-1 #
vertex $-1 $129 $225 #
vertex $-1 $131 $226 #
straight-curve $-1 -68.325379237375287 0 10.405185139295149 0 -1 0 I I #
face $-1 $227 $228 $17 $-1 $229 forward single #
loop $-1 $-1 $142 $77 #
plane-surface $-1 0 50.202484067336982 0 0 -1 0 0 0 -1 forward_v I I I I #
coedge $-1 $230 $231 $140 $232 forward $78 $-1 #
coedge $-1 $233 $80 $139 $232 reversed $49 $-1 #
coedge $-1 $80 $233 $144 $234 forward $49 $-1 #
coedge $-1 $145 $235 $80 $143 forward $137 $-1 #
edge $-1 $236 -8.9433829010063466 $237 -3.9556624591946505 $142 $238 forward 7 unknown #
coedge $-1 $82 $81 $141 $234 reversed $32 $-1 #
coedge $-1 $239 $142 $81 $146 forward $137 $-1 #
edge $-1 $237 31.388386977852939 $152 42.485597541191787 $145 $240 forward 7 unknown #
coedge $-1 $241 $242 $82 $148 forward $243 $-1 #
edge $-1 $153 -42.485597541191787 $244 -31.388386977852939 $147 $245 forward 7 unknown #
coedge $-1 $246 $83 $242 $247 forward $151 $-1 #
coedge $-1 $83 $246 $239 $248 reversed $151 $-1 #
loop $-1 $-1 $83 $249 #
vertex $-1 $248 $250 #
vertex $-1 $247 $251 #
straight-curve $-1 79.422589800714135 0 10.405185139295149 0 -1 0 I I #
face $-1 $252 $253 $18 $-1 $254 forward single #
loop $-1 $-1 $255 $85 #
plane-surface $-1 0 0 15.392905581106845 0 0 1 1 0 0 forward_v I I I I #
coedge $-1 $256 $257 $255 $258 reversed $86 $-1 #
coedge $-1 $259 $88 $257 $260 reversed $53 $-1 #
coedge $-1 $88 $259 $89 $163 reversed $53 $-1 #
coedge $-1 $91 $255 $88 $162 forward $156 $-1 #
edge $-1 $261 -4.6991085258383762 $167 35.400321936586288 $161 $262 forward 7 unknown #
edge $-1 $167 -12.707902434857173 $263 2.3448253187574213e-014 $89 $264 forward 7 unknown #
coedge $-1 $265 $266 $90 $165 forward $267 $-1 #
edge $-1 $168 35.026762938776486 $263 45.175745185978919 $164 $268 forward 7 unknown #
coedge $-1 $269 $91 $266 $270 forward $156 $-1 #
vertex $-1 $162 $271 #
vertex $-1 $270 $272 #
straight-curve $-1 50.750928641960243 -88.530943201605282 15.392905581106845 0 -1 0 I I #
face $-1 $273 $274 $19 $-1 $275 forward single #
loop $-1 $276 $99 $93 #
plane-surface $-1 30.701213410747911 -50.202484067336968 5.2439233339044335 0 -0.79863551827123203 0.60181501223851219 1 0 0 forward_v I I I I #
coedge $-1 $277 $278 $279 $280 reversed $94 $-1 #
coedge $-1 $174 $174 $-1 $281 forward $96 $-1 #
edge $-1 $282 0 $282 6.2831853071796004 $97 $283 forward 7 unknown #
vertex $-1 $100 $284 #
ellipse-curve $-1 30.701213410747911 -46.378580837657282 10.318414457505629 0 0.79863551827123203 -0.60181501223851219 1.5 0 0 1 I I #
face $-1 $-1 $116 $15 $-1 $285 reversed single #
loop $-1 $-1 $194 $101 #
plane-surface $-1 0 50.202484067336982 0 0 -1 0 0 0 -1 forward_v I I I I #
coedge $-1 $286 $192 $195 $287 forward $102 $-1 #
coedge $-1 $198 $104 $105 $186 reversed $62 $-1 #
coedge $-1 $192 $286 $104 $184 reversed $102 $-1 #
edge $-1 $199 -15.392905581106845 $288 15.392905581106845 $183 $289 forward 7 unknown #
coedge $-1 $106 $105 $286 $290 forward $41 $-1 #
edge $-1 $190 -79.422589800714135 $288 79.422589800714135 $182 $291 forward 7 unknown #
coedge $-1 $195 $194 $106 $188 reversed $179 $-1 #
edge $-1 $292 -79.422589800714135 $189 79.422589800714135 $187 $293 forward 7 unknown #
vertex $-1 $108 $294 #
vertex $-1 $201 $295 #
straight-curve $-1 79.422589800714135 0 -15.392905581106845 0 -1 0 I I #
coedge $-1 $181 $183 $109 $193 reversed $102 $-1 #
edge $-1 $196 -50.202484067336982 $199 50.202484067336982 $192 $296 forward 7 unknown #
coedge $-1 $187 $110 $115 $202 forward $179 $-1 #
coedge $-1 $110 $187 $181 $287 reversed $179 $-1 #
vertex $-1 $111 $297 #
straight-curve $-1 0 50.202484067336982 15.392905581106845 -1 0 0 I I #
coedge $-1 $112 $182 $114 $201 reversed $62 $-1 #
vertex $-1 $193 $298 #
straight-curve $-1 0 -50.202484067336982 15.392905581106845 1 0 0 I I #
edge $-1 $117 -15.392905581106845 $190 15.392905581106845 $114 $299 forward 7 unknown #
edge $-1 $118 -15.392905581106845 $189 15.392905581106845 $115 $300 forward 7 unknown #
point $-1 79.422589800714135 -50.202484067336982 15.392905581106845 #
point $-1 79.422589800714135 50.202484067336982 15.392905581106845 #
face $-1 $301 $302 $16 $-1 $303 reversed single #
loop $-1 $-1 $304 $120 #
plane-surface $-1 0 0 -15.392905581106845 0 0 1 1 0 0 forward_v I I I I #
coedge $-1 $305 $123 $211 $306 forward $70 $-1 #
coedge $-1 $123 $305 $307 $308 forward $70 $-1 #
edge $-1 $309 -50.202484067336982 $212 50.202484067336982 $123 $310 forward 7 unknown #
coedge $-1 $125 $311 $208 $306 reversed $121 $-1 #
vertex $-1 $306 $312 #
straight-curve $-1 -68.325379237375287 -50.202484067336982 6.4495226801004986 0 0 -1 I I #
coedge $-1 $313 $314 $127 $215 forward $302 $-1 #
edge $-1 $222 -50.202484067336982 $219 50.202484067336982 $214 $315 forward 7 unknown #
coedge $-1 $307 $128 $132 $224 forward $218 $-1 #
coedge $-1 $128 $316 $313 $317 reversed $218 $-1 #
loop $-1 $-1 $216 $301 #
vertex $-1 $317 $318 #
straight-curve $-1 -36.936992259522356 50.202484067336982 10.405185139295149 1 0 0 I I #
coedge $-1 $319 $130 $314 $320 forward $121 $-1 #
vertex $-1 $320 $321 #
straight-curve $-1 -36.936992259522356 -50.202484067336982 10.405185139295149 -1 0 0 I I #
edge $-1 $133 3.9556624591946505 $309 8.9433829010063466 $216 $322 forward 7 unknown #
point $-1 -68.325379237375287 50.202484067336982 10.405185139295149 #
point $-1 -68.325379237375287 -50.202484067336982 10.405185139295149 #
face $-1 $323 $324 $17 $-1 $325 forward single #
loop $-1 $-1 $326 $136 #
plane-surface $-1 -73.873984519044711 0 10.405185139295149 0 0 1 1 0 0 forward_v I I I I #
coedge $-1 $327 $139 $235 $328 forward $78 $-1 #
coedge $-1 $139 $327 $329 $330 forward $78 $-1 #
edge $-1 $331 -50.202484067336982 $236 50.202484067336982 $139 $332 forward 7 unknown #
coedge $-1 $141 $140 $241 $333 reversed $49 $-1 #
edge $-1 $244 -50.202484067336982 $237 50.202484067336982 $141 $334 forward 7 unknown #
coedge $-1 $142 $335 $230 $328 reversed $137 $-1 #
vertex $-1 $328 $336 #
vertex $-1 $146 $337 #
straight-curve $-1 68.325379237375301 50.202484067336982 6.4495226801004986 0 0 -1 I I #
coedge $-1 $338 $145 $150 $248 forward $137 $-1 #
straight-curve $-1 36.936992259522363 50.202484067336982 10.405185139295149 1 0 0 I I #
coedge $-1 $329 $147 $233 $333 forward $243 $-1 #
coedge $-1 $147 $339 $149 $247 reversed $243 $-1 #
loop $-1 $-1 $241 $323 #
vertex $-1 $148 $340 #
straight-curve $-1 36.936992259522363 -50.202484067336982 10.405185139295149 -1 0 0 I I #
coedge $-1 $150 $149 $341 $342 reversed $151 $-1 #
edge $-1 $153 -10.405185139295149 $343 15.392905581106845 $149 $344 forward 7 unknown #
edge $-1 $152 -10.405185139295149 $345 15.392905581106845 $150 $346 forward 7 unknown #
face $-1 $-1 $151 $17 $-1 $347 reversed single #
point $-1 79.42258980071415 50.202484067336982 10.405185139295149 #
point $-1 79.42258980071415 -50.202484067336982 10.405185139295149 #
face $-1 $348 $349 $18 $-1 $350 forward single #
loop $-1 $-1 $351 $155 #
plane-surface $-1 73.873984519044726 0 10.405185139295149 0 0 1 1 0 0 forward_v I I I I #
coedge $-1 $161 $352 $158 $258 forward $156 $-1 #
coedge $-1 $257 $158 $353 $354 reversed $86 $-1 #
coedge $-1 $158 $256 $159 $260 forward $86 $-1 #
edge $-1 $355 38.3284591342683 $261 45.976265593627701 $255 $356 forward 7 unknown #
coedge $-1 $160 $159 $265 $357 reversed $53 $-1 #
edge $-1 $358 -2.3448253187574213e-014 $261 12.707902434857173 $257 $359 forward 7 unknown #
vertex $-1 $162 $360 #
straight-curve $-1 15.350606705373956 -42.554677607977574 15.392905581106845 1 0 0 I I #
vertex $-1 $357 $361 #
straight-curve $-1 50.750928641960243 -50.202484067336968 5.2439233339044335 0 -0.60181501223851219 -0.79863551827123203 I I #
coedge $-1 $353 $164 $259 $357 forward $267 $-1 #
coedge $-1 $164 $362 $166 $270 reversed $267 $-1 #
loop $-1 $-1 $353 $363 #
straight-curve $-1 50.750928641960243 -50.202484067336982 50.419668519883331 0 0 -1 I I #
coedge $-1 $364 $166 $365 $366 forward $156 $-1 #
edge $-1 $168 50.750928641960243 $367 68.325379237375301 $266 $368 forward 7 unknown #
point $-1 50.750928641960243 -42.554677607977581 15.392905581106845 #
point $-1 50.750928641960243 -50.202484067336982 15.392905581106845 #
face $-1 $369 $370 $19 $-1 $371 forward single #
loop $-1 $-1 $372 $170 #
plane-surface $-1 10.651498179535579 -177.06188640321056 100.83933703976666 1 0 0 0 0.79863551827123203 -0.60181501223851219 forward_v I I I I #
loop $-1 $-1 $373 $93 #
coedge $-1 $278 $173 $374 $375 forward $94 $-1 #
coedge $-1 $173 $277 $376 $377 reversed $94 $-1 #
coedge $-1 $378 $379 $173 $280 forward $370 $-1 #
edge $-1 $380 -45.976265593627701 $381 -38.3284591342683 $279 $382 forward 7 unknown #
edge $-1 $383 1 $383 0 $174 $-1 forward 7 unknown #
vertex $-1 $175 $384 #
ellipse-curve $-1 30.701213410747911 -43.763571710392675 8.3478637946260292 0 -0.79863551827123203 0.60181501223851219 1.5 0 0 1 I I #
point $-1 32.201213410747911 -46.378580837657289 10.318414457505636 #
plane-surface $-1 79.422589800714135 0 0 -1 0 0 0 0 1 forward_v I I I I #
coedge $-1 $183 $181 $185 $290 reversed $102 $-1 #
edge $-1 $196 -15.392905581106845 $292 15.392905581106845 $195 $385 forward 7 unknown #
vertex $-1 $290 $386 #
straight-curve $-1 -79.422589800714135 -50.202484067336982 0 0 0 -1 I I #
edge $-1 $288 -50.202484067336982 $292 50.202484067336982 $286 $387 forward 7 unknown #
straight-curve $-1 0 -50.202484067336982 -15.392905581106845 -1 0 0 I I #
vertex $-1 $188 $388 #
straight-curve $-1 0 50.202484067336982 -15.392905581106845 1 0 0 I I #
point $-1 79.422589800714135 50.202484067336982 -15.392905581106845 #
point $-1 79.422589800714135 -50.202484067336982 -15.392905581106845 #
straight-curve $-1 -79.422589800714135 0 15.392905581106845 0 -1 0 I I #
point $-1 -79.422589800714135 50.202484067336982 15.392905581106845 #
point $-1 -79.422589800714135 -50.202484067336982 15.392905581106845 #
straight-curve $-1 79.422589800714135 -50.202484067336982 0 0 0 -1 I I #
straight-curve $-1 79.422589800714135 50.202484067336982 0 0 0 -1 I I #
face $-1 $389 $218 $16 $-1 $390 reversed single #
loop $-1 $-1 $214 $205 #
plane-surface $-1 -79.422589800714135 0 0 1 0 0 0 0 -1 forward_v I I I I #
coedge $-1 $391 $392 $393 $394 forward $206 $-1 #
coedge $-1 $209 $208 $395 $396 forward $70 $-1 #
edge $-1 $212 -68.325379237375287 $397 79.422589800714135 $211 $398 forward 7 unknown #
coedge $-1 $399 $216 $209 $308 reversed $218 $-1 #
edge $-1 $400 -79.422589800714135 $309 68.325379237375287 $307 $401 forward 7 unknown #
vertex $-1 $210 $402 #
straight-curve $-1 -68.325379237375287 0 15.392905581106845 0 -1 0 I I #
coedge $-1 $211 $319 $403 $404 reversed $121 $-1 #
point $-1 -68.325379237375287 -50.202484067336982 15.392905581106845 #
coedge $-1 $405 $214 $217 $317 forward $302 $-1 #
coedge $-1 $214 $405 $221 $320 reversed $302 $-1 #
straight-curve $-1 -79.422589800714135 0 10.405185139295149 0 1 0 I I #
coedge $-1 $217 $399 $392 $406 reversed $218 $-1 #
edge $-1 $219 -10.405185139295149 $407 15.392905581106845 $217 $408 forward 7 unknown #
point $-1 -79.422589800714135 50.202484067336982 10.405185139295149 #
coedge $-1 $311 $221 $391 $409 reversed $121 $-1 #
edge $-1 $222 -10.405185139295149 $410 15.392905581106845 $314 $411 forward 7 unknown #
point $-1 -79.422589800714135 -50.202484067336982 10.405185139295149 #
straight-curve $-1 -68.325379237375287 50.202484067336982 6.4495226801004986 0 0 1 I I #
face $-1 $412 $243 $17 $-1 $413 reversed single #
loop $-1 $-1 $414 $227 #
plane-surface $-1 -68.325379237375287 0 12.899045360200997 -1 0 0 0 0 1 forward_v I I I I #
coedge $-1 $415 $416 $417 $418 reversed $228 $-1 #
coedge $-1 $231 $230 $419 $420 forward $78 $-1 #
edge $-1 $236 -68.325379237375301 $421 68.325379237375287 $235 $422 forward 7 unknown #
coedge $-1 $423 $241 $231 $330 reversed $243 $-1 #
edge $-1 $424 -68.325379237375287 $331 68.325379237375301 $329 $425 forward 7 unknown #
vertex $-1 $232 $426 #
straight-curve $-1 68.325379237375301 0 15.392905581106845 0 1 0 I I #
edge $-1 $244 3.9556624591946505 $331 8.9433829010063466 $241 $427 forward 7 unknown #
straight-curve $-1 68.325379237375301 0 10.405185139295149 0 1 0 I I #
coedge $-1 $235 $428 $429 $430 forward $137 $-1 #
point $-1 68.325379237375301 50.202484067336982 15.392905581106845 #
point $-1 68.325379237375301 50.202484067336982 10.405185139295149 #
coedge $-1 $431 $239 $432 $433 reversed $137 $-1 #
coedge $-1 $242 $434 $435 $436 reversed $243 $-1 #
point $-1 68.325379237375301 -50.202484067336982 10.405185139295149 #
coedge $-1 $435 $432 $246 $342 forward $437 $-1 #
edge $-1 $345 -50.202484067336982 $343 50.202484067336982 $246 $438 forward 7 unknown #
vertex $-1 $247 $439 #
straight-curve $-1 79.422589800714135 -50.202484067336982 0 0 0 -1 I I #
vertex $-1 $342 $440 #
straight-curve $-1 79.422589800714135 50.202484067336982 0 0 0 -1 I I #
plane-surface $-1 79.422589800714135 0 0 -1 0 0 0 0 1 forward_v I I I I #
face $-1 $441 $442 $18 $-1 $443 reversed single #
loop $-1 $-1 $444 $252 #
plane-surface $-1 68.325379237375301 0 12.899045360200997 1 0 0 0 0 -1 forward_v I I I I #
coedge $-1 $445 $446 $447 $448 reversed $253 $-1 #
coedge $-1 $255 $449 $450 $451 forward $156 $-1 #
coedge $-1 $450 $265 $256 $354 forward $267 $-1 #
edge $-1 $358 -45.175745185978919 $355 -35.026762938776486 $353 $452 forward 7 unknown #
vertex $-1 $354 $453 #
straight-curve $-1 10.651498179535579 -88.530943201605282 15.392905581106845 0 1 0 I I #
edge $-1 $263 -35.400321936586288 $358 4.6991085258383762 $265 $454 forward 7 unknown #
vertex $-1 $357 $455 #
straight-curve $-1 10.651498179535579 -50.202484067336968 5.2439233339044335 0 0.60181501223851219 0.79863551827123203 I I #
point $-1 10.651498179535579 -42.554677607977581 15.392905581106845 #
point $-1 50.750928641960243 -50.202484067336982 5.2439233339044149 #
coedge $-1 $266 $456 $457 $458 forward $267 $-1 #
face $-1 $459 $267 $18 $-1 $460 reversed single #
coedge $-1 $449 $269 $461 $462 forward $156 $-1 #
coedge $-1 $457 $444 $269 $366 reversed $349 $-1 #
edge $-1 $367 -50.202484067336982 $463 50.202484067336982 $269 $464 forward 7 unknown #
vertex $-1 $366 $465 #
straight-curve $-1 0 -50.202484067336982 15.392905581106845 1 0 0 I I #
face $-1 $466 $467 $19 $-1 $468 forward single #
loop $-1 $-1 $469 $273 #
plane-surface $-1 0 0 15.392905581106845 0 0 1 1 0 0 forward_v I I I I #
coedge $-1 $470 $471 $469 $472 reversed $274 $-1 #
coedge $-1 $473 $374 $379 $474 reversed $276 $-1 #
coedge $-1 $373 $475 $277 $375 reversed $276 $-1 #
edge $-1 $380 -12.707902434857173 $476 2.3448253187574213e-014 $277 $477 forward 7 unknown #
coedge $-1 $478 $479 $278 $377 forward $480 $-1 #
edge $-1 $381 35.026762938776486 $476 45.175745185978919 $376 $481 forward 7 unknown #
coedge $-1 $482 $279 $479 $483 forward $370 $-1 #
coedge $-1 $279 $469 $373 $474 forward $370 $-1 #
vertex $-1 $474 $484 #
vertex $-1 $483 $485 #
straight-curve $-1 50.750928641960243 -88.530943201605282 15.392905581106845 0 -1 0 I I #
vertex $-1 $281 $486 #
point $-1 32.201213410747911 -43.763571710392675 8.3478637946260292 #
straight-curve $-1 -79.422589800714135 50.202484067336982 0 0 0 -1 I I #
point $-1 -79.422589800714135 -50.202484067336982 -15.392905581106845 #
straight-curve $-1 -79.422589800714135 0 -15.392905581106845 0 1 0 I I #
point $-1 -79.422589800714135 50.202484067336982 -15.392905581106845 #
face $-1 $-1 $487 $16 $-1 $488 reversed single #
plane-surface $-1 0 50.202484067336982 0 0 -1 0 0 0 -1 forward_v I I I I #
coedge $-1 $489 $304 $319 $409 forward $206 $-1 #
coedge $-1 $304 $489 $316 $406 forward $206 $-1 #
coedge $-1 $490 $403 $304 $394 reversed $487 $-1 #
edge $-1 $491 -50.202484067336982 $492 50.202484067336982 $393 $493 forward 7 unknown #
coedge $-1 $403 $490 $305 $396 reversed $487 $-1 #
edge $-1 $397 -50.202484067336982 $400 50.202484067336982 $395 $494 forward 7 unknown #
vertex $-1 $396 $495 #
straight-curve $-1 0 -50.202484067336982 15.392905581106845 1 0 0 I I #
coedge $-1 $316 $307 $490 $496 forward $218 $-1 #
vertex $-1 $396 $497 #
straight-curve $-1 0 50.202484067336982 15.392905581106845 -1 0 0 I I #
point $-1 -68.325379237375287 50.202484067336982 15.392905581106845 #
coedge $-1 $393 $395 $311 $404 forward $487 $-1 #
edge $-1 $397 -15.392905581106845 $492 15.392905581106845 $403 $498 forward 7 unknown #
coedge $-1 $314 $313 $489 $499 reversed $302 $-1 #
edge $-1 $407 -79.422589800714135 $491 79.422589800714135 $316 $500 forward 7 unknown #
vertex $-1 $406 $501 #
straight-curve $-1 -79.422589800714135 50.202484067336982 0 0 0 -1 I I #
edge $-1 $492 -79.422589800714135 $410 79.422589800714135 $319 $502 forward 7 unknown #
vertex $-1 $499 $503 #
straight-curve $-1 -79.422589800714135 -50.202484067336982 0 0 0 -1 I I #
face $-1 $504 $437 $17 $-1 $505 reversed single #
plane-surface $-1 0 -50.202484067336982 0 0 1 0 0 0 1 forward_v I I I I #
coedge $-1 $419 $417 $423 $506 reversed $324 $-1 #
coedge $-1 $507 $326 $428 $508 reversed $228 $-1 #
coedge $-1 $326 $507 $509 $510 reversed $228 $-1 #
coedge $-1 $414 $429 $326 $418 forward $324 $-1 #
edge $-1 $511 -50.202484067336982 $512 50.202484067336982 $417 $513 forward 7 unknown #
coedge $-1 $429 $414 $327 $420 reversed $324 $-1 #
edge $-1 $421 -50.202484067336982 $424 50.202484067336982 $327 $514 forward 7 unknown #
vertex $-1 $420 $515 #
straight-curve $-1 0 50.202484067336982 15.392905581106845 -1 0 0 I I #
coedge $-1 $509 $329 $414 $506 forward $243 $-1 #
vertex $-1 $330 $516 #
straight-curve $-1 0 -50.202484067336982 15.392905581106845 1 0 0 I I #
point $-1 68.325379237375301 -50.202484067336982 15.392905581106845 #
straight-curve $-1 68.325379237375301 -50.202484067336982 6.4495226801004986 0 0 1 I I #
coedge $-1 $335 $431 $415 $508 forward $137 $-1 #
coedge $-1 $417 $419 $335 $430 reversed $324 $-1 #
edge $-1 $511 3.9556624591946505 $421 8.9433829010063466 $335 $517 forward 7 unknown #
coedge $-1 $428 $338 $518 $519 reversed $137 $-1 #
coedge $-1 $341 $520 $338 $433 forward $437 $-1 #
edge $-1 $521 -79.422589800714135 $345 79.422589800714135 $338 $522 forward 7 unknown #
coedge $-1 $339 $509 $523 $524 forward $243 $-1 #
coedge $-1 $520 $341 $339 $436 forward $437 $-1 #
edge $-1 $343 -79.422589800714135 $525 79.422589800714135 $339 $526 forward 7 unknown #
loop $-1 $-1 $341 $412 #
straight-curve $-1 79.422589800714135 0 -15.392905581106845 0 -1 0 I I #
point $-1 79.422589800714135 -50.202484067336982 -15.392905581106845 #
point $-1 79.422589800714135 50.202484067336982 -15.392905581106845 #
face $-1 $527 $528 $18 $-1 $529 forward single #
loop $-1 $-1 $530 $348 #
plane-surface $-1 0 50.202484067336982 0 0 -1 0 0 0 -1 forward_v I I I I #
coedge $-1 $365 $531 $530 $532 reversed $349 $-1 #
coedge $-1 $533 $351 $534 $535 reversed $253 $-1 #
coedge $-1 $351 $533 $456 $536 reversed $253 $-1 #
coedge $-1 $537 $538 $351 $448 forward $539 $-1 #
edge $-1 $540 -50.202484067336982 $541 50.202484067336982 $447 $542 forward 7 unknown #
coedge $-1 $352 $364 $543 $544 forward $156 $-1 #
coedge $-1 $545 $353 $352 $451 reversed $267 $-1 #
edge $-1 $546 -68.325379237375287 $355 10.651498179535579 $450 $368 forward 7 unknown #
straight-curve $-1 10.651498179535579 -50.202484067336982 50.419668519883331 0 0 1 I I #
point $-1 10.651498179535579 -50.202484067336982 15.392905581106845 #
straight-curve $-1 15.350606705373956 -50.202484067336982 5.2439233339044113 -1 0 0 I I #
point $-1 10.651498179535579 -50.202484067336982 5.2439233339044149 #
coedge $-1 $362 $547 $446 $536 forward $267 $-1 #
coedge $-1 $531 $365 $362 $458 reversed $349 $-1 #
edge $-1 $548 3.9556624591946505 $367 8.9433829010063466 $362 $549 forward 7 unknown #
face $-1 $550 $551 $18 $-1 $552 reversed single #
plane-surface $-1 0 -50.202484067336982 0 0 1 0 0 0 1 forward_v I I I I #
coedge $-1 $530 $553 $364 $462 reversed $442 $-1 #
edge $-1 $463 -68.325379237375301 $554 68.325379237375287 $461 $555 forward 7 unknown #
vertex $-1 $462 $556 #
straight-curve $-1 68.325379237375301 0 15.392905581106845 0 1 0 I I #
point $-1 68.325379237375301 -50.202484067336982 15.392905581106845 #
face $-1 $557 $558 $19 $-1 $559 forward single #
loop $-1 $-1 $560 $369 #
plane-surface $-1 73.873984519044726 0 10.405185139295149 0 0 1 1 0 0 forward_v I I I I #
coedge $-1 $379 $561 $372 $472 forward $370 $-1 #
coedge $-1 $471 $372 $562 $563 reversed $274 $-1 #
coedge $-1 $372 $470 $473 $564 forward $274 $-1 #
edge $-1 $565 38.3284591342683 $566 45.976265593627701 $469 $567 forward 7 unknown #
coedge $-1 $475 $373 $471 $564 reversed $276 $-1 #
edge $-1 $566 -4.6991085258383762 $380 35.400321936586288 $379 $568 forward 7 unknown #
coedge $-1 $374 $473 $478 $569 reversed $276 $-1 #
vertex $-1 $569 $570 #
straight-curve $-1 50.750928641960243 -50.202484067336968 5.2439233339044335 0 -0.60181501223851219 -0.79863551827123203 I I #
coedge $-1 $562 $376 $475 $569 forward $480 $-1 #
coedge $-1 $376 $571 $378 $483 reversed $480 $-1 #
loop $-1 $-1 $562 $572 #
straight-curve $-1 50.750928641960243 -50.202484067336982 50.419668519883331 0 0 -1 I I #
coedge $-1 $573 $378 $574 $575 forward $370 $-1 #
edge $-1 $381 50.750928641960243 $576 68.325379237375301 $479 $577 forward 7 unknown #
point $-1 50.750928641960243 -42.554677607977581 15.392905581106845 #
point $-1 50.750928641960243 -50.202484067336982 15.392905581106845 #
point $-1 30.701213410747911 -42.565618432985822 7.4451412762682603 #
loop $-1 $-1 $403 $389 #
plane-surface $-1 79.422589800714135 0 0 -1 0 0 0 0 1 forward_v I I I I #
coedge $-1 $392 $391 $405 $499 forward $206 $-1 #
coedge $-1 $395 $393 $399 $496 reversed $487 $-1 #
vertex $-1 $394 $578 #
vertex $-1 $404 $579 #
straight-curve $-1 79.422589800714135 0 -15.392905581106845 0 -1 0 I I #
straight-curve $-1 79.422589800714135 0 15.392905581106845 0 1 0 I I #
point $-1 79.422589800714135 -50.202484067336982 15.392905581106845 #
edge $-1 $400 -15.392905581106845 $491 15.392905581106845 $490 $580 forward 7 unknown #
point $-1 79.422589800714135 50.202484067336982 15.392905581106845 #
straight-curve $-1 79.422589800714135 -50.202484067336982 0 0 0 -1 I I #
edge $-1 $410 -50.202484067336982 $407 50.202484067336982 $405 $581 forward 7 unknown #
straight-curve $-1 0 50.202484067336982 -15.392905581106845 1 0 0 I I #
point $-1 -79.422589800714135 50.202484067336982 -15.392905581106845 #
straight-curve $-1 0 -50.202484067336982 -15.392905581106845 -1 0 0 I I #
point $-1 -79.422589800714135 -50.202484067336982 -15.392905581106845 #
face $-1 $249 $582 $17 $-1 $583 reversed single #
plane-surface $-1 0 0 -15.392905581106845 0 0 1 1 0 0 forward_v I I I I #
edge $-1 $424 -8.9433829010063466 $512 -3.9556624591946505 $423 $584 forward 7 unknown #
coedge $-1 $416 $415 $585 $586 reversed $228 $-1 #
edge $-1 $587 -42.48559754119178 $511 -31.388386977852932 $428 $588 forward 7 unknown #
coedge $-1 $434 $423 $416 $510 forward $243 $-1 #
edge $-1 $512 31.388386977852932 $589 42.48559754119178 $509 $590 forward 7 unknown #
vertex $-1 $508 $591 #
vertex $-1 $510 $592 #
straight-curve $-1 -68.325379237375287 0 10.405185139295149 0 -1 0 I I #
straight-curve $-1 -68.325379237375287 0 15.392905581106845 0 -1 0 I I #
point $-1 -68.325379237375287 50.202484067336982 15.392905581106845 #
point $-1 -68.325379237375287 -50.202484067336982 15.392905581106845 #
straight-curve $-1 -68.325379237375287 50.202484067336982 6.4495226801004986 0 0 1 I I #
coedge $-1 $593 $585 $431 $519 forward $582 $-1 #
edge $-1 $587 -10.405185139295149 $521 15.392905581106845 $431 $594 forward 7 unknown #
coedge $-1 $432 $435 $593 $595 forward $437 $-1 #
vertex $-1 $433 $596 #
straight-curve $-1 0 50.202484067336982 -15.392905581106845 1 0 0 I I #
coedge $-1 $585 $593 $434 $524 reversed $582 $-1 #
edge $-1 $589 -10.405185139295149 $525 15.392905581106845 $523 $597 forward 7 unknown #
vertex $-1 $595 $598 #
straight-curve $-1 0 -50.202484067336982 -15.392905581106845 -1 0 0 I I #
face $-1 $363 $599 $18 $-1 $600 forward single #
loop $-1 $-1 $601 $441 #
plane-surface $-1 -73.873984519044711 0 10.405185139295149 0 0 1 1 0 0 forward_v I I I I #
coedge $-1 $534 $461 $444 $532 forward $442 $-1 #
coedge $-1 $444 $457 $533 $602 forward $349 $-1 #
edge $-1 $463 -8.9433829010063466 $603 -3.9556624591946505 $530 $604 forward 7 unknown #
coedge $-1 $446 $445 $531 $602 reversed $253 $-1 #
coedge $-1 $605 $530 $445 $535 forward $442 $-1 #
edge $-1 $603 31.388386977852939 $540 42.485597541191787 $534 $606 forward 7 unknown #
edge $-1 $541 -42.485597541191787 $548 -31.388386977852939 $456 $607 forward 7 unknown #
coedge $-1 $608 $447 $547 $609 forward $539 $-1 #
coedge $-1 $447 $608 $605 $610 reversed $539 $-1 #
loop $-1 $-1 $447 $611 #
vertex $-1 $610 $612 #
vertex $-1 $609 $613 #
straight-curve $-1 79.422589800714135 0 10.405185139295149 0 -1 0 I I #
coedge $-1 $614 $615 $449 $544 reversed $599 $-1 #
edge $-1 $554 -50.202484067336982 $546 50.202484067336982 $449 $616 forward 7 unknown #
coedge $-1 $617 $450 $615 $618 forward $267 $-1 #
vertex $-1 $451 $619 #
coedge $-1 $456 $620 $537 $609 reversed $267 $-1 #
vertex $-1 $536 $621 #
straight-curve $-1 68.325379237375301 -50.202484067336982 6.4495226801004986 0 0 1 I I #
face $-1 $611 $622 $18 $-1 $623 reversed single #
loop $-1 $-1 $624 $459 #
plane-surface $-1 0 0 -15.392905581106845 0 0 1 1 0 0 forward_v I I I I #
coedge $-1 $461 $625 $614 $626 forward $442 $-1 #
vertex $-1 $544 $627 #
straight-curve $-1 0 50.202484067336982 15.392905581106845 -1 0 0 I I #
point $-1 68.325379237375301 50.202484067336982 15.392905581106845 #
face $-1 $628 $629 $19 $-1 $630 reversed single #
loop $-1 $-1 $631 $466 #
plane-surface $-1 68.325379237375301 0 12.899045360200997 1 0 0 0 0 -1 forward_v I I I I #
coedge $-1 $632 $633 $634 $635 reversed $467 $-1 #
coedge $-1 $469 $636 $637 $638 forward $370 $-1 #
coedge $-1 $637 $478 $470 $563 forward $480 $-1 #
edge $-1 $639 -45.175745185978919 $565 -35.026762938776486 $562 $640 forward 7 unknown #
edge $-1 $639 -2.3448253187574213e-014 $566 12.707902434857173 $471 $641 forward 7 unknown #
vertex $-1 $563 $642 #
vertex $-1 $474 $643 #
straight-curve $-1 10.651498179535579 -88.530943201605282 15.392905581106845 0 1 0 I I #
straight-curve $-1 15.350606705373956 -42.554677607977574 15.392905581106845 1 0 0 I I #
edge $-1 $476 -35.400321936586288 $639 4.6991085258383762 $478 $644 forward 7 unknown #
point $-1 50.750928641960243 -50.202484067336982 5.2439233339044149 #
coedge $-1 $479 $645 $646 $647 forward $480 $-1 #
face $-1 $648 $480 $19 $-1 $649 reversed single #
coedge $-1 $636 $482 $650 $651 forward $370 $-1 #
coedge $-1 $646 $631 $482 $575 reversed $558 $-1 #
edge $-1 $576 -50.202484067336982 $652 50.202484067336982 $482 $653 forward 7 unknown #
vertex $-1 $575 $654 #
straight-curve $-1 0 -50.202484067336982 15.392905581106845 1 0 0 I I #
point $-1 79.422589800714135 50.202484067336982 -15.392905581106845 #
point $-1 79.422589800714135 -50.202484067336982 -15.392905581106845 #
straight-curve $-1 79.422589800714135 50.202484067336982 0 0 0 -1 I I #
straight-curve $-1 -79.422589800714135 0 -15.392905581106845 0 1 0 I I #
loop $-1 $-1 $585 $504 #
plane-surface $-1 -79.422589800714135 0 0 1 0 0 0 0 -1 forward_v I I I I #
straight-curve $-1 -68.325379237375287 -50.202484067336982 6.4495226801004986 0 0 -1 I I #
coedge $-1 $518 $523 $507 $586 forward $582 $-1 #
edge $-1 $589 -50.202484067336982 $587 50.202484067336982 $585 $655 forward 7 unknown #
vertex $-1 $519 $656 #
straight-curve $-1 -36.936992259522356 50.202484067336982 10.405185139295149 1 0 0 I I #
vertex $-1 $524 $657 #
straight-curve $-1 -36.936992259522356 -50.202484067336982 10.405185139295149 -1 0 0 I I #
point $-1 -68.325379237375287 50.202484067336982 10.405185139295149 #
point $-1 -68.325379237375287 -50.202484067336982 10.405185139295149 #
coedge $-1 $523 $518 $520 $595 reversed $582 $-1 #
straight-curve $-1 -79.422589800714135 50.202484067336982 0 0 0 -1 I I #
edge $-1 $525 -50.202484067336982 $521 50.202484067336982 $593 $658 forward 7 unknown #
point $-1 -79.422589800714135 50.202484067336982 -15.392905581106845 #
straight-curve $-1 -79.422589800714135 -50.202484067336982 0 0 0 -1 I I #
point $-1 -79.422589800714135 -50.202484067336982 -15.392905581106845 #
loop $-1 $-1 $615 $527 #
plane-surface $-1 -68.325379237375287 0 12.899045360200997 -1 0 0 0 0 1 forward_v I I I I #
coedge $-1 $659 $660 $661 $662 reversed $528 $-1 #
edge $-1 $548 -50.202484067336982 $603 50.202484067336982 $531 $663 forward 7 unknown #
vertex $-1 $535 $664 #
straight-curve $-1 68.325379237375301 50.202484067336982 6.4495226801004986 0 0 -1 I I #
coedge $-1 $665 $534 $538 $610 forward $442 $-1 #
straight-curve $-1 36.936992259522363 50.202484067336982 10.405185139295149 1 0 0 I I #
straight-curve $-1 36.936992259522363 -50.202484067336982 10.405185139295149 -1 0 0 I I #
coedge $-1 $538 $537 $624 $666 reversed $539 $-1 #
edge $-1 $541 -10.405185139295149 $667 15.392905581106845 $537 $668 forward 7 unknown #
edge $-1 $540 -10.405185139295149 $669 15.392905581106845 $538 $670 forward 7 unknown #
face $-1 $-1 $539 $18 $-1 $671 reversed single #
point $-1 79.42258980071415 50.202484067336982 10.405185139295149 #
point $-1 79.42258980071415 -50.202484067336982 10.405185139295149 #
coedge $-1 $661 $543 $553 $626 reversed $599 $-1 #
coedge $-1 $543 $661 $545 $618 reversed $599 $-1 #
straight-curve $-1 -68.325379237375287 0 15.392905581106845 0 -1 0 I I #
coedge $-1 $672 $545 $660 $673 forward $267 $-1 #
edge $-1 $546 -8.9433829010063466 $674 -3.9556624591946505 $545 $675 forward 7 unknown #
point $-1 -68.325379237375287 -50.202484067336982 15.392905581106845 #
coedge $-1 $547 $672 $676 $677 reversed $267 $-1 #
point $-1 68.325379237375301 -50.202484067336982 10.405185139295149 #
loop $-1 $-1 $678 $550 #
plane-surface $-1 -79.422589800714135 0 0 1 0 0 0 0 -1 forward_v I I I I #
coedge $-1 $676 $679 $608 $666 forward $551 $-1 #
coedge $-1 $553 $680 $659 $681 forward $442 $-1 #
edge $-1 $682 3.9556624591946505 $554 8.9433829010063466 $553 $683 forward 7 unknown #
point $-1 -68.325379237375287 50.202484067336982 15.392905581106845 #
face $-1 $684 $685 $19 $-1 $686 forward single #
loop $-1 $-1 $687 $557 #
plane-surface $-1 0 50.202484067336982 0 0 -1 0 0 0 -1 forward_v I I I I #
coedge $-1 $574 $688 $687 $689 reversed $558 $-1 #
coedge $-1 $690 $560 $691 $692 reversed $467 $-1 #
coedge $-1 $560 $690 $645 $693 reversed $467 $-1 #
coedge $-1 $694 $695 $560 $635 forward $696 $-1 #
edge $-1 $697 -50.202484067336982 $698 50.202484067336982 $634 $699 forward 7 unknown #
coedge $-1 $561 $573 $700 $701 forward $370 $-1 #
coedge $-1 $702 $562 $561 $638 reversed $480 $-1 #
edge $-1 $703 -68.325379237375287 $565 10.651498179535579 $637 $577 forward 7 unknown #
vertex $-1 $569 $704 #
straight-curve $-1 10.651498179535579 -50.202484067336982 50.419668519883331 0 0 1 I I #
straight-curve $-1 10.651498179535579 -50.202484067336968 5.2439233339044335 0 0.60181501223851219 0.79863551827123203 I I #
point $-1 10.651498179535579 -50.202484067336982 15.392905581106845 #
point $-1 10.651498179535579 -42.554677607977581 15.392905581106845 #
straight-curve $-1 15.350606705373956 -50.202484067336982 5.2439233339044113 -1 0 0 I I #
coedge $-1 $571 $705 $633 $693 forward $480 $-1 #
coedge $-1 $688 $574 $571 $647 reversed $558 $-1 #
edge $-1 $706 3.9556624591946505 $576 8.9433829010063466 $571 $707 forward 7 unknown #
face $-1 $708 $709 $19 $-1 $710 reversed single #
plane-surface $-1 0 -50.202484067336982 0 0 1 0 0 0 1 forward_v I I I I #
coedge $-1 $687 $711 $573 $651 reversed $629 $-1 #
edge $-1 $652 -68.325379237375301 $712 68.325379237375287 $650 $713 forward 7 unknown #
vertex $-1 $651 $714 #
straight-curve $-1 68.325379237375301 0 15.392905581106845 0 1 0 I I #
point $-1 68.325379237375301 -50.202484067336982 15.392905581106845 #
straight-curve $-1 -79.422589800714135 0 10.405185139295149 0 1 0 I I #
point $-1 -79.422589800714135 50.202484067336982 10.405185139295149 #
point $-1 -79.422589800714135 -50.202484067336982 10.405185139295149 #
straight-curve $-1 -79.422589800714135 0 -15.392905581106845 0 1 0 I I #
coedge $-1 $715 $601 $625 $681 reversed $528 $-1 #
coedge $-1 $601 $715 $617 $673 reversed $528 $-1 #
coedge $-1 $615 $614 $601 $662 forward $599 $-1 #
edge $-1 $682 -50.202484067336982 $674 50.202484067336982 $661 $716 forward 7 unknown #
straight-curve $-1 68.325379237375301 0 10.405185139295149 0 1 0 I I #
point $-1 68.325379237375301 50.202484067336982 10.405185139295149 #
coedge $-1 $680 $605 $679 $717 reversed $442 $-1 #
edge $-1 $669 -50.202484067336982 $667 50.202484067336982 $608 $718 forward 7 unknown #
vertex $-1 $609 $719 #
straight-curve $-1 79.422589800714135 -50.202484067336982 0 0 0 -1 I I #
vertex $-1 $666 $720 #
straight-curve $-1 79.422589800714135 50.202484067336982 0 0 0 -1 I I #
plane-surface $-1 79.422589800714135 0 0 -1 0 0 0 0 1 forward_v I I I I #
coedge $-1 $620 $617 $721 $722 forward $267 $-1 #
edge $-1 $674 31.388386977852932 $723 42.48559754119178 $617 $724 forward 7 unknown #
vertex $-1 $673 $725 #
straight-curve $-1 -68.325379237375287 -50.202484067336982 6.4495226801004986 0 0 -1 I I #
coedge $-1 $726 $624 $620 $677 forward $551 $-1 #
edge $-1 $667 -79.422589800714135 $727 79.422589800714135 $620 $728 forward 7 unknown #
coedge $-1 $729 $721 $715 $730 forward $622 $-1 #
coedge $-1 $624 $726 $665 $717 forward $551 $-1 #
coedge $-1 $625 $665 $729 $731 reversed $442 $-1 #
edge $-1 $732 -42.48559754119178 $682 -31.388386977852932 $625 $733 forward 7 unknown #
vertex $-1 $681 $734 #
straight-curve $-1 -68.325379237375287 50.202484067336982 6.4495226801004986 0 0 1 I I #
face $-1 $572 $735 $19 $-1 $736 forward single #
loop $-1 $-1 $737 $628 #
plane-surface $-1 -73.873984519044711 0 10.405185139295149 0 0 1 1 0 0 forward_v I I I I #
coedge $-1 $691 $650 $631 $689 forward $629 $-1 #
coedge $-1 $631 $646 $690 $738 forward $558 $-1 #
edge $-1 $652 -8.9433829010063466 $739 -3.9556624591946505 $687 $740 forward 7 unknown #
coedge $-1 $633 $632 $688 $738 reversed $467 $-1 #
coedge $-1 $741 $687 $632 $692 forward $629 $-1 #
edge $-1 $739 31.388386977852939 $697 42.485597541191787 $691 $742 forward 7 unknown #
edge $-1 $698 -42.485597541191787 $706 -31.388386977852939 $645 $743 forward 7 unknown #
coedge $-1 $744 $634 $705 $745 forward $696 $-1 #
coedge $-1 $634 $744 $741 $746 reversed $696 $-1 #
loop $-1 $-1 $634 $747 #
vertex $-1 $746 $748 #
vertex $-1 $745 $749 #
straight-curve $-1 79.422589800714135 0 10.405185139295149 0 -1 0 I I #
coedge $-1 $750 $751 $636 $701 reversed $735 $-1 #
edge $-1 $712 -50.202484067336982 $703 50.202484067336982 $636 $752 forward 7 unknown #
coedge $-1 $753 $637 $751 $754 forward $480 $-1 #
vertex $-1 $638 $755 #
point $-1 10.651498179535579 -50.202484067336982 5.2439233339044149 #
coedge $-1 $645 $756 $694 $745 reversed $480 $-1 #
vertex $-1 $693 $757 #
straight-curve $-1 68.325379237375301 -50.202484067336982 6.4495226801004986 0 0 1 I I #
face $-1 $747 $758 $19 $-1 $759 reversed single #
loop $-1 $-1 $760 $648 #
plane-surface $-1 0 0 -15.392905581106845 0 0 1 1 0 0 forward_v I I I I #
coedge $-1 $650 $761 $750 $762 forward $629 $-1 #
vertex $-1 $701 $763 #
straight-curve $-1 0 50.202484067336982 15.392905581106845 -1 0 0 I I #
point $-1 68.325379237375301 50.202484067336982 15.392905581106845 #
coedge $-1 $660 $659 $678 $730 reversed $528 $-1 #
straight-curve $-1 -68.325379237375287 0 10.405185139295149 0 -1 0 I I #
edge $-1 $764 -79.422589800714135 $669 79.422589800714135 $665 $765 forward 7 unknown #
straight-curve $-1 79.422589800714135 0 -15.392905581106845 0 -1 0 I I #
point $-1 79.422589800714135 -50.202484067336982 -15.392905581106845 #
point $-1 79.422589800714135 50.202484067336982 -15.392905581106845 #
coedge $-1 $678 $766 $672 $722 reversed $622 $-1 #
edge $-1 $723 -10.405185139295149 $727 15.392905581106845 $721 $767 forward 7 unknown #
vertex $-1 $722 $768 #
straight-curve $-1 -36.936992259522356 -50.202484067336982 10.405185139295149 -1 0 0 I I #
point $-1 -68.325379237375287 -50.202484067336982 10.405185139295149 #
coedge $-1 $679 $676 $766 $769 forward $551 $-1 #
vertex $-1 $769 $770 #
straight-curve $-1 0 -50.202484067336982 -15.392905581106845 -1 0 0 I I #
coedge $-1 $766 $678 $680 $731 forward $622 $-1 #
edge $-1 $723 -50.202484067336982 $732 50.202484067336982 $678 $771 forward 7 unknown #
edge $-1 $732 -10.405185139295149 $764 15.392905581106845 $680 $772 forward 7 unknown #
vertex $-1 $731 $773 #
straight-curve $-1 -36.936992259522356 50.202484067336982 10.405185139295149 1 0 0 I I #
point $-1 -68.325379237375287 50.202484067336982 10.405185139295149 #
loop $-1 $-1 $751 $684 #
plane-surface $-1 -68.325379237375287 0 12.899045360200997 -1 0 0 0 0 1 forward_v I I I I #
coedge $-1 $774 $775 $776 $777 reversed $685 $-1 #
edge $-1 $706 -50.202484067336982 $739 50.202484067336982 $688 $778 forward 7 unknown #
vertex $-1 $692 $779 #
straight-curve $-1 68.325379237375301 50.202484067336982 6.4495226801004986 0 0 -1 I I #
coedge $-1 $780 $691 $695 $746 forward $629 $-1 #
straight-curve $-1 36.936992259522363 50.202484067336982 10.405185139295149 1 0 0 I I #
straight-curve $-1 36.936992259522363 -50.202484067336982 10.405185139295149 -1 0 0 I I #
coedge $-1 $695 $694 $760 $781 reversed $696 $-1 #
edge $-1 $698 -10.405185139295149 $782 15.392905581106845 $694 $783 forward 7 unknown #
edge $-1 $697 -10.405185139295149 $784 15.392905581106845 $695 $785 forward 7 unknown #
face $-1 $-1 $696 $19 $-1 $786 reversed single #
point $-1 79.42258980071415 50.202484067336982 10.405185139295149 #
point $-1 79.42258980071415 -50.202484067336982 10.405185139295149 #
coedge $-1 $776 $700 $711 $762 reversed $735 $-1 #
coedge $-1 $700 $776 $702 $754 reversed $735 $-1 #
straight-curve $-1 -68.325379237375287 0 15.392905581106845 0 -1 0 I I #
coedge $-1 $787 $702 $775 $788 forward $480 $-1 #
edge $-1 $703 -8.9433829010063466 $789 -3.9556624591946505 $702 $790 forward 7 unknown #
point $-1 -68.325379237375287 -50.202484067336982 15.392905581106845 #
coedge $-1 $705 $787 $791 $792 reversed $480 $-1 #
point $-1 68.325379237375301 -50.202484067336982 10.405185139295149 #
loop $-1 $-1 $793 $708 #
plane-surface $-1 -79.422589800714135 0 0 1 0 0 0 0 -1 forward_v I I I I #
coedge $-1 $791 $794 $744 $781 forward $709 $-1 #
coedge $-1 $711 $795 $774 $796 forward $629 $-1 #
edge $-1 $797 3.9556624591946505 $712 8.9433829010063466 $711 $798 forward 7 unknown #
point $-1 -68.325379237375287 50.202484067336982 15.392905581106845 #
vertex $-1 $717 $799 #
straight-curve $-1 0 50.202484067336982 -15.392905581106845 1 0 0 I I #
coedge $-1 $721 $729 $726 $769 reversed $622 $-1 #
straight-curve $-1 -79.422589800714135 -50.202484067336982 0 0 0 -1 I I #
point $-1 -79.422589800714135 -50.202484067336982 10.405185139295149 #
edge $-1 $727 -50.202484067336982 $764 50.202484067336982 $766 $800 forward 7 unknown #
point $-1 -79.422589800714135 -50.202484067336982 -15.392905581106845 #
straight-curve $-1 -79.422589800714135 0 10.405185139295149 0 1 0 I I #
straight-curve $-1 -79.422589800714135 50.202484067336982 0 0 0 -1 I I #
point $-1 -79.422589800714135 50.202484067336982 10.405185139295149 #
coedge $-1 $801 $737 $761 $796 reversed $685 $-1 #
coedge $-1 $737 $801 $753 $788 reversed $685 $-1 #
coedge $-1 $751 $750 $737 $777 forward $735 $-1 #
edge $-1 $797 -50.202484067336982 $789 50.202484067336982 $776 $802 forward 7 unknown #
straight-curve $-1 68.325379237375301 0 10.405185139295149 0 1 0 I I #
point $-1 68.325379237375301 50.202484067336982 10.405185139295149 #
coedge $-1 $795 $741 $794 $803 reversed $629 $-1 #
edge $-1 $784 -50.202484067336982 $782 50.202484067336982 $744 $804 forward 7 unknown #
vertex $-1 $745 $805 #
straight-curve $-1 79.422589800714135 -50.202484067336982 0 0 0 -1 I I #
vertex $-1 $781 $806 #
straight-curve $-1 79.422589800714135 50.202484067336982 0 0 0 -1 I I #
plane-surface $-1 79.422589800714135 0 0 -1 0 0 0 0 1 forward_v I I I I #
coedge $-1 $756 $753 $807 $808 forward $480 $-1 #
edge $-1 $789 31.388386977852932 $809 42.48559754119178 $753 $810 forward 7 unknown #
vertex $-1 $788 $811 #
straight-curve $-1 -68.325379237375287 -50.202484067336982 6.4495226801004986 0 0 -1 I I #
coedge $-1 $812 $760 $756 $792 forward $709 $-1 #
edge $-1 $782 -79.422589800714135 $813 79.422589800714135 $756 $814 forward 7 unknown #
coedge $-1 $815 $807 $801 $816 forward $758 $-1 #
coedge $-1 $760 $812 $780 $803 forward $709 $-1 #
coedge $-1 $761 $780 $815 $817 reversed $629 $-1 #
edge $-1 $818 -42.48559754119178 $797 -31.388386977852932 $761 $819 forward 7 unknown #
vertex $-1 $796 $820 #
straight-curve $-1 -68.325379237375287 50.202484067336982 6.4495226801004986 0 0 1 I I #
point $-1 -79.422589800714135 50.202484067336982 -15.392905581106845 #
straight-curve $-1 -79.422589800714135 0 -15.392905581106845 0 1 0 I I #
coedge $-1 $775 $774 $793 $816 reversed $685 $-1 #
straight-curve $-1 -68.325379237375287 0 10.405185139295149 0 -1 0 I I #
edge $-1 $821 -79.422589800714135 $784 79.422589800714135 $780 $822 forward 7 unknown #
straight-curve $-1 79.422589800714135 0 -15.392905581106845 0 -1 0 I I #
point $-1 79.422589800714135 -50.202484067336982 -15.392905581106845 #
point $-1 79.422589800714135 50.202484067336982 -15.392905581106845 #
coedge $-1 $793 $823 $787 $808 reversed $758 $-1 #
edge $-1 $809 -10.405185139295149 $813 15.392905581106845 $807 $824 forward 7 unknown #
vertex $-1 $808 $825 #
straight-curve $-1 -36.936992259522356 -50.202484067336982 10.405185139295149 -1 0 0 I I #
point $-1 -68.325379237375287 -50.202484067336982 10.405185139295149 #
coedge $-1 $794 $791 $823 $826 forward $709 $-1 #
vertex $-1 $826 $827 #
straight-curve $-1 0 -50.202484067336982 -15.392905581106845 -1 0 0 I I #
coedge $-1 $823 $793 $795 $817 forward $758 $-1 #
edge $-1 $809 -50.202484067336982 $818 50.202484067336982 $793 $828 forward 7 unknown #
edge $-1 $818 -10.405185139295149 $821 15.392905581106845 $795 $829 forward 7 unknown #
vertex $-1 $817 $830 #
straight-curve $-1 -36.936992259522356 50.202484067336982 10.405185139295149 1 0 0 I I #
point $-1 -68.325379237375287 50.202484067336982 10.405185139295149 #
vertex $-1 $803 $831 #
straight-curve $-1 0 50.202484067336982 -15.392905581106845 1 0 0 I I #
coedge $-1 $807 $815 $812 $826 reversed $758 $-1 #
straight-curve $-1 -79.422589800714135 -50.202484067336982 0 0 0 -1 I I #
point $-1 -79.422589800714135 -50.202484067336982 10.405185139295149 #
edge $-1 $813 -50.202484067336982 $821 50.202484067336982 $823 $832 forward 7 unknown #
point $-1 -79.422589800714135 -50.202484067336982 -15.392905581106845 #
straight-curve $-1 -79.422589800714135 0 10.405185139295149 0 1 0 I I #
straight-curve $-1 -79.422589800714135 50.202484067336982 0 0 0 -1 I I #
point $-1 -79.422589800714135 50.202484067336982 10.405185139295149 #
point $-1 -79.422589800714135 50.202484067336982 -15.392905581106845 #
straight-curve $-1 -79.422589800714135 0 -15.392905581106845 0 1 0 I I #
End-of-ACIS-data 