500 0 8 0           
7 Unknown 11 ACIS 5.0 NT 24 Fri Mar 26 18:11:29 1999 
-1 9.9999999999999995e-007 1e-010 
body $-1 $8 $-1 $9 #
body $-1 $10 $-1 $11 #
body $-1 $12 $-1 $13 #
body $-1 $14 $-1 $15 #
body $-1 $16 $-1 $17 #
body $-1 $18 $-1 $19 #
body $-1 $20 $-1 $21 #
body $-1 $22 $-1 $23 #
lump $-1 $-1 $24 $0 #
transform $-1 1 0 0 0 1 0 0 0 1 43.807489242225408 21.536220014261673 4.8431683718708278 1 rotate no_reflect no_shear #
lump $-1 $-1 $25 $1 #
transform $-1 1 0 0 0 1 0 0 0 1 43.807489242225408 21.536220014261673 4.8431683718708278 1 rotate no_reflect no_shear #
lump $-1 $-1 $26 $2 #
transform $-1 1 0 0 0 1 0 0 0 1 43.807489242225408 21.536220014261673 4.8431683718708278 1 rotate no_reflect no_shear #
lump $-1 $-1 $27 $3 #
transform $-1 1 0 0 0 1 0 0 0 1 43.807489242225408 21.536220014261673 4.8431683718708278 1 rotate no_reflect no_shear #
lump $-1 $-1 $28 $4 #
transform $-1 1 0 0 0 1 0 0 0 1 43.807489242225408 21.536220014261673 4.8431683718708278 1 rotate no_reflect no_shear #
lump $-1 $-1 $29 $5 #
transform $-1 1 0 0 0 1 0 0 0 1 43.807489242225408 21.536220014261673 4.8431683718708278 1 rotate no_reflect no_shear #
lump $-1 $-1 $30 $6 #
transform $-1 1 0 0 0 1 0 0 0 1 43.807489242225408 21.536220014261673 4.8431683718708278 1 rotate no_reflect no_shear #
lump $-1 $-1 $31 $7 #
transform $-1 1 0 0 0 1 0 0 0 1 43.807489242225408 21.536220014261673 4.8431683718708278 1 rotate no_reflect no_shear #
shell $-1 $-1 $-1 $32 $-1 $8 #
shell $-1 $-1 $-1 $33 $-1 $10 #
shell $-1 $-1 $-1 $34 $-1 $12 #
shell $-1 $-1 $-1 $35 $-1 $14 #
shell $-1 $-1 $-1 $36 $-1 $16 #
shell $-1 $-1 $-1 $37 $-1 $18 #
shell $-1 $-1 $-1 $38 $-1 $20 #
shell $-1 $-1 $-1 $39 $-1 $22 #
face $-1 $40 $41 $24 $-1 $42 forward single #
face $-1 $43 $44 $25 $-1 $45 forward single #
face $-1 $46 $47 $26 $-1 $48 reversed single #
face $-1 $49 $50 $27 $-1 $51 forward single #
face $-1 $52 $53 $28 $-1 $54 forward single #
face $-1 $55 $56 $29 $-1 $57 reversed single #
face $-1 $58 $59 $30 $-1 $60 forward single #
face $-1 $61 $62 $31 $-1 $63 forward single #
face $-1 $64 $65 $24 $-1 $66 reversed single #
loop $-1 $-1 $67 $32 #
plane-surface $-1 0 0 4.8431683718708278 0 0 1 1 0 0 forward_v I I I I #
face $-1 $68 $69 $25 $-1 $70 reversed single #
loop $-1 $-1 $71 $33 #
plane-surface $-1 -43.807489242225408 0 0 1 0 0 0 0 -1 forward_v I I I I #
face $-1 $72 $73 $26 $-1 $74 reversed single #
loop $-1 $-1 $75 $34 #
plane-surface $-1 20.036726321868667 43.200540674902427 95.994920699162776 1 0 0 0 -0.62932039886446345 -0.77714595512881146 forward_v I I I I #
face $-1 $76 $77 $27 $-1 $78 forward single #
loop $-1 $79 $80 $35 #
cone-surface $-1 26.121110853349684 18.194510913735375 1.7780553206165262 0 -0.62932039886446345 -0.77714595512881146 1 0 0 1 I I 0 1 1 forward I I I I #
face $-1 $81 $82 $28 $-1 $83 forward single #
loop $-1 $84 $85 $36 #
cone-surface $-1 35.247687650571201 18.194510913735375 1.7780553206165262 0 -0.62932039886446345 -0.77714595512881146 1 0 0 1 I I 0 1 1 forward I I I I #
face $-1 $86 $87 $29 $-1 $88 reversed single #
loop $-1 $-1 $89 $37 #
plane-surface $-1 41.332072182052201 -76.674113220597647 68.888555560346788 -1 0 0 0 -0.62932039886446345 0.77714595512881146 forward_v I I I I #
face $-1 $90 $91 $30 $-1 $92 forward single #
loop $-1 $93 $94 $38 #
cone-surface $-1 26.121110853349684 -18.194510913735375 1.7780553206165279 0 0.62932039886446345 -0.77714595512881146 1 0 0 1 I I 0 1 1 forward I I I I #
face $-1 $95 $96 $31 $-1 $97 forward single #
loop $-1 $98 $99 $39 #
cone-surface $-1 35.247687650571201 -18.194510913735375 1.7780553206165279 0 0.62932039886446345 -0.77714595512881146 1 0 0 1 I I 0 1 1 forward I I I I #
face $-1 $100 $101 $24 $-1 $102 reversed single #
loop $-1 $-1 $103 $40 #
plane-surface $-1 0 0 -4.8431683718708278 0 0 1 1 0 0 forward_v I I I I #
coedge $-1 $104 $105 $106 $107 forward $41 $-1 #
face $-1 $108 $109 $25 $-1 $110 reversed single #
loop $-1 $-1 $111 $43 #
plane-surface $-1 0 0 -4.8431683718708278 0 0 1 1 0 0 forward_v I I I I #
coedge $-1 $112 $113 $114 $115 forward $44 $-1 #
face $-1 $116 $117 $26 $-1 $118 reversed single #
loop $-1 $-1 $119 $46 #
plane-surface $-1 30.684399251960436 -11.937352531433547 27.905294561273976 0 0.62932039886446345 0.77714595512881146 1 0 0 forward_v I I I I #
coedge $-1 $120 $121 $122 $123 reversed $47 $-1 #
face $-1 $-1 $124 $27 $-1 $125 forward single #
loop $-1 $126 $127 $49 #
cone-surface $-1 26.121110853349684 17.03525115192442 0.34648876650423333 0 -0.62932039886446345 -0.77714595512881146 0.5 0 0 1 I I -0.70710678118654746 0.70710678118654746 0.5 forward I I I I #
loop $-1 $-1 $128 $35 #
coedge $-1 $80 $80 $129 $130 reversed $50 $-1 #
face $-1 $-1 $131 $28 $-1 $132 forward single #
loop $-1 $133 $134 $52 #
cone-surface $-1 35.247687650571201 17.03525115192442 0.34648876650423333 0 -0.62932039886446345 -0.77714595512881146 0.5 0 0 1 I I -0.70710678118654746 0.70710678118654746 0.5 forward I I I I #
loop $-1 $-1 $135 $36 #
coedge $-1 $85 $85 $136 $137 reversed $53 $-1 #
face $-1 $138 $139 $29 $-1 $140 reversed single #
loop $-1 $-1 $141 $55 #
plane-surface $-1 30.684399251960436 -21.536220014261673 0.79892942245798793 0 -0.62932039886446345 0.77714595512881146 1 0 0 forward_v I I I I #
coedge $-1 $142 $143 $144 $145 reversed $56 $-1 #
face $-1 $-1 $146 $30 $-1 $147 forward single #
loop $-1 $148 $149 $58 #
cone-surface $-1 26.121110853349684 -17.03525115192442 0.3464887665042351 0 0.62932039886446345 -0.77714595512881146 0.5 0 0 1 I I -0.70710678118654746 0.70710678118654746 0.5 forward I I I I #
loop $-1 $-1 $150 $38 #
coedge $-1 $94 $94 $151 $152 reversed $59 $-1 #
face $-1 $-1 $153 $31 $-1 $154 forward single #
loop $-1 $155 $156 $61 #
cone-surface $-1 35.247687650571201 -17.03525115192442 0.3464887665042351 0 0.62932039886446345 -0.77714595512881146 0.5 0 0 1 I I -0.70710678118654746 0.70710678118654746 0.5 forward I I I I #
loop $-1 $-1 $157 $39 #
coedge $-1 $99 $99 $158 $159 reversed $62 $-1 #
face $-1 $160 $161 $24 $-1 $162 reversed single #
loop $-1 $-1 $163 $64 #
plane-surface $-1 0 -21.536220014261673 0 0 1 0 0 0 1 forward_v I I I I #
coedge $-1 $164 $165 $166 $167 forward $65 $-1 #
coedge $-1 $168 $67 $169 $170 forward $41 $-1 #
coedge $-1 $67 $168 $171 $172 forward $41 $-1 #
coedge $-1 $173 $174 $67 $107 reversed $175 $-1 #
edge $-1 $176 -21.536220014261673 $177 21.536220014261673 $106 $178 forward 7 unknown #
face $-1 $179 $180 $25 $-1 $181 reversed single #
loop $-1 $-1 $182 $68 #
plane-surface $-1 -46.540315023893825 -15.543881233881489 0 0 1 0 0 0 1 forward_v I I I I #
coedge $-1 $183 $184 $113 $185 forward $69 $-1 #
coedge $-1 $186 $71 $187 $188 reversed $44 $-1 #
coedge $-1 $71 $186 $111 $185 reversed $44 $-1 #
coedge $-1 $189 $190 $71 $115 reversed $191 $-1 #
edge $-1 $192 -4.8431683718708278 $193 4.8431683718708278 $114 $194 forward 7 unknown #
face $-1 $195 $196 $26 $-1 $197 forward single #
loop $-1 $-1 $198 $72 #
plane-surface $-1 41.332072182052201 43.200540674902427 95.994920699162776 -1 0 0 0 0.62932039886446345 0.77714595512881146 forward_v I I I I #
coedge $-1 $199 $200 $201 $202 reversed $73 $-1 #
coedge $-1 $121 $75 $203 $204 reversed $47 $-1 #
coedge $-1 $75 $120 $199 $205 reversed $47 $-1 #
coedge $-1 $201 $206 $75 $123 forward $196 $-1 #
edge $-1 $207 0.064050323189540848 $208 5.058269399484697 $122 $209 forward 7 unknown #
loop $-1 $-1 $129 $76 #
plane-surface $-1 30.684399251960436 -11.937352531433547 27.905294561273976 0 0.62932039886446345 0.77714595512881146 1 0 0 forward_v I I I I #
loop $-1 $-1 $210 $49 #
coedge $-1 $127 $127 $128 $211 reversed $77 $-1 #
coedge $-1 $128 $128 $127 $211 forward $79 $-1 #
coedge $-1 $129 $129 $80 $130 forward $124 $-1 #
edge $-1 $212 2.447735745004514e-015 $212 6.2831853071796031 $129 $213 forward 7 unknown #
loop $-1 $-1 $136 $81 #
plane-surface $-1 30.684399251960436 -11.937352531433547 27.905294561273976 0 0.62932039886446345 0.77714595512881146 1 0 0 forward_v I I I I #
loop $-1 $-1 $214 $52 #
coedge $-1 $134 $134 $135 $215 reversed $82 $-1 #
coedge $-1 $135 $135 $134 $215 forward $84 $-1 #
coedge $-1 $136 $136 $85 $137 forward $131 $-1 #
edge $-1 $216 2.447735745004514e-015 $216 6.2831853071796031 $136 $217 forward 7 unknown #
face $-1 $218 $219 $29 $-1 $220 forward single #
loop $-1 $-1 $221 $86 #
plane-surface $-1 20.036726321868667 -76.674113220597647 68.888555560346788 1 0 0 0 0.62932039886446345 -0.77714595512881146 forward_v I I I I #
coedge $-1 $222 $223 $224 $225 reversed $87 $-1 #
coedge $-1 $143 $89 $226 $227 reversed $56 $-1 #
coedge $-1 $89 $142 $222 $228 reversed $56 $-1 #
coedge $-1 $224 $229 $89 $145 forward $219 $-1 #
edge $-1 $230 16.800836596037151 $231 21.79505567233231 $144 $232 forward 7 unknown #
loop $-1 $-1 $151 $90 #
plane-surface $-1 30.684399251960436 -21.536220014261673 0.79892942245798793 0 -0.62932039886446345 0.77714595512881146 1 0 0 forward_v I I I I #
loop $-1 $-1 $233 $58 #
coedge $-1 $149 $149 $150 $234 reversed $91 $-1 #
coedge $-1 $150 $150 $149 $234 forward $93 $-1 #
coedge $-1 $151 $151 $94 $152 forward $146 $-1 #
edge $-1 $235 -1.0503637516332841e-015 $235 6.2831853071795996 $151 $236 forward 7 unknown #
loop $-1 $-1 $158 $95 #
plane-surface $-1 30.684399251960436 -21.536220014261673 0.79892942245798793 0 -0.62932039886446345 0.77714595512881146 1 0 0 forward_v I I I I #
loop $-1 $-1 $237 $61 #
coedge $-1 $156 $156 $157 $238 reversed $96 $-1 #
coedge $-1 $157 $157 $156 $238 forward $98 $-1 #
coedge $-1 $158 $158 $99 $159 forward $153 $-1 #
edge $-1 $239 -1.0503637516332841e-015 $239 6.2831853071795996 $158 $240 forward 7 unknown #
face $-1 $241 $242 $24 $-1 $243 reversed single #
loop $-1 $-1 $244 $100 #
plane-surface $-1 -43.807489242225408 0 0 1 0 0 0 0 -1 forward_v I I I I #
coedge $-1 $245 $171 $246 $247 forward $101 $-1 #
coedge $-1 $248 $103 $245 $249 forward $65 $-1 #
coedge $-1 $103 $248 $250 $251 forward $65 $-1 #
coedge $-1 $174 $173 $103 $167 reversed $175 $-1 #
edge $-1 $252 -21.536220014261673 $253 21.536220014261673 $166 $254 forward 7 unknown #
coedge $-1 $105 $104 $255 $256 forward $41 $-1 #
coedge $-1 $257 $258 $104 $170 reversed $242 $-1 #
edge $-1 $177 -43.807489242225408 $259 43.807489242225408 $169 $260 forward 7 unknown #
coedge $-1 $163 $261 $105 $172 reversed $101 $-1 #
edge $-1 $262 -43.807489242225408 $176 43.807489242225408 $171 $263 forward 7 unknown #
coedge $-1 $166 $106 $261 $264 forward $175 $-1 #
coedge $-1 $106 $166 $257 $265 reversed $175 $-1 #
loop $-1 $-1 $173 $241 #
vertex $-1 $107 $266 #
vertex $-1 $107 $267 #
straight-curve $-1 43.807489242225408 0 4.8431683718708278 0 1 0 I I #
face $-1 $268 $191 $25 $-1 $269 reversed single #
loop $-1 $-1 $270 $108 #
plane-surface $-1 -49.273140805562242 -14.043881233881489 0 1 0 0 0 0 -1 forward_v I I I I #
coedge $-1 $271 $272 $273 $274 forward $109 $-1 #
coedge $-1 $275 $111 $271 $276 forward $69 $-1 #
coedge $-1 $111 $275 $189 $277 forward $69 $-1 #
edge $-1 $192 12.543881233881489 $278 15.543881233881489 $111 $279 forward 7 unknown #
coedge $-1 $113 $112 $280 $281 forward $44 $-1 #
coedge $-1 $282 $283 $112 $188 forward $284 $-1 #
edge $-1 $285 -15.543881233881489 $193 -12.543881233881489 $187 $286 forward 7 unknown #
coedge $-1 $287 $114 $184 $277 reversed $191 $-1 #
coedge $-1 $114 $287 $282 $288 reversed $191 $-1 #
loop $-1 $-1 $114 $179 #
vertex $-1 $185 $289 #
vertex $-1 $288 $290 #
straight-curve $-1 -43.807489242225408 -12.543881233881489 0 0 0 1 I I #
face $-1 $-1 $291 $26 $-1 $292 reversed single #
loop $-1 $-1 $122 $116 #
plane-surface $-1 0 0 4.8431683718708278 0 0 1 1 0 0 forward_v I I I I #
coedge $-1 $293 $294 $295 $296 reversed $117 $-1 #
coedge $-1 $297 $119 $121 $205 forward $73 $-1 #
coedge $-1 $119 $297 $293 $298 forward $73 $-1 #
coedge $-1 $295 $122 $119 $202 forward $196 $-1 #
edge $-1 $208 4.6945266958884488 $299 25.989872556071983 $201 $300 forward 7 unknown #
coedge $-1 $301 $302 $120 $204 forward $291 $-1 #
edge $-1 $303 -47.1985309271234 $207 -43.154291977710557 $203 $304 forward 7 unknown #
edge $-1 $208 36.64608080560572 $303 43.072440028523339 $121 $305 forward 7 unknown #
coedge $-1 $122 $295 $301 $306 forward $196 $-1 #
vertex $-1 $204 $307 #
vertex $-1 $123 $308 #
straight-curve $-1 20.036726321868667 21.600270337451214 4.8431683718708314 0 -1 0 I I #
coedge $-1 $210 $210 $-1 $309 reversed $126 $-1 #
edge $-1 $310 0 $310 6.2831853071796004 $127 $311 forward 7 unknown #
vertex $-1 $130 $312 #
ellipse-curve $-1 26.121110853349684 19.039110476114093 2.8210488971644083 0 0.62932039886446345 0.77714595512881146 1 0 0 1 I I #
coedge $-1 $214 $214 $-1 $313 reversed $133 $-1 #
edge $-1 $314 0 $314 6.2831853071796004 $134 $315 forward 7 unknown #
vertex $-1 $137 $316 #
ellipse-curve $-1 35.247687650571201 19.039110476114093 2.8210488971644083 0 0.62932039886446345 0.77714595512881146 1 0 0 1 I I #
face $-1 $-1 $317 $29 $-1 $318 reversed single #
loop $-1 $-1 $144 $138 #
plane-surface $-1 0 0 4.8431683718708278 0 0 1 1 0 0 forward_v I I I I #
coedge $-1 $319 $320 $321 $322 reversed $139 $-1 #
coedge $-1 $323 $141 $143 $228 forward $87 $-1 #
coedge $-1 $141 $323 $319 $324 forward $87 $-1 #
coedge $-1 $321 $144 $141 $225 forward $219 $-1 #
edge $-1 $231 -25.989872556071983 $325 -4.6945266958884488 $224 $326 forward 7 unknown #
coedge $-1 $327 $328 $142 $227 forward $317 $-1 #
edge $-1 $329 -33.645348357715406 $230 -29.601109408302566 $226 $330 forward 7 unknown #
edge $-1 $231 -6.4263592229176201 $329 0 $143 $331 forward 7 unknown #
coedge $-1 $144 $321 $327 $332 forward $219 $-1 #
vertex $-1 $145 $333 #
vertex $-1 $145 $334 #
straight-curve $-1 41.332072182052201 -38.337056610298824 4.8431683718708314 0 1 0 I I #
coedge $-1 $233 $233 $-1 $335 reversed $148 $-1 #
edge $-1 $336 0 $336 6.2831853071796004 $149 $337 forward 7 unknown #
vertex $-1 $152 $338 #
ellipse-curve $-1 26.121110853349684 -19.039110476114093 2.8210488971644079 0 -0.62932039886446345 0.77714595512881146 1 0 0 1 I I #
coedge $-1 $237 $237 $-1 $339 reversed $155 $-1 #
edge $-1 $340 0 $340 6.2831853071796004 $156 $341 forward 7 unknown #
vertex $-1 $159 $342 #
ellipse-curve $-1 35.247687650571201 -19.039110476114093 2.8210488971644079 0 -0.62932039886446345 0.77714595512881146 1 0 0 1 I I #
face $-1 $-1 $175 $24 $-1 $343 reversed single #
loop $-1 $-1 $257 $160 #
plane-surface $-1 0 21.536220014261673 0 0 -1 0 0 0 -1 forward_v I I I I #
coedge $-1 $344 $255 $258 $345 forward $161 $-1 #
coedge $-1 $261 $163 $164 $249 reversed $101 $-1 #
coedge $-1 $255 $344 $163 $247 reversed $161 $-1 #
edge $-1 $262 -4.8431683718708278 $346 4.8431683718708278 $246 $347 forward 7 unknown #
coedge $-1 $165 $164 $344 $348 forward $65 $-1 #
edge $-1 $253 -43.807489242225408 $346 43.807489242225408 $245 $349 forward 7 unknown #
coedge $-1 $258 $257 $165 $251 reversed $242 $-1 #
edge $-1 $350 -43.807489242225408 $252 43.807489242225408 $250 $351 forward 7 unknown #
vertex $-1 $167 $352 #
vertex $-1 $264 $353 #
straight-curve $-1 43.807489242225408 0 -4.8431683718708278 0 -1 0 I I #
coedge $-1 $244 $246 $168 $256 reversed $161 $-1 #
edge $-1 $259 -21.536220014261673 $262 21.536220014261673 $255 $354 forward 7 unknown #
coedge $-1 $250 $169 $174 $265 forward $242 $-1 #
coedge $-1 $169 $250 $244 $345 reversed $242 $-1 #
vertex $-1 $170 $355 #
straight-curve $-1 0 21.536220014261673 4.8431683718708278 -1 0 0 I I #
coedge $-1 $171 $245 $173 $264 reversed $101 $-1 #
vertex $-1 $256 $356 #
straight-curve $-1 0 -21.536220014261673 4.8431683718708278 1 0 0 I I #
edge $-1 $176 -4.8431683718708278 $253 4.8431683718708278 $173 $357 forward 7 unknown #
edge $-1 $177 -4.8431683718708278 $252 4.8431683718708278 $174 $358 forward 7 unknown #
point $-1 43.807489242225408 -21.536220014261673 4.8431683718708278 #
point $-1 43.807489242225408 21.536220014261673 4.8431683718708278 #
face $-1 $-1 $284 $25 $-1 $359 forward single #
plane-surface $-1 -46.540315023893825 -12.543881233881489 0 0 -1 0 0 0 -1 forward_v I I I I #
coedge $-1 $360 $361 $287 $362 forward $180 $-1 #
coedge $-1 $280 $182 $183 $276 reversed $109 $-1 #
coedge $-1 $182 $280 $283 $363 reversed $109 $-1 #
coedge $-1 $361 $360 $182 $274 reversed $180 $-1 #
edge $-1 $364 -4.8431683718708278 $365 4.8431683718708278 $273 $366 forward 7 unknown #
coedge $-1 $184 $183 $360 $367 forward $69 $-1 #
edge $-1 $278 -2.7328257816684172 $365 2.7328257816684172 $271 $368 forward 7 unknown #
edge $-1 $369 -2.7328257816684172 $192 2.7328257816684172 $189 $370 forward 7 unknown #
vertex $-1 $276 $371 #
straight-curve $-1 -43.807489242225408 0 -4.8431683718708278 0 -1 0 I I #
coedge $-1 $272 $271 $186 $281 reversed $109 $-1 #
edge $-1 $285 -4.8431683718708278 $278 4.8431683718708278 $280 $372 forward 7 unknown #
coedge $-1 $373 $187 $190 $288 forward $284 $-1 #
coedge $-1 $187 $373 $272 $363 forward $284 $-1 #
loop $-1 $-1 $187 $268 #
vertex $-1 $188 $374 #
straight-curve $-1 -43.807489242225408 0 4.8431683718708278 0 1 0 I I #
coedge $-1 $190 $189 $270 $362 reversed $191 $-1 #
edge $-1 $193 -2.7328257816684172 $375 2.7328257816684172 $190 $376 forward 7 unknown #
point $-1 -43.807489242225408 -12.543881233881489 -4.8431683718708278 #
point $-1 -43.807489242225408 -12.543881233881489 4.8431683718708278 #
loop $-1 $-1 $203 $195 #
plane-surface $-1 0 21.536220014261673 0 0 -1 0 0 0 -1 forward_v I I I I #
coedge $-1 $294 $198 $200 $298 reversed $117 $-1 #
coedge $-1 $198 $293 $377 $378 reversed $117 $-1 #
coedge $-1 $206 $201 $198 $296 forward $196 $-1 #
edge $-1 $299 -5.058269399484697 $379 -0.064050323189540848 $295 $380 forward 7 unknown #
coedge $-1 $200 $199 $302 $381 reversed $73 $-1 #
edge $-1 $382 -43.072440028523339 $299 -36.64608080560572 $293 $383 forward 7 unknown #
vertex $-1 $202 $384 #
straight-curve $-1 15.342199625980218 16.542000937966517 4.843168371870826 1 0 0 I I #
coedge $-1 $377 $203 $206 $306 reversed $291 $-1 #
coedge $-1 $203 $377 $297 $381 forward $291 $-1 #
vertex $-1 $204 $385 #
straight-curve $-1 20.036726321868667 21.536220014261673 47.997460349581388 0 0 1 I I #
straight-curve $-1 20.036726321868667 -11.937352531433547 27.905294561273976 0 0.77714595512881146 -0.62932039886446345 I I #
edge $-1 $379 -41.332072182052201 $207 -20.036726321868667 $301 $386 forward 7 unknown #
point $-1 20.036726321868667 21.536220014261673 4.8431683718708278 #
point $-1 20.036726321868667 16.542000937966517 4.8431683718708278 #
edge $-1 $387 1 $387 0 $210 $-1 forward 7 unknown #
vertex $-1 $211 $388 #
ellipse-curve $-1 26.121110853349684 17.349911351356653 0.73506174406863911 0 0.62932039886446345 0.77714595512881146 1 0 0 1 I I #
point $-1 27.121110853349684 19.0391104761141 2.8210488971644132 #
edge $-1 $389 1 $389 0 $214 $-1 forward 7 unknown #
vertex $-1 $215 $390 #
ellipse-curve $-1 35.247687650571201 17.349911351356653 0.73506174406863911 0 0.62932039886446345 0.77714595512881146 1 0 0 1 I I #
point $-1 36.247687650571201 19.0391104761141 2.8210488971644132 #
loop $-1 $-1 $226 $218 #
plane-surface $-1 0 -21.536220014261673 0 0 1 0 0 0 1 forward_v I I I I #
coedge $-1 $320 $221 $223 $324 reversed $139 $-1 #
coedge $-1 $221 $319 $391 $392 reversed $139 $-1 #
coedge $-1 $229 $224 $221 $322 forward $219 $-1 #
edge $-1 $325 -21.79505567233231 $393 -16.800836596037151 $321 $394 forward 7 unknown #
coedge $-1 $223 $222 $328 $395 reversed $87 $-1 #
edge $-1 $396 0 $325 6.4263592229176201 $319 $397 forward 7 unknown #
vertex $-1 $225 $398 #
straight-curve $-1 15.342199625980218 -16.542000937966513 4.8431683718708278 -1 0 0 I I #
coedge $-1 $391 $226 $229 $332 reversed $317 $-1 #
coedge $-1 $226 $391 $323 $395 forward $317 $-1 #
vertex $-1 $227 $399 #
straight-curve $-1 41.332072182052201 -21.536220014261673 34.444277780173394 0 0 1 I I #
straight-curve $-1 41.332072182052201 -21.536220014261673 0.79892942245798793 0 -0.77714595512881146 -0.62932039886446345 I I #
edge $-1 $393 20.036726321868667 $230 41.332072182052201 $327 $400 forward 7 unknown #
point $-1 41.332072182052201 -21.536220014261673 4.8431683718708278 #
point $-1 41.332072182052201 -16.542000937966513 4.8431683718708278 #
edge $-1 $401 1 $401 0 $233 $-1 forward 7 unknown #
vertex $-1 $234 $402 #
ellipse-curve $-1 26.121110853349684 -17.349911351356653 0.73506174406864089 0 -0.62932039886446345 0.77714595512881146 1 0 0 1 I I #
point $-1 27.121110853349684 -19.0391104761141 2.821048897164415 #
edge $-1 $403 1 $403 0 $237 $-1 forward 7 unknown #
vertex $-1 $238 $404 #
ellipse-curve $-1 35.247687650571201 -17.349911351356653 0.73506174406864089 0 -0.62932039886446345 0.77714595512881146 1 0 0 1 I I #
point $-1 36.247687650571201 -19.0391104761141 2.821048897164415 #
plane-surface $-1 43.807489242225408 0 0 -1 0 0 0 0 1 forward_v I I I I #
coedge $-1 $246 $244 $248 $348 reversed $161 $-1 #
edge $-1 $259 -4.8431683718708278 $350 4.8431683718708278 $258 $405 forward 7 unknown #
vertex $-1 $348 $406 #
straight-curve $-1 -43.807489242225408 -21.536220014261673 0 0 0 -1 I I #
edge $-1 $346 -21.536220014261673 $350 21.536220014261673 $344 $407 forward 7 unknown #
straight-curve $-1 0 -21.536220014261673 -4.8431683718708278 -1 0 0 I I #
vertex $-1 $251 $408 #
straight-curve $-1 0 21.536220014261673 -4.8431683718708278 1 0 0 I I #
point $-1 43.807489242225408 21.536220014261673 -4.8431683718708278 #
point $-1 43.807489242225408 -21.536220014261673 -4.8431683718708278 #
straight-curve $-1 -43.807489242225408 0 4.8431683718708278 0 -1 0 I I #
point $-1 -43.807489242225408 21.536220014261673 4.8431683718708278 #
point $-1 -43.807489242225408 -21.536220014261673 4.8431683718708278 #
straight-curve $-1 43.807489242225408 -21.536220014261673 0 0 0 -1 I I #
straight-curve $-1 43.807489242225408 21.536220014261673 0 0 0 -1 I I #
plane-surface $-1 0 0 4.8431683718708278 0 0 1 1 0 0 forward_v I I I I #
coedge $-1 $273 $270 $275 $367 reversed $180 $-1 #
coedge $-1 $270 $273 $373 $409 reversed $180 $-1 #
edge $-1 $375 -4.8431683718708278 $369 4.8431683718708278 $287 $410 forward 7 unknown #
edge $-1 $364 -2.7328257816684172 $285 2.7328257816684172 $272 $411 forward 7 unknown #
vertex $-1 $409 $412 #
vertex $-1 $367 $413 #
straight-curve $-1 -49.273140805562242 -15.543881233881489 0 0 0 -1 I I #
edge $-1 $365 -1.5 $369 1.5 $360 $414 forward 7 unknown #
straight-curve $-1 -46.540315023893825 -15.543881233881489 -4.8431683718708278 -1 0 0 I I #
vertex $-1 $277 $415 #
straight-curve $-1 -46.540315023893825 -12.543881233881489 -4.8431683718708278 1 0 0 I I #
point $-1 -43.807489242225408 -15.543881233881489 -4.8431683718708278 #
straight-curve $-1 -43.807489242225408 -15.543881233881489 0 0 0 -1 I I #
coedge $-1 $283 $282 $361 $409 forward $284 $-1 #
point $-1 -43.807489242225408 -15.543881233881489 4.8431683718708278 #
vertex $-1 $288 $416 #
straight-curve $-1 -46.540315023893825 -12.543881233881489 4.8431683718708278 -1 0 0 I I #
coedge $-1 $302 $301 $294 $378 forward $291 $-1 #
edge $-1 $379 43.154291977710557 $382 47.1985309271234 $377 $417 forward 7 unknown #
vertex $-1 $306 $418 #
straight-curve $-1 41.332072182052201 21.600270337451214 4.8431683718708314 0 1 0 I I #
edge $-1 $382 -25.989872556071983 $303 -4.6945266958884488 $302 $419 forward 7 unknown #
vertex $-1 $381 $420 #
straight-curve $-1 41.332072182052201 -11.937352531433547 27.905294561273976 0 -0.77714595512881146 0.62932039886446345 I I #
point $-1 41.332072182052201 16.542000937966517 4.8431683718708278 #
point $-1 20.036726321868667 21.536220014261673 0.79892942245798793 #
straight-curve $-1 0 21.536220014261673 4.8431683718708278 -1 0 0 I I #
vertex $-1 $309 $421 #
point $-1 27.121110853349684 17.349911351356653 0.73506174406863911 #
vertex $-1 $313 $422 #
point $-1 36.247687650571201 17.349911351356653 0.73506174406863911 #
coedge $-1 $328 $327 $320 $392 forward $317 $-1 #
edge $-1 $393 29.601109408302566 $396 33.645348357715406 $391 $423 forward 7 unknown #
vertex $-1 $332 $424 #
straight-curve $-1 20.036726321868667 -38.337056610298824 4.8431683718708314 0 -1 0 I I #
edge $-1 $396 4.6945266958884488 $329 25.989872556071983 $328 $425 forward 7 unknown #
vertex $-1 $395 $426 #
straight-curve $-1 20.036726321868667 -21.536220014261673 0.79892942245798793 0 0.77714595512881146 0.62932039886446345 I I #
point $-1 20.036726321868667 -16.542000937966513 4.8431683718708278 #
point $-1 41.332072182052201 -21.536220014261673 0.79892942245798793 #
straight-curve $-1 0 -21.536220014261673 4.8431683718708278 1 0 0 I I #
vertex $-1 $335 $427 #
point $-1 27.121110853349684 -17.349911351356653 0.73506174406864089 #
vertex $-1 $339 $428 #
point $-1 36.247687650571201 -17.349911351356653 0.73506174406864089 #
straight-curve $-1 -43.807489242225408 21.536220014261673 0 0 0 -1 I I #
point $-1 -43.807489242225408 -21.536220014261673 -4.8431683718708278 #
straight-curve $-1 -43.807489242225408 0 -4.8431683718708278 0 1 0 I I #
point $-1 -43.807489242225408 21.536220014261673 -4.8431683718708278 #
edge $-1 $375 -1.5 $364 1.5 $361 $429 forward 7 unknown #
straight-curve $-1 -49.273140805562242 -12.543881233881489 0 0 0 -1 I I #
straight-curve $-1 -46.540315023893825 -15.543881233881489 4.8431683718708278 1 0 0 I I #
point $-1 -49.273140805562242 -15.543881233881489 4.8431683718708278 #
point $-1 -49.273140805562242 -15.543881233881489 -4.8431683718708278 #
straight-curve $-1 -49.273140805562242 -14.043881233881489 -4.8431683718708278 0 1 0 I I #
point $-1 -49.273140805562242 -12.543881233881489 -4.8431683718708278 #
point $-1 -49.273140805562242 -12.543881233881489 4.8431683718708278 #
straight-curve $-1 41.332072182052201 21.536220014261673 47.997460349581388 0 0 -1 I I #
point $-1 41.332072182052201 21.536220014261673 4.8431683718708278 #
straight-curve $-1 15.342199625980218 21.536220014261676 0.79892942245798793 -1 0 0 I I #
point $-1 41.332072182052201 21.536220014261673 0.79892942245798793 #
point $-1 26.121110853349684 16.720590952492188 -0.042084211060172405 #
point $-1 35.247687650571201 16.720590952492188 -0.042084211060172405 #
straight-curve $-1 20.036726321868667 -21.536220014261673 34.444277780173394 0 0 -1 I I #
point $-1 20.036726321868667 -21.536220014261673 4.8431683718708278 #
straight-curve $-1 15.342199625980218 -21.536220014261673 0.79892942245798892 1 0 0 I I #
point $-1 20.036726321868667 -21.536220014261673 0.79892942245798793 #
point $-1 26.121110853349684 -16.720590952492188 -0.042084211060170629 #
point $-1 35.247687650571201 -16.720590952492188 -0.042084211060170629 #
straight-curve $-1 -49.273140805562242 -14.043881233881489 4.8431683718708278 0 -1 0 I I #
End-of-ACIS-data 