500 0 11 0           
7 Unknown 11 ACIS 5.0 NT 24 Thu Mar 25 17:39:42 1999 
-1 9.9999999999999995e-007 1e-010 
body $-1 $11 $-1 $12 #
body $-1 $13 $-1 $14 #
body $-1 $15 $-1 $16 #
body $-1 $17 $-1 $18 #
body $-1 $19 $-1 $20 #
body $-1 $21 $-1 $22 #
body $-1 $23 $-1 $24 #
body $-1 $25 $-1 $26 #
body $-1 $27 $-1 $28 #
body $-1 $29 $-1 $30 #
body $-1 $31 $-1 $32 #
lump $-1 $-1 $33 $0 #
transform $-1 1 0 0 0 1 0 0 0 1 44.853663747062598 26.235156648783924 12.455113997135763 1 rotate no_reflect no_shear #
lump $-1 $-1 $34 $1 #
transform $-1 1 0 0 0 1 0 0 0 1 44.853663747062598 26.235156648783924 12.455113997135763 1 rotate no_reflect no_shear #
lump $-1 $-1 $35 $2 #
transform $-1 1 0 0 0 1 0 0 0 1 44.853663747062598 26.235156648783924 12.455113997135763 1 rotate no_reflect no_shear #
lump $-1 $-1 $36 $3 #
transform $-1 1 0 0 0 1 0 0 0 1 44.853663747062598 26.235156648783924 12.455113997135763 1 rotate no_reflect no_shear #
lump $-1 $-1 $37 $4 #
transform $-1 1 0 0 0 1 0 0 0 1 44.853663747062598 26.235156648783924 12.455113997135763 1 rotate no_reflect no_shear #
lump $-1 $-1 $38 $5 #
transform $-1 1 0 0 0 1 0 0 0 1 44.853663747062598 26.235156648783924 12.455113997135763 1 rotate no_reflect no_shear #
lump $-1 $-1 $39 $6 #
transform $-1 1 0 0 0 1 0 0 0 1 44.853663747062598 26.235156648783924 12.455113997135763 1 rotate no_reflect no_shear #
lump $-1 $-1 $40 $7 #
transform $-1 1 0 0 0 1 0 0 0 1 44.853663747062598 26.235156648783924 12.455113997135763 1 rotate no_reflect no_shear #
lump $-1 $-1 $41 $8 #
transform $-1 1 0 0 0 1 0 0 0 1 44.853663747062598 26.235156648783924 12.455113997135763 1 rotate no_reflect no_shear #
lump $-1 $-1 $42 $9 #
transform $-1 1 0 0 0 1 0 0 0 1 44.853663747062598 26.235156648783924 12.455113997135763 1 rotate no_reflect no_shear #
lump $-1 $-1 $43 $10 #
transform $-1 1 0 0 0 1 0 0 0 1 44.853663747062598 26.235156648783924 12.455113997135763 1 rotate no_reflect no_shear #
shell $-1 $-1 $-1 $44 $-1 $11 #
shell $-1 $-1 $-1 $45 $-1 $13 #
shell $-1 $-1 $-1 $46 $-1 $15 #
shell $-1 $-1 $-1 $47 $-1 $17 #
shell $-1 $-1 $-1 $48 $-1 $19 #
shell $-1 $-1 $-1 $49 $-1 $21 #
shell $-1 $-1 $-1 $50 $-1 $23 #
shell $-1 $-1 $-1 $51 $-1 $25 #
shell $-1 $-1 $-1 $52 $-1 $27 #
shell $-1 $-1 $-1 $53 $-1 $29 #
shell $-1 $-1 $-1 $54 $-1 $31 #
face $-1 $55 $56 $33 $-1 $57 forward single #
face $-1 $58 $59 $34 $-1 $60 forward single #
face $-1 $61 $62 $35 $-1 $63 reversed single #
face $-1 $64 $65 $36 $-1 $66 forward single #
face $-1 $67 $68 $37 $-1 $69 forward single #
face $-1 $70 $71 $38 $-1 $72 reversed single #
face $-1 $73 $74 $39 $-1 $75 forward single #
face $-1 $76 $77 $40 $-1 $78 forward single #
face $-1 $79 $80 $41 $-1 $81 reversed single #
face $-1 $82 $83 $42 $-1 $84 forward single #
face $-1 $85 $86 $43 $-1 $87 forward single #
face $-1 $88 $89 $33 $-1 $90 reversed single #
loop $-1 $-1 $91 $44 #
plane-surface $-1 0 0 12.455113997135763 0 0 1 1 0 0 forward_v I I I I #
face $-1 $92 $93 $34 $-1 $94 reversed single #
loop $-1 $-1 $95 $45 #
plane-surface $-1 0 -26.235156648783924 0 0 1 0 0 0 1 forward_v I I I I #
face $-1 $96 $97 $35 $-1 $98 reversed single #
loop $-1 $-1 $99 $46 #
plane-surface $-1 -91.056353619567773 14.32600875564842 80.440540461440563 0 1 0 -0.51503808176128008 0 0.85716729658548041 forward_v I I I I #
face $-1 $100 $101 $36 $-1 $102 forward single #
loop $-1 $103 $104 $47 #
cone-surface $-1 -36.626127389498329 16.619654526223481 6.645673077222364 0.51503808176128008 0 -0.85716729658548041 0.85716729658548041 0 0.51503808176128008 1 I I 0 1 1 forward I I I I #
face $-1 $105 $106 $37 $-1 $107 forward single #
loop $-1 $108 $109 $48 #
cone-surface $-1 -36.626127389498329 20.06012318208607 6.645673077222364 0.51503808176128008 0 -0.85716729658548041 0.85716729658548041 0 0.51503808176128008 1 I I 0 1 1 forward I I I I #
face $-1 $110 $111 $38 $-1 $112 reversed single #
loop $-1 $-1 $113 $49 #
plane-surface $-1 20.646620736689243 -0.62726717516914832 132.65585439167603 0 -1 0 -0.55919291073839883 0 -0.82903756765294845 forward_v I I I I #
face $-1 $114 $115 $39 $-1 $116 forward single #
loop $-1 $117 $118 $50 #
cone-surface $-1 41.158608799609326 -5.7086303312254891 9.5728313197923516 -0.55919291073839883 0 -0.82903756765294845 0.41451878382647422 0 -0.27959645536919941 1 I I 0 1 0.5 forward I I I I #
face $-1 $119 $120 $40 $-1 $121 forward single #
loop $-1 $122 $123 $51 #
cone-surface $-1 41.158608799609326 -2.6598124375916825 9.5728313197923516 -0.55919291073839883 0 -0.82903756765294845 0.41451878382647422 0 -0.27959645536919941 1 I I 0 1 0.5 forward I I I I #
face $-1 $124 $125 $41 $-1 $126 reversed single #
loop $-1 $-1 $127 $52 #
plane-surface $-1 20.646620736689243 21.228140308170936 132.65585439167603 0 -1 0 -0.55919291073839883 0 -0.82903756765294845 forward_v I I I I #
face $-1 $128 $129 $42 $-1 $130 forward single #
loop $-1 $131 $132 $53 #
cone-surface $-1 41.158608799609326 16.146777152114598 9.5728313197923516 -0.55919291073839883 0 -0.82903756765294845 0.41451878382647422 0 -0.27959645536919941 1 I I 0 1 0.5 forward I I I I #
face $-1 $133 $134 $43 $-1 $135 forward single #
loop $-1 $136 $137 $54 #
cone-surface $-1 41.158608799609326 19.195595045748401 9.5728313197923516 -0.55919291073839883 0 -0.82903756765294845 0.41451878382647422 0 -0.27959645536919941 1 I I 0 1 0.5 forward I I I I #
face $-1 $138 $139 $33 $-1 $140 reversed single #
loop $-1 $-1 $141 $55 #
plane-surface $-1 0 0 -12.455113997135763 0 0 1 1 0 0 forward_v I I I I #
coedge $-1 $142 $143 $144 $145 forward $56 $-1 #
face $-1 $146 $147 $34 $-1 $148 reversed single #
loop $-1 $-1 $149 $58 #
plane-surface $-1 0 0 -12.455113997135763 0 0 1 1 0 0 forward_v I I I I #
coedge $-1 $150 $151 $152 $153 forward $59 $-1 #
face $-1 $154 $155 $35 $-1 $156 reversed single #
loop $-1 $-1 $157 $61 #
plane-surface $-1 -44.853663747062591 18.339888854154776 3.5463530693929357 -0.51503808176128008 0 0.85716729658548041 0.85716729658548041 0 0.51503808176128008 forward_v I I I I #
coedge $-1 $158 $159 $160 $161 reversed $62 $-1 #
face $-1 $-1 $162 $36 $-1 $163 forward single #
loop $-1 $164 $165 $64 #
cone-surface $-1 -35.554405869439421 16.619654526223481 4.862028972887634 0.51503808176128008 0 -0.85716729658548041 0.4285836482927402 0 0.25751904088064004 1 I I -0.70710678118654746 0.70710678118654746 0.5 forward I I I I #
loop $-1 $-1 $166 $47 #
coedge $-1 $104 $104 $167 $168 reversed $65 $-1 #
face $-1 $-1 $169 $37 $-1 $170 forward single #
loop $-1 $171 $172 $67 #
cone-surface $-1 -35.554405869439421 20.06012318208607 4.862028972887634 0.51503808176128008 0 -0.85716729658548041 0.4285836482927402 0 0.25751904088064004 1 I I -0.70710678118654746 0.70710678118654746 0.5 forward I I I I #
loop $-1 $-1 $173 $48 #
coedge $-1 $109 $109 $174 $175 reversed $68 $-1 #
face $-1 $176 $177 $38 $-1 $178 reversed single #
loop $-1 $-1 $179 $70 #
plane-surface $-1 -29.517080839313415 -4.1842213844085876 58.28510980530001 0.55919291073839883 0 0.82903756765294845 0.82903756765294845 0 -0.55919291073839883 forward_v I I I I #
coedge $-1 $180 $181 $182 $183 reversed $71 $-1 #
face $-1 $-1 $184 $39 $-1 $185 forward single #
loop $-1 $186 $187 $73 #
cone-surface $-1 40.536247073932174 -5.7086303312254891 8.6501421344549225 -0.55919291073839883 0 -0.82903756765294845 0.20725939191323711 0 -0.13979822768459971 1 I I -0.70710678118654746 0.70710678118654746 0.25 forward I I I I #
loop $-1 $-1 $188 $50 #
coedge $-1 $118 $118 $189 $190 reversed $74 $-1 #
face $-1 $-1 $191 $40 $-1 $192 forward single #
loop $-1 $193 $194 $76 #
cone-surface $-1 40.536247073932174 -2.6598124375916825 8.6501421344549225 -0.55919291073839883 0 -0.82903756765294845 0.20725939191323711 0 -0.13979822768459971 1 I I -0.70710678118654746 0.70710678118654746 0.25 forward I I I I #
loop $-1 $-1 $195 $51 #
coedge $-1 $123 $123 $196 $197 reversed $77 $-1 #
face $-1 $198 $199 $41 $-1 $200 reversed single #
loop $-1 $-1 $201 $79 #
plane-surface $-1 -29.517080839313415 17.671186098931496 58.28510980530001 0.55919291073839883 0 0.82903756765294845 0.82903756765294845 0 -0.55919291073839883 forward_v I I I I #
coedge $-1 $202 $203 $204 $205 reversed $80 $-1 #
face $-1 $-1 $206 $42 $-1 $207 forward single #
loop $-1 $208 $209 $82 #
cone-surface $-1 40.536247073932174 16.146777152114598 8.6501421344549225 -0.55919291073839883 0 -0.82903756765294845 0.20725939191323711 0 -0.13979822768459971 1 I I -0.70710678118654746 0.70710678118654746 0.25 forward I I I I #
loop $-1 $-1 $210 $53 #
coedge $-1 $132 $132 $211 $212 reversed $83 $-1 #
face $-1 $-1 $213 $43 $-1 $214 forward single #
loop $-1 $215 $216 $85 #
cone-surface $-1 40.536247073932174 19.195595045748401 8.6501421344549225 -0.55919291073839883 0 -0.82903756765294845 0.20725939191323711 0 -0.13979822768459971 1 I I -0.70710678118654746 0.70710678118654746 0.25 forward I I I I #
loop $-1 $-1 $217 $54 #
coedge $-1 $137 $137 $218 $219 reversed $86 $-1 #
face $-1 $220 $221 $33 $-1 $222 reversed single #
loop $-1 $-1 $223 $88 #
plane-surface $-1 0 -26.235156648783924 0 0 1 0 0 0 1 forward_v I I I I #
coedge $-1 $224 $225 $226 $227 forward $89 $-1 #
coedge $-1 $228 $91 $229 $230 forward $56 $-1 #
coedge $-1 $91 $228 $231 $232 forward $56 $-1 #
coedge $-1 $233 $234 $91 $145 reversed $235 $-1 #
edge $-1 $236 -26.235156648783924 $237 26.235156648783924 $144 $238 forward 7 unknown #
face $-1 $239 $240 $34 $-1 $241 forward single #
loop $-1 $-1 $242 $92 #
plane-surface $-1 44.853663747062598 0 0 -1 0 0 0 0 1 forward_v I I I I #
coedge $-1 $243 $244 $245 $246 forward $93 $-1 #
coedge $-1 $245 $95 $242 $247 reversed $59 $-1 #
coedge $-1 $95 $245 $248 $249 reversed $59 $-1 #
coedge $-1 $250 $251 $95 $153 reversed $240 $-1 #
edge $-1 $252 -44.853663747062598 $253 44.853663747062598 $152 $254 forward 7 unknown #
face $-1 $255 $256 $35 $-1 $257 forward single #
loop $-1 $-1 $258 $96 #
plane-surface $-1 -91.056353619567773 22.353768952661131 80.440540461440563 0 -1 0 0.51503808176128008 0 -0.85716729658548041 forward_v I I I I #
coedge $-1 $259 $260 $261 $262 reversed $97 $-1 #
coedge $-1 $159 $99 $263 $264 reversed $62 $-1 #
coedge $-1 $99 $158 $259 $265 reversed $62 $-1 #
coedge $-1 $261 $266 $99 $161 forward $256 $-1 #
edge $-1 $267 0.67451306272128875 $268 15.501180819493303 $160 $269 forward 7 unknown #
loop $-1 $-1 $167 $100 #
plane-surface $-1 -44.853663747062591 18.339888854154776 3.5463530693929357 -0.51503808176128008 0 0.85716729658548041 0.85716729658548041 0 0.51503808176128008 forward_v I I I I #
loop $-1 $-1 $270 $64 #
coedge $-1 $165 $165 $166 $271 reversed $101 $-1 #
coedge $-1 $166 $166 $165 $271 forward $103 $-1 #
coedge $-1 $167 $167 $104 $168 forward $162 $-1 #
edge $-1 $272 0 $272 6.2831853071796004 $167 $273 forward 7 unknown #
loop $-1 $-1 $174 $105 #
plane-surface $-1 -44.853663747062591 18.339888854154776 3.5463530693929357 -0.51503808176128008 0 0.85716729658548041 0.85716729658548041 0 0.51503808176128008 forward_v I I I I #
loop $-1 $-1 $274 $67 #
coedge $-1 $172 $172 $173 $275 reversed $106 $-1 #
coedge $-1 $173 $173 $172 $275 forward $108 $-1 #
coedge $-1 $174 $174 $109 $175 forward $169 $-1 #
edge $-1 $276 0 $276 6.2831853071796004 $174 $277 forward 7 unknown #
face $-1 $278 $279 $38 $-1 $280 reversed single #
loop $-1 $-1 $281 $110 #
plane-surface $-1 20.646620736689243 -7.7411755936480269 132.65585439167603 0 1 0 0.55919291073839883 0 0.82903756765294845 forward_v I I I I #
coedge $-1 $282 $283 $284 $285 reversed $111 $-1 #
coedge $-1 $181 $113 $286 $287 reversed $71 $-1 #
coedge $-1 $113 $180 $282 $288 reversed $71 $-1 #
coedge $-1 $284 $289 $113 $183 forward $290 $-1 #
edge $-1 $291 -34.530353378717976 $292 -28.105370479796541 $182 $293 forward 7 unknown #
loop $-1 $-1 $189 $114 #
plane-surface $-1 -29.517080839313415 -4.1842213844085876 58.28510980530001 0.55919291073839883 0 0.82903756765294845 0.82903756765294845 0 -0.55919291073839883 forward_v I I I I #
loop $-1 $-1 $294 $73 #
coedge $-1 $187 $187 $188 $295 reversed $115 $-1 #
coedge $-1 $188 $188 $187 $295 forward $117 $-1 #
coedge $-1 $189 $189 $118 $190 forward $184 $-1 #
edge $-1 $296 0 $296 6.2831853071796004 $189 $297 forward 7 unknown #
loop $-1 $-1 $196 $119 #
plane-surface $-1 -29.517080839313415 -4.1842213844085876 58.28510980530001 0.55919291073839883 0 0.82903756765294845 0.82903756765294845 0 -0.55919291073839883 forward_v I I I I #
loop $-1 $-1 $298 $76 #
coedge $-1 $194 $194 $195 $299 reversed $120 $-1 #
coedge $-1 $195 $195 $194 $299 forward $122 $-1 #
coedge $-1 $196 $196 $123 $197 forward $191 $-1 #
edge $-1 $300 0 $300 6.2831853071796004 $196 $301 forward 7 unknown #
face $-1 $302 $303 $41 $-1 $304 reversed single #
loop $-1 $-1 $305 $124 #
plane-surface $-1 20.646620736689243 14.114231889692057 132.65585439167603 0 1 0 0.55919291073839883 0 0.82903756765294845 forward_v I I I I #
coedge $-1 $306 $307 $308 $309 reversed $125 $-1 #
coedge $-1 $203 $127 $310 $311 reversed $80 $-1 #
coedge $-1 $127 $202 $306 $312 reversed $80 $-1 #
coedge $-1 $308 $313 $127 $205 forward $314 $-1 #
edge $-1 $315 -34.530353378717976 $316 -28.105370479796541 $204 $317 forward 7 unknown #
loop $-1 $-1 $211 $128 #
plane-surface $-1 -29.517080839313415 17.671186098931496 58.28510980530001 0.55919291073839883 0 0.82903756765294845 0.82903756765294845 0 -0.55919291073839883 forward_v I I I I #
loop $-1 $-1 $318 $82 #
coedge $-1 $209 $209 $210 $319 reversed $129 $-1 #
coedge $-1 $210 $210 $209 $319 forward $131 $-1 #
coedge $-1 $211 $211 $132 $212 forward $206 $-1 #
edge $-1 $320 0 $320 6.2831853071796004 $211 $321 forward 7 unknown #
loop $-1 $-1 $218 $133 #
plane-surface $-1 -29.517080839313415 17.671186098931496 58.28510980530001 0.55919291073839883 0 0.82903756765294845 0.82903756765294845 0 -0.55919291073839883 forward_v I I I I #
loop $-1 $-1 $322 $85 #
coedge $-1 $216 $216 $217 $323 reversed $134 $-1 #
coedge $-1 $217 $217 $216 $323 forward $136 $-1 #
coedge $-1 $218 $218 $137 $219 forward $213 $-1 #
edge $-1 $324 0 $324 6.2831853071796004 $218 $325 forward 7 unknown #
face $-1 $326 $327 $33 $-1 $328 reversed single #
loop $-1 $-1 $329 $138 #
plane-surface $-1 -44.853663747062598 0 0 1 0 0 0 0 -1 forward_v I I I I #
coedge $-1 $231 $330 $233 $331 reversed $139 $-1 #
coedge $-1 $332 $141 $330 $333 forward $89 $-1 #
coedge $-1 $141 $332 $334 $335 forward $89 $-1 #
coedge $-1 $234 $233 $141 $227 reversed $235 $-1 #
edge $-1 $336 -26.235156648783924 $337 26.235156648783924 $226 $338 forward 7 unknown #
coedge $-1 $143 $142 $339 $340 forward $56 $-1 #
coedge $-1 $341 $342 $142 $230 reversed $327 $-1 #
edge $-1 $237 -44.853663747062598 $343 44.853663747062598 $229 $344 forward 7 unknown #
coedge $-1 $345 $223 $143 $232 reversed $139 $-1 #
edge $-1 $346 -44.853663747062598 $236 44.853663747062598 $231 $347 forward 7 unknown #
coedge $-1 $226 $144 $223 $331 forward $235 $-1 #
coedge $-1 $144 $226 $341 $348 reversed $235 $-1 #
loop $-1 $-1 $233 $326 #
vertex $-1 $145 $349 #
vertex $-1 $145 $350 #
straight-curve $-1 44.853663747062598 0 12.455113997135763 0 1 0 I I #
face $-1 $351 $352 $34 $-1 $353 reversed single #
loop $-1 $-1 $251 $146 #
plane-surface $-1 0 -32.978639006045384 -7.8161570513108689 0 0 1 1 0 0 forward_v I I I I #
coedge $-1 $354 $355 $150 $247 forward $147 $-1 #
coedge $-1 $356 $149 $355 $357 forward $93 $-1 #
coedge $-1 $149 $356 $358 $359 forward $93 $-1 #
coedge $-1 $151 $150 $149 $246 reversed $59 $-1 #
edge $-1 $360 -44.853663747062598 $361 44.853663747062598 $149 $362 forward 7 unknown #
edge $-1 $361 -12.455113997135763 $253 -7.8161570513108689 $242 $363 forward 7 unknown #
coedge $-1 $358 $364 $151 $249 forward $365 $-1 #
edge $-1 $252 7.8161570513108689 $360 12.455113997135763 $248 $366 forward 7 unknown #
coedge $-1 $367 $152 $364 $368 forward $240 $-1 #
coedge $-1 $152 $367 $354 $369 forward $240 $-1 #
vertex $-1 $249 $370 #
vertex $-1 $369 $371 #
straight-curve $-1 0 -26.235156648783924 -7.8161570513108689 1 0 0 I I #
face $-1 $-1 $372 $35 $-1 $373 reversed single #
loop $-1 $-1 $160 $154 #
plane-surface $-1 0 0 12.455113997135763 0 0 1 1 0 0 forward_v I I I I #
coedge $-1 $374 $375 $376 $377 reversed $155 $-1 #
coedge $-1 $378 $157 $159 $265 forward $97 $-1 #
coedge $-1 $157 $378 $374 $379 forward $97 $-1 #
coedge $-1 $376 $160 $157 $262 forward $256 $-1 #
edge $-1 $268 5.1560643285710324 $380 13.183824525583743 $261 $381 forward 7 unknown #
coedge $-1 $382 $383 $158 $264 forward $372 $-1 #
edge $-1 $384 -36.673917161327353 $267 -27.76515623358452 $263 $385 forward 7 unknown #
edge $-1 $268 -17.297285857537879 $384 8.3777685069199533e-015 $159 $386 forward 7 unknown #
coedge $-1 $160 $376 $382 $387 forward $256 $-1 #
vertex $-1 $264 $388 #
vertex $-1 $161 $389 #
straight-curve $-1 -45.528176809783886 14.32600875564842 12.455113997135761 1 0 0 I I #
coedge $-1 $270 $270 $-1 $390 reversed $164 $-1 #
edge $-1 $391 0 $391 6.2831853071796004 $165 $392 forward 7 unknown #
vertex $-1 $168 $393 #
ellipse-curve $-1 -37.440329868676592 16.619654526223481 8.0007335332643468 -0.51503808176128008 0 0.85716729658548041 0.85716729658548041 0 0.51503808176128008 1 I I #
coedge $-1 $274 $274 $-1 $394 reversed $171 $-1 #
edge $-1 $395 0 $395 6.2831853071796004 $172 $396 forward 7 unknown #
vertex $-1 $175 $397 #
ellipse-curve $-1 -37.440329868676592 20.06012318208607 8.0007335332643468 -0.51503808176128008 0 0.85716729658548041 0.85716729658548041 0 0.51503808176128008 1 I I #
face $-1 $-1 $290 $38 $-1 $398 forward single #
loop $-1 $-1 $399 $176 #
plane-surface $-1 44.853663747062598 0 0 -1 0 0 0 0 1 forward_v I I I I #
coedge $-1 $400 $401 $402 $403 reversed $177 $-1 #
coedge $-1 $404 $179 $181 $288 forward $111 $-1 #
coedge $-1 $179 $404 $400 $405 forward $111 $-1 #
coedge $-1 $402 $182 $179 $285 forward $290 $-1 #
edge $-1 $292 -1.4648435170351455 $406 5.6490649014437331 $284 $407 forward 7 unknown #
coedge $-1 $408 $409 $180 $287 forward $279 $-1 #
edge $-1 $410 -58.206518966540663 $291 -53.872813198702254 $286 $411 forward 7 unknown #
edge $-1 $292 81.957397756790215 $410 89.707327494125195 $181 $412 forward 7 unknown #
coedge $-1 $182 $402 $408 $413 forward $290 $-1 #
loop $-1 $-1 $402 $278 #
vertex $-1 $287 $414 #
vertex $-1 $183 $415 #
straight-curve $-1 10.323310368344622 -0.62726717516914832 12.455113997135761 -1 0 0 I I #
coedge $-1 $294 $294 $-1 $416 reversed $186 $-1 #
edge $-1 $417 0 $417 6.2831853071796004 $187 $418 forward 7 unknown #
vertex $-1 $190 $419 #
ellipse-curve $-1 41.641172297601891 -5.7086303312254891 10.288261113216558 0.55919291073839883 0 0.82903756765294845 0.41451878382647422 0 -0.27959645536919941 1 I I #
coedge $-1 $298 $298 $-1 $420 reversed $193 $-1 #
edge $-1 $421 0 $421 6.2831853071796004 $194 $422 forward 7 unknown #
vertex $-1 $197 $423 #
ellipse-curve $-1 41.641172297601891 -2.6598124375916825 10.288261113216558 0.55919291073839883 0 0.82903756765294845 0.41451878382647422 0 -0.27959645536919941 1 I I #
face $-1 $-1 $314 $41 $-1 $424 forward single #
loop $-1 $-1 $425 $198 #
plane-surface $-1 44.853663747062598 0 0 -1 0 0 0 0 1 forward_v I I I I #
coedge $-1 $426 $427 $428 $429 reversed $199 $-1 #
coedge $-1 $430 $201 $203 $312 forward $125 $-1 #
coedge $-1 $201 $430 $426 $431 forward $125 $-1 #
coedge $-1 $428 $204 $201 $309 forward $314 $-1 #
edge $-1 $316 -12.392547258705187 $432 -5.2786388402263089 $308 $433 forward 7 unknown #
coedge $-1 $434 $435 $202 $311 forward $303 $-1 #
edge $-1 $436 -58.206518966540663 $315 -53.872813198702254 $310 $437 forward 7 unknown #
edge $-1 $316 81.957397756790215 $436 89.707327494125195 $203 $438 forward 7 unknown #
coedge $-1 $204 $428 $434 $439 forward $314 $-1 #
loop $-1 $-1 $428 $302 #
vertex $-1 $311 $440 #
vertex $-1 $205 $441 #
straight-curve $-1 10.323310368344622 21.228140308170936 12.455113997135761 -1 0 0 I I #
coedge $-1 $318 $318 $-1 $442 reversed $208 $-1 #
edge $-1 $443 0 $443 6.2831853071796004 $209 $444 forward 7 unknown #
vertex $-1 $212 $445 #
ellipse-curve $-1 41.641172297601891 16.146777152114598 10.288261113216558 0.55919291073839883 0 0.82903756765294845 0.41451878382647422 0 -0.27959645536919941 1 I I #
coedge $-1 $322 $322 $-1 $446 reversed $215 $-1 #
edge $-1 $447 0 $447 6.2831853071796004 $216 $448 forward 7 unknown #
vertex $-1 $219 $449 #
ellipse-curve $-1 41.641172297601891 19.195595045748401 10.288261113216558 0.55919291073839883 0 0.82903756765294845 0.41451878382647422 0 -0.27959645536919941 1 I I #
face $-1 $-1 $235 $33 $-1 $450 reversed single #
loop $-1 $-1 $341 $220 #
plane-surface $-1 0 26.235156648783924 0 0 -1 0 0 0 -1 forward_v I I I I #
coedge $-1 $451 $339 $342 $452 forward $221 $-1 #
coedge $-1 $223 $345 $224 $333 reversed $139 $-1 #
edge $-1 $236 -12.455113997135763 $337 12.455113997135763 $233 $453 forward 7 unknown #
coedge $-1 $225 $224 $451 $454 forward $89 $-1 #
edge $-1 $337 -44.853663747062598 $455 44.853663747062598 $330 $456 forward 7 unknown #
coedge $-1 $342 $341 $225 $335 reversed $327 $-1 #
edge $-1 $457 -44.853663747062598 $336 44.853663747062598 $334 $458 forward 7 unknown #
vertex $-1 $227 $459 #
vertex $-1 $331 $460 #
straight-curve $-1 44.853663747062598 0 -12.455113997135763 0 -1 0 I I #
coedge $-1 $329 $461 $228 $340 reversed $221 $-1 #
edge $-1 $343 -26.235156648783924 $346 26.235156648783924 $339 $462 forward 7 unknown #
coedge $-1 $334 $229 $234 $348 forward $327 $-1 #
coedge $-1 $229 $334 $329 $452 reversed $327 $-1 #
vertex $-1 $230 $463 #
straight-curve $-1 0 26.235156648783924 12.455113997135763 -1 0 0 I I #
coedge $-1 $330 $231 $461 $464 forward $139 $-1 #
vertex $-1 $340 $465 #
straight-curve $-1 0 -26.235156648783924 12.455113997135763 1 0 0 I I #
edge $-1 $237 -12.455113997135763 $336 12.455113997135763 $234 $466 forward 7 unknown #
point $-1 44.853663747062598 -26.235156648783924 12.455113997135763 #
point $-1 44.853663747062598 26.235156648783924 12.455113997135763 #
face $-1 $-1 $365 $34 $-1 $467 reversed single #
loop $-1 $-1 $468 $239 #
plane-surface $-1 0 -39.72212136330684 -10.135635524223316 0 1 0 0 0 1 forward_v I I I I #
coedge $-1 $469 $242 $251 $369 reversed $147 $-1 #
coedge $-1 $242 $469 $243 $357 reversed $147 $-1 #
coedge $-1 $244 $243 $470 $471 forward $93 $-1 #
edge $-1 $361 26.235156648783924 $472 39.72212136330684 $355 $473 forward 7 unknown #
coedge $-1 $474 $248 $244 $359 reversed $365 $-1 #
edge $-1 $475 -39.72212136330684 $360 -26.235156648783924 $358 $476 forward 7 unknown #
vertex $-1 $249 $477 #
vertex $-1 $357 $478 #
straight-curve $-1 0 -26.235156648783924 -12.455113997135763 1 0 0 I I #
straight-curve $-1 44.853663747062598 -26.235156648783924 0 0 0 1 I I #
coedge $-1 $248 $474 $250 $368 reversed $365 $-1 #
loop $-1 $-1 $248 $351 #
straight-curve $-1 -44.853663747062598 -26.235156648783924 0 0 0 -1 I I #
coedge $-1 $251 $250 $479 $480 forward $240 $-1 #
edge $-1 $252 -6.7434823572614562 $481 6.7434823572614562 $364 $482 forward 7 unknown #
edge $-1 $483 -6.7434823572614562 $253 6.7434823572614562 $354 $484 forward 7 unknown #
point $-1 -44.853663747062598 -26.235156648783928 -7.8161570513108689 #
point $-1 44.853663747062598 -26.235156648783928 -7.8161570513108689 #
loop $-1 $-1 $263 $255 #
plane-surface $-1 -44.853663747062598 0 0 1 0 0 0 0 -1 forward_v I I I I #
coedge $-1 $375 $258 $260 $379 reversed $155 $-1 #
coedge $-1 $258 $374 $485 $486 reversed $155 $-1 #
coedge $-1 $266 $261 $258 $377 forward $256 $-1 #
edge $-1 $380 -15.501180819493303 $487 -0.67451306272128875 $376 $488 forward 7 unknown #
coedge $-1 $260 $259 $383 $489 reversed $97 $-1 #
edge $-1 $490 -8.3777685069199533e-015 $380 17.297285857537879 $374 $491 forward 7 unknown #
vertex $-1 $262 $492 #
straight-curve $-1 -30.026995990290583 9.1699444270773878 12.455113997135763 0 1 0 I I #
coedge $-1 $485 $263 $266 $387 reversed $372 $-1 #
coedge $-1 $263 $485 $378 $489 forward $372 $-1 #
vertex $-1 $264 $493 #
straight-curve $-1 -44.853663747062598 14.32600875564842 40.220270230720281 0 0 1 I I #
straight-curve $-1 -44.853663747062591 14.32600875564842 3.5463530693929357 -0.85716729658548041 0 -0.51503808176128008 I I #
edge $-1 $487 -22.353768952661131 $267 -14.32600875564842 $382 $494 forward 7 unknown #
point $-1 -44.853663747062598 14.32600875564842 12.455113997135763 #
point $-1 -30.026995990290583 14.32600875564842 12.455113997135763 #
edge $-1 $495 1 $495 0 $270 $-1 forward 7 unknown #
vertex $-1 $271 $496 #
ellipse-curve $-1 -35.811924910320059 16.619654526223481 5.2906126211803741 -0.51503808176128008 0 0.85716729658548041 0.85716729658548041 0 0.51503808176128008 1 I I #
point $-1 -36.583162572091119 16.619654526223481 8.5157716150256331 #
edge $-1 $497 1 $497 0 $274 $-1 forward 7 unknown #
vertex $-1 $275 $498 #
ellipse-curve $-1 -35.811924910320059 20.06012318208607 5.2906126211803741 -0.51503808176128008 0 0.85716729658548041 0.85716729658548041 0 0.51503808176128008 1 I I #
point $-1 -36.583162572091119 20.06012318208607 8.5157716150256331 #
plane-surface $-1 0 0 12.455113997135763 0 0 1 1 0 0 forward_v I I I I #
coedge $-1 $409 $408 $401 $499 forward $279 $-1 #
coedge $-1 $401 $281 $283 $405 reversed $177 $-1 #
coedge $-1 $281 $400 $399 $499 reversed $177 $-1 #
coedge $-1 $289 $284 $281 $403 forward $290 $-1 #
edge $-1 $406 28.105370479796541 $500 34.530353378717976 $402 $501 forward 7 unknown #
coedge $-1 $283 $282 $409 $502 reversed $111 $-1 #
edge $-1 $503 -89.707327494125195 $406 -81.957397756790215 $400 $504 forward 7 unknown #
vertex $-1 $285 $505 #
straight-curve $-1 38.42868084814117 -2.0921106922042938 12.455113997135761 0 -1 0 I I #
coedge $-1 $399 $286 $289 $413 reversed $279 $-1 #
coedge $-1 $286 $399 $404 $502 forward $279 $-1 #
vertex $-1 $287 $506 #
straight-curve $-1 44.853663747062598 -0.62726717516914832 66.327927195838015 0 0 1 I I #
straight-curve $-1 -29.517080839313415 -0.62726717516914832 58.28510980530001 0.82903756765294845 0 -0.55919291073839883 I I #
edge $-1 $500 -7.7411755936480269 $291 -0.62726717516914832 $408 $507 forward 7 unknown #
point $-1 44.853663747062598 -0.62726717516914832 12.455113997135763 #
point $-1 38.428680848141163 -0.62726717516914832 12.455113997135761 #
edge $-1 $508 1 $508 0 $294 $-1 forward 7 unknown #
vertex $-1 $295 $509 #
ellipse-curve $-1 40.676045301616774 -5.7086303312254891 8.8574015263681591 0.55919291073839883 0 0.82903756765294845 0.41451878382647422 0 -0.27959645536919941 1 I I #
point $-1 42.055691081428357 -5.7086303312254891 10.008664657847346 #
edge $-1 $510 1 $510 0 $298 $-1 forward 7 unknown #
vertex $-1 $299 $511 #
ellipse-curve $-1 40.676045301616774 -2.6598124375916825 8.8574015263681591 0.55919291073839883 0 0.82903756765294845 0.41451878382647422 0 -0.27959645536919941 1 I I #
point $-1 42.055691081428357 -2.6598124375916825 10.008664657847346 #
plane-surface $-1 0 0 12.455113997135763 0 0 1 1 0 0 forward_v I I I I #
coedge $-1 $435 $434 $427 $512 forward $303 $-1 #
coedge $-1 $427 $305 $307 $431 reversed $199 $-1 #
coedge $-1 $305 $426 $425 $512 reversed $199 $-1 #
coedge $-1 $313 $308 $305 $429 forward $314 $-1 #
edge $-1 $432 28.105370479796541 $513 34.530353378717976 $428 $514 forward 7 unknown #
coedge $-1 $307 $306 $435 $515 reversed $125 $-1 #
edge $-1 $516 -89.707327494125195 $432 -81.957397756790215 $426 $517 forward 7 unknown #
vertex $-1 $309 $518 #
straight-curve $-1 38.42868084814117 8.8355930494657482 12.455113997135761 0 -1 0 I I #
coedge $-1 $425 $310 $313 $439 reversed $303 $-1 #
coedge $-1 $310 $425 $430 $515 forward $303 $-1 #
vertex $-1 $311 $519 #
straight-curve $-1 44.853663747062598 21.228140308170936 66.327927195838015 0 0 1 I I #
straight-curve $-1 -29.517080839313415 21.228140308170936 58.28510980530001 0.82903756765294845 0 -0.55919291073839883 I I #
edge $-1 $513 14.114231889692057 $315 21.228140308170936 $434 $520 forward 7 unknown #
point $-1 44.853663747062598 21.228140308170936 12.455113997135763 #
point $-1 38.428680848141163 21.228140308170936 12.455113997135761 #
edge $-1 $521 1 $521 0 $318 $-1 forward 7 unknown #
vertex $-1 $319 $522 #
ellipse-curve $-1 40.676045301616774 16.146777152114598 8.8574015263681591 0.55919291073839883 0 0.82903756765294845 0.41451878382647422 0 -0.27959645536919941 1 I I #
point $-1 42.055691081428357 16.146777152114598 10.008664657847346 #
edge $-1 $523 1 $523 0 $322 $-1 forward 7 unknown #
vertex $-1 $323 $524 #
ellipse-curve $-1 40.676045301616774 19.195595045748401 8.8574015263681591 0.55919291073839883 0 0.82903756765294845 0.41451878382647422 0 -0.27959645536919941 1 I I #
point $-1 42.055691081428357 19.195595045748401 10.008664657847346 #
plane-surface $-1 44.853663747062598 0 0 -1 0 0 0 0 1 forward_v I I I I #
coedge $-1 $461 $329 $332 $454 reversed $221 $-1 #
edge $-1 $343 -12.455113997135763 $457 12.455113997135763 $342 $525 forward 7 unknown #
straight-curve $-1 44.853663747062598 -26.235156648783924 0 0 0 -1 I I #
edge $-1 $455 -26.235156648783924 $457 26.235156648783924 $451 $526 forward 7 unknown #
vertex $-1 $454 $527 #
straight-curve $-1 0 -26.235156648783924 -12.455113997135763 -1 0 0 I I #
vertex $-1 $335 $528 #
straight-curve $-1 0 26.235156648783924 -12.455113997135763 1 0 0 I I #
point $-1 44.853663747062598 26.235156648783924 -12.455113997135763 #
point $-1 44.853663747062598 -26.235156648783924 -12.455113997135763 #
coedge $-1 $339 $451 $345 $464 reversed $221 $-1 #
straight-curve $-1 -44.853663747062598 0 12.455113997135763 0 -1 0 I I #
point $-1 -44.853663747062598 26.235156648783924 12.455113997135763 #
edge $-1 $346 -12.455113997135763 $455 12.455113997135763 $461 $529 forward 7 unknown #
point $-1 -44.853663747062598 -26.235156648783924 12.455113997135763 #
straight-curve $-1 44.853663747062598 26.235156648783924 0 0 0 -1 I I #
plane-surface $-1 -44.853663747062598 0 0 1 0 0 0 0 -1 forward_v I I I I #
coedge $-1 $470 $479 $474 $530 forward $352 $-1 #
coedge $-1 $355 $354 $531 $532 forward $147 $-1 #
coedge $-1 $531 $468 $356 $471 reversed $352 $-1 #
edge $-1 $472 -44.853663747062598 $475 44.853663747062598 $470 $533 forward 7 unknown #
vertex $-1 $532 $534 #
straight-curve $-1 44.853663747062598 0 -12.455113997135763 0 -1 0 I I #
coedge $-1 $364 $358 $468 $530 reversed $365 $-1 #
vertex $-1 $359 $535 #
straight-curve $-1 -44.853663747062598 0 -12.455113997135763 0 1 0 I I #
point $-1 -44.853663747062598 -26.235156648783924 -12.455113997135763 #
point $-1 44.853663747062598 -26.235156648783924 -12.455113997135763 #
coedge $-1 $468 $531 $367 $480 reversed $352 $-1 #
edge $-1 $481 -44.853663747062598 $483 44.853663747062598 $479 $536 forward 7 unknown #
vertex $-1 $368 $537 #
straight-curve $-1 -44.853663747062598 -32.978639006045384 -7.8161570513108689 0 -1 0 I I #
vertex $-1 $369 $538 #
straight-curve $-1 44.853663747062598 -32.978639006045384 -7.8161570513108689 0 1 0 I I #
coedge $-1 $383 $382 $375 $486 forward $372 $-1 #
edge $-1 $487 27.76515623358452 $490 36.673917161327353 $485 $539 forward 7 unknown #
vertex $-1 $387 $540 #
straight-curve $-1 -45.528176809783886 22.353768952661131 12.455113997135761 -1 0 0 I I #
edge $-1 $490 -13.183824525583743 $384 -5.1560643285710324 $383 $541 forward 7 unknown #
vertex $-1 $489 $542 #
straight-curve $-1 -44.853663747062591 22.353768952661131 3.5463530693929357 0.85716729658548041 0 0.51503808176128008 I I #
point $-1 -30.026995990290583 22.353768952661131 12.455113997135763 #
point $-1 -44.853663747062598 14.32600875564842 3.5463530693929313 #
straight-curve $-1 -44.853663747062598 0 12.455113997135763 0 -1 0 I I #
vertex $-1 $390 $543 #
point $-1 -34.954757613734579 16.619654526223481 5.8056507029416542 #
vertex $-1 $394 $544 #
point $-1 -34.954757613734579 20.06012318208607 5.8056507029416542 #
edge $-1 $500 53.872813198702254 $503 58.206518966540663 $399 $545 forward 7 unknown #
vertex $-1 $413 $546 #
straight-curve $-1 10.323310368344622 -7.7411755936480269 12.455113997135761 1 0 0 I I #
edge $-1 $503 -5.6490649014437331 $410 1.4648435170351455 $409 $547 forward 7 unknown #
vertex $-1 $502 $548 #
straight-curve $-1 -29.517080839313415 -7.7411755936480269 58.28510980530001 -0.82903756765294845 0 0.55919291073839883 I I #
point $-1 38.428680848141163 -7.7411755936480269 12.455113997135761 #
point $-1 44.853663747062605 -0.62726717516914832 8.1214082292973515 #
straight-curve $-1 44.853663747062598 0 12.455113997135763 0 1 0 I I #
vertex $-1 $416 $549 #
point $-1 41.090564085443248 -5.7086303312254891 8.5778050709989611 #
vertex $-1 $420 $550 #
point $-1 41.090564085443248 -2.6598124375916825 8.5778050709989611 #
edge $-1 $513 53.872813198702254 $516 58.206518966540663 $425 $551 forward 7 unknown #
vertex $-1 $439 $552 #
straight-curve $-1 10.323310368344622 14.114231889692057 12.455113997135761 1 0 0 I I #
edge $-1 $516 5.2786388402263089 $436 12.392547258705187 $435 $553 forward 7 unknown #
vertex $-1 $515 $554 #
straight-curve $-1 -29.517080839313415 14.114231889692057 58.28510980530001 -0.82903756765294845 0 0.55919291073839883 I I #
point $-1 38.428680848141163 14.114231889692057 12.455113997135761 #
point $-1 44.853663747062605 21.228140308170936 8.1214082292973515 #
straight-curve $-1 44.853663747062598 0 12.455113997135763 0 1 0 I I #
vertex $-1 $442 $555 #
point $-1 41.090564085443248 16.146777152114598 8.5778050709989611 #
vertex $-1 $446 $556 #
point $-1 41.090564085443248 19.195595045748401 8.5778050709989611 #
straight-curve $-1 -44.853663747062598 26.235156648783924 0 0 0 -1 I I #
straight-curve $-1 -44.853663747062598 0 -12.455113997135763 0 1 0 I I #
point $-1 -44.853663747062598 -26.235156648783924 -12.455113997135763 #
point $-1 -44.853663747062598 26.235156648783924 -12.455113997135763 #
straight-curve $-1 -44.853663747062598 -26.235156648783924 0 0 0 -1 I I #
edge $-1 $481 -2.3194784729124471 $475 2.3194784729124471 $474 $557 forward 7 unknown #
coedge $-1 $479 $470 $469 $532 reversed $352 $-1 #
edge $-1 $483 -2.3194784729124471 $472 2.3194784729124471 $469 $558 forward 7 unknown #
straight-curve $-1 0 -39.72212136330684 -12.455113997135763 -1 0 0 I I #
point $-1 44.853663747062598 -39.72212136330684 -12.455113997135763 #
point $-1 -44.853663747062598 -39.72212136330684 -12.455113997135763 #
straight-curve $-1 0 -39.72212136330684 -7.8161570513108689 1 0 0 I I #
point $-1 -44.853663747062598 -39.72212136330684 -7.8161570513108689 #
point $-1 44.853663747062598 -39.72212136330684 -7.8161570513108689 #
straight-curve $-1 -44.853663747062598 22.353768952661131 40.220270230720281 0 0 -1 I I #
point $-1 -44.853663747062598 22.353768952661131 12.455113997135763 #
straight-curve $-1 -44.853663747062598 9.1699444270773878 3.5463530693929348 0 -1 0 I I #
point $-1 -44.853663747062598 22.353768952661131 3.5463530693929313 #
point $-1 -35.296886828558783 16.619654526223481 4.4334453245948939 #
point $-1 -35.296886828558783 20.06012318208607 4.4334453245948939 #
straight-curve $-1 44.853663747062598 -7.7411755936480269 66.327927195838015 0 0 -1 I I #
point $-1 44.853663747062598 -7.7411755936480269 12.455113997135763 #
straight-curve $-1 44.853663747062598 -2.0921106922042938 8.1214082292973444 0 1 0 I I #
point $-1 44.853663747062605 -7.7411755936480269 8.1214082292973515 #
point $-1 40.396448846247573 -5.7086303312254891 8.4428827425416859 #
point $-1 40.396448846247573 -2.6598124375916825 8.4428827425416859 #
straight-curve $-1 44.853663747062598 14.114231889692057 66.327927195838015 0 0 -1 I I #
point $-1 44.853663747062598 14.114231889692057 12.455113997135763 #
straight-curve $-1 44.853663747062598 8.8355930494657482 8.1214082292973444 0 1 0 I I #
point $-1 44.853663747062605 14.114231889692057 8.1214082292973515 #
point $-1 40.396448846247573 16.146777152114598 8.4428827425416859 #
point $-1 40.396448846247573 19.195595045748401 8.4428827425416859 #
straight-curve $-1 -44.853663747062598 -39.72212136330684 -10.135635524223316 0 0 -1 I I #
straight-curve $-1 44.853663747062598 -39.72212136330684 -10.135635524223316 0 0 -1 I I #
End-of-ACIS-data 