500 0 10 0           
7 Unknown 11 ACIS 5.0 NT 24 Thu Mar 25 23:11:43 1999 
-1 9.9999999999999995e-007 1e-010 
body $-1 $10 $-1 $11 #
body $-1 $12 $-1 $13 #
body $-1 $14 $-1 $15 #
body $-1 $16 $-1 $17 #
body $-1 $18 $-1 $19 #
body $-1 $20 $-1 $21 #
body $-1 $22 $-1 $23 #
body $-1 $24 $-1 $25 #
body $-1 $26 $-1 $27 #
body $-1 $28 $-1 $29 #
lump $-1 $-1 $30 $0 #
transform $-1 1 0 0 0 1 0 0 0 1 76.245002594073298 43.805915061983825 20.67127963717784 1 rotate no_reflect no_shear #
lump $-1 $-1 $31 $1 #
transform $-1 1 0 0 0 1 0 0 0 1 76.245002594073298 43.805915061983825 20.67127963717784 1 rotate no_reflect no_shear #
lump $-1 $-1 $32 $2 #
transform $-1 1 0 0 0 1 0 0 0 1 76.245002594073298 43.805915061983825 20.67127963717784 1 rotate no_reflect no_shear #
lump $-1 $-1 $33 $3 #
transform $-1 1 0 0 0 1 0 0 0 1 76.245002594073298 43.805915061983825 20.67127963717784 1 rotate no_reflect no_shear #
lump $-1 $-1 $34 $4 #
transform $-1 1 0 0 0 1 0 0 0 1 76.245002594073298 43.805915061983825 20.67127963717784 1 rotate no_reflect no_shear #
lump $-1 $-1 $35 $5 #
transform $-1 1 0 0 0 1 0 0 0 1 76.245002594073298 43.805915061983825 20.67127963717784 1 rotate no_reflect no_shear #
lump $-1 $-1 $36 $6 #
transform $-1 1 0 0 0 1 0 0 0 1 76.245002594073298 43.805915061983825 20.67127963717784 1 rotate no_reflect no_shear #
lump $-1 $-1 $37 $7 #
transform $-1 1 0 0 0 1 0 0 0 1 76.245002594073298 43.805915061983825 20.67127963717784 1 rotate no_reflect no_shear #
lump $-1 $-1 $38 $8 #
transform $-1 1 0 0 0 1 0 0 0 1 76.245002594073298 43.805915061983825 20.67127963717784 1 rotate no_reflect no_shear #
lump $-1 $-1 $39 $9 #
transform $-1 1 0 0 0 1 0 0 0 1 76.245002594073298 43.805915061983825 20.67127963717784 1 rotate no_reflect no_shear #
shell $-1 $-1 $-1 $40 $-1 $10 #
shell $-1 $-1 $-1 $41 $-1 $12 #
shell $-1 $-1 $-1 $42 $-1 $14 #
shell $-1 $-1 $-1 $43 $-1 $16 #
shell $-1 $-1 $-1 $44 $-1 $18 #
shell $-1 $-1 $-1 $45 $-1 $20 #
shell $-1 $-1 $-1 $46 $-1 $22 #
shell $-1 $-1 $-1 $47 $-1 $24 #
shell $-1 $-1 $-1 $48 $-1 $26 #
shell $-1 $-1 $-1 $49 $-1 $28 #
face $-1 $50 $51 $30 $-1 $52 forward single #
face $-1 $53 $54 $31 $-1 $55 reversed single #
face $-1 $56 $57 $32 $-1 $58 reversed single #
face $-1 $59 $60 $33 $-1 $61 forward single #
face $-1 $62 $63 $34 $-1 $64 reversed single #
face $-1 $65 $66 $35 $-1 $67 forward single #
face $-1 $68 $69 $36 $-1 $70 forward single #
face $-1 $71 $72 $37 $-1 $73 reversed single #
face $-1 $74 $75 $38 $-1 $76 forward single #
face $-1 $77 $78 $39 $-1 $79 forward single #
face $-1 $80 $81 $30 $-1 $82 reversed single #
loop $-1 $-1 $83 $40 #
plane-surface $-1 0 0 20.67127963717784 0 0 1 1 0 0 forward_v I I I I #
face $-1 $84 $85 $31 $-1 $86 reversed single #
loop $-1 $-1 $87 $41 #
plane-surface $-1 -65.370371476420928 0 9.8554948272300535 0 0 1 1 0 0 forward_v I I I I #
face $-1 $88 $89 $32 $-1 $90 reversed single #
loop $-1 $-1 $91 $42 #
plane-surface $-1 -45.128986273287929 -18.145003412048766 66.952937753793549 0 0.70710678939079041 0.70710677298230451 1 0 0 forward_v I I I I #
face $-1 $92 $93 $33 $-1 $94 forward single #
loop $-1 $95 $96 $43 #
cone-surface $-1 -45.128986273287929 34.877865957110458 11.743230375873946 0 -0.70710678939079041 -0.70710677298230451 1.5 0 0 1 I I 0 1 1.5 forward I I I I #
face $-1 $97 $98 $34 $-1 $99 reversed single #
loop $-1 $-1 $100 $44 #
plane-surface $-1 -0.39117407731356479 -157.12807461737577 103.33059020998823 -1 0 0 0 -0.74314483375859142 0.66913059716165679 forward_v I I I I #
face $-1 $101 $102 $35 $-1 $103 forward single #
loop $-1 $104 $105 $45 #
cone-surface $-1 -20.271981872092702 -33.094495752246154 9.1929621614733268 0 0.74314483375859142 -0.66913059716165679 1.5 0 0 1 I I 0 1 1.5 forward I I I I #
face $-1 $106 $107 $36 $-1 $108 forward single #
loop $-1 $109 $110 $46 #
cone-surface $-1 -8.3434971952252255 -33.094495752246154 9.1929621614733268 0 0.74314483375859142 -0.66913059716165679 1.5 0 0 1 I I 0 1 1.5 forward I I I I #
face $-1 $111 $112 $37 $-1 $113 reversed single #
loop $-1 $-1 $114 $47 #
plane-surface $-1 49.973567225309097 -157.12807461737577 103.33059020998823 -1 0 0 0 -0.74314483375859142 0.66913059716165679 forward_v I I I I #
face $-1 $115 $116 $38 $-1 $117 forward single #
loop $-1 $118 $119 $48 #
cone-surface $-1 30.092759430529952 -33.094495752246154 9.1929621614733268 0 0.74314483375859142 -0.66913059716165679 1.5 0 0 1 I I 0 1 1.5 forward I I I I #
face $-1 $120 $121 $39 $-1 $122 forward single #
loop $-1 $123 $124 $49 #
cone-surface $-1 42.021244107397436 -33.094495752246154 9.1929621614733268 0 0.74314483375859142 -0.66913059716165679 1.5 0 0 1 I I 0 1 1.5 forward I I I I #
face $-1 $125 $126 $30 $-1 $127 reversed single #
loop $-1 $-1 $128 $50 #
plane-surface $-1 0 0 -20.67127963717784 0 0 1 1 0 0 forward_v I I I I #
coedge $-1 $129 $130 $131 $132 forward $51 $-1 #
face $-1 $133 $134 $31 $-1 $135 reversed single #
loop $-1 $-1 $136 $53 #
plane-surface $-1 -54.495740358768558 0 15.263387232203947 -1 0 0 0 0 1 forward_v I I I I #
coedge $-1 $137 $138 $139 $140 forward $54 $-1 #
face $-1 $141 $142 $32 $-1 $143 forward single #
loop $-1 $-1 $144 $56 #
plane-surface $-1 -35.7622321878073 89.681714570726541 174.77965323443877 -1 0 0 0 0.70710678939079041 0.70710677298230451 forward_v I I I I #
coedge $-1 $145 $146 $147 $148 reversed $57 $-1 #
face $-1 $-1 $149 $33 $-1 $150 forward single #
loop $-1 $151 $152 $59 #
cone-surface $-1 -45.128986273287929 33.254117475887782 10.119481932330523 0 -0.70710678939079041 -0.70710677298230451 0.75 0 0 1 I I -0.70710678118654757 0.70710678118654757 0.75 forward I I I I #
loop $-1 $-1 $153 $43 #
coedge $-1 $96 $96 $154 $155 reversed $60 $-1 #
face $-1 $156 $157 $34 $-1 $158 reversed single #
loop $-1 $-1 $159 $62 #
plane-surface $-1 -14.30773953365896 -43.805915061983825 1.2948619772595578 0 -0.74314483375859142 0.66913059716165679 1 0 0 forward_v I I I I #
coedge $-1 $160 $161 $162 $163 reversed $63 $-1 #
face $-1 $-1 $164 $35 $-1 $165 forward single #
loop $-1 $166 $167 $65 #
cone-surface $-1 -20.271981872092702 -30.549020012577301 6.901005567856707 0 0.74314483375859142 -0.66913059716165679 0.75 0 0 1 I I -0.70710678118654757 0.70710678118654757 0.75 forward I I I I #
loop $-1 $-1 $168 $45 #
coedge $-1 $105 $105 $169 $170 reversed $66 $-1 #
face $-1 $-1 $171 $36 $-1 $172 forward single #
loop $-1 $173 $174 $68 #
cone-surface $-1 -8.3434971952252255 -30.549020012577301 6.901005567856707 0 0.74314483375859142 -0.66913059716165679 0.75 0 0 1 I I -0.70710678118654757 0.70710678118654757 0.75 forward I I I I #
loop $-1 $-1 $175 $46 #
coedge $-1 $110 $110 $176 $177 reversed $69 $-1 #
face $-1 $178 $179 $37 $-1 $180 reversed single #
loop $-1 $-1 $181 $71 #
plane-surface $-1 36.057001768963701 -43.805915061983825 1.2948619772595578 0 -0.74314483375859142 0.66913059716165679 1 0 0 forward_v I I I I #
coedge $-1 $182 $183 $184 $185 reversed $72 $-1 #
face $-1 $-1 $186 $38 $-1 $187 forward single #
loop $-1 $188 $189 $74 #
cone-surface $-1 30.092759430529952 -30.549020012577301 6.901005567856707 0 0.74314483375859142 -0.66913059716165679 0.75 0 0 1 I I -0.70710678118654757 0.70710678118654757 0.75 forward I I I I #
loop $-1 $-1 $190 $48 #
coedge $-1 $119 $119 $191 $192 reversed $75 $-1 #
face $-1 $-1 $193 $39 $-1 $194 forward single #
loop $-1 $195 $196 $77 #
cone-surface $-1 42.021244107397436 -30.549020012577301 6.901005567856707 0 0.74314483375859142 -0.66913059716165679 0.75 0 0 1 I I -0.70710678118654757 0.70710678118654757 0.75 forward I I I I #
loop $-1 $-1 $197 $49 #
coedge $-1 $124 $124 $198 $199 reversed $78 $-1 #
face $-1 $200 $201 $30 $-1 $202 reversed single #
loop $-1 $-1 $203 $80 #
plane-surface $-1 0 -43.805915061983825 0 0 1 0 0 0 1 forward_v I I I I #
coedge $-1 $204 $205 $206 $207 forward $81 $-1 #
coedge $-1 $208 $83 $209 $210 forward $51 $-1 #
coedge $-1 $83 $208 $211 $212 forward $51 $-1 #
coedge $-1 $213 $214 $83 $132 reversed $215 $-1 #
edge $-1 $216 -43.805915061983825 $217 43.805915061983825 $131 $218 forward 7 unknown #
face $-1 $219 $220 $31 $-1 $221 reversed single #
loop $-1 $-1 $222 $84 #
plane-surface $-1 0 43.805915061983825 0 0 -1 0 0 0 -1 forward_v I I I I #
coedge $-1 $139 $223 $224 $225 reversed $85 $-1 #
coedge $-1 $226 $87 $227 $228 reversed $54 $-1 #
coedge $-1 $87 $226 $229 $230 reversed $54 $-1 #
coedge $-1 $231 $136 $87 $140 reversed $85 $-1 #
edge $-1 $232 -43.805915061983825 $233 43.805915061983825 $139 $234 forward 7 unknown #
face $-1 $235 $236 $32 $-1 $237 reversed single #
loop $-1 $-1 $147 $88 #
plane-surface $-1 0 0 20.67127963717784 0 0 1 1 0 0 forward_v I I I I #
coedge $-1 $238 $239 $240 $241 reversed $89 $-1 #
coedge $-1 $242 $91 $243 $244 reversed $57 $-1 #
coedge $-1 $91 $242 $238 $245 forward $57 $-1 #
coedge $-1 $240 $246 $91 $148 forward $142 $-1 #
edge $-1 $247 -31.931247222124593 $248 -13.197739051163335 $147 $249 forward 7 unknown #
loop $-1 $-1 $154 $92 #
plane-surface $-1 -45.128986273287929 -18.145003412048766 66.952937753793549 0 0.70710678939079041 0.70710677298230451 1 0 0 forward_v I I I I #
loop $-1 $-1 $250 $59 #
coedge $-1 $152 $152 $153 $251 reversed $93 $-1 #
coedge $-1 $153 $153 $152 $251 forward $95 $-1 #
coedge $-1 $154 $154 $96 $155 forward $149 $-1 #
edge $-1 $252 2.3317860944815935e-022 $252 6.2831853071796004 $154 $253 forward 7 unknown #
face $-1 $254 $255 $34 $-1 $256 reversed single #
loop $-1 $-1 $257 $97 #
plane-surface $-1 -28.224304990004356 -157.12807461737577 103.33059020998823 1 0 0 0 0.74314483375859142 -0.66913059716165679 forward_v I I I I #
coedge $-1 $258 $259 $260 $261 reversed $98 $-1 #
coedge $-1 $161 $100 $262 $263 reversed $63 $-1 #
coedge $-1 $100 $160 $258 $264 reversed $63 $-1 #
coedge $-1 $260 $265 $100 $163 forward $266 $-1 #
edge $-1 $267 34.758122246704062 $268 52.204726637479595 $162 $269 forward 7 unknown #
loop $-1 $-1 $169 $101 #
plane-surface $-1 -14.30773953365896 -43.805915061983825 1.2948619772595578 0 -0.74314483375859142 0.66913059716165679 1 0 0 forward_v I I I I #
loop $-1 $-1 $270 $65 #
coedge $-1 $167 $167 $168 $271 reversed $102 $-1 #
coedge $-1 $168 $168 $167 $271 forward $104 $-1 #
coedge $-1 $169 $169 $105 $170 forward $164 $-1 #
edge $-1 $272 -1.4095186897708394e-015 $272 6.2831853071795987 $169 $273 forward 7 unknown #
loop $-1 $-1 $176 $106 #
plane-surface $-1 -14.30773953365896 -43.805915061983825 1.2948619772595578 0 -0.74314483375859142 0.66913059716165679 1 0 0 forward_v I I I I #
loop $-1 $-1 $274 $68 #
coedge $-1 $174 $174 $175 $275 reversed $107 $-1 #
coedge $-1 $175 $175 $174 $275 forward $109 $-1 #
coedge $-1 $176 $176 $110 $177 forward $171 $-1 #
edge $-1 $276 -1.4095186897708394e-015 $276 6.2831853071795987 $176 $277 forward 7 unknown #
face $-1 $278 $279 $37 $-1 $280 reversed single #
loop $-1 $-1 $281 $111 #
plane-surface $-1 22.140436312618306 -157.12807461737577 103.33059020998823 1 0 0 0 0.74314483375859142 -0.66913059716165679 forward_v I I I I #
coedge $-1 $282 $283 $284 $285 reversed $112 $-1 #
coedge $-1 $183 $114 $286 $287 reversed $72 $-1 #
coedge $-1 $114 $182 $282 $288 reversed $72 $-1 #
coedge $-1 $284 $289 $114 $185 forward $290 $-1 #
edge $-1 $291 34.758122246704062 $292 52.204726637479595 $184 $293 forward 7 unknown #
loop $-1 $-1 $191 $115 #
plane-surface $-1 36.057001768963701 -43.805915061983825 1.2948619772595578 0 -0.74314483375859142 0.66913059716165679 1 0 0 forward_v I I I I #
loop $-1 $-1 $294 $74 #
coedge $-1 $189 $189 $190 $295 reversed $116 $-1 #
coedge $-1 $190 $190 $189 $295 forward $118 $-1 #
coedge $-1 $191 $191 $119 $192 forward $186 $-1 #
edge $-1 $296 -1.4095186897708394e-015 $296 6.2831853071795987 $191 $297 forward 7 unknown #
loop $-1 $-1 $198 $120 #
plane-surface $-1 36.057001768963701 -43.805915061983825 1.2948619772595578 0 -0.74314483375859142 0.66913059716165679 1 0 0 forward_v I I I I #
loop $-1 $-1 $298 $77 #
coedge $-1 $196 $196 $197 $299 reversed $121 $-1 #
coedge $-1 $197 $197 $196 $299 forward $123 $-1 #
coedge $-1 $198 $198 $124 $199 forward $193 $-1 #
edge $-1 $300 -1.4095186897708394e-015 $300 6.2831853071795987 $198 $301 forward 7 unknown #
face $-1 $302 $303 $30 $-1 $304 reversed single #
loop $-1 $-1 $305 $125 #
plane-surface $-1 -76.245002594073298 0 0 1 0 0 0 0 -1 forward_v I I I I #
coedge $-1 $306 $211 $307 $308 forward $126 $-1 #
coedge $-1 $309 $128 $306 $310 forward $81 $-1 #
coedge $-1 $128 $309 $311 $312 forward $81 $-1 #
coedge $-1 $214 $213 $128 $207 reversed $215 $-1 #
edge $-1 $313 -43.805915061983825 $314 43.805915061983825 $206 $315 forward 7 unknown #
coedge $-1 $130 $129 $316 $317 forward $51 $-1 #
coedge $-1 $318 $319 $129 $210 reversed $303 $-1 #
edge $-1 $217 -76.245002594073298 $320 76.245002594073298 $209 $321 forward 7 unknown #
coedge $-1 $203 $322 $130 $212 reversed $126 $-1 #
edge $-1 $323 -76.245002594073298 $216 76.245002594073298 $211 $324 forward 7 unknown #
coedge $-1 $206 $131 $322 $325 forward $215 $-1 #
coedge $-1 $131 $206 $318 $326 reversed $215 $-1 #
loop $-1 $-1 $213 $302 #
vertex $-1 $132 $327 #
vertex $-1 $132 $328 #
straight-curve $-1 76.245002594073298 0 20.67127963717784 0 1 0 I I #
face $-1 $329 $330 $31 $-1 $331 forward single #
loop $-1 $-1 $332 $133 #
plane-surface $-1 -76.245002594073298 0 0 1 0 0 0 0 -1 forward_v I I I I #
coedge $-1 $229 $333 $231 $334 forward $134 $-1 #
coedge $-1 $136 $231 $335 $336 reversed $85 $-1 #
coedge $-1 $337 $227 $136 $225 forward $338 $-1 #
edge $-1 $233 2.2238012111280803 $339 13.039586021075866 $224 $340 forward 7 unknown #
coedge $-1 $138 $137 $332 $341 reversed $54 $-1 #
coedge $-1 $224 $342 $137 $228 forward $338 $-1 #
edge $-1 $343 -43.559816855862834 $233 -21.810554620558094 $227 $344 forward 7 unknown #
coedge $-1 $345 $222 $138 $230 forward $134 $-1 #
edge $-1 $232 21.810554620558094 $346 43.559816855862834 $229 $347 forward 7 unknown #
coedge $-1 $223 $139 $222 $334 reversed $85 $-1 #
vertex $-1 $230 $348 #
vertex $-1 $228 $349 #
straight-curve $-1 -54.495740358768558 0 9.8554948272300535 0 -1 0 I I #
face $-1 $-1 $350 $32 $-1 $351 forward single #
loop $-1 $-1 $352 $141 #
plane-surface $-1 0 43.805915061983825 0 0 -1 0 0 0 -1 forward_v I I I I #
coedge $-1 $239 $144 $146 $245 reversed $89 $-1 #
coedge $-1 $144 $238 $352 $353 reversed $89 $-1 #
coedge $-1 $354 $147 $144 $241 forward $142 $-1 #
edge $-1 $248 -16.704203654766971 $355 -1.0349422233794456 $240 $356 forward 7 unknown #
coedge $-1 $146 $145 $357 $358 reversed $57 $-1 #
coedge $-1 $359 $360 $145 $244 forward $350 $-1 #
edge $-1 $361 -62.921586662557118 $247 -40.761904376810357 $243 $362 forward 7 unknown #
edge $-1 $363 -87.611830123967636 $248 -65.452147838220867 $238 $364 forward 7 unknown #
coedge $-1 $147 $354 $359 $365 forward $142 $-1 #
vertex $-1 $244 $366 #
vertex $-1 $148 $367 #
straight-curve $-1 -22.564493136643964 28.1366536305963 20.67127963717784 1 0 0 I I #
coedge $-1 $250 $250 $-1 $368 reversed $151 $-1 #
edge $-1 $369 0 $369 6.2831853071796004 $152 $370 forward 7 unknown #
vertex $-1 $155 $371 #
ellipse-curve $-1 -45.128986273287929 35.971284346290055 12.836648739680658 0 0.70710678939079041 0.70710677298230451 1.5 0 0 1 I I #
face $-1 $-1 $266 $34 $-1 $372 forward single #
loop $-1 $-1 $373 $156 #
plane-surface $-1 0 -43.805915061983825 0 0 1 0 0 0 1 forward_v I I I I #
coedge $-1 $374 $375 $376 $377 reversed $157 $-1 #
coedge $-1 $378 $159 $161 $264 forward $98 $-1 #
coedge $-1 $159 $378 $374 $379 forward $98 $-1 #
coedge $-1 $376 $162 $159 $261 forward $266 $-1 #
edge $-1 $268 -6.7626956895159154 $380 21.070435223174876 $260 $381 forward 7 unknown #
coedge $-1 $382 $383 $160 $263 forward $255 $-1 #
edge $-1 $384 -50.370433127734557 $267 -30.994015467816276 $262 $385 forward 7 unknown #
edge $-1 $268 -26.073541495159819 $384 0 $161 $386 forward 7 unknown #
coedge $-1 $162 $376 $382 $387 forward $266 $-1 #
loop $-1 $-1 $376 $254 #
vertex $-1 $263 $388 #
vertex $-1 $163 $389 #
straight-curve $-1 -0.39117407731356479 -78.564037308687887 20.67127963717784 0 1 0 I I #
coedge $-1 $270 $270 $-1 $390 reversed $166 $-1 #
edge $-1 $391 0 $391 6.2831853071796004 $167 $392 forward 7 unknown #
vertex $-1 $170 $393 #
ellipse-curve $-1 -20.271981872092702 -35.082612866596058 10.983070807218699 0 -0.74314483375859142 0.66913059716165679 1.5 0 0 1 I I #
coedge $-1 $274 $274 $-1 $394 reversed $173 $-1 #
edge $-1 $395 0 $395 6.2831853071796004 $174 $396 forward 7 unknown #
vertex $-1 $177 $397 #
ellipse-curve $-1 -8.3434971952252255 -35.082612866596058 10.983070807218699 0 -0.74314483375859142 0.66913059716165679 1.5 0 0 1 I I #
face $-1 $-1 $290 $37 $-1 $398 forward single #
loop $-1 $-1 $399 $178 #
plane-surface $-1 0 -43.805915061983825 0 0 1 0 0 0 1 forward_v I I I I #
coedge $-1 $400 $401 $402 $403 reversed $179 $-1 #
coedge $-1 $404 $181 $183 $288 forward $112 $-1 #
coedge $-1 $181 $404 $400 $405 forward $112 $-1 #
coedge $-1 $402 $184 $181 $285 forward $290 $-1 #
edge $-1 $292 -31.945066340827246 $406 -4.1119354281364551 $284 $407 forward 7 unknown #
coedge $-1 $408 $409 $182 $287 forward $279 $-1 #
edge $-1 $410 -50.370433127734557 $291 -30.994015467816276 $286 $411 forward 7 unknown #
edge $-1 $292 -26.073541495159819 $410 0 $183 $412 forward 7 unknown #
coedge $-1 $184 $402 $408 $413 forward $290 $-1 #
loop $-1 $-1 $402 $278 #
vertex $-1 $287 $414 #
vertex $-1 $185 $415 #
straight-curve $-1 49.973567225309097 -78.564037308687887 20.67127963717784 0 1 0 I I #
coedge $-1 $294 $294 $-1 $416 reversed $188 $-1 #
edge $-1 $417 0 $417 6.2831853071796004 $189 $418 forward 7 unknown #
vertex $-1 $192 $419 #
ellipse-curve $-1 30.092759430529952 -35.082612866596058 10.983070807218699 0 -0.74314483375859142 0.66913059716165679 1.5 0 0 1 I I #
coedge $-1 $298 $298 $-1 $420 reversed $195 $-1 #
edge $-1 $421 0 $421 6.2831853071796004 $196 $422 forward 7 unknown #
vertex $-1 $199 $423 #
ellipse-curve $-1 42.021244107397436 -35.082612866596058 10.983070807218699 0 -0.74314483375859142 0.66913059716165679 1.5 0 0 1 I I #
face $-1 $-1 $215 $30 $-1 $424 reversed single #
loop $-1 $-1 $318 $200 #
plane-surface $-1 0 43.805915061983825 0 0 -1 0 0 0 -1 forward_v I I I I #
coedge $-1 $425 $316 $319 $426 forward $201 $-1 #
coedge $-1 $322 $203 $204 $310 reversed $126 $-1 #
coedge $-1 $316 $425 $203 $308 reversed $201 $-1 #
edge $-1 $323 -20.67127963717784 $427 20.67127963717784 $307 $428 forward 7 unknown #
coedge $-1 $205 $204 $425 $429 forward $81 $-1 #
edge $-1 $314 -76.245002594073298 $427 76.245002594073298 $306 $430 forward 7 unknown #
coedge $-1 $319 $318 $205 $312 reversed $303 $-1 #
edge $-1 $431 -76.245002594073298 $313 76.245002594073298 $311 $432 forward 7 unknown #
vertex $-1 $207 $433 #
vertex $-1 $325 $434 #
straight-curve $-1 76.245002594073298 0 -20.67127963717784 0 -1 0 I I #
coedge $-1 $305 $307 $208 $317 reversed $201 $-1 #
edge $-1 $320 -43.805915061983825 $323 43.805915061983825 $316 $435 forward 7 unknown #
coedge $-1 $311 $209 $214 $326 forward $303 $-1 #
coedge $-1 $209 $311 $305 $426 reversed $303 $-1 #
vertex $-1 $210 $436 #
straight-curve $-1 0 43.805915061983825 20.67127963717784 -1 0 0 I I #
coedge $-1 $211 $306 $213 $325 reversed $126 $-1 #
vertex $-1 $317 $437 #
straight-curve $-1 0 -43.805915061983825 20.67127963717784 1 0 0 I I #
edge $-1 $216 -20.67127963717784 $314 20.67127963717784 $213 $438 forward 7 unknown #
edge $-1 $217 -20.67127963717784 $313 20.67127963717784 $214 $439 forward 7 unknown #
point $-1 76.245002594073298 -43.805915061983825 20.67127963717784 #
point $-1 76.245002594073298 43.805915061983825 20.67127963717784 #
face $-1 $-1 $338 $31 $-1 $440 reversed single #
loop $-1 $-1 $335 $219 #
plane-surface $-1 0 0 20.67127963717784 0 0 1 1 0 0 forward_v I I I I #
coedge $-1 $441 $442 $226 $341 forward $220 $-1 #
coedge $-1 $222 $345 $443 $444 reversed $134 $-1 #
edge $-1 $445 -13.039586021075866 $232 -2.2238012111280803 $222 $446 forward 7 unknown #
coedge $-1 $443 $447 $223 $336 forward $330 $-1 #
edge $-1 $339 -43.805915061983825 $445 43.805915061983825 $335 $448 forward 7 unknown #
coedge $-1 $342 $224 $447 $449 reversed $338 $-1 #
loop $-1 $-1 $224 $329 #
vertex $-1 $225 $450 #
straight-curve $-1 -54.495740358768558 -43.805915061983825 7.6316936161019733 0 0 1 I I #
edge $-1 $346 -43.805915061983825 $343 43.805915061983825 $332 $451 forward 7 unknown #
coedge $-1 $227 $337 $441 $452 forward $338 $-1 #
vertex $-1 $341 $453 #
straight-curve $-1 -32.685185738210464 -43.805915061983825 9.8554948272300535 1 0 0 I I #
coedge $-1 $333 $229 $442 $454 reversed $134 $-1 #
vertex $-1 $341 $455 #
straight-curve $-1 -32.685185738210464 43.805915061983825 9.8554948272300535 -1 0 0 I I #
point $-1 -54.495740358768558 43.805915061983825 9.8554948272300535 #
point $-1 -54.495740358768558 -43.805915061983825 9.8554948272300535 #
loop $-1 $-1 $243 $235 #
plane-surface $-1 -54.495740358768558 0 15.263387232203947 -1 0 0 0 0 1 forward_v I I I I #
coedge $-1 $357 $456 $239 $353 forward $236 $-1 #
edge $-1 $355 66.718546980041538 $363 82.387808775035907 $352 $457 forward 7 unknown #
coedge $-1 $246 $240 $456 $458 forward $142 $-1 #
vertex $-1 $458 $459 #
straight-curve $-1 -35.7622321878073 44.840857285363271 20.671279637177832 0 1 0 I I #
coedge $-1 $460 $352 $242 $358 forward $236 $-1 #
edge $-1 $363 13.197739051163335 $361 31.931247222124593 $357 $461 forward 7 unknown #
coedge $-1 $360 $243 $246 $365 reversed $350 $-1 #
coedge $-1 $243 $359 $460 $462 reversed $350 $-1 #
vertex $-1 $462 $463 #
straight-curve $-1 -54.495740358768558 -0.68636503390334802 49.494298970518614 0 -0.70710677298230462 0.70710678939079052 I I #
vertex $-1 $358 $464 #
straight-curve $-1 -35.7622321878073 -18.145003412048766 66.952937753793549 0 -0.70710677298230451 0.70710678939079041 I I #
edge $-1 $465 -43.805915061983825 $247 -28.136653630596296 $246 $466 forward 7 unknown #
point $-1 -54.495740358768558 28.136653630596296 20.67127963717784 #
point $-1 -35.7622321878073 28.1366536305963 20.67127963717784 #
edge $-1 $467 1 $467 0 $250 $-1 forward 7 unknown #
vertex $-1 $251 $468 #
ellipse-curve $-1 -45.128986273287929 33.784447567930876 10.649812012067251 0 0.70710678939079041 0.70710677298230451 1.5 0 0 1 I I #
point $-1 -43.628986273287929 35.971284346290034 12.836648739680637 #
plane-surface $-1 0 0 20.67127963717784 0 0 1 1 0 0 forward_v I I I I #
coedge $-1 $383 $382 $375 $469 forward $255 $-1 #
coedge $-1 $375 $257 $259 $379 reversed $157 $-1 #
coedge $-1 $257 $374 $373 $469 reversed $157 $-1 #
coedge $-1 $265 $260 $257 $377 forward $266 $-1 #
edge $-1 $380 -52.204726637479595 $470 -34.758122246704062 $376 $471 forward 7 unknown #
coedge $-1 $259 $258 $383 $472 reversed $98 $-1 #
edge $-1 $473 0 $380 26.073541495159819 $374 $474 forward 7 unknown #
vertex $-1 $261 $475 #
straight-curve $-1 -7.1538697668294802 -26.359310671208295 20.67127963717784 -1 0 0 I I #
coedge $-1 $373 $262 $265 $387 reversed $255 $-1 #
coedge $-1 $262 $373 $378 $472 forward $255 $-1 #
vertex $-1 $263 $476 #
straight-curve $-1 -0.39117407731356479 -43.805915061983825 51.665295104994115 0 0 1 I I #
straight-curve $-1 -0.39117407731356479 -43.805915061983825 1.2948619772595578 0 -0.66913059716165679 -0.74314483375859142 I I #
edge $-1 $470 -28.224304990004356 $267 -0.39117407731356479 $382 $477 forward 7 unknown #
point $-1 -0.39117407731356479 -43.805915061983825 20.67127963717784 #
point $-1 -0.39117407731356479 -26.359310671208295 20.67127963717784 #
edge $-1 $478 1 $478 0 $270 $-1 forward 7 unknown #
vertex $-1 $271 $479 #
ellipse-curve $-1 -20.271981872092702 -31.106378637896245 7.4028535157279496 0 -0.74314483375859142 0.66913059716165679 1.5 0 0 1 I I #
point $-1 -18.771981872092702 -35.082612866596065 10.983070807218702 #
edge $-1 $480 1 $480 0 $274 $-1 forward 7 unknown #
vertex $-1 $275 $481 #
ellipse-curve $-1 -8.3434971952252255 -31.106378637896245 7.4028535157279496 0 -0.74314483375859142 0.66913059716165679 1.5 0 0 1 I I #
point $-1 -6.8434971952252255 -35.082612866596065 10.983070807218702 #
plane-surface $-1 0 0 20.67127963717784 0 0 1 1 0 0 forward_v I I I I #
coedge $-1 $409 $408 $401 $482 forward $279 $-1 #
coedge $-1 $401 $281 $283 $405 reversed $179 $-1 #
coedge $-1 $281 $400 $399 $482 reversed $179 $-1 #
coedge $-1 $289 $284 $281 $403 forward $290 $-1 #
edge $-1 $406 -52.204726637479595 $483 -34.758122246704062 $402 $484 forward 7 unknown #
coedge $-1 $283 $282 $409 $485 reversed $112 $-1 #
edge $-1 $486 0 $406 26.073541495159819 $400 $487 forward 7 unknown #
vertex $-1 $285 $488 #
straight-curve $-1 18.028500884481851 -26.359310671208295 20.67127963717784 -1 0 0 I I #
coedge $-1 $399 $286 $289 $413 reversed $279 $-1 #
coedge $-1 $286 $399 $404 $485 forward $279 $-1 #
vertex $-1 $287 $489 #
straight-curve $-1 49.973567225309097 -43.805915061983825 51.665295104994115 0 0 1 I I #
straight-curve $-1 49.973567225309097 -43.805915061983825 1.2948619772595578 0 -0.66913059716165679 -0.74314483375859142 I I #
edge $-1 $483 22.140436312618306 $291 49.973567225309097 $408 $490 forward 7 unknown #
point $-1 49.973567225309097 -43.805915061983825 20.67127963717784 #
point $-1 49.973567225309097 -26.359310671208295 20.67127963717784 #
edge $-1 $491 1 $491 0 $294 $-1 forward 7 unknown #
vertex $-1 $295 $492 #
ellipse-curve $-1 30.092759430529952 -31.106378637896245 7.4028535157279496 0 -0.74314483375859142 0.66913059716165679 1.5 0 0 1 I I #
point $-1 31.592759430529952 -35.082612866596065 10.983070807218702 #
edge $-1 $493 1 $493 0 $298 $-1 forward 7 unknown #
vertex $-1 $299 $494 #
ellipse-curve $-1 42.021244107397436 -31.106378637896245 7.4028535157279496 0 -0.74314483375859142 0.66913059716165679 1.5 0 0 1 I I #
point $-1 43.521244107397436 -35.082612866596065 10.983070807218702 #
plane-surface $-1 76.245002594073298 0 0 -1 0 0 0 0 1 forward_v I I I I #
coedge $-1 $307 $305 $309 $429 reversed $201 $-1 #
edge $-1 $320 -20.67127963717784 $431 20.67127963717784 $319 $495 forward 7 unknown #
vertex $-1 $429 $496 #
straight-curve $-1 -76.245002594073298 -43.805915061983825 0 0 0 -1 I I #
edge $-1 $427 -43.805915061983825 $431 43.805915061983825 $425 $497 forward 7 unknown #
straight-curve $-1 0 -43.805915061983825 -20.67127963717784 -1 0 0 I I #
vertex $-1 $312 $498 #
straight-curve $-1 0 43.805915061983825 -20.67127963717784 1 0 0 I I #
point $-1 76.245002594073298 43.805915061983825 -20.67127963717784 #
point $-1 76.245002594073298 -43.805915061983825 -20.67127963717784 #
straight-curve $-1 -76.245002594073298 0 20.67127963717784 0 -1 0 I I #
point $-1 -76.245002594073298 43.805915061983825 20.67127963717784 #
point $-1 -76.245002594073298 -43.805915061983825 20.67127963717784 #
straight-curve $-1 76.245002594073298 -43.805915061983825 0 0 0 -1 I I #
straight-curve $-1 76.245002594073298 43.805915061983825 0 0 0 -1 I I #
plane-surface $-1 0 -43.805915061983825 0 0 1 0 0 0 1 forward_v I I I I #
coedge $-1 $499 $332 $342 $452 reversed $220 $-1 #
coedge $-1 $332 $499 $345 $454 forward $220 $-1 #
coedge $-1 $500 $335 $333 $444 forward $330 $-1 #
edge $-1 $445 54.495740358768558 $501 76.245002594073298 $333 $502 forward 7 unknown #
vertex $-1 $444 $503 #
straight-curve $-1 -54.495740358768558 43.805915061983825 7.6316936161019733 0 0 -1 I I #
coedge $-1 $335 $500 $337 $449 forward $330 $-1 #
straight-curve $-1 -54.495740358768558 0 20.67127963717784 0 1 0 I I #
edge $-1 $504 -76.245002594073298 $339 -54.495740358768558 $337 $505 forward 7 unknown #
point $-1 -54.495740358768558 -43.805915061983825 20.67127963717784 #
straight-curve $-1 -76.245002594073298 0 9.8554948272300535 0 -1 0 I I #
edge $-1 $504 -20.67127963717784 $343 -9.8554948272300535 $441 $506 forward 7 unknown #
point $-1 -76.245002594073298 -43.805915061983825 9.8554948272300535 #
edge $-1 $501 -20.67127963717784 $346 -9.8554948272300535 $345 $507 forward 7 unknown #
point $-1 -76.245002594073298 43.805915061983825 9.8554948272300535 #
coedge $-1 $352 $460 $354 $458 reversed $236 $-1 #
straight-curve $-1 -35.7622321878073 43.805915061983825 87.389826617219384 0 0 -1 I I #
edge $-1 $355 35.7622321878073 $465 54.495740358768558 $456 $508 forward 7 unknown #
point $-1 -35.7622321878073 43.805915061983825 20.67127963717784 #
coedge $-1 $456 $357 $360 $462 forward $236 $-1 #
straight-curve $-1 -22.564493136643964 43.805915061983825 5.0020178421834842 -1 0 0 I I #
edge $-1 $361 -82.387808775035907 $465 -66.718546980041538 $460 $509 forward 7 unknown #
point $-1 -54.495740358768558 43.805915061983825 5.0020178421834771 #
point $-1 -35.7622321878073 43.805915061983825 5.0020178421834771 #
vertex $-1 $365 $510 #
straight-curve $-1 -54.495740358768558 0 20.67127963717784 0 -1 0 I I #
vertex $-1 $368 $511 #
point $-1 -43.628986273287929 33.784447567930876 10.649812012067251 #
edge $-1 $470 30.994015467816276 $473 50.370433127734557 $373 $512 forward 7 unknown #
vertex $-1 $387 $513 #
straight-curve $-1 -28.224304990004356 -78.564037308687887 20.67127963717784 0 -1 0 I I #
edge $-1 $473 -21.070435223174876 $384 6.7626956895159154 $383 $514 forward 7 unknown #
vertex $-1 $472 $515 #
straight-curve $-1 -28.224304990004356 -43.805915061983825 1.2948619772595578 0 0.66913059716165679 0.74314483375859142 I I #
point $-1 -28.224304990004356 -26.359310671208295 20.67127963717784 #
point $-1 -0.39117407731356479 -43.805915061983825 1.2948619772595578 #
straight-curve $-1 0 -43.805915061983825 20.67127963717784 1 0 0 I I #
vertex $-1 $390 $516 #
point $-1 -18.771981872092702 -31.106378637896245 7.4028535157279496 #
vertex $-1 $394 $517 #
point $-1 -6.8434971952252255 -31.106378637896245 7.4028535157279496 #
edge $-1 $483 30.994015467816276 $486 50.370433127734557 $399 $518 forward 7 unknown #
vertex $-1 $413 $519 #
straight-curve $-1 22.140436312618306 -78.564037308687887 20.67127963717784 0 -1 0 I I #
edge $-1 $486 4.1119354281364551 $410 31.945066340827246 $409 $520 forward 7 unknown #
vertex $-1 $485 $521 #
straight-curve $-1 22.140436312618306 -43.805915061983825 1.2948619772595578 0 0.66913059716165679 0.74314483375859142 I I #
point $-1 22.140436312618306 -26.359310671208295 20.67127963717784 #
point $-1 49.973567225309097 -43.805915061983825 1.2948619772595578 #
straight-curve $-1 0 -43.805915061983825 20.67127963717784 1 0 0 I I #
vertex $-1 $416 $522 #
point $-1 31.592759430529952 -31.106378637896245 7.4028535157279496 #
vertex $-1 $420 $523 #
point $-1 43.521244107397436 -31.106378637896245 7.4028535157279496 #
straight-curve $-1 -76.245002594073298 43.805915061983825 0 0 0 -1 I I #
point $-1 -76.245002594073298 -43.805915061983825 -20.67127963717784 #
straight-curve $-1 -76.245002594073298 0 -20.67127963717784 0 1 0 I I #
point $-1 -76.245002594073298 43.805915061983825 -20.67127963717784 #
coedge $-1 $442 $441 $500 $524 reversed $220 $-1 #
coedge $-1 $447 $443 $499 $524 forward $330 $-1 #
vertex $-1 $444 $525 #
straight-curve $-1 0 43.805915061983825 20.67127963717784 -1 0 0 I I #
point $-1 -54.495740358768558 43.805915061983825 20.67127963717784 #
vertex $-1 $524 $526 #
straight-curve $-1 0 -43.805915061983825 20.67127963717784 1 0 0 I I #
straight-curve $-1 -76.245002594073298 -43.805915061983825 0 0 0 -1 I I #
straight-curve $-1 -76.245002594073298 43.805915061983825 0 0 0 -1 I I #
straight-curve $-1 0 43.805915061983825 20.67127963717784 -1 0 0 I I #
straight-curve $-1 -54.495740358768558 43.805915061983825 87.389826617219384 0 0 1 I I #
point $-1 -54.495740358768558 43.805915061983825 20.67127963717784 #
point $-1 -45.128986273287929 32.723787383844687 9.589151852593794 #
straight-curve $-1 -28.224304990004356 -43.805915061983825 51.665295104994115 0 0 -1 I I #
point $-1 -28.224304990004356 -43.805915061983825 20.67127963717784 #
straight-curve $-1 -7.1538697668294802 -43.805915061983825 1.294861977259556 1 0 0 I I #
point $-1 -28.224304990004356 -43.805915061983825 1.2948619772595578 #
point $-1 -20.271981872092702 -29.991661387258358 6.3991576199854645 #
point $-1 -8.3434971952252255 -29.991661387258358 6.3991576199854645 #
straight-curve $-1 22.140436312618306 -43.805915061983825 51.665295104994115 0 0 -1 I I #
point $-1 22.140436312618306 -43.805915061983825 20.67127963717784 #
straight-curve $-1 18.028500884481851 -43.805915061983825 1.294861977259556 1 0 0 I I #
point $-1 22.140436312618306 -43.805915061983825 1.2948619772595578 #
point $-1 30.092759430529952 -29.991661387258358 6.3991576199854645 #
point $-1 42.021244107397436 -29.991661387258358 6.3991576199854645 #
edge $-1 $501 -43.805915061983825 $504 43.805915061983825 $499 $527 forward 7 unknown #
point $-1 -76.245002594073298 43.805915061983825 20.67127963717784 #
point $-1 -76.245002594073298 -43.805915061983825 20.67127963717784 #
straight-curve $-1 -76.245002594073298 0 20.67127963717784 0 -1 0 I I #
End-of-ACIS-data 