500 0 5 0           
7 Unknown 11 ACIS 5.0 NT 24 Fri Mar 26 19:23:54 1999 
-1 9.9999999999999995e-007 1e-010 
body $-1 $5 $-1 $6 #
body $-1 $7 $-1 $8 #
body $-1 $9 $-1 $10 #
body $-1 $11 $-1 $12 #
body $-1 $13 $-1 $14 #
lump $-1 $-1 $15 $0 #
transform $-1 1 0 0 0 1 0 0 0 1 70.73335978270822 42.066564798656934 12.789688970417188 1 rotate no_reflect no_shear #
lump $-1 $-1 $16 $1 #
transform $-1 1 0 0 0 1 0 0 0 1 70.73335978270822 42.066564798656934 12.789688970417188 1 rotate no_reflect no_shear #
lump $-1 $-1 $17 $2 #
transform $-1 1 0 0 0 1 0 0 0 1 70.73335978270822 42.066564798656934 12.789688970417188 1 rotate no_reflect no_shear #
lump $-1 $-1 $18 $3 #
transform $-1 1 0 0 0 1 0 0 0 1 70.73335978270822 42.066564798656934 12.789688970417188 1 rotate no_reflect no_shear #
lump $-1 $-1 $19 $4 #
transform $-1 1 0 0 0 1 0 0 0 1 70.73335978270822 42.066564798656934 12.789688970417188 1 rotate no_reflect no_shear #
shell $-1 $-1 $-1 $20 $-1 $5 #
shell $-1 $-1 $-1 $21 $-1 $7 #
shell $-1 $-1 $-1 $22 $-1 $9 #
shell $-1 $-1 $-1 $23 $-1 $11 #
shell $-1 $-1 $-1 $24 $-1 $13 #
face $-1 $25 $26 $15 $-1 $27 forward single #
face $-1 $28 $29 $16 $-1 $30 forward single #
face $-1 $31 $32 $17 $-1 $33 reversed single #
face $-1 $34 $35 $18 $-1 $36 reversed single #
face $-1 $37 $38 $19 $-1 $39 reversed single #
face $-1 $40 $41 $15 $-1 $42 reversed single #
loop $-1 $-1 $43 $20 #
plane-surface $-1 0 0 12.789688970417188 0 0 1 1 0 0 forward_v I I I I #
face $-1 $44 $45 $16 $-1 $46 forward single #
loop $-1 $-1 $47 $21 #
plane-surface $-1 -145.69930071814053 31.796350708984527 129.31899210988482 0 1 0 -0.52991927123019833 0 0.84804809178421925 forward_v I I I I #
face $-1 $48 $49 $17 $-1 $50 reversed single #
loop $-1 $51 $52 $22 #
cone-surface $-1 -66.954612618663447 33.850393526919014 9.4284686635608104 0.52991927123019833 0 -0.84804809178421925 0.84804809178421925 0 0.52991927123019833 1 I I 0 1 1 forward I I I I #
face $-1 $53 $54 $18 $-1 $55 reversed single #
loop $-1 $56 $57 $23 #
cone-surface $-1 -66.954612618663447 36.93145775382073 9.4284686635608104 0.52991927123019833 0 -0.84804809178421925 0.84804809178421925 0 0.52991927123019833 1 I I 0 1 1 forward I I I I #
face $-1 $58 $59 $19 $-1 $60 reversed single #
loop $-1 $61 $62 $24 #
cone-surface $-1 -66.954612618663447 40.012521980722447 9.4284686635608104 0.52991927123019833 0 -0.84804809178421925 0.84804809178421925 0 0.52991927123019833 1 I I 0 1 1 forward I I I I #
face $-1 $63 $64 $15 $-1 $65 reversed single #
loop $-1 $-1 $66 $25 #
plane-surface $-1 0 0 -12.789688970417188 0 0 1 1 0 0 forward_v I I I I #
coedge $-1 $67 $68 $69 $70 forward $26 $-1 #
face $-1 $71 $72 $16 $-1 $73 forward single #
loop $-1 $-1 $74 $28 #
plane-surface $-1 -70.73335978270822 36.93145775382073 9.3484105314601322 -0.52991927123019833 0 0.84804809178421925 0.84804809178421925 0 0.52991927123019833 forward_v I I I I #
coedge $-1 $75 $76 $77 $78 reversed $29 $-1 #
face $-1 $79 $80 $17 $-1 $81 forward single #
loop $-1 $82 $83 $31 #
cone-surface $-1 -65.664504123402637 33.850393526919014 7.3638635302908533 0.52991927123019833 0 -0.84804809178421925 0.42402404589210962 0 0.26495963561509916 1 I I -0.70710678118654746 0.70710678118654746 0.5 forward I I I I #
loop $-1 $-1 $84 $22 #
coedge $-1 $52 $52 $85 $86 reversed $32 $-1 #
face $-1 $87 $88 $18 $-1 $89 reversed single #
loop $-1 $90 $91 $34 #
cone-surface $-1 -65.664504123402637 36.93145775382073 7.3638635302908533 0.52991927123019833 0 -0.84804809178421925 0.42402404589210962 0 0.26495963561509916 1 I I -0.70710678118654746 0.70710678118654746 0.5 forward I I I I #
loop $-1 $-1 $92 $23 #
coedge $-1 $57 $57 $93 $94 reversed $35 $-1 #
face $-1 $95 $96 $19 $-1 $97 reversed single #
loop $-1 $98 $99 $37 #
cone-surface $-1 -65.664504123402637 40.012521980722447 7.3638635302908533 0.52991927123019833 0 -0.84804809178421925 0.42402404589210962 0 0.26495963561509916 1 I I -0.70710678118654746 0.70710678118654746 0.5 forward I I I I #
loop $-1 $-1 $100 $24 #
coedge $-1 $62 $62 $101 $102 reversed $38 $-1 #
face $-1 $103 $104 $15 $-1 $105 reversed single #
loop $-1 $-1 $106 $40 #
plane-surface $-1 0 -42.066564798656934 0 0 1 0 0 0 1 forward_v I I I I #
coedge $-1 $107 $108 $109 $110 forward $41 $-1 #
coedge $-1 $111 $43 $112 $113 forward $26 $-1 #
coedge $-1 $43 $111 $114 $115 forward $26 $-1 #
coedge $-1 $116 $117 $43 $70 reversed $118 $-1 #
edge $-1 $119 -42.066564798656934 $120 42.066564798656934 $69 $121 forward 7 unknown #
face $-1 $122 $123 $16 $-1 $124 reversed single #
loop $-1 $-1 $125 $44 #
plane-surface $-1 0 0 12.789688970417188 0 0 1 1 0 0 forward_v I I I I #
coedge $-1 $126 $127 $125 $128 reversed $45 $-1 #
coedge $-1 $76 $47 $127 $129 forward $29 $-1 #
coedge $-1 $47 $75 $130 $131 reversed $29 $-1 #
coedge $-1 $132 $125 $47 $78 forward $72 $-1 #
edge $-1 $133 -7.623487185160144 $134 -2.1162905763620472 $77 $135 forward 7 unknown #
face $-1 $136 $137 $17 $-1 $138 forward single #
loop $-1 $-1 $139 $48 #
plane-surface $-1 -145.69930071814053 31.796350708984527 129.31899210988482 0 1 0 -0.52991927123019833 0 0.84804809178421925 forward_v I I I I #
loop $-1 $-1 $140 $31 #
coedge $-1 $83 $83 $84 $141 forward $49 $-1 #
coedge $-1 $84 $84 $83 $141 reversed $51 $-1 #
coedge $-1 $85 $85 $52 $86 forward $137 $-1 #
edge $-1 $142 0 $142 6.2831853071796004 $85 $143 forward 7 unknown #
face $-1 $144 $145 $18 $-1 $146 reversed single #
loop $-1 $147 $148 $53 #
cone-surface $-1 -66.954612618663447 33.850393526919014 9.4284686635608104 0.52991927123019833 0 -0.84804809178421925 0.84804809178421925 0 0.52991927123019833 1 I I 0 1 1 forward I I I I #
loop $-1 $-1 $149 $34 #
coedge $-1 $91 $91 $92 $150 forward $54 $-1 #
coedge $-1 $92 $92 $91 $150 reversed $56 $-1 #
coedge $-1 $93 $93 $57 $94 forward $151 $-1 #
edge $-1 $152 0 $152 6.2831853071796004 $93 $153 forward 7 unknown #
face $-1 $154 $155 $19 $-1 $156 reversed single #
loop $-1 $157 $158 $58 #
cone-surface $-1 -66.954612618663447 36.93145775382073 9.4284686635608104 0.52991927123019833 0 -0.84804809178421925 0.84804809178421925 0 0.52991927123019833 1 I I 0 1 1 forward I I I I #
loop $-1 $-1 $159 $37 #
coedge $-1 $99 $99 $100 $160 forward $59 $-1 #
coedge $-1 $100 $100 $99 $160 reversed $61 $-1 #
coedge $-1 $101 $101 $62 $102 forward $161 $-1 #
edge $-1 $162 0 $162 6.2831853071796004 $101 $163 forward 7 unknown #
face $-1 $164 $165 $15 $-1 $166 reversed single #
loop $-1 $-1 $167 $63 #
plane-surface $-1 -70.73335978270822 0 0 1 0 0 0 0 -1 forward_v I I I I #
coedge $-1 $168 $114 $169 $170 forward $64 $-1 #
coedge $-1 $171 $66 $168 $172 forward $41 $-1 #
coedge $-1 $66 $171 $173 $174 forward $41 $-1 #
coedge $-1 $117 $116 $66 $110 reversed $118 $-1 #
edge $-1 $175 -42.066564798656934 $176 42.066564798656934 $109 $177 forward 7 unknown #
coedge $-1 $68 $67 $178 $179 forward $26 $-1 #
coedge $-1 $180 $181 $67 $113 reversed $165 $-1 #
edge $-1 $120 -70.73335978270822 $182 70.73335978270822 $112 $183 forward 7 unknown #
coedge $-1 $106 $184 $68 $115 reversed $64 $-1 #
edge $-1 $185 -70.73335978270822 $119 70.73335978270822 $114 $186 forward 7 unknown #
coedge $-1 $109 $69 $184 $187 forward $118 $-1 #
coedge $-1 $69 $109 $180 $188 reversed $118 $-1 #
loop $-1 $-1 $116 $164 #
vertex $-1 $70 $189 #
vertex $-1 $70 $190 #
straight-curve $-1 70.73335978270822 0 12.789688970417188 0 1 0 I I #
face $-1 $191 $192 $16 $-1 $193 reversed single #
loop $-1 $-1 $130 $71 #
plane-surface $-1 -70.73335978270822 0 0 1 0 0 0 0 -1 forward_v I I I I #
coedge $-1 $77 $194 $74 $128 forward $72 $-1 #
coedge $-1 $195 $74 $196 $197 reversed $45 $-1 #
coedge $-1 $74 $195 $75 $129 reversed $45 $-1 #
edge $-1 $198 -23.600835921746569 $133 -13.330621832074161 $125 $199 forward 7 unknown #
edge $-1 $133 -6.493967337644067 $200 0 $75 $201 forward 7 unknown #
coedge $-1 $202 $203 $76 $131 forward $123 $-1 #
edge $-1 $134 51.86980708452522 $200 55.311085523482276 $130 $204 forward 7 unknown #
coedge $-1 $205 $77 $203 $206 forward $72 $-1 #
vertex $-1 $128 $207 #
vertex $-1 $206 $208 #
straight-curve $-1 -72.849650359070267 31.796350708984527 12.789688970417188 -1 0 0 I I #
face $-1 $209 $210 $17 $-1 $211 forward single #
loop $-1 $212 $85 $79 #
plane-surface $-1 -70.73335978270822 36.93145775382073 9.3484105314601322 -0.52991927123019833 0 0.84804809178421925 0.84804809178421925 0 0.52991927123019833 forward_v I I I I #
coedge $-1 $213 $214 $215 $216 reversed $80 $-1 #
coedge $-1 $140 $140 $-1 $217 forward $82 $-1 #
edge $-1 $218 0 $218 6.2831853071796004 $83 $219 forward 7 unknown #
vertex $-1 $86 $220 #
ellipse-curve $-1 -67.979761478309157 33.850393526919014 11.069049750938664 0.52991927123019833 0 -0.84804809178421925 0.84804809178421925 0 0.52991927123019833 1 I I #
face $-1 $221 $222 $18 $-1 $223 forward single #
loop $-1 $224 $225 $87 #
cone-surface $-1 -65.664504123402637 33.850393526919014 7.3638635302908533 0.52991927123019833 0 -0.84804809178421925 0.42402404589210962 0 0.26495963561509916 1 I I -0.70710678118654746 0.70710678118654746 0.5 forward I I I I #
loop $-1 $-1 $226 $53 #
coedge $-1 $148 $148 $227 $228 reversed $88 $-1 #
coedge $-1 $149 $149 $-1 $229 forward $90 $-1 #
edge $-1 $230 0 $230 6.2831853071796004 $91 $231 forward 7 unknown #
loop $-1 $232 $93 $221 #
vertex $-1 $94 $233 #
ellipse-curve $-1 -67.979761478309157 36.93145775382073 11.069049750938664 0.52991927123019833 0 -0.84804809178421925 0.84804809178421925 0 0.52991927123019833 1 I I #
face $-1 $234 $235 $19 $-1 $236 reversed single #
loop $-1 $237 $238 $95 #
cone-surface $-1 -65.664504123402637 36.93145775382073 7.3638635302908533 0.52991927123019833 0 -0.84804809178421925 0.42402404589210962 0 0.26495963561509916 1 I I -0.70710678118654746 0.70710678118654746 0.5 forward I I I I #
loop $-1 $-1 $239 $58 #
coedge $-1 $158 $158 $240 $241 reversed $96 $-1 #
coedge $-1 $159 $159 $-1 $242 forward $98 $-1 #
edge $-1 $243 0 $243 6.2831853071796004 $99 $244 forward 7 unknown #
loop $-1 $245 $101 $246 #
vertex $-1 $102 $247 #
ellipse-curve $-1 -67.979761478309157 40.012521980722447 11.069049750938664 0.52991927123019833 0 -0.84804809178421925 0.84804809178421925 0 0.52991927123019833 1 I I #
face $-1 $-1 $118 $15 $-1 $248 reversed single #
loop $-1 $-1 $180 $103 #
plane-surface $-1 0 42.066564798656934 0 0 -1 0 0 0 -1 forward_v I I I I #
coedge $-1 $249 $178 $181 $250 forward $104 $-1 #
coedge $-1 $184 $106 $107 $172 reversed $64 $-1 #
coedge $-1 $178 $249 $106 $170 reversed $104 $-1 #
edge $-1 $185 -12.789688970417188 $251 12.789688970417188 $169 $252 forward 7 unknown #
coedge $-1 $108 $107 $249 $253 forward $41 $-1 #
edge $-1 $176 -70.73335978270822 $251 70.73335978270822 $168 $254 forward 7 unknown #
coedge $-1 $181 $180 $108 $174 reversed $165 $-1 #
edge $-1 $255 -70.73335978270822 $175 70.73335978270822 $173 $256 forward 7 unknown #
vertex $-1 $110 $257 #
vertex $-1 $187 $258 #
straight-curve $-1 70.73335978270822 0 -12.789688970417188 0 -1 0 I I #
coedge $-1 $167 $169 $111 $179 reversed $104 $-1 #
edge $-1 $182 -42.066564798656934 $185 42.066564798656934 $178 $259 forward 7 unknown #
coedge $-1 $173 $112 $117 $188 forward $165 $-1 #
coedge $-1 $112 $173 $167 $250 reversed $165 $-1 #
vertex $-1 $113 $260 #
straight-curve $-1 0 42.066564798656934 12.789688970417188 -1 0 0 I I #
coedge $-1 $114 $168 $116 $187 reversed $64 $-1 #
vertex $-1 $179 $261 #
straight-curve $-1 0 -42.066564798656934 12.789688970417188 1 0 0 I I #
edge $-1 $119 -12.789688970417188 $176 12.789688970417188 $116 $262 forward 7 unknown #
edge $-1 $120 -12.789688970417188 $175 12.789688970417188 $117 $263 forward 7 unknown #
point $-1 70.73335978270822 -42.066564798656934 12.789688970417188 #
point $-1 70.73335978270822 42.066564798656934 12.789688970417188 #
face $-1 $264 $265 $16 $-1 $266 reversed single #
loop $-1 $-1 $267 $122 #
plane-surface $-1 0 0 -12.789688970417188 0 0 1 1 0 0 forward_v I I I I #
coedge $-1 $125 $268 $269 $270 forward $72 $-1 #
coedge $-1 $127 $126 $202 $271 reversed $45 $-1 #
coedge $-1 $269 $272 $126 $197 forward $273 $-1 #
edge $-1 $274 -27.515693946610135 $198 -21.02172660896607 $196 $275 forward 7 unknown #
vertex $-1 $197 $276 #
straight-curve $-1 -65.226163173910123 18.465728876910365 12.789688970417187 0 -1 0 I I #
vertex $-1 $271 $277 #
straight-curve $-1 -70.73335978270822 31.796350708984527 9.3484105314601322 -0.84804809178421925 0 -0.52991927123019833 I I #
coedge $-1 $278 $130 $195 $271 forward $123 $-1 #
coedge $-1 $130 $279 $132 $206 reversed $123 $-1 #
straight-curve $-1 -70.73335978270822 31.796350708984527 64.659496054942409 0 0 -1 I I #
coedge $-1 $268 $132 $280 $281 forward $72 $-1 #
edge $-1 $134 -31.796350708984527 $282 42.066564798656934 $203 $283 forward 7 unknown #
point $-1 -65.226163173910123 31.796350708984527 12.789688970417188 #
point $-1 -70.73335978270822 31.796350708984527 12.789688970417188 #
face $-1 $284 $285 $17 $-1 $286 reversed single #
loop $-1 $-1 $287 $136 #
plane-surface $-1 0 0 12.789688970417188 0 0 1 1 0 0 forward_v I I I I #
loop $-1 $-1 $288 $79 #
coedge $-1 $214 $139 $289 $290 forward $80 $-1 #
coedge $-1 $139 $213 $291 $292 reversed $80 $-1 #
coedge $-1 $293 $287 $139 $216 forward $210 $-1 #
edge $-1 $294 -7.623487185160144 $295 -2.1162905763620472 $215 $296 forward 7 unknown #
edge $-1 $297 1 $297 0 $140 $-1 forward 7 unknown #
vertex $-1 $141 $298 #
ellipse-curve $-1 -65.929463759017736 33.850393526919014 7.7878875761829631 -0.52991927123019833 0 0.84804809178421925 0.84804809178421925 0 0.52991927123019833 1 I I #
point $-1 -67.131713386524936 33.850393526919014 11.598969022168856 #
face $-1 $299 $151 $18 $-1 $300 forward single #
loop $-1 $-1 $301 $144 #
plane-surface $-1 -145.69930071814053 31.796350708984527 129.31899210988482 0 1 0 -0.52991927123019833 0 0.84804809178421925 forward_v I I I I #
loop $-1 $-1 $302 $87 #
coedge $-1 $225 $225 $226 $303 forward $145 $-1 #
coedge $-1 $226 $226 $225 $303 reversed $147 $-1 #
coedge $-1 $227 $227 $148 $228 forward $232 $-1 #
edge $-1 $304 0 $304 6.2831853071796004 $227 $305 forward 7 unknown #
edge $-1 $306 1 $306 0 $149 $-1 forward 7 unknown #
vertex $-1 $150 $307 #
ellipse-curve $-1 -65.929463759017736 36.93145775382073 7.7878875761829631 -0.52991927123019833 0 0.84804809178421925 0.84804809178421925 0 0.52991927123019833 1 I I #
loop $-1 $308 $227 $221 #
point $-1 -67.131713386524936 36.93145775382073 11.598969022168856 #
face $-1 $309 $310 $19 $-1 $311 reversed single #
loop $-1 $312 $313 $154 #
cone-surface $-1 -66.954612618663447 33.850393526919014 9.4284686635608104 0.52991927123019833 0 -0.84804809178421925 0.84804809178421925 0 0.52991927123019833 1 I I 0 1 1 forward I I I I #
loop $-1 $-1 $314 $95 #
coedge $-1 $238 $238 $239 $315 forward $155 $-1 #
coedge $-1 $239 $239 $238 $315 reversed $157 $-1 #
coedge $-1 $240 $240 $158 $241 forward $245 $-1 #
edge $-1 $316 0 $316 6.2831853071796004 $240 $317 forward 7 unknown #
edge $-1 $318 1 $318 0 $159 $-1 forward 7 unknown #
vertex $-1 $160 $319 #
ellipse-curve $-1 -65.929463759017736 40.012521980722447 7.7878875761829631 -0.52991927123019833 0 0.84804809178421925 0.84804809178421925 0 0.52991927123019833 1 I I #
loop $-1 $320 $240 $246 #
face $-1 $321 $161 $19 $-1 $322 forward single #
point $-1 -67.131713386524936 40.012521980722447 11.598969022168856 #
plane-surface $-1 70.73335978270822 0 0 -1 0 0 0 0 1 forward_v I I I I #
coedge $-1 $169 $167 $171 $253 reversed $104 $-1 #
edge $-1 $182 -12.789688970417188 $255 12.789688970417188 $181 $323 forward 7 unknown #
vertex $-1 $253 $324 #
straight-curve $-1 -70.73335978270822 -42.066564798656934 0 0 0 -1 I I #
edge $-1 $251 -42.066564798656934 $255 42.066564798656934 $249 $325 forward 7 unknown #
straight-curve $-1 0 -42.066564798656934 -12.789688970417188 -1 0 0 I I #
vertex $-1 $174 $326 #
straight-curve $-1 0 42.066564798656934 -12.789688970417188 1 0 0 I I #
point $-1 70.73335978270822 42.066564798656934 -12.789688970417188 #
point $-1 70.73335978270822 -42.066564798656934 -12.789688970417188 #
straight-curve $-1 -70.73335978270822 0 12.789688970417188 0 -1 0 I I #
point $-1 -70.73335978270822 42.066564798656934 12.789688970417188 #
point $-1 -70.73335978270822 -42.066564798656934 12.789688970417188 #
straight-curve $-1 70.73335978270822 -42.066564798656934 0 0 0 -1 I I #
straight-curve $-1 70.73335978270822 42.066564798656934 0 0 0 -1 I I #
face $-1 $327 $273 $16 $-1 $328 reversed single #
loop $-1 $-1 $329 $191 #
plane-surface $-1 0 -42.066564798656934 0 0 1 0 0 0 1 forward_v I I I I #
coedge $-1 $330 $331 $332 $333 forward $192 $-1 #
coedge $-1 $194 $205 $334 $335 forward $72 $-1 #
coedge $-1 $336 $196 $194 $270 reversed $273 $-1 #
edge $-1 $337 -70.73335978270822 $198 65.226163173910123 $269 $338 forward 7 unknown #
edge $-1 $200 13.330621832074161 $274 23.600835921746569 $202 $339 forward 7 unknown #
coedge $-1 $196 $340 $278 $341 reversed $273 $-1 #
loop $-1 $-1 $196 $264 #
vertex $-1 $341 $342 #
straight-curve $-1 -47.398728037166904 42.066564798656934 23.929507015040958 0.84804809178421925 0 0.52991927123019833 I I #
point $-1 -65.226163173910123 42.066564798656934 12.789688970417188 #
point $-1 -70.73335978270822 31.796350708984527 9.3484105314601322 #
coedge $-1 $343 $202 $272 $341 forward $123 $-1 #
coedge $-1 $203 $343 $329 $344 reversed $123 $-1 #
coedge $-1 $329 $345 $205 $281 reversed $265 $-1 #
edge $-1 $282 -70.73335978270822 $346 70.73335978270822 $280 $347 forward 7 unknown #
vertex $-1 $206 $348 #
straight-curve $-1 -70.73335978270822 0 12.789688970417188 0 -1 0 I I #
face $-1 $349 $350 $17 $-1 $351 reversed single #
loop $-1 $-1 $291 $209 #
plane-surface $-1 -70.73335978270822 0 0 1 0 0 0 0 -1 forward_v I I I I #
coedge $-1 $215 $352 $288 $353 forward $210 $-1 #
coedge $-1 $354 $289 $287 $353 reversed $212 $-1 #
coedge $-1 $288 $355 $213 $290 reversed $212 $-1 #
edge $-1 $294 -6.493967337644067 $356 0 $213 $357 forward 7 unknown #
coedge $-1 $358 $359 $214 $292 forward $285 $-1 #
edge $-1 $295 51.86980708452522 $356 55.311085523482276 $291 $360 forward 7 unknown #
coedge $-1 $361 $215 $359 $362 forward $210 $-1 #
vertex $-1 $353 $363 #
vertex $-1 $362 $364 #
straight-curve $-1 -72.849650359070267 31.796350708984527 12.789688970417188 -1 0 0 I I #
vertex $-1 $217 $365 #
point $-1 -65.081415667233514 33.850393526919014 8.317806847413161 #
face $-1 $366 $367 $18 $-1 $368 forward single #
plane-surface $-1 -70.73335978270822 36.93145775382073 9.3484105314601322 -0.52991927123019833 0 0.84804809178421925 0.84804809178421925 0 0.52991927123019833 forward_v I I I I #
coedge $-1 $369 $370 $371 $372 reversed $222 $-1 #
coedge $-1 $302 $302 $-1 $373 forward $224 $-1 #
edge $-1 $374 0 $374 6.2831853071796004 $225 $375 forward 7 unknown #
vertex $-1 $228 $376 #
ellipse-curve $-1 -67.979761478309157 33.850393526919014 11.069049750938664 0.52991927123019833 0 -0.84804809178421925 0.84804809178421925 0 0.52991927123019833 1 I I #
vertex $-1 $229 $377 #
point $-1 -65.081415667233514 36.93145775382073 8.317806847413161 #
loop $-1 $-1 $378 $221 #
face $-1 $246 $379 $19 $-1 $380 forward single #
loop $-1 $381 $382 $234 #
cone-surface $-1 -65.664504123402637 33.850393526919014 7.3638635302908533 0.52991927123019833 0 -0.84804809178421925 0.42402404589210962 0 0.26495963561509916 1 I I -0.70710678118654746 0.70710678118654746 0.5 forward I I I I #
loop $-1 $-1 $383 $154 #
coedge $-1 $313 $313 $384 $385 reversed $235 $-1 #
coedge $-1 $314 $314 $-1 $386 forward $237 $-1 #
edge $-1 $387 0 $387 6.2831853071796004 $238 $388 forward 7 unknown #
vertex $-1 $241 $389 #
ellipse-curve $-1 -67.979761478309157 36.93145775382073 11.069049750938664 0.52991927123019833 0 -0.84804809178421925 0.84804809178421925 0 0.52991927123019833 1 I I #
vertex $-1 $242 $390 #
point $-1 -65.081415667233514 40.012521980722447 8.317806847413161 #
loop $-1 $391 $384 $246 #
face $-1 $392 $393 $19 $-1 $394 forward single #
plane-surface $-1 -70.73335978270822 36.93145775382073 9.3484105314601322 -0.52991927123019833 0 0.84804809178421925 0.84804809178421925 0 0.52991927123019833 forward_v I I I I #
straight-curve $-1 -70.73335978270822 42.066564798656934 0 0 0 -1 I I #
point $-1 -70.73335978270822 -42.066564798656934 -12.789688970417188 #
straight-curve $-1 -70.73335978270822 0 -12.789688970417188 0 1 0 I I #
point $-1 -70.73335978270822 42.066564798656934 -12.789688970417188 #
face $-1 $-1 $395 $16 $-1 $396 reversed single #
plane-surface $-1 0 42.066564798656934 0 0 -1 0 0 0 -1 forward_v I I I I #
coedge $-1 $397 $280 $279 $344 forward $265 $-1 #
coedge $-1 $398 $267 $397 $399 forward $192 $-1 #
coedge $-1 $267 $398 $340 $400 forward $192 $-1 #
coedge $-1 $401 $402 $267 $333 reversed $395 $-1 #
edge $-1 $403 -42.066564798656934 $404 42.066564798656934 $332 $405 forward 7 unknown #
coedge $-1 $402 $401 $268 $335 reversed $395 $-1 #
edge $-1 $346 -42.066564798656934 $337 42.066564798656934 $334 $406 forward 7 unknown #
coedge $-1 $340 $269 $401 $407 forward $273 $-1 #
vertex $-1 $335 $408 #
straight-curve $-1 0 42.066564798656934 12.789688970417188 -1 0 0 I I #
straight-curve $-1 -70.73335978270822 18.465728876910365 9.3484105314601358 0 1 0 I I #
coedge $-1 $272 $336 $331 $400 reversed $273 $-1 #
edge $-1 $274 -9.3484105314601322 $409 12.789688970417188 $272 $410 forward 7 unknown #
point $-1 -70.73335978270822 42.066564798656934 9.3484105314601322 #
coedge $-1 $279 $278 $398 $411 reversed $123 $-1 #
edge $-1 $282 -12.789688970417188 $412 12.789688970417188 $279 $413 forward 7 unknown #
coedge $-1 $280 $397 $402 $414 reversed $265 $-1 #
vertex $-1 $335 $415 #
straight-curve $-1 0 -42.066564798656934 12.789688970417188 1 0 0 I I #
point $-1 -70.73335978270822 -42.066564798656934 12.789688970417188 #
face $-1 $416 $417 $17 $-1 $418 reversed single #
loop $-1 $-1 $419 $284 #
plane-surface $-1 0 0 -12.789688970417188 0 0 1 1 0 0 forward_v I I I I #
coedge $-1 $287 $420 $421 $422 forward $210 $-1 #
edge $-1 $423 -23.600835921746569 $294 -13.330621832074161 $287 $424 forward 7 unknown #
coedge $-1 $355 $288 $425 $426 reversed $212 $-1 #
coedge $-1 $289 $354 $358 $427 reversed $212 $-1 #
vertex $-1 $427 $428 #
straight-curve $-1 -70.73335978270822 31.796350708984527 9.3484105314601322 -0.84804809178421925 0 -0.52991927123019833 I I #
coedge $-1 $429 $291 $355 $427 forward $285 $-1 #
coedge $-1 $291 $430 $293 $362 reversed $285 $-1 #
straight-curve $-1 -70.73335978270822 31.796350708984527 64.659496054942409 0 0 -1 I I #
coedge $-1 $420 $293 $431 $432 forward $210 $-1 #
edge $-1 $295 -31.796350708984527 $433 42.066564798656934 $359 $434 forward 7 unknown #
point $-1 -65.226163173910123 31.796350708984527 12.789688970417188 #
point $-1 -70.73335978270822 31.796350708984527 12.789688970417188 #
point $-1 -65.399544487787537 33.850393526919014 6.9398394843987434 #
face $-1 $435 $436 $18 $-1 $437 reversed single #
loop $-1 $-1 $438 $299 #
plane-surface $-1 0 0 12.789688970417188 0 0 1 1 0 0 forward_v I I I I #
coedge $-1 $370 $301 $439 $440 forward $222 $-1 #
coedge $-1 $301 $369 $441 $442 reversed $222 $-1 #
coedge $-1 $443 $438 $301 $372 forward $367 $-1 #
edge $-1 $444 -7.623487185160144 $445 -2.1162905763620472 $371 $446 forward 7 unknown #
edge $-1 $447 1 $447 0 $302 $-1 forward 7 unknown #
vertex $-1 $303 $448 #
ellipse-curve $-1 -65.929463759017736 33.850393526919014 7.7878875761829631 -0.52991927123019833 0 0.84804809178421925 0.84804809178421925 0 0.52991927123019833 1 I I #
point $-1 -67.131713386524936 33.850393526919014 11.598969022168856 #
point $-1 -65.399544487787537 36.93145775382073 6.9398394843987434 #
coedge $-1 $449 $439 $438 $450 reversed $308 $-1 #
loop $-1 $-1 $451 $309 #
plane-surface $-1 -145.69930071814053 31.796350708984527 129.31899210988482 0 1 0 -0.52991927123019833 0 0.84804809178421925 forward_v I I I I #
loop $-1 $-1 $452 $234 #
coedge $-1 $382 $382 $383 $453 forward $310 $-1 #
coedge $-1 $383 $383 $382 $453 reversed $312 $-1 #
coedge $-1 $384 $384 $313 $385 forward $320 $-1 #
edge $-1 $454 0 $454 6.2831853071796004 $384 $455 forward 7 unknown #
edge $-1 $456 1 $456 0 $314 $-1 forward 7 unknown #
vertex $-1 $315 $457 #
ellipse-curve $-1 -65.929463759017736 36.93145775382073 7.7878875761829631 -0.52991927123019833 0 0.84804809178421925 0.84804809178421925 0 0.52991927123019833 1 I I #
point $-1 -67.131713386524936 36.93145775382073 11.598969022168856 #
point $-1 -65.399544487787537 40.012521980722447 6.9398394843987434 #
loop $-1 $-1 $458 $246 #
face $-1 $459 $460 $19 $-1 $461 reversed single #
loop $-1 $-1 $462 $321 #
plane-surface $-1 0 0 12.789688970417188 0 0 1 1 0 0 forward_v I I I I #
loop $-1 $-1 $402 $327 #
plane-surface $-1 70.73335978270822 0 0 -1 0 0 0 0 1 forward_v I I I I #
coedge $-1 $345 $329 $330 $399 reversed $265 $-1 #
coedge $-1 $331 $330 $343 $411 forward $192 $-1 #
edge $-1 $404 -70.73335978270822 $412 70.73335978270822 $397 $463 forward 7 unknown #
edge $-1 $409 -70.73335978270822 $403 70.73335978270822 $340 $464 forward 7 unknown #
coedge $-1 $334 $332 $336 $407 reversed $395 $-1 #
coedge $-1 $332 $334 $345 $414 forward $395 $-1 #
vertex $-1 $333 $465 #
vertex $-1 $414 $466 #
straight-curve $-1 70.73335978270822 0 -12.789688970417188 0 -1 0 I I #
straight-curve $-1 70.73335978270822 0 12.789688970417188 0 1 0 I I #
edge $-1 $337 -12.789688970417188 $403 12.789688970417188 $401 $467 forward 7 unknown #
point $-1 70.73335978270822 42.066564798656934 12.789688970417188 #
vertex $-1 $400 $468 #
straight-curve $-1 -70.73335978270822 42.066564798656934 0 0 0 -1 I I #
edge $-1 $412 -42.066564798656934 $409 42.066564798656934 $343 $469 forward 7 unknown #
vertex $-1 $411 $470 #
straight-curve $-1 -70.73335978270822 -42.066564798656934 0 0 0 -1 I I #
edge $-1 $346 -12.789688970417188 $404 12.789688970417188 $402 $471 forward 7 unknown #
point $-1 70.73335978270822 -42.066564798656934 12.789688970417188 #
face $-1 $472 $473 $17 $-1 $474 reversed single #
loop $-1 $-1 $475 $349 #
plane-surface $-1 0 -42.066564798656934 0 0 1 0 0 0 1 forward_v I I I I #
coedge $-1 $476 $477 $478 $479 forward $350 $-1 #
coedge $-1 $352 $361 $480 $481 forward $210 $-1 #
coedge $-1 $482 $425 $352 $422 reversed $473 $-1 #
edge $-1 $483 -70.73335978270822 $423 65.226163173910123 $421 $484 forward 7 unknown #
vertex $-1 $426 $485 #
straight-curve $-1 -65.226163173910123 18.465728876910365 12.789688970417187 0 -1 0 I I #
coedge $-1 $421 $486 $354 $426 forward $473 $-1 #
edge $-1 $487 -27.515693946610135 $423 -21.02172660896607 $425 $488 forward 7 unknown #
edge $-1 $356 13.330621832074161 $487 23.600835921746569 $358 $489 forward 7 unknown #
point $-1 -70.73335978270822 31.796350708984527 9.3484105314601322 #
coedge $-1 $490 $358 $486 $491 forward $285 $-1 #
coedge $-1 $359 $490 $475 $492 reversed $285 $-1 #
coedge $-1 $475 $493 $361 $432 reversed $417 $-1 #
edge $-1 $433 -70.73335978270822 $494 70.73335978270822 $431 $495 forward 7 unknown #
vertex $-1 $362 $496 #
straight-curve $-1 -70.73335978270822 0 12.789688970417188 0 -1 0 I I #
face $-1 $497 $498 $18 $-1 $499 reversed single #
loop $-1 $-1 $441 $366 #
plane-surface $-1 -70.73335978270822 0 0 1 0 0 0 0 -1 forward_v I I I I #
coedge $-1 $371 $500 $378 $450 forward $367 $-1 #
coedge $-1 $378 $501 $369 $440 reversed $308 $-1 #
edge $-1 $444 -6.493967337644067 $502 0 $369 $503 forward 7 unknown #
coedge $-1 $504 $505 $370 $442 forward $436 $-1 #
edge $-1 $445 51.86980708452522 $502 55.311085523482276 $441 $506 forward 7 unknown #
coedge $-1 $507 $371 $505 $508 forward $367 $-1 #
vertex $-1 $450 $509 #
vertex $-1 $508 $510 #
straight-curve $-1 -72.849650359070267 31.796350708984527 12.789688970417188 -1 0 0 I I #
vertex $-1 $373 $511 #
point $-1 -65.081415667233514 33.850393526919014 8.317806847413161 #
coedge $-1 $501 $378 $512 $513 reversed $308 $-1 #
edge $-1 $514 -23.600835921746569 $444 -13.330621832074161 $438 $515 forward 7 unknown #
coedge $-1 $516 $517 $518 $519 reversed $379 $-1 #
coedge $-1 $452 $452 $-1 $520 forward $381 $-1 #
edge $-1 $521 0 $521 6.2831853071796004 $382 $522 forward 7 unknown #
vertex $-1 $385 $523 #
ellipse-curve $-1 -67.979761478309157 33.850393526919014 11.069049750938664 0.52991927123019833 0 -0.84804809178421925 0.84804809178421925 0 0.52991927123019833 1 I I #
vertex $-1 $386 $524 #
point $-1 -65.081415667233514 36.93145775382073 8.317806847413161 #
coedge $-1 $525 $526 $462 $527 reversed $391 $-1 #
face $-1 $528 $529 $19 $-1 $530 reversed single #
loop $-1 $-1 $531 $392 #
plane-surface $-1 -70.73335978270822 0 0 1 0 0 0 0 -1 forward_v I I I I #
coedge $-1 $518 $532 $458 $527 forward $393 $-1 #
straight-curve $-1 0 -42.066564798656934 -12.789688970417188 -1 0 0 I I #
straight-curve $-1 0 42.066564798656934 -12.789688970417188 1 0 0 I I #
point $-1 70.73335978270822 42.066564798656934 -12.789688970417188 #
point $-1 70.73335978270822 -42.066564798656934 -12.789688970417188 #
straight-curve $-1 70.73335978270822 42.066564798656934 0 0 0 -1 I I #
point $-1 -70.73335978270822 42.066564798656934 -12.789688970417188 #
straight-curve $-1 -70.73335978270822 0 -12.789688970417188 0 1 0 I I #
point $-1 -70.73335978270822 -42.066564798656934 -12.789688970417188 #
straight-curve $-1 70.73335978270822 -42.066564798656934 0 0 0 -1 I I #
face $-1 $-1 $533 $17 $-1 $534 reversed single #
loop $-1 $-1 $425 $416 #
plane-surface $-1 0 42.066564798656934 0 0 -1 0 0 0 -1 forward_v I I I I #
coedge $-1 $535 $431 $430 $492 forward $417 $-1 #
coedge $-1 $536 $419 $535 $537 forward $350 $-1 #
coedge $-1 $419 $536 $538 $539 forward $350 $-1 #
coedge $-1 $540 $541 $419 $479 reversed $533 $-1 #
edge $-1 $542 -42.066564798656934 $543 42.066564798656934 $478 $544 forward 7 unknown #
coedge $-1 $541 $540 $420 $481 reversed $533 $-1 #
edge $-1 $494 -42.066564798656934 $483 42.066564798656934 $480 $545 forward 7 unknown #
coedge $-1 $538 $421 $540 $546 forward $473 $-1 #
vertex $-1 $481 $547 #
straight-curve $-1 0 42.066564798656934 12.789688970417188 -1 0 0 I I #
point $-1 -65.226163173910123 42.066564798656934 12.789688970417188 #
coedge $-1 $425 $538 $429 $491 reversed $473 $-1 #
vertex $-1 $491 $548 #
straight-curve $-1 -47.398728037166904 42.066564798656934 23.929507015040958 0.84804809178421925 0 0.52991927123019833 I I #
straight-curve $-1 -70.73335978270822 18.465728876910365 9.3484105314601358 0 1 0 I I #
coedge $-1 $430 $429 $536 $549 reversed $285 $-1 #
edge $-1 $487 -9.3484105314601322 $550 12.789688970417188 $486 $551 forward 7 unknown #
edge $-1 $433 -12.789688970417188 $552 12.789688970417188 $430 $553 forward 7 unknown #
coedge $-1 $431 $535 $541 $554 reversed $417 $-1 #
vertex $-1 $481 $555 #
straight-curve $-1 0 -42.066564798656934 12.789688970417188 1 0 0 I I #
point $-1 -70.73335978270822 -42.066564798656934 12.789688970417188 #
face $-1 $556 $557 $18 $-1 $558 reversed single #
loop $-1 $-1 $559 $435 #
plane-surface $-1 0 0 -12.789688970417188 0 0 1 1 0 0 forward_v I I I I #
coedge $-1 $438 $560 $561 $562 forward $367 $-1 #
coedge $-1 $439 $449 $504 $563 reversed $308 $-1 #
vertex $-1 $563 $564 #
straight-curve $-1 -70.73335978270822 31.796350708984527 9.3484105314601322 -0.84804809178421925 0 -0.52991927123019833 I I #
coedge $-1 $565 $441 $501 $563 forward $436 $-1 #
coedge $-1 $441 $566 $443 $508 reversed $436 $-1 #
straight-curve $-1 -70.73335978270822 31.796350708984527 64.659496054942409 0 0 -1 I I #
coedge $-1 $560 $443 $567 $568 forward $367 $-1 #
edge $-1 $445 -31.796350708984527 $569 42.066564798656934 $505 $570 forward 7 unknown #
point $-1 -65.226163173910123 31.796350708984527 12.789688970417188 #
point $-1 -70.73335978270822 31.796350708984527 12.789688970417188 #
point $-1 -65.399544487787537 33.850393526919014 6.9398394843987434 #
coedge $-1 $561 $571 $449 $513 forward $572 $-1 #
edge $-1 $573 -27.515693946610135 $514 -21.02172660896607 $512 $574 forward 7 unknown #
vertex $-1 $513 $575 #
straight-curve $-1 -65.226163173910123 18.465728876910365 12.789688970417187 0 -1 0 I I #
coedge $-1 $517 $451 $526 $576 forward $379 $-1 #
coedge $-1 $451 $516 $531 $577 reversed $379 $-1 #
coedge $-1 $578 $462 $451 $519 forward $393 $-1 #
edge $-1 $579 -7.623487185160144 $580 -2.1162905763620472 $518 $581 forward 7 unknown #
edge $-1 $582 1 $582 0 $452 $-1 forward 7 unknown #
vertex $-1 $453 $583 #
ellipse-curve $-1 -65.929463759017736 33.850393526919014 7.7878875761829631 -0.52991927123019833 0 0.84804809178421925 0.84804809178421925 0 0.52991927123019833 1 I I #
point $-1 -67.131713386524936 33.850393526919014 11.598969022168856 #
point $-1 -65.399544487787537 36.93145775382073 6.9398394843987434 #
coedge $-1 $584 $458 $585 $586 reversed $391 $-1 #
coedge $-1 $458 $584 $516 $576 reversed $391 $-1 #
edge $-1 $587 -23.600835921746569 $579 -13.330621832074161 $462 $588 forward 7 unknown #
face $-1 $589 $590 $19 $-1 $591 reversed single #
loop $-1 $-1 $592 $459 #
plane-surface $-1 0 0 -12.789688970417188 0 0 1 1 0 0 forward_v I I I I #
coedge $-1 $593 $594 $517 $577 forward $460 $-1 #
coedge $-1 $462 $595 $596 $597 forward $393 $-1 #
loop $-1 $-1 $541 $472 #
plane-surface $-1 70.73335978270822 0 0 -1 0 0 0 0 1 forward_v I I I I #
coedge $-1 $493 $475 $476 $537 reversed $417 $-1 #
coedge $-1 $477 $476 $490 $549 forward $350 $-1 #
edge $-1 $543 -70.73335978270822 $552 70.73335978270822 $535 $598 forward 7 unknown #
coedge $-1 $486 $482 $477 $539 reversed $473 $-1 #
edge $-1 $550 -70.73335978270822 $542 70.73335978270822 $538 $599 forward 7 unknown #
coedge $-1 $480 $478 $482 $546 reversed $533 $-1 #
coedge $-1 $478 $480 $493 $554 forward $533 $-1 #
vertex $-1 $479 $600 #
vertex $-1 $554 $601 #
straight-curve $-1 70.73335978270822 0 -12.789688970417188 0 -1 0 I I #
straight-curve $-1 70.73335978270822 0 12.789688970417188 0 1 0 I I #
edge $-1 $483 -12.789688970417188 $542 12.789688970417188 $540 $602 forward 7 unknown #
point $-1 70.73335978270822 42.066564798656934 12.789688970417188 #
point $-1 -70.73335978270822 42.066564798656934 9.3484105314601322 #
edge $-1 $552 -42.066564798656934 $550 42.066564798656934 $490 $603 forward 7 unknown #
vertex $-1 $539 $604 #
straight-curve $-1 -70.73335978270822 42.066564798656934 0 0 0 -1 I I #
vertex $-1 $549 $605 #
straight-curve $-1 -70.73335978270822 -42.066564798656934 0 0 0 -1 I I #
edge $-1 $494 -12.789688970417188 $543 12.789688970417188 $541 $606 forward 7 unknown #
point $-1 70.73335978270822 -42.066564798656934 12.789688970417188 #
face $-1 $607 $572 $18 $-1 $608 reversed single #
loop $-1 $-1 $609 $497 #
plane-surface $-1 0 -42.066564798656934 0 0 1 0 0 0 1 forward_v I I I I #
coedge $-1 $610 $611 $612 $613 forward $498 $-1 #
coedge $-1 $500 $507 $614 $615 forward $367 $-1 #
coedge $-1 $616 $512 $500 $562 reversed $572 $-1 #
edge $-1 $617 -70.73335978270822 $514 65.226163173910123 $561 $618 forward 7 unknown #
edge $-1 $502 13.330621832074161 $573 23.600835921746569 $504 $619 forward 7 unknown #
point $-1 -70.73335978270822 31.796350708984527 9.3484105314601322 #
coedge $-1 $620 $504 $571 $621 forward $436 $-1 #
coedge $-1 $505 $620 $609 $622 reversed $436 $-1 #
coedge $-1 $609 $623 $507 $568 reversed $557 $-1 #
edge $-1 $569 -70.73335978270822 $624 70.73335978270822 $567 $625 forward 7 unknown #
vertex $-1 $508 $626 #
straight-curve $-1 -70.73335978270822 0 12.789688970417188 0 -1 0 I I #
coedge $-1 $512 $627 $565 $621 reversed $572 $-1 #
loop $-1 $-1 $512 $556 #
vertex $-1 $621 $628 #
straight-curve $-1 -47.398728037166904 42.066564798656934 23.929507015040958 0.84804809178421925 0 0.52991927123019833 I I #
point $-1 -65.226163173910123 42.066564798656934 12.789688970417188 #
edge $-1 $579 -6.493967337644067 $629 0 $516 $630 forward 7 unknown #
edge $-1 $580 51.86980708452522 $629 55.311085523482276 $531 $631 forward 7 unknown #
coedge $-1 $632 $518 $594 $633 forward $393 $-1 #
vertex $-1 $527 $634 #
vertex $-1 $633 $635 #
straight-curve $-1 -72.849650359070267 31.796350708984527 12.789688970417188 -1 0 0 I I #
vertex $-1 $520 $636 #
point $-1 -65.081415667233514 33.850393526919014 8.317806847413161 #
coedge $-1 $526 $525 $593 $637 reversed $391 $-1 #
coedge $-1 $596 $638 $525 $586 forward $639 $-1 #
edge $-1 $640 -27.515693946610135 $587 -21.02172660896607 $585 $641 forward 7 unknown #
vertex $-1 $586 $642 #
straight-curve $-1 -65.226163173910123 18.465728876910365 12.789688970417187 0 -1 0 I I #
face $-1 $643 $639 $19 $-1 $644 reversed single #
loop $-1 $-1 $645 $528 #
plane-surface $-1 0 -42.066564798656934 0 0 1 0 0 0 1 forward_v I I I I #
coedge $-1 $646 $647 $648 $649 forward $529 $-1 #
coedge $-1 $650 $531 $584 $637 forward $460 $-1 #
coedge $-1 $531 $651 $578 $633 reversed $460 $-1 #
coedge $-1 $532 $632 $652 $653 forward $393 $-1 #
coedge $-1 $654 $585 $532 $597 reversed $639 $-1 #
edge $-1 $655 -70.73335978270822 $587 65.226163173910123 $596 $656 forward 7 unknown #
straight-curve $-1 0 -42.066564798656934 -12.789688970417188 -1 0 0 I I #
straight-curve $-1 0 42.066564798656934 -12.789688970417188 1 0 0 I I #
point $-1 70.73335978270822 42.066564798656934 -12.789688970417188 #
point $-1 70.73335978270822 -42.066564798656934 -12.789688970417188 #
straight-curve $-1 70.73335978270822 42.066564798656934 0 0 0 -1 I I #
straight-curve $-1 -70.73335978270822 0 -12.789688970417188 0 1 0 I I #
point $-1 -70.73335978270822 42.066564798656934 -12.789688970417188 #
point $-1 -70.73335978270822 -42.066564798656934 -12.789688970417188 #
straight-curve $-1 70.73335978270822 -42.066564798656934 0 0 0 -1 I I #
face $-1 $-1 $657 $18 $-1 $658 reversed single #
plane-surface $-1 0 42.066564798656934 0 0 -1 0 0 0 -1 forward_v I I I I #
coedge $-1 $659 $567 $566 $622 forward $557 $-1 #
coedge $-1 $660 $559 $659 $661 forward $498 $-1 #
coedge $-1 $559 $660 $627 $662 forward $498 $-1 #
coedge $-1 $663 $664 $559 $613 reversed $657 $-1 #
edge $-1 $665 -42.066564798656934 $666 42.066564798656934 $612 $667 forward 7 unknown #
coedge $-1 $664 $663 $560 $615 reversed $657 $-1 #
edge $-1 $624 -42.066564798656934 $617 42.066564798656934 $614 $668 forward 7 unknown #
coedge $-1 $627 $561 $663 $669 forward $572 $-1 #
vertex $-1 $615 $670 #
straight-curve $-1 0 42.066564798656934 12.789688970417188 -1 0 0 I I #
straight-curve $-1 -70.73335978270822 18.465728876910365 9.3484105314601358 0 1 0 I I #
coedge $-1 $566 $565 $660 $671 reversed $436 $-1 #
edge $-1 $573 -9.3484105314601322 $672 12.789688970417188 $571 $673 forward 7 unknown #
edge $-1 $569 -12.789688970417188 $674 12.789688970417188 $566 $675 forward 7 unknown #
coedge $-1 $567 $659 $664 $676 reversed $557 $-1 #
vertex $-1 $615 $677 #
straight-curve $-1 0 -42.066564798656934 12.789688970417188 1 0 0 I I #
point $-1 -70.73335978270822 -42.066564798656934 12.789688970417188 #
coedge $-1 $571 $616 $611 $662 reversed $572 $-1 #
point $-1 -70.73335978270822 42.066564798656934 9.3484105314601322 #
vertex $-1 $637 $678 #
straight-curve $-1 -70.73335978270822 31.796350708984527 9.3484105314601322 -0.84804809178421925 0 -0.52991927123019833 I I #
straight-curve $-1 -70.73335978270822 31.796350708984527 64.659496054942409 0 0 -1 I I #
coedge $-1 $595 $578 $679 $680 forward $393 $-1 #
edge $-1 $580 -31.796350708984527 $681 42.066564798656934 $594 $682 forward 7 unknown #
point $-1 -65.226163173910123 31.796350708984527 12.789688970417188 #
point $-1 -70.73335978270822 31.796350708984527 12.789688970417188 #
point $-1 -65.399544487787537 33.850393526919014 6.9398394843987434 #
edge $-1 $629 13.330621832074161 $640 23.600835921746569 $593 $683 forward 7 unknown #
coedge $-1 $585 $684 $650 $685 reversed $639 $-1 #
loop $-1 $-1 $585 $589 #
vertex $-1 $685 $686 #
straight-curve $-1 -47.398728037166904 42.066564798656934 23.929507015040958 0.84804809178421925 0 0.52991927123019833 I I #
point $-1 -65.226163173910123 42.066564798656934 12.789688970417188 #
face $-1 $-1 $687 $19 $-1 $688 reversed single #
plane-surface $-1 0 42.066564798656934 0 0 -1 0 0 0 -1 forward_v I I I I #
coedge $-1 $689 $679 $651 $690 forward $590 $-1 #
coedge $-1 $691 $592 $689 $692 forward $529 $-1 #
coedge $-1 $592 $691 $684 $693 forward $529 $-1 #
coedge $-1 $694 $695 $592 $649 reversed $687 $-1 #
edge $-1 $696 -42.066564798656934 $697 42.066564798656934 $648 $698 forward 7 unknown #
coedge $-1 $699 $593 $638 $685 forward $460 $-1 #
coedge $-1 $594 $699 $645 $690 reversed $460 $-1 #
coedge $-1 $695 $694 $595 $653 reversed $687 $-1 #
edge $-1 $700 -42.066564798656934 $655 42.066564798656934 $652 $701 forward 7 unknown #
coedge $-1 $684 $596 $694 $702 forward $639 $-1 #
vertex $-1 $653 $703 #
straight-curve $-1 0 42.066564798656934 12.789688970417188 -1 0 0 I I #
loop $-1 $-1 $664 $607 #
plane-surface $-1 70.73335978270822 0 0 -1 0 0 0 0 1 forward_v I I I I #
coedge $-1 $623 $609 $610 $661 reversed $557 $-1 #
coedge $-1 $611 $610 $620 $671 forward $498 $-1 #
edge $-1 $666 -70.73335978270822 $674 70.73335978270822 $659 $704 forward 7 unknown #
edge $-1 $672 -70.73335978270822 $665 70.73335978270822 $627 $705 forward 7 unknown #
coedge $-1 $614 $612 $616 $669 reversed $657 $-1 #
coedge $-1 $612 $614 $623 $676 forward $657 $-1 #
vertex $-1 $613 $706 #
vertex $-1 $676 $707 #
straight-curve $-1 70.73335978270822 0 -12.789688970417188 0 -1 0 I I #
straight-curve $-1 70.73335978270822 0 12.789688970417188 0 1 0 I I #
edge $-1 $617 -12.789688970417188 $665 12.789688970417188 $663 $708 forward 7 unknown #
point $-1 70.73335978270822 42.066564798656934 12.789688970417188 #
edge $-1 $674 -42.066564798656934 $672 42.066564798656934 $620 $709 forward 7 unknown #
vertex $-1 $662 $710 #
straight-curve $-1 -70.73335978270822 42.066564798656934 0 0 0 -1 I I #
vertex $-1 $671 $711 #
straight-curve $-1 -70.73335978270822 -42.066564798656934 0 0 0 -1 I I #
edge $-1 $624 -12.789688970417188 $666 12.789688970417188 $664 $712 forward 7 unknown #
point $-1 70.73335978270822 -42.066564798656934 12.789688970417188 #
point $-1 -70.73335978270822 31.796350708984527 9.3484105314601322 #
coedge $-1 $645 $713 $632 $680 reversed $590 $-1 #
edge $-1 $681 -70.73335978270822 $700 70.73335978270822 $679 $714 forward 7 unknown #
vertex $-1 $633 $715 #
straight-curve $-1 -70.73335978270822 0 12.789688970417188 0 -1 0 I I #
straight-curve $-1 -70.73335978270822 18.465728876910365 9.3484105314601358 0 1 0 I I #
coedge $-1 $638 $654 $647 $693 reversed $639 $-1 #
edge $-1 $640 -9.3484105314601322 $716 12.789688970417188 $638 $717 forward 7 unknown #
point $-1 -70.73335978270822 42.066564798656934 9.3484105314601322 #
loop $-1 $-1 $695 $643 #
plane-surface $-1 70.73335978270822 0 0 -1 0 0 0 0 1 forward_v I I I I #
coedge $-1 $713 $645 $646 $692 reversed $590 $-1 #
edge $-1 $681 -12.789688970417188 $718 12.789688970417188 $651 $719 forward 7 unknown #
coedge $-1 $647 $646 $699 $720 forward $529 $-1 #
edge $-1 $697 -70.73335978270822 $718 70.73335978270822 $689 $721 forward 7 unknown #
edge $-1 $716 -70.73335978270822 $696 70.73335978270822 $684 $722 forward 7 unknown #
coedge $-1 $652 $648 $654 $702 reversed $687 $-1 #
coedge $-1 $648 $652 $713 $723 forward $687 $-1 #
vertex $-1 $649 $724 #
vertex $-1 $723 $725 #
straight-curve $-1 70.73335978270822 0 -12.789688970417188 0 -1 0 I I #
coedge $-1 $651 $650 $691 $720 reversed $460 $-1 #
vertex $-1 $653 $726 #
straight-curve $-1 70.73335978270822 0 12.789688970417188 0 1 0 I I #
edge $-1 $655 -12.789688970417188 $696 12.789688970417188 $694 $727 forward 7 unknown #
point $-1 70.73335978270822 42.066564798656934 12.789688970417188 #
straight-curve $-1 0 -42.066564798656934 -12.789688970417188 -1 0 0 I I #
straight-curve $-1 0 42.066564798656934 -12.789688970417188 1 0 0 I I #
point $-1 70.73335978270822 42.066564798656934 -12.789688970417188 #
point $-1 70.73335978270822 -42.066564798656934 -12.789688970417188 #
straight-curve $-1 70.73335978270822 42.066564798656934 0 0 0 -1 I I #
straight-curve $-1 -70.73335978270822 0 -12.789688970417188 0 1 0 I I #
point $-1 -70.73335978270822 42.066564798656934 -12.789688970417188 #
point $-1 -70.73335978270822 -42.066564798656934 -12.789688970417188 #
straight-curve $-1 70.73335978270822 -42.066564798656934 0 0 0 -1 I I #
coedge $-1 $679 $689 $695 $723 reversed $590 $-1 #
straight-curve $-1 0 -42.066564798656934 12.789688970417188 1 0 0 I I #
point $-1 -70.73335978270822 -42.066564798656934 12.789688970417188 #
vertex $-1 $693 $728 #
straight-curve $-1 -70.73335978270822 42.066564798656934 0 0 0 -1 I I #
vertex $-1 $720 $729 #
straight-curve $-1 -70.73335978270822 -42.066564798656934 0 0 0 -1 I I #
edge $-1 $718 -42.066564798656934 $716 42.066564798656934 $699 $730 forward 7 unknown #
straight-curve $-1 0 -42.066564798656934 -12.789688970417188 -1 0 0 I I #
straight-curve $-1 0 42.066564798656934 -12.789688970417188 1 0 0 I I #
edge $-1 $700 -12.789688970417188 $697 12.789688970417188 $695 $731 forward 7 unknown #
point $-1 70.73335978270822 42.066564798656934 -12.789688970417188 #
point $-1 70.73335978270822 -42.066564798656934 -12.789688970417188 #
point $-1 70.73335978270822 -42.066564798656934 12.789688970417188 #
straight-curve $-1 70.73335978270822 42.066564798656934 0 0 0 -1 I I #
point $-1 -70.73335978270822 42.066564798656934 -12.789688970417188 #
point $-1 -70.73335978270822 -42.066564798656934 -12.789688970417188 #
straight-curve $-1 -70.73335978270822 0 -12.789688970417188 0 1 0 I I #
straight-curve $-1 70.73335978270822 -42.066564798656934 0 0 0 -1 I I #
End-of-ACIS-data 