500 0 6 0           
7 Unknown 11 ACIS 5.0 NT 24 Thu Mar 25 18:23:24 1999 
-1 9.9999999999999995e-007 1e-010 
body $-1 $6 $-1 $7 #
body $-1 $8 $-1 $9 #
body $-1 $10 $-1 $11 #
body $-1 $12 $-1 $13 #
body $-1 $14 $-1 $15 #
body $-1 $16 $-1 $17 #
lump $-1 $-1 $18 $0 #
transform $-1 1 0 0 0 1 0 0 0 1 72.833033234656824 40.804680752338008 13.45581887060878 1 rotate no_reflect no_shear #
lump $-1 $-1 $19 $1 #
transform $-1 1 0 0 0 1 0 0 0 1 72.833033234656824 40.804680752338008 13.45581887060878 1 rotate no_reflect no_shear #
lump $-1 $-1 $20 $2 #
transform $-1 1 0 0 0 1 0 0 0 1 72.833033234656824 40.804680752338008 13.45581887060878 1 rotate no_reflect no_shear #
lump $-1 $-1 $21 $3 #
transform $-1 1 0 0 0 1 0 0 0 1 72.833033234656824 40.804680752338008 13.45581887060878 1 rotate no_reflect no_shear #
lump $-1 $-1 $22 $4 #
transform $-1 1 0 0 0 1 0 0 0 1 72.833033234656824 40.804680752338008 13.45581887060878 1 rotate no_reflect no_shear #
lump $-1 $-1 $23 $5 #
transform $-1 1 0 0 0 1 0 0 0 1 72.833033234656824 40.804680752338008 13.45581887060878 1 rotate no_reflect no_shear #
shell $-1 $-1 $-1 $24 $-1 $6 #
shell $-1 $-1 $-1 $25 $-1 $8 #
shell $-1 $-1 $-1 $26 $-1 $10 #
shell $-1 $-1 $-1 $27 $-1 $12 #
shell $-1 $-1 $-1 $28 $-1 $14 #
shell $-1 $-1 $-1 $29 $-1 $16 #
face $-1 $30 $31 $18 $-1 $32 forward single #
face $-1 $33 $34 $19 $-1 $35 reversed single #
face $-1 $36 $37 $20 $-1 $38 reversed single #
face $-1 $39 $40 $21 $-1 $41 forward single #
face $-1 $42 $43 $22 $-1 $44 reversed single #
face $-1 $45 $46 $23 $-1 $47 forward single #
face $-1 $48 $49 $18 $-1 $50 reversed single #
loop $-1 $-1 $51 $24 #
plane-surface $-1 0 0 13.45581887060878 0 0 1 1 0 0 forward_v I I I I #
face $-1 $52 $53 $19 $-1 $54 reversed single #
loop $-1 $-1 $55 $25 #
plane-surface $-1 -53.896166186619851 -35.701863171875488 0 1 0 0 0 0 -1 forward_v I I I I #
face $-1 $56 $57 $20 $-1 $58 reversed single #
loop $-1 $-1 $59 $26 #
plane-surface $-1 -42.588664408886842 126.15051625186948 144.06786836878621 -1 0 0 0 0.86602541151947299 0.49999998660252726 forward_v I I I I #
face $-1 $60 $61 $21 $-1 $62 forward single #
loop $-1 $63 $64 $27 #
cone-surface $-1 -57.710848821771833 32.355224562745903 4.2786021971240169 0 -0.86602541151947299 -0.49999998660252726 3 0 0 1 I I 0 1 3 forward I I I I #
face $-1 $65 $66 $22 $-1 $67 reversed single #
loop $-1 $-1 $68 $28 #
plane-surface $-1 57.710848821771833 1.0933592164974471e-006 71.234837085686536 0 0.86602541151947299 0.49999998660252726 1 0 0 forward_v I I I I #
face $-1 $69 $70 $23 $-1 $71 forward single #
loop $-1 $72 $73 $29 #
cone-surface $-1 57.710848821771833 32.355224562745903 4.2786021971240169 0 -0.86602541151947299 -0.49999998660252726 3 0 0 1 I I 0 1 3 forward I I I I #
face $-1 $74 $75 $18 $-1 $76 reversed single #
loop $-1 $-1 $77 $30 #
plane-surface $-1 0 0 -13.45581887060878 0 0 1 1 0 0 forward_v I I I I #
coedge $-1 $78 $79 $80 $81 forward $31 $-1 #
face $-1 $82 $83 $19 $-1 $84 reversed single #
loop $-1 $-1 $85 $33 #
plane-surface $-1 -49.908780840029557 -30.59904559141297 0 0 -1 0 0 0 -1 forward_v I I I I #
coedge $-1 $86 $87 $88 $89 forward $34 $-1 #
face $-1 $90 $91 $20 $-1 $92 reversed single #
loop $-1 $-1 $93 $36 #
plane-surface $-1 -57.710848821771833 1.0933592164974471e-006 71.234837085686536 0 0.86602541151947299 0.49999998660252726 1 0 0 forward_v I I I I #
coedge $-1 $94 $95 $96 $97 reversed $37 $-1 #
face $-1 $-1 $98 $21 $-1 $99 forward single #
loop $-1 $100 $101 $39 #
cone-surface $-1 -57.710848821771833 26.329704821267207 0.79976687666082569 0 -0.86602541151947299 -0.49999998660252726 1.5 0 0 1 I I -0.70710678118654757 0.70710678118654757 1.5 forward I I I I #
loop $-1 $-1 $102 $27 #
coedge $-1 $64 $64 $103 $104 reversed $40 $-1 #
face $-1 $105 $106 $22 $-1 $107 forward single #
loop $-1 $-1 $108 $42 #
plane-surface $-1 42.588664408886842 126.15051625186948 144.06786836878621 1 0 0 0 -0.86602541151947299 -0.49999998660252726 forward_v I I I I #
coedge $-1 $109 $110 $111 $112 reversed $43 $-1 #
face $-1 $-1 $113 $23 $-1 $114 forward single #
loop $-1 $115 $116 $45 #
cone-surface $-1 57.710848821771833 26.329704821267207 0.79976687666082569 0 -0.86602541151947299 -0.49999998660252726 1.5 0 0 1 I I -0.70710678118654757 0.70710678118654757 1.5 forward I I I I #
loop $-1 $-1 $117 $29 #
coedge $-1 $73 $73 $118 $119 reversed $46 $-1 #
face $-1 $120 $121 $18 $-1 $122 reversed single #
loop $-1 $-1 $123 $48 #
plane-surface $-1 0 -40.804680752338008 0 0 1 0 0 0 1 forward_v I I I I #
coedge $-1 $124 $125 $126 $127 forward $49 $-1 #
coedge $-1 $128 $51 $129 $130 forward $31 $-1 #
coedge $-1 $51 $128 $131 $132 forward $31 $-1 #
coedge $-1 $133 $134 $51 $81 reversed $135 $-1 #
edge $-1 $136 -40.804680752338008 $137 40.804680752338008 $80 $138 forward 7 unknown #
face $-1 $139 $140 $19 $-1 $141 forward single #
loop $-1 $-1 $142 $52 #
plane-surface $-1 -45.921395493439263 -35.701863171875488 0 -1 0 0 0 0 1 forward_v I I I I #
coedge $-1 $143 $144 $145 $146 forward $53 $-1 #
coedge $-1 $147 $55 $148 $149 reversed $34 $-1 #
coedge $-1 $55 $147 $150 $151 reversed $34 $-1 #
coedge $-1 $144 $143 $55 $89 reversed $53 $-1 #
edge $-1 $152 -13.45581887060878 $153 13.45581887060878 $88 $154 forward 7 unknown #
face $-1 $155 $156 $20 $-1 $157 reversed single #
loop $-1 $-1 $96 $56 #
plane-surface $-1 0 40.804680752338008 0 0 -1 0 0 0 -1 forward_v I I I I #
coedge $-1 $158 $159 $160 $161 reversed $57 $-1 #
coedge $-1 $95 $59 $162 $163 reversed $37 $-1 #
coedge $-1 $59 $94 $158 $164 reversed $37 $-1 #
coedge $-1 $160 $165 $59 $97 forward $91 $-1 #
edge $-1 $166 58.578115313784323 $167 71.474877979635011 $96 $168 forward 7 unknown #
loop $-1 $-1 $103 $60 #
plane-surface $-1 -57.710848821771833 1.0933592164974471e-006 71.234837085686536 0 0.86602541151947299 0.49999998660252726 1 0 0 forward_v I I I I #
loop $-1 $-1 $169 $39 #
coedge $-1 $101 $101 $102 $170 reversed $61 $-1 #
coedge $-1 $102 $102 $101 $170 forward $63 $-1 #
coedge $-1 $103 $103 $64 $104 forward $98 $-1 #
edge $-1 $171 7.0826460329024354e-016 $171 6.2831853071796013 $103 $172 forward 7 unknown #
face $-1 $173 $174 $22 $-1 $175 reversed single #
loop $-1 $-1 $176 $65 #
plane-surface $-1 0 0 13.45581887060878 0 0 1 1 0 0 forward_v I I I I #
coedge $-1 $177 $178 $179 $180 reversed $66 $-1 #
coedge $-1 $181 $68 $182 $183 reversed $43 $-1 #
coedge $-1 $68 $181 $177 $184 forward $43 $-1 #
coedge $-1 $179 $185 $68 $112 forward $174 $-1 #
edge $-1 $186 -43.977608823770908 $187 -13.733239998000926 $111 $188 forward 7 unknown #
loop $-1 $-1 $118 $69 #
plane-surface $-1 57.710848821771833 1.0933592164974471e-006 71.234837085686536 0 0.86602541151947299 0.49999998660252726 1 0 0 forward_v I I I I #
loop $-1 $-1 $189 $45 #
coedge $-1 $116 $116 $117 $190 reversed $70 $-1 #
coedge $-1 $117 $117 $116 $190 forward $72 $-1 #
coedge $-1 $118 $118 $73 $119 forward $113 $-1 #
edge $-1 $191 7.0826460329024354e-016 $191 6.2831853071796013 $118 $192 forward 7 unknown #
face $-1 $193 $194 $18 $-1 $195 reversed single #
loop $-1 $-1 $196 $74 #
plane-surface $-1 -72.833033234656824 0 0 1 0 0 0 0 -1 forward_v I I I I #
coedge $-1 $197 $131 $198 $199 forward $75 $-1 #
coedge $-1 $200 $77 $197 $201 forward $49 $-1 #
coedge $-1 $77 $200 $202 $203 forward $49 $-1 #
coedge $-1 $134 $133 $77 $127 reversed $135 $-1 #
edge $-1 $204 -40.804680752338008 $205 40.804680752338008 $126 $206 forward 7 unknown #
coedge $-1 $79 $78 $207 $208 forward $31 $-1 #
coedge $-1 $209 $210 $78 $130 reversed $194 $-1 #
edge $-1 $137 -72.833033234656824 $211 72.833033234656824 $129 $212 forward 7 unknown #
coedge $-1 $123 $213 $79 $132 reversed $75 $-1 #
edge $-1 $214 -72.833033234656824 $136 72.833033234656824 $131 $215 forward 7 unknown #
coedge $-1 $126 $80 $213 $216 forward $135 $-1 #
coedge $-1 $80 $126 $209 $217 reversed $135 $-1 #
loop $-1 $-1 $133 $193 #
vertex $-1 $81 $218 #
vertex $-1 $81 $219 #
straight-curve $-1 72.833033234656824 0 13.45581887060878 0 1 0 I I #
face $-1 $220 $221 $19 $-1 $222 reversed single #
loop $-1 $-1 $223 $82 #
plane-surface $-1 0 0 13.45581887060878 0 0 1 1 0 0 forward_v I I I I #
coedge $-1 $224 $225 $226 $227 reversed $83 $-1 #
coedge $-1 $88 $85 $228 $229 reversed $53 $-1 #
coedge $-1 $85 $88 $230 $231 reversed $53 $-1 #
coedge $-1 $225 $224 $85 $146 reversed $83 $-1 #
edge $-1 $232 -13.45581887060878 $233 13.45581887060878 $145 $234 forward 7 unknown #
coedge $-1 $87 $86 $235 $236 reversed $34 $-1 #
coedge $-1 $228 $237 $86 $149 forward $221 $-1 #
edge $-1 $238 -22.953749166400257 $153 -12.748114005475227 $148 $239 forward 7 unknown #
coedge $-1 $240 $230 $87 $151 forward $140 $-1 #
edge $-1 $152 12.748114005475227 $241 22.953749166400257 $150 $242 forward 7 unknown #
vertex $-1 $151 $243 #
vertex $-1 $149 $244 #
straight-curve $-1 -53.896166186619851 -30.59904559141297 0 0 0 -1 I I #
face $-1 $-1 $245 $20 $-1 $246 forward single #
loop $-1 $-1 $247 $90 #
plane-surface $-1 -72.833033234656824 0 0 1 0 0 0 0 -1 forward_v I I I I #
coedge $-1 $248 $93 $95 $164 forward $57 $-1 #
coedge $-1 $93 $248 $247 $249 reversed $57 $-1 #
coedge $-1 $250 $96 $93 $161 forward $91 $-1 #
edge $-1 $167 13.733239998000926 $251 43.977608823770908 $160 $252 forward 7 unknown #
coedge $-1 $253 $254 $94 $163 forward $245 $-1 #
edge $-1 $255 -29.716526504381932 $166 -22.27057737359673 $162 $256 forward 7 unknown #
edge $-1 $167 -81.609361504675974 $255 -66.717462844077957 $95 $257 forward 7 unknown #
coedge $-1 $96 $250 $253 $258 reversed $91 $-1 #
vertex $-1 $258 $259 #
vertex $-1 $97 $260 #
straight-curve $-1 -42.588664408886842 40.804680752338008 72.033934184393104 0 0 -1 I I #
coedge $-1 $169 $169 $-1 $261 reversed $100 $-1 #
edge $-1 $262 0 $262 6.2831853071796004 $101 $263 forward 7 unknown #
vertex $-1 $104 $264 #
ellipse-curve $-1 -57.710848821771833 37.081706186945411 7.0074375376834279 0 0.86602541151947299 0.49999998660252726 3 0 0 1 I I #
face $-1 $-1 $265 $22 $-1 $266 reversed single #
loop $-1 $-1 $179 $105 #
plane-surface $-1 0 40.804680752338008 0 0 -1 0 0 0 -1 forward_v I I I I #
coedge $-1 $267 $268 $178 $269 forward $106 $-1 #
coedge $-1 $178 $108 $110 $184 reversed $66 $-1 #
coedge $-1 $108 $177 $176 $269 reversed $66 $-1 #
coedge $-1 $270 $111 $108 $180 forward $174 $-1 #
edge $-1 $187 -71.474877979635011 $271 -58.578115313784323 $179 $272 forward 7 unknown #
coedge $-1 $110 $109 $267 $273 reversed $43 $-1 #
coedge $-1 $274 $275 $109 $183 forward $265 $-1 #
edge $-1 $276 35.871873566590608 $186 50.763772227188618 $182 $277 forward 7 unknown #
edge $-1 $278 66.717462844077957 $187 81.609361504675974 $177 $279 forward 7 unknown #
coedge $-1 $111 $270 $274 $280 forward $174 $-1 #
vertex $-1 $183 $281 #
vertex $-1 $112 $282 #
straight-curve $-1 28.855424410885917 40.804680752338015 0.55905620475808604 -1 0 0 I I #
coedge $-1 $189 $189 $-1 $283 reversed $115 $-1 #
edge $-1 $284 0 $284 6.2831853071796004 $116 $285 forward 7 unknown #
vertex $-1 $119 $286 #
ellipse-curve $-1 57.710848821771833 37.081706186945411 7.0074375376834279 0 0.86602541151947299 0.49999998660252726 3 0 0 1 I I #
face $-1 $-1 $135 $18 $-1 $287 reversed single #
loop $-1 $-1 $209 $120 #
plane-surface $-1 0 40.804680752338008 0 0 -1 0 0 0 -1 forward_v I I I I #
coedge $-1 $288 $207 $210 $289 forward $121 $-1 #
coedge $-1 $213 $123 $124 $201 reversed $75 $-1 #
coedge $-1 $207 $288 $123 $199 reversed $121 $-1 #
edge $-1 $214 -13.45581887060878 $290 13.45581887060878 $198 $291 forward 7 unknown #
coedge $-1 $125 $124 $288 $292 forward $49 $-1 #
edge $-1 $205 -72.833033234656824 $290 72.833033234656824 $197 $293 forward 7 unknown #
coedge $-1 $210 $209 $125 $203 reversed $194 $-1 #
edge $-1 $294 -72.833033234656824 $204 72.833033234656824 $202 $295 forward 7 unknown #
vertex $-1 $127 $296 #
vertex $-1 $216 $297 #
straight-curve $-1 72.833033234656824 0 -13.45581887060878 0 -1 0 I I #
coedge $-1 $196 $198 $128 $208 reversed $121 $-1 #
edge $-1 $211 -40.804680752338008 $214 40.804680752338008 $207 $298 forward 7 unknown #
coedge $-1 $202 $129 $134 $217 forward $194 $-1 #
coedge $-1 $129 $202 $196 $289 reversed $194 $-1 #
vertex $-1 $130 $299 #
straight-curve $-1 0 40.804680752338008 13.45581887060878 -1 0 0 I I #
coedge $-1 $131 $197 $133 $216 reversed $75 $-1 #
vertex $-1 $208 $300 #
straight-curve $-1 0 -40.804680752338008 13.45581887060878 1 0 0 I I #
edge $-1 $136 -13.45581887060878 $205 13.45581887060878 $133 $301 forward 7 unknown #
edge $-1 $137 -13.45581887060878 $204 13.45581887060878 $134 $302 forward 7 unknown #
point $-1 72.833033234656824 -40.804680752338008 13.45581887060878 #
point $-1 72.833033234656824 40.804680752338008 13.45581887060878 #
face $-1 $-1 $303 $19 $-1 $304 reversed single #
loop $-1 $-1 $305 $139 #
plane-surface $-1 0 0 -13.45581887060878 0 0 1 1 0 0 forward_v I I I I #
coedge $-1 $230 $240 $225 $306 forward $140 $-1 #
coedge $-1 $145 $142 $305 $307 reversed $83 $-1 #
coedge $-1 $142 $145 $223 $306 reversed $83 $-1 #
coedge $-1 $308 $309 $142 $227 forward $303 $-1 #
edge $-1 $310 -13.45581887060878 $311 13.45581887060878 $226 $312 forward 7 unknown #
coedge $-1 $305 $148 $143 $229 forward $221 $-1 #
edge $-1 $153 -28.941775766605073 $233 -20.967005073424485 $228 $313 forward 7 unknown #
coedge $-1 $150 $223 $144 $231 forward $140 $-1 #
edge $-1 $232 20.967005073424485 $152 28.941775766605073 $230 $314 forward 7 unknown #
vertex $-1 $231 $315 #
vertex $-1 $229 $316 #
straight-curve $-1 -45.921395493439263 -30.59904559141297 0 0 0 -1 I I #
coedge $-1 $309 $308 $147 $236 forward $303 $-1 #
edge $-1 $241 -13.45581887060878 $238 13.45581887060878 $235 $317 forward 7 unknown #
coedge $-1 $148 $305 $309 $318 forward $221 $-1 #
vertex $-1 $149 $319 #
straight-curve $-1 -53.896166186619851 -17.850931585937744 -13.45581887060878 0 1 0 I I #
coedge $-1 $223 $150 $308 $320 forward $140 $-1 #
vertex $-1 $320 $321 #
straight-curve $-1 -53.896166186619851 -17.850931585937744 13.45581887060878 0 -1 0 I I #
point $-1 -53.896166186619851 -30.59904559141297 13.45581887060878 #
point $-1 -53.896166186619851 -30.59904559141297 -13.45581887060878 #
loop $-1 $-1 $162 $155 #
plane-surface $-1 0 0 13.45581887060878 0 0 1 1 0 0 forward_v I I I I #
coedge $-1 $322 $323 $159 $249 forward $156 $-1 #
coedge $-1 $159 $158 $254 $324 reversed $57 $-1 #
edge $-1 $251 -50.763772227188625 $325 -35.871873566590608 $247 $326 forward 7 unknown #
coedge $-1 $165 $160 $323 $327 reversed $91 $-1 #
vertex $-1 $249 $328 #
straight-curve $-1 -28.855424410885917 40.804680752338015 0.55905620475808604 -1 0 0 I I #
coedge $-1 $329 $162 $165 $258 forward $245 $-1 #
coedge $-1 $162 $329 $248 $324 forward $245 $-1 #
vertex $-1 $163 $330 #
straight-curve $-1 -42.588664408886842 63.075258125934738 13.45581887060878 0 1 0 I I #
straight-curve $-1 -42.588664408886842 1.0933592164974471e-006 71.234837085686536 0 -0.49999998660252726 0.86602541151947299 I I #
edge $-1 $166 42.588664408886842 $331 72.833033234656824 $165 $332 forward 7 unknown #
point $-1 -42.588664408886842 40.804680752338008 13.45581887060878 #
point $-1 -42.588664408886842 40.804680752338008 0.55905620475809314 #
edge $-1 $333 1 $333 0 $169 $-1 forward 7 unknown #
vertex $-1 $170 $334 #
ellipse-curve $-1 -57.710848821771833 27.628742938546416 1.5497668565646165 0 0.86602541151947299 0.49999998660252726 3 0 0 1 I I #
point $-1 -54.710848821771833 37.081706186945397 7.0074375376834173 #
loop $-1 $-1 $182 $173 #
plane-surface $-1 72.833033234656824 0 0 -1 0 0 0 0 1 forward_v I I I I #
coedge $-1 $335 $176 $181 $273 forward $106 $-1 #
coedge $-1 $176 $335 $270 $336 forward $106 $-1 #
edge $-1 $271 22.27057737359673 $278 29.716526504381932 $176 $337 forward 7 unknown #
coedge $-1 $185 $179 $268 $336 reversed $174 $-1 #
vertex $-1 $269 $338 #
straight-curve $-1 42.588664408886842 40.804680752338008 72.033934184393104 0 0 1 I I #
edge $-1 $278 13.733239998000926 $276 43.977608823770908 $267 $339 forward 7 unknown #
coedge $-1 $275 $182 $185 $280 reversed $265 $-1 #
coedge $-1 $182 $274 $335 $340 reversed $265 $-1 #
vertex $-1 $340 $341 #
straight-curve $-1 72.833033234656824 15.422795318849952 44.52177293808991 0 0.49999998660252726 -0.86602541151947299 I I #
vertex $-1 $273 $342 #
straight-curve $-1 42.588664408886842 1.0933592164974471e-006 71.234837085686536 0 0.49999998660252726 -0.86602541151947299 I I #
edge $-1 $343 -13.45581887060878 $186 -0.55905620475809314 $274 $344 forward 7 unknown #
point $-1 72.833033234656824 40.804680752338008 0.55905620475809314 #
point $-1 42.588664408886842 40.804680752338008 0.55905620475809314 #
edge $-1 $345 1 $345 0 $189 $-1 forward 7 unknown #
vertex $-1 $190 $346 #
ellipse-curve $-1 57.710848821771833 27.628742938546416 1.5497668565646165 0 0.86602541151947299 0.49999998660252726 3 0 0 1 I I #
point $-1 60.710848821771833 37.081706186945397 7.0074375376834173 #
plane-surface $-1 72.833033234656824 0 0 -1 0 0 0 0 1 forward_v I I I I #
coedge $-1 $198 $196 $200 $292 reversed $121 $-1 #
edge $-1 $211 -13.45581887060878 $294 13.45581887060878 $210 $347 forward 7 unknown #
vertex $-1 $292 $348 #
straight-curve $-1 -72.833033234656824 -40.804680752338008 0 0 0 -1 I I #
edge $-1 $290 -40.804680752338008 $294 40.804680752338008 $288 $349 forward 7 unknown #
straight-curve $-1 0 -40.804680752338008 -13.45581887060878 -1 0 0 I I #
vertex $-1 $203 $350 #
straight-curve $-1 0 40.804680752338008 -13.45581887060878 1 0 0 I I #
point $-1 72.833033234656824 40.804680752338008 -13.45581887060878 #
point $-1 72.833033234656824 -40.804680752338008 -13.45581887060878 #
straight-curve $-1 -72.833033234656824 0 13.45581887060878 0 -1 0 I I #
point $-1 -72.833033234656824 40.804680752338008 13.45581887060878 #
point $-1 -72.833033234656824 -40.804680752338008 13.45581887060878 #
straight-curve $-1 72.833033234656824 -40.804680752338008 0 0 0 -1 I I #
straight-curve $-1 72.833033234656824 40.804680752338008 0 0 0 -1 I I #
loop $-1 $-1 $226 $220 #
plane-surface $-1 0 -40.804680752338008 0 0 1 0 0 0 1 forward_v I I I I #
coedge $-1 $237 $228 $224 $307 forward $221 $-1 #
edge $-1 $311 -22.953749166400257 $232 -12.748114005475227 $223 $351 forward 7 unknown #
edge $-1 $233 12.748114005475227 $310 22.953749166400257 $305 $352 forward 7 unknown #
coedge $-1 $235 $226 $240 $320 reversed $303 $-1 #
coedge $-1 $226 $235 $237 $318 reversed $303 $-1 #
vertex $-1 $318 $353 #
vertex $-1 $227 $354 #
straight-curve $-1 -45.921395493439263 -40.804680752338008 0 0 0 1 I I #
straight-curve $-1 -24.954390420014779 -30.59904559141297 -13.45581887060878 1 0 0 I I #
straight-curve $-1 -24.954390420014779 -30.59904559141297 13.45581887060878 -1 0 0 I I #
point $-1 -45.921395493439263 -30.59904559141297 13.45581887060878 #
point $-1 -45.921395493439263 -30.59904559141297 -13.45581887060878 #
straight-curve $-1 -53.896166186619851 -40.804680752338008 0 0 0 -1 I I #
edge $-1 $310 45.921395493439263 $238 53.896166186619851 $309 $355 forward 7 unknown #
point $-1 -53.896166186619851 -40.804680752338001 -13.45581887060878 #
edge $-1 $241 -53.896166186619851 $311 -45.921395493439263 $308 $356 forward 7 unknown #
point $-1 -53.896166186619851 -40.804680752338001 13.45581887060878 #
coedge $-1 $323 $247 $329 $357 reversed $156 $-1 #
coedge $-1 $247 $322 $250 $327 forward $156 $-1 #
edge $-1 $325 -43.977608823770908 $255 -13.733239998000926 $254 $358 forward 7 unknown #
vertex $-1 $249 $359 #
straight-curve $-1 -72.833033234656824 15.422795318849952 44.52177293808991 0 -0.49999998660252726 0.86602541151947299 I I #
edge $-1 $331 -13.45581887060878 $251 -0.55905620475808437 $250 $360 forward 7 unknown #
point $-1 -72.833033234656824 40.804680752338008 0.55905620475808437 #
coedge $-1 $254 $253 $322 $357 forward $245 $-1 #
point $-1 -42.588664408886842 33.358731621552806 13.455818870608773 #
vertex $-1 $258 $361 #
straight-curve $-1 0 40.804680752338008 13.45581887060878 -1 0 0 I I #
vertex $-1 $261 $362 #
point $-1 -54.710848821771833 27.628742938546416 1.5497668565646165 #
coedge $-1 $268 $267 $275 $340 forward $106 $-1 #
edge $-1 $343 -72.833033234656824 $271 -42.588664408886842 $270 $363 forward 7 unknown #
straight-curve $-1 42.588664408886842 63.075258125934738 13.45581887060878 0 -1 0 I I #
point $-1 42.588664408886842 40.804680752338008 13.45581887060878 #
straight-curve $-1 28.855424410885917 33.358731621552799 13.45581887060878 1 0 0 I I #
edge $-1 $276 33.358731621552806 $343 40.804680752338008 $275 $364 forward 7 unknown #
point $-1 72.833033234656824 33.358731621552806 13.455818870608773 #
point $-1 42.588664408886842 33.358731621552806 13.455818870608773 #
vertex $-1 $340 $365 #
straight-curve $-1 72.833033234656824 40.804680752338008 0 0 0 -1 I I #
vertex $-1 $283 $366 #
point $-1 60.710848821771833 27.628742938546416 1.5497668565646165 #
straight-curve $-1 -72.833033234656824 40.804680752338008 0 0 0 -1 I I #
point $-1 -72.833033234656824 -40.804680752338008 -13.45581887060878 #
straight-curve $-1 -72.833033234656824 0 -13.45581887060878 0 1 0 I I #
point $-1 -72.833033234656824 40.804680752338008 -13.45581887060878 #
straight-curve $-1 -45.921395493439263 -17.850931585937744 13.45581887060878 0 1 0 I I #
straight-curve $-1 -45.921395493439263 -17.850931585937744 -13.45581887060878 0 -1 0 I I #
point $-1 -45.921395493439263 -40.804680752338001 -13.45581887060878 #
point $-1 -45.921395493439263 -40.804680752338001 13.45581887060878 #
straight-curve $-1 0 -40.804680752338008 -13.45581887060878 -1 0 0 I I #
straight-curve $-1 0 -40.804680752338008 13.45581887060878 1 0 0 I I #
edge $-1 $331 -40.804680752338008 $325 -33.358731621552806 $322 $367 forward 7 unknown #
straight-curve $-1 -28.855424410885917 33.358731621552799 13.45581887060878 1 0 0 I I #
point $-1 -72.833033234656824 33.358731621552806 13.455818870608773 #
straight-curve $-1 -72.833033234656824 40.804680752338008 0 0 0 -1 I I #
point $-1 -72.833033234656824 40.804680752338008 13.45581887060878 #
point $-1 -57.710848821771833 25.030666703987997 0.049766896757034829 #
straight-curve $-1 0 40.804680752338008 13.45581887060878 -1 0 0 I I #
straight-curve $-1 72.833033234656824 0 13.45581887060878 0 1 0 I I #
point $-1 72.833033234656824 40.804680752338008 13.45581887060878 #
point $-1 57.710848821771833 25.030666703987997 0.049766896757034829 #
straight-curve $-1 -72.833033234656824 0 13.45581887060878 0 -1 0 I I #
End-of-ACIS-data 