500 0 14 0           
7 Unknown 11 ACIS 5.0 NT 24 Thu Mar 25 22:34:06 1999 
-1 9.9999999999999995e-007 1e-010 
body $-1 $14 $-1 $15 #
body $-1 $16 $-1 $17 #
body $-1 $18 $-1 $19 #
body $-1 $20 $-1 $21 #
body $-1 $22 $-1 $23 #
body $-1 $24 $-1 $25 #
body $-1 $26 $-1 $27 #
body $-1 $28 $-1 $29 #
body $-1 $30 $-1 $31 #
body $-1 $32 $-1 $33 #
body $-1 $34 $-1 $35 #
body $-1 $36 $-1 $37 #
body $-1 $38 $-1 $39 #
body $-1 $40 $-1 $41 #
lump $-1 $-1 $42 $0 #
transform $-1 1 0 0 0 1 0 0 0 1 64.363536484878082 42.001985665532381 16.049509015852266 1 rotate no_reflect no_shear #
lump $-1 $-1 $43 $1 #
transform $-1 1 0 0 0 1 0 0 0 1 64.363536484878082 42.001985665532381 16.049509015852266 1 rotate no_reflect no_shear #
lump $-1 $-1 $44 $2 #
transform $-1 1 0 0 0 1 0 0 0 1 64.363536484878082 42.001985665532381 16.049509015852266 1 rotate no_reflect no_shear #
lump $-1 $-1 $45 $3 #
transform $-1 1 0 0 0 1 0 0 0 1 64.363536484878082 42.001985665532381 16.049509015852266 1 rotate no_reflect no_shear #
lump $-1 $-1 $46 $4 #
transform $-1 1 0 0 0 1 0 0 0 1 64.363536484878082 42.001985665532381 16.049509015852266 1 rotate no_reflect no_shear #
lump $-1 $-1 $47 $5 #
transform $-1 1 0 0 0 1 0 0 0 1 64.363536484878082 42.001985665532381 16.049509015852266 1 rotate no_reflect no_shear #
lump $-1 $-1 $48 $6 #
transform $-1 1 0 0 0 1 0 0 0 1 64.363536484878082 42.001985665532381 16.049509015852266 1 rotate no_reflect no_shear #
lump $-1 $-1 $49 $7 #
transform $-1 1 0 0 0 1 0 0 0 1 64.363536484878082 42.001985665532381 16.049509015852266 1 rotate no_reflect no_shear #
lump $-1 $-1 $50 $8 #
transform $-1 1 0 0 0 1 0 0 0 1 64.363536484878082 42.001985665532381 16.049509015852266 1 rotate no_reflect no_shear #
lump $-1 $-1 $51 $9 #
transform $-1 1 0 0 0 1 0 0 0 1 64.363536484878082 42.001985665532381 16.049509015852266 1 rotate no_reflect no_shear #
lump $-1 $-1 $52 $10 #
transform $-1 1 0 0 0 1 0 0 0 1 64.363536484878082 42.001985665532381 16.049509015852266 1 rotate no_reflect no_shear #
lump $-1 $-1 $53 $11 #
transform $-1 1 0 0 0 1 0 0 0 1 64.363536484878082 42.001985665532381 16.049509015852266 1 rotate no_reflect no_shear #
lump $-1 $-1 $54 $12 #
transform $-1 1 0 0 0 1 0 0 0 1 64.363536484878082 42.001985665532381 16.049509015852266 1 rotate no_reflect no_shear #
lump $-1 $-1 $55 $13 #
transform $-1 1 0 0 0 1 0 0 0 1 64.363536484878082 42.001985665532381 16.049509015852266 1 rotate no_reflect no_shear #
shell $-1 $-1 $-1 $56 $-1 $14 #
shell $-1 $-1 $-1 $57 $-1 $16 #
shell $-1 $-1 $-1 $58 $-1 $18 #
shell $-1 $-1 $-1 $59 $-1 $20 #
shell $-1 $-1 $-1 $60 $-1 $22 #
shell $-1 $-1 $-1 $61 $-1 $24 #
shell $-1 $-1 $-1 $62 $-1 $26 #
shell $-1 $-1 $-1 $63 $-1 $28 #
shell $-1 $-1 $-1 $64 $-1 $30 #
shell $-1 $-1 $-1 $65 $-1 $32 #
shell $-1 $-1 $-1 $66 $-1 $34 #
shell $-1 $-1 $-1 $67 $-1 $36 #
shell $-1 $-1 $-1 $68 $-1 $38 #
shell $-1 $-1 $-1 $69 $-1 $40 #
face $-1 $70 $71 $42 $-1 $72 forward single #
face $-1 $73 $74 $43 $-1 $75 reversed single #
face $-1 $76 $77 $44 $-1 $78 reversed single #
face $-1 $79 $80 $45 $-1 $81 forward single #
face $-1 $82 $83 $46 $-1 $84 forward single #
face $-1 $85 $86 $47 $-1 $87 reversed single #
face $-1 $88 $89 $48 $-1 $90 forward single #
face $-1 $91 $92 $49 $-1 $93 forward single #
face $-1 $94 $95 $50 $-1 $96 reversed single #
face $-1 $97 $98 $51 $-1 $99 forward single #
face $-1 $100 $101 $52 $-1 $102 forward single #
face $-1 $103 $104 $53 $-1 $105 reversed single #
face $-1 $106 $107 $54 $-1 $108 forward single #
face $-1 $109 $110 $55 $-1 $111 forward single #
face $-1 $112 $113 $42 $-1 $114 reversed single #
loop $-1 $-1 $115 $56 #
plane-surface $-1 0 0 16.049509015852266 0 0 1 1 0 0 forward_v I I I I #
face $-1 $116 $117 $43 $-1 $118 reversed single #
loop $-1 $-1 $119 $57 #
plane-surface $-1 -53.827594889996085 -17.80580915630992 0 0 1 0 0 0 1 forward_v I I I I #
face $-1 $120 $121 $44 $-1 $122 reversed single #
loop $-1 $-1 $123 $58 #
plane-surface $-1 -27.264280342318685 -153.48290200786272 67.925098502097455 -1 0 0 0 -0.86602541151947299 0.49999998660252726 forward_v I I I I #
face $-1 $124 $125 $45 $-1 $126 forward single #
loop $-1 $127 $128 $59 #
cone-surface $-1 -38.712403880029683 -36.694656359206725 8.8226725482510933 0 0.86602541151947299 -0.49999998660252726 2 0 0 1 I I 0 1 2 forward I I I I #
face $-1 $129 $130 $46 $-1 $131 forward single #
loop $-1 $132 $133 $60 #
cone-surface $-1 -31.84352975740309 -36.694656359206725 8.8226725482510933 0 0.86602541151947299 -0.49999998660252726 2 0 0 1 I I 0 1 2 forward I I I I #
face $-1 $134 $135 $47 $-1 $136 reversed single #
loop $-1 $-1 $137 $61 #
plane-surface $-1 -0.35048289732064042 -153.48290200786272 67.925098502097455 -1 0 0 0 -0.86602541151947299 0.49999998660252726 forward_v I I I I #
face $-1 $138 $139 $48 $-1 $140 forward single #
loop $-1 $141 $142 $62 #
cone-surface $-1 -11.798606435031644 -36.694656359206725 8.8226725482510933 0 0.86602541151947299 -0.49999998660252726 2 0 0 1 I I 0 1 2 forward I I I I #
face $-1 $143 $144 $49 $-1 $145 forward single #
loop $-1 $146 $147 $63 #
cone-surface $-1 -4.9297323124050507 -36.694656359206725 8.8226725482510933 0 0.86602541151947299 -0.49999998660252726 2 0 0 1 I I 0 1 2 forward I I I I #
face $-1 $148 $149 $50 $-1 $150 reversed single #
loop $-1 $-1 $151 $64 #
plane-surface $-1 26.5633145476774 -153.48290200786272 67.925098502097455 -1 0 0 0 -0.86602541151947299 0.49999998660252726 forward_v I I I I #
face $-1 $152 $153 $51 $-1 $154 forward single #
loop $-1 $155 $156 $65 #
cone-surface $-1 15.115191009966395 -36.694656359206725 8.8226725482510933 0 0.86602541151947299 -0.49999998660252726 2 0 0 1 I I 0 1 2 forward I I I I #
face $-1 $157 $158 $52 $-1 $159 forward single #
loop $-1 $160 $161 $66 #
cone-surface $-1 21.984065132592988 -36.694656359206725 8.8226725482510933 0 0.86602541151947299 -0.49999998660252726 2 0 0 1 I I 0 1 2 forward I I I I #
face $-1 $162 $163 $53 $-1 $164 reversed single #
loop $-1 $-1 $165 $67 #
plane-surface $-1 53.477111992675439 -153.48290200786272 67.925098502097455 -1 0 0 0 -0.86602541151947299 0.49999998660252726 forward_v I I I I #
face $-1 $166 $167 $54 $-1 $168 forward single #
loop $-1 $169 $170 $68 #
cone-surface $-1 42.028988454964434 -36.694656359206725 8.8226725482510933 0 0.86602541151947299 -0.49999998660252726 2 0 0 1 I I 0 1 2 forward I I I I #
face $-1 $171 $172 $55 $-1 $173 forward single #
loop $-1 $174 $175 $69 #
cone-surface $-1 48.897862577591027 -36.694656359206725 8.8226725482510933 0 0.86602541151947299 -0.49999998660252726 2 0 0 1 I I 0 1 2 forward I I I I #
face $-1 $176 $177 $42 $-1 $178 reversed single #
loop $-1 $-1 $179 $70 #
plane-surface $-1 0 0 -16.049509015852266 0 0 1 1 0 0 forward_v I I I I #
coedge $-1 $180 $181 $182 $183 forward $71 $-1 #
face $-1 $184 $185 $43 $-1 $186 reversed single #
loop $-1 $-1 $187 $73 #
plane-surface $-1 -53.827594889996085 -9.9029676338278492 0 0 -1 0 0 0 -1 forward_v I I I I #
coedge $-1 $188 $189 $190 $191 reversed $74 $-1 #
face $-1 $192 $193 $44 $-1 $194 reversed single #
loop $-1 $-1 $195 $76 #
plane-surface $-1 -35.277966818716386 -42.001985665532416 3.5615637418368209 0 -0.86602541151947299 0.49999998660252726 1 0 0 forward_v I I I I #
coedge $-1 $196 $197 $198 $199 reversed $77 $-1 #
face $-1 $-1 $200 $45 $-1 $201 forward single #
loop $-1 $202 $203 $79 #
cone-surface $-1 -38.712403880029683 -34.126260795357751 7.3398087310551219 0 0.86602541151947299 -0.49999998660252726 1 0 0 1 I I -0.70710678118654746 0.70710678118654746 1 forward I I I I #
loop $-1 $-1 $204 $59 #
coedge $-1 $128 $128 $205 $206 reversed $80 $-1 #
face $-1 $-1 $207 $46 $-1 $208 forward single #
loop $-1 $209 $210 $82 #
cone-surface $-1 -31.84352975740309 -34.126260795357751 7.3398087310551219 0 0.86602541151947299 -0.49999998660252726 1 0 0 1 I I -0.70710678118654746 0.70710678118654746 1 forward I I I I #
loop $-1 $-1 $211 $60 #
coedge $-1 $133 $133 $212 $213 reversed $83 $-1 #
face $-1 $214 $215 $47 $-1 $216 reversed single #
loop $-1 $-1 $217 $85 #
plane-surface $-1 -8.3641693737183402 -42.001985665532416 3.5615637418368209 0 -0.86602541151947299 0.49999998660252726 1 0 0 forward_v I I I I #
coedge $-1 $218 $219 $220 $221 reversed $86 $-1 #
face $-1 $-1 $222 $48 $-1 $223 forward single #
loop $-1 $224 $225 $88 #
cone-surface $-1 -11.798606435031644 -34.126260795357751 7.3398087310551219 0 0.86602541151947299 -0.49999998660252726 1 0 0 1 I I -0.70710678118654746 0.70710678118654746 1 forward I I I I #
loop $-1 $-1 $226 $62 #
coedge $-1 $142 $142 $227 $228 reversed $89 $-1 #
face $-1 $-1 $229 $49 $-1 $230 forward single #
loop $-1 $231 $232 $91 #
cone-surface $-1 -4.9297323124050507 -34.126260795357751 7.3398087310551219 0 0.86602541151947299 -0.49999998660252726 1 0 0 1 I I -0.70710678118654746 0.70710678118654746 1 forward I I I I #
loop $-1 $-1 $233 $63 #
coedge $-1 $147 $147 $234 $235 reversed $92 $-1 #
face $-1 $236 $237 $50 $-1 $238 reversed single #
loop $-1 $-1 $239 $94 #
plane-surface $-1 18.549628071279699 -42.001985665532416 3.5615637418368209 0 -0.86602541151947299 0.49999998660252726 1 0 0 forward_v I I I I #
coedge $-1 $240 $241 $242 $243 reversed $95 $-1 #
face $-1 $-1 $244 $51 $-1 $245 forward single #
loop $-1 $246 $247 $97 #
cone-surface $-1 15.115191009966395 -34.126260795357751 7.3398087310551219 0 0.86602541151947299 -0.49999998660252726 1 0 0 1 I I -0.70710678118654746 0.70710678118654746 1 forward I I I I #
loop $-1 $-1 $248 $65 #
coedge $-1 $156 $156 $249 $250 reversed $98 $-1 #
face $-1 $-1 $251 $52 $-1 $252 forward single #
loop $-1 $253 $254 $100 #
cone-surface $-1 21.984065132592988 -34.126260795357751 7.3398087310551219 0 0.86602541151947299 -0.49999998660252726 1 0 0 1 I I -0.70710678118654746 0.70710678118654746 1 forward I I I I #
loop $-1 $-1 $255 $66 #
coedge $-1 $161 $161 $256 $257 reversed $101 $-1 #
face $-1 $258 $259 $53 $-1 $260 reversed single #
loop $-1 $-1 $261 $103 #
plane-surface $-1 45.463425516277738 -42.001985665532416 3.5615637418368209 0 -0.86602541151947299 0.49999998660252726 1 0 0 forward_v I I I I #
coedge $-1 $262 $263 $264 $265 reversed $104 $-1 #
face $-1 $-1 $266 $54 $-1 $267 forward single #
loop $-1 $268 $269 $106 #
cone-surface $-1 42.028988454964434 -34.126260795357751 7.3398087310551219 0 0.86602541151947299 -0.49999998660252726 1 0 0 1 I I -0.70710678118654746 0.70710678118654746 1 forward I I I I #
loop $-1 $-1 $270 $68 #
coedge $-1 $170 $170 $271 $272 reversed $107 $-1 #
face $-1 $-1 $273 $55 $-1 $274 forward single #
loop $-1 $275 $276 $109 #
cone-surface $-1 48.897862577591027 -34.126260795357751 7.3398087310551219 0 0.86602541151947299 -0.49999998660252726 1 0 0 1 I I -0.70710678118654746 0.70710678118654746 1 forward I I I I #
loop $-1 $-1 $277 $69 #
coedge $-1 $175 $175 $278 $279 reversed $110 $-1 #
face $-1 $280 $281 $42 $-1 $282 reversed single #
loop $-1 $-1 $283 $112 #
plane-surface $-1 0 -42.001985665532381 0 0 1 0 0 0 1 forward_v I I I I #
coedge $-1 $284 $285 $286 $287 forward $113 $-1 #
coedge $-1 $288 $115 $289 $290 forward $71 $-1 #
coedge $-1 $115 $288 $291 $292 forward $71 $-1 #
coedge $-1 $293 $294 $115 $183 reversed $295 $-1 #
edge $-1 $296 -42.001985665532381 $297 42.001985665532381 $182 $298 forward 7 unknown #
face $-1 $299 $300 $43 $-1 $301 reversed single #
loop $-1 $-1 $302 $116 #
plane-surface $-1 -43.291653295114088 -13.854388395068884 0 -1 0 0 0 0 1 forward_v I I I I #
coedge $-1 $303 $304 $305 $306 forward $117 $-1 #
coedge $-1 $307 $119 $308 $309 reversed $74 $-1 #
coedge $-1 $119 $307 $310 $311 reversed $74 $-1 #
coedge $-1 $312 $313 $119 $191 forward $314 $-1 #
edge $-1 $315 -16.049509015852266 $316 16.049509015852266 $190 $317 forward 7 unknown #
face $-1 $318 $319 $44 $-1 $320 reversed single #
loop $-1 $-1 $321 $120 #
plane-surface $-1 -43.291653295114088 -153.48290200786272 67.925098502097455 1 0 0 0 0.86602541151947299 -0.49999998660252726 forward_v I I I I #
coedge $-1 $322 $323 $324 $325 reversed $121 $-1 #
coedge $-1 $197 $123 $326 $327 reversed $77 $-1 #
coedge $-1 $123 $196 $322 $328 reversed $77 $-1 #
coedge $-1 $324 $329 $123 $199 forward $330 $-1 #
edge $-1 $331 34.739465338398979 $332 41.949383646391247 $198 $333 forward 7 unknown #
loop $-1 $-1 $205 $124 #
plane-surface $-1 -35.277966818716386 -42.001985665532416 3.5615637418368209 0 -0.86602541151947299 0.49999998660252726 1 0 0 forward_v I I I I #
loop $-1 $-1 $334 $79 #
coedge $-1 $203 $203 $204 $335 reversed $125 $-1 #
coedge $-1 $204 $204 $203 $335 forward $127 $-1 #
coedge $-1 $205 $205 $128 $206 forward $200 $-1 #
edge $-1 $336 4.2074806335565094e-016 $336 6.2831853071796004 $205 $337 forward 7 unknown #
loop $-1 $-1 $212 $129 #
plane-surface $-1 -35.277966818716386 -42.001985665532416 3.5615637418368209 0 -0.86602541151947299 0.49999998660252726 1 0 0 forward_v I I I I #
loop $-1 $-1 $338 $82 #
coedge $-1 $210 $210 $211 $339 reversed $130 $-1 #
coedge $-1 $211 $211 $210 $339 forward $132 $-1 #
coedge $-1 $212 $212 $133 $213 forward $207 $-1 #
edge $-1 $340 4.2074806335565094e-016 $340 6.2831853071796004 $212 $341 forward 7 unknown #
face $-1 $342 $343 $47 $-1 $344 reversed single #
loop $-1 $-1 $345 $134 #
plane-surface $-1 -16.377855850116042 -153.48290200786272 67.925098502097455 1 0 0 0 0.86602541151947299 -0.49999998660252726 forward_v I I I I #
coedge $-1 $346 $347 $348 $349 reversed $135 $-1 #
coedge $-1 $219 $137 $350 $351 reversed $86 $-1 #
coedge $-1 $137 $218 $346 $352 reversed $86 $-1 #
coedge $-1 $348 $353 $137 $221 forward $354 $-1 #
edge $-1 $355 34.739465338398979 $356 41.949383646391247 $220 $357 forward 7 unknown #
loop $-1 $-1 $227 $138 #
plane-surface $-1 -8.3641693737183402 -42.001985665532416 3.5615637418368209 0 -0.86602541151947299 0.49999998660252726 1 0 0 forward_v I I I I #
loop $-1 $-1 $358 $88 #
coedge $-1 $225 $225 $226 $359 reversed $139 $-1 #
coedge $-1 $226 $226 $225 $359 forward $141 $-1 #
coedge $-1 $227 $227 $142 $228 forward $222 $-1 #
edge $-1 $360 4.2074806335565094e-016 $360 6.2831853071796004 $227 $361 forward 7 unknown #
loop $-1 $-1 $234 $143 #
plane-surface $-1 -8.3641693737183402 -42.001985665532416 3.5615637418368209 0 -0.86602541151947299 0.49999998660252726 1 0 0 forward_v I I I I #
loop $-1 $-1 $362 $91 #
coedge $-1 $232 $232 $233 $363 reversed $144 $-1 #
coedge $-1 $233 $233 $232 $363 forward $146 $-1 #
coedge $-1 $234 $234 $147 $235 forward $229 $-1 #
edge $-1 $364 4.2074806335565094e-016 $364 6.2831853071796004 $234 $365 forward 7 unknown #
face $-1 $366 $367 $50 $-1 $368 reversed single #
loop $-1 $-1 $369 $148 #
plane-surface $-1 10.535941594881999 -153.48290200786272 67.925098502097455 1 0 0 0 0.86602541151947299 -0.49999998660252726 forward_v I I I I #
coedge $-1 $370 $371 $372 $373 reversed $149 $-1 #
coedge $-1 $241 $151 $374 $375 reversed $95 $-1 #
coedge $-1 $151 $240 $370 $376 reversed $95 $-1 #
coedge $-1 $372 $377 $151 $243 forward $378 $-1 #
edge $-1 $379 34.739465338398979 $380 41.949383646391247 $242 $381 forward 7 unknown #
loop $-1 $-1 $249 $152 #
plane-surface $-1 18.549628071279699 -42.001985665532416 3.5615637418368209 0 -0.86602541151947299 0.49999998660252726 1 0 0 forward_v I I I I #
loop $-1 $-1 $382 $97 #
coedge $-1 $247 $247 $248 $383 reversed $153 $-1 #
coedge $-1 $248 $248 $247 $383 forward $155 $-1 #
coedge $-1 $249 $249 $156 $250 forward $244 $-1 #
edge $-1 $384 4.2074806335565094e-016 $384 6.2831853071796004 $249 $385 forward 7 unknown #
loop $-1 $-1 $256 $157 #
plane-surface $-1 18.549628071279699 -42.001985665532416 3.5615637418368209 0 -0.86602541151947299 0.49999998660252726 1 0 0 forward_v I I I I #
loop $-1 $-1 $386 $100 #
coedge $-1 $254 $254 $255 $387 reversed $158 $-1 #
coedge $-1 $255 $255 $254 $387 forward $160 $-1 #
coedge $-1 $256 $256 $161 $257 forward $251 $-1 #
edge $-1 $388 4.2074806335565094e-016 $388 6.2831853071796004 $256 $389 forward 7 unknown #
face $-1 $390 $391 $53 $-1 $392 reversed single #
loop $-1 $-1 $393 $162 #
plane-surface $-1 37.449739039880036 -153.48290200786272 67.925098502097455 1 0 0 0 0.86602541151947299 -0.49999998660252726 forward_v I I I I #
coedge $-1 $394 $395 $396 $397 reversed $163 $-1 #
coedge $-1 $263 $165 $398 $399 reversed $104 $-1 #
coedge $-1 $165 $262 $394 $400 reversed $104 $-1 #
coedge $-1 $396 $401 $165 $265 forward $402 $-1 #
edge $-1 $403 34.739465338398979 $404 41.949383646391247 $264 $405 forward 7 unknown #
loop $-1 $-1 $271 $166 #
plane-surface $-1 45.463425516277738 -42.001985665532416 3.5615637418368209 0 -0.86602541151947299 0.49999998660252726 1 0 0 forward_v I I I I #
loop $-1 $-1 $406 $106 #
coedge $-1 $269 $269 $270 $407 reversed $167 $-1 #
coedge $-1 $270 $270 $269 $407 forward $169 $-1 #
coedge $-1 $271 $271 $170 $272 forward $266 $-1 #
edge $-1 $408 4.2074806335565094e-016 $408 6.2831853071796004 $271 $409 forward 7 unknown #
loop $-1 $-1 $278 $171 #
plane-surface $-1 45.463425516277738 -42.001985665532416 3.5615637418368209 0 -0.86602541151947299 0.49999998660252726 1 0 0 forward_v I I I I #
loop $-1 $-1 $410 $109 #
coedge $-1 $276 $276 $277 $411 reversed $172 $-1 #
coedge $-1 $277 $277 $276 $411 forward $174 $-1 #
coedge $-1 $278 $278 $175 $279 forward $273 $-1 #
edge $-1 $412 4.2074806335565094e-016 $412 6.2831853071796004 $278 $413 forward 7 unknown #
face $-1 $414 $415 $42 $-1 $416 reversed single #
loop $-1 $-1 $417 $176 #
plane-surface $-1 -64.363536484878082 0 0 1 0 0 0 0 -1 forward_v I I I I #
coedge $-1 $418 $291 $419 $420 forward $177 $-1 #
coedge $-1 $421 $179 $418 $422 forward $113 $-1 #
coedge $-1 $179 $421 $423 $424 forward $113 $-1 #
coedge $-1 $294 $293 $179 $287 reversed $295 $-1 #
edge $-1 $425 -42.001985665532381 $426 42.001985665532381 $286 $427 forward 7 unknown #
coedge $-1 $181 $180 $428 $429 forward $71 $-1 #
coedge $-1 $430 $431 $180 $290 reversed $415 $-1 #
edge $-1 $297 -64.363536484878082 $432 64.363536484878082 $289 $433 forward 7 unknown #
coedge $-1 $283 $434 $181 $292 reversed $177 $-1 #
edge $-1 $435 -64.363536484878082 $296 64.363536484878082 $291 $436 forward 7 unknown #
coedge $-1 $286 $182 $434 $437 forward $295 $-1 #
coedge $-1 $182 $286 $430 $438 reversed $295 $-1 #
loop $-1 $-1 $293 $414 #
vertex $-1 $183 $439 #
vertex $-1 $183 $440 #
straight-curve $-1 64.363536484878082 0 16.049509015852266 0 1 0 I I #
face $-1 $441 $442 $43 $-1 $443 forward single #
loop $-1 $-1 $444 $184 #
plane-surface $-1 0 0 -16.049509015852266 0 0 1 1 0 0 forward_v I I I I #
coedge $-1 $445 $446 $307 $447 forward $185 $-1 #
coedge $-1 $448 $187 $444 $449 reversed $117 $-1 #
coedge $-1 $187 $448 $450 $451 reversed $117 $-1 #
coedge $-1 $446 $445 $187 $306 reversed $185 $-1 #
edge $-1 $452 -16.049509015852266 $453 16.049509015852266 $305 $454 forward 7 unknown #
coedge $-1 $189 $188 $302 $447 reversed $74 $-1 #
coedge $-1 $455 $456 $188 $309 forward $300 $-1 #
edge $-1 $457 16.377855850116045 $315 37.449739039880043 $308 $458 forward 7 unknown #
coedge $-1 $459 $460 $189 $311 forward $442 $-1 #
edge $-1 $316 -37.449739039880043 $461 -16.377855850116045 $310 $462 forward 7 unknown #
coedge $-1 $463 $190 $460 $464 reversed $314 $-1 #
coedge $-1 $190 $463 $455 $465 reversed $314 $-1 #
loop $-1 $-1 $463 $441 #
vertex $-1 $465 $466 #
vertex $-1 $191 $467 #
straight-curve $-1 -64.363536484878082 -17.80580915630992 0 0 0 1 I I #
face $-1 $-1 $330 $44 $-1 $468 forward single #
loop $-1 $-1 $469 $192 #
plane-surface $-1 0 -42.001985665532381 0 0 1 0 0 0 1 forward_v I I I I #
coedge $-1 $470 $471 $472 $473 reversed $193 $-1 #
coedge $-1 $474 $195 $197 $328 forward $121 $-1 #
coedge $-1 $195 $474 $470 $475 forward $121 $-1 #
coedge $-1 $472 $198 $195 $325 forward $330 $-1 #
edge $-1 $332 9.6252969329604916 $476 25.652669885755895 $324 $477 forward 7 unknown #
coedge $-1 $478 $479 $196 $327 forward $319 $-1 #
edge $-1 $480 -30.400985509211846 $331 -17.913040235196462 $326 $481 forward 7 unknown #
edge $-1 $332 -14.419837002363352 $480 -7.1221931076963035e-014 $197 $482 forward 7 unknown #
coedge $-1 $198 $472 $478 $483 forward $330 $-1 #
loop $-1 $-1 $472 $318 #
vertex $-1 $327 $484 #
vertex $-1 $199 $485 #
straight-curve $-1 -27.264280342318685 -76.74145100393136 16.049509015852266 0 1 0 I I #
coedge $-1 $334 $334 $-1 $486 reversed $202 $-1 #
edge $-1 $487 0 $487 6.2831853071796004 $203 $488 forward 7 unknown #
vertex $-1 $206 $489 #
ellipse-curve $-1 -38.712403880029683 -38.397026511536261 9.8055363788445558 0 -0.86602541151947299 0.49999998660252726 2 0 0 1 I I #
coedge $-1 $338 $338 $-1 $490 reversed $209 $-1 #
edge $-1 $491 0 $491 6.2831853071796004 $210 $492 forward 7 unknown #
vertex $-1 $213 $493 #
ellipse-curve $-1 -31.84352975740309 -38.397026511536261 9.8055363788445558 0 -0.86602541151947299 0.49999998660252726 2 0 0 1 I I #
face $-1 $-1 $354 $47 $-1 $494 forward single #
loop $-1 $-1 $495 $214 #
plane-surface $-1 0 -42.001985665532381 0 0 1 0 0 0 1 forward_v I I I I #
coedge $-1 $496 $497 $498 $499 reversed $215 $-1 #
coedge $-1 $500 $217 $219 $352 forward $135 $-1 #
coedge $-1 $217 $500 $496 $501 forward $135 $-1 #
coedge $-1 $498 $220 $217 $349 forward $354 $-1 #
edge $-1 $356 -3.8316017895385297 $502 12.195771163256872 $348 $503 forward 7 unknown #
coedge $-1 $504 $505 $218 $351 forward $343 $-1 #
edge $-1 $506 -30.400985509211846 $355 -17.913040235196462 $350 $507 forward 7 unknown #
edge $-1 $356 -14.419837002363352 $506 -7.1221931076963035e-014 $219 $508 forward 7 unknown #
coedge $-1 $220 $498 $504 $509 forward $354 $-1 #
loop $-1 $-1 $498 $342 #
vertex $-1 $351 $510 #
vertex $-1 $221 $511 #
straight-curve $-1 -0.35048289732064042 -76.74145100393136 16.049509015852266 0 1 0 I I #
coedge $-1 $358 $358 $-1 $512 reversed $224 $-1 #
edge $-1 $513 0 $513 6.2831853071796004 $225 $514 forward 7 unknown #
vertex $-1 $228 $515 #
ellipse-curve $-1 -11.798606435031644 -38.397026511536261 9.8055363788445558 0 -0.86602541151947299 0.49999998660252726 2 0 0 1 I I #
coedge $-1 $362 $362 $-1 $516 reversed $231 $-1 #
edge $-1 $517 0 $517 6.2831853071796004 $232 $518 forward 7 unknown #
vertex $-1 $235 $519 #
ellipse-curve $-1 -4.9297323124050507 -38.397026511536261 9.8055363788445558 0 -0.86602541151947299 0.49999998660252726 2 0 0 1 I I #
face $-1 $-1 $378 $50 $-1 $520 forward single #
loop $-1 $-1 $521 $236 #
plane-surface $-1 0 -42.001985665532381 0 0 1 0 0 0 1 forward_v I I I I #
coedge $-1 $522 $523 $524 $525 reversed $237 $-1 #
coedge $-1 $526 $239 $241 $376 forward $149 $-1 #
coedge $-1 $239 $526 $522 $527 forward $149 $-1 #
coedge $-1 $524 $242 $239 $373 forward $378 $-1 #
edge $-1 $380 -17.288500512037551 $528 -1.2611275592421496 $372 $529 forward 7 unknown #
coedge $-1 $530 $531 $240 $375 forward $367 $-1 #
edge $-1 $532 -30.400985509211846 $379 -17.913040235196462 $374 $533 forward 7 unknown #
edge $-1 $380 -14.419837002363352 $532 -7.1221931076963035e-014 $241 $534 forward 7 unknown #
coedge $-1 $242 $524 $530 $535 forward $378 $-1 #
loop $-1 $-1 $524 $366 #
vertex $-1 $375 $536 #
vertex $-1 $243 $537 #
straight-curve $-1 26.5633145476774 -76.74145100393136 16.049509015852266 0 1 0 I I #
coedge $-1 $382 $382 $-1 $538 reversed $246 $-1 #
edge $-1 $539 0 $539 6.2831853071796004 $247 $540 forward 7 unknown #
vertex $-1 $250 $541 #
ellipse-curve $-1 15.115191009966395 -38.397026511536261 9.8055363788445558 0 -0.86602541151947299 0.49999998660252726 2 0 0 1 I I #
coedge $-1 $386 $386 $-1 $542 reversed $253 $-1 #
edge $-1 $543 0 $543 6.2831853071796004 $254 $544 forward 7 unknown #
vertex $-1 $257 $545 #
ellipse-curve $-1 21.984065132592988 -38.397026511536261 9.8055363788445558 0 -0.86602541151947299 0.49999998660252726 2 0 0 1 I I #
face $-1 $-1 $402 $53 $-1 $546 forward single #
loop $-1 $-1 $547 $258 #
plane-surface $-1 0 -42.001985665532381 0 0 1 0 0 0 1 forward_v I I I I #
coedge $-1 $548 $549 $550 $551 reversed $259 $-1 #
coedge $-1 $552 $261 $263 $400 forward $163 $-1 #
coedge $-1 $261 $552 $548 $553 forward $163 $-1 #
coedge $-1 $550 $264 $261 $397 forward $402 $-1 #
edge $-1 $404 -30.745399234536571 $554 -14.718026281741167 $396 $555 forward 7 unknown #
coedge $-1 $556 $557 $262 $399 forward $391 $-1 #
edge $-1 $558 -30.400985509211846 $403 -17.913040235196462 $398 $559 forward 7 unknown #
edge $-1 $404 -14.419837002363352 $558 -7.1221931076963035e-014 $263 $560 forward 7 unknown #
coedge $-1 $264 $550 $556 $561 forward $402 $-1 #
loop $-1 $-1 $550 $390 #
vertex $-1 $399 $562 #
vertex $-1 $265 $563 #
straight-curve $-1 53.477111992675439 -76.74145100393136 16.049509015852266 0 1 0 I I #
coedge $-1 $406 $406 $-1 $564 reversed $268 $-1 #
edge $-1 $565 0 $565 6.2831853071796004 $269 $566 forward 7 unknown #
vertex $-1 $272 $567 #
ellipse-curve $-1 42.028988454964434 -38.397026511536261 9.8055363788445558 0 -0.86602541151947299 0.49999998660252726 2 0 0 1 I I #
coedge $-1 $410 $410 $-1 $568 reversed $275 $-1 #
edge $-1 $569 0 $569 6.2831853071796004 $276 $570 forward 7 unknown #
vertex $-1 $279 $571 #
ellipse-curve $-1 48.897862577591027 -38.397026511536261 9.8055363788445558 0 -0.86602541151947299 0.49999998660252726 2 0 0 1 I I #
face $-1 $-1 $295 $42 $-1 $572 reversed single #
loop $-1 $-1 $430 $280 #
plane-surface $-1 0 42.001985665532381 0 0 -1 0 0 0 -1 forward_v I I I I #
coedge $-1 $573 $428 $431 $574 forward $281 $-1 #
coedge $-1 $434 $283 $284 $422 reversed $177 $-1 #
coedge $-1 $428 $573 $283 $420 reversed $281 $-1 #
edge $-1 $435 -16.049509015852266 $575 16.049509015852266 $419 $576 forward 7 unknown #
coedge $-1 $285 $284 $573 $577 forward $113 $-1 #
edge $-1 $426 -64.363536484878082 $575 64.363536484878082 $418 $578 forward 7 unknown #
coedge $-1 $431 $430 $285 $424 reversed $415 $-1 #
edge $-1 $579 -64.363536484878082 $425 64.363536484878082 $423 $580 forward 7 unknown #
vertex $-1 $287 $581 #
vertex $-1 $437 $582 #
straight-curve $-1 64.363536484878082 0 -16.049509015852266 0 -1 0 I I #
coedge $-1 $417 $419 $288 $429 reversed $281 $-1 #
edge $-1 $432 -42.001985665532381 $435 42.001985665532381 $428 $583 forward 7 unknown #
coedge $-1 $423 $289 $294 $438 forward $415 $-1 #
coedge $-1 $289 $423 $417 $574 reversed $415 $-1 #
vertex $-1 $290 $584 #
straight-curve $-1 0 42.001985665532381 16.049509015852266 -1 0 0 I I #
coedge $-1 $291 $418 $293 $437 reversed $177 $-1 #
vertex $-1 $429 $585 #
straight-curve $-1 0 -42.001985665532381 16.049509015852266 1 0 0 I I #
edge $-1 $296 -16.049509015852266 $426 16.049509015852266 $293 $586 forward 7 unknown #
edge $-1 $297 -16.049509015852266 $425 16.049509015852266 $294 $587 forward 7 unknown #
point $-1 64.363536484878082 -42.001985665532381 16.049509015852266 #
point $-1 64.363536484878082 42.001985665532381 16.049509015852266 #
face $-1 $-1 $314 $43 $-1 $588 reversed single #
loop $-1 $-1 $450 $299 #
plane-surface $-1 0 0 16.049509015852266 0 0 1 1 0 0 forward_v I I I I #
coedge $-1 $456 $455 $303 $449 forward $300 $-1 #
coedge $-1 $305 $302 $456 $589 reversed $185 $-1 #
coedge $-1 $302 $305 $459 $590 reversed $185 $-1 #
edge $-1 $461 -16.049509015852266 $457 16.049509015852266 $302 $591 forward 7 unknown #
coedge $-1 $304 $303 $463 $592 reversed $117 $-1 #
edge $-1 $593 -37.449739039880043 $453 -16.377855850116045 $444 $594 forward 7 unknown #
coedge $-1 $460 $459 $304 $451 forward $442 $-1 #
edge $-1 $452 16.377855850116045 $595 37.449739039880043 $450 $596 forward 7 unknown #
vertex $-1 $451 $597 #
vertex $-1 $449 $598 #
straight-curve $-1 -43.291653295114088 -9.9029676338278492 0 0 0 -1 I I #
coedge $-1 $444 $308 $313 $465 forward $300 $-1 #
coedge $-1 $308 $444 $445 $589 forward $300 $-1 #
vertex $-1 $309 $599 #
straight-curve $-1 -26.913797444998043 -17.80580915630992 -16.049509015852266 -1 0 0 I I #
coedge $-1 $450 $310 $446 $590 forward $442 $-1 #
coedge $-1 $310 $450 $312 $464 forward $442 $-1 #
vertex $-1 $311 $600 #
straight-curve $-1 -26.913797444998043 -17.80580915630992 16.049509015852266 1 0 0 I I #
coedge $-1 $313 $312 $448 $592 forward $314 $-1 #
edge $-1 $595 9.9029676338278492 $316 17.80580915630992 $312 $601 forward 7 unknown #
edge $-1 $315 -17.80580915630992 $593 -9.9029676338278492 $313 $602 forward 7 unknown #
point $-1 -64.363536484878082 -17.80580915630992 -16.049509015852266 #
point $-1 -64.363536484878082 -17.80580915630992 16.049509015852266 #
plane-surface $-1 0 0 16.049509015852266 0 0 1 1 0 0 forward_v I I I I #
coedge $-1 $479 $478 $471 $603 forward $319 $-1 #
coedge $-1 $471 $321 $323 $475 reversed $193 $-1 #
coedge $-1 $321 $470 $469 $603 reversed $193 $-1 #
coedge $-1 $329 $324 $321 $473 forward $330 $-1 #
edge $-1 $476 -41.949383646391247 $604 -34.739465338398979 $472 $605 forward 7 unknown #
coedge $-1 $323 $322 $479 $606 reversed $121 $-1 #
edge $-1 $607 7.1221931076963035e-014 $476 14.419837002363352 $470 $608 forward 7 unknown #
vertex $-1 $325 $609 #
straight-curve $-1 -17.638983409358193 -34.792067357540112 16.049509015852266 -1 0 0 I I #
coedge $-1 $469 $326 $329 $483 reversed $319 $-1 #
coedge $-1 $326 $469 $474 $606 forward $319 $-1 #
vertex $-1 $327 $610 #
straight-curve $-1 -27.264280342318685 -42.001985665532381 33.962549251048728 0 0 1 I I #
straight-curve $-1 -27.264280342318685 -42.001985665532416 3.5615637418368209 0 -0.49999998660252726 -0.86602541151947299 I I #
edge $-1 $604 -43.291653295114088 $331 -27.264280342318685 $478 $611 forward 7 unknown #
point $-1 -27.264280342318685 -42.001985665532381 16.049509015852266 #
point $-1 -27.264280342318685 -34.792067357540112 16.049509015852266 #
edge $-1 $612 1 $612 0 $334 $-1 forward 7 unknown #
vertex $-1 $335 $613 #
ellipse-curve $-1 -38.712403880029683 -34.992286206877225 7.8398087176576494 0 -0.86602541151947299 0.49999998660252726 2 0 0 1 I I #
point $-1 -36.712403880029683 -38.397026511536225 9.8055363788445362 #
edge $-1 $614 1 $614 0 $338 $-1 forward 7 unknown #
vertex $-1 $339 $615 #
ellipse-curve $-1 -31.84352975740309 -34.992286206877225 7.8398087176576494 0 -0.86602541151947299 0.49999998660252726 2 0 0 1 I I #
point $-1 -29.84352975740309 -38.397026511536225 9.8055363788445362 #
plane-surface $-1 0 0 16.049509015852266 0 0 1 1 0 0 forward_v I I I I #
coedge $-1 $505 $504 $497 $616 forward $343 $-1 #
coedge $-1 $497 $345 $347 $501 reversed $215 $-1 #
coedge $-1 $345 $496 $495 $616 reversed $215 $-1 #
coedge $-1 $353 $348 $345 $499 forward $354 $-1 #
edge $-1 $502 -41.949383646391247 $617 -34.739465338398979 $498 $618 forward 7 unknown #
coedge $-1 $347 $346 $505 $619 reversed $135 $-1 #
edge $-1 $620 7.1221931076963035e-014 $502 14.419837002363352 $496 $621 forward 7 unknown #
vertex $-1 $349 $622 #
straight-curve $-1 -4.1820846868591701 -34.792067357540112 16.049509015852266 -1 0 0 I I #
coedge $-1 $495 $350 $353 $509 reversed $343 $-1 #
coedge $-1 $350 $495 $500 $619 forward $343 $-1 #
vertex $-1 $351 $623 #
straight-curve $-1 -0.35048289732064042 -42.001985665532381 33.962549251048728 0 0 1 I I #
straight-curve $-1 -0.35048289732064042 -42.001985665532416 3.5615637418368209 0 -0.49999998660252726 -0.86602541151947299 I I #
edge $-1 $617 -16.377855850116042 $355 -0.35048289732064042 $504 $624 forward 7 unknown #
point $-1 -0.35048289732064042 -42.001985665532381 16.049509015852266 #
point $-1 -0.35048289732064042 -34.792067357540112 16.049509015852266 #
edge $-1 $625 1 $625 0 $358 $-1 forward 7 unknown #
vertex $-1 $359 $626 #
ellipse-curve $-1 -11.798606435031644 -34.992286206877225 7.8398087176576494 0 -0.86602541151947299 0.49999998660252726 2 0 0 1 I I #
point $-1 -9.798606435031644 -38.397026511536225 9.8055363788445362 #
edge $-1 $627 1 $627 0 $362 $-1 forward 7 unknown #
vertex $-1 $363 $628 #
ellipse-curve $-1 -4.9297323124050507 -34.992286206877225 7.8398087176576494 0 -0.86602541151947299 0.49999998660252726 2 0 0 1 I I #
point $-1 -2.9297323124050507 -38.397026511536225 9.8055363788445362 #
plane-surface $-1 0 0 16.049509015852266 0 0 1 1 0 0 forward_v I I I I #
coedge $-1 $531 $530 $523 $629 forward $367 $-1 #
coedge $-1 $523 $369 $371 $527 reversed $237 $-1 #
coedge $-1 $369 $522 $521 $629 reversed $237 $-1 #
coedge $-1 $377 $372 $369 $525 forward $378 $-1 #
edge $-1 $528 -41.949383646391247 $630 -34.739465338398979 $524 $631 forward 7 unknown #
coedge $-1 $371 $370 $531 $632 reversed $149 $-1 #
edge $-1 $633 7.1221931076963035e-014 $528 14.419837002363352 $522 $634 forward 7 unknown #
vertex $-1 $373 $635 #
straight-curve $-1 9.2748140356398494 -34.792067357540112 16.049509015852266 -1 0 0 I I #
coedge $-1 $521 $374 $377 $535 reversed $367 $-1 #
coedge $-1 $374 $521 $526 $632 forward $367 $-1 #
vertex $-1 $375 $636 #
straight-curve $-1 26.5633145476774 -42.001985665532381 33.962549251048728 0 0 1 I I #
straight-curve $-1 26.5633145476774 -42.001985665532416 3.5615637418368209 0 -0.49999998660252726 -0.86602541151947299 I I #
edge $-1 $630 10.535941594881999 $379 26.5633145476774 $530 $637 forward 7 unknown #
point $-1 26.5633145476774 -42.001985665532381 16.049509015852266 #
point $-1 26.5633145476774 -34.792067357540112 16.049509015852266 #
edge $-1 $638 1 $638 0 $382 $-1 forward 7 unknown #
vertex $-1 $383 $639 #
ellipse-curve $-1 15.115191009966395 -34.992286206877225 7.8398087176576494 0 -0.86602541151947299 0.49999998660252726 2 0 0 1 I I #
point $-1 17.115191009966395 -38.397026511536225 9.8055363788445362 #
edge $-1 $640 1 $640 0 $386 $-1 forward 7 unknown #
vertex $-1 $387 $641 #
ellipse-curve $-1 21.984065132592988 -34.992286206877225 7.8398087176576494 0 -0.86602541151947299 0.49999998660252726 2 0 0 1 I I #
point $-1 23.984065132592988 -38.397026511536225 9.8055363788445362 #
plane-surface $-1 0 0 16.049509015852266 0 0 1 1 0 0 forward_v I I I I #
coedge $-1 $557 $556 $549 $642 forward $391 $-1 #
coedge $-1 $549 $393 $395 $553 reversed $259 $-1 #
coedge $-1 $393 $548 $547 $642 reversed $259 $-1 #
coedge $-1 $401 $396 $393 $551 forward $402 $-1 #
edge $-1 $554 -41.949383646391247 $643 -34.739465338398979 $550 $644 forward 7 unknown #
coedge $-1 $395 $394 $557 $645 reversed $163 $-1 #
edge $-1 $646 7.1221931076963035e-014 $554 14.419837002363352 $548 $647 forward 7 unknown #
vertex $-1 $397 $648 #
straight-curve $-1 22.731712758138869 -34.792067357540112 16.049509015852266 -1 0 0 I I #
coedge $-1 $547 $398 $401 $561 reversed $391 $-1 #
coedge $-1 $398 $547 $552 $645 forward $391 $-1 #
vertex $-1 $399 $649 #
straight-curve $-1 53.477111992675439 -42.001985665532381 33.962549251048728 0 0 1 I I #
straight-curve $-1 53.477111992675439 -42.001985665532416 3.5615637418368209 0 -0.49999998660252726 -0.86602541151947299 I I #
edge $-1 $643 37.449739039880036 $403 53.477111992675439 $556 $650 forward 7 unknown #
point $-1 53.477111992675439 -42.001985665532381 16.049509015852266 #
point $-1 53.477111992675439 -34.792067357540112 16.049509015852266 #
edge $-1 $651 1 $651 0 $406 $-1 forward 7 unknown #
vertex $-1 $407 $652 #
ellipse-curve $-1 42.028988454964434 -34.992286206877225 7.8398087176576494 0 -0.86602541151947299 0.49999998660252726 2 0 0 1 I I #
point $-1 44.028988454964434 -38.397026511536225 9.8055363788445362 #
edge $-1 $653 1 $653 0 $410 $-1 forward 7 unknown #
vertex $-1 $411 $654 #
ellipse-curve $-1 48.897862577591027 -34.992286206877225 7.8398087176576494 0 -0.86602541151947299 0.49999998660252726 2 0 0 1 I I #
point $-1 50.897862577591027 -38.397026511536225 9.8055363788445362 #
plane-surface $-1 64.363536484878082 0 0 -1 0 0 0 0 1 forward_v I I I I #
coedge $-1 $419 $417 $421 $577 reversed $281 $-1 #
edge $-1 $432 -16.049509015852266 $579 16.049509015852266 $431 $655 forward 7 unknown #
vertex $-1 $577 $656 #
straight-curve $-1 -64.363536484878082 -42.001985665532381 0 0 0 -1 I I #
edge $-1 $575 -42.001985665532381 $579 42.001985665532381 $573 $657 forward 7 unknown #
straight-curve $-1 0 -42.001985665532381 -16.049509015852266 -1 0 0 I I #
vertex $-1 $424 $658 #
straight-curve $-1 0 42.001985665532381 -16.049509015852266 1 0 0 I I #
point $-1 64.363536484878082 42.001985665532381 -16.049509015852266 #
point $-1 64.363536484878082 -42.001985665532381 -16.049509015852266 #
straight-curve $-1 -64.363536484878082 0 16.049509015852266 0 -1 0 I I #
point $-1 -64.363536484878082 42.001985665532381 16.049509015852266 #
point $-1 -64.363536484878082 -42.001985665532381 16.049509015852266 #
straight-curve $-1 64.363536484878082 -42.001985665532381 0 0 0 -1 I I #
straight-curve $-1 64.363536484878082 42.001985665532381 0 0 0 -1 I I #
plane-surface $-1 -64.363536484878082 0 0 1 0 0 0 0 -1 forward_v I I I I #
edge $-1 $453 2.975773436293407 $457 10.878614958775477 $456 $659 forward 7 unknown #
edge $-1 $461 -10.878614958775477 $452 -2.975773436293407 $459 $660 forward 7 unknown #
straight-curve $-1 -43.291653295114088 -17.80580915630992 0 0 0 -1 I I #
edge $-1 $595 -16.049509015852266 $593 16.049509015852266 $463 $661 forward 7 unknown #
vertex $-1 $592 $662 #
straight-curve $-1 -26.913797444998043 -9.9029676338278492 -16.049509015852266 1 0 0 I I #
vertex $-1 $464 $663 #
straight-curve $-1 -26.913797444998043 -9.9029676338278492 16.049509015852266 -1 0 0 I I #
point $-1 -43.291653295114088 -9.9029676338278492 16.049509015852266 #
point $-1 -43.291653295114088 -9.9029676338278492 -16.049509015852266 #
point $-1 -43.291653295114088 -17.80580915630992 -16.049509015852266 #
point $-1 -43.291653295114088 -17.80580915630992 16.049509015852266 #
straight-curve $-1 -64.363536484878082 0 16.049509015852266 0 -1 0 I I #
straight-curve $-1 -64.363536484878082 0 -16.049509015852266 0 1 0 I I #
edge $-1 $604 17.913040235196462 $607 30.400985509211846 $469 $664 forward 7 unknown #
vertex $-1 $483 $665 #
straight-curve $-1 -43.291653295114088 -76.74145100393136 16.049509015852266 0 -1 0 I I #
edge $-1 $607 -25.652669885755895 $480 -9.6252969329604916 $479 $666 forward 7 unknown #
vertex $-1 $606 $667 #
straight-curve $-1 -43.291653295114088 -42.001985665532416 3.5615637418368209 0 0.49999998660252726 0.86602541151947299 I I #
point $-1 -43.291653295114088 -34.792067357540112 16.049509015852266 #
point $-1 -27.264280342318685 -42.001985665532381 3.5615637418368826 #
straight-curve $-1 0 -42.001985665532381 16.049509015852266 1 0 0 I I #
vertex $-1 $486 $668 #
point $-1 -36.712403880029683 -34.992286206877225 7.8398087176576494 #
vertex $-1 $490 $669 #
point $-1 -29.84352975740309 -34.992286206877225 7.8398087176576494 #
edge $-1 $617 17.913040235196462 $620 30.400985509211846 $495 $670 forward 7 unknown #
vertex $-1 $509 $671 #
straight-curve $-1 -16.377855850116042 -76.74145100393136 16.049509015852266 0 -1 0 I I #
edge $-1 $620 -12.195771163256872 $506 3.8316017895385297 $505 $672 forward 7 unknown #
vertex $-1 $619 $673 #
straight-curve $-1 -16.377855850116042 -42.001985665532416 3.5615637418368209 0 0.49999998660252726 0.86602541151947299 I I #
point $-1 -16.377855850116042 -34.792067357540112 16.049509015852266 #
point $-1 -0.35048289732064042 -42.001985665532381 3.5615637418368826 #
straight-curve $-1 0 -42.001985665532381 16.049509015852266 1 0 0 I I #
vertex $-1 $512 $674 #
point $-1 -9.798606435031644 -34.992286206877225 7.8398087176576494 #
vertex $-1 $516 $675 #
point $-1 -2.9297323124050507 -34.992286206877225 7.8398087176576494 #
edge $-1 $630 17.913040235196462 $633 30.400985509211846 $521 $676 forward 7 unknown #
vertex $-1 $535 $677 #
straight-curve $-1 10.535941594881999 -76.74145100393136 16.049509015852266 0 -1 0 I I #
edge $-1 $633 1.2611275592421496 $532 17.288500512037551 $531 $678 forward 7 unknown #
vertex $-1 $632 $679 #
straight-curve $-1 10.535941594881999 -42.001985665532416 3.5615637418368209 0 0.49999998660252726 0.86602541151947299 I I #
point $-1 10.535941594881999 -34.792067357540112 16.049509015852266 #
point $-1 26.5633145476774 -42.001985665532381 3.5615637418368826 #
straight-curve $-1 0 -42.001985665532381 16.049509015852266 1 0 0 I I #
vertex $-1 $538 $680 #
point $-1 17.115191009966395 -34.992286206877225 7.8398087176576494 #
vertex $-1 $542 $681 #
point $-1 23.984065132592988 -34.992286206877225 7.8398087176576494 #
edge $-1 $643 17.913040235196462 $646 30.400985509211846 $547 $682 forward 7 unknown #
vertex $-1 $561 $683 #
straight-curve $-1 37.449739039880036 -76.74145100393136 16.049509015852266 0 -1 0 I I #
edge $-1 $646 14.718026281741167 $558 30.745399234536571 $557 $684 forward 7 unknown #
vertex $-1 $645 $685 #
straight-curve $-1 37.449739039880036 -42.001985665532416 3.5615637418368209 0 0.49999998660252726 0.86602541151947299 I I #
point $-1 37.449739039880036 -34.792067357540112 16.049509015852266 #
point $-1 53.477111992675439 -42.001985665532381 3.5615637418368826 #
straight-curve $-1 0 -42.001985665532381 16.049509015852266 1 0 0 I I #
vertex $-1 $564 $686 #
point $-1 44.028988454964434 -34.992286206877225 7.8398087176576494 #
vertex $-1 $568 $687 #
point $-1 50.897862577591027 -34.992286206877225 7.8398087176576494 #
straight-curve $-1 -64.363536484878082 42.001985665532381 0 0 0 -1 I I #
point $-1 -64.363536484878082 -42.001985665532381 -16.049509015852266 #
straight-curve $-1 -64.363536484878082 0 -16.049509015852266 0 1 0 I I #
point $-1 -64.363536484878082 42.001985665532381 -16.049509015852266 #
straight-curve $-1 -43.291653295114088 -6.9271941975344422 -16.049509015852266 0 -1 0 I I #
straight-curve $-1 -43.291653295114088 -6.9271941975344422 16.049509015852266 0 1 0 I I #
straight-curve $-1 -64.363536484878082 -9.9029676338278492 0 0 0 -1 I I #
point $-1 -64.363536484878082 -9.9029676338278492 -16.049509015852266 #
point $-1 -64.363536484878082 -9.9029676338278492 16.049509015852266 #
straight-curve $-1 -43.291653295114088 -42.001985665532381 33.962549251048728 0 0 -1 I I #
point $-1 -43.291653295114088 -42.001985665532381 16.049509015852266 #
straight-curve $-1 -17.638983409358193 -42.001985665532381 3.5615637418368848 1 0 0 I I #
point $-1 -43.291653295114088 -42.001985665532381 3.5615637418368826 #
point $-1 -38.712403880029683 -33.260235383838278 6.8398087444525943 #
point $-1 -31.84352975740309 -33.260235383838278 6.8398087444525943 #
straight-curve $-1 -16.377855850116042 -42.001985665532381 33.962549251048728 0 0 -1 I I #
point $-1 -16.377855850116042 -42.001985665532381 16.049509015852266 #
straight-curve $-1 -4.1820846868591701 -42.001985665532381 3.5615637418368848 1 0 0 I I #
point $-1 -16.377855850116042 -42.001985665532381 3.5615637418368826 #
point $-1 -11.798606435031644 -33.260235383838278 6.8398087444525943 #
point $-1 -4.9297323124050507 -33.260235383838278 6.8398087444525943 #
straight-curve $-1 10.535941594881999 -42.001985665532381 33.962549251048728 0 0 -1 I I #
point $-1 10.535941594881999 -42.001985665532381 16.049509015852266 #
straight-curve $-1 9.2748140356398494 -42.001985665532381 3.5615637418368848 1 0 0 I I #
point $-1 10.535941594881999 -42.001985665532381 3.5615637418368826 #
point $-1 15.115191009966395 -33.260235383838278 6.8398087444525943 #
point $-1 21.984065132592988 -33.260235383838278 6.8398087444525943 #
straight-curve $-1 37.449739039880036 -42.001985665532381 33.962549251048728 0 0 -1 I I #
point $-1 37.449739039880036 -42.001985665532381 16.049509015852266 #
straight-curve $-1 22.731712758138869 -42.001985665532381 3.5615637418368848 1 0 0 I I #
point $-1 37.449739039880036 -42.001985665532381 3.5615637418368826 #
point $-1 42.028988454964434 -33.260235383838278 6.8398087444525943 #
point $-1 48.897862577591027 -33.260235383838278 6.8398087444525943 #
End-of-ACIS-data 