500 0 5 0           
7 Unknown 11 ACIS 5.0 NT 24 Fri Mar 26 00:55:16 1999 
-1 9.9999999999999995e-007 1e-010 
body $-1 $5 $-1 $6 #
body $-1 $7 $-1 $8 #
body $-1 $9 $-1 $10 #
body $-1 $11 $-1 $12 #
body $-1 $13 $-1 $14 #
lump $-1 $-1 $15 $0 #
transform $-1 1 0 0 0 1 0 0 0 1 76.833399456770536 41.546827751544029 12.341437825766127 1 rotate no_reflect no_shear #
lump $-1 $-1 $16 $1 #
transform $-1 1 0 0 0 1 0 0 0 1 76.833399456770536 41.546827751544029 12.341437825766127 1 rotate no_reflect no_shear #
lump $-1 $-1 $17 $2 #
transform $-1 1 0 0 0 1 0 0 0 1 76.833399456770536 41.546827751544029 12.341437825766127 1 rotate no_reflect no_shear #
lump $-1 $-1 $18 $3 #
transform $-1 1 0 0 0 1 0 0 0 1 76.833399456770536 41.546827751544029 12.341437825766127 1 rotate no_reflect no_shear #
lump $-1 $-1 $19 $4 #
transform $-1 1 0 0 0 1 0 0 0 1 76.833399456770536 41.546827751544029 12.341437825766127 1 rotate no_reflect no_shear #
shell $-1 $-1 $-1 $20 $-1 $5 #
shell $-1 $-1 $-1 $21 $-1 $7 #
shell $-1 $-1 $-1 $22 $-1 $9 #
shell $-1 $-1 $-1 $23 $-1 $11 #
shell $-1 $-1 $-1 $24 $-1 $13 #
face $-1 $25 $26 $15 $-1 $27 forward single #
face $-1 $28 $29 $16 $-1 $30 reversed single #
face $-1 $31 $32 $17 $-1 $33 forward single #
face $-1 $34 $35 $18 $-1 $36 reversed single #
face $-1 $37 $38 $19 $-1 $39 reversed single #
face $-1 $40 $41 $15 $-1 $42 reversed single #
loop $-1 $-1 $43 $20 #
plane-surface $-1 0 0 12.341437825766127 0 0 1 1 0 0 forward_v I I I I #
face $-1 $44 $45 $16 $-1 $46 forward single #
loop $-1 $-1 $47 $21 #
plane-surface $-1 -70.89758857201187 0 -5.305906421424079 0 0 1 1 0 0 forward_v I I I I #
face $-1 $48 $49 $17 $-1 $50 forward single #
loop $-1 $-1 $51 $22 #
plane-surface $-1 -64.961777687253203 -140.32194332740676 117.77432425320816 1 0 0 0 0.64278761758704617 -0.76604443648966558 forward_v I I I I #
face $-1 $52 $53 $18 $-1 $54 reversed single #
loop $-1 $55 $56 $23 #
cone-surface $-1 -57.97454676595153 -31.679529672460031 3.1631177171159917 0 0.64278761758704617 -0.76604443648966558 2 0 0 1 I I 0 1 2 forward I I I I #
face $-1 $57 $58 $19 $-1 $59 reversed single #
loop $-1 $60 $61 $24 #
cone-surface $-1 -47.493700383999027 -31.679529672460031 3.1631177171159917 0 0.64278761758704617 -0.76604443648966558 2 0 0 1 I I 0 1 2 forward I I I I #
face $-1 $62 $63 $15 $-1 $64 reversed single #
loop $-1 $-1 $65 $25 #
plane-surface $-1 0 0 -12.341437825766127 0 0 1 1 0 0 forward_v I I I I #
coedge $-1 $66 $67 $68 $69 forward $26 $-1 #
face $-1 $70 $71 $16 $-1 $72 forward single #
loop $-1 $-1 $73 $28 #
plane-surface $-1 -70.89758857201187 0 -9.2070919041268091 0 0 1 1 0 0 forward_v I I I I #
coedge $-1 $74 $75 $76 $77 reversed $29 $-1 #
face $-1 $78 $79 $17 $-1 $80 forward single #
loop $-1 $-1 $81 $31 #
plane-surface $-1 -52.734123574975278 -41.546827751544001 0.058727872313838247 0 -0.64278761758704617 0.76604443648966558 1 0 0 forward_v I I I I #
coedge $-1 $82 $83 $84 $85 reversed $32 $-1 #
face $-1 $86 $87 $18 $-1 $88 forward single #
loop $-1 $89 $90 $34 #
cone-surface $-1 -57.97454676595153 -28.488425679402919 -0.63989185129766746 0 0.64278761758704617 -0.76604443648966558 1 0 0 1 I I -0.70710678118654746 0.70710678118654746 1 forward I I I I #
loop $-1 $-1 $91 $23 #
coedge $-1 $56 $56 $92 $93 reversed $35 $-1 #
face $-1 $94 $95 $19 $-1 $96 reversed single #
loop $-1 $97 $98 $37 #
cone-surface $-1 -47.493700383999027 -28.488425679402919 -0.63989185129766746 0 0.64278761758704617 -0.76604443648966558 1 0 0 1 I I -0.70710678118654746 0.70710678118654746 1 forward I I I I #
loop $-1 $-1 $99 $24 #
coedge $-1 $61 $61 $100 $101 reversed $38 $-1 #
face $-1 $102 $103 $15 $-1 $104 reversed single #
loop $-1 $-1 $105 $40 #
plane-surface $-1 0 -41.546827751544029 0 0 1 0 0 0 1 forward_v I I I I #
coedge $-1 $106 $107 $108 $109 forward $41 $-1 #
coedge $-1 $110 $43 $111 $112 forward $26 $-1 #
coedge $-1 $43 $110 $113 $114 forward $26 $-1 #
coedge $-1 $115 $116 $43 $69 reversed $117 $-1 #
edge $-1 $118 -41.546827751544029 $119 41.546827751544029 $68 $120 forward 7 unknown #
face $-1 $121 $122 $16 $-1 $123 reversed single #
loop $-1 $-1 $124 $44 #
plane-surface $-1 -64.961777687253203 0 -7.2564991627754445 -1 0 0 0 0 1 forward_v I I I I #
coedge $-1 $125 $126 $127 $128 reversed $45 $-1 #
coedge $-1 $129 $47 $130 $131 reversed $29 $-1 #
coedge $-1 $47 $129 $132 $133 reversed $29 $-1 #
coedge $-1 $134 $124 $47 $77 forward $71 $-1 #
edge $-1 $135 -41.546827751544029 $136 41.546827751544029 $76 $137 forward 7 unknown #
face $-1 $138 $139 $17 $-1 $140 reversed single #
loop $-1 $-1 $141 $48 #
plane-surface $-1 -40.506469462697353 -140.32194332740676 117.77432425320816 -1 0 0 0 -0.64278761758704617 0.76604443648966558 forward_v I I I I #
coedge $-1 $142 $143 $144 $145 reversed $49 $-1 #
coedge $-1 $83 $51 $143 $146 forward $32 $-1 #
coedge $-1 $51 $82 $147 $148 reversed $32 $-1 #
coedge $-1 $149 $144 $51 $85 forward $139 $-1 #
edge $-1 $150 -58.828434254290265 $151 -46.545724300837954 $84 $152 forward 7 unknown #
face $-1 $153 $154 $18 $-1 $155 forward single #
loop $-1 $-1 $156 $52 #
plane-surface $-1 -64.961777687253203 -140.32194332740676 117.77432425320816 1 0 0 0 0.64278761758704617 -0.76604443648966558 forward_v I I I I #
loop $-1 $-1 $157 $34 #
coedge $-1 $90 $90 $91 $158 forward $53 $-1 #
coedge $-1 $91 $91 $90 $158 reversed $55 $-1 #
coedge $-1 $92 $92 $56 $93 forward $154 $-1 #
edge $-1 $159 -2.6602780774099879e-016 $159 6.2831853071796004 $92 $160 forward 7 unknown #
face $-1 $161 $162 $19 $-1 $163 reversed single #
loop $-1 $164 $165 $57 #
cone-surface $-1 -57.97454676595153 -31.679529672460031 3.1631177171159917 0 0.64278761758704617 -0.76604443648966558 2 0 0 1 I I 0 1 2 forward I I I I #
loop $-1 $-1 $166 $37 #
coedge $-1 $98 $98 $99 $167 forward $58 $-1 #
coedge $-1 $99 $99 $98 $167 reversed $60 $-1 #
coedge $-1 $100 $100 $61 $101 forward $168 $-1 #
edge $-1 $169 -2.6602780774099879e-016 $169 6.2831853071796004 $100 $170 forward 7 unknown #
face $-1 $171 $172 $15 $-1 $173 reversed single #
loop $-1 $-1 $174 $62 #
plane-surface $-1 -76.833399456770536 0 0 1 0 0 0 0 -1 forward_v I I I I #
coedge $-1 $175 $113 $176 $177 forward $63 $-1 #
coedge $-1 $178 $65 $175 $179 forward $41 $-1 #
coedge $-1 $65 $178 $180 $181 forward $41 $-1 #
coedge $-1 $116 $115 $65 $109 reversed $117 $-1 #
edge $-1 $182 -41.546827751544029 $183 41.546827751544029 $108 $184 forward 7 unknown #
coedge $-1 $67 $66 $185 $186 forward $26 $-1 #
coedge $-1 $187 $188 $66 $112 reversed $172 $-1 #
edge $-1 $119 -76.833399456770536 $189 76.833399456770536 $111 $190 forward 7 unknown #
coedge $-1 $105 $191 $67 $114 reversed $63 $-1 #
edge $-1 $192 -76.833399456770536 $118 76.833399456770536 $113 $193 forward 7 unknown #
coedge $-1 $108 $68 $191 $194 forward $117 $-1 #
coedge $-1 $68 $108 $187 $195 reversed $117 $-1 #
loop $-1 $-1 $115 $171 #
vertex $-1 $69 $196 #
vertex $-1 $69 $197 #
straight-curve $-1 76.833399456770536 0 12.341437825766127 0 1 0 I I #
face $-1 $198 $199 $16 $-1 $123 reversed single #
loop $-1 $-1 $200 $70 #
plane-surface $-1 -76.833399456770536 0 0 1 0 0 0 0 -1 forward_v I I I I #
coedge $-1 $76 $127 $201 $202 reversed $71 $-1 #
coedge $-1 $203 $73 $204 $205 reversed $45 $-1 #
coedge $-1 $73 $203 $206 $207 reversed $45 $-1 #
coedge $-1 $124 $134 $73 $128 forward $71 $-1 #
edge $-1 $208 -41.546827751544029 $209 41.546827751544029 $127 $210 forward 7 unknown #
coedge $-1 $75 $74 $211 $212 reversed $29 $-1 #
coedge $-1 $201 $213 $74 $131 forward $214 $-1 #
edge $-1 $215 -41.384605170764601 $135 -29.512983401247268 $130 $216 forward 7 unknown #
coedge $-1 $217 $218 $75 $133 forward $219 $-1 #
edge $-1 $136 29.512983401247268 $220 41.384605170764601 $132 $221 forward 7 unknown #
coedge $-1 $127 $76 $218 $222 reversed $71 $-1 #
vertex $-1 $131 $223 #
vertex $-1 $133 $224 #
straight-curve $-1 -64.961777687253203 0 -5.305906421424079 0 1 0 I I #
face $-1 $225 $226 $17 $-1 $227 reversed single #
loop $-1 $-1 $228 $78 #
plane-surface $-1 0 -41.546827751544029 0 0 1 0 0 0 1 forward_v I I I I #
coedge $-1 $229 $230 $228 $231 reversed $79 $-1 #
coedge $-1 $232 $81 $230 $233 reversed $49 $-1 #
coedge $-1 $81 $232 $82 $146 reversed $49 $-1 #
coedge $-1 $84 $228 $81 $145 forward $139 $-1 #
edge $-1 $234 14.139407675209714 $150 38.594715899765561 $144 $235 forward 7 unknown #
edge $-1 $150 -3.7102120358708721e-014 $236 19.108504298138513 $82 $237 forward 7 unknown #
coedge $-1 $238 $239 $83 $148 forward $240 $-1 #
edge $-1 $151 28.614143912159349 $236 43.25210731938725 $147 $241 forward 7 unknown #
coedge $-1 $242 $84 $239 $243 reversed $139 $-1 #
vertex $-1 $145 $244 #
vertex $-1 $148 $245 #
straight-curve $-1 -64.961777687253203 -41.546827751544029 58.887162126604082 0 0 1 I I #
face $-1 $246 $247 $18 $-1 $248 forward single #
loop $-1 $249 $92 $86 #
plane-surface $-1 -52.734123574975278 -41.546827751544001 0.058727872313838247 0 -0.64278761758704617 0.76604443648966558 1 0 0 forward_v I I I I #
coedge $-1 $250 $251 $252 $253 reversed $87 $-1 #
coedge $-1 $157 $157 $-1 $254 forward $89 $-1 #
edge $-1 $255 0 $255 6.2831853071796004 $90 $256 forward 7 unknown #
vertex $-1 $93 $257 #
ellipse-curve $-1 -57.97454676595153 -34.227846047930079 6.2000828490399673 0 0.64278761758704617 -0.76604443648966558 2 0 0 1 I I #
face $-1 $258 $259 $19 $-1 $260 forward single #
loop $-1 $261 $262 $94 #
cone-surface $-1 -57.97454676595153 -28.488425679402919 -0.63989185129766746 0 0.64278761758704617 -0.76604443648966558 1 0 0 1 I I -0.70710678118654746 0.70710678118654746 1 forward I I I I #
loop $-1 $-1 $263 $57 #
coedge $-1 $165 $165 $264 $265 reversed $95 $-1 #
coedge $-1 $166 $166 $-1 $266 forward $97 $-1 #
edge $-1 $267 0 $267 6.2831853071796004 $98 $268 forward 7 unknown #
loop $-1 $269 $100 $258 #
vertex $-1 $101 $270 #
ellipse-curve $-1 -47.493700383999027 -34.227846047930079 6.2000828490399673 0 0.64278761758704617 -0.76604443648966558 2 0 0 1 I I #
face $-1 $-1 $117 $15 $-1 $271 reversed single #
loop $-1 $-1 $187 $102 #
plane-surface $-1 0 41.546827751544029 0 0 -1 0 0 0 -1 forward_v I I I I #
coedge $-1 $272 $185 $188 $273 forward $103 $-1 #
coedge $-1 $191 $105 $106 $179 reversed $63 $-1 #
coedge $-1 $185 $272 $105 $177 reversed $103 $-1 #
edge $-1 $192 -12.341437825766127 $274 12.341437825766127 $176 $275 forward 7 unknown #
coedge $-1 $107 $106 $272 $276 forward $41 $-1 #
edge $-1 $183 -76.833399456770536 $274 76.833399456770536 $175 $277 forward 7 unknown #
coedge $-1 $188 $187 $107 $181 reversed $172 $-1 #
edge $-1 $278 -76.833399456770536 $182 76.833399456770536 $180 $279 forward 7 unknown #
vertex $-1 $109 $280 #
vertex $-1 $194 $281 #
straight-curve $-1 76.833399456770536 0 -12.341437825766127 0 -1 0 I I #
coedge $-1 $174 $176 $110 $186 reversed $103 $-1 #
edge $-1 $189 -41.546827751544029 $192 41.546827751544029 $185 $282 forward 7 unknown #
coedge $-1 $180 $111 $116 $195 forward $172 $-1 #
coedge $-1 $111 $180 $174 $273 reversed $172 $-1 #
vertex $-1 $112 $283 #
straight-curve $-1 0 41.546827751544029 12.341437825766127 -1 0 0 I I #
coedge $-1 $113 $175 $115 $194 reversed $63 $-1 #
vertex $-1 $186 $284 #
straight-curve $-1 0 -41.546827751544029 12.341437825766127 1 0 0 I I #
edge $-1 $118 -12.341437825766127 $183 12.341437825766127 $115 $285 forward 7 unknown #
edge $-1 $119 -12.341437825766127 $182 12.341437825766127 $116 $286 forward 7 unknown #
point $-1 76.833399456770536 -41.546827751544029 12.341437825766127 #
point $-1 76.833399456770536 41.546827751544029 12.341437825766127 #
face $-1 $287 $214 $16 $-1 $288 reversed single #
loop $-1 $-1 $211 $121 #
coedge $-1 $289 $290 $203 $291 forward $122 $-1 #
coedge $-1 $206 $130 $124 $202 forward $214 $-1 #
edge $-1 $135 1.6776568400363567 $209 5.5788423227390869 $201 $292 forward 7 unknown #
coedge $-1 $126 $125 $200 $291 reversed $45 $-1 #
coedge $-1 $218 $293 $125 $205 forward $219 $-1 #
edge $-1 $294 -41.384605170764601 $208 -29.512983401247268 $204 $295 forward 7 unknown #
coedge $-1 $296 $201 $126 $207 forward $214 $-1 #
edge $-1 $209 29.512983401247268 $297 41.384605170764601 $206 $298 forward 7 unknown #
vertex $-1 $205 $299 #
vertex $-1 $207 $300 #
straight-curve $-1 -64.961777687253203 0 -9.2070919041268091 0 -1 0 I I #
coedge $-1 $301 $302 $129 $212 forward $199 $-1 #
edge $-1 $220 -41.546827751544029 $215 41.546827751544029 $211 $303 forward 7 unknown #
coedge $-1 $130 $304 $301 $305 forward $214 $-1 #
loop $-1 $-1 $130 $198 #
vertex $-1 $131 $306 #
straight-curve $-1 -35.448794286005935 -41.546827751544029 -5.305906421424079 1 0 0 I I #
coedge $-1 $307 $132 $302 $308 reversed $219 $-1 #
coedge $-1 $132 $204 $134 $222 forward $219 $-1 #
loop $-1 $-1 $132 $309 #
vertex $-1 $212 $310 #
straight-curve $-1 -35.448794286005935 41.546827751544029 -5.305906421424079 -1 0 0 I I #
edge $-1 $208 -5.5788423227390869 $136 -1.6776568400363567 $218 $311 forward 7 unknown #
point $-1 -64.961777687253203 -41.546827751544029 -5.305906421424079 #
point $-1 -64.961777687253203 41.546827751544029 -5.305906421424079 #
face $-1 $312 $313 $17 $-1 $314 forward single #
loop $-1 $-1 $315 $138 #
plane-surface $-1 -70.89758857201187 0 -5.305906421424079 0 0 1 1 0 0 forward_v I I I I #
coedge $-1 $144 $316 $141 $231 forward $139 $-1 #
coedge $-1 $230 $141 $317 $318 reversed $79 $-1 #
coedge $-1 $141 $229 $142 $233 forward $79 $-1 #
edge $-1 $319 46.545724300837954 $234 58.828434254290265 $228 $320 forward 7 unknown #
coedge $-1 $143 $142 $238 $321 reversed $49 $-1 #
edge $-1 $322 -19.108504298138513 $234 3.7102120358708721e-014 $230 $323 forward 7 unknown #
vertex $-1 $145 $324 #
straight-curve $-1 -26.367061787487639 -41.546827751544029 0.058727872313813628 -1 0 0 I I #
vertex $-1 $321 $325 #
straight-curve $-1 -64.961777687253203 -41.546827751544001 0.058727872313838247 0 0.76604443648966558 0.64278761758704617 I I #
coedge $-1 $317 $147 $232 $321 forward $240 $-1 #
coedge $-1 $147 $326 $149 $243 forward $240 $-1 #
loop $-1 $-1 $317 $327 #
straight-curve $-1 -64.961777687253203 -70.160971663703378 12.341437825766128 0 1 0 I I #
coedge $-1 $328 $149 $329 $330 forward $139 $-1 #
edge $-1 $331 -76.833399456770536 $151 -64.961777687253203 $149 $332 forward 7 unknown #
point $-1 -64.961777687253203 -41.546827751544029 0.058727872313814398 #
point $-1 -64.961777687253203 -41.546827751544029 12.341437825766127 #
face $-1 $333 $334 $18 $-1 $335 reversed single #
loop $-1 $-1 $336 $153 #
plane-surface $-1 -40.506469462697353 -140.32194332740676 117.77432425320816 -1 0 0 0 -0.64278761758704617 0.76604443648966558 forward_v I I I I #
loop $-1 $-1 $337 $86 #
coedge $-1 $251 $156 $338 $339 forward $87 $-1 #
coedge $-1 $156 $250 $340 $341 reversed $87 $-1 #
coedge $-1 $342 $343 $156 $253 forward $334 $-1 #
edge $-1 $344 -58.828434254290265 $345 -46.545724300837954 $252 $346 forward 7 unknown #
edge $-1 $347 1 $347 0 $157 $-1 forward 7 unknown #
vertex $-1 $158 $348 #
ellipse-curve $-1 -57.97454676595153 -29.131213296989966 0.12615258519199812 0 -0.64278761758704617 0.76604443648966558 2 0 0 1 I I #
point $-1 -55.97454676595153 -34.227846047930093 6.2000828490399851 #
face $-1 $349 $168 $19 $-1 $350 forward single #
loop $-1 $-1 $351 $161 #
plane-surface $-1 -64.961777687253203 -140.32194332740676 117.77432425320816 1 0 0 0 0.64278761758704617 -0.76604443648966558 forward_v I I I I #
loop $-1 $-1 $352 $94 #
coedge $-1 $262 $262 $263 $353 forward $162 $-1 #
coedge $-1 $263 $263 $262 $353 reversed $164 $-1 #
coedge $-1 $264 $264 $165 $265 forward $269 $-1 #
edge $-1 $354 -2.6602780774099879e-016 $354 6.2831853071796004 $264 $355 forward 7 unknown #
edge $-1 $356 1 $356 0 $166 $-1 forward 7 unknown #
vertex $-1 $167 $357 #
ellipse-curve $-1 -47.493700383999027 -29.131213296989966 0.12615258519199812 0 -0.64278761758704617 0.76604443648966558 2 0 0 1 I I #
loop $-1 $358 $264 $258 #
point $-1 -45.493700383999027 -34.227846047930093 6.2000828490399851 #
plane-surface $-1 76.833399456770536 0 0 -1 0 0 0 0 1 forward_v I I I I #
coedge $-1 $176 $174 $178 $276 reversed $103 $-1 #
edge $-1 $189 -12.341437825766127 $278 12.341437825766127 $188 $359 forward 7 unknown #
vertex $-1 $276 $360 #
straight-curve $-1 -76.833399456770536 -41.546827751544029 0 0 0 -1 I I #
edge $-1 $274 -41.546827751544029 $278 41.546827751544029 $272 $361 forward 7 unknown #
straight-curve $-1 0 -41.546827751544029 -12.341437825766127 -1 0 0 I I #
vertex $-1 $181 $362 #
straight-curve $-1 0 41.546827751544029 -12.341437825766127 1 0 0 I I #
point $-1 76.833399456770536 41.546827751544029 -12.341437825766127 #
point $-1 76.833399456770536 -41.546827751544029 -12.341437825766127 #
straight-curve $-1 -76.833399456770536 0 12.341437825766127 0 -1 0 I I #
point $-1 -76.833399456770536 41.546827751544029 12.341437825766127 #
point $-1 -76.833399456770536 -41.546827751544029 12.341437825766127 #
straight-curve $-1 76.833399456770536 -41.546827751544029 0 0 0 -1 I I #
straight-curve $-1 76.833399456770536 41.546827751544029 0 0 0 -1 I I #
face $-1 $363 $364 $16 $-1 $365 forward single #
plane-surface $-1 0 -41.546827751544029 0 0 1 0 0 0 1 forward_v I I I I #
coedge $-1 $366 $200 $293 $367 forward $122 $-1 #
coedge $-1 $200 $366 $296 $368 reversed $122 $-1 #
edge $-1 $297 -41.546827751544029 $294 41.546827751544029 $200 $369 forward 7 unknown #
straight-curve $-1 -64.961777687253203 -41.546827751544029 -3.6282495813877222 0 0 -1 I I #
coedge $-1 $204 $370 $289 $367 reversed $219 $-1 #
vertex $-1 $367 $371 #
straight-curve $-1 -35.448794286005935 41.546827751544029 -9.2070919041268091 1 0 0 I I #
coedge $-1 $372 $206 $290 $368 forward $214 $-1 #
vertex $-1 $368 $373 #
straight-curve $-1 -35.448794286005935 -41.546827751544029 -9.2070919041268091 -1 0 0 I I #
point $-1 -64.961777687253203 41.546827751544029 -9.2070919041268091 #
point $-1 -64.961777687253203 -41.546827751544029 -9.2070919041268091 #
coedge $-1 $374 $211 $213 $305 reversed $199 $-1 #
coedge $-1 $211 $374 $217 $308 forward $199 $-1 #
straight-curve $-1 -76.833399456770536 0 -5.305906421424079 0 -1 0 I I #
coedge $-1 $213 $375 $376 $377 reversed $214 $-1 #
edge $-1 $378 -12.341437825766127 $215 5.305906421424079 $301 $379 forward 7 unknown #
point $-1 -76.833399456770536 -41.546827751544029 -5.305906421424079 #
coedge $-1 $380 $217 $381 $382 reversed $219 $-1 #
edge $-1 $383 -12.341437825766127 $220 5.305906421424079 $217 $384 forward 7 unknown #
face $-1 $385 $219 $16 $-1 $386 reversed single #
point $-1 -76.833399456770536 41.546827751544029 -5.305906421424079 #
straight-curve $-1 -64.961777687253203 41.546827751544029 -3.6282495813877222 0 0 1 I I #
face $-1 $387 $388 $17 $-1 $389 forward single #
loop $-1 $-1 $390 $225 #
plane-surface $-1 -70.89758857201187 0 -9.2070919041268091 0 0 1 1 0 0 forward_v I I I I #
coedge $-1 $391 $392 $393 $394 reversed $226 $-1 #
coedge $-1 $228 $395 $396 $397 reversed $139 $-1 #
coedge $-1 $396 $238 $229 $318 forward $240 $-1 #
edge $-1 $322 -43.25210731938725 $319 -28.614143912159349 $317 $398 forward 7 unknown #
vertex $-1 $397 $399 #
straight-curve $-1 -40.506469462697353 -41.546827751544029 58.887162126604082 0 0 -1 I I #
edge $-1 $236 -38.594715899765561 $322 -14.139407675209714 $238 $400 forward 7 unknown #
vertex $-1 $321 $401 #
straight-curve $-1 -40.506469462697353 -41.546827751544001 0.058727872313838247 0 -0.76604443648966558 -0.64278761758704617 I I #
point $-1 -40.506469462697353 -41.546827751544029 0.058727872313814398 #
point $-1 -64.961777687253203 -26.908864344316129 12.341437825766127 #
coedge $-1 $239 $402 $403 $404 forward $240 $-1 #
face $-1 $405 $240 $17 $-1 $406 forward single #
coedge $-1 $407 $242 $391 $408 forward $139 $-1 #
coedge $-1 $403 $409 $242 $330 reversed $410 $-1 #
edge $-1 $331 -12.341437825766127 $411 5.305906421424079 $329 $412 forward 7 unknown #
vertex $-1 $404 $413 #
straight-curve $-1 0 -41.546827751544029 12.341437825766127 1 0 0 I I #
face $-1 $414 $415 $18 $-1 $416 reversed single #
loop $-1 $-1 $417 $246 #
plane-surface $-1 0 -41.546827751544029 0 0 1 0 0 0 1 forward_v I I I I #
coedge $-1 $418 $419 $417 $420 reversed $247 $-1 #
coedge $-1 $421 $338 $343 $422 reversed $249 $-1 #
coedge $-1 $337 $423 $250 $339 reversed $249 $-1 #
edge $-1 $344 -3.7102120358708721e-014 $424 19.108504298138513 $250 $425 forward 7 unknown #
coedge $-1 $426 $427 $251 $341 forward $428 $-1 #
edge $-1 $345 28.614143912159349 $424 43.25210731938725 $340 $429 forward 7 unknown #
coedge $-1 $430 $252 $427 $431 reversed $334 $-1 #
coedge $-1 $252 $417 $337 $422 forward $334 $-1 #
vertex $-1 $422 $432 #
vertex $-1 $341 $433 #
straight-curve $-1 -64.961777687253203 -41.546827751544029 58.887162126604082 0 0 1 I I #
vertex $-1 $254 $434 #
point $-1 -55.97454676595153 -29.131213296989966 0.12615258519199812 #
face $-1 $435 $436 $19 $-1 $437 forward single #
plane-surface $-1 -52.734123574975278 -41.546827751544001 0.058727872313838247 0 -0.64278761758704617 0.76604443648966558 1 0 0 forward_v I I I I #
coedge $-1 $438 $439 $440 $441 reversed $259 $-1 #
coedge $-1 $352 $352 $-1 $442 forward $261 $-1 #
edge $-1 $443 0 $443 6.2831853071796004 $262 $444 forward 7 unknown #
vertex $-1 $265 $445 #
ellipse-curve $-1 -57.97454676595153 -34.227846047930079 6.2000828490399673 0 0.64278761758704617 -0.76604443648966558 2 0 0 1 I I #
vertex $-1 $266 $446 #
point $-1 -45.493700383999027 -29.131213296989966 0.12615258519199812 #
loop $-1 $-1 $447 $258 #
straight-curve $-1 -76.833399456770536 41.546827751544029 0 0 0 -1 I I #
point $-1 -76.833399456770536 -41.546827751544029 -12.341437825766127 #
straight-curve $-1 -76.833399456770536 0 -12.341437825766127 0 1 0 I I #
point $-1 -76.833399456770536 41.546827751544029 -12.341437825766127 #
face $-1 $309 $448 $16 $-1 $449 reversed single #
loop $-1 $-1 $450 $287 #
plane-surface $-1 0 0 12.341437825766127 0 0 1 1 0 0 forward_v I I I I #
coedge $-1 $290 $289 $451 $452 reversed $122 $-1 #
edge $-1 $294 9.2070919041268091 $453 12.341437825766127 $293 $384 forward 7 unknown #
edge $-1 $297 9.2070919041268091 $454 12.341437825766127 $290 $379 forward 7 unknown #
straight-curve $-1 -76.833399456770536 0 -9.2070919041268091 0 1 0 I I #
coedge $-1 $293 $380 $455 $456 reversed $219 $-1 #
point $-1 -76.833399456770536 41.546827751544029 -9.2070919041268091 #
coedge $-1 $375 $296 $457 $458 reversed $214 $-1 #
point $-1 -76.833399456770536 -41.546827751544029 -9.2070919041268091 #
coedge $-1 $302 $301 $459 $460 reversed $199 $-1 #
coedge $-1 $304 $372 $461 $462 reversed $214 $-1 #
coedge $-1 $450 $459 $304 $377 forward $364 $-1 #
edge $-1 $378 -76.833399456770536 $463 76.833399456770536 $304 $464 forward 7 unknown #
vertex $-1 $460 $465 #
straight-curve $-1 -76.833399456770536 -41.546827751544029 0 0 0 -1 I I #
coedge $-1 $370 $307 $466 $467 forward $219 $-1 #
coedge $-1 $459 $450 $307 $382 forward $364 $-1 #
edge $-1 $468 -76.833399456770536 $383 76.833399456770536 $307 $469 forward 7 unknown #
vertex $-1 $382 $470 #
straight-curve $-1 -76.833399456770536 41.546827751544029 0 0 0 -1 I I #
face $-1 $-1 $471 $16 $-1 $472 reversed single #
plane-surface $-1 0 41.546827751544029 0 0 -1 0 0 0 -1 forward_v I I I I #
face $-1 $473 $474 $17 $-1 $475 reversed single #
loop $-1 $-1 $476 $312 #
plane-surface $-1 -64.961777687253203 0 -7.2564991627754445 -1 0 0 0 0 1 forward_v I I I I #
coedge $-1 $477 $478 $479 $480 reversed $313 $-1 #
coedge $-1 $481 $315 $328 $408 reversed $226 $-1 #
coedge $-1 $315 $481 $482 $483 reversed $226 $-1 #
coedge $-1 $484 $476 $315 $394 forward $388 $-1 #
edge $-1 $485 -41.546827751544029 $486 41.546827751544029 $393 $487 forward 7 unknown #
coedge $-1 $316 $488 $489 $490 reversed $139 $-1 #
coedge $-1 $491 $317 $316 $397 forward $240 $-1 #
edge $-1 $319 -40.506469462697353 $492 76.833399456770536 $316 $332 forward 7 unknown #
straight-curve $-1 -40.506469462697353 -70.160971663703378 12.341437825766128 0 -1 0 I I #
point $-1 -40.506469462697353 -41.546827751544029 12.341437825766127 #
straight-curve $-1 -26.367061787487639 -26.908864344316132 12.341437825766127 1 0 0 I I #
point $-1 -40.506469462697353 -26.908864344316129 12.341437825766127 #
coedge $-1 $326 $491 $493 $494 forward $240 $-1 #
coedge $-1 $495 $329 $326 $404 reversed $410 $-1 #
edge $-1 $496 -41.546827751544029 $331 41.546827751544029 $403 $497 forward 7 unknown #
face $-1 $498 $499 $17 $-1 $500 reversed single #
plane-surface $-1 0 0 12.341437825766127 0 0 1 1 0 0 forward_v I I I I #
coedge $-1 $501 $328 $476 $502 forward $139 $-1 #
edge $-1 $411 -41.384605170764601 $485 -29.512983401247268 $328 $503 forward 7 unknown #
coedge $-1 $329 $495 $481 $504 forward $410 $-1 #
loop $-1 $-1 $409 $473 #
vertex $-1 $408 $505 #
straight-curve $-1 -76.833399456770536 -41.546827751544029 0 0 0 -1 I I #
point $-1 -76.833399456770536 -41.546827751544029 12.341437825766127 #
face $-1 $506 $507 $18 $-1 $508 forward single #
loop $-1 $-1 $509 $333 #
plane-surface $-1 -70.89758857201187 0 -5.305906421424079 0 0 1 1 0 0 forward_v I I I I #
coedge $-1 $343 $510 $336 $420 forward $334 $-1 #
coedge $-1 $419 $336 $511 $512 reversed $247 $-1 #
coedge $-1 $336 $418 $421 $513 forward $247 $-1 #
edge $-1 $514 46.545724300837954 $515 58.828434254290265 $417 $516 forward 7 unknown #
coedge $-1 $423 $337 $419 $513 reversed $249 $-1 #
edge $-1 $515 14.139407675209714 $344 38.594715899765561 $343 $517 forward 7 unknown #
coedge $-1 $338 $421 $426 $518 reversed $249 $-1 #
vertex $-1 $518 $519 #
straight-curve $-1 -64.961777687253203 -41.546827751544001 0.058727872313838247 0 0.76604443648966558 0.64278761758704617 I I #
coedge $-1 $511 $340 $423 $518 forward $428 $-1 #
coedge $-1 $340 $520 $342 $431 forward $428 $-1 #
loop $-1 $-1 $511 $521 #
straight-curve $-1 -64.961777687253203 -70.160971663703378 12.341437825766128 0 1 0 I I #
coedge $-1 $522 $342 $523 $524 forward $334 $-1 #
edge $-1 $525 -76.833399456770536 $345 -64.961777687253203 $342 $526 forward 7 unknown #
point $-1 -64.961777687253203 -41.546827751544029 0.058727872313814398 #
point $-1 -64.961777687253203 -41.546827751544029 12.341437825766127 #
point $-1 -57.97454676595153 -27.845638061815873 -1.4059362877873331 #
face $-1 $527 $528 $19 $-1 $529 reversed single #
loop $-1 $-1 $530 $349 #
plane-surface $-1 -40.506469462697353 -140.32194332740676 117.77432425320816 -1 0 0 0 -0.64278761758704617 0.76604443648966558 forward_v I I I I #
coedge $-1 $439 $351 $531 $532 forward $259 $-1 #
coedge $-1 $351 $438 $533 $534 reversed $259 $-1 #
coedge $-1 $535 $536 $351 $441 forward $528 $-1 #
edge $-1 $537 -58.828434254290265 $538 -46.545724300837954 $440 $539 forward 7 unknown #
edge $-1 $540 1 $540 0 $352 $-1 forward 7 unknown #
vertex $-1 $353 $541 #
ellipse-curve $-1 -57.97454676595153 -29.131213296989966 0.12615258519199812 0 -0.64278761758704617 0.76604443648966558 2 0 0 1 I I #
point $-1 -55.97454676595153 -34.227846047930093 6.2000828490399851 #
point $-1 -47.493700383999027 -27.845638061815873 -1.4059362877873331 #
coedge $-1 $542 $531 $536 $543 reversed $358 $-1 #
loop $-1 $-1 $544 $363 #
plane-surface $-1 0 0 -12.341437825766127 0 0 1 1 0 0 forward_v I I I I #
coedge $-1 $381 $376 $545 $546 forward $364 $-1 #
coedge $-1 $455 $457 $366 $452 forward $448 $-1 #
edge $-1 $454 -41.546827751544029 $453 41.546827751544029 $366 $547 forward 7 unknown #
vertex $-1 $456 $548 #
vertex $-1 $452 $549 #
coedge $-1 $544 $451 $370 $456 forward $448 $-1 #
edge $-1 $453 -76.833399456770536 $550 76.833399456770536 $370 $551 forward 7 unknown #
coedge $-1 $451 $544 $372 $458 forward $448 $-1 #
edge $-1 $552 -76.833399456770536 $454 76.833399456770536 $372 $553 forward 7 unknown #
coedge $-1 $376 $381 $374 $460 forward $364 $-1 #
edge $-1 $383 -41.546827751544029 $378 41.546827751544029 $374 $554 forward 7 unknown #
coedge $-1 $555 $545 $375 $462 forward $471 $-1 #
edge $-1 $463 -12.341437825766127 $552 12.341437825766127 $461 $556 forward 7 unknown #
vertex $-1 $546 $557 #
straight-curve $-1 0 -41.546827751544029 12.341437825766127 1 0 0 I I #
point $-1 -76.833399456770536 -41.546827751544029 12.341437825766127 #
coedge $-1 $545 $555 $380 $467 reversed $471 $-1 #
edge $-1 $468 -12.341437825766127 $550 12.341437825766127 $466 $558 forward 7 unknown #
vertex $-1 $546 $559 #
straight-curve $-1 0 41.546827751544029 12.341437825766127 -1 0 0 I I #
point $-1 -76.833399456770536 41.546827751544029 12.341437825766127 #
loop $-1 $-1 $461 $385 #
plane-surface $-1 76.833399456770536 0 0 -1 0 0 0 0 1 forward_v I I I I #
face $-1 $327 $410 $17 $-1 $475 reversed single #
loop $-1 $-1 $560 $387 #
plane-surface $-1 -76.833399456770536 0 0 1 0 0 0 0 -1 forward_v I I I I #
coedge $-1 $393 $479 $407 $502 reversed $388 $-1 #
coedge $-1 $561 $390 $562 $563 reversed $313 $-1 #
coedge $-1 $390 $561 $501 $564 reversed $313 $-1 #
coedge $-1 $476 $484 $390 $480 forward $388 $-1 #
edge $-1 $565 -41.546827751544029 $566 41.546827751544029 $479 $567 forward 7 unknown #
coedge $-1 $392 $391 $409 $504 reversed $226 $-1 #
coedge $-1 $568 $569 $392 $483 forward $570 $-1 #
edge $-1 $486 29.512983401247268 $571 41.384605170764601 $482 $572 forward 7 unknown #
coedge $-1 $479 $393 $569 $573 reversed $388 $-1 #
vertex $-1 $408 $574 #
vertex $-1 $483 $575 #
straight-curve $-1 -64.961777687253203 0 -5.305906421424079 0 1 0 I I #
coedge $-1 $395 $576 $577 $578 reversed $139 $-1 #
coedge $-1 $579 $580 $395 $490 forward $581 $-1 #
edge $-1 $492 -12.341437825766127 $582 12.341437825766127 $489 $583 forward 7 unknown #
coedge $-1 $402 $396 $580 $584 forward $240 $-1 #
vertex $-1 $584 $585 #
coedge $-1 $586 $568 $402 $494 reversed $570 $-1 #
edge $-1 $587 -76.833399456770536 $496 76.833399456770536 $493 $588 forward 7 unknown #
coedge $-1 $409 $403 $568 $589 forward $410 $-1 #
vertex $-1 $494 $590 #
straight-curve $-1 -76.833399456770536 0 12.341437825766127 0 -1 0 I I #
face $-1 $591 $570 $17 $-1 $592 reversed single #
loop $-1 $-1 $593 $405 #
plane-surface $-1 0 0 -12.341437825766127 0 0 1 1 0 0 forward_v I I I I #
coedge $-1 $576 $407 $478 $564 forward $139 $-1 #
edge $-1 $485 1.6776568400363567 $566 5.5788423227390869 $407 $594 forward 7 unknown #
straight-curve $-1 -35.448794286005935 -41.546827751544029 -5.305906421424079 1 0 0 I I #
edge $-1 $571 -41.546827751544029 $411 41.546827751544029 $409 $595 forward 7 unknown #
point $-1 -76.833399456770536 -41.546827751544029 -5.305906421424079 #
face $-1 $596 $597 $18 $-1 $598 forward single #
loop $-1 $-1 $599 $414 #
plane-surface $-1 -70.89758857201187 0 -9.2070919041268091 0 0 1 1 0 0 forward_v I I I I #
coedge $-1 $600 $601 $602 $603 reversed $415 $-1 #
coedge $-1 $417 $604 $605 $606 reversed $334 $-1 #
coedge $-1 $605 $426 $418 $512 forward $428 $-1 #
edge $-1 $607 -43.25210731938725 $514 -28.614143912159349 $511 $608 forward 7 unknown #
edge $-1 $607 -19.108504298138513 $515 3.7102120358708721e-014 $419 $609 forward 7 unknown #
vertex $-1 $606 $610 #
vertex $-1 $422 $611 #
straight-curve $-1 -40.506469462697353 -41.546827751544029 58.887162126604082 0 0 -1 I I #
straight-curve $-1 -26.367061787487639 -41.546827751544029 0.058727872313813628 -1 0 0 I I #
edge $-1 $424 -38.594715899765561 $607 -14.139407675209714 $426 $612 forward 7 unknown #
point $-1 -64.961777687253203 -26.908864344316129 12.341437825766127 #
coedge $-1 $427 $613 $614 $615 forward $428 $-1 #
face $-1 $616 $428 $18 $-1 $617 forward single #
coedge $-1 $618 $430 $600 $619 forward $334 $-1 #
coedge $-1 $614 $620 $430 $524 reversed $621 $-1 #
edge $-1 $525 -12.341437825766127 $622 5.305906421424079 $523 $623 forward 7 unknown #
vertex $-1 $615 $624 #
straight-curve $-1 0 -41.546827751544029 12.341437825766127 1 0 0 I I #
face $-1 $625 $626 $19 $-1 $627 reversed single #
loop $-1 $-1 $628 $435 #
plane-surface $-1 0 -41.546827751544029 0 0 1 0 0 0 1 forward_v I I I I #
coedge $-1 $629 $630 $628 $631 reversed $436 $-1 #
coedge $-1 $447 $632 $438 $532 reversed $358 $-1 #
edge $-1 $537 -3.7102120358708721e-014 $633 19.108504298138513 $438 $634 forward 7 unknown #
coedge $-1 $635 $636 $439 $534 forward $637 $-1 #
edge $-1 $538 28.614143912159349 $633 43.25210731938725 $533 $638 forward 7 unknown #
coedge $-1 $639 $440 $636 $640 reversed $528 $-1 #
coedge $-1 $440 $628 $447 $543 forward $528 $-1 #
vertex $-1 $543 $641 #
vertex $-1 $534 $642 #
straight-curve $-1 -64.961777687253203 -41.546827751544029 58.887162126604082 0 0 1 I I #
vertex $-1 $442 $643 #
point $-1 -55.97454676595153 -29.131213296989966 0.12615258519199812 #
coedge $-1 $632 $447 $630 $644 reversed $358 $-1 #
edge $-1 $645 14.139407675209714 $537 38.594715899765561 $536 $646 forward 7 unknown #
coedge $-1 $457 $455 $555 $647 forward $448 $-1 #
coedge $-1 $461 $466 $450 $546 reversed $471 $-1 #
edge $-1 $463 -41.546827751544029 $468 41.546827751544029 $545 $648 forward 7 unknown #
straight-curve $-1 -76.833399456770536 0 -12.341437825766127 0 1 0 I I #
point $-1 -76.833399456770536 41.546827751544029 -12.341437825766127 #
point $-1 -76.833399456770536 -41.546827751544029 -12.341437825766127 #
vertex $-1 $647 $649 #
straight-curve $-1 0 41.546827751544029 -12.341437825766127 1 0 0 I I #
vertex $-1 $462 $650 #
straight-curve $-1 0 -41.546827751544029 -12.341437825766127 -1 0 0 I I #
straight-curve $-1 -76.833399456770536 0 12.341437825766127 0 -1 0 I I #
coedge $-1 $466 $461 $544 $647 reversed $471 $-1 #
straight-curve $-1 76.833399456770536 -41.546827751544029 0 0 0 -1 I I #
point $-1 76.833399456770536 -41.546827751544029 12.341437825766127 #
straight-curve $-1 76.833399456770536 41.546827751544029 0 0 0 -1 I I #
point $-1 76.833399456770536 41.546827751544029 12.341437825766127 #
coedge $-1 $651 $652 $561 $653 forward $474 $-1 #
coedge $-1 $478 $477 $560 $653 reversed $313 $-1 #
coedge $-1 $569 $654 $477 $563 forward $570 $-1 #
edge $-1 $655 -41.384605170764601 $565 -29.512983401247268 $562 $656 forward 7 unknown #
edge $-1 $566 29.512983401247268 $657 41.384605170764601 $501 $658 forward 7 unknown #
vertex $-1 $563 $659 #
vertex $-1 $564 $660 #
straight-curve $-1 -64.961777687253203 0 -9.2070919041268091 0 -1 0 I I #
coedge $-1 $493 $482 $495 $589 reversed $570 $-1 #
coedge $-1 $482 $562 $484 $573 forward $570 $-1 #
loop $-1 $-1 $482 $498 #
vertex $-1 $504 $661 #
straight-curve $-1 -35.448794286005935 41.546827751544029 -5.305906421424079 -1 0 0 I I #
edge $-1 $565 -5.5788423227390869 $486 -1.6776568400363567 $569 $662 forward 7 unknown #
point $-1 -64.961777687253203 -41.546827751544029 -5.305906421424079 #
point $-1 -64.961777687253203 41.546827751544029 -5.305906421424079 #
coedge $-1 $488 $501 $652 $663 forward $139 $-1 #
coedge $-1 $664 $593 $488 $578 forward $499 $-1 #
edge $-1 $582 -76.833399456770536 $665 76.833399456770536 $488 $666 forward 7 unknown #
coedge $-1 $667 $489 $593 $668 reversed $581 $-1 #
coedge $-1 $489 $667 $491 $584 reversed $581 $-1 #
loop $-1 $-1 $489 $591 #
vertex $-1 $490 $669 #
straight-curve $-1 76.833399456770536 -41.546827751544029 0 0 0 -1 I I #
edge $-1 $492 -41.546827751544029 $587 41.546827751544029 $580 $670 forward 7 unknown #
point $-1 76.833399456770536 -41.546827751544029 12.341437825766127 #
coedge $-1 $671 $493 $667 $672 forward $570 $-1 #
vertex $-1 $584 $673 #
straight-curve $-1 0 41.546827751544029 12.341437825766127 -1 0 0 I I #
edge $-1 $496 -12.341437825766127 $571 5.305906421424079 $568 $674 forward 7 unknown #
point $-1 -76.833399456770536 41.546827751544029 12.341437825766127 #
face $-1 $-1 $581 $17 $-1 $675 reversed single #
plane-surface $-1 0 41.546827751544029 0 0 -1 0 0 0 -1 forward_v I I I I #
coedge $-1 $577 $676 $579 $668 forward $499 $-1 #
straight-curve $-1 -64.961777687253203 -41.546827751544029 -3.6282495813877222 0 0 -1 I I #
straight-curve $-1 -76.833399456770536 0 -5.305906421424079 0 -1 0 I I #
face $-1 $677 $678 $18 $-1 $679 reversed single #
loop $-1 $-1 $680 $506 #
plane-surface $-1 -64.961777687253203 0 -7.2564991627754445 -1 0 0 0 0 1 forward_v I I I I #
coedge $-1 $681 $682 $683 $684 reversed $507 $-1 #
coedge $-1 $685 $509 $522 $619 reversed $415 $-1 #
coedge $-1 $509 $685 $686 $687 reversed $415 $-1 #
coedge $-1 $688 $680 $509 $603 forward $597 $-1 #
edge $-1 $689 -41.546827751544029 $690 41.546827751544029 $602 $691 forward 7 unknown #
coedge $-1 $510 $692 $693 $694 reversed $334 $-1 #
coedge $-1 $695 $511 $510 $606 forward $428 $-1 #
edge $-1 $514 -40.506469462697353 $696 76.833399456770536 $510 $526 forward 7 unknown #
vertex $-1 $518 $697 #
straight-curve $-1 -40.506469462697353 -70.160971663703378 12.341437825766128 0 -1 0 I I #
straight-curve $-1 -40.506469462697353 -41.546827751544001 0.058727872313838247 0 -0.76604443648966558 -0.64278761758704617 I I #
point $-1 -40.506469462697353 -41.546827751544029 12.341437825766127 #
point $-1 -40.506469462697353 -41.546827751544029 0.058727872313814398 #
straight-curve $-1 -26.367061787487639 -26.908864344316132 12.341437825766127 1 0 0 I I #
coedge $-1 $520 $695 $698 $699 forward $428 $-1 #
coedge $-1 $700 $523 $520 $615 reversed $621 $-1 #
edge $-1 $701 -41.546827751544029 $525 41.546827751544029 $614 $702 forward 7 unknown #
face $-1 $703 $704 $18 $-1 $705 reversed single #
plane-surface $-1 0 0 12.341437825766127 0 0 1 1 0 0 forward_v I I I I #
coedge $-1 $706 $522 $680 $707 forward $334 $-1 #
edge $-1 $622 -41.384605170764601 $689 -29.512983401247268 $522 $708 forward 7 unknown #
coedge $-1 $523 $700 $685 $709 forward $621 $-1 #
loop $-1 $-1 $620 $677 #
vertex $-1 $619 $710 #
straight-curve $-1 -76.833399456770536 -41.546827751544029 0 0 0 -1 I I #
point $-1 -76.833399456770536 -41.546827751544029 12.341437825766127 #
face $-1 $711 $712 $19 $-1 $713 forward single #
loop $-1 $-1 $714 $527 #
plane-surface $-1 -70.89758857201187 0 -5.305906421424079 0 0 1 1 0 0 forward_v I I I I #
coedge $-1 $536 $715 $530 $631 forward $528 $-1 #
coedge $-1 $630 $530 $716 $717 reversed $436 $-1 #
coedge $-1 $530 $629 $542 $644 forward $436 $-1 #
edge $-1 $718 46.545724300837954 $645 58.828434254290265 $628 $719 forward 7 unknown #
coedge $-1 $531 $542 $635 $720 reversed $358 $-1 #
vertex $-1 $720 $721 #
straight-curve $-1 -64.961777687253203 -41.546827751544001 0.058727872313838247 0 0.76604443648966558 0.64278761758704617 I I #
coedge $-1 $716 $533 $632 $720 forward $637 $-1 #
coedge $-1 $533 $722 $535 $640 forward $637 $-1 #
loop $-1 $-1 $716 $723 #
straight-curve $-1 -64.961777687253203 -70.160971663703378 12.341437825766128 0 1 0 I I #
coedge $-1 $724 $535 $725 $726 forward $528 $-1 #
edge $-1 $727 -76.833399456770536 $538 -64.961777687253203 $535 $728 forward 7 unknown #
point $-1 -64.961777687253203 -41.546827751544029 0.058727872313814398 #
point $-1 -64.961777687253203 -41.546827751544029 12.341437825766127 #
point $-1 -57.97454676595153 -27.845638061815873 -1.4059362877873331 #
edge $-1 $729 -19.108504298138513 $645 3.7102120358708721e-014 $630 $730 forward 7 unknown #
vertex $-1 $543 $731 #
straight-curve $-1 -26.367061787487639 -41.546827751544029 0.058727872313813628 -1 0 0 I I #
edge $-1 $550 -41.546827751544029 $552 41.546827751544029 $555 $732 forward 7 unknown #
straight-curve $-1 76.833399456770536 0 12.341437825766127 0 1 0 I I #
point $-1 76.833399456770536 41.546827751544029 -12.341437825766127 #
point $-1 76.833399456770536 -41.546827751544029 -12.341437825766127 #
coedge $-1 $733 $560 $654 $734 forward $474 $-1 #
coedge $-1 $560 $733 $576 $663 reversed $474 $-1 #
edge $-1 $657 -41.546827751544029 $655 41.546827751544029 $560 $735 forward 7 unknown #
coedge $-1 $562 $671 $651 $734 reversed $570 $-1 #
vertex $-1 $734 $736 #
straight-curve $-1 -35.448794286005935 41.546827751544029 -9.2070919041268091 1 0 0 I I #
vertex $-1 $663 $737 #
straight-curve $-1 -35.448794286005935 -41.546827751544029 -9.2070919041268091 -1 0 0 I I #
point $-1 -64.961777687253203 41.546827751544029 -9.2070919041268091 #
point $-1 -64.961777687253203 -41.546827751544029 -9.2070919041268091 #
point $-1 -76.833399456770536 41.546827751544029 -5.305906421424079 #
straight-curve $-1 -64.961777687253203 41.546827751544029 -3.6282495813877222 0 0 1 I I #
edge $-1 $657 9.2070919041268091 $665 12.341437825766127 $652 $412 forward 7 unknown #
coedge $-1 $676 $577 $733 $738 forward $499 $-1 #
vertex $-1 $738 $739 #
straight-curve $-1 0 -41.546827751544029 -12.341437825766127 -1 0 0 I I #
coedge $-1 $580 $579 $586 $672 reversed $581 $-1 #
edge $-1 $740 -41.546827751544029 $582 41.546827751544029 $579 $741 forward 7 unknown #
point $-1 76.833399456770536 -41.546827751544029 -12.341437825766127 #
straight-curve $-1 76.833399456770536 0 12.341437825766127 0 1 0 I I #
coedge $-1 $654 $586 $676 $742 reversed $570 $-1 #
edge $-1 $587 -12.341437825766127 $740 12.341437825766127 $667 $743 forward 7 unknown #
point $-1 76.833399456770536 41.546827751544029 12.341437825766127 #
straight-curve $-1 -76.833399456770536 41.546827751544029 0 0 0 -1 I I #
plane-surface $-1 76.833399456770536 0 0 -1 0 0 0 0 1 forward_v I I I I #
coedge $-1 $593 $664 $671 $742 forward $499 $-1 #
face $-1 $521 $621 $18 $-1 $679 reversed single #
loop $-1 $-1 $744 $596 #
plane-surface $-1 -76.833399456770536 0 0 1 0 0 0 0 -1 forward_v I I I I #
coedge $-1 $602 $683 $618 $707 reversed $597 $-1 #
coedge $-1 $745 $599 $746 $747 reversed $507 $-1 #
coedge $-1 $599 $745 $706 $748 reversed $507 $-1 #
coedge $-1 $680 $688 $599 $684 forward $597 $-1 #
edge $-1 $749 -41.546827751544029 $750 41.546827751544029 $683 $751 forward 7 unknown #
coedge $-1 $601 $600 $620 $709 reversed $415 $-1 #
coedge $-1 $752 $753 $601 $687 forward $754 $-1 #
edge $-1 $690 29.512983401247268 $755 41.384605170764601 $686 $756 forward 7 unknown #
coedge $-1 $683 $602 $753 $757 reversed $597 $-1 #
vertex $-1 $619 $758 #
vertex $-1 $687 $759 #
straight-curve $-1 -64.961777687253203 0 -5.305906421424079 0 1 0 I I #
coedge $-1 $604 $760 $761 $762 reversed $334 $-1 #
coedge $-1 $763 $764 $604 $694 forward $765 $-1 #
edge $-1 $696 -12.341437825766127 $766 12.341437825766127 $693 $767 forward 7 unknown #
coedge $-1 $613 $605 $764 $768 forward $428 $-1 #
vertex $-1 $768 $769 #
point $-1 -40.506469462697353 -26.908864344316129 12.341437825766127 #
coedge $-1 $770 $752 $613 $699 reversed $754 $-1 #
edge $-1 $771 -76.833399456770536 $701 76.833399456770536 $698 $772 forward 7 unknown #
coedge $-1 $620 $614 $752 $773 forward $621 $-1 #
vertex $-1 $699 $774 #
straight-curve $-1 -76.833399456770536 0 12.341437825766127 0 -1 0 I I #
face $-1 $775 $754 $18 $-1 $776 reversed single #
loop $-1 $-1 $777 $616 #
plane-surface $-1 0 0 -12.341437825766127 0 0 1 1 0 0 forward_v I I I I #
coedge $-1 $760 $618 $682 $748 forward $334 $-1 #
edge $-1 $689 1.6776568400363567 $750 5.5788423227390869 $618 $778 forward 7 unknown #
straight-curve $-1 -35.448794286005935 -41.546827751544029 -5.305906421424079 1 0 0 I I #
edge $-1 $755 -41.546827751544029 $622 41.546827751544029 $620 $779 forward 7 unknown #
point $-1 -76.833399456770536 -41.546827751544029 -5.305906421424079 #
face $-1 $780 $781 $19 $-1 $782 forward single #
loop $-1 $-1 $783 $625 #
plane-surface $-1 -70.89758857201187 0 -9.2070919041268091 0 0 1 1 0 0 forward_v I I I I #
coedge $-1 $784 $785 $786 $787 reversed $626 $-1 #
coedge $-1 $628 $788 $789 $790 reversed $528 $-1 #
coedge $-1 $789 $635 $629 $717 forward $637 $-1 #
edge $-1 $729 -43.25210731938725 $718 -28.614143912159349 $716 $791 forward 7 unknown #
vertex $-1 $790 $792 #
straight-curve $-1 -40.506469462697353 -41.546827751544029 58.887162126604082 0 0 -1 I I #
edge $-1 $633 -38.594715899765561 $729 -14.139407675209714 $635 $793 forward 7 unknown #
point $-1 -64.961777687253203 -26.908864344316129 12.341437825766127 #
coedge $-1 $636 $794 $795 $796 forward $637 $-1 #
face $-1 $797 $637 $19 $-1 $798 forward single #
coedge $-1 $799 $639 $784 $800 forward $528 $-1 #
coedge $-1 $795 $801 $639 $726 reversed $802 $-1 #
edge $-1 $727 -12.341437825766127 $803 5.305906421424079 $725 $804 forward 7 unknown #
vertex $-1 $796 $805 #
straight-curve $-1 0 -41.546827751544029 12.341437825766127 1 0 0 I I #
vertex $-1 $720 $806 #
straight-curve $-1 -40.506469462697353 -41.546827751544001 0.058727872313838247 0 -0.76604443648966558 -0.64278761758704617 I I #
point $-1 -40.506469462697353 -41.546827751544029 0.058727872313814398 #
straight-curve $-1 76.833399456770536 0 -12.341437825766127 0 -1 0 I I #
coedge $-1 $652 $651 $664 $738 reversed $474 $-1 #
edge $-1 $655 9.2070919041268091 $807 12.341437825766127 $654 $674 forward 7 unknown #
straight-curve $-1 -76.833399456770536 0 -9.2070919041268091 0 1 0 I I #
point $-1 -76.833399456770536 41.546827751544029 -9.2070919041268091 #
point $-1 -76.833399456770536 -41.546827751544029 -9.2070919041268091 #
edge $-1 $665 -41.546827751544029 $807 41.546827751544029 $733 $808 forward 7 unknown #
point $-1 -76.833399456770536 -41.546827751544029 -12.341437825766127 #
vertex $-1 $668 $809 #
straight-curve $-1 76.833399456770536 0 -12.341437825766127 0 -1 0 I I #
edge $-1 $807 -76.833399456770536 $740 76.833399456770536 $671 $810 forward 7 unknown #
straight-curve $-1 76.833399456770536 41.546827751544029 0 0 0 -1 I I #
coedge $-1 $811 $812 $745 $813 forward $678 $-1 #
coedge $-1 $682 $681 $744 $813 reversed $507 $-1 #
coedge $-1 $753 $814 $681 $747 forward $754 $-1 #
edge $-1 $815 -41.384605170764601 $749 -29.512983401247268 $746 $816 forward 7 unknown #
edge $-1 $750 29.512983401247268 $817 41.384605170764601 $706 $818 forward 7 unknown #
vertex $-1 $747 $819 #
vertex $-1 $748 $820 #
straight-curve $-1 -64.961777687253203 0 -9.2070919041268091 0 -1 0 I I #
coedge $-1 $698 $686 $700 $773 reversed $754 $-1 #
coedge $-1 $686 $746 $688 $757 forward $754 $-1 #
loop $-1 $-1 $686 $703 #
vertex $-1 $709 $821 #
straight-curve $-1 -35.448794286005935 41.546827751544029 -5.305906421424079 -1 0 0 I I #
edge $-1 $749 -5.5788423227390869 $690 -1.6776568400363567 $753 $822 forward 7 unknown #
point $-1 -64.961777687253203 -41.546827751544029 -5.305906421424079 #
point $-1 -64.961777687253203 41.546827751544029 -5.305906421424079 #
coedge $-1 $692 $706 $812 $823 forward $334 $-1 #
coedge $-1 $824 $777 $692 $762 forward $704 $-1 #
edge $-1 $766 -76.833399456770536 $825 76.833399456770536 $692 $826 forward 7 unknown #
coedge $-1 $827 $693 $777 $828 reversed $765 $-1 #
coedge $-1 $693 $827 $695 $768 reversed $765 $-1 #
loop $-1 $-1 $693 $775 #
vertex $-1 $694 $829 #
straight-curve $-1 76.833399456770536 -41.546827751544029 0 0 0 -1 I I #
edge $-1 $696 -41.546827751544029 $771 41.546827751544029 $764 $830 forward 7 unknown #
point $-1 76.833399456770536 -41.546827751544029 12.341437825766127 #
coedge $-1 $831 $698 $827 $832 forward $754 $-1 #
vertex $-1 $768 $833 #
straight-curve $-1 0 41.546827751544029 12.341437825766127 -1 0 0 I I #
edge $-1 $701 -12.341437825766127 $755 5.305906421424079 $752 $834 forward 7 unknown #
point $-1 -76.833399456770536 41.546827751544029 12.341437825766127 #
face $-1 $-1 $765 $18 $-1 $835 reversed single #
plane-surface $-1 0 41.546827751544029 0 0 -1 0 0 0 -1 forward_v I I I I #
coedge $-1 $761 $836 $763 $828 forward $704 $-1 #
straight-curve $-1 -64.961777687253203 -41.546827751544029 -3.6282495813877222 0 0 -1 I I #
straight-curve $-1 -76.833399456770536 0 -5.305906421424079 0 -1 0 I I #
face $-1 $837 $838 $19 $-1 $839 reversed single #
loop $-1 $-1 $840 $711 #
plane-surface $-1 -64.961777687253203 0 -7.2564991627754445 -1 0 0 0 0 1 forward_v I I I I #
coedge $-1 $841 $842 $843 $844 reversed $712 $-1 #
coedge $-1 $845 $714 $724 $800 reversed $626 $-1 #
coedge $-1 $714 $845 $846 $847 reversed $626 $-1 #
coedge $-1 $848 $840 $714 $787 forward $781 $-1 #
edge $-1 $849 -41.546827751544029 $850 41.546827751544029 $786 $851 forward 7 unknown #
coedge $-1 $715 $852 $853 $854 reversed $528 $-1 #
coedge $-1 $855 $716 $715 $790 forward $637 $-1 #
edge $-1 $718 -40.506469462697353 $856 76.833399456770536 $715 $728 forward 7 unknown #
straight-curve $-1 -40.506469462697353 -70.160971663703378 12.341437825766128 0 -1 0 I I #
point $-1 -40.506469462697353 -41.546827751544029 12.341437825766127 #
straight-curve $-1 -26.367061787487639 -26.908864344316132 12.341437825766127 1 0 0 I I #
coedge $-1 $722 $855 $857 $858 forward $637 $-1 #
coedge $-1 $859 $725 $722 $796 reversed $802 $-1 #
edge $-1 $860 -41.546827751544029 $727 41.546827751544029 $795 $861 forward 7 unknown #
face $-1 $862 $863 $19 $-1 $864 reversed single #
plane-surface $-1 0 0 12.341437825766127 0 0 1 1 0 0 forward_v I I I I #
coedge $-1 $865 $724 $840 $866 forward $528 $-1 #
edge $-1 $803 -41.384605170764601 $849 -29.512983401247268 $724 $867 forward 7 unknown #
coedge $-1 $725 $859 $845 $868 forward $802 $-1 #
loop $-1 $-1 $801 $837 #
vertex $-1 $800 $869 #
straight-curve $-1 -76.833399456770536 -41.546827751544029 0 0 0 -1 I I #
point $-1 -76.833399456770536 -41.546827751544029 12.341437825766127 #
point $-1 -40.506469462697353 -26.908864344316129 12.341437825766127 #
vertex $-1 $742 $870 #
straight-curve $-1 -76.833399456770536 0 -12.341437825766127 0 1 0 I I #
point $-1 76.833399456770536 41.546827751544029 -12.341437825766127 #
straight-curve $-1 0 41.546827751544029 -12.341437825766127 1 0 0 I I #
coedge $-1 $871 $744 $814 $872 forward $678 $-1 #
coedge $-1 $744 $871 $760 $823 reversed $678 $-1 #
edge $-1 $817 -41.546827751544029 $815 41.546827751544029 $744 $873 forward 7 unknown #
coedge $-1 $746 $831 $811 $872 reversed $754 $-1 #
vertex $-1 $872 $874 #
straight-curve $-1 -35.448794286005935 41.546827751544029 -9.2070919041268091 1 0 0 I I #
vertex $-1 $823 $875 #
straight-curve $-1 -35.448794286005935 -41.546827751544029 -9.2070919041268091 -1 0 0 I I #
point $-1 -64.961777687253203 41.546827751544029 -9.2070919041268091 #
point $-1 -64.961777687253203 -41.546827751544029 -9.2070919041268091 #
point $-1 -76.833399456770536 41.546827751544029 -5.305906421424079 #
straight-curve $-1 -64.961777687253203 41.546827751544029 -3.6282495813877222 0 0 1 I I #
edge $-1 $817 9.2070919041268091 $825 12.341437825766127 $812 $623 forward 7 unknown #
coedge $-1 $836 $761 $871 $876 forward $704 $-1 #
vertex $-1 $876 $877 #
straight-curve $-1 0 -41.546827751544029 -12.341437825766127 -1 0 0 I I #
coedge $-1 $764 $763 $770 $832 reversed $765 $-1 #
edge $-1 $878 -41.546827751544029 $766 41.546827751544029 $763 $879 forward 7 unknown #
point $-1 76.833399456770536 -41.546827751544029 -12.341437825766127 #
straight-curve $-1 76.833399456770536 0 12.341437825766127 0 1 0 I I #
coedge $-1 $814 $770 $836 $880 reversed $754 $-1 #
edge $-1 $771 -12.341437825766127 $878 12.341437825766127 $827 $881 forward 7 unknown #
point $-1 76.833399456770536 41.546827751544029 12.341437825766127 #
straight-curve $-1 -76.833399456770536 41.546827751544029 0 0 0 -1 I I #
plane-surface $-1 76.833399456770536 0 0 -1 0 0 0 0 1 forward_v I I I I #
coedge $-1 $777 $824 $831 $880 forward $704 $-1 #
face $-1 $723 $802 $19 $-1 $839 reversed single #
loop $-1 $-1 $882 $780 #
plane-surface $-1 -76.833399456770536 0 0 1 0 0 0 0 -1 forward_v I I I I #
coedge $-1 $786 $843 $799 $866 reversed $781 $-1 #
coedge $-1 $883 $783 $884 $885 reversed $712 $-1 #
coedge $-1 $783 $883 $865 $886 reversed $712 $-1 #
coedge $-1 $840 $848 $783 $844 forward $781 $-1 #
edge $-1 $887 -41.546827751544029 $888 41.546827751544029 $843 $889 forward 7 unknown #
coedge $-1 $785 $784 $801 $868 reversed $626 $-1 #
coedge $-1 $890 $891 $785 $847 forward $892 $-1 #
edge $-1 $850 29.512983401247268 $893 41.384605170764601 $846 $894 forward 7 unknown #
coedge $-1 $843 $786 $891 $895 reversed $781 $-1 #
vertex $-1 $800 $896 #
vertex $-1 $847 $897 #
straight-curve $-1 -64.961777687253203 0 -5.305906421424079 0 1 0 I I #
coedge $-1 $788 $898 $899 $900 reversed $528 $-1 #
coedge $-1 $901 $902 $788 $854 forward $903 $-1 #
edge $-1 $856 -12.341437825766127 $904 12.341437825766127 $853 $905 forward 7 unknown #
coedge $-1 $794 $789 $902 $906 forward $637 $-1 #
vertex $-1 $906 $907 #
coedge $-1 $908 $890 $794 $858 reversed $892 $-1 #
edge $-1 $909 -76.833399456770536 $860 76.833399456770536 $857 $910 forward 7 unknown #
coedge $-1 $801 $795 $890 $911 forward $802 $-1 #
vertex $-1 $858 $912 #
straight-curve $-1 -76.833399456770536 0 12.341437825766127 0 -1 0 I I #
face $-1 $913 $892 $19 $-1 $914 reversed single #
loop $-1 $-1 $915 $797 #
plane-surface $-1 0 0 -12.341437825766127 0 0 1 1 0 0 forward_v I I I I #
coedge $-1 $898 $799 $842 $886 forward $528 $-1 #
edge $-1 $849 1.6776568400363567 $888 5.5788423227390869 $799 $916 forward 7 unknown #
straight-curve $-1 -35.448794286005935 -41.546827751544029 -5.305906421424079 1 0 0 I I #
edge $-1 $893 -41.546827751544029 $803 41.546827751544029 $801 $917 forward 7 unknown #
point $-1 -76.833399456770536 -41.546827751544029 -5.305906421424079 #
point $-1 -76.833399456770536 41.546827751544029 -12.341437825766127 #
coedge $-1 $812 $811 $824 $876 reversed $678 $-1 #
edge $-1 $815 9.2070919041268091 $918 12.341437825766127 $814 $834 forward 7 unknown #
straight-curve $-1 -76.833399456770536 0 -9.2070919041268091 0 1 0 I I #
point $-1 -76.833399456770536 41.546827751544029 -9.2070919041268091 #
point $-1 -76.833399456770536 -41.546827751544029 -9.2070919041268091 #
edge $-1 $825 -41.546827751544029 $918 41.546827751544029 $871 $919 forward 7 unknown #
point $-1 -76.833399456770536 -41.546827751544029 -12.341437825766127 #
vertex $-1 $828 $920 #
straight-curve $-1 76.833399456770536 0 -12.341437825766127 0 -1 0 I I #
edge $-1 $918 -76.833399456770536 $878 76.833399456770536 $831 $921 forward 7 unknown #
straight-curve $-1 76.833399456770536 41.546827751544029 0 0 0 -1 I I #
coedge $-1 $922 $923 $883 $924 forward $838 $-1 #
coedge $-1 $842 $841 $882 $924 reversed $712 $-1 #
coedge $-1 $891 $925 $841 $885 forward $892 $-1 #
edge $-1 $926 -41.384605170764601 $887 -29.512983401247268 $884 $927 forward 7 unknown #
edge $-1 $888 29.512983401247268 $928 41.384605170764601 $865 $929 forward 7 unknown #
vertex $-1 $885 $930 #
vertex $-1 $886 $931 #
straight-curve $-1 -64.961777687253203 0 -9.2070919041268091 0 -1 0 I I #
coedge $-1 $857 $846 $859 $911 reversed $892 $-1 #
coedge $-1 $846 $884 $848 $895 forward $892 $-1 #
loop $-1 $-1 $846 $862 #
vertex $-1 $868 $932 #
straight-curve $-1 -35.448794286005935 41.546827751544029 -5.305906421424079 -1 0 0 I I #
edge $-1 $887 -5.5788423227390869 $850 -1.6776568400363567 $891 $933 forward 7 unknown #
point $-1 -64.961777687253203 -41.546827751544029 -5.305906421424079 #
point $-1 -64.961777687253203 41.546827751544029 -5.305906421424079 #
coedge $-1 $852 $865 $923 $934 forward $528 $-1 #
coedge $-1 $935 $915 $852 $900 forward $863 $-1 #
edge $-1 $904 -76.833399456770536 $936 76.833399456770536 $852 $937 forward 7 unknown #
coedge $-1 $938 $853 $915 $939 reversed $903 $-1 #
coedge $-1 $853 $938 $855 $906 reversed $903 $-1 #
loop $-1 $-1 $853 $913 #
vertex $-1 $854 $940 #
straight-curve $-1 76.833399456770536 -41.546827751544029 0 0 0 -1 I I #
edge $-1 $856 -41.546827751544029 $909 41.546827751544029 $902 $941 forward 7 unknown #
point $-1 76.833399456770536 -41.546827751544029 12.341437825766127 #
coedge $-1 $942 $857 $938 $943 forward $892 $-1 #
vertex $-1 $906 $944 #
straight-curve $-1 0 41.546827751544029 12.341437825766127 -1 0 0 I I #
edge $-1 $860 -12.341437825766127 $893 5.305906421424079 $890 $945 forward 7 unknown #
point $-1 -76.833399456770536 41.546827751544029 12.341437825766127 #
face $-1 $-1 $903 $19 $-1 $946 reversed single #
plane-surface $-1 0 41.546827751544029 0 0 -1 0 0 0 -1 forward_v I I I I #
coedge $-1 $899 $947 $901 $939 forward $863 $-1 #
straight-curve $-1 -64.961777687253203 -41.546827751544029 -3.6282495813877222 0 0 -1 I I #
straight-curve $-1 -76.833399456770536 0 -5.305906421424079 0 -1 0 I I #
vertex $-1 $880 $948 #
straight-curve $-1 -76.833399456770536 0 -12.341437825766127 0 1 0 I I #
point $-1 76.833399456770536 41.546827751544029 -12.341437825766127 #
straight-curve $-1 0 41.546827751544029 -12.341437825766127 1 0 0 I I #
coedge $-1 $949 $882 $925 $950 forward $838 $-1 #
coedge $-1 $882 $949 $898 $934 reversed $838 $-1 #
edge $-1 $928 -41.546827751544029 $926 41.546827751544029 $882 $951 forward 7 unknown #
coedge $-1 $884 $942 $922 $950 reversed $892 $-1 #
vertex $-1 $950 $952 #
straight-curve $-1 -35.448794286005935 41.546827751544029 -9.2070919041268091 1 0 0 I I #
vertex $-1 $934 $953 #
straight-curve $-1 -35.448794286005935 -41.546827751544029 -9.2070919041268091 -1 0 0 I I #
point $-1 -64.961777687253203 41.546827751544029 -9.2070919041268091 #
point $-1 -64.961777687253203 -41.546827751544029 -9.2070919041268091 #
point $-1 -76.833399456770536 41.546827751544029 -5.305906421424079 #
straight-curve $-1 -64.961777687253203 41.546827751544029 -3.6282495813877222 0 0 1 I I #
edge $-1 $928 9.2070919041268091 $936 12.341437825766127 $923 $804 forward 7 unknown #
coedge $-1 $947 $899 $949 $954 forward $863 $-1 #
vertex $-1 $954 $955 #
straight-curve $-1 0 -41.546827751544029 -12.341437825766127 -1 0 0 I I #
coedge $-1 $902 $901 $908 $943 reversed $903 $-1 #
edge $-1 $956 -41.546827751544029 $904 41.546827751544029 $901 $957 forward 7 unknown #
point $-1 76.833399456770536 -41.546827751544029 -12.341437825766127 #
straight-curve $-1 76.833399456770536 0 12.341437825766127 0 1 0 I I #
coedge $-1 $925 $908 $947 $958 reversed $892 $-1 #
edge $-1 $909 -12.341437825766127 $956 12.341437825766127 $938 $959 forward 7 unknown #
point $-1 76.833399456770536 41.546827751544029 12.341437825766127 #
straight-curve $-1 -76.833399456770536 41.546827751544029 0 0 0 -1 I I #
plane-surface $-1 76.833399456770536 0 0 -1 0 0 0 0 1 forward_v I I I I #
coedge $-1 $915 $935 $942 $958 forward $863 $-1 #
point $-1 -76.833399456770536 41.546827751544029 -12.341437825766127 #
coedge $-1 $923 $922 $935 $954 reversed $838 $-1 #
edge $-1 $926 9.2070919041268091 $960 12.341437825766127 $925 $945 forward 7 unknown #
straight-curve $-1 -76.833399456770536 0 -9.2070919041268091 0 1 0 I I #
point $-1 -76.833399456770536 41.546827751544029 -9.2070919041268091 #
point $-1 -76.833399456770536 -41.546827751544029 -9.2070919041268091 #
edge $-1 $936 -41.546827751544029 $960 41.546827751544029 $949 $961 forward 7 unknown #
point $-1 -76.833399456770536 -41.546827751544029 -12.341437825766127 #
vertex $-1 $939 $962 #
straight-curve $-1 76.833399456770536 0 -12.341437825766127 0 -1 0 I I #
edge $-1 $960 -76.833399456770536 $956 76.833399456770536 $942 $963 forward 7 unknown #
straight-curve $-1 76.833399456770536 41.546827751544029 0 0 0 -1 I I #
vertex $-1 $958 $964 #
straight-curve $-1 -76.833399456770536 0 -12.341437825766127 0 1 0 I I #
point $-1 76.833399456770536 41.546827751544029 -12.341437825766127 #
straight-curve $-1 0 41.546827751544029 -12.341437825766127 1 0 0 I I #
point $-1 -76.833399456770536 41.546827751544029 -12.341437825766127 #
End-of-ACIS-data 