500 0 8 0           
7 Unknown 11 ACIS 5.0 NT 24 Fri Mar 26 20:04:51 1999 
-1 9.9999999999999995e-007 1e-010 
body $-1 $8 $-1 $9 #
body $-1 $10 $-1 $11 #
body $-1 $12 $-1 $13 #
body $-1 $14 $-1 $15 #
body $-1 $16 $-1 $17 #
body $-1 $18 $-1 $19 #
body $-1 $20 $-1 $21 #
body $-1 $22 $-1 $23 #
lump $-1 $-1 $24 $0 #
transform $-1 1 0 0 0 1 0 0 0 1 48.730735190893277 31.57868236019134 14.716704885442729 1 rotate no_reflect no_shear #
lump $-1 $-1 $25 $1 #
transform $-1 1 0 0 0 1 0 0 0 1 48.730735190893277 31.57868236019134 14.716704885442729 1 rotate no_reflect no_shear #
lump $-1 $-1 $26 $2 #
transform $-1 1 0 0 0 1 0 0 0 1 48.730735190893277 31.57868236019134 14.716704885442729 1 rotate no_reflect no_shear #
lump $-1 $-1 $27 $3 #
transform $-1 1 0 0 0 1 0 0 0 1 48.730735190893277 31.57868236019134 14.716704885442729 1 rotate no_reflect no_shear #
lump $-1 $-1 $28 $4 #
transform $-1 1 0 0 0 1 0 0 0 1 48.730735190893277 31.57868236019134 14.716704885442729 1 rotate no_reflect no_shear #
lump $-1 $-1 $29 $5 #
transform $-1 1 0 0 0 1 0 0 0 1 48.730735190893277 31.57868236019134 14.716704885442729 1 rotate no_reflect no_shear #
lump $-1 $-1 $30 $6 #
transform $-1 1 0 0 0 1 0 0 0 1 48.730735190893277 31.57868236019134 14.716704885442729 1 rotate no_reflect no_shear #
lump $-1 $-1 $31 $7 #
transform $-1 1 0 0 0 1 0 0 0 1 48.730735190893277 31.57868236019134 14.716704885442729 1 rotate no_reflect no_shear #
shell $-1 $-1 $-1 $32 $-1 $8 #
shell $-1 $-1 $-1 $33 $-1 $10 #
shell $-1 $-1 $-1 $34 $-1 $12 #
shell $-1 $-1 $-1 $35 $-1 $14 #
shell $-1 $-1 $-1 $36 $-1 $16 #
shell $-1 $-1 $-1 $37 $-1 $18 #
shell $-1 $-1 $-1 $38 $-1 $20 #
shell $-1 $-1 $-1 $39 $-1 $22 #
face $-1 $40 $41 $24 $-1 $42 forward single #
face $-1 $43 $44 $25 $-1 $45 forward single #
face $-1 $46 $47 $26 $-1 $48 reversed single #
face $-1 $49 $50 $27 $-1 $51 forward single #
face $-1 $52 $53 $28 $-1 $54 forward single #
face $-1 $55 $56 $29 $-1 $57 reversed single #
face $-1 $58 $59 $30 $-1 $60 forward single #
face $-1 $61 $62 $31 $-1 $63 forward single #
face $-1 $64 $65 $24 $-1 $66 reversed single #
loop $-1 $-1 $67 $32 #
plane-surface $-1 0 0 14.716704885442729 0 0 1 1 0 0 forward_v I I I I #
face $-1 $68 $69 $25 $-1 $70 forward single #
loop $-1 $-1 $71 $33 #
plane-surface $-1 0 -31.57868236019134 0 0 1 0 0 0 1 forward_v I I I I #
face $-1 $72 $73 $26 $-1 $74 reversed single #
loop $-1 $-1 $75 $34 #
plane-surface $-1 -30.197935218356335 33.718617640670615 119.42860086448472 1 0 0 0 -0.55919291073839883 -0.82903756765294845 forward_v I I I I #
face $-1 $76 $77 $27 $-1 $78 forward single #
loop $-1 $79 $80 $35 #
cone-surface $-1 -23.701934394139833 21.622769858681572 6.7876639376361583 0 -0.55919291073839883 -0.82903756765294845 3 0 0 1 I I 0 1 3 forward I I I I #
face $-1 $81 $82 $28 $-1 $83 forward single #
loop $-1 $84 $85 $36 #
cone-surface $-1 -13.957933157815084 21.622769858681572 6.7876639376361583 0 -0.55919291073839883 -0.82903756765294845 3 0 0 1 I I 0 1 3 forward I I I I #
face $-1 $86 $87 $29 $-1 $88 reversed single #
loop $-1 $-1 $89 $37 #
plane-surface $-1 18.532799972536935 33.718617640670615 119.42860086448472 1 0 0 0 -0.55919291073839883 -0.82903756765294845 forward_v I I I I #
face $-1 $90 $91 $30 $-1 $92 forward single #
loop $-1 $93 $94 $38 #
cone-surface $-1 25.028800796753451 21.622769858681572 6.7876639376361583 0 -0.55919291073839883 -0.82903756765294845 3 0 0 1 I I 0 1 3 forward I I I I #
face $-1 $95 $96 $31 $-1 $97 forward single #
loop $-1 $98 $99 $39 #
cone-surface $-1 34.7728020330782 21.622769858681572 6.7876639376361583 0 -0.55919291073839883 -0.82903756765294845 3 0 0 1 I I 0 1 3 forward I I I I #
face $-1 $100 $101 $24 $-1 $102 reversed single #
loop $-1 $-1 $103 $40 #
plane-surface $-1 0 0 -14.716704885442729 0 0 1 1 0 0 forward_v I I I I #
coedge $-1 $104 $105 $106 $107 forward $41 $-1 #
face $-1 $108 $109 $25 $-1 $110 reversed single #
loop $-1 $-1 $111 $43 #
plane-surface $-1 0 0 14.716704885442729 0 0 1 1 0 0 forward_v I I I I #
coedge $-1 $112 $113 $114 $115 forward $44 $-1 #
face $-1 $116 $117 $26 $-1 $118 reversed single #
loop $-1 $-1 $119 $46 #
plane-surface $-1 -18.829933775977459 -20.781145666964854 38.629380519288517 0 0.55919291073839883 0.82903756765294845 1 0 0 forward_v I I I I #
coedge $-1 $120 $121 $122 $123 reversed $47 $-1 #
face $-1 $-1 $124 $27 $-1 $125 forward single #
loop $-1 $126 $127 $49 #
cone-surface $-1 -23.701934394139833 19.281982566112493 3.317304127706004 0 -0.55919291073839883 -0.82903756765294845 1.5 0 0 1 I I -0.70710678118654757 0.70710678118654757 1.5 forward I I I I #
loop $-1 $-1 $128 $35 #
coedge $-1 $80 $80 $129 $130 reversed $50 $-1 #
face $-1 $-1 $131 $28 $-1 $132 forward single #
loop $-1 $133 $134 $52 #
cone-surface $-1 -13.957933157815084 19.281982566112493 3.317304127706004 0 -0.55919291073839883 -0.82903756765294845 1.5 0 0 1 I I -0.70710678118654757 0.70710678118654757 1.5 forward I I I I #
loop $-1 $-1 $135 $36 #
coedge $-1 $85 $85 $136 $137 reversed $53 $-1 #
face $-1 $138 $139 $29 $-1 $140 reversed single #
loop $-1 $-1 $141 $55 #
plane-surface $-1 29.900801414915811 -20.781145666964854 38.629380519288517 0 0.55919291073839883 0.82903756765294845 1 0 0 forward_v I I I I #
coedge $-1 $142 $143 $144 $145 reversed $56 $-1 #
face $-1 $-1 $146 $30 $-1 $147 forward single #
loop $-1 $148 $149 $58 #
cone-surface $-1 25.028800796753451 19.281982566112493 3.317304127706004 0 -0.55919291073839883 -0.82903756765294845 1.5 0 0 1 I I -0.70710678118654757 0.70710678118654757 1.5 forward I I I I #
loop $-1 $-1 $150 $38 #
coedge $-1 $94 $94 $151 $152 reversed $59 $-1 #
face $-1 $-1 $153 $31 $-1 $154 forward single #
loop $-1 $155 $156 $61 #
cone-surface $-1 34.7728020330782 19.281982566112493 3.317304127706004 0 -0.55919291073839883 -0.82903756765294845 1.5 0 0 1 I I -0.70710678118654757 0.70710678118654757 1.5 forward I I I I #
loop $-1 $-1 $157 $39 #
coedge $-1 $99 $99 $158 $159 reversed $62 $-1 #
face $-1 $160 $161 $24 $-1 $162 reversed single #
loop $-1 $-1 $163 $64 #
plane-surface $-1 0 -31.57868236019134 0 0 1 0 0 0 1 forward_v I I I I #
coedge $-1 $164 $165 $166 $167 forward $65 $-1 #
coedge $-1 $168 $67 $169 $170 forward $41 $-1 #
coedge $-1 $67 $168 $171 $172 forward $41 $-1 #
coedge $-1 $173 $174 $67 $107 reversed $175 $-1 #
edge $-1 $176 -31.57868236019134 $177 31.57868236019134 $106 $178 forward 7 unknown #
face $-1 $179 $180 $25 $-1 $181 reversed single #
loop $-1 $-1 $182 $68 #
plane-surface $-1 -48.730735190893277 0 0 1 0 0 0 0 -1 forward_v I I I I #
coedge $-1 $183 $184 $185 $186 forward $69 $-1 #
coedge $-1 $185 $71 $182 $187 reversed $44 $-1 #
coedge $-1 $71 $185 $188 $189 reversed $44 $-1 #
coedge $-1 $190 $191 $71 $115 reversed $180 $-1 #
edge $-1 $192 -48.730735190893277 $193 48.730735190893277 $114 $194 forward 7 unknown #
face $-1 $195 $196 $26 $-1 $197 reversed single #
loop $-1 $-1 $198 $72 #
plane-surface $-1 -7.4619323335985825 33.718617640670615 119.42860086448472 -1 0 0 0 0.55919291073839883 0.82903756765294845 forward_v I I I I #
coedge $-1 $199 $200 $201 $202 reversed $73 $-1 #
coedge $-1 $121 $75 $203 $204 reversed $47 $-1 #
coedge $-1 $75 $120 $199 $205 reversed $47 $-1 #
coedge $-1 $201 $206 $75 $123 forward $207 $-1 #
edge $-1 $208 -14.719373539856033 $209 2.1884556102405028 $122 $210 forward 7 unknown #
loop $-1 $-1 $129 $76 #
plane-surface $-1 -18.829933775977459 -20.781145666964854 38.629380519288517 0 0.55919291073839883 0.82903756765294845 1 0 0 forward_v I I I I #
loop $-1 $-1 $211 $49 #
coedge $-1 $127 $127 $128 $212 reversed $77 $-1 #
coedge $-1 $128 $128 $127 $212 forward $79 $-1 #
coedge $-1 $129 $129 $80 $130 forward $124 $-1 #
edge $-1 $213 3.6575406494083606e-016 $213 6.2831853071796004 $129 $214 forward 7 unknown #
loop $-1 $-1 $136 $81 #
plane-surface $-1 -18.829933775977459 -20.781145666964854 38.629380519288517 0 0.55919291073839883 0.82903756765294845 1 0 0 forward_v I I I I #
loop $-1 $-1 $215 $52 #
coedge $-1 $134 $134 $135 $216 reversed $82 $-1 #
coedge $-1 $135 $135 $134 $216 forward $84 $-1 #
coedge $-1 $136 $136 $85 $137 forward $131 $-1 #
edge $-1 $217 3.6575406494083606e-016 $217 6.2831853071796004 $136 $218 forward 7 unknown #
face $-1 $219 $220 $29 $-1 $221 forward single #
loop $-1 $-1 $222 $86 #
plane-surface $-1 41.268802857294688 33.718617640670615 119.42860086448472 -1 0 0 0 0.55919291073839883 0.82903756765294845 forward_v I I I I #
coedge $-1 $223 $224 $225 $226 reversed $87 $-1 #
coedge $-1 $143 $89 $227 $228 reversed $56 $-1 #
coedge $-1 $89 $142 $223 $229 reversed $56 $-1 #
coedge $-1 $225 $230 $89 $145 forward $220 $-1 #
edge $-1 $231 -14.719373539856033 $232 2.1884556102405028 $144 $233 forward 7 unknown #
loop $-1 $-1 $151 $90 #
plane-surface $-1 29.900801414915811 -20.781145666964854 38.629380519288517 0 0.55919291073839883 0.82903756765294845 1 0 0 forward_v I I I I #
loop $-1 $-1 $234 $58 #
coedge $-1 $149 $149 $150 $235 reversed $91 $-1 #
coedge $-1 $150 $150 $149 $235 forward $93 $-1 #
coedge $-1 $151 $151 $94 $152 forward $146 $-1 #
edge $-1 $236 3.6575406494083606e-016 $236 6.2831853071796004 $151 $237 forward 7 unknown #
loop $-1 $-1 $158 $95 #
plane-surface $-1 29.900801414915811 -20.781145666964854 38.629380519288517 0 0.55919291073839883 0.82903756765294845 1 0 0 forward_v I I I I #
loop $-1 $-1 $238 $61 #
coedge $-1 $156 $156 $157 $239 reversed $96 $-1 #
coedge $-1 $157 $157 $156 $239 forward $98 $-1 #
coedge $-1 $158 $158 $99 $159 forward $153 $-1 #
edge $-1 $240 3.6575406494083606e-016 $240 6.2831853071796004 $158 $241 forward 7 unknown #
face $-1 $242 $243 $24 $-1 $244 reversed single #
loop $-1 $-1 $245 $100 #
plane-surface $-1 -48.730735190893277 0 0 1 0 0 0 0 -1 forward_v I I I I #
coedge $-1 $246 $171 $247 $248 forward $101 $-1 #
coedge $-1 $249 $103 $246 $250 forward $65 $-1 #
coedge $-1 $103 $249 $251 $252 forward $65 $-1 #
coedge $-1 $174 $173 $103 $167 reversed $175 $-1 #
edge $-1 $253 -31.57868236019134 $254 31.57868236019134 $166 $255 forward 7 unknown #
coedge $-1 $105 $104 $256 $257 forward $41 $-1 #
coedge $-1 $258 $259 $104 $170 reversed $243 $-1 #
edge $-1 $177 -48.730735190893277 $260 48.730735190893277 $169 $261 forward 7 unknown #
coedge $-1 $163 $262 $105 $172 reversed $101 $-1 #
edge $-1 $263 -48.730735190893277 $176 48.730735190893277 $171 $264 forward 7 unknown #
coedge $-1 $166 $106 $262 $265 forward $175 $-1 #
coedge $-1 $106 $166 $258 $266 reversed $175 $-1 #
loop $-1 $-1 $173 $242 #
vertex $-1 $107 $267 #
vertex $-1 $107 $268 #
straight-curve $-1 48.730735190893277 0 14.716704885442729 0 1 0 I I #
face $-1 $269 $270 $25 $-1 $271 reversed single #
loop $-1 $-1 $190 $108 #
plane-surface $-1 0 -40.219086295650676 10.42920196551068 0 0 1 1 0 0 forward_v I I I I #
coedge $-1 $272 $273 $112 $187 forward $109 $-1 #
coedge $-1 $274 $111 $273 $275 forward $69 $-1 #
coedge $-1 $111 $274 $276 $277 forward $69 $-1 #
coedge $-1 $113 $112 $111 $186 reversed $44 $-1 #
edge $-1 $278 -48.730735190893277 $279 48.730735190893277 $111 $280 forward 7 unknown #
edge $-1 $279 -14.716704885442729 $193 -10.42920196551068 $182 $281 forward 7 unknown #
coedge $-1 $276 $282 $113 $189 forward $283 $-1 #
edge $-1 $192 10.42920196551068 $278 14.716704885442729 $188 $284 forward 7 unknown #
coedge $-1 $285 $114 $282 $286 forward $180 $-1 #
coedge $-1 $114 $285 $272 $287 forward $180 $-1 #
vertex $-1 $189 $288 #
vertex $-1 $187 $289 #
straight-curve $-1 0 -31.57868236019134 10.42920196551068 -1 0 0 I I #
face $-1 $-1 $207 $26 $-1 $290 forward single #
loop $-1 $-1 $291 $116 #
plane-surface $-1 0 31.57868236019134 0 0 -1 0 0 0 -1 forward_v I I I I #
coedge $-1 $292 $293 $294 $295 reversed $117 $-1 #
coedge $-1 $296 $119 $121 $205 forward $73 $-1 #
coedge $-1 $119 $296 $292 $297 forward $73 $-1 #
coedge $-1 $294 $122 $119 $202 forward $207 $-1 #
edge $-1 $209 -20.782968330367606 $298 1.9530345543901468 $201 $299 forward 7 unknown #
coedge $-1 $300 $301 $120 $204 forward $196 $-1 #
edge $-1 $302 -56.402070525511299 $208 -44.99759554679963 $203 $303 forward 7 unknown #
edge $-1 $209 42.762837608706008 $302 63.157364720382681 $121 $304 forward 7 unknown #
coedge $-1 $122 $294 $300 $305 forward $207 $-1 #
loop $-1 $-1 $294 $195 #
vertex $-1 $204 $306 #
vertex $-1 $123 $307 #
straight-curve $-1 -30.197935218356335 16.859308820335308 14.716704885442731 0 -1 0 I I #
coedge $-1 $211 $211 $-1 $308 reversed $126 $-1 #
edge $-1 $309 0 $309 6.2831853071796004 $127 $310 forward 7 unknown #
vertex $-1 $130 $311 #
ellipse-curve $-1 -23.701934394139833 23.124767785143064 9.0144673960869071 0 0.55919291073839883 0.82903756765294845 3 0 0 1 I I #
coedge $-1 $215 $215 $-1 $312 reversed $133 $-1 #
edge $-1 $313 0 $313 6.2831853071796004 $134 $314 forward 7 unknown #
vertex $-1 $137 $315 #
ellipse-curve $-1 -13.957933157815084 23.124767785143064 9.0144673960869071 0 0.55919291073839883 0.82903756765294845 3 0 0 1 I I #
face $-1 $-1 $316 $29 $-1 $317 reversed single #
loop $-1 $-1 $144 $138 #
plane-surface $-1 0 0 14.716704885442729 0 0 1 1 0 0 forward_v I I I I #
coedge $-1 $318 $319 $320 $321 reversed $139 $-1 #
coedge $-1 $322 $141 $143 $229 forward $87 $-1 #
coedge $-1 $141 $322 $318 $323 forward $87 $-1 #
coedge $-1 $320 $144 $141 $226 forward $220 $-1 #
edge $-1 $232 3.5823992650790295 $324 26.318402149836782 $225 $325 forward 7 unknown #
coedge $-1 $326 $327 $142 $228 forward $316 $-1 #
edge $-1 $328 -56.402070525511299 $231 -44.99759554679963 $227 $329 forward 7 unknown #
edge $-1 $232 42.762837608706008 $328 63.157364720382681 $143 $330 forward 7 unknown #
coedge $-1 $144 $320 $326 $331 forward $220 $-1 #
vertex $-1 $145 $332 #
vertex $-1 $145 $333 #
straight-curve $-1 18.532799972536935 16.859308820335308 14.716704885442731 0 -1 0 I I #
coedge $-1 $234 $234 $-1 $334 reversed $148 $-1 #
edge $-1 $335 0 $335 6.2831853071796004 $149 $336 forward 7 unknown #
vertex $-1 $152 $337 #
ellipse-curve $-1 25.028800796753451 23.124767785143064 9.0144673960869071 0 0.55919291073839883 0.82903756765294845 3 0 0 1 I I #
coedge $-1 $238 $238 $-1 $338 reversed $155 $-1 #
edge $-1 $339 0 $339 6.2831853071796004 $156 $340 forward 7 unknown #
vertex $-1 $159 $341 #
ellipse-curve $-1 34.7728020330782 23.124767785143064 9.0144673960869071 0 0.55919291073839883 0.82903756765294845 3 0 0 1 I I #
face $-1 $-1 $175 $24 $-1 $342 reversed single #
loop $-1 $-1 $258 $160 #
plane-surface $-1 0 31.57868236019134 0 0 -1 0 0 0 -1 forward_v I I I I #
coedge $-1 $343 $256 $259 $344 forward $161 $-1 #
coedge $-1 $262 $163 $164 $250 reversed $101 $-1 #
coedge $-1 $256 $343 $163 $248 reversed $161 $-1 #
edge $-1 $263 -14.716704885442729 $345 14.716704885442729 $247 $346 forward 7 unknown #
coedge $-1 $165 $164 $343 $347 forward $65 $-1 #
edge $-1 $254 -48.730735190893277 $345 48.730735190893277 $246 $348 forward 7 unknown #
coedge $-1 $259 $258 $165 $252 reversed $243 $-1 #
edge $-1 $349 -48.730735190893277 $253 48.730735190893277 $251 $350 forward 7 unknown #
vertex $-1 $167 $351 #
vertex $-1 $265 $352 #
straight-curve $-1 48.730735190893277 0 -14.716704885442729 0 -1 0 I I #
coedge $-1 $245 $247 $168 $257 reversed $161 $-1 #
edge $-1 $260 -31.57868236019134 $263 31.57868236019134 $256 $353 forward 7 unknown #
coedge $-1 $251 $169 $174 $266 forward $243 $-1 #
coedge $-1 $169 $251 $245 $344 reversed $243 $-1 #
vertex $-1 $170 $354 #
straight-curve $-1 0 31.57868236019134 14.716704885442729 -1 0 0 I I #
coedge $-1 $171 $246 $173 $265 reversed $101 $-1 #
vertex $-1 $257 $355 #
straight-curve $-1 0 -31.57868236019134 14.716704885442729 1 0 0 I I #
edge $-1 $176 -14.716704885442729 $254 14.716704885442729 $173 $356 forward 7 unknown #
edge $-1 $177 -14.716704885442729 $253 14.716704885442729 $174 $357 forward 7 unknown #
point $-1 48.730735190893277 -31.57868236019134 14.716704885442729 #
point $-1 48.730735190893277 31.57868236019134 14.716704885442729 #
face $-1 $-1 $283 $25 $-1 $358 reversed single #
loop $-1 $-1 $359 $179 #
plane-surface $-1 0 -48.859490231110016 12.572953425476703 0 1 0 0 0 1 forward_v I I I I #
coedge $-1 $360 $182 $191 $287 reversed $109 $-1 #
coedge $-1 $182 $360 $183 $275 reversed $109 $-1 #
coedge $-1 $184 $183 $361 $362 forward $69 $-1 #
edge $-1 $279 31.57868236019134 $363 48.859490231110016 $273 $364 forward 7 unknown #
coedge $-1 $365 $188 $184 $277 reversed $283 $-1 #
edge $-1 $366 -48.859490231110016 $278 -31.57868236019134 $276 $367 forward 7 unknown #
vertex $-1 $189 $368 #
vertex $-1 $275 $369 #
straight-curve $-1 0 -31.57868236019134 14.716704885442729 -1 0 0 I I #
straight-curve $-1 -48.730735190893277 -31.57868236019134 0 0 0 -1 I I #
coedge $-1 $188 $365 $190 $286 reversed $283 $-1 #
loop $-1 $-1 $188 $269 #
straight-curve $-1 48.730735190893277 -31.57868236019134 0 0 0 1 I I #
coedge $-1 $191 $190 $370 $371 forward $180 $-1 #
edge $-1 $192 -8.6404039354593358 $372 8.6404039354593394 $282 $373 forward 7 unknown #
edge $-1 $374 -8.6404039354593394 $193 8.6404039354593358 $272 $375 forward 7 unknown #
point $-1 48.730735190893277 -31.57868236019134 10.42920196551068 #
point $-1 -48.730735190893277 -31.57868236019134 10.42920196551068 #
plane-surface $-1 0 0 14.716704885442729 0 0 1 1 0 0 forward_v I I I I #
coedge $-1 $301 $300 $293 $376 forward $196 $-1 #
coedge $-1 $293 $198 $200 $297 reversed $117 $-1 #
coedge $-1 $198 $292 $291 $376 reversed $117 $-1 #
coedge $-1 $206 $201 $198 $295 forward $207 $-1 #
edge $-1 $298 -2.1884556102405028 $377 14.719373539856033 $294 $378 forward 7 unknown #
coedge $-1 $200 $199 $301 $379 reversed $73 $-1 #
edge $-1 $380 -63.157364720382681 $298 -42.762837608706008 $292 $381 forward 7 unknown #
vertex $-1 $202 $382 #
straight-curve $-1 -9.4149668879887294 14.670853210094812 14.716704885442727 1 0 0 I I #
coedge $-1 $291 $203 $206 $305 reversed $196 $-1 #
coedge $-1 $203 $291 $296 $379 forward $196 $-1 #
vertex $-1 $204 $383 #
straight-curve $-1 -30.197935218356335 31.57868236019134 59.714300432242361 0 0 1 I I #
straight-curve $-1 -30.197935218356335 -20.781145666964854 38.629380519288517 0 0.82903756765294845 -0.55919291073839883 I I #
edge $-1 $377 7.4619323335985825 $208 30.197935218356335 $300 $384 forward 7 unknown #
point $-1 -30.197935218356335 31.57868236019134 14.716704885442729 #
point $-1 -30.197935218356335 14.670853210094805 14.716704885442731 #
edge $-1 $385 1 $385 0 $211 $-1 forward 7 unknown #
vertex $-1 $212 $386 #
ellipse-curve $-1 -23.701934394139833 20.120771932220091 4.5608604791854273 0 0.55919291073839883 0.82903756765294845 3 0 0 1 I I #
point $-1 -20.701934394139833 23.124767785143053 9.0144673960868893 #
edge $-1 $387 1 $387 0 $215 $-1 forward 7 unknown #
vertex $-1 $216 $388 #
ellipse-curve $-1 -13.957933157815084 20.120771932220091 4.5608604791854273 0 0.55919291073839883 0.82903756765294845 3 0 0 1 I I #
point $-1 -10.957933157815084 23.124767785143053 9.0144673960868893 #
loop $-1 $-1 $227 $219 #
plane-surface $-1 0 31.57868236019134 0 0 -1 0 0 0 -1 forward_v I I I I #
coedge $-1 $319 $222 $224 $323 reversed $139 $-1 #
coedge $-1 $222 $318 $389 $390 reversed $139 $-1 #
coedge $-1 $230 $225 $222 $321 forward $220 $-1 #
edge $-1 $324 -2.1884556102405028 $391 14.719373539856033 $320 $392 forward 7 unknown #
coedge $-1 $224 $223 $327 $393 reversed $87 $-1 #
edge $-1 $394 -63.157364720382681 $324 -42.762837608706008 $318 $395 forward 7 unknown #
vertex $-1 $226 $396 #
straight-curve $-1 14.950400707457906 14.670853210094812 14.716704885442727 1 0 0 I I #
coedge $-1 $389 $227 $230 $331 reversed $316 $-1 #
coedge $-1 $227 $389 $322 $393 forward $316 $-1 #
vertex $-1 $228 $397 #
straight-curve $-1 18.532799972536935 31.57868236019134 59.714300432242361 0 0 1 I I #
straight-curve $-1 18.532799972536935 -20.781145666964854 38.629380519288517 0 0.82903756765294845 -0.55919291073839883 I I #
edge $-1 $391 -41.268802857294688 $231 -18.532799972536935 $326 $398 forward 7 unknown #
point $-1 18.532799972536935 31.57868236019134 14.716704885442729 #
point $-1 18.532799972536935 14.670853210094805 14.716704885442731 #
edge $-1 $399 1 $399 0 $234 $-1 forward 7 unknown #
vertex $-1 $235 $400 #
ellipse-curve $-1 25.028800796753451 20.120771932220091 4.5608604791854273 0 0.55919291073839883 0.82903756765294845 3 0 0 1 I I #
point $-1 28.028800796753451 23.124767785143053 9.0144673960868893 #
edge $-1 $401 1 $401 0 $238 $-1 forward 7 unknown #
vertex $-1 $239 $402 #
ellipse-curve $-1 34.7728020330782 20.120771932220091 4.5608604791854273 0 0.55919291073839883 0.82903756765294845 3 0 0 1 I I #
point $-1 37.7728020330782 23.124767785143053 9.0144673960868893 #
plane-surface $-1 48.730735190893277 0 0 -1 0 0 0 0 1 forward_v I I I I #
coedge $-1 $247 $245 $249 $347 reversed $161 $-1 #
edge $-1 $260 -14.716704885442729 $349 14.716704885442729 $259 $403 forward 7 unknown #
vertex $-1 $347 $404 #
straight-curve $-1 -48.730735190893277 -31.57868236019134 0 0 0 -1 I I #
edge $-1 $345 -31.57868236019134 $349 31.57868236019134 $343 $405 forward 7 unknown #
straight-curve $-1 0 -31.57868236019134 -14.716704885442729 -1 0 0 I I #
vertex $-1 $252 $406 #
straight-curve $-1 0 31.57868236019134 -14.716704885442729 1 0 0 I I #
point $-1 48.730735190893277 31.57868236019134 -14.716704885442729 #
point $-1 48.730735190893277 -31.57868236019134 -14.716704885442729 #
straight-curve $-1 -48.730735190893277 0 14.716704885442729 0 -1 0 I I #
point $-1 -48.730735190893277 31.57868236019134 14.716704885442729 #
point $-1 -48.730735190893277 -31.57868236019134 14.716704885442729 #
straight-curve $-1 48.730735190893277 -31.57868236019134 0 0 0 -1 I I #
straight-curve $-1 48.730735190893277 31.57868236019134 0 0 0 -1 I I #
plane-surface $-1 48.730735190893277 0 0 -1 0 0 0 0 1 forward_v I I I I #
coedge $-1 $370 $361 $360 $407 forward $270 $-1 #
coedge $-1 $273 $272 $359 $407 reversed $109 $-1 #
coedge $-1 $359 $408 $274 $362 reversed $270 $-1 #
edge $-1 $363 -48.730735190893277 $366 48.730735190893277 $361 $409 forward 7 unknown #
vertex $-1 $275 $410 #
straight-curve $-1 -48.730735190893277 0 14.716704885442729 0 -1 0 I I #
coedge $-1 $282 $276 $408 $411 forward $283 $-1 #
vertex $-1 $277 $412 #
straight-curve $-1 48.730735190893277 0 14.716704885442729 0 1 0 I I #
point $-1 48.730735190893277 -31.57868236019134 14.716704885442729 #
point $-1 -48.730735190893277 -31.57868236019134 14.716704885442729 #
coedge $-1 $408 $359 $285 $371 reversed $270 $-1 #
edge $-1 $372 -48.730735190893277 $374 48.730735190893277 $370 $413 forward 7 unknown #
vertex $-1 $411 $414 #
straight-curve $-1 48.730735190893277 -40.219086295650676 10.42920196551068 0 -1 0 I I #
vertex $-1 $287 $415 #
straight-curve $-1 -48.730735190893277 -40.219086295650676 10.42920196551068 0 1 0 I I #
edge $-1 $377 44.99759554679963 $380 56.402070525511299 $291 $416 forward 7 unknown #
vertex $-1 $305 $417 #
straight-curve $-1 -7.4619323335985825 16.859308820335308 14.716704885442731 0 1 0 I I #
edge $-1 $380 -1.9530345543901468 $302 20.782968330367606 $301 $418 forward 7 unknown #
vertex $-1 $379 $419 #
straight-curve $-1 -7.4619323335985825 -20.781145666964854 38.629380519288517 0 -0.82903756765294845 0.55919291073839883 I I #
point $-1 -7.4619323335985825 14.670853210094805 14.716704885442731 #
point $-1 -30.197935218356335 31.578682360191344 3.3122299067310621 #
straight-curve $-1 0 31.57868236019134 14.716704885442729 -1 0 0 I I #
vertex $-1 $308 $420 #
point $-1 -20.701934394139833 20.120771932220091 4.5608604791854273 #
vertex $-1 $312 $421 #
point $-1 -10.957933157815084 20.120771932220091 4.5608604791854273 #
coedge $-1 $327 $326 $319 $390 forward $316 $-1 #
edge $-1 $391 44.99759554679963 $394 56.402070525511299 $389 $422 forward 7 unknown #
vertex $-1 $331 $423 #
straight-curve $-1 41.268802857294688 16.859308820335308 14.716704885442731 0 1 0 I I #
edge $-1 $394 -26.318402149836782 $328 -3.5823992650790295 $327 $424 forward 7 unknown #
vertex $-1 $393 $425 #
straight-curve $-1 41.268802857294688 -20.781145666964854 38.629380519288517 0 -0.82903756765294845 0.55919291073839883 I I #
point $-1 41.268802857294688 14.670853210094805 14.716704885442731 #
point $-1 18.532799972536935 31.578682360191344 3.3122299067310621 #
straight-curve $-1 0 31.57868236019134 14.716704885442729 -1 0 0 I I #
vertex $-1 $334 $426 #
point $-1 28.028800796753451 20.120771932220091 4.5608604791854273 #
vertex $-1 $338 $427 #
point $-1 37.7728020330782 20.120771932220091 4.5608604791854273 #
straight-curve $-1 -48.730735190893277 31.57868236019134 0 0 0 -1 I I #
point $-1 -48.730735190893277 -31.57868236019134 -14.716704885442729 #
straight-curve $-1 -48.730735190893277 0 -14.716704885442729 0 1 0 I I #
point $-1 -48.730735190893277 31.57868236019134 -14.716704885442729 #
edge $-1 $363 -2.1437514599660226 $374 2.1437514599660226 $360 $428 forward 7 unknown #
coedge $-1 $361 $370 $365 $411 reversed $270 $-1 #
straight-curve $-1 0 -48.859490231110016 14.716704885442725 1 0 0 I I #
point $-1 -48.730735190893277 -48.859490231110016 14.716704885442725 #
edge $-1 $366 -2.1437514599660226 $372 2.1437514599660226 $365 $429 forward 7 unknown #
point $-1 48.730735190893277 -48.859490231110016 14.716704885442725 #
straight-curve $-1 0 -48.859490231110016 10.42920196551068 -1 0 0 I I #
point $-1 48.730735190893277 -48.859490231110016 10.42920196551068 #
point $-1 -48.730735190893277 -48.859490231110016 10.42920196551068 #
straight-curve $-1 -7.4619323335985825 31.57868236019134 59.714300432242361 0 0 -1 I I #
point $-1 -7.4619323335985825 31.57868236019134 14.716704885442729 #
straight-curve $-1 -9.4149668879887294 31.57868236019134 3.3122299067310621 -1 0 0 I I #
point $-1 -7.4619323335985825 31.578682360191344 3.3122299067310621 #
point $-1 -23.701934394139833 18.443193200004895 2.0737477762265812 #
point $-1 -13.957933157815084 18.443193200004895 2.0737477762265812 #
straight-curve $-1 41.268802857294688 31.57868236019134 59.714300432242361 0 0 -1 I I #
point $-1 41.268802857294688 31.57868236019134 14.716704885442729 #
straight-curve $-1 14.950400707457906 31.57868236019134 3.3122299067310621 -1 0 0 I I #
point $-1 41.268802857294688 31.578682360191344 3.3122299067310621 #
point $-1 25.028800796753451 18.443193200004895 2.0737477762265812 #
point $-1 34.7728020330782 18.443193200004895 2.0737477762265812 #
straight-curve $-1 -48.730735190893277 -48.859490231110016 12.572953425476703 0 0 -1 I I #
straight-curve $-1 48.730735190893277 -48.859490231110016 12.572953425476703 0 0 -1 I I #
End-of-ACIS-data 