500 0 9 0           
7 Unknown 11 ACIS 5.0 NT 24 Fri Mar 26 15:41:13 1999 
-1 9.9999999999999995e-007 1e-010 
body $-1 $9 $-1 $10 #
body $-1 $11 $-1 $12 #
body $-1 $13 $-1 $14 #
body $-1 $15 $-1 $16 #
body $-1 $17 $-1 $18 #
body $-1 $19 $-1 $20 #
body $-1 $21 $-1 $22 #
body $-1 $23 $-1 $24 #
body $-1 $25 $-1 $26 #
lump $-1 $-1 $27 $0 #
transform $-1 1 0 0 0 1 0 0 0 1 54.642780846583449 21.892632564227185 4.4378565025211278 1 rotate no_reflect no_shear #
lump $-1 $-1 $28 $1 #
transform $-1 1 0 0 0 1 0 0 0 1 54.642780846583449 21.892632564227185 4.4378565025211278 1 rotate no_reflect no_shear #
lump $-1 $-1 $29 $2 #
transform $-1 1 0 0 0 1 0 0 0 1 54.642780846583449 21.892632564227185 4.4378565025211278 1 rotate no_reflect no_shear #
lump $-1 $-1 $30 $3 #
transform $-1 1 0 0 0 1 0 0 0 1 54.642780846583449 21.892632564227185 4.4378565025211278 1 rotate no_reflect no_shear #
lump $-1 $-1 $31 $4 #
transform $-1 1 0 0 0 1 0 0 0 1 54.642780846583449 21.892632564227185 4.4378565025211278 1 rotate no_reflect no_shear #
lump $-1 $-1 $32 $5 #
transform $-1 1 0 0 0 1 0 0 0 1 54.642780846583449 21.892632564227185 4.4378565025211278 1 rotate no_reflect no_shear #
lump $-1 $-1 $33 $6 #
transform $-1 1 0 0 0 1 0 0 0 1 54.642780846583449 21.892632564227185 4.4378565025211278 1 rotate no_reflect no_shear #
lump $-1 $-1 $34 $7 #
transform $-1 1 0 0 0 1 0 0 0 1 54.642780846583449 21.892632564227185 4.4378565025211278 1 rotate no_reflect no_shear #
lump $-1 $-1 $35 $8 #
transform $-1 1 0 0 0 1 0 0 0 1 54.642780846583449 21.892632564227185 4.4378565025211278 1 rotate no_reflect no_shear #
shell $-1 $-1 $-1 $36 $-1 $9 #
shell $-1 $-1 $-1 $37 $-1 $11 #
shell $-1 $-1 $-1 $38 $-1 $13 #
shell $-1 $-1 $-1 $39 $-1 $15 #
shell $-1 $-1 $-1 $40 $-1 $17 #
shell $-1 $-1 $-1 $41 $-1 $19 #
shell $-1 $-1 $-1 $42 $-1 $21 #
shell $-1 $-1 $-1 $43 $-1 $23 #
shell $-1 $-1 $-1 $44 $-1 $25 #
face $-1 $45 $46 $27 $-1 $47 forward single #
face $-1 $48 $49 $28 $-1 $50 forward single #
face $-1 $51 $52 $29 $-1 $53 reversed single #
face $-1 $54 $55 $30 $-1 $56 forward single #
face $-1 $57 $58 $31 $-1 $59 forward single #
face $-1 $60 $61 $32 $-1 $62 reversed single #
face $-1 $63 $64 $33 $-1 $65 forward single #
face $-1 $66 $67 $34 $-1 $68 forward single #
face $-1 $69 $70 $35 $-1 $71 forward single #
face $-1 $72 $73 $27 $-1 $74 reversed single #
loop $-1 $-1 $75 $36 #
plane-surface $-1 0 0 4.4378565025211278 0 0 1 1 0 0 forward_v I I I I #
face $-1 $76 $77 $28 $-1 $78 reversed single #
loop $-1 $-1 $79 $37 #
plane-surface $-1 0 -19.864546905182493 -1.4378565025211278 0 0 1 1 0 0 forward_v I I I I #
face $-1 $80 $81 $29 $-1 $82 reversed single #
loop $-1 $-1 $83 $38 #
plane-surface $-1 51.945458671889384 7.9450879191127637 155.39053423510524 0 -1 0 -0.69465837861970381 0 -0.71933979245794832 forward_v I I I I #
face $-1 $84 $85 $30 $-1 $86 forward single #
loop $-1 $87 $88 $39 #
cone-surface $-1 52.44345407852213 2.9417534246524149 2.2897332929182657 -0.69465837861970381 0 -0.71933979245794832 0.17983494811448708 0 -0.17366459465492595 1 I I 0 1 0.25 forward I I I I #
face $-1 $89 $90 $31 $-1 $91 forward single #
loop $-1 $92 $93 $40 #
cone-surface $-1 52.44345407852213 5.9437541213286238 2.2897332929182657 -0.69465837861970381 0 -0.71933979245794832 0.17983494811448708 0 -0.17366459465492595 1 I I 0 1 0.25 forward I I I I #
face $-1 $94 $95 $32 $-1 $96 reversed single #
loop $-1 $-1 $97 $41 #
plane-surface $-1 -138.36037900038036 -10.006985728067797 71.15341980121508 0 1 0 -0.7660444514056185 0 0.64278759981090561 forward_v I I I I #
face $-1 $98 $99 $33 $-1 $100 forward single #
loop $-1 $101 $102 $42 #
cone-surface $-1 -52.511483670170307 -8.7969787839127562 2.1269291397163386 0.7660444514056185 0 -0.64278759981090561 0.3213937999054528 0 0.38302222570280925 1 I I 0 1 0.5 forward I I I I #
face $-1 $103 $104 $34 $-1 $105 forward single #
loop $-1 $106 $107 $43 #
cone-surface $-1 -52.511483670170307 -6.9819683676801922 2.1269291397163386 0.7660444514056185 0 -0.64278759981090561 0.3213937999054528 0 0.38302222570280925 1 I I 0 1 0.5 forward I I I I #
face $-1 $108 $109 $35 $-1 $110 forward single #
loop $-1 $111 $112 $44 #
cone-surface $-1 -52.511483670170307 -5.1669579514476283 2.1269291397163386 0.7660444514056185 0 -0.64278759981090561 0.3213937999054528 0 0.38302222570280925 1 I I 0 1 0.5 forward I I I I #
face $-1 $113 $114 $27 $-1 $115 reversed single #
loop $-1 $-1 $116 $45 #
plane-surface $-1 0 0 -4.4378565025211278 0 0 1 1 0 0 forward_v I I I I #
coedge $-1 $117 $118 $119 $120 forward $46 $-1 #
face $-1 $121 $122 $28 $-1 $123 reversed single #
loop $-1 $-1 $124 $48 #
plane-surface $-1 0 -17.836461246137802 -2.9378565025211278 0 -1 0 0 0 -1 forward_v I I I I #
coedge $-1 $125 $126 $127 $128 reversed $49 $-1 #
face $-1 $129 $130 $29 $-1 $131 reversed single #
loop $-1 $-1 $132 $51 #
plane-surface $-1 -23.970672420429551 4.4427537729905211 76.77708096809225 0.69465837861970381 0 0.71933979245794832 0.71933979245794832 0 -0.69465837861970381 forward_v I I I I #
coedge $-1 $133 $134 $135 $136 reversed $52 $-1 #
face $-1 $-1 $137 $30 $-1 $138 forward single #
loop $-1 $139 $140 $54 #
cone-surface $-1 52.009292591884815 2.9417534246524149 1.8401459226320478 -0.69465837861970381 0 -0.71933979245794832 0.08991747405724354 0 -0.086832297327462976 1 I I -0.70710678118654746 0.70710678118654746 0.125 forward I I I I #
loop $-1 $-1 $141 $39 #
coedge $-1 $88 $88 $142 $143 reversed $55 $-1 #
face $-1 $-1 $144 $31 $-1 $145 forward single #
loop $-1 $146 $147 $57 #
cone-surface $-1 52.009292591884815 5.9437541213286238 1.8401459226320478 -0.69465837861970381 0 -0.71933979245794832 0.08991747405724354 0 -0.086832297327462976 1 I I -0.70710678118654746 0.70710678118654746 0.125 forward I I I I #
loop $-1 $-1 $148 $40 #
coedge $-1 $93 $93 $149 $150 reversed $58 $-1 #
face $-1 $151 $152 $32 $-1 $153 reversed single #
loop $-1 $-1 $154 $60 #
plane-surface $-1 -54.642780846583449 -6.9819683676801922 0.90601590647767694 -0.7660444514056185 0 0.64278759981090561 0.64278759981090561 0 0.7660444514056185 forward_v I I I I #
coedge $-1 $155 $156 $157 $158 reversed $61 $-1 #
face $-1 $-1 $159 $33 $-1 $160 forward single #
loop $-1 $161 $162 $63 #
cone-surface $-1 -51.670458412869408 -8.7969787839127562 1.4212251749805533 0.7660444514056185 0 -0.64278759981090561 0.1606968999527264 0 0.19151111285140462 1 I I -0.70710678118654746 0.70710678118654746 0.25 forward I I I I #
loop $-1 $-1 $163 $42 #
coedge $-1 $102 $102 $164 $165 reversed $64 $-1 #
face $-1 $-1 $166 $34 $-1 $167 forward single #
loop $-1 $168 $169 $66 #
cone-surface $-1 -51.670458412869408 -6.9819683676801922 1.4212251749805533 0.7660444514056185 0 -0.64278759981090561 0.1606968999527264 0 0.19151111285140462 1 I I -0.70710678118654746 0.70710678118654746 0.25 forward I I I I #
loop $-1 $-1 $170 $43 #
coedge $-1 $107 $107 $171 $172 reversed $67 $-1 #
face $-1 $-1 $173 $35 $-1 $174 forward single #
loop $-1 $175 $176 $69 #
cone-surface $-1 -51.670458412869408 -5.1669579514476283 1.4212251749805533 0.7660444514056185 0 -0.64278759981090561 0.1606968999527264 0 0.19151111285140462 1 I I -0.70710678118654746 0.70710678118654746 0.25 forward I I I I #
loop $-1 $-1 $177 $44 #
coedge $-1 $112 $112 $178 $179 reversed $70 $-1 #
face $-1 $180 $181 $27 $-1 $182 reversed single #
loop $-1 $-1 $183 $72 #
plane-surface $-1 0 -21.892632564227185 0 0 1 0 0 0 1 forward_v I I I I #
coedge $-1 $184 $185 $186 $187 forward $73 $-1 #
coedge $-1 $188 $75 $189 $190 forward $46 $-1 #
coedge $-1 $75 $188 $191 $192 forward $46 $-1 #
coedge $-1 $193 $194 $75 $120 reversed $195 $-1 #
edge $-1 $196 -21.892632564227185 $197 21.892632564227185 $119 $198 forward 7 unknown #
face $-1 $199 $200 $28 $-1 $201 reversed single #
loop $-1 $-1 $202 $76 #
plane-surface $-1 0 0 -4.4378565025211278 0 0 1 1 0 0 forward_v I I I I #
coedge $-1 $203 $204 $205 $206 reversed $77 $-1 #
coedge $-1 $207 $79 $204 $208 forward $49 $-1 #
coedge $-1 $79 $207 $209 $210 reversed $49 $-1 #
coedge $-1 $211 $205 $79 $128 forward $200 $-1 #
edge $-1 $212 7.904187793546555 $213 11.960359111635938 $127 $214 forward 7 unknown #
face $-1 $215 $216 $29 $-1 $217 reversed single #
loop $-1 $-1 $218 $80 #
plane-surface $-1 51.945458671889384 0.94041962686827851 155.39053423510524 0 1 0 0.69465837861970381 0 0.71933979245794832 forward_v I I I I #
coedge $-1 $219 $220 $221 $222 reversed $81 $-1 #
coedge $-1 $134 $83 $223 $224 reversed $52 $-1 #
coedge $-1 $83 $133 $219 $225 reversed $52 $-1 #
coedge $-1 $221 $226 $83 $136 forward $227 $-1 #
edge $-1 $228 -28.670051510638757 $229 -24.966056353135798 $135 $230 forward 7 unknown #
loop $-1 $-1 $142 $84 #
plane-surface $-1 -23.970672420429551 4.4427537729905211 76.77708096809225 0.69465837861970381 0 0.71933979245794832 0.71933979245794832 0 -0.69465837861970381 forward_v I I I I #
loop $-1 $-1 $231 $54 #
coedge $-1 $140 $140 $141 $232 reversed $85 $-1 #
coedge $-1 $141 $141 $140 $232 forward $87 $-1 #
coedge $-1 $142 $142 $88 $143 forward $137 $-1 #
edge $-1 $233 0 $233 6.2831853071796004 $142 $234 forward 7 unknown #
loop $-1 $-1 $149 $89 #
plane-surface $-1 -23.970672420429551 4.4427537729905211 76.77708096809225 0.69465837861970381 0 0.71933979245794832 0.71933979245794832 0 -0.69465837861970381 forward_v I I I I #
loop $-1 $-1 $235 $57 #
coedge $-1 $147 $147 $148 $236 reversed $90 $-1 #
coedge $-1 $148 $148 $147 $236 forward $92 $-1 #
coedge $-1 $149 $149 $93 $150 forward $144 $-1 #
edge $-1 $237 0 $237 6.2831853071796004 $149 $238 forward 7 unknown #
face $-1 $239 $240 $32 $-1 $241 forward single #
loop $-1 $-1 $242 $94 #
plane-surface $-1 -138.36037900038036 -3.9569510072925871 71.15341980121508 0 -1 0 0.7660444514056185 0 -0.64278759981090561 forward_v I I I I #
coedge $-1 $243 $244 $245 $246 reversed $95 $-1 #
coedge $-1 $156 $97 $247 $248 reversed $61 $-1 #
coedge $-1 $97 $155 $243 $249 reversed $61 $-1 #
coedge $-1 $245 $250 $97 $158 forward $240 $-1 #
edge $-1 $251 14.537408653606732 $252 17.500974717534021 $157 $253 forward 7 unknown #
loop $-1 $-1 $164 $98 #
plane-surface $-1 -54.642780846583449 -6.9819683676801922 0.90601590647767694 -0.7660444514056185 0 0.64278759981090561 0.64278759981090561 0 0.7660444514056185 forward_v I I I I #
loop $-1 $-1 $254 $63 #
coedge $-1 $162 $162 $163 $255 reversed $99 $-1 #
coedge $-1 $163 $163 $162 $255 forward $101 $-1 #
coedge $-1 $164 $164 $102 $165 forward $159 $-1 #
edge $-1 $256 0 $256 6.2831853071796004 $164 $257 forward 7 unknown #
loop $-1 $-1 $171 $103 #
plane-surface $-1 -54.642780846583449 -6.9819683676801922 0.90601590647767694 -0.7660444514056185 0 0.64278759981090561 0.64278759981090561 0 0.7660444514056185 forward_v I I I I #
loop $-1 $-1 $258 $66 #
coedge $-1 $169 $169 $170 $259 reversed $104 $-1 #
coedge $-1 $170 $170 $169 $259 forward $106 $-1 #
coedge $-1 $171 $171 $107 $172 forward $166 $-1 #
edge $-1 $260 0 $260 6.2831853071796004 $171 $261 forward 7 unknown #
loop $-1 $-1 $178 $108 #
plane-surface $-1 -54.642780846583449 -6.9819683676801922 0.90601590647767694 -0.7660444514056185 0 0.64278759981090561 0.64278759981090561 0 0.7660444514056185 forward_v I I I I #
loop $-1 $-1 $262 $69 #
coedge $-1 $176 $176 $177 $263 reversed $109 $-1 #
coedge $-1 $177 $177 $176 $263 forward $111 $-1 #
coedge $-1 $178 $178 $112 $179 forward $173 $-1 #
edge $-1 $264 0 $264 6.2831853071796004 $178 $265 forward 7 unknown #
face $-1 $266 $267 $27 $-1 $268 reversed single #
loop $-1 $-1 $269 $113 #
plane-surface $-1 -54.642780846583449 0 0 1 0 0 0 0 -1 forward_v I I I I #
coedge $-1 $270 $191 $271 $272 forward $114 $-1 #
coedge $-1 $273 $116 $270 $274 forward $73 $-1 #
coedge $-1 $116 $273 $275 $276 forward $73 $-1 #
coedge $-1 $194 $193 $116 $187 reversed $195 $-1 #
edge $-1 $277 -21.892632564227185 $278 21.892632564227185 $186 $279 forward 7 unknown #
coedge $-1 $118 $117 $280 $281 forward $46 $-1 #
coedge $-1 $282 $283 $117 $190 reversed $267 $-1 #
edge $-1 $197 -54.642780846583449 $284 54.642780846583449 $189 $285 forward 7 unknown #
coedge $-1 $183 $286 $118 $192 reversed $114 $-1 #
edge $-1 $287 -54.642780846583449 $196 54.642780846583449 $191 $288 forward 7 unknown #
coedge $-1 $186 $119 $286 $289 forward $195 $-1 #
coedge $-1 $119 $186 $282 $290 reversed $195 $-1 #
loop $-1 $-1 $193 $266 #
vertex $-1 $120 $291 #
vertex $-1 $120 $292 #
straight-curve $-1 54.642780846583449 0 4.4378565025211278 0 1 0 I I #
face $-1 $293 $294 $28 $-1 $295 reversed single #
loop $-1 $-1 $205 $121 #
plane-surface $-1 54.642780846583449 0 0 -1 0 0 0 0 1 forward_v I I I I #
coedge $-1 $296 $297 $203 $298 forward $122 $-1 #
coedge $-1 $299 $124 $202 $298 reversed $77 $-1 #
coedge $-1 $124 $299 $125 $208 reversed $77 $-1 #
coedge $-1 $127 $300 $124 $206 forward $200 $-1 #
edge $-1 $301 -2.9689282512605639 $212 0.031071748739436078 $205 $302 forward 7 unknown #
coedge $-1 $126 $125 $303 $304 reversed $49 $-1 #
edge $-1 $212 -54.642780846583449 $305 54.642780846583449 $204 $306 forward 7 unknown #
coedge $-1 $307 $308 $126 $210 forward $294 $-1 #
edge $-1 $213 -54.642780846583449 $309 54.642780846583449 $209 $310 forward 7 unknown #
coedge $-1 $300 $127 $308 $311 forward $200 $-1 #
vertex $-1 $128 $312 #
vertex $-1 $311 $313 #
straight-curve $-1 54.642780846583449 -9.9322734525912466 -1.4378565025211278 0 -1 0 I I #
face $-1 $-1 $227 $29 $-1 $314 forward single #
loop $-1 $-1 $315 $129 #
plane-surface $-1 54.642780846583449 0 0 -1 0 0 0 0 1 forward_v I I I I #
coedge $-1 $316 $317 $318 $319 reversed $130 $-1 #
coedge $-1 $320 $132 $134 $225 forward $81 $-1 #
coedge $-1 $132 $320 $316 $321 forward $81 $-1 #
coedge $-1 $318 $135 $132 $222 forward $227 $-1 #
edge $-1 $229 -5.7237110326175031 $322 1.280957259626982 $221 $323 forward 7 unknown #
coedge $-1 $324 $325 $133 $224 forward $216 $-1 #
edge $-1 $326 -76.834317241779317 $228 -73.257410615031489 $223 $327 forward 7 unknown #
edge $-1 $229 104.13640242749277 $326 109.28556169316691 $134 $328 forward 7 unknown #
coedge $-1 $135 $318 $324 $329 forward $227 $-1 #
loop $-1 $-1 $318 $215 #
vertex $-1 $224 $330 #
vertex $-1 $136 $331 #
straight-curve $-1 25.972729335944692 7.9450879191127637 4.4378565025211287 -1 0 0 I I #
coedge $-1 $231 $231 $-1 $332 reversed $139 $-1 #
edge $-1 $333 0 $333 6.2831853071796004 $140 $334 forward 7 unknown #
vertex $-1 $143 $335 #
ellipse-curve $-1 52.790783267831962 2.9417534246524149 2.6494031891472192 0.69465837861970381 0 0.71933979245794832 0.17983494811448708 0 -0.17366459465492595 1 I I #
coedge $-1 $235 $235 $-1 $336 reversed $146 $-1 #
edge $-1 $337 0 $337 6.2831853071796004 $147 $338 forward 7 unknown #
vertex $-1 $150 $339 #
ellipse-curve $-1 52.790783267831962 5.9437541213286238 2.6494031891472192 0.69465837861970381 0 0.71933979245794832 0.17983494811448708 0 -0.17366459465492595 1 I I #
face $-1 $-1 $340 $32 $-1 $341 reversed single #
loop $-1 $-1 $157 $151 #
plane-surface $-1 0 0 4.4378565025211278 0 0 1 1 0 0 forward_v I I I I #
coedge $-1 $342 $343 $344 $345 reversed $152 $-1 #
coedge $-1 $346 $154 $156 $249 forward $95 $-1 #
coedge $-1 $154 $346 $342 $347 forward $95 $-1 #
coedge $-1 $344 $157 $154 $246 forward $240 $-1 #
edge $-1 $252 -6.5160015442277004 $348 -0.46596682345249096 $245 $349 forward 7 unknown #
coedge $-1 $350 $351 $155 $248 forward $340 $-1 #
edge $-1 $352 -34.670693994129863 $251 -31.138853398086411 $247 $353 forward 7 unknown #
edge $-1 $252 -4.6104904089610743 $352 0 $156 $354 forward 7 unknown #
coedge $-1 $157 $344 $350 $355 forward $240 $-1 #
vertex $-1 $248 $356 #
vertex $-1 $158 $357 #
straight-curve $-1 -69.180189500190181 -10.006985728067797 4.4378565025211287 1 0 0 I I #
coedge $-1 $254 $254 $-1 $358 reversed $161 $-1 #
edge $-1 $359 0 $359 6.2831853071796004 $162 $360 forward 7 unknown #
vertex $-1 $165 $361 #
ellipse-curve $-1 -53.160997814619805 -8.7969787839127562 2.6719362044994006 -0.7660444514056185 0 0.64278759981090561 0.3213937999054528 0 0.38302222570280925 1 I I #
coedge $-1 $258 $258 $-1 $362 reversed $168 $-1 #
edge $-1 $363 0 $363 6.2831853071796004 $169 $364 forward 7 unknown #
vertex $-1 $172 $365 #
ellipse-curve $-1 -53.160997814619805 -6.9819683676801922 2.6719362044994006 -0.7660444514056185 0 0.64278759981090561 0.3213937999054528 0 0.38302222570280925 1 I I #
coedge $-1 $262 $262 $-1 $366 reversed $175 $-1 #
edge $-1 $367 0 $367 6.2831853071796004 $176 $368 forward 7 unknown #
vertex $-1 $179 $369 #
ellipse-curve $-1 -53.160997814619805 -5.1669579514476283 2.6719362044994006 -0.7660444514056185 0 0.64278759981090561 0.3213937999054528 0 0.38302222570280925 1 I I #
face $-1 $-1 $195 $27 $-1 $370 reversed single #
loop $-1 $-1 $282 $180 #
plane-surface $-1 0 21.892632564227185 0 0 -1 0 0 0 -1 forward_v I I I I #
coedge $-1 $371 $280 $283 $372 forward $181 $-1 #
coedge $-1 $286 $183 $184 $274 reversed $114 $-1 #
coedge $-1 $280 $371 $183 $272 reversed $181 $-1 #
edge $-1 $287 -4.4378565025211278 $373 4.4378565025211278 $271 $374 forward 7 unknown #
coedge $-1 $185 $184 $371 $375 forward $73 $-1 #
edge $-1 $278 -54.642780846583449 $373 54.642780846583449 $270 $376 forward 7 unknown #
coedge $-1 $283 $282 $185 $276 reversed $267 $-1 #
edge $-1 $377 -54.642780846583449 $277 54.642780846583449 $275 $378 forward 7 unknown #
vertex $-1 $187 $379 #
vertex $-1 $289 $380 #
straight-curve $-1 54.642780846583449 0 -4.4378565025211278 0 -1 0 I I #
coedge $-1 $269 $271 $188 $281 reversed $181 $-1 #
edge $-1 $284 -21.892632564227185 $287 21.892632564227185 $280 $381 forward 7 unknown #
coedge $-1 $275 $189 $194 $290 forward $267 $-1 #
coedge $-1 $189 $275 $269 $372 reversed $267 $-1 #
vertex $-1 $190 $382 #
straight-curve $-1 0 21.892632564227185 4.4378565025211278 -1 0 0 I I #
coedge $-1 $191 $270 $193 $289 reversed $114 $-1 #
vertex $-1 $281 $383 #
straight-curve $-1 0 -21.892632564227185 4.4378565025211278 1 0 0 I I #
edge $-1 $196 -4.4378565025211278 $278 4.4378565025211278 $193 $384 forward 7 unknown #
edge $-1 $197 -4.4378565025211278 $277 4.4378565025211278 $194 $385 forward 7 unknown #
point $-1 54.642780846583449 -21.892632564227185 4.4378565025211278 #
point $-1 54.642780846583449 21.892632564227185 4.4378565025211278 #
face $-1 $-1 $386 $28 $-1 $387 reversed single #
loop $-1 $-1 $209 $199 #
plane-surface $-1 0 -21.892632564227185 0 0 1 0 0 0 1 forward_v I I I I #
coedge $-1 $388 $202 $300 $389 forward $122 $-1 #
coedge $-1 $202 $388 $390 $391 forward $122 $-1 #
edge $-1 $392 -54.642780846583449 $301 54.642780846583449 $202 $393 forward 7 unknown #
coedge $-1 $204 $203 $394 $395 reversed $77 $-1 #
coedge $-1 $205 $211 $296 $389 reversed $200 $-1 #
vertex $-1 $389 $396 #
straight-curve $-1 54.642780846583449 -17.836461246137802 -1.4689282512605639 0 0 1 I I #
coedge $-1 $394 $397 $207 $304 forward $386 $-1 #
edge $-1 $309 -11.960359111635938 $305 -7.904187793546555 $303 $398 forward 7 unknown #
vertex $-1 $304 $399 #
straight-curve $-1 0 -17.836461246137802 -1.4378565025211278 -1 0 0 I I #
coedge $-1 $400 $209 $397 $401 forward $294 $-1 #
coedge $-1 $209 $400 $211 $311 reversed $294 $-1 #
vertex $-1 $401 $402 #
straight-curve $-1 0 -21.892632564227185 -1.4378565025211278 -1 0 0 I I #
edge $-1 $213 1.4378565025211278 $403 4.4378565025211278 $211 $404 forward 7 unknown #
point $-1 54.642780846583449 -17.836461246137802 -1.4378565025211278 #
point $-1 54.642780846583449 -21.892632564227185 -1.4378565025211278 #
plane-surface $-1 0 0 4.4378565025211278 0 0 1 1 0 0 forward_v I I I I #
coedge $-1 $325 $324 $317 $405 forward $216 $-1 #
coedge $-1 $317 $218 $220 $321 reversed $130 $-1 #
coedge $-1 $218 $316 $315 $405 reversed $130 $-1 #
coedge $-1 $226 $221 $218 $319 forward $227 $-1 #
edge $-1 $322 24.966056353135798 $406 28.670051510638757 $318 $407 forward 7 unknown #
coedge $-1 $220 $219 $325 $408 reversed $81 $-1 #
edge $-1 $409 -109.28556169316691 $322 -104.13640242749277 $316 $410 forward 7 unknown #
vertex $-1 $222 $411 #
straight-curve $-1 50.93878568908049 2.2213768864952605 4.4378565025211216 0 -1 0 I I #
coedge $-1 $315 $223 $226 $329 reversed $216 $-1 #
coedge $-1 $223 $315 $320 $408 forward $216 $-1 #
vertex $-1 $224 $412 #
straight-curve $-1 54.642780846583449 7.9450879191127637 77.695267117552618 0 0 1 I I #
straight-curve $-1 -23.970672420429551 7.9450879191127637 76.77708096809225 0.71933979245794832 0 -0.69465837861970381 I I #
edge $-1 $406 0.94041962686827851 $228 7.9450879191127637 $324 $413 forward 7 unknown #
point $-1 54.642780846583449 7.9450879191127637 4.4378565025211278 #
point $-1 50.93878568908049 7.9450879191127637 4.4378565025211287 #
edge $-1 $414 1 $414 0 $231 $-1 forward 7 unknown #
vertex $-1 $232 $415 #
ellipse-curve $-1 52.096124889212277 2.9417534246524149 1.9300633966892913 0.69465837861970381 0 0.71933979245794832 0.17983494811448708 0 -0.17366459465492595 1 I I #
point $-1 52.970618215946466 2.9417534246524149 2.4757385944923138 #
edge $-1 $416 1 $416 0 $235 $-1 forward 7 unknown #
vertex $-1 $236 $417 #
ellipse-curve $-1 52.096124889212277 5.9437541213286238 1.9300633966892913 0.69465837861970381 0 0.71933979245794832 0.17983494811448708 0 -0.17366459465492595 1 I I #
point $-1 52.970618215946466 5.9437541213286238 2.4757385944923138 #
loop $-1 $-1 $247 $239 #
plane-surface $-1 -54.642780846583449 0 0 1 0 0 0 0 -1 forward_v I I I I #
coedge $-1 $343 $242 $244 $347 reversed $152 $-1 #
coedge $-1 $242 $342 $418 $419 reversed $152 $-1 #
coedge $-1 $250 $245 $242 $345 forward $240 $-1 #
edge $-1 $348 -17.500974717534021 $420 -14.537408653606732 $344 $421 forward 7 unknown #
coedge $-1 $244 $243 $351 $422 reversed $95 $-1 #
edge $-1 $423 0 $348 4.6104904089610743 $342 $424 forward 7 unknown #
vertex $-1 $246 $425 #
straight-curve $-1 -51.67921478265616 -3.4909841838400961 4.437856502521127 0 1 0 I I #
coedge $-1 $418 $247 $250 $355 reversed $340 $-1 #
coedge $-1 $247 $418 $346 $422 forward $340 $-1 #
vertex $-1 $248 $426 #
straight-curve $-1 -54.642780846583449 -10.006985728067797 35.57670990060754 0 0 1 I I #
straight-curve $-1 -54.642780846583449 -10.006985728067797 0.90601590647767694 -0.64278759981090561 0 -0.7660444514056185 I I #
edge $-1 $420 3.9569510072925871 $251 10.006985728067797 $350 $427 forward 7 unknown #
point $-1 -54.642780846583449 -10.006985728067797 4.4378565025211278 #
point $-1 -51.67921478265616 -10.006985728067797 4.4378565025211278 #
edge $-1 $428 1 $428 0 $254 $-1 forward 7 unknown #
vertex $-1 $255 $429 #
ellipse-curve $-1 -51.861969525720809 -8.7969787839127562 1.5819220749332796 -0.7660444514056185 0 0.64278759981090561 0.3213937999054528 0 0.38302222570280925 1 I I #
point $-1 -52.839604014714347 -8.7969787839127562 3.0549584302022064 #
edge $-1 $430 1 $430 0 $258 $-1 forward 7 unknown #
vertex $-1 $259 $431 #
ellipse-curve $-1 -51.861969525720809 -6.9819683676801922 1.5819220749332796 -0.7660444514056185 0 0.64278759981090561 0.3213937999054528 0 0.38302222570280925 1 I I #
point $-1 -52.839604014714347 -6.9819683676801922 3.0549584302022064 #
edge $-1 $432 1 $432 0 $262 $-1 forward 7 unknown #
vertex $-1 $263 $433 #
ellipse-curve $-1 -51.861969525720809 -5.1669579514476283 1.5819220749332796 -0.7660444514056185 0 0.64278759981090561 0.3213937999054528 0 0.38302222570280925 1 I I #
point $-1 -52.839604014714347 -5.1669579514476283 3.0549584302022064 #
plane-surface $-1 54.642780846583449 0 0 -1 0 0 0 0 1 forward_v I I I I #
coedge $-1 $271 $269 $273 $375 reversed $181 $-1 #
edge $-1 $284 -4.4378565025211278 $377 4.4378565025211278 $283 $434 forward 7 unknown #
vertex $-1 $375 $435 #
straight-curve $-1 -54.642780846583449 -21.892632564227185 0 0 0 -1 I I #
edge $-1 $373 -21.892632564227185 $377 21.892632564227185 $371 $436 forward 7 unknown #
straight-curve $-1 0 -21.892632564227185 -4.4378565025211278 -1 0 0 I I #
vertex $-1 $276 $437 #
straight-curve $-1 0 21.892632564227185 -4.4378565025211278 1 0 0 I I #
point $-1 54.642780846583449 21.892632564227185 -4.4378565025211278 #
point $-1 54.642780846583449 -21.892632564227185 -4.4378565025211278 #
straight-curve $-1 -54.642780846583449 0 4.4378565025211278 0 -1 0 I I #
point $-1 -54.642780846583449 21.892632564227185 4.4378565025211278 #
point $-1 -54.642780846583449 -21.892632564227185 4.4378565025211278 #
straight-curve $-1 54.642780846583449 -21.892632564227185 0 0 0 -1 I I #
straight-curve $-1 54.642780846583449 21.892632564227185 0 0 0 -1 I I #
loop $-1 $-1 $394 $293 #
plane-surface $-1 -54.642780846583449 0 0 1 0 0 0 0 -1 forward_v I I I I #
coedge $-1 $297 $296 $400 $438 forward $122 $-1 #
edge $-1 $301 17.836461246137802 $403 21.892632564227185 $300 $439 forward 7 unknown #
coedge $-1 $397 $394 $297 $391 reversed $386 $-1 #
edge $-1 $440 -21.892632564227185 $392 -17.836461246137802 $390 $441 forward 7 unknown #
vertex $-1 $395 $442 #
straight-curve $-1 0 -17.836461246137802 -4.4378565025211278 1 0 0 I I #
coedge $-1 $390 $303 $299 $395 forward $386 $-1 #
edge $-1 $305 -0.031071748739436078 $392 2.9689282512605639 $394 $443 forward 7 unknown #
point $-1 54.642780846583449 -17.836461246137802 -4.4378565025211278 #
coedge $-1 $303 $390 $307 $401 reversed $386 $-1 #
straight-curve $-1 -54.642780846583449 -9.9322734525912466 -1.4378565025211278 0 1 0 I I #
point $-1 -54.642780846583449 -17.836461246137802 -1.4378565025211278 #
coedge $-1 $308 $307 $388 $438 reversed $294 $-1 #
edge $-1 $309 1.4378565025211278 $440 4.4378565025211278 $397 $444 forward 7 unknown #
point $-1 -54.642780846583449 -21.892632564227185 -1.4378565025211278 #
vertex $-1 $311 $445 #
straight-curve $-1 54.642780846583449 -21.892632564227185 0 0 0 -1 I I #
edge $-1 $406 73.257410615031489 $409 76.834317241779317 $315 $446 forward 7 unknown #
vertex $-1 $329 $447 #
straight-curve $-1 25.972729335944692 0.94041962686827851 4.4378565025211287 1 0 0 I I #
edge $-1 $409 -1.280957259626982 $326 5.7237110326175031 $325 $448 forward 7 unknown #
vertex $-1 $408 $449 #
straight-curve $-1 -23.970672420429551 0.94041962686827851 76.77708096809225 -0.71933979245794832 0 0.69465837861970381 I I #
point $-1 50.93878568908049 0.94041962686827851 4.4378565025211287 #
point $-1 54.642780846583449 7.9450879191127637 0.86094987577330073 #
straight-curve $-1 54.642780846583449 0 4.4378565025211278 0 1 0 I I #
vertex $-1 $332 $450 #
point $-1 52.275959837326766 2.9417534246524149 1.7563988020343655 #
vertex $-1 $336 $451 #
point $-1 52.275959837326766 5.9437541213286238 1.7563988020343655 #
coedge $-1 $351 $350 $343 $419 forward $340 $-1 #
edge $-1 $420 31.138853398086411 $423 34.670693994129863 $418 $452 forward 7 unknown #
vertex $-1 $355 $453 #
straight-curve $-1 -69.180189500190181 -3.9569510072925871 4.4378565025211287 -1 0 0 I I #
edge $-1 $423 0.46596682345249096 $352 6.5160015442277004 $351 $454 forward 7 unknown #
vertex $-1 $422 $455 #
straight-curve $-1 -54.642780846583449 -3.9569510072925871 0.90601590647767694 0.64278759981090561 0 0.7660444514056185 I I #
point $-1 -51.67921478265616 -3.9569510072925871 4.4378565025211278 #
point $-1 -54.642780846583449 -10.006985728067797 0.90601590647767694 #
straight-curve $-1 -54.642780846583449 0 4.4378565025211278 0 -1 0 I I #
vertex $-1 $358 $456 #
point $-1 -51.540575725815359 -8.7969787839127562 1.9649443006360889 #
vertex $-1 $362 $457 #
point $-1 -51.540575725815359 -6.9819683676801922 1.9649443006360889 #
vertex $-1 $366 $458 #
point $-1 -51.540575725815359 -5.1669579514476283 1.9649443006360889 #
straight-curve $-1 -54.642780846583449 21.892632564227185 0 0 0 -1 I I #
point $-1 -54.642780846583449 -21.892632564227185 -4.4378565025211278 #
straight-curve $-1 -54.642780846583449 0 -4.4378565025211278 0 1 0 I I #
point $-1 -54.642780846583449 21.892632564227185 -4.4378565025211278 #
edge $-1 $403 -54.642780846583449 $440 54.642780846583449 $400 $459 forward 7 unknown #
straight-curve $-1 54.642780846583449 0 -4.4378565025211278 0 -1 0 I I #
vertex $-1 $391 $460 #
straight-curve $-1 -54.642780846583449 0 -4.4378565025211278 0 1 0 I I #
point $-1 -54.642780846583449 -17.836461246137802 -4.4378565025211278 #
straight-curve $-1 -54.642780846583449 -17.836461246137802 -1.4689282512605639 0 0 -1 I I #
straight-curve $-1 -54.642780846583449 -21.892632564227185 0 0 0 -1 I I #
point $-1 54.642780846583449 -21.892632564227185 -4.4378565025211278 #
straight-curve $-1 54.642780846583449 0.94041962686827851 77.695267117552618 0 0 -1 I I #
point $-1 54.642780846583449 0.94041962686827851 4.4378565025211278 #
straight-curve $-1 54.642780846583442 2.2213768864952605 0.86094987577331494 0 1 0 I I #
point $-1 54.642780846583449 0.94041962686827851 0.86094987577330073 #
point $-1 51.922460294557354 2.9417534246524149 1.7502284485748043 #
point $-1 51.922460294557354 5.9437541213286238 1.7502284485748043 #
straight-curve $-1 -54.642780846583449 -3.9569510072925871 35.57670990060754 0 0 -1 I I #
point $-1 -54.642780846583449 -3.9569510072925871 4.4378565025211278 #
straight-curve $-1 -54.642780846583449 -3.4909841838400961 0.90601590647767738 0 -1 0 I I #
point $-1 -54.642780846583449 -3.9569510072925871 0.90601590647767694 #
point $-1 -51.478947300018007 -8.7969787839127562 1.260528275027827 #
point $-1 -51.478947300018007 -6.9819683676801922 1.260528275027827 #
point $-1 -51.478947300018007 -5.1669579514476283 1.260528275027827 #
straight-curve $-1 0 -21.892632564227185 -4.4378565025211278 -1 0 0 I I #
point $-1 -54.642780846583449 -21.892632564227185 -4.4378565025211278 #
End-of-ACIS-data 