500 0 14 0           
7 Unknown 11 ACIS 5.0 NT 24 Thu Mar 25 21:17:51 1999 
-1 9.9999999999999995e-007 1e-010 
body $-1 $14 $-1 $15 #
body $-1 $16 $-1 $17 #
body $-1 $18 $-1 $19 #
body $-1 $20 $-1 $21 #
body $-1 $22 $-1 $23 #
body $-1 $24 $-1 $25 #
body $-1 $26 $-1 $27 #
body $-1 $28 $-1 $29 #
body $-1 $30 $-1 $31 #
body $-1 $32 $-1 $33 #
body $-1 $34 $-1 $35 #
body $-1 $36 $-1 $37 #
body $-1 $38 $-1 $39 #
body $-1 $40 $-1 $41 #
lump $-1 $-1 $42 $0 #
transform $-1 1 0 0 0 1 0 0 0 1 72.341074861903735 45.242810722068569 21.62395651110532 1 rotate no_reflect no_shear #
lump $-1 $-1 $43 $1 #
transform $-1 1 0 0 0 1 0 0 0 1 72.341074861903735 45.242810722068569 21.62395651110532 1 rotate no_reflect no_shear #
lump $-1 $-1 $44 $2 #
transform $-1 1 0 0 0 1 0 0 0 1 72.341074861903735 45.242810722068569 21.62395651110532 1 rotate no_reflect no_shear #
lump $-1 $-1 $45 $3 #
transform $-1 1 0 0 0 1 0 0 0 1 72.341074861903735 45.242810722068569 21.62395651110532 1 rotate no_reflect no_shear #
lump $-1 $-1 $46 $4 #
transform $-1 1 0 0 0 1 0 0 0 1 72.341074861903735 45.242810722068569 21.62395651110532 1 rotate no_reflect no_shear #
lump $-1 $-1 $47 $5 #
transform $-1 1 0 0 0 1 0 0 0 1 72.341074861903735 45.242810722068569 21.62395651110532 1 rotate no_reflect no_shear #
lump $-1 $-1 $48 $6 #
transform $-1 1 0 0 0 1 0 0 0 1 72.341074861903735 45.242810722068569 21.62395651110532 1 rotate no_reflect no_shear #
lump $-1 $-1 $49 $7 #
transform $-1 1 0 0 0 1 0 0 0 1 72.341074861903735 45.242810722068569 21.62395651110532 1 rotate no_reflect no_shear #
lump $-1 $-1 $50 $8 #
transform $-1 1 0 0 0 1 0 0 0 1 72.341074861903735 45.242810722068569 21.62395651110532 1 rotate no_reflect no_shear #
lump $-1 $-1 $51 $9 #
transform $-1 1 0 0 0 1 0 0 0 1 72.341074861903735 45.242810722068569 21.62395651110532 1 rotate no_reflect no_shear #
lump $-1 $-1 $52 $10 #
transform $-1 1 0 0 0 1 0 0 0 1 72.341074861903735 45.242810722068569 21.62395651110532 1 rotate no_reflect no_shear #
lump $-1 $-1 $53 $11 #
transform $-1 1 0 0 0 1 0 0 0 1 72.341074861903735 45.242810722068569 21.62395651110532 1 rotate no_reflect no_shear #
lump $-1 $-1 $54 $12 #
transform $-1 1 0 0 0 1 0 0 0 1 72.341074861903735 45.242810722068569 21.62395651110532 1 rotate no_reflect no_shear #
lump $-1 $-1 $55 $13 #
transform $-1 1 0 0 0 1 0 0 0 1 72.341074861903735 45.242810722068569 21.62395651110532 1 rotate no_reflect no_shear #
shell $-1 $-1 $-1 $56 $-1 $14 #
shell $-1 $-1 $-1 $57 $-1 $16 #
shell $-1 $-1 $-1 $58 $-1 $18 #
shell $-1 $-1 $-1 $59 $-1 $20 #
shell $-1 $-1 $-1 $60 $-1 $22 #
shell $-1 $-1 $-1 $61 $-1 $24 #
shell $-1 $-1 $-1 $62 $-1 $26 #
shell $-1 $-1 $-1 $63 $-1 $28 #
shell $-1 $-1 $-1 $64 $-1 $30 #
shell $-1 $-1 $-1 $65 $-1 $32 #
shell $-1 $-1 $-1 $66 $-1 $34 #
shell $-1 $-1 $-1 $67 $-1 $36 #
shell $-1 $-1 $-1 $68 $-1 $38 #
shell $-1 $-1 $-1 $69 $-1 $40 #
face $-1 $70 $71 $42 $-1 $72 reversed single #
face $-1 $73 $74 $43 $-1 $75 reversed single #
face $-1 $76 $77 $44 $-1 $78 forward single #
face $-1 $79 $80 $45 $-1 $81 reversed single #
face $-1 $82 $83 $46 $-1 $84 forward single #
face $-1 $85 $86 $47 $-1 $87 forward single #
face $-1 $88 $89 $48 $-1 $90 forward single #
face $-1 $91 $92 $49 $-1 $93 reversed single #
face $-1 $94 $95 $50 $-1 $96 forward single #
face $-1 $97 $98 $51 $-1 $99 forward single #
face $-1 $100 $101 $52 $-1 $102 forward single #
face $-1 $103 $104 $53 $-1 $105 reversed single #
face $-1 $106 $107 $54 $-1 $108 forward single #
face $-1 $109 $110 $55 $-1 $111 forward single #
face $-1 $112 $113 $42 $-1 $114 forward single #
loop $-1 $-1 $115 $56 #
plane-surface $-1 72.341074861903735 0 0 -1 0 0 0 0 1 forward_v I I I I #
face $-1 $116 $117 $43 $-1 $118 reversed single #
loop $-1 $-1 $119 $57 #
plane-surface $-1 -59.159456248592164 0 9.7397884870784992 0 0 1 1 0 0 forward_v I I I I #
face $-1 $120 $121 $44 $-1 $122 reversed single #
loop $-1 $-1 $123 $58 #
plane-surface $-1 72.341074861903735 0 0 -1 0 0 0 0 1 forward_v I I I I #
face $-1 $124 $125 $45 $-1 $126 reversed single #
loop $-1 $-1 $127 $59 #
plane-surface $-1 -29.922227591069539 -160.79111435133754 102.73461041892354 -1 0 0 0 -0.79863551827123203 0.60181501223851219 forward_v I I I I #
face $-1 $128 $129 $46 $-1 $130 forward single #
loop $-1 $131 $132 $60 #
cone-surface $-1 -38.770609181904042 -42.495568691089716 18.265668330677148 0 0.79863551827123203 -0.60181501223851219 0.5 0 0 1 I I 0 1 0.5 forward I I I I #
face $-1 $133 $134 $47 $-1 $135 forward single #
loop $-1 $136 $137 $61 #
cone-surface $-1 -35.452466085341108 -42.495568691089716 18.265668330677148 0 0.79863551827123203 -0.60181501223851219 0.5 0 0 1 I I 0 1 0.5 forward I I I I #
face $-1 $138 $139 $48 $-1 $140 forward single #
loop $-1 $141 $142 $62 #
cone-surface $-1 -32.134322988778173 -42.495568691089716 18.265668330677148 0 0.79863551827123203 -0.60181501223851219 0.5 0 0 1 I I 0 1 0.5 forward I I I I #
face $-1 $143 $144 $49 $-1 $145 reversed single #
loop $-1 $-1 $146 $63 #
plane-surface $-1 20.213847980415313 -160.79111435133754 102.73461041892354 -1 0 0 0 -0.79863551827123203 0.60181501223851219 forward_v I I I I #
face $-1 $147 $148 $50 $-1 $149 forward single #
loop $-1 $150 $151 $64 #
cone-surface $-1 11.365466389580803 -42.495568691089716 18.265668330677148 0 0.79863551827123203 -0.60181501223851219 0.5 0 0 1 I I 0 1 0.5 forward I I I I #
face $-1 $152 $153 $51 $-1 $154 forward single #
loop $-1 $155 $156 $65 #
cone-surface $-1 14.683609486143737 -42.495568691089716 18.265668330677148 0 0.79863551827123203 -0.60181501223851219 0.5 0 0 1 I I 0 1 0.5 forward I I I I #
face $-1 $157 $158 $52 $-1 $159 forward single #
loop $-1 $160 $161 $66 #
cone-surface $-1 18.001752582706672 -42.495568691089716 18.265668330677148 0 0.79863551827123203 -0.60181501223851219 0.5 0 0 1 I I 0 1 0.5 forward I I I I #
face $-1 $162 $163 $53 $-1 $164 reversed single #
loop $-1 $-1 $165 $67 #
plane-surface $-1 -39.093250336049778 -27.96159427914084 62.842812440437399 0 0.5877852598018023 0.80901698891910034 1 0 0 forward_v I I I I #
face $-1 $166 $167 $54 $-1 $168 forward single #
loop $-1 $169 $170 $68 #
cone-surface $-1 -42.043787750005841 36.045028039719078 14.316215260911799 0 -0.5877852598018023 -0.80901698891910034 1.5 0 0 1 I I 0 1 1.5 forward I I I I #
face $-1 $171 $172 $55 $-1 $173 forward single #
loop $-1 $174 $175 $69 #
cone-surface $-1 -36.142712922093715 36.045028039719078 14.316215260911799 0 -0.5877852598018023 -0.80901698891910034 1.5 0 0 1 I I 0 1 1.5 forward I I I I #
face $-1 $176 $177 $42 $-1 $178 reversed single #
loop $-1 $-1 $179 $70 #
plane-surface $-1 0 0 21.62395651110532 0 0 1 1 0 0 forward_v I I I I #
coedge $-1 $180 $181 $182 $183 reversed $71 $-1 #
face $-1 $184 $185 $43 $-1 $186 reversed single #
loop $-1 $-1 $187 $73 #
plane-surface $-1 -45.977837635280594 0 15.681872499091909 -1 0 0 0 0 1 forward_v I I I I #
coedge $-1 $188 $189 $190 $191 forward $74 $-1 #
face $-1 $192 $193 $44 $-1 $194 forward single #
loop $-1 $-1 $195 $76 #
plane-surface $-1 0 -45.242810722068569 0 0 1 0 0 0 1 forward_v I I I I #
coedge $-1 $196 $197 $198 $199 forward $77 $-1 #
face $-1 $200 $201 $45 $-1 $202 reversed single #
loop $-1 $-1 $203 $79 #
plane-surface $-1 -35.452466085341101 -45.242810722068569 15.662720712196091 0 -0.79863551827123203 0.60181501223851219 1 0 0 forward_v I I I I #
coedge $-1 $204 $205 $206 $207 reversed $80 $-1 #
face $-1 $-1 $208 $46 $-1 $209 forward single #
loop $-1 $210 $211 $82 #
cone-surface $-1 -38.770609181904042 -41.794724406626386 17.737544296643961 0 0.79863551827123203 -0.60181501223851219 0.25 0 0 1 I I -0.70710678118654746 0.70710678118654746 0.25 forward I I I I #
loop $-1 $-1 $212 $60 #
coedge $-1 $132 $132 $213 $214 reversed $83 $-1 #
face $-1 $-1 $215 $47 $-1 $216 forward single #
loop $-1 $217 $218 $85 #
cone-surface $-1 -35.452466085341108 -41.794724406626386 17.737544296643961 0 0.79863551827123203 -0.60181501223851219 0.25 0 0 1 I I -0.70710678118654746 0.70710678118654746 0.25 forward I I I I #
loop $-1 $-1 $219 $61 #
coedge $-1 $137 $137 $220 $221 reversed $86 $-1 #
face $-1 $-1 $222 $48 $-1 $223 forward single #
loop $-1 $224 $225 $88 #
cone-surface $-1 -32.134322988778173 -41.794724406626386 17.737544296643961 0 0.79863551827123203 -0.60181501223851219 0.25 0 0 1 I I -0.70710678118654746 0.70710678118654746 0.25 forward I I I I #
loop $-1 $-1 $226 $62 #
coedge $-1 $142 $142 $227 $228 reversed $89 $-1 #
face $-1 $229 $230 $49 $-1 $231 reversed single #
loop $-1 $-1 $232 $91 #
plane-surface $-1 14.683609486143752 -45.242810722068569 15.662720712196091 0 -0.79863551827123203 0.60181501223851219 1 0 0 forward_v I I I I #
coedge $-1 $233 $234 $235 $236 reversed $92 $-1 #
face $-1 $-1 $237 $50 $-1 $238 forward single #
loop $-1 $239 $240 $94 #
cone-surface $-1 11.365466389580803 -41.794724406626386 17.737544296643961 0 0.79863551827123203 -0.60181501223851219 0.25 0 0 1 I I -0.70710678118654746 0.70710678118654746 0.25 forward I I I I #
loop $-1 $-1 $241 $64 #
coedge $-1 $151 $151 $242 $243 reversed $95 $-1 #
face $-1 $-1 $244 $51 $-1 $245 forward single #
loop $-1 $246 $247 $97 #
cone-surface $-1 14.683609486143737 -41.794724406626386 17.737544296643961 0 0.79863551827123203 -0.60181501223851219 0.25 0 0 1 I I -0.70710678118654746 0.70710678118654746 0.25 forward I I I I #
loop $-1 $-1 $248 $65 #
coedge $-1 $156 $156 $249 $250 reversed $98 $-1 #
face $-1 $-1 $251 $52 $-1 $252 forward single #
loop $-1 $253 $254 $100 #
cone-surface $-1 18.001752582706672 -41.794724406626386 17.737544296643961 0 0.79863551827123203 -0.60181501223851219 0.25 0 0 1 I I -0.70710678118654746 0.70710678118654746 0.25 forward I I I I #
loop $-1 $-1 $255 $66 #
coedge $-1 $161 $161 $256 $257 reversed $101 $-1 #
face $-1 $258 $259 $53 $-1 $260 forward single #
loop $-1 $-1 $261 $103 #
plane-surface $-1 -32.208663036818962 57.080440684950588 179.89312956033456 -1 0 0 0 0.5877852598018023 0.80901698891910034 forward_v I I I I #
coedge $-1 $262 $263 $264 $265 reversed $104 $-1 #
face $-1 $-1 $266 $54 $-1 $267 forward single #
loop $-1 $268 $269 $106 #
cone-surface $-1 -42.043787750005841 34.642165425000456 12.385340558797751 0 -0.5877852598018023 -0.80901698891910034 0.75 0 0 1 I I -0.70710678118654757 0.70710678118654757 0.75 forward I I I I #
loop $-1 $-1 $270 $68 #
coedge $-1 $170 $170 $271 $272 reversed $107 $-1 #
face $-1 $-1 $273 $55 $-1 $274 forward single #
loop $-1 $275 $276 $109 #
cone-surface $-1 -36.142712922093715 34.642165425000456 12.385340558797751 0 -0.5877852598018023 -0.80901698891910034 0.75 0 0 1 I I -0.70710678118654757 0.70710678118654757 0.75 forward I I I I #
loop $-1 $-1 $277 $69 #
coedge $-1 $175 $175 $278 $279 reversed $110 $-1 #
face $-1 $280 $281 $42 $-1 $282 reversed single #
loop $-1 $-1 $283 $112 #
plane-surface $-1 0 0 -21.62395651110532 0 0 1 1 0 0 forward_v I I I I #
coedge $-1 $284 $285 $180 $286 forward $113 $-1 #
coedge $-1 $287 $115 $179 $286 reversed $71 $-1 #
coedge $-1 $115 $287 $283 $288 reversed $71 $-1 #
coedge $-1 $289 $290 $115 $183 forward $291 $-1 #
edge $-1 $292 -21.62395651110532 $293 21.62395651110532 $115 $294 forward 7 unknown #
face $-1 $295 $296 $43 $-1 $297 reversed single #
loop $-1 $-1 $298 $116 #
plane-surface $-1 0 45.242810722068569 0 0 -1 0 0 0 -1 forward_v I I I I #
coedge $-1 $299 $300 $301 $302 reversed $117 $-1 #
coedge $-1 $303 $119 $304 $305 reversed $74 $-1 #
coedge $-1 $119 $303 $306 $307 reversed $74 $-1 #
coedge $-1 $300 $299 $119 $191 reversed $117 $-1 #
edge $-1 $308 -45.242810722068569 $309 45.242810722068569 $190 $310 forward 7 unknown #
face $-1 $311 $312 $44 $-1 $313 reversed single #
loop $-1 $-1 $314 $120 #
plane-surface $-1 81.364455539011061 0 6.4547469005875318 0 0 1 1 0 0 forward_v I I I I #
coedge $-1 $315 $316 $197 $317 forward $121 $-1 #
coedge $-1 $318 $123 $319 $320 reversed $77 $-1 #
coedge $-1 $123 $318 $195 $317 reversed $77 $-1 #
coedge $-1 $321 $322 $123 $199 reversed $193 $-1 #
edge $-1 $323 -45.242810722068569 $324 45.242810722068569 $198 $325 forward 7 unknown #
face $-1 $326 $327 $45 $-1 $328 forward single #
loop $-1 $-1 $329 $124 #
plane-surface $-1 -40.982704579612658 -160.79111435133754 102.73461041892354 1 0 0 0 0.79863551827123203 -0.60181501223851219 forward_v I I I I #
coedge $-1 $330 $331 $332 $333 reversed $125 $-1 #
coedge $-1 $205 $127 $334 $335 reversed $80 $-1 #
coedge $-1 $127 $204 $330 $336 reversed $80 $-1 #
coedge $-1 $332 $337 $127 $207 forward $327 $-1 #
edge $-1 $338 35.152746453600201 $339 39.644859705766891 $206 $340 forward 7 unknown #
loop $-1 $-1 $213 $128 #
plane-surface $-1 -35.452466085341101 -45.242810722068569 15.662720712196091 0 -0.79863551827123203 0.60181501223851219 1 0 0 forward_v I I I I #
loop $-1 $-1 $341 $82 #
coedge $-1 $211 $211 $212 $342 reversed $129 $-1 #
coedge $-1 $212 $212 $211 $342 forward $131 $-1 #
coedge $-1 $213 $213 $132 $214 forward $208 $-1 #
edge $-1 $343 5.674646660276266e-015 $343 6.2831853071796058 $213 $344 forward 7 unknown #
loop $-1 $-1 $220 $133 #
plane-surface $-1 -35.452466085341101 -45.242810722068569 15.662720712196091 0 -0.79863551827123203 0.60181501223851219 1 0 0 forward_v I I I I #
loop $-1 $-1 $345 $85 #
coedge $-1 $218 $218 $219 $346 reversed $134 $-1 #
coedge $-1 $219 $219 $218 $346 forward $136 $-1 #
coedge $-1 $220 $220 $137 $221 forward $215 $-1 #
edge $-1 $347 5.674646660276266e-015 $347 6.2831853071796058 $220 $348 forward 7 unknown #
loop $-1 $-1 $227 $138 #
plane-surface $-1 -35.452466085341101 -45.242810722068569 15.662720712196091 0 -0.79863551827123203 0.60181501223851219 1 0 0 forward_v I I I I #
loop $-1 $-1 $349 $88 #
coedge $-1 $225 $225 $226 $350 reversed $139 $-1 #
coedge $-1 $226 $226 $225 $350 forward $141 $-1 #
coedge $-1 $227 $227 $142 $228 forward $222 $-1 #
edge $-1 $351 5.674646660276266e-015 $351 6.2831853071796058 $227 $352 forward 7 unknown #
face $-1 $353 $354 $49 $-1 $355 reversed single #
loop $-1 $-1 $356 $143 #
plane-surface $-1 9.1533709918721904 -160.79111435133754 102.73461041892354 1 0 0 0 0.79863551827123203 -0.60181501223851219 forward_v I I I I #
coedge $-1 $357 $358 $359 $360 reversed $144 $-1 #
coedge $-1 $234 $146 $361 $362 reversed $92 $-1 #
coedge $-1 $146 $233 $357 $363 reversed $92 $-1 #
coedge $-1 $359 $364 $146 $236 forward $365 $-1 #
edge $-1 $366 35.152746453600201 $367 39.644859705766891 $235 $368 forward 7 unknown #
loop $-1 $-1 $242 $147 #
plane-surface $-1 14.683609486143752 -45.242810722068569 15.662720712196091 0 -0.79863551827123203 0.60181501223851219 1 0 0 forward_v I I I I #
loop $-1 $-1 $369 $94 #
coedge $-1 $240 $240 $241 $370 reversed $148 $-1 #
coedge $-1 $241 $241 $240 $370 forward $150 $-1 #
coedge $-1 $242 $242 $151 $243 forward $237 $-1 #
edge $-1 $371 5.674646660276266e-015 $371 6.2831853071796058 $242 $372 forward 7 unknown #
loop $-1 $-1 $249 $152 #
plane-surface $-1 14.683609486143752 -45.242810722068569 15.662720712196091 0 -0.79863551827123203 0.60181501223851219 1 0 0 forward_v I I I I #
loop $-1 $-1 $373 $97 #
coedge $-1 $247 $247 $248 $374 reversed $153 $-1 #
coedge $-1 $248 $248 $247 $374 forward $155 $-1 #
coedge $-1 $249 $249 $156 $250 forward $244 $-1 #
edge $-1 $375 5.674646660276266e-015 $375 6.2831853071796058 $249 $376 forward 7 unknown #
loop $-1 $-1 $256 $157 #
plane-surface $-1 14.683609486143752 -45.242810722068569 15.662720712196091 0 -0.79863551827123203 0.60181501223851219 1 0 0 forward_v I I I I #
loop $-1 $-1 $377 $100 #
coedge $-1 $254 $254 $255 $378 reversed $158 $-1 #
coedge $-1 $255 $255 $254 $378 forward $160 $-1 #
coedge $-1 $256 $256 $161 $257 forward $251 $-1 #
edge $-1 $379 5.674646660276266e-015 $379 6.2831853071796058 $256 $380 forward 7 unknown #
face $-1 $381 $382 $53 $-1 $383 reversed single #
loop $-1 $-1 $264 $162 #
plane-surface $-1 0 0 21.62395651110532 0 0 1 1 0 0 forward_v I I I I #
coedge $-1 $384 $385 $386 $387 reversed $163 $-1 #
coedge $-1 $388 $165 $389 $390 reversed $104 $-1 #
coedge $-1 $165 $388 $384 $391 forward $104 $-1 #
coedge $-1 $386 $392 $165 $265 forward $259 $-1 #
edge $-1 $393 -26.431212467255705 $394 -12.662037868794073 $264 $395 forward 7 unknown #
loop $-1 $-1 $271 $166 #
plane-surface $-1 -39.093250336049778 -27.96159427914084 62.842812440437399 0 0.5877852598018023 0.80901698891910034 1 0 0 forward_v I I I I #
loop $-1 $-1 $396 $106 #
coedge $-1 $269 $269 $270 $397 reversed $167 $-1 #
coedge $-1 $270 $270 $269 $397 forward $169 $-1 #
coedge $-1 $271 $271 $170 $272 forward $266 $-1 #
edge $-1 $398 3.4419116817049722e-016 $398 6.2831853071796004 $271 $399 forward 7 unknown #
loop $-1 $-1 $278 $171 #
plane-surface $-1 -39.093250336049778 -27.96159427914084 62.842812440437399 0 0.5877852598018023 0.80901698891910034 1 0 0 forward_v I I I I #
loop $-1 $-1 $400 $109 #
coedge $-1 $276 $276 $277 $401 reversed $172 $-1 #
coedge $-1 $277 $277 $276 $401 forward $174 $-1 #
coedge $-1 $278 $278 $175 $279 forward $273 $-1 #
edge $-1 $402 3.4419116817049722e-016 $402 6.2831853071796004 $278 $403 forward 7 unknown #
face $-1 $404 $405 $42 $-1 $406 reversed single #
loop $-1 $-1 $407 $176 #
plane-surface $-1 0 -45.242810722068569 0 0 1 0 0 0 1 forward_v I I I I #
coedge $-1 $408 $409 $181 $288 forward $177 $-1 #
coedge $-1 $410 $179 $290 $411 forward $113 $-1 #
coedge $-1 $179 $410 $412 $413 forward $113 $-1 #
edge $-1 $414 -45.242810722068569 $292 45.242810722068569 $180 $415 forward 7 unknown #
coedge $-1 $181 $180 $416 $417 forward $71 $-1 #
edge $-1 $293 -45.242810722068569 $418 45.242810722068569 $181 $419 forward 7 unknown #
coedge $-1 $420 $182 $409 $421 reversed $291 $-1 #
coedge $-1 $182 $420 $284 $411 reversed $291 $-1 #
loop $-1 $-1 $182 $404 #
vertex $-1 $286 $422 #
vertex $-1 $288 $423 #
straight-curve $-1 72.341074861903735 45.242810722068569 0 0 0 -1 I I #
face $-1 $424 $425 $43 $-1 $426 forward single #
loop $-1 $-1 $427 $184 #
plane-surface $-1 -72.341074861903735 0 0 1 0 0 0 0 -1 forward_v I I I I #
coedge $-1 $306 $428 $300 $429 forward $185 $-1 #
coedge $-1 $190 $187 $430 $431 reversed $117 $-1 #
coedge $-1 $187 $190 $298 $429 reversed $117 $-1 #
coedge $-1 $432 $433 $187 $302 forward $425 $-1 #
edge $-1 $434 -45.242810722068569 $435 45.242810722068569 $301 $436 forward 7 unknown #
coedge $-1 $189 $188 $427 $437 reversed $74 $-1 #
coedge $-1 $430 $438 $188 $305 forward $439 $-1 #
edge $-1 $440 -42.761346737607653 $309 -16.398109510984511 $304 $441 forward 7 unknown #
coedge $-1 $442 $298 $189 $307 forward $185 $-1 #
edge $-1 $308 16.398109510984511 $443 42.761346737607653 $306 $444 forward 7 unknown #
vertex $-1 $307 $445 #
vertex $-1 $305 $446 #
straight-curve $-1 -45.977837635280594 0 9.7397884870784992 0 -1 0 I I #
face $-1 $447 $448 $44 $-1 $449 reversed single #
loop $-1 $-1 $450 $192 #
plane-surface $-1 81.364455539011061 0 -1.9906530766828698 0 0 1 1 0 0 forward_v I I I I #
coedge $-1 $322 $321 $451 $452 forward $193 $-1 #
coedge $-1 $453 $195 $454 $455 reversed $121 $-1 #
coedge $-1 $195 $453 $321 $456 reversed $121 $-1 #
edge $-1 $323 -6.4547469005875318 $457 1.9906530766828698 $195 $458 forward 7 unknown #
coedge $-1 $197 $196 $459 $460 forward $77 $-1 #
coedge $-1 $461 $462 $196 $320 forward $463 $-1 #
edge $-1 $464 -1.9906530766828698 $324 6.4547469005875318 $319 $465 forward 7 unknown #
coedge $-1 $314 $198 $316 $456 forward $193 $-1 #
coedge $-1 $198 $314 $461 $466 forward $193 $-1 #
vertex $-1 $317 $467 #
vertex $-1 $466 $468 #
straight-curve $-1 72.341074861903735 0 6.4547469005875318 0 1 0 I I #
face $-1 $-1 $469 $45 $-1 $470 reversed single #
loop $-1 $-1 $206 $200 #
plane-surface $-1 0 0 21.62395651110532 0 0 1 1 0 0 forward_v I I I I #
coedge $-1 $471 $472 $473 $474 reversed $201 $-1 #
coedge $-1 $475 $203 $205 $336 forward $125 $-1 #
coedge $-1 $203 $475 $471 $476 forward $125 $-1 #
coedge $-1 $473 $206 $203 $333 forward $327 $-1 #
edge $-1 $339 12.195994548398989 $477 23.256471536942108 $332 $478 forward 7 unknown #
coedge $-1 $479 $480 $204 $335 forward $469 $-1 #
edge $-1 $481 -35.704584497265678 $338 -29.743348698356449 $334 $482 forward 7 unknown #
edge $-1 $339 -7.4642758336283723 $481 0 $205 $483 forward 7 unknown #
coedge $-1 $206 $473 $479 $484 forward $327 $-1 #
vertex $-1 $207 $485 #
vertex $-1 $207 $486 #
straight-curve $-1 -29.922227591069539 -80.39555717566877 21.62395651110532 0 1 0 I I #
coedge $-1 $341 $341 $-1 $487 reversed $210 $-1 #
edge $-1 $488 0 $488 6.2831853071796004 $211 $489 forward 7 unknown #
vertex $-1 $214 $490 #
ellipse-curve $-1 -38.770609181904042 -42.996754095985224 18.643338611650702 0 -0.79863551827123203 0.60181501223851219 0.5 0 0 1 I I #
coedge $-1 $345 $345 $-1 $491 reversed $217 $-1 #
edge $-1 $492 0 $492 6.2831853071796004 $218 $493 forward 7 unknown #
vertex $-1 $221 $494 #
ellipse-curve $-1 -35.452466085341108 -42.996754095985224 18.643338611650702 0 -0.79863551827123203 0.60181501223851219 0.5 0 0 1 I I #
coedge $-1 $349 $349 $-1 $495 reversed $224 $-1 #
edge $-1 $496 0 $496 6.2831853071796004 $225 $497 forward 7 unknown #
vertex $-1 $228 $498 #
ellipse-curve $-1 -32.134322988778173 -42.996754095985224 18.643338611650702 0 -0.79863551827123203 0.60181501223851219 0.5 0 0 1 I I #
face $-1 $-1 $365 $49 $-1 $499 forward single #
loop $-1 $-1 $500 $229 #
plane-surface $-1 0 -45.242810722068569 0 0 1 0 0 0 1 forward_v I I I I #
coedge $-1 $501 $502 $503 $504 reversed $230 $-1 #
coedge $-1 $505 $232 $234 $363 forward $144 $-1 #
coedge $-1 $232 $505 $501 $506 forward $144 $-1 #
coedge $-1 $503 $235 $232 $360 forward $365 $-1 #
edge $-1 $367 -12.872043237343437 $507 -1.8115662488003146 $359 $508 forward 7 unknown #
coedge $-1 $509 $510 $233 $362 forward $354 $-1 #
edge $-1 $511 -35.704584497265678 $366 -29.743348698356449 $361 $512 forward 7 unknown #
edge $-1 $367 -7.4642758336283723 $511 0 $234 $513 forward 7 unknown #
coedge $-1 $235 $503 $509 $514 forward $365 $-1 #
loop $-1 $-1 $503 $353 #
vertex $-1 $362 $515 #
vertex $-1 $236 $516 #
straight-curve $-1 20.213847980415313 -80.39555717566877 21.62395651110532 0 1 0 I I #
coedge $-1 $369 $369 $-1 $517 reversed $239 $-1 #
edge $-1 $518 0 $518 6.2831853071796004 $240 $519 forward 7 unknown #
vertex $-1 $243 $520 #
ellipse-curve $-1 11.365466389580803 -42.996754095985224 18.643338611650702 0 -0.79863551827123203 0.60181501223851219 0.5 0 0 1 I I #
coedge $-1 $373 $373 $-1 $521 reversed $246 $-1 #
edge $-1 $522 0 $522 6.2831853071796004 $247 $523 forward 7 unknown #
vertex $-1 $250 $524 #
ellipse-curve $-1 14.683609486143737 -42.996754095985224 18.643338611650702 0 -0.79863551827123203 0.60181501223851219 0.5 0 0 1 I I #
coedge $-1 $377 $377 $-1 $525 reversed $253 $-1 #
edge $-1 $526 0 $526 6.2831853071796004 $254 $527 forward 7 unknown #
vertex $-1 $257 $528 #
ellipse-curve $-1 18.001752582706672 -42.996754095985224 18.643338611650702 0 -0.79863551827123203 0.60181501223851219 0.5 0 0 1 I I #
face $-1 $-1 $529 $53 $-1 $530 forward single #
loop $-1 $-1 $531 $258 #
plane-surface $-1 0 45.242810722068569 0 0 -1 0 0 0 -1 forward_v I I I I #
coedge $-1 $385 $261 $263 $391 reversed $163 $-1 #
coedge $-1 $261 $384 $531 $532 reversed $163 $-1 #
coedge $-1 $533 $264 $261 $387 forward $259 $-1 #
edge $-1 $394 0.23107235462885711 $534 16.702590379593275 $386 $535 forward 7 unknown #
coedge $-1 $263 $262 $536 $537 reversed $104 $-1 #
coedge $-1 $538 $539 $262 $390 forward $529 $-1 #
edge $-1 $540 -65.314666371632626 $393 -44.954750262860372 $389 $541 forward 7 unknown #
edge $-1 $542 -90.485621444137138 $394 -70.125705335364884 $384 $543 forward 7 unknown #
coedge $-1 $264 $533 $538 $544 forward $259 $-1 #
vertex $-1 $390 $545 #
vertex $-1 $265 $546 #
straight-curve $-1 -19.546625168024889 28.771292697104137 21.623956511105323 1 0 0 I I #
coedge $-1 $396 $396 $-1 $547 reversed $268 $-1 #
edge $-1 $548 0 $548 6.2831853071796004 $269 $549 forward 7 unknown #
vertex $-1 $272 $550 #
ellipse-curve $-1 -42.043787750005841 37.007051709586349 15.640327221336531 0 0.5877852598018023 0.80901698891910034 1.5 0 0 1 I I #
coedge $-1 $400 $400 $-1 $551 reversed $275 $-1 #
edge $-1 $552 0 $552 6.2831853071796004 $276 $553 forward 7 unknown #
vertex $-1 $279 $554 #
ellipse-curve $-1 -36.142712922093715 37.007051709586349 15.640327221336531 0 0.5877852598018023 0.80901698891910034 1.5 0 0 1 I I #
face $-1 $-1 $291 $42 $-1 $555 reversed single #
loop $-1 $-1 $556 $280 #
plane-surface $-1 -72.341074861903735 0 0 1 0 0 0 0 -1 forward_v I I I I #
coedge $-1 $557 $412 $558 $559 forward $281 $-1 #
coedge $-1 $560 $283 $557 $561 forward $177 $-1 #
coedge $-1 $283 $560 $289 $421 forward $177 $-1 #
coedge $-1 $285 $284 $562 $563 forward $113 $-1 #
edge $-1 $292 -72.341074861903735 $564 72.341074861903735 $290 $565 forward 7 unknown #
coedge $-1 $407 $416 $285 $413 reversed $281 $-1 #
edge $-1 $566 -72.341074861903735 $414 72.341074861903735 $412 $567 forward 7 unknown #
vertex $-1 $286 $568 #
straight-curve $-1 72.341074861903735 0 21.62395651110532 0 1 0 I I #
coedge $-1 $412 $557 $287 $417 reversed $281 $-1 #
edge $-1 $414 -21.62395651110532 $418 21.62395651110532 $287 $569 forward 7 unknown #
vertex $-1 $417 $570 #
straight-curve $-1 72.341074861903735 0 -21.62395651110532 0 -1 0 I I #
coedge $-1 $290 $289 $556 $571 reversed $291 $-1 #
edge $-1 $572 -72.341074861903735 $293 72.341074861903735 $289 $573 forward 7 unknown #
point $-1 72.341074861903735 45.242810722068569 21.62395651110532 #
point $-1 72.341074861903735 45.242810722068569 -21.62395651110532 #
face $-1 $-1 $439 $43 $-1 $574 reversed single #
loop $-1 $-1 $301 $295 #
plane-surface $-1 0 0 21.62395651110532 0 0 1 1 0 0 forward_v I I I I #
coedge $-1 $575 $576 $303 $437 forward $296 $-1 #
coedge $-1 $298 $442 $432 $577 reversed $185 $-1 #
edge $-1 $435 -13.783020261559365 $308 -1.8988522375325445 $298 $578 forward 7 unknown #
coedge $-1 $579 $304 $299 $431 forward $439 $-1 #
edge $-1 $309 1.8988522375325445 $434 13.783020261559365 $430 $580 forward 7 unknown #
coedge $-1 $581 $301 $428 $577 forward $425 $-1 #
coedge $-1 $301 $581 $579 $582 forward $425 $-1 #
vertex $-1 $431 $583 #
vertex $-1 $577 $584 #
straight-curve $-1 -45.977837635280594 0 21.62395651110532 0 1 0 I I #
edge $-1 $443 -45.242810722068569 $440 45.242810722068569 $427 $585 forward 7 unknown #
coedge $-1 $304 $579 $575 $586 forward $439 $-1 #
loop $-1 $-1 $430 $424 #
vertex $-1 $437 $587 #
straight-curve $-1 -29.579728124296082 -45.242810722068569 9.7397884870784992 1 0 0 I I #
coedge $-1 $428 $306 $576 $588 reversed $185 $-1 #
vertex $-1 $437 $589 #
straight-curve $-1 -29.579728124296082 45.242810722068569 9.7397884870784992 -1 0 0 I I #
point $-1 -45.977837635280594 45.242810722068569 9.7397884870784992 #
point $-1 -45.977837635280594 -45.242810722068569 9.7397884870784992 #
face $-1 $-1 $463 $44 $-1 $590 reversed single #
loop $-1 $-1 $591 $311 #
plane-surface $-1 90.387836216118387 0 2.232046911952331 -1 0 0 0 0 1 forward_v I I I I #
coedge $-1 $454 $592 $593 $594 forward $312 $-1 #
coedge $-1 $591 $595 $314 $452 reversed $448 $-1 #
edge $-1 $596 -45.242810722068569 $597 45.242810722068569 $451 $598 forward 7 unknown #
coedge $-1 $316 $315 $591 $599 reversed $121 $-1 #
coedge $-1 $459 $450 $315 $455 forward $312 $-1 #
edge $-1 $600 -9.0233806771073262 $457 9.0233806771073262 $315 $601 forward 7 unknown #
edge $-1 $323 -9.0233806771073262 $596 9.0233806771073262 $316 $602 forward 7 unknown #
vertex $-1 $317 $603 #
straight-curve $-1 72.341074861903735 -45.242810722068569 0 0 0 -1 I I #
coedge $-1 $592 $454 $318 $460 reversed $312 $-1 #
edge $-1 $464 -45.242810722068569 $457 45.242810722068569 $459 $604 forward 7 unknown #
coedge $-1 $605 $319 $322 $466 reversed $463 $-1 #
coedge $-1 $319 $605 $592 $606 reversed $463 $-1 #
loop $-1 $-1 $319 $447 #
vertex $-1 $320 $607 #
straight-curve $-1 72.341074861903735 45.242810722068569 0 0 0 1 I I #
edge $-1 $597 -9.0233806771073262 $324 9.0233806771073262 $461 $608 forward 7 unknown #
point $-1 72.341074861903735 -45.242810722068569 6.4547469005875318 #
point $-1 72.341074861903735 45.242810722068569 6.4547469005875318 #
loop $-1 $-1 $334 $326 #
plane-surface $-1 0 -45.242810722068569 0 0 1 0 0 0 1 forward_v I I I I #
coedge $-1 $472 $329 $331 $476 reversed $201 $-1 #
coedge $-1 $329 $471 $609 $610 reversed $201 $-1 #
coedge $-1 $337 $332 $329 $474 forward $327 $-1 #
edge $-1 $477 -39.644859705766891 $611 -35.152746453600201 $473 $612 forward 7 unknown #
coedge $-1 $331 $330 $480 $613 reversed $125 $-1 #
edge $-1 $614 0 $477 7.4642758336283723 $471 $615 forward 7 unknown #
vertex $-1 $333 $616 #
straight-curve $-1 -17.72623304267055 -40.75069746990188 21.62395651110532 -1 0 0 I I #
coedge $-1 $609 $334 $337 $484 reversed $469 $-1 #
coedge $-1 $334 $609 $475 $613 forward $469 $-1 #
vertex $-1 $335 $617 #
straight-curve $-1 -29.922227591069539 -45.242810722068569 51.367305209461769 0 0 1 I I #
straight-curve $-1 -29.922227591069539 -45.242810722068569 15.662720712196091 0 -0.60181501223851219 -0.79863551827123203 I I #
edge $-1 $611 -40.982704579612658 $338 -29.922227591069539 $479 $618 forward 7 unknown #
point $-1 -29.922227591069539 -45.242810722068569 21.62395651110532 #
point $-1 -29.922227591069539 -40.75069746990188 21.62395651110532 #
edge $-1 $619 1 $619 0 $341 $-1 forward 7 unknown #
vertex $-1 $342 $620 #
ellipse-curve $-1 -38.770609181904042 -41.994383286194193 17.88799804970359 0 -0.79863551827123203 0.60181501223851219 0.5 0 0 1 I I #
point $-1 -38.270609181904042 -42.996754095985224 18.643338611650705 #
edge $-1 $621 1 $621 0 $345 $-1 forward 7 unknown #
vertex $-1 $346 $622 #
ellipse-curve $-1 -35.452466085341108 -41.994383286194193 17.88799804970359 0 -0.79863551827123203 0.60181501223851219 0.5 0 0 1 I I #
point $-1 -34.952466085341108 -42.996754095985224 18.643338611650705 #
edge $-1 $623 1 $623 0 $349 $-1 forward 7 unknown #
vertex $-1 $350 $624 #
ellipse-curve $-1 -32.134322988778173 -41.994383286194193 17.88799804970359 0 -0.79863551827123203 0.60181501223851219 0.5 0 0 1 I I #
point $-1 -31.634322988778173 -42.996754095985224 18.643338611650705 #
plane-surface $-1 0 0 21.62395651110532 0 0 1 1 0 0 forward_v I I I I #
coedge $-1 $510 $509 $502 $625 forward $354 $-1 #
coedge $-1 $502 $356 $358 $506 reversed $230 $-1 #
coedge $-1 $356 $501 $500 $625 reversed $230 $-1 #
coedge $-1 $364 $359 $356 $504 forward $365 $-1 #
edge $-1 $507 -39.644859705766891 $626 -35.152746453600201 $503 $627 forward 7 unknown #
coedge $-1 $358 $357 $510 $628 reversed $144 $-1 #
edge $-1 $629 0 $507 7.4642758336283723 $501 $630 forward 7 unknown #
vertex $-1 $360 $631 #
straight-curve $-1 7.3418047430718758 -40.75069746990188 21.62395651110532 -1 0 0 I I #
coedge $-1 $500 $361 $364 $514 reversed $354 $-1 #
coedge $-1 $361 $500 $505 $628 forward $354 $-1 #
vertex $-1 $362 $632 #
straight-curve $-1 20.213847980415313 -45.242810722068569 51.367305209461769 0 0 1 I I #
straight-curve $-1 20.213847980415313 -45.242810722068569 15.662720712196091 0 -0.60181501223851219 -0.79863551827123203 I I #
edge $-1 $626 9.1533709918721904 $366 20.213847980415313 $509 $633 forward 7 unknown #
point $-1 20.213847980415313 -45.242810722068569 21.62395651110532 #
point $-1 20.213847980415313 -40.75069746990188 21.62395651110532 #
edge $-1 $634 1 $634 0 $369 $-1 forward 7 unknown #
vertex $-1 $370 $635 #
ellipse-curve $-1 11.365466389580803 -41.994383286194193 17.88799804970359 0 -0.79863551827123203 0.60181501223851219 0.5 0 0 1 I I #
point $-1 11.865466389580803 -42.996754095985224 18.643338611650705 #
edge $-1 $636 1 $636 0 $373 $-1 forward 7 unknown #
vertex $-1 $374 $637 #
ellipse-curve $-1 14.683609486143737 -41.994383286194193 17.88799804970359 0 -0.79863551827123203 0.60181501223851219 0.5 0 0 1 I I #
point $-1 15.183609486143737 -42.996754095985224 18.643338611650705 #
edge $-1 $638 1 $638 0 $377 $-1 forward 7 unknown #
vertex $-1 $378 $639 #
ellipse-curve $-1 18.001752582706672 -41.994383286194193 17.88799804970359 0 -0.79863551827123203 0.60181501223851219 0.5 0 0 1 I I #
point $-1 18.501752582706672 -42.996754095985224 18.643338611650705 #
loop $-1 $-1 $389 $381 #
plane-surface $-1 -45.977837635280594 0 15.681872499091909 -1 0 0 0 0 1 forward_v I I I I #
coedge $-1 $536 $640 $385 $532 forward $382 $-1 #
edge $-1 $534 68.322608269061959 $542 80.289866848599559 $531 $641 forward 7 unknown #
coedge $-1 $392 $386 $640 $642 forward $259 $-1 #
vertex $-1 $642 $643 #
straight-curve $-1 -32.208663036818962 28.540220342475294 21.62395651110532 0 1 0 I I #
coedge $-1 $644 $531 $388 $537 forward $382 $-1 #
edge $-1 $542 12.662037868794073 $540 26.431212467255705 $536 $645 forward 7 unknown #
coedge $-1 $539 $389 $392 $544 reversed $529 $-1 #
coedge $-1 $389 $538 $644 $646 reversed $529 $-1 #
vertex $-1 $646 $647 #
straight-curve $-1 -45.977837635280594 -7.5978639981652867 48.047696073685842 0 -0.80901698891910034 0.5877852598018023 I I #
vertex $-1 $537 $648 #
straight-curve $-1 -32.208663036818962 -27.96159427914084 62.842812440437399 0 -0.80901698891910034 0.5877852598018023 I I #
edge $-1 $649 -45.242810722068569 $393 -28.771292697104151 $392 $650 forward 7 unknown #
point $-1 -45.977837635280594 28.771292697104151 21.62395651110532 #
point $-1 -32.208663036818962 28.771292697104151 21.62395651110532 #
edge $-1 $651 1 $651 0 $396 $-1 forward 7 unknown #
vertex $-1 $397 $652 #
ellipse-curve $-1 -42.043787750005841 35.083004369851807 12.992103300487075 0 0.5877852598018023 0.80901698891910034 1.5 0 0 1 I I #
point $-1 -40.543787750005841 37.007051709586342 15.64032722133652 #
edge $-1 $653 1 $653 0 $400 $-1 forward 7 unknown #
vertex $-1 $401 $654 #
ellipse-curve $-1 -36.142712922093715 35.083004369851807 12.992103300487075 0 0.5877852598018023 0.80901698891910034 1.5 0 0 1 I I #
point $-1 -34.642712922093715 37.007051709586342 15.64032722133652 #
plane-surface $-1 0 45.242810722068569 0 0 -1 0 0 0 -1 forward_v I I I I #
coedge $-1 $655 $562 $420 $571 forward $405 $-1 #
coedge $-1 $416 $407 $408 $561 reversed $281 $-1 #
coedge $-1 $562 $655 $407 $559 reversed $405 $-1 #
edge $-1 $566 -21.62395651110532 $656 21.62395651110532 $558 $657 forward 7 unknown #
coedge $-1 $409 $408 $655 $658 forward $177 $-1 #
edge $-1 $418 -72.341074861903735 $656 72.341074861903735 $557 $659 forward 7 unknown #
coedge $-1 $556 $558 $410 $563 reversed $405 $-1 #
edge $-1 $564 -45.242810722068569 $566 45.242810722068569 $562 $660 forward 7 unknown #
vertex $-1 $411 $661 #
straight-curve $-1 0 45.242810722068569 21.62395651110532 -1 0 0 I I #
vertex $-1 $563 $662 #
straight-curve $-1 0 -45.242810722068569 21.62395651110532 1 0 0 I I #
point $-1 72.341074861903735 -45.242810722068569 21.62395651110532 #
straight-curve $-1 72.341074861903735 -45.242810722068569 0 0 0 -1 I I #
point $-1 72.341074861903735 -45.242810722068569 -21.62395651110532 #
edge $-1 $564 -21.62395651110532 $572 21.62395651110532 $420 $663 forward 7 unknown #
vertex $-1 $421 $664 #
straight-curve $-1 0 45.242810722068569 -21.62395651110532 1 0 0 I I #
plane-surface $-1 0 -45.242810722068569 0 0 1 0 0 0 1 forward_v I I I I #
coedge $-1 $665 $427 $438 $586 reversed $296 $-1 #
coedge $-1 $427 $665 $442 $588 forward $296 $-1 #
edge $-1 $435 45.977837635280594 $666 72.341074861903735 $428 $667 forward 7 unknown #
straight-curve $-1 -45.977837635280594 45.242810722068569 7.8409362495459547 0 0 -1 I I #
coedge $-1 $438 $430 $433 $582 reversed $439 $-1 #
straight-curve $-1 -45.977837635280594 -45.242810722068569 7.8409362495459547 0 0 1 I I #
coedge $-1 $433 $432 $665 $668 forward $425 $-1 #
edge $-1 $669 -72.341074861903735 $434 -45.977837635280594 $579 $670 forward 7 unknown #
point $-1 -45.977837635280594 -45.242810722068569 21.62395651110532 #
point $-1 -45.977837635280594 45.242810722068569 21.62395651110532 #
straight-curve $-1 -72.341074861903735 0 9.7397884870784992 0 -1 0 I I #
edge $-1 $669 -21.62395651110532 $440 -9.7397884870784992 $575 $671 forward 7 unknown #
point $-1 -72.341074861903735 -45.242810722068569 9.7397884870784992 #
edge $-1 $666 -21.62395651110532 $443 -9.7397884870784992 $442 $672 forward 7 unknown #
point $-1 -72.341074861903735 45.242810722068569 9.7397884870784992 #
plane-surface $-1 0 45.242810722068569 0 0 -1 0 0 0 -1 forward_v I I I I #
coedge $-1 $593 $451 $453 $599 forward $448 $-1 #
coedge $-1 $450 $459 $462 $606 forward $312 $-1 #
coedge $-1 $595 $591 $450 $594 reversed $448 $-1 #
edge $-1 $673 -45.242810722068569 $600 45.242810722068569 $593 $674 forward 7 unknown #
coedge $-1 $451 $593 $605 $675 reversed $448 $-1 #
vertex $-1 $452 $676 #
vertex $-1 $452 $677 #
straight-curve $-1 90.387836216118387 0 6.4547469005875318 0 1 0 I I #
edge $-1 $596 -4.2226999886352008 $600 4.2226999886352008 $591 $678 forward 7 unknown #
vertex $-1 $599 $679 #
straight-curve $-1 81.364455539011061 -45.242810722068569 -1.9906530766828698 -1 0 0 I I #
straight-curve $-1 81.364455539011061 -45.242810722068569 6.4547469005875318 1 0 0 I I #
point $-1 72.341074861903735 -45.242810722068569 -1.9906530766828698 #
straight-curve $-1 72.341074861903735 0 -1.9906530766828698 0 -1 0 I I #
coedge $-1 $462 $461 $595 $675 forward $463 $-1 #
edge $-1 $464 -9.0233806771073262 $673 9.0233806771073262 $462 $680 forward 7 unknown #
point $-1 72.341074861903735 45.242810722068569 -1.9906530766828698 #
straight-curve $-1 81.364455539011061 45.242810722068569 6.4547469005875318 -1 0 0 I I #
coedge $-1 $480 $479 $472 $610 forward $469 $-1 #
edge $-1 $611 29.743348698356449 $614 35.704584497265678 $609 $681 forward 7 unknown #
vertex $-1 $484 $682 #
straight-curve $-1 -40.982704579612658 -80.39555717566877 21.62395651110532 0 -1 0 I I #
edge $-1 $614 -23.256471536942108 $481 -12.195994548398989 $480 $683 forward 7 unknown #
vertex $-1 $613 $684 #
straight-curve $-1 -40.982704579612658 -45.242810722068569 15.662720712196091 0 0.60181501223851219 0.79863551827123203 I I #
point $-1 -40.982704579612658 -40.75069746990188 21.62395651110532 #
point $-1 -29.922227591069539 -45.242810722068569 15.662720712196091 #
straight-curve $-1 0 -45.242810722068569 21.62395651110532 1 0 0 I I #
vertex $-1 $487 $685 #
point $-1 -38.270609181904042 -41.994383286194193 17.88799804970359 #
vertex $-1 $491 $686 #
point $-1 -34.952466085341108 -41.994383286194193 17.88799804970359 #
vertex $-1 $495 $687 #
point $-1 -31.634322988778173 -41.994383286194193 17.88799804970359 #
edge $-1 $626 29.743348698356449 $629 35.704584497265678 $500 $688 forward 7 unknown #
vertex $-1 $514 $689 #
straight-curve $-1 9.1533709918721904 -80.39555717566877 21.62395651110532 0 -1 0 I I #
edge $-1 $629 1.8115662488003146 $511 12.872043237343437 $510 $690 forward 7 unknown #
vertex $-1 $628 $691 #
straight-curve $-1 9.1533709918721904 -45.242810722068569 15.662720712196091 0 0.60181501223851219 0.79863551827123203 I I #
point $-1 9.1533709918721904 -40.75069746990188 21.62395651110532 #
point $-1 20.213847980415313 -45.242810722068569 15.662720712196091 #
straight-curve $-1 0 -45.242810722068569 21.62395651110532 1 0 0 I I #
vertex $-1 $517 $692 #
point $-1 11.865466389580803 -41.994383286194193 17.88799804970359 #
vertex $-1 $521 $693 #
point $-1 15.183609486143737 -41.994383286194193 17.88799804970359 #
vertex $-1 $525 $694 #
point $-1 18.501752582706672 -41.994383286194193 17.88799804970359 #
coedge $-1 $531 $644 $533 $642 reversed $382 $-1 #
straight-curve $-1 -32.208663036818962 45.242810722068569 89.946564780167279 0 0 -1 I I #
edge $-1 $534 32.208663036818962 $649 45.977837635280594 $640 $695 forward 7 unknown #
point $-1 -32.208663036818962 45.242810722068569 21.62395651110532 #
coedge $-1 $640 $536 $539 $646 forward $382 $-1 #
straight-curve $-1 -19.546625168024889 45.242810722068569 9.6566979315677202 -1 0 0 I I #
edge $-1 $540 -80.289866848599559 $649 -68.322608269061959 $644 $696 forward 7 unknown #
point $-1 -45.977837635280594 45.242810722068569 9.6566979315677202 #
point $-1 -32.208663036818962 45.242810722068569 9.6566979315677202 #
vertex $-1 $544 $697 #
straight-curve $-1 -45.977837635280594 0 21.62395651110532 0 -1 0 I I #
vertex $-1 $547 $698 #
point $-1 -40.543787750005841 35.083004369851807 12.992103300487075 #
vertex $-1 $551 $699 #
point $-1 -34.642712922093715 35.083004369851807 12.992103300487075 #
coedge $-1 $558 $556 $560 $658 reversed $405 $-1 #
vertex $-1 $658 $700 #
straight-curve $-1 -72.341074861903735 -45.242810722068569 0 0 0 -1 I I #
edge $-1 $656 -45.242810722068569 $572 45.242810722068569 $655 $701 forward 7 unknown #
straight-curve $-1 0 -45.242810722068569 -21.62395651110532 -1 0 0 I I #
straight-curve $-1 -72.341074861903735 0 21.62395651110532 0 -1 0 I I #
point $-1 -72.341074861903735 45.242810722068569 21.62395651110532 #
point $-1 -72.341074861903735 -45.242810722068569 21.62395651110532 #
straight-curve $-1 -72.341074861903735 45.242810722068569 0 0 0 -1 I I #
point $-1 -72.341074861903735 45.242810722068569 -21.62395651110532 #
coedge $-1 $576 $575 $581 $668 reversed $296 $-1 #
vertex $-1 $577 $702 #
straight-curve $-1 0 45.242810722068569 21.62395651110532 -1 0 0 I I #
edge $-1 $666 -45.242810722068569 $669 45.242810722068569 $665 $703 forward 7 unknown #
vertex $-1 $668 $704 #
straight-curve $-1 0 -45.242810722068569 21.62395651110532 1 0 0 I I #
straight-curve $-1 -72.341074861903735 -45.242810722068569 0 0 0 -1 I I #
straight-curve $-1 -72.341074861903735 45.242810722068569 0 0 0 -1 I I #
vertex $-1 $594 $705 #
straight-curve $-1 90.387836216118387 0 -1.9906530766828698 0 -1 0 I I #
edge $-1 $597 -4.2226999886352008 $673 4.2226999886352008 $595 $706 forward 7 unknown #
point $-1 90.387836216118387 -45.242810722068569 6.4547469005875318 #
point $-1 90.387836216118387 45.242810722068569 6.4547469005875318 #
straight-curve $-1 90.387836216118387 -45.242810722068569 2.232046911952331 0 0 -1 I I #
point $-1 90.387836216118387 -45.242810722068569 -1.9906530766828698 #
straight-curve $-1 81.364455539011061 45.242810722068569 -1.9906530766828698 1 0 0 I I #
straight-curve $-1 -40.982704579612658 -45.242810722068569 51.367305209461769 0 0 -1 I I #
point $-1 -40.982704579612658 -45.242810722068569 21.62395651110532 #
straight-curve $-1 -17.72623304267055 -45.242810722068569 15.662720712196094 1 0 0 I I #
point $-1 -40.982704579612658 -45.242810722068569 15.662720712196091 #
point $-1 -38.770609181904042 -41.59506552705858 17.587090543584331 #
point $-1 -35.452466085341108 -41.59506552705858 17.587090543584331 #
point $-1 -32.134322988778173 -41.59506552705858 17.587090543584331 #
straight-curve $-1 9.1533709918721904 -45.242810722068569 51.367305209461769 0 0 -1 I I #
point $-1 9.1533709918721904 -45.242810722068569 21.62395651110532 #
straight-curve $-1 7.3418047430718758 -45.242810722068569 15.662720712196094 1 0 0 I I #
point $-1 9.1533709918721904 -45.242810722068569 15.662720712196091 #
point $-1 11.365466389580803 -41.59506552705858 17.587090543584331 #
point $-1 14.683609486143737 -41.59506552705858 17.587090543584331 #
point $-1 18.001752582706672 -41.59506552705858 17.587090543584331 #
straight-curve $-1 0 45.242810722068569 21.62395651110532 -1 0 0 I I #
straight-curve $-1 -45.977837635280594 45.242810722068569 89.946564780167279 0 0 1 I I #
point $-1 -45.977837635280594 45.242810722068569 21.62395651110532 #
point $-1 -42.043787750005841 34.201326480149106 11.778577817108426 #
point $-1 -36.142712922093715 34.201326480149106 11.778577817108426 #
point $-1 -72.341074861903735 -45.242810722068569 -21.62395651110532 #
straight-curve $-1 -72.341074861903735 0 -21.62395651110532 0 1 0 I I #
point $-1 -72.341074861903735 45.242810722068569 21.62395651110532 #
straight-curve $-1 -72.341074861903735 0 21.62395651110532 0 -1 0 I I #
point $-1 -72.341074861903735 -45.242810722068569 21.62395651110532 #
point $-1 90.387836216118387 45.242810722068569 -1.9906530766828698 #
straight-curve $-1 90.387836216118387 45.242810722068569 2.232046911952331 0 0 -1 I I #
End-of-ACIS-data 