500 0 10 0           
7 Unknown 11 ACIS 5.0 NT 24 Fri Mar 26 18:15:49 1999 
-1 9.9999999999999995e-007 1e-010 
body $-1 $10 $-1 $11 #
body $-1 $12 $-1 $13 #
body $-1 $14 $-1 $15 #
body $-1 $16 $-1 $17 #
body $-1 $18 $-1 $19 #
body $-1 $20 $-1 $21 #
body $-1 $22 $-1 $23 #
body $-1 $24 $-1 $25 #
body $-1 $26 $-1 $27 #
body $-1 $28 $-1 $29 #
lump $-1 $-1 $30 $0 #
transform $-1 1 0 0 0 1 0 0 0 1 68.442030091250345 33.706973979752291 12.206189515333865 1 rotate no_reflect no_shear #
lump $-1 $-1 $31 $1 #
transform $-1 1 0 0 0 1 0 0 0 1 68.442030091250345 33.706973979752291 12.206189515333865 1 rotate no_reflect no_shear #
lump $-1 $-1 $32 $2 #
transform $-1 1 0 0 0 1 0 0 0 1 68.442030091250345 33.706973979752291 12.206189515333865 1 rotate no_reflect no_shear #
lump $-1 $-1 $33 $3 #
transform $-1 1 0 0 0 1 0 0 0 1 68.442030091250345 33.706973979752291 12.206189515333865 1 rotate no_reflect no_shear #
lump $-1 $-1 $34 $4 #
transform $-1 1 0 0 0 1 0 0 0 1 68.442030091250345 33.706973979752291 12.206189515333865 1 rotate no_reflect no_shear #
lump $-1 $-1 $35 $5 #
transform $-1 1 0 0 0 1 0 0 0 1 68.442030091250345 33.706973979752291 12.206189515333865 1 rotate no_reflect no_shear #
lump $-1 $-1 $36 $6 #
transform $-1 1 0 0 0 1 0 0 0 1 68.442030091250345 33.706973979752291 12.206189515333865 1 rotate no_reflect no_shear #
lump $-1 $-1 $37 $7 #
transform $-1 1 0 0 0 1 0 0 0 1 68.442030091250345 33.706973979752291 12.206189515333865 1 rotate no_reflect no_shear #
lump $-1 $-1 $38 $8 #
transform $-1 1 0 0 0 1 0 0 0 1 68.442030091250345 33.706973979752291 12.206189515333865 1 rotate no_reflect no_shear #
lump $-1 $-1 $39 $9 #
transform $-1 1 0 0 0 1 0 0 0 1 68.442030091250345 33.706973979752291 12.206189515333865 1 rotate no_reflect no_shear #
shell $-1 $-1 $-1 $40 $-1 $10 #
shell $-1 $-1 $-1 $41 $-1 $12 #
shell $-1 $-1 $-1 $42 $-1 $14 #
shell $-1 $-1 $-1 $43 $-1 $16 #
shell $-1 $-1 $-1 $44 $-1 $18 #
shell $-1 $-1 $-1 $45 $-1 $20 #
shell $-1 $-1 $-1 $46 $-1 $22 #
shell $-1 $-1 $-1 $47 $-1 $24 #
shell $-1 $-1 $-1 $48 $-1 $26 #
shell $-1 $-1 $-1 $49 $-1 $28 #
face $-1 $50 $51 $30 $-1 $52 forward single #
face $-1 $53 $54 $31 $-1 $55 forward single #
face $-1 $56 $57 $32 $-1 $58 reversed single #
face $-1 $59 $60 $33 $-1 $61 forward single #
face $-1 $62 $63 $34 $-1 $64 forward single #
face $-1 $65 $66 $35 $-1 $67 forward single #
face $-1 $68 $69 $36 $-1 $70 reversed single #
face $-1 $71 $72 $37 $-1 $73 forward single #
face $-1 $74 $75 $38 $-1 $76 forward single #
face $-1 $77 $78 $39 $-1 $79 forward single #
face $-1 $80 $81 $30 $-1 $82 reversed single #
loop $-1 $-1 $83 $40 #
plane-surface $-1 0 0 12.206189515333865 0 0 1 1 0 0 forward_v I I I I #
face $-1 $84 $85 $31 $-1 $86 reversed single #
loop $-1 $-1 $87 $41 #
plane-surface $-1 -68.442030091250345 0 0 1 0 0 0 0 -1 forward_v I I I I #
face $-1 $88 $89 $32 $-1 $90 reversed single #
loop $-1 $-1 $91 $42 #
plane-surface $-1 -36.168738267843182 104.82358239660738 138.3254219265103 1 0 0 0 -0.80901700255871778 -0.5877852410284794 forward_v I I I I #
face $-1 $92 $93 $33 $-1 $94 forward single #
loop $-1 $95 $96 $43 #
cone-surface $-1 -32.109683439232462 29.982265715130215 7.4041651697680608 0 -0.80901700255871778 -0.5877852410284794 1 0 0 1 I I 0 1 1 forward I I I I #
face $-1 $97 $98 $34 $-1 $99 forward single #
loop $-1 $100 $101 $44 #
cone-surface $-1 -26.021101196316394 29.982265715130215 7.4041651697680608 0 -0.80901700255871778 -0.5877852410284794 1 0 0 1 I I 0 1 1 forward I I I I #
face $-1 $102 $103 $35 $-1 $104 forward single #
loop $-1 $105 $106 $45 #
cone-surface $-1 -19.932518953400326 29.982265715130215 7.4041651697680608 0 -0.80901700255871778 -0.5877852410284794 1 0 0 1 I I 0 1 1 forward I I I I #
face $-1 $107 $108 $36 $-1 $109 reversed single #
loop $-1 $-1 $110 $46 #
plane-surface $-1 -2.946404378392856 -121.69435291010377 107.53597087346884 -1 0 0 0 -0.64278761758704617 0.76604443648966558 forward_v I I I I #
face $-1 $111 $112 $37 $-1 $113 forward single #
loop $-1 $114 $115 $47 #
cone-surface $-1 -31.415964246694422 -26.956285931333746 6.1635439077942564 0 0.64278761758704617 -0.76604443648966558 2.5 0 0 1 I I 0 1 2.5 forward I I I I #
face $-1 $116 $117 $38 $-1 $118 forward single #
loop $-1 $119 $120 $48 #
cone-surface $-1 -20.739879296081334 -26.956285931333746 6.1635439077942564 0 0.64278761758704617 -0.76604443648966558 2.5 0 0 1 I I 0 1 2.5 forward I I I I #
face $-1 $121 $122 $39 $-1 $123 forward single #
loop $-1 $124 $125 $49 #
cone-surface $-1 -10.063794345468246 -26.956285931333746 6.1635439077942564 0 0.64278761758704617 -0.76604443648966558 2.5 0 0 1 I I 0 1 2.5 forward I I I I #
face $-1 $126 $127 $30 $-1 $128 reversed single #
loop $-1 $-1 $129 $50 #
plane-surface $-1 0 0 -12.206189515333865 0 0 1 1 0 0 forward_v I I I I #
coedge $-1 $130 $131 $132 $133 forward $51 $-1 #
face $-1 $134 $135 $31 $-1 $136 forward single #
loop $-1 $-1 $137 $53 #
plane-surface $-1 0 33.706973979752291 0 0 -1 0 0 0 -1 forward_v I I I I #
coedge $-1 $138 $139 $140 $141 forward $54 $-1 #
face $-1 $142 $143 $32 $-1 $144 reversed single #
loop $-1 $-1 $145 $56 #
plane-surface $-1 -26.021101196316394 -5.9179496703064558 57.866991619182258 0 0.80901700255871778 0.5877852410284794 1 0 0 forward_v I I I I #
coedge $-1 $146 $147 $148 $149 reversed $57 $-1 #
face $-1 $-1 $150 $33 $-1 $151 forward single #
loop $-1 $152 $153 $59 #
cone-surface $-1 -32.109683439232462 29.078253964277643 6.747362206187713 0 -0.80901700255871778 -0.5877852410284794 0.5 0 0 1 I I -0.70710678118654746 0.70710678118654746 0.5 forward I I I I #
loop $-1 $-1 $154 $43 #
coedge $-1 $96 $96 $155 $156 reversed $60 $-1 #
face $-1 $-1 $157 $34 $-1 $158 forward single #
loop $-1 $159 $160 $62 #
cone-surface $-1 -26.021101196316394 29.078253964277643 6.747362206187713 0 -0.80901700255871778 -0.5877852410284794 0.5 0 0 1 I I -0.70710678118654746 0.70710678118654746 0.5 forward I I I I #
loop $-1 $-1 $161 $44 #
coedge $-1 $101 $101 $162 $163 reversed $63 $-1 #
face $-1 $-1 $164 $35 $-1 $165 forward single #
loop $-1 $166 $167 $65 #
cone-surface $-1 -19.932518953400326 29.078253964277643 6.747362206187713 0 -0.80901700255871778 -0.5877852410284794 0.5 0 0 1 I I -0.70710678118654746 0.70710678118654746 0.5 forward I I I I #
loop $-1 $-1 $168 $45 #
coedge $-1 $106 $106 $169 $170 reversed $66 $-1 #
face $-1 $171 $172 $36 $-1 $173 reversed single #
loop $-1 $-1 $174 $68 #
plane-surface $-1 -20.739879296081334 -33.706973979752306 2.6766981265476346 0 -0.64278761758704617 0.76604443648966558 1 0 0 forward_v I I I I #
coedge $-1 $175 $176 $177 $178 reversed $69 $-1 #
face $-1 $-1 $179 $37 $-1 $180 forward single #
loop $-1 $181 $182 $71 #
cone-surface $-1 -31.415964246694422 -25.080516041088273 3.9280884490356947 0 0.64278761758704617 -0.76604443648966558 1.25 0 0 1 I I -0.70710678118654746 0.70710678118654746 1.25 forward I I I I #
loop $-1 $-1 $183 $47 #
coedge $-1 $115 $115 $184 $185 reversed $72 $-1 #
face $-1 $-1 $186 $38 $-1 $187 forward single #
loop $-1 $188 $189 $74 #
cone-surface $-1 -20.739879296081334 -25.080516041088273 3.9280884490356947 0 0.64278761758704617 -0.76604443648966558 1.25 0 0 1 I I -0.70710678118654746 0.70710678118654746 1.25 forward I I I I #
loop $-1 $-1 $190 $48 #
coedge $-1 $120 $120 $191 $192 reversed $75 $-1 #
face $-1 $-1 $193 $39 $-1 $194 forward single #
loop $-1 $195 $196 $77 #
cone-surface $-1 -10.063794345468246 -25.080516041088273 3.9280884490356947 0 0.64278761758704617 -0.76604443648966558 1.25 0 0 1 I I -0.70710678118654746 0.70710678118654746 1.25 forward I I I I #
loop $-1 $-1 $197 $49 #
coedge $-1 $125 $125 $198 $199 reversed $78 $-1 #
face $-1 $200 $201 $30 $-1 $202 reversed single #
loop $-1 $-1 $203 $80 #
plane-surface $-1 0 -33.706973979752291 0 0 1 0 0 0 1 forward_v I I I I #
coedge $-1 $204 $205 $206 $207 forward $81 $-1 #
coedge $-1 $208 $83 $209 $210 forward $51 $-1 #
coedge $-1 $83 $208 $211 $212 forward $51 $-1 #
coedge $-1 $213 $214 $83 $133 reversed $215 $-1 #
edge $-1 $216 -33.706973979752291 $217 33.706973979752291 $132 $218 forward 7 unknown #
face $-1 $219 $220 $31 $-1 $221 reversed single #
loop $-1 $-1 $140 $84 #
plane-surface $-1 -72.523178328423654 0 0.41624619344699187 0 0 1 1 0 0 forward_v I I I I #
coedge $-1 $222 $223 $139 $224 forward $85 $-1 #
coedge $-1 $225 $87 $226 $227 reversed $54 $-1 #
coedge $-1 $87 $225 $137 $224 reversed $54 $-1 #
coedge $-1 $228 $229 $87 $141 reversed $135 $-1 #
edge $-1 $230 -33.706973979752291 $231 33.706973979752291 $140 $232 forward 7 unknown #
face $-1 $233 $234 $32 $-1 $235 forward single #
loop $-1 $-1 $236 $88 #
plane-surface $-1 -15.87346412478961 104.82358239660738 138.3254219265103 -1 0 0 0 0.80901700255871778 0.5877852410284794 forward_v I I I I #
coedge $-1 $237 $238 $239 $240 reversed $89 $-1 #
coedge $-1 $147 $91 $241 $242 reversed $57 $-1 #
coedge $-1 $91 $146 $237 $243 reversed $57 $-1 #
coedge $-1 $239 $244 $91 $149 forward $234 $-1 #
edge $-1 $245 18.704817218551398 $246 25.155227248649119 $148 $247 forward 7 unknown #
loop $-1 $-1 $155 $92 #
plane-surface $-1 -26.021101196316394 -5.9179496703064558 57.866991619182258 0 0.80901700255871778 0.5877852410284794 1 0 0 forward_v I I I I #
loop $-1 $-1 $248 $59 #
coedge $-1 $153 $153 $154 $249 reversed $93 $-1 #
coedge $-1 $154 $154 $153 $249 forward $95 $-1 #
coedge $-1 $155 $155 $96 $156 forward $150 $-1 #
edge $-1 $250 -1.885967678407505e-015 $250 6.2831853071795987 $155 $251 forward 7 unknown #
loop $-1 $-1 $162 $97 #
plane-surface $-1 -26.021101196316394 -5.9179496703064558 57.866991619182258 0 0.80901700255871778 0.5877852410284794 1 0 0 forward_v I I I I #
loop $-1 $-1 $252 $62 #
coedge $-1 $160 $160 $161 $253 reversed $98 $-1 #
coedge $-1 $161 $161 $160 $253 forward $100 $-1 #
coedge $-1 $162 $162 $101 $163 forward $157 $-1 #
edge $-1 $254 -1.885967678407505e-015 $254 6.2831853071795987 $162 $255 forward 7 unknown #
loop $-1 $-1 $169 $102 #
plane-surface $-1 -26.021101196316394 -5.9179496703064558 57.866991619182258 0 0.80901700255871778 0.5877852410284794 1 0 0 forward_v I I I I #
loop $-1 $-1 $256 $65 #
coedge $-1 $167 $167 $168 $257 reversed $103 $-1 #
coedge $-1 $168 $168 $167 $257 forward $105 $-1 #
coedge $-1 $169 $169 $106 $170 forward $164 $-1 #
edge $-1 $258 -1.885967678407505e-015 $258 6.2831853071795987 $169 $259 forward 7 unknown #
face $-1 $260 $261 $36 $-1 $262 reversed single #
loop $-1 $-1 $263 $107 #
plane-surface $-1 -38.533354213769812 -121.69435291010377 107.53597087346884 1 0 0 0 0.64278761758704617 -0.76604443648966558 forward_v I I I I #
coedge $-1 $264 $265 $266 $267 reversed $108 $-1 #
coedge $-1 $176 $110 $268 $269 reversed $69 $-1 #
coedge $-1 $110 $175 $264 $270 reversed $69 $-1 #
coedge $-1 $266 $271 $110 $178 forward $272 $-1 #
edge $-1 $273 27.140202475299596 $274 38.497007835613324 $177 $275 forward 7 unknown #
loop $-1 $-1 $184 $111 #
plane-surface $-1 -20.739879296081334 -33.706973979752306 2.6766981265476346 0 -0.64278761758704617 0.76604443648966558 1 0 0 forward_v I I I I #
loop $-1 $-1 $276 $71 #
coedge $-1 $182 $182 $183 $277 reversed $112 $-1 #
coedge $-1 $183 $183 $182 $277 forward $114 $-1 #
coedge $-1 $184 $184 $115 $185 forward $179 $-1 #
edge $-1 $278 6.4742833688503584e-016 $278 6.2831853071796013 $184 $279 forward 7 unknown #
loop $-1 $-1 $191 $116 #
plane-surface $-1 -20.739879296081334 -33.706973979752306 2.6766981265476346 0 -0.64278761758704617 0.76604443648966558 1 0 0 forward_v I I I I #
loop $-1 $-1 $280 $74 #
coedge $-1 $189 $189 $190 $281 reversed $117 $-1 #
coedge $-1 $190 $190 $189 $281 forward $119 $-1 #
coedge $-1 $191 $191 $120 $192 forward $186 $-1 #
edge $-1 $282 6.4742833688503584e-016 $282 6.2831853071796013 $191 $283 forward 7 unknown #
loop $-1 $-1 $198 $121 #
plane-surface $-1 -20.739879296081334 -33.706973979752306 2.6766981265476346 0 -0.64278761758704617 0.76604443648966558 1 0 0 forward_v I I I I #
loop $-1 $-1 $284 $77 #
coedge $-1 $196 $196 $197 $285 reversed $122 $-1 #
coedge $-1 $197 $197 $196 $285 forward $124 $-1 #
coedge $-1 $198 $198 $125 $199 forward $193 $-1 #
edge $-1 $286 6.4742833688503584e-016 $286 6.2831853071796013 $198 $287 forward 7 unknown #
face $-1 $288 $289 $30 $-1 $290 reversed single #
loop $-1 $-1 $291 $126 #
plane-surface $-1 -68.442030091250345 0 0 1 0 0 0 0 -1 forward_v I I I I #
coedge $-1 $292 $211 $291 $293 forward $127 $-1 #
coedge $-1 $294 $129 $292 $295 forward $81 $-1 #
coedge $-1 $129 $294 $296 $297 forward $81 $-1 #
coedge $-1 $214 $213 $129 $207 reversed $215 $-1 #
edge $-1 $298 -33.706973979752291 $299 33.706973979752291 $206 $300 forward 7 unknown #
coedge $-1 $131 $130 $301 $302 forward $51 $-1 #
coedge $-1 $303 $304 $130 $210 reversed $289 $-1 #
edge $-1 $217 -68.442030091250345 $305 68.442030091250345 $209 $306 forward 7 unknown #
coedge $-1 $203 $307 $131 $212 reversed $127 $-1 #
edge $-1 $308 -68.442030091250345 $216 68.442030091250345 $211 $309 forward 7 unknown #
coedge $-1 $206 $132 $307 $310 forward $215 $-1 #
coedge $-1 $132 $206 $303 $311 reversed $215 $-1 #
loop $-1 $-1 $213 $288 #
vertex $-1 $133 $312 #
vertex $-1 $133 $313 #
straight-curve $-1 68.442030091250345 0 12.206189515333865 0 1 0 I I #
face $-1 $314 $315 $31 $-1 $316 reversed single #
loop $-1 $-1 $317 $134 #
plane-surface $-1 -72.523178328423654 0 -5.0949599408820108 0 0 1 1 0 0 forward_v I I I I #
coedge $-1 $318 $137 $319 $320 reversed $85 $-1 #
coedge $-1 $137 $318 $228 $321 reversed $85 $-1 #
edge $-1 $230 -0.41624619344699187 $322 5.0949599408820108 $137 $323 forward 7 unknown #
coedge $-1 $139 $138 $317 $324 forward $54 $-1 #
coedge $-1 $325 $326 $138 $227 forward $327 $-1 #
edge $-1 $328 -5.0949599408820108 $231 0.41624619344699187 $226 $329 forward 7 unknown #
coedge $-1 $330 $140 $223 $321 forward $135 $-1 #
coedge $-1 $140 $330 $325 $331 forward $135 $-1 #
vertex $-1 $224 $332 #
vertex $-1 $331 $333 #
straight-curve $-1 -68.442030091250345 0 0.41624619344699187 0 -1 0 I I #
face $-1 $-1 $334 $32 $-1 $335 reversed single #
loop $-1 $-1 $148 $142 #
plane-surface $-1 0 0 12.206189515333865 0 0 1 1 0 0 forward_v I I I I #
coedge $-1 $336 $337 $338 $339 reversed $143 $-1 #
coedge $-1 $340 $145 $147 $243 forward $89 $-1 #
coedge $-1 $145 $340 $336 $341 forward $89 $-1 #
coedge $-1 $338 $148 $145 $240 forward $234 $-1 #
edge $-1 $246 -23.158187669684985 $342 -2.862913526631413 $239 $343 forward 7 unknown #
coedge $-1 $344 $345 $146 $242 forward $334 $-1 #
edge $-1 $346 -65.834749452920647 $245 -56.95652144792129 $241 $347 forward 7 unknown #
edge $-1 $246 56.439854736593588 $346 67.41394795950454 $147 $348 forward 7 unknown #
coedge $-1 $148 $338 $344 $349 forward $234 $-1 #
vertex $-1 $242 $350 #
vertex $-1 $149 $351 #
straight-curve $-1 -36.168738267843182 52.411791198303689 12.206189515333861 0 -1 0 I I #
coedge $-1 $248 $248 $-1 $352 reversed $152 $-1 #
edge $-1 $353 0 $353 6.2831853071796004 $153 $354 forward 7 unknown #
vertex $-1 $156 $355 #
ellipse-curve $-1 -32.109683439232462 30.481768964703438 7.7670755128341771 0 0.80901700255871778 0.5877852410284794 1 0 0 1 I I #
coedge $-1 $252 $252 $-1 $356 reversed $159 $-1 #
edge $-1 $357 0 $357 6.2831853071796004 $160 $358 forward 7 unknown #
vertex $-1 $163 $359 #
ellipse-curve $-1 -26.021101196316394 30.481768964703438 7.7670755128341771 0 0.80901700255871778 0.5877852410284794 1 0 0 1 I I #
coedge $-1 $256 $256 $-1 $360 reversed $166 $-1 #
edge $-1 $361 0 $361 6.2831853071796004 $167 $362 forward 7 unknown #
vertex $-1 $170 $363 #
ellipse-curve $-1 -19.932518953400326 30.481768964703438 7.7670755128341771 0 0.80901700255871778 0.5877852410284794 1 0 0 1 I I #
face $-1 $-1 $272 $36 $-1 $364 forward single #
loop $-1 $-1 $365 $171 #
plane-surface $-1 0 -33.706973979752291 0 0 1 0 0 0 1 forward_v I I I I #
coedge $-1 $366 $367 $368 $369 reversed $172 $-1 #
coedge $-1 $370 $174 $176 $270 forward $108 $-1 #
coedge $-1 $174 $370 $366 $371 forward $108 $-1 #
coedge $-1 $368 $177 $174 $267 forward $272 $-1 #
edge $-1 $274 -7.423535269647811 $372 28.163414565729145 $266 $373 forward 7 unknown #
coedge $-1 $374 $375 $175 $269 forward $261 $-1 #
edge $-1 $376 -51.091287310186772 $273 -41.561795921400559 $268 $377 forward 7 unknown #
edge $-1 $274 -14.825256629178529 $376 -1.8593432412625586e-014 $176 $378 forward 7 unknown #
coedge $-1 $177 $368 $374 $379 forward $272 $-1 #
loop $-1 $-1 $368 $260 #
vertex $-1 $269 $380 #
vertex $-1 $178 $381 #
straight-curve $-1 -2.946404378392856 -60.847176455051887 12.206189515333868 0 1 0 I I #
coedge $-1 $276 $276 $-1 $382 reversed $181 $-1 #
edge $-1 $383 0 $383 6.2831853071796004 $182 $384 forward 7 unknown #
vertex $-1 $185 $385 #
ellipse-curve $-1 -31.415964246694422 -28.028571299595423 7.4414438209407558 0 -0.64278761758704617 0.76604443648966558 2.5 0 0 1 I I #
coedge $-1 $280 $280 $-1 $386 reversed $188 $-1 #
edge $-1 $387 0 $387 6.2831853071796004 $189 $388 forward 7 unknown #
vertex $-1 $192 $389 #
ellipse-curve $-1 -20.739879296081334 -28.028571299595423 7.4414438209407558 0 -0.64278761758704617 0.76604443648966558 2.5 0 0 1 I I #
coedge $-1 $284 $284 $-1 $390 reversed $195 $-1 #
edge $-1 $391 0 $391 6.2831853071796004 $196 $392 forward 7 unknown #
vertex $-1 $199 $393 #
ellipse-curve $-1 -10.063794345468246 -28.028571299595423 7.4414438209407558 0 -0.64278761758704617 0.76604443648966558 2.5 0 0 1 I I #
face $-1 $-1 $215 $30 $-1 $394 reversed single #
loop $-1 $-1 $303 $200 #
plane-surface $-1 0 33.706973979752291 0 0 -1 0 0 0 -1 forward_v I I I I #
coedge $-1 $301 $395 $203 $293 reversed $201 $-1 #
coedge $-1 $307 $203 $204 $295 reversed $127 $-1 #
edge $-1 $308 -12.206189515333865 $396 12.206189515333865 $291 $397 forward 7 unknown #
coedge $-1 $205 $204 $395 $398 forward $81 $-1 #
edge $-1 $299 -68.442030091250345 $396 68.442030091250345 $292 $399 forward 7 unknown #
coedge $-1 $304 $303 $205 $297 reversed $289 $-1 #
edge $-1 $400 -68.442030091250345 $298 68.442030091250345 $296 $401 forward 7 unknown #
vertex $-1 $207 $402 #
vertex $-1 $310 $403 #
straight-curve $-1 68.442030091250345 0 -12.206189515333865 0 -1 0 I I #
coedge $-1 $404 $291 $208 $302 reversed $201 $-1 #
edge $-1 $305 -33.706973979752291 $308 33.706973979752291 $301 $405 forward 7 unknown #
coedge $-1 $296 $209 $214 $311 forward $289 $-1 #
coedge $-1 $209 $296 $404 $406 reversed $289 $-1 #
vertex $-1 $210 $407 #
straight-curve $-1 0 33.706973979752291 12.206189515333865 -1 0 0 I I #
coedge $-1 $211 $292 $213 $310 reversed $127 $-1 #
vertex $-1 $302 $408 #
straight-curve $-1 0 -33.706973979752291 12.206189515333865 1 0 0 I I #
edge $-1 $216 -12.206189515333865 $299 12.206189515333865 $213 $409 forward 7 unknown #
edge $-1 $217 -12.206189515333865 $298 12.206189515333865 $214 $410 forward 7 unknown #
point $-1 68.442030091250345 -33.706973979752291 12.206189515333865 #
point $-1 68.442030091250345 33.706973979752291 12.206189515333865 #
face $-1 $-1 $327 $31 $-1 $411 reversed single #
loop $-1 $-1 $412 $219 #
plane-surface $-1 -76.604326565596963 0 -2.3393568737175094 1 0 0 0 0 -1 forward_v I I I I #
coedge $-1 $413 $319 $225 $324 reversed $220 $-1 #
coedge $-1 $223 $222 $412 $414 reversed $85 $-1 #
coedge $-1 $317 $415 $222 $320 forward $220 $-1 #
edge $-1 $416 -4.0811482371733092 $322 4.0811482371733092 $222 $417 forward 7 unknown #
edge $-1 $230 -4.0811482371733092 $418 4.0811482371733092 $223 $419 forward 7 unknown #
vertex $-1 $224 $420 #
straight-curve $-1 -68.442030091250345 33.706973979752291 0 0 0 -1 I I #
edge $-1 $328 -33.706973979752291 $322 33.706973979752291 $317 $421 forward 7 unknown #
coedge $-1 $422 $226 $229 $331 reversed $327 $-1 #
coedge $-1 $226 $422 $413 $423 reversed $327 $-1 #
loop $-1 $-1 $226 $314 #
vertex $-1 $227 $424 #
straight-curve $-1 -68.442030091250345 -33.706973979752291 0 0 0 1 I I #
coedge $-1 $229 $228 $425 $426 forward $135 $-1 #
edge $-1 $427 -4.0811482371733092 $231 4.0811482371733092 $325 $428 forward 7 unknown #
point $-1 -68.442030091250345 33.706973979752291 0.41624619344699187 #
point $-1 -68.442030091250345 -33.706973979752291 0.41624619344699187 #
loop $-1 $-1 $241 $233 #
plane-surface $-1 0 33.706973979752291 0 0 -1 0 0 0 -1 forward_v I I I I #
coedge $-1 $337 $236 $238 $341 reversed $143 $-1 #
coedge $-1 $236 $336 $429 $430 reversed $143 $-1 #
coedge $-1 $244 $239 $236 $339 forward $234 $-1 #
edge $-1 $342 -25.155227248649119 $431 -18.704817218551398 $338 $432 forward 7 unknown #
coedge $-1 $238 $237 $345 $433 reversed $89 $-1 #
edge $-1 $434 -67.41394795950454 $342 -56.439854736593588 $336 $435 forward 7 unknown #
vertex $-1 $240 $436 #
straight-curve $-1 -13.010550598158197 27.25656394965457 12.206189515333868 1 0 0 I I #
coedge $-1 $429 $241 $244 $349 reversed $334 $-1 #
coedge $-1 $241 $429 $340 $433 forward $334 $-1 #
vertex $-1 $242 $437 #
straight-curve $-1 -36.168738267843182 33.706973979752291 69.162710963255151 0 0 1 I I #
straight-curve $-1 -36.168738267843182 -5.9179496703064558 57.866991619182258 0 0.5877852410284794 -0.80901700255871778 I I #
edge $-1 $431 15.87346412478961 $245 36.168738267843182 $344 $438 forward 7 unknown #
point $-1 -36.168738267843182 33.706973979752291 12.206189515333865 #
point $-1 -36.168738267843182 27.25656394965457 12.206189515333861 #
edge $-1 $439 1 $439 0 $248 $-1 forward 7 unknown #
vertex $-1 $249 $440 #
ellipse-curve $-1 -32.109683439232462 29.482762465557002 7.0412548267019526 0 0.80901700255871778 0.5877852410284794 1 0 0 1 I I #
point $-1 -31.109683439232462 30.481768964703424 7.7670755128341691 #
edge $-1 $441 1 $441 0 $252 $-1 forward 7 unknown #
vertex $-1 $253 $442 #
ellipse-curve $-1 -26.021101196316394 29.482762465557002 7.0412548267019526 0 0.80901700255871778 0.5877852410284794 1 0 0 1 I I #
point $-1 -25.021101196316394 30.481768964703424 7.7670755128341691 #
edge $-1 $443 1 $443 0 $256 $-1 forward 7 unknown #
vertex $-1 $257 $444 #
ellipse-curve $-1 -19.932518953400326 29.482762465557002 7.0412548267019526 0 0.80901700255871778 0.5877852410284794 1 0 0 1 I I #
point $-1 -18.932518953400326 30.481768964703424 7.7670755128341691 #
plane-surface $-1 0 0 12.206189515333865 0 0 1 1 0 0 forward_v I I I I #
coedge $-1 $375 $374 $367 $445 forward $261 $-1 #
coedge $-1 $367 $263 $265 $371 reversed $172 $-1 #
coedge $-1 $263 $366 $365 $445 reversed $172 $-1 #
coedge $-1 $271 $266 $263 $369 forward $272 $-1 #
edge $-1 $372 -38.497007835613324 $446 -27.140202475299596 $368 $447 forward 7 unknown #
coedge $-1 $265 $264 $375 $448 reversed $108 $-1 #
edge $-1 $449 1.8593432412625586e-014 $372 14.825256629178529 $366 $450 forward 7 unknown #
vertex $-1 $267 $451 #
straight-curve $-1 -10.369939648040667 -22.350168619438559 12.206189515333865 -1 0 0 I I #
coedge $-1 $365 $268 $271 $379 reversed $261 $-1 #
coedge $-1 $268 $365 $370 $448 forward $261 $-1 #
vertex $-1 $269 $452 #
straight-curve $-1 -2.946404378392856 -33.706973979752291 53.767985436734421 0 0 1 I I #
straight-curve $-1 -2.946404378392856 -33.706973979752306 2.6766981265476346 0 -0.76604443648966558 -0.64278761758704617 I I #
edge $-1 $446 -38.533354213769812 $273 -2.946404378392856 $374 $453 forward 7 unknown #
point $-1 -2.946404378392856 -33.706973979752291 12.206189515333865 #
point $-1 -2.946404378392856 -22.350168619438563 12.206189515333865 #
edge $-1 $454 1 $454 0 $276 $-1 forward 7 unknown #
vertex $-1 $277 $455 #
ellipse-curve $-1 -31.415964246694422 -25.884000563072082 4.8856439946477765 0 -0.64278761758704617 0.76604443648966558 2.5 0 0 1 I I #
point $-1 -28.915964246694422 -28.028571299595406 7.4414438209407372 #
edge $-1 $456 1 $456 0 $280 $-1 forward 7 unknown #
vertex $-1 $281 $457 #
ellipse-curve $-1 -20.739879296081334 -25.884000563072082 4.8856439946477765 0 -0.64278761758704617 0.76604443648966558 2.5 0 0 1 I I #
point $-1 -18.239879296081334 -28.028571299595406 7.4414438209407372 #
edge $-1 $458 1 $458 0 $284 $-1 forward 7 unknown #
vertex $-1 $285 $459 #
ellipse-curve $-1 -10.063794345468246 -25.884000563072082 4.8856439946477765 0 -0.64278761758704617 0.76604443648966558 2.5 0 0 1 I I #
point $-1 -7.5637943454682457 -28.028571299595406 7.4414438209407372 #
plane-surface $-1 68.442030091250345 0 0 -1 0 0 0 0 1 forward_v I I I I #
coedge $-1 $291 $404 $294 $398 reversed $201 $-1 #
vertex $-1 $398 $460 #
straight-curve $-1 -68.442030091250345 -33.706973979752291 0 0 0 -1 I I #
edge $-1 $396 -33.706973979752291 $400 33.706973979752291 $395 $461 forward 7 unknown #
straight-curve $-1 0 -33.706973979752291 -12.206189515333865 -1 0 0 I I #
vertex $-1 $297 $462 #
straight-curve $-1 0 33.706973979752291 -12.206189515333865 1 0 0 I I #
point $-1 68.442030091250345 33.706973979752291 -12.206189515333865 #
point $-1 68.442030091250345 -33.706973979752291 -12.206189515333865 #
coedge $-1 $395 $301 $304 $406 forward $201 $-1 #
straight-curve $-1 -68.442030091250345 0 12.206189515333865 0 -1 0 I I #
edge $-1 $305 -12.206189515333865 $400 12.206189515333865 $304 $463 forward 7 unknown #
point $-1 -68.442030091250345 33.706973979752291 12.206189515333865 #
point $-1 -68.442030091250345 -33.706973979752291 12.206189515333865 #
straight-curve $-1 68.442030091250345 -33.706973979752291 0 0 0 -1 I I #
straight-curve $-1 68.442030091250345 33.706973979752291 0 0 0 -1 I I #
plane-surface $-1 0 -33.706973979752291 0 0 1 0 0 0 1 forward_v I I I I #
coedge $-1 $464 $425 $318 $414 forward $315 $-1 #
coedge $-1 $415 $317 $326 $423 forward $220 $-1 #
edge $-1 $418 -2.7556030671645013 $416 2.7556030671645013 $318 $465 forward 7 unknown #
coedge $-1 $319 $413 $464 $466 forward $220 $-1 #
vertex $-1 $320 $467 #
straight-curve $-1 -72.523178328423654 33.706973979752291 -5.0949599408820108 1 0 0 I I #
vertex $-1 $321 $468 #
straight-curve $-1 -72.523178328423654 33.706973979752291 0.41624619344699187 -1 0 0 I I #
point $-1 -68.442030091250345 33.706973979752291 -5.0949599408820108 #
straight-curve $-1 -68.442030091250345 0 -5.0949599408820108 0 1 0 I I #
coedge $-1 $326 $325 $469 $470 forward $327 $-1 #
edge $-1 $328 -4.0811482371733092 $471 4.0811482371733092 $326 $472 forward 7 unknown #
point $-1 -68.442030091250345 -33.706973979752291 -5.0949599408820108 #
coedge $-1 $412 $469 $330 $426 reversed $315 $-1 #
edge $-1 $418 -33.706973979752291 $427 33.706973979752291 $425 $473 forward 7 unknown #
vertex $-1 $426 $474 #
straight-curve $-1 -72.523178328423654 -33.706973979752291 0.41624619344699187 1 0 0 I I #
coedge $-1 $345 $344 $337 $430 forward $334 $-1 #
edge $-1 $431 56.95652144792129 $434 65.834749452920647 $429 $475 forward 7 unknown #
vertex $-1 $349 $476 #
straight-curve $-1 -15.87346412478961 52.411791198303689 12.206189515333861 0 1 0 I I #
edge $-1 $434 2.862913526631413 $346 23.158187669684985 $345 $477 forward 7 unknown #
vertex $-1 $433 $478 #
straight-curve $-1 -15.87346412478961 -5.9179496703064558 57.866991619182258 0 -0.5877852410284794 0.80901700255871778 I I #
point $-1 -15.87346412478961 27.25656394965457 12.206189515333861 #
point $-1 -36.168738267843182 33.706973979752284 3.3279615103345037 #
straight-curve $-1 0 33.706973979752291 12.206189515333865 -1 0 0 I I #
vertex $-1 $352 $479 #
point $-1 -31.109683439232462 29.482762465557002 7.0412548267019526 #
vertex $-1 $356 $480 #
point $-1 -25.021101196316394 29.482762465557002 7.0412548267019526 #
vertex $-1 $360 $481 #
point $-1 -18.932518953400326 29.482762465557002 7.0412548267019526 #
edge $-1 $446 41.561795921400559 $449 51.091287310186772 $365 $482 forward 7 unknown #
vertex $-1 $379 $483 #
straight-curve $-1 -38.533354213769812 -60.847176455051887 12.206189515333868 0 -1 0 I I #
edge $-1 $449 -28.163414565729145 $376 7.423535269647811 $375 $484 forward 7 unknown #
vertex $-1 $448 $485 #
straight-curve $-1 -38.533354213769812 -33.706973979752306 2.6766981265476346 0 0.76604443648966558 0.64278761758704617 I I #
point $-1 -38.533354213769812 -22.350168619438563 12.206189515333865 #
point $-1 -2.946404378392856 -33.706973979752291 2.6766981265476466 #
straight-curve $-1 0 -33.706973979752291 12.206189515333865 1 0 0 I I #
vertex $-1 $382 $486 #
point $-1 -28.915964246694422 -25.884000563072082 4.8856439946477765 #
vertex $-1 $386 $487 #
point $-1 -18.239879296081334 -25.884000563072082 4.8856439946477765 #
vertex $-1 $390 $488 #
point $-1 -7.5637943454682457 -25.884000563072082 4.8856439946477765 #
point $-1 -68.442030091250345 -33.706973979752291 -12.206189515333865 #
straight-curve $-1 -68.442030091250345 0 -12.206189515333865 0 1 0 I I #
point $-1 -68.442030091250345 33.706973979752291 -12.206189515333865 #
straight-curve $-1 -68.442030091250345 33.706973979752291 0 0 0 -1 I I #
coedge $-1 $469 $412 $415 $466 reversed $315 $-1 #
straight-curve $-1 -76.604326565596963 33.706973979752291 -2.3393568737175094 0 0 -1 I I #
edge $-1 $471 -33.706973979752291 $416 33.706973979752291 $464 $489 forward 7 unknown #
point $-1 -76.604326565596963 33.706973979752291 -5.0949599408820108 #
point $-1 -76.604326565596963 33.706973979752291 0.41624619344699187 #
coedge $-1 $425 $464 $422 $470 reversed $315 $-1 #
edge $-1 $427 -2.7556030671645013 $471 2.7556030671645013 $469 $490 forward 7 unknown #
vertex $-1 $466 $491 #
straight-curve $-1 -72.523178328423654 -33.706973979752291 -5.0949599408820108 -1 0 0 I I #
straight-curve $-1 -76.604326565596963 0 0.41624619344699187 0 -1 0 I I #
point $-1 -76.604326565596963 -33.706973979752291 0.41624619344699187 #
straight-curve $-1 -15.87346412478961 33.706973979752291 69.162710963255151 0 0 -1 I I #
point $-1 -15.87346412478961 33.706973979752291 12.206189515333865 #
straight-curve $-1 -13.010550598158197 33.706973979752291 3.3279615103344966 -1 0 0 I I #
point $-1 -15.87346412478961 33.706973979752284 3.3279615103345037 #
point $-1 -32.109683439232462 28.673745462998284 6.4534695856734734 #
point $-1 -26.021101196316394 28.673745462998284 6.4534695856734734 #
point $-1 -19.932518953400326 28.673745462998284 6.4534695856734734 #
straight-curve $-1 -38.533354213769812 -33.706973979752291 53.767985436734421 0 0 -1 I I #
point $-1 -38.533354213769812 -33.706973979752291 12.206189515333865 #
straight-curve $-1 -10.369939648040667 -33.706973979752291 2.6766981265476448 1 0 0 I I #
point $-1 -38.533354213769812 -33.706973979752291 2.6766981265476466 #
point $-1 -31.415964246694422 -24.277031519104465 2.9705329034236128 #
point $-1 -20.739879296081334 -24.277031519104465 2.9705329034236128 #
point $-1 -10.063794345468246 -24.277031519104465 2.9705329034236128 #
straight-curve $-1 -76.604326565596963 0 -5.0949599408820108 0 1 0 I I #
straight-curve $-1 -76.604326565596963 -33.706973979752291 -2.3393568737175094 0 0 -1 I I #
point $-1 -76.604326565596963 -33.706973979752291 -5.0949599408820108 #
End-of-ACIS-data 