500 0 3 0           
7 Unknown 11 ACIS 5.0 NT 24 Fri Mar 26 17:25:09 1999 
-1 9.9999999999999995e-007 1e-010 
body $-1 $3 $-1 $4 #
body $-1 $5 $-1 $6 #
body $-1 $7 $-1 $8 #
lump $-1 $-1 $9 $0 #
transform $-1 1 0 0 0 1 0 0 0 1 78.4850611896115 47.212715265615778 22.29661434912477 1 rotate no_reflect no_shear #
lump $-1 $-1 $10 $1 #
transform $-1 1 0 0 0 1 0 0 0 1 78.4850611896115 47.212715265615778 22.29661434912477 1 rotate no_reflect no_shear #
lump $-1 $-1 $11 $2 #
transform $-1 1 0 0 0 1 0 0 0 1 78.4850611896115 47.212715265615778 22.29661434912477 1 rotate no_reflect no_shear #
shell $-1 $-1 $-1 $12 $-1 $3 #
shell $-1 $-1 $-1 $13 $-1 $5 #
shell $-1 $-1 $-1 $14 $-1 $7 #
face $-1 $15 $16 $9 $-1 $17 forward single #
face $-1 $18 $19 $10 $-1 $20 forward single #
face $-1 $21 $22 $11 $-1 $23 reversed single #
face $-1 $24 $25 $9 $-1 $26 reversed single #
loop $-1 $-1 $27 $12 #
plane-surface $-1 0 0 22.29661434912477 0 0 1 1 0 0 forward_v I I I I #
face $-1 $28 $29 $10 $-1 $30 reversed single #
loop $-1 $-1 $31 $13 #
plane-surface $-1 0 -47.212715265615778 0 0 1 0 0 0 1 forward_v I I I I #
face $-1 $32 $33 $11 $-1 $34 reversed single #
loop $-1 $-1 $35 $14 #
plane-surface $-1 -72.864126016084924 25.600071523478711 0 0 1 0 0 0 1 forward_v I I I I #
face $-1 $36 $37 $9 $-1 $38 reversed single #
loop $-1 $-1 $39 $15 #
plane-surface $-1 0 0 -22.29661434912477 0 0 1 1 0 0 forward_v I I I I #
coedge $-1 $40 $41 $42 $43 forward $16 $-1 #
face $-1 $44 $45 $10 $-1 $46 reversed single #
loop $-1 $-1 $47 $18 #
plane-surface $-1 0 0 -22.29661434912477 0 0 1 1 0 0 forward_v I I I I #
coedge $-1 $48 $49 $50 $51 forward $19 $-1 #
face $-1 $52 $53 $11 $-1 $54 reversed single #
loop $-1 $-1 $55 $21 #
plane-surface $-1 -67.243190842558349 36.406393394547244 0 -1 0 0 0 0 1 forward_v I I I I #
coedge $-1 $56 $57 $58 $59 reversed $22 $-1 #
face $-1 $60 $61 $9 $-1 $62 reversed single #
loop $-1 $-1 $63 $24 #
plane-surface $-1 0 -47.212715265615778 0 0 1 0 0 0 1 forward_v I I I I #
coedge $-1 $64 $65 $66 $67 forward $25 $-1 #
coedge $-1 $68 $27 $69 $70 forward $16 $-1 #
coedge $-1 $27 $68 $71 $72 forward $16 $-1 #
coedge $-1 $73 $74 $27 $43 reversed $75 $-1 #
edge $-1 $76 -47.212715265615778 $77 47.212715265615778 $42 $78 forward 7 unknown #
face $-1 $79 $80 $10 $-1 $81 reversed single #
loop $-1 $-1 $82 $28 #
plane-surface $-1 -38.858573962833148 -71.190336606167222 0 0 1 0 0 0 1 forward_v I I I I #
coedge $-1 $83 $84 $49 $85 forward $29 $-1 #
coedge $-1 $86 $31 $87 $88 reversed $19 $-1 #
coedge $-1 $31 $86 $47 $85 reversed $19 $-1 #
coedge $-1 $89 $90 $31 $51 reversed $80 $-1 #
edge $-1 $91 -22.29661434912477 $92 22.29661434912477 $50 $93 forward 7 unknown #
face $-1 $94 $95 $11 $-1 $96 reversed single #
loop $-1 $-1 $97 $32 #
plane-surface $-1 0 0 -22.29661434912477 0 0 1 1 0 0 forward_v I I I I #
coedge $-1 $98 $99 $100 $101 forward $33 $-1 #
coedge $-1 $100 $35 $102 $103 reversed $22 $-1 #
coedge $-1 $35 $100 $104 $105 reversed $22 $-1 #
coedge $-1 $106 $107 $35 $59 forward $95 $-1 #
edge $-1 $108 -22.29661434912477 $109 22.29661434912477 $58 $110 forward 7 unknown #
face $-1 $111 $112 $9 $-1 $113 reversed single #
loop $-1 $-1 $114 $36 #
plane-surface $-1 -78.4850611896115 0 0 1 0 0 0 0 -1 forward_v I I I I #
coedge $-1 $115 $71 $116 $117 forward $37 $-1 #
coedge $-1 $118 $39 $115 $119 forward $25 $-1 #
coedge $-1 $39 $118 $120 $121 forward $25 $-1 #
coedge $-1 $74 $73 $39 $67 reversed $75 $-1 #
edge $-1 $122 -47.212715265615778 $123 47.212715265615778 $66 $124 forward 7 unknown #
coedge $-1 $41 $40 $125 $126 forward $16 $-1 #
coedge $-1 $127 $128 $40 $70 reversed $112 $-1 #
edge $-1 $77 -78.4850611896115 $129 78.4850611896115 $69 $130 forward 7 unknown #
coedge $-1 $63 $131 $41 $72 reversed $37 $-1 #
edge $-1 $132 -78.4850611896115 $76 78.4850611896115 $71 $133 forward 7 unknown #
coedge $-1 $66 $42 $131 $134 forward $75 $-1 #
coedge $-1 $42 $66 $127 $135 reversed $75 $-1 #
loop $-1 $-1 $73 $111 #
vertex $-1 $43 $136 #
vertex $-1 $43 $137 #
straight-curve $-1 78.4850611896115 0 22.29661434912477 0 1 0 I I #
face $-1 $138 $139 $10 $-1 $140 reversed single #
loop $-1 $-1 $50 $44 #
plane-surface $-1 -43.825315434304343 -59.201525935891503 0 1 0 0 0 0 -1 forward_v I I I I #
coedge $-1 $141 $142 $143 $144 forward $45 $-1 #
coedge $-1 $145 $47 $146 $147 forward $29 $-1 #
coedge $-1 $47 $145 $89 $148 forward $29 $-1 #
edge $-1 $91 -43.825315434304343 $149 -33.891832491361953 $47 $150 forward 7 unknown #
coedge $-1 $49 $48 $151 $152 forward $19 $-1 #
coedge $-1 $153 $154 $48 $88 forward $155 $-1 #
edge $-1 $156 33.891832491361953 $92 43.825315434304343 $87 $157 forward 7 unknown #
coedge $-1 $143 $50 $84 $148 reversed $80 $-1 #
coedge $-1 $50 $143 $153 $158 reversed $80 $-1 #
vertex $-1 $85 $159 #
vertex $-1 $158 $160 #
straight-curve $-1 -43.825315434304343 -47.212715265615778 0 0 0 1 I I #
face $-1 $161 $162 $11 $-1 $163 forward single #
loop $-1 $-1 $58 $52 #
plane-surface $-1 -78.4850611896115 0 0 1 0 0 0 0 -1 forward_v I I I I #
coedge $-1 $102 $164 $98 $165 forward $53 $-1 #
coedge $-1 $166 $55 $97 $165 reversed $33 $-1 #
coedge $-1 $55 $166 $167 $168 reversed $33 $-1 #
coedge $-1 $57 $56 $55 $101 reversed $22 $-1 #
edge $-1 $169 -22.29661434912477 $170 22.29661434912477 $55 $171 forward 7 unknown #
coedge $-1 $172 $97 $56 $103 forward $53 $-1 #
edge $-1 $170 30.811127834515887 $108 42.052998181569038 $102 $173 forward 7 unknown #
coedge $-1 $167 $174 $57 $105 forward $162 $-1 #
edge $-1 $109 -42.052998181569038 $169 -30.811127834515887 $104 $175 forward 7 unknown #
coedge $-1 $176 $58 $174 $177 reversed $95 $-1 #
coedge $-1 $58 $176 $172 $178 reversed $95 $-1 #
vertex $-1 $178 $179 #
vertex $-1 $59 $180 #
straight-curve $-1 -78.4850611896115 25.600071523478711 0 0 0 1 I I #
face $-1 $-1 $75 $9 $-1 $181 reversed single #
loop $-1 $-1 $127 $60 #
plane-surface $-1 0 47.212715265615778 0 0 -1 0 0 0 -1 forward_v I I I I #
coedge $-1 $182 $125 $128 $183 forward $61 $-1 #
coedge $-1 $131 $63 $64 $119 reversed $37 $-1 #
coedge $-1 $125 $182 $63 $117 reversed $61 $-1 #
edge $-1 $132 -22.29661434912477 $184 22.29661434912477 $116 $185 forward 7 unknown #
coedge $-1 $65 $64 $182 $186 forward $25 $-1 #
edge $-1 $123 -78.4850611896115 $184 78.4850611896115 $115 $187 forward 7 unknown #
coedge $-1 $128 $127 $65 $121 reversed $112 $-1 #
edge $-1 $188 -78.4850611896115 $122 78.4850611896115 $120 $189 forward 7 unknown #
vertex $-1 $67 $190 #
vertex $-1 $134 $191 #
straight-curve $-1 78.4850611896115 0 -22.29661434912477 0 -1 0 I I #
coedge $-1 $114 $116 $68 $126 reversed $61 $-1 #
edge $-1 $129 -47.212715265615778 $132 47.212715265615778 $125 $192 forward 7 unknown #
coedge $-1 $120 $69 $74 $135 forward $112 $-1 #
coedge $-1 $69 $120 $114 $183 reversed $112 $-1 #
vertex $-1 $70 $193 #
straight-curve $-1 0 47.212715265615778 22.29661434912477 -1 0 0 I I #
coedge $-1 $71 $115 $73 $134 reversed $37 $-1 #
vertex $-1 $126 $194 #
straight-curve $-1 0 -47.212715265615778 22.29661434912477 1 0 0 I I #
edge $-1 $76 -22.29661434912477 $123 22.29661434912477 $73 $195 forward 7 unknown #
edge $-1 $77 -22.29661434912477 $122 22.29661434912477 $74 $196 forward 7 unknown #
point $-1 78.4850611896115 -47.212715265615778 22.29661434912477 #
point $-1 78.4850611896115 47.212715265615778 22.29661434912477 #
face $-1 $-1 $155 $10 $-1 $197 forward single #
loop $-1 $-1 $198 $79 #
plane-surface $-1 -33.891832491361953 -59.201525935891503 0 -1 0 0 0 0 1 forward_v I I I I #
coedge $-1 $199 $82 $145 $200 reversed $45 $-1 #
coedge $-1 $82 $199 $201 $202 reversed $45 $-1 #
coedge $-1 $90 $89 $82 $144 reversed $80 $-1 #
edge $-1 $203 -22.29661434912477 $204 22.29661434912477 $143 $205 forward 7 unknown #
coedge $-1 $84 $83 $141 $200 forward $29 $-1 #
coedge $-1 $151 $198 $83 $147 reversed $139 $-1 #
edge $-1 $149 -11.988810670275726 $206 11.988810670275718 $146 $207 forward 7 unknown #
edge $-1 $204 -11.988810670275718 $91 11.988810670275726 $89 $208 forward 7 unknown #
vertex $-1 $147 $209 #
straight-curve $-1 0 -47.212715265615778 -22.29661434912477 1 0 0 I I #
coedge $-1 $210 $146 $86 $152 reversed $139 $-1 #
edge $-1 $156 -22.29661434912477 $149 22.29661434912477 $151 $211 forward 7 unknown #
coedge $-1 $201 $87 $90 $158 forward $155 $-1 #
coedge $-1 $87 $201 $210 $212 forward $155 $-1 #
loop $-1 $-1 $87 $138 #
vertex $-1 $88 $213 #
straight-curve $-1 0 -47.212715265615778 22.29661434912477 -1 0 0 I I #
edge $-1 $92 -11.988810670275726 $203 11.988810670275718 $90 $214 forward 7 unknown #
point $-1 -43.825315434304343 -47.212715265615778 -22.29661434912477 #
point $-1 -43.825315434304343 -47.212715265615778 22.29661434912477 #
face $-1 $-1 $215 $11 $-1 $216 reversed single #
loop $-1 $-1 $167 $94 #
plane-surface $-1 0 0 22.29661434912477 0 0 1 1 0 0 forward_v I I I I #
coedge $-1 $97 $172 $217 $218 forward $53 $-1 #
edge $-1 $219 -29.009518568342155 $170 -7.3968748262050887 $97 $220 forward 7 unknown #
coedge $-1 $99 $98 $221 $222 reversed $33 $-1 #
coedge $-1 $223 $104 $99 $168 forward $162 $-1 #
edge $-1 $169 7.3968748262050887 $224 29.009518568342155 $167 $225 forward 7 unknown #
vertex $-1 $105 $226 #
vertex $-1 $103 $227 #
straight-curve $-1 -67.243190842558349 25.600071523478711 0 0 0 -1 I I #
coedge $-1 $164 $102 $107 $178 forward $53 $-1 #
straight-curve $-1 -36.432063008042462 25.600071523478711 -22.29661434912477 -1 0 0 I I #
coedge $-1 $104 $223 $106 $177 forward $162 $-1 #
straight-curve $-1 -36.432063008042462 25.600071523478711 22.29661434912477 1 0 0 I I #
coedge $-1 $107 $106 $228 $229 forward $95 $-1 #
edge $-1 $230 -47.212715265615778 $109 -25.600071523478711 $106 $231 forward 7 unknown #
edge $-1 $108 25.600071523478711 $232 47.212715265615778 $107 $233 forward 7 unknown #
point $-1 -78.4850611896115 25.600071523478711 -22.29661434912477 #
point $-1 -78.4850611896115 25.600071523478711 22.29661434912477 #
plane-surface $-1 78.4850611896115 0 0 -1 0 0 0 0 1 forward_v I I I I #
coedge $-1 $116 $114 $118 $186 reversed $61 $-1 #
edge $-1 $129 -22.29661434912477 $188 22.29661434912477 $128 $234 forward 7 unknown #
vertex $-1 $186 $235 #
straight-curve $-1 -78.4850611896115 -47.212715265615778 0 0 0 -1 I I #
edge $-1 $184 -47.212715265615778 $188 47.212715265615778 $182 $236 forward 7 unknown #
straight-curve $-1 0 -47.212715265615778 -22.29661434912477 -1 0 0 I I #
vertex $-1 $121 $237 #
straight-curve $-1 0 47.212715265615778 -22.29661434912477 1 0 0 I I #
point $-1 78.4850611896115 47.212715265615778 -22.29661434912477 #
point $-1 78.4850611896115 -47.212715265615778 -22.29661434912477 #
straight-curve $-1 -78.4850611896115 0 22.29661434912477 0 -1 0 I I #
point $-1 -78.4850611896115 47.212715265615778 22.29661434912477 #
point $-1 -78.4850611896115 -47.212715265615778 22.29661434912477 #
straight-curve $-1 78.4850611896115 -47.212715265615778 0 0 0 -1 I I #
straight-curve $-1 78.4850611896115 47.212715265615778 0 0 0 -1 I I #
plane-surface $-1 0 0 22.29661434912477 0 0 1 1 0 0 forward_v I I I I #
coedge $-1 $146 $210 $199 $238 forward $139 $-1 #
coedge $-1 $142 $141 $198 $238 reversed $45 $-1 #
edge $-1 $206 -4.9667414714711953 $204 4.9667414714711953 $141 $239 forward 7 unknown #
coedge $-1 $154 $153 $142 $202 forward $155 $-1 #
edge $-1 $203 -4.9667414714711953 $240 4.9667414714711953 $142 $241 forward 7 unknown #
vertex $-1 $158 $242 #
vertex $-1 $148 $243 #
straight-curve $-1 -43.825315434304343 -71.190336606167222 0 0 0 -1 I I #
vertex $-1 $238 $244 #
straight-curve $-1 -33.891832491361953 -59.201525935891503 -22.29661434912477 0 -1 0 I I #
straight-curve $-1 -43.825315434304343 -59.201525935891503 -22.29661434912477 0 1 0 I I #
point $-1 -33.891832491361953 -47.212715265615778 -22.29661434912477 #
coedge $-1 $198 $151 $154 $212 reversed $139 $-1 #
straight-curve $-1 -33.891832491361953 -47.212715265615778 0 0 0 -1 I I #
edge $-1 $240 -11.988810670275718 $156 11.988810670275726 $210 $245 forward 7 unknown #
point $-1 -33.891832491361953 -47.212715265615778 22.29661434912477 #
straight-curve $-1 -43.825315434304343 -59.201525935891503 22.29661434912477 0 -1 0 I I #
loop $-1 $-1 $221 $161 #
plane-surface $-1 0 47.212715265615778 0 0 -1 0 0 0 -1 forward_v I I I I #
coedge $-1 $228 $221 $164 $218 reversed $215 $-1 #
edge $-1 $232 -78.4850611896115 $219 -67.243190842558349 $217 $246 forward 7 unknown #
vertex $-1 $222 $247 #
straight-curve $-1 -67.243190842558349 18.203196697273622 -22.29661434912477 0 -1 0 I I #
coedge $-1 $217 $248 $166 $222 forward $215 $-1 #
edge $-1 $224 -22.29661434912477 $219 22.29661434912477 $221 $249 forward 7 unknown #
coedge $-1 $174 $167 $248 $250 forward $162 $-1 #
vertex $-1 $250 $251 #
straight-curve $-1 -67.243190842558349 18.203196697273622 22.29661434912477 0 1 0 I I #
point $-1 -67.243190842558349 25.600071523478711 22.29661434912477 #
point $-1 -67.243190842558349 25.600071523478711 -22.29661434912477 #
coedge $-1 $248 $217 $176 $229 reversed $215 $-1 #
edge $-1 $230 -22.29661434912477 $232 22.29661434912477 $228 $252 forward 7 unknown #
vertex $-1 $250 $253 #
straight-curve $-1 -78.4850611896115 0 22.29661434912477 0 -1 0 I I #
vertex $-1 $218 $254 #
straight-curve $-1 -78.4850611896115 0 -22.29661434912477 0 1 0 I I #
straight-curve $-1 -78.4850611896115 47.212715265615778 0 0 0 -1 I I #
point $-1 -78.4850611896115 -47.212715265615778 -22.29661434912477 #
straight-curve $-1 -78.4850611896115 0 -22.29661434912477 0 1 0 I I #
point $-1 -78.4850611896115 47.212715265615778 -22.29661434912477 #
edge $-1 $240 -22.29661434912477 $206 22.29661434912477 $198 $255 forward 7 unknown #
straight-curve $-1 -38.858573962833148 -71.190336606167222 -22.29661434912477 -1 0 0 I I #
vertex $-1 $212 $256 #
straight-curve $-1 -38.858573962833148 -71.190336606167222 22.29661434912477 1 0 0 I I #
point $-1 -43.825315434304343 -71.190336606167222 22.29661434912477 #
point $-1 -43.825315434304343 -71.190336606167222 -22.29661434912477 #
point $-1 -33.891832491361953 -71.190336606167222 -22.29661434912477 #
straight-curve $-1 -33.891832491361953 -59.201525935891503 22.29661434912477 0 1 0 I I #
straight-curve $-1 0 47.212715265615778 -22.29661434912477 1 0 0 I I #
point $-1 -67.243190842558349 47.212715265615778 -22.29661434912477 #
coedge $-1 $221 $228 $223 $250 reversed $215 $-1 #
straight-curve $-1 -67.243190842558349 47.212715265615778 0 0 0 -1 I I #
edge $-1 $224 67.243190842558349 $230 78.4850611896115 $248 $257 forward 7 unknown #
point $-1 -67.243190842558349 47.212715265615778 22.29661434912477 #
straight-curve $-1 -78.4850611896115 47.212715265615778 0 0 0 -1 I I #
point $-1 -78.4850611896115 47.212715265615778 22.29661434912477 #
point $-1 -78.4850611896115 47.212715265615778 -22.29661434912477 #
straight-curve $-1 -33.891832491361953 -71.190336606167222 0 0 0 -1 I I #
point $-1 -33.891832491361953 -71.190336606167222 22.29661434912477 #
straight-curve $-1 0 47.212715265615778 22.29661434912477 -1 0 0 I I #
End-of-ACIS-data 