500 0 14 0           
7 Unknown 11 ACIS 5.0 NT 24 Fri Mar 26 02:03:52 1999 
-1 9.9999999999999995e-007 1e-010 
body $-1 $14 $-1 $15 #
body $-1 $16 $-1 $17 #
body $-1 $18 $-1 $19 #
body $-1 $20 $-1 $21 #
body $-1 $22 $-1 $23 #
body $-1 $24 $-1 $25 #
body $-1 $26 $-1 $27 #
body $-1 $28 $-1 $29 #
body $-1 $30 $-1 $31 #
body $-1 $32 $-1 $33 #
body $-1 $34 $-1 $35 #
body $-1 $36 $-1 $37 #
body $-1 $38 $-1 $39 #
body $-1 $40 $-1 $41 #
lump $-1 $-1 $42 $0 #
transform $-1 1 0 0 0 1 0 0 0 1 66.631672109134186 27.493317461162636 10.393039523436297 1 rotate no_reflect no_shear #
lump $-1 $-1 $43 $1 #
transform $-1 1 0 0 0 1 0 0 0 1 66.631672109134186 27.493317461162636 10.393039523436297 1 rotate no_reflect no_shear #
lump $-1 $-1 $44 $2 #
transform $-1 1 0 0 0 1 0 0 0 1 66.631672109134186 27.493317461162636 10.393039523436297 1 rotate no_reflect no_shear #
lump $-1 $-1 $45 $3 #
transform $-1 1 0 0 0 1 0 0 0 1 66.631672109134186 27.493317461162636 10.393039523436297 1 rotate no_reflect no_shear #
lump $-1 $-1 $46 $4 #
transform $-1 1 0 0 0 1 0 0 0 1 66.631672109134186 27.493317461162636 10.393039523436297 1 rotate no_reflect no_shear #
lump $-1 $-1 $47 $5 #
transform $-1 1 0 0 0 1 0 0 0 1 66.631672109134186 27.493317461162636 10.393039523436297 1 rotate no_reflect no_shear #
lump $-1 $-1 $48 $6 #
transform $-1 1 0 0 0 1 0 0 0 1 66.631672109134186 27.493317461162636 10.393039523436297 1 rotate no_reflect no_shear #
lump $-1 $-1 $49 $7 #
transform $-1 1 0 0 0 1 0 0 0 1 66.631672109134186 27.493317461162636 10.393039523436297 1 rotate no_reflect no_shear #
lump $-1 $-1 $50 $8 #
transform $-1 1 0 0 0 1 0 0 0 1 66.631672109134186 27.493317461162636 10.393039523436297 1 rotate no_reflect no_shear #
lump $-1 $-1 $51 $9 #
transform $-1 1 0 0 0 1 0 0 0 1 66.631672109134186 27.493317461162636 10.393039523436297 1 rotate no_reflect no_shear #
lump $-1 $-1 $52 $10 #
transform $-1 1 0 0 0 1 0 0 0 1 66.631672109134186 27.493317461162636 10.393039523436297 1 rotate no_reflect no_shear #
lump $-1 $-1 $53 $11 #
transform $-1 1 0 0 0 1 0 0 0 1 66.631672109134186 27.493317461162636 10.393039523436297 1 rotate no_reflect no_shear #
lump $-1 $-1 $54 $12 #
transform $-1 1 0 0 0 1 0 0 0 1 66.631672109134186 27.493317461162636 10.393039523436297 1 rotate no_reflect no_shear #
lump $-1 $-1 $55 $13 #
transform $-1 1 0 0 0 1 0 0 0 1 66.631672109134186 27.493317461162636 10.393039523436297 1 rotate no_reflect no_shear #
shell $-1 $-1 $-1 $56 $-1 $14 #
shell $-1 $-1 $-1 $57 $-1 $16 #
shell $-1 $-1 $-1 $58 $-1 $18 #
shell $-1 $-1 $-1 $59 $-1 $20 #
shell $-1 $-1 $-1 $60 $-1 $22 #
shell $-1 $-1 $-1 $61 $-1 $24 #
shell $-1 $-1 $-1 $62 $-1 $26 #
shell $-1 $-1 $-1 $63 $-1 $28 #
shell $-1 $-1 $-1 $64 $-1 $30 #
shell $-1 $-1 $-1 $65 $-1 $32 #
shell $-1 $-1 $-1 $66 $-1 $34 #
shell $-1 $-1 $-1 $67 $-1 $36 #
shell $-1 $-1 $-1 $68 $-1 $38 #
shell $-1 $-1 $-1 $69 $-1 $40 #
face $-1 $70 $71 $42 $-1 $72 forward single #
face $-1 $73 $74 $43 $-1 $75 forward single #
face $-1 $76 $77 $44 $-1 $78 forward single #
face $-1 $79 $80 $45 $-1 $81 reversed single #
face $-1 $82 $83 $46 $-1 $84 forward single #
face $-1 $85 $86 $47 $-1 $87 forward single #
face $-1 $88 $89 $48 $-1 $90 forward single #
face $-1 $91 $92 $49 $-1 $93 reversed single #
face $-1 $94 $95 $50 $-1 $96 forward single #
face $-1 $97 $98 $51 $-1 $99 forward single #
face $-1 $100 $101 $52 $-1 $102 forward single #
face $-1 $103 $104 $53 $-1 $105 reversed single #
face $-1 $106 $107 $54 $-1 $108 forward single #
face $-1 $109 $110 $55 $-1 $111 forward single #
face $-1 $112 $113 $42 $-1 $114 reversed single #
loop $-1 $-1 $115 $56 #
plane-surface $-1 0 0 10.393039523436297 0 0 1 1 0 0 forward_v I I I I #
face $-1 $116 $117 $43 $-1 $118 reversed single #
loop $-1 $-1 $119 $57 #
plane-surface $-1 0 -27.493317461162636 0 0 1 0 0 0 1 forward_v I I I I #
face $-1 $120 $121 $44 $-1 $122 reversed single #
loop $-1 $-1 $123 $58 #
plane-surface $-1 0 27.493317461162636 0 0 -1 0 0 0 -1 forward_v I I I I #
face $-1 $124 $125 $45 $-1 $126 reversed single #
loop $-1 $-1 $127 $59 #
plane-surface $-1 -135.26736928440431 -17.371993420930384 115.8216641730387 0 1 0 -0.51503808176128008 0 0.85716729658548041 forward_v I I I I #
face $-1 $128 $129 $46 $-1 $130 forward single #
loop $-1 $131 $132 $60 #
cone-surface $-1 -59.051027363307647 -15.835381070338194 5.564277951188048 0.51503808176128008 0 -0.85716729658548041 0.4285836482927402 0 0.25751904088064004 1 I I 0 1 0.5 forward I I I I #
face $-1 $133 $134 $47 $-1 $135 forward single #
loop $-1 $136 $137 $61 #
cone-surface $-1 -59.051027363307647 -13.530462544449911 5.564277951188048 0.51503808176128008 0 -0.85716729658548041 0.4285836482927402 0 0.25751904088064004 1 I I 0 1 0.5 forward I I I I #
face $-1 $138 $139 $48 $-1 $140 forward single #
loop $-1 $141 $142 $62 #
cone-surface $-1 -59.051027363307647 -11.225544018561628 5.564277951188048 0.51503808176128008 0 -0.85716729658548041 0.4285836482927402 0 0.25751904088064004 1 I I 0 1 0.5 forward I I I I #
face $-1 $143 $144 $49 $-1 $145 reversed single #
loop $-1 $-1 $146 $63 #
plane-surface $-1 -135.26736928440431 9.6889316679694417 115.8216641730387 0 1 0 -0.51503808176128008 0 0.85716729658548041 forward_v I I I I #
face $-1 $147 $148 $50 $-1 $149 forward single #
loop $-1 $150 $151 $64 #
cone-surface $-1 -59.051027363307647 11.225544018561632 5.564277951188048 0.51503808176128008 0 -0.85716729658548041 0.4285836482927402 0 0.25751904088064004 1 I I 0 1 0.5 forward I I I I #
face $-1 $152 $153 $51 $-1 $154 forward single #
loop $-1 $155 $156 $65 #
cone-surface $-1 -59.051027363307647 13.530462544449914 5.564277951188048 0.51503808176128008 0 -0.85716729658548041 0.4285836482927402 0 0.25751904088064004 1 I I 0 1 0.5 forward I I I I #
face $-1 $157 $158 $52 $-1 $159 forward single #
loop $-1 $160 $161 $66 #
cone-surface $-1 -59.051027363307647 15.835381070338197 5.564277951188048 0.51503808176128008 0 -0.85716729658548041 0.4285836482927402 0 0.25751904088064004 1 I I 0 1 0.5 forward I I I I #
face $-1 $162 $163 $53 $-1 $164 reversed single #
loop $-1 $-1 $165 $67 #
plane-surface $-1 24.236761589891955 -4.3195745816654423 186.00091988618993 0 -1 0 -0.52991927123019833 0 -0.84804809178421925 forward_v I I I I #
face $-1 $166 $167 $54 $-1 $168 forward single #
loop $-1 $169 $170 $68 #
cone-surface $-1 59.913783903571115 -8.7795215506754793 5.9057002569173971 -0.52991927123019833 0 -0.84804809178421925 0.42402404589210962 0 -0.26495963561509916 1 I I 0 1 0.5 forward I I I I #
face $-1 $171 $172 $55 $-1 $173 forward single #
loop $-1 $174 $175 $69 #
cone-surface $-1 59.913783903571115 -6.1035533692694557 5.9057002569173971 -0.52991927123019833 0 -0.84804809178421925 0.42402404589210962 0 -0.26495963561509916 1 I I 0 1 0.5 forward I I I I #
face $-1 $176 $177 $42 $-1 $178 reversed single #
loop $-1 $-1 $179 $70 #
plane-surface $-1 0 0 -10.393039523436297 0 0 1 1 0 0 forward_v I I I I #
coedge $-1 $180 $181 $182 $183 forward $71 $-1 #
face $-1 $184 $185 $43 $-1 $186 forward single #
loop $-1 $-1 $187 $73 #
plane-surface $-1 -66.631672109134186 0 0 1 0 0 0 0 -1 forward_v I I I I #
coedge $-1 $188 $189 $190 $191 forward $74 $-1 #
face $-1 $192 $193 $44 $-1 $194 forward single #
loop $-1 $-1 $195 $76 #
plane-surface $-1 66.631672109134186 0 0 -1 0 0 0 0 1 forward_v I I I I #
coedge $-1 $196 $197 $198 $199 forward $77 $-1 #
face $-1 $200 $201 $45 $-1 $202 reversed single #
loop $-1 $-1 $203 $79 #
plane-surface $-1 -66.6316721091342 -13.530462544449911 1.5926836755252793 -0.51503808176128008 0 0.85716729658548041 0.85716729658548041 0 0.51503808176128008 forward_v I I I I #
coedge $-1 $204 $205 $206 $207 reversed $80 $-1 #
face $-1 $-1 $208 $46 $-1 $209 forward single #
loop $-1 $210 $211 $82 #
cone-surface $-1 -58.66474880198669 -15.835381070338194 4.9214024787489379 0.51503808176128008 0 -0.85716729658548041 0.2142918241463701 0 0.12875952044032002 1 I I -0.70710678118654746 0.70710678118654746 0.25 forward I I I I #
loop $-1 $-1 $212 $60 #
coedge $-1 $132 $132 $213 $214 reversed $83 $-1 #
face $-1 $-1 $215 $47 $-1 $216 forward single #
loop $-1 $217 $218 $85 #
cone-surface $-1 -58.66474880198669 -13.530462544449911 4.9214024787489379 0.51503808176128008 0 -0.85716729658548041 0.2142918241463701 0 0.12875952044032002 1 I I -0.70710678118654746 0.70710678118654746 0.25 forward I I I I #
loop $-1 $-1 $219 $61 #
coedge $-1 $137 $137 $220 $221 reversed $86 $-1 #
face $-1 $-1 $222 $48 $-1 $223 forward single #
loop $-1 $224 $225 $88 #
cone-surface $-1 -58.66474880198669 -11.225544018561628 4.9214024787489379 0.51503808176128008 0 -0.85716729658548041 0.2142918241463701 0 0.12875952044032002 1 I I -0.70710678118654746 0.70710678118654746 0.25 forward I I I I #
loop $-1 $-1 $226 $62 #
coedge $-1 $142 $142 $227 $228 reversed $89 $-1 #
face $-1 $229 $230 $49 $-1 $231 reversed single #
loop $-1 $-1 $232 $91 #
plane-surface $-1 -66.6316721091342 13.530462544449914 1.5926836755252793 -0.51503808176128008 0 0.85716729658548041 0.85716729658548041 0 0.51503808176128008 forward_v I I I I #
coedge $-1 $233 $234 $235 $236 reversed $92 $-1 #
face $-1 $-1 $237 $50 $-1 $238 forward single #
loop $-1 $239 $240 $94 #
cone-surface $-1 -58.66474880198669 11.225544018561632 4.9214024787489379 0.51503808176128008 0 -0.85716729658548041 0.2142918241463701 0 0.12875952044032002 1 I I -0.70710678118654746 0.70710678118654746 0.25 forward I I I I #
loop $-1 $-1 $241 $64 #
coedge $-1 $151 $151 $242 $243 reversed $95 $-1 #
face $-1 $-1 $244 $51 $-1 $245 forward single #
loop $-1 $246 $247 $97 #
cone-surface $-1 -58.66474880198669 13.530462544449914 4.9214024787489379 0.51503808176128008 0 -0.85716729658548041 0.2142918241463701 0 0.12875952044032002 1 I I -0.70710678118654746 0.70710678118654746 0.25 forward I I I I #
loop $-1 $-1 $248 $65 #
coedge $-1 $156 $156 $249 $250 reversed $98 $-1 #
face $-1 $-1 $251 $52 $-1 $252 forward single #
loop $-1 $253 $254 $100 #
cone-surface $-1 -58.66474880198669 15.835381070338197 4.9214024787489379 0.51503808176128008 0 -0.85716729658548041 0.2142918241463701 0 0.12875952044032002 1 I I -0.70710678118654746 0.70710678118654746 0.25 forward I I I I #
loop $-1 $-1 $255 $66 #
coedge $-1 $161 $161 $256 $257 reversed $101 $-1 #
face $-1 $258 $259 $53 $-1 $260 reversed single #
loop $-1 $-1 $261 $103 #
plane-surface $-1 -46.382052659951881 -7.4415374599724693 72.98719511710388 0.52991927123019833 0 0.84804809178421925 0.84804809178421925 0 -0.52991927123019833 forward_v I I I I #
coedge $-1 $262 $263 $264 $265 reversed $104 $-1 #
face $-1 $-1 $266 $54 $-1 $267 forward single #
loop $-1 $268 $269 $106 #
cone-surface $-1 59.484484927936379 -8.7795215506754793 5.2186782955405526 -0.52991927123019833 0 -0.84804809178421925 0.21201202294605481 0 -0.13247981780754958 1 I I -0.70710678118654746 0.70710678118654746 0.25 forward I I I I #
loop $-1 $-1 $270 $68 #
coedge $-1 $170 $170 $271 $272 reversed $107 $-1 #
face $-1 $-1 $273 $55 $-1 $274 forward single #
loop $-1 $275 $276 $109 #
cone-surface $-1 59.484484927936379 -6.1035533692694557 5.2186782955405526 -0.52991927123019833 0 -0.84804809178421925 0.21201202294605481 0 -0.13247981780754958 1 I I -0.70710678118654746 0.70710678118654746 0.25 forward I I I I #
loop $-1 $-1 $277 $69 #
coedge $-1 $175 $175 $278 $279 reversed $110 $-1 #
face $-1 $280 $281 $42 $-1 $282 reversed single #
loop $-1 $-1 $283 $112 #
plane-surface $-1 0 -27.493317461162636 0 0 1 0 0 0 1 forward_v I I I I #
coedge $-1 $284 $285 $286 $287 forward $113 $-1 #
coedge $-1 $288 $115 $289 $290 forward $71 $-1 #
coedge $-1 $115 $288 $291 $292 forward $71 $-1 #
coedge $-1 $293 $294 $115 $183 reversed $295 $-1 #
edge $-1 $296 -27.493317461162636 $297 27.493317461162636 $182 $298 forward 7 unknown #
face $-1 $299 $300 $43 $-1 $301 reversed single #
loop $-1 $-1 $302 $116 #
plane-surface $-1 0 -32.553979481278759 9.0198328015255402 0 0 1 1 0 0 forward_v I I I I #
coedge $-1 $303 $304 $189 $305 forward $117 $-1 #
coedge $-1 $306 $119 $307 $308 reversed $74 $-1 #
coedge $-1 $119 $306 $187 $305 reversed $74 $-1 #
coedge $-1 $309 $302 $119 $191 reversed $185 $-1 #
edge $-1 $310 -66.631672109134186 $311 66.631672109134186 $190 $312 forward 7 unknown #
face $-1 $313 $314 $44 $-1 $315 reversed single #
loop $-1 $-1 $316 $120 #
plane-surface $-1 0 32.553979481278759 9.0198328015255402 0 0 1 1 0 0 forward_v I I I I #
coedge $-1 $317 $318 $197 $319 forward $121 $-1 #
coedge $-1 $320 $123 $321 $322 reversed $77 $-1 #
coedge $-1 $123 $320 $195 $319 reversed $77 $-1 #
coedge $-1 $316 $323 $123 $199 reversed $193 $-1 #
edge $-1 $324 -66.631672109134186 $325 66.631672109134186 $198 $326 forward 7 unknown #
face $-1 $327 $328 $45 $-1 $329 reversed single #
loop $-1 $-1 $330 $124 #
plane-surface $-1 -135.26736928440431 -9.6889316679694382 115.8216641730387 0 -1 0 0.51503808176128008 0 -0.85716729658548041 forward_v I I I I #
coedge $-1 $331 $332 $333 $334 reversed $125 $-1 #
coedge $-1 $205 $127 $335 $336 reversed $80 $-1 #
coedge $-1 $127 $204 $331 $337 reversed $80 $-1 #
coedge $-1 $333 $338 $127 $207 forward $339 $-1 #
edge $-1 $340 1.002012533067969 $341 15.648263942959744 $206 $342 forward 7 unknown #
loop $-1 $-1 $213 $128 #
plane-surface $-1 -66.6316721091342 -13.530462544449911 1.5926836755252793 -0.51503808176128008 0 0.85716729658548041 0.85716729658548041 0 0.51503808176128008 forward_v I I I I #
loop $-1 $-1 $343 $82 #
coedge $-1 $211 $211 $212 $344 reversed $129 $-1 #
coedge $-1 $212 $212 $211 $344 forward $131 $-1 #
coedge $-1 $213 $213 $132 $214 forward $208 $-1 #
edge $-1 $345 0 $345 6.2831853071796004 $213 $346 forward 7 unknown #
loop $-1 $-1 $220 $133 #
plane-surface $-1 -66.6316721091342 -13.530462544449911 1.5926836755252793 -0.51503808176128008 0 0.85716729658548041 0.85716729658548041 0 0.51503808176128008 forward_v I I I I #
loop $-1 $-1 $347 $85 #
coedge $-1 $218 $218 $219 $348 reversed $134 $-1 #
coedge $-1 $219 $219 $218 $348 forward $136 $-1 #
coedge $-1 $220 $220 $137 $221 forward $215 $-1 #
edge $-1 $349 0 $349 6.2831853071796004 $220 $350 forward 7 unknown #
loop $-1 $-1 $227 $138 #
plane-surface $-1 -66.6316721091342 -13.530462544449911 1.5926836755252793 -0.51503808176128008 0 0.85716729658548041 0.85716729658548041 0 0.51503808176128008 forward_v I I I I #
loop $-1 $-1 $351 $88 #
coedge $-1 $225 $225 $226 $352 reversed $139 $-1 #
coedge $-1 $226 $226 $225 $352 forward $141 $-1 #
coedge $-1 $227 $227 $142 $228 forward $222 $-1 #
edge $-1 $353 0 $353 6.2831853071796004 $227 $354 forward 7 unknown #
face $-1 $355 $356 $49 $-1 $357 forward single #
loop $-1 $-1 $358 $143 #
plane-surface $-1 -135.26736928440431 17.371993420930387 115.8216641730387 0 -1 0 0.51503808176128008 0 -0.85716729658548041 forward_v I I I I #
coedge $-1 $359 $360 $361 $362 reversed $144 $-1 #
coedge $-1 $234 $146 $363 $364 reversed $92 $-1 #
coedge $-1 $146 $233 $359 $365 reversed $92 $-1 #
coedge $-1 $361 $366 $146 $236 forward $356 $-1 #
edge $-1 $367 1.002012533067969 $368 15.648263942959744 $235 $369 forward 7 unknown #
loop $-1 $-1 $242 $147 #
plane-surface $-1 -66.6316721091342 13.530462544449914 1.5926836755252793 -0.51503808176128008 0 0.85716729658548041 0.85716729658548041 0 0.51503808176128008 forward_v I I I I #
loop $-1 $-1 $370 $94 #
coedge $-1 $240 $240 $241 $371 reversed $148 $-1 #
coedge $-1 $241 $241 $240 $371 forward $150 $-1 #
coedge $-1 $242 $242 $151 $243 forward $237 $-1 #
edge $-1 $372 0 $372 6.2831853071796004 $242 $373 forward 7 unknown #
loop $-1 $-1 $249 $152 #
plane-surface $-1 -66.6316721091342 13.530462544449914 1.5926836755252793 -0.51503808176128008 0 0.85716729658548041 0.85716729658548041 0 0.51503808176128008 forward_v I I I I #
loop $-1 $-1 $374 $97 #
coedge $-1 $247 $247 $248 $375 reversed $153 $-1 #
coedge $-1 $248 $248 $247 $375 forward $155 $-1 #
coedge $-1 $249 $249 $156 $250 forward $244 $-1 #
edge $-1 $376 0 $376 6.2831853071796004 $249 $377 forward 7 unknown #
loop $-1 $-1 $256 $157 #
plane-surface $-1 -66.6316721091342 13.530462544449914 1.5926836755252793 -0.51503808176128008 0 0.85716729658548041 0.85716729658548041 0 0.51503808176128008 forward_v I I I I #
loop $-1 $-1 $378 $100 #
coedge $-1 $254 $254 $255 $379 reversed $158 $-1 #
coedge $-1 $255 $255 $254 $379 forward $160 $-1 #
coedge $-1 $256 $256 $161 $257 forward $251 $-1 #
edge $-1 $380 0 $380 6.2831853071796004 $256 $381 forward 7 unknown #
face $-1 $382 $383 $53 $-1 $384 forward single #
loop $-1 $-1 $385 $162 #
plane-surface $-1 24.236761589891955 -10.563500338279496 186.00091988618993 0 1 0 0.52991927123019833 0 0.84804809178421925 forward_v I I I I #
coedge $-1 $386 $387 $388 $389 reversed $163 $-1 #
coedge $-1 $263 $165 $390 $391 reversed $104 $-1 #
coedge $-1 $165 $262 $386 $392 reversed $104 $-1 #
coedge $-1 $388 $393 $165 $265 forward $383 $-1 #
edge $-1 $394 -54.513291314188209 $395 -41.671153218716384 $264 $396 forward 7 unknown #
loop $-1 $-1 $271 $166 #
plane-surface $-1 -46.382052659951881 -7.4415374599724693 72.98719511710388 0.52991927123019833 0 0.84804809178421925 0.84804809178421925 0 -0.52991927123019833 forward_v I I I I #
loop $-1 $-1 $397 $106 #
coedge $-1 $269 $269 $270 $398 reversed $167 $-1 #
coedge $-1 $270 $270 $269 $398 forward $169 $-1 #
coedge $-1 $271 $271 $170 $272 forward $266 $-1 #
edge $-1 $399 0 $399 6.2831853071796004 $271 $400 forward 7 unknown #
loop $-1 $-1 $278 $171 #
plane-surface $-1 -46.382052659951881 -7.4415374599724693 72.98719511710388 0.52991927123019833 0 0.84804809178421925 0.84804809178421925 0 -0.52991927123019833 forward_v I I I I #
loop $-1 $-1 $401 $109 #
coedge $-1 $276 $276 $277 $402 reversed $172 $-1 #
coedge $-1 $277 $277 $276 $402 forward $174 $-1 #
coedge $-1 $278 $278 $175 $279 forward $273 $-1 #
edge $-1 $403 0 $403 6.2831853071796004 $278 $404 forward 7 unknown #
face $-1 $405 $406 $42 $-1 $407 reversed single #
loop $-1 $-1 $408 $176 #
plane-surface $-1 -66.631672109134186 0 0 1 0 0 0 0 -1 forward_v I I I I #
coedge $-1 $409 $291 $410 $411 forward $177 $-1 #
coedge $-1 $412 $179 $409 $413 forward $113 $-1 #
coedge $-1 $179 $412 $414 $415 forward $113 $-1 #
coedge $-1 $294 $293 $179 $287 reversed $295 $-1 #
edge $-1 $416 -27.493317461162636 $417 27.493317461162636 $286 $418 forward 7 unknown #
coedge $-1 $181 $180 $419 $420 forward $71 $-1 #
coedge $-1 $421 $422 $180 $290 reversed $406 $-1 #
edge $-1 $297 -66.631672109134186 $423 66.631672109134186 $289 $424 forward 7 unknown #
coedge $-1 $283 $425 $181 $292 reversed $177 $-1 #
edge $-1 $426 -66.631672109134186 $296 66.631672109134186 $291 $427 forward 7 unknown #
coedge $-1 $286 $182 $425 $428 forward $295 $-1 #
coedge $-1 $182 $286 $421 $429 reversed $295 $-1 #
loop $-1 $-1 $293 $405 #
vertex $-1 $183 $430 #
vertex $-1 $183 $431 #
straight-curve $-1 66.631672109134186 0 10.393039523436297 0 1 0 I I #
face $-1 $432 $433 $43 $-1 $434 reversed single #
loop $-1 $-1 $435 $184 #
plane-surface $-1 0 -32.553979481278759 4.6197204905778673 0 0 1 1 0 0 forward_v I I I I #
coedge $-1 $190 $436 $437 $438 forward $185 $-1 #
coedge $-1 $439 $187 $440 $441 reversed $117 $-1 #
coedge $-1 $187 $439 $309 $442 reversed $117 $-1 #
edge $-1 $310 -9.0198328015255402 $443 -4.6197204905778673 $187 $444 forward 7 unknown #
coedge $-1 $189 $188 $445 $446 forward $74 $-1 #
coedge $-1 $437 $447 $188 $308 forward $448 $-1 #
edge $-1 $449 4.6197204905778673 $311 9.0198328015255402 $307 $450 forward 7 unknown #
coedge $-1 $436 $190 $304 $442 forward $185 $-1 #
vertex $-1 $305 $451 #
vertex $-1 $438 $452 #
straight-curve $-1 0 -27.493317461162636 9.0198328015255402 1 0 0 I I #
face $-1 $453 $454 $44 $-1 $455 reversed single #
loop $-1 $-1 $456 $192 #
plane-surface $-1 0 32.553979481278759 4.6197204905778673 0 0 1 1 0 0 forward_v I I I I #
coedge $-1 $457 $198 $318 $458 forward $193 $-1 #
coedge $-1 $459 $195 $456 $460 reversed $121 $-1 #
coedge $-1 $195 $459 $316 $458 reversed $121 $-1 #
edge $-1 $324 -9.0198328015255402 $461 -4.6197204905778673 $195 $462 forward 7 unknown #
coedge $-1 $197 $196 $463 $464 forward $77 $-1 #
coedge $-1 $465 $466 $196 $322 forward $467 $-1 #
edge $-1 $468 4.6197204905778673 $325 9.0198328015255402 $321 $469 forward 7 unknown #
coedge $-1 $198 $457 $465 $470 forward $193 $-1 #
vertex $-1 $319 $471 #
vertex $-1 $470 $472 #
straight-curve $-1 0 27.493317461162636 9.0198328015255402 -1 0 0 I I #
face $-1 $-1 $339 $45 $-1 $473 forward single #
loop $-1 $-1 $474 $200 #
plane-surface $-1 -66.631672109134186 0 0 1 0 0 0 0 -1 forward_v I I I I #
coedge $-1 $475 $476 $477 $478 reversed $201 $-1 #
coedge $-1 $479 $203 $205 $337 forward $125 $-1 #
coedge $-1 $203 $479 $475 $480 forward $125 $-1 #
coedge $-1 $477 $206 $203 $334 forward $339 $-1 #
edge $-1 $341 -10.606762148705428 $481 -2.9237003957444827 $333 $482 forward 7 unknown #
coedge $-1 $483 $484 $204 $336 forward $328 $-1 #
edge $-1 $485 -56.318148410994063 $340 -47.517792563083049 $335 $486 forward 7 unknown #
edge $-1 $341 -17.08680612085298 $485 -1.6526814159067847e-014 $205 $487 forward 7 unknown #
coedge $-1 $206 $477 $483 $488 forward $339 $-1 #
loop $-1 $-1 $477 $327 #
vertex $-1 $336 $489 #
vertex $-1 $207 $490 #
straight-curve $-1 -67.633684642202155 -17.371993420930384 10.3930395234363 1 0 0 I I #
coedge $-1 $343 $343 $-1 $491 reversed $210 $-1 #
edge $-1 $492 0 $492 6.2831853071796004 $211 $493 forward 7 unknown #
vertex $-1 $214 $494 #
ellipse-curve $-1 -59.308546404188291 -15.835381070338194 5.992861599480797 -0.51503808176128008 0 0.85716729658548041 0.4285836482927402 0 0.25751904088064004 1 I I #
coedge $-1 $347 $347 $-1 $495 reversed $217 $-1 #
edge $-1 $496 0 $496 6.2831853071796004 $218 $497 forward 7 unknown #
vertex $-1 $221 $498 #
ellipse-curve $-1 -59.308546404188291 -13.530462544449911 5.992861599480797 -0.51503808176128008 0 0.85716729658548041 0.4285836482927402 0 0.25751904088064004 1 I I #
coedge $-1 $351 $351 $-1 $499 reversed $224 $-1 #
edge $-1 $500 0 $500 6.2831853071796004 $225 $501 forward 7 unknown #
vertex $-1 $228 $502 #
ellipse-curve $-1 -59.308546404188291 -11.225544018561628 5.992861599480797 -0.51503808176128008 0 0.85716729658548041 0.4285836482927402 0 0.25751904088064004 1 I I #
face $-1 $-1 $503 $49 $-1 $504 reversed single #
loop $-1 $-1 $235 $229 #
plane-surface $-1 0 0 10.393039523436297 0 0 1 1 0 0 forward_v I I I I #
coedge $-1 $505 $506 $507 $508 reversed $230 $-1 #
coedge $-1 $509 $232 $234 $365 forward $144 $-1 #
coedge $-1 $232 $509 $505 $510 forward $144 $-1 #
coedge $-1 $507 $235 $232 $362 forward $356 $-1 #
edge $-1 $368 2.9237003957444845 $511 10.60676214870543 $361 $512 forward 7 unknown #
coedge $-1 $513 $514 $233 $364 forward $503 $-1 #
edge $-1 $515 -56.318148410994063 $367 -47.517792563083049 $363 $516 forward 7 unknown #
edge $-1 $368 -17.08680612085298 $515 -1.6526814159067847e-014 $234 $517 forward 7 unknown #
coedge $-1 $235 $507 $513 $518 forward $356 $-1 #
vertex $-1 $236 $519 #
vertex $-1 $236 $520 #
straight-curve $-1 -67.633684642202155 9.6889316679694417 10.3930395234363 1 0 0 I I #
coedge $-1 $370 $370 $-1 $521 reversed $239 $-1 #
edge $-1 $522 0 $522 6.2831853071796004 $240 $523 forward 7 unknown #
vertex $-1 $243 $524 #
ellipse-curve $-1 -59.308546404188291 11.225544018561632 5.992861599480797 -0.51503808176128008 0 0.85716729658548041 0.4285836482927402 0 0.25751904088064004 1 I I #
coedge $-1 $374 $374 $-1 $525 reversed $246 $-1 #
edge $-1 $526 0 $526 6.2831853071796004 $247 $527 forward 7 unknown #
vertex $-1 $250 $528 #
ellipse-curve $-1 -59.308546404188291 13.530462544449914 5.992861599480797 -0.51503808176128008 0 0.85716729658548041 0.4285836482927402 0 0.25751904088064004 1 I I #
coedge $-1 $378 $378 $-1 $529 reversed $253 $-1 #
edge $-1 $530 0 $530 6.2831853071796004 $254 $531 forward 7 unknown #
vertex $-1 $257 $532 #
ellipse-curve $-1 -59.308546404188291 15.835381070338197 5.992861599480797 -0.51503808176128008 0 0.85716729658548041 0.4285836482927402 0 0.25751904088064004 1 I I #
face $-1 $-1 $533 $53 $-1 $534 reversed single #
loop $-1 $-1 $264 $258 #
plane-surface $-1 0 0 10.393039523436297 0 0 1 1 0 0 forward_v I I I I #
coedge $-1 $535 $536 $537 $538 reversed $259 $-1 #
coedge $-1 $539 $261 $263 $392 forward $163 $-1 #
coedge $-1 $261 $539 $535 $540 forward $163 $-1 #
coedge $-1 $537 $264 $261 $389 forward $383 $-1 #
edge $-1 $395 0.59880585167920763 $541 6.8427316082932617 $388 $542 forward 7 unknown #
coedge $-1 $543 $544 $262 $391 forward $533 $-1 #
edge $-1 $545 -90.632079075834923 $394 -82.607420419658666 $390 $546 forward 7 unknown #
edge $-1 $395 118.12017224502205 $545 133.26334421826837 $263 $547 forward 7 unknown #
coedge $-1 $264 $537 $543 $548 forward $383 $-1 #
vertex $-1 $391 $549 #
vertex $-1 $265 $550 #
straight-curve $-1 12.118380794945978 -4.3195745816654423 10.3930395234363 -1 0 0 I I #
coedge $-1 $397 $397 $-1 $551 reversed $268 $-1 #
edge $-1 $552 0 $552 6.2831853071796004 $269 $553 forward 7 unknown #
vertex $-1 $272 $554 #
ellipse-curve $-1 60.210603061398281 -8.7795215506754793 6.3807101953481542 0.52991927123019833 0 0.84804809178421925 0.42402404589210962 0 -0.26495963561509916 1 I I #
coedge $-1 $401 $401 $-1 $555 reversed $275 $-1 #
edge $-1 $556 0 $556 6.2831853071796004 $276 $557 forward 7 unknown #
vertex $-1 $279 $558 #
ellipse-curve $-1 60.210603061398281 -6.1035533692694557 6.3807101953481542 0.52991927123019833 0 0.84804809178421925 0.42402404589210962 0 -0.26495963561509916 1 I I #
face $-1 $-1 $295 $42 $-1 $559 reversed single #
loop $-1 $-1 $422 $280 #
plane-surface $-1 0 27.493317461162636 0 0 -1 0 0 0 -1 forward_v I I I I #
coedge $-1 $560 $419 $422 $561 forward $281 $-1 #
coedge $-1 $425 $283 $284 $413 reversed $177 $-1 #
coedge $-1 $419 $560 $283 $411 reversed $281 $-1 #
edge $-1 $426 -10.393039523436297 $562 10.393039523436297 $410 $563 forward 7 unknown #
coedge $-1 $285 $284 $560 $564 forward $113 $-1 #
edge $-1 $417 -66.631672109134186 $562 66.631672109134186 $409 $565 forward 7 unknown #
coedge $-1 $422 $421 $285 $415 reversed $406 $-1 #
edge $-1 $566 -66.631672109134186 $416 66.631672109134186 $414 $567 forward 7 unknown #
vertex $-1 $287 $568 #
vertex $-1 $428 $569 #
straight-curve $-1 66.631672109134186 0 -10.393039523436297 0 -1 0 I I #
coedge $-1 $408 $410 $288 $420 reversed $281 $-1 #
edge $-1 $423 -27.493317461162636 $426 27.493317461162636 $419 $570 forward 7 unknown #
coedge $-1 $414 $289 $294 $429 forward $406 $-1 #
coedge $-1 $289 $414 $408 $561 reversed $406 $-1 #
vertex $-1 $290 $571 #
straight-curve $-1 0 27.493317461162636 10.393039523436297 -1 0 0 I I #
coedge $-1 $291 $409 $293 $428 reversed $177 $-1 #
vertex $-1 $420 $572 #
straight-curve $-1 0 -27.493317461162636 10.393039523436297 1 0 0 I I #
edge $-1 $296 -10.393039523436297 $417 10.393039523436297 $293 $573 forward 7 unknown #
edge $-1 $297 -10.393039523436297 $416 10.393039523436297 $294 $574 forward 7 unknown #
point $-1 66.631672109134186 -27.493317461162636 10.393039523436297 #
point $-1 66.631672109134186 27.493317461162636 10.393039523436297 #
face $-1 $-1 $448 $43 $-1 $575 reversed single #
loop $-1 $-1 $576 $299 #
plane-surface $-1 0 -37.614641501394885 6.8197766460517038 0 1 0 0 0 1 forward_v I I I I #
coedge $-1 $577 $445 $447 $578 forward $300 $-1 #
coedge $-1 $302 $309 $579 $580 forward $185 $-1 #
coedge $-1 $581 $307 $302 $438 reversed $448 $-1 #
edge $-1 $582 -5.0606620201161263 $311 5.0606620201161263 $437 $583 forward 7 unknown #
coedge $-1 $304 $303 $576 $584 reversed $117 $-1 #
coedge $-1 $445 $577 $303 $441 forward $300 $-1 #
edge $-1 $585 -5.0606620201161263 $443 5.0606620201161263 $303 $586 forward 7 unknown #
edge $-1 $310 -5.0606620201161263 $587 5.0606620201161263 $304 $588 forward 7 unknown #
vertex $-1 $305 $589 #
straight-curve $-1 -66.631672109134186 -27.493317461162636 0 0 0 -1 I I #
coedge $-1 $435 $440 $306 $446 reversed $300 $-1 #
edge $-1 $449 -66.631672109134186 $443 66.631672109134186 $445 $590 forward 7 unknown #
coedge $-1 $307 $581 $435 $578 reversed $448 $-1 #
loop $-1 $-1 $307 $432 #
vertex $-1 $308 $591 #
straight-curve $-1 66.631672109134186 -27.493317461162636 0 0 0 1 I I #
point $-1 -66.631672109134186 -27.493317461162633 9.0198328015255402 #
point $-1 66.631672109134186 -27.493317461162633 9.0198328015255402 #
face $-1 $-1 $467 $44 $-1 $592 reversed single #
loop $-1 $-1 $593 $313 #
plane-surface $-1 0 37.614641501394885 6.8197766460517038 0 -1 0 0 0 -1 forward_v I I I I #
coedge $-1 $463 $594 $317 $460 forward $314 $-1 #
coedge $-1 $323 $316 $595 $596 forward $193 $-1 #
edge $-1 $324 -5.0606620201161228 $597 5.0606620201161263 $318 $598 forward 7 unknown #
coedge $-1 $318 $317 $593 $599 reversed $121 $-1 #
edge $-1 $600 -5.0606620201161263 $461 5.0606620201161228 $317 $601 forward 7 unknown #
vertex $-1 $319 $602 #
straight-curve $-1 66.631672109134186 27.493317461162636 0 0 0 -1 I I #
coedge $-1 $603 $456 $320 $464 reversed $314 $-1 #
edge $-1 $468 -66.631672109134186 $461 66.631672109134186 $463 $604 forward 7 unknown #
coedge $-1 $605 $321 $323 $470 reversed $467 $-1 #
coedge $-1 $321 $605 $603 $606 reversed $467 $-1 #
loop $-1 $-1 $321 $453 #
vertex $-1 $322 $607 #
straight-curve $-1 -66.631672109134186 27.493317461162636 0 0 0 1 I I #
edge $-1 $608 -5.0606620201161263 $325 5.0606620201161228 $465 $609 forward 7 unknown #
point $-1 66.631672109134186 27.493317461162636 9.0198328015255402 #
point $-1 -66.631672109134186 27.493317461162636 9.0198328015255402 #
plane-surface $-1 0 0 10.393039523436297 0 0 1 1 0 0 forward_v I I I I #
coedge $-1 $484 $483 $476 $610 forward $328 $-1 #
coedge $-1 $476 $330 $332 $480 reversed $201 $-1 #
coedge $-1 $330 $475 $474 $610 reversed $201 $-1 #
coedge $-1 $338 $333 $330 $478 forward $339 $-1 #
edge $-1 $481 -15.648263942959744 $611 -1.002012533067969 $477 $612 forward 7 unknown #
coedge $-1 $332 $331 $484 $613 reversed $125 $-1 #
edge $-1 $614 1.6526814159067847e-014 $481 17.08680612085298 $475 $615 forward 7 unknown #
vertex $-1 $334 $616 #
straight-curve $-1 -51.985420699242411 -6.7652312722249555 10.393039523436297 0 1 0 I I #
coedge $-1 $474 $335 $338 $488 reversed $328 $-1 #
coedge $-1 $335 $474 $479 $613 forward $328 $-1 #
vertex $-1 $336 $617 #
straight-curve $-1 -66.631672109134186 -17.371993420930384 57.910832086519349 0 0 1 I I #
straight-curve $-1 -66.6316721091342 -17.371993420930384 1.5926836755252793 -0.85716729658548041 0 -0.51503808176128008 I I #
edge $-1 $611 9.6889316679694382 $340 17.371993420930384 $483 $618 forward 7 unknown #
point $-1 -66.631672109134186 -17.371993420930384 10.393039523436297 #
point $-1 -51.985420699242411 -17.371993420930384 10.393039523436297 #
edge $-1 $619 1 $619 0 $343 $-1 forward 7 unknown #
vertex $-1 $344 $620 #
ellipse-curve $-1 -58.793508322427009 -15.835381070338194 5.1356943028953079 -0.51503808176128008 0 0.85716729658548041 0.4285836482927402 0 0.25751904088064004 1 I I #
point $-1 -58.879962755895548 -15.835381070338194 6.2503806403614286 #
edge $-1 $621 1 $621 0 $347 $-1 forward 7 unknown #
vertex $-1 $348 $622 #
ellipse-curve $-1 -58.793508322427009 -13.530462544449911 5.1356943028953079 -0.51503808176128008 0 0.85716729658548041 0.4285836482927402 0 0.25751904088064004 1 I I #
point $-1 -58.879962755895548 -13.530462544449911 6.2503806403614286 #
edge $-1 $623 1 $623 0 $351 $-1 forward 7 unknown #
vertex $-1 $352 $624 #
ellipse-curve $-1 -58.793508322427009 -11.225544018561628 5.1356943028953079 -0.51503808176128008 0 0.85716729658548041 0.4285836482927402 0 0.25751904088064004 1 I I #
point $-1 -58.879962755895548 -11.225544018561628 6.2503806403614286 #
loop $-1 $-1 $363 $355 #
plane-surface $-1 -66.631672109134186 0 0 1 0 0 0 0 -1 forward_v I I I I #
coedge $-1 $506 $358 $360 $510 reversed $230 $-1 #
coedge $-1 $358 $505 $625 $626 reversed $230 $-1 #
coedge $-1 $366 $361 $358 $508 forward $356 $-1 #
edge $-1 $511 -15.648263942959744 $627 -1.002012533067969 $507 $628 forward 7 unknown #
coedge $-1 $360 $359 $514 $629 reversed $144 $-1 #
edge $-1 $630 1.6526814159067847e-014 $511 17.08680612085298 $505 $631 forward 7 unknown #
vertex $-1 $362 $632 #
straight-curve $-1 -51.985420699242411 6.7652312722249572 10.393039523436297 0 1 0 I I #
coedge $-1 $625 $363 $366 $518 reversed $503 $-1 #
coedge $-1 $363 $625 $509 $629 forward $503 $-1 #
vertex $-1 $364 $633 #
straight-curve $-1 -66.631672109134186 9.6889316679694417 57.910832086519349 0 0 1 I I #
straight-curve $-1 -66.6316721091342 9.6889316679694417 1.5926836755252793 -0.85716729658548041 0 -0.51503808176128008 I I #
edge $-1 $627 -17.371993420930387 $367 -9.6889316679694417 $513 $634 forward 7 unknown #
point $-1 -66.631672109134186 9.6889316679694417 10.393039523436297 #
point $-1 -51.985420699242411 9.6889316679694417 10.393039523436297 #
edge $-1 $635 1 $635 0 $370 $-1 forward 7 unknown #
vertex $-1 $371 $636 #
ellipse-curve $-1 -58.793508322427009 11.225544018561632 5.1356943028953079 -0.51503808176128008 0 0.85716729658548041 0.4285836482927402 0 0.25751904088064004 1 I I #
point $-1 -58.879962755895548 11.225544018561632 6.2503806403614286 #
edge $-1 $637 1 $637 0 $374 $-1 forward 7 unknown #
vertex $-1 $375 $638 #
ellipse-curve $-1 -58.793508322427009 13.530462544449914 5.1356943028953079 -0.51503808176128008 0 0.85716729658548041 0.4285836482927402 0 0.25751904088064004 1 I I #
point $-1 -58.879962755895548 13.530462544449914 6.2503806403614286 #
edge $-1 $639 1 $639 0 $378 $-1 forward 7 unknown #
vertex $-1 $379 $640 #
ellipse-curve $-1 -58.793508322427009 15.835381070338197 5.1356943028953079 -0.51503808176128008 0 0.85716729658548041 0.4285836482927402 0 0.25751904088064004 1 I I #
point $-1 -58.879962755895548 15.835381070338197 6.2503806403614286 #
loop $-1 $-1 $390 $382 #
plane-surface $-1 66.631672109134186 0 0 -1 0 0 0 0 1 forward_v I I I I #
coedge $-1 $536 $385 $387 $540 reversed $259 $-1 #
coedge $-1 $385 $535 $641 $642 reversed $259 $-1 #
coedge $-1 $393 $388 $385 $538 forward $383 $-1 #
edge $-1 $541 41.671153218716384 $643 54.513291314188209 $537 $644 forward 7 unknown #
coedge $-1 $387 $386 $544 $645 reversed $163 $-1 #
edge $-1 $646 -133.26334421826837 $541 -118.12017224502205 $535 $647 forward 7 unknown #
vertex $-1 $389 $648 #
straight-curve $-1 53.78953401366239 -3.7207687299862346 10.393039523436286 0 -1 0 I I #
coedge $-1 $641 $390 $393 $548 reversed $533 $-1 #
coedge $-1 $390 $641 $539 $645 forward $533 $-1 #
vertex $-1 $391 $649 #
straight-curve $-1 66.631672109134186 -4.3195745816654423 93.000459943094967 0 0 1 I I #
straight-curve $-1 -46.382052659951881 -4.3195745816654423 72.98719511710388 0.84804809178421925 0 -0.52991927123019833 I I #
edge $-1 $643 -10.563500338279496 $394 -4.3195745816654423 $543 $650 forward 7 unknown #
point $-1 66.631672109134186 -4.3195745816654423 10.393039523436297 #
point $-1 53.789534013662362 -4.3195745816654423 10.3930395234363 #
edge $-1 $651 1 $651 0 $397 $-1 forward 7 unknown #
vertex $-1 $398 $652 #
ellipse-curve $-1 59.616964745743928 -8.7795215506754793 5.4306903184866071 0.52991927123019833 0 0.84804809178421925 0.42402404589210962 0 -0.26495963561509916 1 I I #
point $-1 60.634627107290413 -8.7795215506754793 6.1157505597330868 #
edge $-1 $653 1 $653 0 $401 $-1 forward 7 unknown #
vertex $-1 $402 $654 #
ellipse-curve $-1 59.616964745743928 -6.1035533692694557 5.4306903184866071 0.52991927123019833 0 0.84804809178421925 0.42402404589210962 0 -0.26495963561509916 1 I I #
point $-1 60.634627107290413 -6.1035533692694557 6.1157505597330868 #
plane-surface $-1 66.631672109134186 0 0 -1 0 0 0 0 1 forward_v I I I I #
coedge $-1 $410 $408 $412 $564 reversed $281 $-1 #
edge $-1 $423 -10.393039523436297 $566 10.393039523436297 $422 $655 forward 7 unknown #
vertex $-1 $564 $656 #
straight-curve $-1 -66.631672109134186 -27.493317461162636 0 0 0 -1 I I #
edge $-1 $562 -27.493317461162636 $566 27.493317461162636 $560 $657 forward 7 unknown #
straight-curve $-1 0 -27.493317461162636 -10.393039523436297 -1 0 0 I I #
vertex $-1 $415 $658 #
straight-curve $-1 0 27.493317461162636 -10.393039523436297 1 0 0 I I #
point $-1 66.631672109134186 27.493317461162636 -10.393039523436297 #
point $-1 66.631672109134186 -27.493317461162636 -10.393039523436297 #
straight-curve $-1 -66.631672109134186 0 10.393039523436297 0 -1 0 I I #
point $-1 -66.631672109134186 27.493317461162636 10.393039523436297 #
point $-1 -66.631672109134186 -27.493317461162636 10.393039523436297 #
straight-curve $-1 66.631672109134186 -27.493317461162636 0 0 0 -1 I I #
straight-curve $-1 66.631672109134186 27.493317461162636 0 0 0 -1 I I #
plane-surface $-1 66.631672109134186 0 0 -1 0 0 0 0 1 forward_v I I I I #
coedge $-1 $659 $579 $439 $584 forward $433 $-1 #
coedge $-1 $440 $435 $659 $660 forward $300 $-1 #
edge $-1 $449 -5.0606620201161263 $661 5.0606620201161263 $447 $662 forward 7 unknown #
coedge $-1 $576 $663 $436 $580 reversed $433 $-1 #
edge $-1 $587 -66.631672109134186 $582 66.631672109134186 $579 $664 forward 7 unknown #
coedge $-1 $447 $437 $663 $665 forward $448 $-1 #
vertex $-1 $438 $666 #
straight-curve $-1 66.631672109134186 -32.553979481278759 9.0198328015255402 0 1 0 I I #
edge $-1 $587 -2.2000561554738365 $585 2.2000561554738365 $439 $667 forward 7 unknown #
vertex $-1 $441 $668 #
straight-curve $-1 -66.631672109134186 -32.553979481278759 4.6197204905778673 0 1 0 I I #
vertex $-1 $442 $669 #
straight-curve $-1 -66.631672109134186 -32.553979481278759 9.0198328015255402 0 -1 0 I I #
point $-1 -66.631672109134186 -27.493317461162633 4.6197204905778673 #
straight-curve $-1 0 -27.493317461162636 4.6197204905778673 -1 0 0 I I #
point $-1 66.631672109134186 -27.493317461162633 4.6197204905778673 #
plane-surface $-1 -66.631672109134186 0 0 1 0 0 0 0 -1 forward_v I I I I #
coedge $-1 $670 $595 $459 $599 forward $454 $-1 #
coedge $-1 $456 $603 $670 $671 forward $314 $-1 #
coedge $-1 $593 $672 $457 $596 reversed $454 $-1 #
edge $-1 $597 -66.631672109134186 $608 66.631672109134186 $595 $673 forward 7 unknown #
vertex $-1 $458 $674 #
straight-curve $-1 66.631672109134186 32.553979481278759 9.0198328015255402 0 1 0 I I #
edge $-1 $597 -2.2000561554738365 $600 2.2000561554738365 $459 $675 forward 7 unknown #
vertex $-1 $460 $676 #
straight-curve $-1 66.631672109134186 32.553979481278759 4.6197204905778673 0 -1 0 I I #
point $-1 66.631672109134186 27.493317461162636 4.6197204905778673 #
coedge $-1 $594 $463 $466 $606 forward $314 $-1 #
straight-curve $-1 0 27.493317461162636 4.6197204905778673 1 0 0 I I #
coedge $-1 $466 $465 $672 $677 forward $467 $-1 #
edge $-1 $468 -5.0606620201161228 $678 5.0606620201161263 $466 $679 forward 7 unknown #
point $-1 -66.631672109134186 27.493317461162636 4.6197204905778673 #
vertex $-1 $596 $680 #
straight-curve $-1 -66.631672109134186 32.553979481278759 9.0198328015255402 0 -1 0 I I #
edge $-1 $611 47.517792563083049 $614 56.318148410994063 $474 $681 forward 7 unknown #
vertex $-1 $488 $682 #
straight-curve $-1 -67.633684642202155 -9.6889316679694382 10.3930395234363 -1 0 0 I I #
edge $-1 $614 2.9237003957444827 $485 10.606762148705428 $484 $683 forward 7 unknown #
vertex $-1 $613 $684 #
straight-curve $-1 -66.6316721091342 -9.6889316679694382 1.5926836755252793 0.85716729658548041 0 0.51503808176128008 I I #
point $-1 -51.985420699242411 -9.6889316679694382 10.393039523436297 #
point $-1 -66.631672109134186 -17.371993420930384 1.5926836755252878 #
straight-curve $-1 -66.631672109134186 0 10.393039523436297 0 -1 0 I I #
vertex $-1 $491 $685 #
point $-1 -58.364924674134272 -15.835381070338194 5.3932133437759484 #
vertex $-1 $495 $686 #
point $-1 -58.364924674134272 -13.530462544449911 5.3932133437759484 #
vertex $-1 $499 $687 #
point $-1 -58.364924674134272 -11.225544018561628 5.3932133437759484 #
coedge $-1 $514 $513 $506 $626 forward $503 $-1 #
edge $-1 $627 47.517792563083049 $630 56.318148410994063 $625 $688 forward 7 unknown #
vertex $-1 $518 $689 #
straight-curve $-1 -67.633684642202155 17.371993420930387 10.3930395234363 -1 0 0 I I #
edge $-1 $630 -10.60676214870543 $515 -2.9237003957444845 $514 $690 forward 7 unknown #
vertex $-1 $629 $691 #
straight-curve $-1 -66.6316721091342 17.371993420930387 1.5926836755252793 0.85716729658548041 0 0.51503808176128008 I I #
point $-1 -51.985420699242411 17.371993420930387 10.393039523436297 #
point $-1 -66.631672109134186 9.6889316679694417 1.5926836755252878 #
straight-curve $-1 -66.631672109134186 0 10.393039523436297 0 -1 0 I I #
vertex $-1 $521 $692 #
point $-1 -58.364924674134272 11.225544018561632 5.3932133437759484 #
vertex $-1 $525 $693 #
point $-1 -58.364924674134272 13.530462544449914 5.3932133437759484 #
vertex $-1 $529 $694 #
point $-1 -58.364924674134272 15.835381070338197 5.3932133437759484 #
coedge $-1 $544 $543 $536 $642 forward $533 $-1 #
edge $-1 $643 82.607420419658666 $646 90.632079075834923 $641 $695 forward 7 unknown #
vertex $-1 $548 $696 #
straight-curve $-1 12.118380794945978 -10.563500338279496 10.3930395234363 1 0 0 I I #
edge $-1 $646 -6.8427316082932617 $545 -0.59880585167920763 $544 $697 forward 7 unknown #
vertex $-1 $645 $698 #
straight-curve $-1 -46.382052659951881 -10.563500338279496 72.98719511710388 -0.84804809178421925 0 0.52991927123019833 I I #
point $-1 53.789534013662362 -10.563500338279496 10.3930395234363 #
point $-1 66.631672109134172 -4.3195745816654423 2.3683808672600435 #
straight-curve $-1 66.631672109134186 0 10.393039523436297 0 1 0 I I #
vertex $-1 $551 $699 #
point $-1 60.040988791636039 -8.7795215506754793 5.1657306828715086 #
vertex $-1 $555 $700 #
point $-1 60.040988791636039 -6.1035533692694557 5.1657306828715086 #
straight-curve $-1 -66.631672109134186 27.493317461162636 0 0 0 -1 I I #
point $-1 -66.631672109134186 -27.493317461162636 -10.393039523436297 #
straight-curve $-1 -66.631672109134186 0 -10.393039523436297 0 1 0 I I #
point $-1 -66.631672109134186 27.493317461162636 -10.393039523436297 #
coedge $-1 $663 $576 $577 $660 reversed $433 $-1 #
edge $-1 $661 -66.631672109134186 $585 66.631672109134186 $659 $701 forward 7 unknown #
vertex $-1 $665 $702 #
straight-curve $-1 66.631672109134186 -32.553979481278759 4.6197204905778673 0 -1 0 I I #
coedge $-1 $579 $659 $581 $665 reversed $433 $-1 #
straight-curve $-1 0 -37.614641501394885 9.0198328015255402 1 0 0 I I #
edge $-1 $582 -2.2000561554738365 $661 2.2000561554738365 $581 $703 forward 7 unknown #
point $-1 66.631672109134186 -37.614641501394885 9.0198328015255402 #
straight-curve $-1 -66.631672109134186 -37.614641501394885 6.8197766460517038 0 0 -1 I I #
point $-1 -66.631672109134186 -37.614641501394885 4.6197204905778673 #
point $-1 -66.631672109134186 -37.614641501394885 9.0198328015255402 #
coedge $-1 $672 $593 $594 $671 reversed $454 $-1 #
edge $-1 $678 -66.631672109134186 $600 66.631672109134186 $670 $704 forward 7 unknown #
coedge $-1 $595 $670 $605 $677 reversed $454 $-1 #
straight-curve $-1 0 37.614641501394885 9.0198328015255402 -1 0 0 I I #
point $-1 66.631672109134186 37.614641501394885 9.0198328015255402 #
straight-curve $-1 66.631672109134186 37.614641501394885 6.8197766460517038 0 0 -1 I I #
point $-1 66.631672109134186 37.614641501394885 4.6197204905778673 #
edge $-1 $608 -2.2000561554738365 $678 2.2000561554738365 $672 $705 forward 7 unknown #
vertex $-1 $671 $706 #
straight-curve $-1 -66.631672109134186 32.553979481278759 4.6197204905778673 0 1 0 I I #
point $-1 -66.631672109134186 37.614641501394885 9.0198328015255402 #
straight-curve $-1 -66.631672109134186 -9.6889316679694382 57.910832086519349 0 0 -1 I I #
point $-1 -66.631672109134186 -9.6889316679694382 10.393039523436297 #
straight-curve $-1 -66.631672109134186 -6.7652312722249555 1.5926836755252922 0 -1 0 I I #
point $-1 -66.631672109134186 -9.6889316679694382 1.5926836755252878 #
point $-1 -58.535989281546371 -15.835381070338194 4.7071106546025678 #
point $-1 -58.535989281546371 -13.530462544449911 4.7071106546025678 #
point $-1 -58.535989281546371 -11.225544018561628 4.7071106546025678 #
straight-curve $-1 -66.631672109134186 17.371993420930387 57.910832086519349 0 0 -1 I I #
point $-1 -66.631672109134186 17.371993420930387 10.393039523436297 #
straight-curve $-1 -66.631672109134186 6.7652312722249572 1.5926836755252922 0 -1 0 I I #
point $-1 -66.631672109134186 17.371993420930387 1.5926836755252878 #
point $-1 -58.535989281546371 11.225544018561632 4.7071106546025678 #
point $-1 -58.535989281546371 13.530462544449914 4.7071106546025678 #
point $-1 -58.535989281546371 15.835381070338197 4.7071106546025678 #
straight-curve $-1 66.631672109134186 -10.563500338279496 93.000459943094967 0 0 -1 I I #
point $-1 66.631672109134186 -10.563500338279496 10.393039523436297 #
straight-curve $-1 66.631672109134186 -3.7207687299862346 2.3683808672600293 0 1 0 I I #
point $-1 66.631672109134172 -10.563500338279496 2.3683808672600435 #
point $-1 59.352005110128829 -8.7795215506754793 5.0066662725944981 #
point $-1 59.352005110128829 -6.1035533692694557 5.0066662725944981 #
straight-curve $-1 0 -37.614641501394885 4.6197204905778673 -1 0 0 I I #
point $-1 66.631672109134186 -37.614641501394885 4.6197204905778673 #
straight-curve $-1 66.631672109134186 -37.614641501394885 6.8197766460517038 0 0 -1 I I #
straight-curve $-1 0 37.614641501394885 4.6197204905778673 1 0 0 I I #
straight-curve $-1 -66.631672109134186 37.614641501394885 6.8197766460517038 0 0 -1 I I #
point $-1 -66.631672109134186 37.614641501394885 4.6197204905778673 #
End-of-ACIS-data 