500 0 10 0           
7 Unknown 11 ACIS 5.0 NT 24 Fri Mar 26 15:10:26 1999 
-1 9.9999999999999995e-007 1e-010 
body $-1 $10 $-1 $11 #
body $-1 $12 $-1 $13 #
body $-1 $14 $-1 $15 #
body $-1 $16 $-1 $17 #
body $-1 $18 $-1 $19 #
body $-1 $20 $-1 $21 #
body $-1 $22 $-1 $23 #
body $-1 $24 $-1 $25 #
body $-1 $26 $-1 $27 #
body $-1 $28 $-1 $29 #
lump $-1 $-1 $30 $0 #
transform $-1 1 0 0 0 1 0 0 0 1 64.868923001800596 33.762248196579115 11.624055507214196 1 rotate no_reflect no_shear #
lump $-1 $-1 $31 $1 #
transform $-1 1 0 0 0 1 0 0 0 1 64.868923001800596 33.762248196579115 11.624055507214196 1 rotate no_reflect no_shear #
lump $-1 $-1 $32 $2 #
transform $-1 1 0 0 0 1 0 0 0 1 64.868923001800596 33.762248196579115 11.624055507214196 1 rotate no_reflect no_shear #
lump $-1 $-1 $33 $3 #
transform $-1 1 0 0 0 1 0 0 0 1 64.868923001800596 33.762248196579115 11.624055507214196 1 rotate no_reflect no_shear #
lump $-1 $-1 $34 $4 #
transform $-1 1 0 0 0 1 0 0 0 1 64.868923001800596 33.762248196579115 11.624055507214196 1 rotate no_reflect no_shear #
lump $-1 $-1 $35 $5 #
transform $-1 1 0 0 0 1 0 0 0 1 64.868923001800596 33.762248196579115 11.624055507214196 1 rotate no_reflect no_shear #
lump $-1 $-1 $36 $6 #
transform $-1 1 0 0 0 1 0 0 0 1 64.868923001800596 33.762248196579115 11.624055507214196 1 rotate no_reflect no_shear #
lump $-1 $-1 $37 $7 #
transform $-1 1 0 0 0 1 0 0 0 1 64.868923001800596 33.762248196579115 11.624055507214196 1 rotate no_reflect no_shear #
lump $-1 $-1 $38 $8 #
transform $-1 1 0 0 0 1 0 0 0 1 64.868923001800596 33.762248196579115 11.624055507214196 1 rotate no_reflect no_shear #
lump $-1 $-1 $39 $9 #
transform $-1 1 0 0 0 1 0 0 0 1 64.868923001800596 33.762248196579115 11.624055507214196 1 rotate no_reflect no_shear #
shell $-1 $-1 $-1 $40 $-1 $10 #
shell $-1 $-1 $-1 $41 $-1 $12 #
shell $-1 $-1 $-1 $42 $-1 $14 #
shell $-1 $-1 $-1 $43 $-1 $16 #
shell $-1 $-1 $-1 $44 $-1 $18 #
shell $-1 $-1 $-1 $45 $-1 $20 #
shell $-1 $-1 $-1 $46 $-1 $22 #
shell $-1 $-1 $-1 $47 $-1 $24 #
shell $-1 $-1 $-1 $48 $-1 $26 #
shell $-1 $-1 $-1 $49 $-1 $28 #
face $-1 $50 $51 $30 $-1 $52 reversed single #
face $-1 $53 $54 $31 $-1 $55 forward single #
face $-1 $56 $57 $32 $-1 $58 forward single #
face $-1 $59 $60 $33 $-1 $61 reversed single #
face $-1 $62 $63 $34 $-1 $64 forward single #
face $-1 $65 $66 $35 $-1 $67 forward single #
face $-1 $68 $69 $36 $-1 $70 reversed single #
face $-1 $71 $72 $37 $-1 $73 forward single #
face $-1 $74 $75 $38 $-1 $76 forward single #
face $-1 $77 $78 $39 $-1 $79 forward single #
face $-1 $80 $81 $30 $-1 $82 forward single #
loop $-1 $-1 $83 $40 #
plane-surface $-1 64.868923001800596 0 0 -1 0 0 0 0 1 forward_v I I I I #
face $-1 $84 $85 $31 $-1 $86 forward single #
loop $-1 $-1 $87 $41 #
plane-surface $-1 -64.868923001800596 0 0 1 0 0 0 0 -1 forward_v I I I I #
face $-1 $88 $89 $32 $-1 $90 reversed single #
loop $-1 $-1 $91 $42 #
plane-surface $-1 64.868923001800596 0 0 -1 0 0 0 0 1 forward_v I I I I #
face $-1 $92 $93 $33 $-1 $94 reversed single #
loop $-1 $-1 $95 $43 #
plane-surface $-1 25.23565847722594 52.863991615704727 148.04273252025982 1 0 0 0 -0.57357644374324357 -0.81915203911291934 forward_v I I I I #
face $-1 $96 $97 $34 $-1 $98 forward single #
loop $-1 $99 $100 $44 #
cone-surface $-1 32.73229005800107 25.227633181095342 3.8988119031264938 0 -0.57357644374324357 -0.81915203911291934 2.5 0 0 1 I I 0 1 2.5 forward I I I I #
face $-1 $101 $102 $35 $-1 $103 forward single #
loop $-1 $104 $105 $45 #
cone-surface $-1 43.977237429163765 25.227633181095342 3.8988119031264938 0 -0.57357644374324357 -0.81915203911291934 2.5 0 0 1 I I 0 1 2.5 forward I I I I #
face $-1 $106 $107 $36 $-1 $108 reversed single #
loop $-1 $-1 $109 $46 #
plane-surface $-1 25.66838222784191 -138.72237148883707 81.441320322277463 -1 0 0 0 -0.80901700255871778 0.5877852410284794 forward_v I I I I #
face $-1 $110 $111 $37 $-1 $112 forward single #
loop $-1 $113 $114 $47 #
cone-surface $-1 16.016485898727069 -30.655880862892843 7.8466982743439173 0 0.80901700255871778 -0.5877852410284794 1 0 0 1 I I 0 1 1 forward I I I I #
face $-1 $115 $116 $38 $-1 $117 forward single #
loop $-1 $118 $119 $48 #
cone-surface $-1 19.635947022145132 -30.655880862892843 7.8466982743439173 0 0.80901700255871778 -0.5877852410284794 1 0 0 1 I I 0 1 1 forward I I I I #
face $-1 $120 $121 $39 $-1 $122 forward single #
loop $-1 $123 $124 $49 #
cone-surface $-1 23.255408145563194 -30.655880862892843 7.8466982743439173 0 0.80901700255871778 -0.5877852410284794 1 0 0 1 I I 0 1 1 forward I I I I #
face $-1 $125 $126 $30 $-1 $127 reversed single #
loop $-1 $-1 $128 $50 #
plane-surface $-1 0 0 11.624055507214196 0 0 1 1 0 0 forward_v I I I I #
coedge $-1 $129 $130 $131 $132 reversed $51 $-1 #
face $-1 $133 $134 $31 $-1 $135 reversed single #
loop $-1 $-1 $136 $53 #
plane-surface $-1 0 0 11.624055507214196 0 0 1 1 0 0 forward_v I I I I #
coedge $-1 $137 $138 $139 $140 forward $54 $-1 #
face $-1 $141 $142 $32 $-1 $143 reversed single #
loop $-1 $-1 $144 $56 #
plane-surface $-1 0 -33.762248196579115 0 0 1 0 0 0 1 forward_v I I I I #
coedge $-1 $145 $146 $147 $148 forward $57 $-1 #
face $-1 $149 $150 $33 $-1 $151 reversed single #
loop $-1 $-1 $152 $59 #
plane-surface $-1 38.35476374358241 -21.550580713949437 41.767711416291988 0 0.57357644374324357 0.81915203911291934 1 0 0 forward_v I I I I #
coedge $-1 $153 $154 $155 $156 reversed $60 $-1 #
face $-1 $-1 $157 $34 $-1 $158 forward single #
loop $-1 $159 $160 $62 #
cone-surface $-1 32.73229005800107 22.107661428382805 -0.55696945102066842 0 -0.57357644374324357 -0.81915203911291934 1.25 0 0 1 I I -0.70710678118654746 0.70710678118654746 1.25 forward I I I I #
loop $-1 $-1 $161 $44 #
coedge $-1 $100 $100 $162 $163 reversed $63 $-1 #
face $-1 $-1 $164 $35 $-1 $165 forward single #
loop $-1 $166 $167 $65 #
cone-surface $-1 43.977237429163765 22.107661428382805 -0.55696945102066842 0 -0.57357644374324357 -0.81915203911291934 1.25 0 0 1 I I -0.70710678118654746 0.70710678118654746 1.25 forward I I I I #
loop $-1 $-1 $168 $45 #
coedge $-1 $105 $105 $169 $170 reversed $66 $-1 #
face $-1 $171 $172 $36 $-1 $173 reversed single #
loop $-1 $-1 $174 $68 #
plane-surface $-1 19.635947022145132 -33.762248196579108 5.1833292385349949 0 -0.80901700255871778 0.5877852410284794 1 0 0 forward_v I I I I #
coedge $-1 $175 $176 $177 $178 reversed $69 $-1 #
face $-1 $-1 $179 $37 $-1 $180 forward single #
loop $-1 $181 $182 $71 #
cone-surface $-1 16.016485898727069 -29.484735732140251 6.9958115552989977 0 0.80901700255871778 -0.5877852410284794 0.5 0 0 1 I I -0.70710678118654746 0.70710678118654746 0.5 forward I I I I #
loop $-1 $-1 $183 $47 #
coedge $-1 $114 $114 $184 $185 reversed $72 $-1 #
face $-1 $-1 $186 $38 $-1 $187 forward single #
loop $-1 $188 $189 $74 #
cone-surface $-1 19.635947022145132 -29.484735732140251 6.9958115552989977 0 0.80901700255871778 -0.5877852410284794 0.5 0 0 1 I I -0.70710678118654746 0.70710678118654746 0.5 forward I I I I #
loop $-1 $-1 $190 $48 #
coedge $-1 $119 $119 $191 $192 reversed $75 $-1 #
face $-1 $-1 $193 $39 $-1 $194 forward single #
loop $-1 $195 $196 $77 #
cone-surface $-1 23.255408145563194 -29.484735732140251 6.9958115552989977 0 0.80901700255871778 -0.5877852410284794 0.5 0 0 1 I I -0.70710678118654746 0.70710678118654746 0.5 forward I I I I #
loop $-1 $-1 $197 $49 #
coedge $-1 $124 $124 $198 $199 reversed $78 $-1 #
face $-1 $200 $201 $30 $-1 $202 reversed single #
loop $-1 $-1 $131 $80 #
plane-surface $-1 0 0 -11.624055507214196 0 0 1 1 0 0 forward_v I I I I #
coedge $-1 $203 $204 $205 $206 forward $81 $-1 #
coedge $-1 $205 $83 $207 $208 reversed $51 $-1 #
coedge $-1 $83 $205 $209 $210 forward $51 $-1 #
coedge $-1 $211 $212 $83 $132 forward $126 $-1 #
edge $-1 $213 -33.762248196579115 $214 33.762248196579115 $83 $215 forward 7 unknown #
face $-1 $216 $217 $31 $-1 $218 reversed single #
loop $-1 $-1 $219 $84 #
plane-surface $-1 -78.263976993662311 -31.114296369359689 0 1 0 0 0 0 -1 forward_v I I I I #
coedge $-1 $220 $221 $137 $222 forward $85 $-1 #
coedge $-1 $223 $87 $136 $222 reversed $54 $-1 #
coedge $-1 $87 $223 $224 $225 reversed $54 $-1 #
coedge $-1 $226 $227 $87 $140 reversed $217 $-1 #
edge $-1 $228 -11.624055507214196 $229 11.624055507214196 $139 $230 forward 7 unknown #
face $-1 $231 $232 $32 $-1 $233 reversed single #
loop $-1 $-1 $234 $88 #
plane-surface $-1 0 0 -11.624055507214196 0 0 1 1 0 0 forward_v I I I I #
coedge $-1 $235 $236 $237 $238 forward $89 $-1 #
coedge $-1 $237 $91 $234 $239 reversed $57 $-1 #
coedge $-1 $91 $237 $240 $241 reversed $57 $-1 #
coedge $-1 $242 $243 $91 $148 reversed $232 $-1 #
edge $-1 $244 -11.624055507214196 $245 11.624055507214196 $147 $246 forward 7 unknown #
face $-1 $247 $248 $33 $-1 $249 reversed single #
loop $-1 $-1 $250 $92 #
plane-surface $-1 51.47386900993888 52.863991615704727 148.04273252025982 -1 0 0 0 0.57357644374324357 0.81915203911291934 forward_v I I I I #
coedge $-1 $251 $252 $253 $254 reversed $93 $-1 #
coedge $-1 $154 $95 $255 $256 reversed $60 $-1 #
coedge $-1 $95 $153 $251 $257 reversed $60 $-1 #
coedge $-1 $253 $258 $95 $156 forward $259 $-1 #
edge $-1 $260 -7.3302523887267519 $261 4.9329752461738643 $155 $262 forward 7 unknown #
loop $-1 $-1 $162 $96 #
plane-surface $-1 38.35476374358241 -21.550580713949437 41.767711416291988 0 0.57357644374324357 0.81915203911291934 1 0 0 forward_v I I I I #
loop $-1 $-1 $263 $62 #
coedge $-1 $160 $160 $161 $264 reversed $97 $-1 #
coedge $-1 $161 $161 $160 $264 forward $99 $-1 #
coedge $-1 $162 $162 $100 $163 forward $157 $-1 #
edge $-1 $265 4.3562586896199852e-016 $265 6.2831853071796004 $162 $266 forward 7 unknown #
loop $-1 $-1 $169 $101 #
plane-surface $-1 38.35476374358241 -21.550580713949437 41.767711416291988 0 0.57357644374324357 0.81915203911291934 1 0 0 forward_v I I I I #
loop $-1 $-1 $267 $65 #
coedge $-1 $167 $167 $168 $268 reversed $102 $-1 #
coedge $-1 $168 $168 $167 $268 forward $104 $-1 #
coedge $-1 $169 $169 $105 $170 forward $164 $-1 #
edge $-1 $269 4.3562586896199852e-016 $269 6.2831853071796004 $169 $270 forward 7 unknown #
face $-1 $271 $272 $36 $-1 $273 forward single #
loop $-1 $-1 $274 $106 #
plane-surface $-1 13.603511816448353 -138.72237148883707 81.441320322277463 1 0 0 0 0.80901700255871778 -0.5877852410284794 forward_v I I I I #
coedge $-1 $275 $276 $277 $278 reversed $107 $-1 #
coedge $-1 $176 $109 $279 $280 reversed $69 $-1 #
coedge $-1 $109 $175 $275 $281 reversed $69 $-1 #
coedge $-1 $277 $282 $109 $178 forward $272 $-1 #
edge $-1 $283 35.598937547839419 $284 40.278398956265505 $177 $285 forward 7 unknown #
loop $-1 $-1 $184 $110 #
plane-surface $-1 19.635947022145132 -33.762248196579108 5.1833292385349949 0 -0.80901700255871778 0.5877852410284794 1 0 0 forward_v I I I I #
loop $-1 $-1 $286 $71 #
coedge $-1 $182 $182 $183 $287 reversed $111 $-1 #
coedge $-1 $183 $183 $182 $287 forward $113 $-1 #
coedge $-1 $184 $184 $114 $185 forward $179 $-1 #
edge $-1 $288 -1.9533893409379798e-015 $288 6.2831853071795987 $184 $289 forward 7 unknown #
loop $-1 $-1 $191 $115 #
plane-surface $-1 19.635947022145132 -33.762248196579108 5.1833292385349949 0 -0.80901700255871778 0.5877852410284794 1 0 0 forward_v I I I I #
loop $-1 $-1 $290 $74 #
coedge $-1 $189 $189 $190 $291 reversed $116 $-1 #
coedge $-1 $190 $190 $189 $291 forward $118 $-1 #
coedge $-1 $191 $191 $119 $192 forward $186 $-1 #
edge $-1 $292 -1.9533893409379798e-015 $292 6.2831853071795987 $191 $293 forward 7 unknown #
loop $-1 $-1 $198 $120 #
plane-surface $-1 19.635947022145132 -33.762248196579108 5.1833292385349949 0 -0.80901700255871778 0.5877852410284794 1 0 0 forward_v I I I I #
loop $-1 $-1 $294 $77 #
coedge $-1 $196 $196 $197 $295 reversed $121 $-1 #
coedge $-1 $197 $197 $196 $295 forward $123 $-1 #
coedge $-1 $198 $198 $124 $199 forward $193 $-1 #
edge $-1 $296 -1.9533893409379798e-015 $296 6.2831853071795987 $198 $297 forward 7 unknown #
face $-1 $298 $299 $30 $-1 $300 reversed single #
loop $-1 $-1 $301 $125 #
plane-surface $-1 0 -33.762248196579115 0 0 1 0 0 0 1 forward_v I I I I #
coedge $-1 $302 $128 $303 $304 forward $81 $-1 #
coedge $-1 $128 $302 $305 $306 forward $81 $-1 #
coedge $-1 $130 $129 $128 $206 reversed $51 $-1 #
edge $-1 $307 -33.762248196579115 $308 33.762248196579115 $205 $309 forward 7 unknown #
coedge $-1 $310 $303 $129 $208 forward $311 $-1 #
edge $-1 $308 -11.624055507214196 $213 11.624055507214196 $129 $312 forward 7 unknown #
coedge $-1 $305 $313 $130 $210 reversed $201 $-1 #
edge $-1 $307 -11.624055507214196 $214 11.624055507214196 $130 $314 forward 7 unknown #
coedge $-1 $315 $131 $313 $316 forward $126 $-1 #
coedge $-1 $131 $315 $310 $317 forward $126 $-1 #
vertex $-1 $132 $318 #
vertex $-1 $210 $319 #
straight-curve $-1 64.868923001800596 0 -11.624055507214196 0 -1 0 I I #
face $-1 $320 $321 $31 $-1 $322 reversed single #
loop $-1 $-1 $139 $133 #
plane-surface $-1 -71.566449997731453 -28.466344542140263 0 0 -1 0 0 0 -1 forward_v I I I I #
coedge $-1 $323 $324 $325 $326 forward $134 $-1 #
coedge $-1 $327 $136 $227 $328 forward $85 $-1 #
coedge $-1 $136 $327 $329 $330 forward $85 $-1 #
edge $-1 $331 -33.762248196579115 $229 -28.466344542140263 $136 $332 forward 7 unknown #
coedge $-1 $138 $137 $333 $334 reversed $54 $-1 #
coedge $-1 $335 $336 $138 $225 forward $321 $-1 #
edge $-1 $228 28.466344542140263 $337 33.762248196579115 $224 $338 forward 7 unknown #
coedge $-1 $325 $139 $336 $339 reversed $217 $-1 #
coedge $-1 $139 $325 $220 $328 reversed $217 $-1 #
vertex $-1 $225 $340 #
vertex $-1 $328 $341 #
straight-curve $-1 -64.868923001800596 -28.466344542140263 0 0 0 1 I I #
face $-1 $342 $343 $32 $-1 $344 reversed single #
loop $-1 $-1 $345 $141 #
plane-surface $-1 71.566449997731439 -28.466344542140263 0 0 -1 0 0 0 -1 forward_v I I I I #
coedge $-1 $346 $347 $145 $239 forward $142 $-1 #
coedge $-1 $348 $144 $347 $349 reversed $89 $-1 #
coedge $-1 $144 $348 $350 $351 reversed $89 $-1 #
coedge $-1 $146 $145 $144 $238 reversed $57 $-1 #
edge $-1 $352 -11.624055507214196 $353 11.624055507214196 $144 $354 forward 7 unknown #
edge $-1 $353 -33.762248196579115 $245 -28.466344542140263 $234 $355 forward 7 unknown #
coedge $-1 $350 $356 $146 $241 forward $357 $-1 #
edge $-1 $244 28.466344542140263 $352 33.762248196579115 $240 $358 forward 7 unknown #
coedge $-1 $345 $147 $356 $359 reversed $232 $-1 #
coedge $-1 $147 $345 $346 $360 reversed $232 $-1 #
vertex $-1 $241 $361 #
vertex $-1 $360 $362 #
straight-curve $-1 64.868923001800596 -28.466344542140263 0 0 0 -1 I I #
face $-1 $-1 $259 $33 $-1 $363 forward single #
loop $-1 $-1 $364 $149 #
plane-surface $-1 0 33.762248196579115 0 0 -1 0 0 0 -1 forward_v I I I I #
coedge $-1 $365 $366 $367 $368 reversed $150 $-1 #
coedge $-1 $369 $152 $154 $257 forward $93 $-1 #
coedge $-1 $152 $369 $365 $370 forward $93 $-1 #
coedge $-1 $367 $155 $152 $254 forward $259 $-1 #
edge $-1 $261 6.0582766054347346 $371 32.296487138147675 $253 $372 forward 7 unknown #
coedge $-1 $373 $374 $153 $256 forward $248 $-1 #
edge $-1 $375 -70.984115350579117 $260 -62.397310752915715 $255 $376 forward 7 unknown #
edge $-1 $261 52.553859625677603 $375 67.524496393158245 $154 $377 forward 7 unknown #
coedge $-1 $155 $367 $373 $378 forward $259 $-1 #
loop $-1 $-1 $367 $247 #
vertex $-1 $256 $379 #
vertex $-1 $156 $380 #
straight-curve $-1 25.23565847722594 26.431995807852363 11.624055507214194 0 -1 0 I I #
coedge $-1 $263 $263 $-1 $381 reversed $159 $-1 #
edge $-1 $382 0 $382 6.2831853071796004 $160 $383 forward 7 unknown #
vertex $-1 $163 $384 #
ellipse-curve $-1 32.73229005800107 27.630634379128814 7.3306532083824933 0 0.57357644374324357 0.81915203911291934 2.5 0 0 1 I I #
coedge $-1 $267 $267 $-1 $385 reversed $166 $-1 #
edge $-1 $386 0 $386 6.2831853071796004 $167 $387 forward 7 unknown #
vertex $-1 $170 $388 #
ellipse-curve $-1 43.977237429163765 27.630634379128814 7.3306532083824933 0 0.57357644374324357 0.81915203911291934 2.5 0 0 1 I I #
face $-1 $-1 $389 $36 $-1 $390 reversed single #
loop $-1 $-1 $177 $171 #
plane-surface $-1 0 0 11.624055507214196 0 0 1 1 0 0 forward_v I I I I #
coedge $-1 $391 $392 $393 $394 reversed $172 $-1 #
coedge $-1 $395 $174 $176 $281 forward $107 $-1 #
coedge $-1 $174 $395 $391 $396 forward $107 $-1 #
coedge $-1 $393 $177 $174 $278 forward $272 $-1 #
edge $-1 $284 -15.850408716769344 $397 -3.7855383053757876 $277 $398 forward 7 unknown #
coedge $-1 $399 $400 $175 $280 forward $389 $-1 #
edge $-1 $401 -35.537330922603743 $283 -29.096604653924537 $279 $402 forward 7 unknown #
edge $-1 $284 -7.9611754120232323 $401 1.2080531203272332e-014 $176 $403 forward 7 unknown #
coedge $-1 $177 $393 $399 $404 forward $272 $-1 #
vertex $-1 $178 $405 #
vertex $-1 $178 $406 #
straight-curve $-1 25.66838222784191 -69.361185744418535 11.624055507214194 0 1 0 I I #
coedge $-1 $286 $286 $-1 $407 reversed $181 $-1 #
edge $-1 $408 0 $408 6.2831853071796004 $182 $409 forward 7 unknown #
vertex $-1 $185 $410 #
ellipse-curve $-1 16.016485898727069 -31.422517492366069 8.4036923728745929 0 -0.80901700255871778 0.5877852410284794 1 0 0 1 I I #
coedge $-1 $290 $290 $-1 $411 reversed $188 $-1 #
edge $-1 $412 0 $412 6.2831853071796004 $189 $413 forward 7 unknown #
vertex $-1 $192 $414 #
ellipse-curve $-1 19.635947022145132 -31.422517492366069 8.4036923728745929 0 -0.80901700255871778 0.5877852410284794 1 0 0 1 I I #
coedge $-1 $294 $294 $-1 $415 reversed $195 $-1 #
edge $-1 $416 0 $416 6.2831853071796004 $196 $417 forward 7 unknown #
vertex $-1 $199 $418 #
ellipse-curve $-1 23.255408145563194 -31.422517492366069 8.4036923728745929 0 -0.80901700255871778 0.5877852410284794 1 0 0 1 I I #
face $-1 $-1 $311 $30 $-1 $419 reversed single #
loop $-1 $-1 $420 $200 #
plane-surface $-1 -64.868923001800596 0 0 1 0 0 0 0 -1 forward_v I I I I #
coedge $-1 $313 $305 $421 $422 forward $201 $-1 #
coedge $-1 $204 $203 $420 $423 forward $81 $-1 #
coedge $-1 $207 $424 $203 $304 reversed $311 $-1 #
edge $-1 $308 -64.868923001800596 $425 64.868923001800596 $303 $426 forward 7 unknown #
coedge $-1 $301 $209 $204 $306 reversed $201 $-1 #
edge $-1 $427 -64.868923001800596 $307 64.868923001800596 $305 $428 forward 7 unknown #
vertex $-1 $206 $429 #
vertex $-1 $206 $430 #
straight-curve $-1 64.868923001800596 0 11.624055507214196 0 1 0 I I #
coedge $-1 $424 $207 $212 $317 reversed $311 $-1 #
loop $-1 $-1 $207 $298 #
straight-curve $-1 64.868923001800596 33.762248196579115 0 0 0 -1 I I #
coedge $-1 $209 $301 $211 $316 reversed $201 $-1 #
straight-curve $-1 64.868923001800596 -33.762248196579115 0 0 0 -1 I I #
coedge $-1 $212 $211 $431 $432 forward $126 $-1 #
edge $-1 $214 -64.868923001800596 $433 64.868923001800596 $313 $434 forward 7 unknown #
edge $-1 $435 -64.868923001800596 $213 64.868923001800596 $310 $436 forward 7 unknown #
point $-1 64.868923001800596 33.762248196579115 -11.624055507214196 #
point $-1 64.868923001800596 -33.762248196579115 -11.624055507214196 #
face $-1 $-1 $437 $31 $-1 $438 reversed single #
loop $-1 $-1 $224 $216 #
plane-surface $-1 0 0 -11.624055507214196 0 0 1 1 0 0 forward_v I I I I #
coedge $-1 $439 $219 $440 $441 reversed $134 $-1 #
coedge $-1 $219 $439 $327 $442 reversed $134 $-1 #
coedge $-1 $227 $226 $219 $326 reversed $217 $-1 #
edge $-1 $443 -11.624055507214196 $444 11.624055507214196 $325 $445 forward 7 unknown #
coedge $-1 $221 $220 $324 $442 forward $85 $-1 #
edge $-1 $229 -6.6975269959308577 $443 6.6975269959308577 $227 $446 forward 7 unknown #
coedge $-1 $447 $333 $221 $330 reversed $437 $-1 #
edge $-1 $448 -78.263976993662311 $331 -64.868923001800596 $329 $449 forward 7 unknown #
vertex $-1 $334 $450 #
straight-curve $-1 -64.868923001800596 0 11.624055507214196 0 1 0 I I #
coedge $-1 $329 $451 $223 $334 forward $437 $-1 #
edge $-1 $337 -11.624055507214196 $331 11.624055507214196 $333 $452 forward 7 unknown #
coedge $-1 $440 $224 $451 $453 forward $321 $-1 #
coedge $-1 $224 $440 $226 $339 forward $321 $-1 #
vertex $-1 $453 $454 #
straight-curve $-1 -64.868923001800596 0 -11.624055507214196 0 -1 0 I I #
edge $-1 $444 -6.6975269959308577 $228 6.6975269959308577 $226 $455 forward 7 unknown #
point $-1 -64.868923001800596 -28.466344542140263 -11.624055507214196 #
point $-1 -64.868923001800596 -28.466344542140263 11.624055507214196 #
face $-1 $-1 $357 $32 $-1 $456 forward single #
loop $-1 $-1 $457 $231 #
plane-surface $-1 78.263976993662297 -31.114296369359689 0 -1 0 0 0 0 1 forward_v I I I I #
coedge $-1 $243 $242 $458 $459 forward $232 $-1 #
coedge $-1 $460 $234 $243 $360 forward $142 $-1 #
coedge $-1 $234 $460 $235 $349 forward $142 $-1 #
coedge $-1 $236 $235 $457 $461 reversed $89 $-1 #
edge $-1 $462 -6.6975269959308577 $353 6.6975269959308434 $235 $463 forward 7 unknown #
coedge $-1 $464 $240 $236 $351 forward $357 $-1 #
edge $-1 $352 -6.6975269959308434 $465 6.6975269959308577 $236 $466 forward 7 unknown #
vertex $-1 $351 $467 #
vertex $-1 $239 $468 #
straight-curve $-1 64.868923001800596 -33.762248196579115 0 0 0 -1 I I #
straight-curve $-1 64.868923001800596 0 -11.624055507214196 0 1 0 I I #
coedge $-1 $240 $464 $242 $359 forward $357 $-1 #
loop $-1 $-1 $240 $342 #
straight-curve $-1 64.868923001800596 0 11.624055507214196 0 -1 0 I I #
edge $-1 $469 -6.6975269959308577 $244 6.6975269959308577 $242 $470 forward 7 unknown #
edge $-1 $245 -6.6975269959308577 $471 6.6975269959308577 $243 $472 forward 7 unknown #
point $-1 64.868923001800582 -28.466344542140263 11.624055507214196 #
point $-1 64.868923001800582 -28.466344542140263 -11.624055507214196 #
plane-surface $-1 0 0 11.624055507214196 0 0 1 1 0 0 forward_v I I I I #
coedge $-1 $374 $373 $366 $473 forward $248 $-1 #
coedge $-1 $366 $250 $252 $370 reversed $150 $-1 #
coedge $-1 $250 $365 $364 $473 reversed $150 $-1 #
coedge $-1 $258 $253 $250 $368 forward $259 $-1 #
edge $-1 $371 -4.9329752461738643 $474 7.3302523887267519 $367 $475 forward 7 unknown #
coedge $-1 $252 $251 $374 $476 reversed $93 $-1 #
edge $-1 $477 -67.524496393158245 $371 -52.553859625677603 $365 $478 forward 7 unknown #
vertex $-1 $254 $479 #
straight-curve $-1 19.177381871791205 21.499020561678485 11.624055507214202 1 0 0 I I #
coedge $-1 $364 $255 $258 $378 reversed $248 $-1 #
coedge $-1 $255 $364 $369 $476 forward $248 $-1 #
vertex $-1 $256 $480 #
straight-curve $-1 25.23565847722594 33.762248196579115 74.021366260129909 0 0 1 I I #
straight-curve $-1 25.23565847722594 -21.550580713949437 41.767711416291988 0 0.81915203911291934 -0.57357644374324357 I I #
edge $-1 $474 -51.47386900993888 $260 -25.23565847722594 $373 $481 forward 7 unknown #
point $-1 25.23565847722594 33.762248196579115 11.624055507214196 #
point $-1 25.23565847722594 21.499020561678499 11.624055507214194 #
edge $-1 $482 1 $482 0 $263 $-1 forward 7 unknown #
vertex $-1 $264 $483 #
ellipse-curve $-1 32.73229005800107 22.82463198306186 0.46697059787048079 0 0.57357644374324357 0.81915203911291934 2.5 0 0 1 I I #
point $-1 35.23229005800107 27.630634379128825 7.3306532083825067 #
edge $-1 $484 1 $484 0 $267 $-1 forward 7 unknown #
vertex $-1 $268 $485 #
ellipse-curve $-1 43.977237429163765 22.82463198306186 0.46697059787048079 0 0.57357644374324357 0.81915203911291934 2.5 0 0 1 I I #
point $-1 46.477237429163765 27.630634379128825 7.3306532083825067 #
loop $-1 $-1 $279 $271 #
plane-surface $-1 0 -33.762248196579115 0 0 1 0 0 0 1 forward_v I I I I #
coedge $-1 $392 $274 $276 $396 reversed $172 $-1 #
coedge $-1 $274 $391 $486 $487 reversed $172 $-1 #
coedge $-1 $282 $277 $274 $394 forward $272 $-1 #
edge $-1 $397 -40.278398956265505 $488 -35.598937547839419 $393 $489 forward 7 unknown #
coedge $-1 $276 $275 $400 $490 reversed $107 $-1 #
edge $-1 $491 -1.2080531203272332e-014 $397 7.9611754120232323 $391 $492 forward 7 unknown #
vertex $-1 $278 $493 #
straight-curve $-1 9.8179735110725659 -29.082786788153033 11.624055507214196 -1 0 0 I I #
coedge $-1 $486 $279 $282 $404 reversed $389 $-1 #
coedge $-1 $279 $486 $395 $490 forward $389 $-1 #
vertex $-1 $280 $494 #
straight-curve $-1 25.66838222784191 -33.762248196579115 40.720660161138731 0 0 1 I I #
straight-curve $-1 25.66838222784191 -33.762248196579108 5.1833292385349949 0 -0.5877852410284794 -0.80901700255871778 I I #
edge $-1 $488 -57.962938181283086 $283 -45.898067769889529 $399 $495 forward 7 unknown #
point $-1 25.66838222784191 -33.762248196579115 11.624055507214196 #
point $-1 25.66838222784191 -29.08278678815303 11.624055507214196 #
edge $-1 $496 1 $496 0 $286 $-1 forward 7 unknown #
vertex $-1 $287 $497 #
ellipse-curve $-1 16.016485898727069 -29.88924423341961 7.2897041758132373 0 -0.80901700255871778 0.5877852410284794 1 0 0 1 I I #
point $-1 17.016485898727069 -31.422517492366079 8.4036923728745982 #
edge $-1 $498 1 $498 0 $290 $-1 forward 7 unknown #
vertex $-1 $291 $499 #
ellipse-curve $-1 19.635947022145132 -29.88924423341961 7.2897041758132373 0 -0.80901700255871778 0.5877852410284794 1 0 0 1 I I #
point $-1 20.635947022145132 -31.422517492366079 8.4036923728745982 #
edge $-1 $500 1 $500 0 $294 $-1 forward 7 unknown #
vertex $-1 $295 $501 #
ellipse-curve $-1 23.255408145563194 -29.88924423341961 7.2897041758132373 0 -0.80901700255871778 0.5877852410284794 1 0 0 1 I I #
point $-1 24.255408145563194 -31.422517492366079 8.4036923728745982 #
plane-surface $-1 0 33.762248196579115 0 0 -1 0 0 0 -1 forward_v I I I I #
coedge $-1 $502 $421 $302 $423 reversed $299 $-1 #
coedge $-1 $420 $431 $301 $422 reversed $299 $-1 #
edge $-1 $427 -11.624055507214196 $433 11.624055507214196 $421 $503 forward 7 unknown #
edge $-1 $425 -33.762248196579115 $427 33.762248196579115 $420 $504 forward 7 unknown #
coedge $-1 $303 $310 $502 $505 reversed $311 $-1 #
vertex $-1 $304 $506 #
straight-curve $-1 0 33.762248196579115 11.624055507214196 -1 0 0 I I #
vertex $-1 $423 $507 #
straight-curve $-1 0 -33.762248196579115 11.624055507214196 1 0 0 I I #
point $-1 64.868923001800596 -33.762248196579115 11.624055507214196 #
point $-1 64.868923001800596 33.762248196579115 11.624055507214196 #
coedge $-1 $421 $502 $315 $432 reversed $299 $-1 #
edge $-1 $433 -33.762248196579115 $435 33.762248196579115 $431 $508 forward 7 unknown #
vertex $-1 $432 $509 #
straight-curve $-1 0 -33.762248196579115 -11.624055507214196 -1 0 0 I I #
vertex $-1 $317 $510 #
straight-curve $-1 0 33.762248196579115 -11.624055507214196 1 0 0 I I #
loop $-1 $-1 $333 $320 #
plane-surface $-1 0 -33.762248196579115 0 0 1 0 0 0 1 forward_v I I I I #
coedge $-1 $324 $323 $447 $511 reversed $134 $-1 #
coedge $-1 $336 $335 $323 $441 forward $321 $-1 #
edge $-1 $512 -2.6479518272194262 $444 2.6479518272194262 $323 $513 forward 7 unknown #
edge $-1 $443 -2.6479518272194262 $448 2.6479518272194262 $324 $514 forward 7 unknown #
vertex $-1 $328 $515 #
vertex $-1 $339 $516 #
straight-curve $-1 -78.263976993662311 -28.466344542140263 0 0 0 -1 I I #
straight-curve $-1 -71.566449997731453 -28.466344542140263 11.624055507214196 -1 0 0 I I #
coedge $-1 $451 $329 $439 $511 forward $437 $-1 #
vertex $-1 $442 $517 #
straight-curve $-1 0 -33.762248196579115 11.624055507214196 1 0 0 I I #
point $-1 -64.868923001800596 -33.762248196579115 11.624055507214196 #
coedge $-1 $333 $447 $335 $453 reversed $437 $-1 #
straight-curve $-1 -64.868923001800596 -33.762248196579115 0 0 0 1 I I #
edge $-1 $337 -6.6975269959308577 $512 6.6975269959308577 $451 $518 forward 7 unknown #
point $-1 -64.868923001800596 -33.762248196579115 -11.624055507214196 #
straight-curve $-1 -71.566449997731453 -28.466344542140263 -11.624055507214196 1 0 0 I I #
plane-surface $-1 0 0 11.624055507214196 0 0 1 1 0 0 forward_v I I I I #
coedge $-1 $519 $520 $348 $461 forward $343 $-1 #
coedge $-1 $520 $519 $345 $459 reversed $343 $-1 #
edge $-1 $469 -11.624055507214196 $471 11.624055507214196 $458 $521 forward 7 unknown #
coedge $-1 $347 $346 $519 $522 forward $142 $-1 #
edge $-1 $465 -11.624055507214196 $462 11.624055507214196 $457 $523 forward 7 unknown #
vertex $-1 $461 $524 #
straight-curve $-1 71.566449997731439 -33.762248196579115 -11.624055507214196 -1 0 0 I I #
coedge $-1 $356 $350 $520 $525 forward $357 $-1 #
vertex $-1 $525 $526 #
straight-curve $-1 71.566449997731439 -33.762248196579115 11.624055507214196 1 0 0 I I #
point $-1 64.868923001800596 -33.762248196579115 11.624055507214196 #
point $-1 64.868923001800596 -33.762248196579115 -11.624055507214196 #
vertex $-1 $525 $527 #
straight-curve $-1 71.566449997731439 -28.466344542140263 11.624055507214196 -1 0 0 I I #
vertex $-1 $522 $528 #
straight-curve $-1 71.566449997731439 -28.466344542140263 -11.624055507214196 1 0 0 I I #
edge $-1 $474 62.397310752915715 $477 70.984115350579117 $364 $529 forward 7 unknown #
vertex $-1 $378 $530 #
straight-curve $-1 51.47386900993888 26.431995807852363 11.624055507214194 0 1 0 I I #
edge $-1 $477 -32.296487138147675 $375 -6.0582766054347346 $374 $531 forward 7 unknown #
vertex $-1 $476 $532 #
straight-curve $-1 51.47386900993888 -21.550580713949437 41.767711416291988 0 -0.81915203911291934 0.57357644374324357 I I #
point $-1 51.47386900993888 21.499020561678499 11.624055507214194 #
point $-1 25.23565847722594 33.762248196579115 3.0372509095507993 #
straight-curve $-1 0 33.762248196579115 11.624055507214196 -1 0 0 I I #
vertex $-1 $381 $533 #
point $-1 35.23229005800107 22.82463198306186 0.46697059787048079 #
vertex $-1 $385 $534 #
point $-1 46.477237429163765 22.82463198306186 0.46697059787048079 #
coedge $-1 $400 $399 $392 $487 forward $389 $-1 #
edge $-1 $488 29.096604653924537 $491 35.537330922603743 $486 $535 forward 7 unknown #
vertex $-1 $404 $536 #
straight-curve $-1 13.603511816448353 -69.361185744418535 11.624055507214194 0 -1 0 I I #
edge $-1 $491 3.7855383053757876 $401 15.850408716769344 $400 $537 forward 7 unknown #
vertex $-1 $490 $538 #
straight-curve $-1 13.603511816448353 -33.762248196579108 5.1833292385349949 0 0.5877852410284794 0.80901700255871778 I I #
point $-1 13.603511816448353 -29.08278678815303 11.624055507214196 #
point $-1 25.66838222784191 -33.762248196579115 5.1833292385349852 #
straight-curve $-1 71.566449997731439 -33.762248196579115 11.624055507214196 1 0 0 I I #
vertex $-1 $407 $539 #
point $-1 17.016485898727069 -29.88924423341961 7.2897041758132373 #
vertex $-1 $411 $540 #
point $-1 20.635947022145132 -29.88924423341961 7.2897041758132373 #
vertex $-1 $415 $541 #
point $-1 24.255408145563194 -29.88924423341961 7.2897041758132373 #
coedge $-1 $431 $420 $424 $505 forward $299 $-1 #
straight-curve $-1 -64.868923001800596 -33.762248196579115 0 0 0 -1 I I #
straight-curve $-1 -64.868923001800596 0 11.624055507214196 0 -1 0 I I #
edge $-1 $425 -11.624055507214196 $435 11.624055507214196 $424 $542 forward 7 unknown #
point $-1 -64.868923001800596 33.762248196579115 11.624055507214196 #
point $-1 -64.868923001800596 -33.762248196579115 11.624055507214196 #
straight-curve $-1 -64.868923001800596 0 -11.624055507214196 0 1 0 I I #
point $-1 -64.868923001800596 -33.762248196579115 -11.624055507214196 #
point $-1 -64.868923001800596 33.762248196579115 -11.624055507214196 #
edge $-1 $448 -11.624055507214196 $512 11.624055507214196 $439 $543 forward 7 unknown #
vertex $-1 $441 $544 #
straight-curve $-1 -78.263976993662311 -31.114296369359689 -11.624055507214196 0 1 0 I I #
straight-curve $-1 -78.263976993662311 -31.114296369359689 11.624055507214196 0 -1 0 I I #
point $-1 -78.263976993662311 -28.466344542140263 11.624055507214196 #
point $-1 -78.263976993662311 -28.466344542140263 -11.624055507214196 #
point $-1 -78.263976993662311 -33.762248196579115 11.624055507214196 #
straight-curve $-1 -71.566449997731453 -33.762248196579115 -11.624055507214196 -1 0 0 I I #
coedge $-1 $458 $457 $460 $522 reversed $343 $-1 #
coedge $-1 $457 $458 $464 $525 reversed $343 $-1 #
straight-curve $-1 78.263976993662297 -28.466344542140263 0 0 0 -1 I I #
edge $-1 $471 -2.6479518272194262 $462 2.6479518272194262 $519 $545 forward 7 unknown #
straight-curve $-1 78.263976993662297 -33.762248196579115 0 0 0 -1 I I #
point $-1 78.263976993662297 -33.762248196579115 -11.624055507214196 #
edge $-1 $465 -2.6479518272194262 $469 2.6479518272194262 $520 $546 forward 7 unknown #
point $-1 78.263976993662297 -33.762248196579115 11.624055507214196 #
point $-1 78.263976993662297 -28.466344542140263 11.624055507214196 #
point $-1 78.263976993662297 -28.466344542140263 -11.624055507214196 #
straight-curve $-1 51.47386900993888 33.762248196579115 74.021366260129909 0 0 -1 I I #
point $-1 51.47386900993888 33.762248196579115 11.624055507214196 #
straight-curve $-1 19.177381871791205 33.762248196579122 3.0372509095507958 -1 0 0 I I #
point $-1 51.47386900993888 33.762248196579115 3.0372509095507993 #
point $-1 32.73229005800107 21.39069087370375 -1.5809094999118176 #
point $-1 43.977237429163765 21.39069087370375 -1.5809094999118176 #
straight-curve $-1 13.603511816448353 -33.762248196579115 40.720660161138731 0 0 -1 I I #
point $-1 13.603511816448353 -33.762248196579115 11.624055507214196 #
straight-curve $-1 9.8179735110725659 -33.762248196579115 5.1833292385349843 1 0 0 I I #
point $-1 13.603511816448353 -33.762248196579115 5.1833292385349852 #
point $-1 16.016485898727069 -29.080227230860892 6.7019189347847581 #
point $-1 19.635947022145132 -29.080227230860892 6.7019189347847581 #
point $-1 23.255408145563194 -29.080227230860892 6.7019189347847581 #
straight-curve $-1 -64.868923001800596 33.762248196579115 0 0 0 -1 I I #
straight-curve $-1 -78.263976993662311 -33.762248196579115 0 0 0 -1 I I #
point $-1 -78.263976993662311 -33.762248196579115 -11.624055507214196 #
straight-curve $-1 78.263976993662297 -31.114296369359689 -11.624055507214196 0 -1 0 I I #
straight-curve $-1 78.263976993662297 -31.114296369359689 11.624055507214196 0 1 0 I I #
End-of-ACIS-data 