500 0 21 0           
7 Unknown 11 ACIS 5.0 NT 24 Fri Mar 26 18:29:33 1999 
-1 9.9999999999999995e-007 1e-010 
body $-1 $21 $-1 $22 #
body $-1 $23 $-1 $24 #
body $-1 $25 $-1 $26 #
body $-1 $27 $-1 $28 #
body $-1 $29 $-1 $30 #
body $-1 $31 $-1 $32 #
body $-1 $33 $-1 $34 #
body $-1 $35 $-1 $36 #
body $-1 $37 $-1 $38 #
body $-1 $39 $-1 $40 #
body $-1 $41 $-1 $42 #
body $-1 $43 $-1 $44 #
body $-1 $45 $-1 $46 #
body $-1 $47 $-1 $48 #
body $-1 $49 $-1 $50 #
body $-1 $51 $-1 $52 #
body $-1 $53 $-1 $54 #
body $-1 $55 $-1 $56 #
body $-1 $57 $-1 $58 #
body $-1 $59 $-1 $60 #
body $-1 $61 $-1 $62 #
lump $-1 $-1 $63 $0 #
transform $-1 1 0 0 0 1 0 0 0 1 51.076998199407939 21.457732670484631 9.0526917527851953 1 rotate no_reflect no_shear #
lump $-1 $-1 $64 $1 #
transform $-1 1 0 0 0 1 0 0 0 1 51.076998199407939 21.457732670484631 9.0526917527851953 1 rotate no_reflect no_shear #
lump $-1 $-1 $65 $2 #
transform $-1 1 0 0 0 1 0 0 0 1 51.076998199407939 21.457732670484631 9.0526917527851953 1 rotate no_reflect no_shear #
lump $-1 $-1 $66 $3 #
transform $-1 1 0 0 0 1 0 0 0 1 51.076998199407939 21.457732670484631 9.0526917527851953 1 rotate no_reflect no_shear #
lump $-1 $-1 $67 $4 #
transform $-1 1 0 0 0 1 0 0 0 1 51.076998199407939 21.457732670484631 9.0526917527851953 1 rotate no_reflect no_shear #
lump $-1 $-1 $68 $5 #
transform $-1 1 0 0 0 1 0 0 0 1 51.076998199407939 21.457732670484631 9.0526917527851953 1 rotate no_reflect no_shear #
lump $-1 $-1 $69 $6 #
transform $-1 1 0 0 0 1 0 0 0 1 51.076998199407939 21.457732670484631 9.0526917527851953 1 rotate no_reflect no_shear #
lump $-1 $-1 $70 $7 #
transform $-1 1 0 0 0 1 0 0 0 1 51.076998199407939 21.457732670484631 9.0526917527851953 1 rotate no_reflect no_shear #
lump $-1 $-1 $71 $8 #
transform $-1 1 0 0 0 1 0 0 0 1 51.076998199407939 21.457732670484631 9.0526917527851953 1 rotate no_reflect no_shear #
lump $-1 $-1 $72 $9 #
transform $-1 1 0 0 0 1 0 0 0 1 51.076998199407939 21.457732670484631 9.0526917527851953 1 rotate no_reflect no_shear #
lump $-1 $-1 $73 $10 #
transform $-1 1 0 0 0 1 0 0 0 1 51.076998199407939 21.457732670484631 9.0526917527851953 1 rotate no_reflect no_shear #
lump $-1 $-1 $74 $11 #
transform $-1 1 0 0 0 1 0 0 0 1 51.076998199407939 21.457732670484631 9.0526917527851953 1 rotate no_reflect no_shear #
lump $-1 $-1 $75 $12 #
transform $-1 1 0 0 0 1 0 0 0 1 51.076998199407939 21.457732670484631 9.0526917527851953 1 rotate no_reflect no_shear #
lump $-1 $-1 $76 $13 #
transform $-1 1 0 0 0 1 0 0 0 1 51.076998199407939 21.457732670484631 9.0526917527851953 1 rotate no_reflect no_shear #
lump $-1 $-1 $77 $14 #
transform $-1 1 0 0 0 1 0 0 0 1 51.076998199407939 21.457732670484631 9.0526917527851953 1 rotate no_reflect no_shear #
lump $-1 $-1 $78 $15 #
transform $-1 1 0 0 0 1 0 0 0 1 51.076998199407939 21.457732670484631 9.0526917527851953 1 rotate no_reflect no_shear #
lump $-1 $-1 $79 $16 #
transform $-1 1 0 0 0 1 0 0 0 1 51.076998199407939 21.457732670484631 9.0526917527851953 1 rotate no_reflect no_shear #
lump $-1 $-1 $80 $17 #
transform $-1 1 0 0 0 1 0 0 0 1 51.076998199407939 21.457732670484631 9.0526917527851953 1 rotate no_reflect no_shear #
lump $-1 $-1 $81 $18 #
transform $-1 1 0 0 0 1 0 0 0 1 51.076998199407939 21.457732670484631 9.0526917527851953 1 rotate no_reflect no_shear #
lump $-1 $-1 $82 $19 #
transform $-1 1 0 0 0 1 0 0 0 1 51.076998199407939 21.457732670484631 9.0526917527851953 1 rotate no_reflect no_shear #
lump $-1 $-1 $83 $20 #
transform $-1 1 0 0 0 1 0 0 0 1 51.076998199407939 21.457732670484631 9.0526917527851953 1 rotate no_reflect no_shear #
shell $-1 $-1 $-1 $84 $-1 $21 #
shell $-1 $-1 $-1 $85 $-1 $23 #
shell $-1 $-1 $-1 $86 $-1 $25 #
shell $-1 $-1 $-1 $87 $-1 $27 #
shell $-1 $-1 $-1 $88 $-1 $29 #
shell $-1 $-1 $-1 $89 $-1 $31 #
shell $-1 $-1 $-1 $90 $-1 $33 #
shell $-1 $-1 $-1 $91 $-1 $35 #
shell $-1 $-1 $-1 $92 $-1 $37 #
shell $-1 $-1 $-1 $93 $-1 $39 #
shell $-1 $-1 $-1 $94 $-1 $41 #
shell $-1 $-1 $-1 $95 $-1 $43 #
shell $-1 $-1 $-1 $96 $-1 $45 #
shell $-1 $-1 $-1 $97 $-1 $47 #
shell $-1 $-1 $-1 $98 $-1 $49 #
shell $-1 $-1 $-1 $99 $-1 $51 #
shell $-1 $-1 $-1 $100 $-1 $53 #
shell $-1 $-1 $-1 $101 $-1 $55 #
shell $-1 $-1 $-1 $102 $-1 $57 #
shell $-1 $-1 $-1 $103 $-1 $59 #
shell $-1 $-1 $-1 $104 $-1 $61 #
face $-1 $105 $106 $63 $-1 $107 forward single #
face $-1 $108 $109 $64 $-1 $110 reversed single #
face $-1 $111 $112 $65 $-1 $113 reversed single #
face $-1 $114 $115 $66 $-1 $116 forward single #
face $-1 $117 $118 $67 $-1 $119 forward single #
face $-1 $120 $121 $68 $-1 $122 forward single #
face $-1 $123 $124 $69 $-1 $125 reversed single #
face $-1 $126 $127 $70 $-1 $128 forward single #
face $-1 $129 $130 $71 $-1 $131 forward single #
face $-1 $132 $133 $72 $-1 $134 forward single #
face $-1 $135 $136 $73 $-1 $137 reversed single #
face $-1 $138 $139 $74 $-1 $140 forward single #
face $-1 $141 $142 $75 $-1 $143 forward single #
face $-1 $144 $145 $76 $-1 $146 forward single #
face $-1 $147 $148 $77 $-1 $149 reversed single #
face $-1 $150 $151 $78 $-1 $152 forward single #
face $-1 $153 $154 $79 $-1 $155 forward single #
face $-1 $156 $157 $80 $-1 $158 forward single #
face $-1 $159 $160 $81 $-1 $161 reversed single #
face $-1 $162 $163 $82 $-1 $164 forward single #
face $-1 $165 $166 $83 $-1 $167 forward single #
face $-1 $168 $169 $63 $-1 $170 reversed single #
loop $-1 $-1 $171 $84 #
plane-surface $-1 0 0 9.0526917527851953 0 0 1 1 0 0 forward_v I I I I #
face $-1 $172 $173 $64 $-1 $174 reversed single #
loop $-1 $-1 $175 $85 #
plane-surface $-1 -45.24900636891801 -18.457732670484631 0 0 -1 0 0 0 -1 forward_v I I I I #
face $-1 $176 $177 $65 $-1 $178 reversed single #
loop $-1 $-1 $179 $86 #
plane-surface $-1 -27.125953478357189 -107.13128366584792 61.380339971481675 -1 0 0 0 -0.83867057594974714 0.54463902268945019 forward_v I I I I #
face $-1 $180 $181 $66 $-1 $182 forward single #
loop $-1 $183 $184 $87 #
cone-surface $-1 -36.962002326413902 -19.963821197238712 7.1256699695523631 0 0.83867057594974714 -0.54463902268945019 0.25 0 0 1 I I 0 1 0.25 forward I I I I #
face $-1 $185 $186 $67 $-1 $187 forward single #
loop $-1 $188 $189 $88 #
cone-surface $-1 -33.273484008392629 -19.963821197238712 7.1256699695523631 0 0.83867057594974714 -0.54463902268945019 0.25 0 0 1 I I 0 1 0.25 forward I I I I #
face $-1 $190 $191 $68 $-1 $192 forward single #
loop $-1 $193 $194 $89 #
cone-surface $-1 -29.584965690371362 -19.963821197238712 7.1256699695523631 0 0.83867057594974714 -0.54463902268945019 0.25 0 0 1 I I 0 1 0.25 forward I I I I #
face $-1 $195 $196 $69 $-1 $197 reversed single #
loop $-1 $-1 $198 $90 #
plane-surface $-1 -16.79651135396908 -107.13128366584792 61.380339971481675 1 0 0 0 0.83867057594974714 -0.54463902268945019 forward_v I I I I #
face $-1 $199 $200 $70 $-1 $201 forward single #
loop $-1 $202 $203 $91 #
cone-surface $-1 -14.3374991419549 -19.963821197238712 7.1256699695523631 0 0.83867057594974714 -0.54463902268945019 0.25 0 0 1 I I 0 1 0.25 forward I I I I #
face $-1 $204 $205 $71 $-1 $206 forward single #
loop $-1 $207 $208 $92 #
cone-surface $-1 -10.648980823933627 -19.963821197238712 7.1256699695523631 0 0.83867057594974714 -0.54463902268945019 0.25 0 0 1 I I 0 1 0.25 forward I I I I #
face $-1 $209 $210 $72 $-1 $211 forward single #
loop $-1 $212 $213 $93 #
cone-surface $-1 -6.9604625059123606 -19.963821197238712 7.1256699695523631 0 0.83867057594974714 -0.54463902268945019 0.25 0 0 1 I I 0 1 0.25 forward I I I I #
face $-1 $214 $215 $73 $-1 $216 reversed single #
loop $-1 $-1 $217 $94 #
plane-surface $-1 5.8279918304899194 -107.13128366584792 61.380339971481675 1 0 0 0 0.83867057594974714 -0.54463902268945019 forward_v I I I I #
face $-1 $218 $219 $74 $-1 $220 forward single #
loop $-1 $221 $222 $95 #
cone-surface $-1 8.2870040425041012 -19.963821197238712 7.1256699695523631 0 0.83867057594974714 -0.54463902268945019 0.25 0 0 1 I I 0 1 0.25 forward I I I I #
face $-1 $223 $224 $75 $-1 $225 forward single #
loop $-1 $226 $227 $96 #
cone-surface $-1 11.975522360525375 -19.963821197238712 7.1256699695523631 0 0.83867057594974714 -0.54463902268945019 0.25 0 0 1 I I 0 1 0.25 forward I I I I #
face $-1 $228 $229 $76 $-1 $230 forward single #
loop $-1 $231 $232 $97 #
cone-surface $-1 15.664040678546641 -19.963821197238712 7.1256699695523631 0 0.83867057594974714 -0.54463902268945019 0.25 0 0 1 I I 0 1 0.25 forward I I I I #
face $-1 $233 $234 $77 $-1 $235 reversed single #
loop $-1 $-1 $236 $98 #
plane-surface $-1 28.452495014948916 -107.13128366584792 61.380339971481675 1 0 0 0 0.83867057594974714 -0.54463902268945019 forward_v I I I I #
face $-1 $237 $238 $78 $-1 $239 forward single #
loop $-1 $240 $241 $99 #
cone-surface $-1 30.911507226963096 -19.963821197238712 7.1256699695523631 0 0.83867057594974714 -0.54463902268945019 0.25 0 0 1 I I 0 1 0.25 forward I I I I #
face $-1 $242 $243 $79 $-1 $244 forward single #
loop $-1 $245 $246 $100 #
cone-surface $-1 34.600025544984376 -19.963821197238712 7.1256699695523631 0 0.83867057594974714 -0.54463902268945019 0.25 0 0 1 I I 0 1 0.25 forward I I I I #
face $-1 $247 $248 $80 $-1 $249 forward single #
loop $-1 $250 $251 $101 #
cone-surface $-1 38.288543863005643 -19.963821197238712 7.1256699695523631 0 0.83867057594974714 -0.54463902268945019 0.25 0 0 1 I I 0 1 0.25 forward I I I I #
face $-1 $252 $253 $81 $-1 $254 reversed single #
loop $-1 $-1 $255 $102 #
plane-surface $-1 36.070960032701045 43.002990259326822 111.21281991481759 1 0 0 0 -0.55919291073839883 -0.82903756765294845 forward_v I I I I #
face $-1 $256 $257 $82 $-1 $258 forward single #
loop $-1 $259 $260 $103 #
cone-surface $-1 40.35839950890302 15.135201394651762 3.5890217360564036 0 -0.55919291073839883 -0.82903756765294845 1.5 0 0 1 I I 0 1 1.5 forward I I I I #
face $-1 $261 $262 $83 $-1 $263 forward single #
loop $-1 $264 $265 $104 #
cone-surface $-1 46.789558723205971 15.135201394651762 3.5890217360564036 0 -0.55919291073839883 -0.82903756765294845 1.5 0 0 1 I I 0 1 1.5 forward I I I I #
face $-1 $266 $267 $63 $-1 $268 reversed single #
loop $-1 $-1 $269 $105 #
plane-surface $-1 0 0 -9.0526917527851953 0 0 1 1 0 0 forward_v I I I I #
coedge $-1 $270 $271 $272 $273 forward $106 $-1 #
face $-1 $274 $275 $64 $-1 $276 forward single #
loop $-1 $-1 $277 $108 #
plane-surface $-1 -39.421014538428082 -19.957732670484631 0 -1 0 0 0 0 1 forward_v I I I I #
coedge $-1 $278 $279 $280 $281 forward $109 $-1 #
face $-1 $282 $283 $65 $-1 $284 forward single #
loop $-1 $-1 $285 $111 #
plane-surface $-1 -33.273484008392636 -21.457732670484603 5.743287209008983 0 -0.83867057594974714 0.54463902268945019 1 0 0 forward_v I I I I #
coedge $-1 $286 $287 $288 $289 reversed $112 $-1 #
face $-1 $-1 $290 $66 $-1 $291 forward single #
loop $-1 $292 $293 $114 #
cone-surface $-1 -36.962002326413902 -19.439652087270119 6.7852705803714564 0 0.83867057594974714 -0.54463902268945019 0.125 0 0 1 I I -0.70710678118654746 0.70710678118654746 0.125 forward I I I I #
loop $-1 $-1 $294 $87 #
coedge $-1 $184 $184 $295 $296 reversed $115 $-1 #
face $-1 $-1 $297 $67 $-1 $298 forward single #
loop $-1 $299 $300 $117 #
cone-surface $-1 -33.273484008392629 -19.439652087270119 6.7852705803714564 0 0.83867057594974714 -0.54463902268945019 0.125 0 0 1 I I -0.70710678118654746 0.70710678118654746 0.125 forward I I I I #
loop $-1 $-1 $301 $88 #
coedge $-1 $189 $189 $302 $303 reversed $118 $-1 #
face $-1 $-1 $304 $68 $-1 $305 forward single #
loop $-1 $306 $307 $120 #
cone-surface $-1 -29.584965690371362 -19.439652087270119 6.7852705803714564 0 0.83867057594974714 -0.54463902268945019 0.125 0 0 1 I I -0.70710678118654746 0.70710678118654746 0.125 forward I I I I #
loop $-1 $-1 $308 $89 #
coedge $-1 $194 $194 $309 $310 reversed $121 $-1 #
face $-1 $311 $312 $69 $-1 $313 reversed single #
loop $-1 $-1 $314 $123 #
plane-surface $-1 -10.648980823933634 -21.457732670484603 5.743287209008983 0 -0.83867057594974714 0.54463902268945019 1 0 0 forward_v I I I I #
coedge $-1 $315 $316 $317 $318 reversed $124 $-1 #
face $-1 $-1 $319 $70 $-1 $320 forward single #
loop $-1 $321 $322 $126 #
cone-surface $-1 -14.3374991419549 -19.439652087270119 6.7852705803714564 0 0.83867057594974714 -0.54463902268945019 0.125 0 0 1 I I -0.70710678118654746 0.70710678118654746 0.125 forward I I I I #
loop $-1 $-1 $323 $91 #
coedge $-1 $203 $203 $324 $325 reversed $127 $-1 #
face $-1 $-1 $326 $71 $-1 $327 forward single #
loop $-1 $328 $329 $129 #
cone-surface $-1 -10.648980823933627 -19.439652087270119 6.7852705803714564 0 0.83867057594974714 -0.54463902268945019 0.125 0 0 1 I I -0.70710678118654746 0.70710678118654746 0.125 forward I I I I #
loop $-1 $-1 $330 $92 #
coedge $-1 $208 $208 $331 $332 reversed $130 $-1 #
face $-1 $-1 $333 $72 $-1 $334 forward single #
loop $-1 $335 $336 $132 #
cone-surface $-1 -6.9604625059123606 -19.439652087270119 6.7852705803714564 0 0.83867057594974714 -0.54463902268945019 0.125 0 0 1 I I -0.70710678118654746 0.70710678118654746 0.125 forward I I I I #
loop $-1 $-1 $337 $93 #
coedge $-1 $213 $213 $338 $339 reversed $133 $-1 #
face $-1 $340 $341 $73 $-1 $342 reversed single #
loop $-1 $-1 $343 $135 #
plane-surface $-1 11.975522360525368 -21.457732670484603 5.743287209008983 0 -0.83867057594974714 0.54463902268945019 1 0 0 forward_v I I I I #
coedge $-1 $344 $345 $346 $347 reversed $136 $-1 #
face $-1 $-1 $348 $74 $-1 $349 forward single #
loop $-1 $350 $351 $138 #
cone-surface $-1 8.2870040425041012 -19.439652087270119 6.7852705803714564 0 0.83867057594974714 -0.54463902268945019 0.125 0 0 1 I I -0.70710678118654746 0.70710678118654746 0.125 forward I I I I #
loop $-1 $-1 $352 $95 #
coedge $-1 $222 $222 $353 $354 reversed $139 $-1 #
face $-1 $-1 $355 $75 $-1 $356 forward single #
loop $-1 $357 $358 $141 #
cone-surface $-1 11.975522360525375 -19.439652087270119 6.7852705803714564 0 0.83867057594974714 -0.54463902268945019 0.125 0 0 1 I I -0.70710678118654746 0.70710678118654746 0.125 forward I I I I #
loop $-1 $-1 $359 $96 #
coedge $-1 $227 $227 $360 $361 reversed $142 $-1 #
face $-1 $-1 $362 $76 $-1 $363 forward single #
loop $-1 $364 $365 $144 #
cone-surface $-1 15.664040678546641 -19.439652087270119 6.7852705803714564 0 0.83867057594974714 -0.54463902268945019 0.125 0 0 1 I I -0.70710678118654746 0.70710678118654746 0.125 forward I I I I #
loop $-1 $-1 $366 $97 #
coedge $-1 $232 $232 $367 $368 reversed $145 $-1 #
face $-1 $369 $370 $77 $-1 $371 reversed single #
loop $-1 $-1 $372 $147 #
plane-surface $-1 34.600025544984362 -21.457732670484603 5.743287209008983 0 -0.83867057594974714 0.54463902268945019 1 0 0 forward_v I I I I #
coedge $-1 $373 $374 $375 $376 reversed $148 $-1 #
face $-1 $-1 $377 $78 $-1 $378 forward single #
loop $-1 $379 $380 $150 #
cone-surface $-1 30.911507226963096 -19.439652087270119 6.7852705803714564 0 0.83867057594974714 -0.54463902268945019 0.125 0 0 1 I I -0.70710678118654746 0.70710678118654746 0.125 forward I I I I #
loop $-1 $-1 $381 $99 #
coedge $-1 $241 $241 $382 $383 reversed $151 $-1 #
face $-1 $-1 $384 $79 $-1 $385 forward single #
loop $-1 $386 $387 $153 #
cone-surface $-1 34.600025544984376 -19.439652087270119 6.7852705803714564 0 0.83867057594974714 -0.54463902268945019 0.125 0 0 1 I I -0.70710678118654746 0.70710678118654746 0.125 forward I I I I #
loop $-1 $-1 $388 $100 #
coedge $-1 $246 $246 $389 $390 reversed $154 $-1 #
face $-1 $-1 $391 $80 $-1 $392 forward single #
loop $-1 $393 $394 $156 #
cone-surface $-1 38.288543863005643 -19.439652087270119 6.7852705803714564 0 0.83867057594974714 -0.54463902268945019 0.125 0 0 1 I I -0.70710678118654746 0.70710678118654746 0.125 forward I I I I #
loop $-1 $-1 $395 $101 #
coedge $-1 $251 $251 $396 $397 reversed $157 $-1 #
face $-1 $398 $399 $81 $-1 $400 forward single #
loop $-1 $-1 $401 $159 #
plane-surface $-1 43.573979116054488 -14.120800330486944 26.523319214315222 0 0.55919291073839883 0.82903756765294845 1 0 0 forward_v I I I I #
coedge $-1 $402 $403 $404 $405 reversed $160 $-1 #
face $-1 $-1 $406 $82 $-1 $407 forward single #
loop $-1 $408 $409 $162 #
cone-surface $-1 40.35839950890302 13.231906996197552 0.7672718026776284 0 -0.55919291073839883 -0.82903756765294845 0.75 0 0 1 I I -0.70710678118654757 0.70710678118654757 0.75 forward I I I I #
loop $-1 $-1 $410 $103 #
coedge $-1 $260 $260 $411 $412 reversed $163 $-1 #
face $-1 $-1 $413 $83 $-1 $414 forward single #
loop $-1 $415 $416 $165 #
cone-surface $-1 46.789558723205971 13.231906996197552 0.7672718026776284 0 -0.55919291073839883 -0.82903756765294845 0.75 0 0 1 I I -0.70710678118654757 0.70710678118654757 0.75 forward I I I I #
loop $-1 $-1 $417 $104 #
coedge $-1 $265 $265 $418 $419 reversed $166 $-1 #
face $-1 $420 $421 $63 $-1 $422 reversed single #
loop $-1 $-1 $423 $168 #
plane-surface $-1 0 -21.457732670484631 0 0 1 0 0 0 1 forward_v I I I I #
coedge $-1 $424 $425 $426 $427 forward $169 $-1 #
coedge $-1 $428 $171 $429 $430 forward $106 $-1 #
coedge $-1 $171 $428 $431 $432 forward $106 $-1 #
coedge $-1 $433 $434 $171 $273 reversed $435 $-1 #
edge $-1 $436 -21.457732670484631 $437 21.457732670484631 $272 $438 forward 7 unknown #
face $-1 $439 $440 $64 $-1 $441 reversed single #
loop $-1 $-1 $442 $172 #
plane-surface $-1 0 0 9.0526917527851953 0 0 1 1 0 0 forward_v I I I I #
coedge $-1 $443 $444 $445 $446 reversed $173 $-1 #
coedge $-1 $447 $175 $448 $449 reversed $109 $-1 #
coedge $-1 $175 $447 $450 $451 reversed $109 $-1 #
coedge $-1 $444 $443 $175 $281 reversed $173 $-1 #
edge $-1 $452 -9.0526917527851953 $453 9.0526917527851953 $280 $454 forward 7 unknown #
face $-1 $455 $456 $65 $-1 $457 forward single #
loop $-1 $-1 $288 $176 #
plane-surface $-1 0 0 9.0526917527851953 0 0 1 1 0 0 forward_v I I I I #
coedge $-1 $458 $459 $460 $461 reversed $177 $-1 #
coedge $-1 $287 $179 $462 $463 reversed $112 $-1 #
coedge $-1 $179 $286 $458 $464 reversed $112 $-1 #
coedge $-1 $460 $465 $179 $289 forward $283 $-1 #
edge $-1 $466 32.107909162439327 $467 34.257061532981453 $288 $468 forward 7 unknown #
loop $-1 $-1 $295 $180 #
plane-surface $-1 -33.273484008392636 -21.457732670484603 5.743287209008983 0 -0.83867057594974714 0.54463902268945019 1 0 0 forward_v I I I I #
loop $-1 $-1 $469 $114 #
coedge $-1 $293 $293 $294 $470 reversed $181 $-1 #
coedge $-1 $294 $294 $293 $470 forward $183 $-1 #
coedge $-1 $295 $295 $184 $296 forward $290 $-1 #
edge $-1 $471 5.9944162894154951e-015 $471 6.2831853071796067 $295 $472 forward 7 unknown #
loop $-1 $-1 $302 $185 #
plane-surface $-1 -33.273484008392636 -21.457732670484603 5.743287209008983 0 -0.83867057594974714 0.54463902268945019 1 0 0 forward_v I I I I #
loop $-1 $-1 $473 $117 #
coedge $-1 $300 $300 $301 $474 reversed $186 $-1 #
coedge $-1 $301 $301 $300 $474 forward $188 $-1 #
coedge $-1 $302 $302 $189 $303 forward $297 $-1 #
edge $-1 $475 5.9944162894154951e-015 $475 6.2831853071796067 $302 $476 forward 7 unknown #
loop $-1 $-1 $309 $190 #
plane-surface $-1 -33.273484008392636 -21.457732670484603 5.743287209008983 0 -0.83867057594974714 0.54463902268945019 1 0 0 forward_v I I I I #
loop $-1 $-1 $477 $120 #
coedge $-1 $307 $307 $308 $478 reversed $191 $-1 #
coedge $-1 $308 $308 $307 $478 forward $193 $-1 #
coedge $-1 $309 $309 $194 $310 forward $304 $-1 #
edge $-1 $479 5.9944162894154951e-015 $479 6.2831853071796067 $309 $480 forward 7 unknown #
face $-1 $481 $482 $69 $-1 $483 reversed single #
loop $-1 $-1 $484 $195 #
plane-surface $-1 -4.501450293898186 -107.13128366584792 61.380339971481675 -1 0 0 0 -0.83867057594974714 0.54463902268945019 forward_v I I I I #
coedge $-1 $485 $486 $487 $488 reversed $196 $-1 #
coedge $-1 $316 $198 $489 $490 reversed $124 $-1 #
coedge $-1 $198 $315 $485 $491 reversed $124 $-1 #
coedge $-1 $487 $492 $198 $318 forward $482 $-1 #
edge $-1 $493 21.637478232955644 $494 24.946882776731897 $317 $495 forward 7 unknown #
loop $-1 $-1 $324 $199 #
plane-surface $-1 -10.648980823933634 -21.457732670484603 5.743287209008983 0 -0.83867057594974714 0.54463902268945019 1 0 0 forward_v I I I I #
loop $-1 $-1 $496 $126 #
coedge $-1 $322 $322 $323 $497 reversed $200 $-1 #
coedge $-1 $323 $323 $322 $497 forward $202 $-1 #
coedge $-1 $324 $324 $203 $325 forward $319 $-1 #
edge $-1 $498 5.9944162894154951e-015 $498 6.2831853071796067 $324 $499 forward 7 unknown #
loop $-1 $-1 $331 $204 #
plane-surface $-1 -10.648980823933634 -21.457732670484603 5.743287209008983 0 -0.83867057594974714 0.54463902268945019 1 0 0 forward_v I I I I #
loop $-1 $-1 $500 $129 #
coedge $-1 $329 $329 $330 $501 reversed $205 $-1 #
coedge $-1 $330 $330 $329 $501 forward $207 $-1 #
coedge $-1 $331 $331 $208 $332 forward $326 $-1 #
edge $-1 $502 5.9944162894154951e-015 $502 6.2831853071796067 $331 $503 forward 7 unknown #
loop $-1 $-1 $338 $209 #
plane-surface $-1 -10.648980823933634 -21.457732670484603 5.743287209008983 0 -0.83867057594974714 0.54463902268945019 1 0 0 forward_v I I I I #
loop $-1 $-1 $504 $132 #
coedge $-1 $336 $336 $337 $505 reversed $210 $-1 #
coedge $-1 $337 $337 $336 $505 forward $212 $-1 #
coedge $-1 $338 $338 $213 $339 forward $333 $-1 #
edge $-1 $506 5.9944162894154951e-015 $506 6.2831853071796067 $338 $507 forward 7 unknown #
face $-1 $508 $509 $73 $-1 $510 reversed single #
loop $-1 $-1 $511 $214 #
plane-surface $-1 18.123052890560814 -107.13128366584792 61.380339971481675 -1 0 0 0 -0.83867057594974714 0.54463902268945019 forward_v I I I I #
coedge $-1 $512 $513 $514 $515 reversed $215 $-1 #
coedge $-1 $345 $217 $516 $517 reversed $136 $-1 #
coedge $-1 $217 $344 $512 $518 reversed $136 $-1 #
coedge $-1 $514 $519 $217 $347 forward $509 $-1 #
edge $-1 $520 21.637478232955644 $521 24.946882776731897 $346 $522 forward 7 unknown #
loop $-1 $-1 $353 $218 #
plane-surface $-1 11.975522360525368 -21.457732670484603 5.743287209008983 0 -0.83867057594974714 0.54463902268945019 1 0 0 forward_v I I I I #
loop $-1 $-1 $523 $138 #
coedge $-1 $351 $351 $352 $524 reversed $219 $-1 #
coedge $-1 $352 $352 $351 $524 forward $221 $-1 #
coedge $-1 $353 $353 $222 $354 forward $348 $-1 #
edge $-1 $525 5.9944162894154951e-015 $525 6.2831853071796067 $353 $526 forward 7 unknown #
loop $-1 $-1 $360 $223 #
plane-surface $-1 11.975522360525368 -21.457732670484603 5.743287209008983 0 -0.83867057594974714 0.54463902268945019 1 0 0 forward_v I I I I #
loop $-1 $-1 $527 $141 #
coedge $-1 $358 $358 $359 $528 reversed $224 $-1 #
coedge $-1 $359 $359 $358 $528 forward $226 $-1 #
coedge $-1 $360 $360 $227 $361 forward $355 $-1 #
edge $-1 $529 5.9944162894154951e-015 $529 6.2831853071796067 $360 $530 forward 7 unknown #
loop $-1 $-1 $367 $228 #
plane-surface $-1 11.975522360525368 -21.457732670484603 5.743287209008983 0 -0.83867057594974714 0.54463902268945019 1 0 0 forward_v I I I I #
loop $-1 $-1 $531 $144 #
coedge $-1 $365 $365 $366 $532 reversed $229 $-1 #
coedge $-1 $366 $366 $365 $532 forward $231 $-1 #
coedge $-1 $367 $367 $232 $368 forward $362 $-1 #
edge $-1 $533 5.9944162894154951e-015 $533 6.2831853071796067 $367 $534 forward 7 unknown #
face $-1 $535 $536 $77 $-1 $537 reversed single #
loop $-1 $-1 $538 $233 #
plane-surface $-1 40.747556075019808 -107.13128366584792 61.380339971481675 -1 0 0 0 -0.83867057594974714 0.54463902268945019 forward_v I I I I #
coedge $-1 $539 $540 $541 $542 reversed $234 $-1 #
coedge $-1 $374 $236 $543 $544 reversed $148 $-1 #
coedge $-1 $236 $373 $539 $545 reversed $148 $-1 #
coedge $-1 $541 $546 $236 $376 forward $536 $-1 #
edge $-1 $547 21.637478232955644 $548 24.946882776731897 $375 $549 forward 7 unknown #
loop $-1 $-1 $382 $237 #
plane-surface $-1 34.600025544984362 -21.457732670484603 5.743287209008983 0 -0.83867057594974714 0.54463902268945019 1 0 0 forward_v I I I I #
loop $-1 $-1 $550 $150 #
coedge $-1 $380 $380 $381 $551 reversed $238 $-1 #
coedge $-1 $381 $381 $380 $551 forward $240 $-1 #
coedge $-1 $382 $382 $241 $383 forward $377 $-1 #
edge $-1 $552 5.9944162894154951e-015 $552 6.2831853071796067 $382 $553 forward 7 unknown #
loop $-1 $-1 $389 $242 #
plane-surface $-1 34.600025544984362 -21.457732670484603 5.743287209008983 0 -0.83867057594974714 0.54463902268945019 1 0 0 forward_v I I I I #
loop $-1 $-1 $554 $153 #
coedge $-1 $387 $387 $388 $555 reversed $243 $-1 #
coedge $-1 $388 $388 $387 $555 forward $245 $-1 #
coedge $-1 $389 $389 $246 $390 forward $384 $-1 #
edge $-1 $556 5.9944162894154951e-015 $556 6.2831853071796067 $389 $557 forward 7 unknown #
loop $-1 $-1 $396 $247 #
plane-surface $-1 34.600025544984362 -21.457732670484603 5.743287209008983 0 -0.83867057594974714 0.54463902268945019 1 0 0 forward_v I I I I #
loop $-1 $-1 $558 $156 #
coedge $-1 $394 $394 $395 $559 reversed $248 $-1 #
coedge $-1 $395 $395 $394 $559 forward $250 $-1 #
coedge $-1 $396 $396 $251 $397 forward $391 $-1 #
edge $-1 $560 5.9944162894154951e-015 $560 6.2831853071796067 $396 $561 forward 7 unknown #
face $-1 $562 $563 $81 $-1 $564 reversed single #
loop $-1 $-1 $404 $252 #
plane-surface $-1 0 0 9.0526917527851953 0 0 1 1 0 0 forward_v I I I I #
coedge $-1 $565 $566 $567 $568 reversed $253 $-1 #
coedge $-1 $403 $255 $569 $570 reversed $160 $-1 #
coedge $-1 $255 $402 $565 $571 reversed $160 $-1 #
coedge $-1 $567 $572 $255 $405 forward $399 $-1 #
edge $-1 $573 0.043762459178779523 $574 9.7210255800436975 $404 $575 forward 7 unknown #
loop $-1 $-1 $411 $256 #
plane-surface $-1 43.573979116054488 -14.120800330486944 26.523319214315222 0 0.55919291073839883 0.82903756765294845 1 0 0 forward_v I I I I #
loop $-1 $-1 $576 $162 #
coedge $-1 $409 $409 $410 $577 reversed $257 $-1 #
coedge $-1 $410 $410 $409 $577 forward $259 $-1 #
coedge $-1 $411 $411 $260 $412 forward $406 $-1 #
edge $-1 $578 -1.3013379702038917e-015 $578 6.2831853071795996 $411 $579 forward 7 unknown #
loop $-1 $-1 $418 $261 #
plane-surface $-1 43.573979116054488 -14.120800330486944 26.523319214315222 0 0.55919291073839883 0.82903756765294845 1 0 0 forward_v I I I I #
loop $-1 $-1 $580 $165 #
coedge $-1 $416 $416 $417 $581 reversed $262 $-1 #
coedge $-1 $417 $417 $416 $581 forward $264 $-1 #
coedge $-1 $418 $418 $265 $419 forward $413 $-1 #
edge $-1 $582 -1.3013379702038917e-015 $582 6.2831853071795996 $418 $583 forward 7 unknown #
face $-1 $584 $585 $63 $-1 $586 reversed single #
loop $-1 $-1 $587 $266 #
plane-surface $-1 -51.076998199407939 0 0 1 0 0 0 0 -1 forward_v I I I I #
coedge $-1 $588 $431 $589 $590 forward $267 $-1 #
coedge $-1 $591 $269 $588 $592 forward $169 $-1 #
coedge $-1 $269 $591 $593 $594 forward $169 $-1 #
coedge $-1 $434 $433 $269 $427 reversed $435 $-1 #
edge $-1 $595 -21.457732670484631 $596 21.457732670484631 $426 $597 forward 7 unknown #
coedge $-1 $271 $270 $598 $599 forward $106 $-1 #
coedge $-1 $600 $601 $270 $430 reversed $585 $-1 #
edge $-1 $437 -51.076998199407939 $602 51.076998199407939 $429 $603 forward 7 unknown #
coedge $-1 $423 $604 $271 $432 reversed $267 $-1 #
edge $-1 $605 -51.076998199407939 $436 51.076998199407939 $431 $606 forward 7 unknown #
coedge $-1 $426 $272 $604 $607 forward $435 $-1 #
coedge $-1 $272 $426 $600 $608 reversed $435 $-1 #
loop $-1 $-1 $433 $584 #
vertex $-1 $273 $609 #
vertex $-1 $273 $610 #
straight-curve $-1 51.076998199407939 0 9.0526917527851953 0 1 0 I I #
face $-1 $611 $612 $64 $-1 $613 reversed single #
loop $-1 $-1 $614 $274 #
plane-surface $-1 -51.076998199407939 0 0 1 0 0 0 0 -1 forward_v I I I I #
coedge $-1 $450 $615 $444 $616 forward $275 $-1 #
coedge $-1 $280 $277 $617 $618 reversed $173 $-1 #
coedge $-1 $277 $280 $442 $616 reversed $173 $-1 #
coedge $-1 $619 $620 $277 $446 forward $621 $-1 #
edge $-1 $622 -9.0526917527851953 $623 9.0526917527851953 $445 $624 forward 7 unknown #
coedge $-1 $279 $278 $614 $625 reversed $109 $-1 #
coedge $-1 $617 $626 $278 $449 forward $612 $-1 #
edge $-1 $627 -28.452495014948934 $453 -16.796511353969077 $448 $628 forward 7 unknown #
coedge $-1 $629 $442 $279 $451 forward $275 $-1 #
edge $-1 $452 16.796511353969077 $630 28.452495014948934 $450 $631 forward 7 unknown #
vertex $-1 $451 $632 #
vertex $-1 $449 $633 #
straight-curve $-1 -39.421014538428082 -18.457732670484631 0 0 0 -1 I I #
face $-1 $-1 $634 $65 $-1 $635 reversed single #
loop $-1 $-1 $636 $282 #
plane-surface $-1 -39.421014538428082 -19.957732670484631 0 -1 0 0 0 0 1 forward_v I I I I #
coedge $-1 $637 $285 $287 $464 forward $177 $-1 #
coedge $-1 $285 $637 $636 $638 reversed $177 $-1 #
coedge $-1 $639 $288 $285 $461 forward $283 $-1 #
edge $-1 $467 10.489211474160872 $640 22.784272534231764 $460 $641 forward 7 unknown #
coedge $-1 $642 $643 $286 $463 forward $634 $-1 #
edge $-1 $644 -24.946882776731897 $466 -21.637478232955644 $462 $645 forward 7 unknown #
edge $-1 $467 -3.9460124614822671 $644 5.1979138280344745e-014 $287 $646 forward 7 unknown #
coedge $-1 $288 $639 $642 $647 forward $283 $-1 #
vertex $-1 $289 $648 #
vertex $-1 $289 $649 #
straight-curve $-1 -27.125953478357189 -53.565641832923959 9.0526917527851936 0 1 0 I I #
coedge $-1 $469 $469 $-1 $650 reversed $292 $-1 #
edge $-1 $651 0 $651 6.2831853071796004 $293 $652 forward 7 unknown #
vertex $-1 $296 $653 #
ellipse-curve $-1 -36.962002326413902 -20.383156485213565 7.397989480897075 0 -0.83867057594974714 0.54463902268945019 0.25 0 0 1 I I #
coedge $-1 $473 $473 $-1 $654 reversed $299 $-1 #
edge $-1 $655 0 $655 6.2831853071796004 $300 $656 forward 7 unknown #
vertex $-1 $303 $657 #
ellipse-curve $-1 -33.273484008392629 -20.383156485213565 7.397989480897075 0 -0.83867057594974714 0.54463902268945019 0.25 0 0 1 I I #
coedge $-1 $477 $477 $-1 $658 reversed $306 $-1 #
edge $-1 $659 0 $659 6.2831853071796004 $307 $660 forward 7 unknown #
vertex $-1 $310 $661 #
ellipse-curve $-1 -29.584965690371362 -20.383156485213565 7.397989480897075 0 -0.83867057594974714 0.54463902268945019 0.25 0 0 1 I I #
face $-1 $-1 $662 $69 $-1 $663 forward single #
loop $-1 $-1 $317 $311 #
plane-surface $-1 0 -21.457732670484631 0 0 1 0 0 0 1 forward_v I I I I #
coedge $-1 $664 $665 $666 $667 reversed $312 $-1 #
coedge $-1 $668 $314 $316 $491 forward $196 $-1 #
coedge $-1 $314 $668 $664 $669 forward $196 $-1 #
coedge $-1 $666 $317 $314 $488 forward $482 $-1 #
edge $-1 $494 -11.472020942002263 $670 0.82304011806863109 $487 $671 forward 7 unknown #
coedge $-1 $672 $673 $315 $490 forward $662 $-1 #
edge $-1 $674 -34.257061532981453 $493 -32.107909162439327 $489 $675 forward 7 unknown #
edge $-1 $494 -5.1979138280344745e-014 $674 3.9460124614822671 $316 $676 forward 7 unknown #
coedge $-1 $317 $666 $672 $677 reversed $482 $-1 #
vertex $-1 $677 $678 #
vertex $-1 $318 $679 #
straight-curve $-1 -16.79651135396908 -21.457732670484631 30.690169985740837 0 0 -1 I I #
coedge $-1 $496 $496 $-1 $680 reversed $321 $-1 #
edge $-1 $681 0 $681 6.2831853071796004 $322 $682 forward 7 unknown #
vertex $-1 $325 $683 #
ellipse-curve $-1 -14.3374991419549 -20.383156485213565 7.397989480897075 0 -0.83867057594974714 0.54463902268945019 0.25 0 0 1 I I #
coedge $-1 $500 $500 $-1 $684 reversed $328 $-1 #
edge $-1 $685 0 $685 6.2831853071796004 $329 $686 forward 7 unknown #
vertex $-1 $332 $687 #
ellipse-curve $-1 -10.648980823933627 -20.383156485213565 7.397989480897075 0 -0.83867057594974714 0.54463902268945019 0.25 0 0 1 I I #
coedge $-1 $504 $504 $-1 $688 reversed $335 $-1 #
edge $-1 $689 0 $689 6.2831853071796004 $336 $690 forward 7 unknown #
vertex $-1 $339 $691 #
ellipse-curve $-1 -6.9604625059123606 -20.383156485213565 7.397989480897075 0 -0.83867057594974714 0.54463902268945019 0.25 0 0 1 I I #
face $-1 $-1 $692 $73 $-1 $693 forward single #
loop $-1 $-1 $346 $340 #
plane-surface $-1 0 -21.457732670484631 0 0 1 0 0 0 1 forward_v I I I I #
coedge $-1 $694 $695 $696 $697 reversed $341 $-1 #
coedge $-1 $698 $343 $345 $518 forward $215 $-1 #
coedge $-1 $343 $698 $694 $699 forward $215 $-1 #
coedge $-1 $696 $346 $343 $515 forward $509 $-1 #
edge $-1 $521 -0.15976934977276436 $700 12.13529171029813 $514 $701 forward 7 unknown #
coedge $-1 $702 $703 $344 $517 forward $692 $-1 #
edge $-1 $704 -34.257061532981453 $520 -32.107909162439327 $516 $705 forward 7 unknown #
edge $-1 $521 -5.1979138280344745e-014 $704 3.9460124614822671 $345 $706 forward 7 unknown #
coedge $-1 $346 $696 $702 $707 reversed $509 $-1 #
vertex $-1 $707 $708 #
vertex $-1 $347 $709 #
straight-curve $-1 5.8279918304899194 -21.457732670484631 30.690169985740837 0 0 -1 I I #
coedge $-1 $523 $523 $-1 $710 reversed $350 $-1 #
edge $-1 $711 0 $711 6.2831853071796004 $351 $712 forward 7 unknown #
vertex $-1 $354 $713 #
ellipse-curve $-1 8.2870040425041012 -20.383156485213565 7.397989480897075 0 -0.83867057594974714 0.54463902268945019 0.25 0 0 1 I I #
coedge $-1 $527 $527 $-1 $714 reversed $357 $-1 #
edge $-1 $715 0 $715 6.2831853071796004 $358 $716 forward 7 unknown #
vertex $-1 $361 $717 #
ellipse-curve $-1 11.975522360525375 -20.383156485213565 7.397989480897075 0 -0.83867057594974714 0.54463902268945019 0.25 0 0 1 I I #
coedge $-1 $531 $531 $-1 $718 reversed $364 $-1 #
edge $-1 $719 0 $719 6.2831853071796004 $365 $720 forward 7 unknown #
vertex $-1 $368 $721 #
ellipse-curve $-1 15.664040678546641 -20.383156485213565 7.397989480897075 0 -0.83867057594974714 0.54463902268945019 0.25 0 0 1 I I #
face $-1 $-1 $722 $77 $-1 $723 forward single #
loop $-1 $-1 $375 $369 #
plane-surface $-1 0 -21.457732670484631 0 0 1 0 0 0 1 forward_v I I I I #
coedge $-1 $724 $725 $726 $727 reversed $370 $-1 #
coedge $-1 $728 $372 $374 $545 forward $234 $-1 #
coedge $-1 $372 $728 $724 $729 forward $234 $-1 #
coedge $-1 $726 $375 $372 $542 forward $536 $-1 #
edge $-1 $548 11.152482242456735 $730 23.447543302527627 $541 $731 forward 7 unknown #
coedge $-1 $732 $733 $373 $544 forward $722 $-1 #
edge $-1 $734 -34.257061532981453 $547 -32.107909162439327 $543 $735 forward 7 unknown #
edge $-1 $548 -5.1979138280344745e-014 $734 3.9460124614822671 $374 $736 forward 7 unknown #
coedge $-1 $375 $726 $732 $737 reversed $536 $-1 #
vertex $-1 $737 $738 #
vertex $-1 $376 $739 #
straight-curve $-1 28.452495014948916 -21.457732670484631 30.690169985740837 0 0 -1 I I #
coedge $-1 $550 $550 $-1 $740 reversed $379 $-1 #
edge $-1 $741 0 $741 6.2831853071796004 $380 $742 forward 7 unknown #
vertex $-1 $383 $743 #
ellipse-curve $-1 30.911507226963096 -20.383156485213565 7.397989480897075 0 -0.83867057594974714 0.54463902268945019 0.25 0 0 1 I I #
coedge $-1 $554 $554 $-1 $744 reversed $386 $-1 #
edge $-1 $745 0 $745 6.2831853071796004 $387 $746 forward 7 unknown #
vertex $-1 $390 $747 #
ellipse-curve $-1 34.600025544984376 -20.383156485213565 7.397989480897075 0 -0.83867057594974714 0.54463902268945019 0.25 0 0 1 I I #
coedge $-1 $558 $558 $-1 $748 reversed $393 $-1 #
edge $-1 $749 0 $749 6.2831853071796004 $394 $750 forward 7 unknown #
vertex $-1 $397 $751 #
ellipse-curve $-1 38.288543863005643 -20.383156485213565 7.397989480897075 0 -0.83867057594974714 0.54463902268945019 0.25 0 0 1 I I #
face $-1 $-1 $752 $81 $-1 $753 reversed single #
loop $-1 $-1 $754 $398 #
plane-surface $-1 51.076998199407939 0 0 -1 0 0 0 0 1 forward_v I I I I #
coedge $-1 $755 $401 $403 $571 forward $253 $-1 #
coedge $-1 $401 $755 $754 $756 reversed $253 $-1 #
coedge $-1 $757 $404 $401 $568 forward $399 $-1 #
edge $-1 $574 14.283970474673801 $758 29.290008641380687 $567 $759 forward 7 unknown #
coedge $-1 $760 $761 $402 $570 forward $752 $-1 #
edge $-1 $762 -53.081114722803051 $573 -46.5537182046236 $569 $763 forward 7 unknown #
edge $-1 $574 31.242576803165381 $762 42.91546534096927 $403 $764 forward 7 unknown #
coedge $-1 $404 $757 $760 $765 forward $399 $-1 #
vertex $-1 $570 $766 #
vertex $-1 $405 $767 #
straight-curve $-1 36.070960032701045 21.501495129663411 9.0526917527851936 0 -1 0 I I #
coedge $-1 $576 $576 $-1 $768 reversed $408 $-1 #
edge $-1 $769 0 $769 6.2831853071796004 $409 $770 forward 7 unknown #
vertex $-1 $412 $771 #
ellipse-curve $-1 40.35839950890302 16.619101110052174 5.7889934936954681 0 0.55919291073839883 0.82903756765294845 1.5 0 0 1 I I #
coedge $-1 $580 $580 $-1 $772 reversed $415 $-1 #
edge $-1 $773 0 $773 6.2831853071796004 $416 $774 forward 7 unknown #
vertex $-1 $419 $775 #
ellipse-curve $-1 46.789558723205971 16.619101110052174 5.7889934936954681 0 0.55919291073839883 0.82903756765294845 1.5 0 0 1 I I #
face $-1 $-1 $435 $63 $-1 $776 reversed single #
loop $-1 $-1 $600 $420 #
plane-surface $-1 0 21.457732670484631 0 0 -1 0 0 0 -1 forward_v I I I I #
coedge $-1 $777 $598 $601 $778 forward $421 $-1 #
coedge $-1 $604 $423 $424 $592 reversed $267 $-1 #
coedge $-1 $598 $777 $423 $590 reversed $421 $-1 #
edge $-1 $605 -9.0526917527851953 $779 9.0526917527851953 $589 $780 forward 7 unknown #
coedge $-1 $425 $424 $777 $781 forward $169 $-1 #
edge $-1 $596 -51.076998199407939 $779 51.076998199407939 $588 $782 forward 7 unknown #
coedge $-1 $601 $600 $425 $594 reversed $585 $-1 #
edge $-1 $783 -51.076998199407939 $595 51.076998199407939 $593 $784 forward 7 unknown #
vertex $-1 $427 $785 #
vertex $-1 $607 $786 #
straight-curve $-1 51.076998199407939 0 -9.0526917527851953 0 -1 0 I I #
coedge $-1 $587 $589 $428 $599 reversed $421 $-1 #
edge $-1 $602 -21.457732670484631 $605 21.457732670484631 $598 $787 forward 7 unknown #
coedge $-1 $593 $429 $434 $608 forward $585 $-1 #
coedge $-1 $429 $593 $587 $778 reversed $585 $-1 #
vertex $-1 $430 $788 #
straight-curve $-1 0 21.457732670484631 9.0526917527851953 -1 0 0 I I #
coedge $-1 $431 $588 $433 $607 reversed $267 $-1 #
vertex $-1 $599 $789 #
straight-curve $-1 0 -21.457732670484631 9.0526917527851953 1 0 0 I I #
edge $-1 $436 -9.0526917527851953 $596 9.0526917527851953 $433 $790 forward 7 unknown #
edge $-1 $437 -9.0526917527851953 $595 9.0526917527851953 $434 $791 forward 7 unknown #
point $-1 51.076998199407939 -21.457732670484631 9.0526917527851953 #
point $-1 51.076998199407939 21.457732670484631 9.0526917527851953 #
face $-1 $-1 $621 $64 $-1 $792 reversed single #
loop $-1 $-1 $617 $439 #
plane-surface $-1 0 0 -9.0526917527851953 0 0 1 1 0 0 forward_v I I I I #
coedge $-1 $793 $794 $447 $625 forward $440 $-1 #
coedge $-1 $442 $629 $619 $795 forward $275 $-1 #
edge $-1 $623 -11.478866335242316 $452 -8.4788663352423157 $442 $796 forward 7 unknown #
coedge $-1 $797 $448 $443 $618 forward $612 $-1 #
edge $-1 $453 8.4788663352423157 $622 11.478866335242316 $617 $798 forward 7 unknown #
coedge $-1 $799 $445 $615 $795 reversed $621 $-1 #
coedge $-1 $445 $799 $797 $800 reversed $621 $-1 #
loop $-1 $-1 $445 $611 #
vertex $-1 $800 $801 #
vertex $-1 $446 $802 #
straight-curve $-1 -39.421014538428082 -21.457732670484631 0 0 0 1 I I #
edge $-1 $630 -9.0526917527851953 $627 9.0526917527851953 $614 $803 forward 7 unknown #
coedge $-1 $448 $797 $793 $804 forward $612 $-1 #
vertex $-1 $449 $805 #
straight-curve $-1 -22.624503184459005 -18.457732670484631 -9.0526917527851953 1 0 0 I I #
coedge $-1 $615 $450 $794 $806 forward $275 $-1 #
vertex $-1 $806 $807 #
straight-curve $-1 -22.624503184459005 -18.457732670484631 9.0526917527851953 -1 0 0 I I #
point $-1 -39.421014538428082 -18.457732670484631 9.0526917527851953 #
point $-1 -39.421014538428082 -18.457732670484631 -9.0526917527851953 #
loop $-1 $-1 $462 $455 #
plane-surface $-1 0 -21.457732670484631 0 0 1 0 0 0 1 forward_v I I I I #
coedge $-1 $808 $809 $459 $638 forward $456 $-1 #
coedge $-1 $459 $458 $643 $810 reversed $177 $-1 #
edge $-1 $640 -5.9458961901773755 $811 -1.9998837286950577 $636 $812 forward 7 unknown #
coedge $-1 $465 $460 $809 $813 forward $283 $-1 #
vertex $-1 $813 $814 #
straight-curve $-1 -16.636742004196318 -19.308580299942509 9.0526917527851953 -1 0 0 I I #
coedge $-1 $815 $462 $465 $647 reversed $634 $-1 #
coedge $-1 $462 $815 $637 $810 forward $634 $-1 #
vertex $-1 $463 $816 #
straight-curve $-1 -27.125953478357189 -21.457732670484631 30.690169985740837 0 0 1 I I #
straight-curve $-1 -27.125953478357189 -21.457732670484603 5.743287209008983 0 -0.54463902268945019 -0.83867057594974714 I I #
edge $-1 $817 -39.421014538428082 $466 -27.125953478357189 $642 $818 forward 7 unknown #
point $-1 -27.125953478357189 -21.457732670484631 9.0526917527851953 #
point $-1 -27.125953478357189 -19.308580299942509 9.0526917527851953 #
edge $-1 $819 1 $819 0 $469 $-1 forward 7 unknown #
vertex $-1 $470 $820 #
ellipse-curve $-1 -36.962002326413902 -19.544485909263837 6.8533504582076379 0 -0.83867057594974714 0.54463902268945019 0.25 0 0 1 I I #
point $-1 -36.712002326413902 -20.383156485213583 7.3979894808970883 #
edge $-1 $821 1 $821 0 $473 $-1 forward 7 unknown #
vertex $-1 $474 $822 #
ellipse-curve $-1 -33.273484008392629 -19.544485909263837 6.8533504582076379 0 -0.83867057594974714 0.54463902268945019 0.25 0 0 1 I I #
point $-1 -33.023484008392629 -20.383156485213583 7.3979894808970883 #
edge $-1 $823 1 $823 0 $477 $-1 forward 7 unknown #
vertex $-1 $478 $824 #
ellipse-curve $-1 -29.584965690371362 -19.544485909263837 6.8533504582076379 0 -0.83867057594974714 0.54463902268945019 0.25 0 0 1 I I #
point $-1 -29.334965690371362 -20.383156485213583 7.3979894808970883 #
loop $-1 $-1 $489 $481 #
plane-surface $-1 0 0 9.0526917527851953 0 0 1 1 0 0 forward_v I I I I #
coedge $-1 $665 $484 $486 $669 reversed $312 $-1 #
coedge $-1 $484 $664 $825 $826 reversed $312 $-1 #
coedge $-1 $492 $487 $484 $667 forward $482 $-1 #
edge $-1 $670 -24.946882776731897 $827 -21.637478232955644 $666 $828 forward 7 unknown #
coedge $-1 $486 $485 $673 $829 reversed $196 $-1 #
edge $-1 $830 -3.9460124614822671 $670 5.1979138280344745e-014 $664 $831 forward 7 unknown #
vertex $-1 $488 $832 #
straight-curve $-1 -5.324490411966817 -21.457732670484631 5.7432872090089369 1 0 0 I I #
coedge $-1 $825 $489 $492 $677 forward $662 $-1 #
coedge $-1 $489 $825 $668 $829 forward $662 $-1 #
vertex $-1 $490 $833 #
straight-curve $-1 -16.79651135396908 -53.565641832923959 9.0526917527851936 0 -1 0 I I #
straight-curve $-1 -16.79651135396908 -21.457732670484603 5.743287209008983 0 0.54463902268945019 0.83867057594974714 I I #
edge $-1 $493 -16.79651135396908 $827 -4.501450293898186 $492 $834 forward 7 unknown #
point $-1 -16.79651135396908 -21.457732670484631 9.0526917527851953 #
point $-1 -16.79651135396908 -21.457732670484631 5.7432872090089395 #
edge $-1 $835 1 $835 0 $496 $-1 forward 7 unknown #
vertex $-1 $497 $836 #
ellipse-curve $-1 -14.3374991419549 -19.544485909263837 6.8533504582076379 0 -0.83867057594974714 0.54463902268945019 0.25 0 0 1 I I #
point $-1 -14.0874991419549 -20.383156485213583 7.3979894808970883 #
edge $-1 $837 1 $837 0 $500 $-1 forward 7 unknown #
vertex $-1 $501 $838 #
ellipse-curve $-1 -10.648980823933627 -19.544485909263837 6.8533504582076379 0 -0.83867057594974714 0.54463902268945019 0.25 0 0 1 I I #
point $-1 -10.398980823933627 -20.383156485213583 7.3979894808970883 #
edge $-1 $839 1 $839 0 $504 $-1 forward 7 unknown #
vertex $-1 $505 $840 #
ellipse-curve $-1 -6.9604625059123606 -19.544485909263837 6.8533504582076379 0 -0.83867057594974714 0.54463902268945019 0.25 0 0 1 I I #
point $-1 -6.7104625059123606 -20.383156485213583 7.3979894808970883 #
loop $-1 $-1 $516 $508 #
plane-surface $-1 0 0 9.0526917527851953 0 0 1 1 0 0 forward_v I I I I #
coedge $-1 $695 $511 $513 $699 reversed $341 $-1 #
coedge $-1 $511 $694 $841 $842 reversed $341 $-1 #
coedge $-1 $519 $514 $511 $697 forward $509 $-1 #
edge $-1 $700 -24.946882776731897 $843 -21.637478232955644 $696 $844 forward 7 unknown #
coedge $-1 $513 $512 $703 $845 reversed $215 $-1 #
edge $-1 $846 -3.9460124614822671 $700 5.1979138280344745e-014 $694 $847 forward 7 unknown #
vertex $-1 $515 $848 #
straight-curve $-1 5.9877611802626838 -21.457732670484631 5.7432872090089369 1 0 0 I I #
coedge $-1 $841 $516 $519 $707 forward $692 $-1 #
coedge $-1 $516 $841 $698 $845 forward $692 $-1 #
vertex $-1 $517 $849 #
straight-curve $-1 5.8279918304899194 -53.565641832923959 9.0526917527851936 0 -1 0 I I #
straight-curve $-1 5.8279918304899194 -21.457732670484603 5.743287209008983 0 0.54463902268945019 0.83867057594974714 I I #
edge $-1 $520 5.8279918304899194 $843 18.123052890560814 $519 $850 forward 7 unknown #
point $-1 5.8279918304899194 -21.457732670484631 9.0526917527851953 #
point $-1 5.8279918304899194 -21.457732670484631 5.7432872090089395 #
edge $-1 $851 1 $851 0 $523 $-1 forward 7 unknown #
vertex $-1 $524 $852 #
ellipse-curve $-1 8.2870040425041012 -19.544485909263837 6.8533504582076379 0 -0.83867057594974714 0.54463902268945019 0.25 0 0 1 I I #
point $-1 8.5370040425041012 -20.383156485213583 7.3979894808970883 #
edge $-1 $853 1 $853 0 $527 $-1 forward 7 unknown #
vertex $-1 $528 $854 #
ellipse-curve $-1 11.975522360525375 -19.544485909263837 6.8533504582076379 0 -0.83867057594974714 0.54463902268945019 0.25 0 0 1 I I #
point $-1 12.225522360525375 -20.383156485213583 7.3979894808970883 #
edge $-1 $855 1 $855 0 $531 $-1 forward 7 unknown #
vertex $-1 $532 $856 #
ellipse-curve $-1 15.664040678546641 -19.544485909263837 6.8533504582076379 0 -0.83867057594974714 0.54463902268945019 0.25 0 0 1 I I #
point $-1 15.914040678546641 -20.383156485213583 7.3979894808970883 #
loop $-1 $-1 $543 $535 #
plane-surface $-1 0 0 9.0526917527851953 0 0 1 1 0 0 forward_v I I I I #
coedge $-1 $725 $538 $540 $729 reversed $370 $-1 #
coedge $-1 $538 $724 $857 $858 reversed $370 $-1 #
coedge $-1 $546 $541 $538 $727 forward $536 $-1 #
edge $-1 $730 -24.946882776731897 $859 -21.637478232955644 $726 $860 forward 7 unknown #
coedge $-1 $540 $539 $733 $861 reversed $234 $-1 #
edge $-1 $862 -3.9460124614822671 $730 5.1979138280344745e-014 $724 $863 forward 7 unknown #
vertex $-1 $542 $864 #
straight-curve $-1 17.300012772492181 -21.457732670484631 5.7432872090089369 1 0 0 I I #
coedge $-1 $857 $543 $546 $737 forward $722 $-1 #
coedge $-1 $543 $857 $728 $861 forward $722 $-1 #
vertex $-1 $544 $865 #
straight-curve $-1 28.452495014948916 -53.565641832923959 9.0526917527851936 0 -1 0 I I #
straight-curve $-1 28.452495014948916 -21.457732670484603 5.743287209008983 0 0.54463902268945019 0.83867057594974714 I I #
edge $-1 $547 28.452495014948916 $859 40.747556075019808 $546 $866 forward 7 unknown #
point $-1 28.452495014948916 -21.457732670484631 9.0526917527851953 #
point $-1 28.452495014948916 -21.457732670484631 5.7432872090089395 #
edge $-1 $867 1 $867 0 $550 $-1 forward 7 unknown #
vertex $-1 $551 $868 #
ellipse-curve $-1 30.911507226963096 -19.544485909263837 6.8533504582076379 0 -0.83867057594974714 0.54463902268945019 0.25 0 0 1 I I #
point $-1 31.161507226963096 -20.383156485213583 7.3979894808970883 #
edge $-1 $869 1 $869 0 $554 $-1 forward 7 unknown #
vertex $-1 $555 $870 #
ellipse-curve $-1 34.600025544984376 -19.544485909263837 6.8533504582076379 0 -0.83867057594974714 0.54463902268945019 0.25 0 0 1 I I #
point $-1 34.850025544984376 -20.383156485213583 7.3979894808970883 #
edge $-1 $871 1 $871 0 $558 $-1 forward 7 unknown #
vertex $-1 $559 $872 #
ellipse-curve $-1 38.288543863005643 -19.544485909263837 6.8533504582076379 0 -0.83867057594974714 0.54463902268945019 0.25 0 0 1 I I #
point $-1 38.538543863005643 -20.383156485213583 7.3979894808970883 #
loop $-1 $-1 $569 $562 #
plane-surface $-1 0 21.457732670484631 0 0 -1 0 0 0 -1 forward_v I I I I #
coedge $-1 $873 $874 $566 $756 forward $563 $-1 #
coedge $-1 $566 $565 $761 $875 reversed $253 $-1 #
edge $-1 $758 17.973413786567143 $876 29.646302324371028 $754 $877 forward 7 unknown #
coedge $-1 $572 $567 $874 $878 forward $399 $-1 #
vertex $-1 $878 $879 #
straight-curve $-1 21.786989558027244 11.780469549619712 9.0526917527851953 1 0 0 I I #
coedge $-1 $880 $569 $572 $765 reversed $752 $-1 #
coedge $-1 $569 $880 $755 $875 forward $752 $-1 #
vertex $-1 $570 $881 #
straight-curve $-1 36.070960032701045 21.457732670484631 55.606409957408793 0 0 1 I I #
straight-curve $-1 36.070960032701045 -14.120800330486944 26.523319214315222 0 0.82903756765294845 -0.55919291073839883 I I #
edge $-1 $882 -51.076998199407939 $573 -36.070960032701045 $760 $883 forward 7 unknown #
point $-1 36.070960032701045 21.457732670484631 9.0526917527851953 #
point $-1 36.070960032701045 11.780469549619713 9.0526917527851936 #
edge $-1 $884 1 $884 0 $576 $-1 forward 7 unknown #
vertex $-1 $577 $885 #
ellipse-curve $-1 40.35839950890302 13.65130167925135 1.3890499784173398 0 0.55919291073839883 0.82903756765294845 1.5 0 0 1 I I #
point $-1 41.85839950890302 16.619101110052171 5.7889934936954663 #
edge $-1 $886 1 $886 0 $580 $-1 forward 7 unknown #
vertex $-1 $581 $887 #
ellipse-curve $-1 46.789558723205971 13.65130167925135 1.3890499784173398 0 0.55919291073839883 0.82903756765294845 1.5 0 0 1 I I #
point $-1 48.289558723205971 16.619101110052171 5.7889934936954663 #
plane-surface $-1 51.076998199407939 0 0 -1 0 0 0 0 1 forward_v I I I I #
coedge $-1 $589 $587 $591 $781 reversed $421 $-1 #
edge $-1 $602 -9.0526917527851953 $783 9.0526917527851953 $601 $888 forward 7 unknown #
vertex $-1 $781 $889 #
straight-curve $-1 -51.076998199407939 -21.457732670484631 0 0 0 -1 I I #
edge $-1 $779 -21.457732670484631 $783 21.457732670484631 $777 $890 forward 7 unknown #
straight-curve $-1 0 -21.457732670484631 -9.0526917527851953 -1 0 0 I I #
vertex $-1 $594 $891 #
straight-curve $-1 0 21.457732670484631 -9.0526917527851953 1 0 0 I I #
point $-1 51.076998199407939 21.457732670484631 -9.0526917527851953 #
point $-1 51.076998199407939 -21.457732670484631 -9.0526917527851953 #
straight-curve $-1 -51.076998199407939 0 9.0526917527851953 0 -1 0 I I #
point $-1 -51.076998199407939 21.457732670484631 9.0526917527851953 #
point $-1 -51.076998199407939 -21.457732670484631 9.0526917527851953 #
straight-curve $-1 51.076998199407939 -21.457732670484631 0 0 0 -1 I I #
straight-curve $-1 51.076998199407939 21.457732670484631 0 0 0 -1 I I #
plane-surface $-1 0 -21.457732670484631 0 0 1 0 0 0 1 forward_v I I I I #
coedge $-1 $892 $614 $626 $804 reversed $440 $-1 #
coedge $-1 $614 $892 $629 $806 reversed $440 $-1 #
edge $-1 $893 -51.076998199407939 $623 -39.421014538428082 $619 $894 forward 7 unknown #
straight-curve $-1 -39.421014538428082 -9.9788663352423157 9.0526917527851953 0 1 0 I I #
coedge $-1 $626 $617 $620 $800 forward $612 $-1 #
straight-curve $-1 -39.421014538428082 -9.9788663352423157 -9.0526917527851953 0 -1 0 I I #
coedge $-1 $620 $619 $892 $895 forward $621 $-1 #
edge $-1 $622 39.421014538428082 $896 51.076998199407939 $620 $897 forward 7 unknown #
point $-1 -39.421014538428082 -21.457732670484631 -9.0526917527851953 #
point $-1 -39.421014538428082 -21.457732670484631 9.0526917527851953 #
straight-curve $-1 -51.076998199407939 -18.457732670484631 0 0 0 -1 I I #
edge $-1 $896 -21.457732670484631 $627 -18.457732670484631 $793 $898 forward 7 unknown #
point $-1 -51.076998199407939 -18.457732670484631 -9.0526917527851953 #
edge $-1 $630 18.457732670484631 $893 21.457732670484631 $794 $899 forward 7 unknown #
point $-1 -51.076998199407939 -18.457732670484631 9.0526917527851953 #
coedge $-1 $809 $636 $815 $900 reversed $456 $-1 #
coedge $-1 $636 $808 $639 $813 reversed $456 $-1 #
edge $-1 $811 -22.784272534231764 $644 -10.489211474160872 $643 $901 forward 7 unknown #
vertex $-1 $638 $902 #
straight-curve $-1 -39.421014538428082 -22.546947389973642 4.0660435704317273 0 -0.54463902268945019 -0.83867057594974714 I I #
edge $-1 $640 9.329713964700197 $817 11.478866335242316 $639 $903 forward 7 unknown #
point $-1 -39.421014538428082 -19.308580299942513 9.0526917527851953 #
coedge $-1 $643 $642 $808 $900 forward $634 $-1 #
point $-1 -27.125953478357189 -21.457732670484631 5.7432872090089395 #
vertex $-1 $647 $904 #
straight-curve $-1 0 -21.457732670484631 9.0526917527851953 1 0 0 I I #
vertex $-1 $650 $905 #
point $-1 -36.712002326413902 -19.544485909263837 6.8533504582076379 #
vertex $-1 $654 $906 #
point $-1 -33.023484008392629 -19.544485909263837 6.8533504582076379 #
vertex $-1 $658 $907 #
point $-1 -29.334965690371362 -19.544485909263837 6.8533504582076379 #
coedge $-1 $673 $672 $665 $826 forward $662 $-1 #
edge $-1 $827 32.107909162439327 $830 34.257061532981453 $825 $908 forward 7 unknown #
vertex $-1 $826 $909 #
straight-curve $-1 -4.501450293898186 -21.457732670484631 30.690169985740837 0 0 1 I I #
edge $-1 $830 -0.82304011806863109 $674 11.472020942002263 $673 $910 forward 7 unknown #
vertex $-1 $829 $911 #
straight-curve $-1 -4.501450293898186 -21.457732670484603 5.743287209008983 0 -0.54463902268945019 -0.83867057594974714 I I #
point $-1 -4.501450293898186 -21.457732670484631 5.7432872090089395 #
point $-1 -16.79651135396908 -19.308580299942509 9.0526917527851953 #
straight-curve $-1 0 -21.457732670484631 9.0526917527851953 1 0 0 I I #
vertex $-1 $680 $912 #
point $-1 -14.0874991419549 -19.544485909263837 6.8533504582076379 #
vertex $-1 $684 $913 #
point $-1 -10.398980823933627 -19.544485909263837 6.8533504582076379 #
vertex $-1 $688 $914 #
point $-1 -6.7104625059123606 -19.544485909263837 6.8533504582076379 #
coedge $-1 $703 $702 $695 $842 forward $692 $-1 #
edge $-1 $843 32.107909162439327 $846 34.257061532981453 $841 $915 forward 7 unknown #
vertex $-1 $842 $916 #
straight-curve $-1 18.123052890560814 -21.457732670484631 30.690169985740837 0 0 1 I I #
edge $-1 $846 -12.13529171029813 $704 0.15976934977276436 $703 $917 forward 7 unknown #
vertex $-1 $845 $918 #
straight-curve $-1 18.123052890560814 -21.457732670484603 5.743287209008983 0 -0.54463902268945019 -0.83867057594974714 I I #
point $-1 18.123052890560814 -21.457732670484631 5.7432872090089395 #
point $-1 5.8279918304899194 -19.308580299942509 9.0526917527851953 #
straight-curve $-1 0 -21.457732670484631 9.0526917527851953 1 0 0 I I #
vertex $-1 $710 $919 #
point $-1 8.5370040425041012 -19.544485909263837 6.8533504582076379 #
vertex $-1 $714 $920 #
point $-1 12.225522360525375 -19.544485909263837 6.8533504582076379 #
vertex $-1 $718 $921 #
point $-1 15.914040678546641 -19.544485909263837 6.8533504582076379 #
coedge $-1 $733 $732 $725 $858 forward $722 $-1 #
edge $-1 $859 32.107909162439327 $862 34.257061532981453 $857 $922 forward 7 unknown #
vertex $-1 $858 $923 #
straight-curve $-1 40.747556075019808 -21.457732670484631 30.690169985740837 0 0 1 I I #
edge $-1 $862 -23.447543302527627 $734 -11.152482242456735 $733 $924 forward 7 unknown #
vertex $-1 $861 $925 #
straight-curve $-1 40.747556075019808 -21.457732670484603 5.743287209008983 0 -0.54463902268945019 -0.83867057594974714 I I #
point $-1 40.747556075019808 -21.457732670484631 5.7432872090089395 #
point $-1 28.452495014948916 -19.308580299942509 9.0526917527851953 #
straight-curve $-1 0 -21.457732670484631 9.0526917527851953 1 0 0 I I #
vertex $-1 $740 $926 #
point $-1 31.161507226963096 -19.544485909263837 6.8533504582076379 #
vertex $-1 $744 $927 #
point $-1 34.850025544984376 -19.544485909263837 6.8533504582076379 #
vertex $-1 $748 $928 #
point $-1 38.538543863005643 -19.544485909263837 6.8533504582076379 #
coedge $-1 $874 $754 $880 $929 reversed $563 $-1 #
coedge $-1 $754 $873 $757 $878 reversed $563 $-1 #
edge $-1 $876 -29.290008641380687 $762 -14.283970474673801 $761 $930 forward 7 unknown #
vertex $-1 $756 $931 #
straight-curve $-1 51.076998199407939 -3.1201656984158803 19.103297324001339 0 0.82903756765294845 -0.55919291073839883 I I #
edge $-1 $758 11.780469549619713 $882 21.457732670484631 $874 $932 forward 7 unknown #
point $-1 51.076998199407932 11.780469549619713 9.0526917527851936 #
coedge $-1 $761 $760 $873 $929 forward $752 $-1 #
point $-1 36.070960032701045 21.457732670484631 2.5252952346057462 #
vertex $-1 $878 $933 #
straight-curve $-1 0 21.457732670484631 9.0526917527851953 -1 0 0 I I #
vertex $-1 $768 $934 #
point $-1 41.85839950890302 13.65130167925135 1.3890499784173398 #
vertex $-1 $772 $935 #
point $-1 48.289558723205971 13.65130167925135 1.3890499784173398 #
straight-curve $-1 -51.076998199407939 21.457732670484631 0 0 0 -1 I I #
point $-1 -51.076998199407939 -21.457732670484631 -9.0526917527851953 #
straight-curve $-1 -51.076998199407939 0 -9.0526917527851953 0 1 0 I I #
point $-1 -51.076998199407939 21.457732670484631 -9.0526917527851953 #
coedge $-1 $794 $793 $799 $895 reversed $440 $-1 #
vertex $-1 $806 $936 #
straight-curve $-1 0 -21.457732670484631 9.0526917527851953 1 0 0 I I #
edge $-1 $893 -9.0526917527851953 $896 9.0526917527851953 $892 $937 forward 7 unknown #
vertex $-1 $804 $938 #
straight-curve $-1 0 -21.457732670484631 -9.0526917527851953 -1 0 0 I I #
straight-curve $-1 -51.076998199407939 0 -9.0526917527851953 0 1 0 I I #
straight-curve $-1 -51.076998199407939 0 9.0526917527851953 0 -1 0 I I #
edge $-1 $817 -9.0526917527851953 $811 -5.7432872090089386 $815 $939 forward 7 unknown #
straight-curve $-1 -16.636742004196318 -21.457732670484631 5.7432872090089369 1 0 0 I I #
point $-1 -39.421014538428082 -21.457732670484631 5.7432872090089386 #
straight-curve $-1 -39.421014538428082 -9.9788663352423157 9.0526917527851953 0 -1 0 I I #
point $-1 -39.421014538428082 -21.457732670484631 9.0526917527851953 #
point $-1 -36.962002326413902 -19.3348182652764 6.7171907025352748 #
point $-1 -33.273484008392629 -19.3348182652764 6.7171907025352748 #
point $-1 -29.584965690371362 -19.3348182652764 6.7171907025352748 #
straight-curve $-1 -4.501450293898186 -53.565641832923959 9.0526917527851936 0 1 0 I I #
point $-1 -4.501450293898186 -21.457732670484631 9.0526917527851953 #
straight-curve $-1 -5.324490411966817 -19.308580299942509 9.0526917527851953 -1 0 0 I I #
point $-1 -4.501450293898186 -19.308580299942509 9.0526917527851953 #
point $-1 -14.3374991419549 -19.3348182652764 6.7171907025352748 #
point $-1 -10.648980823933627 -19.3348182652764 6.7171907025352748 #
point $-1 -6.9604625059123606 -19.3348182652764 6.7171907025352748 #
straight-curve $-1 18.123052890560814 -53.565641832923959 9.0526917527851936 0 1 0 I I #
point $-1 18.123052890560814 -21.457732670484631 9.0526917527851953 #
straight-curve $-1 5.9877611802626838 -19.308580299942509 9.0526917527851953 -1 0 0 I I #
point $-1 18.123052890560814 -19.308580299942509 9.0526917527851953 #
point $-1 8.2870040425041012 -19.3348182652764 6.7171907025352748 #
point $-1 11.975522360525375 -19.3348182652764 6.7171907025352748 #
point $-1 15.664040678546641 -19.3348182652764 6.7171907025352748 #
straight-curve $-1 40.747556075019808 -53.565641832923959 9.0526917527851936 0 1 0 I I #
point $-1 40.747556075019808 -21.457732670484631 9.0526917527851953 #
straight-curve $-1 17.300012772492181 -19.308580299942509 9.0526917527851953 -1 0 0 I I #
point $-1 40.747556075019808 -19.308580299942509 9.0526917527851953 #
point $-1 30.911507226963096 -19.3348182652764 6.7171907025352748 #
point $-1 34.600025544984376 -19.3348182652764 6.7171907025352748 #
point $-1 38.288543863005643 -19.3348182652764 6.7171907025352748 #
edge $-1 $882 -9.0526917527851953 $876 -2.5252952346057462 $873 $940 forward 7 unknown #
straight-curve $-1 21.786989558027244 21.457732670484631 2.5252952346057427 -1 0 0 I I #
point $-1 51.076998199407932 21.457732670484631 2.5252952346057462 #
straight-curve $-1 51.076998199407939 0 9.0526917527851953 0 1 0 I I #
point $-1 51.076998199407939 21.457732670484631 9.0526917527851953 #
point $-1 40.35839950890302 12.812512313143753 0.14549362693791701 #
point $-1 46.789558723205971 12.812512313143753 0.14549362693791701 #
point $-1 -51.076998199407939 -21.457732670484631 9.0526917527851953 #
straight-curve $-1 -51.076998199407939 -21.457732670484631 0 0 0 -1 I I #
point $-1 -51.076998199407939 -21.457732670484631 -9.0526917527851953 #
straight-curve $-1 -39.421014538428082 -21.457732670484631 0 0 0 -1 I I #
straight-curve $-1 51.076998199407939 21.457732670484631 0 0 0 -1 I I #
End-of-ACIS-data 