500 0 8 0           
7 Unknown 11 ACIS 5.0 NT 24 Thu Mar 25 22:35:26 1999 
-1 9.9999999999999995e-007 1e-010 
body $-1 $8 $-1 $9 #
body $-1 $10 $-1 $11 #
body $-1 $12 $-1 $13 #
body $-1 $14 $-1 $15 #
body $-1 $16 $-1 $17 #
body $-1 $18 $-1 $19 #
body $-1 $20 $-1 $21 #
body $-1 $22 $-1 $23 #
lump $-1 $-1 $24 $0 #
transform $-1 1 0 0 0 1 0 0 0 1 63.701895199438461 26.230203576750498 11.398255033681295 1 rotate no_reflect no_shear #
lump $-1 $-1 $25 $1 #
transform $-1 1 0 0 0 1 0 0 0 1 63.701895199438461 26.230203576750498 11.398255033681295 1 rotate no_reflect no_shear #
lump $-1 $-1 $26 $2 #
transform $-1 1 0 0 0 1 0 0 0 1 63.701895199438461 26.230203576750498 11.398255033681295 1 rotate no_reflect no_shear #
lump $-1 $-1 $27 $3 #
transform $-1 1 0 0 0 1 0 0 0 1 63.701895199438461 26.230203576750498 11.398255033681295 1 rotate no_reflect no_shear #
lump $-1 $-1 $28 $4 #
transform $-1 1 0 0 0 1 0 0 0 1 63.701895199438461 26.230203576750498 11.398255033681295 1 rotate no_reflect no_shear #
lump $-1 $-1 $29 $5 #
transform $-1 1 0 0 0 1 0 0 0 1 63.701895199438461 26.230203576750498 11.398255033681295 1 rotate no_reflect no_shear #
lump $-1 $-1 $30 $6 #
transform $-1 1 0 0 0 1 0 0 0 1 63.701895199438461 26.230203576750498 11.398255033681295 1 rotate no_reflect no_shear #
lump $-1 $-1 $31 $7 #
transform $-1 1 0 0 0 1 0 0 0 1 63.701895199438461 26.230203576750498 11.398255033681295 1 rotate no_reflect no_shear #
shell $-1 $-1 $-1 $32 $-1 $8 #
shell $-1 $-1 $-1 $33 $-1 $10 #
shell $-1 $-1 $-1 $34 $-1 $12 #
shell $-1 $-1 $-1 $35 $-1 $14 #
shell $-1 $-1 $-1 $36 $-1 $16 #
shell $-1 $-1 $-1 $37 $-1 $18 #
shell $-1 $-1 $-1 $38 $-1 $20 #
shell $-1 $-1 $-1 $39 $-1 $22 #
face $-1 $40 $41 $24 $-1 $42 forward single #
face $-1 $43 $44 $25 $-1 $45 forward single #
face $-1 $46 $47 $26 $-1 $48 reversed single #
face $-1 $49 $50 $27 $-1 $51 forward single #
face $-1 $52 $53 $28 $-1 $54 forward single #
face $-1 $55 $56 $29 $-1 $57 reversed single #
face $-1 $58 $59 $30 $-1 $60 forward single #
face $-1 $61 $62 $31 $-1 $63 forward single #
face $-1 $64 $65 $24 $-1 $66 reversed single #
loop $-1 $-1 $67 $32 #
plane-surface $-1 0 0 11.398255033681295 0 0 1 1 0 0 forward_v I I I I #
face $-1 $68 $69 $25 $-1 $70 reversed single #
loop $-1 $-1 $71 $33 #
plane-surface $-1 -57.570683130304758 0 -8.3982550336812949 0 0 1 1 0 0 forward_v I I I I #
face $-1 $72 $73 $26 $-1 $74 reversed single #
loop $-1 $-1 $75 $34 #
plane-surface $-1 -51.439471061171062 79.223179550267687 128.33962881004203 1 0 0 0 -0.70710678939079041 -0.70710677298230451 forward_v I I I I #
face $-1 $76 $77 $27 $-1 $78 forward single #
loop $-1 $79 $80 $35 #
cone-surface $-1 -43.86511698995902 18.232242056328847 3.4002934611906914 0 -0.70710678939079041 -0.70710677298230451 2.5 0 0 1 I I 0 1 2.5 forward I I I I #
face $-1 $81 $82 $28 $-1 $83 forward single #
loop $-1 $84 $85 $36 #
cone-surface $-1 -32.503585883140971 18.232242056328847 3.4002934611906914 0 -0.70710678939079041 -0.70710677298230451 2.5 0 0 1 I I 0 1 2.5 forward I I I I #
face $-1 $86 $87 $29 $-1 $88 reversed single #
loop $-1 $-1 $89 $37 #
plane-surface $-1 57.32285899712523 -26.230203576750498 4.3045958827685524 0 -0.79863551827123203 0.60181501223851219 1 0 0 forward_v I I I I #
face $-1 $90 $91 $30 $-1 $92 forward single #
loop $-1 $93 $94 $38 #
cone-surface $-1 54.588986338990985 -22.068275441002427 6.7292324821278457 0 0.79863551827123203 -0.60181501223851219 1 0 0 1 I I 0 1 1 forward I I I I #
face $-1 $95 $96 $31 $-1 $97 forward single #
loop $-1 $98 $99 $39 #
cone-surface $-1 60.056731655259462 -22.068275441002427 6.7292324821278457 0 0.79863551827123203 -0.60181501223851219 1 0 0 1 I I 0 1 1 forward I I I I #
face $-1 $100 $101 $24 $-1 $102 reversed single #
loop $-1 $-1 $103 $40 #
plane-surface $-1 0 0 -11.398255033681295 0 0 1 1 0 0 forward_v I I I I #
coedge $-1 $104 $105 $106 $107 forward $41 $-1 #
face $-1 $108 $109 $25 $-1 $110 reversed single #
loop $-1 $-1 $111 $43 #
plane-surface $-1 -51.439471061171055 0 -9.8982550336812949 -1 0 0 0 0 1 forward_v I I I I #
coedge $-1 $112 $113 $114 $115 forward $44 $-1 #
face $-1 $116 $117 $26 $-1 $118 reversed single #
loop $-1 $-1 $119 $46 #
plane-surface $-1 -38.184351436550003 -10.864905634899387 38.251545715378256 0 0.70710678939079041 0.70710677298230451 1 0 0 forward_v I I I I #
coedge $-1 $120 $121 $122 $123 reversed $47 $-1 #
face $-1 $-1 $124 $27 $-1 $125 forward single #
loop $-1 $126 $127 $49 #
cone-surface $-1 -43.86511698995902 14.471306625711854 -0.36064188215340565 0 -0.70710678939079041 -0.70710677298230451 1.25 0 0 1 I I -0.70710678118654746 0.70710678118654746 1.25 forward I I I I #
loop $-1 $-1 $128 $35 #
coedge $-1 $80 $80 $129 $130 reversed $50 $-1 #
face $-1 $-1 $131 $28 $-1 $132 forward single #
loop $-1 $133 $134 $52 #
cone-surface $-1 -32.503585883140971 14.471306625711854 -0.36064188215340565 0 -0.70710678939079041 -0.70710677298230451 1.25 0 0 1 I I -0.70710678118654746 0.70710678118654746 1.25 forward I I I I #
loop $-1 $-1 $135 $36 #
coedge $-1 $85 $85 $136 $137 reversed $53 $-1 #
face $-1 $138 $139 $29 $-1 $140 reversed single #
loop $-1 $-1 $141 $55 #
plane-surface $-1 50.943822794812007 -127.97939575167699 80.978109560901515 1 0 0 0 0.79863551827123203 -0.60181501223851219 forward_v I I I I #
coedge $-1 $142 $143 $144 $145 reversed $56 $-1 #
face $-1 $-1 $146 $30 $-1 $147 forward single #
loop $-1 $148 $149 $58 #
cone-surface $-1 54.588986338990985 -20.179757261737649 5.3061319999115071 0 0.79863551827123203 -0.60181501223851219 0.5 0 0 1 I I -0.70710678118654746 0.70710678118654746 0.5 forward I I I I #
loop $-1 $-1 $150 $38 #
coedge $-1 $94 $94 $151 $152 reversed $59 $-1 #
face $-1 $-1 $153 $31 $-1 $154 forward single #
loop $-1 $155 $156 $61 #
cone-surface $-1 60.056731655259462 -20.179757261737649 5.3061319999115071 0 0.79863551827123203 -0.60181501223851219 0.5 0 0 1 I I -0.70710678118654746 0.70710678118654746 0.5 forward I I I I #
loop $-1 $-1 $157 $39 #
coedge $-1 $99 $99 $158 $159 reversed $62 $-1 #
face $-1 $160 $161 $24 $-1 $162 reversed single #
loop $-1 $-1 $163 $64 #
plane-surface $-1 0 -26.230203576750498 0 0 1 0 0 0 1 forward_v I I I I #
coedge $-1 $164 $165 $166 $167 forward $65 $-1 #
coedge $-1 $168 $67 $169 $170 forward $41 $-1 #
coedge $-1 $67 $168 $171 $172 forward $41 $-1 #
coedge $-1 $173 $174 $67 $107 reversed $175 $-1 #
edge $-1 $176 -26.230203576750498 $177 26.230203576750498 $106 $178 forward 7 unknown #
face $-1 $179 $180 $25 $-1 $181 reversed single #
loop $-1 $-1 $182 $68 #
plane-surface $-1 0 0 -11.398255033681295 0 0 1 1 0 0 forward_v I I I I #
coedge $-1 $183 $114 $184 $185 reversed $69 $-1 #
coedge $-1 $186 $71 $187 $188 reversed $44 $-1 #
coedge $-1 $71 $186 $189 $190 reversed $44 $-1 #
coedge $-1 $111 $191 $71 $115 reversed $69 $-1 #
edge $-1 $192 -26.230203576750498 $193 26.230203576750498 $114 $194 forward 7 unknown #
face $-1 $195 $196 $26 $-1 $197 reversed single #
loop $-1 $-1 $198 $72 #
plane-surface $-1 -24.929231811928947 79.223179550267687 128.33962881004203 -1 0 0 0 0.70710678939079041 0.70710677298230451 forward_v I I I I #
coedge $-1 $199 $200 $201 $202 reversed $73 $-1 #
coedge $-1 $121 $75 $203 $204 reversed $47 $-1 #
coedge $-1 $75 $120 $199 $205 reversed $47 $-1 #
coedge $-1 $201 $206 $75 $123 forward $207 $-1 #
edge $-1 $208 13.381386198383346 $209 23.623205351469643 $122 $210 forward 7 unknown #
loop $-1 $-1 $129 $76 #
plane-surface $-1 -38.184351436550003 -10.864905634899387 38.251545715378256 0 0.70710678939079041 0.70710677298230451 1 0 0 forward_v I I I I #
loop $-1 $-1 $211 $49 #
coedge $-1 $127 $127 $128 $212 reversed $77 $-1 #
coedge $-1 $128 $128 $127 $212 forward $79 $-1 #
coedge $-1 $129 $129 $80 $130 forward $124 $-1 #
edge $-1 $213 2.5121477298627568e-016 $213 6.2831853071796004 $129 $214 forward 7 unknown #
loop $-1 $-1 $136 $81 #
plane-surface $-1 -38.184351436550003 -10.864905634899387 38.251545715378256 0 0.70710678939079041 0.70710677298230451 1 0 0 forward_v I I I I #
loop $-1 $-1 $215 $52 #
coedge $-1 $134 $134 $135 $216 reversed $82 $-1 #
coedge $-1 $135 $135 $134 $216 forward $84 $-1 #
coedge $-1 $136 $136 $85 $137 forward $131 $-1 #
edge $-1 $217 2.5121477298627568e-016 $217 6.2831853071796004 $136 $218 forward 7 unknown #
face $-1 $219 $220 $29 $-1 $221 forward single #
loop $-1 $-1 $222 $86 #
plane-surface $-1 63.701895199438461 0 0 -1 0 0 0 0 1 forward_v I I I I #
coedge $-1 $223 $224 $225 $226 reversed $87 $-1 #
coedge $-1 $227 $89 $222 $228 reversed $56 $-1 #
coedge $-1 $89 $227 $223 $229 forward $56 $-1 #
coedge $-1 $225 $230 $89 $145 forward $220 $-1 #
edge $-1 $231 -35.040465700875842 $232 -22.282393296249392 $144 $233 forward 7 unknown #
loop $-1 $-1 $151 $90 #
plane-surface $-1 57.32285899712523 -26.230203576750498 4.3045958827685524 0 -0.79863551827123203 0.60181501223851219 1 0 0 forward_v I I I I #
loop $-1 $-1 $234 $58 #
coedge $-1 $149 $149 $150 $235 reversed $91 $-1 #
coedge $-1 $150 $150 $149 $235 forward $93 $-1 #
coedge $-1 $151 $151 $94 $152 forward $146 $-1 #
edge $-1 $236 -2.1481603545709067e-015 $236 6.2831853071795987 $151 $237 forward 7 unknown #
loop $-1 $-1 $158 $95 #
plane-surface $-1 57.32285899712523 -26.230203576750498 4.3045958827685524 0 -0.79863551827123203 0.60181501223851219 1 0 0 forward_v I I I I #
loop $-1 $-1 $238 $61 #
coedge $-1 $156 $156 $157 $239 reversed $96 $-1 #
coedge $-1 $157 $157 $156 $239 forward $98 $-1 #
coedge $-1 $158 $158 $99 $159 forward $153 $-1 #
edge $-1 $240 -2.1481603545709067e-015 $240 6.2831853071795987 $158 $241 forward 7 unknown #
face $-1 $242 $243 $24 $-1 $244 reversed single #
loop $-1 $-1 $245 $100 #
plane-surface $-1 -63.701895199438461 0 0 1 0 0 0 0 -1 forward_v I I I I #
coedge $-1 $246 $171 $247 $248 forward $101 $-1 #
coedge $-1 $249 $103 $246 $250 forward $65 $-1 #
coedge $-1 $103 $249 $251 $252 forward $65 $-1 #
coedge $-1 $174 $173 $103 $167 reversed $175 $-1 #
edge $-1 $253 -26.230203576750498 $254 26.230203576750498 $166 $255 forward 7 unknown #
coedge $-1 $105 $104 $256 $257 forward $41 $-1 #
coedge $-1 $258 $259 $104 $170 reversed $243 $-1 #
edge $-1 $177 -63.701895199438461 $260 63.701895199438461 $169 $261 forward 7 unknown #
coedge $-1 $163 $262 $105 $172 reversed $101 $-1 #
edge $-1 $263 -63.701895199438461 $176 63.701895199438461 $171 $264 forward 7 unknown #
coedge $-1 $166 $106 $262 $265 forward $175 $-1 #
coedge $-1 $106 $166 $258 $266 reversed $175 $-1 #
loop $-1 $-1 $173 $242 #
vertex $-1 $107 $267 #
vertex $-1 $107 $268 #
straight-curve $-1 63.701895199438461 0 11.398255033681295 0 1 0 I I #
face $-1 $269 $270 $25 $-1 $271 reversed single #
loop $-1 $-1 $184 $108 #
plane-surface $-1 0 -26.230203576750498 0 0 1 0 0 0 1 forward_v I I I I #
coedge $-1 $272 $273 $183 $274 forward $109 $-1 #
coedge $-1 $191 $111 $182 $274 reversed $69 $-1 #
coedge $-1 $189 $275 $111 $185 forward $180 $-1 #
edge $-1 $276 -6.4491275168406474 $192 -3.4491275168406474 $184 $277 forward 7 unknown #
coedge $-1 $113 $112 $278 $279 reversed $44 $-1 #
coedge $-1 $280 $281 $112 $188 forward $282 $-1 #
edge $-1 $283 -34.916553634286082 $193 -22.654129496018676 $187 $284 forward 7 unknown #
coedge $-1 $285 $184 $113 $190 forward $180 $-1 #
edge $-1 $192 22.654129496018676 $286 34.916553634286082 $189 $287 forward 7 unknown #
coedge $-1 $114 $183 $280 $288 reversed $69 $-1 #
vertex $-1 $190 $289 #
vertex $-1 $188 $290 #
straight-curve $-1 -51.439471061171055 0 -8.3982550336812949 0 1 0 I I #
face $-1 $-1 $207 $26 $-1 $291 forward single #
loop $-1 $-1 $292 $116 #
plane-surface $-1 0 26.230203576750498 0 0 -1 0 0 0 -1 forward_v I I I I #
coedge $-1 $293 $294 $295 $296 reversed $117 $-1 #
coedge $-1 $297 $119 $121 $205 forward $73 $-1 #
coedge $-1 $119 $297 $293 $298 forward $73 $-1 #
coedge $-1 $295 $122 $119 $202 forward $207 $-1 #
edge $-1 $209 -32.347295342896061 $299 -5.8370560936539455 $201 $300 forward 7 unknown #
coedge $-1 $301 $302 $120 $204 forward $196 $-1 #
edge $-1 $303 -63.013378762088493 $208 -52.77155937133972 $203 $304 forward 7 unknown #
edge $-1 $209 37.976287435781082 $303 52.460407153500995 $121 $305 forward 7 unknown #
coedge $-1 $122 $295 $301 $306 forward $207 $-1 #
loop $-1 $-1 $295 $195 #
vertex $-1 $204 $307 #
vertex $-1 $123 $308 #
straight-curve $-1 -51.439471061171062 39.611589775133844 11.398255033681295 0 -1 0 I I #
coedge $-1 $211 $211 $-1 $309 reversed $126 $-1 #
edge $-1 $310 0 $310 6.2831853071796004 $127 $311 forward 7 unknown #
vertex $-1 $130 $312 #
ellipse-curve $-1 -43.86511698995902 21.109294000207345 6.2773453383069047 0 0.70710678939079041 0.70710677298230451 2.5 0 0 1 I I #
coedge $-1 $215 $215 $-1 $313 reversed $133 $-1 #
edge $-1 $314 0 $314 6.2831853071796004 $134 $315 forward 7 unknown #
vertex $-1 $137 $316 #
ellipse-curve $-1 -32.503585883140971 21.109294000207345 6.2773453383069047 0 0.70710678939079041 0.70710677298230451 2.5 0 0 1 I I #
face $-1 $-1 $317 $29 $-1 $318 reversed single #
loop $-1 $-1 $144 $138 #
plane-surface $-1 0 0 11.398255033681295 0 0 1 1 0 0 forward_v I I I I #
coedge $-1 $319 $320 $142 $228 forward $139 $-1 #
coedge $-1 $224 $141 $143 $229 reversed $87 $-1 #
coedge $-1 $141 $223 $321 $322 reversed $87 $-1 #
coedge $-1 $323 $144 $141 $226 forward $220 $-1 #
edge $-1 $232 -43.104949730325814 $324 -37.759494299087997 $225 $325 forward 7 unknown #
coedge $-1 $143 $142 $326 $327 reversed $56 $-1 #
edge $-1 $328 -6.1739635613888471 $231 2.7082599168106265 $222 $329 forward 7 unknown #
edge $-1 $330 0 $232 8.8822234781994744 $223 $331 forward 7 unknown #
coedge $-1 $144 $323 $319 $332 forward $220 $-1 #
vertex $-1 $145 $333 #
vertex $-1 $145 $334 #
straight-curve $-1 28.661429498562615 -20.884748145512681 11.398255033681295 -1 0 0 I I #
coedge $-1 $234 $234 $-1 $335 reversed $148 $-1 #
edge $-1 $336 0 $336 6.2831853071796004 $149 $337 forward 7 unknown #
vertex $-1 $152 $338 #
ellipse-curve $-1 54.588986338990985 -23.557475861131586 7.8514254582249254 0 -0.79863551827123203 0.60181501223851219 1 0 0 1 I I #
coedge $-1 $238 $238 $-1 $339 reversed $155 $-1 #
edge $-1 $340 0 $340 6.2831853071796004 $156 $341 forward 7 unknown #
vertex $-1 $159 $342 #
ellipse-curve $-1 60.056731655259462 -23.557475861131586 7.8514254582249254 0 -0.79863551827123203 0.60181501223851219 1 0 0 1 I I #
face $-1 $-1 $175 $24 $-1 $343 reversed single #
loop $-1 $-1 $258 $160 #
plane-surface $-1 0 26.230203576750498 0 0 -1 0 0 0 -1 forward_v I I I I #
coedge $-1 $344 $256 $259 $345 forward $161 $-1 #
coedge $-1 $262 $163 $164 $250 reversed $101 $-1 #
coedge $-1 $256 $344 $163 $248 reversed $161 $-1 #
edge $-1 $263 -11.398255033681295 $346 11.398255033681295 $247 $347 forward 7 unknown #
coedge $-1 $165 $164 $344 $348 forward $65 $-1 #
edge $-1 $254 -63.701895199438461 $346 63.701895199438461 $246 $349 forward 7 unknown #
coedge $-1 $259 $258 $165 $252 reversed $243 $-1 #
edge $-1 $350 -63.701895199438461 $253 63.701895199438461 $251 $351 forward 7 unknown #
vertex $-1 $167 $352 #
vertex $-1 $265 $353 #
straight-curve $-1 63.701895199438461 0 -11.398255033681295 0 -1 0 I I #
coedge $-1 $245 $247 $168 $257 reversed $161 $-1 #
edge $-1 $260 -26.230203576750498 $263 26.230203576750498 $256 $354 forward 7 unknown #
coedge $-1 $251 $169 $174 $266 forward $243 $-1 #
coedge $-1 $169 $251 $245 $345 reversed $243 $-1 #
vertex $-1 $170 $355 #
straight-curve $-1 0 26.230203576750498 11.398255033681295 -1 0 0 I I #
coedge $-1 $171 $246 $173 $265 reversed $101 $-1 #
vertex $-1 $257 $356 #
straight-curve $-1 0 -26.230203576750498 11.398255033681295 1 0 0 I I #
edge $-1 $176 -11.398255033681295 $254 11.398255033681295 $173 $357 forward 7 unknown #
edge $-1 $177 -11.398255033681295 $253 11.398255033681295 $174 $358 forward 7 unknown #
point $-1 63.701895199438461 -26.230203576750498 11.398255033681295 #
point $-1 63.701895199438461 26.230203576750498 11.398255033681295 #
face $-1 $-1 $282 $25 $-1 $359 reversed single #
loop $-1 $-1 $278 $179 #
plane-surface $-1 -63.701895199438461 0 0 1 0 0 0 0 -1 forward_v I I I I #
coedge $-1 $360 $182 $275 $361 forward $109 $-1 #
coedge $-1 $182 $360 $362 $363 forward $109 $-1 #
edge $-1 $364 -26.230203576750498 $276 26.230203576750498 $182 $365 forward 7 unknown #
coedge $-1 $184 $285 $272 $361 reversed $180 $-1 #
vertex $-1 $361 $366 #
straight-curve $-1 -51.439471061171055 -26.230203576750498 -4.9491275168406474 0 0 1 I I #
coedge $-1 $367 $368 $186 $279 forward $270 $-1 #
edge $-1 $286 -26.230203576750498 $283 26.230203576750498 $278 $369 forward 7 unknown #
coedge $-1 $362 $187 $191 $288 forward $282 $-1 #
coedge $-1 $187 $362 $367 $370 reversed $282 $-1 #
loop $-1 $-1 $280 $269 #
vertex $-1 $370 $371 #
straight-curve $-1 -28.785341565152379 26.230203576750498 -8.3982550336812949 1 0 0 I I #
coedge $-1 $275 $189 $368 $372 forward $180 $-1 #
vertex $-1 $372 $373 #
straight-curve $-1 -28.785341565152379 -26.230203576750498 -8.3982550336812949 -1 0 0 I I #
edge $-1 $193 3.4491275168406474 $364 6.4491275168406474 $280 $374 forward 7 unknown #
point $-1 -51.439471061171055 -26.230203576750498 -8.3982550336812949 #
point $-1 -51.439471061171055 26.230203576750498 -8.3982550336812949 #
plane-surface $-1 0 0 11.398255033681295 0 0 1 1 0 0 forward_v I I I I #
coedge $-1 $302 $301 $294 $375 forward $196 $-1 #
coedge $-1 $294 $198 $200 $298 reversed $117 $-1 #
coedge $-1 $198 $293 $292 $375 reversed $117 $-1 #
coedge $-1 $206 $201 $198 $296 forward $207 $-1 #
edge $-1 $299 -23.623205351469643 $376 -13.381386198383346 $295 $377 forward 7 unknown #
coedge $-1 $200 $199 $302 $378 reversed $73 $-1 #
edge $-1 $379 -52.460407153500995 $299 -37.976287435781082 $293 $380 forward 7 unknown #
vertex $-1 $202 $381 #
straight-curve $-1 -19.092175718275001 15.988384423664204 11.398255033681291 1 0 0 I I #
coedge $-1 $292 $203 $206 $306 reversed $196 $-1 #
coedge $-1 $203 $292 $297 $378 forward $196 $-1 #
vertex $-1 $204 $382 #
straight-curve $-1 -51.439471061171062 26.230203576750498 64.169814405021015 0 0 1 I I #
straight-curve $-1 -51.439471061171062 -10.864905634899387 38.251545715378256 0 0.70710677298230451 -0.70710678939079041 I I #
edge $-1 $376 24.929231811928947 $208 51.439471061171062 $301 $383 forward 7 unknown #
point $-1 -51.439471061171062 26.230203576750498 11.398255033681295 #
point $-1 -51.439471061171062 15.988384423664201 11.398255033681295 #
edge $-1 $384 1 $384 0 $211 $-1 forward 7 unknown #
vertex $-1 $212 $385 #
ellipse-curve $-1 -43.86511698995902 15.355190112450343 0.52324158407447496 0 0.70710678939079041 0.70710677298230451 2.5 0 0 1 I I #
point $-1 -41.36511698995902 21.109294000207349 6.2773453383069073 #
edge $-1 $386 1 $386 0 $215 $-1 forward 7 unknown #
vertex $-1 $216 $387 #
ellipse-curve $-1 -32.503585883140971 15.355190112450343 0.52324158407447496 0 0.70710678939079041 0.70710677298230451 2.5 0 0 1 I I #
point $-1 -30.003585883140971 21.109294000207349 6.2773453383069073 #
loop $-1 $-1 $326 $219 #
plane-surface $-1 0 -26.230203576750498 0 0 1 0 0 0 1 forward_v I I I I #
coedge $-1 $320 $222 $230 $332 reversed $139 $-1 #
coedge $-1 $222 $319 $388 $389 forward $139 $-1 #
coedge $-1 $326 $390 $224 $322 forward $317 $-1 #
edge $-1 $324 29.090799746769463 $330 36.184458897682205 $321 $391 forward 7 unknown #
coedge $-1 $230 $225 $390 $392 forward $220 $-1 #
vertex $-1 $392 $393 #
straight-curve $-1 50.943822794812007 -63.989697875838495 11.398255033681295 0 -1 0 I I #
coedge $-1 $388 $321 $227 $327 forward $317 $-1 #
edge $-1 $330 22.282393296249392 $328 35.040465700875842 $326 $394 forward 7 unknown #
vertex $-1 $327 $395 #
straight-curve $-1 63.701895199438461 -22.514619620493139 9.2353424714060353 0 0.60181501223851219 0.79863551827123203 I I #
vertex $-1 $327 $396 #
straight-curve $-1 50.943822794812007 -26.230203576750498 4.3045958827685524 0 0.60181501223851219 0.79863551827123203 I I #
edge $-1 $397 -26.230203576750498 $231 -20.884748145512681 $319 $398 forward 7 unknown #
point $-1 63.701895199438454 -20.884748145512681 11.398255033681295 #
point $-1 50.943822794812007 -20.884748145512681 11.398255033681295 #
edge $-1 $399 1 $399 0 $234 $-1 forward 7 unknown #
vertex $-1 $235 $400 #
ellipse-curve $-1 54.588986338990985 -20.579075020873265 5.6070395060307634 0 -0.79863551827123203 0.60181501223851219 1 0 0 1 I I #
point $-1 55.588986338990985 -23.557475861131593 7.8514254582249281 #
edge $-1 $401 1 $401 0 $238 $-1 forward 7 unknown #
vertex $-1 $239 $402 #
ellipse-curve $-1 60.056731655259462 -20.579075020873265 5.6070395060307634 0 -0.79863551827123203 0.60181501223851219 1 0 0 1 I I #
point $-1 61.056731655259462 -23.557475861131593 7.8514254582249281 #
plane-surface $-1 63.701895199438461 0 0 -1 0 0 0 0 1 forward_v I I I I #
coedge $-1 $247 $245 $249 $348 reversed $161 $-1 #
edge $-1 $260 -11.398255033681295 $350 11.398255033681295 $259 $403 forward 7 unknown #
vertex $-1 $348 $404 #
straight-curve $-1 -63.701895199438461 -26.230203576750498 0 0 0 -1 I I #
edge $-1 $346 -26.230203576750498 $350 26.230203576750498 $344 $405 forward 7 unknown #
straight-curve $-1 0 -26.230203576750498 -11.398255033681295 -1 0 0 I I #
vertex $-1 $252 $406 #
straight-curve $-1 0 26.230203576750498 -11.398255033681295 1 0 0 I I #
point $-1 63.701895199438461 26.230203576750498 -11.398255033681295 #
point $-1 63.701895199438461 -26.230203576750498 -11.398255033681295 #
straight-curve $-1 -63.701895199438461 0 11.398255033681295 0 -1 0 I I #
point $-1 -63.701895199438461 26.230203576750498 11.398255033681295 #
point $-1 -63.701895199438461 -26.230203576750498 11.398255033681295 #
straight-curve $-1 63.701895199438461 -26.230203576750498 0 0 0 -1 I I #
straight-curve $-1 63.701895199438461 26.230203576750498 0 0 0 -1 I I #
plane-surface $-1 0 26.230203576750498 0 0 -1 0 0 0 -1 forward_v I I I I #
coedge $-1 $273 $272 $407 $408 forward $109 $-1 #
edge $-1 $276 51.439471061171055 $409 63.701895199438461 $275 $410 forward 7 unknown #
coedge $-1 $281 $280 $273 $363 reversed $282 $-1 #
edge $-1 $411 -63.701895199438461 $364 -51.439471061171055 $362 $412 forward 7 unknown #
vertex $-1 $288 $413 #
straight-curve $-1 -51.439471061171055 0 -11.398255033681295 0 -1 0 I I #
point $-1 -51.439471061171055 -26.230203576750498 -11.398255033681295 #
coedge $-1 $407 $278 $281 $370 forward $270 $-1 #
coedge $-1 $278 $407 $285 $372 reversed $270 $-1 #
straight-curve $-1 -63.701895199438461 0 -8.3982550336812949 0 1 0 I I #
edge $-1 $283 8.3982550336812949 $411 11.398255033681295 $281 $414 forward 7 unknown #
point $-1 -63.701895199438461 26.230203576750498 -8.3982550336812949 #
edge $-1 $286 8.3982550336812949 $409 11.398255033681295 $368 $415 forward 7 unknown #
point $-1 -63.701895199438461 -26.230203576750498 -8.3982550336812949 #
straight-curve $-1 -51.439471061171055 26.230203576750498 -4.9491275168406474 0 0 -1 I I #
edge $-1 $376 52.77155937133972 $379 63.013378762088493 $292 $416 forward 7 unknown #
vertex $-1 $306 $417 #
straight-curve $-1 -24.929231811928947 39.611589775133844 11.398255033681295 0 1 0 I I #
edge $-1 $379 5.8370560936539455 $303 32.347295342896061 $302 $418 forward 7 unknown #
vertex $-1 $378 $419 #
straight-curve $-1 -24.929231811928947 -10.864905634899387 38.251545715378256 0 -0.70710677298230451 0.70710678939079041 I I #
point $-1 -24.929231811928947 15.988384423664201 11.398255033681295 #
point $-1 -51.439471061171062 26.230203576750498 1.1564356429325215 #
straight-curve $-1 0 26.230203576750498 11.398255033681295 -1 0 0 I I #
vertex $-1 $309 $420 #
point $-1 -41.36511698995902 15.355190112450343 0.52324158407447496 #
vertex $-1 $313 $421 #
point $-1 -30.003585883140971 15.355190112450343 0.52324158407447496 #
coedge $-1 $390 $326 $320 $389 reversed $317 $-1 #
edge $-1 $397 -11.398255033681295 $328 -4.3045958827685524 $320 $422 forward 7 unknown #
coedge $-1 $321 $388 $323 $392 reversed $317 $-1 #
straight-curve $-1 50.943822794812007 -26.230203576750498 40.489054780450758 0 0 -1 I I #
edge $-1 $324 50.943822794812007 $397 63.701895199438461 $390 $423 forward 7 unknown #
point $-1 50.943822794812007 -26.230203576750498 11.398255033681295 #
straight-curve $-1 28.661429498562615 -26.230203576750498 4.3045958827685533 1 0 0 I I #
point $-1 63.701895199438454 -26.230203576750498 4.3045958827685524 #
point $-1 50.943822794812007 -26.230203576750498 4.3045958827685524 #
vertex $-1 $332 $424 #
straight-curve $-1 63.701895199438461 0 11.398255033681295 0 1 0 I I #
vertex $-1 $335 $425 #
point $-1 55.588986338990985 -20.579075020873265 5.6070395060307634 #
vertex $-1 $339 $426 #
point $-1 61.056731655259462 -20.579075020873265 5.6070395060307634 #
straight-curve $-1 -63.701895199438461 26.230203576750498 0 0 0 -1 I I #
point $-1 -63.701895199438461 -26.230203576750498 -11.398255033681295 #
straight-curve $-1 -63.701895199438461 0 -11.398255033681295 0 1 0 I I #
point $-1 -63.701895199438461 26.230203576750498 -11.398255033681295 #
coedge $-1 $368 $367 $360 $408 reversed $270 $-1 #
edge $-1 $409 -26.230203576750498 $411 26.230203576750498 $407 $427 forward 7 unknown #
vertex $-1 $408 $428 #
straight-curve $-1 0 -26.230203576750498 -11.398255033681295 -1 0 0 I I #
vertex $-1 $363 $429 #
straight-curve $-1 0 26.230203576750498 -11.398255033681295 1 0 0 I I #
point $-1 -51.439471061171055 26.230203576750498 -11.398255033681295 #
straight-curve $-1 -63.701895199438461 26.230203576750498 0 0 0 -1 I I #
straight-curve $-1 -63.701895199438461 -26.230203576750498 0 0 0 -1 I I #
straight-curve $-1 -24.929231811928947 26.230203576750498 64.169814405021015 0 0 -1 I I #
point $-1 -24.929231811928947 26.230203576750498 11.398255033681295 #
straight-curve $-1 -19.092175718275001 26.230203576750498 1.156435642932518 -1 0 0 I I #
point $-1 -24.929231811928947 26.230203576750498 1.1564356429325215 #
point $-1 -43.86511698995902 13.587423138973366 -1.2445253483812864 #
point $-1 -32.503585883140971 13.587423138973366 -1.2445253483812864 #
straight-curve $-1 63.701895199438461 -26.230203576750498 0 0 0 -1 I I #
straight-curve $-1 0 -26.230203576750498 11.398255033681295 1 0 0 I I #
point $-1 63.701895199438461 -26.230203576750498 11.398255033681295 #
point $-1 54.588986338990985 -19.780439502602032 5.0052244937922508 #
point $-1 60.056731655259462 -19.780439502602032 5.0052244937922508 #
straight-curve $-1 -63.701895199438461 0 -11.398255033681295 0 1 0 I I #
point $-1 -63.701895199438461 -26.230203576750498 -11.398255033681295 #
point $-1 -63.701895199438461 26.230203576750498 -11.398255033681295 #
End-of-ACIS-data 