500 0 5 0           
7 Unknown 11 ACIS 5.0 NT 24 Fri Mar 26 14:54:01 1999 
-1 9.9999999999999995e-007 1e-010 
body $-1 $5 $-1 $6 #
body $-1 $7 $-1 $8 #
body $-1 $9 $-1 $10 #
body $-1 $11 $-1 $12 #
body $-1 $13 $-1 $14 #
lump $-1 $-1 $15 $0 #
transform $-1 1 0 0 0 1 0 0 0 1 45.937681203650016 31.54190235079318 14.167336101505592 1 rotate no_reflect no_shear #
lump $-1 $-1 $16 $1 #
transform $-1 1 0 0 0 1 0 0 0 1 45.937681203650016 31.54190235079318 14.167336101505592 1 rotate no_reflect no_shear #
lump $-1 $-1 $17 $2 #
transform $-1 1 0 0 0 1 0 0 0 1 45.937681203650016 31.54190235079318 14.167336101505592 1 rotate no_reflect no_shear #
lump $-1 $-1 $18 $3 #
transform $-1 1 0 0 0 1 0 0 0 1 45.937681203650016 31.54190235079318 14.167336101505592 1 rotate no_reflect no_shear #
lump $-1 $-1 $19 $4 #
transform $-1 1 0 0 0 1 0 0 0 1 45.937681203650016 31.54190235079318 14.167336101505592 1 rotate no_reflect no_shear #
shell $-1 $-1 $-1 $20 $-1 $5 #
shell $-1 $-1 $-1 $21 $-1 $7 #
shell $-1 $-1 $-1 $22 $-1 $9 #
shell $-1 $-1 $-1 $23 $-1 $11 #
shell $-1 $-1 $-1 $24 $-1 $13 #
face $-1 $25 $26 $15 $-1 $27 forward single #
face $-1 $28 $29 $16 $-1 $30 forward single #
face $-1 $31 $32 $17 $-1 $33 forward single #
face $-1 $34 $35 $18 $-1 $36 reversed single #
face $-1 $37 $38 $19 $-1 $39 reversed single #
face $-1 $40 $41 $15 $-1 $42 reversed single #
loop $-1 $-1 $43 $20 #
plane-surface $-1 0 0 14.167336101505592 0 0 1 1 0 0 forward_v I I I I #
face $-1 $44 $45 $16 $-1 $46 forward single #
loop $-1 $-1 $47 $21 #
plane-surface $-1 0 -23.441486782631419 8.2464298836266927 0 0 1 1 0 0 forward_v I I I I #
face $-1 $48 $49 $17 $-1 $50 forward single #
loop $-1 $-1 $51 $22 #
plane-surface $-1 -31.65041324666899 79.566399382446292 110.26557446668347 -1 0 0 0 0.86602541151947299 0.49999998660252726 forward_v I I I I #
face $-1 $52 $53 $18 $-1 $54 reversed single #
loop $-1 $55 $56 $23 #
cone-surface $-1 -41.855604644512582 29.141665972483846 11.291019133800525 0 -0.86602541151947299 -0.49999998660252726 1 0 0 1 I I 0 1 1 forward I I I I #
face $-1 $57 $58 $19 $-1 $59 reversed single #
loop $-1 $60 $61 $24 #
cone-surface $-1 -35.732489805806424 29.141665972483846 11.291019133800525 0 -0.86602541151947299 -0.49999998660252726 1 0 0 1 I I 0 1 1 forward I I I I #
face $-1 $62 $63 $15 $-1 $64 reversed single #
loop $-1 $-1 $65 $25 #
plane-surface $-1 0 0 -14.167336101505592 0 0 1 1 0 0 forward_v I I I I #
coedge $-1 $66 $67 $68 $69 forward $26 $-1 #
face $-1 $70 $71 $16 $-1 $72 forward single #
loop $-1 $-1 $73 $28 #
plane-surface $-1 0 -15.341071214469657 11.206882992566142 0 -1 0 0 0 -1 forward_v I I I I #
coedge $-1 $74 $75 $76 $77 reversed $29 $-1 #
face $-1 $78 $79 $17 $-1 $80 reversed single #
loop $-1 $-1 $81 $31 #
plane-surface $-1 -38.794047225159503 8.4516356935182557e-007 64.327894493931126 0 0.86602541151947299 0.49999998660252726 1 0 0 forward_v I I I I #
coedge $-1 $82 $83 $84 $85 reversed $32 $-1 #
face $-1 $86 $87 $18 $-1 $88 forward single #
loop $-1 $89 $90 $34 #
cone-surface $-1 -41.855604644512582 27.59926221327003 10.400511940034127 0 -0.86602541151947299 -0.49999998660252726 0.5 0 0 1 I I -0.70710678118654746 0.70710678118654746 0.5 forward I I I I #
loop $-1 $-1 $91 $23 #
coedge $-1 $56 $56 $92 $93 reversed $35 $-1 #
face $-1 $94 $95 $19 $-1 $96 reversed single #
loop $-1 $97 $98 $37 #
cone-surface $-1 -35.732489805806424 27.59926221327003 10.400511940034127 0 -0.86602541151947299 -0.49999998660252726 0.5 0 0 1 I I -0.70710678118654746 0.70710678118654746 0.5 forward I I I I #
loop $-1 $-1 $99 $24 #
coedge $-1 $61 $61 $100 $101 reversed $38 $-1 #
face $-1 $102 $103 $15 $-1 $104 reversed single #
loop $-1 $-1 $105 $40 #
plane-surface $-1 0 -31.54190235079318 0 0 1 0 0 0 1 forward_v I I I I #
coedge $-1 $106 $107 $108 $109 forward $41 $-1 #
coedge $-1 $110 $43 $111 $112 forward $26 $-1 #
coedge $-1 $43 $110 $113 $114 forward $26 $-1 #
coedge $-1 $115 $116 $43 $69 reversed $117 $-1 #
edge $-1 $118 -31.54190235079318 $119 31.54190235079318 $68 $120 forward 7 unknown #
face $-1 $121 $122 $16 $-1 $123 reversed single #
loop $-1 $-1 $124 $44 #
plane-surface $-1 0 0 14.167336101505592 0 0 1 1 0 0 forward_v I I I I #
coedge $-1 $125 $126 $127 $128 reversed $45 $-1 #
coedge $-1 $129 $47 $126 $130 reversed $29 $-1 #
coedge $-1 $47 $129 $131 $132 reversed $29 $-1 #
coedge $-1 $133 $127 $47 $77 forward $122 $-1 #
edge $-1 $134 3.6203278231539482 $135 19.821158959477472 $76 $136 forward 7 unknown #
face $-1 $137 $138 $17 $-1 $139 forward single #
loop $-1 $-1 $140 $48 #
plane-surface $-1 0 31.54190235079318 0 0 -1 0 0 0 -1 forward_v I I I I #
coedge $-1 $141 $142 $140 $143 reversed $49 $-1 #
coedge $-1 $83 $51 $142 $144 forward $32 $-1 #
coedge $-1 $51 $82 $145 $146 reversed $32 $-1 #
coedge $-1 $147 $140 $51 $85 forward $79 $-1 #
edge $-1 $148 -45.437070666315982 $149 -40.965451131836147 $84 $150 forward 7 unknown #
face $-1 $151 $152 $18 $-1 $153 forward single #
loop $-1 $-1 $154 $52 #
plane-surface $-1 -31.65041324666899 79.566399382446292 110.26557446668347 -1 0 0 0 0.86602541151947299 0.49999998660252726 forward_v I I I I #
loop $-1 $-1 $155 $34 #
coedge $-1 $90 $90 $91 $156 forward $53 $-1 #
coedge $-1 $91 $91 $90 $156 reversed $55 $-1 #
coedge $-1 $92 $92 $56 $93 forward $152 $-1 #
edge $-1 $157 -1.0623969049353655e-015 $157 6.2831853071795996 $92 $158 forward 7 unknown #
face $-1 $159 $160 $19 $-1 $161 reversed single #
loop $-1 $162 $163 $57 #
cone-surface $-1 -41.855604644512582 29.141665972483846 11.291019133800525 0 -0.86602541151947299 -0.49999998660252726 1 0 0 1 I I 0 1 1 forward I I I I #
loop $-1 $-1 $164 $37 #
coedge $-1 $98 $98 $99 $165 forward $58 $-1 #
coedge $-1 $99 $99 $98 $165 reversed $60 $-1 #
coedge $-1 $100 $100 $61 $101 forward $166 $-1 #
edge $-1 $167 -1.0623969049353655e-015 $167 6.2831853071795996 $100 $168 forward 7 unknown #
face $-1 $169 $170 $15 $-1 $171 reversed single #
loop $-1 $-1 $172 $62 #
plane-surface $-1 -45.937681203650016 0 0 1 0 0 0 0 -1 forward_v I I I I #
coedge $-1 $173 $113 $174 $175 forward $63 $-1 #
coedge $-1 $176 $65 $173 $177 forward $41 $-1 #
coedge $-1 $65 $176 $178 $179 forward $41 $-1 #
coedge $-1 $116 $115 $65 $109 reversed $117 $-1 #
edge $-1 $180 -31.54190235079318 $181 31.54190235079318 $108 $182 forward 7 unknown #
coedge $-1 $67 $66 $183 $184 forward $26 $-1 #
coedge $-1 $185 $186 $66 $112 reversed $170 $-1 #
edge $-1 $119 -45.937681203650016 $187 45.937681203650016 $111 $188 forward 7 unknown #
coedge $-1 $105 $189 $67 $114 reversed $63 $-1 #
edge $-1 $190 -45.937681203650016 $118 45.937681203650016 $113 $191 forward 7 unknown #
coedge $-1 $108 $68 $189 $192 forward $117 $-1 #
coedge $-1 $68 $108 $185 $193 reversed $117 $-1 #
loop $-1 $-1 $115 $169 #
vertex $-1 $69 $194 #
vertex $-1 $69 $195 #
straight-curve $-1 45.937681203650016 0 14.167336101505592 0 1 0 I I #
face $-1 $196 $197 $16 $-1 $198 reversed single #
loop $-1 $-1 $127 $70 #
plane-surface $-1 45.937681203650016 0 0 -1 0 0 0 0 1 forward_v I I I I #
coedge $-1 $199 $200 $125 $201 forward $71 $-1 #
coedge $-1 $202 $73 $124 $201 reversed $45 $-1 #
coedge $-1 $73 $202 $74 $130 forward $45 $-1 #
coedge $-1 $76 $203 $73 $128 forward $122 $-1 #
edge $-1 $204 -8.5638946052225187 $134 -2.642988387343622 $127 $205 forward 7 unknown #
coedge $-1 $75 $74 $206 $207 reversed $29 $-1 #
edge $-1 $208 -45.937681203650016 $134 45.937681203650016 $126 $209 forward 7 unknown #
coedge $-1 $210 $211 $75 $132 forward $212 $-1 #
edge $-1 $135 -45.937681203650016 $213 45.937681203650016 $131 $214 forward 7 unknown #
coedge $-1 $215 $76 $211 $216 forward $122 $-1 #
vertex $-1 $77 $217 #
vertex $-1 $216 $218 #
straight-curve $-1 45.937681203650016 -11.720743391315709 8.2464298836266927 0 -1 0 I I #
face $-1 $219 $220 $17 $-1 $221 forward single #
loop $-1 $-1 $145 $78 #
plane-surface $-1 0 0 14.167336101505592 0 0 1 1 0 0 forward_v I I I I #
coedge $-1 $84 $222 $81 $143 forward $79 $-1 #
coedge $-1 $223 $81 $224 $225 reversed $49 $-1 #
coedge $-1 $81 $223 $82 $144 reversed $49 $-1 #
edge $-1 $226 -26.540657591070264 $148 -12.253389634089238 $140 $227 forward 7 unknown #
edge $-1 $148 -63.083804701586331 $228 -57.9204232638128 $82 $229 forward 7 unknown #
coedge $-1 $230 $231 $83 $146 forward $138 $-1 #
edge $-1 $149 8.2412973404299663 $228 10.822987990140469 $145 $232 forward 7 unknown #
coedge $-1 $233 $84 $231 $234 reversed $79 $-1 #
vertex $-1 $143 $235 #
vertex $-1 $146 $236 #
straight-curve $-1 -31.65041324666899 31.54190235079318 55.132787233341737 0 0 1 I I #
face $-1 $237 $238 $18 $-1 $239 reversed single #
loop $-1 $240 $92 $86 #
plane-surface $-1 -38.794047225159503 8.4516356935182557e-007 64.327894493931126 0 0.86602541151947299 0.49999998660252726 1 0 0 forward_v I I I I #
coedge $-1 $241 $242 $243 $244 reversed $87 $-1 #
coedge $-1 $155 $155 $-1 $245 forward $89 $-1 #
edge $-1 $246 0 $246 6.2831853071796004 $90 $247 forward 7 unknown #
vertex $-1 $93 $248 #
ellipse-curve $-1 -41.855604644512582 30.251057025937936 11.931526334265666 0 -0.86602541151947299 -0.49999998660252726 1 0 0 1 I I #
face $-1 $249 $250 $19 $-1 $251 forward single #
loop $-1 $252 $253 $94 #
cone-surface $-1 -41.855604644512582 27.59926221327003 10.400511940034127 0 -0.86602541151947299 -0.49999998660252726 0.5 0 0 1 I I -0.70710678118654746 0.70710678118654746 0.5 forward I I I I #
loop $-1 $-1 $254 $57 #
coedge $-1 $163 $163 $255 $256 reversed $95 $-1 #
coedge $-1 $164 $164 $-1 $257 forward $97 $-1 #
edge $-1 $258 0 $258 6.2831853071796004 $98 $259 forward 7 unknown #
loop $-1 $260 $100 $249 #
vertex $-1 $101 $261 #
ellipse-curve $-1 -35.732489805806424 30.251057025937936 11.931526334265666 0 -0.86602541151947299 -0.49999998660252726 1 0 0 1 I I #
face $-1 $-1 $117 $15 $-1 $262 reversed single #
loop $-1 $-1 $185 $102 #
plane-surface $-1 0 31.54190235079318 0 0 -1 0 0 0 -1 forward_v I I I I #
coedge $-1 $263 $183 $186 $264 forward $103 $-1 #
coedge $-1 $189 $105 $106 $177 reversed $63 $-1 #
coedge $-1 $183 $263 $105 $175 reversed $103 $-1 #
edge $-1 $190 -14.167336101505592 $265 14.167336101505592 $174 $266 forward 7 unknown #
coedge $-1 $107 $106 $263 $267 forward $41 $-1 #
edge $-1 $181 -45.937681203650016 $265 45.937681203650016 $173 $268 forward 7 unknown #
coedge $-1 $186 $185 $107 $179 reversed $170 $-1 #
edge $-1 $269 -45.937681203650016 $180 45.937681203650016 $178 $270 forward 7 unknown #
vertex $-1 $109 $271 #
vertex $-1 $192 $272 #
straight-curve $-1 45.937681203650016 0 -14.167336101505592 0 -1 0 I I #
coedge $-1 $172 $174 $110 $184 reversed $103 $-1 #
edge $-1 $187 -31.54190235079318 $190 31.54190235079318 $183 $273 forward 7 unknown #
coedge $-1 $178 $111 $116 $193 forward $170 $-1 #
coedge $-1 $111 $178 $172 $264 reversed $170 $-1 #
vertex $-1 $112 $274 #
straight-curve $-1 0 31.54190235079318 14.167336101505592 -1 0 0 I I #
coedge $-1 $113 $173 $115 $192 reversed $63 $-1 #
vertex $-1 $184 $275 #
straight-curve $-1 0 -31.54190235079318 14.167336101505592 1 0 0 I I #
edge $-1 $118 -14.167336101505592 $181 14.167336101505592 $115 $276 forward 7 unknown #
edge $-1 $119 -14.167336101505592 $180 14.167336101505592 $116 $277 forward 7 unknown #
point $-1 45.937681203650016 -31.54190235079318 14.167336101505592 #
point $-1 45.937681203650016 31.54190235079318 14.167336101505592 #
face $-1 $278 $212 $16 $-1 $279 reversed single #
loop $-1 $-1 $280 $121 #
plane-surface $-1 0 0 -14.167336101505592 0 0 1 1 0 0 forward_v I I I I #
coedge $-1 $281 $124 $203 $282 forward $71 $-1 #
coedge $-1 $124 $281 $283 $284 forward $71 $-1 #
edge $-1 $285 -45.937681203650016 $204 45.937681203650016 $124 $286 forward 7 unknown #
coedge $-1 $126 $125 $287 $288 reversed $45 $-1 #
coedge $-1 $127 $289 $199 $282 reversed $122 $-1 #
vertex $-1 $282 $290 #
straight-curve $-1 45.937681203650016 -15.341071214469657 5.6034414962830708 0 0 -1 I I #
coedge $-1 $287 $291 $129 $207 forward $292 $-1 #
edge $-1 $213 -19.821158959477472 $208 -3.6203278231539482 $206 $293 forward 7 unknown #
vertex $-1 $207 $294 #
straight-curve $-1 0 -15.341071214469657 8.2464298836266927 1 0 0 I I #
coedge $-1 $295 $131 $291 $296 forward $212 $-1 #
coedge $-1 $131 $295 $133 $216 reversed $212 $-1 #
loop $-1 $-1 $131 $196 #
vertex $-1 $296 $297 #
straight-curve $-1 0 -31.54190235079318 8.2464298836266927 -1 0 0 I I #
coedge $-1 $289 $133 $280 $298 reversed $122 $-1 #
edge $-1 $135 -8.2464298836266927 $299 14.167336101505592 $133 $300 forward 7 unknown #
point $-1 45.937681203650016 -15.341071214469657 8.2464298836266927 #
point $-1 45.937681203650016 -31.54190235079318 8.2464298836266927 #
face $-1 $301 $302 $17 $-1 $303 forward single #
loop $-1 $-1 $304 $137 #
plane-surface $-1 0 -23.441486782631419 8.2464298836266927 0 0 1 1 0 0 forward_v I I I I #
coedge $-1 $140 $305 $306 $307 reversed $79 $-1 #
coedge $-1 $142 $141 $230 $308 reversed $49 $-1 #
coedge $-1 $306 $309 $141 $225 forward $310 $-1 #
edge $-1 $311 30.065627824459714 $226 35.229009262233241 $224 $312 forward 7 unknown #
vertex $-1 $307 $313 #
straight-curve $-1 -19.397023612579751 31.54190235079318 9.6957165670257588 1 0 0 I I #
vertex $-1 $308 $314 #
straight-curve $-1 -31.65041324666899 8.4516356935182557e-007 64.327894493931126 0 -0.49999998660252726 0.86602541151947299 I I #
coedge $-1 $315 $145 $223 $308 forward $138 $-1 #
coedge $-1 $145 $316 $147 $234 forward $138 $-1 #
straight-curve $-1 -31.65041324666899 39.783199691223146 14.16733610150559 0 -1 0 I I #
coedge $-1 $305 $147 $317 $318 forward $79 $-1 #
edge $-1 $319 -45.937681203650016 $149 31.65041324666899 $147 $320 forward 7 unknown #
point $-1 -31.65041324666899 31.54190235079318 9.6957165670257552 #
point $-1 -31.65041324666899 31.54190235079318 14.167336101505592 #
face $-1 $321 $322 $18 $-1 $323 forward single #
loop $-1 $-1 $324 $151 #
plane-surface $-1 0 31.54190235079318 0 0 -1 0 0 0 -1 forward_v I I I I #
loop $-1 $-1 $325 $86 #
coedge $-1 $242 $154 $326 $327 forward $87 $-1 #
coedge $-1 $154 $241 $328 $329 reversed $87 $-1 #
coedge $-1 $330 $324 $154 $244 forward $238 $-1 #
edge $-1 $331 -45.437070666315982 $332 -40.965451131836147 $243 $333 forward 7 unknown #
edge $-1 $334 1 $334 0 $155 $-1 forward 7 unknown #
vertex $-1 $156 $335 #
ellipse-curve $-1 -41.855604644512582 28.032274919029767 10.650511933335391 0 0.86602541151947299 0.49999998660252726 1 0 0 1 I I #
point $-1 -40.855604644512582 30.251057025937929 11.93152633426566 #
face $-1 $336 $166 $19 $-1 $337 forward single #
loop $-1 $-1 $338 $159 #
plane-surface $-1 -31.65041324666899 79.566399382446292 110.26557446668347 -1 0 0 0 0.86602541151947299 0.49999998660252726 forward_v I I I I #
loop $-1 $-1 $339 $94 #
coedge $-1 $253 $253 $254 $340 forward $160 $-1 #
coedge $-1 $254 $254 $253 $340 reversed $162 $-1 #
coedge $-1 $255 $255 $163 $256 forward $260 $-1 #
edge $-1 $341 -1.0623969049353655e-015 $341 6.2831853071795996 $255 $342 forward 7 unknown #
edge $-1 $343 1 $343 0 $164 $-1 forward 7 unknown #
vertex $-1 $165 $344 #
ellipse-curve $-1 -35.732489805806424 28.032274919029767 10.650511933335391 0 0.86602541151947299 0.49999998660252726 1 0 0 1 I I #
loop $-1 $345 $255 $249 #
point $-1 -34.732489805806424 30.251057025937929 11.93152633426566 #
plane-surface $-1 45.937681203650016 0 0 -1 0 0 0 0 1 forward_v I I I I #
coedge $-1 $174 $172 $176 $267 reversed $103 $-1 #
edge $-1 $187 -14.167336101505592 $269 14.167336101505592 $186 $346 forward 7 unknown #
vertex $-1 $267 $347 #
straight-curve $-1 -45.937681203650016 -31.54190235079318 0 0 0 -1 I I #
edge $-1 $265 -31.54190235079318 $269 31.54190235079318 $263 $348 forward 7 unknown #
straight-curve $-1 0 -31.54190235079318 -14.167336101505592 -1 0 0 I I #
vertex $-1 $179 $349 #
straight-curve $-1 0 31.54190235079318 -14.167336101505592 1 0 0 I I #
point $-1 45.937681203650016 31.54190235079318 -14.167336101505592 #
point $-1 45.937681203650016 -31.54190235079318 -14.167336101505592 #
straight-curve $-1 -45.937681203650016 0 14.167336101505592 0 -1 0 I I #
point $-1 -45.937681203650016 31.54190235079318 14.167336101505592 #
point $-1 -45.937681203650016 -31.54190235079318 14.167336101505592 #
straight-curve $-1 45.937681203650016 -31.54190235079318 0 0 0 -1 I I #
straight-curve $-1 45.937681203650016 31.54190235079318 0 0 0 -1 I I #
face $-1 $350 $292 $16 $-1 $351 reversed single #
plane-surface $-1 0 -31.54190235079318 0 0 1 0 0 0 1 forward_v I I I I #
coedge $-1 $352 $353 $215 $298 forward $197 $-1 #
coedge $-1 $200 $199 $354 $355 forward $71 $-1 #
edge $-1 $204 -15.341071214469657 $356 31.54190235079318 $203 $357 forward 7 unknown #
coedge $-1 $358 $287 $200 $284 reversed $292 $-1 #
edge $-1 $359 -31.54190235079318 $285 15.341071214469657 $283 $360 forward 7 unknown #
vertex $-1 $288 $361 #
straight-curve $-1 0 -15.341071214469657 14.167336101505592 1 0 0 I I #
coedge $-1 $283 $206 $202 $288 forward $292 $-1 #
edge $-1 $208 2.642988387343622 $285 8.5638946052225187 $287 $362 forward 7 unknown #
coedge $-1 $203 $215 $363 $364 reversed $122 $-1 #
point $-1 45.937681203650016 -15.341071214469657 14.16733610150559 #
coedge $-1 $206 $365 $210 $296 reversed $292 $-1 #
loop $-1 $-1 $287 $278 #
straight-curve $-1 -45.937681203650016 -11.720743391315709 8.2464298836266927 0 1 0 I I #
point $-1 -45.937681203650016 -15.341071214469657 8.2464298836266927 #
coedge $-1 $211 $210 $352 $366 reversed $212 $-1 #
edge $-1 $213 -8.2464298836266927 $367 14.167336101505592 $291 $368 forward 7 unknown #
point $-1 -45.937681203650016 -31.54190235079318 8.2464298836266927 #
edge $-1 $369 -31.54190235079318 $299 31.54190235079318 $215 $370 forward 7 unknown #
vertex $-1 $216 $371 #
straight-curve $-1 45.937681203650016 -31.54190235079318 0 0 0 -1 I I #
face $-1 $372 $373 $17 $-1 $374 reversed single #
loop $-1 $-1 $375 $219 #
plane-surface $-1 0 -15.341071214469657 11.206882992566142 0 -1 0 0 0 -1 forward_v I I I I #
coedge $-1 $376 $377 $378 $379 reversed $220 $-1 #
coedge $-1 $222 $233 $380 $381 reversed $79 $-1 #
coedge $-1 $382 $224 $222 $307 forward $310 $-1 #
edge $-1 $226 -9.6957165670257641 $383 14.167336101505592 $222 $384 forward 7 unknown #
edge $-1 $228 12.253389634089238 $311 26.540657591070264 $230 $385 forward 7 unknown #
coedge $-1 $224 $386 $315 $387 reversed $310 $-1 #
loop $-1 $-1 $224 $388 #
vertex $-1 $387 $389 #
straight-curve $-1 -45.937681203650016 13.92739819165625 40.204933810774634 0 0.49999998660252726 -0.86602541151947299 I I #
point $-1 -45.937681203650016 31.54190235079318 9.6957165670257641 #
point $-1 -31.65041324666899 28.960211701082677 14.16733610150559 #
coedge $-1 $390 $230 $309 $387 forward $138 $-1 #
coedge $-1 $231 $390 $391 $392 forward $138 $-1 #
coedge $-1 $391 $393 $233 $318 reversed $373 $-1 #
edge $-1 $319 -14.167336101505592 $394 14.167336101505592 $317 $395 forward 7 unknown #
vertex $-1 $392 $396 #
straight-curve $-1 0 31.54190235079318 14.167336101505592 -1 0 0 I I #
face $-1 $397 $398 $18 $-1 $399 forward single #
loop $-1 $-1 $328 $237 #
plane-surface $-1 0 0 14.167336101505592 0 0 1 1 0 0 forward_v I I I I #
coedge $-1 $243 $400 $325 $401 forward $238 $-1 #
coedge $-1 $402 $326 $324 $401 reversed $240 $-1 #
coedge $-1 $325 $403 $241 $327 reversed $240 $-1 #
edge $-1 $331 -63.083804701586331 $404 -57.9204232638128 $241 $405 forward 7 unknown #
coedge $-1 $406 $407 $242 $329 forward $322 $-1 #
edge $-1 $332 8.2412973404299663 $404 10.822987990140469 $328 $408 forward 7 unknown #
coedge $-1 $409 $243 $407 $410 reversed $238 $-1 #
vertex $-1 $401 $411 #
vertex $-1 $329 $412 #
straight-curve $-1 -31.65041324666899 31.54190235079318 55.132787233341737 0 0 1 I I #
vertex $-1 $245 $413 #
point $-1 -40.855604644512582 28.032274919029767 10.650511933335391 #
face $-1 $414 $415 $19 $-1 $416 reversed single #
plane-surface $-1 -38.794047225159503 8.4516356935182557e-007 64.327894493931126 0 0.86602541151947299 0.49999998660252726 1 0 0 forward_v I I I I #
coedge $-1 $417 $418 $419 $420 reversed $250 $-1 #
coedge $-1 $339 $339 $-1 $421 forward $252 $-1 #
edge $-1 $422 0 $422 6.2831853071796004 $253 $423 forward 7 unknown #
vertex $-1 $256 $424 #
ellipse-curve $-1 -41.855604644512582 30.251057025937936 11.931526334265666 0 -0.86602541151947299 -0.49999998660252726 1 0 0 1 I I #
vertex $-1 $257 $425 #
point $-1 -34.732489805806424 28.032274919029767 10.650511933335391 #
loop $-1 $-1 $426 $249 #
straight-curve $-1 -45.937681203650016 31.54190235079318 0 0 0 -1 I I #
point $-1 -45.937681203650016 -31.54190235079318 -14.167336101505592 #
straight-curve $-1 -45.937681203650016 0 -14.167336101505592 0 1 0 I I #
point $-1 -45.937681203650016 31.54190235079318 -14.167336101505592 #
face $-1 $-1 $427 $16 $-1 $428 reversed single #
plane-surface $-1 -45.937681203650016 0 0 1 0 0 0 0 -1 forward_v I I I I #
coedge $-1 $429 $280 $295 $366 forward $197 $-1 #
coedge $-1 $280 $429 $430 $431 forward $197 $-1 #
coedge $-1 $363 $432 $281 $355 reversed $427 $-1 #
edge $-1 $356 -45.937681203650016 $359 45.937681203650016 $354 $433 forward 7 unknown #
vertex $-1 $282 $434 #
straight-curve $-1 45.937681203650016 0 14.167336101505592 0 1 0 I I #
coedge $-1 $365 $283 $432 $435 forward $292 $-1 #
vertex $-1 $355 $436 #
straight-curve $-1 -45.937681203650016 0 14.167336101505592 0 -1 0 I I #
point $-1 -45.937681203650016 -15.341071214469657 14.16733610150559 #
straight-curve $-1 -45.937681203650016 -15.341071214469657 5.6034414962830708 0 0 1 I I #
coedge $-1 $430 $354 $289 $364 forward $427 $-1 #
edge $-1 $356 -14.167336101505592 $369 14.167336101505592 $289 $437 forward 7 unknown #
coedge $-1 $291 $358 $429 $438 reversed $292 $-1 #
edge $-1 $299 -45.937681203650016 $367 45.937681203650016 $295 $439 forward 7 unknown #
vertex $-1 $438 $440 #
straight-curve $-1 -45.937681203650016 -31.54190235079318 0 0 0 -1 I I #
vertex $-1 $298 $441 #
straight-curve $-1 45.937681203650016 0 -14.167336101505592 0 -1 0 I I #
point $-1 45.937681203650016 -31.54190235079318 -14.167336101505592 #
face $-1 $442 $443 $17 $-1 $444 reversed single #
loop $-1 $-1 $445 $301 #
plane-surface $-1 45.937681203650016 0 0 -1 0 0 0 0 1 forward_v I I I I #
coedge $-1 $446 $447 $445 $448 reversed $302 $-1 #
coedge $-1 $449 $304 $447 $450 reversed $220 $-1 #
coedge $-1 $304 $449 $451 $452 reversed $220 $-1 #
coedge $-1 $453 $445 $304 $379 forward $373 $-1 #
edge $-1 $454 3.6203278231539482 $455 19.821158959477472 $378 $456 forward 7 unknown #
coedge $-1 $457 $458 $305 $381 forward $443 $-1 #
edge $-1 $383 -45.937681203650016 $394 45.937681203650016 $305 $459 forward 7 unknown #
coedge $-1 $460 $306 $458 $461 reversed $310 $-1 #
vertex $-1 $381 $462 #
straight-curve $-1 -45.937681203650016 31.54190235079318 0 0 0 -1 I I #
straight-curve $-1 -19.397023612579751 28.960211701082677 14.16733610150559 -1 0 0 I I #
coedge $-1 $309 $463 $464 $465 forward $310 $-1 #
edge $-1 $311 -28.960211701082677 $466 15.341071214469657 $309 $467 forward 7 unknown #
face $-1 $-1 $310 $17 $-1 $468 reversed single #
point $-1 -45.937681203650016 28.960211701082677 14.16733610150559 #
coedge $-1 $316 $315 $446 $469 forward $138 $-1 #
coedge $-1 $445 $317 $316 $392 reversed $373 $-1 #
edge $-1 $470 -15.341071214469657 $319 31.54190235079318 $391 $471 forward 7 unknown #
coedge $-1 $317 $453 $457 $472 reversed $373 $-1 #
vertex $-1 $472 $473 #
straight-curve $-1 45.937681203650016 31.54190235079318 0 0 0 -1 I I #
point $-1 45.937681203650016 31.54190235079318 14.167336101505592 #
face $-1 $474 $475 $18 $-1 $476 forward single #
loop $-1 $-1 $477 $321 #
plane-surface $-1 0 -23.441486782631419 8.2464298836266927 0 0 1 1 0 0 forward_v I I I I #
coedge $-1 $324 $478 $479 $480 reversed $238 $-1 #
edge $-1 $481 -26.540657591070264 $331 -12.253389634089238 $324 $482 forward 7 unknown #
coedge $-1 $403 $325 $483 $484 reversed $240 $-1 #
coedge $-1 $326 $402 $406 $485 reversed $240 $-1 #
vertex $-1 $485 $486 #
straight-curve $-1 -31.65041324666899 8.4516356935182557e-007 64.327894493931126 0 -0.49999998660252726 0.86602541151947299 I I #
coedge $-1 $487 $328 $403 $485 forward $322 $-1 #
coedge $-1 $328 $488 $330 $410 forward $322 $-1 #
straight-curve $-1 -31.65041324666899 39.783199691223146 14.16733610150559 0 -1 0 I I #
coedge $-1 $478 $330 $489 $490 forward $238 $-1 #
edge $-1 $491 -45.937681203650016 $332 31.65041324666899 $330 $492 forward 7 unknown #
point $-1 -31.65041324666899 31.54190235079318 9.6957165670257552 #
point $-1 -31.65041324666899 31.54190235079318 14.167336101505592 #
point $-1 -41.855604644512582 27.166249507510294 10.150511946732863 #
face $-1 $493 $494 $19 $-1 $495 forward single #
loop $-1 $-1 $496 $336 #
plane-surface $-1 0 31.54190235079318 0 0 -1 0 0 0 -1 forward_v I I I I #
coedge $-1 $418 $338 $497 $498 forward $250 $-1 #
coedge $-1 $338 $417 $499 $500 reversed $250 $-1 #
coedge $-1 $501 $496 $338 $420 forward $415 $-1 #
edge $-1 $502 -45.437070666315982 $503 -40.965451131836147 $419 $504 forward 7 unknown #
edge $-1 $505 1 $505 0 $339 $-1 forward 7 unknown #
vertex $-1 $340 $506 #
ellipse-curve $-1 -41.855604644512582 28.032274919029767 10.650511933335391 0 0.86602541151947299 0.49999998660252726 1 0 0 1 I I #
point $-1 -40.855604644512582 30.251057025937929 11.93152633426566 #
point $-1 -35.732489805806424 27.166249507510294 10.150511946732863 #
coedge $-1 $507 $497 $496 $508 reversed $345 $-1 #
loop $-1 $-1 $363 $350 #
plane-surface $-1 0 31.54190235079318 0 0 -1 0 0 0 -1 forward_v I I I I #
coedge $-1 $353 $352 $365 $438 forward $197 $-1 #
coedge $-1 $432 $363 $353 $431 reversed $427 $-1 #
edge $-1 $509 -45.937681203650016 $369 45.937681203650016 $430 $510 forward 7 unknown #
coedge $-1 $354 $430 $358 $435 reversed $427 $-1 #
straight-curve $-1 0 31.54190235079318 14.167336101505592 -1 0 0 I I #
point $-1 45.937681203650016 31.54190235079318 14.167336101505592 #
edge $-1 $359 -14.167336101505592 $509 14.167336101505592 $432 $511 forward 7 unknown #
point $-1 -45.937681203650016 31.54190235079318 14.167336101505592 #
straight-curve $-1 45.937681203650016 31.54190235079318 0 0 0 -1 I I #
edge $-1 $367 -31.54190235079318 $509 31.54190235079318 $365 $512 forward 7 unknown #
straight-curve $-1 0 -31.54190235079318 -14.167336101505592 -1 0 0 I I #
point $-1 -45.937681203650016 -31.54190235079318 -14.167336101505592 #
point $-1 45.937681203650016 31.54190235079318 -14.167336101505592 #
face $-1 $388 $513 $17 $-1 $514 reversed single #
loop $-1 $-1 $457 $372 #
plane-surface $-1 0 0 -14.167336101505592 0 0 1 1 0 0 forward_v I I I I #
coedge $-1 $378 $391 $375 $448 forward $373 $-1 #
coedge $-1 $464 $375 $390 $469 reversed $302 $-1 #
coedge $-1 $375 $464 $376 $450 forward $302 $-1 #
edge $-1 $470 -8.5638946052225187 $454 -2.642988387343622 $445 $515 forward 7 unknown #
coedge $-1 $377 $376 $463 $516 reversed $220 $-1 #
edge $-1 $517 -45.937681203650016 $454 45.937681203650016 $447 $518 forward 7 unknown #
coedge $-1 $519 $520 $377 $452 forward $513 $-1 #
edge $-1 $455 -45.937681203650016 $521 45.937681203650016 $451 $522 forward 7 unknown #
coedge $-1 $393 $378 $520 $523 forward $373 $-1 #
vertex $-1 $379 $524 #
vertex $-1 $523 $525 #
straight-curve $-1 45.937681203650016 -11.720743391315709 8.2464298836266927 0 -1 0 I I #
coedge $-1 $526 $380 $393 $472 forward $443 $-1 #
coedge $-1 $380 $526 $382 $461 forward $443 $-1 #
straight-curve $-1 0 31.54190235079318 -14.167336101505592 1 0 0 I I #
coedge $-1 $463 $382 $519 $527 reversed $310 $-1 #
edge $-1 $528 -31.54190235079318 $383 31.54190235079318 $382 $529 forward 7 unknown #
point $-1 -45.937681203650016 31.54190235079318 -14.167336101505592 #
coedge $-1 $386 $460 $449 $516 forward $310 $-1 #
coedge $-1 $447 $446 $386 $465 reversed $302 $-1 #
edge $-1 $517 2.642988387343622 $466 8.5638946052225187 $386 $530 forward 7 unknown #
vertex $-1 $465 $531 #
straight-curve $-1 -45.937681203650016 0 14.167336101505592 0 -1 0 I I #
plane-surface $-1 -45.937681203650016 0 0 1 0 0 0 0 -1 forward_v I I I I #
edge $-1 $466 -45.937681203650016 $470 45.937681203650016 $390 $532 forward 7 unknown #
vertex $-1 $392 $533 #
straight-curve $-1 45.937681203650016 0 14.167336101505592 0 1 0 I I #
edge $-1 $394 -31.54190235079318 $534 31.54190235079318 $393 $535 forward 7 unknown #
point $-1 45.937681203650016 31.54190235079318 -14.167336101505592 #
face $-1 $536 $537 $18 $-1 $538 reversed single #
loop $-1 $-1 $539 $397 #
plane-surface $-1 0 -15.341071214469657 11.206882992566142 0 -1 0 0 0 -1 forward_v I I I I #
coedge $-1 $540 $541 $542 $543 reversed $398 $-1 #
coedge $-1 $400 $409 $544 $545 reversed $238 $-1 #
coedge $-1 $546 $483 $400 $480 forward $547 $-1 #
edge $-1 $481 -9.6957165670257641 $548 14.167336101505592 $400 $549 forward 7 unknown #
vertex $-1 $480 $550 #
straight-curve $-1 -19.397023612579751 31.54190235079318 9.6957165670257588 1 0 0 I I #
coedge $-1 $479 $551 $402 $484 forward $547 $-1 #
edge $-1 $552 30.065627824459714 $481 35.229009262233241 $483 $553 forward 7 unknown #
edge $-1 $404 12.253389634089238 $552 26.540657591070264 $406 $554 forward 7 unknown #
point $-1 -31.65041324666899 28.960211701082677 14.16733610150559 #
coedge $-1 $555 $406 $551 $556 forward $322 $-1 #
coedge $-1 $407 $555 $557 $558 forward $322 $-1 #
coedge $-1 $557 $559 $409 $490 reversed $537 $-1 #
edge $-1 $491 -14.167336101505592 $560 14.167336101505592 $489 $561 forward 7 unknown #
vertex $-1 $558 $562 #
straight-curve $-1 0 31.54190235079318 14.167336101505592 -1 0 0 I I #
face $-1 $563 $564 $19 $-1 $565 forward single #
loop $-1 $-1 $499 $414 #
plane-surface $-1 0 0 14.167336101505592 0 0 1 1 0 0 forward_v I I I I #
coedge $-1 $419 $566 $426 $508 forward $415 $-1 #
coedge $-1 $426 $567 $417 $498 reversed $345 $-1 #
edge $-1 $502 -63.083804701586331 $568 -57.9204232638128 $417 $569 forward 7 unknown #
coedge $-1 $570 $571 $418 $500 forward $494 $-1 #
edge $-1 $503 8.2412973404299663 $568 10.822987990140469 $499 $572 forward 7 unknown #
coedge $-1 $573 $419 $571 $574 reversed $415 $-1 #
vertex $-1 $508 $575 #
vertex $-1 $500 $576 #
straight-curve $-1 -31.65041324666899 31.54190235079318 55.132787233341737 0 0 1 I I #
vertex $-1 $421 $577 #
point $-1 -40.855604644512582 28.032274919029767 10.650511933335391 #
coedge $-1 $567 $426 $578 $579 reversed $345 $-1 #
edge $-1 $580 -26.540657591070264 $502 -12.253389634089238 $496 $581 forward 7 unknown #
vertex $-1 $431 $582 #
straight-curve $-1 0 31.54190235079318 -14.167336101505592 1 0 0 I I #
straight-curve $-1 -45.937681203650016 31.54190235079318 0 0 0 -1 I I #
straight-curve $-1 -45.937681203650016 0 -14.167336101505592 0 1 0 I I #
loop $-1 $-1 $451 $442 #
plane-surface $-1 0 -31.54190235079318 0 0 1 0 0 0 1 forward_v I I I I #
straight-curve $-1 45.937681203650016 -15.341071214469657 5.6034414962830708 0 0 -1 I I #
edge $-1 $521 -19.821158959477472 $517 -3.6203278231539482 $463 $583 forward 7 unknown #
vertex $-1 $516 $584 #
straight-curve $-1 0 -15.341071214469657 8.2464298836266927 1 0 0 I I #
coedge $-1 $585 $451 $460 $527 forward $513 $-1 #
coedge $-1 $451 $585 $453 $523 reversed $513 $-1 #
vertex $-1 $527 $586 #
straight-curve $-1 0 -31.54190235079318 8.2464298836266927 -1 0 0 I I #
edge $-1 $455 -8.2464298836266927 $534 14.167336101505592 $453 $587 forward 7 unknown #
point $-1 45.937681203650016 -15.341071214469657 8.2464298836266927 #
point $-1 45.937681203650016 -31.54190235079318 8.2464298836266927 #
coedge $-1 $458 $457 $585 $588 forward $443 $-1 #
edge $-1 $521 -8.2464298836266927 $528 14.167336101505592 $460 $589 forward 7 unknown #
vertex $-1 $461 $590 #
straight-curve $-1 -45.937681203650016 0 -14.167336101505592 0 1 0 I I #
straight-curve $-1 -45.937681203650016 -15.341071214469657 5.6034414962830708 0 0 1 I I #
point $-1 -45.937681203650016 -15.341071214469657 14.16733610150559 #
straight-curve $-1 0 -15.341071214469657 14.167336101505592 1 0 0 I I #
point $-1 45.937681203650016 -15.341071214469657 14.16733610150559 #
vertex $-1 $523 $591 #
straight-curve $-1 45.937681203650016 0 -14.167336101505592 0 -1 0 I I #
face $-1 $592 $593 $18 $-1 $594 reversed single #
loop $-1 $-1 $595 $474 #
plane-surface $-1 45.937681203650016 0 0 -1 0 0 0 0 1 forward_v I I I I #
coedge $-1 $596 $597 $595 $598 reversed $475 $-1 #
coedge $-1 $599 $477 $597 $600 reversed $398 $-1 #
coedge $-1 $477 $599 $601 $602 reversed $398 $-1 #
coedge $-1 $603 $595 $477 $543 forward $537 $-1 #
edge $-1 $604 3.6203278231539482 $605 19.821158959477472 $542 $606 forward 7 unknown #
coedge $-1 $607 $608 $478 $545 forward $593 $-1 #
edge $-1 $548 -45.937681203650016 $560 45.937681203650016 $478 $609 forward 7 unknown #
coedge $-1 $610 $479 $608 $611 reversed $547 $-1 #
loop $-1 $-1 $483 $612 #
vertex $-1 $545 $613 #
straight-curve $-1 -45.937681203650016 31.54190235079318 0 0 0 -1 I I #
point $-1 -45.937681203650016 31.54190235079318 9.6957165670257641 #
coedge $-1 $483 $614 $487 $556 reversed $547 $-1 #
vertex $-1 $556 $615 #
straight-curve $-1 -45.937681203650016 13.92739819165625 40.204933810774634 0 0.49999998660252726 -0.86602541151947299 I I #
straight-curve $-1 -19.397023612579751 28.960211701082677 14.16733610150559 -1 0 0 I I #
coedge $-1 $488 $487 $596 $616 forward $322 $-1 #
edge $-1 $552 -28.960211701082677 $617 15.341071214469657 $551 $618 forward 7 unknown #
coedge $-1 $595 $489 $488 $558 reversed $537 $-1 #
edge $-1 $619 -15.341071214469657 $491 31.54190235079318 $557 $620 forward 7 unknown #
coedge $-1 $489 $603 $607 $621 reversed $537 $-1 #
vertex $-1 $621 $622 #
straight-curve $-1 45.937681203650016 31.54190235079318 0 0 0 -1 I I #
point $-1 45.937681203650016 31.54190235079318 14.167336101505592 #
face $-1 $623 $624 $19 $-1 $625 forward single #
loop $-1 $-1 $626 $493 #
plane-surface $-1 0 -23.441486782631419 8.2464298836266927 0 0 1 1 0 0 forward_v I I I I #
coedge $-1 $496 $627 $628 $629 reversed $415 $-1 #
coedge $-1 $497 $507 $570 $630 reversed $345 $-1 #
vertex $-1 $630 $631 #
straight-curve $-1 -31.65041324666899 8.4516356935182557e-007 64.327894493931126 0 -0.49999998660252726 0.86602541151947299 I I #
coedge $-1 $632 $499 $567 $630 forward $494 $-1 #
coedge $-1 $499 $633 $501 $574 forward $494 $-1 #
straight-curve $-1 -31.65041324666899 39.783199691223146 14.16733610150559 0 -1 0 I I #
coedge $-1 $627 $501 $634 $635 forward $415 $-1 #
edge $-1 $636 -45.937681203650016 $503 31.65041324666899 $501 $637 forward 7 unknown #
point $-1 -31.65041324666899 31.54190235079318 9.6957165670257552 #
point $-1 -31.65041324666899 31.54190235079318 14.167336101505592 #
point $-1 -41.855604644512582 27.166249507510294 10.150511946732863 #
coedge $-1 $628 $638 $507 $579 forward $639 $-1 #
edge $-1 $640 30.065627824459714 $580 35.229009262233241 $578 $641 forward 7 unknown #
vertex $-1 $629 $642 #
straight-curve $-1 -19.397023612579751 31.54190235079318 9.6957165670257588 1 0 0 I I #
point $-1 -45.937681203650016 31.54190235079318 -14.167336101505592 #
straight-curve $-1 -45.937681203650016 -11.720743391315709 8.2464298836266927 0 1 0 I I #
point $-1 -45.937681203650016 -15.341071214469657 8.2464298836266927 #
coedge $-1 $520 $519 $526 $588 reversed $513 $-1 #
point $-1 -45.937681203650016 -31.54190235079318 8.2464298836266927 #
straight-curve $-1 45.937681203650016 -31.54190235079318 0 0 0 -1 I I #
edge $-1 $534 -45.937681203650016 $528 45.937681203650016 $585 $643 forward 7 unknown #
straight-curve $-1 -45.937681203650016 -31.54190235079318 0 0 0 -1 I I #
point $-1 -45.937681203650016 -31.54190235079318 -14.167336101505592 #
point $-1 45.937681203650016 -31.54190235079318 -14.167336101505592 #
face $-1 $612 $644 $18 $-1 $645 reversed single #
loop $-1 $-1 $607 $536 #
plane-surface $-1 0 0 -14.167336101505592 0 0 1 1 0 0 forward_v I I I I #
coedge $-1 $542 $557 $539 $598 forward $537 $-1 #
coedge $-1 $646 $539 $555 $616 reversed $475 $-1 #
coedge $-1 $539 $646 $540 $600 forward $475 $-1 #
edge $-1 $619 -8.5638946052225187 $604 -2.642988387343622 $595 $647 forward 7 unknown #
coedge $-1 $541 $540 $648 $649 reversed $398 $-1 #
edge $-1 $650 -45.937681203650016 $604 45.937681203650016 $597 $651 forward 7 unknown #
coedge $-1 $652 $653 $541 $602 forward $644 $-1 #
edge $-1 $605 -45.937681203650016 $654 45.937681203650016 $601 $655 forward 7 unknown #
coedge $-1 $559 $542 $653 $656 forward $537 $-1 #
vertex $-1 $543 $657 #
vertex $-1 $656 $658 #
straight-curve $-1 45.937681203650016 -11.720743391315709 8.2464298836266927 0 -1 0 I I #
coedge $-1 $659 $544 $559 $621 forward $593 $-1 #
coedge $-1 $544 $659 $546 $611 forward $593 $-1 #
straight-curve $-1 0 31.54190235079318 -14.167336101505592 1 0 0 I I #
coedge $-1 $648 $546 $652 $660 reversed $547 $-1 #
edge $-1 $661 -31.54190235079318 $548 31.54190235079318 $546 $662 forward 7 unknown #
face $-1 $-1 $547 $18 $-1 $663 reversed single #
point $-1 -45.937681203650016 31.54190235079318 -14.167336101505592 #
coedge $-1 $551 $648 $646 $664 forward $547 $-1 #
point $-1 -45.937681203650016 28.960211701082677 14.16733610150559 #
edge $-1 $617 -45.937681203650016 $619 45.937681203650016 $555 $665 forward 7 unknown #
vertex $-1 $664 $666 #
straight-curve $-1 -45.937681203650016 0 14.167336101505592 0 -1 0 I I #
vertex $-1 $558 $667 #
straight-curve $-1 45.937681203650016 0 14.167336101505592 0 1 0 I I #
edge $-1 $560 -31.54190235079318 $668 31.54190235079318 $559 $669 forward 7 unknown #
point $-1 45.937681203650016 31.54190235079318 -14.167336101505592 #
face $-1 $670 $671 $19 $-1 $672 reversed single #
loop $-1 $-1 $673 $563 #
plane-surface $-1 0 -15.341071214469657 11.206882992566142 0 -1 0 0 0 -1 forward_v I I I I #
coedge $-1 $674 $675 $676 $677 reversed $564 $-1 #
coedge $-1 $566 $573 $678 $679 reversed $415 $-1 #
coedge $-1 $680 $578 $566 $629 forward $639 $-1 #
edge $-1 $580 -9.6957165670257641 $681 14.167336101505592 $566 $682 forward 7 unknown #
edge $-1 $568 12.253389634089238 $640 26.540657591070264 $570 $683 forward 7 unknown #
point $-1 -31.65041324666899 28.960211701082677 14.16733610150559 #
coedge $-1 $684 $570 $638 $685 forward $494 $-1 #
coedge $-1 $571 $684 $686 $687 forward $494 $-1 #
coedge $-1 $686 $688 $573 $635 reversed $671 $-1 #
edge $-1 $636 -14.167336101505592 $689 14.167336101505592 $634 $690 forward 7 unknown #
vertex $-1 $687 $691 #
straight-curve $-1 0 31.54190235079318 14.167336101505592 -1 0 0 I I #
coedge $-1 $578 $692 $632 $685 reversed $639 $-1 #
loop $-1 $-1 $578 $693 #
vertex $-1 $685 $694 #
straight-curve $-1 -45.937681203650016 13.92739819165625 40.204933810774634 0 0.49999998660252726 -0.86602541151947299 I I #
point $-1 -45.937681203650016 31.54190235079318 9.6957165670257641 #
straight-curve $-1 0 -31.54190235079318 -14.167336101505592 -1 0 0 I I #
loop $-1 $-1 $601 $592 #
plane-surface $-1 0 -31.54190235079318 0 0 1 0 0 0 1 forward_v I I I I #
coedge $-1 $597 $596 $614 $664 reversed $475 $-1 #
straight-curve $-1 45.937681203650016 -15.341071214469657 5.6034414962830708 0 0 -1 I I #
coedge $-1 $614 $610 $599 $649 forward $547 $-1 #
edge $-1 $654 -19.821158959477472 $650 -3.6203278231539482 $648 $695 forward 7 unknown #
vertex $-1 $649 $696 #
straight-curve $-1 0 -15.341071214469657 8.2464298836266927 1 0 0 I I #
coedge $-1 $697 $601 $610 $660 forward $644 $-1 #
coedge $-1 $601 $697 $603 $656 reversed $644 $-1 #
vertex $-1 $660 $698 #
straight-curve $-1 0 -31.54190235079318 8.2464298836266927 -1 0 0 I I #
edge $-1 $605 -8.2464298836266927 $668 14.167336101505592 $603 $699 forward 7 unknown #
point $-1 45.937681203650016 -15.341071214469657 8.2464298836266927 #
point $-1 45.937681203650016 -31.54190235079318 8.2464298836266927 #
coedge $-1 $608 $607 $697 $700 forward $593 $-1 #
edge $-1 $654 -8.2464298836266927 $661 14.167336101505592 $610 $701 forward 7 unknown #
vertex $-1 $611 $702 #
straight-curve $-1 -45.937681203650016 0 -14.167336101505592 0 1 0 I I #
plane-surface $-1 -45.937681203650016 0 0 1 0 0 0 0 -1 forward_v I I I I #
edge $-1 $650 2.642988387343622 $617 8.5638946052225187 $614 $703 forward 7 unknown #
straight-curve $-1 0 -15.341071214469657 14.167336101505592 1 0 0 I I #
point $-1 -45.937681203650016 -15.341071214469657 14.16733610150559 #
point $-1 45.937681203650016 -15.341071214469657 14.16733610150559 #
vertex $-1 $656 $704 #
straight-curve $-1 45.937681203650016 0 -14.167336101505592 0 -1 0 I I #
face $-1 $705 $706 $19 $-1 $707 reversed single #
loop $-1 $-1 $708 $623 #
plane-surface $-1 45.937681203650016 0 0 -1 0 0 0 0 1 forward_v I I I I #
coedge $-1 $709 $710 $708 $711 reversed $624 $-1 #
coedge $-1 $712 $626 $710 $713 reversed $564 $-1 #
coedge $-1 $626 $712 $714 $715 reversed $564 $-1 #
coedge $-1 $716 $708 $626 $677 forward $671 $-1 #
edge $-1 $717 3.6203278231539482 $718 19.821158959477472 $676 $719 forward 7 unknown #
coedge $-1 $720 $721 $627 $679 forward $706 $-1 #
edge $-1 $681 -45.937681203650016 $689 45.937681203650016 $627 $722 forward 7 unknown #
coedge $-1 $723 $628 $721 $724 reversed $639 $-1 #
vertex $-1 $679 $725 #
straight-curve $-1 -45.937681203650016 31.54190235079318 0 0 0 -1 I I #
straight-curve $-1 -19.397023612579751 28.960211701082677 14.16733610150559 -1 0 0 I I #
coedge $-1 $633 $632 $709 $726 forward $494 $-1 #
edge $-1 $640 -28.960211701082677 $727 15.341071214469657 $638 $728 forward 7 unknown #
coedge $-1 $708 $634 $633 $687 reversed $671 $-1 #
edge $-1 $729 -15.341071214469657 $636 31.54190235079318 $686 $730 forward 7 unknown #
coedge $-1 $634 $716 $720 $731 reversed $671 $-1 #
vertex $-1 $731 $732 #
straight-curve $-1 45.937681203650016 31.54190235079318 0 0 0 -1 I I #
point $-1 45.937681203650016 31.54190235079318 14.167336101505592 #
coedge $-1 $638 $733 $734 $735 forward $639 $-1 #
face $-1 $-1 $639 $19 $-1 $736 reversed single #
point $-1 -45.937681203650016 28.960211701082677 14.16733610150559 #
straight-curve $-1 -45.937681203650016 -11.720743391315709 8.2464298836266927 0 1 0 I I #
point $-1 -45.937681203650016 -15.341071214469657 8.2464298836266927 #
coedge $-1 $653 $652 $659 $700 reversed $644 $-1 #
point $-1 -45.937681203650016 -31.54190235079318 8.2464298836266927 #
straight-curve $-1 45.937681203650016 -31.54190235079318 0 0 0 -1 I I #
edge $-1 $668 -45.937681203650016 $661 45.937681203650016 $697 $737 forward 7 unknown #
straight-curve $-1 -45.937681203650016 -31.54190235079318 0 0 0 -1 I I #
point $-1 -45.937681203650016 -31.54190235079318 -14.167336101505592 #
straight-curve $-1 -45.937681203650016 -15.341071214469657 5.6034414962830708 0 0 1 I I #
point $-1 45.937681203650016 -31.54190235079318 -14.167336101505592 #
face $-1 $693 $738 $19 $-1 $739 reversed single #
loop $-1 $-1 $720 $670 #
plane-surface $-1 0 0 -14.167336101505592 0 0 1 1 0 0 forward_v I I I I #
coedge $-1 $676 $686 $673 $711 forward $671 $-1 #
coedge $-1 $734 $673 $684 $726 reversed $624 $-1 #
coedge $-1 $673 $734 $674 $713 forward $624 $-1 #
edge $-1 $729 -8.5638946052225187 $717 -2.642988387343622 $708 $740 forward 7 unknown #
coedge $-1 $675 $674 $733 $741 reversed $564 $-1 #
edge $-1 $742 -45.937681203650016 $717 45.937681203650016 $710 $743 forward 7 unknown #
coedge $-1 $744 $745 $675 $715 forward $738 $-1 #
edge $-1 $718 -45.937681203650016 $746 45.937681203650016 $714 $747 forward 7 unknown #
coedge $-1 $688 $676 $745 $748 forward $671 $-1 #
vertex $-1 $677 $749 #
vertex $-1 $748 $750 #
straight-curve $-1 45.937681203650016 -11.720743391315709 8.2464298836266927 0 -1 0 I I #
coedge $-1 $751 $678 $688 $731 forward $706 $-1 #
coedge $-1 $678 $751 $680 $724 forward $706 $-1 #
straight-curve $-1 0 31.54190235079318 -14.167336101505592 1 0 0 I I #
coedge $-1 $733 $680 $744 $752 reversed $639 $-1 #
edge $-1 $753 -31.54190235079318 $681 31.54190235079318 $680 $754 forward 7 unknown #
point $-1 -45.937681203650016 31.54190235079318 -14.167336101505592 #
edge $-1 $727 -45.937681203650016 $729 45.937681203650016 $684 $755 forward 7 unknown #
vertex $-1 $735 $756 #
straight-curve $-1 -45.937681203650016 0 14.167336101505592 0 -1 0 I I #
vertex $-1 $687 $757 #
straight-curve $-1 45.937681203650016 0 14.167336101505592 0 1 0 I I #
edge $-1 $689 -31.54190235079318 $758 31.54190235079318 $688 $759 forward 7 unknown #
point $-1 45.937681203650016 31.54190235079318 -14.167336101505592 #
coedge $-1 $692 $723 $712 $741 forward $639 $-1 #
coedge $-1 $710 $709 $692 $735 reversed $624 $-1 #
edge $-1 $742 2.642988387343622 $727 8.5638946052225187 $692 $760 forward 7 unknown #
plane-surface $-1 -45.937681203650016 0 0 1 0 0 0 0 -1 forward_v I I I I #
straight-curve $-1 0 -31.54190235079318 -14.167336101505592 -1 0 0 I I #
loop $-1 $-1 $714 $705 #
plane-surface $-1 0 -31.54190235079318 0 0 1 0 0 0 1 forward_v I I I I #
straight-curve $-1 45.937681203650016 -15.341071214469657 5.6034414962830708 0 0 -1 I I #
edge $-1 $746 -19.821158959477472 $742 -3.6203278231539482 $733 $761 forward 7 unknown #
vertex $-1 $741 $762 #
straight-curve $-1 0 -15.341071214469657 8.2464298836266927 1 0 0 I I #
coedge $-1 $763 $714 $723 $752 forward $738 $-1 #
coedge $-1 $714 $763 $716 $748 reversed $738 $-1 #
vertex $-1 $752 $764 #
straight-curve $-1 0 -31.54190235079318 8.2464298836266927 -1 0 0 I I #
edge $-1 $718 -8.2464298836266927 $758 14.167336101505592 $716 $765 forward 7 unknown #
point $-1 45.937681203650016 -15.341071214469657 8.2464298836266927 #
point $-1 45.937681203650016 -31.54190235079318 8.2464298836266927 #
coedge $-1 $721 $720 $763 $766 forward $706 $-1 #
edge $-1 $746 -8.2464298836266927 $753 14.167336101505592 $723 $767 forward 7 unknown #
vertex $-1 $724 $768 #
straight-curve $-1 -45.937681203650016 0 -14.167336101505592 0 1 0 I I #
straight-curve $-1 0 -15.341071214469657 14.167336101505592 1 0 0 I I #
point $-1 -45.937681203650016 -15.341071214469657 14.16733610150559 #
point $-1 45.937681203650016 -15.341071214469657 14.16733610150559 #
vertex $-1 $748 $769 #
straight-curve $-1 45.937681203650016 0 -14.167336101505592 0 -1 0 I I #
straight-curve $-1 -45.937681203650016 -15.341071214469657 5.6034414962830708 0 0 1 I I #
straight-curve $-1 -45.937681203650016 -11.720743391315709 8.2464298836266927 0 1 0 I I #
point $-1 -45.937681203650016 -15.341071214469657 8.2464298836266927 #
coedge $-1 $745 $744 $751 $766 reversed $738 $-1 #
point $-1 -45.937681203650016 -31.54190235079318 8.2464298836266927 #
straight-curve $-1 45.937681203650016 -31.54190235079318 0 0 0 -1 I I #
edge $-1 $758 -45.937681203650016 $753 45.937681203650016 $763 $770 forward 7 unknown #
straight-curve $-1 -45.937681203650016 -31.54190235079318 0 0 0 -1 I I #
point $-1 -45.937681203650016 -31.54190235079318 -14.167336101505592 #
point $-1 45.937681203650016 -31.54190235079318 -14.167336101505592 #
straight-curve $-1 0 -31.54190235079318 -14.167336101505592 -1 0 0 I I #
End-of-ACIS-data 