500 0 7 0           
7 Unknown 11 ACIS 5.0 NT 24 Thu Mar 25 15:27:01 1999 
-1 9.9999999999999995e-007 1e-010 
body $-1 $7 $-1 $8 #
body $-1 $9 $-1 $10 #
body $-1 $11 $-1 $12 #
body $-1 $13 $-1 $14 #
body $-1 $15 $-1 $16 #
body $-1 $17 $-1 $18 #
body $-1 $19 $-1 $20 #
lump $-1 $-1 $21 $0 #
transform $-1 1 0 0 0 1 0 0 0 1 76.414685506759852 43.548698253873802 18.900828801771322 1 rotate no_reflect no_shear #
lump $-1 $-1 $22 $1 #
transform $-1 1 0 0 0 1 0 0 0 1 76.414685506759852 43.548698253873802 18.900828801771322 1 rotate no_reflect no_shear #
lump $-1 $-1 $23 $2 #
transform $-1 1 0 0 0 1 0 0 0 1 76.414685506759852 43.548698253873802 18.900828801771322 1 rotate no_reflect no_shear #
lump $-1 $-1 $24 $3 #
transform $-1 1 0 0 0 1 0 0 0 1 76.414685506759852 43.548698253873802 18.900828801771322 1 rotate no_reflect no_shear #
lump $-1 $-1 $25 $4 #
transform $-1 1 0 0 0 1 0 0 0 1 76.414685506759852 43.548698253873802 18.900828801771322 1 rotate no_reflect no_shear #
lump $-1 $-1 $26 $5 #
transform $-1 1 0 0 0 1 0 0 0 1 76.414685506759852 43.548698253873802 18.900828801771322 1 rotate no_reflect no_shear #
lump $-1 $-1 $27 $6 #
transform $-1 1 0 0 0 1 0 0 0 1 76.414685506759852 43.548698253873802 18.900828801771322 1 rotate no_reflect no_shear #
shell $-1 $-1 $-1 $28 $-1 $7 #
shell $-1 $-1 $-1 $29 $-1 $9 #
shell $-1 $-1 $-1 $30 $-1 $11 #
shell $-1 $-1 $-1 $31 $-1 $13 #
shell $-1 $-1 $-1 $32 $-1 $15 #
shell $-1 $-1 $-1 $33 $-1 $17 #
shell $-1 $-1 $-1 $34 $-1 $19 #
face $-1 $35 $36 $21 $-1 $37 forward single #
face $-1 $38 $39 $22 $-1 $40 forward single #
face $-1 $41 $42 $23 $-1 $43 reversed single #
face $-1 $44 $45 $24 $-1 $46 forward single #
face $-1 $47 $48 $25 $-1 $49 forward single #
face $-1 $50 $51 $26 $-1 $52 reversed single #
face $-1 $53 $54 $27 $-1 $55 forward single #
face $-1 $56 $57 $21 $-1 $58 reversed single #
loop $-1 $-1 $59 $28 #
plane-surface $-1 0 0 18.900828801771322 0 0 1 1 0 0 forward_v I I I I #
face $-1 $60 $61 $22 $-1 $62 reversed single #
loop $-1 $-1 $63 $29 #
plane-surface $-1 -64.364433753235758 0 18.400828801771329 0 0 1 1 0 0 forward_v I I I I #
face $-1 $64 $65 $23 $-1 $66 reversed single #
loop $-1 $-1 $67 $30 #
plane-surface $-1 -37.343612250771088 -22.184540698934626 70.749449312881993 0 0.6560590369687036 0.75470957328743171 1 0 0 forward_v I I I I #
face $-1 $68 $69 $24 $-1 $70 forward single #
loop $-1 $71 $72 $31 #
cone-surface $-1 -43.759570714602759 38.762781630465824 14.250905760890832 0 -0.6560590369687036 -0.75470957328743171 1.5 0 0 1 I I 0 1 1.5 forward I I I I #
face $-1 $73 $74 $25 $-1 $75 forward single #
loop $-1 $76 $77 $32 #
cone-surface $-1 -30.927653786939416 38.762781630465824 14.250905760890832 0 -0.6560590369687036 -0.75470957328743171 1.5 0 0 1 I I 0 1 1.5 forward I I I I #
face $-1 $78 $79 $26 $-1 $80 reversed single #
loop $-1 $-1 $81 $33 #
plane-surface $-1 19.963174451540155 -143.81378822153624 125.36794447460147 1 0 0 0 0.6560590369687036 -0.75470957328743171 forward_v I I I I #
face $-1 $82 $83 $27 $-1 $84 forward single #
loop $-1 $85 $86 $34 #
cone-surface $-1 33.874590091781585 -36.761111657950345 12.527405192551571 0 0.6560590369687036 -0.75470957328743171 1.5 0 0 1 I I 0 1 1.5 forward I I I I #
face $-1 $87 $88 $21 $-1 $89 reversed single #
loop $-1 $-1 $90 $35 #
plane-surface $-1 0 0 -18.900828801771322 0 0 1 1 0 0 forward_v I I I I #
coedge $-1 $91 $92 $93 $94 forward $36 $-1 #
face $-1 $95 $96 $22 $-1 $97 reversed single #
loop $-1 $-1 $98 $38 #
plane-surface $-1 -64.364433753235758 0 14.487301073004648 0 0 1 1 0 0 forward_v I I I I #
coedge $-1 $99 $100 $101 $102 forward $39 $-1 #
face $-1 $103 $104 $23 $-1 $105 forward single #
loop $-1 $-1 $106 $41 #
plane-surface $-1 -22.373042501830515 78.080549268727822 186.09123869628203 -1 0 0 0 0.6560590369687036 0.75470957328743171 forward_v I I I I #
coedge $-1 $107 $108 $109 $110 reversed $42 $-1 #
face $-1 $-1 $111 $24 $-1 $112 forward single #
loop $-1 $113 $114 $44 #
cone-surface $-1 -43.759570714602759 36.528933345465724 11.681157322166545 0 -0.6560590369687036 -0.75470957328743171 0.75 0 0 1 I I -0.70710678118654757 0.70710678118654757 0.75 forward I I I I #
loop $-1 $-1 $115 $31 #
coedge $-1 $72 $72 $116 $117 reversed $45 $-1 #
face $-1 $-1 $118 $25 $-1 $119 forward single #
loop $-1 $120 $121 $47 #
cone-surface $-1 -30.927653786939416 36.528933345465724 11.681157322166545 0 -0.6560590369687036 -0.75470957328743171 0.75 0 0 1 I I -0.70710678118654757 0.70710678118654757 0.75 forward I I I I #
loop $-1 $-1 $122 $32 #
coedge $-1 $77 $77 $123 $124 reversed $48 $-1 #
face $-1 $125 $126 $26 $-1 $127 reversed single #
loop $-1 $-1 $128 $50 #
plane-surface $-1 33.874590091781585 -43.548698253873795 10.026155091201431 0 -0.6560590369687036 0.75470957328743171 1 0 0 forward_v I I I I #
coedge $-1 $129 $130 $131 $132 reversed $51 $-1 #
face $-1 $-1 $133 $27 $-1 $134 forward single #
loop $-1 $135 $136 $53 #
cone-surface $-1 33.874590091781585 -34.586052805833923 10.025286258651199 0 0.6560590369687036 -0.75470957328743171 0.75 0 0 1 I I -0.70710678118654757 0.70710678118654757 0.75 forward I I I I #
loop $-1 $-1 $137 $34 #
coedge $-1 $86 $86 $138 $139 reversed $54 $-1 #
face $-1 $140 $141 $21 $-1 $142 reversed single #
loop $-1 $-1 $143 $56 #
plane-surface $-1 0 -43.548698253873802 0 0 1 0 0 0 1 forward_v I I I I #
coedge $-1 $144 $145 $146 $147 forward $57 $-1 #
coedge $-1 $148 $59 $149 $150 forward $36 $-1 #
coedge $-1 $59 $148 $151 $152 forward $36 $-1 #
coedge $-1 $153 $154 $59 $94 reversed $155 $-1 #
edge $-1 $156 -43.548698253873802 $157 43.548698253873802 $93 $158 forward 7 unknown #
face $-1 $159 $160 $22 $-1 $161 reversed single #
loop $-1 $-1 $162 $60 #
plane-surface $-1 -52.314181999711664 0 16.444064937387989 -1 0 0 0 0 1 forward_v I I I I #
coedge $-1 $163 $164 $165 $166 forward $61 $-1 #
coedge $-1 $167 $63 $168 $169 reversed $39 $-1 #
coedge $-1 $63 $167 $170 $171 reversed $39 $-1 #
coedge $-1 $162 $172 $63 $102 reversed $96 $-1 #
edge $-1 $173 -43.548698253873802 $174 43.548698253873802 $101 $175 forward 7 unknown #
face $-1 $176 $177 $23 $-1 $178 forward single #
loop $-1 $-1 $179 $64 #
plane-surface $-1 -52.314181999711664 0 16.444064937387989 -1 0 0 0 0 1 forward_v I I I I #
coedge $-1 $180 $181 $182 $183 reversed $65 $-1 #
coedge $-1 $184 $67 $179 $185 forward $42 $-1 #
coedge $-1 $67 $184 $180 $186 forward $42 $-1 #
coedge $-1 $182 $187 $67 $110 forward $177 $-1 #
edge $-1 $188 -33.64237587432612 $189 -3.7012363764449709 $109 $190 forward 7 unknown #
loop $-1 $-1 $116 $68 #
plane-surface $-1 -37.343612250771088 -22.184540698934626 70.749449312881993 0 0.6560590369687036 0.75470957328743171 1 0 0 forward_v I I I I #
loop $-1 $-1 $191 $44 #
coedge $-1 $114 $114 $115 $192 reversed $69 $-1 #
coedge $-1 $115 $115 $114 $192 forward $71 $-1 #
coedge $-1 $116 $116 $72 $117 forward $111 $-1 #
edge $-1 $193 0 $193 6.2831853071796004 $116 $194 forward 7 unknown #
loop $-1 $-1 $123 $73 #
plane-surface $-1 -37.343612250771088 -22.184540698934626 70.749449312881993 0 0.6560590369687036 0.75470957328743171 1 0 0 forward_v I I I I #
loop $-1 $-1 $195 $47 #
coedge $-1 $121 $121 $122 $196 reversed $74 $-1 #
coedge $-1 $122 $122 $121 $196 forward $76 $-1 #
coedge $-1 $123 $123 $77 $124 forward $118 $-1 #
edge $-1 $197 0 $197 6.2831853071796004 $123 $198 forward 7 unknown #
face $-1 $199 $200 $26 $-1 $201 reversed single #
loop $-1 $-1 $202 $78 #
plane-surface $-1 47.786005732023014 -143.81378822153624 125.36794447460147 -1 0 0 0 -0.6560590369687036 0.75470957328743171 forward_v I I I I #
coedge $-1 $203 $204 $205 $206 reversed $79 $-1 #
coedge $-1 $130 $81 $207 $208 reversed $51 $-1 #
coedge $-1 $81 $129 $203 $209 reversed $51 $-1 #
coedge $-1 $205 $210 $81 $132 forward $200 $-1 #
edge $-1 $211 43.783143435529411 $212 52.657817146099312 $131 $213 forward 7 unknown #
loop $-1 $-1 $138 $82 #
plane-surface $-1 33.874590091781585 -43.548698253873795 10.026155091201431 0 -0.6560590369687036 0.75470957328743171 1 0 0 forward_v I I I I #
loop $-1 $-1 $214 $53 #
coedge $-1 $136 $136 $137 $215 reversed $83 $-1 #
coedge $-1 $137 $137 $136 $215 forward $85 $-1 #
coedge $-1 $138 $138 $86 $139 forward $133 $-1 #
edge $-1 $216 0 $216 6.2831853071796004 $138 $217 forward 7 unknown #
face $-1 $218 $219 $21 $-1 $220 reversed single #
loop $-1 $-1 $221 $87 #
plane-surface $-1 -76.414685506759852 0 0 1 0 0 0 0 -1 forward_v I I I I #
coedge $-1 $222 $151 $223 $224 forward $88 $-1 #
coedge $-1 $225 $90 $222 $226 forward $57 $-1 #
coedge $-1 $90 $225 $227 $228 forward $57 $-1 #
coedge $-1 $154 $153 $90 $147 reversed $155 $-1 #
edge $-1 $229 -43.548698253873802 $230 43.548698253873802 $146 $231 forward 7 unknown #
coedge $-1 $92 $91 $232 $233 forward $36 $-1 #
coedge $-1 $234 $235 $91 $150 reversed $219 $-1 #
edge $-1 $157 -76.414685506759852 $236 76.414685506759852 $149 $237 forward 7 unknown #
coedge $-1 $143 $238 $92 $152 reversed $88 $-1 #
edge $-1 $239 -76.414685506759852 $156 76.414685506759852 $151 $240 forward 7 unknown #
coedge $-1 $146 $93 $238 $241 forward $155 $-1 #
coedge $-1 $93 $146 $234 $242 reversed $155 $-1 #
loop $-1 $-1 $153 $218 #
vertex $-1 $94 $243 #
vertex $-1 $94 $244 #
straight-curve $-1 76.414685506759852 0 18.900828801771322 0 1 0 I I #
face $-1 $245 $246 $22 $-1 $247 reversed single #
loop $-1 $-1 $248 $95 #
plane-surface $-1 0 -43.548698253873802 0 0 1 0 0 0 1 forward_v I I I I #
coedge $-1 $165 $101 $249 $250 reversed $96 $-1 #
coedge $-1 $251 $98 $248 $252 reversed $61 $-1 #
coedge $-1 $98 $251 $253 $254 reversed $61 $-1 #
coedge $-1 $172 $162 $98 $166 reversed $96 $-1 #
edge $-1 $255 -43.548698253873802 $256 43.548698253873802 $165 $257 forward 7 unknown #
coedge $-1 $100 $99 $258 $259 reversed $39 $-1 #
coedge $-1 $260 $261 $99 $169 forward $262 $-1 #
edge $-1 $263 -44.232468630141973 $174 -20.131965123093785 $168 $264 forward 7 unknown #
coedge $-1 $265 $249 $100 $171 forward $160 $-1 #
edge $-1 $173 20.131965123093785 $266 44.232468630141973 $170 $267 forward 7 unknown #
coedge $-1 $101 $165 $260 $268 reversed $96 $-1 #
vertex $-1 $171 $269 #
vertex $-1 $169 $270 #
straight-curve $-1 -52.314181999711664 0 18.400828801771329 0 1 0 I I #
face $-1 $-1 $271 $23 $-1 $272 reversed single #
loop $-1 $-1 $182 $103 #
plane-surface $-1 0 0 18.900828801771322 0 0 1 1 0 0 forward_v I I I I #
coedge $-1 $273 $274 $107 $185 reversed $104 $-1 #
coedge $-1 $181 $106 $108 $186 reversed $65 $-1 #
coedge $-1 $106 $180 $275 $276 reversed $65 $-1 #
coedge $-1 $277 $109 $106 $183 forward $177 $-1 #
edge $-1 $189 -1.5798016127589491 $278 4.508423619509891 $182 $279 forward 7 unknown #
coedge $-1 $108 $107 $280 $281 reversed $42 $-1 #
edge $-1 $188 79.030418894426475 $282 87.09739650774759 $179 $283 forward 7 unknown #
edge $-1 $284 -87.09739650774759 $189 -79.030418894426475 $180 $285 forward 7 unknown #
coedge $-1 $109 $277 $273 $286 forward $177 $-1 #
vertex $-1 $286 $287 #
vertex $-1 $110 $288 #
straight-curve $-1 -18.671806125385544 37.460473021604948 18.900828801771333 1 0 0 I I #
coedge $-1 $191 $191 $-1 $289 reversed $113 $-1 #
edge $-1 $290 0 $290 6.2831853071796004 $114 $291 forward 7 unknown #
vertex $-1 $117 $292 #
ellipse-curve $-1 -43.759570714602759 40.504585637739396 16.254622019649545 0 0.6560590369687036 0.75470957328743171 1.5 0 0 1 I I #
coedge $-1 $195 $195 $-1 $293 reversed $120 $-1 #
edge $-1 $294 0 $294 6.2831853071796004 $121 $295 forward 7 unknown #
vertex $-1 $124 $296 #
ellipse-curve $-1 -30.927653786939416 40.504585637739396 16.254622019649545 0 0.6560590369687036 0.75470957328743171 1.5 0 0 1 I I #
face $-1 $-1 $297 $26 $-1 $298 forward single #
loop $-1 $-1 $131 $125 #
plane-surface $-1 0 -43.548698253873802 0 0 1 0 0 0 1 forward_v I I I I #
coedge $-1 $299 $300 $301 $302 reversed $126 $-1 #
coedge $-1 $303 $128 $130 $209 forward $79 $-1 #
coedge $-1 $128 $303 $299 $304 forward $79 $-1 #
coedge $-1 $301 $131 $128 $206 forward $200 $-1 #
edge $-1 $212 3.0258794056493628 $305 30.848710686132222 $205 $306 forward 7 unknown #
coedge $-1 $307 $308 $129 $208 forward $297 $-1 #
edge $-1 $309 -38.567339899961446 $211 -28.358195856894319 $207 $310 forward 7 unknown #
edge $-1 $212 -8.85871892118899e-015 $309 13.527248632341065 $130 $311 forward 7 unknown #
coedge $-1 $131 $301 $307 $312 reversed $200 $-1 #
vertex $-1 $312 $313 #
vertex $-1 $132 $314 #
straight-curve $-1 19.963174451540155 -43.548698253873802 62.683972237300736 0 0 -1 I I #
coedge $-1 $214 $214 $-1 $315 reversed $135 $-1 #
edge $-1 $316 0 $316 6.2831853071796004 $136 $317 forward 7 unknown #
vertex $-1 $139 $318 #
ellipse-curve $-1 33.874590091781585 -38.444126232340246 14.463491946486371 0 -0.6560590369687036 0.75470957328743171 1.5 0 0 1 I I #
face $-1 $-1 $155 $21 $-1 $319 reversed single #
loop $-1 $-1 $234 $140 #
plane-surface $-1 0 43.548698253873802 0 0 -1 0 0 0 -1 forward_v I I I I #
coedge $-1 $320 $232 $235 $321 forward $141 $-1 #
coedge $-1 $238 $143 $144 $226 reversed $88 $-1 #
coedge $-1 $232 $320 $143 $224 reversed $141 $-1 #
edge $-1 $239 -18.900828801771322 $322 18.900828801771322 $223 $323 forward 7 unknown #
coedge $-1 $145 $144 $320 $324 forward $57 $-1 #
edge $-1 $230 -76.414685506759852 $322 76.414685506759852 $222 $325 forward 7 unknown #
coedge $-1 $235 $234 $145 $228 reversed $219 $-1 #
edge $-1 $326 -76.414685506759852 $229 76.414685506759852 $227 $327 forward 7 unknown #
vertex $-1 $147 $328 #
vertex $-1 $241 $329 #
straight-curve $-1 76.414685506759852 0 -18.900828801771322 0 -1 0 I I #
coedge $-1 $221 $223 $148 $233 reversed $141 $-1 #
edge $-1 $236 -43.548698253873802 $239 43.548698253873802 $232 $330 forward 7 unknown #
coedge $-1 $227 $149 $154 $242 forward $219 $-1 #
coedge $-1 $149 $227 $221 $321 reversed $219 $-1 #
vertex $-1 $150 $331 #
straight-curve $-1 0 43.548698253873802 18.900828801771322 -1 0 0 I I #
coedge $-1 $151 $222 $153 $241 reversed $88 $-1 #
vertex $-1 $233 $332 #
straight-curve $-1 0 -43.548698253873802 18.900828801771322 1 0 0 I I #
edge $-1 $156 -18.900828801771322 $230 18.900828801771322 $153 $333 forward 7 unknown #
edge $-1 $157 -18.900828801771322 $229 18.900828801771322 $154 $334 forward 7 unknown #
point $-1 76.414685506759852 -43.548698253873802 18.900828801771322 #
point $-1 76.414685506759852 43.548698253873802 18.900828801771322 #
face $-1 $-1 $262 $22 $-1 $335 reversed single #
loop $-1 $-1 $336 $159 #
plane-surface $-1 -76.414685506759852 0 0 1 0 0 0 0 -1 forward_v I I I I #
coedge $-1 $249 $265 $163 $252 forward $160 $-1 #
coedge $-1 $170 $248 $162 $250 forward $160 $-1 #
edge $-1 $256 6.2652686043106538 $173 10.178796333077335 $249 $337 forward 7 unknown #
coedge $-1 $164 $163 $336 $338 reversed $61 $-1 #
edge $-1 $339 -44.232468630141973 $256 -20.131965123093785 $248 $340 forward 7 unknown #
coedge $-1 $261 $260 $164 $254 forward $262 $-1 #
edge $-1 $255 20.131965123093785 $341 44.232468630141973 $253 $342 forward 7 unknown #
vertex $-1 $254 $343 #
vertex $-1 $252 $344 #
straight-curve $-1 -52.314181999711664 0 14.487301073004648 0 -1 0 I I #
coedge $-1 $345 $346 $167 $259 forward $246 $-1 #
edge $-1 $266 -43.548698253873802 $263 43.548698253873802 $258 $347 forward 7 unknown #
coedge $-1 $253 $168 $172 $268 forward $262 $-1 #
coedge $-1 $168 $253 $345 $348 reversed $262 $-1 #
loop $-1 $-1 $253 $245 #
vertex $-1 $348 $349 #
straight-curve $-1 -32.182216876617879 43.548698253873802 18.400828801771329 1 0 0 I I #
coedge $-1 $248 $170 $346 $350 forward $160 $-1 #
vertex $-1 $350 $351 #
straight-curve $-1 -32.182216876617879 -43.548698253873802 18.400828801771329 -1 0 0 I I #
edge $-1 $174 -10.178796333077335 $255 -6.2652686043106538 $260 $352 forward 7 unknown #
point $-1 -52.314181999711664 -43.548698253873802 18.400828801771329 #
point $-1 -52.314181999711664 43.548698253873802 18.400828801771329 #
loop $-1 $-1 $353 $176 #
plane-surface $-1 0 43.548698253873802 0 0 -1 0 0 0 -1 forward_v I I I I #
coedge $-1 $274 $179 $187 $286 reversed $104 $-1 #
coedge $-1 $179 $273 $353 $354 reversed $104 $-1 #
coedge $-1 $280 $355 $181 $276 forward $271 $-1 #
edge $-1 $278 74.144790546369691 $284 79.437204110613237 $275 $356 forward 7 unknown #
coedge $-1 $187 $182 $355 $357 forward $177 $-1 #
vertex $-1 $357 $358 #
straight-curve $-1 -22.373042501830515 39.040274634363911 18.900828801771326 0 1 0 I I #
coedge $-1 $353 $275 $184 $281 forward $271 $-1 #
edge $-1 $284 3.7012363764449709 $282 33.64237587432612 $280 $359 forward 7 unknown #
vertex $-1 $354 $360 #
straight-curve $-1 -52.314181999711664 -22.184540698934626 70.749449312881993 0 0.75470957328743171 -0.6560590369687036 I I #
vertex $-1 $281 $361 #
straight-curve $-1 -22.373042501830515 -22.184540698934626 70.749449312881993 0 -0.75470957328743171 0.6560590369687036 I I #
edge $-1 $362 -4.508423619509891 $188 1.5798016127589491 $187 $363 forward 7 unknown #
point $-1 -52.314181999711664 37.460473021604962 18.900828801771326 #
point $-1 -22.373042501830515 37.460473021604962 18.900828801771326 #
edge $-1 $364 1 $364 0 $191 $-1 forward 7 unknown #
vertex $-1 $192 $365 #
ellipse-curve $-1 -43.759570714602759 37.020977623192252 12.247189502132118 0 0.6560590369687036 0.75470957328743171 1.5 0 0 1 I I #
point $-1 -42.259570714602759 40.504585637739396 16.254622019649545 #
edge $-1 $366 1 $366 0 $195 $-1 forward 7 unknown #
vertex $-1 $196 $367 #
ellipse-curve $-1 -30.927653786939416 37.020977623192252 12.247189502132118 0 0.6560590369687036 0.75470957328743171 1.5 0 0 1 I I #
point $-1 -29.427653786939416 40.504585637739396 16.254622019649545 #
loop $-1 $-1 $207 $199 #
plane-surface $-1 0 0 18.900828801771322 0 0 1 1 0 0 forward_v I I I I #
coedge $-1 $300 $202 $204 $304 reversed $126 $-1 #
coedge $-1 $202 $299 $368 $369 reversed $126 $-1 #
coedge $-1 $210 $205 $202 $302 forward $200 $-1 #
edge $-1 $305 -52.657817146099312 $370 -43.783143435529411 $301 $371 forward 7 unknown #
coedge $-1 $204 $203 $308 $372 reversed $79 $-1 #
edge $-1 $373 -13.527248632341065 $305 8.85871892118899e-015 $299 $374 forward 7 unknown #
vertex $-1 $206 $375 #
straight-curve $-1 16.937295045890792 -43.548698253873802 10.026155091201421 1 0 0 I I #
coedge $-1 $368 $207 $210 $312 forward $297 $-1 #
coedge $-1 $207 $368 $303 $372 forward $297 $-1 #
vertex $-1 $208 $376 #
straight-curve $-1 19.963174451540155 -71.906894110768121 18.900828801771326 0 -1 0 I I #
straight-curve $-1 19.963174451540155 -43.548698253873795 10.026155091201431 0 0.75470957328743171 0.6560590369687036 I I #
edge $-1 $211 19.963174451540155 $370 47.786005732023014 $210 $377 forward 7 unknown #
point $-1 19.963174451540155 -43.548698253873802 18.900828801771322 #
point $-1 19.963174451540155 -43.548698253873802 10.026155091201426 #
edge $-1 $378 1 $378 0 $214 $-1 forward 7 unknown #
vertex $-1 $215 $379 #
ellipse-curve $-1 33.874590091781585 -35.078097083560451 10.591318438616772 0 -0.6560590369687036 0.75470957328743171 1.5 0 0 1 I I #
point $-1 35.374590091781585 -38.444126232340246 14.463491946486371 #
plane-surface $-1 76.414685506759852 0 0 -1 0 0 0 0 1 forward_v I I I I #
coedge $-1 $223 $221 $225 $324 reversed $141 $-1 #
edge $-1 $236 -18.900828801771322 $326 18.900828801771322 $235 $380 forward 7 unknown #
vertex $-1 $324 $381 #
straight-curve $-1 -76.414685506759852 -43.548698253873802 0 0 0 -1 I I #
edge $-1 $322 -43.548698253873802 $326 43.548698253873802 $320 $382 forward 7 unknown #
straight-curve $-1 0 -43.548698253873802 -18.900828801771322 -1 0 0 I I #
vertex $-1 $228 $383 #
straight-curve $-1 0 43.548698253873802 -18.900828801771322 1 0 0 I I #
point $-1 76.414685506759852 43.548698253873802 -18.900828801771322 #
point $-1 76.414685506759852 -43.548698253873802 -18.900828801771322 #
straight-curve $-1 -76.414685506759852 0 18.900828801771322 0 -1 0 I I #
point $-1 -76.414685506759852 43.548698253873802 18.900828801771322 #
point $-1 -76.414685506759852 -43.548698253873802 18.900828801771322 #
straight-curve $-1 76.414685506759852 -43.548698253873802 0 0 0 -1 I I #
straight-curve $-1 76.414685506759852 43.548698253873802 0 0 0 -1 I I #
plane-surface $-1 0 43.548698253873802 0 0 -1 0 0 0 -1 forward_v I I I I #
coedge $-1 $346 $345 $251 $338 forward $246 $-1 #
straight-curve $-1 -52.314181999711664 -43.548698253873802 8.2220324686939943 0 0 1 I I #
edge $-1 $341 -43.548698253873802 $339 43.548698253873802 $336 $384 forward 7 unknown #
vertex $-1 $252 $385 #
straight-curve $-1 -32.182216876617879 -43.548698253873802 14.487301073004648 1 0 0 I I #
vertex $-1 $254 $386 #
straight-curve $-1 -32.182216876617879 43.548698253873802 14.487301073004648 -1 0 0 I I #
point $-1 -52.314181999711664 43.548698253873802 14.487301073004648 #
point $-1 -52.314181999711664 -43.548698253873802 14.487301073004648 #
coedge $-1 $336 $258 $261 $348 forward $246 $-1 #
coedge $-1 $258 $336 $265 $350 reversed $246 $-1 #
straight-curve $-1 -76.414685506759852 0 18.400828801771329 0 1 0 I I #
edge $-1 $263 -18.400828801771329 $341 -14.487301073004648 $261 $387 forward 7 unknown #
point $-1 -76.414685506759852 43.548698253873802 18.400828801771329 #
edge $-1 $266 -18.400828801771329 $339 -14.487301073004648 $346 $388 forward 7 unknown #
point $-1 -76.414685506759852 -43.548698253873802 18.400828801771329 #
straight-curve $-1 -52.314181999711664 43.548698253873802 8.2220324686939943 0 0 -1 I I #
coedge $-1 $355 $280 $274 $354 forward $271 $-1 #
edge $-1 $282 -79.437204110613237 $362 -74.144790546369691 $353 $389 forward 7 unknown #
coedge $-1 $275 $353 $277 $357 reversed $271 $-1 #
straight-curve $-1 -22.373042501830515 43.548698253873802 93.045619348141017 0 0 -1 I I #
edge $-1 $278 22.373042501830515 $362 52.314181999711664 $355 $390 forward 7 unknown #
point $-1 -22.373042501830515 43.548698253873802 18.900828801771322 #
straight-curve $-1 -18.671806125385544 43.548698253873795 13.608415237527787 -1 0 0 I I #
point $-1 -52.314181999711664 43.548698253873795 13.608415237527787 #
point $-1 -22.373042501830515 43.548698253873795 13.608415237527787 #
vertex $-1 $286 $391 #
straight-curve $-1 -52.314181999711664 39.040274634363911 18.900828801771326 0 -1 0 I I #
vertex $-1 $289 $392 #
point $-1 -42.259570714602759 37.020977623192252 12.247189502132118 #
vertex $-1 $293 $393 #
point $-1 -29.427653786939416 37.020977623192252 12.247189502132118 #
coedge $-1 $308 $307 $300 $369 forward $297 $-1 #
edge $-1 $370 28.358195856894319 $373 38.567339899961446 $368 $394 forward 7 unknown #
vertex $-1 $369 $395 #
straight-curve $-1 47.786005732023014 -43.548698253873802 62.683972237300736 0 0 1 I I #
edge $-1 $373 -30.848710686132222 $309 -3.0258794056493628 $308 $396 forward 7 unknown #
vertex $-1 $372 $397 #
straight-curve $-1 47.786005732023014 -43.548698253873795 10.026155091201431 0 -0.75470957328743171 -0.6560590369687036 I I #
point $-1 47.786005732023014 -43.548698253873802 10.026155091201426 #
point $-1 19.963174451540155 -33.339554210806675 18.900828801771322 #
straight-curve $-1 0 -43.548698253873802 18.900828801771322 1 0 0 I I #
vertex $-1 $315 $398 #
point $-1 35.374590091781585 -35.078097083560451 10.591318438616772 #
straight-curve $-1 -76.414685506759852 43.548698253873802 0 0 0 -1 I I #
point $-1 -76.414685506759852 -43.548698253873802 -18.900828801771322 #
straight-curve $-1 -76.414685506759852 0 -18.900828801771322 0 1 0 I I #
point $-1 -76.414685506759852 43.548698253873802 -18.900828801771322 #
straight-curve $-1 -76.414685506759852 0 14.487301073004648 0 -1 0 I I #
point $-1 -76.414685506759852 -43.548698253873802 14.487301073004648 #
point $-1 -76.414685506759852 43.548698253873802 14.487301073004648 #
straight-curve $-1 -76.414685506759852 43.548698253873802 0 0 0 -1 I I #
straight-curve $-1 -76.414685506759852 -43.548698253873802 0 0 0 -1 I I #
straight-curve $-1 -52.314181999711664 43.548698253873802 93.045619348141017 0 0 1 I I #
straight-curve $-1 0 43.548698253873802 18.900828801771322 -1 0 0 I I #
point $-1 -52.314181999711664 43.548698253873802 18.900828801771322 #
point $-1 -43.759570714602759 36.036889067739196 11.115125142200972 #
point $-1 -30.927653786939416 36.036889067739196 11.115125142200972 #
straight-curve $-1 47.786005732023014 -71.906894110768121 18.900828801771326 0 1 0 I I #
point $-1 47.786005732023014 -43.548698253873802 18.900828801771322 #
straight-curve $-1 16.937295045890792 -33.339554210806682 18.900828801771322 -1 0 0 I I #
point $-1 47.786005732023014 -33.339554210806675 18.900828801771322 #
point $-1 33.874590091781585 -34.094008528107395 9.4592540786856265 #
End-of-ACIS-data 