500 0 6 0           
7 Unknown 11 ACIS 5.0 NT 24 Fri Mar 26 02:11:39 1999 
-1 9.9999999999999995e-007 1e-010 
body $-1 $6 $-1 $7 #
body $-1 $8 $-1 $9 #
body $-1 $10 $-1 $11 #
body $-1 $12 $-1 $13 #
body $-1 $14 $-1 $15 #
body $-1 $16 $-1 $17 #
lump $-1 $-1 $18 $0 #
transform $-1 1 0 0 0 1 0 0 0 1 75.270851771599467 39.856314569316147 14.981848400838251 1 rotate no_reflect no_shear #
lump $-1 $-1 $19 $1 #
transform $-1 1 0 0 0 1 0 0 0 1 75.270851771599467 39.856314569316147 14.981848400838251 1 rotate no_reflect no_shear #
lump $-1 $-1 $20 $2 #
transform $-1 1 0 0 0 1 0 0 0 1 75.270851771599467 39.856314569316147 14.981848400838251 1 rotate no_reflect no_shear #
lump $-1 $-1 $21 $3 #
transform $-1 1 0 0 0 1 0 0 0 1 75.270851771599467 39.856314569316147 14.981848400838251 1 rotate no_reflect no_shear #
lump $-1 $-1 $22 $4 #
transform $-1 1 0 0 0 1 0 0 0 1 75.270851771599467 39.856314569316147 14.981848400838251 1 rotate no_reflect no_shear #
lump $-1 $-1 $23 $5 #
transform $-1 1 0 0 0 1 0 0 0 1 75.270851771599467 39.856314569316147 14.981848400838251 1 rotate no_reflect no_shear #
shell $-1 $-1 $-1 $24 $-1 $6 #
shell $-1 $-1 $-1 $25 $-1 $8 #
shell $-1 $-1 $-1 $26 $-1 $10 #
shell $-1 $-1 $-1 $27 $-1 $12 #
shell $-1 $-1 $-1 $28 $-1 $14 #
shell $-1 $-1 $-1 $29 $-1 $16 #
face $-1 $30 $31 $18 $-1 $32 forward single #
face $-1 $33 $34 $19 $-1 $35 reversed single #
face $-1 $36 $37 $20 $-1 $38 reversed single #
face $-1 $39 $40 $21 $-1 $41 forward single #
face $-1 $42 $43 $22 $-1 $44 forward single #
face $-1 $45 $46 $23 $-1 $47 forward single #
face $-1 $48 $49 $18 $-1 $50 reversed single #
loop $-1 $-1 $51 $24 #
plane-surface $-1 0 0 14.981848400838251 0 0 1 1 0 0 forward_v I I I I #
face $-1 $52 $53 $19 $-1 $54 reversed single #
loop $-1 $-1 $55 $25 #
plane-surface $-1 0 -32.94885350999354 11.881963278977747 0 0 1 1 0 0 forward_v I I I I #
face $-1 $56 $57 $20 $-1 $58 reversed single #
loop $-1 $-1 $59 $26 #
plane-surface $-1 -4.5040950972483245 32.235553556828329 129.38378392594197 0.84804810408105047 0 0.52991925155115449 0.52991925155115449 0 -0.84804810408105047 forward_v I I I I #
face $-1 $60 $61 $21 $-1 $62 forward single #
loop $-1 $63 $64 $27 #
cone-surface $-1 68.722239241276228 27.663096949335646 6.8471587136014813 -0.84804810408105047 0 -0.52991925155115449 0.79487887732673168 0 -1.2720721561215758 1 I I 0 1 1.5 forward I I I I #
face $-1 $65 $66 $22 $-1 $67 forward single #
loop $-1 $68 $69 $28 #
cone-surface $-1 68.722239241276228 32.235553556828329 6.8471587136014813 -0.84804810408105047 0 -0.52991925155115449 0.79487887732673168 0 -1.2720721561215758 1 I I 0 1 1.5 forward I I I I #
face $-1 $70 $71 $23 $-1 $72 forward single #
loop $-1 $73 $74 $29 #
cone-surface $-1 68.722239241276228 36.808010164321011 6.8471587136014813 -0.84804810408105047 0 -0.52991925155115449 0.79487887732673168 0 -1.2720721561215758 1 I I 0 1 1.5 forward I I I I #
face $-1 $75 $76 $18 $-1 $77 reversed single #
loop $-1 $-1 $78 $30 #
plane-surface $-1 0 0 -14.981848400838251 0 0 1 1 0 0 forward_v I I I I #
coedge $-1 $79 $80 $81 $82 forward $31 $-1 #
face $-1 $83 $84 $19 $-1 $85 reversed single #
loop $-1 $-1 $86 $33 #
plane-surface $-1 0 -26.041392450670937 13.431905839908 0 -1 0 0 0 -1 forward_v I I I I #
coedge $-1 $87 $88 $89 $90 reversed $34 $-1 #
face $-1 $91 $92 $20 $-1 $93 reversed single #
loop $-1 $-1 $94 $36 #
plane-surface $-1 123.16251117769309 24.614792544340517 209.15873079478973 0 1 0 0.84804810408105047 0 0.52991925155115449 forward_v I I I I #
coedge $-1 $95 $96 $97 $98 reversed $37 $-1 #
face $-1 $-1 $99 $21 $-1 $100 forward single #
loop $-1 $101 $102 $39 #
cone-surface $-1 65.681933602353439 27.663096949335646 4.9473649626201794 -0.84804810408105047 0 -0.52991925155115449 0.39743943866336584 0 -0.63603607806078788 1 I I -0.70710678118654757 0.70710678118654757 0.75 forward I I I I #
loop $-1 $-1 $103 $27 #
coedge $-1 $64 $64 $104 $105 reversed $40 $-1 #
face $-1 $-1 $106 $22 $-1 $107 forward single #
loop $-1 $108 $109 $42 #
cone-surface $-1 65.681933602353439 32.235553556828329 4.9473649626201794 -0.84804810408105047 0 -0.52991925155115449 0.39743943866336584 0 -0.63603607806078788 1 I I -0.70710678118654757 0.70710678118654757 0.75 forward I I I I #
loop $-1 $-1 $110 $28 #
coedge $-1 $69 $69 $111 $112 reversed $43 $-1 #
face $-1 $-1 $113 $23 $-1 $114 forward single #
loop $-1 $115 $116 $45 #
cone-surface $-1 65.681933602353439 36.808010164321011 4.9473649626201794 -0.84804810408105047 0 -0.52991925155115449 0.39743943866336584 0 -0.63603607806078788 1 I I -0.70710678118654757 0.70710678118654757 0.75 forward I I I I #
loop $-1 $-1 $117 $29 #
coedge $-1 $74 $74 $118 $119 reversed $46 $-1 #
face $-1 $120 $121 $18 $-1 $122 reversed single #
loop $-1 $-1 $123 $48 #
plane-surface $-1 0 -39.856314569316147 0 0 1 0 0 0 1 forward_v I I I I #
coedge $-1 $124 $125 $126 $127 forward $49 $-1 #
coedge $-1 $128 $51 $129 $130 forward $31 $-1 #
coedge $-1 $51 $128 $131 $132 forward $31 $-1 #
coedge $-1 $133 $134 $51 $82 reversed $135 $-1 #
edge $-1 $136 -39.856314569316147 $137 39.856314569316147 $81 $138 forward 7 unknown #
face $-1 $139 $140 $19 $-1 $141 reversed single #
loop $-1 $-1 $142 $52 #
plane-surface $-1 -75.270851771599467 0 0 1 0 0 0 0 -1 forward_v I I I I #
coedge $-1 $143 $144 $145 $146 reversed $53 $-1 #
coedge $-1 $147 $55 $148 $149 reversed $34 $-1 #
coedge $-1 $55 $147 $143 $150 forward $34 $-1 #
coedge $-1 $145 $151 $55 $90 forward $152 $-1 #
edge $-1 $153 -23.381887814319377 $154 -9.5669656956741669 $89 $155 forward 7 unknown #
face $-1 $156 $157 $20 $-1 $158 forward single #
loop $-1 $-1 $159 $56 #
plane-surface $-1 0 39.856314569316147 0 0 -1 0 0 0 -1 forward_v I I I I #
coedge $-1 $160 $161 $162 $163 reversed $57 $-1 #
coedge $-1 $164 $59 $159 $165 reversed $37 $-1 #
coedge $-1 $59 $164 $160 $166 forward $37 $-1 #
coedge $-1 $162 $167 $59 $98 forward $157 $-1 #
edge $-1 $168 -23.738537790901976 $169 -8.4970157659263528 $97 $170 forward 7 unknown #
loop $-1 $-1 $104 $60 #
plane-surface $-1 -4.5040950972483245 32.235553556828329 129.38378392594197 0.84804810408105047 0 0.52991925155115449 0.52991925155115449 0 -0.84804810408105047 forward_v I I I I #
loop $-1 $-1 $171 $39 #
coedge $-1 $102 $102 $103 $172 reversed $61 $-1 #
coedge $-1 $103 $103 $102 $172 forward $63 $-1 #
coedge $-1 $104 $104 $64 $105 forward $99 $-1 #
edge $-1 $173 0 $173 6.2831853071796004 $104 $174 forward 7 unknown #
loop $-1 $-1 $111 $65 #
plane-surface $-1 -4.5040950972483245 32.235553556828329 129.38378392594197 0.84804810408105047 0 0.52991925155115449 0.52991925155115449 0 -0.84804810408105047 forward_v I I I I #
loop $-1 $-1 $175 $42 #
coedge $-1 $109 $109 $110 $176 reversed $66 $-1 #
coedge $-1 $110 $110 $109 $176 forward $68 $-1 #
coedge $-1 $111 $111 $69 $112 forward $106 $-1 #
edge $-1 $177 0 $177 6.2831853071796004 $111 $178 forward 7 unknown #
loop $-1 $-1 $118 $70 #
plane-surface $-1 -4.5040950972483245 32.235553556828329 129.38378392594197 0.84804810408105047 0 0.52991925155115449 0.52991925155115449 0 -0.84804810408105047 forward_v I I I I #
loop $-1 $-1 $179 $45 #
coedge $-1 $116 $116 $117 $180 reversed $71 $-1 #
coedge $-1 $117 $117 $116 $180 forward $73 $-1 #
coedge $-1 $118 $118 $74 $119 forward $113 $-1 #
edge $-1 $181 0 $181 6.2831853071796004 $118 $182 forward 7 unknown #
face $-1 $183 $184 $18 $-1 $185 reversed single #
loop $-1 $-1 $186 $75 #
plane-surface $-1 -75.270851771599467 0 0 1 0 0 0 0 -1 forward_v I I I I #
coedge $-1 $187 $131 $188 $189 forward $76 $-1 #
coedge $-1 $190 $78 $187 $191 forward $49 $-1 #
coedge $-1 $78 $190 $192 $193 forward $49 $-1 #
coedge $-1 $134 $133 $78 $127 reversed $135 $-1 #
edge $-1 $194 -39.856314569316147 $195 39.856314569316147 $126 $196 forward 7 unknown #
coedge $-1 $80 $79 $197 $198 forward $31 $-1 #
coedge $-1 $199 $200 $79 $130 reversed $184 $-1 #
edge $-1 $137 -75.270851771599467 $201 75.270851771599467 $129 $202 forward 7 unknown #
coedge $-1 $123 $203 $80 $132 reversed $76 $-1 #
edge $-1 $204 -75.270851771599467 $136 75.270851771599467 $131 $205 forward 7 unknown #
coedge $-1 $126 $81 $203 $206 forward $135 $-1 #
coedge $-1 $81 $126 $199 $207 reversed $135 $-1 #
loop $-1 $-1 $133 $183 #
vertex $-1 $82 $208 #
vertex $-1 $82 $209 #
straight-curve $-1 75.270851771599467 0 14.981848400838251 0 1 0 I I #
face $-1 $210 $211 $19 $-1 $212 forward single #
loop $-1 $-1 $148 $83 #
plane-surface $-1 0 -39.856314569316147 0 0 1 0 0 0 1 forward_v I I I I #
coedge $-1 $213 $214 $215 $216 forward $84 $-1 #
coedge $-1 $215 $86 $88 $150 reversed $53 $-1 #
coedge $-1 $86 $215 $217 $218 reversed $53 $-1 #
coedge $-1 $219 $89 $86 $146 forward $152 $-1 #
edge $-1 $154 5.1660103590237467 $220 8.2658954808842537 $145 $221 forward 7 unknown #
coedge $-1 $88 $87 $213 $222 reversed $34 $-1 #
coedge $-1 $223 $224 $87 $149 forward $140 $-1 #
edge $-1 $225 -75.270851771599467 $153 75.270851771599467 $148 $226 forward 7 unknown #
edge $-1 $227 -75.270851771599467 $154 75.270851771599467 $143 $228 forward 7 unknown #
coedge $-1 $89 $219 $223 $229 forward $152 $-1 #
loop $-1 $-1 $145 $210 #
vertex $-1 $149 $230 #
vertex $-1 $90 $231 #
straight-curve $-1 75.270851771599467 -16.47442675499677 11.881963278977747 0 1 0 I I #
face $-1 $-1 $232 $20 $-1 $233 reversed single #
loop $-1 $-1 $97 $91 #
plane-surface $-1 0 0 14.981848400838251 0 0 1 1 0 0 forward_v I I I I #
coedge $-1 $234 $235 $95 $165 forward $92 $-1 #
coedge $-1 $161 $94 $96 $166 reversed $57 $-1 #
coedge $-1 $94 $160 $236 $237 reversed $57 $-1 #
coedge $-1 $238 $97 $94 $163 forward $157 $-1 #
edge $-1 $169 5.4009102438304097 $239 13.689596182752922 $162 $240 forward 7 unknown #
coedge $-1 $96 $95 $241 $242 reversed $37 $-1 #
edge $-1 $243 -94.486463863160765 $168 -78.845050733405131 $159 $244 forward 7 unknown #
edge $-1 $245 -150.54170354319899 $169 -134.90029041344334 $160 $246 forward 7 unknown #
coedge $-1 $97 $238 $234 $247 forward $157 $-1 #
vertex $-1 $98 $248 #
vertex $-1 $98 $249 #
straight-curve $-1 66.982165832676941 16.117776778414164 14.981848400838246 0 -1 0 I I #
coedge $-1 $171 $171 $-1 $250 reversed $101 $-1 #
edge $-1 $251 0 $251 6.2831853071796004 $102 $252 forward 7 unknown #
vertex $-1 $105 $253 #
ellipse-curve $-1 71.12650880213819 27.663096949335646 8.3495130259193893 0.84804810408105047 0 0.52991925155115449 0.79487887732673168 0 -1.2720721561215758 1 I I #
coedge $-1 $175 $175 $-1 $254 reversed $108 $-1 #
edge $-1 $255 0 $255 6.2831853071796004 $109 $256 forward 7 unknown #
vertex $-1 $112 $257 #
ellipse-curve $-1 71.12650880213819 32.235553556828329 8.3495130259193893 0.84804810408105047 0 0.52991925155115449 0.79487887732673168 0 -1.2720721561215758 1 I I #
coedge $-1 $179 $179 $-1 $258 reversed $115 $-1 #
edge $-1 $259 0 $259 6.2831853071796004 $116 $260 forward 7 unknown #
vertex $-1 $119 $261 #
ellipse-curve $-1 71.12650880213819 36.808010164321011 8.3495130259193893 0.84804810408105047 0 0.52991925155115449 0.79487887732673168 0 -1.2720721561215758 1 I I #
face $-1 $-1 $135 $18 $-1 $262 reversed single #
loop $-1 $-1 $199 $120 #
plane-surface $-1 0 39.856314569316147 0 0 -1 0 0 0 -1 forward_v I I I I #
coedge $-1 $263 $197 $200 $264 forward $121 $-1 #
coedge $-1 $203 $123 $124 $191 reversed $76 $-1 #
coedge $-1 $197 $263 $123 $189 reversed $121 $-1 #
edge $-1 $204 -14.981848400838251 $265 14.981848400838251 $188 $266 forward 7 unknown #
coedge $-1 $125 $124 $263 $267 forward $49 $-1 #
edge $-1 $195 -75.270851771599467 $265 75.270851771599467 $187 $268 forward 7 unknown #
coedge $-1 $200 $199 $125 $193 reversed $184 $-1 #
edge $-1 $269 -75.270851771599467 $194 75.270851771599467 $192 $270 forward 7 unknown #
vertex $-1 $127 $271 #
vertex $-1 $206 $272 #
straight-curve $-1 75.270851771599467 0 -14.981848400838251 0 -1 0 I I #
coedge $-1 $186 $188 $128 $198 reversed $121 $-1 #
edge $-1 $201 -39.856314569316147 $204 39.856314569316147 $197 $273 forward 7 unknown #
coedge $-1 $192 $129 $134 $207 forward $184 $-1 #
coedge $-1 $129 $192 $186 $264 reversed $184 $-1 #
vertex $-1 $130 $274 #
straight-curve $-1 0 39.856314569316147 14.981848400838251 -1 0 0 I I #
coedge $-1 $131 $187 $133 $206 reversed $76 $-1 #
vertex $-1 $198 $275 #
straight-curve $-1 0 -39.856314569316147 14.981848400838251 1 0 0 I I #
edge $-1 $136 -14.981848400838251 $195 14.981848400838251 $133 $276 forward 7 unknown #
edge $-1 $137 -14.981848400838251 $194 14.981848400838251 $134 $277 forward 7 unknown #
point $-1 75.270851771599467 -39.856314569316147 14.981848400838251 #
point $-1 75.270851771599467 39.856314569316147 14.981848400838251 #
face $-1 $-1 $152 $19 $-1 $278 reversed single #
loop $-1 $-1 $217 $139 #
plane-surface $-1 0 0 14.981848400838251 0 0 1 1 0 0 forward_v I I I I #
coedge $-1 $279 $142 $147 $222 forward $84 $-1 #
coedge $-1 $142 $279 $280 $281 reversed $84 $-1 #
coedge $-1 $144 $143 $142 $216 reversed $53 $-1 #
edge $-1 $282 -8.2658954808842537 $227 -5.1660103590237467 $142 $283 forward 7 unknown #
coedge $-1 $280 $284 $144 $218 forward $211 $-1 #
edge $-1 $220 -75.270851771599467 $282 75.270851771599467 $217 $285 forward 7 unknown #
coedge $-1 $151 $145 $284 $286 reversed $152 $-1 #
vertex $-1 $146 $287 #
straight-curve $-1 75.270851771599467 -26.041392450670937 6.7159529199539998 0 0 1 I I #
edge $-1 $227 9.5669656956741669 $225 23.381887814319377 $213 $288 forward 7 unknown #
coedge $-1 $289 $148 $151 $229 reversed $140 $-1 #
coedge $-1 $148 $289 $279 $290 forward $140 $-1 #
vertex $-1 $149 $291 #
straight-curve $-1 0 -39.856314569316147 11.881963278977747 1 0 0 I I #
vertex $-1 $222 $292 #
straight-curve $-1 0 -26.041392450670937 11.881963278977747 1 0 0 I I #
edge $-1 $293 -14.981848400838251 $153 -11.881963278977747 $151 $294 forward 7 unknown #
point $-1 75.270851771599467 -39.856314569316147 11.881963278977747 #
point $-1 75.270851771599467 -26.041392450670937 11.881963278977747 #
loop $-1 $-1 $241 $156 #
plane-surface $-1 75.270851771599467 0 0 -1 0 0 0 0 1 forward_v I I I I #
coedge $-1 $235 $159 $167 $247 reversed $92 $-1 #
coedge $-1 $159 $234 $295 $296 forward $92 $-1 #
coedge $-1 $241 $297 $161 $237 forward $232 $-1 #
edge $-1 $239 89.597516996556621 $245 102.86218774639435 $236 $298 forward 7 unknown #
coedge $-1 $167 $162 $297 $299 forward $157 $-1 #
vertex $-1 $299 $300 #
straight-curve $-1 61.581255588846545 24.614792544340517 14.981848400838246 1 0 0 I I #
coedge $-1 $295 $236 $164 $242 forward $232 $-1 #
edge $-1 $245 8.4970157659263528 $243 23.738537790901976 $241 $301 forward 7 unknown #
vertex $-1 $242 $302 #
straight-curve $-1 25.200655559518104 39.856314569316147 81.846244191476686 -0.52991925155115449 0 0.84804810408105047 I I #
vertex $-1 $242 $303 #
straight-curve $-1 -4.5040950972483245 24.614792544340517 129.38378392594197 -0.52991925155115449 0 0.84804810408105047 I I #
edge $-1 $304 -75.270851771599467 $168 -66.982165832676955 $234 $305 forward 7 unknown #
point $-1 66.982165832676955 39.85631456931614 14.981848400838231 #
point $-1 66.982165832676955 24.614792544340517 14.981848400838231 #
edge $-1 $306 1 $306 0 $171 $-1 forward 7 unknown #
vertex $-1 $172 $307 #
ellipse-curve $-1 66.317969680414222 27.663096949335646 5.3448044012835449 0.84804810408105047 0 0.52991925155115449 0.79487887732673168 0 -1.2720721561215758 1 I I #
point $-1 71.921387679464971 27.663096949335646 7.0774408697978419 #
edge $-1 $308 1 $308 0 $175 $-1 forward 7 unknown #
vertex $-1 $176 $309 #
ellipse-curve $-1 66.317969680414222 32.235553556828329 5.3448044012835449 0.84804810408105047 0 0.52991925155115449 0.79487887732673168 0 -1.2720721561215758 1 I I #
point $-1 71.921387679464971 32.235553556828329 7.0774408697978419 #
edge $-1 $310 1 $310 0 $179 $-1 forward 7 unknown #
vertex $-1 $180 $311 #
ellipse-curve $-1 66.317969680414222 36.808010164321011 5.3448044012835449 0.84804810408105047 0 0.52991925155115449 0.79487887732673168 0 -1.2720721561215758 1 I I #
point $-1 71.921387679464971 36.808010164321011 7.0774408697978419 #
plane-surface $-1 75.270851771599467 0 0 -1 0 0 0 0 1 forward_v I I I I #
coedge $-1 $188 $186 $190 $267 reversed $121 $-1 #
edge $-1 $201 -14.981848400838251 $269 14.981848400838251 $200 $312 forward 7 unknown #
vertex $-1 $267 $313 #
straight-curve $-1 -75.270851771599467 -39.856314569316147 0 0 0 -1 I I #
edge $-1 $265 -39.856314569316147 $269 39.856314569316147 $263 $314 forward 7 unknown #
straight-curve $-1 0 -39.856314569316147 -14.981848400838251 -1 0 0 I I #
vertex $-1 $193 $315 #
straight-curve $-1 0 39.856314569316147 -14.981848400838251 1 0 0 I I #
point $-1 75.270851771599467 39.856314569316147 -14.981848400838251 #
point $-1 75.270851771599467 -39.856314569316147 -14.981848400838251 #
straight-curve $-1 -75.270851771599467 0 14.981848400838251 0 -1 0 I I #
point $-1 -75.270851771599467 39.856314569316147 14.981848400838251 #
point $-1 -75.270851771599467 -39.856314569316147 14.981848400838251 #
straight-curve $-1 75.270851771599467 -39.856314569316147 0 0 0 -1 I I #
straight-curve $-1 75.270851771599467 39.856314569316147 0 0 0 -1 I I #
plane-surface $-1 75.270851771599467 0 0 -1 0 0 0 0 1 forward_v I I I I #
coedge $-1 $214 $213 $224 $290 reversed $84 $-1 #
coedge $-1 $316 $217 $214 $281 forward $211 $-1 #
edge $-1 $282 26.041392450670937 $317 39.856314569316147 $214 $318 forward 7 unknown #
vertex $-1 $281 $319 #
straight-curve $-1 -75.270851771599467 -26.041392450670937 6.7159529199539998 0 0 -1 I I #
coedge $-1 $217 $316 $219 $286 forward $211 $-1 #
straight-curve $-1 0 -26.041392450670937 14.981848400838251 -1 0 0 I I #
edge $-1 $293 -39.856314569316147 $220 -26.041392450670937 $219 $320 forward 7 unknown #
point $-1 75.270851771599467 -26.041392450670937 14.981848400838253 #
straight-curve $-1 -75.270851771599467 -16.47442675499677 11.881963278977747 0 -1 0 I I #
coedge $-1 $224 $223 $316 $321 reversed $140 $-1 #
edge $-1 $317 -14.981848400838251 $225 -11.881963278977747 $279 $322 forward 7 unknown #
point $-1 -75.270851771599467 -39.856314569316147 11.881963278977747 #
point $-1 -75.270851771599467 -26.041392450670937 11.881963278977747 #
vertex $-1 $286 $323 #
straight-curve $-1 75.270851771599467 -39.856314569316147 0 0 0 -1 I I #
coedge $-1 $297 $241 $235 $296 reversed $232 $-1 #
edge $-1 $304 -14.981848400838251 $243 -1.7171776510005117 $295 $324 forward 7 unknown #
coedge $-1 $236 $295 $238 $299 reversed $232 $-1 #
straight-curve $-1 75.270851771599467 24.614792544340517 104.57936539739487 0 0 -1 I I #
edge $-1 $239 24.614792544340517 $304 39.856314569316147 $297 $325 forward 7 unknown #
point $-1 75.270851771599467 24.614792544340517 14.981848400838251 #
straight-curve $-1 75.270851771599467 16.117776778414164 1.7171776510005188 0 1 0 I I #
point $-1 75.270851771599467 39.85631456931614 1.7171776510005117 #
point $-1 75.270851771599467 24.614792544340517 1.7171776510005117 #
vertex $-1 $299 $326 #
straight-curve $-1 0 39.856314569316147 14.981848400838251 -1 0 0 I I #
vertex $-1 $250 $327 #
point $-1 67.112848557740961 27.663096949335646 4.0727322451619692 #
vertex $-1 $254 $328 #
point $-1 67.112848557740961 32.235553556828329 4.0727322451619692 #
vertex $-1 $258 $329 #
point $-1 67.112848557740961 36.808010164321011 4.0727322451619692 #
straight-curve $-1 -75.270851771599467 39.856314569316147 0 0 0 -1 I I #
point $-1 -75.270851771599467 -39.856314569316147 -14.981848400838251 #
straight-curve $-1 -75.270851771599467 0 -14.981848400838251 0 1 0 I I #
point $-1 -75.270851771599467 39.856314569316147 -14.981848400838251 #
coedge $-1 $284 $280 $289 $321 forward $211 $-1 #
vertex $-1 $281 $330 #
straight-curve $-1 -75.270851771599467 0 14.981848400838251 0 -1 0 I I #
point $-1 -75.270851771599467 -26.041392450670937 14.981848400838253 #
straight-curve $-1 75.270851771599467 0 14.981848400838251 0 1 0 I I #
edge $-1 $317 -75.270851771599467 $293 75.270851771599467 $289 $331 forward 7 unknown #
straight-curve $-1 -75.270851771599467 -39.856314569316147 0 0 0 -1 I I #
point $-1 75.270851771599467 -39.856314569316147 14.981848400838251 #
straight-curve $-1 75.270851771599467 39.856314569316147 0 0 0 -1 I I #
straight-curve $-1 75.270851771599467 0 14.981848400838251 0 1 0 I I #
point $-1 75.270851771599467 39.856314569316147 14.981848400838251 #
point $-1 65.045897524292656 27.663096949335646 4.5499255239568139 #
point $-1 65.045897524292656 32.235553556828329 4.5499255239568139 #
point $-1 65.045897524292656 36.808010164321011 4.5499255239568139 #
point $-1 -75.270851771599467 -39.856314569316147 14.981848400838251 #
straight-curve $-1 0 -39.856314569316147 14.981848400838251 1 0 0 I I #
End-of-ACIS-data 