500 0 7 0           
7 Unknown 11 ACIS 5.0 NT 24 Thu Mar 25 17:10:15 1999 
-1 9.9999999999999995e-007 1e-010 
body $-1 $7 $-1 $8 #
body $-1 $9 $-1 $10 #
body $-1 $11 $-1 $12 #
body $-1 $13 $-1 $14 #
body $-1 $15 $-1 $16 #
body $-1 $17 $-1 $18 #
body $-1 $19 $-1 $20 #
lump $-1 $-1 $21 $0 #
transform $-1 1 0 0 0 1 0 0 0 1 70.668660542619094 47.16082238079489 23.133947153332027 1 rotate no_reflect no_shear #
lump $-1 $-1 $22 $1 #
transform $-1 1 0 0 0 1 0 0 0 1 70.668660542619094 47.16082238079489 23.133947153332027 1 rotate no_reflect no_shear #
lump $-1 $-1 $23 $2 #
transform $-1 1 0 0 0 1 0 0 0 1 70.668660542619094 47.16082238079489 23.133947153332027 1 rotate no_reflect no_shear #
lump $-1 $-1 $24 $3 #
transform $-1 1 0 0 0 1 0 0 0 1 70.668660542619094 47.16082238079489 23.133947153332027 1 rotate no_reflect no_shear #
lump $-1 $-1 $25 $4 #
transform $-1 1 0 0 0 1 0 0 0 1 70.668660542619094 47.16082238079489 23.133947153332027 1 rotate no_reflect no_shear #
lump $-1 $-1 $26 $5 #
transform $-1 1 0 0 0 1 0 0 0 1 70.668660542619094 47.16082238079489 23.133947153332027 1 rotate no_reflect no_shear #
lump $-1 $-1 $27 $6 #
transform $-1 1 0 0 0 1 0 0 0 1 70.668660542619094 47.16082238079489 23.133947153332027 1 rotate no_reflect no_shear #
shell $-1 $-1 $-1 $28 $-1 $7 #
shell $-1 $-1 $-1 $29 $-1 $9 #
shell $-1 $-1 $-1 $30 $-1 $11 #
shell $-1 $-1 $-1 $31 $-1 $13 #
shell $-1 $-1 $-1 $32 $-1 $15 #
shell $-1 $-1 $-1 $33 $-1 $17 #
shell $-1 $-1 $-1 $34 $-1 $19 #
face $-1 $35 $36 $21 $-1 $37 forward single #
face $-1 $38 $39 $22 $-1 $40 forward single #
face $-1 $41 $42 $23 $-1 $43 reversed single #
face $-1 $44 $45 $24 $-1 $46 forward single #
face $-1 $47 $48 $25 $-1 $49 forward single #
face $-1 $50 $51 $26 $-1 $52 reversed single #
face $-1 $53 $54 $27 $-1 $55 forward single #
face $-1 $56 $57 $21 $-1 $58 reversed single #
loop $-1 $-1 $59 $28 #
plane-surface $-1 0 0 23.133947153332027 0 0 1 1 0 0 forward_v I I I I #
face $-1 $60 $61 $22 $-1 $62 reversed single #
loop $-1 $-1 $63 $29 #
plane-surface $-1 0 -47.16082238079489 0 0 1 0 0 0 1 forward_v I I I I #
face $-1 $64 $65 $23 $-1 $66 reversed single #
loop $-1 $-1 $67 $30 #
plane-surface $-1 -168.84981484614312 18.419039593086318 110.31314070367048 0 1 0 -0.69465837861970381 0 0.71933979245794832 forward_v I I I I #
face $-1 $68 $69 $24 $-1 $70 forward single #
loop $-1 $71 $72 $31 #
cone-surface $-1 -61.874766018100615 24.313373169805338 14.551596231909006 0.69465837861970381 0 -0.71933979245794832 1.4386795849158966 0 1.3893167572394076 1 I I 0 1 2 forward I I I I #
face $-1 $73 $74 $25 $-1 $75 forward single #
loop $-1 $76 $77 $32 #
cone-surface $-1 -61.874766018100615 33.154873534883869 14.551596231909006 0.69465837861970381 0 -0.71933979245794832 1.4386795849158966 0 1.3893167572394076 1 I I 0 1 2 forward I I I I #
face $-1 $78 $79 $26 $-1 $80 reversed single #
loop $-1 $-1 $81 $33 #
plane-surface $-1 56.725658015708063 35.88779552688063 201.977437716325 0 1 0 0.6560590369687036 0 0.75470957328743171 forward_v I I I I #
face $-1 $82 $83 $27 $-1 $84 forward single #
loop $-1 $85 $86 $34 #
cone-surface $-1 57.075206943797184 41.524308953837767 10.818986377958431 -0.6560590369687036 0 -0.75470957328743171 1.1320643599311475 0 -0.9840885554530554 1 I I 0 1 1.5 forward I I I I #
face $-1 $87 $88 $21 $-1 $89 reversed single #
loop $-1 $-1 $90 $35 #
plane-surface $-1 0 0 -23.133947153332027 0 0 1 1 0 0 forward_v I I I I #
coedge $-1 $91 $92 $93 $94 forward $36 $-1 #
face $-1 $95 $96 $22 $-1 $97 forward single #
loop $-1 $-1 $98 $38 #
plane-surface $-1 -70.668660542619094 0 0 1 0 0 0 0 -1 forward_v I I I I #
coedge $-1 $99 $100 $101 $102 forward $39 $-1 #
face $-1 $103 $104 $23 $-1 $105 reversed single #
loop $-1 $-1 $106 $41 #
plane-surface $-1 -70.668660542619079 28.734123352344604 8.6435814876528383 -0.69465837861970381 0 0.71933979245794832 0.71933979245794832 0 0.69465837861970381 forward_v I I I I #
coedge $-1 $107 $108 $109 $110 reversed $42 $-1 #
face $-1 $-1 $111 $24 $-1 $112 forward single #
loop $-1 $113 $114 $44 #
cone-surface $-1 -59.888819396989192 24.313373169805338 12.495088350867615 0.69465837861970381 0 -0.71933979245794832 0.71933979245794832 0 0.69465837861970381 1 I I -0.70710678118654746 0.70710678118654746 1 forward I I I I #
loop $-1 $-1 $115 $31 #
coedge $-1 $72 $72 $116 $117 reversed $45 $-1 #
face $-1 $-1 $118 $25 $-1 $119 forward single #
loop $-1 $120 $121 $47 #
cone-surface $-1 -59.888819396989192 33.154873534883869 12.495088350867615 0.69465837861970381 0 -0.71933979245794832 0.71933979245794832 0 0.69465837861970381 1 I I -0.70710678118654746 0.70710678118654746 1 forward I I I I #
loop $-1 $-1 $122 $32 #
coedge $-1 $77 $77 $123 $124 reversed $48 $-1 #
face $-1 $125 $126 $26 $-1 $127 reversed single #
loop $-1 $-1 $128 $50 #
plane-surface $-1 -35.999968743209749 41.524308953837767 95.308808430496157 0.6560590369687036 0 0.75470957328743171 0.75470957328743171 0 -0.6560590369687036 forward_v I I I I #
coedge $-1 $129 $130 $131 $132 reversed $51 $-1 #
face $-1 $-1 $133 $27 $-1 $134 forward single #
loop $-1 $135 $136 $53 #
cone-surface $-1 54.810184492087885 41.524308953837767 8.2133761634960969 -0.6560590369687036 0 -0.75470957328743171 0.56603217996557376 0 -0.4920442777265277 1 I I -0.70710678118654757 0.70710678118654757 0.75 forward I I I I #
loop $-1 $-1 $137 $34 #
coedge $-1 $86 $86 $138 $139 reversed $54 $-1 #
face $-1 $140 $141 $21 $-1 $142 reversed single #
loop $-1 $-1 $143 $56 #
plane-surface $-1 0 -47.16082238079489 0 0 1 0 0 0 1 forward_v I I I I #
coedge $-1 $144 $145 $146 $147 forward $57 $-1 #
coedge $-1 $148 $59 $149 $150 forward $36 $-1 #
coedge $-1 $59 $148 $151 $152 forward $36 $-1 #
coedge $-1 $153 $154 $59 $94 reversed $155 $-1 #
edge $-1 $156 -47.16082238079489 $157 47.16082238079489 $93 $158 forward 7 unknown #
face $-1 $159 $160 $22 $-1 $161 reversed single #
loop $-1 $-1 $162 $60 #
plane-surface $-1 0 -56.186641259472438 -4.7569543244172756 0 0 1 1 0 0 forward_v I I I I #
coedge $-1 $163 $164 $100 $165 forward $61 $-1 #
coedge $-1 $166 $63 $167 $168 reversed $39 $-1 #
coedge $-1 $63 $166 $98 $165 reversed $39 $-1 #
coedge $-1 $169 $162 $63 $102 reversed $96 $-1 #
edge $-1 $170 -70.668660542619094 $171 70.668660542619094 $101 $172 forward 7 unknown #
face $-1 $173 $174 $23 $-1 $175 forward single #
loop $-1 $-1 $176 $64 #
plane-surface $-1 -168.84981484614312 39.04920711160289 110.31314070367048 0 -1 0 0.69465837861970381 0 -0.71933979245794832 forward_v I I I I #
coedge $-1 $177 $178 $179 $180 reversed $65 $-1 #
coedge $-1 $108 $67 $181 $182 reversed $42 $-1 #
coedge $-1 $67 $107 $177 $183 reversed $42 $-1 #
coedge $-1 $179 $184 $67 $110 forward $174 $-1 #
edge $-1 $185 13.756246880452466 $186 28.761459444506031 $109 $187 forward 7 unknown #
loop $-1 $-1 $116 $68 #
plane-surface $-1 -70.668660542619079 28.734123352344604 8.6435814876528383 -0.69465837861970381 0 0.71933979245794832 0.71933979245794832 0 0.69465837861970381 forward_v I I I I #
loop $-1 $-1 $188 $44 #
coedge $-1 $114 $114 $115 $189 reversed $69 $-1 #
coedge $-1 $115 $115 $114 $189 forward $71 $-1 #
coedge $-1 $116 $116 $72 $117 forward $111 $-1 #
edge $-1 $190 0 $190 6.2831853071796004 $116 $191 forward 7 unknown #
loop $-1 $-1 $123 $73 #
plane-surface $-1 -70.668660542619079 28.734123352344604 8.6435814876528383 -0.69465837861970381 0 0.71933979245794832 0.71933979245794832 0 0.69465837861970381 forward_v I I I I #
loop $-1 $-1 $192 $47 #
coedge $-1 $121 $121 $122 $193 reversed $74 $-1 #
coedge $-1 $122 $122 $121 $193 forward $76 $-1 #
coedge $-1 $123 $123 $77 $124 forward $118 $-1 #
edge $-1 $194 0 $194 6.2831853071796004 $123 $195 forward 7 unknown #
face $-1 $196 $197 $26 $-1 $198 forward single #
loop $-1 $-1 $199 $78 #
plane-surface $-1 0 47.16082238079489 0 0 -1 0 0 0 -1 forward_v I I I I #
coedge $-1 $200 $201 $202 $203 reversed $79 $-1 #
coedge $-1 $130 $81 $204 $205 reversed $51 $-1 #
coedge $-1 $81 $129 $200 $206 reversed $51 $-1 #
coedge $-1 $202 $207 $81 $132 forward $208 $-1 #
edge $-1 $209 77.854771704830469 $210 98.405537186584155 $131 $211 forward 7 unknown #
loop $-1 $-1 $138 $82 #
plane-surface $-1 -35.999968743209749 41.524308953837767 95.308808430496157 0.6560590369687036 0 0.75470957328743171 0.75470957328743171 0 -0.6560590369687036 forward_v I I I I #
loop $-1 $-1 $212 $53 #
coedge $-1 $136 $136 $137 $213 reversed $83 $-1 #
coedge $-1 $137 $137 $136 $213 forward $85 $-1 #
coedge $-1 $138 $138 $86 $139 forward $133 $-1 #
edge $-1 $214 0 $214 6.2831853071796004 $138 $215 forward 7 unknown #
face $-1 $216 $217 $21 $-1 $218 reversed single #
loop $-1 $-1 $219 $87 #
plane-surface $-1 -70.668660542619094 0 0 1 0 0 0 0 -1 forward_v I I I I #
coedge $-1 $220 $151 $221 $222 forward $88 $-1 #
coedge $-1 $223 $90 $220 $224 forward $57 $-1 #
coedge $-1 $90 $223 $225 $226 forward $57 $-1 #
coedge $-1 $154 $153 $90 $147 reversed $155 $-1 #
edge $-1 $227 -47.16082238079489 $228 47.16082238079489 $146 $229 forward 7 unknown #
coedge $-1 $92 $91 $230 $231 forward $36 $-1 #
coedge $-1 $232 $233 $91 $150 reversed $217 $-1 #
edge $-1 $157 -70.668660542619094 $234 70.668660542619094 $149 $235 forward 7 unknown #
coedge $-1 $143 $236 $92 $152 reversed $88 $-1 #
edge $-1 $237 -70.668660542619094 $156 70.668660542619094 $151 $238 forward 7 unknown #
coedge $-1 $146 $93 $236 $239 forward $155 $-1 #
coedge $-1 $93 $146 $232 $240 reversed $155 $-1 #
loop $-1 $-1 $153 $216 #
vertex $-1 $94 $241 #
vertex $-1 $94 $242 #
straight-curve $-1 70.668660542619094 0 23.133947153332027 0 1 0 I I #
face $-1 $243 $244 $22 $-1 $245 reversed single #
loop $-1 $-1 $246 $95 #
plane-surface $-1 0 -56.186641259472438 -17.395868327820679 0 0 1 1 0 0 forward_v I I I I #
coedge $-1 $101 $247 $248 $249 forward $96 $-1 #
coedge $-1 $250 $98 $251 $252 reversed $61 $-1 #
coedge $-1 $98 $250 $169 $253 reversed $61 $-1 #
edge $-1 $170 4.7569543244172756 $254 17.395868327820679 $98 $255 forward 7 unknown #
coedge $-1 $100 $99 $256 $257 forward $39 $-1 #
coedge $-1 $248 $258 $99 $168 forward $259 $-1 #
edge $-1 $260 -17.395868327820679 $171 -4.7569543244172756 $167 $261 forward 7 unknown #
coedge $-1 $247 $101 $164 $253 forward $96 $-1 #
vertex $-1 $165 $262 #
vertex $-1 $249 $263 #
straight-curve $-1 0 -47.16082238079489 -4.7569543244172756 1 0 0 I I #
face $-1 $-1 $264 $23 $-1 $265 reversed single #
loop $-1 $-1 $109 $103 #
plane-surface $-1 0 0 23.133947153332027 0 0 1 1 0 0 forward_v I I I I #
coedge $-1 $266 $267 $268 $269 reversed $104 $-1 #
coedge $-1 $270 $106 $108 $183 forward $65 $-1 #
coedge $-1 $106 $270 $266 $271 forward $65 $-1 #
coedge $-1 $268 $109 $106 $180 forward $174 $-1 #
edge $-1 $186 4.0519779169140158 $272 24.682145435430588 $179 $273 forward 7 unknown #
coedge $-1 $274 $275 $107 $182 forward $264 $-1 #
edge $-1 $276 -46.512988864182418 $185 -32.022623198503211 $181 $277 forward 7 unknown #
edge $-1 $186 -20.859700410541013 $276 2.0094122576745862e-014 $108 $278 forward 7 unknown #
coedge $-1 $109 $268 $274 $279 forward $174 $-1 #
vertex $-1 $182 $280 #
vertex $-1 $110 $281 #
straight-curve $-1 -84.424907423071559 18.419039593086318 23.133947153332031 1 0 0 I I #
coedge $-1 $188 $188 $-1 $282 reversed $113 $-1 #
edge $-1 $283 0 $283 6.2831853071796004 $114 $284 forward 7 unknown #
vertex $-1 $117 $285 #
ellipse-curve $-1 -63.166054260592311 24.313373169805338 15.888764320492424 -0.69465837861970381 0 0.71933979245794832 1.4386795849158966 0 1.3893167572394076 1 I I #
coedge $-1 $192 $192 $-1 $286 reversed $120 $-1 #
edge $-1 $287 0 $287 6.2831853071796004 $121 $288 forward 7 unknown #
vertex $-1 $124 $289 #
ellipse-curve $-1 -63.166054260592311 33.154873534883869 15.888764320492424 -0.69465837861970381 0 0.71933979245794832 1.4386795849158966 0 1.3893167572394076 1 I I #
face $-1 $-1 $208 $26 $-1 $290 reversed single #
loop $-1 $-1 $291 $125 #
plane-surface $-1 0 0 23.133947153332027 0 0 1 1 0 0 forward_v I I I I #
coedge $-1 $292 $293 $201 $294 forward $126 $-1 #
coedge $-1 $295 $128 $130 $206 forward $79 $-1 #
coedge $-1 $128 $295 $199 $294 reversed $79 $-1 #
coedge $-1 $296 $131 $128 $203 forward $208 $-1 #
edge $-1 $210 15.125641049961747 $297 26.398667903876007 $202 $298 forward 7 unknown #
coedge $-1 $299 $291 $129 $205 forward $197 $-1 #
edge $-1 $300 18.664880685086757 $209 42.305831534765062 $204 $301 forward 7 unknown #
edge $-1 $210 -141.33732108523819 $300 -110.01275374643934 $130 $302 forward 7 unknown #
coedge $-1 $131 $296 $299 $303 reversed $208 $-1 #
loop $-1 $-1 $202 $196 #
vertex $-1 $303 $304 #
vertex $-1 $132 $305 #
straight-curve $-1 70.668660542619094 35.88779552688063 100.9887188581625 0 0 -1 I I #
coedge $-1 $212 $212 $-1 $306 reversed $135 $-1 #
edge $-1 $307 0 $307 6.2831853071796004 $136 $308 forward 7 unknown #
vertex $-1 $139 $309 #
ellipse-curve $-1 58.848185117779948 41.524308953837767 12.858564412455188 0.6560590369687036 0 0.75470957328743171 1.1320643599311475 0 -0.9840885554530554 1 I I #
face $-1 $-1 $155 $21 $-1 $310 reversed single #
loop $-1 $-1 $232 $140 #
plane-surface $-1 0 47.16082238079489 0 0 -1 0 0 0 -1 forward_v I I I I #
coedge $-1 $311 $230 $233 $312 forward $141 $-1 #
coedge $-1 $236 $143 $144 $224 reversed $88 $-1 #
coedge $-1 $230 $311 $143 $222 reversed $141 $-1 #
edge $-1 $237 -23.133947153332027 $313 23.133947153332027 $221 $314 forward 7 unknown #
coedge $-1 $145 $144 $311 $315 forward $57 $-1 #
edge $-1 $228 -70.668660542619094 $313 70.668660542619094 $220 $316 forward 7 unknown #
coedge $-1 $233 $232 $145 $226 reversed $217 $-1 #
edge $-1 $317 -70.668660542619094 $227 70.668660542619094 $225 $318 forward 7 unknown #
vertex $-1 $147 $319 #
vertex $-1 $239 $320 #
straight-curve $-1 70.668660542619094 0 -23.133947153332027 0 -1 0 I I #
coedge $-1 $219 $221 $148 $231 reversed $141 $-1 #
edge $-1 $234 -47.16082238079489 $237 47.16082238079489 $230 $321 forward 7 unknown #
coedge $-1 $225 $149 $154 $240 forward $217 $-1 #
coedge $-1 $149 $225 $219 $312 reversed $217 $-1 #
vertex $-1 $150 $322 #
straight-curve $-1 0 47.16082238079489 23.133947153332027 -1 0 0 I I #
coedge $-1 $151 $220 $153 $239 reversed $88 $-1 #
vertex $-1 $231 $323 #
straight-curve $-1 0 -47.16082238079489 23.133947153332027 1 0 0 I I #
edge $-1 $156 -23.133947153332027 $228 23.133947153332027 $153 $324 forward 7 unknown #
edge $-1 $157 -23.133947153332027 $227 23.133947153332027 $154 $325 forward 7 unknown #
point $-1 70.668660542619094 -47.16082238079489 23.133947153332027 #
point $-1 70.668660542619094 47.16082238079489 23.133947153332027 #
face $-1 $-1 $259 $22 $-1 $326 reversed single #
loop $-1 $-1 $327 $159 #
plane-surface $-1 0 -65.212460138149993 -11.076411326118977 0 1 0 0 0 1 forward_v I I I I #
coedge $-1 $328 $256 $258 $329 forward $160 $-1 #
coedge $-1 $162 $169 $330 $331 forward $96 $-1 #
coedge $-1 $332 $167 $162 $249 reversed $259 $-1 #
edge $-1 $333 -9.0258188786775548 $171 9.0258188786775548 $248 $334 forward 7 unknown #
coedge $-1 $164 $163 $327 $335 reversed $61 $-1 #
coedge $-1 $256 $328 $163 $252 forward $160 $-1 #
edge $-1 $336 -9.0258188786775548 $254 9.0258188786775548 $163 $337 forward 7 unknown #
edge $-1 $170 -9.0258188786775548 $338 9.0258188786775548 $164 $339 forward 7 unknown #
vertex $-1 $165 $340 #
straight-curve $-1 -70.668660542619094 -47.16082238079489 0 0 0 -1 I I #
coedge $-1 $246 $251 $166 $257 reversed $160 $-1 #
edge $-1 $260 -70.668660542619094 $254 70.668660542619094 $256 $341 forward 7 unknown #
coedge $-1 $167 $332 $246 $329 reversed $259 $-1 #
loop $-1 $-1 $167 $243 #
vertex $-1 $168 $342 #
straight-curve $-1 70.668660542619094 -47.16082238079489 0 0 0 1 I I #
point $-1 -70.668660542619094 -47.160822380794883 -4.7569543244172756 #
point $-1 70.668660542619094 -47.160822380794883 -4.7569543244172756 #
loop $-1 $-1 $181 $173 #
plane-surface $-1 -70.668660542619094 0 0 1 0 0 0 0 -1 forward_v I I I I #
coedge $-1 $267 $176 $178 $271 reversed $104 $-1 #
coedge $-1 $176 $266 $343 $344 reversed $104 $-1 #
coedge $-1 $184 $179 $176 $269 forward $174 $-1 #
edge $-1 $272 -28.761459444506031 $345 -13.756246880452466 $268 $346 forward 7 unknown #
coedge $-1 $178 $177 $275 $347 reversed $65 $-1 #
edge $-1 $348 -2.0094122576745862e-014 $272 20.859700410541013 $266 $349 forward 7 unknown #
vertex $-1 $180 $350 #
straight-curve $-1 -55.663447978565529 14.367061676172302 23.133947153332027 0 1 0 I I #
coedge $-1 $343 $181 $184 $279 reversed $264 $-1 #
coedge $-1 $181 $343 $270 $347 forward $264 $-1 #
vertex $-1 $182 $351 #
straight-curve $-1 -70.668660542619094 18.419039593086318 55.156570351835242 0 0 1 I I #
straight-curve $-1 -70.668660542619079 18.419039593086318 8.6435814876528383 -0.71933979245794832 0 -0.69465837861970381 I I #
edge $-1 $345 -39.04920711160289 $185 -18.419039593086318 $274 $352 forward 7 unknown #
point $-1 -70.668660542619094 18.419039593086318 23.133947153332027 #
point $-1 -55.663447978565529 18.419039593086318 23.133947153332031 #
edge $-1 $353 1 $353 0 $188 $-1 forward 7 unknown #
vertex $-1 $189 $354 #
ellipse-curve $-1 -60.583477775608898 24.313373169805338 13.214428143325563 -0.69465837861970381 0 0.71933979245794832 1.4386795849158966 0 1.3893167572394076 1 I I #
point $-1 -61.727374675676437 24.313373169805338 17.278081077731855 #
edge $-1 $355 1 $355 0 $192 $-1 forward 7 unknown #
vertex $-1 $193 $356 #
ellipse-curve $-1 -60.583477775608898 33.154873534883869 13.214428143325563 -0.69465837861970381 0 0.71933979245794832 1.4386795849158966 0 1.3893167572394076 1 I I #
point $-1 -61.727374675676437 33.154873534883869 17.278081077731855 #
plane-surface $-1 70.668660542619094 0 0 -1 0 0 0 0 1 forward_v I I I I #
coedge $-1 $204 $357 $295 $358 forward $197 $-1 #
coedge $-1 $293 $199 $357 $359 reversed $126 $-1 #
coedge $-1 $199 $292 $296 $360 forward $126 $-1 #
edge $-1 $297 -96.488458024190862 $361 -65.163890685392005 $199 $362 forward 7 unknown #
coedge $-1 $201 $200 $291 $358 reversed $79 $-1 #
coedge $-1 $207 $202 $293 $360 reversed $208 $-1 #
vertex $-1 $294 $363 #
straight-curve $-1 70.668660542619094 20.762154476918884 2.5831816715783447 0 1 0 I I #
coedge $-1 $357 $204 $207 $303 forward $197 $-1 #
vertex $-1 $205 $364 #
straight-curve $-1 28.362829007854032 35.88779552688063 23.133947153332031 1 0 0 I I #
straight-curve $-1 -35.999968743209749 35.88779552688063 95.308808430496157 -0.75470957328743171 0 0.6560590369687036 I I #
edge $-1 $209 35.88779552688063 $365 47.16082238079489 $207 $366 forward 7 unknown #
point $-1 70.668660542619094 35.88779552688063 23.133947153332027 #
point $-1 70.668660542619094 35.88779552688063 2.5831816715783447 #
edge $-1 $367 1 $367 0 $212 $-1 forward 7 unknown #
vertex $-1 $213 $368 #
ellipse-curve $-1 55.302228769814413 41.524308953837767 8.7794083434616699 0.6560590369687036 0 0.75470957328743171 1.1320643599311475 0 -0.9840885554530554 1 I I #
point $-1 59.980249477711098 41.524308953837767 11.874475857002135 #
plane-surface $-1 70.668660542619094 0 0 -1 0 0 0 0 1 forward_v I I I I #
coedge $-1 $221 $219 $223 $315 reversed $141 $-1 #
edge $-1 $234 -23.133947153332027 $317 23.133947153332027 $233 $369 forward 7 unknown #
vertex $-1 $315 $370 #
straight-curve $-1 -70.668660542619094 -47.16082238079489 0 0 0 -1 I I #
edge $-1 $313 -47.16082238079489 $317 47.16082238079489 $311 $371 forward 7 unknown #
straight-curve $-1 0 -47.16082238079489 -23.133947153332027 -1 0 0 I I #
vertex $-1 $226 $372 #
straight-curve $-1 0 47.16082238079489 -23.133947153332027 1 0 0 I I #
point $-1 70.668660542619094 47.16082238079489 -23.133947153332027 #
point $-1 70.668660542619094 -47.16082238079489 -23.133947153332027 #
straight-curve $-1 -70.668660542619094 0 23.133947153332027 0 -1 0 I I #
point $-1 -70.668660542619094 47.16082238079489 23.133947153332027 #
point $-1 -70.668660542619094 -47.16082238079489 23.133947153332027 #
straight-curve $-1 70.668660542619094 -47.16082238079489 0 0 0 -1 I I #
straight-curve $-1 70.668660542619094 47.16082238079489 0 0 0 -1 I I #
plane-surface $-1 70.668660542619094 0 0 -1 0 0 0 0 1 forward_v I I I I #
coedge $-1 $373 $330 $250 $335 forward $244 $-1 #
coedge $-1 $251 $246 $373 $374 forward $160 $-1 #
edge $-1 $260 -9.0258188786775548 $375 9.0258188786775548 $258 $376 forward 7 unknown #
coedge $-1 $327 $377 $247 $331 reversed $244 $-1 #
edge $-1 $338 -70.668660542619094 $333 70.668660542619094 $330 $378 forward 7 unknown #
coedge $-1 $258 $248 $377 $379 forward $259 $-1 #
vertex $-1 $249 $380 #
straight-curve $-1 70.668660542619094 -56.186641259472438 -4.7569543244172756 0 1 0 I I #
edge $-1 $338 -6.3194570017017018 $336 6.3194570017017018 $250 $381 forward 7 unknown #
vertex $-1 $252 $382 #
straight-curve $-1 -70.668660542619094 -56.186641259472438 -17.395868327820679 0 1 0 I I #
vertex $-1 $253 $383 #
straight-curve $-1 -70.668660542619094 -56.186641259472438 -4.7569543244172756 0 -1 0 I I #
point $-1 -70.668660542619094 -47.160822380794883 -17.395868327820679 #
straight-curve $-1 0 -47.16082238079489 -17.395868327820679 -1 0 0 I I #
point $-1 70.668660542619094 -47.160822380794883 -17.395868327820679 #
coedge $-1 $275 $274 $267 $344 forward $264 $-1 #
edge $-1 $345 32.022623198503211 $348 46.512988864182418 $343 $384 forward 7 unknown #
vertex $-1 $279 $385 #
straight-curve $-1 -84.424907423071559 39.04920711160289 23.133947153332031 -1 0 0 I I #
edge $-1 $348 -24.682145435430588 $276 -4.0519779169140158 $275 $386 forward 7 unknown #
vertex $-1 $347 $387 #
straight-curve $-1 -70.668660542619079 39.04920711160289 8.6435814876528383 0.71933979245794832 0 0.69465837861970381 I I #
point $-1 -55.663447978565529 39.04920711160289 23.133947153332031 #
point $-1 -70.668660542619094 18.419039593086318 8.6435814876528241 #
straight-curve $-1 -70.668660542619094 0 23.133947153332027 0 -1 0 I I #
vertex $-1 $282 $388 #
point $-1 -59.144798190692995 24.313373169805338 14.603744900564971 #
vertex $-1 $286 $389 #
point $-1 -59.144798190692995 33.154873534883869 14.603744900564971 #
coedge $-1 $291 $299 $292 $359 forward $197 $-1 #
edge $-1 $361 -26.398667903876021 $300 -15.125641049961747 $291 $390 forward 7 unknown #
edge $-1 $365 -70.668660542619094 $361 -47.027709692940789 $292 $391 forward 7 unknown #
edge $-1 $365 -23.133947153332027 $297 -2.5831816715783518 $296 $392 forward 7 unknown #
vertex $-1 $294 $393 #
straight-curve $-1 -2.1521024399802542 47.16082238079489 65.885306521524171 -0.75470957328743171 0 0.6560590369687036 I I #
point $-1 70.668660542619094 47.16082238079489 2.5831816715783518 #
point $-1 47.027709692940789 35.88779552688063 23.133947153332031 #
vertex $-1 $303 $394 #
straight-curve $-1 70.668660542619094 0 23.133947153332027 0 1 0 I I #
vertex $-1 $306 $395 #
point $-1 56.434293129745562 41.524308953837767 7.7953197880086149 #
straight-curve $-1 -70.668660542619094 47.16082238079489 0 0 0 -1 I I #
point $-1 -70.668660542619094 -47.16082238079489 -23.133947153332027 #
straight-curve $-1 -70.668660542619094 0 -23.133947153332027 0 1 0 I I #
point $-1 -70.668660542619094 47.16082238079489 -23.133947153332027 #
coedge $-1 $377 $327 $328 $374 reversed $244 $-1 #
edge $-1 $375 -70.668660542619094 $336 70.668660542619094 $373 $396 forward 7 unknown #
vertex $-1 $379 $397 #
straight-curve $-1 70.668660542619094 -56.186641259472438 -17.395868327820679 0 -1 0 I I #
coedge $-1 $330 $373 $332 $379 reversed $244 $-1 #
straight-curve $-1 0 -65.212460138149993 -4.7569543244172756 1 0 0 I I #
edge $-1 $333 -6.3194570017017018 $375 6.3194570017017018 $332 $398 forward 7 unknown #
point $-1 70.668660542619094 -65.212460138149993 -4.7569543244172756 #
straight-curve $-1 -70.668660542619094 -65.212460138149993 -11.076411326118977 0 0 -1 I I #
point $-1 -70.668660542619094 -65.212460138149993 -17.395868327820679 #
point $-1 -70.668660542619094 -65.212460138149993 -4.7569543244172756 #
straight-curve $-1 -70.668660542619094 39.04920711160289 55.156570351835242 0 0 -1 I I #
point $-1 -70.668660542619094 39.04920711160289 23.133947153332027 #
straight-curve $-1 -70.668660542619094 14.367061676172302 8.6435814876528188 0 -1 0 I I #
point $-1 -70.668660542619094 39.04920711160289 8.6435814876528241 #
point $-1 -59.194161018369485 24.313373169805338 11.775748558409667 #
point $-1 -59.194161018369485 33.154873534883869 11.775748558409667 #
straight-curve $-1 47.027709692940775 20.762154476918884 23.133947153332038 0 -1 0 I I #
straight-curve $-1 0 47.16082238079489 23.133947153332027 -1 0 0 I I #
straight-curve $-1 70.668660542619094 47.16082238079489 0 0 0 -1 I I #
point $-1 47.027709692940789 47.160822380794905 23.133947153332031 #
point $-1 70.668660542619094 47.16082238079489 23.133947153332027 #
point $-1 54.318140214361357 41.524308953837767 7.647343983530523 #
straight-curve $-1 0 -65.212460138149993 -17.395868327820679 -1 0 0 I I #
point $-1 70.668660542619094 -65.212460138149993 -17.395868327820679 #
straight-curve $-1 70.668660542619094 -65.212460138149993 -11.076411326118977 0 0 -1 I I #
End-of-ACIS-data 