500 0 20 0           
7 Unknown 11 ACIS 5.0 NT 24 Thu Mar 25 19:10:54 1999 
-1 9.9999999999999995e-007 1e-010 
body $-1 $20 $-1 $21 #
body $-1 $22 $-1 $23 #
body $-1 $24 $-1 $25 #
body $-1 $26 $-1 $27 #
body $-1 $28 $-1 $29 #
body $-1 $30 $-1 $31 #
body $-1 $32 $-1 $33 #
body $-1 $34 $-1 $35 #
body $-1 $36 $-1 $37 #
body $-1 $38 $-1 $39 #
body $-1 $40 $-1 $41 #
body $-1 $42 $-1 $43 #
body $-1 $44 $-1 $45 #
body $-1 $46 $-1 $47 #
body $-1 $48 $-1 $49 #
body $-1 $50 $-1 $51 #
body $-1 $52 $-1 $53 #
body $-1 $54 $-1 $55 #
body $-1 $56 $-1 $57 #
body $-1 $58 $-1 $59 #
lump $-1 $-1 $60 $0 #
transform $-1 1 0 0 0 1 0 0 0 1 51.337015900143435 23.524125685521216 5.0089365797259902 1 rotate no_reflect no_shear #
lump $-1 $-1 $61 $1 #
transform $-1 1 0 0 0 1 0 0 0 1 51.337015900143435 3.082928847438382 3.4164381551797947 1 rotate no_reflect no_shear #
lump $-1 $-1 $62 $2 #
transform $-1 1 0 0 0 1 0 0 0 1 51.337015900143435 43.965322523604051 3.4164381551797947 1 rotate no_reflect no_shear #
lump $-1 $-1 $63 $3 #
transform $-1 0.65605901945558964 0 -0.75470958851134928 0 1 0 0.75470958851134928 0 0.65605901945558964 112.80288346463433 16.855786987551483 151.54621753521008 1 rotate no_reflect no_shear #
lump $-1 $-1 $64 $4 #
transform $-1 0.65605901945558964 0 -0.75470958851134928 0 -1 0 -0.75470958851134928 0 -0.65605901945558964 99.592411346884361 14.276870089256334 6.9333391697227853 1 rotate no_reflect no_shear #
lump $-1 $-1 $65 $5 #
transform $-1 0.65605901945558964 0 -0.75470958851134928 0 -1 0 -0.75470958851134928 0 -0.65605901945558964 99.592411346884361 16.855786987551486 6.9333391697227853 1 rotate no_reflect no_shear #
lump $-1 $-1 $66 $6 #
transform $-1 0.65605901945558964 0 -0.75470958851134928 0 -1 0 -0.75470958851134928 0 -0.65605901945558964 99.592411346884361 19.434703885846638 6.9333391697227853 1 rotate no_reflect no_shear #
lump $-1 $-1 $67 $7 #
transform $-1 0.65605901945558964 0 -0.75470958851134928 0 1 0 0.75470958851134928 0 0.65605901945558964 112.80288346463433 34.214054978195932 151.54621753521008 1 rotate no_reflect no_shear #
lump $-1 $-1 $68 $8 #
transform $-1 0.65605901945558964 0 -0.75470958851134928 0 -1 0 -0.75470958851134928 0 -0.65605901945558964 99.592411346884361 31.635138079900788 6.9333391697227853 1 rotate no_reflect no_shear #
lump $-1 $-1 $69 $9 #
transform $-1 0.65605901945558964 0 -0.75470958851134928 0 -1 0 -0.75470958851134928 0 -0.65605901945558964 99.592411346884361 34.214054978195939 6.9333391697227853 1 rotate no_reflect no_shear #
lump $-1 $-1 $70 $10 #
transform $-1 0.65605901945558964 0 -0.75470958851134928 0 -1 0 -0.75470958851134928 0 -0.65605901945558964 99.592411346884361 36.792971876491094 6.9333391697227853 1 rotate no_reflect no_shear #
lump $-1 $-1 $71 $11 #
transform $-1 0.80901698891910034 0 0.5877852598018023 0 1 0 -0.5877852598018023 0 0.80901698891910034 -60.350282456630126 9.205705541108852 89.840122596525632 1 rotate no_reflect no_shear #
lump $-1 $-1 $72 $12 #
transform $-1 0.80901698891910034 0 0.5877852598018023 0 -1 0 0.5877852598018023 0 -0.80901698891910034 3.5107714326050696 7.9029136070093857 6.6359290664935147 1 rotate no_reflect no_shear #
lump $-1 $-1 $73 $13 #
transform $-1 0.80901698891910034 0 0.5877852598018023 0 -1 0 0.5877852598018023 0 -0.80901698891910034 3.5107714326050696 10.508497475208317 6.6359290664935147 1 rotate no_reflect no_shear #
lump $-1 $-1 $74 $14 #
transform $-1 0.80901698891910034 0 0.5877852598018023 0 1 0 -0.5877852598018023 0 0.80901698891910034 -60.350282456630126 23.52412568552122 89.840122596525632 1 rotate no_reflect no_shear #
lump $-1 $-1 $75 $15 #
transform $-1 0.80901698891910034 0 0.5877852598018023 0 -1 0 0.5877852598018023 0 -0.80901698891910034 3.5107714326050696 22.221333751421753 6.6359290664935147 1 rotate no_reflect no_shear #
lump $-1 $-1 $76 $16 #
transform $-1 0.80901698891910034 0 0.5877852598018023 0 -1 0 0.5877852598018023 0 -0.80901698891910034 3.5107714326050696 24.826917619620684 6.6359290664935147 1 rotate no_reflect no_shear #
lump $-1 $-1 $77 $17 #
transform $-1 0.80901698891910034 0 0.5877852598018023 0 1 0 -0.5877852598018023 0 0.80901698891910034 -60.350282456630126 37.842545829933584 89.840122596525632 1 rotate no_reflect no_shear #
lump $-1 $-1 $78 $18 #
transform $-1 0.80901698891910034 0 0.5877852598018023 0 -1 0 0.5877852598018023 0 -0.80901698891910034 3.5107714326050696 36.539753895834117 6.6359290664935147 1 rotate no_reflect no_shear #
lump $-1 $-1 $79 $19 #
transform $-1 0.80901698891910034 0 0.5877852598018023 0 -1 0 0.5877852598018023 0 -0.80901698891910034 3.5107714326050696 39.145337764033052 6.6359290664935147 1 rotate no_reflect no_shear #
shell $-1 $-1 $-1 $80 $-1 $20 #
shell $-1 $-1 $-1 $81 $-1 $22 #
shell $-1 $-1 $-1 $82 $-1 $24 #
shell $-1 $-1 $-1 $83 $-1 $26 #
shell $-1 $-1 $-1 $84 $-1 $28 #
shell $-1 $-1 $-1 $85 $-1 $30 #
shell $-1 $-1 $-1 $86 $-1 $32 #
shell $-1 $-1 $-1 $87 $-1 $34 #
shell $-1 $-1 $-1 $88 $-1 $36 #
shell $-1 $-1 $-1 $89 $-1 $38 #
shell $-1 $-1 $-1 $90 $-1 $40 #
shell $-1 $-1 $-1 $91 $-1 $42 #
shell $-1 $-1 $-1 $92 $-1 $44 #
shell $-1 $-1 $-1 $93 $-1 $46 #
shell $-1 $-1 $-1 $94 $-1 $48 #
shell $-1 $-1 $-1 $95 $-1 $50 #
shell $-1 $-1 $-1 $96 $-1 $52 #
shell $-1 $-1 $-1 $97 $-1 $54 #
shell $-1 $-1 $-1 $98 $-1 $56 #
shell $-1 $-1 $-1 $99 $-1 $58 #
face $-1 $100 $101 $60 $-1 $102 forward single #
face $-1 $103 $104 $61 $-1 $105 forward single #
face $-1 $106 $107 $62 $-1 $108 forward single #
face $-1 $109 $110 $63 $-1 $111 forward single #
face $-1 $112 $113 $64 $-1 $114 forward single #
face $-1 $115 $116 $65 $-1 $117 forward single #
face $-1 $118 $119 $66 $-1 $120 forward single #
face $-1 $121 $122 $67 $-1 $123 forward single #
face $-1 $124 $125 $68 $-1 $126 forward single #
face $-1 $127 $128 $69 $-1 $129 forward single #
face $-1 $130 $131 $70 $-1 $132 forward single #
face $-1 $133 $134 $71 $-1 $135 forward single #
face $-1 $136 $137 $72 $-1 $138 forward single #
face $-1 $139 $140 $73 $-1 $141 forward single #
face $-1 $142 $143 $74 $-1 $144 forward single #
face $-1 $145 $146 $75 $-1 $147 forward single #
face $-1 $148 $149 $76 $-1 $150 forward single #
face $-1 $151 $152 $77 $-1 $153 forward single #
face $-1 $154 $155 $78 $-1 $156 forward single #
face $-1 $157 $158 $79 $-1 $159 forward single #
face $-1 $160 $161 $60 $-1 $162 reversed single #
loop $-1 $-1 $163 $80 #
plane-surface $-1 0 0 5.0089365797259902 0 0 1 1 0 0 forward_v I I I I #
face $-1 $164 $165 $61 $-1 $166 reversed single #
loop $-1 $-1 $167 $81 #
plane-surface $-1 0 0 1.5 0 0 1 1 0 0 forward_v I I I I #
face $-1 $168 $169 $62 $-1 $170 reversed single #
loop $-1 $-1 $171 $82 #
plane-surface $-1 0 0 1.5 0 0 1 1 0 0 forward_v I I I I #
face $-1 $172 $173 $63 $-1 $174 reversed single #
loop $-1 $-1 $175 $83 #
plane-surface $-1 0 0 102.67403180028687 0 0 1 1 0 0 forward_v I I I I #
face $-1 $176 $177 $64 $-1 $178 forward single #
loop $-1 $179 $180 $84 #
cone-surface $-1 0 0 -1.210310678426465 0 0 1 0.5 0 0 1 I I 0 1 0.5 forward I I I I #
face $-1 $181 $182 $65 $-1 $183 forward single #
loop $-1 $184 $185 $85 #
cone-surface $-1 0 0 -1.210310678426465 0 0 1 0.5 0 0 1 I I 0 1 0.5 forward I I I I #
face $-1 $186 $187 $66 $-1 $188 forward single #
loop $-1 $189 $190 $86 #
cone-surface $-1 0 0 -1.210310678426465 0 0 1 0.5 0 0 1 I I 0 1 0.5 forward I I I I #
face $-1 $191 $192 $67 $-1 $193 reversed single #
loop $-1 $-1 $194 $87 #
plane-surface $-1 0 0 102.67403180028687 0 0 1 1 0 0 forward_v I I I I #
face $-1 $195 $196 $68 $-1 $197 forward single #
loop $-1 $198 $199 $88 #
cone-surface $-1 0 0 -1.210310678426465 0 0 1 0.5 0 0 1 I I 0 1 0.5 forward I I I I #
face $-1 $200 $201 $69 $-1 $202 forward single #
loop $-1 $203 $204 $89 #
cone-surface $-1 0 0 -1.210310678426465 0 0 1 0.5 0 0 1 I I 0 1 0.5 forward I I I I #
face $-1 $205 $206 $70 $-1 $207 forward single #
loop $-1 $208 $209 $90 #
cone-surface $-1 0 0 -1.210310678426465 0 0 1 0.5 0 0 1 I I 0 1 0.5 forward I I I I #
face $-1 $210 $211 $71 $-1 $212 reversed single #
loop $-1 $-1 $213 $91 #
plane-surface $-1 0 0 102.67403180028687 0 0 1 1 0 0 forward_v I I I I #
face $-1 $214 $215 $72 $-1 $216 forward single #
loop $-1 $217 $218 $92 #
cone-surface $-1 0 0 -1.2130802331614117 0 0 1 0.5 0 0 1 I I 0 1 0.5 forward I I I I #
face $-1 $219 $220 $73 $-1 $221 forward single #
loop $-1 $222 $223 $93 #
cone-surface $-1 0 0 -1.2130802331614117 0 0 1 0.5 0 0 1 I I 0 1 0.5 forward I I I I #
face $-1 $224 $225 $74 $-1 $226 reversed single #
loop $-1 $-1 $227 $94 #
plane-surface $-1 0 0 102.67403180028687 0 0 1 1 0 0 forward_v I I I I #
face $-1 $228 $229 $75 $-1 $230 forward single #
loop $-1 $231 $232 $95 #
cone-surface $-1 0 0 -1.2130802331614117 0 0 1 0.5 0 0 1 I I 0 1 0.5 forward I I I I #
face $-1 $233 $234 $76 $-1 $235 forward single #
loop $-1 $236 $237 $96 #
cone-surface $-1 0 0 -1.2130802331614117 0 0 1 0.5 0 0 1 I I 0 1 0.5 forward I I I I #
face $-1 $238 $239 $77 $-1 $240 reversed single #
loop $-1 $-1 $241 $97 #
plane-surface $-1 0 0 102.67403180028687 0 0 1 1 0 0 forward_v I I I I #
face $-1 $242 $243 $78 $-1 $244 forward single #
loop $-1 $245 $246 $98 #
cone-surface $-1 0 0 -1.2130802331614117 0 0 1 0.5 0 0 1 I I 0 1 0.5 forward I I I I #
face $-1 $247 $248 $79 $-1 $249 forward single #
loop $-1 $250 $251 $99 #
cone-surface $-1 0 0 -1.2130802331614117 0 0 1 0.5 0 0 1 I I 0 1 0.5 forward I I I I #
face $-1 $252 $253 $60 $-1 $254 reversed single #
loop $-1 $-1 $255 $100 #
plane-surface $-1 0 0 -5.0089365797259902 0 0 1 1 0 0 forward_v I I I I #
coedge $-1 $256 $257 $258 $259 forward $101 $-1 #
face $-1 $260 $261 $61 $-1 $262 reversed single #
loop $-1 $-1 $263 $103 #
plane-surface $-1 0 0 -1.5 0 0 1 1 0 0 forward_v I I I I #
coedge $-1 $264 $265 $266 $267 forward $104 $-1 #
face $-1 $268 $269 $62 $-1 $270 reversed single #
loop $-1 $-1 $271 $106 #
plane-surface $-1 0 0 -1.5 0 0 1 1 0 0 forward_v I I I I #
coedge $-1 $272 $273 $274 $275 forward $107 $-1 #
face $-1 $276 $277 $63 $-1 $278 reversed single #
loop $-1 $-1 $279 $109 #
plane-surface $-1 0 0 -102.67403180028687 0 0 1 1 0 0 forward_v I I I I #
coedge $-1 $280 $281 $282 $283 forward $110 $-1 #
face $-1 $-1 $284 $64 $-1 $285 forward single #
loop $-1 $-1 $286 $112 #
plane-surface $-1 0 0 -2.1706213568529305 0 0 -1 -1 0 0 forward_v I I I I #
loop $-1 $-1 $287 $84 #
coedge $-1 $180 $180 $286 $288 reversed $113 $-1 #
face $-1 $-1 $289 $65 $-1 $290 forward single #
loop $-1 $-1 $291 $115 #
plane-surface $-1 0 0 -2.1706213568529305 0 0 -1 -1 0 0 forward_v I I I I #
loop $-1 $-1 $292 $85 #
coedge $-1 $185 $185 $291 $293 reversed $116 $-1 #
face $-1 $-1 $294 $66 $-1 $295 forward single #
loop $-1 $-1 $296 $118 #
plane-surface $-1 0 0 -2.1706213568529305 0 0 -1 -1 0 0 forward_v I I I I #
loop $-1 $-1 $297 $86 #
coedge $-1 $190 $190 $296 $298 reversed $119 $-1 #
face $-1 $299 $300 $67 $-1 $301 reversed single #
loop $-1 $-1 $302 $121 #
plane-surface $-1 0 0 -102.67403180028687 0 0 1 1 0 0 forward_v I I I I #
coedge $-1 $303 $304 $305 $306 forward $122 $-1 #
face $-1 $-1 $307 $68 $-1 $308 forward single #
loop $-1 $-1 $309 $124 #
plane-surface $-1 0 0 -2.1706213568529305 0 0 -1 -1 0 0 forward_v I I I I #
loop $-1 $-1 $310 $88 #
coedge $-1 $199 $199 $309 $311 reversed $125 $-1 #
face $-1 $-1 $312 $69 $-1 $313 forward single #
loop $-1 $-1 $314 $127 #
plane-surface $-1 0 0 -2.1706213568529305 0 0 -1 -1 0 0 forward_v I I I I #
loop $-1 $-1 $315 $89 #
coedge $-1 $204 $204 $314 $316 reversed $128 $-1 #
face $-1 $-1 $317 $70 $-1 $318 forward single #
loop $-1 $-1 $319 $130 #
plane-surface $-1 0 0 -2.1706213568529305 0 0 -1 -1 0 0 forward_v I I I I #
loop $-1 $-1 $320 $90 #
coedge $-1 $209 $209 $319 $321 reversed $131 $-1 #
face $-1 $322 $323 $71 $-1 $324 reversed single #
loop $-1 $-1 $325 $133 #
plane-surface $-1 0 0 -102.67403180028687 0 0 1 1 0 0 forward_v I I I I #
coedge $-1 $326 $327 $328 $329 forward $134 $-1 #
face $-1 $-1 $330 $72 $-1 $331 forward single #
loop $-1 $-1 $332 $136 #
plane-surface $-1 0 0 -2.1761604663228238 0 0 -1 -1 0 0 forward_v I I I I #
loop $-1 $-1 $333 $92 #
coedge $-1 $218 $218 $332 $334 reversed $137 $-1 #
face $-1 $-1 $335 $73 $-1 $336 forward single #
loop $-1 $-1 $337 $139 #
plane-surface $-1 0 0 -2.1761604663228238 0 0 -1 -1 0 0 forward_v I I I I #
loop $-1 $-1 $338 $93 #
coedge $-1 $223 $223 $337 $339 reversed $140 $-1 #
face $-1 $340 $341 $74 $-1 $342 reversed single #
loop $-1 $-1 $343 $142 #
plane-surface $-1 0 0 -102.67403180028687 0 0 1 1 0 0 forward_v I I I I #
coedge $-1 $344 $345 $346 $347 forward $143 $-1 #
face $-1 $-1 $348 $75 $-1 $349 forward single #
loop $-1 $-1 $350 $145 #
plane-surface $-1 0 0 -2.1761604663228238 0 0 -1 -1 0 0 forward_v I I I I #
loop $-1 $-1 $351 $95 #
coedge $-1 $232 $232 $350 $352 reversed $146 $-1 #
face $-1 $-1 $353 $76 $-1 $354 forward single #
loop $-1 $-1 $355 $148 #
plane-surface $-1 0 0 -2.1761604663228238 0 0 -1 -1 0 0 forward_v I I I I #
loop $-1 $-1 $356 $96 #
coedge $-1 $237 $237 $355 $357 reversed $149 $-1 #
face $-1 $358 $359 $77 $-1 $360 reversed single #
loop $-1 $-1 $361 $151 #
plane-surface $-1 0 0 -102.67403180028687 0 0 1 1 0 0 forward_v I I I I #
coedge $-1 $362 $363 $364 $365 forward $152 $-1 #
face $-1 $-1 $366 $78 $-1 $367 forward single #
loop $-1 $-1 $368 $154 #
plane-surface $-1 0 0 -2.1761604663228238 0 0 -1 -1 0 0 forward_v I I I I #
loop $-1 $-1 $369 $98 #
coedge $-1 $246 $246 $368 $370 reversed $155 $-1 #
face $-1 $-1 $371 $79 $-1 $372 forward single #
loop $-1 $-1 $373 $157 #
plane-surface $-1 0 0 -2.1761604663228238 0 0 -1 -1 0 0 forward_v I I I I #
loop $-1 $-1 $374 $99 #
coedge $-1 $251 $251 $373 $375 reversed $158 $-1 #
face $-1 $376 $377 $60 $-1 $378 reversed single #
loop $-1 $-1 $379 $160 #
plane-surface $-1 0 -23.524125685521216 0 0 1 0 0 0 1 forward_v I I I I #
coedge $-1 $380 $381 $382 $383 forward $161 $-1 #
coedge $-1 $384 $163 $385 $386 forward $101 $-1 #
coedge $-1 $163 $384 $387 $388 forward $101 $-1 #
coedge $-1 $389 $390 $163 $259 reversed $391 $-1 #
edge $-1 $392 -23.524125685521216 $393 23.524125685521216 $258 $394 forward 7 unknown #
face $-1 $395 $396 $61 $-1 $397 reversed single #
loop $-1 $-1 $398 $164 #
plane-surface $-1 0 -3.082928847438382 0 0 1 0 0 0 1 forward_v I I I I #
coedge $-1 $399 $400 $401 $402 forward $165 $-1 #
coedge $-1 $403 $167 $404 $405 forward $104 $-1 #
coedge $-1 $167 $403 $406 $407 forward $104 $-1 #
coedge $-1 $408 $409 $167 $267 reversed $410 $-1 #
edge $-1 $411 -3.082928847438382 $412 3.082928847438382 $266 $413 forward 7 unknown #
face $-1 $414 $415 $62 $-1 $416 reversed single #
loop $-1 $-1 $417 $168 #
plane-surface $-1 0 -3.0829288474383816 0 0 1 0 0 0 1 forward_v I I I I #
coedge $-1 $418 $419 $420 $421 forward $169 $-1 #
coedge $-1 $422 $171 $423 $424 forward $107 $-1 #
coedge $-1 $171 $422 $425 $426 forward $107 $-1 #
coedge $-1 $427 $428 $171 $275 reversed $429 $-1 #
edge $-1 $430 -3.0829288474383816 $431 3.0829288474383816 $274 $432 forward 7 unknown #
face $-1 $433 $434 $63 $-1 $435 reversed single #
loop $-1 $-1 $436 $172 #
plane-surface $-1 0 -4.2981948304919175 0 0 1 0 0 0 1 forward_v I I I I #
coedge $-1 $437 $438 $439 $440 forward $173 $-1 #
coedge $-1 $441 $175 $442 $443 forward $110 $-1 #
coedge $-1 $175 $441 $444 $445 forward $110 $-1 #
coedge $-1 $446 $447 $175 $283 reversed $448 $-1 #
edge $-1 $449 -4.2981948304919175 $450 4.2981948304919175 $282 $451 forward 7 unknown #
loop $-1 $452 $453 $176 #
cone-surface $-1 0 0 0 0 0 1 0.25 0 0 1 I I -0.70710678118654746 0.70710678118654746 0.25 forward I I I I #
coedge $-1 $286 $286 $180 $288 forward $177 $-1 #
coedge $-1 $287 $287 $453 $454 forward $179 $-1 #
edge $-1 $455 0 $455 6.2831853071796004 $286 $456 forward 7 unknown #
loop $-1 $457 $458 $181 #
cone-surface $-1 0 0 0 0 0 1 0.25 0 0 1 I I -0.70710678118654746 0.70710678118654746 0.25 forward I I I I #
coedge $-1 $291 $291 $185 $293 forward $182 $-1 #
coedge $-1 $292 $292 $458 $459 forward $184 $-1 #
edge $-1 $460 0 $460 6.2831853071796004 $291 $461 forward 7 unknown #
loop $-1 $462 $463 $186 #
cone-surface $-1 0 0 0 0 0 1 0.25 0 0 1 I I -0.70710678118654746 0.70710678118654746 0.25 forward I I I I #
coedge $-1 $296 $296 $190 $298 forward $187 $-1 #
coedge $-1 $297 $297 $463 $464 forward $189 $-1 #
edge $-1 $465 0 $465 6.2831853071796004 $296 $466 forward 7 unknown #
face $-1 $467 $468 $67 $-1 $469 reversed single #
loop $-1 $-1 $470 $191 #
plane-surface $-1 0 -4.2981948304919175 0 0 1 0 0 0 1 forward_v I I I I #
coedge $-1 $471 $472 $473 $474 forward $192 $-1 #
coedge $-1 $475 $194 $476 $477 forward $122 $-1 #
coedge $-1 $194 $475 $478 $479 forward $122 $-1 #
coedge $-1 $480 $481 $194 $306 reversed $482 $-1 #
edge $-1 $483 -4.2981948304919175 $484 4.2981948304919175 $305 $485 forward 7 unknown #
loop $-1 $486 $487 $195 #
cone-surface $-1 0 0 0 0 0 1 0.25 0 0 1 I I -0.70710678118654746 0.70710678118654746 0.25 forward I I I I #
coedge $-1 $309 $309 $199 $311 forward $196 $-1 #
coedge $-1 $310 $310 $487 $488 forward $198 $-1 #
edge $-1 $489 0 $489 6.2831853071796004 $309 $490 forward 7 unknown #
loop $-1 $491 $492 $200 #
cone-surface $-1 0 0 0 0 0 1 0.25 0 0 1 I I -0.70710678118654746 0.70710678118654746 0.25 forward I I I I #
coedge $-1 $314 $314 $204 $316 forward $201 $-1 #
coedge $-1 $315 $315 $492 $493 forward $203 $-1 #
edge $-1 $494 0 $494 6.2831853071796004 $314 $495 forward 7 unknown #
loop $-1 $496 $497 $205 #
cone-surface $-1 0 0 0 0 0 1 0.25 0 0 1 I I -0.70710678118654746 0.70710678118654746 0.25 forward I I I I #
coedge $-1 $319 $319 $209 $321 forward $206 $-1 #
coedge $-1 $320 $320 $497 $498 forward $208 $-1 #
edge $-1 $499 0 $499 6.2831853071796004 $319 $500 forward 7 unknown #
face $-1 $501 $502 $71 $-1 $503 reversed single #
loop $-1 $-1 $504 $210 #
plane-surface $-1 0 -3.0398478462320875 0 0 1 0 0 0 1 forward_v I I I I #
coedge $-1 $505 $506 $507 $508 forward $211 $-1 #
coedge $-1 $509 $213 $510 $511 forward $134 $-1 #
coedge $-1 $213 $509 $512 $513 forward $134 $-1 #
coedge $-1 $514 $515 $213 $329 reversed $516 $-1 #
edge $-1 $517 -3.0398478462320875 $518 3.0398478462320875 $328 $519 forward 7 unknown #
loop $-1 $520 $521 $214 #
cone-surface $-1 0 0 0 0 0 1 0.25 0 0 1 I I -0.70710678118654746 0.70710678118654746 0.25 forward I I I I #
coedge $-1 $332 $332 $218 $334 forward $215 $-1 #
coedge $-1 $333 $333 $521 $522 forward $217 $-1 #
edge $-1 $523 0 $523 6.2831853071796004 $332 $524 forward 7 unknown #
loop $-1 $525 $526 $219 #
cone-surface $-1 0 0 0 0 0 1 0.25 0 0 1 I I -0.70710678118654746 0.70710678118654746 0.25 forward I I I I #
coedge $-1 $337 $337 $223 $339 forward $220 $-1 #
coedge $-1 $338 $338 $526 $527 forward $222 $-1 #
edge $-1 $528 0 $528 6.2831853071796004 $337 $529 forward 7 unknown #
face $-1 $530 $531 $74 $-1 $532 reversed single #
loop $-1 $-1 $533 $224 #
plane-surface $-1 0 -3.0398478462320875 0 0 1 0 0 0 1 forward_v I I I I #
coedge $-1 $534 $535 $536 $537 forward $225 $-1 #
coedge $-1 $538 $227 $539 $540 forward $143 $-1 #
coedge $-1 $227 $538 $541 $542 forward $143 $-1 #
coedge $-1 $543 $544 $227 $347 reversed $545 $-1 #
edge $-1 $546 -3.0398478462320875 $547 3.0398478462320875 $346 $548 forward 7 unknown #
loop $-1 $549 $550 $228 #
cone-surface $-1 0 0 0 0 0 1 0.25 0 0 1 I I -0.70710678118654746 0.70710678118654746 0.25 forward I I I I #
coedge $-1 $350 $350 $232 $352 forward $229 $-1 #
coedge $-1 $351 $351 $550 $551 forward $231 $-1 #
edge $-1 $552 0 $552 6.2831853071796004 $350 $553 forward 7 unknown #
loop $-1 $554 $555 $233 #
cone-surface $-1 0 0 0 0 0 1 0.25 0 0 1 I I -0.70710678118654746 0.70710678118654746 0.25 forward I I I I #
coedge $-1 $355 $355 $237 $357 forward $234 $-1 #
coedge $-1 $356 $356 $555 $556 forward $236 $-1 #
edge $-1 $557 0 $557 6.2831853071796004 $355 $558 forward 7 unknown #
face $-1 $559 $560 $77 $-1 $561 reversed single #
loop $-1 $-1 $562 $238 #
plane-surface $-1 0 -3.0398478462320875 0 0 1 0 0 0 1 forward_v I I I I #
coedge $-1 $563 $564 $565 $566 forward $239 $-1 #
coedge $-1 $567 $241 $568 $569 forward $152 $-1 #
coedge $-1 $241 $567 $570 $571 forward $152 $-1 #
coedge $-1 $572 $573 $241 $365 reversed $574 $-1 #
edge $-1 $575 -3.0398478462320875 $576 3.0398478462320875 $364 $577 forward 7 unknown #
loop $-1 $578 $579 $242 #
cone-surface $-1 0 0 0 0 0 1 0.25 0 0 1 I I -0.70710678118654746 0.70710678118654746 0.25 forward I I I I #
coedge $-1 $368 $368 $246 $370 forward $243 $-1 #
coedge $-1 $369 $369 $579 $580 forward $245 $-1 #
edge $-1 $581 0 $581 6.2831853071796004 $368 $582 forward 7 unknown #
loop $-1 $583 $584 $247 #
cone-surface $-1 0 0 0 0 0 1 0.25 0 0 1 I I -0.70710678118654746 0.70710678118654746 0.25 forward I I I I #
coedge $-1 $373 $373 $251 $375 forward $248 $-1 #
coedge $-1 $374 $374 $584 $585 forward $250 $-1 #
edge $-1 $586 0 $586 6.2831853071796004 $373 $587 forward 7 unknown #
face $-1 $588 $589 $60 $-1 $590 reversed single #
loop $-1 $-1 $591 $252 #
plane-surface $-1 -51.337015900143435 0 0 1 0 0 0 0 -1 forward_v I I I I #
coedge $-1 $592 $387 $593 $594 forward $253 $-1 #
coedge $-1 $595 $255 $592 $596 forward $161 $-1 #
coedge $-1 $255 $595 $597 $598 forward $161 $-1 #
coedge $-1 $390 $389 $255 $383 reversed $391 $-1 #
edge $-1 $599 -23.524125685521216 $600 23.524125685521216 $382 $601 forward 7 unknown #
coedge $-1 $257 $256 $602 $603 forward $101 $-1 #
coedge $-1 $604 $605 $256 $386 reversed $589 $-1 #
edge $-1 $393 -51.337015900143435 $606 51.337015900143435 $385 $607 forward 7 unknown #
coedge $-1 $379 $608 $257 $388 reversed $253 $-1 #
edge $-1 $609 -51.337015900143435 $392 51.337015900143435 $387 $610 forward 7 unknown #
coedge $-1 $382 $258 $608 $611 forward $391 $-1 #
coedge $-1 $258 $382 $604 $612 reversed $391 $-1 #
loop $-1 $-1 $389 $588 #
vertex $-1 $259 $613 #
vertex $-1 $259 $614 #
straight-curve $-1 51.337015900143435 0 5.0089365797259902 0 1 0 I I #
face $-1 $615 $616 $61 $-1 $617 reversed single #
loop $-1 $-1 $618 $260 #
plane-surface $-1 -51.337015900143435 0 0 1 0 0 0 0 -1 forward_v I I I I #
coedge $-1 $619 $406 $620 $621 forward $261 $-1 #
coedge $-1 $622 $263 $619 $623 forward $165 $-1 #
coedge $-1 $263 $622 $624 $625 forward $165 $-1 #
coedge $-1 $409 $408 $263 $402 reversed $410 $-1 #
edge $-1 $626 -3.082928847438382 $627 3.082928847438382 $401 $628 forward 7 unknown #
coedge $-1 $265 $264 $629 $630 forward $104 $-1 #
coedge $-1 $631 $632 $264 $405 reversed $616 $-1 #
edge $-1 $412 -51.337015900143435 $633 51.337015900143435 $404 $634 forward 7 unknown #
coedge $-1 $398 $635 $265 $407 reversed $261 $-1 #
edge $-1 $636 -51.337015900143435 $411 51.337015900143435 $406 $637 forward 7 unknown #
coedge $-1 $401 $266 $635 $638 forward $410 $-1 #
coedge $-1 $266 $401 $631 $639 reversed $410 $-1 #
loop $-1 $-1 $408 $615 #
vertex $-1 $267 $640 #
vertex $-1 $267 $641 #
straight-curve $-1 51.337015900143435 0 1.5 0 1 0 I I #
face $-1 $642 $643 $62 $-1 $644 reversed single #
loop $-1 $-1 $645 $268 #
plane-surface $-1 -51.337015900143435 0 0 1 0 0 0 0 -1 forward_v I I I I #
coedge $-1 $646 $425 $647 $648 forward $269 $-1 #
coedge $-1 $649 $271 $646 $650 forward $169 $-1 #
coedge $-1 $271 $649 $651 $652 forward $169 $-1 #
coedge $-1 $428 $427 $271 $421 reversed $429 $-1 #
edge $-1 $653 -3.0829288474383816 $654 3.0829288474383816 $420 $655 forward 7 unknown #
coedge $-1 $273 $272 $656 $657 forward $107 $-1 #
coedge $-1 $658 $659 $272 $424 reversed $643 $-1 #
edge $-1 $431 -51.337015900143435 $660 51.337015900143435 $423 $661 forward 7 unknown #
coedge $-1 $417 $662 $273 $426 reversed $269 $-1 #
edge $-1 $663 -51.337015900143435 $430 51.337015900143435 $425 $664 forward 7 unknown #
coedge $-1 $420 $274 $662 $665 forward $429 $-1 #
coedge $-1 $274 $420 $658 $666 reversed $429 $-1 #
loop $-1 $-1 $427 $642 #
vertex $-1 $275 $667 #
vertex $-1 $275 $668 #
straight-curve $-1 51.337015900143435 0 1.5 0 1 0 I I #
face $-1 $669 $670 $63 $-1 $671 reversed single #
loop $-1 $-1 $672 $276 #
plane-surface $-1 -205.34806360057374 0 0 1 0 0 0 0 -1 forward_v I I I I #
coedge $-1 $673 $444 $674 $675 forward $277 $-1 #
coedge $-1 $676 $279 $673 $677 forward $173 $-1 #
coedge $-1 $279 $676 $678 $679 forward $173 $-1 #
coedge $-1 $447 $446 $279 $440 reversed $448 $-1 #
edge $-1 $680 -4.2981948304919175 $681 4.2981948304919175 $439 $682 forward 7 unknown #
coedge $-1 $281 $280 $683 $684 forward $110 $-1 #
coedge $-1 $685 $686 $280 $443 reversed $670 $-1 #
edge $-1 $450 -205.34806360057374 $687 205.34806360057374 $442 $688 forward 7 unknown #
coedge $-1 $436 $689 $281 $445 reversed $277 $-1 #
edge $-1 $690 -205.34806360057374 $449 205.34806360057374 $444 $691 forward 7 unknown #
coedge $-1 $439 $282 $689 $692 forward $448 $-1 #
coedge $-1 $282 $439 $685 $693 reversed $448 $-1 #
loop $-1 $-1 $446 $669 #
vertex $-1 $283 $694 #
vertex $-1 $283 $695 #
straight-curve $-1 205.34806360057374 0 102.67403180028687 0 1 0 I I #
loop $-1 $-1 $696 $176 #
coedge $-1 $453 $453 $287 $454 reversed $284 $-1 #
edge $-1 $697 0 $697 6.2831853071796004 $453 $698 forward 7 unknown #
vertex $-1 $288 $699 #
ellipse-curve $-1 0 0 -2.1706213568529305 0 0 -1 0.5 0 0 1 I I #
loop $-1 $-1 $700 $181 #
coedge $-1 $458 $458 $292 $459 reversed $289 $-1 #
edge $-1 $701 0 $701 6.2831853071796004 $458 $702 forward 7 unknown #
vertex $-1 $293 $703 #
ellipse-curve $-1 0 0 -2.1706213568529305 0 0 -1 0.5 0 0 1 I I #
loop $-1 $-1 $704 $186 #
coedge $-1 $463 $463 $297 $464 reversed $294 $-1 #
edge $-1 $705 0 $705 6.2831853071796004 $463 $706 forward 7 unknown #
vertex $-1 $298 $707 #
ellipse-curve $-1 0 0 -2.1706213568529305 0 0 -1 0.5 0 0 1 I I #
face $-1 $708 $709 $67 $-1 $710 reversed single #
loop $-1 $-1 $711 $299 #
plane-surface $-1 -205.34806360057374 0 0 1 0 0 0 0 -1 forward_v I I I I #
coedge $-1 $712 $478 $713 $714 forward $300 $-1 #
coedge $-1 $715 $302 $712 $716 forward $192 $-1 #
coedge $-1 $302 $715 $717 $718 forward $192 $-1 #
coedge $-1 $481 $480 $302 $474 reversed $482 $-1 #
edge $-1 $719 -4.2981948304919175 $720 4.2981948304919175 $473 $721 forward 7 unknown #
coedge $-1 $304 $303 $722 $723 forward $122 $-1 #
coedge $-1 $724 $725 $303 $477 reversed $709 $-1 #
edge $-1 $484 -205.34806360057374 $726 205.34806360057374 $476 $727 forward 7 unknown #
coedge $-1 $470 $728 $304 $479 reversed $300 $-1 #
edge $-1 $729 -205.34806360057374 $483 205.34806360057374 $478 $730 forward 7 unknown #
coedge $-1 $473 $305 $728 $731 forward $482 $-1 #
coedge $-1 $305 $473 $724 $732 reversed $482 $-1 #
loop $-1 $-1 $480 $708 #
vertex $-1 $306 $733 #
vertex $-1 $306 $734 #
straight-curve $-1 205.34806360057374 0 102.67403180028687 0 1 0 I I #
loop $-1 $-1 $735 $195 #
coedge $-1 $487 $487 $310 $488 reversed $307 $-1 #
edge $-1 $736 0 $736 6.2831853071796004 $487 $737 forward 7 unknown #
vertex $-1 $311 $738 #
ellipse-curve $-1 0 0 -2.1706213568529305 0 0 -1 0.5 0 0 1 I I #
loop $-1 $-1 $739 $200 #
coedge $-1 $492 $492 $315 $493 reversed $312 $-1 #
edge $-1 $740 0 $740 6.2831853071796004 $492 $741 forward 7 unknown #
vertex $-1 $316 $742 #
ellipse-curve $-1 0 0 -2.1706213568529305 0 0 -1 0.5 0 0 1 I I #
loop $-1 $-1 $743 $205 #
coedge $-1 $497 $497 $320 $498 reversed $317 $-1 #
edge $-1 $744 0 $744 6.2831853071796004 $497 $745 forward 7 unknown #
vertex $-1 $321 $746 #
ellipse-curve $-1 0 0 -2.1706213568529305 0 0 -1 0.5 0 0 1 I I #
face $-1 $747 $748 $71 $-1 $749 reversed single #
loop $-1 $-1 $750 $322 #
plane-surface $-1 -205.34806360057374 0 0 1 0 0 0 0 -1 forward_v I I I I #
coedge $-1 $751 $512 $752 $753 forward $323 $-1 #
coedge $-1 $754 $325 $751 $755 forward $211 $-1 #
coedge $-1 $325 $754 $756 $757 forward $211 $-1 #
coedge $-1 $515 $514 $325 $508 reversed $516 $-1 #
edge $-1 $758 -3.0398478462320875 $759 3.0398478462320875 $507 $760 forward 7 unknown #
coedge $-1 $327 $326 $761 $762 forward $134 $-1 #
coedge $-1 $763 $764 $326 $511 reversed $748 $-1 #
edge $-1 $518 -205.34806360057374 $765 205.34806360057374 $510 $766 forward 7 unknown #
coedge $-1 $504 $767 $327 $513 reversed $323 $-1 #
edge $-1 $768 -205.34806360057374 $517 205.34806360057374 $512 $769 forward 7 unknown #
coedge $-1 $507 $328 $767 $770 forward $516 $-1 #
coedge $-1 $328 $507 $763 $771 reversed $516 $-1 #
loop $-1 $-1 $514 $747 #
vertex $-1 $329 $772 #
vertex $-1 $329 $773 #
straight-curve $-1 205.34806360057374 0 102.67403180028687 0 1 0 I I #
loop $-1 $-1 $774 $214 #
coedge $-1 $521 $521 $333 $522 reversed $330 $-1 #
edge $-1 $775 0 $775 6.2831853071796004 $521 $776 forward 7 unknown #
vertex $-1 $334 $777 #
ellipse-curve $-1 0 0 -2.1761604663228238 0 0 -1 0.5 0 0 1 I I #
loop $-1 $-1 $778 $219 #
coedge $-1 $526 $526 $338 $527 reversed $335 $-1 #
edge $-1 $779 0 $779 6.2831853071796004 $526 $780 forward 7 unknown #
vertex $-1 $339 $781 #
ellipse-curve $-1 0 0 -2.1761604663228238 0 0 -1 0.5 0 0 1 I I #
face $-1 $782 $783 $74 $-1 $784 reversed single #
loop $-1 $-1 $785 $340 #
plane-surface $-1 -205.34806360057374 0 0 1 0 0 0 0 -1 forward_v I I I I #
coedge $-1 $786 $541 $787 $788 forward $341 $-1 #
coedge $-1 $789 $343 $786 $790 forward $225 $-1 #
coedge $-1 $343 $789 $791 $792 forward $225 $-1 #
coedge $-1 $544 $543 $343 $537 reversed $545 $-1 #
edge $-1 $793 -3.0398478462320875 $794 3.0398478462320875 $536 $795 forward 7 unknown #
coedge $-1 $345 $344 $796 $797 forward $143 $-1 #
coedge $-1 $798 $799 $344 $540 reversed $783 $-1 #
edge $-1 $547 -205.34806360057374 $800 205.34806360057374 $539 $801 forward 7 unknown #
coedge $-1 $533 $802 $345 $542 reversed $341 $-1 #
edge $-1 $803 -205.34806360057374 $546 205.34806360057374 $541 $804 forward 7 unknown #
coedge $-1 $536 $346 $802 $805 forward $545 $-1 #
coedge $-1 $346 $536 $798 $806 reversed $545 $-1 #
loop $-1 $-1 $543 $782 #
vertex $-1 $347 $807 #
vertex $-1 $347 $808 #
straight-curve $-1 205.34806360057374 0 102.67403180028687 0 1 0 I I #
loop $-1 $-1 $809 $228 #
coedge $-1 $550 $550 $351 $551 reversed $348 $-1 #
edge $-1 $810 0 $810 6.2831853071796004 $550 $811 forward 7 unknown #
vertex $-1 $352 $812 #
ellipse-curve $-1 0 0 -2.1761604663228238 0 0 -1 0.5 0 0 1 I I #
loop $-1 $-1 $813 $233 #
coedge $-1 $555 $555 $356 $556 reversed $353 $-1 #
edge $-1 $814 0 $814 6.2831853071796004 $555 $815 forward 7 unknown #
vertex $-1 $357 $816 #
ellipse-curve $-1 0 0 -2.1761604663228238 0 0 -1 0.5 0 0 1 I I #
face $-1 $817 $818 $77 $-1 $819 reversed single #
loop $-1 $-1 $820 $358 #
plane-surface $-1 -205.34806360057374 0 0 1 0 0 0 0 -1 forward_v I I I I #
coedge $-1 $821 $570 $822 $823 forward $359 $-1 #
coedge $-1 $824 $361 $821 $825 forward $239 $-1 #
coedge $-1 $361 $824 $826 $827 forward $239 $-1 #
coedge $-1 $573 $572 $361 $566 reversed $574 $-1 #
edge $-1 $828 -3.0398478462320875 $829 3.0398478462320875 $565 $830 forward 7 unknown #
coedge $-1 $363 $362 $831 $832 forward $152 $-1 #
coedge $-1 $833 $834 $362 $569 reversed $818 $-1 #
edge $-1 $576 -205.34806360057374 $835 205.34806360057374 $568 $836 forward 7 unknown #
coedge $-1 $562 $837 $363 $571 reversed $359 $-1 #
edge $-1 $838 -205.34806360057374 $575 205.34806360057374 $570 $839 forward 7 unknown #
coedge $-1 $565 $364 $837 $840 forward $574 $-1 #
coedge $-1 $364 $565 $833 $841 reversed $574 $-1 #
loop $-1 $-1 $572 $817 #
vertex $-1 $365 $842 #
vertex $-1 $365 $843 #
straight-curve $-1 205.34806360057374 0 102.67403180028687 0 1 0 I I #
loop $-1 $-1 $844 $242 #
coedge $-1 $579 $579 $369 $580 reversed $366 $-1 #
edge $-1 $845 0 $845 6.2831853071796004 $579 $846 forward 7 unknown #
vertex $-1 $370 $847 #
ellipse-curve $-1 0 0 -2.1761604663228238 0 0 -1 0.5 0 0 1 I I #
loop $-1 $-1 $848 $247 #
coedge $-1 $584 $584 $374 $585 reversed $371 $-1 #
edge $-1 $849 0 $849 6.2831853071796004 $584 $850 forward 7 unknown #
vertex $-1 $375 $851 #
ellipse-curve $-1 0 0 -2.1761604663228238 0 0 -1 0.5 0 0 1 I I #
face $-1 $-1 $391 $60 $-1 $852 reversed single #
loop $-1 $-1 $604 $376 #
plane-surface $-1 0 23.524125685521216 0 0 -1 0 0 0 -1 forward_v I I I I #
coedge $-1 $853 $602 $605 $854 forward $377 $-1 #
coedge $-1 $608 $379 $380 $596 reversed $253 $-1 #
coedge $-1 $602 $853 $379 $594 reversed $377 $-1 #
edge $-1 $609 -5.0089365797259902 $855 5.0089365797259902 $593 $856 forward 7 unknown #
coedge $-1 $381 $380 $853 $857 forward $161 $-1 #
edge $-1 $600 -51.337015900143435 $855 51.337015900143435 $592 $858 forward 7 unknown #
coedge $-1 $605 $604 $381 $598 reversed $589 $-1 #
edge $-1 $859 -51.337015900143435 $599 51.337015900143435 $597 $860 forward 7 unknown #
vertex $-1 $383 $861 #
vertex $-1 $611 $862 #
straight-curve $-1 51.337015900143435 0 -5.0089365797259902 0 -1 0 I I #
coedge $-1 $591 $593 $384 $603 reversed $377 $-1 #
edge $-1 $606 -23.524125685521216 $609 23.524125685521216 $602 $863 forward 7 unknown #
coedge $-1 $597 $385 $390 $612 forward $589 $-1 #
coedge $-1 $385 $597 $591 $854 reversed $589 $-1 #
vertex $-1 $386 $864 #
straight-curve $-1 0 23.524125685521216 5.0089365797259902 -1 0 0 I I #
coedge $-1 $387 $592 $389 $611 reversed $253 $-1 #
vertex $-1 $603 $865 #
straight-curve $-1 0 -23.524125685521216 5.0089365797259902 1 0 0 I I #
edge $-1 $392 -5.0089365797259902 $600 5.0089365797259902 $389 $866 forward 7 unknown #
edge $-1 $393 -5.0089365797259902 $599 5.0089365797259902 $390 $867 forward 7 unknown #
point $-1 51.337015900143435 -23.524125685521216 5.0089365797259902 #
point $-1 51.337015900143435 23.524125685521216 5.0089365797259902 #
face $-1 $-1 $410 $61 $-1 $868 reversed single #
loop $-1 $-1 $631 $395 #
plane-surface $-1 0 3.082928847438382 0 0 -1 0 0 0 -1 forward_v I I I I #
coedge $-1 $869 $629 $632 $870 forward $396 $-1 #
coedge $-1 $635 $398 $399 $623 reversed $261 $-1 #
coedge $-1 $629 $869 $398 $621 reversed $396 $-1 #
edge $-1 $636 -1.5 $871 1.5 $620 $872 forward 7 unknown #
coedge $-1 $400 $399 $869 $873 forward $165 $-1 #
edge $-1 $627 -51.337015900143435 $871 51.337015900143435 $619 $874 forward 7 unknown #
coedge $-1 $632 $631 $400 $625 reversed $616 $-1 #
edge $-1 $875 -51.337015900143435 $626 51.337015900143435 $624 $876 forward 7 unknown #
vertex $-1 $402 $877 #
vertex $-1 $638 $878 #
straight-curve $-1 51.337015900143435 0 -1.5 0 -1 0 I I #
coedge $-1 $618 $620 $403 $630 reversed $396 $-1 #
edge $-1 $633 -3.082928847438382 $636 3.082928847438382 $629 $879 forward 7 unknown #
coedge $-1 $624 $404 $409 $639 forward $616 $-1 #
coedge $-1 $404 $624 $618 $870 reversed $616 $-1 #
vertex $-1 $405 $880 #
straight-curve $-1 0 3.082928847438382 1.5 -1 0 0 I I #
coedge $-1 $406 $619 $408 $638 reversed $261 $-1 #
vertex $-1 $630 $881 #
straight-curve $-1 0 -3.082928847438382 1.5 1 0 0 I I #
edge $-1 $411 -1.5 $627 1.5 $408 $882 forward 7 unknown #
edge $-1 $412 -1.5 $626 1.5 $409 $883 forward 7 unknown #
point $-1 51.337015900143435 -3.082928847438382 1.5 #
point $-1 51.337015900143435 3.082928847438382 1.5 #
face $-1 $-1 $429 $62 $-1 $884 reversed single #
loop $-1 $-1 $658 $414 #
plane-surface $-1 0 3.0829288474383816 0 0 -1 0 0 0 -1 forward_v I I I I #
coedge $-1 $885 $656 $659 $886 forward $415 $-1 #
coedge $-1 $662 $417 $418 $650 reversed $269 $-1 #
coedge $-1 $656 $885 $417 $648 reversed $415 $-1 #
edge $-1 $663 -1.5 $887 1.5 $647 $888 forward 7 unknown #
coedge $-1 $419 $418 $885 $889 forward $169 $-1 #
edge $-1 $654 -51.337015900143435 $887 51.337015900143435 $646 $890 forward 7 unknown #
coedge $-1 $659 $658 $419 $652 reversed $643 $-1 #
edge $-1 $891 -51.337015900143435 $653 51.337015900143435 $651 $892 forward 7 unknown #
vertex $-1 $421 $893 #
vertex $-1 $665 $894 #
straight-curve $-1 51.337015900143435 0 -1.5 0 -1 0 I I #
coedge $-1 $645 $647 $422 $657 reversed $415 $-1 #
edge $-1 $660 -3.0829288474383816 $663 3.0829288474383816 $656 $895 forward 7 unknown #
coedge $-1 $651 $423 $428 $666 forward $643 $-1 #
coedge $-1 $423 $651 $645 $886 reversed $643 $-1 #
vertex $-1 $424 $896 #
straight-curve $-1 0 3.0829288474383816 1.5 -1 0 0 I I #
coedge $-1 $425 $646 $427 $665 reversed $269 $-1 #
vertex $-1 $657 $897 #
straight-curve $-1 0 -3.0829288474383816 1.5 1 0 0 I I #
edge $-1 $430 -1.5 $654 1.5 $427 $898 forward 7 unknown #
edge $-1 $431 -1.5 $653 1.5 $428 $899 forward 7 unknown #
point $-1 51.337015900143435 -3.0829288474383816 1.5 #
point $-1 51.337015900143435 3.0829288474383816 1.5 #
face $-1 $-1 $448 $63 $-1 $900 reversed single #
loop $-1 $-1 $685 $433 #
plane-surface $-1 0 4.2981948304919175 0 0 -1 0 0 0 -1 forward_v I I I I #
coedge $-1 $901 $683 $686 $902 forward $434 $-1 #
coedge $-1 $689 $436 $437 $677 reversed $277 $-1 #
coedge $-1 $683 $901 $436 $675 reversed $434 $-1 #
edge $-1 $690 -102.67403180028687 $903 102.67403180028687 $674 $904 forward 7 unknown #
coedge $-1 $438 $437 $901 $905 forward $173 $-1 #
edge $-1 $681 -205.34806360057374 $903 205.34806360057374 $673 $906 forward 7 unknown #
coedge $-1 $686 $685 $438 $679 reversed $670 $-1 #
edge $-1 $907 -205.34806360057374 $680 205.34806360057374 $678 $908 forward 7 unknown #
vertex $-1 $440 $909 #
vertex $-1 $692 $910 #
straight-curve $-1 205.34806360057374 0 -102.67403180028687 0 -1 0 I I #
coedge $-1 $672 $674 $441 $684 reversed $434 $-1 #
edge $-1 $687 -4.2981948304919175 $690 4.2981948304919175 $683 $911 forward 7 unknown #
coedge $-1 $678 $442 $447 $693 forward $670 $-1 #
coedge $-1 $442 $678 $672 $902 reversed $670 $-1 #
vertex $-1 $443 $912 #
straight-curve $-1 0 4.2981948304919175 102.67403180028687 -1 0 0 I I #
coedge $-1 $444 $673 $446 $692 reversed $277 $-1 #
vertex $-1 $684 $913 #
straight-curve $-1 0 -4.2981948304919175 102.67403180028687 1 0 0 I I #
edge $-1 $449 -102.67403180028687 $681 102.67403180028687 $446 $914 forward 7 unknown #
edge $-1 $450 -102.67403180028687 $680 102.67403180028687 $447 $915 forward 7 unknown #
point $-1 205.34806360057374 -4.2981948304919175 102.67403180028687 #
point $-1 205.34806360057374 4.2981948304919175 102.67403180028687 #
coedge $-1 $696 $696 $-1 $916 reversed $452 $-1 #
vertex $-1 $454 $917 #
ellipse-curve $-1 0 0 -0.25 0 0 -1 0.5 0 0 1 I I #
point $-1 0.5 0 -2.1706213568529305 #
coedge $-1 $700 $700 $-1 $918 reversed $457 $-1 #
vertex $-1 $459 $919 #
ellipse-curve $-1 0 0 -0.25 0 0 -1 0.5 0 0 1 I I #
point $-1 0.5 0 -2.1706213568529305 #
coedge $-1 $704 $704 $-1 $920 reversed $462 $-1 #
vertex $-1 $464 $921 #
ellipse-curve $-1 0 0 -0.25 0 0 -1 0.5 0 0 1 I I #
point $-1 0.5 0 -2.1706213568529305 #
face $-1 $-1 $482 $67 $-1 $922 reversed single #
loop $-1 $-1 $724 $467 #
plane-surface $-1 0 4.2981948304919175 0 0 -1 0 0 0 -1 forward_v I I I I #
coedge $-1 $923 $722 $725 $924 forward $468 $-1 #
coedge $-1 $728 $470 $471 $716 reversed $300 $-1 #
coedge $-1 $722 $923 $470 $714 reversed $468 $-1 #
edge $-1 $729 -102.67403180028687 $925 102.67403180028687 $713 $926 forward 7 unknown #
coedge $-1 $472 $471 $923 $927 forward $192 $-1 #
edge $-1 $720 -205.34806360057374 $925 205.34806360057374 $712 $928 forward 7 unknown #
coedge $-1 $725 $724 $472 $718 reversed $709 $-1 #
edge $-1 $929 -205.34806360057374 $719 205.34806360057374 $717 $930 forward 7 unknown #
vertex $-1 $474 $931 #
vertex $-1 $731 $932 #
straight-curve $-1 205.34806360057374 0 -102.67403180028687 0 -1 0 I I #
coedge $-1 $711 $713 $475 $723 reversed $468 $-1 #
edge $-1 $726 -4.2981948304919175 $729 4.2981948304919175 $722 $933 forward 7 unknown #
coedge $-1 $717 $476 $481 $732 forward $709 $-1 #
coedge $-1 $476 $717 $711 $924 reversed $709 $-1 #
vertex $-1 $477 $934 #
straight-curve $-1 0 4.2981948304919175 102.67403180028687 -1 0 0 I I #
coedge $-1 $478 $712 $480 $731 reversed $300 $-1 #
vertex $-1 $723 $935 #
straight-curve $-1 0 -4.2981948304919175 102.67403180028687 1 0 0 I I #
edge $-1 $483 -102.67403180028687 $720 102.67403180028687 $480 $936 forward 7 unknown #
edge $-1 $484 -102.67403180028687 $719 102.67403180028687 $481 $937 forward 7 unknown #
point $-1 205.34806360057374 -4.2981948304919175 102.67403180028687 #
point $-1 205.34806360057374 4.2981948304919175 102.67403180028687 #
coedge $-1 $735 $735 $-1 $938 reversed $486 $-1 #
vertex $-1 $488 $939 #
ellipse-curve $-1 0 0 -0.25 0 0 -1 0.5 0 0 1 I I #
point $-1 0.5 0 -2.1706213568529305 #
coedge $-1 $739 $739 $-1 $940 reversed $491 $-1 #
vertex $-1 $493 $941 #
ellipse-curve $-1 0 0 -0.25 0 0 -1 0.5 0 0 1 I I #
point $-1 0.5 0 -2.1706213568529305 #
coedge $-1 $743 $743 $-1 $942 reversed $496 $-1 #
vertex $-1 $498 $943 #
ellipse-curve $-1 0 0 -0.25 0 0 -1 0.5 0 0 1 I I #
point $-1 0.5 0 -2.1706213568529305 #
face $-1 $-1 $516 $71 $-1 $944 reversed single #
loop $-1 $-1 $763 $501 #
plane-surface $-1 0 3.0398478462320875 0 0 -1 0 0 0 -1 forward_v I I I I #
coedge $-1 $945 $761 $764 $946 forward $502 $-1 #
coedge $-1 $767 $504 $505 $755 reversed $323 $-1 #
coedge $-1 $761 $945 $504 $753 reversed $502 $-1 #
edge $-1 $768 -102.67403180028687 $947 102.67403180028687 $752 $948 forward 7 unknown #
coedge $-1 $506 $505 $945 $949 forward $211 $-1 #
edge $-1 $759 -205.34806360057374 $947 205.34806360057374 $751 $950 forward 7 unknown #
coedge $-1 $764 $763 $506 $757 reversed $748 $-1 #
edge $-1 $951 -205.34806360057374 $758 205.34806360057374 $756 $952 forward 7 unknown #
vertex $-1 $508 $953 #
vertex $-1 $770 $954 #
straight-curve $-1 205.34806360057374 0 -102.67403180028687 0 -1 0 I I #
coedge $-1 $750 $752 $509 $762 reversed $502 $-1 #
edge $-1 $765 -3.0398478462320875 $768 3.0398478462320875 $761 $955 forward 7 unknown #
coedge $-1 $756 $510 $515 $771 forward $748 $-1 #
coedge $-1 $510 $756 $750 $946 reversed $748 $-1 #
vertex $-1 $511 $956 #
straight-curve $-1 0 3.0398478462320875 102.67403180028687 -1 0 0 I I #
coedge $-1 $512 $751 $514 $770 reversed $323 $-1 #
vertex $-1 $762 $957 #
straight-curve $-1 0 -3.0398478462320875 102.67403180028687 1 0 0 I I #
edge $-1 $517 -102.67403180028687 $759 102.67403180028687 $514 $958 forward 7 unknown #
edge $-1 $518 -102.67403180028687 $758 102.67403180028687 $515 $959 forward 7 unknown #
point $-1 205.34806360057374 -3.0398478462320875 102.67403180028687 #
point $-1 205.34806360057374 3.0398478462320875 102.67403180028687 #
coedge $-1 $774 $774 $-1 $960 reversed $520 $-1 #
vertex $-1 $522 $961 #
ellipse-curve $-1 0 0 -0.25 0 0 -1 0.5 0 0 1 I I #
point $-1 0.5 0 -2.1761604663228238 #
coedge $-1 $778 $778 $-1 $962 reversed $525 $-1 #
vertex $-1 $527 $963 #
ellipse-curve $-1 0 0 -0.25 0 0 -1 0.5 0 0 1 I I #
point $-1 0.5 0 -2.1761604663228238 #
face $-1 $-1 $545 $74 $-1 $964 reversed single #
loop $-1 $-1 $798 $530 #
plane-surface $-1 0 3.0398478462320875 0 0 -1 0 0 0 -1 forward_v I I I I #
coedge $-1 $965 $796 $799 $966 forward $531 $-1 #
coedge $-1 $802 $533 $534 $790 reversed $341 $-1 #
coedge $-1 $796 $965 $533 $788 reversed $531 $-1 #
edge $-1 $803 -102.67403180028687 $967 102.67403180028687 $787 $968 forward 7 unknown #
coedge $-1 $535 $534 $965 $969 forward $225 $-1 #
edge $-1 $794 -205.34806360057374 $967 205.34806360057374 $786 $970 forward 7 unknown #
coedge $-1 $799 $798 $535 $792 reversed $783 $-1 #
edge $-1 $971 -205.34806360057374 $793 205.34806360057374 $791 $972 forward 7 unknown #
vertex $-1 $537 $973 #
vertex $-1 $805 $974 #
straight-curve $-1 205.34806360057374 0 -102.67403180028687 0 -1 0 I I #
coedge $-1 $785 $787 $538 $797 reversed $531 $-1 #
edge $-1 $800 -3.0398478462320875 $803 3.0398478462320875 $796 $975 forward 7 unknown #
coedge $-1 $791 $539 $544 $806 forward $783 $-1 #
coedge $-1 $539 $791 $785 $966 reversed $783 $-1 #
vertex $-1 $540 $976 #
straight-curve $-1 0 3.0398478462320875 102.67403180028687 -1 0 0 I I #
coedge $-1 $541 $786 $543 $805 reversed $341 $-1 #
vertex $-1 $797 $977 #
straight-curve $-1 0 -3.0398478462320875 102.67403180028687 1 0 0 I I #
edge $-1 $546 -102.67403180028687 $794 102.67403180028687 $543 $978 forward 7 unknown #
edge $-1 $547 -102.67403180028687 $793 102.67403180028687 $544 $979 forward 7 unknown #
point $-1 205.34806360057374 -3.0398478462320875 102.67403180028687 #
point $-1 205.34806360057374 3.0398478462320875 102.67403180028687 #
coedge $-1 $809 $809 $-1 $980 reversed $549 $-1 #
vertex $-1 $551 $981 #
ellipse-curve $-1 0 0 -0.25 0 0 -1 0.5 0 0 1 I I #
point $-1 0.5 0 -2.1761604663228238 #
coedge $-1 $813 $813 $-1 $982 reversed $554 $-1 #
vertex $-1 $556 $983 #
ellipse-curve $-1 0 0 -0.25 0 0 -1 0.5 0 0 1 I I #
point $-1 0.5 0 -2.1761604663228238 #
face $-1 $-1 $574 $77 $-1 $984 reversed single #
loop $-1 $-1 $833 $559 #
plane-surface $-1 0 3.0398478462320875 0 0 -1 0 0 0 -1 forward_v I I I I #
coedge $-1 $985 $831 $834 $986 forward $560 $-1 #
coedge $-1 $837 $562 $563 $825 reversed $359 $-1 #
coedge $-1 $831 $985 $562 $823 reversed $560 $-1 #
edge $-1 $838 -102.67403180028687 $987 102.67403180028687 $822 $988 forward 7 unknown #
coedge $-1 $564 $563 $985 $989 forward $239 $-1 #
edge $-1 $829 -205.34806360057374 $987 205.34806360057374 $821 $990 forward 7 unknown #
coedge $-1 $834 $833 $564 $827 reversed $818 $-1 #
edge $-1 $991 -205.34806360057374 $828 205.34806360057374 $826 $992 forward 7 unknown #
vertex $-1 $566 $993 #
vertex $-1 $840 $994 #
straight-curve $-1 205.34806360057374 0 -102.67403180028687 0 -1 0 I I #
coedge $-1 $820 $822 $567 $832 reversed $560 $-1 #
edge $-1 $835 -3.0398478462320875 $838 3.0398478462320875 $831 $995 forward 7 unknown #
coedge $-1 $826 $568 $573 $841 forward $818 $-1 #
coedge $-1 $568 $826 $820 $986 reversed $818 $-1 #
vertex $-1 $569 $996 #
straight-curve $-1 0 3.0398478462320875 102.67403180028687 -1 0 0 I I #
coedge $-1 $570 $821 $572 $840 reversed $359 $-1 #
vertex $-1 $832 $997 #
straight-curve $-1 0 -3.0398478462320875 102.67403180028687 1 0 0 I I #
edge $-1 $575 -102.67403180028687 $829 102.67403180028687 $572 $998 forward 7 unknown #
edge $-1 $576 -102.67403180028687 $828 102.67403180028687 $573 $999 forward 7 unknown #
point $-1 205.34806360057374 -3.0398478462320875 102.67403180028687 #
point $-1 205.34806360057374 3.0398478462320875 102.67403180028687 #
coedge $-1 $844 $844 $-1 $1000 reversed $578 $-1 #
vertex $-1 $580 $1001 #
ellipse-curve $-1 0 0 -0.25 0 0 -1 0.5 0 0 1 I I #
point $-1 0.5 0 -2.1761604663228238 #
coedge $-1 $848 $848 $-1 $1002 reversed $583 $-1 #
vertex $-1 $585 $1003 #
ellipse-curve $-1 0 0 -0.25 0 0 -1 0.5 0 0 1 I I #
point $-1 0.5 0 -2.1761604663228238 #
plane-surface $-1 51.337015900143435 0 0 -1 0 0 0 0 1 forward_v I I I I #
coedge $-1 $593 $591 $595 $857 reversed $377 $-1 #
edge $-1 $606 -5.0089365797259902 $859 5.0089365797259902 $605 $1004 forward 7 unknown #
vertex $-1 $857 $1005 #
straight-curve $-1 -51.337015900143435 -23.524125685521216 0 0 0 -1 I I #
edge $-1 $855 -23.524125685521216 $859 23.524125685521216 $853 $1006 forward 7 unknown #
straight-curve $-1 0 -23.524125685521216 -5.0089365797259902 -1 0 0 I I #
vertex $-1 $598 $1007 #
straight-curve $-1 0 23.524125685521216 -5.0089365797259902 1 0 0 I I #
point $-1 51.337015900143435 23.524125685521216 -5.0089365797259902 #
point $-1 51.337015900143435 -23.524125685521216 -5.0089365797259902 #
straight-curve $-1 -51.337015900143435 0 5.0089365797259902 0 -1 0 I I #
point $-1 -51.337015900143435 23.524125685521216 5.0089365797259902 #
point $-1 -51.337015900143435 -23.524125685521216 5.0089365797259902 #
straight-curve $-1 51.337015900143435 -23.524125685521216 0 0 0 -1 I I #
straight-curve $-1 51.337015900143435 23.524125685521216 0 0 0 -1 I I #
plane-surface $-1 51.337015900143435 0 0 -1 0 0 0 0 1 forward_v I I I I #
coedge $-1 $620 $618 $622 $873 reversed $396 $-1 #
edge $-1 $633 -1.5 $875 1.5 $632 $1008 forward 7 unknown #
vertex $-1 $873 $1009 #
straight-curve $-1 -51.337015900143435 -3.082928847438382 0 0 0 -1 I I #
edge $-1 $871 -3.082928847438382 $875 3.082928847438382 $869 $1010 forward 7 unknown #
straight-curve $-1 0 -3.082928847438382 -1.5 -1 0 0 I I #
vertex $-1 $625 $1011 #
straight-curve $-1 0 3.082928847438382 -1.5 1 0 0 I I #
point $-1 51.337015900143435 3.082928847438382 -1.5 #
point $-1 51.337015900143435 -3.082928847438382 -1.5 #
straight-curve $-1 -51.337015900143435 0 1.5 0 -1 0 I I #
point $-1 -51.337015900143435 3.082928847438382 1.5 #
point $-1 -51.337015900143435 -3.082928847438382 1.5 #
straight-curve $-1 51.337015900143435 -3.082928847438382 0 0 0 -1 I I #
straight-curve $-1 51.337015900143435 3.082928847438382 0 0 0 -1 I I #
plane-surface $-1 51.337015900143435 0 0 -1 0 0 0 0 1 forward_v I I I I #
coedge $-1 $647 $645 $649 $889 reversed $415 $-1 #
edge $-1 $660 -1.5 $891 1.5 $659 $1012 forward 7 unknown #
vertex $-1 $889 $1013 #
straight-curve $-1 -51.337015900143435 -3.0829288474383816 0 0 0 -1 I I #
edge $-1 $887 -3.0829288474383816 $891 3.0829288474383816 $885 $1014 forward 7 unknown #
straight-curve $-1 0 -3.0829288474383816 -1.5 -1 0 0 I I #
vertex $-1 $652 $1015 #
straight-curve $-1 0 3.0829288474383816 -1.5 1 0 0 I I #
point $-1 51.337015900143435 3.0829288474383816 -1.5 #
point $-1 51.337015900143435 -3.0829288474383816 -1.5 #
straight-curve $-1 -51.337015900143435 0 1.5 0 -1 0 I I #
point $-1 -51.337015900143435 3.0829288474383816 1.5 #
point $-1 -51.337015900143435 -3.0829288474383816 1.5 #
straight-curve $-1 51.337015900143435 -3.0829288474383816 0 0 0 -1 I I #
straight-curve $-1 51.337015900143435 3.0829288474383816 0 0 0 -1 I I #
plane-surface $-1 205.34806360057374 0 0 -1 0 0 0 0 1 forward_v I I I I #
coedge $-1 $674 $672 $676 $905 reversed $434 $-1 #
edge $-1 $687 -102.67403180028687 $907 102.67403180028687 $686 $1016 forward 7 unknown #
vertex $-1 $905 $1017 #
straight-curve $-1 -205.34806360057374 -4.2981948304919175 0 0 0 -1 I I #
edge $-1 $903 -4.2981948304919175 $907 4.2981948304919175 $901 $1018 forward 7 unknown #
straight-curve $-1 0 -4.2981948304919175 -102.67403180028687 -1 0 0 I I #
vertex $-1 $679 $1019 #
straight-curve $-1 0 4.2981948304919175 -102.67403180028687 1 0 0 I I #
point $-1 205.34806360057374 4.2981948304919175 -102.67403180028687 #
point $-1 205.34806360057374 -4.2981948304919175 -102.67403180028687 #
straight-curve $-1 -205.34806360057374 0 102.67403180028687 0 -1 0 I I #
point $-1 -205.34806360057374 4.2981948304919175 102.67403180028687 #
point $-1 -205.34806360057374 -4.2981948304919175 102.67403180028687 #
straight-curve $-1 205.34806360057374 -4.2981948304919175 0 0 0 -1 I I #
straight-curve $-1 205.34806360057374 4.2981948304919175 0 0 0 -1 I I #
edge $-1 $1020 1 $1020 0 $696 $-1 forward 7 unknown #
point $-1 0.5 0 -0.25 #
edge $-1 $1021 1 $1021 0 $700 $-1 forward 7 unknown #
point $-1 0.5 0 -0.25 #
edge $-1 $1022 1 $1022 0 $704 $-1 forward 7 unknown #
point $-1 0.5 0 -0.25 #
plane-surface $-1 205.34806360057374 0 0 -1 0 0 0 0 1 forward_v I I I I #
coedge $-1 $713 $711 $715 $927 reversed $468 $-1 #
edge $-1 $726 -102.67403180028687 $929 102.67403180028687 $725 $1023 forward 7 unknown #
vertex $-1 $927 $1024 #
straight-curve $-1 -205.34806360057374 -4.2981948304919175 0 0 0 -1 I I #
edge $-1 $925 -4.2981948304919175 $929 4.2981948304919175 $923 $1025 forward 7 unknown #
straight-curve $-1 0 -4.2981948304919175 -102.67403180028687 -1 0 0 I I #
vertex $-1 $718 $1026 #
straight-curve $-1 0 4.2981948304919175 -102.67403180028687 1 0 0 I I #
point $-1 205.34806360057374 4.2981948304919175 -102.67403180028687 #
point $-1 205.34806360057374 -4.2981948304919175 -102.67403180028687 #
straight-curve $-1 -205.34806360057374 0 102.67403180028687 0 -1 0 I I #
point $-1 -205.34806360057374 4.2981948304919175 102.67403180028687 #
point $-1 -205.34806360057374 -4.2981948304919175 102.67403180028687 #
straight-curve $-1 205.34806360057374 -4.2981948304919175 0 0 0 -1 I I #
straight-curve $-1 205.34806360057374 4.2981948304919175 0 0 0 -1 I I #
edge $-1 $1027 1 $1027 0 $735 $-1 forward 7 unknown #
point $-1 0.5 0 -0.25 #
edge $-1 $1028 1 $1028 0 $739 $-1 forward 7 unknown #
point $-1 0.5 0 -0.25 #
edge $-1 $1029 1 $1029 0 $743 $-1 forward 7 unknown #
point $-1 0.5 0 -0.25 #
plane-surface $-1 205.34806360057374 0 0 -1 0 0 0 0 1 forward_v I I I I #
coedge $-1 $752 $750 $754 $949 reversed $502 $-1 #
edge $-1 $765 -102.67403180028687 $951 102.67403180028687 $764 $1030 forward 7 unknown #
vertex $-1 $949 $1031 #
straight-curve $-1 -205.34806360057374 -3.0398478462320875 0 0 0 -1 I I #
edge $-1 $947 -3.0398478462320875 $951 3.0398478462320875 $945 $1032 forward 7 unknown #
straight-curve $-1 0 -3.0398478462320875 -102.67403180028687 -1 0 0 I I #
vertex $-1 $757 $1033 #
straight-curve $-1 0 3.0398478462320875 -102.67403180028687 1 0 0 I I #
point $-1 205.34806360057374 3.0398478462320875 -102.67403180028687 #
point $-1 205.34806360057374 -3.0398478462320875 -102.67403180028687 #
straight-curve $-1 -205.34806360057374 0 102.67403180028687 0 -1 0 I I #
point $-1 -205.34806360057374 3.0398478462320875 102.67403180028687 #
point $-1 -205.34806360057374 -3.0398478462320875 102.67403180028687 #
straight-curve $-1 205.34806360057374 -3.0398478462320875 0 0 0 -1 I I #
straight-curve $-1 205.34806360057374 3.0398478462320875 0 0 0 -1 I I #
edge $-1 $1034 1 $1034 0 $774 $-1 forward 7 unknown #
point $-1 0.5 0 -0.25 #
edge $-1 $1035 1 $1035 0 $778 $-1 forward 7 unknown #
point $-1 0.5 0 -0.25 #
plane-surface $-1 205.34806360057374 0 0 -1 0 0 0 0 1 forward_v I I I I #
coedge $-1 $787 $785 $789 $969 reversed $531 $-1 #
edge $-1 $800 -102.67403180028687 $971 102.67403180028687 $799 $1036 forward 7 unknown #
vertex $-1 $969 $1037 #
straight-curve $-1 -205.34806360057374 -3.0398478462320875 0 0 0 -1 I I #
edge $-1 $967 -3.0398478462320875 $971 3.0398478462320875 $965 $1038 forward 7 unknown #
straight-curve $-1 0 -3.0398478462320875 -102.67403180028687 -1 0 0 I I #
vertex $-1 $792 $1039 #
straight-curve $-1 0 3.0398478462320875 -102.67403180028687 1 0 0 I I #
point $-1 205.34806360057374 3.0398478462320875 -102.67403180028687 #
point $-1 205.34806360057374 -3.0398478462320875 -102.67403180028687 #
straight-curve $-1 -205.34806360057374 0 102.67403180028687 0 -1 0 I I #
point $-1 -205.34806360057374 3.0398478462320875 102.67403180028687 #
point $-1 -205.34806360057374 -3.0398478462320875 102.67403180028687 #
straight-curve $-1 205.34806360057374 -3.0398478462320875 0 0 0 -1 I I #
straight-curve $-1 205.34806360057374 3.0398478462320875 0 0 0 -1 I I #
edge $-1 $1040 1 $1040 0 $809 $-1 forward 7 unknown #
point $-1 0.5 0 -0.25 #
edge $-1 $1041 1 $1041 0 $813 $-1 forward 7 unknown #
point $-1 0.5 0 -0.25 #
plane-surface $-1 205.34806360057374 0 0 -1 0 0 0 0 1 forward_v I I I I #
coedge $-1 $822 $820 $824 $989 reversed $560 $-1 #
edge $-1 $835 -102.67403180028687 $991 102.67403180028687 $834 $1042 forward 7 unknown #
vertex $-1 $989 $1043 #
straight-curve $-1 -205.34806360057374 -3.0398478462320875 0 0 0 -1 I I #
edge $-1 $987 -3.0398478462320875 $991 3.0398478462320875 $985 $1044 forward 7 unknown #
straight-curve $-1 0 -3.0398478462320875 -102.67403180028687 -1 0 0 I I #
vertex $-1 $827 $1045 #
straight-curve $-1 0 3.0398478462320875 -102.67403180028687 1 0 0 I I #
point $-1 205.34806360057374 3.0398478462320875 -102.67403180028687 #
point $-1 205.34806360057374 -3.0398478462320875 -102.67403180028687 #
straight-curve $-1 -205.34806360057374 0 102.67403180028687 0 -1 0 I I #
point $-1 -205.34806360057374 3.0398478462320875 102.67403180028687 #
point $-1 -205.34806360057374 -3.0398478462320875 102.67403180028687 #
straight-curve $-1 205.34806360057374 -3.0398478462320875 0 0 0 -1 I I #
straight-curve $-1 205.34806360057374 3.0398478462320875 0 0 0 -1 I I #
edge $-1 $1046 1 $1046 0 $844 $-1 forward 7 unknown #
point $-1 0.5 0 -0.25 #
edge $-1 $1047 1 $1047 0 $848 $-1 forward 7 unknown #
point $-1 0.5 0 -0.25 #
straight-curve $-1 -51.337015900143435 23.524125685521216 0 0 0 -1 I I #
point $-1 -51.337015900143435 -23.524125685521216 -5.0089365797259902 #
straight-curve $-1 -51.337015900143435 0 -5.0089365797259902 0 1 0 I I #
point $-1 -51.337015900143435 23.524125685521216 -5.0089365797259902 #
straight-curve $-1 -51.337015900143435 3.082928847438382 0 0 0 -1 I I #
point $-1 -51.337015900143435 -3.082928847438382 -1.5 #
straight-curve $-1 -51.337015900143435 0 -1.5 0 1 0 I I #
point $-1 -51.337015900143435 3.082928847438382 -1.5 #
straight-curve $-1 -51.337015900143435 3.0829288474383816 0 0 0 -1 I I #
point $-1 -51.337015900143435 -3.0829288474383816 -1.5 #
straight-curve $-1 -51.337015900143435 0 -1.5 0 1 0 I I #
point $-1 -51.337015900143435 3.0829288474383816 -1.5 #
straight-curve $-1 -205.34806360057374 4.2981948304919175 0 0 0 -1 I I #
point $-1 -205.34806360057374 -4.2981948304919175 -102.67403180028687 #
straight-curve $-1 -205.34806360057374 0 -102.67403180028687 0 1 0 I I #
point $-1 -205.34806360057374 4.2981948304919175 -102.67403180028687 #
vertex $-1 $916 $1048 #
vertex $-1 $918 $1049 #
vertex $-1 $920 $1050 #
straight-curve $-1 -205.34806360057374 4.2981948304919175 0 0 0 -1 I I #
point $-1 -205.34806360057374 -4.2981948304919175 -102.67403180028687 #
straight-curve $-1 -205.34806360057374 0 -102.67403180028687 0 1 0 I I #
point $-1 -205.34806360057374 4.2981948304919175 -102.67403180028687 #
vertex $-1 $938 $1051 #
vertex $-1 $940 $1052 #
vertex $-1 $942 $1053 #
straight-curve $-1 -205.34806360057374 3.0398478462320875 0 0 0 -1 I I #
point $-1 -205.34806360057374 -3.0398478462320875 -102.67403180028687 #
straight-curve $-1 -205.34806360057374 0 -102.67403180028687 0 1 0 I I #
point $-1 -205.34806360057374 3.0398478462320875 -102.67403180028687 #
vertex $-1 $960 $1054 #
vertex $-1 $962 $1055 #
straight-curve $-1 -205.34806360057374 3.0398478462320875 0 0 0 -1 I I #
point $-1 -205.34806360057374 -3.0398478462320875 -102.67403180028687 #
straight-curve $-1 -205.34806360057374 0 -102.67403180028687 0 1 0 I I #
point $-1 -205.34806360057374 3.0398478462320875 -102.67403180028687 #
vertex $-1 $980 $1056 #
vertex $-1 $982 $1057 #
straight-curve $-1 -205.34806360057374 3.0398478462320875 0 0 0 -1 I I #
point $-1 -205.34806360057374 -3.0398478462320875 -102.67403180028687 #
straight-curve $-1 -205.34806360057374 0 -102.67403180028687 0 1 0 I I #
point $-1 -205.34806360057374 3.0398478462320875 -102.67403180028687 #
vertex $-1 $1000 $1058 #
vertex $-1 $1002 $1059 #
point $-1 0 0 0.25 #
point $-1 0 0 0.25 #
point $-1 0 0 0.25 #
point $-1 0 0 0.25 #
point $-1 0 0 0.25 #
point $-1 0 0 0.25 #
point $-1 0 0 0.25 #
point $-1 0 0 0.25 #
point $-1 0 0 0.25 #
point $-1 0 0 0.25 #
point $-1 0 0 0.25 #
point $-1 0 0 0.25 #
End-of-ACIS-data 