500 0 16 0           
7 Unknown 11 ACIS 5.0 NT 24 Thu Mar 25 21:02:32 1999 
-1 9.9999999999999995e-007 1e-010 
body $-1 $16 $-1 $17 #
body $-1 $18 $-1 $19 #
body $-1 $20 $-1 $21 #
body $-1 $22 $-1 $23 #
body $-1 $24 $-1 $25 #
body $-1 $26 $-1 $27 #
body $-1 $28 $-1 $29 #
body $-1 $30 $-1 $31 #
body $-1 $32 $-1 $33 #
body $-1 $34 $-1 $35 #
body $-1 $36 $-1 $37 #
body $-1 $38 $-1 $39 #
body $-1 $40 $-1 $41 #
body $-1 $42 $-1 $43 #
body $-1 $44 $-1 $45 #
body $-1 $46 $-1 $47 #
lump $-1 $-1 $48 $0 #
transform $-1 1 0 0 0 1 0 0 0 1 54.459669789727471 34.637493461495261 13.529732430891569 1 rotate no_reflect no_shear #
lump $-1 $-1 $49 $1 #
transform $-1 1 0 0 0 1 0 0 0 1 54.459669789727471 34.637493461495261 13.529732430891569 1 rotate no_reflect no_shear #
lump $-1 $-1 $50 $2 #
transform $-1 1 0 0 0 1 0 0 0 1 54.459669789727471 34.637493461495261 13.529732430891569 1 rotate no_reflect no_shear #
lump $-1 $-1 $51 $3 #
transform $-1 1 0 0 0 1 0 0 0 1 54.459669789727471 34.637493461495261 13.529732430891569 1 rotate no_reflect no_shear #
lump $-1 $-1 $52 $4 #
transform $-1 1 0 0 0 1 0 0 0 1 54.459669789727471 34.637493461495261 13.529732430891569 1 rotate no_reflect no_shear #
lump $-1 $-1 $53 $5 #
transform $-1 1 0 0 0 1 0 0 0 1 54.459669789727471 34.637493461495261 13.529732430891569 1 rotate no_reflect no_shear #
lump $-1 $-1 $54 $6 #
transform $-1 1 0 0 0 1 0 0 0 1 54.459669789727471 34.637493461495261 13.529732430891569 1 rotate no_reflect no_shear #
lump $-1 $-1 $55 $7 #
transform $-1 1 0 0 0 1 0 0 0 1 54.459669789727471 34.637493461495261 13.529732430891569 1 rotate no_reflect no_shear #
lump $-1 $-1 $56 $8 #
transform $-1 1 0 0 0 1 0 0 0 1 54.459669789727471 34.637493461495261 13.529732430891569 1 rotate no_reflect no_shear #
lump $-1 $-1 $57 $9 #
transform $-1 1 0 0 0 1 0 0 0 1 54.459669789727471 34.637493461495261 13.529732430891569 1 rotate no_reflect no_shear #
lump $-1 $-1 $58 $10 #
transform $-1 1 0 0 0 1 0 0 0 1 54.459669789727471 34.637493461495261 13.529732430891569 1 rotate no_reflect no_shear #
lump $-1 $-1 $59 $11 #
transform $-1 1 0 0 0 1 0 0 0 1 54.459669789727471 34.637493461495261 13.529732430891569 1 rotate no_reflect no_shear #
lump $-1 $-1 $60 $12 #
transform $-1 1 0 0 0 1 0 0 0 1 54.459669789727471 34.637493461495261 13.529732430891569 1 rotate no_reflect no_shear #
lump $-1 $-1 $61 $13 #
transform $-1 1 0 0 0 1 0 0 0 1 54.459669789727471 34.637493461495261 13.529732430891569 1 rotate no_reflect no_shear #
lump $-1 $-1 $62 $14 #
transform $-1 1 0 0 0 1 0 0 0 1 54.459669789727471 34.637493461495261 13.529732430891569 1 rotate no_reflect no_shear #
lump $-1 $-1 $63 $15 #
transform $-1 1 0 0 0 1 0 0 0 1 54.459669789727471 34.637493461495261 13.529732430891569 1 rotate no_reflect no_shear #
shell $-1 $-1 $-1 $64 $-1 $16 #
shell $-1 $-1 $-1 $65 $-1 $18 #
shell $-1 $-1 $-1 $66 $-1 $20 #
shell $-1 $-1 $-1 $67 $-1 $22 #
shell $-1 $-1 $-1 $68 $-1 $24 #
shell $-1 $-1 $-1 $69 $-1 $26 #
shell $-1 $-1 $-1 $70 $-1 $28 #
shell $-1 $-1 $-1 $71 $-1 $30 #
shell $-1 $-1 $-1 $72 $-1 $32 #
shell $-1 $-1 $-1 $73 $-1 $34 #
shell $-1 $-1 $-1 $74 $-1 $36 #
shell $-1 $-1 $-1 $75 $-1 $38 #
shell $-1 $-1 $-1 $76 $-1 $40 #
shell $-1 $-1 $-1 $77 $-1 $42 #
shell $-1 $-1 $-1 $78 $-1 $44 #
shell $-1 $-1 $-1 $79 $-1 $46 #
face $-1 $80 $81 $48 $-1 $82 forward single #
face $-1 $83 $84 $49 $-1 $85 reversed single #
face $-1 $86 $87 $50 $-1 $88 reversed single #
face $-1 $89 $90 $51 $-1 $91 forward single #
face $-1 $92 $93 $52 $-1 $94 reversed single #
face $-1 $95 $96 $53 $-1 $97 forward single #
face $-1 $98 $99 $54 $-1 $100 reversed single #
face $-1 $101 $102 $55 $-1 $103 forward single #
face $-1 $104 $105 $56 $-1 $106 reversed single #
face $-1 $107 $108 $57 $-1 $109 forward single #
face $-1 $110 $111 $58 $-1 $112 reversed single #
face $-1 $113 $114 $59 $-1 $115 forward single #
face $-1 $116 $117 $60 $-1 $118 forward single #
face $-1 $119 $120 $61 $-1 $121 reversed single #
face $-1 $122 $123 $62 $-1 $124 forward single #
face $-1 $125 $126 $63 $-1 $127 forward single #
face $-1 $128 $129 $48 $-1 $130 reversed single #
loop $-1 $-1 $131 $64 #
plane-surface $-1 0 0 13.529732430891569 0 0 1 1 0 0 forward_v I I I I #
face $-1 $132 $133 $49 $-1 $134 reversed single #
loop $-1 $-1 $135 $65 #
plane-surface $-1 -34.907437119448346 -26.077405545139015 0 1 0 0 0 0 -1 forward_v I I I I #
face $-1 $136 $137 $50 $-1 $138 reversed single #
loop $-1 $-1 $139 $66 #
plane-surface $-1 86.485392386360346 -9.8062331579224473 152.04616011919677 0 -1 0 -0.83867057594974714 0 -0.54463902268945019 forward_v I I I I #
face $-1 $140 $141 $51 $-1 $142 forward single #
loop $-1 $143 $144 $67 #
cone-surface $-1 49.028742895909012 -13.661775393352606 6.4890660198713457 -0.83867057594974714 0 -0.54463902268945019 0.81695853403417529 0 -1.2580058639246208 1 I I 0 1 1.5 forward I I I I #
face $-1 $145 $146 $52 $-1 $147 reversed single #
loop $-1 $-1 $148 $68 #
plane-surface $-1 86.485392386360346 5.0083423818834607 152.04616011919677 0 -1 0 -0.83867057594974714 0 -0.54463902268945019 forward_v I I I I #
face $-1 $149 $150 $53 $-1 $151 forward single #
loop $-1 $152 $153 $69 #
cone-surface $-1 49.028742895909012 1.152800146453302 6.4890660198713457 -0.83867057594974714 0 -0.54463902268945019 0.81695853403417529 0 -1.2580058639246208 1 I I 0 1 1.5 forward I I I I #
face $-1 $154 $155 $54 $-1 $156 reversed single #
loop $-1 $-1 $157 $70 #
plane-surface $-1 86.485392386360346 19.822917921689367 152.04616011919677 0 -1 0 -0.83867057594974714 0 -0.54463902268945019 forward_v I I I I #
face $-1 $158 $159 $55 $-1 $160 forward single #
loop $-1 $161 $162 $71 #
cone-surface $-1 49.028742895909012 15.96737568625921 6.4890660198713457 -0.83867057594974714 0 -0.54463902268945019 0.81695853403417529 0 -1.2580058639246208 1 I I 0 1 1.5 forward I I I I #
face $-1 $163 $164 $56 $-1 $165 reversed single #
loop $-1 $-1 $166 $72 #
plane-surface $-1 86.485392386360346 26.926408990634954 152.04616011919677 0 1 0 0.83867057594974714 0 0.54463902268945019 forward_v I I I I #
face $-1 $167 $168 $57 $-1 $169 forward single #
loop $-1 $170 $171 $73 #
cone-surface $-1 49.028742895909012 30.781951226065111 6.4890660198713457 -0.83867057594974714 0 -0.54463902268945019 0.81695853403417529 0 -1.2580058639246208 1 I I 0 1 1.5 forward I I I I #
face $-1 $172 $173 $58 $-1 $174 reversed single #
loop $-1 $-1 $175 $74 #
plane-surface $-1 -120.00896549028671 -12.809272417053 96.737627509343881 0 1 0 -0.6018150307709319 0 0.79863550430605224 forward_v I I I I #
face $-1 $176 $177 $59 $-1 $178 forward single #
loop $-1 $179 $180 $75 #
cone-surface $-1 -51.517797115483667 -10.65830720181614 11.06371908689157 0.6018150307709319 0 -0.79863550430605224 0.39931775215302612 0 0.30090751538546595 1 I I 0 1 0.5 forward I I I I #
face $-1 $181 $182 $60 $-1 $183 forward single #
loop $-1 $184 $185 $76 #
cone-surface $-1 -51.517797115483667 -7.4318593789608443 11.06371908689157 0.6018150307709319 0 -0.79863550430605224 0.39931775215302612 0 0.30090751538546595 1 I I 0 1 0.5 forward I I I I #
face $-1 $186 $187 $61 $-1 $188 reversed single #
loop $-1 $-1 $189 $77 #
plane-surface $-1 -120.00896549028671 22.401069996436476 96.737627509343881 0 1 0 -0.6018150307709319 0 0.79863550430605224 forward_v I I I I #
face $-1 $190 $191 $62 $-1 $192 forward single #
loop $-1 $193 $194 $78 #
cone-surface $-1 -51.517797115483667 24.552035211673335 11.06371908689157 0.6018150307709319 0 -0.79863550430605224 0.39931775215302612 0 0.30090751538546595 1 I I 0 1 0.5 forward I I I I #
face $-1 $195 $196 $63 $-1 $197 forward single #
loop $-1 $198 $199 $79 #
cone-surface $-1 -51.517797115483667 27.778483034528634 11.06371908689157 0.6018150307709319 0 -0.79863550430605224 0.39931775215302612 0 0.30090751538546595 1 I I 0 1 0.5 forward I I I I #
face $-1 $200 $201 $48 $-1 $202 reversed single #
loop $-1 $-1 $203 $80 #
plane-surface $-1 0 0 -13.529732430891569 0 0 1 1 0 0 forward_v I I I I #
coedge $-1 $204 $205 $206 $207 forward $81 $-1 #
face $-1 $208 $209 $49 $-1 $210 reversed single #
loop $-1 $-1 $211 $83 #
plane-surface $-1 -31.153821023696338 -17.51731762878277 0 0 -1 0 0 0 -1 forward_v I I I I #
coedge $-1 $212 $213 $214 $215 forward $84 $-1 #
face $-1 $216 $217 $50 $-1 $218 reversed single #
loop $-1 $-1 $219 $86 #
plane-surface $-1 -4.8620528708072186 -13.661775393352606 92.724437458662081 0.83867057594974714 0 0.54463902268945019 0.54463902268945019 0 -0.83867057594974714 forward_v I I I I #
coedge $-1 $220 $221 $222 $223 reversed $87 $-1 #
face $-1 $-1 $224 $51 $-1 $225 forward single #
loop $-1 $226 $227 $89 #
cone-surface $-1 46.914853834728873 -13.661775393352606 5.1162904565325693 -0.83867057594974714 0 -0.54463902268945019 0.40847926701708764 0 -0.62900293196231039 1 I I -0.70710678118654757 0.70710678118654757 0.75 forward I I I I #
loop $-1 $-1 $228 $67 #
coedge $-1 $144 $144 $229 $230 reversed $90 $-1 #
face $-1 $231 $232 $52 $-1 $233 reversed single #
loop $-1 $-1 $234 $92 #
plane-surface $-1 -4.8620528708072186 1.152800146453302 92.724437458662081 0.83867057594974714 0 0.54463902268945019 0.54463902268945019 0 -0.83867057594974714 forward_v I I I I #
coedge $-1 $235 $236 $237 $238 reversed $93 $-1 #
face $-1 $-1 $239 $53 $-1 $240 forward single #
loop $-1 $241 $242 $95 #
cone-surface $-1 46.914853834728873 1.152800146453302 5.1162904565325693 -0.83867057594974714 0 -0.54463902268945019 0.40847926701708764 0 -0.62900293196231039 1 I I -0.70710678118654757 0.70710678118654757 0.75 forward I I I I #
loop $-1 $-1 $243 $69 #
coedge $-1 $153 $153 $244 $245 reversed $96 $-1 #
face $-1 $246 $247 $54 $-1 $248 reversed single #
loop $-1 $-1 $249 $98 #
plane-surface $-1 -4.8620528708072186 15.96737568625921 92.724437458662081 0.83867057594974714 0 0.54463902268945019 0.54463902268945019 0 -0.83867057594974714 forward_v I I I I #
coedge $-1 $250 $251 $252 $253 reversed $99 $-1 #
face $-1 $-1 $254 $55 $-1 $255 forward single #
loop $-1 $256 $257 $101 #
cone-surface $-1 46.914853834728873 15.96737568625921 5.1162904565325693 -0.83867057594974714 0 -0.54463902268945019 0.40847926701708764 0 -0.62900293196231039 1 I I -0.70710678118654757 0.70710678118654757 0.75 forward I I I I #
loop $-1 $-1 $258 $71 #
coedge $-1 $162 $162 $259 $260 reversed $102 $-1 #
face $-1 $261 $262 $56 $-1 $263 reversed single #
loop $-1 $-1 $264 $104 #
plane-surface $-1 -4.8620528708072186 30.781951226065111 92.724437458662081 0.83867057594974714 0 0.54463902268945019 0.54463902268945019 0 -0.83867057594974714 forward_v I I I I #
coedge $-1 $265 $266 $267 $268 reversed $105 $-1 #
face $-1 $-1 $269 $57 $-1 $270 forward single #
loop $-1 $271 $272 $107 #
cone-surface $-1 46.914853834728873 30.781951226065111 5.1162904565325693 -0.83867057594974714 0 -0.54463902268945019 0.40847926701708764 0 -0.62900293196231039 1 I I -0.70710678118654757 0.70710678118654757 0.75 forward I I I I #
loop $-1 $-1 $273 $73 #
coedge $-1 $171 $171 $274 $275 reversed $108 $-1 #
face $-1 $276 $277 $58 $-1 $278 reversed single #
loop $-1 $-1 $279 $110 #
plane-surface $-1 -54.459669789727457 -9.0450832903884901 9.7507758156237259 -0.6018150307709319 0 0.79863550430605224 0.79863550430605224 0 0.6018150307709319 forward_v I I I I #
coedge $-1 $280 $281 $282 $283 reversed $111 $-1 #
face $-1 $-1 $284 $59 $-1 $285 forward single #
loop $-1 $286 $287 $113 #
cone-surface $-1 -50.932893037487851 -10.65830720181614 10.287525174448971 0.6018150307709319 0 -0.79863550430605224 0.19965887607651306 0 0.15045375769273298 1 I I -0.70710678118654746 0.70710678118654746 0.25 forward I I I I #
loop $-1 $-1 $288 $75 #
coedge $-1 $180 $180 $289 $290 reversed $114 $-1 #
face $-1 $-1 $291 $60 $-1 $292 forward single #
loop $-1 $293 $294 $116 #
cone-surface $-1 -50.932893037487851 -7.4318593789608443 10.287525174448971 0.6018150307709319 0 -0.79863550430605224 0.19965887607651306 0 0.15045375769273298 1 I I -0.70710678118654746 0.70710678118654746 0.25 forward I I I I #
loop $-1 $-1 $295 $76 #
coedge $-1 $185 $185 $296 $297 reversed $117 $-1 #
face $-1 $298 $299 $61 $-1 $300 reversed single #
loop $-1 $-1 $301 $119 #
plane-surface $-1 -54.459669789727457 26.165259123100988 9.7507758156237259 -0.6018150307709319 0 0.79863550430605224 0.79863550430605224 0 0.6018150307709319 forward_v I I I I #
coedge $-1 $302 $303 $304 $305 reversed $120 $-1 #
face $-1 $-1 $306 $62 $-1 $307 forward single #
loop $-1 $308 $309 $122 #
cone-surface $-1 -50.932893037487851 24.552035211673335 10.287525174448971 0.6018150307709319 0 -0.79863550430605224 0.19965887607651306 0 0.15045375769273298 1 I I -0.70710678118654746 0.70710678118654746 0.25 forward I I I I #
loop $-1 $-1 $310 $78 #
coedge $-1 $194 $194 $311 $312 reversed $123 $-1 #
face $-1 $-1 $313 $63 $-1 $314 forward single #
loop $-1 $315 $316 $125 #
cone-surface $-1 -50.932893037487851 27.778483034528634 10.287525174448971 0.6018150307709319 0 -0.79863550430605224 0.19965887607651306 0 0.15045375769273298 1 I I -0.70710678118654746 0.70710678118654746 0.25 forward I I I I #
loop $-1 $-1 $317 $79 #
coedge $-1 $199 $199 $318 $319 reversed $126 $-1 #
face $-1 $320 $321 $48 $-1 $322 reversed single #
loop $-1 $-1 $323 $128 #
plane-surface $-1 0 -34.637493461495261 0 0 1 0 0 0 1 forward_v I I I I #
coedge $-1 $324 $325 $326 $327 forward $129 $-1 #
coedge $-1 $328 $131 $329 $330 forward $81 $-1 #
coedge $-1 $131 $328 $331 $332 forward $81 $-1 #
coedge $-1 $333 $334 $131 $207 reversed $335 $-1 #
edge $-1 $336 -34.637493461495261 $337 34.637493461495261 $206 $338 forward 7 unknown #
face $-1 $339 $340 $49 $-1 $341 forward single #
loop $-1 $-1 $342 $132 #
plane-surface $-1 -27.40020492794433 -26.077405545139015 0 -1 0 0 0 0 1 forward_v I I I I #
coedge $-1 $343 $344 $345 $346 forward $133 $-1 #
coedge $-1 $347 $135 $348 $349 reversed $84 $-1 #
coedge $-1 $135 $347 $350 $351 reversed $84 $-1 #
coedge $-1 $344 $343 $135 $215 reversed $133 $-1 #
edge $-1 $352 -13.529732430891569 $353 13.529732430891569 $214 $354 forward 7 unknown #
face $-1 $355 $356 $50 $-1 $357 reversed single #
loop $-1 $-1 $358 $136 #
plane-surface $-1 86.485392386360346 -17.517317628782763 152.04616011919677 0 1 0 0.83867057594974714 0 0.54463902268945019 forward_v I I I I #
coedge $-1 $359 $360 $361 $362 reversed $137 $-1 #
coedge $-1 $221 $139 $363 $364 reversed $87 $-1 #
coedge $-1 $139 $220 $359 $365 reversed $87 $-1 #
coedge $-1 $361 $366 $139 $223 forward $367 $-1 #
edge $-1 $368 -11.216973596547298 $369 -3.3248920673460418 $222 $370 forward 7 unknown #
loop $-1 $-1 $229 $140 #
plane-surface $-1 -4.8620528708072186 -13.661775393352606 92.724437458662081 0.83867057594974714 0 0.54463902268945019 0.54463902268945019 0 -0.83867057594974714 forward_v I I I I #
loop $-1 $-1 $371 $89 #
coedge $-1 $227 $227 $228 $372 reversed $141 $-1 #
coedge $-1 $228 $228 $227 $372 forward $143 $-1 #
coedge $-1 $229 $229 $144 $230 forward $224 $-1 #
edge $-1 $373 0 $373 6.2831853071796004 $229 $374 forward 7 unknown #
face $-1 $375 $376 $52 $-1 $377 reversed single #
loop $-1 $-1 $378 $145 #
plane-surface $-1 86.485392386360346 -2.7027420889768567 152.04616011919677 0 1 0 0.83867057594974714 0 0.54463902268945019 forward_v I I I I #
coedge $-1 $379 $380 $381 $382 reversed $146 $-1 #
coedge $-1 $236 $148 $383 $384 reversed $93 $-1 #
coedge $-1 $148 $235 $379 $385 reversed $93 $-1 #
coedge $-1 $381 $386 $148 $238 forward $387 $-1 #
edge $-1 $388 -11.216973596547298 $389 -3.3248920673460418 $237 $390 forward 7 unknown #
loop $-1 $-1 $244 $149 #
plane-surface $-1 -4.8620528708072186 1.152800146453302 92.724437458662081 0.83867057594974714 0 0.54463902268945019 0.54463902268945019 0 -0.83867057594974714 forward_v I I I I #
loop $-1 $-1 $391 $95 #
coedge $-1 $242 $242 $243 $392 reversed $150 $-1 #
coedge $-1 $243 $243 $242 $392 forward $152 $-1 #
coedge $-1 $244 $244 $153 $245 forward $239 $-1 #
edge $-1 $393 0 $393 6.2831853071796004 $244 $394 forward 7 unknown #
face $-1 $395 $396 $54 $-1 $397 reversed single #
loop $-1 $-1 $398 $154 #
plane-surface $-1 86.485392386360346 12.111833450829051 152.04616011919677 0 1 0 0.83867057594974714 0 0.54463902268945019 forward_v I I I I #
coedge $-1 $399 $400 $401 $402 reversed $155 $-1 #
coedge $-1 $251 $157 $403 $404 reversed $99 $-1 #
coedge $-1 $157 $250 $399 $405 reversed $99 $-1 #
coedge $-1 $401 $406 $157 $253 forward $407 $-1 #
edge $-1 $408 -11.216973596547298 $409 -3.3248920673460418 $252 $410 forward 7 unknown #
loop $-1 $-1 $259 $158 #
plane-surface $-1 -4.8620528708072186 15.96737568625921 92.724437458662081 0.83867057594974714 0 0.54463902268945019 0.54463902268945019 0 -0.83867057594974714 forward_v I I I I #
loop $-1 $-1 $411 $101 #
coedge $-1 $257 $257 $258 $412 reversed $159 $-1 #
coedge $-1 $258 $258 $257 $412 forward $161 $-1 #
coedge $-1 $259 $259 $162 $260 forward $254 $-1 #
edge $-1 $413 0 $413 6.2831853071796004 $259 $414 forward 7 unknown #
face $-1 $415 $416 $56 $-1 $417 reversed single #
loop $-1 $-1 $267 $163 #
plane-surface $-1 54.459669789727471 0 0 -1 0 0 0 0 1 forward_v I I I I #
coedge $-1 $418 $419 $420 $421 reversed $164 $-1 #
coedge $-1 $266 $166 $422 $423 reversed $105 $-1 #
coedge $-1 $166 $265 $418 $424 reversed $105 $-1 #
coedge $-1 $420 $425 $166 $268 forward $262 $-1 #
edge $-1 $426 62.493347628706815 $427 74.646087858103868 $267 $428 forward 7 unknown #
loop $-1 $-1 $274 $167 #
plane-surface $-1 -4.8620528708072186 30.781951226065111 92.724437458662081 0.83867057594974714 0 0.54463902268945019 0.54463902268945019 0 -0.83867057594974714 forward_v I I I I #
loop $-1 $-1 $429 $107 #
coedge $-1 $272 $272 $273 $430 reversed $168 $-1 #
coedge $-1 $273 $273 $272 $430 forward $170 $-1 #
coedge $-1 $274 $274 $171 $275 forward $269 $-1 #
edge $-1 $431 0 $431 6.2831853071796004 $274 $432 forward 7 unknown #
face $-1 $433 $434 $58 $-1 $435 reversed single #
loop $-1 $-1 $436 $172 #
plane-surface $-1 -120.00896549028671 -5.2808941637239801 96.737627509343881 0 -1 0 0.6018150307709319 0 -0.79863550430605224 forward_v I I I I #
coedge $-1 $437 $438 $439 $440 reversed $173 $-1 #
coedge $-1 $281 $175 $441 $442 reversed $111 $-1 #
coedge $-1 $175 $280 $437 $443 reversed $111 $-1 #
coedge $-1 $439 $444 $175 $283 forward $445 $-1 #
edge $-1 $446 5.5448129554158854 $447 10.559657663297358 $282 $448 forward 7 unknown #
loop $-1 $-1 $289 $176 #
plane-surface $-1 -54.459669789727457 -9.0450832903884901 9.7507758156237259 -0.6018150307709319 0 0.79863550430605224 0.79863550430605224 0 0.6018150307709319 forward_v I I I I #
loop $-1 $-1 $449 $113 #
coedge $-1 $287 $287 $288 $450 reversed $177 $-1 #
coedge $-1 $288 $288 $287 $450 forward $179 $-1 #
coedge $-1 $289 $289 $180 $290 forward $284 $-1 #
edge $-1 $451 0 $451 6.2831853071796004 $289 $452 forward 7 unknown #
loop $-1 $-1 $296 $181 #
plane-surface $-1 -54.459669789727457 -9.0450832903884901 9.7507758156237259 -0.6018150307709319 0 0.79863550430605224 0.79863550430605224 0 0.6018150307709319 forward_v I I I I #
loop $-1 $-1 $453 $116 #
coedge $-1 $294 $294 $295 $454 reversed $182 $-1 #
coedge $-1 $295 $295 $294 $454 forward $184 $-1 #
coedge $-1 $296 $296 $185 $297 forward $291 $-1 #
edge $-1 $455 0 $455 6.2831853071796004 $296 $456 forward 7 unknown #
face $-1 $457 $458 $61 $-1 $459 forward single #
loop $-1 $-1 $460 $186 #
plane-surface $-1 -120.00896549028671 29.9294482497655 96.737627509343881 0 -1 0 0.6018150307709319 0 -0.79863550430605224 forward_v I I I I #
coedge $-1 $461 $462 $463 $464 reversed $187 $-1 #
coedge $-1 $303 $189 $465 $466 reversed $120 $-1 #
coedge $-1 $189 $302 $461 $467 reversed $120 $-1 #
coedge $-1 $463 $468 $189 $305 forward $458 $-1 #
edge $-1 $469 5.5448129554158854 $470 10.559657663297358 $304 $471 forward 7 unknown #
loop $-1 $-1 $311 $190 #
plane-surface $-1 -54.459669789727457 26.165259123100988 9.7507758156237259 -0.6018150307709319 0 0.79863550430605224 0.79863550430605224 0 0.6018150307709319 forward_v I I I I #
loop $-1 $-1 $472 $122 #
coedge $-1 $309 $309 $310 $473 reversed $191 $-1 #
coedge $-1 $310 $310 $309 $473 forward $193 $-1 #
coedge $-1 $311 $311 $194 $312 forward $306 $-1 #
edge $-1 $474 0 $474 6.2831853071796004 $311 $475 forward 7 unknown #
loop $-1 $-1 $318 $195 #
plane-surface $-1 -54.459669789727457 26.165259123100988 9.7507758156237259 -0.6018150307709319 0 0.79863550430605224 0.79863550430605224 0 0.6018150307709319 forward_v I I I I #
loop $-1 $-1 $476 $125 #
coedge $-1 $316 $316 $317 $477 reversed $196 $-1 #
coedge $-1 $317 $317 $316 $477 forward $198 $-1 #
coedge $-1 $318 $318 $199 $319 forward $313 $-1 #
edge $-1 $478 0 $478 6.2831853071796004 $318 $479 forward 7 unknown #
face $-1 $480 $481 $48 $-1 $482 reversed single #
loop $-1 $-1 $483 $200 #
plane-surface $-1 -54.459669789727471 0 0 1 0 0 0 0 -1 forward_v I I I I #
coedge $-1 $484 $331 $485 $486 forward $201 $-1 #
coedge $-1 $487 $203 $484 $488 forward $129 $-1 #
coedge $-1 $203 $487 $489 $490 forward $129 $-1 #
coedge $-1 $334 $333 $203 $327 reversed $335 $-1 #
edge $-1 $491 -34.637493461495261 $492 34.637493461495261 $326 $493 forward 7 unknown #
coedge $-1 $205 $204 $494 $495 forward $81 $-1 #
coedge $-1 $496 $497 $204 $330 reversed $481 $-1 #
edge $-1 $337 -54.459669789727471 $498 54.459669789727471 $329 $499 forward 7 unknown #
coedge $-1 $323 $500 $205 $332 reversed $201 $-1 #
edge $-1 $501 -54.459669789727471 $336 54.459669789727471 $331 $502 forward 7 unknown #
coedge $-1 $326 $206 $500 $503 forward $335 $-1 #
coedge $-1 $206 $326 $496 $504 reversed $335 $-1 #
loop $-1 $-1 $333 $480 #
vertex $-1 $207 $505 #
vertex $-1 $207 $506 #
straight-curve $-1 54.459669789727471 0 13.529732430891569 0 1 0 I I #
face $-1 $507 $508 $49 $-1 $509 reversed single #
loop $-1 $-1 $510 $208 #
plane-surface $-1 0 0 13.529732430891569 0 0 1 1 0 0 forward_v I I I I #
coedge $-1 $511 $512 $513 $514 reversed $209 $-1 #
coedge $-1 $214 $211 $515 $516 reversed $133 $-1 #
coedge $-1 $211 $214 $517 $518 reversed $133 $-1 #
coedge $-1 $512 $511 $211 $346 reversed $209 $-1 #
edge $-1 $519 -13.529732430891569 $520 13.529732430891569 $345 $521 forward 7 unknown #
coedge $-1 $213 $212 $522 $523 reversed $84 $-1 #
coedge $-1 $515 $524 $212 $349 forward $508 $-1 #
edge $-1 $525 -21.598790688925753 $353 -4.4786148562132624 $348 $526 forward 7 unknown #
coedge $-1 $527 $517 $213 $351 forward $340 $-1 #
edge $-1 $352 4.4786148562132624 $528 21.598790688925753 $350 $529 forward 7 unknown #
vertex $-1 $351 $530 #
vertex $-1 $349 $531 #
straight-curve $-1 -34.907437119448346 -17.51731762878277 0 0 0 -1 I I #
face $-1 $-1 $367 $50 $-1 $532 forward single #
loop $-1 $-1 $533 $216 #
plane-surface $-1 54.459669789727471 0 0 -1 0 0 0 0 1 forward_v I I I I #
coedge $-1 $534 $535 $536 $537 reversed $217 $-1 #
coedge $-1 $538 $219 $221 $365 forward $137 $-1 #
coedge $-1 $219 $538 $534 $539 forward $137 $-1 #
coedge $-1 $536 $222 $219 $362 forward $367 $-1 #
edge $-1 $369 2.9753454612461443 $540 10.68642993210646 $361 $541 forward 7 unknown #
coedge $-1 $542 $543 $220 $364 forward $356 $-1 #
edge $-1 $544 -74.646087858103868 $368 -62.493347628706815 $363 $545 forward 7 unknown #
edge $-1 $369 94.428858360849219 $544 108.91933957945494 $221 $546 forward 7 unknown #
coedge $-1 $222 $536 $542 $547 forward $367 $-1 #
loop $-1 $-1 $536 $355 #
vertex $-1 $364 $548 #
vertex $-1 $223 $549 #
straight-curve $-1 43.242696193180173 -9.8062331579224473 13.529732430891571 -1 0 0 I I #
coedge $-1 $371 $371 $-1 $550 reversed $226 $-1 #
edge $-1 $551 0 $551 6.2831853071796004 $227 $552 forward 7 unknown #
vertex $-1 $230 $553 #
ellipse-curve $-1 50.513629025126846 -13.661775393352606 7.4533623161930382 0.83867057594974714 0 0.54463902268945019 0.81695853403417529 0 -1.2580058639246208 1 I I #
face $-1 $-1 $387 $52 $-1 $554 forward single #
loop $-1 $-1 $555 $231 #
plane-surface $-1 54.459669789727471 0 0 -1 0 0 0 0 1 forward_v I I I I #
coedge $-1 $556 $557 $558 $559 reversed $232 $-1 #
coedge $-1 $560 $234 $236 $385 forward $146 $-1 #
coedge $-1 $234 $560 $556 $561 forward $146 $-1 #
coedge $-1 $558 $237 $234 $382 forward $387 $-1 #
edge $-1 $389 -4.4319423086568097 $562 3.2791421622035077 $381 $563 forward 7 unknown #
coedge $-1 $564 $565 $235 $384 forward $376 $-1 #
edge $-1 $566 -74.646087858103868 $388 -62.493347628706815 $383 $567 forward 7 unknown #
edge $-1 $389 94.428858360849219 $566 108.91933957945494 $236 $568 forward 7 unknown #
coedge $-1 $237 $558 $564 $569 forward $387 $-1 #
loop $-1 $-1 $558 $375 #
vertex $-1 $384 $570 #
vertex $-1 $238 $571 #
straight-curve $-1 43.242696193180173 5.0083423818834607 13.529732430891571 -1 0 0 I I #
coedge $-1 $391 $391 $-1 $572 reversed $241 $-1 #
edge $-1 $573 0 $573 6.2831853071796004 $242 $574 forward 7 unknown #
vertex $-1 $245 $575 #
ellipse-curve $-1 50.513629025126846 1.152800146453302 7.4533623161930382 0.83867057594974714 0 0.54463902268945019 0.81695853403417529 0 -1.2580058639246208 1 I I #
face $-1 $-1 $407 $54 $-1 $576 forward single #
loop $-1 $-1 $577 $246 #
plane-surface $-1 54.459669789727471 0 0 -1 0 0 0 0 1 forward_v I I I I #
coedge $-1 $578 $579 $580 $581 reversed $247 $-1 #
coedge $-1 $582 $249 $251 $405 forward $155 $-1 #
coedge $-1 $249 $582 $578 $583 forward $155 $-1 #
coedge $-1 $580 $252 $249 $402 forward $407 $-1 #
edge $-1 $409 -11.839230078559762 $584 -4.1281456076994463 $401 $585 forward 7 unknown #
coedge $-1 $586 $587 $250 $404 forward $396 $-1 #
edge $-1 $588 -74.646087858103868 $408 -62.493347628706815 $403 $589 forward 7 unknown #
edge $-1 $409 94.428858360849219 $588 108.91933957945494 $251 $590 forward 7 unknown #
coedge $-1 $252 $580 $586 $591 forward $407 $-1 #
loop $-1 $-1 $580 $395 #
vertex $-1 $404 $592 #
vertex $-1 $253 $593 #
straight-curve $-1 43.242696193180173 19.822917921689367 13.529732430891571 -1 0 0 I I #
coedge $-1 $411 $411 $-1 $594 reversed $256 $-1 #
edge $-1 $595 0 $595 6.2831853071796004 $257 $596 forward 7 unknown #
vertex $-1 $260 $597 #
ellipse-curve $-1 50.513629025126846 15.96737568625921 7.4533623161930382 0.83867057594974714 0 0.54463902268945019 0.81695853403417529 0 -1.2580058639246208 1 I I #
face $-1 $-1 $598 $56 $-1 $599 forward single #
loop $-1 $-1 $600 $261 #
plane-surface $-1 0 34.637493461495261 0 0 -1 0 0 0 -1 forward_v I I I I #
coedge $-1 $601 $264 $266 $424 forward $164 $-1 #
coedge $-1 $264 $601 $600 $602 reversed $164 $-1 #
coedge $-1 $603 $267 $264 $421 forward $262 $-1 #
edge $-1 $427 11.535433377602399 $604 19.246517848462705 $420 $605 forward 7 unknown #
coedge $-1 $606 $607 $265 $423 forward $598 $-1 #
edge $-1 $608 3.3248920673460418 $426 11.216973596547298 $422 $609 forward 7 unknown #
edge $-1 $427 -108.91933957945494 $608 -94.428858360849219 $266 $610 forward 7 unknown #
coedge $-1 $267 $603 $606 $611 reversed $262 $-1 #
vertex $-1 $611 $612 #
vertex $-1 $268 $613 #
straight-curve $-1 54.459669789727471 26.926408990634954 76.023080059598385 0 0 -1 I I #
coedge $-1 $429 $429 $-1 $614 reversed $271 $-1 #
edge $-1 $615 0 $615 6.2831853071796004 $272 $616 forward 7 unknown #
vertex $-1 $275 $617 #
ellipse-curve $-1 50.513629025126846 30.781951226065111 7.4533623161930382 0.83867057594974714 0 0.54463902268945019 0.81695853403417529 0 -1.2580058639246208 1 I I #
face $-1 $-1 $445 $58 $-1 $618 forward single #
loop $-1 $-1 $619 $276 #
plane-surface $-1 -54.459669789727471 0 0 1 0 0 0 0 -1 forward_v I I I I #
coedge $-1 $620 $621 $622 $623 reversed $277 $-1 #
coedge $-1 $624 $279 $281 $443 forward $173 $-1 #
coedge $-1 $279 $624 $620 $625 forward $173 $-1 #
coedge $-1 $622 $282 $279 $440 forward $445 $-1 #
edge $-1 $447 -8.2867307718587551 $626 -0.75835251852973506 $439 $627 forward 7 unknown #
coedge $-1 $628 $629 $280 $442 forward $434 $-1 #
edge $-1 $630 -38.618037939048222 $446 -34.83908132378037 $441 $631 forward 7 unknown #
edge $-1 $447 -6.2792659239948794 $630 1.7763522597878294e-014 $281 $632 forward 7 unknown #
coedge $-1 $282 $622 $628 $633 forward $445 $-1 #
loop $-1 $-1 $622 $433 #
vertex $-1 $442 $634 #
vertex $-1 $283 $635 #
straight-curve $-1 -60.004482745143356 -12.809272417053 13.529732430891571 1 0 0 I I #
coedge $-1 $449 $449 $-1 $636 reversed $286 $-1 #
edge $-1 $637 0 $637 6.2831853071796004 $287 $638 forward 7 unknown #
vertex $-1 $290 $639 #
ellipse-curve $-1 -51.952247435786738 -10.65830720181614 11.640254123257641 -0.6018150307709319 0 0.79863550430605224 0.39931775215302612 0 0.30090751538546595 1 I I #
coedge $-1 $453 $453 $-1 $640 reversed $293 $-1 #
edge $-1 $641 0 $641 6.2831853071796004 $294 $642 forward 7 unknown #
vertex $-1 $297 $643 #
ellipse-curve $-1 -51.952247435786738 -7.4318593789608443 11.640254123257641 -0.6018150307709319 0 0.79863550430605224 0.39931775215302612 0 0.30090751538546595 1 I I #
face $-1 $-1 $644 $61 $-1 $645 reversed single #
loop $-1 $-1 $304 $298 #
plane-surface $-1 0 0 13.529732430891569 0 0 1 1 0 0 forward_v I I I I #
coedge $-1 $646 $647 $648 $649 reversed $299 $-1 #
coedge $-1 $650 $301 $303 $467 forward $187 $-1 #
coedge $-1 $301 $650 $646 $651 forward $187 $-1 #
coedge $-1 $648 $304 $301 $464 forward $458 $-1 #
edge $-1 $470 9.3184404348859822 $652 16.846818688215006 $463 $653 forward 7 unknown #
coedge $-1 $654 $655 $302 $466 forward $644 $-1 #
edge $-1 $656 -38.618037939048222 $469 -34.83908132378037 $465 $657 forward 7 unknown #
edge $-1 $470 -6.2792659239948794 $656 1.7763522597878294e-014 $303 $658 forward 7 unknown #
coedge $-1 $304 $648 $654 $659 forward $458 $-1 #
vertex $-1 $466 $660 #
vertex $-1 $305 $661 #
straight-curve $-1 -60.004482745143356 22.401069996436476 13.529732430891571 1 0 0 I I #
coedge $-1 $472 $472 $-1 $662 reversed $308 $-1 #
edge $-1 $663 0 $663 6.2831853071796004 $309 $664 forward 7 unknown #
vertex $-1 $312 $665 #
ellipse-curve $-1 -51.952247435786738 24.552035211673335 11.640254123257641 -0.6018150307709319 0 0.79863550430605224 0.39931775215302612 0 0.30090751538546595 1 I I #
coedge $-1 $476 $476 $-1 $666 reversed $315 $-1 #
edge $-1 $667 0 $667 6.2831853071796004 $316 $668 forward 7 unknown #
vertex $-1 $319 $669 #
ellipse-curve $-1 -51.952247435786738 27.778483034528634 11.640254123257641 -0.6018150307709319 0 0.79863550430605224 0.39931775215302612 0 0.30090751538546595 1 I I #
face $-1 $-1 $335 $48 $-1 $670 reversed single #
loop $-1 $-1 $496 $320 #
plane-surface $-1 0 34.637493461495261 0 0 -1 0 0 0 -1 forward_v I I I I #
coedge $-1 $671 $494 $497 $672 forward $321 $-1 #
coedge $-1 $500 $323 $324 $488 reversed $201 $-1 #
coedge $-1 $494 $671 $323 $486 reversed $321 $-1 #
edge $-1 $501 -13.529732430891569 $673 13.529732430891569 $485 $674 forward 7 unknown #
coedge $-1 $325 $324 $671 $675 forward $129 $-1 #
edge $-1 $492 -54.459669789727471 $673 54.459669789727471 $484 $676 forward 7 unknown #
coedge $-1 $497 $496 $325 $490 reversed $481 $-1 #
edge $-1 $677 -54.459669789727471 $491 54.459669789727471 $489 $678 forward 7 unknown #
vertex $-1 $327 $679 #
vertex $-1 $503 $680 #
straight-curve $-1 54.459669789727471 0 -13.529732430891569 0 -1 0 I I #
coedge $-1 $483 $485 $328 $495 reversed $321 $-1 #
edge $-1 $498 -34.637493461495261 $501 34.637493461495261 $494 $681 forward 7 unknown #
coedge $-1 $489 $329 $334 $504 forward $481 $-1 #
coedge $-1 $329 $489 $483 $672 reversed $481 $-1 #
vertex $-1 $330 $682 #
straight-curve $-1 0 34.637493461495261 13.529732430891569 -1 0 0 I I #
coedge $-1 $331 $484 $333 $503 reversed $201 $-1 #
vertex $-1 $495 $683 #
straight-curve $-1 0 -34.637493461495261 13.529732430891569 1 0 0 I I #
edge $-1 $336 -13.529732430891569 $492 13.529732430891569 $333 $684 forward 7 unknown #
edge $-1 $337 -13.529732430891569 $491 13.529732430891569 $334 $685 forward 7 unknown #
point $-1 54.459669789727471 -34.637493461495261 13.529732430891569 #
point $-1 54.459669789727471 34.637493461495261 13.529732430891569 #
face $-1 $-1 $686 $49 $-1 $687 reversed single #
loop $-1 $-1 $688 $339 #
plane-surface $-1 0 0 -13.529732430891569 0 0 1 1 0 0 forward_v I I I I #
coedge $-1 $517 $527 $512 $689 forward $340 $-1 #
coedge $-1 $345 $342 $688 $690 reversed $209 $-1 #
coedge $-1 $342 $345 $510 $689 reversed $209 $-1 #
coedge $-1 $691 $692 $342 $514 forward $686 $-1 #
edge $-1 $693 -13.529732430891569 $694 13.529732430891569 $513 $695 forward 7 unknown #
coedge $-1 $688 $348 $343 $516 forward $508 $-1 #
edge $-1 $353 -19.330526607600177 $520 -11.823294416096161 $515 $696 forward 7 unknown #
coedge $-1 $350 $510 $344 $518 forward $340 $-1 #
edge $-1 $519 11.823294416096161 $352 19.330526607600177 $517 $697 forward 7 unknown #
vertex $-1 $518 $698 #
vertex $-1 $516 $699 #
straight-curve $-1 -27.40020492794433 -17.51731762878277 0 0 0 -1 I I #
coedge $-1 $692 $691 $347 $523 forward $686 $-1 #
edge $-1 $528 -13.529732430891569 $525 13.529732430891569 $522 $700 forward 7 unknown #
coedge $-1 $348 $688 $692 $701 forward $508 $-1 #
vertex $-1 $349 $702 #
straight-curve $-1 -34.907437119448346 -13.038702772569508 -13.529732430891569 0 1 0 I I #
coedge $-1 $510 $350 $691 $703 forward $340 $-1 #
vertex $-1 $703 $704 #
straight-curve $-1 -34.907437119448346 -13.038702772569508 13.529732430891569 0 -1 0 I I #
point $-1 -34.907437119448346 -17.51731762878277 13.529732430891569 #
point $-1 -34.907437119448346 -17.51731762878277 -13.529732430891569 #
plane-surface $-1 0 0 13.529732430891569 0 0 1 1 0 0 forward_v I I I I #
coedge $-1 $543 $542 $535 $705 forward $356 $-1 #
coedge $-1 $535 $358 $360 $539 reversed $217 $-1 #
coedge $-1 $358 $534 $533 $705 reversed $217 $-1 #
coedge $-1 $366 $361 $358 $537 forward $367 $-1 #
edge $-1 $540 3.3248920673460418 $706 11.216973596547298 $536 $707 forward 7 unknown #
coedge $-1 $360 $359 $543 $708 reversed $137 $-1 #
edge $-1 $709 -108.91933957945494 $540 -94.428858360849219 $534 $710 forward 7 unknown #
vertex $-1 $362 $711 #
straight-curve $-1 46.567588260526222 -6.830887696676303 13.529732430891571 0 -1 0 I I #
coedge $-1 $533 $363 $366 $547 reversed $356 $-1 #
coedge $-1 $363 $533 $538 $708 forward $356 $-1 #
vertex $-1 $364 $712 #
straight-curve $-1 54.459669789727471 -9.8062331579224473 76.023080059598385 0 0 1 I I #
straight-curve $-1 -4.8620528708072186 -9.8062331579224473 92.724437458662081 0.54463902268945019 0 -0.83867057594974714 I I #
edge $-1 $706 -17.517317628782763 $368 -9.8062331579224473 $542 $713 forward 7 unknown #
point $-1 54.459669789727471 -9.8062331579224473 13.529732430891569 #
point $-1 46.567588260526215 -9.8062331579224473 13.529732430891571 #
edge $-1 $714 1 $714 0 $371 $-1 forward 7 unknown #
vertex $-1 $372 $715 #
ellipse-curve $-1 47.543856766691185 -13.661775393352606 5.5247697235496567 0.83867057594974714 0 0.54463902268945019 0.81695853403417529 0 -1.2580058639246208 1 I I #
point $-1 51.330587559161017 -13.661775393352606 6.1953564522684141 #
plane-surface $-1 0 0 13.529732430891569 0 0 1 1 0 0 forward_v I I I I #
coedge $-1 $565 $564 $557 $716 forward $376 $-1 #
coedge $-1 $557 $378 $380 $561 reversed $232 $-1 #
coedge $-1 $378 $556 $555 $716 reversed $232 $-1 #
coedge $-1 $386 $381 $378 $559 forward $387 $-1 #
edge $-1 $562 3.3248920673460418 $717 11.216973596547298 $558 $718 forward 7 unknown #
coedge $-1 $380 $379 $565 $719 reversed $146 $-1 #
edge $-1 $720 -108.91933957945494 $562 -94.428858360849219 $556 $721 forward 7 unknown #
vertex $-1 $382 $722 #
straight-curve $-1 46.567588260526222 0.57640007322665099 13.529732430891571 0 -1 0 I I #
coedge $-1 $555 $383 $386 $569 reversed $376 $-1 #
coedge $-1 $383 $555 $560 $719 forward $376 $-1 #
vertex $-1 $384 $723 #
straight-curve $-1 54.459669789727471 5.0083423818834607 76.023080059598385 0 0 1 I I #
straight-curve $-1 -4.8620528708072186 5.0083423818834607 92.724437458662081 0.54463902268945019 0 -0.83867057594974714 I I #
edge $-1 $717 -2.7027420889768567 $388 5.0083423818834607 $564 $724 forward 7 unknown #
point $-1 54.459669789727471 5.0083423818834607 13.529732430891569 #
point $-1 46.567588260526215 5.0083423818834607 13.529732430891571 #
edge $-1 $725 1 $725 0 $391 $-1 forward 7 unknown #
vertex $-1 $392 $726 #
ellipse-curve $-1 47.543856766691185 1.152800146453302 5.5247697235496567 0.83867057594974714 0 0.54463902268945019 0.81695853403417529 0 -1.2580058639246208 1 I I #
point $-1 51.330587559161017 1.152800146453302 6.1953564522684141 #
plane-surface $-1 0 0 13.529732430891569 0 0 1 1 0 0 forward_v I I I I #
coedge $-1 $587 $586 $579 $727 forward $396 $-1 #
coedge $-1 $579 $398 $400 $583 reversed $247 $-1 #
coedge $-1 $398 $578 $577 $727 reversed $247 $-1 #
coedge $-1 $406 $401 $398 $581 forward $407 $-1 #
edge $-1 $584 3.3248920673460418 $728 11.216973596547298 $580 $729 forward 7 unknown #
coedge $-1 $400 $399 $587 $730 reversed $155 $-1 #
edge $-1 $731 -108.91933957945494 $584 -94.428858360849219 $578 $732 forward 7 unknown #
vertex $-1 $402 $733 #
straight-curve $-1 46.567588260526222 7.983687843129605 13.529732430891571 0 -1 0 I I #
coedge $-1 $577 $403 $406 $591 reversed $396 $-1 #
coedge $-1 $403 $577 $582 $730 forward $396 $-1 #
vertex $-1 $404 $734 #
straight-curve $-1 54.459669789727471 19.822917921689367 76.023080059598385 0 0 1 I I #
straight-curve $-1 -4.8620528708072186 19.822917921689367 92.724437458662081 0.54463902268945019 0 -0.83867057594974714 I I #
edge $-1 $728 12.111833450829051 $408 19.822917921689367 $586 $735 forward 7 unknown #
point $-1 54.459669789727471 19.822917921689367 13.529732430891569 #
point $-1 46.567588260526215 19.822917921689367 13.529732430891571 #
edge $-1 $736 1 $736 0 $411 $-1 forward 7 unknown #
vertex $-1 $412 $737 #
ellipse-curve $-1 47.543856766691185 15.96737568625921 5.5247697235496567 0.83867057594974714 0 0.54463902268945019 0.81695853403417529 0 -1.2580058639246208 1 I I #
point $-1 51.330587559161017 15.96737568625921 6.1953564522684141 #
loop $-1 $-1 $422 $415 #
plane-surface $-1 0 0 13.529732430891569 0 0 1 1 0 0 forward_v I I I I #
coedge $-1 $738 $739 $419 $602 forward $416 $-1 #
coedge $-1 $419 $418 $607 $740 reversed $164 $-1 #
edge $-1 $604 -68.712679033508294 $741 -54.222197814902565 $600 $742 forward 7 unknown #
coedge $-1 $425 $420 $739 $743 reversed $262 $-1 #
vertex $-1 $602 $744 #
straight-curve $-1 54.459669789727471 15.390975613032555 1.3769922014945237 0 1 0 I I #
coedge $-1 $745 $422 $425 $611 forward $598 $-1 #
coedge $-1 $422 $745 $601 $740 forward $598 $-1 #
vertex $-1 $423 $746 #
straight-curve $-1 43.242696193180173 26.926408990634954 13.529732430891571 1 0 0 I I #
straight-curve $-1 -4.8620528708072186 26.926408990634954 92.724437458662081 -0.54463902268945019 0 0.83867057594974714 I I #
edge $-1 $426 26.926408990634954 $747 34.637493461495261 $425 $748 forward 7 unknown #
point $-1 54.459669789727471 26.926408990634954 13.529732430891569 #
point $-1 54.459669789727471 26.926408990634954 1.3769922014945166 #
edge $-1 $749 1 $749 0 $429 $-1 forward 7 unknown #
vertex $-1 $430 $750 #
ellipse-curve $-1 47.543856766691185 30.781951226065111 5.5247697235496567 0.83867057594974714 0 0.54463902268945019 0.81695853403417529 0 -1.2580058639246208 1 I I #
point $-1 51.330587559161017 30.781951226065111 6.1953564522684141 #
plane-surface $-1 0 0 13.529732430891569 0 0 1 1 0 0 forward_v I I I I #
coedge $-1 $629 $628 $621 $751 forward $434 $-1 #
coedge $-1 $621 $436 $438 $625 reversed $277 $-1 #
coedge $-1 $436 $620 $619 $751 reversed $277 $-1 #
coedge $-1 $444 $439 $436 $623 forward $445 $-1 #
edge $-1 $626 -10.559657663297358 $752 -5.5448129554158854 $622 $753 forward 7 unknown #
coedge $-1 $438 $437 $629 $754 reversed $173 $-1 #
edge $-1 $755 -1.7763522597878294e-014 $626 6.2792659239948794 $620 $756 forward 7 unknown #
vertex $-1 $440 $757 #
straight-curve $-1 -49.444825081846005 -4.5225416451942451 13.529732430891569 0 1 0 I I #
coedge $-1 $619 $441 $444 $633 reversed $434 $-1 #
coedge $-1 $441 $619 $624 $754 forward $434 $-1 #
vertex $-1 $442 $758 #
straight-curve $-1 -54.459669789727471 -12.809272417053 48.36881375467194 0 0 1 I I #
straight-curve $-1 -54.459669789727457 -12.809272417053 9.7507758156237259 -0.79863550430605224 0 -0.6018150307709319 I I #
edge $-1 $752 5.2808941637239801 $446 12.809272417053 $628 $759 forward 7 unknown #
point $-1 -54.459669789727471 -12.809272417053 13.529732430891569 #
point $-1 -49.444825081845998 -12.809272417053 13.529732430891569 #
edge $-1 $760 1 $760 0 $449 $-1 forward 7 unknown #
vertex $-1 $450 $761 #
ellipse-curve $-1 -51.083346795180582 -10.65830720181614 10.487184050525485 -0.6018150307709319 0 0.79863550430605224 0.39931775215302612 0 0.30090751538546595 1 I I #
point $-1 -51.552929683633721 -10.65830720181614 11.941161638643122 #
edge $-1 $762 1 $762 0 $453 $-1 forward 7 unknown #
vertex $-1 $454 $763 #
ellipse-curve $-1 -51.083346795180582 -7.4318593789608443 10.487184050525485 -0.6018150307709319 0 0.79863550430605224 0.39931775215302612 0 0.30090751538546595 1 I I #
point $-1 -51.552929683633721 -7.4318593789608443 11.941161638643122 #
loop $-1 $-1 $465 $457 #
plane-surface $-1 -54.459669789727471 0 0 1 0 0 0 0 -1 forward_v I I I I #
coedge $-1 $647 $460 $462 $651 reversed $299 $-1 #
coedge $-1 $460 $646 $764 $765 reversed $299 $-1 #
coedge $-1 $468 $463 $460 $649 forward $458 $-1 #
edge $-1 $652 -10.559657663297358 $766 -5.5448129554158854 $648 $767 forward 7 unknown #
coedge $-1 $462 $461 $655 $768 reversed $187 $-1 #
edge $-1 $769 -1.7763522597878294e-014 $652 6.2792659239948794 $646 $770 forward 7 unknown #
vertex $-1 $464 $771 #
straight-curve $-1 -49.444825081846005 13.082629561550494 13.529732430891569 0 1 0 I I #
coedge $-1 $764 $465 $468 $659 reversed $644 $-1 #
coedge $-1 $465 $764 $650 $768 forward $644 $-1 #
vertex $-1 $466 $772 #
straight-curve $-1 -54.459669789727471 22.401069996436476 48.36881375467194 0 0 1 I I #
straight-curve $-1 -54.459669789727457 22.401069996436476 9.7507758156237259 -0.79863550430605224 0 -0.6018150307709319 I I #
edge $-1 $766 -29.9294482497655 $469 -22.401069996436476 $654 $773 forward 7 unknown #
point $-1 -54.459669789727471 22.401069996436476 13.529732430891569 #
point $-1 -49.444825081845998 22.401069996436476 13.529732430891569 #
edge $-1 $774 1 $774 0 $472 $-1 forward 7 unknown #
vertex $-1 $473 $775 #
ellipse-curve $-1 -51.083346795180582 24.552035211673335 10.487184050525485 -0.6018150307709319 0 0.79863550430605224 0.39931775215302612 0 0.30090751538546595 1 I I #
point $-1 -51.552929683633721 24.552035211673335 11.941161638643122 #
edge $-1 $776 1 $776 0 $476 $-1 forward 7 unknown #
vertex $-1 $477 $777 #
ellipse-curve $-1 -51.083346795180582 27.778483034528634 10.487184050525485 -0.6018150307709319 0 0.79863550430605224 0.39931775215302612 0 0.30090751538546595 1 I I #
point $-1 -51.552929683633721 27.778483034528634 11.941161638643122 #
plane-surface $-1 54.459669789727471 0 0 -1 0 0 0 0 1 forward_v I I I I #
coedge $-1 $485 $483 $487 $675 reversed $321 $-1 #
edge $-1 $498 -13.529732430891569 $677 13.529732430891569 $497 $778 forward 7 unknown #
vertex $-1 $675 $779 #
straight-curve $-1 -54.459669789727471 -34.637493461495261 0 0 0 -1 I I #
edge $-1 $673 -34.637493461495261 $677 34.637493461495261 $671 $780 forward 7 unknown #
straight-curve $-1 0 -34.637493461495261 -13.529732430891569 -1 0 0 I I #
vertex $-1 $490 $781 #
straight-curve $-1 0 34.637493461495261 -13.529732430891569 1 0 0 I I #
point $-1 54.459669789727471 34.637493461495261 -13.529732430891569 #
point $-1 54.459669789727471 -34.637493461495261 -13.529732430891569 #
straight-curve $-1 -54.459669789727471 0 13.529732430891569 0 -1 0 I I #
point $-1 -54.459669789727471 34.637493461495261 13.529732430891569 #
point $-1 -54.459669789727471 -34.637493461495261 13.529732430891569 #
straight-curve $-1 54.459669789727471 -34.637493461495261 0 0 0 -1 I I #
straight-curve $-1 54.459669789727471 34.637493461495261 0 0 0 -1 I I #
loop $-1 $-1 $513 $507 #
plane-surface $-1 0 -34.637493461495261 0 0 1 0 0 0 1 forward_v I I I I #
coedge $-1 $524 $515 $511 $690 forward $508 $-1 #
edge $-1 $694 -21.598790688925753 $519 -4.4786148562132624 $510 $782 forward 7 unknown #
edge $-1 $520 4.4786148562132624 $693 21.598790688925753 $688 $783 forward 7 unknown #
coedge $-1 $522 $513 $527 $703 reversed $686 $-1 #
coedge $-1 $513 $522 $524 $701 reversed $686 $-1 #
vertex $-1 $701 $784 #
vertex $-1 $514 $785 #
straight-curve $-1 -27.40020492794433 -34.637493461495261 0 0 0 1 I I #
straight-curve $-1 -15.576910511848169 -17.51731762878277 -13.529732430891569 1 0 0 I I #
straight-curve $-1 -15.576910511848169 -17.51731762878277 13.529732430891569 -1 0 0 I I #
point $-1 -27.40020492794433 -17.51731762878277 13.529732430891569 #
point $-1 -27.40020492794433 -17.51731762878277 -13.529732430891569 #
straight-curve $-1 -34.907437119448346 -34.637493461495261 0 0 0 -1 I I #
edge $-1 $693 27.40020492794433 $525 34.907437119448346 $692 $786 forward 7 unknown #
point $-1 -34.907437119448346 -34.637493461495261 -13.529732430891569 #
edge $-1 $528 -34.907437119448346 $694 -27.40020492794433 $691 $787 forward 7 unknown #
point $-1 -34.907437119448346 -34.637493461495261 13.529732430891569 #
edge $-1 $706 62.493347628706815 $709 74.646087858103868 $533 $788 forward 7 unknown #
vertex $-1 $547 $789 #
straight-curve $-1 43.242696193180173 -17.517317628782763 13.529732430891571 1 0 0 I I #
edge $-1 $709 -10.68642993210646 $544 -2.9753454612461443 $543 $790 forward 7 unknown #
vertex $-1 $708 $791 #
straight-curve $-1 -4.8620528708072186 -17.517317628782763 92.724437458662081 -0.54463902268945019 0 0.83867057594974714 I I #
point $-1 46.567588260526215 -17.517317628782763 13.529732430891571 #
point $-1 54.459669789727471 -9.8062331579224473 1.3769922014945166 #
straight-curve $-1 54.459669789727471 0 13.529732430891569 0 1 0 I I #
vertex $-1 $550 $792 #
point $-1 48.360815300725356 -13.661775393352606 4.2667638596250361 #
edge $-1 $717 62.493347628706815 $720 74.646087858103868 $555 $793 forward 7 unknown #
vertex $-1 $569 $794 #
straight-curve $-1 43.242696193180173 -2.7027420889768567 13.529732430891571 1 0 0 I I #
edge $-1 $720 -3.2791421622035077 $566 4.4319423086568097 $565 $795 forward 7 unknown #
vertex $-1 $719 $796 #
straight-curve $-1 -4.8620528708072186 -2.7027420889768567 92.724437458662081 -0.54463902268945019 0 0.83867057594974714 I I #
point $-1 46.567588260526215 -2.7027420889768567 13.529732430891571 #
point $-1 54.459669789727471 5.0083423818834607 1.3769922014945166 #
straight-curve $-1 54.459669789727471 0 13.529732430891569 0 1 0 I I #
vertex $-1 $572 $797 #
point $-1 48.360815300725356 1.152800146453302 4.2667638596250361 #
edge $-1 $728 62.493347628706815 $731 74.646087858103868 $577 $798 forward 7 unknown #
vertex $-1 $591 $799 #
straight-curve $-1 43.242696193180173 12.111833450829051 13.529732430891571 1 0 0 I I #
edge $-1 $731 4.1281456076994463 $588 11.839230078559762 $587 $800 forward 7 unknown #
vertex $-1 $730 $801 #
straight-curve $-1 -4.8620528708072186 12.111833450829051 92.724437458662081 -0.54463902268945019 0 0.83867057594974714 I I #
point $-1 46.567588260526215 12.111833450829051 13.529732430891571 #
point $-1 54.459669789727471 19.822917921689367 1.3769922014945166 #
straight-curve $-1 54.459669789727471 0 13.529732430891569 0 1 0 I I #
vertex $-1 $594 $802 #
point $-1 48.360815300725356 15.96737568625921 4.2667638596250361 #
coedge $-1 $739 $600 $745 $803 reversed $416 $-1 #
coedge $-1 $600 $738 $603 $743 forward $416 $-1 #
edge $-1 $741 -19.246517848462712 $608 -11.535433377602399 $607 $804 forward 7 unknown #
vertex $-1 $602 $805 #
straight-curve $-1 17.036063434543642 34.637493461495261 59.004294301577026 -0.54463902268945019 0 0.83867057594974714 I I #
edge $-1 $747 -13.529732430891569 $604 -1.3769922014945142 $603 $806 forward 7 unknown #
point $-1 54.459669789727471 34.637493461495261 1.3769922014945142 #
coedge $-1 $607 $606 $738 $803 forward $598 $-1 #
point $-1 46.567588260526215 26.926408990634954 13.529732430891571 #
vertex $-1 $611 $807 #
straight-curve $-1 54.459669789727471 0 13.529732430891569 0 1 0 I I #
vertex $-1 $614 $808 #
point $-1 48.360815300725356 30.781951226065111 4.2667638596250361 #
edge $-1 $752 34.83908132378037 $755 38.618037939048222 $619 $809 forward 7 unknown #
vertex $-1 $633 $810 #
straight-curve $-1 -60.004482745143356 -5.2808941637239801 13.529732430891571 -1 0 0 I I #
edge $-1 $755 0.75835251852973506 $630 8.2867307718587551 $629 $811 forward 7 unknown #
vertex $-1 $754 $812 #
straight-curve $-1 -54.459669789727457 -5.2808941637239801 9.7507758156237259 0.79863550430605224 0 0.6018150307709319 I I #
point $-1 -49.444825081845998 -5.2808941637239801 13.529732430891569 #
point $-1 -54.459669789727471 -12.809272417053 9.7507758156237152 #
straight-curve $-1 -54.459669789727471 0 13.529732430891569 0 -1 0 I I #
vertex $-1 $636 $813 #
point $-1 -50.684029043027557 -10.65830720181614 10.78809156591095 #
vertex $-1 $640 $814 #
point $-1 -50.684029043027557 -7.4318593789608443 10.78809156591095 #
coedge $-1 $655 $654 $647 $765 forward $644 $-1 #
edge $-1 $766 34.83908132378037 $769 38.618037939048222 $764 $815 forward 7 unknown #
vertex $-1 $659 $816 #
straight-curve $-1 -60.004482745143356 29.9294482497655 13.529732430891571 -1 0 0 I I #
edge $-1 $769 -16.846818688215006 $656 -9.3184404348859822 $655 $817 forward 7 unknown #
vertex $-1 $768 $818 #
straight-curve $-1 -54.459669789727457 29.9294482497655 9.7507758156237259 0.79863550430605224 0 0.6018150307709319 I I #
point $-1 -49.444825081845998 29.9294482497655 13.529732430891569 #
point $-1 -54.459669789727471 22.401069996436476 9.7507758156237152 #
straight-curve $-1 -54.459669789727471 0 13.529732430891569 0 -1 0 I I #
vertex $-1 $662 $819 #
point $-1 -50.684029043027557 24.552035211673335 10.78809156591095 #
vertex $-1 $666 $820 #
point $-1 -50.684029043027557 27.778483034528634 10.78809156591095 #
straight-curve $-1 -54.459669789727471 34.637493461495261 0 0 0 -1 I I #
point $-1 -54.459669789727471 -34.637493461495261 -13.529732430891569 #
straight-curve $-1 -54.459669789727471 0 -13.529732430891569 0 1 0 I I #
point $-1 -54.459669789727471 34.637493461495261 -13.529732430891569 #
straight-curve $-1 -27.40020492794433 -13.038702772569508 13.529732430891569 0 1 0 I I #
straight-curve $-1 -27.40020492794433 -13.038702772569508 -13.529732430891569 0 -1 0 I I #
point $-1 -27.40020492794433 -34.637493461495261 -13.529732430891569 #
point $-1 -27.40020492794433 -34.637493461495261 13.529732430891569 #
straight-curve $-1 0 -34.637493461495261 -13.529732430891569 -1 0 0 I I #
straight-curve $-1 0 -34.637493461495261 13.529732430891569 1 0 0 I I #
straight-curve $-1 54.459669789727471 -17.517317628782763 76.023080059598385 0 0 -1 I I #
point $-1 54.459669789727471 -17.517317628782763 13.529732430891569 #
straight-curve $-1 54.459669789727471 -6.830887696676303 1.3769922014945237 0 1 0 I I #
point $-1 54.459669789727471 -17.517317628782763 1.3769922014945166 #
point $-1 46.285850902766562 -13.661775393352606 4.7078111895154819 #
straight-curve $-1 54.459669789727471 -2.7027420889768567 76.023080059598385 0 0 -1 I I #
point $-1 54.459669789727471 -2.7027420889768567 13.529732430891569 #
straight-curve $-1 54.459669789727471 0.57640007322665099 1.3769922014945237 0 1 0 I I #
point $-1 54.459669789727471 -2.7027420889768567 1.3769922014945166 #
point $-1 46.285850902766562 1.152800146453302 4.7078111895154819 #
straight-curve $-1 54.459669789727471 12.111833450829051 76.023080059598385 0 0 -1 I I #
point $-1 54.459669789727471 12.111833450829051 13.529732430891569 #
straight-curve $-1 54.459669789727471 7.983687843129605 1.3769922014945237 0 1 0 I I #
point $-1 54.459669789727471 12.111833450829051 1.3769922014945166 #
point $-1 46.285850902766562 15.96737568625921 4.7078111895154819 #
edge $-1 $747 -54.459669789727471 $741 -46.567588260526215 $738 $821 forward 7 unknown #
straight-curve $-1 46.567588260526222 15.390975613032555 13.529732430891571 0 -1 0 I I #
point $-1 46.567588260526215 34.637493461495268 13.529732430891571 #
straight-curve $-1 54.459669789727471 34.637493461495261 0 0 0 -1 I I #
point $-1 54.459669789727471 34.637493461495261 13.529732430891569 #
point $-1 46.285850902766562 30.781951226065111 4.7078111895154819 #
straight-curve $-1 -54.459669789727471 -5.2808941637239801 48.36881375467194 0 0 -1 I I #
point $-1 -54.459669789727471 -5.2808941637239801 13.529732430891569 #
straight-curve $-1 -54.459669789727471 -4.5225416451942451 9.7507758156237152 0 -1 0 I I #
point $-1 -54.459669789727471 -5.2808941637239801 9.7507758156237152 #
point $-1 -50.782439279795121 -10.65830720181614 10.087866298372457 #
point $-1 -50.782439279795121 -7.4318593789608443 10.087866298372457 #
straight-curve $-1 -54.459669789727471 29.9294482497655 48.36881375467194 0 0 -1 I I #
point $-1 -54.459669789727471 29.9294482497655 13.529732430891569 #
straight-curve $-1 -54.459669789727471 13.082629561550494 9.7507758156237152 0 -1 0 I I #
point $-1 -54.459669789727471 29.9294482497655 9.7507758156237152 #
point $-1 -50.782439279795121 24.552035211673335 10.087866298372457 #
point $-1 -50.782439279795121 27.778483034528634 10.087866298372457 #
straight-curve $-1 0 34.637493461495261 13.529732430891569 -1 0 0 I I #
End-of-ACIS-data 