500 0 18 0           
7 Unknown 11 ACIS 5.0 NT 24 Fri Mar 26 19:11:32 1999 
-1 9.9999999999999995e-007 1e-010 
body $-1 $18 $-1 $19 #
body $-1 $20 $-1 $21 #
body $-1 $22 $-1 $23 #
body $-1 $24 $-1 $25 #
body $-1 $26 $-1 $27 #
body $-1 $28 $-1 $29 #
body $-1 $30 $-1 $31 #
body $-1 $32 $-1 $33 #
body $-1 $34 $-1 $35 #
body $-1 $36 $-1 $37 #
body $-1 $38 $-1 $39 #
body $-1 $40 $-1 $41 #
body $-1 $42 $-1 $43 #
body $-1 $44 $-1 $45 #
body $-1 $46 $-1 $47 #
body $-1 $48 $-1 $49 #
body $-1 $50 $-1 $51 #
body $-1 $52 $-1 $53 #
lump $-1 $-1 $54 $0 #
transform $-1 1 0 0 0 1 0 0 0 1 74.587237159337135 40.889475952653733 19.754781884703519 1 rotate no_reflect no_shear #
lump $-1 $-1 $55 $1 #
transform $-1 1 0 0 0 1 0 0 0 1 74.587237159337135 40.889475952653733 19.754781884703519 1 rotate no_reflect no_shear #
lump $-1 $-1 $56 $2 #
transform $-1 1 0 0 0 1 0 0 0 1 74.587237159337135 40.889475952653733 19.754781884703519 1 rotate no_reflect no_shear #
lump $-1 $-1 $57 $3 #
transform $-1 1 0 0 0 1 0 0 0 1 74.587237159337135 40.889475952653733 19.754781884703519 1 rotate no_reflect no_shear #
lump $-1 $-1 $58 $4 #
transform $-1 1 0 0 0 1 0 0 0 1 74.587237159337135 40.889475952653733 19.754781884703519 1 rotate no_reflect no_shear #
lump $-1 $-1 $59 $5 #
transform $-1 1 0 0 0 1 0 0 0 1 74.587237159337135 40.889475952653733 19.754781884703519 1 rotate no_reflect no_shear #
lump $-1 $-1 $60 $6 #
transform $-1 1 0 0 0 1 0 0 0 1 74.587237159337135 40.889475952653733 19.754781884703519 1 rotate no_reflect no_shear #
lump $-1 $-1 $61 $7 #
transform $-1 1 0 0 0 1 0 0 0 1 74.587237159337135 40.889475952653733 19.754781884703519 1 rotate no_reflect no_shear #
lump $-1 $-1 $62 $8 #
transform $-1 1 0 0 0 1 0 0 0 1 74.587237159337135 40.889475952653733 19.754781884703519 1 rotate no_reflect no_shear #
lump $-1 $-1 $63 $9 #
transform $-1 1 0 0 0 1 0 0 0 1 74.587237159337135 40.889475952653733 19.754781884703519 1 rotate no_reflect no_shear #
lump $-1 $-1 $64 $10 #
transform $-1 1 0 0 0 1 0 0 0 1 74.587237159337135 40.889475952653733 19.754781884703519 1 rotate no_reflect no_shear #
lump $-1 $-1 $65 $11 #
transform $-1 1 0 0 0 1 0 0 0 1 74.587237159337135 40.889475952653733 19.754781884703519 1 rotate no_reflect no_shear #
lump $-1 $-1 $66 $12 #
transform $-1 1 0 0 0 1 0 0 0 1 74.587237159337135 40.889475952653733 19.754781884703519 1 rotate no_reflect no_shear #
lump $-1 $-1 $67 $13 #
transform $-1 1 0 0 0 1 0 0 0 1 74.587237159337135 40.889475952653733 19.754781884703519 1 rotate no_reflect no_shear #
lump $-1 $-1 $68 $14 #
transform $-1 1 0 0 0 1 0 0 0 1 74.587237159337135 40.889475952653733 19.754781884703519 1 rotate no_reflect no_shear #
lump $-1 $-1 $69 $15 #
transform $-1 1 0 0 0 1 0 0 0 1 74.587237159337135 40.889475952653733 19.754781884703519 1 rotate no_reflect no_shear #
lump $-1 $-1 $70 $16 #
transform $-1 1 0 0 0 1 0 0 0 1 74.587237159337135 40.889475952653733 19.754781884703519 1 rotate no_reflect no_shear #
lump $-1 $-1 $71 $17 #
transform $-1 1 0 0 0 1 0 0 0 1 74.587237159337135 40.889475952653733 19.754781884703519 1 rotate no_reflect no_shear #
shell $-1 $-1 $-1 $72 $-1 $18 #
shell $-1 $-1 $-1 $73 $-1 $20 #
shell $-1 $-1 $-1 $74 $-1 $22 #
shell $-1 $-1 $-1 $75 $-1 $24 #
shell $-1 $-1 $-1 $76 $-1 $26 #
shell $-1 $-1 $-1 $77 $-1 $28 #
shell $-1 $-1 $-1 $78 $-1 $30 #
shell $-1 $-1 $-1 $79 $-1 $32 #
shell $-1 $-1 $-1 $80 $-1 $34 #
shell $-1 $-1 $-1 $81 $-1 $36 #
shell $-1 $-1 $-1 $82 $-1 $38 #
shell $-1 $-1 $-1 $83 $-1 $40 #
shell $-1 $-1 $-1 $84 $-1 $42 #
shell $-1 $-1 $-1 $85 $-1 $44 #
shell $-1 $-1 $-1 $86 $-1 $46 #
shell $-1 $-1 $-1 $87 $-1 $48 #
shell $-1 $-1 $-1 $88 $-1 $50 #
shell $-1 $-1 $-1 $89 $-1 $52 #
face $-1 $90 $91 $54 $-1 $92 forward single #
face $-1 $93 $94 $55 $-1 $95 reversed single #
face $-1 $96 $97 $56 $-1 $98 reversed single #
face $-1 $99 $100 $57 $-1 $101 forward single #
face $-1 $102 $103 $58 $-1 $104 forward single #
face $-1 $105 $106 $59 $-1 $107 forward single #
face $-1 $108 $109 $60 $-1 $110 reversed single #
face $-1 $111 $112 $61 $-1 $113 forward single #
face $-1 $114 $115 $62 $-1 $116 forward single #
face $-1 $117 $118 $63 $-1 $119 forward single #
face $-1 $120 $121 $64 $-1 $122 reversed single #
face $-1 $123 $124 $65 $-1 $125 forward single #
face $-1 $126 $127 $66 $-1 $128 forward single #
face $-1 $129 $130 $67 $-1 $131 forward single #
face $-1 $132 $133 $68 $-1 $134 reversed single #
face $-1 $135 $136 $69 $-1 $137 forward single #
face $-1 $138 $139 $70 $-1 $140 forward single #
face $-1 $141 $142 $71 $-1 $143 forward single #
face $-1 $144 $145 $54 $-1 $146 reversed single #
loop $-1 $-1 $147 $72 #
plane-surface $-1 0 0 19.754781884703519 0 0 1 1 0 0 forward_v I I I I #
face $-1 $148 $149 $55 $-1 $150 reversed single #
loop $-1 $-1 $151 $73 #
plane-surface $-1 -61.800557131538881 0 12.945661197358977 0 0 1 1 0 0 forward_v I I I I #
face $-1 $152 $153 $56 $-1 $154 reversed single #
loop $-1 $-1 $155 $74 #
plane-surface $-1 -28.901206698541472 -119.93990466975356 134.32282216098383 -1 0 0 0 -0.52991927123019833 0.84804809178421925 forward_v I I I I #
face $-1 $156 $157 $57 $-1 $158 forward single #
loop $-1 $159 $160 $75 #
cone-surface $-1 -44.991343022700796 -30.763060779255063 12.868009435989075 0 0.52991927123019833 -0.84804809178421925 2 0 0 1 I I 0 1 2 forward I I I I #
face $-1 $161 $162 $58 $-1 $163 forward single #
loop $-1 $164 $165 $76 #
cone-surface $-1 -38.957541901141049 -30.763060779255063 12.868009435989075 0 0.52991927123019833 -0.84804809178421925 2 0 0 1 I I 0 1 2 forward I I I I #
face $-1 $166 $167 $59 $-1 $168 forward single #
loop $-1 $169 $170 $77 #
cone-surface $-1 -32.923740779581301 -30.763060779255063 12.868009435989075 0 0.52991927123019833 -0.84804809178421925 2 0 0 1 I I 0 1 2 forward I I I I #
face $-1 $171 $172 $60 $-1 $173 reversed single #
loop $-1 $-1 $174 $78 #
plane-surface $-1 5.5949412540847252 -119.93990466975356 134.32282216098383 -1 0 0 0 -0.52991927123019833 0.84804809178421925 forward_v I I I I #
face $-1 $175 $176 $61 $-1 $177 forward single #
loop $-1 $178 $179 $79 #
cone-surface $-1 -10.495195070074601 -30.763060779255063 12.868009435989075 0 0.52991927123019833 -0.84804809178421925 2 0 0 1 I I 0 1 2 forward I I I I #
face $-1 $180 $181 $62 $-1 $182 forward single #
loop $-1 $183 $184 $80 #
cone-surface $-1 -4.4613939485148535 -30.763060779255063 12.868009435989075 0 0.52991927123019833 -0.84804809178421925 2 0 0 1 I I 0 1 2 forward I I I I #
face $-1 $185 $186 $63 $-1 $187 forward single #
loop $-1 $188 $189 $81 #
cone-surface $-1 1.5724071730448941 -30.763060779255063 12.868009435989075 0 0.52991927123019833 -0.84804809178421925 2 0 0 1 I I 0 1 2 forward I I I I #
face $-1 $190 $191 $64 $-1 $192 reversed single #
loop $-1 $-1 $193 $82 #
plane-surface $-1 40.091089206710926 -119.93990466975356 134.32282216098383 -1 0 0 0 -0.52991927123019833 0.84804809178421925 forward_v I I I I #
face $-1 $194 $195 $65 $-1 $196 forward single #
loop $-1 $197 $198 $83 #
cone-surface $-1 24.000952882551601 -30.763060779255063 12.868009435989075 0 0.52991927123019833 -0.84804809178421925 2 0 0 1 I I 0 1 2 forward I I I I #
face $-1 $199 $200 $66 $-1 $201 forward single #
loop $-1 $202 $203 $84 #
cone-surface $-1 30.034754004111349 -30.763060779255063 12.868009435989075 0 0.52991927123019833 -0.84804809178421925 2 0 0 1 I I 0 1 2 forward I I I I #
face $-1 $204 $205 $67 $-1 $206 forward single #
loop $-1 $207 $208 $85 #
cone-surface $-1 36.068555125671097 -30.763060779255063 12.868009435989075 0 0.52991927123019833 -0.84804809178421925 2 0 0 1 I I 0 1 2 forward I I I I #
face $-1 $209 $210 $68 $-1 $211 reversed single #
loop $-1 $-1 $212 $86 #
plane-surface $-1 64.530901956737537 -40.889475952653754 7.8156938721181035 0 -0.52991927123019833 0.84804809178421925 1 0 0 forward_v I I I I #
face $-1 $213 $214 $69 $-1 $215 forward single #
loop $-1 $216 $217 $87 #
cone-surface $-1 58.49710083517779 -30.763060779255063 12.868009435989075 0 0.52991927123019833 -0.84804809178421925 2 0 0 1 I I 0 1 2 forward I I I I #
face $-1 $218 $219 $70 $-1 $220 forward single #
loop $-1 $221 $222 $88 #
cone-surface $-1 64.530901956737537 -30.763060779255063 12.868009435989075 0 0.52991927123019833 -0.84804809178421925 2 0 0 1 I I 0 1 2 forward I I I I #
face $-1 $223 $224 $71 $-1 $225 forward single #
loop $-1 $226 $227 $89 #
cone-surface $-1 70.564703078297285 -30.763060779255063 12.868009435989075 0 0.52991927123019833 -0.84804809178421925 2 0 0 1 I I 0 1 2 forward I I I I #
face $-1 $228 $229 $54 $-1 $230 reversed single #
loop $-1 $-1 $231 $90 #
plane-surface $-1 0 0 -19.754781884703519 0 0 1 1 0 0 forward_v I I I I #
coedge $-1 $232 $233 $234 $235 forward $91 $-1 #
face $-1 $236 $237 $55 $-1 $238 reversed single #
loop $-1 $-1 $239 $93 #
plane-surface $-1 -49.013877103740626 0 16.350221541031246 -1 0 0 0 0 1 forward_v I I I I #
coedge $-1 $240 $241 $242 $243 forward $94 $-1 #
face $-1 $244 $245 $56 $-1 $246 forward single #
loop $-1 $-1 $247 $96 #
plane-surface $-1 -38.957541901141049 -40.889475952653754 7.8156938721181035 0 -0.52991927123019833 0.84804809178421925 1 0 0 forward_v I I I I #
coedge $-1 $248 $249 $250 $251 reversed $97 $-1 #
face $-1 $-1 $252 $57 $-1 $253 forward single #
loop $-1 $254 $255 $99 #
cone-surface $-1 -44.991343022700796 -29.65999355513329 11.102732901783128 0 0.52991927123019833 -0.84804809178421925 1 0 0 1 I I -0.70710678118654746 0.70710678118654746 1 forward I I I I #
loop $-1 $-1 $256 $75 #
coedge $-1 $160 $160 $257 $258 reversed $100 $-1 #
face $-1 $-1 $259 $58 $-1 $260 forward single #
loop $-1 $261 $262 $102 #
cone-surface $-1 -38.957541901141049 -29.65999355513329 11.102732901783128 0 0.52991927123019833 -0.84804809178421925 1 0 0 1 I I -0.70710678118654746 0.70710678118654746 1 forward I I I I #
loop $-1 $-1 $263 $76 #
coedge $-1 $165 $165 $264 $265 reversed $103 $-1 #
face $-1 $-1 $266 $59 $-1 $267 forward single #
loop $-1 $268 $269 $105 #
cone-surface $-1 -32.923740779581301 -29.65999355513329 11.102732901783128 0 0.52991927123019833 -0.84804809178421925 1 0 0 1 I I -0.70710678118654746 0.70710678118654746 1 forward I I I I #
loop $-1 $-1 $270 $77 #
coedge $-1 $170 $170 $271 $272 reversed $106 $-1 #
face $-1 $273 $274 $60 $-1 $275 reversed single #
loop $-1 $-1 $276 $108 #
plane-surface $-1 -4.4613939485148535 -40.889475952653754 7.8156938721181035 0 -0.52991927123019833 0.84804809178421925 1 0 0 forward_v I I I I #
coedge $-1 $277 $278 $279 $280 reversed $109 $-1 #
face $-1 $-1 $281 $61 $-1 $282 forward single #
loop $-1 $283 $284 $111 #
cone-surface $-1 -10.495195070074601 -29.65999355513329 11.102732901783128 0 0.52991927123019833 -0.84804809178421925 1 0 0 1 I I -0.70710678118654746 0.70710678118654746 1 forward I I I I #
loop $-1 $-1 $285 $79 #
coedge $-1 $179 $179 $286 $287 reversed $112 $-1 #
face $-1 $-1 $288 $62 $-1 $289 forward single #
loop $-1 $290 $291 $114 #
cone-surface $-1 -4.4613939485148535 -29.65999355513329 11.102732901783128 0 0.52991927123019833 -0.84804809178421925 1 0 0 1 I I -0.70710678118654746 0.70710678118654746 1 forward I I I I #
loop $-1 $-1 $292 $80 #
coedge $-1 $184 $184 $293 $294 reversed $115 $-1 #
face $-1 $-1 $295 $63 $-1 $296 forward single #
loop $-1 $297 $298 $117 #
cone-surface $-1 1.5724071730448941 -29.65999355513329 11.102732901783128 0 0.52991927123019833 -0.84804809178421925 1 0 0 1 I I -0.70710678118654746 0.70710678118654746 1 forward I I I I #
loop $-1 $-1 $299 $81 #
coedge $-1 $189 $189 $300 $301 reversed $118 $-1 #
face $-1 $302 $303 $64 $-1 $304 reversed single #
loop $-1 $-1 $305 $120 #
plane-surface $-1 30.034754004111349 -40.889475952653754 7.8156938721181035 0 -0.52991927123019833 0.84804809178421925 1 0 0 forward_v I I I I #
coedge $-1 $306 $307 $308 $309 reversed $121 $-1 #
face $-1 $-1 $310 $65 $-1 $311 forward single #
loop $-1 $312 $313 $123 #
cone-surface $-1 24.000952882551601 -29.65999355513329 11.102732901783128 0 0.52991927123019833 -0.84804809178421925 1 0 0 1 I I -0.70710678118654746 0.70710678118654746 1 forward I I I I #
loop $-1 $-1 $314 $83 #
coedge $-1 $198 $198 $315 $316 reversed $124 $-1 #
face $-1 $-1 $317 $66 $-1 $318 forward single #
loop $-1 $319 $320 $126 #
cone-surface $-1 30.034754004111349 -29.65999355513329 11.102732901783128 0 0.52991927123019833 -0.84804809178421925 1 0 0 1 I I -0.70710678118654746 0.70710678118654746 1 forward I I I I #
loop $-1 $-1 $321 $84 #
coedge $-1 $203 $203 $322 $323 reversed $127 $-1 #
face $-1 $-1 $324 $67 $-1 $325 forward single #
loop $-1 $326 $327 $129 #
cone-surface $-1 36.068555125671097 -29.65999355513329 11.102732901783128 0 0.52991927123019833 -0.84804809178421925 1 0 0 1 I I -0.70710678118654746 0.70710678118654746 1 forward I I I I #
loop $-1 $-1 $328 $85 #
coedge $-1 $208 $208 $329 $330 reversed $130 $-1 #
face $-1 $331 $332 $68 $-1 $333 reversed single #
loop $-1 $-1 $334 $132 #
plane-surface $-1 54.47456675413796 -119.93990466975356 134.32282216098383 1 0 0 0 0.52991927123019833 -0.84804809178421925 forward_v I I I I #
coedge $-1 $335 $336 $337 $338 reversed $133 $-1 #
face $-1 $-1 $339 $69 $-1 $340 forward single #
loop $-1 $341 $342 $135 #
cone-surface $-1 58.49710083517779 -29.65999355513329 11.102732901783128 0 0.52991927123019833 -0.84804809178421925 1 0 0 1 I I -0.70710678118654746 0.70710678118654746 1 forward I I I I #
loop $-1 $-1 $343 $87 #
coedge $-1 $217 $217 $344 $345 reversed $136 $-1 #
face $-1 $-1 $346 $70 $-1 $347 forward single #
loop $-1 $348 $349 $138 #
cone-surface $-1 64.530901956737537 -29.65999355513329 11.102732901783128 0 0.52991927123019833 -0.84804809178421925 1 0 0 1 I I -0.70710678118654746 0.70710678118654746 1 forward I I I I #
loop $-1 $-1 $350 $88 #
coedge $-1 $222 $222 $351 $352 reversed $139 $-1 #
face $-1 $-1 $353 $71 $-1 $354 forward single #
loop $-1 $355 $356 $141 #
cone-surface $-1 70.564703078297285 -29.65999355513329 11.102732901783128 0 0.52991927123019833 -0.84804809178421925 1 0 0 1 I I -0.70710678118654746 0.70710678118654746 1 forward I I I I #
loop $-1 $-1 $357 $89 #
coedge $-1 $227 $227 $358 $359 reversed $142 $-1 #
face $-1 $360 $361 $54 $-1 $362 reversed single #
loop $-1 $-1 $363 $144 #
plane-surface $-1 0 -40.889475952653733 0 0 1 0 0 0 1 forward_v I I I I #
coedge $-1 $364 $365 $366 $367 forward $145 $-1 #
coedge $-1 $368 $147 $369 $370 forward $91 $-1 #
coedge $-1 $147 $368 $371 $372 forward $91 $-1 #
coedge $-1 $373 $374 $147 $235 reversed $375 $-1 #
edge $-1 $376 -40.889475952653733 $377 40.889475952653733 $234 $378 forward 7 unknown #
face $-1 $379 $380 $55 $-1 $381 reversed single #
loop $-1 $-1 $382 $148 #
plane-surface $-1 0 40.889475952653733 0 0 -1 0 0 0 -1 forward_v I I I I #
coedge $-1 $242 $383 $384 $385 reversed $149 $-1 #
coedge $-1 $386 $151 $387 $388 reversed $94 $-1 #
coedge $-1 $151 $386 $389 $390 reversed $94 $-1 #
coedge $-1 $391 $239 $151 $243 reversed $149 $-1 #
edge $-1 $392 -40.889475952653733 $393 40.889475952653733 $242 $394 forward 7 unknown #
face $-1 $395 $396 $56 $-1 $397 forward single #
loop $-1 $-1 $398 $152 #
plane-surface $-1 -49.013877103740626 0 16.350221541031246 -1 0 0 0 0 1 forward_v I I I I #
coedge $-1 $399 $400 $401 $402 reversed $153 $-1 #
coedge $-1 $249 $155 $403 $404 reversed $97 $-1 #
coedge $-1 $155 $248 $399 $405 reversed $97 $-1 #
coedge $-1 $401 $406 $155 $251 forward $396 $-1 #
edge $-1 $407 19.080476382223047 $408 38.187010823237188 $250 $409 forward 7 unknown #
loop $-1 $-1 $257 $156 #
plane-surface $-1 -38.957541901141049 -40.889475952653754 7.8156938721181035 0 -0.52991927123019833 0.84804809178421925 1 0 0 forward_v I I I I #
loop $-1 $-1 $410 $99 #
coedge $-1 $255 $255 $256 $411 reversed $157 $-1 #
coedge $-1 $256 $256 $255 $411 forward $159 $-1 #
coedge $-1 $257 $257 $160 $258 forward $252 $-1 #
edge $-1 $412 -9.2873079643517867e-017 $412 6.2831853071796004 $257 $413 forward 7 unknown #
loop $-1 $-1 $264 $161 #
plane-surface $-1 -38.957541901141049 -40.889475952653754 7.8156938721181035 0 -0.52991927123019833 0.84804809178421925 1 0 0 forward_v I I I I #
loop $-1 $-1 $414 $102 #
coedge $-1 $262 $262 $263 $415 reversed $162 $-1 #
coedge $-1 $263 $263 $262 $415 forward $164 $-1 #
coedge $-1 $264 $264 $165 $265 forward $259 $-1 #
edge $-1 $416 -9.2873079643517867e-017 $416 6.2831853071796004 $264 $417 forward 7 unknown #
loop $-1 $-1 $271 $166 #
plane-surface $-1 -38.957541901141049 -40.889475952653754 7.8156938721181035 0 -0.52991927123019833 0.84804809178421925 1 0 0 forward_v I I I I #
loop $-1 $-1 $418 $105 #
coedge $-1 $269 $269 $270 $419 reversed $167 $-1 #
coedge $-1 $270 $270 $269 $419 forward $169 $-1 #
coedge $-1 $271 $271 $170 $272 forward $266 $-1 #
edge $-1 $420 -9.2873079643517867e-017 $420 6.2831853071796004 $271 $421 forward 7 unknown #
face $-1 $422 $423 $60 $-1 $424 reversed single #
loop $-1 $-1 $425 $171 #
plane-surface $-1 -14.517729151114432 -119.93990466975356 134.32282216098383 1 0 0 0 0.52991927123019833 -0.84804809178421925 forward_v I I I I #
coedge $-1 $426 $427 $428 $429 reversed $172 $-1 #
coedge $-1 $278 $174 $430 $431 reversed $109 $-1 #
coedge $-1 $174 $277 $426 $432 reversed $109 $-1 #
coedge $-1 $428 $433 $174 $280 forward $434 $-1 #
edge $-1 $435 19.080476382223047 $436 38.187010823237188 $279 $437 forward 7 unknown #
loop $-1 $-1 $286 $175 #
plane-surface $-1 -4.4613939485148535 -40.889475952653754 7.8156938721181035 0 -0.52991927123019833 0.84804809178421925 1 0 0 forward_v I I I I #
loop $-1 $-1 $438 $111 #
coedge $-1 $284 $284 $285 $439 reversed $176 $-1 #
coedge $-1 $285 $285 $284 $439 forward $178 $-1 #
coedge $-1 $286 $286 $179 $287 forward $281 $-1 #
edge $-1 $440 -9.2873079643517867e-017 $440 6.2831853071796004 $286 $441 forward 7 unknown #
loop $-1 $-1 $293 $180 #
plane-surface $-1 -4.4613939485148535 -40.889475952653754 7.8156938721181035 0 -0.52991927123019833 0.84804809178421925 1 0 0 forward_v I I I I #
loop $-1 $-1 $442 $114 #
coedge $-1 $291 $291 $292 $443 reversed $181 $-1 #
coedge $-1 $292 $292 $291 $443 forward $183 $-1 #
coedge $-1 $293 $293 $184 $294 forward $288 $-1 #
edge $-1 $444 -9.2873079643517867e-017 $444 6.2831853071796004 $293 $445 forward 7 unknown #
loop $-1 $-1 $300 $185 #
plane-surface $-1 -4.4613939485148535 -40.889475952653754 7.8156938721181035 0 -0.52991927123019833 0.84804809178421925 1 0 0 forward_v I I I I #
loop $-1 $-1 $446 $117 #
coedge $-1 $298 $298 $299 $447 reversed $186 $-1 #
coedge $-1 $299 $299 $298 $447 forward $188 $-1 #
coedge $-1 $300 $300 $189 $301 forward $295 $-1 #
edge $-1 $448 -9.2873079643517867e-017 $448 6.2831853071796004 $300 $449 forward 7 unknown #
face $-1 $450 $451 $64 $-1 $452 reversed single #
loop $-1 $-1 $453 $190 #
plane-surface $-1 19.978418801511772 -119.93990466975356 134.32282216098383 1 0 0 0 0.52991927123019833 -0.84804809178421925 forward_v I I I I #
coedge $-1 $454 $455 $456 $457 reversed $191 $-1 #
coedge $-1 $307 $193 $458 $459 reversed $121 $-1 #
coedge $-1 $193 $306 $454 $460 reversed $121 $-1 #
coedge $-1 $456 $461 $193 $309 forward $462 $-1 #
edge $-1 $463 19.080476382223047 $464 38.187010823237188 $308 $465 forward 7 unknown #
loop $-1 $-1 $315 $194 #
plane-surface $-1 30.034754004111349 -40.889475952653754 7.8156938721181035 0 -0.52991927123019833 0.84804809178421925 1 0 0 forward_v I I I I #
loop $-1 $-1 $466 $123 #
coedge $-1 $313 $313 $314 $467 reversed $195 $-1 #
coedge $-1 $314 $314 $313 $467 forward $197 $-1 #
coedge $-1 $315 $315 $198 $316 forward $310 $-1 #
edge $-1 $468 -9.2873079643517867e-017 $468 6.2831853071796004 $315 $469 forward 7 unknown #
loop $-1 $-1 $322 $199 #
plane-surface $-1 30.034754004111349 -40.889475952653754 7.8156938721181035 0 -0.52991927123019833 0.84804809178421925 1 0 0 forward_v I I I I #
loop $-1 $-1 $470 $126 #
coedge $-1 $320 $320 $321 $471 reversed $200 $-1 #
coedge $-1 $321 $321 $320 $471 forward $202 $-1 #
coedge $-1 $322 $322 $203 $323 forward $317 $-1 #
edge $-1 $472 -9.2873079643517867e-017 $472 6.2831853071796004 $322 $473 forward 7 unknown #
loop $-1 $-1 $329 $204 #
plane-surface $-1 30.034754004111349 -40.889475952653754 7.8156938721181035 0 -0.52991927123019833 0.84804809178421925 1 0 0 forward_v I I I I #
loop $-1 $-1 $474 $129 #
coedge $-1 $327 $327 $328 $475 reversed $205 $-1 #
coedge $-1 $328 $328 $327 $475 forward $207 $-1 #
coedge $-1 $329 $329 $208 $330 forward $324 $-1 #
edge $-1 $476 -9.2873079643517867e-017 $476 6.2831853071796004 $329 $477 forward 7 unknown #
face $-1 $478 $479 $68 $-1 $480 reversed single #
loop $-1 $-1 $481 $209 #
plane-surface $-1 0 -40.889475952653733 0 0 1 0 0 0 1 forward_v I I I I #
coedge $-1 $482 $483 $484 $485 reversed $210 $-1 #
coedge $-1 $486 $212 $487 $488 reversed $133 $-1 #
coedge $-1 $212 $486 $482 $489 forward $133 $-1 #
coedge $-1 $484 $490 $212 $338 forward $491 $-1 #
edge $-1 $492 -42.321786180968353 $493 -22.209115775769192 $337 $494 forward 7 unknown #
loop $-1 $-1 $344 $213 #
plane-surface $-1 64.530901956737537 -40.889475952653754 7.8156938721181035 0 -0.52991927123019833 0.84804809178421925 1 0 0 forward_v I I I I #
loop $-1 $-1 $495 $135 #
coedge $-1 $342 $342 $343 $496 reversed $214 $-1 #
coedge $-1 $343 $343 $342 $496 forward $216 $-1 #
coedge $-1 $344 $344 $217 $345 forward $339 $-1 #
edge $-1 $497 -9.2873079643517867e-017 $497 6.2831853071796004 $344 $498 forward 7 unknown #
loop $-1 $-1 $351 $218 #
plane-surface $-1 64.530901956737537 -40.889475952653754 7.8156938721181035 0 -0.52991927123019833 0.84804809178421925 1 0 0 forward_v I I I I #
loop $-1 $-1 $499 $138 #
coedge $-1 $349 $349 $350 $500 reversed $219 $-1 #
coedge $-1 $350 $350 $349 $500 forward $221 $-1 #
coedge $-1 $351 $351 $222 $352 forward $346 $-1 #
edge $-1 $501 -9.2873079643517867e-017 $501 6.2831853071796004 $351 $502 forward 7 unknown #
loop $-1 $-1 $358 $223 #
plane-surface $-1 64.530901956737537 -40.889475952653754 7.8156938721181035 0 -0.52991927123019833 0.84804809178421925 1 0 0 forward_v I I I I #
loop $-1 $-1 $503 $141 #
coedge $-1 $356 $356 $357 $504 reversed $224 $-1 #
coedge $-1 $357 $357 $356 $504 forward $226 $-1 #
coedge $-1 $358 $358 $227 $359 forward $353 $-1 #
edge $-1 $505 -9.2873079643517867e-017 $505 6.2831853071796004 $358 $506 forward 7 unknown #
face $-1 $507 $508 $54 $-1 $509 reversed single #
loop $-1 $-1 $510 $228 #
plane-surface $-1 -74.587237159337135 0 0 1 0 0 0 0 -1 forward_v I I I I #
coedge $-1 $511 $371 $512 $513 forward $229 $-1 #
coedge $-1 $514 $231 $511 $515 forward $145 $-1 #
coedge $-1 $231 $514 $516 $517 forward $145 $-1 #
coedge $-1 $374 $373 $231 $367 reversed $375 $-1 #
edge $-1 $518 -40.889475952653733 $519 40.889475952653733 $366 $520 forward 7 unknown #
coedge $-1 $233 $232 $521 $522 forward $91 $-1 #
coedge $-1 $523 $524 $232 $370 reversed $508 $-1 #
edge $-1 $377 -74.587237159337135 $525 74.587237159337135 $369 $526 forward 7 unknown #
coedge $-1 $363 $527 $233 $372 reversed $229 $-1 #
edge $-1 $528 -74.587237159337135 $376 74.587237159337135 $371 $529 forward 7 unknown #
coedge $-1 $366 $234 $527 $530 forward $375 $-1 #
coedge $-1 $234 $366 $523 $531 reversed $375 $-1 #
loop $-1 $-1 $373 $507 #
vertex $-1 $235 $532 #
vertex $-1 $235 $533 #
straight-curve $-1 74.587237159337135 0 19.754781884703519 0 1 0 I I #
face $-1 $534 $535 $55 $-1 $536 forward single #
loop $-1 $-1 $537 $236 #
plane-surface $-1 -74.587237159337135 0 0 1 0 0 0 0 -1 forward_v I I I I #
coedge $-1 $389 $538 $391 $539 forward $237 $-1 #
coedge $-1 $239 $391 $540 $541 reversed $149 $-1 #
coedge $-1 $542 $387 $239 $385 forward $543 $-1 #
edge $-1 $393 4.7705504268433536 $544 11.579671114187892 $384 $545 forward 7 unknown #
coedge $-1 $241 $240 $537 $546 reversed $94 $-1 #
coedge $-1 $384 $547 $240 $388 forward $543 $-1 #
edge $-1 $548 -43.686958593567695 $393 -18.113598537971185 $387 $549 forward 7 unknown #
coedge $-1 $550 $382 $241 $390 forward $237 $-1 #
edge $-1 $392 18.113598537971185 $551 43.686958593567695 $389 $552 forward 7 unknown #
coedge $-1 $383 $242 $382 $539 reversed $149 $-1 #
vertex $-1 $390 $553 #
vertex $-1 $388 $554 #
straight-curve $-1 -49.013877103740626 0 12.945661197358977 0 -1 0 I I #
face $-1 $-1 $555 $56 $-1 $556 reversed single #
loop $-1 $-1 $401 $244 #
plane-surface $-1 0 0 19.754781884703519 0 0 1 1 0 0 forward_v I I I I #
coedge $-1 $557 $558 $400 $559 reversed $245 $-1 #
coedge $-1 $560 $247 $249 $405 forward $153 $-1 #
coedge $-1 $247 $560 $398 $559 forward $153 $-1 #
coedge $-1 $561 $250 $247 $402 forward $396 $-1 #
edge $-1 $408 9.4224357479709475 $562 29.535106153170101 $401 $563 forward 7 unknown #
coedge $-1 $564 $565 $248 $404 forward $555 $-1 #
edge $-1 $566 -59.345717208373799 $407 -47.406629195788398 $403 $567 forward 7 unknown #
edge $-1 $408 -22.530012892093982 $566 -2.5137175249122944e-014 $249 $568 forward 7 unknown #
coedge $-1 $250 $561 $564 $569 forward $396 $-1 #
vertex $-1 $404 $570 #
vertex $-1 $251 $571 #
straight-curve $-1 -28.901206698541472 -59.96995233487678 19.754781884703519 0 1 0 I I #
coedge $-1 $410 $410 $-1 $572 reversed $254 $-1 #
edge $-1 $573 0 $573 6.2831853071796004 $255 $574 forward 7 unknown #
vertex $-1 $258 $575 #
ellipse-curve $-1 -44.991343022700796 -31.336208732146652 13.785237878410825 0 -0.52991927123019833 0.84804809178421925 2 0 0 1 I I #
coedge $-1 $414 $414 $-1 $576 reversed $261 $-1 #
edge $-1 $577 0 $577 6.2831853071796004 $262 $578 forward 7 unknown #
vertex $-1 $265 $579 #
ellipse-curve $-1 -38.957541901141049 -31.336208732146652 13.785237878410825 0 -0.52991927123019833 0.84804809178421925 2 0 0 1 I I #
coedge $-1 $418 $418 $-1 $580 reversed $268 $-1 #
edge $-1 $581 0 $581 6.2831853071796004 $269 $582 forward 7 unknown #
vertex $-1 $272 $583 #
ellipse-curve $-1 -32.923740779581301 -31.336208732146652 13.785237878410825 0 -0.52991927123019833 0.84804809178421925 2 0 0 1 I I #
face $-1 $-1 $434 $60 $-1 $584 forward single #
loop $-1 $-1 $585 $273 #
plane-surface $-1 0 -40.889475952653733 0 0 1 0 0 0 1 forward_v I I I I #
coedge $-1 $586 $587 $588 $589 reversed $274 $-1 #
coedge $-1 $590 $276 $278 $432 forward $172 $-1 #
coedge $-1 $276 $590 $586 $591 forward $172 $-1 #
coedge $-1 $588 $279 $276 $429 forward $434 $-1 #
edge $-1 $436 -7.8256382283421519 $592 12.287032176857005 $428 $593 forward 7 unknown #
coedge $-1 $594 $595 $277 $431 forward $423 $-1 #
edge $-1 $596 -59.345717208373799 $435 -47.406629195788398 $430 $597 forward 7 unknown #
edge $-1 $436 -22.530012892093982 $596 -2.5137175249122944e-014 $278 $598 forward 7 unknown #
coedge $-1 $279 $588 $594 $599 forward $434 $-1 #
loop $-1 $-1 $588 $422 #
vertex $-1 $431 $600 #
vertex $-1 $280 $601 #
straight-curve $-1 5.5949412540847252 -59.96995233487678 19.754781884703519 0 1 0 I I #
coedge $-1 $438 $438 $-1 $602 reversed $283 $-1 #
edge $-1 $603 0 $603 6.2831853071796004 $284 $604 forward 7 unknown #
vertex $-1 $287 $605 #
ellipse-curve $-1 -10.495195070074601 -31.336208732146652 13.785237878410825 0 -0.52991927123019833 0.84804809178421925 2 0 0 1 I I #
coedge $-1 $442 $442 $-1 $606 reversed $290 $-1 #
edge $-1 $607 0 $607 6.2831853071796004 $291 $608 forward 7 unknown #
vertex $-1 $294 $609 #
ellipse-curve $-1 -4.4613939485148535 -31.336208732146652 13.785237878410825 0 -0.52991927123019833 0.84804809178421925 2 0 0 1 I I #
coedge $-1 $446 $446 $-1 $610 reversed $297 $-1 #
edge $-1 $611 0 $611 6.2831853071796004 $298 $612 forward 7 unknown #
vertex $-1 $301 $613 #
ellipse-curve $-1 1.5724071730448941 -31.336208732146652 13.785237878410825 0 -0.52991927123019833 0.84804809178421925 2 0 0 1 I I #
face $-1 $-1 $462 $64 $-1 $614 forward single #
loop $-1 $-1 $615 $302 #
plane-surface $-1 0 -40.889475952653733 0 0 1 0 0 0 1 forward_v I I I I #
coedge $-1 $616 $617 $618 $619 reversed $303 $-1 #
coedge $-1 $620 $305 $307 $460 forward $191 $-1 #
coedge $-1 $305 $620 $616 $621 forward $191 $-1 #
coedge $-1 $618 $308 $305 $457 forward $462 $-1 #
edge $-1 $464 -25.073712204655251 $622 -4.9610417994560976 $456 $623 forward 7 unknown #
coedge $-1 $624 $625 $306 $459 forward $451 $-1 #
edge $-1 $626 -59.345717208373799 $463 -47.406629195788398 $458 $627 forward 7 unknown #
edge $-1 $464 -22.530012892093982 $626 -2.5137175249122944e-014 $307 $628 forward 7 unknown #
coedge $-1 $308 $618 $624 $629 forward $462 $-1 #
loop $-1 $-1 $618 $450 #
vertex $-1 $459 $630 #
vertex $-1 $309 $631 #
straight-curve $-1 40.091089206710926 -59.96995233487678 19.754781884703519 0 1 0 I I #
coedge $-1 $466 $466 $-1 $632 reversed $312 $-1 #
edge $-1 $633 0 $633 6.2831853071796004 $313 $634 forward 7 unknown #
vertex $-1 $316 $635 #
ellipse-curve $-1 24.000952882551601 -31.336208732146652 13.785237878410825 0 -0.52991927123019833 0.84804809178421925 2 0 0 1 I I #
coedge $-1 $470 $470 $-1 $636 reversed $319 $-1 #
edge $-1 $637 0 $637 6.2831853071796004 $320 $638 forward 7 unknown #
vertex $-1 $323 $639 #
ellipse-curve $-1 30.034754004111349 -31.336208732146652 13.785237878410825 0 -0.52991927123019833 0.84804809178421925 2 0 0 1 I I #
coedge $-1 $474 $474 $-1 $640 reversed $326 $-1 #
edge $-1 $641 0 $641 6.2831853071796004 $327 $642 forward 7 unknown #
vertex $-1 $330 $643 #
ellipse-curve $-1 36.068555125671097 -31.336208732146652 13.785237878410825 0 -0.52991927123019833 0.84804809178421925 2 0 0 1 I I #
face $-1 $-1 $491 $68 $-1 $644 forward single #
loop $-1 $-1 $487 $331 #
plane-surface $-1 74.587237159337135 0 0 -1 0 0 0 0 1 forward_v I I I I #
coedge $-1 $645 $646 $483 $647 forward $332 $-1 #
coedge $-1 $483 $334 $336 $489 reversed $210 $-1 #
coedge $-1 $334 $482 $481 $647 reversed $210 $-1 #
coedge $-1 $648 $337 $334 $485 forward $491 $-1 #
edge $-1 $493 -38.187010823237188 $649 -19.080476382223047 $484 $650 forward 7 unknown #
coedge $-1 $336 $335 $645 $651 reversed $133 $-1 #
coedge $-1 $652 $653 $335 $488 forward $479 $-1 #
edge $-1 $654 -15.267277627416767 $492 7.2627352646771888 $487 $655 forward 7 unknown #
edge $-1 $656 2.5137175249122944e-014 $493 22.530012892093982 $482 $657 forward 7 unknown #
coedge $-1 $337 $648 $652 $658 forward $491 $-1 #
loop $-1 $-1 $484 $478 #
vertex $-1 $488 $659 #
vertex $-1 $338 $660 #
straight-curve $-1 32.265450978368769 -21.782941511639596 19.754781884703519 -1 0 0 I I #
coedge $-1 $495 $495 $-1 $661 reversed $341 $-1 #
edge $-1 $662 0 $662 6.2831853071796004 $342 $663 forward 7 unknown #
vertex $-1 $345 $664 #
ellipse-curve $-1 58.49710083517779 -31.336208732146652 13.785237878410825 0 -0.52991927123019833 0.84804809178421925 2 0 0 1 I I #
coedge $-1 $499 $499 $-1 $665 reversed $348 $-1 #
edge $-1 $666 0 $666 6.2831853071796004 $349 $667 forward 7 unknown #
vertex $-1 $352 $668 #
ellipse-curve $-1 64.530901956737537 -31.336208732146652 13.785237878410825 0 -0.52991927123019833 0.84804809178421925 2 0 0 1 I I #
coedge $-1 $503 $503 $-1 $669 reversed $355 $-1 #
edge $-1 $670 0 $670 6.2831853071796004 $356 $671 forward 7 unknown #
vertex $-1 $359 $672 #
ellipse-curve $-1 70.564703078297285 -31.336208732146652 13.785237878410825 0 -0.52991927123019833 0.84804809178421925 2 0 0 1 I I #
face $-1 $-1 $375 $54 $-1 $673 reversed single #
loop $-1 $-1 $523 $360 #
plane-surface $-1 0 40.889475952653733 0 0 -1 0 0 0 -1 forward_v I I I I #
coedge $-1 $674 $521 $524 $675 forward $361 $-1 #
coedge $-1 $527 $363 $364 $515 reversed $229 $-1 #
coedge $-1 $521 $674 $363 $513 reversed $361 $-1 #
edge $-1 $528 -19.754781884703519 $676 19.754781884703519 $512 $677 forward 7 unknown #
coedge $-1 $365 $364 $674 $678 forward $145 $-1 #
edge $-1 $519 -74.587237159337135 $676 74.587237159337135 $511 $679 forward 7 unknown #
coedge $-1 $524 $523 $365 $517 reversed $508 $-1 #
edge $-1 $680 -74.587237159337135 $518 74.587237159337135 $516 $681 forward 7 unknown #
vertex $-1 $367 $682 #
vertex $-1 $530 $683 #
straight-curve $-1 74.587237159337135 0 -19.754781884703519 0 -1 0 I I #
coedge $-1 $510 $512 $368 $522 reversed $361 $-1 #
edge $-1 $525 -40.889475952653733 $528 40.889475952653733 $521 $684 forward 7 unknown #
coedge $-1 $516 $369 $374 $531 forward $508 $-1 #
coedge $-1 $369 $516 $510 $675 reversed $508 $-1 #
vertex $-1 $370 $685 #
straight-curve $-1 0 40.889475952653733 19.754781884703519 -1 0 0 I I #
coedge $-1 $371 $511 $373 $530 reversed $229 $-1 #
vertex $-1 $522 $686 #
straight-curve $-1 0 -40.889475952653733 19.754781884703519 1 0 0 I I #
edge $-1 $376 -19.754781884703519 $519 19.754781884703519 $373 $687 forward 7 unknown #
edge $-1 $377 -19.754781884703519 $518 19.754781884703519 $374 $688 forward 7 unknown #
point $-1 74.587237159337135 -40.889475952653733 19.754781884703519 #
point $-1 74.587237159337135 40.889475952653733 19.754781884703519 #
face $-1 $-1 $543 $55 $-1 $689 reversed single #
loop $-1 $-1 $540 $379 #
plane-surface $-1 0 0 19.754781884703519 0 0 1 1 0 0 forward_v I I I I #
coedge $-1 $690 $691 $386 $546 forward $380 $-1 #
coedge $-1 $382 $550 $692 $693 reversed $237 $-1 #
edge $-1 $694 -11.579671114187892 $392 -4.7705504268433536 $382 $695 forward 7 unknown #
coedge $-1 $692 $696 $383 $541 forward $535 $-1 #
edge $-1 $544 -40.889475952653733 $694 40.889475952653733 $540 $697 forward 7 unknown #
coedge $-1 $547 $384 $696 $698 reversed $543 $-1 #
loop $-1 $-1 $384 $534 #
vertex $-1 $385 $699 #
straight-curve $-1 -49.013877103740626 -40.889475952653733 8.175110770515623 0 0 1 I I #
edge $-1 $551 -40.889475952653733 $548 40.889475952653733 $537 $700 forward 7 unknown #
coedge $-1 $387 $542 $690 $701 forward $543 $-1 #
vertex $-1 $546 $702 #
straight-curve $-1 -30.90027856576944 -40.889475952653733 12.945661197358977 1 0 0 I I #
coedge $-1 $538 $389 $691 $703 reversed $237 $-1 #
vertex $-1 $546 $704 #
straight-curve $-1 -30.90027856576944 40.889475952653733 12.945661197358977 -1 0 0 I I #
point $-1 -49.013877103740626 40.889475952653733 12.945661197358977 #
point $-1 -49.013877103740626 -40.889475952653733 12.945661197358977 #
loop $-1 $-1 $403 $395 #
plane-surface $-1 0 -40.889475952653733 0 0 1 0 0 0 1 forward_v I I I I #
coedge $-1 $558 $398 $705 $706 reversed $245 $-1 #
coedge $-1 $398 $557 $561 $707 reversed $245 $-1 #
edge $-1 $708 2.5137175249122944e-014 $562 22.530012892093978 $398 $709 forward 7 unknown #
coedge $-1 $400 $399 $565 $710 reversed $153 $-1 #
coedge $-1 $406 $401 $558 $707 forward $396 $-1 #
vertex $-1 $707 $711 #
straight-curve $-1 -19.478770950570524 -21.782941511639596 19.754781884703519 -1 0 0 I I #
coedge $-1 $705 $403 $406 $569 reversed $555 $-1 #
coedge $-1 $403 $705 $560 $710 forward $555 $-1 #
vertex $-1 $404 $712 #
straight-curve $-1 -28.901206698541472 -40.889475952653733 67.161411080491916 0 0 1 I I #
straight-curve $-1 -28.901206698541472 -40.889475952653754 7.8156938721181035 0 -0.84804809178421925 -0.52991927123019833 I I #
edge $-1 $713 -49.013877103740626 $407 -28.901206698541472 $564 $714 forward 7 unknown #
point $-1 -28.901206698541472 -40.889475952653733 19.754781884703519 #
point $-1 -28.901206698541472 -21.782941511639596 19.754781884703519 #
edge $-1 $715 1 $715 0 $410 $-1 forward 7 unknown #
vertex $-1 $411 $716 #
ellipse-curve $-1 -44.991343022700796 -30.189912826363489 11.950780993567347 0 -0.52991927123019833 0.84804809178421925 2 0 0 1 I I #
point $-1 -42.991343022700796 -31.336208732146638 13.785237878410802 #
edge $-1 $717 1 $717 0 $414 $-1 forward 7 unknown #
vertex $-1 $415 $718 #
ellipse-curve $-1 -38.957541901141049 -30.189912826363489 11.950780993567347 0 -0.52991927123019833 0.84804809178421925 2 0 0 1 I I #
point $-1 -36.957541901141049 -31.336208732146638 13.785237878410802 #
edge $-1 $719 1 $719 0 $418 $-1 forward 7 unknown #
vertex $-1 $419 $720 #
ellipse-curve $-1 -32.923740779581301 -30.189912826363489 11.950780993567347 0 -0.52991927123019833 0.84804809178421925 2 0 0 1 I I #
point $-1 -30.923740779581301 -31.336208732146638 13.785237878410802 #
plane-surface $-1 0 0 19.754781884703519 0 0 1 1 0 0 forward_v I I I I #
coedge $-1 $595 $594 $587 $721 forward $423 $-1 #
coedge $-1 $587 $425 $427 $591 reversed $274 $-1 #
coedge $-1 $425 $586 $585 $721 reversed $274 $-1 #
coedge $-1 $433 $428 $425 $589 forward $434 $-1 #
edge $-1 $592 -38.187010823237188 $722 -19.080476382223047 $588 $723 forward 7 unknown #
coedge $-1 $427 $426 $595 $724 reversed $172 $-1 #
edge $-1 $725 2.5137175249122944e-014 $592 22.530012892093982 $586 $726 forward 7 unknown #
vertex $-1 $429 $727 #
straight-curve $-1 -2.2306969742574267 -21.782941511639596 19.754781884703519 -1 0 0 I I #
coedge $-1 $585 $430 $433 $599 reversed $423 $-1 #
coedge $-1 $430 $585 $590 $724 forward $423 $-1 #
vertex $-1 $431 $728 #
straight-curve $-1 5.5949412540847252 -40.889475952653733 67.161411080491916 0 0 1 I I #
straight-curve $-1 5.5949412540847252 -40.889475952653754 7.8156938721181035 0 -0.84804809178421925 -0.52991927123019833 I I #
edge $-1 $722 -14.517729151114432 $435 5.5949412540847252 $594 $729 forward 7 unknown #
point $-1 5.5949412540847252 -40.889475952653733 19.754781884703519 #
point $-1 5.5949412540847252 -21.782941511639596 19.754781884703519 #
edge $-1 $730 1 $730 0 $438 $-1 forward 7 unknown #
vertex $-1 $439 $731 #
ellipse-curve $-1 -10.495195070074601 -30.189912826363489 11.950780993567347 0 -0.52991927123019833 0.84804809178421925 2 0 0 1 I I #
point $-1 -8.4951950700746011 -31.336208732146638 13.785237878410802 #
edge $-1 $732 1 $732 0 $442 $-1 forward 7 unknown #
vertex $-1 $443 $733 #
ellipse-curve $-1 -4.4613939485148535 -30.189912826363489 11.950780993567347 0 -0.52991927123019833 0.84804809178421925 2 0 0 1 I I #
point $-1 -2.4613939485148535 -31.336208732146638 13.785237878410802 #
edge $-1 $734 1 $734 0 $446 $-1 forward 7 unknown #
vertex $-1 $447 $735 #
ellipse-curve $-1 1.5724071730448941 -30.189912826363489 11.950780993567347 0 -0.52991927123019833 0.84804809178421925 2 0 0 1 I I #
point $-1 3.5724071730448941 -31.336208732146638 13.785237878410802 #
plane-surface $-1 0 0 19.754781884703519 0 0 1 1 0 0 forward_v I I I I #
coedge $-1 $625 $624 $617 $736 forward $451 $-1 #
coedge $-1 $617 $453 $455 $621 reversed $303 $-1 #
coedge $-1 $453 $616 $615 $736 reversed $303 $-1 #
coedge $-1 $461 $456 $453 $619 forward $462 $-1 #
edge $-1 $622 -38.187010823237188 $737 -19.080476382223047 $618 $738 forward 7 unknown #
coedge $-1 $455 $454 $625 $739 reversed $191 $-1 #
edge $-1 $740 2.5137175249122944e-014 $622 22.530012892093982 $616 $741 forward 7 unknown #
vertex $-1 $457 $742 #
straight-curve $-1 15.017377002055674 -21.782941511639596 19.754781884703519 -1 0 0 I I #
coedge $-1 $615 $458 $461 $629 reversed $451 $-1 #
coedge $-1 $458 $615 $620 $739 forward $451 $-1 #
vertex $-1 $459 $743 #
straight-curve $-1 40.091089206710926 -40.889475952653733 67.161411080491916 0 0 1 I I #
straight-curve $-1 40.091089206710926 -40.889475952653754 7.8156938721181035 0 -0.84804809178421925 -0.52991927123019833 I I #
edge $-1 $737 19.978418801511772 $463 40.091089206710926 $624 $744 forward 7 unknown #
point $-1 40.091089206710926 -40.889475952653733 19.754781884703519 #
point $-1 40.091089206710926 -21.782941511639596 19.754781884703519 #
edge $-1 $745 1 $745 0 $466 $-1 forward 7 unknown #
vertex $-1 $467 $746 #
ellipse-curve $-1 24.000952882551601 -30.189912826363489 11.950780993567347 0 -0.52991927123019833 0.84804809178421925 2 0 0 1 I I #
point $-1 26.000952882551601 -31.336208732146638 13.785237878410802 #
edge $-1 $747 1 $747 0 $470 $-1 forward 7 unknown #
vertex $-1 $471 $748 #
ellipse-curve $-1 30.034754004111349 -30.189912826363489 11.950780993567347 0 -0.52991927123019833 0.84804809178421925 2 0 0 1 I I #
point $-1 32.034754004111349 -31.336208732146638 13.785237878410802 #
edge $-1 $749 1 $749 0 $474 $-1 forward 7 unknown #
vertex $-1 $475 $750 #
ellipse-curve $-1 36.068555125671097 -30.189912826363489 11.950780993567347 0 -0.52991927123019833 0.84804809178421925 2 0 0 1 I I #
point $-1 38.068555125671097 -31.336208732146638 13.785237878410802 #
plane-surface $-1 0 0 19.754781884703519 0 0 1 1 0 0 forward_v I I I I #
coedge $-1 $751 $481 $486 $651 forward $332 $-1 #
coedge $-1 $481 $751 $648 $752 reversed $332 $-1 #
edge $-1 $649 47.406629195788398 $656 59.345717208373799 $481 $753 forward 7 unknown #
coedge $-1 $490 $484 $646 $752 forward $491 $-1 #
vertex $-1 $752 $754 #
straight-curve $-1 54.47456675413796 -59.96995233487678 19.754781884703519 0 -1 0 I I #
edge $-1 $656 22.209115775769192 $654 42.321786180968353 $645 $755 forward 7 unknown #
coedge $-1 $653 $487 $490 $658 reversed $479 $-1 #
coedge $-1 $487 $652 $751 $756 forward $479 $-1 #
vertex $-1 $488 $757 #
straight-curve $-1 74.587237159337135 -27.942090293983043 15.906118506107923 0 0.84804809178421925 0.52991927123019833 I I #
vertex $-1 $651 $758 #
straight-curve $-1 54.47456675413796 -40.889475952653754 7.8156938721181035 0 0.84804809178421925 0.52991927123019833 I I #
edge $-1 $759 -40.889475952653733 $492 -21.782941511639596 $652 $760 forward 7 unknown #
point $-1 74.587237159337121 -21.782941511639596 19.754781884703519 #
point $-1 54.47456675413796 -21.782941511639596 19.754781884703519 #
edge $-1 $761 1 $761 0 $495 $-1 forward 7 unknown #
vertex $-1 $496 $762 #
ellipse-curve $-1 58.49710083517779 -30.189912826363489 11.950780993567347 0 -0.52991927123019833 0.84804809178421925 2 0 0 1 I I #
point $-1 60.49710083517779 -31.336208732146638 13.785237878410802 #
edge $-1 $763 1 $763 0 $499 $-1 forward 7 unknown #
vertex $-1 $500 $764 #
ellipse-curve $-1 64.530901956737537 -30.189912826363489 11.950780993567347 0 -0.52991927123019833 0.84804809178421925 2 0 0 1 I I #
point $-1 66.530901956737537 -31.336208732146638 13.785237878410802 #
edge $-1 $765 1 $765 0 $503 $-1 forward 7 unknown #
vertex $-1 $504 $766 #
ellipse-curve $-1 70.564703078297285 -30.189912826363489 11.950780993567347 0 -0.52991927123019833 0.84804809178421925 2 0 0 1 I I #
point $-1 72.564703078297285 -31.336208732146638 13.785237878410802 #
plane-surface $-1 74.587237159337135 0 0 -1 0 0 0 0 1 forward_v I I I I #
coedge $-1 $512 $510 $514 $678 reversed $361 $-1 #
edge $-1 $525 -19.754781884703519 $680 19.754781884703519 $524 $767 forward 7 unknown #
vertex $-1 $678 $768 #
straight-curve $-1 -74.587237159337135 -40.889475952653733 0 0 0 -1 I I #
edge $-1 $676 -40.889475952653733 $680 40.889475952653733 $674 $769 forward 7 unknown #
straight-curve $-1 0 -40.889475952653733 -19.754781884703519 -1 0 0 I I #
vertex $-1 $517 $770 #
straight-curve $-1 0 40.889475952653733 -19.754781884703519 1 0 0 I I #
point $-1 74.587237159337135 40.889475952653733 -19.754781884703519 #
point $-1 74.587237159337135 -40.889475952653733 -19.754781884703519 #
straight-curve $-1 -74.587237159337135 0 19.754781884703519 0 -1 0 I I #
point $-1 -74.587237159337135 40.889475952653733 19.754781884703519 #
point $-1 -74.587237159337135 -40.889475952653733 19.754781884703519 #
straight-curve $-1 74.587237159337135 -40.889475952653733 0 0 0 -1 I I #
straight-curve $-1 74.587237159337135 40.889475952653733 0 0 0 -1 I I #
plane-surface $-1 0 -40.889475952653733 0 0 1 0 0 0 1 forward_v I I I I #
coedge $-1 $771 $537 $547 $701 reversed $380 $-1 #
coedge $-1 $537 $771 $550 $703 forward $380 $-1 #
coedge $-1 $772 $540 $538 $693 forward $535 $-1 #
edge $-1 $694 49.013877103740626 $773 74.587237159337135 $538 $774 forward 7 unknown #
vertex $-1 $693 $775 #
straight-curve $-1 -49.013877103740626 40.889475952653733 8.175110770515623 0 0 -1 I I #
coedge $-1 $540 $772 $542 $698 forward $535 $-1 #
straight-curve $-1 -49.013877103740626 0 19.754781884703519 0 1 0 I I #
edge $-1 $776 -74.587237159337135 $544 -49.013877103740626 $542 $777 forward 7 unknown #
point $-1 -49.013877103740626 -40.889475952653733 19.754781884703515 #
straight-curve $-1 -74.587237159337135 0 12.945661197358977 0 -1 0 I I #
edge $-1 $776 -19.754781884703519 $548 -12.945661197358977 $690 $778 forward 7 unknown #
point $-1 -74.587237159337135 -40.889475952653733 12.945661197358977 #
edge $-1 $773 -19.754781884703519 $551 -12.945661197358977 $550 $779 forward 7 unknown #
point $-1 -74.587237159337135 40.889475952653733 12.945661197358977 #
coedge $-1 $565 $564 $557 $706 forward $555 $-1 #
edge $-1 $713 47.406629195788398 $708 59.345717208373799 $705 $780 forward 7 unknown #
edge $-1 $562 21.782941511639599 $713 40.889475952653733 $561 $781 forward 7 unknown #
vertex $-1 $706 $782 #
straight-curve $-1 -49.013877103740626 -40.889475952653754 7.8156938721181035 0 0.84804809178421925 0.52991927123019833 I I #
edge $-1 $708 -29.535106153170101 $566 -9.4224357479709475 $565 $783 forward 7 unknown #
point $-1 -49.013877103740626 -21.782941511639599 19.754781884703519 #
point $-1 -28.901206698541472 -40.889475952653733 7.8156938721181168 #
vertex $-1 $569 $784 #
straight-curve $-1 0 -40.889475952653733 19.754781884703519 1 0 0 I I #
vertex $-1 $572 $785 #
point $-1 -42.991343022700796 -30.189912826363489 11.950780993567347 #
vertex $-1 $576 $786 #
point $-1 -36.957541901141049 -30.189912826363489 11.950780993567347 #
vertex $-1 $580 $787 #
point $-1 -30.923740779581301 -30.189912826363489 11.950780993567347 #
edge $-1 $722 47.406629195788398 $725 59.345717208373799 $585 $788 forward 7 unknown #
vertex $-1 $599 $789 #
straight-curve $-1 -14.517729151114432 -59.96995233487678 19.754781884703519 0 -1 0 I I #
edge $-1 $725 -12.287032176857005 $596 7.8256382283421519 $595 $790 forward 7 unknown #
vertex $-1 $724 $791 #
straight-curve $-1 -14.517729151114432 -40.889475952653754 7.8156938721181035 0 0.84804809178421925 0.52991927123019833 I I #
point $-1 -14.517729151114432 -21.782941511639596 19.754781884703519 #
point $-1 5.5949412540847252 -40.889475952653733 7.8156938721181168 #
straight-curve $-1 0 -40.889475952653733 19.754781884703519 1 0 0 I I #
vertex $-1 $602 $792 #
point $-1 -8.4951950700746011 -30.189912826363489 11.950780993567347 #
vertex $-1 $606 $793 #
point $-1 -2.4613939485148535 -30.189912826363489 11.950780993567347 #
vertex $-1 $610 $794 #
point $-1 3.5724071730448941 -30.189912826363489 11.950780993567347 #
edge $-1 $737 47.406629195788398 $740 59.345717208373799 $615 $795 forward 7 unknown #
vertex $-1 $629 $796 #
straight-curve $-1 19.978418801511772 -59.96995233487678 19.754781884703519 0 -1 0 I I #
edge $-1 $740 4.9610417994560976 $626 25.073712204655251 $625 $797 forward 7 unknown #
vertex $-1 $739 $798 #
straight-curve $-1 19.978418801511772 -40.889475952653754 7.8156938721181035 0 0.84804809178421925 0.52991927123019833 I I #
point $-1 19.978418801511772 -21.782941511639596 19.754781884703519 #
point $-1 40.091089206710926 -40.889475952653733 7.8156938721181168 #
straight-curve $-1 0 -40.889475952653733 19.754781884703519 1 0 0 I I #
vertex $-1 $632 $799 #
point $-1 26.000952882551601 -30.189912826363489 11.950780993567347 #
vertex $-1 $636 $800 #
point $-1 32.034754004111349 -30.189912826363489 11.950780993567347 #
vertex $-1 $640 $801 #
point $-1 38.068555125671097 -30.189912826363489 11.950780993567347 #
coedge $-1 $646 $645 $653 $756 reversed $332 $-1 #
edge $-1 $649 54.47456675413796 $759 74.587237159337135 $646 $802 forward 7 unknown #
straight-curve $-1 54.47456675413796 -40.889475952653733 67.161411080491916 0 0 -1 I I #
point $-1 54.47456675413796 -40.889475952653733 19.754781884703519 #
straight-curve $-1 32.265450978368769 -40.889475952653733 7.8156938721181168 1 0 0 I I #
edge $-1 $759 -19.754781884703519 $654 -7.8156938721181168 $653 $803 forward 7 unknown #
point $-1 74.587237159337121 -40.889475952653733 7.8156938721181168 #
point $-1 54.47456675413796 -40.889475952653733 7.8156938721181168 #
vertex $-1 $658 $804 #
straight-curve $-1 74.587237159337135 0 19.754781884703519 0 1 0 I I #
vertex $-1 $661 $805 #
point $-1 60.49710083517779 -30.189912826363489 11.950780993567347 #
vertex $-1 $665 $806 #
point $-1 66.530901956737537 -30.189912826363489 11.950780993567347 #
vertex $-1 $669 $807 #
point $-1 72.564703078297285 -30.189912826363489 11.950780993567347 #
straight-curve $-1 -74.587237159337135 40.889475952653733 0 0 0 -1 I I #
point $-1 -74.587237159337135 -40.889475952653733 -19.754781884703519 #
straight-curve $-1 -74.587237159337135 0 -19.754781884703519 0 1 0 I I #
point $-1 -74.587237159337135 40.889475952653733 -19.754781884703519 #
coedge $-1 $691 $690 $772 $808 reversed $380 $-1 #
coedge $-1 $696 $692 $771 $808 forward $535 $-1 #
vertex $-1 $693 $809 #
straight-curve $-1 0 40.889475952653733 19.754781884703519 -1 0 0 I I #
point $-1 -49.013877103740626 40.889475952653733 19.754781884703515 #
vertex $-1 $808 $810 #
straight-curve $-1 0 -40.889475952653733 19.754781884703519 1 0 0 I I #
straight-curve $-1 -74.587237159337135 -40.889475952653733 0 0 0 -1 I I #
straight-curve $-1 -74.587237159337135 40.889475952653733 0 0 0 -1 I I #
straight-curve $-1 -49.013877103740626 -40.889475952653733 67.161411080491916 0 0 -1 I I #
straight-curve $-1 -49.013877103740626 0 19.754781884703519 0 -1 0 I I #
point $-1 -49.013877103740626 -40.889475952653733 7.8156938721181168 #
straight-curve $-1 -19.478770950570524 -40.889475952653733 7.8156938721181168 1 0 0 I I #
point $-1 -49.013877103740626 -40.889475952653733 19.754781884703515 #
point $-1 -44.991343022700796 -29.130074283903092 10.254684809998908 #
point $-1 -38.957541901141049 -29.130074283903092 10.254684809998908 #
point $-1 -32.923740779581301 -29.130074283903092 10.254684809998908 #
straight-curve $-1 -14.517729151114432 -40.889475952653733 67.161411080491916 0 0 -1 I I #
point $-1 -14.517729151114432 -40.889475952653733 19.754781884703519 #
straight-curve $-1 -2.2306969742574267 -40.889475952653733 7.8156938721181168 1 0 0 I I #
point $-1 -14.517729151114432 -40.889475952653733 7.8156938721181168 #
point $-1 -10.495195070074601 -29.130074283903092 10.254684809998908 #
point $-1 -4.4613939485148535 -29.130074283903092 10.254684809998908 #
point $-1 1.5724071730448941 -29.130074283903092 10.254684809998908 #
straight-curve $-1 19.978418801511772 -40.889475952653733 67.161411080491916 0 0 -1 I I #
point $-1 19.978418801511772 -40.889475952653733 19.754781884703519 #
straight-curve $-1 15.017377002055674 -40.889475952653733 7.8156938721181168 1 0 0 I I #
point $-1 19.978418801511772 -40.889475952653733 7.8156938721181168 #
point $-1 24.000952882551601 -29.130074283903092 10.254684809998908 #
point $-1 30.034754004111349 -29.130074283903092 10.254684809998908 #
point $-1 36.068555125671097 -29.130074283903092 10.254684809998908 #
straight-curve $-1 0 -40.889475952653733 19.754781884703519 1 0 0 I I #
straight-curve $-1 74.587237159337135 -40.889475952653733 0 0 0 -1 I I #
point $-1 74.587237159337135 -40.889475952653733 19.754781884703519 #
point $-1 58.49710083517779 -29.130074283903092 10.254684809998908 #
point $-1 64.530901956737537 -29.130074283903092 10.254684809998908 #
point $-1 70.564703078297285 -29.130074283903092 10.254684809998908 #
edge $-1 $773 -40.889475952653733 $776 40.889475952653733 $771 $811 forward 7 unknown #
point $-1 -74.587237159337135 40.889475952653733 19.754781884703519 #
point $-1 -74.587237159337135 -40.889475952653733 19.754781884703519 #
straight-curve $-1 -74.587237159337135 0 19.754781884703519 0 -1 0 I I #
End-of-ACIS-data 