500 0 7 0           
7 Unknown 11 ACIS 5.0 NT 24 Thu Mar 25 22:45:59 1999 
-1 9.9999999999999995e-007 1e-010 
body $-1 $7 $-1 $8 #
body $-1 $9 $-1 $10 #
body $-1 $11 $-1 $12 #
body $-1 $13 $-1 $14 #
body $-1 $15 $-1 $16 #
body $-1 $17 $-1 $18 #
body $-1 $19 $-1 $20 #
lump $-1 $-1 $21 $0 #
transform $-1 1 0 0 0 1 0 0 0 1 48.511001922666097 25.425675097496725 6.2551180180041079 1 rotate no_reflect no_shear #
lump $-1 $-1 $22 $1 #
transform $-1 1 0 0 0 1 0 0 0 1 48.511001922666097 25.425675097496725 6.2551180180041079 1 rotate no_reflect no_shear #
lump $-1 $-1 $23 $2 #
transform $-1 1 0 0 0 1 0 0 0 1 48.511001922666097 25.425675097496725 6.2551180180041079 1 rotate no_reflect no_shear #
lump $-1 $-1 $24 $3 #
transform $-1 1 0 0 0 1 0 0 0 1 48.511001922666097 25.425675097496725 6.2551180180041079 1 rotate no_reflect no_shear #
lump $-1 $-1 $25 $4 #
transform $-1 1 0 0 0 1 0 0 0 1 48.511001922666097 25.425675097496725 6.2551180180041079 1 rotate no_reflect no_shear #
lump $-1 $-1 $26 $5 #
transform $-1 1 0 0 0 1 0 0 0 1 48.511001922666097 25.425675097496725 6.2551180180041079 1 rotate no_reflect no_shear #
lump $-1 $-1 $27 $6 #
transform $-1 1 0 0 0 1 0 0 0 1 48.511001922666097 25.425675097496725 6.2551180180041079 1 rotate no_reflect no_shear #
shell $-1 $-1 $-1 $28 $-1 $7 #
shell $-1 $-1 $-1 $29 $-1 $9 #
shell $-1 $-1 $-1 $30 $-1 $11 #
shell $-1 $-1 $-1 $31 $-1 $13 #
shell $-1 $-1 $-1 $32 $-1 $15 #
shell $-1 $-1 $-1 $33 $-1 $17 #
shell $-1 $-1 $-1 $34 $-1 $19 #
face $-1 $35 $36 $21 $-1 $37 forward single #
face $-1 $38 $39 $22 $-1 $40 forward single #
face $-1 $41 $42 $23 $-1 $43 forward single #
face $-1 $44 $45 $24 $-1 $46 reversed single #
face $-1 $47 $48 $25 $-1 $49 forward single #
face $-1 $50 $51 $26 $-1 $52 reversed single #
face $-1 $53 $54 $27 $-1 $55 forward single #
face $-1 $56 $57 $21 $-1 $58 reversed single #
loop $-1 $-1 $59 $28 #
plane-surface $-1 0 0 6.2551180180041079 0 0 1 1 0 0 forward_v I I I I #
face $-1 $60 $61 $22 $-1 $62 reversed single #
loop $-1 $-1 $63 $29 #
plane-surface $-1 0 -21.757230781904727 3.3621928255592319 0 0 1 1 0 0 forward_v I I I I #
face $-1 $64 $65 $23 $-1 $66 reversed single #
loop $-1 $-1 $67 $30 #
plane-surface $-1 0 21.757230781904727 3.3621928255592319 0 0 1 1 0 0 forward_v I I I I #
face $-1 $68 $69 $24 $-1 $70 reversed single #
loop $-1 $-1 $71 $31 #
plane-surface $-1 -114.67985022185647 2.3062367401165762 73.746508661975298 0 -1 0 0.68199836817093118 0 -0.7313536940579346 forward_v I I I I #
face $-1 $72 $73 $25 $-1 $74 forward single #
loop $-1 $75 $76 $32 #
cone-surface $-1 -46.18816821205246 -2.0297571670364896 4.0240906341501281 0.68199836817093118 0 -0.7313536940579346 0.7313536940579346 0 0.68199836817093118 1 I I 0 1 1 forward I I I I #
face $-1 $77 $78 $26 $-1 $79 reversed single #
loop $-1 $-1 $80 $33 #
plane-surface $-1 43.722449304669638 -6.3657510741895553 139.91535696116568 0 1 0 0.68199836817093118 0 0.7313536940579346 forward_v I I I I #
face $-1 $81 $82 $27 $-1 $83 forward single #
loop $-1 $84 $85 $34 #
cone-surface $-1 46.188168212052474 -2.0297571670364896 4.0240906341501388 -0.68199836817093118 0 -0.7313536940579346 0.7313536940579346 0 -0.68199836817093118 1 I I 0 1 1 forward I I I I #
face $-1 $86 $87 $21 $-1 $88 reversed single #
loop $-1 $-1 $89 $35 #
plane-surface $-1 0 0 -6.2551180180041079 0 0 1 1 0 0 forward_v I I I I #
coedge $-1 $90 $91 $92 $93 forward $36 $-1 #
face $-1 $94 $95 $22 $-1 $96 reversed single #
loop $-1 $-1 $97 $38 #
plane-surface $-1 0 -21.757230781904727 -0.17997511386987064 0 0 1 1 0 0 forward_v I I I I #
coedge $-1 $98 $99 $100 $101 reversed $39 $-1 #
face $-1 $102 $103 $23 $-1 $104 reversed single #
loop $-1 $-1 $105 $41 #
plane-surface $-1 0 21.757230781904727 -0.17997511386987064 0 0 1 1 0 0 forward_v I I I I #
coedge $-1 $106 $107 $108 $109 reversed $42 $-1 #
face $-1 $110 $111 $24 $-1 $112 reversed single #
loop $-1 $-1 $113 $44 #
plane-surface $-1 -48.511001922666097 -2.0297571670364896 2.7891077447884669 -0.68199836817093118 0 0.7313536940579346 0.7313536940579346 0 0.68199836817093118 forward_v I I I I #
coedge $-1 $114 $115 $116 $117 reversed $45 $-1 #
face $-1 $-1 $118 $25 $-1 $119 forward single #
loop $-1 $120 $121 $47 #
cone-surface $-1 -45.382755758854842 -2.0297571670364896 3.1603915398750075 0.68199836817093118 0 -0.7313536940579346 0.3656768470289673 0 0.34099918408546559 1 I I -0.70710678118654746 0.70710678118654746 0.5 forward I I I I #
loop $-1 $-1 $122 $32 #
coedge $-1 $76 $76 $123 $124 reversed $48 $-1 #
face $-1 $125 $126 $26 $-1 $127 reversed single #
loop $-1 $-1 $128 $50 #
plane-surface $-1 -22.446398994520735 -2.0297571670364896 68.957956043978854 0.68199836817093118 0 0.7313536940579346 0.7313536940579346 0 -0.68199836817093118 forward_v I I I I #
coedge $-1 $129 $130 $131 $132 reversed $51 $-1 #
face $-1 $-1 $133 $27 $-1 $134 forward single #
loop $-1 $135 $136 $53 #
cone-surface $-1 45.382755758854856 -2.0297571670364896 3.1603915398750182 -0.68199836817093118 0 -0.7313536940579346 0.3656768470289673 0 -0.34099918408546559 1 I I -0.70710678118654746 0.70710678118654746 0.5 forward I I I I #
loop $-1 $-1 $137 $34 #
coedge $-1 $85 $85 $138 $139 reversed $54 $-1 #
face $-1 $140 $141 $21 $-1 $142 reversed single #
loop $-1 $-1 $143 $56 #
plane-surface $-1 0 -25.425675097496725 0 0 1 0 0 0 1 forward_v I I I I #
coedge $-1 $144 $145 $146 $147 forward $57 $-1 #
coedge $-1 $148 $59 $149 $150 forward $36 $-1 #
coedge $-1 $59 $148 $151 $152 forward $36 $-1 #
coedge $-1 $153 $154 $59 $93 reversed $155 $-1 #
edge $-1 $156 -25.425675097496725 $157 25.425675097496725 $92 $158 forward 7 unknown #
face $-1 $159 $160 $22 $-1 $161 reversed single #
loop $-1 $-1 $162 $60 #
plane-surface $-1 0 -18.08878646631273 1.5911088558446806 0 -1 0 0 0 -1 forward_v I I I I #
coedge $-1 $163 $164 $165 $166 reversed $61 $-1 #
coedge $-1 $167 $63 $168 $169 forward $39 $-1 #
coedge $-1 $63 $167 $170 $171 reversed $39 $-1 #
coedge $-1 $172 $173 $63 $101 forward $174 $-1 #
edge $-1 $175 7.2101710753603658 $176 14.547059706544362 $100 $177 forward 7 unknown #
face $-1 $178 $179 $23 $-1 $180 reversed single #
loop $-1 $-1 $181 $64 #
plane-surface $-1 0 18.08878646631273 1.5911088558446806 0 1 0 0 0 1 forward_v I I I I #
coedge $-1 $182 $183 $184 $185 reversed $65 $-1 #
coedge $-1 $186 $67 $187 $188 reversed $42 $-1 #
coedge $-1 $67 $186 $189 $190 forward $42 $-1 #
coedge $-1 $191 $192 $67 $109 forward $179 $-1 #
edge $-1 $193 -14.547059706544362 $194 -7.2101710753603658 $108 $195 forward 7 unknown #
face $-1 $196 $197 $24 $-1 $198 reversed single #
loop $-1 $-1 $199 $68 #
plane-surface $-1 -114.67985022185647 -6.3657510741895553 73.746508661975298 0 1 0 -0.68199836817093118 0 0.7313536940579346 forward_v I I I I #
coedge $-1 $200 $201 $202 $203 reversed $69 $-1 #
coedge $-1 $115 $71 $204 $205 reversed $45 $-1 #
coedge $-1 $71 $114 $200 $206 reversed $45 $-1 #
coedge $-1 $202 $207 $71 $117 forward $197 $-1 #
edge $-1 $208 30.618136312983541 $209 34.084146586199182 $116 $210 forward 7 unknown #
loop $-1 $-1 $123 $72 #
plane-surface $-1 -48.511001922666097 -2.0297571670364896 2.7891077447884669 -0.68199836817093118 0 0.7313536940579346 0.7313536940579346 0 0.68199836817093118 forward_v I I I I #
loop $-1 $-1 $211 $47 #
coedge $-1 $121 $121 $122 $212 reversed $73 $-1 #
coedge $-1 $122 $122 $121 $212 forward $75 $-1 #
coedge $-1 $123 $123 $76 $124 forward $118 $-1 #
edge $-1 $213 0 $213 6.2831853071796004 $123 $214 forward 7 unknown #
face $-1 $215 $216 $26 $-1 $217 forward single #
loop $-1 $-1 $218 $77 #
plane-surface $-1 43.722449304669638 2.3062367401165762 139.91535696116568 0 -1 0 -0.68199836817093118 0 -0.7313536940579346 forward_v I I I I #
coedge $-1 $219 $220 $221 $222 reversed $78 $-1 #
coedge $-1 $130 $80 $223 $224 reversed $51 $-1 #
coedge $-1 $80 $129 $219 $225 reversed $51 $-1 #
coedge $-1 $221 $226 $80 $132 forward $227 $-1 #
edge $-1 $228 63.702560462578731 $229 67.168570735794361 $131 $230 forward 7 unknown #
loop $-1 $-1 $138 $81 #
plane-surface $-1 -22.446398994520735 -2.0297571670364896 68.957956043978854 0.68199836817093118 0 0.7313536940579346 0.7313536940579346 0 -0.68199836817093118 forward_v I I I I #
loop $-1 $-1 $231 $53 #
coedge $-1 $136 $136 $137 $232 reversed $82 $-1 #
coedge $-1 $137 $137 $136 $232 forward $84 $-1 #
coedge $-1 $138 $138 $85 $139 forward $133 $-1 #
edge $-1 $233 0 $233 6.2831853071796004 $138 $234 forward 7 unknown #
face $-1 $235 $236 $21 $-1 $237 reversed single #
loop $-1 $-1 $238 $86 #
plane-surface $-1 -48.511001922666097 0 0 1 0 0 0 0 -1 forward_v I I I I #
coedge $-1 $239 $151 $240 $241 forward $87 $-1 #
coedge $-1 $242 $89 $239 $243 forward $57 $-1 #
coedge $-1 $89 $242 $244 $245 forward $57 $-1 #
coedge $-1 $154 $153 $89 $147 reversed $155 $-1 #
edge $-1 $246 -25.425675097496725 $247 25.425675097496725 $146 $248 forward 7 unknown #
coedge $-1 $91 $90 $249 $250 forward $36 $-1 #
coedge $-1 $251 $252 $90 $150 reversed $236 $-1 #
edge $-1 $157 -48.511001922666097 $253 48.511001922666097 $149 $254 forward 7 unknown #
coedge $-1 $143 $255 $91 $152 reversed $87 $-1 #
edge $-1 $256 -48.511001922666097 $156 48.511001922666097 $151 $257 forward 7 unknown #
coedge $-1 $146 $92 $255 $258 forward $155 $-1 #
coedge $-1 $92 $146 $251 $259 reversed $155 $-1 #
loop $-1 $-1 $153 $235 #
vertex $-1 $93 $260 #
vertex $-1 $93 $261 #
straight-curve $-1 48.511001922666097 0 6.2551180180041079 0 1 0 I I #
face $-1 $262 $263 $22 $-1 $264 reversed single #
loop $-1 $-1 $265 $94 #
plane-surface $-1 -48.511001922666097 0 0 1 0 0 0 0 -1 forward_v I I I I #
coedge $-1 $266 $168 $173 $267 reversed $95 $-1 #
coedge $-1 $268 $97 $269 $270 reversed $61 $-1 #
coedge $-1 $97 $268 $266 $271 forward $61 $-1 #
coedge $-1 $173 $172 $97 $166 forward $174 $-1 #
edge $-1 $272 -14.547059706544362 $273 -7.2101710753603658 $165 $274 forward 7 unknown #
coedge $-1 $99 $98 $265 $275 reversed $39 $-1 #
coedge $-1 $162 $276 $98 $169 reversed $95 $-1 #
edge $-1 $175 -48.511001922666097 $277 48.511001922666097 $168 $278 forward 7 unknown #
coedge $-1 $279 $280 $99 $171 forward $263 $-1 #
edge $-1 $176 -48.511001922666097 $281 48.511001922666097 $170 $282 forward 7 unknown #
coedge $-1 $165 $100 $280 $283 forward $174 $-1 #
coedge $-1 $100 $165 $162 $267 forward $174 $-1 #
loop $-1 $-1 $100 $262 #
vertex $-1 $101 $284 #
vertex $-1 $283 $285 #
straight-curve $-1 48.511001922666097 -10.878615390952364 3.3621928255592319 0 -1 0 I I #
face $-1 $286 $287 $23 $-1 $288 reversed single #
loop $-1 $-1 $108 $102 #
plane-surface $-1 48.511001922666097 0 0 -1 0 0 0 0 1 forward_v I I I I #
coedge $-1 $289 $189 $290 $291 reversed $103 $-1 #
coedge $-1 $292 $105 $289 $293 forward $65 $-1 #
coedge $-1 $105 $292 $294 $295 reversed $65 $-1 #
coedge $-1 $192 $191 $105 $185 forward $179 $-1 #
edge $-1 $296 7.2101710753603658 $297 14.547059706544362 $184 $298 forward 7 unknown #
coedge $-1 $107 $106 $299 $300 reversed $42 $-1 #
coedge $-1 $301 $302 $106 $188 forward $303 $-1 #
edge $-1 $304 -48.511001922666097 $193 48.511001922666097 $187 $305 forward 7 unknown #
coedge $-1 $181 $306 $107 $190 reversed $103 $-1 #
edge $-1 $307 -48.511001922666097 $194 48.511001922666097 $189 $308 forward 7 unknown #
coedge $-1 $184 $108 $306 $309 forward $179 $-1 #
coedge $-1 $108 $184 $301 $310 reversed $179 $-1 #
vertex $-1 $310 $311 #
vertex $-1 $109 $312 #
straight-curve $-1 48.511001922666097 10.878615390952364 3.3621928255592319 0 -1 0 I I #
face $-1 $-1 $313 $24 $-1 $314 forward single #
loop $-1 $-1 $116 $110 #
plane-surface $-1 -48.511001922666097 0 0 1 0 0 0 0 -1 forward_v I I I I #
coedge $-1 $315 $316 $317 $318 reversed $111 $-1 #
coedge $-1 $319 $113 $115 $206 forward $69 $-1 #
coedge $-1 $113 $319 $315 $320 forward $69 $-1 #
coedge $-1 $317 $116 $113 $203 forward $197 $-1 #
edge $-1 $209 -3.321115323634821 $321 5.3508724906713105 $202 $322 forward 7 unknown #
coedge $-1 $323 $324 $114 $205 forward $313 $-1 #
edge $-1 $325 -12.545764071265083 $208 -8.828923188262138 $204 $326 forward 7 unknown #
edge $-1 $209 0 $325 5.0821386604065104 $115 $327 forward 7 unknown #
coedge $-1 $116 $317 $323 $328 reversed $197 $-1 #
vertex $-1 $328 $329 #
vertex $-1 $117 $330 #
straight-curve $-1 -48.511001922666097 2.3062367401165762 36.873254330987649 0 0 -1 I I #
coedge $-1 $211 $211 $-1 $331 reversed $120 $-1 #
edge $-1 $332 0 $332 6.2831853071796004 $121 $333 forward 7 unknown #
vertex $-1 $124 $334 #
ellipse-curve $-1 -46.652581481164624 -2.0297571670364896 4.5221128813962892 -0.68199836817093118 0 0.7313536940579346 0.7313536940579346 0 0.68199836817093118 1 I I #
face $-1 $-1 $227 $26 $-1 $335 reversed single #
loop $-1 $-1 $336 $125 #
plane-surface $-1 0 0 6.2551180180041079 0 0 1 1 0 0 forward_v I I I I #
coedge $-1 $337 $338 $339 $340 reversed $126 $-1 #
coedge $-1 $341 $128 $130 $225 forward $78 $-1 #
coedge $-1 $128 $341 $337 $342 forward $78 $-1 #
coedge $-1 $339 $131 $128 $222 forward $227 $-1 #
edge $-1 $229 -5.3508724906713105 $343 3.321115323634821 $221 $344 forward 7 unknown #
coedge $-1 $345 $346 $129 $224 forward $216 $-1 #
edge $-1 $347 22.932936387328361 $228 26.649777270331278 $223 $348 forward 7 unknown #
edge $-1 $229 -97.022003845332193 $347 -91.939865184925708 $130 $349 forward 7 unknown #
coedge $-1 $131 $339 $345 $350 reversed $227 $-1 #
loop $-1 $-1 $339 $215 #
vertex $-1 $350 $351 #
vertex $-1 $132 $352 #
straight-curve $-1 48.511001922666097 -6.3657510741895553 69.957678480582842 0 0 -1 I I #
coedge $-1 $231 $231 $-1 $353 reversed $135 $-1 #
edge $-1 $354 0 $354 6.2831853071796004 $136 $355 forward 7 unknown #
vertex $-1 $139 $356 #
ellipse-curve $-1 46.652581481164638 -2.0297571670364896 4.5221128813962981 0.68199836817093118 0 0.7313536940579346 0.7313536940579346 0 -0.68199836817093118 1 I I #
face $-1 $-1 $155 $21 $-1 $357 reversed single #
loop $-1 $-1 $251 $140 #
plane-surface $-1 0 25.425675097496725 0 0 -1 0 0 0 -1 forward_v I I I I #
coedge $-1 $358 $249 $252 $359 forward $141 $-1 #
coedge $-1 $255 $143 $144 $243 reversed $87 $-1 #
coedge $-1 $249 $358 $143 $241 reversed $141 $-1 #
edge $-1 $256 -6.2551180180041079 $360 6.2551180180041079 $240 $361 forward 7 unknown #
coedge $-1 $145 $144 $358 $362 forward $57 $-1 #
edge $-1 $247 -48.511001922666097 $360 48.511001922666097 $239 $363 forward 7 unknown #
coedge $-1 $252 $251 $145 $245 reversed $236 $-1 #
edge $-1 $364 -48.511001922666097 $246 48.511001922666097 $244 $365 forward 7 unknown #
vertex $-1 $147 $366 #
vertex $-1 $258 $367 #
straight-curve $-1 48.511001922666097 0 -6.2551180180041079 0 -1 0 I I #
coedge $-1 $238 $240 $148 $250 reversed $141 $-1 #
edge $-1 $253 -25.425675097496725 $256 25.425675097496725 $249 $368 forward 7 unknown #
coedge $-1 $244 $149 $154 $259 forward $236 $-1 #
coedge $-1 $149 $244 $238 $359 reversed $236 $-1 #
vertex $-1 $150 $369 #
straight-curve $-1 0 25.425675097496725 6.2551180180041079 -1 0 0 I I #
coedge $-1 $151 $239 $153 $258 reversed $87 $-1 #
vertex $-1 $250 $370 #
straight-curve $-1 0 -25.425675097496725 6.2551180180041079 1 0 0 I I #
edge $-1 $156 -6.2551180180041079 $247 6.2551180180041079 $153 $371 forward 7 unknown #
edge $-1 $157 -6.2551180180041079 $246 6.2551180180041079 $154 $372 forward 7 unknown #
point $-1 48.511001922666097 -25.425675097496725 6.2551180180041079 #
point $-1 48.511001922666097 25.425675097496725 6.2551180180041079 #
face $-1 $-1 $174 $22 $-1 $373 reversed single #
loop $-1 $-1 $170 $159 #
plane-surface $-1 0 -25.425675097496725 0 0 1 0 0 0 1 forward_v I I I I #
coedge $-1 $374 $375 $167 $275 forward $160 $-1 #
coedge $-1 $276 $162 $164 $271 reversed $95 $-1 #
edge $-1 $273 -0.97552954179221096 $175 2.5666383976368916 $173 $376 forward 7 unknown #
coedge $-1 $164 $163 $377 $378 reversed $61 $-1 #
coedge $-1 $280 $279 $163 $270 forward $263 $-1 #
edge $-1 $379 -48.511001922666097 $272 48.511001922666097 $269 $380 forward 7 unknown #
edge $-1 $381 -48.511001922666097 $273 48.511001922666097 $266 $382 forward 7 unknown #
vertex $-1 $270 $383 #
vertex $-1 $166 $384 #
straight-curve $-1 48.511001922666097 -10.878615390952364 -0.17997511386987064 0 1 0 I I #
edge $-1 $281 -14.547059706544362 $277 -7.2101710753603658 $265 $385 forward 7 unknown #
coedge $-1 $168 $266 $374 $386 reversed $95 $-1 #
vertex $-1 $275 $387 #
straight-curve $-1 0 -18.08878646631273 3.3621928255592319 -1 0 0 I I #
coedge $-1 $269 $170 $375 $388 forward $263 $-1 #
coedge $-1 $170 $269 $172 $283 reversed $263 $-1 #
vertex $-1 $388 $389 #
straight-curve $-1 0 -25.425675097496725 3.3621928255592319 -1 0 0 I I #
edge $-1 $176 -3.3621928255592319 $272 0.17997511386987064 $172 $390 forward 7 unknown #
point $-1 48.511001922666097 -18.08878646631273 3.3621928255592319 #
point $-1 48.511001922666097 -25.425675097496725 3.3621928255592319 #
face $-1 $-1 $303 $23 $-1 $391 reversed single #
loop $-1 $-1 $299 $178 #
plane-surface $-1 -48.511001922666097 0 0 1 0 0 0 0 -1 forward_v I I I I #
coedge $-1 $306 $181 $182 $293 reversed $103 $-1 #
coedge $-1 $299 $392 $181 $291 forward $287 $-1 #
edge $-1 $393 -0.97552954179221096 $307 2.5666383976368916 $290 $394 forward 7 unknown #
coedge $-1 $183 $182 $392 $395 reversed $65 $-1 #
edge $-1 $296 -48.511001922666097 $393 48.511001922666097 $289 $396 forward 7 unknown #
coedge $-1 $302 $301 $183 $295 forward $303 $-1 #
edge $-1 $297 -48.511001922666097 $397 48.511001922666097 $294 $398 forward 7 unknown #
vertex $-1 $185 $399 #
vertex $-1 $295 $400 #
straight-curve $-1 48.511001922666097 10.878615390952364 -0.17997511386987064 0 1 0 I I #
coedge $-1 $401 $290 $186 $300 forward $287 $-1 #
edge $-1 $307 7.2101710753603658 $304 14.547059706544362 $299 $402 forward 7 unknown #
coedge $-1 $294 $187 $192 $310 forward $303 $-1 #
coedge $-1 $187 $294 $401 $403 reversed $303 $-1 #
loop $-1 $-1 $187 $286 #
vertex $-1 $403 $404 #
straight-curve $-1 0 25.425675097496725 3.3621928255592319 1 0 0 I I #
coedge $-1 $189 $289 $191 $309 reversed $103 $-1 #
vertex $-1 $300 $405 #
straight-curve $-1 0 18.08878646631273 3.3621928255592319 1 0 0 I I #
edge $-1 $194 -2.5666383976368916 $296 0.97552954179221096 $191 $406 forward 7 unknown #
edge $-1 $193 -3.3621928255592319 $297 0.17997511386987064 $192 $407 forward 7 unknown #
point $-1 48.511001922666097 25.425675097496725 3.3621928255592319 #
point $-1 48.511001922666097 18.08878646631273 3.3621928255592319 #
loop $-1 $-1 $204 $196 #
plane-surface $-1 0 0 6.2551180180041079 0 0 1 1 0 0 forward_v I I I I #
coedge $-1 $316 $199 $201 $320 reversed $111 $-1 #
coedge $-1 $199 $315 $408 $409 reversed $111 $-1 #
coedge $-1 $207 $202 $199 $318 forward $197 $-1 #
edge $-1 $321 -34.084146586199182 $410 -30.618136312983541 $317 $411 forward 7 unknown #
coedge $-1 $201 $200 $324 $412 reversed $69 $-1 #
edge $-1 $413 -5.0821386604065104 $321 0 $315 $414 forward 7 unknown #
vertex $-1 $203 $415 #
straight-curve $-1 -48.511001922666097 -1.0148785835182448 2.7891077447884638 0 -1 0 I I #
coedge $-1 $408 $204 $207 $328 forward $313 $-1 #
coedge $-1 $204 $408 $319 $412 forward $313 $-1 #
vertex $-1 $205 $416 #
straight-curve $-1 -57.339925110928235 2.3062367401165762 6.2551180180041115 -1 0 0 I I #
straight-curve $-1 -48.511001922666097 2.3062367401165762 2.7891077447884669 0.7313536940579346 0 0.68199836817093118 I I #
edge $-1 $208 -2.3062367401165762 $410 6.3657510741895553 $207 $417 forward 7 unknown #
point $-1 -48.511001922666097 2.3062367401165762 6.2551180180041079 #
point $-1 -48.511001922666097 2.3062367401165762 2.7891077447884669 #
edge $-1 $418 1 $418 0 $211 $-1 forward 7 unknown #
vertex $-1 $212 $419 #
ellipse-curve $-1 -45.72375494294031 -2.0297571670364896 3.5260683869039751 -0.68199836817093118 0 0.7313536940579346 0.7313536940579346 0 0.68199836817093118 1 I I #
point $-1 -45.92122778710668 -2.0297571670364896 5.2041112495672124 #
plane-surface $-1 48.511001922666097 0 0 -1 0 0 0 0 1 forward_v I I I I #
coedge $-1 $346 $345 $338 $420 forward $216 $-1 #
coedge $-1 $338 $218 $220 $342 reversed $126 $-1 #
coedge $-1 $218 $337 $336 $420 reversed $126 $-1 #
coedge $-1 $226 $221 $218 $340 forward $227 $-1 #
edge $-1 $343 -67.168570735794361 $421 -63.702560462578731 $339 $422 forward 7 unknown #
coedge $-1 $220 $219 $346 $423 reversed $78 $-1 #
edge $-1 $424 91.939865184925708 $343 97.022003845332193 $337 $425 forward 7 unknown #
vertex $-1 $222 $426 #
straight-curve $-1 48.511001922666097 -1.0148785835182448 2.7891077447885024 0 1 0 I I #
coedge $-1 $336 $223 $226 $350 forward $216 $-1 #
coedge $-1 $223 $336 $341 $423 forward $216 $-1 #
vertex $-1 $224 $427 #
straight-curve $-1 21.861224652334819 -6.3657510741895553 6.2551180180041115 1 0 0 I I #
straight-curve $-1 -22.446398994520735 -6.3657510741895553 68.957956043978854 -0.7313536940579346 0 0.68199836817093118 I I #
edge $-1 $228 -6.3657510741895553 $421 2.3062367401165762 $226 $428 forward 7 unknown #
point $-1 48.511001922666097 -6.3657510741895553 6.2551180180041079 #
point $-1 48.511001922666097 -6.3657510741895553 2.7891077447884811 #
edge $-1 $429 1 $429 0 $231 $-1 forward 7 unknown #
vertex $-1 $232 $430 #
ellipse-curve $-1 45.723754942940324 -2.0297571670364896 3.5260683869039857 0.68199836817093118 0 0.7313536940579346 0.7313536940579346 0 -0.68199836817093118 1 I I #
point $-1 47.383935175222568 -2.0297571670364896 3.8401145132253607 #
plane-surface $-1 48.511001922666097 0 0 -1 0 0 0 0 1 forward_v I I I I #
coedge $-1 $240 $238 $242 $362 reversed $141 $-1 #
edge $-1 $253 -6.2551180180041079 $364 6.2551180180041079 $252 $431 forward 7 unknown #
vertex $-1 $362 $432 #
straight-curve $-1 -48.511001922666097 -25.425675097496725 0 0 0 -1 I I #
edge $-1 $360 -25.425675097496725 $364 25.425675097496725 $358 $433 forward 7 unknown #
straight-curve $-1 0 -25.425675097496725 -6.2551180180041079 -1 0 0 I I #
vertex $-1 $245 $434 #
straight-curve $-1 0 25.425675097496725 -6.2551180180041079 1 0 0 I I #
point $-1 48.511001922666097 25.425675097496725 -6.2551180180041079 #
point $-1 48.511001922666097 -25.425675097496725 -6.2551180180041079 #
straight-curve $-1 -48.511001922666097 0 6.2551180180041079 0 -1 0 I I #
point $-1 -48.511001922666097 25.425675097496725 6.2551180180041079 #
point $-1 -48.511001922666097 -25.425675097496725 6.2551180180041079 #
straight-curve $-1 48.511001922666097 -25.425675097496725 0 0 0 -1 I I #
straight-curve $-1 48.511001922666097 25.425675097496725 0 0 0 -1 I I #
plane-surface $-1 48.511001922666097 0 0 -1 0 0 0 0 1 forward_v I I I I #
coedge $-1 $377 $265 $276 $386 forward $160 $-1 #
coedge $-1 $265 $377 $279 $388 reversed $160 $-1 #
straight-curve $-1 48.511001922666097 -18.08878646631273 0.79555442792234032 0 0 1 I I #
coedge $-1 $375 $374 $268 $378 forward $160 $-1 #
edge $-1 $381 7.2101710753603658 $379 14.547059706544362 $377 $435 forward 7 unknown #
vertex $-1 $270 $436 #
straight-curve $-1 0 -25.425675097496725 -0.17997511386987064 1 0 0 I I #
vertex $-1 $378 $437 #
straight-curve $-1 0 -18.08878646631273 -0.17997511386987064 1 0 0 I I #
point $-1 48.511001922666097 -25.425675097496725 -0.17997511386987064 #
point $-1 48.511001922666097 -18.08878646631273 -0.17997511386987064 #
straight-curve $-1 -48.511001922666097 -10.878615390952364 3.3621928255592319 0 1 0 I I #
edge $-1 $277 -2.5666383976368916 $381 0.97552954179221096 $374 $438 forward 7 unknown #
point $-1 -48.511001922666097 -18.08878646631273 3.3621928255592319 #
edge $-1 $281 -3.3621928255592319 $379 0.17997511386987064 $375 $439 forward 7 unknown #
point $-1 -48.511001922666097 -25.425675097496725 3.3621928255592319 #
straight-curve $-1 48.511001922666097 -25.425675097496725 0 0 0 -1 I I #
plane-surface $-1 0 25.425675097496725 0 0 -1 0 0 0 -1 forward_v I I I I #
coedge $-1 $290 $401 $292 $395 forward $287 $-1 #
vertex $-1 $395 $440 #
straight-curve $-1 -48.511001922666097 18.08878646631273 0.79555442792234032 0 0 1 I I #
edge $-1 $397 -14.547059706544362 $393 -7.2101710753603658 $392 $441 forward 7 unknown #
straight-curve $-1 0 18.08878646631273 -0.17997511386987064 -1 0 0 I I #
vertex $-1 $295 $442 #
straight-curve $-1 0 25.425675097496725 -0.17997511386987064 -1 0 0 I I #
point $-1 48.511001922666097 18.08878646631273 -0.17997511386987064 #
point $-1 48.511001922666097 25.425675097496725 -0.17997511386987064 #
coedge $-1 $392 $299 $302 $403 forward $287 $-1 #
straight-curve $-1 -48.511001922666097 10.878615390952364 3.3621928255592319 0 1 0 I I #
edge $-1 $304 -3.3621928255592319 $397 0.17997511386987064 $302 $443 forward 7 unknown #
point $-1 -48.511001922666097 25.425675097496725 3.3621928255592319 #
point $-1 -48.511001922666097 18.08878646631273 3.3621928255592319 #
straight-curve $-1 48.511001922666097 18.08878646631273 0.79555442792234032 0 0 -1 I I #
straight-curve $-1 48.511001922666097 25.425675097496725 0 0 0 -1 I I #
coedge $-1 $324 $323 $316 $409 forward $313 $-1 #
edge $-1 $410 8.828923188262138 $413 12.545764071265083 $408 $444 forward 7 unknown #
vertex $-1 $409 $445 #
straight-curve $-1 -48.511001922666097 -6.3657510741895553 36.873254330987649 0 0 1 I I #
edge $-1 $413 -5.3508724906713105 $325 3.321115323634821 $324 $446 forward 7 unknown #
vertex $-1 $412 $447 #
straight-curve $-1 -48.511001922666097 -6.3657510741895553 2.7891077447884669 -0.7313536940579346 0 -0.68199836817093118 I I #
point $-1 -48.511001922666097 -6.3657510741895553 2.7891077447884669 #
point $-1 -44.794161039663152 2.3062367401165762 6.2551180180041079 #
straight-curve $-1 -48.511001922666097 0 6.2551180180041079 0 -1 0 I I #
vertex $-1 $331 $448 #
point $-1 -44.992401248882373 -2.0297571670364896 4.2080667550749062 #
edge $-1 $421 -26.649777270331278 $424 -22.932936387328361 $336 $449 forward 7 unknown #
vertex $-1 $340 $450 #
straight-curve $-1 48.511001922666097 2.3062367401165762 69.957678480582842 0 0 1 I I #
edge $-1 $424 -3.321115323634821 $347 5.3508724906713105 $346 $451 forward 7 unknown #
vertex $-1 $423 $452 #
straight-curve $-1 -22.446398994520735 2.3062367401165762 68.957956043978854 0.7313536940579346 0 -0.68199836817093118 I I #
point $-1 48.511001922666097 2.3062367401165762 2.7891077447884811 #
point $-1 44.79416103966318 -6.3657510741895553 6.2551180180041115 #
straight-curve $-1 48.511001922666097 0 6.2551180180041079 0 1 0 I I #
vertex $-1 $353 $453 #
point $-1 46.455108636998254 -2.0297571670364896 2.8440700187330545 #
straight-curve $-1 -48.511001922666097 25.425675097496725 0 0 0 -1 I I #
point $-1 -48.511001922666097 -25.425675097496725 -6.2551180180041079 #
straight-curve $-1 -48.511001922666097 0 -6.2551180180041079 0 1 0 I I #
point $-1 -48.511001922666097 25.425675097496725 -6.2551180180041079 #
straight-curve $-1 -48.511001922666097 -10.878615390952364 -0.17997511386987064 0 -1 0 I I #
point $-1 -48.511001922666097 -25.425675097496725 -0.17997511386987064 #
point $-1 -48.511001922666097 -18.08878646631273 -0.17997511386987064 #
straight-curve $-1 -48.511001922666097 -18.08878646631273 0.79555442792234032 0 0 -1 I I #
straight-curve $-1 -48.511001922666097 -25.425675097496725 0 0 0 -1 I I #
point $-1 -48.511001922666097 18.08878646631273 -0.17997511386987064 #
straight-curve $-1 -48.511001922666097 10.878615390952364 -0.17997511386987064 0 -1 0 I I #
point $-1 -48.511001922666097 25.425675097496725 -0.17997511386987064 #
straight-curve $-1 -48.511001922666097 25.425675097496725 0 0 0 -1 I I #
straight-curve $-1 -57.339925110928235 -6.3657510741895553 6.2551180180041115 1 0 0 I I #
point $-1 -48.511001922666097 -6.3657510741895553 6.2551180180041079 #
straight-curve $-1 -44.794161039663152 -1.0148785835182448 6.2551180180041079 0 1 0 I I #
point $-1 -44.794161039663152 -6.3657510741895553 6.2551180180041079 #
point $-1 -45.041756574769373 -2.0297571670364896 2.79471469284604 #
straight-curve $-1 21.861224652334819 2.3062367401165762 6.2551180180041115 -1 0 0 I I #
point $-1 48.511001922666097 2.3062367401165762 6.2551180180041079 #
straight-curve $-1 44.794161039663173 -1.0148785835182448 6.2551180180041115 0 -1 0 I I #
point $-1 44.79416103966318 2.3062367401165762 6.2551180180041115 #
point $-1 45.041756574769387 -2.0297571670364896 2.7947146928460507 #
End-of-ACIS-data 