500 0 10 0           
7 Unknown 11 ACIS 5.0 NT 24 Thu Mar 25 15:18:13 1999 
-1 9.9999999999999995e-007 1e-010 
body $-1 $10 $-1 $11 #
body $-1 $12 $-1 $13 #
body $-1 $14 $-1 $15 #
body $-1 $16 $-1 $17 #
body $-1 $18 $-1 $19 #
body $-1 $20 $-1 $21 #
body $-1 $22 $-1 $23 #
body $-1 $24 $-1 $25 #
body $-1 $26 $-1 $27 #
body $-1 $28 $-1 $29 #
lump $-1 $-1 $30 $0 #
transform $-1 1 0 0 0 1 0 0 0 1 50.940275276955475 21.380239991497103 6.2771789541367706 1 rotate no_reflect no_shear #
lump $-1 $-1 $31 $1 #
transform $-1 1 0 0 0 1 0 0 0 1 50.940275276955475 21.380239991497103 6.2771789541367706 1 rotate no_reflect no_shear #
lump $-1 $-1 $32 $2 #
transform $-1 1 0 0 0 1 0 0 0 1 50.940275276955475 21.380239991497103 6.2771789541367706 1 rotate no_reflect no_shear #
lump $-1 $-1 $33 $3 #
transform $-1 1 0 0 0 1 0 0 0 1 50.940275276955475 21.380239991497103 6.2771789541367706 1 rotate no_reflect no_shear #
lump $-1 $-1 $34 $4 #
transform $-1 1 0 0 0 1 0 0 0 1 50.940275276955475 21.380239991497103 6.2771789541367706 1 rotate no_reflect no_shear #
lump $-1 $-1 $35 $5 #
transform $-1 1 0 0 0 1 0 0 0 1 50.940275276955475 21.380239991497103 6.2771789541367706 1 rotate no_reflect no_shear #
lump $-1 $-1 $36 $6 #
transform $-1 1 0 0 0 1 0 0 0 1 50.940275276955475 21.380239991497103 6.2771789541367706 1 rotate no_reflect no_shear #
lump $-1 $-1 $37 $7 #
transform $-1 1 0 0 0 1 0 0 0 1 50.940275276955475 21.380239991497103 6.2771789541367706 1 rotate no_reflect no_shear #
lump $-1 $-1 $38 $8 #
transform $-1 1 0 0 0 1 0 0 0 1 50.940275276955475 21.380239991497103 6.2771789541367706 1 rotate no_reflect no_shear #
lump $-1 $-1 $39 $9 #
transform $-1 1 0 0 0 1 0 0 0 1 50.940275276955475 21.380239991497103 6.2771789541367706 1 rotate no_reflect no_shear #
shell $-1 $-1 $-1 $40 $-1 $10 #
shell $-1 $-1 $-1 $41 $-1 $12 #
shell $-1 $-1 $-1 $42 $-1 $14 #
shell $-1 $-1 $-1 $43 $-1 $16 #
shell $-1 $-1 $-1 $44 $-1 $18 #
shell $-1 $-1 $-1 $45 $-1 $20 #
shell $-1 $-1 $-1 $46 $-1 $22 #
shell $-1 $-1 $-1 $47 $-1 $24 #
shell $-1 $-1 $-1 $48 $-1 $26 #
shell $-1 $-1 $-1 $49 $-1 $28 #
face $-1 $50 $51 $30 $-1 $52 forward single #
face $-1 $53 $54 $31 $-1 $55 reversed single #
face $-1 $56 $57 $32 $-1 $58 reversed single #
face $-1 $59 $60 $33 $-1 $61 forward single #
face $-1 $62 $63 $34 $-1 $64 forward single #
face $-1 $65 $66 $35 $-1 $67 reversed single #
face $-1 $68 $69 $36 $-1 $70 forward single #
face $-1 $71 $72 $37 $-1 $73 forward single #
face $-1 $74 $75 $38 $-1 $76 reversed single #
face $-1 $77 $78 $39 $-1 $79 forward single #
face $-1 $80 $81 $30 $-1 $82 reversed single #
loop $-1 $-1 $83 $40 #
plane-surface $-1 0 0 6.2771789541367706 0 0 1 1 0 0 forward_v I I I I #
face $-1 $84 $85 $31 $-1 $86 reversed single #
loop $-1 $-1 $87 $41 #
plane-surface $-1 -47.947338497131867 0 2.5622890086785528 0 0 1 1 0 0 forward_v I I I I #
face $-1 $88 $89 $32 $-1 $90 reversed single #
loop $-1 $-1 $91 $42 #
plane-surface $-1 2.9929367798236015 -98.270468377348962 67.251714319895839 -1 0 0 0 -0.75470958851134928 0.65605901945558964 forward_v I I I I #
face $-1 $92 $93 $33 $-1 $94 forward single #
loop $-1 $95 $96 $43 #
cone-surface $-1 -4.853804694250222 -17.479509017013289 2.1697820040441962 0 0.75470958851134928 -0.65605901945558964 1 0 0 1 I I 0 1 1 forward I I I I #
face $-1 $97 $98 $34 $-1 $99 forward single #
loop $-1 $100 $101 $44 #
cone-surface $-1 -0.14575980980592362 -17.479509017013289 2.1697820040441962 0 0.75470958851134928 -0.65605901945558964 1 0 0 1 I I 0 1 1 forward I I I I #
face $-1 $102 $103 $35 $-1 $104 reversed single #
loop $-1 $-1 $105 $45 #
plane-surface $-1 45.447556245103783 -21.380239991497106 0.41206022190138469 0 -0.75470958851134928 0.65605901945558964 1 0 0 forward_v I I I I #
face $-1 $106 $107 $36 $-1 $108 forward single #
loop $-1 $109 $110 $46 #
cone-surface $-1 43.093533802881637 -17.479509017013289 2.1697820040441962 0 0.75470958851134928 -0.65605901945558964 1 0 0 1 I I 0 1 1 forward I I I I #
face $-1 $111 $112 $37 $-1 $113 forward single #
loop $-1 $114 $115 $47 #
cone-surface $-1 47.801578687325943 -17.479509017013289 2.1697820040441962 0 0.75470958851134928 -0.65605901945558964 1 0 0 1 I I 0 1 1 forward I I I I #
face $-1 $116 $117 $38 $-1 $118 reversed single #
loop $-1 $-1 $119 $48 #
plane-surface $-1 43.0726506882678 -12.769797504090327 26.077649815258866 0 0.6018150307709319 0.79863550430605224 1 0 0 forward_v I I I I #
face $-1 $120 $121 $39 $-1 $122 forward single #
loop $-1 $123 $124 $49 #
cone-surface $-1 43.0726506882678 15.925818735806688 1.2967293138375022 0 -0.6018150307709319 -0.79863550430605224 2 0 0 1 I I 0 1 2 forward I I I I #
face $-1 $125 $126 $30 $-1 $127 reversed single #
loop $-1 $-1 $128 $50 #
plane-surface $-1 0 0 -6.2771789541367706 0 0 1 1 0 0 forward_v I I I I #
coedge $-1 $129 $130 $131 $132 forward $51 $-1 #
face $-1 $133 $134 $31 $-1 $135 reversed single #
loop $-1 $-1 $136 $53 #
plane-surface $-1 -44.954401717308258 0 4.4197339814076617 -1 0 0 0 0 1 forward_v I I I I #
coedge $-1 $137 $138 $139 $140 forward $54 $-1 #
face $-1 $141 $142 $32 $-1 $143 reversed single #
loop $-1 $-1 $144 $56 #
plane-surface $-1 -2.4997822520280764 -21.380239991497106 0.41206022190138469 0 -0.75470958851134928 0.65605901945558964 1 0 0 forward_v I I I I #
coedge $-1 $145 $146 $147 $148 reversed $57 $-1 #
face $-1 $-1 $149 $33 $-1 $150 forward single #
loop $-1 $151 $152 $59 #
cone-surface $-1 -4.853804694250222 -15.750658148052128 0.66691491034150729 0 0.75470958851134928 -0.65605901945558964 0.5 0 0 1 I I -0.70710678118654768 0.70710678118654735 0.5 forward I I I I #
loop $-1 $-1 $153 $43 #
coedge $-1 $96 $96 $154 $155 reversed $60 $-1 #
face $-1 $-1 $156 $34 $-1 $157 forward single #
loop $-1 $158 $159 $62 #
cone-surface $-1 -0.14575980980592362 -15.750658148052128 0.66691491034150729 0 0.75470958851134928 -0.65605901945558964 0.5 0 0 1 I I -0.70710678118654768 0.70710678118654735 0.5 forward I I I I #
loop $-1 $-1 $160 $44 #
coedge $-1 $101 $101 $161 $162 reversed $63 $-1 #
face $-1 $163 $164 $35 $-1 $165 reversed single #
loop $-1 $-1 $166 $65 #
plane-surface $-1 39.954837213252105 -98.270468377348962 67.251714319895839 1 0 0 0 0.75470958851134928 -0.65605901945558964 forward_v I I I I #
coedge $-1 $167 $168 $169 $170 reversed $66 $-1 #
face $-1 $-1 $171 $36 $-1 $172 forward single #
loop $-1 $173 $174 $68 #
cone-surface $-1 43.093533802881637 -15.750658148052128 0.66691491034150729 0 0.75470958851134928 -0.65605901945558964 0.5 0 0 1 I I -0.70710678118654768 0.70710678118654735 0.5 forward I I I I #
loop $-1 $-1 $175 $46 #
coedge $-1 $110 $110 $176 $177 reversed $69 $-1 #
face $-1 $-1 $178 $37 $-1 $179 forward single #
loop $-1 $180 $181 $71 #
cone-surface $-1 47.801578687325943 -15.750658148052128 0.66691491034150729 0 0.75470958851134928 -0.65605901945558964 0.5 0 0 1 I I -0.70710678118654768 0.70710678118654735 0.5 forward I I I I #
loop $-1 $-1 $182 $47 #
coedge $-1 $115 $115 $183 $184 reversed $72 $-1 #
face $-1 $185 $186 $38 $-1 $187 reversed single #
loop $-1 $-1 $188 $74 #
plane-surface $-1 35.205026099580131 48.543449162471077 107.44307468585978 1 0 0 0 -0.6018150307709319 -0.79863550430605224 forward_v I I I I #
coedge $-1 $189 $190 $191 $192 reversed $75 $-1 #
face $-1 $-1 $193 $39 $-1 $194 forward single #
loop $-1 $195 $196 $77 #
cone-surface $-1 43.0726506882678 13.806545296962842 -1.5156414729561245 0 -0.6018150307709319 -0.79863550430605224 1 0 0 1 I I -0.70710678118654746 0.70710678118654746 1 forward I I I I #
loop $-1 $-1 $197 $49 #
coedge $-1 $124 $124 $198 $199 reversed $78 $-1 #
face $-1 $200 $201 $30 $-1 $202 reversed single #
loop $-1 $-1 $203 $80 #
plane-surface $-1 0 -21.380239991497103 0 0 1 0 0 0 1 forward_v I I I I #
coedge $-1 $204 $205 $206 $207 forward $81 $-1 #
coedge $-1 $208 $83 $209 $210 forward $51 $-1 #
coedge $-1 $83 $208 $211 $212 forward $51 $-1 #
coedge $-1 $213 $214 $83 $132 reversed $215 $-1 #
edge $-1 $216 -21.380239991497103 $217 21.380239991497103 $131 $218 forward 7 unknown #
face $-1 $219 $220 $31 $-1 $221 reversed single #
loop $-1 $-1 $222 $84 #
plane-surface $-1 0 21.380239991497103 0 0 -1 0 0 0 -1 forward_v I I I I #
coedge $-1 $139 $223 $224 $225 reversed $85 $-1 #
coedge $-1 $226 $87 $227 $228 reversed $54 $-1 #
coedge $-1 $87 $226 $229 $230 reversed $54 $-1 #
coedge $-1 $231 $136 $87 $140 reversed $85 $-1 #
edge $-1 $232 -21.380239991497103 $233 21.380239991497103 $139 $234 forward 7 unknown #
face $-1 $235 $236 $32 $-1 $237 reversed single #
loop $-1 $-1 $238 $88 #
plane-surface $-1 -7.9925012838797542 -98.270468377348962 67.251714319895839 1 0 0 0 0.75470958851134928 -0.65605901945558964 forward_v I I I I #
coedge $-1 $239 $240 $241 $242 reversed $89 $-1 #
coedge $-1 $146 $91 $243 $244 reversed $57 $-1 #
coedge $-1 $91 $145 $239 $245 reversed $57 $-1 #
coedge $-1 $241 $246 $91 $148 forward $247 $-1 #
edge $-1 $248 27.754994197177378 $249 32.85346399673405 $147 $250 forward 7 unknown #
loop $-1 $-1 $154 $92 #
plane-surface $-1 -2.4997822520280764 -21.380239991497106 0.41206022190138469 0 -0.75470958851134928 0.65605901945558964 1 0 0 forward_v I I I I #
loop $-1 $-1 $251 $59 #
coedge $-1 $152 $152 $153 $252 reversed $93 $-1 #
coedge $-1 $153 $153 $152 $252 forward $95 $-1 #
coedge $-1 $154 $154 $96 $155 forward $149 $-1 #
edge $-1 $253 -6.2436024582380282e-016 $253 6.2831853071795996 $154 $254 forward 7 unknown #
loop $-1 $-1 $161 $97 #
plane-surface $-1 -2.4997822520280764 -21.380239991497106 0.41206022190138469 0 -0.75470958851134928 0.65605901945558964 1 0 0 forward_v I I I I #
loop $-1 $-1 $255 $62 #
coedge $-1 $159 $159 $160 $256 reversed $98 $-1 #
coedge $-1 $160 $160 $159 $256 forward $100 $-1 #
coedge $-1 $161 $161 $101 $162 forward $156 $-1 #
edge $-1 $257 -6.2436024582380282e-016 $257 6.2831853071795996 $161 $258 forward 7 unknown #
face $-1 $259 $260 $35 $-1 $261 reversed single #
loop $-1 $-1 $262 $102 #
plane-surface $-1 0 -21.380239991497103 0 0 1 0 0 0 1 forward_v I I I I #
coedge $-1 $263 $264 $265 $266 reversed $103 $-1 #
coedge $-1 $267 $105 $268 $269 reversed $66 $-1 #
coedge $-1 $105 $267 $263 $270 forward $66 $-1 #
coedge $-1 $265 $271 $105 $170 forward $272 $-1 #
edge $-1 $273 -28.216497154403569 $274 -17.231059090700214 $169 $275 forward 7 unknown #
loop $-1 $-1 $176 $106 #
plane-surface $-1 45.447556245103783 -21.380239991497106 0.41206022190138469 0 -0.75470958851134928 0.65605901945558964 1 0 0 forward_v I I I I #
loop $-1 $-1 $276 $68 #
coedge $-1 $174 $174 $175 $277 reversed $107 $-1 #
coedge $-1 $175 $175 $174 $277 forward $109 $-1 #
coedge $-1 $176 $176 $110 $177 forward $171 $-1 #
edge $-1 $278 -6.2436024582380282e-016 $278 6.2831853071795996 $176 $279 forward 7 unknown #
loop $-1 $-1 $183 $111 #
plane-surface $-1 45.447556245103783 -21.380239991497106 0.41206022190138469 0 -0.75470958851134928 0.65605901945558964 1 0 0 forward_v I I I I #
loop $-1 $-1 $280 $71 #
coedge $-1 $181 $181 $182 $281 reversed $112 $-1 #
coedge $-1 $182 $182 $181 $281 forward $114 $-1 #
coedge $-1 $183 $183 $115 $184 forward $178 $-1 #
edge $-1 $282 -6.2436024582380282e-016 $282 6.2831853071795996 $183 $283 forward 7 unknown #
face $-1 $284 $285 $38 $-1 $286 forward single #
loop $-1 $-1 $191 $116 #
plane-surface $-1 0 21.380239991497103 0 0 -1 0 0 0 -1 forward_v I I I I #
coedge $-1 $287 $288 $289 $290 reversed $117 $-1 #
coedge $-1 $291 $119 $292 $293 reversed $75 $-1 #
coedge $-1 $119 $291 $287 $294 forward $75 $-1 #
coedge $-1 $289 $295 $119 $192 forward $186 $-1 #
edge $-1 $296 -29.403949932821575 $297 -13.668700755446231 $191 $298 forward 7 unknown #
loop $-1 $-1 $198 $120 #
plane-surface $-1 43.0726506882678 -12.769797504090327 26.077649815258866 0 0.6018150307709319 0.79863550430605224 1 0 0 forward_v I I I I #
loop $-1 $-1 $299 $77 #
coedge $-1 $196 $196 $197 $300 reversed $121 $-1 #
coedge $-1 $197 $197 $196 $300 forward $123 $-1 #
coedge $-1 $198 $198 $124 $199 forward $193 $-1 #
edge $-1 $301 0 $301 6.2831853071796004 $198 $302 forward 7 unknown #
face $-1 $303 $304 $30 $-1 $305 reversed single #
loop $-1 $-1 $306 $125 #
plane-surface $-1 -50.940275276955475 0 0 1 0 0 0 0 -1 forward_v I I I I #
coedge $-1 $307 $211 $308 $309 forward $126 $-1 #
coedge $-1 $310 $128 $307 $311 forward $81 $-1 #
coedge $-1 $128 $310 $312 $313 forward $81 $-1 #
coedge $-1 $214 $213 $128 $207 reversed $215 $-1 #
edge $-1 $314 -21.380239991497103 $315 21.380239991497103 $206 $316 forward 7 unknown #
coedge $-1 $130 $129 $317 $318 forward $51 $-1 #
coedge $-1 $319 $320 $129 $210 reversed $304 $-1 #
edge $-1 $217 -50.940275276955475 $321 50.940275276955475 $209 $322 forward 7 unknown #
coedge $-1 $203 $323 $130 $212 reversed $126 $-1 #
edge $-1 $324 -50.940275276955475 $216 50.940275276955475 $211 $325 forward 7 unknown #
coedge $-1 $206 $131 $323 $326 forward $215 $-1 #
coedge $-1 $131 $206 $319 $327 reversed $215 $-1 #
loop $-1 $-1 $213 $303 #
vertex $-1 $132 $328 #
vertex $-1 $132 $329 #
straight-curve $-1 50.940275276955475 0 6.2771789541367706 0 1 0 I I #
face $-1 $330 $331 $31 $-1 $332 forward single #
loop $-1 $-1 $333 $133 #
plane-surface $-1 -50.940275276955475 0 0 1 0 0 0 0 -1 forward_v I I I I #
coedge $-1 $229 $334 $231 $335 forward $134 $-1 #
coedge $-1 $136 $231 $336 $337 reversed $85 $-1 #
coedge $-1 $338 $227 $136 $225 forward $339 $-1 #
edge $-1 $233 0.35242201797472195 $340 4.0673119634329398 $224 $341 forward 7 unknown #
coedge $-1 $138 $137 $333 $342 reversed $54 $-1 #
coedge $-1 $224 $343 $137 $228 forward $339 $-1 #
edge $-1 $344 -26.966606028389542 $233 -20.980732468742325 $227 $345 forward 7 unknown #
coedge $-1 $346 $222 $138 $230 forward $134 $-1 #
edge $-1 $232 20.980732468742325 $347 26.966606028389542 $229 $348 forward 7 unknown #
coedge $-1 $223 $139 $222 $335 reversed $85 $-1 #
vertex $-1 $230 $349 #
vertex $-1 $228 $350 #
straight-curve $-1 -44.954401717308258 0 2.5622890086785528 0 -1 0 I I #
face $-1 $-1 $247 $32 $-1 $351 forward single #
loop $-1 $-1 $352 $141 #
plane-surface $-1 0 -21.380239991497103 0 0 1 0 0 0 1 forward_v I I I I #
coedge $-1 $353 $354 $355 $356 reversed $142 $-1 #
coedge $-1 $357 $144 $146 $245 forward $89 $-1 #
coedge $-1 $144 $357 $353 $358 forward $89 $-1 #
coedge $-1 $355 $147 $144 $242 forward $247 $-1 #
edge $-1 $249 -4.2428279058376397 $359 6.742610157865716 $241 $360 forward 7 unknown #
coedge $-1 $361 $362 $145 $244 forward $236 $-1 #
edge $-1 $363 -33.213796938046528 $248 -27.348678205811147 $243 $364 forward 7 unknown #
edge $-1 $249 -7.7713584423966653 $363 -5.4310049121818252e-015 $146 $365 forward 7 unknown #
coedge $-1 $147 $355 $361 $366 forward $247 $-1 #
loop $-1 $-1 $355 $235 #
vertex $-1 $244 $367 #
vertex $-1 $148 $368 #
straight-curve $-1 2.9929367798236015 -49.135234188674481 6.2771789541367724 0 1 0 I I #
coedge $-1 $251 $251 $-1 $369 reversed $151 $-1 #
edge $-1 $370 0 $370 6.2831853071796004 $152 $371 forward 7 unknown #
vertex $-1 $155 $372 #
ellipse-curve $-1 -4.853804694250222 -18.831005091718765 3.3446195880190821 0 -0.75470958851134928 0.65605901945558964 1 0 0 1 I I #
coedge $-1 $255 $255 $-1 $373 reversed $158 $-1 #
edge $-1 $374 0 $374 6.2831853071796004 $159 $375 forward 7 unknown #
vertex $-1 $162 $376 #
ellipse-curve $-1 -0.14575980980592362 -18.831005091718765 3.3446195880190821 0 -0.75470958851134928 0.65605901945558964 1 0 0 1 I I #
face $-1 $-1 $272 $35 $-1 $377 forward single #
loop $-1 $-1 $268 $163 #
plane-surface $-1 50.940275276955475 0 0 -1 0 0 0 0 1 forward_v I I I I #
coedge $-1 $378 $379 $264 $380 forward $164 $-1 #
coedge $-1 $264 $166 $168 $270 reversed $103 $-1 #
coedge $-1 $166 $263 $262 $380 reversed $103 $-1 #
coedge $-1 $381 $169 $166 $266 forward $272 $-1 #
edge $-1 $274 -32.85346399673405 $382 -27.754994197177378 $265 $383 forward 7 unknown #
coedge $-1 $168 $167 $378 $384 reversed $66 $-1 #
coedge $-1 $385 $386 $167 $269 forward $260 $-1 #
edge $-1 $387 -6.8578567420168408 $273 0.91350170037981882 $268 $388 forward 7 unknown #
edge $-1 $389 5.4310049121818252e-015 $274 7.7713584423966653 $263 $390 forward 7 unknown #
coedge $-1 $169 $381 $385 $391 forward $272 $-1 #
loop $-1 $-1 $265 $259 #
vertex $-1 $269 $392 #
vertex $-1 $170 $393 #
straight-curve $-1 22.723778122551892 -16.281770191940431 6.2771789541367706 -1 0 0 I I #
coedge $-1 $276 $276 $-1 $394 reversed $173 $-1 #
edge $-1 $395 0 $395 6.2831853071796004 $174 $396 forward 7 unknown #
vertex $-1 $177 $397 #
ellipse-curve $-1 43.093533802881637 -18.831005091718765 3.3446195880190821 0 -0.75470958851134928 0.65605901945558964 1 0 0 1 I I #
coedge $-1 $280 $280 $-1 $398 reversed $180 $-1 #
edge $-1 $399 0 $399 6.2831853071796004 $181 $400 forward 7 unknown #
vertex $-1 $184 $401 #
ellipse-curve $-1 47.801578687325943 -18.831005091718765 3.3446195880190821 0 -0.75470958851134928 0.65605901945558964 1 0 0 1 I I #
face $-1 $-1 $402 $38 $-1 $403 reversed single #
loop $-1 $-1 $404 $185 #
plane-surface $-1 0 0 6.2771789541367706 0 0 1 1 0 0 forward_v I I I I #
coedge $-1 $288 $188 $190 $294 reversed $117 $-1 #
coedge $-1 $188 $287 $404 $405 reversed $117 $-1 #
coedge $-1 $406 $191 $188 $290 forward $186 $-1 #
edge $-1 $297 -53.377787104416498 $407 -47.44435838879312 $289 $408 forward 7 unknown #
coedge $-1 $190 $189 $409 $410 reversed $75 $-1 #
coedge $-1 $411 $412 $189 $293 forward $402 $-1 #
edge $-1 $413 19.955089131657324 $296 29.814312335209735 $292 $414 forward 7 unknown #
edge $-1 $415 32.901256779441795 $297 42.760479982994205 $287 $416 forward 7 unknown #
coedge $-1 $191 $406 $411 $417 forward $186 $-1 #
vertex $-1 $293 $418 #
vertex $-1 $192 $419 #
straight-curve $-1 21.5363253441339 21.380239991497106 0.34375023851339037 -1 0 0 I I #
coedge $-1 $299 $299 $-1 $420 reversed $195 $-1 #
edge $-1 $421 0 $421 6.2831853071796004 $196 $422 forward 7 unknown #
vertex $-1 $199 $423 #
ellipse-curve $-1 43.0726506882678 17.443277143879602 3.3104645963250761 0 0.6018150307709319 0.79863550430605224 2 0 0 1 I I #
face $-1 $-1 $215 $30 $-1 $424 reversed single #
loop $-1 $-1 $319 $200 #
plane-surface $-1 0 21.380239991497103 0 0 -1 0 0 0 -1 forward_v I I I I #
coedge $-1 $425 $317 $320 $426 forward $201 $-1 #
coedge $-1 $323 $203 $204 $311 reversed $126 $-1 #
coedge $-1 $317 $425 $203 $309 reversed $201 $-1 #
edge $-1 $324 -6.2771789541367706 $427 6.2771789541367706 $308 $428 forward 7 unknown #
coedge $-1 $205 $204 $425 $429 forward $81 $-1 #
edge $-1 $315 -50.940275276955475 $427 50.940275276955475 $307 $430 forward 7 unknown #
coedge $-1 $320 $319 $205 $313 reversed $304 $-1 #
edge $-1 $431 -50.940275276955475 $314 50.940275276955475 $312 $432 forward 7 unknown #
vertex $-1 $207 $433 #
vertex $-1 $326 $434 #
straight-curve $-1 50.940275276955475 0 -6.2771789541367706 0 -1 0 I I #
coedge $-1 $306 $308 $208 $318 reversed $201 $-1 #
edge $-1 $321 -21.380239991497103 $324 21.380239991497103 $317 $435 forward 7 unknown #
coedge $-1 $312 $209 $214 $327 forward $304 $-1 #
coedge $-1 $209 $312 $306 $426 reversed $304 $-1 #
vertex $-1 $210 $436 #
straight-curve $-1 0 21.380239991497103 6.2771789541367706 -1 0 0 I I #
coedge $-1 $211 $307 $213 $326 reversed $126 $-1 #
vertex $-1 $318 $437 #
straight-curve $-1 0 -21.380239991497103 6.2771789541367706 1 0 0 I I #
edge $-1 $216 -6.2771789541367706 $315 6.2771789541367706 $213 $438 forward 7 unknown #
edge $-1 $217 -6.2771789541367706 $314 6.2771789541367706 $214 $439 forward 7 unknown #
point $-1 50.940275276955475 -21.380239991497103 6.2771789541367706 #
point $-1 50.940275276955475 21.380239991497103 6.2771789541367706 #
face $-1 $-1 $339 $31 $-1 $440 reversed single #
loop $-1 $-1 $336 $219 #
plane-surface $-1 0 0 6.2771789541367706 0 0 1 1 0 0 forward_v I I I I #
coedge $-1 $441 $442 $226 $342 forward $220 $-1 #
coedge $-1 $222 $346 $443 $444 reversed $134 $-1 #
edge $-1 $445 -4.0673119634329398 $232 -0.35242201797472195 $222 $446 forward 7 unknown #
coedge $-1 $443 $447 $223 $337 forward $331 $-1 #
edge $-1 $340 -21.380239991497103 $445 21.380239991497103 $336 $448 forward 7 unknown #
coedge $-1 $343 $224 $447 $449 reversed $339 $-1 #
loop $-1 $-1 $224 $330 #
vertex $-1 $225 $450 #
straight-curve $-1 -44.954401717308258 -21.380239991497103 2.2098669907038309 0 0 1 I I #
edge $-1 $347 -21.380239991497103 $344 21.380239991497103 $333 $451 forward 7 unknown #
coedge $-1 $227 $338 $441 $452 forward $339 $-1 #
vertex $-1 $342 $453 #
straight-curve $-1 -23.973669248565933 -21.380239991497103 2.5622890086785528 1 0 0 I I #
coedge $-1 $334 $229 $442 $454 reversed $134 $-1 #
vertex $-1 $342 $455 #
straight-curve $-1 -23.973669248565933 21.380239991497103 2.5622890086785528 -1 0 0 I I #
point $-1 -44.954401717308258 21.380239991497103 2.5622890086785528 #
point $-1 -44.954401717308258 -21.380239991497103 2.5622890086785528 #
plane-surface $-1 0 0 6.2771789541367706 0 0 1 1 0 0 forward_v I I I I #
coedge $-1 $362 $361 $354 $456 forward $236 $-1 #
coedge $-1 $354 $238 $240 $358 reversed $142 $-1 #
coedge $-1 $238 $353 $352 $456 reversed $142 $-1 #
coedge $-1 $246 $241 $238 $356 forward $247 $-1 #
edge $-1 $359 -32.85346399673405 $457 -27.754994197177378 $355 $458 forward 7 unknown #
coedge $-1 $240 $239 $362 $459 reversed $89 $-1 #
edge $-1 $460 5.4310049121818252e-015 $359 7.7713584423966653 $353 $461 forward 7 unknown #
vertex $-1 $242 $462 #
straight-curve $-1 -1.2498911260140382 -16.281770191940431 6.2771789541367706 -1 0 0 I I #
coedge $-1 $352 $243 $246 $366 reversed $236 $-1 #
coedge $-1 $243 $352 $357 $459 forward $236 $-1 #
vertex $-1 $244 $463 #
straight-curve $-1 2.9929367798236015 -21.380239991497106 33.62585715994792 0 0 1 I I #
straight-curve $-1 2.9929367798236015 -21.380239991497106 0.41206022190138469 0 -0.65605901945558964 -0.75470958851134928 I I #
edge $-1 $457 -7.9925012838797542 $248 2.9929367798236015 $361 $464 forward 7 unknown #
point $-1 2.9929367798236015 -21.380239991497103 6.2771789541367706 #
point $-1 2.9929367798236015 -16.281770191940431 6.2771789541367706 #
edge $-1 $465 1 $465 0 $251 $-1 forward 7 unknown #
vertex $-1 $252 $466 #
ellipse-curve $-1 -4.853804694250222 -16.128012942307802 0.99494442006930195 0 -0.75470958851134928 0.65605901945558964 1 0 0 1 I I #
point $-1 -3.853804694250222 -18.831005091718776 3.3446195880190905 #
edge $-1 $467 1 $467 0 $255 $-1 forward 7 unknown #
vertex $-1 $256 $468 #
ellipse-curve $-1 -0.14575980980592362 -16.128012942307802 0.99494442006930195 0 -0.75470958851134928 0.65605901945558964 1 0 0 1 I I #
point $-1 0.85424019019407638 -18.831005091718776 3.3446195880190905 #
plane-surface $-1 0 0 6.2771789541367706 0 0 1 1 0 0 forward_v I I I I #
coedge $-1 $469 $262 $267 $384 forward $164 $-1 #
coedge $-1 $262 $469 $381 $470 reversed $164 $-1 #
edge $-1 $382 27.348678205811147 $389 33.213796938046528 $262 $471 forward 7 unknown #
coedge $-1 $271 $265 $379 $470 forward $272 $-1 #
vertex $-1 $470 $472 #
straight-curve $-1 39.954837213252105 -49.135234188674481 6.2771789541367724 0 -1 0 I I #
edge $-1 $389 17.231059090700214 $387 28.216497154403569 $378 $473 forward 7 unknown #
coedge $-1 $386 $268 $271 $391 reversed $260 $-1 #
coedge $-1 $268 $385 $469 $474 forward $260 $-1 #
vertex $-1 $269 $475 #
straight-curve $-1 50.940275276955475 -16.881081221762628 5.5877504617386986 0 0.65605901945558975 0.75470958851134939 I I #
vertex $-1 $384 $476 #
straight-curve $-1 39.954837213252105 -21.380239991497106 0.41206022190138469 0 0.65605901945558964 0.75470958851134928 I I #
edge $-1 $477 -21.380239991497103 $273 -16.281770191940431 $385 $478 forward 7 unknown #
point $-1 50.940275276955461 -16.281770191940431 6.2771789541367706 #
point $-1 39.954837213252105 -16.281770191940431 6.2771789541367706 #
edge $-1 $479 1 $479 0 $276 $-1 forward 7 unknown #
vertex $-1 $277 $480 #
ellipse-curve $-1 43.093533802881637 -16.128012942307802 0.99494442006930195 0 -0.75470958851134928 0.65605901945558964 1 0 0 1 I I #
point $-1 44.093533802881637 -18.831005091718776 3.3446195880190905 #
edge $-1 $481 1 $481 0 $280 $-1 forward 7 unknown #
vertex $-1 $281 $482 #
ellipse-curve $-1 47.801578687325943 -16.128012942307802 0.99494442006930195 0 -0.75470958851134928 0.65605901945558964 1 0 0 1 I I #
point $-1 48.801578687325943 -18.831005091718776 3.3446195880190905 #
loop $-1 $-1 $292 $284 #
plane-surface $-1 50.940275276955475 0 0 -1 0 0 0 0 1 forward_v I I I I #
coedge $-1 $409 $483 $288 $405 forward $285 $-1 #
edge $-1 $407 2.891484589738436 $415 10.765410284973449 $404 $484 forward 7 unknown #
coedge $-1 $295 $289 $483 $485 reversed $186 $-1 #
vertex $-1 $290 $486 #
straight-curve $-1 35.205026099580131 21.380239991497103 53.721537342929892 0 0 1 I I #
coedge $-1 $487 $404 $291 $410 forward $285 $-1 #
edge $-1 $415 13.668700755446231 $413 29.403949932821568 $409 $488 forward 7 unknown #
coedge $-1 $412 $292 $295 $417 reversed $402 $-1 #
coedge $-1 $292 $411 $487 $489 reversed $402 $-1 #
vertex $-1 $489 $490 #
straight-curve $-1 50.940275276955475 -2.4305283758712775 18.286451533941811 0 0.79863550430605224 -0.6018150307709319 I I #
vertex $-1 $410 $491 #
straight-curve $-1 35.205026099580131 -12.769797504090327 26.077649815258866 0 0.79863550430605224 -0.6018150307709319 I I #
edge $-1 $492 -6.2771789541367706 $296 -0.34375023851339037 $411 $493 forward 7 unknown #
point $-1 50.940275276955475 21.380239991497103 0.34375023851339037 #
point $-1 35.205026099580131 21.380239991497099 0.34375023851339037 #
edge $-1 $494 1 $494 0 $299 $-1 forward 7 unknown #
vertex $-1 $300 $495 #
ellipse-curve $-1 43.0726506882678 14.408360327733774 -0.71700596865007227 0 0.6018150307709319 0.79863550430605224 2 0 0 1 I I #
point $-1 45.0726506882678 17.443277143879602 3.3104645963250761 #
plane-surface $-1 50.940275276955475 0 0 -1 0 0 0 0 1 forward_v I I I I #
coedge $-1 $308 $306 $310 $429 reversed $201 $-1 #
edge $-1 $321 -6.2771789541367706 $431 6.2771789541367706 $320 $496 forward 7 unknown #
vertex $-1 $429 $497 #
straight-curve $-1 -50.940275276955475 -21.380239991497103 0 0 0 -1 I I #
edge $-1 $427 -21.380239991497103 $431 21.380239991497103 $425 $498 forward 7 unknown #
straight-curve $-1 0 -21.380239991497103 -6.2771789541367706 -1 0 0 I I #
vertex $-1 $313 $499 #
straight-curve $-1 0 21.380239991497103 -6.2771789541367706 1 0 0 I I #
point $-1 50.940275276955475 21.380239991497103 -6.2771789541367706 #
point $-1 50.940275276955475 -21.380239991497103 -6.2771789541367706 #
straight-curve $-1 -50.940275276955475 0 6.2771789541367706 0 -1 0 I I #
point $-1 -50.940275276955475 21.380239991497103 6.2771789541367706 #
point $-1 -50.940275276955475 -21.380239991497103 6.2771789541367706 #
straight-curve $-1 50.940275276955475 -21.380239991497103 0 0 0 -1 I I #
straight-curve $-1 50.940275276955475 21.380239991497103 0 0 0 -1 I I #
plane-surface $-1 0 -21.380239991497103 0 0 1 0 0 0 1 forward_v I I I I #
coedge $-1 $500 $333 $343 $452 reversed $220 $-1 #
coedge $-1 $333 $500 $346 $454 forward $220 $-1 #
coedge $-1 $501 $336 $334 $444 forward $331 $-1 #
edge $-1 $445 44.954401717308258 $502 50.940275276955475 $334 $503 forward 7 unknown #
vertex $-1 $444 $504 #
straight-curve $-1 -44.954401717308258 21.380239991497103 2.2098669907038309 0 0 -1 I I #
coedge $-1 $336 $501 $338 $449 forward $331 $-1 #
straight-curve $-1 -44.954401717308258 0 6.2771789541367706 0 1 0 I I #
edge $-1 $505 -50.940275276955475 $340 -44.954401717308258 $338 $506 forward 7 unknown #
point $-1 -44.954401717308258 -21.380239991497103 6.2771789541367706 #
straight-curve $-1 -50.940275276955475 0 2.5622890086785528 0 -1 0 I I #
edge $-1 $505 -6.2771789541367706 $344 -2.5622890086785528 $441 $507 forward 7 unknown #
point $-1 -50.940275276955475 -21.380239991497103 2.5622890086785528 #
edge $-1 $502 -6.2771789541367706 $347 -2.5622890086785528 $346 $508 forward 7 unknown #
point $-1 -50.940275276955475 21.380239991497103 2.5622890086785528 #
edge $-1 $457 27.348678205811147 $460 33.213796938046528 $352 $509 forward 7 unknown #
vertex $-1 $366 $510 #
straight-curve $-1 -7.9925012838797542 -49.135234188674481 6.2771789541367724 0 -1 0 I I #
edge $-1 $460 -6.742610157865716 $363 4.2428279058376397 $362 $511 forward 7 unknown #
vertex $-1 $459 $512 #
straight-curve $-1 -7.9925012838797542 -21.380239991497106 0.41206022190138469 0 0.65605901945558964 0.75470958851134928 I I #
point $-1 -7.9925012838797542 -16.281770191940431 6.2771789541367706 #
point $-1 2.9929367798236015 -21.380239991497103 0.4120602219013888 #
straight-curve $-1 0 -21.380239991497103 6.2771789541367706 1 0 0 I I #
vertex $-1 $369 $513 #
point $-1 -3.853804694250222 -16.128012942307802 0.99494442006930195 #
vertex $-1 $373 $514 #
point $-1 0.85424019019407638 -16.128012942307802 0.99494442006930195 #
coedge $-1 $379 $378 $386 $474 reversed $164 $-1 #
edge $-1 $382 39.954837213252105 $477 50.940275276955475 $379 $515 forward 7 unknown #
straight-curve $-1 39.954837213252105 -21.380239991497106 33.62585715994792 0 0 -1 I I #
point $-1 39.954837213252105 -21.380239991497103 6.2771789541367706 #
straight-curve $-1 22.723778122551892 -21.380239991497103 0.41206022190139191 1 0 0 I I #
edge $-1 $477 -6.2771789541367706 $387 -0.4120602219013888 $386 $516 forward 7 unknown #
point $-1 50.940275276955461 -21.380239991497103 0.4120602219013888 #
point $-1 39.954837213252105 -21.380239991497103 0.4120602219013888 #
vertex $-1 $391 $517 #
straight-curve $-1 50.940275276955475 0 6.2771789541367706 0 1 0 I I #
vertex $-1 $394 $518 #
point $-1 44.093533802881637 -16.128012942307802 0.99494442006930195 #
vertex $-1 $398 $519 #
point $-1 48.801578687325943 -16.128012942307802 0.99494442006930195 #
coedge $-1 $404 $487 $406 $485 forward $285 $-1 #
straight-curve $-1 35.205026099580131 24.271724581235539 6.2771789541367724 0 -1 0 I I #
edge $-1 $492 -50.940275276955475 $407 -35.205026099580131 $406 $520 forward 7 unknown #
point $-1 35.205026099580131 21.380239991497103 6.2771789541367706 #
coedge $-1 $483 $409 $412 $489 forward $285 $-1 #
straight-curve $-1 21.5363253441339 13.50631429626209 6.2771789541367689 1 0 0 I I #
edge $-1 $413 13.50631429626209 $492 21.380239991497103 $412 $521 forward 7 unknown #
point $-1 50.940275276955468 13.50631429626209 6.2771789541367689 #
point $-1 35.205026099580131 13.50631429626209 6.2771789541367689 #
vertex $-1 $489 $522 #
straight-curve $-1 50.940275276955475 21.380239991497103 0 0 0 -1 I I #
vertex $-1 $420 $523 #
point $-1 45.0726506882678 14.408360327733774 -0.71700596865007227 #
straight-curve $-1 -50.940275276955475 21.380239991497103 0 0 0 -1 I I #
point $-1 -50.940275276955475 -21.380239991497103 -6.2771789541367706 #
straight-curve $-1 -50.940275276955475 0 -6.2771789541367706 0 1 0 I I #
point $-1 -50.940275276955475 21.380239991497103 -6.2771789541367706 #
coedge $-1 $442 $441 $501 $524 reversed $220 $-1 #
coedge $-1 $447 $443 $500 $524 forward $331 $-1 #
vertex $-1 $444 $525 #
straight-curve $-1 0 21.380239991497103 6.2771789541367706 -1 0 0 I I #
point $-1 -44.954401717308258 21.380239991497103 6.2771789541367706 #
vertex $-1 $524 $526 #
straight-curve $-1 0 -21.380239991497103 6.2771789541367706 1 0 0 I I #
straight-curve $-1 -50.940275276955475 -21.380239991497103 0 0 0 -1 I I #
straight-curve $-1 -50.940275276955475 21.380239991497103 0 0 0 -1 I I #
straight-curve $-1 -7.9925012838797542 -21.380239991497106 33.62585715994792 0 0 -1 I I #
point $-1 -7.9925012838797542 -21.380239991497103 6.2771789541367706 #
straight-curve $-1 -1.2498911260140382 -21.380239991497103 0.41206022190139191 1 0 0 I I #
point $-1 -7.9925012838797542 -21.380239991497103 0.4120602219013888 #
point $-1 -4.853804694250222 -15.373303353796453 0.33888540061371264 #
point $-1 -0.14575980980592362 -15.373303353796453 0.33888540061371264 #
straight-curve $-1 0 -21.380239991497103 6.2771789541367706 1 0 0 I I #
straight-curve $-1 50.940275276955475 -21.380239991497103 0 0 0 -1 I I #
point $-1 50.940275276955475 -21.380239991497103 6.2771789541367706 #
point $-1 43.093533802881637 -15.373303353796453 0.33888540061371264 #
point $-1 47.801578687325943 -15.373303353796453 0.33888540061371264 #
straight-curve $-1 0 21.380239991497103 6.2771789541367706 -1 0 0 I I #
straight-curve $-1 50.940275276955475 0 6.2771789541367706 0 1 0 I I #
point $-1 50.940275276955475 21.380239991497103 6.2771789541367706 #
point $-1 43.0726506882678 13.204730266191909 -2.3142769772621765 #
edge $-1 $502 -21.380239991497103 $505 21.380239991497103 $500 $527 forward 7 unknown #
point $-1 -50.940275276955475 21.380239991497103 6.2771789541367706 #
point $-1 -50.940275276955475 -21.380239991497103 6.2771789541367706 #
straight-curve $-1 -50.940275276955475 0 6.2771789541367706 0 -1 0 I I #
End-of-ACIS-data 