500 0 5 0           
7 Unknown 11 ACIS 5.0 NT 24 Fri Mar 26 02:47:12 1999 
-1 9.9999999999999995e-007 1e-010 
body $-1 $5 $-1 $6 #
body $-1 $7 $-1 $8 #
body $-1 $9 $-1 $10 #
body $-1 $11 $-1 $12 #
body $-1 $13 $-1 $14 #
lump $-1 $-1 $15 $0 #
transform $-1 1 0 0 0 1 0 0 0 1 63.11227759636219 26.197749068481105 12.562559031596518 1 rotate no_reflect no_shear #
lump $-1 $-1 $16 $1 #
transform $-1 1 0 0 0 1 0 0 0 1 63.11227759636219 26.197749068481105 12.562559031596518 1 rotate no_reflect no_shear #
lump $-1 $-1 $17 $2 #
transform $-1 1 0 0 0 1 0 0 0 1 63.11227759636219 26.197749068481105 12.562559031596518 1 rotate no_reflect no_shear #
lump $-1 $-1 $18 $3 #
transform $-1 1 0 0 0 1 0 0 0 1 63.11227759636219 26.197749068481105 12.562559031596518 1 rotate no_reflect no_shear #
lump $-1 $-1 $19 $4 #
transform $-1 1 0 0 0 1 0 0 0 1 63.11227759636219 26.197749068481105 12.562559031596518 1 rotate no_reflect no_shear #
shell $-1 $-1 $-1 $20 $-1 $5 #
shell $-1 $-1 $-1 $21 $-1 $7 #
shell $-1 $-1 $-1 $22 $-1 $9 #
shell $-1 $-1 $-1 $23 $-1 $11 #
shell $-1 $-1 $-1 $24 $-1 $13 #
face $-1 $25 $26 $15 $-1 $27 reversed single #
face $-1 $28 $29 $16 $-1 $30 forward single #
face $-1 $31 $32 $17 $-1 $33 forward single #
face $-1 $34 $35 $18 $-1 $36 reversed single #
face $-1 $37 $38 $19 $-1 $39 forward single #
face $-1 $40 $41 $15 $-1 $42 forward single #
loop $-1 $-1 $43 $20 #
plane-surface $-1 63.11227759636219 0 0 -1 0 0 0 0 1 forward_v I I I I #
face $-1 $44 $45 $16 $-1 $46 reversed single #
loop $-1 $-1 $47 $21 #
plane-surface $-1 -63.11227759636219 0 0 1 0 0 0 0 -1 forward_v I I I I #
face $-1 $48 $49 $17 $-1 $50 reversed single #
loop $-1 $-1 $51 $22 #
plane-surface $-1 63.11227759636219 0 0 -1 0 0 0 0 1 forward_v I I I I #
face $-1 $52 $53 $18 $-1 $54 reversed single #
loop $-1 $-1 $55 $23 #
plane-surface $-1 6.7753753669433223 48.652671154431147 136.06155787865981 1 0 0 0 -0.52991927123019833 -0.84804809178421925 forward_v I I I I #
face $-1 $56 $57 $19 $-1 $58 forward single #
loop $-1 $59 $60 $24 #
cone-surface $-1 21.235404101204168 12.217904228161526 -0.98132952049168232 0 -0.52991927123019833 -0.84804809178421925 5 0 0 1 I I 0 1 5 forward I I I I #
face $-1 $61 $62 $15 $-1 $63 reversed single #
loop $-1 $-1 $64 $25 #
plane-surface $-1 0 0 12.562559031596518 0 0 1 1 0 0 forward_v I I I I #
coedge $-1 $65 $66 $67 $68 reversed $26 $-1 #
face $-1 $69 $70 $16 $-1 $71 forward single #
loop $-1 $-1 $72 $28 #
plane-surface $-1 0 26.197749068481105 0 0 -1 0 0 0 -1 forward_v I I I I #
coedge $-1 $73 $74 $75 $76 forward $29 $-1 #
face $-1 $77 $78 $17 $-1 $79 forward single #
loop $-1 $-1 $80 $31 #
plane-surface $-1 0 -26.197749068481105 0 0 1 0 0 0 1 forward_v I I I I #
coedge $-1 $81 $82 $83 $84 forward $32 $-1 #
face $-1 $85 $86 $18 $-1 $87 reversed single #
loop $-1 $-1 $88 $34 #
plane-surface $-1 21.235404101204168 -18.236153144653315 29.017064711158028 0 0.52991927123019833 0.84804809178421925 1 0 0 forward_v I I I I #
coedge $-1 $89 $90 $91 $92 reversed $35 $-1 #
face $-1 $93 $94 $19 $-1 $95 forward single #
loop $-1 $96 $97 $37 #
cone-surface $-1 21.235404101204168 5.9638557594091814 -10.98989904758006 0 -0.52991927123019833 -0.84804809178421925 2.5 0 0 1 I I -0.70710678118654746 0.70710678118654746 2.5 forward I I I I #
loop $-1 $-1 $98 $24 #
coedge $-1 $60 $60 $99 $100 reversed $38 $-1 #
face $-1 $101 $102 $15 $-1 $103 reversed single #
loop $-1 $-1 $104 $40 #
plane-surface $-1 0 0 -12.562559031596518 0 0 1 1 0 0 forward_v I I I I #
coedge $-1 $105 $106 $65 $107 forward $41 $-1 #
coedge $-1 $108 $43 $64 $107 reversed $26 $-1 #
coedge $-1 $43 $108 $104 $109 reversed $26 $-1 #
coedge $-1 $110 $111 $43 $68 forward $112 $-1 #
edge $-1 $113 -12.562559031596518 $114 12.562559031596518 $43 $115 forward 7 unknown #
face $-1 $116 $117 $16 $-1 $118 reversed single #
loop $-1 $-1 $75 $44 #
plane-surface $-1 -68.986170119106944 0 5.3060315840351429 0 0 1 1 0 0 forward_v I I I I #
coedge $-1 $119 $120 $74 $121 forward $45 $-1 #
coedge $-1 $122 $47 $123 $124 reversed $29 $-1 #
coedge $-1 $47 $122 $72 $121 reversed $29 $-1 #
coedge $-1 $125 $126 $47 $76 reversed $70 $-1 #
edge $-1 $127 -26.197749068481105 $128 26.197749068481105 $75 $129 forward 7 unknown #
face $-1 $130 $131 $17 $-1 $132 reversed single #
loop $-1 $-1 $133 $48 #
plane-surface $-1 68.986170119106959 0 5.3060315840351429 0 0 1 1 0 0 forward_v I I I I #
coedge $-1 $134 $135 $82 $136 forward $49 $-1 #
coedge $-1 $137 $51 $138 $139 reversed $32 $-1 #
coedge $-1 $51 $137 $80 $136 reversed $32 $-1 #
coedge $-1 $140 $141 $51 $84 reversed $78 $-1 #
edge $-1 $142 -26.197749068481105 $143 26.197749068481105 $83 $144 forward 7 unknown #
face $-1 $145 $146 $18 $-1 $147 reversed single #
loop $-1 $-1 $148 $52 #
plane-surface $-1 35.695432835465013 48.652671154431147 136.06155787865981 -1 0 0 0 0.52991927123019833 0.84804809178421925 forward_v I I I I #
coedge $-1 $149 $150 $151 $152 reversed $53 $-1 #
coedge $-1 $90 $55 $153 $154 reversed $35 $-1 #
coedge $-1 $55 $89 $149 $155 reversed $35 $-1 #
coedge $-1 $151 $156 $55 $92 forward $157 $-1 #
edge $-1 $158 -1.8714134912655318 $159 16.22977560801991 $91 $160 forward 7 unknown #
face $-1 $-1 $161 $19 $-1 $162 reversed single #
loop $-1 $-1 $99 $56 #
plane-surface $-1 21.235404101204168 -18.236153144653315 29.017064711158028 0 0.52991927123019833 0.84804809178421925 1 0 0 forward_v I I I I #
loop $-1 $-1 $163 $37 #
coedge $-1 $97 $97 $164 $165 reversed $57 $-1 #
coedge $-1 $98 $98 $163 $166 forward $59 $-1 #
coedge $-1 $99 $99 $60 $100 forward $94 $-1 #
edge $-1 $167 1.1270718810667952e-016 $167 6.2831853071796004 $99 $168 forward 7 unknown #
face $-1 $169 $170 $15 $-1 $171 reversed single #
loop $-1 $-1 $172 $61 #
plane-surface $-1 0 -26.197749068481105 0 0 1 0 0 0 1 forward_v I I I I #
coedge $-1 $173 $174 $66 $109 forward $62 $-1 #
coedge $-1 $175 $64 $111 $176 forward $41 $-1 #
coedge $-1 $64 $175 $177 $178 forward $41 $-1 #
edge $-1 $179 -26.197749068481105 $113 26.197749068481105 $65 $180 forward 7 unknown #
coedge $-1 $66 $65 $181 $182 forward $26 $-1 #
edge $-1 $114 -26.197749068481105 $183 26.197749068481105 $66 $184 forward 7 unknown #
coedge $-1 $185 $67 $174 $186 reversed $112 $-1 #
coedge $-1 $67 $185 $105 $176 reversed $112 $-1 #
loop $-1 $-1 $67 $169 #
vertex $-1 $107 $187 #
vertex $-1 $109 $188 #
straight-curve $-1 63.11227759636219 26.197749068481105 0 0 0 -1 I I #
face $-1 $189 $190 $16 $-1 $191 reversed single #
loop $-1 $-1 $192 $69 #
plane-surface $-1 -68.986170119106944 0 -0.76357799428502915 0 0 1 1 0 0 forward_v I I I I #
coedge $-1 $193 $72 $194 $195 reversed $45 $-1 #
coedge $-1 $72 $193 $125 $196 reversed $45 $-1 #
edge $-1 $127 -5.3060315840351429 $197 0.76357799428502915 $72 $198 forward 7 unknown #
coedge $-1 $74 $73 $192 $199 forward $29 $-1 #
coedge $-1 $200 $201 $73 $124 forward $202 $-1 #
edge $-1 $203 -0.76357799428502915 $128 5.3060315840351429 $123 $204 forward 7 unknown #
coedge $-1 $205 $75 $120 $196 forward $70 $-1 #
coedge $-1 $75 $205 $200 $206 forward $70 $-1 #
vertex $-1 $121 $207 #
vertex $-1 $206 $208 #
straight-curve $-1 -63.11227759636219 0 5.3060315840351429 0 -1 0 I I #
face $-1 $209 $210 $17 $-1 $211 reversed single #
loop $-1 $-1 $212 $77 #
plane-surface $-1 68.986170119106959 0 -0.76357799428502915 0 0 1 1 0 0 forward_v I I I I #
coedge $-1 $141 $140 $213 $214 forward $78 $-1 #
coedge $-1 $215 $80 $216 $217 reversed $49 $-1 #
coedge $-1 $80 $215 $140 $218 reversed $49 $-1 #
edge $-1 $142 -5.3060315840351429 $219 0.76357799428502915 $80 $220 forward 7 unknown #
coedge $-1 $82 $81 $221 $222 forward $32 $-1 #
coedge $-1 $223 $224 $81 $139 forward $225 $-1 #
edge $-1 $226 -0.76357799428502915 $143 5.3060315840351429 $138 $227 forward 7 unknown #
coedge $-1 $133 $83 $135 $218 forward $78 $-1 #
coedge $-1 $83 $133 $223 $228 forward $78 $-1 #
vertex $-1 $136 $229 #
vertex $-1 $228 $230 #
straight-curve $-1 63.11227759636219 0 5.3060315840351429 0 1 0 I I #
face $-1 $-1 $157 $18 $-1 $231 forward single #
loop $-1 $-1 $232 $85 #
plane-surface $-1 0 26.197749068481105 0 0 -1 0 0 0 -1 forward_v I I I I #
coedge $-1 $233 $234 $235 $236 reversed $86 $-1 #
coedge $-1 $237 $88 $90 $155 forward $53 $-1 #
coedge $-1 $88 $237 $233 $238 forward $53 $-1 #
coedge $-1 $235 $91 $88 $152 forward $157 $-1 #
edge $-1 $159 -3.8423266836587615 $239 25.077730784862929 $151 $240 forward 7 unknown #
coedge $-1 $241 $242 $89 $154 forward $146 $-1 #
edge $-1 $243 -66.779098416654108 $158 -55.468219907733385 $153 $244 forward 7 unknown #
edge $-1 $159 31.050966765867308 $243 52.395498136962217 $90 $245 forward 7 unknown #
coedge $-1 $91 $235 $241 $246 forward $157 $-1 #
loop $-1 $-1 $235 $145 #
vertex $-1 $154 $247 #
vertex $-1 $92 $248 #
straight-curve $-1 6.7753753669433223 24.326335577215573 12.562559031596521 0 -1 0 I I #
loop $-1 $-1 $164 $93 #
plane-surface $-1 0 0 -12.562559031596518 0 0 1 1 0 0 forward_v I I I I #
coedge $-1 $163 $163 $98 $166 reversed $96 $-1 #
coedge $-1 $164 $164 $97 $165 forward $161 $-1 #
edge $-1 $249 -3.1415926535897838 $249 3.1415926535898167 $164 $250 forward 7 unknown #
edge $-1 $251 0 $251 6.2831853071796004 $163 $252 forward 7 unknown #
vertex $-1 $100 $253 #
ellipse-curve $-1 21.235404101204168 17.147154518838384 6.9071197771361614 0 0.52991927123019833 0.84804809178421925 5 0 0 1 I I #
face $-1 $-1 $112 $15 $-1 $254 reversed single #
loop $-1 $-1 $255 $101 #
plane-surface $-1 -63.11227759636219 0 0 1 0 0 0 0 -1 forward_v I I I I #
coedge $-1 $256 $177 $255 $257 forward $102 $-1 #
coedge $-1 $258 $104 $256 $259 forward $62 $-1 #
coedge $-1 $104 $258 $110 $186 forward $62 $-1 #
coedge $-1 $106 $105 $260 $261 forward $41 $-1 #
edge $-1 $113 -63.11227759636219 $262 63.11227759636219 $111 $263 forward 7 unknown #
coedge $-1 $172 $181 $106 $178 reversed $102 $-1 #
edge $-1 $264 -63.11227759636219 $179 63.11227759636219 $177 $265 forward 7 unknown #
vertex $-1 $107 $266 #
straight-curve $-1 63.11227759636219 0 12.562559031596518 0 1 0 I I #
coedge $-1 $177 $256 $108 $182 reversed $102 $-1 #
edge $-1 $179 -12.562559031596518 $183 12.562559031596518 $108 $267 forward 7 unknown #
vertex $-1 $182 $268 #
straight-curve $-1 63.11227759636219 0 -12.562559031596518 0 -1 0 I I #
coedge $-1 $111 $110 $269 $270 reversed $112 $-1 #
edge $-1 $271 -63.11227759636219 $114 63.11227759636219 $110 $272 forward 7 unknown #
point $-1 63.11227759636219 26.197749068481105 12.562559031596518 #
point $-1 63.11227759636219 26.197749068481105 -12.562559031596518 #
face $-1 $-1 $202 $16 $-1 $273 reversed single #
loop $-1 $-1 $274 $116 #
plane-surface $-1 -74.860062641851698 0 2.2712267948750569 1 0 0 0 0 -1 forward_v I I I I #
coedge $-1 $275 $194 $122 $199 reversed $117 $-1 #
coedge $-1 $120 $119 $274 $276 reversed $45 $-1 #
coedge $-1 $192 $277 $119 $195 forward $117 $-1 #
edge $-1 $278 -5.8738925227447538 $197 5.8738925227447538 $119 $279 forward 7 unknown #
edge $-1 $127 -5.8738925227447538 $280 5.8738925227447538 $120 $281 forward 7 unknown #
vertex $-1 $121 $282 #
straight-curve $-1 -63.11227759636219 26.197749068481105 0 0 0 -1 I I #
edge $-1 $203 -26.197749068481105 $197 26.197749068481105 $192 $283 forward 7 unknown #
coedge $-1 $284 $123 $126 $206 reversed $202 $-1 #
coedge $-1 $123 $284 $275 $285 reversed $202 $-1 #
loop $-1 $-1 $123 $189 #
vertex $-1 $124 $286 #
straight-curve $-1 -63.11227759636219 -26.197749068481105 0 0 0 1 I I #
coedge $-1 $126 $125 $287 $288 forward $70 $-1 #
edge $-1 $289 -5.8738925227447538 $128 5.8738925227447538 $200 $290 forward 7 unknown #
point $-1 -63.11227759636219 26.197749068481105 5.3060315840351429 #
point $-1 -63.11227759636219 -26.197749068481105 5.3060315840351429 #
face $-1 $-1 $225 $17 $-1 $291 reversed single #
loop $-1 $-1 $292 $130 #
plane-surface $-1 74.860062641851712 0 2.2712267948750569 -1 0 0 0 0 1 forward_v I I I I #
coedge $-1 $216 $293 $294 $295 forward $131 $-1 #
coedge $-1 $292 $296 $133 $214 reversed $210 $-1 #
edge $-1 $297 -26.197749068481105 $298 26.197749068481105 $213 $299 forward 7 unknown #
coedge $-1 $135 $134 $292 $300 reversed $49 $-1 #
coedge $-1 $221 $212 $134 $217 forward $131 $-1 #
edge $-1 $301 -5.8738925227447538 $219 5.8738925227447538 $134 $302 forward 7 unknown #
edge $-1 $142 -5.8738925227447538 $297 5.8738925227447538 $135 $303 forward 7 unknown #
vertex $-1 $136 $304 #
straight-curve $-1 63.11227759636219 -26.197749068481105 0 0 0 -1 I I #
coedge $-1 $293 $216 $137 $222 reversed $131 $-1 #
edge $-1 $226 -26.197749068481105 $219 26.197749068481105 $221 $305 forward 7 unknown #
coedge $-1 $306 $138 $141 $228 reversed $225 $-1 #
coedge $-1 $138 $306 $293 $307 reversed $225 $-1 #
loop $-1 $-1 $138 $209 #
vertex $-1 $139 $308 #
straight-curve $-1 63.11227759636219 26.197749068481105 0 0 0 1 I I #
edge $-1 $298 -5.8738925227447538 $143 5.8738925227447538 $223 $309 forward 7 unknown #
point $-1 63.112277596362205 -26.197749068481105 5.3060315840351429 #
point $-1 63.112277596362205 26.197749068481105 5.3060315840351429 #
plane-surface $-1 0 0 12.562559031596518 0 0 1 1 0 0 forward_v I I I I #
coedge $-1 $242 $241 $234 $310 forward $146 $-1 #
coedge $-1 $234 $148 $150 $238 reversed $86 $-1 #
coedge $-1 $148 $233 $232 $310 reversed $86 $-1 #
coedge $-1 $156 $151 $148 $236 forward $157 $-1 #
edge $-1 $239 -16.22977560801991 $311 1.8714134912655318 $235 $312 forward 7 unknown #
coedge $-1 $150 $149 $242 $313 reversed $53 $-1 #
edge $-1 $314 -52.395498136962217 $239 -31.050966765867308 $233 $315 forward 7 unknown #
vertex $-1 $152 $316 #
straight-curve $-1 10.617702050602084 8.0965599691956669 12.562559031596516 1 0 0 I I #
coedge $-1 $232 $153 $156 $246 reversed $146 $-1 #
coedge $-1 $153 $232 $237 $313 forward $146 $-1 #
vertex $-1 $154 $317 #
straight-curve $-1 6.7753753669433223 26.197749068481105 68.030778939329906 0 0 1 I I #
straight-curve $-1 6.7753753669433223 -18.236153144653315 29.017064711158028 0 0.84804809178421925 -0.52991927123019833 I I #
edge $-1 $311 -35.695432835465013 $158 -6.7753753669433223 $241 $318 forward 7 unknown #
point $-1 6.7753753669433223 26.197749068481105 12.562559031596518 #
point $-1 6.7753753669433223 8.0965599691956633 12.562559031596518 #
vertex $-1 $165 $319 #
ellipse-curve $-1 21.235404101204161 5.761517472689583 -12.562559031596518 0 0 -1 -1.4984241777023444e-014 1.2488510431770463 0 0.66209601415332087 I I #
vertex $-1 $166 $320 #
ellipse-curve $-1 21.235404101204168 7.2886539374846775 -8.8697788181195119 0 0.52991927123019833 0.84804809178421925 5 0 0 1 I I #
point $-1 26.235404101204168 17.147154518838377 6.907119777136149 #
plane-surface $-1 0 26.197749068481105 0 0 -1 0 0 0 -1 forward_v I I I I #
coedge $-1 $260 $321 $172 $257 reversed $170 $-1 #
coedge $-1 $181 $172 $173 $259 reversed $102 $-1 #
edge $-1 $264 -12.562559031596518 $322 12.562559031596518 $255 $323 forward 7 unknown #
coedge $-1 $174 $173 $321 $324 forward $62 $-1 #
edge $-1 $183 -63.11227759636219 $322 63.11227759636219 $256 $325 forward 7 unknown #
coedge $-1 $269 $255 $175 $261 reversed $170 $-1 #
edge $-1 $262 -26.197749068481105 $264 26.197749068481105 $260 $326 forward 7 unknown #
vertex $-1 $176 $327 #
straight-curve $-1 0 26.197749068481105 12.562559031596518 -1 0 0 I I #
vertex $-1 $261 $328 #
straight-curve $-1 0 -26.197749068481105 12.562559031596518 1 0 0 I I #
point $-1 63.11227759636219 -26.197749068481105 12.562559031596518 #
straight-curve $-1 63.11227759636219 -26.197749068481105 0 0 0 -1 I I #
point $-1 63.11227759636219 -26.197749068481105 -12.562559031596518 #
coedge $-1 $321 $260 $185 $270 forward $170 $-1 #
edge $-1 $262 -12.562559031596518 $271 12.562559031596518 $185 $329 forward 7 unknown #
vertex $-1 $186 $330 #
straight-curve $-1 0 26.197749068481105 -12.562559031596518 1 0 0 I I #
plane-surface $-1 0 -26.197749068481105 0 0 1 0 0 0 1 forward_v I I I I #
coedge $-1 $331 $287 $193 $276 forward $190 $-1 #
coedge $-1 $277 $192 $201 $285 forward $117 $-1 #
edge $-1 $280 -3.034804789160086 $278 3.034804789160086 $193 $332 forward 7 unknown #
coedge $-1 $194 $275 $331 $333 forward $117 $-1 #
vertex $-1 $195 $334 #
straight-curve $-1 -68.986170119106944 26.197749068481105 -0.76357799428502915 1 0 0 I I #
vertex $-1 $196 $335 #
straight-curve $-1 -68.986170119106944 26.197749068481105 5.3060315840351429 -1 0 0 I I #
point $-1 -63.11227759636219 26.197749068481105 -0.76357799428502915 #
straight-curve $-1 -63.11227759636219 0 -0.76357799428502915 0 1 0 I I #
coedge $-1 $201 $200 $336 $337 forward $202 $-1 #
edge $-1 $203 -5.8738925227447538 $338 5.8738925227447538 $201 $339 forward 7 unknown #
point $-1 -63.11227759636219 -26.197749068481105 -0.76357799428502915 #
coedge $-1 $274 $336 $205 $288 reversed $190 $-1 #
edge $-1 $280 -26.197749068481105 $289 26.197749068481105 $287 $340 forward 7 unknown #
vertex $-1 $288 $341 #
straight-curve $-1 -68.986170119106944 -26.197749068481105 5.3060315840351429 1 0 0 I I #
plane-surface $-1 0 26.197749068481105 0 0 -1 0 0 0 -1 forward_v I I I I #
coedge $-1 $294 $213 $215 $300 forward $210 $-1 #
coedge $-1 $212 $221 $224 $307 forward $131 $-1 #
coedge $-1 $296 $292 $212 $295 reversed $210 $-1 #
edge $-1 $342 -26.197749068481105 $301 26.197749068481105 $294 $343 forward 7 unknown #
coedge $-1 $213 $294 $306 $344 reversed $210 $-1 #
vertex $-1 $214 $345 #
vertex $-1 $214 $346 #
straight-curve $-1 74.860062641851712 0 5.3060315840351429 0 1 0 I I #
edge $-1 $297 -3.034804789160086 $301 3.034804789160086 $292 $347 forward 7 unknown #
vertex $-1 $300 $348 #
straight-curve $-1 68.986170119106959 -26.197749068481105 -0.76357799428502915 -1 0 0 I I #
straight-curve $-1 68.986170119106959 -26.197749068481105 5.3060315840351429 1 0 0 I I #
point $-1 63.112277596362205 -26.197749068481105 -0.76357799428502915 #
straight-curve $-1 63.11227759636219 0 -0.76357799428502915 0 -1 0 I I #
coedge $-1 $224 $223 $296 $344 forward $225 $-1 #
edge $-1 $226 -5.8738925227447538 $342 5.8738925227447538 $224 $349 forward 7 unknown #
point $-1 63.112277596362205 26.197749068481105 -0.76357799428502915 #
straight-curve $-1 68.986170119106959 26.197749068481105 5.3060315840351429 -1 0 0 I I #
edge $-1 $311 55.468219907733385 $314 66.779098416654108 $232 $350 forward 7 unknown #
vertex $-1 $246 $351 #
straight-curve $-1 35.695432835465013 24.326335577215573 12.562559031596521 0 1 0 I I #
edge $-1 $314 -25.077730784862929 $243 3.8423266836587615 $242 $352 forward 7 unknown #
vertex $-1 $313 $353 #
straight-curve $-1 35.695432835465013 -18.236153144653315 29.017064711158028 0 -0.84804809178421925 0.52991927123019833 I I #
point $-1 35.695432835465013 8.0965599691956633 12.562559031596518 #
point $-1 6.7753753669433223 26.197749068481102 1.2516805226757981 #
straight-curve $-1 0 26.197749068481105 12.562559031596518 -1 0 0 I I #
point $-1 21.235404101204168 4.5126664295125369 -12.562559031596518 #
point $-1 26.235404101204168 7.2886539374846775 -8.8697788181195119 #
coedge $-1 $255 $269 $258 $324 reversed $170 $-1 #
vertex $-1 $324 $354 #
straight-curve $-1 -63.11227759636219 -26.197749068481105 0 0 0 -1 I I #
edge $-1 $322 -26.197749068481105 $271 26.197749068481105 $321 $355 forward 7 unknown #
straight-curve $-1 0 -26.197749068481105 -12.562559031596518 -1 0 0 I I #
straight-curve $-1 -63.11227759636219 0 12.562559031596518 0 -1 0 I I #
point $-1 -63.11227759636219 26.197749068481105 12.562559031596518 #
point $-1 -63.11227759636219 -26.197749068481105 12.562559031596518 #
straight-curve $-1 -63.11227759636219 26.197749068481105 0 0 0 -1 I I #
point $-1 -63.11227759636219 26.197749068481105 -12.562559031596518 #
coedge $-1 $336 $274 $277 $333 reversed $190 $-1 #
straight-curve $-1 -74.860062641851698 26.197749068481105 2.2712267948750569 0 0 -1 I I #
edge $-1 $338 -26.197749068481105 $278 26.197749068481105 $331 $356 forward 7 unknown #
point $-1 -74.860062641851698 26.197749068481105 -0.76357799428502915 #
point $-1 -74.860062641851698 26.197749068481105 5.3060315840351429 #
coedge $-1 $287 $331 $284 $337 reversed $190 $-1 #
edge $-1 $289 -3.034804789160086 $338 3.034804789160086 $336 $357 forward 7 unknown #
vertex $-1 $333 $358 #
straight-curve $-1 -68.986170119106944 -26.197749068481105 -0.76357799428502915 -1 0 0 I I #
straight-curve $-1 -74.860062641851698 0 5.3060315840351429 0 -1 0 I I #
point $-1 -74.860062641851698 -26.197749068481105 5.3060315840351429 #
vertex $-1 $295 $359 #
straight-curve $-1 74.860062641851712 0 -0.76357799428502915 0 -1 0 I I #
edge $-1 $298 -3.034804789160086 $342 3.034804789160086 $296 $360 forward 7 unknown #
point $-1 74.860062641851712 -26.197749068481105 5.3060315840351429 #
point $-1 74.860062641851712 26.197749068481105 5.3060315840351429 #
straight-curve $-1 74.860062641851712 -26.197749068481105 2.2712267948750569 0 0 -1 I I #
point $-1 74.860062641851712 -26.197749068481105 -0.76357799428502915 #
straight-curve $-1 68.986170119106959 26.197749068481105 -0.76357799428502915 1 0 0 I I #
straight-curve $-1 35.695432835465013 26.197749068481105 68.030778939329906 0 0 -1 I I #
point $-1 35.695432835465013 26.197749068481105 12.562559031596518 #
straight-curve $-1 10.617702050602084 26.197749068481109 1.2516805226757963 -1 0 0 I I #
point $-1 35.695432835465013 26.197749068481102 1.2516805226757981 #
point $-1 -63.11227759636219 -26.197749068481105 -12.562559031596518 #
straight-curve $-1 -63.11227759636219 0 -12.562559031596518 0 1 0 I I #
straight-curve $-1 -74.860062641851698 0 -0.76357799428502915 0 1 0 I I #
straight-curve $-1 -74.860062641851698 -26.197749068481105 2.2712267948750569 0 0 -1 I I #
point $-1 -74.860062641851698 -26.197749068481105 -0.76357799428502915 #
point $-1 74.860062641851712 26.197749068481105 -0.76357799428502915 #
straight-curve $-1 74.860062641851712 26.197749068481105 2.2712267948750569 0 0 -1 I I #
End-of-ACIS-data 