500 0 7 0           
7 Unknown 11 ACIS 5.0 NT 24 Fri Mar 26 15:04:09 1999 
-1 9.9999999999999995e-007 1e-010 
body $-1 $7 $-1 $8 #
body $-1 $9 $-1 $10 #
body $-1 $11 $-1 $12 #
body $-1 $13 $-1 $14 #
body $-1 $15 $-1 $16 #
body $-1 $17 $-1 $18 #
body $-1 $19 $-1 $20 #
lump $-1 $-1 $21 $0 #
transform $-1 1 0 0 0 1 0 0 0 1 58.789635914181957 36.158846626070925 15.608103478473684 1 rotate no_reflect no_shear #
lump $-1 $-1 $22 $1 #
transform $-1 1 0 0 0 1 0 0 0 1 58.789635914181957 36.158846626070925 15.608103478473684 1 rotate no_reflect no_shear #
lump $-1 $-1 $23 $2 #
transform $-1 1 0 0 0 1 0 0 0 1 58.789635914181957 36.158846626070925 15.608103478473684 1 rotate no_reflect no_shear #
lump $-1 $-1 $24 $3 #
transform $-1 1 0 0 0 1 0 0 0 1 58.789635914181957 36.158846626070925 15.608103478473684 1 rotate no_reflect no_shear #
lump $-1 $-1 $25 $4 #
transform $-1 1 0 0 0 1 0 0 0 1 58.789635914181957 36.158846626070925 15.608103478473684 1 rotate no_reflect no_shear #
lump $-1 $-1 $26 $5 #
transform $-1 1 0 0 0 1 0 0 0 1 58.789635914181957 36.158846626070925 15.608103478473684 1 rotate no_reflect no_shear #
lump $-1 $-1 $27 $6 #
transform $-1 1 0 0 0 1 0 0 0 1 58.789635914181957 36.158846626070925 15.608103478473684 1 rotate no_reflect no_shear #
shell $-1 $-1 $-1 $28 $-1 $7 #
shell $-1 $-1 $-1 $29 $-1 $9 #
shell $-1 $-1 $-1 $30 $-1 $11 #
shell $-1 $-1 $-1 $31 $-1 $13 #
shell $-1 $-1 $-1 $32 $-1 $15 #
shell $-1 $-1 $-1 $33 $-1 $17 #
shell $-1 $-1 $-1 $34 $-1 $19 #
face $-1 $35 $36 $21 $-1 $37 forward single #
face $-1 $38 $39 $22 $-1 $40 forward single #
face $-1 $41 $42 $23 $-1 $43 forward single #
face $-1 $44 $45 $24 $-1 $46 reversed single #
face $-1 $47 $48 $25 $-1 $49 forward single #
face $-1 $50 $51 $26 $-1 $52 reversed single #
face $-1 $53 $54 $27 $-1 $55 forward single #
face $-1 $56 $57 $21 $-1 $58 reversed single #
loop $-1 $-1 $59 $28 #
plane-surface $-1 0 0 15.608103478473684 0 0 1 1 0 0 forward_v I I I I #
face $-1 $60 $61 $22 $-1 $62 reversed single #
loop $-1 $-1 $63 $29 #
plane-surface $-1 -58.789635914181957 0 0 1 0 0 0 0 -1 forward_v I I I I #
face $-1 $64 $65 $23 $-1 $66 reversed single #
loop $-1 $-1 $67 $30 #
plane-surface $-1 58.789635914181957 0 0 -1 0 0 0 0 1 forward_v I I I I #
face $-1 $68 $69 $24 $-1 $70 reversed single #
loop $-1 $-1 $71 $31 #
plane-surface $-1 -21.381808083968469 -138.9959958148045 58.182143256089063 -1 0 0 0 -0.87461971476443456 0.48480960649040278 forward_v I I I I #
face $-1 $72 $73 $25 $-1 $74 forward single #
loop $-1 $75 $76 $32 #
cone-surface $-1 -32.976561967453883 -30.879620621837798 7.6838169236612694 0 0.87461971476443456 -0.48480960649040278 1.5 0 0 1 I I 0 1 1.5 forward I I I I #
face $-1 $77 $78 $26 $-1 $79 reversed single #
loop $-1 $-1 $80 $33 #
plane-surface $-1 44.5713158509393 -138.9959958148045 58.182143256089063 -1 0 0 0 -0.87461971476443456 0.48480960649040278 forward_v I I I I #
face $-1 $81 $82 $27 $-1 $83 forward single #
loop $-1 $84 $85 $34 #
cone-surface $-1 32.976561967453875 -30.879620621837798 7.6838169236612694 0 0.87461971476443456 -0.48480960649040278 1.5 0 0 1 I I 0 1 1.5 forward I I I I #
face $-1 $86 $87 $21 $-1 $88 reversed single #
loop $-1 $-1 $89 $35 #
plane-surface $-1 0 0 -15.608103478473684 0 0 1 1 0 0 forward_v I I I I #
coedge $-1 $90 $91 $92 $93 forward $36 $-1 #
face $-1 $94 $95 $22 $-1 $96 forward single #
loop $-1 $-1 $97 $38 #
plane-surface $-1 0 36.158846626070925 0 0 -1 0 0 0 -1 forward_v I I I I #
coedge $-1 $98 $99 $100 $101 forward $39 $-1 #
face $-1 $102 $103 $23 $-1 $104 forward single #
loop $-1 $-1 $105 $41 #
plane-surface $-1 0 36.158846626070925 0 0 -1 0 0 0 -1 forward_v I I I I #
coedge $-1 $106 $107 $108 $109 forward $42 $-1 #
face $-1 $110 $111 $24 $-1 $112 reversed single #
loop $-1 $-1 $113 $44 #
plane-surface $-1 -32.97656196745389 -36.15884662607094 1.1785827495518504 0 -0.87461971476443456 0.48480960649040278 1 0 0 forward_v I I I I #
coedge $-1 $114 $115 $116 $117 reversed $45 $-1 #
face $-1 $-1 $118 $25 $-1 $119 forward single #
loop $-1 $120 $121 $47 #
cone-surface $-1 -32.976561967453883 -28.943636657276102 6.610683528441978 0 0.87461971476443456 -0.48480960649040278 0.75 0 0 1 I I -0.70710678118654757 0.70710678118654757 0.75 forward I I I I #
loop $-1 $-1 $122 $32 #
coedge $-1 $76 $76 $123 $124 reversed $48 $-1 #
face $-1 $125 $126 $26 $-1 $127 reversed single #
loop $-1 $-1 $128 $50 #
plane-surface $-1 32.976561967453875 -36.15884662607094 1.1785827495518504 0 -0.87461971476443456 0.48480960649040278 1 0 0 forward_v I I I I #
coedge $-1 $129 $130 $131 $132 reversed $51 $-1 #
face $-1 $-1 $133 $27 $-1 $134 forward single #
loop $-1 $135 $136 $53 #
cone-surface $-1 32.976561967453875 -28.943636657276102 6.610683528441978 0 0.87461971476443456 -0.48480960649040278 0.75 0 0 1 I I -0.70710678118654757 0.70710678118654757 0.75 forward I I I I #
loop $-1 $-1 $137 $34 #
coedge $-1 $85 $85 $138 $139 reversed $54 $-1 #
face $-1 $140 $141 $21 $-1 $142 reversed single #
loop $-1 $-1 $143 $56 #
plane-surface $-1 0 -36.158846626070925 0 0 1 0 0 0 1 forward_v I I I I #
coedge $-1 $144 $145 $146 $147 forward $57 $-1 #
coedge $-1 $148 $59 $149 $150 forward $36 $-1 #
coedge $-1 $59 $148 $151 $152 forward $36 $-1 #
coedge $-1 $153 $154 $59 $93 reversed $155 $-1 #
edge $-1 $156 -36.158846626070925 $157 36.158846626070925 $92 $158 forward 7 unknown #
face $-1 $159 $160 $22 $-1 $161 reversed single #
loop $-1 $-1 $100 $60 #
plane-surface $-1 -64.213193460642316 0 -9.0160888284112026 0 0 1 1 0 0 forward_v I I I I #
coedge $-1 $162 $163 $99 $164 forward $61 $-1 #
coedge $-1 $165 $63 $166 $167 reversed $39 $-1 #
coedge $-1 $63 $165 $97 $164 reversed $39 $-1 #
coedge $-1 $168 $169 $63 $101 reversed $95 $-1 #
edge $-1 $170 -36.158846626070925 $171 36.158846626070925 $100 $172 forward 7 unknown #
face $-1 $173 $174 $23 $-1 $175 reversed single #
loop $-1 $-1 $176 $64 #
plane-surface $-1 64.213193460642316 0 -9.0160888284112026 0 0 1 1 0 0 forward_v I I I I #
coedge $-1 $177 $178 $106 $179 forward $65 $-1 #
coedge $-1 $180 $67 $105 $179 reversed $42 $-1 #
coedge $-1 $67 $180 $181 $182 reversed $42 $-1 #
coedge $-1 $183 $184 $67 $109 reversed $103 $-1 #
edge $-1 $185 -36.158846626070925 $186 36.158846626070925 $108 $187 forward 7 unknown #
face $-1 $188 $189 $24 $-1 $190 forward single #
loop $-1 $-1 $191 $68 #
plane-surface $-1 -44.571315850939314 -138.9959958148045 58.182143256089063 1 0 0 0 0.87461971476443456 -0.48480960649040278 forward_v I I I I #
coedge $-1 $192 $193 $194 $195 reversed $69 $-1 #
coedge $-1 $115 $71 $196 $197 reversed $45 $-1 #
coedge $-1 $71 $114 $192 $198 reversed $45 $-1 #
coedge $-1 $194 $199 $71 $117 forward $189 $-1 #
edge $-1 $200 33.339151281331326 $201 41.337564932820811 $116 $202 forward 7 unknown #
loop $-1 $-1 $123 $72 #
plane-surface $-1 -32.97656196745389 -36.15884662607094 1.1785827495518504 0 -0.87461971476443456 0.48480960649040278 1 0 0 forward_v I I I I #
loop $-1 $-1 $203 $47 #
coedge $-1 $121 $121 $122 $204 reversed $73 $-1 #
coedge $-1 $122 $122 $121 $204 forward $75 $-1 #
coedge $-1 $123 $123 $76 $124 forward $118 $-1 #
edge $-1 $205 6.7501203358497052e-016 $205 6.2831853071796013 $123 $206 forward 7 unknown #
face $-1 $207 $208 $26 $-1 $209 reversed single #
loop $-1 $-1 $210 $77 #
plane-surface $-1 21.381808083968455 -138.9959958148045 58.182143256089063 1 0 0 0 0.87461971476443456 -0.48480960649040278 forward_v I I I I #
coedge $-1 $211 $212 $213 $214 reversed $78 $-1 #
coedge $-1 $130 $80 $215 $216 reversed $51 $-1 #
coedge $-1 $80 $129 $211 $217 reversed $51 $-1 #
coedge $-1 $213 $218 $80 $132 forward $219 $-1 #
edge $-1 $220 33.339151281331326 $221 41.337564932820811 $131 $222 forward 7 unknown #
loop $-1 $-1 $138 $81 #
plane-surface $-1 32.976561967453875 -36.15884662607094 1.1785827495518504 0 -0.87461971476443456 0.48480960649040278 1 0 0 forward_v I I I I #
loop $-1 $-1 $223 $53 #
coedge $-1 $136 $136 $137 $224 reversed $82 $-1 #
coedge $-1 $137 $137 $136 $224 forward $84 $-1 #
coedge $-1 $138 $138 $85 $139 forward $133 $-1 #
edge $-1 $225 6.7501203358497052e-016 $225 6.2831853071796013 $138 $226 forward 7 unknown #
face $-1 $227 $228 $21 $-1 $229 reversed single #
loop $-1 $-1 $230 $86 #
plane-surface $-1 -58.789635914181957 0 0 1 0 0 0 0 -1 forward_v I I I I #
coedge $-1 $231 $151 $232 $233 forward $87 $-1 #
coedge $-1 $234 $89 $231 $235 forward $57 $-1 #
coedge $-1 $89 $234 $236 $237 forward $57 $-1 #
coedge $-1 $154 $153 $89 $147 reversed $155 $-1 #
edge $-1 $238 -36.158846626070925 $239 36.158846626070925 $146 $240 forward 7 unknown #
coedge $-1 $91 $90 $241 $242 forward $36 $-1 #
coedge $-1 $243 $244 $90 $150 reversed $228 $-1 #
edge $-1 $157 -58.789635914181957 $245 58.789635914181957 $149 $246 forward 7 unknown #
coedge $-1 $143 $247 $91 $152 reversed $87 $-1 #
edge $-1 $248 -58.789635914181957 $156 58.789635914181957 $151 $249 forward 7 unknown #
coedge $-1 $146 $92 $247 $250 forward $155 $-1 #
coedge $-1 $92 $146 $243 $251 reversed $155 $-1 #
loop $-1 $-1 $153 $227 #
vertex $-1 $93 $252 #
vertex $-1 $93 $253 #
straight-curve $-1 58.789635914181957 0 15.608103478473684 0 1 0 I I #
face $-1 $254 $255 $22 $-1 $256 reversed single #
loop $-1 $-1 $257 $94 #
plane-surface $-1 -69.636751007102674 0 -12.312096153442443 1 0 0 0 0 -1 forward_v I I I I #
coedge $-1 $258 $97 $259 $260 reversed $61 $-1 #
coedge $-1 $97 $258 $168 $261 reversed $61 $-1 #
edge $-1 $170 9.0160888284112026 $262 15.608103478473684 $97 $263 forward 7 unknown #
coedge $-1 $99 $98 $264 $265 reversed $39 $-1 #
coedge $-1 $266 $267 $98 $167 forward $268 $-1 #
edge $-1 $269 -15.608103478473684 $171 -9.0160888284112026 $166 $270 forward 7 unknown #
coedge $-1 $271 $100 $163 $261 forward $95 $-1 #
coedge $-1 $100 $271 $266 $272 forward $95 $-1 #
vertex $-1 $164 $273 #
vertex $-1 $272 $274 #
straight-curve $-1 -58.789635914181957 0 -9.0160888284112026 0 -1 0 I I #
face $-1 $275 $276 $23 $-1 $277 reversed single #
loop $-1 $-1 $278 $102 #
plane-surface $-1 69.636751007102674 0 -12.312096153442443 -1 0 0 0 0 1 forward_v I I I I #
coedge $-1 $184 $183 $279 $280 forward $103 $-1 #
coedge $-1 $281 $105 $184 $282 reversed $65 $-1 #
coedge $-1 $105 $281 $283 $284 reversed $65 $-1 #
edge $-1 $285 -15.608103478473684 $186 -9.0160888284112026 $105 $286 forward 7 unknown #
coedge $-1 $107 $106 $287 $288 reversed $42 $-1 #
coedge $-1 $289 $290 $107 $182 forward $291 $-1 #
edge $-1 $185 9.0160888284112026 $292 15.608103478473684 $181 $293 forward 7 unknown #
coedge $-1 $176 $108 $290 $294 forward $103 $-1 #
coedge $-1 $108 $176 $177 $282 forward $103 $-1 #
vertex $-1 $182 $295 #
vertex $-1 $282 $296 #
straight-curve $-1 58.789635914181957 0 -9.0160888284112026 0 1 0 I I #
face $-1 $-1 $297 $24 $-1 $298 reversed single #
loop $-1 $-1 $116 $110 #
plane-surface $-1 0 0 15.608103478473684 0 0 1 1 0 0 forward_v I I I I #
coedge $-1 $299 $300 $301 $302 reversed $111 $-1 #
coedge $-1 $303 $113 $115 $198 forward $69 $-1 #
coedge $-1 $113 $303 $299 $304 forward $69 $-1 #
coedge $-1 $301 $116 $113 $195 forward $189 $-1 #
edge $-1 $201 4.8935271002415242 $305 28.083034867212369 $194 $306 forward 7 unknown #
coedge $-1 $307 $308 $114 $197 forward $297 $-1 #
edge $-1 $309 -27.912488878492656 $200 -13.482968149570848 $196 $310 forward 7 unknown #
edge $-1 $201 -16.498051079043197 $309 -2.9223086620188301e-014 $115 $311 forward 7 unknown #
coedge $-1 $116 $301 $307 $312 forward $189 $-1 #
vertex $-1 $197 $313 #
vertex $-1 $117 $314 #
straight-curve $-1 -21.381808083968469 -69.497997907402251 15.608103478473684 0 1 0 I I #
coedge $-1 $203 $203 $-1 $315 reversed $120 $-1 #
edge $-1 $316 0 $316 6.2831853071796004 $121 $317 forward 7 unknown #
vertex $-1 $124 $318 #
ellipse-curve $-1 -32.976561967453883 -32.15963980032619 8.3933431140127706 0 -0.87461971476443456 0.48480960649040278 1.5 0 0 1 I I #
face $-1 $-1 $219 $26 $-1 $319 forward single #
loop $-1 $-1 $320 $125 #
plane-surface $-1 0 -36.158846626070925 0 0 1 0 0 0 1 forward_v I I I I #
coedge $-1 $321 $322 $323 $324 reversed $126 $-1 #
coedge $-1 $325 $128 $130 $217 forward $78 $-1 #
coedge $-1 $128 $325 $321 $326 forward $78 $-1 #
coedge $-1 $323 $131 $128 $214 forward $219 $-1 #
edge $-1 $221 -28.083034867212362 $327 -4.893527100241517 $213 $328 forward 7 unknown #
coedge $-1 $329 $330 $129 $216 forward $208 $-1 #
edge $-1 $331 -27.912488878492656 $220 -13.482968149570848 $215 $332 forward 7 unknown #
edge $-1 $221 -16.498051079043197 $331 -2.9223086620188301e-014 $130 $333 forward 7 unknown #
coedge $-1 $131 $323 $329 $334 forward $219 $-1 #
loop $-1 $-1 $323 $207 #
vertex $-1 $216 $335 #
vertex $-1 $132 $336 #
straight-curve $-1 44.5713158509393 -69.497997907402251 15.608103478473684 0 1 0 I I #
coedge $-1 $223 $223 $-1 $337 reversed $135 $-1 #
edge $-1 $338 0 $338 6.2831853071796004 $136 $339 forward 7 unknown #
vertex $-1 $139 $340 #
ellipse-curve $-1 32.976561967453875 -32.15963980032619 8.3933431140127706 0 -0.87461971476443456 0.48480960649040278 1.5 0 0 1 I I #
face $-1 $-1 $155 $21 $-1 $341 reversed single #
loop $-1 $-1 $243 $140 #
plane-surface $-1 0 36.158846626070925 0 0 -1 0 0 0 -1 forward_v I I I I #
coedge $-1 $342 $241 $244 $343 forward $141 $-1 #
coedge $-1 $247 $143 $144 $235 reversed $87 $-1 #
coedge $-1 $241 $342 $143 $233 reversed $141 $-1 #
edge $-1 $248 -15.608103478473684 $344 15.608103478473684 $232 $345 forward 7 unknown #
coedge $-1 $145 $144 $342 $346 forward $57 $-1 #
edge $-1 $239 -58.789635914181957 $344 58.789635914181957 $231 $347 forward 7 unknown #
coedge $-1 $244 $243 $145 $237 reversed $228 $-1 #
edge $-1 $348 -58.789635914181957 $238 58.789635914181957 $236 $349 forward 7 unknown #
vertex $-1 $147 $350 #
vertex $-1 $250 $351 #
straight-curve $-1 58.789635914181957 0 -15.608103478473684 0 -1 0 I I #
coedge $-1 $230 $232 $148 $242 reversed $141 $-1 #
edge $-1 $245 -36.158846626070925 $248 36.158846626070925 $241 $352 forward 7 unknown #
coedge $-1 $236 $149 $154 $251 forward $228 $-1 #
coedge $-1 $149 $236 $230 $343 reversed $228 $-1 #
vertex $-1 $150 $353 #
straight-curve $-1 0 36.158846626070925 15.608103478473684 -1 0 0 I I #
coedge $-1 $151 $231 $153 $250 reversed $87 $-1 #
vertex $-1 $242 $354 #
straight-curve $-1 0 -36.158846626070925 15.608103478473684 1 0 0 I I #
edge $-1 $156 -15.608103478473684 $239 15.608103478473684 $153 $355 forward 7 unknown #
edge $-1 $157 -15.608103478473684 $238 15.608103478473684 $154 $356 forward 7 unknown #
point $-1 58.789635914181957 -36.158846626070925 15.608103478473684 #
point $-1 58.789635914181957 36.158846626070925 15.608103478473684 #
face $-1 $-1 $268 $22 $-1 $357 reversed single #
loop $-1 $-1 $264 $159 #
plane-surface $-1 0 0 -15.608103478473684 0 0 1 1 0 0 forward_v I I I I #
coedge $-1 $358 $359 $258 $360 forward $160 $-1 #
coedge $-1 $163 $162 $257 $360 reversed $61 $-1 #
coedge $-1 $264 $361 $162 $260 forward $255 $-1 #
edge $-1 $362 -69.636751007102674 $262 -58.789635914181957 $162 $363 forward 7 unknown #
edge $-1 $170 -5.4235575464603585 $364 5.4235575464603585 $163 $365 forward 7 unknown #
vertex $-1 $164 $366 #
straight-curve $-1 -58.789635914181957 36.158846626070925 0 0 0 -1 I I #
coedge $-1 $367 $259 $165 $265 forward $255 $-1 #
edge $-1 $262 -36.158846626070925 $269 36.158846626070925 $264 $368 forward 7 unknown #
coedge $-1 $369 $166 $169 $272 reversed $268 $-1 #
coedge $-1 $166 $369 $367 $370 reversed $268 $-1 #
loop $-1 $-1 $166 $254 #
vertex $-1 $370 $371 #
straight-curve $-1 -58.789635914181957 -36.158846626070925 0 0 0 1 I I #
coedge $-1 $169 $168 $359 $372 forward $95 $-1 #
edge $-1 $373 -5.4235575464603585 $171 5.4235575464603585 $266 $374 forward 7 unknown #
point $-1 -58.789635914181957 36.158846626070925 -9.0160888284112026 #
point $-1 -58.789635914181957 -36.158846626070925 -9.0160888284112026 #
face $-1 $-1 $291 $23 $-1 $375 reversed single #
loop $-1 $-1 $287 $173 #
plane-surface $-1 0 0 -15.608103478473684 0 0 1 1 0 0 forward_v I I I I #
coedge $-1 $376 $279 $377 $378 forward $174 $-1 #
coedge $-1 $278 $379 $176 $280 reversed $174 $-1 #
edge $-1 $380 -36.158846626070925 $381 36.158846626070925 $279 $382 forward 7 unknown #
coedge $-1 $178 $177 $379 $383 forward $65 $-1 #
edge $-1 $381 -5.4235575464603585 $186 5.4235575464603585 $177 $384 forward 7 unknown #
coedge $-1 $385 $287 $178 $284 forward $276 $-1 #
edge $-1 $285 -5.4235575464603585 $386 5.4235575464603585 $178 $387 forward 7 unknown #
vertex $-1 $284 $388 #
straight-curve $-1 58.789635914181957 36.158846626070925 0 0 0 1 I I #
coedge $-1 $283 $389 $180 $288 forward $276 $-1 #
edge $-1 $292 -36.158846626070925 $285 36.158846626070925 $287 $390 forward 7 unknown #
coedge $-1 $377 $181 $389 $391 reversed $291 $-1 #
coedge $-1 $181 $377 $183 $294 reversed $291 $-1 #
loop $-1 $-1 $181 $275 #
vertex $-1 $182 $392 #
straight-curve $-1 58.789635914181957 -36.158846626070925 0 0 0 -1 I I #
edge $-1 $185 -5.4235575464603585 $380 5.4235575464603585 $290 $393 forward 7 unknown #
point $-1 58.789635914181957 -36.158846626070925 -9.0160888284112026 #
point $-1 58.789635914181957 36.158846626070925 -9.0160888284112026 #
loop $-1 $-1 $196 $188 #
plane-surface $-1 0 -36.158846626070925 0 0 1 0 0 0 1 forward_v I I I I #
coedge $-1 $300 $191 $193 $304 reversed $111 $-1 #
coedge $-1 $191 $299 $394 $395 reversed $111 $-1 #
coedge $-1 $199 $194 $191 $302 forward $189 $-1 #
edge $-1 $305 -41.337564932820811 $396 -33.339151281331326 $301 $397 forward 7 unknown #
coedge $-1 $193 $192 $308 $398 reversed $69 $-1 #
edge $-1 $399 2.9223086620188301e-014 $305 16.498051079043197 $299 $400 forward 7 unknown #
vertex $-1 $195 $401 #
straight-curve $-1 -16.488280983726945 -28.160432974581443 15.608103478473684 -1 0 0 I I #
coedge $-1 $394 $196 $199 $312 reversed $297 $-1 #
coedge $-1 $196 $394 $303 $398 forward $297 $-1 #
vertex $-1 $197 $402 #
straight-curve $-1 -21.381808083968469 -36.158846626070925 29.091071628044531 0 0 1 I I #
straight-curve $-1 -21.381808083968469 -36.15884662607094 1.1785827495518504 0 -0.48480960649040278 -0.87461971476443456 I I #
edge $-1 $396 -44.571315850939314 $200 -21.381808083968469 $307 $403 forward 7 unknown #
point $-1 -21.381808083968469 -36.158846626070925 15.608103478473684 #
point $-1 -21.381808083968469 -28.160432974581443 15.608103478473684 #
edge $-1 $404 1 $404 0 $203 $-1 forward 7 unknown #
vertex $-1 $204 $405 #
ellipse-curve $-1 -32.976561967453883 -29.599601443349428 6.9742907333097799 0 -0.87461971476443456 0.48480960649040278 1.5 0 0 1 I I #
point $-1 -31.476561967453883 -32.159639800326168 8.3933431140127599 #
plane-surface $-1 0 0 15.608103478473684 0 0 1 1 0 0 forward_v I I I I #
coedge $-1 $330 $329 $322 $406 forward $208 $-1 #
coedge $-1 $322 $210 $212 $326 reversed $126 $-1 #
coedge $-1 $210 $321 $320 $406 reversed $126 $-1 #
coedge $-1 $218 $213 $210 $324 forward $219 $-1 #
edge $-1 $327 -41.337564932820811 $407 -33.339151281331326 $323 $408 forward 7 unknown #
coedge $-1 $212 $211 $330 $409 reversed $78 $-1 #
edge $-1 $410 2.9223086620188301e-014 $327 16.498051079043197 $321 $411 forward 7 unknown #
vertex $-1 $214 $412 #
straight-curve $-1 16.488280983726938 -28.160432974581443 15.608103478473684 -1 0 0 I I #
coedge $-1 $320 $215 $218 $334 reversed $208 $-1 #
coedge $-1 $215 $320 $325 $409 forward $208 $-1 #
vertex $-1 $216 $413 #
straight-curve $-1 44.5713158509393 -36.158846626070925 29.091071628044531 0 0 1 I I #
straight-curve $-1 44.5713158509393 -36.15884662607094 1.1785827495518504 0 -0.48480960649040278 -0.87461971476443456 I I #
edge $-1 $407 21.381808083968455 $220 44.5713158509393 $329 $414 forward 7 unknown #
point $-1 44.5713158509393 -36.158846626070925 15.608103478473684 #
point $-1 44.5713158509393 -28.160432974581443 15.608103478473684 #
edge $-1 $415 1 $415 0 $223 $-1 forward 7 unknown #
vertex $-1 $224 $416 #
ellipse-curve $-1 32.976561967453875 -29.599601443349428 6.9742907333097799 0 -0.87461971476443456 0.48480960649040278 1.5 0 0 1 I I #
point $-1 34.476561967453875 -32.159639800326168 8.3933431140127599 #
plane-surface $-1 58.789635914181957 0 0 -1 0 0 0 0 1 forward_v I I I I #
coedge $-1 $232 $230 $234 $346 reversed $141 $-1 #
edge $-1 $245 -15.608103478473684 $348 15.608103478473684 $244 $417 forward 7 unknown #
vertex $-1 $346 $418 #
straight-curve $-1 -58.789635914181957 -36.158846626070925 0 0 0 -1 I I #
edge $-1 $344 -36.158846626070925 $348 36.158846626070925 $342 $419 forward 7 unknown #
straight-curve $-1 0 -36.158846626070925 -15.608103478473684 -1 0 0 I I #
vertex $-1 $237 $420 #
straight-curve $-1 0 36.158846626070925 -15.608103478473684 1 0 0 I I #
point $-1 58.789635914181957 36.158846626070925 -15.608103478473684 #
point $-1 58.789635914181957 -36.158846626070925 -15.608103478473684 #
straight-curve $-1 -58.789635914181957 0 15.608103478473684 0 -1 0 I I #
point $-1 -58.789635914181957 36.158846626070925 15.608103478473684 #
point $-1 -58.789635914181957 -36.158846626070925 15.608103478473684 #
straight-curve $-1 58.789635914181957 -36.158846626070925 0 0 0 -1 I I #
straight-curve $-1 58.789635914181957 36.158846626070925 0 0 0 -1 I I #
plane-surface $-1 0 -36.158846626070925 0 0 1 0 0 0 1 forward_v I I I I #
coedge $-1 $421 $257 $361 $422 reversed $160 $-1 #
coedge $-1 $257 $421 $271 $372 reversed $160 $-1 #
edge $-1 $364 -3.2960073250312405 $362 3.2960073250312405 $258 $423 forward 7 unknown #
coedge $-1 $259 $367 $358 $422 forward $255 $-1 #
vertex $-1 $260 $424 #
straight-curve $-1 0 36.158846626070925 -15.608103478473684 1 0 0 I I #
vertex $-1 $261 $425 #
straight-curve $-1 -64.213193460642316 36.158846626070925 -9.0160888284112026 -1 0 0 I I #
point $-1 -58.789635914181957 36.158846626070925 -15.608103478473684 #
coedge $-1 $361 $264 $267 $370 forward $255 $-1 #
straight-curve $-1 -58.789635914181957 0 -15.608103478473684 0 -1 0 I I #
coedge $-1 $267 $266 $421 $426 forward $268 $-1 #
edge $-1 $269 -5.4235575464603585 $427 5.4235575464603585 $267 $428 forward 7 unknown #
point $-1 -58.789635914181957 -36.158846626070925 -15.608103478473684 #
edge $-1 $364 -36.158846626070925 $373 36.158846626070925 $359 $429 forward 7 unknown #
vertex $-1 $372 $430 #
straight-curve $-1 -64.213193460642316 -36.158846626070925 -9.0160888284112026 1 0 0 I I #
plane-surface $-1 0 -36.158846626070925 0 0 1 0 0 0 1 forward_v I I I I #
coedge $-1 $379 $278 $385 $431 reversed $174 $-1 #
coedge $-1 $290 $289 $278 $378 reversed $291 $-1 #
edge $-1 $380 -3.2960073250312405 $432 3.2960073250312405 $278 $433 forward 7 unknown #
coedge $-1 $279 $376 $281 $383 reversed $174 $-1 #
vertex $-1 $280 $434 #
vertex $-1 $280 $435 #
straight-curve $-1 69.636751007102674 0 -9.0160888284112026 0 1 0 I I #
edge $-1 $381 -3.2960073250312405 $386 3.2960073250312405 $379 $436 forward 7 unknown #
straight-curve $-1 64.213193460642316 36.158846626070925 -9.0160888284112026 -1 0 0 I I #
coedge $-1 $389 $283 $376 $431 forward $276 $-1 #
vertex $-1 $431 $437 #
straight-curve $-1 64.213193460642316 36.158846626070925 -15.608103478473684 1 0 0 I I #
point $-1 58.789635914181957 36.158846626070925 -15.608103478473684 #
coedge $-1 $287 $385 $289 $391 forward $276 $-1 #
straight-curve $-1 58.789635914181957 0 -15.608103478473684 0 1 0 I I #
edge $-1 $432 -5.4235575464603585 $292 5.4235575464603585 $289 $438 forward 7 unknown #
point $-1 58.789635914181957 -36.158846626070925 -15.608103478473684 #
straight-curve $-1 64.213193460642316 -36.158846626070925 -9.0160888284112026 1 0 0 I I #
coedge $-1 $308 $307 $300 $395 forward $297 $-1 #
edge $-1 $396 13.482968149570848 $399 27.912488878492656 $394 $439 forward 7 unknown #
vertex $-1 $312 $440 #
straight-curve $-1 -44.571315850939314 -69.497997907402251 15.608103478473684 0 -1 0 I I #
edge $-1 $399 -28.083034867212369 $309 -4.8935271002415242 $308 $441 forward 7 unknown #
vertex $-1 $398 $442 #
straight-curve $-1 -44.571315850939314 -36.15884662607094 1.1785827495518504 0 0.48480960649040278 0.87461971476443456 I I #
point $-1 -44.571315850939314 -28.160432974581443 15.608103478473684 #
point $-1 -21.381808083968469 -36.158846626070925 1.1785827495518759 #
straight-curve $-1 0 -36.158846626070925 15.608103478473684 1 0 0 I I #
vertex $-1 $315 $443 #
point $-1 -31.476561967453883 -29.599601443349428 6.9742907333097799 #
edge $-1 $407 13.482968149570848 $410 27.912488878492656 $320 $444 forward 7 unknown #
vertex $-1 $334 $445 #
straight-curve $-1 21.381808083968455 -69.497997907402251 15.608103478473684 0 -1 0 I I #
edge $-1 $410 4.893527100241517 $331 28.083034867212362 $330 $446 forward 7 unknown #
vertex $-1 $409 $447 #
straight-curve $-1 21.381808083968455 -36.15884662607094 1.1785827495518504 0 0.48480960649040278 0.87461971476443456 I I #
point $-1 21.381808083968455 -28.160432974581443 15.608103478473684 #
point $-1 44.5713158509393 -36.158846626070925 1.1785827495518759 #
straight-curve $-1 0 -36.158846626070925 15.608103478473684 1 0 0 I I #
vertex $-1 $337 $448 #
point $-1 34.476561967453875 -29.599601443349428 6.9742907333097799 #
straight-curve $-1 -58.789635914181957 36.158846626070925 0 0 0 -1 I I #
point $-1 -58.789635914181957 -36.158846626070925 -15.608103478473684 #
straight-curve $-1 -58.789635914181957 0 -15.608103478473684 0 1 0 I I #
point $-1 -58.789635914181957 36.158846626070925 -15.608103478473684 #
coedge $-1 $359 $358 $369 $426 reversed $160 $-1 #
edge $-1 $427 -36.158846626070925 $362 36.158846626070925 $358 $449 forward 7 unknown #
straight-curve $-1 -69.636751007102674 36.158846626070925 -12.312096153442443 0 0 -1 I I #
point $-1 -69.636751007102674 36.158846626070925 -15.608103478473684 #
point $-1 -69.636751007102674 36.158846626070925 -9.0160888284112026 #
edge $-1 $373 -3.2960073250312405 $427 3.2960073250312405 $421 $450 forward 7 unknown #
vertex $-1 $422 $451 #
straight-curve $-1 -64.213193460642316 -36.158846626070925 -15.608103478473684 -1 0 0 I I #
straight-curve $-1 -69.636751007102674 0 -9.0160888284112026 0 -1 0 I I #
point $-1 -69.636751007102674 -36.158846626070925 -9.0160888284112026 #
edge $-1 $386 -36.158846626070925 $432 36.158846626070925 $376 $452 forward 7 unknown #
vertex $-1 $378 $453 #
straight-curve $-1 69.636751007102674 -36.158846626070925 -12.312096153442443 0 0 -1 I I #
point $-1 69.636751007102674 -36.158846626070925 -9.0160888284112026 #
point $-1 69.636751007102674 36.158846626070925 -9.0160888284112026 #
straight-curve $-1 69.636751007102674 36.158846626070925 -12.312096153442443 0 0 -1 I I #
point $-1 69.636751007102674 36.158846626070925 -15.608103478473684 #
straight-curve $-1 64.213193460642316 -36.158846626070925 -15.608103478473684 -1 0 0 I I #
straight-curve $-1 -44.571315850939314 -36.158846626070925 29.091071628044531 0 0 -1 I I #
point $-1 -44.571315850939314 -36.158846626070925 15.608103478473684 #
straight-curve $-1 -16.488280983726945 -36.158846626070925 1.1785827495518728 1 0 0 I I #
point $-1 -44.571315850939314 -36.158846626070925 1.1785827495518759 #
point $-1 -32.976561967453883 -28.287671871202775 6.2470763235741762 #
straight-curve $-1 21.381808083968455 -36.158846626070925 29.091071628044531 0 0 -1 I I #
point $-1 21.381808083968455 -36.158846626070925 15.608103478473684 #
straight-curve $-1 16.488280983726938 -36.158846626070925 1.1785827495518728 1 0 0 I I #
point $-1 21.381808083968455 -36.158846626070925 1.1785827495518759 #
point $-1 32.976561967453875 -28.287671871202775 6.2470763235741762 #
straight-curve $-1 -69.636751007102674 0 -15.608103478473684 0 1 0 I I #
straight-curve $-1 -69.636751007102674 -36.158846626070925 -12.312096153442443 0 0 -1 I I #
point $-1 -69.636751007102674 -36.158846626070925 -15.608103478473684 #
straight-curve $-1 69.636751007102674 0 -15.608103478473684 0 -1 0 I I #
point $-1 69.636751007102674 -36.158846626070925 -15.608103478473684 #
End-of-ACIS-data 