500 0 12 0           
7 Unknown 11 ACIS 5.0 NT 24 Fri Mar 26 16:53:30 1999 
-1 9.9999999999999995e-007 1e-010 
body $-1 $12 $-1 $13 #
body $-1 $14 $-1 $15 #
body $-1 $16 $-1 $17 #
body $-1 $18 $-1 $19 #
body $-1 $20 $-1 $21 #
body $-1 $22 $-1 $23 #
body $-1 $24 $-1 $25 #
body $-1 $26 $-1 $27 #
body $-1 $28 $-1 $29 #
body $-1 $30 $-1 $31 #
body $-1 $32 $-1 $33 #
body $-1 $34 $-1 $35 #
lump $-1 $-1 $36 $0 #
transform $-1 1 0 0 0 1 0 0 0 1 71.994384594256417 35.147330303016496 9.7611688738816618 1 rotate no_reflect no_shear #
lump $-1 $-1 $37 $1 #
transform $-1 1 0 0 0 1 0 0 0 1 71.994384594256417 35.147330303016496 9.7611688738816618 1 rotate no_reflect no_shear #
lump $-1 $-1 $38 $2 #
transform $-1 1 0 0 0 1 0 0 0 1 71.994384594256417 35.147330303016496 9.7611688738816618 1 rotate no_reflect no_shear #
lump $-1 $-1 $39 $3 #
transform $-1 1 0 0 0 1 0 0 0 1 71.994384594256417 35.147330303016496 9.7611688738816618 1 rotate no_reflect no_shear #
lump $-1 $-1 $40 $4 #
transform $-1 1 0 0 0 1 0 0 0 1 71.994384594256417 35.147330303016496 9.7611688738816618 1 rotate no_reflect no_shear #
lump $-1 $-1 $41 $5 #
transform $-1 1 0 0 0 1 0 0 0 1 71.994384594256417 35.147330303016496 9.7611688738816618 1 rotate no_reflect no_shear #
lump $-1 $-1 $42 $6 #
transform $-1 1 0 0 0 1 0 0 0 1 71.994384594256417 35.147330303016496 9.7611688738816618 1 rotate no_reflect no_shear #
lump $-1 $-1 $43 $7 #
transform $-1 1 0 0 0 1 0 0 0 1 71.994384594256417 35.147330303016496 9.7611688738816618 1 rotate no_reflect no_shear #
lump $-1 $-1 $44 $8 #
transform $-1 1 0 0 0 1 0 0 0 1 71.994384594256417 35.147330303016496 9.7611688738816618 1 rotate no_reflect no_shear #
lump $-1 $-1 $45 $9 #
transform $-1 1 0 0 0 1 0 0 0 1 71.994384594256417 35.147330303016496 9.7611688738816618 1 rotate no_reflect no_shear #
lump $-1 $-1 $46 $10 #
transform $-1 1 0 0 0 1 0 0 0 1 71.994384594256417 35.147330303016496 9.7611688738816618 1 rotate no_reflect no_shear #
lump $-1 $-1 $47 $11 #
transform $-1 1 0 0 0 1 0 0 0 1 71.994384594256417 35.147330303016496 9.7611688738816618 1 rotate no_reflect no_shear #
shell $-1 $-1 $-1 $48 $-1 $12 #
shell $-1 $-1 $-1 $49 $-1 $14 #
shell $-1 $-1 $-1 $50 $-1 $16 #
shell $-1 $-1 $-1 $51 $-1 $18 #
shell $-1 $-1 $-1 $52 $-1 $20 #
shell $-1 $-1 $-1 $53 $-1 $22 #
shell $-1 $-1 $-1 $54 $-1 $24 #
shell $-1 $-1 $-1 $55 $-1 $26 #
shell $-1 $-1 $-1 $56 $-1 $28 #
shell $-1 $-1 $-1 $57 $-1 $30 #
shell $-1 $-1 $-1 $58 $-1 $32 #
shell $-1 $-1 $-1 $59 $-1 $34 #
face $-1 $60 $61 $36 $-1 $62 forward single #
face $-1 $63 $64 $37 $-1 $65 forward single #
face $-1 $66 $67 $38 $-1 $68 reversed single #
face $-1 $69 $70 $39 $-1 $71 forward single #
face $-1 $72 $73 $40 $-1 $74 forward single #
face $-1 $75 $76 $41 $-1 $77 reversed single #
face $-1 $78 $79 $42 $-1 $80 forward single #
face $-1 $81 $82 $43 $-1 $83 forward single #
face $-1 $84 $85 $44 $-1 $86 reversed single #
face $-1 $87 $88 $45 $-1 $89 forward single #
face $-1 $90 $91 $46 $-1 $92 forward single #
face $-1 $93 $94 $47 $-1 $95 forward single #
face $-1 $96 $97 $36 $-1 $98 reversed single #
loop $-1 $-1 $99 $48 #
plane-surface $-1 0 0 9.7611688738816618 0 0 1 1 0 0 forward_v I I I I #
face $-1 $100 $101 $37 $-1 $102 reversed single #
loop $-1 $-1 $103 $49 #
plane-surface $-1 -66.445514437133014 0 7.3715044740049374 0 0 1 1 0 0 forward_v I I I I #
face $-1 $104 $105 $38 $-1 $106 reversed single #
loop $-1 $-1 $107 $50 #
plane-surface $-1 -36.375136407482728 -111.44975393672644 123.48136090358373 1 0 0 0 0.52991927123019833 -0.84804809178421925 forward_v I I I I #
face $-1 $108 $109 $39 $-1 $110 forward single #
loop $-1 $111 $112 $51 #
cone-surface $-1 -28.513981033065505 -26.288085411331664 2.1314869589647918 0 0.52991927123019833 -0.84804809178421925 2.5 0 0 1 I I 0 1 2.5 forward I I I I #
face $-1 $113 $114 $40 $-1 $115 forward single #
loop $-1 $116 $117 $52 #
cone-surface $-1 -16.722247971439671 -26.288085411331664 2.1314869589647918 0 0.52991927123019833 -0.84804809178421925 2.5 0 0 1 I I 0 1 2.5 forward I I I I #
face $-1 $118 $119 $41 $-1 $120 reversed single #
loop $-1 $-1 $121 $53 #
plane-surface $-1 19.958832911269276 -111.44975393672644 123.48136090358373 1 0 0 0 0.52991927123019833 -0.84804809178421925 forward_v I I I I #
face $-1 $122 $123 $42 $-1 $124 forward single #
loop $-1 $125 $126 $54 #
cone-surface $-1 27.819988285686492 -26.288085411331664 2.1314869589647918 0 0.52991927123019833 -0.84804809178421925 2.5 0 0 1 I I 0 1 2.5 forward I I I I #
face $-1 $127 $128 $43 $-1 $129 forward single #
loop $-1 $130 $131 $55 #
cone-surface $-1 39.611721347312326 -26.288085411331664 2.1314869589647918 0 0.52991927123019833 -0.84804809178421925 2.5 0 0 1 I I 0 1 2.5 forward I I I I #
face $-1 $132 $133 $44 $-1 $134 reversed single #
loop $-1 $-1 $135 $56 #
plane-surface $-1 -54.005510159958668 -24.465922486549097 37.383172451773873 0 0.52991927123019833 0.84804809178421925 1 0 0 forward_v I I I I #
face $-1 $136 $137 $45 $-1 $138 forward single #
loop $-1 $139 $140 $57 #
cone-surface $-1 -58.140190631989228 27.119382585857295 4.4291444414794796 0 -0.52991927123019833 -0.84804809178421925 1 0 0 1 I I 0 1 1 forward I I I I #
face $-1 $141 $142 $46 $-1 $143 forward single #
loop $-1 $144 $145 $58 #
cone-surface $-1 -54.005510159958668 27.119382585857295 4.4291444414794796 0 -0.52991927123019833 -0.84804809178421925 1 0 0 1 I I 0 1 1 forward I I I I #
face $-1 $146 $147 $47 $-1 $148 forward single #
loop $-1 $149 $150 $59 #
cone-surface $-1 -49.870829687928108 27.119382585857295 4.4291444414794796 0 -0.52991927123019833 -0.84804809178421925 1 0 0 1 I I 0 1 1 forward I I I I #
face $-1 $151 $152 $36 $-1 $153 reversed single #
loop $-1 $-1 $154 $60 #
plane-surface $-1 0 0 -9.7611688738816618 0 0 1 1 0 0 forward_v I I I I #
coedge $-1 $155 $156 $157 $158 forward $61 $-1 #
face $-1 $159 $160 $37 $-1 $161 reversed single #
loop $-1 $-1 $162 $63 #
plane-surface $-1 -66.445514437133014 0 2.4496018168179026 0 0 1 1 0 0 forward_v I I I I #
coedge $-1 $163 $164 $165 $166 forward $64 $-1 #
face $-1 $167 $168 $38 $-1 $169 reversed single #
loop $-1 $-1 $170 $66 #
plane-surface $-1 -22.618114502252588 -35.147330303016489 1.3719599549070409 0 -0.52991927123019833 0.84804809178421925 1 0 0 forward_v I I I I #
coedge $-1 $171 $172 $173 $174 reversed $67 $-1 #
face $-1 $-1 $175 $39 $-1 $176 forward single #
loop $-1 $177 $178 $69 #
cone-surface $-1 -28.513981033065505 -23.479211659553108 -2.3636506111950455 0 0.52991927123019833 -0.84804809178421925 1.25 0 0 1 I I -0.70710678118654746 0.70710678118654746 1.25 forward I I I I #
loop $-1 $-1 $179 $51 #
coedge $-1 $112 $112 $180 $181 reversed $70 $-1 #
face $-1 $-1 $182 $40 $-1 $183 forward single #
loop $-1 $184 $185 $72 #
cone-surface $-1 -16.722247971439671 -23.479211659553108 -2.3636506111950455 0 0.52991927123019833 -0.84804809178421925 1.25 0 0 1 I I -0.70710678118654746 0.70710678118654746 1.25 forward I I I I #
loop $-1 $-1 $186 $52 #
coedge $-1 $117 $117 $187 $188 reversed $73 $-1 #
face $-1 $189 $190 $41 $-1 $191 reversed single #
loop $-1 $-1 $192 $75 #
plane-surface $-1 33.715854816499416 -35.147330303016489 1.3719599549070409 0 -0.52991927123019833 0.84804809178421925 1 0 0 forward_v I I I I #
coedge $-1 $193 $194 $195 $196 reversed $76 $-1 #
face $-1 $-1 $197 $42 $-1 $198 forward single #
loop $-1 $199 $200 $78 #
cone-surface $-1 27.819988285686492 -23.479211659553108 -2.3636506111950455 0 0.52991927123019833 -0.84804809178421925 1.25 0 0 1 I I -0.70710678118654746 0.70710678118654746 1.25 forward I I I I #
loop $-1 $-1 $201 $54 #
coedge $-1 $126 $126 $202 $203 reversed $79 $-1 #
face $-1 $-1 $204 $43 $-1 $205 forward single #
loop $-1 $206 $207 $81 #
cone-surface $-1 39.611721347312326 -23.479211659553108 -2.3636506111950455 0 0.52991927123019833 -0.84804809178421925 1.25 0 0 1 I I -0.70710678118654746 0.70710678118654746 1.25 forward I I I I #
loop $-1 $-1 $208 $55 #
coedge $-1 $131 $131 $209 $210 reversed $82 $-1 #
face $-1 $211 $212 $44 $-1 $213 forward single #
loop $-1 $-1 $214 $84 #
plane-surface $-1 -47.114376039907725 51.836501147160853 159.49257340045057 -1 0 0 0 0.52991927123019833 0.84804809178421925 forward_v I I I I #
coedge $-1 $215 $216 $217 $218 reversed $85 $-1 #
face $-1 $-1 $219 $45 $-1 $220 forward single #
loop $-1 $221 $222 $87 #
cone-surface $-1 -58.140190631989228 26.530878990153347 3.4873418341006577 0 -0.52991927123019833 -0.84804809178421925 0.5 0 0 1 I I -0.70710678118654779 0.70710678118654713 0.5 forward I I I I #
loop $-1 $-1 $223 $57 #
coedge $-1 $140 $140 $224 $225 reversed $88 $-1 #
face $-1 $-1 $226 $46 $-1 $227 forward single #
loop $-1 $228 $229 $90 #
cone-surface $-1 -54.005510159958668 26.530878990153347 3.4873418341006577 0 -0.52991927123019833 -0.84804809178421925 0.5 0 0 1 I I -0.70710678118654779 0.70710678118654713 0.5 forward I I I I #
loop $-1 $-1 $230 $58 #
coedge $-1 $145 $145 $231 $232 reversed $91 $-1 #
face $-1 $-1 $233 $47 $-1 $234 forward single #
loop $-1 $235 $236 $93 #
cone-surface $-1 -49.870829687928108 26.530878990153347 3.4873418341006577 0 -0.52991927123019833 -0.84804809178421925 0.5 0 0 1 I I -0.70710678118654779 0.70710678118654713 0.5 forward I I I I #
loop $-1 $-1 $237 $59 #
coedge $-1 $150 $150 $238 $239 reversed $94 $-1 #
face $-1 $240 $241 $36 $-1 $242 reversed single #
loop $-1 $-1 $243 $96 #
plane-surface $-1 0 -35.147330303016496 0 0 1 0 0 0 1 forward_v I I I I #
coedge $-1 $244 $245 $246 $247 forward $97 $-1 #
coedge $-1 $248 $99 $249 $250 forward $61 $-1 #
coedge $-1 $99 $248 $251 $252 forward $61 $-1 #
coedge $-1 $253 $254 $99 $158 reversed $255 $-1 #
edge $-1 $256 -35.147330303016496 $257 35.147330303016496 $157 $258 forward 7 unknown #
face $-1 $259 $260 $37 $-1 $261 reversed single #
loop $-1 $-1 $262 $100 #
plane-surface $-1 -60.89664428000961 0 4.91055314541142 -1 0 0 0 0 1 forward_v I I I I #
coedge $-1 $263 $264 $265 $266 forward $101 $-1 #
coedge $-1 $267 $103 $268 $269 reversed $64 $-1 #
coedge $-1 $103 $267 $270 $271 reversed $64 $-1 #
coedge $-1 $262 $272 $103 $166 reversed $160 $-1 #
edge $-1 $273 -35.147330303016496 $274 35.147330303016496 $165 $275 forward 7 unknown #
face $-1 $276 $277 $38 $-1 $278 forward single #
loop $-1 $-1 $279 $104 #
plane-surface $-1 -8.8610925970224486 -111.44975393672644 123.48136090358373 -1 0 0 0 -0.52991927123019833 0.84804809178421925 forward_v I I I I #
coedge $-1 $280 $281 $282 $283 reversed $105 $-1 #
coedge $-1 $172 $107 $284 $285 reversed $67 $-1 #
coedge $-1 $107 $171 $280 $286 reversed $67 $-1 #
coedge $-1 $282 $287 $107 $174 forward $288 $-1 #
edge $-1 $289 51.979511577910202 $290 60.368720496884833 $173 $291 forward 7 unknown #
loop $-1 $-1 $180 $108 #
plane-surface $-1 -22.618114502252588 -35.147330303016489 1.3719599549070409 0 -0.52991927123019833 0.84804809178421925 1 0 0 forward_v I I I I #
loop $-1 $-1 $292 $69 #
coedge $-1 $178 $178 $179 $293 reversed $109 $-1 #
coedge $-1 $179 $179 $178 $293 forward $111 $-1 #
coedge $-1 $180 $180 $112 $181 forward $175 $-1 #
edge $-1 $294 1.1270718810667952e-016 $294 6.2831853071796004 $180 $295 forward 7 unknown #
loop $-1 $-1 $187 $113 #
plane-surface $-1 -22.618114502252588 -35.147330303016489 1.3719599549070409 0 -0.52991927123019833 0.84804809178421925 1 0 0 forward_v I I I I #
loop $-1 $-1 $296 $72 #
coedge $-1 $185 $185 $186 $297 reversed $114 $-1 #
coedge $-1 $186 $186 $185 $297 forward $116 $-1 #
coedge $-1 $187 $187 $117 $188 forward $182 $-1 #
edge $-1 $298 1.1270718810667952e-016 $298 6.2831853071796004 $187 $299 forward 7 unknown #
face $-1 $300 $301 $41 $-1 $302 reversed single #
loop $-1 $-1 $303 $118 #
plane-surface $-1 47.472876721729556 -111.44975393672644 123.48136090358373 -1 0 0 0 -0.52991927123019833 0.84804809178421925 forward_v I I I I #
coedge $-1 $304 $305 $306 $307 reversed $119 $-1 #
coedge $-1 $194 $121 $308 $309 reversed $76 $-1 #
coedge $-1 $121 $193 $304 $310 reversed $76 $-1 #
coedge $-1 $306 $311 $121 $196 forward $301 $-1 #
edge $-1 $312 51.979511577910202 $313 60.368720496884833 $195 $314 forward 7 unknown #
loop $-1 $-1 $202 $122 #
plane-surface $-1 33.715854816499416 -35.147330303016489 1.3719599549070409 0 -0.52991927123019833 0.84804809178421925 1 0 0 forward_v I I I I #
loop $-1 $-1 $315 $78 #
coedge $-1 $200 $200 $201 $316 reversed $123 $-1 #
coedge $-1 $201 $201 $200 $316 forward $125 $-1 #
coedge $-1 $202 $202 $126 $203 forward $197 $-1 #
edge $-1 $317 1.1270718810667952e-016 $317 6.2831853071796004 $202 $318 forward 7 unknown #
loop $-1 $-1 $209 $127 #
plane-surface $-1 33.715854816499416 -35.147330303016489 1.3719599549070409 0 -0.52991927123019833 0.84804809178421925 1 0 0 forward_v I I I I #
loop $-1 $-1 $319 $81 #
coedge $-1 $207 $207 $208 $320 reversed $128 $-1 #
coedge $-1 $208 $208 $207 $320 forward $130 $-1 #
coedge $-1 $209 $209 $131 $210 forward $204 $-1 #
edge $-1 $321 1.1270718810667952e-016 $321 6.2831853071796004 $209 $322 forward 7 unknown #
face $-1 $323 $324 $44 $-1 $325 reversed single #
loop $-1 $-1 $326 $132 #
plane-surface $-1 -60.89664428000961 0 4.91055314541142 -1 0 0 0 0 1 forward_v I I I I #
coedge $-1 $327 $328 $329 $330 reversed $133 $-1 #
coedge $-1 $331 $135 $326 $332 forward $85 $-1 #
coedge $-1 $135 $331 $327 $333 forward $85 $-1 #
coedge $-1 $329 $334 $135 $218 forward $335 $-1 #
edge $-1 $336 -33.893889200030273 $337 -20.111620959928391 $217 $338 forward 7 unknown #
loop $-1 $-1 $224 $136 #
plane-surface $-1 -54.005510159958668 -24.465922486549097 37.383172451773873 0 0.52991927123019833 0.84804809178421925 1 0 0 forward_v I I I I #
loop $-1 $-1 $339 $87 #
coedge $-1 $222 $222 $223 $340 reversed $137 $-1 #
coedge $-1 $223 $223 $222 $340 forward $139 $-1 #
coedge $-1 $224 $224 $140 $225 forward $219 $-1 #
edge $-1 $341 8.453039108000959e-016 $341 6.2831853071796013 $224 $342 forward 7 unknown #
loop $-1 $-1 $231 $141 #
plane-surface $-1 -54.005510159958668 -24.465922486549097 37.383172451773873 0 0.52991927123019833 0.84804809178421925 1 0 0 forward_v I I I I #
loop $-1 $-1 $343 $90 #
coedge $-1 $229 $229 $230 $344 reversed $142 $-1 #
coedge $-1 $230 $230 $229 $344 forward $144 $-1 #
coedge $-1 $231 $231 $145 $232 forward $226 $-1 #
edge $-1 $345 8.453039108000959e-016 $345 6.2831853071796013 $231 $346 forward 7 unknown #
loop $-1 $-1 $238 $146 #
plane-surface $-1 -54.005510159958668 -24.465922486549097 37.383172451773873 0 0.52991927123019833 0.84804809178421925 1 0 0 forward_v I I I I #
loop $-1 $-1 $347 $93 #
coedge $-1 $236 $236 $237 $348 reversed $147 $-1 #
coedge $-1 $237 $237 $236 $348 forward $149 $-1 #
coedge $-1 $238 $238 $150 $239 forward $233 $-1 #
edge $-1 $349 8.453039108000959e-016 $349 6.2831853071796013 $238 $350 forward 7 unknown #
face $-1 $351 $352 $36 $-1 $353 reversed single #
loop $-1 $-1 $354 $151 #
plane-surface $-1 -71.994384594256417 0 0 1 0 0 0 0 -1 forward_v I I I I #
coedge $-1 $355 $251 $356 $357 forward $152 $-1 #
coedge $-1 $358 $154 $355 $359 forward $97 $-1 #
coedge $-1 $154 $358 $360 $361 forward $97 $-1 #
coedge $-1 $254 $253 $154 $247 reversed $255 $-1 #
edge $-1 $362 -35.147330303016496 $363 35.147330303016496 $246 $364 forward 7 unknown #
coedge $-1 $156 $155 $365 $366 forward $61 $-1 #
coedge $-1 $367 $368 $155 $250 reversed $352 $-1 #
edge $-1 $257 -71.994384594256417 $369 71.994384594256417 $249 $370 forward 7 unknown #
coedge $-1 $243 $371 $156 $252 reversed $152 $-1 #
edge $-1 $372 -71.994384594256417 $256 71.994384594256417 $251 $373 forward 7 unknown #
coedge $-1 $246 $157 $371 $374 forward $255 $-1 #
coedge $-1 $157 $246 $367 $375 reversed $255 $-1 #
loop $-1 $-1 $253 $351 #
vertex $-1 $158 $376 #
vertex $-1 $158 $377 #
straight-curve $-1 71.994384594256417 0 9.7611688738816618 0 1 0 I I #
face $-1 $378 $379 $37 $-1 $380 reversed single #
loop $-1 $-1 $381 $159 #
plane-surface $-1 0 -35.147330303016496 0 0 1 0 0 0 1 forward_v I I I I #
coedge $-1 $265 $165 $382 $383 reversed $160 $-1 #
coedge $-1 $384 $162 $381 $385 reversed $101 $-1 #
coedge $-1 $162 $384 $386 $387 reversed $101 $-1 #
coedge $-1 $272 $262 $162 $266 reversed $160 $-1 #
edge $-1 $388 -35.147330303016496 $389 35.147330303016496 $265 $390 forward 7 unknown #
coedge $-1 $164 $163 $391 $392 reversed $64 $-1 #
coedge $-1 $393 $394 $163 $269 forward $395 $-1 #
edge $-1 $396 -38.77162737568991 $274 -27.673887061443104 $268 $397 forward 7 unknown #
coedge $-1 $398 $382 $164 $271 forward $260 $-1 #
edge $-1 $273 27.673887061443104 $399 38.77162737568991 $270 $400 forward 7 unknown #
coedge $-1 $165 $265 $393 $401 reversed $160 $-1 #
vertex $-1 $271 $402 #
vertex $-1 $269 $403 #
straight-curve $-1 -60.89664428000961 0 7.3715044740049374 0 1 0 I I #
face $-1 $-1 $288 $38 $-1 $404 reversed single #
loop $-1 $-1 $405 $167 #
plane-surface $-1 0 0 9.7611688738816618 0 0 1 1 0 0 forward_v I I I I #
coedge $-1 $406 $407 $408 $409 reversed $168 $-1 #
coedge $-1 $410 $170 $172 $286 forward $105 $-1 #
coedge $-1 $170 $410 $406 $411 forward $105 $-1 #
coedge $-1 $408 $173 $170 $283 forward $288 $-1 #
edge $-1 $290 -25.066079156356434 $412 2.4479646541038456 $282 $413 forward 7 unknown #
coedge $-1 $414 $415 $171 $285 forward $277 $-1 #
edge $-1 $416 -34.003087123234785 $289 -20.577546665346723 $284 $417 forward 7 unknown #
edge $-1 $290 -8.3790584163743152e-015 $416 15.83110744302471 $172 $418 forward 7 unknown #
coedge $-1 $173 $408 $414 $419 reversed $288 $-1 #
loop $-1 $-1 $408 $276 #
vertex $-1 $419 $420 #
vertex $-1 $174 $421 #
straight-curve $-1 -36.375136407482728 -35.147330303016496 61.740680451791867 0 0 -1 I I #
coedge $-1 $292 $292 $-1 $422 reversed $177 $-1 #
edge $-1 $423 0 $423 6.2831853071796004 $178 $424 forward 7 unknown #
vertex $-1 $181 $425 #
ellipse-curve $-1 -28.513981033065505 -28.434560074072468 5.5665644143943478 0 -0.52991927123019833 0.84804809178421925 2.5 0 0 1 I I #
coedge $-1 $296 $296 $-1 $426 reversed $184 $-1 #
edge $-1 $427 0 $427 6.2831853071796004 $185 $428 forward 7 unknown #
vertex $-1 $188 $429 #
ellipse-curve $-1 -16.722247971439671 -28.434560074072468 5.5665644143943478 0 -0.52991927123019833 0.84804809178421925 2.5 0 0 1 I I #
face $-1 $-1 $430 $41 $-1 $431 forward single #
loop $-1 $-1 $195 $189 #
plane-surface $-1 0 -35.147330303016496 0 0 1 0 0 0 1 forward_v I I I I #
coedge $-1 $432 $433 $434 $435 reversed $190 $-1 #
coedge $-1 $436 $192 $194 $310 forward $119 $-1 #
coedge $-1 $192 $436 $432 $437 forward $119 $-1 #
coedge $-1 $434 $195 $192 $307 forward $301 $-1 #
edge $-1 $313 3.1009055030195682 $438 30.614949313479848 $306 $439 forward 7 unknown #
coedge $-1 $440 $441 $193 $309 forward $430 $-1 #
edge $-1 $442 -34.003087123234785 $312 -20.577546665346723 $308 $443 forward 7 unknown #
edge $-1 $313 -8.3790584163743152e-015 $442 15.83110744302471 $194 $444 forward 7 unknown #
coedge $-1 $195 $434 $440 $445 reversed $301 $-1 #
vertex $-1 $445 $446 #
vertex $-1 $196 $447 #
straight-curve $-1 19.958832911269276 -35.147330303016496 61.740680451791867 0 0 -1 I I #
coedge $-1 $315 $315 $-1 $448 reversed $199 $-1 #
edge $-1 $449 0 $449 6.2831853071796004 $200 $450 forward 7 unknown #
vertex $-1 $203 $451 #
ellipse-curve $-1 27.819988285686492 -28.434560074072468 5.5665644143943478 0 -0.52991927123019833 0.84804809178421925 2.5 0 0 1 I I #
coedge $-1 $319 $319 $-1 $452 reversed $206 $-1 #
edge $-1 $453 0 $453 6.2831853071796004 $207 $454 forward 7 unknown #
vertex $-1 $210 $455 #
ellipse-curve $-1 39.611721347312326 -28.434560074072468 5.5665644143943478 0 -0.52991927123019833 0.84804809178421925 2.5 0 0 1 I I #
face $-1 $-1 $335 $44 $-1 $456 forward single #
loop $-1 $-1 $457 $211 #
plane-surface $-1 0 35.147330303016496 0 0 -1 0 0 0 -1 forward_v I I I I #
coedge $-1 $458 $459 $215 $332 reversed $212 $-1 #
coedge $-1 $328 $214 $216 $333 reversed $133 $-1 #
coedge $-1 $214 $327 $457 $460 reversed $133 $-1 #
coedge $-1 $461 $217 $214 $330 forward $335 $-1 #
edge $-1 $337 -6.1797277847045855 $462 9.2290797294360694 $329 $463 forward 7 unknown #
coedge $-1 $216 $215 $464 $465 reversed $85 $-1 #
edge $-1 $336 52.124927470118635 $466 70.294660606032977 $326 $467 forward 7 unknown #
edge $-1 $468 -70.294660606032977 $337 -52.124927470118635 $327 $469 forward 7 unknown #
coedge $-1 $217 $461 $458 $470 forward $335 $-1 #
loop $-1 $-1 $329 $323 #
vertex $-1 $470 $471 #
vertex $-1 $218 $472 #
straight-curve $-1 -27.002755079979334 19.738522788875841 9.7611688738816582 1 0 0 I I #
coedge $-1 $339 $339 $-1 $473 reversed $221 $-1 #
edge $-1 $474 0 $474 6.2831853071796004 $222 $475 forward 7 unknown #
vertex $-1 $225 $476 #
ellipse-curve $-1 -58.140190631989228 27.442926545946158 4.9469230029662103 0 0.52991927123019833 0.84804809178421925 1 0 0 1 I I #
coedge $-1 $343 $343 $-1 $477 reversed $228 $-1 #
edge $-1 $478 0 $478 6.2831853071796004 $229 $479 forward 7 unknown #
vertex $-1 $232 $480 #
ellipse-curve $-1 -54.005510159958668 27.442926545946158 4.9469230029662103 0 0.52991927123019833 0.84804809178421925 1 0 0 1 I I #
coedge $-1 $347 $347 $-1 $481 reversed $235 $-1 #
edge $-1 $482 0 $482 6.2831853071796004 $236 $483 forward 7 unknown #
vertex $-1 $239 $484 #
ellipse-curve $-1 -49.870829687928108 27.442926545946158 4.9469230029662103 0 0.52991927123019833 0.84804809178421925 1 0 0 1 I I #
face $-1 $-1 $255 $36 $-1 $485 reversed single #
loop $-1 $-1 $367 $240 #
plane-surface $-1 0 35.147330303016496 0 0 -1 0 0 0 -1 forward_v I I I I #
coedge $-1 $486 $365 $368 $487 forward $241 $-1 #
coedge $-1 $371 $243 $244 $359 reversed $152 $-1 #
coedge $-1 $365 $486 $243 $357 reversed $241 $-1 #
edge $-1 $372 -9.7611688738816618 $488 9.7611688738816618 $356 $489 forward 7 unknown #
coedge $-1 $245 $244 $486 $490 forward $97 $-1 #
edge $-1 $363 -71.994384594256417 $488 71.994384594256417 $355 $491 forward 7 unknown #
coedge $-1 $368 $367 $245 $361 reversed $352 $-1 #
edge $-1 $492 -71.994384594256417 $362 71.994384594256417 $360 $493 forward 7 unknown #
vertex $-1 $247 $494 #
vertex $-1 $374 $495 #
straight-curve $-1 71.994384594256417 0 -9.7611688738816618 0 -1 0 I I #
coedge $-1 $354 $356 $248 $366 reversed $241 $-1 #
edge $-1 $369 -35.147330303016496 $372 35.147330303016496 $365 $496 forward 7 unknown #
coedge $-1 $360 $249 $254 $375 forward $352 $-1 #
coedge $-1 $249 $360 $354 $487 reversed $352 $-1 #
vertex $-1 $250 $497 #
straight-curve $-1 0 35.147330303016496 9.7611688738816618 -1 0 0 I I #
coedge $-1 $251 $355 $253 $374 reversed $152 $-1 #
vertex $-1 $366 $498 #
straight-curve $-1 0 -35.147330303016496 9.7611688738816618 1 0 0 I I #
edge $-1 $256 -9.7611688738816618 $363 9.7611688738816618 $253 $499 forward 7 unknown #
edge $-1 $257 -9.7611688738816618 $362 9.7611688738816618 $254 $500 forward 7 unknown #
point $-1 71.994384594256417 -35.147330303016496 9.7611688738816618 #
point $-1 71.994384594256417 35.147330303016496 9.7611688738816618 #
face $-1 $-1 $395 $37 $-1 $501 reversed single #
loop $-1 $-1 $502 $259 #
plane-surface $-1 -71.994384594256417 0 0 1 0 0 0 0 -1 forward_v I I I I #
coedge $-1 $382 $398 $263 $385 forward $260 $-1 #
coedge $-1 $270 $381 $262 $383 forward $260 $-1 #
edge $-1 $389 -0.0056747558878074145 $273 4.9162279012992274 $382 $503 forward 7 unknown #
coedge $-1 $264 $263 $502 $504 reversed $101 $-1 #
edge $-1 $505 -38.77162737568991 $389 -27.673887061443104 $381 $506 forward 7 unknown #
coedge $-1 $394 $393 $264 $387 forward $395 $-1 #
edge $-1 $388 27.673887061443104 $507 38.77162737568991 $386 $508 forward 7 unknown #
vertex $-1 $387 $509 #
vertex $-1 $385 $510 #
straight-curve $-1 -60.89664428000961 0 2.4496018168179026 0 -1 0 I I #
coedge $-1 $511 $512 $267 $392 forward $379 $-1 #
edge $-1 $399 -35.147330303016496 $396 35.147330303016496 $391 $513 forward 7 unknown #
coedge $-1 $386 $268 $272 $401 forward $395 $-1 #
coedge $-1 $268 $386 $511 $514 reversed $395 $-1 #
loop $-1 $-1 $386 $378 #
vertex $-1 $514 $515 #
straight-curve $-1 -33.222757218566507 35.147330303016496 7.3715044740049374 1 0 0 I I #
coedge $-1 $381 $270 $512 $516 forward $260 $-1 #
vertex $-1 $516 $517 #
straight-curve $-1 -33.222757218566507 -35.147330303016496 7.3715044740049374 -1 0 0 I I #
edge $-1 $274 -4.9162279012992274 $388 0.0056747558878074145 $393 $518 forward 7 unknown #
point $-1 -60.89664428000961 -35.147330303016496 7.3715044740049374 #
point $-1 -60.89664428000961 35.147330303016496 7.3715044740049374 #
plane-surface $-1 0 -35.147330303016496 0 0 1 0 0 0 1 forward_v I I I I #
coedge $-1 $415 $414 $407 $519 forward $277 $-1 #
coedge $-1 $407 $279 $281 $411 reversed $168 $-1 #
coedge $-1 $279 $406 $405 $519 reversed $168 $-1 #
coedge $-1 $287 $282 $279 $409 forward $288 $-1 #
edge $-1 $412 -60.368720496884833 $520 -51.979511577910202 $408 $521 forward 7 unknown #
coedge $-1 $281 $280 $415 $522 reversed $105 $-1 #
edge $-1 $523 -15.83110744302471 $412 8.3790584163743152e-015 $406 $524 forward 7 unknown #
vertex $-1 $283 $525 #
straight-curve $-1 -11.309057251126294 -35.147330303016496 1.3719599549070365 1 0 0 I I #
coedge $-1 $405 $284 $287 $419 forward $277 $-1 #
coedge $-1 $284 $405 $410 $522 forward $277 $-1 #
vertex $-1 $285 $526 #
straight-curve $-1 -36.375136407482728 -55.724876968363219 9.7611688738816582 0 -1 0 I I #
straight-curve $-1 -36.375136407482728 -35.147330303016489 1.3719599549070409 0 0.84804809178421925 0.52991927123019833 I I #
edge $-1 $289 -36.375136407482728 $520 -8.8610925970224486 $287 $527 forward 7 unknown #
point $-1 -36.375136407482728 -35.147330303016496 9.7611688738816618 #
point $-1 -36.375136407482728 -35.147330303016496 1.3719599549070365 #
edge $-1 $528 1 $528 0 $292 $-1 forward 7 unknown #
vertex $-1 $293 $529 #
ellipse-curve $-1 -28.513981033065505 -24.141610748590857 -1.3035904964647713 0 -0.52991927123019833 0.84804809178421925 2.5 0 0 1 I I #
point $-1 -26.013981033065505 -28.434560074072472 5.566564414394354 #
edge $-1 $530 1 $530 0 $296 $-1 forward 7 unknown #
vertex $-1 $297 $531 #
ellipse-curve $-1 -16.722247971439671 -24.141610748590857 -1.3035904964647713 0 -0.52991927123019833 0.84804809178421925 2.5 0 0 1 I I #
point $-1 -14.222247971439671 -28.434560074072472 5.566564414394354 #
loop $-1 $-1 $308 $300 #
plane-surface $-1 0 0 9.7611688738816618 0 0 1 1 0 0 forward_v I I I I #
coedge $-1 $433 $303 $305 $437 reversed $190 $-1 #
coedge $-1 $303 $432 $532 $533 reversed $190 $-1 #
coedge $-1 $311 $306 $303 $435 forward $301 $-1 #
edge $-1 $438 -60.368720496884833 $534 -51.979511577910202 $434 $535 forward 7 unknown #
coedge $-1 $305 $304 $441 $536 reversed $119 $-1 #
edge $-1 $537 -15.83110744302471 $438 8.3790584163743152e-015 $432 $538 forward 7 unknown #
vertex $-1 $307 $539 #
straight-curve $-1 16.857927408249708 -35.147330303016496 1.3719599549070365 1 0 0 I I #
coedge $-1 $532 $308 $311 $445 forward $430 $-1 #
coedge $-1 $308 $532 $436 $536 forward $430 $-1 #
vertex $-1 $309 $540 #
straight-curve $-1 19.958832911269276 -55.724876968363219 9.7611688738816582 0 -1 0 I I #
straight-curve $-1 19.958832911269276 -35.147330303016489 1.3719599549070409 0 0.84804809178421925 0.52991927123019833 I I #
edge $-1 $312 19.958832911269276 $534 47.472876721729556 $311 $541 forward 7 unknown #
point $-1 19.958832911269276 -35.147330303016496 9.7611688738816618 #
point $-1 19.958832911269276 -35.147330303016496 1.3719599549070365 #
edge $-1 $542 1 $542 0 $315 $-1 forward 7 unknown #
vertex $-1 $316 $543 #
ellipse-curve $-1 27.819988285686492 -24.141610748590857 -1.3035904964647713 0 -0.52991927123019833 0.84804809178421925 2.5 0 0 1 I I #
point $-1 30.319988285686492 -28.434560074072472 5.566564414394354 #
edge $-1 $544 1 $544 0 $319 $-1 forward 7 unknown #
vertex $-1 $320 $545 #
ellipse-curve $-1 39.611721347312326 -24.141610748590857 -1.3035904964647713 0 -0.52991927123019833 0.84804809178421925 2.5 0 0 1 I I #
point $-1 42.111721347312326 -28.434560074072472 5.566564414394354 #
plane-surface $-1 0 0 9.7611688738816618 0 0 1 1 0 0 forward_v I I I I #
coedge $-1 $464 $546 $328 $460 forward $324 $-1 #
coedge $-1 $459 $326 $334 $470 reversed $212 $-1 #
coedge $-1 $326 $458 $547 $548 reversed $212 $-1 #
edge $-1 $462 69.985117826343625 $468 79.613609568174539 $457 $549 forward 7 unknown #
coedge $-1 $334 $329 $546 $550 forward $335 $-1 #
vertex $-1 $550 $551 #
straight-curve $-1 -47.114376039907725 25.918250573580426 9.7611688738816582 0 1 0 I I #
coedge $-1 $547 $457 $331 $465 forward $324 $-1 #
edge $-1 $468 20.111620959928391 $466 33.893889200030273 $464 $552 forward 7 unknown #
vertex $-1 $548 $553 #
straight-curve $-1 -60.89664428000961 -24.465922486549097 37.383172451773873 0 0.84804809178421925 -0.52991927123019833 I I #
vertex $-1 $465 $554 #
straight-curve $-1 -47.114376039907725 -24.465922486549097 37.383172451773873 0 -0.84804809178421925 0.52991927123019833 I I #
edge $-1 $555 -9.2290797294360694 $336 6.1797277847045855 $334 $556 forward 7 unknown #
point $-1 -60.89664428000961 19.738522788875841 9.7611688738816618 #
point $-1 -47.114376039907725 19.738522788875841 9.7611688738816618 #
edge $-1 $557 1 $557 0 $339 $-1 forward 7 unknown #
vertex $-1 $340 $558 #
ellipse-curve $-1 -58.140190631989228 26.795838625768447 3.9113658799927671 0 0.52991927123019833 0.84804809178421925 1 0 0 1 I I #
point $-1 -57.140190631989228 27.442926545946147 4.9469230029661917 #
edge $-1 $559 1 $559 0 $343 $-1 forward 7 unknown #
vertex $-1 $344 $560 #
ellipse-curve $-1 -54.005510159958668 26.795838625768447 3.9113658799927671 0 0.52991927123019833 0.84804809178421925 1 0 0 1 I I #
point $-1 -53.005510159958668 27.442926545946147 4.9469230029661917 #
edge $-1 $561 1 $561 0 $347 $-1 forward 7 unknown #
vertex $-1 $348 $562 #
ellipse-curve $-1 -49.870829687928108 26.795838625768447 3.9113658799927671 0 0.52991927123019833 0.84804809178421925 1 0 0 1 I I #
point $-1 -48.870829687928108 27.442926545946147 4.9469230029661917 #
plane-surface $-1 71.994384594256417 0 0 -1 0 0 0 0 1 forward_v I I I I #
coedge $-1 $356 $354 $358 $490 reversed $241 $-1 #
edge $-1 $369 -9.7611688738816618 $492 9.7611688738816618 $368 $563 forward 7 unknown #
vertex $-1 $490 $564 #
straight-curve $-1 -71.994384594256417 -35.147330303016496 0 0 0 -1 I I #
edge $-1 $488 -35.147330303016496 $492 35.147330303016496 $486 $565 forward 7 unknown #
straight-curve $-1 0 -35.147330303016496 -9.7611688738816618 -1 0 0 I I #
vertex $-1 $361 $566 #
straight-curve $-1 0 35.147330303016496 -9.7611688738816618 1 0 0 I I #
point $-1 71.994384594256417 35.147330303016496 -9.7611688738816618 #
point $-1 71.994384594256417 -35.147330303016496 -9.7611688738816618 #
straight-curve $-1 -71.994384594256417 0 9.7611688738816618 0 -1 0 I I #
point $-1 -71.994384594256417 35.147330303016496 9.7611688738816618 #
point $-1 -71.994384594256417 -35.147330303016496 9.7611688738816618 #
straight-curve $-1 71.994384594256417 -35.147330303016496 0 0 0 -1 I I #
straight-curve $-1 71.994384594256417 35.147330303016496 0 0 0 -1 I I #
plane-surface $-1 0 35.147330303016496 0 0 -1 0 0 0 -1 forward_v I I I I #
coedge $-1 $512 $511 $384 $504 forward $379 $-1 #
straight-curve $-1 -60.89664428000961 -35.147330303016496 2.45527657270571 0 0 1 I I #
edge $-1 $507 -35.147330303016496 $505 35.147330303016496 $502 $567 forward 7 unknown #
vertex $-1 $385 $568 #
straight-curve $-1 -33.222757218566507 -35.147330303016496 2.4496018168179026 1 0 0 I I #
vertex $-1 $387 $569 #
straight-curve $-1 -33.222757218566507 35.147330303016496 2.4496018168179026 -1 0 0 I I #
point $-1 -60.89664428000961 35.147330303016496 2.4496018168179026 #
point $-1 -60.89664428000961 -35.147330303016496 2.4496018168179026 #
coedge $-1 $502 $391 $394 $514 forward $379 $-1 #
coedge $-1 $391 $502 $398 $516 reversed $379 $-1 #
straight-curve $-1 -71.994384594256417 0 7.3715044740049374 0 1 0 I I #
edge $-1 $396 -7.3715044740049374 $507 -2.4496018168179026 $394 $570 forward 7 unknown #
point $-1 -71.994384594256417 35.147330303016496 7.3715044740049374 #
edge $-1 $399 -7.3715044740049374 $505 -2.4496018168179026 $512 $571 forward 7 unknown #
point $-1 -71.994384594256417 -35.147330303016496 7.3715044740049374 #
straight-curve $-1 -60.89664428000961 35.147330303016496 2.45527657270571 0 0 -1 I I #
edge $-1 $520 20.577546665346723 $523 34.003087123234785 $405 $572 forward 7 unknown #
vertex $-1 $519 $573 #
straight-curve $-1 -8.8610925970224486 -35.147330303016496 61.740680451791867 0 0 1 I I #
edge $-1 $523 -2.4479646541038456 $416 25.066079156356434 $415 $574 forward 7 unknown #
vertex $-1 $522 $575 #
straight-curve $-1 -8.8610925970224486 -35.147330303016489 1.3719599549070409 0 -0.84804809178421925 -0.52991927123019833 I I #
point $-1 -8.8610925970224486 -35.147330303016496 1.3719599549070365 #
point $-1 -36.375136407482728 -21.721789845128434 9.7611688738816618 #
straight-curve $-1 0 -35.147330303016496 9.7611688738816618 1 0 0 I I #
vertex $-1 $422 $576 #
point $-1 -26.013981033065505 -24.141610748590857 -1.3035904964647713 #
vertex $-1 $426 $577 #
point $-1 -14.222247971439671 -24.141610748590857 -1.3035904964647713 #
coedge $-1 $441 $440 $433 $533 forward $430 $-1 #
edge $-1 $534 20.577546665346723 $537 34.003087123234785 $532 $578 forward 7 unknown #
vertex $-1 $533 $579 #
straight-curve $-1 47.472876721729556 -35.147330303016496 61.740680451791867 0 0 1 I I #
edge $-1 $537 -30.614949313479848 $442 -3.1009055030195682 $441 $580 forward 7 unknown #
vertex $-1 $536 $581 #
straight-curve $-1 47.472876721729556 -35.147330303016489 1.3719599549070409 0 -0.84804809178421925 -0.52991927123019833 I I #
point $-1 47.472876721729556 -35.147330303016496 1.3719599549070365 #
point $-1 19.958832911269276 -21.721789845128434 9.7611688738816618 #
straight-curve $-1 0 -35.147330303016496 9.7611688738816618 1 0 0 I I #
vertex $-1 $448 $582 #
point $-1 30.319988285686492 -24.141610748590857 -1.3035904964647713 #
vertex $-1 $452 $583 #
point $-1 42.111721347312326 -24.141610748590857 -1.3035904964647713 #
coedge $-1 $457 $547 $461 $550 reversed $324 $-1 #
coedge $-1 $546 $464 $459 $548 forward $324 $-1 #
edge $-1 $466 -79.613609568174539 $555 -69.985117826343625 $547 $584 forward 7 unknown #
straight-curve $-1 -47.114376039907725 35.147330303016496 79.746286700225284 0 0 -1 I I #
edge $-1 $462 47.114376039907725 $555 60.89664428000961 $546 $585 forward 7 unknown #
point $-1 -47.114376039907725 35.147330303016496 9.7611688738816618 #
straight-curve $-1 -27.002755079979334 35.147330303016496 0.13267713205074472 -1 0 0 I I #
point $-1 -60.89664428000961 35.147330303016496 0.13267713205074472 #
point $-1 -47.114376039907725 35.147330303016496 0.13267713205074472 #
vertex $-1 $548 $586 #
straight-curve $-1 -60.89664428000961 25.918250573580426 9.7611688738816582 0 -1 0 I I #
vertex $-1 $473 $587 #
point $-1 -57.140190631989228 26.795838625768447 3.9113658799927671 #
vertex $-1 $477 $588 #
point $-1 -53.005510159958668 26.795838625768447 3.9113658799927671 #
vertex $-1 $481 $589 #
point $-1 -48.870829687928108 26.795838625768447 3.9113658799927671 #
straight-curve $-1 -71.994384594256417 35.147330303016496 0 0 0 -1 I I #
point $-1 -71.994384594256417 -35.147330303016496 -9.7611688738816618 #
straight-curve $-1 -71.994384594256417 0 -9.7611688738816618 0 1 0 I I #
point $-1 -71.994384594256417 35.147330303016496 -9.7611688738816618 #
straight-curve $-1 -71.994384594256417 0 2.4496018168179026 0 -1 0 I I #
point $-1 -71.994384594256417 -35.147330303016496 2.4496018168179026 #
point $-1 -71.994384594256417 35.147330303016496 2.4496018168179026 #
straight-curve $-1 -71.994384594256417 35.147330303016496 0 0 0 -1 I I #
straight-curve $-1 -71.994384594256417 -35.147330303016496 0 0 0 -1 I I #
straight-curve $-1 -8.8610925970224486 -55.724876968363219 9.7611688738816582 0 1 0 I I #
point $-1 -8.8610925970224486 -35.147330303016496 9.7611688738816618 #
straight-curve $-1 -11.309057251126294 -21.721789845128438 9.7611688738816618 -1 0 0 I I #
point $-1 -8.8610925970224486 -21.721789845128434 9.7611688738816618 #
point $-1 -28.513981033065505 -22.81681257051536 -3.4237107259253197 #
point $-1 -16.722247971439671 -22.81681257051536 -3.4237107259253197 #
straight-curve $-1 47.472876721729556 -55.724876968363219 9.7611688738816582 0 1 0 I I #
point $-1 47.472876721729556 -35.147330303016496 9.7611688738816618 #
straight-curve $-1 16.857927408249708 -21.721789845128438 9.7611688738816618 -1 0 0 I I #
point $-1 47.472876721729556 -21.721789845128434 9.7611688738816618 #
point $-1 27.819988285686492 -22.81681257051536 -3.4237107259253197 #
point $-1 39.611721347312326 -22.81681257051536 -3.4237107259253197 #
straight-curve $-1 -60.89664428000961 35.147330303016496 79.746286700225284 0 0 1 I I #
straight-curve $-1 0 35.147330303016496 9.7611688738816618 -1 0 0 I I #
point $-1 -60.89664428000961 35.147330303016496 9.7611688738816618 #
point $-1 -58.140190631989228 26.265919354538248 3.0633177882085483 #
point $-1 -54.005510159958668 26.265919354538248 3.0633177882085483 #
point $-1 -49.870829687928108 26.265919354538248 3.0633177882085483 #
End-of-ACIS-data 