500 0 10 0           
7 Unknown 11 ACIS 5.0 NT 24 Fri Mar 26 00:23:53 1999 
-1 9.9999999999999995e-007 1e-010 
body $-1 $10 $-1 $11 #
body $-1 $12 $-1 $13 #
body $-1 $14 $-1 $15 #
body $-1 $16 $-1 $17 #
body $-1 $18 $-1 $19 #
body $-1 $20 $-1 $21 #
body $-1 $22 $-1 $23 #
body $-1 $24 $-1 $25 #
body $-1 $26 $-1 $27 #
body $-1 $28 $-1 $29 #
lump $-1 $-1 $30 $0 #
transform $-1 1 0 0 0 1 0 0 0 1 70.887173070467242 30.344737748045773 13.978286264924396 1 rotate no_reflect no_shear #
lump $-1 $-1 $31 $1 #
transform $-1 1 0 0 0 1 0 0 0 1 70.887173070467242 30.344737748045773 13.978286264924396 1 rotate no_reflect no_shear #
lump $-1 $-1 $32 $2 #
transform $-1 1 0 0 0 1 0 0 0 1 70.887173070467242 30.344737748045773 13.978286264924396 1 rotate no_reflect no_shear #
lump $-1 $-1 $33 $3 #
transform $-1 1 0 0 0 1 0 0 0 1 70.887173070467242 30.344737748045773 13.978286264924396 1 rotate no_reflect no_shear #
lump $-1 $-1 $34 $4 #
transform $-1 1 0 0 0 1 0 0 0 1 70.887173070467242 30.344737748045773 13.978286264924396 1 rotate no_reflect no_shear #
lump $-1 $-1 $35 $5 #
transform $-1 1 0 0 0 1 0 0 0 1 70.887173070467242 30.344737748045773 13.978286264924396 1 rotate no_reflect no_shear #
lump $-1 $-1 $36 $6 #
transform $-1 1 0 0 0 1 0 0 0 1 70.887173070467242 30.344737748045773 13.978286264924396 1 rotate no_reflect no_shear #
lump $-1 $-1 $37 $7 #
transform $-1 1 0 0 0 1 0 0 0 1 70.887173070467242 30.344737748045773 13.978286264924396 1 rotate no_reflect no_shear #
lump $-1 $-1 $38 $8 #
transform $-1 1 0 0 0 1 0 0 0 1 70.887173070467242 30.344737748045773 13.978286264924396 1 rotate no_reflect no_shear #
lump $-1 $-1 $39 $9 #
transform $-1 1 0 0 0 1 0 0 0 1 70.887173070467242 30.344737748045773 13.978286264924396 1 rotate no_reflect no_shear #
shell $-1 $-1 $-1 $40 $-1 $10 #
shell $-1 $-1 $-1 $41 $-1 $12 #
shell $-1 $-1 $-1 $42 $-1 $14 #
shell $-1 $-1 $-1 $43 $-1 $16 #
shell $-1 $-1 $-1 $44 $-1 $18 #
shell $-1 $-1 $-1 $45 $-1 $20 #
shell $-1 $-1 $-1 $46 $-1 $22 #
shell $-1 $-1 $-1 $47 $-1 $24 #
shell $-1 $-1 $-1 $48 $-1 $26 #
shell $-1 $-1 $-1 $49 $-1 $28 #
face $-1 $50 $51 $30 $-1 $52 forward single #
face $-1 $53 $54 $31 $-1 $55 forward single #
face $-1 $56 $57 $32 $-1 $58 forward single #
face $-1 $59 $60 $33 $-1 $61 reversed single #
face $-1 $62 $63 $34 $-1 $64 forward single #
face $-1 $65 $66 $35 $-1 $67 forward single #
face $-1 $68 $69 $36 $-1 $70 forward single #
face $-1 $71 $72 $37 $-1 $73 reversed single #
face $-1 $74 $75 $38 $-1 $76 forward single #
face $-1 $77 $78 $39 $-1 $79 forward single #
face $-1 $80 $81 $30 $-1 $82 reversed single #
loop $-1 $-1 $83 $40 #
plane-surface $-1 0 0 13.978286264924396 0 0 1 1 0 0 forward_v I I I I #
face $-1 $84 $85 $31 $-1 $86 reversed single #
loop $-1 $-1 $87 $41 #
plane-surface $-1 -70.887173070467242 0 0 1 0 0 0 0 -1 forward_v I I I I #
face $-1 $88 $89 $32 $-1 $90 reversed single #
loop $-1 $-1 $91 $42 #
plane-surface $-1 70.887173070467242 0 0 -1 0 0 0 0 1 forward_v I I I I #
face $-1 $92 $93 $33 $-1 $94 reversed single #
loop $-1 $-1 $95 $43 #
plane-surface $-1 -30.801955235414564 80.109223852297475 150.80772300252929 1 0 0 0 -0.66913061440640931 -0.74314481823134659 forward_v I I I I #
face $-1 $96 $97 $34 $-1 $98 forward single #
loop $-1 $99 $100 $44 #
cone-surface $-1 -24.184583036321648 23.268770047276785 7.1863797404566316 0 -0.66913061440640931 -0.74314481823134659 1.5 0 0 1 I I 0 1 1.5 forward I I I I #
face $-1 $101 $102 $35 $-1 $103 forward single #
loop $-1 $104 $105 $45 #
cone-surface $-1 -14.258524737682279 23.268770047276785 7.1863797404566316 0 -0.66913061440640931 -0.74314481823134659 1.5 0 0 1 I I 0 1 1.5 forward I I I I #
face $-1 $106 $107 $36 $-1 $108 forward single #
loop $-1 $109 $110 $46 #
cone-surface $-1 -4.3324664390429177 23.268770047276785 7.1863797404566316 0 -0.66913061440640931 -0.74314481823134659 1.5 0 0 1 I I 0 1 1.5 forward I I I I #
face $-1 $111 $112 $37 $-1 $113 reversed single #
loop $-1 $-1 $114 $47 #
plane-surface $-1 -41.650612901926728 -137.34319618553604 100.56851668429123 -1 0 0 0 -0.75470958851134928 0.65605901945558964 forward_v I I I I #
face $-1 $115 $116 $38 $-1 $117 forward single #
loop $-1 $118 $119 $48 #
cone-surface $-1 -52.452640086864562 -26.737492367702906 10.057964883971808 0 0.75470958851134928 -0.65605901945558964 1 0 0 1 I I 0 1 1 forward I I I I #
face $-1 $120 $121 $39 $-1 $122 forward single #
loop $-1 $123 $124 $49 #
cone-surface $-1 -45.971423775901862 -26.737492367702906 10.057964883971808 0 0.75470958851134928 -0.65605901945558964 1 0 0 1 I I 0 1 1 forward I I I I #
face $-1 $125 $126 $30 $-1 $127 reversed single #
loop $-1 $-1 $128 $50 #
plane-surface $-1 0 0 -13.978286264924396 0 0 1 1 0 0 forward_v I I I I #
coedge $-1 $129 $130 $131 $132 forward $51 $-1 #
face $-1 $133 $134 $31 $-1 $135 reversed single #
loop $-1 $-1 $136 $53 #
plane-surface $-1 0 0 -13.978286264924396 0 0 1 1 0 0 forward_v I I I I #
coedge $-1 $137 $138 $139 $140 forward $54 $-1 #
face $-1 $141 $142 $32 $-1 $143 reversed single #
loop $-1 $-1 $144 $56 #
plane-surface $-1 0 0 -13.978286264924396 0 0 1 1 0 0 forward_v I I I I #
coedge $-1 $145 $146 $147 $148 forward $57 $-1 #
face $-1 $149 $150 $33 $-1 $151 reversed single #
loop $-1 $-1 $152 $59 #
plane-surface $-1 -14.258524737682293 -14.756331488052965 45.448852309756518 0 0.66913061440640931 0.74314481823134659 1 0 0 forward_v I I I I #
coedge $-1 $153 $154 $155 $156 reversed $60 $-1 #
face $-1 $-1 $157 $34 $-1 $158 forward single #
loop $-1 $159 $160 $62 #
cone-surface $-1 -24.184583036321648 20.765687135255178 4.4064245932505166 0 -0.66913061440640931 -0.74314481823134659 0.75 0 0 1 I I -0.70710678118654757 0.70710678118654757 0.75 forward I I I I #
loop $-1 $-1 $161 $44 #
coedge $-1 $100 $100 $162 $163 reversed $63 $-1 #
face $-1 $-1 $164 $35 $-1 $165 forward single #
loop $-1 $166 $167 $65 #
cone-surface $-1 -14.258524737682279 20.765687135255178 4.4064245932505166 0 -0.66913061440640931 -0.74314481823134659 0.75 0 0 1 I I -0.70710678118654757 0.70710678118654757 0.75 forward I I I I #
loop $-1 $-1 $168 $45 #
coedge $-1 $105 $105 $169 $170 reversed $66 $-1 #
face $-1 $-1 $171 $36 $-1 $172 forward single #
loop $-1 $173 $174 $68 #
cone-surface $-1 -4.3324664390429177 20.765687135255178 4.4064245932505166 0 -0.66913061440640931 -0.74314481823134659 0.75 0 0 1 I I -0.70710678118654757 0.70710678118654757 0.75 forward I I I I #
loop $-1 $-1 $175 $46 #
coedge $-1 $110 $110 $176 $177 reversed $69 $-1 #
face $-1 $178 $179 $37 $-1 $180 reversed single #
loop $-1 $-1 $181 $71 #
plane-surface $-1 -49.212031931383208 -30.344737748045773 7.5561781711123928 0 -0.75470958851134928 0.65605901945558964 1 0 0 forward_v I I I I #
coedge $-1 $182 $183 $184 $185 reversed $72 $-1 #
face $-1 $-1 $186 $38 $-1 $187 forward single #
loop $-1 $188 $189 $74 #
cone-surface $-1 -52.452640086864562 -25.544218819267101 9.0206680401974246 0 0.75470958851134928 -0.65605901945558964 0.5 0 0 1 I I -0.70710678118654746 0.70710678118654746 0.5 forward I I I I #
loop $-1 $-1 $190 $48 #
coedge $-1 $119 $119 $191 $192 reversed $75 $-1 #
face $-1 $-1 $193 $39 $-1 $194 forward single #
loop $-1 $195 $196 $77 #
cone-surface $-1 -45.971423775901862 -25.544218819267101 9.0206680401974246 0 0.75470958851134928 -0.65605901945558964 0.5 0 0 1 I I -0.70710678118654746 0.70710678118654746 0.5 forward I I I I #
loop $-1 $-1 $197 $49 #
coedge $-1 $124 $124 $198 $199 reversed $78 $-1 #
face $-1 $200 $201 $30 $-1 $202 reversed single #
loop $-1 $-1 $203 $80 #
plane-surface $-1 0 -30.344737748045773 0 0 1 0 0 0 1 forward_v I I I I #
coedge $-1 $204 $205 $206 $207 forward $81 $-1 #
coedge $-1 $208 $83 $209 $210 forward $51 $-1 #
coedge $-1 $83 $208 $211 $212 forward $51 $-1 #
coedge $-1 $213 $214 $83 $132 reversed $215 $-1 #
edge $-1 $216 -30.344737748045773 $217 30.344737748045773 $131 $218 forward 7 unknown #
face $-1 $219 $220 $31 $-1 $221 reversed single #
loop $-1 $-1 $222 $84 #
plane-surface $-1 -77.944034125281021 -19.218541858912388 0 0 1 0 0 0 1 forward_v I I I I #
coedge $-1 $223 $224 $138 $225 forward $85 $-1 #
coedge $-1 $226 $87 $227 $228 reversed $54 $-1 #
coedge $-1 $87 $226 $136 $225 reversed $54 $-1 #
coedge $-1 $229 $230 $87 $140 reversed $231 $-1 #
edge $-1 $232 -13.978286264924396 $233 13.978286264924396 $139 $234 forward 7 unknown #
face $-1 $235 $236 $32 $-1 $237 reversed single #
loop $-1 $-1 $147 $88 #
plane-surface $-1 77.944034125281036 -19.218541858912388 0 0 1 0 0 0 1 forward_v I I I I #
coedge $-1 $238 $239 $146 $240 forward $89 $-1 #
coedge $-1 $241 $91 $242 $243 reversed $57 $-1 #
coedge $-1 $91 $241 $144 $240 reversed $57 $-1 #
coedge $-1 $244 $245 $91 $148 reversed $142 $-1 #
edge $-1 $246 -13.978286264924396 $247 13.978286264924396 $147 $248 forward 7 unknown #
face $-1 $249 $250 $33 $-1 $251 reversed single #
loop $-1 $-1 $252 $92 #
plane-surface $-1 2.2849057600499769 80.109223852297475 150.80772300252929 -1 0 0 0 0.66913061440640931 0.74314481823134659 forward_v I I I I #
coedge $-1 $253 $254 $255 $256 reversed $93 $-1 #
coedge $-1 $154 $95 $257 $258 reversed $60 $-1 #
coedge $-1 $95 $153 $253 $259 reversed $60 $-1 #
coedge $-1 $255 $260 $95 $156 forward $261 $-1 #
edge $-1 $262 9.7098741781029645 $263 19.859339677207394 $155 $264 forward 7 unknown #
loop $-1 $-1 $162 $96 #
plane-surface $-1 -14.258524737682293 -14.756331488052965 45.448852309756518 0 0.66913061440640931 0.74314481823134659 1 0 0 forward_v I I I I #
loop $-1 $-1 $265 $62 #
coedge $-1 $160 $160 $161 $266 reversed $97 $-1 #
coedge $-1 $161 $161 $160 $266 forward $99 $-1 #
coedge $-1 $162 $162 $100 $163 forward $157 $-1 #
edge $-1 $267 2.5939526851558742e-016 $267 6.2831853071796004 $162 $268 forward 7 unknown #
loop $-1 $-1 $169 $101 #
plane-surface $-1 -14.258524737682293 -14.756331488052965 45.448852309756518 0 0.66913061440640931 0.74314481823134659 1 0 0 forward_v I I I I #
loop $-1 $-1 $269 $65 #
coedge $-1 $167 $167 $168 $270 reversed $102 $-1 #
coedge $-1 $168 $168 $167 $270 forward $104 $-1 #
coedge $-1 $169 $169 $105 $170 forward $164 $-1 #
edge $-1 $271 2.5939526851558742e-016 $271 6.2831853071796004 $169 $272 forward 7 unknown #
loop $-1 $-1 $176 $106 #
plane-surface $-1 -14.258524737682293 -14.756331488052965 45.448852309756518 0 0.66913061440640931 0.74314481823134659 1 0 0 forward_v I I I I #
loop $-1 $-1 $273 $68 #
coedge $-1 $174 $174 $175 $274 reversed $107 $-1 #
coedge $-1 $175 $175 $174 $274 forward $109 $-1 #
coedge $-1 $176 $176 $110 $177 forward $171 $-1 #
edge $-1 $275 2.5939526851558742e-016 $275 6.2831853071796004 $176 $276 forward 7 unknown #
face $-1 $277 $278 $37 $-1 $279 forward single #
loop $-1 $-1 $280 $111 #
plane-surface $-1 -56.773450960839689 -137.34319618553604 100.56851668429123 1 0 0 0 0.75470958851134928 -0.65605901945558964 forward_v I I I I #
coedge $-1 $281 $282 $283 $284 reversed $112 $-1 #
coedge $-1 $183 $114 $285 $286 reversed $72 $-1 #
coedge $-1 $114 $182 $281 $287 reversed $72 $-1 #
coedge $-1 $283 $288 $114 $185 forward $278 $-1 #
edge $-1 $289 38.326860344722249 $290 43.909513597047727 $184 $291 forward 7 unknown #
loop $-1 $-1 $191 $115 #
plane-surface $-1 -49.212031931383208 -30.344737748045773 7.5561781711123928 0 -0.75470958851134928 0.65605901945558964 1 0 0 forward_v I I I I #
loop $-1 $-1 $292 $74 #
coedge $-1 $189 $189 $190 $293 reversed $116 $-1 #
coedge $-1 $190 $190 $189 $293 forward $118 $-1 #
coedge $-1 $191 $191 $119 $192 forward $186 $-1 #
edge $-1 $294 0 $294 6.2831853071796004 $191 $295 forward 7 unknown #
loop $-1 $-1 $198 $120 #
plane-surface $-1 -49.212031931383208 -30.344737748045773 7.5561781711123928 0 -0.75470958851134928 0.65605901945558964 1 0 0 forward_v I I I I #
loop $-1 $-1 $296 $77 #
coedge $-1 $196 $196 $197 $297 reversed $121 $-1 #
coedge $-1 $197 $197 $196 $297 forward $123 $-1 #
coedge $-1 $198 $198 $124 $199 forward $193 $-1 #
edge $-1 $298 0 $298 6.2831853071796004 $198 $299 forward 7 unknown #
face $-1 $300 $301 $30 $-1 $302 reversed single #
loop $-1 $-1 $303 $125 #
plane-surface $-1 -70.887173070467242 0 0 1 0 0 0 0 -1 forward_v I I I I #
coedge $-1 $304 $211 $305 $306 forward $126 $-1 #
coedge $-1 $307 $128 $304 $308 forward $81 $-1 #
coedge $-1 $128 $307 $309 $310 forward $81 $-1 #
coedge $-1 $214 $213 $128 $207 reversed $215 $-1 #
edge $-1 $311 -30.344737748045773 $312 30.344737748045773 $206 $313 forward 7 unknown #
coedge $-1 $130 $129 $314 $315 forward $51 $-1 #
coedge $-1 $316 $317 $129 $210 reversed $301 $-1 #
edge $-1 $217 -70.887173070467242 $318 70.887173070467242 $209 $319 forward 7 unknown #
coedge $-1 $203 $320 $130 $212 reversed $126 $-1 #
edge $-1 $321 -70.887173070467242 $216 70.887173070467242 $211 $322 forward 7 unknown #
coedge $-1 $206 $131 $320 $323 forward $215 $-1 #
coedge $-1 $131 $206 $316 $324 reversed $215 $-1 #
loop $-1 $-1 $213 $300 #
vertex $-1 $132 $325 #
vertex $-1 $132 $326 #
straight-curve $-1 70.887173070467242 0 13.978286264924396 0 1 0 I I #
face $-1 $327 $231 $31 $-1 $328 reversed single #
loop $-1 $-1 $329 $133 #
plane-surface $-1 -85.000895180094801 -16.298617056595177 0 1 0 0 0 0 -1 forward_v I I I I #
coedge $-1 $330 $331 $332 $333 forward $134 $-1 #
coedge $-1 $334 $136 $330 $335 forward $85 $-1 #
coedge $-1 $136 $334 $229 $336 forward $85 $-1 #
edge $-1 $232 13.378692254277967 $337 19.218541858912388 $136 $338 forward 7 unknown #
coedge $-1 $138 $137 $339 $340 forward $54 $-1 #
coedge $-1 $341 $342 $137 $228 forward $343 $-1 #
edge $-1 $344 -19.218541858912388 $233 -13.378692254277967 $227 $345 forward 7 unknown #
coedge $-1 $346 $139 $224 $336 reversed $231 $-1 #
coedge $-1 $139 $346 $341 $347 reversed $231 $-1 #
loop $-1 $-1 $139 $219 #
vertex $-1 $225 $348 #
vertex $-1 $347 $349 #
straight-curve $-1 -70.887173070467242 -13.378692254277967 0 0 0 1 I I #
face $-1 $350 $351 $32 $-1 $352 reversed single #
loop $-1 $-1 $353 $141 #
plane-surface $-1 77.944034125281036 -13.378692254277967 0 0 -1 0 0 0 -1 forward_v I I I I #
coedge $-1 $354 $144 $355 $356 forward $89 $-1 #
coedge $-1 $144 $354 $244 $357 forward $89 $-1 #
edge $-1 $246 -19.218541858912388 $358 -13.378692254277967 $144 $359 forward 7 unknown #
coedge $-1 $146 $145 $360 $361 forward $57 $-1 #
coedge $-1 $362 $363 $145 $243 forward $364 $-1 #
edge $-1 $365 13.378692254277967 $247 19.218541858912388 $242 $366 forward 7 unknown #
coedge $-1 $367 $147 $239 $357 reversed $142 $-1 #
coedge $-1 $147 $367 $362 $368 reversed $142 $-1 #
vertex $-1 $240 $369 #
vertex $-1 $368 $370 #
straight-curve $-1 70.887173070467242 -19.218541858912388 0 0 0 1 I I #
face $-1 $-1 $261 $33 $-1 $371 forward single #
loop $-1 $-1 $372 $149 #
plane-surface $-1 0 30.344737748045773 0 0 -1 0 0 0 -1 forward_v I I I I #
coedge $-1 $373 $374 $375 $376 reversed $150 $-1 #
coedge $-1 $377 $152 $154 $259 forward $93 $-1 #
coedge $-1 $152 $377 $373 $378 forward $93 $-1 #
coedge $-1 $375 $155 $152 $256 forward $261 $-1 #
edge $-1 $263 -23.672692866573417 $379 9.4141681288911236 $255 $380 forward 7 unknown #
coedge $-1 $381 $382 $153 $258 forward $250 $-1 #
edge $-1 $383 -70.5641952182106 $262 -61.425575236340251 $257 $384 forward 7 unknown #
edge $-1 $263 47.032022399318691 $383 60.689475496091568 $154 $385 forward 7 unknown #
coedge $-1 $155 $375 $381 $386 forward $261 $-1 #
loop $-1 $-1 $375 $249 #
vertex $-1 $258 $387 #
vertex $-1 $156 $388 #
straight-curve $-1 -30.801955235414564 40.054611926148738 13.978286264924392 0 -1 0 I I #
coedge $-1 $265 $265 $-1 $389 reversed $159 $-1 #
edge $-1 $390 0 $390 6.2831853071796004 $160 $391 forward 7 unknown #
vertex $-1 $163 $392 #
ellipse-curve $-1 -24.184583036321648 25.270004998493565 9.4089762739892127 0 0.66913061440640931 0.74314481823134659 1.5 0 0 1 I I #
coedge $-1 $269 $269 $-1 $393 reversed $166 $-1 #
edge $-1 $394 0 $394 6.2831853071796004 $167 $395 forward 7 unknown #
vertex $-1 $170 $396 #
ellipse-curve $-1 -14.258524737682279 25.270004998493565 9.4089762739892127 0 0.66913061440640931 0.74314481823134659 1.5 0 0 1 I I #
coedge $-1 $273 $273 $-1 $397 reversed $173 $-1 #
edge $-1 $398 0 $398 6.2831853071796004 $174 $399 forward 7 unknown #
vertex $-1 $177 $400 #
ellipse-curve $-1 -4.3324664390429177 25.270004998493565 9.4089762739892127 0 0.66913061440640931 0.74314481823134659 1.5 0 0 1 I I #
face $-1 $-1 $401 $37 $-1 $402 reversed single #
loop $-1 $-1 $184 $178 #
plane-surface $-1 0 0 13.978286264924396 0 0 1 1 0 0 forward_v I I I I #
coedge $-1 $403 $404 $405 $406 reversed $179 $-1 #
coedge $-1 $407 $181 $183 $287 forward $112 $-1 #
coedge $-1 $181 $407 $403 $408 forward $112 $-1 #
coedge $-1 $405 $184 $181 $284 forward $278 $-1 #
edge $-1 $290 17.044596936235124 $409 32.167434995148085 $283 $410 forward 7 unknown #
coedge $-1 $411 $412 $182 $286 forward $401 $-1 #
edge $-1 $413 -42.72808017103322 $289 -36.305972077221213 $285 $414 forward 7 unknown #
edge $-1 $290 -8.5093765755374786 $413 0 $183 $415 forward 7 unknown #
coedge $-1 $184 $405 $411 $416 forward $278 $-1 #
vertex $-1 $185 $417 #
vertex $-1 $185 $418 #
straight-curve $-1 -41.650612901926728 -68.671598092768022 13.978286264924392 0 1 0 I I #
coedge $-1 $292 $292 $-1 $419 reversed $188 $-1 #
edge $-1 $420 0 $420 6.2831853071796004 $189 $421 forward 7 unknown #
vertex $-1 $192 $422 #
ellipse-curve $-1 -52.452640086864562 -27.553411121883034 10.767232218018394 0 -0.75470958851134928 0.65605901945558964 1 0 0 1 I I #
coedge $-1 $296 $296 $-1 $423 reversed $195 $-1 #
edge $-1 $424 0 $424 6.2831853071796004 $196 $425 forward 7 unknown #
vertex $-1 $199 $426 #
ellipse-curve $-1 -45.971423775901862 -27.553411121883034 10.767232218018394 0 -0.75470958851134928 0.65605901945558964 1 0 0 1 I I #
face $-1 $-1 $215 $30 $-1 $427 reversed single #
loop $-1 $-1 $316 $200 #
plane-surface $-1 0 30.344737748045773 0 0 -1 0 0 0 -1 forward_v I I I I #
coedge $-1 $428 $314 $317 $429 forward $201 $-1 #
coedge $-1 $320 $203 $204 $308 reversed $126 $-1 #
coedge $-1 $314 $428 $203 $306 reversed $201 $-1 #
edge $-1 $321 -13.978286264924396 $430 13.978286264924396 $305 $431 forward 7 unknown #
coedge $-1 $205 $204 $428 $432 forward $81 $-1 #
edge $-1 $312 -70.887173070467242 $430 70.887173070467242 $304 $433 forward 7 unknown #
coedge $-1 $317 $316 $205 $310 reversed $301 $-1 #
edge $-1 $434 -70.887173070467242 $311 70.887173070467242 $309 $435 forward 7 unknown #
vertex $-1 $207 $436 #
vertex $-1 $323 $437 #
straight-curve $-1 70.887173070467242 0 -13.978286264924396 0 -1 0 I I #
coedge $-1 $303 $305 $208 $315 reversed $201 $-1 #
edge $-1 $318 -30.344737748045773 $321 30.344737748045773 $314 $438 forward 7 unknown #
coedge $-1 $309 $209 $214 $324 forward $301 $-1 #
coedge $-1 $209 $309 $303 $429 reversed $301 $-1 #
vertex $-1 $210 $439 #
straight-curve $-1 0 30.344737748045773 13.978286264924396 -1 0 0 I I #
coedge $-1 $211 $304 $213 $323 reversed $126 $-1 #
vertex $-1 $315 $440 #
straight-curve $-1 0 -30.344737748045773 13.978286264924396 1 0 0 I I #
edge $-1 $216 -13.978286264924396 $312 13.978286264924396 $213 $441 forward 7 unknown #
edge $-1 $217 -13.978286264924396 $311 13.978286264924396 $214 $442 forward 7 unknown #
point $-1 70.887173070467242 -30.344737748045773 13.978286264924396 #
point $-1 70.887173070467242 30.344737748045773 13.978286264924396 #
face $-1 $-1 $343 $31 $-1 $443 forward single #
plane-surface $-1 -77.944034125281021 -13.378692254277967 0 0 -1 0 0 0 -1 forward_v I I I I #
coedge $-1 $444 $445 $346 $446 forward $220 $-1 #
coedge $-1 $339 $222 $223 $335 reversed $134 $-1 #
coedge $-1 $222 $339 $342 $447 reversed $134 $-1 #
coedge $-1 $445 $444 $222 $333 reversed $220 $-1 #
edge $-1 $448 -13.978286264924396 $449 13.978286264924396 $332 $450 forward 7 unknown #
coedge $-1 $224 $223 $444 $451 forward $85 $-1 #
edge $-1 $337 -7.0568610548137798 $449 7.0568610548137798 $330 $452 forward 7 unknown #
edge $-1 $453 -7.0568610548137798 $232 7.0568610548137798 $229 $454 forward 7 unknown #
vertex $-1 $335 $455 #
straight-curve $-1 -70.887173070467242 0 -13.978286264924396 0 -1 0 I I #
coedge $-1 $331 $330 $226 $340 reversed $134 $-1 #
edge $-1 $344 -13.978286264924396 $337 13.978286264924396 $339 $456 forward 7 unknown #
coedge $-1 $457 $227 $230 $347 forward $343 $-1 #
coedge $-1 $227 $457 $331 $447 forward $343 $-1 #
loop $-1 $-1 $227 $327 #
vertex $-1 $228 $458 #
straight-curve $-1 -70.887173070467242 0 13.978286264924396 0 1 0 I I #
coedge $-1 $230 $229 $329 $446 reversed $231 $-1 #
edge $-1 $233 -7.0568610548137798 $459 7.0568610548137798 $230 $460 forward 7 unknown #
point $-1 -70.887173070467242 -13.378692254277967 -13.978286264924396 #
point $-1 -70.887173070467242 -13.378692254277967 13.978286264924396 #
face $-1 $-1 $364 $32 $-1 $461 forward single #
loop $-1 $-1 $462 $235 #
plane-surface $-1 85.000895180094815 -16.298617056595177 0 -1 0 0 0 0 1 forward_v I I I I #
coedge $-1 $355 $463 $464 $465 forward $236 $-1 #
coedge $-1 $239 $238 $466 $467 forward $89 $-1 #
coedge $-1 $360 $353 $238 $356 reversed $236 $-1 #
edge $-1 $358 -7.0568610548137798 $468 7.0568610548137798 $355 $469 forward 7 unknown #
edge $-1 $470 -7.0568610548137798 $246 7.0568610548137798 $244 $471 forward 7 unknown #
vertex $-1 $356 $472 #
straight-curve $-1 70.887173070467242 0 -13.978286264924396 0 1 0 I I #
coedge $-1 $463 $355 $241 $361 reversed $236 $-1 #
edge $-1 $365 -13.978286264924396 $358 13.978286264924396 $360 $473 forward 7 unknown #
coedge $-1 $474 $242 $245 $368 forward $364 $-1 #
coedge $-1 $242 $474 $463 $475 forward $364 $-1 #
loop $-1 $-1 $242 $350 #
vertex $-1 $243 $476 #
straight-curve $-1 70.887173070467242 0 13.978286264924396 0 -1 0 I I #
coedge $-1 $245 $244 $462 $477 reversed $142 $-1 #
edge $-1 $247 -7.0568610548137798 $478 7.0568610548137798 $245 $479 forward 7 unknown #
point $-1 70.887173070467256 -19.218541858912388 -13.978286264924396 #
point $-1 70.887173070467256 -19.218541858912388 13.978286264924396 #
plane-surface $-1 0 0 13.978286264924396 0 0 1 1 0 0 forward_v I I I I #
coedge $-1 $382 $381 $374 $480 forward $250 $-1 #
coedge $-1 $374 $252 $254 $378 reversed $150 $-1 #
coedge $-1 $252 $373 $372 $480 reversed $150 $-1 #
coedge $-1 $260 $255 $252 $376 forward $261 $-1 #
edge $-1 $379 -19.859339677207394 $481 -9.7098741781029645 $375 $482 forward 7 unknown #
coedge $-1 $254 $253 $382 $483 reversed $93 $-1 #
edge $-1 $484 -60.689475496091568 $379 -47.032022399318691 $373 $485 forward 7 unknown #
vertex $-1 $256 $486 #
straight-curve $-1 -7.1292623688411467 20.19527224894135 13.978286264924392 1 0 0 I I #
coedge $-1 $372 $257 $260 $386 reversed $250 $-1 #
coedge $-1 $257 $372 $377 $483 forward $250 $-1 #
vertex $-1 $258 $487 #
straight-curve $-1 -30.801955235414564 30.344737748045773 75.403861501264643 0 0 1 I I #
straight-curve $-1 -30.801955235414564 -14.756331488052965 45.448852309756518 0 0.74314481823134659 -0.66913061440640931 I I #
edge $-1 $481 -2.2849057600499769 $262 30.801955235414564 $381 $488 forward 7 unknown #
point $-1 -30.801955235414564 30.344737748045773 13.978286264924396 #
point $-1 -30.801955235414564 20.195272248941343 13.978286264924396 #
edge $-1 $489 1 $489 0 $265 $-1 forward 7 unknown #
vertex $-1 $266 $490 #
ellipse-curve $-1 -24.184583036321648 21.267535096059984 4.9637832069240266 0 0.66913061440640931 0.74314481823134659 1.5 0 0 1 I I #
point $-1 -22.684583036321648 25.270004998493587 9.4089762739892358 #
edge $-1 $491 1 $491 0 $269 $-1 forward 7 unknown #
vertex $-1 $270 $492 #
ellipse-curve $-1 -14.258524737682279 21.267535096059984 4.9637832069240266 0 0.66913061440640931 0.74314481823134659 1.5 0 0 1 I I #
point $-1 -12.758524737682279 25.270004998493587 9.4089762739892358 #
edge $-1 $493 1 $493 0 $273 $-1 forward 7 unknown #
vertex $-1 $274 $494 #
ellipse-curve $-1 -4.3324664390429177 21.267535096059984 4.9637832069240266 0 0.66913061440640931 0.74314481823134659 1.5 0 0 1 I I #
point $-1 -2.8324664390429177 25.270004998493587 9.4089762739892358 #
loop $-1 $-1 $285 $277 #
plane-surface $-1 0 -30.344737748045773 0 0 1 0 0 0 1 forward_v I I I I #
coedge $-1 $404 $280 $282 $408 reversed $179 $-1 #
coedge $-1 $280 $403 $495 $496 reversed $179 $-1 #
coedge $-1 $288 $283 $280 $406 forward $278 $-1 #
edge $-1 $409 -43.909513597047727 $497 -38.326860344722249 $405 $498 forward 7 unknown #
coedge $-1 $282 $281 $412 $499 reversed $112 $-1 #
edge $-1 $500 0 $409 8.5093765755374786 $403 $501 forward 7 unknown #
vertex $-1 $284 $502 #
straight-curve $-1 -24.606015965691604 -24.762084495720291 13.978286264924396 -1 0 0 I I #
coedge $-1 $495 $285 $288 $416 reversed $401 $-1 #
coedge $-1 $285 $495 $407 $499 forward $401 $-1 #
vertex $-1 $286 $503 #
straight-curve $-1 -41.650612901926728 -30.344737748045773 50.284258342145613 0 0 1 I I #
straight-curve $-1 -41.650612901926728 -30.344737748045773 7.5561781711123928 0 -0.65605901945558964 -0.75470958851134928 I I #
edge $-1 $497 -56.773450960839689 $289 -41.650612901926728 $411 $504 forward 7 unknown #
point $-1 -41.650612901926728 -30.344737748045773 13.978286264924396 #
point $-1 -41.650612901926728 -24.762084495720295 13.978286264924396 #
edge $-1 $505 1 $505 0 $292 $-1 forward 7 unknown #
vertex $-1 $293 $506 #
ellipse-curve $-1 -52.452640086864562 -25.921573613522774 9.3486975499252196 0 -0.75470958851134928 0.65605901945558964 1 0 0 1 I I #
point $-1 -51.452640086864562 -27.553411121883034 10.767232218018394 #
edge $-1 $507 1 $507 0 $296 $-1 forward 7 unknown #
vertex $-1 $297 $508 #
ellipse-curve $-1 -45.971423775901862 -25.921573613522774 9.3486975499252196 0 -0.75470958851134928 0.65605901945558964 1 0 0 1 I I #
point $-1 -44.971423775901862 -27.553411121883034 10.767232218018394 #
plane-surface $-1 70.887173070467242 0 0 -1 0 0 0 0 1 forward_v I I I I #
coedge $-1 $305 $303 $307 $432 reversed $201 $-1 #
edge $-1 $318 -13.978286264924396 $434 13.978286264924396 $317 $509 forward 7 unknown #
vertex $-1 $432 $510 #
straight-curve $-1 -70.887173070467242 -30.344737748045773 0 0 0 -1 I I #
edge $-1 $430 -30.344737748045773 $434 30.344737748045773 $428 $511 forward 7 unknown #
straight-curve $-1 0 -30.344737748045773 -13.978286264924396 -1 0 0 I I #
vertex $-1 $310 $512 #
straight-curve $-1 0 30.344737748045773 -13.978286264924396 1 0 0 I I #
point $-1 70.887173070467242 30.344737748045773 -13.978286264924396 #
point $-1 70.887173070467242 -30.344737748045773 -13.978286264924396 #
straight-curve $-1 -70.887173070467242 0 13.978286264924396 0 -1 0 I I #
point $-1 -70.887173070467242 30.344737748045773 13.978286264924396 #
point $-1 -70.887173070467242 -30.344737748045773 13.978286264924396 #
straight-curve $-1 70.887173070467242 -30.344737748045773 0 0 0 -1 I I #
straight-curve $-1 70.887173070467242 30.344737748045773 0 0 0 -1 I I #
plane-surface $-1 0 0 13.978286264924396 0 0 1 1 0 0 forward_v I I I I #
coedge $-1 $332 $329 $334 $451 reversed $220 $-1 #
coedge $-1 $329 $332 $457 $513 reversed $220 $-1 #
edge $-1 $459 -13.978286264924396 $453 13.978286264924396 $346 $514 forward 7 unknown #
edge $-1 $448 -7.0568610548137798 $344 7.0568610548137798 $331 $515 forward 7 unknown #
vertex $-1 $513 $516 #
vertex $-1 $451 $517 #
straight-curve $-1 -85.000895180094801 -19.218541858912388 0 0 0 -1 I I #
edge $-1 $449 -2.9199248023172117 $453 2.91992480231721 $444 $518 forward 7 unknown #
straight-curve $-1 -77.944034125281021 -19.218541858912388 -13.978286264924396 -1 0 0 I I #
vertex $-1 $336 $519 #
straight-curve $-1 -77.944034125281021 -13.378692254277967 -13.978286264924396 1 0 0 I I #
point $-1 -70.887173070467242 -19.218541858912388 -13.978286264924396 #
straight-curve $-1 -70.887173070467242 -19.218541858912388 0 0 0 -1 I I #
coedge $-1 $342 $341 $445 $513 forward $343 $-1 #
point $-1 -70.887173070467242 -19.218541858912388 13.978286264924396 #
vertex $-1 $347 $520 #
straight-curve $-1 -77.944034125281021 -13.378692254277967 13.978286264924396 -1 0 0 I I #
plane-surface $-1 0 0 13.978286264924396 0 0 1 1 0 0 forward_v I I I I #
coedge $-1 $466 $521 $367 $477 forward $351 $-1 #
coedge $-1 $353 $360 $363 $475 reversed $236 $-1 #
coedge $-1 $521 $466 $353 $465 reversed $351 $-1 #
edge $-1 $522 -13.978286264924396 $468 13.978286264924396 $464 $523 forward 7 unknown #
coedge $-1 $464 $462 $354 $467 reversed $351 $-1 #
edge $-1 $468 -2.91992480231721 $470 2.9199248023172117 $466 $524 forward 7 unknown #
vertex $-1 $467 $525 #
straight-curve $-1 77.944034125281036 -13.378692254277967 -13.978286264924396 1 0 0 I I #
vertex $-1 $477 $526 #
straight-curve $-1 77.944034125281036 -19.218541858912388 -13.978286264924396 -1 0 0 I I #
point $-1 70.887173070467256 -13.378692254277967 -13.978286264924396 #
straight-curve $-1 70.887173070467242 -13.378692254277967 0 0 0 -1 I I #
coedge $-1 $363 $362 $521 $527 forward $364 $-1 #
edge $-1 $522 -7.0568610548137798 $365 7.0568610548137798 $463 $528 forward 7 unknown #
point $-1 70.887173070467256 -13.378692254277967 13.978286264924396 #
edge $-1 $478 -13.978286264924396 $470 13.978286264924396 $462 $529 forward 7 unknown #
vertex $-1 $527 $530 #
straight-curve $-1 77.944034125281036 -19.218541858912388 13.978286264924396 1 0 0 I I #
edge $-1 $481 61.425575236340251 $484 70.5641952182106 $372 $531 forward 7 unknown #
vertex $-1 $386 $532 #
straight-curve $-1 2.2849057600499769 40.054611926148738 13.978286264924392 0 1 0 I I #
edge $-1 $484 -9.4141681288911236 $383 23.672692866573417 $382 $533 forward 7 unknown #
vertex $-1 $483 $534 #
straight-curve $-1 2.2849057600499769 -14.756331488052965 45.448852309756518 0 -0.74314481823134659 0.66913061440640931 I I #
point $-1 2.2849057600499769 20.195272248941343 13.978286264924396 #
point $-1 -30.801955235414564 30.344737748045773 4.8396662830540436 #
straight-curve $-1 0 30.344737748045773 13.978286264924396 -1 0 0 I I #
vertex $-1 $389 $535 #
point $-1 -22.684583036321648 21.267535096059984 4.9637832069240266 #
vertex $-1 $393 $536 #
point $-1 -12.758524737682279 21.267535096059984 4.9637832069240266 #
vertex $-1 $397 $537 #
point $-1 -2.8324664390429177 21.267535096059984 4.9637832069240266 #
coedge $-1 $412 $411 $404 $496 forward $401 $-1 #
edge $-1 $497 36.305972077221213 $500 42.72808017103322 $495 $538 forward 7 unknown #
vertex $-1 $416 $539 #
straight-curve $-1 -56.773450960839689 -68.671598092768022 13.978286264924392 0 -1 0 I I #
edge $-1 $500 -32.167434995148085 $413 -17.044596936235124 $412 $540 forward 7 unknown #
vertex $-1 $499 $541 #
straight-curve $-1 -56.773450960839689 -30.344737748045773 7.5561781711123928 0 0.65605901945558964 0.75470958851134928 I I #
point $-1 -56.773450960839689 -24.762084495720295 13.978286264924396 #
point $-1 -41.650612901926728 -30.344737748045773 7.5561781711123928 #
straight-curve $-1 0 -30.344737748045773 13.978286264924396 1 0 0 I I #
vertex $-1 $419 $542 #
point $-1 -51.452640086864562 -25.921573613522774 9.3486975499252196 #
vertex $-1 $423 $543 #
point $-1 -44.971423775901862 -25.921573613522774 9.3486975499252196 #
straight-curve $-1 -70.887173070467242 30.344737748045773 0 0 0 -1 I I #
point $-1 -70.887173070467242 -30.344737748045773 -13.978286264924396 #
straight-curve $-1 -70.887173070467242 0 -13.978286264924396 0 1 0 I I #
point $-1 -70.887173070467242 30.344737748045773 -13.978286264924396 #
edge $-1 $459 -2.91992480231721 $448 2.9199248023172117 $445 $544 forward 7 unknown #
straight-curve $-1 -85.000895180094801 -13.378692254277967 0 0 0 -1 I I #
straight-curve $-1 -77.944034125281021 -19.218541858912388 13.978286264924396 1 0 0 I I #
point $-1 -85.000895180094801 -19.218541858912388 13.978286264924396 #
point $-1 -85.000895180094801 -19.218541858912388 -13.978286264924396 #
straight-curve $-1 -85.000895180094801 -16.298617056595177 -13.978286264924396 0 1 0 I I #
point $-1 -85.000895180094801 -13.378692254277967 -13.978286264924396 #
point $-1 -85.000895180094801 -13.378692254277967 13.978286264924396 #
coedge $-1 $462 $464 $474 $527 reversed $351 $-1 #
vertex $-1 $527 $545 #
straight-curve $-1 85.000895180094815 -13.378692254277967 0 0 0 -1 I I #
straight-curve $-1 85.000895180094815 -16.298617056595177 -13.978286264924396 0 -1 0 I I #
point $-1 85.000895180094815 -13.378692254277967 -13.978286264924396 #
point $-1 85.000895180094815 -19.218541858912388 -13.978286264924396 #
edge $-1 $478 -2.9199248023172117 $522 2.91992480231721 $521 $546 forward 7 unknown #
straight-curve $-1 77.944034125281036 -13.378692254277967 13.978286264924396 -1 0 0 I I #
straight-curve $-1 85.000895180094815 -19.218541858912388 0 0 0 -1 I I #
point $-1 85.000895180094815 -19.218541858912388 13.978286264924396 #
straight-curve $-1 2.2849057600499769 30.344737748045773 75.403861501264643 0 0 -1 I I #
point $-1 2.2849057600499769 30.344737748045773 13.978286264924396 #
straight-curve $-1 -7.1292623688411467 30.344737748045773 4.83966628305404 -1 0 0 I I #
point $-1 2.2849057600499769 30.344737748045773 4.8396662830540436 #
point $-1 -24.184583036321648 20.263839174450371 3.8490659795770066 #
point $-1 -14.258524737682279 20.263839174450371 3.8490659795770066 #
point $-1 -4.3324664390429177 20.263839174450371 3.8490659795770066 #
straight-curve $-1 -56.773450960839689 -30.344737748045773 50.284258342145613 0 0 -1 I I #
point $-1 -56.773450960839689 -30.344737748045773 13.978286264924396 #
straight-curve $-1 -24.606015965691604 -30.344737748045773 7.5561781711123892 1 0 0 I I #
point $-1 -56.773450960839689 -30.344737748045773 7.5561781711123928 #
point $-1 -52.452640086864562 -25.166864025011428 8.6926385304696296 #
point $-1 -45.971423775901862 -25.166864025011428 8.6926385304696296 #
straight-curve $-1 -85.000895180094801 -16.298617056595177 13.978286264924396 0 -1 0 I I #
point $-1 85.000895180094815 -13.378692254277967 13.978286264924396 #
straight-curve $-1 85.000895180094815 -16.298617056595177 13.978286264924396 0 1 0 I I #
End-of-ACIS-data 