500 0 7 0           
7 Unknown 11 ACIS 5.0 NT 24 Thu Mar 25 15:16:14 1999 
-1 9.9999999999999995e-007 1e-010 
body $-1 $7 $-1 $8 #
body $-1 $9 $-1 $10 #
body $-1 $11 $-1 $12 #
body $-1 $13 $-1 $14 #
body $-1 $15 $-1 $16 #
body $-1 $17 $-1 $18 #
body $-1 $19 $-1 $20 #
lump $-1 $-1 $21 $0 #
transform $-1 1 0 0 0 1 0 0 0 1 52.958159123508409 24.658748905276422 10.168582627578846 1 rotate no_reflect no_shear #
lump $-1 $-1 $22 $1 #
transform $-1 1 0 0 0 1 0 0 0 1 52.958159123508409 24.658748905276422 10.168582627578846 1 rotate no_reflect no_shear #
lump $-1 $-1 $23 $2 #
transform $-1 1 0 0 0 1 0 0 0 1 52.958159123508409 24.658748905276422 10.168582627578846 1 rotate no_reflect no_shear #
lump $-1 $-1 $24 $3 #
transform $-1 1 0 0 0 1 0 0 0 1 52.958159123508409 24.658748905276422 10.168582627578846 1 rotate no_reflect no_shear #
lump $-1 $-1 $25 $4 #
transform $-1 1 0 0 0 1 0 0 0 1 52.958159123508409 24.658748905276422 10.168582627578846 1 rotate no_reflect no_shear #
lump $-1 $-1 $26 $5 #
transform $-1 1 0 0 0 1 0 0 0 1 52.958159123508409 24.658748905276422 10.168582627578846 1 rotate no_reflect no_shear #
lump $-1 $-1 $27 $6 #
transform $-1 1 0 0 0 1 0 0 0 1 52.958159123508409 24.658748905276422 10.168582627578846 1 rotate no_reflect no_shear #
shell $-1 $-1 $-1 $28 $-1 $7 #
shell $-1 $-1 $-1 $29 $-1 $9 #
shell $-1 $-1 $-1 $30 $-1 $11 #
shell $-1 $-1 $-1 $31 $-1 $13 #
shell $-1 $-1 $-1 $32 $-1 $15 #
shell $-1 $-1 $-1 $33 $-1 $17 #
shell $-1 $-1 $-1 $34 $-1 $19 #
face $-1 $35 $36 $21 $-1 $37 reversed single #
face $-1 $38 $39 $22 $-1 $40 forward single #
face $-1 $41 $42 $23 $-1 $43 reversed single #
face $-1 $44 $45 $24 $-1 $46 forward single #
face $-1 $47 $48 $25 $-1 $49 reversed single #
face $-1 $50 $51 $26 $-1 $52 forward single #
face $-1 $53 $54 $27 $-1 $55 forward single #
face $-1 $56 $57 $21 $-1 $58 forward single #
loop $-1 $-1 $59 $28 #
plane-surface $-1 0 -24.658748905276422 0 0 1 0 0 0 1 forward_v I I I I #
face $-1 $60 $61 $22 $-1 $62 forward single #
loop $-1 $-1 $63 $29 #
plane-surface $-1 0 -24.658748905276422 0 0 1 0 0 0 1 forward_v I I I I #
face $-1 $64 $65 $23 $-1 $66 reversed single #
loop $-1 $-1 $67 $30 #
plane-surface $-1 -126.53381702634965 1.8640093993003681 78.91465824577628 0 1 0 -0.69465837861970381 0 0.71933979245794832 forward_v I I I I #
face $-1 $68 $69 $24 $-1 $70 forward single #
loop $-1 $71 $72 $31 #
cone-surface $-1 -47.821100431268199 6.5128809433375814 5.11817973088485 0.69465837861970381 0 -0.71933979245794832 0.71933979245794832 0 0.69465837861970381 1 I I 0 1 1 forward I I I I #
face $-1 $73 $74 $25 $-1 $75 reversed single #
loop $-1 $-1 $76 $32 #
plane-surface $-1 76.390212784093279 13.020428597274957 150.43446060224349 0 1 0 0.80901700255871778 0 0.5877852410284794 forward_v I I I I #
face $-1 $77 $78 $26 $-1 $79 forward single #
loop $-1 $80 $81 $33 #
cone-surface $-1 49.601919306848707 16.345662970989661 5.9175372449930235 -0.80901700255871778 0 -0.5877852410284794 0.5877852410284794 0 -0.80901700255871778 1 I I 0 1 1 forward I I I I #
face $-1 $82 $83 $27 $-1 $84 forward single #
loop $-1 $85 $86 $34 #
cone-surface $-1 49.601919306848707 21.333514531561715 5.9175372449930235 -0.80901700255871778 0 -0.5877852410284794 0.5877852410284794 0 -0.80901700255871778 1 I I 0 1 1 forward I I I I #
face $-1 $87 $88 $21 $-1 $89 reversed single #
loop $-1 $-1 $90 $35 #
plane-surface $-1 0 0 10.168582627578846 0 0 1 1 0 0 forward_v I I I I #
coedge $-1 $91 $92 $93 $94 reversed $36 $-1 #
face $-1 $95 $96 $22 $-1 $97 reversed single #
loop $-1 $-1 $98 $38 #
plane-surface $-1 0 0 10.168582627578846 0 0 1 1 0 0 forward_v I I I I #
coedge $-1 $99 $100 $101 $102 forward $39 $-1 #
face $-1 $103 $104 $23 $-1 $105 reversed single #
loop $-1 $-1 $106 $41 #
plane-surface $-1 -52.958159123508395 6.5128809433375814 2.7248358600571976 -0.69465837861970381 0 0.71933979245794832 0.71933979245794832 0 0.69465837861970381 forward_v I I I I #
coedge $-1 $107 $108 $109 $110 reversed $42 $-1 #
face $-1 $-1 $111 $24 $-1 $112 forward single #
loop $-1 $113 $114 $44 #
cone-surface $-1 -46.190825175191804 6.5128809433375814 3.4299803217226987 0.69465837861970381 0 -0.71933979245794832 0.35966989622897416 0 0.3473291893098519 1 I I -0.70710678118654746 0.70710678118654746 0.5 forward I I I I #
loop $-1 $-1 $115 $31 #
coedge $-1 $72 $72 $116 $117 reversed $45 $-1 #
face $-1 $118 $119 $25 $-1 $120 forward single #
loop $-1 $-1 $121 $47 #
plane-surface $-1 -9.2978895261634875 18.839588751275688 88.178411952571579 0.80901700255871778 0 0.5877852410284794 0.5877852410284794 0 -0.80901700255871778 forward_v I I I I #
coedge $-1 $122 $123 $124 $125 reversed $48 $-1 #
face $-1 $-1 $126 $26 $-1 $127 forward single #
loop $-1 $128 $129 $50 #
cone-surface $-1 48.630466839955943 16.345662970989661 5.2117357345249751 -0.80901700255871778 0 -0.5877852410284794 0.2938926205142397 0 -0.40450850127935889 1 I I -0.70710678118654746 0.70710678118654746 0.5 forward I I I I #
loop $-1 $-1 $130 $33 #
coedge $-1 $81 $81 $131 $132 reversed $51 $-1 #
face $-1 $-1 $133 $27 $-1 $134 forward single #
loop $-1 $135 $136 $53 #
cone-surface $-1 48.630466839955943 21.333514531561715 5.2117357345249751 -0.80901700255871778 0 -0.5877852410284794 0.2938926205142397 0 -0.40450850127935889 1 I I -0.70710678118654746 0.70710678118654746 0.5 forward I I I I #
loop $-1 $-1 $137 $34 #
coedge $-1 $86 $86 $138 $139 reversed $54 $-1 #
face $-1 $140 $141 $21 $-1 $142 reversed single #
loop $-1 $-1 $143 $56 #
plane-surface $-1 0 0 -10.168582627578846 0 0 1 1 0 0 forward_v I I I I #
coedge $-1 $144 $145 $146 $147 forward $57 $-1 #
coedge $-1 $148 $59 $149 $150 reversed $36 $-1 #
coedge $-1 $59 $148 $151 $152 forward $36 $-1 #
coedge $-1 $153 $143 $59 $94 forward $88 $-1 #
edge $-1 $154 -52.958159123508409 $155 52.958159123508409 $59 $156 forward 7 unknown #
face $-1 $157 $158 $22 $-1 $159 reversed single #
loop $-1 $-1 $160 $60 #
plane-surface $-1 -52.958159123508409 0 0 1 0 0 0 0 -1 forward_v I I I I #
coedge $-1 $161 $162 $100 $163 forward $61 $-1 #
coedge $-1 $164 $63 $165 $166 reversed $39 $-1 #
coedge $-1 $63 $164 $98 $163 reversed $39 $-1 #
coedge $-1 $167 $168 $63 $102 reversed $169 $-1 #
edge $-1 $170 -10.168582627578846 $171 10.168582627578846 $101 $172 forward 7 unknown #
face $-1 $173 $174 $23 $-1 $175 reversed single #
loop $-1 $-1 $176 $64 #
plane-surface $-1 -126.53381702634965 11.161752487374795 78.91465824577628 0 -1 0 0.69465837861970381 0 -0.71933979245794832 forward_v I I I I #
coedge $-1 $177 $178 $179 $180 reversed $65 $-1 #
coedge $-1 $108 $67 $181 $182 reversed $42 $-1 #
coedge $-1 $67 $107 $177 $183 reversed $42 $-1 #
coedge $-1 $179 $184 $67 $110 forward $185 $-1 #
edge $-1 $186 10.308749389666417 $187 18.016974640613782 $109 $188 forward 7 unknown #
loop $-1 $-1 $116 $68 #
plane-surface $-1 -52.958159123508395 6.5128809433375814 2.7248358600571976 -0.69465837861970381 0 0.71933979245794832 0.71933979245794832 0 0.69465837861970381 forward_v I I I I #
loop $-1 $-1 $189 $44 #
coedge $-1 $114 $114 $115 $190 reversed $69 $-1 #
coedge $-1 $115 $115 $114 $190 forward $71 $-1 #
coedge $-1 $116 $116 $72 $117 forward $111 $-1 #
edge $-1 $191 0 $191 6.2831853071796004 $116 $192 forward 7 unknown #
face $-1 $193 $194 $25 $-1 $195 reversed single #
loop $-1 $-1 $196 $73 #
plane-surface $-1 0 0 10.168582627578846 0 0 1 1 0 0 forward_v I I I I #
coedge $-1 $197 $198 $199 $200 reversed $74 $-1 #
coedge $-1 $123 $76 $201 $202 reversed $48 $-1 #
coedge $-1 $76 $122 $197 $203 reversed $48 $-1 #
coedge $-1 $199 $204 $76 $125 forward $205 $-1 #
edge $-1 $206 65.048647673542902 $207 72.726920658806918 $124 $208 forward 7 unknown #
loop $-1 $-1 $131 $77 #
plane-surface $-1 -9.2978895261634875 18.839588751275688 88.178411952571579 0.80901700255871778 0 0.5877852410284794 0.5877852410284794 0 -0.80901700255871778 forward_v I I I I #
loop $-1 $-1 $209 $50 #
coedge $-1 $129 $129 $130 $210 reversed $78 $-1 #
coedge $-1 $130 $130 $129 $210 forward $80 $-1 #
coedge $-1 $131 $131 $81 $132 forward $126 $-1 #
edge $-1 $211 0 $211 6.2831853071796004 $131 $212 forward 7 unknown #
loop $-1 $-1 $138 $82 #
plane-surface $-1 -9.2978895261634875 18.839588751275688 88.178411952571579 0.80901700255871778 0 0.5877852410284794 0.5877852410284794 0 -0.80901700255871778 forward_v I I I I #
loop $-1 $-1 $213 $53 #
coedge $-1 $136 $136 $137 $214 reversed $83 $-1 #
coedge $-1 $137 $137 $136 $214 forward $85 $-1 #
coedge $-1 $138 $138 $86 $139 forward $133 $-1 #
edge $-1 $215 0 $215 6.2831853071796004 $138 $216 forward 7 unknown #
face $-1 $217 $218 $21 $-1 $219 reversed single #
loop $-1 $-1 $220 $87 #
plane-surface $-1 -52.958159123508409 0 0 1 0 0 0 0 -1 forward_v I I I I #
coedge $-1 $93 $221 $222 $223 forward $88 $-1 #
coedge $-1 $224 $90 $225 $226 forward $57 $-1 #
coedge $-1 $90 $224 $148 $227 forward $57 $-1 #
coedge $-1 $149 $228 $90 $147 reversed $229 $-1 #
edge $-1 $230 -24.658748905276422 $231 24.658748905276422 $146 $232 forward 7 unknown #
coedge $-1 $92 $91 $145 $227 reversed $36 $-1 #
coedge $-1 $222 $146 $91 $150 forward $229 $-1 #
edge $-1 $230 -10.168582627578846 $154 10.168582627578846 $149 $233 forward 7 unknown #
coedge $-1 $234 $235 $92 $152 reversed $141 $-1 #
edge $-1 $236 -10.168582627578846 $155 10.168582627578846 $151 $237 forward 7 unknown #
coedge $-1 $221 $93 $235 $238 forward $88 $-1 #
vertex $-1 $150 $239 #
vertex $-1 $238 $240 #
straight-curve $-1 0 -24.658748905276422 -10.168582627578846 -1 0 0 I I #
face $-1 $241 $169 $22 $-1 $242 reversed single #
loop $-1 $-1 $243 $95 #
plane-surface $-1 -51.458159123508409 -32.843267804983853 0 0 1 0 0 0 1 forward_v I I I I #
coedge $-1 $244 $245 $164 $246 forward $96 $-1 #
coedge $-1 $247 $98 $245 $248 forward $61 $-1 #
coedge $-1 $98 $247 $167 $249 forward $61 $-1 #
edge $-1 $170 49.958159123508409 $250 52.958159123508409 $98 $251 forward 7 unknown #
coedge $-1 $100 $99 $160 $246 reversed $39 $-1 #
coedge $-1 $252 $253 $99 $166 forward $254 $-1 #
edge $-1 $255 -52.958159123508409 $171 -49.958159123508409 $165 $256 forward 7 unknown #
coedge $-1 $257 $101 $162 $249 reversed $169 $-1 #
coedge $-1 $101 $257 $252 $258 reversed $169 $-1 #
loop $-1 $-1 $257 $157 #
vertex $-1 $163 $259 #
vertex $-1 $258 $260 #
straight-curve $-1 -49.958159123508409 -24.658748905276422 0 0 0 -1 I I #
face $-1 $-1 $185 $23 $-1 $261 forward single #
loop $-1 $-1 $262 $103 #
plane-surface $-1 -52.958159123508409 0 0 1 0 0 0 0 -1 forward_v I I I I #
coedge $-1 $263 $264 $265 $266 reversed $104 $-1 #
coedge $-1 $267 $106 $108 $183 forward $65 $-1 #
coedge $-1 $106 $267 $263 $268 forward $65 $-1 #
coedge $-1 $265 $109 $106 $180 forward $185 $-1 #
edge $-1 $187 -1.3924310723684226 $269 7.9053120157060039 $179 $270 forward 7 unknown #
coedge $-1 $271 $272 $107 $182 forward $174 $-1 #
edge $-1 $273 -36.732493262830957 $186 -29.288746495309294 $181 $274 forward 7 unknown #
edge $-1 $187 -10.715694212617834 $273 1.9785632286268914e-014 $108 $275 forward 7 unknown #
coedge $-1 $109 $265 $271 $276 forward $185 $-1 #
loop $-1 $-1 $265 $173 #
vertex $-1 $182 $277 #
vertex $-1 $110 $278 #
straight-curve $-1 -63.266908513174826 1.8640093993003681 10.168582627578843 1 0 0 I I #
coedge $-1 $189 $189 $-1 $279 reversed $113 $-1 #
edge $-1 $280 0 $280 6.2831853071796004 $114 $281 forward 7 unknown #
vertex $-1 $117 $282 #
ellipse-curve $-1 -49.104046498034727 6.5128809433375814 6.4467092438180131 -0.69465837861970381 0 0.71933979245794832 0.71933979245794832 0 0.69465837861970381 1 I I #
face $-1 $-1 $205 $25 $-1 $283 reversed single #
loop $-1 $-1 $284 $118 #
plane-surface $-1 0 24.658748905276422 0 0 -1 0 0 0 -1 forward_v I I I I #
coedge $-1 $201 $285 $286 $287 forward $119 $-1 #
coedge $-1 $286 $121 $123 $203 forward $74 $-1 #
coedge $-1 $121 $286 $284 $288 reversed $74 $-1 #
coedge $-1 $289 $124 $121 $200 forward $205 $-1 #
edge $-1 $207 3.6006342216371134 $290 15.238954529638578 $199 $291 forward 7 unknown #
coedge $-1 $292 $196 $122 $202 forward $119 $-1 #
edge $-1 $293 9.1844610293691957 $206 14.763052731461769 $201 $294 forward 7 unknown #
edge $-1 $207 -105.91631824701679 $293 -96.42545098343696 $123 $295 forward 7 unknown #
coedge $-1 $124 $289 $292 $296 reversed $205 $-1 #
loop $-1 $-1 $199 $193 #
vertex $-1 $296 $297 #
vertex $-1 $125 $298 #
straight-curve $-1 52.958159123508409 13.020428597274957 75.217230301121745 0 0 -1 I I #
coedge $-1 $209 $209 $-1 $299 reversed $128 $-1 #
edge $-1 $300 0 $300 6.2831853071796004 $129 $301 forward 7 unknown #
vertex $-1 $132 $302 #
ellipse-curve $-1 50.168863272462119 16.345662970989661 6.3294461349468332 0.80901700255871778 0 0.5877852410284794 0.5877852410284794 0 -0.80901700255871778 1 I I #
coedge $-1 $213 $213 $-1 $303 reversed $135 $-1 #
edge $-1 $304 0 $304 6.2831853071796004 $136 $305 forward 7 unknown #
vertex $-1 $139 $306 #
ellipse-curve $-1 50.168863272462119 21.333514531561715 6.3294461349468332 0.80901700255871778 0 0.5877852410284794 0.5877852410284794 0 -0.80901700255871778 1 I I #
face $-1 $-1 $229 $21 $-1 $307 reversed single #
loop $-1 $-1 $308 $140 #
plane-surface $-1 0 24.658748905276422 0 0 -1 0 0 0 -1 forward_v I I I I #
coedge $-1 $235 $234 $309 $310 forward $141 $-1 #
coedge $-1 $143 $153 $311 $312 forward $88 $-1 #
coedge $-1 $228 $149 $143 $223 reversed $229 $-1 #
edge $-1 $313 -24.658748905276422 $154 24.658748905276422 $222 $314 forward 7 unknown #
coedge $-1 $145 $144 $234 $315 forward $57 $-1 #
coedge $-1 $308 $309 $144 $226 reversed $218 $-1 #
edge $-1 $231 -52.958159123508409 $316 52.958159123508409 $225 $317 forward 7 unknown #
edge $-1 $236 -52.958159123508409 $230 52.958159123508409 $148 $318 forward 7 unknown #
coedge $-1 $146 $222 $308 $319 reversed $229 $-1 #
loop $-1 $-1 $149 $217 #
vertex $-1 $147 $320 #
vertex $-1 $147 $321 #
straight-curve $-1 52.958159123508409 0 10.168582627578846 0 1 0 I I #
straight-curve $-1 52.958159123508409 -24.658748905276422 0 0 0 -1 I I #
coedge $-1 $220 $151 $224 $315 reversed $141 $-1 #
coedge $-1 $151 $220 $153 $238 reversed $141 $-1 #
vertex $-1 $315 $322 #
straight-curve $-1 -52.958159123508409 -24.658748905276422 0 0 0 -1 I I #
edge $-1 $155 -24.658748905276422 $323 24.658748905276422 $235 $324 forward 7 unknown #
point $-1 52.958159123508409 -24.658748905276422 -10.168582627578846 #
point $-1 -52.958159123508409 -24.658748905276422 -10.168582627578846 #
face $-1 $-1 $254 $22 $-1 $325 reversed single #
plane-surface $-1 -49.958159123508409 -28.751008355130139 0 -1 0 0 0 0 1 forward_v I I I I #
coedge $-1 $326 $327 $328 $329 forward $158 $-1 #
coedge $-1 $328 $160 $253 $330 reversed $96 $-1 #
coedge $-1 $160 $328 $161 $248 reversed $96 $-1 #
edge $-1 $250 -10.168582627578846 $255 10.168582627578846 $160 $331 forward 7 unknown #
coedge $-1 $162 $161 $327 $332 forward $61 $-1 #
edge $-1 $250 24.658748905276422 $333 32.843267804983853 $245 $334 forward 7 unknown #
edge $-1 $335 -4.0922594498537137 $170 4.0922594498537173 $167 $336 forward 7 unknown #
vertex $-1 $248 $337 #
straight-curve $-1 0 -24.658748905276422 10.168582627578846 -1 0 0 I I #
coedge $-1 $338 $165 $168 $258 forward $254 $-1 #
coedge $-1 $165 $338 $244 $330 forward $254 $-1 #
loop $-1 $-1 $165 $241 #
vertex $-1 $246 $339 #
straight-curve $-1 0 -24.658748905276422 -10.168582627578846 1 0 0 I I #
coedge $-1 $168 $167 $340 $341 forward $169 $-1 #
edge $-1 $171 -4.0922594498537173 $342 4.0922594498537137 $168 $343 forward 7 unknown #
point $-1 -49.958159123508409 -24.658748905276422 10.168582627578846 #
point $-1 -49.958159123508409 -24.658748905276422 -10.168582627578846 #
plane-surface $-1 0 0 10.168582627578846 0 0 1 1 0 0 forward_v I I I I #
coedge $-1 $272 $271 $264 $344 forward $174 $-1 #
coedge $-1 $264 $176 $178 $268 reversed $104 $-1 #
coedge $-1 $176 $263 $262 $344 reversed $104 $-1 #
coedge $-1 $184 $179 $176 $266 forward $185 $-1 #
edge $-1 $269 -18.016974640613782 $345 -10.308749389666417 $265 $346 forward 7 unknown #
coedge $-1 $178 $177 $272 $347 reversed $65 $-1 #
edge $-1 $348 -1.9785632286268914e-014 $269 10.715694212617834 $263 $349 forward 7 unknown #
vertex $-1 $180 $350 #
straight-curve $-1 -45.249933872561044 3.2564404716687907 10.168582627578846 0 1 0 I I #
coedge $-1 $262 $181 $184 $276 reversed $174 $-1 #
coedge $-1 $181 $262 $267 $347 forward $174 $-1 #
vertex $-1 $182 $351 #
straight-curve $-1 -52.958159123508409 1.8640093993003681 39.45732912288814 0 0 1 I I #
straight-curve $-1 -52.958159123508395 1.8640093993003681 2.7248358600571976 -0.71933979245794832 0 -0.69465837861970381 I I #
edge $-1 $345 -11.161752487374795 $186 -1.8640093993003681 $271 $352 forward 7 unknown #
point $-1 -52.958159123508409 1.8640093993003681 10.168582627578846 #
point $-1 -45.249933872561044 1.8640093993003681 10.168582627578846 #
edge $-1 $353 1 $353 0 $189 $-1 forward 7 unknown #
vertex $-1 $190 $354 #
ellipse-curve $-1 -46.538154364501658 6.5128809433375814 3.7896502179516727 -0.69465837861970381 0 0.71933979245794832 0.71933979245794832 0 0.69465837861970381 1 I I #
point $-1 -48.384706705576789 6.5128809433375814 7.1413676224377314 #
plane-surface $-1 52.958159123508409 0 0 -1 0 0 0 0 1 forward_v I I I I #
coedge $-1 $355 $356 $198 $288 forward $194 $-1 #
coedge $-1 $196 $292 $355 $357 forward $119 $-1 #
coedge $-1 $198 $197 $196 $287 reversed $74 $-1 #
edge $-1 $358 -15.238954529638574 $293 -3.6006342216371134 $196 $359 forward 7 unknown #
edge $-1 $290 -67.514819864792074 $358 -58.023952601212244 $284 $360 forward 7 unknown #
coedge $-1 $204 $199 $356 $361 reversed $205 $-1 #
vertex $-1 $200 $362 #
straight-curve $-1 52.958159123508409 9.4197943756378439 2.4903096423148199 0 1 0 I I #
coedge $-1 $285 $201 $204 $296 forward $119 $-1 #
vertex $-1 $202 $363 #
straight-curve $-1 38.19510639204664 13.020428597274957 10.168582627578843 1 0 0 I I #
straight-curve $-1 -9.2978895261634875 13.020428597274957 88.178411952571579 -0.5877852410284794 0 0.80901700255871778 I I #
edge $-1 $206 13.020428597274957 $364 24.658748905276422 $204 $365 forward 7 unknown #
point $-1 52.958159123508409 13.020428597274957 10.168582627578846 #
point $-1 52.958159123508409 13.020428597274957 2.490309642314827 #
edge $-1 $366 1 $366 0 $209 $-1 forward 7 unknown #
vertex $-1 $210 $367 #
ellipse-curve $-1 49.034975341235302 16.345662970989661 5.5056283550392147 0.80901700255871778 0 0.5877852410284794 0.5877852410284794 0 -0.80901700255871778 1 I I #
point $-1 50.756648513490596 16.345662970989661 5.5204291323881147 #
edge $-1 $368 1 $368 0 $213 $-1 forward 7 unknown #
vertex $-1 $214 $369 #
ellipse-curve $-1 49.034975341235302 21.333514531561715 5.5056283550392147 0.80901700255871778 0 0.5877852410284794 0.5877852410284794 0 -0.80901700255871778 1 I I #
point $-1 50.756648513490596 21.333514531561715 5.5204291323881147 #
plane-surface $-1 52.958159123508409 0 0 -1 0 0 0 0 1 forward_v I I I I #
coedge $-1 $311 $225 $228 $319 forward $218 $-1 #
coedge $-1 $225 $311 $220 $310 reversed $218 $-1 #
edge $-1 $316 -10.168582627578846 $323 10.168582627578846 $309 $370 forward 7 unknown #
coedge $-1 $309 $308 $221 $312 reversed $218 $-1 #
edge $-1 $323 -52.958159123508409 $313 52.958159123508409 $311 $371 forward 7 unknown #
vertex $-1 $223 $372 #
straight-curve $-1 52.958159123508409 0 -10.168582627578846 0 -1 0 I I #
edge $-1 $316 -24.658748905276422 $236 24.658748905276422 $234 $373 forward 7 unknown #
vertex $-1 $226 $374 #
straight-curve $-1 0 24.658748905276422 10.168582627578846 -1 0 0 I I #
straight-curve $-1 0 -24.658748905276422 10.168582627578846 1 0 0 I I #
edge $-1 $231 -10.168582627578846 $313 10.168582627578846 $228 $375 forward 7 unknown #
point $-1 52.958159123508409 -24.658748905276422 10.168582627578846 #
point $-1 52.958159123508409 24.658748905276422 10.168582627578846 #
point $-1 -52.958159123508409 -24.658748905276422 10.168582627578846 #
vertex $-1 $312 $376 #
straight-curve $-1 -52.958159123508409 0 -10.168582627578846 0 1 0 I I #
plane-surface $-1 0 0 -10.168582627578846 0 0 1 1 0 0 forward_v I I I I #
coedge $-1 $340 $243 $338 $377 reversed $158 $-1 #
coedge $-1 $243 $340 $247 $332 reversed $158 $-1 #
coedge $-1 $245 $244 $243 $329 reversed $96 $-1 #
edge $-1 $333 -10.168582627578846 $378 10.168582627578846 $328 $379 forward 7 unknown #
edge $-1 $378 -32.843267804983853 $255 -24.658748905276422 $244 $380 forward 7 unknown #
straight-curve $-1 -52.958159123508409 -24.658748905276422 0 0 0 -1 I I #
edge $-1 $333 -1.5 $335 1.5 $327 $381 forward 7 unknown #
vertex $-1 $248 $382 #
straight-curve $-1 -52.958159123508409 0 10.168582627578846 0 -1 0 I I #
vertex $-1 $249 $383 #
straight-curve $-1 -49.958159123508409 -28.751008355130139 10.168582627578846 0 1 0 I I #
point $-1 -52.958159123508409 -24.658748905276422 10.168582627578846 #
coedge $-1 $253 $252 $326 $377 forward $254 $-1 #
point $-1 -52.958159123508409 -24.658748905276422 -10.168582627578846 #
coedge $-1 $327 $326 $257 $341 reversed $158 $-1 #
edge $-1 $335 -10.168582627578846 $342 10.168582627578846 $257 $384 forward 7 unknown #
vertex $-1 $341 $385 #
straight-curve $-1 -49.958159123508409 -28.751008355130139 -10.168582627578846 0 -1 0 I I #
edge $-1 $345 29.288746495309294 $348 36.732493262830957 $262 $386 forward 7 unknown #
vertex $-1 $276 $387 #
straight-curve $-1 -63.266908513174826 11.161752487374795 10.168582627578843 -1 0 0 I I #
edge $-1 $348 -7.9053120157060039 $273 1.3924310723684226 $272 $388 forward 7 unknown #
vertex $-1 $347 $389 #
straight-curve $-1 -52.958159123508395 11.161752487374795 2.7248358600571976 0.71933979245794832 0 0.69465837861970381 I I #
point $-1 -45.249933872561044 11.161752487374795 10.168582627578846 #
point $-1 -52.958159123508409 1.8640093993003681 2.7248358600571838 #
straight-curve $-1 -52.958159123508409 0 10.168582627578846 0 -1 0 I I #
vertex $-1 $279 $390 #
point $-1 -45.818814572043706 6.5128809433375814 4.4843085965713767 #
coedge $-1 $356 $284 $285 $357 reversed $194 $-1 #
coedge $-1 $284 $355 $289 $361 forward $194 $-1 #
edge $-1 $364 -52.958159123508409 $358 -47.379567421415835 $355 $391 forward 7 unknown #
vertex $-1 $287 $392 #
straight-curve $-1 47.379567421415835 9.4197943756378439 10.168582627578843 0 -1 0 I I #
straight-curve $-1 13.273944456287236 24.658748905276422 57.110946837620688 -0.5877852410284794 0 0.80901700255871778 I I #
edge $-1 $364 -10.168582627578846 $290 -2.4903096423148305 $289 $393 forward 7 unknown #
point $-1 52.958159123508409 24.658748905276422 2.4903096423148305 #
point $-1 47.379567421415835 13.020428597274957 10.168582627578843 #
vertex $-1 $296 $394 #
straight-curve $-1 52.958159123508409 0 10.168582627578846 0 1 0 I I #
vertex $-1 $299 $395 #
point $-1 49.62276058226378 16.345662970989661 4.6966113524804971 #
vertex $-1 $303 $396 #
point $-1 49.62276058226378 21.333514531561715 4.6966113524804971 #
straight-curve $-1 -52.958159123508409 24.658748905276422 0 0 0 -1 I I #
straight-curve $-1 0 24.658748905276422 -10.168582627578846 1 0 0 I I #
point $-1 52.958159123508409 24.658748905276422 -10.168582627578846 #
straight-curve $-1 -52.958159123508409 0 10.168582627578846 0 -1 0 I I #
point $-1 -52.958159123508409 24.658748905276422 10.168582627578846 #
straight-curve $-1 52.958159123508409 24.658748905276422 0 0 0 -1 I I #
point $-1 -52.958159123508409 24.658748905276422 -10.168582627578846 #
edge $-1 $342 -1.5 $378 1.5 $326 $397 forward 7 unknown #
vertex $-1 $330 $398 #
straight-curve $-1 -52.958159123508409 -32.843267804983853 0 0 0 -1 I I #
straight-curve $-1 -52.958159123508409 0 -10.168582627578846 0 1 0 I I #
straight-curve $-1 -51.458159123508409 -32.843267804983853 10.168582627578846 1 0 0 I I #
point $-1 -52.958159123508409 -32.843267804983853 10.168582627578846 #
point $-1 -49.958159123508409 -32.843267804983853 10.168582627578846 #
straight-curve $-1 -49.958159123508409 -32.843267804983853 0 0 0 -1 I I #
point $-1 -49.958159123508409 -32.843267804983853 -10.168582627578846 #
straight-curve $-1 -52.958159123508409 11.161752487374795 39.45732912288814 0 0 -1 I I #
point $-1 -52.958159123508409 11.161752487374795 10.168582627578846 #
straight-curve $-1 -52.958159123508409 3.2564404716687907 2.7248358600571847 0 -1 0 I I #
point $-1 -52.958159123508409 11.161752487374795 2.7248358600571838 #
point $-1 -45.843495985881951 6.5128809433375814 3.0703104254937248 #
straight-curve $-1 0 24.658748905276422 10.168582627578846 -1 0 0 I I #
point $-1 47.379567421415835 24.658748905276418 10.168582627578843 #
straight-curve $-1 52.958159123508409 24.658748905276422 0 0 0 -1 I I #
point $-1 52.958159123508409 24.658748905276422 10.168582627578846 #
point $-1 48.225958338676584 16.345662970989661 4.9178431140107355 #
point $-1 48.225958338676584 21.333514531561715 4.9178431140107355 #
straight-curve $-1 -51.458159123508409 -32.843267804983853 -10.168582627578846 -1 0 0 I I #
point $-1 -52.958159123508409 -32.843267804983853 -10.168582627578846 #
End-of-ACIS-data 