500 0 4 0           
7 Unknown 11 ACIS 5.0 NT 24 Thu Mar 25 19:12:04 1999 
-1 9.9999999999999995e-007 1e-010 
body $-1 $4 $-1 $5 #
body $-1 $6 $-1 $7 #
body $-1 $8 $-1 $9 #
body $-1 $10 $-1 $11 #
lump $-1 $-1 $12 $0 #
transform $-1 1 0 0 0 1 0 0 0 1 52.900784325693536 27.485740928008887 5.7037504986169631 1 rotate no_reflect no_shear #
lump $-1 $-1 $13 $1 #
transform $-1 1 0 0 0 1 0 0 0 1 52.900784325693536 27.485740928008887 5.7037504986169631 1 rotate no_reflect no_shear #
lump $-1 $-1 $14 $2 #
transform $-1 1 0 0 0 1 0 0 0 1 52.900784325693536 27.485740928008887 5.7037504986169631 1 rotate no_reflect no_shear #
lump $-1 $-1 $15 $3 #
transform $-1 1 0 0 0 1 0 0 0 1 52.900784325693536 27.485740928008887 5.7037504986169631 1 rotate no_reflect no_shear #
shell $-1 $-1 $-1 $16 $-1 $4 #
shell $-1 $-1 $-1 $17 $-1 $6 #
shell $-1 $-1 $-1 $18 $-1 $8 #
shell $-1 $-1 $-1 $19 $-1 $10 #
face $-1 $20 $21 $12 $-1 $22 forward single #
face $-1 $23 $24 $13 $-1 $25 forward single #
face $-1 $26 $27 $14 $-1 $28 reversed single #
face $-1 $29 $30 $15 $-1 $31 forward single #
face $-1 $32 $33 $12 $-1 $34 reversed single #
loop $-1 $-1 $35 $16 #
plane-surface $-1 0 0 5.7037504986169631 0 0 1 1 0 0 forward_v I I I I #
face $-1 $36 $37 $13 $-1 $38 reversed single #
loop $-1 $-1 $39 $17 #
plane-surface $-1 -52.900784325693536 0 0 1 0 0 0 0 -1 forward_v I I I I #
face $-1 $40 $41 $14 $-1 $42 reversed single #
loop $-1 $-1 $43 $18 #
plane-surface $-1 -15.107152043960312 -23.926220698417612 82.960234021544821 0.7660444514056185 0 0.64278759981090561 0.64278759981090561 0 -0.7660444514056185 forward_v I I I I #
face $-1 $44 $45 $15 $-1 $46 forward single #
loop $-1 $47 $48 $19 #
cone-surface $-1 50.926736481625248 -23.926220698417612 3.4862461524725981 -0.7660444514056185 0 -0.64278759981090561 0.3213937999054528 0 -0.38302222570280925 1 I I 0 1 0.5 forward I I I I #
face $-1 $49 $50 $12 $-1 $51 reversed single #
loop $-1 $-1 $52 $20 #
plane-surface $-1 0 0 -5.7037504986169631 0 0 1 1 0 0 forward_v I I I I #
coedge $-1 $53 $54 $55 $56 forward $21 $-1 #
face $-1 $57 $58 $13 $-1 $59 forward single #
loop $-1 $-1 $60 $23 #
plane-surface $-1 0 27.485740928008887 0 0 -1 0 0 0 -1 forward_v I I I I #
coedge $-1 $61 $62 $63 $64 forward $24 $-1 #
face $-1 $65 $66 $14 $-1 $67 forward single #
loop $-1 $-1 $68 $26 #
plane-surface $-1 65.941552571445385 -20.366700468826338 150.96817039119867 0 -1 0 -0.7660444514056185 0 -0.64278759981090561 forward_v I I I I #
coedge $-1 $69 $70 $71 $72 reversed $27 $-1 #
face $-1 $-1 $73 $15 $-1 $74 forward single #
loop $-1 $75 $76 $29 #
cone-surface $-1 50.352203143071037 -23.926220698417612 3.0041554526144187 -0.7660444514056185 0 -0.64278759981090561 0.1606968999527264 0 -0.19151111285140462 1 I I -0.70710678118654746 0.70710678118654746 0.25 forward I I I I #
loop $-1 $-1 $77 $19 #
coedge $-1 $48 $48 $78 $79 reversed $30 $-1 #
face $-1 $80 $81 $12 $-1 $82 reversed single #
loop $-1 $-1 $83 $32 #
plane-surface $-1 0 -27.485740928008887 0 0 1 0 0 0 1 forward_v I I I I #
coedge $-1 $84 $85 $86 $87 forward $33 $-1 #
coedge $-1 $88 $35 $89 $90 forward $21 $-1 #
coedge $-1 $35 $88 $91 $92 forward $21 $-1 #
coedge $-1 $93 $94 $35 $56 reversed $95 $-1 #
edge $-1 $96 -27.485740928008887 $97 27.485740928008887 $55 $98 forward 7 unknown #
face $-1 $99 $100 $13 $-1 $101 reversed single #
loop $-1 $-1 $63 $36 #
plane-surface $-1 -56.202613024017033 0 1.6774549564730905 0 0 1 1 0 0 forward_v I I I I #
coedge $-1 $102 $103 $62 $104 forward $37 $-1 #
coedge $-1 $105 $39 $106 $107 reversed $24 $-1 #
coedge $-1 $39 $105 $60 $104 reversed $24 $-1 #
coedge $-1 $108 $109 $39 $64 reversed $58 $-1 #
edge $-1 $110 -27.485740928008887 $111 27.485740928008887 $63 $112 forward 7 unknown #
face $-1 $113 $114 $14 $-1 $115 reversed single #
loop $-1 $-1 $116 $40 #
plane-surface $-1 0 0 5.7037504986169631 0 0 1 1 0 0 forward_v I I I I #
coedge $-1 $117 $118 $119 $120 reversed $41 $-1 #
coedge $-1 $121 $43 $122 $123 reversed $27 $-1 #
coedge $-1 $43 $121 $117 $124 forward $27 $-1 #
coedge $-1 $119 $125 $43 $72 forward $126 $-1 #
edge $-1 $127 -15.522630578800081 $128 -8.4035901196175313 $71 $129 forward 7 unknown #
loop $-1 $-1 $78 $44 #
plane-surface $-1 -15.107152043960312 -23.926220698417612 82.960234021544821 0.7660444514056185 0 0.64278759981090561 0.64278759981090561 0 -0.7660444514056185 forward_v I I I I #
loop $-1 $-1 $130 $29 #
coedge $-1 $76 $76 $77 $131 reversed $45 $-1 #
coedge $-1 $77 $77 $76 $131 forward $47 $-1 #
coedge $-1 $78 $78 $48 $79 forward $73 $-1 #
edge $-1 $132 0 $132 6.2831853071796004 $78 $133 forward 7 unknown #
face $-1 $134 $135 $12 $-1 $136 reversed single #
loop $-1 $-1 $137 $49 #
plane-surface $-1 -52.900784325693536 0 0 1 0 0 0 0 -1 forward_v I I I I #
coedge $-1 $138 $91 $139 $140 forward $50 $-1 #
coedge $-1 $141 $52 $138 $142 forward $33 $-1 #
coedge $-1 $52 $141 $143 $144 forward $33 $-1 #
coedge $-1 $94 $93 $52 $87 reversed $95 $-1 #
edge $-1 $145 -27.485740928008887 $146 27.485740928008887 $86 $147 forward 7 unknown #
coedge $-1 $54 $53 $148 $149 forward $21 $-1 #
coedge $-1 $150 $151 $53 $90 reversed $135 $-1 #
edge $-1 $97 -52.900784325693536 $152 52.900784325693536 $89 $153 forward 7 unknown #
coedge $-1 $83 $154 $54 $92 reversed $50 $-1 #
edge $-1 $155 -52.900784325693536 $96 52.900784325693536 $91 $156 forward 7 unknown #
coedge $-1 $86 $55 $154 $157 forward $95 $-1 #
coedge $-1 $55 $86 $150 $158 reversed $95 $-1 #
loop $-1 $-1 $93 $134 #
vertex $-1 $56 $159 #
vertex $-1 $56 $160 #
straight-curve $-1 52.900784325693536 0 5.7037504986169631 0 1 0 I I #
face $-1 $161 $162 $13 $-1 $163 reversed single #
loop $-1 $-1 $164 $57 #
plane-surface $-1 -56.202613024017033 0 -1.6037986721480668 0 0 1 1 0 0 forward_v I I I I #
coedge $-1 $165 $60 $166 $167 reversed $37 $-1 #
coedge $-1 $60 $165 $108 $168 reversed $37 $-1 #
edge $-1 $110 -1.6774549564730905 $169 1.6037986721480668 $60 $170 forward 7 unknown #
coedge $-1 $62 $61 $164 $171 forward $24 $-1 #
coedge $-1 $172 $173 $61 $107 forward $174 $-1 #
edge $-1 $175 -1.6037986721480668 $111 1.6774549564730905 $106 $176 forward 7 unknown #
coedge $-1 $177 $63 $103 $168 forward $58 $-1 #
coedge $-1 $63 $177 $172 $178 forward $58 $-1 #
vertex $-1 $104 $179 #
vertex $-1 $178 $180 #
straight-curve $-1 -52.900784325693536 0 1.6774549564730905 0 -1 0 I I #
face $-1 $-1 $126 $14 $-1 $181 reversed single #
loop $-1 $-1 $122 $65 #
plane-surface $-1 0 -27.485740928008887 0 0 1 0 0 0 1 forward_v I I I I #
coedge $-1 $182 $183 $118 $184 forward $66 $-1 #
coedge $-1 $118 $68 $70 $124 reversed $41 $-1 #
coedge $-1 $68 $117 $116 $184 reversed $41 $-1 #
coedge $-1 $185 $71 $68 $120 forward $126 $-1 #
edge $-1 $128 -73.57255578946021 $186 -69.780334696982365 $119 $187 forward 7 unknown #
coedge $-1 $70 $69 $182 $188 reversed $27 $-1 #
coedge $-1 $189 $190 $69 $123 forward $114 $-1 #
edge $-1 $191 64.220217167141612 $127 69.170610170471235 $122 $192 forward 7 unknown #
edge $-1 $193 100.85117564805749 $128 105.8015686513871 $117 $194 forward 7 unknown #
coedge $-1 $71 $185 $189 $195 forward $126 $-1 #
loop $-1 $-1 $119 $113 #
vertex $-1 $123 $196 #
vertex $-1 $72 $197 #
straight-curve $-1 52.900784325693536 -11.963110349208806 1.911529406139131 0 1 0 I I #
coedge $-1 $130 $130 $-1 $198 reversed $75 $-1 #
edge $-1 $199 0 $199 6.2831853071796004 $76 $200 forward 7 unknown #
vertex $-1 $79 $201 #
ellipse-curve $-1 51.309758707328065 -23.926220698417612 3.8076399523780555 0.7660444514056185 0 0.64278759981090561 0.3213937999054528 0 -0.38302222570280925 1 I I #
face $-1 $-1 $95 $12 $-1 $202 reversed single #
loop $-1 $-1 $150 $80 #
plane-surface $-1 0 27.485740928008887 0 0 -1 0 0 0 -1 forward_v I I I I #
coedge $-1 $203 $148 $151 $204 forward $81 $-1 #
coedge $-1 $154 $83 $84 $142 reversed $50 $-1 #
coedge $-1 $148 $203 $83 $140 reversed $81 $-1 #
edge $-1 $155 -5.7037504986169631 $205 5.7037504986169631 $139 $206 forward 7 unknown #
coedge $-1 $85 $84 $203 $207 forward $33 $-1 #
edge $-1 $146 -52.900784325693536 $205 52.900784325693536 $138 $208 forward 7 unknown #
coedge $-1 $151 $150 $85 $144 reversed $135 $-1 #
edge $-1 $209 -52.900784325693536 $145 52.900784325693536 $143 $210 forward 7 unknown #
vertex $-1 $87 $211 #
vertex $-1 $157 $212 #
straight-curve $-1 52.900784325693536 0 -5.7037504986169631 0 -1 0 I I #
coedge $-1 $137 $139 $88 $149 reversed $81 $-1 #
edge $-1 $152 -27.485740928008887 $155 27.485740928008887 $148 $213 forward 7 unknown #
coedge $-1 $143 $89 $94 $158 forward $135 $-1 #
coedge $-1 $89 $143 $137 $204 reversed $135 $-1 #
vertex $-1 $90 $214 #
straight-curve $-1 0 27.485740928008887 5.7037504986169631 -1 0 0 I I #
coedge $-1 $91 $138 $93 $157 reversed $50 $-1 #
vertex $-1 $149 $215 #
straight-curve $-1 0 -27.485740928008887 5.7037504986169631 1 0 0 I I #
edge $-1 $96 -5.7037504986169631 $146 5.7037504986169631 $93 $216 forward 7 unknown #
edge $-1 $97 -5.7037504986169631 $145 5.7037504986169631 $94 $217 forward 7 unknown #
point $-1 52.900784325693536 -27.485740928008887 5.7037504986169631 #
point $-1 52.900784325693536 27.485740928008887 5.7037504986169631 #
face $-1 $-1 $174 $13 $-1 $218 reversed single #
loop $-1 $-1 $219 $99 #
plane-surface $-1 -59.50444172234053 0 0.036828142162511845 1 0 0 0 0 -1 forward_v I I I I #
coedge $-1 $220 $166 $105 $171 reversed $100 $-1 #
coedge $-1 $103 $102 $219 $221 reversed $37 $-1 #
coedge $-1 $164 $222 $102 $167 forward $100 $-1 #
edge $-1 $223 -3.3018286983234972 $169 3.3018286983234972 $102 $224 forward 7 unknown #
edge $-1 $110 -3.3018286983234972 $225 3.3018286983234972 $103 $226 forward 7 unknown #
vertex $-1 $104 $227 #
straight-curve $-1 -52.900784325693536 27.485740928008887 0 0 0 -1 I I #
edge $-1 $175 -27.485740928008887 $169 27.485740928008887 $164 $228 forward 7 unknown #
coedge $-1 $229 $106 $109 $178 reversed $174 $-1 #
coedge $-1 $106 $229 $220 $230 reversed $174 $-1 #
loop $-1 $-1 $106 $161 #
vertex $-1 $107 $231 #
straight-curve $-1 -52.900784325693536 -27.485740928008887 0 0 0 1 I I #
coedge $-1 $109 $108 $232 $233 forward $58 $-1 #
edge $-1 $234 -3.3018286983234972 $111 3.3018286983234972 $172 $235 forward 7 unknown #
point $-1 -52.900784325693536 27.485740928008887 1.6774549564730905 #
point $-1 -52.900784325693536 -27.485740928008887 1.6774549564730905 #
plane-surface $-1 52.900784325693536 0 0 -1 0 0 0 0 1 forward_v I I I I #
coedge $-1 $236 $116 $121 $188 forward $66 $-1 #
coedge $-1 $116 $236 $185 $237 forward $66 $-1 #
edge $-1 $186 -19.930008039970843 $193 -16.747956803239902 $116 $238 forward 7 unknown #
coedge $-1 $125 $119 $183 $237 reversed $126 $-1 #
vertex $-1 $120 $239 #
straight-curve $-1 52.900784325693536 -20.366700468826338 75.484085195599334 0 0 1 I I #
edge $-1 $193 8.4035901196175313 $191 15.522630578800081 $182 $240 forward 7 unknown #
coedge $-1 $190 $122 $125 $195 reversed $114 $-1 #
coedge $-1 $122 $189 $236 $241 reversed $114 $-1 #
vertex $-1 $241 $242 #
straight-curve $-1 8.4387738367605252 -27.485740928008887 54.899291527569652 0.64278759981090572 0 -0.76604445140561861 I I #
vertex $-1 $188 $243 #
straight-curve $-1 -15.107152043960312 -20.366700468826338 82.960234021544821 0.64278759981090561 0 -0.7660444514056185 I I #
edge $-1 $244 -5.7037504986169631 $127 -1.911529406139131 $125 $245 forward 7 unknown #
point $-1 52.900784325693536 -27.485740928008887 1.911529406139131 #
point $-1 52.900784325693536 -20.366700468826338 1.9115294061391239 #
edge $-1 $246 1 $246 0 $130 $-1 forward 7 unknown #
vertex $-1 $131 $247 #
ellipse-curve $-1 50.543714255922438 -23.926220698417612 3.164852352567145 0.7660444514056185 0 0.64278759981090561 0.3213937999054528 0 -0.38302222570280925 1 I I #
point $-1 51.631152507233516 -23.926220698417612 3.4246177266752413 #
plane-surface $-1 52.900784325693536 0 0 -1 0 0 0 0 1 forward_v I I I I #
coedge $-1 $139 $137 $141 $207 reversed $81 $-1 #
edge $-1 $152 -5.7037504986169631 $209 5.7037504986169631 $151 $248 forward 7 unknown #
vertex $-1 $207 $249 #
straight-curve $-1 -52.900784325693536 -27.485740928008887 0 0 0 -1 I I #
edge $-1 $205 -27.485740928008887 $209 27.485740928008887 $203 $250 forward 7 unknown #
straight-curve $-1 0 -27.485740928008887 -5.7037504986169631 -1 0 0 I I #
vertex $-1 $144 $251 #
straight-curve $-1 0 27.485740928008887 -5.7037504986169631 1 0 0 I I #
point $-1 52.900784325693536 27.485740928008887 -5.7037504986169631 #
point $-1 52.900784325693536 -27.485740928008887 -5.7037504986169631 #
straight-curve $-1 -52.900784325693536 0 5.7037504986169631 0 -1 0 I I #
point $-1 -52.900784325693536 27.485740928008887 5.7037504986169631 #
point $-1 -52.900784325693536 -27.485740928008887 5.7037504986169631 #
straight-curve $-1 52.900784325693536 -27.485740928008887 0 0 0 -1 I I #
straight-curve $-1 52.900784325693536 27.485740928008887 0 0 0 -1 I I #
plane-surface $-1 0 -27.485740928008887 0 0 1 0 0 0 1 forward_v I I I I #
coedge $-1 $252 $232 $165 $221 forward $162 $-1 #
coedge $-1 $222 $164 $173 $230 forward $100 $-1 #
edge $-1 $225 -1.6406268143105787 $223 1.6406268143105787 $165 $253 forward 7 unknown #
coedge $-1 $166 $220 $252 $254 forward $100 $-1 #
vertex $-1 $167 $255 #
straight-curve $-1 -56.202613024017033 27.485740928008887 -1.6037986721480668 1 0 0 I I #
vertex $-1 $168 $256 #
straight-curve $-1 -56.202613024017033 27.485740928008887 1.6774549564730905 -1 0 0 I I #
point $-1 -52.900784325693536 27.485740928008887 -1.6037986721480668 #
straight-curve $-1 -52.900784325693536 0 -1.6037986721480668 0 1 0 I I #
coedge $-1 $173 $172 $257 $258 forward $174 $-1 #
edge $-1 $175 -3.3018286983234972 $259 3.3018286983234972 $173 $260 forward 7 unknown #
point $-1 -52.900784325693536 -27.485740928008887 -1.6037986721480668 #
coedge $-1 $219 $257 $177 $233 reversed $162 $-1 #
edge $-1 $225 -27.485740928008887 $234 27.485740928008887 $232 $261 forward 7 unknown #
vertex $-1 $233 $262 #
straight-curve $-1 -56.202613024017033 -27.485740928008887 1.6774549564730905 1 0 0 I I #
coedge $-1 $183 $182 $190 $241 forward $66 $-1 #
edge $-1 $244 -27.485740928008887 $186 -20.366700468826338 $185 $263 forward 7 unknown #
straight-curve $-1 32.970776285722692 -20.366700468826338 5.7037504986169694 -1 0 0 I I #
point $-1 52.900784325693536 -20.366700468826338 5.7037504986169631 #
straight-curve $-1 49.718733088962601 -11.963110349208806 5.7037504986169623 0 -1 0 I I #
edge $-1 $191 49.718733088962594 $244 52.900784325693536 $190 $264 forward 7 unknown #
point $-1 49.718733088962594 -27.485740928008887 5.7037504986169694 #
point $-1 49.718733088962594 -20.366700468826338 5.7037504986169694 #
vertex $-1 $237 $265 #
straight-curve $-1 52.900784325693536 -27.485740928008887 0 0 0 -1 I I #
vertex $-1 $198 $266 #
point $-1 50.865108055827896 -23.926220698417612 2.7818301268643357 #
straight-curve $-1 -52.900784325693536 27.485740928008887 0 0 0 -1 I I #
point $-1 -52.900784325693536 -27.485740928008887 -5.7037504986169631 #
straight-curve $-1 -52.900784325693536 0 -5.7037504986169631 0 1 0 I I #
point $-1 -52.900784325693536 27.485740928008887 -5.7037504986169631 #
coedge $-1 $257 $219 $222 $254 reversed $162 $-1 #
straight-curve $-1 -59.50444172234053 27.485740928008887 0.036828142162511845 0 0 -1 I I #
edge $-1 $259 -27.485740928008887 $223 27.485740928008887 $252 $267 forward 7 unknown #
point $-1 -59.50444172234053 27.485740928008887 -1.6037986721480668 #
point $-1 -59.50444172234053 27.485740928008887 1.6774549564730905 #
coedge $-1 $232 $252 $229 $258 reversed $162 $-1 #
edge $-1 $234 -1.6406268143105787 $259 1.6406268143105787 $257 $268 forward 7 unknown #
vertex $-1 $254 $269 #
straight-curve $-1 -56.202613024017033 -27.485740928008887 -1.6037986721480668 -1 0 0 I I #
straight-curve $-1 -59.50444172234053 0 1.6774549564730905 0 -1 0 I I #
point $-1 -59.50444172234053 -27.485740928008887 1.6774549564730905 #
straight-curve $-1 52.900784325693536 0 5.7037504986169631 0 1 0 I I #
straight-curve $-1 0 -27.485740928008887 5.7037504986169631 1 0 0 I I #
point $-1 52.900784325693536 -27.485740928008887 5.7037504986169631 #
point $-1 50.160692030219636 -23.926220698417612 2.8434585526616925 #
straight-curve $-1 -59.50444172234053 0 -1.6037986721480668 0 1 0 I I #
straight-curve $-1 -59.50444172234053 -27.485740928008887 0.036828142162511845 0 0 -1 I I #
point $-1 -59.50444172234053 -27.485740928008887 -1.6037986721480668 #
End-of-ACIS-data 