500 0 10 0           
7 Unknown 11 ACIS 5.0 NT 24 Thu Mar 25 23:05:42 1999 
-1 9.9999999999999995e-007 1e-010 
body $-1 $10 $-1 $11 #
body $-1 $12 $-1 $13 #
body $-1 $14 $-1 $15 #
body $-1 $16 $-1 $17 #
body $-1 $18 $-1 $19 #
body $-1 $20 $-1 $21 #
body $-1 $22 $-1 $23 #
body $-1 $24 $-1 $25 #
body $-1 $26 $-1 $27 #
body $-1 $28 $-1 $29 #
lump $-1 $-1 $30 $0 #
transform $-1 1 0 0 0 1 0 0 0 1 63.679921872615743 42.356369555628696 11.170333929807729 1 rotate no_reflect no_shear #
lump $-1 $-1 $31 $1 #
transform $-1 1 0 0 0 1 0 0 0 1 63.679921872615743 42.356369555628696 11.170333929807729 1 rotate no_reflect no_shear #
lump $-1 $-1 $32 $2 #
transform $-1 1 0 0 0 1 0 0 0 1 63.679921872615743 42.356369555628696 11.170333929807729 1 rotate no_reflect no_shear #
lump $-1 $-1 $33 $3 #
transform $-1 1 0 0 0 1 0 0 0 1 63.679921872615743 42.356369555628696 11.170333929807729 1 rotate no_reflect no_shear #
lump $-1 $-1 $34 $4 #
transform $-1 1 0 0 0 1 0 0 0 1 63.679921872615743 42.356369555628696 11.170333929807729 1 rotate no_reflect no_shear #
lump $-1 $-1 $35 $5 #
transform $-1 1 0 0 0 1 0 0 0 1 63.679921872615743 42.356369555628696 11.170333929807729 1 rotate no_reflect no_shear #
lump $-1 $-1 $36 $6 #
transform $-1 1 0 0 0 1 0 0 0 1 63.679921872615743 42.356369555628696 11.170333929807729 1 rotate no_reflect no_shear #
lump $-1 $-1 $37 $7 #
transform $-1 1 0 0 0 1 0 0 0 1 63.679921872615743 42.356369555628696 11.170333929807729 1 rotate no_reflect no_shear #
lump $-1 $-1 $38 $8 #
transform $-1 1 0 0 0 1 0 0 0 1 63.679921872615743 42.356369555628696 11.170333929807729 1 rotate no_reflect no_shear #
lump $-1 $-1 $39 $9 #
transform $-1 1 0 0 0 1 0 0 0 1 63.679921872615743 42.356369555628696 11.170333929807729 1 rotate no_reflect no_shear #
shell $-1 $-1 $-1 $40 $-1 $10 #
shell $-1 $-1 $-1 $41 $-1 $12 #
shell $-1 $-1 $-1 $42 $-1 $14 #
shell $-1 $-1 $-1 $43 $-1 $16 #
shell $-1 $-1 $-1 $44 $-1 $18 #
shell $-1 $-1 $-1 $45 $-1 $20 #
shell $-1 $-1 $-1 $46 $-1 $22 #
shell $-1 $-1 $-1 $47 $-1 $24 #
shell $-1 $-1 $-1 $48 $-1 $26 #
shell $-1 $-1 $-1 $49 $-1 $28 #
face $-1 $50 $51 $30 $-1 $52 forward single #
face $-1 $53 $54 $31 $-1 $55 forward single #
face $-1 $56 $57 $32 $-1 $58 forward single #
face $-1 $59 $60 $33 $-1 $61 reversed single #
face $-1 $62 $63 $34 $-1 $64 forward single #
face $-1 $65 $66 $35 $-1 $67 forward single #
face $-1 $68 $69 $36 $-1 $70 forward single #
face $-1 $71 $72 $37 $-1 $73 reversed single #
face $-1 $74 $75 $38 $-1 $76 forward single #
face $-1 $77 $78 $39 $-1 $79 forward single #
face $-1 $80 $81 $30 $-1 $82 reversed single #
loop $-1 $-1 $83 $40 #
plane-surface $-1 0 0 11.170333929807729 0 0 1 1 0 0 forward_v I I I I #
face $-1 $84 $85 $31 $-1 $86 reversed single #
loop $-1 $-1 $87 $41 #
plane-surface $-1 0 -36.028714752275768 -1.6054130303784202 0 0 1 1 0 0 forward_v I I I I #
face $-1 $88 $89 $32 $-1 $90 reversed single #
loop $-1 $-1 $91 $42 #
plane-surface $-1 0 36.028714752275768 -1.6054130303784202 0 0 1 1 0 0 forward_v I I I I #
face $-1 $92 $93 $33 $-1 $94 reversed single #
loop $-1 $-1 $95 $43 #
plane-surface $-1 104.19676282167308 -6.4742575493235321 178.17867973685753 0 1 0 0.84804810408105047 0 0.52991925155115449 forward_v I I I I #
face $-1 $96 $97 $34 $-1 $98 forward single #
loop $-1 $99 $100 $44 #
cone-surface $-1 60.136980259758339 -3.2388441069489673 6.3691628681226939 -0.84804810408105047 0 -0.52991925155115449 0.79487887732673168 0 -1.2720721561215758 1 I I 0 1 1.5 forward I I I I #
face $-1 $101 $102 $35 $-1 $103 forward single #
loop $-1 $104 $105 $45 #
cone-surface $-1 60.136980259758339 1.6142760566128871 6.3691628681226939 -0.84804810408105047 0 -0.52991925155115449 0.79487887732673168 0 -1.2720721561215758 1 I I 0 1 1.5 forward I I I I #
face $-1 $106 $107 $36 $-1 $108 forward single #
loop $-1 $109 $110 $46 #
cone-surface $-1 60.136980259758339 6.4673962201747415 6.3691628681226939 -0.84804810408105047 0 -0.52991925155115449 0.79487887732673168 0 -1.2720721561215758 1 I I 0 1 1.5 forward I I I I #
face $-1 $111 $112 $37 $-1 $113 reversed single #
loop $-1 $-1 $114 $47 #
plane-surface $-1 -165.39401668903182 29.701059948922847 82.919374952790079 0 -1 0 0.79863551827123203 0 -0.60181501223851219 forward_v I I I I #
face $-1 $115 $116 $38 $-1 $117 forward single #
loop $-1 $118 $119 $48 #
cone-surface $-1 -61.435140915783315 24.632779766358347 8.420413974063905 0.79863551827123203 0 -0.60181501223851219 0.3009075061192561 0 0.39931775913561601 1 I I 0 1 0.5 forward I I I I #
face $-1 $120 $121 $39 $-1 $122 forward single #
loop $-1 $123 $124 $49 #
cone-surface $-1 -61.435140915783315 27.673747875897043 8.420413974063905 0.79863551827123203 0 -0.60181501223851219 0.3009075061192561 0 0.39931775913561601 1 I I 0 1 0.5 forward I I I I #
face $-1 $125 $126 $30 $-1 $127 reversed single #
loop $-1 $-1 $128 $50 #
plane-surface $-1 0 0 -11.170333929807729 0 0 1 1 0 0 forward_v I I I I #
coedge $-1 $129 $130 $131 $132 forward $51 $-1 #
face $-1 $133 $134 $31 $-1 $135 reversed single #
loop $-1 $-1 $136 $53 #
plane-surface $-1 0 -36.028714752275768 -8.2437965447418318 0 0 1 1 0 0 forward_v I I I I #
coedge $-1 $137 $138 $139 $140 reversed $54 $-1 #
face $-1 $141 $142 $32 $-1 $143 reversed single #
loop $-1 $-1 $144 $56 #
plane-surface $-1 0 36.028714752275768 -8.2437965447418318 0 0 1 1 0 0 forward_v I I I I #
coedge $-1 $145 $146 $147 $148 reversed $57 $-1 #
face $-1 $149 $150 $33 $-1 $151 reversed single #
loop $-1 $-1 $152 $59 #
plane-surface $-1 -3.8105112025293266 1.6142760566128871 110.68824666171247 0.84804810408105047 0 0.52991925155115449 0.52991925155115449 0 -0.84804810408105047 forward_v I I I I #
coedge $-1 $153 $154 $155 $156 reversed $60 $-1 #
face $-1 $-1 $157 $34 $-1 $158 forward single #
loop $-1 $159 $160 $62 #
cone-surface $-1 58.610373324999379 -3.2388441069489673 5.4152330139231104 -0.84804810408105047 0 -0.52991925155115449 0.39743943866336584 0 -0.63603607806078788 1 I I -0.70710678118654757 0.70710678118654757 0.75 forward I I I I #
loop $-1 $-1 $161 $44 #
coedge $-1 $100 $100 $162 $163 reversed $63 $-1 #
face $-1 $-1 $164 $35 $-1 $165 forward single #
loop $-1 $166 $167 $65 #
cone-surface $-1 58.610373324999379 1.6142760566128871 5.4152330139231104 -0.84804810408105047 0 -0.52991925155115449 0.39743943866336584 0 -0.63603607806078788 1 I I -0.70710678118654757 0.70710678118654757 0.75 forward I I I I #
loop $-1 $-1 $168 $45 #
coedge $-1 $105 $105 $169 $170 reversed $66 $-1 #
face $-1 $-1 $171 $36 $-1 $172 forward single #
loop $-1 $173 $174 $68 #
cone-surface $-1 58.610373324999379 6.4673962201747415 5.4152330139231104 -0.84804810408105047 0 -0.52991925155115449 0.39743943866336584 0 -0.63603607806078788 1 I I -0.70710678118654757 0.70710678118654757 0.75 forward I I I I #
loop $-1 $-1 $175 $46 #
coedge $-1 $110 $110 $176 $177 reversed $69 $-1 #
face $-1 $178 $179 $37 $-1 $180 reversed single #
loop $-1 $-1 $181 $71 #
plane-surface $-1 -63.679921872615736 26.153263821127702 6.2723090305585885 -0.79863551827123203 0 0.60181501223851219 0.60181501223851219 0 0.79863551827123203 forward_v I I I I #
coedge $-1 $182 $183 $184 $185 reversed $72 $-1 #
face $-1 $-1 $186 $38 $-1 $187 forward single #
loop $-1 $188 $189 $74 #
cone-surface $-1 -60.836164277079888 24.632779766358347 7.9690527148850201 0.79863551827123203 0 -0.60181501223851219 0.15045375305962805 0 0.19965887956780801 1 I I -0.70710678118654746 0.70710678118654746 0.25 forward I I I I #
loop $-1 $-1 $190 $48 #
coedge $-1 $119 $119 $191 $192 reversed $75 $-1 #
face $-1 $-1 $193 $39 $-1 $194 forward single #
loop $-1 $195 $196 $77 #
cone-surface $-1 -60.836164277079888 27.673747875897043 7.9690527148850201 0.79863551827123203 0 -0.60181501223851219 0.15045375305962805 0 0.19965887956780801 1 I I -0.70710678118654746 0.70710678118654746 0.25 forward I I I I #
loop $-1 $-1 $197 $49 #
coedge $-1 $124 $124 $198 $199 reversed $78 $-1 #
face $-1 $200 $201 $30 $-1 $202 reversed single #
loop $-1 $-1 $203 $80 #
plane-surface $-1 0 -42.356369555628696 0 0 1 0 0 0 1 forward_v I I I I #
coedge $-1 $204 $205 $206 $207 forward $81 $-1 #
coedge $-1 $208 $83 $209 $210 forward $51 $-1 #
coedge $-1 $83 $208 $211 $212 forward $51 $-1 #
coedge $-1 $213 $214 $83 $132 reversed $215 $-1 #
edge $-1 $216 -42.356369555628696 $217 42.356369555628696 $131 $218 forward 7 unknown #
face $-1 $219 $220 $31 $-1 $221 reversed single #
loop $-1 $-1 $222 $84 #
plane-surface $-1 0 -29.70105994892284 -4.924604787560126 0 -1 0 0 0 -1 forward_v I I I I #
coedge $-1 $223 $224 $225 $226 reversed $85 $-1 #
coedge $-1 $227 $87 $228 $229 forward $54 $-1 #
coedge $-1 $87 $227 $230 $231 reversed $54 $-1 #
coedge $-1 $232 $233 $87 $140 forward $234 $-1 #
edge $-1 $235 11.686702572784956 $236 24.342012179490812 $139 $237 forward 7 unknown #
face $-1 $238 $239 $32 $-1 $240 reversed single #
loop $-1 $-1 $241 $88 #
plane-surface $-1 0 29.70105994892284 -4.924604787560126 0 1 0 0 0 1 forward_v I I I I #
coedge $-1 $242 $243 $244 $245 reversed $89 $-1 #
coedge $-1 $246 $91 $247 $248 reversed $57 $-1 #
coedge $-1 $91 $246 $249 $250 forward $57 $-1 #
coedge $-1 $251 $252 $91 $148 forward $239 $-1 #
edge $-1 $253 -24.342012179490812 $254 -11.686702572784956 $147 $255 forward 7 unknown #
face $-1 $256 $257 $33 $-1 $258 forward single #
loop $-1 $-1 $259 $92 #
plane-surface $-1 104.19676282167308 9.7028096625493063 178.17867973685753 0 -1 0 -0.84804810408105047 0 -0.52991925155115449 forward_v I I I I #
coedge $-1 $260 $261 $262 $263 reversed $93 $-1 #
coedge $-1 $154 $95 $264 $265 reversed $60 $-1 #
coedge $-1 $95 $153 $260 $266 reversed $60 $-1 #
coedge $-1 $262 $267 $95 $156 forward $268 $-1 #
edge $-1 $269 77.919005938621041 $270 86.408367230918699 $155 $271 forward 7 unknown #
loop $-1 $-1 $162 $96 #
plane-surface $-1 -3.8105112025293266 1.6142760566128871 110.68824666171247 0.84804810408105047 0 0.52991925155115449 0.52991925155115449 0 -0.84804810408105047 forward_v I I I I #
loop $-1 $-1 $272 $62 #
coedge $-1 $160 $160 $161 $273 reversed $97 $-1 #
coedge $-1 $161 $161 $160 $273 forward $99 $-1 #
coedge $-1 $162 $162 $100 $163 forward $157 $-1 #
edge $-1 $274 0 $274 6.2831853071796004 $162 $275 forward 7 unknown #
loop $-1 $-1 $169 $101 #
plane-surface $-1 -3.8105112025293266 1.6142760566128871 110.68824666171247 0.84804810408105047 0 0.52991925155115449 0.52991925155115449 0 -0.84804810408105047 forward_v I I I I #
loop $-1 $-1 $276 $65 #
coedge $-1 $167 $167 $168 $277 reversed $102 $-1 #
coedge $-1 $168 $168 $167 $277 forward $104 $-1 #
coedge $-1 $169 $169 $105 $170 forward $164 $-1 #
edge $-1 $278 0 $278 6.2831853071796004 $169 $279 forward 7 unknown #
loop $-1 $-1 $176 $106 #
plane-surface $-1 -3.8105112025293266 1.6142760566128871 110.68824666171247 0.84804810408105047 0 0.52991925155115449 0.52991925155115449 0 -0.84804810408105047 forward_v I I I I #
loop $-1 $-1 $280 $68 #
coedge $-1 $174 $174 $175 $281 reversed $107 $-1 #
coedge $-1 $175 $175 $174 $281 forward $109 $-1 #
coedge $-1 $176 $176 $110 $177 forward $171 $-1 #
edge $-1 $282 0 $282 6.2831853071796004 $176 $283 forward 7 unknown #
face $-1 $284 $285 $37 $-1 $286 reversed single #
loop $-1 $-1 $287 $111 #
plane-surface $-1 -165.39401668903182 22.605467693332557 82.919374952790079 0 1 0 -0.79863551827123203 0 0.60181501223851219 forward_v I I I I #
coedge $-1 $288 $289 $290 $291 reversed $112 $-1 #
coedge $-1 $183 $114 $292 $293 reversed $72 $-1 #
coedge $-1 $114 $182 $288 $294 reversed $72 $-1 #
coedge $-1 $290 $295 $114 $185 forward $285 $-1 #
edge $-1 $296 30.289353546587311 $297 35.187378445836458 $184 $298 forward 7 unknown #
loop $-1 $-1 $191 $115 #
plane-surface $-1 -63.679921872615736 26.153263821127702 6.2723090305585885 -0.79863551827123203 0 0.60181501223851219 0.60181501223851219 0 0.79863551827123203 forward_v I I I I #
loop $-1 $-1 $299 $74 #
coedge $-1 $189 $189 $190 $300 reversed $116 $-1 #
coedge $-1 $190 $190 $189 $300 forward $118 $-1 #
coedge $-1 $191 $191 $119 $192 forward $186 $-1 #
edge $-1 $301 0 $301 6.2831853071796004 $191 $302 forward 7 unknown #
loop $-1 $-1 $198 $120 #
plane-surface $-1 -63.679921872615736 26.153263821127702 6.2723090305585885 -0.79863551827123203 0 0.60181501223851219 0.60181501223851219 0 0.79863551827123203 forward_v I I I I #
loop $-1 $-1 $303 $77 #
coedge $-1 $196 $196 $197 $304 reversed $121 $-1 #
coedge $-1 $197 $197 $196 $304 forward $123 $-1 #
coedge $-1 $198 $198 $124 $199 forward $193 $-1 #
edge $-1 $305 0 $305 6.2831853071796004 $198 $306 forward 7 unknown #
face $-1 $307 $308 $30 $-1 $309 reversed single #
loop $-1 $-1 $310 $125 #
plane-surface $-1 -63.679921872615743 0 0 1 0 0 0 0 -1 forward_v I I I I #
coedge $-1 $311 $211 $312 $313 forward $126 $-1 #
coedge $-1 $314 $128 $311 $315 forward $81 $-1 #
coedge $-1 $128 $314 $316 $317 forward $81 $-1 #
coedge $-1 $214 $213 $128 $207 reversed $215 $-1 #
edge $-1 $318 -42.356369555628696 $319 42.356369555628696 $206 $320 forward 7 unknown #
coedge $-1 $130 $129 $321 $322 forward $51 $-1 #
coedge $-1 $323 $324 $129 $210 reversed $308 $-1 #
edge $-1 $217 -63.679921872615743 $325 63.679921872615743 $209 $326 forward 7 unknown #
coedge $-1 $203 $327 $130 $212 reversed $126 $-1 #
edge $-1 $328 -63.679921872615743 $216 63.679921872615743 $211 $329 forward 7 unknown #
coedge $-1 $206 $131 $327 $330 forward $215 $-1 #
coedge $-1 $131 $206 $323 $331 reversed $215 $-1 #
loop $-1 $-1 $213 $307 #
vertex $-1 $132 $332 #
vertex $-1 $132 $333 #
straight-curve $-1 63.679921872615743 0 11.170333929807729 0 1 0 I I #
face $-1 $334 $335 $31 $-1 $336 reversed single #
loop $-1 $-1 $337 $133 #
plane-surface $-1 -63.679921872615743 0 0 1 0 0 0 0 -1 forward_v I I I I #
coedge $-1 $338 $228 $233 $339 reversed $134 $-1 #
coedge $-1 $340 $136 $341 $342 reversed $85 $-1 #
coedge $-1 $136 $340 $338 $343 forward $85 $-1 #
coedge $-1 $233 $232 $136 $226 forward $234 $-1 #
edge $-1 $344 -24.342012179490812 $345 -11.686702572784956 $225 $346 forward 7 unknown #
coedge $-1 $138 $137 $337 $347 reversed $54 $-1 #
coedge $-1 $222 $348 $137 $229 reversed $134 $-1 #
edge $-1 $235 -63.679921872615743 $349 63.679921872615743 $228 $350 forward 7 unknown #
coedge $-1 $351 $352 $138 $231 forward $335 $-1 #
edge $-1 $236 -63.679921872615743 $353 63.679921872615743 $230 $354 forward 7 unknown #
coedge $-1 $225 $139 $352 $355 forward $234 $-1 #
coedge $-1 $139 $225 $222 $339 forward $234 $-1 #
loop $-1 $-1 $139 $334 #
vertex $-1 $140 $356 #
vertex $-1 $355 $357 #
straight-curve $-1 63.679921872615743 -18.014357376137884 -1.6054130303784202 0 -1 0 I I #
face $-1 $358 $359 $32 $-1 $360 reversed single #
loop $-1 $-1 $147 $141 #
plane-surface $-1 63.679921872615743 0 0 -1 0 0 0 0 1 forward_v I I I I #
coedge $-1 $361 $249 $362 $363 reversed $142 $-1 #
coedge $-1 $364 $144 $361 $365 forward $89 $-1 #
coedge $-1 $144 $364 $366 $367 reversed $89 $-1 #
coedge $-1 $252 $251 $144 $245 forward $239 $-1 #
edge $-1 $368 11.686702572784956 $369 24.342012179490812 $244 $370 forward 7 unknown #
coedge $-1 $146 $145 $371 $372 reversed $57 $-1 #
coedge $-1 $373 $374 $145 $248 forward $375 $-1 #
edge $-1 $376 -63.679921872615743 $253 63.679921872615743 $247 $377 forward 7 unknown #
coedge $-1 $241 $378 $146 $250 reversed $142 $-1 #
edge $-1 $379 -63.679921872615743 $254 63.679921872615743 $249 $380 forward 7 unknown #
coedge $-1 $244 $147 $378 $381 forward $239 $-1 #
coedge $-1 $147 $244 $373 $382 reversed $239 $-1 #
vertex $-1 $382 $383 #
vertex $-1 $148 $384 #
straight-curve $-1 63.679921872615743 18.014357376137884 -1.6054130303784202 0 -1 0 I I #
face $-1 $-1 $268 $33 $-1 $385 reversed single #
loop $-1 $-1 $386 $149 #
plane-surface $-1 0 0 11.170333929807729 0 0 1 1 0 0 forward_v I I I I #
coedge $-1 $387 $388 $389 $390 reversed $150 $-1 #
coedge $-1 $391 $152 $154 $266 forward $93 $-1 #
coedge $-1 $152 $391 $387 $392 forward $93 $-1 #
coedge $-1 $389 $155 $152 $263 forward $268 $-1 #
edge $-1 $270 -7.2813955776299757 $393 8.8956716342428628 $262 $394 forward 7 unknown #
coedge $-1 $395 $396 $153 $265 forward $257 $-1 #
edge $-1 $397 6.2767989494607335 $269 11.581540461779205 $264 $398 forward 7 unknown #
edge $-1 $270 -127.3598437452315 $397 -117.34937234455926 $154 $399 forward 7 unknown #
coedge $-1 $155 $389 $395 $400 reversed $268 $-1 #
loop $-1 $-1 $389 $256 #
vertex $-1 $400 $401 #
vertex $-1 $156 $402 #
straight-curve $-1 63.679921872615743 -6.4742575493235321 89.089339868428766 0 0 -1 I I #
coedge $-1 $272 $272 $-1 $403 reversed $159 $-1 #
edge $-1 $404 0 $404 6.2831853071796004 $160 $405 forward 7 unknown #
vertex $-1 $163 $406 #
ellipse-curve $-1 61.027551116456493 -3.2388441069489673 6.9256532836588987 0.84804810408105047 0 0.52991925155115449 0.79487887732673168 0 -1.2720721561215758 1 I I #
coedge $-1 $276 $276 $-1 $407 reversed $166 $-1 #
edge $-1 $408 0 $408 6.2831853071796004 $167 $409 forward 7 unknown #
vertex $-1 $170 $410 #
ellipse-curve $-1 61.027551116456493 1.6142760566128871 6.9256532836588987 0.84804810408105047 0 0.52991925155115449 0.79487887732673168 0 -1.2720721561215758 1 I I #
coedge $-1 $280 $280 $-1 $411 reversed $173 $-1 #
edge $-1 $412 0 $412 6.2831853071796004 $174 $413 forward 7 unknown #
vertex $-1 $177 $414 #
ellipse-curve $-1 61.027551116456493 6.4673962201747415 6.9256532836588987 0.84804810408105047 0 0.52991925155115449 0.79487887732673168 0 -1.2720721561215758 1 I I #
face $-1 $-1 $415 $37 $-1 $416 forward single #
loop $-1 $-1 $184 $178 #
plane-surface $-1 -63.679921872615743 0 0 1 0 0 0 0 -1 forward_v I I I I #
coedge $-1 $417 $418 $419 $420 reversed $179 $-1 #
coedge $-1 $421 $181 $183 $294 forward $112 $-1 #
coedge $-1 $181 $421 $417 $422 forward $112 $-1 #
coedge $-1 $419 $184 $181 $291 forward $285 $-1 #
edge $-1 $297 -16.624428038358996 $423 -9.5288357827687058 $290 $424 forward 7 unknown #
coedge $-1 $425 $426 $182 $293 forward $415 $-1 #
edge $-1 $427 -22.708012867293796 $296 -19.017086471900164 $292 $428 forward 7 unknown #
edge $-1 $297 -1.2078792010054373e-014 $427 6.132991567732498 $183 $429 forward 7 unknown #
coedge $-1 $184 $419 $425 $430 reversed $285 $-1 #
vertex $-1 $430 $431 #
vertex $-1 $185 $432 #
straight-curve $-1 -63.679921872615743 29.701059948922847 41.45968747639504 0 0 -1 I I #
coedge $-1 $299 $299 $-1 $433 reversed $188 $-1 #
edge $-1 $434 0 $434 6.2831853071796004 $189 $435 forward 7 unknown #
vertex $-1 $192 $436 #
ellipse-curve $-1 -61.834458674918928 24.632779766358347 8.7213214801831569 -0.79863551827123203 0 0.60181501223851219 0.3009075061192561 0 0.39931775913561601 1 I I #
coedge $-1 $303 $303 $-1 $437 reversed $195 $-1 #
edge $-1 $438 0 $438 6.2831853071796004 $196 $439 forward 7 unknown #
vertex $-1 $199 $440 #
ellipse-curve $-1 -61.834458674918928 27.673747875897043 8.7213214801831569 -0.79863551827123203 0 0.60181501223851219 0.3009075061192561 0 0.39931775913561601 1 I I #
face $-1 $-1 $215 $30 $-1 $441 reversed single #
loop $-1 $-1 $323 $200 #
plane-surface $-1 0 42.356369555628696 0 0 -1 0 0 0 -1 forward_v I I I I #
coedge $-1 $442 $321 $324 $443 forward $201 $-1 #
coedge $-1 $327 $203 $204 $315 reversed $126 $-1 #
coedge $-1 $321 $442 $203 $313 reversed $201 $-1 #
edge $-1 $328 -11.170333929807729 $444 11.170333929807729 $312 $445 forward 7 unknown #
coedge $-1 $205 $204 $442 $446 forward $81 $-1 #
edge $-1 $319 -63.679921872615743 $444 63.679921872615743 $311 $447 forward 7 unknown #
coedge $-1 $324 $323 $205 $317 reversed $308 $-1 #
edge $-1 $448 -63.679921872615743 $318 63.679921872615743 $316 $449 forward 7 unknown #
vertex $-1 $207 $450 #
vertex $-1 $330 $451 #
straight-curve $-1 63.679921872615743 0 -11.170333929807729 0 -1 0 I I #
coedge $-1 $310 $312 $208 $322 reversed $201 $-1 #
edge $-1 $325 -42.356369555628696 $328 42.356369555628696 $321 $452 forward 7 unknown #
coedge $-1 $316 $209 $214 $331 forward $308 $-1 #
coedge $-1 $209 $316 $310 $443 reversed $308 $-1 #
vertex $-1 $210 $453 #
straight-curve $-1 0 42.356369555628696 11.170333929807729 -1 0 0 I I #
coedge $-1 $211 $311 $213 $330 reversed $126 $-1 #
vertex $-1 $322 $454 #
straight-curve $-1 0 -42.356369555628696 11.170333929807729 1 0 0 I I #
edge $-1 $216 -11.170333929807729 $319 11.170333929807729 $213 $455 forward 7 unknown #
edge $-1 $217 -11.170333929807729 $318 11.170333929807729 $214 $456 forward 7 unknown #
point $-1 63.679921872615743 -42.356369555628696 11.170333929807729 #
point $-1 63.679921872615743 42.356369555628696 11.170333929807729 #
face $-1 $-1 $234 $31 $-1 $457 reversed single #
loop $-1 $-1 $230 $219 #
plane-surface $-1 0 -42.356369555628696 0 0 1 0 0 0 1 forward_v I I I I #
coedge $-1 $458 $459 $227 $347 forward $220 $-1 #
coedge $-1 $348 $222 $224 $343 reversed $134 $-1 #
edge $-1 $345 -5.7814941509617688 $235 0.85688936340164279 $233 $460 forward 7 unknown #
coedge $-1 $224 $223 $461 $462 reversed $85 $-1 #
coedge $-1 $352 $351 $223 $342 forward $335 $-1 #
edge $-1 $463 -63.679921872615743 $344 63.679921872615743 $341 $464 forward 7 unknown #
edge $-1 $465 -63.679921872615743 $345 63.679921872615743 $338 $466 forward 7 unknown #
vertex $-1 $342 $467 #
vertex $-1 $226 $468 #
straight-curve $-1 63.679921872615743 -18.014357376137884 -8.2437965447418318 0 1 0 I I #
edge $-1 $353 -24.342012179490812 $349 -11.686702572784956 $337 $469 forward 7 unknown #
coedge $-1 $228 $338 $458 $470 reversed $134 $-1 #
vertex $-1 $347 $471 #
straight-curve $-1 0 -29.70105994892284 -1.6054130303784202 -1 0 0 I I #
coedge $-1 $341 $230 $459 $472 forward $335 $-1 #
coedge $-1 $230 $341 $232 $355 reversed $335 $-1 #
vertex $-1 $472 $473 #
straight-curve $-1 0 -42.356369555628696 -1.6054130303784202 -1 0 0 I I #
edge $-1 $236 1.6054130303784202 $344 8.2437965447418318 $232 $474 forward 7 unknown #
point $-1 63.679921872615743 -29.70105994892284 -1.6054130303784202 #
point $-1 63.679921872615743 -42.356369555628696 -1.6054130303784202 #
face $-1 $-1 $375 $32 $-1 $475 reversed single #
loop $-1 $-1 $371 $238 #
plane-surface $-1 -63.679921872615743 0 0 1 0 0 0 0 -1 forward_v I I I I #
coedge $-1 $378 $241 $242 $365 reversed $142 $-1 #
coedge $-1 $371 $476 $241 $363 forward $359 $-1 #
edge $-1 $477 -5.7814941509617688 $379 0.85688936340164279 $362 $478 forward 7 unknown #
coedge $-1 $243 $242 $476 $479 reversed $89 $-1 #
edge $-1 $368 -63.679921872615743 $477 63.679921872615743 $361 $480 forward 7 unknown #
coedge $-1 $374 $373 $243 $367 forward $375 $-1 #
edge $-1 $369 -63.679921872615743 $481 63.679921872615743 $366 $482 forward 7 unknown #
vertex $-1 $245 $483 #
vertex $-1 $367 $484 #
straight-curve $-1 63.679921872615743 18.014357376137884 -8.2437965447418318 0 1 0 I I #
coedge $-1 $485 $362 $246 $372 forward $359 $-1 #
edge $-1 $379 11.686702572784956 $376 24.342012179490812 $371 $486 forward 7 unknown #
coedge $-1 $366 $247 $252 $382 forward $375 $-1 #
coedge $-1 $247 $366 $485 $487 reversed $375 $-1 #
loop $-1 $-1 $247 $358 #
vertex $-1 $487 $488 #
straight-curve $-1 0 42.356369555628696 -1.6054130303784202 1 0 0 I I #
coedge $-1 $249 $361 $251 $381 reversed $142 $-1 #
vertex $-1 $372 $489 #
straight-curve $-1 0 29.70105994892284 -1.6054130303784202 1 0 0 I I #
edge $-1 $254 -0.85688936340164279 $368 5.7814941509617688 $251 $490 forward 7 unknown #
edge $-1 $253 1.6054130303784202 $369 8.2437965447418318 $252 $491 forward 7 unknown #
point $-1 63.679921872615743 42.356369555628696 -1.6054130303784202 #
point $-1 63.679921872615743 29.70105994892284 -1.6054130303784202 #
plane-surface $-1 63.679921872615743 0 0 -1 0 0 0 0 1 forward_v I I I I #
coedge $-1 $396 $395 $388 $492 forward $257 $-1 #
coedge $-1 $388 $259 $261 $392 reversed $150 $-1 #
coedge $-1 $259 $387 $386 $492 reversed $150 $-1 #
coedge $-1 $267 $262 $259 $390 forward $268 $-1 #
edge $-1 $393 -86.408367230918699 $493 -77.919005938621041 $389 $494 forward 7 unknown #
coedge $-1 $261 $260 $396 $495 reversed $93 $-1 #
edge $-1 $496 117.34937234455926 $393 127.3598437452315 $387 $497 forward 7 unknown #
vertex $-1 $263 $498 #
straight-curve $-1 63.679921872615751 0.80713802830644354 2.6809726375100453 0 1 0 I I #
coedge $-1 $386 $264 $267 $400 forward $257 $-1 #
coedge $-1 $264 $386 $391 $495 forward $257 $-1 #
vertex $-1 $265 $499 #
straight-curve $-1 52.098381410836538 -6.4742575493235321 11.170333929807725 1 0 0 I I #
straight-curve $-1 -3.8105112025293266 -6.4742575493235321 110.68824666171247 -0.52991925155115449 0 0.84804810408105047 I I #
edge $-1 $269 -6.4742575493235321 $493 9.7028096625493063 $267 $500 forward 7 unknown #
point $-1 63.679921872615743 -6.4742575493235321 11.170333929807729 #
point $-1 63.679921872615736 -6.4742575493235321 2.6809726375100666 #
edge $-1 $501 1 $501 0 $272 $-1 forward 7 unknown #
vertex $-1 $273 $502 #
ellipse-curve $-1 59.24640940306017 -3.2388441069489673 5.8126724525864759 0.84804810408105047 0 0.52991925155115449 0.79487887732673168 0 -1.2720721561215758 1 I I #
point $-1 61.822429993783238 -3.2388441069489673 5.6535811275373353 #
edge $-1 $503 1 $503 0 $276 $-1 forward 7 unknown #
vertex $-1 $277 $504 #
ellipse-curve $-1 59.24640940306017 1.6142760566128871 5.8126724525864759 0.84804810408105047 0 0.52991925155115449 0.79487887732673168 0 -1.2720721561215758 1 I I #
point $-1 61.822429993783238 1.6142760566128871 5.6535811275373353 #
edge $-1 $505 1 $505 0 $280 $-1 forward 7 unknown #
vertex $-1 $281 $506 #
ellipse-curve $-1 59.24640940306017 6.4673962201747415 5.8126724525864759 0.84804810408105047 0 0.52991925155115449 0.79487887732673168 0 -1.2720721561215758 1 I I #
point $-1 61.822429993783238 6.4673962201747415 5.6535811275373353 #
loop $-1 $-1 $292 $284 #
plane-surface $-1 0 0 11.170333929807729 0 0 1 1 0 0 forward_v I I I I #
coedge $-1 $418 $287 $289 $422 reversed $179 $-1 #
coedge $-1 $287 $417 $507 $508 reversed $179 $-1 #
coedge $-1 $295 $290 $287 $420 forward $285 $-1 #
edge $-1 $423 -35.187378445836458 $509 -30.289353546587311 $419 $510 forward 7 unknown #
coedge $-1 $289 $288 $426 $511 reversed $112 $-1 #
edge $-1 $512 -6.132991567732498 $423 1.2078792010054373e-014 $417 $513 forward 7 unknown #
vertex $-1 $291 $514 #
straight-curve $-1 -63.679921872615743 13.076631910563851 6.2723090305585796 0 -1 0 I I #
coedge $-1 $507 $292 $295 $430 forward $415 $-1 #
coedge $-1 $292 $507 $421 $511 forward $415 $-1 #
vertex $-1 $293 $515 #
straight-curve $-1 -82.697008344515908 29.701059948922847 11.170333929807732 -1 0 0 I I #
straight-curve $-1 -63.679921872615736 29.701059948922847 6.2723090305585885 0.60181501223851219 0 0.79863551827123203 I I #
edge $-1 $296 -29.701059948922847 $509 -22.605467693332557 $295 $516 forward 7 unknown #
point $-1 -63.679921872615743 29.701059948922847 11.170333929807729 #
point $-1 -63.679921872615743 29.701059948922847 6.2723090305585787 #
edge $-1 $517 1 $517 0 $299 $-1 forward 7 unknown #
vertex $-1 $300 $518 #
ellipse-curve $-1 -61.035823156647695 24.632779766358347 8.1195064679446478 -0.79863551827123203 0 0.60181501223851219 0.3009075061192561 0 0.39931775913561601 1 I I #
point $-1 -61.533551168799669 24.632779766358347 9.120639239318777 #
edge $-1 $519 1 $519 0 $303 $-1 forward 7 unknown #
vertex $-1 $304 $520 #
ellipse-curve $-1 -61.035823156647695 27.673747875897043 8.1195064679446478 -0.79863551827123203 0 0.60181501223851219 0.3009075061192561 0 0.39931775913561601 1 I I #
point $-1 -61.533551168799669 27.673747875897043 9.120639239318777 #
plane-surface $-1 63.679921872615743 0 0 -1 0 0 0 0 1 forward_v I I I I #
coedge $-1 $312 $310 $314 $446 reversed $201 $-1 #
edge $-1 $325 -11.170333929807729 $448 11.170333929807729 $324 $521 forward 7 unknown #
vertex $-1 $446 $522 #
straight-curve $-1 -63.679921872615743 -42.356369555628696 0 0 0 -1 I I #
edge $-1 $444 -42.356369555628696 $448 42.356369555628696 $442 $523 forward 7 unknown #
straight-curve $-1 0 -42.356369555628696 -11.170333929807729 -1 0 0 I I #
vertex $-1 $317 $524 #
straight-curve $-1 0 42.356369555628696 -11.170333929807729 1 0 0 I I #
point $-1 63.679921872615743 42.356369555628696 -11.170333929807729 #
point $-1 63.679921872615743 -42.356369555628696 -11.170333929807729 #
straight-curve $-1 -63.679921872615743 0 11.170333929807729 0 -1 0 I I #
point $-1 -63.679921872615743 42.356369555628696 11.170333929807729 #
point $-1 -63.679921872615743 -42.356369555628696 11.170333929807729 #
straight-curve $-1 63.679921872615743 -42.356369555628696 0 0 0 -1 I I #
straight-curve $-1 63.679921872615743 42.356369555628696 0 0 0 -1 I I #
plane-surface $-1 63.679921872615743 0 0 -1 0 0 0 0 1 forward_v I I I I #
coedge $-1 $461 $337 $348 $470 forward $220 $-1 #
coedge $-1 $337 $461 $351 $472 reversed $220 $-1 #
straight-curve $-1 63.679921872615743 -29.70105994892284 -2.462302393780063 0 0 1 I I #
coedge $-1 $459 $458 $340 $462 forward $220 $-1 #
edge $-1 $465 11.686702572784956 $463 24.342012179490812 $461 $525 forward 7 unknown #
vertex $-1 $342 $526 #
straight-curve $-1 0 -42.356369555628696 -8.2437965447418318 1 0 0 I I #
vertex $-1 $462 $527 #
straight-curve $-1 0 -29.70105994892284 -8.2437965447418318 1 0 0 I I #
point $-1 63.679921872615743 -42.356369555628696 -8.2437965447418318 #
point $-1 63.679921872615743 -29.70105994892284 -8.2437965447418318 #
straight-curve $-1 -63.679921872615743 -18.014357376137884 -1.6054130303784202 0 1 0 I I #
edge $-1 $349 -0.85688936340164279 $465 5.7814941509617688 $458 $528 forward 7 unknown #
point $-1 -63.679921872615743 -29.70105994892284 -1.6054130303784202 #
edge $-1 $353 1.6054130303784202 $463 8.2437965447418318 $459 $529 forward 7 unknown #
point $-1 -63.679921872615743 -42.356369555628696 -1.6054130303784202 #
straight-curve $-1 63.679921872615743 -42.356369555628696 0 0 0 -1 I I #
plane-surface $-1 0 42.356369555628696 0 0 -1 0 0 0 -1 forward_v I I I I #
coedge $-1 $362 $485 $364 $479 forward $359 $-1 #
vertex $-1 $479 $530 #
straight-curve $-1 -63.679921872615743 29.70105994892284 -2.462302393780063 0 0 1 I I #
edge $-1 $481 -24.342012179490812 $477 -11.686702572784956 $476 $531 forward 7 unknown #
straight-curve $-1 0 29.70105994892284 -8.2437965447418318 -1 0 0 I I #
vertex $-1 $367 $532 #
straight-curve $-1 0 42.356369555628696 -8.2437965447418318 -1 0 0 I I #
point $-1 63.679921872615743 29.70105994892284 -8.2437965447418318 #
point $-1 63.679921872615743 42.356369555628696 -8.2437965447418318 #
coedge $-1 $476 $371 $374 $487 forward $359 $-1 #
straight-curve $-1 -63.679921872615743 18.014357376137884 -1.6054130303784202 0 1 0 I I #
edge $-1 $376 1.6054130303784202 $481 8.2437965447418318 $374 $533 forward 7 unknown #
point $-1 -63.679921872615743 42.356369555628696 -1.6054130303784202 #
point $-1 -63.679921872615743 29.70105994892284 -1.6054130303784202 #
straight-curve $-1 63.679921872615743 29.70105994892284 -2.462302393780063 0 0 -1 I I #
straight-curve $-1 63.679921872615743 42.356369555628696 0 0 0 -1 I I #
edge $-1 $493 -11.581540461779205 $496 -6.2767989494607335 $386 $534 forward 7 unknown #
vertex $-1 $492 $535 #
straight-curve $-1 63.679921872615743 9.7028096625493063 89.089339868428766 0 0 1 I I #
edge $-1 $496 -8.8956716342428628 $397 7.2813955776299757 $396 $536 forward 7 unknown #
vertex $-1 $495 $537 #
straight-curve $-1 -3.8105112025293266 9.7028096625493063 110.68824666171247 0.52991925155115449 0 -0.84804810408105047 I I #
point $-1 63.679921872615736 9.7028096625493063 2.6809726375100666 #
point $-1 58.375180360297271 -6.4742575493235321 11.170333929807725 #
straight-curve $-1 63.679921872615743 0 11.170333929807729 0 1 0 I I #
vertex $-1 $403 $538 #
point $-1 60.041288280386901 -3.2388441069489673 4.5406002964649002 #
vertex $-1 $407 $539 #
point $-1 60.041288280386901 1.6142760566128871 4.5406002964649002 #
vertex $-1 $411 $540 #
point $-1 60.041288280386901 6.4673962201747415 4.5406002964649002 #
coedge $-1 $426 $425 $418 $508 forward $415 $-1 #
edge $-1 $509 19.017086471900164 $512 22.708012867293796 $507 $541 forward 7 unknown #
vertex $-1 $508 $542 #
straight-curve $-1 -63.679921872615743 22.605467693332557 41.45968747639504 0 0 1 I I #
edge $-1 $512 9.5288357827687058 $427 16.624428038358996 $426 $543 forward 7 unknown #
vertex $-1 $511 $544 #
straight-curve $-1 -63.679921872615736 22.605467693332557 6.2723090305585885 -0.60181501223851219 0 -0.79863551827123203 I I #
point $-1 -63.679921872615743 22.605467693332557 6.2723090305585787 #
point $-1 -59.988995477222112 29.701059948922847 11.170333929807729 #
straight-curve $-1 -63.679921872615743 0 11.170333929807729 0 -1 0 I I #
vertex $-1 $433 $545 #
point $-1 -60.734915650528443 24.632779766358347 8.5188242270802643 #
vertex $-1 $437 $546 #
point $-1 -60.734915650528443 27.673747875897043 8.5188242270802643 #
straight-curve $-1 -63.679921872615743 42.356369555628696 0 0 0 -1 I I #
point $-1 -63.679921872615743 -42.356369555628696 -11.170333929807729 #
straight-curve $-1 -63.679921872615743 0 -11.170333929807729 0 1 0 I I #
point $-1 -63.679921872615743 42.356369555628696 -11.170333929807729 #
straight-curve $-1 -63.679921872615743 -18.014357376137884 -8.2437965447418318 0 -1 0 I I #
point $-1 -63.679921872615743 -42.356369555628696 -8.2437965447418318 #
point $-1 -63.679921872615743 -29.70105994892284 -8.2437965447418318 #
straight-curve $-1 -63.679921872615743 -29.70105994892284 -2.462302393780063 0 0 -1 I I #
straight-curve $-1 -63.679921872615743 -42.356369555628696 0 0 0 -1 I I #
point $-1 -63.679921872615743 29.70105994892284 -8.2437965447418318 #
straight-curve $-1 -63.679921872615743 18.014357376137884 -8.2437965447418318 0 -1 0 I I #
point $-1 -63.679921872615743 42.356369555628696 -8.2437965447418318 #
straight-curve $-1 -63.679921872615743 42.356369555628696 0 0 0 -1 I I #
straight-curve $-1 52.098381410836538 9.7028096625493063 11.170333929807725 -1 0 0 I I #
point $-1 63.679921872615743 9.7028096625493063 11.170333929807729 #
straight-curve $-1 58.375180360297264 0.80713802830644354 11.170333929807732 0 -1 0 I I #
point $-1 58.375180360297271 9.7028096625493063 11.170333929807725 #
point $-1 57.974337246938589 -3.2388441069489673 5.0177935752597449 #
point $-1 57.974337246938589 1.6142760566128871 5.0177935752597449 #
point $-1 57.974337246938589 6.4673962201747415 5.0177935752597449 #
straight-curve $-1 -82.697008344515908 22.605467693332557 11.170333929807732 1 0 0 I I #
point $-1 -63.679921872615743 22.605467693332557 11.170333929807729 #
straight-curve $-1 -59.988995477222105 13.076631910563851 11.170333929807731 0 1 0 I I #
point $-1 -59.988995477222112 22.605467693332557 11.170333929807729 #
point $-1 -60.636505397512082 24.632779766358347 7.8185989618253924 #
point $-1 -60.636505397512082 27.673747875897043 7.8185989618253924 #
End-of-ACIS-data 